<?xml version="1.0" encoding="utf-8"?>
<!-- Generator: Adobe Illustrator 16.0.0, SVG Export Plug-In . SVG Version: 6.00 Build 0)  -->
<!DOCTYPE svg PUBLIC "-//W3C//DTD SVG 1.1//EN" "http://www.w3.org/Graphics/SVG/1.1/DTD/svg11.dtd">
<svg version="1.1" xmlns="http://www.w3.org/2000/svg" xmlns:xlink="http://www.w3.org/1999/xlink" x="0px" y="0px" width="40px"
	 height="40px" viewBox="0 0 40 40" enable-background="new 0 0 40 40" xml:space="preserve">
<g id="circle" display="none">
	<circle display="inline" fill="#007AFF" cx="20" cy="20" r="20"/>
</g>
<g id="logo">
	<path fill="#FFFFFF" d="M27.322,9.798c1.691,1.251,2.869,3.055,3.185,5.35l0,0c0.127,0.922,0.153,1.855,0.084,2.77
		c-0.167,2.189-0.88,4.287-2.061,5.911c-1.192,1.641-2.86,2.798-4.925,3.084c-0.511,0.07-1.043,0.087-1.598,0.045h-0.002
		c-1.241-0.099-1.933-0.577-2.742-1.139c-0.156-0.108-0.318-0.22-0.487-0.332c-0.321,1.644-0.687,3.245-1.243,4.661
		c-0.613,1.559-1.457,2.894-2.726,3.816l-0.375,0.271l-0.065-0.46c-0.561-3.991,0.307-7.232,1.15-10.383
		c0.291-1.087,0.579-2.165,0.8-3.235c-0.499-0.902-0.63-2.08-0.46-3.194c0.121-0.789,0.395-1.551,0.795-2.163
		c0.412-0.631,0.964-1.107,1.631-1.302c0.516-0.151,1.092-0.131,1.717,0.116v0.001c2.068,0.82,1.347,3.087,0.625,5.352
		c-0.228,0.713-0.454,1.425-0.587,2.088c-0.265,1.33-0.112,2.416,1.387,2.716v0.001c0.839,0.17,1.587,0.012,2.232-0.378
		c0.888-0.536,1.591-1.511,2.076-2.681c0.493-1.189,0.759-2.572,0.766-3.904c0.009-1.756-0.431-3.412-1.392-4.386
		c-1.08-1.096-2.41-1.645-3.778-1.751c-1.321-0.103-2.677,0.203-3.882,0.823c-1.207,0.621-2.26,1.556-2.972,2.709
		c-0.769,1.245-1.138,2.747-0.874,4.386c0.08,0.494,0.318,0.887,0.547,1.263c0.506,0.833,0.971,1.603,0.079,3.183l-0.101,0.179
		l-0.201-0.044c-1.403-0.311-2.355-0.99-2.964-1.949c-0.599-0.943-0.856-2.148-0.878-3.53v-0.006
		c0.029-2.609,0.969-4.917,2.546-6.649c1.585-1.74,3.814-2.895,6.413-3.186c0.255-0.029,0.512-0.051,0.769-0.065
		c0.252-0.014,0.508-0.022,0.768-0.022C23.126,7.758,25.518,8.461,27.322,9.798L27.322,9.798z"/>
</g>
</svg>
