<?xml version="1.0" encoding="utf-8"?>
<!-- Generator: Adobe Illustrator 16.0.0, SVG Export Plug-In . SVG Version: 6.00 Build 0)  -->
<!DOCTYPE svg PUBLIC "-//W3C//DTD SVG 1.1//EN" "http://www.w3.org/Graphics/SVG/1.1/DTD/svg11.dtd">
<svg version="1.1" xmlns="http://www.w3.org/2000/svg" xmlns:xlink="http://www.w3.org/1999/xlink" x="0px" y="0px" width="40px"
	 height="40px" viewBox="0 0 40 40" enable-background="new 0 0 40 40" xml:space="preserve">
<g id="circle" display="none">
	<circle display="inline" fill="#007AFF" cx="20" cy="20" r="20"/>
</g>
<g id="logo">
	<path id="path3611" fill="#FFFFFF" d="M16.272,31.357c9.618,0,14.88-7.969,14.88-14.879c0-0.226-0.005-0.451-0.016-0.676
		c1.02-0.739,1.909-1.659,2.609-2.708c-0.938,0.416-1.946,0.697-3.004,0.823c1.08-0.646,1.908-1.671,2.299-2.892
		c-1.01,0.599-2.129,1.033-3.32,1.27c-0.954-1.017-2.312-1.652-3.818-1.652c-2.887,0-5.229,2.341-5.229,5.229
		c0,0.41,0.045,0.81,0.137,1.193c-4.348-0.219-8.201-2.3-10.781-5.465c-0.448,0.773-0.707,1.671-0.707,2.629
		c0,1.814,0.923,3.416,2.327,4.354c-0.858-0.026-1.663-0.263-2.368-0.655c0,0.021,0,0.043,0,0.067c0,2.532,1.801,4.646,4.195,5.126
		c-0.441,0.119-0.903,0.184-1.38,0.184c-0.337,0-0.663-0.033-0.983-0.094c0.666,2.076,2.598,3.59,4.885,3.632
		c-1.789,1.402-4.043,2.237-6.494,2.237c-0.421,0-0.838-0.022-1.248-0.072C10.57,30.492,13.319,31.357,16.272,31.357"/>
</g>
</svg>
