<?xml version="1.0" encoding="utf-8"?>
<!-- Generator: Adobe Illustrator 16.0.0, SVG Export Plug-In . SVG Version: 6.00 Build 0)  -->
<!DOCTYPE svg PUBLIC "-//W3C//DTD SVG 1.1//EN" "http://www.w3.org/Graphics/SVG/1.1/DTD/svg11.dtd">
<svg version="1.1" xmlns="http://www.w3.org/2000/svg" xmlns:xlink="http://www.w3.org/1999/xlink" x="0px" y="0px" width="40px"
	 height="40px" viewBox="0 0 40 40" enable-background="new 0 0 40 40" xml:space="preserve">
<g id="circle" display="none">
	<circle display="inline" fill="#007AFF" cx="20" cy="20" r="20"/>
</g>
<g id="logo">
	<path fill="#FFFFFF" d="M32.389,20c0,2.489,0,4.168-0.058,5.095c-0.116,2.257-0.752,3.995-2.025,5.21
		c-1.274,1.217-2.953,1.91-5.21,2.027C24.169,32.39,22.432,32.39,20,32.39c-2.489,0-4.168,0-5.094-0.058
		c-2.258-0.117-3.995-0.753-5.21-2.027c-1.215-1.215-1.911-2.953-2.026-5.21C7.612,24.168,7.612,22.432,7.612,20
		c0-2.431,0-4.167,0.058-5.094c0.115-2.258,0.753-3.994,2.026-5.21c1.216-1.216,2.953-1.911,5.21-2.026
		C15.832,7.612,17.568,7.612,20,7.612c2.49,0,4.169,0,5.095,0.058c2.257,0.116,3.994,0.752,5.21,2.026
		c1.215,1.273,1.91,2.952,2.025,5.21C32.331,15.833,32.389,17.511,32.389,20z M21.216,9.812c-0.753,0-1.158,0-1.216,0
		s-0.463,0-1.216,0s-1.332,0-1.678,0c-0.406,0-0.926,0-1.563,0.058c-0.637,0-1.217,0.058-1.679,0.174
		c-0.463,0.058-0.869,0.174-1.158,0.29c-0.521,0.231-0.984,0.521-1.447,0.926c-0.404,0.405-0.694,0.868-0.927,1.447
		c-0.115,0.29-0.23,0.695-0.288,1.158c-0.058,0.463-0.116,0.984-0.174,1.679c0,0.637-0.058,1.158-0.058,1.563
		c0,0.406,0,0.984,0,1.679c0,0.753,0,1.158,0,1.216c0,0.058,0,0.463,0,1.216c0,0.753,0,1.331,0,1.679c0,0.405,0,0.926,0.058,1.563
		c0,0.637,0.058,1.216,0.174,1.679c0.115,0.463,0.173,0.868,0.288,1.158c0.232,0.521,0.522,0.984,0.927,1.446
		c0.406,0.406,0.869,0.695,1.447,0.927c0.29,0.115,0.695,0.232,1.158,0.29c0.462,0.058,0.984,0.115,1.679,0.173
		c0.694,0.059,1.157,0.059,1.563,0.059c0.405,0,0.984,0,1.678,0c0.752,0,1.158,0,1.216,0s0.462,0,1.216,0c0.752,0,1.332,0,1.678,0
		c0.406,0,0.927,0,1.563-0.059c0.637,0,1.216-0.058,1.679-0.173c0.463-0.058,0.869-0.175,1.159-0.29
		c0.521-0.231,0.983-0.521,1.447-0.927c0.404-0.404,0.694-0.868,0.926-1.446c0.116-0.29,0.231-0.695,0.289-1.158
		s0.116-0.984,0.174-1.679c0-0.638,0.058-1.158,0.058-1.563s0-0.984,0-1.679c0-0.752,0-1.158,0-1.216c0-0.058,0-0.463,0-1.216
		c0-0.752,0-1.331,0-1.679c0-0.405,0-0.926-0.058-1.563c0-0.637-0.058-1.215-0.174-1.679c-0.058-0.463-0.173-0.868-0.289-1.158
		c-0.231-0.521-0.521-0.984-0.926-1.447c-0.406-0.405-0.869-0.695-1.447-0.926c-0.29-0.116-0.695-0.231-1.159-0.29
		c-0.462-0.058-0.984-0.116-1.679-0.174c-0.637,0-1.157-0.058-1.563-0.058C22.548,9.812,21.968,9.812,21.216,9.812z M24.458,15.484
		c1.216,1.216,1.853,2.722,1.853,4.516c0,1.795-0.637,3.242-1.853,4.516c-1.215,1.215-2.72,1.854-4.516,1.854
		c-1.795,0-3.242-0.639-4.515-1.854C14.211,23.3,13.574,21.795,13.574,20c0-1.794,0.637-3.241,1.853-4.516
		c1.215-1.215,2.72-1.852,4.515-1.852C21.737,13.633,23.242,14.211,24.458,15.484z M22.894,22.895
		c0.811-0.811,1.217-1.795,1.217-2.895s-0.406-2.142-1.217-2.953s-1.794-1.215-2.952-1.215c-1.158,0-2.141,0.404-2.952,1.215
		S15.773,18.842,15.773,20c0,1.158,0.406,2.143,1.217,2.895c0.811,0.811,1.794,1.216,2.952,1.216
		C21.1,24.11,22.083,23.705,22.894,22.895z M27.642,12.301c0.29,0.29,0.463,0.637,0.463,1.042s-0.173,0.752-0.463,1.042
		c-0.29,0.289-0.637,0.462-1.042,0.462s-0.752-0.174-1.042-0.462c-0.29-0.29-0.463-0.637-0.463-1.042s0.173-0.752,0.463-1.042
		c0.29-0.289,0.637-0.463,1.042-0.463S27.352,12.012,27.642,12.301z"/>
</g>
</svg>
