<?xml version="1.0" encoding="utf-8"?>
<!-- Generator: Adobe Illustrator 16.0.0, SVG Export Plug-In . SVG Version: 6.00 Build 0)  -->
<!DOCTYPE svg PUBLIC "-//W3C//DTD SVG 1.1//EN" "http://www.w3.org/Graphics/SVG/1.1/DTD/svg11.dtd" [
	<!ENTITY ns_extend "http://ns.adobe.com/Extensibility/1.0/">
	<!ENTITY ns_ai "http://ns.adobe.com/AdobeIllustrator/10.0/">
	<!ENTITY ns_graphs "http://ns.adobe.com/Graphs/1.0/">
	<!ENTITY ns_vars "http://ns.adobe.com/Variables/1.0/">
	<!ENTITY ns_imrep "http://ns.adobe.com/ImageReplacement/1.0/">
	<!ENTITY ns_sfw "http://ns.adobe.com/SaveForWeb/1.0/">
	<!ENTITY ns_custom "http://ns.adobe.com/GenericCustomNamespace/1.0/">
	<!ENTITY ns_adobe_xpath "http://ns.adobe.com/XPath/1.0/">
]>
<svg version="1.1" xmlns:x="&ns_extend;" xmlns:i="&ns_ai;" xmlns:graph="&ns_graphs;"
	 xmlns="http://www.w3.org/2000/svg" xmlns:xlink="http://www.w3.org/1999/xlink" x="0px" y="0px" width="750px" height="750px"
	 viewBox="0 0 750 750" enable-background="new 0 0 750 750" xml:space="preserve">
<metadata>
	<sfw  xmlns="&ns_sfw;">
		<slices></slices>
		<sliceSourceBounds  width="2799.202" height="612.251" bottomLeftOrigin="true" x="-746.333" y="73.249"></sliceSourceBounds>
	</sfw>
</metadata>
<g id="AG-ANIMALS">
	<g>
		<g id="POLYLINE_61_">
			
				<path fill="none" stroke="#FB8604" stroke-width="2.75" stroke-linecap="round" stroke-linejoin="round" stroke-miterlimit="10" d="
				M351.98,256.95c-7.879-3.334-15.951-6.409-23.361-10.73c-7.36-4.292-14.138-9.571-20.422-15.31
				c-6.611-6.037-12.596-12.692-18.674-19.253c-5.833-6.297-11.715-12.545-17.77-18.632c-6.354-6.387-12.747-12.748-19.245-18.988
				c-6.141-5.896-12.791-11.515-20.31-15.581c-7.67-4.147-16.092-6.415-24.401-8.888c-1.308-0.389-2.682-0.81-3.867-1.502
				c-0.269-0.156-0.74-0.417-0.843-0.751c-0.16-0.524,0.379-0.73,0.811-0.838c0.769-0.193,1.6-0.087,2.363,0.072
				c1.935,0.402,3.786,1.207,5.65,1.84c3.929,1.336,8.088,1.818,12.01,3.188c7.66,2.677,14.77,7.081,21.118,12.084
				c6.403,5.047,12.184,10.954,18.112,16.533c6.895,6.487,13.826,12.938,20.653,19.496c6.209,5.964,11.536,12.62,17.215,19.066
				c5.529,6.277,11.985,11.647,18.851,16.404c7.01,4.857,14.302,9.396,22.027,13.034c4.012,1.889,8.111,3.536,12.26,5.099"/>
		</g>
		<g id="POLYLINE_60_">
			
				<path fill="none" stroke="#FB8604" stroke-width="2.75" stroke-linecap="round" stroke-linejoin="round" stroke-miterlimit="10" d="
				M321.537,327.417c-2.424-1.98-5.157-2.993-8.225-3.541c-1.068-0.19-2.408-0.243-3.373-0.833c-0.883-0.54-1.282-1.566-1.898-2.35
				c-0.689-0.877-1.836-0.845-2.527-1.633c-0.476-0.543-0.649-1.395-0.822-2.065c-0.391-1.51-0.785-3.003-1.542-4.378
				c-1.249-2.267-3.167-4.193-5.437-5.439c-2.848-1.564-6.188-1.745-9.094-3.142c-4.305-2.07-5.393-8.214-10.229-9.435
				c-1.928-0.487-3.978,0.544-5.844-0.03c-1.678-0.517-1.777-2.668-2.603-3.949c-0.726-1.126-1.939-1.691-3.207-1.998
				c-1.006-0.243-1.997-0.062-2.98-0.228c-0.187-0.031-0.324-0.062-0.479-0.177c-1.18-0.878-0.879-2.969-1.988-3.975
				c-0.85-0.771-2.108-0.202-3.016-0.72c-0.472-0.269-0.357-0.724-0.209-1.196c0.539-1.707,1.312-3.635,0.199-5.28
				c-0.439-0.649-1.124-1.264-1.889-1.493c-0.426-0.127-0.887,0.02-1.297-0.109c-0.813-0.256-0.963-1.536-1.093-2.227
				c-0.355-1.892-0.43-3.895-0.205-5.807c0.132-1.127,0.468-2.321,0.217-3.455c-0.168-0.759-0.436-1.347-0.256-2.119
				c0.31-1.329,1.186-2.48,1.692-3.735c0.223-0.551,0.818-2.078,0.113-2.6c-0.3-0.222-0.471-0.067-0.697,0.187
				c-1.076,1.206-1.164,3.241-2.739,4.028c-1.319,0.659-3.512,0.645-4.864,0.164c-1.307-0.464-1.55-2.015-2.224-3.08
				c-0.207-0.327-0.59-1.044-1.014-0.652c-0.678,0.627,0.188,2.513,0.479,3.098c0.77,1.547,2.033,2.384,1.837,4.226
				c-0.213,1.995-0.554,3.473,0.366,5.336c1.099,2.228,3.562,4.556,3.555,7.214c-0.002,0.564-0.278,0.934-0.468,1.451
				c-0.233,0.637-0.17,1.326-0.009,1.976c0.426,1.712,1.549,2.67,2.979,3.615c0.693,0.458,1.077,0.841,0.896,1.672
				c-0.312,1.423-0.912,2.766,0.062,4.089c1.255,1.704,3.776,1.778,5.484,2.764c0.913,0.527,0.588,1.071,0.707,2.029
				c0.188,1.519,1.372,2.984,2.486,3.954c1.459,1.271,3.2,1.65,5.095,1.707c0.646,0.02,2.392-0.229,2.774,0.619
				c0.195,0.433-0.031,1.032-0.018,1.491c0.02,0.683,0.215,1.348,0.506,1.963c0.717,1.514,2.057,2.651,3.693,3.039
				c2.744,0.65,5.532-0.364,8.264,0.039c1.103,0.163,1.089,0.815,1.461,1.76c0.802,2.034,2.908,2.921,4.082,4.641
				c1.223,1.792,1.528,3.787,3.379,5.118c2.25,1.617,5.261,2.13,7.305,4.021c0.816,0.754,1.269,1.792,2.033,2.587
				c0.682,0.709,1.586,1.156,2.448,1.6c0.793,0.409,1.668,0.78,2.245,1.49c0.949,1.167,1.537,2.631,2.461,3.837
				c2.045,2.668,4.679,4.899,7.262,7.027c2.793,2.301,5.637,4.591,8.689,6.542"/>
		</g>
		<g id="POLYLINE_59_">
			
				<path fill="none" stroke="#FB8604" stroke-width="2.75" stroke-linecap="round" stroke-linejoin="round" stroke-miterlimit="10" d="
				M312.268,402.217c-6.046-4.354-13.27-6.516-20.725-5.605c-3.136,0.383-5.678,1.406-8.136,3.358
				c-2.076,1.648-4.002,2.429-6.665,2.665c-3.157,0.279-6.666-0.408-9.698,0.689c-2.376,0.86-3.113,3.117-4.236,5.164
				c-0.501,0.912-1.016,1.561-2.114,1.439c-2.769-0.306-5.422-1.688-8.278-1.145c-1.456,0.277-2.15,1.228-2.587,2.58
				c-0.311,0.962-0.424,2.254-1.521,2.633c-1.149,0.396-2.614,0.093-3.783,0.072c-1.061-0.019-2.22-0.018-3.229,0.369
				c-1.467,0.562-1.904,2.028-2.221,3.434c-0.229,1.02-0.374,2.743-1.624,3.074c-1.457,0.386-3.059-0.674-4.489,0.053
				c-1.936,0.982-1.729,4.731-4.416,3.863c-1.896-0.611-3.436-0.449-4.861,1.044c-0.831,0.871-1.279,1.248-2.479,0.831
				c-1.854-0.644-3.644-1.439-5.515-2.054c-1.251-0.41-2.548-0.813-3.659-1.542c-1.932-1.267-2.724-3.569-4.453-5.039
				c-0.248-0.212-1.87-1.472-2.197-0.868c-0.086,0.159,0.149,0.501,0.209,0.61c0.687,1.258,1.729,2.284,2.409,3.564
				c0.312,0.588,1.16,1.693,0.825,2.434c-0.308,0.681-1.116,0.735-1.107,1.59c0.005,0.52,0.647,1.372,0.098,1.702
				c-0.109,0.065-0.356,0.028-0.466,0.021c-0.932-0.055-1.863-0.118-2.797-0.12c-0.943-0.003-2.061-0.032-2.96,0.332
				c-1.216,0.492-0.729,1.379,0.374,1.521c2.9,0.373,6.007-0.604,8.827,0.501c0.855,0.335,1.561,0.742,2.48,0.884
				c1.688,0.26,3.433,0.202,5.134,0.193c1.449-0.007,3.234-0.273,4.663,0.133c0.507,0.145,0.818,0.526,1.279,0.755
				c1.265,0.629,3.138-0.411,4.243-0.892c1.108-0.482,2.996-1.764,4.329-1.216c0.52,0.214,0.896,0.611,1.473,0.684
				c0.537,0.067,1.101-0.093,1.6-0.275c1.136-0.415,2.46-1.176,2.944-2.345c0.422-1.018,0.289-1.86,1.435-2.321
				c0.793-0.319,1.657-0.136,2.485-0.157c0.864-0.022,1.724-0.168,2.522-0.507c1.83-0.776,2.702-2.501,3.813-4.045
				c0.652-0.905,1.22-1.385,2.358-1.371c1.999,0.025,4.41,0.306,6.175-0.894c1.327-0.902,1.714-2.903,3.274-3.432
				c1.236-0.418,2.738-0.295,4.016-0.267c1.646,0.037,3.32,0.253,4.96,0.01c2.582-0.383,5.067-1.895,6.919-3.68
				c1.413-1.362,2.445-2.685,4.459-3.023c2.205-0.37,4.76-0.016,6.786,0.92c1.305,0.603,2.437,1.511,3.75,2.1
				c1.585,0.711,3.331,1.076,5.04,1.342c3.793,0.59,7.819,0.691,11.585-0.15"/>
		</g>
		<g id="POLYLINE_58_">
			
				<path fill="none" stroke="#FB8604" stroke-width="2.75" stroke-linecap="round" stroke-linejoin="round" stroke-miterlimit="10" d="
				M299.274,501.565c-2.963,2.186-5.956,4.187-9.41,5.509c-3.914,1.498-7.849,2.628-11.549,4.651
				c-3.724,2.035-7.256,4.53-10.375,7.409c-1.357,1.253-2.628,2.614-3.749,4.083c-0.854,1.118-1.396,2.483-2.266,3.563
				c-0.871,1.081-2.603,0.789-3.813,1.051c-1.332,0.288-2.547,0.974-3.561,1.872c-2.231,1.977-3.175,4.961-5.177,7.114
				c-1.906,2.051-5.216,1.516-7.709,2.086c-1.617,0.369-3.032,1.058-3.449,2.766c-0.344,1.408,0.208,3.379-0.762,4.572
				c-0.357,0.439-0.918,0.676-1.435,0.869c-1.274,0.476-2.601,0.912-3.739,1.676c-1.207,0.811-1.77,1.907-1.895,3.336
				c-0.156,1.777,0.592,3.984-0.988,5.295c-1.281,1.063-2.871,1.62-2.979,3.479c-0.078,1.355,0.777,3.021-0.096,4.22
				c-0.569,0.782-1.356,1.336-1.854,2.186c-0.354,0.604-0.588,1.276-0.744,1.957c-0.255,1.109-0.409,2.497,0.2,3.521
				c0.704,1.183,1.435,1.538,1.259,3.023c-0.307,2.586-2.076,4.438-3.061,6.735c-0.417,0.973-0.376,2.045-0.705,3.04
				c-0.271,0.822-0.812,1.528-1.418,2.135c-1.555,1.555-4.099,2.359-5.164,4.346c-0.19,0.354-0.45,0.852,0.044,0.965
				c0.492,0.113,1.404-0.577,1.778-0.805c0.937-0.569,1.807-1.345,2.864-1.691c1.305-0.427,3.069-0.379,4.122,0.604
				c1.644,1.536,0.964,4.01,1.341,5.954c0.069,0.355,0.155,0.753,0.581,0.73c0.477-0.025,0.715-0.673,0.798-1.043
				c0.269-1.202,0.08-2.491,0.253-3.716c0.174-1.231,0.526-2.417,1.023-3.556c0.636-1.457,1.401-2.869,1.758-4.43
				c0.277-1.212,0.278-2.469,0.195-3.703c-0.125-1.853-0.521-3.687-0.562-5.544c-0.015-0.657-0.006-1.401,0.322-1.993
				c0.295-0.531,0.867-0.84,1.148-1.381c0.3-0.576,0.281-1.291,0.272-1.922c-0.017-1.137-0.468-3.256,0.651-4.129
				c0.444-0.347,1.052-0.4,1.506-0.748c0.479-0.367,0.829-0.934,1.098-1.465c0.619-1.224,1.086-2.555,1.289-3.914
				c0.084-0.556,0.09-1.34,0.465-1.816c0.262-0.333,0.688-0.465,1.073-0.596c0.894-0.305,1.628-0.646,2.24-1.394
				c0.667-0.814,1.076-1.828,1.28-2.854c0.213-1.068,0.124-2.271,0.584-3.28c0.749-1.644,2.803-1.393,4.268-1.853
				c1.476-0.464,2.393-1.59,3.123-2.905c0.971-1.749,1.184-3.551,3.277-4.114c2.637-0.709,5.43-0.226,8.014-1.261
				c1.819-0.729,3.596-1.917,4.824-3.459c0.646-0.811,0.979-1.694,1.199-2.699c0.193-0.886,0.406-1.678,1.067-2.332
				c1.462-1.447,3.216-0.943,5.065-1.16c3.304-0.387,6.544-1.98,9.2-3.924c3.352-2.454,6.142-5.562,9.177-8.375
				c2.835-2.628,6.052-4.578,9.359-6.547"/>
		</g>
		<g id="POLYLINE_57_">
			
				<path fill="none" stroke="#FB8604" stroke-width="2.75" stroke-linecap="round" stroke-linejoin="round" stroke-miterlimit="10" d="
				M452.67,501.532c2.942,2.226,5.951,4.216,9.409,5.542c3.913,1.5,7.852,2.624,11.55,4.651c3.72,2.038,7.26,4.526,10.374,7.409
				c1.356,1.255,2.629,2.613,3.75,4.083c0.853,1.118,1.396,2.484,2.267,3.563c0.871,1.08,2.601,0.792,3.812,1.051
				c1.325,0.282,2.558,0.972,3.561,1.872c2.218,1.993,3.174,4.958,5.176,7.114c1.904,2.052,5.219,1.517,7.711,2.086
				c1.617,0.369,3.03,1.058,3.448,2.766c0.345,1.408-0.209,3.379,0.763,4.572c0.357,0.438,0.916,0.676,1.433,0.869
				c1.271,0.474,2.607,0.906,3.739,1.676c1.194,0.812,1.788,1.904,1.896,3.336c0.133,1.769-0.582,3.992,0.987,5.295
				c1.254,1.041,2.873,1.611,2.977,3.445c0.076,1.349-0.775,3.04,0.084,4.235c0.558,0.775,1.343,1.325,1.841,2.158
				c0.358,0.601,0.612,1.28,0.762,1.963c0.245,1.118,0.428,2.485-0.17,3.527c-0.679,1.183-1.457,1.541-1.285,3.021
				c0.3,2.578,2.038,4.437,3.042,6.719c0.429,0.975,0.397,2.044,0.715,3.048c0.261,0.822,0.787,1.52,1.383,2.131
				c1.55,1.593,4.104,2.376,5.197,4.367c0.192,0.351,0.478,0.87-0.021,0.993c-0.468,0.115-1.324-0.531-1.685-0.744
				c-0.967-0.571-1.848-1.374-2.926-1.739c-1.304-0.442-3.08-0.399-4.143,0.575c-1.641,1.505-1.015,3.987-1.351,5.916
				c-0.063,0.362-0.143,0.804-0.583,0.785c-0.465-0.02-0.708-0.638-0.796-1.002c-0.285-1.188-0.088-2.476-0.253-3.689
				c-0.168-1.224-0.507-2.407-0.996-3.541c-0.638-1.479-1.395-2.893-1.783-4.465c-0.292-1.18-0.288-2.428-0.213-3.633
				c0.116-1.872,0.508-3.723,0.566-5.598c0.021-0.67,0.019-1.433-0.31-2.038c-0.291-0.536-0.863-0.846-1.149-1.386
				c-0.297-0.56-0.291-1.248-0.282-1.864c0.016-1.139,0.481-3.308-0.64-4.192c-0.438-0.346-1.038-0.399-1.49-0.736
				c-0.486-0.363-0.822-0.919-1.104-1.445c-0.646-1.204-1.075-2.554-1.301-3.899c-0.095-0.569-0.085-1.363-0.464-1.856
				c-0.233-0.304-0.598-0.444-0.951-0.564c-0.92-0.313-1.69-0.629-2.332-1.391c-0.68-0.808-1.092-1.818-1.307-2.844
				c-0.228-1.078-0.131-2.283-0.583-3.308c-0.731-1.659-2.776-1.423-4.247-1.872c-1.463-0.446-2.386-1.543-3.115-2.841
				c-0.957-1.701-1.194-3.632-3.271-4.177c-2.631-0.691-5.444-0.198-8.008-1.251c-1.821-0.748-3.601-1.89-4.844-3.439
				c-0.621-0.773-0.989-1.618-1.199-2.586c-0.2-0.919-0.389-1.765-1.068-2.454c-1.449-1.468-3.19-0.985-5.044-1.188
				c-3.301-0.36-6.538-1.964-9.196-3.887c-3.366-2.435-6.184-5.55-9.199-8.384c-2.826-2.655-6.073-4.605-9.396-6.568"/>
		</g>
		<g id="POLYLINE_56_">
			
				<path fill="none" stroke="#FB8604" stroke-width="2.75" stroke-linecap="round" stroke-linejoin="round" stroke-miterlimit="10" d="
				M439.678,402.222c6.014-4.379,13.289-6.518,20.723-5.61c3.135,0.383,5.68,1.405,8.138,3.358c2.075,1.649,4.001,2.429,6.665,2.665
				c3.157,0.279,6.664-0.407,9.697,0.689c2.355,0.852,3.148,3.114,4.236,5.164c0.486,0.917,1.024,1.56,2.113,1.439
				c2.77-0.305,5.423-1.688,8.279-1.145c1.456,0.277,2.149,1.228,2.587,2.58c0.312,0.965,0.424,2.254,1.522,2.633
				c1.149,0.396,2.613,0.093,3.781,0.072c1.062-0.019,2.222-0.018,3.23,0.369c1.467,0.562,1.901,2.029,2.219,3.434
				c0.23,1.02,0.374,2.744,1.625,3.074c1.453,0.384,3.046-0.667,4.475,0.045c1.961,0.978,1.708,4.659,4.384,3.887
				c0.985-0.284,1.818-0.595,2.847-0.303c0.786,0.223,1.451,0.688,2.008,1.275c0.822,0.867,1.283,1.32,2.483,0.903
				c1.811-0.628,3.557-1.411,5.385-2.011c1.292-0.425,2.639-0.827,3.791-1.571c1.95-1.26,2.743-3.563,4.472-5.045
				c0.25-0.215,1.887-1.499,2.224-0.897c0.085,0.151-0.129,0.469-0.186,0.578c-0.65,1.247-1.709,2.255-2.382,3.508
				c-0.322,0.601-1.214,1.758-0.879,2.521c0.297,0.675,1.114,0.735,1.113,1.58c0,0.522-0.654,1.386-0.098,1.718
				c0.109,0.065,0.354,0.028,0.465,0.021c0.932-0.056,1.863-0.118,2.797-0.12c0.944-0.003,2.06-0.031,2.959,0.332
				c1.215,0.491,0.732,1.379-0.373,1.521c-2.9,0.372-6.006-0.603-8.826,0.501c-0.856,0.335-1.562,0.742-2.482,0.884
				c-1.688,0.261-3.432,0.202-5.133,0.193c-1.449-0.007-3.261-0.282-4.688,0.14c-0.502,0.148-0.816,0.539-1.277,0.76
				c-1.289,0.618-3.191-0.457-4.312-0.943c-1.097-0.477-2.948-1.729-4.261-1.166c-0.517,0.222-0.89,0.608-1.467,0.676
				c-0.539,0.062-1.124-0.096-1.621-0.292c-1.138-0.449-2.439-1.17-2.92-2.364c-0.412-1.023-0.293-1.848-1.447-2.297
				c-0.797-0.31-1.669-0.13-2.498-0.148c-0.872-0.02-1.708-0.195-2.516-0.519c-1.834-0.733-2.732-2.589-3.826-4.095
				c-0.655-0.901-1.227-1.319-2.353-1.308c-1.996,0.021-4.409,0.303-6.163-0.913c-1.313-0.91-1.703-2.911-3.273-3.422
				c-2.833-0.922-6.043,0.183-8.949-0.248c-2.583-0.383-5.066-1.896-6.92-3.68c-1.413-1.36-2.444-2.688-4.458-3.023
				c-2.214-0.368-4.75-0.008-6.786,0.92c-1.309,0.596-2.437,1.511-3.75,2.1c-1.594,0.714-3.35,1.081-5.066,1.348
				c-3.787,0.587-7.801,0.693-11.559-0.156"/>
		</g>
		<g id="POLYLINE_55_">
			
				<path fill="none" stroke="#FB8604" stroke-width="2.75" stroke-linecap="round" stroke-linejoin="round" stroke-miterlimit="10" d="
				M430.666,328.023c2.514-2.078,5.267-3.17,8.471-3.743c1.068-0.19,2.41-0.243,3.375-0.834c0.883-0.541,1.279-1.565,1.896-2.349
				c0.693-0.881,1.863-0.849,2.547-1.655c0.482-0.568,0.652-1.453,0.831-2.145c0.387-1.503,0.792-2.978,1.551-4.341
				c1.257-2.259,3.192-4.186,5.47-5.413c2.855-1.538,6.197-1.712,9.088-3.135c4.263-2.098,5.365-8.238,10.211-9.415
				c1.921-0.467,3.983,0.574,5.834-0.03c1.647-0.537,1.75-2.666,2.568-3.938c0.725-1.126,1.938-1.691,3.205-1.997
				c1.006-0.243,1.997-0.062,2.98-0.228c0.187-0.031,0.324-0.062,0.479-0.177c1.18-0.877,0.883-2.968,1.99-3.975
				c0.849-0.772,2.107-0.202,3.015-0.72c0.468-0.267,0.35-0.695,0.218-1.165c-0.484-1.726-1.338-3.587-0.241-5.263
				c0.436-0.666,1.127-1.295,1.9-1.535c0.431-0.133,0.891,0.012,1.308-0.114c0.805-0.244,0.967-1.49,1.094-2.174
				c0.35-1.892,0.43-3.869,0.225-5.783c-0.122-1.136-0.474-2.33-0.24-3.473c0.155-0.761,0.448-1.363,0.279-2.138
				c-0.289-1.327-1.171-2.479-1.68-3.723c-0.232-0.566-0.851-2.104-0.141-2.647c0.291-0.222,0.45-0.089,0.681,0.155
				c1.116,1.181,1.162,3.233,2.734,4.04c1.312,0.673,3.485,0.649,4.841,0.193c1.334-0.448,1.57-1.973,2.25-3.057
				c0.204-0.325,0.598-1.087,1.033-0.696c0.675,0.605-0.169,2.481-0.449,3.052c-0.744,1.519-2.057,2.4-1.87,4.209
				c0.205,1.99,0.579,3.495-0.338,5.358c-1.105,2.247-3.554,4.565-3.577,7.236c-0.005,0.565,0.266,0.934,0.459,1.451
				c0.234,0.626,0.185,1.291,0.033,1.936c-0.398,1.694-1.481,2.681-2.896,3.614c-0.7,0.462-1.188,0.842-1.003,1.705
				c0.305,1.415,0.922,2.738-0.017,4.071c-1.209,1.718-3.748,1.844-5.454,2.777c-0.951,0.521-0.664,1.001-0.766,1.993
				c-0.155,1.514-1.32,2.977-2.413,3.955c-1.443,1.291-3.148,1.692-5.042,1.773c-0.661,0.028-2.486-0.25-2.901,0.606
				c-0.2,0.413,0.017,1,0.012,1.435c-0.01,0.673-0.181,1.346-0.469,1.954c-0.727,1.534-2.003,2.673-3.658,3.104
				c-2.721,0.708-5.506-0.276-8.236,0.045c-1.14,0.134-1.166,0.717-1.537,1.704c-0.771,2.05-2.855,2.945-4.06,4.64
				c-1.239,1.745-1.526,3.758-3.319,5.107c-2.242,1.687-5.269,2.174-7.36,4.053c-0.801,0.719-1.252,1.706-1.961,2.5
				c-0.563,0.632-1.304,1.081-2.05,1.465c-0.906,0.468-2.003,0.878-2.695,1.672c-0.916,1.051-1.449,2.458-2.279,3.589
				c-2.072,2.822-4.829,5.147-7.516,7.363c-2.898,2.391-5.857,4.728-9.023,6.756"/>
		</g>
		<g id="POLYLINE_54_">
			
				<path fill="none" stroke="#FB8604" stroke-width="2.75" stroke-linecap="round" stroke-linejoin="round" stroke-miterlimit="10" d="
				M398.141,254.559c7.946-3.444,15.546-7.773,22.675-12.685c6.856-4.724,12.766-10.577,18.026-17.006
				c5.512-6.736,10.487-13.926,15.143-21.275c4.607-7.273,8.924-14.761,12.505-22.598c3.641-7.969,6.963-16.024,11.338-23.636
				c4.3-7.481,9.135-14.684,14.743-21.253c5.512-6.455,11.814-12.181,18.613-17.25c3.117-2.324,6.479-4.755,10.103-6.226
				c0.597-0.242,2.729-1.143,3.339-0.476c0.422,0.46-0.649,1.03-0.941,1.235c-3.413,2.389-7.095,4.362-10.462,6.828
				c-6.623,4.849-12.406,10.687-17.465,17.138c-5.269,6.719-9.886,14.01-14.094,21.432c-4.184,7.379-8.046,14.903-11.556,22.626
				c-3.692,8.125-7.376,16.197-12.182,23.743c-4.697,7.376-9.895,14.479-15.548,21.152c-5.534,6.532-11.396,12.86-18.124,18.184
				c-6.627,5.243-14.142,8.988-21.933,12.167c-0.848,0.346-1.696,0.692-2.544,1.038"/>
		</g>
		<g id="POLYLINE_53_">
			
				<path fill="none" stroke="#FB8604" stroke-width="2.75" stroke-linecap="round" stroke-linejoin="round" stroke-miterlimit="10" d="
				M393.055,250.292c1.414-1.337,2.814-2.707,4.045-4.219c1.153-1.417,1.975-2.914,2.809-4.528c0.272-0.527,0.5-0.924,1.004-1.233
				c0.368-0.226,0.77-0.368,1.014-0.742c0.338-0.518,0.35-1.303,0.401-1.889c0.186-2.11,0.284-4.235,0.284-6.353
				c0-2.759-0.021-6.005-1.446-8.476c-0.948-1.645-2.636-2.258-4.429-1.625c-0.691,0.244-1.389,0.665-1.48,1.45
				c-0.179,1.518,1.171,2.911,1.294,4.435c0.087,1.086-0.343,0.651-0.827,0.005c-2.369-3.156-5.221-5.864-8.759-7.671
				c-1.511-0.772-3.141-1.333-4.789-1.728c-1.045-0.25-2.301-0.644-3.399-0.489c-2.086,0.294,0.566,3.762,1.133,4.396
				c1.064,1.191,2.415,2.13,3.757,2.978c0.983,0.621,2.28,1.208,3.051,2.128c0.314,0.375,0.6,0.978,0.329,1.453
				c-0.77,1.352-3.613-0.175-3.893,1.494c-0.217,1.293,0.786,2.602,1.602,3.476c1.32,1.415,2.922,2.506,4.472,3.646
				c0.849,0.625,1.916,1.317,2.438,2.271c0.711,1.298-0.514,2.415-1.445,3.187"/>
		</g>
		<g id="POLYLINE_52_">
			
				<path fill="none" stroke="#FB8604" stroke-width="2.75" stroke-linecap="round" stroke-linejoin="round" stroke-miterlimit="10" d="
				M358.305,250.292c-1.417-1.336-2.812-2.709-4.046-4.219c-1.155-1.414-1.975-2.915-2.808-4.528
				c-0.271-0.526-0.5-0.925-1.004-1.233c-0.369-0.226-0.768-0.367-1.013-0.742c-0.338-0.519-0.354-1.302-0.403-1.889
				c-0.179-2.111-0.279-4.233-0.283-6.353c-0.006-2.756,0.022-6.008,1.445-8.476c0.948-1.645,2.638-2.258,4.43-1.625
				c0.691,0.244,1.388,0.666,1.479,1.45c0.176,1.519-1.167,2.91-1.293,4.435c-0.101,1.218,0.459,0.496,0.928-0.128
				c2.345-3.12,5.224-5.827,8.74-7.581c1.537-0.767,3.174-1.314,4.842-1.718c0.999-0.242,2.246-0.622,3.299-0.454
				c2.047,0.326-0.643,3.82-1.205,4.436c-1.081,1.185-2.43,2.118-3.778,2.97c-0.969,0.613-2.255,1.196-3.007,2.111
				c-0.31,0.377-0.582,0.973-0.308,1.443c0.782,1.339,3.643-0.188,3.89,1.51c0.193,1.327-0.827,2.633-1.672,3.523
				c-1.345,1.416-2.963,2.512-4.526,3.665c-0.815,0.602-1.838,1.279-2.329,2.203c-0.687,1.292,0.537,2.4,1.459,3.165"/>
		</g>
		<g id="POLYLINE_51_">
			
				<path fill="none" stroke="#FB8604" stroke-width="2.75" stroke-linecap="round" stroke-linejoin="round" stroke-miterlimit="10" d="
				M404.338,298.74c1.069-3.933,1.888-7.874,2.154-11.949c0.129-1.979,0.194-3.971,0.119-5.953c-0.025-0.657-0.041-1.33-0.17-1.977
				c-0.018-0.088-0.16-0.468-0.084-0.593c0.132-0.215,0.5-0.11,0.725-0.176c0.437-0.127,0.763-0.452,1.049-0.794
				c1.346-1.609,2.032-3.925,2.343-5.96c0.355-2.33,0.27-4.884-0.747-7.049c-0.797-1.696-2.215-2.562-3.984-3.016
				c-2.479-0.637-4.395-0.977-5.793-3.279c-1.311-2.156-1.932-4.408-4.162-5.778c-0.907-0.557-1.892-1.025-2.63-1.811
				c-0.667-0.71-1.068-1.613-1.398-2.518c-0.987-2.703-1.084-5.846-2.751-8.271c-1.115-1.623-2.818-1.903-4.494-2.745
				c-1.462-0.734-2.015-2.536-3.644-2.977c-1.666-0.451-3.702,0.036-5.191,0.827"/>
		</g>
		<g id="POLYLINE_50_">
			
				<path fill="none" stroke="#FB8604" stroke-width="2.75" stroke-linecap="round" stroke-linejoin="round" stroke-miterlimit="10" d="
				M346.895,298.131c-1.128-3.954-1.857-7.956-2.071-12.066c-0.104-2.014-0.178-4.051-0.034-6.065
				c0.02-0.266,0.377-1.552,0.194-1.776c-0.148-0.182-0.608-0.086-0.837-0.174c-0.475-0.183-0.831-0.618-1.122-1.015
				c-1.302-1.774-1.97-4.127-2.22-6.285c-0.257-2.213-0.113-4.674,0.938-6.684c0.994-1.902,2.709-2.525,4.692-2.989
				c1.151-0.269,2.385-0.507,3.368-1.207c0.863-0.615,1.447-1.549,1.941-2.467c0.694-1.29,1.221-2.735,2.186-3.86
				c0.636-0.74,1.467-1.231,2.301-1.718c1.913-1.116,2.924-2.431,3.581-4.572c0.792-2.583,1.01-5.631,2.691-7.851
				c1.226-1.618,3.155-1.736,4.774-2.771c1.351-0.864,1.82-2.495,3.532-2.807c1.602-0.292,3.45,0.137,4.869,0.896"/>
		</g>
		<g id="POLYLINE_49_">
			
				<path fill="none" stroke="#FB8604" stroke-width="2.75" stroke-linecap="round" stroke-linejoin="round" stroke-miterlimit="10" d="
				M335.043,384.44c-2.977-7.794-5.35-15.798-7.299-23.909c-2.088-8.684-4.537-17.408-5.649-26.289
				c-1.016-8.107-1.036-16.644,3.743-23.653c4.352-6.381,11.615-9.999,18.892-11.932c8.115-2.156,16.66-2.59,25.021-2.591
				c8.635-0.002,17.351,0.34,25.933,1.33c8.164,0.941,16.457,2.59,23.629,6.795c3.076,1.804,6.003,4.07,8.146,6.947
				c2.289,3.072,3.219,6.656,3.395,10.44c0.19,4.104-0.298,8.242-0.834,12.303c-0.57,4.316-1.342,8.601-2.187,12.871
				c-1.645,8.312-3.65,16.638-6.47,24.635c-1.544,4.383-3.369,8.645-5.248,12.893"/>
		</g>
		<g id="POLYLINE_48_">
			
				<line fill="none" stroke="#FB8604" stroke-width="2.75" stroke-linecap="round" stroke-linejoin="round" stroke-miterlimit="10" x1="375.973" y1="627.871" x2="375.973" y2="390.326"/>
		</g>
		<g id="POLYLINE_47_">
			
				<path fill="none" stroke="#FB8604" stroke-width="2.75" stroke-linecap="round" stroke-linejoin="round" stroke-miterlimit="10" d="
				M359.367,383.83c8.707-0.109,17.415-0.07,26.117,0.27c1.342,0.053,2.683,0.104,4.023,0.157"/>
		</g>
		<g id="POLYLINE_46_">
			
				<path fill="none" stroke="#FB8604" stroke-width="2.75" stroke-linecap="round" stroke-linejoin="round" stroke-miterlimit="10" d="
				M375.973,390.326c2.03-2.247,3.914-3.645,6.811-4.562c3.912-1.239,8.067-1.808,12.143-2.183
				c8.076-0.744,16.51-0.683,24.388,1.437c3.535,0.951,6.982,2.363,10,4.457c3.169,2.199,5.784,5.103,7.874,8.331
				c4.578,7.071,6.919,15.423,8.734,23.568c1.857,8.337,3.055,16.829,3.969,25.316c0.971,9.018,1.598,18.059,2.113,27.112
				c0.486,8.534,0.736,17.094,0.685,25.642c-0.052,8.662-0.347,17.36-1.032,25.998c-0.696,8.789-1.581,17.528-2.963,26.239
				c-1.314,8.283-3.267,16.551-6.306,24.379c-3.04,7.83-7.28,15.123-12.548,21.663c-5.323,6.61-11.65,12.312-18.557,17.223
				c-6.854,4.873-14.472,9.105-22.337,12.103c-2.717,1.034-5.627,2.159-8.563,2.292c-1.748,0.079-2.884-0.727-4.41-1.47"/>
		</g>
		<g id="POLYLINE_26_">
			
				<path fill="none" stroke="#FB8604" stroke-width="2.75" stroke-linecap="round" stroke-linejoin="round" stroke-miterlimit="10" d="
				M375.973,390.326c-2.002-2.203-3.851-3.618-6.699-4.526c-3.949-1.26-8.112-1.803-12.223-2.216
				c-8.049-0.808-16.496-0.653-24.352,1.416c-3.513,0.925-6.981,2.33-9.976,4.41c-3.192,2.218-5.8,5.092-7.926,8.332
				c-4.591,6.997-6.927,15.356-8.733,23.442c-1.863,8.34-3.082,16.835-3.991,25.327c-0.968,9.035-1.608,18.092-2.126,27.163
				c-0.489,8.579-0.685,17.167-0.691,25.759c-0.007,8.65,0.348,17.359,1.03,25.983c0.693,8.771,1.57,17.495,2.952,26.187
				c1.312,8.245,3.231,16.484,6.25,24.28c3.031,7.828,7.231,15.155,12.498,21.695c5.312,6.595,11.586,12.331,18.482,17.229
				c6.902,4.904,14.497,9.104,22.39,12.187c2.723,1.063,5.688,2.201,8.64,2.343c1.788,0.086,2.907-0.713,4.475-1.467"/>
		</g>
	</g>
</g>
<g id="AG-OUTLINE">
	<g id="POLYLINE_62_">
		
			<path fill="none" stroke="#FB8604" stroke-width="3.5" stroke-linecap="round" stroke-linejoin="round" stroke-miterlimit="10" d="
			M299.274,501.565c-2.963,2.186-5.956,4.187-9.41,5.509c-3.914,1.498-7.849,2.628-11.549,4.651
			c-3.724,2.035-7.256,4.53-10.375,7.409c-1.357,1.253-2.628,2.614-3.749,4.083c-0.854,1.118-1.396,2.483-2.266,3.563
			c-0.871,1.081-2.603,0.789-3.813,1.051c-1.332,0.288-2.547,0.974-3.561,1.872c-2.231,1.977-3.175,4.961-5.177,7.114
			c-1.906,2.051-5.216,1.516-7.709,2.086c-1.617,0.369-3.032,1.058-3.449,2.766c-0.344,1.408,0.208,3.379-0.762,4.572
			c-0.357,0.439-0.918,0.676-1.435,0.869c-1.274,0.476-2.601,0.912-3.739,1.676c-1.207,0.811-1.77,1.907-1.895,3.336
			c-0.156,1.777,0.592,3.984-0.988,5.295c-1.281,1.063-2.871,1.62-2.979,3.479c-0.078,1.355,0.777,3.021-0.096,4.22
			c-0.569,0.782-1.356,1.336-1.854,2.186c-0.354,0.604-0.588,1.276-0.744,1.957c-0.255,1.109-0.409,2.497,0.2,3.521
			c0.704,1.183,1.435,1.538,1.259,3.023c-0.307,2.586-2.076,4.438-3.061,6.735c-0.417,0.973-0.376,2.045-0.705,3.04
			c-0.271,0.822-0.812,1.528-1.418,2.135c-1.555,1.555-4.099,2.359-5.164,4.346c-0.19,0.354-0.45,0.852,0.044,0.965
			c0.492,0.113,1.404-0.577,1.778-0.805c0.937-0.569,1.807-1.345,2.864-1.691c1.305-0.427,3.069-0.379,4.122,0.604
			c1.644,1.536,0.964,4.01,1.341,5.954c0.069,0.355,0.155,0.753,0.581,0.73c0.477-0.025,0.715-0.673,0.798-1.043
			c0.269-1.202,0.08-2.491,0.253-3.716c0.174-1.231,0.526-2.417,1.023-3.556c0.636-1.457,1.401-2.869,1.758-4.43
			c0.277-1.212,0.278-2.469,0.195-3.703c-0.125-1.853-0.521-3.687-0.562-5.544c-0.015-0.657-0.006-1.401,0.322-1.993
			c0.295-0.531,0.867-0.84,1.148-1.381c0.3-0.576,0.281-1.291,0.272-1.922c-0.017-1.137-0.468-3.256,0.651-4.129
			c0.444-0.347,1.052-0.4,1.506-0.748c0.479-0.367,0.829-0.934,1.098-1.465c0.619-1.224,1.086-2.555,1.289-3.914
			c0.084-0.556,0.09-1.34,0.465-1.816c0.262-0.333,0.688-0.465,1.073-0.596c0.894-0.305,1.628-0.646,2.24-1.394
			c0.667-0.814,1.076-1.828,1.28-2.854c0.213-1.068,0.124-2.271,0.584-3.28c0.749-1.644,2.803-1.393,4.268-1.853
			c1.476-0.464,2.393-1.59,3.123-2.905c0.971-1.749,1.184-3.551,3.277-4.114c2.637-0.709,5.43-0.226,8.014-1.261
			c1.819-0.729,3.596-1.917,4.824-3.459c0.646-0.811,0.979-1.694,1.199-2.699c0.193-0.886,0.406-1.678,1.067-2.332
			c1.462-1.447,3.216-0.943,5.065-1.16c3.304-0.387,6.544-1.98,9.2-3.924c3.352-2.454,6.142-5.562,9.177-8.375
			c2.835-2.628,6.052-4.578,9.359-6.547c0.352,8.588,0.865,17.186,1.81,25.731c0.958,8.68,2.197,17.327,4.237,25.827
			c1.949,8.122,4.815,16.128,8.979,23.39c4.224,7.366,9.512,13.97,15.666,19.814c6.159,5.85,13.21,10.688,20.616,14.812
			c3.626,2.019,7.384,3.871,11.241,5.406c3.084,1.228,6.642,2.773,10.031,2.658c0.735-0.025,1.429-0.191,2.094-0.51
			c0.489-0.234,1.232-0.965,1.762-0.965s1.271,0.73,1.762,0.965c2.029,0.97,4.418,0.376,6.477-0.191
			c8.086-2.232,15.766-6.457,22.841-10.877c7.198-4.497,13.758-9.977,19.506-16.215c5.605-6.085,10.302-13.105,13.76-20.62
			c3.495-7.593,5.848-15.693,7.407-23.895c1.619-8.52,2.786-17.143,3.472-25.789c0.516-6.505,0.939-13.009,1.211-19.529
			c3.423,2.022,6.71,4.045,9.62,6.78c3.053,2.868,5.9,6.038,9.354,8.443c2.607,1.815,5.818,3.367,9.028,3.637
			c1.857,0.156,3.581-0.254,4.962,1.304c0.673,0.76,0.778,1.7,1.017,2.653c0.229,0.916,0.65,1.698,1.26,2.415
			c1.282,1.512,3.079,2.665,4.926,3.357c2.573,0.965,5.375,0.455,7.977,1.222c2.017,0.595,2.284,2.803,3.255,4.422
			c0.737,1.23,1.672,2.185,3.079,2.58c1.51,0.424,3.49,0.229,4.16,1.959c0.417,1.077,0.325,2.3,0.584,3.418
			c0.234,1.013,0.7,2.025,1.416,2.788c0.659,0.703,1.449,0.948,2.334,1.268c0.323,0.116,0.624,0.27,0.823,0.556
			c0.399,0.572,0.362,1.472,0.483,2.113c0.244,1.29,0.684,2.594,1.328,3.74c0.29,0.516,0.631,1.038,1.131,1.373
			c0.44,0.295,1.013,0.35,1.42,0.691c1.139,0.956,0.593,3.257,0.602,4.445c0.004,0.553,0.035,1.147,0.314,1.639
			c0.305,0.535,0.882,0.846,1.155,1.404c0.326,0.666,0.301,1.495,0.263,2.215c-0.104,1.947-0.501,3.867-0.582,5.816
			c-0.047,1.132,0.013,2.252,0.285,3.354c0.4,1.616,1.25,3.064,1.873,4.598c0.454,1.119,0.754,2.291,0.893,3.49
			c0.134,1.161-0.095,2.45,0.259,3.57c0.102,0.323,0.367,0.857,0.786,0.852c0.501-0.007,0.537-0.646,0.582-1.025
			c0.22-1.87-0.237-4.353,1.399-5.748c1.103-0.939,2.921-0.948,4.218-0.453c1.118,0.427,2.037,1.28,3.074,1.859
			c0.302,0.169,1.022,0.687,1.411,0.571c0.512-0.152,0.118-0.793-0.076-1.114c-1.197-1.984-3.77-2.757-5.321-4.452
			c-0.561-0.612-1.023-1.304-1.244-2.112c-0.283-1.038-0.274-2.095-0.761-3.076c-1.081-2.183-2.738-4.122-2.957-6.65
			c-0.125-1.448,0.771-1.817,1.37-3c0.531-1.049,0.354-2.47,0.062-3.562c-0.188-0.698-0.438-1.371-0.834-1.98
			c-0.498-0.769-1.285-1.298-1.781-2.053c-0.807-1.227,0.077-2.931-0.042-4.302c-0.16-1.845-1.955-2.34-3.139-3.452
			c-1.414-1.328-0.66-3.618-0.829-5.307c-0.145-1.447-0.812-2.485-2.028-3.275c-1.186-0.77-2.56-1.138-3.849-1.682
			c-0.456-0.192-0.924-0.421-1.226-0.827c-0.938-1.264-0.344-3.227-0.759-4.684c-0.484-1.699-2.049-2.312-3.655-2.648
			c-2.548-0.533-5.731-0.041-7.606-2.199c-1.912-2.201-2.896-5.153-5.164-7.064c-1.032-0.871-2.237-1.519-3.569-1.785
			c-1.242-0.248-2.904,0.03-3.743-1.121c-0.903-1.239-1.531-2.638-2.499-3.855c-1.143-1.438-2.419-2.779-3.785-4.006
			c-3.17-2.845-6.719-5.334-10.479-7.337c-3.729-1.987-7.723-3.07-11.632-4.61c-1.518-0.598-2.973-1.332-4.362-2.186
			c-0.812-0.498-1.606-1.024-2.383-1.576c-0.483-0.344-2.138-1.209-2.133-1.799c0.064-8.938-0.221-17.854-0.627-26.781
			c-0.389-8.535-0.998-17.096-1.913-25.591c-0.937-8.704-2.046-17.406-3.867-25.977c-0.797-3.75-1.724-7.46-2.837-11.128
			c3.514,0.794,7.236,0.735,10.791,0.268c1.817-0.239,3.67-0.591,5.381-1.268c1.422-0.562,2.616-1.514,3.979-2.186
			c2.006-0.99,4.465-1.317,6.674-1.072c1.964,0.219,3.071,1.322,4.403,2.678c1.836,1.868,4.266,3.476,6.87,3.996
			c3.008,0.602,6.171-0.476,9.16,0.262c1.622,0.4,2.018,2.246,3.198,3.248c1.537,1.305,3.931,1.259,5.811,1.176
			c1.244-0.055,2.019-0.004,2.807,1.008c1.188,1.523,2.005,3.421,3.842,4.282c0.745,0.35,1.552,0.537,2.372,0.591
			c0.884,0.058,1.813-0.163,2.673,0.107c1.17,0.368,1.187,1.108,1.531,2.143c0.409,1.228,1.621,2.016,2.771,2.484
			c1.307,0.533,1.968,0.407,3.154-0.211c1.135-0.591,2.449,0.228,3.492,0.68c1.297,0.563,3.572,1.998,5.104,1.406
			c0.472-0.183,0.795-0.605,1.273-0.779c1.102-0.4,2.529-0.191,3.666-0.186c1.972,0.009,3.978,0.093,5.939-0.143
			c0.985-0.118,1.731-0.455,2.632-0.844c2.746-1.186,5.895-0.338,8.763-0.562c0.43-0.033,1.296-0.081,1.393-0.659
			c0.354-2.117-6.386-0.846-6.932-1.11c-0.595-0.289,0.003-1.078,0.043-1.6c0.071-0.935-0.705-0.938-1.078-1.673
			c-0.319-0.628,0.305-1.467,0.568-1.998c0.697-1.407,1.692-2.516,2.523-3.829c0.081-0.128,0.431-0.577,0.338-0.782
			c-0.275-0.608-1.787,0.509-2.035,0.703c-1.777,1.39-2.547,3.695-4.393,5.02c-0.961,0.689-2.104,1.114-3.218,1.48
			c-2.019,0.662-3.966,1.395-5.937,2.179c-0.979,0.39-1.642,0.421-2.377-0.358c-1.293-1.371-2.721-2.228-4.645-1.605
			c-0.753,0.243-1.598,0.623-2.271,0.046c-1.15-0.985-1.236-2.901-2.632-3.686c-1.386-0.778-2.983,0.195-4.431-0.068
			c-1.021-0.186-1.337-1.221-1.54-2.12c-0.347-1.532-0.587-3.54-2.188-4.308c-2.213-1.061-4.776,0.053-7.057-0.492
			c-1.04-0.248-1.27-1.126-1.547-2.072c-0.409-1.399-0.897-2.707-2.429-3.119c-2.76-0.742-5.662,0.544-8.334,1.021
			c-1.094,0.195-1.69-0.168-2.249-1.121c-1.157-1.972-1.798-4.341-4.072-5.312c-2.884-1.232-6.371-0.557-9.414-0.767
			c-2.489-0.172-4.658-0.674-6.642-2.218c-1.137-0.886-2.233-1.822-3.538-2.455c-1.435-0.696-3.017-1.075-4.587-1.311
			c-3.675-0.551-7.506-0.337-11.106,0.572c-3.717,0.938-7.16,2.702-10.25,4.952c-1.75-3.521-3.896-6.887-6.695-9.672
			c-2.754-2.738-6.016-4.778-9.617-6.205c-2.341-0.927-4.783-1.576-7.25-2.063c3.529-7.978,6.484-16.02,8.721-24.457
			c1.063-4.013,1.988-8.073,2.81-12.142c0.13-0.645,0.26-1.289,0.39-1.934c0.061-0.299,0.865-0.616,1.131-0.79
			c0.814-0.536,1.608-1.107,2.386-1.696c1.729-1.309,3.447-2.633,5.12-4.013c3.014-2.486,6.153-5.067,8.364-8.328
			c0.678-1,1.128-2.27,1.992-3.125c0.844-0.835,2.079-1.217,3.085-1.806c1.637-0.958,2.26-2.685,3.681-3.849
			c2.238-1.833,5.351-2.271,7.549-4.194c1.577-1.379,1.825-3.486,3.111-5.039c1.328-1.603,3.263-2.556,3.948-4.648
			c0.361-1.103,0.664-1.433,1.896-1.463c2.663-0.065,5.468,0.706,8.081-0.1c1.624-0.5,2.901-1.776,3.506-3.353
			c0.233-0.61,0.36-1.251,0.322-1.905c-0.02-0.343-0.173-0.883,0.028-1.221c0.55-0.924,2.822-0.517,3.604-0.582
			c1.785-0.147,3.333-0.753,4.618-2.026c1.02-1.01,2.078-2.438,2.115-3.933c0.026-1.062,0.005-1.382,1.042-1.86
			c1.68-0.774,4.26-1.069,5.294-2.841c0.309-0.528,0.428-1.137,0.405-1.745c-0.031-0.833-0.491-1.545-0.564-2.353
			c-0.092-1.017,1.053-1.458,1.757-1.946c1.252-0.868,2.083-2.117,2.281-3.642c0.157-1.208-0.708-2.065-0.554-3.236
			c0.36-2.736,2.64-4.812,3.715-7.252c0.85-1.926,0.133-3.506,0.136-5.508c0.002-1.624,1.497-2.677,2.086-4.104
			c0.2-0.484,0.882-2.211,0.237-2.682c-0.516-0.377-1.021,0.75-1.197,1.062c-0.736,1.303-0.923,2.505-2.479,2.838
			c-1.346,0.288-3.396,0.362-4.623-0.417c-0.479-0.305-0.825-0.778-1.104-1.265c-0.459-0.803-0.756-2.153-1.51-2.756
			c-0.254-0.203-0.393-0.25-0.641-0.009c-0.768,0.746,0.12,2.497,0.449,3.19c0.508,1.072,1.355,2.234,1.472,3.461
			c0.068,0.729-0.296,1.379-0.389,2.089c-0.169,1.293,0.27,2.649,0.356,3.938c0.121,1.801,0.037,3.704-0.381,5.464
			c-0.154,0.651-0.329,1.583-1.08,1.76c-0.479,0.112-0.93-0.024-1.407,0.167c-0.824,0.33-1.557,1.059-1.942,1.851
			c-0.869,1.786,0.245,3.437,0.543,5.186c0.079,0.464,0.024,0.724-0.42,0.902c-1.014,0.407-2.238-0.083-3.043,0.833
			c-0.66,0.75-0.87,1.898-1.23,2.791c-0.144,0.355-0.326,0.859-0.675,1.078c-0.193,0.121-0.383,0.122-0.605,0.131
			c-1.07,0.048-2.059,0.013-3.11,0.309c-1.263,0.355-2.358,0.985-3.023,2.144c-0.769,1.339-0.92,3.422-2.719,3.78
			c-1.949,0.388-3.947-0.583-5.903,0.059c-2.135,0.7-3.709,2.55-4.976,4.311c-1.516,2.107-2.931,4.191-5.389,5.235
			c-2.984,1.268-6.315,1.51-9.127,3.219c-2.19,1.332-4.065,3.311-5.194,5.62c-0.71,1.452-1.009,3.003-1.472,4.541
			c-0.157,0.519-0.328,1.118-0.719,1.517c-0.394,0.401-0.956,0.48-1.446,0.714c-0.574,0.273-0.936,0.709-1.292,1.232
			c-0.545,0.8-0.992,1.688-1.907,2.115c-1.187,0.553-2.628,0.575-3.892,0.843c-2.912,0.617-5.369,1.683-7.668,3.583
			c0.288-3.862,0.49-7.868-0.586-11.635c-1.021-3.577-3.326-6.561-6.139-8.939c-5.577-4.717-12.555-7.19-19.604-8.709
			c1.069-3.933,1.888-7.874,2.154-11.949c0.129-1.979,0.194-3.971,0.119-5.953c-0.025-0.657-0.041-1.33-0.17-1.977
			c-0.018-0.088-0.16-0.468-0.084-0.593c0.132-0.215,0.5-0.11,0.725-0.176c0.437-0.127,0.763-0.452,1.049-0.794
			c1.346-1.609,2.032-3.925,2.343-5.96c0.355-2.33,0.27-4.884-0.747-7.049c-0.797-1.696-2.215-2.562-3.984-3.016
			c-1.401-0.36-2.973-0.538-4.186-1.401c-0.77-0.548-1.326-1.358-1.779-2.173c7.914-3.229,15.671-6.668,22.588-11.766
			c6.823-5.029,12.771-11.207,18.293-17.607c5.703-6.61,11.048-13.591,15.812-20.909c4.712-7.239,8.561-14.831,12.129-22.684
			c3.627-7.981,7.368-15.898,11.695-23.53c4.274-7.541,8.781-14.975,13.986-21.917c4.947-6.6,10.611-12.681,17.152-17.728
			c3.42-2.638,7.086-4.898,10.742-7.185c0.324-0.202,2.878-1.434,2.539-2.136c-0.276-0.573-1.844-0.127-2.255-0.014
			c-3.427,0.948-6.604,3.329-9.479,5.339c-6.896,4.823-13.243,10.512-18.862,16.772c-5.726,6.378-10.644,13.479-15.018,20.837
			c-4.551,7.656-8.14,15.718-11.717,23.858c-3.38,7.694-7.478,15.086-11.929,22.209c-4.66,7.458-9.574,14.782-15.044,21.676
			c-5.221,6.579-10.975,12.675-17.767,17.655c-6.915,5.07-14.498,9.412-22.275,13.007c-0.42,0.194-0.844,0.383-1.269,0.567
			c-0.308,0.133-0.615,0.267-0.923,0.4c-0.085,0.036-0.159-0.214-0.222-0.28c-0.233-0.249-0.395-0.577-0.628-0.833
			c-0.699-0.77-1.62-1.253-2.503-1.778c-0.413-0.246-0.821-0.501-1.194-0.806c-0.115-0.094-0.296-0.208-0.374-0.336
			c-0.222-0.362-0.087-0.322,0.277-0.671c1.409-1.35,2.792-2.748,3.988-4.293c1.062-1.373,1.717-2.866,2.572-4.355
			c0.334-0.582,0.636-0.738,1.203-1.082c1.12-0.678,0.999-2.042,1.094-3.233c0.307-3.849,0.58-8.03-0.382-11.809
			c-0.421-1.653-1.251-3.645-3.117-4.028c-1.057-0.217-2.772,0.044-3.421,1.031c-0.617,0.941,0.177,2.255,0.538,3.115
			c0.119,0.284,1.01,2.516,0.398,2.67c-0.336,0.084-1.171-1.38-1.242-1.475c-1.092-1.455-2.39-2.789-3.771-3.969
			c-2.822-2.414-6.153-4.017-9.771-4.818c-0.655-0.146-2.863-0.877-3.492-0.1c-0.456,0.565,0.205,1.709,0.457,2.209
			c1.223,2.43,3.552,3.94,5.786,5.351c0.613,0.387,4.37,2.657,2.071,3.569c-0.857,0.341-1.833,0.115-2.695,0.367
			c-0.169,0.049-0.312,0.081-0.432,0.217c-0.493,0.559-0.046,1.749,0.223,2.293c1.257,2.549,4.142,4.11,6.304,5.765
			c0.899,0.688,2.401,1.765,1.968,3.101c-0.252,0.777-0.992,1.394-1.596,1.895c-0.472-1.471-1.142-2.991-2.439-3.917
			c-0.968-0.69-2.154-0.929-3.209-1.444c-0.956-0.467-1.463-1.219-2.15-2.003c-0.967-1.103-2.352-1.257-3.746-1.09
			c-0.809,0.097-1.616,0.304-2.367,0.621c-0.479,0.201-0.56,0.287-1.037,0.093c-0.375-0.152-0.744-0.299-1.133-0.414
			c-1.316-0.391-3.07-0.646-4.33,0.059c-0.762,0.426-1.194,1.204-1.773,1.826c-0.799,0.857-1.896,1.179-2.961,1.593
			c-2.18,0.848-3.249,2.492-3.932,4.676c-0.769-0.637-1.91-1.595-1.636-2.733c0.153-0.634,0.693-1.145,1.157-1.563
			c1.359-1.228,2.958-2.169,4.366-3.34c1.306-1.085,2.972-2.548,3.171-4.371c0.052-0.472,0.051-0.977-0.403-1.212
			c-0.809-0.419-4.461,0.167-3.417-1.924c0.252-0.505,0.758-0.856,1.209-1.168c1.675-1.159,3.466-2.112,5-3.47
			c1.193-1.057,2.344-2.513,2.703-4.107c0.104-0.463,0.11-0.852-0.355-1.066c-0.479-0.22-1.193-0.069-1.686,0
			c-1.736,0.244-3.466,0.736-5.1,1.364c-3.542,1.361-6.608,3.767-9.072,6.624c-0.599,0.694-1.103,1.462-1.693,2.16
			c-0.051,0.06-0.236,0.363-0.35,0.371c-0.208,0.014-0.152-0.039-0.232-0.219c-0.188-0.427,0.145-1.308,0.276-1.712
			c0.302-0.922,0.901-1.809,1.012-2.788c0.074-0.656-0.174-1.151-0.72-1.517c-1.359-0.911-3.354-0.835-4.506,0.354
			c-1.696,1.75-1.922,4.733-2.06,7.006c-0.127,2.074-0.064,4.173,0.055,6.247c0.073,1.28-0.062,2.905,0.448,4.118
			c0.323,0.769,1.196,0.852,1.693,1.462c0.864,1.059,1.26,2.527,2.031,3.671c1.048,1.552,2.323,2.95,3.643,4.274
			c0.344,0.345,0.692,0.684,1.044,1.021c0.319,0.307,0.599,0.377,0.417,0.734c-0.125,0.247-0.542,0.485-0.763,0.642
			c-0.923,0.657-1.987,1.103-2.853,1.841c-0.082,0.07-0.266,0.317-0.363,0.338c-0.38,0.082-1.373-0.518-1.736-0.654
			c-1.039-0.392-2.071-0.801-3.105-1.208c-1.777-0.699-3.541-1.45-5.277-2.245c-3.939-1.803-7.767-3.802-11.527-5.954
			c-7.396-4.232-14.502-9.083-21.104-14.471c-6.564-5.357-11.8-11.762-17.311-18.145c-4.967-5.754-10.357-11.053-15.89-16.258
			c-8.208-7.723-16.415-15.446-24.623-23.169c-5.214-4.906-10.637-9.556-16.77-13.291c-3.494-2.128-7.111-4.091-10.925-5.591
			c-3.963-1.559-8.104-2.247-12.192-3.367c-0.565-0.155-10.709-4.246-10.655-1.784c0.021,1.006,2.582,1.682,3.157,1.883
			c4.063,1.419,8.261,2.439,12.354,3.77c4.011,1.303,7.987,2.755,11.758,4.658c3.845,1.939,7.442,4.282,10.897,6.845
			c6.586,4.885,12.407,10.729,18.217,16.489c6.519,6.464,13.115,12.863,19.447,19.512c6.483,6.807,12.851,13.719,19.238,20.615
			c5.703,6.156,11.892,11.878,18.476,17.077c6.577,5.194,13.734,9.516,21.367,12.968c4.629,2.093,9.348,3.997,14.026,5.977
			c-1.06,2.066-2.256,3.31-4.544,3.892c-2.191,0.557-4.336,0.864-5.56,2.981c-2.146,3.714-1.343,9.374,0.916,12.872
			c0.307,0.476,0.692,1.036,1.218,1.294c0.234,0.115,0.78,0.053,0.933,0.2c0.222,0.212-0.051,0.815-0.087,1.075
			c-0.263,1.912-0.157,3.919-0.079,5.84c0.181,4.44,0.898,8.755,2.117,13.027c-7.217,1.664-14.399,4.611-19.379,10.309
			c-4.674,5.346-6.103,12.051-5.979,18.977c-2.424-1.98-5.157-2.993-8.225-3.541c-1.068-0.19-2.408-0.243-3.373-0.833
			c-0.883-0.54-1.282-1.566-1.898-2.35c-0.689-0.877-1.836-0.845-2.527-1.633c-0.476-0.543-0.649-1.395-0.822-2.065
			c-0.391-1.51-0.785-3.003-1.542-4.378c-1.249-2.267-3.167-4.193-5.437-5.439c-2.848-1.564-6.188-1.745-9.094-3.142
			c-4.305-2.07-5.393-8.214-10.229-9.435c-1.928-0.487-3.978,0.544-5.844-0.03c-1.678-0.517-1.777-2.668-2.603-3.949
			c-0.726-1.126-1.939-1.691-3.207-1.998c-1.006-0.243-1.997-0.062-2.98-0.228c-0.187-0.031-0.324-0.062-0.479-0.177
			c-1.18-0.878-0.879-2.969-1.988-3.975c-0.85-0.771-2.108-0.202-3.016-0.72c-0.472-0.269-0.357-0.724-0.209-1.196
			c0.539-1.707,1.312-3.635,0.199-5.28c-0.439-0.649-1.124-1.264-1.889-1.493c-0.426-0.127-0.887,0.02-1.297-0.109
			c-0.813-0.256-0.963-1.536-1.093-2.227c-0.355-1.892-0.43-3.895-0.205-5.807c0.132-1.127,0.468-2.321,0.217-3.455
			c-0.168-0.759-0.436-1.347-0.256-2.119c0.31-1.329,1.186-2.48,1.692-3.735c0.223-0.551,0.818-2.078,0.113-2.6
			c-0.3-0.222-0.471-0.067-0.697,0.187c-1.076,1.206-1.164,3.241-2.739,4.028c-1.319,0.659-3.512,0.645-4.864,0.164
			c-1.307-0.464-1.55-2.015-2.224-3.08c-0.207-0.327-0.59-1.044-1.014-0.652c-0.678,0.627,0.188,2.513,0.479,3.098
			c0.77,1.547,2.033,2.384,1.837,4.226c-0.213,1.995-0.554,3.473,0.366,5.336c1.099,2.228,3.562,4.556,3.555,7.214
			c-0.002,0.564-0.278,0.934-0.468,1.451c-0.233,0.637-0.17,1.326-0.009,1.976c0.426,1.712,1.549,2.67,2.979,3.615
			c0.693,0.458,1.077,0.841,0.896,1.672c-0.312,1.423-0.912,2.766,0.062,4.089c1.255,1.704,3.776,1.778,5.484,2.764
			c0.913,0.527,0.588,1.071,0.707,2.029c0.188,1.519,1.372,2.984,2.486,3.954c1.459,1.271,3.2,1.65,5.095,1.707
			c0.646,0.02,2.392-0.229,2.774,0.619c0.195,0.433-0.031,1.032-0.018,1.491c0.02,0.683,0.215,1.348,0.506,1.963
			c0.717,1.514,2.057,2.651,3.693,3.039c2.744,0.65,5.532-0.364,8.264,0.039c1.103,0.163,1.089,0.815,1.461,1.76
			c0.802,2.034,2.908,2.921,4.082,4.641c1.223,1.792,1.528,3.787,3.379,5.118c2.25,1.617,5.261,2.13,7.305,4.021
			c0.816,0.754,1.269,1.792,2.033,2.587c0.682,0.709,1.586,1.156,2.448,1.6c0.793,0.409,1.668,0.78,2.245,1.49
			c0.949,1.167,1.537,2.631,2.461,3.837c2.446,3.193,5.701,5.793,8.821,8.295c1.683,1.35,3.386,2.678,5.138,3.936
			c0.481,0.346,1.912,0.988,2.036,1.531c0.268,1.173,0.527,2.349,0.802,3.52c2.005,8.554,4.029,17.123,6.605,25.526
			c1.051,3.426,2.249,6.798,3.527,10.146c-3.366,0.718-6.709,1.77-9.746,3.411c-3.859,2.086-7.021,5.026-9.594,8.564
			c-1.322,1.819-2.433,3.79-3.436,5.801c-6.046-4.354-13.27-6.516-20.725-5.605c-3.136,0.383-5.678,1.406-8.136,3.358
			c-2.076,1.648-4.002,2.429-6.665,2.665c-3.157,0.279-6.666-0.408-9.698,0.689c-2.376,0.86-3.113,3.117-4.236,5.164
			c-0.501,0.912-1.016,1.561-2.114,1.439c-2.769-0.306-5.422-1.688-8.278-1.145c-1.456,0.277-2.15,1.228-2.587,2.58
			c-0.311,0.962-0.424,2.254-1.521,2.633c-1.149,0.396-2.614,0.093-3.783,0.072c-1.061-0.019-2.22-0.018-3.229,0.369
			c-1.467,0.562-1.904,2.028-2.221,3.434c-0.229,1.02-0.374,2.743-1.624,3.074c-1.457,0.386-3.059-0.674-4.489,0.053
			c-1.936,0.982-1.729,4.731-4.416,3.863c-1.896-0.611-3.436-0.449-4.861,1.044c-0.831,0.871-1.279,1.248-2.479,0.831
			c-1.854-0.644-3.644-1.439-5.515-2.054c-1.251-0.41-2.548-0.813-3.659-1.542c-1.932-1.267-2.724-3.569-4.453-5.039
			c-0.248-0.212-1.87-1.472-2.197-0.868c-0.086,0.159,0.149,0.501,0.209,0.61c0.687,1.258,1.729,2.284,2.409,3.564
			c0.312,0.588,1.16,1.693,0.825,2.434c-0.308,0.681-1.116,0.735-1.107,1.59c0.005,0.52,0.647,1.372,0.098,1.702
			c-0.109,0.065-0.356,0.028-0.466,0.021c-0.932-0.055-1.863-0.118-2.797-0.12c-0.943-0.003-2.061-0.032-2.96,0.332
			c-1.216,0.492-0.729,1.379,0.374,1.521c2.9,0.373,6.007-0.604,8.827,0.501c0.855,0.335,1.561,0.742,2.48,0.884
			c1.688,0.26,3.433,0.202,5.134,0.193c1.449-0.007,3.234-0.273,4.663,0.133c0.507,0.145,0.818,0.526,1.279,0.755
			c1.265,0.629,3.138-0.411,4.243-0.892c1.108-0.482,2.996-1.764,4.329-1.216c0.52,0.214,0.896,0.611,1.473,0.684
			c0.537,0.067,1.101-0.093,1.6-0.275c1.136-0.415,2.46-1.176,2.944-2.345c0.422-1.018,0.289-1.86,1.435-2.321
			c0.793-0.319,1.657-0.136,2.485-0.157c0.864-0.022,1.724-0.168,2.522-0.507c1.83-0.776,2.702-2.501,3.813-4.045
			c0.652-0.905,1.22-1.385,2.358-1.371c1.999,0.025,4.41,0.306,6.175-0.894c1.327-0.902,1.714-2.903,3.274-3.432
			c1.236-0.418,2.738-0.295,4.016-0.267c1.646,0.037,3.32,0.253,4.96,0.01c2.582-0.383,5.067-1.895,6.919-3.68
			c1.413-1.362,2.445-2.685,4.459-3.023c2.205-0.37,4.76-0.016,6.786,0.92c1.305,0.603,2.437,1.511,3.75,2.1
			c1.585,0.711,3.331,1.076,5.04,1.342c3.793,0.59,7.819,0.691,11.585-0.15c-2.538,8.364-4.069,16.956-5.319,25.596
			c-1.213,8.391-1.982,16.86-2.567,25.315c-0.602,8.692-1.147,17.411-1.28,26.124C299.286,493.104,299.244,497.331,299.274,501.565z
			"/>
	</g>
</g>
</svg>
