<?xml version="1.0" encoding="utf-8"?>
<!-- Generator: Adobe Illustrator 16.0.0, SVG Export Plug-In . SVG Version: 6.00 Build 0)  -->
<!DOCTYPE svg PUBLIC "-//W3C//DTD SVG 1.1//EN" "http://www.w3.org/Graphics/SVG/1.1/DTD/svg11.dtd" [
	<!ENTITY ns_flows "http://ns.adobe.com/Flows/1.0/">
	<!ENTITY ns_extend "http://ns.adobe.com/Extensibility/1.0/">
	<!ENTITY ns_ai "http://ns.adobe.com/AdobeIllustrator/10.0/">
	<!ENTITY ns_graphs "http://ns.adobe.com/Graphs/1.0/">
	<!ENTITY ns_vars "http://ns.adobe.com/Variables/1.0/">
	<!ENTITY ns_imrep "http://ns.adobe.com/ImageReplacement/1.0/">
	<!ENTITY ns_sfw "http://ns.adobe.com/SaveForWeb/1.0/">
	<!ENTITY ns_custom "http://ns.adobe.com/GenericCustomNamespace/1.0/">
	<!ENTITY ns_adobe_xpath "http://ns.adobe.com/XPath/1.0/">
]>
<svg version="1.1" xmlns:x="&ns_extend;" xmlns:i="&ns_ai;" xmlns:graph="&ns_graphs;"
	 xmlns="http://www.w3.org/2000/svg" xmlns:xlink="http://www.w3.org/1999/xlink" xmlns:a="http://ns.adobe.com/AdobeSVGViewerExtensions/3.0/"
	 x="0px" y="0px" width="750px" height="750px" viewBox="0 0 750 750" enable-background="new 0 0 750 750" xml:space="preserve">
<metadata>
	<sfw  xmlns="&ns_sfw;">
		<slices></slices>
		<sliceSourceBounds  width="2149.114" height="1341.525" y="-650.734" x="40.971" bottomLeftOrigin="true"></sliceSourceBounds>
	</sfw>
</metadata>
<g id="N-DIMS">
</g>
<g id="N-TEXT">
</g>
<g id="AG-DIAGRAM">
</g>
<g id="AG-PEOPLE">
</g>
<g id="AG-ANIMALS">
	<g id="POLYLINE">
		
			<path fill="none" stroke="#FB8604" stroke-width="2.3" stroke-linecap="round" stroke-linejoin="round" stroke-miterlimit="10" d="
			M435.895,416.233c4.583,7.938,10.139,15.913,17.257,21.79c1.844,1.523,3.803,2.898,5.834,4.159
			c1.784,1.105,3.734,1.903,5.52,2.997c2.198,1.346,4.562,3.409,5.586,5.841c0.568,1.351,0.743,3.25,0.045,4.598
			c-0.347,0.671-0.961,1.115-1.617,1.459c-1.513,0.793-3.134,1.329-4.55,2.304c-2.695,1.855-4.414,4.794-5.822,7.676
			c-2.067,4.231-3.159,8.704-4.38,13.227c-1.117,4.14-3.302,7.488-5.917,10.837c-0.586,0.75-1.247,1.639-2.145,2.043
			c-0.85,0.383-1.83,0.348-2.702,0.69c-2.397,0.942-4.744,3.161-6.088,5.322c-1.153,1.855-0.107,3.466,0.722,5.265
			c0.837,1.817,1.515,3.669,1.865,5.645c0.344,1.938,0.248,3.884,0.482,5.821c0.144,1.181,0.974,2.218,1.572,3.198
			c1.002,1.639,1.734,3.408,2.315,5.233c0.684,2.141,1.104,4.353,1.821,6.48c0.354,1.051,0.637,1.986,0.529,3.102
			c-0.1,1.046,0.109,2.13-0.117,3.153c-0.238,1.073-0.542,2.013-0.542,3.129c0,1.529,0.786,3.021-0.227,4.35
			c-0.186,0.242-1.282,1.091-0.916,1.426c0.386,0.155,0.961-0.124,1.296-0.284c1.553-0.737,2.501-1.317,4.233-0.588
			c1.636,0.687,1.521,2.093,2.253,3.526c0.979,1.914,2.963,2.069,4.504,3.326c1.483,1.211,1.35,3.521,1.925,5.161
			c0.311,0.888,0.878,1.899,1.861,2.121c1.003,0.226,1.832,0.093,2.811,0.506c0.73,0.309,1.543,0.803,2.374,0.742
			c0.682-0.049,1.236-0.507,1.855-0.742c0.678-0.257,1.377-0.236,2.083-0.084c1.348,0.291,2.584,0.95,3.932,1.233
			c1.367,0.287,2.697,0.003,4.05-0.245c0.988-0.181,1.923-0.313,2.906-0.074c1.449,0.352,2.774,0.83,4.283,0.891
			c1.456,0.059,2.986-0.183,4.058-1.255c0.856-0.855,1.403-1.937,1.825-3.061"/>
	</g>
	<g id="POLYLINE_1_">
		
			<path fill="none" stroke="#FB8604" stroke-width="2.3" stroke-linecap="round" stroke-linejoin="round" stroke-miterlimit="10" d="
			M513.45,402.736c-1.983,2.121-3.634,4.979-3.971,7.9c-0.444,3.854,0.925,7.854,1.999,11.498c0.658,2.229,1.304,4.441,1.448,6.774
			c0.143,2.305-0.133,4.62-0.481,6.895c-0.699,4.578-1.655,9.262-3.02,13.69c-0.838,2.722-2.604,5.218-2.865,8.092
			c-0.285,3.146,0.651,6.305-0.494,9.358c-0.79,2.106-2.456,3.926-4.402,5.029c-1.635,0.927-3.44,1.497-5.066,2.443
			c-1.809,1.053-3.434,2.383-5.022,3.735c-3.588,3.053-6.917,6.443-10.779,9.161c-4.129,2.906-8.789,4.939-13.323,7.115
			c-3.398,1.631-7.39,3.233-10.081,5.954c-1.731,1.751-2.023,4.698-2.291,7.008c-0.116,1.016,0.621,1.569,0.676,2.523
			c0.056,0.958-0.349,1.919-0.076,2.874c0.2,0.699,0.813,1.136,1.104,1.783c0.409,0.917-0.19,1.96,0.278,2.829
			c0.474,0.534,0.368,0.763,0.436,1.479c0.066,0.708,0.403,1.29,0.791,1.877c0.455,0.693,0.979,1.409,1.078,2.257
			c0.13,1.118-0.183,2.121,0.197,3.232c0.39,1.141,1.116,2.146,2.067,2.885c0.5,0.388,1.023,0.729,1.445,1.204
			c0.297,0.332,0.506,0.75,0.833,1.055c0.844,0.782,2.229,0.521,2.954,1.447c0.92,1.172,1.488,2.464,2.545,3.559
			c0.777,0.806,1.591,1.423,2.646,1.81c1.194,0.437,2.691,0.391,3.793,1.009c0.369,0.206,0.568,0.49,0.688,0.895
			c0.429,1.453-0.181,3.876-1.104,5.045c-0.504,0.639-1.474,1.385-0.211,1.819c0.952,0.328,2.172,0.203,3.143,0.142
			c1.931-0.125,3.889-0.329,5.822-0.121c2.639,0.282,5.015,1.508,6.901,3.362"/>
	</g>
	<g id="POLYLINE_2_">
		
			<path fill="none" stroke="#FB8604" stroke-width="2.3" stroke-linecap="round" stroke-linejoin="round" stroke-miterlimit="10" d="
			M475.632,539.116c-1.482-2.305-2.745-7.343,0.279-9.049c3.755-2.118,8.937,0.675,11.844,2.94"/>
	</g>
	<g id="POLYLINE_3_">
		
			<path fill="none" stroke="#FB8604" stroke-width="2.3" stroke-linecap="round" stroke-linejoin="round" stroke-miterlimit="10" d="
			M487.755,533.008c-2.066-3.547-4.97-6.368-8.659-8.217c-1.904-0.954-4.038-1.635-6.192-1.482
			c-4.468,0.317-6.846,4.833-6.743,8.979"/>
	</g>
	<g id="POLYLINE_4_">
		
			<path fill="none" stroke="#FB8604" stroke-width="2.3" stroke-linecap="round" stroke-linejoin="round" stroke-miterlimit="10" d="
			M490.67,557.151c-1.408,0.213-2.462-0.415-3.39-1.451c-0.796-0.89-1.521-1.97-1.98-3.074c-0.135-0.321-0.363-0.789-0.164-1.132
			c0.419-0.559,1.545-0.709,2.162-0.845c1.416-0.313,2.883-0.404,4.325-0.249c3.383,0.363,6.788,1.916,9.376,4.095
			c0.606,0.511,1.174,1.07,1.701,1.662c0.146,0.165,0.933,0.86,0.89,1.138c0.188,0.376-1.113,0.007-1.17-0.008
			c-1.764-0.477-3.524-0.979-5.366-1.001c-2.072-0.023-4.075,0.502-6.107,0.824C490.854,557.125,490.762,557.138,490.67,557.151z"/>
	</g>
	<g id="POLYLINE_5_">
		
			<path fill="none" stroke="#FB8604" stroke-width="2.3" stroke-linecap="round" stroke-linejoin="round" stroke-miterlimit="10" d="
			M465.806,446.08c-4.176-1.716-8.302-3.242-12.752-4.088c-4.231-0.803-9.149-1.186-12.943-3.417
			c-2.57-1.512-4.109-4.14-6.753-5.579c-2.447-1.333-5.377-2.344-6.974-4.777c-0.796-1.212-1.242-2.678-2.347-3.665
			c-0.637-0.569-1.41-0.952-2.192-1.28c-3.497-1.466-7.277-2.411-10.879-3.573c-10.796-3.48-21.57-7.031-32.396-10.416
			c-8.976-2.807-18.076-5.269-27.232-7.412c-8.714-2.041-17.424-4.101-26.149-6.093c-13.376-3.056-26.754-6.111-40.132-9.168
			c-8.015-1.83-16.028-3.654-24.087-5.283c-10.527-2.129-21.062-4.198-31.627-6.138c-9.378-1.722-18.81-3.314-28.254-4.631
			c-9.068-1.263-18.14-2.533-27.246-3.499c-12.837-1.361-25.673-2.722-38.51-4.083c-8.7-0.922-17.411-2.004-26.146-2.547
			c-4.615-0.287-9.24-0.364-13.864-0.238c-4.965,0.136-10.01,0.5-14.974,0.177c-0.586-0.038-3.602-0.01-3.326-1.243
			c0.476-1.188,2.405-1.504,3.483-1.65c2.448-0.333,4.972-0.249,7.435-0.316c2.227-0.061,4.451-0.192,6.675-0.29
			c5.29-0.231,10.574-0.47,15.869-0.571c9.238-0.177,18.495,0.02,27.731,0.237c11.45,0.27,22.891,0.546,34.334,0.998
			c9.252,0.365,18.459,1.074,27.653,2.149c10.085,1.18,20.147,2.202,30.264,3.072c10.222,0.879,20.438,1.751,30.644,2.793
			c9.931,1.014,19.833,2.044,29.798,2.646c10.334,0.625,20.618,1.311,30.916,2.383c10.776,1.121,21.499,2.081,32.313,2.746
			c10.303,0.636,20.577,1.716,30.854,2.685c4.816,0.454,9.628,0.876,14.452,1.244c5.06,0.386,10.046,1.319,15.047,2.145
			c5.075,0.835,10.205,1.35,15.309,1.973c4.1,0.502,8.304,1.199,12.439,0.815c2.492-0.231,4.968-0.781,7.432-1.204
			c2.713-0.465,5.46-0.779,8.185-1.168c1.97-0.28,3.941-0.614,5.847-1.2c1.571-0.484,3.062-0.947,4.716-1.009
			c1.549-0.058,2.822-0.161,4.29-0.619c1.401-0.437,2.939-0.167,4.375-0.147c3.737,0.049,7.47-1.354,11.205-0.761
			c2.352,0.374,4.357,1.432,6.773,1.042c2.038-0.329,3.979-1.096,5.975-1.599c1.754-0.442,3.535-0.737,5.317-1.031
			c5.419-0.897,10.836-1.945,16.286-2.646c5.064-0.651,10.088-0.851,15.19-0.871c2.76-0.011,5.298-1.175,8.061-0.931
			c2.193,0.193,4.34,0.736,6.528,0.971c2.551,0.273,5.103,0.551,7.654,0.819c3.461,0.365,7.458,1.25,10.908,0.411
			c1.003-0.244,1.75-0.838,2.598-1.398c0.702-0.465,1.501-0.534,2.228-0.922c1.34-0.714,1.524-2.682,2.319-3.858
			c0.49-0.727,1.131-1.239,1.911-1.625c0.632-0.312,1.415-0.592,1.853-1.186c0.409-0.556,0.436-1.296,0.731-1.906
			c0.343-0.705,0.987-1.132,1.584-1.611c1.229-0.991,1.159-1.932,0.99-3.443c-0.263-2.368,1.531-4.237,2.203-6.384
			c0.551-1.755-0.415-3.521,0.261-5.226c0.757-1.907,2.416-3.526,2.056-5.737c-0.112-0.691-0.483-1.374-0.4-2.087
			c0.083-0.71,0.625-1.252,0.896-1.888c0.271-0.637,0.208-1.353,0.494-1.981c0.305-0.668,0.831-1.151,0.981-1.889
			c0.17-0.835,0.064-1.64,0.436-2.431c0.654-1.388,1.941-2.403,2.825-3.636c0.707-0.986,1.209-2.162,2.168-2.942
			c0.786-0.641,1.723-1.047,2.471-1.742c0.947-0.879,1.743-1.885,2.833-2.6c1.417-0.931,3.043-1.503,4.438-2.47
			c0.872-0.604,1.616-1.511,2.633-1.882c0.833-0.305,1.75-0.118,2.607-0.069c0.809,0.047,1.488-0.079,2.201-0.459
			c0.769-0.409,1.479-1.056,2.367-1.188c0.888-0.131,1.777,0.26,2.628,0.436c1.013,0.209,1.847-0.11,2.835-0.306
			c0.82-0.161,1.562,0.008,2.338,0.278c1.438,0.501,2.838,0.86,4.364,0.948c3.599,0.208,7.091-1.264,10.665-0.946
			c1.09,0.097,2.123,0.432,3.021,1.066c1.039,0.734,1.869,1.768,3.041,2.308c1.056,0.485,2.258,0.547,3.302,1.062
			c0.741,0.364,1.375,0.925,1.906,1.551c0.383,0.453,0.619,1.061,1.113,1.407c0.794,0.557,2.021,0.548,2.92,0.766
			c1.41,0.343,2.631,1.098,3.979,1.604c0.876,0.329,1.873,0.314,2.707,0.738c0.802,0.407,1.357,1.185,2.06,1.732
			c1.329,1.039,2.856,1.713,4.406,2.353c4.633,1.911,9.262,3.92,13.531,6.57c1.229,0.763,2.527,1.592,3.465,2.716
			c0.78,0.934,0.904,1.898,1.135,3.064c0.533,2.704,4.929,6.973,0.689,8.922c-0.719,0.33-1.406,0.176-2.177,0.125
			c-2.196-0.142-4.455,0.134-6.645,0.258c-4.374,0.248-8.825,0.136-13.123-0.772c-4.38-0.925-7.946-3.185-11.728-5.452
			c-3.719-2.229-7.648-3.08-11.941-3.409c-4.384-0.336-8.815-0.319-13.174-0.94c-1.163-0.165-2.356-0.365-3.451-0.813
			c-1.185-0.484-2.104-1.308-3.116-2.067"/>
	</g>
	<g id="POLYLINE_6_">
		
			<path fill="none" stroke="#FB8604" stroke-width="2.3" stroke-linecap="round" stroke-linejoin="round" stroke-miterlimit="10" d="
			M683.412,338.85c-0.581-0.218-0.919,0.504-0.793,0.981c0.122,0.428,1.332,1.763,1.785,1.284
			C684.724,340.478,683.948,339.187,683.412,338.85z"/>
	</g>
	<g id="POLYLINE_7_">
		
			<path fill="none" stroke="#FB8604" stroke-width="2.3" stroke-linecap="round" stroke-linejoin="round" stroke-miterlimit="10" d="
			M572.141,496.171c-0.407,0.324-1.872-0.244-2.282-0.36c-0.987-0.28-1.955-0.656-2.823-1.208c-1.341-0.851-2.386-2.062-2.995-3.534
			c-0.17-0.407-0.629-1.406-0.433-1.854c0.26-0.591,0.61,0.486,0.864,0.813c1.404,1.812,3.733,1.245,5.725,1.092
			c1.012-0.077,1.282,1.137,1.097,2.003c-0.183,0.852-0.481,1.173,0.017,2.071C571.522,495.579,571.948,495.821,572.141,496.171z"/>
	</g>
	<g id="POLYLINE_8_">
		
			<path fill="none" stroke="#FB8604" stroke-width="2.3" stroke-linecap="round" stroke-linejoin="round" stroke-miterlimit="10" d="
			M560.829,398.394c3.872,2.378,4.495,6.354,3.129,10.382c-1.38,4.061-3.432,7.826-3.976,12.141
			c-0.231,1.831-0.058,3.683-0.28,5.509c-0.147,1.213-0.615,2.342-1.063,3.471c-0.876,2.205-1.896,4.355-2.698,6.592
			c-0.237,0.659-0.49,1.398-0.352,2.108c0.104,0.533,0.431,1,0.782,1.403c1.362,1.563,2.946,3.019,4.524,4.363
			c3.462,2.95,7.384,5.417,11.38,7.578c4.164,2.252,8.406,4.227,12.328,6.901c1.845,1.257,3.736,2.52,5.438,3.967
			c0.394,0.335,0.862,0.759,0.994,1.285c0.274,1.09-0.804,2.05-0.779,3.158c0.024,1.05,0.653,2.01,1.054,2.939
			c0.384,0.89,0.48,1.749,0.458,2.709c-0.079,3.419-0.154,6.713-1.822,9.768c-1.536,2.812-2.834,5.252-5.718,6.783
			c-1.911,1.016-3.586,0.42-5.602,0.129c-1.457-0.21-2.729-1.508-4.173-1.45c-0.452,0.018-0.854,0.224-1.227,0.466
			c-1.12,0.727-2.213,1.658-3.212,2.541"/>
	</g>
	<g id="POLYLINE_9_">
		
			<path fill="none" stroke="#FB8604" stroke-width="2.3" stroke-linecap="round" stroke-linejoin="round" stroke-miterlimit="10" d="
			M572.141,496.171c1.687,0.638,2.742-0.495,4.341-0.896c1.077-0.27,2.069-0.696,3.111-0.991c0.807-0.229,1.729,0.128,2.521,0.232
			c2.305,0.304,3.228-1.153,5.138-2.19c1.205-0.653,2.118-1.232,3.176-2.106c0.657-0.543,1.317-1.015,2.168-1.169
			c1.035-0.189,1.974-0.079,2.697-0.941c1.24-1.479,1.673-3.979,1.916-5.8"/>
	</g>
	<g id="POLYLINE_10_">
		
			<path fill="none" stroke="#FB8604" stroke-width="2.3" stroke-linecap="round" stroke-linejoin="round" stroke-miterlimit="10" d="
			M578.829,507.788c1.469,3.672-5.205,3.488-6.987,3.192c-1.667-0.277-4.146-1.742-4.755-3.423c-0.232-0.643-0.032-0.47,0.527-0.151
			c0.75,0.429,1.594,0.669,2.45,0.763c0.882,0.098,1.777,0.022,2.612-0.286c0.857-0.316,1.318-0.893,2.035-1.407
			c1.02-0.732,2.532,0.106,3.438,0.687C578.417,507.331,578.659,507.519,578.829,507.788z"/>
	</g>
	<g id="POLYLINE_11_">
		
			<path fill="none" stroke="#FB8604" stroke-width="2.3" stroke-linecap="round" stroke-linejoin="round" stroke-miterlimit="10" d="
			M593.517,488.948c-0.201,2.396-0.843,5.522-2.79,7.162c-2.229,1.875-5.256,1.486-7.682,2.831c-0.562,0.311-0.973,0.88-1.574,1.11
			c-0.59,0.226-1.257,0.075-1.86,0.264c-1.022,0.319-2.069,1.141-2.972,1.717c-0.491,0.314-0.811,0.689-1.026,1.236
			c-0.386,0.981,0.045,2.232-0.689,3.05"/>
	</g>
	<g id="POLYLINE_12_">
		
			<path fill="none" stroke="#FB8604" stroke-width="2.3" stroke-linecap="round" stroke-linejoin="round" stroke-miterlimit="10" d="
			M578.914,509.08c0.445-0.988,1.649-0.274,2.444-0.678c0.902-0.457,0.516-1.698,1.103-2.431c0.836-1.041,2.583-0.667,3.697-1.338
			c0.825-0.497,1.37-1.362,2.203-1.837c0.58-0.332,1.139-0.251,1.795-0.31c0.93-0.083,1.732-0.536,2.506-1.037
			c0.736-0.478,1.576-0.663,2.305-1.116c0.813-0.506,1.343-1.356,2.17-1.861c0.518-0.315,1.136-0.483,1.536-0.958
			c1.368-1.617,0.95-4.761,0.843-6.625c-0.12-2.073-0.397-4.231-0.133-6.306c0.138-1.076,0.515-2.077,0.42-3.171
			c-0.114-1.339-0.037-2.213,0.245-3.532c0.381-1.785,0.313-3.62,0.512-5.427c0.326-2.966,1.958-5.829,1.465-8.858
			c-0.366-2.255-1.879-4.103-3.679-5.429c-1.007-0.741-2.182-1.187-3.205-1.904c-1.994-1.396-3.931-2.96-5.791-4.529
			c-1.311-1.104-2.489-2.338-3.424-3.777c-0.59-0.908-1.136-2.066-2.061-2.703c-0.571-0.394-1.335-0.462-1.819-0.979
			c-0.534-0.569-0.692-1.409-1.204-2.017c-1.456-1.728-3.202-3.265-4.821-4.837c-0.945-0.919-1.895-1.831-2.853-2.736
			c-0.623-0.587-1.483-1.135-1.998-1.814c-0.631-0.834,0.104-1.708,0.658-2.411c1.152-1.459,2.517-2.74,3.52-4.316
			c0.918-1.44,1.452-3.041,1.842-4.695c0.52-2.207,0.764-4.486,1.395-6.666c0.263-0.906,0.617-1.819,1.299-2.497
			c0.868-0.862,2.122-1.253,3.196-1.771c1.112-0.538,2.12-1.23,2.996-2.105c2.23-2.228,3.738-5.38,4.242-8.479"/>
	</g>
	<g id="POLYLINE_13_">
		
			<path fill="none" stroke="#FB8604" stroke-width="2.3" stroke-linecap="round" stroke-linejoin="round" stroke-miterlimit="10" d="
			M576.181,424.595c0.964-0.836,1.933-1.652,3.136-2.118c1.365-0.529,2.914-0.557,4.218-1.246c0.814-0.43,1.284-1.176,1.954-1.777
			c0.694-0.623,1.602-0.884,2.379-1.383c1.016-0.651,1.839-1.582,2.622-2.484c1.609-1.853,3.218-3.661,4.922-5.429
			c0.801-0.83,1.739-1.804,2.133-2.916c0.26-0.738,0.016-1.412,0.08-2.165c0.112-1.302,1.48-2.014,1.89-3.222
			c0.339-1.001,0.43-1.989,0.909-2.952c0.936-1.877,2.221-3.568,3.239-5.401c1.179-2.123,2.285-4.296,3.355-6.476
			c0.977-1.988,1.551-4.001,2.157-6.122c0.266-0.927,0.628-1.767,1.158-2.57c1.013-1.539,2.024-3.196,3.385-4.463
			c0.788-0.735,1.83-1.246,2.439-2.159c0.48-0.721,0.596-1.639,1.132-2.325c0.479-0.614,1.229-0.888,1.84-1.338
			c0.745-0.551,1.048-1.349,1.619-2.054c0.413-0.511,1.057-0.79,1.431-1.322c0.293-0.417,0.385-0.866,0.75-1.242
			c1.982-2.039,5.396-2.521,8.005-3.113c1.685-0.383,3.32-0.93,5.054-1.029c1.49-0.086,2.815-0.219,4.245-0.675
			c2.227-0.711,4.357-1.583,6.687-1.91c2.245-0.316,4.523-0.377,6.778-0.606c4.815-0.492,9.535-0.646,14.375-0.519
			c4.146,0.107,8.497,0.541,12.446-1.02c1.73-0.684,3.176-1.62,4.201-3.188c0.307-0.47,0.613-0.944,0.981-1.369
			c0.287-0.329,0.837-0.761,0.987-1.208c0.156-0.234,0.035-0.56-0.126-0.756"/>
	</g>
	<g id="POLYLINE_14_">
		
			<path fill="none" stroke="#FB8604" stroke-width="2.3" stroke-linecap="round" stroke-linejoin="round" stroke-miterlimit="10" d="
			M616.348,335.404c-0.022,0.834,0.005,1.702,0.316,2.487c0.446,1.119,1.397,1.93,2.011,2.948c1.561,2.592,1.29,5.849,2.623,8.556
			c2.328,4.729,9.006,5.667,13.646,6.021c3.647,0.279,7.32,0.18,10.975,0.167c4.859-0.019,9.719-0.037,14.578-0.055"/>
	</g>
	<g id="POLYLINE_15_">
		
			<path fill="none" stroke="#FB8604" stroke-width="2.3" stroke-linecap="round" stroke-linejoin="round" stroke-miterlimit="10" d="
			M507.476,454.303c3.479-2.944,7.47-4.967,11.768-6.473c4.5-1.577,8.977-1.923,13.701-2.329c8.146-0.699,15.942-2.181,23.467-5.456
			"/>
	</g>
</g>
<g id="AG-OUTLINE">
	<g id="POLYLINE_34_">
		
			<path fill="none" stroke="#FB8604" stroke-width="2.875" stroke-linecap="round" stroke-linejoin="round" stroke-miterlimit="10" d="
			M576.181,424.595c-0.57,1.268-1.366,2.389-2.262,3.447c-0.937,1.107-2.309,2.228-2.873,3.61c-0.117,0.289-0.211,0.588-0.101,0.894
			c0.05,0.147,0.172,0.25,0.268,0.365c0.613,0.744,1.509,1.353,2.213,2.018c1.899,1.793,3.769,3.619,5.616,5.466
			c1.052,1.05,1.948,1.927,2.61,3.234c0.65,1.283,2.154,1.323,3.033,2.442c0.912,1.162,1.558,2.491,2.537,3.607
			c1.557,1.775,3.501,3.168,5.351,4.614c1.486,1.163,2.899,2.236,4.562,3.115c1.009,0.533,1.91,1.249,2.699,2.071
			c1.574,1.641,2.518,3.769,2.246,6.081c-0.191,1.626-0.751,3.168-1.146,4.751c-0.478,1.908-0.466,3.866-0.629,5.814
			c-0.104,1.238-0.556,2.425-0.625,3.658c-0.06,1.055,0.259,2.049,0.038,3.102c-0.786,3.764,0.09,7.463-0.139,11.259
			c-0.074,1.222-0.22,2.96-1.316,3.73c-0.764,0.537-1.552,0.798-2.228,1.484c-0.774,0.787-1.224,1.03-2.213,1.438
			c-1.016,0.416-1.826,1.217-2.889,1.545c-0.709,0.218-1.466,0.037-2.163,0.265c-0.701,0.229-1.234,0.869-1.751,1.354
			c-0.622,0.583-1.309,0.974-2.137,1.184c-1.108,0.281-2.229,0.127-2.707,1.337c-0.442,1.122-0.137,1.979-1.595,2.077
			c-0.444,0.03-1.002-0.153-1.39,0.137c-0.239,0.359-0.342,0.772-0.58,1.135c-1.004,1.527-4.164,1.273-5.637,1.244
			c-2.108-0.041-3.938-1.072-5.302-2.668c-0.096-0.112-0.942-1.09-0.707-1.314c-0.02,0.049,1.707,0.789,1.937,0.853
			c1.634,0.451,3.522,0.375,4.923-0.672c1.271-0.949,1.384-1.323,1.516-2.81c0.19-2.136,1.755-2.694,3.419-3.722
			c1.086-0.671,2.336-0.323,3.34-1.095c2.186-1.677,5.044-1.489,7.446-2.757c2.304-1.217,3.063-3.432,3.631-5.838
			c0.162-0.692,0.278-1.395,0.338-2.103c-0.942,0.085-1.68,0.229-2.464,0.78c-0.91,0.64-1.661,1.452-2.638,1.998
			c-1.303,0.729-2.405,1.55-3.654,2.352c-0.605,0.389-1.224,0.548-1.942,0.516c-0.985-0.045-2.025-0.524-3.008-0.361
			c-0.69,0.114-1.327,0.561-2.022,0.73c-1.3,0.32-2.321,0.821-3.565,1.262c-0.513,0.181-0.994,0.227-1.527,0.114
			c-3.313-0.7-6.704-1.358-8.397-4.705c-0.311-0.616-0.713-1.468-0.688-2.177c0.017-0.48,0.023-0.555,0.368-0.187
			c0.589,0.627,0.807,1.318,1.633,1.721c0.907,0.44,1.995,0.372,2.971,0.293c0.553-0.045,1.146-0.031,1.609-0.3
			c0.359-0.208,0.687-0.575,1.023-0.825c0.607-0.452,1.174-0.962,1.786-1.404c0.419-0.302,0.881-0.59,1.409-0.623
			c0.587-0.038,1.143,0.245,1.65,0.504c1.188,0.605,2.033,0.829,3.354,1.048c0.989,0.164,1.937,0.518,2.951,0.39
			c0.806-0.101,1.569-0.445,2.271-0.839c2.777-1.553,4.255-4.407,5.632-7.182c1.466-2.955,1.57-6.469,1.507-9.709
			c-0.037-1.896-1.592-3.398-1.517-5.253c0.044-1.073,1.118-2.048,0.737-3.125c-0.225-0.636-0.874-1.105-1.377-1.506
			c-1.835-1.459-3.78-2.817-5.737-4.105c-3.993-2.627-8.319-4.557-12.475-6.893c-3.957-2.226-7.861-4.698-11.243-7.745
			c-0.916-0.824-1.789-1.69-2.669-2.552c-0.307-0.3-0.615-0.603-0.902-0.921c-0.322-0.358-0.864,0.099-1.266,0.27
			c-2.22,0.943-4.489,1.759-6.806,2.43c-4.555,1.322-9.295,1.939-14.003,2.406c-4.562,0.451-9.176,0.531-13.582,1.908
			c-4.142,1.293-8.54,3.08-11.966,5.8c-0.869,0.691-1.523,1.2-1.899,2.25c-0.15,0.421-0.277,0.851-0.367,1.289
			c-0.254,1.235-0.202,2.513-0.129,3.764c0.156,2.697,0.271,5.336-1.064,7.774c-1.525,2.78-4.194,4.087-6.977,5.303
			c-3.676,1.607-6.677,4.425-9.635,7.065c-3.632,3.241-7.19,6.481-11.426,8.93c-4.231,2.445-8.771,4.308-13.121,6.524
			c-2.607,1.329-6.224,2.828-7.792,5.48c-0.576,0.975-0.758,2.154-0.972,3.246c-0.205,1.044-0.719,2.394-0.5,3.475
			c0.1,0.488,0.494,0.846,0.627,1.319c0.217,0.778-0.107,1.625-0.107,2.416c0,1.348,1.115,1.931,1.345,3.148
			c0.127,0.671-0.213,1.399-0.02,2.049c0.103,0.348,0.424,0.546,0.541,0.889c0.178,0.518,0.011,1.108,0.207,1.646
			c0.347,0.955,1.128,1.687,1.507,2.627c0.337,0.838,0.12,1.626,0.13,2.504c0.015,1.192,0.523,2.363,1.247,3.297
			c0.744,0.96,1.867,1.479,2.637,2.404c0.365,0.438,0.622,0.934,1.123,1.226c0.554,0.323,1.241,0.392,1.837,0.605
			c-0.104-4.188,2.318-8.718,6.833-8.983c6.145-0.363,11.87,4.742,14.762,9.703c-2.805-2.186-8.849-5.509-12.363-2.591
			c-2.287,1.898-1.411,7.188,0.582,8.854c1.054,0.881,0.676,2.518,0.396,3.698c-0.192,0.809-0.462,1.657-1.011,2.296
			c-0.26,0.302-0.868,0.665-0.775,1.16c0,1.211,4.137,0.667,4.526,0.642c3.143-0.201,6.262-0.389,9.121,1.153
			c1.079,0.581,2.193,1.952,3.32,2.173c1.398,0.273,2.73,0.496,4.076,1.011c1.91,0.73,3.733,1.725,5.308,3.038
			c0.601,0.5,1.153,1.05,1.683,1.626c0.167,0.182,1.005,0.913,0.968,1.214c0,0.419-0.825,0.097-1.075,0.029
			c-1.762-0.476-3.52-0.986-5.357-1.023c-2.073-0.041-4.099,0.464-6.128,0.81c-0.658,0.112-1.071,1.706-1.516,2.34
			c-0.843,1.199-2.048,1.855-3.497,2.001c-1.069,0.107-2.163-0.008-3.212-0.223c-1.091-0.222-2.135-0.743-3.257-0.784
			c-1.525-0.058-3.004,0.549-4.526,0.597c-1.141,0.036-2.178-0.305-3.237-0.686c-1.076-0.386-2.288-0.902-3.463-0.786
			c-0.753,0.074-1.322,0.529-2.019,0.781c-1.515,0.547-2.811-0.771-4.261-1.001c-1.407-0.222-2.13,0.074-2.947-1.245
			c-1.08-1.742-0.695-4.058-1.983-5.727c-1.056-1.366-3.129-1.481-4.288-2.811c-0.99-1.137-0.855-2.902-1.951-3.898
			c-0.894-0.812-2.49-1.151-3.63-0.765c-0.294,0.1-2.911,1.796-2.861,0.799c0.339-0.679,1.093-1.082,1.374-1.812
			c0.27-0.699,0.059-1.449-0.052-2.159c-0.154-1-0.164-1.963-0.017-2.967c0.129-0.877,0.523-1.683,0.518-2.577
			c-0.008-1.167,0.185-2.444,0-3.592c-0.257-1.606-0.961-3.168-1.362-4.747c-0.507-1.999-1.038-3.995-1.836-5.901
			c-0.733-1.753-1.904-3.245-2.7-4.953c-0.482-1.036-0.335-2.187-0.399-3.302c-0.127-2.205-0.426-4.419-1.147-6.515
			c-0.62-1.798-1.669-3.444-2.232-5.253c-0.183-0.582-0.229-1.155-0.062-1.747c0.672-2.367,3.39-4.45,5.336-5.685
			c1.499-0.951,3.465-0.73,4.781-1.914c1.253-1.126,2.259-2.651,3.23-4.016c1.22-1.713,2.312-3.515,3.065-5.483
			c1.628-4.261,2.263-8.817,3.971-13.066c1.349-3.354,3.024-6.949,5.696-9.471c0.998-0.942,2.152-1.654,3.38-2.258
			c1.174-0.579,2.598-0.956,3.592-1.856c1.069-0.97,1.182-2.626,0.979-3.973c-0.358-2.382-2.231-4.308-3.991-5.798
			c-1.578-1.337-3.999-1.935-5.936-2.643c-2.12-0.776-4.307-1.355-6.518-1.81c-4.302-0.885-9.117-1.213-13.117-3.175
			c-2.699-1.324-4.167-3.943-6.662-5.496c-2.507-1.56-5.838-2.44-7.64-4.946c-1.343-1.868-1.874-3.853-4.024-4.96
			c-1.026-0.529-2.151-0.856-3.247-1.21c-2.184-0.704-4.367-1.408-6.551-2.111c-6.924-2.232-13.847-4.465-20.771-6.697
			c-8.579-2.767-17.143-5.577-25.847-7.927c-10.585-2.858-21.265-5.3-31.938-7.799c-8.57-2.007-17.157-3.941-25.737-5.901
			c-11.422-2.608-22.845-5.218-34.268-7.826c-8.769-2.004-17.619-3.762-26.449-5.467c-10.776-2.083-21.562-4.043-32.383-5.887
			c-9.112-1.553-18.294-2.918-27.471-4.037c-9.449-1.151-18.896-2.201-28.362-3.204c-12.152-1.288-24.306-2.577-36.46-3.866
			c-9.073-0.962-18.09-1.643-27.219-1.502c-4.771,0.073-9.554,0.409-14.327,0.25c-0.651-0.022-4.548,0.169-4.591-1.137
			c0.249-1.12,1.935-1.536,2.88-1.716c2.1-0.4,4.312-0.316,6.437-0.374c2.052-0.056,4.102-0.149,6.151-0.239
			c10.312-0.452,20.58-0.756,30.901-0.651c11.254,0.113,22.502,0.401,33.752,0.667c9.343,0.221,18.688,0.614,28.012,1.245
			c9.93,0.672,19.767,2.14,29.664,3.139c11.274,1.138,22.581,1.983,33.87,2.954c9.629,0.828,19.237,1.923,28.852,2.904
			c9.597,0.98,19.269,1.248,28.889,1.906c9.998,0.685,19.937,2.041,29.913,2.953c10.427,0.953,20.891,1.4,31.324,2.293
			c10,0.856,19.976,1.974,29.983,2.735c5.094,0.389,10.074,1.164,15.113,1.994c5.008,0.825,10.042,1.404,15.078,2.021
			c4.383,0.535,8.888,1.352,13.314,1.137c2.499-0.121,4.973-0.669,7.432-1.09c2.547-0.438,5.113-0.763,7.672-1.128
			c2.083-0.296,4.184-0.562,6.226-1.078c1.726-0.435,3.367-1.146,5.153-1.312c1.351-0.126,2.734-0.002,4.059-0.347
			c1.478-0.385,2.548-0.573,4.084-0.512c4.031,0.162,8.034-1.225,12.04-0.789c2.301,0.25,4.391,1.438,6.745,1.186
			c1.802-0.193,3.544-0.839,5.273-1.337c1.734-0.5,3.501-0.863,5.281-1.157c5.358-0.887,10.708-1.874,16.084-2.646
			c5.028-0.723,10.04-1.054,15.116-1.073c1.613-0.007,3.23,0.025,4.81-0.346c1.291-0.303,2.495-0.673,3.831-0.647
			c2.126,0.038,4.212,0.58,6.309,0.872c2.717,0.379,5.456,0.612,8.184,0.904c3.563,0.382,7.559,1.233,11.132,0.575
			c0.78-0.145,1.482-0.434,2.143-0.874c1.018-0.679,1.722-0.986,2.837-1.427c1.425-0.562,1.653-2.34,2.334-3.547
			c0.411-0.729,0.963-1.357,1.685-1.792c0.713-0.43,1.641-0.653,2.214-1.29c0.849-0.94,0.715-2.242,1.75-3.125
			c1.152-0.982,1.893-1.441,1.788-3.024c-0.069-1.05-0.225-1.972,0.119-2.987c0.468-1.384,1.34-2.599,1.846-3.971
			c0.283-0.765,0.423-1.523,0.355-2.343c-0.076-0.927-0.365-1.834-0.135-2.76c0.51-2.055,2.398-3.567,2.279-5.823
			c-0.041-0.799-0.487-1.548-0.458-2.347c0.022-0.607,0.368-1.081,0.658-1.599c0.406-0.724,0.375-1.416,0.638-2.185
			c0.229-0.667,0.792-1.157,1.011-1.83c0.254-0.782,0.095-1.637,0.373-2.419c0.474-1.334,1.693-2.341,2.548-3.414
			c0.809-1.016,1.328-2.276,2.252-3.194c0.693-0.688,1.619-1.065,2.379-1.67c1.044-0.831,1.835-1.932,2.912-2.73
			c1.299-0.963,2.851-1.52,4.229-2.352c1.645-0.993,2.641-2.494,4.688-2.389c0.946,0.05,1.887,0.219,2.794-0.131
			c0.924-0.356,1.656-1.133,2.626-1.379c0.702-0.179,1.412,0.01,2.098,0.189c0.983,0.259,1.807,0.345,2.799,0.089
			c0.904-0.232,1.667-0.371,2.583-0.108c1.375,0.396,2.638,0.899,4.071,1.06c3.686,0.412,7.177-0.936,10.829-0.907
			c1.104,0.009,2.219,0.217,3.191,0.761c1.132,0.634,1.952,1.688,3.053,2.365c1.793,1.104,3.883,0.935,5.423,2.554
			c0.468,0.49,0.753,1.173,1.252,1.616c0.508,0.451,1.272,0.53,1.911,0.655c1.653,0.322,3.021,0.888,4.554,1.592
			c0.977,0.449,2.019,0.49,3.01,0.864c0.817,0.308,1.384,1.008,2.018,1.577c1.079,0.968,2.404,1.635,3.726,2.206
			c4.543,1.966,9.092,3.812,13.387,6.303c2.166,1.255,5.022,2.758,5.586,5.433c0.244,1.158,0.401,2.241,1.001,3.283
			c0.597,1.039,1.44,2.102,1.688,3.308c0.306,1.484-0.632,2.932-2.026,3.463c0.227,0.276,0.216,0.521,0.088,0.827
			c-0.673,1.008-1.525,1.948-2.232,2.945c-1.268,1.787-3.453,2.719-5.501,3.277c-4.267,1.166-9.051,0.535-13.398,0.421
			c-4.667-0.123-9.205,0.429-13.846,0.773c-2.361,0.176-4.758,0.267-7.057,0.882c-1.992,0.533-3.882,1.439-5.901,1.866
			c-1.272,0.27-2.578,0.164-3.857,0.366c-2.14,0.337-4.276,0.973-6.383,1.482c-1.874,0.454-4.706,1.191-5.862,2.925
			c-0.252,0.376-0.338,0.794-0.656,1.124c-0.308,0.32-0.721,0.526-1.026,0.854c-0.368,0.395-0.603,0.886-0.909,1.325
			c-0.836,1.196-2.396,1.505-3.062,2.831c-0.428,0.853-0.606,1.685-1.308,2.364c-0.9,0.873-1.96,1.483-2.771,2.459
			c-1.122,1.351-2.244,2.862-3.055,4.423c-0.671,1.291-0.897,2.765-1.312,4.145c-0.645,2.148-1.704,4.122-2.721,6.11
			c-1.042,2.039-2.076,4.083-3.289,6.027c-0.889,1.426-2.059,2.896-2.539,4.536c-0.241,0.824-0.292,1.724-0.728,2.479
			c-0.413,0.717-1.168,1.229-1.482,2.004c-0.222,0.545-0.074,1.08-0.059,1.655c0.064,2.424-2.748,4.478-4.212,6.016
			c-2.021,2.125-3.693,5.05-6.422,6.358c-0.783,0.377-1.413,0.729-1.995,1.377c-0.598,0.665-1.161,1.217-2.005,1.549
			c-1.286,0.507-2.704,0.585-3.979,1.134C577.981,423.046,577.078,423.814,576.181,424.595z"/>
	</g>
</g>
</svg>
