<?xml version="1.0" encoding="utf-8"?>
<!-- Generator: Adobe Illustrator 16.0.0, SVG Export Plug-In . SVG Version: 6.00 Build 0)  -->
<!DOCTYPE svg PUBLIC "-//W3C//DTD SVG 1.1//EN" "http://www.w3.org/Graphics/SVG/1.1/DTD/svg11.dtd" [
	<!ENTITY ns_flows "http://ns.adobe.com/Flows/1.0/">
	<!ENTITY ns_extend "http://ns.adobe.com/Extensibility/1.0/">
	<!ENTITY ns_ai "http://ns.adobe.com/AdobeIllustrator/10.0/">
	<!ENTITY ns_graphs "http://ns.adobe.com/Graphs/1.0/">
	<!ENTITY ns_vars "http://ns.adobe.com/Variables/1.0/">
	<!ENTITY ns_imrep "http://ns.adobe.com/ImageReplacement/1.0/">
	<!ENTITY ns_sfw "http://ns.adobe.com/SaveForWeb/1.0/">
	<!ENTITY ns_custom "http://ns.adobe.com/GenericCustomNamespace/1.0/">
	<!ENTITY ns_adobe_xpath "http://ns.adobe.com/XPath/1.0/">
]>
<svg version="1.1" xmlns:x="&ns_extend;" xmlns:i="&ns_ai;" xmlns:graph="&ns_graphs;"
	 xmlns="http://www.w3.org/2000/svg" xmlns:xlink="http://www.w3.org/1999/xlink" xmlns:a="http://ns.adobe.com/AdobeSVGViewerExtensions/3.0/"
	 x="0px" y="0px" width="750px" height="750px" viewBox="0 0 750 750" enable-background="new 0 0 750 750" xml:space="preserve">
<metadata>
	<sfw  xmlns="&ns_sfw;">
		<slices></slices>
		<sliceSourceBounds  width="2152.485" height="1331.823" bottomLeftOrigin="true" y="-635.827" x="43.639"></sliceSourceBounds>
	</sfw>
</metadata>
<g id="AG-HUMANS">
</g>
<g id="N-DIMS">
</g>
<g id="N-TEXT">
</g>
<g id="AG-DIAGRAM">
</g>
<g id="AG-PEOPLE">
</g>
<g id="AG-ANIMALS">
	<g>
		<g id="POLYLINE_55_">
			<path fill="none" stroke="#FB8604" stroke-width="2" stroke-linecap="round" stroke-linejoin="round" stroke-miterlimit="10" d="
				M333.488,462.38c-2.508,3.063-4.834,6.168-6.645,9.705c-1.928,3.768-3.611,7.657-5.132,11.607
				c-3.106,8.069-5.711,16.332-7.986,24.672c-1.179,4.319-2.314,8.652-3.322,13.015c-0.468,2.024-0.916,4.058-1.252,6.108
				c-0.145,0.879-0.508,2.141-0.215,3.034c0.103,0.311,0.225,0.471,0.556,0.505c0.544,0.057,1.226-0.462,1.649-0.72
				c1.665-1.016,3.255-2.182,4.813-3.354c6.863-5.162,13.527-10.699,19.322-17.057c5.791-6.355,10.861-13.442,15.462-20.695
				c2.144-3.378,4.139-6.839,6.007-10.376"/>
		</g>
		<g id="POLYLINE_54_">
			<path fill="none" stroke="#FB8604" stroke-width="2" stroke-linecap="round" stroke-linejoin="round" stroke-miterlimit="10" d="
				M359.641,417.319c2.087,6.999,1.959,14.854-0.52,21.759c-1.387,3.864-3.467,7.441-4.598,11.402
				c-1.113,3.901-1.467,7.882-1,11.913c0.523,4.522,1.668,9.001,2.591,13.45c0.835,4.021,1.783,8.01,2.795,11.988
				c2.143,8.428,4.683,16.764,6.579,25.254c0.939,4.204,1.688,8.425,2.104,12.716c0.393,4.062,0.664,8.29,0.178,12.354
				c-0.053,0.447-0.162,0.905,0.35,0.973c0.463,0.061,1.094-0.474,1.416-0.723c0.984-0.764,1.744-1.787,2.412-2.828
				c1.857-2.896,3.188-6.134,4.501-9.303c2.212-5.339,4.423-10.678,6.635-16.017c3.06-7.39,6.144-14.786,8.258-22.513
				c2.17-7.932,3.285-16.199,2.939-24.426c-0.35-8.327-2.008-16.637-4.504-24.575c-2.288-7.279-5.484-14.432-4.236-22.256
				c0.195-1.228,0.523-2.422,0.881-3.61"/>
		</g>
		<g id="POLYLINE_53_">
			<path fill="none" stroke="#FB8604" stroke-width="2" stroke-linecap="round" stroke-linejoin="round" stroke-miterlimit="10" d="
				M235.286,451.722c9.107,2.304,18.121,4.944,27.158,7.509c7.628,2.164,15.311,3.357,23.235,3.683
				c9.108,0.374,18.216,0.376,27.33,0.335c8.392-0.038,16.806-0.278,25.129-1.427c5.105-0.704,10.141-1.786,15.156-2.96"/>
		</g>
		<g id="POLYLINE_52_">
			<path fill="none" stroke="#FB8604" stroke-width="2" stroke-linecap="round" stroke-linejoin="round" stroke-miterlimit="10" d="
				M229.387,425.211c-2.989,1.601-5.851,4.06-7.821,6.828c-0.742,1.042-1.158,2.25-1.828,3.332
				c-0.838,1.354-1.942,2.541-3.029,3.698c-2.748,2.927-5.76,5.769-9.027,8.111c-3.485,2.497-7.385,3.903-11.373,5.375
				c-3.231,1.192-6.208,2.682-8.68,5.118c-2.822,2.782-5.195,6.085-7.521,9.281c-4.759,6.541-9.303,13.222-14.322,19.571
				c-3.604,4.559-7.208,9.118-10.812,13.677c-2.236,2.829-4.504,5.646-6.529,8.633c-0.479,0.706-3.174,4.2-0.712,4.224
				c1.224,0.012,2.495-0.438,3.638-0.812c2.029-0.665,4.012-1.447,5.992-2.244c4.086-1.643,8.088-3.499,12.082-5.354
				c7.956-3.693,15.789-7.66,23.496-11.848c7.4-4.021,14.598-8.484,21.173-13.762c2.955-2.372,5.764-4.976,8.194-7.889
				c2.6-3.118,4.688-6.573,6.752-10.058c2.09-3.528,4.15-7.084,6.907-10.145c2.615-2.903,5.788-5.208,9.038-7.345
				c5.072-3.336,10.482-6.256,16.195-8.332"/>
		</g>
		<g id="POLYLINE_51_">
			<path fill="none" stroke="#FB8604" stroke-width="2" stroke-linecap="round" stroke-linejoin="round" stroke-miterlimit="10" d="
				M193.444,438.691c-0.855,1.495-2.023,1.768-3.715,1.961c-4.165,0.477-8.418,0.021-12.592-0.091
				c-3.833-0.103-7.648,0.075-11.381,1.013c-4.023,1.01-7.874,2.572-11.729,4.081c-8.091,3.165-16.126,6.468-23.804,10.55
				c-2.051,1.09-4.066,2.248-6.098,3.374c-1.272,0.705-2.759,1.243-3.948,2.076c-0.371,0.261-0.611,0.531-0.52,0.999
				c0.189,0.971,1.489,1.485,2.294,1.768c3.859,1.353,8.161,1.812,12.181,2.478c8.476,1.401,17.095,2.325,25.684,2.601
				c3.356,0.107,6.724,0.173,10.075-0.07c3.266-0.235,6.431-0.92,9.615-1.649"/>
		</g>
		<g id="POLYLINE_50_">
			<path fill="none" stroke="#FB8604" stroke-width="2" stroke-linecap="round" stroke-linejoin="round" stroke-miterlimit="10" d="
				M694.565,344.839c0.367-0.457,0.314-1.044-0.038-1.501c-0.313-0.407-0.821-0.599-1.296-0.745
				c-1.74-0.534-3.602-0.716-5.379-1.109c-4.24-0.939-8.296-2.27-12.438-3.544c-3.263-1.004-6.524-1.651-9.93-1.059
				c-1.91,0.333-3.779,0.822-5.707,1.063c-2.046,0.255-4.108,0.402-6.161,0.583c-4.592,0.405-9.175,0.861-13.752,1.407
				c-8.859,1.057-17.631,2.83-26.384,4.528c-8.212,1.593-16.404,3.331-24.533,5.306c-8.597,2.089-17.17,4.318-25.562,7.133
				c-8.595,2.884-17.083,6.052-25.595,9.171c-7.952,2.914-15.881,5.896-23.931,8.531c-8.591,2.812-17.244,5.366-25.993,7.637
				c-7.917,2.054-15.903,3.767-24.011,4.859c-9.083,1.224-18.111,2.663-27.3,2.621c-8.75-0.041-17.482-1.062-26.156-2.118
				c-9.044-1.102-18.071-2.338-27.104-3.521c-8.131-1.065-16.384-1.575-24.573-1.916c-8.734-0.364-17.482-0.622-26.225-0.604
				c-9.246,0.02-18.479,0.12-27.72,0.429c-8.55,0.284-17.111,0.723-25.633,1.48c-8.594,0.764-17.18,1.625-25.725,2.828
				c-9.18,1.293-18.316,2.793-27.441,4.423c-8.416,1.503-16.806,3.197-25.156,5.023c-8.199,1.792-16.413,3.67-24.449,6.104
				c-8.697,2.634-17.319,5.152-26.242,6.918c-9.278,1.836-18.631,3.268-27.962,4.806c-8.107,1.337-16.214,2.83-24.376,3.796
				c-8.56,1.012-17.21,1.536-25.823,1.772c-2.166,0.059-4.332,0.11-6.5,0.113c-1.842,0.003-3.791-0.142-5.619,0.165
				c-0.429,0.071-1.432,0.235-1.525,0.824c-0.061,0.386,0.295,0.565,0.598,0.711c1.301,0.627,2.984,0.788,4.374,1.096
				c2.521,0.56,5.042,1.119,7.562,1.679c8.449,1.876,16.954,3.314,25.544,4.362c8.537,1.04,17.125,1.801,25.713,2.258
				c8.906,0.474,17.815,0.77,26.735,0.633c4-0.062,7.994-0.26,11.984-0.538c4.546-0.317,9.145-0.841,13.707-0.841
				c4.111,0,8.101,1.01,11.645,3.132c2.814,1.686,4.64,4.573,7.56,6.124c2.375,1.263,5.073,1.531,7.704,1.841
				c1.84,0.217,3.68,0.421,5.479,0.885c1.842,0.475,3.629,1.109,5.428,1.723"/>
		</g>
		<g id="POLYLINE_49_">
			<path fill="none" stroke="#FB8604" stroke-width="2" stroke-linecap="round" stroke-linejoin="round" stroke-miterlimit="10" d="
				M390.032,439.557c1.788-0.924,3.573-1.843,5.271-2.927c1.746-1.115,3.28-2.512,4.926-3.763c2.37-1.8,4.834-2.538,7.794-2.819
				c8.729-0.828,17.349-1.711,25.915-3.659c8.552-1.944,16.941-4.548,25.405-6.833c8.301-2.241,16.661-4.026,24.801-6.845
				c8.018-2.776,15.967-5.783,23.834-8.958c8.214-3.313,16.426-6.633,24.573-10.107c7.775-3.317,15.559-6.62,23.262-10.103
				c8.856-4.004,17.676-8.104,26.622-11.906c7.871-3.346,15.995-5.996,24.222-8.312c8.619-2.426,17.339-4.443,26.09-6.328
				c3.87-0.834,7.781-1.611,11.723-2.017c4.512-0.464,8.991-0.332,13.518-0.25c3.965,0.072,7.778-0.297,11.587-1.436
				c4.034-1.205,7.957-2.644,12.079-3.549c1.887-0.415,3.789-0.767,5.707-1.004c1.47-0.181,3.001-0.278,4.409-0.776
				c1.032-0.365,2.893-1.304,3.088-2.547c0.052-0.326,0.005-0.512-0.321-0.577c-0.458-0.092-1.259,0.452-1.739,0.56
				c-1.369,0.308-2.818,0.286-4.212,0.275c-2.188-0.017-4.37-0.129-6.552-0.284c-2.02-0.144-4-0.53-6.011-0.728
				c-2.803-0.275-5.777,0.306-8.301,1.541c-1.185,0.58-2.281,1.319-3.301,2.153"/>
		</g>
	</g>
</g>
<g id="AG-OUTLINE">
	<g id="POLYLINE_48_">
		
			<path fill="none" stroke="#FB8604" stroke-width="2.5" stroke-linecap="round" stroke-linejoin="round" stroke-miterlimit="10" d="
			M390.032,439.557c2.395,7.974,3.971,16.21,4.276,24.541c0.306,8.316-1.039,16.599-3.229,24.598
			c-2.104,7.689-5.302,15.055-8.347,22.404c-2.166,5.229-4.331,10.459-6.497,15.688c-1.309,3.158-2.664,6.418-4.596,9.254
			c-0.655,0.961-1.412,1.897-2.378,2.563c-0.264,0.182-0.812,0.599-1.183,0.524c-0.691-0.139-0.263-1.318-0.22-1.751
			c0.402-4.084,0.064-8.331-0.349-12.401c-0.428-4.218-1.203-8.392-2.164-12.519c-1.986-8.539-4.486-16.948-6.646-25.443
			c-0.691-2.722-1.338-5.451-1.955-8.19c-4.141,7.84-9.01,15.209-14.289,22.322c-5.053,6.809-10.844,12.901-17.271,18.421
			c-3.275,2.814-6.67,5.499-10.146,8.06c-1.432,1.056-2.894,2.155-4.46,3.007c-0.295,0.16-0.779,0.459-1.148,0.39
			s-0.463-0.334-0.527-0.683c-0.234-1.256,0.232-2.771,0.449-3.989c0.384-2.164,0.896-4.304,1.391-6.444
			c1.962-8.494,4.411-16.891,7.059-25.193c2.545-7.977,5.47-16.065,9.472-23.44c1.746-3.22,3.901-6.067,6.215-8.895
			c-9.057,0.849-18.131,0.857-27.22,0.898c-8.389,0.038-16.818-0.017-25.188-0.651c-4.236-0.321-8.433-0.886-12.578-1.819
			c-3.789-0.853-7.514-1.99-11.248-3.05c-4.674-1.326-9.339-2.695-14.025-3.979c-2.133-0.584-4.276-1.13-6.42-1.672
			c-0.504-0.128-1.008-0.255-1.512-0.383c-0.105-0.026-0.704,0.837-0.791,0.946c-0.572,0.725-1.114,1.473-1.632,2.237
			c-2.382,3.518-4.343,7.296-6.65,10.86c-2.093,3.232-4.454,6.219-7.201,8.924c-5.8,5.714-12.738,10.413-19.75,14.506
			c-7.606,4.44-15.417,8.56-23.359,12.371c-7.782,3.735-15.617,7.647-23.804,10.434c-0.557,0.189-5.812,2.388-5.371,0.036
			c0.18-0.963,0.864-1.915,1.377-2.708c1.057-1.632,2.234-3.188,3.418-4.727c2.759-3.587,5.588-7.119,8.393-10.668
			c5.45-6.894,10.797-13.809,15.892-20.97c1.229-1.729,2.459-3.458,3.688-5.187c-4.076,0.934-8.076,1.654-12.266,1.779
			c-4.16,0.124-8.352-0.021-12.501-0.321c-8.867-0.641-17.659-1.727-26.4-3.356c-1.895-0.354-3.817-0.688-5.668-1.229
			c-0.76-0.223-1.574-0.486-2.219-0.964c-0.416-0.309-0.967-0.873-0.794-1.455c0.054-0.182,0.185-0.308,0.319-0.433
			c0.259-0.238,0.625-0.394,0.937-0.545c0.976-0.476,1.933-0.979,2.886-1.497c3.761-2.048,7.457-4.203,11.319-6.059
			c7.877-3.785,16.027-7.026,24.207-10.09c3.564-1.335,7.265-2.478,11.064-2.861c4.229-0.428,8.496-0.127,12.73,0.035
			c1.864,0.072,3.74,0.092,5.603-0.04c1.104-0.077,2.341-0.163,3.374-0.617c0.489-0.215,0.832-0.52,1.094-0.982
			c0.234-0.414,0.262-0.329-0.016-0.613c-0.211-0.216-0.573-0.369-0.822-0.547c-0.578-0.414-1.119-0.875-1.644-1.354
			c-1.226-1.12-2.312-2.388-3.677-3.348c-1.533-1.078-3.29-1.875-5.053-2.492c-3.964-1.389-8.002-1.246-12.131-0.976
			c-8.578,0.562-17.121,1.251-25.725,1.206c-9.015-0.046-18.004-0.412-26.999-0.985c-8.751-0.558-17.486-1.47-26.174-2.651
			c-9.023-1.228-17.867-3.189-26.756-5.141c-1.538-0.337-3.125-0.605-4.637-1.06c-0.318-0.095-0.937-0.234-1.141-0.562
			c-0.145-0.229-0.117-0.395,0.033-0.615c0.199-0.291,0.64-0.417,0.953-0.499c1.275-0.335,2.673-0.247,3.978-0.249
			c4.345-0.007,8.687-0.075,13.027-0.283c8.886-0.427,17.757-1.021,26.565-2.298c8.926-1.293,17.822-2.878,26.72-4.345
			c8.561-1.411,17.105-2.819,25.594-4.622c8.561-1.817,16.83-4.69,25.242-7.062c8.521-2.402,17.205-4.248,25.861-6.086
			c8.673-1.842,17.392-3.449,26.119-5.008c8.459-1.512,16.971-2.767,25.494-3.855c8.871-1.134,17.768-1.969,26.685-2.656
			c8.848-0.681,17.718-0.975,26.583-1.27c8.38-0.279,16.786-0.267,25.168-0.17c9.126,0.104,18.237,0.337,27.352,0.821
			c7.85,0.416,15.674,1.154,23.467,2.176c9.446,1.237,18.892,2.627,28.367,3.637c8.608,0.917,17.305,1.801,25.973,1.409
			c8.775-0.397,17.56-1.819,26.238-3.106c8.455-1.256,16.824-3.381,25.063-5.628c8.701-2.374,17.295-5.057,25.835-7.955
			c8.81-2.99,17.508-6.319,26.242-9.521c7.628-2.795,15.242-5.635,23.016-8.005c8.361-2.549,16.811-4.738,25.33-6.689
			c9.011-2.064,18.063-3.876,27.138-5.636c8.101-1.571,16.261-2.902,24.47-3.75c4.516-0.467,9.042-0.812,13.559-1.267
			c3.574-0.36,7.101-1.668,10.713-1.444c3.774,0.234,7.295,1.714,10.867,2.818c4.096,1.265,8.264,2.031,12.44,2.949
			c0.955,0.21,3.144,1.068,2.054,2.427c0.385,0.016,0.332,0.451,0.252,0.714c-0.395,1.296-2.204,2.162-3.387,2.523
			c-1.624,0.496-3.371,0.559-5.043,0.794c-1.951,0.274-3.889,0.668-5.806,1.118c-4.103,0.964-8.013,2.495-12.068,3.61
			c-3.824,1.052-7.673,1.183-11.615,1.111c-4.533-0.083-8.988-0.142-13.5,0.395c-4.119,0.49-8.188,1.361-12.239,2.233
			c-4.327,0.932-8.654,1.877-12.947,2.955c-8.533,2.145-17.017,4.436-25.335,7.313c-7.536,2.606-14.813,5.877-22.073,9.159
			c-9.041,4.087-18.081,8.162-27.172,12.139c-8.114,3.549-16.3,6.933-24.479,10.33c-7.68,3.189-15.42,6.301-23.214,9.203
			c-8.146,3.034-16.327,6.117-24.787,8.177c-9.146,2.227-18.196,4.707-27.264,7.235c-7.948,2.218-15.966,3.976-24.15,5.043
			c-4.241,0.553-8.524,0.724-12.763,1.275c-2.946,0.384-5.177,1.415-7.486,3.273c-1.492,1.199-2.955,2.429-4.584,3.441
			C393.329,437.862,391.68,438.706,390.032,439.557z"/>
	</g>
</g>
</svg>
