<?xml version="1.0" encoding="utf-8"?>
<!-- Generator: Adobe Illustrator 16.0.0, SVG Export Plug-In . SVG Version: 6.00 Build 0)  -->
<!DOCTYPE svg PUBLIC "-//W3C//DTD SVG 1.1//EN" "http://www.w3.org/Graphics/SVG/1.1/DTD/svg11.dtd" [
	<!ENTITY ns_flows "http://ns.adobe.com/Flows/1.0/">
	<!ENTITY ns_extend "http://ns.adobe.com/Extensibility/1.0/">
	<!ENTITY ns_ai "http://ns.adobe.com/AdobeIllustrator/10.0/">
	<!ENTITY ns_graphs "http://ns.adobe.com/Graphs/1.0/">
	<!ENTITY ns_vars "http://ns.adobe.com/Variables/1.0/">
	<!ENTITY ns_imrep "http://ns.adobe.com/ImageReplacement/1.0/">
	<!ENTITY ns_sfw "http://ns.adobe.com/SaveForWeb/1.0/">
	<!ENTITY ns_custom "http://ns.adobe.com/GenericCustomNamespace/1.0/">
	<!ENTITY ns_adobe_xpath "http://ns.adobe.com/XPath/1.0/">
]>
<svg version="1.1" xmlns:x="&ns_extend;" xmlns:i="&ns_ai;" xmlns:graph="&ns_graphs;"
	 xmlns="http://www.w3.org/2000/svg" xmlns:xlink="http://www.w3.org/1999/xlink" xmlns:a="http://ns.adobe.com/AdobeSVGViewerExtensions/3.0/"
	 x="0px" y="0px" width="750px" height="750px" viewBox="0 0 750 750" enable-background="new 0 0 750 750" xml:space="preserve">
<metadata>
	<sfw  xmlns="&ns_sfw;">
		<slices></slices>
		<sliceSourceBounds  width="2129.493" height="1305.293" bottomLeftOrigin="true" y="-612.297" x="55.682"></sliceSourceBounds>
	</sfw>
</metadata>
<g id="N-DIMS">
</g>
<g id="N-TEXT">
</g>
<g id="AG-DIAGRAM">
</g>
<g id="AG-PEOPLE">
</g>
<g id="AG-ANIMALS">
	<g>
		<g id="POLYLINE_190_">
			<path fill="none" stroke="#FB8604" stroke-width="2" stroke-linecap="round" stroke-linejoin="round" stroke-miterlimit="10" d="
				M169.006,401.582c-0.667-0.426-1.425-0.773-2.208-0.913c-0.928-0.165-1.756,0.148-2.668,0.265
				c-0.902,0.115-1.82-0.073-2.683-0.331c-1.103-0.328-2.136-1.064-3.265-1.248c-0.557-0.092-1.086,0.146-1.639,0.095
				c-0.799-0.075-1.514-0.685-2.179-1.06c-0.739-0.417-1.522-0.687-2.375-0.729c-0.687-0.033-1.364,0.241-2.031,0.188
				c-1.502-0.117-2.394-1.95-3.843-2.188c-0.18-0.029-0.352,0.074-0.536,0.032c-0.843-0.192-1.723-1.287-2.323-1.801
				c-0.863-0.74-1.811-1.659-3.009-1.427c-0.886,0.171-1.031,0.037-1.633-0.765c-0.937-1.244-1.782-2.423-2.995-3.419
				c-1.531-1.258-3.275-2.273-5.028-3.192c-4.167-2.18-8.429-4.095-12.823-5.766c-2.468-0.938-4.952-1.845-7.393-2.854
				c-2.136-0.882-4.228-1.885-6.4-2.67c-2.81-1.014-5.41-1.087-8.292-0.305c-2.369,0.643-4.698,1.386-7.086,1.955
				c-2.269,0.545-4.606,0.931-6.821,1.676c-1.031,0.348-1.872,0.907-2.829,1.409c-1.272,0.667-2.742,0.667-4.129,0.925
				c-0.57,0.104-1.243,0.223-1.705,0.608c-0.395,0.329-0.559,0.846-0.945,1.188c-0.932,0.818-2.472,1.117-3.59,1.5
				c-1.401,0.48-2.825,1.014-4.063,1.84c-2.138,1.424-2.323,3.577-3.379,5.732c-0.484,0.985-1.348,1.666-1.936,2.578
				c-0.562,0.872-0.779,1.9-0.775,2.929c0.005,1.337,0.469,2.457,0.988,3.664c0.292,0.681,0.563,1.375,0.496,2.127
				c-0.202,2.253-2.536,3.73-2.754,5.946c-0.132,1.32,0.992,2.277,2.029,2.887c1.555,0.911,3.335,1.383,4.979,2.102
				c1.254,0.549,2.346,1.277,3.391,2.158c0.934,0.788,1.848,1.631,2.946,2.186c1.296,0.653,2.752,0.91,4.062,1.535
				c1.273,0.606,2.349,1.553,3.443,2.424c1.629,1.3,3.398,2.363,5.256,3.302c2.378,1.2,4.827,2.25,7.26,3.329
				c1.498,0.667,2.986,1.293,4.596,1.631c4.512,0.951,9.242,0.679,13.777,0.051c4.562-0.629,9.189-1.609,13.592-2.972
				c4.16-1.286,7.76-3.745,11.823-5.238c3.663-1.346,7.651-1.383,11.494-1.015c4.284,0.407,8.531,1.115,12.767,1.875
				c10.189,1.825,20.356,3.698,30.627,5.016c10.032,1.289,20.081,2.423,30.171,3.149c9.969,0.719,19.979,1.267,29.977,1.304
				c9.934,0.033,19.893-0.033,29.786-1.02c10.03-1,20.02-2.6,30.098-3.039c10.104-0.441,20.286,0.129,30.391,0.32
				c8.926,0.17,17.396,3.367,24.727,8.385c4.062,2.779,8.104,5.192,12.668,7.069c4.486,1.845,9.095,3.438,13.737,4.845
				c1.579,0.479,3.164,0.927,4.756,1.359"/>
		</g>
		<g id="POLYLINE_189_">
			<path fill="none" stroke="#FB8604" stroke-width="2" stroke-linecap="round" stroke-linejoin="round" stroke-miterlimit="10" d="
				M317.471,516.87c-0.12-0.878,0.978-1.801,1.552-2.313c1.094-0.982,2.481-1.879,4.014-1.645c1.229,0.188,5.586,2.33,4.349,4.195
				c-0.909,1.374-3.279,0.979-4.592,0.75c-0.949-0.166-1.889-0.34-2.85-0.404c-0.59-0.041-1.292,0.016-1.87-0.163
				c-0.198-0.061-0.419-0.109-0.544-0.29C317.5,516.958,317.487,516.915,317.471,516.87z"/>
		</g>
		<g id="POLYLINE_188_">
			<path fill="none" stroke="#FB8604" stroke-width="2" stroke-linecap="round" stroke-linejoin="round" stroke-miterlimit="10" d="
				M317.304,508.844c0.063-0.249,0.539-0.308,0.718-0.35c0.911-0.219,1.743-0.306,2.596-0.72c1.816-0.88,3.173-1.661,5.07-0.437
				c2.045,1.321,1.433,3.064-0.794,3.646c-1.945,0.509-4.291,0.398-6.073-0.576C318.345,510.145,317.203,509.546,317.304,508.844z"
				/>
		</g>
		<g id="POLYLINE_187_">
			<path fill="none" stroke="#FB8604" stroke-width="2" stroke-linecap="round" stroke-linejoin="round" stroke-miterlimit="10" d="
				M328.704,518.412c1.855-0.168,4.741,0.097,5.847-1.884c0.196-0.352,0.266-0.677,0.048-1.028c-0.547-0.884-2.049-0.776-2.873-0.52
				c-0.682,0.212-1.257,0.568-1.754,1.077c-0.412,0.424-0.785,0.846-1.245,1.218c-0.191,0.153-1.299,0.757-1.34,1.086
				C327.332,518.812,328.358,518.448,328.704,518.412z"/>
		</g>
		<g id="POLYLINE_186_">
			<path fill="none" stroke="#FB8604" stroke-width="2" stroke-linecap="round" stroke-linejoin="round" stroke-miterlimit="10" d="
				M321.554,513.006c-0.348-0.804,0.039-1.45,0.844-1.751"/>
		</g>
		<g id="POLYLINE_185_">
			<path fill="none" stroke="#FB8604" stroke-width="2" stroke-linecap="round" stroke-linejoin="round" stroke-miterlimit="10" d="
				M320.36,507.895c0.719-1.184,1.095-2.482,1.74-3.696c0.638-1.2,1.734-1.977,2.63-2.965c1.624-1.792,1.172-3.579,1.054-5.838
				c-0.169-3.174,1.398-5.756,2.629-8.586c0.504-1.156,0.671-2.382,1.081-3.564c0.526-1.521,1.459-2.867,1.98-4.396
				c1.402-4.118,1.237-8.75,1.634-13.027c0.283-3.042,0.633-6.379,2.463-8.941c2.126-2.978,5.597-5.359,8.789-7.055
				c3.74-1.982,8.003-2.646,11.752-4.612c1.719-0.902,3.349-1.995,4.668-3.434c1.608-1.749,2.932-3.479,4.771-5.011"/>
		</g>
		<g id="POLYLINE_184_">
			<path fill="none" stroke="#FB8604" stroke-width="2" stroke-linecap="round" stroke-linejoin="round" stroke-miterlimit="10" d="
				M327.466,516.979c0.406,0.138,0.803,0.274,1.231,0.32"/>
		</g>
		<g id="POLYLINE_183_">
			<path fill="none" stroke="#FB8604" stroke-width="2" stroke-linecap="round" stroke-linejoin="round" stroke-miterlimit="10" d="
				M334.275,516.894c1.805-0.339,3.583-0.894,5.196-1.785c1.585-0.88,2.743-2.072,4.033-3.321c1.552-1.502,3.78-1.865,5.23-3.471
				c0.985-1.093,1.632-2.442,2.293-3.741c0.874-1.723,1.979-3.316,2.695-5.116c1.701-4.266,2.189-8.876,2.747-13.395
				c0.38-3.081,0.581-6.278,2.328-8.943c1.448-2.208,3.604-4.788,6.165-5.73c1.731-0.638,3.656-0.82,5.461-1.135
				c2.091-0.364,4.135-0.899,6.148-1.57c4.545-1.513,8.797-3.642,13.14-5.637c2.845-1.304,5.802-2.24,8.324-4.133"/>
		</g>
		<g id="POLYLINE_182_">
			<path fill="none" stroke="#FB8604" stroke-width="2" stroke-linecap="round" stroke-linejoin="round" stroke-miterlimit="10" d="
				M424.612,525.548c-0.867-0.615-1.79-1.821-1.554-2.961c0.244-1.17,1.775-1.573,2.76-1.8c1.469-0.337,3.871-0.69,5.139,0.39
				c1.036,0.882,0.771,2.506,1.511,3.602c0.271,0.402,5.934,5.6,3.145,5.516c-1.73-0.055-3.559-1.131-5.094-1.808
				C428.534,527.614,426.392,526.813,424.612,525.548z"/>
		</g>
		<g id="POLYLINE_181_">
			<path fill="none" stroke="#FB8604" stroke-width="2" stroke-linecap="round" stroke-linejoin="round" stroke-miterlimit="10" d="
				M438.507,527.667c-1.052-1.395-1.289-3.308-1.219-5.01c0.049-1.169,0.253-2.73,1.316-3.44c1.075-0.716,2.599-0.389,3.68,0.13
				c1.566,0.75,2.581,2.141,3.229,3.711c0.768,1.857,1.572,3.828,2.045,5.78c0.069,0.285,0.21,0.721,0.059,1.012
				c-0.213,0.854-2.634,0.381-3.049,0.331C442.44,529.922,439.882,529.509,438.507,527.667z"/>
		</g>
		<g id="POLYLINE_180_">
			<path fill="none" stroke="#FB8604" stroke-width="2" stroke-linecap="round" stroke-linejoin="round" stroke-miterlimit="10" d="
				M451.223,516.041c-0.571-0.668-1.199-1.23-2.12-1.039c-0.738,0.153-1.206,0.632-1.336,1.359
				c-0.266,1.485,0.135,3.257,0.363,4.723c0.127,0.819,0.338,1.643,0.704,2.39c0.642,1.303,1.629,2.37,2.483,3.53
				c0.48,0.65,0.791,1.464,1.495,1.909c0.795,0.504,2.719,1.041,3.596,0.45c0.75-0.507,0.647-1.903,0.544-2.654
				c-0.23-1.668-1.036-3.255-1.819-4.72C454.024,519.915,452.759,517.831,451.223,516.041z"/>
		</g>
		<g id="POLYLINE_179_">
			<path fill="none" stroke="#FB8604" stroke-width="2" stroke-linecap="round" stroke-linejoin="round" stroke-miterlimit="10" d="
				M451.223,516.041c-1.047-1.613-2.003-3.427-3.353-4.822c-0.678-0.702-1.533-1.202-2.174-1.941
				c-0.782-0.902-1.305-2.001-2.17-2.836c-0.586-0.567-1.393-0.976-1.822-1.69c-0.443-0.744-0.47-1.676-0.868-2.453
				c-0.575-1.127-1.437-2.126-2.327-3.01c-2.426-2.397-3.814-5.187-4.76-8.494c-0.934-3.27-0.934-6.834,0.218-10.047
				c0.755-2.105,1.692-4.092,2.18-6.287c0.564-2.545,1.127-5.09,1.692-7.633c0.981-4.432,2.81-8.516,4.104-12.844
				c1.276-4.279,1.383-8.854,1.249-13.287c-0.278-9.349-1.936-18.407-4.215-27.459"/>
		</g>
		<g id="POLYLINE_178_">
			<path fill="none" stroke="#FB8604" stroke-width="2" stroke-linecap="round" stroke-linejoin="round" stroke-miterlimit="10" d="
				M447.65,529.743c1.747-0.246,3.435-1.238,5.224-0.795"/>
		</g>
		<g id="POLYLINE_177_">
			<path fill="none" stroke="#FB8604" stroke-width="2" stroke-linecap="round" stroke-linejoin="round" stroke-miterlimit="10" d="
				M395.506,449.214c1.731,0.778,2.138,2.158,2.337,3.994c0.215,1.969-0.031,3.956,0.219,5.92c0.232,1.83,0.749,3.594,0.793,5.448
				c0.035,1.512-0.041,3.011,0.408,4.472c0.303,0.983,0.736,1.904,0.645,2.952c-0.087,1.003-0.317,1.696-0.07,2.68
				c0.45,1.79,0.74,3.571,1.001,5.399c0.741,5.172,1.603,10.343,2.045,15.553c0.31,3.654-0.252,7.604,1.114,11.084
				c0.965,2.461,2.836,4.502,2.655,7.268c-0.167,2.568-0.993,5.073-0.06,7.582c2.316,6.228,8.905,8.541,15.004,8.859
				c3.6,0.188,6.899-0.66,10.41-1.285"/>
		</g>
		<g id="POLYLINE_176_">
			<path fill="none" stroke="#FB8604" stroke-width="2" stroke-linecap="round" stroke-linejoin="round" stroke-miterlimit="10" d="
				M435.991,528.877c1.672,0.064,3.328,0.301,4.984,0.523"/>
		</g>
		<g id="POLYLINE_175_">
			<path fill="none" stroke="#FB8604" stroke-width="2" stroke-linecap="round" stroke-linejoin="round" stroke-miterlimit="10" d="
				M443.191,445.289c4.82,0.649,9.609,0.938,14.473,0.886c4.371-0.045,9.053-0.062,13.306-1.181c1.301-0.341,2.52-0.891,3.752-1.417
				"/>
		</g>
		<g id="POLYLINE_174_">
			<path fill="none" stroke="#FB8604" stroke-width="2" stroke-linecap="round" stroke-linejoin="round" stroke-miterlimit="10" d="
				M485.473,528.537c-0.869-1.061-0.31-2.798,0.179-3.89c0.806-1.811,2.593-3.739,4.483-4.408c3.928-1.393,4.582,5.52,4.333,7.829
				c-0.095,0.893-0.354,1.675-1.291,1.897c-1.334,0.316-2.995-0.107-4.314-0.263c-0.891-0.105-1.88-0.216-2.691-0.64
				C485.91,528.927,485.666,528.763,485.473,528.537z"/>
		</g>
		<g id="POLYLINE_173_">
			<path fill="none" stroke="#FB8604" stroke-width="2" stroke-linecap="round" stroke-linejoin="round" stroke-miterlimit="10" d="
				M494.396,524.763c0.285-0.771,2.941-7.844,4.976-5.711c0.703,0.737,0.976,2.062,1.264,2.98c0.63,1.996,1.542,4.07,1.868,6.15
				c0.091,0.583,0.086,1.178-0.403,1.567c-0.844,0.67-2.501,0.477-3.456,0.411c-1.574-0.107-3.211-0.142-4.293-1.405"/>
		</g>
		<g id="POLYLINE_172_">
			<path fill="none" stroke="#FB8604" stroke-width="2" stroke-linecap="round" stroke-linejoin="round" stroke-miterlimit="10" d="
				M500.87,522.771c-0.163-1.304,0.125-3.527,1.584-4.062c0.615-0.227,1.246-0.1,1.717,0.35c0.519,0.492,0.797,1.256,1.029,1.91
				c0.699,1.976,1.299,4.104,1.707,6.159c0.158,0.795,0.414,1.962-0.342,2.541c-1.035,0.792-3.238,0.459-4.33-0.035"/>
		</g>
		<g id="POLYLINE_171_">
			<path fill="none" stroke="#FB8604" stroke-width="2" stroke-linecap="round" stroke-linejoin="round" stroke-miterlimit="10" d="
				M497.604,421.305c-7.707,5.088-14.846,11.393-20.461,18.752c-2.313,3.03-4.154,6.296-5.243,9.959
				c-1.304,4.383-2.009,9.008-2.529,13.542c-0.553,4.807-1.25,9.587-1.839,14.39c-0.605,4.948-0.681,9.8-0.582,14.778
				c0.071,3.656,0.078,7.311-1.352,10.732c-0.395,0.944-0.612,1.807-0.448,2.833c0.189,1.187,0.645,2.327,0.692,3.539
				c0.096,2.388-1.501,4.491-1.956,6.783c-0.633,3.185-0.591,7.19,0.572,10.268c0.571,1.515,1.649,2.308,3.237,2.566
				c1.866,0.305,3.817,0.093,5.689,0.015c2.152-0.09,4.297,0.027,6.442,0.172c5.192,0.348,10.248,0.254,15.439-0.076"/>
		</g>
		<g id="POLYLINE_170_">
			<path fill="none" stroke="#FB8604" stroke-width="2" stroke-linecap="round" stroke-linejoin="round" stroke-miterlimit="10" d="
				M502.235,529.633"/>
		</g>
		<g id="POLYLINE_169_">
			<path fill="none" stroke="#FB8604" stroke-width="2" stroke-linecap="round" stroke-linejoin="round" stroke-miterlimit="10" d="
				M604.681,520.849c-0.145-0.978,0.271-3.003,1.194-3.582c0.536-0.337,1.213,0.068,1.684,0.352c1.371,0.828,2.484,2.166,3.01,3.678
				c0.339,0.975,0.468,2.017,0.492,3.045c0.029,1.251,0.052,2.974-0.502,4.141c-0.544,1.152-2.216,0.638-3.047,0.068"/>
		</g>
		<g id="POLYLINE_168_">
			<path fill="none" stroke="#FB8604" stroke-width="2" stroke-linecap="round" stroke-linejoin="round" stroke-miterlimit="10" d="
				M589.317,529.731c-2.489-1.122-1.396-5.007-0.234-6.753c1.606-2.408,5.1-3.073,7.158-0.855c1.485,1.604,2.464,4.013,2.779,6.151
				c0.089,0.604,0.2,1.414-0.409,1.766c-0.187,0.107-0.446,0.11-0.65,0.134c-1.312,0.157-2.672,0.152-3.991,0.164
				C592.458,530.35,590.737,530.348,589.317,529.731z"/>
		</g>
		<g id="POLYLINE_167_">
			<path fill="none" stroke="#FB8604" stroke-width="2" stroke-linecap="round" stroke-linejoin="round" stroke-miterlimit="10" d="
				M597.208,523.522c0.311-1.788,1.427-3.521,2.75-4.725c0.661-0.601,1.517-1.184,2.416-0.767c0.729,0.339,1.24,1.134,1.664,1.775
				c1.062,1.603,2.027,3.349,2.775,5.122c0.497,1.18,1.242,3.042,0.441,4.268c-0.244,0.375-0.589,0.577-1.021,0.668
				c-0.824,0.174-1.773-0.047-2.582-0.144c-1.525-0.185-3.062-0.285-4.573-0.579"/>
		</g>
		<g id="POLYLINE_166_">
			<path fill="none" stroke="#FB8604" stroke-width="2" stroke-linecap="round" stroke-linejoin="round" stroke-miterlimit="10" d="
				M608.069,517.966c-0.41-2.115-1.732-3.187-3.418-4.367c-2.895-2.029-4.241-5.637-6.064-8.543c-2.33-3.717-4.974-7.097-8.33-9.941
				c-3.793-3.219-7.489-6.443-10.894-10.08c-7.016-7.496-12.757-15.974-18.598-24.384c-1.021-1.471-2.367-2.714-2.07-4.595
				c0.261-1.666,0.839-3.303,1.304-4.916c0.63-2.193,1.253-4.386,1.918-6.567"/>
		</g>
		<g id="POLYLINE_165_">
			<path fill="none" stroke="#FB8604" stroke-width="2" stroke-linecap="round" stroke-linejoin="round" stroke-miterlimit="10" d="
				M523.167,459.311c-0.783,4.277-0.178,8.522,1.086,12.643c1.392,4.54,3.375,9.025,6.061,12.951
				c2.621,3.832,6.099,6.802,9.978,9.305c4.646,2.998,9.494,5.694,14.252,8.508c5.742,3.396,13.059,7.056,14.693,14.096
				c0.729,3.138,0.617,6.811,2.695,9.469c1.02,1.308,2.442,2.29,4.003,2.839c1.323,0.466,2.724,0.532,4.114,0.436
				c2.767-0.196,5.399-0.799,8.189-0.734"/>
		</g>
		<g id="POLYLINE_164_">
			<path fill="none" stroke="#FB8604" stroke-width="2" stroke-linecap="round" stroke-linejoin="round" stroke-miterlimit="10" d="
				M656.044,436.192c1.226,1.688,2.596,3.259,4.1,4.705c1.215,1.168,2.49,2.445,3.953,3.306c0.865,0.51,1.819,0.74,2.799,0.904
				c0.891,0.15,2.471,0.122,3.259,0.732c1.915,1.48-5.739,5.102-6.644,5.427c-4.237,1.522-9.616,0.372-13.561-1.455"/>
		</g>
		<g id="POLYLINE_163_">
			<path fill="none" stroke="#FB8604" stroke-width="2" stroke-linecap="round" stroke-linejoin="round" stroke-miterlimit="10" d="
				M613.659,420.871c4.685-0.694,9.396-1.076,14.131-1.12c4.675-0.045,9.494,0.182,14.018,1.441
				c3.305,0.921,6.127,2.611,8.431,5.152c1.272,1.402,2.326,3.039,3.709,4.335c0.367,0.342,0.771,0.668,1.27,0.78
				c0.595,0.134,1.224-0.049,1.793-0.216c2.491-0.731,4.924-1.706,7.361-2.589c4.257-1.538,8.536-2.902,13.008-3.659
				c1.913-0.325,3.807-0.681,5.702-1.09"/>
		</g>
		<g id="POLYLINE_162_">
			<path fill="none" stroke="#FB8604" stroke-width="2" stroke-linecap="round" stroke-linejoin="round" stroke-miterlimit="10" d="
				M503.067,518.596c-2.185-4.127-5.307-7.728-7.306-11.943c-1.008-2.128-1.542-4.491-1.247-6.844
				c0.209-1.671,0.828-3.239,1.222-4.868c0.377-1.553,0.252-3.154,0.464-4.728c0.558-4.134,2.354-8.287,4.221-11.981
				c1.966-3.883,4.811-7.326,6.132-11.522c0.548-1.745,1.582-2.5,3.342-3.146c3.463-1.277,7.308-1.264,10.7-2.761
				c1.678-0.743,3.109-1.926,4.693-2.834c1.837-1.053,3.823-1.855,5.811-2.58c4.652-1.703,9.421-2.991,14.222-4.198
				c4.16-1.046,8.313-2.1,12.167-4.033c3.332-1.671,7.023-3.83,9.398-6.78c1.29-1.604,2.481-2.604,4.556-2.953
				c0.733-0.125,1.533-0.175,2.243,0.086c0.441,0.161,0.837,0.559,1.322,0.591c0.349,0.023,0.66-0.163,0.958-0.323
				c0.996-0.541,1.857-1.188,3.021-1.288c2.549-0.217,4.956,1.199,7.512,1.037c1.361-0.087,2.637-0.603,3.969-0.844
				c1.229-0.225,2.462-0.084,3.698-0.019c3.752,0.204,7.317-1.438,11.037-1.229c2.594,0.146,4.876,1.771,7.132,2.888
				c1.863,0.921,3.714,1.914,5.708,2.526c2.059,0.635,4.221,0.86,6.348,1.143c4.202,0.562,7.929,2.505,12.042,3.442
				c0.993,0.228,2.057,0.481,2.941,1.016c0.869,0.526,1.291,1.387,1.985,2.092c1.045,1.062,2.604,0.631,3.909,1.094
				c1.29,0.458,2.943,1.564,4.301,0.58c0.553-0.401,0.447-0.755,0.229-1.358c-0.731-2.02,1.308-4.568,2.243-6.145
				c1.343-2.266,2.739-4.495,4.142-6.724c0.764-1.214,1.432-2.893,2.599-3.76c0.731-0.542,1.681-0.551,2.55-0.558
				c1.546-0.011,3.073,0.152,4.566,0.556c3.136,0.844,7.113,2.313,9.244,4.929c0.719,0.881,1.218,2.611,2.541,2.788
				c0.979,0.131,1.733-0.817,2.242-1.515c2.985-4.098,4.143-9.587,3.156-14.522"/>
		</g>
		<g id="POLYLINE_161_">
			<path fill="none" stroke="#FB8604" stroke-width="2" stroke-linecap="round" stroke-linejoin="round" stroke-miterlimit="10" d="
				M669.644,445.618c-0.193-5.268-2.239-9.747-5.542-13.771"/>
		</g>
		<g id="POLYLINE_160_">
			<path fill="none" stroke="#FB8604" stroke-width="2" stroke-linecap="round" stroke-linejoin="round" stroke-miterlimit="10" d="
				M659.569,431.847c2.01,1.799,4.371,3.007,5.777,5.378c0.496,0.835,1.002,1.771,1.096,2.755c0.076,0.795,0.505,1.821,0.281,2.606
				c-0.085,0.298-0.223,0.453-0.507,0.585c-0.356,0.165-0.81,0.114-1.184,0.076c-0.667-0.07-1.315,0.03-1.948,0.25"/>
		</g>
		<g id="POLYLINE_159_">
			<path fill="none" stroke="#FB8604" stroke-width="2" stroke-linecap="round" stroke-linejoin="round" stroke-miterlimit="10" d="
				M674.682,420.747c-0.78-0.77-1.376-4.486,0.518-4.299c1.416,0.139,1.856,4.045,0.8,4.686
				C675.507,421.33,675.052,421.111,674.682,420.747z"/>
		</g>
		<g id="POLYLINE_158_">
			<path fill="none" stroke="#FB8604" stroke-width="2" stroke-linecap="round" stroke-linejoin="round" stroke-miterlimit="10" d="
				M683.081,423.906c0.42-0.487,0.7-0.942,0.795-1.58c0.264-1.775-0.134-3.771-0.256-5.533c-0.117-1.704-0.25-3.39-0.724-5.034
				c-0.368-1.282-0.216-2.466-0.305-3.782c-0.168-2.501-2.089-3.773-4.031-5.057c-3.88-2.563-7.313-5.468-10.624-8.732
				c-1.901-1.875-3.766-3.797-5.745-5.589c-1.509-1.367-3.164-2.564-4.501-4.109c-3.077-3.554-5.406-7.681-8.547-11.201
				c-3.145-3.522-6.609-6.839-10.228-9.874c-1.333-1.117-2.724-2.235-4.276-3.035c-0.563-0.29-1.338-0.686-1.997-0.624
				c-0.898,0.084-0.656,0.864-0.667,1.601c-0.032,2.642-1.877,5.405-3.523,7.319c-0.603,0.697-1.302,1.21-2.057,1.732"/>
		</g>
		<g id="POLYLINE_157_">
			<path fill="none" stroke="#FB8604" stroke-width="2" stroke-linecap="round" stroke-linejoin="round" stroke-miterlimit="10" d="
				M644.988,379.512c-4.151-0.927-7.821-2.338-11.444-4.587c-4.123-2.557-8.178-5.178-12.403-7.564
				c-4.462-2.52-8.796-5.251-13.251-7.776c-1.14-0.646-3.912-2.615-5.401-1.843c-0.661,0.343-0.71,1.239-0.66,1.888
				c0.112,1.451,0.896,2.808,1.503,4.095c1,2.128,1.85,4.319,2.628,6.537c2.708,7.719,4.178,16,0.092,23.479
				c-2.167,3.967-5.263,7.347-7.592,11.218c-2.203,3.664-3.934,7.848-6.711,11.126c-1.066,1.256-2.454,2.158-3.573,3.352
				c-0.191,0.203-0.57,0.557-0.58,0.879c-0.017,0.595,0.727,0.729,1.19,0.829c1.435,0.308,2.968,0.261,4.425,0.272
				c2.36,0.019,4.719-0.031,7.077-0.084c4.459-0.1,8.915-0.279,13.372-0.46"/>
		</g>
		<g id="POLYLINE_156_">
			<path fill="none" stroke="#FB8604" stroke-width="2" stroke-linecap="round" stroke-linejoin="round" stroke-miterlimit="10" d="
				M613.659,420.871c1.874-1.13,2.953-2.484,3.665-4.568c0.739-2.169,1.043-4.577,0.562-6.835c-0.988-4.645-5.133-7.611-9.795-7.64
				c-5.175-0.03-9.699,3.991-12.45,8.044"/>
		</g>
		<g id="POLYLINE_155_">
			<path fill="none" stroke="#FB8604" stroke-width="2" stroke-linecap="round" stroke-linejoin="round" stroke-miterlimit="10" d="
				M608.194,378.573c0.583,2.096,1.555,4.268,3.349,5.604c1.852,1.379,4.333,1.679,6.575,1.517c3.138-0.225,6.098-1.448,8.799-3.002
				c1.769-1.017,3.544-2.114,5.137-3.396c0.574-0.465,1.277-1.028,1.521-1.761c0.474-1.43-0.876-3.059-1.95-3.808"/>
		</g>
		<g id="POLYLINE_154_">
			<path fill="none" stroke="#FB8604" stroke-width="2" stroke-linecap="round" stroke-linejoin="round" stroke-miterlimit="10" d="
				M450.299,322.523c-0.761-0.791,0.156-2.439,0.435-3.188c0.83-2.217,1.535-4.82,0.859-7.183c-0.305-1.063-1.072-1.753-1.543-2.718
				c-0.076-0.156-0.219-0.357-0.181-0.548c0.146-0.716,1.537-0.707,2.018-0.736c6.41-0.381,11.87,3.137,15.147,8.491
				c0.736,1.201,2.061,3.313,1.336,4.796c-0.471,0.967-1.715,1.157-2.678,1.198c-1.682,0.071-3.367-0.165-5.049-0.183
				c-2.018-0.02-4.024,0.23-6.028,0.426C453.487,322.99,451.278,323.438,450.299,322.523z"/>
		</g>
		<g id="POLYLINE_153_">
			<path fill="none" stroke="#FB8604" stroke-width="2" stroke-linecap="round" stroke-linejoin="round" stroke-miterlimit="10" d="
				M482.156,324.732c-1.37-1.603,0.073-3.521,0.917-4.944c1.318-2.223,1.494-4.541,1.36-7.068c-0.149-2.831,3.425-0.795,4.558,0.087
				c1.445,1.125,2.721,2.508,3.906,3.897c1.623,1.902,3.275,3.787,4.838,5.74c0.509,0.634,2.386,2.587,1.856,3.666
				c-0.411,0.841-2.104,0.642-2.789,0.639c-2.46-0.013-4.92-0.144-7.374-0.304c-1.797-0.118-3.688-0.224-5.434-0.705
				C483.319,325.553,482.62,325.281,482.156,324.732z"/>
		</g>
		<g id="POLYLINE_152_">
			<path fill="none" stroke="#FB8604" stroke-width="2" stroke-linecap="round" stroke-linejoin="round" stroke-miterlimit="10" d="
				M518.69,331.618c-1.922-1.336-1.256-3.743-1.467-5.767c-0.159-1.515-0.634-2.995-1.215-4.395
				c-0.574-1.386-1.748-2.836-1.971-4.336c-0.32-2.174,4.036,0.399,4.582,0.756c3.395,2.209,5.628,5.93,7.974,9.121
				c1.33,1.809,2.897,3.39,4.481,4.972c0.643,0.641,1.899,1.552,2.185,2.499c0.708,2.374-9.643-0.714-10.317-0.941
				C521.491,333.04,519.956,332.502,518.69,331.618z"/>
		</g>
		<g id="POLYLINE_151_">
			<path fill="none" stroke="#FB8604" stroke-width="2" stroke-linecap="round" stroke-linejoin="round" stroke-miterlimit="10" d="
				M548.493,343.849c-0.496-0.494-0.998-1.312-0.611-2.015c0.228-0.415,0.731-0.625,1.133-0.82c0.762-0.37,1.492-0.755,1.98-1.469
				c0.635-0.932,0.832-2.099,1.232-3.131c0.136-0.352,0.317-0.851,0.67-1.059c0.762-0.453,1.707,0.41,2.223,0.875
				c2.915,2.631,5.391,6.374,7.02,9.935c0.44,0.965,1.456,3.141,0.653,4.19c-0.417,0.547-1.046,0.239-1.57-0.014
				c-1.778-0.859-3.407-1.944-5.24-2.716c-2.021-0.854-4.135-1.618-6.038-2.724C549.427,344.602,548.922,344.269,548.493,343.849z"
				/>
		</g>
		<g id="POLYLINE_150_">
			<path fill="none" stroke="#FB8604" stroke-width="2" stroke-linecap="round" stroke-linejoin="round" stroke-miterlimit="10" d="
				M579.549,361.193c-0.936-1.037-2.878-4.355-0.593-4.99c2.2-0.612,5.128,1.133,6.789,2.312c1.732,1.228,4.211,3.233,4.51,5.554
				c0.447,3.458-5.307,0.776-6.417,0.208C582.276,363.478,580.739,362.5,579.549,361.193z"/>
		</g>
		<g id="POLYLINE_149_">
			<path fill="none" stroke="#FB8604" stroke-width="2" stroke-linecap="round" stroke-linejoin="round" stroke-miterlimit="10" d="
				M554.77,335.93c4.61,1.535,9.245,3.045,13.634,5.15c4.086,1.959,7.562,4.646,11.002,7.56c3.627,3.071,7.329,5.864,11.387,8.349
				c4.181,2.561,8.47,4.966,12.792,7.281"/>
		</g>
		<g id="POLYLINE_148_">
			<path fill="none" stroke="#FB8604" stroke-width="2" stroke-linecap="round" stroke-linejoin="round" stroke-miterlimit="10" d="
				M417.925,329.749c-4.113-0.224-2.975-4.97-4.9-7.597c-1.004-1.366-2.373-2.418-3.501-3.675c-0.412-0.46-1.146-1.151-1.208-1.82
				c-0.034-0.356,0.063-0.515,0.374-0.691c0.629-0.356,1.666-0.159,2.329-0.071c1.948,0.26,3.842,0.88,5.682,1.551
				c4.309,1.573,8.843,3.607,12.534,6.37c0.645,0.483,1.915,1.361,1.796,2.333c-0.114,0.946-1.503,1.394-2.219,1.667
				C425.494,329.086,421.491,329.94,417.925,329.749z"/>
		</g>
		<g id="POLYLINE_147_">
			<path fill="none" stroke="#FB8604" stroke-width="2" stroke-linecap="round" stroke-linejoin="round" stroke-miterlimit="10" d="
				M385.866,338.415c-2.745-0.475-0.749-3.598-0.949-5.291c-0.132-1.105-0.519-2.188-0.979-3.195
				c-0.521-1.143-1.353-2.114-1.849-3.263c-0.31-0.718-0.708-2.009-0.087-2.691c0.596-0.653,1.812-0.351,2.536-0.187
				c4.287,0.972,8.508,3.219,12.351,5.289c1.079,0.581,3.828,1.636,3.98,3.229c0.108,1.136-1.256,1.931-2.069,2.41
				c-2.451,1.444-5.245,2.393-7.983,3.118C389.273,338.243,387.479,338.699,385.866,338.415z"/>
		</g>
		<g id="POLYLINE_146_">
			<path fill="none" stroke="#FB8604" stroke-width="2" stroke-linecap="round" stroke-linejoin="round" stroke-miterlimit="10" d="
				M358.331,348.955c-1.09-0.226-1.5-1.641-1.768-2.54c-0.803-2.68-1.286-5.316-3.414-7.292c-0.733-0.682-2.107-1.185-2.582-2.069
				c-0.06-0.111-0.165-0.208-0.147-0.348c0.121-0.998,3.392-1.053,3.905-1.13c4.416-0.667,8.429-0.962,12.763,0.324
				c1.804,0.535,3.621,1.224,5.229,2.215c0.673,0.415,1.494,0.938,1.852,1.68c0.328,0.686,0.094,1.338-0.429,1.847
				c-0.651,0.635-1.604,0.953-2.439,1.242c-2.008,0.693-4.006,1.31-5.847,2.395c-1.794,1.058-3.449,2.42-5.348,3.29
				C359.561,348.818,358.943,349.064,358.331,348.955z"/>
		</g>
		<g id="POLYLINE_145_">
			<path fill="none" stroke="#FB8604" stroke-width="2" stroke-linecap="round" stroke-linejoin="round" stroke-miterlimit="10" d="
				M333.466,362.429c-0.91-0.067-1.363-0.91-1.504-1.721c-0.38-2.175,0.854-4.225-0.408-6.282c-0.684-1.116-1.807-1.699-2.721-2.594
				c-0.137-0.135-0.434-0.368-0.439-0.597c-0.019-0.655,1.196-0.78,1.601-0.857c3.831-0.733,8.495-0.965,12.282,0.102
				c1.312,0.37,2.625,1.005,3.209,2.313c0.479,1.069,0.474,2.525-0.188,3.524c-0.337,0.508-0.843,0.815-1.392,1.063
				c-1.879,0.852-3.606,1.758-5.376,2.833C337.13,361.064,335.222,362.541,333.466,362.429z"/>
		</g>
		<g id="POLYLINE_144_">
			<path fill="none" stroke="#FB8604" stroke-width="2" stroke-linecap="round" stroke-linejoin="round" stroke-miterlimit="10" d="
				M312.018,373.38c-2.378-0.662-0.04-4.263-0.418-5.653c-0.37-1.369-4.696-2.677-3.085-4.348c0.377-0.39,0.948-0.538,1.464-0.62
				c1.621-0.258,3.343-0.008,4.968,0.036c2.374,0.064,4.77-0.014,7.137,0.225c0.971,0.097,2.151,0.181,2.998,0.723
				c2.446,1.565-2.306,4.816-3.232,5.489c-2.131,1.543-4.525,2.938-7.027,3.78C313.967,373.299,312.921,373.628,312.018,373.38z"/>
		</g>
		<g id="POLYLINE_143_">
			<path fill="none" stroke="#FB8604" stroke-width="2" stroke-linecap="round" stroke-linejoin="round" stroke-miterlimit="10" d="
				M251.173,392.237c1.237,1.873,5.236,0.139,5.957-1.42c1.255-2.715-3.632-4.576-5.473-4.863c-0.636-0.099-1.982-0.326-1.219,0.558
				c1.174,1.358,0.405,3.014,0.472,4.641C250.925,391.529,250.97,391.909,251.173,392.237z"/>
		</g>
		<g id="POLYLINE_142_">
			<path fill="none" stroke="#FB8604" stroke-width="2" stroke-linecap="round" stroke-linejoin="round" stroke-miterlimit="10" d="
				M267.905,380.208c0.158,0.475,0.874,0.749,1.197,1.138c0.251,0.303,0.406,0.602,0.447,0.995c0.135,1.265-0.766,2.453,0.228,3.535
				c1.838,2.002,6.853,0.814,6.631-2.25c-0.075-1.028-0.937-1.696-1.786-2.14c-1.193-0.621-2.541-0.961-3.855-1.202
				c-0.607-0.112-2.082-0.57-2.701-0.228C268.003,380.092,267.878,380.102,267.905,380.208z"/>
		</g>
		<g id="POLYLINE_141_">
			<path fill="none" stroke="#FB8604" stroke-width="2" stroke-linecap="round" stroke-linejoin="round" stroke-miterlimit="10" d="
				M290.705,380.015c0.302,0.854,1.347,1.018,2.129,1.113c2.313,0.288,5.224,0.089,7.283-1.148c1.013-0.607,1.96-1.654,1.89-2.913
				c-0.075-1.327-1.245-2.269-2.293-2.899c-2.645-1.592-6.141-2.201-9.178-2.302c-0.347-0.012-2.998-0.173-2.995,0.636
				c0,0.419,1.948,0.76,2.369,1.272c1.371,1.665,0.228,4.201,0.745,6.087C290.67,379.911,290.688,379.964,290.705,380.015z"/>
		</g>
		<g id="POLYLINE_140_">
			<path fill="none" stroke="#FB8604" stroke-width="2" stroke-linecap="round" stroke-linejoin="round" stroke-miterlimit="10" d="
				M192.437,415.152c-0.826,0.608-0.753,1.934-0.696,2.831c0.063,0.992,0.125,2.018,0.289,3c0.032,0.187,0.046,0.422,0.146,0.591
				c0.104,0.176,0.194,0.287,0.387,0.365c0.935,0.388,2.36-0.692,3.052-1.221c1.003-0.765,2.093-2.036,1.877-3.397
				C197.206,415.504,193.966,414.081,192.437,415.152z"/>
		</g>
		<g id="POLYLINE_139_">
			<path fill="none" stroke="#FB8604" stroke-width="2" stroke-linecap="round" stroke-linejoin="round" stroke-miterlimit="10" d="
				M210.101,422.292c-1.098-0.458-1.131-2.37-1.199-3.294c-0.087-1.161,0.118-2.149,1.167-2.761
				c1.403-0.818,3.739-1.123,5.215-0.352c0.985,0.516,1.924,1.703,1.694,2.881c-0.283,1.45-2.062,2.348-3.262,2.883
				C212.714,422.097,211.212,422.729,210.101,422.292z"/>
		</g>
		<g id="POLYLINE_138_">
			<path fill="none" stroke="#FB8604" stroke-width="2" stroke-linecap="round" stroke-linejoin="round" stroke-miterlimit="10" d="
				M230.101,421.919c-0.176-0.371-0.143-0.812-0.119-1.209c0.097-1.589,0.503-3.248,1.047-4.74c0.497-1.368,1.376-1.931,2.782-2.224
				c1.655-0.346,6.557-0.769,6.735,1.904c0.085,1.243-1.328,2.023-2.238,2.532c-2.089,1.17-4.221,2.29-6.376,3.333
				c-0.328,0.159-1.109,0.709-1.558,0.586C230.249,422.065,230.175,422.031,230.101,421.919z"/>
		</g>
		<g id="POLYLINE_137_">
			<path fill="none" stroke="#FB8604" stroke-width="2" stroke-linecap="round" stroke-linejoin="round" stroke-miterlimit="10" d="
				M253.075,422.002c-0.284-0.946,0.663-1.979,0.353-3.001c-0.354-1.175-1.816-1.68-2.038-2.928
				c-0.13-0.728,0.297-1.256,0.862-1.671c2.119-1.553,5.488-1.99,8.017-1.887c0.882,0.035,2.249,0.108,2.766,0.976
				c0.582,0.975-0.278,2.278-0.879,2.994c-1.885,2.253-4.676,3.945-7.301,5.185C254.518,421.829,253.413,422.512,253.075,422.002z"
				/>
		</g>
		<g id="POLYLINE_136_">
			<path fill="none" stroke="#FB8604" stroke-width="2" stroke-linecap="round" stroke-linejoin="round" stroke-miterlimit="10" d="
				M273.174,412.312c-0.398,0.412-0.516,1-0.288,1.528c0.305,0.715,1.274,0.876,1.519,1.59c0.429,1.258-1.62,3.058-2.196,3.794
				c-0.312,0.398-1.062,1.123-0.34,1.332c0.728,0.21,2.166-0.608,2.756-0.856c2.07-0.866,4.116-1.862,6.009-3.069
				c1.895-1.206,4.499-3.219,4.991-5.598c0.084-0.416,0.098-0.794-0.263-1.059c-0.343-0.25-0.931-0.199-1.315-0.188
				c-2.053,0.053-4.172,0.403-6.185,0.79C276.372,410.86,274.301,411.165,273.174,412.312z"/>
		</g>
		<g id="POLYLINE_134_">
			<path fill="none" stroke="#FB8604" stroke-width="2" stroke-linecap="round" stroke-linejoin="round" stroke-miterlimit="10" d="
				M298.819,408.325c-0.01,1.205,1.659,1.832,2.191,2.763c0.395,0.689,0.189,1.374-0.23,2.019c-0.747,1.15-2.043,1.765-2.854,2.831
				c-0.122,0.161-0.333,0.34-0.222,0.557c0.109,0.212,0.629,0.198,0.796,0.205c1.439,0.07,2.978-0.366,4.321-0.813
				c2.509-0.839,4.871-2.302,6.479-4.436c1.216-1.611,2.108-3.95,0.957-5.843c-0.635-1.04-1.711-1.365-2.886-1.315
				c-2.526,0.109-5.749,1.171-7.723,2.81C299.274,407.411,298.856,407.81,298.819,408.325z"/>
		</g>
		<g id="POLYLINE_133_">
			<path fill="none" stroke="#FB8604" stroke-width="2" stroke-linecap="round" stroke-linejoin="round" stroke-miterlimit="10" d="
				M322.972,403.462c-0.385,0.787-0.542,1.781,0.104,2.47c0.861,0.917,2.545,0.999,3,2.315c0.526,1.517-1.643,5.446,1.376,3.867
				c3.604-1.884,6.634-5.222,8.948-8.502c0.737-1.044,2.104-2.825,1.549-4.232c-0.475-1.208-2.114-1.529-3.249-1.569
				c-3.229-0.114-6.622,1.53-9.267,3.217C324.452,401.651,323.491,402.396,322.972,403.462z"/>
		</g>
		<g id="POLYLINE_132_">
			<path fill="none" stroke="#FB8604" stroke-width="2" stroke-linecap="round" stroke-linejoin="round" stroke-miterlimit="10" d="
				M347.532,392.549c-3.411,3.619,2.085,5.005,4.25,7.038c0.77,0.725,0.741,1.535,0.483,2.52c-0.093,0.356-0.939,2.062-0.169,2.285
				c0.334,0.097,0.913-0.335,1.156-0.484c1.48-0.919,2.814-2.143,4.031-3.383c2.186-2.229,4.368-4.866,5.305-7.905
				c0.379-1.228,0.62-2.789-0.151-3.921c-0.785-1.153-2.374-1.383-3.664-1.34C354.785,387.487,350.26,389.671,347.532,392.549z"/>
		</g>
		<g id="POLYLINE_130_">
			<path fill="none" stroke="#FB8604" stroke-width="2" stroke-linecap="round" stroke-linejoin="round" stroke-miterlimit="10" d="
				M384.842,378.747c-1.315-1.175-3.291-1.282-4.957-1.069c-2.927,0.374-5.76,1.81-8.057,3.615
				c-1.058,0.832-2.854,2.227-2.751,3.768c0.12,1.802,3.07,2.857,4.211,3.713c2.066,1.547,2.537,3.298,2.767,5.771
				c0.052,0.552,0.021,1.419,0.739,1.354c0.461-0.041,0.96-0.595,1.275-0.883c1.645-1.511,3.094-3.292,4.504-5.017
				c1.624-1.987,3.276-4.316,3.59-6.936C386.349,381.537,386.028,379.815,384.842,378.747z"/>
		</g>
		<g id="POLYLINE_129_">
			<path fill="none" stroke="#FB8604" stroke-width="2" stroke-linecap="round" stroke-linejoin="round" stroke-miterlimit="10" d="
				M405.425,371.626c-2.646-0.864-5.691,0.629-7.918,1.919c-0.791,0.46-2.828,1.366-2.816,2.572c0.012,1.186,2.145,2.083,2.84,2.64
				c1.467,1.174,2.183,2.507,1.816,4.38c-0.312,1.603-1.097,3.078-1.781,4.542c-0.079,0.171-0.648,1.105-0.43,1.364
				c0.625,0.735,4.429-2.766,4.873-3.124c2.389-1.933,5.884-4.053,7.034-7.089c0.708-1.867,0.051-3.958-1.177-5.453
				C407.225,372.597,406.393,371.947,405.425,371.626z"/>
		</g>
		<g id="POLYLINE_123_">
			<path fill="none" stroke="#FB8604" stroke-width="2" stroke-linecap="round" stroke-linejoin="round" stroke-miterlimit="10" d="
				M432.13,366.927c-3.934,0.188-8.049,1.357-11.361,3.526c-1.872,1.228-4.04,3.167-4.523,5.476c-0.727,3.47,4.62,2.65,6.179,4.586
				c0.928,1.154,0.44,2.959,0.09,4.228c-0.51,1.847-1.354,3.617-1.717,5.501c-0.088,0.459-0.22,1.119,0.07,1.545
				c0.578,0.848,2.104,0.346,2.851,0.125c3.338-0.986,6.979-2.663,9.524-5.098c2.688-2.568,4.071-6.243,4.788-9.819
				c0.475-2.38,0.877-5.385-0.203-7.69C436.794,367.107,434.302,366.821,432.13,366.927z"/>
		</g>
		<g id="POLYLINE_122_">
			<path fill="none" stroke="#FB8604" stroke-width="2" stroke-linecap="round" stroke-linejoin="round" stroke-miterlimit="10" d="
				M449.143,368.528c-2.429,0.107-4.691,1.637-6.256,3.413c-1.657,1.884-2.05,4.28-2.668,6.639
				c-0.688,2.618,1.086,5.337,1.447,7.905c0.418,2.993,0.122,6.219-1.257,8.939c-0.466,0.92-1.075,1.746-1.77,2.506
				c-0.707,0.771-1.494,1.455-2.285,2.139c-0.276,0.237-1.085,0.733-1.231,1.133c-0.275,0.748,1.054,0.33,1.483,0.236
				c8.319-1.799,15.801-7.515,20.064-14.796c1.565-2.674,3.171-5.971,3.161-9.148c-0.005-1.696-0.811-3.044-1.962-4.237
				C455.66,370.961,452.55,368.396,449.143,368.528z"/>
		</g>
		<g id="POLYLINE_121_">
			<path fill="none" stroke="#FB8604" stroke-width="2" stroke-linecap="round" stroke-linejoin="round" stroke-miterlimit="10" d="
				M462.765,374.805c-1.634,2.098-0.87,5.126-0.682,7.543c0.267,3.376-0.186,6.128-1.662,9.177
				c-2.114,4.369-4.622,8.635-7.193,12.749c-0.588,0.943-1.253,1.839-1.838,2.782c-0.133,0.215-0.394,0.526-0.416,0.793
				c-0.013,0.163-0.073,0.263,0.049,0.407c0.243,0.245,0.845,0.083,1.108,0.034c1.659-0.313,3.272-1.109,4.771-1.85
				c3.944-1.95,7.505-4.529,10.85-7.369c3.5-2.972,6.761-6.295,9.715-9.809c2.925-3.476,5.908-7.195,7.9-11.306
				c0.569-1.179,0.35-1.972-0.478-2.983c-2.008-2.459-5.279-4.551-8.268-5.563c-2.294-0.776-4.574-0.048-6.74,0.81
				C467.294,371.247,464.514,372.548,462.765,374.805z"/>
		</g>
		<g id="POLYLINE_120_">
			<path fill="none" stroke="#FB8604" stroke-width="2" stroke-linecap="round" stroke-linejoin="round" stroke-miterlimit="10" d="
				M576.171,409.229c-0.724,0.728-1.01,1.721-0.653,2.7c0.556,1.525,2.52,2.224,2.856,3.829c0.258,1.224-0.938,2.388-1.696,3.168
				c-0.206,0.215-2.624,2.043-1.843,2.556c0.42,0.276,1.675-0.154,2.056-0.242c2.255-0.517,4.493-1.205,6.694-1.913
				c2.468-0.791,5.069-1.819,6.804-3.838c2.433-2.831,1.535-6.367-1.843-7.929c-2.002-0.927-4.338-0.961-6.484-0.662
				C580.062,407.177,577.658,407.749,576.171,409.229z"/>
		</g>
		<g id="POLYLINE_119_">
			<path fill="none" stroke="#FB8604" stroke-width="2" stroke-linecap="round" stroke-linejoin="round" stroke-miterlimit="10" d="
				M551.354,418.992c-0.854,0.404-1.794-0.852-2.22-1.379c-2.475-3.068-4.241-7.001-5.166-10.819
				c-0.882-3.651-1.26-7.926-0.188-11.582c0.446-1.528,1.202-2.97,2.594-3.83c0.968-0.599,2.097-0.881,3.21-1.062
				c1.941-0.313,4.078-0.551,6.043-0.572c2.356-0.023,4.008,2.236,5.453,3.788c2.58,2.769,7.705,6.236,5.028,10.645
				c-1.251,2.059-3.826,3.057-5.97,3.84c-1.744,0.636-3.738,1.002-5.355,1.938c-0.422,0.245-0.76,0.547-1.012,0.966
				c-1.081,1.792-0.935,4.28-1.469,6.258C552.139,417.786,551.942,418.645,551.354,418.992z"/>
		</g>
		<g id="POLYLINE_118_">
			<path fill="none" stroke="#FB8604" stroke-width="2" stroke-linecap="round" stroke-linejoin="round" stroke-miterlimit="10" d="
				M509.546,412.434c-0.015-0.407,0.281-0.765,0.511-1.075c1.228-1.668,2.754-3.092,3.95-4.791c1.811-2.574,2.509-5.542,2.251-8.662
				c-0.147-1.789-0.598-3.533-1.136-5.239c-0.443-1.403-1.016-2.856-1.084-4.348c-0.073-1.664,0.8-2.967,2.072-3.968
				c2.735-2.149,6.326-2.573,9.621-3.27c1.739-0.365,4.336-1.135,5.959,0.058c1.844,1.355,1.95,4.245,3.18,6.066
				c1.308,1.938,3.764,3.18,4.542,5.454c0.532,1.558-0.001,3.192-0.854,4.523c-1.953,3.047-5.298,5.215-8.287,7.113
				c-3.647,2.315-7.565,4.264-11.553,5.913c-2.088,0.865-4.214,1.685-6.407,2.239c-0.638,0.161-1.733,0.545-2.396,0.28
				C509.734,412.656,509.619,412.627,509.546,412.434z"/>
		</g>
		<g id="POLYLINE_115_">
			<path fill="none" stroke="#FB8604" stroke-width="2" stroke-linecap="round" stroke-linejoin="round" stroke-miterlimit="10" d="
				M468.603,409.897c-0.127-0.438,0.334-0.856,0.608-1.139c1.336-1.379,3.031-2.46,4.566-3.598c3.489-2.586,7.205-5.208,9.68-8.851
				c2.497-3.675,3.089-7.882,3.584-12.196c0.242-2.114,0.325-5.564,2.388-6.898c2.051-1.325,4.969-0.63,7.26-1.274
				c2.488-0.702,5.097-2.421,7.76-1.504c2.421,0.836,4.249,3.099,5.578,5.179c1.349,2.111,2.723,4.803,2.533,7.399
				c-0.169,2.285-2.066,3.587-3.733,4.875c-3.649,2.813-6.735,6.231-10.646,8.724c-3.938,2.505-8.249,4.309-12.642,5.852
				c-4.296,1.51-8.751,2.883-13.262,3.574C471.521,410.156,469.205,410.731,468.603,409.897z"/>
		</g>
		<g id="POLYLINE_114_">
			<path fill="none" stroke="#FB8604" stroke-width="2" stroke-linecap="round" stroke-linejoin="round" stroke-miterlimit="10" d="
				M540.654,360.819c-1.629-1.367-7.874-6.939-3.877-9.181c1.269-0.711,2.905-0.305,4.19,0.123c3.811,1.27,7.54,3.735,10.426,6.502
				c1.35,1.295,2.543,2.853,2.845,4.742c0.197,1.221,0.141,3.063-1.169,3.687c-1.083,0.518-2.541,0.008-3.577-0.383
				C546.264,365.095,543.293,363.007,540.654,360.819z"/>
		</g>
		<g id="POLYLINE_113_">
			<path fill="none" stroke="#FB8604" stroke-width="2" stroke-linecap="round" stroke-linejoin="round" stroke-miterlimit="10" d="
				M565.48,372.332c-2.075-1.785-3.333-4.17-3.927-6.851c-0.104-0.469-0.359-1.378,0.265-1.592c0.321-0.11,0.816,0.161,1.078,0.282
				c1.696,0.789,3.259,2.028,4.758,3.132c2.47,1.818,5.78,4.096,6.75,7.204c0.917,2.95-1.752,2.314-3.569,1.394
				C568.925,374.93,567.127,373.702,565.48,372.332z"/>
		</g>
		<g id="POLYLINE_112_">
			<path fill="none" stroke="#FB8604" stroke-width="2" stroke-linecap="round" stroke-linejoin="round" stroke-miterlimit="10" d="
				M510.004,350.552c-1.265-0.486-3.756-1.394-4.228-2.924c-0.294-0.958,0.655-1.593,1.21-2.229
				c0.634-0.729,0.727-1.279,0.312-2.166c-0.246-0.526-1.868-2.659-1.188-3.431c0.568-0.664,2.222,0.77,2.596,1.025
				c3.625,2.479,7.569,5.004,10.614,8.202c0.494,0.52,1.797,1.722,1.431,2.618c-0.409,0.998-2.49,0.699-3.24,0.643
				C514.962,352.096,512.389,351.459,510.004,350.552z"/>
		</g>
		<g id="POLYLINE_111_">
			<path fill="none" stroke="#FB8604" stroke-width="2" stroke-linecap="round" stroke-linejoin="round" stroke-miterlimit="10" d="
				M478.744,345.907c-1.113-0.369-2.379-1.074-2.712-2.292c-0.388-1.425,0.971-2.567,0.86-3.971
				c-0.068-0.863-0.71-1.588-1.207-2.244c-0.171-0.226-0.663-0.727-0.607-1.079c0.146-0.938,2.531-0.468,3.011-0.415
				c3.93,0.431,8.387,1.089,11.755,3.288c1.424,0.929,2.808,2.062,3.879,3.39c0.331,0.41,0.779,0.947,0.843,1.496
				c0.047,0.407-0.078,0.65-0.398,0.908c-0.704,0.565-1.917,0.705-2.76,0.87c-2.103,0.413-4.252,0.61-6.392,0.676
				C482.94,346.597,480.736,346.555,478.744,345.907z"/>
		</g>
		<g id="POLYLINE_110_">
			<path fill="none" stroke="#FB8604" stroke-width="2" stroke-linecap="round" stroke-linejoin="round" stroke-miterlimit="10" d="
				M454.828,344.701c-1.512,0.01-3.97-0.013-5.032-1.367c-0.824-1.051-0.182-2.535-0.625-3.727
				c-0.354-0.946-1.242-1.532-1.699-2.403c-0.094-0.178-0.211-0.375-0.181-0.585c0.126-0.905,1.847-1.136,2.481-1.264
				c2.555-0.519,5.032-0.611,7.506,0.264c1.734,0.613,3.422,1.443,4.951,2.467c0.884,0.592,1.904,1.312,2.426,2.271
				C466.674,344.069,456.224,344.689,454.828,344.701z"/>
		</g>
		<g id="POLYLINE_109_">
			<path fill="none" stroke="#FB8604" stroke-width="2" stroke-linecap="round" stroke-linejoin="round" stroke-miterlimit="10" d="
				M417.368,350.306c-1.115-0.329-2.299-1.093-2.463-2.331c-0.105-0.791,0.143-1.585-0.104-2.365
				c-0.218-0.692-0.731-1.266-1.217-1.784c-0.381-0.406-2.351-1.862-1.488-2.647c0.479-0.435,1.512-0.375,2.098-0.385
				c1.969-0.033,3.96,0.274,5.883,0.668c3.094,0.634,6.737,1.557,9.158,3.733c0.585,0.526,1.283,1.326,0.888,2.158
				c-0.691,1.453-3.474,1.948-4.762,2.271C422.864,350.247,419.936,351.058,417.368,350.306z"/>
		</g>
		<g id="POLYLINE_108_">
			<path fill="none" stroke="#FB8604" stroke-width="2" stroke-linecap="round" stroke-linejoin="round" stroke-miterlimit="10" d="
				M393.073,354.961c-1.335,0.274-4.217,0.903-5.466-0.178c-0.713-0.615-0.185-1.545-0.073-2.318
				c0.123-0.847-0.156-1.288-0.864-1.767c-0.462-0.311-1.327-0.616-0.984-1.269c0.218-0.419,0.958-0.655,1.354-0.812
				c1.592-0.635,3.328-0.92,5.021-1.116c2.34-0.271,4.756-0.295,7.095-0.005c1.051,0.131,2.369,0.264,3.272,0.878
				c2.48,1.686-4.27,4.816-4.929,5.115C396.082,354.133,394.599,354.645,393.073,354.961z"/>
		</g>
		<g id="POLYLINE_107_">
			<path fill="none" stroke="#FB8604" stroke-width="2" stroke-linecap="round" stroke-linejoin="round" stroke-miterlimit="10" d="
				M374.35,355.951c-2.879-0.597-6.628-0.583-9.324,0.768c-1.558,0.779-2.988,1.973-4.456,2.916c-0.258,0.166-1.408,0.72-1.42,1.14
				c-0.018,0.738,2.672,0.498,3.283,0.717c0.826,0.297,1.362,0.979,2.07,1.464c0.658,0.45,1.395,0.608,2.187,0.633
				c2.925,0.091,6.144-1.033,8.608-2.54c0.898-0.55,2.322-1.453,2.441-2.631C377.899,356.83,375.51,356.189,374.35,355.951z"/>
		</g>
		<g id="POLYLINE_106_">
			<path fill="none" stroke="#FB8604" stroke-width="2" stroke-linecap="round" stroke-linejoin="round" stroke-miterlimit="10" d="
				M345.013,369.49c-2.924,0.512-5.651,1.964-7.807,3.993c-0.318,0.302-1.337,1.115-1.061,1.711
				c0.146,0.313,0.638,0.351,0.928,0.383c1.648,0.186,3.434-0.255,5.029-0.597c2.931-0.626,6.604-1.421,8.961-3.405
				c2.1-1.768-1.24-2.248-2.604-2.307C347.31,369.22,346.147,369.292,345.013,369.49z"/>
		</g>
		<g id="POLYLINE_105_">
			<path fill="none" stroke="#FB8604" stroke-width="2" stroke-linecap="round" stroke-linejoin="round" stroke-miterlimit="10" d="
				M307.088,387.608c-0.782-1.055,9.539-5.299,11.374-5.016c1.412,0.218,0.949,1.584,0.142,2.302
				c-1.505,1.338-3.861,1.862-5.757,2.275c-1.465,0.321-2.979,0.614-4.486,0.63C307.943,387.804,307.46,387.826,307.088,387.608z"/>
		</g>
		<g id="POLYLINE_104_">
			<path fill="none" stroke="#FB8604" stroke-width="2" stroke-linecap="round" stroke-linejoin="round" stroke-miterlimit="10" d="
				M169.006,401.582c1.292,0.926,1.228-0.873,2.403-1.044c0.695-0.103,1.41,0.254,2.026,0.511c0.986,0.409,1.888,0.627,2.966,0.517
				c1.648-0.169,3.158-0.445,4.818-0.381c0.53,0.021,1.213,0.071,1.689-0.228c1.219-0.765,0.337-3.204,2.151-3.228
				c2.012-0.025,3.396,1.928,5.203,2.498c1.084,0.342,3.005,0.656,4.008-0.038c0.998-0.691-0.218-2.109,0.935-2.732
				c1.943-1.048,4.207,0.771,5.846,1.515c0.745,0.339,1.437,0.396,2.239,0.29c1.703-0.223,3.55-0.332,5.195-0.849
				c1.717-0.541,2.218-2.196,3.626-3.136c2.113-1.411,5.066,0.105,7.217,0.6c1.405,0.323,3.612,0.968,4.971,0.054
				c0.789-0.529,1.242-1.472,1.908-2.137c0.682-0.68,1.51-1.251,2.467-1.441c2.316-0.461,4.52,1.058,6.795,1.191
				c2.504,0.146,4.255-1.766,6.405-2.711c2.864-1.257,6.129-0.103,9.117-0.991"/>
		</g>
		<g id="POLYLINE_103_">
			<path fill="none" stroke="#FB8604" stroke-width="2" stroke-linecap="round" stroke-linejoin="round" stroke-miterlimit="10" d="
				M256.063,387.923c4.468-1.652,9.071-3.003,13.448-4.895"/>
		</g>
		<g id="POLYLINE_102_">
			<path fill="none" stroke="#FB8604" stroke-width="2" stroke-linecap="round" stroke-linejoin="round" stroke-miterlimit="10" d="
				M273.738,381.094c5.389-2.437,11.372-2.818,16.837-4.991"/>
		</g>
		<g id="POLYLINE_101_">
			<path fill="none" stroke="#FB8604" stroke-width="2" stroke-linecap="round" stroke-linejoin="round" stroke-miterlimit="10" d="
				M296.702,372.912c4.414-2.493,8.923-4.74,13.625-6.637"/>
		</g>
		<g id="POLYLINE_100_">
			<path fill="none" stroke="#FB8604" stroke-width="2" stroke-linecap="round" stroke-linejoin="round" stroke-miterlimit="10" d="
				M319.604,362.877c4.259-1.491,8.584-2.841,12.538-5.052"/>
		</g>
		<g id="POLYLINE_99_">
			<path fill="none" stroke="#FB8604" stroke-width="2" stroke-linecap="round" stroke-linejoin="round" stroke-miterlimit="10" d="
				M343.717,351.025c4.04-2.538,7.864-5.394,11.907-7.924"/>
		</g>
		<g id="POLYLINE_98_">
			<path fill="none" stroke="#FB8604" stroke-width="2" stroke-linecap="round" stroke-linejoin="round" stroke-miterlimit="10" d="
				M368.4,336.327c5.127-2.333,10.466-3.981,15.665-6.111"/>
		</g>
		<g id="POLYLINE_97_">
			<path fill="none" stroke="#FB8604" stroke-width="2" stroke-linecap="round" stroke-linejoin="round" stroke-miterlimit="10" d="
				M392.767,327.001c6.644-1.717,13.271-3.284,19.797-5.421"/>
		</g>
		<g id="POLYLINE_96_">
			<path fill="none" stroke="#FB8604" stroke-width="2" stroke-linecap="round" stroke-linejoin="round" stroke-miterlimit="10" d="
				M420.947,319.212c4.54-0.89,9.199-0.978,13.8-1.294c4.799-0.33,9.409-1.364,14.121-2.258c0.973-0.185,1.947-0.349,2.926-0.499"/>
		</g>
		<g id="POLYLINE_95_">
			<path fill="none" stroke="#FB8604" stroke-width="2" stroke-linecap="round" stroke-linejoin="round" stroke-miterlimit="10" d="
				M465.572,314.559c6.3,0.249,12.553,0.873,18.797,1.728"/>
		</g>
		<g id="POLYLINE_94_">
			<path fill="none" stroke="#FB8604" stroke-width="2" stroke-linecap="round" stroke-linejoin="round" stroke-miterlimit="10" d="
				M493.816,317.769c7.393,1.187,14.878,2.11,22.198,3.704"/>
		</g>
		<g id="POLYLINE_93_">
			<path fill="none" stroke="#FB8604" stroke-width="2" stroke-linecap="round" stroke-linejoin="round" stroke-miterlimit="10" d="
				M524.593,324.271c4.441,1.919,8.798,4.021,13.354,5.667c4.849,1.753,9.683,3.551,14.557,5.231
				c0.148,0.052,0.297,0.103,0.446,0.154"/>
		</g>
	</g>
</g>
<g id="AG-OUTLINE">
	<g id="POLYLINE_3_">
		
			<path fill="none" stroke="#FB8604" stroke-width="2.5" stroke-linecap="round" stroke-linejoin="round" stroke-miterlimit="10" d="
			M169.006,401.582c-0.667-0.426-1.425-0.773-2.208-0.913c-0.928-0.165-1.756,0.148-2.668,0.265
			c-0.902,0.115-1.82-0.073-2.683-0.331c-1.103-0.328-2.136-1.064-3.265-1.248c-0.557-0.092-1.086,0.146-1.639,0.095
			c-0.799-0.075-1.514-0.685-2.179-1.06c-0.739-0.417-1.522-0.687-2.375-0.729c-0.687-0.033-1.364,0.241-2.031,0.188
			c-1.502-0.117-2.394-1.95-3.843-2.188c-0.18-0.029-0.352,0.074-0.536,0.032c-0.843-0.192-1.723-1.287-2.323-1.801
			c-0.863-0.74-1.811-1.659-3.009-1.427c-0.886,0.171-1.031,0.037-1.633-0.765c-0.937-1.244-1.782-2.423-2.995-3.419
			c-1.531-1.258-3.275-2.273-5.028-3.192c-4.167-2.18-8.429-4.095-12.823-5.766c-2.468-0.938-4.952-1.845-7.393-2.854
			c-2.136-0.882-4.228-1.885-6.4-2.67c-2.81-1.014-5.41-1.087-8.292-0.305c-2.369,0.643-4.698,1.386-7.086,1.955
			c-2.269,0.545-4.606,0.931-6.821,1.676c-1.031,0.348-1.872,0.907-2.829,1.409c-1.272,0.667-2.742,0.667-4.129,0.925
			c-0.57,0.104-1.243,0.223-1.705,0.608c-0.395,0.329-0.559,0.846-0.945,1.188c-0.932,0.818-2.472,1.117-3.59,1.5
			c-1.401,0.48-2.825,1.014-4.063,1.84c-2.138,1.424-2.323,3.577-3.379,5.732c-0.484,0.985-1.348,1.666-1.936,2.578
			c-0.562,0.872-0.779,1.9-0.775,2.929c0.005,1.337,0.469,2.457,0.988,3.664c0.292,0.681,0.563,1.375,0.496,2.127
			c-0.202,2.253-2.536,3.73-2.754,5.946c-0.132,1.32,0.992,2.277,2.029,2.887c1.555,0.911,3.335,1.383,4.979,2.102
			c1.254,0.549,2.346,1.277,3.391,2.158c0.934,0.788,1.848,1.631,2.946,2.186c1.296,0.653,2.752,0.91,4.062,1.535
			c1.273,0.606,2.349,1.553,3.443,2.424c1.629,1.3,3.398,2.363,5.256,3.302c2.378,1.2,4.827,2.25,7.26,3.329
			c1.498,0.667,2.986,1.293,4.596,1.631c4.512,0.951,9.242,0.679,13.777,0.051c4.562-0.629,9.189-1.609,13.592-2.972
			c4.16-1.286,7.76-3.745,11.823-5.238c3.663-1.346,7.651-1.383,11.494-1.015c4.284,0.407,8.531,1.115,12.767,1.875
			c10.189,1.825,20.356,3.698,30.627,5.016c10.032,1.289,20.081,2.423,30.171,3.149c9.969,0.719,19.979,1.267,29.977,1.304
			c9.934,0.033,19.893-0.033,29.786-1.02c10.03-1,20.02-2.6,30.098-3.039c10.104-0.441,20.286,0.129,30.391,0.32
			c9.224,0.176,17.769,3.598,25.309,8.784c0.209,0.143,0.417,0.286,0.625,0.429c-2.833,2.355-4.73,5.564-7.874,7.547
			c-3.577,2.26-7.714,3.007-11.549,4.664c-3.593,1.552-7.142,4.001-9.763,6.916c-1.912,2.126-2.611,4.798-2.998,7.584
			c-0.64,4.618-0.424,9.378-1.488,13.937c-0.412,1.774-1.229,3.297-2.006,4.929c-0.523,1.095-0.678,2.267-1.052,3.413
			c-0.934,2.859-2.897,5.37-3.049,8.467c-0.101,2.087,0.788,4.414-0.469,6.292c-0.739,1.104-1.892,1.841-2.694,2.89
			c-0.78,1.019-1.062,2.271-1.627,3.404c-0.305,0.612-0.548,1.095-1.221,1.317c-0.572,0.188-1.158,0.226-1.741,0.366
			c-0.206,0.048-0.627,0.098-0.718,0.35c-0.22,0.439,0.77,1.086,0.987,1.237c1.197,0.83,2.667,1.15,4.106,1.174
			c-0.805,0.301-1.191,0.947-0.844,1.751c-0.829,0.24-5.214,2.937-3.878,4.131c0.334,0.299,1.069,0.251,1.466,0.273
			c1.774,0.096,3.494,0.567,5.26,0.661c0.804,0.042,1.683-0.038,2.393-0.457c0.303-0.18,0.553-0.554,0.816-0.588
			c0.273-0.033,0.782,0.24,1.087,0.272c-0.065,0.05-1.53,0.951-1.346,1.229c0.743,0.212,2.038-0.161,2.811-0.195
			c1.157-0.049,2.339-0.164,3.34-0.801c0.562-0.359,0.787-0.631,1.47-0.781c0.905-0.199,1.8-0.457,2.664-0.792
			c1.523-0.591,2.963-1.411,4.182-2.503c1.064-0.951,1.94-2.14,3.201-2.85c0.984-0.554,2.089-0.875,2.979-1.588
			c0.762-0.611,1.348-1.414,1.851-2.242c1.091-1.795,2.065-3.72,3.064-5.571c0.921-1.705,1.508-3.579,1.983-5.451
			c1.166-4.589,1.325-9.32,2.145-13.968c0.498-2.82,1.778-5.04,3.728-7.124c0.952-1.017,1.953-2.106,3.179-2.806
			c1.068-0.607,2.287-0.853,3.482-1.079c2.245-0.425,4.498-0.746,6.707-1.347c2.204-0.6,4.354-1.392,6.474-2.24
			c4.573-1.833,8.949-4.115,13.494-6.021c1.434-0.601,2.69-1.321,3.933-2.253c0.192,1.749,0.717,3.441,0.803,5.206
			c0.076,1.599-0.071,3.209,0.375,4.766c0.282,0.98,0.765,1.929,0.705,2.972c-0.055,0.942-0.342,1.702-0.13,2.637
			c1.09,4.807,1.641,9.724,2.342,14.606c0.621,4.345,0.846,8.648,1.01,13.027c0.055,1.495,0.253,2.957,0.771,4.366
			c0.598,1.623,1.596,3.036,2.277,4.616c1.093,2.526-0.078,5.207-0.067,7.823c0.021,5.054,4.851,9.156,9.328,10.479
			c3.776,1.117,7.936,1.368,11.814,0.684c1.202-0.213,2.396-0.48,3.591-0.734c0.471-0.1,0.978-0.297,1.428-0.11
			c0.555,0.233,1.115,0.456,1.688,0.649c0.555,0.187,1.456,0.57,2.06,0.375c0.75-0.244,0.313-0.906-0.04-1.401
			c2.092,0.081,4.137,0.37,6.158,0.87c1.392,0.345,2.863,0.578,4.301,0.537c0.791-0.021,0.942-0.492,1.506-0.591
			c1.317-0.228,2.602-0.888,3.954-0.879c0.785,0.007,1.406,0.393,2.155,0.566c0.707,0.164,1.968,0.45,2.543-0.194
			c0.948-1.063,0.233-3.324-0.181-4.417c-1.514-3.999-4.255-7.264-6.552-10.803c-0.743-1.146-1.472-2.321-2.513-3.223
			c-0.825-0.715-1.575-1.286-2.208-2.182c-0.722-1.02-1.348-1.932-2.324-2.713c-0.556-0.445-1.059-0.839-1.315-1.518
			c-0.38-1.011-0.534-1.911-1.15-2.827c-0.847-1.256-1.954-2.221-2.981-3.318c-2.222-2.372-3.51-6.068-4.06-9.206
			c-0.655-3.745,0.108-6.995,1.519-10.433c1.784-4.345,2.313-9.129,3.469-13.66c0.864-3.381,2.201-6.557,3.301-9.859
			c1.05-3.147,1.479-6.431,1.579-9.739c4.82,0.649,9.609,0.938,14.473,0.886c4.371-0.045,9.053-0.062,13.306-1.181
			c1.301-0.341,2.52-0.891,3.752-1.417c-4.488,7.373-4.812,16.523-5.84,24.855c-0.598,4.83-1.528,9.621-1.863,14.484
			c-0.324,4.671,0.107,9.338-0.081,14.009c-0.07,1.734-0.247,3.536-0.807,5.191c-0.362,1.075-1.011,2.1-1.054,3.26
			c-0.074,2.025,1.107,3.839,0.621,5.89c-0.355,1.503-1.132,2.867-1.564,4.344c-0.453,1.547-0.587,3.179-0.575,4.783
			c0.019,2.349-0.006,5.822,1.615,7.785c1.295,1.567,3.773,1.449,5.593,1.393c2.335-0.073,4.645-0.194,6.981-0.068
			c2.437,0.13,4.866,0.352,7.306,0.432c2.281,0.075,4.547-0.072,6.82,0.073c0.648,0.041,1.178-0.007,1.778-0.211
			c0.882-0.296,1.544-0.159,2.414,0.031c1.409,0.31,2.954,0.458,4.395,0.353c0.581-0.042,1.032-0.246,1.57-0.387
			c0.511-0.133,1.058,0.15,1.667,0.223c0.888,0.108,2.443,0.249,3.086-0.555c0.949-1.184-0.261-3.883-0.57-5.002
			c-0.416-1.506-0.744-4.689-2.348-5.648c-0.212-0.127-0.536-0.101-0.717-0.216c-0.623-0.394-1.15-1.94-1.563-2.63
			c-0.58-0.969-1.192-1.919-1.825-2.854c-2.203-3.254-4.781-6.632-5.25-10.654c-0.298-2.567,0.545-4.827,1.169-7.289
			c0.394-1.552,0.308-3.127,0.49-4.706c0.219-1.891,0.805-3.732,1.421-5.524c1.537-4.46,3.752-8.438,6.199-12.444
			c1.065-1.742,2.023-3.584,2.676-5.523c0.215-0.635,0.306-1.279,0.748-1.799c1.623-1.901,4.882-2.271,7.139-2.731
			c3.228-0.656,6.054-1.298,8.814-3.129c-0.783,4.277-0.178,8.522,1.086,12.643c1.392,4.54,3.375,9.025,6.061,12.951
			c2.621,3.832,6.099,6.802,9.978,9.305c4.646,2.998,9.494,5.694,14.252,8.508c5.742,3.396,13.059,7.056,14.693,14.096
			c0.729,3.138,0.617,6.811,2.695,9.469c1.02,1.308,2.442,2.29,4.003,2.839c2.926,1.03,6.027,0.114,8.99-0.219
			c0.919-0.104,1.836-0.113,2.757-0.092c0.64,0.015,0.454,0.059,0.82,0.357c0.47,0.386,0.911,0.639,1.515,0.806
			c1.424,0.393,2.971,0.384,4.432,0.36c1.091-0.016,2.183-0.073,3.271-0.142c0.25-0.015,0.576-0.009,0.812-0.119
			c0.394-0.185,0.535-0.489,0.546-0.931c1.786,0.348,3.612,0.463,5.417,0.681c0.609,0.073,1.312,0.188,1.918,0
			c0.601-0.187,0.968-0.665,1.099-1.272c0.633,0.435,1.976,0.942,2.702,0.415c0.195-0.141,0.284-0.341,0.373-0.557
			c0.521-1.241,0.517-2.936,0.469-4.252c-0.072-2.038-0.658-3.932-2.1-5.417c-0.286-0.296-0.727-0.556-0.91-0.896
			c-0.22-0.413-0.254-0.964-0.466-1.399c-0.309-0.631-0.753-1.147-1.269-1.615c-1.011-0.912-2.26-1.512-3.188-2.526
			c-1.215-1.329-2.029-3.03-2.924-4.575c-2.194-3.788-4.608-7.553-7.761-10.625c-3.448-3.359-7.34-6.216-10.74-9.637
			c-3.434-3.452-6.597-7.16-9.607-10.983c-3.036-3.856-5.813-7.893-8.61-11.922c-1.438-2.071-2.885-4.139-4.314-6.218
			c-0.365-0.529-0.564-0.991-0.546-1.639c0.048-1.594,0.71-3.24,1.144-4.753c0.468-1.628,0.937-3.255,1.404-4.883
			c0.229-0.8,0.347-2.226,1.006-2.672c1.502-1.017,3-2.132,4.232-3.47c0.774-0.84,1.354-1.885,2.322-2.527
			c1.204-0.801,3.172-1.326,4.604-0.996c0.83,0.192,1.354,0.894,2.219,0.585c1.027-0.366,1.797-1.186,2.897-1.423
			c0.987-0.212,2.027-0.038,3,0.161c1.5,0.305,3.012,0.813,4.559,0.813c1.233,0,2.407-0.35,3.591-0.659
			c0.996-0.258,1.947-0.358,2.977-0.313c2.035,0.091,3.903,0.159,5.92-0.19c2.677-0.464,5.602-1.458,8.319-0.67
			c1.403,0.406,2.643,1.191,3.943,1.835c2.072,1.024,4.128,2.168,6.299,2.972c3.865,1.428,8.101,1.122,11.97,2.499
			c1.899,0.676,3.688,1.554,5.658,2.022c1.431,0.342,2.936,0.564,4.277,1.197c1.362,0.643,1.83,2.295,3.172,2.857
			c0.825,0.345,1.771,0.196,2.632,0.394c1.06,0.244,1.948,0.954,3.047,1.083c0.49,0.056,1.003,0.02,1.458-0.19
			c0.205-0.094,0.467-0.442,0.641-0.494c0.4-0.116,1.511,0.55,1.988,0.715c1.098,0.38,2.224,0.673,3.365,0.885
			c1.776,0.33,3.632,0.526,5.438,0.386c3.17-0.249,6.155-2.032,8.576-3.993c0.394-0.319,1.472-1.086,1.155-1.767
			c-0.147-0.222-0.385-0.233-0.556-0.402c-0.5-0.497-0.375-2.051-0.506-2.865c-0.158-0.985-0.387-1.962-0.686-2.914
			c-0.959-3.065-2.556-5.606-4.586-8.079c3.492,0.522,7.383,2.104,10.1,4.371c0.891,0.74,1.385,1.636,2.018,2.585
			c0.293,0.44,0.645,0.882,1.165,1.064c0.687,0.241,1.284-0.083,1.791-0.556c2.17-2.027,3.328-5.632,3.935-8.438
			c0.326-1.5,0.443-3.033,0.32-4.563c-0.053-0.655-0.497-1.807-0.349-2.404c0.068-0.27,0.473-0.579,0.601-0.864
			c0.31-0.687,0.251-1.506,0.213-2.236c-0.117-2.35-0.229-4.739-0.56-7.07c-0.172-1.194-0.676-2.33-0.738-3.534
			c-0.066-1.236,0.165-2.507-0.29-3.697c-0.322-0.843-0.955-1.5-1.635-2.069c-1.646-1.381-3.565-2.414-5.302-3.674
			c-4.01-2.908-7.45-6.591-10.966-10.059c-2.979-2.939-6.25-5.322-8.684-8.775c-2.753-3.904-5.531-7.694-8.888-11.111
			c-3.204-3.263-6.546-6.613-10.294-9.254c-0.775-0.547-3.079-2.353-4.228-1.755c-0.216,0.065-0.251,0.225-0.326,0.405
			c-0.258,0.619,0.012,1.632-0.151,2.334c-0.581,2.499-2.265,5.294-4.215,6.967c-0.141,0.12-0.286,0.234-0.437,0.346
			c-0.633,0.472-0.691,0.607-1.366,0.202c-0.914-0.548-1.833-1.095-2.763-1.619c-2.393-1.352-4.791-2.688-7.17-4.065
			c-2.315-1.341-4.589-2.758-6.879-4.141c-1.466-0.885-2.998-1.806-4.631-2.348c-0.671-0.223-1.648-0.518-2.201,0.103
			c-1.39,1.557,0.807,4.992,1.411,6.279c-4.322-2.315-8.611-4.721-12.792-7.281c-4.121-2.524-7.871-5.371-11.553-8.491
			c-3.44-2.913-6.933-5.545-11.015-7.504c-2.136-1.024-4.349-1.91-6.577-2.714c-1.074-0.388-2.149-0.775-3.232-1.136
			c-0.691-0.229-1.381-0.46-2.072-0.689c-0.453-0.151-1.228-0.249-1.607-0.551c-0.936-0.744-1.624-0.524-2.646-0.877
			c-4.731-1.633-9.442-3.342-14.137-5.086c-2.22-0.825-4.428-1.701-6.596-2.653c-1.248-0.548-2.486-1.115-3.731-1.673
			c-0.62-0.277-1.239-0.556-1.859-0.834c-0.349-0.155-0.997-0.271-1.205-0.555c-1.985-2.716-4.073-5.442-7.107-7.039
			c-0.639-0.337-2.47-1.384-3.226-0.812c-0.538,0.406-0.004,1.342,0.195,1.774c0.514,1.117,1.125,2.184,1.592,3.324
			c-5-1.088-10.095-1.762-15.144-2.572c-2.351-0.376-4.7-0.753-7.052-1.131c-0.266-0.043-0.725-0.841-0.934-1.077
			c-0.461-0.523-0.927-1.044-1.403-1.554c-0.744-0.796-1.528-1.567-2.382-2.246c-0.933-0.741-4.554-3.019-4.676-0.497
			c-0.049,1.014,0.465,2.629-0.01,3.597c-0.072,0.147,0.053,0.307-0.16,0.278c-0.376-0.052-0.753-0.104-1.129-0.154
			c-0.615-0.084-1.232-0.164-1.848-0.243c-1.151-0.146-2.305-0.286-3.459-0.411c-2.333-0.253-4.671-0.479-7.014-0.632
			c-1.184-0.077-2.369-0.158-3.556-0.205c-0.609-0.024-1.359,0.094-1.825-0.252c-0.38-0.281-0.688-0.816-1.016-1.166
			c-1.984-2.112-4.402-3.708-7.211-4.477c-1.587-0.434-3.256-0.634-4.901-0.595c-0.598,0.013-1.671-0.04-2.174,0.399
			c-0.301,0.263-0.275,0.419-0.14,0.779c0.359,0.963,1.233,1.658,1.562,2.675c0.307,0.956,0.343,1.985,0.265,2.979
			c-0.03,0.4-2.625,0.632-3.136,0.729c-1.348,0.255-2.689,0.544-4.034,0.817c-2.145,0.437-4.291,0.847-6.466,1.095
			c-4.732,0.54-9.513,0.529-14.238,1.124c-0.519,0.065-1.036,0.138-1.552,0.222c-0.34,0.054-1.196,0.365-1.502,0.228
			c-1.022-0.464-2.053-0.915-3.099-1.323c-2.037-0.794-4.129-1.533-6.291-1.893c-0.663-0.11-2.619-0.579-3.114,0.236
			c-0.144,0.234-0.062,0.474,0.021,0.714c0.655,1.861,2.928,3.24,4.164,4.663c-4.728,1.548-9.479,2.844-14.307,4.042
			c-1.278,0.317-2.557,0.635-3.834,0.952c-0.508,0.125-1.013,0.26-1.517,0.391c-0.422,0.109-1.071-0.399-1.474-0.578
			c-2.041-0.904-4.111-1.835-6.266-2.438c-0.82-0.229-2.374-0.743-3.117-0.023c-0.605,0.588-0.326,1.733-0.089,2.408
			c0.487,1.39,1.519,2.526,2.104,3.883c-4.392,1.8-8.95,3.133-13.303,5.051c-0.566,0.25-1.132,0.501-1.697,0.758
			c-0.74,0.337-0.985,0.181-1.75-0.056c-1.09-0.337-2.203-0.619-3.328-0.805c-2.07-0.342-4.145-0.337-6.223-0.086
			c-2.086,0.251-4.311,0.432-6.337,1.012c-0.226,0.064-0.812,0.179-0.943,0.453c-0.225,0.475,0.448,0.875,0.76,1.109
			c1.09,0.823,2.162,1.559,2.981,2.669c0.302,0.409,0.569,0.845,0.797,1.3c0.136,0.273,0.258,0.554,0.37,0.839
			c0.254,0.647,0.224,0.646-0.396,1.034c-2.209,1.383-4.333,2.904-6.482,4.378c-0.894,0.612-1.79,1.219-2.694,1.816
			c-0.414,0.272-0.831,0.538-1.249,0.801c-0.61,0.385-0.695,0.552-1.312,0.326c-3.408-1.247-7.271-1.052-10.824-0.738
			c-0.607,0.055-3.806-0.014-4.037,1.015c-0.031,0.14,0.035,0.22,0.079,0.343c0.316,0.843,1.664,1.388,2.283,2.004
			c0.687,0.682,1.195,1.523,1.378,2.48c0.099,0.511,0.094,1.029,0.043,1.546c-0.076,0.779-1.893,1.366-2.579,1.686
			c-1.912,0.892-3.914,1.597-5.903,2.293c-1.361,0.477-2.722,0.952-4.083,1.429c-0.368,0.129-0.954-0.019-1.357-0.025
			c-0.849-0.013-1.694-0.026-2.543-0.04c-1.81-0.028-3.656-0.269-5.462-0.082c-0.572,0.06-1.223,0.185-1.663,0.586
			c-1.331,1.21,0.944,2.389,1.737,2.965c-4.402,1.775-8.666,3.836-12.8,6.171c-0.72,0.407-0.844,0.448-1.624,0.242
			c-0.424-0.111-0.851-0.211-1.279-0.301c-0.981-0.203-1.974-0.358-2.973-0.449c-1.068-0.098-2.368-0.236-3.424,0.102
			c-0.518,0.165-0.83,0.315-0.443,0.696c0.437,0.43,1.409,0.354,1.927,0.826c0.358,0.325,0.556,0.773,0.681,1.235
			c0.075,0.273,0.257,0.84,0.173,1.117c-0.167,0.539-1.788,0.835-2.383,1.011c-2.222,0.656-4.491,1.125-6.741,1.676
			c-2.171,0.53-4.32,1.085-6.395,1.929c-0.431,0.174-0.986,0.539-1.425,0.518c-0.295-0.013-0.708-0.244-0.99-0.324
			c-0.999-0.287-2.021-0.5-3.054-0.625c-0.207-0.025-1.431-0.281-1.607-0.006c-0.327,0.109,0.693,0.825,0.604,0.749
			c0.364,0.316,0.751,0.659,0.905,1.132c0.05,0.148,0.067,0.302,0.076,0.456c0.047,0.762-0.484,0.785-1.139,1.052
			c-2.278,0.926-4.621,1.695-6.941,2.51c-1.274,0.449-2.55,0.896-3.826,1.346c-0.779,0.273-1.32,0.766-1.992,0.264
			c-0.669-0.501-1.434-0.896-2.218-1.18c-0.771-0.279-2.074-0.771-2.913-0.54c-0.87,0.239,0.141,0.763,0.394,1.342
			c0.27,0.616,0.201,1.321,0.143,1.973c-0.052,0.571-0.026,0.645-0.55,0.781c-0.293,0.076-0.589,0.145-0.887,0.198
			c-0.551,0.098-1.104,0.146-1.662,0.157c-2.219,0.037-4.359-0.34-6.417,0.652c-2.25,1.084-3.976,2.898-6.645,2.497
			c-2.104-0.317-4.35-1.678-6.524-1.057c-1.02,0.291-1.861,0.994-2.549,1.776c-0.533,0.607-0.955,1.413-1.681,1.826
			c-1.696,0.963-4.482-0.047-6.126-0.474c-2.022-0.525-4.354-1.54-6.201-0.061c-0.68,0.542-1.091,1.303-1.686,1.924
			c-0.635,0.664-1.416,0.968-2.304,1.164c-1.597,0.353-3.312,0.582-4.938,0.728c-0.869,0.079-1.596-0.192-2.353-0.598
			c-1.378-0.738-3.888-2.355-5.5-1.16c-0.587,0.436-0.341,0.981-0.339,1.647c0.009,2.135-3.78,1.348-4.959,0.834
			c-1.193-0.52-4.909-3.956-5.876-1.43c-0.311,0.809-0.189,1.98-1.085,2.419c-0.772,0.379-1.9,0.141-2.697,0.127
			c-1.451-0.023-2.856,0.442-4.301,0.456c-1.545,0.015-3.082-1.457-4.573-1.03c-0.671,0.192-0.656,0.923-1.19,1.219
			C169.664,401.987,169.325,401.812,169.006,401.582z"/>
	</g>
</g>
</svg>
