<?xml version="1.0" encoding="utf-8"?>
<!-- Generator: Adobe Illustrator 16.0.0, SVG Export Plug-In . SVG Version: 6.00 Build 0)  -->
<!DOCTYPE svg PUBLIC "-//W3C//DTD SVG 1.1//EN" "http://www.w3.org/Graphics/SVG/1.1/DTD/svg11.dtd" [
	<!ENTITY ns_flows "http://ns.adobe.com/Flows/1.0/">
	<!ENTITY ns_extend "http://ns.adobe.com/Extensibility/1.0/">
	<!ENTITY ns_ai "http://ns.adobe.com/AdobeIllustrator/10.0/">
	<!ENTITY ns_graphs "http://ns.adobe.com/Graphs/1.0/">
	<!ENTITY ns_vars "http://ns.adobe.com/Variables/1.0/">
	<!ENTITY ns_imrep "http://ns.adobe.com/ImageReplacement/1.0/">
	<!ENTITY ns_sfw "http://ns.adobe.com/SaveForWeb/1.0/">
	<!ENTITY ns_custom "http://ns.adobe.com/GenericCustomNamespace/1.0/">
	<!ENTITY ns_adobe_xpath "http://ns.adobe.com/XPath/1.0/">
]>
<svg version="1.1" xmlns:x="&ns_extend;" xmlns:i="&ns_ai;" xmlns:graph="&ns_graphs;"
	 xmlns="http://www.w3.org/2000/svg" xmlns:xlink="http://www.w3.org/1999/xlink" xmlns:a="http://ns.adobe.com/AdobeSVGViewerExtensions/3.0/"
	 x="0px" y="0px" width="750px" height="750px" viewBox="0 0 750 750" enable-background="new 0 0 750 750" xml:space="preserve">
<metadata>
	<sfw  xmlns="&ns_sfw;">
		<slices></slices>
		<sliceSourceBounds  width="8057" height="2899.35" y="-700.852" x="-4140" bottomLeftOrigin="true"></sliceSourceBounds>
	</sfw>
</metadata>
<g id="FILL-BACKGROUND">
	<rect fill="#FFFFFF" width="750" height="750"/>
</g>
<g id="N-DIMENSIONS">
</g>
<g id="N-TEXT">
</g>
<g id="AG-DIAGRAM">
</g>
<g id="AG-PEOPLE">
</g>
<g id="AG-ANIMALS">
	<g id="POLYLINE_243_">
		
			<path fill="none" stroke="#FB8604" stroke-width="2.75" stroke-linecap="round" stroke-linejoin="round" stroke-miterlimit="10" d="
			M602.898,209.044c1.787-0.983,3.618-1.919,5.285-3.103c1.678-1.192,3.055-2.725,4.675-3.982c0.723-0.561,1.759-1.326,2.698-0.807
			c0.97,0.536,1.159,1.874,1.082,2.865c-0.108,1.375-0.602,2.702-1.021,4.003c-0.618,1.917-1.094,3.869-1.653,5.803
			c-0.119,0.415-0.241,0.828-0.374,1.239"/>
	</g>
	<g id="POLYLINE_242_">
		
			<path fill="none" stroke="#FB8604" stroke-width="2.75" stroke-linecap="round" stroke-linejoin="round" stroke-miterlimit="10" d="
			M388.789,448.792c-1.009,8.012-2.01,16.009-2.613,24.062c-0.713,9.529-1.312,19.07-2.345,28.572
			c-0.821,7.564-1.831,15.109-2.775,22.659c-1.491,11.928-2.982,23.854-4.474,35.782c-0.844,6.752-1.611,13.553-3.069,20.204
			c-0.396,1.808-0.87,3.602-1.573,5.316c-0.74,1.805-1.688,3.508-2.284,5.372c-0.539,1.685-0.972,3.43-1.193,5.187
			c-0.056,0.442-0.312,1.537,0.012,1.943c0.674,0.844,2.108-2.254,2.889-2.39c0.984-0.438,0.707,4.881,0.71,4.995
			c0.017,0.676-0.035,3.472,1.169,3.509c0.873,0,1.724-1.961,2.507-1.51c0.306,0.204,0.299,0.876,0.321,1.18
			c0.123,1.678-0.077,3.365,0.159,5.037c0.454,3.211,2.496,6.42,4.697,8.718c5.088,5.311,12.781,5.586,19.678,5.426
			c2.398-0.056,4.795-0.137,7.192-0.208c1.346-0.041,2.764,0.021,4.086-0.277c0.854-0.192,1.611-0.582,1.715-1.527
			c0.165-1.518-1.12-2.916-2.134-3.86c-2.666-2.485-5.856-4.126-8.094-7.082c-2.306-3.047-4.638-6.08-6.912-9.15"/>
	</g>
	<g id="POLYLINE_241_">
		
			<path fill="none" stroke="#FB8604" stroke-width="2.75" stroke-linecap="round" stroke-linejoin="round" stroke-miterlimit="10" d="
			M413.204,621.748c1.234,0.358,2.574,0.415,3.851,0.415c0.548,0,1.194-0.016,1.68-0.31c0.701-0.425,0.802-1.336,0.656-2.08
			c-0.14-0.717-0.55-1.323-1.012-1.874c-1.312-1.566-2.818-2.99-4.276-4.418c-3.173-3.106-6.494-6.06-9.646-9.188
			c-5.639-5.596-11.165-12.039-12.418-20.141c-0.615-3.977-0.435-8.073-0.293-12.079c0.15-4.282,0.476-8.564,0.937-12.824
			c0.896-8.302,2.312-16.627,4.425-24.71c2.499-9.559,4.997-19.116,7.496-28.675c2.062-7.885,3.707-15.874,5.784-23.758
			c2.125-8.065,5.054-15.961,8.335-23.622c0.854-1.991,1.719-3.976,2.594-5.957"/>
	</g>
	<g id="POLYLINE_240_">
		
			<path fill="none" stroke="#FB8604" stroke-width="2.75" stroke-linecap="round" stroke-linejoin="round" stroke-miterlimit="10" d="
			M376.646,610.499c3.957,1.16,7.907,1.959,12.03,2.206c3.913,0.234,8.072,0.402,11.938-0.363c1.298-0.257,2.486-0.759,3.704-1.266"
			/>
	</g>
	<g id="POLYLINE_239_">
		
			<path fill="none" stroke="#FB8604" stroke-width="2.75" stroke-linecap="round" stroke-linejoin="round" stroke-miterlimit="10" d="
			M405.66,612.436c2-0.086,3.95-0.629,5.712-1.586"/>
	</g>
	<g id="POLYLINE_238_">
		
			<path fill="none" stroke="#FB8604" stroke-width="2.75" stroke-linecap="round" stroke-linejoin="round" stroke-miterlimit="10" d="
			M285.566,622.464c1.354-0.033,3.037,0.159,4.342-0.303c0.301-0.106,0.521-0.246,0.672-0.534c0.52-1.299-0.357-2.982-1.008-4.066
			c-2.01-3.351-5.096-6.032-7.841-8.758c-2.878-2.857-5.655-5.827-8.272-8.926c-5.535-6.551-10.459-13.533-14.461-21.13
			c-4.069-7.726-7.334-15.812-10.119-24.081c-2.746-8.149-5.002-16.517-6.562-24.976c-1.539-8.336-2.273-16.712-1.533-25.176
			c0.746-8.532,2.285-17.046,3.771-25.475c0.77-4.366,1.536-8.737,2.5-13.065c0.924-4.147,1.864-8.363,3.494-12.301
			c1.334-3.224,3.273-5.85,5.662-8.363"/>
	</g>
	<g id="POLYLINE_237_">
		
			<path fill="none" stroke="#FB8604" stroke-width="2.75" stroke-linecap="round" stroke-linejoin="round" stroke-miterlimit="10" d="
			M223.482,448.614c-1.793,9.457-3.586,18.914-5.378,28.37c-1.515,7.994-3.187,15.964-5.141,23.861
			c-0.777,3.14-1.454,6.111-0.739,9.327c0.903,4.057,2.799,7.879,4.463,11.661c3.441,7.82,6.67,15.723,9.613,23.745
			c3.156,8.601,6.277,17.21,9.015,25.955c1.231,3.937,2.356,7.949,3.032,12.021c0.576,3.478,0.848,7.059,2.578,10.202
			c1.574,2.859,3.98,5.765,6.742,7.554c0.861,0.558,1.861,0.875,2.663,1.522c0.556,0.448,1.005,1.021,1.403,1.608
			c1.652,2.436,2.071,5.371,2.469,8.221c0.314,2.256,0.528,4.95,2.045,6.791c1.598,1.938,4.318,2.403,6.668,2.694
			c4.317,0.533,8.672,0.612,13.016,0.701c3.402,0.07,7.244,0.405,10.545-0.604c0.787-0.24,1.681-0.626,1.816-1.534
			c0.23-1.529-1.396-2.911-2.467-3.704c-1.508-1.115-3.217-1.94-4.85-2.852c-1.826-1.021-3.492-2.208-5.064-3.587
			c-1.431-1.256-2.748-2.64-4.082-3.995"/>
	</g>
	<g id="POLYLINE_236_">
		
			<path fill="none" stroke="#FB8604" stroke-width="2.75" stroke-linecap="round" stroke-linejoin="round" stroke-miterlimit="10" d="
			M277.438,611.847c1.992-0.1,3.949-0.679,5.672-1.678"/>
	</g>
	<g id="POLYLINE_235_">
		
			<path fill="none" stroke="#FB8604" stroke-width="2.75" stroke-linecap="round" stroke-linejoin="round" stroke-miterlimit="10" d="
			M253.945,610.85c4.014,0.808,8.018,1.169,12.109,1.243c3.482,0.063,6.758-0.006,10.046-1.198c0.043-0.016,0.086-0.031,0.129-0.047
			"/>
	</g>
	<g id="POLYLINE_234_">
		
			<path fill="none" stroke="#FB8604" stroke-width="2.75" stroke-linecap="round" stroke-linejoin="round" stroke-miterlimit="10" d="
			M188.013,452.607c3.915,0.751,7.79,1.487,11.794,1.456c3.963-0.03,7.919-0.566,11.785-1.418
			c7.74-1.705,15.557-4.899,21.401-10.388c1.227-1.152,2.366-2.398,3.377-3.745"/>
	</g>
	<g id="POLYLINE_233_">
		
			<path fill="none" stroke="#FB8604" stroke-width="2.75" stroke-linecap="round" stroke-linejoin="round" stroke-miterlimit="10" d="
			M167.576,622.399c1.562,0.31,3.118,0.43,4.709,0.341c0.671-0.037,1.643,0.041,2.255-0.333c0.925-0.564,0.413-2.01,0.124-2.789
			c-1.003-2.706-3.738-4.172-5.904-5.867c-3.329-2.608-6.678-5.213-9.895-7.96c-3.277-2.8-6.04-5.996-8.008-9.849
			c-1.684-3.294-2.787-6.897-3.619-10.491c-1.901-8.201-2.734-16.664-2.443-25.077c0.294-8.518,1.746-17.032,3.419-25.373
			c1.681-8.376,3.81-16.785,7.02-24.718c3.151-7.787,7.227-15.093,11.362-22.39c4.613-8.137,9.289-16.216,14.223-24.164
			c4.477-7.215,9.116-14.417,14.37-21.095c2.24-2.848,4.756-5.678,7.892-7.563c2.734-1.645,5.786-2.34,8.963-2.3
			c3.908,0.049,7.738,0.897,11.505,1.876c4.169,1.084,8.291,2.393,12.387,3.725c9.093,2.957,18.096,6.188,27.124,9.339
			c7.5,2.617,15.109,4.783,22.942,6.15c8.435,1.473,17.054,2.304,25.61,2.591c8.765,0.294,17.521,0.238,26.254-0.651
			c8.867-0.903,17.576-2.965,26.284-4.789c8.46-1.773,16.973-1.986,25.58-2.26c8.134-0.259,15.96-1.482,23.783-3.744
			c1.708-0.493,3.406-1.015,5.105-1.537"/>
	</g>
	<g id="POLYLINE_232_">
		
			<path fill="none" stroke="#FB8604" stroke-width="2.75" stroke-linecap="round" stroke-linejoin="round" stroke-miterlimit="10" d="
			M143.523,329.108c1.362,8.557,2.607,17.143,4.384,25.627c1.848,8.826,4.104,17.559,6.036,26.366
			c1.816,8.287,3.135,16.7,3.791,25.161c0.666,8.582,1.017,17.269,0.385,25.865c-0.61,8.305-2.162,16.412-4.737,24.337
			c-2.659,8.184-6.052,16.2-10.57,23.54c-2.263,3.676-5.077,6.94-7.634,10.406c-1.947,2.64-3.523,5.426-3.896,8.729
			c-0.429,3.792,0.748,7.248,1.394,10.928c0.713,4.065,0.839,8.262,0.968,12.378c0.271,8.601,0.217,17.251-0.561,25.825
			c-0.768,8.474-2.478,16.821-5.115,24.913c-1.34,4.111-2.92,8.173-4,12.363c-0.85,3.295-1.363,6.684-0.68,10.057
			c0.396,1.95,1.115,3.979,2.469,5.48c1.504,1.669,3.688,2.581,4.955,4.488c1.551,2.335,1.801,5.324,3.098,7.805
			c1.191,2.277,2.99,4.244,5.064,5.748c2.829,2.051,6.168,2.954,9.605,3.32c4.244,0.453,8.598,0.493,12.863,0.511
			c1.712,0.007,8.847,0.596,7.564-3.047c-0.721-2.048-2.633-3.647-4.176-5.06c-2.364-2.162-4.779-4.294-7.453-6.07"/>
	</g>
	<g id="POLYLINE_231_">
		
			<path fill="none" stroke="#FB8604" stroke-width="2.75" stroke-linecap="round" stroke-linejoin="round" stroke-miterlimit="10" d="
			M163.33,613.579c1.395,0.24,2.752-0.176,3.797-1.116"/>
	</g>
	<g id="POLYLINE_222_">
		
			<path fill="none" stroke="#FB8604" stroke-width="2.75" stroke-linecap="round" stroke-linejoin="round" stroke-miterlimit="10" d="
			M132.42,610.054c1.953,1.756,4.412,3.396,7.099,3.671c1.406,0.144,2.814-0.1,4.204-0.294c1.825-0.255,3.625-0.352,5.468-0.274
			c2.806,0.118,5.593,0.533,8.397,0.66c1.881,0.086,3.281-0.258,5.039-0.86"/>
	</g>
	<g id="POLYLINE_216_">
		
			<path fill="none" stroke="#FB8604" stroke-width="2.75" stroke-linecap="round" stroke-linejoin="round" stroke-miterlimit="10" d="
			M534.255,200.167c-2.935,0.929-5.708,2.34-8.205,4.138c-2.65,1.909-5.459,4.497-6.612,7.647c-1.108,3.028,2.302,2.013,3.848,1.053
			c1.771-1.1,3.395-2.391,5.243-3.372c1.575-0.835,3.243-1.519,4.93-2.09c3.744-1.269,7.629-2.125,11.564-2.515
			c8.081-0.802,16.128,0.303,23.754,3.053"/>
	</g>
	<g id="POLYLINE_215_">
		
			<path fill="none" stroke="#FB8604" stroke-width="2.75" stroke-linecap="round" stroke-linejoin="round" stroke-miterlimit="10" d="
			M576.065,214.73c-2.691-2.859-5.398-5.646-8.838-7.61c-3.53-2.015-7.395-3.368-11.289-4.485
			c-7.601-2.182-16.14-3.536-24.003-2.151c-3.659,0.645-7.176,1.935-10.423,3.733c-3.636,2.014-6.76,4.848-10.413,6.803
			c-1.495,0.8-6.312,2.449-4.945-0.96c1.182-2.947,3.95-5.321,6.321-7.299c3.16-2.637,6.63-4.883,10.153-6.998
			c6.668-4.003,14.046-6.911,21.84-7.588c8.098-0.705,16.4,0.493,24.26,2.419c3.438,0.843,6.86,1.83,10.147,3.154
			c3.312,1.333,6.271,3.185,9.252,5.125"/>
	</g>
	<g id="POLYLINE_214_">
		
			<path fill="none" stroke="#FB8604" stroke-width="2.75" stroke-linecap="round" stroke-linejoin="round" stroke-miterlimit="10" d="
			M165.712,298.824c-2.167,3.198-4.753,6.365-8.009,8.507c-2.418,1.59-5.498,2.16-7.613,4.195c-2.02,1.941-2.926,4.905-3.727,7.498
			c-1.259,4.072-2.402,8.204-3.418,12.343c-1.019,4.146-1.676,8.389-2.854,12.494c-0.163,0.569-0.897,4.123-2.117,3.893
			c-0.418-0.093-0.686-0.676-0.853-1.012c-0.647-1.305-0.974-2.812-1.249-4.232c-0.675-3.476-0.881-7.129-0.232-10.625
			c0.695-3.743,2.758-6.901,4.131-10.394c0.21-0.533,1.095-2.25,0.818-2.876c-0.205-0.465-0.637,0.33-0.83,0.585
			c-1.121,1.479-2.172,2.984-3.535,4.258c-1.383,1.294-3.01,2.284-4.452,3.505c-1.505,1.275-2.142,3.152-3.462,4.581
			c-0.529,0.573-2.42,2.636-3.488,2.351c-1.143-0.304,0.674-3.925,0.794-4.295c0.071-0.22,0.405-0.97,0.183-1.208
			c-0.269-0.384-1.514,0.514-1.662,0.596c-1.453,0.802-3.154,1.521-4.858,1.327c-3.78-0.432,1.745-6.142,2.358-6.962
			c0.188-0.252,0.839-0.928,0.316-0.886c-0.579,0.046-1.521,0.955-1.966,1.249c-0.679,0.448-1.369,0.881-2.081,1.273
			c-0.881,0.486-3.112,1.776-4.188,1.048c-1.082-0.618,1.191-2.516,1.529-2.839c0.817-0.784,1.678-1.525,2.521-2.281
			c0.191-0.172,0.776-0.552,0.84-0.827c0.116-0.505-0.824,0.038-1.11,0.163c-3.733,1.625-7.313,3.802-11.246,4.936
			c-2.782,0.802-5.118,0.269-7.837-0.53c-1.975-0.581-3.973-1.126-5.901-1.847c-0.636-0.238-1.875-0.552-2.281-1.18
			c-0.657-1.017,2.161-1.299,2.611-1.383c1.343-0.25,2.703-0.413,4.056-0.603c0.389-0.055,0.883-0.055,1.225-0.258
			c-0.033-0.327-3.933-0.432-4.13-0.448c-1.667-0.139-3.394-0.276-5.006-0.75c-2.093-0.614-3.151-2.229-4.715-3.646
			c-0.788-0.714-1.612-1.389-2.383-2.122c-0.22-0.21-0.609-0.502-0.736-0.793c-0.162-0.371-0.12-0.413,0.271-0.474
			c0.411-0.064,0.977,0.122,1.369,0.211c1.088,0.248,2.174,0.506,3.265,0.739c1.912,0.409,3.858,0.769,5.819,0.781
			c3.764,0.024,7.174-1.522,10.178-3.684c1.49-1.072,3.029-2.19,4.324-3.497c0.275-0.277,0.666-0.664,0.736-1.072
			c0.164-0.958-1.341-1.125-1.979-1.233c-3.737-0.639-7.654-0.37-11.197-1.937c-0.555-0.245-2.693-1.147-2.467-2.046
			c0.055-0.33,0.605-0.43,0.854-0.485c1.436-0.323,3.003-0.2,4.462-0.184c4.383,0.049,8.728-0.022,13.101-0.337
			c4.262-0.308,8.506-0.9,12.775-1.075c1.847-0.076,3.701-0.048,5.532,0.223c1.896,0.281,3.712,0.907,5.563,1.386
			c3.36,0.869,6.488,0.819,9.846-0.1c3.911-1.07,7.619-2.898,11.141-4.877c3.412-1.918,6.742-4.185,9.299-7.183
			c1.363-1.598,2.68-3.256,4.301-4.604c1.6-1.331,3.361-2.452,5.145-3.517c3.666-2.191,7.438-4.193,11.021-6.525
			c6.527-4.25,12.484-9.237,20.304-10.859c7.622-1.581,15.767-0.531,23.292,1.078c8.396,1.794,16.448,4.746,24.495,7.682
			c7.98,2.911,15.998,5.562,24.296,7.435c8.235,1.859,16.527,3.505,24.85,4.927c8.966,1.532,17.928,3.104,26.942,4.332
			c9.065,1.235,18.131,2.335,27.254,3.053c8.612,0.678,17.257,0.9,25.893,0.828c8.347-0.069,16.686-0.451,25.01-1.058
			c9.029-0.658,18.174-1.705,27.236-1.137c8.739,0.548,17.257,2.606,25.898,3.877c3.934,0.579,7.987,0.831,11.883-0.132
			c3.621-0.895,6.904-2.785,10.099-4.65c3.81-2.226,7.586-4.535,11.74-6.074c3.949-1.464,8.066-2.347,12.098-3.543
			c3.596-1.067,7.072-2.46,10.236-4.498c3.283-2.115,5.848-4.891,8.211-7.971c2.667-3.476,5.388-6.821,8.467-9.945
			c3.248-3.296,6.589-6.502,9.888-9.747c3.044-2.994,6.06-6.02,9.159-8.956c3.408-3.229,7.006-6.265,10.529-9.366
			c3.29-2.896,6.441-5.951,9.636-8.951c2.771-2.603,5.621-5.273,8.773-7.413c0.76-0.516,1.543-0.994,2.321-1.481"/>
	</g>
	<g id="POLYLINE_213_">
		
			<path fill="none" stroke="#FB8604" stroke-width="2.75" stroke-linecap="round" stroke-linejoin="round" stroke-miterlimit="10" d="
			M631.382,305.326c7.729,2.55,15.559,4.878,23.732,3.078c4.022-0.886,7.517-2.503,10.713-5.091"/>
	</g>
	<g id="POLYLINE_212_">
		
			<path fill="none" stroke="#FB8604" stroke-width="2.75" stroke-linecap="round" stroke-linejoin="round" stroke-miterlimit="10" d="
			M606.398,296.251c-2.741,3.294-4.679,7.105-5.588,11.296c-0.442,2.038-0.771,4.11-1.081,6.171
			c-0.155,1.034-0.317,2.068-0.418,3.109c-0.03,0.318-0.182,0.969-0.055,1.296c0.176,0.451,0.331,0.129,0.532-0.231
			c0.988-1.765,1.763-3.648,2.734-5.425c0.41-0.75,0.828-1.513,1.323-2.212c0.094-0.133,0.322-0.571,0.504-0.602
			c0.384-0.274,0.1,1.057,0.091,1.106c-0.736,4.051-1.646,7.941-1.549,12.092c0.019,0.788-0.106,2.354,0.394,3.06
			c0.254,0.358,0.372,0.26,0.604-0.08c0.805-1.18,0.992-2.901,1.483-4.225c0.11-0.299,0.298-1.037,0.667-0.768
			c0.477,0.348,0.357,2.192,0.384,2.648c0.115,2.007,0.102,4.022,0.094,6.032c-0.014,3.617,0.118,7.197,1.592,10.574
			c0.109,0.251,0.412,1.085,0.803,1.051c0.389,0,0.53-0.963,0.581-1.187c0.217-0.949,0.312-1.926,0.437-2.89
			c0.058-0.445-0.008-1.727,0.314-2.132c0.133-0.167,0.019-0.187,0.193-0.074c0.229,0.515,0.288,1.145,0.402,1.688
			c0.666,3.15,1.454,6.477,3.458,9.085c0.342,0.445,1.256,1.588,1.57,0.547c0.354-1.177-0.137-2.889-0.281-4.05
			c-0.099-0.794-0.23-1.597-0.246-2.398c-0.004-0.176-0.062-0.553,0.047-0.718c0.604-0.909,2.511,3.074,2.653,3.368
			c0.464,0.958,0.864,1.944,1.279,2.924c0.165,0.389,0.332,0.952,0.639,1.263c0.27,0.274,0.362,0.311,0.62,0
			c0.545-0.657,0.568-2.125,0.664-2.902c0.241-1.956,0.351-3.93,0.345-5.9c-0.013-4.169-0.75-8.297-0.588-12.472
			c0.136-3.492,0.552-7.292,2.172-10.448c0.811-1.577,1.934-2.917,3.123-4.218c1.407-1.537,2.83-3.069,4.307-4.541
			c0.882-0.879,1.79-1.732,2.747-2.529"/>
	</g>
	<g id="POLYLINE_211_">
		
			<path fill="none" stroke="#FB8604" stroke-width="2.75" stroke-linecap="round" stroke-linejoin="round" stroke-miterlimit="10" d="
			M678.021,286.641c-2.312-2.081-5.025-3.281-8.116-3.714c-2.209-0.31-4.96-0.454-6.968,0.761c-3.03,1.833-2.112,6.562-0.058,8.772
			c1.183,1.272,2.74,2.137,4.08,3.225c1.772,1.439,3.373,3.083,5.059,4.62"/>
	</g>
	<g id="POLYLINE_210_">
		
			<path fill="none" stroke="#FB8604" stroke-width="2.75" stroke-linecap="round" stroke-linejoin="round" stroke-miterlimit="10" d="
			M601.319,208.528c7.415,2.307,13.589,6.797,18.403,12.862c2.68,3.375,5.07,6.93,7.489,10.492
			c2.391,3.521,4.636,7.281,7.522,10.434c2.814,3.073,6.149,5.623,9.438,8.163c3.856,2.979,7.796,5.856,11.694,8.782
			c3.072,2.305,6.152,4.615,9.021,7.175c3.088,2.757,5.717,6.083,8.225,9.365c2.083,2.726,4.128,5.801,4.752,9.235
			c0.494,2.718-0.2,5.505-1.306,7.987c-2.075,4.659-5.264,10.116-10.933,10.299c-3.606,0.116-7.276-0.883-10.751-1.731
			c-3.725-0.91-7.403-2.127-10.828-3.863"/>
	</g>
	<g id="POLYLINE_209_">
		
			<path fill="none" stroke="#FB8604" stroke-width="2.75" stroke-linecap="round" stroke-linejoin="round" stroke-miterlimit="10" d="
			M570.682,228.065c2.709-3.125,5.398-6.273,7.656-9.749c2.398-3.691,4.187-7.698,6.028-11.683
			c3.187-6.898,6.586-14.949,13.351-19.106c1.472-0.904,3.535-1.927,5.319-1.44c1.351,0.368,1.878,1.648,2.083,2.932
			c0.535,3.345-0.27,7.017-1.047,10.258c-0.952,3.975-2.187,7.854-3.671,11.663c-1.564,4.017-3.618,7.813-5.354,11.754
			c-1.646,3.734-2.806,7.642-3.763,11.603c-0.27,1.114-0.52,2.233-0.779,3.35"/>
	</g>
	<g id="POLYLINE_187_">
		
			<path fill="none" stroke="#FB8604" stroke-width="2.75" stroke-linecap="round" stroke-linejoin="round" stroke-miterlimit="10" d="
			M482.878,622.474c1.091,0.252,2.483,0.454,3.435-0.285c1.011-0.786,1.09-2.172,0.809-3.331c-0.612-2.52-2.583-4.503-4.551-6.056
			c-3.162-2.496-6.739-4.425-9.98-6.819c-5.929-4.382-10.835-9.91-13.562-16.816c-3.068-7.771-3.959-16.428-4.959-24.661
			c-1.04-8.562-1.715-17.268-1.418-25.896c0.292-8.498,2.862-16.713,3.095-25.2c0.094-3.427-0.276-6.568-1.708-9.696
			c-0.726-1.586-1.443-3.169-1.821-4.88c-0.416-1.885-0.574-3.824-0.649-5.75c-0.145-3.738-0.019-7.488,0.166-11.223
			c0.278-5.613,0.556-11.227,0.834-16.839c0.371-7.483,0.449-15.423,3.37-22.442c3.132-7.528,10.099-12.475,14.953-18.8
			c2.599-3.386,4.912-6.985,7.582-10.315c1.107-1.383,2.288-2.733,3.669-3.851c1.436-1.161,3.052-2.036,4.661-2.928
			c3.638-2.017,6.48-4.729,9.438-7.613c2.776-2.707,5.541-5.124,9.057-6.823c3.388-1.639,6.265-3.34,8.682-6.278
			c2.478-3.013,4.45-6.449,6.339-9.849c4.283-7.705,8.54-15.391,13.812-22.479c5.242-7.048,10.812-13.849,16.644-20.418
			c5.866-6.609,12.157-12.829,18.04-19.421c2.747-3.079,5.363-6.267,7.649-9.706c1.677-2.522,3.304-5.698,5.854-7.474
			c1.648-1.147,3.588-1.056,5.48-0.683c1.98,0.39,3.924,0.964,5.901,1.377c2.167,0.452,4.354,0.792,6.54,1.137
			c1.363,0.215,2.729,0.409,4.094,0.608"/>
	</g>
	<g id="POLYLINE_186_">
		
			<path fill="none" stroke="#FB8604" stroke-width="2.75" stroke-linecap="round" stroke-linejoin="round" stroke-miterlimit="10" d="
			M401.206,388.721c-0.029,8.484,1.122,16.631,3.616,24.745c2.575,8.377,6.572,16.046,10.732,23.717
			c1.876,3.459,3.564,7.03,4.676,10.813c1.104,3.765,1.693,7.676,2.188,11.561c1.076,8.465,2.163,16.9,3.856,25.27
			c1.86,9.2,3.945,18.389,5.42,27.662c0.633,3.977,0.725,8.074,1.744,11.982c1.056,4.047,2.956,7.826,4.125,11.842
			c2.25,7.732,1.758,16.101,1.486,24.054c-0.308,9.004-0.713,18.01-1.506,26.985c-0.167,1.894-0.394,3.801-0.819,5.655
			c-0.463,2.02-1.166,3.973-1.687,5.978c-0.713,2.748-0.989,5.89-0.072,8.636c0.127,0.38,0.171,0.675,0.476,0.411
			c0.293-0.253,0.288-1.121,0.396-1.486c0.083-0.284,0.163-0.635,0.349-0.878c0.505-0.662,1.129-0.084,1.548,0.395
			c2.107,2.408,2.394,5.659,3.509,8.527c0.818,2.105,2.368,3.669,4.276,4.846c6.698,4.131,15.228,3.185,22.728,3.168
			c4.137-0.01,8.296,0.45,12.43,0.163c1.129-0.078,3.41-0.104,4.057-1.33c0.359-0.681-0.015-1.472-0.404-2.052
			c-1.752-2.604-5.079-4.275-7.623-5.965c-2.933-1.947-6.247-3.972-8.404-6.815"/>
	</g>
	<g id="POLYLINE_185_">
		
			<path fill="none" stroke="#FB8604" stroke-width="2.75" stroke-linecap="round" stroke-linejoin="round" stroke-miterlimit="10" d="
			M440.725,612.999c8.261,0.173,16.77-0.676,24.8-2.648c1.674-0.411,3.342-0.873,4.939-1.525"/>
	</g>
	<g id="POLYLINE_184_">
		
			<path fill="none" stroke="#FB8604" stroke-width="2.75" stroke-linecap="round" stroke-linejoin="round" stroke-miterlimit="10" d="
			M470.951,609.244c1.735-0.051,3.359-0.097,4.886-0.996"/>
	</g>
</g>
<g id="AG-OUTLINE">
	<g id="POLYLINE_57_">
		
			<path fill="none" stroke="#FB8604" stroke-width="3.5" stroke-linecap="round" stroke-linejoin="round" stroke-miterlimit="10" d="
			M603.922,299.024c-3.7-0.542-7.397-1.083-11.062-1.832c-2.379-0.488-4.733-1.366-7.168-1.536
			c-2.641-0.182-4.465,1.186-6.044,3.201c-2.153,2.745-3.874,5.806-5.979,8.589c-2.008,2.653-4.175,5.22-6.453,7.644
			c-5.405,5.752-10.919,11.419-16.157,17.323c-10.045,11.32-19.565,23.111-27.031,36.314c-3.388,5.986-6.393,12.491-10.907,17.745
			c-3.17,3.692-7.532,4.881-11.473,7.513c-4.892,3.268-8.266,8.37-13.271,11.49c-2.211,1.377-4.619,2.427-6.645,4.09
			c-1.939,1.593-3.527,3.61-5.009,5.621c-2.305,3.129-4.479,6.354-6.892,9.401c-2.32,2.931-5.003,5.538-7.55,8.268
			c-4.461,4.775-7.35,9.809-8.593,16.279c-1.443,7.537-1.43,15.389-1.808,23.028c-0.366,7.37-1.059,14.862-0.559,22.242
			c0.151,2.24,0.465,4.466,1.263,6.574c0.728,1.924,1.795,3.706,2.301,5.712c1.469,5.814,0.118,12.228-0.881,18.007
			c-1.246,7.21-1.921,14.269-1.671,21.594c0.259,7.536,0.965,15.054,1.977,22.525c0.968,7.154,1.981,14.587,4.848,21.271
			c2.294,5.346,5.998,9.821,10.421,13.561c4.626,3.91,10.593,6.4,14.743,10.82c1.39,1.479,2.966,3.773,2.551,5.93
			c-0.168,0.879-0.706,1.609-1.559,1.916c-0.97,0.351-1.938-0.056-2.899-0.036c-2.272,0.047-4.521,0.366-6.825,0.295
			c-6.951-0.216-14.021,0.298-20.937-0.41c-3.782-0.385-7.688-1.468-10.731-3.834c-3.221-2.506-3.291-6.198-4.846-9.706
			c-0.326-0.738-1.516-3.717-2.776-3.491c-1.014,0.182-0.743,2.909-1.326,2.857c-1.088,0-0.874-5.859-0.762-6.695
			c0.388-2.883,1.532-5.586,2.175-8.409c0.84-3.677,1.006-7.502,1.287-11.252c0.59-7.896,0.864-15.815,1.135-23.728
			c0.228-6.734,0.416-13.72-1.178-20.314c-0.87-3.603-2.376-6.987-3.616-10.467c-1.078-3.027-1.55-6.067-1.923-9.246
			c-1.818-15.514-6.104-30.62-8.372-46.067c-0.949-6.462-1.499-12.985-2.714-19.409c-3.039,6.889-5.972,13.841-8.33,21
			c-2.357,7.157-4.121,14.457-5.855,21.784c-3.672,15.511-8.327,30.801-11.64,46.389c-1.589,7.479-2.616,15.022-3.269,22.637
			c-0.566,6.576-1.204,13.655-0.091,20.205c2.01,11.811,12.871,20.221,21.058,27.949c0.668,0.628,9.512,7.8,5.171,9.424
			c-1.381,0.517-3.099,0.005-4.51-0.109c-0.82-0.068-0.789,0.095-1.568,0.366c-2.518,0.874-5.87,0.418-8.445,0.496
			c-3.255,0.097-6.521,0.224-9.771-0.013c-7.898-0.574-15.231-4.589-17.528-12.692c-0.585-2.061-0.27-4.148-0.433-6.253
			c-0.019-0.253,0.006-1.15-0.349-1.315c-0.688-0.516-1.683,1.687-2.576,1.517c-2.459,0,0.362-9.478-2.077-8.301
			c-0.675,0.326-1.97,3.212-2.654,1.992c-0.556-0.987,0.347-3.567,0.565-4.492c0.647-2.736,1.837-5.095,2.904-7.675
			c2.571-6.215,3.179-13.523,4.005-20.142c0.878-7.006,1.752-14.013,2.629-21.021c2.061-16.485,4.45-32.971,5.97-49.519
			c0.757-8.24,1.271-16.504,1.89-24.755c0.531-7.093,1.51-14.151,2.398-21.206c-7.369,0.224-14.649,0.427-21.924,1.705
			c-7.547,1.326-14.972,3.261-22.546,4.449c-14.786,2.317-29.982,2.071-44.849,0.668c-7.282-0.688-14.562-1.724-21.672-3.471
			c-3.509-0.86-6.982-1.856-10.414-2.991c-1.76-0.583-3.511-1.184-5.261-1.796c-0.645-0.226-5.495-2.403-5.899-1.978
			c-4.642,4.874-6.753,10.615-8.285,17.089c-1.812,7.653-3.118,15.404-4.402,23.158c-1.209,7.309-2.488,14.645-2.895,22.05
			c-0.389,7.08,0.319,14.187,1.605,21.146c2.716,14.701,7.099,29.455,13.449,43.014c6.36,13.586,14.873,25.492,25.395,36.172
			c3.224,3.272,7.926,6.746,9.418,11.33c0.271,0.831,0.569,2.037-0.284,2.618c-0.949,0.647-2.949,0.368-3.963,0.393
			c-2.875,0.07-5.716,0.468-8.618,0.43c-3.705-0.05-7.414-0.11-11.11-0.387c-2.344-0.175-4.816-0.307-7.067-1.05
			c-2.21-0.73-3.666-2.167-4.352-4.398c-1.307-4.253-0.758-9.005-3.44-12.793c-0.92-1.3-1.939-1.807-3.299-2.556
			c-1.714-0.947-3.159-2.393-4.438-3.853c-2.909-3.322-4.323-6.666-4.995-10.988c-2.308-14.855-7.977-29.185-13.287-43.188
			c-2.814-7.421-5.781-14.759-8.978-22.023c-1.964-4.462-4.709-9.401-4.709-14.418c0-2.13,0.576-4.209,1.084-6.264
			c0.97-3.912,1.86-7.836,2.705-11.777c1.496-6.984,2.803-14.006,4.133-21.023c1.229-6.481,2.457-12.964,3.686-19.446
			c-6.031,2.862-12.601,4.54-19.231,5.207c-3.172,0.319-6.377,0.336-9.544-0.054c-1.842-0.228-3.664-0.583-5.489-0.936
			c-1.273-0.245-1.159-0.264-1.883,0.822c-0.534,0.8-1.068,1.602-1.595,2.406c-8.471,12.979-16.403,26.39-23.721,40.052
			c-3.572,6.67-6.764,13.474-9.103,20.682c-2.323,7.158-3.989,14.516-5.388,21.905c-2.654,14.048-3.628,27.967-1.189,42.113
			c1.138,6.607,2.969,13.517,6.964,19.012c4.111,5.649,10.328,9.775,15.759,14.039c2.312,1.812,5.861,3.753,6.004,7.162
			c0.031,0.764-0.143,1.15-0.861,1.425c-1.307,0.498-3.212,0.288-4.598,0.154c-0.771-0.075-1.541-0.29-2.287-0.219
			c-0.639,0.061-1.275,0.259-1.919,0.324c-3.302,0.342-6.684,0.114-9.994-0.002c-3.339-0.117-6.701-0.154-9.984-0.847
			c-6.673-1.408-11.066-6.195-13.086-12.512c-0.516-1.608-0.98-3.246-2.093-4.557c-1.075-1.267-2.561-2.047-3.782-3.148
			c-1.769-1.597-2.679-3.902-3.13-6.198c-0.732-3.724-0.037-7.474,0.994-11.075c2.046-7.152,4.803-14.041,6.477-21.309
			c3.422-14.843,3.529-30.518,2.673-45.66c-0.198-3.467-0.549-6.904-1.376-10.28c-0.601-2.452-1.019-4.901-0.821-7.434
			c0.274-3.498,1.836-6.392,3.873-9.196c2.155-2.963,4.539-5.75,6.595-8.788c1.911-2.819,3.566-5.823,5.072-8.877
			c3.307-6.704,5.948-13.738,7.983-20.933c3.985-14.098,4.26-29.031,3.132-43.557c-1.215-15.617-4.702-30.61-8.287-45.818
			c-2.594-11.014-4.3-22.179-6.078-33.344c-0.929,3.644-1.697,7.308-2.499,10.981c-0.481,2.209-0.854,4.939-2.094,6.896
			c-0.739,1.164-1.336,0.713-1.867-0.389c-2.109-4.371-2.321-10.529-1.32-15.196c0.581-2.711,1.832-5.185,3.026-7.666
			c0.561-1.166,1.105-2.346,1.486-3.585c0.104-0.335,0.466-1.086,0.334-1.423c-0.163-0.42-0.018-0.224-0.408-0.047
			c-0.9,0.408-1.747,2.358-2.399,3.139c-0.587,0.705-1.219,1.369-1.912,1.97c-1.68,1.447-3.811,2.535-5.191,4.302
			c-0.944,1.207-1.508,2.621-2.611,3.718c-0.426,0.422-2.688,2.797-3.498,1.947c-0.217-0.361-0.009-0.927,0.081-1.279
			c0.214-0.856,1.631-3.062,1.206-3.898c-0.55-1.083-6.524,3.896-7.845,1.07c-0.614-1.315,1.548-3.562,2.157-4.363
			c0.105-0.14,2.303-2.528,1.962-2.867c-0.291,0-0.669,0.346-0.887,0.486c-1.236,0.798-2.444,1.65-3.756,2.323
			c-0.688,0.353-3.214,1.688-3.918,0.686c-0.791-1.059,2.393-3.355,2.826-3.744c0.109-0.098,2.593-2.021,2.198-2.289
			c-0.132-0.089-0.704,0.222-0.807,0.264c-1.589,0.649-3.128,1.45-4.676,2.188c-3.214,1.528-6.899,3.638-10.608,3.298
			c-2.506-0.229-4.981-1.242-7.371-1.957c-1.242-0.373-3.739-0.766-4.664-1.852c-0.729-0.854,0.279-1.066,1.132-1.294
			c1.718-0.46,3.53-0.623,5.286-0.868c0.417-0.059,0.9-0.079,1.266-0.271c-0.07-0.184-0.913-0.17-1-0.179
			c-1.765-0.17-3.536-0.269-5.297-0.487c-1.701-0.212-3.524-0.467-4.911-1.559c-1.774-1.395-3.559-3.258-5.145-4.854
			c-0.166-0.168-0.909-0.742-0.677-1.079c0.562-0.337,1.833,0.175,2.356,0.295c2.87,0.652,5.81,1.434,8.776,1.371
			c4.355-0.096,8.015-2.227,11.368-4.84c0.629-0.489,3.896-2.382,3.526-3.73c-0.427-1.548-5.383-1.278-6.223-1.354
			c-2.212-0.203-4.495-0.495-6.572-1.331c-0.748-0.301-2.372-0.889-2.71-1.751c-0.351-0.897,0.624-0.956,1.39-1.041
			c3.018-0.333,6.116-0.022,9.146-0.051c3.531-0.032,7.048-0.304,10.563-0.622c3.86-0.351,7.76-0.863,11.643-0.859
			c3.067,0.004,5.848,0.665,8.783,1.481c4.092,1.141,7.697,0.956,11.75-0.329c5.768-1.832,11.653-4.954,16.282-8.854
			c2.142-1.805,3.739-4.068,5.687-6.062c1.917-1.962,4.242-3.463,6.586-4.861c3.212-1.918,6.522-3.665,9.683-5.667
			c3.25-2.06,6.319-4.378,9.548-6.467c5.323-3.442,10.938-5.525,17.303-5.89c6.812-0.39,13.707,0.661,20.321,2.238
			c14.619,3.491,28.245,10.101,42.837,13.718c15.122,3.748,30.576,6.297,45.955,8.72c15.194,2.393,30.47,4.271,45.84,5.011
			c15.234,0.733,30.469,0.047,45.663-1.062c7.421-0.542,14.868-1.255,22.316-0.904c7.492,0.353,14.876,1.86,22.239,3.177
			c5.247,0.938,10.747,1.907,16.036,0.728c6.061-1.353,11.193-5.338,16.577-8.215c6.378-3.405,13.317-4.57,20.096-6.871
			c6.611-2.245,11.807-6.092,16.034-11.601c4.392-5.723,9.233-10.756,14.367-15.805c5.549-5.457,10.981-11.079,16.827-16.224
			c6.996-6.16,13.707-12.623,20.703-18.777c-2.078-2.198-4.169-4.615-6.737-6.271c-2.636-1.699-6.543-2.309-9.599-2.858
			c-6.594-1.185-13.402-1.112-19.964,0.236c-3.295,0.677-6.565,1.638-9.634,3.029c-2.647,1.202-4.796,3.049-7.32,4.438
			c-0.726,0.399-2.589,1.325-3.371,0.442c-0.729-0.729,0.259-2.377,0.592-2.991c1.935-3.578,5.404-6.3,8.891-8.259
			c1.698-0.956,3.496-1.742,5.356-2.323c-5.905,0.624-11.296,2.892-16.212,6.168c-2.46,1.64-4.765,3.65-7.441,4.939
			c-1.017,0.489-2.367,1.054-3.533,0.915c-3.932-0.465,2.939-7.235,3.665-7.9c9.699-8.877,22.893-15.779,36.191-16.263
			c7.089-0.257,14.223,0.798,21.109,2.411c6.64,1.555,12.9,3.772,18.635,7.506c0.476,0.31,0.951,0.62,1.426,0.929
			c2.336-4.312,5.324-8.723,9.584-11.339c1.587-0.976,4.316-2.35,6.121-1.067c1.275,0.906,1.385,2.828,1.409,4.242
			c0.101,5.999-1.938,12.229-3.929,17.814c0.898,0.276,1.376,0.627,2.216,0.165c0.949-0.522,1.903-1.034,2.835-1.586
			c0.979-0.579,1.926-1.207,2.812-1.921c1.547-1.245,2.969-3.188,4.843-3.981c0.751-0.317,1.41-0.288,1.981,0.342
			c1.655,1.828-0.049,5.391-0.634,7.202c-0.547,1.698-0.945,3.44-1.44,5.155c-0.067,0.235-0.416,0.94-0.351,1.155
			c0.077,0.25,0.781,0.666,0.986,0.849c0.715,0.637,1.407,1.3,2.071,1.988c2.271,2.354,4.277,4.943,6.188,7.597
			c4.17,5.788,7.595,12.378,12.574,17.536c5.327,5.519,12.014,9.886,18.12,14.466c5.58,4.188,11.318,8.233,15.805,13.637
			c3.272,3.94,7.328,8.285,8.421,13.483c0.695,3.311-0.317,6.616-1.808,9.562c-1.514,2.994-3.533,6.662-6.692,8.245
			c-0.576,0.288-1.188,0.492-1.818,0.63c-1.141,0.248-1.663,0.25-2.633,1.001c-1.593,1.23-3.312,2.205-5.185,2.939
			c-5.677,2.225-11.793,2.518-17.728,1.298c-3.194-0.656-6.319-1.631-9.411-2.655c-1.227-0.405-1.269-0.224-2.153,0.665
			c-0.531,0.536-1.053,1.081-1.568,1.631c-1.296,1.385-2.658,2.734-3.849,4.213c-2.54,3.151-3.42,6.98-3.775,10.961
			c-0.609,6.822,0.979,13.581,0.114,20.41c-0.092,0.729-0.192,3.954-1.39,2.832c-0.694-0.651-0.989-2.204-1.349-3.02
			c-0.503-1.14-1.057-2.278-1.738-3.323c-0.123-0.187-0.767-1.39-1.195-1.276c-0.855,0,0.742,6.382,0.298,7.338
			c-0.36,0.775-0.76,0.407-1.289-0.156c-1.18-1.257-1.968-3.099-2.516-4.692c-0.486-1.412-0.831-2.862-1.14-4.323
			c-0.016-0.075-0.236-2.042-0.498-2.12c-0.104-0.207-0.115,0.021-0.183,0.079c-0.547,0.474-0.418,2.917-0.498,3.545
			c-0.05,0.386-0.119,2.388-0.688,2.604c-0.724,0.724-2.325-5.982-2.386-6.429c-0.418-3.083-0.122-6.269-0.185-9.373
			c-0.01-0.592,0.27-3.974-0.435-4.403c-0.969-0.592-1.38,4.837-2.325,5.212c-0.351,0.351-0.482-0.335-0.566-0.543
			c-0.778-1.933-0.303-4.893-0.11-6.878c0.152-1.577,0.416-3.146,0.737-4.699c0.152-0.742,1.133-3.197,0.771-3.99
			c-0.174-0.38,0.043-0.368-0.393-0.12c-1.131,0.647-4.383,8.806-4.874,8.459c-0.517-1.293,0.297-3.708,0.505-4.979
			c0.489-2.995,0.885-6.056,1.888-8.935C601.924,302.463,602.849,300.689,603.922,299.024z"/>
	</g>
</g>
</svg>
