<?xml version="1.0" encoding="utf-8"?>
<!-- Generator: Adobe Illustrator 23.0.1, SVG Export Plug-In . SVG Version: 6.00 Build 0)  -->
<!DOCTYPE svg PUBLIC "-//W3C//DTD SVG 1.1//EN" "http://www.w3.org/Graphics/SVG/1.1/DTD/svg11.dtd" [
	<!ENTITY ns_extend "http://ns.adobe.com/Extensibility/1.0/">
	<!ENTITY ns_ai "http://ns.adobe.com/AdobeIllustrator/10.0/">
	<!ENTITY ns_graphs "http://ns.adobe.com/Graphs/1.0/">
	<!ENTITY ns_vars "http://ns.adobe.com/Variables/1.0/">
	<!ENTITY ns_imrep "http://ns.adobe.com/ImageReplacement/1.0/">
	<!ENTITY ns_sfw "http://ns.adobe.com/SaveForWeb/1.0/">
	<!ENTITY ns_custom "http://ns.adobe.com/GenericCustomNamespace/1.0/">
	<!ENTITY ns_adobe_xpath "http://ns.adobe.com/XPath/1.0/">
]>
<svg version="1.1" xmlns:x="&ns_extend;" xmlns:i="&ns_ai;" xmlns:graph="&ns_graphs;"
	 xmlns="http://www.w3.org/2000/svg" xmlns:xlink="http://www.w3.org/1999/xlink" x="0px" y="0px" viewBox="0 0 750 750"
	 enable-background="new 0 0 750 750" xml:space="preserve">
<metadata>
	<sfw  xmlns="&ns_sfw;">
		<slices></slices>
		<sliceSourceBounds  bottomLeftOrigin="true" height="3897.312" width="3014.236" x="-1193" y="-3147.312"></sliceSourceBounds>
	</sfw>
</metadata>
<g id="FILL-BACKGROUND">
	<rect fill="#FFFFFF" width="750" height="750"/>
</g>
<g id="N-DIMENSIONS">
</g>
<g id="N-TEXT">
</g>
<g id="AG-DIAGRAM">
</g>
<g id="AG-PEOPLE">
</g>
<g id="AG-ANIMALS">
	<g id="POLYLINE_199_">
		
			<path fill="none" stroke="#FB8604" stroke-width="2.75" stroke-linecap="round" stroke-linejoin="round" stroke-miterlimit="10" d="
			M179.038,498.227c-0.967,3.273-1.969,6.437-3.747,9.376c-1.765,2.917-3.941,5.596-6.17,8.168
			c-2.291,2.643-4.702,5.218-7.316,7.546c-1.97,1.754-4.312,3.098-5.884,5.256c-1.874,2.57-3.223,5.563-4.506,8.459
			c-1.43,3.23-2.844,6.302-4.861,9.213c-1.57,2.265-3.21,4.583-3.89,7.296c-0.535,2.134-0.518,4.406-0.104,6.559
			c0.581,3.016,1.87,5.706,5.022,6.535c2.927,0.77,5.993,0.733,8.879,1.727c2.765,0.952,5.377,2.549,7.433,4.634
			c2.739,2.777,4.342,6.884,2.109,10.474c-2.701,4.341-8.847,6.296-13.651,6.496c-3.036,0.126-6.093,0.04-9.13,0.048
			c-5.147,0.013-10.294,0.026-15.441,0.039c-2.816,0.007-5.637,0.048-8.448-0.148c-2.681-0.188-5.585-0.502-7.982-1.816
			c-4.445-2.438-5.023-7.92-7.699-11.781c-2.469-3.562-7.297-4.229-9.741-7.771c-1.644-2.383-2.165-5.361-2.841-8.116
			c-0.396-1.614-0.985-3.169-1.4-4.776c-0.382-1.48-0.586-2.999-0.72-4.519c-0.275-3.121-0.343-6.352,0.146-9.455
			c0.353-2.24,1.505-3.945,2.27-6.036c0.888-2.428,0.633-5.117,1.391-7.581c0.605-1.968,2.142-3.117,3.427-4.646
			c1.642-1.955,2.486-4.467,3.281-6.854c1.127-3.386,2.136-6.819,3.573-10.092c1.405-3.2,3.192-6.222,4.557-9.44
			c0.462-1.089,0.882-2.213,1.078-3.384c0.192-1.145,0.115-2.298,0.149-3.453c0.036-1.207,0.37-2.149,1.114-3.1
			c0.916-1.172,2.006-2.186,2.322-3.691c0.639-3.041-1.916-4.571-3.018-7.08c-0.743-1.691-0.551-3.641-0.419-5.429
			c0.146-1.983,0.576-4.307-0.396-6.159c-0.739-1.409-1.843-2.402-2.172-4.007c-0.588-2.867-0.023-5.865-0.279-8.765
			c-0.288-3.265-1.882-6.025-2.706-9.137c-0.804-3.038-0.254-6.166-0.316-9.258c-0.025-1.23-0.009-3.514-1.515-3.968
			c-1.686-0.508-1.697,1.448-2.443,2.309c-0.781,0.902-1.808-0.927-2.126-1.522c-1.07-2.004-1.342-4.33-1.45-6.566
			c-0.17-3.529,0.101-7.064-0.118-10.593c-0.176-2.828-0.763-5.767-0.342-8.599c0.449-3.017,1.952-5.848,2.82-8.761
			c1.035-3.475,1.882-7.003,2.754-10.521c1.728-6.972,3.656-13.795,6.634-20.355c2.581-5.687,5.665-11.89,10.645-15.866
			c2.454-1.96,5.329-3.299,7.761-5.291c2.553-2.092,4.64-4.622,6.856-7.049c4.631-5.071,11.072-7.139,17.324-9.519
			c2.915-1.109,5.748-2.304,8.288-4.143c2.818-2.04,5.406-4.377,8.309-6.304c2.898-1.924,6.065-3.376,9.086-5.086
			c3.04-1.72,5.696-3.945,8.58-5.895c2.538-1.716,5.281-2.79,8.287-3.355c1.221-0.23,4.104-0.297,4.864-1.657
			c0.287-0.513,0.123-1.154,0.378-1.675c0.219-0.448,0.671-0.664,1.117-0.829c1.129-0.418,2.374-0.531,3.547-0.763
			c1.431-0.284,2.819-0.712,4.202-1.173c3.377-1.127,6.675-2.072,10.221-2.499c3.304-0.397,6.687-0.267,9.952-0.934
			c3.242-0.662,6.477-1.673,9.555-2.882c1.392-0.546,2.713-1.271,4.127-1.76c1.237-0.428,2.539-0.647,3.834-0.81
			c7.033-0.882,14.205-0.246,21.261-0.113c3.51,0.066,7.001,0.02,10.503-0.232c3.727-0.268,7.453-0.631,11.184-0.207
			c6.964,0.792,13.549,3.472,20.483,4.465c7.15,1.024,14.363,0.208,21.545,0.559c3.463,0.169,6.715,0.978,10.079,1.754
			c2.715,0.626,5.543,0.372,8.236,1.013c1.58,0.376,2.811,1.487,4.328,2.009c2.449,0.843,5.352,0.351,7.869,0.241
			c6.845-0.299,13.752-0.023,20.588,0.374c7.511,0.436,15.107,1.272,22.64,1.122c3.091-0.061,5.878-0.598,8.759-1.723
			c3.322-1.298,6.685-2.456,10.18-3.199c6.507-1.382,13.076,0.081,19.652-0.418c3.521-0.267,6.823-1.158,10.166-2.246
			c1.539-0.5,3.073-1.03,4.661-1.355c1.597-0.326,3.225-0.484,4.799-0.917c3.415-0.938,6.575-2.7,9.754-4.214
			c2.826-1.345,5.56-1.805,8.622-2.341c3.411-0.597,6.629-1.822,9.895-2.934c3.323-1.132,6.727-1.997,10.082-3.025
			c3.393-1.04,6.584-2.436,9.815-3.89c1.209-0.544,2.435-1.081,3.714-1.443c1.371-0.388,2.773-0.458,4.187-0.554
			c3.256-0.222,6.227-1.466,9.316-2.422c3.032-0.939,5.931-1.383,9.092-1.478c2.479-0.075,4.781-1.115,7.26-1.341
			c3.24-0.294,6.509-0.226,9.759-0.236c7.455-0.024,14.925-0.223,22.363,0.387c3.787,0.311,7.575,0.686,11.377,0.754
			c3.669,0.066,7.34-0.137,11.008-0.047c1.608,0.04,3.202,0.166,4.774,0.514c1.752,0.388,3.457,0.902,5.237,1.161
			c3.473,0.507,6.99,0.571,10.474,0.965c5.347,0.605,9.898,3.085,13.358,7.247c0.489,0.588,0.952,1.239,1.653,1.59
			c0.916,0.458,2.032,0.483,3.013,0.696c2.566,0.558,4.65,2.203,6.821,3.585c0.844,0.538,1.722,1.026,2.679,1.331
			c1.278,0.406,2.634,0.488,3.941,0.77c2.417,0.522,4.274,1.868,6.224,3.343c1.163,0.879,2.324,1.772,3.655,2.383
			c1.349,0.62,2.797,0.935,4.204,1.388c1.177,0.379,2.277,0.913,3.05,1.911c1.16,1.498,1.48,3.596,1.642,5.419
			c0.235,2.655,0.056,5.385-0.559,7.979c-0.786,3.309-2.411,6.166-5.597,7.601c-2.737,1.232-5.888,1.456-8.838,1.731
			c-3.728,0.348-7.466,0.467-11.207,0.587c-3.888,0.125-8.907-0.359-11.896,2.67c-1.151,1.167-2.208,2.811-2.554,4.434
			c-0.343,1.609,0.568,2.7,1.783,3.64c2.512,1.942,5.598,3.263,8.596,4.244c3.187,1.043,6.491,1.582,9.849,1.436
			c3.499-0.152,6.805-1.054,10.173-1.93c0.377-0.098,3.434-1.009,2.672,0.437c-0.314,0.596-1.164,0.958-1.737,1.233
			c-1.094,0.525-2.24,0.941-3.372,1.378c-4.444,1.717-8.888,3.433-13.332,5.15c-6.688,2.583-12.999,5.818-19.378,9.072
			c-6.052,3.086-12.169,5.864-18.854,7.27c-7.03,1.479-14.33,1.99-21.503,1.956c-3.831-0.018-7.62-0.371-11.43-0.726
			c-2.682-0.25-5.532-0.54-8.166,0.19c-2.629,0.729-4.727,2.564-7.192,3.654c-1.422,0.629-2.917,1.101-4.267,1.886
			c-1.017,0.591-1.917,1.355-2.776,2.154c-2.574,2.392-4.963,4.763-7.917,6.703c-3.135,2.06-6.433,3.876-9.675,5.759
			c-6.009,3.49-12.264,6.892-17.713,11.234c-2.37,1.889-4.349,4.125-6.236,6.487c-2.319,2.904-4.612,5.831-6.772,8.855
			c-4.23,5.923-7.924,12.089-10.908,18.736c-3.001,6.685-5.461,13.603-8.172,20.408c-1.318,3.309-2.889,6.516-4.062,9.883
			c-1.312,3.764-2.411,7.599-3.565,11.413c-0.822,2.717-1.584,5.535-3,8.015c-1.14,1.997-3.042,3.343-4.292,5.245
			c-1.278,1.944-1.767,4.358-2.198,6.604c-0.708,3.686-1.28,7.397-2.026,11.076c-0.67,3.305-1.406,6.637-2.618,9.793
			c-1.187,3.09-2.989,5.692-4.935,8.344c-0.956,1.302-2.149,2.72-2.199,4.415c-0.021,0.718,0.067,1.41-0.044,2.125
			c-0.187,1.206-0.616,2.373-0.988,3.53"/>
	</g>
	<g id="POLYLINE_198_">
		
			<path fill="none" stroke="#FB8604" stroke-width="2.75" stroke-linecap="round" stroke-linejoin="round" stroke-miterlimit="10" d="
			M447.201,547.822c0.953,2.6,1.863,5.226,2.444,7.938c0.492,2.296,0.487,4.704,1.114,6.966c0.966,3.481,4.085,3.25,6.987,4.181
			c2.339,0.751,3.879,2.718,6.41,3.019c2.494,0.297,4.909,0.291,7.352,0.968c2.556,0.709,5.031,1.751,7.377,2.983
			c3.022,1.587,6.731,3.799,8.114,7.114c0.7,1.677,0.228,3.268-0.973,4.568c-2.997,3.244-7.608,3.898-11.781,3.982
			c-2.277,0.046-4.539,0.591-6.816,0.471c-2.689-0.142-5.236-0.715-7.946-0.483c-2.749,0.236-5.431,0.613-8.197,0.532
			c-2.892-0.085-5.748-0.293-8.642-0.177c-2.692,0.108-5.241,0.099-7.838-0.716c-2.689-0.844-5.192-2.216-7.623-3.621
			c-1.217-0.704-2.417-1.438-3.62-2.164"/>
	</g>
	<g id="POLYLINE_197_">
		
			<path fill="none" stroke="#FB8604" stroke-width="2.75" stroke-linecap="round" stroke-linejoin="round" stroke-miterlimit="10" d="
			M383.533,391.38c-2.525,3.532-5.015,7.08-7.924,10.312c-2.97,3.3-6.263,6.298-9.37,9.466c-3.01,3.069-5.795,6.318-7.965,10.045
			c-2.211,3.797-3.831,7.907-5.362,12.014c-1.559,4.18-2.947,8.417-4.228,12.689c-1.219,4.065-2.287,8.2-3.065,12.374
			c-0.585,3.144-1.283,6.691-0.534,9.866c0.292,1.236,0.868,2.359,1.466,3.471c1.133,2.104,2.299,4.193,3.334,6.347
			c2.002,4.165,3.31,8.588,4.726,12.975c1.247,3.864,2.541,7.853,4.821,11.252c1.896,2.829,4.81,4.674,6.931,7.303
			c2.647,3.281,4.089,7.51,5.736,11.334c1.52,3.53,3.259,6.998,5.699,9.993c1.149,1.41,2.446,2.67,3.931,3.721
			c1.358,0.962,2.805,1.826,3.976,3.024c2.333,2.389,3.301,5.78,5.031,8.574c1.291,2.086,3.075,3.864,5.278,4.973
			c0.951,0.479,1.959,0.812,3.01,0.984c1.094,0.178,2.275,0.163,3.319,0.582c1.144,0.459,2.211,1.69,2.118,2.988
			c-0.042,0.585-0.365,1.077-0.73,1.517c-0.807,0.973-1.776,1.741-2.359,2.886c-1.11,2.18-0.242,4.378-0.575,6.667
			c-0.159,1.09-0.856,1.866-1.463,2.744c-0.824,1.192-1.376,2.549-1.782,3.934c-0.746,2.543-1.119,5.457-0.206,8.014
			c0.767,2.148,2.479,3.708,4.384,4.874c2.704,1.656,5.071,1.91,8.184,1.875c3.209-0.036,6.112-0.725,8.967-2.193
			c1.985-1.021,3.877-2.211,5.858-3.237c1.734-0.898,3.499-1.405,5.363-1.961c1.86-0.554,3.24-1.518,4.32-3.135
			c2.379-3.562,3.562-8.004,4.991-11.995c1.46-4.076,3.119-8.075,4.967-11.991c1.792-3.796,3.776-7.517,5.209-11.471
			c1.312-3.623,2.129-7.411,2.335-11.262c0.172-3.217,0.076-6.793-1.52-9.684c-0.79-1.432-1.915-2.627-3.004-3.833
			c-1.335-1.479-2.546-3.01-3.557-4.731c-2.062-3.509-3.577-7.314-5.117-11.07c-1.781-4.343-3.471-8.741-5.547-12.955
			c-1.843-3.742-4.333-7.232-5.901-11.097c-0.342-0.842-0.618-1.745-0.436-2.658c0.259-1.298,1.203-2.491,1.945-3.544
			c2.812-3.989,5.932-7.772,8.934-11.617c2.511-3.216,4.906-6.511,7.292-9.821c2.527-3.507,5.004-7.063,7.902-10.28
			c2.771-3.076,5.894-5.781,9.083-8.412"/>
	</g>
	<g id="POLYLINE_147_">
		
			<path fill="none" stroke="#FB8604" stroke-width="2.75" stroke-linecap="round" stroke-linejoin="round" stroke-miterlimit="10" d="
			M249.455,465.543c0.654,4.099,1.309,8.196,1.691,12.332c0.397,4.299,0.372,8.58,0.352,12.892
			c-0.018,3.869,0.155,7.627,0.977,11.421c0.838,3.868,1.808,7.643,2.105,11.603c0.304,4.058,0.171,8.153,0.7,12.192
			c0.536,4.094,1.814,8.043,2.733,12.058c0.872,3.81,1.13,7.508,1.164,11.407c0.016,1.844,0.044,3.739,0.966,5.386
			c1.527,2.726,4.183,4.641,5.639,7.447c0.589,1.135,0.828,2.369,1.268,3.56c0.196,0.531,0.452,1.123,1.062,1.252
			c0.563,0.119,1.222-0.186,1.722-0.401c1.668-0.714,3.202-1.579,4.974-2.034c3.401-0.874,7.179-0.861,10.642-0.418
			c2.99,0.382,5.917,1.325,8.209,3.349c2.119,1.87,3.685,4.414,4.496,7.115c1.026,3.418,0.751,7.188-2.506,9.2
			c-1.726,1.066-3.602,1.927-5.369,2.929c-1.313,0.745-2.648,1.457-4.072,1.968c-3.236,1.161-6.742,1.068-10.13,1.019
			c-3.962-0.057-7.921,0.302-11.88,0.104c-4.173-0.209-8.337-0.635-12.519-0.614c-4.152,0.021-8.275,0.557-12.422,0.682
			c-3.964,0.12-7.763-0.628-11.633-1.397c-3.662-0.728-7.496-1.348-10.928-2.886c-1.769-0.793-3.243-1.879-4.098-3.663
			c-0.741-1.546-1.079-3.253-1.71-4.843c-0.78-1.963-1.804-3.826-2.734-5.719c-1.619-3.297-2.651-6.563-2.971-10.232
			c-0.172-1.968-0.208-3.951-0.465-5.911c-0.242-1.842-0.739-3.635-1.105-5.453c-0.764-3.798-0.542-7.608-0.556-11.457
			c-0.008-2.349,0.065-5.194-1.207-7.288c-1.136-1.871-3.316-2.582-5.014-3.809c-5.896-4.259-8.45-12.086-11.528-18.34
			c-3.643-7.402-8.343-14.051-13.723-20.292c-5.556-6.445-11.417-12.656-17.613-18.492c-5.954-5.608-12.621-10.356-18.412-16.147
			c-5.624-5.625-11.299-11.847-14.913-18.998c-1.734-3.431-2.818-7.082-3.868-10.765"/>
	</g>
	<g id="POLYLINE_146_">
		
			<path fill="none" stroke="#FB8604" stroke-width="2.75" stroke-linecap="round" stroke-linejoin="round" stroke-miterlimit="10" d="
			M99.955,429.994c1.347-3.977,2.421-8.022,3.278-12.133c0.859-4.119,1.317-8.391,2.609-12.406c0.353-1.096,0.787-2.2,1.473-3.135"
			/>
	</g>
	<g id="POLYLINE_145_">
		
			<path fill="none" stroke="#FB8604" stroke-width="2.75" stroke-linecap="round" stroke-linejoin="round" stroke-miterlimit="10" d="
			M249.455,465.543c-1.027-5.27-2.999-10.356-4.94-15.344c-2.282-5.864-4.63-11.703-6.945-17.555
			c-0.979-2.476-1.959-4.951-2.938-7.427"/>
	</g>
	<g id="POLYLINE_144_">
		
			<path fill="none" stroke="#FB8604" stroke-width="2.75" stroke-linecap="round" stroke-linejoin="round" stroke-miterlimit="10" d="
			M664.877,291.456c-1.865-0.59-4.363-0.807-5.855,0.718c-1.201,1.228-1.767,3.044-2.431,4.58c-1.08,2.499-2.241,5.028-2.724,7.727
			c-0.317,1.767-0.215,3.558,0.306,5.277"/>
	</g>
	<g id="POLYLINE_143_">
		
			<path fill="none" stroke="#FB8604" stroke-width="2.75" stroke-linecap="round" stroke-linejoin="round" stroke-miterlimit="10" d="
			M550.836,283.63c-2.118,0.489-4.398,1.105-5.936,2.745c-2.123,2.264-3.091,5.57-3.198,8.608c-0.071,2.012,0.148,4.108,0.815,6.015
			"/>
	</g>
	<g id="POLYLINE_110_">
		
			<path fill="none" stroke="#FB8604" stroke-width="2.75" stroke-linecap="round" stroke-linejoin="round" stroke-miterlimit="10" d="
			M560.9,286.472c-2.639-1.336-5.904-3.257-8.989-3.037c-1.262,0.09-2.562,0.612-3.238,1.73c-0.816,1.351-0.918,3.155-0.598,4.668
			c0.741,3.508,2.91,6.79,4.798,9.775c2.423,3.832,5.076,7.516,7.763,11.166c0.305,0.415,0.611,0.829,0.916,1.244"/>
	</g>
	<g id="POLYLINE_109_">
		
			<path fill="none" stroke="#FB8604" stroke-width="2.75" stroke-linecap="round" stroke-linejoin="round" stroke-miterlimit="10" d="
			M660.367,330.231c-2.615-1.905-5.447-3.44-8.492-4.546c-1.4-0.508-3.945-0.817-4.909-2.207c-0.618-0.89-0.098-2.092,0.467-2.865
			c1.179-1.61,3.073-1.552,4.847-2.058c3.56-1.016,6.901-3.033,9.982-5.034"/>
	</g>
	<g id="POLYLINE_108_">
		
			<path fill="none" stroke="#FB8604" stroke-width="2.75" stroke-linecap="round" stroke-linejoin="round" stroke-miterlimit="10" d="
			M344.886,463.517c-5.724,2.786-11.567,5.397-17.454,7.819c-5.793,2.384-11.677,4.137-17.928,4.748
			c-6.096,0.596-12.092,0.708-18.068,2.186c-6.215,1.537-12.343,2.981-18.712,3.735c-6.352,0.753-12.754,1.138-19.149,1.207
			c-0.697,0.008-1.393,0.007-2.09,0.01"/>
	</g>
</g>
<g id="AG-HUMANS">
</g>
<g id="AG-OUTLINE">
	<g id="POLYLINE_93_">
		
			<path fill="none" stroke="#FB8604" stroke-width="3.5" stroke-linecap="round" stroke-linejoin="round" stroke-miterlimit="10" d="
			M179.038,498.227c-1.185,4.008-2.527,7.694-4.908,11.167c-2.47,3.602-5.372,6.927-8.386,10.081
			c-1.459,1.527-2.963,3.025-4.573,4.395c-1.411,1.201-3.026,2.188-4.299,3.544c-2.355,2.51-3.814,5.97-5.211,9.065
			c-0.899,1.992-1.709,4.034-2.725,5.97c-0.966,1.84-2.199,3.496-3.358,5.214c-1.725,2.557-3.091,5.215-3.287,8.34
			c-0.158,2.516,0.228,5.261,1.381,7.525c0.683,1.341,1.733,2.359,3.158,2.876c1.599,0.58,3.364,0.69,5.032,0.931
			c1.783,0.258,3.548,0.607,5.234,1.258c3.254,1.256,6.429,3.418,8.404,6.337c1.245,1.841,1.907,4.091,1.422,6.301
			c-0.5,2.278-2.131,4.01-4,5.3c-3.124,2.157-6.874,3.291-10.649,3.437c-4.27,0.164-8.567,0.044-12.839,0.055
			c-4.958,0.013-9.917,0.055-14.875,0.038c-3.906-0.013-8.123,0.016-11.837-1.357c-1.997-0.738-3.586-2.067-4.742-3.847
			c-1.911-2.945-2.63-6.568-4.894-9.3c-2.013-2.429-5.179-3.316-7.562-5.283c-1.804-1.489-2.758-3.595-3.424-5.798
			c-0.597-1.977-0.951-4.018-1.564-5.991c-0.63-2.026-1.202-3.988-1.455-6.101c-0.445-3.722-0.602-7.727,0.141-11.421
			c0.48-2.385,2.041-4.324,2.52-6.697c0.554-2.741,0.279-5.942,2.073-8.274c0.882-1.147,2.029-2.058,2.878-3.235
			c0.966-1.34,1.593-2.905,2.16-4.446c1.454-3.953,2.509-8.04,4.209-11.903c1.671-3.797,4.047-7.373,5.268-11.355
			c0.36-1.172,0.487-2.332,0.491-3.556c0.004-0.973-0.079-2.008,0.247-2.946c0.584-1.681,2.264-2.697,2.939-4.339
			c0.461-1.122,0.47-2.412,0.043-3.546c-0.701-1.859-2.473-3.078-3.053-5.016c-0.813-2.719,0.107-5.691,0.007-8.462
			c-0.032-0.879-0.18-1.719-0.597-2.499c-0.473-0.887-1.195-1.616-1.655-2.511c-1.365-2.659-0.619-6.234-0.713-9.079
			c-0.066-1.985-0.465-3.894-1.132-5.763c-0.615-1.721-1.418-3.384-1.795-5.181c-0.737-3.508,0.357-7.125-0.339-10.62
			c-0.266-1.339-1.755-2.982-2.946-1.377c-0.366,0.494-0.482,1.808-1.136,1.994c-0.571,0.163-1.144-0.696-1.41-1.087
			c-1.431-2.1-1.744-4.786-1.863-7.257c-0.21-4.348,0.056-8.676-0.314-13.022c-0.283-3.322-0.427-6.197,0.736-9.363
			c1.479-4.026,2.693-8.073,3.736-12.234c1.142-4.555,2.162-9.149,3.56-13.636c1.284-4.122,2.859-8.16,4.718-12.057
			c1.78-3.733,3.768-7.436,6.336-10.694c2.462-3.125,5.589-5.054,8.89-7.177c3.271-2.103,5.869-4.931,8.429-7.822
			c2.499-2.821,5.154-5.021,8.578-6.654c4.016-1.915,8.272-3.246,12.371-4.959c3.834-1.603,6.864-4.079,10.108-6.618
			c3.417-2.674,7.072-4.735,10.89-6.771c1.839-0.98,3.642-2.006,5.354-3.197c1.775-1.236,3.458-2.599,5.251-3.808
			c1.539-1.038,3.18-1.901,4.942-2.493c1.914-0.643,3.901-0.865,5.857-1.324c0.673-0.158,1.535-0.339,2.051-0.842
			c0.553-0.539,0.326-1.269,0.601-1.923c0.245-0.583,0.858-0.817,1.424-0.992c1.582-0.491,3.263-0.614,4.864-1.041
			c4.054-1.079,7.833-2.635,12.022-3.201c4.073-0.55,8.205-0.38,12.212-1.368c1.999-0.492,3.974-1.09,5.922-1.755
			c1.973-0.674,3.819-1.581,5.752-2.347c3.352-1.327,7.259-1.363,10.812-1.423c4.662-0.079,9.326,0.161,13.986,0.275
			c4.259,0.105,8.479-0.008,12.727-0.313c4.403-0.316,8.652-0.452,13.012,0.388c4.294,0.828,8.462,2.181,12.729,3.127
			c4.293,0.952,8.611,1.365,13.004,1.392c4.423,0.028,8.857-0.216,13.277,0.016c2.019,0.106,4.01,0.372,5.985,0.807
			c1.971,0.434,3.914,1.028,5.913,1.324c2.623,0.388,5.477,0.002,7.9,1.259c0.993,0.515,1.909,1.173,2.997,1.479
			c1.334,0.376,2.771,0.338,4.141,0.291c4.43-0.152,8.835-0.303,13.27-0.197c4.077,0.097,8.155,0.262,12.225,0.512
			c5.095,0.313,10.19,0.659,15.289,0.909c3.756,0.184,7.741,0.434,11.42-0.515c2.007-0.518,3.898-1.407,5.843-2.109
			c2.027-0.732,4.094-1.367,6.189-1.875c3.899-0.947,7.607-1.036,11.588-0.789c4.32,0.268,8.679,0.386,12.96-0.372
			c4.074-0.722,7.844-2.554,11.908-3.283c2.008-0.36,3.966-0.652,5.89-1.358c1.86-0.682,3.649-1.535,5.431-2.398
			c1.867-0.904,3.726-1.909,5.713-2.53c1.809-0.566,3.709-0.747,5.568-1.075c4.179-0.739,8.083-2.42,12.119-3.67
			c4.098-1.269,8.294-2.248,12.291-3.83c3.44-1.361,6.787-3.533,10.491-4.098c1.799-0.274,3.625-0.199,5.409-0.599
			c2.103-0.471,4.127-1.264,6.176-1.92c1.839-0.589,3.718-1.103,5.63-1.387c1.685-0.25,3.387-0.096,5.07-0.307
			c1.414-0.177,2.736-0.775,4.141-1.018c2.021-0.349,4.097-0.409,6.143-0.451c5.131-0.107,10.269-0.046,15.401-0.062
			c3.728-0.012,7.459,0.012,11.178,0.307c4.655,0.368,9.301,0.855,13.974,0.878c4.349,0.021,8.855-0.454,13.177,0.198
			c2.082,0.314,4.078,1.02,6.158,1.351c1.974,0.314,3.971,0.463,5.962,0.622c3.596,0.288,7.35,0.345,10.715,1.801
			c3.105,1.343,5.764,3.658,7.91,6.233c0.528,0.633,1.044,1.154,1.846,1.408c1.224,0.388,2.532,0.414,3.749,0.849
			c2.984,1.067,5.218,3.589,8.231,4.559c1.564,0.504,3.236,0.54,4.816,0.988c1.023,0.29,1.965,0.748,2.861,1.318
			c1.778,1.132,3.328,2.597,5.147,3.665c1.527,0.897,3.218,1.311,4.898,1.82c2.034,0.616,3.526,1.638,4.276,3.698
			c1.063,2.921,1.014,6.357,0.61,9.401c-0.328,2.475-0.973,5.119-2.496,7.155c-1.436,1.92-3.769,3.043-5.793,4.219
			c-1.825,1.061-3.713,2.05-5.682,2.82c-1.432,0.56-2.896,0.752-4.363,1.17c-1.447,0.412-2.854,1.79-2.846,3.386
			c0.007,1.444,1.742,1.973,2.852,2.347c2.13,0.717,4.217,1.447,6.225,2.471c0.776,0.396,1.537,0.821,2.279,1.278
			c0.721,0.444,1.709,0.918,2.277,1.544c1.174,1.293-3.346,2.743-3.955,2.978c-4.998,1.933-10.003,3.85-14.997,5.793
			c-3.498,1.361-6.979,2.829-10.326,4.532c-4.34,2.209-8.641,4.515-13.042,6.601c-3.905,1.851-7.918,3.435-12.117,4.482
			c-4.208,1.05-8.53,1.62-12.846,1.993c-4.554,0.393-9.134,0.557-13.704,0.391c-4.249-0.155-8.473-0.903-12.725-0.917
			c-1.503-0.005-3.02,0.118-4.453,0.595c-1.654,0.551-3.112,1.516-4.598,2.403c-1.646,0.983-3.426,1.576-5.161,2.37
			c-1.345,0.615-2.498,1.433-3.596,2.421c-1.563,1.406-2.983,2.964-4.591,4.322c-1.633,1.379-3.412,2.574-5.226,3.7
			c-3.641,2.26-7.409,4.311-11.092,6.501c-4.031,2.397-8.079,4.77-11.943,7.434c-3.248,2.239-5.996,4.797-8.486,7.853
			c-2.875,3.529-5.634,7.152-8.272,10.861c-2.532,3.559-4.867,7.26-6.912,11.121c-2.084,3.932-3.884,8.013-5.544,12.14
			c-1.854,4.607-3.617,9.252-5.424,13.877c-1.451,3.713-3.208,7.299-4.504,11.071c-1.471,4.283-2.677,8.651-4.019,12.975
			c-0.973,3.138-2.086,6.171-4.376,8.588c-0.928,0.979-1.908,1.917-2.582,3.099c-0.648,1.135-1.049,2.4-1.372,3.66
			c-1.12,4.366-1.64,8.888-2.522,13.305c-0.788,3.951-1.664,7.976-3.342,11.659c-0.748,1.642-1.674,3.183-2.728,4.645
			c-1.11,1.54-2.439,3.038-3.281,4.754c-0.346,0.704-0.464,1.389-0.445,2.167c0.029,1.182-0.108,2.204-0.441,3.348
			c-0.156,0.535-0.438,1.105-0.52,1.65c-0.056,0.374,0.056,0.622,0.161,1.002c0.204,0.739,0.342,1.496,0.439,2.256
			c0.245,1.911,0.241,3.854,0.105,5.773c-0.26,3.659-1.075,7.245-2.328,10.689c-0.354,0.973-0.741,1.932-1.15,2.883
			c-0.376,0.875-1.311,2.151-1.056,3.049c0.567,1.997,1.386,3.914,1.914,5.93c0.533,2.036,0.806,4.088,1.071,6.172
			c0.141,1.109,0.279,2.273,0.744,3.305c1.057,2.348,3.491,2.51,5.714,3.024c0.819,0.189,1.599,0.443,2.331,0.861
			c1.036,0.592,1.932,1.423,3.028,1.911c0.744,0.331,1.549,0.464,2.355,0.54c1.951,0.183,3.871,0.194,5.793,0.627
			c3.728,0.84,7.376,2.445,10.625,4.442c2.227,1.369,4.602,3.102,5.845,5.472c0.606,1.156,0.8,2.426,0.239,3.638
			c-0.73,1.578-2.3,2.705-3.783,3.5c-1.658,0.889-3.491,1.478-5.356,1.717c-1.947,0.249-3.917,0.096-5.867,0.296
			c-1.666,0.17-3.292,0.465-4.971,0.331c-2.04-0.163-4.04-0.601-6.096-0.543c-2.142,0.06-4.259,0.451-6.396,0.584
			c-2.065,0.129-4.129,0-6.192-0.099c-2.201-0.105-4.37-0.096-6.572-0.008c-1.887,0.075-3.736,0.055-5.585-0.373
			c-4.052-0.938-7.727-3.207-11.249-5.333c-0.302-0.182-1.027-0.822-1.389-0.822c-0.427-0.001-1.293,0.733-1.665,0.944
			c-0.937,0.531-1.871,1.067-2.827,1.563c-1.482,0.769-3.014,1.433-4.646,1.809c-1.557,0.358-3.152,0.469-4.746,0.478
			c-1.378,0.008-2.827,0.07-4.181-0.237c-2.557-0.58-5.225-2.214-6.881-4.266c-1.223-1.516-1.752-3.412-1.781-5.339
			c-0.052-3.385,1.018-6.782,2.989-9.517c0.544-0.754,0.946-1.472,1.018-2.415c0.099-1.299-0.18-2.597-0.104-3.897
			c0.06-1.029,0.361-2.019,0.904-2.896c0.661-1.068,1.722-1.794,2.409-2.832c0.674-1.02,0.45-2.155-0.308-3.08
			c-1.351-1.649-3.641-1.311-5.512-1.766c-2.184-0.531-4.16-1.822-5.694-3.444c-2.425-2.565-3.482-5.993-5.305-8.95
			c-1.678-2.721-4.412-3.988-6.788-5.999c-2.899-2.453-5.009-5.785-6.695-9.151c-1.972-3.938-3.354-8.157-5.481-12.018
			c-0.822-1.493-1.789-2.869-2.973-4.097c-1.326-1.375-2.839-2.555-4.148-3.947c-2.651-2.821-4.169-6.536-5.438-10.137
			c-1.521-4.317-2.685-8.763-4.391-13.014c-1.565-3.899-3.888-7.392-5.593-11.212c-0.921-2.062-0.992-4.221-0.826-6.45
			c-5.724,2.786-11.567,5.397-17.454,7.819c-5.793,2.384-11.677,4.137-17.928,4.748c-6.096,0.596-12.092,0.708-18.068,2.186
			c-6.215,1.537-12.343,2.981-18.712,3.735c-6.352,0.753-12.754,1.138-19.149,1.207c-0.697,0.008-1.393,0.007-2.09,0.01
			c0.154,6.321-0.382,12.611,0.96,18.841c0.647,3.002,1.47,5.966,1.863,9.017c0.418,3.246,0.463,6.531,0.593,9.797
			c0.115,2.911,0.373,5.781,1.002,8.632c0.679,3.076,1.579,6.098,2.252,9.176c0.593,2.717,0.972,5.441,1.005,8.225
			c0.026,2.183-0.228,4.585,0.447,6.702c0.391,1.227,1.171,2.243,2.002,3.209c1.654,1.923,3.516,3.819,4.516,6.192
			c0.407,0.967,0.588,2.011,0.98,2.981c0.166,0.412,0.38,0.873,0.82,1.048c1.1,0.437,2.88-0.813,3.734-1.219
			c4.805-2.283,11.057-2.397,16.175-1.15c4.445,1.083,7.839,4.101,9.67,8.277c1.158,2.641,1.884,6.2,0.339,8.852
			c-0.656,1.125-1.729,1.859-2.847,2.476c-2.468,1.361-4.947,2.859-7.522,4.008c-5.007,2.236-10.577,1.359-15.892,1.553
			c-3.067,0.112-6.084,0.175-9.151-0.018c-3.33-0.209-6.659-0.49-9.997-0.513c-6.037-0.043-12.101,1.197-18.125,0.478
			c-3.279-0.392-6.519-1.157-9.752-1.816c-2.708-0.551-5.483-1.167-8.005-2.327c-1.312-0.604-2.546-1.384-3.38-2.59
			c-1.311-1.897-1.63-4.324-2.522-6.417c-1.183-2.775-2.747-5.372-3.864-8.178c-1.028-2.582-1.472-5.261-1.672-8.023
			c-0.223-3.078-0.495-5.998-1.169-9.011c-0.6-2.681-0.927-5.307-0.928-8.059c-0.001-3.082,0.241-6.244-0.234-9.305
			c-0.199-1.282-0.553-2.559-1.404-3.571c-1.114-1.325-2.786-1.955-4.187-2.906c-1.919-1.304-3.467-3.047-4.789-4.941
			c-3.568-5.112-5.681-11.095-8.583-16.581C182.389,503.351,180.774,500.754,179.038,498.227z"/>
	</g>
</g>
</svg>
