<?xml version="1.0" encoding="utf-8"?>
<!-- Generator: Adobe Illustrator 23.0.1, SVG Export Plug-In . SVG Version: 6.00 Build 0)  -->
<!DOCTYPE svg PUBLIC "-//W3C//DTD SVG 1.1//EN" "http://www.w3.org/Graphics/SVG/1.1/DTD/svg11.dtd" [
	<!ENTITY ns_flows "http://ns.adobe.com/Flows/1.0/">
	<!ENTITY ns_extend "http://ns.adobe.com/Extensibility/1.0/">
	<!ENTITY ns_ai "http://ns.adobe.com/AdobeIllustrator/10.0/">
	<!ENTITY ns_graphs "http://ns.adobe.com/Graphs/1.0/">
	<!ENTITY ns_vars "http://ns.adobe.com/Variables/1.0/">
	<!ENTITY ns_imrep "http://ns.adobe.com/ImageReplacement/1.0/">
	<!ENTITY ns_sfw "http://ns.adobe.com/SaveForWeb/1.0/">
	<!ENTITY ns_custom "http://ns.adobe.com/GenericCustomNamespace/1.0/">
	<!ENTITY ns_adobe_xpath "http://ns.adobe.com/XPath/1.0/">
]>
<svg version="1.1" xmlns:x="&ns_extend;" xmlns:i="&ns_ai;" xmlns:graph="&ns_graphs;"
	 xmlns="http://www.w3.org/2000/svg" xmlns:xlink="http://www.w3.org/1999/xlink" xmlns:a="http://ns.adobe.com/AdobeSVGViewerExtensions/3.0/"
	 x="0px" y="0px" viewBox="0 0 750 750" enable-background="new 0 0 750 750" xml:space="preserve">
<metadata>
	<sfw  xmlns="&ns_sfw;">
		<slices></slices>
		<sliceSourceBounds  bottomLeftOrigin="true" height="1567.286" width="3143" x="-1000" y="182.714"></sliceSourceBounds>
	</sfw>
</metadata>
<g id="FILL-BACKGROUND">
	<rect y="0" fill="#FFFFFF" width="750" height="750"/>
</g>
<g id="N-DIMS">
</g>
<g id="N-TEXT">
</g>
<g id="AG-DIAGRAM">
</g>
<g id="AG-ANIMALS">
	<g id="POLYLINE_42_">
		
			<path fill="none" stroke="#FB8604" stroke-width="2.75" stroke-linecap="round" stroke-linejoin="round" stroke-miterlimit="10" d="
			M460.782,483.798c3.206-4.446,6.408-8.889,8.744-13.868c1.983-4.224,3.412-8.805,6.002-12.722
			c2.677-4.051,6.811-6.66,11.757-6.471c2.557,0.098,5.099,0.849,7.36,2.031"/>
	</g>
	<g id="POLYLINE_41_">
		
			<path fill="none" stroke="#FB8604" stroke-width="2.75" stroke-linecap="round" stroke-linejoin="round" stroke-miterlimit="10" d="
			M481.521,395.226c1.131,9.203,2.489,18.347,4.59,27.386c1.978,8.508,3.548,17.564,6.508,25.805
			c2.486,6.922,9.179,13.338,16.199,15.633c3.215,1.051,6.794,0.945,10.055,0.16"/>
	</g>
	<g id="POLYLINE_40_">
		
			<path fill="none" stroke="#FB8604" stroke-width="2.75" stroke-linecap="round" stroke-linejoin="round" stroke-miterlimit="10" d="
			M573.612,439.869c-2.794,5.52-5.336,11.172-8.263,16.624c-1.357,2.527-3.127,5.094-3.618,7.985
			c-0.649,3.825,0.741,8.406,3.077,11.483c3.341,4.402,9.232,5.526,13.052,9.397c2.083,2.111,3.733,4.259,6.227,5.908
			c3.835,2.537,8.158,4.264,11.92,6.921c4.687,3.309,7.821,7.325,13.834,7.932c8.489,0.858,16.801-1.855,24.693-4.585
			c4.922-1.703,10.026-2.741,15.155-3.602c4.202-0.705,8.808-1.003,12.758-2.775c5.605-2.515,8.466-8.568,10.44-14.041
			c2.484-6.885,3.306-13.708,1.919-20.925c-1.017-5.29-2.584-10.448-3.115-15.825c-0.371-3.763,0.269-8.036-0.812-11.677
			c-0.922-3.107-4.256-4.607-7.018-5.766c-8.385-3.519-14.679-11.5-20.692-18.091c-4.228-4.635-6.555-9.587-6.142-16.038
			c0.32-5.002,4.17-8.261,6.195-12.62c3.814-8.212,0.683-17.373-8.172-20.501c-3.559-1.257-6.257-1.094-8.146-4.549
			c-1.629-2.979-2.441-6.365-3.946-9.42c-1.501-3.047-2.715-5.65-3.219-9.025c-0.464-3.109-1.957-13.535-7.064-9.438
			c-1.73,1.388-2.751,3.1-5.106,2.594c-3.509-0.754-7.101-3.969-10.044-5.794c-4.257-2.641-7.868-6.051-11.989-8.86
			c-7.297-4.973-16.877-6.741-25.235-9.043c-13.108-3.611-26.286-6.949-39.497-10.159c-12.465-3.028-24.744-4.926-37.467-6.399
			c-8.268-0.957-15.667-4.955-23.868-5.969c-10.675-1.32-21.162,0.464-31.772-2.046c-11.961-2.83-23.684-5.609-35.999-6.471
			c-12.211-0.855-24.62,0.399-36.876,0.14c-14.309-0.302-28.607-1.179-42.901-1.862c-24.742-1.182-49.544,0.215-74.031,3.912
			c-25.445,3.841-50.412,9.643-73.025,22.342c-11.298,6.345-22.031,13.806-31.962,22.128c-4.268,3.577-8.351,7.361-12.211,11.374
			c-3.615,3.759-7.02,7.901-11.117,11.164c-5.873,4.677-11.782,7.649-16.499,13.672c-5.238,6.687-8.933,14.528-10.761,22.82
			c-5.146,23.348-0.77,48.744,9.141,70.162c4.507,9.74,9.72,17.883,17.424,25.339"/>
	</g>
	<g id="POLYLINE_39_">
		
			<path fill="none" stroke="#FB8604" stroke-width="2.75" stroke-linecap="round" stroke-linejoin="round" stroke-miterlimit="10" d="
			M567.001,353.316c-5.443-2.91-16.217-10.881-12.74-18.549c2.354-5.19,7.074,0.025,9.965,1.845
			c3.799,2.393,8.345,3.45,12.678,1.985"/>
	</g>
	<g id="POLYLINE_38_">
		
			<path fill="none" stroke="#FB8604" stroke-width="2.75" stroke-linecap="round" stroke-linejoin="round" stroke-miterlimit="10" d="
			M603.671,432.019c-5.691,4.146-8.687,9.124-9.762,16.059c-1.045,6.741-0.735,13.674-0.262,20.451
			c0.489,7.004,0.377,14.514,2.153,21.364c1.352,5.218,4.098,10.136,7.614,14.203"/>
	</g>
	<g id="POLYLINE_37_">
		
			<path fill="none" stroke="#FB8604" stroke-width="2.75" stroke-linecap="round" stroke-linejoin="round" stroke-miterlimit="10" d="
			M456.997,554.347c2.686,1.384,5.288,1.541,8.291,1.581c4.36,0.059,9.968,0.892,14.25-0.223c1.166-0.303,1.897-0.79,2.44-1.885
			c4.096-8.255-9.279-11.999-14.057-13.609c-4.878-1.644-8.196-4.642-10.936-8.96c-1.942-3.06-3.69-6.064-5.743-9.036
			c-0.858-1.242-1.455-2.467-1.602-3.987c-0.218-2.244,0.496-4.478,1.301-6.537c1.23-3.147,1.855-5.235,2.016-8.568
			c0.268-5.552,4.54-8.956,6.468-13.944c2.958-7.655,1.646-16.304,2.392-24.291c0.643-6.884,3.075-13.544,6.322-19.613
			c0.954-1.784,2-3.519,3.159-5.178"/>
	</g>
	<g id="POLYLINE_36_">
		
			<path fill="none" stroke="#FB8604" stroke-width="2.75" stroke-linecap="round" stroke-linejoin="round" stroke-miterlimit="10" d="
			M434.574,555.626c1.543-7.978,11.546-13.138,18.516-8.563c2.418,1.587,6.875,6.739,2.167,8.307
			c-3.222,1.073-7.417,0.544-10.703,0.58c-4.266,0.047-8.745,0.144-12.945-0.753c-3.627-0.775-5.251-2.563-6.394-6.009
			c-1.091-3.289-1.986-6.352-3.654-9.395c-1.57-2.864-3.292-5.523-3.882-8.776c-1.181-6.501-0.189-13.875-4.112-19.612
			c-1.372-2.007-2.944-3.656-3.912-5.914c-1.861-4.341-2.482-9.237-3.483-13.809c-1.822-8.318-4.913-15.954-4.25-24.589
			c0.176-2.295,0.523-4.574,0.977-6.83"/>
	</g>
	<g id="POLYLINE_35_">
		
			<path fill="none" stroke="#FB8604" stroke-width="2.75" stroke-linecap="round" stroke-linejoin="round" stroke-miterlimit="10" d="
			M463.367,555.877c0.246-6.38,5.281-12.571,12.107-11.854c1.463,0.154,2.913,0.632,4.181,1.374"/>
	</g>
	<g id="POLYLINE_34_">
		
			<path fill="none" stroke="#FB8604" stroke-width="2.75" stroke-linecap="round" stroke-linejoin="round" stroke-miterlimit="10" d="
			M161.643,498.418c12.149-5.316,23.14-3.843,35.784-0.488c17.4,4.617,34.405,10.898,52.337,13.239
			c17.092,2.231,34.538,1.412,51.625-0.458c16.645-1.821,33.519-4.708,49.24-10.645c15.716-5.935,29.696-15.017,46.298-18.525
			c2.072-0.438,4.15-0.849,6.225-1.269"/>
	</g>
	<g id="POLYLINE_33_">
		
			<path fill="none" stroke="#FB8604" stroke-width="2.75" stroke-linecap="round" stroke-linejoin="round" stroke-miterlimit="10" d="
			M179.06,555.087c2.299,0.925,7.867,1.812,8.706-1.589c0.63-2.556-1.731-6.104-3.096-7.99c-3.173-4.384-7.553-6.206-12.301-8.417
			c-8.24-3.835-14.134-12.279-15.016-21.455c-0.495-5.152,1.297-10.306,3.287-14.972c3.703-8.678,8.758-17.375,15.005-24.48
			c5.894-6.704,13.257-9.454,22.196-8.959c1.018,0.056,2.033,0.168,3.041,0.32"/>
	</g>
	<g id="POLYLINE_32_">
		
			<path fill="none" stroke="#FB8604" stroke-width="2.75" stroke-linecap="round" stroke-linejoin="round" stroke-miterlimit="10" d="
			M510.572,377.503c-4.132,11.902-6.58,24.145-7.397,36.72c-0.705,10.852-0.748,22.609,3.065,32.956
			c2.95,8.004,8.045,14.141,15.141,18.777c2.663,1.74,5.561,3.256,8.72,3.826c4.047,0.73,8.082-0.286,12.14-0.188
			c3.252,0.079,5.822,1.84,8.936,2.468c3.668,0.739,7.648-0.275,11.214-1.01"/>
	</g>
	<g id="POLYLINE_31_">
		
			<path fill="none" stroke="#FB8604" stroke-width="2.75" stroke-linecap="round" stroke-linejoin="round" stroke-miterlimit="10" d="
			M157.15,554.739c3.842,1.198,7.921,1.147,11.913,1.18c2.896,0.024,6.958,0.468,9.724-0.729c0.963-0.417,1.512-0.806,1.683-1.875
			c0.453-2.825-3.51-6.53-5.446-7.85c-2.504-1.707-5.972-0.752-8.496,0.507c-3.675,1.834-5.544,5.566-5.759,9.579"/>
	</g>
	<g id="POLYLINE_30_">
		
			<path fill="none" stroke="#FB8604" stroke-width="2.75" stroke-linecap="round" stroke-linejoin="round" stroke-miterlimit="10" d="
			M177.138,547.423c1.327-1.791,3.816-3.646,6.133-2.779c0.566,0.212,1.105,0.629,1.529,1.045"/>
	</g>
	<g id="POLYLINE_29_">
		
			<path fill="none" stroke="#FB8604" stroke-width="2.75" stroke-linecap="round" stroke-linejoin="round" stroke-miterlimit="10" d="
			M104.564,456.545c3.432,3.721,5.314,7.866,5.109,12.983c-0.191,4.761-0.972,9.761-2.031,14.402
			c-0.733,3.213-2.049,6.269-2.544,9.54c-0.934,6.174,1.745,10.461,4.992,15.536c3.574,5.586,6.797,11.391,9.869,17.266
			c2.565,4.905,4.643,10.21,7.726,14.822c1.396,2.089,3.629,3.399,5.005,5.432c0.958,1.415,0.902,3.121,1.563,4.655
			c1.048,2.432,3.321,3.336,5.805,3.93c1.985,0.475,19.249,3.531,17.475-2.649c-0.902-3.142-5.303-7.448-8.716-7.545
			c-3.976-0.113-9.289,2.783-11.758,5.855c-0.589,0.733-1.058,1.543-1.441,2.402"/>
	</g>
	<g id="POLYLINE_28_">
		
			<path fill="none" stroke="#FB8604" stroke-width="2.75" stroke-linecap="round" stroke-linejoin="round" stroke-miterlimit="10" d="
			M184.338,555.793c6.585,0.91,9.368-1.347,6.002-7.163c-2.649-4.577-6.438-8.391-9.277-12.849
			c-2.573-4.04-4.374-8.538-5.784-13.102c-1.558-5.042-2.547-10.503-1.364-15.736c1.313-5.805,5.309-9.806,10.827-11.758"/>
	</g>
	<g id="POLYLINE_27_">
		
			<path fill="none" stroke="#FB8604" stroke-width="2.75" stroke-linecap="round" stroke-linejoin="round" stroke-miterlimit="10" d="
			M638.523,446.146c-3.368,2.646-5.336,6.852-4.256,11.087c0.846,3.318,3.06,6.61,6.623,7.239c2.788,0.492,5.72-0.414,8.544-0.388
			c5.25,0.048,10.892-0.594,15.976-1.871c3.008-0.755,3.822-2.196,4.116-5.267c0.354-3.697,0.346-9.341-3.233-11.593
			c-0.448-0.282-0.96-0.503-1.454-0.689"/>
	</g>
</g>
<g id="AG-PEOPLE">
</g>
<g id="AG-OUTLINE">
	<g id="POLYLINE_1_">
		
			<path fill="none" stroke="#FB8604" stroke-width="3.5" stroke-linecap="round" stroke-linejoin="round" stroke-miterlimit="10" d="
			M108.881,476.283c-15.912-15.397-25.12-38.133-27.494-59.938c-2.141-19.668-1.445-40.608,10.71-57.097
			c4.728-6.414,10.33-9.637,16.615-14.296c8.178-6.063,14.386-14.745,22.107-21.424c18.565-16.061,40.112-29.262,63.556-36.771
			c24.181-7.746,50.147-11.246,75.412-12.986c25.492-1.756,50.774,0.352,76.25,1.203c12.619,0.422,25.116,0.139,37.725-0.101
			c11.412-0.217,23.133,1.569,34.202,4.242c5.506,1.33,10.961,3.007,16.588,3.768c5.687,0.769,11.435,0.408,17.153,0.38
			c3.99-0.02,7.96,0.149,11.848,1.101c4.364,1.069,8.479,2.954,12.841,4.029c5.137,1.265,10.496,1.55,15.739,2.089
			c5.887,0.605,11.711,1.671,17.492,2.921c12.303,2.66,24.528,5.768,36.698,8.976c11.324,2.985,23.439,5.429,34.228,10.086
			c2.491,1.075,4.746,2.461,6.89,4.119c4.641,3.591,9.161,6.896,14.187,9.942c1.99,1.206,5.188,4.163,7.912,3.252
			c1.947-0.651,3.025-3.676,5.194-3.663c1.534,0.009,2.598,1.883,3.185,3.021c1.35,2.615,1.461,5.522,1.943,8.366
			c0.553,3.259,1.968,5.835,3.398,8.799c1.685,3.491,2.335,8.978,5.722,11.379c1.724,1.222,4.018,1.286,5.957,1.954
			c1.854,0.639,3.561,1.64,5.051,2.914c8.489,7.258,4.254,16.44-0.848,24.19c-8.267,12.558,6.373,24.983,14.289,32.661
			c2.45,2.376,4.993,5.138,8.132,6.617c2.15,1.013,4.41,1.665,6.392,3.023c3.761,2.577,3.238,6.228,3.421,10.482
			c0.408,9.46,4.211,18.468,4.218,27.888c0.005,6.78-2.161,13.874-5.381,19.802c-2.79,5.136-6.63,8.128-12.351,9.34
			c-5.556,1.178-11.213,1.767-16.749,3.074c-5.332,1.259-10.331,3.514-15.632,4.862c-5.751,1.462-12.549,2.71-18.441,1.159
			c-5.638-1.484-9.443-6.731-14.412-9.566c-3.635-2.074-7.704-3.768-10.873-6.57c-1.881-1.663-3.283-3.797-5.227-5.393
			c-4.079-3.348-9.6-4.557-12.481-9.282c-0.454-0.745-0.751-1.543-1.141-2.316c-0.722-1.433-0.202-1.28-1.963-1.169
			c-1.252,0.078-2.533,0.496-3.783,0.665c-2.097,0.284-4.257,0.453-6.338-0.033c-2.472-0.577-4.648-2-7.198-2.309
			c-3.526-0.427-7.098,0.473-10.635,0.379c-3.011-0.08-5.805-0.891-8.479-2.258c-1.303-0.666-2.545-1.443-3.757-2.261
			c-1.801-1.216-2.129-1.171-4.105-0.91c-3.957,0.521-7.778-0.118-11.218-2.162c-2.794-1.66-5.5-3.761-7.812-6.045
			c-1.629-1.609-2.542-3.583-4.703-4.443c-4.004-1.593-8.612-1.814-12.434,0.385c-6.126,3.524-8.079,11.38-10.839,17.323
			c-2.207,4.753-5.463,8.693-8.152,13.138c-1.369,2.263-1.462,5.208-2.63,7.68c-1.375,2.909-3.693,5.279-5.007,8.202
			c-0.932,2.073-0.788,4.132-0.946,6.366c-0.337,4.77-4.117,8.964-3.171,13.881c0.344,1.785,1.4,3.113,2.485,4.526
			c2.113,2.752,3.479,5.925,5.427,8.789c3.235,4.753,7.155,7.029,12.573,8.657c4.563,1.371,15.976,6.159,11.595,13.231
			c-0.711,1.148-1.662,1.465-2.964,1.653c-5.056,0.728-10.897,0.35-16.011,0.048c-1.059-0.063-2.145-0.118-3.176-0.391
			c-0.819-0.217-2.079-1.079-2.734-1.023c-0.245,0.021-1.104,0.734-1.434,0.864c-2.982,1.173-7.19,0.598-10.247,0.639
			c-4.853,0.065-13.452,1.16-17.626-2.416c-3.313-2.838-3.366-8.483-5.266-12.243c-1.482-2.933-3.507-5.672-4.378-8.881
			c-1.153-4.249-0.812-8.825-1.58-13.157c-0.428-2.418-1.008-4.872-2.28-6.999c-1.127-1.885-2.744-3.421-3.8-5.357
			c-1.682-3.084-2.347-6.713-3.067-10.108c-0.637-3-1.228-6.014-2.006-8.981c-0.44-1.677-0.93-3.341-1.399-5.009
			c-0.551-1.96-0.155-2.255-2.055-2.24c-2.848,0.023-6.283,1.259-9.054,1.933c-2.713,0.66-5.402,1.423-8.037,2.347
			c-5.068,1.777-9.86,4.205-14.688,6.534c-10.988,5.3-21.929,10.152-33.778,13.222c-23.57,6.107-48.977,8.824-73.308,7.72
			c-12.074-0.548-23.901-2.615-35.557-5.775c-12.27-3.326-24.334-7.562-36.768-10.251c-3.746-0.81-6.143-1.384-9.45,0.544
			c-2.147,1.252-3.996,2.952-5.284,5.09c-2.077,3.449-2.658,7.628-2.416,11.59c0.45,7.37,3.275,15.097,7.051,21.377
			c2.579,4.29,6.023,7.956,8.798,12.106c1.059,1.584,2.541,3.64,2.717,5.62c0.396,4.446-7.117,3.474-9.808,3.268
			c-1.783-0.136-2.868-0.655-4.609-0.389c-4.107,0.628-8.35,0.503-12.488,0.34c-2.364-0.094-5.862-1.203-8.094-0.988
			c-0.947,0.091-2.108,0.814-3.131,0.975c-5.067,0.802-11.867,0.681-16.611-1.602c-2.574-1.239-2.889-2.883-3.666-5.506
			c-1.053-3.555-4.591-5.397-6.502-8.528c-6.06-9.927-10.416-20.806-16.69-30.66c-2.939-4.617-5.934-8.756-5.508-14.432
			c0.155-2.059,0.656-4.055,1.241-6.028C107.421,484.781,108.238,480.71,108.881,476.283z"/>
	</g>
</g>
</svg>
