<?xml version="1.0" encoding="utf-8"?>
<!-- Generator: Adobe Illustrator 23.0.1, SVG Export Plug-In . SVG Version: 6.00 Build 0)  -->
<!DOCTYPE svg PUBLIC "-//W3C//DTD SVG 1.1//EN" "http://www.w3.org/Graphics/SVG/1.1/DTD/svg11.dtd" [
	<!ENTITY ns_extend "http://ns.adobe.com/Extensibility/1.0/">
	<!ENTITY ns_ai "http://ns.adobe.com/AdobeIllustrator/10.0/">
	<!ENTITY ns_graphs "http://ns.adobe.com/Graphs/1.0/">
	<!ENTITY ns_vars "http://ns.adobe.com/Variables/1.0/">
	<!ENTITY ns_imrep "http://ns.adobe.com/ImageReplacement/1.0/">
	<!ENTITY ns_sfw "http://ns.adobe.com/SaveForWeb/1.0/">
	<!ENTITY ns_custom "http://ns.adobe.com/GenericCustomNamespace/1.0/">
	<!ENTITY ns_adobe_xpath "http://ns.adobe.com/XPath/1.0/">
]>
<svg version="1.1" xmlns:x="&ns_extend;" xmlns:i="&ns_ai;" xmlns:graph="&ns_graphs;"
	 xmlns="http://www.w3.org/2000/svg" xmlns:xlink="http://www.w3.org/1999/xlink" x="0px" y="0px" viewBox="0 0 750 750"
	 enable-background="new 0 0 750 750" xml:space="preserve">
<metadata>
	<sfw  xmlns="&ns_sfw;">
		<slices></slices>
		<sliceSourceBounds  bottomLeftOrigin="true" height="2343.243" width="4178.5" x="-800.5" y="-1593.243"></sliceSourceBounds>
	</sfw>
</metadata>
<g id="FILL-BACKGROUND">
	<rect y="0" fill="#FFFFFF" width="750" height="750"/>
</g>
<g id="N-DIMENSIONS">
</g>
<g id="N-TEXT">
</g>
<g id="AG-DIAGRAM">
</g>
<g id="AG-PEOPLE">
</g>
<g id="AG-DETAILS">
	<g id="POLYLINE_1303_">
		
			<path fill="none" stroke="#FB8604" stroke-width="1.5" stroke-linecap="round" stroke-linejoin="round" stroke-miterlimit="10" d="
			M627.911,300.083c-5.94-7.097-12.737-13.074-19.556-19.294c-1.393-1.27-3.991-3.445-3.93-5.63
			c0.025-0.875-0.151-1.109,0.701-0.805c0.37,0.132,0.753,0.888,0.981,1.178c1.198,1.529,2.228,3.18,3.461,4.685
			c1.47,1.794,3.114,3.4,4.888,4.893c5.607,4.72,10.779,8.336,14.974,14.362"/>
	</g>
	<g id="POLYLINE_1302_">
		
			<path fill="none" stroke="#FB8604" stroke-width="1.5" stroke-linecap="round" stroke-linejoin="round" stroke-miterlimit="10" d="
			M603.457,255.649c1.439,3.064,1.62,5.704,2.007,8.977c0.264,2.232,1.378,3.983,2.654,5.811c2.43,3.483,4.703,7.595,7.471,10.814
			c2.687,3.126,6.573,5.246,9.53,8.152c2.744,2.696,5.625,5.558,7.111,9.169"/>
	</g>
	<g id="POLYLINE_1301_">
		
			<path fill="none" stroke="#FB8604" stroke-width="1.5" stroke-linecap="round" stroke-linejoin="round" stroke-miterlimit="10" d="
			M601.911,256.318c0.036-1.009,0-2.02-0.108-3.024"/>
	</g>
	<g id="POLYLINE_1300_">
		
			<path fill="none" stroke="#FB8604" stroke-width="1.5" stroke-linecap="round" stroke-linejoin="round" stroke-miterlimit="10" d="
			M601.911,256.318c-1.204,5.912,0.869,10.503,4.194,15.291c2.039,2.936,2.9,6.343,5.289,9.103
			c3.645,4.211,8.49,7.021,12.789,10.473c2.749,2.207,4.885,4.753,6.703,7.778"/>
	</g>
	<g id="POLYLINE_1299_">
		
			<path fill="none" stroke="#FB8604" stroke-width="1.5" stroke-linecap="round" stroke-linejoin="round" stroke-miterlimit="10" d="
			M592.216,243.152c-0.669,3.81,0.656,5.307,2.936,8.275c2.181,2.839,2.921,5.999,3.24,9.509c0.068,0.75,1.087,6.193,2.023,5.285
			c0.357-0.347,0.003-5.33,0.047-6.184c0.077-1.492-0.111-2.757-0.653-4.162c-1.246-3.23-4.364-5.586-3.86-9.261"/>
	</g>
	<g id="POLYLINE_1298_">
		
			<path fill="none" stroke="#FB8604" stroke-width="1.5" stroke-linecap="round" stroke-linejoin="round" stroke-miterlimit="10" d="
			M580.537,232.28c1.859,4.342,2.977,8.674,4.208,13.229c0.79,2.921,1.715,5.853,3.779,8.144c1.107,1.229,2.676,2.185,3.409,3.719
			c0.387,0.81,0.273,1.845,0.776,2.594c0.461,0.686,1.655,1.513,2.529,1.236c1.576-0.499,0.681-3.04,0.389-4.272
			c-0.682-2.88-2.699-4.726-4.118-7.242c-2.144-3.801-3.214-8.648-4.164-12.861"/>
	</g>
	<g id="POLYLINE_1297_">
		
			<path fill="none" stroke="#FB8604" stroke-width="1.5" stroke-linecap="round" stroke-linejoin="round" stroke-miterlimit="10" d="
			M566.101,218.759c0.308-2.121,4.306-11.329,7.419-8.226c0.509,0.508,0.795,1.416,0.908,2.105"/>
	</g>
	<g id="POLYLINE_1296_">
		
			<path fill="none" stroke="#FB8604" stroke-width="1.5" stroke-linecap="round" stroke-linejoin="round" stroke-miterlimit="10" d="
			M583.429,232.354c1.299-1.173,2.588-1.845,4.332-1.991c2.212-0.185,5.447,1.217,7.478,0.162c1.227-0.637,1.202-1.616,0.085-2.28
			c-1.193-0.709-3.224-0.391-4.502-0.513c-1.784-0.17-3.549-0.602-5.236-1.201"/>
	</g>
	<g id="POLYLINE_1295_">
		
			<path fill="none" stroke="#FB8604" stroke-width="1.5" stroke-linecap="round" stroke-linejoin="round" stroke-miterlimit="10" d="
			M585.299,265.961c-3.958,0.038,0.261,4.043,1.413,5.74c1.554,2.29,3.005,2.903,5.692,2.099c2.56-0.767,5.103-1.627,7.652-2.395
			c0.439-0.132,1.626-0.405,1.726-1.023c0.155-0.955-2.246-2.067-2.854-2.698c-1.216-1.263-2.115-3.097-3.745-3.912
			c-3.143-1.572-6.445,1.349-9.328,2.079C585.671,265.898,585.487,265.933,585.299,265.961z"/>
	</g>
	<g id="POLYLINE_1294_">
		
			<path fill="none" stroke="#FB8604" stroke-width="1.5" stroke-linecap="round" stroke-linejoin="round" stroke-miterlimit="10" d="
			M587.334,261.272c-4.592-2.703-4.232-3.491-5.451-8.558c-0.568-2.359-2.361-4.031-3.116-6.28
			c-0.895-2.664-0.064-5.964-0.007-8.716c0.017-0.797-0.273-2.165,0.543-1.804c1.625,0.719,2.165,7.83,2.382,8.978
			c0.516,2.733,1.348,5.136,2.965,7.433c1.518,2.156,3.78,3.961,4.537,6.576c0.31,1.072,0.807,3.209-0.664,3.114
			C588.171,261.992,587.572,261.443,587.334,261.272z"/>
	</g>
	<g id="POLYLINE_1293_">
		
			<path fill="none" stroke="#FB8604" stroke-width="1.5" stroke-linecap="round" stroke-linejoin="round" stroke-miterlimit="10" d="
			M552.577,307.408c-0.659,0.444-1.581-1.722-1.704-2.079c-1.17-3.396,0.934-7.067,1.659-10.304
			c1.199-5.346,0.516-10.877,1.87-16.235c1.385-5.486,2.041-11.412,4.177-16.671c0.977-2.407,2.025-3.556,3.826-5.203
			c0.833-0.761,2.55-4.314,2.906-3.925c0.417,0.455-0.494,2.9-0.637,3.394c-0.874,3.019-2.365,5.824-3.526,8.735
			c-2.468,6.191-4.941,12.941-5.337,19.654c-0.139,2.351,0.142,4.798-0.352,7.121c-0.383,1.801-1.465,3.269-2.111,4.971
			c-1.266,3.333,0.418,6.95-0.586,10.15C552.719,307.153,552.703,307.313,552.577,307.408z"/>
	</g>
	<g id="POLYLINE_1292_">
		
			<path fill="none" stroke="#FB8604" stroke-width="1.5" stroke-linecap="round" stroke-linejoin="round" stroke-miterlimit="10" d="
			M561.994,250.629c-4.119,2.061-6.575,5.953-7.446,10.396c-0.726,3.703-1.868,7.965-1.987,11.739
			c-0.011,0.341-0.15,2.16,0.358,2.381c1.536,0.666,2.524-9.877,2.589-10.305c0.567-3.76,1.806-7.495,4.351-10.397
			c4.375-4.988,11.036-8.096,13.063-14.802"/>
	</g>
	<g id="POLYLINE_1291_">
		
			<path fill="none" stroke="#FB8604" stroke-width="1.5" stroke-linecap="round" stroke-linejoin="round" stroke-miterlimit="10" d="
			M558.787,286.982c-1.748-0.528,0.02-7.648,0.419-8.727c1.396-3.771,3.755-7.103,5.096-10.918c1.145-3.257,1.217-6.535,1.804-9.913
			c0.184-1.058,1.841-6.881,2.907-5.235c0.488,0.753-0.24,2.929-0.274,3.894c-0.074,2.064,0.125,4.128,0.028,6.192
			c-0.107,2.28-0.542,4.536-1.255,6.704c-1.32,4.013-3.841,7.416-5.638,11.207C561.47,281.038,559.715,287.196,558.787,286.982z"/>
	</g>
	<g id="POLYLINE_1290_">
		
			<path fill="none" stroke="#FB8604" stroke-width="1.5" stroke-linecap="round" stroke-linejoin="round" stroke-miterlimit="10" d="
			M556.215,310.23c2.088-2.954,1.799-7.092,3.75-10.236c2.356-3.796,3.36-8.114,5.791-11.839c3.483-5.338,5.808-11.208,9.166-16.587
			c1.463-2.343,0.818-5.168,0.297-7.747c-0.279-1.384-2.082-10.665-3.408-10.239c-1.402,0.45-0.826,5.031-0.654,6.026
			c0.321,1.86,0.995,3.65,0.852,5.561c-0.179,2.39-1.355,4.681-2.244,6.864c-1.865,4.581-3.604,9.248-5.768,13.7
			c-2.016,4.147-4.46,8.069-6.301,12.304c-1.276,2.935-2.445,6.024-2.993,9.192c-0.119,0.688-0.562,2.231-0.145,2.934
			c0.328,0.553,0.556,0.884,1.24,0.469C555.955,310.538,556.114,310.38,556.215,310.23z"/>
	</g>
	<g id="POLYLINE_1289_">
		
			<path fill="none" stroke="#FB8604" stroke-width="1.5" stroke-linecap="round" stroke-linejoin="round" stroke-miterlimit="10" d="
			M563.013,315.038c1.227-4.521,3.206-8.444,5.474-12.533c2.516-4.538,4.526-8.937,6.44-13.74c1.838-4.613,6.14-8.222,6.852-13.253
			c0.333-2.351-0.516-4.323-1.165-6.546c-0.653-2.236-0.657-4.258-0.406-6.564c0.37-3.401,0.335-6.2-0.861-9.458
			c-0.728-1.981-1.796-3.218-2.836-4.919c-0.589-0.965-0.178-3.794-0.802-4.075c-1.492-0.674-2.813,4.169-2.853,4.934
			c-0.167,3.189,2.308,5.002,2.926,7.906c0.768,3.607,1.014,6.533,2.32,9.985c0.736,1.947,1.118,4.033,0.95,6.12
			c-0.145,1.799-0.729,3.197-1.853,4.588c-2.232,2.763-3.927,4.905-5.332,8.229c-2.595,6.138-5.401,11.854-8.634,17.678
			c-1.484,2.673-3.415,6.052-3.544,9.207c-0.022,0.538,0.012,1.051,0.152,1.577"/>
	</g>
	<g id="POLYLINE_1288_">
		
			<path fill="none" stroke="#FB8604" stroke-width="1.5" stroke-linecap="round" stroke-linejoin="round" stroke-miterlimit="10" d="
			M569.487,318.429c0.889-2.476,1.742-4.859,2.098-7.467c0.366-2.68,0.25-5.741,1.425-8.258c0.961-2.059,3.225-3.121,3.718-5.391
			c0.919-4.235-0.049-8.945,3.43-12.36c0.849-0.833,1.817-1.289,2.961-1.573c1.086-0.27,3.404,0.135,4.192-0.731
			c0.893-0.982-0.495-2.156-1.056-2.939c-0.536-0.748-2.142-3.488-1.133-4.295c0.783-0.626,3.775,3.194,4.981,3.744
			c3.456,1.577,6.064-0.011,9.164-1.218c1.329-0.517,2.198-0.141,3.486,0.583c2.866,1.611,5.36,4.027,7.605,6.388
			c3.381,3.556,7.014,6.616,10.695,9.866c2.087,1.843,4.115,3.754,6.158,5.645"/>
	</g>
	<g id="POLYLINE_1287_">
		
			<path fill="none" stroke="#FB8604" stroke-width="1.5" stroke-linecap="round" stroke-linejoin="round" stroke-miterlimit="10" d="
			M573.456,319.633c1.184-3.061,0.783-5.878,1.412-9.039c0.536-2.694,2.341-4.781,3.517-7.202
			c2.317-4.768,1.217-10.916,5.229-14.909c3.726-3.708,9.317-1.66,13.919-2.468c2.087-0.367,3.491-2.372,5.634-2.181
			c3.002,0.268,6.285,3.284,8.562,4.841c5.239,3.582,10.466,7.43,14.621,12.272"/>
	</g>
	<g id="POLYLINE_1286_">
		
			<path fill="none" stroke="#FB8604" stroke-width="1.5" stroke-linecap="round" stroke-linejoin="round" stroke-miterlimit="10" d="
			M576.81,321.729c3.947-5.783,4.157-12.835,5.814-19.466c0.915-3.662,2.17-8.021,5.825-9.843c4.088-2.038,9.09-0.429,13.13-2.523
			c2.688-1.393,3.944-1.577,7.094-0.626c6.934,2.092,12.098,7.12,17.035,12.233"/>
	</g>
	<g id="POLYLINE_1285_">
		
			<path fill="none" stroke="#FB8604" stroke-width="1.5" stroke-linecap="round" stroke-linejoin="round" stroke-miterlimit="10" d="
			M580.722,323.812c3.624-8.084,2.332-20.878,10.64-26.114c4.05-2.553,9.5-3.542,14.158-4.074c2.881-0.329,5.681-0.193,8.373,0.945
			c4.137,1.748,8.123,4.684,11.217,7.926"/>
	</g>
	<g id="POLYLINE_1284_">
		
			<path fill="none" stroke="#FB8604" stroke-width="1.5" stroke-linecap="round" stroke-linejoin="round" stroke-miterlimit="10" d="
			M625.196,304.652c-2.876-2.426-6.626-5.256-10.429-5.905c-4.895-0.836-10.87,0.482-15.48,1.991
			c-6.807,2.228-10.954,9.618-12.521,16.257c-0.753,3.192-0.549,6.358,0.348,9.497"/>
	</g>
	<g id="POLYLINE_1283_">
		
			<path fill="none" stroke="#FB8604" stroke-width="1.5" stroke-linecap="round" stroke-linejoin="round" stroke-miterlimit="10" d="
			M591.201,328.081c-1.569-5.694-1.74-15.499,3.232-19.696c2.205-1.861,5.325-1.598,7.951-2.38c4.015-1.196,6.96-3.751,11.356-3.391
			c4.488,0.368,9.053,2.251,12.678,4.879"/>
	</g>
	<g id="POLYLINE_1282_">
		
			<path fill="none" stroke="#FB8604" stroke-width="1.5" stroke-linecap="round" stroke-linejoin="round" stroke-miterlimit="10" d="
			M628.204,310.666c-1.766,0.949-2.915,0.869-4.791,0.258c-3.49-1.137-6.391-1.842-10.094-1.31
			c-4.971,0.714-10.515,2.432-15.033,4.558c-1.531,0.72-2.717,1.635-3.367,3.221c-1.574,3.842,0.271,8.978,1.405,12.609"/>
	</g>
	<g id="POLYLINE_1281_">
		
			<path fill="none" stroke="#FB8604" stroke-width="1.5" stroke-linecap="round" stroke-linejoin="round" stroke-miterlimit="10" d="
			M601.247,331.698c-2.524-3.513-4.452-11.057-0.407-14.385c2.198-1.809,5.795-1.323,8.368-1.544
			c3.557-0.304,6.666-1.674,10.26-1.006c4.142,0.77,6.599,1.703,10.522,0.028"/>
	</g>
	<g id="POLYLINE_1280_">
		
			<path fill="none" stroke="#FB8604" stroke-width="1.5" stroke-linecap="round" stroke-linejoin="round" stroke-miterlimit="10" d="
			M628.407,322.089c-2.5,1.063-4.326,1.598-7.046,1.377c-3.597-0.292-7.507-1.284-11.027,0.021
			c-1.733,0.642-3.388,1.829-4.262,3.495c-0.363,0.692-0.411,2.879-1.079,3.117c-1.685,0.602-2.945-4.138-2.825-5.23
			c0.236-2.147,2.205-3.468,4.146-4.036c2.498-0.731,4.969,0.112,7.466,0.447c4.357,0.584,8.938,0.418,13.189-0.743
			c0.936-0.256,1.858-0.559,2.771-0.888"/>
	</g>
	<g id="POLYLINE_1279_">
		
			<path fill="none" stroke="#FB8604" stroke-width="1.5" stroke-linecap="round" stroke-linejoin="round" stroke-miterlimit="10" d="
			M606.239,333.364c3.129-1.536,0.219-5.894,3.986-6.871c1.791-0.465,3.983-0.368,5.79-0.055"/>
	</g>
	<g id="POLYLINE_1278_">
		
			<path fill="none" stroke="#FB8604" stroke-width="1.5" stroke-linecap="round" stroke-linejoin="round" stroke-miterlimit="10" d="
			M555.523,226.966c-0.594,2.443-0.301,5.873,1.25,7.929c0.664,0.881,1.692,1.089,2.454,1.834c1.688,1.651,1.277,4.662,3.95,5.148
			c2.857,0.52,7.239-0.775,9.747-2.237"/>
	</g>
	<g id="POLYLINE_1277_">
		
			<path fill="none" stroke="#FB8604" stroke-width="1.5" stroke-linecap="round" stroke-linejoin="round" stroke-miterlimit="10" d="
			M569.102,244.551c-6.926,3.322-11.519-0.407-14.949-6.186c-1.234-2.079-2.342-4.252-3.077-6.563"/>
	</g>
	<g id="POLYLINE_1276_">
		
			<path fill="none" stroke="#FB8604" stroke-width="1.5" stroke-linecap="round" stroke-linejoin="round" stroke-miterlimit="10" d="
			M550.396,234.223c-3.26-3.478-0.407-6.087-0.484-10.33c-0.013-0.727-1.805-12.031,0.166-11.724c0.952,0.149,0.849,2.978,1.946,3.3
			c0.783,0.23,1.103-0.48,1.54-1.049c0.517-0.673,3.025-5.953,4.102-3.492c0.617,1.409-0.374,3.275,0.393,4.823
			c0.704,1.42,1.298,1.866,1.516,3.45c0.204,1.482,0.443,2.929,0.764,4.411"/>
	</g>
	<g id="POLYLINE_1275_">
		
			<path fill="none" stroke="#FB8604" stroke-width="1.5" stroke-linecap="round" stroke-linejoin="round" stroke-miterlimit="10" d="
			M554.223,315.459c-1.574-0.931-2.289-2.079-3.035-3.738c-1.454-3.233-3.359-6.917-3.367-10.57
			c-0.011-4.865,1.608-9.74,2.222-14.551c0.585-4.586,0.075-9.029,0.274-13.616c0.258-5.948,4.306-11.41,2.951-17.452
			c-0.252-1.123-2.604-5.275-2-6.003c0.555-0.67,2.75,1.052,3.266,1.207c0.635,0.192,1.103,0.343,1.757,0.181
			c0.363-0.09,0.651-0.355,0.966-0.536c1.499-0.857,3.854-1.762,5.135-2.785c0.137-0.109,0.372-0.196,0.518-0.293
			c-0.687-0.493-3.616,0.531-4.707,0.554c-0.936,0.02-1.891-0.017-2.771-0.37c-2.047-0.821-3.269-3.031-4.123-4.933
			c-0.576-1.284-0.998-2.648-1.103-4.057"/>
	</g>
	<g id="POLYLINE_1274_">
		
			<path fill="none" stroke="#FB8604" stroke-width="1.5" stroke-linecap="round" stroke-linejoin="round" stroke-miterlimit="10" d="
			M540.481,270.739c-0.957-5.788-0.353-11.614-2.316-17.245c-1.651-4.736-5.255-9.437-5.125-14.64
			c0.094-3.747,0.773-6.362-0.729-9.943c-1.512-3.604-5.386-8.664-3.824-12.987c0.474-1.312,0.549-1.112,1.37,0.015
			c1.405,1.927,1.935,4.489,3.263,6.51c0.939,1.428,2.231,2.625,2.9,4.22c1.95,4.645,0.668,10.202,1.932,15.074
			c1.39,5.356,4.534,10.045,5.318,15.592c0.613,4.338,0.473,9.648-1.089,13.77c-0.373,0.986-0.598,1.895-1.373,0.892
			C540.584,271.71,540.527,271.078,540.481,270.739z"/>
	</g>
	<g id="POLYLINE_1273_">
		
			<path fill="none" stroke="#FB8604" stroke-width="1.5" stroke-linecap="round" stroke-linejoin="round" stroke-miterlimit="10" d="
			M551.991,320.053c-5.791-4.365-7.524-10.454-8.567-17.386c-0.944-6.271-1.381-12.687-0.895-19.019
			c0.477-6.212,2.152-12.138,3.618-18.167c1.808-7.439,1.921-13.328-1.575-20.245c-1.215-2.404-3.712-5.765-3.728-8.684
			c-0.006-1.068,0.591-1.926,0.789-2.95c0.44-2.273-0.607-4.707-1.051-6.877c-0.74-3.611-1.534-7.344-2.143-10.975
			c-0.632-3.763,1.457-1.206,2.774,0.563c1.581,2.123,3.213,4.485,3.937,7.073c0.833,2.975,0.24,6.11,0.297,9.143
			c0.082,4.317,1.687,8.256,2.921,12.343c1.102,3.651,1.703,7.408,1.695,11.226c-0.022,10.905-4.592,21.226-4.878,32.192
			c-0.207,7.926-0.266,18.668,4.433,25.551c1.003,1.469,2.326,2.651,3.692,3.773"/>
	</g>
	<g id="POLYLINE_1272_">
		
			<path fill="none" stroke="#FB8604" stroke-width="1.5" stroke-linecap="round" stroke-linejoin="round" stroke-miterlimit="10" d="
			M547.488,326.471c-0.542-1.493-1.234-2.918-2.442-3.972c-1.344-1.172-2.622-1.73-3.532-3.311
			c-1.572-2.732-2.066-6.192-2.522-9.243c-1.025-6.843-1.13-13.789-1.551-20.684c-0.762-12.468-4.94-23.571-8.602-35.407
			c-1.121-3.625-1.839-7.543-3.677-10.902c-1.974-3.606-4.904-6.593-7.28-9.923c-0.718-1.007-8.324-9.052-6.562-10.581
			c2.097-1.82,7.552,4.557,8.569,5.507c2.512,2.344,5.424,4.247,7.284,7.206c1.426,2.268,2.176,4.902,2.628,7.522
			c0.57,3.301,0.583,6.651,1.584,9.87c1.564,5.029,4.227,9.652,5.787,14.69c2.878,9.296,1.336,18.842,2.356,28.355
			c0.62,5.786,1.911,11.609,3.633,17.164c0.734,2.367,1.658,4.607,3.415,6.404c1.07,1.095,2.341,2.002,3.688,2.724"/>
	</g>
	<g id="POLYLINE_1271_">
		
			<path fill="none" stroke="#FB8604" stroke-width="1.5" stroke-linecap="round" stroke-linejoin="round" stroke-miterlimit="10" d="
			M526.083,296.511c-1.916,0.39-6.001-9.062-6.568-10.168c-2.038-3.977-3.846-8.061-5.201-12.323
			c-1.28-4.027-2.042-8.217-3.471-12.195c-1.53-4.258-4.037-7.82-7.565-10.657c-3.561-2.863-8.177-5.279-10.52-9.405
			c-0.798-1.404-2.69-6.346,0.571-5.199c2.303,0.81,4.488,3.447,6.265,4.939c3.037,2.55,6.297,4.886,9.087,7.716
			c2.839,2.879,4.851,6.331,6.027,10.196c1.117,3.67,1.517,7.512,2.513,11.212c0.895,3.322,2.275,6.48,3.602,9.645
			c1.711,4.082,3.414,8.188,4.678,12.436c0.276,0.927,0.979,2.454,0.74,3.463C526.206,296.329,526.146,296.389,526.083,296.511z"/>
	</g>
	<g id="POLYLINE_1270_">
		
			<path fill="none" stroke="#FB8604" stroke-width="1.5" stroke-linecap="round" stroke-linejoin="round" stroke-miterlimit="10" d="
			M541.122,339.66c-9.871-23.328-12.125-48.612-18.485-72.972c-1.928-7.384-3.777-15.467-8.976-21.331
			c-3.564-4.019-10.343-7.508-11.858-13.073c-0.273-1.003-0.557-2.191,0.638-2.436c0.821-0.168,2.18,1.034,2.721,1.424
			c3.907,2.822,7.002,6.655,10.237,10.178c2.727,2.97,5.243,3.775,6.101,7.831c1.021,4.827,1.698,9.501,3.284,14.189
			c1.955,5.777,3.767,11.524,5.188,17.46c2.866,11.968,3.736,24.4,6.918,36.264c1.069,3.985,2.822,10.775,6.675,13.124
			c0.541,0.33,1.201,0.514,1.803,0.672"/>
	</g>
	<g id="POLYLINE_1269_">
		
			<path fill="none" stroke="#FB8604" stroke-width="1.5" stroke-linecap="round" stroke-linejoin="round" stroke-miterlimit="10" d="
			M535.076,349.223c-3.41-7.509-2.567-15.713-4.824-23.535c-2.634-9.128-9.318-16.089-14.435-23.862
			c-6.04-9.175-7.7-19.619-11.92-29.561c-2.02-4.759-4.988-8.431-9.095-11.554c-2.997-2.278-6.643-4.129-9.186-6.965
			c-1.433-1.598-1.916-3.459-2.583-5.468c-0.405-1.22-1.813-3.458-0.018-3.705c1.716-0.235,4.81,2.513,6.038,3.374
			c3.099,2.171,6.206,4.529,8.709,7.391c6.269,7.169,10.16,16.757,13.694,25.484c2.311,5.706,4.498,11.507,7.436,16.931
			c2.401,4.434,5.572,8.397,7.917,12.862c4.69,8.926,5.332,19.197,9.234,28.38c0.726,1.708,1.659,3.312,2.522,4.952"/>
	</g>
	<g id="POLYLINE_1268_">
		
			<path fill="none" stroke="#FB8604" stroke-width="1.5" stroke-linecap="round" stroke-linejoin="round" stroke-miterlimit="10" d="
			M530.859,355.392c-3.674-5.235-6.607-11.351-7.72-17.689c-0.724-4.128-0.861-8.328-1.652-12.45
			c-0.483-2.513-1.099-5.002-1.566-7.517c-0.103-0.557-0.473-1.563-0.306-2.125c0.268-0.9,0.083-0.868,0.959-0.379
			c2.548,1.423,3.935,7.425,4.581,9.867c2.431,9.186,3.615,17.875,8.483,26.227"/>
	</g>
	<g id="POLYLINE_1267_">
		
			<path fill="none" stroke="#FB8604" stroke-width="1.5" stroke-linecap="round" stroke-linejoin="round" stroke-miterlimit="10" d="
			M516.796,331.209c-0.531,0.201-0.85-0.312-1.206-0.592c-1.498-1.178-2.689-3.522-3.793-5.089c-1.462-2.075-2.814-4.225-3.981-6.48
			c-5.24-10.121-8.021-21.376-12.574-31.806c-3.367-7.713-7.317-14.706-13.871-20.116c-4.388-3.622-9.192-6.835-10.829-12.569
			c-2.093-7.332,9.121,2.101,10.565,3.385c3.501,3.115,7.055,6.733,9.922,10.444c2.241,2.9,3.351,6.498,4.742,9.837
			c4.42,10.61,10.103,20.762,14.809,31.261c1.833,4.09,2.886,8.559,4.949,12.534c0.779,1.502,2.222,2.767,2.697,4.405
			c0.401,1.382,0.057,3.446-1.009,4.474C517.082,331.028,516.954,331.114,516.796,331.209z"/>
	</g>
	<g id="POLYLINE_1266_">
		
			<path fill="none" stroke="#FB8604" stroke-width="1.5" stroke-linecap="round" stroke-linejoin="round" stroke-miterlimit="10" d="
			M422.742,421.597c-2.433-1.246,0.115-3.976,1.312-4.907c2.376-1.851,5.131-3.279,7.645-4.948c1.444-0.959,2.958-1.747,4.696-1.993
			c4.263-0.605,9.004,1.413,12.67,3.299c0.944,0.486,6.949,5.232,7.267,1.184c0.168-2.144-2.672-4.431-4.074-5.596
			c-1.444-1.2-3.032-2.178-4.746-2.944c-1.641-0.734-3.82-1.058-5.207-2.288c-2.637-2.341,0.4-5.573,2.631-6.911
			c4.249-2.55,4.283,2.35,6.647,4.967c2.438,2.699,5.459,3.534,6.587,7.213c1.172,3.823,1.54,7.303,4.994,9.74
			c3.707,2.615,6.529,5.421,6.729,10.344c0.034,0.839,0.06,2.51-1.057,2.785c-1.94,0.478-3.014-3.993-3.53-4.919
			c-1.918-3.441-5.315-6.099-9.173-6.983c-2.435-0.558-4.951-0.556-7.388-1.152c-3.2-0.783-6.31-1.821-9.642-1.721
			c-2.832,0.085-5.634,0.838-8.276,1.824c-2.254,0.841-4.612,2.752-6.976,3.048C423.446,421.689,423.138,421.721,422.742,421.597z"
			/>
	</g>
	<g id="POLYLINE_1265_">
		
			<path fill="none" stroke="#FB8604" stroke-width="1.5" stroke-linecap="round" stroke-linejoin="round" stroke-miterlimit="10" d="
			M417.611,431.219c-1.023-0.601-0.002-3.413,0.309-4.1c0.867-1.909,2.543-3.046,4.647-3.01c1.324,0.022,2.586,0.557,3.921,0.388
			c1.875-0.237,3.535-1.419,5.276-2.067c4.363-1.623,9.321-1.261,13.722,0.034c3.099,0.912,6.002,2.359,8.837,3.885
			c2.608,1.404,6.299,2.782,8.355,5.058c0.461,0.511,1.243,1.408,0.765,2.163c-0.556,0.877-1.681,0.292-2.414-0.011
			c-4.281-1.768-7.31-3.869-11.985-4.461c-4.843-0.614-9.746-0.728-14.61-1.104c-3.169-0.245-6.569-0.911-9.759-0.427
			c-1.236,0.188-2.342,0.574-3.401,1.233c-1.054,0.656-2.047,2.169-3.29,2.425C417.853,431.251,417.736,431.286,417.611,431.219z"/>
	</g>
	<g id="POLYLINE_1264_">
		
			<path fill="none" stroke="#FB8604" stroke-width="1.5" stroke-linecap="round" stroke-linejoin="round" stroke-miterlimit="10" d="
			M470.897,439.26c3.496-7.523,6.703-18.125,0.329-24.942c-3.205-3.428-7.294-5.444-9.831-9.52c-1.705-2.739-3.02-5.711-5.004-8.272
			c-1.559-2.012-3.614-3.703-4.906-5.915c-1.908-3.265-0.658-6.938-0.448-10.466c0.07-1.179,0.301-3.294-0.88-4.118
			c-1.322-0.922-2.794,0.298-3.538,1.359c-1.99,2.839-1.161,6.185-0.895,9.358c0.235,2.801-0.757,3.816-2.766,5.739
			c-2.967,2.84-4.414,4.778-5.391,8.624c-0.504,1.983-1.805,2.767-3.501,3.927c-3.879,2.653-7.952,5.173-11.553,8.207
			c-0.882,0.743-1.934,1.591-2.433,2.672c-0.802,1.738-0.621,3.436-1.623,5.208c-1.303,2.304-1.943,4.837-3.169,7.159
			c-0.139,0.264-0.763,1.699-1.24,1.695c-1.452-0.011-0.232-6.779-0.184-7.245c0.385-3.731,0.882-7.496,3.28-10.514
			c4.163-5.24,10.267-8.712,14.701-13.753c3.804-4.325,6.205-9.431,8.129-14.815c1.588-4.446,3.266-8.751,5.079-13.102
			c0.581-1.394,1.034-2.792,1.198-4.299c0.358-3.292-0.2-6.645-0.19-9.944c0.013-4.676,0.543-9.335,0.65-14.008
			c0.183-7.966-2.077-15.386-4.237-22.988c-1.203-4.234-2.483-8.479-4.188-12.543c-0.886-2.111-2.202-4.263-2.602-6.558
			c-0.189-1.085,0.168-2.347-0.61-3.238c-1.125-1.288-3.963-1.447-4.124,0.516c-0.138,1.677,1.587,4.088,2.195,5.43
			c1.884,4.161,3.42,8.463,4.76,12.827c2.721,8.86,4.565,17.982,4.738,27.272c0.178,9.533-1.227,19.102-3.661,28.306
			c-1.783,6.743-4.055,13.471-8.23,19.139c-4.498,6.107-10.765,10.765-14.969,17.097c-2.501,3.767-2.82,8.034-4.287,12.199
			c-0.674,1.914-1.407,3.715-1.738,5.722c-0.128,0.776,0.155,4.217-0.683,4.696c-1.135,0.648-2.012-3.198-2.16-3.852
			c-0.661-2.909-0.184-5.551,1.118-8.204c3.111-6.336,5.28-13.221,8.912-19.274c8.573-14.289,18.153-29.27,18.977-46.477
			c0.406-8.48-0.798-17.267-2.472-25.568c-1.567-7.772-5.328-14.988-6.681-22.749c-0.575-3.297,0.248-6.634-1.642-9.554"/>
	</g>
	<g id="POLYLINE_1263_">
		
			<path fill="none" stroke="#FB8604" stroke-width="1.5" stroke-linecap="round" stroke-linejoin="round" stroke-miterlimit="10" d="
			M473.666,437.812c2.523-4.553,4.099-9.861,4.157-15.083c0.065-5.836-3-10.269-6.333-14.83
			c-6.171-8.446-13.711-16.984-17.375-26.943c-3.146-8.553-2.861-18.045-3.769-26.99c-0.35-3.454-1.434-7.75-0.673-11.255
			c0.104-0.477,0.212-1.273,0.648-1.609c0.888-0.684,1.208-0.261,1.625,0.594c0.316,0.648,0.23,1.649,0.268,2.346
			c0.139,2.525,0.061,5.058,0.229,7.583c0.299,4.486,1.059,8.946,2.117,13.312c2.127,8.776,5.569,17.064,10.826,24.439
			c4.944,6.936,11.963,12.865,15.61,20.652c2.393,5.11,2.547,11.203,1.816,16.7c-0.161,1.215-0.384,2.421-0.683,3.61"/>
	</g>
	<g id="POLYLINE_1262_">
		
			<path fill="none" stroke="#FB8604" stroke-width="1.5" stroke-linecap="round" stroke-linejoin="round" stroke-miterlimit="10" d="
			M484.206,427.505c2.242-5.177,2.934-11.39,1.196-16.813c-1.27-3.961-3.8-7.324-6.245-10.629c-3.69-4.99-7.423-9.924-10.255-15.47
			c-6.735-13.191-9.799-28.15-13.56-42.367c-1.855-7.01-3.573-14.048-5.3-21.091c-1.369-5.584-2.64-11.396-4.974-16.673
			c-1.662-3.757-6.416-7.962-5.99-12.454c0.128-1.352,0.555-1.548,1.761-0.969c1.765,0.847,2.93,3.25,3.834,4.842
			c1.938,3.413,4.31,6.736,5.973,10.285c2.317,4.943,3.382,10.562,4.528,15.862c1.533,7.089,2.793,14.234,4.295,21.329
			c2.754,13.009,7.435,24.6,13.813,36.236c3.268,5.963,6.609,11.955,10.865,17.283c2.64,3.304,6.322,6.496,7.921,10.523
			c0.559,1.407,0.733,2.91,0.921,4.401"/>
	</g>
	<g id="POLYLINE_1261_">
		
			<path fill="none" stroke="#FB8604" stroke-width="1.5" stroke-linecap="round" stroke-linejoin="round" stroke-miterlimit="10" d="
			M495.761,406.212c-0.554-2.761-1.141-5.366-2.518-7.842c-2.703-4.862-6.626-8.967-9.648-13.627
			c-6.614-10.198-10.739-22.366-14.404-33.88c-1.766-5.548-3.288-11.172-4.016-16.959c-0.631-5.022-0.976-10.021-2.725-14.812
			c-2.01-5.507-5.144-10.518-7.245-15.982c-0.966-2.512-0.992-5.098-1.754-7.636c-0.703-2.342-2.683-4.064-4.035-6.04
			c-0.742-1.084-2.956-3.746-2.705-5.241c0.24-1.431,1.491-0.843,2.584-0.339c6.998,3.227,7.618,11.328,9.924,17.737
			c1.931,5.367,4.955,10.231,6.928,15.568c1.968,5.323,2.751,11.042,3.912,16.573c2.432,11.588,5.917,23.248,10.86,34.025
			c2.154,4.697,4.787,9.126,8.077,13.118c2.656,3.222,6.254,6.29,8.055,10.149c0.818,1.752,0.318,5.533,2.254,2.47
			c2.663-4.213,1.583-8.513-0.545-12.698c-5.977-11.755-11.47-23.493-15.952-35.92c-4.606-12.773-7.99-25.903-12.156-38.816
			c-1.398-4.334-3.217-7.836-5.334-11.819c-2.541-4.782-4.567-9.734-7.278-14.433c-0.357-0.62-4.621-6.983-2.442-7.177
			c1.757-0.156,5.329,4.064,6.276,4.984c1.678,1.629,3.255,3.352,4.326,5.449c1.918,3.754,2.524,8.068,4.04,11.986
			c2.105,5.439,4.914,10.551,6.79,16.088c4.232,12.495,6.999,25.338,12.354,37.458c2.645,5.986,5.828,11.683,9.038,17.378
			c1.987,3.524,3.88,7.109,4.863,11.058c0.852,3.42,1.094,6.963,1.001,10.478"/>
	</g>
	<g id="POLYLINE_1260_">
		
			<path fill="none" stroke="#FB8604" stroke-width="1.5" stroke-linecap="round" stroke-linejoin="round" stroke-miterlimit="10" d="
			M506.035,382.45c0.793-4.659,1.327-10.596-0.628-15.077c-1.264-2.898-3.327-5.39-4.722-8.231c-0.426-0.868-1.791-3.023-1.51-4.057
			c0.332-1.225,1.032-0.567,1.972,0.132c3.82,2.841,6.891,7.551,8.062,12.136c0.989,3.874,0.843,8.025-0.251,11.859"/>
	</g>
	<g id="POLYLINE_1259_">
		
			<path fill="none" stroke="#FB8604" stroke-width="1.5" stroke-linecap="round" stroke-linejoin="round" stroke-miterlimit="10" d="
			M514.232,374.473c2.776-4.482,2.195-8.553-0.327-12.908c-6.24-10.774-14.749-20.428-19.058-32.2
			c-3.004-8.206-5.769-16.506-8.645-24.758c-1.56-4.477-3.059-8.912-5.506-12.997c-2.146-3.582-3.476-7.482-5.551-11.076
			c-2.566-4.445-6.554-7.783-9.716-11.765c-0.808-1.018-6.058-9.381-3.888-10.18c1.221-0.45,4.519,3.684,5.028,4.205
			c4.249,4.346,8.703,8.93,12.247,13.871c1.909,2.661,2.381,5.939,4.07,8.725c2.034,3.356,4.627,6.317,5.621,10.183
			c0.773,3.009,1.17,5.623,2.571,8.412c2.18,4.339,3.68,8.911,5.429,13.436c1.807,4.676,2.507,10.162,5.359,14.381
			c2.582,3.82,6.24,6.697,8.697,10.693c2.354,3.828,4.092,7.813,7.114,11.184c1.984,2.212,4.622,3.63,6.566,5.774
			c0.715,0.788,1.267,1.773,1.657,2.758"/>
	</g>
	<g id="POLYLINE_1258_">
		
			<path fill="none" stroke="#FB8604" stroke-width="1.5" stroke-linecap="round" stroke-linejoin="round" stroke-miterlimit="10" d="
			M403.841,436.974c-2.909-4.613-5.398-11.519-3.859-16.982c1.17-4.154,4.673-7.272,7.043-10.718
			c2.566-3.731,3.578-8.178,5.494-12.235c2.901-6.144,6.977-11.631,10.062-17.669c2.407-4.712,3.803-9.877,5.05-14.995
			c1.569-6.439,2.897-13.02,3.427-19.636c0.42-5.242-0.305-10.139-1.248-15.286c-1.198-6.544-2.263-13.019-4.547-19.289
			c-1.403-3.851-2.529-7.506-2.821-11.608c-0.101-1.417-0.131-2.84-0.121-4.261"/>
	</g>
	<g id="POLYLINE_1257_">
		
			<path fill="none" stroke="#FB8604" stroke-width="1.5" stroke-linecap="round" stroke-linejoin="round" stroke-miterlimit="10" d="
			M464.944,443.467c-0.443-1.025-1.005-1.657-2.087-1.827c-1.345-0.212-2.86,0.466-4.267,0.373
			c-2.021-0.134-4.027-0.831-5.916-1.509c-3.451-1.239-6.828-2.771-10.414-3.598c-2.784-0.642-5.654-0.809-8.419-1.542
			c-4.07-1.078-6.859-2.023-10.854-0.318c-0.473,0.202-3.618,2.312-4.034,0.798c-0.334-1.216,2.49-2.688,3.161-3.038
			c3.818-1.991,8.376-1.823,12.514-1.225c3.909,0.565,7.713,1.635,11.504,2.715c4.332,1.233,8.829,2.03,13.102,3.429
			c1.14,0.373,2.142,0.84,3.34,0.869c0.711,0.017,1.556-0.338,2.27-0.091c0.877,0.304,1.394,1.04,1.77,1.87
			c0.143,0.316,0.253,0.647,0.335,0.984"/>
	</g>
	<g id="POLYLINE_1256_">
		
			<path fill="none" stroke="#FB8604" stroke-width="1.5" stroke-linecap="round" stroke-linejoin="round" stroke-miterlimit="10" d="
			M462.353,450.622c-6.649,1.865-14.257,1.455-20.366-1.921c-2.705-1.495-4.714-3.902-7.336-5.423
			c-3.351-1.943-7.931-1.227-11.592-1.684c-1.594-0.199-4.64-0.963-1.813-2.09c3.239-1.291,7.767-0.985,11.135-0.494
			c4.074,0.594,6.984,2.765,10.541,4.634c5.81,3.054,12.003,1.635,18.13,3.335c0.806,0.224,1.599,0.473,2.372,0.797"/>
	</g>
	<g id="POLYLINE_1255_">
		
			<path fill="none" stroke="#FB8604" stroke-width="1.5" stroke-linecap="round" stroke-linejoin="round" stroke-miterlimit="10" d="
			M459.092,458.943c-5.615,2.706-13.684,3.571-18.971-0.331c-4.787-3.533-8.276-10.548-14.922-11.086
			c-0.825-0.067-4.71,0.503-2.65-1.4c1.006-0.929,3.369-0.551,4.533-0.392c3.337,0.454,6.606,1.899,9.358,3.813
			c2.49,1.732,4.277,4.553,7.208,5.578c4.278,1.497,10.173,1.001,14.514,0.643c0.808-0.067,1.578-0.198,2.358-0.432"/>
	</g>
	<g id="POLYLINE_1254_">
		
			<path fill="none" stroke="#FB8604" stroke-width="1.5" stroke-linecap="round" stroke-linejoin="round" stroke-miterlimit="10" d="
			M455.8,467.019c-4.722,4.372-12.335,7.623-18.826,6.289c-3.237-0.665-5.93-2.496-8.419-4.59c-1.971-1.658-5.082-3.459-6.046-6.059
			c-0.881-2.378,0.274-2.448,2.046-1.224c6.428,4.44,12.028,10.275,20.663,9.198c1.086-0.135,10.072-2.186,8.901-4.576
			c-0.341-0.695-1.638-0.202-2.129-0.092c-3.231,0.719-6.138,1.833-9.51,1.52c-2.957-0.275-5.654-1.589-8.003-3.359
			c-3.029-2.281-5.147-5.758-8.467-7.632c-0.573-0.324-6.25-1.577-3.98-3.34c2.547-1.979,9.128,3.457,10.834,4.842
			c5.406,4.386,9.808,7.878,17.039,6.253c2.572-0.578,5.219-0.993,7.749-1.732"/>
	</g>
	<g id="POLYLINE_1253_">
		
			<path fill="none" stroke="#FB8604" stroke-width="1.5" stroke-linecap="round" stroke-linejoin="round" stroke-miterlimit="10" d="
			M452.968,473.873c-1.435-0.152-2.507,0.699-1.658,2.062c0.161,0.258,0.368,0.473,0.609,0.656"/>
	</g>
	<g id="POLYLINE_1252_">
		
			<path fill="none" stroke="#FB8604" stroke-width="1.5" stroke-linecap="round" stroke-linejoin="round" stroke-miterlimit="10" d="
			M451.187,478.627c-2.479-1.819-3.85-0.184-6.387,0.883c-4.961,2.087-11.871,0.194-16.52-1.821
			c-1.956-0.848-3.806-1.966-4.976-3.795c-0.341-0.533-1.633-2.639-1.172-3.241c0.497-0.65,1.698,0.472,2.192,0.793
			c3.227,2.099,6.167,4.295,10.046,4.957c6.424,1.096,13.067-1.212,18.361-4.788c0.602-0.406,1.167-0.839,1.703-1.331"/>
	</g>
	<g id="POLYLINE_1251_">
		
			<path fill="none" stroke="#FB8604" stroke-width="1.5" stroke-linecap="round" stroke-linejoin="round" stroke-miterlimit="10" d="
			M421.257,476.495c4.994,3.268,11.128,6.359,17.268,6.351c2.396-0.003,4.664-0.573,6.847-1.535
			c0.928-0.409,1.577-0.862,2.583-0.842c0.815,0.017,1.688,0.384,2.352,0.834"/>
	</g>
	<g id="POLYLINE_1250_">
		
			<path fill="none" stroke="#FB8604" stroke-width="1.5" stroke-linecap="round" stroke-linejoin="round" stroke-miterlimit="10" d="
			M449.517,484.01c-8.08,2.086-16.072,4.075-23.506-0.973c-1.778-1.207-3.415-2.648-4.812-4.283"/>
	</g>
	<g id="POLYLINE_1249_">
		
			<path fill="none" stroke="#FB8604" stroke-width="1.5" stroke-linecap="round" stroke-linejoin="round" stroke-miterlimit="10" d="
			M448.175,489.349c-2.105,1.528-4.349,1.873-6.911,1.65c-1.012-0.088-3.26-0.971-4.297-0.216c-1.505,1.095,0.101,2.202,1.216,2.507
			c2.781,0.761,6.609,0.393,9.273-0.676"/>
	</g>
	<g id="POLYLINE_1248_">
		
			<path fill="none" stroke="#FB8604" stroke-width="1.5" stroke-linecap="round" stroke-linejoin="round" stroke-miterlimit="10" d="
			M421.06,483.08c6.276,4.936,15.425,7.231,23.215,4.894c1.642-0.493,3.041-1.694,4.718-1.996"/>
	</g>
	<g id="POLYLINE_1247_">
		
			<path fill="none" stroke="#FB8604" stroke-width="1.5" stroke-linecap="round" stroke-linejoin="round" stroke-miterlimit="10" d="
			M446.916,495.254c-2.24,1.844-8.022,1.926-10.286,0.275c-0.706-0.515-0.863-1.379-1.486-1.949
			c-1.712-1.569-4.845-1.466-6.928-2.147c-3.251-1.063-5.209-3.469-7.238-6.171"/>
	</g>
	<g id="POLYLINE_1246_">
		
			<path fill="none" stroke="#FB8604" stroke-width="1.5" stroke-linecap="round" stroke-linejoin="round" stroke-miterlimit="10" d="
			M445.741,501.344c-3.377,0.087-5.589,1.488-9.047,0.806c-2.295-0.453-3.622-1.44-5.578-2.624
			c-2.126-1.288-4.565-1.136-6.851-1.924c-0.979-0.337-3.199-1.716-2.727-3.114c0.178-0.527,0.227-0.413,0.691-0.61
			c0.659-0.28,2.023,0.388,2.695,0.493c1.723,0.269,3.506,0.161,5.207,0.569c2.604,0.624,4.597,2.552,7.065,3.506
			c2.311,0.894,5.054,1.093,7.455,0.441c0.574-0.156,1.135-0.373,1.677-0.618"/>
	</g>
	<g id="POLYLINE_1245_">
		
			<path fill="none" stroke="#FB8604" stroke-width="1.5" stroke-linecap="round" stroke-linejoin="round" stroke-miterlimit="10" d="
			M444.633,506.882c-2.208,0.471-5.95-2.267-2.099-2.477c0.995-0.054,1.811,0.486,2.645-0.175"/>
	</g>
	<g id="POLYLINE_1244_">
		
			<path fill="none" stroke="#FB8604" stroke-width="1.5" stroke-linecap="round" stroke-linejoin="round" stroke-miterlimit="10" d="
			M443.756,511.159c-1.131-1.18-5.133-4.336-7.036-3.587c-1.177,0.463,2.312,2.121,2.993,2.698c1.45,1.228,2.374,2.733,3.413,4.301"
			/>
	</g>
	<g id="POLYLINE_1243_">
		
			<path fill="none" stroke="#FB8604" stroke-width="1.5" stroke-linecap="round" stroke-linejoin="round" stroke-miterlimit="10" d="
			M421.873,502.223c0.962-0.814,1.195,1.368,1.716,2.084c1.717,2.362,4.571,4.244,6.882,5.962c2.235,1.662,4.422,3.707,6.745,5.232
			c1.665,1.094,6.592,2.058,3.355-0.782c-1.077-0.945-2.544-1.338-3.68-2.218c-1.763-1.365-3.03-3.262-4.826-4.606
			c-2.01-1.504-5.747-2.37-6.92-4.77c-1.718-3.512,4.009-0.961,4.98-0.441c1.875,1.006,3.474,2.043,5.567,2.457
			c0.849,0.168,1.922,0.111,2.707,0.563c1.778,1.023,2.994,2.645,5.19,3.326c0.195,0.06,0.367,0.105,0.568,0.141"/>
	</g>
	<g id="POLYLINE_1242_">
		
			<path fill="none" stroke="#FB8604" stroke-width="1.5" stroke-linecap="round" stroke-linejoin="round" stroke-miterlimit="10" d="
			M421.873,502.223c-1.135,1.841,0.548,4.497,1.61,5.912c2.16,2.877,5.405,4.688,8.3,6.705c1.755,1.223,3.51,3.143,5.697,3.614
			c1.633,0.352,3.281-0.251,4.899,0.297"/>
	</g>
	<g id="POLYLINE_1241_">
		
			<path fill="none" stroke="#FB8604" stroke-width="1.5" stroke-linecap="round" stroke-linejoin="round" stroke-miterlimit="10" d="
			M421.268,514.647c2.647,2.974,6.465,5.526,10.388,6.402c1.421,0.317,2.742,0.299,4.055,0.936c1.006,0.488,1.962,1.379,3.152,1.434
			c0.838,0.039,1.614-0.01,1.645-1.031c0.05-1.637-2.8-1.817-3.679-2.125c-2.831-0.992-5.687-3.067-8.256-4.568
			c-3.229-1.886-6.281-4.154-8.853-6.877"/>
	</g>
	<g id="POLYLINE_1240_">
		
			<path fill="none" stroke="#FB8604" stroke-width="1.5" stroke-linecap="round" stroke-linejoin="round" stroke-miterlimit="10" d="
			M440.326,526.202c-3.628-0.575-6.984-1.95-10.432-3.172c-2.992-1.061-6.154-2.358-8.452-4.614"/>
	</g>
	<g id="POLYLINE_1239_">
		
			<path fill="none" stroke="#FB8604" stroke-width="1.5" stroke-linecap="round" stroke-linejoin="round" stroke-miterlimit="10" d="
			M421.213,521.506c1.771,2.448,4.448,4.61,7.366,5.494c2.067,0.626,4.1-0.115,6.214,0.142c1.597,0.194,3.171,0.651,4.589,1.416"/>
	</g>
	<g id="POLYLINE_1238_">
		
			<path fill="none" stroke="#FB8604" stroke-width="1.5" stroke-linecap="round" stroke-linejoin="round" stroke-miterlimit="10" d="
			M437,534.318c-1.779-2.328-4.233-1.138-6.835-0.826c-2.507,0.301-5.72-0.078-7.213-2.47c-0.571-0.914-0.759-1.506,0.198-2.054
			c1.279-0.731,3.984,0.313,5.191,0.655c2.595,0.735,3.843,0.726,6.44,0.344c2.099-0.309,1.719,1.054,3.444,1.3"/>
	</g>
	<g id="POLYLINE_1237_">
		
			<path fill="none" stroke="#FB8604" stroke-width="1.5" stroke-linecap="round" stroke-linejoin="round" stroke-miterlimit="10" d="
			M436.093,538.895c-1.854-0.053-2.882,0.409-4.456,1.214c-0.161,0.082-2.577,0.89-2.524,0.788c-0.556,1.067,2.534,1.33,3.166,1.254
			c1.44-0.172,2.372-0.839,3.775-0.309"/>
	</g>
	<g id="POLYLINE_1236_">
		
			<path fill="none" stroke="#FB8604" stroke-width="1.5" stroke-linecap="round" stroke-linejoin="round" stroke-miterlimit="10" d="
			M435.579,544.402c-1.935,0.579-3.487,2.115-5.503,1.352c-2.067-0.782-3.247-2.943-5.15-3.948
			c-0.945-0.499-2.343-0.293-3.142-0.946c-0.696-0.569-1.086-1.894-0.411-2.625c0.975-1.054,4.155-0.439,5.204-0.512
			c2.314-0.161,3.989-1.647,6.173-1.991c1.582-0.249,1.676,0.906,3.05,1.234c0.137,0.033,0.303,0.03,0.44,0.024"/>
	</g>
	<g id="POLYLINE_1235_">
		
			<path fill="none" stroke="#FB8604" stroke-width="1.5" stroke-linecap="round" stroke-linejoin="round" stroke-miterlimit="10" d="
			M418.28,549.271c4.56-0.629,8.285,2.778,12.682,0.978c5.977-2.447-1.217-1.414-3.445-2.143c-3.048-0.997-5.368-1.903-8.777-2.175"
			/>
	</g>
	<g id="POLYLINE_1234_">
		
			<path fill="none" stroke="#FB8604" stroke-width="1.5" stroke-linecap="round" stroke-linejoin="round" stroke-miterlimit="10" d="
			M417.639,552.976c1.157-0.048,8.128-1.947,8.652-0.03c0.239,0.873-1.151,1.755-1.772,2.003c-2.007,0.802-5.285,0.433-7.369,0.462"
			/>
	</g>
	<g id="POLYLINE_1233_">
		
			<path fill="none" stroke="#FB8604" stroke-width="1.5" stroke-linecap="round" stroke-linejoin="round" stroke-miterlimit="10" d="
			M435.214,551.593c-2.006,5.021-7.919,9.865-13.702,7.935c-0.599-0.2-1.881-0.624-1.528-1.412c0.178-0.398,1.54-0.476,1.787-0.527
			c2.116-0.437,3.861-0.867,5.754-1.941c3.16-1.793,6.564-3.647,7.753-7.262"/>
	</g>
	<g id="POLYLINE_1232_">
		
			<path fill="none" stroke="#FB8604" stroke-width="1.5" stroke-linecap="round" stroke-linejoin="round" stroke-miterlimit="10" d="
			M435.141,560.086c-2.033,3.145-5.158,5.978-8.823,6.981c-1.574,0.431-5.863,1.382-7.256-0.015
			c-0.528-0.53-0.669-0.848-0.106-1.423c0.451-0.461,1.746-0.313,2.243-0.337c1.801-0.087,3.394-0.151,5.06-0.895
			c3.522-1.573,6.722-4.657,8.877-7.821"/>
	</g>
	<g id="POLYLINE_1231_">
		
			<path fill="none" stroke="#FB8604" stroke-width="1.5" stroke-linecap="round" stroke-linejoin="round" stroke-miterlimit="10" d="
			M435.673,565.191c-2.345,2.495-6.038,5.615-9.611,5.889c-3.898,0.299,1.788-2.321,2.74-2.935c2.46-1.585,4.68-3.544,6.475-5.86"/>
	</g>
	<g id="POLYLINE_1230_">
		
			<path fill="none" stroke="#FB8604" stroke-width="1.5" stroke-linecap="round" stroke-linejoin="round" stroke-miterlimit="10" d="
			M437.452,576.83c-1.546,0.61-3.033,1.258-4.667,1.595c-1.224,0.252-3.639-0.038-4.648,0.781c-0.458,0.372-0.627,0.2-0.483,0.812
			c0.186,0.788,2.318,1.391,2.928,1.573c1.603,0.478,2.594,0.191,4.161-0.135c1.716-0.357,3.176-0.077,4.828,0.578"/>
	</g>
	<g id="POLYLINE_1229_">
		
			<path fill="none" stroke="#FB8604" stroke-width="1.5" stroke-linecap="round" stroke-linejoin="round" stroke-miterlimit="10" d="
			M436.709,572.77c-3.766,0.336-8.709,0.208-12.243,1.627c-0.31,0.124-1.178,0.237-1.221,0.705c-0.108,1.159,2.924,1.35,3.509,1.355
			c3.449,0.029,6.858-0.923,10.36-0.909"/>
	</g>
	<g id="POLYLINE_1228_">
		
			<path fill="none" stroke="#FB8604" stroke-width="1.5" stroke-linecap="round" stroke-linejoin="round" stroke-miterlimit="10" d="
			M396.208,437.374c-2.207-6.62-1.397-11.294,0.914-17.91c3.999-11.447,7.803-23.167,12.353-34.4
			c4.162-10.275,10.675-19.8,13.628-30.537c1.767-6.424,0.714-12.87-0.237-19.358c-1.055-7.193-2.04-14.406-3.464-21.538
			c-1.284-6.426-1.939-12.773-1.537-19.343"/>
	</g>
	<g id="POLYLINE_1227_">
		
			<path fill="none" stroke="#FB8604" stroke-width="1.5" stroke-linecap="round" stroke-linejoin="round" stroke-miterlimit="10" d="
			M381.924,438.751c-0.65-7.227,1.317-12.019,4.655-18.433c5.791-11.125,9.528-23.12,15.27-34.237
			c10.764-20.838,19.515-43.505,13.711-67.262c-1.087-4.45-2.301-8.47-2.345-13.05c-0.038-3.882-0.579-7.385-1.728-11.122"/>
	</g>
	<g id="POLYLINE_1226_">
		
			<path fill="none" stroke="#FB8604" stroke-width="1.5" stroke-linecap="round" stroke-linejoin="round" stroke-miterlimit="10" d="
			M361.415,441.01c2.148-5.056,4.322-10.023,7.126-14.756c2.907-4.907,5.991-9.735,8.303-14.965
			c4.536-10.266,6.23-21.517,10.854-31.782c4.527-10.05,10.519-19.613,13.19-30.404c1.438-5.811,1.909-11.756,2.466-17.698
			c0.283-3.022,0.515-6.158,1.626-9.017c0.326-0.838,2.105-5.103,3.738-4.558c2.274,0.759,0.229,10.987,0.155,12.019
			c-0.806,11.209-1.791,21.655-5.605,32.311c-1.843,5.149-3.996,10.213-6.609,15.021c-2.104,3.871-4.539,7.608-5.938,11.815
			c-1.576,4.738-2.22,9.739-3.559,14.545c-1.537,5.514-3.74,10.842-6.203,16.002c-2.19,4.587-5.04,8.837-7.201,13.424
			c-0.631,1.34-1.146,2.7-1.098,4.198c0.032,0.971,0.307,1.942,0.572,2.87"/>
	</g>
	<g id="POLYLINE_1225_">
		
			<path fill="none" stroke="#FB8604" stroke-width="1.5" stroke-linecap="round" stroke-linejoin="round" stroke-miterlimit="10" d="
			M396.468,296.379c5.467,4.788,2.94,12.852,0.983,18.751c-2.81,8.469-5.782,16.716-7.677,25.453
			c-0.916,4.225-1.722,8.472-2.662,12.692c-0.748,3.359-1.983,6.993-2.118,10.471c-0.079,2.036,0.731,2.657,2.289,1.146
			c2.954-2.865,3.882-8.527,4.773-12.268c1.886-7.923,3.175-16.065,5.932-23.755c2.278-6.351,5.621-12.309,6.904-18.986
			c0.726-3.774,2.147-9.256,0.605-13.044c-0.217-0.533-0.525-1.046-0.85-1.518"/>
	</g>
	<g id="POLYLINE_1224_">
		
			<path fill="none" stroke="#FB8604" stroke-width="1.5" stroke-linecap="round" stroke-linejoin="round" stroke-miterlimit="10" d="
			M384.296,298.117c-0.466,1.439,0.414,2.369,1.265,3.462c1.524,1.955,2.732,3.758,3.331,6.203c0.303,1.238,0.04,3.883,0.964,4.806
			c1.988,1.986,3.012-4.365,2.945-5.426c-0.223-3.53-2.942-6.335-3.002-9.816"/>
	</g>
	<g id="POLYLINE_1223_">
		
			<path fill="none" stroke="#FB8604" stroke-width="1.5" stroke-linecap="round" stroke-linejoin="round" stroke-miterlimit="10" d="
			M354.023,441.162c6.757-9.491,11.422-19.605,13.919-30.981c2.786-12.691,6.908-24.97,9.856-37.604
			c2.789-11.952,3.33-24.315,5.394-36.399c1.336-7.824,4.545-16.372,2.041-24.302c-0.854-2.704-2.319-4.095-4.255-6.052
			c-1.851-1.872-2.832-4.41-3.573-6.905"/>
	</g>
	<g id="POLYLINE_1222_">
		
			<path fill="none" stroke="#FB8604" stroke-width="1.5" stroke-linecap="round" stroke-linejoin="round" stroke-miterlimit="10" d="
			M343.805,440.771c8.347-7.862,13.692-16.849,16.437-28c3.161-12.843,5.114-25.937,8.645-38.701
			c3.495-12.633,7.068-24.759,8.871-37.791c0.826-5.967,1.567-12.033,1.593-18.065c0.012-2.725-0.123-5.577-1.049-8.171
			c-1.456-4.08-6.075-6.126-5.461-10.759"/>
	</g>
	<g id="POLYLINE_1221_">
		
			<path fill="none" stroke="#FB8604" stroke-width="1.5" stroke-linecap="round" stroke-linejoin="round" stroke-miterlimit="10" d="
			M336.192,440.397c6.509-5.674,10.919-12.633,13.033-21.041c2.862-11.38,1.308-23.149,3.334-34.601
			c0.405-2.287,1.138-4.388,2.29-6.404c2.949-5.16,6.029-10.073,8.011-15.729c2.034-5.802,2.969-12.004,4.038-18.039
			c1.095-6.183,2.101-12.394,2.686-18.65c0.397-4.247,0.81-8.798-0.242-12.992c-1.134-4.52-3.42-9.148-5.236-13.419"/>
	</g>
	<g id="POLYLINE_1220_">
		
			<path fill="none" stroke="#FB8604" stroke-width="1.5" stroke-linecap="round" stroke-linejoin="round" stroke-miterlimit="10" d="
			M344.49,299.76c-1.51-0.517-2.705,0.141-2.593,1.774c0.218,3.157,3.741,3.012,6.022,3.261c2.177,0.238,3.246,0.978,4.803,2.488
			c1.126,1.093,2.085,2.089,3.722,2.121c1.733,0.034,4.033-0.962,3.043-2.883c-1.09-2.114-4.758-4.381-7.115-5.029
			c-2.474-0.68-4.706-0.19-7.041-1.34C345.049,300.012,344.784,299.872,344.49,299.76z"/>
	</g>
	<g id="POLYLINE_1219_">
		
			<path fill="none" stroke="#FB8604" stroke-width="1.5" stroke-linecap="round" stroke-linejoin="round" stroke-miterlimit="10" d="
			M214.404,284.006c7.253-0.206,14.534-1.017,21.775-1.089c5.805-0.058,11.449,1.481,17.129,2.473
			c12.83,2.242,25.884,0.796,38.739,3.321c7.885,1.549,15.754,3.156,23.667,4.549c4.032,0.71,8.073,1.378,12.096,2.136
			c2.075,0.391,4.8,0.567,6.702,1.602c1.772,0.964,0.218,0.873-0.49,2.005c-0.397,0.634,0.557,0.566-0.295,1.091
			c-1.276,0.786-4.412-1.228-5.462-1.724c-1.036-0.489-8.821-3.481-9.133-1.589c-0.442,2.683,12.605,5.049,13.679,5.478
			c2.94,1.176,4.707,3.031,7.05,5.106c2.854,2.526,6.259,3.377,9.812,4.565c4.665,1.56,5.793,3.305,6.29,8.273
			c0.151,1.511,0.47,3.962-1.497,4.3c-3.228,0.555-6.284-4.582-7.587-6.734c-1.439-2.376-2.835-3.857-5.392-5.011
			c-4.259-1.923-7.758-3.375-11.413-6.332c-3.391-2.742-6.442-3.938-10.42-5.619c-2.605-1.101-3.605-2.968-5.639-4.839
			c-1.714-1.577-4.369-2.712-6.479-1.506c-0.618,0.353-0.434,0.797-1.197,0.89c-1.724,0.21-3.872-2.079-5.47-2.678
			c-3.078-1.153-6.92-0.835-10.163-1.445c-1.507-0.284-5.404-1.626-6.947-0.591c-1.372,0.921-0.306,1.649,0.853,1.959
			c1.895,0.505,4.02,0.237,5.969,0.605c1.774,0.334,3.502,0.892,5.187,1.532c6.166,2.342,11.978,5.734,17.676,9.018
			c5.583,3.218,11.337,6.387,16.347,10.476c3.649,2.978,5.992,6.761,9.128,10.219c2.252,2.482,4.608,3.132,7.728,4.159
			c1.471,0.484,2.943,1.041,3.868,2.349c1.062,1.504,1.197,3.565,1.253,5.34c0.091,2.868-0.253,5.74-0.395,8.601
			c-0.081,1.63,0.111,3.672-0.434,5.273c-0.438,1.288-1.206,1.97-2.61,1.758c-1.969-0.297-2.931-2.32-3.351-4.043
			c-0.876-3.591,1.387-8.469-0.989-11.512c-1.621-2.076-4.654-2.926-6.767-4.367c-2.786-1.9-5.159-4.4-7.178-7.086
			c-2.732-3.634-4.739-7.713-7.969-10.963c-3.58-3.602-7.912-6.419-12.346-8.847c-6.198-3.394-12.77-6.225-19.351-8.787
			c-4.303-1.675-9.149-2.251-13.32-4.112c-1.64-0.732-2.436-2.249-3.91-3.177c-1.68-1.057-3.881-0.942-5.779-0.9
			c-5.919,0.132-11.002-0.016-16.844-1.102c-6.868-1.276-13.812-1.505-20.786-1.402c-5.918,0.087-12.892-0.284-18.593,1.533
			c-1.387,0.442-1.613,0.427-0.193,0.765c2.695,0.641,6.04,0.089,8.798,0.038c3.557-0.065,7.117-0.165,10.674-0.058
			c6.586,0.198,12.645,1.653,18.982,3.353c9.938,2.665,20.837,2.485,29.806,8.017c4.048,2.497,7.613,5.945,11.987,7.89
			c3.237,1.439,6.879,1.664,9.846,3.721c3.389,2.35,5.733,5.882,8.911,8.478c2.675,2.185,4.742,3.854,6.548,6.858
			c2.745,4.565,4.759,9.272,8.338,13.266c2.401,2.68,4.923,5.25,7.145,8.085c1.554,1.983,2.797,4.191,4.367,6.157
			c2.566,3.213,7.764,3.584,9.461,7.352c1.34,2.975,0.566,6.471,1.301,9.578c0.162,0.686,0.387,1.812,1.076,2.227
			c2.157,1.297,4.982-2.794,5.934-4.071c4.574-6.132,3.201-12.884,4.538-20.018c1.309-6.982,3.511-13.759,4.953-20.712
			c0.773-3.728,1.281-7.533,0.626-11.317c-0.686-3.959-1.797-7.422-2.015-11.442c-0.122-2.248-0.851-4.065-2.159-5.917"/>
	</g>
	<g id="POLYLINE_1218_">
		
			<path fill="none" stroke="#FB8604" stroke-width="1.5" stroke-linecap="round" stroke-linejoin="round" stroke-miterlimit="10" d="
			M324.186,439.603c4.765-0.771,9.099-2.391,11.516-6.809c1.418-2.592,2.198-5.511,2.896-8.361
			c1.423-5.815,2.747-11.709,3.674-17.626c1.354-8.646,2.393-18.323,0.101-26.901c-1.738-6.504-6.212-11.753-10.25-16.971
			c-7.568-9.778-14.177-19.721-20.695-30.22c-5.258-8.469-11.814-14.642-20.155-20.071c-7.903-5.143-16.088-10.632-25.138-13.5
			c-11.078-3.511-22.705-6.522-34.226-8.132c-2.435-0.34-4.818-0.497-7.264-0.236c-5.52,0.59-10.988,0.856-16.54,1.043
			c-4.097,0.138-8.323,0.05-12.349,0.936c-3.488,0.768-6.692,2.4-9.972,3.755c-1.993,0.823-4.034,1.467-6.091,2.113"/>
	</g>
	<g id="POLYLINE_1217_">
		
			<path fill="none" stroke="#FB8604" stroke-width="1.5" stroke-linecap="round" stroke-linejoin="round" stroke-miterlimit="10" d="
			M168.556,308.017c6.897-4.556,14.594-8.049,22.769-9.469c4.698-0.816,9.471-1.058,14.187-1.747
			c4.187-0.612,8.364-1.419,12.613-1.346c8.284,0.14,16.387,2.997,24.086,5.796c9.736,3.54,19.479,7.463,28.696,12.21
			c7.029,3.62,13.849,8.287,19.093,14.258c5.778,6.579,8.335,15.164,13.165,22.375c5.722,8.541,13.199,15.773,18.397,24.685
			c4.399,7.541,7.631,16.057,9.366,24.611c1.826,9,1.26,18.192-1.491,26.948c-1.356,4.317-3.164,8.681-7.043,11.313
			c-0.845,0.573-1.753,1.057-2.693,1.455"/>
	</g>
	<g id="POLYLINE_1216_">
		
			<path fill="none" stroke="#FB8604" stroke-width="1.5" stroke-linecap="round" stroke-linejoin="round" stroke-miterlimit="10" d="
			M309.789,437.413c8.541-3.183,12.417-9.601,12.789-18.47c0.779-18.569-9.366-36.989-19.554-51.748
			c-10.964-15.882-19.823-33.775-35.262-45.915c-13.914-10.94-31.981-17.1-49.321-19.809c-17.02-2.659-35.825-0.452-50.24,9.599
			c-1.467,1.023-2.88,2.119-4.262,3.253"/>
	</g>
	<g id="POLYLINE_1215_">
		
			<path fill="none" stroke="#FB8604" stroke-width="1.5" stroke-linecap="round" stroke-linejoin="round" stroke-miterlimit="10" d="
			M160.522,320.53c3.591-3.755,8.428-6.876,13.553-8.006c5.563-1.226,11.418,1.244,16.838-0.427
			c3.817-1.177,6.072-2.158,10.125-1.349c4.892,0.976,9.601,2.783,14.384,4.162c4.804,1.385,9.688,2.473,14.506,3.804
			c8.479,2.341,16.948,5.612,23.993,10.992c7.803,5.958,14.208,14.169,20.561,21.576c6.581,7.673,10.964,16.429,15.998,25.117
			c4.476,7.724,10.981,13.931,14.803,22.064c3.12,6.638,5.741,14.077,6.326,21.438c0.397,5.006-1.18,9.033-3.837,13.2
			c-0.724,1.136-1.509,2.232-2.4,3.244"/>
	</g>
	<g id="POLYLINE_1214_">
		
			<path fill="none" stroke="#FB8604" stroke-width="1.5" stroke-linecap="round" stroke-linejoin="round" stroke-miterlimit="10" d="
			M157.391,328.209c3.337-3.28,7.719-6.972,12.298-8.302c5.138-1.492,10.474,0.683,15.575,1.219
			c4.279,0.449,8.204-1.502,12.452-1.216c7.503,0.504,14.769,4.408,21.508,7.392c15.189,6.725,33.347,10.278,43.171,25.052
			c2.427,3.65,4.234,7.676,6.5,11.425c2.603,4.305,5.375,8.5,7.842,12.887c5.013,8.917,9.579,18.009,15.592,26.322
			c3.672,5.076,8.732,9.562,9.146,16.182c0.247,3.938-0.483,8.645-3.182,11.702c-0.787,0.892-1.746,1.627-2.699,2.33"/>
	</g>
	<g id="POLYLINE_1213_">
		
			<path fill="none" stroke="#FB8604" stroke-width="1.5" stroke-linecap="round" stroke-linejoin="round" stroke-miterlimit="10" d="
			M154.046,339.492c1.766-1.791,4.335-3.534,6.923-3.693c2.718-0.167,5.17,1.619,7.759,2.237c6.817,1.628,13.956,1.171,20.753,3.035
			c7.552,2.072,14.531,4.802,22.278,6.208c7.757,1.408,15.456,2.983,22.623,6.396c7.489,3.567,14.109,8.96,19.738,15.011
			c5.218,5.609,9.338,12.077,14.613,17.666c5.998,6.355,11.94,12.502,16.304,20.135c1.862,3.256,3.676,6.422,5.76,9.533
			c0.65,0.971,1.369,1.98,1.634,3.139c0.659,2.886-1.037,5.856-0.855,8.83c0.079,1.294,0.302,2.581,0.547,3.853"/>
	</g>
	<g id="POLYLINE_1212_">
		
			<path fill="none" stroke="#FB8604" stroke-width="1.5" stroke-linecap="round" stroke-linejoin="round" stroke-miterlimit="10" d="
			M284.68,428.551c2.038-3.113-0.112-4.329-1.489-7.332c-1.661-3.622-2.263-7.461-4.459-10.86
			c-3.684-5.702-8.854-10.582-13.386-15.594c-9.172-10.14-18.353-19.027-30.856-24.878c-13.193-6.173-27.186-10.761-41.289-14.333
			c-8.821-2.234-17.562-4.58-26.305-7.099c-3.56-1.026-7.492-2.386-11.259-1.826c-1.09,0.162-2.155,0.499-3.215,0.787"/>
	</g>
	<g id="POLYLINE_1211_">
		
			<path fill="none" stroke="#FB8604" stroke-width="1.5" stroke-linecap="round" stroke-linejoin="round" stroke-miterlimit="10" d="
			M151.36,360.411c14.029,4.725,28.061,8.725,42.371,12.494c13.687,3.605,27.042,8.338,39.986,14.065
			c6.185,2.736,12.236,5.741,18.151,9.02c5.114,2.835,10.548,5.609,15.137,9.269c2.393,1.908,4.585,4.165,6.3,6.706
			c1.527,2.262,1.699,4.676,2.846,7.047c1.199,2.478,4.767,3.53,5.009,6.423c0.035,0.419-0.045,0.898-0.114,1.303"/>
	</g>
	<g id="POLYLINE_1210_">
		
			<path fill="none" stroke="#FB8604" stroke-width="1.5" stroke-linecap="round" stroke-linejoin="round" stroke-miterlimit="10" d="
			M151.868,368.879c3.765,5.817,8.463,6.205,14.889,8.085c4.24,1.24,8.144,3.363,12.325,4.764c4.413,1.479,9.056,2.174,13.585,3.191
			c5.702,1.281,11.274,3.108,16.858,4.814c4.77,1.457,9.715,2.449,14.41,4.126c3.463,1.237,6.49,3.32,9.801,4.882
			c3.592,1.694,7.484,2.482,11.216,3.79c3.995,1.4,9.378,4.894,10.47,9.314"/>
	</g>
	<g id="POLYLINE_1209_">
		
			<path fill="none" stroke="#FB8604" stroke-width="1.5" stroke-linecap="round" stroke-linejoin="round" stroke-miterlimit="10" d="
			M153.786,379.829c8.123,7.694,17.868,12.333,28.661,15.017c11.949,2.971,24.62,5.043,35.968,10
			c2.233,0.976,4.072,2.624,6.28,3.586c2.886,1.258,6.262,0.959,9.301,1.559c2.215,0.437,3.145,1.314,4.938,2.572
			c1.345,0.944,2.999,0.775,4.336,1.574c2.289,1.369,0.623,5.602-0.16,7.606"/>
	</g>
	<g id="POLYLINE_1208_">
		
			<path fill="none" stroke="#FB8604" stroke-width="1.5" stroke-linecap="round" stroke-linejoin="round" stroke-miterlimit="10" d="
			M228.55,429.946c-1.031-2.704-0.098-3.54,2.003-5.183c1.68-1.314,3.229-3.173,2.363-5.418c-1.404-3.639-5.444-2.449-8.403-2.586
			c-5.796-0.269-11.636-2.038-17.191-3.583c-7.124-1.982-14.131-4.346-21.225-6.428c-6.736-1.977-13.807-3.45-20.26-6.285
			c-2.621-1.152-4.99-2.618-6.856-4.826c-0.543-0.643-1.039-1.329-1.506-2.029"/>
	</g>
	<g id="POLYLINE_1207_">
		
			<path fill="none" stroke="#FB8604" stroke-width="1.5" stroke-linecap="round" stroke-linejoin="round" stroke-miterlimit="10" d="
			M160.477,404.49c3.369,4.842,7.25,6.428,12.894,7.891c8.818,2.286,16.551,7.38,25.434,9.538c3.931,0.955,7.956,1.265,11.986,1.452
			c3.471,0.161,7.424-0.1,10.78,1.044c1.198,0.408,2.399,1.055,2.724,2.367c0.586,2.364-0.974,3.985,0.302,6.4"/>
	</g>
	<g id="POLYLINE_1206_">
		
			<path fill="none" stroke="#FB8604" stroke-width="1.5" stroke-linecap="round" stroke-linejoin="round" stroke-miterlimit="10" d="
			M164.429,420.671c5.363,1.168,10.639,2.449,15.796,4.352c5.326,1.966,10.541,4.504,16.081,5.833
			c4.971,1.192,10.139,1.13,15.148,2.103c1.411,0.274,3.298,0.53,4.369,1.631c1.081,1.111,1.608,2.633,2.759,3.802"/>
	</g>
	<g id="POLYLINE_1205_">
		
			<path fill="none" stroke="#FB8604" stroke-width="1.5" stroke-linecap="round" stroke-linejoin="round" stroke-miterlimit="10" d="
			M166.081,427.926c8.693,2.474,16.163,7.891,24.8,10.526c3.101,0.946,6.282,1.398,9.513,1.572
			c3.204,0.173,7.516-0.372,10.608,0.931c1.109,0.468,1.669,1.177,2.347,2.173"/>
	</g>
	<g id="POLYLINE_1204_">
		
			<path fill="none" stroke="#FB8604" stroke-width="1.5" stroke-linecap="round" stroke-linejoin="round" stroke-miterlimit="10" d="
			M167.806,437.988c1.901,2.06,4.905,1.125,7.401,1.626c2.78,0.558,5.315,1.994,7.927,3.028c3.822,1.513,7.864,2.418,11.582,4.196
			c3.243,1.551,7.502,3.159,10.093,5.713"/>
	</g>
	<g id="POLYLINE_1203_">
		
			<path fill="none" stroke="#FB8604" stroke-width="1.5" stroke-linecap="round" stroke-linejoin="round" stroke-miterlimit="10" d="
			M166.298,442.907c0.501,1.186,1.301,1.689,2.441,2.224c2.783,1.306,5.898,1.973,8.808,2.928c3.745,1.229,7.411,2.685,11.155,3.921
			c4.327,1.428,8.614,2.806,12.825,4.549"/>
	</g>
	<g id="POLYLINE_1202_">
		
			<path fill="none" stroke="#FB8604" stroke-width="1.5" stroke-linecap="round" stroke-linejoin="round" stroke-miterlimit="10" d="
			M162.92,448.255c1.468,2.561,3.944,3.611,6.646,4.605c2.182,0.802,4.476,1.15,6.662,1.916c3.975,1.393,7.678,3.562,11.506,5.3
			c2.841,1.289,5.646,2.299,8.706,2.896"/>
	</g>
	<g id="POLYLINE_1201_">
		
			<path fill="none" stroke="#FB8604" stroke-width="1.5" stroke-linecap="round" stroke-linejoin="round" stroke-miterlimit="10" d="
			M159.387,453.429c1.093,2.055,2.347,3.255,4.416,4.302c5.017,2.54,10.063,5.481,15.387,7.329c4.205,1.46,8.53,2.597,12.8,3.847"/>
	</g>
	<g id="POLYLINE_1200_">
		
			<path fill="none" stroke="#FB8604" stroke-width="1.5" stroke-linecap="round" stroke-linejoin="round" stroke-miterlimit="10" d="
			M156.933,456.903c0.607,3.092,2.143,6.237,5.01,7.773c2.246,1.203,4.802,1.727,7.075,2.922c3.469,1.824,6.712,3.99,10.418,5.332
			c2.742,0.993,5.598,1.498,8.512,1.58"/>
	</g>
	<g id="POLYLINE_1199_">
		
			<path fill="none" stroke="#FB8604" stroke-width="1.5" stroke-linecap="round" stroke-linejoin="round" stroke-miterlimit="10" d="
			M183.649,480.239c-6.791-0.785-11.191-2.88-17.034-6.123c-3.419-1.898-8.297-3.551-10.111-7.403
			c-0.921-1.956-1.283-4.267-2.119-6.293"/>
	</g>
	<g id="POLYLINE_1198_">
		
			<path fill="none" stroke="#FB8604" stroke-width="1.5" stroke-linecap="round" stroke-linejoin="round" stroke-miterlimit="10" d="
			M175.91,488.621c-5.363,0.746-10.425-1.422-12.857-6.319c-2.422-4.876,4.379,1.419,5.675,2.028
			c3.024,1.421,6.872,1.497,10.128,1.315"/>
	</g>
	<g id="POLYLINE_1197_">
		
			<path fill="none" stroke="#FB8604" stroke-width="1.5" stroke-linecap="round" stroke-linejoin="round" stroke-miterlimit="10" d="
			M151.203,464.67c1.697,2.262,3.331,4.543,4.785,6.97c0.729,1.217,1.469,3.153,2.624,4.119c0.602,0.503,1.074,0.592,1.85,0.71
			c2.615,0.396,4.425,0.108,6.623,1.698c2.186,1.581,3.819,3.376,6.414,4.29c2.489,0.876,5.154,1.125,7.748,0.636"/>
	</g>
	<g id="POLYLINE_1196_">
		
			<path fill="none" stroke="#FB8604" stroke-width="1.5" stroke-linecap="round" stroke-linejoin="round" stroke-miterlimit="10" d="
			M147.866,468.97c0.413,3.595,1.703,6.869,4.238,9.487c3.492,3.607,7.554,7.682,12.327,9.585c3.091,1.232,6.471,2.013,9.782,2.319"
			/>
	</g>
	<g id="POLYLINE_1195_">
		
			<path fill="none" stroke="#FB8604" stroke-width="1.5" stroke-linecap="round" stroke-linejoin="round" stroke-miterlimit="10" d="
			M145.064,472.44c0.486,4.143,2.459,7.907,5.553,10.703c2.205,1.993,4.933,3.171,7.452,4.697c2.067,1.252,3.912,2.992,6.202,3.849
			c2.652,0.992,5.506,0.495,8.263,0.505"/>
	</g>
	<g id="POLYLINE_1194_">
		
			<path fill="none" stroke="#FB8604" stroke-width="1.5" stroke-linecap="round" stroke-linejoin="round" stroke-miterlimit="10" d="
			M139.558,478.825c4.907,0.584,4.178,7.054,7.326,9.584c0.537,0.431,1.196,0.593,1.845,0.777c2.328,0.661,4.15,1.131,6.345,2.168
			c1.963,0.928,4.251,0.542,6.111,1.549c1.047,0.567,1.747,1.621,2.798,2.208c1.651,0.922,3.728,1.181,5.583,1.126"/>
	</g>
	<g id="POLYLINE_1193_">
		
			<path fill="none" stroke="#FB8604" stroke-width="1.5" stroke-linecap="round" stroke-linejoin="round" stroke-miterlimit="10" d="
			M136.276,486.18c1.123,0.452,6.659,2.256,7.491,0.72c0.757-1.395-3.114-3.341-3.576-3.767c-0.864-0.797-1.341-1.707-1.669-2.849"
			/>
	</g>
	<g id="POLYLINE_1192_">
		
			<path fill="none" stroke="#FB8604" stroke-width="1.5" stroke-linecap="round" stroke-linejoin="round" stroke-miterlimit="10" d="
			M136.029,487.901c5.392,0.648,11.255,3.098,16.051,5.639c2.919,1.547,6.148,0.74,9.083,2.075c2.192,0.997,4.73,2.612,6.199,4.584"
			/>
	</g>
	<g id="POLYLINE_1191_">
		
			<path fill="none" stroke="#FB8604" stroke-width="1.5" stroke-linecap="round" stroke-linejoin="round" stroke-miterlimit="10" d="
			M136.793,492.774c2.239,1.028,3.814,0.776,6.148,1.061c1.786,0.218,2.88,1.421,4.358,2.386c2.391,1.562,5.048,2.22,7.865,2.384
			c2.08,0.121,5.285-0.727,7.182,0.454c1.422,0.885,1.901,3.102,2.986,4.38"/>
	</g>
	<g id="POLYLINE_1190_">
		
			<path fill="none" stroke="#FB8604" stroke-width="1.5" stroke-linecap="round" stroke-linejoin="round" stroke-miterlimit="10" d="
			M137.583,499.474c1.924,1.041,7.484,2.861,9.3,0.561c0.67-0.849,0.536-1.575-0.298-2.165c-0.815-0.576-2.352-0.358-3.26-0.525
			c-2.115-0.388-4.116-1.438-6.056-2.318"/>
	</g>
	<g id="POLYLINE_1189_">
		
			<path fill="none" stroke="#FB8604" stroke-width="1.5" stroke-linecap="round" stroke-linejoin="round" stroke-miterlimit="10" d="
			M137.57,502.136c2.317,1.24,4.955,1.484,7.528,1.011c2.106-0.387,3.903-1.457,6.07-1.298c2.605,0.192,5.648-0.516,8.13,0.11
			c0.8,0.202,1.408,0.549,1.977,1.152c0.907,0.962,1.448,2.392,1.381,3.71"/>
	</g>
	<g id="POLYLINE_1188_">
		
			<path fill="none" stroke="#FB8604" stroke-width="1.5" stroke-linecap="round" stroke-linejoin="round" stroke-miterlimit="10" d="
			M137.422,506.627c1.72,1.033,4.489,1.179,6.436,0.898c1.201-0.174,1.757-0.874,2.835-1.254c2.394-0.843,5.447,0.243,8.012-0.148
			c1.369-0.209,4.024-1.257,5.449-0.292c0.87,0.589,1.039,1.832,1.062,2.794"/>
	</g>
	<g id="POLYLINE_1187_">
		
			<path fill="none" stroke="#FB8604" stroke-width="1.5" stroke-linecap="round" stroke-linejoin="round" stroke-miterlimit="10" d="
			M137.255,510.085c4.864,1.222,8.866,0.313,13.71-0.533c1.543-0.27,7.097-2.209,8.333,0.032c0.268,0.485,0.199,1.261,0.06,1.769"/>
	</g>
	<g id="POLYLINE_1186_">
		
			<path fill="none" stroke="#FB8604" stroke-width="1.5" stroke-linecap="round" stroke-linejoin="round" stroke-miterlimit="10" d="
			M137.074,513.414c3.144,1.359,5.794,0.978,9.17,0.636c2.15-0.218,4.399,0.081,6.493-0.453c1.778-0.453,3.151-1.696,3.764,0.322
			c0.336,1.105-0.137,2.533-0.059,3.703c0.1,1.488,0.471,2.989,0.998,4.381"/>
	</g>
	<g id="POLYLINE_1185_">
		
			<path fill="none" stroke="#FB8604" stroke-width="1.5" stroke-linecap="round" stroke-linejoin="round" stroke-miterlimit="10" d="
			M136.904,516.416c2.455,0.705,5.064,1.293,7.634,1.266c2.575-0.027,5.444-0.822,7.997-0.107c1.364,0.382,1.9,0.96,2.103,2.357
			c0.471,3.232,0.16,5.876,1.641,8.989"/>
	</g>
	<g id="POLYLINE_1184_">
		
			<path fill="none" stroke="#FB8604" stroke-width="1.5" stroke-linecap="round" stroke-linejoin="round" stroke-miterlimit="10" d="
			M136.364,526.434c1.358-0.228,2.759-0.255,4.013,0.365c1.133,0.56,1.911,1.701,3.158,2.056c2.695,0.769,5.497-2.164,7.993-1.216
			c1.231,0.467,1.654,2.352,1.969-0.056c0.166-1.271-0.322-2.443-1.334-3.203c-3.621-2.722-9.201-0.223-13.174-2.489
			c-0.824-0.47-1.556-1.1-2.3-1.68"/>
	</g>
	<g id="POLYLINE_1183_">
		
			<path fill="none" stroke="#FB8604" stroke-width="1.5" stroke-linecap="round" stroke-linejoin="round" stroke-miterlimit="10" d="
			M136.154,530.943c3.076-1.007,3.473,2.67,6.226,3.067c1.297,0.187,3.733,0.003,5.095-0.351c1.414-0.368,2.603-2.191,4.208-1.845
			c1.631,0.352,1.905,1.599,3.851,1.455"/>
	</g>
	<g id="POLYLINE_1182_">
		
			<path fill="none" stroke="#FB8604" stroke-width="1.5" stroke-linecap="round" stroke-linejoin="round" stroke-miterlimit="10" d="
			M135.875,537.225c1.199-0.224,2.331-0.314,3.445,0.216c1.245,0.593,2.062,2.089,3.474,2.367c2.907,0.572,4.91-3.223,7.823-3.192
			c1.509,0.016,2.794,0.916,4.375,0.893"/>
	</g>
	<g id="POLYLINE_1181_">
		
			<path fill="none" stroke="#FB8604" stroke-width="1.5" stroke-linecap="round" stroke-linejoin="round" stroke-miterlimit="10" d="
			M135.681,541.529c2.173-0.032,3.37,1.402,5.363,2.039c2.952,0.944,5.995-0.474,8.858-1.026c1.542-0.297,3.112-0.295,4.654,0.016"
			/>
	</g>
	<g id="POLYLINE_1180_">
		
			<path fill="none" stroke="#FB8604" stroke-width="1.5" stroke-linecap="round" stroke-linejoin="round" stroke-miterlimit="10" d="
			M135.418,546.883c2.59-0.367,3.372,1.174,5.516,1.466c3.616,0.494,7-3.574,10.367-2.514c1.267,0.399,1.533,1.004,3.04,0.701"/>
	</g>
	<g id="POLYLINE_1179_">
		
			<path fill="none" stroke="#FB8604" stroke-width="1.5" stroke-linecap="round" stroke-linejoin="round" stroke-miterlimit="10" d="
			M135.243,549.983c2.95-0.04,4.357,1.662,7.074,2.205c2.541,0.508,4.602-1.374,6.883-2.078c1.586-0.489,3.395-0.388,5.023-0.231"/>
	</g>
	<g id="POLYLINE_1178_">
		
			<path fill="none" stroke="#FB8604" stroke-width="1.5" stroke-linecap="round" stroke-linejoin="round" stroke-miterlimit="10" d="
			M135.016,553.426c2.684-0.551,3.277,1.413,5.667,1.865c3.321,0.629,6.295-2.297,9.684-0.944c1.442,0.576,2.131,1.196,3.747,0.867"
			/>
	</g>
	<g id="POLYLINE_1177_">
		
			<path fill="none" stroke="#FB8604" stroke-width="1.5" stroke-linecap="round" stroke-linejoin="round" stroke-miterlimit="10" d="
			M134.756,556.628c2.47-0.849,2.598,1.591,4.471,2.576c3.063,1.61,6.682-1.697,9.463-2.346c1.748-0.408,3.808-0.004,5.395,0.785"/>
	</g>
	<g id="POLYLINE_1176_">
		
			<path fill="none" stroke="#FB8604" stroke-width="1.5" stroke-linecap="round" stroke-linejoin="round" stroke-miterlimit="10" d="
			M154.061,561.187c-2.194-0.263-3.813,0.211-5.689,1.305c-2.214,1.292-4.537,2.445-6.694,3.828
			c-0.593,0.38-2.488,1.322-2.664,2.089c-0.519,2.263,7.459-3.421,7.904-3.635c2.181-1.05,4.868-0.814,7.137-0.187"/>
	</g>
	<g id="POLYLINE_1175_">
		
			<path fill="none" stroke="#FB8604" stroke-width="1.5" stroke-linecap="round" stroke-linejoin="round" stroke-miterlimit="10" d="
			M133.416,566.875c2.854-1.217,5.906-1.876,8.754-3.114c1.055-0.459,3.692-1.375,4.177-2.52c0.674-1.59-3.809,0.266-4.956,0.407
			c-2.393,0.293-4.812,0.126-7.199-0.143"/>
	</g>
	<g id="POLYLINE_1174_">
		
			<path fill="none" stroke="#FB8604" stroke-width="1.5" stroke-linecap="round" stroke-linejoin="round" stroke-miterlimit="10" d="
			M154.06,566.74c-2.474-0.254-4.08,0.552-6.021,1.745c-2.627,1.614-5.918,1.239-8.785,2.154c-1.198,0.383-3.391,0.895-2.019,1.744
			c1.38,0.853,5.031,0.253,6.722,0.076c1.186-0.125,2.32-0.359,3.372-0.936c2.683-1.472,3.503-2.784,6.747-2.028"/>
	</g>
	<g id="POLYLINE_1173_">
		
			<path fill="none" stroke="#FB8604" stroke-width="1.5" stroke-linecap="round" stroke-linejoin="round" stroke-miterlimit="10" d="
			M154.105,572.221c-1.41-0.559-2.88-0.768-4.32-0.269c-1.107,0.384-2.05,1.1-3.188,1.442c-2.13,0.642-4.395,0.727-6.54,1.327
			c-0.392,0.109-3.607,0.842-3.336,1.775c0.237,0.817,3.029,0.304,3.46,0.22c2.168-0.424,4.171-1.462,6.338-1.924
			c2.483-0.53,5.076-0.776,7.615-0.726"/>
	</g>
	<g id="POLYLINE_1172_">
		
			<path fill="none" stroke="#FB8604" stroke-width="1.5" stroke-linecap="round" stroke-linejoin="round" stroke-miterlimit="10" d="
			M154.249,576.91c-2.39-1.174-5.777-1.808-8.332-0.753c-1.272,0.525-2.108,1.596-3.425,2.079c-1.267,0.465-2.823,0.402-3.97,1.051
			c0.312,1.169,5.828-0.364,6.327-0.499c3.256-0.879,6.339-1.29,9.61-0.221"/>
	</g>
	<g id="POLYLINE_1171_">
		
			<path fill="none" stroke="#FB8604" stroke-width="1.5" stroke-linecap="round" stroke-linejoin="round" stroke-miterlimit="10" d="
			M140.302,584.37c2.752-0.569,5.431-1.427,8.137-2.176c1.258-0.348,2.849-0.435,4.001-1.057c0.338-0.183,0.916-0.32,1.053-0.751
			c0.296-0.932-0.335-0.889-1.063-1.024c-1.263-0.234-3.049,0.454-4.224,0.711c-3.486,0.764-6.959,1.587-10.439,2.381"/>
	</g>
	<g id="POLYLINE_1170_">
		
			<path fill="none" stroke="#FB8604" stroke-width="1.5" stroke-linecap="round" stroke-linejoin="round" stroke-miterlimit="10" d="
			M143.309,591.5c1.758-2.999,4.611-2.612,6.877-4.812c0.417-0.405,1.798-1.927,1.528-2.603c-0.332-0.83-1.399,0.056-2.09,0.311
			c-2.615,0.966-5.798,1.804-8.528,2.409"/>
	</g>
	<g id="POLYLINE_1169_">
		
			<path fill="none" stroke="#FB8604" stroke-width="1.5" stroke-linecap="round" stroke-linejoin="round" stroke-miterlimit="10" d="
			M218.562,577.762c-0.927,0.433-8.457,3.641-7.579,5.738c0.557,1.33,3.535-0.023,4.139-0.374c1.808-1.05,3.062-1.974,5.288-2.094"
			/>
	</g>
	<g id="POLYLINE_1168_">
		
			<path fill="none" stroke="#FB8604" stroke-width="1.5" stroke-linecap="round" stroke-linejoin="round" stroke-miterlimit="10" d="
			M196.5,586.122c2.709-0.848,5.284-1.941,7.52-3.71c2.465-1.95,3.994-3.786,7.078-4.433c2.235-0.469,4.756-0.593,6.836-1.638"/>
	</g>
	<g id="POLYLINE_1167_">
		
			<path fill="none" stroke="#FB8604" stroke-width="1.5" stroke-linecap="round" stroke-linejoin="round" stroke-miterlimit="10" d="
			M195.15,579.505c3.676,0.304,6.117-1.463,8.67-3.992c2.354-2.332,5.848-1.807,8.862-3.05c1.248-0.515,2.133-1.214,2.922-2.33"/>
	</g>
	<g id="POLYLINE_1166_">
		
			<path fill="none" stroke="#FB8604" stroke-width="1.5" stroke-linecap="round" stroke-linejoin="round" stroke-miterlimit="10" d="
			M193.246,571.601c0.48-0.833,1.129-1.604,2.046-1.95c0.588-0.222,4.902-0.889,5.25-0.598c1.683,1.41-4.558,4.139-4.941,4.707
			c-0.515,0.762-0.493,1.563,0.471,2.059c2.302,1.183,5.44-2.99,6.943-3.872c2.49-1.461,5.784-1.437,8.103-3.159
			c0.772-0.573,1.215-1.421,1.992-2.005c0.347-0.261,0.745-0.478,1.134-0.665"/>
	</g>
	<g id="POLYLINE_1165_">
		
			<path fill="none" stroke="#FB8604" stroke-width="1.5" stroke-linecap="round" stroke-linejoin="round" stroke-miterlimit="10" d="
			M192.37,562.75c1.888,2.511,4.379,3.197,7.46,3.344c2.71,0.129,6.804,0.198,8.926-1.783c1.324-1.236,2.175-2.255,3.913-3.06"/>
	</g>
	<g id="POLYLINE_1164_">
		
			<path fill="none" stroke="#FB8604" stroke-width="1.5" stroke-linecap="round" stroke-linejoin="round" stroke-miterlimit="10" d="
			M191.886,558.615c1.316,1.377,3.111,2.654,5.016,3.059c1.453,0.309,2.901-0.159,4.352,0.05c2.422,0.348,3.285,1.03,5.405-0.636
			c1.722-1.352,2.648-3.11,4.682-4.095"/>
	</g>
	<g id="POLYLINE_1163_">
		
			<path fill="none" stroke="#FB8604" stroke-width="1.5" stroke-linecap="round" stroke-linejoin="round" stroke-miterlimit="10" d="
			M191.235,554.903c1.042-0.284,2.826-0.611,3.613,0.404c0.629,0.811-0.075,2.146,0.739,2.887c1.028,0.937,2.909,0.09,4.141,0.693
			c1.417,0.695,1.423,1.479,3.177,1.411c3.612-0.139,5.773-3.253,7.613-6.007"/>
	</g>
	<g id="POLYLINE_1162_">
		
			<path fill="none" stroke="#FB8604" stroke-width="1.5" stroke-linecap="round" stroke-linejoin="round" stroke-miterlimit="10" d="
			M189.512,547.803c5.157-1.019,6.319,4.133,10.732,5.474c1.371,0.417,2.795,0.099,4.068-0.5c1.017-0.478,2.906-2.885,3.937-2.604
			c1.322,0.361,0.48,3.018-0.112,3.747c-1.971,2.429-7.331,2.357-9.83,1.043c-2.361-1.242-4.082-5.574-7.254-4.748
			c-0.279,0.073-0.57,0.199-0.82,0.342"/>
	</g>
	<g id="POLYLINE_1161_">
		
			<path fill="none" stroke="#FB8604" stroke-width="1.5" stroke-linecap="round" stroke-linejoin="round" stroke-miterlimit="10" d="
			M186.683,538.061c2.326-0.582,3.661,0.107,5.329,1.697c2.393,2.28,5.009,4.35,7.815,6.113c0.947,0.595,3.189,1.037,3.76,1.992
			c1.445,2.415-2.217,2.114-3.416,1.383c-4.429-2.702-6.76-7.385-12.438-7.679"/>
	</g>
	<g id="POLYLINE_1160_">
		
			<path fill="none" stroke="#FB8604" stroke-width="1.5" stroke-linecap="round" stroke-linejoin="round" stroke-miterlimit="10" d="
			M185.103,532.873c5.852-1.918,7.877,3.865,11.602,6.861c3.524,2.834,7.611,5.04,11.607,7.122"/>
	</g>
	<g id="POLYLINE_1159_">
		
			<path fill="none" stroke="#FB8604" stroke-width="1.5" stroke-linecap="round" stroke-linejoin="round" stroke-miterlimit="10" d="
			M184.365,530.439c2.334-1.145,4.197-0.859,6.383,0.439c2.297,1.364,5.107,3.014,6.82,5.132c0.574,0.709,0.904,1.534,1.574,2.167
			c1.976,1.868,5.254,2.915,7.763,3.768"/>
	</g>
	<g id="POLYLINE_1158_">
		
			<path fill="none" stroke="#FB8604" stroke-width="1.5" stroke-linecap="round" stroke-linejoin="round" stroke-miterlimit="10" d="
			M183.091,526.152c2.959-1.693,7.069-2.093,9.787,0.226c1.38,1.177,2.218,2.876,3.833,3.765c1.257,0.691,1.843,0.73,2.774,1.861
			c2.015,2.446,3.032,3.963,6.096,5.177"/>
	</g>
	<g id="POLYLINE_1157_">
		
			<path fill="none" stroke="#FB8604" stroke-width="1.5" stroke-linecap="round" stroke-linejoin="round" stroke-miterlimit="10" d="
			M182.645,524.606c2.785-0.972,6.778-2.981,9.777-1.629c3.757,1.694,6.806,4.186,9.181,7.362c0.711,0.951,1.682,1.614,2.754,2.118"
			/>
	</g>
	<g id="POLYLINE_1156_">
		
			<path fill="none" stroke="#FB8604" stroke-width="1.5" stroke-linecap="round" stroke-linejoin="round" stroke-miterlimit="10" d="
			M180.872,517.88c2.954-1.809,7.365-3.567,10.913-3.067c2.878,0.406,4.819,2.739,6.544,4.87c1.493,1.845,3.367,3.36,4.776,5.26"/>
	</g>
	<g id="POLYLINE_1147_">
		
			<path fill="none" stroke="#FB8604" stroke-width="1.5" stroke-linecap="round" stroke-linejoin="round" stroke-miterlimit="10" d="
			M181.619,520.868c2.151-1.58,7.765-5.403,10.573-3.283c0.866,0.654,1.085,1.314,0.239,1.923c-0.83,0.597-2.935,0.191-3.995,0.425
			c-2.207,0.488-4.355,1.367-6.553,1.929"/>
	</g>
	<g id="POLYLINE_881_">
		
			<path fill="none" stroke="#FB8604" stroke-width="1.5" stroke-linecap="round" stroke-linejoin="round" stroke-miterlimit="10" d="
			M180.506,516.309c3.2-2.254,6.51-2.904,10.377-3.036c2.308-0.079,4.664-0.208,6.635,1.136c2.08,1.418,3.566,3.601,5.559,5.156"/>
	</g>
	<g id="POLYLINE_880_">
		
			<path fill="none" stroke="#FB8604" stroke-width="1.5" stroke-linecap="round" stroke-linejoin="round" stroke-miterlimit="10" d="
			M179.801,513.134c4.546-2.771,9.585-3.911,14.785-4.939c1.713-0.339,2.841,0.021,4.362,0.933c1.834,1.1,3.517,2.54,4.81,4.245"/>
	</g>
	<g id="POLYLINE_879_">
		
			<path fill="none" stroke="#FB8604" stroke-width="1.5" stroke-linecap="round" stroke-linejoin="round" stroke-miterlimit="10" d="
			M179.29,510.842c3.968-3.292,9.29-6.044,14.404-6.875c2.762-0.449,3.601,0.636,5.763,2.174c1.869,1.329,3.455,2.277,4.823,4.193"
			/>
	</g>
	<g id="POLYLINE_878_">
		
			<path fill="none" stroke="#FB8604" stroke-width="1.5" stroke-linecap="round" stroke-linejoin="round" stroke-miterlimit="10" d="
			M177.953,505.982c4.52-3.833,9.97-4.735,15.584-6.236c1.941-0.519,3.546-0.655,5.295,0.384c2.357,1.4,4.413,3.795,6.417,5.656"/>
	</g>
	<g id="POLYLINE_877_">
		
			<path fill="none" stroke="#FB8604" stroke-width="1.5" stroke-linecap="round" stroke-linejoin="round" stroke-miterlimit="10" d="
			M177.184,504.156c3.442-5.01,7.518-4.797,13.015-6.257c2.865-0.761,7.251-2.839,10.054-0.717c0.94,0.712,1.501,1.819,2.272,2.685
			c1.022,1.148,2.263,1.965,3.5,2.868"/>
	</g>
	<g id="POLYLINE_876_">
		
			<path fill="none" stroke="#FB8604" stroke-width="1.5" stroke-linecap="round" stroke-linejoin="round" stroke-miterlimit="10" d="
			M176.112,502.357c5.318-4.791,15.868-13.079,23.811-9.759c2.711,1.133,5.419,3.129,7.62,5.074"/>
	</g>
	<g id="POLYLINE_875_">
		
			<path fill="none" stroke="#FB8604" stroke-width="1.5" stroke-linecap="round" stroke-linejoin="round" stroke-miterlimit="10" d="
			M175.086,500.898c2.211-2.579,4.91-5.135,7.924-6.751c4.003-2.148,8.598-3.058,12.798-4.752c1.906-0.769,2.763-1.169,4.393,0.054
			c2.818,2.113,5.095,3.711,8.535,4.884"/>
	</g>
	<g id="POLYLINE_874_">
		
			<path fill="none" stroke="#FB8604" stroke-width="1.5" stroke-linecap="round" stroke-linejoin="round" stroke-miterlimit="10" d="
			M173.317,497.517c1.978-2.812,4.941-5.701,8.068-7.151c2.666-1.236,5.817-0.403,8.431-1.587c0.45-0.204,1.769-0.864,1.505-1.581
			c-0.468-1.275-5.263,0.055-6.239,0.067c-5.256,0.065-8.311,3.081-12.191,6.62"/>
	</g>
	<g id="POLYLINE_873_">
		
			<path fill="none" stroke="#FB8604" stroke-width="1.5" stroke-linecap="round" stroke-linejoin="round" stroke-miterlimit="10" d="
			M184.369,479.325c2.957,2.784,6.422,4.346,10.398,5.034c2.685,0.465,5.65-0.399,8.19,0.511c2.736,0.981,5.403,2.749,8.111,3.881"
			/>
	</g>
	<g id="POLYLINE_872_">
		
			<path fill="none" stroke="#FB8604" stroke-width="1.5" stroke-linecap="round" stroke-linejoin="round" stroke-miterlimit="10" d="
			M186.874,475.991c2.172,3.572,7.307,4.665,11.189,5.034c2.078,0.198,3.716-0.772,5.66,0.06c3.301,1.411,5.698,2.722,9.325,3.293"
			/>
	</g>
	<g id="POLYLINE_871_">
		
			<path fill="none" stroke="#FB8604" stroke-width="1.5" stroke-linecap="round" stroke-linejoin="round" stroke-miterlimit="10" d="
			M195.17,464.635c7.621,3.199,13.274,9.366,21.32,11.549"/>
	</g>
	<g id="POLYLINE_870_">
		
			<path fill="none" stroke="#FB8604" stroke-width="1.5" stroke-linecap="round" stroke-linejoin="round" stroke-miterlimit="10" d="
			M214.409,481.311c-1.696-2.703-4.147-3.364-6.682-5.172c-2.929-2.088-4.786-4.372-8.25-5.731c-2.287-0.897-4.658-1.63-7.079-2.059
			"/>
	</g>
	<g id="POLYLINE_869_">
		
			<path fill="none" stroke="#FB8604" stroke-width="1.5" stroke-linecap="round" stroke-linejoin="round" stroke-miterlimit="10" d="
			M233.823,436.372c-0.913,0.791-2.427,1.465-3.632,0.931c-2.062-0.914-0.162-1.374,1.059-1.894
			c1.729-0.736,2.991-1.911,4.181-3.366"/>
	</g>
	<g id="POLYLINE_868_">
		
			<path fill="none" stroke="#FB8604" stroke-width="1.5" stroke-linecap="round" stroke-linejoin="round" stroke-miterlimit="10" d="
			M226.916,449.731c-0.47-0.7-4.366-5.26-3.977-5.941c0.58-1.015,4.458,1.225,5.349,1.301c0.474,0.04,0.941,0.017,1.405-0.116"/>
	</g>
	<g id="POLYLINE_727_">
		
			<path fill="none" stroke="#FB8604" stroke-width="1.5" stroke-linecap="round" stroke-linejoin="round" stroke-miterlimit="10" d="
			M222.361,459.874c-2.431-2.787-6.293-3.065-7.779-6.865c-1.452-3.712,2.58,0.567,3.689,1.305c1.863,1.239,3.633,1.357,5.834,1.206
			"/>
	</g>
	<g id="POLYLINE_711_">
		
			<path fill="none" stroke="#FB8604" stroke-width="1.5" stroke-linecap="round" stroke-linejoin="round" stroke-miterlimit="10" d="
			M218.477,470.722c-2.487-0.276-5.335-1.456-6.977-3.426c-0.974-1.168-1.032-2.571-1.653-3.923
			c-0.513-1.116-1.394-2.036-1.915-3.132c0.087-0.076,4.015,2.832,4.808,3.167c2.4,1.011,5.069,1.275,7.525,2.228"/>
	</g>
</g>
<g id="AG-ANIMALS">
	<g id="POLYLINE_695_">
		
			<path fill="none" stroke="#FB8604" stroke-width="2.5" stroke-linecap="round" stroke-linejoin="round" stroke-miterlimit="10" d="
			M618.234,326.08c5.95,0.399,12.822-3.435,11.96-10.257c-0.522-4.133-3.937-7.141-4.971-11.076
			c-0.285-1.083-0.363-2.075,0.298-3.025c1.641-2.359,6.376-3.314,9.004-3.547"/>
	</g>
	<g id="POLYLINE_694_">
		
			<path fill="none" stroke="#FB8604" stroke-width="2.5" stroke-linecap="round" stroke-linejoin="round" stroke-miterlimit="10" d="
			M427.344,602.705c2.902-6.042,7.851-10.256,14.37-11.829c1.993-0.481,4.024-0.72,6.074-0.708"/>
	</g>
	<g id="POLYLINE_693_">
		
			<path fill="none" stroke="#FB8604" stroke-width="2.5" stroke-linecap="round" stroke-linejoin="round" stroke-miterlimit="10" d="
			M439.572,582.034c2.558,3.281,6.601,4.803,8.49,8.696c1.006,2.074,1.779,4.127,3.058,6.065c1.406,2.131,3.161,4.024,4.372,6.283
			c1.49,2.779,1.291,4.249-2.071,4.419c-3.196,0.162-6.428-0.223-9.635-0.158c-3.314,0.067-6.801,0.392-10.093-0.189
			c-2.999-0.53-4.988-2.242-6.587-4.805c-2.85-4.57,1.57-6.768,1.424-11.43c-0.073-2.313-1.153-4.673-2.818-6.272
			c-2.165-2.079-5.452-2.762-7.312-5.182c-2.671-3.476-2.315-9.598-2.259-13.658c0.107-7.845,2.122-15.443,3-23.216
			c0.941-8.333,2.365-16.935,2.334-25.325c-0.014-3.782-1.931-7.166-2.032-10.929c-0.073-2.738,0.505-5.467,0.778-8.18
			c0.427-4.236,0.581-8.498,0.743-12.751c0.345-9.013,0.704-18.089,0.143-27.1c-0.26-4.169-0.942-8.242-1.744-12.336
			c-0.415-2.123-0.701-4.483-1.642-6.471c-0.553-1.168-1.156-1.874-2.381-2.283c-2.242-0.748-5.196-0.406-7.498-0.36
			c-4.654,0.094-9.308,0.355-13.951,0.682c-8.598,0.606-17.039,2.253-25.615,2.998c-9.318,0.809-18.459,0.494-27.787,0.064
			c-8.429-0.388-16.876-0.754-25.214-2.136c-16.149-2.677-33.174-9.072-46.167-19.218c-3.012-2.352-6.481-7.154-10.537-7.871
			c-2.096-0.371-4.189,0.864-5.9,1.91c-4.219,2.579-7.051,6.438-10.792,9.569c-2.647,2.215-5.506,3.16-8.67,4.468
			c-5.398,2.231-9.658,6.771-13.991,10.517c-6.201,5.361-11.637,11.292-16.823,17.635c-5.97,7.303-11.367,15-17.019,22.545
			c-4.434,5.919-10.443,10.508-14.699,16.516c-1.669,2.357-2.823,5.02-4.364,7.456c-1.599,2.528-3.67,4.698-5.441,7.099
			c-2.687,3.642-3.02,6.862-3.299,11.256c-0.486,7.649-2.564,15.113-3.049,22.801c-0.613,9.698-0.494,19.45-0.407,29.162
			c0.023,2.563-0.409,6.347,1.237,8.606c0.889,1.219,2.637,1.462,3.465,2.671c0.783,1.144,0.384,2.731,0.719,4.026
			c0.942,3.639,4.075,6.437,6.43,9.146c1.842,2.119,3.869,4.655,5.004,7.234c0.16,0.363,0.535,0.831,0.478,1.271
			c-0.108,0.834-1.001,1.347-1.697,1.666c-0.812,0.373-1.706,0.458-2.586,0.535c-4.388,0.385-8.902,0.038-13.293-0.013
			c-3.118-0.036-6.701,0.612-9.752,0.057c-0.462-0.084-0.92-0.137-1.326-0.399c-1.308-0.845-1.546-2.78-1.648-4.175
			c-0.132-1.798,0.049-3.737,0.709-5.426c0.513-1.314,1.804-2.341,2.233-3.615c0.231-0.688,0.26-0.819,0-1.484
			c-0.358-0.916-1.483-1.634-1.968-2.565c-0.809-1.553-0.925-3.364-1.607-4.96c-1.228-2.875-4.82-2.898-6.348-5.858
			c-1.804-3.495-1.245-8.174-0.778-11.892c1.028-8.194,1.802-16.266,2.22-24.514c0.561-11.058,1.142-22.115,1.682-33.174
			c0.306-6.264,0.528-12.111-0.93-18.2c-2.138-8.929,6.187-15.568,11.068-21.716c5.632-7.095,10.979-14.44,15.977-21.996
			c1.957-2.959,4.333-6.071,4.409-9.772c0.047-2.273-0.562-4.563-1.048-6.759c-1.013-4.58-2.055-9.156-3.129-13.722
			c-2.259-9.6-4.882-19.082-7.535-28.579c-2.211-7.913-4.119-15.903-4.605-24.133c-0.529-8.953,0.684-17.83,2.909-26.495
			c3.777-14.708,10.122-28.911,22.911-37.862c12.609-8.825,28.422-14.539,43.392-17.743c7.774-1.664,15.723-2.352,23.657-1.702
			c9.411,0.771,18.78,2.543,28.173,3.595c19.289,2.159,38.186,6.537,57.144,10.579c16.687,3.558,33.186,5.656,50.237,3.723
			c9.275-1.051,18.471-2.718,27.761-3.657c7.966-0.805,15.365-0.647,23.284,0.257c7.077,0.808,14.283-0.538,21.182-2.043
			c8.155-1.779,15.509-4.602,22.782-8.699c7.568-4.263,14.438-9.654,21.325-14.918c5.605-4.284,10.117-9.736,15.771-13.928
			c3.28-2.432,6.678-4.715,9.747-7.419c3.208-2.827,6.049-6.03,9.07-9.049c3.773-3.771,7.831-6.896,12.713-9.056
			c2.01-0.889,4.257-1.586,6.076-2.871c0.898-0.634,1.603-1.493,2.568-2.038c2.202-1.242,5.671-1.944,8.144-1.621"/>
	</g>
	<g id="POLYLINE_692_">
		
			<path fill="none" stroke="#FB8604" stroke-width="2.5" stroke-linecap="round" stroke-linejoin="round" stroke-miterlimit="10" d="
			M209.036,605.251c1.849-6.635,5.958-12.649,11.752-16.443c1.73-1.133,3.596-2.047,5.533-2.77"/>
	</g>
	<g id="POLYLINE_691_">
		
			<path fill="none" stroke="#FB8604" stroke-width="2.5" stroke-linecap="round" stroke-linejoin="round" stroke-miterlimit="10" d="
			M141.181,603.349c4.317-7.031,11.201-11.461,18.828-14.435"/>
	</g>
	<g id="POLYLINE_690_">
		
			<path fill="none" stroke="#FB8604" stroke-width="2.5" stroke-linecap="round" stroke-linejoin="round" stroke-miterlimit="10" d="
			M173.09,491.568c-0.551,3.664,0.125,6.601,2.203,9.622c3.887,5.65,4.464,12.431,6.141,18.961
			c2.624,10.219,6.215,20.169,8.793,30.399c2.074,8.231,1.801,16.746,3.874,24.936c0.832,3.286,1.088,7.356,2.346,10.471
			c0.166,0.412,0.291,0.877,0.623,1.198c1.381,1.336,3.91,0.499,5.601,0.803c2.09,0.375,4.328,1.505,5.372,3.437
			c1.597,2.954-0.129,6.116-0.654,9.083c-0.892,5.034,4.44,6.657,8.61,6.968c4.536,0.338,9.187,0.264,13.733,0.165
			c1.805-0.039,4.265,0.087,5.941-0.771c0.792-0.406,1.227-0.759,1.354-1.666c0.1-0.718-0.325-1.557-0.581-2.185
			c-1.581-3.878-3.896-7.652-5.888-11.335c-0.991-1.832-2.082-3.648-3.618-5.08c-1.579-1.471-3.571-2.417-5.127-3.912
			c-4.36-4.189-5.91-11.51-7.716-16.986c-3.318-10.062-6.359-20.256-9.055-30.503c-4.821-18.324,1.258-35.557,8.682-52.3
			c4.142-9.342,6.739-19.287,10.929-28.603c1.864-4.144,4.347-7.903,6.542-11.868c1.573-2.842,2.489-5.875,3.646-8.899
			c1.22-3.188,3.016-6.067,4.769-8.983"/>
	</g>
	<g id="POLYLINE_689_">
		
			<path fill="none" stroke="#FB8604" stroke-width="2.5" stroke-linecap="round" stroke-linejoin="round" stroke-miterlimit="10" d="
			M590.409,217.395c1.043,0.083,1.405,0.575,1.983,1.186c0.084,0.089,0.089,0.564,0.319,0.801c0.544,0.561,2.229,0.482,2.547,1.278
			c0.303,0.757-0.625,1.195,0.061,2.228c0.557,0.838,2.217,0.955,2.608,1.72c0.379,0.742-0.25,0.401-0.133,0.911
			c0.027,0.119-0.086,0.552-0.028,0.81c0.223,0.998,1.953,1.408,2.29,2.413c0.234,0.699-0.126,1.114,0.085,1.806
			c0.24,0.786,0.78,1.587,1.007,2.408c0.112,0.406-0.165,0.462,0.067,0.94c0.225,0.465,1.414,0.76,1.411,1.429
			c-0.004,0.857-0.841,1.001-1.527,1.119c-3.904,0.673-7.861-2.347-11.877-1.067c-0.766,0.244-1.489,0.644-2.169,1.066"/>
	</g>
	<g id="POLYLINE_688_">
		
			<path fill="none" stroke="#FB8604" stroke-width="2.5" stroke-linecap="round" stroke-linejoin="round" stroke-miterlimit="10" d="
			M425.128,294.492c0.959-2.137,2.898-0.443,4.49-1.311c0.542-0.295,0.556-0.96,1.008-1.315c0.762-0.598,1.378-0.292,2.278-0.624
			c1.987-0.732,0.513-1.915,1.47-3.539c0.795-1.349,2.629-0.604,3.713-1.611c1.342-1.245,0.994-3.435,2.72-4.547
			c0.574-0.37,1.263-0.247,1.627-0.879c0.53-0.92-0.335-2.349-0.094-3.386c0.222-0.954,0.727-1.511,1.65-1.842
			c2.578-0.926,4.564,1.313,5.097-1.706c0.214-1.21,0.049-2.861,0.965-3.815c1.078-1.123,3.171-0.859,4.304-1.971
			c1.188-1.166,0.76-3.472,1.145-5.06c0.582-2.401,0.89-3.44,2.119-5.429c0.916-1.482,1.009-3.354,2.035-4.763
			c1.259-1.729,2.978-1,4.572-2.046c1.319-0.865,1.639-2.707,2.855-3.676c1.465-1.167,3.53-0.789,5.261-0.985
			c2.918-0.33,2.482-1.039,3.694-3.256c0.731-1.337,1.353-3.415,2.832-3.809c0.865-0.23,1.647,0.184,2.463-0.292
			c0.724-0.422,0.898-1.534,1.575-1.868c0.77-0.38,1.939,0.236,2.797-0.255c0.685-0.391,0.9-1.002,1.214-1.695
			c0.574-1.269,0.56-1.706,1.54-2.517c0.762-0.631,1.092-0.466,1.532-1.41c0.44-0.943,0.093-2.408,1.044-3.121
			c0.758-0.569,1.901-0.165,2.757-0.446c1.717-0.565,1.964-2.404,3.441-3.147c0.787-0.395,1.476-0.222,2.193-0.769
			c0.818-0.624,1.121-1.476,2.082-1.929c1.474-0.694,3.33-0.27,4.748-1.126c0.722-0.436,1.065-1.299,1.793-1.712
			c1.133-0.642,2.526-0.18,3.738-0.405c1.181-0.219,1.584-0.694,2.49-1.498c1.324-1.174,2.899-1.691,4.302-2.766
			c0.401-0.307,1.256-1.675,1.651-1.865c0.492-0.237,1.151,0.159,1.705,0.046c0.758-0.155,1.342-1.062,2.087-1.075
			c1.192-0.021,1.485,1.524,2.404-0.241c0.472-0.906-0.192-2.35,1.474-2.213c1.627,0.134,0.775,2.499,2.283,2.95
			c1.317,0.394,1.139-1.724,2.309-2.369c1.731-0.953,3.435,0.478,4.556,0.013c0.77-0.32,0.945-1.834,1.955-1.972
			c0.857-0.117,1.35,0.712,1.969,1.128c2.756,1.853,0.839-2.184,2.833-3.467c1.334-0.859,2.368,1.237,3.745,0.929
			c0.897-0.201,1.307-1.556,2.244-1.731c0.708-0.133,0.651,0.307,1.292,0.401c1.909,0.279,4.307-0.437,5.759-1.745
			c2.708-2.439,1.251-1.705,4.754-0.469c0.891,0.314,1.693,0.36,2.579,0.008c0.648-0.257,1.489-1.455,2.257-1.163
			c0.76,0.289,1.219,2.433,1.913,3.127c0.669,0.669,1.532,1.212,2.48,1.344c0.592,0.082,1.173-0.287,1.699,0.004
			c0.353,0.195,0.486,1.064,0.962,1.365c1.612,1.018,3.979-0.753,5.142,0.601c0.283,0.33-0.277,0.75,0.23,1.208
			c0.492,0.445,1.465,0.059,2.077,0.672"/>
	</g>
	<g id="POLYLINE_687_">
		
			<path fill="none" stroke="#FB8604" stroke-width="2.5" stroke-linecap="round" stroke-linejoin="round" stroke-miterlimit="10" d="
			M142.338,475.645c1.771-3.814,2.657-8.778,1.716-12.898c-0.6-2.626-1.921-3.954-1.243-6.62c0.438-1.723,1.074-3.348,0.921-5.158
			c-0.142-1.684-0.999-3.229-1.116-4.913c-0.265-3.813,2.118-7.394,2.002-11.331c-0.068-2.303-0.367-4.549-0.097-6.847
			c0.395-3.365,1.545-6.581,2.243-9.883c1.126-5.32-0.723-10.33-0.816-15.67c-0.051-2.915,0.617-5.681,0.97-8.561
			c0.56-4.562,0.214-9.214,0.193-13.793c-0.012-2.756-0.017-5.55,0.56-8.258c0.483-2.266,1.167-4.38,1.346-6.699
			c0.558-7.229,0.067-13.823,2.442-20.755c1.791-5.228,2.245-10.795,4.782-15.758c0.826-1.617,1.783-3.167,2.813-4.66"/>
	</g>
	<g id="POLYLINE_686_">
		
			<path fill="none" stroke="#FB8604" stroke-width="2.5" stroke-linecap="round" stroke-linejoin="round" stroke-miterlimit="10" d="
			M643.485,332.333c-2.74,0.959-6.214,0.13-7.729-2.482c-1.777-3.064-1.875-9.499,0.269-12.419c1.065-1.45,2.86-2.078,4.579-2.338"
			/>
	</g>
	<g id="POLYLINE_685_">
		
			<path fill="none" stroke="#FB8604" stroke-width="2.5" stroke-linecap="round" stroke-linejoin="round" stroke-miterlimit="10" d="
			M611.189,336.056c0.725-2.741,1.742-6.651,3.727-8.775c0.456-0.488,0.949-0.817,1.586-1.028c3.471-1.146,6.519,1.963,8.244,4.523
			c2.855,4.237,5.01,7.88,8.519,11.622"/>
	</g>
	<g id="POLYLINE_684_">
		
			<path fill="none" stroke="#FB8604" stroke-width="2.5" stroke-linecap="round" stroke-linejoin="round" stroke-miterlimit="10" d="
			M590.605,202.277c-4.766,7.901-8.611,16.583-11.216,25.443"/>
	</g>
	<g id="POLYLINE_683_">
		
			<path fill="none" stroke="#FB8604" stroke-width="2.5" stroke-linecap="round" stroke-linejoin="round" stroke-miterlimit="10" d="
			M555.523,226.966c-4.273,1.928-5.96,7.038-5.317,11.531"/>
	</g>
	<g id="POLYLINE_682_">
		
			<path fill="none" stroke="#FB8604" stroke-width="2.5" stroke-linecap="round" stroke-linejoin="round" stroke-miterlimit="10" d="
			M555.523,226.966c5.079-3.373,9.447-7.514,14.295-11.189c4.261-3.23,8.826-5.232,13.668-7.429c3.589-1.628,5.273-3.82,7.683-6.841
			c0.299-0.375,1.131-1.724,1.847-1.606c2.595,0.429,0.257,8.679-0.037,9.82c-2.103,8.166-5.919,16.815-12.365,22.489
			c-2.803,2.467-5.442,4.156-7.551,7.222c-2.426,3.527-5.188,6.861-8.607,9.469c-0.797,0.608-1.623,1.179-2.463,1.727"/>
	</g>
	<g id="POLYLINE_681_">
		
			<path fill="none" stroke="#FB8604" stroke-width="2.5" stroke-linecap="round" stroke-linejoin="round" stroke-miterlimit="10" d="
			M439.572,582.034c-1.418-2.595-2.469-5.552-2.801-8.498c-0.731-6.491-1.704-12.737-1.597-19.297
			c0.089-5.44,0.527-10.8,0.941-16.186c0.423-5.511,4.054-10.463,5.465-15.774c2.495-9.395,3.768-19.285,5.707-28.808
			c1.53-7.514,3.678-14.721,6.586-21.814c3.691-9.002,7.155-18.055,10.641-27.129c0.993-2.583,2.927-3.548,5.375-4.773
			c4.391-2.197,8.135-4.504,11.324-8.287c4.698-5.571,8.007-12.163,11.279-18.625c3.85-7.602,8.94-15.401,11.361-23.648
			c1.121-3.82,1.487-6.42,4.343-9.258c6.127-6.089,12.771-11.353,18.099-18.233c5.539-7.153,10.931-14.852,15.249-22.813
			c3.248-5.988,5.117-13.188,9.852-18.234c1.527-1.627,1.351-2.491,2.319-4.394c1.245-2.448,2.285-1.101,4.405-1.371
			c0.758-0.096,1.257-0.769,2.034-0.688c0.576,0.06,0.968,0.749,1.524,0.889c0.568,0.144,0.918-0.121,1.475-0.088
			c0.946,0.057,1.274,0.114,2.141,0.694c1.263,0.845,2.182,2.011,3.629,2.558c1.06,0.401,2.231,0.359,3.293,0.749
			c2.467,0.906,4.629,2.819,6.964,4.035c3.413,1.777,7.044,3.107,10.63,4.488c4.333,1.668,8.671,3.278,13.095,4.69
			c1.807,0.577,3.579,1.093,5.149,2.167c0.68,0.465,2.612,1.068,3.051,1.574c0.831,0.958-0.032,2.815,0.043,3.932
			c0.342,5.077,5.954,5.997,9.922,4.625c1.129-0.39,2.289-0.992,3.515-1.001c0.942-0.007,1.803,0.527,2.728,0.533
			c1.41,0.009,2.226-1.013,3.512-1.486c1.491-0.55,2.846,0.087,4.39,0.073c1.813-0.016,3.44-0.779,4.776-1.977
			c2.481-2.224,3.75-5.435,4.963-8.446c1.28-3.178,3.696-5.994,3.649-9.541c-0.046-3.439-1.313-6.696-3.414-9.374
			c-2.561-3.265-3.746-7.262-6.354-10.464c-1.682-2.065-3.712-3.819-5.351-5.923c-1.687-2.166-3.061-4.563-4.924-6.593
			c-3.81-4.151-8.608-7.141-12.025-11.693c-4.763-6.346-7.4-13.956-11.579-20.663c-3.539-5.68-7.779-9.775-12.413-14.477
			c-3.787-3.842-6.876-8.58-10.448-12.663"/>
	</g>
</g>
<g id="AG-OUTLINE">
	<g id="POLYLINE_680_">
		
			<path fill="none" stroke="#FB8604" stroke-width="3.25" stroke-linecap="round" stroke-linejoin="round" stroke-miterlimit="10" d="
			M580.939,209.45c3.178-1.37,6.092-2.566,8.306-5.32c0.585-0.727,2.087-3.874,3.351-4.11c1.706-0.318,1.462,2.715,1.414,3.749
			c-0.215,4.641-1.864,9.37-3.601,13.626c1.043,0.083,1.405,0.575,1.983,1.186c0.084,0.089,0.089,0.564,0.319,0.801
			c0.544,0.561,2.229,0.482,2.547,1.278c0.303,0.757-0.625,1.195,0.061,2.228c0.557,0.838,2.217,0.955,2.608,1.72
			c0.379,0.742-0.25,0.401-0.133,0.911c0.027,0.119-0.086,0.552-0.028,0.81c0.223,0.998,1.953,1.408,2.29,2.413
			c0.234,0.699-0.126,1.114,0.085,1.806c0.24,0.786,0.78,1.587,1.007,2.408c0.112,0.406-0.165,0.462,0.067,0.94
			c0.225,0.465,1.414,0.76,1.411,1.429c-0.004,0.857-0.841,1.001-1.527,1.119c-3.904,0.673-7.861-2.347-11.877-1.067
			c-0.766,0.244-1.489,0.644-2.169,1.066c1.849,2.409,3.453,5.002,5.607,7.161c2.352,2.357,4.908,4.401,7.038,6.977
			c5.819,7.035,9.124,15.262,13.615,23.098c3.596,6.274,8.336,10.123,13.572,14.98c1.877,1.741,3.363,3.686,4.826,5.782
			c2.002,2.868,4.374,5.203,6.655,7.843c2.889,3.344,4.168,7.615,6.89,11.098c2.217,2.837,3.639,6.628,3.322,10.282
			c-0.125,1.442-0.652,2.598-1.351,3.851c-1.455,2.61-2.396,5.373-3.689,8.062c-1.138,2.368-2.713,4.898-5.082,6.2
			c-2.247,1.235-3.828,0.403-6.211,0.502c-1.606,0.067-2.584,1.382-4.088,1.702c-1.33,0.283-2.557-0.535-3.899-0.447
			c-3.229,0.212-5.517,2.386-8.887,1.373c-2.046-0.615-3.674-2.024-4.118-4.163c-0.286-1.376,0.782-3.573-0.065-4.69
			c-0.416-0.549-2.569-1.299-3.258-1.765c-2.102-1.422-4.742-1.971-7.117-2.744c-4.692-1.526-9.29-3.333-13.885-5.129
			c-4.234-1.655-8.28-3.488-12.129-5.921c-1.251-0.791-2.221-1.415-3.633-1.754c-1.262-0.303-2.352-0.412-3.466-1.101
			c-1.146-0.708-2.059-2.133-3.377-2.546c-0.868-0.272-1.626,0.233-2.473,0.056c-1.255-0.261-1.366-0.911-2.594-0.74
			c-0.387,0.054-0.737,0.428-1.175,0.482c-0.706,0.087-1.397-0.401-2.102-0.335c-0.749,0.07-1.247,0.332-1.756,0.899
			c-0.921,1.026-0.779,2.506-1.45,3.654c-0.898,1.536-2.503,2.624-3.497,4.137c-2.185,3.328-3.62,7.175-5.296,10.764
			c-4.162,8.911-9.932,17.083-15.691,25.025c-5.769,7.955-13.035,13.963-19.985,20.793c-3.202,3.147-3.399,6.39-4.816,10.502
			c-3.114,9.04-8.448,17.554-12.794,26.053c-3.146,6.152-6.664,12.602-11.677,17.458c-1.702,1.649-3.631,3.009-5.698,4.161
			c-2.321,1.292-5.251,2.156-7.237,4.003c-0.527,0.49-0.893,0.996-1.224,1.638c-1.799,3.491-2.798,7.76-4.234,11.421
			c-3.592,9.157-7.96,18.125-10.72,27.581c-2.773,9.503-4.402,19.41-6.262,29.119c-0.817,4.267-1.365,8.602-2.72,12.745
			c-1.218,3.726-3.195,7.181-4.303,10.94c-0.567,1.924-0.365,3.604-0.482,5.575c-0.14,2.381-0.757,4.686-0.848,7.094
			c-0.168,4.409-0.39,8.925-0.079,13.333c0.229,3.239,1.105,6.383,1.397,9.612c0.359,3.969,0.865,8.876,3.788,11.897
			c1.847,1.91,4.273,3.182,6.024,5.213c1.547,1.794,2.149,4.036,3.219,6.111c1.778,3.446,6.398,7.025,6.79,11.015
			c0.088,0.892,0.035,1.289-0.766,1.809c-0.725,0.471-1.945,0.379-2.755,0.393c-4.466,0.081-8.96-0.122-13.435-0.071
			c-3.635,0.042-7.671,0.156-10.417-2.585c-1.537-1.534-3.35-3.938-3.145-6.263c0.237-2.695,2.634-4.648,2.625-7.467
			c-0.008-2.53-1.245-5.106-3.14-6.764c-2.415-2.113-6.013-2.848-7.593-5.846c-2.914-5.53-1.946-14.397-1.136-20.269
			c1.227-8.895,2.777-17.647,3.609-26.614c0.685-7.386,1.872-13.913-0.111-21.045c-1.497-5.386,0.011-10.802,0.367-16.271
			c0.678-10.426,1.032-20.958,0.762-31.405c-0.19-7.375-0.637-15.831-3.321-22.783c-0.582-1.507-1.238-2.501-2.805-2.952
			c-3.052-0.878-6.911-0.355-10.015-0.246c-5.008,0.177-10.019,0.468-15.012,0.901c-9.698,0.841-19.218,2.704-28.961,3.196
			c-10.247,0.517-20.616-0.312-30.845-0.938c-19.257-1.178-37.765-6.253-54.41-16.194c-3.839-2.293-7.341-4.971-10.704-7.91
			c-1.704-1.489-3.585-3.547-5.786-4.353c-1.867-0.683-3.592-0.055-5.302,0.821c-5.055,2.588-8.182,7.078-12.474,10.583
			c-5.256,4.292-6.503,10.856-9.178,16.831c-1.544,3.449-3.749,6.563-5.563,9.869c-2.2,4.01-3.88,8.259-5.446,12.549
			c-3.533,9.676-7.233,19.057-11.295,28.519c-3.692,8.6-6.2,17.95-6.99,27.288c-0.686,8.111,1.396,15.576,3.585,23.316
			c2.88,10.183,5.823,20.389,9.408,30.351c1.682,4.675,3.269,9.314,7.407,12.324c1.982,1.441,3.809,2.672,5.237,4.693
			c2.141,3.031,3.58,6.553,5.35,9.803c0.837,1.537,3.595,5.021,2.767,7.122c-0.484,1.228-2.118,1.452-3.243,1.637
			c-3.605,0.592-7.424,0.276-11.054,0.24c-3.003-0.031-6.15,0.172-9.115-0.45c-2.084-0.437-4.855-1.375-5.905-3.427
			c-1.069-2.089,0.212-4.617,0.696-6.66c0.506-2.138,0.674-4.487-0.726-6.333c-2.094-2.759-5.284-2.656-8.368-2.89
			c-1.041-0.079-1.755-0.138-2.4-0.986c-0.737-0.969-0.762-2.755-0.955-3.829c-0.729-4.067-2.102-7.989-2.733-12.074
			c-0.657-4.259-0.671-8.59-1.331-12.854c-0.703-4.538-1.894-9-3.168-13.407c-2.965-10.255-6.353-20.368-8.672-30.797
			c-0.648-2.914-1.17-5.946-2.329-8.716c-0.798-1.907-2.089-3.416-3.164-5.166c-1.579-2.57-1.823-5.468-1.38-8.417
			c-2.376,2.619-3.962,5.493-5.692,8.568c-2.051,3.645-4.985,6.561-7.291,10.021c-1.392,2.088-2.123,4.218-2.354,6.705
			c-0.43,4.645-0.942,9.014-1.764,13.626c-2.123,11.903-2.009,24.186-1.917,36.236c0.03,3.929-0.601,8.682,0.549,12.548
			c0.242,0.814,0.566,1.517,1.155,2.132c1.279,1.337,2.957,1.39,3.437,3.26c0.485,1.893,0.269,3.318,1.238,5.141
			c1.543,2.906,4.01,5.117,6.092,7.615c1.413,1.695,4.723,5.189,4.833,7.412c0.023,0.467,0.052,0.616-0.169,1.047
			c-1.385,2.7-8.032,1.68-9.966,1.657c-3.723-0.046-7.449-0.136-11.172-0.114c-1.929,0.011-4.045,0.427-5.948,0.081
			c-0.642-0.117-1.189-0.23-1.69-0.679c-2.257-2.023-1.473-7.207-0.483-9.551c0.733-1.734,2.901-3.043,2.095-4.935
			c-0.622-1.46-1.932-2.335-2.491-3.958c-0.499-1.45-0.605-3.496-1.677-4.719c-1.555-1.774-3.995-1.846-5.387-4.074
			c-3.406-5.451-0.801-13.905-0.091-19.628c1.687-13.592,1.728-27.483,2.414-41.144c0.433-8.619,2.026-18.226-0.202-26.691
			c-1.158-4.397-0.18-8.948,2.48-12.676c1.719-2.409,3.607-4.084,4.396-7.01c0.761-2.822,1.168-5.964,0.718-8.873
			c-0.28-1.811-1.48-3.366-1.691-5.143c-0.192-1.618,0.659-3.166,0.986-4.71c0.743-3.509-1.433-6.559-0.616-10.022
			c0.729-3.09,1.831-5.731,1.737-8.964c-0.077-2.646-0.378-5.147,0.033-7.772c0.597-3.817,2.098-7.462,2.517-11.308
			c0.403-3.707-0.773-7.378-1.093-11.051c-0.294-3.375,0.203-6.424,0.695-9.76c0.797-5.401,0.298-10.895,0.343-16.33
			c0.028-3.395,0.478-6.315,1.272-9.583c0.921-3.787,0.747-7.691,0.829-11.563c0.074-3.503,0.322-6.939,1.32-10.311
			c1.297-4.38,2.392-8.706,3.583-13.112c0.688-2.546,1.773-4.938,3.099-7.214c2.368-4.064,4.214-8.399,6.723-12.4
			c5.64-8.995,13.82-15.134,23.197-19.886c10.758-5.452,22.429-9.675,34.248-12.118c11.607-2.399,22.721-1.823,34.353-0.057
			c12.611,1.915,25.302,2.912,37.867,5.191c24.645,4.47,49.364,12.684,74.642,12.035c12.282-0.316,24.345-2.783,36.521-4.179
			c5.91-0.678,11.921-1.268,17.875-0.997c0.872,0.04,1.937,0.252,2.624-0.038c0.146-0.062,0.171-0.408,0.33-0.479
			c0.173-0.077,0.277-0.311,0.477-0.386c1.343-0.507,2.763,0.299,3.952-0.572c0.385-0.282,0.428-0.903,0.876-1.201
			c0.654-0.435,1.494-0.126,2.171-0.421c1.66-0.725,0.576-1.621,1.218-3.191c0.615-1.504,1.639-0.822,3.02-1.462
			c1.574-0.73,1.363-2.304,2.208-3.662c0.735-1.182,2.233-1.155,2.853-2.089c0.763-1.148-0.512-2.927,0.19-4.231
			c0.453-0.841,1.2-1.109,2.098-1.261c2.159-0.364,3.677,0.991,4.414-1.1c0.419-1.19-0.09-2.9,0.718-3.997
			c0.726-0.985,2.262-1.1,3.285-1.577c1.87-0.871,1.81-1.234,1.922-3.072c0.187-3.076,1.123-5.627,2.672-8.183
			c1.141-1.882,1.114-4.797,3.317-5.891c1.501-0.745,2.691-0.248,3.911-1.509c1.028-1.062,1.402-2.68,2.77-3.412
			c1.667-0.891,3.833-0.327,5.617-0.705c2.072-0.439,1.728-1.139,2.568-2.831c0.421-0.848,1.611-3.576,2.37-4.012
			c0.98-0.563,2.272,0.17,3.304-0.542c0.632-0.436,0.782-1.422,1.435-1.733c0.706-0.336,1.802,0.214,2.602-0.184
			c1.521-0.756,1.184-2.706,2.257-3.816c0.471-0.487,1.243-0.527,1.688-1.004c0.718-0.77,0.5-1.837,0.857-2.77
			c0.736-1.919,1.539-1.082,3.363-1.645c1.668-0.515,1.732-2.049,2.995-2.938c0.62-0.437,1.469-0.248,2.128-0.589
			c0.739-0.383,1.032-1.158,1.653-1.68c1.665-1.401,4.061-0.708,5.833-1.83c1.606-1.017,1.463-1.848,3.447-2.025
			c1.154-0.103,2.227,0.133,3.267-0.435c0.99-0.54,1.624-1.609,2.593-2.215c1.405-0.878,2.764-1.49,4.031-2.614
			c0.317-0.281,0.312-0.79,0.705-0.961c0.393-0.171,1.079,0.198,1.556,0.1c0.69-0.141,1.223-0.942,1.872-1.003
			c0.911-0.085,1.197,0.843,2.068,0.43c1.095-0.519,0.802-4.813,2.973-2.371c0.508,0.571,0.694,3.051,2.058,2.429
			c0.541-0.247,0.448-1.505,0.897-1.971c0.521-0.54,1.28-0.657,1.996-0.762c1.215-0.178,2.517,0.609,3.299,0.254
			c1.513-0.686,0.965-2.339,2.835-1.665c0.651,0.234,1.369,1.822,2.111,1.633c0.874-0.223,0.918-2.484,1.128-2.99
			c0.552-1.335,0.814-1.588,2.136-1.183c0.743,0.227,1.326,1.055,2.172,0.903c0.834-0.15,1.206-1.307,1.992-1.572
			c1.034-0.349,1.312,0.186,2.378,0.319c1.864,0.233,4.159-1.036,5.394-2.307c1.914-1.971,1.47-1.249,4.027-0.155
			c0.714,0.306,1.424,0.518,2.209,0.378c0.891-0.158,1.743-1.387,2.507-1.38c1.231,0.011,1.917,2.975,3.188,3.798
			c1.183,0.766,2.353,0.115,3.329,0.643c0.318,0.172,0.371,0.954,0.732,1.231c0.503,0.386,1.103,0.405,1.708,0.444
			c0.755,0.049,2.771-0.739,3.436-0.157c0.447,0.392-0.133,0.834,0.107,1.122C579.091,208.941,580.146,208.656,580.939,209.45z"/>
	</g>
</g>
</svg>
