<?xml version="1.0" encoding="utf-8"?>
<!-- Generator: Adobe Illustrator 23.0.1, SVG Export Plug-In . SVG Version: 6.00 Build 0)  -->
<!DOCTYPE svg PUBLIC "-//W3C//DTD SVG 1.1//EN" "http://www.w3.org/Graphics/SVG/1.1/DTD/svg11.dtd" [
	<!ENTITY ns_extend "http://ns.adobe.com/Extensibility/1.0/">
	<!ENTITY ns_ai "http://ns.adobe.com/AdobeIllustrator/10.0/">
	<!ENTITY ns_graphs "http://ns.adobe.com/Graphs/1.0/">
	<!ENTITY ns_vars "http://ns.adobe.com/Variables/1.0/">
	<!ENTITY ns_imrep "http://ns.adobe.com/ImageReplacement/1.0/">
	<!ENTITY ns_sfw "http://ns.adobe.com/SaveForWeb/1.0/">
	<!ENTITY ns_custom "http://ns.adobe.com/GenericCustomNamespace/1.0/">
	<!ENTITY ns_adobe_xpath "http://ns.adobe.com/XPath/1.0/">
]>
<svg version="1.1" xmlns:x="&ns_extend;" xmlns:i="&ns_ai;" xmlns:graph="&ns_graphs;"
	 xmlns="http://www.w3.org/2000/svg" xmlns:xlink="http://www.w3.org/1999/xlink" x="0px" y="0px" viewBox="0 0 750 750"
	 enable-background="new 0 0 750 750" xml:space="preserve">
<metadata>
	<sfw  xmlns="&ns_sfw;">
		<slices></slices>
		<sliceSourceBounds  bottomLeftOrigin="true" height="2733.253" width="3917" x="0" y="-1933.253"></sliceSourceBounds>
	</sfw>
</metadata>
<g id="FILL-BACKGROUND">
	<rect fill="#FFFFFF" width="750" height="750"/>
</g>
<g id="N-DIMENSIONS">
</g>
<g id="N-TEXT">
</g>
<g id="AG-DIAGRAM">
</g>
<g id="AG-PEOPLE">
</g>
<g id="AG-DETAILS">
	<g id="POLYLINE_1637_">
		
			<path fill="none" stroke="#FB8604" stroke-width="1.5" stroke-linecap="round" stroke-linejoin="round" stroke-miterlimit="10" d="
			M400.534,409.356c-3.269-0.852-5.39-5.956-6.875-8.384c-1.709-2.793-3.199-5.783-3.331-9.111
			c-0.114-2.872,0.658-5.733,1.851-8.325c0.899-1.955,2.795-6.138,5.269-6.634c0.622-0.125,0.945-0.004,1.455,0.354
			c1.103,0.776,1.608,2.304,2.562,3.262c1.188,1.192,2.841,1.649,4.117,2.702c1.492,1.233,1.395,2.871,1.291,4.71
			c-0.117,2.083-0.246,4.081,0.217,6.131c0.592,2.619,1.951,5.074,2.31,7.742c0.541,4.014-4.18,7.677-7.949,7.655
			C401.14,409.457,400.837,409.428,400.534,409.356z"/>
	</g>
	<g id="POLYLINE_1636_">
		
			<path fill="none" stroke="#FB8604" stroke-width="1.5" stroke-linecap="round" stroke-linejoin="round" stroke-miterlimit="10" d="
			M414.686,412.627c-1.037-0.122-2.014,0.443-2.868,0.958c-1.84,1.109-3.47,2.534-5.31,3.648c-1.681,1.018-3.557,1.788-5.104,3.017
			c-3.59,2.851-2.802,8.448-0.542,11.958c2.195,3.408,6.993,2.927,10.332,1.599c4.994-1.986,5.684-8.726,6.199-13.368
			c0.239-2.155,0.333-6.893-2.451-7.753C414.865,412.662,414.768,412.627,414.686,412.627z"/>
	</g>
	<g id="POLYLINE_1635_">
		
			<path fill="none" stroke="#FB8604" stroke-width="1.5" stroke-linecap="round" stroke-linejoin="round" stroke-miterlimit="10" d="
			M424.717,426.719c-2.812-3.332-5.018-8.819-2.072-12.683c1.052-1.38,2.5-2.456,4.005-3.296"/>
	</g>
	<g id="POLYLINE_1634_">
		
			<path fill="none" stroke="#FB8604" stroke-width="1.5" stroke-linecap="round" stroke-linejoin="round" stroke-miterlimit="10" d="
			M434.634,428.537c-4.846-4.102-1.34-8.484-0.254-13.975c0.71-3.588,0.531-7.189-0.552-10.68c-0.824-2.656-2.261-5.59-1.407-8.427
			c0.929-3.087,3.949-5.414,6.667-6.87"/>
	</g>
	<g id="POLYLINE_1633_">
		
			<path fill="none" stroke="#FB8604" stroke-width="1.5" stroke-linecap="round" stroke-linejoin="round" stroke-miterlimit="10" d="
			M378.189,429.944c-1.303-1.109-1.472-3.192-2.657-4.472c-1.078-1.165-3.124-1.698-3.739-3.241
			c-0.667-1.675,0.855-3.454,2.213-4.221c4.757-2.683,11.711,0.071,15.251,3.622c1.888,1.894,3.002,3.76,0.887,5.873
			c-1.684,1.682-4.011,2.35-6.321,2.519c-1.382,0.101-4.009,0.768-5.392,0.08C378.378,430.079,378.238,429.944,378.189,429.944z"/>
	</g>
	<g id="POLYLINE_1632_">
		
			<path fill="none" stroke="#FB8604" stroke-width="1.5" stroke-linecap="round" stroke-linejoin="round" stroke-miterlimit="10" d="
			M374.517,412.12c-2.854-1.958-0.49-6.715,1.332-8.49c3.232-3.147,9.622-4.534,13.093-1.093c2.295,2.275,4.132,5.231,5.951,7.885
			c0.835,1.219,1.962,2.709,2.208,4.214c0.112,0.688,0.099,1.24-0.342,1.797c-1.847,2.333-7.848,1.484-9.37-0.855
			c-0.839-1.289-0.803-2.448-2.368-2.932c-3.135-0.97-6.737,1.054-9.868-0.204C374.929,412.354,374.72,412.251,374.517,412.12z"/>
	</g>
	<g id="POLYLINE_1631_">
		
			<path fill="none" stroke="#FB8604" stroke-width="1.5" stroke-linecap="round" stroke-linejoin="round" stroke-miterlimit="10" d="
			M426.238,405.722c-2.691,1.045-7.557,1.466-9.747-0.997c-0.558-0.628-0.806-1.411-0.964-2.224
			c-0.57-2.926-0.102-5.995-0.536-8.953c-0.25-1.705-1.931-4.632-0.53-6.214c1.265-1.428,4.942-1.644,6.64-1.138
			c2.303,0.687,2.656,3.205,2.516,5.332"/>
	</g>
	<g id="POLYLINE_1630_">
		
			<path fill="none" stroke="#FB8604" stroke-width="1.5" stroke-linecap="round" stroke-linejoin="round" stroke-miterlimit="10" d="
			M425.885,381.001c-0.355,1.68,0.044,4.753,2.116,5.221c1.569,0.354,2.807-1.261,3.262-2.565c0.406-1.165,0.294-2.412,0.182-3.616
			c-0.344-3.716-0.452-7.455-0.834-11.166"/>
	</g>
	<g id="POLYLINE_1629_">
		
			<path fill="none" stroke="#FB8604" stroke-width="1.5" stroke-linecap="round" stroke-linejoin="round" stroke-miterlimit="10" d="
			M421.122,378.268c0.757-0.508,1.007-1.352,1.15-2.214c0.314-1.895,0.043-3.809,0.466-5.705c0.519-2.328,1.372-4.526,1.5-6.929
			c0.175-3.28-0.624-6.662-1.751-9.721c-0.821-2.227-2.024-5.342-4.23-6.579c-4.623-2.593-8.944,6.759-10.508,9.229
			c-1.6,2.527-3.229,4.948-5.259,7.149c-0.911,0.988-2.171,2.059-2.655,3.372c-0.511,1.384,0.008,2.69,0.84,3.831
			c2.465,3.381,7.153,5.382,10.937,6.687c2.529,0.872,6.143,2.135,8.827,1.197C420.68,378.501,420.904,378.402,421.122,378.268z"/>
	</g>
	<g id="POLYLINE_1628_">
		
			<path fill="none" stroke="#FB8604" stroke-width="1.5" stroke-linecap="round" stroke-linejoin="round" stroke-miterlimit="10" d="
			M440.386,352.175c-4.04-2.546-7.994-4.318-12.355-6.326c-2.488-1.146-5.831-2.547-7.446-4.94
			c-1.508-2.234-0.541-4.792,1.398-6.408c2.25-1.874,5.221-2.575,7.1-4.932c2.775-3.482,3.842-8.109,6.282-11.838
			c1.238-1.892,3.553-5.423,6.304-4.825c1.661,0.361,2.88,2.172,3.83,3.4c2.208,2.855,4.083,5.313,7.48,6.765
			c1.1,0.471,2.24,0.85,3.364,1.261"/>
	</g>
	<g id="POLYLINE_1627_">
		
			<path fill="none" stroke="#FB8604" stroke-width="1.5" stroke-linecap="round" stroke-linejoin="round" stroke-miterlimit="10" d="
			M467.428,299.961c-1.265,3.249-4.449,6.795-8.194,6.816c-3.072,0.017-5.609-2.549-6.961-5.102
			c-1.868-3.528-0.814-8.366,0.882-11.754c2.287-4.568,7.179-7.537,11.799-9.328c3.437-1.332,5.419-1.444,7.929,1.155"/>
	</g>
	<g id="POLYLINE_1626_">
		
			<path fill="none" stroke="#FB8604" stroke-width="1.5" stroke-linecap="round" stroke-linejoin="round" stroke-miterlimit="10" d="
			M456.665,269.638c-1.022,2.824,1.251,6.026,4.137,6.458c2.487,0.372,5.303-1.054,6.98-2.794c1.67-1.733,1.555-4.012,2.703-5.979
			c1.435-2.461,4.262-2.454,3.653-5.896c-0.698-3.947-6.256-7.702-10.146-6.382c-0.716,0.243-1.157,0.639-1.548,1.292
			c-0.746,1.245-0.83,2.866-1.247,4.226c-0.746,2.431-2.161,4.536-3.394,6.736C457.378,268.056,456.961,268.819,456.665,269.638z"/>
	</g>
	<g id="POLYLINE_1625_">
		
			<path fill="none" stroke="#FB8604" stroke-width="1.5" stroke-linecap="round" stroke-linejoin="round" stroke-miterlimit="10" d="
			M450.323,261.828c-2.918-0.777-1.299-7.783-1.183-9.267c0.374-4.813-2.571-9.62,1.313-13.579c1.477-1.505,3.822-2.812,5.805-1.464
			c3.67,2.494,1.983,9.315,1.063,12.685c-0.954,3.497-2.339,7.362-4.697,10.183c-0.485,0.58-1.164,1.417-2.002,1.469
			C450.518,261.862,450.425,261.843,450.323,261.828z"/>
	</g>
	<g id="POLYLINE_1624_">
		
			<path fill="none" stroke="#FB8604" stroke-width="1.5" stroke-linecap="round" stroke-linejoin="round" stroke-miterlimit="10" d="
			M431.956,257.647c-0.034,2.559,0.821,2.716,3.045,3.539c2.502,0.926,1.09,1.864,2.087,3.93c0.59,1.222,1.936,0.988,3.052,0.538
			c3.542-1.428,4.593-5.859,5.029-9.244c0.627-4.869,0.859-11.659-2.83-15.475c-0.524-0.542-1.118-1.022-1.705-1.492"/>
	</g>
	<g id="POLYLINE_1623_">
		
			<path fill="none" stroke="#FB8604" stroke-width="1.5" stroke-linecap="round" stroke-linejoin="round" stroke-miterlimit="10" d="
			M473.993,249.997c-3.985,1.707-8.732-4.564-9.732-7.581c-1.659-5.008-1.525-11.034-1.364-16.23c0.038-1.22-0.217-5.478,1.21-6.385
			c0.556-0.354,0.849-0.147,1.387,0.148c1.582,0.866,2.753,2.981,3.929,4.268c1.016,1.111,2.092,2.099,3.359,2.922
			c1.359,0.883,3.796,1.597,4.532,3.261c0.698,1.578-0.388,3.695-0.74,5.172c-0.813,3.409-0.082,6.938-0.598,10.387
			c-0.191,1.28-0.498,3.014-1.647,3.84C474.223,249.875,474.111,249.938,473.993,249.997z"/>
	</g>
	<g id="POLYLINE_1622_">
		
			<path fill="none" stroke="#FB8604" stroke-width="1.5" stroke-linecap="round" stroke-linejoin="round" stroke-miterlimit="10" d="
			M483.928,220.643c-4.584,0.893-8.322-2.68-11.651-5.382c-1.23-0.998-3.276-2.406-3.023-4.25c0.234-1.708,1.896-3.211,2.663-4.714
			c1.6-3.133,1.868-6.672,3.009-9.96c0.381-1.098,0.689-2.167,1.892-1.652c1.913,0.819,2.996,4.114,4.507,5.575
			c1.39,1.344,3.102,2.03,4.997,2.329c0.884,0.139,1.781,0.193,2.672,0.268"/>
	</g>
	<g id="POLYLINE_1621_">
		
			<path fill="none" stroke="#FB8604" stroke-width="1.5" stroke-linecap="round" stroke-linejoin="round" stroke-miterlimit="10" d="
			M486.477,189.847c-2.14-2.075-6.76-4.124-6.557-7.722c0.113-2.001,1.56-4.266,3.639-4.614c2.392-0.4,6.079,1.338,7.539,3.215
			c1.881,2.418,0.687,6.288-0.604,8.682c-0.707,1.311-1.462,2.282-2.895,1.466C487.18,190.636,486.803,190.18,486.477,189.847z"/>
	</g>
	<g id="POLYLINE_1620_">
		
			<path fill="none" stroke="#FB8604" stroke-width="1.5" stroke-linecap="round" stroke-linejoin="round" stroke-miterlimit="10" d="
			M471.186,171.246c-1.041,0.324-1.511,1.135-2.022,2.043c-1.233,2.193-2.46,4.845-2.679,7.393
			c-0.146,1.697,0.397,3.071,2.166,3.478c3.688,0.849,6.842-3.273,8.6-5.872c1.148-1.698,2.768-4.462,1.365-6.488
			c-1.264-1.826-4.04-1.424-5.88-1.005C472.211,170.916,471.693,171.063,471.186,171.246z"/>
	</g>
	<g id="POLYLINE_1619_">
		
			<path fill="none" stroke="#FB8604" stroke-width="1.5" stroke-linecap="round" stroke-linejoin="round" stroke-miterlimit="10" d="
			M487.732,172.219c-1.004-0.508-2.49-1.323-2.423-2.648c0.031-0.614,0.542-1.192,0.887-1.645c1.129-1.484,2.489-2.86,3.7-4.284
			c0.349-0.411,0.799-1.146,1.313-1.381c2.96-1.354,1.673,8.515,0.423,9.911C490.549,173.383,489.024,172.902,487.732,172.219z"/>
	</g>
	<g id="POLYLINE_1618_">
		
			<path fill="none" stroke="#FB8604" stroke-width="1.5" stroke-linecap="round" stroke-linejoin="round" stroke-miterlimit="10" d="
			M484.001,163.459c-1.238-0.978-0.654-3.524-0.23-4.719c0.616-1.736,2.026-2.845,3.941-2.708c3.795,0.272,1.829,5.107-0.048,6.596
			C486.763,163.343,485.13,164.229,484.001,163.459z"/>
	</g>
	<g id="POLYLINE_1617_">
		
			<path fill="none" stroke="#FB8604" stroke-width="1.5" stroke-linecap="round" stroke-linejoin="round" stroke-miterlimit="10" d="
			M470.543,164.287c-0.136,1.137-0.212,2.193,0.975,2.445c1.128,0.239,2.523-0.543,3.762-0.366c1.526,0.218,3.19,1.687,4.681,1.546
			c1.22-0.116,1.095-1.042,1.097-2.163c0.005-2.812,0.299-4.778,0.998-7.494c0.149-0.579,0.413-1.331,0.207-1.94
			c-0.597-1.772-3.538-1.775-5.006-1.721"/>
	</g>
	<g id="POLYLINE_1616_">
		
			<path fill="none" stroke="#FB8604" stroke-width="1.5" stroke-linecap="round" stroke-linejoin="round" stroke-miterlimit="10" d="
			M483.731,151.185c-0.167-0.353,0.081-0.693,0.195-1.014c0.4-1.124,1.414-2.099,2.047-3.103c0.767-1.218,1.364-2.553,2.195-3.73
			c0.464-0.657,0.971-1.54,1.848-1.18c1.544,0.634,1.518,4.467,1.265,5.673c-0.315,1.502-1.267,2.56-2.65,3.192
			C487.484,151.546,484.747,152.4,483.731,151.185z"/>
	</g>
	<g id="POLYLINE_1615_">
		
			<path fill="none" stroke="#FB8604" stroke-width="1.5" stroke-linecap="round" stroke-linejoin="round" stroke-miterlimit="10" d="
			M416.715,280.24c-0.092,2.744,1.235,3.934,3.355,5.46c1.244,0.896,3.166,2.856,4.974,2.353c0.642-0.179,1.155-0.72,1.59-1.187
			c1.951-2.091,3.516-4.816,4.941-7.275c1.071-1.849,2.582-4.37,1.841-6.597c-0.454-1.365-1.689-2.297-2.53-3.406
			c-1.265-1.668-1.865-3.665-2.532-5.624"/>
	</g>
	<g id="POLYLINE_1614_">
		
			<path fill="none" stroke="#FB8604" stroke-width="1.5" stroke-linecap="round" stroke-linejoin="round" stroke-miterlimit="10" d="
			M444.346,272.052c-6.094-1.286-8.051,6.122-10.132,10.105c-1.243,2.38-3.196,5.405-3.042,8.262
			c0.105,1.952,1.496,3.281,2.773,4.623c2.109,2.217,3.763,7.073,7.557,6.12c6.108-1.534,5.709-10.328,6.388-14.949
			c0.674-4.592,3.296-11.64-2.78-13.934C444.861,272.186,444.606,272.109,444.346,272.052z"/>
	</g>
	<g id="POLYLINE_1613_">
		
			<path fill="none" stroke="#FB8604" stroke-width="1.5" stroke-linecap="round" stroke-linejoin="round" stroke-miterlimit="10" d="
			M422.851,295.35c-3.927-1.208-5.255,5.28-5.997,7.606c-0.813,2.548-1.609,5.106-2.934,7.442c-1.047,1.847-2.696,3.552-3.375,5.587
			c-0.538,1.614,0.105,2.749,1.039,4.096c1.562,2.25,2.709,4.419,3.977,6.854c0.395,0.76,0.87,1.892,1.652,2.373
			c0.513,0.316,0.879,0.372,1.461,0.22c2.852-0.746,4.924-5.868,6.131-8.039c1.195-2.15,2.401-4.3,4.024-6.163
			c1.478-1.697,3.506-3.118,4.602-5.124c0.755-1.382,0.672-2.632-0.001-4.042c-1.113-2.332-3.226-4.236-4.971-6.073
			c-1.416-1.49-2.91-3.411-4.788-4.389C423.405,295.56,423.137,295.44,422.851,295.35z"/>
	</g>
	<g id="POLYLINE_1612_">
		
			<path fill="none" stroke="#FB8604" stroke-width="1.5" stroke-linecap="round" stroke-linejoin="round" stroke-miterlimit="10" d="
			M399.22,298.955c-3.58,1.919-5.146,5.899-4.265,9.976c0.765,3.544,4.451,4.878,7.762,4.711c6.059-0.305,7.259-5.796,9.294-10.584
			c1.03-2.424,3.739-6.389,3.352-9.282c-0.072-0.537-0.186-0.931-0.62-1.29c-3.033-2.511-10.474,3.346-12.484,4.608
			C401.253,297.725,400.257,298.376,399.22,298.955z"/>
	</g>
	<g id="POLYLINE_1611_">
		
			<path fill="none" stroke="#FB8604" stroke-width="1.5" stroke-linecap="round" stroke-linejoin="round" stroke-miterlimit="10" d="
			M375.059,305.714c-1.798,3.799,0.312,8.037,4.347,9.36c3.727,1.221,8.914-0.247,10.135-4.277
			c1.066-3.516,0.859-8.105-0.053-11.654"/>
	</g>
	<g id="POLYLINE_1610_">
		
			<path fill="none" stroke="#FB8604" stroke-width="1.5" stroke-linecap="round" stroke-linejoin="round" stroke-miterlimit="10" d="
			M391.777,317.514c-4.985,0.144-8.867,3.557-9.997,8.331c-0.643,2.716-0.541,6.024,1.619,8.057c2.89,2.72,7.124,2.737,8.175,7.068
			c1.286,5.297,0.471,10.65,3.295,15.58c0.554,0.967,1.553,2.724,2.919,2.2c0.747-0.287,1.244-1.474,1.562-2.081
			c1.495-2.849,2.531-5.529,4.886-7.794c3.652-3.513,8.615-7.404,8.139-13.122c-0.17-2.041-1.172-4.016-2.58-5.484
			c-1.472-1.534-2.843-1.615-4.714-2.425c-2.339-1.013-1.955-3.921-3.175-5.89c-1.616-2.608-4.943-3.904-7.86-4.311
			C393.295,317.539,392.536,317.493,391.777,317.514z"/>
	</g>
	<g id="POLYLINE_1609_">
		
			<path fill="none" stroke="#FB8604" stroke-width="1.5" stroke-linecap="round" stroke-linejoin="round" stroke-miterlimit="10" d="
			M371.44,396.405c-5.525-2.842,0.583-9.007,2.419-11.794c2.195-3.331,1.638-6.768,2.858-10.42c0.617-1.849,1.84-2.666,3.712-3.116
			c2.64-0.635,5.459-0.239,8.061-1.03c1.327-0.403,2.477-1.325,3.884-1.45c0.761-0.068,2.509,0.033,2.747,1.035
			c0.071,0.301-0.112,0.53-0.207,0.793c-0.696,1.919-3.348,3.362-4.661,4.89c-2.632,3.062-3.196,6.73-3.821,10.612
			c-0.61,3.79-1.63,7.689-5.221,9.669c-2.378,1.311-5.548,1.933-8.221,1.344C372.453,396.819,371.932,396.655,371.44,396.405z"/>
	</g>
	<g id="POLYLINE_1608_">
		
			<path fill="none" stroke="#FB8604" stroke-width="1.5" stroke-linecap="round" stroke-linejoin="round" stroke-miterlimit="10" d="
			M362.41,390.187c-2.806,0.398-14.146,1.953-14.554-3.209c-0.077-0.973,0.408-1.97,0.807-2.817c1.194-2.533,2.689-4.777,3.26-7.553
			c1.04-5.055,0.643-10.883,4.756-14.748c1.421-1.335,3.127-1.815,5.014-1.303c2.916,0.791,3.727,3.528,6.155,4.826
			c1.631,0.872,4.155,0.381,5.292,2.089c1.184,1.777,0.114,4.484-0.819,6.089c-1.263,2.173-3.092,3.983-4.018,6.352
			c-0.916,2.343-0.788,4.922-1.559,7.292c-0.43,1.322-1.117,2.102-2.434,2.576C363.706,389.998,363.044,390.099,362.41,390.187z"/>
	</g>
	<g id="POLYLINE_1607_">
		
			<path fill="none" stroke="#FB8604" stroke-width="1.5" stroke-linecap="round" stroke-linejoin="round" stroke-miterlimit="10" d="
			M367.254,353.979c-2.337-1.353-3.397-2.67-3.261-5.449c0.17-3.454,1.924-6.755,4.204-9.286c1.758-1.952,4.338-4.123,7.131-4.085
			c2.228,0.03,3.949,1.696,5.332,3.27c1.761,2.005,3.593,3.991,5.332,6.001c0.483,0.558,0.814,1.103,1.036,1.803
			c0.726,2.293,0.381,4.823,1.078,7.148c0.511,1.703,1.458,3.025,2.666,4.318c0.864,0.925,3.456,2.675,3.061,4.383
			c-0.352,1.523-2.848,2.233-4.07,2.602c-2.485,0.751-5.609,1.261-8.102,0.276c-1.182-0.467-2.105-1.298-2.98-2.201
			c-2.039-2.105-3.951-3.997-6.393-5.652C370.654,355.996,368.952,354.991,367.254,353.979z"/>
	</g>
	<g id="POLYLINE_1606_">
		
			<path fill="none" stroke="#FB8604" stroke-width="1.5" stroke-linecap="round" stroke-linejoin="round" stroke-miterlimit="10" d="
			M361.601,339.354c-0.74-0.035-1.183-1.27-1.397-1.776c-1.432-3.392-1.09-6.972,0.365-10.267c0.896-2.031,1.953-3.951,2.582-6.088
			c0.517-1.755,0.722-3.834,1.684-5.438c0.427-0.713,0.922-1.247,1.74-1.463c3.331-0.879,8.283,3.304,9.765,5.927
			c2.277,4.029-2.65,5.997-5.468,7.726c-2.396,1.47-4.491,3.139-5.925,5.591c-0.875,1.495-1.427,4.939-3.107,5.732
			C361.759,339.338,361.684,339.333,361.601,339.354z"/>
	</g>
	<g id="POLYLINE_1605_">
		
			<path fill="none" stroke="#FB8604" stroke-width="1.5" stroke-linecap="round" stroke-linejoin="round" stroke-miterlimit="10" d="
			M397.408,446.083c-0.468-0.045-0.744-0.272-1.074-0.584c-0.729-0.69-1.061-1.971-1.423-2.852
			c-0.816-1.983-1.953-3.799-2.792-5.766c-1.003-2.351-0.822-4.753,1.628-6.08c1.207-0.654,2.157-0.625,2.822,0.597
			c1.238,2.277,0.609,5.207,2.111,7.453c0.721,1.078,2.297,2,2.483,3.379c0.23,1.712-1.913,3.641-3.474,3.841
			C397.594,446.083,397.502,446.083,397.408,446.083z"/>
	</g>
	<g id="POLYLINE_1604_">
		
			<path fill="none" stroke="#FB8604" stroke-width="1.5" stroke-linecap="round" stroke-linejoin="round" stroke-miterlimit="10" d="
			M384.41,444.809c-0.947-0.394-1.663-1.072-2.24-1.91c-1.251-1.819-2.715-4.558-2.909-6.801c-0.086-0.989,0.098-1.56,1.036-1.97
			c2.884-1.262,7.436,1.345,9.426,3.319c1.345,1.335,3.337,4.047,2.22,6.101c-1.156,2.126-4.85,2.05-6.762,1.522
			C384.918,444.997,384.662,444.912,384.41,444.809z"/>
	</g>
	<g id="POLYLINE_1603_">
		
			<path fill="none" stroke="#FB8604" stroke-width="1.5" stroke-linecap="round" stroke-linejoin="round" stroke-miterlimit="10" d="
			M386.47,462.363c-0.736-0.703-1.044-1.684-1.084-2.681c-0.085-2.149,1.396-3.134,1.898-5.009c0.456-1.703-2.041-3.367-0.985-4.812
			c1.128-1.545,4.764-0.667,5.751,0.66c1.247,1.677,0.726,4.595,0.871,6.449c0.123,1.578,1.111,3.962,0.373,5.495
			c-0.984,2.045-4.666,1.306-6.15,0.399C386.903,462.717,386.679,462.554,386.47,462.363z"/>
	</g>
	<g id="POLYLINE_1602_">
		
			<path fill="none" stroke="#FB8604" stroke-width="1.5" stroke-linecap="round" stroke-linejoin="round" stroke-miterlimit="10" d="
			M398.197,474.379c-1.488-1.165-6.011-7.835-1.948-8.489c1.429-0.23,3.173,0.483,4.458,1.027"/>
	</g>
	<g id="POLYLINE_1601_">
		
			<path fill="none" stroke="#FB8604" stroke-width="1.5" stroke-linecap="round" stroke-linejoin="round" stroke-miterlimit="10" d="
			M397.431,457.5c-2.696-0.555-3.016-6.417-0.729-7.728c2.496-1.431,4.749,0.026,4.202,2.657
			C400.6,453.895,399.449,457.446,397.431,457.5z"/>
	</g>
	<g id="POLYLINE_1600_">
		
			<path fill="none" stroke="#FB8604" stroke-width="1.5" stroke-linecap="round" stroke-linejoin="round" stroke-miterlimit="10" d="
			M403.777,448.41c-1.683-1.195,0.434-6.438,2.444-6.665c2.584-0.291,2.044,3.049,1.166,4.342
			C406.787,446.973,405.133,448.981,403.777,448.41z"/>
	</g>
	<g id="POLYLINE_1599_">
		
			<path fill="none" stroke="#FB8604" stroke-width="1.5" stroke-linecap="round" stroke-linejoin="round" stroke-miterlimit="10" d="
			M375.607,458.29c-1.708-1.034-1.774-3.474-1.248-5.168c0.468-1.509,1.865-3.703,3.726-3.653c1.258,0.034,2.117,1.169,2.653,2.191
			c0.865,1.65,1.324,4.066,0.048,5.63c-1.044,1.279-3.118,1.801-4.66,1.241C375.945,458.465,375.773,458.385,375.607,458.29z"/>
	</g>
	<g id="POLYLINE_1598_">
		
			<path fill="none" stroke="#FB8604" stroke-width="1.5" stroke-linecap="round" stroke-linejoin="round" stroke-miterlimit="10" d="
			M368.681,439.522c1.503-1.004,3.421-1.513,4.828-2.529c0.364-0.262,0.64-0.496,0.831-0.914c0.733-1.599-0.413-4.35-1.546-5.485
			c-1.513-1.516-3.534-2.603-5.112-4.142"/>
	</g>
	<g id="POLYLINE_1597_">
		
			<path fill="none" stroke="#FB8604" stroke-width="1.5" stroke-linecap="round" stroke-linejoin="round" stroke-miterlimit="10" d="
			M372.509,444.268c-1.849-1.301,0.319-3.176,1.826-3.193c1.226-0.014,5.375,1.132,3.464,2.834
			C376.64,444.941,373.832,445.099,372.509,444.268z"/>
	</g>
	<g id="POLYLINE_1596_">
		
			<path fill="none" stroke="#FB8604" stroke-width="1.5" stroke-linecap="round" stroke-linejoin="round" stroke-miterlimit="10" d="
			M367.66,404.644c1.251-5.286-2.301-7.494-6.938-8.239c-3.684-0.591-7.441-1.06-11.15-1.463c-0.853-0.093-1.868-0.252-2.708,0.044
			c-0.613,0.216-0.991,0.513-1.322,1.074c-1.703,2.888-0.005,8.335,0.223,11.269c0.343,4.409-0.685,10.533,1.56,14.619
			c1.397,2.542,3.527,0.326,5.147-1.039c1.703-1.435,3.671-3.436,6.095-3.282c2.291,0.146,4.054,2,6.369,2.083
			c0.868,0.031,1.745-0.151,2.6-0.256"/>
	</g>
	<g id="POLYLINE_1595_">
		
			<path fill="none" stroke="#FB8604" stroke-width="1.5" stroke-linecap="round" stroke-linejoin="round" stroke-miterlimit="10" d="
			M348.676,430.368c-2.324-6.868-12.86-3.121-17.758-3.433c-2.884-0.183-13.532-2.461-14.157,2.949
			c-0.144,1.243,0.399,2.573,0.774,3.722c0.633,1.94,0.924,3.978,1.57,5.899c0.624,1.855,1.886,2.99,3.699,3.715
			c2.963,1.185,6.071,0.883,8.695-0.869c3.661-2.445,5.567-4.879,10.09-5.113c3.83-0.198,7.922-1.051,7.304-5.899
			C348.851,431.009,348.78,430.685,348.676,430.368z"/>
	</g>
	<g id="POLYLINE_1594_">
		
			<path fill="none" stroke="#FB8604" stroke-width="1.5" stroke-linecap="round" stroke-linejoin="round" stroke-miterlimit="10" d="
			M355.846,437.538c-2.073-1.414-1.882-4.938-1.161-6.964c0.911-2.56,3.238-3.862,5.923-3.833c1.882,0.02,3.451,0.769,4.184,2.548
			c0.786,1.908,0.351,4.121-0.937,5.694c-1.564,1.91-5.117,3.915-7.651,2.752C356.079,437.678,355.961,437.611,355.846,437.538z"/>
	</g>
	<g id="POLYLINE_1593_">
		
			<path fill="none" stroke="#FB8604" stroke-width="1.5" stroke-linecap="round" stroke-linejoin="round" stroke-miterlimit="10" d="
			M336.231,450.559c-0.514-1.931,2.289-3.725,3.553-4.591c1.967-1.348,7.624-5.001,10.247-3.216
			c1.024,0.696,0.722,1.966,0.338,2.976c-1.21,3.176-4.332,5.599-7.611,6.261c-1.742,0.352-5.23,0.664-6.397-1.162
			C336.306,450.741,336.27,450.652,336.231,450.559z"/>
	</g>
	<g id="POLYLINE_1592_">
		
			<path fill="none" stroke="#FB8604" stroke-width="1.5" stroke-linecap="round" stroke-linejoin="round" stroke-miterlimit="10" d="
			M309.447,443.801c-2.033-0.916-4.581-3.647-3.957-6.13c0.284-1.129,1.25-1.68,2.324-1.961c2.62-0.684,5.307,0.429,6.868,2.566
			c0.904,1.237,1.984,3.511,0.989,5.011c-0.977,1.472-3.395,1.324-4.849,0.977C310.35,444.152,309.889,443.999,309.447,443.801z"/>
	</g>
	<g id="POLYLINE_1591_">
		
			<path fill="none" stroke="#FB8604" stroke-width="1.5" stroke-linecap="round" stroke-linejoin="round" stroke-miterlimit="10" d="
			M300.299,433.17c-2.633-1.294-2.029-6.012-1.53-8.263c0.31-1.399,1.242-3.66,3.075-3.037c1.706,0.579,2.52,3.004,3.904,4.083
			c1.582,1.233,3.337,0.701,5.095,1.379c1.533,0.591,1.547,1.975,0.855,3.383c-1.719,3.496-7.127,3.856-10.383,2.849
			C300.965,433.456,300.627,433.332,300.299,433.17z"/>
	</g>
	<g id="POLYLINE_1590_">
		
			<path fill="none" stroke="#FB8604" stroke-width="1.5" stroke-linecap="round" stroke-linejoin="round" stroke-miterlimit="10" d="
			M308.952,423.28c-1.226-0.63-3.43-1.82-3.266-3.53c0.213-2.215,3.841-3.355,5.532-3.53c2.218-0.229,4.358,0.718,5.644,2.554
			c0.953,1.36,1.504,3.466,0.467,4.941c-1.464,2.08-4.82,1.045-6.701,0.319C310.056,423.813,309.497,423.561,308.952,423.28z"/>
	</g>
	<g id="POLYLINE_1589_">
		
			<path fill="none" stroke="#FB8604" stroke-width="1.5" stroke-linecap="round" stroke-linejoin="round" stroke-miterlimit="10" d="
			M314.886,412.402c-0.987-3.65,1.936-7.531,5.45-8.206c2.436-0.468,5.033-0.372,7.5-0.436c2.41-0.063,5.205-0.405,7.579,0.185
			c0.611,0.152,1.132,0.281,1.474,0.841c0.908,1.489-0.133,4.023,0.055,5.704c0.336,3.006,3.073,4.903,3.649,7.676
			c0.443,2.135-2.18,2.127-3.78,2.127c-5.307,0-10.568-1.789-15.464-3.657c-1.949-0.744-5.031-1.507-6.171-3.539
			C315.054,412.875,314.956,412.644,314.886,412.402z"/>
	</g>
	<g id="POLYLINE_1588_">
		
			<path fill="none" stroke="#FB8604" stroke-width="1.5" stroke-linecap="round" stroke-linejoin="round" stroke-miterlimit="10" d="
			M323.206,399.085c-1.717-0.196-5.661-1.047-5.632-3.443c0.005-0.442,0.267-0.862,0.458-1.24c1.071-2.118,2.677-4.318,4.03-6.267
			c1.648-2.374,3.664-4.009,6.478-4.709c3.563-0.887,7.82-0.843,11.384-0.09c0.728,0.154,1.345,0.232,1.701,0.928
			c0.765,1.492-0.438,3.956-0.127,5.682c0.217,1.199,1.277,2.762,0.816,4.039c-0.252,0.698-0.945,1.07-1.569,1.384
			c-2.165,1.092-4.828,1.385-7.143,1.954c-2.56,0.63-5.108,1.504-7.746,1.76C324.974,399.17,324.087,399.184,323.206,399.085z"/>
	</g>
	<g id="POLYLINE_1587_">
		
			<path fill="none" stroke="#FB8604" stroke-width="1.5" stroke-linecap="round" stroke-linejoin="round" stroke-miterlimit="10" d="
			M313.815,391.872c-2.614,0.898-6.946-1.162-7.208-4.137c-0.429-4.858,7.222-6.268,8.928-10.138
			c1.082-2.454,1.952-6.881,5.647-5.145c2.976,1.398,5.387,5.527,3.092,8.457c-1.143,1.459-3.08,1.698-4.256,3.147
			c-1.892,2.331-2.767,5.967-5.566,7.524C314.246,391.694,314.035,391.792,313.815,391.872z"/>
	</g>
	<g id="POLYLINE_1586_">
		
			<path fill="none" stroke="#FB8604" stroke-width="1.5" stroke-linecap="round" stroke-linejoin="round" stroke-miterlimit="10" d="
			M330.137,375.829c-2.469-1.367-6.201-5.182-4.847-8.375c0.546-1.288,1.923-2.113,3.09-2.752c3.51-1.92,7.67-2.963,11.625-3.377
			c1.891-0.198,6.686-0.853,7.628,1.672c0.525,1.408-0.592,3.477-0.926,4.72c-0.625,2.321-0.476,5.302-1.961,7.324
			c-2.435,3.317-8.959,2.729-12.292,1.739C331.652,376.54,330.872,376.232,330.137,375.829z"/>
	</g>
	<g id="POLYLINE_1585_">
		
			<path fill="none" stroke="#FB8604" stroke-width="1.5" stroke-linecap="round" stroke-linejoin="round" stroke-miterlimit="10" d="
			M346.797,357.341c-4.554-1.866-8.517-6.961-8.861-11.935c-0.206-2.975,1.774-4.359,4.46-5.052
			c5.364-1.383,11.129-0.981,14.885,3.507c2.797,3.342,3.044,6.945,0.236,10.306c-2.389,2.859-5.738,4.617-9.478,3.601
			C347.616,357.652,347.201,357.507,346.797,357.341z"/>
	</g>
	<g id="POLYLINE_1584_">
		
			<path fill="none" stroke="#FB8604" stroke-width="1.5" stroke-linecap="round" stroke-linejoin="round" stroke-miterlimit="10" d="
			M344.512,326.734c-1.148,2.093-1.84,8.551,1.759,8.886c1.789,0.167,3.351-1.822,5.117-2.19c1.74-0.363,2.212-0.658,3.076-2.448
			c2.119-4.389,2.599-9.383,1.399-14.066"/>
	</g>
	<g id="POLYLINE_1583_">
		
			<path fill="none" stroke="#FB8604" stroke-width="1.5" stroke-linecap="round" stroke-linejoin="round" stroke-miterlimit="10" d="
			M323.387,351.624c-1.407-0.688-1.68-2.539-1.556-3.934c0.185-2.088,1.197-3.247,3.169-3.83c2.493-0.738,5.615-0.947,8.181-0.549
			c0.445,0.069,1.626,0.152,1.851,0.723c0.169,0.43-0.182,0.747-0.379,1.09c-0.565,0.987-1.561,2.401-2.242,3.362
			c-1.545,2.18-6.022,4.079-8.669,3.272C323.619,351.721,323.503,351.675,323.387,351.624z"/>
	</g>
	<g id="POLYLINE_1582_">
		
			<path fill="none" stroke="#FB8604" stroke-width="1.5" stroke-linecap="round" stroke-linejoin="round" stroke-miterlimit="10" d="
			M320.058,358.369c0.076-0.803,0.531-1.376,1.131-1.872c2.506-2.069,6.656-3.447,9.808-4.156c2.086-0.469,6.31-0.538,6.951,2.283
			c0.501,2.207-2.145,3.585-3.847,4.053c-3.02,0.831-5.496,1.001-7.972,3.023c-0.747,0.61-1.806,1.835-2.923,1.832
			c-1.926-0.006-3.033-2.993-3.146-4.488C320.043,358.817,320.041,358.595,320.058,358.369z"/>
	</g>
	<g id="POLYLINE_1581_">
		
			<path fill="none" stroke="#FB8604" stroke-width="1.5" stroke-linecap="round" stroke-linejoin="round" stroke-miterlimit="10" d="
			M292.139,406.217c-1.518-0.62-2.48-2.438-3.24-3.769c-1.471-2.573-3.1-5.796-3.028-8.849c0.079-3.37,3.304-9.825,6.979-10.749
			c2.574-0.647,4.039,2.887,5.434,4.35c0.863,0.905,1.796,1.533,2.028,2.801c0.39,2.126-0.922,4.842-1.704,6.69
			c-1.102,2.605-2.354,5.253-3.874,7.643c-0.335,0.527-0.71,1.242-1.257,1.591c-0.365,0.233-0.679,0.417-1.122,0.348
			C292.281,406.263,292.21,406.241,292.139,406.217z"/>
	</g>
	<g id="POLYLINE_1580_">
		
			<path fill="none" stroke="#FB8604" stroke-width="1.5" stroke-linecap="round" stroke-linejoin="round" stroke-miterlimit="10" d="
			M300.417,417.254c-2.546-1.413-2.657-6.355-2.017-8.753c0.941-3.527,3.437-6.462,4.721-9.866c0.449-1.19,0.444-3.214,1.53-4.088
			c2.29-1.843,7.395,1.488,8.881,3.125c3.717,4.095-1.274,9.358-3.95,12.393c-2.02,2.29-4.654,6.03-7.65,7.115
			c-0.434,0.157-0.846,0.286-1.303,0.158C300.555,417.317,300.486,417.285,300.417,417.254z"/>
	</g>
	<g id="POLYLINE_1579_">
		
			<path fill="none" stroke="#FB8604" stroke-width="1.5" stroke-linecap="round" stroke-linejoin="round" stroke-miterlimit="10" d="
			M302.131,383.861c-3.134-0.744-5.063-6.841-4.91-9.596c0.265-4.755,6.917-8.755,10.499-10.608
			c2.774-1.436,7.768-3.204,10.204-0.155c2.03,2.54-0.929,5.858-2.617,7.614c-1.981,2.06-4.179,3.9-6.113,6.007
			c-1.567,1.706-2.81,3.703-4.429,5.355c-0.6,0.612-1.353,1.37-2.276,1.409C302.367,383.892,302.25,383.879,302.131,383.861z"/>
	</g>
	<g id="POLYLINE_1578_">
		
			<path fill="none" stroke="#FB8604" stroke-width="1.5" stroke-linecap="round" stroke-linejoin="round" stroke-miterlimit="10" d="
			M309.647,357.474c-0.999-1.782,1.167-4.426,2.128-5.695c1.163-1.536,4.448-5.959,6.935-5.426c1.11,0.237,1.257,1.431,1.325,2.413
			c0.232,3.354-0.902,7.256-4.185,8.67c-1.481,0.638-4.614,1.589-6.036,0.238C309.75,357.612,309.701,357.543,309.647,357.474z"/>
	</g>
	<g id="POLYLINE_1577_">
		
			<path fill="none" stroke="#FB8604" stroke-width="1.5" stroke-linecap="round" stroke-linejoin="round" stroke-miterlimit="10" d="
			M292.938,365.747c-2.127-0.666-1.674-3.582-1.007-5.125c0.762-1.764,2.188-3.101,3.334-4.604c0.983-1.289,1.592-2.766,2.456-4.128
			c1.84-2.904,5.24-4.585,8.594-5.034c1.651-0.221,4.347-0.085,4.23,2.184c-0.116,2.265-2.646,3.875-3.328,5.965
			c-0.414,1.272,0.159,2.589-0.264,3.844c-0.675,2.003-3.198,3.377-4.901,4.34c-2.354,1.331-5.564,2.976-8.368,2.696
			C293.43,365.859,293.185,365.818,292.938,365.747z"/>
	</g>
	<g id="POLYLINE_1576_">
		
			<path fill="none" stroke="#FB8604" stroke-width="1.5" stroke-linecap="round" stroke-linejoin="round" stroke-miterlimit="10" d="
			M304.362,340.411c-0.522,1.224-1.113,2.609,0.079,3.559c1.616,1.288,4.71,0.683,6.267-0.394c1.393-0.964,2.254-2.535,2.84-4.086"
			/>
	</g>
	<g id="POLYLINE_1575_">
		
			<path fill="none" stroke="#FB8604" stroke-width="1.5" stroke-linecap="round" stroke-linejoin="round" stroke-miterlimit="10" d="
			M315.747,339.186c-0.931,1.28-1.575,3.702-0.269,4.979c1.686,1.648,4.965-0.223,6.383-1.308c1.843-1.41,2.888-3.432,3.415-5.658"
			/>
	</g>
	<g id="POLYLINE_1574_">
		
			<path fill="none" stroke="#FB8604" stroke-width="1.5" stroke-linecap="round" stroke-linejoin="round" stroke-miterlimit="10" d="
			M327.266,336.574c-0.194,1.637-0.116,2.787,1.535,3.361c2.902,1.009,6.873,0.198,8.8-2.225c1.773-2.229,3.02-5.334,3.055-8.193"/>
	</g>
	<g id="POLYLINE_1573_">
		
			<path fill="none" stroke="#FB8604" stroke-width="1.5" stroke-linecap="round" stroke-linejoin="round" stroke-miterlimit="10" d="
			M445.003,228.838c0.701,3.941,2.652,5.275,6.435,3.605c2.474-1.092,4.307-2.853,5.605-5.204c1.657-3.001,4.07-7.731,3.509-11.348
			c-0.174-1.118-0.749-1.928-1.462-2.777c-1.7-2.027-3.427-4.187-5.482-5.876"/>
	</g>
	<g id="POLYLINE_1572_">
		
			<path fill="none" stroke="#FB8604" stroke-width="1.5" stroke-linecap="round" stroke-linejoin="round" stroke-miterlimit="10" d="
			M465.189,206.44c-2.4,0.433-4.608-2.878-5.32-4.702c-0.546-1.399-0.516-2.764,0.02-4.161c0.896-2.335,2.737-5.386,4.882-6.832
			c1.511-1.018,4.42-1.278,5.632,0.403c1.209,1.676-0.959,3.678-1.364,5.267c-0.757,2.965,0.307,8.447-3.539,9.932
			C465.398,206.387,465.294,206.415,465.189,206.44z"/>
	</g>
	<g id="POLYLINE_1571_">
		
			<path fill="none" stroke="#FB8604" stroke-width="1.5" stroke-linecap="round" stroke-linejoin="round" stroke-miterlimit="10" d="
			M418.833,442.644c-1.092-1.03,3.215-4.309,3.471-4.539c1.079-0.969,4.818-5.185,6.792-4.512c3.342,1.138-2.593,7.068-3.957,7.797
			C423.819,442.094,420.227,443.896,418.833,442.644z"/>
	</g>
	<g id="POLYLINE_1570_">
		
			<path fill="none" stroke="#FB8604" stroke-width="1.5" stroke-linecap="round" stroke-linejoin="round" stroke-miterlimit="10" d="
			M286.782,349.022c-0.816-0.59-1.047-1.614-0.741-2.543c0.9-2.738,5.339-3.444,7.687-3.766c1.469-0.201,4.582-0.754,5.393,1.046
			c0.687,1.525-0.743,3.794-1.952,4.607c-2.269,1.527-7.58,2.165-10.067,0.852C287.075,349.204,286.782,349.066,286.782,349.022z"/>
	</g>
	<g id="POLYLINE_1569_">
		
			<path fill="none" stroke="#FB8604" stroke-width="1.5" stroke-linecap="round" stroke-linejoin="round" stroke-miterlimit="10" d="
			M271.588,360.431c-0.663-0.946,1.308-3.235,1.296-4.488c-0.017-1.808-1.673-2.712-2.652-4.038c-1.3-1.76-1.234-3.923,0.662-5.22
			c2.818-1.928,9.197-2.332,11.696,0.364c1.67,1.801,0.868,3.689-0.943,4.893c-0.946,0.629-1.891,1.063-2.601,1.961
			c-0.917,1.16-1.37,2.602-2.379,3.711c-0.92,1.012-3.177,3.1-4.72,2.937C271.815,360.537,271.68,360.549,271.588,360.431z"/>
	</g>
	<g id="POLYLINE_1568_">
		
			<path fill="none" stroke="#FB8604" stroke-width="1.5" stroke-linecap="round" stroke-linejoin="round" stroke-miterlimit="10" d="
			M277.049,367.353c-1.592,0.08-4.885-1.992-4.41-3.88c0.339-1.343,2.812-1.674,3.753-2.157c2.375-1.218,3.168-3.928,5.163-5.612
			c1.849-1.561,8.132-4.927,10.016-1.598c1.542,2.726-1.938,6.498-4.341,7.309c-2.264,0.764-4.901,0.326-6.669,2.172
			c-1.029,1.075-1.581,3.169-3.135,3.685C277.302,367.314,277.178,367.337,277.049,367.353z"/>
	</g>
	<g id="POLYLINE_1567_">
		
			<path fill="none" stroke="#FB8604" stroke-width="1.5" stroke-linecap="round" stroke-linejoin="round" stroke-miterlimit="10" d="
			M272.993,394.551c-3.363-1.218-1.666-6.944-0.971-9.237c1.608-5.308,3.856-11.211,7.076-15.77
			c1.272-1.801,2.976-3.684,5.265-4.053c4.811-0.775,7.696,3.331,7.333,7.619c-0.296,3.497-2.004,5.228-4.265,7.735
			c-2.233,2.478-2.072,4.924-3.263,7.886c-1.429,3.553-6.76,6.675-10.597,5.97C273.374,394.664,273.183,394.616,272.993,394.551z"/>
	</g>
	<g id="POLYLINE_1566_">
		
			<path fill="none" stroke="#FB8604" stroke-width="1.5" stroke-linecap="round" stroke-linejoin="round" stroke-miterlimit="10" d="
			M263.044,387.035c-2.531-1.053-4.385-1.89-5.261-4.642c-0.547-1.72-0.699-3.932,0.377-5.5c1.582-2.304,4.878-2.495,7.028-4.03
			c1.543-1.101,1.833-3.18,3.25-4.278c1.271-0.986,3.06-0.196,4.098,0.81c0.717,0.694,1.112,1.514,1.141,2.51
			c0.102,3.554-2.856,7.096-3.858,10.449c-0.677,2.264-0.926,6.54-4.155,5.77C264.757,387.907,263.89,387.405,263.044,387.035z"/>
	</g>
	<g id="POLYLINE_1565_">
		
			<path fill="none" stroke="#FB8604" stroke-width="1.5" stroke-linecap="round" stroke-linejoin="round" stroke-miterlimit="10" d="
			M255.799,373.246c-1.37-0.112-2.338-1.546-2.128-2.869c0.16-1.007,0.995-1.721,1.726-2.346c1.396-1.195,2.85-2.167,4.024-3.597
			c1.606-1.956,2.738-4.247,4.137-6.346c0.76-1.141,2.921-4.726,4.86-3.98c2.383,0.916,1.752,6.786,0.979,8.45
			c-0.271,0.584-0.668,1.053-1.103,1.521c-2.043,2.192-4.474,4.199-6.783,6.117c-1.417,1.176-3.254,2.808-5.182,3.032
			C256.151,373.249,255.977,373.254,255.799,373.246z"/>
	</g>
	<g id="POLYLINE_1564_">
		
			<path fill="none" stroke="#FB8604" stroke-width="1.5" stroke-linecap="round" stroke-linejoin="round" stroke-miterlimit="10" d="
			M241.208,394.685c-0.446-0.259-0.377-0.968-0.386-1.388c-0.074-3.597,2.092-7.869,3.534-11.016
			c0.886-1.934,2.938-7.186,5.769-7.42c1.515-0.125,2.524,1.499,3.079,2.669c1.533,3.23,1.642,7.883-1.05,10.544
			c-2.306,2.279-5.744,3.796-8.439,5.594c-0.589,0.393-1.436,1.124-2.219,1.085C241.388,394.749,241.309,394.712,241.208,394.685z"
			/>
	</g>
	<g id="POLYLINE_1563_">
		
			<path fill="none" stroke="#FB8604" stroke-width="1.5" stroke-linecap="round" stroke-linejoin="round" stroke-miterlimit="10" d="
			M239.557,386.642c-0.76-1.49-1.392-3.632-0.725-5.27c0.48-1.178,1.634-1.843,1.899-3.134c0.261-1.274-0.568-3.262,0.523-4.309
			c0.334-0.321,0.833-0.383,1.264-0.465c0.881-0.167,3.696-0.497,4.403-0.001c0.805,0.565,0.081,1.491-0.509,2.166"/>
	</g>
	<g id="POLYLINE_1562_">
		
			<path fill="none" stroke="#FB8604" stroke-width="1.5" stroke-linecap="round" stroke-linejoin="round" stroke-miterlimit="10" d="
			M249.691,369.935c-0.424-0.128,3.044-11.135,6.435-10.76c1.53,0.169,2.336,2.25,1.617,3.468c-0.848,1.438-2.865,2.294-4.07,3.461
			C253.104,366.654,250.777,370.15,249.691,369.935z"/>
	</g>
	<g id="POLYLINE_1561_">
		
			<path fill="none" stroke="#FB8604" stroke-width="1.5" stroke-linecap="round" stroke-linejoin="round" stroke-miterlimit="10" d="
			M258.45,356.038c-0.114-2.452,7.801-9.34,9.152-7.734c0.847,1.007-2.173,4.611-2.726,5.315c-1.038,1.321-2.846,3.777-4.785,3.746
			C259.273,357.352,258.547,356.904,258.45,356.038z"/>
	</g>
	<g id="POLYLINE_1560_">
		
			<path fill="none" stroke="#FB8604" stroke-width="1.5" stroke-linecap="round" stroke-linejoin="round" stroke-miterlimit="10" d="
			M237.134,419.57c-1.512,0.438-0.156-12.75,0.272-14.144c0.876-2.853,3.988-8.658,7.689-8.534c1.89,0.063,2.243,2.348,2.39,3.853
			c0.248,2.549,0.205,6.694-2.328,8.156c-1.528,0.882-2.579,0.973-3.644,2.459c-1.694,2.364-2.073,5.912-4.072,7.959
			C237.348,419.416,237.267,419.525,237.134,419.57z"/>
	</g>
	<g id="POLYLINE_1559_">
		
			<path fill="none" stroke="#FB8604" stroke-width="1.5" stroke-linecap="round" stroke-linejoin="round" stroke-miterlimit="10" d="
			M252.761,412.324c-3.308,0.286-3.463-6.831-3.315-8.771c0.267-3.506,1.303-7.21,3.125-10.234c0.736-1.222,1.742-2.712,3.297-2.858
			c1.034-0.097,2.067,0.498,3.011,0.78c1.751,0.523,3.552,0.418,5.342,0.713c1.888,0.312,3.389,1.131,4.475,2.732
			c2.513,3.707,1.017,6.724-2.914,8.105c-3.21,1.128-6.821,1.399-9.073,4.235c-1.183,1.489-1.821,4.341-3.655,5.202
			C252.957,412.273,252.862,412.296,252.761,412.324z"/>
	</g>
	<g id="POLYLINE_1558_">
		
			<path fill="none" stroke="#FB8604" stroke-width="1.5" stroke-linecap="round" stroke-linejoin="round" stroke-miterlimit="10" d="
			M254.761,417.948c-1.238-2.211,0.259-4.966,1.588-6.756c1.926-2.592,5.468-5.879,8.986-5.392c2.98,0.413,3.832,3.861,3.877,6.412
			c0.062,3.471-1.348,7.052-4.851,8.198c-2.859,0.935-7.302,0.537-9.292-2.008C254.956,418.258,254.854,418.107,254.761,417.948z"/>
	</g>
	<g id="POLYLINE_1557_">
		
			<path fill="none" stroke="#FB8604" stroke-width="1.5" stroke-linecap="round" stroke-linejoin="round" stroke-miterlimit="10" d="
			M272.512,415.024c-0.581-2.83,3.928-4.972,2.485-7.916c-1.059-2.161-3.415-4.225-1.101-6.695c2.603-2.779,6.732,1.153,8.169,3.213
			c2.108,3.022,3.543,6.748,4.267,10.35c0.176,0.877,0.893,3.411-0.238,4.036c-0.338,0.186-0.798-0.032-1.129-0.091
			c-1.575-0.278-3.006-1.037-4.626-1.249c-1.829-0.24-6.198,0.416-7.632-1.308C272.619,415.257,272.568,415.149,272.512,415.024z"/>
	</g>
	<g id="POLYLINE_1556_">
		
			<path fill="none" stroke="#FB8604" stroke-width="1.5" stroke-linecap="round" stroke-linejoin="round" stroke-miterlimit="10" d="
			M271.755,424.649c-0.449-0.644-0.207-1.295,0.197-1.889c1.652-2.426,6.043-2.924,8.709-2.703c1.845,0.153,4.44,0.819,4.609,3.062
			c0.156,2.078-1.846,3.156-3.595,3.51c-2.737,0.553-7.488,0.405-9.653-1.68C271.924,424.855,271.839,424.755,271.755,424.649z"/>
	</g>
	<g id="POLYLINE_1555_">
		
			<path fill="none" stroke="#FB8604" stroke-width="1.5" stroke-linecap="round" stroke-linejoin="round" stroke-miterlimit="10" d="
			M276.477,430.451c-1.992,0.044-3.213-0.086-3.682,2.041c-0.572,2.599,0.261,7.771,2.875,9.156c1.58,0.837,3.263-0.398,4.391-1.464
			c1.76-1.664,4.941-6.015,3.981-8.723c-0.582-1.643-2.926-1.283-4.292-1.219C278.658,430.295,277.569,430.407,276.477,430.451z"/>
	</g>
	<g id="POLYLINE_1554_">
		
			<path fill="none" stroke="#FB8604" stroke-width="1.5" stroke-linecap="round" stroke-linejoin="round" stroke-miterlimit="10" d="
			M255.08,440.141c-0.558-0.124-0.907-0.486-1.243-0.926c-1.454-1.905-2.338-5.672-2.199-8.104c0.224-3.914,3.999-5.967,7.585-5.848
			c3.946,0.131,7.856-0.925,9.369,3.5c0.788,2.305,0.545,3.985-1.818,4.705c-2.999,0.913-4.189,2.469-6.676,4.424
			c-1.264,0.993-3.002,2.336-4.717,2.282C255.28,440.17,255.181,440.156,255.08,440.141z"/>
	</g>
	<g id="POLYLINE_1553_">
		
			<path fill="none" stroke="#FB8604" stroke-width="1.5" stroke-linecap="round" stroke-linejoin="round" stroke-miterlimit="10" d="
			M267.625,447.819c-2.343-0.849-3.344-4.621-3.412-6.737c-0.039-1.213,0.505-1.922,1.615-2.433c1.85-0.853,3.605-0.369,4.942,1.063
			c0.861,0.922,1.473,2.049,2.266,3.025c0.597,0.735,1.635,1.408,2.029,2.277c0.181,0.4,0.353,0.626,0.21,1.077
			c-0.634,2.004-5.371,2.206-6.895,1.924C268.123,447.967,267.873,447.905,267.625,447.819z"/>
	</g>
	<g id="POLYLINE_1544_">
		
			<path fill="none" stroke="#FB8604" stroke-width="1.5" stroke-linecap="round" stroke-linejoin="round" stroke-miterlimit="10" d="
			M278.007,447.224c-0.637-1.812,2.428-3.503,3.399-4.281c1.329-1.064,2.87-3.579,4.462-4.071c0.439-0.136,0.612-0.198,1.039,0.052
			c1.799,1.051,1.432,5.814,1.031,7.422c-0.465,1.866-1.53,3.125-3.472,3.398c-1.968,0.277-5.161-0.426-6.311-2.237
			C278.097,447.416,278.052,447.322,278.007,447.224z"/>
	</g>
	<g id="POLYLINE_762_">
		
			<path fill="none" stroke="#FB8604" stroke-width="1.5" stroke-linecap="round" stroke-linejoin="round" stroke-miterlimit="10" d="
			M270.721,458.307c-0.797-1.229,0.143-2.805,0.954-3.757c2.411-2.835,6.372-2.951,9.555-1.343c1.218,0.615,2.381,1.565,2.149,3.06
			c-0.298,1.915-2.532,2.77-4.151,3.152c-2.283,0.538-6.363,1.009-8.252-0.817C270.88,458.509,270.8,458.411,270.721,458.307z"/>
	</g>
	<g id="POLYLINE_761_">
		
			<path fill="none" stroke="#FB8604" stroke-width="1.5" stroke-linecap="round" stroke-linejoin="round" stroke-miterlimit="10" d="
			M255.768,450.798c-1.855-0.948-2.647-4.238-2.155-6.107c0.44-1.671,1.973-2.422,3.618-2.355c2.282,0.093,6.111,2.191,6.355,4.775
			c0.073,0.778-0.204,1.363-0.874,1.77c-1.05,0.639-2.521,0.342-3.674,0.793c-0.906,0.354-1.857,1.35-2.923,1.218
			C255.992,450.878,255.882,450.84,255.768,450.798z"/>
	</g>
	<g id="POLYLINE_760_">
		
			<path fill="none" stroke="#FB8604" stroke-width="1.5" stroke-linecap="round" stroke-linejoin="round" stroke-miterlimit="10" d="
			M242.031,432.528c-4.516-2.093-3.374-8.393-1.181-11.652c1.351-2.008,3.263-7.553,6.605-6.789c2.912,0.665,6.338,5.006,4.848,8.03
			c-0.776,1.575-2.707,1.983-3.539,3.375c-0.69,1.155-0.094,2.714-0.386,3.984c-0.537,2.332-3.195,3.762-5.499,3.316
			C242.587,432.734,242.304,432.649,242.031,432.528z"/>
	</g>
	<g id="POLYLINE_759_">
		
			<path fill="none" stroke="#FB8604" stroke-width="1.5" stroke-linecap="round" stroke-linejoin="round" stroke-miterlimit="10" d="
			M247.682,435.526c-1.266-0.298-2.546,0.443-3.06,1.606c-0.922,2.09,0.376,5.055,0.778,7.044c0.662,3.277,0.585,6.639,1.908,9.761
			c0.488,1.151,1.452,3.425,3.093,3.032c3.723-0.893,1.916-7.64,1.455-9.724c-0.751-3.392,0.298-9.607-3.641-11.521
			C248.042,435.641,247.867,435.576,247.682,435.526z"/>
	</g>
	<g id="POLYLINE_758_">
		
			<path fill="none" stroke="#FB8604" stroke-width="1.5" stroke-linecap="round" stroke-linejoin="round" stroke-miterlimit="10" d="
			M262.563,452.778c-0.726,0.589-0.821,1.359-0.586,2.211c0.427,1.551,2.703,4.482,4.593,4.364c1.096-0.068,1.587-1.121,1.915-2.051
			c0.491-1.391,1.187-4.448-0.187-5.641c-1.33-1.155-4.002-0.051-5.204,0.728C262.909,452.509,262.733,452.637,262.563,452.778z"/>
	</g>
	<g id="POLYLINE_757_">
		
			<path fill="none" stroke="#FB8604" stroke-width="1.5" stroke-linecap="round" stroke-linejoin="round" stroke-miterlimit="10" d="
			M261.952,468.66c-0.5-1.019,0.926-2.298,1.667-2.716c2.609-1.473,5.762,0.856,7.301,2.867c0.721,0.942,1.59,2.337,0.307,3.143
			c-0.881,0.554-2.109,0.158-2.857-0.394c-0.834-0.615-1.251-1.452-2.242-1.837c-1.195-0.465-2.92,0.034-3.955-0.806
			C262.083,468.845,262.006,468.764,261.952,468.66z"/>
	</g>
	<g id="POLYLINE_756_">
		
			<path fill="none" stroke="#FB8604" stroke-width="1.5" stroke-linecap="round" stroke-linejoin="round" stroke-miterlimit="10" d="
			M258.755,463.448c-0.907-0.057-1.399-0.768-1.824-1.494c-0.36-0.615-3.317-5.589-1.97-6.65c1.369-1.079,5.939,2.176,6.779,2.715
			c0.936,0.6,2.041,1.248,1.716,2.485C263.028,462.133,260.309,463.473,258.755,463.448z"/>
	</g>
	<g id="POLYLINE_755_">
		
			<path fill="none" stroke="#FB8604" stroke-width="1.5" stroke-linecap="round" stroke-linejoin="round" stroke-miterlimit="10" d="
			M270.887,464.324c-0.527-0.415-2.051-1.657-1.441-2.508c0.829-1.156,4.664,0.337,5.593,0.67c1.269,0.455,4.942,2.264,2.359,3.682
			C275.439,467.244,272.363,465.491,270.887,464.324z"/>
	</g>
	<g id="POLYLINE_367_">
		
			<path fill="none" stroke="#FB8604" stroke-width="1.5" stroke-linecap="round" stroke-linejoin="round" stroke-miterlimit="10" d="
			M263.494,478.871c-1.721-1.264,0.356-4.047,1.798-4.522c1.205-0.397,5.705-0.806,6.639,0.375c0.841,1.065-1.481,1.787-2.251,2.188
			C268.57,477.489,265.036,479.97,263.494,478.871z"/>
	</g>
	<g id="POLYLINE_366_">
		
			<path fill="none" stroke="#FB8604" stroke-width="1.5" stroke-linecap="round" stroke-linejoin="round" stroke-miterlimit="10" d="
			M250.05,467.778c-1.118-0.837,0.991-3.814,1.208-4.843c0.242-1.147-0.077-3.1,1.443-2.953c1.653,0.16,3.65,3.19,3.796,4.747
			c0.088,0.947-0.256,1.593-0.992,2.179C254.326,467.847,251.428,468.773,250.05,467.778z"/>
	</g>
	<g id="POLYLINE_365_">
		
			<path fill="none" stroke="#FB8604" stroke-width="1.5" stroke-linecap="round" stroke-linejoin="round" stroke-miterlimit="10" d="
			M259.089,479.156c1.638-0.395,0.775-5.319,0.615-6.269c-0.227-1.346-0.637-2.68-2.087-3.015c-2.295-0.53-6.04,1.796-4.872,4.408
			c0.794,1.777,3.429,3.457,4.963,4.345C258.177,478.897,258.542,479.172,259.089,479.156z"/>
	</g>
	<g id="POLYLINE_364_">
		
			<path fill="none" stroke="#FB8604" stroke-width="1.5" stroke-linecap="round" stroke-linejoin="round" stroke-miterlimit="10" d="
			M242.591,463.199c0.836,1.825,3.669,3.971,5.182,1.716c1.684-2.511-0.358-6.126-1.459-8.312c-0.637-1.265-1.306-3.084-2.939-3.243
			c-1.596-0.155-2.989,1.233-3.504,2.611"/>
	</g>
	<g id="POLYLINE_363_">
		
			<path fill="none" stroke="#FB8604" stroke-width="1.5" stroke-linecap="round" stroke-linejoin="round" stroke-miterlimit="10" d="
			M241.314,448.092c-1.324,0.695-2.799-2.393-3.092-3.047c-0.995-2.217-1.362-5.888,0.153-7.972c2.307-3.172,4.04,3.226,4.152,4.598
			C242.673,443.459,242.97,446.876,241.314,448.092z"/>
	</g>
	<g id="POLYLINE_362_">
		
			<path fill="none" stroke="#FB8604" stroke-width="1.5" stroke-linecap="round" stroke-linejoin="round" stroke-miterlimit="10" d="
			M234.921,435.537c2.344-0.948,2.677-2.404,2.539-4.921c-0.102-1.869-0.354-6.77-2.585-7.598c-0.565-0.21-1.26,0.008-1.783,0.227"
			/>
	</g>
	<g id="POLYLINE_332_">
		
			<path fill="none" stroke="#FB8604" stroke-width="1.5" stroke-linecap="round" stroke-linejoin="round" stroke-miterlimit="10" d="
			M235.01,402.627c1.39-1.102,4.886-5.894,3.004-7.718c-0.328-0.317-1.077-0.309-1.465-0.284"/>
	</g>
	<g id="POLYLINE_331_">
		
			<path fill="none" stroke="#FB8604" stroke-width="1.5" stroke-linecap="round" stroke-linejoin="round" stroke-miterlimit="10" d="
			M254.143,483.88c-2.019,0.551-4.989-3.912-3.822-5.574c1.394-1.986,4.637,1.658,4.83,3.216
			C255.259,482.393,255.054,483.527,254.143,483.88z"/>
	</g>
	<g id="POLYLINE_330_">
		
			<path fill="none" stroke="#FB8604" stroke-width="1.5" stroke-linecap="round" stroke-linejoin="round" stroke-miterlimit="10" d="
			M247.319,476.46c1.353-1.673,2.161-4.703,0.211-6.22c-0.642-0.499-1.513-0.768-2.303-0.9"/>
	</g>
</g>
<g id="AG-ANIMALS">
	<g id="POLYLINE_329_">
		
			<path fill="none" stroke="#FB8604" stroke-width="2.5" stroke-linecap="round" stroke-linejoin="round" stroke-miterlimit="10" d="
			M393.85,654.826c6.458-4.49,12.967-8.803,19.669-12.92"/>
	</g>
	<g id="POLYLINE_328_">
		
			<path fill="none" stroke="#FB8604" stroke-width="2.5" stroke-linecap="round" stroke-linejoin="round" stroke-miterlimit="10" d="
			M392.589,489.547c-0.806,13.179-1.195,26.379-0.6,39.576c0.595,13.192,1.768,26.281,1.565,39.499
			c-0.203,13.212-0.566,26.459-1.575,39.637c-0.598,7.808-2.651,15.424,0.783,22.82c0.979,2.108,2.832,3.626,3.739,5.71
			c0.91,2.09,1.025,4.953,0.609,7.17c-0.317,1.686-1.242,2.307-2.159,3.681c-1.138,1.705-1.437,4.254-1.246,6.243
			c0.27,2.811,2.191,3.532,4.819,3.774c6.114,0.562,12.382-0.003,18.509,0.01c2.189,0.005,6.405,0.896,8.563-0.398
			c1.019-0.611,1.142-1.619,0.751-2.696c-0.922-2.544-4.215-4.298-6.124-5.872c-3.77-3.11-7.04-6.907-9.922-10.841
			c-1.34-1.83-2.126-3.564-2.306-5.823c-0.245-3.069,0.58-6.29-0.248-9.3c-0.664-2.413-2.397-4.377-2.951-6.838
			c-1.016-4.518,0.171-9.632,0.312-14.205c0.404-13.062-0.325-26.156,0.304-39.21c0.173-3.582,0.483-7.201,1.835-10.556
			c1.406-3.487,3.373-6.55,4.062-10.291c0.872-4.731,0.275-9.5,0.383-14.269c0.147-6.481,0.671-12.983,1.414-19.421
			c1.447-12.526,5.083-24.288,9.202-36.158c1.847-5.322,3.702-10.639,4.519-16.235c0.711-4.873,0.584-9.953,1.968-14.71
			c1.094-3.76,3.547-6.966,5.098-10.54c2.611-6.017,4.518-12.313,7.021-18.373c1.333-3.228,3.331-6.534,3.321-10.138
			c-0.007-2.509-0.868-4.943-1.924-7.187c-3.666-7.792-10.09-16.133-9.682-25.228c0.119-2.66,0.836-5.427,1.959-7.842"/>
	</g>
	<g id="POLYLINE_327_">
		
			<path fill="none" stroke="#FB8604" stroke-width="2.5" stroke-linecap="round" stroke-linejoin="round" stroke-miterlimit="10" d="
			M286.243,652.225c6.477-4.525,13.883-8.842,21.672-10.574"/>
	</g>
	<g id="POLYLINE_326_">
		
			<path fill="none" stroke="#FB8604" stroke-width="2.5" stroke-linecap="round" stroke-linejoin="round" stroke-miterlimit="10" d="
			M232.835,420.76c1.216,11.789,3.353,23.631,6.95,34.94c1.682,5.289,4.298,10.18,6.093,15.416
			c1.698,4.956,2.388,10.231,2.799,15.433c0.45,5.685,0.526,11.42,0.116,17.11c-0.444,6.157-1.737,12.177-2.426,18.299
			c-0.296,2.63-0.319,5.279,0.841,7.719c1.684,3.543,4.856,6.127,6.914,9.433c2.169,3.484,3.391,7.516,4.784,11.348
			c2.165,5.955,4.35,11.901,6.44,17.882c4.27,12.218,8.841,24.423,11.805,37.044c1.377,5.865,2.154,11.75,2.759,17.735
			c0.294,2.912,0.645,5.903,1.905,8.581c0.997,2.118,2.37,3.17,4.08,4.706c1.881,1.691,3.196,4.166,3.848,6.59
			c0.339,1.259,0.543,2.64-0.04,3.857c-0.661,1.38-2.177,2.091-2.937,3.393c-0.887,1.519-0.572,3.4,0.554,4.71
			c1.048,1.218,2.66,1.769,4.176,2.127c4.8,1.134,9.979,0.7,14.862,0.644c2.276-0.026,9.115,1.014,10.602-1.846
			c1.315-2.528-2.983-6.599-4.169-8.15c-3.233-4.228-7.077-7.863-10.352-12.028c-2-2.544-2.6-5.597-3.831-8.537
			c-2.266-5.415-4.869-10.655-6.823-16.199c-1.673-4.748-3.048-9.589-4.456-14.419c-3.932-13.493-8.21-26.934-11.648-40.566
			c-1.21-4.8-2.252-9.624-2.349-14.59c-0.119-6.092,0.433-12.234,0.899-18.303c0.948-12.351,1.729-24.954,4.269-37.1
			c2.432-11.628,7.42-22.505,9.564-34.221c1.921-10.498,3.865-21.925,2.358-32.589c-0.839-5.936-2.36-11.873-4.749-17.379"/>
	</g>
	<g id="POLYLINE_325_">
		
			<path fill="none" stroke="#FB8604" stroke-width="2.5" stroke-linecap="round" stroke-linejoin="round" stroke-miterlimit="10" d="
			M247.761,478.849c-3.15,8.66-6.533,17.538-10.971,25.633c-2.102,3.835-4.449,6.19-3.631,10.746
			c0.892,4.964,3.529,9.279,4.24,14.332c1.24,8.81,1.232,17.864,1.38,26.743c0.327,19.601,0.478,39.232-1.159,58.784
			c-0.504,6.018-1.722,12.64,0.17,18.559c0.605,1.891,1.332,3.191,3.2,3.821c2.056,0.693,2.836,1.227,3.664,3.413
			c0.482,1.272,1.267,3.205,0.596,4.549c-0.824,1.65-2.9,2.08-3.53,3.991c-0.606,1.837-0.502,4.518,0.83,6.049
			c1.662,1.91,4.977,2.011,7.274,2.144c4.754,0.277,9.581,0.256,14.341,0.138c2.003-0.05,4.824,0.147,6.704-0.791
			c0.773-0.386,1.117-0.746,1.097-1.603c-0.038-1.549-1.782-3.465-2.516-4.626c-1.614-2.55-3.265-5.143-5.462-7.239
			c-1.555-1.483-3.45-2.639-4.801-4.331c-1.153-1.445-1.832-3.204-2.493-4.909c-3.135-8.088-4.046-16.661-4.712-25.252
			c-1.522-19.607-1.021-39.178-0.04-58.799c0.212-4.249,0.562-8.456,1.097-12.676"/>
	</g>
	<g id="POLYLINE_324_">
		
			<path fill="none" stroke="#FB8604" stroke-width="2.5" stroke-linecap="round" stroke-linejoin="round" stroke-miterlimit="10" d="
			M241.707,653.88c7.077-4.858,15.45-7.666,23.959-8.583"/>
	</g>
	<g id="POLYLINE_323_">
		
			<path fill="none" stroke="#FB8604" stroke-width="2.5" stroke-linecap="round" stroke-linejoin="round" stroke-miterlimit="10" d="
			M367.66,404.644c-0.198,13.042,0.097,25.809,1.461,38.782c1.332,12.664-0.065,25.092-0.623,37.752
			c-0.632,14.323-1.873,28.49-3.26,42.759c-1.172,12.062,0.017,24.059-0.847,36.107c-0.941,13.11-2.458,26.2-4.157,39.231
			c-0.902,6.918-2.039,13.819-2.854,20.746c-0.329,2.799-0.552,5.759,0.16,8.523c0.529,2.057,1.956,3.284,2.876,5.116
			c1.136,2.263,0.689,5.465,0.587,7.867c-0.074,1.764-0.087,3.661-1.088,5.181c-0.77,1.169-1.999,1.918-2.23,3.374
			c-0.565,3.555,2.809,6.416,5.901,7.07c4.87,1.03,10.189,0.58,15.127,0.588c3.506,0.006,7.012,0.023,10.518,0.016
			c0.804-0.002,2.509,0.289,3.31-0.169c1.141-0.652,0.78-1.984,0.224-3.012c-1.285-2.377-4.144-4.043-6.285-5.475
			c-2.876-1.923-6.113-3.686-8.383-6.37c-2.636-3.117-3.891-7.167-3.973-11.204c-0.069-3.362,0.519-6.574,0.031-9.925
			c-0.861-5.905-0.819-11.646-0.504-17.599c0.7-13.215,1.653-26.522,3.446-39.638c0.663-4.85,1.727-9.128,3.622-13.62
			c2.178-5.163,3.664-10.081,4.28-15.669c0.696-6.319,0.825-12.695,1.671-18.997c0.867-6.457,2.392-12.876,3.769-19.237
			c1.271-5.87,3.779-11.351,5.83-16.972c2.274-6.234,4.2-12.592,6.47-18.827c3.775-10.368,11.107-17.62,17.583-26.317
			c5.532-7.429,6.864-16.506,6.234-25.616c-0.411-5.944-1.616-11.786-2.94-17.583"/>
	</g>
	<g id="POLYLINE_322_">
		
			<path fill="none" stroke="#FB8604" stroke-width="2.5" stroke-linecap="round" stroke-linejoin="round" stroke-miterlimit="10" d="
			M425.885,381.001c2.415-7.888,6.038-15.145,10.346-22.156c5.074-8.258,10.123-16.502,14.878-24.951
			c4.457-7.919,8.812-15.948,12.488-24.265c3.629-8.211,6.271-16.781,8.622-25.432c2.726-10.029,5.018-20.161,6.558-30.442"/>
	</g>
	<g id="POLYLINE_321_">
		
			<path fill="none" stroke="#FB8604" stroke-width="2.5" stroke-linecap="round" stroke-linejoin="round" stroke-miterlimit="10" d="
			M478.776,253.755c2.007-12.823,3.097-25.947,6.477-38.505c1.731-6.43,3.847-12.761,5.826-19.117
			c1.809-5.812,3.339-11.851,5.601-17.514c1.702-4.262,6.182-8.876,11.091-8.958c7.427-0.125,13.396,6.148,20.301,7.941
			c4.553,1.182,9.46,1.071,14.118,0.889c3.555-0.139,7.913-1.044,11.374,0.306c2.882,1.124,2.965,4.112,5.277,5.616
			c2.007,1.306,4.705,1.285,6.874,2.333c1.28,0.618,2.407,1.153,3.856,0.792c1.584-0.395,2.032-2.382,3.468-2.492
			c1.021-0.079,2.001,0.967,3.101,0.948c0.679-0.012,1.339-0.271,1.878-0.677c2.099-1.583,1.104-4.288,0.333-6.341
			c-3.302-8.791-10.182-13.741-16.709-20.083c-2.188-2.126-3.572-4.927-5.993-6.846c-2.452-1.943-5.4-3.126-7.75-5.222
			c-5.007-4.466-5.237-11.542-9.407-16.598c-1.246-1.511-2.797-2.886-4.75-3.332c-2.091-0.477-4.295,0.355-6.346-0.232
			c-3.814-1.092-6.82-6.118-7.698-9.775c-0.494-2.059-0.483-4.151-0.275-6.249c0.13-1.317,0.862-3.698-0.021-5.013
			c-1.406-2.093-5.535-0.648-7.254,0.05c-1.574,0.638-3.766,1.742-3.341,3.757c0.405,1.917,2.293,3.378,3.035,5.208
			c0.564,1.39,1.018,3.237,0.555,4.722c-1.119,3.585-6.598,5.208-9.881,5.427c-2.737,0.183-4.378-0.898-6.929-1.447
			c-0.894-0.192-1.683-0.117-2.517,0.297c-1.083,0.538-1.715,1.432-2.248,2.485c-1.965,3.884-3.458,7.932-6.374,11.25
			c-3.114,3.544-7.256,5.995-10.526,9.395c-4.275,4.444-7.948,9.647-11.004,14.992c-2.878,5.034-4.364,10.186-5.885,15.734
			c-1.529,5.575-4.02,10.953-5.869,16.44c-1.887,5.598-3.62,11.382-6.397,16.62c-1.938,3.656-4.755,6.785-6.22,10.688
			c-1.896,5.049-3.038,10.21-5.34,15.124c-2.86,6.103-5.908,12.106-8.734,18.227c-4.614,9.992-11.233,18.407-19.657,25.48
			c-3.527,2.961-7.318,4.75-11.164,7.167c-3.077,1.933-5.63,4.053-9.044,5.343c-9.559,3.613-16.229,10.599-22.989,18.059
			c-8.085,8.924-16.937,17.353-27.683,23.04c-10.742,5.686-23.298,6.335-35.193,7.111c-10,0.652-20.968,0.51-30.221,4.905
			c-4.533,2.153-8.446,5.364-12.103,8.758c-4.502,4.179-8.856,8.58-12.868,13.233c-6.7,7.77-12.029,16.336-14.116,26.491
			c-2.589,12.6-1.874,25.954-2.033,38.742c-0.07,5.69-0.135,11.382-0.065,17.073c0.063,5.119,0.89,10.974-0.211,16.051
			c-0.245,1.13-2.993,5.237-1.051,6.407c1.468,0.884,3.355-1.644,3.866-2.666c1.201-2.404,0.985-5.585,1.046-8.154
			c0.151-6.41,0.169-12.821,0.436-19.228c0.554-13.278,1.723-26.481,3.57-39.642c1.405-10.012,5.059-19.189,11.42-27.136"/>
	</g>
	<g id="POLYLINE_320_">
		
			<path fill="none" stroke="#FB8604" stroke-width="2.5" stroke-linecap="round" stroke-linejoin="round" stroke-miterlimit="10" d="
			M355.863,316.916c7.13-4.931,14.569-9.034,22.404-12.738c7.639-3.611,15.833-6.365,23.056-10.786
			c13.432-8.222,22.799-21.43,30.234-35.017c8.908-16.278,15.212-33.942,22.046-51.15c3.022-7.608,5.951-15.281,8.593-23.031
			c2.761-8.097,5.437-15.67,10.237-22.827c4.812-7.173,10.377-13.805,15.341-20.87c2.294-3.264,4.123-6.795,6.334-10.105
			c0.975-1.46,2.376-2.672,3.182-4.23c0.304-0.589,0.49-1.238,0.633-1.882"/>
	</g>
	<g id="POLYLINE_319_">
		
			<path fill="none" stroke="#FB8604" stroke-width="2.5" stroke-linecap="round" stroke-linejoin="round" stroke-miterlimit="10" d="
			M566.149,169.506c-1.171-0.804-2.026-2.435-0.232-3.013c1.804-0.582,7.405,3.035,6.11,4.695
			C571.045,172.445,566.951,170.064,566.149,169.506z"/>
	</g>
	<g id="POLYLINE_318_">
		
			<path fill="none" stroke="#FB8604" stroke-width="2.5" stroke-linecap="round" stroke-linejoin="round" stroke-miterlimit="10" d="
			M572.959,185.035c-5.279-2.549-10.309-5.556-15.502-8.27"/>
	</g>
	<g id="POLYLINE_317_">
		
			<path fill="none" stroke="#FB8604" stroke-width="2.5" stroke-linecap="round" stroke-linejoin="round" stroke-miterlimit="10" d="
			M501.736,142.78c-3.077-0.251-5.169-2.057-5.713-5.195c-0.466-2.687,0.951-4.786,2.999-6.401c2.59-2.043,5.764-3.413,8.795-4.644
			c1.897-0.771,4.354-1.928,6.479-1.74c0.934,0.083,1.5,0.324,1.773,1.246c0.433,1.46-0.63,3.52-1.166,4.79
			c-1.203,2.849-2.63,5.655-4.676,7.997"/>
	</g>
	<g id="POLYLINE_316_">
		
			<path fill="none" stroke="#FB8604" stroke-width="2.5" stroke-linecap="round" stroke-linejoin="round" stroke-miterlimit="10" d="
			M280.252,478.98c3.134-5.187,6.335-10.328,9.689-15.376c2.905-4.371,6.338-8.47,9.027-12.969c0.754-1.262,1.296-2.595,1.793-3.976
			"/>
	</g>
	<g id="POLYLINE_315_">
		
			<path fill="none" stroke="#FB8604" stroke-width="2.5" stroke-linecap="round" stroke-linejoin="round" stroke-miterlimit="10" d="
			M293.953,430.771c0.933,9.714,7.058,17.817,14.991,23.173c12.302,8.304,28.917,12.176,43.584,9.15
			c5.947-1.227,11.125-5.057,17.302-4.296"/>
	</g>
	<g id="POLYLINE_314_">
		
			<path fill="none" stroke="#FB8604" stroke-width="2.5" stroke-linecap="round" stroke-linejoin="round" stroke-miterlimit="10" d="
			M358.855,654.094c5.742-5.213,12.78-8.724,20.397-10.152"/>
	</g>
	<g id="POLYLINE_313_">
		
			<path fill="none" stroke="#FB8604" stroke-width="2.5" stroke-linecap="round" stroke-linejoin="round" stroke-miterlimit="10" d="
			M225.586,470.185c-5.967,0.973-10.477,6.683-8.712,12.898c1.192,4.197,3.213,7.182,2.147,11.701
			c-0.497,2.106-2.167,4.846-1.408,7.094c0.541,1.602,1.07,1.754,0.706,3.547c-0.534,2.629-2.115,5.72-0.993,8.441
			c1.188,2.881,4.581,2.835,2.362,6.023c-1.89,2.714-3.724,4.87-4.464,8.158c-0.586,2.607-0.597,5.383,0.17,7.954
			c0.923,3.093,3.53,6.082,2.985,9.478c-0.255,1.589-1.183,2.947-2.149,4.192c-0.642,0.828-3.567,3.152-3.485,4.345
			c0.128,1.867,6.088-2.951,7.734-1.534c1.04,0.896,0.332,3.451,0.019,4.449c-0.362,1.154-3.494,5.423-2.623,6.219
			c0.926,0.846,4.056-2.337,4.474-2.828c2.107-2.484,1.421-5.316,1.884-8.331c0.466-3.031,3.096-5.075,3.629-8.105
			c0.413-2.351,0.072-4.768,0.418-7.128c0.373-2.547,1.429-4.915,2.38-7.285c1.44-3.59,2.473-7.278,3.34-11.044"/>
	</g>
	<g id="POLYLINE_312_">
		
			<path fill="none" stroke="#FB8604" stroke-width="2.5" stroke-linecap="round" stroke-linejoin="round" stroke-miterlimit="10" d="
			M236.087,505.72c0.671-6.792,0.851-13.63,0.642-20.451c-0.136-4.423-0.034-9.337-1.883-13.462
			c-1.123-2.505-2.419-5.046-3.958-7.326"/>
	</g>
</g>
<g id="AG-OUTLINE">
	<g id="POLYLINE_11_">
		
			<path fill="none" stroke="#FB8604" stroke-width="3.25" stroke-linecap="round" stroke-linejoin="round" stroke-miterlimit="10" d="
			M232.835,420.76c1.132,11.62,3.302,23.337,6.806,34.483c1.714,5.454,4.4,10.494,6.242,15.889c0.824,2.412,2.236,5.954,1.615,8.44
			c-0.759,3.04-2.303,6.062-3.495,8.956c-2.388,5.797-4.722,11.78-7.916,17.192c0.586-5.931,0.783-11.889,0.7-17.848
			c-0.064-4.611,0.076-9.678-1.219-14.153c-0.56-1.933-1.596-3.732-2.519-5.507c-0.539-1.037-1.239-2.028-1.736-3.079
			c-0.478-1.01-0.375-1.834-0.343-2.994c0.181-6.436,0.177-12.874,0.431-19.308C231.694,435.463,232.166,428.104,232.835,420.76z"/>
	</g>
	<g id="POLYLINE_10_">
		
			<path fill="none" stroke="#FB8604" stroke-width="3.25" stroke-linecap="round" stroke-linejoin="round" stroke-miterlimit="10" d="
			M478.776,253.755c2.447-15.634,4.116-31.175,8.778-46.352c2.427-7.9,4.895-15.79,7.384-23.671c1.3-4.115,2.459-7.888,5.791-10.789
			c2.116-1.843,4.656-3.395,7.552-3.274c4.543,0.19,9.152,2.854,13.032,4.96c4.013,2.178,7.658,3.457,12.243,3.792
			c3.657,0.267,7.327,0.148,10.985-0.042c2.46-0.127,5.057-0.442,7.508,0.008c1.876,0.344,3.509,1.264,4.574,2.87
			c0.972,1.465,1.214,2.714,2.846,3.47c1.533,0.71,3.286,0.808,4.865,1.391c1.155,0.426,2.182,1.237,3.405,1.469
			c1.121,0.212,2.386-0.015,3.279-0.749c0.697-0.573,0.911-1.648,1.867-1.807c1.074-0.178,2.167,1.008,3.332,0.96
			c1.879-0.078,3.129-1.715,3.08-3.496c-0.1-3.685-2.69-7.971-4.768-10.879c-3.488-4.881-8.355-8.47-12.682-12.533
			c-2.611-2.452-4.162-5.691-7.182-7.751c-3.093-2.111-6.355-3.593-8.744-6.575c-4.169-5.205-4.235-15.36-11.646-17.72
			c-2.336-0.744-4.858,0.344-7.142-0.457c-2.544-0.893-4.877-3.941-6.113-6.207c-1.039-1.903-1.598-4.058-1.72-6.217
			c-0.141-2.509,1.245-5.778,0.288-8.11c-1.208-2.947-6.607-0.882-8.462,0.091c-3.69,1.937-2.094,3.77-0.267,6.656
			c2.677,4.228,2.118,7.554-2.062,10.129c-2.533,1.56-5.76,2.156-8.705,1.842c-1.985-0.212-3.814-1.761-5.803-1.519
			c-1.215,0.148-2.271,0.958-2.951,1.935c-1.422,2.046-2.124,4.67-3.31,6.866c-1.044,1.932-2.219,3.804-3.685,5.447
			c-4.089,4.585-9.374,7.76-13.322,12.565c-4.621,5.622-8.952,11.947-11.493,18.807c-1.162,3.138-1.821,6.41-2.774,9.61
			c-0.987,3.316-2.51,6.45-3.652,9.714c-2.474,7.069-4.452,14.441-7.743,21.195c-2.237,4.591-5.712,8.366-7.306,13.275
			c-1.027,3.164-1.802,6.397-3.021,9.498c-1.462,3.718-3.318,7.265-5.101,10.835c-3.356,6.717-6.048,13.803-10.028,20.19
			c-3.512,5.636-8.028,10.593-12.95,15.028c-2.361,2.127-4.83,4.201-7.536,5.878c-1.96,1.215-4.112,2.078-6.046,3.332
			c-1.991,1.292-3.806,2.857-5.922,3.953c-2.084,1.08-4.372,1.684-6.512,2.636c-11.864,5.278-19.189,17.684-28.444,26.198
			c-10.286,9.461-21.764,16.604-35.684,18.815c-8.208,1.304-16.536,1.653-24.817,2.212c-6.197,0.418-12.51,0.832-18.501,2.589
			c-11.875,3.482-21.085,13.856-29.026,22.818c-8.742,9.868-14.499,20.568-16.009,33.786c-0.79,6.916-0.826,13.909-0.912,20.862
			c-0.111,8.931-0.267,17.863-0.229,26.795c0.017,3.941,0.1,7.883,0.141,11.824c0.022,2.126,0.115,4.358-0.401,6.443
			c-0.262,1.059-0.828,3.272-1.634,3.86c-0.861,0.628-2.727,0.622-3.767,1.15c-2.761,1.403-4.173,4.191-4.791,7.127
			c-0.718,3.412,0.49,5.491,1.626,8.696c1.503,4.243,0.473,7.449-0.668,11.651c-0.356,1.312-0.54,2.196-0.028,3.406
			c0.643,1.519,0.841,1.893,0.4,3.669c-0.596,2.405-1.85,5.279-0.932,7.789c0.728,1.993,3.942,2.749,3.121,5.069
			c-0.918,2.592-3.525,4.455-4.53,7.142c-0.761,2.035-1.114,4.243-1.046,6.414c0.189,6.038,6.048,10.831,1.99,16.587
			c-0.498,0.707-4.801,4.741-4,5.541c0.968,0.968,5.507-2.192,6.635-2.209c2.494-0.038,1.362,3.94,0.836,5.33
			c-0.361,0.952-3.256,4.791-2.404,5.571c0.763,0.699,3.354-1.689,3.73-2.044c2.01-1.897,2.444-3.989,2.517-6.685
			c0.099-3.656,1.489-5.071,3.038-8.296c1.56-3.249,0.579-7.031,1.333-10.471c0.519-2.368,1.552-4.584,2.434-6.83
			c1.326-3.378,2.267-6.859,3.081-10.391c0.744,2.234,1.845,4.331,2.497,6.597c0.758,2.633,1.056,5.393,1.312,8.112
			c0.772,8.186,0.869,16.452,0.995,24.667c0.268,17.474,0.441,34.982-0.803,52.425c-0.476,6.678-1.881,13.694-0.884,20.383
			c0.3,2.014,0.766,4.954,2.545,6.272c1.054,0.781,2.505,0.618,3.515,1.489c1.367,1.18,2.271,4.019,2.288,5.758
			c0.027,2.745-3.476,3.35-3.949,6.19c-0.909,5.45,2.998,6.904,7.639,7.247c4.065,0.301,8.187,0.221,12.259,0.21
			c2.817-0.007,6,0.207,8.748-0.592c0.782-0.227,1.622-0.501,1.818-1.38c0.073-0.327-0.073-0.67-0.154-0.977
			c-0.645-2.466-2.887-5.011-4.31-7.064c-1.134-1.637-2.358-3.205-3.827-4.555c-1.46-1.341-3.188-2.434-4.447-3.985
			c-3.05-3.757-4.309-9.465-5.259-14.065c-1.622-7.853-2.1-16.01-2.514-24.002c-0.898-17.307-0.405-34.596,0.518-51.895
			c0.21-3.937,0.556-7.832,1.052-11.742c4.228,5.676,6.027,13.374,8.399,19.898c3.097,8.518,6.142,17.061,9.046,25.648
			c2.979,8.811,5.847,17.694,7.642,26.833c1.301,6.622,0.871,13.928,3.09,20.314c0.452,1.301,1.062,2.585,1.911,3.677
			c1.071,1.376,2.64,2.2,3.761,3.529c1.766,2.094,3.855,5.928,3.061,8.79c-0.538,1.942-2.71,2.736-3.443,4.55
			c-0.667,1.651-0.008,3.516,1.279,4.66c3.188,2.835,9.298,2.388,13.118,2.369c4.026-0.02,8.206,0.189,12.216-0.275
			c1.017-0.118,2.312-0.254,3.163-0.914c0.544-0.422,0.845-0.867,0.891-1.565c0.05-0.76-0.41-1.583-0.749-2.216
			c-1.643-3.067-4.131-5.812-6.266-8.529c-3.35-4.264-8.193-7.588-10.011-12.859c-2.75-7.976-6.743-15.429-9.377-23.466
			c-3.095-9.44-5.666-19.065-8.444-28.6c-2.513-8.624-5.222-17.229-7.278-25.978c-1.827-7.778-1.832-15.218-1.314-23.165
			c0.637-9.781,1.501-19.55,2.539-29.296c0.904-8.482,1.578-18.001,6.062-25.392c4.819-7.944,10.13-15.492,15.447-23.101
			c1.28-1.832,2.226-3.673,2.981-5.776c5.545,6.747,13.773,11.324,21.941,14.081c9.014,3.042,19.234,4.207,28.65,2.576
			c4.541-0.786,8.573-2.768,12.916-4.189c0.877-0.287,1.761-0.529,2.687-0.574c0.512-0.025,1.016,0.025,1.525,0.073
			c1.78,0.17,1.338,0.731,1.252,2.393c-0.612,11.846-1.224,23.722-1.967,35.561c-0.758,12.079-2.595,24.076-3.18,36.166
			c-0.281,5.807,0.071,11.549,0.173,17.351c0.097,5.551-0.417,11.117-0.908,16.641c-1.096,12.353-2.591,24.669-4.194,36.965
			c-0.739,5.671-1.749,11.319-2.355,17.004c-0.266,2.492-0.399,5.089,0.17,7.553c0.477,2.062,1.678,3.266,2.73,5.038
			c0.77,1.298,0.805,2.743,0.842,4.23c0.065,2.556,0.398,5.959-0.682,8.39c-0.546,1.229-1.768,1.97-2.35,3.165
			c-1.056,2.169,0.431,5.102,2.094,6.54c1.553,1.343,3.74,1.65,5.708,1.845c5.771,0.572,11.689,0.27,17.475,0.28
			c2.608,0.004,5.258,0.128,7.865-0.007c0.394-0.021,1.077,0.051,1.451-0.175c0.341-0.206,0.477-0.353,0.628-0.726
			c0.873-2.155-2.542-4.695-3.839-5.691c-4.564-3.504-10.249-5.836-13.101-11.093c-2.405-4.433-2.157-8.875-1.884-13.777
			c0.181-3.25-0.645-6.378-0.904-9.605c-0.424-5.289-0.001-10.675,0.328-15.957c0.749-12.052,1.611-24.168,3.235-36.139
			c0.531-3.917,1.157-7.795,2.653-11.471c1.982-4.871,4.055-9.447,4.849-14.686c0.89-5.873,1.11-11.835,1.605-17.748
			c0.406-4.843,1.31-9.572,2.294-14.325c1.172-5.658,2.12-11.365,4.12-16.803c-0.895,14.624-1.277,29.288-0.371,43.923
			c0.995,16.066,1.507,31.891,1.047,47.987c-0.207,7.248-0.484,14.503-0.935,21.74c-0.404,6.481-1.809,13.146-1.617,19.63
			c0.087,2.948,0.898,5.862,2.173,8.514c1.107,2.301,3.252,3.948,3.94,6.424c0.615,2.215,0.883,5.399-0.098,7.554
			c-0.705,1.549-2.072,2.422-2.567,4.131c-0.917,3.17-1.052,7.102,2.695,7.973c2.041,0.474,4.273,0.37,6.344,0.37
			c4.29,0.001,8.58-0.095,12.87-0.117c2.539-0.013,5.125,0.245,7.655,0.007c0.613-0.058,1.411-0.099,1.953-0.456
			c1.336-0.879,0.93-2.447,0.142-3.611c-1.13-1.668-3.061-2.886-4.595-4.111c-2.242-1.79-4.297-3.738-6.213-5.874
			c-2.518-2.808-5.997-6.152-6.808-10.013c-0.709-3.373,0.35-6.857-0.304-10.221c-0.532-2.74-2.552-4.892-3.129-7.625
			c-0.397-1.878-0.234-3.841-0.108-5.738c0.247-3.729,0.442-7.45,0.517-11.188c0.171-8.524,0.055-17.058,0.06-25.583
			c0.004-5.649-0.224-11.474,0.791-17.052c0.74-4.066,3.003-7.38,4.387-11.216c1.619-4.49,1.418-9.274,1.28-13.967
			c-0.205-6.968,0.454-14.034,1.177-20.958c1.536-14.716,6.044-28.196,10.771-42.134c2.106-6.21,3.238-12.288,3.881-18.797
			c0.382-3.87,0.695-7.781,2.459-11.307c1.377-2.751,2.984-5.336,4.186-8.18c1.493-3.532,2.766-7.157,4.091-10.753
			c1.218-3.306,2.468-6.585,3.876-9.816c0.786-1.804,1.66-3.64,1.969-5.602c0.426-2.699-0.292-5.405-1.346-7.878
			c-2.554-5.996-6.283-11.295-8.407-17.513c-1.221-3.575-2.117-7.114-1.465-10.889c0.826-4.787,3.325-8.33,5.853-12.415
			c8.04-12.991,15.813-26.236,22.462-40.003c6.195-12.826,10.202-26.483,13.509-40.304
			C476.354,267.627,477.745,260.724,478.776,253.755z"/>
	</g>
</g>
</svg>
