<?xml version="1.0" encoding="utf-8"?>
<!-- Generator: Adobe Illustrator 23.0.1, SVG Export Plug-In . SVG Version: 6.00 Build 0)  -->
<!DOCTYPE svg PUBLIC "-//W3C//DTD SVG 1.1//EN" "http://www.w3.org/Graphics/SVG/1.1/DTD/svg11.dtd" [
	<!ENTITY ns_flows "http://ns.adobe.com/Flows/1.0/">
	<!ENTITY ns_extend "http://ns.adobe.com/Extensibility/1.0/">
	<!ENTITY ns_ai "http://ns.adobe.com/AdobeIllustrator/10.0/">
	<!ENTITY ns_graphs "http://ns.adobe.com/Graphs/1.0/">
	<!ENTITY ns_vars "http://ns.adobe.com/Variables/1.0/">
	<!ENTITY ns_imrep "http://ns.adobe.com/ImageReplacement/1.0/">
	<!ENTITY ns_sfw "http://ns.adobe.com/SaveForWeb/1.0/">
	<!ENTITY ns_custom "http://ns.adobe.com/GenericCustomNamespace/1.0/">
	<!ENTITY ns_adobe_xpath "http://ns.adobe.com/XPath/1.0/">
]>
<svg version="1.1" xmlns:x="&ns_extend;" xmlns:i="&ns_ai;" xmlns:graph="&ns_graphs;"
	 xmlns="http://www.w3.org/2000/svg" xmlns:xlink="http://www.w3.org/1999/xlink" xmlns:a="http://ns.adobe.com/AdobeSVGViewerExtensions/3.0/"
	 x="0px" y="0px" viewBox="0 0 750 750" enable-background="new 0 0 750 750" xml:space="preserve">
<metadata>
	<sfw  xmlns="&ns_sfw;">
		<slices></slices>
		<sliceSourceBounds  bottomLeftOrigin="true" height="6238.565" width="6594" x="-2000" y="-3208.206"></sliceSourceBounds>
	</sfw>
</metadata>
<g id="FILL-BACKGROUND">
	<rect fill="#FFFFFF" width="750" height="750"/>
</g>
<g id="N-DIMENSIONS">
</g>
<g id="N-TEXT">
</g>
<g id="AG-DIAGRAM">
</g>
<g id="AG-GUIDES">
</g>
<g id="AG-PEOPLE">
</g>
<g id="AG-DETAILS">
	<g id="POLYLINE_2893_">
		
			<path fill="none" stroke="#FB8604" stroke-width="1.5" stroke-linecap="round" stroke-linejoin="round" stroke-miterlimit="10" d="
			M523.607,204.594c1.979-1.743,3.75-3.719,5.254-5.885"/>
	</g>
	<g id="POLYLINE_2892_">
		
			<path fill="none" stroke="#FB8604" stroke-width="1.5" stroke-linecap="round" stroke-linejoin="round" stroke-miterlimit="10" d="
			M519.912,199.517c1.444-1.546,3.005-2.991,4.69-4.271"/>
	</g>
	<g id="POLYLINE_2891_">
		
			<path fill="none" stroke="#FB8604" stroke-width="1.5" stroke-linecap="round" stroke-linejoin="round" stroke-miterlimit="10" d="
			M514.897,195.455c1.565-1.416,2.886-3.099,3.948-4.921"/>
	</g>
	<g id="POLYLINE_2890_">
		
			<path fill="none" stroke="#FB8604" stroke-width="1.5" stroke-linecap="round" stroke-linejoin="round" stroke-miterlimit="10" d="
			M510.184,191.508c1.492-1.194,2.83-2.643,3.779-4.309"/>
	</g>
	<g id="POLYLINE_2889_">
		
			<path fill="none" stroke="#FB8604" stroke-width="1.5" stroke-linecap="round" stroke-linejoin="round" stroke-miterlimit="10" d="
			M527.516,209.232c2.427-1.828,4.553-4.046,6.252-6.566"/>
	</g>
	<g id="POLYLINE_2888_">
		
			<path fill="none" stroke="#FB8604" stroke-width="1.5" stroke-linecap="round" stroke-linejoin="round" stroke-miterlimit="10" d="
			M532.418,215.131c2.475-2.208,5.033-4.313,7.661-6.335"/>
	</g>
	<g id="POLYLINE_2887_">
		
			<path fill="none" stroke="#FB8604" stroke-width="1.5" stroke-linecap="round" stroke-linejoin="round" stroke-miterlimit="10" d="
			M537.879,220.176c2.388-2.559,4.543-5.361,6.342-8.365"/>
	</g>
	<g id="POLYLINE_2886_">
		
			<path fill="none" stroke="#FB8604" stroke-width="1.5" stroke-linecap="round" stroke-linejoin="round" stroke-miterlimit="10" d="
			M543.363,223.181c2.734-1.288,5.089-3.568,6.038-6.475"/>
	</g>
	<g id="POLYLINE_2885_">
		
			<path fill="none" stroke="#FB8604" stroke-width="1.5" stroke-linecap="round" stroke-linejoin="round" stroke-miterlimit="10" d="
			M553.469,230.817c2.741-0.788,5.335-2.334,7.131-4.572"/>
	</g>
	<g id="POLYLINE_2884_">
		
			<path fill="none" stroke="#FB8604" stroke-width="1.5" stroke-linecap="round" stroke-linejoin="round" stroke-miterlimit="10" d="
			M547.45,227.057c3.117-0.644,6.325-2.664,7.409-5.776"/>
	</g>
	<g id="POLYLINE_2883_">
		
			<path fill="none" stroke="#FB8604" stroke-width="1.5" stroke-linecap="round" stroke-linejoin="round" stroke-miterlimit="10" d="
			M558.104,235.923c3.031-0.685,5.903-2.121,8.172-4.255"/>
	</g>
	<g id="POLYLINE_2882_">
		
			<path fill="none" stroke="#FB8604" stroke-width="1.5" stroke-linecap="round" stroke-linejoin="round" stroke-miterlimit="10" d="
			M561.744,240.259c2.729-0.623,5.293-1.852,7.505-3.565"/>
	</g>
	<g id="POLYLINE_2881_">
		
			<path fill="none" stroke="#FB8604" stroke-width="1.5" stroke-linecap="round" stroke-linejoin="round" stroke-miterlimit="10" d="
			M565.329,244.775c2.524-1.107,5.262-1.938,8.006-2.229"/>
	</g>
	<g id="POLYLINE_2880_">
		
			<path fill="none" stroke="#FB8604" stroke-width="1.5" stroke-linecap="round" stroke-linejoin="round" stroke-miterlimit="10" d="
			M575.385,263.981c2.032,0.284,4.305,0.121,6.173-0.789"/>
	</g>
	<g id="POLYLINE_2879_">
		
			<path fill="none" stroke="#FB8604" stroke-width="1.5" stroke-linecap="round" stroke-linejoin="round" stroke-miterlimit="10" d="
			M573.505,258.805c2.21,0.25,4.568,0.192,6.726-0.395"/>
	</g>
	<g id="POLYLINE_2492_">
		
			<path fill="none" stroke="#FB8604" stroke-width="1.5" stroke-linecap="round" stroke-linejoin="round" stroke-miterlimit="10" d="
			M571.093,254.209c2.305-1.046,4.961-1.538,7.473-1.099"/>
	</g>
	<g id="POLYLINE_2264_">
		
			<path fill="none" stroke="#FB8604" stroke-width="1.5" stroke-linecap="round" stroke-linejoin="round" stroke-miterlimit="10" d="
			M568.302,249.892c2.539-0.962,5.192-1.696,7.882-2.082"/>
	</g>
	<g id="POLYLINE_2262_">
		
			<path fill="none" stroke="#FB8604" stroke-width="1.5" stroke-linecap="round" stroke-linejoin="round" stroke-miterlimit="10" d="
			M556.422,270.233c5.951-5.837,11.877-4.228,19.482-2.63"/>
	</g>
	<g id="POLYLINE_2261_">
		
			<path fill="none" stroke="#FB8604" stroke-width="1.5" stroke-linecap="round" stroke-linejoin="round" stroke-miterlimit="10" d="
			M555.461,266.419c5.157-5.071,12.974-6.988,19.603-3.753"/>
	</g>
	<g id="POLYLINE_2260_">
		
			<path fill="none" stroke="#FB8604" stroke-width="1.5" stroke-linecap="round" stroke-linejoin="round" stroke-miterlimit="10" d="
			M553.414,262.528c5.148-4.714,11.822-6.839,18.735-5.885"/>
	</g>
	<g id="POLYLINE_2259_">
		
			<path fill="none" stroke="#FB8604" stroke-width="1.5" stroke-linecap="round" stroke-linejoin="round" stroke-miterlimit="10" d="
			M552.653,258.35c4.771-3.831,10.001-7.254,16.276-7.435"/>
	</g>
	<g id="POLYLINE_2258_">
		
			<path fill="none" stroke="#FB8604" stroke-width="1.5" stroke-linecap="round" stroke-linejoin="round" stroke-miterlimit="10" d="
			M551.122,254.801c3.672-4.297,8.739-8.903,14.645-9.342"/>
	</g>
	<g id="POLYLINE_2257_">
		
			<path fill="none" stroke="#FB8604" stroke-width="1.5" stroke-linecap="round" stroke-linejoin="round" stroke-miterlimit="10" d="
			M538.193,239.009c3.187-4.137,6.869-9.474,12.341-10.603"/>
	</g>
	<g id="POLYLINE_2256_">
		
			<path fill="none" stroke="#FB8604" stroke-width="1.5" stroke-linecap="round" stroke-linejoin="round" stroke-miterlimit="10" d="
			M548.482,250.935c2.912-5.478,7.915-8.706,13.918-9.716"/>
	</g>
	<g id="POLYLINE_2255_">
		
			<path fill="none" stroke="#FB8604" stroke-width="1.5" stroke-linecap="round" stroke-linejoin="round" stroke-miterlimit="10" d="
			M545.163,245.156c3.067-7.357,8.706-7.056,15.569-6.568"/>
	</g>
	<g id="POLYLINE_2254_">
		
			<path fill="none" stroke="#FB8604" stroke-width="1.5" stroke-linecap="round" stroke-linejoin="round" stroke-miterlimit="10" d="
			M541.755,241.924c4.048-4.405,7.136-9.341,13.597-9.201"/>
	</g>
	<g id="POLYLINE_2253_">
		
			<path fill="none" stroke="#FB8604" stroke-width="1.5" stroke-linecap="round" stroke-linejoin="round" stroke-miterlimit="10" d="
			M534.387,235.154c2.24-4.422,5.769-8.198,10.166-10.504"/>
	</g>
	<g id="POLYLINE_2252_">
		
			<path fill="none" stroke="#FB8604" stroke-width="1.5" stroke-linecap="round" stroke-linejoin="round" stroke-miterlimit="10" d="
			M528.556,230.24c1.88-4.164,4.449-8.007,7.617-11.3"/>
	</g>
	<g id="POLYLINE_2251_">
		
			<path fill="none" stroke="#FB8604" stroke-width="1.5" stroke-linecap="round" stroke-linejoin="round" stroke-miterlimit="10" d="
			M521.233,224.403c1.689-4.086,4.566-7.73,8.321-10.086"/>
	</g>
	<g id="POLYLINE_2250_">
		
			<path fill="none" stroke="#FB8604" stroke-width="1.5" stroke-linecap="round" stroke-linejoin="round" stroke-miterlimit="10" d="
			M512.392,218.451c1.346-3.591,4.097-6.578,7.778-7.753"/>
	</g>
	<g id="POLYLINE_2249_">
		
			<path fill="none" stroke="#FB8604" stroke-width="1.5" stroke-linecap="round" stroke-linejoin="round" stroke-miterlimit="10" d="
			M504.78,214.396c1.065-3.554,3.252-6.783,6.351-8.853"/>
	</g>
	<g id="POLYLINE_2248_">
		
			<path fill="none" stroke="#FB8604" stroke-width="1.5" stroke-linecap="round" stroke-linejoin="round" stroke-miterlimit="10" d="
			M498.937,210.381c1.187-2.94,2.444-5.852,3.763-8.735"/>
	</g>
	<g id="POLYLINE_2247_">
		
			<path fill="none" stroke="#FB8604" stroke-width="1.5" stroke-linecap="round" stroke-linejoin="round" stroke-miterlimit="10" d="
			M492.068,205.528c1.283-2.285,2.449-4.64,3.461-7.057"/>
	</g>
	<g id="POLYLINE_2246_">
		
			<path fill="none" stroke="#FB8604" stroke-width="1.5" stroke-linecap="round" stroke-linejoin="round" stroke-miterlimit="10" d="
			M486.19,201.472c0.379-2.296,1.578-4.363,3.456-5.748"/>
	</g>
	<g id="POLYLINE_2245_">
		
			<path fill="none" stroke="#FB8604" stroke-width="1.5" stroke-linecap="round" stroke-linejoin="round" stroke-miterlimit="10" d="
			M570.772,273.507c1.242,6.731,4.17,10.956,8.513,16.069c6.243,7.351,10.379,16.88,17.549,23.365
			c2.402,2.172,5.254,3.404,8.197,4.698"/>
	</g>
	<g id="POLYLINE_2244_">
		
			<path fill="none" stroke="#FB8604" stroke-width="1.5" stroke-linecap="round" stroke-linejoin="round" stroke-miterlimit="10" d="
			M197.255,465.716c9.349-8.201,11.716-20.004,9.731-32.065c-1.462-8.881-5.698-17.03-8.827-25.38
			c-4.36-11.635-6.601-23.96-7.911-36.284c-0.428-4.025-3.925-17.541,1.759-20.421c3.983-2.018,10.013,2.198,13.549-1.043
			c4.001-3.668,0.05-12.49-2.442-15.829c-0.47-0.631-0.983-1.23-1.533-1.792"/>
	</g>
	<g id="POLYLINE_2173_">
		
			<path fill="none" stroke="#FB8604" stroke-width="1.5" stroke-linecap="round" stroke-linejoin="round" stroke-miterlimit="10" d="
			M437.254,497.549c-5.823-14.272-9.293-35.706-2.976-50.462c4.958-11.582,20.37-9.753,30.618-10.413
			c9.725-0.627,18.432-3.035,27.46-6.707"/>
	</g>
	<g id="POLYLINE_2172_">
		
			<path fill="none" stroke="#FB8604" stroke-width="1.5" stroke-linecap="round" stroke-linejoin="round" stroke-miterlimit="10" d="
			M189.149,543.154c-3.275-11.811-1.716-22.781,4.114-33.582c10.396-19.259,28.911-32.889,41.842-50.372
			c6.964-9.416,13.368-19.304,19.037-29.553c5.522-9.985,9.37-20.765,14.826-30.756c2.422-4.435,5.726-9.723,11.282-10.193
			c9.146-0.775,14.996,10.647,20.225,16.028c9.115,9.38,21.332,11.111,33.853,11.747c16.363,0.831,37.339-2.323,52.026,6.828
			c11.901,7.415,25.871,15.753,30.086,29.98c5.902,19.925,0.064,41.871,2.595,62.304c2.708,21.866,9.155,42.093,7.784,64.391
			c-0.327,5.319-0.928,10.62-1.833,15.872"/>
	</g>
</g>
<g id="AG-ANIMALS">
	<g id="POLYLINE_1408_">
		
			<path fill="none" stroke="#FB8604" stroke-width="2.5" stroke-linecap="round" stroke-linejoin="round" stroke-miterlimit="10" d="
			M281.586,402.766c-6.24,2.357-9.889,5.252-12.48,11.478c-4.189,10.063-6.464,20.308-12.355,29.629
			c-7.635,12.081-18.628,21.633-28.187,32.119c-11.098,12.173-22.051,25.087-30.771,39.099c-9.931,15.958-9.31,29.18-5.89,47.354
			c3.246,17.251,5.418,34.98,9.145,52.111c1.82,8.363,6.807,15.524,9.618,23.459c2.744,7.747-9.188,5.917-13.887,5.427
			c-7.503-0.783-5.403-6.424-7.451-12.313c-1.237-3.557-3.185-5.321-2.988-9.186c0.603-11.859-2.046-23.082-3.881-34.835
			c-2.835-18.154-6.868-35.966-10.718-53.925c-1.507-7.029-2.99-14.169-3.9-21.303c-0.288-2.256-0.607-4.691-0.01-6.929
			c1.688-6.324,8.837-11.314,12.697-16.312c6.515-8.436,15.16-17.42,18.926-27.646c3.102-8.424,3.62-18.499,2.212-27.313
			c-1.823-11.41-7.808-21.921-11.324-32.866c-2.527-7.866-4.586-15.858-6.311-23.936"/>
	</g>
	<g id="POLYLINE_1407_">
		
			<path fill="none" stroke="#FB8604" stroke-width="2.5" stroke-linecap="round" stroke-linejoin="round" stroke-miterlimit="10" d="
			M397.535,436.138c9.514,19.487,12.835,42.491,15.962,63.725c1.853,12.586,3.315,25.24,5.455,37.783
			c1.964,11.51,4.084,22.74,4.944,34.408c0.885,12.004,1.289,24.058,1.101,36.094c-0.091,5.859-0.317,11.721-0.787,17.562
			c-0.254,3.152-1.015,6.682-0.578,9.886c0.534,3.916,3.906,5.677,7.436,7.069c3.503,1.381,8.323,0.81,11.965,0.599
			c1.308-0.076,2.712-0.065,3.782-0.946c1.569-1.291,1.535-2.847,0.902-4.592c-1.408-3.885-5.549-6.35-7.497-9.986
			c-2.033-3.796-2.596-8.334-3.001-12.549c-1.123-11.703-0.731-23.638-0.571-35.375c0.15-11.022,2.147-21.672,2.763-32.617
			c0.664-11.79-0.997-23.778-1.592-35.553c-0.596-11.782-0.872-23.555-0.517-35.348c0.336-11.17-2.295-25.007,7.835-32.59
			c1.433-1.073,2.984-1.991,4.61-2.739"/>
	</g>
	<g id="POLYLINE_1406_">
		
			<path fill="none" stroke="#FB8604" stroke-width="2.5" stroke-linecap="round" stroke-linejoin="round" stroke-miterlimit="10" d="
			M407.475,467.736c-2.771,18.134-4.85,36.367-5.824,54.691c-1.003,18.858-1.101,37.531-3.569,56.289
			c-1.182,8.984-2.522,17.957-4.038,26.891c-1.083,6.384-3.551,13.316-3.579,19.796c-0.02,4.511,3.211,7.003,4.792,10.945
			c1.015,2.531,0.592,4.431,3.084,5.861c3.255,1.867,13.208,2.452,16.325,0.551c5.415-3.302-5.074-12.102-6.36-15.568
			c-1.417-3.819-1.055-8.52-0.974-12.487c0.188-9.247,0.947-18.51,1.647-27.729c0.582-7.67,1.193-15.459,2.842-22.988
			c1.331-6.081,3.864-11.801,5.171-17.888c0.729-3.396,1.22-6.844,1.65-10.289"/>
	</g>
	<g id="POLYLINE_1405_">
		
			<path fill="none" stroke="#FB8604" stroke-width="2.5" stroke-linecap="round" stroke-linejoin="round" stroke-miterlimit="10" d="
			M245.162,458.503c-4.015,12.707-8.226,25.367-12.649,37.939c-2.124,6.036-4.186,12.117-6.709,18.001
			c-1.046,2.44-2.828,4.852-3.615,7.36c-0.69,2.197-0.207,4.067,0.535,6.237c3.097,9.057,8.53,17.815,13.6,25.87
			c7.124,11.321,14.907,22.216,21.9,33.623c6.687,10.907,12.593,22.279,19.334,33.151c2.625,4.235,6.663,8.744,7.542,13.86
			c0.302,1.759-0.185,3.82,0.799,5.424c3.037,4.953,14.473,4.029,18.797,3.109c2.197-0.468,4.421-1.463,4.47-3.962
			c0.043-2.15-2.167-4.444-3.412-5.87c-4.816-5.519-8.91-10.187-12.678-16.606c-7.47-12.727-15.109-25.29-22.925-37.808
			c-5.048-8.084-10.263-16.31-13.69-25.244c-3.916-10.208-4.934-21.735-1.682-32.268c3.232-10.467,9.523-20.179,14.645-29.766
			c5.925-11.09,11.029-22.643,17.16-33.612c2.274-4.068,4.903-7.892,7.585-11.698"/>
	</g>
	<g id="POLYLINE_1404_">
		
			<path fill="none" stroke="#FB8604" stroke-width="2.5" stroke-linecap="round" stroke-linejoin="round" stroke-miterlimit="10" d="
			M532.333,296.645c-5.797-7.314-7.113-16.39-7.097-25.547c0.011-6.301,0.566-16.376,5.289-21.285
			c2.604-2.707,2.573-0.64,3.714,2.278c2.451,6.267,8.197,9.82,9.805,16.712c1.964,8.416,1.333,19.892-2.961,27.501"/>
	</g>
	<g id="POLYLINE_1403_">
		
			<path fill="none" stroke="#FB8604" stroke-width="2.5" stroke-linecap="round" stroke-linejoin="round" stroke-miterlimit="10" d="
			M437.75,462.192c11.256,2.118,20.179-0.581,28.865-8.018c5.333-4.567,8.775-10.12,13.312-15.366
			c3.992-4.617,9.667-7.377,14.967-10.185c15.796-8.37,30.226-17.404,39.474-33.171c4.746-8.091,8.068-16.918,10.852-25.848
			c2.783-8.929,4.176-19.181,8.766-27.43c1.482-2.664,2.855-3.986,5.906-3.947c8.622,0.113,17.491,4.786,25.959,6.45
			c8.039,1.58,17.007,2.826,25.193,2.827c2.045,0,3.771-0.192,5.549-1.196c2.467-1.393,6.208-3.603,8.214-5.682
			c3.34-3.464,1.661-8.839,0.075-12.711c-4.511-11.009-13.703-14.795-22.703-21.388c-10.06-7.369-14.45-18.27-17.34-29.811
			c-0.609-2.433-1.597-4.686-2.607-6.978"/>
	</g>
	<g id="POLYLINE_1402_">
		
			<path fill="none" stroke="#FB8604" stroke-width="2.5" stroke-linecap="round" stroke-linejoin="round" stroke-miterlimit="10" d="
			M577.139,272.289c2.904,2.95-1.913,2.325-3.425,1.996c-2.601-0.566-4.542-1.346-7.135-0.917c-1.912,0.316-4.065,1.779-6.092,1.315
			c-3.708-0.848-3.981-5.355-5.02-8.24c-0.502-1.393-1.492-2.491-2.032-3.863c-0.772-1.962-0.469-4.18-1.295-6.126
			c-3.305-7.786-8.725-12.12-14.378-17.861c-2.487-2.526-5.394-4.033-7.776-6.493c-0.975-1.007-0.88-1.528-2.186-2.124
			c-1.288-0.588-2.61,0.023-3.683-1.035c-1.735-1.71-1.534-3.46-3.814-4.942c-19.919-12.951-41.486-27.801-62.092-41.122
			c-0.29-0.187-8.129-4.405-7.351-5.54c0.672-0.98,6.981,1.714,7.814,2.04c7.937,3.101,15.158,8.039,22.649,12.051
			c10.483,5.614,21.444,10.189,32.204,15.233c2.488,1.166,4.463,2.939,6.824,4.141c1.98,1.008,4.348,0.936,6.399,1.895
			c3.819,1.785,6.361,3.792,9.538,6.339c2.228,1.787,5.178,2.461,7.277,4.333c1.113,0.992,1.654,2.234,2.898,3.13
			c1.866,1.344,4.293,1.649,6.052,3.179c2.378,2.069,4.306,4.637,6.343,7.008c4.654,5.417,8.571,11.443,12.213,17.495
			c3.253,5.404,4.068,10.241,5.589,15.954C576.946,271.201,576.11,271.203,577.139,272.289z"/>
	</g>
	<g id="POLYLINE_1401_">
		
			<path fill="none" stroke="#FB8604" stroke-width="2.5" stroke-linecap="round" stroke-linejoin="round" stroke-miterlimit="10" d="
			M533.492,216.455c-5.144-6.326-9.97-13.559-16.222-18.408c-1.715-1.33-2.941-3.25-4.63-4.66
			c-5.012-4.183-10.734-7.853-16.31-11.233c-3.448-2.09-7.018-3.595-10.859-4.805c-1.64-0.517-8.72-1.504-9.914-3.455
			c-1.222-1.998,3.36-0.911,4.775-0.758c7.222,0.783,14.098,2.674,20.547,6.021c11.495,5.966,21.148,14.132,31.183,22.138
			c3.544,2.827,6.35,6.466,9.875,9.118c4.092,3.077,7.771,6.44,11.593,9.851c2.211,1.973,4.382,2.958,6.381,5.177
			c1.716,1.905,3.885,3.325,5.575,5.249c1.831,2.085,2.742,4.74,4.384,6.945c2.408,3.234,4.358,6.21,6.189,9.778
			c0.53,1.032,1.697,3.224,2.094,4.244c0.494,1.27-0.005,2.425,0.357,3.687c0.85,2.966,2.635,5.7,3.255,8.958
			c0.332,1.742,1.543,4.719-0.062,5.553c-1.245,0.647-4.297-0.853-5.441-1.205"/>
	</g>
	<g id="POLYLINE_318_">
		
			<path fill="none" stroke="#FB8604" stroke-width="2.5" stroke-linecap="round" stroke-linejoin="round" stroke-miterlimit="10" d="
			M544.123,269.158c3.876-0.776,7.874-0.925,11.793-0.397"/>
	</g>
	<g id="POLYLINE_317_">
		
			<path fill="none" stroke="#FB8604" stroke-width="2.5" stroke-linecap="round" stroke-linejoin="round" stroke-miterlimit="10" d="
			M626.719,334.833c-2.081,0.14-11.652-2.862-8.703-5.457c0.921-0.81,6.235,0.022,7.435,0.019"/>
	</g>
	<g id="POLYLINE_316_">
		
			<path fill="none" stroke="#FB8604" stroke-width="2.5" stroke-linecap="round" stroke-linejoin="round" stroke-miterlimit="10" d="
			M200.485,428.36c-1.542,3.916-2.932,8.163-5.338,11.672c-1.088,1.587-2.653,2.841-3.379,4.66c-0.818,2.048-0.637,4.42-0.531,6.568
			c0.061,1.236,1.895,9.128,0.627,10.131c-1.732,1.371-4.509-6.512-5.043-7.809c-2.393-5.815-4.192-12.137-2.498-18.368
			c1.508-5.549,3.16-8.645,1.372-14.234c-2.347-7.335-5.376-13.644-5.893-21.433c-0.305-4.581,0.277-9.071,0.644-13.634
			c0.375-4.66-0.113-9.294,0.066-13.957c0.161-4.2,1.073-8.265,1.977-12.358c1.042-4.717,1.187-9.102,1.845-13.811
			c0.416-2.972,1.812-4.848,4.248-6.634c3.734-2.737,8.363-3.93,12.462-5.98c5.229-2.615,9.87-6.254,14.983-9.081
			c10.207-5.644,21.988-9.032,33.49-10.722c13.202-1.94,26.422,0.486,39.54,2.064c15.653,1.883,31.344,3.899,46.767,7.223
			c15.281,3.293,30.36,7.424,46.085,7.774c14.74,0.327,29.52-2.578,44.223-1.619c7.958,0.519,15.443,4.637,22.895,7.241
			c6.472,2.261,11.464,7.122,18.171,9.123c6.555,1.955,13.994,2.609,20.501,0.115c5.469-2.096,9.132-6.322,11.856-11.346
			c6.721-12.392,9.115-26.723,15.275-39.411c2.928-6.032,6.639-11.584,10.716-16.892"/>
	</g>
	<g id="POLYLINE_315_">
		
			<path fill="none" stroke="#FB8604" stroke-width="2.5" stroke-linecap="round" stroke-linejoin="round" stroke-miterlimit="10" d="
			M266.458,421.851c11.637,14.875,26.417,25.526,44.254,31.906c20.742,7.419,41.538,6.406,63.165,5.445
			c10.503-0.467,21.4-0.962,31.843,0.564"/>
	</g>
</g>
<g id="AG-OUTLINE">
	<g id="POLYLINE_15_">
		
			<path fill="none" stroke="#FB8604" stroke-width="3.25" stroke-linecap="round" stroke-linejoin="round" stroke-miterlimit="10" d="
			M533.492,216.455c-4.604-5.653-9.464-13.486-15.26-17.827c-2.303-1.725-4.048-4.017-6.335-5.83
			c-7.269-5.765-15.54-11.766-24.405-14.799c-0.583-0.199-12.853-2.939-12.53-4.712c0.295-1.619,10.469,0.591,11.17,0.726
			c15.403,2.968,28.458,12.985,40.263,22.761c6.666,5.52,14.201,11.124,20.052,17.388c2.767,2.962,6.632,5.735,10.036,8.023
			c6.341,4.263,9.686,11.009,14.424,16.689c2.078,2.491,3.618,5.526,5.101,8.417c1.235,2.407,1.787,4.78,2.424,7.213
			c0.627,2.397,1.786,4.594,2.477,7.145c0.639,2.359,1.231,4.542,1.819,6.854c0.082,0.321-0.221,0.762-0.169,0.963
			c0.353,1.347,1.291,3.861,1.846,5.673c2.003,6.533,2.706,12.217,6.362,18.172c3.204,5.219,7.152,10.323,12.254,13.808
			c5.472,3.738,11.07,6.281,15.699,11.193c4.276,4.538,10.713,14.312,7.168,20.817c-1.16,2.128-3.187,2.81-5.15,4.085
			c-2.548,1.655-4.261,3.688-7.304,4.188c-2.416,0.397-5.093-0.031-7.488-0.301c-5.593-0.63-11.258-1.027-16.823-1.855
			c-9.675-1.439-19.361-6.721-29.068-7.007c-4.336-0.128-5.806,2.95-7.368,6.787c-8.044,19.754-10.194,41.065-23.704,58.411
			c-5.659,7.265-12.908,12.959-20.712,17.764c-8.482,5.222-18.739,8.653-26.194,15.388c-4.826,4.359-7.857,10.362-12.552,14.924
			c-4.414,4.29-9.667,8.466-15.601,10.417c-5.284,1.737-10.799,1.273-16.175,0.26c-0.576,18.401-0.734,36.631,0.372,55.02
			c0.564,9.376,1.645,18.893,1.36,28.301c-0.225,7.436-1.924,14.734-2.425,22.153c-1.13,16.7-1.979,35.059,0.667,51.645
			c1.171,7.341,4.664,10.443,8.763,16.374c2.002,2.897,2.594,6.215-1.459,7.419c-5.238,1.556-18.409,0.865-21.061-5.747
			c-0.791-1.971-0.352-4.524-0.198-6.552c0.695-9.136,1.252-18.222,1.277-27.391c0.05-17.846-0.558-36.159-3.817-53.742
			c-0.857-4.623-1.823-9.221-2.587-13.861c-1.154,9.213-4.132,17.325-6.371,26.256c-2.355,9.392-2.899,19.264-3.569,28.889
			c-0.737,10.581-2.39,21.793-1.166,32.385c0.351,3.04,1.117,5.086,2.983,7.44c1.671,2.107,7.91,8.515,4.919,11.604
			c-1.456,1.504-5.837,0.937-7.503,0.959c-2.927,0.039-7.354,0.414-9.971-1.33c-1.051-0.7-1.429-1.388-1.92-2.514
			c-1.349-3.092-2.287-5.216-3.996-8.314c-1.22-2.212-1.698-4.223-1.518-6.736c0.75-10.447,3.952-21.141,5.513-31.539
			c1.825-12.147,3.6-24.34,4.365-36.608c0.782-12.542,0.676-25.123,1.47-37.667c0.782-12.361,1.98-24.684,3.59-36.965
			c0.827-6.31,2.386-12.215,1.009-18.462c-0.69-3.13-0.572-3.499-3.67-3.803c-2.283-0.224-4.582-0.312-6.874-0.395
			c-22.023-0.796-44.288,3.183-66.183-0.327c-10.53-1.688-20.83-5.024-30.403-9.717c-1.034-0.507-2.072-1.212-3.15-1.61
			c-2.179-0.805-1.284-1.218-2.998,0.259c-1.658,1.43-2.923,4.214-4.09,6.068c-2.355,3.74-4.386,7.659-6.347,11.616
			c-6.141,12.39-12.469,24.622-18.986,36.82c-3.708,6.94-7.773,13.913-9.675,21.616c-2.491,10.087-1.192,20.889,2.6,30.476
			c3.353,8.478,8.277,16.318,13.078,24.031c7.2,11.565,14.355,23.11,21.231,34.87c3.974,6.797,7.765,12.851,13.211,18.5
			c1.665,1.727,4.575,4.319,4.862,6.958c0.213,1.958-0.686,3.09-2.464,3.966c-3.777,1.861-9.961,1.01-13.852,0.535
			c-1.997-0.244-4.622-0.655-6.121-2.208c-2.394-2.481-1.207-6.445-2.557-9.528c-3.514-8.025-9.418-15.43-13.784-23.058
			c-5.858-10.233-11.706-20.451-18.157-30.327c-7.175-10.986-14.846-21.702-21.243-33.173c-3.223-5.778-7.743-12.488-8.9-19.156
			c-0.334-1.923-0.082-3.107,0.687-4.87c3.909-8.961,7.604-17.83,10.806-27.117c4.021-11.665,7.944-23.367,11.661-35.132
			c-17.963,19.028-38.012,38.422-50.385,61.797c-7.149,13.506-5.832,26.37-3.057,41.062c2.968,15.711,5.918,31.363,8.304,47.172
			c1.211,8.025,4.035,14.54,7.072,22.043c1.099,2.715,6.643,9.397,2.992,12.111c-2.967,2.206-10.613,1.166-13.878,0.7
			c-1.515-0.216-3.01-0.511-4.126-1.629c-1.45-1.452-1.649-3.746-1.921-5.651c-0.595-4.166-2.161-6.219-3.443-10.081
			c-1.148-3.458,0.206-7.139,0.108-10.697c-0.314-11.417-3.597-23.385-5.374-34.643c-2.24-14.197-5.476-28.189-8.556-42.221
			c-2.148-9.786-5.577-20.526-5.386-30.596c0.045-2.351,0.561-4.197,1.867-6.138c2.5-3.715,6.114-6.778,8.928-10.273
			c4.719-5.862,9.115-11.994,13.615-18.024c8.253-11.062,11.438-22.665,10.13-36.647c-0.267-2.854-0.786-5.668-1.566-8.426
			c-1.739,4.415-3.319,8.992-6.199,12.811c-1.449,1.922-2.579,3.025-2.997,5.446c-0.459,2.658,1.829,15.508-0.278,14.93
			c-1.963-0.539-3.952-7.329-4.587-8.95c-1.507-3.853-2.816-8.026-2.839-12.202c-0.034-6.131,4.112-11.254,2.687-17.449
			c-2.022-8.79-6.283-15.941-6.558-25.193c-0.158-5.312,0.876-10.55,0.947-15.85c0.069-5.171-0.424-10.208,0.394-15.337
			c1.026-6.429,2.858-12.514,3.209-19.026c0.098-1.821,0.131-3.457,1.042-5.067c3.798-6.708,14.447-8.243,20.622-12.108
			c13.559-8.486,27.121-14.487,43.096-16.923c15.669-2.39,31.843,0.887,47.372,2.896c20.274,2.623,39.9,6.754,59.887,10.905
			c19.765,4.105,38.699,2.794,58.694,1.675c5.38-0.301,11.121-0.645,16.425,0.577c4.654,1.072,8.585,3.94,13.156,5.296
			c8.631,2.56,15.292,8.482,24.024,10.773c8.045,2.111,17.553,2.153,24.378-3.237c7.397-5.843,10.255-16.363,13.125-24.807
			c3.167-9.32,6.198-18.764,11.04-27.384c1.989-3.541,4.251-6.921,6.668-10.184c2.316-3.127,1.384-5.994,1.449-9.793
			c0.099-5.841,0.693-16.24,5.454-20.571c2.881-2.621,2.562,0.398,3.816,3.25c1.455,3.309,4.313,5.502,6.336,8.435
			c0.932,1.352,1.668,2.804,2.247,4.339c0.87,2.306,0.348,2.954,2.444,3.292c3.219,0.519,6.988-0.601,10.375-0.143
			c-0.457-2.392-1.039-3.11-2.015-5.237c-0.936-2.038-0.763-4.203-1.479-6.293c-2.744-8.002-8.909-12.877-14.556-18.532
			c-2.445-2.449-5.406-3.917-7.712-6.318c-0.971-1.011-0.889-1.726-2.164-2.359c-1.272-0.631-2.75,0.017-3.844-1.043
			c-1.693-1.64-1.471-3.466-3.713-4.947c-1.078-0.712-1.301-0.553-2.446-1.526c-1.559-1.326-2.732-2.534-4.656-3.577
			c-17.13-9.282-32.514-21.439-48.886-32.023c-0.721-0.466-14.406-7.895-13.778-9.476c0.403-1.013,6.634,1.431,7.183,1.633
			c7.739,2.848,14.704,7.643,21.929,11.542c10.506,5.67,21.45,10.347,32.272,15.366c3.053,1.416,5.622,3.547,8.55,4.949
			c2.892,1.385,5.745,1.656,8.69,3.25C530.699,214.933,532.195,215.507,533.492,216.455z"/>
	</g>
</g>
</svg>
