<?xml version="1.0" encoding="utf-8"?>
<!-- Generator: Adobe Illustrator 23.0.1, SVG Export Plug-In . SVG Version: 6.00 Build 0)  -->
<!DOCTYPE svg PUBLIC "-//W3C//DTD SVG 1.1//EN" "http://www.w3.org/Graphics/SVG/1.1/DTD/svg11.dtd" [
	<!ENTITY ns_flows "http://ns.adobe.com/Flows/1.0/">
	<!ENTITY ns_extend "http://ns.adobe.com/Extensibility/1.0/">
	<!ENTITY ns_ai "http://ns.adobe.com/AdobeIllustrator/10.0/">
	<!ENTITY ns_graphs "http://ns.adobe.com/Graphs/1.0/">
	<!ENTITY ns_vars "http://ns.adobe.com/Variables/1.0/">
	<!ENTITY ns_imrep "http://ns.adobe.com/ImageReplacement/1.0/">
	<!ENTITY ns_sfw "http://ns.adobe.com/SaveForWeb/1.0/">
	<!ENTITY ns_custom "http://ns.adobe.com/GenericCustomNamespace/1.0/">
	<!ENTITY ns_adobe_xpath "http://ns.adobe.com/XPath/1.0/">
]>
<svg version="1.1" xmlns:x="&ns_extend;" xmlns:i="&ns_ai;" xmlns:graph="&ns_graphs;"
	 xmlns="http://www.w3.org/2000/svg" xmlns:xlink="http://www.w3.org/1999/xlink" xmlns:a="http://ns.adobe.com/AdobeSVGViewerExtensions/3.0/"
	 x="0px" y="0px" viewBox="0 0 750 750" enable-background="new 0 0 750 750" xml:space="preserve">
<metadata>
	<sfw  xmlns="&ns_sfw;">
		<slices></slices>
		<sliceSourceBounds  bottomLeftOrigin="true" height="8853.359" width="5416.134" x="-3044.634" y="-1325"></sliceSourceBounds>
	</sfw>
</metadata>
<g id="FILL-BACKGROUND">
	<rect x="0.5" y="-0.5" fill="#FFFFFF" width="750" height="750"/>
</g>
<g id="N-DIMENSIONS">
</g>
<g id="AG-DIAGRAM">
</g>
<g id="AG-PEOPLE">
</g>
<g id="AG-DETAILS">
</g>
<g id="AG-ANIMALS">
	<g id="POLYLINE_1412_">
		
			<path fill="none" stroke="#FB8604" stroke-width="2.75" stroke-linecap="round" stroke-linejoin="round" stroke-miterlimit="10" d="
			M394.756,561.651c-2.954,0.2-5.868-0.289-8.816-0.314c-2.069-0.018-4.231,0.598-6.282,0.314c-1.318-0.182-2.319-0.566-3.371-1.415
			c-1.541-1.243-2.502-3.163-2.969-5.047c-1.188-4.79-0.834-9.482-2.601-14.245c-1.874-5.051-4.137-11.283-6.977-15.869
			c-2.249-3.632-6.035-6.025-8.294-9.717c-1.899-3.104-1.886-6.469,0.172-9.648c1.184-1.829,3.066-3.167,4.546-4.742
			c3.443-3.664,6.637-7.686,9.624-11.729c3.771-5.105,4.894-9.807,7.32-15.471c1.418-3.311,4.385-5.322,7.199-7.418
			c2.294-1.708,4.609-3.392,6.961-5.021c0.999-0.692,3.378-1.624,3.966-2.728c0.149-0.28,0.605-0.425,0.643-0.796
			c0.098-0.963-0.625-1.244-1.267-1.778c-1.123-0.934-3.283-1.103-4.621-1.381c-5.884-1.224-11.861-1.948-17.74-3.223
			c-9.256-2.007-17.161-5.723-25.841-9.319c-9.513-3.941-20.011-6.362-30.082-8.38c-22.68-4.542-46.696-4.002-69.71-4.812
			c-25.351-0.893-50.706-2.022-76.076-2.128c-26.57-0.111-53.156-0.315-79.725-0.106c-8.236,0.065-16.911,2.016-25.069,1.51
			c-1.154-0.072-2.876-0.062-3.773-0.998c-1.016-1.06-1.064-2.424-0.077-3.484c1.145-1.23,3.993-0.943,5.324-1.079
			c12.102-1.243,24.222-3.668,36.247-5.47c12.086-1.812,24.165-3.834,36.298-5.318c10.244-1.253,20.883-1.903,30.847-4.771
			c4.12-1.186,8.402-4.219,12.761-4.252c1.292-0.01,2.528,0.725,3.813,0.464c1.417-0.288,2.262-1.853,3.656-2.15
			c0.92-0.197,1.693,0.513,2.586,0.397c1.423-0.185,2.469-1.402,3.854-1.665c1.047-0.199,2.086,0.442,3.03,0.285
			c1.93-0.321,2.512-1.661,4.666-1.49c1.64,0.13,2.92,1.345,4.567,0.812c1.185-0.383,1.83-1.83,3.033-2.305
			c2.464-0.973,4.022,1.312,6.341,0.95c2.745-0.429,3.461-3.636,6.822-3.265c1.503,0.166,3.068,1.908,4.55,1.518
			c1.219-0.321,1.41-2.039,2.443-2.627c2.617-1.488,3.453,1.828,5.891,1.485c2.205-0.31,2.382-3.863,4.82-4.392
			c2.235-0.485,3.771,2.549,5.518,2.179c1.847-0.392,1.548-3.592,4.09-3.667c1.198-0.035,2.159,1.282,3.358,1.326
			c1.474,0.054,2.001-0.976,3.32-1.446c1.396-0.497,2.683-0.133,4.109-0.446c1.938-0.426,3.088-1.997,4.859-2.769
			c3.423-1.492,4.429,1.773,7.309,1.465c2.1-0.225,2.383-2.801,4.961-2.777c1.546,0.014,3.466,1.524,5.048,0.825
			c1.066-0.471,1.085-1.995,2.063-2.503c2.412-1.253,5.432,1.414,8.061-0.027c4.262-2.337,1.189-2.653,5.946-1.439
			c1.143,0.292,2.557,0.388,3.637-0.205c0.783-0.431,1.187-1.815,1.798-2.088c2.519-1.126,5.846,3.215,8.189,1.464
			c1.608-1.202-0.299-2.718,2.381-3.01c1.626-0.177,3.395,1.935,5.098,1.442c1.632-0.473,1.137-1.821,2.225-2.869
			c2.141-2.063,5.002,1.223,7.054-0.531c1.208-1.032-0.365-3.11,1.663-3.825c1.194-0.421,2.77,1.123,3.961,1.222
			c1.592,0.131,3.164-0.624,4.661-1.058"/>
	</g>
	<g id="POLYLINE_1411_">
		
			<path fill="none" stroke="#FB8604" stroke-width="2.75" stroke-linecap="round" stroke-linejoin="round" stroke-miterlimit="10" d="
			M643.287,395.81c0.238-0.655,0.739-0.716,0.539-1.587c0.919,0.264,0.749,2.005,0.477,2.612"/>
	</g>
	<g id="POLYLINE_1410_">
		
			<path fill="none" stroke="#FB8604" stroke-width="2.75" stroke-linecap="round" stroke-linejoin="round" stroke-miterlimit="10" d="
			M645.333,397.774c0.369-0.53,0.518-1.28,0.539-1.894c0.754-0.149,0.536,2.483,0.467,2.737"/>
	</g>
	<g id="POLYLINE_1409_">
		
			<path fill="none" stroke="#FB8604" stroke-width="2.75" stroke-linecap="round" stroke-linejoin="round" stroke-miterlimit="10" d="
			M649.196,400.782c0.312-0.528,0.873-0.361,0.709-1.254c0.605-0.131,0.722,1.989,0.715,2.275"/>
	</g>
	<g id="POLYLINE_1408_">
		
			<path fill="none" stroke="#FB8604" stroke-width="2.75" stroke-linecap="round" stroke-linejoin="round" stroke-miterlimit="10" d="
			M647.352,399.414c0.183-0.633,0.658-1.067,0.647-1.832c0.821-0.004,0.56,2.312,0.457,2.661"/>
	</g>
	<g id="POLYLINE_1402_">
		
			<path fill="none" stroke="#FB8604" stroke-width="2.75" stroke-linecap="round" stroke-linejoin="round" stroke-miterlimit="10" d="
			M658.739,407.244c0.231-0.852,0.371-1.614,0.158-2.486c1.034-0.109,1.232,2.688,1.177,3.197"/>
	</g>
	<g id="POLYLINE_1348_">
		
			<path fill="none" stroke="#FB8604" stroke-width="2.75" stroke-linecap="round" stroke-linejoin="round" stroke-miterlimit="10" d="
			M656.195,405.704c0.291-0.76,0.635-1.376,0.554-2.273c1.055,0.234,1.033,2.431,0.811,3.129"/>
	</g>
	<g id="POLYLINE_1347_">
		
			<path fill="none" stroke="#FB8604" stroke-width="2.75" stroke-linecap="round" stroke-linejoin="round" stroke-miterlimit="10" d="
			M653.697,404.003c0.256-0.797,0.586-1.277,0.401-2.223c0.688-0.271,0.917,2.743,0.856,3.096"/>
	</g>
	<g id="POLYLINE_1346_">
		
			<path fill="none" stroke="#FB8604" stroke-width="2.75" stroke-linecap="round" stroke-linejoin="round" stroke-miterlimit="10" d="
			M651.377,402.345c0.393-0.897,0.437-1.94,0.304-2.885c1.035,0.241,1.104,2.979,0.964,3.795"/>
	</g>
	<g id="POLYLINE_1345_">
		
			<path fill="none" stroke="#FB8604" stroke-width="2.75" stroke-linecap="round" stroke-linejoin="round" stroke-miterlimit="10" d="
			M661.236,408.525c0.266-0.784,0.72-0.998,0.558-1.957c0.695-0.065,1.096,2.144,1.093,2.705"/>
	</g>
	<g id="POLYLINE_1344_">
		
			<path fill="none" stroke="#FB8604" stroke-width="2.75" stroke-linecap="round" stroke-linejoin="round" stroke-miterlimit="10" d="
			M664.178,409.816c0.44-0.647-0.053-2.272,0.739-2.117c0.745,0.145,0.893,2.186,0.85,2.743"/>
	</g>
	<g id="POLYLINE_1343_">
		
			<path fill="none" stroke="#FB8604" stroke-width="2.75" stroke-linecap="round" stroke-linejoin="round" stroke-miterlimit="10" d="
			M666.871,410.852c0.343-3.249,1.562-2.112,1.602,0.562"/>
	</g>
	<g id="POLYLINE_1342_">
		
			<path fill="none" stroke="#FB8604" stroke-width="2.75" stroke-linecap="round" stroke-linejoin="round" stroke-miterlimit="10" d="
			M669.946,411.891c0.38-0.6,0.439-1.536,0.469-2.178c0.746-0.02,0.954,2.048,0.91,2.588"/>
	</g>
	<g id="POLYLINE_1341_">
		
			<path fill="none" stroke="#FB8604" stroke-width="2.75" stroke-linecap="round" stroke-linejoin="round" stroke-miterlimit="10" d="
			M674.292,413.028c0.285-0.644,0.757-0.927,0.816-1.712c0.627,0.221,0.592,1.64,0.579,2.154"/>
	</g>
	<g id="POLYLINE_1340_">
		
			<path fill="none" stroke="#FB8604" stroke-width="2.75" stroke-linecap="round" stroke-linejoin="round" stroke-miterlimit="10" d="
			M672.622,412.607c0.126-0.473,0.484-0.808,0.537-1.347c0.382-0.025,0.706,1.353,0.775,1.668"/>
	</g>
	<g id="POLYLINE_1339_">
		
			<path fill="none" stroke="#FB8604" stroke-width="2.75" stroke-linecap="round" stroke-linejoin="round" stroke-miterlimit="10" d="
			M676.399,413.733c0.72-0.587,1.01-1.547,0.954-2.461c0.822-0.09,1.302,2.78,1.238,3.511"/>
	</g>
	<g id="POLYLINE_1338_">
		
			<path fill="none" stroke="#FB8604" stroke-width="2.75" stroke-linecap="round" stroke-linejoin="round" stroke-miterlimit="10" d="
			M659.804,399.128c-0.182,1.009-0.715,2.013-1.287,2.815c0.871,0.877,2.58-1.598,2.705-2.305"/>
	</g>
	<g id="POLYLINE_1337_">
		
			<path fill="none" stroke="#FB8604" stroke-width="2.75" stroke-linecap="round" stroke-linejoin="round" stroke-miterlimit="10" d="
			M657.476,398.202c-0.356,0.896-1.073,1.625-1.901,2.054c0.925,0.907,2.908-0.783,3.343-1.467"/>
	</g>
	<g id="POLYLINE_1336_">
		
			<path fill="none" stroke="#FB8604" stroke-width="2.75" stroke-linecap="round" stroke-linejoin="round" stroke-miterlimit="10" d="
			M654.767,396.997c-0.513,0.726-1.024,1.416-1.658,2.025c0.479,0.571,2.697-0.917,3.15-1.346"/>
	</g>
	<g id="POLYLINE_1335_">
		
			<path fill="none" stroke="#FB8604" stroke-width="2.75" stroke-linecap="round" stroke-linejoin="round" stroke-miterlimit="10" d="
			M651.65,395.464c-0.425,0.654-0.53,1.28-1.161,1.816c0.671,0.654,2.23-0.581,2.588-1.095"/>
	</g>
	<g id="POLYLINE_1334_">
		
			<path fill="none" stroke="#FB8604" stroke-width="2.75" stroke-linecap="round" stroke-linejoin="round" stroke-miterlimit="10" d="
			M649.482,394.299c-2.302,2.387,0.145,2.464,1.392,0.758"/>
	</g>
	<g id="POLYLINE_1333_">
		
			<path fill="none" stroke="#FB8604" stroke-width="2.75" stroke-linecap="round" stroke-linejoin="round" stroke-miterlimit="10" d="
			M647.544,393.167c-0.666,0.197-1.303,0.526-1.769,0.995c0.292,0.591,2.454-0.124,2.903-0.319"/>
	</g>
	<g id="POLYLINE_1332_">
		
			<path fill="none" stroke="#FB8604" stroke-width="2.75" stroke-linecap="round" stroke-linejoin="round" stroke-miterlimit="10" d="
			M683.443,405.519c-0.934,1.383-2.073,2.513-3.264,3.639c0.228,0.345,2.07-0.37,2.402-0.526"/>
	</g>
	<g id="POLYLINE_1331_">
		
			<path fill="none" stroke="#FB8604" stroke-width="2.75" stroke-linecap="round" stroke-linejoin="round" stroke-miterlimit="10" d="
			M685.165,406.462c-1.048,1.153-2.532,1.878-3.512,3.018c0.639,1.183,4.617-1.926,5.045-2.455"/>
	</g>
	<g id="POLYLINE_1330_">
		
			<path fill="none" stroke="#FB8604" stroke-width="2.75" stroke-linecap="round" stroke-linejoin="round" stroke-miterlimit="10" d="
			M680.683,404.023c-0.792,1.355-1.927,2.363-3.215,3.182c0.474,1.322,4.725-1.722,5.122-2.18"/>
	</g>
	<g id="POLYLINE_1329_">
		
			<path fill="none" stroke="#FB8604" stroke-width="2.75" stroke-linecap="round" stroke-linejoin="round" stroke-miterlimit="10" d="
			M675.976,402.64c-0.328,1.252-1.295,2.072-1.937,3.122c0.941,0.848,3.539-1.875,3.871-2.712"/>
	</g>
	<g id="POLYLINE_1328_">
		
			<path fill="none" stroke="#FB8604" stroke-width="2.75" stroke-linecap="round" stroke-linejoin="round" stroke-miterlimit="10" d="
			M671.76,402.085c-0.144,0.703-1.171,2.623-0.436,2.868c0.792,0.263,2.073-2.223,2.269-2.659"/>
	</g>
	<g id="POLYLINE_1327_">
		
			<path fill="none" stroke="#FB8604" stroke-width="2.75" stroke-linecap="round" stroke-linejoin="round" stroke-miterlimit="10" d="
			M668.463,401.645c0.188,1.438-0.246,2.83-0.164,4.222c0.886,0.469,1.942-3.495,1.998-3.952"/>
	</g>
	<g id="POLYLINE_1326_">
		
			<path fill="none" stroke="#FB8604" stroke-width="2.75" stroke-linecap="round" stroke-linejoin="round" stroke-miterlimit="10" d="
			M665.284,400.892c0.257,1.994-2.686,7.276,0.822,3.194c0.643-0.748,1.111-1.688,1.39-2.63"/>
	</g>
	<g id="POLYLINE_1325_">
		
			<path fill="none" stroke="#FB8604" stroke-width="2.75" stroke-linecap="round" stroke-linejoin="round" stroke-miterlimit="10" d="
			M662.662,400.117c-0.337,0.951-2.344,3.426-1.371,3.693c0.683,0.188,2.042-1.346,2.305-1.846c0.233-0.443,0.365-0.94,0.393-1.44"
			/>
	</g>
	<g id="POLYLINE_1324_">
		
			<path fill="none" stroke="#FB8604" stroke-width="2.75" stroke-linecap="round" stroke-linejoin="round" stroke-miterlimit="10" d="
			M632.887,385.933c11.978,3.725,21.495,12.179,33.839,15.342"/>
	</g>
	<g id="POLYLINE_1323_">
		
			<path fill="none" stroke="#FB8604" stroke-width="2.75" stroke-linecap="round" stroke-linejoin="round" stroke-miterlimit="10" d="
			M632.887,385.933c4.651,3.341,7.842,7.661,12.032,11.474c4.892,4.451,10.786,8.555,16.81,11.349
			c3.244,1.505,6.641,2.725,10.085,3.682"/>
	</g>
	<g id="POLYLINE_1322_">
		
			<path fill="none" stroke="#FB8604" stroke-width="2.75" stroke-linecap="round" stroke-linejoin="round" stroke-miterlimit="10" d="
			M535.895,365.613c0.24,2.261,0.184,4.556-0.116,6.809"/>
	</g>
	<g id="POLYLINE_1321_">
		
			<path fill="none" stroke="#FB8604" stroke-width="2.75" stroke-linecap="round" stroke-linejoin="round" stroke-miterlimit="10" d="
			M540.332,368.376c-0.072,2.2,0.511,4.39,1.546,6.325"/>
	</g>
	<g id="POLYLINE_1320_">
		
			<line fill="none" stroke="#FB8604" stroke-width="2.75" stroke-linecap="round" stroke-linejoin="round" stroke-miterlimit="10" x1="548.627" y1="366.422" x2="551.394" y2="376.112"/>
	</g>
	<g id="POLYLINE_1319_">
		
			<path fill="none" stroke="#FB8604" stroke-width="2.75" stroke-linecap="round" stroke-linejoin="round" stroke-miterlimit="10" d="
			M554.999,367.169c0.168,2.747,1.105,5.374,2.682,7.628"/>
	</g>
	<g id="POLYLINE_1318_">
		
			<path fill="none" stroke="#FB8604" stroke-width="2.75" stroke-linecap="round" stroke-linejoin="round" stroke-miterlimit="10" d="
			M560.252,365.932c-0.164,2.66,2.22,5.159,4.387,6.333"/>
	</g>
	<g id="POLYLINE_1317_">
		
			<path fill="none" stroke="#FB8604" stroke-width="2.75" stroke-linecap="round" stroke-linejoin="round" stroke-miterlimit="10" d="
			M563.072,362.236c0.499,3.771,3.358,7.031,6.606,8.835"/>
	</g>
	<g id="POLYLINE_1316_">
		
			<path fill="none" stroke="#FB8604" stroke-width="2.75" stroke-linecap="round" stroke-linejoin="round" stroke-miterlimit="10" d="
			M567.398,359.761c0.527,3.349,3.339,6.523,6.079,8.319"/>
	</g>
	<g id="POLYLINE_1315_">
		
			<path fill="none" stroke="#FB8604" stroke-width="2.75" stroke-linecap="round" stroke-linejoin="round" stroke-miterlimit="10" d="
			M571.656,354.865c1.72,3.284,3.72,6.439,5.881,9.449"/>
	</g>
	<g id="POLYLINE_1314_">
		
			<path fill="none" stroke="#FB8604" stroke-width="2.75" stroke-linecap="round" stroke-linejoin="round" stroke-miterlimit="10" d="
			M602.668,347.248c0.051,2.567,1.161,4.944,3.008,6.718"/>
	</g>
	<g id="POLYLINE_1313_">
		
			<path fill="none" stroke="#FB8604" stroke-width="2.75" stroke-linecap="round" stroke-linejoin="round" stroke-miterlimit="10" d="
			M600.729,346.792c-0.955,2.99-1.26,6.163-0.873,9.278"/>
	</g>
	<g id="POLYLINE_598_">
		
			<path fill="none" stroke="#FB8604" stroke-width="2.75" stroke-linecap="round" stroke-linejoin="round" stroke-miterlimit="10" d="
			M595.238,344.862c-0.284,3.977-0.032,8.011,0.813,11.908"/>
	</g>
	<g id="POLYLINE_267_">
		
			<path fill="none" stroke="#FB8604" stroke-width="2.75" stroke-linecap="round" stroke-linejoin="round" stroke-miterlimit="10" d="
			M587.08,345.431c0.969,4.221,2.416,8.4,4.404,12.252"/>
	</g>
	<g id="POLYLINE_266_">
		
			<path fill="none" stroke="#FB8604" stroke-width="2.75" stroke-linecap="round" stroke-linejoin="round" stroke-miterlimit="10" d="
			M581.997,347.508c2.27,4.033,3.842,8.445,4.68,12.997"/>
	</g>
	<g id="POLYLINE_265_">
		
			<path fill="none" stroke="#FB8604" stroke-width="2.75" stroke-linecap="round" stroke-linejoin="round" stroke-miterlimit="10" d="
			M576.462,350.972c2.163,3.828,4.479,7.551,6.881,11.232"/>
	</g>
	<g id="POLYLINE_264_">
		
			<path fill="none" stroke="#FB8604" stroke-width="2.75" stroke-linecap="round" stroke-linejoin="round" stroke-miterlimit="10" d="
			M530.475,362.591c-0.979,2.299-1.64,4.741-2.042,7.205"/>
	</g>
	<g id="POLYLINE_263_">
		
			<path fill="none" stroke="#FB8604" stroke-width="2.75" stroke-linecap="round" stroke-linejoin="round" stroke-miterlimit="10" d="
			M352.972,362.936c2.929,1.749,5.403,4.53,7.12,7.453"/>
	</g>
	<g id="POLYLINE_262_">
		
			<path fill="none" stroke="#FB8604" stroke-width="2.75" stroke-linecap="round" stroke-linejoin="round" stroke-miterlimit="10" d="
			M361.784,357.226c4.323,0.792,8.716,4.284,9.53,8.746"/>
	</g>
	<g id="POLYLINE_261_">
		
			<path fill="none" stroke="#FB8604" stroke-width="2.75" stroke-linecap="round" stroke-linejoin="round" stroke-miterlimit="10" d="
			M368.773,348.259c6.032,2.921,11.312,7.934,13.892,14.182"/>
	</g>
	<g id="POLYLINE_260_">
		
			<path fill="none" stroke="#FB8604" stroke-width="2.75" stroke-linecap="round" stroke-linejoin="round" stroke-miterlimit="10" d="
			M376.499,337.983c8.884,4.371,13.055,13.174,16.435,22.07"/>
	</g>
	<g id="POLYLINE_259_">
		
			<path fill="none" stroke="#FB8604" stroke-width="2.75" stroke-linecap="round" stroke-linejoin="round" stroke-miterlimit="10" d="
			M384.739,327.137c11.188,6.398,16.047,19.59,19.093,31.502"/>
	</g>
	<g id="POLYLINE_258_">
		
			<path fill="none" stroke="#FB8604" stroke-width="2.75" stroke-linecap="round" stroke-linejoin="round" stroke-miterlimit="10" d="
			M394.276,314.578c10.204,13.336,17.981,27.263,21.171,43.928"/>
	</g>
	<g id="POLYLINE_257_">
		
			<path fill="none" stroke="#FB8604" stroke-width="2.75" stroke-linecap="round" stroke-linejoin="round" stroke-miterlimit="10" d="
			M407.519,301.653c4.354,9.23,10.372,18.121,13.964,27.645c3.099,8.216,2.796,17.285,3.942,25.877"/>
	</g>
	<g id="POLYLINE_256_">
		
			<path fill="none" stroke="#FB8604" stroke-width="2.75" stroke-linecap="round" stroke-linejoin="round" stroke-miterlimit="10" d="
			M424.006,293.822c9.31,17.32,9.344,38.408,10.573,57.581"/>
	</g>
	<g id="POLYLINE_255_">
		
			<path fill="none" stroke="#FB8604" stroke-width="2.75" stroke-linecap="round" stroke-linejoin="round" stroke-miterlimit="10" d="
			M519.965,364.669c0.54-2.477,2.128-5.233,4.583-6.217"/>
	</g>
	<g id="POLYLINE_254_">
		
			<path fill="none" stroke="#FB8604" stroke-width="2.75" stroke-linecap="round" stroke-linejoin="round" stroke-miterlimit="10" d="
			M510.306,359.844c2.515-4.674,5.065-9.325,7.669-13.95"/>
	</g>
	<g id="POLYLINE_253_">
		
			<path fill="none" stroke="#FB8604" stroke-width="2.75" stroke-linecap="round" stroke-linejoin="round" stroke-miterlimit="10" d="
			M502.134,357.287c2.372-7.776,6.158-14.775,9.216-22.263"/>
	</g>
	<g id="POLYLINE_252_">
		
			<path fill="none" stroke="#FB8604" stroke-width="2.75" stroke-linecap="round" stroke-linejoin="round" stroke-miterlimit="10" d="
			M494.323,353.557c2.678-8.941,4.772-19.702,9.691-27.736"/>
	</g>
	<g id="POLYLINE_251_">
		
			<path fill="none" stroke="#FB8604" stroke-width="2.75" stroke-linecap="round" stroke-linejoin="round" stroke-miterlimit="10" d="
			M485.977,351.847c1.167-8.901,3.44-16.968,6.167-25.478c1.291-4.029,1.726-7.806,1.441-12.027"/>
	</g>
	<g id="POLYLINE_250_">
		
			<path fill="none" stroke="#FB8604" stroke-width="2.75" stroke-linecap="round" stroke-linejoin="round" stroke-miterlimit="10" d="
			M477.302,349.938c1.848-6.551,2.118-12.719,2.508-19.506c0.485-8.438,2.166-16.822,4.424-24.955"/>
	</g>
	<g id="POLYLINE_249_">
		
			<path fill="none" stroke="#FB8604" stroke-width="2.75" stroke-linecap="round" stroke-linejoin="round" stroke-miterlimit="10" d="
			M468.282,349.567c-0.945-9.177-0.109-17.609,1.124-26.672c1.05-7.719,2.167-16.972,0.2-24.65"/>
	</g>
	<g id="POLYLINE_248_">
		
			<path fill="none" stroke="#FB8604" stroke-width="2.75" stroke-linecap="round" stroke-linejoin="round" stroke-miterlimit="10" d="
			M457.958,350.27c1.119-8.647,1.329-17.771-0.447-26.352c-1.46-7.057-4.553-13.793-4.935-21.055
			c-0.174-3.31,0.171-6.623,0.597-9.901"/>
	</g>
	<g id="POLYLINE_247_">
		
			<path fill="none" stroke="#FB8604" stroke-width="2.75" stroke-linecap="round" stroke-linejoin="round" stroke-miterlimit="10" d="
			M445.256,350.599c3.066-19.874-3.817-39.452-8.656-58.502"/>
	</g>
	<g id="POLYLINE_246_">
		
			<path fill="none" stroke="#FB8604" stroke-width="2.75" stroke-linecap="round" stroke-linejoin="round" stroke-miterlimit="10" d="
			M411.003,551.314c3.615-0.626,7.382,1.102,9.543,4.016c0.548,0.739,3.249,5.646,2.47,6.256c-0.558,0.437-3.176-1.895-4.156-2.229
			c-2.067-0.704-4.523-0.614-6.606-0.041"/>
	</g>
	<g id="POLYLINE_245_">
		
			<path fill="none" stroke="#FB8604" stroke-width="2.75" stroke-linecap="round" stroke-linejoin="round" stroke-miterlimit="10" d="
			M401.162,560.981c-0.256,0.008-0.512,0.022-0.767,0.04"/>
	</g>
	<g id="POLYLINE_244_">
		
			<path fill="none" stroke="#FB8604" stroke-width="2.75" stroke-linecap="round" stroke-linejoin="round" stroke-miterlimit="10" d="
			M437.431,399.819c-2.266,17.677-2.063,35.759-2.321,53.51c-0.08,5.531-3.228,11.186-6.39,15.603
			c-1.901,2.656-5.086,3.953-7.163,6.427c-1.72,2.049-2.165,4.695-3.572,6.914c-2.027,3.198-5.246,4.961-7.773,7.618
			c-1.648,1.733-2.454,3.406-4.445,4.78c-6.24,4.306-19.221,8.18-21.175,17.015c-0.397,1.795,0.239,3.283,0.694,5.073
			c1.591,6.259,2.622,12.716,5.941,18.362c3.014,5.128,7.11,9.222,12.062,12.118c0.88,0.515,1.292,1.202,2.279,1.641
			c1.214,0.54,4.309,0.197,5.175,1.625c0.571,0.941-0.286,1.33-0.251,2.295c0.07,1.912,0.573,3.267,1.153,5.145
			c0.782,2.529,0.823,3.42-2.157,3.829c-1.836,0.252-3.949-0.449-5.744-0.674"/>
	</g>
	<g id="POLYLINE_243_">
		
			<path fill="none" stroke="#FB8604" stroke-width="2.75" stroke-linecap="round" stroke-linejoin="round" stroke-miterlimit="10" d="
			M394.756,561.651c-3.348-1.462-0.443-8.085,2.879-8.181c2.278-0.065,4.245,1.223,5.24,3.182c0.414,0.815,1.438,3.751,0.866,4.522
			c-0.787,1.059-0.31-0.183-1.517,0.038C400.177,561.586,396.846,562.191,394.756,561.651z"/>
	</g>
	<g id="POLYLINE_242_">
		
			<path fill="none" stroke="#FB8604" stroke-width="2.75" stroke-linecap="round" stroke-linejoin="round" stroke-miterlimit="10" d="
			M546.68,496.861c0.341-1.868-0.94-3.051-2.113-4.334c-4.765-5.212-6.707-7.139-8.49-13.764
			c-2.508-9.319-8.699-17.267-13.326-25.576c-1.963-3.526-4.49-7.235-5.59-11.165c-0.458-1.637-0.459-3.288-1.123-4.904
			c-1.281-3.118-3.55-4.894-6.805-5.737"/>
	</g>
	<g id="POLYLINE_241_">
		
			<path fill="none" stroke="#FB8604" stroke-width="2.75" stroke-linecap="round" stroke-linejoin="round" stroke-miterlimit="10" d="
			M544.793,498.585c-0.176-4.639,5.351,1.072,5.866,1.867c1.045,1.614,1.319,8.856-0.444,7.968
			c-0.158-0.079-0.523-2.617-0.764-3.117c-0.571-1.185-1.545-2.207-2.562-3.018"/>
	</g>
	<g id="POLYLINE_240_">
		
			<path fill="none" stroke="#FB8604" stroke-width="2.75" stroke-linecap="round" stroke-linejoin="round" stroke-miterlimit="10" d="
			M541.903,502.273c-1.29-2.895,1.689-5.273,3.853-2.633c1.084,1.323,1.238,2.741,0.917,4.332c-0.211,1.044-1.851,5.327-2.958,5.62
			c-0.94,0.249-0.28-0.486-0.312-1.374C543.277,504.665,544.062,505.229,541.903,502.273z"/>
	</g>
	<g id="POLYLINE_239_">
		
			<path fill="none" stroke="#FB8604" stroke-width="2.75" stroke-linecap="round" stroke-linejoin="round" stroke-miterlimit="10" d="
			M529.503,497.601c1.732-1.706-0.554-15.052,0.242-15.143c0.936-0.107,2.448,3.604,2.652,4.457
			c0.393,1.645-0.473,3.537,0.139,5.073c0.523,1.314,2.106,2.033,2.813,3.309c0.858,1.549,0.478,3.527,1.298,5.003
			c1.044,1.88,3.181,2.417,5.258,1.972"/>
	</g>
	<g id="POLYLINE_238_">
		
			<path fill="none" stroke="#FB8604" stroke-width="2.75" stroke-linecap="round" stroke-linejoin="round" stroke-miterlimit="10" d="
			M525.97,499.056c-0.175-1.671,2.411-3.78,3.496-2.225c0.979,1.404-1.264,6.953-2.256,7.958c-1.645,1.666-0.591-0.122-0.595-1.333
			C526.609,501.695,526.173,500.685,525.97,499.056z"/>
	</g>
	<g id="POLYLINE_237_">
		
			<path fill="none" stroke="#FB8604" stroke-width="2.75" stroke-linecap="round" stroke-linejoin="round" stroke-miterlimit="10" d="
			M516.037,404.012c-1.555,5.994-6.152,8.63-10.483,12.694c-4.343,4.076-7.419,9.541-10.86,14.373
			c-3.08,4.324-2.354,10.555,0.315,15.076c4.854,8.223,14.225,13.154,20.103,20.606c1.892,2.399,2.341,5.135,3.819,7.693
			c3.554,6.147,5.925,10.333,4.529,17.366c-0.502,2.531-2.122,6.095,1.711,7.171c0.256,0.072,0.535,0.067,0.798,0.064"/>
	</g>
	<g id="POLYLINE_236_">
		
			<path fill="none" stroke="#FB8604" stroke-width="2.75" stroke-linecap="round" stroke-linejoin="round" stroke-miterlimit="10" d="
			M348.1,416.964c8.172,12.615,19.458,22.706,32.363,30.322c4.44,2.62,10.621,4.056,14.354,7.618
			c0.467,0.446,1.332,1.002,1.402,1.733c0.071,0.739-0.044,1.143-0.643,1.642"/>
	</g>
	<g id="POLYLINE_235_">
		
			<path fill="none" stroke="#FB8604" stroke-width="2.75" stroke-linecap="round" stroke-linejoin="round" stroke-miterlimit="10" d="
			M516.947,440.493c7.961-0.569,15.397-3.82,20.681-9.807c1.968-2.23,3.746-4.84,6.399-6.325c2.663-1.49,5.855-1.91,8.675-3.06
			c5.682-2.318,9.918-7.367,16.008-8.521c4.083-0.774,8.152-0.688,12.117-2.104c4.249-1.517,7.773-4.506,11.987-6.072
			c10.025-3.726,20.928-0.584,30.991,0.852"/>
	</g>
	<g id="POLYLINE_234_">
		
			<path fill="none" stroke="#FB8604" stroke-width="2.75" stroke-linecap="round" stroke-linejoin="round" stroke-miterlimit="10" d="
			M435.101,452.148c6.585-5.495,10.572-4.167,18.625-4.248c5.731-0.058,11.51-0.51,17.252-0.627
			c3.602-0.073,6.896-1.563,10.47-1.812c4.408-0.308,8.547,0.891,12.709-0.938"/>
	</g>
	<g id="POLYLINE_233_">
		
			<path fill="none" stroke="#FB8604" stroke-width="2.75" stroke-linecap="round" stroke-linejoin="round" stroke-miterlimit="10" d="
			M613.969,377.39c5.938,5.138,13.178,7.507,19.681,11.759c8.251,5.396,14.526,13.376,22.715,18.754
			c6.054,3.976,13.197,3.19,19.739,5.717c1.155,0.446,3.8,1.3,4.131,2.858c0.795,3.74-6.666,5.242-8.828,5.294
			c-7.962,0.193-15.784-6.627-22.481-9.899c-6.978-3.409-13.823-3.506-21.244-5.23c-11.171-2.595-20.284-12.577-25.841-22.158
			c-0.75-1.293-1.447-2.618-2.089-3.968"/>
	</g>
	<g id="POLYLINE_232_">
		
			<path fill="none" stroke="#FB8604" stroke-width="2.75" stroke-linecap="round" stroke-linejoin="round" stroke-miterlimit="10" d="
			M342.754,372.096c-3.805-2.18,0.928-2.772,1.897-3.738c1.408-1.403,0.906-3.617,3.011-4.611c1.423-0.672,3.249,0.4,4.543-0.277
			c3.221-1.687,1.044-5.579,5.728-5.902c2.047-0.141,3.225,0.705,4.299-1.149c1.045-1.802-0.798-5.14,0.921-6.739
			c1.247-1.16,2.993,0.071,4.386-0.505c1.97-0.816,2.452-3.483,2.952-5.324c1.095-4.029,0.691-2.79,4.172-4.641
			c1.395-0.742,2.153-1.29,2.503-2.918c0.706-3.288-1.65-7.285,3.159-8.868c1.264-0.416,2.712,0.516,3.863-0.023
			c1.868-0.875,1.242-2.838,1.859-4.561c1.3-3.626,5.058-4.53,7.408-7.207c1.739-1.981,1.275-4.649,2.389-6.95
			c1.147-2.371,3.231-3.295,5.593-4.295c4.427-1.874,6.146-2.529,8.713-6.176c1.688-2.399,4.107-4.095,7.06-4.626
			c2.016-0.363,5.427,1.343,6.956,0.113c0.979-0.788,0.386-2.587,1.55-3.493c1.89-1.471,5.763-0.141,7.551,0.561
			c3.429,1.347,2.355,1.409,5.554-0.001c1.394-0.615,3.576-1.608,4.894-1.872c2.015-0.403,4.372,0.098,6.178,1.112
			c1.442,0.81,2.407,2.587,3.701,2.729c0.192,0.021,1.206-0.784,1.597-0.854c1.735-0.311,3.559,0.045,5.258,0.389
			c2.672,0.541,5.797,1.202,7.588,3.424c1.154,1.432,0.49,2.085,2.261,2.612c2.011,0.599,3.049-0.571,4.976,0.462
			c3.401,1.822,5.684,5.608,9.482,6.782c2.191,0.677,2.867,0.268,4.739,2.213c1.3,1.35,2.457,5.721,3.779,6.538
			c1.088,0.673,3.002-0.481,4.345,0.277c2.138,1.208,3.672,5.106,4.901,7.185c0.536,0.906,0.674,3.189,1.173,3.734
			c1.118,1.221,3.177-0.061,4.494,0.892c2.353,1.703,0.628,6.464,2.651,8.025c1.363,1.051,1.34-0.7,2.688-0.212
			c2.361,0.855,4.045,6.32,4.349,8.809c0.318,2.602-0.068,3.938,1.576,5.939c0.879,1.07,2.126,1.717,2.895,2.9
			c1.019,1.566,0.83,4.925,1.953,6.017c1.559,1.516,3.168-0.935,5.251,2.366c1.403,2.224,0.621,1.932,3.176,3.115
			c1.697,0.786,1.875,1.345,3.254,2.305c0.489,0.34,4.088,2.632,4.456,2.673c0.339,0.038,0.831-1.13,1.4-1.183
			c0.906-0.084,1.739,0.497,2.619,0.451c1.839-0.096,3.344-1.222,5.234-1.251c2.137-0.033,3.881,0.825,5.877,0.459
			c1.055-0.194,4.036-0.462,4.811-0.909c1.233-0.711,1.234-2.324,2.241-3.321c1.424-1.411,3.583-1.435,4.878-3.012
			c0.485-0.59,0.466-1.57,0.98-2.21c0.708-0.883,1.948-1.148,2.673-1.961c0.824-0.923,0.856-2.295,1.77-3.111
			c1.184-1.056,2.899-1.007,4.081-2.106c0.432-0.402,0.168-1.293,0.738-1.719c0.781-0.583,1.888-0.095,2.708-0.425
			c1.456-0.585,1.161-1.412,2.191-2.059c1.473-0.925,2.926-0.237,4.669-0.584c2.013-0.401,2.534-1.091,4.712-0.93
			c1.783,0.132,4.16,0.007,5.856,0.56c2.228,0.726,2.963,2.023,5.245,2.2c2.041,0.158,4.366-0.529,6.044,1.227
			c0.822,0.86,0.648,2.286,1.54,2.829c0.765,0.465,3.138,0.446,4.296,1.038c3.096,1.583,5.454,3.332,8.587,4.617
			c2.204,0.904,3.657,3.388,5.891,3.971c1.49,0.389,2.922-0.485,4.474-0.064c2.587,0.702,2.936,4.449,5.521,4.404
			c3.014-0.052,3.223-3.956,5.279-0.188c2.24,4.106,3.561,7.529,7.819,10.411c4.023,2.723,8.379,4.759,12.333,7.618
			c3.059,2.212,6.262,4.03,9.727,5.537c5.574,2.423,9.522,3.717,12.676,9.175c1.058,1.831,3.134,5.981,1.968,8.117
			c-0.672,1.231-1.309,1.227-2.656,1.098c-2.065-0.198-3.965-2.099-5.792-2.917c-3.356-1.502-6.928-1.663-10.526-2.176
			c-9.335-1.331-17.697-7.368-25.673-11.971c-9.409-5.429-19.882-10.648-30.659-12.552"/>
	</g>
	<g id="POLYLINE_231_">
		
			<path fill="none" stroke="#FB8604" stroke-width="2.75" stroke-linecap="round" stroke-linejoin="round" stroke-miterlimit="10" d="
			M342.754,372.096c3.071,0.406,5.272-0.124,8.215-0.809c3.176-0.739,6.434-0.369,9.622-0.978c3.363-0.643,6.302-2.489,9.421-3.808
			c5.73-2.423,11.808-3.887,17.847-5.301c4.907-1.149,9.895-2.359,14.954-2.54c3.655-0.131,7.339,0.63,10.977,0.157
			c4.201-0.547,8.877-2.227,12.643-4.044c1.594-0.769,2.794-2.196,4.363-2.913c1.991-0.91,3.894-0.095,5.998-0.433
			c2.684-0.431,3.909-1.515,6.666-1.178c7.722,0.942,15.846,0.228,23.587-0.556c6.309-0.639,11.99,0.599,18.003,1.971
			c2.48,0.566,5.015,0.42,7.464,1.193c4.172,1.316,7.809,3.931,11.983,5.274c4.162,1.339,8.192,2.389,12.083,4.468
			c3.248,1.736,5.871,4.383,9.139,6.055c6.173,3.158,14.337,6.213,21.237,7.265c4.678,0.713,10.933-0.287,15.232-2.103
			c2.451-1.035,3.622-1.965,6.224-2.57c2.349-0.547,1.765-1.07,3.537-2.337c1.067-0.763,2.403-0.647,3.43-1.434
			c1.518-1.162,1.359-2.704,3.204-3.466c0.642-0.265,1.544,0.064,2.259-0.179c1.66-0.565,2.985-2.072,4.594-2.819
			c2.087-0.969,3.944-2.379,6.006-3.304c4.206-1.888,9.342-1.542,13.699-3.355c2.628-1.094,5.254-0.428,7.941-1.281
			c0.637-0.202,1.209-0.443,1.74-0.878"/>
	</g>
</g>
<g id="AG-OUTLINE">
	<g id="POLYLINE_230_">
		
			<path fill="none" stroke="#FB8604" stroke-width="3.5" stroke-linecap="round" stroke-linejoin="round" stroke-miterlimit="10" d="
			M686.698,407.025c4.466,1.346,2.115-6.196,1.38-7.81c-1.931-4.235-5-7.099-9.193-8.886c-7.665-3.266-13.794-7.793-20.996-11.825
			c-4.917-2.752-10.298-5.706-12.542-11.256c-0.518-1.281-0.314-3.649-2.007-4.002c-2.35-0.49-2.955,3.174-5.592,1.307
			c-1.017-0.72-1.159-2.221-2.261-3.017c-1.752-1.265-2.932-0.406-4.753-0.592c-2.407-0.246-2.895-1.517-5.084-2.945
			c-1.628-1.062-3.478-1.177-5.148-2.094c-2.418-1.328-4.656-3.993-7.38-4.715c-2.706-0.717-1.555,0.268-3.074-1.213
			c-1.086-1.059-1.107-1.998-2.94-2.597c-1.853-0.606-3.648,0.184-5.471-0.229c-1.817-0.412-3.049-2.086-4.894-2.45
			c-1.854-0.366-5.141-0.655-6.922-0.358c-1.63,0.271-3.096,0.806-4.768,1.062c-2.535,0.388-1.151,0.623-2.832,1.737
			c-1.223,0.811-2.768,0.366-3.967,1.084c-1.138,0.682-0.75,1.816-1.645,2.625c-1.137,1.029-2.904,0.654-4.02,1.799
			c-0.952,0.976-1.251,2.28-2.324,3.324c-1.371,1.333-1.69,2.38-2.84,3.74c-1.258,1.488-3.396,1.488-4.765,2.825
			c-0.919,0.898-0.959,2.503-1.967,3.202c-1.108,0.769-3.415,0.469-4.747,0.731c-2.138,0.42-3.497-0.096-6.011-0.123
			c-1.855-0.02-3.262,1.118-5.021,1.261c-1.014,0.082-3.097,0.115-3.915,0.088c-0.739-0.024-0.396,0.461-1.328,0.258
			c-0.269-0.058-1.36-1.288-1.765-1.549c-2.537-1.633-6.109-2.803-7.776-4.944c-0.794-1.02-1.159-2.972-2.642-3.409
			c-0.821-0.242-2.307,0.8-2.634,0.637c-1.726-0.858-1.497-5.528-2.85-7.341c-1.226-1.643-3.118-2.456-3.839-4.46
			c-1.135-3.157-0.309-5.742-2.035-8.851c-0.46-0.829-1.456-3.481-2.736-3.892c-0.621-0.199-1.27,1.07-1.695,0.88
			c-2.264-1.012-1.438-5.064-2.492-7.045c-1.251-2.351-1.676-1.128-3.89-1.967c-2.247-0.851-0.83-0.366-1.833-2.466
			c-1.024-2.143-2.58-4.079-3.785-6.205c-2.224-3.922-5.113-1.836-7.067-4.42c-1.685-2.228-2.275-5.553-5.189-6.92
			c-1.232-0.578-2.495-0.246-3.736-0.716c-3.629-1.375-5.832-5.886-9.456-7.092c-1.517-0.505-3.473,0.756-4.798-0.005
			c-1.064-0.611-1.071-2.208-1.907-3.111c-2.225-2.402-7.613-3.381-10.655-3.303c-0.736,0.019-3.4,1.243-3.713,1.182
			c-1.106-0.216-3.088-2.945-4.565-3.501c-3.917-1.476-6.742,0.221-10.36,1.663c-2.762,1.1-2.157,0.701-5.285-0.469
			c-1.73-0.647-5.383-1.844-7.205-0.475c-1.182,0.887-0.576,2.62-1.501,3.412c-1.463,1.253-4.311-0.3-6.131-0.139
			c-6.59,0.583-7.204,6.437-12.141,9.073c-3.112,1.661-7.572,2.108-9.679,5.284c-1.435,2.163-0.861,5.078-2.294,7.206
			c-1.82,2.703-5.691,3.522-7.379,6.507c-0.913,1.614-0.328,4.391-1.787,5.534c-2.47,1.934-4.927-0.99-7.195,2.686
			c-1.637,2.653,0.651,5.69-1.079,8.142c-1.18,1.672-3.622,1.145-4.931,2.477c-1.84,1.873-0.899,5.476-2.648,7.553
			c-1.956,2.323-4.845,0.066-6.329,2.771c-1.024,1.866,0.798,5.086-1.006,6.65c-1.397,1.211-3.877-0.32-5.472,0.321
			c-2.921,1.174-1.758,4.909-4.552,5.893c-1.574,0.555-3.011-0.473-4.526,0.526c-1.662,1.096-1.342,3.534-2.686,4.647
			c-0.945,0.783-5.474,1.192-1.667,3.372c-1.611,0.469-3.162,1.202-4.846,1.023c-1.115-0.119-2.907-1.735-4.114-1.112
			c-1.847,0.954-0.113,3.038-2.068,3.944c-1.649,0.764-3.702-1.283-5.227-0.72c-1.404,0.519-1.092,2.33-2.122,3.191
			c-2.41,2.015-5.095-1.97-7.328-0.685c-2.029,1.167,0.026,3.011-3.018,3.148c-1.982,0.089-4.055-2.537-5.962-1.955
			c-0.973,0.297-1.076,1.628-1.922,2.182c-2.904,1.902-4.508-1.209-6.994-0.829c-2.321,0.355-2.693,3.184-5.604,3.233
			c-1.763,0.03-3.834-1.365-5.517-0.462c-1.014,0.544-1.024,2.072-2.198,2.536c-2.723,1.075-4.964-1.78-7.73,0.055
			c-1.555,1.032-0.933,1.815-2.728,1.651c-1.555-0.142-2.619-1.887-4.408-1.885c-2.216,0.003-3.397,1.735-5.257,2.645
			c-1.654,0.809-2.731,0.378-4.493,0.75c-1.376,0.291-2.351,1.465-3.654,1.73c-1.621,0.329-1.947-0.616-3.572-0.892
			c-3.403-0.579-2.1,1.857-4.464,2.987c-1.986,0.949-3.405-2.132-5.709-1.871c-2.673,0.302-2.806,3.999-4.975,4.46
			c-2.425,0.515-3.483-2.99-6.129-1.464c-1.068,0.616-1.241,2.34-2.539,2.629c-1.563,0.349-3.266-1.54-4.959-1.584
			c-3.041-0.08-4.038,3.128-6.67,3.296c-3.315,0.21-3.747-2.224-6.917-0.362c-1.217,0.715-1.559,1.723-2.996,1.913
			c-1.658,0.219-3.293-1.5-4.966-1.166c-1.047,0.209-1.424,1.329-2.333,1.574c-1.142,0.308-2.168-0.427-3.318-0.317
			c-1.5,0.143-2.573,1.422-3.997,1.671c-0.887,0.155-1.729-0.452-2.509-0.322c-1.553,0.259-2.409,1.622-3.875,2.041
			c-1.334,0.382-2.255-0.234-3.611-0.286c-3.841-0.148-7.444,2.241-10.956,3.449c-9.555,3.286-20.004,3.974-29.969,5.153
			c-25.531,3.019-50.806,8.626-76.366,11.223c-1.927,0.196-5.919,0.032-5.542,3.042c0.451,3.605,7.021,2.465,8.992,2.295
			c26.296-2.268,52.784-1.295,79.181-1.253c23.16,0.037,46.28,0.366,69.427,1.181c28.704,1.011,57.65,1.012,86.236,4.11
			c11.196,1.213,22.211,3.923,32.983,7.163c8.838,2.658,16.805,7.324,25.615,10.023c5.418,1.659,11.011,2.766,16.586,3.743
			c4.164,0.73,9.398,0.799,13.346,2.592c0.752,0.341,2.313,0.851,2.358,1.915c0.021,0.487-0.34,0.601-0.518,0.982
			c-1.121,2.392-7.251,5.066-9.41,6.647c-3.316,2.429-7.238,4.779-8.901,8.718c-1.144,2.71-1.441,5.651-2.755,8.326
			c-1.557,3.169-3.734,6.067-5.879,8.849c-2.835,3.677-5.764,7.389-9.006,10.719c-1.376,1.414-3.11,2.683-4.115,4.428
			c-2.658,4.614-0.973,8.161,2.089,11.914c2.675,3.279,5.827,5.552,7.511,9.507c2.584,6.07,5.934,12.13,7.351,18.618
			c1.06,4.851-0.253,12.69,5.644,15.072c2.618,1.057,5.716,0.038,8.425,0.092c3.165,0.063,6.471,0.661,9.619,0.452
			c4.947-0.33,7.601-0.326,12.014-0.103c1.481,0.075,5.095,0.095,4.27-2.382c1.873-0.515,4.068-0.647,5.962-0.144
			c0.85,0.226,4.51,2.667,4.708,2.538c2.048-1.328-3.793-8.101-5.269-9.006c-2.017-1.237-4.31-1.796-6.652-1.39
			c0.29-2.147-5.565-2.55-7.035-3.331c-4.995-2.654-9.329-7.413-12.372-12.275c-3.793-6.061-5.467-13.817-6.788-20.719
			c-0.3-1.566-0.469-2.396,0.011-3.897c3.135-9.813,16.374-11.478,22.88-17.902c2.25-2.222,4.183-4.457,6.534-6.666
			c3.086-2.898,4.012-5.467,5.926-9.033c1.78-3.318,5.089-4.681,7.578-7.378c1.99-2.156,2.898-5.056,4.505-7.485
			c1.982-2.993,2.115-5.332,2.854-8.782c0.568-2.65,2.268-3.573,4.87-4.902c1.135-0.58,2.264-1.1,3.522-1.343
			c5.372-1.038,11.48,0.251,17.031-0.292c6.052-0.592,11.545,0.013,17.509-1.312c4.67-1.038,9.45-0.188,14.154-0.741
			c2.715-0.319,1.821-0.512,3.477,1.866c1.589,2.282,3.694,4.237,5.697,6.139c5.114,4.856,12.745,9.964,15.776,16.627
			c1.173,2.579,1.692,4.082,3.199,6.449c3.268,5.134,4.183,9.451,3.207,15.149c-0.264,1.543-1.206,4.111-0.756,5.395
			c0.627,1.786,2.589,1.524,3.244,2.412c0.754,1.022,0.769,2.339,0.695,3.534c-0.057,0.919-1.393,3.168,0.116,2.452
			c2.023-0.96,2.071-5.806,2.658-7.565c0.395-1.184,1.048-1.564,1.158-2.875c0.149-1.764-0.851-3.646-0.895-5.464
			c-0.038-1.571,0.14-2.419-0.106-4.164c-0.359-2.541-0.752-3.405,1.009-1.686c1.401,1.368,1.792,3.369,1.899,5.204
			c0.199,3.422-0.316,2.498,1.478,4.912c1.781,2.396,1.447,6.247,3.637,7.989c2.049,1.63,4.502-0.31,5.832,2.494
			c1.126,2.374-1.535,9.348,1.918,2.687c0.728-1.404,1.531-2.905,1.463-4.526c1.354,1.079,2.276,2.324,2.921,3.901
			c0.445,1.088-0.152,2.789,1.033,2.131c1.914-1.063,0.891-6.143-0.044-7.703c-0.932-1.554-3.271-2.498-4.113-3.864
			c-0.271-0.44-0.132-1.625-0.46-2.256c-1.816-3.484-5.933-5.483-7.986-8.905c-1.666-2.777-1.84-6.094-2.868-9.125
			c-2.489-7.335-7.171-13.692-10.976-20.367c-2.526-4.433-7.248-10.206-7.448-15.604c8.782-0.628,16.013-4.408,21.684-10.987
			c4.783-5.549,8.639-5.76,15.235-8.699c5.772-2.572,9.746-7.316,16.16-8.204c4.557-0.631,8.849-0.91,13.087-2.881
			c3.86-1.795,7.256-4.54,11.411-5.666c9.376-2.542,20.359-0.763,29.57,1.513c7.552,1.866,15.531,2.128,22.717,5.309
			c7.705,3.41,16.475,11.688,25.499,10.835c2.225-0.211,6.116-1.096,7.355-3.322c0.716-1.287,0.461-1.462,0.116-2.692
			c0.019,0.068-2.062-3.958-1.972-3.893c-0.119-0.085-0.37-0.43-0.466-0.528c-1.437,1.084,0.966,2.479-1.639,2.07
			c0.306,0.048-0.574-1.989-0.59-2.031c-0.833,0.283-0.864,3.012-1.957-0.055c-2.079,2.534-1.2-0.092-2.751-1.546
			c-1.463,0.89,0.592,3.382-2.034,0.73c-0.845-0.853-0.17-1.795-1.25-1.675c0.32-0.036-0.225,1.883-0.249,2.082
			c-1.519-0.421-0.808-3.004-2.307-3.203c-0.776-0.103,1.173,3.336-1.742,0.788c-0.431-0.377-0.577-1.41-1.036-1.865
			c-0.836,1.319-0.013,2.699-1.725,0.54c-0.569-0.718-0.233-1.679-1.169-2.352c-0.049,0.051-0.059,2.112-0.154,2.484
			c-1.663-0.548-0.643-2.603-1.991-3.814c-0.968,0.66,0.624,4.22-1.737,0.943c-0.46-0.638-0.241-1.831-0.89-2.604
			c0.134-0.1-0.36,2.042-0.424,2.234c-1.467-0.813-0.838-3.172-2.017-4.544c-0.238,0.211-0.042,2.289-0.304,2.885
			c-0.76-0.716-0.892-1.834-1.465-2.822c-1.594,2.436-0.709-0.707-1.94-1.93c-0.936,1.035,0.236,2.743-1.552,0.521
			c-0.364-0.452-0.015-1.618-0.555-2.232c-0.123,0.126-0.474,1.577-0.532,1.891c-1.505-0.921-0.259-2.357-1.519-3.548
			c-0.61,0.91,0.635,1.578-0.961,1.117c-1.456-0.42-3.44-3.954-4.74-5.196c-1.619-1.547-3.409-2.91-5.226-4.214
			c5.378,1.673,9.915,4.27,14.657,7.234c-0.689,0.204-1.21,0.733-1.769,0.995c0.201,0.407,3.184-0.12,3.706,0.138
			c-1.284,1.331-1.247,1.496-0.211,1.902c1.574,0.616,0.562-1.663,2.202-0.253c0.177,0.152-0.89,1.26-0.984,1.332
			c1.229,1.198,2.477-2.043,4.278-0.283c-0.486,0.687-1.002,1.496-1.658,2.025c0.41,0.488,3.448-1.401,4.367-0.82
			c-0.356,0.896-1.073,1.625-1.901,2.054c0.831,0.815,2.024-0.614,2.661-0.697c1.407-0.182,0.756-0.898,1.202,0.786
			c0.08,0.301-0.77,1.388-0.921,1.599c0.871,0.877,2.58-1.598,2.705-2.305c0.329,0.023,1.167,0.292,1.44,0.478
			c-1.298,3.668-2.547,4.525,0.934,1.847c0.3-0.231,0.374-1.098,0.393-1.44c3.941,0.334-1.286,4.445,0.132,5.16
			c1.531,0.772,2.833-4.108,3.375-4.227c1.758-0.386,0.75,3.549,0.803,4.411c1.098,0.582,1.377-4.61,3.462-3.782
			c-1.256,5.967,0.886-0.648,4.215,0.555c-0.328,1.252-1.295,2.072-1.937,3.122c0.489,0.441,2.32-0.926,2.707-1.15
			c1.758-1.018,1.387-1.765,3.937-0.589c-0.792,1.355-1.927,2.363-3.215,3.182c0.358,0.999,5.503-1.97,5.976-1.685
			c-0.934,1.383-2.073,2.513-3.264,3.639c0.228,0.345,2.07-0.37,2.402-0.526c-0.349,0.264-0.635,0.595-0.928,0.851
			C682.552,410.927,686.247,407.025,686.698,407.025z"/>
	</g>
</g>
<g id="N-TEXT">
</g>
</svg>
