<?xml version="1.0" encoding="utf-8"?>
<!-- Generator: Adobe Illustrator 23.0.1, SVG Export Plug-In . SVG Version: 6.00 Build 0)  -->
<!DOCTYPE svg PUBLIC "-//W3C//DTD SVG 1.1//EN" "http://www.w3.org/Graphics/SVG/1.1/DTD/svg11.dtd" [
	<!ENTITY ns_flows "http://ns.adobe.com/Flows/1.0/">
	<!ENTITY ns_extend "http://ns.adobe.com/Extensibility/1.0/">
	<!ENTITY ns_ai "http://ns.adobe.com/AdobeIllustrator/10.0/">
	<!ENTITY ns_graphs "http://ns.adobe.com/Graphs/1.0/">
	<!ENTITY ns_vars "http://ns.adobe.com/Variables/1.0/">
	<!ENTITY ns_imrep "http://ns.adobe.com/ImageReplacement/1.0/">
	<!ENTITY ns_sfw "http://ns.adobe.com/SaveForWeb/1.0/">
	<!ENTITY ns_custom "http://ns.adobe.com/GenericCustomNamespace/1.0/">
	<!ENTITY ns_adobe_xpath "http://ns.adobe.com/XPath/1.0/">
]>
<svg version="1.1" xmlns:x="&ns_extend;" xmlns:i="&ns_ai;" xmlns:graph="&ns_graphs;"
	 xmlns="http://www.w3.org/2000/svg" xmlns:xlink="http://www.w3.org/1999/xlink" xmlns:a="http://ns.adobe.com/AdobeSVGViewerExtensions/3.0/"
	 x="0px" y="0px" viewBox="0 0 750 750" enable-background="new 0 0 750 750" xml:space="preserve">
<metadata>
	<sfw  xmlns="&ns_sfw;">
		<slices></slices>
		<sliceSourceBounds  bottomLeftOrigin="true" height="8853.359" width="5416.134" x="-3044.634" y="-1325"></sliceSourceBounds>
	</sfw>
</metadata>
<g id="FILL-BACKGROUND">
	<rect x="0.5" y="-0.5" fill="#FFFFFF" width="750" height="750"/>
</g>
<g id="N-DIMENSIONS">
</g>
<g id="AG-DIAGRAM">
</g>
<g id="AG-PEOPLE">
</g>
<g id="AG-DETAILS">
</g>
<g id="AG-ANIMALS">
	<g id="POLYLINE_229_">
		
			<path fill="none" stroke="#FB8604" stroke-width="2.75" stroke-linecap="round" stroke-linejoin="round" stroke-miterlimit="10" d="
			M440.202,539.84c-19.856,6.721-39.489,7.908-60.141,4.693"/>
	</g>
	<g id="POLYLINE_228_">
		
			<path fill="none" stroke="#FB8604" stroke-width="2.75" stroke-linecap="round" stroke-linejoin="round" stroke-miterlimit="10" d="
			M483.735,528.278c15.93-4.489,35.843-7.756,46.04-22.243c6.842-9.719,5.382-21.532,11.428-31.342
			c6.134-9.953,12.536-19.571,17.524-30.19c4.804-10.227,8.09-21.045,11.153-31.898c6.29-22.287,9.65-46.502,8.615-69.64
			c-1.12-25.035-3.93-50.189-8.735-74.787c-5.062-25.916-11.421-51.538-13.68-77.919c-0.99-11.557-0.881-24.054,4.986-34.441
			c6.764-11.977,15.624-11.497,28.538-12c6.18-0.24,11.211,1.288,17.227,1.801c1.229,0.105,2.297,0.211,3.447-0.257
			c2.361-0.96,3.886-2.97,2.843-5.18c-0.908-1.925-4.133-3.513-5.655-4.842c3.292,0.491,10.93,1.489,12.293-2.816
			c1.09-3.443-1.647-10.079-5.222-11.383c-2.768-1.01-7.016,1.155-9.354-0.633c-2.611-1.997-2.475-9.232-3.581-12.252
			c-2.25-6.145-7.969-8.319-14.413-6.657c-4.342,1.119-7.304,4.945-11.445,6.571c-3.231,1.269-6.725,0.724-9.983,1.833
			c-7.572,2.578-15.352,8.875-21.337,14.067c-4.324,3.751-7.719,8.386-10.39,13.432c-10.106,19.095-9.38,43.098-8.346,64.021
			c1.516,30.68,6.199,61.134,8.587,91.751c1.85,23.725,5.586,48.73-2.536,71.674c-3.947,11.151-8.528,22.098-21.28,23.995
			c-18.253,2.716-36.025-5.337-54.226-1.221c-11.802,2.669-22.028,8.539-32.856,13.67c-14.717,6.975-29.441,13.888-44.108,20.967
			c-13.832,6.675-28.166,12.27-42.167,18.569c-12.733,5.729-24.06,13.179-34.996,21.804c-23.192,18.29-45.901,39.656-73.387,51.28
			c-27.715,11.72-57.164,16.45-85.599,25.823c-14.332,4.724-28.505,10.173-42.698,15.31c-2.648,0.958-8.219,2.418-9.652,5.294
			c-1.271,2.552,0.777,3.865,3.245,4.535c5.897,1.602,13.523-1.08,19.065-2.437c14.148-3.465,28.131-7.331,42.59-9.307
			c14.906-2.037,29.938-3.826,44.95-4.861c14.112-0.973,27.621-2.834,41.614-4.624c13.054-1.669,25.925-4.206,38.923-6.003
			c6.736-0.931,13.42,0.64,19.825,2.662c7.897,2.494,14.803,5.174,23.16,5.351"/>
	</g>
	<g id="POLYLINE_227_">
		
			<path fill="none" stroke="#FB8604" stroke-width="2.75" stroke-linecap="round" stroke-linejoin="round" stroke-miterlimit="10" d="
			M355.679,482.551c7.619,13.576,12.86,27.478,17.748,42.185c2.513,7.559,6.706,13.85,6.7,22.072
			c-0.005,6.921-2.698,13.511-2.11,20.423c1.057,12.437-0.268,25.666,2.129,37.913c0.708,3.615,2.21,7.046,2.45,10.751
			c0.204,3.143-0.646,6.262-0.432,9.394c0.306,4.467,2.783,11.336,6.325,14.242c1.692,1.388,3.406,1.122,5.405,1.87
			c2.693,1.008,6.089,3.453,7.737,5.787c0.723,1.024,2.011,3.885,1.034,5.07c-0.531,0.644-2.488,0.487-3.099,0.528
			c-6.277,0.42-12.755-0.389-19.067-0.262c-6.711,0.135-23.389,4.454-25.035-6.181c-0.597-3.857,0.333-7.892,0.252-11.782
			c-0.074-3.569-0.903-6.735-1.618-10.215c-1.112-5.419-1.185-10.993-2.313-16.417c-1.362-6.554-3.964-12.753-5.525-19.247
			c-1.017-4.233-1.28-8.562-1.393-12.903c-0.056-2.146,0.707-5.182-0.342-7.159c-1.009-1.901-4.101-2.422-4.654-4.739
			c-0.347-1.453,1.188-3.043,0.479-4.431c-0.872-1.708-4.179-1.684-5.778-2.601c-8.794-5.045-15.157-17.217-20.372-25.361
			c-5.302-8.279-9.729-18.293-11.771-27.933c-0.785-3.708-0.884-7.479-0.647-11.251"/>
	</g>
	<g id="POLYLINE_226_">
		
			<path fill="none" stroke="#FB8604" stroke-width="2.75" stroke-linecap="round" stroke-linejoin="round" stroke-miterlimit="10" d="
			M351.855,608.26c-3.653,7.829-9.661,14.467-11.204,23.038c-0.508,2.821-2.106,7.646,0.425,9.841
			c1.826,1.583,18.171,6.885,10.432,10.634c-3.581,1.735-8.998,1.142-12.797,1.173c-7.799,0.063-16.134,0.623-23.879-0.427
			c-1.862-0.253-4.159-0.51-4.964-2.453c-0.301-0.728-0.04-1.629,0.028-2.361c0.64-6.866,4.098-14.57,6.586-21.006
			c1.402-3.626,2.841-6.88,3.178-10.727c0.207-2.361,0.235-4.19,1.265-6.338c1.229-2.563,3.54-4.608,4.349-7.39
			c0.788-2.71,0.234-5.707,0.411-8.492c0.567-8.907,4.446-16.266,9.993-23.138c1.531-1.897,3.258-3.618,5.138-5.169"/>
	</g>
	<g id="POLYLINE_225_">
		
			<path fill="none" stroke="#FB8604" stroke-width="2.75" stroke-linecap="round" stroke-linejoin="round" stroke-miterlimit="10" d="
			M505.338,475.004c-1.13,6.278-3.436,12.422-6.668,17.922c-2.912,4.955-6.088,8.279-7.437,13.914
			c-3.946,16.49-14.881,30.586-14.748,47.892c0.106,13.778,1.795,28.06,3.865,41.656c1.055,6.929,3.834,13.149,4.182,20.185
			c0.292,5.917,1.427,15.125,4.834,19.869c0.694,0.966,1.205,1.33,2.285,1.84c2.204,1.041,4.724,0.445,6.721,2.083
			c1.001,0.821,1.628,1.981,2.664,2.864c1.994,1.701,6.792,5.762,4.318,8.885c-1.862,2.35-8.066,0.689-10.491,0.68
			c-10.016-0.037-20.032-0.052-30.048-0.086c-1.433-0.005-3.774,0.485-5.129-0.197c-1.336-0.673-1.495-1.48-1.987-2.875
			c-3.599-10.211-2.183-22.598-3.92-33.282c-1.964-12.083-6.099-23.125-9.084-34.885c-2.088-8.227-1.011-16.628-2.16-24.93
			c-2.078-15.005-3.052-29.736-3.841-44.898c-0.547-10.518-0.835-20.89,2.092-31.109c1.285-4.485,3.006-8.853,5.155-12.995"/>
	</g>
	<g id="POLYLINE_224_">
		
			<path fill="none" stroke="#FB8604" stroke-width="2.75" stroke-linecap="round" stroke-linejoin="round" stroke-miterlimit="10" d="
			M535.864,492.575c1.888,10.927,3.053,22.479,1.961,33.524c-1.13,11.429,0.679,21.191,3.573,32.305
			c2.544,9.772,3.649,20.364,7.464,29.737c2.444,6.002,6.273,11.355,8.036,17.649c2.39,8.53,3.336,17.378,5.775,25.965
			c0.64,2.252,0.822,5.912,2.769,7.659c1.431,1.285,3.331,0.995,5.087,1.545c2.742,0.858,5.213,2.748,6.825,5.123
			c2.265,3.337,2.657,6.265-1.701,6.727c-12.155,1.291-24.854-0.142-37.083-0.082c-1.558,0.008-3.734,0.409-4.984-0.862
			c-0.818-0.831-0.753-1.985-0.868-3.055c-0.376-3.499,0.099-6.926-0.485-10.466c-0.945-5.727-2.439-11.385-3.855-17.009
			c-3.205-12.728-6.679-25.455-11.526-37.668c-1.641-4.133-3.447-8.176-4.426-12.525c-0.644-2.86-0.832-6.018-2.053-8.733
			c-1.925-4.28-5.741-7.27-7.297-11.831c-1.424-4.173-3.08-6.938-5.034-10.96c-2.187-4.501-3.774-9.393-5.195-14.179"/>
	</g>
	<g id="POLYLINE_223_">
		
			<path fill="none" stroke="#FB8604" stroke-width="2.75" stroke-linecap="round" stroke-linejoin="round" stroke-miterlimit="10" d="
			M438.696,511.663c-20.52,10.977-44.003,11.179-66.7,8.463"/>
	</g>
	<g id="POLYLINE_222_">
		
			<path fill="none" stroke="#FB8604" stroke-width="2.75" stroke-linecap="round" stroke-linejoin="round" stroke-miterlimit="10" d="
			M601.42,144.466c-17.596-4.706-38.941-10.235-50.912,8.134c-5.453,8.368-6.281,18.707-6.1,28.429
			c0.309,16.615,3.253,33.196,5.893,49.568c3.663,22.712,7.5,45.403,10.988,68.142c2.875,18.744,5.2,37.686,4.569,56.685
			c-1.104,33.209-9.431,69.623-28.882,97.087c-6.869,9.699-16.751,16.946-22.718,27.244c-3.857,6.657-6.999,11.97-14.048,15.53
			c-1.434,0.724-2.918,1.353-4.42,1.92"/>
	</g>
	<g id="POLYLINE_218_">
		
			<path fill="none" stroke="#FB8604" stroke-width="2.75" stroke-linecap="round" stroke-linejoin="round" stroke-miterlimit="10" d="
			M309.072,521.785c-12.007-1.54-23.874-0.615-35.74,1.766c-13.483,2.706-25.798,8.93-39.057,12.39
			c-30.032,7.837-61.409,5.976-91.546,13.443c-16.905,4.188-33.931,8.685-50.137,15.118"/>
	</g>
</g>
<g id="AG-OUTLINE">
	<g id="POLYLINE_76_">
		
			<path fill="none" stroke="#FB8604" stroke-width="3.5" stroke-linecap="round" stroke-linejoin="round" stroke-miterlimit="10" d="
			M535.864,492.575c1.165-5.258,1.323-10.526,3.863-15.365c4.05-7.716,9.487-14.733,13.712-22.387
			c9.211-16.689,15.354-35.111,19.35-53.722c4.32-20.117,6.688-40.799,5.547-61.347c-1.193-21.461-3.447-42.951-7.182-64.123
			c-3.942-22.348-9.661-44.335-12.888-66.815c-2.079-14.481-4.7-30.174-0.652-44.565c1.786-6.349,5.436-13.969,11.237-17.549
			c3.386-2.089,7.543-2.113,11.39-2.358c6.657-0.423,13.582-1.25,20.209-0.072c1.679,0.298,16.688,3.368,12.553-4.226
			c-1.016-1.867-4.001-3.364-5.536-4.705c3.559,0.531,11.401,1.519,12.334-3.33c0.484-2.516-1.31-7.853-3.179-9.646
			c-2-1.919-4.868-1.471-7.456-1.489c-2.801-0.02-3.306,0.363-4.666-1.599c-2.89-4.171-1.3-11.027-5.004-15.129
			c-6.034-6.684-14.744-1.282-20.411,2.239c-4.107,2.552-7.441,2.13-11.971,3.213c-7.821,1.869-15.845,8.783-21.866,13.778
			c-11.702,9.706-16.751,24.796-18.594,39.429c-4.197,33.312,1.382,67.552,4.809,100.677c1.718,16.607,3.053,33.215,4.224,49.869
			c0.866,12.328,1.905,25.057-0.111,37.328c-1.93,11.748-6.868,32.288-19.903,37.048c-17.935,6.549-37.471-3.843-55.886-0.714
			c-12.454,2.116-23.248,8.009-34.477,13.449c-15.388,7.455-30.922,14.627-46.333,22.038c-15.223,7.321-31.1,13.21-46.335,20.495
			c-14.776,7.065-27.283,17.174-40.061,27.251c-13.439,10.598-26.721,21.541-40.722,31.402
			c-12.086,8.512-26.141,14.008-40.006,18.903c-15.656,5.526-31.81,9.063-47.866,13.184c-15.482,3.973-30.32,9.47-45.298,14.99
			c-6.931,2.554-14.084,4.629-20.918,7.422c-1.958,0.8-4.28,1.661-5.846,3.138c-0.696,0.656-1.776,1.507-1.737,2.604
			c0.198,5.613,12.839,2.853,15.204,2.389c15.304-3.003,30.139-7.923,45.576-10.355c16.294-2.567,32.875-4.362,49.328-5.527
			c7.8-0.552,15.657-0.691,23.423-1.652c7.106-0.879,14.089-2.493,21.207-3.304c7.77-0.885,15.53-1.744,23.234-3.11
			c5.51-0.977,11.037-2.789,16.668-2.901c8.816-0.174,17.082,3.528,25.31,6.135c3.515,1.114,7.077,1.776,10.755,2.044
			c3.151,0.229,3.599,0.72,5.626,3.291c1.243,1.577,2.523,3.143,3.944,4.566c1.573,1.575,3.294,3.113,5.348,4.031
			c1.076,0.481,2.982,0.41,3.801,1.208c1.524,1.485,0.241,1.95,0.335,3.913c0.057,1.197-0.185,1.877,0.876,2.828
			c-3.194,0-9.235,10.77-10.46,12.808c-1.87,3.11-3.209,6.475-3.96,10.029c-1.127,5.332,0.422,11.156-2.08,16.069
			c-1.336,2.625-3.55,4.702-4.304,7.611c-0.583,2.248-0.213,4.627-0.689,6.903c-1.322,6.323-4.651,12.414-6.5,18.642
			c-0.861,2.9-3.777,8.447-3.074,11.783c0.327,1.551,0.912,1.991,2.328,2.671c3.001,1.442,7.745,0.733,10.864,0.78
			c8.386,0.126,17.465,1.124,25.798-0.307c10.357-1.778,0.17-8.372-5.023-10.44c-2.937-1.169-3.63-0.859-3.847-4.113
			c-0.509-7.623,2.749-12.846,6.403-18.904c2.074-3.438,3.887-7.081,5.582-10.718c1.217,6.047,1.39,12.223,2.758,18.243
			c0.844,3.713,1.195,7.253,1.068,11.069c-0.137,4.126-1.61,10.102,1.968,13.353c4.377,3.976,13.082,1.865,18.039,1.711
			c7.756-0.241,15.533,0.409,23.26,0.164c0.757-0.024,3.155,0.213,3.799-0.622c3.815-4.949-9.114-10.451-11.675-11.341
			c-10.354-3.597-7.724-17.714-8.547-25.762c-0.419-4.102-2.161-7.933-2.716-12.024c-0.981-7.219-0.553-14.626-0.903-21.89
			c-0.274-5.698-1.325-11.74-1.085-17.452c0.201-4.793,1.873-9.447,2.208-14.248c0.115-1.64,0.131-3.286,0.031-4.928
			c20.654,3.22,40.284,2.021,60.141-4.693c0.677,8.861,2.526,17.343,2.741,26.241c0.137,5.686,0.589,11.391,2.159,16.878
			c2.843,9.935,6.156,19.37,8.016,29.597c1.867,10.261,2.242,20.626,3.543,30.955c0.427,3.389,0.147,7.879,3.714,9.129
			c4.145,1.452,10.997,0.148,15.299,0.188c6.145,0.057,12.29,0.009,18.435-0.013c2.588-0.009,8.742,1.598,10.824-0.345
			c3.798-3.544-4.107-10.028-6.373-11.929c-2.41-2.022-5.968-1.017-8.278-2.953c-1.32-1.106-1.661-3.091-2.157-4.62
			c-1.833-5.651-3.346-11.23-3.611-17.166c-0.245-5.488-2.272-10.142-3.455-15.471c-2.209-9.954-2.596-20.499-3.595-30.616
			c-1.198-12.125-2.034-23.627,3.142-34.893c1.052-2.289,2.041-5.498,4.007-6.792c2.049-1.35,5.909-1.836,8.234-2.588
			c2.225,7.476,5.817,13.448,8.88,20.352c1.731,3.903,2.172,7.536,4.785,11.111c3.751,5.134,4.496,8.003,5.937,14.345
			c2.421,10.651,7.717,20.73,10.815,31.254c3.488,11.851,7.108,24.032,9.037,36.252c0.551,3.49-0.872,9.062,0.694,12.112
			c0.459,0.894,0.883,1.276,1.785,1.701c1.154,0.544,3.066,0.16,4.194,0.147c6.606-0.078,13.22-0.045,19.827,0.011
			c5.561,0.047,11.65,0.941,17.183,0.055c0.727-0.116,2.025,0.1,2.604-0.544c0.775-0.863,0.383-2.522,0.126-3.489
			c-0.742-2.79-3.323-5.337-5.745-6.719c-2.028-1.157-4.478-0.84-6.425-1.883c-1.021-0.547-1.49-1.18-2.075-2.164
			c-1.274-2.142-1.499-5.216-2.196-7.586c-1.368-4.652-2.711-9.251-3.497-14.041c-1.06-6.456-1.959-12.082-4.8-17.99
			c-3.457-7.189-6.285-12.937-8.034-20.735c-3.215-14.337-7.862-28.238-8.946-42.86c-0.6-8.091,1.878-16.397,1.252-24.634
			c-0.166-2.191-0.957-4.149-1.214-6.311C536.586,500.068,536.515,496.342,535.864,492.575z"/>
	</g>
</g>
<g id="N-TEXT">
</g>
</svg>
