<?xml version="1.0" encoding="utf-8"?>
<!-- Generator: Adobe Illustrator 23.0.1, SVG Export Plug-In . SVG Version: 6.00 Build 0)  -->
<!DOCTYPE svg PUBLIC "-//W3C//DTD SVG 1.1//EN" "http://www.w3.org/Graphics/SVG/1.1/DTD/svg11.dtd" [
	<!ENTITY ns_flows "http://ns.adobe.com/Flows/1.0/">
	<!ENTITY ns_extend "http://ns.adobe.com/Extensibility/1.0/">
	<!ENTITY ns_ai "http://ns.adobe.com/AdobeIllustrator/10.0/">
	<!ENTITY ns_graphs "http://ns.adobe.com/Graphs/1.0/">
	<!ENTITY ns_vars "http://ns.adobe.com/Variables/1.0/">
	<!ENTITY ns_imrep "http://ns.adobe.com/ImageReplacement/1.0/">
	<!ENTITY ns_sfw "http://ns.adobe.com/SaveForWeb/1.0/">
	<!ENTITY ns_custom "http://ns.adobe.com/GenericCustomNamespace/1.0/">
	<!ENTITY ns_adobe_xpath "http://ns.adobe.com/XPath/1.0/">
]>
<svg version="1.1" xmlns:x="&ns_extend;" xmlns:i="&ns_ai;" xmlns:graph="&ns_graphs;"
	 xmlns="http://www.w3.org/2000/svg" xmlns:xlink="http://www.w3.org/1999/xlink" xmlns:a="http://ns.adobe.com/AdobeSVGViewerExtensions/3.0/"
	 x="0px" y="0px" viewBox="0 0 750 750" enable-background="new 0 0 750 750" xml:space="preserve">
<metadata>
	<sfw  xmlns="&ns_sfw;">
		<slices></slices>
		<sliceSourceBounds  bottomLeftOrigin="true" height="8853.359" width="5416.134" x="-3044.634" y="-1325"></sliceSourceBounds>
	</sfw>
</metadata>
<g id="FILL-BACKGROUND">
	<rect x="0.5" y="-0.5" fill="#FFFFFF" width="750" height="750"/>
</g>
<g id="N-DIMENSIONS">
</g>
<g id="AG-DIAGRAM">
</g>
<g id="AG-PEOPLE">
</g>
<g id="AG-DETAILS">
</g>
<g id="AG-ANIMALS">
	<g id="POLYLINE_1456_">
		
			<path fill="none" stroke="#FB8604" stroke-width="2.75" stroke-linecap="round" stroke-linejoin="round" stroke-miterlimit="10" d="
			M458.968,436.408c3.406-1.446,5.406-4.309,8.529-6.091c4.877-2.784,10.871-4.061,16.099-6.109
			c6.623-2.594,13.25-5.329,19.734-8.251c2.852-1.285,4.248-3.015,6.683-4.583c2.682-1.726,6.118-1.576,8.932-3.04
			c4.17-2.169,6.654-6.15,11.069-8.239"/>
	</g>
	<g id="POLYLINE_1455_">
		
			<path fill="none" stroke="#FB8604" stroke-width="2.75" stroke-linecap="round" stroke-linejoin="round" stroke-miterlimit="10" d="
			M405.487,450.459c-6.764-6.399-15.52-10.328-24.731-11.706c-5.071-0.758-10.109,0.586-15.155,0.087
			c-3.525-0.348-6.507-2.075-9.787-3.345c-6.796-2.631-14.789-3.154-21.896-4.351c-3.124-0.526-6.222,0.341-9.469,0.103
			c-31.428-2.31-62.996-7.052-93.345-15.399c-8.799-2.42-17.742-4.562-26.505-7.017c-5.02-1.406-9.845-2.74-14.838-4.259
			c-1.251-0.381-2.254-0.378-3.539-0.602c-22.005-3.838-42.631-13.088-65.528-12.589c-9.786,0.213-20.427,1.925-29.318,6.166
			c-7.552,3.602-15.644,7.311-22.74,11.744c-2.166,1.353-5.021,5.356-7.262,5.957c-1.203,0.323-1.898,0.741-2.108-0.986
			c-0.265-2.169,4.547-5.532,5.752-7.009c1.776-2.177,3.224-4.487,5.423-6.243c3.263-2.605,6.103-5.224,9.67-7.473
			c2.419-1.526,4.236-3.566,6.545-5.168c6.584-4.567,15.284-7.846,22.681-10.967c9.563-4.035,20.35-5.625,30.69-5.498
			c10.154,0.125,20.293-0.592,30.447-0.482c7.664,0.083,14.903,1.385,22.491,2.154c9.463,0.96,19.035,0.984,28.525,1.822
			c7.55,0.667,15.415,1.088,22.988,0.548c5.49-0.392,10.832-0.176,16.305-0.466c3.743-0.199,7.245-1.578,10.97-1.977
			c12.277-1.314,23.763-6.235,35.998-7.533c5.165-0.548,7.272-1.216,11.392-2.794c3.322-1.272,7.037-0.253,10.471-1.475
			c3.451-1.228,6.118-2.949,9.764-3.555c3.857-0.641,7.512-0.617,11.102-2.248c6.949-3.158,12.971-8.225,19.862-11.573
			c2.493-1.211,5.281-1.85,7.572-3.424c2.493-1.714,4.099-3.881,6.877-5.234c5.843-2.845,12.492-3.848,18.592-6.015
			c5-1.777,8.072-2.771,13.363-3.139c4.86-0.338,10.033,0.137,14.801-0.877c3.659-0.778,6.879-2.325,10.62-2.779
			c3.872-0.47,6.962-0.971,10.512-2.613c8.066-3.731,16.968-4.606,24.846-8.413c5.857-2.83,8.458-1.784,15.377-1.988
			c10.311-0.304,20.371-0.444,30.692-0.121c5.844,0.183,12.073,0.412,17.788-1.099c3.013-0.797,5.524-2.052,7.916-4.05
			c2.324-1.942,6.474-4.934,8.396-7.398c1.228-1.574,1.257-3.37,2.749-4.947c2.026-2.142,2.245-2.577,3.839-4.978
			c0.794-1.196,2.134-2.946,3.148-3.944c1.709-1.682,4.148-2.239,5.645-4.033c1.633-1.956,1.323-4.193,3.962-5.23
			c2.024-0.795,6.098-1.67,8.214-2.138c5.018-1.112,10.984,1.628,15.455,3.535c5.74,2.45,11.416,2.02,17.425,3.72"/>
	</g>
	<g id="POLYLINE_1454_">
		
			<path fill="none" stroke="#FB8604" stroke-width="2.75" stroke-linecap="round" stroke-linejoin="round" stroke-miterlimit="10" d="
			M525.142,350.01c2.663,2.854,2.364,8.289,2.406,11.89c0.03,2.584-1.565,3.679-2.461,6.012c-1.065,2.771-0.637,5.942-1.276,8.892
			c-1.124,5.186-2.045,12.285-0.124,17.4c2.663,7.091,12.957,7.633,19.521,9.721c4.437,1.412,6.829,0.072,11.115,0.064
			c2.869-0.005,6.979,2.455,9.231,1.234c4.095-2.221,2.674-8.546-0.6-10.651c-2.274-1.462-6.706-1.354-9.008,0.102
			c-1.549,0.98-1.872,2.923-3.822,3.178c-1.691,0.222-5.514-1.728-7.228-2.481c-3.277-1.439-6.221-4.943-9.6-6.058
			c-0.534-0.176-1.046-0.244-1.607-0.201"/>
	</g>
	<g id="POLYLINE_1453_">
		
			<path fill="none" stroke="#FB8604" stroke-width="2.75" stroke-linecap="round" stroke-linejoin="round" stroke-miterlimit="10" d="
			M533.937,389.615c1.768-2.179,3.605-4.424,5.154-6.724c0.541-0.804,0.237-1.669,0.949-2.443c0.656-0.713,1.981-0.641,2.752-1.285
			c1.059-0.885,1.563-2.2,2.442-3.237c2.299-2.715,5.322-5.221,5.966-8.993c0.516-3.021-1.305-5.119-1.922-7.88
			c-1.145-5.124-1.691-7.553-7.023-10.673"/>
	</g>
	<g id="POLYLINE_1452_">
		
			<path fill="none" stroke="#FB8604" stroke-width="2.75" stroke-linecap="round" stroke-linejoin="round" stroke-miterlimit="10" d="
			M540.318,393.773c4.234-3.727,9.327-8.251,12.555-12.92c2.873-4.155,3.381-9.672,6.723-13.503c2.39-2.74,5.817-4.198,9.327-4.818
			c4.859-0.858,9.713,1.516,14.346,0.591c3.125-0.624,7.635-2.374,10.191-4.222c4.822-3.487,7.562-3.805,13.66-3.403
			c2.071,0.137,3.958,1.069,6.001,1.162c2.226,0.101,3.914-0.642,6.176-0.181c8.031,1.636,16.801,7.216,23.368,11.897
			c2.05,1.461,3.676,3.132,6.279,3.171c2.184,0.032,11.047-2.439,10.786-5.946c-0.199-2.678-6.172-4.138-7.975-5.205
			c-5.635-3.333-11.064-7.126-14.86-12.57c-3.031-4.345-3.387-9.287-5.667-13.913c-2.528-5.127-6.728-10.777-10.328-15.256
			c-4.78-5.948-9.037-9.083-15.189-12.976c-0.598-0.378-1.826-0.47-2.486-0.525c0.872-1.859,6.096,0.451,7.287,0.721
			c6.055,1.373,9.661,4.601,14.759,8.34c2.681,1.966,5.593,5.514,9.206,5.794c2.726,0.211,7.008-2.569,9.315-3.658
			c4.141-1.955,5.158-2.789,9.913-1.646c3.575,0.859,7.098,2.237,10.659,2.906c5.837,1.095,20.243,2.352,25.682-3.021
			c2.486-2.456,1.557-6.313,0.636-9.459c-1.956-6.677-6.941-14.218-13.529-17.036c-2.285-0.977-5.551-1.78-7.971-2.448
			c-1.873-0.518-3.621-1.215-5.397-1.701c-4.665-1.277-9.889,1.454-14.538,0.741c-2.162-0.332-5.495-2.031-7.301-3.364
			c-2.942-2.173-5.78-7.527-10.058-7.373c-6.067,0.218-10.901,4.522-16.429,6.477c-4.5,1.591-8.264,0.256-9.763,5.635
			c-1.054,3.784,2.564,8.149,0.824,11.397c-0.391,0.729-1.186,1.34-1.922,1.682"/>
	</g>
	<g id="POLYLINE_1451_">
		
			<path fill="none" stroke="#FB8604" stroke-width="2.75" stroke-linecap="round" stroke-linejoin="round" stroke-miterlimit="10" d="
			M565.322,403.014c2.091,0.112,6.49,4.782,7.076,4.619c1.872-0.521-0.747-5.883-1.637-6.881c-1.331-1.492-3.432-2.47-5.353-2.889"
			/>
	</g>
	<g id="POLYLINE_1450_">
		
			<path fill="none" stroke="#FB8604" stroke-width="2.75" stroke-linecap="round" stroke-linejoin="round" stroke-miterlimit="10" d="
			M590.174,330.459c1.389,4.749,3.998,7.067,7.196,10.475c4.573,4.873,7.896,9.398,14.048,12.637"/>
	</g>
	<g id="POLYLINE_1449_">
		
			<path fill="none" stroke="#FB8604" stroke-width="2.75" stroke-linecap="round" stroke-linejoin="round" stroke-miterlimit="10" d="
			M667.981,317.806c-0.204,2.844-1.478,5.309-1.909,8.032c1.659,1.183,5.467-6.443,5.768-7.869"/>
	</g>
	<g id="POLYLINE_1448_">
		
			<path fill="none" stroke="#FB8604" stroke-width="2.75" stroke-linecap="round" stroke-linejoin="round" stroke-miterlimit="10" d="
			M671.839,317.969c0.09,3.291-0.93,6.449-2.835,9.097c2.462,1.955,6.558-7.651,6.725-8.966"/>
	</g>
	<g id="POLYLINE_1447_">
		
			<path fill="none" stroke="#FB8604" stroke-width="2.75" stroke-linecap="round" stroke-linejoin="round" stroke-miterlimit="10" d="
			M675.729,318.099c0.03,2.643-0.736,4.778-1.53,7.21c2.049,0.481,3.805-6.104,3.933-7.184"/>
	</g>
	<g id="POLYLINE_1446_">
		
			<path fill="none" stroke="#FB8604" stroke-width="2.75" stroke-linecap="round" stroke-linejoin="round" stroke-miterlimit="10" d="
			M678.573,318.122c-0.111,3.184-1.424,6.181-3.03,8.858c2.667,2.554,7.192-7.803,7.259-9.335"/>
	</g>
	<g id="POLYLINE_1445_">
		
			<path fill="none" stroke="#FB8604" stroke-width="2.75" stroke-linecap="round" stroke-linejoin="round" stroke-miterlimit="10" d="
			M683.278,317.485c0.241,3.009-1.338,5.413-2.839,7.88c1.713,1.574,6.303-7.726,6.384-9.257"/>
	</g>
	<g id="POLYLINE_1444_">
		
			<path fill="none" stroke="#FB8604" stroke-width="2.75" stroke-linecap="round" stroke-linejoin="round" stroke-miterlimit="10" d="
			M685.227,320.71c2.868-0.004,3.944-4.229,4.879-6.167"/>
	</g>
	<g id="POLYLINE_1443_">
		
			<path fill="none" stroke="#FB8604" stroke-width="2.75" stroke-linecap="round" stroke-linejoin="round" stroke-miterlimit="10" d="
			M662.123,317.098c-0.611,2.082-3.946,8.143-0.199,5.185c1.345-1.062,2.22-3.094,2.762-4.642"/>
	</g>
	<g id="POLYLINE_1442_">
		
			<path fill="none" stroke="#FB8604" stroke-width="2.75" stroke-linecap="round" stroke-linejoin="round" stroke-miterlimit="10" d="
			M665.411,317.69c0.289,1.303-1.037,7.861,1.71,1.974c0.272-0.584,0.423-1.232,0.404-1.878"/>
	</g>
	<g id="POLYLINE_1441_">
		
			<path fill="none" stroke="#FB8604" stroke-width="2.75" stroke-linecap="round" stroke-linejoin="round" stroke-miterlimit="10" d="
			M655.988,315.468c-2.357,3.13-3.053,7.514,1.726,2.887c0.744-0.72,1.439-1.371,1.972-2.278"/>
	</g>
	<g id="POLYLINE_1440_">
		
			<path fill="none" stroke="#FB8604" stroke-width="2.75" stroke-linecap="round" stroke-linejoin="round" stroke-miterlimit="10" d="
			M658.49,317.655c-0.109,1.099-0.094,1.958-0.718,2.917c1.12,0.917,3.63-3.238,3.86-3.742"/>
	</g>
	<g id="POLYLINE_1439_">
		
			<path fill="none" stroke="#FB8604" stroke-width="2.75" stroke-linecap="round" stroke-linejoin="round" stroke-miterlimit="10" d="
			M653.468,314.635c-0.127,0.64-1.852,3.313-1.89,3.251c0.739,1.211,3.635-2.03,4.042-2.522"/>
	</g>
	<g id="POLYLINE_1438_">
		
			<path fill="none" stroke="#FB8604" stroke-width="2.75" stroke-linecap="round" stroke-linejoin="round" stroke-miterlimit="10" d="
			M650.349,314.011c-0.287,1.341-1.032,2.625-1.98,3.578c0.892,1.403,3.539-2.789,3.709-3.312"/>
	</g>
	<g id="POLYLINE_1437_">
		
			<path fill="none" stroke="#FB8604" stroke-width="2.75" stroke-linecap="round" stroke-linejoin="round" stroke-miterlimit="10" d="
			M641.91,353.461c1.626-1.434,2.636-6.516,4.221-6.903c2.299-0.561,0.43,6.231,0.242,7"/>
	</g>
	<g id="POLYLINE_1436_">
		
			<path fill="none" stroke="#FB8604" stroke-width="2.75" stroke-linecap="round" stroke-linejoin="round" stroke-miterlimit="10" d="
			M644.579,355.695c1.635-1.426,3.818-9.183,5.01-4.934c0.366,1.305-0.628,3.282-1.082,4.514"/>
	</g>
	<g id="POLYLINE_1435_">
		
			<path fill="none" stroke="#FB8604" stroke-width="2.75" stroke-linecap="round" stroke-linejoin="round" stroke-miterlimit="10" d="
			M656.482,362.997c2.26-1.61,3.265-5.858,2.298,1.204"/>
	</g>
	<g id="POLYLINE_1434_">
		
			<path fill="none" stroke="#FB8604" stroke-width="2.75" stroke-linecap="round" stroke-linejoin="round" stroke-miterlimit="10" d="
			M653.997,361.711c1.178-1.259,1.751-3.016,2.934-4.157c0.736,0.68,0.222,3.9,0.232,4.901"/>
	</g>
	<g id="POLYLINE_1433_">
		
			<path fill="none" stroke="#FB8604" stroke-width="2.75" stroke-linecap="round" stroke-linejoin="round" stroke-miterlimit="10" d="
			M651.399,360.183c1.425-1.324,2.033-4.848,3.492-3.079c0.631,0.765,0.222,2.784-0.053,3.6"/>
	</g>
	<g id="POLYLINE_1432_">
		
			<path fill="none" stroke="#FB8604" stroke-width="2.75" stroke-linecap="round" stroke-linejoin="round" stroke-miterlimit="10" d="
			M648.805,358.603c3.455-2.613,2.774-5.774,2.872,1.321"/>
	</g>
	<g id="POLYLINE_1431_">
		
			<path fill="none" stroke="#FB8604" stroke-width="2.75" stroke-linecap="round" stroke-linejoin="round" stroke-miterlimit="10" d="
			M646.81,357.3c0.908-1.438,2.297-2.462,3.411-3.666c1.073,0.45-0.099,3.5-0.45,4.085"/>
	</g>
	<g id="POLYLINE_1430_">
		
			<path fill="none" stroke="#FB8604" stroke-width="2.75" stroke-linecap="round" stroke-linejoin="round" stroke-miterlimit="10" d="
			M634.877,344.461c1.421-2.381,5.093-5.141,3.654-0.506c-0.369,1.188-1.224,2.357-2.042,3.278"/>
	</g>
	<g id="POLYLINE_1429_">
		
			<path fill="none" stroke="#FB8604" stroke-width="2.75" stroke-linecap="round" stroke-linejoin="round" stroke-miterlimit="10" d="
			M636.488,347.233c4.826-4.159,5.328-1.38,1.841,2.474"/>
	</g>
	<g id="POLYLINE_1428_">
		
			<path fill="none" stroke="#FB8604" stroke-width="2.75" stroke-linecap="round" stroke-linejoin="round" stroke-miterlimit="10" d="
			M638.783,350.244c1.391-0.759,3.504-4.329,4.157-3.909c1.167,0.752-1.049,5.776-1.543,6.646"/>
	</g>
	<g id="POLYLINE_1427_">
		
			<path fill="none" stroke="#FB8604" stroke-width="2.75" stroke-linecap="round" stroke-linejoin="round" stroke-miterlimit="10" d="
			M633.462,340.963c1.017,0.002,2.9-1.573,3.374-0.992c0.649,0.795-1.823,3.532-2.219,3.954"/>
	</g>
	<g id="POLYLINE_1425_">
		
			<path fill="none" stroke="#FB8604" stroke-width="2.75" stroke-linecap="round" stroke-linejoin="round" stroke-miterlimit="10" d="
			M632.828,338.626c2.555-0.482,4.018-0.028,1.319,2.333"/>
	</g>
	<g id="POLYLINE_1424_">
		
			<path fill="none" stroke="#FB8604" stroke-width="2.75" stroke-linecap="round" stroke-linejoin="round" stroke-miterlimit="10" d="
			M634.904,338.315c-2.927-5.331-0.542-11.418,3.518-15.507c3.118-3.14,6.875-5.608,10.034-8.746"/>
	</g>
	<g id="POLYLINE_1423_">
		
			<path fill="none" stroke="#FB8604" stroke-width="2.75" stroke-linecap="round" stroke-linejoin="round" stroke-miterlimit="10" d="
			M635.885,340.058c-0.17-0.283-0.337-0.569-0.501-0.856"/>
	</g>
	<g id="POLYLINE_1422_">
		
			<path fill="none" stroke="#FB8604" stroke-width="2.75" stroke-linecap="round" stroke-linejoin="round" stroke-miterlimit="10" d="
			M637.217,342.114c-0.222-0.324-0.441-0.65-0.656-0.979"/>
	</g>
	<g id="POLYLINE_1421_">
		
			<path fill="none" stroke="#FB8604" stroke-width="2.75" stroke-linecap="round" stroke-linejoin="round" stroke-miterlimit="10" d="
			M639.449,345.091c-0.308-0.381-0.612-0.767-0.91-1.156"/>
	</g>
	<g id="POLYLINE_1420_">
		
			<path fill="none" stroke="#FB8604" stroke-width="2.75" stroke-linecap="round" stroke-linejoin="round" stroke-miterlimit="10" d="
			M644.249,350.161c-0.48-0.442-0.952-0.891-1.417-1.348"/>
	</g>
	<g id="POLYLINE_1419_">
		
			<path fill="none" stroke="#FB8604" stroke-width="2.75" stroke-linecap="round" stroke-linejoin="round" stroke-miterlimit="10" d="
			M641.568,347.517c-0.371-0.394-0.734-0.796-1.09-1.204"/>
	</g>
	<g id="POLYLINE_1418_">
		
			<path fill="none" stroke="#FB8604" stroke-width="2.75" stroke-linecap="round" stroke-linejoin="round" stroke-miterlimit="10" d="
			M443.733,540.599c7.06-0.628,15.607,3.747,16.67,11.349c0.785,5.619-2.323-0.55-5.627-1.472c-2.217-0.619-4.314-0.546-6.347,0.615
			"/>
	</g>
	<g id="POLYLINE_1417_">
		
			<path fill="none" stroke="#FB8604" stroke-width="2.75" stroke-linecap="round" stroke-linejoin="round" stroke-miterlimit="10" d="
			M425.173,551c-2.604,0.115-4.496-10.08,0.806-9.547c3.738,0.375,7.872,6.855,8.143,10.219c0.388,4.813-0.655,1.552-2.625-0.062
			C429.55,550.014,427.482,550.101,425.173,551z"/>
	</g>
	<g id="POLYLINE_1416_">
		
			<path fill="none" stroke="#FB8604" stroke-width="2.75" stroke-linecap="round" stroke-linejoin="round" stroke-miterlimit="10" d="
			M427.208,541.994c-0.265-2.391-5.928-2.389-7.714-2.811c-4.393-1.037-5.56-0.905-7.183-6.143
			c-1.159-3.739-0.527-8.04-1.072-11.932"/>
	</g>
	<g id="POLYLINE_1415_">
		
			<path fill="none" stroke="#FB8604" stroke-width="2.75" stroke-linecap="round" stroke-linejoin="round" stroke-miterlimit="10" d="
			M360.39,374.517c-0.568,6.49,0.891,11.871,3.635,17.716c3.466,7.383,6.191,14.885,11.728,21.029
			c4.777,5.301,10.506,8.587,16.404,12.365c2.712,1.737,4.664,4.325,7.774,5.382c3.594,1.221,8.383,1.453,10.922,4.992
			c2.781,3.875-3.06,7.924-4.479,11.421c-2.633,6.493-1.944,14.061-3.497,20.853c-1.392,6.087-3.381,12.85-6.88,18.095
			c-3.709,5.558-8.957,6.852-9.2,14.103c-0.325,9.716,7.304,17.27,6.575,27.35c-0.258,3.56-0.945,6.056,0.394,9.408
			c1.401,3.507,2.328,8.168,4.169,11.328c2.105,3.614,5.458,5.959,9.535,6.332c4.407,0.403,9.058-0.035,13.503,0.02
			c1.38,0.017,3.409,0.358,4.749-0.245c1.129-0.508,1.698-0.893,2.22-2.043c0.301-0.662,0.382-1.598,0.358-2.306"/>
	</g>
	<g id="POLYLINE_1414_">
		
			<path fill="none" stroke="#FB8604" stroke-width="2.75" stroke-linecap="round" stroke-linejoin="round" stroke-miterlimit="10" d="
			M426.829,554.186c5.706,0.474,10.923-0.014,16.509-0.028c1.105-0.003,4.21,1.188,5.307,0.106c1.752-1.728-0.544-2.958-1.352-4.235
			c-1.988-3.141-1.594-8.218-4.569-10.468c-3.616-2.735-9.626-0.508-13.655-1.29c-6.639-1.287-11.596-11.941-13.538-17.381
			c-2.995-8.394-3.278-19.201,2.299-26.473c4.323-5.637,9.48-9.21,14.662-13.82c6.251-5.562,13.083-13.101,17.675-20.074
			c2.595-3.941,3.458-8.63,5.741-12.686c0.831-1.476,1.997-2.537,2.549-4.162c1.554-4.577,1.054-11.231,1.438-16.119
			c0.487-6.182-1.726-12.215-2.673-18.243c-1.266-8.052-0.88-16.351-2.942-24.277c-1.528-5.873-3.635-12.296-5.954-17.924
			c-0.774-1.878-1.895-3.626-3.165-5.203"/>
	</g>
</g>
<g id="AG-OUTLINE">
	<g id="POLYLINE_1413_">
		
			<path fill="none" stroke="#FB8604" stroke-width="3.5" stroke-linecap="round" stroke-linejoin="round" stroke-miterlimit="10" d="
			M690.106,314.543c3.44-2.69,0.727-8.866-0.569-12.081c-1.78-4.415-4.53-8.958-8.468-11.742c-3.692-2.61-7.698-3.912-11.923-5.084
			c-2.113-0.586-4.514-1.652-6.643-1.997c-2.616-0.424-7.231,0.329-9.988,0.622c-3.427,0.364-6.001-0.222-9.173-1.94
			c-4.331-2.345-6.793-8.85-12.301-8.2c-3.977,0.47-7.744,2.357-11.495,3.897c-3.425,1.406-10.583,0.41-14.635-0.667
			c-4.427-1.177-8.567-3.733-13.053-5.006c-2.863-0.813-5.387-0.849-8.174,0.071c-1.939,0.64-4.839,0.934-6.621,1.623
			c-1.67,0.646-2.14,1.61-3.092,3.097c-1.868,2.918-1.439,2.31-4.397,4.397c-2.254,1.59-4.013,4.069-5.495,6.277
			c-1.76,2.621-3.812,4.781-5.573,7.468c-5.009,7.644-13.421,13.492-22.875,14.29c-13.948,1.178-28.268-0.221-42.283,0.261
			c-4.002,0.138-8.482-1.226-12.342,0.028c-5.33,1.732-10.385,4.901-15.936,6.188c-5.315,1.232-9.126,3.045-14.421,5.128
			c-5.21,2.049-10.969,1.953-16.344,3.655c-7.52,2.381-15.529,0.651-23.229,2.161c-8.001,1.569-17.305,4.94-24.778,8.032
			c-3.822,1.581-5.946,4.503-9.379,6.53c-3.04,1.796-6.678,2.759-9.817,4.482c-5.475,3.004-10.524,6.92-16.143,9.63
			c-4.992,2.407-10.573,1.671-15.725,3.465c-2.456,0.856-4.621,2.452-7.161,3.088c-2.267,0.567-4.635-0.003-6.874,0.458
			c-1.66,0.342-2.078,1.035-3.567,1.673c-3.909,1.675-8.199,1.284-12.388,1.919c-16.948,2.568-32.869,9.589-50.237,9.029
			c-9.947-0.321-19.762,0.925-29.814,0.37c-13.84-0.764-27.765-1.591-41.498-3.43c-13.86-1.856-27.891-0.128-41.803-0.293
			c-8.767-0.103-17.713,0.662-26.174,3.116c-9.619,2.79-21.114,7.706-29.211,13.412c-3.438,2.422-7.713,5.108-10.778,7.877
			c-2.001,1.808-3.863,3.373-5.935,5.141c-1.682,1.436-2.838,3.344-4.205,5.061c-1.371,1.723-5.99,5.038-6.14,7.17
			c-0.367,5.203,6.38-2.51,7.313-3.174c4.393-3.13,9.526-5.122,14.295-7.581c4.675-2.411,9.22-5.258,14.172-7.094
			c7.623-2.826,16.399-4.172,24.515-4.462c11.975-0.428,23.538,1.87,35.076,4.718c7.888,1.947,16.077,3.292,23.836,5.716
			c8.693,2.716,17.625,4.52,26.372,7.103c15.607,4.61,31.826,9.68,47.895,12.599c11.155,2.026,22.573,4.417,33.855,5.519
			c13.495,1.318,27.94,5.199,41.508,4.373c1.852-0.113,3.405-0.678,5.239-0.413c2.428,0.35,4.688,1.533,7.201,1.839
			c3.311,0.403,6.663,0.301,9.938,1.006c5.22,1.123,9.75,4.514,15.096,4.982c8.237,0.721,14.912-0.698,22.991,1.896
			c5.456,1.752,16.007,5.542,16.395,11.599c0.529,8.262-2.491,18.515-5.435,26.236c-2.449,6.424-5.498,9.285-9.947,14.07
			c-1.506,1.62-2.297,3.106-2.731,5.303c-2.071,10.48,7.116,19.163,6.341,29.87c-0.303,4.192-0.816,6.533,0.866,10.364
			c1.543,3.513,2.011,7.874,4.108,11.038c5.138,7.753,13.271,5.456,21.486,5.648c3.536,0.083,6.73-0.613,10.14-0.441
			c4.961,0.25,11.747,0.987,16.668,0.117c1.865-0.33,3.843-1.395,1.788-3.459c3.098-1.77,7.083-1.089,9.802,1.111
			c0.426,0.344,1.668,2.971,2.454,2.554c1.116-0.593-1.323-6.23-1.812-7.078c-3.396-5.885-9.862-5.864-15.329-7.351
			c-1.143-0.311-2.185-1.223-3.593-1.509c-3.495-0.711-6.936-0.086-10.311-0.528c-6.899-0.904-11.646-11.081-13.794-16.643
			c-3.342-8.652-3.731-19.884,2.138-27.422c9.919-12.737,24.812-20.766,33.082-35.191c2.214-3.861,3.234-8.255,5.438-12.095
			c1.195-2.082,1.949-2.907,2.308-5.381c0.188-1.3-0.421-3.857,0.154-4.883c0.426-0.762,1.843-1.017,2.634-1.623
			c1.477-1.133,2.753-2.579,4.242-3.663c6.672-4.859,16.205-6.44,23.792-9.636c6.246-2.632,13.386-4.696,18.84-8.822
			c1.846-1.396,2.278-2.026,4.609-2.806c3.96-1.326,6.401-1.75,9.428-4.595c4.113-3.865,6.786-6.112,12.673-4.174
			c3.775,1.243,8.314,3.88,12.365,3.872c2.766-0.005,4.438-1.575,7.288-1.358c1.901,0.145,5.464,2.175,7.107,2.044
			c3.2-0.255,2.419-4.047,6.429-1.987c2.286,1.175,6.005,6.689,4.097,0.063c-1.2-4.166-5.447-5.503-8.216-7.97
			c-2.366-2.107-3.965-2.822-7.376-2.272c-2.916,0.47-2.892,2.353-5.234,3.524c-2.585,1.293-5.192-0.783-7.73-1.792
			c-1.544-0.614-2.401-0.14-3.594-1.706c3.929-3.454,7.877-7.403,11.329-11.324c3.309-3.759,3.962-8.964,6.529-13.128
			c2.898-4.701,8.069-6.772,13.433-7.101c3.811-0.234,7.763,1.601,11.469,0.933c1.432-0.258,2.431-1.215,3.773-1.703
			c4.214-1.532,5.095-2.115,8.797-4.547c5.678-3.729,14.404-0.659,20.69-0.734c9.487-0.113,20.126,7.987,27.504,13.128
			c4.014,2.797,6.121,2.523,10.747,0.516c2.544-1.104,4.701-1.925,5.074-4.659c-0.005,0.04-0.848-4.385-0.776-4.221
			c-1.052-2.404-0.351,0.464-1.026,0.089c0.254,0.142-0.651,1.274-0.698,1.433c-0.019-1.612,0.013-3.371-0.25-4.907
			c-0.796,0.013-1.701,2.537-2.075,3.157c0.336-0.785,0.648-2.909,0.038-3.649c-1.39-1.688-1.949,1.56-3.199,2.868
			c-0.046-3.495,0.588-6.934-1.907-2.204c0.806-1.185,0.993-2.814,0.457-4.084c-0.002,0-1.802,1.749-1.721,1.64
			c0.225-0.61,2.098-4.993,0.646-5.73c-1.681-0.854-2.073,2.696-2.78,4.012c1.121-4.594,1.064-10.577-2.124-3.397
			c-1.617-0.928-0.705-6.145-2.682-2.644c-0.765-1.137-0.35-1.912-0.944-2.733c-0.127-0.175-0.892,0.139-0.885,0.155
			c0.073,0.173-1.025-0.702-1.199-1.004c-0.126-0.218,0.767-1.3,0.569-1.52c0.192,0.213-0.68-1.371-0.509-1.061
			c-0.043-0.078-1.282,0.68-1.275,0.687c-0.271-0.266-0.483-1.427-0.545-1.485c-0.622-0.578-1.206-1.797-1.589-2.38
			c-1.923-2.923-2.086-5.858-0.602-9.635c1.169-2.975,3.144-5.2,5.542-7.259c2.207-1.894,7.089-7.95,10.22-7.273
			c0.282,0-1.662,3.259-1.98,3.578c0.997,1.57,3.624-3.184,3.671-3.199c3.126-0.968-0.817,3.461,0.07,3.739
			c0.965,0.303,3.271-2.359,3.877-2.661c0.302,0-6.284,9.856,2.502,2.186c-0.112,1.127-0.136,1.917-0.718,2.917
			c1.12,0.917,3.63-3.238,3.86-3.742c1.052,2.159-1.083,3.288-1.176,5.265c-0.035,0.744-1.236,1.852,0.753,0.794
			c1.694-0.901,3.644-6.215,4.221-4.484c0.246,0.738-0.908,3.374-0.534,3.512c1.242,0.46,2.656-3.18,2.629-4.131
			c1.286,1.735-1.093,5.773-1.454,8.051c1.659,1.183,5.467-6.443,5.768-7.869c0.09,3.291-0.93,6.449-2.835,9.097
			c2.462,1.955,6.558-7.651,6.725-8.966c0.03,2.643-0.736,4.778-1.53,7.21c2.034,0.477,3.96-6.667,4.374-7.187
			c-0.111,3.184-1.424,6.181-3.03,8.858c0.805,0.771,4.674-2.854,5.198-3.527c1.403-1.807,1.505-4.44,2.537-5.967
			c0.241,3.009-1.338,5.413-2.839,7.88C682.264,327.041,689.714,315.357,690.106,314.543z"/>
	</g>
</g>
<g id="N-TEXT">
</g>
</svg>
