<?xml version="1.0" encoding="utf-8"?>
<!-- Generator: Adobe Illustrator 23.0.1, SVG Export Plug-In . SVG Version: 6.00 Build 0)  -->
<!DOCTYPE svg PUBLIC "-//W3C//DTD SVG 1.1//EN" "http://www.w3.org/Graphics/SVG/1.1/DTD/svg11.dtd" [
	<!ENTITY ns_flows "http://ns.adobe.com/Flows/1.0/">
	<!ENTITY ns_extend "http://ns.adobe.com/Extensibility/1.0/">
	<!ENTITY ns_ai "http://ns.adobe.com/AdobeIllustrator/10.0/">
	<!ENTITY ns_graphs "http://ns.adobe.com/Graphs/1.0/">
	<!ENTITY ns_vars "http://ns.adobe.com/Variables/1.0/">
	<!ENTITY ns_imrep "http://ns.adobe.com/ImageReplacement/1.0/">
	<!ENTITY ns_sfw "http://ns.adobe.com/SaveForWeb/1.0/">
	<!ENTITY ns_custom "http://ns.adobe.com/GenericCustomNamespace/1.0/">
	<!ENTITY ns_adobe_xpath "http://ns.adobe.com/XPath/1.0/">
]>
<svg version="1.1" xmlns:x="&ns_extend;" xmlns:i="&ns_ai;" xmlns:graph="&ns_graphs;"
	 xmlns="http://www.w3.org/2000/svg" xmlns:xlink="http://www.w3.org/1999/xlink" xmlns:a="http://ns.adobe.com/AdobeSVGViewerExtensions/3.0/"
	 x="0px" y="0px" viewBox="0 0 750 750" enable-background="new 0 0 750 750" xml:space="preserve">
<metadata>
	<sfw  xmlns="&ns_sfw;">
		<slices></slices>
		<sliceSourceBounds  bottomLeftOrigin="true" height="8853.359" width="5416.134" x="-3044.634" y="-1325"></sliceSourceBounds>
	</sfw>
</metadata>
<g id="FILL-BACKGROUND">
	<rect x="0.5" y="-0.5" fill="#FFFFFF" width="750" height="750"/>
</g>
<g id="N-DIMENSIONS">
</g>
<g id="AG-DIAGRAM">
</g>
<g id="AG-PEOPLE">
</g>
<g id="AG-DETAILS">
</g>
<g id="AG-ANIMALS">
	<g id="POLYLINE_1514_">
		
			<path fill="none" stroke="#FB8604" stroke-width="2.75" stroke-linecap="round" stroke-linejoin="round" stroke-miterlimit="10" d="
			M523.266,524.616c6.198,4.587,4.994-9.199,0.229-5.93C522.612,519.291,522.471,523.982,523.266,524.616z"/>
	</g>
	<g id="POLYLINE_1513_">
		
			<path fill="none" stroke="#FB8604" stroke-width="2.75" stroke-linecap="round" stroke-linejoin="round" stroke-miterlimit="10" d="
			M512.247,523.297c-0.786-2.545,3.868-7.414,6.265-6.791c3.709,0.964,3.554,6.763,0.879,8.269
			C516.646,526.32,514.007,523.297,512.247,523.297z"/>
	</g>
	<g id="POLYLINE_1512_">
		
			<path fill="none" stroke="#FB8604" stroke-width="2.75" stroke-linecap="round" stroke-linejoin="round" stroke-miterlimit="10" d="
			M505.62,524.459c2.728-0.262,5.444,0.319,8.187,0.049"/>
	</g>
	<g id="POLYLINE_1511_">
		
			<path fill="none" stroke="#FB8604" stroke-width="2.75" stroke-linecap="round" stroke-linejoin="round" stroke-miterlimit="10" d="
			M520.464,524.213c0.813,0.221,1.666,0.18,2.457-0.118"/>
	</g>
	<g id="POLYLINE_1510_">
		
			<path fill="none" stroke="#FB8604" stroke-width="2.75" stroke-linecap="round" stroke-linejoin="round" stroke-miterlimit="10" d="
			M483.418,458.001c5.103,0.989,7.364,8.005,8.803,12.272c2.918,8.652,0.384,16.097,6.913,22.982
			c2.802,2.955,5.565,5.578,8.552,8.576c2.978,2.989,4.027,5.766,7.686,7.925c3.665,2.163,6.259,3.828,8.506,7.419
			c0.24,0.383,0.603,0.639,0.846,1.056"/>
	</g>
	<g id="POLYLINE_1509_">
		
			<path fill="none" stroke="#FB8604" stroke-width="2.75" stroke-linecap="round" stroke-linejoin="round" stroke-miterlimit="10" d="
			M452.194,423.374c-2.729,8.702-5.571,17.404-8.139,26.022c-0.89,2.987-2.317,6.4-2.084,9.535
			c0.637,8.584,9.88,9.767,13.916,16.168c5.041,7.996,12.466,15.099,15.98,23.938c2.389,6.009,4.757,12.115,7.242,18.101
			c3.729,8.985,9.505,8.898,19.711,7.504c0.627-0.086,1.425-0.217,2.047-0.35"/>
	</g>
	<g id="POLYLINE_1508_">
		
			<path fill="none" stroke="#FB8604" stroke-width="2.75" stroke-linecap="round" stroke-linejoin="round" stroke-miterlimit="10" d="
			M393.368,460.733c-0.094,10.379-1.469,20.014-4.565,29.733c-2.263,7.102-10.101,27.487-1.814,33.557
			c3.053,2.237,8.805,0.831,11.951,0.666c9.294-0.487,20.783-1.308,30.039,0.144"/>
	</g>
	<g id="POLYLINE_1507_">
		
			<path fill="none" stroke="#FB8604" stroke-width="2.75" stroke-linecap="round" stroke-linejoin="round" stroke-miterlimit="10" d="
			M302.248,470.052c1.493,2.152,1.282,4.499,2.417,6.665c3.025,5.77,8.078,10.32,9.307,17.265c0.711,4.018-1.325,8.032-0.539,12.002
			c0.667,3.372,3.264,6.039,4.082,9.412c0.849,3.503-0.049,6.985,3.913,9.008c3.218,1.643,7.916,0.227,11.296,0.26
			c7.386,0.071,15.699,1.42,22.519-2.487c5.585-3.199,3.444-6.69-0.691-11.103c-1.687-1.801-3.849-3.263-5.716-4.86"/>
	</g>
	<g id="POLYLINE_1506_">
		
			<path fill="none" stroke="#FB8604" stroke-width="2.75" stroke-linecap="round" stroke-linejoin="round" stroke-miterlimit="10" d="
			M277.915,524.534c2.252,0.489,4.613,0.647,6.825-0.075"/>
	</g>
	<g id="POLYLINE_1505_">
		
			<path fill="none" stroke="#FB8604" stroke-width="2.75" stroke-linecap="round" stroke-linejoin="round" stroke-miterlimit="10" d="
			M269.376,524.346c-5.825,2.626-13.793-2.895-18.37-6.038c-9.771-6.707-12.041-12.322-5.298-22.871
			c2.532-3.962,5.736-6.458,6.873-11.249c0.931-3.924,1.218-7.993,1.909-11.9c0.594-3.359,1.617-6.979,2.765-10.168
			c1.544-4.289,4.808-6.15,8.21-8.905c3.427-2.775,6.512-5.892,8.879-9.087c3.398-4.587,7.332-9.671,10.462-14.074
			c4.616-6.494,3.79-8.007,11.639-12.519c14.357-8.253,5.887-21.153,5.414-35.046c-0.344-10.086,1.029-20.108,3.232-29.934"/>
	</g>
	<g id="POLYLINE_1504_">
		
			<path fill="none" stroke="#FB8604" stroke-width="2.75" stroke-linecap="round" stroke-linejoin="round" stroke-miterlimit="10" d="
			M269.376,524.346c-2.39-2.005,1.329-6.452,3.502-6.861c3.342-0.629,7.675,4.08,5.276,6.91
			C276.723,526.083,271.344,525.245,269.376,524.346z"/>
	</g>
	<g id="POLYLINE_1503_">
		
			<path fill="none" stroke="#FB8604" stroke-width="2.75" stroke-linecap="round" stroke-linejoin="round" stroke-miterlimit="10" d="
			M276.954,519.098c1.112-3.274-1.399-5.569-3.394-7.82"/>
	</g>
	<g id="POLYLINE_1502_">
		
			<path fill="none" stroke="#FB8604" stroke-width="2.75" stroke-linecap="round" stroke-linejoin="round" stroke-miterlimit="10" d="
			M283.129,523.496c7.059,7.344,8.64-7.406,2.679-5.512C284.243,518.482,283,522.088,283.129,523.496z"/>
	</g>
	<g id="POLYLINE_1501_">
		
			<path fill="none" stroke="#FB8604" stroke-width="2.75" stroke-linecap="round" stroke-linejoin="round" stroke-miterlimit="10" d="
			M287.259,517.749c0.206-3.905-3.679-5.385-5.942-7.958c-2.037-2.316-1.983-0.859-2.69-4.336
			c-0.729-3.583-0.119-8.108,1.611-11.651c1.743-3.571,5.011-5.439,7.196-8.777c2.259-3.45,3.31-5.956,5.908-9.004
			c2.207-2.588,4.74-4.701,8.229-5.942c6.056-2.154,12.008-4.51,17.759-7.364c1.513-0.751,3.387-2.473,5.07-3.238
			c4.003-1.82,8.723-0.646,13.143-2.318c4.651-1.76,7.567-5.736,10.399-8.669c5.203-5.386,9.04-12.306,13.231-18.458
			c4.085-5.995,9.543-10.971,13.597-17.011c7.706-11.484,11.986-24.485,14.961-37.874c1.829-8.229,3.52-16.032,6.985-23.73"/>
	</g>
	<g id="POLYLINE_1500_">
		
			<path fill="none" stroke="#FB8604" stroke-width="2.75" stroke-linecap="round" stroke-linejoin="round" stroke-miterlimit="10" d="
			M281.477,394.575c3.082,4.322,3.733,11.129,0.465,15.621c-3.04,4.18-11.968,5.643-16.644,6.719
			c-14.563,3.35-29.366,5.1-43.879,8.213c-8.616,1.848-16.895,2.482-25.506,2.443c-5.977-0.027-11.697,0.096-17.543-0.015
			c-6.252-0.118-14.287-0.996-20.239-3.004c-7.297-2.461-14.546-5.487-21.598-8.4c-1.888-0.78-4.507-2.585-6.85-3.689
			c-3.089-1.456-6.368-3.219-9.346-5.035c-10.143-6.185-19.315-13.298-27.806-22.168c-5.406-5.647-10.523-11.861-15.77-17.806
			c-1.343-1.522-2.806-2.912-4.167-4.413c-2.579-2.844-4.941-5.828-7.759-8.465c-1.715-1.605-5.855-3.565-7.015-5.588
			c-1.416-2.471-1.46-3.151,1.63-3.915c4.083-1.01,10.617,3.349,13.917,5.045c10.097,5.186,18.895,12.388,28.746,17.925
			c4.599,2.585,8.76,5.243,13.173,7.91c12.489,7.547,29.395,11.685,43.86,10.625c33.589-2.461,60.941-16.77,86.359-39.229
			c5.221-4.613,11.29-8.019,16.422-12.489c5.006-4.361,9.222-9.981,14.141-14.498c5.665-5.202,11.335-9.781,16.854-15.148
			c4.643-4.516,11.233-9.634,17.281-12.156c4.308-1.796,8.94-2.52,13.288-3.79c4.299-1.255,8.053-3.63,12.529-4.461
			c3.95-0.733,7.963-0.399,11.849-1.318c25.126-5.941,50.151-1.424,73.225,10.592c6.66,3.468,14.11,6.333,20.461,10.368
			c3.637,2.311,7.054,5.362,10.939,7.35c8.84,4.522,18.397,7.814,26.183,14.759c5.776,5.151,9.576,12.39,15.229,16.87
			c1.49,1.181,3.552,1.152,5.037,2.291c1.666,1.278,1.975,3.14,3.288,4.658c1.816,2.1,4.611,3.009,6.406,5.076
			c1.055,1.216,1.142,3.478,2.386,4.395c2.477,1.826,4.962-0.022,7.394,3.129"/>
	</g>
	<g id="POLYLINE_1499_">
		
			<path fill="none" stroke="#FB8604" stroke-width="2.75" stroke-linecap="round" stroke-linejoin="round" stroke-miterlimit="10" d="
			M278.476,413.03c1.201,3.629,5.266,6.481,8.013,8.613c0.595,0.462,1.228,0.818,1.84,1.248"/>
	</g>
	<g id="POLYLINE_1498_">
		
			<path fill="none" stroke="#FB8604" stroke-width="2.75" stroke-linecap="round" stroke-linejoin="round" stroke-miterlimit="10" d="
			M352.626,443.56c20.087,15.635,45.542,17.795,69.479,20.902c7.592,0.985,14.723,2.241,22.317,0.831"/>
	</g>
	<g id="POLYLINE_1497_">
		
			<path fill="none" stroke="#FB8604" stroke-width="2.75" stroke-linecap="round" stroke-linejoin="round" stroke-miterlimit="10" d="
			M498.874,521.39c0.855,3.097,4.007,4.337,6.774,3.053c4.738-2.198,1.836-6.26-2.026-6.312
			C501.708,518.106,499.378,519.731,498.874,521.39z"/>
	</g>
	<g id="POLYLINE_1496_">
		
			<path fill="none" stroke="#FB8604" stroke-width="2.75" stroke-linecap="round" stroke-linejoin="round" stroke-miterlimit="10" d="
			M503.11,424.396c5.236,12.818-8.35,24.332-17.131,31.629c-4.499,3.739-9.9,6.527-15.234,8.875"/>
	</g>
	<g id="POLYLINE_1495_">
		
			<path fill="none" stroke="#FB8604" stroke-width="2.75" stroke-linecap="round" stroke-linejoin="round" stroke-miterlimit="10" d="
			M428.673,524.671c-1.164-1.694,0.211-6.231,2.257-5.722c1.829,0.455,2.816,4.039,1.553,5.295
			C432.044,524.68,429.096,525.154,428.673,524.671z"/>
	</g>
	<g id="POLYLINE_1494_">
		
			<path fill="none" stroke="#FB8604" stroke-width="2.75" stroke-linecap="round" stroke-linejoin="round" stroke-miterlimit="10" d="
			M430.003,518.581c-1.28-4.467-4.04-4.998-7.007-7.479c-2.201-1.841-3.125-3.922-4.109-6.8c-0.692-2.023-2.565-5.017-2.25-7.148
			c0.275-1.857,2.005-3.125,2.806-4.784c2.282-4.73,2.667-9.939,6.495-13.845c2.506-2.556,5.872-4.539,7.795-7.327
			c1.054-1.529,1.668-3.482,2.417-5.153"/>
	</g>
	<g id="POLYLINE_1493_">
		
			<path fill="none" stroke="#FB8604" stroke-width="2.75" stroke-linecap="round" stroke-linejoin="round" stroke-miterlimit="10" d="
			M487.721,454.468c9.526-0.392,17.291,1.075,26.541-0.477c4.935-0.828,9.42-0.718,14.023-1.684c1.001-0.21,3.133-1.777,3.264-1.824
			c0.54-0.191,4.902-1.04,5.355-1.09c2.76-0.298,7.869,0.06,10.631,0.896c3.478,1.053,6.991,3.47,10.323,4.699
			c5.857,2.16,13.245,2.695,17.998,6.956c3.649,3.271,7.172,11.916,11.896,13.287c0.507,0.147,1.065,0.122,1.581,0.054"/>
	</g>
	<g id="POLYLINE_1492_">
		
			<path fill="none" stroke="#FB8604" stroke-width="2.75" stroke-linecap="round" stroke-linejoin="round" stroke-miterlimit="10" d="
			M617.171,441.182c-1.024,0.762,2.006,6.108,3.276,5.72c1.508-0.461,0.419-4.025-0.335-4.758
			C619.495,441.544,618.072,440.611,617.171,441.182z"/>
	</g>
	<g id="POLYLINE_1491_">
		
			<path fill="none" stroke="#FB8604" stroke-width="2.75" stroke-linecap="round" stroke-linejoin="round" stroke-miterlimit="10" d="
			M624.453,420.622c-4.377,5.702,1.852,17.107,8.238,18.401c6.084,1.233,13.082-3.897,17.94-6.358
			c3.093-1.567,10.688-3.902,6.645-6.768c-1.633-1.158-5.482-0.523-7.549-0.793c-5.426-0.71-10.874-1.698-16.186-3.023
			C632.542,421.832,626.004,418.709,624.453,420.622z"/>
	</g>
	<g id="POLYLINE_1490_">
		
			<path fill="none" stroke="#FB8604" stroke-width="2.75" stroke-linecap="round" stroke-linejoin="round" stroke-miterlimit="10" d="
			M589.893,378.45c-5.173,3.179,0.148,13.882,2.233,17.078c4.774,7.319,8.175,4.641,16.467,5.97
			c17.639,2.828,34.863,9.861,51.839,15.118c3.221,0.998,14.391,6.641,18.413,4.446c5.935-3.24-13.553-9.878-15.315-10.891
			c-16.319-9.37-31.901-19.178-49.61-25.864c-6.15-2.322-16.527-7.17-23.332-6.104C590.331,378.245,590.132,378.384,589.893,378.45z
			"/>
	</g>
	<g id="POLYLINE_1489_">
		
			<path fill="none" stroke="#FB8604" stroke-width="2.75" stroke-linecap="round" stroke-linejoin="round" stroke-miterlimit="10" d="
			M602.506,380.549c-0.747-2.56-7.697-16.077-6.859-17.923c0.829-1.825,7.344,0.519,8.844,0.776
			c19.832,3.397,39.182,10.98,57.24,19.69c5.248,2.531,10.303,5.496,15.6,7.913c1.689,0.771,5.096,1.265,6.357,2.682
			c0.55,0.619,1.45,0.662,1.49,1.703c0.16,4.085-8.666,0.571-9.539,0.383c-20.703-4.471-41.54-13.149-63.097-11.981"/>
	</g>
	<g id="POLYLINE_1488_">
		
			<path fill="none" stroke="#FB8604" stroke-width="2.75" stroke-linecap="round" stroke-linejoin="round" stroke-miterlimit="10" d="
			M635.948,444.459c-8.64,7.341-12.171,13.18-23.67,11.622c-6.317-0.856-12.305-3.223-17.569,1.277
			c-11.417,9.761-7.107,22.13,6.786,24.816c4.328,0.837,15.02,0.916,16.4-4.431"/>
	</g>
	<g id="POLYLINE_1487_">
		
			<path fill="none" stroke="#FB8604" stroke-width="2.75" stroke-linecap="round" stroke-linejoin="round" stroke-miterlimit="10" d="
			M617.898,477.709c-7.252,4.898-22.414-7.466-21.467-15.926c0.235-2.097,1.189-3.905,2.182-5.742"/>
	</g>
	<g id="POLYLINE_1486_">
		
			<path fill="none" stroke="#FB8604" stroke-width="2.75" stroke-linecap="round" stroke-linejoin="round" stroke-miterlimit="10" d="
			M598.613,456.041c0.663,4.596,7.073,5.317,10.37,6.832c2.923,1.344,13.371,5.004,15.099,8.663
			c0.796,1.686-2.023,6.141,0.156,6.893c3.859,1.331,12.894-11.588,14.067-15.331c1.818-5.798,1.189-13.579-2.357-18.638"/>
	</g>
	<g id="POLYLINE_1485_">
		
			<path fill="none" stroke="#FB8604" stroke-width="2.75" stroke-linecap="round" stroke-linejoin="round" stroke-miterlimit="10" d="
			M635.948,444.459c0.347-1.773,0.316-3.61-0.135-5.359"/>
	</g>
	<g id="POLYLINE_1484_">
		
			<path fill="none" stroke="#FB8604" stroke-width="2.75" stroke-linecap="round" stroke-linejoin="round" stroke-miterlimit="10" d="
			M596.733,460.07c0.166,4.432,8.783,17.741,13.83,11.647c1.557-1.88-0.223-6.657-0.574-8.355"/>
	</g>
	<g id="POLYLINE_1483_">
		
			<path fill="none" stroke="#FB8604" stroke-width="2.75" stroke-linecap="round" stroke-linejoin="round" stroke-miterlimit="10" d="
			M602.442,460.227c1.991,1.666,1.284,3.716,2.551,5.605c1.217,1.814,4.321,2.276,5.272,3.643c0.518,0.745,0.553,1.032,0.462,1.992"
			/>
	</g>
	<g id="POLYLINE_1482_">
		
			<path fill="none" stroke="#FB8604" stroke-width="2.75" stroke-linecap="round" stroke-linejoin="round" stroke-miterlimit="10" d="
			M610.173,472.116c1.924,2.242,6.827,3.333,7.734,5.551"/>
	</g>
	<g id="POLYLINE_1481_">
		
			<path fill="none" stroke="#FB8604" stroke-width="2.75" stroke-linecap="round" stroke-linejoin="round" stroke-miterlimit="10" d="
			M602.878,400.879c0.739,2.921,1.68,4.704,3.216,6.982c2.977,4.414,7.324,6.876,12.659,9.146c2.213,0.942,5.78,0.52,6.271,3.205"/>
	</g>
	<g id="POLYLINE_1480_">
		
			<path fill="none" stroke="#FB8604" stroke-width="2.75" stroke-linecap="round" stroke-linejoin="round" stroke-miterlimit="10" d="
			M534.387,330.991c-1.176-2.701,5.155-13.036,9.007-10.956c3.281,1.771,0.06,9.155-2.082,10.618
			C540.007,331.546,535.186,332.564,534.387,330.991z"/>
	</g>
	<g id="POLYLINE_1479_">
		
			<path fill="none" stroke="#FB8604" stroke-width="2.75" stroke-linecap="round" stroke-linejoin="round" stroke-miterlimit="10" d="
			M526.318,349.752c-2.942-2.721,0.13-11.775,4.063-12.688c3.896-0.905,6.516,4.799,4.853,8.209
			C534.25,347.291,527.997,351.167,526.318,349.752z"/>
	</g>
	<g id="POLYLINE_1478_">
		
			<path fill="none" stroke="#FB8604" stroke-width="2.75" stroke-linecap="round" stroke-linejoin="round" stroke-miterlimit="10" d="
			M518.779,367.957c-2.217-2.907,0.116-13.305,4.864-13.158c4.891,0.151,4.243,8.135,1.997,10.838
			C524.597,366.894,520.215,369.73,518.779,367.957z"/>
	</g>
	<g id="POLYLINE_1477_">
		
			<path fill="none" stroke="#FB8604" stroke-width="2.75" stroke-linecap="round" stroke-linejoin="round" stroke-miterlimit="10" d="
			M514.587,385.976c-3.262-2.871,0.317-12.245,4.955-10.79c4.428,1.39,3.639,9.34,0.155,11.225
			C517.956,387.353,516.16,387.288,514.587,385.976z"/>
	</g>
	<g id="POLYLINE_1476_">
		
			<path fill="none" stroke="#FB8604" stroke-width="2.75" stroke-linecap="round" stroke-linejoin="round" stroke-miterlimit="10" d="
			M513.015,403.893c-1.683-3.813,1.926-10.753,6.52-8.16c3.287,1.855,3.927,11.167-0.35,12.359
			C516.898,408.729,514.053,405.621,513.015,403.893z"/>
	</g>
	<g id="POLYLINE_1475_">
		
			<path fill="none" stroke="#FB8604" stroke-width="2.75" stroke-linecap="round" stroke-linejoin="round" stroke-miterlimit="10" d="
			M517.972,413.266c-2.334,3.603-3.544,11.419,2.333,10.972c3.221-0.245,6.602-4.961,5.045-8.22
			C524.4,414.028,519.884,412.716,517.972,413.266z"/>
	</g>
	<g id="POLYLINE_1474_">
		
			<path fill="none" stroke="#FB8604" stroke-width="2.75" stroke-linecap="round" stroke-linejoin="round" stroke-miterlimit="10" d="
			M523.442,427.137c-0.906,1.453-0.903,9.244-0.057,10.023c1.508,1.388,2.046,0.572,3.885-0.647
			c3.793-2.514,7.006-9.234,0.937-10.644C526.698,425.519,524.365,425.714,523.442,427.137z"/>
	</g>
	<g id="POLYLINE_1473_">
		
			<path fill="none" stroke="#FB8604" stroke-width="2.75" stroke-linecap="round" stroke-linejoin="round" stroke-miterlimit="10" d="
			M544.416,316.114c-3.247-1.777,1.719-12.507,6.549-9.599c2.26,1.361,3.803,6.285,2.008,8.552
			C551.111,317.418,547.026,316.649,544.416,316.114z"/>
	</g>
	<g id="POLYLINE_1472_">
		
			<path fill="none" stroke="#FB8604" stroke-width="2.75" stroke-linecap="round" stroke-linejoin="round" stroke-miterlimit="10" d="
			M549.12,305.43c0.415-2.198,4.335-11.451,7.879-9.909c2.142,0.932,2.04,11.017,1.671,11.467c-1.911,2.328,0.5-0.414-2.986-0.177
			c-1.757,0.12-2.108-1.223-4.048,0.375"/>
	</g>
	<g id="POLYLINE_1471_">
		
			<path fill="none" stroke="#FB8604" stroke-width="2.75" stroke-linecap="round" stroke-linejoin="round" stroke-miterlimit="10" d="
			M555.279,295.994c0.409-1.717,2.229-5.875,4.508-5.666c3.244,0.297,2.568,11.283,1.303,12.037
			c-1.065,0.635-2.032-0.259-2.837-1.607"/>
	</g>
	<g id="POLYLINE_1470_">
		
			<path fill="none" stroke="#FB8604" stroke-width="2.75" stroke-linecap="round" stroke-linejoin="round" stroke-miterlimit="10" d="
			M555.886,294.209c-2.406-3.387,0.532-14.94,4.973-11.146c1.611,1.376,0.745,6.221,0.371,8.048"/>
	</g>
	<g id="POLYLINE_1469_">
		
			<path fill="none" stroke="#FB8604" stroke-width="2.75" stroke-linecap="round" stroke-linejoin="round" stroke-miterlimit="10" d="
			M561.011,302.582c0.833,4.26-0.228,8.645,0.316,12.966c0.543,4.317,1.835,8.507,2.725,12.691c0.701,3.294,0.872,6.682,1.461,9.941
			c0.939,5.205,3.234,15.216,7.814,18.8c6.171,4.83,15.597,1.362,22.285,5.246"/>
	</g>
	<g id="POLYLINE_1468_">
		
			<path fill="none" stroke="#FB8604" stroke-width="2.75" stroke-linecap="round" stroke-linejoin="round" stroke-miterlimit="10" d="
			M530.737,336.894c1.368-2.182,2.51-4.487,3.608-6.814"/>
	</g>
	<g id="POLYLINE_1467_">
		
			<path fill="none" stroke="#FB8604" stroke-width="2.75" stroke-linecap="round" stroke-linejoin="round" stroke-miterlimit="10" d="
			M540.903,320.387c4.681-6.781,4.915-16.944,8.9-24.313c1.408-2.604,3.451-5.802,5.294-8.131"/>
	</g>
	<g id="POLYLINE_1466_">
		
			<path fill="none" stroke="#FB8604" stroke-width="2.75" stroke-linecap="round" stroke-linejoin="round" stroke-miterlimit="10" d="
			M522.8,354.895c0.956-3.159,1.47-6.536,2.719-9.587"/>
	</g>
	<g id="POLYLINE_1465_">
		
			<path fill="none" stroke="#FB8604" stroke-width="2.75" stroke-linecap="round" stroke-linejoin="round" stroke-miterlimit="10" d="
			M516.686,375.451c0.442-2.52,1.44-4.854,2.567-7.139"/>
	</g>
	<g id="POLYLINE_1464_">
		
			<path fill="none" stroke="#FB8604" stroke-width="2.75" stroke-linecap="round" stroke-linejoin="round" stroke-miterlimit="10" d="
			M516.245,395.179c0.001-2.809-0.209-5.603-0.342-8.407"/>
	</g>
	<g id="POLYLINE_1463_">
		
			<path fill="none" stroke="#FB8604" stroke-width="2.75" stroke-linecap="round" stroke-linejoin="round" stroke-miterlimit="10" d="
			M523.947,426.582c-0.599-0.875-1.098-1.814-1.49-2.8"/>
	</g>
	<g id="POLYLINE_1462_">
		
			<path fill="none" stroke="#FB8604" stroke-width="2.75" stroke-linecap="round" stroke-linejoin="round" stroke-miterlimit="10" d="
			M519.082,413.045c-0.399-1.673-0.791-3.347-1.177-5.023"/>
	</g>
	<g id="POLYLINE_1461_">
		
			<path fill="none" stroke="#FB8604" stroke-width="2.75" stroke-linecap="round" stroke-linejoin="round" stroke-miterlimit="10" d="
			M341.677,500.425c1.245,4.112,3.534,10.546,7.422,5.353c0.977-1.304,2.198-6.245,1.173-7.467c-1.545-1.841-2.133,0.173-4.48,0.932
			C344.044,499.808,342.575,499.446,341.677,500.425z"/>
	</g>
	<g id="POLYLINE_1460_">
		
			<path fill="none" stroke="#FB8604" stroke-width="2.75" stroke-linecap="round" stroke-linejoin="round" stroke-miterlimit="10" d="
			M343.202,503.807c-2.557-0.328-6.853-2.566-8.41-4.535c-2.569-3.249-0.869-5.148-0.983-9.676
			c-0.065-2.582-0.523-4.942-1.701-7.266"/>
	</g>
	<g id="POLYLINE_1459_">
		
			<path fill="none" stroke="#FB8604" stroke-width="2.75" stroke-linecap="round" stroke-linejoin="round" stroke-miterlimit="10" d="
			M352.375,523.303c2.937,1.277,11.185,3.232,8.065-2.729c-0.443-0.845-1.205-1.567-1.99-2.085"/>
	</g>
	<g id="POLYLINE_1458_">
		
			<path fill="none" stroke="#FB8604" stroke-width="2.75" stroke-linecap="round" stroke-linejoin="round" stroke-miterlimit="10" d="
			M349.622,497.336c1.534-6.737-2.182-8.978-5.749-14.35c-3.024-4.553-4.653-9.925-5.761-14.808
			c-0.706-3.109-1.143-7.59-1.101-10.889"/>
	</g>
</g>
<g id="AG-OUTLINE">
	<g id="POLYLINE_46_">
		
			<path fill="none" stroke="#FB8604" stroke-width="3.5" stroke-linecap="round" stroke-linejoin="round" stroke-miterlimit="10" d="
			M561.231,291.112c0.768-3.76,0.711-11.574-4.198-7.378c-2.414,2.063-3.829,7.42-5.545,10.161c-2.22,3.545-2.857,5.659-4.324,9.64
			c-1.678,4.552-3.067,11.038-5.361,15.264c-1.262,2.325-3.794,3.603-5.278,5.936c-2.793,4.392-3.992,9.112-7.316,13.099
			c-1.336,1.602-2.37,2.505-3.199,4.45c-1.711,4.016-1.36,8.918-3.54,12.701c-0.759,1.317-2.355,2.922-3.251,4.498
			c-0.539,0.949-0.666,2.434-0.802,3.494c0.573,0-7.85-3.527-7.583-3.324c-1.129-0.856-1.415-3.288-2.471-4.462
			c-1.826-2.032-4.507-3.015-6.312-5.129c-4.44-5.199-9.651-8.999-14.042-13.99c-6.976-7.928-15.47-14.902-24.9-19.781
			c-7.765-4.018-14.901-7.499-22.321-12.171c-23.331-14.691-50.959-25.549-78.899-23.021c-13.376,1.21-25.944,4.367-38.844,8.241
			c-4.456,1.338-9.394,2.107-13.741,4.136c-6.398,2.987-13.143,8.244-17.922,13.464c-5.233,5.715-11.571,9.645-16.976,15.117
			c-10.862,10.998-21.992,19.608-33.867,29.646c-13.978,11.817-31.388,23.529-48.969,28.881
			c-14.939,4.548-32.903,8.273-48.544,5.311c-15.235-2.885-28.236-10.657-41.392-18.058c-10.668-6.001-20.054-13.899-31.188-19.172
			c-2.509-1.188-8.292-4.726-11.414-3.571c-3.634,1.344-2.121,2.25-0.324,4.503c4.019,5.039,10.323,9.373,14.794,14.282
			c1.562,1.715,2.924,3.634,4.477,5.344c2.806,3.089,5.652,6.138,8.451,9.243c7.798,8.651,16.398,16.196,25.66,23.345
			c5.172,3.992,12.043,8.716,18.131,11.268c5.135,2.152,10.16,4.8,15.502,6.797c8.224,3.075,15.455,4.584,23.72,6.242
			c5.549,1.113,11.009,2.172,16.673,1.916c7.335-0.33,14.741-0.074,22.069-0.537c12.439-0.787,25.304-4.304,37.576-6.269
			c7.492-1.2,16.25-3.029,23.427-5.52c3.463-1.202,6.936-3.288,9.878-1.623c0.522,0.296,2.553,3.138,3.136,3.684
			c2.018,1.89,3.942,3.588,6.125,5.124c-1.072,5.454-6.142,8.99-9.077,13.329c-3.557,5.259-5.751,9.535-10.122,13.151
			c-3.515,2.909-8.525,6.337-11.092,10.11c-0.955,1.404-1.341,3.519-1.694,5.059c-0.418,1.83-1.581,3.752-2.108,5.594
			c-1.076,3.759-0.42,8.593-1.597,12.648c-1.592,5.483-3.957,7.996-6.962,12.706c-7.177,11.25-3.615,16.629,6.371,23.615
			c6.356,4.447,12.783,5.952,20.065,5.877c4.245-0.043,10.167,0.776,14.173-0.099c4.009-0.876,3.73-0.633,2.528-4.779
			c-1.353-4.664-4.395-6.737-7.55-10.358c-2.111-2.423-2.366-1.597-2.456-5.557c-0.112-4.929,0.324-9.723,3.513-13.942
			c2.755-3.645,6.381-7.473,8.757-11.243c1.194-1.894,2.551-3.376,4.169-4.741c0.643-0.543,3.909-3.926,5.121-3.928
			c3.064-0.007,4.568,6.049,6.443,8.883c2.918,4.409,6.31,9.602,7.191,14.909c0.615,3.702-1.212,7.375-0.664,11.026
			c0.648,4.319,3.204,8.429,4.259,12.68c0.657,2.648,1.08,5.154,3.806,6.561c1.481,0.765,3.176,0.466,4.76,0.504
			c7.116,0.17,14.78,0.784,21.84-0.342c2.793-0.445,4.176-0.585,6.872-0.366c1.075,0.087,2.515,0.881,3.633,0.573
			c1.227-0.338,1.955,0.138,2.591-1.186c0.768-1.599-1.784-5.157-2.49-6.428c-1.934-3.479-3.907-5.529-6.645-8.3
			c-4.059-4.109-1.843-2.762-1.647-7.757c0.254-6.459-0.686-11.279-4.875-16.598c-4.969-6.31-5.565-11.655-7.044-18.6
			c-0.288-1.354-1.038-2.552-1.247-3.929c-0.679-4.471,0.282-3.784,2.84-5.94c1.258-1.061,3.631-2.216,4.636-3.296
			c0.59-0.634,0.944-2.548,1.295-2.855c2.585-2.264,5.16-2.433,6.702-6.314c10.742,8.316,24.434,11.56,36.915,16.025
			c5.753,2.058,4.669,7.636,3.562,14.185c-0.799,4.728-2.189,10.436-3.444,15.232c-2.392,9.138-6.202,16.853-5.358,26.706
			c0.263,3.067,0.057,6.604,3.047,8.536c1.083,0.7,2.493,0.637,3.706,0.804c7.701,1.063,17.488-0.049,25.337-0.08
			c7.046-0.027,20.008,2.911,14.425-6.113c-2.594-4.193-6.327-5.294-9.264-8.611c-2.105-2.378-3.495-7.324-4.058-10.357
			c-1.057-5.693,3.946-16.604,8.141-21.058c1.819-1.932,3.74-3.929,5.326-5.661c3.522-3.848,6.443-8.955,12.602-7.725
			c7.063,1.41,10.051,7.292,13.652,12.813c4.337,6.649,10.777,11.995,14.253,19.275c2.556,5.352,4.207,11.222,6.566,16.665
			c2,4.615,2.933,9.496,8.286,10.642c6.099,1.306,12.991-0.457,19.037-0.25c5.972,0.205,11.753-0.094,17.473-0.461
			c4.525-0.29,6.476,0.309,2.763-5.278c-2.269-3.414-5.422-6.655-9.148-8.869c-4.401-2.615-5.776-5.289-9.524-8.977
			c-3.268-3.216-7.759-6.036-10.229-9.965c-5.176-8.233-3.311-18.576-7.662-27.297c-1.419-2.845-2.161-5.075-5.612-5.741
			c4.547-3.2,6.599-3.989,12.379-3.37c1.482,0.159,2.892,0.666,4.381,0.773c1.631,0.118,4.11,0.1,5.749,0.03
			c4.118-0.175,8.719-1.493,12.717-2.092c1.406-0.211,2.951-0.433,4.301-0.562c0.855-0.082,3.66,0.071,4.525-0.247
			c1.597-0.586,3.526-1.899,4.055-2.08c1.06-0.363,4.869-1.125,6.232-1.234c5.817-0.463,10.153,1.75,15.221,3.839
			c6.532,2.693,16.159,3.382,21.852,7.817c3.165,2.466,6.218,6.746,8.363,9.559c2.759,3.618,5.641,5.204,9.432,7.915
			c3.877,2.772,8.561,4.279,13.332,4.244c2.566-0.019,10.494-0.64,11.6-3.653c1.059-2.885-0.919-1.875-2.752-3.307
			c-2.794-2.183-3.187-2.252-3.825-4.976c-0.538-2.294-0.503-4.935-0.992-7.297c0,2.856,12.287,4.599,14.009,7.94
			c0.819,1.589-1.755,5.804-0.271,6.995c2.215,1.778,12.029-9.711,13.37-12.324c2.426-4.728,2.597-10.638,1.351-15.738
			c-0.511-2.093-2.019-3.996-2.47-5.931c-0.369-1.584,0.278-3.484-0.165-5.203c2.512-0.593,24.811-9.054,22.798-12.649
			c-1.036-1.85-7.368-1.149-8.885-1.347c-7.652-1.002-16.722-2.22-24.005-4.956c-5.945-2.233-16.535-6.405-20.293-12.735
			c-1.178-1.985-1.946-4.132-2.55-6.533c15.786,0.59,32.004,7.639,46.853,12.346c7.971,2.527,16.535,6.167,24.833,7.457
			c1.009,0.157,2.769,0.866,3.815,0.449c6.927-2.755-8.989-7.67-10.8-8.665c-18.297-10.06-35.303-21.394-55.036-28.675
			c22.055-1.202,43.387,7.827,64.597,12.291c1.677,0.353,8.86,3.175,7.892-1.268c-0.401-1.839-6.004-3.052-6.938-3.468
			c-11.301-5.044-21.937-11.301-33.503-15.826c-10.789-4.221-21.899-8.382-33.248-10.845c-5.217-1.132-11.277-1.46-16.207-2.715
			c-10.329-2.629-21.131-0.802-25.99-11.751c-2.559-5.765-3.286-12.381-4.629-18.567c-1.213-5.585-2.753-11.401-3.353-17.139
			c-0.772-7.384,1.27-14.859,0.299-22.186C561.407,291.905,561.393,291.501,561.231,291.112z"/>
	</g>
</g>
<g id="N-TEXT">
</g>
</svg>
