<?xml version="1.0" encoding="utf-8"?>
<!-- Generator: Adobe Illustrator 23.0.1, SVG Export Plug-In . SVG Version: 6.00 Build 0)  -->
<!DOCTYPE svg PUBLIC "-//W3C//DTD SVG 1.1//EN" "http://www.w3.org/Graphics/SVG/1.1/DTD/svg11.dtd" [
	<!ENTITY ns_flows "http://ns.adobe.com/Flows/1.0/">
	<!ENTITY ns_extend "http://ns.adobe.com/Extensibility/1.0/">
	<!ENTITY ns_ai "http://ns.adobe.com/AdobeIllustrator/10.0/">
	<!ENTITY ns_graphs "http://ns.adobe.com/Graphs/1.0/">
	<!ENTITY ns_vars "http://ns.adobe.com/Variables/1.0/">
	<!ENTITY ns_imrep "http://ns.adobe.com/ImageReplacement/1.0/">
	<!ENTITY ns_sfw "http://ns.adobe.com/SaveForWeb/1.0/">
	<!ENTITY ns_custom "http://ns.adobe.com/GenericCustomNamespace/1.0/">
	<!ENTITY ns_adobe_xpath "http://ns.adobe.com/XPath/1.0/">
]>
<svg version="1.1" xmlns:x="&ns_extend;" xmlns:i="&ns_ai;" xmlns:graph="&ns_graphs;"
	 xmlns="http://www.w3.org/2000/svg" xmlns:xlink="http://www.w3.org/1999/xlink" xmlns:a="http://ns.adobe.com/AdobeSVGViewerExtensions/3.0/"
	 x="0px" y="0px" viewBox="0 0 750 750" enable-background="new 0 0 750 750" xml:space="preserve">
<metadata>
	<sfw  xmlns="&ns_sfw;">
		<slices></slices>
		<sliceSourceBounds  bottomLeftOrigin="true" height="7925" width="10244.984" x="-7067.985" y="-1675"></sliceSourceBounds>
	</sfw>
</metadata>
<g id="FILL-BACKGROUND">
	<rect fill="#FFFFFF" width="750" height="750"/>
</g>
<g id="N-DIMENSIONS">
</g>
<g id="N-TEXT">
</g>
<g id="AG-DIAGRAM">
	<g id="POLYLINE_1654_">
		<g>
			<g>
				
					<line fill="none" stroke="#F368E0" stroke-width="3.5" stroke-linecap="round" stroke-linejoin="round" x1="81.885" y1="519.867" x2="83.885" y2="519.867"/>
				
					<line fill="none" stroke="#F368E0" stroke-width="3.5" stroke-linecap="round" stroke-linejoin="round" stroke-dasharray="3.9767,6.9593" x1="90.844" y1="519.867" x2="666.973" y2="519.867"/>
				
					<line fill="none" stroke="#F368E0" stroke-width="3.5" stroke-linecap="round" stroke-linejoin="round" x1="670.452" y1="519.867" x2="672.452" y2="519.867"/>
			</g>
		</g>
	</g>
</g>
<g id="AG-TRANSPORT">
	<g id="POLYLINE_1571_">
		
			<path fill="none" stroke="#F368E0" stroke-width="2.75" stroke-linecap="round" stroke-linejoin="round" stroke-miterlimit="10" d="
			M112.134,370.285c1.778,0,3.556,0,5.334,0c4.465,0,8.93,0,13.395,0c5.848,0,11.697,0,17.545,0c5.928,0,11.856,0,17.784,0
			c4.704,0,9.408,0,14.112,0c2.176,0,4.352,0.006,6.528,0c3.051-0.008,6.068-0.586,8.825-1.923c3.205-1.554,5.861-4.022,7.962-6.872
			c1.521-2.064,2.689-4.43,3.979-6.64c2.801-4.795,5.602-9.59,8.403-14.385c2.801-4.795,5.602-9.59,8.403-14.385
			c1.276-2.185,2.714-4.338,3.814-6.622c0.769-1.598,1.627-3.986,0.123-5.441c-1.318-1.275-3.548-1.288-5.249-1.249
			c-2.321,0.053-4.642,0.113-6.963,0.169c-4.629,0.112-9.257,0.225-13.886,0.337c-5.851,0.142-11.701,0.284-17.552,0.426
			c-5.987,0.145-11.975,0.29-17.962,0.436c-5.039,0.122-10.077,0.244-15.116,0.367c-2.998,0.073-5.997,0.145-8.995,0.218
			c-0.407,0.01-0.814,0.02-1.222,0.03"/>
	</g>
	<g id="POLYLINE_1570_">
		
			<path fill="none" stroke="#F368E0" stroke-width="2.75" stroke-linecap="round" stroke-linejoin="round" stroke-miterlimit="10" d="
			M464.148,349.546c-3.523-2.746-7.047-5.492-10.57-8.237c-4.252-3.314-8.505-6.628-12.757-9.942
			c-3.069-2.392-6.249-4.703-9.562-6.746c-3.712-2.289-7.702-4.143-11.859-5.464c-4.256-1.353-8.664-2.198-13.077-2.849
			c-4.648-0.687-9.324-1.141-14.005-1.536c-4.399-0.372-8.81-0.628-13.219-0.848c-3.609-0.18-7.231-0.424-10.845-0.462
			c-2.508-0.027-5.016-0.053-7.523-0.08c-4.998-0.053-9.996-0.106-14.994-0.16c-6.45-0.069-12.899-0.137-19.349-0.206
			c-6.909-0.074-13.817-0.147-20.726-0.221c-6.381-0.068-12.762-0.136-19.143-0.204c-4.815-0.051-9.63-0.102-14.445-0.154
			c-2.231-0.024-4.462-0.052-6.693-0.071c-2.495-0.021-4.933,0.632-7.031,2.003c-2.25,1.471-3.753,3.553-4.804,5.991
			c-1.492,3.465-3.039,6.907-4.558,10.36c-2.691,6.116-5.381,12.231-8.072,18.347c-2.238,5.087-4.476,10.173-6.714,15.26
			c-0.442,1.004-0.91,2-1.326,3.015c-0.319,0.778-0.311,1.625,0.148,2.351c0.656,1.036,1.707,1.134,2.797,1.148
			c1.636,0.021,3.272,0.042,4.908,0.063c2.964,0.038,5.928,0.076,8.892,0.113c4.117,0.053,8.233,0.105,12.35,0.158
			c5.069,0.065,10.137,0.129,15.206,0.194c5.807,0.074,11.614,0.148,17.422,0.222c6.37,0.081,12.741,0.163,19.111,0.244
			c6.766,0.086,13.531,0.173,20.297,0.259c6.947,0.089,13.895,0.177,20.842,0.266c6.913,0.088,13.827,0.176,20.74,0.265
			c6.712,0.086,13.423,0.171,20.135,0.257c6.339,0.081,12.679,0.162,19.018,0.243c5.751,0.073,11.502,0.147,17.253,0.22
			c4.955,0.063,9.91,0.126,14.865,0.19c3.988,0.051,7.977,0.102,11.965,0.153c2.838,0.036,5.676,0.072,8.514,0.109
			c1.48,0.019,2.96,0.038,4.439,0.057c1.926,0.025,4.028-0.063,5.811-0.848c1.651-0.727,2.351-2.146,2.119-3.908
			c-0.464-3.531-2.816-6.939-5.046-9.595"/>
	</g>
	<g id="POLYLINE_1569_">
		
			<path fill="none" stroke="#F368E0" stroke-width="2.75" stroke-linecap="round" stroke-linejoin="round" stroke-miterlimit="10" d="
			M271.092,481.097c0.265,1.507,0.988,2.921,2.469,3.52c1.789,0.723,4.012,0.404,5.877,0.404c1.059,0,2.119,0,3.178,0
			c2.295,0,4.591,0,6.886,0c3.367,0,6.734,0,10.101,0c4.273,0,8.545,0,12.818,0c5.013,0,10.026,0,15.038,0
			c5.609,0,11.217,0,16.826,0c5.974,0,11.949,0,17.923,0c6.262,0,12.524,0,18.785,0c6.316,0,12.631,0,18.947,0
			c6.226,0,12.453,0,18.679,0c5.971,0,11.943,0,17.914,0c5.55,0,11.101,0,16.651,0c4.964,0,9.928,0,14.892,0
			c4.212,0,8.423,0,12.635,0c3.304,0,6.607,0,9.911,0c2.199,0,4.399,0,6.598,0c0.961,0,1.922,0.013,2.883,0
			c1.234-0.016,2.385-0.544,3.111-1.564c0.563-0.791,0.657-1.672,0.794-2.611"/>
	</g>
	<g id="POLYLINE_1568_">
		
			<path fill="none" stroke="#F368E0" stroke-width="2.75" stroke-linecap="round" stroke-linejoin="round" stroke-miterlimit="10" d="
			M504.006,480.845c0.51-3.242,1.02-6.484,1.53-9.727c0.496-3.157,0.968-6.32,1.49-9.473c0.54-3.257,1.136-6.505,1.771-9.745
			c0.631-3.217,1.321-6.423,2.014-9.626c0.652-3.011,1.372-6.009,2.29-8.951c0.834-2.674,1.838-5.306,3.134-7.793
			c1.308-2.51,2.936-4.886,5.007-6.83c1.963-1.842,4.308-3.222,6.794-4.234c2.619-1.066,5.38-1.75,8.164-2.22
			c3.054-0.516,6.146-0.774,9.237-0.927c3.34-0.164,6.686-0.188,10.029-0.216c2.982-0.026,5.968-0.001,8.949,0.087
			c3.311,0.098,6.62,0.228,9.924,0.465c3.221,0.231,6.434,0.554,9.636,0.966c3.039,0.392,6.071,0.898,9.057,1.587
			c2.899,0.668,5.791,1.504,8.494,2.762c2.615,1.217,4.929,2.922,6.707,5.206c1.871,2.403,3.13,5.214,4.363,7.979
			c1.304,2.923,2.582,5.857,3.618,8.888c1.01,2.954,1.798,5.975,2.425,9.032c0.614,2.993,1.052,6.026,1.37,9.064
			c0.349,3.341,0.557,6.697,0.764,10.049c0.199,3.228,0.352,6.459,0.465,9.691c0.048,1.388,0.008,2.791,0.1,4.177
			c0.036,0.553,0.148,1.11,0.506,1.552c0.433,0.536,1.124,0.676,1.774,0.758c1.344,0.168,2.726,0.128,4.077,0.136
			c3.223,0.018,6.447,0.021,9.669-0.005c3.429-0.028,6.858-0.067,10.286-0.166c3.014-0.087,6.063-0.235,9.028-0.824
			c2.641-0.525,5.277-1.442,7.388-3.162c2.012-1.639,3.38-3.894,4.32-6.286c1.084-2.759,1.682-5.707,2.161-8.624
			c0.494-3.008,0.85-6.043,1.103-9.08c0.272-3.264,0.533-6.538,0.607-9.814c0.064-2.835,0.037-5.784-0.883-8.499
			c-0.966-2.851-3.002-5.149-5.413-6.892c-2.468-1.783-5.29-3.067-8.225-3.858c-2.885-0.777-5.872-1.111-8.848-1.286
			c-3.236-0.191-6.479-0.192-9.719-0.153c-3.155,0.038-6.318,0.13-9.465,0.352c-3.018,0.213-6.016,0.669-8.951,1.404
			c-2.875,0.72-5.745,1.657-8.458,2.856"/>
	</g>
	<g id="POLYLINE_1567_">
		
			<path fill="none" stroke="#F368E0" stroke-width="2.75" stroke-linecap="round" stroke-linejoin="round" stroke-miterlimit="10" d="
			M283.806,474.333c0.264,1.663,0.375,3.433,0.815,5.058c0.222,0.82,0.868,1.481,1.686,1.715c0.614,0.176,1.343,0.095,1.974,0.095
			c1.517,0,3.035,0,4.552,0c2.468,0,4.935,0,7.403,0c3.306,0,6.613,0,9.919,0c3.986,0,7.971,0,11.957,0c4.566,0,9.132,0,13.699,0
			c4.976,0,9.953,0,14.929,0c5.296,0,10.593,0,15.889,0c5.44,0,10.88,0,16.319,0c5.474,0,10.948,0,16.422,0
			c5.399,0,10.798,0,16.198,0c5.168,0,10.336,0,15.505,0c4.785,0,9.57,0,14.355,0c4.293,0,8.586,0,12.879,0
			c3.684,0,7.367,0,11.051,0c2.922,0,5.844,0,8.766,0c2.021,0,4.042,0,6.063,0c1.003,0,2.005,0.002,3.008,0
			c1.216-0.003,2.053-0.553,2.59-1.647c0.854-1.74,1.706-3.481,2.558-5.221"/>
	</g>
	<g id="POLYLINE_1566_">
		
			<path fill="none" stroke="#F368E0" stroke-width="2.75" stroke-linecap="round" stroke-linejoin="round" stroke-miterlimit="10" d="
			M490.013,474.333c1.098-3.557,2.191-7.114,3.194-10.7c1.024-3.664,1.982-7.342,2.828-11.051c0.82-3.595,1.494-7.222,2.033-10.87
			c0.54-3.658,0.883-7.342,1.105-11.033c0.217-3.609,0.304-7.226,0.346-10.841c0.044-3.767,0.073-7.533-0.009-11.3
			c-0.084-3.85-0.217-7.698-0.438-11.543c-0.212-3.687-0.478-7.372-0.834-11.048c-0.373-3.851-0.792-7.696-1.295-11.532
			c-0.482-3.673-1.031-7.338-1.641-10.992c-0.164-0.979-0.327-1.958-0.491-2.937"/>
	</g>
	<g id="POLYLINE_1401_">
		
			<path fill="none" stroke="#F368E0" stroke-width="2.75" stroke-linecap="round" stroke-linejoin="round" stroke-miterlimit="10" d="
			M365.447,372.5c0.09-3.358,0.179-6.717,0.269-10.075c0.188-7.048,0.376-14.096,0.565-21.143
			c0.165-6.196,0.331-12.393,0.496-18.589c0.036-1.36,0.067-2.72,0.109-4.08c0.024-0.773,0.112-1.547,0.39-2.274
			c0.646-1.691,2.195-2.516,3.93-2.689c0.429-0.043,0.862-0.05,1.293-0.037"/>
	</g>
	<g id="POLYLINE_1400_">
		
			<path fill="none" stroke="#F368E0" stroke-width="2.75" stroke-linecap="round" stroke-linejoin="round" stroke-miterlimit="10" d="
			M342.65,372.209c0.116-3.384,0.232-6.767,0.349-10.151c0.242-7.045,0.484-14.089,0.726-21.134
			c0.213-6.213,0.427-12.426,0.64-18.639c0.047-1.368,0.097-2.736,0.141-4.104c0.024-0.754-0.006-1.509-0.239-2.233
			c-0.556-1.727-2.123-2.58-3.831-2.845c-0.496-0.077-0.998-0.109-1.499-0.117"/>
	</g>
	<g id="POLYLINE_1398_">
		
			<path fill="none" stroke="#F368E0" stroke-width="2.75" stroke-linecap="round" stroke-linejoin="round" stroke-miterlimit="10" d="
			M463.425,370.681c1.242,0.962,2.418,1.994,3.516,3.118"/>
	</g>
	<g id="POLYLINE_1397_">
		
			<path fill="none" stroke="#F368E0" stroke-width="2.75" stroke-linecap="round" stroke-linejoin="round" stroke-miterlimit="10" d="
			M629.85,391.021c4.283,1.519,7.103,5.15,8.969,9.148c2.261,4.846,3.475,10.142,4.635,15.336c0.696,3.118,1.361,6.241,2.027,9.365"
			/>
	</g>
	<g id="POLYLINE_1396_">
		
			<path fill="none" stroke="#F368E0" stroke-width="2.75" stroke-linecap="round" stroke-linejoin="round" stroke-miterlimit="10" d="
			M664.596,457.275c0.019,0.4-0.036,0.787-0.135,1.173c-0.303,1.178-0.661,2.344-0.991,3.515c-0.422,1.495-0.843,2.99-1.265,4.484
			c-0.112,0.396-0.221,0.78-0.437,1.135c-0.434,0.713-1.157,1.225-1.973,1.399c-0.45,0.096-0.92,0.071-1.376,0.076
			c-1.59,0.019-3.18,0.039-4.77,0.058c-1.619,0.02-3.237,0.041-4.856,0.059c-0.455,0.005-0.895-0.013-1.335-0.142"/>
	</g>
	<g id="POLYLINE_1395_">
		
			<path fill="none" stroke="#F368E0" stroke-width="2.75" stroke-linecap="round" stroke-linejoin="round" stroke-miterlimit="10" d="
			M645.986,460.726c-0.267-1.507,0.664-3.019,2.13-3.458c0.772-0.232,1.659-0.129,2.451-0.129c2.213,0,4.427,0,6.64,0
			c1.947,0,3.894,0,5.841,0c0.562,0,1.107-0.004,1.65,0.167c1.08,0.34,1.956,1.187,2.333,2.254c0.572,1.623-0.269,3.394-0.705,4.938
			c-0.524,1.859-1.012,3.733-1.574,5.581c-0.151,0.495-0.375,0.943-0.733,1.323c-1.003,1.064-2.329,0.96-3.674,0.977
			c-2.294,0.028-4.588,0.056-6.882,0.084c-0.946,0.012-1.961,0.131-2.903-0.014c-1.117-0.172-2.109-0.874-2.644-1.87
			c-0.299-0.557-0.389-1.156-0.498-1.771c-0.384-2.167-0.768-4.334-1.152-6.501C646.173,461.78,646.08,461.253,645.986,460.726z"/>
	</g>
	<g id="POLYLINE_1308_">
		
			<path fill="none" stroke="#F368E0" stroke-width="2.75" stroke-linecap="round" stroke-linejoin="round" stroke-miterlimit="10" d="
			M662.497,420.729c2.099-0.486,1.223-2.739,0.827-4.108c-0.767-2.654-1.535-5.308-2.302-7.961
			c-0.247-0.854-0.488-1.711-0.741-2.563c-0.086-0.289-0.177-0.562-0.363-0.806c-0.471-0.616-1.303-0.872-2.038-0.627"/>
	</g>
	<g id="POLYLINE_1307_">
		
			<path fill="none" stroke="#F368E0" stroke-width="2.75" stroke-linecap="round" stroke-linejoin="round" stroke-miterlimit="10" d="
			M442.758,313.858c4.785,2.789,9.532,5.63,14.251,8.531c4.587,2.82,9.146,5.682,13.676,8.591c3.656,2.347,7.303,4.71,10.918,7.121
			c5.749,3.834,11.497,7.668,17.246,11.502c4.792,3.196,9.585,6.392,14.377,9.589c0.084,0.056,0.167,0.112,0.251,0.167"/>
	</g>
	<g id="POLYLINE_1306_">
		
			<path fill="none" stroke="#F368E0" stroke-width="2.75" stroke-linecap="round" stroke-linejoin="round" stroke-miterlimit="10" d="
			M361.727,302.463c3.39,0.062,6.779,0.125,10.169,0.187c2.48,0.046,4.959,0.091,7.438,0.161c3.307,0.094,6.615,0.16,9.921,0.282
			c3.231,0.12,6.464,0.248,9.694,0.406c3.179,0.155,6.357,0.36,9.53,0.611c3.003,0.238,6.006,0.527,8.987,0.968
			c2.946,0.435,5.86,1.034,8.745,1.771c2.97,0.759,5.904,1.666,8.767,2.762c1.398,0.535,2.778,1.119,4.147,1.725
			c1.061,0.469,2.194,0.918,3.156,1.576c0.596,0.408,0.776,0.775,0.132,1.229c-1.079,0.76-2.252,1.396-3.289,2.217
			c-0.988,0.782-1.028,1.687-0.093,2.557c0.466,0.434,1.019,0.769,1.545,1.123c1.607,1.085,3.215,2.169,4.822,3.254
			c2.299,1.552,4.609,3.088,6.887,4.671c2.736,1.902,5.492,3.78,8.209,5.709c2.572,1.827,5.141,3.663,7.684,5.531
			c2.625,1.928,5.226,3.887,7.806,5.876c2.425,1.87,4.824,3.776,7.179,5.733c2.612,2.171,5.194,4.379,7.791,6.568
			c2.1,1.771,4.259,3.499,6.529,5.048c2.374,1.62,4.926,2.933,7.643,3.873c2.772,0.958,5.66,1.543,8.558,1.961
			c2.192,0.316,4.396,0.546,6.601,0.755c3.522,0.332,7.043,0.665,10.565,0.997c4.445,0.42,8.889,0.839,13.334,1.259
			c2.119,0.2,4.241,0.383,6.359,0.601c3.397,0.349,6.792,0.741,10.186,1.123c3.211,0.361,6.417,0.777,9.625,1.166
			c2.833,0.344,5.659,0.735,8.487,1.113c2.719,0.364,5.436,0.732,8.151,1.125c3.033,0.439,6.071,0.854,9.099,1.324
			c3.365,0.522,6.733,1.025,10.095,1.567c3.074,0.496,6.146,1.011,9.214,1.544c3.146,0.547,6.282,1.148,9.411,1.785
			c2.974,0.606,5.929,1.305,8.859,2.098c2.787,0.754,5.707,1.498,8.228,2.948c2.347,1.35,4.03,3.388,5.293,5.75
			c1.392,2.603,2.367,5.418,3.26,8.224c0.898,2.822,1.708,5.674,2.474,8.534c0.805,3.007,1.571,6.029,2.216,9.075
			c0.267,1.26,0.798,3.037,0.097,4.274c-0.732,1.291-2.652,1.51-3.955,1.665"/>
	</g>
	<g id="POLYLINE_1305_">
		
			<path fill="none" stroke="#F368E0" stroke-width="2.75" stroke-linecap="round" stroke-linejoin="round" stroke-miterlimit="10" d="
			M124.945,317.534c3.484-3.498,7.746-5.985,12.357-7.694c4.556-1.689,9.294-2.829,14.115-3.411
			c5.533-0.669,11.101-1.022,16.656-1.452c4.672-0.362,9.355-0.642,14.04-0.758c2.852-0.07,5.699-0.128,8.552-0.149
			c4.845-0.035,9.689-0.07,14.534-0.105c7.124-0.052,14.247-0.103,21.371-0.155c7.814-0.057,15.629-0.113,23.443-0.17
			c6.917-0.05,13.834-0.1,20.75-0.151c4.431-0.032,8.862-0.064,13.293-0.096c2.277-0.017,4.553-0.008,6.83,0.001
			c6.315,0.027,12.63,0.035,18.944,0.081c5.335,0.039,10.672,0.207,16.007,0.312c4.193,0.083,8.382,0.179,12.574,0.316
			c5.799,0.189,11.6,0.345,17.398,0.568c5.97,0.23,11.939,0.529,17.907,0.794c4.648,0.206,9.294,0.461,13.938,0.751
			c5.084,0.318,10.171,0.667,15.246,1.111c5.114,0.447,10.223,1.042,15.272,1.98c4.988,0.927,9.915,2.171,14.729,3.773
			c2.406,0.801,4.775,1.697,7.128,2.64"/>
	</g>
	<g id="POLYLINE_1304_">
		
			<path fill="none" stroke="#F368E0" stroke-width="2.75" stroke-linecap="round" stroke-linejoin="round" stroke-miterlimit="10" d="
			M503.708,365.776c2.233-1.482,4.467-2.964,6.7-4.446c1.46-0.969,2.93-2.08,4.548-2.768c0.726-0.308,1.449-0.316,2.2-0.088
			c1.621,0.493,3.108,1.58,4.53,2.466c2.386,1.487,4.761,2.993,7.141,4.489"/>
	</g>
	<g id="POLYLINE_1303_">
		
			<path fill="none" stroke="#F368E0" stroke-width="2.75" stroke-linecap="round" stroke-linejoin="round" stroke-miterlimit="10" d="
			M512.941,368.153c4.753,0.738,10.05,0.415,14.355-1.876c1.683-0.896,3.18-1.883,5.115-2.034c2.637-0.206,5.326,0.025,7.962,0.147
			c5.864,0.272,11.71,0.689,17.554,1.251c5.41,0.52,10.815,1.189,16.196,1.956c5.699,0.813,11.384,1.685,17.06,2.642
			c6.199,1.045,12.384,2.144,18.569,3.264c5.157,0.934,10.313,1.95,15.426,3.105c5.642,1.275,11.294,2.591,16.755,4.522
			c4.734,1.673,9.721,3.865,12.855,7.963c0.726,0.949,1.337,1.988,1.803,3.089c0.184,0.436,0.505,1.096,0.364,1.584
			c-0.15,0.52-0.758,0.591-1.22,0.634c-1.148,0.108-2.325,0.042-3.475,0.035c-1.522-0.009-3.044-0.019-4.566-0.028"/>
	</g>
	<g id="POLYLINE_1301_">
		
			<path fill="none" stroke="#F368E0" stroke-width="2.75" stroke-linecap="round" stroke-linejoin="round" stroke-miterlimit="10" d="
			M664.649,429.276c-1.083-4.475-2.228-8.935-3.472-13.368c-1.308-4.661-2.663-9.308-4.153-13.915
			c-0.816-2.522-1.689-5.026-2.544-7.535"/>
	</g>
	<g id="POLYLINE_1300_">
		
			<path fill="none" stroke="#F368E0" stroke-width="2.75" stroke-linecap="round" stroke-linejoin="round" stroke-miterlimit="10" d="
			M629.961,383.765c-0.426,5.085-0.079,10.05,1.209,14.994c1.451,5.572,3.092,11.102,4.445,16.699
			c0.756,3.128,1.442,6.266,2.063,9.424"/>
	</g>
	<g id="POLYLINE_1299_">
		
			<line fill="none" stroke="#F368E0" stroke-width="2.75" stroke-linecap="round" stroke-linejoin="round" stroke-miterlimit="10" x1="269.885" y1="474.333" x2="504.997" y2="474.333"/>
	</g>
	<g id="POLYLINE_1298_">
		
			<line fill="none" stroke="#F368E0" stroke-width="2.75" stroke-linecap="round" stroke-linejoin="round" stroke-miterlimit="10" x1="611.926" y1="480.845" x2="621.326" y2="480.845"/>
	</g>
	<g id="POLYLINE_1297_">
		
			<line fill="none" stroke="#F368E0" stroke-width="2.75" stroke-linecap="round" stroke-linejoin="round" stroke-miterlimit="10" x1="504.006" y1="480.845" x2="516.654" y2="480.845"/>
	</g>
	<g id="POLYLINE_1296_">
		
			<path fill="none" stroke="#F368E0" stroke-width="2.75" stroke-linecap="round" stroke-linejoin="round" stroke-miterlimit="10" d="
			M152.703,306.275c-0.075-0.987-0.082-1.948,0.429-2.832c0.506-0.874,1.318-1.58,2.124-2.166c2.563-1.862,5.459-2.305,8.559-2.471
			c3.88-0.208,7.796-0.239,11.677-0.044c1.445,0.073,3.016,0.09,4.406,0.537c0.384,0.124,0.731,0.304,1.04,0.564
			c0.255,0.215,0.429,0.534,0.743,0.597c0.37,0.075,0.862-0.026,1.237-0.037c0.775-0.023,1.551-0.047,2.326-0.07
			c2.342-0.071,4.684-0.142,7.026-0.213c5.784-0.175,11.569-0.351,17.353-0.526c3.212-0.097,6.424-0.214,9.637-0.292
			c2.825-0.068,5.652-0.097,8.478-0.146c5.743-0.098,11.486-0.197,17.229-0.295c3.532-0.061,7.065-0.139,10.597-0.182
			c2.654-0.032,5.309-0.017,7.963-0.025c5.726-0.017,11.453-0.035,17.179-0.052c3.508-0.011,7.017-0.041,10.525-0.032
			c2.743,0.008,5.487,0.061,8.23,0.093c5.728,0.065,11.455,0.13,17.183,0.195c2.317,0.026,4.634,0.053,6.951,0.079
			c0.727,0.008,1.455,0.017,2.182,0.025c0.262,0.003,0.733,0.103,0.983,0.011c0.298-0.109,0.598-0.593,0.9-0.778
			c0.299-0.183,0.633-0.295,0.971-0.38c1.524-0.384,3.175-0.403,4.737-0.471c3.84-0.167,7.694-0.162,11.537-0.084
			c1.987,0.04,3.974,0.087,5.959,0.192c1.673,0.089,3.386,0.207,5.004,0.673c2.129,0.613,4.588,1.996,5.699,3.995
			c0.483,0.868,0.469,1.812,0.396,2.773"/>
	</g>
	<g id="POLYLINE_1295_">
		
			<path fill="none" stroke="#F368E0" stroke-width="2.75" stroke-linecap="round" stroke-linejoin="round" stroke-miterlimit="10" d="
			M124.945,317.534c-1.677-0.335-3.395-0.974-4.381-2.451c-0.383-0.574-0.801-1.255-0.395-1.921c0.5-0.82,1.55-1.381,2.331-1.866
			c2.668-1.66,5.471-2.869,8.528-3.597c3.274-0.78,6.628-1.279,9.961-1.727c3.447-0.463,6.887-0.817,10.362-0.979
			c0.441-0.021,0.881-0.041,1.322-0.062"/>
	</g>
	<g id="POLYLINE_1294_">
		
			<path fill="none" stroke="#F368E0" stroke-width="2.75" stroke-linecap="round" stroke-linejoin="round" stroke-miterlimit="10" d="
			M493.023,434.562c-0.231,1.034-1.205,0.968-2.016,0.958c-1.373-0.018-2.746-0.036-4.118-0.053
			c-2.382-0.031-4.765-0.062-7.147-0.093c-3.266-0.042-6.532-0.085-9.797-0.127c-3.994-0.052-7.988-0.104-11.983-0.156
			c-4.555-0.059-9.11-0.118-13.665-0.178c-5.009-0.065-10.017-0.13-15.026-0.195c-5.297-0.069-10.594-0.138-15.89-0.206
			c-5.438-0.071-10.876-0.141-16.314-0.212c-5.409-0.07-10.819-0.141-16.228-0.211c-5.281-0.069-10.561-0.137-15.842-0.206
			c-4.982-0.065-9.963-0.129-14.945-0.194c-4.517-0.059-9.035-0.117-13.552-0.176c-3.946-0.051-7.891-0.103-11.837-0.154
			c-3.206-0.042-6.413-0.083-9.619-0.125c-2.32-0.03-4.64-0.06-6.961-0.09c-1.284-0.017-2.568-0.033-3.852-0.05
			c-1.675-0.022-3.349-0.075-5.023-0.116c-3.479-0.085-7.051,0-10.503-0.486c-2.928-0.413-6.106-1.216-8.54-2.972
			c-0.197-0.142-0.656-0.413-0.594-0.71c0.059-0.28,0.561-0.359,0.784-0.408c1.362-0.3,2.828-0.284,4.216-0.32
			c2.631-0.068,5.267-0.084,7.899-0.077c1.1,0.003,2.2,0.011,3.3,0.016c2.298,0.011,4.595,0.023,6.893,0.034
			c3.319,0.016,6.638,0.033,9.956,0.049c4.136,0.02,8.272,0.041,12.408,0.061c4.735,0.023,9.47,0.047,14.205,0.07
			c5.179,0.026,10.357,0.051,15.536,0.077c5.406,0.027,10.813,0.053,16.219,0.08c5.438,0.027,10.875,0.054,16.313,0.081
			c5.25,0.026,10.5,0.052,15.75,0.078c4.912,0.024,9.823,0.048,14.735,0.073c4.353,0.021,8.707,0.043,13.06,0.064
			c3.585,0.018,7.17,0.035,10.755,0.053c2.651,0.013,5.303,0.026,7.954,0.039c1.504,0.007,3.008,0.015,4.511,0.022
			c0.706,0.003,1.411-0.002,2.117-0.01c4.001-0.042,8.002-0.084,12.003-0.125c5.237-0.055,10.474-0.109,15.71-0.164
			c2.716-0.028,5.493-0.23,8.207-0.086c1.1,0.058,1.259,0.932,1.274,1.858C493.398,431.709,493.322,433.157,493.023,434.562z"/>
	</g>
	<g id="POLYLINE_1293_">
		
			<path fill="none" stroke="#F368E0" stroke-width="2.75" stroke-linecap="round" stroke-linejoin="round" stroke-miterlimit="10" d="
			M463.008,349.529c-1.596-0.013-3.213-0.044-4.795,0.204c-0.82,0.128-1.68,0.33-2.358,0.833c-1.619,1.202-1.649,3.785-1.808,5.576
			c-0.28,3.16-0.504,6.599,0.175,9.723c0.348,1.602,1.118,2.955,2.62,3.708c2.509,1.258,5.695,1.152,8.428,1.104
			c1.842-0.032,3.684-0.134,5.518-0.311c1.252-0.121,2.568-0.241,3.746-0.716c1.312-0.529,1.957-1.587,1.992-2.98
			c0.069-2.736-1.187-5.594-2.233-8.062c-0.667-1.574-1.406-3.122-2.231-4.62c-0.564-1.025-1.143-2.131-1.966-2.978
			c-1.176-1.211-2.933-1.336-4.53-1.416C464.716,349.551,463.862,349.544,463.008,349.529z"/>
	</g>
	<g id="POLYLINE_1292_">
		
			<path fill="none" stroke="#F368E0" stroke-width="2.75" stroke-linecap="round" stroke-linejoin="round" stroke-miterlimit="10" d="
			M354.384,474.333c0.015-2.111,0.03-4.223,0.044-6.334c0.038-5.463,0.076-10.926,0.115-16.389
			c0.052-7.508,0.105-15.015,0.157-22.523c0.057-8.2,0.115-16.399,0.172-24.599c0.054-7.683,0.107-15.367,0.161-23.05
			c0.041-5.815,0.081-11.63,0.122-17.445c0.018-2.639,0.023-5.279,0.055-7.919c0.053-4.415,0.2-8.83,0.301-13.244
			c0.148-6.494,0.297-12.988,0.445-19.482c0.111-4.848,0.316-9.698,0.548-14.542c0.065-1.367,0.131-2.735,0.196-4.102"/>
	</g>
	<g id="POLYLINE_1291_">
		
			<path fill="none" stroke="#F368E0" stroke-width="2.75" stroke-linecap="round" stroke-linejoin="round" stroke-miterlimit="10" d="
			M264.556,303.467c-0.64,1.655-1.28,3.311-1.921,4.966c-1.573,4.067-3.146,8.134-4.719,12.2
			c-1.993,5.151-3.985,10.303-5.978,15.454c-1.865,4.823-3.731,9.646-5.596,14.469c-1.245,3.219-2.49,6.438-3.735,9.656
			c-0.784,2.027-1.547,4.053-2.141,6.146c-0.946,3.333-1.552,6.759-1.878,10.206c-0.259,2.739-0.3,5.48-0.3,8.228
			c0,4.746,0,9.491,0,14.237c0,4.288,0,8.576,0,12.864c0,0.24,0,0.48,0,0.72"/>
	</g>
	<g id="POLYLINE_1290_">
		
			<line fill="none" stroke="#F368E0" stroke-width="2.75" stroke-linecap="round" stroke-linejoin="round" stroke-miterlimit="10" x1="103.056" y1="377.12" x2="92.981" y2="377.12"/>
	</g>
	<g id="POLYLINE_1289_">
		
			<path fill="none" stroke="#F368E0" stroke-width="2.75" stroke-linecap="round" stroke-linejoin="round" stroke-miterlimit="10" d="
			M132.999,315.668c-2.176,2.935-4.289,5.912-6.372,8.914c-1.912,2.755-3.8,5.537-5.587,8.375c-1.864,2.96-3.687,5.947-5.341,9.031
			c-1.684,3.141-3.277,6.323-4.712,9.586c-1.372,3.119-2.612,6.295-3.714,9.519c-1.112,3.254-2.092,6.558-2.91,9.898
			c-0.824,3.362-1.486,6.764-1.946,10.195c-0.465,3.469-0.783,6.957-0.981,10.452c-0.197,3.471-0.322,6.955-0.348,10.432
			c-0.028,3.675-0.035,7.348,0.023,11.023c0.014,0.927,0.029,1.854,0.043,2.781c-3.829-0.162-7.658-0.324-11.487-0.485"/>
	</g>
	<g id="POLYLINE_1288_">
		
			<path fill="none" stroke="#F368E0" stroke-width="2.75" stroke-linecap="round" stroke-linejoin="round" stroke-miterlimit="10" d="
			M141.397,314.75c-2.304,2.984-4.457,6.081-6.536,9.225c-2.175,3.291-4.252,6.643-6.288,10.021
			c-1.915,3.177-3.76,6.398-5.517,9.664c-1.775,3.298-3.469,6.642-4.995,10.062c-1.538,3.445-2.939,6.959-4.112,10.546
			c-1.192,3.647-2.245,7.34-3.064,11.09c-0.786,3.597-1.319,7.248-1.671,10.912c-0.373,3.873-0.564,7.754-0.687,11.641
			c-0.115,3.636-0.143,7.277-0.113,10.914c0.033,3.995,0.102,7.988,0.213,11.982c0.025,0.91,0.051,1.821,0.076,2.731"/>
	</g>
	<g id="POLYLINE_1286_">
		
			<path fill="none" stroke="#F368E0" stroke-width="2.75" stroke-linecap="round" stroke-linejoin="round" stroke-miterlimit="10" d="
			M141.397,314.75c-4.299,0.303-8.588,0.806-12.797,1.754c-0.961,0.216-1.918,0.461-2.857,0.759
			c-0.416,0.132-0.762,0.232-1.091,0.519c-0.379,0.331-0.744,0.68-1.104,1.032c-1.538,1.508-2.981,3.116-4.37,4.762
			c-2.795,3.31-5.317,6.828-7.7,10.443c-2.327,3.529-4.503,7.168-6.542,10.872c-2.081,3.781-4.047,7.628-5.762,11.59
			c-1.737,4.014-3.231,8.134-4.382,12.355c-1.122,4.117-1.903,8.314-2.422,12.548c-0.452,3.688-0.693,7.389-0.949,11.094
			c-0.398,5.76-0.796,11.521-1.194,17.281c-0.103,1.497-0.241,2.989-0.416,4.479c-0.229,1.951-0.47,3.969-1.218,5.8
			c-0.368,0.901-0.845,1.751-1.325,2.596"/>
	</g>
	<g id="POLYLINE_1285_">
		
			<path fill="none" stroke="#F368E0" stroke-width="2.75" stroke-linecap="round" stroke-linejoin="round" stroke-miterlimit="10" d="
			M87.268,422.635c5.031,0.205,10.062,0.411,15.093,0.616c4.496,0.184,8.992,0.389,13.489,0.55
			c4.102,0.147,8.206,0.268,12.308,0.402c7.168,0.234,14.335,0.468,21.503,0.702c4.395,0.144,8.79,0.287,13.185,0.431
			c0.068,0.002,0.136,0.004,0.205,0.007"/>
	</g>
	<g id="POLYLINE_1284_">
		
			<path fill="none" stroke="#F368E0" stroke-width="2.75" stroke-linecap="round" stroke-linejoin="round" stroke-miterlimit="10" d="
			M87.268,422.635c-2.323,2.828-4.275,5.959-4.926,9.612c-0.322,1.81-0.356,3.657-0.38,5.49c-0.027,2.123-0.034,4.246,0.131,6.364
			c0.272,3.488,1.002,6.949,2.471,10.138c1.544,3.351,3.815,6.344,6.319,9.033c2.643,2.838,5.621,5.401,8.86,7.537
			c3.265,2.154,6.844,3.672,10.649,4.567c3.968,0.933,8.055,1.352,12.109,1.703c3.709,0.321,7.425,0.544,11.141,0.772
			c4.655,0.286,9.309,0.605,13.965,0.857c1.909,0.103,3.883,0.278,5.792,0.106c0.837-0.075,1.784-0.258,2.211-1.069
			c0.183-0.347,0.25-0.751,0.279-1.138"/>
	</g>
	<g id="POLYLINE_1283_">
		
			<path fill="none" stroke="#F368E0" stroke-width="2.75" stroke-linecap="round" stroke-linejoin="round" stroke-miterlimit="10" d="
			M362.575,394.018c-0.629,0-1.156-0.467-1.263-1.08c-0.092-0.529-0.016-1.115-0.016-1.649c0-0.33-0.034-0.669,0.091-0.982
			c0.466-1.168,2.258-0.804,3.22-0.804c7.385,0,14.77,0,22.154,0c2.239,0,4.492-0.075,6.73,0c0.483,0.016,0.92,0.173,1.187,0.607
			c0.153,0.247,0.179,0.499,0.19,0.779c0.024,0.627,0.067,1.314-0.003,1.939c-0.151,1.357-1.514,1.19-2.51,1.19
			c-3.129,0-6.259,0-9.388,0c-6.668,0-13.336,0-20.004,0C362.834,394.018,362.704,394.018,362.575,394.018z"/>
	</g>
	<g id="POLYLINE_1282_">
		
			<path fill="none" stroke="#F368E0" stroke-width="2.75" stroke-linecap="round" stroke-linejoin="round" stroke-miterlimit="10" d="
			M371.389,389.502c0.387-2.308,2.348-4.103,4.684-4.277c2.217-0.164,4.512-0.051,6.735-0.014c1.141,0.019,2.242,0.374,3.149,1.077
			c1.015,0.787,1.705,1.948,1.917,3.214"/>
	</g>
	<g id="POLYLINE_1281_">
		
			<path fill="none" stroke="#F368E0" stroke-width="2.75" stroke-linecap="round" stroke-linejoin="round" stroke-miterlimit="10" d="
			M387.935,394.018c-0.151,2.493-2.144,4.567-4.633,4.806c-0.984,0.094-1.998,0.024-2.984,0.024c-1.303,0-2.609,0.028-3.911,0
			c-1.223-0.027-2.401-0.456-3.327-1.263c-1.033-0.9-1.669-2.2-1.751-3.567"/>
	</g>
	<g id="POLYLINE_1280_">
		
			<path fill="none" stroke="#F368E0" stroke-width="2.75" stroke-linecap="round" stroke-linejoin="round" stroke-miterlimit="10" d="
			M273.226,392.434c-0.151,2.493-2.144,4.567-4.633,4.806c-0.984,0.094-1.998,0.024-2.984,0.024c-1.303,0-2.609,0.028-3.911,0
			c-1.223-0.027-2.401-0.456-3.327-1.263c-1.033-0.9-1.669-2.2-1.751-3.567"/>
	</g>
	<g id="POLYLINE_1279_">
		
			<path fill="none" stroke="#F368E0" stroke-width="2.75" stroke-linecap="round" stroke-linejoin="round" stroke-miterlimit="10" d="
			M256.68,387.918c0.387-2.308,2.348-4.103,4.684-4.277c2.217-0.164,4.512-0.051,6.735-0.014c1.141,0.019,2.242,0.374,3.149,1.077
			c1.015,0.787,1.705,1.948,1.917,3.214"/>
	</g>
	<g id="POLYLINE_1278_">
		
			<path fill="none" stroke="#F368E0" stroke-width="2.75" stroke-linecap="round" stroke-linejoin="round" stroke-miterlimit="10" d="
			M247.866,392.434c-0.629,0-1.156-0.467-1.263-1.08c-0.092-0.529-0.016-1.115-0.016-1.649c0-0.33-0.034-0.669,0.091-0.982
			c0.466-1.168,2.258-0.804,3.22-0.804c7.385,0,14.77,0,22.154,0c2.239,0,4.492-0.075,6.73,0c0.483,0.016,0.92,0.173,1.187,0.607
			c0.153,0.247,0.179,0.499,0.19,0.779c0.024,0.627,0.067,1.314-0.003,1.939c-0.151,1.357-1.514,1.19-2.51,1.19
			c-3.129,0-6.259,0-9.388,0c-6.668,0-13.336,0-20.004,0C248.125,392.434,247.995,392.434,247.866,392.434z"/>
	</g>
	<g id="POLYLINE_1277_">
		
			<line fill="none" stroke="#F368E0" stroke-width="2.75" stroke-linecap="round" stroke-linejoin="round" stroke-miterlimit="10" x1="260.488" y1="480.683" x2="271.092" y2="481.097"/>
	</g>
	<g id="POLYLINE_1276_">
		
			<line fill="none" stroke="#F368E0" stroke-width="2.75" stroke-linecap="round" stroke-linejoin="round" stroke-miterlimit="10" x1="155.891" y1="476.607" x2="164.565" y2="476.945"/>
	</g>
	<g id="POLYLINE_1275_">
		
			<path fill="none" stroke="#F368E0" stroke-width="2.75" stroke-linecap="round" stroke-linejoin="round" stroke-miterlimit="10" d="
			M155.891,476.607c0.126-3.829,0.267-7.656,0.439-11.483c0.158-3.528,0.407-7.054,0.684-10.575
			c0.269-3.418,0.624-6.835,1.09-10.232c0.491-3.573,1.094-7.139,1.986-10.636c0.82-3.211,1.907-6.356,3.445-9.298
			c1.477-2.825,3.306-5.526,5.796-7.556c2.614-2.132,5.787-3.341,9.011-4.209c3.382-0.911,6.847-1.471,10.319-1.902
			c3.55-0.44,7.121-0.683,10.693-0.851c3.461-0.163,6.931-0.212,10.395-0.177c3.66,0.037,7.32,0.157,10.971,0.406
			c3.592,0.245,7.18,0.591,10.739,1.142c3.397,0.526,6.771,1.244,10.041,2.314c3.01,0.985,5.942,2.265,8.601,3.995
			c2.795,1.818,5.276,4.13,6.997,7.005c1.696,2.832,2.759,6.024,3.69,9.174c0.983,3.327,1.828,6.696,2.638,10.068
			c0.832,3.463,1.625,6.938,2.38,10.419c0.804,3.712,1.565,7.431,2.315,11.155c0.718,3.566,1.43,7.132,2.083,10.711
			c0.305,1.671,0.59,3.346,0.885,5.019"/>
	</g>
	<g id="POLYLINE_1274_">
		
			<path fill="none" stroke="#F368E0" stroke-width="2.75" stroke-linecap="round" stroke-linejoin="round" stroke-miterlimit="10" d="
			M612.876,471.28c-0.044-5.029-0.779-10.003-2.31-14.8c-1.494-4.68-3.707-9.133-6.535-13.15
			c-2.884-4.095-6.394-7.734-10.383-10.764c-3.934-2.989-8.333-5.364-12.984-7.029c-4.663-1.669-9.578-2.621-14.527-2.809
			c-5.022-0.191-10.074,0.401-14.914,1.756c-4.739,1.326-9.275,3.369-13.401,6.054c-4.171,2.714-7.922,6.062-11.081,9.909
			c-3.159,3.847-5.713,8.177-7.564,12.797c-1.841,4.596-2.971,9.479-3.337,14.417c-0.37,4.994,0.032,10.036,1.193,14.908
			c1.146,4.807,3.036,9.433,5.574,13.672s5.725,8.089,9.421,11.369c3.757,3.334,8.028,6.079,12.621,8.11
			c4.514,1.995,9.336,3.302,14.241,3.845c4.947,0.547,9.969,0.343,14.852-0.626c4.883-0.969,9.603-2.696,13.966-5.09
			c4.327-2.374,8.285-5.422,11.696-8.99c3.471-3.63,6.371-7.798,8.571-12.313c2.164-4.442,3.64-9.217,4.369-14.104
			C612.698,476.067,612.855,473.68,612.876,471.28z"/>
	</g>
	<g id="POLYLINE_1273_">
		
			<path fill="none" stroke="#F368E0" stroke-width="2.75" stroke-linecap="round" stroke-linejoin="round" stroke-miterlimit="10" d="
			M598.304,471.28c-0.031-3.503-0.537-6.974-1.603-10.316c-1.05-3.292-2.598-6.415-4.583-9.243
			c-2.012-2.866-4.473-5.417-7.262-7.534c-2.761-2.095-5.84-3.763-9.103-4.931c-3.263-1.168-6.701-1.833-10.164-1.966
			c-3.499-0.134-7.02,0.276-10.394,1.214c-3.329,0.926-6.506,2.358-9.407,4.234c-2.933,1.896-5.569,4.256-7.785,6.955
			s-4.018,5.744-5.307,8.99c-1.276,3.211-2.063,6.605-2.323,10.052c-0.264,3.492,0.019,7.025,0.831,10.431
			c0.804,3.371,2.126,6.614,3.906,9.587s4.016,5.669,6.607,7.97c2.619,2.324,5.6,4.242,8.803,5.657
			c3.16,1.397,6.525,2.308,9.958,2.698c3.471,0.394,7.004,0.245,10.43-0.435c3.407-0.676,6.713-1.876,9.756-3.552
			c3.031-1.669,5.803-3.792,8.196-6.291c2.431-2.539,4.468-5.458,6.006-8.62c1.508-3.099,2.538-6.419,3.056-9.826
			C598.177,474.674,598.289,472.981,598.304,471.28z"/>
	</g>
	<g id="POLYLINE_1272_">
		
			<path fill="none" stroke="#F368E0" stroke-width="2.75" stroke-linecap="round" stroke-linejoin="round" stroke-miterlimit="10" d="
			M596.069,471.28c-0.029-3.279-0.503-6.531-1.504-9.657c-0.981-3.063-2.42-5.968-4.266-8.602c-1.879-2.681-4.18-5.068-6.787-7.047
			c-2.582-1.96-5.461-3.52-8.513-4.613c-3.045-1.091-6.254-1.711-9.486-1.837c-3.278-0.128-6.578,0.258-9.738,1.139
			c-3.098,0.864-6.054,2.196-8.756,3.941c-2.747,1.774-5.217,3.982-7.291,6.509c-2.06,2.511-3.738,5.339-4.941,8.356
			c-1.2,3.008-1.94,6.187-2.187,9.417c-0.249,3.264,0.014,6.569,0.773,9.753c0.751,3.153,1.986,6.187,3.652,8.968
			c1.662,2.775,3.748,5.291,6.166,7.439c2.452,2.179,5.247,3.975,8.248,5.3c2.942,1.298,6.072,2.145,9.267,2.511
			c3.249,0.372,6.558,0.232,9.765-0.404c3.185-0.632,6.278-1.754,9.122-3.322c2.836-1.564,5.426-3.55,7.666-5.89
			c2.264-2.365,4.156-5.086,5.592-8.028c1.421-2.913,2.391-6.042,2.869-9.248C595.953,474.411,596.056,472.85,596.069,471.28z"/>
	</g>
	<g id="POLYLINE_1271_">
		
			<path fill="none" stroke="#F368E0" stroke-width="2.75" stroke-linecap="round" stroke-linejoin="round" stroke-miterlimit="10" d="
			M576.001,471.28c-0.005-2.405-0.753-4.776-2.137-6.744c-1.381-1.963-3.368-3.473-5.627-4.282c-2.26-0.809-4.753-0.903-7.066-0.262
			c-2.315,0.641-4.407,1.999-5.932,3.856c-1.519,1.85-2.444,4.156-2.626,6.542c-0.184,2.403,0.392,4.839,1.63,6.906
			c1.233,2.059,3.1,3.714,5.295,4.687c2.188,0.97,4.656,1.25,7.005,0.789c2.358-0.463,4.546-1.659,6.207-3.394
			c1.656-1.729,2.752-3.958,3.116-6.323C575.956,472.468,576,471.874,576.001,471.28z"/>
	</g>
	<g id="POLYLINE_1270_">
		
			<path fill="none" stroke="#F368E0" stroke-width="2.75" stroke-linecap="round" stroke-linejoin="round" stroke-miterlimit="10" d="
			M570.13,471.28c-0.002-2.44-1.574-4.675-3.872-5.498c-2.296-0.822-4.933-0.093-6.481,1.792c-1.548,1.885-1.75,4.613-0.497,6.706
			c1.253,2.093,3.753,3.203,6.146,2.728c2.384-0.473,4.267-2.44,4.636-4.842C570.073,472.091,570.155,471.28,570.13,471.28z"/>
	</g>
	<g id="POLYLINE_1269_">
		
			<path fill="none" stroke="#F368E0" stroke-width="2.75" stroke-linecap="round" stroke-linejoin="round" stroke-miterlimit="10" d="
			M558.712,482.729c0.698,0.34,1.268,0.894,1.047,1.728c-0.082,0.308-0.266,0.602-0.404,0.885c-0.421,0.865-0.843,1.73-1.264,2.596
			c-1.199,2.46-2.397,4.92-3.596,7.381c-0.66,1.355-1.233,2.819-2.005,4.114c-0.837,1.404-3.399,0.443-3.201-1.128
			c0.032-0.257,0.153-0.479,0.265-0.708c0.356-0.731,0.712-1.462,1.068-2.192c1.181-2.423,2.361-4.847,3.542-7.27
			c0.79-1.621,1.522-3.29,2.377-4.878c0.307-0.571,0.87-0.938,1.53-0.796C558.298,482.509,558.504,482.627,558.712,482.729z"/>
	</g>
	<g id="POLYLINE_1268_">
		
			<path fill="none" stroke="#F368E0" stroke-width="2.75" stroke-linecap="round" stroke-linejoin="round" stroke-miterlimit="10" d="
			M557.781,502.386c-1.969-0.463-0.955-2.694-0.506-3.929c0.975-2.682,1.949-5.364,2.924-8.046c0.458-1.259,0.788-2.71,1.453-3.885
			c0.426-0.755,1.156-1.093,1.993-1.12c0.932-0.03,2.053-0.14,2.812,0.526c0.723,0.634,0.959,1.825,1.27,2.679
			c0.998,2.746,1.996,5.491,2.993,8.237c0.417,1.149,1.018,2.358,1.223,3.577c0.121,0.72-0.005,1.459-0.719,1.815
			c-0.134,0.067-0.28,0.114-0.426,0.148"/>
	</g>
	<g id="POLYLINE_1267_">
		
			<path fill="none" stroke="#F368E0" stroke-width="2.75" stroke-linecap="round" stroke-linejoin="round" stroke-miterlimit="10" d="
			M576.745,473.933c-0.167,0.783-0.099,1.581,0.782,1.914c1.15,0.434,2.516,0.549,3.713,0.804c2.674,0.57,5.349,1.139,8.023,1.709
			c1.471,0.313,2.962,0.741,4.453,0.948c1.554,0.216,2.448-2.251,1.202-3.148c-0.254-0.183-0.539-0.232-0.836-0.295
			c-0.792-0.169-1.585-0.337-2.377-0.506c-2.634-0.561-5.268-1.122-7.901-1.683c-1.764-0.376-3.529-0.824-5.306-1.13
			c-0.636-0.109-1.266,0.09-1.569,0.715C576.826,473.472,576.794,473.707,576.745,473.933z"/>
	</g>
	<g id="POLYLINE_1266_">
		
			<path fill="none" stroke="#F368E0" stroke-width="2.75" stroke-linecap="round" stroke-linejoin="round" stroke-miterlimit="10" d="
			M584.795,495.56c-1.456,1.169-2.554-0.655-3.244-1.758c-1.489-2.38-2.978-4.761-4.467-7.142c-0.781-1.248-1.772-2.499-2.375-3.849
			c-0.357-0.799-0.205-1.597,0.292-2.296c0.597-0.838,1.286-1.878,2.417-1.954c0.737-0.049,1.487,0.302,2.168,0.524
			c2.746,0.894,5.493,1.788,8.239,2.682c1.318,0.429,2.778,0.742,4.027,1.365c0.688,0.343,1.272,0.922,1.104,1.743
			c-0.03,0.147-0.082,0.291-0.145,0.427"/>
	</g>
	<g id="POLYLINE_1265_">
		
			<path fill="none" stroke="#F368E0" stroke-width="2.75" stroke-linecap="round" stroke-linejoin="round" stroke-miterlimit="10" d="
			M569.877,482.724c0.664-0.324,1.368-0.481,1.932,0.149c0.239,0.267,0.374,0.65,0.529,0.967c0.421,0.863,0.842,1.725,1.263,2.588
			c1.2,2.457,2.399,4.914,3.599,7.371c0.661,1.355,1.458,2.707,2.007,4.112c0.544,1.393-1.419,2.78-2.623,2.017
			c-0.325-0.206-0.477-0.519-0.638-0.85c-0.356-0.728-0.711-1.456-1.066-2.184c-1.182-2.42-2.363-4.84-3.544-7.26
			c-0.791-1.621-1.653-3.224-2.38-4.875c-0.235-0.534-0.236-1.108,0.18-1.567C569.34,482.968,569.609,482.855,569.877,482.724z"/>
	</g>
	<g id="POLYLINE_1264_">
		
			<path fill="none" stroke="#F368E0" stroke-width="2.75" stroke-linecap="round" stroke-linejoin="round" stroke-miterlimit="10" d="
			M574.049,463.099c0.469,0.56,1.064,0.976,1.804,0.659c0.333-0.143,0.613-0.439,0.886-0.668c0.738-0.618,1.475-1.237,2.213-1.855
			c2.097-1.758,4.194-3.516,6.291-5.275c1.155-0.968,2.436-1.878,3.507-2.941c0.471-0.467,0.589-1.145,0.241-1.72
			c-0.41-0.679-1.098-1.38-1.954-1.162c-0.312,0.079-0.539,0.278-0.778,0.478c-0.623,0.522-1.246,1.044-1.869,1.567
			c-2.066,1.732-4.131,3.464-6.197,5.195c-1.382,1.159-2.824,2.272-4.159,3.486c-0.438,0.399-0.668,0.945-0.465,1.527
			C573.666,462.669,573.862,462.876,574.049,463.099z"/>
	</g>
	<g id="POLYLINE_1260_">
		
			<path fill="none" stroke="#F368E0" stroke-width="2.75" stroke-linecap="round" stroke-linejoin="round" stroke-miterlimit="10" d="
			M596.046,470.07c0.027,2.029-2.42,1.575-3.732,1.438c-2.845-0.298-5.69-0.595-8.535-0.893c-1.313-0.137-2.777-0.108-4.059-0.463
			c-0.859-0.238-1.355-0.887-1.583-1.717c-0.233-0.847-0.588-1.824-0.212-2.686c0.38-0.871,1.408-1.364,2.151-1.864
			c2.406-1.621,4.812-3.243,7.219-4.864c1.077-0.726,2.157-1.634,3.346-2.184c0.613-0.283,1.333-0.413,1.876,0.084
			c0.158,0.145,0.281,0.328,0.379,0.517"/>
	</g>
	<g id="POLYLINE_1259_">
		
			<path fill="none" stroke="#F368E0" stroke-width="2.75" stroke-linecap="round" stroke-linejoin="round" stroke-miterlimit="10" d="
			M535.217,458.447c0.885-1.877,2.933-0.312,4.056,0.389c2.438,1.522,4.876,3.043,7.314,4.565c1.099,0.686,2.459,1.29,3.409,2.193
			c0.587,0.557,0.749,1.296,0.621,2.069c-0.161,0.972-0.314,2.178-1.215,2.766c-0.76,0.496-1.872,0.484-2.729,0.605
			c-2.89,0.405-5.78,0.809-8.669,1.214c-1.226,0.172-2.545,0.509-3.795,0.461c-0.733-0.028-1.442-0.306-1.642-1.081
			c-0.037-0.145-0.053-0.298-0.057-0.447"/>
	</g>
	<g id="POLYLINE_1258_">
		
			<path fill="none" stroke="#F368E0" stroke-width="2.75" stroke-linecap="round" stroke-linejoin="round" stroke-miterlimit="10" d="
			M551.932,474.356c-0.193-0.776-0.647-1.461-1.542-1.377c-1.224,0.114-2.502,0.609-3.689,0.905c-2.653,0.66-5.307,1.321-7.96,1.981
			c-1.458,0.363-2.99,0.629-4.418,1.1c-1.584,0.522-1.152,3.323,0.485,3.375c0.239,0.008,0.466-0.063,0.695-0.12
			c0.786-0.196,1.572-0.391,2.358-0.587c2.613-0.65,5.226-1.301,7.839-1.951c1.75-0.435,3.534-0.804,5.265-1.31
			c0.646-0.189,1.128-0.698,1.095-1.401C552.05,474.762,551.982,474.557,551.932,474.356z"/>
	</g>
	<g id="POLYLINE_1257_">
		
			<path fill="none" stroke="#F368E0" stroke-width="2.75" stroke-linecap="round" stroke-linejoin="round" stroke-miterlimit="10" d="
			M564.284,458.545c-0.798,0-1.569-0.248-1.71-1.163c-0.186-1.215-0.014-2.575-0.014-3.799c-0.001-2.734-0.002-5.469-0.003-8.203
			c-0.001-1.504-0.109-3.052-0.002-4.553c0.118-1.65,2.944-1.925,3.392-0.346c0.065,0.23,0.051,0.468,0.051,0.704
			c0,0.81,0.001,1.62,0.001,2.43c0.001,2.693,0.002,5.386,0.003,8.079c0.001,1.803,0.073,3.623,0.002,5.425
			c-0.026,0.67-0.393,1.261-1.094,1.401C564.707,458.562,564.491,458.545,564.284,458.545z"/>
	</g>
	<g id="POLYLINE_1256_">
		
			<path fill="none" stroke="#F368E0" stroke-width="2.75" stroke-linecap="round" stroke-linejoin="round" stroke-miterlimit="10" d="
			M556.504,440.469c2.018-0.457,2.056,2.156,2.196,3.478c0.302,2.864,0.605,5.728,0.907,8.592c0.133,1.258,0.458,2.632,0.37,3.905
			c-0.059,0.857-0.571,1.471-1.311,1.863c-0.748,0.396-1.625,0.936-2.516,0.803c-0.93-0.139-1.582-0.967-2.216-1.581
			c-2.081-2.012-4.162-4.023-6.243-6.035c-0.979-0.947-2.127-1.852-2.967-2.936c-0.378-0.488-0.691-1.115-0.436-1.732
			c0.107-0.259,0.301-0.477,0.516-0.652"/>
	</g>
	<g id="POLYLINE_1255_">
		
			<path fill="none" stroke="#F368E0" stroke-width="2.75" stroke-linecap="round" stroke-linejoin="round" stroke-miterlimit="10" d="
			M554.258,463.436c0.451-0.577,0.74-1.233,0.27-1.902c-0.209-0.296-0.557-0.509-0.838-0.728c-0.758-0.593-1.516-1.186-2.274-1.779
			c-2.156-1.686-4.312-3.372-6.467-5.057c-1.187-0.928-2.344-1.993-3.606-2.819c-0.553-0.362-1.238-0.342-1.733,0.122
			c-0.544,0.509-1.07,1.257-0.786,2.025c0.132,0.355,0.399,0.567,0.685,0.79c0.64,0.501,1.281,1.001,1.921,1.502
			c2.123,1.66,4.247,3.321,6.37,4.981c1.421,1.111,2.81,2.29,4.275,3.343c0.469,0.337,1.024,0.456,1.55,0.161
			C553.787,463.984,554.258,463.623,554.258,463.436z"/>
	</g>
	<g id="POLYLINE_1254_">
		
			<path fill="none" stroke="#F368E0" stroke-width="2.75" stroke-linecap="round" stroke-linejoin="round" stroke-miterlimit="10" d="
			M583.776,446.176c1.69,1.382-0.619,3.127-1.585,4.061c-2.093,2.023-4.185,4.045-6.278,6.068c-0.849,0.821-1.713,1.964-2.766,2.554
			c-0.674,0.378-1.393,0.317-2.074,0.015c-0.958-0.426-2.116-0.876-2.404-2c-0.201-0.786,0.026-1.706,0.109-2.486
			c0.307-2.91,0.615-5.819,0.922-8.729c0.133-1.261,0.128-2.648,0.474-3.88c0.201-0.715,0.647-1.356,1.455-1.363
			c0.15-0.001,0.302,0.02,0.448,0.053"/>
	</g>
	<g id="POLYLINE_1253_">
		
			<path fill="none" stroke="#F368E0" stroke-width="2.75" stroke-linecap="round" stroke-linejoin="round" stroke-miterlimit="10" d="
			M535.771,485.302c-0.903-1.957,1.921-2.537,3.205-2.955c2.786-0.907,5.573-1.814,8.359-2.72c1.094-0.356,2.294-0.947,3.457-1.057
			c0.819-0.078,1.486,0.314,1.994,0.929c0.692,0.837,1.529,1.746,1.226,2.92c-0.235,0.912-0.965,1.764-1.45,2.538
			c-1.567,2.505-3.134,5.01-4.701,7.515c-0.651,1.042-1.953,4.166-3.697,3.332c-0.135-0.065-0.262-0.15-0.379-0.244"/>
	</g>
	<g id="POLYLINE_1252_">
		
			<path fill="none" stroke="#F368E0" stroke-width="2.75" stroke-linecap="round" stroke-linejoin="round" stroke-miterlimit="10" d="
			M184.301,485.302c-0.903-1.957,1.921-2.537,3.205-2.955c2.786-0.907,5.573-1.814,8.359-2.72c1.094-0.356,2.294-0.947,3.457-1.057
			c0.819-0.078,1.486,0.314,1.994,0.929c0.692,0.837,1.529,1.746,1.226,2.92c-0.236,0.912-0.965,1.764-1.45,2.538
			c-1.567,2.505-3.134,5.01-4.701,7.515c-0.652,1.042-1.953,4.166-3.697,3.332c-0.135-0.065-0.262-0.15-0.379-0.244"/>
	</g>
	<g id="POLYLINE_1251_">
		
			<path fill="none" stroke="#F368E0" stroke-width="2.75" stroke-linecap="round" stroke-linejoin="round" stroke-miterlimit="10" d="
			M232.306,446.176c1.69,1.382-0.619,3.127-1.585,4.061c-2.093,2.023-4.185,4.045-6.278,6.068c-0.849,0.821-1.713,1.964-2.766,2.554
			c-0.674,0.378-1.393,0.317-2.074,0.015c-0.958-0.426-2.116-0.876-2.404-2c-0.201-0.786,0.026-1.706,0.109-2.486
			c0.307-2.91,0.615-5.819,0.922-8.729c0.133-1.261,0.128-2.648,0.474-3.88c0.201-0.715,0.647-1.356,1.455-1.363
			c0.15-0.001,0.302,0.02,0.448,0.053"/>
	</g>
	<g id="POLYLINE_1250_">
		
			<path fill="none" stroke="#F368E0" stroke-width="2.75" stroke-linecap="round" stroke-linejoin="round" stroke-miterlimit="10" d="
			M202.788,463.436c0.451-0.577,0.74-1.233,0.27-1.902c-0.209-0.296-0.557-0.509-0.838-0.728c-0.758-0.593-1.516-1.186-2.274-1.779
			c-2.156-1.686-4.312-3.372-6.467-5.057c-1.187-0.928-2.344-1.993-3.606-2.819c-0.553-0.362-1.238-0.342-1.733,0.122
			c-0.544,0.509-1.07,1.257-0.786,2.025c0.132,0.355,0.399,0.567,0.685,0.79c0.64,0.501,1.281,1.001,1.921,1.502
			c2.123,1.66,4.247,3.321,6.37,4.981c1.421,1.111,2.81,2.29,4.275,3.343c0.469,0.337,1.024,0.456,1.55,0.161
			C202.317,463.984,202.788,463.623,202.788,463.436z"/>
	</g>
	<g id="POLYLINE_1249_">
		
			<path fill="none" stroke="#F368E0" stroke-width="2.75" stroke-linecap="round" stroke-linejoin="round" stroke-miterlimit="10" d="
			M205.034,440.469c2.018-0.457,2.056,2.156,2.196,3.478c0.302,2.864,0.605,5.728,0.907,8.592c0.133,1.258,0.458,2.632,0.37,3.905
			c-0.059,0.857-0.571,1.471-1.311,1.863c-0.748,0.396-1.625,0.936-2.516,0.803c-0.93-0.139-1.582-0.967-2.216-1.581
			c-2.081-2.012-4.162-4.023-6.243-6.035c-0.979-0.947-2.127-1.852-2.967-2.936c-0.378-0.488-0.691-1.115-0.436-1.732
			c0.107-0.259,0.301-0.477,0.516-0.652"/>
	</g>
	<g id="POLYLINE_1248_">
		
			<path fill="none" stroke="#F368E0" stroke-width="2.75" stroke-linecap="round" stroke-linejoin="round" stroke-miterlimit="10" d="
			M212.814,458.545c-0.798,0-1.569-0.248-1.71-1.163c-0.186-1.215-0.014-2.575-0.014-3.799c-0.001-2.734-0.002-5.469-0.003-8.203
			c-0.001-1.504-0.109-3.052-0.002-4.553c0.118-1.65,2.944-1.925,3.392-0.346c0.065,0.23,0.051,0.468,0.051,0.704
			c0,0.81,0.001,1.62,0.001,2.43c0.001,2.693,0.002,5.386,0.003,8.079c0.001,1.803,0.073,3.623,0.002,5.425
			c-0.026,0.67-0.393,1.261-1.094,1.401C213.237,458.562,213.021,458.545,212.814,458.545z"/>
	</g>
	<g id="POLYLINE_1247_">
		
			<path fill="none" stroke="#F368E0" stroke-width="2.75" stroke-linecap="round" stroke-linejoin="round" stroke-miterlimit="10" d="
			M200.462,474.356c-0.193-0.776-0.647-1.461-1.542-1.377c-1.224,0.114-2.502,0.609-3.689,0.905c-2.653,0.66-5.307,1.321-7.96,1.981
			c-1.458,0.363-2.99,0.629-4.418,1.1c-1.584,0.522-1.152,3.323,0.485,3.375c0.239,0.008,0.466-0.063,0.695-0.12
			c0.786-0.196,1.572-0.391,2.358-0.587c2.613-0.65,5.226-1.301,7.84-1.951c1.75-0.435,3.534-0.804,5.265-1.31
			c0.646-0.189,1.128-0.698,1.095-1.401C200.58,474.762,200.512,474.557,200.462,474.356z"/>
	</g>
	<g id="POLYLINE_1246_">
		
			<path fill="none" stroke="#F368E0" stroke-width="2.75" stroke-linecap="round" stroke-linejoin="round" stroke-miterlimit="10" d="
			M183.747,458.447c0.885-1.877,2.933-0.312,4.056,0.389c2.438,1.522,4.876,3.043,7.314,4.565c1.099,0.686,2.459,1.29,3.409,2.193
			c0.587,0.557,0.749,1.296,0.621,2.069c-0.161,0.972-0.314,2.178-1.215,2.766c-0.76,0.496-1.872,0.484-2.729,0.605
			c-2.89,0.405-5.78,0.809-8.669,1.214c-1.226,0.172-2.545,0.509-3.795,0.461c-0.733-0.028-1.442-0.306-1.642-1.081
			c-0.037-0.145-0.053-0.298-0.057-0.447"/>
	</g>
	<g id="POLYLINE_1245_">
		
			<path fill="none" stroke="#F368E0" stroke-width="2.75" stroke-linecap="round" stroke-linejoin="round" stroke-miterlimit="10" d="
			M244.576,470.07c0.027,2.029-2.42,1.575-3.732,1.438c-2.845-0.298-5.69-0.595-8.535-0.893c-1.313-0.137-2.777-0.108-4.059-0.463
			c-0.859-0.238-1.355-0.887-1.583-1.717c-0.233-0.847-0.588-1.824-0.212-2.686c0.38-0.871,1.408-1.364,2.151-1.864
			c2.406-1.621,4.812-3.243,7.219-4.864c1.077-0.726,2.157-1.634,3.346-2.184c0.613-0.283,1.333-0.413,1.876,0.084
			c0.158,0.145,0.281,0.328,0.379,0.517"/>
	</g>
	<g id="POLYLINE_1244_">
		
			<path fill="none" stroke="#F368E0" stroke-width="2.75" stroke-linecap="round" stroke-linejoin="round" stroke-miterlimit="10" d="
			M222.579,463.099c0.469,0.56,1.064,0.976,1.804,0.659c0.333-0.143,0.613-0.439,0.886-0.668c0.738-0.618,1.475-1.237,2.213-1.855
			c2.097-1.758,4.194-3.516,6.291-5.275c1.155-0.968,2.436-1.878,3.507-2.941c0.471-0.467,0.589-1.145,0.241-1.72
			c-0.41-0.679-1.098-1.38-1.954-1.162c-0.312,0.079-0.539,0.278-0.778,0.478c-0.623,0.522-1.246,1.044-1.869,1.567
			c-2.066,1.732-4.131,3.464-6.197,5.195c-1.382,1.159-2.824,2.272-4.159,3.486c-0.438,0.399-0.668,0.945-0.465,1.527
			C222.196,462.669,222.392,462.876,222.579,463.099z"/>
	</g>
	<g id="POLYLINE_1243_">
		
			<path fill="none" stroke="#F368E0" stroke-width="2.75" stroke-linecap="round" stroke-linejoin="round" stroke-miterlimit="10" d="
			M218.407,482.724c0.664-0.324,1.368-0.481,1.932,0.149c0.239,0.267,0.374,0.65,0.529,0.967c0.421,0.863,0.842,1.725,1.263,2.588
			c1.2,2.457,2.399,4.914,3.599,7.371c0.661,1.355,1.458,2.707,2.007,4.112c0.544,1.393-1.419,2.78-2.623,2.017
			c-0.325-0.206-0.477-0.519-0.638-0.85c-0.356-0.728-0.711-1.456-1.066-2.184c-1.182-2.42-2.363-4.84-3.544-7.26
			c-0.791-1.621-1.653-3.224-2.38-4.875c-0.235-0.534-0.236-1.108,0.18-1.567C217.809,483.035,218.193,482.724,218.407,482.724z"/>
	</g>
	<g id="POLYLINE_1242_">
		
			<path fill="none" stroke="#F368E0" stroke-width="2.75" stroke-linecap="round" stroke-linejoin="round" stroke-miterlimit="10" d="
			M233.325,495.56c-1.456,1.169-2.554-0.655-3.244-1.758c-1.489-2.38-2.978-4.761-4.467-7.142c-0.781-1.248-1.772-2.499-2.375-3.849
			c-0.357-0.799-0.205-1.597,0.292-2.296c0.597-0.838,1.286-1.878,2.416-1.954c0.737-0.049,1.487,0.302,2.168,0.524
			c2.746,0.894,5.493,1.788,8.239,2.682c1.318,0.429,2.778,0.742,4.027,1.365c0.688,0.343,1.272,0.922,1.104,1.743
			c-0.03,0.147-0.082,0.291-0.145,0.427"/>
	</g>
	<g id="POLYLINE_1241_">
		
			<path fill="none" stroke="#F368E0" stroke-width="2.75" stroke-linecap="round" stroke-linejoin="round" stroke-miterlimit="10" d="
			M225.275,473.933c-0.167,0.783-0.099,1.581,0.782,1.914c1.15,0.434,2.516,0.549,3.713,0.804c2.674,0.57,5.349,1.139,8.023,1.709
			c1.471,0.313,2.962,0.741,4.453,0.948c1.554,0.216,2.448-2.251,1.202-3.148c-0.254-0.183-0.539-0.232-0.836-0.295
			c-0.792-0.169-1.585-0.337-2.377-0.506c-2.634-0.561-5.268-1.122-7.901-1.683c-1.764-0.376-3.529-0.824-5.306-1.13
			c-0.636-0.109-1.266,0.09-1.569,0.715C225.356,473.472,225.324,473.707,225.275,473.933z"/>
	</g>
	<g id="POLYLINE_1240_">
		
			<path fill="none" stroke="#F368E0" stroke-width="2.75" stroke-linecap="round" stroke-linejoin="round" stroke-miterlimit="10" d="
			M206.311,502.386c-1.969-0.463-0.955-2.694-0.507-3.929c0.975-2.682,1.949-5.364,2.924-8.046c0.458-1.259,0.788-2.71,1.453-3.885
			c0.426-0.755,1.156-1.093,1.993-1.12c0.932-0.03,2.053-0.14,2.812,0.526c0.723,0.634,0.96,1.825,1.27,2.679
			c0.998,2.746,1.996,5.491,2.993,8.237c0.417,1.149,1.018,2.358,1.223,3.577c0.121,0.72-0.005,1.459-0.718,1.815
			c-0.134,0.067-0.28,0.114-0.426,0.148"/>
	</g>
	<g id="POLYLINE_1239_">
		
			<path fill="none" stroke="#F368E0" stroke-width="2.75" stroke-linecap="round" stroke-linejoin="round" stroke-miterlimit="10" d="
			M207.242,482.729c0.698,0.34,1.268,0.894,1.047,1.728c-0.082,0.308-0.266,0.602-0.404,0.885c-0.421,0.865-0.843,1.73-1.265,2.596
			c-1.199,2.46-2.397,4.92-3.596,7.381c-0.66,1.355-1.233,2.819-2.005,4.114c-0.837,1.404-3.399,0.443-3.201-1.128
			c0.032-0.257,0.153-0.479,0.265-0.708c0.356-0.731,0.712-1.462,1.068-2.192c1.181-2.423,2.361-4.847,3.542-7.27
			c0.79-1.621,1.522-3.29,2.377-4.878c0.307-0.571,0.87-0.938,1.53-0.796C206.806,482.504,207.059,482.729,207.242,482.729z"/>
	</g>
	<g id="POLYLINE_1238_">
		
			<path fill="none" stroke="#F368E0" stroke-width="2.75" stroke-linecap="round" stroke-linejoin="round" stroke-miterlimit="10" d="
			M218.66,471.28c-0.002-2.44-1.574-4.675-3.872-5.498c-2.296-0.822-4.933-0.093-6.481,1.792c-1.548,1.885-1.75,4.613-0.497,6.706
			c1.253,2.093,3.753,3.203,6.146,2.728c2.384-0.473,4.267-2.44,4.636-4.842C218.637,471.873,218.659,471.577,218.66,471.28z"/>
	</g>
	<g id="POLYLINE_1237_">
		
			<path fill="none" stroke="#F368E0" stroke-width="2.75" stroke-linecap="round" stroke-linejoin="round" stroke-miterlimit="10" d="
			M224.531,471.28c-0.005-2.405-0.753-4.776-2.137-6.744c-1.381-1.963-3.368-3.473-5.627-4.282c-2.26-0.809-4.753-0.903-7.066-0.262
			c-2.315,0.641-4.407,1.999-5.932,3.856c-1.519,1.85-2.444,4.156-2.626,6.542c-0.184,2.403,0.392,4.839,1.63,6.906
			c1.233,2.059,3.1,3.714,5.295,4.687c2.188,0.97,4.656,1.25,7.005,0.789c2.358-0.463,4.546-1.659,6.207-3.394
			c1.656-1.729,2.752-3.958,3.116-6.323C224.486,472.468,224.53,471.874,224.531,471.28z"/>
	</g>
	<g id="POLYLINE_1236_">
		
			<path fill="none" stroke="#F368E0" stroke-width="2.75" stroke-linecap="round" stroke-linejoin="round" stroke-miterlimit="10" d="
			M244.599,471.28c-0.029-3.279-0.503-6.531-1.504-9.657c-0.981-3.063-2.42-5.968-4.266-8.602c-1.879-2.681-4.18-5.068-6.787-7.047
			c-2.582-1.96-5.461-3.52-8.513-4.613c-3.045-1.091-6.254-1.711-9.486-1.837c-3.278-0.128-6.578,0.258-9.738,1.139
			c-3.098,0.864-6.054,2.196-8.756,3.941c-2.746,1.774-5.217,3.982-7.291,6.509c-2.06,2.511-3.738,5.339-4.941,8.356
			c-1.2,3.008-1.94,6.187-2.187,9.417c-0.249,3.264,0.014,6.569,0.773,9.753c0.751,3.153,1.986,6.187,3.652,8.968
			c1.662,2.775,3.748,5.291,6.166,7.439c2.452,2.179,5.247,3.975,8.248,5.3c2.942,1.298,6.072,2.145,9.267,2.511
			c3.249,0.372,6.558,0.232,9.765-0.404c3.185-0.632,6.278-1.754,9.122-3.322c2.836-1.564,5.426-3.55,7.666-5.89
			c2.264-2.365,4.156-5.086,5.592-8.028c1.421-2.913,2.391-6.042,2.869-9.248C244.483,474.411,244.586,472.85,244.599,471.28z"/>
	</g>
	<g id="POLYLINE_1235_">
		
			<path fill="none" stroke="#F368E0" stroke-width="2.75" stroke-linecap="round" stroke-linejoin="round" stroke-miterlimit="10" d="
			M246.834,471.28c-0.03-3.503-0.537-6.974-1.603-10.316c-1.05-3.292-2.598-6.415-4.583-9.243c-2.012-2.866-4.473-5.417-7.262-7.534
			c-2.761-2.095-5.84-3.763-9.103-4.931c-3.263-1.168-6.701-1.833-10.164-1.966c-3.499-0.134-7.02,0.276-10.394,1.214
			c-3.329,0.926-6.506,2.358-9.407,4.234c-2.933,1.896-5.569,4.256-7.785,6.955s-4.018,5.744-5.307,8.99
			c-1.276,3.211-2.063,6.605-2.323,10.052c-0.264,3.492,0.019,7.025,0.831,10.431c0.804,3.371,2.126,6.614,3.906,9.587
			s4.016,5.669,6.607,7.97c2.619,2.324,5.6,4.242,8.803,5.657c3.16,1.397,6.525,2.308,9.958,2.698
			c3.471,0.394,7.004,0.245,10.43-0.435c3.407-0.676,6.713-1.876,9.756-3.552c3.031-1.669,5.803-3.792,8.196-6.291
			c2.431-2.539,4.468-5.458,6.006-8.62c1.508-3.099,2.538-6.419,3.056-9.826C246.707,474.674,246.819,472.981,246.834,471.28z"/>
	</g>
	<g id="POLYLINE_1234_">
		
			<path fill="none" stroke="#F368E0" stroke-width="2.75" stroke-linecap="round" stroke-linejoin="round" stroke-miterlimit="10" d="
			M261.406,471.28c-0.044-5.029-0.779-10.003-2.31-14.8c-1.494-4.68-3.707-9.133-6.535-13.15
			c-2.884-4.095-6.394-7.734-10.383-10.764c-3.934-2.989-8.333-5.364-12.984-7.029c-4.663-1.669-9.578-2.621-14.527-2.809
			c-5.022-0.191-10.074,0.401-14.914,1.756c-4.739,1.326-9.275,3.369-13.401,6.054c-4.171,2.714-7.922,6.062-11.081,9.909
			c-3.159,3.847-5.713,8.177-7.564,12.797c-1.841,4.596-2.971,9.479-3.337,14.417c-0.37,4.994,0.032,10.036,1.194,14.908
			c1.146,4.807,3.036,9.433,5.574,13.672c2.538,4.239,5.725,8.089,9.421,11.369c3.757,3.334,8.028,6.079,12.621,8.11
			c4.514,1.995,9.336,3.302,14.241,3.845c4.947,0.547,9.969,0.343,14.852-0.626c4.883-0.969,9.603-2.696,13.966-5.09
			c4.327-2.374,8.285-5.422,11.696-8.99c3.471-3.63,6.371-7.798,8.571-12.313c2.164-4.442,3.64-9.217,4.368-14.104
			C261.228,476.067,261.385,473.68,261.406,471.28z"/>
	</g>
</g>
<g id="AG-OUTLINE">
	<g id="POLYLINE_1233_">
		
			<path fill="none" stroke="#F368E0" stroke-width="3.5" stroke-linecap="round" stroke-linejoin="round" stroke-miterlimit="10" d="
			M261.406,471.28c-0.044-5.029-0.779-10.003-2.31-14.8c-1.494-4.68-3.707-9.133-6.535-13.15
			c-2.884-4.095-6.394-7.734-10.383-10.764c-3.934-2.989-8.333-5.364-12.984-7.029c-4.663-1.669-9.578-2.621-14.527-2.809
			c-5.022-0.191-10.074,0.401-14.914,1.756c-4.739,1.326-9.275,3.369-13.401,6.054c-4.171,2.714-7.922,6.062-11.081,9.909
			c-3.159,3.847-5.713,8.177-7.564,12.797c-1.841,4.596-2.971,9.479-3.337,14.417c-0.37,4.994,0.032,10.036,1.194,14.908
			c1.146,4.807,3.036,9.433,5.574,13.672c2.538,4.239,5.725,8.089,9.421,11.369c3.757,3.334,8.028,6.079,12.621,8.11
			c4.514,1.995,9.336,3.302,14.241,3.845c4.947,0.547,9.969,0.343,14.852-0.626c4.883-0.969,9.603-2.696,13.966-5.09
			c4.327-2.374,8.285-5.422,11.696-8.99c3.471-3.63,6.371-7.798,8.571-12.313c2.164-4.442,3.64-9.217,4.368-14.104
			C261.228,476.067,261.385,473.68,261.406,471.28z"/>
	</g>
	<g id="POLYLINE_1232_">
		
			<path fill="none" stroke="#F368E0" stroke-width="3.5" stroke-linecap="round" stroke-linejoin="round" stroke-miterlimit="10" d="
			M612.876,471.28c-0.044-5.029-0.779-10.003-2.31-14.8c-1.494-4.68-3.707-9.133-6.535-13.15
			c-2.884-4.095-6.394-7.734-10.383-10.764c-3.934-2.989-8.333-5.364-12.984-7.029c-4.663-1.669-9.578-2.621-14.527-2.809
			c-5.022-0.191-10.074,0.401-14.914,1.756c-4.739,1.326-9.275,3.369-13.401,6.054c-4.171,2.714-7.922,6.062-11.081,9.909
			c-3.159,3.847-5.713,8.177-7.564,12.797c-1.841,4.596-2.971,9.479-3.337,14.417c-0.37,4.994,0.032,10.036,1.193,14.908
			c1.146,4.807,3.036,9.433,5.574,13.672s5.725,8.089,9.421,11.369c3.757,3.334,8.028,6.079,12.621,8.11
			c4.514,1.995,9.336,3.302,14.241,3.845c4.947,0.547,9.969,0.343,14.852-0.626c4.883-0.969,9.603-2.696,13.966-5.09
			c4.327-2.374,8.285-5.422,11.696-8.99c3.471-3.63,6.371-7.798,8.571-12.313c2.164-4.442,3.64-9.217,4.369-14.104
			C612.698,476.067,612.855,473.68,612.876,471.28z"/>
	</g>
	<g id="POLYLINE_1231_">
		
			<path fill="none" stroke="#F368E0" stroke-width="3.5" stroke-linecap="round" stroke-linejoin="round" stroke-miterlimit="10" d="
			M141.397,314.75c1.64-0.04,3.28-0.08,4.919-0.119c4.196-0.102,8.392-0.204,12.588-0.305c5.667-0.137,11.333-0.275,17-0.412
			c6.052-0.147,12.104-0.294,18.156-0.44c5.352-0.13,10.703-0.26,16.055-0.389c3.566-0.087,7.132-0.173,10.699-0.26
			c1.681-0.041,3.429-0.191,5.091,0.113c1.783,0.326,3.319,1.324,3.259,3.305c-0.061,1.992-1.218,3.778-2.193,5.448
			c-2.206,3.776-4.412,7.553-6.618,11.329c-3.01,5.152-6.019,10.304-9.029,15.456c-2.138,3.66-4.276,7.319-6.414,10.979
			c-1.365,2.336-3.06,4.441-5.129,6.2c-2.59,2.203-5.703,3.705-9.053,4.302c-2.022,0.361-4.054,0.328-6.096,0.328
			c-3.651,0-7.302,0-10.953,0c-5.502,0-11.004,0-16.506,0c-6.049,0-12.099,0-18.148,0c-5.293,0-10.586,0-15.879,0
			c-3.226,0-6.452,0-9.679,0c-0.444,0-0.888,0-1.332,0c1.102-3.934,2.361-7.803,3.843-11.611c1.44-3.699,3.103-7.32,4.905-10.856
			c1.924-3.776,3.979-7.475,6.107-11.14c2.088-3.596,4.275-7.134,6.522-10.633c2.19-3.411,4.477-6.767,6.906-10.012
			C140.739,315.601,141.068,315.176,141.397,314.75z"/>
	</g>
	<g id="POLYLINE_1230_">
		
			<path fill="none" stroke="#F368E0" stroke-width="3.5" stroke-linecap="round" stroke-linejoin="round" stroke-miterlimit="10" d="
			M260.821,313.125c2.03-0.748,4.074-0.764,6.193-0.746c3.672,0.031,7.344,0.062,11.017,0.093
			c5.694,0.048,11.388,0.096,17.082,0.144c6.241,0.053,12.482,0.105,18.723,0.158c5.322,0.045,10.643,0.09,15.965,0.135
			c2.88,0.024,5.76,0.049,8.64,0.073c1.514,0.013,3.15,0.113,4.426,1.025c1.207,0.863,1.65,2.287,1.649,3.719
			c-0.001,2.391-0.16,4.792-0.242,7.181c-0.192,5.58-0.383,11.16-0.575,16.739c-0.208,6.056-0.416,12.113-0.624,18.169
			c-0.131,3.823-0.262,7.646-0.394,11.469c-0.012,0.335,0.101,0.805-0.163,0.919c-0.153,0.066-0.497-0.006-0.661-0.008
			c-0.395-0.005-0.79-0.01-1.185-0.015c-3.089-0.039-6.177-0.079-9.266-0.118c-4.907-0.063-9.814-0.125-14.72-0.188
			c-5.974-0.076-11.949-0.153-17.923-0.229c-6.308-0.081-12.615-0.161-18.923-0.242c-5.854-0.075-11.708-0.15-17.563-0.224
			c-4.621-0.059-9.242-0.118-13.864-0.177c-2.654-0.034-5.307-0.068-7.961-0.102c-0.352-0.004-0.705-0.009-1.057-0.014
			c0.616-3.115,1.472-6.16,2.614-9.124c1.096-2.845,2.2-5.688,3.3-8.532c2.049-5.299,4.099-10.597,6.148-15.896
			c2.045-5.287,4.09-10.574,6.135-15.861c1.061-2.744,2.123-5.488,3.184-8.231C260.79,313.203,260.806,313.164,260.821,313.125z"/>
	</g>
	<g id="POLYLINE_1229_">
		
			<path fill="none" stroke="#F368E0" stroke-width="3.5" stroke-linecap="round" stroke-linejoin="round" stroke-miterlimit="10" d="
			M474.664,359.5c1.359,1.619,2.564,3.368,3.527,5.252c0.717,1.402,1.371,2.927,1.538,4.507c0.188,1.766-0.621,3.117-2.263,3.797
			c-1.552,0.643-3.336,0.758-4.997,0.797c-1.857,0.043-3.722-0.039-5.579-0.063c-2.01-0.026-4.02-0.051-6.03-0.077
			c-4.667-0.059-9.333-0.119-14-0.178c-6.29-0.08-12.58-0.16-18.87-0.24c-6.858-0.087-13.715-0.175-20.573-0.262
			c-6.443-0.082-12.885-0.164-19.328-0.246c-4.972-0.063-9.945-0.127-14.917-0.19c-2.465-0.031-4.936-0.017-7.401-0.094
			c-0.109-0.003-0.217-0.003-0.326-0.004c0.043-1.628,0.087-3.256,0.13-4.884c0.105-3.944,0.211-7.888,0.316-11.833
			c0.132-4.925,0.263-9.851,0.395-14.776c0.121-4.516,0.241-9.031,0.362-13.547c0.073-2.728,0.146-5.457,0.219-8.185
			c0.028-1.037,0.052-2.076,0.455-3.051c0.423-1.023,1.217-1.792,2.246-2.197c2.078-0.818,4.625-0.334,6.77-0.236
			c3.078,0.14,6.156,0.297,9.231,0.502c3.364,0.224,6.727,0.458,10.083,0.777c3.341,0.317,6.676,0.669,9.998,1.143
			c3.207,0.457,6.402,1.021,9.553,1.78c2.979,0.718,5.903,1.647,8.724,2.845c3.025,1.285,5.909,2.846,8.666,4.634
			c2.698,1.749,5.297,3.66,7.854,5.608c2.012,1.533,3.991,3.11,5.986,4.664c3.804,2.965,7.608,5.929,11.413,8.894
			c1.478,1.152,2.956,2.304,4.434,3.455c0.448,0.349,0.896,0.698,1.344,1.047c0.148,0.115,0.344,0.339,0.522,0.407
			c0.275,0.104,0.78,0.022,1.084,0.034c0.335,0.014,0.67,0.031,1.005,0.057c0.591,0.046,1.186,0.11,1.765,0.245
			c0.518,0.12,1.023,0.3,1.467,0.597c1.57,1.047,2.453,3.174,3.27,4.785C473.439,356.648,474.074,358.063,474.664,359.5z"/>
	</g>
	<g id="POLYLINE_1228_">
		
			<path fill="none" stroke="#F368E0" stroke-width="3.5" stroke-linecap="round" stroke-linejoin="round" stroke-miterlimit="10" d="
			M513.477,359.358c-4.078-2.72-8.156-5.439-12.234-8.159c-6.1-4.068-12.2-8.137-18.3-12.205c-3.776-2.518-7.587-4.98-11.393-7.453
			c-4.035-2.621-8.104-5.196-12.203-7.716c-4.997-3.072-9.998-6.127-15.066-9.081c-0.507-0.296-1.015-0.592-1.522-0.887
			c0.767-0.922-4.073-2.716-4.581-2.936c-2.787-1.202-5.63-2.255-8.538-3.124c-5.623-1.68-11.383-2.762-17.221-3.335
			c-6.25-0.613-12.516-0.923-18.788-1.185c-5.738-0.24-11.481-0.438-17.223-0.544c-3.915-0.072-7.829-0.144-11.744-0.216
			c-0.749-0.014-1.498-0.028-2.248-0.041c-0.285-0.005-0.555,0.052-0.736-0.116c-0.164-0.153-0.277-0.496-0.416-0.684
			c-0.187-0.255-0.399-0.491-0.621-0.715c-3.684-3.711-9.097-3.528-13.95-3.644c-3.039-0.073-6.08-0.105-9.119-0.059
			c-2.833,0.043-5.812-0.055-8.602,0.502c-0.566,0.113-1.12,0.28-1.579,0.644c-0.205,0.163-0.422,0.51-0.648,0.589
			c-0.184,0.064-0.515-0.006-0.706-0.008c-3.068-0.035-6.136-0.07-9.203-0.105c-7.976-0.091-15.952-0.181-23.928-0.272
			c-4.592-0.052-9.186,0.005-13.777,0.018c-7.571,0.023-15.141,0.046-22.712,0.069c-5.017,0.015-10.035,0.161-15.051,0.247
			c-7.228,0.124-14.457,0.248-21.685,0.372c-5.15,0.088-10.3,0.307-15.448,0.463c-7.355,0.223-14.709,0.446-22.064,0.669
			c-0.156,0.005-0.456,0.074-0.605,0.018c-0.22-0.082-0.466-0.472-0.668-0.636c-0.496-0.404-1.093-0.583-1.711-0.704
			c-2.838-0.552-5.866-0.472-8.744-0.475c-2.955-0.003-5.951,0.007-8.89,0.33c-2.215,0.243-4.244,0.869-6.085,2.149
			c-0.737,0.512-1.448,1.106-1.998,1.821c-0.18,0.234-0.344,0.483-0.471,0.75c-0.157,0.33-0.165,0.702-0.301,1.025
			c-0.11,0.261-0.05,0.206-0.41,0.223c-0.55,0.026-1.1,0.051-1.65,0.077c-0.631,0.029-1.261,0.064-1.891,0.107
			c-1.533,0.104-3.06,0.252-4.586,0.433c-2.927,0.347-5.849,0.76-8.753,1.264c-2.789,0.485-5.612,1.007-8.253,2.059
			c-1.235,0.492-2.415,1.109-3.569,1.766c-1,0.569-2.044,1.163-2.902,1.939c-0.402,0.364-0.78,0.795-0.67,1.373
			c0.105,0.555,0.514,1.119,0.872,1.545c1.005,1.196,2.578,1.727,4.062,2.022c-2.804,2.286-5.189,5.257-7.433,8.075
			c-2.35,2.95-4.514,6.045-6.556,9.215c-2.076,3.222-4.049,6.51-5.907,9.862c-1.865,3.364-3.627,6.789-5.211,10.295
			c-1.554,3.44-2.94,6.964-4.074,10.565c-1.145,3.637-2.046,7.341-2.7,11.098c-0.575,3.306-0.994,6.664-1.225,10.012
			c-0.318,4.596-0.635,9.192-0.953,13.788c-0.255,3.687-0.468,7.379-0.793,11.06c-0.314,3.562-0.632,7.144-2.375,10.33
			c-0.829,1.515-2.06,2.79-2.969,4.268c-0.888,1.444-1.612,2.99-2.064,4.627c-0.944,3.42-0.798,7.171-0.722,10.685
			c0.072,3.366,0.46,6.751,1.493,9.966c1.029,3.204,2.721,6.117,4.772,8.773c2.169,2.808,4.694,5.347,7.423,7.611
			c2.778,2.304,5.801,4.344,9.121,5.783c3.331,1.443,6.894,2.204,10.472,2.725c3.877,0.565,7.785,0.864,11.691,1.145
			c3.866,0.277,7.735,0.497,11.604,0.734c3.877,0.238,7.755,0.528,11.637,0.667c1.699,0.061,5.165,0.632,5.647-1.705
			c0.014-0.069,0.014-0.461,0.067-0.507c0.08-0.069,0.567,0.022,0.668,0.026c1.223,0.048,2.446,0.095,3.669,0.143
			c1.248,0.049,2.497,0.097,3.745,0.146c0.124,0.005,0.511-0.039,0.594,0.042c0.173,0.17,0.146,1.127,0.185,1.39
			c0.552,3.731,1.532,7.398,2.93,10.901c1.288,3.228,2.918,6.315,4.861,9.197c1.934,2.869,4.177,5.526,6.675,7.92
			c2.492,2.388,5.241,4.506,8.181,6.313c3.072,1.888,6.355,3.429,9.768,4.59c3.522,1.198,7.179,1.99,10.881,2.356
			c3.439,0.339,6.916,0.313,10.35-0.086c3.497-0.407,6.95-1.187,10.277-2.339c3.502-1.211,6.866-2.818,10.002-4.792
			c3.218-2.026,6.201-4.424,8.86-7.144c2.655-2.716,4.996-5.738,6.948-8.997c1.905-3.181,3.451-6.576,4.585-10.107
			c0.535-1.667,0.982-3.361,1.336-5.075c0.092-0.443,0.006-0.367,0.36-0.398c0.396-0.034,0.828,0.032,1.226,0.048
			c1.336,0.052,2.672,0.104,4.008,0.156c1.294,0.05,2.587,0.101,3.881,0.151c0.293,0.011,0.767-0.063,1.043,0.041
			c0.221,0.083,0.169,0.046,0.234,0.341c0.165,0.749,0.443,1.491,0.926,2.096c0.918,1.15,2.358,1.444,3.759,1.484
			c1.44,0.042,2.884,0.009,4.325,0.009c1.395,0,2.789,0,4.184,0c2.421,0,4.841,0,7.262,0c3.313,0,6.627,0,9.94,0
			c4.073,0,8.146,0,12.219,0c4.699,0,9.398,0,14.098,0c5.192,0,10.384,0,15.576,0c5.552,0,11.103,0,16.655,0
			c5.778,0,11.556,0,17.334,0c5.871,0,11.742,0,17.614,0c5.831,0,11.662,0,17.493,0c5.658,0,11.315,0,16.973,0
			c5.351,0,10.702,0,16.052,0c4.911,0,9.821,0,14.732,0c4.337,0,8.675,0,13.012,0c3.631,0,7.262,0,10.892,0c2.791,0,5.582,0,8.373,0
			c1.818,0,3.636,0,5.453,0c0.711,0,1.423,0.015,2.134,0c1.643-0.034,3.115-1.071,3.585-2.672c0.12-0.409,0.07-1.35,0.353-1.503
			c0.174-0.094,0.673,0,0.866,0c0.501,0,1.003,0,1.504,0c2.717,0,5.434,0,8.152,0c0.452,0,0.905,0,1.357,0
			c0.121,0,0.551-0.073,0.653,0c0.131,0.093,0.194,0.838,0.233,1.015c0.101,0.452,0.208,0.903,0.322,1.352
			c0.435,1.712,0.962,3.4,1.578,5.055c1.296,3.478,2.996,6.802,5.048,9.895c2.1,3.164,4.575,6.077,7.352,8.667
			c2.766,2.579,5.836,4.829,9.124,6.699c3.188,1.812,6.582,3.258,10.095,4.308c3.324,0.994,6.754,1.626,10.212,1.891
			c3.384,0.259,6.797,0.161,10.16-0.293c3.498-0.472,6.945-1.321,10.259-2.539c3.48-1.279,6.814-2.951,9.914-4.986
			c3.173-2.083,6.106-4.535,8.708-7.299c2.593-2.756,4.868-5.808,6.755-9.088c1.83-3.182,3.302-6.569,4.37-10.081
			c0.262-0.86,0.501-1.727,0.714-2.6c0.104-0.424,0.227-1.846,0.557-1.994c0.237-0.106,0.775,0,1.031,0c0.616,0,1.231,0,1.847,0
			c1.412,0,2.825,0,4.237,0c0.513,0,1.027,0,1.54,0c0.094,0,0.562-0.068,0.633,0c0.096,0.09,0.078,0.823,0.126,0.991
			c0.207,0.725,0.711,1.201,1.432,1.398c1.463,0.399,3.14,0.255,4.635,0.267c2.091,0.018,4.182,0.004,6.273,0.005
			c3.834,0.002,7.667-0.046,11.5-0.113c3.58-0.063,7.211-0.147,10.745-0.766c3.151-0.552,6.326-1.628,8.691-3.865
			c2.324-2.197,3.638-5.209,4.501-8.237c1.01-3.54,1.559-7.218,1.979-10.869c0.449-3.898,0.752-7.812,0.955-11.73
			c0.175-3.383,0.339-6.961-0.599-10.256c-0.89-3.125-2.997-5.629-5.595-7.51c-0.47-0.341-1.228-0.62-1.394-1.176
			c-0.332-1.115-0.556-2.274-0.833-3.404c-0.397-1.622-0.83-3.236-1.249-4.853c0.984-0.228,1.571-1.21,1.38-2.178
			c-0.162-0.823-0.469-1.638-0.702-2.442c-0.509-1.76-1.018-3.519-1.526-5.279c-0.421-1.455-0.841-2.91-1.262-4.366
			c-0.156-0.541-0.283-1.065-0.731-1.45c-0.315-0.271-0.719-0.429-1.135-0.443c-0.145-0.005-0.568,0.131-0.645,0.084
			c-0.129-0.078-0.208-0.654-0.255-0.802c-0.147-0.461-0.293-0.922-0.44-1.382c-0.855-2.688-1.788-5.35-2.702-8.019
			c0.61-0.013,1.625,0.094,2.18-0.287c0.446-0.307,0.328-0.847,0.191-1.295c-0.621-2.027-1.987-3.902-3.474-5.38
			c-3.661-3.639-8.81-5.55-13.631-7.097c-5.306-1.703-10.753-2.983-16.201-4.14c-5.422-1.151-10.858-2.219-16.312-3.207
			c-6.307-1.142-12.618-2.229-18.938-3.295c-5.22-0.88-10.46-1.665-15.706-2.374c-5.76-0.778-11.533-1.439-17.32-1.99
			c-5.749-0.547-11.511-0.841-17.279-1.109c-2.148-0.1-4.485-0.332-6.61,0.097c-0.754,0.152-1.456,0.472-2.134,0.828
			c-0.165,0.087-0.314,0.208-0.478,0.186c-0.174-0.024-0.441-0.277-0.586-0.369c-0.753-0.473-1.505-0.946-2.258-1.419
			c-2.435-1.531-4.847-3.208-7.401-4.54c-0.903-0.471-1.951-0.933-2.992-0.697C514.796,358.532,514.111,358.979,513.477,359.358z"/>
	</g>
</g>
</svg>
