<?xml version="1.0" encoding="utf-8"?>
<!-- Generator: Adobe Illustrator 23.0.2, SVG Export Plug-In . SVG Version: 6.00 Build 0)  -->
<!DOCTYPE svg PUBLIC "-//W3C//DTD SVG 1.1//EN" "http://www.w3.org/Graphics/SVG/1.1/DTD/svg11.dtd" [
	<!ENTITY ns_flows "http://ns.adobe.com/Flows/1.0/">
	<!ENTITY ns_extend "http://ns.adobe.com/Extensibility/1.0/">
	<!ENTITY ns_ai "http://ns.adobe.com/AdobeIllustrator/10.0/">
	<!ENTITY ns_graphs "http://ns.adobe.com/Graphs/1.0/">
	<!ENTITY ns_vars "http://ns.adobe.com/Variables/1.0/">
	<!ENTITY ns_imrep "http://ns.adobe.com/ImageReplacement/1.0/">
	<!ENTITY ns_sfw "http://ns.adobe.com/SaveForWeb/1.0/">
	<!ENTITY ns_custom "http://ns.adobe.com/GenericCustomNamespace/1.0/">
	<!ENTITY ns_adobe_xpath "http://ns.adobe.com/XPath/1.0/">
]>
<svg version="1.1" xmlns:x="&ns_extend;" xmlns:i="&ns_ai;" xmlns:graph="&ns_graphs;"
	 xmlns="http://www.w3.org/2000/svg" xmlns:xlink="http://www.w3.org/1999/xlink" xmlns:a="http://ns.adobe.com/AdobeSVGViewerExtensions/3.0/"
	 x="0px" y="0px" viewBox="0 0 750 750" enable-background="new 0 0 750 750" xml:space="preserve">
<metadata>
	<sfw  xmlns="&ns_sfw;">
		<slices></slices>
		<sliceSourceBounds  bottomLeftOrigin="true" height="5661.035" width="8462.062" x="-7196.062" y="-910.035"></sliceSourceBounds>
	</sfw>
</metadata>
<g id="FILL-BACKGROUND">
	<rect fill="#FFFFFF" width="750" height="750"/>
</g>
<g id="N-DIMENSIONS">
</g>
<g id="N-TEXT">
</g>
<g id="AG-DIAGRAM">
</g>
<g id="AG-DETAILS">
	<g id="POLYLINE_463_">
		<path fill="none" stroke="#FB8604" stroke-width="2" stroke-linecap="round" stroke-linejoin="round" stroke-miterlimit="10" d="
			M490.981,416.769c-0.25-2.892-0.954-5.817-2.915-8.05c-1.7-1.937-4.237-3.354-6.799-3.716c-1.344-0.19-2.831-0.055-3.904,0.856
			c-1.784,1.516-1.94,4.506-2.294,6.614c-0.547,3.259-1.109,6.667-3.159,9.363c-2.191,2.882-5.44,4.738-8.378,6.747
			c-2.742,1.875-4.801,3.814-6.187,6.867c-1.391,3.064-2.343,6.139-4.942,8.419c-2.029,1.779-4.826,3.501-7.579,3.76
			c-1.015,0.095-1.937-0.153-2.207-1.236c-0.266-1.069,0.021-2.311,0.232-3.361c0.446-2.231,0.981-4.436,1.299-6.691
			c0.219-1.554,0.457-3.226,0.233-4.796c-0.066-0.462-0.186-1.22-0.743-1.337c-0.487-0.103-1.07,0.396-1.405,0.655
			c-1.512,1.17-2.782,2.63-4.263,3.84c-1.577,1.288-3.463,2.361-5.55,2.397c-1.969,0.034-3.731-1.026-4.103-3.046
			c-0.452-2.449,0.767-5.073,1.901-7.154c2.055-3.772,4.724-7.179,6.826-10.928c1.947-3.472,3.484-7.148,4.456-11.011
			c0.995-3.957,1.491-8.055,1.507-12.134c0.015-3.784-0.364-7.644-1.522-11.26c-1.231-3.844-3.479-7.103-5.88-10.299
			c-1.383-1.841-3.224-3.881-3.323-6.317c-0.102-2.496,1.429-4.675,2.022-7.021c0.361-1.428,0.225-2.772-0.348-4.126
			c-1.038-2.452-3.232-4.586-3.674-7.27c-0.21-1.276,0.318-2.428,1.214-3.321c1.022-1.018,2.398-1.68,3.787-2.025
			c1.43-0.355,2.941-0.37,4.343,0.111c2.764,0.95,4.652,3.336,7.069,4.854c1.409,0.885,3.209,1.426,4.814,0.732
			c1.555-0.672,2.245-2.279,2.418-3.866c0.333-3.058-0.578-6.514-2.215-9.098c-0.819-1.294-1.901-2.311-3.316-2.917
			c-1.603-0.686-3.366-0.915-5.045-1.341c-1.9-0.483-3.709-1.193-5.365-2.253c-2.782-1.781-5.21-4.197-7.214-6.811
			c-1.552-2.025-3.17-4.428-3.415-7.043c-0.14-1.489,0.28-2.9,1.028-4.179c1.387-2.371,3.271-4.257,4.139-6.921
			c0.298-0.915,0.497-1.867,0.553-2.83c0.07-1.215-0.217-2.393-0.262-3.601c-0.081-2.171,1.193-3.852,2.712-5.28
			c2.113-1.985,4.813-3.707,7.68-4.306"/>
	</g>
	<g id="POLYLINE_462_">
		<path fill="none" stroke="#FB8604" stroke-width="2" stroke-linecap="round" stroke-linejoin="round" stroke-miterlimit="10" d="
			M580.378,250.939c2.711,1.681,5.441,3.41,7.554,5.838c2.066,2.373,3.234,5.316,4.726,8.049c1.456,2.667,3.265,4.83,5.703,6.651
			c2.352,1.757,5.06,3.243,6.958,5.534c3.151,3.804,2.714,9.35,5.98,13.153c2.19,2.551,5.111,4.325,7.456,6.716
			c1.076,1.097,1.988,2.335,2.402,3.832c0.558,2.023,0.31,4.954-1.535,6.295c-0.872,0.634-1.883,0.517-2.864,0.199
			c-1.216-0.395-2.901-1.607-4.272-1.164c-1.166,0.376-1.568,2.033-1.878,3.037c-0.716,2.321-1.156,4.894-2.59,6.917
			c-2.449,3.456-7.372,4.165-11.217,4.89c-6.866,1.294-14.117,2.097-21.051,0.87c-3.59-0.635-7.032-1.818-10.495-2.925
			c-2.061-0.659-4.263-1.39-6.459-1.201c-3.995,0.344-6.688,4.182-8.826,7.147c-2.071,2.873-3.964,5.906-5.568,9.065
			c-1.043,2.054-2.172,4.301-2.327,6.642c-0.116,1.762,0.613,3.367,0.886,5.081c0.462,2.905-0.399,5.925-1.35,8.649
			c-1.551,4.441-3.93,9.601-8.231,12.001c-2.618,1.461-5.674,1.762-8.356,3.063c-2.07,1.004-3.701,2.646-5.053,4.485
			c-3.714,5.049-5.432,11.161-6.594,17.229c-1.399,7.309-3.075,14.442-5.625,21.448c-1.201,3.3-2.519,6.573-4.092,9.715
			c-1.145,2.287-2.411,4.867-4.395,6.562c-0.907,0.775-2.008,1.267-3.218,1.147c-1.385-0.138-2.551-1.293-3.905-1.328
			c-0.961-0.026-1.434,1.008-1.757,1.761c-0.868,2.022-1.151,4.675-2.842,6.249c-1.356,1.262-3.273,1.304-5.001,1.572"/>
	</g>
	<g id="POLYLINE_461_">
		<path fill="none" stroke="#FB8604" stroke-width="2" stroke-linecap="round" stroke-linejoin="round" stroke-miterlimit="10" d="
			M152.297,392.079c0.699,0.614,1.271,1.366,2.052,1.885c0.748,0.498,1.615,0.793,2.475,1.027c3.422,0.931,7.309,1.301,10.831,0.797
			c1.621-0.232,3.211-0.743,4.463-1.833c1.66-1.446,2.492-3.608,3.108-5.663c1.232-4.11,1.848-8.387,2.842-12.556
			c0.912-3.825,2.019-7.872,4.429-11.057c0.982-1.297,2.247-2.468,3.824-2.976c1.728-0.557,3.562-0.16,5.226,0.43
			c3.388,1.202,6.504,3.568,10.122,4.06c1.41,0.192,2.888-0.061,3.73-1.296c0.543-0.796,0.738-1.802,0.876-2.737
			c0.305-2.063,0.287-4.159,0.567-6.225c0.279-2.055,0.94-3.699,2.287-5.284c1.207-1.42,2.536-2.716,3.567-4.279
			c1.047-1.589,1.833-3.348,2.398-5.162c1.026-3.292,1.319-6.846,0.619-10.236c-0.76-3.679-2.719-6.99-4.705-10.128
			c-1.91-3.017-4.376-6.175-5.203-9.718c-0.601-2.575,0.054-4.979,0.683-7.485c0.521-2.076,0.381-4.159-1.206-5.743
			c-2.022-2.018-5.116-2.222-7.791-2.511c-1.6-0.173-4.571-0.076-5.154-2.056c-0.243-0.827-0.063-1.716-0.152-2.561"/>
	</g>
	<g id="POLYLINE_460_">
		<path fill="none" stroke="#FB8604" stroke-width="2" stroke-linecap="round" stroke-linejoin="round" stroke-miterlimit="10" d="
			M399.061,289.367c-0.173,0.531,0.479,0.941,0.342,1.463c-0.254,0.976-2.621,1.205-3.318,1.356
			c-2.724,0.591-5.487,1.058-8.158,1.87c-1.353,0.411-2.808,0.892-3.911,1.818c-1.396,1.172-1.644,2.878-0.633,4.414
			c0.849,1.291,2.232,2.024,3.573,2.702c2.505,1.267,4.945,2.591,7.237,4.219c4.338,3.08,8.31,6.794,11.493,11.067
			c3.253,4.367,5.62,9.398,6.213,14.851c0.61,5.607-0.301,11.312-1.683,16.741c-1.417,5.564-3.593,10.834-5.419,16.263
			c-0.264,0.784-0.773,1.941-0.31,2.753c0.561,0.985,1.945,1.369,2.72,2.192c2.133,2.266,0.547,5.694-0.459,8.084
			c-1.964,4.663-4.545,9.329-4.021,14.551c0.254,2.534,1.033,4.982,1.157,7.534c0.091,1.873-0.111,3.768-0.737,5.542
			c-1.396,3.958-4.926,7.158-8.967,8.256c-2.981,0.81-6.03,0.267-8.765-1.107c-5.085-2.553-8.533-7.353-9.381-12.96
			c-0.377-2.495-0.325-5.067,0.108-7.552c0.459-2.633,1.559-4.959,2.458-7.45c0.585-1.622,1.315-4.772-0.536-5.919
			c-1.606-0.996-3.868,0.795-4.999,1.728c-3.605,2.976-6.202,7.204-6.905,11.841c-0.694,4.582-0.351,9.281-2.428,13.559
			c-2.041,4.204-5.856,7.429-9.654,10.015c-4.197,2.857-8.999,5.336-14.023,6.283c-2.766,0.521-6.281,0.728-8.757-0.924
			c-1.432-0.956-1.897-2.433-1.211-4.015c0.672-1.55,1.925-2.842,3.096-4.022c2.057-2.074,4.304-3.963,6.486-5.902
			c4.233-3.76,8.678-7.444,12.312-11.809c1.478-1.775,3.929-4.845,2.945-7.422c-0.901-2.359-4.276-2.661-6.4-2.651
			c-2.569,0.012-5.022,0.62-7.457,1.392c-1.742,0.552-3.547,1.212-5.4,1.195c-2.082-0.02-3.747-1.142-4.914-2.819
			c-2.388-3.429-2.88-8.043-3.003-12.1c-0.168-5.572,0.551-11.17,1.525-16.645c0.985-5.539,2.268-11.074,4.161-16.379
			c1.042-2.919,2.544-7.661,5.909-8.733c2.592-0.826,4.797,1.296,7.194,1.824c2.064,0.454,3.907-0.698,4.961-2.421
			c1.796-2.935,1.531-6.706,0.353-9.811c-1.786-4.709-5.498-8.623-9.348-11.747c-3.905-3.17-8.432-5.875-13.408-6.896
			c-5.28-1.083-10.789,0.071-16.016-1.175c-5.08-1.212-8.843-5.121-12.202-8.874"/>
	</g>
</g>
<g id="AG-PEOPLE">
</g>
<g id="AG-ANIMALS">
	<g id="POLYLINE_429_">
		
			<path fill="none" stroke="#FB8604" stroke-width="2.75" stroke-linecap="round" stroke-linejoin="round" stroke-miterlimit="10" d="
			M455.746,599.453c-0.395,1.032-1.733,1.296-2.685,1.482c-3.309,0.65-6.806,0.707-10.168,0.748
			c-3.43,0.041-6.888-0.039-10.286-0.545c-2.176-0.324-4.434-0.806-6.318-2c-1.142-0.723-2.082-1.701-2.767-2.865
			c-1.264-2.147-1.598-4.687-2.86-6.839c-0.819-1.397-1.965-2.706-3.463-3.388c-1.585-0.721-3.197-0.343-4.871-0.467
			c-1.055-0.078-1.676-0.607-1.932-1.64c-0.593-2.398,0.071-5.225,0.417-7.606c1.093-7.514,2.294-15.009,3.321-22.532
			c1.001-7.332,1.912-14.682,2.559-22.054c0.285-3.25,0.568-6.56,0.366-9.823c-0.205-3.306-1.379-6.433-1.909-9.689
			c-1.06-6.514-1.076-13.188-1.262-19.771c-0.23-8.136-0.388-16.277-0.76-24.408c-0.082-1.801-0.192-3.601-0.301-5.401"/>
	</g>
	<g id="POLYLINE_88_">
		
			<path fill="none" stroke="#FB8604" stroke-width="2.75" stroke-linecap="round" stroke-linejoin="round" stroke-miterlimit="10" d="
			M570.156,241.175c6.579-3.424,14.432-4.863,21.813-4.402c3.783,0.236,7.72,1.114,10.768,3.486c2.69,2.093,4.405,5.184,5.818,8.223
			c1.079,2.322,1.859,5.274,3.874,7.018c1.163,1.007,2.634,1.701,3.951,2.469c1.773,1.033,3.536,2.087,5.263,3.197
			c2.787,1.791,5.062,3.768,6.391,6.876c0.847,1.98,0.565,3.617,0.486,5.737c-0.08,2.131,0.76,3.867,1.862,5.657
			c2.208,3.588,4.567,7.099,6.891,10.613c2.324,3.515,4.642,7.046,7.479,10.175c2.801,3.089,5.776,6.09,8.813,8.946
			c2.969,2.792,6.212,5.236,9.671,7.387c1.539,0.957,3.851,1.768,4.543,3.634c0.825,2.225,0.618,5.232-0.006,7.469
			c-0.496,1.779-1.808,3.162-2.35,4.934c-0.672,2.196-1.089,4.445-2.662,6.211c-1.315,1.477-3.122,2.295-5,2.811
			c-3.542,0.972-7.349,1.111-10.997,0.905c-4.124-0.232-7.911-1.291-11.797-2.619c-7.707-2.633-15.752-3.023-23.843-2.739
			c-4.465,0.157-8.902,0.665-13.35,1.061c-2.793,0.248-5.65,0.408-8.329-0.561c-1.938-0.701-3.384-1.714-5.488-1.32
			c-1.854,0.347-3.615,0.99-5.497,1.22c-1.946,0.238-3.914,0.274-5.873,0.263c-0.377-0.002-1.039-0.158-1.361-0.016
			c-0.269,0.118-0.615,0.644-0.835,0.877c-0.813,0.859-1.637,1.709-2.431,2.586c-1.287,1.422-2.454,2.941-3.519,4.536
			c-2.549,3.816-4.745,7.882-7.068,11.837c-4.146,7.06-8.683,13.875-13.473,20.513c-5.082,7.043-10.265,14.06-15.782,20.771
			c-0.926,1.126-2.001,2.196-2.751,3.456c-0.751,1.262-1.218,2.701-1.693,4.082c-1.545,4.498-2.871,9.077-4.291,13.616
			c-1.143,3.653-2.31,7.3-3.612,10.9c-1.319,3.649-2.723,7.363-4.913,10.593c-2.204,3.252-5.291,5.798-7.784,8.821
			c-2.668,3.236-5.127,6.653-7.465,10.133c-1.897,2.823-3.25,6.111-5.832,8.395c-2.273,2.011-5.024,3.44-7.991,4.089
			c-2.828,0.618-6.113,0.84-8.91-0.081"/>
	</g>
	<g id="POLYLINE_87_">
		
			<path fill="none" stroke="#FB8604" stroke-width="2.75" stroke-linecap="round" stroke-linejoin="round" stroke-miterlimit="10" d="
			M234.736,495.575c-0.657,1.701-1.443,3.428-2.265,5.056c-0.229,0.455-0.569,1.19-1.163,1.233
			c-1.141,0.083-1.771-1.883-2.039-2.677c-0.687-2.039-1.04-4.195-1.525-6.287"/>
	</g>
	<g id="POLYLINE_86_">
		
			<path fill="none" stroke="#FB8604" stroke-width="2.75" stroke-linecap="round" stroke-linejoin="round" stroke-miterlimit="10" d="
			M565.509,265.574c0.728-2.119-1.823-3.36-3.535-3.507c-2.448-0.209-4.971,0.661-7.157,1.669c-2.528,1.165-4.907,2.769-6.807,4.814
			c-2.865,3.082-4.877,7.948-3.832,12.178c0.243,0.986,0.803,2.177,1.972,2.203c1.78,0.039,3.614-1.993,4.724-3.07
			c2.729-2.65,5.115-5.637,7.895-8.236c1.327-1.241,2.753-2.349,4.194-3.453c0.798-0.612,1.755-1.23,2.302-2.102
			C565.363,265.912,565.448,265.749,565.509,265.574z"/>
	</g>
	<g id="POLYLINE_85_">
		
			<path fill="none" stroke="#FB8604" stroke-width="2.75" stroke-linecap="round" stroke-linejoin="round" stroke-miterlimit="10" d="
			M135.402,370.335c-1.984-0.115-3.34,0.241-4.131-1.926c-1.093-2.997-1.016-6.379-2.767-9.138c-0.933-1.47-2.271-2.588-3.575-3.716
			"/>
	</g>
	<g id="POLYLINE_84_">
		
			<path fill="none" stroke="#FB8604" stroke-width="2.75" stroke-linecap="round" stroke-linejoin="round" stroke-miterlimit="10" d="
			M637.343,248.971c1.158-0.157,2.291-0.479,3.468-0.373c1.038,0.094,2.028,0.459,2.969,0.889c1.848,0.845,3.601,1.932,5.262,3.098
			c1.087,0.763,2.337,1.588,3.142,2.672c0.348,0.468,0.521,0.945,0.289,1.504c-0.472,1.14-1.666,2.115-2.424,3.066
			c-2.432,3.051-5.079,5.537-8.641,7.207c-2.055,0.964-4.209,1.716-6.392,2.333c-1.56,0.441-3.161,0.864-4.79,0.915
			c-0.518,0.016-1.037,0.004-1.555,0.021"/>
	</g>
	<g id="POLYLINE_83_">
		
			<path fill="none" stroke="#FB8604" stroke-width="2.75" stroke-linecap="round" stroke-linejoin="round" stroke-miterlimit="10" d="
			M611.703,254.754c2.835,0.092,5.427-0.122,8.198-0.764c3.06-0.709,6.109-1.532,9.092-2.519c1.606-0.531,3.149-1.198,4.7-1.87"/>
	</g>
	<g id="POLYLINE_82_">
		
			<path fill="none" stroke="#FB8604" stroke-width="2.75" stroke-linecap="round" stroke-linejoin="round" stroke-miterlimit="10" d="
			M598.237,237.909c5.978-0.804,11.925-0.805,17.876,0.226c5.564,0.964,11.606,2.431,16.378,5.58
			c1.87,1.234,3.559,2.854,4.635,4.837c0.279,0.514,1.298,2.353,0.699,2.95c-0.703,0.7-3.295-1.391-3.693-1.632
			c-2.242-1.359-4.576-2.552-7.121-3.231c-5.451-1.454-11.257-0.413-16.707,0.507c-0.735,0.124-1.469,0.247-2.2,0.387"/>
	</g>
	<g id="POLYLINE_81_">
		
			<path fill="none" stroke="#FB8604" stroke-width="2.75" stroke-linecap="round" stroke-linejoin="round" stroke-miterlimit="10" d="
			M556.529,252.915c-1.661,1.012-3.748,1.667-5.068,3.165c-0.49,0.556-0.838,1.221-1.329,1.779c-0.726,0.825-1.62,1.492-2.535,2.093
			c-5.202,3.413-11.382,5.519-17.169,7.704c-5.348,2.019-10.726,3.954-16.099,5.906c-8.961,3.256-17.923,6.512-26.884,9.768
			c-4.552,1.654-9.318,3.848-14.112,4.653c-2.923,0.491-5.926,0.329-8.87,0.155c-3.171-0.188-6.338-0.495-9.504-0.749
			c-6.844-0.549-13.689-1.187-20.551-1.479c-6.563-0.28-13.087-0.305-19.591,0.74c-6.491,1.043-12.916,2.395-19.443,3.222
			c-6.959,0.882-13.944,1.413-20.939,1.907c-6.787,0.479-13.585,0.772-20.381,1.064c-6.41,0.276-12.824,0.441-19.239,0.571
			c-6.395,0.129-12.793,0.246-19.19,0.223c-7.38-0.026-14.754-0.089-22.132-0.224c-4.856-0.089-9.715-0.231-14.568-0.435
			c-8.313-0.35-16.626-0.699-24.939-1.049c-8.552-0.36-17.105-0.719-25.657-1.079c-5.154-0.217-10.312-0.334-15.471-0.344
			c-6.655-0.013-13.31,0.374-19.963,0.282c-6.411-0.089-12.775-1.131-19.197-0.892c-6.024,0.224-12.007,1.471-17.568,3.815
			c-5.681,2.395-10.847,5.939-15.07,10.435c-4.213,4.485-7.418,9.831-9.742,15.513c-2.38,5.819-3.901,11.962-4.874,18.164
			c-1.04,6.632-1.432,13.332-1.567,20.037c-0.134,6.651,0.061,13.308,0.348,19.952c0.251,5.804,0.579,11.615,1.055,17.405
			c0.705,8.566,1.409,17.131,2.114,25.697c0.474,5.76,0.958,11.52,1.242,17.294c0.312,6.335,0.378,12.739-0.69,19.011
			c-1.057,6.204-3.337,12.06-5.603,17.9c-2.339,6.029-4.73,12.034-5.699,18.467c-0.889,5.904-1.073,12.495,0.838,18.226
			c0.739,2.215,2.144,3.948,3.136,6.024c0.815,1.705,0.629,3.679,0.691,5.51c0.1,2.952,0.924,5.797,1.858,8.579
			c0.981,2.921,2.044,5.861,3.401,8.631c0.16,0.326,1.218,2.844,1.982,2.338c0.259-0.172,0.26-0.778,0.278-1.036
			c0.088-1.243-0.077-2.525-0.16-3.764c-0.205-3.052-0.39-6.087,0.405-9.079c0.797-3.001,2.356-5.741,3.361-8.673
			c2.081-6.075,2.963-12.564,3.701-18.919c0.734-6.315,1.172-12.682,0.557-19.026c-0.312-3.213-0.67-6.381-0.634-9.614
			c0.037-3.248,0.363-6.492,0.345-9.739c-0.035-6.265-0.822-12.543-1.143-18.8c-0.378-7.358-0.724-14.713-1.015-22.075
			c-0.263-6.649-0.451-13.296-0.563-19.949c-0.109-6.469-0.146-12.949,0.058-19.417c0.214-6.775,0.647-13.535,1.424-20.27
			c0.755-6.536,1.91-13.022,3.425-19.424c0.067-0.283,0.263-1.89,0.671-1.91c0.264-0.013,0.565,0.592,0.637,0.792
			c0.304,0.837,0.257,1.856,0.284,2.723c0.049,1.609,0.08,3.217,0.181,4.824c0.409,6.537,1.697,12.966,3.214,19.325
			c1.478,6.193,3.087,12.494,5.513,18.393c1.171,2.848,2.746,5.531,3.592,8.506c0.781,2.746,1.101,5.604,1.474,8.426
			c0.83,6.278,1.126,13.185,3.931,18.977c1.027,2.121,2.183,4.131,2.544,6.49c0.394,2.568,0.082,5.206-0.347,7.748
			c-1.021,6.051-2.731,11.99-4.377,17.894c-1.11,3.983-2.241,7.962-3.331,11.95c-0.732,2.679-1.374,5.4-1.694,8.161
			c-0.058,0.502-0.009,1.057-0.43,1.388c-0.657,0.516-1.676,0.734-2.41,1.187c-1.62,1.002-2.969,2.396-3.953,4.023
			c-2.613,4.322-2.663,9.863-2.604,14.753c0.039,3.206,0.254,6.412,0.575,9.602c0.325,3.234,0.957,6.464,0.974,9.721
			c0.033,6.275-1.202,12.636-2.148,18.822c-1.056,6.907-2.136,13.812-3.384,20.687c-0.579,3.189-1.183,6.376-1.903,9.537
			c-0.673,2.956-1.87,5.914-2.11,8.944c-0.107,1.346-0.057,2.825,0.513,4.074c0.529,1.159,1.533,1.729,2.662,2.203
			c1.21,0.508,2.332,0.913,2.994,2.112c0.471,0.853,0.732,1.822,1.037,2.74c0.507,1.53,1.049,3.042,1.691,4.521
			c1.695,3.907,4.057,8.478,8.054,10.453c2.051,1.014,4.38,1.268,6.635,1.393c3.671,0.204,7.35,0.298,11.023,0.443
			c2.842,0.112,5.719,0.287,8.558,0.037c0.914-0.081,2.437-0.144,3.074-0.966c0.474-0.611,0.179-1.418-0.109-2.041
			c-0.531-1.153-1.301-2.202-1.997-3.258c-0.991-1.505-1.946-3.032-2.911-4.554c-1.583-2.495-3.175-5.036-5.169-7.231
			c-1.654-1.821-3.56-2.919-5.836-3.784c-1.608-0.611-3.109-1.233-4.057-2.748c-1.08-1.726-1.434-3.879-1.711-5.858
			c-0.895-6.39-0.85-12.982-0.772-19.421c0.079-6.492,0.364-13.027,1.311-19.457c0.891-6.053,2.402-12.213,5.297-17.643
			c0.663-1.244,1.409-2.451,2.302-3.545c0.689-0.845,1.629-1.538,2.222-2.452c0.796-1.227,0.546-2.954,0.946-4.336
			c0.694-2.399,2.228-4.51,3.545-6.594c0.402-0.636,1.078-1.412,1.227-2.176c0.066-0.336-0.11-0.459-0.139-0.765
			c-0.036-0.376,0.195-0.734,0.378-1.045c0.624-1.062,1.433-2.031,2.206-2.987c2.048-2.533,4.245-4.955,6.55-7.257
			c2.175-2.173,4.441-4.259,6.867-6.152c2.477-1.932,5.136-3.57,7.821-5.193c5.181-3.132,10.198-6.327,14.052-11.087
			c3.96-4.891,6.799-10.703,9.422-16.388c1.519-3.293,2.992-6.607,4.508-9.9c1.176-2.554,2.418-5.15,4.171-7.366
			c1.893-2.393,4.368-4.278,6.503-6.445c2.187-2.219,4.235-4.582,6.079-7.093c3.708-5.051,6.62-10.646,9.047-16.41
			c2.512-5.967,4.551-12.152,6.222-18.405c1.618-6.056,2.964-12.16,4.165-18.311"/>
	</g>
	<g id="POLYLINE_80_">
		
			<path fill="none" stroke="#FB8604" stroke-width="2.75" stroke-linecap="round" stroke-linejoin="round" stroke-miterlimit="10" d="
			M439.002,509.728c-1.435,5.1-3.625,9.917-5.18,14.968c-0.656,2.131-0.838,4.357-0.967,6.573c-0.176,3.048-0.332,6.098-0.463,9.149
			c-0.23,5.342-0.418,10.693-0.456,16.04c-0.038,5.386-0.139,10.903,0.814,16.225c0.515,2.876,1.406,5.873,4.118,7.369
			c0.381,0.21,0.778,0.39,1.177,0.562"/>
	</g>
	<g id="POLYLINE_79_">
		
			<path fill="none" stroke="#FB8604" stroke-width="2.75" stroke-linecap="round" stroke-linejoin="round" stroke-miterlimit="10" d="
			M216.696,493.135c0.411,5.62,0.75,11.209,1.587,16.787c0.849,5.654,1.975,11.266,3.095,16.87
			c1.061,5.306,2.177,10.605,3.337,15.89c1.297,5.911,2.645,11.812,4.053,17.697c1.196,4.997,2.22,10.341,4.337,15.049
			c0.386,0.858,0.85,1.792,1.612,2.383c1.009,0.784,2.462,0.84,3.638,1.255c4.798,1.691,9.017,4.86,12.504,8.507
			c1.842,1.926,3.54,3.993,5.118,6.14c1.132,1.541,2.505,3.224,3.149,5.053c0.76,2.161-2.055,2.24-3.516,2.363
			c-5.412,0.457-11.004,0.603-16.427,0.263c-4.602-0.288-9.335-1.098-12.559-4.688c-2.908-3.238-4.181-7.814-7.435-10.751
			c-0.842-0.761-1.793-1.116-2.896-1.305c-0.921-0.158-1.95-0.22-2.498-1.089c-0.716-1.137-0.669-2.849-0.758-4.126
			c-0.207-2.943-0.378-5.889-0.66-8.825c-0.548-5.694-1.268-11.37-2.21-17.013c-0.928-5.56-2.066-11.088-3.515-16.536
			c-1.425-5.358-3.092-10.667-5.098-15.837c-0.921-2.373-1.876-4.796-3.187-6.987c-0.85-1.421-1.861-2.276-3.129-3.298
			c-1.33-1.071-2.268-2.524-3.115-3.987c-1.261-2.177-2.315-4.485-3.183-6.845c-1.703-4.634-2.466-9.42-1.474-14.312
			c0.5-2.464,1.37-4.817,2.322-7.137"/>
	</g>
	<g id="POLYLINE_78_">
		
			<path fill="none" stroke="#FB8604" stroke-width="2.75" stroke-linecap="round" stroke-linejoin="round" stroke-miterlimit="10" d="
			M437.743,473.118c-3.961-3.495-8.157-6.797-13.141-8.7c-5.134-1.959-10.598-2.037-15.998-1.457
			c-5.493,0.589-10.838,2.143-16.322,2.707c-5.63,0.578-10.958,3.085-16.232,5.017c-5.035,1.844-10.2,3.942-15.555,4.596
			c-2.77,0.338-5.57,0.268-8.343,0.591c-2.874,0.335-5.704,0.957-8.539,1.519c-5.693,1.128-11.4,2.244-17.211,2.522
			c-5.491,0.263-10.83-0.484-16.022-2.295c-5.559-1.94-10.668-4.9-16.144-7.032c-4.92-1.916-10.077-2.518-15.314-2.782
			c-1.619-0.082-3.238-0.163-4.857-0.245"/>
	</g>
	<g id="POLYLINE_75_">
		
			<path fill="none" stroke="#FB8604" stroke-width="2.75" stroke-linecap="round" stroke-linejoin="round" stroke-miterlimit="10" d="
			M225.844,437.047c4.476-2.08,8.891-3.797,13.855-4.22c4.841-0.412,9.76,0.09,14.424,1.443c4.448,1.291,8.598,3.374,12.414,5.985
			c4.081,2.793,7.934,6.097,11.064,9.941c1.865,2.29,4.143,5.358,3.697,8.52c-0.469,3.322-3.754,5.653-6.036,7.73
			c-3.822,3.479-7.04,7.535-10.423,11.426c-3.069,3.53-6.424,6.752-10.461,9.16c-1.937,1.155-4.002,2.166-6.17,2.807
			c-0.995,0.294-1.96,0.411-2.697,1.178c-2.533,2.638-3.14,6.92-3.685,10.363c-0.258,1.63-0.315,3.616-1.119,5.109
			c-0.217,0.403-0.539,0.824-1.044,0.798c-0.506-0.026-0.919-0.517-1.177-0.897c-1.056-1.556-1.339-3.711-1.784-5.49
			c-0.659-2.634-1.451-5.992-4.127-7.3c-3.334-1.629-7.606-0.35-11.086-0.089c-1.923,0.144-3.745-0.06-5.593-0.599
			c-0.781-0.228-1.995-0.843-2.843-0.425c-0.636,0.313-0.902,1.125-1.087,1.752c-0.658,2.223-0.804,4.594-1.232,6.865
			c-0.168,0.893-0.629,4.251-2.288,3.762c-0.588-0.173-0.908-0.81-1.09-1.342c-0.715-2.093-0.681-4.484-0.996-6.657
			c-0.357-2.463-0.789-5.216-2.723-6.98c-1.254-1.144-2.871-1.828-4.315-2.687c-1.875-1.115-3.568-2.456-5.163-3.94
			c-1.526-1.419-3.142-2.913-4.372-4.605"/>
	</g>
	<g id="POLYLINE_72_">
		
			<path fill="none" stroke="#FB8604" stroke-width="2.75" stroke-linecap="round" stroke-linejoin="round" stroke-miterlimit="10" d="
			M600.7,248.538c-1.23-1.248-2.78-2.232-4.244-3.175c-1.552-1-3.166-2.005-4.889-2.686c-1.083-0.428-2.189-0.603-3.348-0.657
			c-2.017-0.094-4.034-0.106-6.051-0.215c-5.171-0.277-10.364-0.726-15.546-0.662c-2.897,0.036-6.274,0.096-8.808,1.705
			c-1.827,1.16-2.578,3.185-2.628,5.281c-0.051,2.18,0.656,4.604,2.489,5.938c2.178,1.585,5.225,1.372,7.724,0.888
			c4.561-0.883,8.889-2.726,13.434-3.708c4.352-0.94,8.81-1.28,13.25-1.459c2.4-0.096,4.799-0.045,7.2-0.086
			c0.382-0.007,1.791,0.111,1.854-0.497C601.16,248.976,600.839,248.677,600.7,248.538z"/>
	</g>
	<g id="POLYLINE_71_">
		
			<path fill="none" stroke="#FB8604" stroke-width="2.75" stroke-linecap="round" stroke-linejoin="round" stroke-miterlimit="10" d="
			M498.589,390.618c-2.024,8.174-4.285,16.281-6.971,24.263c-1.244,3.696-2.569,7.367-4.072,10.966
			c-1.707,4.085-3.535,8.14-5.018,12.315c-2.773,7.805-4.189,16.027-6.462,23.981c-2.32,8.119-4.644,16.267-7.278,24.291
			c-0.572,1.744-1.181,3.473-1.993,5.121c-0.416,0.844-0.842,1.643-1.023,2.571c-0.309,1.585-0.233,3.261-0.275,4.866
			c-0.051,1.924-0.135,3.848-0.319,5.765c-0.365,3.809-1.192,7.52-2.327,11.171c-1.243,3.996-2.874,7.842-4.223,11.799
			c-1.066,3.128-0.94,6.385-0.868,9.65c0.095,4.337,0.257,8.675,0.452,13.008c0.178,3.94,0.379,7.889,0.702,11.821
			c0.335,4.082,0.633,8.226,1.613,12.214c0.525,2.134,1.285,4.463,3.099,5.855c1.102,0.846,2.456,1.296,3.725,1.819
			c1.664,0.685,3.246,1.5,4.747,2.496c2.974,1.973,5.788,4.352,8.131,7.05c1.521,1.751,2.921,3.82,3.296,6.157
			c0.167,1.042,0.281,2.574-0.748,3.217c-0.808,0.505-1.944,0.552-2.86,0.623c-1.97,0.154-3.959,0.137-5.933,0.107
			c-3.954-0.06-7.923-0.281-11.841-0.83c-2.814-0.394-5.838-0.893-8.314-2.377c-1.254-0.751-2.284-1.782-3.007-3.053
			c-1.227-2.156-1.689-4.587-3.317-6.529c-1.082-1.292-2.494-2.31-4.196-2.532c-1.352-0.177-3.512,0.537-4.633-0.498
			c-1.233-1.138-0.775-3.809-0.639-5.209c0.419-4.324,1.171-8.625,1.709-12.937c1.028-8.227,1.704-16.517,2.162-24.794
			c0.225-4.065,0.404-8.139,0.375-12.211c-0.013-1.796-0.07-3.603-0.319-5.384c-0.265-1.896-0.867-3.683-1.391-5.518
			c-2.037-7.136-1.843-14.849-2.06-22.209c-0.266-9.013-0.406-18.042-0.891-27.048c-0.42-7.789-0.608-16.186-3.802-23.438
			c-1.496-3.398-3.723-6.411-5.4-9.717"/>
	</g>
	<g id="POLYLINE_70_">
		
			<path fill="none" stroke="#FB8604" stroke-width="2.75" stroke-linecap="round" stroke-linejoin="round" stroke-miterlimit="10" d="
			M664.796,317.504c-4.386-1.76-9.804-2.078-14.296-0.508c-2.627,0.918-5.119,2.731-5.771,5.577
			c-0.561,2.446,0.527,4.691,2.736,5.842c1.798,0.937,3.898,1.227,5.891,1.394c2.892,0.242,5.843,0.212,8.729-0.097
			c2.551-0.273,5.249-0.724,5.906-3.573c0.093-0.401,0.146-0.812,0.193-1.22"/>
	</g>
</g>
<g id="AG-OUTLINE">
	<g id="POLYLINE_69_">
		
			<path fill="none" stroke="#FB8604" stroke-width="3.5" stroke-linecap="round" stroke-linejoin="round" stroke-miterlimit="10" d="
			M472.877,472.933c4.516,1.489,10.175,0.39,14.179-2.013c2.088-1.254,3.997-2.893,5.247-5.002c1.778-2.999,3.614-5.919,5.638-8.761
			c1.958-2.751,3.989-5.463,6.196-8.021c2.079-2.41,4.536-4.487,6.393-7.086c3.865-5.41,5.716-12.249,7.759-18.492
			c1.142-3.489,2.2-7.007,3.296-10.51c0.938-2.999,1.78-6.067,2.975-8.978c0.856-2.086,2.267-3.557,3.692-5.301
			c2.202-2.697,4.326-5.458,6.438-8.225c4.265-5.587,8.476-11.222,12.476-17.003c3.896-5.631,7.561-11.388,11.028-17.292
			c1.943-3.309,3.804-6.685,5.896-9.905c1.851-2.849,4.076-5.292,6.398-7.758c0.185-0.197,0.466-0.638,0.685-0.737
			c0.286-0.129,0.801-0.025,1.126-0.022c0.809,0.007,1.618,0.003,2.427-0.015c1.58-0.036,3.17-0.128,4.731-0.39
			c1.997-0.336,4.074-1.397,6.134-1.184c1.798,0.186,3.375,1.384,5.128,1.813c2.421,0.593,4.978,0.367,7.432,0.139
			c7.108-0.66,14.163-1.307,21.31-1.011c3.286,0.136,6.597,0.394,9.821,1.077c3.263,0.691,6.331,1.978,9.52,2.919
			c5.754,1.698,12.347,2.005,18.207,0.633c3.228-0.756,5.934-2.307,7.266-5.445c0.767-1.807,0.945-3.81,1.893-5.544
			c0.846-1.547,1.615-2.708,1.873-4.478c0.278-1.906,0.406-4.168-0.218-6.027c-0.376-1.117-1.227-1.731-2.202-2.322
			c-2.848-1.725-5.653-3.477-8.272-5.542c-2.702-2.132-5.129-4.558-7.538-7.008c-2.369-2.409-4.809-4.768-6.926-7.408
			c-2.008-2.503-3.753-5.193-5.508-7.875c-2.15-3.286-4.311-6.565-6.446-9.861c-0.998-1.54-2.094-3.197-2.35-5.057
			c-0.227-1.648,0.271-3.292,0.091-4.937c5.365-0.172,11.04-1.869,15.561-4.818c2.086-1.361,3.81-3.157,5.364-5.088
			c0.827-1.028,1.746-2.022,2.529-3.082c0.212-0.287,0.435-0.603,0.465-0.971c0.09-1.112-1.362-2.096-2.094-2.679
			c-2.118-1.686-4.501-3.215-6.986-4.3c-1.187-0.518-2.431-0.87-3.735-0.772c-0.456,0.034-0.905,0.12-1.355,0.2
			c-0.223,0.04-0.728,0.226-0.944,0.159c-0.221-0.068-0.13-0.091-0.283-0.28c-0.824-1.015-1.384-2.137-2.347-3.076
			c-4.073-3.967-10.259-5.661-15.662-6.857c-5.82-1.288-11.762-1.767-17.704-1.213c-0.752,0.07-1.503,0.153-2.252,0.249
			c-0.832,0.106-1.267,0.026-2.055-0.188c-1.223-0.331-2.475-0.551-3.734-0.689c-2.722-0.299-5.485-0.239-8.207,0.022
			c-2.896,0.278-5.772,0.819-8.561,1.648c-1.381,0.41-2.74,0.893-4.067,1.455c-0.629,0.267-1.251,0.55-1.862,0.854
			c-0.745,0.37-1.415,0.273-2.241,0.264c-3.59-0.039-8.442-0.322-11.372,2.214c-2.143,1.854-2.359,5.328-1.472,7.858
			c0.212,0.604,0.499,1.182,0.875,1.701c-1.592,0.969-3.506,1.605-4.852,2.938c-1.049,1.038-1.675,2.296-2.867,3.234
			c-2.123,1.671-4.643,2.86-7.089,3.974c-2.64,1.202-5.333,2.292-8.037,3.343c-4.33,1.683-8.687,3.281-13.053,4.867
			c-8.004,2.908-16.007,5.816-24.011,8.724c-5.457,1.983-10.905,3.989-16.37,5.948c-2.242,0.803-4.515,1.629-6.87,2.031
			c-2.644,0.451-5.356,0.354-8.022,0.214c-6.723-0.353-13.44-1.049-20.15-1.589c-5.387-0.434-10.787-0.768-16.192-0.862
			c-5.44-0.094-10.8,0.283-16.157,1.245c-6.229,1.118-12.44,2.283-18.725,3.043c-6.247,0.755-12.513,1.244-18.789,1.687
			c-5.855,0.414-11.718,0.716-17.582,0.969c-5.927,0.255-11.857,0.499-17.788,0.626c-6.727,0.145-13.451,0.247-20.18,0.306
			c-6.178,0.054-12.358-0.017-18.536-0.063c-5.862-0.043-11.727-0.232-17.587-0.408c-4.415-0.132-8.825-0.315-13.237-0.502
			c-8.662-0.368-17.324-0.737-25.986-1.105c-6.309-0.268-12.617-0.537-18.926-0.805c-5.249-0.223-10.513-0.235-15.767-0.21
			c-5.991,0.028-11.993,0.426-17.983,0.24c-5.868-0.182-11.699-1.049-17.579-0.883c-5.483,0.155-10.938,1.149-16.088,3.052
			c-5.346,1.975-10.322,4.93-14.547,8.761c-4.094,3.712-7.424,8.199-9.977,13.091c-2.599,4.98-4.427,10.336-5.718,15.795
			c-1.35,5.711-2.155,11.558-2.561,17.409c-0.419,6.055-0.5,12.117-0.426,18.184c0.072,5.945,0.331,11.885,0.675,17.819
			c0.303,5.238,0.639,10.474,1.074,15.703c0.668,8.03,1.336,16.061,2.004,24.091c0.428,5.15,0.84,10.305,1.061,15.469
			c0.247,5.763,0.273,11.58-0.629,17.293c-0.834,5.276-2.53,10.362-4.457,15.329c-2.255,5.813-4.791,11.623-6.197,17.719
			c-1.258,5.453-1.698,11.167-1.062,16.735c0.282,2.471,0.787,4.954,1.822,7.228c0.774,1.699,2.115,3.145,2.713,4.913
			c0.614,1.816,0.34,3.825,0.474,5.702c0.19,2.657,0.972,5.242,1.816,7.753c0.912,2.715,1.908,5.426,3.113,8.025
			c0.23,0.496,1.125,2.992,2.006,3.019c0.785,0.024,0.554-1.969,0.539-2.349c-0.107-2.781-0.506-5.559-0.297-8.345
			c0.222-2.958,1.303-5.586,2.47-8.276c1.067-2.458,1.934-4.976,2.595-7.573c1.461-5.741,2.242-11.694,2.819-17.583
			c0.558-5.688,0.806-11.359,0.218-17.055c-0.311-3.005-0.606-5.98-0.571-9.005c0.035-2.97,0.28-5.932,0.338-8.9
			c0.052-2.667-0.227-5.35-0.399-8.008c-0.226-3.503-0.474-7.005-0.679-10.51c-0.322-5.5-0.591-11.006-0.809-16.511
			c-0.271-6.845-0.529-13.686-0.718-20.533c-0.161-5.818-0.208-11.645-0.185-17.466c0.024-6.025,0.18-12.062,0.615-18.072
			c0.435-5.999,1.036-11.984,2.011-17.921c0.482-2.939,1.057-5.858,1.691-8.767c0.303-1.389,0.57-2.798,0.964-4.165
			c0.141-0.49,0.133-0.862,0.595-0.547c0.872,0.596,0.677,2.539,0.702,3.376c0.09,2.953,0.202,5.891,0.536,8.829
			c0.674,5.94,1.977,11.794,3.434,17.586c1.409,5.603,2.9,11.287,5.162,16.616c1.104,2.6,2.521,5.069,3.317,7.792
			c0.707,2.419,1.04,4.932,1.37,7.424c0.772,5.84,1.092,12.142,3.069,17.743c0.88,2.494,2.445,4.7,3.193,7.24
			c0.491,1.665,0.597,3.409,0.518,5.136c-0.266,5.786-1.999,11.562-3.492,17.125c-1.571,5.858-3.321,11.669-4.856,17.536
			c-0.719,2.746-1.134,5.478-1.623,8.263c-0.207,1.178-1.749,1.316-2.673,1.875c-2.88,1.745-4.745,4.626-5.632,7.828
			c-1.504,5.43-1.151,11.455-0.752,17.012c0.413,5.745,1.606,11.393,1.1,17.168c-0.545,6.228-1.576,12.417-2.52,18.594
			c-0.881,5.764-1.816,11.524-2.866,17.26c-0.557,3.041-1.131,6.08-1.812,9.097c-0.619,2.744-1.626,5.449-2.053,8.227
			c-0.35,2.276-0.331,5.335,1.891,6.674c1.11,0.669,2.516,0.875,3.485,1.772c1.048,0.969,1.382,2.629,1.808,3.914
			c1.559,4.702,3.719,10.002,7.57,13.315c2.72,2.34,6.303,2.683,9.759,2.832c3.489,0.15,6.98,0.275,10.47,0.412
			c2.592,0.102,5.209,0.233,7.8,0.04c1.315-0.098,3.967-0.25,3.54-2.205c-0.408-1.869-2.023-3.629-3.022-5.188
			c-1.705-2.659-3.327-5.381-5.177-7.945c-1.376-1.907-2.893-3.821-4.912-5.081c-1.717-1.071-3.765-1.43-5.473-2.493
			c-3.002-1.868-3.306-6.322-3.623-9.445c-0.611-6.028-0.625-12.145-0.539-18.197c0.083-5.814,0.359-11.655,1.112-17.425
			c0.732-5.605,1.989-11.224,4.247-16.424c1.044-2.403,2.301-4.778,4.063-6.735c0.969-1.076,1.933-1.746,2.148-3.214
			c0.249-1.702,0.457-3.232,1.212-4.796c1.104-2.283,2.815-4.242,3.887-6.528c0.299-0.637-0.055-0.931,0.071-1.528
			c0.115-0.545,0.594-1.106,0.904-1.544c0.823-1.161,1.729-2.265,2.645-3.353c3.437-4.082,7.206-7.904,11.313-11.313
			c0,0.495-0.553,1.355-0.735,1.833c-0.228,0.599-0.445,1.203-0.646,1.811c-0.409,1.241-0.754,2.504-0.999,3.788
			c-0.485,2.539-0.554,5.139-0.167,7.696c0.707,4.671,2.611,9.307,4.998,13.362c0.844,1.435,1.778,2.828,3.096,3.867
			c1.31,1.033,2.306,1.964,3.155,3.43c2.658,4.586,4.318,9.894,5.918,14.922c1.687,5.303,3.111,10.693,4.245,16.141
			c1.13,5.432,2.059,10.916,2.751,16.421c0.742,5.902,1.209,11.799,1.65,17.728c0.09,1.215,0.057,2.882,0.773,3.951
			c0.596,0.89,1.73,0.902,2.681,1.077c3.019,0.557,4.604,3.442,6.065,5.875c2.458,4.092,4.675,8.074,9.472,9.666
			c4.933,1.637,10.564,1.385,15.686,1.244c2.706-0.074,5.434-0.114,8.131-0.362c0.891-0.082,2.301-0.115,3.05-0.749
			c0.535-0.453,0.404-1.097,0.179-1.688c-0.691-1.819-2.028-3.484-3.168-5.032c-3.176-4.312-6.835-8.404-11.326-11.378
			c-2.017-1.335-4.19-2.505-6.488-3.278c-1.124-0.379-2.482-0.435-3.434-1.204c-0.81-0.654-1.288-1.693-1.688-2.623
			c-1.005-2.341-1.661-4.84-2.324-7.293c-1.399-5.18-2.614-10.41-3.795-15.644c-1.374-6.088-2.711-12.177-4.002-18.283
			c-1.169-5.526-2.291-11.06-3.324-16.614c-0.983-5.283-1.847-10.604-2.278-15.964c-0.22-2.737-0.364-5.48-0.565-8.219
			c2.257,0.571,4.447,0.438,6.739,0.179c0.764-0.086,3.925-0.786,4.347-0.255c0.295,0.371,0.329,1.369,0.432,1.852
			c0.163,0.767,0.318,1.535,0.502,2.297c0.165,0.684,1.29,5.775,3.054,4.452c0.494-0.37,0.756-1.126,0.994-1.664
			c0.651-1.473,1.391-2.919,1.973-4.422c1.03,1.623,1.521,3.544,1.98,5.389c0.445,1.787,0.724,4.085,1.888,5.595
			c0.853,1.106,1.795,0.763,2.279-0.457c0.805-2.03,0.87-4.399,1.242-6.533c0.392-2.248,0.965-4.472,2.023-6.508
			c0.456-0.879,1.047-1.963,1.918-2.513c0.459-0.289,1.006-0.393,1.522-0.534c1.095-0.298,2.159-0.672,3.199-1.126
			c4.605-2.008,8.598-5.123,12.021-8.766c3.734-3.974,6.994-8.382,10.89-12.207c0.434-0.426,0.6-0.346,1.212-0.315
			c0.969,0.049,1.938,0.098,2.908,0.147c1.288,0.065,2.578,0.121,3.864,0.215c2.614,0.192,5.22,0.512,7.772,1.124
			c5.141,1.233,9.797,3.766,14.575,5.943c4.807,2.19,9.812,4.043,15.086,4.676c5.382,0.646,10.865,0.083,16.191-0.765
			c5.477-0.873,10.868-2.312,16.37-3.009c2.678-0.339,5.374-0.31,8.057-0.565c2.5-0.238,4.938-0.847,7.334-1.582
			c5.641-1.73,11.143-3.9,16.684-5.919c2.008-0.731,4.053-1.561,6.167-1.932c2.31-0.405,4.646-0.558,6.958-1.007
			c2.805-0.545,5.604-1.116,8.432-1.537c1.387-0.207,2.779-0.385,4.175-0.515c0.677-0.063,1.356-0.118,2.035-0.158
			c0.295-0.017,0.604-0.06,0.899-0.045c0.494,0.026,0.413-0.038,0.444,0.476c0.305,5.044,0.489,10.092,0.631,15.144
			c0.176,6.233,0.308,12.469,0.53,18.701c0.196,5.518,0.31,11.118,1.366,16.554c0.483,2.483,1.333,4.89,1.595,7.413
			c0.251,2.419,0.13,4.874-0.028,7.296c-0.359,5.512-0.986,11-1.658,16.48c-0.638,5.199-1.281,10.4-2.062,15.579
			c-0.925,6.126-1.997,12.247-2.741,18.398c-0.188,1.553-1.132,5.933,1.076,6.734c1.131,0.41,2.48,0.037,3.651,0.123
			c1.061,0.077,2.043,0.408,2.919,1.017c2.828,1.967,3.437,5.276,4.68,8.255c0.93,2.229,2.471,3.94,4.683,4.948
			c3.939,1.795,8.776,1.857,13.023,1.899c2.801,0.027,5.606-0.055,8.399-0.268c1.812-0.138,3.829-0.185,5.543-0.863
			c0.33-0.131,0.666-0.292,0.918-0.548c0.459-0.466,0.23-0.585,1.012-0.326c2.227,0.738,4.58,1.098,6.902,1.384
			c5.282,0.65,10.739,0.916,16.056,0.609c1.1-0.064,2.868-0.033,3.731-0.895c0.516-0.515,0.543-1.359,0.528-2.044
			c-0.069-3.118-2.184-5.865-4.228-8.025c-3.302-3.488-7.28-6.629-11.732-8.491c-1.595-0.667-3.356-1.203-4.611-2.456
			c-0.955-0.953-1.538-2.212-1.972-3.471c-1.653-4.802-1.901-10.209-2.243-15.236c-0.399-5.861-0.688-11.729-0.893-17.6
			c-0.095-2.742-0.182-5.487-0.21-8.231c-0.021-2.017-0.03-4.07,0.465-6.039c0.664-2.643,1.825-5.2,2.78-7.744
			c0.897-2.391,1.711-4.821,2.408-7.277c1.406-4.955,1.98-9.963,2.119-15.102c0.049-1.818-0.107-3.823,0.438-5.59
			c0.546-1.77,1.582-3.392,2.209-5.147C469.949,483.276,471.339,478.068,472.877,472.933z"/>
	</g>
</g>
</svg>
