<?xml version="1.0" encoding="utf-8"?>
<!-- Generator: Adobe Illustrator 23.0.2, SVG Export Plug-In . SVG Version: 6.00 Build 0)  -->
<!DOCTYPE svg PUBLIC "-//W3C//DTD SVG 1.1//EN" "http://www.w3.org/Graphics/SVG/1.1/DTD/svg11.dtd" [
	<!ENTITY ns_flows "http://ns.adobe.com/Flows/1.0/">
	<!ENTITY ns_extend "http://ns.adobe.com/Extensibility/1.0/">
	<!ENTITY ns_ai "http://ns.adobe.com/AdobeIllustrator/10.0/">
	<!ENTITY ns_graphs "http://ns.adobe.com/Graphs/1.0/">
	<!ENTITY ns_vars "http://ns.adobe.com/Variables/1.0/">
	<!ENTITY ns_imrep "http://ns.adobe.com/ImageReplacement/1.0/">
	<!ENTITY ns_sfw "http://ns.adobe.com/SaveForWeb/1.0/">
	<!ENTITY ns_custom "http://ns.adobe.com/GenericCustomNamespace/1.0/">
	<!ENTITY ns_adobe_xpath "http://ns.adobe.com/XPath/1.0/">
]>
<svg version="1.1" xmlns:x="&ns_extend;" xmlns:i="&ns_ai;" xmlns:graph="&ns_graphs;"
	 xmlns="http://www.w3.org/2000/svg" xmlns:xlink="http://www.w3.org/1999/xlink" xmlns:a="http://ns.adobe.com/AdobeSVGViewerExtensions/3.0/"
	 x="0px" y="0px" viewBox="0 0 750 750" enable-background="new 0 0 750 750" xml:space="preserve">
<metadata>
	<sfw  xmlns="&ns_sfw;">
		<slices></slices>
		<sliceSourceBounds  bottomLeftOrigin="true" height="5661.035" width="8462.062" x="-7196.062" y="-910.035"></sliceSourceBounds>
	</sfw>
</metadata>
<g id="FILL-BACKGROUND">
	<rect fill="#FFFFFF" width="750" height="750"/>
</g>
<g id="N-DIMENSIONS">
</g>
<g id="N-TEXT">
</g>
<g id="AG-DIAGRAM">
</g>
<g id="AG-DETAILS">
</g>
<g id="AG-PEOPLE">
</g>
<g id="AG-ANIMALS">
	<g id="POLYLINE_428_">
		
			<path fill="none" stroke="#FB8604" stroke-width="2.75" stroke-linecap="round" stroke-linejoin="round" stroke-miterlimit="10" d="
			M634.171,378.097c2.506-0.171,4.456-0.801,6.138-2.727c1.528-1.75,2.668-3.839,3.823-5.841c1.049-1.819,2.042-3.681,2.734-5.669
			c1.588-4.561,1.531-9.546,0.51-14.224c-1.102-5.047-3.201-9.976-6.35-14.088c-3.097-4.044-6.88-7.486-9.896-11.608
			c-3.096-4.23-5.773-8.759-8.302-13.345c-2.587-4.69-5.045-9.464-7.252-14.345c-1.208-2.671-2.3-5.383-3.393-8.103
			c-0.866-2.155-1.813-4.286-3.138-6.205c-1.462-2.118-3.287-3.953-5.066-5.802c-1.799-1.871-3.44-3.827-5.11-5.812
			c-3.009-3.576-6.88-6.341-10.991-8.524c-1.061-0.564-2.146-1.078-3.253-1.545"/>
	</g>
	<g id="POLYLINE_423_">
		
			<path fill="none" stroke="#FB8604" stroke-width="2.75" stroke-linecap="round" stroke-linejoin="round" stroke-miterlimit="10" d="
			M606.776,374.665c0.631-3.608,1.42-7.131,2.868-10.511c1.46-3.41,3.345-6.642,5.351-9.756c4.388-6.815,9.631-12.904,15.002-18.949
			c1.957-2.203,3.719-4.035,6.547-5.034"/>
	</g>
	<g id="POLYLINE_422_">
		
			<path fill="none" stroke="#FB8604" stroke-width="2.75" stroke-linecap="round" stroke-linejoin="round" stroke-miterlimit="10" d="
			M556.675,269.978c1.555-5.003,3.513-9.852,6.043-14.445c2.467-4.481,5.409-8.718,8.723-12.614
			c3.303-3.883,7.113-7.144,10.928-10.502c3.793-3.338,7.004-7.097,9.966-11.181c2.853-3.934,5.479-8.496,9.162-11.745
			c0.474-0.418,1.608-1.504,2.188-0.712c0.583,0.795,0.225,2.558,0.128,3.384c-0.581,4.959-1.924,9.911-3.507,14.636
			c-1.533,4.574-3.503,8.867-6.342,12.783c-1.439,1.984-2.949,3.93-4.128,6.086c-1.209,2.212-2.083,4.599-2.867,6.989
			c-1.663,5.072-3.182,10.158-4.995,15.181c-0.414,1.146-0.827,2.291-1.241,3.437"/>
	</g>
	<g id="POLYLINE_421_">
		
			<path fill="none" stroke="#FB8604" stroke-width="2.75" stroke-linecap="round" stroke-linejoin="round" stroke-miterlimit="10" d="
			M169.201,331.601c-1.277,3.38-2.504,6.784-3.862,10.132c-1.258,3.1-2.78,6.067-4.218,9.085c-1.347,2.827-2.538,5.729-3.302,8.772
			c-0.779,3.101-1.155,6.296-1.351,9.482c-0.43,6.984,0.007,13.987,0.635,20.944c0.635,7.04,1.642,14.042,2.143,21.095
			c0.495,6.957,0.515,13.942,1.034,20.898c0.244,3.271,0.921,6.529,0.979,9.809c0.054,3.039-0.816,5.835-2.219,8.508
			c-0.802,1.529-1.72,3-2.72,4.407c-0.713,1.003-1.465,2.121-2.421,2.914c-0.58,0.481-0.727,0.24-0.636-0.431
			c0.204-1.499,0.625-2.975,0.86-4.473c0.242-1.538,0.491-3.117,0.506-4.676c0.004-0.473-0.019-1.179-0.413-0.455
			c-0.615,1.13-0.903,2.545-1.264,3.769c-0.511,1.731-0.962,3.48-1.472,5.211c-0.582,1.976-1.489,3.492-2.889,5.01
			c-0.862,0.935-1.788,1.85-2.814,2.605c-0.232,0.171-0.968,0.8-1.303,0.585c-0.356-0.229,0.054-1.189,0.144-1.46
			c0.523-1.581,1.24-3.092,1.752-4.677c0.894-2.763,1.123-5.617,1.141-8.506c0.011-1.781-0.03-3.563-0.102-5.342
			c-0.055-1.352-0.046-2.797-0.339-4.125c-0.212-0.961-0.438-0.067-0.55,0.452c-0.392,1.819-0.643,3.674-0.957,5.508
			c-0.501,2.928-1.09,5.935-2.31,8.66c-0.281,0.627-1.169,2.83-2.197,2.42c-0.492-0.196-0.704-1.016-0.841-1.459
			c-0.39-1.256-0.567-2.582-0.753-3.88c-0.492-3.435-1.019-6.883-1.23-10.35c-0.207-3.392,0.075-6.75,0.347-10.129
			c0.091-1.135,0.393-2.51,0.167-3.642c-0.15-0.749-0.499-0.26-0.772,0.168c-0.733,1.149-1.226,2.442-1.984,3.576
			c-0.277,0.414-0.662,0.948-0.891,0.229c-0.309-0.968-0.042-2.315,0.045-3.289c0.159-1.796,0.4-3.583,0.653-5.368
			c1.028-7.265,2.669-14.388,4.272-21.542c1.364-6.088,2.535-12.194,3.234-18.398c0.851-7.563,1.565-15.15,2.885-22.65
			c1.169-6.641,2.96-13.196,5.169-19.564c2.294-6.615,5.017-13.066,8.238-19.284c1.69-3.263,3.505-6.461,5.289-9.673
			c1.568-2.824,2.969-5.719,4.482-8.571c2.388-4.501,6.492-7.58,11.474-8.697c3.233-0.725,6.537-1.075,9.771-1.813
			c3.101-0.708,6.166-1.56,9.24-2.375c7.042-1.869,14.082-3.961,21.264-5.239c6.634-1.18,13.157-1.269,19.722,0.379
			c6.676,1.676,13.035,4.239,19.853,5.377c4.311,0.72,8.668,1.193,13.004,1.741c9.077,1.147,18.155,2.294,27.232,3.441
			c10.154,1.283,20.308,2.566,30.463,3.849c5.695,0.72,11.389,1.442,17.085,2.159c6.006,0.756,12.027,1.199,18.076,1.408
			c7.008,0.242,14.026,0.259,21.037,0.174c6.993-0.084,13.969-0.304,20.951-0.684c3.646-0.199,7.299-0.489,10.951-0.545
			c3.571-0.055,7.071,0.37,10.609,0.794c3.206,0.385,6.421,0.691,9.654,0.596c3.253-0.095,6.467-0.593,9.636-1.319
			c6.72-1.54,13.213-3.969,19.594-6.544c6.758-2.727,13.418-5.682,20.064-8.668c6.236-2.802,12.379-5.823,18.5-8.869
			c5.72-2.847,11.407-5.754,17.071-8.709c7.076-3.691,14.105-7.493,21.259-11.033c2.751-1.361,5.578-2.67,8.519-3.569
			c2.88-0.881,5.779-0.969,8.768-1.009"/>
	</g>
	<g id="POLYLINE_420_">
		
			<path fill="none" stroke="#FB8604" stroke-width="2.75" stroke-linecap="round" stroke-linejoin="round" stroke-miterlimit="10" d="
			M176.885,496.125c-2.509,2.853-4.485,6.177-6.155,9.577c-1.58,3.219-3.017,6.632-3.526,10.205
			c-0.45,3.154-0.519,6.395-0.723,9.573c-0.375,5.837-0.749,11.674-1.124,17.511c-0.211,3.293-0.441,6.583-0.481,9.884
			c-0.049,4.001,0.597,7.86,0.982,11.827c0.182,1.88,0.05,3.694-0.034,5.573c-0.04,0.904-0.02,1.814,0.216,2.693
			c0.738,2.749,2.976,4.92,4.764,7.014c1.496,1.752,2.452,3.398,2.552,5.723c0.097,2.26-0.132,4.511,0.943,6.573
			c0.793,1.521,1.864,2.888,2.701,4.388c0.943,1.693,1.923,3.284,3.102,4.823c1.724,2.251,3.428,4.761,3.732,7.661
			c0.63,6.003-7.036,5.149-10.822,5.159c-3.498,0.01-7.249,0.273-10.676-0.562c-2.21-0.539-3.139-2.517-4.703-3.999
			c-1.459-1.382-2.976-2.682-4.33-4.17c-0.759-0.834-1.827-1.588-2.317-2.632c-0.811-1.726,0.143-4.126,0.681-5.756
			c0.889-2.69,1.326-4.876,0.634-7.686c-0.535-2.17-1.367-3.63-3.343-4.714c-4.55-2.495-6.49-8.223-6.055-13.147
			c0.334-3.777,1.443-7.439,1.839-11.215c0.474-4.522,0.91-9.048,1.367-13.571c0.768-7.599,1.05-15.157,1.21-22.788
			c0.187-8.89,0.707-17.855,0.335-26.748c-0.166-3.965-0.703-7.935-0.576-11.908c0.098-3.069,0.898-5.838,2.369-8.531
			c1.662-3.042,3.636-5.923,5.568-8.798c2.845-4.233,5.697-8.461,8.535-12.699c2.044-3.051,3.954-6.191,5.308-9.616
			c1.388-3.512,2.222-7.204,2.751-10.936c1.161-8.195,1.238-16.51,0.999-24.769c-0.23-7.942-0.887-16.018-2.729-23.763
			c-1.009-4.243-2.486-8.35-3.87-12.48c-1.24-3.701-2.26-7.479-3.096-11.291c-0.819-3.737-1.458-7.506-1.994-11.293"/>
	</g>
	<g id="POLYLINE_419_">
		
			<path fill="none" stroke="#FB8604" stroke-width="2.75" stroke-linecap="round" stroke-linejoin="round" stroke-miterlimit="10" d="
			M450.557,302.864c-1.163-1.432-2.161-2.75-3.669-3.846c-0.762-0.554-1.586-1.067-2.279-1.711
			c-0.196-0.182-0.595-0.508-0.579-0.813c0.071-1.34,5.232-0.305,3.964-2.273c-0.402-0.624-1.638-1.541-0.522-2.092
			c1.27-0.628,3.117-0.463,4.476-0.498c2.524-0.064,5.119,0.001,7.615-0.437c0.927-0.163,2.495-0.432,2.819-1.498
			c0.517-1.701-2.008-3.561-0.672-5.168c0.927-1.116,2.697-1.481,3.93-2.085c1.075-0.527,1.69-1.305,2.552-2.113
			c0.68-0.637,1.449-0.821,2.37-0.805c1.876,0.033,3.744,0.626,5.533,1.133c0.95,0.269,1.952,0.652,2.941,0.769
			c0.44,0.052,0.652,0.063,0.42-0.372c-0.34-0.637-1.1-1.119-1.554-1.695c-0.263-0.334-0.501-0.69-0.674-1.08
			c-0.268-0.603-0.564-1.715,0.417-1.704c0.983,0.01,1.929,0.844,2.933,0.669c1.018-0.178,0.856-1.491,1.495-2.076
			c0.65-0.594,1.79,0.019,2.44,0.305c1.133,0.498,2.4,1.287,3.695,1.235c1.122-0.045,2.069-0.755,3.12-1.069
			c0.569-0.169,1.159-0.24,1.747-0.309c0.488-0.057,1.487-0.01,1.917-0.362c0.79-0.646-0.981-1.933-1.41-2.295
			c-0.779-0.658-1.646-1.228-2.372-1.946c-0.24-0.237-0.643-0.606-0.585-0.991c0.102-0.682,1.298-0.804,1.817-0.839
			c0.86-0.057,1.713,0.095,2.528,0.364c0.447,0.147,0.88,0.329,1.312,0.515c0.218,0.094,0.84,0.503,1.129,0.464
			c0.491-0.066-0.311-0.854-0.485-1.099c-0.404-0.567-1.236-1.561-0.31-2.02c0.83-0.412,2.122-0.181,2.598-1.156
			c0.36-0.737-0.083-2.003,0.696-2.495c0.93-0.587,2.964,0.213,3.816,0.386c2.213,0.449,3.834-0.052,4.646-2.337
			c0.269-0.758,0.34-1.498-0.094-2.199c-0.527-0.85-0.704-1.276,0.365-1.729c1.948-0.826,3.853,0.059,5.347,1.337
			c0.339,0.29,2.175,2.439,2.171,0.937c-0.004-1.259-0.611-2.644-1.201-3.72c-0.242-0.442-2.02-2.45-0.748-2.49
			c0.805-0.026,1.737,0.492,2.413,0.892c1.584,0.938,2.765,2.407,4.305,3.383c0.3,0.19,0.521,0.359,0.666-0.023
			c0.211-0.557-0.31-1.724-0.41-2.244c-0.148-0.77-0.573-2.585,0.126-3.23c0.788-0.727,2.653,1.226,3.149,1.569
			c0.421,0.292,1.461,1.101,1.754,0.316c0.114-0.307-0.001-0.759-0.047-1.068c-0.164-1.108-0.456-2.194-0.629-3.301
			c-0.117-0.744-0.584-2.746,0.023-3.438c0.652-0.743,1.387,1.185,1.983,1.229c0.782,0.057,0.123-1.936,0.839-2.234
			c0.665-0.277,1.599,1.218,2.123,0.499c0.181-0.249,0.091-0.79,0.07-1.069c-0.085-1.108-0.353-2.204-0.553-3.294
			c-0.07-0.381-0.635-2.354,0.231-2.191c0.861,0.162,4.812,5.539,5.566,3.322c0.333-0.978,0.001-2.25,0.547-3.149
			c0.524-0.863,1.703,0.084,2.355,0.275c2.255,0.66,0.825-3.862,1.717-4.675c1.073-0.979,6.146,8.452,6.554,9.118
			c0.172,0.281,0.797,1.629,1.218,1.689c0.366,0.052,0.184-0.641,0.149-0.894c-0.343-2.454-0.93-4.858-1.197-7.326
			c-0.184-1.707-0.557-3.779-0.171-5.484c0.098-0.434,0.203-0.594,0.521-0.213c0.506,0.606,0.721,1.661,0.994,2.377
			c0.306,0.801,0.568,1.679,1.026,2.412c0.232,0.372,0.407,0.601,0.704,0.189c0.301-0.418,0.42-3.031,1.297-2.089
			c0.386,0.415,0.607,1.106,0.813,1.614c0.4,0.989,0.733,2.002,1.065,3.015c0.464,1.415,0.912,2.836,1.396,4.244
			c0.065,0.189,0.514,1.662,0.718,1.5c0.091-0.072,0.008-0.612,0.005-0.709c-0.024-0.683-0.068-1.365-0.074-2.049
			c-0.008-0.912,0.045-1.818,0.201-2.718c0.432-2.483,1.434-4.866,2.173-7.268c0.043-0.141,0.296-1.295,0.591-1.238
			c0.268,0.053,0.327,1.253,0.347,1.418c0.315,2.526,0.388,5.077,0.664,7.607c0.103,0.939,0.206,1.897,0.446,2.813
			c0.084,0.32,0.168,0.923,0.488,0.584c0.118-0.124,0.135-0.507,0.168-0.662c0.136-0.659,0.238-1.326,0.364-1.988
			c0.197-1.029,0.435-2.053,0.757-3.05c0.588-1.824,1.5-3.572,2.666-5.093c0.244-0.318,1.43-1.891,1.411-0.813
			c-0.017,0.992-0.529,2.061-0.764,3.017c-0.269,1.096-0.471,2.204-0.593,3.326c-0.194,1.783-0.335,3.733,0.059,5.503
			c0.224,1.004,0.558,1.268,1.501,0.867c1.691-0.72,3.529-0.996,5.231-1.686"/>
	</g>
	<g id="POLYLINE_418_">
		
			<path fill="none" stroke="#FB8604" stroke-width="2.75" stroke-linecap="round" stroke-linejoin="round" stroke-miterlimit="10" d="
			M435.147,519.989c-0.935,4.977-1.703,9.954-1.955,15.018c-0.252,5.08-0.122,10.182,0.207,15.255
			c0.321,4.936,0.818,9.896,1.84,14.741c0.746,3.536,1.701,7.39,4.44,9.942c1.554,1.447,3.385,2.52,4.822,4.106
			c1.116,1.232,2.084,2.627,2.757,4.152c1.346,3.051,0.619,6.513,1.965,9.555c1.577,3.564,4.777,6.13,7.945,8.227
			c2.623,1.736,6.12,3.485,7.489,6.514c0.614,1.358,0.971,3.437,0.076,4.768c-0.643,0.955-1.996,1.148-3.043,1.316
			c-2.184,0.35-4.435,0.386-6.642,0.453c-1.443,0.044-2.886,0.087-4.329,0.131"/>
	</g>
	<g id="POLYLINE_111_">
		
			<path fill="none" stroke="#FB8604" stroke-width="2.75" stroke-linecap="round" stroke-linejoin="round" stroke-miterlimit="10" d="
			M251.986,429.573c1.569,0.65,3.147,1.1,4.845,0.8c2.879-0.508,5.459-2.281,7.834-3.882c1.842-1.241,4.085-3.037,6.472-2.696
			c2.689,0.384,4.95,2.853,6.996,4.394c6.162,4.641,13.366,7.482,20.738,9.57c7.869,2.229,15.958,3.775,24.065,4.834
			c8.049,1.052,16.153,1.618,24.271,1.694c8.956,0.083,17.891-0.404,26.836-0.781c7.631-0.322,15.332-0.793,22.925,0.297
			c3.507,0.503,7.209,1.169,10.478,2.58c1.88,0.811,3.448,2.01,4.259,3.935c0.494,1.172,0.743,2.438,0.965,3.685
			c0.374,2.1,0.747,4.197,1.164,6.289c0.77,3.861,1.635,7.756,1.422,11.717c-0.207,3.847-0.989,7.655-1.326,11.494
			c-0.406,4.634-0.737,9.275-1.091,13.913c-0.286,3.744-0.801,7.429-1.283,11.149c-0.14,1.082-0.221,2.179-0.051,3.263
			c0.237,1.509,0.873,2.942,1.371,4.375c2.21,6.359,1.492,13.326,1.087,19.925c-0.566,9.217-0.975,18.458-1.755,27.66
			c-0.16,1.894-0.339,3.799-0.691,5.669c-0.25,1.329-0.788,2.605-0.956,3.947c-0.246,1.956,0.484,4.04,1.283,5.787
			c1.087,2.377,2.654,4.206,4.795,5.687c2.032,1.406,3.948,2.644,4.831,5.054c0.655,1.787,0.739,3.791,0.152,5.606
			c-0.719,2.224-2.293,4.154-2.329,6.569c-0.066,4.478,3.714,7.608,7.515,9.178c3.506,1.448,7.328,1.892,11.074,2.234
			c3.883,0.354,7.828,0.817,11.732,0.701c3.497-0.104,9.307-1.213,9.546-5.734c0.245-4.641-5.239-7.535-8.347-9.804
			c-2.743-2.003-5.505-4.309-7.198-7.309c-1.464-2.595-1.627-5.625-2.784-8.332c-1.157-2.708-3.586-4.516-5.432-6.722
			c-2.133-2.549-3.368-5.677-4.213-8.861c-1.989-7.499-2.509-15.496-1.931-23.216c0.568-7.576,2.203-15.283,5.063-22.332
			c1.424-3.508,3.421-6.798,4.15-10.555c0.731-3.765,0.553-7.686,0.54-11.5c-0.014-3.861-0.036-7.727,0.312-11.577
			c0.353-3.904,1.061-7.776,1.904-11.601c0.938-4.258,1.981-8.494,2.867-12.763c0.82-3.952,1.366-7.953,2.136-11.914
			c0.586-3.017,1.29-6.235,2.974-8.859c1.472-2.294,3.809-3.647,6.144-4.933c1.611-0.888,3.211-1.774,4.593-3.003
			c1.358-1.207,2.512-2.628,3.574-4.096c2.325-3.217,4.34-6.645,6.682-9.851c4.616-6.318,9.839-12.276,15.662-17.51
			c6.195-5.567,13.14-10.206,19.815-15.161c6.151-4.566,11.863-9.539,17.057-15.175c5.765-6.256,11.479-12.463,17.858-18.106
			c3.236-2.863,6.513-5.688,9.839-8.446c1.917-1.589,4.081-3.505,6.568-4.108c1.614-0.391,3.028,0.226,4.32,1.166
			c2.938,2.138,5.472,4.794,8.768,6.425c1.795,0.888,4.171,0.8,5.671,2.196c1.004,0.935,1.682,2.199,2.504,3.284
			c1.093,1.444,2.393,2.674,3.807,3.8c3.275,2.609,6.912,4.774,10.423,7.041c2.965,1.914,5.744,4.262,8.937,5.794
			c2.096,1.006,4.369,1.3,6.179,2.845c2.23,1.905,3.722,4.66,6.117,6.358c1.398,0.991,3.121,1.112,4.786,1.121
			c3.524,0.019,7.155-0.473,10.555-1.394c1.672-0.453,3.725-1.065,4.747-2.603c0.801-1.205,0.783-2.784,0.497-4.15
			c-0.422-2.015-1.521-3.716-2.895-5.22c-1.299-1.423-2.745-2.702-4.031-4.138c-1.318-1.473-2.557-3.019-3.822-4.537"/>
	</g>
	<g id="POLYLINE_110_">
		
			<path fill="none" stroke="#FB8604" stroke-width="2.75" stroke-linecap="round" stroke-linejoin="round" stroke-miterlimit="10" d="
			M169.201,331.601c-1.806,4.73-3.187,9.361-2.774,14.486c0.426,5.281,2.005,10.482,3.858,15.421
			c1.887,5.029,4.227,9.867,6.915,14.515c2.854,4.935,5.845,9.788,8.513,14.828c2.522,4.763,4.746,9.702,6.756,14.702
			c2.047,5.092,3.947,10.252,5.456,15.532c1.365,4.774,2.773,9.974,2.054,14.975c-0.351,2.437-1.22,4.766-2.139,7.038
			c-1.214,3-2.466,5.985-3.699,8.977c-2.061,5.001-4.206,9.969-6.388,14.918c-2.156,4.888-4.389,9.804-7.083,14.424
			c-1.173,2.01-2.552,3.978-3.405,6.157c-0.695,1.777-0.834,3.638-0.718,5.531c0.337,5.501,1.872,10.932,2.796,16.352
			c0.92,5.389,1.667,10.808,2.455,16.218c0.83,5.706,1.596,11.426,2.611,17.103c0.949,5.312,2.544,10.509,3.306,15.851
			c0.772,5.41,0.66,10.887,0.606,16.334c-0.012,1.26,0.048,2.483,0.565,3.648c0.408,0.919,0.993,1.748,1.406,2.665
			c0.278,0.618,0.376,1.249,0.547,1.901c0.37,1.409,1.487,2.223,2.529,3.164c1.194,1.079,1.938,2.605,3.187,3.597
			c1.931,1.534,4.955,1.199,6.596,3.22c1.364,1.679,0.616,4.334-0.12,6.098c-0.935,2.242-1.891,3.933-0.802,6.289
			c0.365,0.789,0.861,1.54,1.472,2.161c0.9,0.914,2.122,1.384,3.088,2.221c1.259,1.091,2.386,2.177,3.928,2.851
			c2.15,0.94,4.569,1.372,6.902,1.49c2.524,0.128,5.099-0.014,7.607-0.308c2.059-0.241,4.19-0.599,6.084-1.479
			c1.908-0.887,3.461-2.548,3.289-4.774c-0.087-1.132-0.585-2.202-1.14-3.174c-1.261-2.206-2.97-4.114-4.427-6.186
			c-1.412-2.009-2.48-4.181-3.081-6.567c-0.503-1.996-0.768-4.117-1.717-5.971c-1.779-3.471-5.545-4.812-8.478-7.063
			c-2.97-2.279-3.201-5.632-4.086-9.047c-0.635-2.451-1.723-4.745-2.656-7.09c-0.859-2.157-1.413-4.339-1.684-6.645
			c-0.593-5.035-1.003-10.057-1.846-15.063c-0.62-3.688-1.241-7.376-1.861-11.064c-0.364-2.166-0.787-4.337-0.941-6.531
			c-0.338-4.81,1.517-9.11,3.18-13.521c0.846-2.242,1.622-4.491,2.197-6.82c0.67-2.717,1.239-5.474,2.162-8.121
			c1.585-4.55,4.403-8.53,7.267-12.356c3.504-4.682,7.084-9.315,10.116-14.325c2.975-4.916,5.258-10.16,7.61-15.39
			c2.023-4.499,4.176-8.95,7.127-12.926c1.47-1.981,3.119-3.805,4.939-5.47c1.641-1.501,3.384-2.958,4.689-4.778
			c1.363-1.9,2.236-4.101,3.313-6.163c1.129-2.164,2.551-4.107,4.144-5.951c1.718-1.988,3.522-3.931,5.021-6.095
			c1.423-2.055,2.572-4.268,3.727-6.48"/>
	</g>
</g>
<g id="AG-OUTLINE">
	<g id="POLYLINE_109_">
		
			<path fill="none" stroke="#FB8604" stroke-width="3.5" stroke-linecap="round" stroke-linejoin="round" stroke-miterlimit="10" d="
			M634.171,378.097c1.599-0.108,3.209-0.343,4.556-1.269c2.024-1.391,3.333-3.761,4.544-5.828c1.557-2.658,3.12-5.333,3.966-8.317
			c0.932-3.287,1.066-6.768,0.64-10.147c-0.894-7.089-3.955-13.799-8.643-19.166c-2.42-2.771-5.023-5.363-7.256-8.295
			c-2.243-2.944-4.255-6.058-6.148-9.237c-3.798-6.377-7.298-12.991-10.333-19.766c-1.537-3.431-2.791-6.987-4.365-10.399
			c-1.438-3.118-3.484-5.706-5.846-8.175c-1.337-1.397-2.718-2.758-3.979-4.225c-1.199-1.396-2.307-2.87-3.563-4.217
			c-2.164-2.323-4.767-4.23-7.467-5.881c-1.451-0.888-2.952-1.702-4.499-2.411c-0.179-0.082-1.079-0.333-1.154-0.505
			c-0.061-0.141,0.242-0.796,0.282-0.927c0.384-1.259,0.767-2.518,1.151-3.778c1.006-3.302,2.045-6.653,3.68-9.708
			c1.607-3.002,3.869-5.574,5.712-8.424c1.875-2.9,3.25-6.072,4.404-9.318c1.216-3.422,2.204-6.934,2.983-10.481
			c0.386-1.755,0.736-3.525,0.956-5.31c0.118-0.954,0.278-2.028,0.078-2.988c-0.37-1.771-2.104-0.108-2.799,0.557
			c-2.559,2.449-4.537,5.478-6.586,8.344c-2.168,3.032-4.318,6.08-6.766,8.896c-2.395,2.756-5.154,5.123-7.901,7.515
			c-2.707,2.357-5.319,4.78-7.689,7.482c-0.57,0.65-0.906,1.122-1.73,1.402c-0.875,0.297-1.773,0.521-2.661,0.776
			c-0.503,0.144-1.005,0.293-1.489,0.49c-0.283,0.115-0.697,0.407-1.032,0.389c-1.385-0.077-1.003-4.238-0.967-4.983
			c0.078-1.625,0.306-3.235,0.685-4.817c0.214-0.892,0.49-1.768,0.698-2.661c0.033-0.142,0.234-0.713,0.105-0.857
			c-0.592-0.659-3.243,4.156-3.443,4.6c-0.571,1.271-0.951,2.614-1.242,3.974c-0.187,0.873-0.322,1.756-0.496,2.631
			c-0.023,0.117-0.087,0.805-0.247,0.874c-0.579,0.249-1.207-7.426-1.25-7.968c-0.107-1.34-0.076-2.808-0.438-4.109
			c-0.291-1.046-0.63,0.264-0.768,0.71c-0.963,3.101-2.335,6.204-2.391,9.495c-0.016,0.93,0.065,1.855,0.081,2.784
			c0.004,0.218,0.088,0.633-0.145,0.51c-0.297-0.156-0.49-1.206-0.586-1.485c-0.309-0.9-0.597-1.806-0.894-2.71
			c-0.207-0.63-1.775-6.759-2.85-6.404c-0.67,0.222-0.411,1.922-0.862,2.396c-0.473,0.497-0.812-0.505-0.988-0.893
			c-0.586-1.293-0.849-2.927-1.669-4.094c-0.494-0.703-0.575,0.185-0.612,0.659c-0.244,3.118,0.343,6.377,0.906,9.432
			c0.171,0.93,0.369,1.859,0.507,2.794c0.022,0.147,0.183,0.756,0.059,0.905c-0.321,0.388-1.463-1.696-1.597-1.919
			c-1.005-1.672-1.967-3.371-2.982-5.037c-0.723-1.185-1.458-2.539-2.481-3.502c-0.467-0.439-0.873-0.579-1.064,0.132
			c-0.27,1.006-0.099,2.107-0.267,3.134c-0.314,1.919-1.415,0.884-2.707,0.557c-1.516-0.384-1.235,2.242-1.407,3.091
			c-0.398,1.972-2.147,0.185-2.964-0.58c-0.631-0.591-1.231-1.217-1.879-1.788c-0.202-0.178-0.516-0.531-0.794-0.592
			c-0.589-0.129-0.479,0.544-0.438,0.964c0.145,1.467,0.591,2.891,0.733,4.36c0.036,0.368,0.192,1.272-0.288,1.421
			c-0.561,0.174-1.133-0.751-1.708-0.712c-0.704,0.047-0.557,1.266-0.648,1.736c-0.332,1.699-1.663-1.726-2.392-0.648
			c-0.348,0.516-0.18,1.609-0.135,2.166c0.123,1.514,0.542,2.972,0.77,4.469c0.055,0.358,0.259,1.199-0.16,1.421
			c-0.387,0.204-1.068-0.315-1.36-0.507c-0.845-0.555-3.32-3.171-3.627-0.842c-0.131,0.989,0.088,2.017,0.296,2.978
			c0.079,0.366,0.683,1.987-0.096,1.838c-0.254-0.048-0.586-0.39-0.771-0.539c-0.688-0.553-1.337-1.153-2.02-1.712
			c-0.741-0.608-1.515-1.189-2.377-1.615c-0.54-0.267-1.223-0.599-1.836-0.578c-0.766,0.027-0.448,0.555-0.166,1.017
			c0.685,1.123,1.339,2.161,1.741,3.426c0.169,0.529,0.503,1.417,0.372,1.997c-0.195,0.864-1.078-0.189-1.415-0.493
			c-0.806-0.726-1.627-1.49-2.628-1.942c-1.089-0.491-2.462-0.537-3.559-0.031c-1.56,0.72-0.031,1.487,0.04,2.622
			c0.078,1.246-0.784,2.892-1.883,3.498c-1.61,0.888-3.793-0.173-5.417-0.379c-0.478-0.06-1.167-0.157-1.546,0.223
			c-0.487,0.488-0.269,1.434-0.427,2.04c-0.138,0.529-0.434,0.821-0.938,1.018c-0.535,0.209-1.889,0.161-2.177,0.795
			c-0.218,0.481,0.373,1.202,0.612,1.546c0.073,0.105,0.89,0.983,0.801,1.187c-0.099,0.226-0.711-0.133-0.869-0.2
			c-1.478-0.632-2.975-1.264-4.616-1.053c-0.418,0.054-1.174,0.171-1.417,0.584c-0.322,0.547,0.344,1.089,0.709,1.418
			c0.406,0.365,4.705,3.192,3.537,4.056c-0.746,0.552-2.21,0.34-3.087,0.52c-0.784,0.161-1.47,0.506-2.206,0.816
			c-1.643,0.693-2.882,0.187-4.446-0.523c-0.72-0.327-1.685-0.918-2.527-0.871c-0.762,0.042-0.928,0.746-1.189,1.349
			c-0.723,1.669-2.108,0.679-3.467,0.373c-1.627-0.367-1.009,1.434-0.465,2.268c0.509,0.78,1.317,1.322,1.829,2.081
			c0.484,0.719-0.491,0.418-0.951,0.311c-2.686-0.624-5.464-1.909-8.276-1.78c-1.705,0.078-2.254,1.369-3.512,2.309
			c-1.48,1.106-3.801,1.238-4.982,2.72c-0.943,1.184,0.281,2.838,0.614,4.005c0.466,1.632-0.867,2.238-2.279,2.544
			c-3.316,0.718-6.802,0.379-10.165,0.613c-1.033,0.072-3.665,0.134-2.494,1.706c0.29,0.389,1.194,1.137,0.735,1.679
			c-0.433,0.512-1.839,0.54-2.375,0.636c-0.362,0.064-1.497,0.14-1.67,0.606c-0.16,0.431,0.497,0.916,0.769,1.146
			c1.079,0.915,2.328,1.611,3.373,2.569c0.91,0.834,1.588,1.85,2.362,2.803c-5.395,1.29-10.749,1.875-16.291,1.439
			c-5.653-0.446-11.15-1.43-16.845-1.171c-5.913,0.27-11.818,0.717-17.734,0.909c-5.849,0.19-11.701,0.283-17.553,0.295
			c-5.818,0.012-11.641-0.035-17.454-0.277c-5.326-0.222-10.626-0.654-15.917-1.304c-3.797-0.466-7.591-0.959-11.386-1.439
			c-7.742-0.978-15.483-1.956-23.225-2.934c-8.633-1.091-17.266-2.182-25.899-3.272c-6.267-0.792-12.534-1.584-18.801-2.376
			c-3.508-0.443-7.024-0.857-10.5-1.512c-5.612-1.057-10.922-3.095-16.41-4.618c-5.404-1.5-10.817-2.107-16.412-1.547
			c-5.113,0.511-10.175,1.685-15.136,2.996c-6.185,1.635-12.348,3.386-18.563,4.902c-2.661,0.649-5.331,1.171-8.034,1.614
			c-2.33,0.382-4.659,0.728-6.837,1.686c-4.006,1.761-6.734,4.688-8.667,8.557c-2.633,5.267-5.567,10.358-8.358,15.542
			c-2.659,4.939-5.003,10.044-7.049,15.266c-2.112,5.392-3.917,10.913-5.362,16.521c-1.413,5.481-2.416,11.051-3.132,16.664
			c-0.758,5.949-1.266,11.929-2.06,17.873c-0.737,5.517-1.877,10.949-3.093,16.376c-1.341,5.985-2.719,11.949-3.669,18.012
			c-0.436,2.785-0.857,5.587-1.071,8.399c-0.064,0.84-0.209,1.832-0.02,2.67c0.125,0.554,0.343,0.591,0.709,0.159
			c0.629-0.743,1.028-1.751,1.48-2.599c0.208-0.391,0.615-1.584,1.091-1.786c0.49-0.208,0.41,0.584,0.413,0.941
			c0.009,1.286-0.156,2.585-0.259,3.864c-0.224,2.779-0.452,5.554-0.333,8.344c0.122,2.845,0.511,5.664,0.886,8.484
			c0.302,2.274,0.47,4.683,1.195,6.872c0.232,0.702,0.669,1.759,1.53,1.146c1.083-0.772,1.64-2.583,2.052-3.752
			c0.85-2.414,1.342-4.949,1.771-7.466c0.268-1.576,0.512-3.158,0.81-4.728c0.046-0.241,0.214-1.612,0.538-1.334
			c0.403,0.346,0.296,1.965,0.329,2.414c0.099,1.36,0.151,2.724,0.182,4.087c0.06,2.667,0.124,5.366-0.228,8.017
			c-0.346,2.606-1.27,4.987-2.216,7.422c-0.132,0.339-1.3,2.793-0.183,2.549c0.478-0.104,0.981-0.587,1.346-0.883
			c0.873-0.707,1.682-1.5,2.441-2.328c1.044-1.139,1.928-2.343,2.467-3.796c0.94-2.533,1.48-5.223,2.282-7.804
			c0.207-0.665,0.4-2.047,0.94-2.55c0.394-0.368,0.31,0.331,0.307,0.66c-0.025,2.626-0.557,5.316-1.107,7.874
			c-0.046,0.213-0.561,1.774-0.229,1.989c0.332,0.214,1.063-0.727,1.231-0.911c1.759-1.936,3.212-4.238,4.436-6.54
			c1.198-2.254,2.094-4.635,2.266-7.199c0.173-2.573-0.301-5.14-0.604-7.684c-0.725-6.094-0.797-12.28-1.058-18.405
			c-0.218-5.125-0.636-10.221-1.189-15.32c-0.674-6.222-1.434-12.437-1.808-18.686c-0.337-5.634-0.442-11.318,0.13-16.941
			c0.538-5.292,1.993-10.18,4.221-15.001c0,1,0.303,2.126,0.458,3.115c0.152,0.971,0.32,1.94,0.491,2.908
			c0.349,1.972,0.745,3.935,1.184,5.888c0.848,3.771,1.892,7.493,3.12,11.158c1.356,4.047,2.789,8.069,3.763,12.23
			c0.936,3.998,1.515,8.065,1.927,12.147c0.823,8.155,1.049,16.398,0.734,24.587c-0.296,7.709-0.954,15.734-3.915,22.938
			c-1.371,3.337-3.266,6.4-5.273,9.386c-2.89,4.3-5.78,8.599-8.67,12.899c-1.912,2.844-3.877,5.704-5.48,8.737
			c-1.439,2.723-2.135,5.517-2.191,8.593c-0.072,3.938,0.445,7.867,0.597,11.799c0.128,3.308,0.071,6.615,0.002,9.923
			c-0.196,9.307-0.253,18.629-0.635,27.931c-0.339,8.266-1.415,16.523-2.269,24.747c-0.415,3.994-1.629,7.879-1.897,11.883
			c-0.196,2.923,0.407,5.725,1.858,8.276c1.179,2.072,2.642,3.498,4.692,4.654c1.847,1.042,2.556,2.902,2.985,4.902
			c0.605,2.819-0.003,4.96-0.867,7.649c-0.506,1.576-1.356,3.89-0.469,5.512c0.591,1.082,1.731,1.93,2.555,2.826
			c1.344,1.461,2.883,2.716,4.302,4.1c0.906,0.884,1.572,2.036,2.526,2.853c0.622,0.532,1.41,0.77,2.197,0.936
			c3.756,0.792,7.813,0.488,11.621,0.486c2.375-0.002,5.335,0.376,7.511-0.847c4.978-2.798,0.069-9.688-2.092-12.511
			c-1.138-1.486-2.015-3.099-2.934-4.725c-0.805-1.424-1.863-2.712-2.575-4.186c-1.019-2.111-0.689-4.444-0.84-6.713
			c-0.346-5.186-6.168-7.621-7.339-12.523c-0.232-0.971-0.209-1.974-0.149-2.964c0.115-1.89,0.169-3.715-0.04-5.602
			c-0.434-3.932-1.001-7.763-0.929-11.732c0.167-9.203,1.048-18.415,1.637-27.597c0.202-3.151,0.249-6.377,0.762-9.494
			c0.58-3.532,2.055-6.922,3.647-10.104c1.63-3.258,3.545-6.438,5.958-9.181c0.904,5.831,2.213,11.592,3.119,17.425
			c1.025,6.596,1.952,13.207,2.914,19.812c0.76,5.221,1.583,10.429,2.75,15.577c0.656,2.894,1.409,5.769,1.895,8.698
			c0.442,2.658,0.636,5.356,0.728,8.047c0.105,3.055,0.072,6.103,0.032,9.159c-0.018,1.373,0.049,2.678,0.641,3.935
			c0.441,0.938,1.058,1.792,1.441,2.757c0.244,0.616,0.309,1.274,0.506,1.903c0.477,1.525,2.008,2.408,3.078,3.484
			c1.121,1.126,1.804,2.709,3.265,3.458c1.492,0.764,3.222,0.928,4.682,1.782c1.67,0.977,2.142,2.567,1.868,4.426
			c-0.389,2.638-2.671,5.052-1.991,7.796c0.574,2.317,2.13,3.586,4.03,4.822c1.397,0.908,2.437,2.258,3.898,3.088
			c1.922,1.093,4.213,1.591,6.387,1.849c2.683,0.318,5.458,0.169,8.141-0.082c2.245-0.21,4.566-0.54,6.66-1.414
			c2.12-0.884,3.929-2.637,3.654-5.104c-0.146-1.312-0.809-2.533-1.498-3.632c-1.472-2.347-3.372-4.393-4.838-6.744
			c-1.449-2.324-2.168-4.783-2.768-7.43c-0.377-1.663-0.789-3.34-1.746-4.777c-2.272-3.411-6.497-4.403-9.2-7.306
			c-1.089-1.17-1.626-2.648-2.006-4.177c-0.619-2.488-1.089-4.922-2.052-7.312c-1.008-2.5-2.178-4.955-2.737-7.607
			c-0.573-2.72-0.676-5.527-0.956-8.286c-0.625-6.158-1.786-12.26-2.812-18.359c-0.778-4.623-1.973-9.405-0.882-14.072
			c1.228-5.252,3.803-10.088,5.081-15.342c0.691-2.841,1.299-5.722,2.342-8.462c0.909-2.387,2.173-4.622,3.572-6.753
			c3.253-4.954,7.086-9.497,10.443-14.38c3.156-4.591,5.869-9.428,8.154-14.509c2.454-5.456,4.723-11.091,7.984-16.132
			c1.391-2.15,2.95-4.194,4.719-6.048c1.798-1.885,3.897-3.468,5.623-5.422c0.266-0.301,0.515-0.77,0.828-1.016
			c0.261-0.206,0.23-0.172,0.591-0.03c0.211,0.083,0.423,0.164,0.637,0.238c0.588,0.204,1.192,0.368,1.811,0.443
			c1.046,0.126,2.08-0.028,3.083-0.336c2.083-0.639,4.009-1.796,5.81-2.999c1.713-1.144,3.466-2.58,5.488-3.15
			c3.688-1.04,6.983,2.882,9.614,4.783c4.454,3.219,9.447,5.562,14.628,7.35c5.559,1.918,11.3,3.309,17.061,4.463
			c5.679,1.137,11.418,2.017,17.178,2.626c5.776,0.611,11.578,0.981,17.386,1.084c5.274,0.093,10.543,0.027,15.812-0.195
			c6.637-0.28,13.277-0.657,19.918-0.831c5.853-0.153,11.702-0.18,17.496,0.789c2.614,0.437,5.254,0.997,7.765,1.856
			c1.51,0.516,3.052,1.194,4.203,2.332c1.053,1.041,1.593,2.427,1.949,3.838c0.667,2.647,1.001,5.389,1.535,8.067
			c0.568,2.851,1.201,5.713,1.423,8.617c0.208,2.718-0.131,5.395-0.503,8.083c-0.852,6.159-1.249,12.358-1.722,18.555
			c-0.201,2.635-0.39,5.272-0.693,7.897c-0.288,2.489-0.971,5.03-0.892,7.545c0.06,1.908,0.871,3.676,1.485,5.452
			c0.792,2.292,1.208,4.635,1.359,7.053c0.317,5.085-0.132,10.197-0.443,15.272c-0.427,6.947-0.825,13.897-1.281,20.843
			c-0.175,2.669-0.357,5.346-0.7,7.999c-0.158,1.221-0.356,2.437-0.683,3.626c-0.222,0.808-0.508,1.61-0.599,2.447
			c-0.326,2.997,1.325,6.482,3.144,8.759c2.204,2.759,6.063,3.789,7.561,7.139c0.563,1.261,0.82,2.669,0.752,4.047
			c-0.087,1.787-0.86,3.319-1.624,4.905c-1.224,2.541-1.471,5.044-0.11,7.603c1.701,3.2,5.188,5.021,8.525,6.041
			c2.549,0.78,5.211,1.145,7.857,1.406c2.996,0.296,6.003,0.557,9.009,0.736c2.803,0.167,5.591,0.013,8.394-0.072
			c2.618-0.079,5.306-0.066,7.891-0.525c1.182-0.21,2.509-0.483,3.014-1.709c0.332-0.806,0.336-1.756,0.207-2.605
			c-0.461-3.04-3.02-4.928-5.413-6.536c-3.93-2.643-8.298-5.216-10.411-9.671c-0.875-1.844-0.966-3.782-1.14-5.787
			c-0.15-1.731-0.538-3.331-1.355-4.872c-0.966-1.823-2.316-3.467-3.885-4.803c-1.608-1.368-3.422-2.436-4.668-4.18
			c-1.275-1.785-1.956-3.943-2.508-6.043c-0.711-2.708-1.171-5.482-1.54-8.255c-0.76-5.709-1.109-11.485-1.169-17.242
			c-0.061-5.781,0.301-11.531,1.238-17.239c0.242-1.475,0.372-3.122,0.82-4.544c0.418-1.328,1.209-2.583,1.768-3.864
			c0.949-2.173,1.594-4.409,1.855-6.769c0.633-5.737,0.118-11.57,0.325-17.33c0.192-5.364,1.071-10.67,2.253-15.898
			c1.345-5.949,2.776-11.875,3.798-17.889c0.834-4.908,1.273-10.54,3.907-14.898c2.28-3.772,6.675-4.913,10.012-7.463
			c4.375-3.343,6.933-8.71,10.032-13.128c3.213-4.581,6.788-8.917,10.609-13.003c3.916-4.187,8.184-7.993,12.726-11.487
			c4.666-3.589,9.524-6.923,14.23-10.46c4.613-3.467,9.024-7.163,13.071-11.282c4.218-4.293,8.116-8.888,12.323-13.192
			c3.968-4.059,8.207-7.838,12.515-11.53c2.362-2.025,4.695-4.099,7.141-6.024c1.463-1.151,3.044-2.361,4.836-2.948
			c3.079-1.008,5.402,1.507,7.575,3.314c1.867,1.554,3.84,3.102,6.034,4.172c1.524,0.744,3.296,0.793,4.782,1.572
			c1.338,0.7,2.129,2.218,2.972,3.389c1.531,2.129,3.468,3.82,5.576,5.363c4.682,3.427,9.69,6.446,14.497,9.697
			c2.019,1.365,3.986,2.346,6.292,3.111c1.334,0.442,2.48,1.03,3.533,1.966c1.878,1.669,3.282,3.788,5.106,5.506
			c0.669,0.63,1.412,1.141,2.293,1.421c1.658,0.526,3.52,0.428,5.23,0.332c2.593-0.146,5.196-0.507,7.724-1.108
			C630.277,381.116,633.266,380.408,634.171,378.097z"/>
	</g>
</g>
</svg>
