<?xml version="1.0" encoding="utf-8"?>
<!-- Generator: Adobe Illustrator 23.0.2, SVG Export Plug-In . SVG Version: 6.00 Build 0)  -->
<!DOCTYPE svg PUBLIC "-//W3C//DTD SVG 1.1//EN" "http://www.w3.org/Graphics/SVG/1.1/DTD/svg11.dtd" [
	<!ENTITY ns_extend "http://ns.adobe.com/Extensibility/1.0/">
	<!ENTITY ns_ai "http://ns.adobe.com/AdobeIllustrator/10.0/">
	<!ENTITY ns_graphs "http://ns.adobe.com/Graphs/1.0/">
	<!ENTITY ns_vars "http://ns.adobe.com/Variables/1.0/">
	<!ENTITY ns_imrep "http://ns.adobe.com/ImageReplacement/1.0/">
	<!ENTITY ns_sfw "http://ns.adobe.com/SaveForWeb/1.0/">
	<!ENTITY ns_custom "http://ns.adobe.com/GenericCustomNamespace/1.0/">
	<!ENTITY ns_adobe_xpath "http://ns.adobe.com/XPath/1.0/">
]>
<svg version="1.1" xmlns:x="&ns_extend;" xmlns:i="&ns_ai;" xmlns:graph="&ns_graphs;"
	 xmlns="http://www.w3.org/2000/svg" xmlns:xlink="http://www.w3.org/1999/xlink" x="0px" y="0px" viewBox="0 0 750 750"
	 enable-background="new 0 0 750 750" xml:space="preserve">
<metadata>
	<sfw  xmlns="&ns_sfw;">
		<slices></slices>
		<sliceSourceBounds  bottomLeftOrigin="true" height="3954.728" width="8619.365" x="-5703.366" y="-1156.906">
			</sliceSourceBounds>
	</sfw>
</metadata>
<g id="FILL-BACKGROUND">
	<rect fill="#FFFFFF" width="750" height="750"/>
</g>
<g id="N-DIMENSIONS">
</g>
<g id="N-TEXT">
</g>
<g id="AG-GUIDE">
</g>
<g id="AG-DIAGRAM">
	<g>
		<g>
			
				<line fill="none" stroke="#FF6B6B" stroke-width="3.25" stroke-linecap="round" stroke-linejoin="round" x1="93.75" y1="612.239" x2="95.75" y2="612.239"/>
			
				<line fill="none" stroke="#FF6B6B" stroke-width="3.25" stroke-linecap="round" stroke-linejoin="round" stroke-dasharray="3.9775,6.9607" x1="102.711" y1="612.239" x2="668.02" y2="612.239"/>
			
				<line fill="none" stroke="#FF6B6B" stroke-width="3.25" stroke-linecap="round" stroke-linejoin="round" x1="671.5" y1="612.239" x2="673.5" y2="612.239"/>
		</g>
	</g>
</g>
<g id="AG-HUMANS">
	<g id="POLYLINE_1921_">
		
			<path fill="none" stroke="#FF6B6B" stroke-width="2.5" stroke-linecap="round" stroke-linejoin="round" stroke-miterlimit="10" d="
			M291.658,272.525c-1.206-5.073,0.369-11.173,4.527-14.541c1.018-0.824,2.193-1.147,3.448-1.43c1.977-0.447,4.013-0.895,5.84-1.804
			c2.406-1.198,1.967-2.624,1.89-5.079c-0.048-1.52,0.373-2.91,0.408-4.398c0.018-0.79-0.378-1.003-0.733-1.674
			c-0.657-1.241,0.243-1.644,0.738-2.704c0.624-1.338-0.513-3.031,1.292-3.547c1.122-0.321,3.881-0.352,3.657-2.186
			c-0.047-0.38-0.283-0.755-0.455-1.084c-0.603-1.155-1.243-2.311-1.921-3.424c-0.756-1.242-1.743-2.426-2.197-3.83
			c-0.616-1.904-0.259-4.117-0.265-6.07c-0.009-2.608-0.215-5.275-0.753-7.83c-0.179-0.851-0.433-1.677-0.708-2.501"/>
	</g>
	<g id="POLYLINE_1920_">
		
			<path fill="none" stroke="#FF6B6B" stroke-width="2.5" stroke-linecap="round" stroke-linejoin="round" stroke-miterlimit="10" d="
			M265.967,245.393c0.881,2.171,0.626,4.703,0.429,6.976"/>
	</g>
	<g id="POLYLINE_1919_">
		
			<path fill="none" stroke="#FF6B6B" stroke-width="2.5" stroke-linecap="round" stroke-linejoin="round" stroke-miterlimit="10" d="
			M272.244,232.308c-0.062,2.225-0.123,4.481-0.263,6.701c-0.056,0.887-0.136,1.818-0.428,2.665
			c-0.555,1.612-1.899,1.771-3.129,2.748c-0.491,0.39-0.788,0.864-1.425,1.005c-0.957,0.212-2.067-0.29-2.985-0.446
			c-0.745-0.127-1.605-0.014-2.282-0.397c-0.803-0.453-1.316-1.524-1.763-2.276c-3.05-5.134-7.88-9.467-7.561-15.944
			c0.063-1.278,0.45-2.66,0.211-3.942c-0.159-0.851-0.72-1.47-1.113-2.221c-0.579-1.105-0.905-2.691-0.358-3.875
			c0.809-1.751,4.671-2.62,3.409-5.123c-0.178-0.354-1.372-1.555-1.217-1.741c0.161-0.194,2.271,0.794,2.78,0.838
			c1.041,0.09,1.438-0.486,1.535-1.453c0.066-0.657-0.1-1.43,0.382-1.968c0.479-0.534,1.333-0.551,1.885-0.992
			c1.186-0.946,0.699-2.735,1.597-3.842c0.89-1.097,2.564-0.597,3.644-1.336c1.024-0.701,0.71-2.283,1.538-3.22
			c0.413-0.468,0.945-0.797,1.545-0.965c0.609-0.171,1.533-0.007,2.041-0.462c0.839-0.751-0.165-2.516,1.153-2.841
			c1.653-0.409,3.484,1.276,5.19,1.281c2.129,0.006,4.052-1.429,6.217-1.575c1.128-0.076,2.292,0.03,3.339,0.479
			c0.921,0.395,1.652,1.199,2.584,1.535c1.373,0.495,2.278-1.205,3.28-1.908c0.255-0.179,1.033-0.813,1.368-0.504
			c0.431,0.398-0.426,1.749-0.381,2.202c0.081,0.821,2,1.444,2.801,1.141c1.084-0.41,1.081-3.17,2.056-3.102
			c1.1,0.077,1.413,3.658,1.719,4.296c0.374,0.778,1.157,1.315,1.695,1.98c0.754,0.931,1.327,2.006,1.649,3.162
			c0.508,1.824,0.329,2.982,1.77,4.34c0.699,0.659,2.464,2.439,1.851,3.601c-0.269,0.51-0.624,0.084-0.991-0.22
			c-1.722-1.425-3.195-3.154-4.924-4.569c-2.163-1.77-5.81-2.256-8.505-2.397c-1.46-0.076-3.121,0.011-4.102,1.244
			c-0.906,1.139-1.466,3.202-1.305,4.623c0.189,1.657,1.765,2.924,2.997,3.866c1.296,0.991,3.243,2.084,3.449,3.929
			c0.145,1.297-0.916,2.082-1.935,2.633c-1.689,0.913-1.784,1.993-2.102,3.878c-0.204,1.209-0.685,2.403-0.728,3.631
			c-0.039,1.125,0.333,2.229,0.14,3.357c-0.674,3.941-6.246-2.569-7.129-3.171c-1.348-0.918-2.956-1.502-4.564-1.749"/>
	</g>
	<g id="POLYLINE_1918_">
		
			<path fill="none" stroke="#FF6B6B" stroke-width="2.5" stroke-linecap="round" stroke-linejoin="round" stroke-miterlimit="10" d="
			M278.104,226.016c-1.927-1.659-5.485-1.768-6.334,1.067c-1.178,3.932,1.565,8.714,5.232,10.116
			c2.032,0.777,3.898,0.751,5.577-0.662"/>
	</g>
	<g id="POLYLINE_1917_">
		
			<path fill="none" stroke="#FF6B6B" stroke-width="2.5" stroke-linecap="round" stroke-linejoin="round" stroke-miterlimit="10" d="
			M229.306,309.352c0.165,6.218,2.575,11.807,3.433,17.899c0.274,1.943,0.494,3.889,0.658,5.844"/>
	</g>
	<g id="POLYLINE_1916_">
		
			<path fill="none" stroke="#FF6B6B" stroke-width="2.5" stroke-linecap="round" stroke-linejoin="round" stroke-miterlimit="10" d="
			M233.425,350.382c-0.731,1.398-1.581,2.838-1.876,4.412c-0.321,1.711,0.074,3.466,0.168,5.177
			c0.094,1.708-0.248,3.292-0.553,4.967c-0.325,1.783-0.221,3.434-0.14,5.241c0.146,3.251-1.185,5.855-1.988,8.94
			c-0.308,1.186-0.676,3.37,0.637,4.129c0.699,0.404,1.737,0.238,2.488,0.209c2.923-0.11,5.849-0.126,8.772-0.255
			c5.705-0.251,10.992-1.53,16.46-3.088c3.096-0.882,6.342-1.807,9.551-1.002c2.316,0.581,4.553,1.607,6.774,2.462
			c1.587,0.611,3.236,1.22,4.651,2.184c0.698,0.476,1.321,1.046,1.841,1.712c0.546,0.7,0.878,1.649,1.569,2.221
			c0.547,0.453,1.263,0.477,1.898,0.752c0.756,0.328,1.41,0.871,1.98,1.459c0.304,0.314,0.586,0.65,0.839,1.006"/>
	</g>
	<g id="POLYLINE_1915_">
		
			<path fill="none" stroke="#FF6B6B" stroke-width="2.5" stroke-linecap="round" stroke-linejoin="round" stroke-miterlimit="10" d="
			M282.939,388.206c-0.112-0.867-0.077-1.62,0.409-2.354c0.839-1.267,1.332-1.631,1.324-3.207c-0.01-1.849,0.672-3.256,1.077-5.041
			c0.589-2.589,0.676-5.341,1.096-7.97c0.352-2.207,0.001-4.464,0.474-6.665c0.542-2.519,1.845-4.815,3.132-7.017
			c3.412-5.835,7.754-11.19,9.019-17.971c0.663-3.552,1.073-7.152,2.269-10.58c1.094-3.137,2.655-6.079,4.092-9.065
			c2.898-6.025,4.72-11.904,2.965-18.544c-1.814-6.863-5.237-13.162-9.245-18.965c-1.018-1.474-1.638-3.312-2.78-4.665
			c-0.562-0.666-1.265-1.224-1.951-1.755c-0.725-0.56-1.767-1.556-2.683-1.777c-0.406-0.098-0.438-0.257-0.374,0.168
			c0.108,0.716,1.582,1.771,2.044,2.224c0.53,0.519,1.917,1.459,0.725,1.945c-0.852,0.347-2.037-0.035-2.775-0.479
			c-1.645-0.991-2.741-2.548-4.596-3.236c-3.272-1.213-7.981-0.4-10.203-3.619c-1.79-2.594-2.683-6.084-3.809-8.988
			c-0.843-2.174-1.551-4.761-3.143-6.54c-1.924-2.151-4.516-2.15-6.609-0.436c-1.714,1.403-3.895,1.873-5.831,2.9
			c-2.695,1.428-4.809,3.673-7.235,5.481c-2.604,1.94-5.584,2.902-8.51,4.236c-0.634,0.289-3.653,1.483-3.684,2.414
			c-0.011,0.347,2.656-0.871,3.181-1.064c1.152-0.423,2.329-0.775,3.534-1.013c3.661-0.724,7.55-0.571,11.184,0.234
			c3.658,0.811,9.01,2.561,10.771,6.327c0.866,1.852,0.956,4.104,1.103,6.099c0.26,3.517,0.447,7.144,0.04,10.657
			c-0.358,3.084-1.456,5.947-3.965,7.888c-2.728,2.111-6.366,2.974-9.742,3.235c-2.078,0.161-4.197,0.072-6.23-0.408"/>
	</g>
	<g id="POLYLINE_1914_">
		
			<path fill="none" stroke="#FF6B6B" stroke-width="2.5" stroke-linecap="round" stroke-linejoin="round" stroke-miterlimit="10" d="
			M137.108,561.013c6.984-8.188,14.528-16.007,23.197-22.442c4.747-3.524,9.851-6.578,14.82-9.771
			c4.296-2.76,8.487-5.724,12.583-8.771c4.518-3.361,8.872-6.941,13.42-10.263c4.545-3.32,9.338-5.276,14.635-7.067
			c3.013-1.019,5.995-2.173,8.243-4.498c3.355-3.469,5.265-8.279,7.676-12.392c5.557-9.48,12.973-18.046,20.022-26.436
			c0.844-1.004,1.702-1.997,2.552-2.995"/>
	</g>
	<g id="POLYLINE_1913_">
		
			<path fill="none" stroke="#FF6B6B" stroke-width="2.5" stroke-linecap="round" stroke-linejoin="round" stroke-miterlimit="10" d="
			M126.957,540.932c7.112-5.984,13.806-12.316,20.323-18.943c6.66-6.772,13.011-13.831,19.611-20.658
			c5.833-6.035,12.393-11.011,19.834-14.914c3.348-1.756,7.055-2.701,10.364-4.479c2.758-1.482,5.04-3.861,6.7-6.491
			c2.3-3.642,3.521-7.868,4.656-11.987c1.249-4.528,2.228-9.13,3.51-13.648c0.282-0.993,0.623-1.964,0.961-2.94"/>
	</g>
	<g id="POLYLINE_1912_">
		
			<path fill="none" stroke="#FF6B6B" stroke-width="2.5" stroke-linecap="round" stroke-linejoin="round" stroke-miterlimit="10" d="
			M223.79,414.93c-0.06,0.866-0.098,1.76,0.072,2.617c0.121,0.607,0.414,1.182,0.478,1.8c0.113,1.089-0.539,2.052-0.668,3.113
			c-0.114,0.939,0.193,1.864-0.389,2.674c-0.811,1.13-1.747,1.789-2.364,3.098c-0.815,1.732-1.16,3.843-2.326,5.392
			c-0.77,1.024-1.37,1.619-1.832,2.865c-0.801,2.157-1.49,3.948-2.69,5.899c-0.632,1.028-1.534,2.518-1.435,3.784
			c0.078,0.993,0.708,0.688,1.503,0.529c2.449-0.488,5.053-0.091,7.524-0.035c7.087,0.159,14.059-0.442,21.114-0.949
			c3.238-0.233,6.649-0.476,9.886-0.236c0.854,0.063,1.585,0.237,1.91,1.104c0.154,0.409,0.157,0.884,0.174,1.314
			c0.066,1.64,0.032,3.306-0.021,4.947c-0.028,0.872-0.085,1.738-0.289,2.587c-0.109,0.454-0.45,0.901,0.056,0.929
			c1.052,0.059,2.588-2.934,2.958-3.495c0.975-1.481,2.037-2.901,3.023-4.375c0.378-0.564,0.667-1.423,1.118-1.912
			c1.08-1.171,2.936,0.831,3.913-0.904c0.373-0.662,0.685-1.448,0.973-2.151"/>
	</g>
	<g id="POLYLINE_1721_">
		
			<path fill="none" stroke="#FF6B6B" stroke-width="2.5" stroke-linecap="round" stroke-linejoin="round" stroke-miterlimit="10" d="
			M228.818,380.197c-2.406,1.887-4.587,4.264-5.768,7.122c-1.37,3.314-1.239,7.046-1.219,10.562
			c0.049,8.528-0.045,17.492,6.707,23.665c3.877,3.545,8.619,6.203,13.12,8.861c4.616,2.726,9.319,5.315,14.069,7.8
			c4.959,2.595,10.056,4.875,15.068,7.357c2.785,1.379,5.774,3.892,8.998,4.108c1.158,0.078,2.294-0.24,3.383-0.599
			c1.172-0.386,2.31-0.87,3.482-1.254c0.483-0.158,1.084-0.212,1.522-0.483c0.507-0.314,0.584-0.662,0.619-1.243
			c0.117-1.96-0.046-3.825,0.245-5.794c0.328-2.22,0.671-4.596,1.388-6.729c0.182-0.542,0.402-1.095,0.959-1.34
			c1.215-0.534,2.863,0.551,3.765,1.234c1.781,1.349,3.489,4.356,5.9,4.646c1.685,0.202,2.562-1.723,3.618-2.706
			c1.584-1.474,3.375-2.712,4.898-4.255c1.368-1.387,2.504-2.97,3.581-4.588c1.651-2.48,4.379-5.644,4.597-8.792
			c0.151-2.185-1.655-4.019-3.018-5.488c-2.298-2.477-4.647-4.909-6.969-7.364c-0.991-1.047-1.947-2.153-3.092-3.038
			c-1.734-1.341-3.483-2.564-5.159-3.986c-0.981-0.833-2.001-1.677-3.162-2.253c-2.312-1.146-4.965-0.64-7.158-2.159
			c-1.023-0.708-1.911-1.612-2.696-2.574"/>
	</g>
	<g id="POLYLINE_1720_">
		
			<path fill="none" stroke="#FF6B6B" stroke-width="2.5" stroke-linecap="round" stroke-linejoin="round" stroke-miterlimit="10" d="
			M126.957,540.932c-0.559-0.622-1.865-0.48-2.584-0.487c-2.426-0.022-4.877,0.238-7.26,0.682c-3.688,0.688-6.781,2.378-10.6,1.981
			c-1.76-0.183-4.383-0.922-5.425,1.031c-0.607,1.136-0.661,2.599-0.692,3.855c-0.064,2.596,0.244,5.211,0.687,7.765
			c0.811,4.677,2.181,9.384,4.609,13.493c1.566,2.65,3.548,4.104,3.698,7.331c0.235,5.05-0.492,9.813,0.878,14.781
			c1.275,4.625,3.346,9.247,6.139,13.158c2.024,2.834,4.876,5.898,8.156,7.274c1.267,0.531,2.822,0.688,3.944-0.242
			c1.26-1.045,1.378-2.974,1.405-4.482c0.098-5.475-1.594-10.831-1.471-16.311c0.106-4.739,1.465-9.822,3.772-13.964
			c1.853-3.326,5.076-5.239,7.344-8.195c1.487-1.938,1.715-4.424,0.712-6.654c-0.501-1.114-1.228-1.859-2.46-1.331
			c-2.067,0.884-3.288,2.563-5.735,1.962c-2.466-0.606-4.854-2.501-6.296-4.529c-1.653-2.326-1.845-5.193-1.375-7.93
			c0.294-1.709,0.871-3.305,1.662-4.842c0.477-0.927,1.245-2.015,1.267-3.118C127.34,541.728,127.249,541.264,126.957,540.932z"/>
	</g>
	<g id="POLYLINE_1719_">
		
			<path fill="none" stroke="#FF6B6B" stroke-width="2.5" stroke-linecap="round" stroke-linejoin="round" stroke-miterlimit="10" d="
			M330.63,575.537c-1.71,0.652-2.545,2.475-2.957,4.145c-0.661,2.675-1.019,4.662-3.647,6.056
			c-2.976,1.579-6.924,2.253-10.263,1.828c-2.551-0.324-3.716-1.735-5.196-3.649c-3.119-4.032-6.02,4.66-6.272,6.73
			c-0.269,2.21-0.085,4.45-0.333,6.666c-0.248,2.213-0.655,4.464-1.399,6.569c-0.471,1.334-1.565,3.11-0.766,4.574
			c0.251,0.459,0.621,0.677,1.082,0.89c1.946,0.899,4.206,1.476,6.313,1.856c5.601,1.01,11.476,0.809,17.139,0.975
			c5.313,0.156,10.608,0.121,15.923,0.023c5.775-0.106,11.617-0.049,17.363-0.712c4.952-0.572,9.701-2.252,14.032-4.714
			c1.661-0.944,3.821-2.219,4.168-4.291c0.305-1.819-0.448-4.315-1.73-5.63c-1.43-1.467-3.769-1.163-5.62-1.112
			c-5.212,0.144-10.303,0.042-15.15-2.115c-3.637-1.619-7.026-4.033-9.555-7.125c-2.5-3.057-3.77-7.077-6.544-9.892
			c-1.172-1.19-2.587-1.601-4.244-1.522C332.181,575.125,331.375,575.254,330.63,575.537z"/>
	</g>
	<g id="POLYLINE_1718_">
		
			<path fill="none" stroke="#FF6B6B" stroke-width="2.5" stroke-linecap="round" stroke-linejoin="round" stroke-miterlimit="10" d="
			M298.517,341.769c4.566-2.047,9.161-4.858,14.048-6.042c4.809-1.165,9.72-1.34,14.444-2.961c1.731-0.594,4.406-1.436,5.137-3.372
			c0.371-0.983,0.149-2.09,0.082-3.101c-0.092-1.375,0.077-2.674,0.341-4.022c0.726-3.71,0.668-7.532-0.51-11.146
			c-0.5-1.536-1.122-2.946-2.7-3.549c-1.941-0.743-4.251-0.486-6.197,0.118c-1.971,0.612-3.802,1.604-5.79,2.17
			c-1.421,0.404-2.936,0.613-4.247,1.334c-1.921,1.057-3.142,3.021-4.117,4.914c-0.921,1.788-1.411,3.868-2.436,5.582
			c-0.301,0.502-0.687,0.856-1.198,1.139c-0.639,0.354-1.38,0.55-2.077,0.75"/>
	</g>
	<g id="POLYLINE_1717_">
		
			<path fill="none" stroke="#FF6B6B" stroke-width="2.5" stroke-linecap="round" stroke-linejoin="round" stroke-miterlimit="10" d="
			M248.012,300.657c-1.781,1.104-3.771,1.803-5.703,2.59c-2.377,0.968-4.664,2.138-6.964,3.274
			c-4.284,2.116-8.592,4.077-13.254,5.211c-2.107,0.512-4.169,0.786-6.333,0.809"/>
	</g>
	<g id="POLYLINE_1716_">
		
			<path fill="none" stroke="#FF6B6B" stroke-width="2.5" stroke-linecap="round" stroke-linejoin="round" stroke-miterlimit="10" d="
			M280.749,449.656c4.212,2.446,8.398,4.942,12.663,7.295c4.758,2.625,9.625,5.125,14.223,8.03c1.797,1.136,3.521,2.371,5.18,3.701
			c1.08,0.865,2.131,1.767,3.217,2.625c0.195,0.154,0.921,0.529,1.022,0.764c0.17,0.397-0.311,1.363-0.447,1.833
			c-1.356,4.701-2.442,9.481-3.429,14.271c-1.968,9.556-3.523,19.088-3.249,28.875c0.302,10.771,0.608,21.516,0.46,32.294
			c-0.135,9.813-0.567,19.622-2.161,29.319c-0.234,1.423-0.478,2.844-0.716,4.266"/>
	</g>
	<g id="POLYLINE_1715_">
		
			<path fill="none" stroke="#FF6B6B" stroke-width="2.5" stroke-linecap="round" stroke-linejoin="round" stroke-miterlimit="10" d="
			M330.63,575.537c-0.917-6.071-0.601-12.071-0.118-18.174c0.476-6.017,1.203-12.037,2.342-17.967
			c2.334-12.15,6.837-23.827,7.966-36.209c0.515-5.651,0.381-11.338,1.592-16.909c1.133-5.211,3.185-9.849,5.673-14.534
			c1.795-3.381,2.673-6.896,2.197-10.746c-0.553-4.478-3.498-8.436-5.828-12.155c-6.644-10.608-14.468-20.389-23.505-29.059
			c-1.072-1.028-2.164-2.033-3.259-3.035"/>
	</g>
	<g id="POLYLINE_1714_">
		
			<path fill="none" stroke="#FF6B6B" stroke-width="2.5" stroke-linecap="round" stroke-linejoin="round" stroke-miterlimit="10" d="
			M215.758,312.541c3.127,5.009,6.756,9.84,10.622,14.303c3.742,4.321,8.379,7.149,13.138,10.224
			c2.588,1.673,5.149,3.358,7.656,5.151c1.259,0.9,2.527,1.855,3.986,2.412c2.594,0.991,5.382,0.267,7.967-0.382
			c4.273-1.071,8.505-0.986,12.713,0.405c2.62,0.866,6.668,2.275,7.97,5.04c1.869,3.967,2.04,8.962,1.632,13.247
			c-0.145,1.52-0.398,3.05-1.034,4.448c-0.495,1.087-1.068,2.529-1.963,3.356c-1.531,1.415-4.433,1.578-6.27,0.893
			c-1.95-0.727-3.658-2.027-5.496-2.981c-1.824-0.946-3.714-1.406-5.709-1.859c-4.714-1.07-8.89-2.944-12.345-6.378
			c-1.683-1.673-3.247-3.451-5.181-4.843c-1.96-1.411-4.148-2.473-6.324-3.502c-5.662-2.676-11.501-4.989-17.039-7.925
			c-5.169-2.741-9.79-6.187-14.365-9.807c-4.999-3.956-10.01-7.749-15.332-11.261c-2.047-1.351-3.168-2.761-2.924-5.308
			c0.365-3.808,2.243-7.834,4.457-10.902c3.168-4.39,8.099-7.461,12.306-10.742c2.203-1.719,4.241-3.625,6.385-5.414
			c2.232-1.863,4.65-3.489,7.096-5.057c5.108-3.274,10.198-6.22,14.451-10.606c2.03-2.093,4.058-4.149,6.153-6.175"/>
	</g>
	<g id="POLYLINE_1691_">
		
			<path fill="none" stroke="#FF6B6B" stroke-width="2.5" stroke-linecap="round" stroke-linejoin="round" stroke-miterlimit="10" d="
			M555.309,259.179c-5.202,2.168-10.745,3.438-15.549,6.482c-1.987,1.259-3.902,2.516-6.149,3.259
			c-2.705,0.894-5.536,1.354-8.288,2.075c-5.643,1.479-11.09,3.692-16.433,6.012c-5.281,2.293-10.602,4.724-15.531,7.713
			c-2.693,1.633-6.414,3.818-7.624,6.965c-0.89,2.315,0.758,4.354,2.257,5.97c1.949,2.104,4.011,4.032,5.825,6.263
			c1.73,2.128,3.525,4.127,5.553,5.976c3.983,3.631,8.31,6.925,12.674,10.081c5.257,3.802,10.576,7.525,15.755,11.433
			c2.285,1.724,4.541,3.493,6.687,5.389c1.971,1.742,3.685,3.715,5.595,5.514c2.12,1.997,4.728,3.903,7.676,4.37
			c2.599,0.411,4.6-0.155,7.036-1.136c3.066-1.235,6.175-2.3,7.997-5.232c1.958-3.152,2.723-7.331,2.738-10.993
			c0.009-2.172-0.271-4.002-2.313-5.072c-3.22-1.688-7.04-2.24-10.601-1.652c-2.146,0.354-4.337,0.892-6.34,1.755
			c-1.284,0.553-2.262,0.847-3.685,0.688c-3.78-0.423-6.056-3.608-8.9-5.771c-4.366-3.322-8.523-6.512-12.165-10.655
			c-3.186-3.625-6.804-7.68-8.61-12.221c-0.479-1.205-0.619-2.477-1.012-3.704c6.094-0.671,12.095-1.802,17.994-3.475
			c6.936-1.967,13.833-4.067,20.929-5.387c3.86-0.718,7.743-1.273,11.641-1.73"/>
	</g>
	<g id="POLYLINE_1690_">
		
			<path fill="none" stroke="#FF6B6B" stroke-width="2.5" stroke-linecap="round" stroke-linejoin="round" stroke-miterlimit="10" d="
			M560.464,256.679c-0.008-1.935,0.202-3.979,0.964-5.775c0.961-2.267,1.809-4.028,2.06-6.537c0.179-1.781,0.179-3.606-0.115-5.374"
			/>
	</g>
	<g id="POLYLINE_1689_">
		
			<path fill="none" stroke="#FF6B6B" stroke-width="2.5" stroke-linecap="round" stroke-linejoin="round" stroke-miterlimit="10" d="
			M558.477,212.485c-4.616-0.58-10.348-0.736-13.716,3.044c-1.033,1.16-1.767,2.551-2.167,4.05
			c-0.464,1.741-0.499,3.553-0.732,5.331c-0.27,2.059-0.821,4.06-1.382,6.055c-1.117,3.971-2.353,7.824-5.038,11.042
			c-2.969,3.557-6.535,6.643-9.699,10.031c-3.258,3.487-6.737,6.469-11.765,6.384c-2.826-0.047-5.225-1.53-7.823-2.459
			c-3.151-1.126-6.771-1.401-10.072-0.912c-0.288,0.043-0.579,0.066-0.807,0.223c0.108,0.152,0.505,0.149,0.659,0.179
			c0.88,0.172,1.782,0.228,2.666,0.385c1.025,0.181,2.037,0.441,3.007,0.822c2.569,1.01,4.516,2.936,6.762,4.475
			c2.547,1.746,5.321,2.426,8.307,1.399c2.47-0.85,4.649-2.49,6.7-4.06c1.067-0.817,2.286-2.181,3.552-2.705
			c0.527-0.218,0.509-0.228,0.328,0.32c-0.434,1.314-1.831,2.697-2.64,3.783c-1.081,1.453-2.189,2.888-3.358,4.272
			c-1.205,1.428-2.605,3.272-4.398,4.026c-1.2,0.504-2.448,0.226-3.6-0.277c-2.652-1.158-4.843-3.165-7.477-4.376
			c-2.619-1.205-5.62-1.505-8.38-0.59c-0.982,0.325-2.943,1.041-3.461,2.027c-0.281,0.536,0.112,0.307,0.56,0.163
			c1.24-0.398,2.416-0.946,3.699-1.204c1.304-0.262,2.715-0.308,3.967,0.203c1.46,0.595,2.316,1.935,3.308,3.086
			c0.997,1.157,2.061,1.923,3.536,2.384c0.916,0.286,3.556,0.564,1.678,1.522c-0.972,0.496-3.817,0.795-4.241,2.078
			c-0.374,1.133,1.572,2.131,2.143,2.726c0.289,0.302,0.477,0.553,0.563,0.978"/>
	</g>
	<g id="POLYLINE_1688_">
		
			<path fill="none" stroke="#FF6B6B" stroke-width="2.5" stroke-linecap="round" stroke-linejoin="round" stroke-miterlimit="10" d="
			M528.523,377.522c-2.436,2.347-4.763,4.792-6.479,7.73c-1.642,2.812-2.668,5.93-3.414,9.087
			c-1.603,6.785-2.617,14.722-0.523,21.508c1.442,4.673,4.039,8.221,8.366,10.524c6.483,3.449,13.849,4.949,19.56,9.797
			c5.669,4.812,9.081,11.614,14.144,16.982c5.478,5.809,12.05,10.568,18.088,15.758c3.244,2.788,6.48,5.591,9.641,8.474
			c2.591,2.363,5.464,4.713,7.561,7.547c2.585,3.495,0.069,7.136-0.843,10.789c-1.834,7.345-2.665,15.277-2.684,22.84
			c-0.019,7.533,2.281,14.808,3.071,22.27c0.409,3.871,0.618,7.759,0.561,11.652c-0.029,1.957-0.181,3.905-0.244,5.859
			c-0.015,0.449-0.079,1.002,0.164,1.409c0.752,1.266,3.718,1.029,4.855,1.109c3.457,0.244,6.975,0.24,10.412-0.249
			c1.074-0.153,3.5-0.301,4.134-1.483c0.294-0.549,0.031-1.221-0.034-1.796c-0.178-1.569-0.122-3.175-0.059-4.748
			c0.341-8.413,2.127-16.775,3.512-25.057c1.281-7.663,1.887-15.446,3.318-23.081c0.703-3.751,2.079-7.373,3.345-10.963
			c1.114-3.161,2.729-6.291,3.552-9.535c0.583-2.297,0.535-4.857-0.017-7.155c-0.571-2.376-1.958-4.296-3.365-6.251
			c-2.286-3.176-3.716-6.628-5.288-10.194c-1.475-3.345-3.096-6.625-4.725-9.897c-1.949-3.914-3.781-7.924-6.007-11.692
			c-1.917-3.244-4.209-6.247-6.598-9.155c-5.268-6.414-10.857-12.603-16.531-18.658c-2.549-2.721-5.148-5.281-8.079-7.591
			c1.3-0.849,2.308-2.167,1.57-3.695c-0.925-1.914-2.706-3.569-4.102-5.136c-1.786-2.003-3.183-3.913-4.566-6.195
			c-1.67-2.758-4.124-4.056-7.2-4.906c-6.302-1.743-13.051-2.463-19.499-3.461c-3.147-0.487-6.317-0.93-9.496-1.137
			c-1.629-0.106-3.788,0.108-5.325-0.664c-1.484-0.746-1.201-2.553-0.504-3.78c0.74-1.301,2.01-2.068,3.278-2.778
			c0.992-0.555,2.544-1.171,3.103-2.28c0.392-0.776,0.088-1.594,0.163-2.414c0.077-0.853,0.597-1.145,1.347-1.444
			c1.207-0.481,2.275-0.797,3.03-1.908c0.487-0.716,0.798-1.549,1.124-2.345c0.541-1.32,1.214-2.584,1.741-3.907
			c0.519-1.304,0.403-2.437,0.516-3.81c0.119-1.457,0.924-2.637,1.705-3.829c0.686-1.046,1.23-2.128,1.794-3.243"/>
	</g>
	<g id="POLYLINE_1687_">
		
			<path fill="none" stroke="#FF6B6B" stroke-width="2.5" stroke-linecap="round" stroke-linejoin="round" stroke-miterlimit="10" d="
			M542.596,290.432c0.184,3.274,0.776,6.517,1.63,9.682c0.788,2.92,2.276,5.59,3.052,8.497c0.406,1.522,0.113,2.935,0.142,4.485
			c0.023,1.261,0.786,2.268,0.99,3.485c0.382,2.283-0.304,4.749-0.223,7.077"/>
	</g>
	<g id="POLYLINE_1686_">
		
			<path fill="none" stroke="#FF6B6B" stroke-width="2.5" stroke-linecap="round" stroke-linejoin="round" stroke-miterlimit="10" d="
			M592.619,360.136c2.139-0.618,3.732-1.507,5.532-2.859c2.952-2.215,5.721-4.708,8.298-7.349c5.172-5.301,8.95-11.409,12.4-17.916
			c1.685-3.178,3.369-6.326,5.493-9.237c2.143-2.937,3.982-5.755,5.656-8.98c2.148-4.136,6.579-7.714,6.448-12.726
			c-0.048-1.841-0.793-3.489-1.566-5.13c-1.072-2.277-2.156-4.498-3.964-6.263c-1.121-1.094-1.902-2.392-3.202-3.318
			c-1.14-0.812-2.38-1.388-3.77-1.607c-2.746-0.432-7.819-0.269-9.547,2.489c-0.673,1.074-0.572,2.409-0.479,3.614
			c0.271,3.525,0.418,7.107,1.466,10.509c0.768,2.493,2.316,4.959,2.478,7.607c0.118,1.933-0.854,3.803-1.726,5.46
			c-3.073,5.834-7.273,11.769-12.699,15.626c-1.497,1.064-3.091,1.97-4.69,2.868"/>
	</g>
	<g id="POLYLINE_1685_">
		
			<path fill="none" stroke="#FF6B6B" stroke-width="2.5" stroke-linecap="round" stroke-linejoin="round" stroke-miterlimit="10" d="
			M563.016,211.115c0.501-2.94,2.001-5.181,3.937-7.454c2.635-3.095,5.85-5.478,9.77-6.654c1.974-0.592,4.009-0.833,6.044-1.112
			c2.041-0.279,4.059-0.74,6.11-0.943c3.113-0.308,6.104,0.303,8.948,1.598c3.547,1.615,6.695,4.132,9.243,7.066
			c1.713,1.972,4.015,4.898,4.463,7.573c0.117,0.697-0.02,0.697-0.609,0.34c-0.659-0.399-1.228-0.86-1.951-1.151
			c-1.577-0.635-3.362-0.364-4.876,0.357c-1.419,0.675-1.267,1.998-2.135,3.143c-0.818,1.078-2.461,1.219-2.707,2.7
			c-0.27,1.623-0.315,2.729-1.972,3.556c-1.403,0.701-3.572,0.34-4.616,1.643c-0.468,0.585-0.603,1.365-1.095,1.946
			c-0.637,0.752-1.533,1.239-2.193,1.973c-0.373,0.415-1.053,2.105-1.423,2.209c-0.441,0.123-0.399-1.903-0.487-2.361
			c-0.315-1.631-1.661-2.145-2.709-3.295c-1.089-1.195-2.054-2.169-3.769-2.171c-3.604-0.005-3.918,4.823-3.156,7.478
			c0.832,2.897,4.417,7.179,7.879,6.334c0.659-0.161,1.016-0.557,1.313-1.152"/>
	</g>
	<g id="POLYLINE_1684_">
		
			<path fill="none" stroke="#FF6B6B" stroke-width="2.5" stroke-linecap="round" stroke-linejoin="round" stroke-miterlimit="10" d="
			M587.365,270.715c2.818,3.406,4.906,7.304,7.508,10.871c2.517,3.45,5.136,7.093,6.457,11.205c0.295,0.919,0.869,2.725-0.165,3.418
			c-1.127,0.755-3.211-0.274-4.219-0.836c-2.704-1.506-4.64-4.285-6.398-6.741c-2.779-3.883-5.4-7.932-7.568-12.192
			c-3.31-6.503-4.666-14.858-11.589-18.679c-4.471-2.467-10.352-1.879-14.793,0.345c-0.325,0.163-1.614,0.686-1.221,1.105
			c0.309,0.329,1.604-0.067,1.96-0.154c2.847-0.695,5.544-1.657,8.527-1.291c4.299,0.528,7.306,4.242,8.405,8.186
			c1.178,4.227,1.938,8.81,2.111,13.197c0.081,2.061-0.002,4.197-0.849,6.11c-1.011,2.284-2.964,4.143-4.854,5.702
			c-2.238,1.846-4.789,3.324-7.654,3.898c-3.911,0.783-8.103,0.192-11.97-0.58c-2.608-0.521-5.239-1.209-7.349-2.895
			c-0.302-0.242-0.942-0.618-1.107-0.952c-0.204-0.415-0.136-1.258-0.168-1.717c-0.07-1.002-0.086-2.005-0.054-3.009"/>
	</g>
	<g id="POLYLINE_1683_">
		
			<path fill="none" stroke="#FF6B6B" stroke-width="2.5" stroke-linecap="round" stroke-linejoin="round" stroke-miterlimit="10" d="
			M579.185,402.214c2.519-0.781,2.547-3.052,3.394-5.206c0.472-1.2,1.577-1.981,2.124-3.147c0.978-2.082,1.024-4.497,1.666-6.684
			c0.3-1.023,1.032-1.833,1.302-2.84c0.432-1.609-0.143-3.356,0.317-4.974c0.332-1.168,1.282-1.994,1.766-3.09
			c0.968-2.192,0.99-4.796,1.239-7.132c0.68-6.381,2.323-12.757,4.655-18.729c1.062-2.719,2.209-5.424,2.546-8.348
			c0.359-3.114,0.1-6.27,0.587-9.374c0.848-5.407,4.377-9.518,7.098-14.077c1.996-3.344,2.168-6.713,1.645-10.549
			c-0.93-6.812-3.721-12.785-6.825-18.84c-2.921-5.699-5.588-12.111-10.444-16.473c-1.15-1.033-2.967-1.703-3.478-3.192
			c-0.71-2.07-0.544-4.693-0.299-6.822c0.323-2.807,1.377-5.633,3.968-7.092c3.426-1.929,6.825,0.272,10.441,0.259
			c3.067-0.011,2.789-2.194,3.22-4.585c0.176-0.976,0.684-1.348,1.536-1.805c1.062-0.569,1.081-0.797,0.845-1.903
			c-0.156-0.731-0.007-1.212,0.396-1.845c0.598-0.938,1.412-0.72,2.14-1.389c1.167-1.073-0.91-3.926,1.141-4.378
			c1.388-0.306,4.554,0.468,4.201-2.056c-0.042-0.298-0.162-0.546-0.298-0.81c-0.661-1.282-1.453-2.47-2.052-3.795
			c-0.724-1.604-1.32-3.138-0.958-4.911c0.33-1.617,1.233-3.003,1.642-4.584c0.569-2.199,0.504-4.667,0.293-6.906
			c-0.173-1.839-0.689-3.439-1.47-5.108"/>
	</g>
	<g id="POLYLINE_1682_">
		
			<path fill="none" stroke="#FF6B6B" stroke-width="2.5" stroke-linecap="round" stroke-linejoin="round" stroke-miterlimit="10" d="
			M518.459,416.898c0.499,3.895-0.135,7.911-2.007,11.379c-2.675,4.956-7.206,8.768-10.637,13.184
			c-3.492,4.494-6.414,9.453-9.159,14.429c-3.118,5.652-5.962,11.684-9.809,16.898c-3.48,4.717-8.236,7.402-13.487,9.78
			c-5.628,2.548-11.382,4.86-16.55,8.294c-4.946,3.287-8.816,7.306-12.003,12.294c-3.593,5.624-8.17,10.39-12.585,15.377
			c-3.886,4.389-7.895,8.659-12.256,12.583c-0.882,0.794-2.691,1.436-1.676,2.582c2.196,2.479,4.644,4.745,6.88,7.19
			c1.779,1.946,3.511,3.96,4.866,6.231c0.508,0.852,0.73,1.938,1.679,1.071c0.71-0.648,1.253-1.499,1.899-2.211
			c0.914-1.008,1.898-1.948,2.903-2.864c2.271-2.072,4.652-4.028,7.052-5.948c4.917-3.934,10.002-7.539,15.386-10.801
			c2.45-1.484,4.913-2.943,7.19-4.688c2.562-1.963,4.943-4.156,7.396-6.25c4.18-3.569,8.732-6.306,13.776-8.482
			c5.517-2.381,11.617-4.068,16.721-7.304c3.314-2.101,4.716-5.194,6.633-8.529c2.893-5.031,6.967-9.382,11.124-13.391
			c4.559-4.397,9.652-8.204,14.123-12.693c4.294-4.311,8.236-9.047,11.825-13.957c1.773-2.426,3.358-4.959,4.886-7.544"/>
	</g>
	<g id="POLYLINE_1681_">
		
			<path fill="none" stroke="#FF6B6B" stroke-width="2.5" stroke-linecap="round" stroke-linejoin="round" stroke-miterlimit="10" d="
			M410.562,600.165c0.522-3.725-0.913-7.487-0.914-11.219c-0.001-4.474,1.7-8.689,3.699-12.618
			c2.021-3.972,4.624-7.453,7.004-11.193c0.676-1.063,1.245-2.15,0.851-3.411c-0.726-2.328-3.532-3.888-5.195-5.421
			c-1.633-1.505-3.146-3.191-3.868-5.328c-0.465-1.378-0.602-2.883-0.273-4.307c0.235-1.018,0.708-1.959,1.265-2.836
			c0.578-0.909,1.439-1.745,1.773-2.79c0.497-1.552-0.194-3.761-1.236-4.953c-0.779-0.892-1.83-1.021-2.969-0.985
			c-2.277,0.072-4.542,0.312-6.823,0.346c-2.039,0.03-4.084-0.217-6.119-0.123c-1.695,0.078-3.271,0.593-4.489,1.815
			c-1.362,1.367-2.101,3.234-2.351,5.123c-0.54,4.087,0.349,8.371,0.612,12.453c0.314,4.872,0.255,9.689,0,14.56
			c-0.211,4.041-0.236,8.036,0.489,12.031c0.715,3.944,2.072,7.682,3.823,11.28c1.137,2.335,2.412,4.598,3.66,6.874
			c0.763,1.392,1.48,2.851,2.455,4.11c2.125,2.744,5.717,2.075,7.607-0.741C410.1,602.035,410.427,601.113,410.562,600.165z"/>
	</g>
	<g id="POLYLINE_1680_">
		
			<path fill="none" stroke="#FF6B6B" stroke-width="2.5" stroke-linecap="round" stroke-linejoin="round" stroke-miterlimit="10" d="
			M413.538,535.944c1.673-0.424,3.276-1.299,4.488-2.529"/>
	</g>
	<g id="POLYLINE_1679_">
		
			<path fill="none" stroke="#FF6B6B" stroke-width="2.5" stroke-linecap="round" stroke-linejoin="round" stroke-miterlimit="10" d="
			M420.497,560.423c2.779-4.542,6.203-8.632,10.163-12.197"/>
	</g>
	<g id="POLYLINE_1678_">
		
			<path fill="none" stroke="#FF6B6B" stroke-width="2.5" stroke-linecap="round" stroke-linejoin="round" stroke-miterlimit="10" d="
			M593.957,577.981c1.888-5.568,2.586-11.897,2.07-17.758"/>
	</g>
	<g id="POLYLINE_1677_">
		
			<path fill="none" stroke="#FF6B6B" stroke-width="2.5" stroke-linecap="round" stroke-linejoin="round" stroke-miterlimit="10" d="
			M614.608,559.458c0.086,3.449,0.363,6.893,0.679,10.328c0.179,1.94,0.348,4,1.161,5.799c0.354,0.783,0.836,1.492,1.323,2.197"/>
	</g>
	<g id="POLYLINE_1676_">
		
			<path fill="none" stroke="#FF6B6B" stroke-width="2.5" stroke-linecap="round" stroke-linejoin="round" stroke-miterlimit="10" d="
			M558.149,219.279c-0.518-0.366-0.29-1.691-0.254-2.186c0.098-1.356,0.324-2.706,0.506-4.052c0.041-0.299,0.008-1.052,0.237-1.315
			c0.451-0.517,0.878,0.216,1.46,0.075c0.715-0.174,0.62-1.063,1.311-0.575c0.318,0.224,0.232,0.611,0.696,0.587
			c0.32-0.016,0.648-0.59,0.885-0.743c0.282,0.318-0.385,1.788-0.464,2.148c-0.145,0.664-0.25,1.334-0.256,2.015
			c-0.01,1.152,0.478,2.407,0.244,3.54c-0.045,0.218-0.133,0.633-0.369,0.735c-0.411,0.178-0.371-0.167-0.691-0.336
			c-0.76-0.402-0.705,0.459-1.412,0.388c-0.294-0.029-0.441-0.439-0.783-0.477C558.908,219.042,558.501,219.496,558.149,219.279z"/>
	</g>
	<g id="POLYLINE_1675_">
		
			<path fill="none" stroke="#FF6B6B" stroke-width="2.5" stroke-linecap="round" stroke-linejoin="round" stroke-miterlimit="10" d="
			M562.36,219.249c-0.047,3.45-0.865,6.667-1.227,10.073c-0.228,2.144-0.246,4.42,0.31,6.519c0.356,1.345,1.009,2.627,2.246,3.351
			c1.077,0.63,2.55,0.775,3.167,1.994c0.663,1.309,0.15,2.913,0.703,4.236c0.702,1.679,1.502-1.357,1.741-1.857
			c0.998-2.084,2.773-3.696,3.668-5.834c0.773-1.847,0.77-3.811,0.742-5.78c-0.041-2.962,0.051-7.084,3.109-8.678
			c0.331-0.173,0.687-0.301,1.041-0.416"/>
	</g>
	<g id="POLYLINE_1672_">
		
			<path fill="none" stroke="#FF6B6B" stroke-width="2.5" stroke-linecap="round" stroke-linejoin="round" stroke-miterlimit="10" d="
			M562.401,256.333c2.831-2.894,4.678-6.56,5.321-10.558"/>
	</g>
	<g id="POLYLINE_1329_">
		
			<path fill="none" stroke="#FF6B6B" stroke-width="2.5" stroke-linecap="round" stroke-linejoin="round" stroke-miterlimit="10" d="
			M561.006,231.233c-1.576-2.837-3.494-5.806-4.442-8.933c-0.245-0.81-0.672-2.283,0.073-2.965c0.335-0.307,0.896-0.343,1.322-0.356
			"/>
	</g>
	<g id="POLYLINE_1130_">
		
			<path fill="none" stroke="#FF6B6B" stroke-width="2.5" stroke-linecap="round" stroke-linejoin="round" stroke-miterlimit="10" d="
			M591.798,578.068c1.032-0.53,2.649-0.157,3.519,0.541c1.537,1.232,1.595,3.607,2.643,5.192c2.912,4.404,9.008,1.645,12.63-0.151
			c2.473-1.226,4.879-2.747,6.551-4.985c0.788-1.054,1.68-3.114,3.15-1.865c0.628,0.533,1.087,1.314,1.506,2.007
			c1.089,1.803,2.072,3.627,3.35,5.31c2.677,3.523,5.853,6.827,9.31,9.591c3.199,2.557,6.744,3.971,10.736,4.778
			c2.783,0.563,6.411,0.462,8.806,2.234c3.045,2.253,3.13,6.762,0.259,9.198c-2.088,1.771-5.207,2.105-7.802,2.389
			c-4.324,0.473-8.772,0.821-13.123,0.648c-4.186-0.167-8.135-1.251-12.085-2.586c-4.597-1.553-9.159-3.051-13.858-4.275
			c-4.622-1.204-9.33-2.146-13.881-3.609c-1.964-0.632-4.569-1.363-5.637-3.329c-0.825-1.518-0.662-3.497-0.448-5.136
			c0.602-4.615,2.365-8.969,3.481-13.464C591.072,579.874,591.046,578.467,591.798,578.068z"/>
	</g>
</g>
<g id="AG-OUTLINE">
	<g id="POLYLINE_1087_">
		
			<path fill="none" stroke="#FF6B6B" stroke-width="3.25" stroke-linecap="round" stroke-linejoin="round" stroke-miterlimit="10" d="
			M306.424,210.422c0.635-0.225-0.292-2.267-0.491-2.59c-0.624-1.016-1.772-1.56-2.317-2.647c-0.625-1.247-0.482-2.744-1.04-4.046
			c-0.676-1.577-2.004-2.437-2.84-3.843c-0.64-1.076-0.598-2.522-1.178-3.669c-0.805-1.593-1.194-0.311-1.661,0.775
			c-0.326,0.757-0.639,1.545-1.571,1.522c-0.651-0.016-2.162-0.403-2.303-1.069c-0.14-0.661,1.141-2.418-0.056-2.346
			c-1.085,0.065-2.126,1.767-2.923,2.28c-1.03,0.662-1.845-0.195-2.739-0.762c-1.424-0.902-2.953-1.229-4.635-1.084
			c-1.859,0.16-3.406,1.097-5.198,1.467c-1.588,0.328-3.009-0.465-4.491-0.922c-0.635-0.196-1.652-0.572-2.124,0.097
			c-0.538,0.763,0.176,1.993-0.73,2.581c-0.893,0.579-2.092,0.203-3.009,0.93c-0.977,0.773-0.955,1.67-1.345,2.756
			c-0.688,1.912-3.424,0.784-4.416,2.442c-0.615,1.027-0.346,2.462-1.194,3.378c-0.662,0.716-1.914,0.637-2.355,1.567
			c-0.381,0.804,0.141,1.896-0.433,2.64c-0.517,0.67-1.39,0.429-2.085,0.228c-0.327-0.095-1.854-0.862-1.995-0.566
			c-0.073,0.153,0.993,1.209,1.152,1.478c0.304,0.512,0.456,1.004,0.288,1.593c-0.564,1.979-3.303,2.238-3.76,4.266
			c-0.589,2.615,1.814,4.285,1.675,6.81c-0.108,1.967-0.407,3.782-0.008,5.73c0.489,2.39,1.538,4.689,2.918,6.694
			c0.797,1.158,1.769,2.169,2.61,3.291c0.82,1.094,1.421,2.329,2.145,3.485c0.721,1.151,1.255,1.825,2.615,1.972
			c0.817,0.088,2.03,0.093,2.742,0.483c0.484,0.265,0.597,0.819,0.716,1.417c0.191,0.958,0.148,1.956,0.13,2.925
			c-0.01,0.545,0.167,2.387-0.199,2.683c-0.08,0.065-0.444,0-0.562,0.025c-1.303,0.277-1.993,1.105-3.078,1.84
			c-1.854,1.257-4.164,1.704-6.082,2.889c-2.798,1.729-5.009,4.251-7.807,5.986c-2.597,1.61-5.595,2.37-8.27,3.822
			c-0.299,0.163-2.899,1.789-2.215,1.951c-3.4,3.289-6.518,7.003-10.227,9.948c-3.726,2.959-7.976,5.229-11.936,7.85
			c-4.087,2.704-7.577,6.005-11.399,9.042c-3.676,2.921-7.716,5.566-10.987,8.963c-2.381,2.473-4.028,5.531-5.199,8.741
			c-0.722,1.98-1.585,4.513-0.953,6.639c0.685,2.307,3.55,3.491,5.35,4.69c4.235,2.821,8.202,5.986,12.189,9.141
			c3.761,2.976,7.514,5.949,11.642,8.41c4.369,2.605,9.017,4.643,13.646,6.731c0.997,0.45,1.994,0.9,2.992,1.35
			c-1.485,2.84-2.147,4.805-1.844,8.005c0.137,1.444,0.226,2.838,0.009,4.278c-0.236,1.562-0.672,3.084-0.695,4.672
			c-0.043,2.925,0.288,5.365-0.624,8.189c-0.453,1.403-0.816,3.098-1.418,4.436c-0.314,0.697-1.283,1.264-1.867,1.826
			c-0.712,0.686-1.379,1.42-1.981,2.205c-4.109,5.357-3.302,12.612-3.108,18.969c0.071,2.332,0.215,4.669,0.585,6.974
			c0.275,1.711,1.079,3.407,1.303,5.08c0.163,1.22,0.016,2.303,0.359,3.529c0.163,0.582,0.259,1.054,0.153,1.653
			c-0.16,0.9-0.595,1.698-0.649,2.622c-0.042,0.71,0.145,1.456-0.215,2.107c-0.394,0.714-1.205,1.148-1.683,1.819
			c-0.717,1.006-1.163,2.209-1.6,3.353c-0.437,1.144-0.787,2.483-1.53,3.491c-0.407,0.553-0.945,0.955-1.287,1.561
			c-0.772,1.366-1.068,2.974-1.675,4.413c-0.482,1.142-1.192,2.132-1.814,3.198c-0.531,0.91-1.025,1.941-1.163,2.998
			c-0.061,0.467,0.212,0.805,0.222,1.106c0.031,0.946-0.799,2.401-1.06,3.356c-0.266,0.977-0.513,1.96-0.761,2.942
			c-0.715,2.835-1.407,5.675-2.152,8.502c-2.04,7.738-4.606,16.811-12.446,20.578c-1.867,0.897-3.878,1.46-5.784,2.268
			c-2.076,0.88-4.08,1.928-6.045,3.031c-4.102,2.302-8.05,4.918-11.639,7.965c-7.737,6.569-14.259,14.599-21.276,21.905
			c-7.045,7.334-14.209,14.624-21.997,21.176c-0.64,0.539-2.105,2.239-2.853,2.271c-0.091,0.004-0.477-0.244-0.604-0.282
			c-1.323-0.397-3.046-0.142-4.389-0.051c-2.104,0.142-4.209,0.429-6.263,0.909c-1.723,0.403-3.343,1.135-5.059,1.546
			c-2.645,0.634-5.344-0.652-7.922-0.058c-1.331,0.307-1.796,1.482-2.037,2.721c-0.747,3.852,0.023,8.161,0.817,11.943
			c0.834,3.971,2.095,7.914,4.131,11.442c1.187,2.056,3.268,3.687,3.687,6.105c0.682,3.941-0.286,8.041,0.182,12.028
			c0.49,4.17,1.995,8.219,3.829,11.974c1.694,3.467,3.795,6.744,6.654,9.368c1.883,1.728,6.299,5.599,8.88,2.771
			c1.007-1.104,1.095-2.857,1.117-4.266c0.073-4.786-1.202-9.49-1.44-14.258c-0.366-7.305,2.067-15.514,7.484-20.6
			c1.889-1.774,4.425-3.574,4.867-6.331c0.245-1.526-0.066-3.861-1.255-4.985c-0.785-0.742-1.652-0.352-2.459,0.176
			c4.683-5.491,9.563-10.666,14.899-15.532c4.818-4.393,9.959-8.226,15.439-11.747c6.418-4.123,12.817-8.244,18.971-12.758
			c5.766-4.229,11.187-9.007,17.174-12.921c3.009-1.967,6.212-3.342,9.605-4.495c2.838-0.964,5.85-1.766,8.402-3.392
			c4.264-2.717,6.405-7.8,8.766-12.049c3.254-5.856,7.216-11.234,11.384-16.466c2.459-3.086,4.924-6.168,7.421-9.223
			c1.58-1.932,3.409-4.784,5.412-6.106c1.426-0.941,2.257-2.531,3.179-3.927c0.93-1.408,1.966-2.744,2.883-4.16
			c0.327-0.504,0.569-1.291,0.983-1.707c1.097-1.103,2.911,0.876,3.879-0.854c0.372-0.664,0.684-1.446,0.973-2.151
			c2.611,1.219,5.189,2.459,7.717,3.845c1.444,0.791,2.917,1.715,4.53,2.127c0.867,0.221,1.726,0.064,2.508,0.441
			c3.33,1.602,6.471,3.772,9.674,5.618c4.884,2.815,9.923,5.36,14.775,8.233c2.246,1.33,4.411,2.768,6.47,4.373
			c1.233,0.961,2.42,1.979,3.64,2.956c0.275,0.22,0.913,0.534,1.101,0.843c0.321,0.525-0.092,1.259-0.29,1.944
			c-1.582,5.477-2.806,11.064-3.916,16.653c-1.155,5.817-2.213,11.678-2.613,17.603c-0.408,6.04-0.043,12.099,0.156,18.14
			c0.196,5.978,0.198,11.957,0.201,17.937c0.006,11.357-0.331,22.783-2.137,34.013c-0.251,1.562-0.524,3.12-0.786,4.68
			c-2.886-1.197-4.845,5.446-5.123,7.079c-0.595,3.489-0.222,7.028-0.937,10.534c-0.324,1.589-0.783,3.097-1.379,4.602
			c-0.255,0.645-0.524,1.29-0.54,1.993c-0.016,0.726,0.179,1.453,0.773,1.909c0.802,0.617,2.075,0.847,2.988,1.156
			c1.657,0.561,3.361,0.943,5.092,1.19c4.116,0.589,8.32,0.56,12.467,0.682c4.505,0.132,8.999,0.282,13.506,0.215
			c4.649-0.069,9.3-0.12,13.947-0.251c4.143-0.117,8.359-0.215,12.435-1.033c3.845-0.772,7.643-2.35,11.037-4.305
			c1.377-0.793,3.093-1.811,3.777-3.338c0.977-2.185-0.2-6.08-2.369-7.179c-2.198-1.113-5.393-0.392-7.709-0.376
			c-3.914,0.027-7.762-0.372-11.413-1.862c-3.081-1.258-5.981-3.096-8.394-5.392c-2.58-2.454-4.264-5.492-6.046-8.538
			c-1.734-2.964-3.482-5.281-7.174-4.888c-0.619,0.066-1.237,0.188-1.82,0.41c-1.268-8.393-0.385-16.989,0.596-25.378
			c1.02-8.713,2.972-17.131,5.219-25.595c2.14-8.061,4.129-16.08,4.586-24.443c0.426-7.784,1.045-15.24,4.1-22.509
			c1.341-3.191,3.443-6.068,4.518-9.365c0.787-2.414,0.952-5.08,0.587-7.587c-0.406-2.79-1.803-5.184-3.208-7.584
			c-2.177-3.717-4.503-7.357-6.959-10.896c-5.016-7.227-10.671-13.998-16.893-20.219c-1.494-1.494-3.022-2.956-4.581-4.383
			c-0.88-0.806-0.927-1.291-1.471-2.263c-1.77-3.16-5.005-5.79-7.452-8.375c-2.138-2.259-4.096-4.437-6.651-6.208
			c-2.262-1.568-4.114-3.775-6.579-5.041c-1.849-0.95-3.976-0.649-5.864-1.431c-1.832-0.759-3.152-2.26-4.386-3.747
			c-0.441-0.531-0.922-1.03-1.475-1.445c-0.425-0.319-1.368-0.505-1.682-0.836c-0.67-0.705,0.14-2.162,0.63-2.776
			c1.2-1.504,0.777-2.422,1.046-4.307c0.142-0.996,0.587-1.922,0.863-2.882c0.336-1.165,0.457-2.367,0.56-3.572
			c0.144-1.671,0.389-3.241,0.677-4.887c0.257-1.469,0.141-2.964,0.215-4.447c0.116-2.337,0.797-4.46,1.845-6.549
			c2.009-4.004,4.586-7.73,6.913-11.549c0.758-1.245,1.487-2.514,2.08-3.848c0.199-0.448,0.352-1.311,0.671-1.655
			c0.241-0.26,0.925-0.415,1.244-0.558c0.758-0.34,1.517-0.68,2.275-1.02c3.371-1.512,6.623-3.454,10.224-4.383
			c3.679-0.949,7.519-1.093,11.214-2.01c2.701-0.67,8.572-1.692,8.846-5.383c0.087-1.172-0.188-2.345-0.138-3.522
			c0.053-1.279,0.379-2.512,0.585-3.771c0.47-2.872,0.344-5.825-0.349-8.65c-0.889-3.621-2.327-5.477-6.281-5.309
			c-1.64,0.07-3.181,0.553-4.698,1.159c-1.578,0.631-3.104,1.298-4.752,1.724c-1.131,0.293-2.309,0.515-3.362,1.046
			c-1.197,0.603-2.141,1.564-2.913,2.644c-0.838,1.172-1.498,2.469-2.095,3.776c-0.621,1.361-0.998,2.909-1.765,4.191
			c-0.704,1.175-2.027,1.529-3.275,1.889c3.174-6.834,7.364-13.658,6.006-21.498c-1.323-7.638-5.329-14.854-9.677-21.152
			c-1.128-1.633-1.813-3.722-3.194-5.14c-0.813-0.834-1.774-1.546-2.73-2.205c-0.52-0.359-1.52-0.672-1.939-1.096
			c-0.823-0.832-0.538-3.774-0.437-4.962c0.147-1.728,0.628-3.356,1.409-4.904c0.926-1.836,2.194-3.865,3.955-5.015
			c2.059-1.344,4.828-1.376,7.114-2.179c1.163-0.408,2.904-0.965,3.492-2.181c0.241-0.499,0.217-1.044,0.192-1.583
			c-0.061-1.355-0.207-2.697-0.085-4.054c0.145-1.618,0.66-2.415-0.19-3.761c-0.328-0.52-0.563-1.083-0.337-1.7
			c0.41-1.116,1.089-1.291,1.105-2.59c0.017-1.381-0.037-1.971,1.434-2.29c0.954-0.207,2.888-0.311,3.285-1.508
			c0.112-0.337,0.021-0.652-0.086-0.977c-0.446-1.359-1.419-2.719-2.147-3.941c-1.048-1.758-2.379-3.284-2.579-5.385
			c-0.348-3.65,0.064-7.28-0.476-10.942C307.203,213.111,306.874,211.773,306.424,210.422z"/>
	</g>
	<g id="POLYLINE_1086_">
		
			<path fill="none" stroke="#FF6B6B" stroke-width="3.25" stroke-linecap="round" stroke-linejoin="round" stroke-miterlimit="10" d="
			M229.306,309.352c0.165,6.218,2.575,11.807,3.433,17.899c0.274,1.943,0.494,3.889,0.658,5.844c-0.456,0-1.541-1.072-1.928-1.364
			c-0.578-0.436-1.141-0.892-1.683-1.372c-1.253-1.11-2.39-2.339-3.483-3.605c-2.506-2.903-4.804-5.987-7.058-9.087
			c-1.216-1.673-2.391-3.371-3.486-5.126C220.437,312.49,225.011,311.149,229.306,309.352z"/>
	</g>
	<g id="POLYLINE_1085_">
		
			<path fill="none" stroke="#FF6B6B" stroke-width="3.25" stroke-linecap="round" stroke-linejoin="round" stroke-miterlimit="10" d="
			M617.771,577.781c0.378-0.542,0.926-1.509,1.721-1.431c0.772,0.076,1.407,1.087,1.796,1.654c1.571,2.291,2.755,4.754,4.505,6.937
			c1.99,2.482,4.199,4.804,6.548,6.948c2.106,1.922,4.375,3.697,6.996,4.861c2.572,1.142,5.363,1.678,8.123,2.148
			c3.335,0.567,7.106,0.839,8.555,4.428c0.925,2.293,0.085,5.046-1.782,6.612c-1.073,0.9-2.42,1.376-3.761,1.707
			c-2.994,0.74-6.141,0.883-9.207,1.077c-5.917,0.373-11.448,0.31-17.164-1.426c-6.315-1.918-12.451-4.163-18.872-5.748
			c-3.492-0.862-7.011-1.658-10.462-2.678c-2.004-0.593-4.473-1.189-6.062-2.659c-1.75-1.619-1.551-4.292-1.247-6.442
			c0.475-3.363,1.543-6.619,2.506-9.865c0.428-1.441,0.858-2.883,1.176-4.354c0.1-0.465,0.12-1.052,0.511-1.386
			c0.218-0.187,0.537-0.239,0.811-0.28c0.362-0.054,1.275,0.231,1.496,0.098c0.298-0.179,0.528-1.559,0.649-1.974
			c0.183-0.63,0.334-1.269,0.464-1.912c0.313-1.548,0.531-3.116,0.707-4.685c0.173-1.538,0.292-3.083,0.344-4.63
			c0.026-0.778,0.036-1.557,0.021-2.335c-0.011-0.561,0.148-1.724-0.115-2.221c-0.125-0.236-0.488-0.343-0.618-0.662
			c-0.17-0.416-0.094-0.95-0.074-1.383c0.295-6.616,0.24-13.114-0.596-19.696c-0.78-6.14-2.609-12.141-2.781-18.349
			c-0.18-6.477,0.599-13.062,1.669-19.441c0.509-3.036,1.191-5.957,2.243-8.851c0.438-1.203,0.845-2.459,0.813-3.756
			c-0.032-1.257-0.576-2.325-1.329-3.307c-1.702-2.221-3.888-4.141-5.943-6.025c-5.037-4.621-10.219-9.077-15.46-13.464
			c-5.27-4.41-10.879-8.657-15.358-13.908c-2.134-2.501-4.021-5.203-5.964-7.852c-3.022,5.111-6.473,9.854-10.29,14.401
			c-3.759,4.477-7.791,8.587-12.219,12.401c-4.617,3.976-9.196,7.951-13.262,12.505c-1.871,2.095-3.668,4.278-5.193,6.641
			c-1.447,2.242-2.479,4.751-4.051,6.91c-2.096,2.879-5.443,4.421-8.625,5.797c-5.489,2.373-11.21,4.251-16.505,7.058
			c-5.099,2.704-9.274,6.508-13.633,10.234c-4.187,3.58-8.907,6.169-13.534,9.116c-5.145,3.276-9.967,7.068-14.661,10.954
			c-2.104,1.741-4.201,3.514-6.119,5.461c-0.886,0.9-1.657,1.881-2.493,2.823c-0.173,0.195-0.485,0.662-0.767,0.716
			c-0.287,0.055-0.486-0.002-0.617-0.32c-3.304,2.975-6.372,6.361-8.831,10.073c-0.422,0.637-1.335,1.676-1.177,2.333
			c0.064,0.267,0.35,0.563,0.458,0.833c0.172,0.429,0.268,0.883,0.233,1.345c-0.048,0.655-0.356,1.256-0.678,1.815
			c-0.985,1.712-2.263,3.253-3.351,4.899c-2.441,3.691-4.657,7.645-6.189,11.807c-1.654,4.492-1.555,8.675-0.883,13.343
			c0.357,2.484,0.879,5.292-0.359,7.63c-1.517,2.864-5.339,4.281-7.644,1.616c-0.82-0.948-1.424-2.081-2.03-3.17
			c-1.23-2.213-2.465-4.428-3.624-6.679c-1.899-3.688-3.469-7.515-4.333-11.583c-1.812-8.535-0.173-17.316-0.614-25.959
			c-0.228-4.465-1.141-9.047-0.794-13.517c0.146-1.876,0.687-3.72,1.86-5.222c1.09-1.394,2.584-2.199,4.331-2.405
			c1.664-0.196,3.357,0.029,5.024,0.065c2.135,0.046,4.275-0.056,6.405-0.198c1.216-0.081,2.671-0.367,3.884-0.014
			c0.389,0.113,0.665,0.41,1.017,0.541c1.041,0.388,3.09-0.992,3.953-1.701c0.3-0.246,0.542-0.503,0.637-0.755
			c0.036-0.095-0.055-0.325,0.02-0.506c0.225-0.535,1.479-1.236,1.916-1.627c0.823-0.737,1.631-1.492,2.43-2.255
			c3.16-3.017,6.166-6.176,9.061-9.446c3.574-4.037,7.436-7.945,10.697-12.247c2.657-3.505,4.591-7.43,7.686-10.61
			c6.61-6.793,15.301-10.288,23.759-14.134c4.123-1.875,8.202-3.914,11.328-7.276c2.593-2.79,4.536-6.152,6.366-9.469
			c4.737-8.585,9.184-17.577,15.361-25.252c4.774-5.932,11.164-11.026,11.953-19.091c0.136-1.387,0.213-2.922-0.046-4.3
			c-0.317-1.687-0.964-3.281-1.197-5.008c-0.569-4.223-0.221-8.6,0.399-12.797c0.619-4.186,1.572-8.45,3.417-12.281
			c1.652-3.43,4.107-6.283,6.818-8.919c0.788-0.766,0.345-0.709,0.296-1.617c-0.03-0.546,0.115-1.102,0.325-1.601
			c0.984-2.335,3.481-3.062,5.418-4.375c0.971-0.659,1.451-1.328,1.435-2.504c-0.009-0.668-0.23-1.401,0.245-1.956
			c0.541-0.632,1.634-0.752,2.337-1.072c2.082-0.949,2.572-3.204,3.434-5.141c0.55-1.237,1.309-2.46,1.567-3.809
			c0.178-0.932,0.021-1.883,0.144-2.819c0.109-0.828,0.455-1.566,0.872-2.281c0.886-1.516,1.806-2.936,2.6-4.507
			c-3.604-1.066-6.299-3.863-8.819-6.491c-4.129-4.307-9.017-7.854-13.818-11.364c-5.057-3.697-10.201-7.276-15.209-11.039
			c-4.443-3.338-9.007-6.803-12.722-10.963c-1.925-2.155-3.616-4.485-5.673-6.524c-1.485-1.472-3.157-2.929-4.214-4.764
			c-1.085-1.885-0.677-3.667,0.633-5.309c3.051-3.824,8.018-6.206,12.294-8.351c2.8-1.404,5.628-2.751,8.493-4.019
			c0.728-0.322,1.88-0.382,1.39-1.278c-0.281-0.514-0.927-0.883-1.35-1.246c-0.485-0.416-1.351-1.059-1.172-1.806
			c0.212-0.892,1.839-1.233,2.516-1.473c0.409-0.145,2.911-0.798,2.397-1.516c-0.284-0.398-1.682-0.504-2.042-0.609
			c-0.683-0.199-1.364-0.431-1.975-0.802c-1.991-1.207-2.846-3.719-4.997-4.687c-2.702-1.216-5.323,0.212-7.898,0.964
			c-1.261,0.368-0.163-0.513,0.335-0.87c0.933-0.669,1.982-1.171,3.086-1.483c2.173-0.612,4.531-0.52,6.663,0.21
			c3.569,1.222,6.283,4.423,9.944,5.31c2.623,0.635,4.484-1.525,6.059-3.303c1.946-2.196,3.714-4.559,5.427-6.939
			c0.364-0.505,1.375-1.501,1.416-2.178c0.025-0.417,0.026-0.29-0.356-0.166c-0.888,0.29-1.899,1.411-2.611,1.964
			c-1.118,0.869-2.24,1.732-3.411,2.53c-1.435,0.978-2.948,1.901-4.617,2.42c-2.133,0.663-4.318,0.503-6.317-0.495
			c-3.498-1.747-5.962-4.877-9.839-5.947c-0.953-0.263-1.926-0.417-2.905-0.551c-0.602-0.083-1.493-0.058-2.026-0.382
			c0.16-0.273,1.109-0.248,1.354-0.271c1.24-0.121,2.497-0.134,3.741-0.084c1.821,0.072,3.605,0.327,5.337,0.902
			c3.048,1.012,5.733,2.773,9.043,2.6c7.246-0.38,11.459-7.061,16.157-11.709c1.876-1.855,3.842-3.668,5.408-5.805
			c1.419-1.936,2.365-4.132,3.116-6.401c0.814-2.461,1.547-4.991,2.078-7.529c0.462-2.209,0.465-4.479,0.921-6.685
			c0.839-4.06,3.855-7.043,7.946-7.759c2.238-0.392,4.594-0.337,6.851-0.164c0.295,0.023,1.096,0.215,1.258,0.069
			c0.109-0.098,0.027-0.469,0.12-0.608c0.209-0.314,0.18-0.27,0.532-0.27c0.346,0,0.605,0.339,0.987,0.245
			c0.379-0.093,0.5-0.647,0.822-0.738c0.625-0.177,0.557,0.885,1.261,0.707c0.339-0.086,0.517-0.645,0.809-0.651
			c-0.16-1.291,0.825-3.034,1.469-4.091c1.54-2.524,3.569-4.881,5.883-6.723c4.481-3.567,9.708-3.899,15.129-4.836
			c4.78-0.826,8.831-0.724,13.248,1.53c4.494,2.293,8.49,6.027,11.043,10.383c0.751,1.281,1.534,2.696,1.813,4.168
			c0.236,1.244,0.931,2.521,1.186,3.86c0.435,2.28,0.441,4.737,0.163,7.035c-0.177,1.459-0.724,2.598-1.266,3.953
			c-0.505,1.263-0.931,2.688-0.693,4.057c0.367,2.108,1.562,4.217,2.663,6.012c0.657,1.072,1.284,2.614-0.277,3.28
			c-1.583,0.675-4.118-0.683-4.157,1.755c-0.013,0.794,0.508,2.096-0.098,2.79c-0.491,0.562-1.399,0.448-1.928,1.029
			c-0.428,0.47-0.82,1.179-0.797,1.834c0.024,0.66,0.548,1.228,0.102,1.827c-0.548,0.735-1.701,0.694-2.171,1.575
			c-0.541,1.016-0.216,2.329-0.512,3.419c-0.54,1.986-2.484,2.044-4.227,1.843c-3.409-0.395-6.452-1.973-9.582,0.096
			c-2.196,1.452-3.15,3.978-3.486,6.484c-0.286,2.133-0.357,4.502,0.115,6.617c0.117,0.526,0.327,1.288,0.718,1.682
			c0.461,0.464,1.314,0.769,1.856,1.182c4.441,3.38,6.976,8.611,9.486,13.445c2.82,5.43,5.967,10.91,7.605,16.841
			c1.133,4.1,2.267,8.998,1.05,13.215c-1.252,4.336-4.776,7.742-6.754,11.758c-0.906,1.839-1.556,3.757-1.851,5.789
			c4.424-2.484,8.148-5.342,11.323-9.323c2.811-3.524,5.674-7.509,7.267-11.756c1.131-3.015-0.097-5.5-1.204-8.362
			c-1.666-4.308-2.27-9.224-2.285-13.832c-0.016-4.974,6.798-5.564,10.468-4.835c1.875,0.372,3.624,1.476,4.918,2.867
			c2.14,2.3,3.851,4.555,5.242,7.41c1.208,2.478,2.335,4.885,1.843,7.698c-0.635,3.624-3.537,6.265-5.37,9.296
			c-1.193,1.973-2.062,4.124-3.289,6.078c-1.348,2.147-3.007,4.082-4.428,6.18c-2.951,4.356-5.037,9.232-7.722,13.747
			c-2.64,4.44-5.789,8.532-9.424,12.203c-3.193,3.225-6.809,6.81-10.873,8.928c-0.426,0.222-0.863,0.405-1.32,0.554
			c-0.32,0.104-1.05,0.133-1.272,0.359c-0.293,0.298-0.341,1.457-0.436,1.888c-0.534,2.424-0.956,4.864-1.211,7.333
			c-0.211,2.033-0.308,4.156-0.925,6.121c-0.332,1.055-0.921,1.791-1.504,2.711c-1.259,1.987-0.205,4.281-0.936,6.366
			c-0.277,0.791-0.847,1.429-1.118,2.237c-0.633,1.884-0.777,3.895-1.328,5.8c-0.615,2.128-2.337,3.427-2.913,5.569
			c-0.383,1.424-0.859,3.041-2.274,3.751c-0.461,0.231-0.729,0.334-1.11,0.666c-0.311,0.271-0.599,0.547-0.948,0.774
			c5.781,4.556,10.558,10.247,15.468,15.697c4.663,5.176,9.399,10.407,13.414,16.112c4.074,5.788,6.991,12.441,10.058,18.793
			c1.707,3.533,3.294,7.106,4.882,10.694c1.269,2.869,3.043,5.231,4.777,7.821c2.22,3.316,2.988,7.454,2.039,11.361
			c-0.692,2.848-2.113,5.57-3.105,8.328c-1.211,3.369-2.51,6.773-3.379,10.25c-0.753,3.013-1.089,6.126-1.497,9.2
			c-0.545,4.113-1.097,8.224-1.684,12.331c-1.016,7.106-2.505,14.141-3.434,21.261c-0.433,3.325-0.741,6.688-0.702,10.044
			c0.012,1.057,0.247,2.111,0.261,3.154c0.006,0.456-0.181,0.583-0.308,0.968c-0.413,1.255,0.016,3.279,0.117,4.64
			c0.142,1.927,0.287,3.855,0.464,5.779c0.184,2.005,0.361,4.134,1.243,5.976C616.873,576.476,617.32,577.132,617.771,577.781z"/>
	</g>
	<g id="POLYLINE_1084_">
		
			<path fill="none" stroke="#FF6B6B" stroke-width="3.25" stroke-linecap="round" stroke-linejoin="round" stroke-miterlimit="10" d="
			M548.187,323.659c-0.08-2.296,0.558-4.688,0.242-6.946c-0.191-1.364-1.033-2.458-1.005-3.874c0.038-1.872,0.186-3.36-0.435-5.147
			c-1.192-3.434-2.624-6.62-3.396-10.2c-0.826-3.831-1.347-7.86-1.219-11.784c-7.959,2.149-15.803,4.75-23.954,6.099
			c-2.164,0.358-4.337,0.643-6.516,0.883c0.34,1.063,0.461,2.178,0.835,3.234c0.467,1.32,1.152,2.554,1.898,3.734
			c2.45,3.873,5.436,7.488,8.578,10.817c3.02,3.201,6.439,5.777,9.952,8.399c2.502,1.867,4.668,4.785,7.707,5.791
			c1.103,0.365,2.323,0.531,3.48,0.373C545.677,324.855,546.909,324.056,548.187,323.659z"/>
	</g>
</g>
</svg>
