<?xml version="1.0" encoding="utf-8"?>
<!-- Generator: Adobe Illustrator 23.0.2, SVG Export Plug-In . SVG Version: 6.00 Build 0)  -->
<!DOCTYPE svg PUBLIC "-//W3C//DTD SVG 1.1//EN" "http://www.w3.org/Graphics/SVG/1.1/DTD/svg11.dtd" [
	<!ENTITY ns_flows "http://ns.adobe.com/Flows/1.0/">
	<!ENTITY ns_extend "http://ns.adobe.com/Extensibility/1.0/">
	<!ENTITY ns_ai "http://ns.adobe.com/AdobeIllustrator/10.0/">
	<!ENTITY ns_graphs "http://ns.adobe.com/Graphs/1.0/">
	<!ENTITY ns_vars "http://ns.adobe.com/Variables/1.0/">
	<!ENTITY ns_imrep "http://ns.adobe.com/ImageReplacement/1.0/">
	<!ENTITY ns_sfw "http://ns.adobe.com/SaveForWeb/1.0/">
	<!ENTITY ns_custom "http://ns.adobe.com/GenericCustomNamespace/1.0/">
	<!ENTITY ns_adobe_xpath "http://ns.adobe.com/XPath/1.0/">
]>
<svg version="1.1" xmlns:x="&ns_extend;" xmlns:i="&ns_ai;" xmlns:graph="&ns_graphs;"
	 xmlns="http://www.w3.org/2000/svg" xmlns:xlink="http://www.w3.org/1999/xlink" xmlns:a="http://ns.adobe.com/AdobeSVGViewerExtensions/3.0/"
	 x="0px" y="0px" viewBox="0 0 750 750" enable-background="new 0 0 750 750" xml:space="preserve">
<metadata>
	<sfw  xmlns="&ns_sfw;">
		<slices></slices>
		<sliceSourceBounds  bottomLeftOrigin="true" height="6203.912" width="5363.366" x="-4086.366" y="-945.09"></sliceSourceBounds>
	</sfw>
</metadata>
<g id="FILL-BACKGROUND">
	<rect fill="#FFFFFF" width="750" height="750"/>
</g>
<g id="N-TEXT">
</g>
<g id="AG-DIAGRAM">
	<g id="POLYLINE_324_">
		<g>
			<g>
				
					<line fill="none" stroke="#FF6B6B" stroke-width="3.5" stroke-linecap="round" stroke-linejoin="round" x1="200.1" y1="671.403" x2="202.1" y2="671.403"/>
				
					<line fill="none" stroke="#FF6B6B" stroke-width="3.5" stroke-linecap="round" stroke-linejoin="round" stroke-dasharray="4.0201,7.0351" x1="209.135" y1="671.403" x2="559.382" y2="671.403"/>
				
					<line fill="none" stroke="#FF6B6B" stroke-width="3.5" stroke-linecap="round" stroke-linejoin="round" x1="562.9" y1="671.403" x2="564.9" y2="671.403"/>
			</g>
		</g>
	</g>
</g>
<g id="AG-PEOPLE">
	<g id="POLYLINE_323_">
		
			<path fill="none" stroke="#FF6B6B" stroke-width="3.5" stroke-linecap="round" stroke-linejoin="round" stroke-miterlimit="10" d="
			M365.725,333.873c0.776-2.128,2.612-4.576,5.072-4.68c2.123-0.09,4.479,0.817,6.457,1.445c1.547,0.491,3.18,1.104,4.34,2.288
			c2.32,2.366,2.334,8.682-1.964,8.843c-2.515,0.094-5.289-1.127-7.628-1.864c-2.456-0.775-4.368-1.673-6.184-3.509"/>
	</g>
	<g id="POLYLINE_322_">
		
			<path fill="none" stroke="#FF6B6B" stroke-width="3.5" stroke-linecap="round" stroke-linejoin="round" stroke-miterlimit="10" d="
			M362.777,309.448c5.289-1.504,10.814-1.759,16.215-0.742"/>
	</g>
	<g id="POLYLINE_321_">
		
			<path fill="none" stroke="#FF6B6B" stroke-width="3.5" stroke-linecap="round" stroke-linejoin="round" stroke-miterlimit="10" d="
			M245.445,365.5c-4.406,7.933-6.162,16.735-5.409,25.733c0.435,5.197,1.289,10.376,2.433,15.463
			c1.197,5.324,2.932,10.516,3.999,15.869c1.022,5.123,1.287,10.358,1.7,15.554c0.441,5.547,1.157,11.041,1.881,16.558
			c0.688,5.246,1.354,10.502,1.657,15.787c0.285,4.962-0.283,9.886-0.131,14.839c0.131,4.26,1.432,8.396,1.332,12.672
			c-0.108,4.649-1.434,9.142-2.254,13.69c-1.934,10.732-2.402,21.834-2.89,32.71c-0.244,5.439-0.159,10.875-0.263,16.316
			c-0.102,5.375-1.077,10.562-2.075,15.826c-2.002,10.558-2.89,21.231-2.58,31.98c0.313,10.841,2.695,21.13,4.566,31.759
			c0.909,5.159,1.215,10.299,1.38,15.527c0.059,1.865,0.01,3.797,0.333,5.641c0.095,0.544,0.185,1.204,0.606,1.608
			c0.441,0.424,1.168,0.489,1.737,0.576c1.981,0.306,4.025,0.32,6.025,0.291c3.828-0.055,7.79-0.373,11.436-1.62
			c4.096-1.401,7.557-4.12,11.561-5.73c3.66-1.472,8.161-1.831,11.462-4.093c1.379-0.945,1.646-2.12,1.071-3.644
			c-1.175-3.116-3.515-5.69-4.772-8.803c-2.149-5.321-3.002-11.194-4.16-16.782c-1.01-4.871-1.572-9.775-1.789-14.744
			c-0.473-10.827,0.152-21.717,1.127-32.499c0.956-10.57,2.464-21.083,4.587-31.483c2.27-11.116,5.024-22.143,6.502-33.404
			c1.357-10.341,2.508-20.603,4.547-30.84c2.276-11.427,4.936-22.888,6.104-34.499c1.063-10.569,0.489-21.207,1.146-31.796
			c0.367-5.916,0.759-11.831,1.139-17.747"/>
	</g>
	<g id="POLYLINE_320_">
		
			<path fill="none" stroke="#FF6B6B" stroke-width="3.5" stroke-linecap="round" stroke-linejoin="round" stroke-miterlimit="10" d="
			M256.374,663.907c0,2.01,0,4.02,0,6.029c0,0.395-0.135,1.263,0.111,1.467c0.419,0.347,2.582,0,3.128,0
			c0.425,0,2.493,0.297,2.803,0c0.218-0.209,0.07-1.241,0.07-1.59c0-2.069,0-4.138,0-6.207"/>
	</g>
	<g id="POLYLINE_319_">
		
			<path fill="none" stroke="#FF6B6B" stroke-width="3.5" stroke-linecap="round" stroke-linejoin="round" stroke-miterlimit="10" d="
			M269.05,182.732c0.626,3.357,1.262,6.625,2.527,9.81c1.397,3.518,3.14,6.905,4.878,10.263c2.037,3.935,3.992,7.915,6.031,11.847
			c1.386,2.673,3.411,4.941,5.293,7.268c5.184,6.409,9.221,13.469,13.895,20.231c1.86,2.691,3.88,5.292,6.41,7.388
			c2.133,1.768,4.616,3.15,6.524,5.181c2.776,2.957,3.733,7.265,3.953,11.195c0.05,0.905,0.057,1.811,0.02,2.717"/>
	</g>
	<g id="POLYLINE_318_">
		
			<path fill="none" stroke="#FF6B6B" stroke-width="3.5" stroke-linecap="round" stroke-linejoin="round" stroke-miterlimit="10" d="
			M284.426,217.716c0.336-3.757,1.921-8.81,4.552-11.609c2.037-2.167,5.198-1.291,7.774-0.812c2.613,0.485,6.885,1.685,8.871-0.897
			c1.701-2.212,0.642-4.898,0.938-7.372c0.118-0.985,0.753-1.46,1.229-2.304c0.508-0.901,0.38-1.668,0.36-2.685
			c-0.032-1.608,0.697-2.967,0.939-4.528c0.197-1.275-0.481-2.28-0.464-3.514c0.031-2.253,3.555-0.393,4.2-2.302
			c0.302-0.893-0.37-2.178-0.73-2.954c-0.982-2.119-2.569-3.96-3.351-6.167c-1.093-3.087,0.67-5.575,0.57-8.666
			c-0.175-5.437-3.243-10.493-6.265-14.824c-0.971-1.392-2.018-2.721-3.132-4.002"/>
	</g>
	<g id="POLYLINE_317_">
		
			<path fill="none" stroke="#FF6B6B" stroke-width="3.5" stroke-linecap="round" stroke-linejoin="round" stroke-miterlimit="10" d="
			M300.003,657.555c-2.802-1.271-5.342-3.356-7.24-5.773"/>
	</g>
	<g id="POLYLINE_316_">
		
			<path fill="none" stroke="#FF6B6B" stroke-width="3.5" stroke-linecap="round" stroke-linejoin="round" stroke-miterlimit="10" d="
			M266.334,662.999c2.304,1.411,4.435,2.828,6.509,4.553c1.121,0.932,2.278,1.823,3.615,2.427c2.888,1.303,6.27,1.294,9.369,1.33
			c6.386,0.075,12.788,0.142,19.171-0.088c3.718-0.134,7.936-0.158,11.32-1.941c4.041-2.129,2.398-5.528-1.178-7.13
			c-3.094-1.387-6.627-1.346-9.785-2.567c-1.712-0.662-4.353-2.976-6.117-1.516c-4.951,4.099-12.768,2.396-18.554,1.15
			c-1.266-0.273-2.523-0.587-3.766-0.949"/>
	</g>
	<g id="POLYLINE_315_">
		
			<path fill="none" stroke="#FF6B6B" stroke-width="3.5" stroke-linecap="round" stroke-linejoin="round" stroke-miterlimit="10" d="
			M279.945,182.14c-1.15,2.14-3.138,2.594-5.394,2.211c-3.254-0.553-6.141-1.426-8.341-3.994c-2.94-3.431-4.128-10.527,0.829-12.845
			c2.771-1.296,4.947,0.109,7.294,1.561c1.758,1.088,4.052,1.912,5.983,0.62c1.09-0.729,1.45-2.058,1.833-3.237
			c0.493-1.521,1.031-2.9,2.062-4.143c0.889-1.071,2.101-1.643,3.045-2.615c0.747-0.769,0.902-1.788,0.983-2.826
			c0.178-2.275-1.315-5.047,0.585-6.723c1.643-1.449,3.729-2.595,5.749-3.434c1.516-0.63,3.225-0.655,4.707-1.294
			c1.965-0.847,1.761-3.427,1.421-5.193c-0.458-2.371-1.688-4.204-3.616-5.631c-3.475-2.572-7.764-4.549-12.119-4.829
			c-3.022-0.194-6.08,0.215-9.071,0.611c-3.281,0.434-6.559,0.896-9.713,1.931c-4.929,1.617-9.556,4.351-12.929,8.34
			c-4.335,5.128-6.518,11.893-8.257,18.267c-1.909,6.995-3.538,14.189-4.537,21.374c-1.086,7.805-0.781,15.642-0.659,23.496
			c0.09,5.784,0,11.73-1.867,17.269c-1.358,4.027-2.563,7.032-1.872,11.319c0.325,2.015,0.902,4.011,1.793,5.851"/>
	</g>
	<g id="POLYLINE_314_">
		
			<path fill="none" stroke="#FF6B6B" stroke-width="3.5" stroke-linecap="round" stroke-linejoin="round" stroke-miterlimit="10" d="
			M477.037,151.539c1.371-3.28,6.149-6.312,8.547-2.289c2.557,4.29,0.883,11.334-2.791,14.446c-1.836,1.555-4.44,2.267-6.798,2.432"
			/>
	</g>
	<g id="POLYLINE_313_">
		
			<path fill="none" stroke="#FF6B6B" stroke-width="3.5" stroke-linecap="round" stroke-linejoin="round" stroke-miterlimit="10" d="
			M477.037,151.539c-0.884,1.599-1.798,1.895-3.37,2.63c-1.176,0.55-1.918,1.487-2.528,2.615c-0.884,1.636-1.497,6.205-4.269,5.913
			c-3.401-0.358-1.628-7.262-1.509-8.995c0.197-2.843,0.107-6.055-2.445-7.79c-1.265-0.859-2.615-1.449-3.414-2.811
			c-1.225-2.09-1.011-4.74-1.474-7.037c-0.281-1.39-0.702-2.9-1.839-3.84c-1.801-1.488-4.541-1.777-6.608-2.817
			c-1.202-0.605-2.281-1.358-3.159-2.388c-1.194-1.4-2.765-3.33-3.394-5.068c-0.667-1.846-0.554-6.963,2.016-7.449
			c1.513-0.286,2.607,0.271,4.076-0.428c1.589-0.755,2.641-1.048,4.421-0.871c2.763,0.276,4.731,0.106,7.473-0.3
			c2.534-0.376,5.036,0.212,7.574,0.216c2.622,0.004,5.282-0.924,7.894-0.508c1.793,0.285,3.321,1.38,5.09,1.761
			c3.495,0.753,7.191-1.209,10.437,0.565c2.378,1.299,4.245,3.378,6.667,4.608c1.724,0.876,3.448,1.388,4.918,2.681
			c3.123,2.745,5.624,6.961,6.377,11.061c0.424,2.312,0.107,4.636-0.169,6.946c-0.495,4.146-0.361,8.1-0.017,12.255
			c0.188,2.274,0.508,4.611-0.199,6.827c-0.982,3.077-2.574,6.166-4.495,8.762c-1.693,2.287-2.955,4.228-4.029,6.877
			c-0.929,2.292-1.855,5.511-3.818,7.216c-1.994,1.732-4.998-1.006-6.395-2.372c-2.259-2.21-3.965-5.351-3.349-8.573
			c0.589-3.08,1.991-5.982,2.405-9.102c0.327-2.466-0.281-5.089-1.057-7.416c-0.61-1.83-1.546-3.304-2.886-4.695"/>
	</g>
	<g id="POLYLINE_312_">
		
			<path fill="none" stroke="#FF6B6B" stroke-width="3.5" stroke-linecap="round" stroke-linejoin="round" stroke-miterlimit="10" d="
			M463.352,202.392c-0.649-1.519-1.26-2.992-1.349-4.658c-0.053-0.991,0.506-3.29-0.373-4.118c-1.014-0.955-3.943,0.221-4.903,0.405
			c-2.474,0.475-5.126,1.008-7.66,0.705c-2.344-0.281-3.739-1.786-3.607-4.185c0.084-1.521,0.668-3.005,0.269-4.527
			c-0.337-1.285-1.436-2.321-1.566-3.66c-0.092-0.954,0.464-1.818,0.473-2.766c0.012-1.306-0.785-2.346-1.232-3.515
			c-0.643-1.679,1.024-4.983-1.361-5.274c-2.031-0.247-4.886,0.61-4.96-2.43c-0.107-4.38,3.578-7.823,5.359-11.442
			c1.387-2.819-0.595-4.837-0.457-7.633c0.275-5.586,1.696-10.249,4.754-14.921c1.057-1.616,2.187-3.182,3.349-4.723"/>
	</g>
	<g id="POLYLINE_311_">
		
			<path fill="none" stroke="#FF6B6B" stroke-width="3.5" stroke-linecap="round" stroke-linejoin="round" stroke-miterlimit="10" d="
			M318.363,364.843c0.012,8.565-2.149,17.01-2.487,25.578c-0.372,9.446-0.306,18.902-0.828,28.343
			c-0.517,9.342-1.475,18.663-2.614,27.948c-1.078,8.783-2.361,17.54-3.909,26.253c-1.718,9.671-3.795,19.369-4.663,29.168
			c-0.833,9.417-0.395,18.889-1.069,28.314c-0.615,8.588-2.072,17.049-3.77,25.48c-1.958,9.723-4.36,19.504-5.428,29.38
			c-1.013,9.368-2.432,18.648-3.63,27.992c-1.132,8.834-1.064,17.61-0.123,26.468c0.158,1.486,0.28,3.009,0.56,4.478"/>
	</g>
	<g id="POLYLINE_310_">
		
			<path fill="none" stroke="#FF6B6B" stroke-width="3.5" stroke-linecap="round" stroke-linejoin="round" stroke-miterlimit="10" d="
			M430.437,292.925c1.939-9.514,5.065-18.829,9.257-27.588c4.332-9.052,9.725-17.578,15.399-25.839
			c2.928-4.264,5.956-8.468,9.069-12.599c2.902-3.85,5.715-7.949,9.099-11.399c3.222-3.285,7.19-5.936,11.01-8.467
			c3.533-2.341,7.199-4.195,11.164-5.687c1.64-0.617,4.852-1.032,5.142-3.189c0.182-1.352-0.122-3.243-0.689-4.484
			c-0.577-1.263-1.623-1.307-2.88-1.11c-3.257,0.508-6.464,2.162-9.307,3.738c-8.09,4.483-15.168,10.943-21.295,17.812
			c-6.849,7.678-13.194,15.96-18.821,24.573c-5.474,8.379-10.262,17.301-13.886,26.64c-1.608,4.142-2.989,8.397-3.715,12.79
			c-0.818,4.945-0.768,10-0.652,14.996c0.026,1.118-0.156,2.632,0.289,3.678C430.323,296.27,430.299,293.664,430.437,292.925z"/>
	</g>
	<g id="POLYLINE_309_">
		
			<path fill="none" stroke="#FF6B6B" stroke-width="3.5" stroke-linecap="round" stroke-linejoin="round" stroke-miterlimit="10" d="
			M458.958,223.06c-1.569-2.821-2.415-6.506-1.778-9.713c0.396-1.995,1.433-3.779,2.511-5.476c1.162-1.828,2.265-4.14,3.851-5.661
			c2.201-2.11,4.978-3.731,7.566-5.313c3.201-1.957,6.503-3.752,9.898-5.348c3.388-1.593,6.858-3.093,10.399-4.314
			c1.465-0.505,3.15-1.088,4.73-0.927c2.898,0.295,2.774,3.994,2.279,6.176"/>
	</g>
	<g id="POLYLINE_308_">
		
			<path fill="none" stroke="#FF6B6B" stroke-width="3.5" stroke-linecap="round" stroke-linejoin="round" stroke-miterlimit="10" d="
			M456.904,225.676c-2.09-0.243-4.527-1.463-5.23-3.584c-0.809-2.442,0.766-5.279,2.19-7.166c1.014-1.345,2.27-2.343,3.756-3.136"/>
	</g>
	<g id="POLYLINE_307_">
		
			<path fill="none" stroke="#FF6B6B" stroke-width="3.5" stroke-linecap="round" stroke-linejoin="round" stroke-miterlimit="10" d="
			M451.622,221.922c-3.683,6.227-5.973,13.605-6.607,20.822"/>
	</g>
	<g id="POLYLINE_306_">
		
			<path fill="none" stroke="#FF6B6B" stroke-width="3.5" stroke-linecap="round" stroke-linejoin="round" stroke-miterlimit="10" d="
			M496.282,186.323c-0.15-1.188-0.17-2.381-0.1-3.576"/>
	</g>
	<g id="POLYLINE_305_">
		
			<path fill="none" stroke="#FF6B6B" stroke-width="3.5" stroke-linecap="round" stroke-linejoin="round" stroke-miterlimit="10" d="
			M474.04,255.203c0.096,17.229,0.192,34.457,0.288,51.686c0.074,13.215,0.161,26.397-0.661,39.595
			c-0.939,15.092-2.085,30.387-4.904,45.262c-0.612,3.226-1.403,6.41-2.347,9.555c-0.611,2.034-1.646,4.417-1.518,6.605
			c0.126,2.145,1.967,2.633,3.83,2.887c3.949,0.537,7.965,0.735,11.934,1.091c2.83,0.254,5.705,0.526,8.548,0.352
			c2.294-0.14,4.48-0.709,5.722-2.767c0.659-1.092,1.009-2.369,1.291-3.601c0.747-3.276,1.102-6.671,1.532-9.999
			c1.062-8.214,1.873-16.449,2.719-24.688c0.706-6.875,1.77-13.625,3.57-20.304c1.902-7.06,3.735-14.035,4.967-21.249
			c2.554-14.958,5.037-30.068,6.737-45.154c0.914-8.11,1.403-16.263,2.008-24.4c0.495-6.665,1.223-13.371,1.127-20.06
			c-0.087-6.041-0.964-12.14-2.891-17.877c-1.941-5.782-5.189-10.933-9.05-15.622c-2.106-2.558-4.384-4.936-6.835-7.165"/>
	</g>
	<g id="POLYLINE_304_">
		
			<path fill="none" stroke="#FF6B6B" stroke-width="3.5" stroke-linecap="round" stroke-linejoin="round" stroke-miterlimit="10" d="
			M466.438,410.241c-2.145,2.802-3.823,6.044-5.227,9.272c-0.996,2.289-1.63,4.601-0.943,7.069c0.649,2.33,1.724,4.439,1.954,6.872
			c0.239,2.525-0.493,5.722,0.58,8.118c0.748,1.669,2.857,2.147,4.422,2.662c3.769,1.239,7.709,2.208,11.698,2.183
			c3.906-0.025,7.577-0.493,8.797-4.65c1.009-3.437,0.788-7.18,1.071-10.712c0.397-4.95,1.134-9.866,1.52-14.82
			c0.108-1.381,0.215-2.762,0.323-4.144"/>
	</g>
	<g id="POLYLINE_303_">
		
			<path fill="none" stroke="#FF6B6B" stroke-width="3.5" stroke-linecap="round" stroke-linejoin="round" stroke-miterlimit="10" d="
			M487.984,440.685c4.88,0.893,9.756,1.809,14.64,2.68c1.374,0.245,2.669,0.304,3.993-0.233c3.241-1.314,3.663-4.378,4.219-7.417
			c2.162-11.809,4.323-23.618,6.485-35.428c0.63-3.44,2.548-8.251,0.27-11.505c-0.792-1.131-1.959-1.959-3.281-2.349
			c-4.219-1.243-8.837-1.649-13.161-2.441c-0.644-0.118-1.287-0.236-1.931-0.353"/>
	</g>
	<g id="POLYLINE_302_">
		
			<path fill="none" stroke="#FF6B6B" stroke-width="3.5" stroke-linecap="round" stroke-linejoin="round" stroke-miterlimit="10" d="
			M470.768,378.431c-5.05-0.924-10.099-1.85-15.149-2.773c-1.464-0.268-2.831-0.376-4.245,0.208
			c-3.492,1.442-3.74,4.978-4.333,8.223c-2.224,12.148-4.447,24.295-6.671,36.443c-0.621,3.392-2.102,7.369,0.557,10.281
			c0.939,1.028,2.136,1.605,3.479,1.895c5.356,1.154,10.803,1.978,16.192,2.964c0.578,0.106,1.156,0.212,1.734,0.317"/>
	</g>
	<g id="POLYLINE_301_">
		
			<path fill="none" stroke="#FF6B6B" stroke-width="3.5" stroke-linecap="round" stroke-linejoin="round" stroke-miterlimit="10" d="
			M513.405,386.236c0.609-8.446,0.786-16.841,0.475-25.305c-0.325-8.841-0.995-17.663-1.835-26.468
			c-0.442-4.63-1.03-9.243-1.61-13.857"/>
	</g>
	<g id="POLYLINE_300_">
		
			<path fill="none" stroke="#FF6B6B" stroke-width="3.5" stroke-linecap="round" stroke-linejoin="round" stroke-miterlimit="10" d="
			M401.933,331.473c-1.863,1.505-4.359,3.088-6.587,3.926c-1.016,0.382-1.959,0.191-2.888-0.344"/>
	</g>
	<g id="POLYLINE_246_">
		
			<path fill="none" stroke="#FF6B6B" stroke-width="3.5" stroke-linecap="round" stroke-linejoin="round" stroke-miterlimit="10" d="
			M382.119,340.445c1.896,0.474,4.009,0.614,5.565-0.741c1.236-1.077,1.987-2.603,3.268-3.643c1.169-0.949,2.701-1.463,3.699-2.62
			c1.535-1.781,1.379-4.553,0.592-6.622c-1.422-3.74-5.482-5.718-8.565-7.844c-1.997-1.377-4.35-3.497-6.829-2.163
			c-2.571,1.383-4.269,2.766-7.347,2.325c-1.768-0.253-3.789-1.053-3.77-3.134c0.023-2.607,3.213-3.86,5.099-4.861
			c3.242-1.721,7.098-3.912,10.93-3.455c2.246,0.268,4.34,1.262,6.569,1.641c2.051,0.349,4.078,0.133,6.145,0.05
			c0.704-0.028,1.413-0.053,2.111,0.062"/>
	</g>
	<g id="POLYLINE_244_">
		
			<path fill="none" stroke="#FF6B6B" stroke-width="3.5" stroke-linecap="round" stroke-linejoin="round" stroke-miterlimit="10" d="
			M430.789,306.875c-9.136,0.504-18.029,0.246-27.098-0.879c-1.091-0.135-2.821-0.446-3.705,0.477
			c-0.873,0.911-0.516,2.545-0.254,3.612c1.979,8.054,2.77,16.449,1.973,24.729c-0.191,1.986-2.219,7.917,0.933,8.989
			c1.948,0.663,4.595-0.303,6.477-0.721c4.737-1.053,9.523-1.919,14.234-3.086c1.057-0.262,2.107-0.55,3.154-0.85"/>
	</g>
	<g id="POLYLINE_243_">
		
			<path fill="none" stroke="#FF6B6B" stroke-width="3.5" stroke-linecap="round" stroke-linejoin="round" stroke-miterlimit="10" d="
			M439.773,423.792c-5.642,0.393-11.728-2.811-15.454-6.889c-4.327-4.736-4.472-11.965-4.671-17.997
			c-0.376-11.383,0.503-22.904,1.85-34.202c1.344-11.268,4.505-22.016,6.67-33.119c1.974-10.121,3.499-20.642,2.058-30.931
			c-0.181-1.293-0.393-2.58-0.604-3.868"/>
	</g>
	<g id="POLYLINE_242_">
		
			<path fill="none" stroke="#FF6B6B" stroke-width="3.5" stroke-linecap="round" stroke-linejoin="round" stroke-miterlimit="10" d="
			M503.772,443.551c-1.044,8.91-1.314,17.987-1.015,26.952c0.11,3.294,0.422,6.581,1.364,9.75c1.249,4.202,2.867,8.252,3.992,12.501
			c2.376,8.972,4.491,18.015,7.151,26.911c2.467,8.251,5.875,16.278,6.983,24.867c1.011,7.837,1.063,15.796,1.112,23.687
			c0.068,11.105,0.06,22.213,0.205,33.317c0.114,8.668,0.506,17.401,2.077,25.942c1.581,8.599,4.922,16.859,6.083,25.519
			c0.288,2.146,0.961,6.446-1.792,7.4c-1.645,0.57-3.702,0.024-5.338-0.255c-5.212-0.891-10.412-1.847-15.626-2.723
			c-3.801-0.639-7.645-1.233-11.503-1.35c-2.69-0.082-5.354,0.784-7.998,0.654c-2.768-0.136-3.743-3.348-4.415-5.568
			c-2.527-8.339-3.435-17.329-4.006-25.989c-0.626-9.505-0.91-19.031-1.493-28.539c-0.589-9.606-1.359-19.208-2.576-28.757
			c-1.122-8.81-2.66-17.572-5.24-26.081c-2.651-8.743-6.208-17.18-8.759-25.957c-2.652-9.126-4.843-18.38-7.432-27.524
			c-2.556-9.028-5.522-17.932-8.785-26.729c-3.361-9.063-7.21-17.937-10.497-27.026c-1.466-4.054-2.788-8.157-4.092-12.265"/>
	</g>
	<g id="POLYLINE_241_">
		
			<path fill="none" stroke="#FF6B6B" stroke-width="3.5" stroke-linecap="round" stroke-linejoin="round" stroke-miterlimit="10" d="
			M428.545,420.337c-0.125,10.384,0.031,20.747,0.664,31.115c0.589,9.646,1.741,19.244,3.188,28.796
			c1.695,11.185,3.684,22.329,5.545,33.488c1.458,8.746,2.837,17.512,4.02,26.301c1.329,9.877,2.453,19.788,3.117,29.734
			c0.691,10.344,1.091,20.705,1.718,31.053c0.6,9.91,2.042,19.638,3.64,29.427c0.467,2.864,0.84,5.747,0.225,8.617
			c-0.635,2.964-2.432,5.604-2.944,8.57c-0.484,2.807,1.819,4.057,4.156,4.895c8.513,3.052,18.36,3.11,27.279,2.52
			c2.36-0.156,4.713-0.39,7.064-0.648"/>
	</g>
	<g id="POLYLINE_240_">
		
			<path fill="none" stroke="#FF6B6B" stroke-width="3.5" stroke-linecap="round" stroke-linejoin="round" stroke-miterlimit="10" d="
			M487.503,655.997c-1.832,1.369-4.055,2.207-5.525,4.033c-1.081,1.343-1.543,3.051-1.768,4.733
			c-0.185,1.381-0.751,3.894,0.109,5.203c0.659,1.005,2.228,1.107,3.286,1.217c3.051,0.317,6.163,0.202,9.227,0.203
			c6.012,0.002,12.024,0.004,18.036,0.006c3.438,0.001,6.882,0.045,10.319-0.091c2.011-0.08,4.4-0.034,6.291-0.872
			c2.763-1.224,2.14-5.238,1.973-7.64c-0.052-0.748-0.126-1.495-0.221-2.239"/>
	</g>
	<g id="POLYLINE_239_">
		
			<path fill="none" stroke="#FF6B6B" stroke-width="3.5" stroke-linecap="round" stroke-linejoin="round" stroke-miterlimit="10" d="
			M487.631,671.369c-4.571,0-9.142,0-13.713,0c-2.276,0-4.722,0.257-6.985,0c-0.766-0.087-0.463,0.132-0.745-0.36
			c-0.398-0.694,0-2.699,0-3.546c-3.863,0.484-7.399,1.666-11.05,2.914c-3.03,1.036-6.486,0.936-9.639,0.995
			c-5.356,0.099-10.717-0.001-16.072-0.11c-3.379-0.069-7.106,0.137-10.366-0.95c-2.649-0.884-4.357-2.998-4.206-5.848
			c0.206-3.878,2.774-7.142,6.595-7.8c2.793-0.481,5.632-0.146,8.412-0.788c5.078-1.173,10.273-2.344,15.214-4.011
			c1.177-0.397,2.341-0.835,3.478-1.334"/>
	</g>
	<g id="POLYLINE_238_">
		
			<path fill="none" stroke="#FF6B6B" stroke-width="3.5" stroke-linecap="round" stroke-linejoin="round" stroke-miterlimit="10" d="
			M330.852,336.692c1.426,5.413,2.898,10.815,4.28,16.239c1.24,4.869,2.609,9.87,3.306,14.848c0.147,1.051,0.406,2.675-0.897,3.053
			c-0.623,0.181-1.438-0.102-2.031-0.274c-2.185-0.634-4.263-1.679-6.363-2.534c-9.325-3.794-19.556-4.77-29.532-5.142
			c-10.905-0.407-21.915-0.107-32.792,0.736c-5.098,0.395-10.105,1.286-15.172,1.915c-2.135,0.265-4.827,0.653-6.89-0.268
			c-1.325-0.591-1.818-1.634-1.628-3.038c0.458-3.381,2.361-6.473,2.992-9.855c0.853-4.578,0.696-9.255,1.055-13.881
			c0.389-5.011,1.534-9.83,1.314-14.889c-0.453-10.394-3.98-19.951-6.82-29.845c-2.88-10.034-4.977-20.493-6.064-30.878
			c-0.943-9.011-0.031-17.841,2.813-26.455c0.713-2.158,1.533-4.281,2.468-6.353"/>
	</g>
	<g id="POLYLINE_237_">
		
			<path fill="none" stroke="#FF6B6B" stroke-width="3.5" stroke-linecap="round" stroke-linejoin="round" stroke-miterlimit="10" d="
			M283.231,240.83c1.76,4.957,3.417,9.967,5.452,14.82c1.666,3.974,3.819,7.888,4.765,12.123c0.692,3.1,0.595,6.32,1.615,9.353
			c1.481,4.405,4.27,8.206,6.517,12.226c1.64,2.933,2.184,5.745,2.877,9.006c0.377,1.776,0.99,3.557,2.334,4.842
			c1.587,1.518,3.768,1.691,5.847,1.925c4.99,0.561,9.91,1.605,14.892,2.227c10.699,1.335,21.479,1.152,32.232,1.518
			c1.354,0.046,2.728,0.092,3.694,1.162c1.12,1.241,1.437,3.153,1.601,4.752c0.481,4.704-0.063,9.476,0.286,14.198
			c0.228,3.086,1.192,7.111,0.172,10.18c-0.466,1.402-1.525,1.753-2.91,1.773c-3.176,0.047-6.404-0.597-9.546-1.039
			c-13.697-1.924-27.393-3.847-41.09-5.771c-7.738-1.087-16.09-1.602-23.317-4.749c-6.426-2.799-10.513-8.684-14.197-14.399
			c-5.814-9.02-11.061-18.445-16.289-27.814c-4.743-8.5-9.459-17.106-12.928-26.221c-1.717-4.512-3.137-9.149-4.204-13.858
			c-0.854-3.77-1.66-7.75-1.43-11.637c0.272-4.59,2.642-9.335,6.177-12.293c1.767-1.479,3.891-2.459,6.056-3.202
			c3.553-1.218,7.507-2.211,11.292-2.159c6.24,0.085,12.107,3.947,16.678,7.854c7.368,6.298,11.946,14.989,18.379,22.115
			c2.732,3.026,6.134,5.067,9.247,7.65c3.558,2.952,6.679,6.555,9.319,10.341c5.418,7.771,6.159,16.529,6.535,25.72
			c0.211,5.16,0.401,10.298,1.005,15.43"/>
	</g>
</g>
<g id="AG-HUMANS">
</g>
<g id="AG-OUTLINE">
	<g id="POLYLINE_236_">
		
			<path fill="none" stroke="#FF6B6B" stroke-width="3.5" stroke-linecap="round" stroke-linejoin="round" stroke-miterlimit="10" d="
			M256.374,663.907c-1.64-0.015-5.812,0.522-6.907-1.239c-0.35-0.563-0.374-1.409-0.442-2.043c-0.3-2.797-0.247-5.647-0.346-8.454
			c-0.371-10.552-3.384-20.66-4.832-31.07c-1.497-10.761-1.387-21.847-0.256-32.638c0.572-5.459,1.643-10.811,2.641-16.203
			c0.991-5.354,1.284-10.61,1.302-16.046c0.038-11.19,0.631-22.375,1.714-33.513c0.536-5.516,1.342-10.919,2.488-16.341
			c0.853-4.034,1.464-8.059,0.971-12.181c-0.291-2.436-0.827-4.839-1.04-7.285c-0.214-2.458-0.054-4.926,0.054-7.386
			c0.228-5.223-0.026-10.383-0.555-15.583c-0.586-5.756-1.45-11.478-2.162-17.219c-0.681-5.489-0.97-11.009-1.466-16.516
			c-0.94-10.431-4.753-20.257-6.436-30.562c-1.567-9.589-1.902-18.652,1.503-27.876c0.793-2.149,1.728-4.25,2.84-6.253
			c-1.386-0.37-2.39-1.24-2.367-2.74c0.02-1.265,0.596-2.562,1.019-3.724c0.876-2.407,1.72-4.77,2.141-7.303
			c0.929-5.597,0.552-11.312,1.369-16.925c0.871-5.987,1.128-11.626,0.265-17.642c-0.915-6.381-2.845-12.476-4.748-18.614
			c-1.871-6.036-3.44-12.128-4.709-18.319c-2.337-11.403-4.414-23.212-2.298-34.805c0.28-1.535,0.617-3.06,1.006-4.571
			c0.31-1.205,0.82-2.168,0.414-3.322c-0.68-1.932-1.311-3.798-1.576-5.846c-0.414-3.199,0.157-5.881,1.317-8.866
			c4.162-10.715,2.053-22.611,2.426-33.807c0.208-6.244,1.239-12.378,2.543-18.477c1.314-6.145,2.685-12.328,4.81-18.252
			c1.737-4.843,4.017-9.652,7.74-13.293c3.218-3.148,7.263-5.347,11.527-6.727c5.374-1.739,11.644-2.564,17.289-2.54
			c3.488,0.015,6.708,1.002,9.786,2.612c4.202,2.198,8.5,5.707,7.398,11.084c-0.129,0.632-0.358,1.248-0.879,1.66
			c3.871,4.45,7.751,10.02,9.022,15.878c0.365,1.68,0.537,3.484,0.253,5.191c-0.217,1.307-0.887,2.473-0.905,3.815
			c-0.052,3.874,3.273,6.581,4.346,10.111c0.244,0.802,0.464,1.737-0.312,2.289c-0.906,0.645-2.34,0.016-3.239,0.621
			c-0.993,0.669-0.144,1.987,0.004,2.917c0.209,1.312-0.223,2.455-0.587,3.707c-0.395,1.362-0.149,2.499-0.301,3.867
			c-0.113,1.019-0.733,1.507-1.232,2.371c-1.073,1.859-0.029,4.399-0.478,6.487c-0.485,2.258-1.997,3.483-4.294,3.601
			c-3.722,0.191-7.92-2.246-11.536-0.971c-2.923,1.03-4.249,5.434-5.138,7.988c-0.369,1.062-0.68,2.146-0.885,3.252
			c-0.23,1.243-0.214,1.53,0.612,2.577c2.433,3.08,4.977,6.065,7.248,9.27c4.334,6.119,7.7,13.019,12.684,18.664
			c3.105,3.517,7.803,5.446,10.489,9.303c2.507,3.601,2.573,7.799,2.931,11.995c0.137,1.611,1.394,3.281,1.991,4.839
			c0.596,1.555,1.046,3.157,1.386,4.786c0.699,3.354,0.994,6.798,1.165,10.215c0.199,3.994,0.269,7.995,0.511,11.987
			c0.114,1.874,0.265,3.746,0.471,5.611c0.174,1.58,0.167,1.455,1.73,1.675c0.865,0.122,1.732,0.236,2.6,0.336
			c7.87,0.905,15.783,1.056,23.694,1.236c3.031,0.069,6.597-0.377,9.588,0.347c0.313,0.076,0.749,0.38,1.042,0.4
			c0.75,0.053,1.938-0.507,2.691-0.663c1.072-0.221,2.154-0.393,3.241-0.511c2.781-0.302,5.596-0.252,8.368,0.121
			c0.676,0.091,1.447,0.336,2.101,0.238c0.439-0.066,0.919-0.342,1.353-0.476c0.676-0.208,1.365-0.381,2.068-0.468
			c3.636-0.449,6.967,1.673,10.574,1.837c2.125,0.097,4.306-0.436,6.413-0.088c-0.329-1.674-0.085-3.311,1.849-3.551
			c2.505-0.311,5.238,0.614,7.72,0.866c3.696,0.375,7.421,0.44,11.133,0.421c1.977-0.01,3.953-0.03,5.929-0.091
			c0.845-0.026,1.691-0.057,2.536-0.097c0.443-0.021,1.098,0.066,1.508-0.083c0.655-0.239,0.5-0.031,0.491-0.873
			c-0.032-3.175-0.719-6.353-1.22-9.447c-0.471-2.909-0.257-6.031-0.243-8.968c0.018-3.567,0.228-7.124,0.896-10.634
			c1.297-6.811,3.999-13.348,6.935-19.598c1.607-3.42,3.352-6.777,5.21-10.068c0.833-1.475,2.213-3.109,2.696-4.706
			c0.395-1.306,0.358-2.888,0.623-4.245c0.648-3.325,1.582-6.61,2.746-9.79c0.529-1.445,1.117-2.869,1.836-4.231
			c0.555-1.052,1.247-1.876,1.272-3.017c0.061-2.836,1.3-5.464,3.299-7.508c0.529-0.541,1.12-1.008,1.757-1.417
			c0.898-0.578,1.137-0.908,1.593-1.852c1.185-2.448,2.807-4.752,4.292-7.027c0.16-0.245,0.456-0.516,0.569-0.775
			c0.052-0.118,0.316-0.235,0.339-0.358c0.056-0.309-0.428-0.989-0.558-1.32c-0.227-0.579-0.435-1.166-0.575-1.772
			c-0.337-1.467-0.077-2.905-0.205-4.385c-0.076-0.879-0.236-1.437-1.164-1.583c-0.735-0.116-1.655,0.199-2.353,0.338
			c-1.729,0.346-3.458,0.698-5.209,0.915c-2.195,0.272-5.768,0.786-7.245-1.416c-1.436-2.14,0.243-4.686-0.273-6.99
			c-0.276-1.232-1.229-2.189-1.521-3.404c-0.236-0.981,0.217-1.711,0.344-2.68c0.256-1.957-1.338-3.37-1.475-5.237
			c-0.075-1.016,0.67-2.618,0.045-3.55c-0.654-0.976-2.468-0.384-3.379-0.427c-7.039-0.33,1.584-11.844,2.608-13.854
			c1.325-2.601-0.089-4.114-0.434-6.707c-0.306-2.295,0.355-5.188,0.864-7.433c0.404-1.784,1.041-3.488,1.885-5.109
			c1.498-2.878,3.431-5.547,5.383-8.129c-1.892-0.872-3.31-2.026-4.495-3.731c-1.318-1.897-2.773-3.491-2.803-5.854
			c-0.019-1.496,0.037-4.236,1.437-5.248c1.202-0.868,2.941,0.034,4.322-0.475c0.931-0.343,1.717-0.959,2.708-1.147
			c1.165-0.22,2.41,0.027,3.566,0.161c2.643,0.304,4.974-0.486,7.59-0.595c1.796-0.075,3.582,0.264,5.373,0.339
			c1.818,0.076,3.584-0.199,5.386-0.412c2.797-0.331,4.443,0.3,7.011,1.264c4.153,1.559,8.561-1.064,12.406,1.331
			c2.881,1.794,5.168,3.83,8.276,5.212c1.769,0.787,3.169,2,4.404,3.48c3.556,4.258,5.343,9.043,4.739,14.535
			c-0.272,2.475-0.651,4.919-0.633,7.414c0.019,2.683,0.328,5.352,0.531,8.024c0.229,3.027-0.141,5.193-1.382,7.992
			c-0.831,1.873-1.749,3.729-2.916,5.418c-0.933,1.35-2.055,2.568-2.891,3.984c-1.83,3.101-2.541,6.772-4.6,9.76
			c-0.479,0.695-1.318,1.044-1.761,1.606c-0.288,0.365-0.512,3.118-0.075,3.614c0.336,0.382,1.243,0.3,1.677,0.86
			c0.41,0.53,0.53,1.279,0.608,1.922c0.135,1.108,0.094,2.29-0.153,3.379c2.039,0.156,2.294,3.936,2.179,5.451
			c-0.039,0.52-0.107,1.026-0.485,1.415c6.681,6.077,12.631,13.543,15.662,22.141c2.902,8.232,3.455,17.018,2.913,25.669
			c-0.701,11.18-1.419,22.394-2.536,33.542c-1.195,11.925-3.267,23.76-5.061,35.605c-0.231,1.528-0.665,3.147-0.603,4.69
			c0.111,2.728,0.702,5.494,0.999,8.216c0.625,5.719,1.152,11.442,1.585,17.178c0.783,10.365,1.289,20.817,0.868,31.209
			c-0.052,1.284-0.12,2.567-0.197,3.85c-0.076,1.25-0.654,3.267-0.306,4.401c0.169,0.55,0.403,0.429,1.011,0.623
			c0.392,0.125,0.771,0.287,1.13,0.487c1.487,0.829,2.576,2.278,2.959,3.937c0.449,1.942-0.235,4.053-0.582,5.951
			c-1.304,7.121-2.607,14.242-3.911,21.363c-1.156,6.313-2.311,12.626-3.467,18.939c-0.284,1.554-0.538,3.009-1.588,4.259
			c-1.025,1.22-2.519,2-4.106,2.142c-0.185,0.017-0.994-0.097-1.107-0.002c-0.456,0.384-0.352,3.241-0.408,3.87
			c-0.214,2.413-0.364,4.832-0.468,7.253c-0.381,8.841-1.2,18.612,1.722,27.12c3.566,10.384,5.974,21.041,8.867,31.627
			c1.327,4.855,2.782,9.675,4.37,14.451c1.607,4.833,3.295,9.589,4.103,14.635c1.469,9.171,1.357,18.59,1.414,27.855
			c0.074,11.998-0.089,24.023,0.308,36.016c0.348,10.522,1.493,20.803,4.206,30.995c1.309,4.915,2.931,9.771,3.718,14.809
			c0.313,2.004,0.737,4.504,0.007,6.493c-0.218,0.594-0.531,1.102-1.074,1.448c-0.26,0.166-0.682,0.183-0.907,0.355
			c-0.329,0.251-0.201-0.077-0.368,0.342c-0.124,0.311,0.122,1.125,0.151,1.473c0.166,1.998,0.644,5.074-0.486,6.938
			c-0.681,1.122-1.993,1.449-3.205,1.668c-3.915,0.708-8.045,0.474-12.007,0.478c-11.641,0.011-23.282-0.008-34.923-0.008
			c-3.537,0-7.075,0-10.612,0c-0.293,0-1.766,0.214-1.993,0c-0.42-0.396,0-3.267,0-3.906c-3.863,0.484-7.399,1.666-11.05,2.914
			c-3.03,1.036-6.486,0.936-9.639,0.995c-5.356,0.099-10.717-0.001-16.072-0.11c-3.379-0.069-7.106,0.137-10.366-0.95
			c-2.649-0.884-4.357-2.998-4.206-5.848c0.206-3.878,2.774-7.142,6.595-7.8c2.793-0.481,5.632-0.146,8.412-0.788
			c5.078-1.173,10.273-2.344,15.214-4.011c1.177-0.397,2.341-0.835,3.478-1.334c-0.961-0.91-1.047-2.152-0.778-3.379
			c0.751-3.417,2.784-6.38,3.149-9.93c0.463-4.505-0.898-9.234-1.613-13.635c-0.915-5.628-1.628-11.29-2.103-16.972
			c-1.002-11.973-1.273-23.998-2.074-35.984c-0.793-11.878-2.198-23.69-3.863-35.475c-1.675-11.86-3.707-23.666-5.676-35.479
			c-1.943-11.655-3.968-23.285-5.253-35.035c-1.273-11.644-1.848-23.383-1.859-35.095c-0.001-1.476-0.011-2.953,0.002-4.429
			c0.011-1.226,0.545-3.888-0.083-4.87c-0.407-0.636-1.764-1.222-2.374-1.73c-0.483-0.401-0.95-0.822-1.388-1.272
			c-1.411-1.449-2.454-3.17-3.148-5.067c-1.496-4.092-1.688-8.697-1.838-13.008c-0.196-5.606-0.008-11.228,0.311-16.826
			c0.647-11.327,1.654-22.813,4.278-33.875c0.738-3.111,1.505-6.216,2.257-9.324c-4.175,1.196-8.432,2.02-12.681,2.905
			c-3.089,0.643-6.233,1.696-9.397,1.88c-2.146,0.125-3.374-0.793-3.43-2.997c-0.079-3.127,0.813-6.3,0.919-9.446
			c-1.615,1.298-3.543,2.185-5.319,3.233c-0.838,0.494-1.644,0.999-2.651,0.883c-0.379-0.043-0.71-0.279-1.069-0.334
			c-0.66-0.101-0.967,0.084-1.576,0.529c-1.24,0.908-2.008,2.19-3.032,3.312c-1.309,1.435-2.81,1.84-4.741,1.602
			c-0.519-0.064-1.108-0.292-1.517-0.124c-0.309,0.127-0.602,0.632-0.931,0.816c-0.745,0.415-1.574,0.403-2.397,0.296
			c-2.777-0.361-5.689-1.377-8.308-2.345c-1.818-0.672-3.195-1.585-4.555-2.961c-0.005,2.151-0.222,4.325-2.743,4.528
			c-2.37,0.191-4.907-0.317-7.244-0.638c-4.085-0.56-8.164-1.175-12.245-1.762c-4.244-0.611-8.489-1.221-12.733-1.832
			c2.623,9.953,5.42,19.883,7.392,29.993c0.191,0.979,0.827,3.2-0.248,3.971c-1.18,0.847-3.821-0.547-4.839-0.96
			c-4.891-1.988-9.612-3.777-14.795-4.853c0.01,7.327-1.81,14.526-2.29,21.823c-0.538,8.186-0.462,16.412-0.691,24.61
			c-0.427,15.303-2.129,30.625-4.312,45.768c-1.216,8.436-2.704,16.815-4.195,25.205c-1.306,7.349-2.677,14.687-3.192,22.144
			c-0.558,8.062-0.319,16.156-0.774,24.223c-0.43,7.615-1.514,15.187-2.951,22.674c-1.554,8.093-3.313,16.146-4.855,24.242
			c-1.374,7.214-1.833,14.511-2.853,21.773c-1.136,8.091-2.677,16.218-3.123,24.39c-0.39,7.146,0.107,14.611,1.147,21.69
			c0.324,2.206,2.371,3.794,2.938,5.981c0.23,0.888-0.09,1.301-0.201,2.1c-0.045,0.322-0.182,0.151-0.112,0.486
			c0.07,0.334,0.742,0.854,0.977,1.099c0.91,0.946,1.907,1.814,2.952,2.608c1.196,0.909,2.301,1.543,3.713,1.883
			c1.82,0.438,3.413,1.537,5.169,2.174c2.496,0.904,5.17,1.103,7.714,1.83c2.041,0.583,4.766,1.822,5.351,4.097
			c0.592,2.304-2.225,3.674-3.975,4.291c-5.552,1.958-12.216,1.424-18.001,1.414c-4.131-0.007-8.272,0.056-12.403-0.064
			c-2.225-0.065-4.526-0.164-6.669-0.827c-1.367-0.423-2.598-1.123-3.739-1.982c-1.141-0.858-2.175-1.849-3.321-2.702
			c-0.586-0.436-1.197-0.837-1.815-1.227c-0.667-0.421-1.77-1.435-2.519-1.545c-0.792-0.117-2.047,0.382-2.862,0.489
			c-1.074,0.141-0.987,0.101-0.987,1.131c0,2.261,0,4.523,0,6.784c-1.201,0-2.402,0-3.603,0c-0.602,0-2.216,0.245-2.508-0.153
			c-0.463-0.632,0-3.176,0-3.97C256.374,666.156,256.374,665.032,256.374,663.907z"/>
	</g>
</g>
</svg>
