<?xml version="1.0" encoding="utf-8"?>
<!-- Generator: Adobe Illustrator 23.0.3, SVG Export Plug-In . SVG Version: 6.00 Build 0)  -->
<!DOCTYPE svg PUBLIC "-//W3C//DTD SVG 1.1//EN" "http://www.w3.org/Graphics/SVG/1.1/DTD/svg11.dtd" [
	<!ENTITY ns_extend "http://ns.adobe.com/Extensibility/1.0/">
	<!ENTITY ns_ai "http://ns.adobe.com/AdobeIllustrator/10.0/">
	<!ENTITY ns_graphs "http://ns.adobe.com/Graphs/1.0/">
	<!ENTITY ns_vars "http://ns.adobe.com/Variables/1.0/">
	<!ENTITY ns_imrep "http://ns.adobe.com/ImageReplacement/1.0/">
	<!ENTITY ns_sfw "http://ns.adobe.com/SaveForWeb/1.0/">
	<!ENTITY ns_custom "http://ns.adobe.com/GenericCustomNamespace/1.0/">
	<!ENTITY ns_adobe_xpath "http://ns.adobe.com/XPath/1.0/">
]>
<svg version="1.1" xmlns:x="&ns_extend;" xmlns:i="&ns_ai;" xmlns:graph="&ns_graphs;"
	 xmlns="http://www.w3.org/2000/svg" xmlns:xlink="http://www.w3.org/1999/xlink" x="0px" y="0px" viewBox="0 0 750 750"
	 enable-background="new 0 0 750 750" xml:space="preserve">
<metadata>
	<sfw  xmlns="&ns_sfw;">
		<slices></slices>
		<sliceSourceBounds  bottomLeftOrigin="true" height="4563.046" width="5566.062" x="-4095.062" y="1186.954"></sliceSourceBounds>
	</sfw>
</metadata>
<g id="FILL-BACKGROUND">
	<rect fill="#FFFFFF" width="750" height="750"/>
</g>
<g id="N-DIMENSIONS">
</g>
<g id="N-TEXT">
</g>
<g id="AG-DIAGRAM">
</g>
<g id="AG-DETAIL">
	<g id="POLYLINE_106_">
		
			<path fill="none" stroke="#FB8604" stroke-width="2.75" stroke-linecap="round" stroke-linejoin="round" stroke-miterlimit="10" d="
			M444.81,254.12c-3.249,2.443-6.358,4.898-7.787,8.835c-1.799,4.957-1.412,10.683-0.565,15.798
			c1.049,6.335,3.249,12.338,6.186,18.033c3.182,6.171,7.039,11.97,10.213,18.144c3.085,6,5.278,12.376,7.105,18.858
			c2.085,7.399,3.857,14.893,5.742,22.344c1.586,6.268,3.24,12.52,4.985,18.745c1.824,6.511,3.655,13.079,6.093,19.392
			c1.55,4.012,3.592,7.733,7.252,10.165c4.239,2.818,9.584,4.168,14.623,4.421c1.268,0.064,2.54,0.049,3.805-0.063"/>
	</g>
	<g id="POLYLINE_105_">
		
			<path fill="none" stroke="#FB8604" stroke-width="2.75" stroke-linecap="round" stroke-linejoin="round" stroke-miterlimit="10" d="
			M381.031,438.329c-4.109-5.441-6.764-11.695-9.382-17.953c-2.638-6.303-5.919-12.97-6.742-19.817
			c-0.802-6.67,0.252-13.625,1.231-20.221c1.026-6.909,2.341-13.772,3.781-20.605c1.525-7.237,3.177-14.436,3.717-21.83
			c0.531-7.286,0.619-14.599,1.372-21.869c0.676-6.529,1.8-13.073,3.933-19.297c2.22-6.476,5.718-12.281,10.491-17.198
			c4.973-5.124,10.927-9.338,17.047-12.978c5.492-3.267,11.279-6.072,17.322-8.165c1.627-0.563,3.273-1.06,4.932-1.52"/>
	</g>
	<g id="POLYLINE_102_">
		
			<path fill="none" stroke="#FB8604" stroke-width="2.75" stroke-linecap="round" stroke-linejoin="round" stroke-miterlimit="10" d="
			M518.57,343.951c1.606,1.559,3.561,3.392,5.817,2.029c2.467-1.49,4.14-4.971,7.397-4.748c1.961,0.134,3.788,1.112,5.704,1.496
			c2.018,0.405,4.117,0.393,6.157,0.171c3.563-0.388,7.395-1.391,10.198-3.744c2.281-1.915,3.78-4.709,4.424-7.593
			c0.092-0.412,0.166-0.827,0.224-1.245"/>
	</g>
	<g id="POLYLINE_101_">
		
			<path fill="none" stroke="#FB8604" stroke-width="2.75" stroke-linecap="round" stroke-linejoin="round" stroke-miterlimit="10" d="
			M594.393,318.915c0.019,3.138,0.475,5.324,2.619,7.712c3.319,3.697,7.437,6.582,10.782,10.266c2.136,2.353,4.05,4.897,6.006,7.398
			"/>
	</g>
	<g id="POLYLINE_100_">
		
			<path fill="none" stroke="#FB8604" stroke-width="2.75" stroke-linecap="round" stroke-linejoin="round" stroke-miterlimit="10" d="
			M146.967,462.161c1.852,3.067,3.734,6.382,7.38,7.494c3.773,1.151,8.081,0.226,11.723-0.924c5.536-1.748,10.731-4.662,15.235-8.31
			c5.635-4.564,10.266-10.202,15.13-15.54c3.844-4.219,8.032-8.558,13.392-10.798c2.827-1.181,5.971-1.747,9.009-1.164
			c2.68,0.515,4.998,1.923,6.924,3.829c4.405,4.361,7.176,10.3,10.37,15.519c3.324,5.429,7.531,9.465,12.544,13.333
			c1.882,1.453,3.709,2.895,5.181,4.78c1.926,2.467,3.577,5.099,5.606,7.495c1.105,1.306,2.237,2.589,3.365,3.875"/>
	</g>
</g>
<g id="AG-DETAILS">
</g>
<g id="AG-PEOPLE">
</g>
<g id="AG-ANIMALS">
	<g id="POLYLINE_36_">
		
			<path fill="none" stroke="#FB8604" stroke-width="2.75" stroke-linecap="round" stroke-linejoin="round" stroke-miterlimit="10" d="
			M558.492,330.316c0.088-4.051,0.397-8.174,1.303-12.131c0.474-2.069,1.05-4.139,0.791-6.279c-0.572-4.728-3.96-9.394-8.104-11.62
			c-5.017-2.694-10.883-3.901-16.402-2.249c-6.951,2.08-14.004,5.916-18.299,11.891c-2.635,3.665-4.7,7.878-5.936,12.223
			c-0.588,2.067-1.01,4.266-0.771,6.422c0.437,3.938,3.566,5.511,5.653,8.559c2.923,4.27,2.087,10.781,0.738,15.4
			c-2.508,8.581-8.407,15.824-12.198,23.842c-3.842,8.126-4.879,16.764-3.895,25.652c0.932,8.414,3.31,16.754,7.732,24.016
			c4.559,7.486,10.661,14.738,17.405,20.35c6.995,5.822,15.417,8.963,24.155,11.147c6.24,1.56,13.599,2.02,18.488,6.662
			c3.915,3.717,6.625,8.235,11.958,10.009c4.334,1.441,10.465,1.876,14.328-1.119c3.036-2.354,4.008-6.815,7.853-8.084
			c3.427-1.131,6.939-1.601,10.27-3.081c2.876-1.278,5.724-2.888,8.028-5.058c2.808-2.645,3.855-6.002,3.634-9.8
			c-0.232-3.992-1.354-8.019-3.046-11.633c-1.427-3.048-2.452-5.649-2.814-9.015c-0.413-3.836-0.803-7.348-2.358-10.906
			c-1.43-3.271-2.441-6.293-2.558-9.898c-0.142-4.38,0.399-8.878,1.674-13.074"/>
	</g>
	<g id="POLYLINE_35_">
		
			<path fill="none" stroke="#FB8604" stroke-width="2.75" stroke-linecap="round" stroke-linejoin="round" stroke-miterlimit="10" d="
			M539.67,499.663c1.53,2.79,2.136,6.243,1.775,9.396c-0.322,2.803-1.72,5.514-4.543,6.479c-2.16,0.738-4.569,0.492-6.8,0.903
			c-2.352,0.433-4.664,1.231-6.815,2.27c-2.012,0.971-4.813,2.417-5.193,4.882c-0.185,1.202,0.22,2.435-0.095,3.624
			c-0.284,1.072-1.055,1.973-1.84,2.722c-2.475,2.359-6.24,3.263-8.051,6.32c-1.309,2.209-1.482,5.483-0.298,7.794
			c0.47,0.917,1.22,1.232,1.899,1.949c0.799,0.845,0.862,2.118,1.083,3.199c0.201,0.986,0.429,2.005,1.086,2.796
			c0.836,1.006,2.122,1.43,3.141,2.201c1.323,1.001,2.231,2.459,3.45,3.58c1.156,1.064,2.455,2.018,3.89,2.671
			c2.496,1.135,5.511,0.479,7.844,1.953c1.784,1.127,3.186,3.821,5.563,3.655c1.589-0.111,3.136-1.261,4.471-1.971
			c1.313-0.698,2.66-1.296,4.157-1.432c3.517-0.32,7.016,1.461,10.5,0.48c2.644-0.745,4.921-2.71,6.561-4.848
			c1.673-2.182,2.847-4.744,4.243-7.104c1.643-2.778,3.371-5.509,5.211-8.161c3.323-4.791,7.316-9.61,8.69-15.411
			c1.153-4.871,0.388-10.045-0.927-14.798c-0.887-3.206-1.911-6.342-2.597-9.601c-0.806-3.828-1.472-7.689-2.199-11.533
			c-1.272-6.718-2.868-13.349-4.519-19.982c-0.767-3.083-1.57-6.157-2.357-9.235"/>
	</g>
	<g id="POLYLINE_31_">
		
			<path fill="none" stroke="#FB8604" stroke-width="2.75" stroke-linecap="round" stroke-linejoin="round" stroke-miterlimit="10" d="
			M607.056,459.613c-2.879-0.492-5.262-2.805-6.663-5.256c-1.006-1.76-2.766-5.847-1.118-7.698c0.835-0.938,2.266-0.222,3.202,0.174
			c2.866,1.214,5.488,2.426,8.624,2.667c3.047,0.235,6.433-0.558,9.398,0.265c0.976,0.271,1.823,0.904,1.461,2.007
			c-0.62,1.887-3.51,3.36-5.006,4.257c-2.455,1.472-5.335,3.337-8.268,3.632C608.143,459.715,607.595,459.704,607.056,459.613z"/>
	</g>
	<g id="POLYLINE_30_">
		
			<path fill="none" stroke="#FB8604" stroke-width="2.75" stroke-linecap="round" stroke-linejoin="round" stroke-miterlimit="10" d="
			M571.268,428.795c-3.381-0.548-7.664-1.572-9.691-4.658c-2.049-3.12-1.483-7.521-0.7-10.925c0.827-3.592,2.328-7.095,5.188-9.518
			c1.729-1.464,3.738-2.571,5.323-4.206c1.934-1.995,3.342-4.441,5.426-6.301c1.673-1.492,3.841-2.795,6.163-2.669
			c2.834,0.154,5.224,2.393,6.819,4.558c1.708,2.319,2.861,5.125,3.017,8.019c0.152,2.822-0.828,5.272-2.47,7.526
			c-1.919,2.635-4.197,4.994-6.145,7.611c-1.801,2.419-3.061,5.08-4.64,7.631c-1.315,2.123-2.906,3.226-5.479,3.212
			C573.804,429.074,571.268,428.937,571.268,428.795z"/>
	</g>
	<g id="POLYLINE_29_">
		
			<path fill="none" stroke="#FB8604" stroke-width="2.75" stroke-linecap="round" stroke-linejoin="round" stroke-miterlimit="10" d="
			M618.821,421.559c2.786-3.689,4.649-9.147,3.32-13.755c-0.634-2.197-2.571-3.554-3.454-5.597c-0.882-2.04,0.135-4.208-0.071-6.315
			c-0.153-1.561-1.298-2.469-2.495-3.35"/>
	</g>
	<g id="POLYLINE_19_">
		
			<path fill="none" stroke="#FB8604" stroke-width="2.75" stroke-linecap="round" stroke-linejoin="round" stroke-miterlimit="10" d="
			M619.486,427.501c2.368-2.042,4.641-4.503,5.484-7.595c0.555-2.035,0.495-4.186,0.55-6.275c0.061-2.291,0.327-4.434,0.964-6.638
			c1.276-4.412,2.433-7.976,1.599-12.554c-0.58-3.184-1.464-6.307-2.072-9.488c-0.604-3.16-1.096-6.35-1.844-9.481
			c-0.79-3.307-2.02-6.485-3.08-9.71c-1.129-3.435-2.151-6.907-3.217-10.362c-0.833-2.698-1.666-5.422-2.818-8.005
			c-0.66-1.481-1.396-2.793-1.362-4.45c0.095-4.528,2.624-8.595,3.604-12.917c1.165-5.141,0.329-10.995-0.404-16.14
			c-0.445-3.123-1.782-16.975-7.993-13.651c-3.57,1.91-5.778,6.216-7.494,9.664c-1.332,2.676-2.632,7.491-5.824,8.735
			c-2.691,1.049-5.546-0.744-7.665-2.246c-5.397-3.827-10.17-8.358-15.845-11.82c-5.347-3.262-10.916-6.13-16.001-9.808
			c-5.668-4.1-11.254-8.239-17.178-11.968c-11.232-7.072-22.842-13.659-34.618-19.783c-5.785-3.008-11.593-6.174-17.897-7.967
			c-6.118-1.741-12.572-2.423-18.912-2.666c-6.114-0.235-12.213,0.089-18.262,1.009c-6.727,1.023-13.366,2.577-20.118,3.444
			c-12.898,1.657-25.929,0.374-38.881,0.707c-6.967,0.179-13.911,0.824-20.855,1.38c-6.73,0.539-13.456,0.832-20.202,1.085
			c-12.868,0.482-25.329,2.094-37.602,6.12c-12.6,4.134-24.693,9.734-36.735,15.245c-12.394,5.673-25.043,11.204-36.698,18.317
			c-11.132,6.794-20.095,16.34-28.782,25.943c-9.032,9.983-17.636,20.366-25.823,31.052c-7.992,10.431-15.521,21.242-21.674,32.874
			c-2.97,5.614-5.794,11.43-7.711,17.499c-0.801,2.537-1.411,5.134-1.728,7.777c-0.371,3.093-0.3,6.222-0.68,9.313
			c-0.219,1.783-0.838,3.291-1.487,4.956c-0.702,1.801-0.999,3.656-1.151,5.578c-0.493,6.242,0.406,12.526-0.149,18.752
			c-0.514,5.776-2.717,11.484-4.947,16.789c-2.524,6.004-5.852,11.524-8.796,17.313c-0.872,1.715-1.603,3.497-1.972,5.391
			c-0.327,1.679-0.162,3.394-0.461,5.068c-0.305,1.708-1.329,3.048-2.283,4.455c-1.014,1.496-1.801,2.979-2.214,4.749
			c-0.643,2.754-1.016,5.545-1.741,8.286c-0.475,1.797-0.827,3.656-1.577,5.36c-0.583,1.324-1.181,2.641-1.797,3.95
			c-2.789,5.927-6.384,11.423-9.175,17.338c-1.369,2.903-2.509,6.098-2.153,9.355c0.418,3.827,2.619,7.26,4.909,10.243
			c4.007,5.22,8.684,9.932,13.2,14.702c3.232,3.414,6.576,7.746,10.953,9.771c4.154,1.922,9.338,1.493,13.785,1.599
			c6.708,0.16,13.418,0.129,20.127,0.134c6.648,0.004,13.362,0.222,19.999-0.272c3.06-0.228,7.091-0.4,9.589-2.505
			c2.217-1.868,2.274-5.332,2.462-7.968c0.189-2.648-0.112-5.234-1.307-7.626c-3.452-6.911-11.161-6.688-17.909-6.564
			c-2.478,0.045-4.963-0.16-6.894-1.865c-1.382-1.22-3.021-3.435-2.669-5.396c0.359-2.001,3.224-1.77,4.668-2.488
			c0.899-0.447,1.663-1.102,2.359-1.817c2.029-2.084,4.023-4.203,6.058-6.286c3.196-3.272,4.869-7.66,8.374-10.639
			c2.047-1.74,4.144-3.348,5.888-5.409c1.772-2.094,2.899-4.395,3.996-6.883c1.492-3.386,3.681-5.413,6.676-7.573
			c2.163-1.56,4.395-3.072,6.283-4.97c2.101-2.112,3.661-4.647,5.252-7.144c1.698-2.665,3.518-5.192,6.362-6.71
			c3.453-1.843,7.656-1.762,11.014-3.778c1.16-0.696,1.856-1.648,2.515-2.803c0.53-0.928,1.004-1.825,2.024-2.27
			c2.104-0.919,4.405-0.085,6.094-1.946c0.736-0.811,1.265-1.765,2.307-2.216c1.303-0.565,2.797-0.297,4.136-0.722
			c2.077-0.659,2.401-3.121,4.205-4.144c0.879-0.498,1.919-0.634,2.908-0.725c2.631-0.241,5.113-0.443,7.644-1.278
			c4.46-1.472,8.702-2.664,13.464-1.865c5.203,0.873,9.525,4.081,14.492,5.637c5.881,1.842,12.313,2.377,18.415,3.013
			c6.136,0.639,12.459,1.336,18.633,0.968c5.854-0.348,11.899-1.747,17.39-3.774c2.832-1.046,5.598-2.271,8.485-3.165
			c2.961-0.917,6.035-1.471,8.94-2.569c2.869-1.084,5.146-2.756,6.833-5.34"/>
	</g>
	<g id="POLYLINE_18_">
		
			<path fill="none" stroke="#FB8604" stroke-width="2.75" stroke-linecap="round" stroke-linejoin="round" stroke-miterlimit="10" d="
			M284.381,473.963c0.421,4.865,2.515,9.547,5.862,13.137c2.031,2.178,4.657,3.576,6.881,5.517c1.667,1.454,2.376,3.334,3.428,5.24
			c3.359,6.086,9.872,9.904,14.816,14.537c1.434,1.344,2.54,2.837,3.256,4.675c0.826,2.12,1.322,4.23,2.814,5.994
			c2.07,2.448,4.285,4.459,5.975,7.245c1.064,1.754,1.808,3.892,3.451,5.202c3.701,2.951,3.449,7.488,4.32,11.749
			c0.477,2.332,1.841,4.274,2.737,6.448c1.433,3.475,1.967,7.268,3.003,10.867c1.082,3.762,2.738,7.323,4.124,10.976
			c0.789,2.08,1.76,3.957,3.142,5.707c2.783,3.525,5.865,5.213,10.282,5.832c7.999,1.121,16.256,0.85,24.311,0.79
			c3.824-0.028,7.652-0.056,11.475-0.157c4.201-0.111,8.533,0.034,12.707-0.554c3.032-0.428,5.659-1.599,6.732-4.676
			c1.473-4.226-0.323-9.122-1.232-13.239c-0.721-3.269-1.783-6.05-4.523-8.124c-2.168-1.642-4.714-2.498-7.431-2.242
			c-3.089,0.291-7.699,1.865-9.919-1.308c-0.768-1.098-1.064-2.469-1.169-3.783c-0.097-1.21-0.04-2.424-0.226-3.628
			c-0.249-1.614-0.764-3.175-1.093-4.773c-1.574-7.641-0.095-15.248-0.099-22.941c-0.002-3.57-0.45-7.011-1.016-10.527
			c-0.517-3.212-0.275-6.4-0.605-9.617c-0.255-2.486-1.488-4.683-2.209-7.046c-1.071-3.51-1.733-7.144-2.373-10.753
			c-0.711-4.013-1.327-8.005-2.535-11.903"/>
	</g>
	<g id="POLYLINE_17_">
		
			<path fill="none" stroke="#FB8604" stroke-width="2.75" stroke-linecap="round" stroke-linejoin="round" stroke-miterlimit="10" d="
			M390.656,359.155c-2.932,5.596-5.755,11.234-7.743,17.247c-1.962,5.935-3.021,12.074-3.471,18.299
			c-0.967,13.358,0.308,26.762,1.306,40.077c0.467,6.224,1.097,12.466,1.099,18.714c0.002,6.072,0.551,11.907,2.274,17.758
			c1.346,4.573,3.281,8.556,6.64,11.965c2.281,2.314,4.134,4.282,4.408,7.634c0.183,2.237-0.145,4.486-0.522,6.686
			c-0.301,1.759-0.822,3.664-0.479,5.463c0.593,3.108,3.357,5.384,3.693,8.589c0.161,1.541-0.365,3.062-0.227,4.6
			c0.126,1.407,0.965,2.54,1.615,3.752c1.706,3.18,0.688,6.365,1.08,9.796c0.278,2.432,2.351,3.845,3.211,6.033
			c1.139,2.897,1.452,5.724,3.732,7.984c2.612,2.59,5.004,4.256,6.204,7.831c0.684,2.037,1.018,4.232,1.964,6.174
			c0.732,1.503,2.023,2.541,2.973,3.886c2.483,3.517,1.936,8.441,3.094,12.427c0.988,3.402,3.543,5.726,6.23,7.891
			c1.784,1.437,3.625,2.849,5.734,3.776c2.357,1.036,4.916,1.457,7.461,1.721c5.157,0.536,10.367,0.461,15.545,0.456
			c15.048-0.014,30.097-0.005,45.145-0.094c5.834-0.034,11.918,0.162,17.694-0.776c2.666-0.433,5.213-1.389,6.333-4.035
			c2.101-4.965-0.133-11.194-3.223-15.211c-1.691-2.198-3.876-4.083-6.518-5.016c-3.212-1.134-6.673-0.748-9.932-0.038
			c-5.455,1.19-10.93,3.614-16.57,3.723c-2.153,0.042-4.393-0.411-6.164-1.692c-2.874-2.079-3.125-5.999-3.461-9.234
			c-0.667-6.432-1.43-12.911-1.744-19.369c-0.142-2.933,0.127-5.77,0.286-8.693c0.073-1.34,0.023-2.644-0.36-3.937
			c-0.698-2.357-1.532-4.518-1.986-6.951c-0.61-3.27-1.19-6.543-1.828-9.807c-1.223-6.261-2.228-12.199-1.849-18.606
			c0.314-5.309,1.415-10.549,4.184-15.147c1.606-2.666,3.771-5.302,6.676-6.597c2.88-1.283,5.926-1.345,8.223-3.737
			c5.374-5.597,4.172-14.975,9.661-20.489c3.631-3.647,7.905-7.377,12.427-9.89"/>
	</g>
	<g id="POLYLINE_15_">
		
			<path fill="none" stroke="#FB8604" stroke-width="2.75" stroke-linecap="round" stroke-linejoin="round" stroke-miterlimit="10" d="
			M481.623,467.283c1.027,5.092,2.081,10.222,3.898,15.102c1.79,4.809,4.131,9.389,5.933,14.202
			c1.074,2.869,2.105,5.964,4.333,8.171c1.183,1.171,2.609,2.079,3.971,3.022c2.216,1.533,4.393,3.118,6.543,4.742
			c4.132,3.12,8.577,6.156,12.17,9.903"/>
	</g>
</g>
<g id="AG-OUTLINE">
	<g id="POLYLINE_6_">
		
			<path fill="none" stroke="#FB8604" stroke-width="3.5" stroke-linecap="round" stroke-linejoin="round" stroke-miterlimit="10" d="
			M567,462.46c3.81,2.529,6.024,6.792,9.696,9.485c2.905,2.13,6.464,3.101,10.033,3.28c2.973,0.149,6.252-0.243,8.682-2.112
			c2.507-1.928,3.471-5.228,5.931-7.127c0.995-0.768,2.224-1.089,3.427-1.378c2.82-0.678,5.592-1.313,8.27-2.453
			c3.724-1.585,7.798-3.793,10.218-7.16c1.426-1.983,1.999-4.331,2.002-6.749c0.004-2.992-0.638-6.008-1.538-8.85
			c-0.843-2.66-2.243-5.039-3.236-7.63c-0.316-0.825-0.556-1.671-0.727-2.537c-0.127-0.646-0.37-1.397-0.057-1.914
			c0.291-0.479,1.02-0.92,1.423-1.325c1.144-1.149,2.191-2.421,2.955-3.857c1.88-3.538,1.171-7.571,1.613-11.408
			c0.501-4.349,2.844-8.332,2.776-12.765c-0.042-2.783-0.802-5.508-1.432-8.199c-0.782-3.342-1.382-6.718-2.01-10.092
			c-1.181-6.348-3.471-12.326-5.37-18.479c-1.088-3.523-2.114-7.074-3.339-10.553c-0.714-2.028-1.897-3.958-2.443-6.028
			c-0.328-1.245-0.16-2.533,0.083-3.778c0.577-2.962,1.681-5.782,2.679-8.617c1.658-4.708,1.178-9.903,0.684-14.781
			c-0.508-5.021-1.041-10.969-3.576-15.443c-0.89-1.571-2.208-2.733-4.071-2.102c-3.51,1.188-5.869,5.488-7.478,8.479
			c-1.36,2.528-2.359,5.273-3.887,7.706c-0.549,0.874-1.199,1.725-2.101,2.257c-2.036,1.202-4.448,0.403-6.352-0.68
			c-5.453-3.102-9.862-7.9-15.095-11.369c-5.63-3.731-11.745-6.668-17.293-10.527c-5.552-3.861-10.861-8.025-16.561-11.676
			c-6.109-3.913-12.369-7.587-18.661-11.196c-5.768-3.308-11.599-6.523-17.485-9.617c-5.902-3.103-11.874-6.359-18.316-8.201
			c-6.248-1.787-12.848-2.469-19.325-2.696c-6.282-0.219-12.527,0.165-18.735,1.146c-6.891,1.089-13.697,2.69-20.635,3.479
			c-6.127,0.697-12.291,0.728-18.449,0.655c-7.408-0.087-14.83-0.324-22.235-0.003c-7.268,0.315-14.518,1.028-21.768,1.598
			c-6.537,0.513-13.1,0.596-19.648,0.917c-6.72,0.329-13.426,0.908-20.036,2.204c-6.45,1.264-12.766,3.197-18.937,5.446
			c-6.194,2.257-12.294,4.773-18.313,7.462c-6.833,3.053-13.668,6.103-20.456,9.256c-6.446,2.994-12.86,6.056-19.191,9.287
			c-5.792,2.956-11.54,6.128-16.783,9.991c-5.357,3.948-10.136,8.627-14.757,13.398c-4.779,4.934-9.386,10.043-13.887,15.231
			c-4.556,5.252-9.015,10.593-13.35,16.029c-4.416,5.536-8.75,11.14-12.888,16.888c-3.92,5.446-7.657,11.022-11.071,16.8
			c-3.428,5.803-6.582,11.788-9.24,17.984c-2.329,5.428-4.119,10.99-4.558,16.907c-0.206,2.773-0.115,5.632-0.667,8.369
			c-0.357,1.77-1.265,3.341-1.767,5.065c-0.679,2.331-0.758,4.836-0.823,7.246c-0.099,3.662,0.052,7.325,0.112,10.986
			c0.093,5.707-1.118,10.903-3.022,16.267c-2.165,6.099-4.988,11.911-8.1,17.577c-2.25,4.097-4.758,8.045-4.993,12.829
			c-0.077,1.575-0.07,3.03-0.789,4.47c-0.943,1.888-2.467,3.428-3.278,5.395c-0.927,2.248-1.055,4.754-1.572,7.11
			c-0.709,3.231-1.463,6.518-2.816,9.538c-2.794,6.234-6.246,12.043-9.421,18.077c-1.747,3.32-3.492,7.018-3.289,10.868
			c0.19,3.591,2.05,6.877,4.102,9.732c4.045,5.631,9.075,10.579,13.821,15.606c3.28,3.474,6.673,7.882,11.095,9.979
			c4.278,2.029,9.688,1.544,14.28,1.654c7.04,0.168,14.085,0.121,21.126,0.125c6.637,0.004,13.371,0.262,19.986-0.39
			c2.778-0.274,6.549-0.59,8.627-2.786c2.093-2.212,2.1-6.347,2.102-9.142c0.002-2.51-0.62-4.956-1.952-7.095
			c-1.362-2.186-3.347-3.753-5.781-4.593c-4.718-1.629-9.54-0.426-14.351-1.038c-2.058-0.262-3.779-1.185-5.084-2.802
			c-0.941-1.165-2.596-3.85-1.225-5.306c0.773-0.821,2.259-0.828,3.245-1.143c0.925-0.295,1.748-0.782,2.487-1.407
			c1.701-1.438,3.031-3.3,4.629-4.855c2.015-1.962,3.966-3.881,5.503-6.25c1.282-1.976,2.395-4.04,4.106-5.689
			c1.911-1.843,4.125-3.325,5.957-5.259c1.754-1.851,3.205-3.942,4.241-6.276c0.761-1.716,1.424-3.476,2.562-4.988
			c2.822-3.753,7.473-5.715,10.821-8.947c3.654-3.529,5.405-8.511,9.021-12.027c2.578-2.508,5.836-3.33,9.24-4.209
			c1.689-0.436,3.483-0.892,4.957-1.872c1.263-0.84,1.83-2.017,2.597-3.278c1.449-2.383,3.665-1.618,6.015-2.38
			c1.952-0.633,2.497-2.948,4.468-3.545c1.357-0.411,2.881-0.135,4.184-0.751c1.118-0.529,1.617-1.657,2.31-2.611
			c1.677-2.309,4.401-2.021,6.985-2.272c4.346-0.422,8.199-2.629,12.547-3.063c-0.477,0,1.3,5.804,1.489,6.236
			c1.125,2.582,2.624,5.1,4.588,7.133c2.07,2.143,4.743,3.509,6.918,5.514c1.651,1.522,2.315,3.589,3.443,5.48
			c3.674,6.161,10.348,9.703,15.229,14.733c3.042,3.135,3.118,7.728,6.171,10.854c2.469,2.528,4.523,5.113,6.235,8.221
			c0.501,0.908,0.968,1.914,1.662,2.702c0.498,0.566,1.171,0.913,1.699,1.445c3.28,3.304,2.369,8.279,3.723,12.321
			c0.924,2.759,2.552,5.156,3.351,7.99c1.079,3.823,1.798,7.72,3.185,11.453c1.978,5.326,3.731,11.017,7.816,15.142
			c3.665,3.701,8.56,4.064,13.547,4.382c8.494,0.542,17.034,0.345,25.538,0.239c4.313-0.054,8.624-0.143,12.935-0.283
			c2.579-0.084,5.335-0.095,7.795-0.982c2.643-0.953,4.096-3.26,4.435-5.982c0.257-2.057-0.111-4.13-0.539-6.138
			c-0.632-2.964-1.04-6.204-2.246-9.014c-1.126-2.626-3.369-4.654-5.975-5.777c-3.543-1.527-6.743,0.015-10.409-0.093
			c-3.156-0.093-5.007-1.87-5.462-4.969c-0.366-2.494-0.336-4.781-0.955-7.256c-0.9-3.601-1.3-7.275-1.242-10.985
			c0.065-4.182,0.602-8.342,0.683-12.525c0.069-3.589-0.213-7.111-0.801-10.649c-0.576-3.467-0.52-6.804-0.763-10.293
			c-0.178-2.556-1.332-4.71-2.106-7.119c-1.108-3.451-1.781-7.052-2.412-10.616c-0.424-2.393-0.821-4.794-1.274-7.182
			c-0.218-1.149-1.556-4.462-1.016-5.195c0.434-0.588,1.453-1.04,1.999-1.585c0.701-0.7,1.307-1.492,1.848-2.321
			c0.074,0,1.9,6.101,2.144,6.69c0.66,1.593,1.436,3.152,2.435,4.562c1.765,2.49,4.448,4.265,6.001,6.898
			c0.994,1.687,1.206,3.671,1.162,5.595c-0.077,3.334-1.543,6.777-1.096,10.091c0.328,2.433,2.114,4.384,3.072,6.57
			c1.014,2.312,0.35,4.227,0.431,6.635c0.074,2.204,1.803,3.813,2.413,5.86c0.749,2.514,0.055,5.187,0.275,7.752
			c0.172,2.004,1.36,3.115,2.434,4.725c1.361,2.042,1.533,4.604,2.558,6.802c1.009,2.164,2.886,3.515,4.611,5.089
			c1.616,1.475,2.731,3.097,3.46,5.165c0.973,2.76,1.269,5.845,3.175,8.174c1.694,2.071,2.882,3.611,3.448,6.275
			c0.674,3.173,0.703,6.586,1.953,9.616c1.113,2.698,3.384,4.672,5.599,6.471c2.868,2.329,5.756,4.235,9.411,5.045
			c4.326,0.958,8.863,0.98,13.272,1.041c11.291,0.156,22.592,0.007,33.884-0.003c8.919-0.008,17.846,0.048,26.761-0.242
			c4.563-0.148,12.674,0.571,14.823-4.755c1.453-3.601,0.582-7.99-1.011-11.383c-1.808-3.851-4.931-7.49-9.085-8.83
			c-6.387-2.061-13.554,1.171-19.669,2.703c-4.16,1.042-9.397,2.133-13.057-0.888c-1.661-1.371-2.242-3.358-2.61-5.405
			c-0.859-4.765-1.057-9.693-1.514-14.51c-0.432-4.558-1.022-9.16-0.695-13.746c0.197-2.772,0.592-5.343-0.33-8.01
			c-1.459-4.221-2.127-8.479-2.957-12.868c-0.906-4.794-2.201-9.621-2.489-14.507c-0.468-7.929,0.264-16.479,4.744-23.27
			c1.229-1.863,2.732-3.645,4.6-4.896c1.306,6.477,2.767,12.865,5.481,18.918c1.359,3.03,2.718,6.027,3.883,9.139
			c0.929,2.482,1.761,5.102,3.17,7.365c2.357,3.787,6.936,5.938,10.41,8.519c3.044,2.261,6.038,4.587,9.018,6.932
			c1.187,0.934,2.385,1.868,3.507,2.88c0.472,0.426,1.266,1.032,1.287,1.572c0.01,0.261-0.238,0.682-0.282,0.965
			c-0.122,0.771,0.014,1.549,0.023,2.323c0.012,0.943-0.166,1.719-0.672,2.522c-1.9,3.021-5.623,3.915-8.096,6.3
			c-2.13,2.054-2.745,5.217-2.015,8.037c0.24,0.925,0.627,1.8,1.349,2.445c0.666,0.596,1.266,0.886,1.6,1.746
			c0.562,1.447,0.426,3.118,1.208,4.495c0.48,0.845,1.268,1.377,2.085,1.866c3.017,1.807,4.776,4.931,7.882,6.682
			c2.559,1.442,5.488,0.878,8.078,2.051c2.115,0.958,3.39,3.872,5.838,4.023c0.941,0.058,1.869-0.387,2.686-0.798
			c1.751-0.883,3.419-2.052,5.368-2.469c3.599-0.77,7.173,1.179,10.769,0.501c2.694-0.508,5.043-2.372,6.773-4.415
			c1.602-1.892,2.675-4.167,3.907-6.301c1.719-2.977,3.536-5.896,5.468-8.74c3.34-4.919,7.481-9.737,9.087-15.586
			c1.314-4.787,0.677-9.935-0.553-14.666c-0.846-3.251-1.946-6.417-2.661-9.704c-0.832-3.823-1.488-7.687-2.216-11.53
			c-1.31-6.919-2.93-13.748-4.627-20.581C568.604,468.665,567.793,465.564,567,462.46z"/>
	</g>
</g>
</svg>
