<?xml version="1.0" encoding="utf-8"?>
<!-- Generator: Adobe Illustrator 23.0.3, SVG Export Plug-In . SVG Version: 6.00 Build 0)  -->
<!DOCTYPE svg PUBLIC "-//W3C//DTD SVG 1.1//EN" "http://www.w3.org/Graphics/SVG/1.1/DTD/svg11.dtd" [
	<!ENTITY ns_flows "http://ns.adobe.com/Flows/1.0/">
	<!ENTITY ns_extend "http://ns.adobe.com/Extensibility/1.0/">
	<!ENTITY ns_ai "http://ns.adobe.com/AdobeIllustrator/10.0/">
	<!ENTITY ns_graphs "http://ns.adobe.com/Graphs/1.0/">
	<!ENTITY ns_vars "http://ns.adobe.com/Variables/1.0/">
	<!ENTITY ns_imrep "http://ns.adobe.com/ImageReplacement/1.0/">
	<!ENTITY ns_sfw "http://ns.adobe.com/SaveForWeb/1.0/">
	<!ENTITY ns_custom "http://ns.adobe.com/GenericCustomNamespace/1.0/">
	<!ENTITY ns_adobe_xpath "http://ns.adobe.com/XPath/1.0/">
]>
<svg version="1.1" xmlns:x="&ns_extend;" xmlns:i="&ns_ai;" xmlns:graph="&ns_graphs;"
	 xmlns="http://www.w3.org/2000/svg" xmlns:xlink="http://www.w3.org/1999/xlink" xmlns:a="http://ns.adobe.com/AdobeSVGViewerExtensions/3.0/"
	 x="0px" y="0px" viewBox="0 0 750 750" enable-background="new 0 0 750 750" xml:space="preserve">
<metadata>
	<sfw  xmlns="&ns_sfw;">
		<slices></slices>
		<sliceSourceBounds  bottomLeftOrigin="true" height="4955.48" width="5652.657" x="-1000" y="-2058.616"></sliceSourceBounds>
	</sfw>
</metadata>
<g id="FILL-BACKGROUND">
	<rect fill="#FFFFFF" width="750" height="750"/>
</g>
<g id="N-TEXT">
</g>
<g id="N-DIMENSIONS">
</g>
<g id="AG-DIAGRAM_1_">
</g>
<g id="AG-PEOPLE">
</g>
<g id="AG-FURNITURE">
</g>
<g id="AG-OUTLINE">
	<g id="SPLINE_744_">
		
			<path fill="none" stroke="#1B7FFF" stroke-width="3.5" stroke-linecap="round" stroke-linejoin="round" stroke-miterlimit="10" d="
			M182.056,119.308c0-9.527,4.764-14.291,14.291-14.291c119.105,0,238.203,0,357.307,0c9.527,0,14.291,4.764,14.291,14.291
			c0,169.117,0,338.245,0,507.374c0,9.527-4.764,14.291-14.291,14.291c-119.104,0-238.202,0-357.307,0
			c-9.527,0-14.291-4.764-14.291-14.291C182.056,457.553,182.056,288.425,182.056,119.308z"/>
	</g>
	<g id="POLYLINE_268_">
		
			<polygon fill="none" stroke="#1B7FFF" stroke-width="3.5" stroke-linecap="round" stroke-linejoin="round" stroke-miterlimit="10" points="
			208.93,124.897 208.851,124.897 208.771,124.897 208.692,124.908 208.612,124.908 208.528,124.908 208.448,124.92 208.37,124.92 
			208.284,124.931 208.206,124.942 208.126,124.942 208.042,124.954 207.956,124.965 207.878,124.977 207.792,124.987 
			207.714,124.999 207.628,125.021 207.55,125.033 207.464,125.056 207.38,125.066 207.295,125.09 207.216,125.112 207.131,125.135 
			207.046,125.157 206.961,125.18 206.882,125.203 206.797,125.226 206.712,125.248 206.633,125.282 206.548,125.305 
			206.463,125.339 206.384,125.372 206.299,125.406 206.214,125.44 206.135,125.475 206.056,125.508 205.971,125.542 
			205.892,125.576 205.807,125.621 205.728,125.655 205.648,125.7 205.569,125.734 205.49,125.779 205.411,125.825 205.331,125.87 
			205.253,125.915 205.173,125.961 205.094,126.018 205.021,126.062 204.946,126.119 204.868,126.164 204.794,126.221 
			204.721,126.277 204.647,126.323 204.573,126.38 204.5,126.436 204.427,126.492 204.358,126.561 204.285,126.617 204.217,126.674 
			204.144,126.741 204.075,126.798 204.008,126.866 203.945,126.923 203.878,126.99 203.815,127.059 203.747,127.126 
			203.685,127.194 203.623,127.262 203.561,127.33 203.499,127.397 203.442,127.466 203.386,127.545 203.329,127.612 
			203.272,127.681 203.216,127.76 203.159,127.828 203.103,127.907 203.052,127.986 203.001,128.054 202.95,128.133 
			202.899,128.213 202.854,128.292 202.803,128.371 202.757,128.45 202.712,128.518 202.667,128.598 202.628,128.688 
			202.582,128.767 202.542,128.846 202.503,128.926 202.464,129.005 202.429,129.084 202.39,129.163 202.355,129.254 
			202.321,129.333 202.288,129.412 202.254,129.491 202.226,129.582 202.197,129.661 202.163,129.74 202.141,129.83 202.112,129.91 
			202.084,129.989 202.062,130.079 202.039,130.159 202.017,130.249 201.993,130.328 201.977,130.407 201.954,130.498 
			201.937,130.577 201.92,130.656 201.903,130.747 201.892,130.826 201.875,130.905 201.863,130.996 201.853,131.075 
			201.841,131.154 201.829,131.233 201.823,131.324 201.813,131.403 201.808,131.482 201.802,131.561 201.796,131.641 
			201.796,131.72 201.79,131.8 201.79,131.89 201.784,131.969 201.784,132.048 201.784,232.041 201.784,232.12 201.79,232.199 
			201.79,232.278 201.796,232.357 201.796,232.437 201.802,232.527 201.808,232.606 201.813,232.686 201.823,232.765 
			201.829,232.844 201.841,232.935 201.853,233.014 201.863,233.093 201.875,233.172 201.892,233.263 201.903,233.342 
			201.92,233.421 201.937,233.512 201.954,233.591 201.977,233.67 201.993,233.761 202.017,233.84 202.039,233.919 202.062,234.01 
			202.084,234.089 202.112,234.18 202.141,234.259 202.163,234.338 202.197,234.429 202.226,234.508 202.254,234.587 
			202.288,234.677 202.321,234.757 202.355,234.836 202.39,234.915 202.429,235.006 202.464,235.085 202.503,235.164 
			202.542,235.243 202.582,235.322 202.628,235.401 202.667,235.48 202.712,235.56 202.757,235.639 202.803,235.718 
			202.854,235.798 202.899,235.877 202.95,235.956 203.001,236.023 203.052,236.103 203.103,236.183 203.159,236.25 
			203.216,236.329 203.272,236.397 203.329,236.477 203.386,236.544 203.442,236.612 203.499,236.691 203.561,236.759 
			203.623,236.827 203.685,236.896 203.747,236.963 203.815,237.031 203.878,237.099 203.945,237.155 204.008,237.224 
			204.075,237.291 204.144,237.348 204.217,237.404 204.285,237.472 204.358,237.528 204.427,237.585 204.5,237.642 
			204.573,237.698 204.647,237.755 204.721,237.812 204.794,237.868 204.868,237.913 204.946,237.97 205.021,238.026 
			205.094,238.072 205.173,238.117 205.253,238.162 205.331,238.208 205.411,238.253 205.49,238.298 205.569,238.344 
			205.648,238.389 205.728,238.434 205.807,238.468 205.892,238.502 205.971,238.547 206.056,238.581 206.135,238.615 
			206.214,238.648 206.299,238.683 206.384,238.717 206.463,238.751 206.548,238.773 206.633,238.808 206.712,238.83 
			206.797,238.864 206.882,238.887 206.961,238.909 207.046,238.932 207.131,238.954 207.216,238.977 207.295,239 207.38,239.011 
			207.464,239.033 207.55,239.045 207.628,239.067 207.714,239.079 207.792,239.09 207.878,239.113 207.956,239.124 
			208.042,239.136 208.126,239.136 208.206,239.147 208.284,239.158 208.37,239.158 208.448,239.169 208.528,239.169 
			208.612,239.181 208.692,239.181 208.771,239.181 208.851,239.181 208.93,239.181 358.93,239.181 359.009,239.181 
			359.089,239.181 359.167,239.181 359.247,239.181 359.325,239.169 359.411,239.169 359.489,239.158 359.569,239.158 
			359.653,239.147 359.733,239.136 359.817,239.136 359.897,239.124 359.981,239.113 360.062,239.09 360.146,239.079 
			360.226,239.067 360.31,239.045 360.396,239.033 360.474,239.011 360.56,239 360.644,238.977 360.73,238.954 360.808,238.932 
			360.894,238.909 360.978,238.887 361.063,238.864 361.142,238.83 361.228,238.808 361.312,238.773 361.392,238.751 
			361.476,238.717 361.561,238.683 361.64,238.648 361.72,238.615 361.804,238.581 361.884,238.547 361.968,238.502 
			362.048,238.468 362.126,238.434 362.212,238.389 362.29,238.344 362.37,238.298 362.448,238.253 362.528,238.208 
			362.607,238.162 362.681,238.117 362.761,238.072 362.839,238.026 362.913,237.97 362.986,237.913 363.065,237.868 
			363.14,237.812 363.212,237.755 363.286,237.698 363.36,237.642 363.428,237.585 363.501,237.528 363.575,237.472 
			363.643,237.404 363.71,237.348 363.778,237.291 363.847,237.224 363.914,237.155 363.981,237.099 364.044,237.031 
			364.106,236.963 364.175,236.896 364.231,236.827 364.294,236.759 364.355,236.691 364.412,236.612 364.474,236.544 
			364.53,236.477 364.587,236.397 364.644,236.329 364.7,236.25 364.751,236.183 364.802,236.103 364.854,236.023 364.909,235.956 
			364.955,235.877 365.006,235.798 365.052,235.718 365.097,235.639 365.142,235.56 365.187,235.48 365.232,235.401 
			365.272,235.322 365.317,235.243 365.351,235.164 365.391,235.085 365.431,235.006 365.464,234.915 365.504,234.836 
			365.538,234.757 365.571,234.677 365.601,234.587 365.634,234.508 365.663,234.429 365.69,234.338 365.719,234.259 
			365.747,234.18 365.771,234.089 365.792,234.01 365.821,233.919 365.843,233.84 365.86,233.761 365.883,233.67 365.899,233.591 
			365.917,233.512 365.935,233.421 365.95,233.342 365.968,233.263 365.98,233.172 365.996,233.093 366.007,233.014 
			366.019,232.935 366.024,232.844 366.036,232.765 366.042,232.686 366.047,232.606 366.053,232.527 366.059,232.437 
			366.063,232.357 366.063,232.278 366.069,232.199 366.069,232.12 366.069,232.041 366.069,132.048 366.069,131.969 
			366.069,131.89 366.063,131.8 366.063,131.72 366.059,131.641 366.053,131.561 366.047,131.482 366.042,131.403 366.036,131.324 
			366.024,131.233 366.019,131.154 366.007,131.075 365.996,130.996 365.98,130.905 365.968,130.826 365.95,130.747 
			365.935,130.656 365.917,130.577 365.899,130.498 365.883,130.407 365.86,130.328 365.843,130.249 365.821,130.159 
			365.792,130.079 365.771,129.989 365.747,129.91 365.719,129.83 365.69,129.74 365.663,129.661 365.634,129.582 365.601,129.491 
			365.571,129.412 365.538,129.333 365.504,129.254 365.464,129.163 365.431,129.084 365.391,129.005 365.351,128.926 
			365.317,128.846 365.272,128.767 365.232,128.688 365.187,128.598 365.142,128.518 365.097,128.45 365.052,128.371 
			365.006,128.292 364.955,128.213 364.909,128.133 364.854,128.054 364.802,127.986 364.751,127.907 364.7,127.828 364.644,127.76 
			364.587,127.681 364.53,127.612 364.474,127.545 364.412,127.466 364.355,127.397 364.294,127.33 364.231,127.262 
			364.175,127.194 364.106,127.126 364.044,127.059 363.981,126.99 363.914,126.923 363.847,126.866 363.778,126.798 
			363.71,126.741 363.643,126.674 363.575,126.617 363.501,126.561 363.428,126.492 363.36,126.436 363.286,126.38 363.212,126.323 
			363.14,126.277 363.065,126.221 362.986,126.164 362.913,126.119 362.839,126.062 362.761,126.018 362.681,125.961 
			362.607,125.915 362.528,125.87 362.448,125.825 362.37,125.779 362.29,125.734 362.212,125.7 362.126,125.655 362.048,125.621 
			361.968,125.576 361.884,125.542 361.804,125.508 361.72,125.475 361.64,125.44 361.561,125.406 361.476,125.372 361.392,125.339 
			361.312,125.305 361.228,125.282 361.142,125.248 361.063,125.226 360.978,125.203 360.894,125.18 360.808,125.157 
			360.73,125.135 360.644,125.112 360.56,125.09 360.474,125.066 360.396,125.056 360.31,125.033 360.226,125.021 360.146,124.999 
			360.062,124.987 359.981,124.977 359.897,124.965 359.817,124.954 359.733,124.942 359.653,124.942 359.569,124.931 
			359.489,124.92 359.411,124.92 359.325,124.908 359.247,124.908 359.167,124.908 359.089,124.897 359.009,124.897 358.93,124.897 
					"/>
	</g>
	<g id="POLYLINE_267_">
		
			<polygon fill="none" stroke="#1B7FFF" stroke-width="3.5" stroke-linecap="round" stroke-linejoin="round" stroke-miterlimit="10" points="
			391.071,124.897 390.991,124.897 390.912,124.897 390.833,124.908 390.754,124.908 390.675,124.908 390.59,124.92 390.511,124.92 
			390.431,124.931 390.347,124.942 390.267,124.942 390.183,124.954 390.103,124.965 390.019,124.977 389.938,124.987 
			389.855,124.999 389.77,125.021 389.69,125.033 389.605,125.056 389.521,125.066 389.441,125.09 389.356,125.112 389.271,125.135 
			389.187,125.157 389.107,125.18 389.022,125.203 388.938,125.226 388.853,125.248 388.773,125.282 388.688,125.305 
			388.605,125.339 388.524,125.372 388.44,125.406 388.36,125.44 388.276,125.475 388.196,125.508 388.112,125.542 388.032,125.576 
			387.953,125.621 387.868,125.655 387.789,125.7 387.71,125.734 387.631,125.779 387.552,125.825 387.473,125.87 387.394,125.915 
			387.313,125.961 387.24,126.018 387.161,126.062 387.088,126.119 387.009,126.164 386.935,126.221 386.861,126.277 
			386.788,126.323 386.714,126.38 386.641,126.436 386.567,126.492 386.499,126.561 386.426,126.617 386.358,126.674 
			386.29,126.741 386.222,126.798 386.154,126.866 386.087,126.923 386.019,126.99 385.956,127.059 385.888,127.126 
			385.826,127.194 385.764,127.262 385.707,127.33 385.646,127.397 385.583,127.466 385.526,127.545 385.47,127.612 
			385.413,127.681 385.356,127.76 385.3,127.828 385.249,127.907 385.192,127.986 385.142,128.054 385.091,128.133 385.046,128.213 
			384.995,128.292 384.949,128.371 384.903,128.45 384.858,128.518 384.813,128.598 384.769,128.688 384.729,128.767 
			384.683,128.846 384.644,128.926 384.61,129.005 384.57,129.084 384.53,129.163 384.497,129.254 384.462,129.333 384.429,129.412 
			384.395,129.491 384.366,129.582 384.338,129.661 384.31,129.74 384.282,129.83 384.253,129.91 384.23,129.989 384.202,130.079 
			384.18,130.159 384.157,130.249 384.134,130.328 384.118,130.407 384.101,130.498 384.077,130.577 384.066,130.656 
			384.05,130.747 384.032,130.826 384.021,130.905 384.005,130.996 383.993,131.075 383.981,131.154 383.976,131.233 
			383.965,131.324 383.959,131.403 383.954,131.482 383.942,131.561 383.942,131.641 383.937,131.72 383.931,131.8 383.931,131.89 
			383.931,131.969 383.931,132.048 383.931,232.041 383.931,232.12 383.931,232.199 383.931,232.278 383.937,232.357 
			383.942,232.437 383.942,232.527 383.954,232.606 383.959,232.686 383.965,232.765 383.976,232.844 383.981,232.935 
			383.993,233.014 384.005,233.093 384.021,233.172 384.032,233.263 384.05,233.342 384.066,233.421 384.077,233.512 
			384.101,233.591 384.118,233.67 384.134,233.761 384.157,233.84 384.18,233.919 384.202,234.01 384.23,234.089 384.253,234.18 
			384.282,234.259 384.31,234.338 384.338,234.429 384.366,234.508 384.395,234.587 384.429,234.677 384.462,234.757 
			384.497,234.836 384.53,234.915 384.57,235.006 384.61,235.085 384.644,235.164 384.683,235.243 384.729,235.322 384.769,235.401 
			384.813,235.48 384.858,235.56 384.903,235.639 384.949,235.718 384.995,235.798 385.046,235.877 385.091,235.956 
			385.142,236.023 385.192,236.103 385.249,236.183 385.3,236.25 385.356,236.329 385.413,236.397 385.47,236.477 385.526,236.544 
			385.583,236.612 385.646,236.691 385.707,236.759 385.764,236.827 385.826,236.896 385.888,236.963 385.956,237.031 
			386.019,237.099 386.087,237.155 386.154,237.224 386.222,237.291 386.29,237.348 386.358,237.404 386.426,237.472 
			386.499,237.528 386.567,237.585 386.641,237.642 386.714,237.698 386.788,237.755 386.861,237.812 386.935,237.868 
			387.009,237.913 387.088,237.97 387.161,238.026 387.24,238.072 387.313,238.117 387.394,238.162 387.473,238.208 
			387.552,238.253 387.631,238.298 387.71,238.344 387.789,238.389 387.868,238.434 387.953,238.468 388.032,238.502 
			388.112,238.547 388.196,238.581 388.276,238.615 388.36,238.648 388.44,238.683 388.524,238.717 388.605,238.751 
			388.688,238.773 388.773,238.808 388.853,238.83 388.938,238.864 389.022,238.887 389.107,238.909 389.187,238.932 
			389.271,238.954 389.356,238.977 389.441,239 389.521,239.011 389.605,239.033 389.69,239.045 389.77,239.067 389.855,239.079 
			389.938,239.09 390.019,239.113 390.103,239.124 390.183,239.136 390.267,239.136 390.347,239.147 390.431,239.158 
			390.511,239.158 390.59,239.169 390.675,239.169 390.754,239.181 390.833,239.181 390.912,239.181 390.991,239.181 
			391.071,239.181 541.071,239.181 541.149,239.181 541.23,239.181 541.308,239.181 541.388,239.181 541.472,239.169 
			541.552,239.169 541.631,239.158 541.71,239.158 541.795,239.147 541.874,239.136 541.959,239.136 542.038,239.124 
			542.123,239.113 542.208,239.09 542.287,239.079 542.372,239.067 542.451,239.045 542.536,239.033 542.62,239.011 542.706,239 
			542.785,238.977 542.87,238.954 542.954,238.932 543.034,238.909 543.118,238.887 543.204,238.864 543.282,238.83 
			543.368,238.808 543.452,238.773 543.532,238.751 543.616,238.717 543.702,238.683 543.78,238.648 543.866,238.615 
			543.944,238.581 544.03,238.547 544.108,238.502 544.188,238.468 544.272,238.434 544.353,238.389 544.431,238.344 
			544.511,238.298 544.59,238.253 544.669,238.208 544.748,238.162 544.827,238.117 544.901,238.072 544.98,238.026 545.054,237.97 
			545.133,237.913 545.206,237.868 545.28,237.812 545.354,237.755 545.427,237.698 545.501,237.642 545.574,237.585 
			545.642,237.528 545.716,237.472 545.783,237.404 545.852,237.348 545.919,237.291 545.987,237.224 546.056,237.155 
			546.123,237.099 546.185,237.031 546.247,236.963 546.315,236.896 546.378,236.827 546.44,236.759 546.496,236.691 
			546.559,236.612 546.615,236.544 546.672,236.477 546.728,236.397 546.784,236.329 546.841,236.25 546.893,236.183 
			546.948,236.103 547,236.023 547.051,235.956 547.097,235.877 547.147,235.798 547.192,235.718 547.243,235.639 547.288,235.56 
			547.328,235.48 547.373,235.401 547.413,235.322 547.458,235.243 547.497,235.164 547.537,235.085 547.571,235.006 
			547.61,234.915 547.646,234.836 547.679,234.757 547.713,234.677 547.741,234.587 547.774,234.508 547.804,234.429 
			547.831,234.338 547.86,234.259 547.888,234.18 547.911,234.089 547.938,234.01 547.962,233.919 547.984,233.84 548.001,233.761 
			548.024,233.67 548.046,233.591 548.063,233.512 548.081,233.421 548.092,233.342 548.108,233.263 548.126,233.172 
			548.138,233.093 548.148,233.014 548.159,232.935 548.171,232.844 548.177,232.765 548.183,232.686 548.193,232.606 
			548.199,232.527 548.205,232.437 548.205,232.357 548.21,232.278 548.21,232.199 548.21,232.12 548.216,232.041 548.216,132.048 
			548.21,131.969 548.21,131.89 548.21,131.8 548.205,131.72 548.205,131.641 548.199,131.561 548.193,131.482 548.183,131.403 
			548.177,131.324 548.171,131.233 548.159,131.154 548.148,131.075 548.138,130.996 548.126,130.905 548.108,130.826 
			548.092,130.747 548.081,130.656 548.063,130.577 548.046,130.498 548.024,130.407 548.001,130.328 547.984,130.249 
			547.962,130.159 547.938,130.079 547.911,129.989 547.888,129.91 547.86,129.83 547.831,129.74 547.804,129.661 547.774,129.582 
			547.741,129.491 547.713,129.412 547.679,129.333 547.646,129.254 547.61,129.163 547.571,129.084 547.537,129.005 
			547.497,128.926 547.458,128.846 547.413,128.767 547.373,128.688 547.328,128.598 547.288,128.518 547.243,128.45 
			547.192,128.371 547.147,128.292 547.097,128.213 547.051,128.133 547,128.054 546.948,127.986 546.893,127.907 546.841,127.828 
			546.784,127.76 546.728,127.681 546.672,127.612 546.615,127.545 546.559,127.466 546.496,127.397 546.44,127.33 546.378,127.262 
			546.315,127.194 546.247,127.126 546.185,127.059 546.123,126.99 546.056,126.923 545.987,126.866 545.919,126.798 
			545.852,126.741 545.783,126.674 545.716,126.617 545.642,126.561 545.574,126.492 545.501,126.436 545.427,126.38 
			545.354,126.323 545.28,126.277 545.206,126.221 545.133,126.164 545.054,126.119 544.98,126.062 544.901,126.018 
			544.827,125.961 544.748,125.915 544.669,125.87 544.59,125.825 544.511,125.779 544.431,125.734 544.353,125.7 544.272,125.655 
			544.188,125.621 544.108,125.576 544.03,125.542 543.944,125.508 543.866,125.475 543.78,125.44 543.702,125.406 543.616,125.372 
			543.532,125.339 543.452,125.305 543.368,125.282 543.282,125.248 543.204,125.226 543.118,125.203 543.034,125.18 
			542.954,125.157 542.87,125.135 542.785,125.112 542.706,125.09 542.62,125.066 542.536,125.056 542.451,125.033 542.372,125.021 
			542.287,124.999 542.208,124.987 542.123,124.977 542.038,124.965 541.959,124.954 541.874,124.942 541.795,124.942 
			541.71,124.931 541.631,124.92 541.552,124.92 541.472,124.908 541.388,124.908 541.308,124.908 541.23,124.897 541.149,124.897 
			541.071,124.897 		"/>
	</g>
	<g id="LINE_99_">
		
			<line fill="none" stroke="#1B7FFF" stroke-width="3.5" stroke-linecap="round" stroke-linejoin="round" stroke-miterlimit="10" x1="182.142" y1="258.824" x2="567.854" y2="258.824"/>
	</g>
</g>
</svg>
