<?xml version="1.0" encoding="utf-8"?>
<!-- Generator: Adobe Illustrator 23.0.4, SVG Export Plug-In . SVG Version: 6.00 Build 0)  -->
<!DOCTYPE svg PUBLIC "-//W3C//DTD SVG 1.1//EN" "http://www.w3.org/Graphics/SVG/1.1/DTD/svg11.dtd" [
	<!ENTITY ns_flows "http://ns.adobe.com/Flows/1.0/">
	<!ENTITY ns_extend "http://ns.adobe.com/Extensibility/1.0/">
	<!ENTITY ns_ai "http://ns.adobe.com/AdobeIllustrator/10.0/">
	<!ENTITY ns_graphs "http://ns.adobe.com/Graphs/1.0/">
	<!ENTITY ns_vars "http://ns.adobe.com/Variables/1.0/">
	<!ENTITY ns_imrep "http://ns.adobe.com/ImageReplacement/1.0/">
	<!ENTITY ns_sfw "http://ns.adobe.com/SaveForWeb/1.0/">
	<!ENTITY ns_custom "http://ns.adobe.com/GenericCustomNamespace/1.0/">
	<!ENTITY ns_adobe_xpath "http://ns.adobe.com/XPath/1.0/">
]>
<svg version="1.1" xmlns:x="&ns_extend;" xmlns:i="&ns_ai;" xmlns:graph="&ns_graphs;"
	 xmlns="http://www.w3.org/2000/svg" xmlns:xlink="http://www.w3.org/1999/xlink" xmlns:a="http://ns.adobe.com/AdobeSVGViewerExtensions/3.0/"
	 x="0px" y="0px" viewBox="0 0 750 750" enable-background="new 0 0 750 750" xml:space="preserve">
<metadata>
	<sfw  xmlns="&ns_sfw;">
		<slices></slices>
		<sliceSourceBounds  bottomLeftOrigin="true" height="14873" width="2769" x="-2000" y="-7123"></sliceSourceBounds>
	</sfw>
</metadata>
<g id="FILL-BACKGROUND">
	<rect fill="#FFFFFF" width="750" height="750"/>
</g>
<g id="AG-DIAGRAM">
	<g id="POLYLINE_839_">
		<g>
			<g>
				
					<line fill="none" stroke="#FF6B6B" stroke-width="3.25" stroke-linecap="round" stroke-linejoin="round" x1="147.5" y1="637.5" x2="149.5" y2="637.5"/>
				
					<line fill="none" stroke="#FF6B6B" stroke-width="3.25" stroke-linecap="round" stroke-linejoin="round" stroke-dasharray="3.9911,6.9843" x1="156.484" y1="637.5" x2="592.008" y2="637.5"/>
				
					<line fill="none" stroke="#FF6B6B" stroke-width="3.25" stroke-linecap="round" stroke-linejoin="round" x1="595.5" y1="637.5" x2="597.5" y2="637.5"/>
			</g>
		</g>
	</g>
</g>
<g id="AG-DETAIL-DIAGRAM">
</g>
<g id="AG-PEOPLE">
	<g id="POLYLINE_38_">
		
			<path fill="none" stroke="#FF6B6B" stroke-width="2.75" stroke-linecap="round" stroke-linejoin="round" stroke-miterlimit="10" d="
			M553.726,342.335c0.317-2.497,0.631-4.97,1.302-7.402c0.598-2.167,1.362-4.287,2.123-6.401c1.937-5.382,3.889-10.742,5.55-16.216
			c1.546-5.094,2.886-10.251,4.471-15.334c0.746-2.393,1.684-4.722,2.411-7.12c0.73-2.409,1.059-4.911,1.151-7.423
			c0.025-0.687,0.032-1.376,0.02-2.064c-0.01-0.591,0.477-1.359,1.205-1.093c0.957,0.349,1.573,2.487,2.033,3.308
			c1.347,2.402,3.176,4.532,4.981,6.598c3.506,4.012,7.245,7.814,10.677,11.891c1.609,1.912,3.218,3.865,4.605,5.947
			c0.756,1.135,1.573,2.478,1.407,3.901c-0.153,1.305-1.015,2.483-1.76,3.519c-2.688,3.737-6.089,7.094-9.753,9.872
			c-4.172,3.162-8.93,5.178-13.571,7.519c-4.7,2.37-9.144,5.382-13.569,8.222C555.891,340.777,554.763,341.5,553.726,342.335z"/>
	</g>
	<g id="POLYLINE_39_">
		
			<path fill="none" stroke="#FF6B6B" stroke-width="2.75" stroke-linecap="round" stroke-linejoin="round" stroke-miterlimit="10" d="
			M494.583,239.977c-3.428-0.27-6.807-0.576-10.195-1.176c-3.336-0.591-6.614-1.035-10.012-0.961
			c-6.87,0.15-13.622,1.184-20.446-0.108c-3.548-0.672-7.05-1.409-10.625-1.937c-0.83-0.123-4.366-0.346-4.236-1.481
			c0.058-0.509,0.834-1.037,1.2-1.384c0.837-0.794,1.673-1.588,2.51-2.383c5.018-4.764,10.072-9.412,15.775-13.357
			c5.774-3.995,11.829-7.63,17.8-11.319c0.824-0.509,1.652-1.013,2.478-1.52c0.125,2.373,0.313,4.745,0.853,7.064
			c0.568,2.44,1.489,4.785,2.48,7.08c1.027,2.379,2.166,4.714,3.12,7.124c0.875,2.213,1.508,4.531,2.542,6.68
			C489.392,235.553,492.247,237.375,494.583,239.977z"/>
	</g>
	<g id="POLYLINE_40_">
		
			<path fill="none" stroke="#FF6B6B" stroke-width="2.75" stroke-linecap="round" stroke-linejoin="round" stroke-miterlimit="10" d="
			M558.464,237.434c-0.091-0.549-1.192-0.906-1.632-1.135c-0.685-0.356-1.363-0.724-2-1.162c-1.402-0.964-2.579-2.22-3.617-3.56
			c-1.298-1.675-2.39-3.501-3.414-5.353c-2.489-4.501-4.594-9.202-6.956-13.769c-2.145-4.149-4.731-8.029-6.7-12.275
			c-2.18-4.701-4.209-9.479-6.642-14.059c-2.107-3.967-4.632-7.724-7.947-10.787c-3.551-3.281-7.928-5.952-12.807-6.51
			c-4.407-0.504-9.468,0.235-13.526,2.041c-1.379,0.614-2.451,1.528-3.59,2.497c-0.541,0.46-1.105,0.884-1.701,1.272
			c-0.196,0.128-0.405,0.289-0.619,0.387c-0.507,0.232-0.421,0.127-0.82-0.299c-1.612-1.72-4.469-3.582-6.96-2.938
			c-2.199,0.568-4.235,2.804-5.739,4.416c-2.313,2.48-3.726,5.449-4.005,8.837c-0.394,4.782,1.395,10.924-2.506,14.625
			c-3.397,3.223-8.349,4.871-12.582,6.69c-4.945,2.126-9.926,4.184-14.753,6.573c-4.037,1.998-7.954,4.241-11.741,6.679
			c-4.616,2.971-9.318,5.839-13.853,8.933c-2.121,1.447-4.05,3.213-3.982,5.973c0.064,2.62,1.527,5.074,3.262,6.949
			c3.135,3.389,7.497,5.389,11.626,7.277c4.705,2.152,9.377,4.379,14.086,6.523c4.545,2.07,9.159,3.96,13.975,5.31
			c4.519,1.267,9.128,2.127,13.742,2.959c4.998,0.901,10.254,1.491,15.101,3.076c2.774,0.907,5.031,2.42,6.424,5.051
			c0.301,0.568,0.668,1.185,0.684,1.823c0.018,0.664-0.112,1.378-0.154,2.042c-0.076,1.204-0.123,2.409-0.146,3.616
			c-0.088,4.671,0.299,9.335,0.851,13.97c0.623,5.22,1.545,10.529,1.502,15.802c-0.038,4.676-1.378,8.931-2.937,13.291
			c-0.799,2.234-1.653,4.468-2.124,6.8c-0.445,2.199-0.475,4.453-0.864,6.659c-0.944,5.363-5.046,9.653-7.904,14.104
			c-2.642,4.114-4.606,8.553-6.166,13.179c-1.536,4.554-2.734,9.225-3.776,13.915c-1.081,4.868-2.039,9.761-2.959,14.662
			c-0.738,3.928-1.45,7.855-2.127,11.794c-1.211,7.046-2.421,14.092-3.632,21.137c-0.742,4.319-1.453,8.645-2.227,12.959
			c-0.437,2.44-1.008,4.843-1.519,7.267c-0.245,1.161-0.456,2.49,0.485,3.406c0.925,0.901,2.394,1.241,3.608,1.532
			c2.472,0.594,5.016,0.899,7.526,1.279c1.122,0.17,2.245,0.334,3.364,0.527c0.627,0.108,1.26,0.208,1.882,0.347
			c0.622,0.139,0.553,0.382,0.76,1.001c1.68,5.018,3.273,10.064,4.767,15.141c1.462,4.972,2.851,9.965,4.206,14.967
			c1.24,4.58,2.419,9.185,3.375,13.834c1.036,5.042,1.868,10.123,2.553,15.224c0.318,2.365,0.598,4.736,0.832,7.11
			c0.134,1.368,0.258,2.736,0.372,4.106c0.094,1.141-0.049,2.237-0.186,3.372c-0.605,4.997-1.801,9.898-2.804,14.824
			c-0.894,4.387-1.446,8.814-1.646,13.288c-0.238,5.309-0.322,10.636-0.803,15.931c-0.428,4.702-1.355,9.329-2.518,13.9
			c-1.237,4.862-2.723,9.657-3.897,14.536c-1.176,4.889-2.013,9.854-2.524,14.856c-0.052,0.506-0.036,1.055-0.19,1.534
			c-0.179,0.556-0.519,1.088-0.747,1.63c-0.558,1.324-0.897,2.7-1.054,4.127c-0.246,2.237-0.207,4.51-0.103,6.754
			c0.103,2.214-0.043,5.2,1.142,7.146c1.203,1.975,4.075,2.15,6.152,2.305c4.63,0.347,9.535,0.479,14.128-0.295
			c0.83-0.14,1.663-0.317,2.456-0.604c0.132-0.048,0.291-0.145,0.428-0.167c0.372-0.06,0.112-0.085,0.418,0.062
			c0.275,0.132,0.471,0.378,0.781,0.494c1.038,0.386,2.265,0.328,3.358,0.38c2.616,0.125,5.23,0.257,7.849,0.287
			c2.345,0.027,4.71-0.011,7.041-0.289c2.23-0.266,4.779-0.746,6.396-2.437c1.805-1.887,2.059-4.88,2.422-7.345
			c0.337-2.287,0.567-4.594,0.392-6.906c-0.191-2.524-0.937-4.798-1.605-7.212c-0.306-1.105-0.236-2.407-0.396-3.557
			c-0.167-1.203-0.366-2.401-0.517-3.606c-0.148-1.183-0.225-2.361-0.203-3.554c0.026-1.392,0.141-2.823-0.224-4.184
			c-0.662-2.465-2.556-4.433-3.387-6.852c-1.608-4.682-1.049-10.108-1.133-14.967c-0.071-4.161-0.314-8.313-0.526-12.469
			c-0.366-7.198-0.732-14.395-1.099-21.593c-0.103-2.035-0.256-4.073-0.311-6.11c-0.047-1.727,0.189-3.489,0.238-5.221
			c0.142-5.016,0.401-9.892,1.518-14.802c1.101-4.841,2.622-9.58,4.255-14.265c1.63-4.677,3.367-9.322,5.192-13.927
			c1.849-4.666,3.733-9.324,5.812-13.895c1.041-2.289,2.079-4.581,3.192-6.837c0.385-0.78,0.77-1.56,1.155-2.341
			c0.292-0.593,0.201-0.597,0.815-0.368c1.268,0.473,2.529,0.972,3.813,1.4c1.066,0.355,2.219,0.727,3.356,0.672
			c1.389-0.067,2.21-1,2.718-2.223c0.804-1.936,1.019-4.15,1.317-6.207c0.684-4.731,1.373-9.463,1.986-14.204
			c0.65-5.032,1.36-10.061,1.935-15.102c0.647-5.666,1.331-11.329,1.941-16.999c0.564-5.241,1.046-10.491,1.526-15.741
			c0.068-0.745,0.136-1.491,0.204-2.236c0.045-0.491,0.034-0.559,0.288-0.859c0.812-0.96,1.274-1.982,1.666-3.185
			c0.735-2.258,1.218-4.605,1.621-6.942c0.808-4.688,1.543-9.586,1.597-14.349c0.054-4.71-1.419-9.258-1.557-13.944
			c-0.079-2.706,0.811-4.693,3.235-6.021c2.024-1.109,4.266-1.811,6.393-2.689c4.107-1.695,8.164-3.562,12.115-5.594
			c5.376-2.765,10.738-5.56,16.128-8.297c4.28-2.173,8.685-3.94,13.151-5.682c2.394-0.934,4.968-1.955,6.768-3.857
			c1.883-1.991,2.561-4.573,1.953-7.227c-0.556-2.425-1.554-4.795-2.481-7.097c-0.897-2.229-1.869-4.43-2.924-6.589
			c-2.103-4.303-4.613-8.372-7.358-12.292c-2.987-4.264-6.179-8.386-9.3-12.552c-2.625-3.504-5.263-6.997-7.829-10.544
			c-3.394-4.691-6.763-9.4-10.182-14.072c-2.66-3.636-5.492-7.472-9.129-10.196c-0.481-0.36-0.995-0.653-1.493-0.986
			c-0.583-0.39-0.794-1.103-1.256-1.652c-0.812-0.965-1.967-1.356-3.17-1.59C562.965,237.502,560.652,237.35,558.464,237.434z"/>
	</g>
	<g id="POLYLINE_53_">
		
			<path fill="none" stroke="#FF6B6B" stroke-width="2.75" stroke-linecap="round" stroke-linejoin="round" stroke-miterlimit="10" d="
			M268.263,173.069c1.046-1.633,1.906-3.431,2.429-5.302c0.324-1.158,0.381-2.321,0.532-3.506c0.291-2.281,1.532-4.293,1.12-6.65
			c-0.189-1.08-0.52-2.127-0.69-3.212c-0.185-1.184-0.263-2.447-0.735-3.562c-0.539-1.272-1.713-2.076-2.442-3.22
			c-0.627-0.983-0.968-2.123-1.412-3.193c-1.004-2.422-2.905-4.315-3.858-6.757c-0.393-1.008-0.671-2.464-1.793-2.901
			c-1.128-0.439-2.383-0.239-3.526-0.749c-2.218-0.988-3.969-2.768-6.556-2.281c-1.271,0.239-2.142,0.214-3.328-0.332
			c-1.168-0.537-2.208-1.001-3.518-1.028c-1.081-0.023-2.159,0.112-3.241,0.087c-1.119-0.026-2.348-0.211-3.411,0.241
			c-1.285,0.546-1.935,1.983-2.585,3.127c-0.294,0.518-0.582,1.061-0.997,1.494c-0.463,0.484-1.082,0.728-1.601,1.136
			c-1.08,0.848-1.674,2.174-2.755,3.03c-0.976,0.772-2.306,0.953-2.978,2.084c-0.708,1.191-1,2.295-2.094,3.24
			c-1.048,0.905-2.065,1.74-2.84,2.909c-1.55,2.336-1.465,4.851-1.746,7.529c-0.255,2.431-1.258,4.638-1.883,6.978
			c-0.3,1.12-0.453,2.249-0.368,3.41c0.047,0.641,0.158,1.276,0.293,1.904c0.046,0.213,0.096,0.426,0.147,0.638
			c0.136,0.567,0.103,0.515-0.282,0.923c-1.732,1.838-1.397,5.11-0.918,7.358c0.472,2.218,1.378,4.35,2.684,6.206
			c0.787,1.118,1.82,2.428,3.135,2.945c0.638,0.251,0.777,0.073,0.795,0.852c0.013,0.537-0.001,1.076-0.01,1.613
			c-0.04,2.367-0.164,4.732-0.203,7.099c-0.036,2.192,0.014,4.425-0.383,6.591c-0.499,2.722-2.029,4.505-4.215,6.109
			c-0.853,0.626-1.717,1.243-2.615,1.803c-0.4,0.249-0.807,0.487-1.224,0.706c-0.379,0.2-0.443,0.232-0.802,0.168
			c-0.261-0.046-0.471-0.19-0.757-0.199c-1.887-0.065-3.994,1.614-5.562,2.548c-2.152,1.282-4.295,2.579-6.465,3.83
			c-4.355,2.509-8.743,4.951-13.16,7.351c-4.7,2.554-10.325,5.018-13.406,9.584c-2.793,4.14-2.868,9.497-2.528,14.299
			c0.309,4.365,1.044,8.681,1.795,12.987c0.901,5.163,1.845,10.317,2.574,15.507c0.658,4.686,1.128,9.42,2.145,14.047
			c0.982,4.469,2.78,8.506,4.962,12.507c2.235,4.098,4.25,8.329,6.553,12.386c0.549,0.966,1.13,1.916,1.766,2.827
			c0.601,0.861,1.252,1.688,1.972,2.452c0.558,0.592,0.376,0.898,0.304,1.714c-0.212,2.393-0.429,4.781-0.838,7.15
			c-0.778,4.507-2.484,8.991-2.696,13.578c-0.055,1.194,0.19,2.383,0.096,3.574c-0.084,1.064-0.462,2.083-0.845,3.07
			c-0.809,2.085-1.796,4.156-2.193,6.374c-0.408,2.277-0.087,4.557,0.468,6.78c0.293,1.176,0.646,2.356,0.715,3.573
			c0.064,1.117-0.123,2.228-0.324,3.323c-0.418,2.274-1.13,4.86,0.15,6.989c0.184,0.306,0.4,0.591,0.635,0.86
			c0.11,0.126,0.64,0.524,0.676,0.681c0.078,0.341-0.418,1.267-0.539,1.646c-0.365,1.147-0.708,2.3-1.033,3.459
			c-1.255,4.473-2.245,9.039-2.85,13.647c-0.579,4.408-0.754,8.857-0.953,13.294c-0.228,5.084-0.5,10.159-0.386,15.249
			c0.093,4.154,0.435,8.296,0.858,12.428c0.556,5.429,1.173,10.855,1.627,16.294c0.389,4.655,0.483,9.32,0.713,13.983
			c0.235,4.777,0.565,9.55,0.939,14.319c0.36,4.595,0.727,9.191,1.168,13.778c0.494,5.137,1.171,10.302,1.344,15.464
			c0.154,4.58-0.637,9.108-0.542,13.688c0.097,4.661,0.462,9.334,0.976,13.967c0.557,5.013,1.362,9.935,2.333,14.883
			c0.882,4.495,0.994,8.994,1.138,13.559c0.146,4.601,0.321,9.193,1.229,13.72c0.465,2.319,1.059,4.61,1.562,6.92
			c0.559,2.565,0.943,5.113,0.06,7.65c-0.449,1.289-1.005,2.543-1.118,3.92c-0.111,1.354,0.123,2.732,0.46,4.039
			c0.485,1.882,1.225,3.729,2.208,5.407c0.694,1.186,1.579,2.241,2.295,3.411c0.666,1.089,0.913,2.232,1.18,3.465
			c0.237,1.095,0.559,2.231,1.565,2.864c0.464,0.292,0.423,0.103,0.363,0.605c-0.031,0.263-0.174,0.559-0.248,0.812
			c-0.161,0.551-0.309,1.105-0.44,1.664c-0.49,2.089-0.696,4.217-0.749,6.359c-0.028,1.117-0.022,2.235,0.012,3.351
			c0.035,1.168-0.002,2.575,0.661,3.595c1.18,1.816,4.419,1.626,6.316,1.676c2.116,0.055,4.233-0.001,6.349-0.037
			c4.777-0.082,9.805,0.201,14.535-0.619c1.24-0.215,2.642-0.53,3.589-1.421c0.948-0.891,1.122-2.207,1.092-3.446
			c-0.057-2.42-0.714-4.932-1.483-7.219c-0.647-1.923-1.486-3.786-2.454-5.568c-0.226-0.417-0.461-0.829-0.704-1.236
			c-0.22-0.368-0.713-0.884-0.81-1.292c-0.103-0.435,0.06-1.085-0.005-1.571c-0.089-0.666-0.249-1.321-0.366-1.983
			c-0.232-1.308-0.149-2.392,0.389-3.617c0.507-1.153,0.994-2.202,1.022-3.488c0.048-2.213-0.738-4.436-1.808-6.343
			c-1.187-2.114-2.695-4.031-3.488-6.349c-0.777-2.271-1.02-4.771-0.867-7.161c0.083-1.304,0.295-2.608,0.791-3.822
			c0.454-1.112,1.134-2.121,1.512-3.265c0.755-2.286,0.414-4.911,0.193-7.267c-0.428-4.562-0.933-9.087-0.969-13.674
			c-0.039-4.998,0.106-10.024-0.257-15.013c-0.327-4.493-1.575-8.65-2.697-12.986c-0.538-2.078-0.851-4.162-0.788-6.311
			c0.062-2.132,0.406-4.243,0.493-6.372c0.091-2.241-0.005-4.474,0.452-6.684c0.471-2.278,1.264-4.493,1.965-6.707
			c1.356-4.281,2.236-8.617,2.819-13.068c0.608-4.633,1.001-9.292,1.547-13.932c0.582-4.95,1.19-9.893,2.047-14.804
			c0.714-4.093,1.495-8.313,3.167-12.141c1.038-2.375,2.638-4.253,4.186-6.297c0.897-1.186,1.632-2.448,2.259-3.793
			c0.289-0.619,0.564-1.245,0.855-1.863c0.202-0.43,0.493-1.344,0.938-1.593c0.868-0.485,1.072,2.16,1.145,2.725
			c0.12,0.932,0.206,1.868,0.282,2.804c0.224,2.746,0.405,5.495,0.643,8.24c0.39,4.498,1.008,8.98,1.893,13.407
			c1.002,5.018,2.381,9.949,3.673,14.897c1.114,4.265,2.223,8.535,3.007,12.876c0.828,4.587,1.175,9.316,2.422,13.817
			c0.635,2.292,1.682,4.415,2.658,6.574c0.877,1.941,1.596,3.947,2.177,5.996c1.243,4.382,1.352,8.797,1.893,13.285
			c0.49,4.063,1.139,8.104,1.572,12.174c0.646,6.056,1.292,12.112,1.937,18.168c0.455,4.269,0.875,8.542,1.393,12.804
			c0.588,4.828,1.115,9.695,2.142,14.454c0.428,1.984,0.992,3.923,1.802,5.786c0.861,1.978,1.866,3.891,2.581,5.931
			c0.794,2.264,1.014,4.298,0.38,6.631c-0.296,1.089-0.584,2.163-0.391,3.298c0.239,1.404,0.974,2.7,1.742,3.876
			c0.544,0.833,1.138,1.633,1.76,2.41c0.352,0.44,0.715,0.87,1.083,1.297c0.557,0.647,0.769,0.8,0.721,1.662
			c-0.126,2.264-0.268,4.517-0.316,6.786c-0.025,1.215-0.05,2.429-0.09,3.643c-0.041,1.229-0.196,2.545,0.028,3.764
			c0.504,2.748,3.808,3.137,6.102,3.387c3.594,0.391,7.247,0.327,10.859,0.322c5.963-0.007,11.926-0.014,17.889-0.021
			c5.808-0.007,11.616-0.014,17.424-0.021c1.353-0.002,2.705-0.007,4.056-0.09c2.139-0.133,5.564-0.308,6.386-2.751
			c0.702-2.085-0.198-4.71-0.615-6.773c-0.226-1.12-0.435-2.316-1.089-3.279c-0.737-1.084-1.982-1.593-3.199-1.939
			c-2.343-0.666-4.833-0.914-7.231-1.298c-2.325-0.372-4.65-0.735-6.961-1.183c-2.059-0.399-4.14-0.844-6.102-1.598
			c-3.386-1.3-6.126-3.816-8.006-6.893c0.979-0.337,2.105-0.787,2.49-1.837c0.373-1.017,0.075-2.268-0.19-3.271
			c-0.53-2.002-1.836-3.918-0.862-5.97c0.895-1.887,2.162-3.461,2.322-5.624c0.153-2.073-0.54-4.065-1.39-5.922
			c-1.75-3.823-3.744-7.537-5.511-11.355c-1.662-3.591-3.718-7.444-4.12-11.426c-0.375-3.71-0.332-7.49-0.335-11.216
			c-0.003-4.93,0.036-9.86,0.053-14.79c0.013-3.671,0.071-7.345-0.078-11.014c-0.078-1.915-0.195-3.838-0.494-5.733
			c-0.308-1.956-0.867-3.85-1.339-5.77c-0.973-3.961-1.282-8.051-2.239-12.015c-0.863-3.573-1.95-6.858-1.948-10.579
			c0.002-3.999,0.737-7.926,1.287-11.873c0.539-3.868,0.661-7.745,0.538-11.645c-0.272-8.609-1.253-17.217-2.045-25.788
			c-0.732-7.924-1.588-15.856-2.746-23.73c-0.61-4.146-1.352-8.263-2.21-12.364c-0.834-3.99-1.887-7.942-2.593-11.958
			c-0.344-1.956-0.365-3.892-0.446-5.869c-0.079-1.921-0.369-3.823-0.727-5.71c-0.37-1.95-0.826-3.885-1.363-5.795
			c-0.248-0.881-0.511-1.758-0.801-2.626c-0.105-0.315-0.452-0.9-0.426-1.221c0.031-0.385,0.435-0.912,0.541-1.323
			c0.44-1.719,0.209-3.579,0.005-5.317c-0.231-1.969-0.503-3.93-0.534-5.915c-0.033-2.069,0.193-4.098,0.875-6.059
			c0.79-2.271,1.528-4.343,1.359-6.784c-0.272-3.937-1.443-7.661-1.28-11.644c0.04-0.98,0.105-1.959,0.113-2.941
			c0.004-0.442-0.002-0.884-0.005-1.326c-0.003-0.519-0.211-1.584-0.014-2.066c0.157-0.383,0.552-0.269,1.056-0.315
			c0.501-0.047,1.003-0.093,1.505-0.134c0.937-0.076,1.876-0.147,2.815-0.194c4.128-0.208,8.279-0.218,12.396-0.605
			c1.963-0.185,4.07-0.409,5.826-1.369c1.999-1.093,3.179-3.16,4.048-5.19c2.943-6.874,3.434-14.898,3.365-22.282
			c-0.071-7.559-1.217-14.979-2.383-22.427c-1.385-8.846-2.692-17.708-4.124-26.547c-0.675-4.17-1.465-8.335-2.581-12.411
			c-0.997-3.64-2.242-7.339-4.317-10.522c-1.884-2.891-4.501-5.12-7.433-6.893c-3.72-2.25-7.724-4.07-11.596-6.035
			c-3.65-1.852-7.252-3.811-10.842-5.778c-1.858-1.018-3.693-2.078-5.538-3.119c-0.807-0.455-1.609-0.933-2.449-1.326
			c-0.482-0.226-1.009-0.481-1.545-0.54c-0.497-0.055-0.876,0.289-1.283,0.261c-0.818-0.057-1.936-1.294-2.318-1.957
			c-0.481-0.834-0.572-1.831-0.464-2.773c0.14-1.222,1.138-1.885,1.835-2.849c0.889-1.229,1.622-2.576,2.229-3.966
			c0.83-1.897,1.368-3.891,1.979-5.865c0.57-1.842,1.257-3.654,1.746-5.52C268.57,180.99,268.209,177.023,268.263,173.069z"/>
	</g>
	<g id="POLYLINE_808_">
		
			<path fill="none" stroke="#FF6B6B" stroke-width="2.75" stroke-linecap="round" stroke-linejoin="round" stroke-miterlimit="10" d="
			M280.681,618.865c-0.325,3.862-0.37,7.716-0.5,11.587c-0.061,1.81-0.434,4.163,1.243,5.388c1.699,1.241,4.24,1.355,6.267,1.496
			c7.307,0.51,14.734,0.196,22.05,0.187c8.571-0.01,17.184,0.239,25.75-0.068c1.945-0.07,4.15-0.118,5.9-1.054
			c1.83-0.979,1.897-2.945,1.645-4.785c-0.26-1.897-0.587-3.934-1.203-5.749c-0.726-2.14-2.53-2.926-4.597-3.405
			c-3.87-0.897-7.865-1.268-11.774-1.974c-4.58-0.828-9.236-1.751-12.731-5.074c-1.156-1.099-2.169-2.355-2.996-3.72"/>
	</g>
	<g id="POLYLINE_809_">
		
			<path fill="none" stroke="#FF6B6B" stroke-width="2.75" stroke-linecap="round" stroke-linejoin="round" stroke-miterlimit="10" d="
			M205.139,619.649c-1.303,4.142-1.673,8.273-1.537,12.6c0.035,1.127,0.012,2.443,0.604,3.447c0.593,1.005,1.772,1.326,2.853,1.503
			c2.223,0.364,4.53,0.303,6.775,0.282c4.594-0.043,9.211-0.043,13.8-0.285c2.12-0.112,4.574-0.186,6.496-1.176
			c2.605-1.341,2.124-4.569,1.656-6.977c-0.773-3.982-2.272-7.772-4.36-11.247c-0.242-0.403-0.494-0.801-0.752-1.194"/>
	</g>
	<g id="POLYLINE_810_">
		
			<path fill="none" stroke="#FF6B6B" stroke-width="2.75" stroke-linecap="round" stroke-linejoin="round" stroke-miterlimit="10" d="
			M190.426,378.348c-2.344,7.064-4.065,14.373-4.762,21.792c-0.701,7.47-1.016,15.082-1.03,22.583
			c-0.015,7.798,0.91,15.538,1.703,23.283c0.753,7.357,1.171,14.673,1.513,22.06c0.374,8.065,1.077,16.112,1.737,24.157
			c0.595,7.244,1.834,14.551,1.754,21.833c-0.04,3.629-0.614,7.22-0.578,10.854c0.037,3.688,0.304,7.377,0.632,11.049
			c0.339,3.796,0.759,7.593,1.352,11.358c0.573,3.638,1.5,7.218,1.959,10.874c0.937,7.474,0.206,15.054,1.548,22.5
			c0.634,3.515,1.733,6.947,2.224,10.486c0.158,1.138,0.242,2.305,0.048,3.444c-0.193,1.131-0.658,2.179-1.03,3.257
			c-0.729,2.11-0.644,4.155-0.1,6.303c0.392,1.545,0.963,3.053,1.681,4.476c0.883,1.749,2.226,3.199,3.131,4.925
			c0.85,1.622,0.603,3.815,1.794,5.247c1.305,1.569,4.033,1.413,5.86,1.351c4.068-0.137,8.141-0.643,12.194-0.999
			c1.611-0.142,3.227-0.295,4.825-0.553c1.926-0.311,4.045-0.827,3.852-3.185c-0.173-2.115-0.955-3.841-0.056-5.91
			c0.809-1.863,1.261-3.426,0.89-5.477c-0.684-3.777-3.353-6.479-4.8-9.917c-1.424-3.383-1.817-8.039-0.53-11.528
			c0.696-1.887,1.824-3.421,2.007-5.484c0.162-1.83-0.019-3.698-0.193-5.521c-0.371-3.886-0.813-7.753-0.919-11.658
			c-0.109-4.018-0.039-8.041-0.092-12.06c-0.043-3.32-0.215-6.672-0.857-9.936c-0.708-3.6-2.092-7.054-2.638-10.684
			c-0.493-3.282,0.158-6.517,0.301-9.795c0.078-1.782,0-3.571,0.221-5.345c0.203-1.631,0.658-3.218,1.145-4.783
			c1.1-3.539,2.265-7.028,2.969-10.674c0.656-3.398,1.077-6.843,1.442-10.283c0.825-7.784,1.608-15.579,2.905-23.302
			c0.593-3.531,1.264-7.089,2.372-10.5c0.471-1.451,1.04-2.877,1.781-4.213c1.079-1.946,2.634-3.531,3.897-5.349
			c1.265-1.821,1.93-3.889,3.014-5.799c0.128-0.226,0.407-0.854,0.742-0.83c0.44,0.032,0.581,1.012,0.648,1.322
			c0.175,0.809,0.267,1.638,0.355,2.461c0.415,3.897,0.589,7.816,0.974,11.716c0.699,7.079,2.089,13.993,3.885,20.868
			c1.95,7.464,3.987,14.883,5.16,22.518c0.566,3.68,0.943,7.494,2.106,11.049c1.131,3.458,2.982,6.62,4.09,10.096
			c1.074,3.369,1.664,6.786,1.929,10.306c0.288,3.807,0.836,7.559,1.331,11.344c1.076,8.223,1.836,16.491,2.715,24.737
			c0.747,7.008,1.445,14.026,2.511,20.995c0.517,3.379,1.093,6.812,2.38,9.997c1.266,3.134,3.16,6.138,3.633,9.543
			c0.272,1.954-0.51,3.604-0.774,5.492c-0.293,2.096,0.834,4.062,1.963,5.737c0.929,1.378,1.976,2.701,3.097,3.928
			c1.443,1.58,3.372,1.436,5.345,1.147c7.321-1.074,14.078-4.49,20.984-6.94c1.609-0.57,4.369-0.886,5.355-2.436
			c1.003-1.575-0.05-4.063-0.603-5.615c-0.319-0.893-0.763-1.838-0.647-2.81c0.107-0.898,0.639-1.704,1.083-2.471
			c0.983-1.7,1.742-3.343,1.654-5.351c-0.158-3.611-2.423-6.974-3.979-10.118c-1.681-3.397-3.282-6.841-4.769-10.328
			c-0.762-1.787-1.613-3.606-2.022-5.514c-0.397-1.854-0.428-3.798-0.491-5.687c-0.103-3.09-0.113-6.182-0.102-9.273
			c0.03-8.279,0.352-16.615-0.08-24.888c-0.192-3.675-0.961-7.065-1.827-10.627c-0.873-3.591-1.207-7.287-1.981-10.898
			c-0.725-3.382-1.965-6.564-2.13-10.053c-0.158-3.342,0.277-6.646,0.758-9.944c0.539-3.689,1.035-7.348,1.08-11.082
			c0.044-3.595-0.152-7.196-0.427-10.78c-0.582-7.598-1.273-15.193-2.05-22.773c-0.787-7.667-1.583-15.34-2.825-22.949
			c-0.588-3.599-1.25-7.185-2.048-10.744c-0.865-3.86-1.915-7.742-2.465-11.664c-0.247-1.765-0.193-3.535-0.297-5.309
			c-0.098-1.675-0.359-3.339-0.667-4.987c-0.622-3.326-1.47-6.632-2.623-9.815"/>
	</g>
	<g id="POLYLINE_811_">
		
			<path fill="none" stroke="#FF6B6B" stroke-width="2.75" stroke-linecap="round" stroke-linejoin="round" stroke-miterlimit="10" d="
			M194.696,321.113c-0.288,3.255-0.554,6.506-1.189,9.717c-0.633,3.203-1.52,6.353-2.106,9.567c-0.299,1.64-0.393,3.22-0.279,4.883
			c0.111,1.604-0.24,2.989-0.817,4.476c-1.122,2.89-2.454,5.702-2.387,8.874c0.073,3.426,1.737,6.57,1.244,10.021
			c-0.448,3.139-1.726,6.55,0.744,9.192c2.289,2.449,5.897,3.489,9.047,4.3c3.156,0.812,6.375,1.36,9.59,1.876
			c6.486,1.041,13.016,1.965,19.568,2.474c6.391,0.496,12.813,0.572,19.201-0.009c6.504-0.592,12.966-1.733,19.327-3.203
			c3.291-0.761,6.564-1.597,9.81-2.533c2.86-0.825,7.133-1.689,8.417-4.749c1.161-2.765,0.151-6.338-0.124-9.184
			c-0.304-3.143-0.231-6.224,0.849-9.221c0.654-1.813,1.283-3.584,1.257-5.537c-0.019-1.45-0.255-2.893-0.507-4.318
			c-0.276-1.558-0.599-3.117-0.75-4.694c-0.175-1.825-0.037-3.636,0.031-5.461c0.057-1.525,0.011-3.054,0.001-4.579"/>
	</g>
	<g id="POLYLINE_812_">
		
			<path fill="none" stroke="#FF6B6B" stroke-width="2.75" stroke-linecap="round" stroke-linejoin="round" stroke-miterlimit="10" d="
			M218.562,168.735c-0.433-1.763-0.782-3.53-0.47-5.346c0.275-1.599,0.89-3.128,1.379-4.668c0.586-1.846,0.797-3.682,0.918-5.608
			c0.117-1.878,0.458-3.603,1.479-5.212c0.565-0.891,1.265-1.666,2.068-2.348c0.76-0.647,1.585-1.229,2.096-2.109
			c0.455-0.785,0.641-1.757,1.295-2.416c0.6-0.606,1.48-0.819,2.187-1.268c0.907-0.577,1.511-1.474,2.18-2.292
			c0.581-0.711,1.179-1.119,1.927-1.625c1.603-1.084,1.942-3.22,3.313-4.529c1.36-1.298,3.359-0.812,5.056-0.849
			c1.715-0.038,3.345-0.258,4.968,0.448c0.738,0.321,1.45,0.765,2.241,0.95c0.861,0.202,1.659-0.069,2.508-0.196
			c1.829-0.274,3.277,0.747,4.795,1.62c0.797,0.458,1.614,0.914,2.52,1.114c0.809,0.179,1.751,0.059,2.511,0.409
			c0.814,0.374,1.103,1.33,1.396,2.105c0.328,0.87,0.66,1.712,1.139,2.513c0.991,1.658,2.214,3.122,2.967,4.92
			c0.724,1.73,1.294,3.239,2.578,4.652c1.369,1.506,1.695,3.041,1.984,4.997c0.238,1.612,0.886,3.227,0.865,4.864
			c-0.021,1.698-0.87,3.243-1.16,4.893c-0.333,1.891-0.398,3.653-1.099,5.482c-0.512,1.337-1.159,2.631-1.937,3.833"/>
	</g>
	<g id="POLYLINE_813_">
		
			<path fill="none" stroke="#FF6B6B" stroke-width="2.75" stroke-linecap="round" stroke-linejoin="round" stroke-miterlimit="10" d="
			M214.585,210.693c1.536-0.74,2.936-1.715,4.311-2.716c1.735-1.263,3.309-2.67,3.995-4.768c1.106-3.383,0.683-7.261,0.803-10.761
			c0.076-2.221,0.172-4.44,0.139-6.663"/>
	</g>
	<g id="POLYLINE_814_">
		
			<path fill="none" stroke="#FF6B6B" stroke-width="2.75" stroke-linecap="round" stroke-linejoin="round" stroke-miterlimit="10" d="
			M259.956,202.066c-0.66,2.501,0.248,4.635,2.619,5.75"/>
	</g>
	<g id="POLYLINE_815_">
		
			<path fill="none" stroke="#FF6B6B" stroke-width="2.75" stroke-linecap="round" stroke-linejoin="round" stroke-miterlimit="10" d="
			M225.411,185.446c-1.343,0.395-2.253,0.438-3.405-0.465c-1.076-0.844-1.929-1.98-2.641-3.139c-1.35-2.198-2.204-4.727-2.433-7.297
			c-0.192-2.158,0.021-5.762,2.717-6.281c2.678-0.516,4.806,1.783,5.835,3.93c0.545,1.138,1.145,1.983,2.481,2.128
			c0.932,0.101,2.438-0.012,3.019-0.868c0.541-0.798,0.356-2.079,0.32-2.992c-0.052-1.314-0.144-2.631-0.133-3.947
			c0.011-1.247,0.078-2.554,0.545-3.725c0.55-1.378,1.657-2.372,2.529-3.538c1.678-2.244,1.716-5.081,1.899-7.766
			c0.144-2.108-0.012-5.635,2.351-6.585c2.049-0.824,4.737,0.162,6.75,0.723c2.598,0.723,5.216,1.599,7.914,1.858
			c2.21,0.212,4.397-0.205,6.604-0.134c5.527,0.178,8.747,5.76,9.346,10.702c0.578,4.768-0.65,9.498-0.827,14.248
			c-0.176,4.719,0.34,9.288-1.111,13.876c-0.786,2.486-1.545,4.988-2.359,7.464c-0.912,2.774-2.178,5.611-4.182,7.772
			c-0.985,1.062-2.166,1.678-3.51,2.172"/>
	</g>
	<g id="POLYLINE_816_">
		
			<path fill="none" stroke="#FF6B6B" stroke-width="2.75" stroke-linecap="round" stroke-linejoin="round" stroke-miterlimit="10" d="
			M228.386,193.141c1.413,4.643,4.686,8.132,9.247,9.826"/>
	</g>
	<g id="POLYLINE_817_">
		
			<path fill="none" stroke="#FF6B6B" stroke-width="2.75" stroke-linecap="round" stroke-linejoin="round" stroke-miterlimit="10" d="
			M254.894,220.696c3.494-1.567,5.827-4.395,6.64-8.135c0.301-1.384,0.201-3.222,0.961-4.447c0.903-1.456,3.194,0.087,4.2,0.646
			c5.617,3.122,11.207,6.271,16.913,9.231c4.96,2.572,10.423,4.738,14.888,8.161c4.564,3.499,6.944,8.539,8.574,13.925
			c1.539,5.087,2.479,10.346,3.298,15.59c1.252,8.022,2.503,16.043,3.755,24.065c0.803,5.144,1.653,10.285,2.119,15.474
			c0.527,5.877,0.574,11.82-0.06,17.691c-0.291,2.699-0.73,5.388-1.413,8.016c-0.745,2.868-1.739,6.076-3.785,8.299
			c-2.116,2.299-5.431,2.595-8.373,2.825c-3.427,0.268-6.873,0.336-10.306,0.482c-5.784,0.245-11.507,1.104-17.269,1.609
			c-6.287,0.55-12.588,0.34-18.886,0.15c-6.011-0.181-12.123-0.204-18.092-1c-1.561-0.208-3.409-0.279-3.863-2.042
			c-0.387-1.503-0.498-3.098-0.723-4.629c-0.446-3.024-1.138-6.006-1.572-9.032c-0.35-2.439-1.174-7.107,2.003-7.976
			c1.527-0.417,3.231-0.104,4.765,0.126c1.45,0.218,2.894,0.481,4.352,0.646c6.06,0.686,12.003-0.906,18.048-0.905
			c3.088,0,6.243,0.423,9.313-0.062c2.744-0.433,5.1-1.908,7.645-2.917c1.344-0.533,2.725-0.843,4.143-1.101
			c1.234-0.224,3.528-0.292,4.331-1.411c0.809-1.125-0.165-3.263-0.442-4.417c-0.337-1.401-0.594-2.822-0.812-4.246
			c-0.875-5.723-1.125-11.568-0.46-17.327c0.665-5.762,2.148-11.385,2.977-17.12c0.477-3.299,0.94-6.599,1.41-9.899"/>
	</g>
	<g id="POLYLINE_818_">
		
			<path fill="none" stroke="#FF6B6B" stroke-width="2.75" stroke-linecap="round" stroke-linejoin="round" stroke-miterlimit="10" d="
			M191.537,292.681c0.95-2.13,1.881-4.269,3.132-6.244c1.268-2.001,2.839-3.784,4.469-5.496c3.546-3.722,7.296-7.274,10.229-11.523
			c2.908-4.213,4.984-8.912,6.581-13.761c0.839-2.546,1.557-5.132,2.349-7.693c0.388-1.253,0.788-2.504,1.251-3.732
			c0.536-1.421,1.127-3.074,2.257-4.135c1.127-1.057,2.464-0.57,3.671,0.08c1.253,0.675,2.438,1.476,3.662,2.202
			c2.398,1.421,4.841,2.767,7.244,4.18c1.13,0.665,2.249,1.354,3.337,2.085c1.322,0.889,2.871,1.861,3.722,3.245
			c1.386,2.256-0.858,5.418-1.973,7.391c-2.678,4.741-5.611,9.332-7.622,14.415c-2.021,5.109-2.991,10.496-4.445,15.774
			c-1.421,5.159-3.479,10.115-5.905,14.879c-2.39,4.693-5.156,9.231-8.367,13.41c-1.623,2.112-3.376,4.218-5.453,5.902
			c-2.743,2.225-5.818,2.445-9.076,1.235c-6.67-2.479-9.763-8.768-12.775-14.702c-2.385-4.699-5.297-9.192-7.179-14.128
			c-1.91-5.009-2.518-10.389-3.233-15.666c-0.749-5.53-1.638-11.02-2.597-16.517c-0.927-5.31-1.939-10.624-2.313-16.009
			c-0.43-6.197,0.098-12.601,5.034-17.008c2.092-1.868,4.55-3.311,7-4.655c2.839-1.557,5.696-3.079,8.534-4.637
			c4.84-2.657,9.601-5.451,14.344-8.277c1-0.596,1.993-1.208,3.015-1.766c0.981-0.536,2.392-1.422,3.563-1.133
			c1.255,0.31,1.957,2.283,2.707,3.223c1.326,1.661,2.997,3.051,4.761,4.224c2.031,1.35,4.246,2.417,6.552,3.208"/>
	</g>
	<g id="POLYLINE_819_">
		
			<path fill="none" stroke="#FF6B6B" stroke-width="2.75" stroke-linecap="round" stroke-linejoin="round" stroke-miterlimit="10" d="
			M224.03,239.555c1.454-7.866,3.32-15.576,5.161-23.358c0.39-1.648,0.655-3.334,1.122-4.961c0.677-2.359,2.121-4.296,3.955-5.9
			c2.386-2.087,5.264-3.44,8.176-4.626c1.733-0.706,3.491-1.349,5.23-2.041c0.793-0.316,1.577-0.651,2.349-1.018
			c0.844-0.401,1.766-0.982,2.72-1.046c2.006-0.136,3.122,2.559,3.672,4.109c0.718,2.023,0.949,4.156,0.814,6.292
			c-0.247,3.922-1.25,7.851-1.969,11.7c-0.628,3.362-1.238,6.75-2.31,10.005c-1.07,3.25-2.724,6.167-4.968,8.749
			c-2.345,2.699-5.235,4.942-7.43,7.763c-0.684,0.879-1.194,1.861-1.745,2.825"/>
	</g>
	<g id="POLYLINE_820_">
		
			<path fill="none" stroke="#FF6B6B" stroke-width="2.75" stroke-linecap="round" stroke-linejoin="round" stroke-miterlimit="10" d="
			M231.997,311.277c-2.029-0.493-3.563-1.312-5.012-2.839c-1.318-1.39-2.46-3.048-3.094-4.868"/>
	</g>
	<g id="POLYLINE_821_">
		
			<path fill="none" stroke="#FF6B6B" stroke-width="2.75" stroke-linecap="round" stroke-linejoin="round" stroke-miterlimit="10" d="
			M233.612,327.595c-5.356-0.289-11.003-1.266-15.973-3.346c-1.981-0.829-3.45-2.018-4.875-3.615"/>
	</g>
	<g id="POLYLINE_822_">
		
			<path fill="none" stroke="#FF6B6B" stroke-width="2.75" stroke-linecap="round" stroke-linejoin="round" stroke-miterlimit="10" d="
			M208.577,270.527c-0.823-7.278-2.487-14.342-4.889-21.261c-0.667-1.92-1.4-3.812-2.186-5.686"/>
	</g>
	<g id="POLYLINE_823_">
		
			<path fill="none" stroke="#FF6B6B" stroke-width="2.75" stroke-linecap="round" stroke-linejoin="round" stroke-miterlimit="10" d="
			M496.929,636.16c0.89,1.215,2.992,1.001,4.336,1.065c1.794,0.084,3.587,0.177,5.382,0.233c3.088,0.097,6.213,0.132,9.288-0.218
			c3.173-0.362,6.491-1.231,7.808-4.468c1.142-2.806,1.443-6.264,1.596-9.269c0.181-3.556-0.481-7.094-1.724-10.421"/>
	</g>
	<g id="POLYLINE_824_">
		
			<path fill="none" stroke="#FF6B6B" stroke-width="2.75" stroke-linecap="round" stroke-linejoin="round" stroke-miterlimit="10" d="
			M503.033,618.5c-2.215,1.299-3.896,2.744-4.652,5.273"/>
	</g>
	<g id="POLYLINE_825_">
		
			<path fill="none" stroke="#FF6B6B" stroke-width="2.75" stroke-linecap="round" stroke-linejoin="round" stroke-miterlimit="10" d="
			M474.305,615.272c-1.042,2.221-1.767,4.374-1.944,6.84c-0.152,2.131-0.105,4.279,0.014,6.41c0.117,2.098-0.019,4.991,1.264,6.76
			c1.235,1.702,3.812,1.892,5.74,2.051c4.413,0.364,9.034,0.44,13.431-0.134c2.386-0.312,5.387-0.819,6.24-3.433
			c0.611-1.873,0.437-4.099,0.18-6.025c-0.29-2.171-0.84-4.4-2.093-6.228c-1.406-2.052-3.412-3.838-5.078-5.69
			c-0.309-0.344-0.624-0.683-0.946-1.015"/>
	</g>
	<g id="POLYLINE_826_">
		
			<path fill="none" stroke="#FF6B6B" stroke-width="2.75" stroke-linecap="round" stroke-linejoin="round" stroke-miterlimit="10" d="
			M498.603,178.791c-1.343,0.568-2.7,1.11-3.895,1.964c-1.097,0.785-2.045,1.771-2.911,2.8c-1.563,1.858-2.908,3.939-3.904,6.155
			c-1.471,3.273-1.821,6.739-0.904,10.22c0.697,2.645,1.941,5.112,3.117,7.568c0.592,1.236,3.763,6.524,0.993,6.556
			c-1.02,0.012-2.72-0.852-3.642-0.207c-1.119,0.782,0.127,2.99,0.664,3.748c0.948,1.338,2.327,2.306,3.678,3.198
			c0.966,0.638,2.401,2.06,3.617,2.019c1.325-0.045,2.183-1.549,3.566-1.498c1.36,0.05,2.559,1.405,3.551,2.2
			c4.106,3.291,9.386,4.066,14.508,3.961c2.635-0.054,5.314-0.337,7.853-1.072c3.434-0.995,5.816-3.009,6.859-6.489
			c1.421-4.738,1.237-10.165,0.589-15.023c-0.686-5.141-2.677-9.616-5.562-13.891c-2.701-4.002-5.628-8.059-9.343-11.19
			c-2.219-1.87-4.842-3.371-7.767-3.71c-2.577-0.298-5.132,0.384-7.534,1.264C500.943,177.801,499.775,178.302,498.603,178.791z"/>
	</g>
	<g id="POLYLINE_827_">
		
			<path fill="none" stroke="#FF6B6B" stroke-width="2.75" stroke-linecap="round" stroke-linejoin="round" stroke-miterlimit="10" d="
			M503.602,224.315c4.038,3.853,6.022,8.803,5.913,14.335c-0.04,2.053-0.268,4.152-0.884,6.117
			c-0.859,2.745-2.557,4.372-5.477,4.577c-1.311,0.092-2.629-0.023-3.94-0.063c-1.385-0.042-2.739,0.077-4.114,0.209
			c-1.154,0.11-2.878,0.296-2.104-1.349c0.554-1.176,1.431-2.184,2.065-3.317c0.617-1.101,1.03-2.329,0.451-3.535
			c-0.592-1.234-1.756-2.178-2.754-3.083c-1.993-1.808-3.832-3.565-4.999-6.043c-1.005-2.134-1.634-4.425-2.504-6.614
			c-0.937-2.357-2.047-4.643-3.056-6.969c-1.883-4.344-3.071-8.66-3.324-13.399c-0.141-2.635-0.151-5.29-0.516-7.908
			c-0.337-2.42-0.972-4.79-1.279-7.214c-0.288-2.27-0.213-4.609,0.39-6.825c0.377-1.386,0.969-2.714,2.064-3.68
			c0.907-0.8,2.012-1.357,3.071-1.928c2.374-1.28,4.909-2.467,6.978-4.221c1.159-0.982,2.242-1.92,3.647-2.542
			c1.176-0.521,2.417-0.897,3.664-1.206c4.972-1.233,10.354-1.499,15.132,0.604c4,1.76,7.529,4.687,10.327,8.015
			c3.075,3.658,5.326,7.942,7.353,12.246c2.206,4.684,4.143,9.528,6.654,14.061c1.216,2.196,2.569,4.314,3.767,6.52
			c1.196,2.202,2.281,4.464,3.393,6.709c2.193,4.427,4.254,9.039,7.163,13.057c0.91,1.258,1.92,2.457,3.105,3.466
			c1.225,1.043,2.628,1.68,4.009,2.468c0.132,0.075,0.705,0.334,0.69,0.541c-0.018,0.239-0.502,0.331-0.667,0.387
			c-0.695,0.234-1.399,0.414-2.059,0.744c-1.259,0.63-2.041,1.658-2.511,2.968c-0.913,2.541-0.78,5.294-0.978,7.944
			c-0.098,1.312-0.307,2.512-0.108,3.83c0.185,1.225,0.467,2.436,0.706,3.65c0.23,1.166,0.475,2.336,0.602,3.518
			c0.051,0.475,0.251,1.481-0.081,1.901c-0.418,0.526-1.066-0.097-1.417-0.421c-1.888-1.739-3.281-4.356-4.253-6.71
			c-0.908-2.199-1.332-4.52-1.733-6.853c-0.494-2.879-1.07-5.493-3.372-7.493c-1.941-1.686-4.31-2.782-6.297-4.41
			c-2.295-1.88-4.058-4.309-5.401-6.939c-0.819-1.605-1.487-3.291-1.936-5.037"/>
	</g>
	<g id="POLYLINE_828_">
		
			<path fill="none" stroke="#FF6B6B" stroke-width="2.75" stroke-linecap="round" stroke-linejoin="round" stroke-miterlimit="10" d="
			M502.644,249.37c-1.757,6.576-2.51,13.113-2.28,19.923c0.114,3.379,0.378,6.766,0.997,10.093c0.573,3.075,1.392,6.67,3.848,8.813
			c2.508,2.187,6.312,2.519,9.505,2.696c3.246,0.18,6.533,0.008,9.741-0.522c3.088-0.511,6.211-1.356,8.904-2.997
			c4.051-2.468,6.517-6.546,8.553-10.697c2.835-5.78,5.156-11.967,5.966-18.385c0.096-0.761,0.169-1.525,0.216-2.29"/>
	</g>
	<g id="POLYLINE_829_">
		
			<path fill="none" stroke="#FF6B6B" stroke-width="2.75" stroke-linecap="round" stroke-linejoin="round" stroke-miterlimit="10" d="
			M557.057,393.338c-1.581,0.461-2.844-3.169-3.259-4.271c-0.452-1.201-0.796-2.443-1.027-3.705
			c-0.615-3.361-0.302-6.792-0.003-10.168c0.609-6.881,0.654-13.661,0.199-20.553c-0.141-2.128-0.304-4.255-0.422-6.384
			c-0.076-1.375-0.231-2.944,0.091-4.297c0.4-1.679,2.496-2.677,3.841-3.554c1.572-1.025,3.183-1.992,4.777-2.982
			c2.872-1.783,5.691-3.692,8.688-5.261c3.036-1.59,6.2-2.917,9.195-4.592c5.538-3.098,10.468-7.442,14.303-12.499
			c0.968-1.276,2.235-2.825,2.247-4.509c0.013-1.842-1.392-3.546-2.434-4.95c-2.028-2.73-4.221-5.347-6.495-7.875
			c-4.827-5.366-10.347-10.433-13.681-16.917c-0.282-0.549-0.665-1.614-1.419-1.586c-0.911,0.035-1.475,1.47-1.707,2.171
			c-0.557,1.678-0.696,3.474-1.128,5.186c-0.43,1.703-1.169,4.289-2.863,5.199c-1.754,0.943-3.215-1.12-3.755-2.53
			c-1.245-3.248-1.088-7.079-1.127-10.501c-0.038-3.267,0.041-6.536,0.146-9.802c0.227-7.099,0.101-14.39,1.311-21.408
			c0.482-2.796,1.524-8.213,5.477-7.059c3.029,0.885,5.557,3.731,7.556,6.022c4.902,5.619,9.043,11.973,13.406,18.002
			c4.247,5.869,8.609,11.65,12.953,17.448c3.808,5.083,7.648,10.167,10.754,15.722c1.642,2.935,3.098,5.972,4.406,9.07
			c0.631,1.493,1.227,3.002,1.787,4.523c0.655,1.78,1.418,3.641,1.589,5.543c0.377,4.191-2.855,7.042-6.336,8.659
			c-3.117,1.447-6.413,2.482-9.564,3.854c-7.142,3.11-13.991,6.936-20.913,10.496c-5.802,2.985-11.742,5.555-17.78,8.017
			c-1.408,0.574-2.924,1.224-3.992,2.338c-1.19,1.242-1.423,2.963-1.381,4.615c0.086,3.368,0.936,6.697,1.329,10.036
			c0.362,3.074,0.172,6.087-0.17,9.152c-0.396,3.549-0.785,7.099-1.462,10.608c-0.305,1.581-0.659,3.157-1.113,4.703
			C558.73,390.488,558.268,392.75,557.057,393.338z"/>
	</g>
	<g id="POLYLINE_830_">
		
			<path fill="none" stroke="#FF6B6B" stroke-width="2.75" stroke-linecap="round" stroke-linejoin="round" stroke-miterlimit="10" d="
			M494.182,249.561c-1.857,5.749-3.235,11.634-4.147,17.606c-0.88,5.768-1.268,11.594-0.971,17.425
			c0.322,6.333,1.339,12.598,1.975,18.901c0.272,2.691,0.405,5.41,0.155,8.107c-0.26,2.807-1.016,5.502-1.937,8.157
			c-0.945,2.727-2.059,5.416-2.762,8.221c-0.679,2.712-0.633,5.522-1.204,8.249c-0.731,3.492-2.896,6.379-4.886,9.255
			c-1.708,2.468-3.422,4.926-4.865,7.562c-2.821,5.152-4.674,10.822-6.189,16.478c-1.629,6.082-2.886,12.255-4.085,18.434
			c-0.922,4.748-1.792,9.504-2.611,14.27c-1.453,8.457-2.906,16.914-4.359,25.37c-0.861,5.011-1.595,10.075-2.733,15.034
			c-0.318,1.386-1.071,3.241-0.525,4.648c0.575,1.483,2.605,1.954,3.976,2.295c3.046,0.758,6.211,1.094,9.309,1.565
			c5.943,0.902,11.684,2.59,17.474,4.161c5.486,1.489,10.955,2.558,16.632,2.962c6.314,0.449,12.605,0.849,18.839,1.997
			c5.841,1.076,11.602,2.581,17.17,4.655c1.376,0.512,2.748,1.065,4.157,1.485c1.316,0.393,3.028,0.845,4.225-0.083
			c1.166-0.904,1.534-2.651,1.823-4.015c0.268-1.262,0.452-2.542,0.637-3.818c0.87-5.987,1.699-11.98,2.474-17.98
			c0.841-6.511,1.642-13.019,2.386-19.541c0.693-6.065,1.374-12.128,1.953-18.205c0.298-3.124,0.571-6.251,0.857-9.376"/>
	</g>
	<g id="POLYLINE_831_">
		
			<path fill="none" stroke="#FF6B6B" stroke-width="2.75" stroke-linecap="round" stroke-linejoin="round" stroke-miterlimit="10" d="
			M553.726,342.335c0.521-4.103,1.361-7.926,2.728-11.834c1.458-4.169,3.028-8.299,4.442-12.483
			c2.721-8.054,4.566-16.385,7.4-24.399c0.755-2.136,1.547-4.258,1.954-6.495c0.435-2.395,0.551-4.837,0.492-7.267"/>
	</g>
	<g id="POLYLINE_832_">
		
			<path fill="none" stroke="#FF6B6B" stroke-width="2.75" stroke-linecap="round" stroke-linejoin="round" stroke-miterlimit="10" d="
			M558.464,237.434c1.826-0.071,3.676,0.08,5.487,0.306c2.302,0.287,4.048,0.922,5.16,3.069"/>
	</g>
	<g id="POLYLINE_833_">
		
			<path fill="none" stroke="#FF6B6B" stroke-width="2.75" stroke-linecap="round" stroke-linejoin="round" stroke-miterlimit="10" d="
			M489.293,273.208c-0.743-1.866-1.8-3.629-3.445-4.833c-1.24-0.907-2.695-1.473-4.156-1.918c-2.598-0.792-5.287-1.244-7.956-1.725
			c-6.735-1.214-13.538-2.256-20.143-4.085c-5.887-1.63-11.468-4.062-16.98-6.662c-3.253-1.534-6.509-3.053-9.785-4.537
			c-2.718-1.231-5.454-2.453-8.027-3.97c-4.592-2.708-12.091-9.879-6.602-15.244c2.017-1.971,4.76-3.39,7.111-4.904
			c3.106-2,6.197-4.026,9.32-6c5.34-3.374,10.883-6.311,16.642-8.902c5.79-2.605,11.829-4.765,17.454-7.722
			c3.115-1.638,6.221-3.67,6.853-7.386c0.543-3.189-0.013-6.491,0.168-9.708c0.225-3.99,1.919-7.334,4.748-10.136
			c2.218-2.197,4.706-4.644,8.031-3.412c1.696,0.628,3.29,1.765,4.417,3.178"/>
	</g>
	<g id="POLYLINE_834_">
		
			<path fill="none" stroke="#FF6B6B" stroke-width="2.75" stroke-linecap="round" stroke-linejoin="round" stroke-miterlimit="10" d="
			M494.583,239.977c-3.428-0.27-6.807-0.576-10.195-1.176c-3.336-0.591-6.614-1.035-10.012-0.961
			c-6.87,0.15-13.622,1.184-20.446-0.108c-3.548-0.672-7.05-1.409-10.625-1.937c-0.83-0.123-4.366-0.346-4.236-1.481
			c0.058-0.509,0.834-1.037,1.2-1.384c0.837-0.794,1.673-1.588,2.51-2.383c5.018-4.764,10.072-9.412,15.775-13.357
			c5.774-3.995,11.829-7.63,17.8-11.319c0.824-0.509,1.652-1.013,2.478-1.52"/>
	</g>
	<g id="POLYLINE_835_">
		
			<path fill="none" stroke="#FF6B6B" stroke-width="2.75" stroke-linecap="round" stroke-linejoin="round" stroke-miterlimit="10" d="
			M499.183,457.975c-1.806,5.467-3.499,10.971-4.905,16.557c-1.448,5.749-2.652,11.563-3.443,17.441
			c-0.762,5.662-1.059,11.367-1.243,17.073c-0.197,6.126-0.258,12.294-1.077,18.377c-0.776,5.762-2.315,11.38-3.28,17.108
			c-1.021,6.062-1.14,12.193-1.395,18.322c-0.226,5.449-0.631,10.848-1.73,16.2c-1.2,5.841-2.966,11.539-4.481,17.302
			c-1.471,5.594-2.519,11.278-3.139,17.028c-0.325,3.01-0.684,6.258-0.007,9.241c0.351,1.549,1.09,2.954,2.593,3.638
			c1.396,0.635,3.018,0.669,4.525,0.657c2.89-0.022,5.816-0.177,8.696-0.419c1.462-0.123,3.16-0.21,4.476-0.914
			c1.588-0.849,0.617-2.409-0.115-3.538c-0.763-1.177-1.6-2.306-2.263-3.546c-1.019-1.905-1.462-4.02-1.535-6.169
			c-0.09-2.679,0.317-5.353,0.752-7.988c0.944-5.713,2.214-11.367,4.601-16.669c2.43-5.398,5.584-10.44,8.252-15.719
			c2.656-5.254,4.906-10.713,6.811-16.282c1.868-5.465,3.485-11.089,4.301-16.816c0.78-5.478,0.388-11.025,1.035-16.512
			c0.669-5.679,2.324-11.238,4.1-16.656c1.855-5.658,3.968-11.234,6.125-16.782c2.214-5.693,4.598-11.315,7.126-16.875
			c1.142-2.512,2.366-4.984,3.587-7.458"/>
	</g>
	<g id="POLYLINE_836_">
		
			<path fill="none" stroke="#FF6B6B" stroke-width="2.75" stroke-linecap="round" stroke-linejoin="round" stroke-miterlimit="10" d="
			M472.408,451.856c1.526,4.556,2.999,9.127,4.377,13.73c1.424,4.758,2.779,9.536,4.09,14.327c1.285,4.692,2.543,9.393,3.612,14.14
			c1.041,4.619,1.862,9.284,2.569,13.965c0.707,4.678,1.285,9.381,1.675,14.096c0.054,0.65,0.107,1.3,0.161,1.95"/>
	</g>
	<g id="POLYLINE_837_">
		
			<path fill="none" stroke="#FF6B6B" stroke-width="2.75" stroke-linecap="round" stroke-linejoin="round" stroke-miterlimit="10" d="
			M500.259,579.81c1.03,2.189,2.014,4.371,2.664,6.709c0.642,2.311,1.064,4.682,1.423,7.051c0.365,2.407,0.653,4.83,0.827,7.258
			c0.176,2.458,0.125,4.941,0.513,7.38c0.224,1.409,0.508,2.826,0.302,4.256c-0.183,1.273-0.75,2.437-1.386,3.54
			c-1.169,2.031-2.912,3.953-3.593,6.228c-0.367,1.225-0.156,2.328,1.164,2.758c1.114,0.362,2.382,0.323,3.542,0.337
			c2.475,0.029,4.954-0.081,7.423-0.244c2.449-0.161,5.694,0.021,7.736-1.54c2.059-1.574,2.42-4.8,2.644-7.207
			c0.453-4.868-1.029-9.578-0.916-14.433c0.032-1.365,0.059-2.745-0.421-4.045c-0.463-1.255-1.25-2.379-1.912-3.532
			c-1.384-2.41-1.992-4.994-2.214-7.747c-0.401-4.968-0.142-9.982-0.358-14.961c-0.218-5.024-0.511-10.046-0.767-15.069
			c-0.327-6.425-0.654-12.85-0.981-19.275c-0.02-0.389-0.04-0.777-0.059-1.166"/>
	</g>
</g>
<g id="AG-OUTLINE">
	<g id="POLYLINE_1144_">
		
			<path fill="none" stroke="#FF6B6B" stroke-width="3.5" stroke-linecap="round" stroke-linejoin="round" stroke-miterlimit="10" d="
			M553.726,342.335c0.317-2.497,0.631-4.97,1.302-7.402c0.598-2.167,1.362-4.287,2.123-6.401c1.937-5.382,3.889-10.742,5.55-16.216
			c1.546-5.094,2.886-10.251,4.471-15.334c0.746-2.393,1.684-4.722,2.411-7.12c0.73-2.409,1.059-4.911,1.151-7.423
			c0.025-0.687,0.032-1.376,0.02-2.064c-0.01-0.591,0.477-1.359,1.205-1.093c0.957,0.349,1.573,2.487,2.033,3.308
			c1.347,2.402,3.176,4.532,4.981,6.598c3.506,4.012,7.245,7.814,10.677,11.891c1.609,1.912,3.218,3.865,4.605,5.947
			c0.756,1.135,1.573,2.478,1.407,3.901c-0.153,1.305-1.015,2.483-1.76,3.519c-2.688,3.737-6.089,7.094-9.753,9.872
			c-4.172,3.162-8.93,5.178-13.571,7.519c-4.7,2.37-9.144,5.382-13.569,8.222C555.891,340.777,554.763,341.5,553.726,342.335z"/>
	</g>
	<g id="POLYLINE_1143_">
		
			<path fill="none" stroke="#FF6B6B" stroke-width="3.5" stroke-linecap="round" stroke-linejoin="round" stroke-miterlimit="10" d="
			M494.583,239.977c-3.428-0.27-6.807-0.576-10.195-1.176c-3.336-0.591-6.614-1.035-10.012-0.961
			c-6.87,0.15-13.622,1.184-20.446-0.108c-3.548-0.672-7.05-1.409-10.625-1.937c-0.83-0.123-4.366-0.346-4.236-1.481
			c0.058-0.509,0.834-1.037,1.2-1.384c0.837-0.794,1.673-1.588,2.51-2.383c5.018-4.764,10.072-9.412,15.775-13.357
			c5.774-3.995,11.829-7.63,17.8-11.319c0.824-0.509,1.652-1.013,2.478-1.52c0.125,2.373,0.313,4.745,0.853,7.064
			c0.568,2.44,1.489,4.785,2.48,7.08c1.027,2.379,2.166,4.714,3.12,7.124c0.875,2.213,1.508,4.531,2.542,6.68
			C489.392,235.553,492.247,237.375,494.583,239.977z"/>
	</g>
	<g id="POLYLINE_1142_">
		
			<path fill="none" stroke="#FF6B6B" stroke-width="3.5" stroke-linecap="round" stroke-linejoin="round" stroke-miterlimit="10" d="
			M558.464,237.434c-0.091-0.549-1.192-0.906-1.632-1.135c-0.685-0.356-1.363-0.724-2-1.162c-1.402-0.964-2.579-2.22-3.617-3.56
			c-1.298-1.675-2.39-3.501-3.414-5.353c-2.489-4.501-4.594-9.202-6.956-13.769c-2.145-4.149-4.731-8.029-6.7-12.275
			c-2.18-4.701-4.209-9.479-6.642-14.059c-2.107-3.967-4.632-7.724-7.947-10.787c-3.551-3.281-7.928-5.952-12.807-6.51
			c-4.407-0.504-9.468,0.235-13.526,2.041c-1.379,0.614-2.451,1.528-3.59,2.497c-0.541,0.46-1.105,0.884-1.701,1.272
			c-0.196,0.128-0.405,0.289-0.619,0.387c-0.507,0.232-0.421,0.127-0.82-0.299c-1.612-1.72-4.469-3.582-6.96-2.938
			c-2.199,0.568-4.235,2.804-5.739,4.416c-2.313,2.48-3.726,5.449-4.005,8.837c-0.394,4.782,1.395,10.924-2.506,14.625
			c-3.397,3.223-8.349,4.871-12.582,6.69c-4.945,2.126-9.926,4.184-14.753,6.573c-4.037,1.998-7.954,4.241-11.741,6.679
			c-4.616,2.971-9.318,5.839-13.853,8.933c-2.121,1.447-4.05,3.213-3.982,5.973c0.064,2.62,1.527,5.074,3.262,6.949
			c3.135,3.389,7.497,5.389,11.626,7.277c4.705,2.152,9.377,4.379,14.086,6.523c4.545,2.07,9.159,3.96,13.975,5.31
			c4.519,1.267,9.128,2.127,13.742,2.959c4.998,0.901,10.254,1.491,15.101,3.076c2.774,0.907,5.031,2.42,6.424,5.051
			c0.301,0.568,0.668,1.185,0.684,1.823c0.018,0.664-0.112,1.378-0.154,2.042c-0.076,1.204-0.123,2.409-0.146,3.616
			c-0.088,4.671,0.299,9.335,0.851,13.97c0.623,5.22,1.545,10.529,1.502,15.802c-0.038,4.676-1.378,8.931-2.937,13.291
			c-0.799,2.234-1.653,4.468-2.124,6.8c-0.445,2.199-0.475,4.453-0.864,6.659c-0.944,5.363-5.046,9.653-7.904,14.104
			c-2.642,4.114-4.606,8.553-6.166,13.179c-1.536,4.554-2.734,9.225-3.776,13.915c-1.081,4.868-2.039,9.761-2.959,14.662
			c-0.738,3.928-1.45,7.855-2.127,11.794c-1.211,7.046-2.421,14.092-3.632,21.137c-0.742,4.319-1.453,8.645-2.227,12.959
			c-0.437,2.44-1.008,4.843-1.519,7.267c-0.245,1.161-0.456,2.49,0.485,3.406c0.925,0.901,2.394,1.241,3.608,1.532
			c2.472,0.594,5.016,0.899,7.526,1.279c1.122,0.17,2.245,0.334,3.364,0.527c0.627,0.108,1.26,0.208,1.882,0.347
			c0.622,0.139,0.553,0.382,0.76,1.001c1.68,5.018,3.273,10.064,4.767,15.141c1.462,4.972,2.851,9.965,4.206,14.967
			c1.24,4.58,2.419,9.185,3.375,13.834c1.036,5.042,1.868,10.123,2.553,15.224c0.318,2.365,0.598,4.736,0.832,7.11
			c0.134,1.368,0.258,2.736,0.372,4.106c0.094,1.141-0.049,2.237-0.186,3.372c-0.605,4.997-1.801,9.898-2.804,14.824
			c-0.894,4.387-1.446,8.814-1.646,13.288c-0.238,5.309-0.322,10.636-0.803,15.931c-0.428,4.702-1.355,9.329-2.518,13.9
			c-1.237,4.862-2.723,9.657-3.897,14.536c-1.176,4.889-2.013,9.854-2.524,14.856c-0.052,0.506-0.036,1.055-0.19,1.534
			c-0.179,0.556-0.519,1.088-0.747,1.63c-0.558,1.324-0.897,2.7-1.054,4.127c-0.246,2.237-0.207,4.51-0.103,6.754
			c0.103,2.214-0.043,5.2,1.142,7.146c1.203,1.975,4.075,2.15,6.152,2.305c4.63,0.347,9.535,0.479,14.128-0.295
			c0.83-0.14,1.663-0.317,2.456-0.604c0.132-0.048,0.291-0.145,0.428-0.167c0.372-0.06,0.112-0.085,0.418,0.062
			c0.275,0.132,0.471,0.378,0.781,0.494c1.038,0.386,2.265,0.328,3.358,0.38c2.616,0.125,5.23,0.257,7.849,0.287
			c2.345,0.027,4.71-0.011,7.041-0.289c2.23-0.266,4.779-0.746,6.396-2.437c1.805-1.887,2.059-4.88,2.422-7.345
			c0.337-2.287,0.567-4.594,0.392-6.906c-0.191-2.524-0.937-4.798-1.605-7.212c-0.306-1.105-0.236-2.407-0.396-3.557
			c-0.167-1.203-0.366-2.401-0.517-3.606c-0.148-1.183-0.225-2.361-0.203-3.554c0.026-1.392,0.141-2.823-0.224-4.184
			c-0.662-2.465-2.556-4.433-3.387-6.852c-1.608-4.682-1.049-10.108-1.133-14.967c-0.071-4.161-0.314-8.313-0.526-12.469
			c-0.366-7.198-0.732-14.395-1.099-21.593c-0.103-2.035-0.256-4.073-0.311-6.11c-0.047-1.727,0.189-3.489,0.238-5.221
			c0.142-5.016,0.401-9.892,1.518-14.802c1.101-4.841,2.622-9.58,4.255-14.265c1.63-4.677,3.367-9.322,5.192-13.927
			c1.849-4.666,3.733-9.324,5.812-13.895c1.041-2.289,2.079-4.581,3.192-6.837c0.385-0.78,0.77-1.56,1.155-2.341
			c0.292-0.593,0.201-0.597,0.815-0.368c1.268,0.473,2.529,0.972,3.813,1.4c1.066,0.355,2.219,0.727,3.356,0.672
			c1.389-0.067,2.21-1,2.718-2.223c0.804-1.936,1.019-4.15,1.317-6.207c0.684-4.731,1.373-9.463,1.986-14.204
			c0.65-5.032,1.36-10.061,1.935-15.102c0.647-5.666,1.331-11.329,1.941-16.999c0.564-5.241,1.046-10.491,1.526-15.741
			c0.068-0.745,0.136-1.491,0.204-2.236c0.045-0.491,0.034-0.559,0.288-0.859c0.812-0.96,1.274-1.982,1.666-3.185
			c0.735-2.258,1.218-4.605,1.621-6.942c0.808-4.688,1.543-9.586,1.597-14.349c0.054-4.71-1.419-9.258-1.557-13.944
			c-0.079-2.706,0.811-4.693,3.235-6.021c2.024-1.109,4.266-1.811,6.393-2.689c4.107-1.695,8.164-3.562,12.115-5.594
			c5.376-2.765,10.738-5.56,16.128-8.297c4.28-2.173,8.685-3.94,13.151-5.682c2.394-0.934,4.968-1.955,6.768-3.857
			c1.883-1.991,2.561-4.573,1.953-7.227c-0.556-2.425-1.554-4.795-2.481-7.097c-0.897-2.229-1.869-4.43-2.924-6.589
			c-2.103-4.303-4.613-8.372-7.358-12.292c-2.987-4.264-6.179-8.386-9.3-12.552c-2.625-3.504-5.263-6.997-7.829-10.544
			c-3.394-4.691-6.763-9.4-10.182-14.072c-2.66-3.636-5.492-7.472-9.129-10.196c-0.481-0.36-0.995-0.653-1.493-0.986
			c-0.583-0.39-0.794-1.103-1.256-1.652c-0.812-0.965-1.967-1.356-3.17-1.59C562.965,237.502,560.652,237.35,558.464,237.434z"/>
	</g>
	<g id="POLYLINE_1129_">
		
			<path fill="none" stroke="#FF6B6B" stroke-width="3.5" stroke-linecap="round" stroke-linejoin="round" stroke-miterlimit="10" d="
			M268.263,173.069c1.046-1.633,1.906-3.431,2.429-5.302c0.324-1.158,0.381-2.321,0.532-3.506c0.291-2.281,1.532-4.293,1.12-6.65
			c-0.189-1.08-0.52-2.127-0.69-3.212c-0.185-1.184-0.263-2.447-0.735-3.562c-0.539-1.272-1.713-2.076-2.442-3.22
			c-0.627-0.983-0.968-2.123-1.412-3.193c-1.004-2.422-2.905-4.315-3.858-6.757c-0.393-1.008-0.671-2.464-1.793-2.901
			c-1.128-0.439-2.383-0.239-3.526-0.749c-2.218-0.988-3.969-2.768-6.556-2.281c-1.271,0.239-2.142,0.214-3.328-0.332
			c-1.168-0.537-2.208-1.001-3.518-1.028c-1.081-0.023-2.159,0.112-3.241,0.087c-1.119-0.026-2.348-0.211-3.411,0.241
			c-1.285,0.546-1.935,1.983-2.585,3.127c-0.294,0.518-0.582,1.061-0.997,1.494c-0.463,0.484-1.082,0.728-1.601,1.136
			c-1.08,0.848-1.674,2.174-2.755,3.03c-0.976,0.772-2.306,0.953-2.978,2.084c-0.708,1.191-1,2.295-2.094,3.24
			c-1.048,0.905-2.065,1.74-2.84,2.909c-1.55,2.336-1.465,4.851-1.746,7.529c-0.255,2.431-1.258,4.638-1.883,6.978
			c-0.3,1.12-0.453,2.249-0.368,3.41c0.047,0.641,0.158,1.276,0.293,1.904c0.046,0.213,0.096,0.426,0.147,0.638
			c0.136,0.567,0.103,0.515-0.282,0.923c-1.732,1.838-1.397,5.11-0.918,7.358c0.472,2.218,1.378,4.35,2.684,6.206
			c0.787,1.118,1.82,2.428,3.135,2.945c0.638,0.251,0.777,0.073,0.795,0.852c0.013,0.537-0.001,1.076-0.01,1.613
			c-0.04,2.367-0.164,4.732-0.203,7.099c-0.036,2.192,0.014,4.425-0.383,6.591c-0.499,2.722-2.029,4.505-4.215,6.109
			c-0.853,0.626-1.717,1.243-2.615,1.803c-0.4,0.249-0.807,0.487-1.224,0.706c-0.379,0.2-0.443,0.232-0.802,0.168
			c-0.261-0.046-0.471-0.19-0.757-0.199c-1.887-0.065-3.994,1.614-5.562,2.548c-2.152,1.282-4.295,2.579-6.465,3.83
			c-4.355,2.509-8.743,4.951-13.16,7.351c-4.7,2.554-10.325,5.018-13.406,9.584c-2.793,4.14-2.868,9.497-2.528,14.299
			c0.309,4.365,1.044,8.681,1.795,12.987c0.901,5.163,1.845,10.317,2.574,15.507c0.658,4.686,1.128,9.42,2.145,14.047
			c0.982,4.469,2.78,8.506,4.962,12.507c2.235,4.098,4.25,8.329,6.553,12.386c0.549,0.966,1.13,1.916,1.766,2.827
			c0.601,0.861,1.252,1.688,1.972,2.452c0.558,0.592,0.376,0.898,0.304,1.714c-0.212,2.393-0.429,4.781-0.838,7.15
			c-0.778,4.507-2.484,8.991-2.696,13.578c-0.055,1.194,0.19,2.383,0.096,3.574c-0.084,1.064-0.462,2.083-0.845,3.07
			c-0.809,2.085-1.796,4.156-2.193,6.374c-0.408,2.277-0.087,4.557,0.468,6.78c0.293,1.176,0.646,2.356,0.715,3.573
			c0.064,1.117-0.123,2.228-0.324,3.323c-0.418,2.274-1.13,4.86,0.15,6.989c0.184,0.306,0.4,0.591,0.635,0.86
			c0.11,0.126,0.64,0.524,0.676,0.681c0.078,0.341-0.418,1.267-0.539,1.646c-0.365,1.147-0.708,2.3-1.033,3.459
			c-1.255,4.473-2.245,9.039-2.85,13.647c-0.579,4.408-0.754,8.857-0.953,13.294c-0.228,5.084-0.5,10.159-0.386,15.249
			c0.093,4.154,0.435,8.296,0.858,12.428c0.556,5.429,1.173,10.855,1.627,16.294c0.389,4.655,0.483,9.32,0.713,13.983
			c0.235,4.777,0.565,9.55,0.939,14.319c0.36,4.595,0.727,9.191,1.168,13.778c0.494,5.137,1.171,10.302,1.344,15.464
			c0.154,4.58-0.637,9.108-0.542,13.688c0.097,4.661,0.462,9.334,0.976,13.967c0.557,5.013,1.362,9.935,2.333,14.883
			c0.882,4.495,0.994,8.994,1.138,13.559c0.146,4.601,0.321,9.193,1.229,13.72c0.465,2.319,1.059,4.61,1.562,6.92
			c0.559,2.565,0.943,5.113,0.06,7.65c-0.449,1.289-1.005,2.543-1.118,3.92c-0.111,1.354,0.123,2.732,0.46,4.039
			c0.485,1.882,1.225,3.729,2.208,5.407c0.694,1.186,1.579,2.241,2.295,3.411c0.666,1.089,0.913,2.232,1.18,3.465
			c0.237,1.095,0.559,2.231,1.565,2.864c0.464,0.292,0.423,0.103,0.363,0.605c-0.031,0.263-0.174,0.559-0.248,0.812
			c-0.161,0.551-0.309,1.105-0.44,1.664c-0.49,2.089-0.696,4.217-0.749,6.359c-0.028,1.117-0.022,2.235,0.012,3.351
			c0.035,1.168-0.002,2.575,0.661,3.595c1.18,1.816,4.419,1.626,6.316,1.676c2.116,0.055,4.233-0.001,6.349-0.037
			c4.777-0.082,9.805,0.201,14.535-0.619c1.24-0.215,2.642-0.53,3.589-1.421c0.948-0.891,1.122-2.207,1.092-3.446
			c-0.057-2.42-0.714-4.932-1.483-7.219c-0.647-1.923-1.486-3.786-2.454-5.568c-0.226-0.417-0.461-0.829-0.704-1.236
			c-0.22-0.368-0.713-0.884-0.81-1.292c-0.103-0.435,0.06-1.085-0.005-1.571c-0.089-0.666-0.249-1.321-0.366-1.983
			c-0.232-1.308-0.149-2.392,0.389-3.617c0.507-1.153,0.994-2.202,1.022-3.488c0.048-2.213-0.738-4.436-1.808-6.343
			c-1.187-2.114-2.695-4.031-3.488-6.349c-0.777-2.271-1.02-4.771-0.867-7.161c0.083-1.304,0.295-2.608,0.791-3.822
			c0.454-1.112,1.134-2.121,1.512-3.265c0.755-2.286,0.414-4.911,0.193-7.267c-0.428-4.562-0.933-9.087-0.969-13.674
			c-0.039-4.998,0.106-10.024-0.257-15.013c-0.327-4.493-1.575-8.65-2.697-12.986c-0.538-2.078-0.851-4.162-0.788-6.311
			c0.062-2.132,0.406-4.243,0.493-6.372c0.091-2.241-0.005-4.474,0.452-6.684c0.471-2.278,1.264-4.493,1.965-6.707
			c1.356-4.281,2.236-8.617,2.819-13.068c0.608-4.633,1.001-9.292,1.547-13.932c0.582-4.95,1.19-9.893,2.047-14.804
			c0.714-4.093,1.495-8.313,3.167-12.141c1.038-2.375,2.638-4.253,4.186-6.297c0.897-1.186,1.632-2.448,2.259-3.793
			c0.289-0.619,0.564-1.245,0.855-1.863c0.202-0.43,0.493-1.344,0.938-1.593c0.868-0.485,1.072,2.16,1.145,2.725
			c0.12,0.932,0.206,1.868,0.282,2.804c0.224,2.746,0.405,5.495,0.643,8.24c0.39,4.498,1.008,8.98,1.893,13.407
			c1.002,5.018,2.381,9.949,3.673,14.897c1.114,4.265,2.223,8.535,3.007,12.876c0.828,4.587,1.175,9.316,2.422,13.817
			c0.635,2.292,1.682,4.415,2.658,6.574c0.877,1.941,1.596,3.947,2.177,5.996c1.243,4.382,1.352,8.797,1.893,13.285
			c0.49,4.063,1.139,8.104,1.572,12.174c0.646,6.056,1.292,12.112,1.937,18.168c0.455,4.269,0.875,8.542,1.393,12.804
			c0.588,4.828,1.115,9.695,2.142,14.454c0.428,1.984,0.992,3.923,1.802,5.786c0.861,1.978,1.866,3.891,2.581,5.931
			c0.794,2.264,1.014,4.298,0.38,6.631c-0.296,1.089-0.584,2.163-0.391,3.298c0.239,1.404,0.974,2.7,1.742,3.876
			c0.544,0.833,1.138,1.633,1.76,2.41c0.352,0.44,0.715,0.87,1.083,1.297c0.557,0.647,0.769,0.8,0.721,1.662
			c-0.126,2.264-0.268,4.517-0.316,6.786c-0.025,1.215-0.05,2.429-0.09,3.643c-0.041,1.229-0.196,2.545,0.028,3.764
			c0.504,2.748,3.808,3.137,6.102,3.387c3.594,0.391,7.247,0.327,10.859,0.322c5.963-0.007,11.926-0.014,17.889-0.021
			c5.808-0.007,11.616-0.014,17.424-0.021c1.353-0.002,2.705-0.007,4.056-0.09c2.139-0.133,5.564-0.308,6.386-2.751
			c0.702-2.085-0.198-4.71-0.615-6.773c-0.226-1.12-0.435-2.316-1.089-3.279c-0.737-1.084-1.982-1.593-3.199-1.939
			c-2.343-0.666-4.833-0.914-7.231-1.298c-2.325-0.372-4.65-0.735-6.961-1.183c-2.059-0.399-4.14-0.844-6.102-1.598
			c-3.386-1.3-6.126-3.816-8.006-6.893c0.979-0.337,2.105-0.787,2.49-1.837c0.373-1.017,0.075-2.268-0.19-3.271
			c-0.53-2.002-1.836-3.918-0.862-5.97c0.895-1.887,2.162-3.461,2.322-5.624c0.153-2.073-0.54-4.065-1.39-5.922
			c-1.75-3.823-3.744-7.537-5.511-11.355c-1.662-3.591-3.718-7.444-4.12-11.426c-0.375-3.71-0.332-7.49-0.335-11.216
			c-0.003-4.93,0.036-9.86,0.053-14.79c0.013-3.671,0.071-7.345-0.078-11.014c-0.078-1.915-0.195-3.838-0.494-5.733
			c-0.308-1.956-0.867-3.85-1.339-5.77c-0.973-3.961-1.282-8.051-2.239-12.015c-0.863-3.573-1.95-6.858-1.948-10.579
			c0.002-3.999,0.737-7.926,1.287-11.873c0.539-3.868,0.661-7.745,0.538-11.645c-0.272-8.609-1.253-17.217-2.045-25.788
			c-0.732-7.924-1.588-15.856-2.746-23.73c-0.61-4.146-1.352-8.263-2.21-12.364c-0.834-3.99-1.887-7.942-2.593-11.958
			c-0.344-1.956-0.365-3.892-0.446-5.869c-0.079-1.921-0.369-3.823-0.727-5.71c-0.37-1.95-0.826-3.885-1.363-5.795
			c-0.248-0.881-0.511-1.758-0.801-2.626c-0.105-0.315-0.452-0.9-0.426-1.221c0.031-0.385,0.435-0.912,0.541-1.323
			c0.44-1.719,0.209-3.579,0.005-5.317c-0.231-1.969-0.503-3.93-0.534-5.915c-0.033-2.069,0.193-4.098,0.875-6.059
			c0.79-2.271,1.528-4.343,1.359-6.784c-0.272-3.937-1.443-7.661-1.28-11.644c0.04-0.98,0.105-1.959,0.113-2.941
			c0.004-0.442-0.002-0.884-0.005-1.326c-0.003-0.519-0.211-1.584-0.014-2.066c0.157-0.383,0.552-0.269,1.056-0.315
			c0.501-0.047,1.003-0.093,1.505-0.134c0.937-0.076,1.876-0.147,2.815-0.194c4.128-0.208,8.279-0.218,12.396-0.605
			c1.963-0.185,4.07-0.409,5.826-1.369c1.999-1.093,3.179-3.16,4.048-5.19c2.943-6.874,3.434-14.898,3.365-22.282
			c-0.071-7.559-1.217-14.979-2.383-22.427c-1.385-8.846-2.692-17.708-4.124-26.547c-0.675-4.17-1.465-8.335-2.581-12.411
			c-0.997-3.64-2.242-7.339-4.317-10.522c-1.884-2.891-4.501-5.12-7.433-6.893c-3.72-2.25-7.724-4.07-11.596-6.035
			c-3.65-1.852-7.252-3.811-10.842-5.778c-1.858-1.018-3.693-2.078-5.538-3.119c-0.807-0.455-1.609-0.933-2.449-1.326
			c-0.482-0.226-1.009-0.481-1.545-0.54c-0.497-0.055-0.876,0.289-1.283,0.261c-0.818-0.057-1.936-1.294-2.318-1.957
			c-0.481-0.834-0.572-1.831-0.464-2.773c0.14-1.222,1.138-1.885,1.835-2.849c0.889-1.229,1.622-2.576,2.229-3.966
			c0.83-1.897,1.368-3.891,1.979-5.865c0.57-1.842,1.257-3.654,1.746-5.52C268.57,180.99,268.209,177.023,268.263,173.069z"/>
	</g>
</g>
</svg>
