<?xml version="1.0" encoding="utf-8"?>
<!-- Generator: Adobe Illustrator 23.0.4, SVG Export Plug-In . SVG Version: 6.00 Build 0)  -->
<!DOCTYPE svg PUBLIC "-//W3C//DTD SVG 1.1//EN" "http://www.w3.org/Graphics/SVG/1.1/DTD/svg11.dtd" [
	<!ENTITY ns_extend "http://ns.adobe.com/Extensibility/1.0/">
	<!ENTITY ns_ai "http://ns.adobe.com/AdobeIllustrator/10.0/">
	<!ENTITY ns_graphs "http://ns.adobe.com/Graphs/1.0/">
	<!ENTITY ns_vars "http://ns.adobe.com/Variables/1.0/">
	<!ENTITY ns_imrep "http://ns.adobe.com/ImageReplacement/1.0/">
	<!ENTITY ns_sfw "http://ns.adobe.com/SaveForWeb/1.0/">
	<!ENTITY ns_custom "http://ns.adobe.com/GenericCustomNamespace/1.0/">
	<!ENTITY ns_adobe_xpath "http://ns.adobe.com/XPath/1.0/">
]>
<svg version="1.1" xmlns:x="&ns_extend;" xmlns:i="&ns_ai;" xmlns:graph="&ns_graphs;"
	 xmlns="http://www.w3.org/2000/svg" xmlns:xlink="http://www.w3.org/1999/xlink" x="0px" y="0px" viewBox="0 0 750 750"
	 style="enable-background:new 0 0 750 750;" xml:space="preserve">
<style type="text/css">
	.st0{fill:#FFFFFF;}
	.st1{fill:#FB8604;}
	.st2{fill:none;stroke:#FB8604;stroke-width:3.25;stroke-linecap:round;stroke-linejoin:round;}
	.st3{fill:none;stroke:#FB8604;stroke-width:3.25;stroke-linecap:round;stroke-linejoin:round;stroke-dasharray:4.0135,7.0236;}
	.st4{fill:none;stroke:#FB8604;stroke-width:3.25;stroke-linecap:round;stroke-linejoin:round;stroke-dasharray:3.9835,6.9712;}
	.st5{fill:none;stroke:#FB8604;stroke-width:3.25;stroke-linecap:round;stroke-linejoin:round;stroke-dasharray:3.9824,6.9692;}
	.st6{fill:none;stroke:#FB8604;stroke-width:3.25;stroke-linecap:round;stroke-linejoin:round;stroke-dasharray:4.0066,7.0115;}
	.st7{fill:none;stroke:#FB8604;stroke-width:3.25;stroke-linecap:round;stroke-linejoin:round;stroke-dasharray:3.9826,6.9695;}
	.st8{fill:none;stroke:#FB8604;stroke-width:3.25;stroke-linecap:round;stroke-linejoin:round;stroke-dasharray:3.9819,6.9683;}
	.st9{fill:none;stroke:#FB8604;stroke-width:3.25;stroke-linecap:round;stroke-linejoin:round;stroke-dasharray:3.9911,6.9844;}
	.st10{fill:none;stroke:#FB8604;stroke-width:3.25;stroke-linecap:round;stroke-linejoin:round;stroke-dasharray:3.9756,6.9574;}
	.st11{fill:none;stroke:#FB8604;stroke-width:3.25;stroke-linecap:round;stroke-linejoin:round;stroke-dasharray:3.986,6.9755;}
	.st12{fill:none;stroke:#FB8604;stroke-width:3.25;stroke-linecap:round;stroke-linejoin:round;stroke-dasharray:4.0141,7.0247;}
	.st13{fill:none;stroke:#FB8604;stroke-width:3.25;stroke-linecap:round;stroke-linejoin:round;stroke-dasharray:4,7;}
	.st14{fill:none;stroke:#FB8604;stroke-width:3.25;stroke-linecap:round;stroke-linejoin:round;stroke-dasharray:3.995,6.9913;}
	.st15{fill:none;stroke:#FB8604;stroke-width:3.25;stroke-linecap:round;stroke-linejoin:round;stroke-dasharray:3.9881,6.9792;}
	.st16{fill:none;stroke:#FB8604;stroke-width:3.25;stroke-linecap:round;stroke-linejoin:round;stroke-dasharray:4.0085,7.0149;}
	.st17{fill:none;stroke:#FB8604;stroke-width:3.25;stroke-linecap:round;stroke-linejoin:round;stroke-dasharray:4.0036,7.0063;}
	.st18{fill:none;stroke:#FB8604;stroke-width:3.25;stroke-linecap:round;stroke-linejoin:round;stroke-dasharray:3.9989,6.9981;}
	.st19{fill:none;stroke:#FB8604;stroke-width:3.25;stroke-linecap:round;stroke-linejoin:round;stroke-dasharray:4.0136,7.0238;}
	.st20{fill:none;stroke:#FB8604;stroke-width:3.25;stroke-linecap:round;stroke-linejoin:round;stroke-dasharray:4.0219,7.0384;}
	.st21{fill:none;stroke:#FB8604;stroke-width:3.25;stroke-linecap:round;stroke-linejoin:round;stroke-dasharray:4.154,7.2696;}
	.st22{fill:none;stroke:#FB8604;stroke-width:3.25;stroke-linecap:round;stroke-linejoin:round;stroke-dasharray:3.9475,6.9081;}
	.st23{fill:none;stroke:#FB8604;stroke-width:3.25;stroke-linecap:round;stroke-linejoin:round;stroke-dasharray:3.7444,6.5527;}
	.st24{fill:none;stroke:#FB8604;stroke-width:3.25;stroke-linecap:round;stroke-linejoin:round;stroke-dasharray:3.7742,6.6048;}
	.st25{fill:none;stroke:#FB8604;stroke-width:3.25;stroke-linecap:round;stroke-linejoin:round;stroke-dasharray:3.8904,6.8082;}
	.st26{fill:none;stroke:#FB8604;stroke-width:3.25;stroke-linecap:round;stroke-linejoin:round;stroke-dasharray:3.9371,6.8899;}
	.st27{fill:none;stroke:#FB8604;stroke-width:3.25;stroke-linecap:round;stroke-linejoin:round;stroke-dasharray:3.888,6.8039;}
	.st28{fill:none;stroke:#FB8604;stroke-width:3.25;stroke-linecap:round;stroke-linejoin:round;stroke-dasharray:3.4991,6.1234;}
	.st29{fill:none;stroke:#FB8604;stroke-width:3.25;stroke-linecap:round;stroke-linejoin:round;stroke-dasharray:3.8752,6.7816;}
	.st30{fill:none;stroke:#FB8604;stroke-width:3.25;stroke-linecap:round;stroke-linejoin:round;stroke-dasharray:4.1408,7.2463;}
	.st31{fill:none;stroke:#FB8604;stroke-width:3.25;stroke-linecap:round;stroke-linejoin:round;stroke-dasharray:4.336,7.588;}
	.st32{fill:none;stroke:#FB8604;stroke-width:3.25;stroke-linecap:round;stroke-linejoin:round;stroke-dasharray:3.8147,6.6757;}
	.st33{fill:none;stroke:#FB8604;stroke-width:2;stroke-linecap:round;stroke-linejoin:round;stroke-miterlimit:10;}
	.st34{fill:none;stroke:#FB8604;stroke-width:2.75;stroke-linecap:round;stroke-linejoin:round;stroke-miterlimit:10;}
	.st35{fill:none;stroke:#FB8604;stroke-width:3.5;stroke-linecap:round;stroke-linejoin:round;stroke-miterlimit:10;}
</style>
<metadata>
	<sfw  xmlns="&ns_sfw;">
		<slices></slices>
		<sliceSourceBounds  bottomLeftOrigin="true" height="6425" width="6516" x="-4225" y="-675"></sliceSourceBounds>
	</sfw>
</metadata>
<g id="FILL-BACKGROUND">
	<rect class="st0" width="750" height="750"/>
</g>
<g id="N-DIMENSIONS">
</g>
<g id="AG-DIAGRAM">
</g>
<g id="AG-GUIDES">
</g>
<g id="AG-DETAILS">
	<g id="POLYLINE_1000_">
		<path class="st33" d="M315.4,590.8c2.9-2.1,6-3.3,9.3-1.4c1.7,1,3.4,2.3,5.6,1.8c1.8-0.4,3.4-1.5,4.9-2.4c2.3-1.3,4.7-2.2,7.4-2.1
			c4.5,0.1,8.7,1.8,13.1,2.5c2.8,0.4,5.5,0.1,8.3-0.8c3.5-1.2,6.9-2.9,10.7-3.1c3.9-0.2,7.8,1,11.7,1c3.2,0,6-1,8.5-3.1
			c7.1-5.8,11.8-15.5,13.3-24.4c1.7-10.2,0.2-20.7,0.1-31c0-10.8,1.6-21.5,3.8-32.1c2.3-11,5.4-21.8,7.6-32.8
			c2.3-11.4,2.7-22.9,3.7-34.4c0.9-11.2,3.2-22.2,6.4-33c0.8-2.7,1.7-5.3,2.5-7.9"/>
	</g>
	<g id="POLYLINE_1001_">
		<path class="st33" d="M469.8,327.5c-0.3-9.3-0.3-18.5-0.6-27.8c-0.2-7.7,0.2-15.4,2.1-23c1.8-7.5,5.1-15.4,4.3-23.3
			c-0.6-5.7-4-10.6-7.8-14.6c-5.8-6.1-13-10.5-19.6-15.7c-5.5-4.3-11.1-9.6-14.1-16c-1-2-1.7-4.5-0.8-6.7c1.2-2.7,4.3-3.6,7-3.4
			c5.8,0.6,11.3,4.7,15.8,8.1c6.8,5.2,12.7,11.8,19.8,16.7c2.2,1.5,5,3.2,7.7,2.6c2.6-0.5,4.5-3,5.7-5.2c0.3-0.6,0.5-1.2,0.7-1.8"/>
	</g>
</g>
<g id="AG-PEOPLE">
</g>
<g id="AG-ANIMALS">
	<g id="POLYLINE_1040_">
		<path class="st34" d="M420.3,337c-2.3,13-1.6,28,4.2,40c5.6,11.4,17.3,18,25.3,27.6c8.6,10.2,15.1,22.3,19.7,34.8
			c4.8,13,6.8,26.6,9.3,40.2c1.2,6.4,2.4,13,5.2,19c1.8,3.9,5.2,9.3,10.2,8.6c3.1-0.5,5.8-2.9,7.9-5.1c4.5-4.9,7.6-11,9.5-17.3
			c3.9-12.9,3-26.7,1.7-39.9c-1.3-13.9-3.7-27.8-7.8-41.1c-4.1-13.1-10.2-25-17.8-36.3c-3.8-5.7-7.9-11.3-11.5-17.1
			c-2.7-4.4-4.9-8.9-5.6-13.9c-0.4-2.9-0.5-5.9-0.7-8.8"/>
	</g>
	<g id="POLYLINE_1039_">
		<path class="st34" d="M510.7,167.3c0.2-2.1,2.6-4.3,4-5.7c1.3-1.2,2.6-2.3,4.3-2.8c3.8-1.3,8.5-0.3,12.3,0.2
			c3.1,0.5,6.3,1.1,9.2,2.2c2,0.8,4.8,2.1,5,4.5c0.3,2.6-2.2,2.9-4.2,2.8c-3.3-0.1-6.7-0.4-10-0.4c-4.5,0-8.9,0.2-13.4,0.2
			C516.7,168.5,510.6,169.1,510.7,167.3z"/>
	</g>
	<g id="POLYLINE_454_">
		<path class="st34" d="M511.8,168.3c3.7,4.2,9.2,7.5,14.8,8.3c3.5,0.5,6.9-0.6,9.9-2.4c2.5-1.5,4.9-3.3,6.7-5.6"/>
	</g>
	<g id="POLYLINE_453_">
		<path class="st34" d="M520.9,158.4c-5.9,0.2-11.7-0.2-17.4-1.9c-6.7-2-12.9-5.3-19.1-8.6c-6.2-3.4-12.3-6.9-19-9.1
			c-5.8-1.9-11.9-2.8-18-2.7c-12.8,0.2-25.7,4.1-36.6,10.8c-12.2,7.5-21.6,18.8-29.7,30.4c-8,11.6-14.9,23.9-22.9,35.5
			c-9.3,13.5-18.7,27-27.7,40.7c-8.1,12.3-15.6,25-22.1,38.1c-6.5,13.2-11.9,26.8-16,40.9c-4.2,14.2-7.3,28.8-9.8,43.4
			c-2.5,15.1-5.1,30.2-6.4,45.5c-1.3,15.4-0.4,30.7,0.5,46.1c0.9,14.1,1.1,28-0.2,42.1c-0.7,7.7-1.1,15.6-2.5,23.3
			c-0.3,1.9-0.8,3.7-1.8,5.3c-1.3,2.1-3.5,3.5-5.5,4.9c-1.8,1.3-3.7,2.8-4.8,4.9c-1.1,2.2-1.3,4.7-1.6,7.1c-0.2,2.6-0.3,5.3-1.1,7.8
			c-0.8,2.5-2.2,4.7-3.4,7c-0.9,1.8-1.3,3.6-1.3,5.7c0,3-0.8,5.1-3.1,7.2c-4.7,4.3-11.2,7-16.9,9.6c-13.7,6.1-27.9,11.2-41.5,17.6
			c-5.8,2.7-12.1,5.6-16.8,10c-1.3,1.2-3.1,3-3.1,4.9c0,2.6,3.4,3.7,5.4,4.3c6.1,1.9,12.9,2.1,19.2,2.2c7.4,0.1,14.8-0.3,22.1-1
			c14.3-1.4,28.8-3.7,42.5-8.3c6.6-2.2,13.1-4.9,19-8.5c6.1-3.7,11.1-8.7,16.6-13.1c5.2-4.2,11.2-7.2,17.3-9.9"/>
	</g>
	<g id="POLYLINE_452_">
		<path class="st34" d="M294.8,603.5c8.6,4.3,17.5,7.9,26.7,10.8c4.6,1.5,9.4,2.8,14.3,3.2c4.5,0.4,8.8-0.4,13.2-1
			c2.7-0.3,5.4-0.4,8,0.5c2.9,1.1,5.9,3.5,9,1.7c1.4-0.8,2.7-2,4.3-2.5c1.5-0.5,3.1-0.3,4.6,0c3.5,0.7,7.3,2.4,10.9,1.7
			c2.9-0.5,5.1-2.5,7.7-3.7c2.4-1.1,5-1,7.6-1c8.6,0,16.1-4,22.7-9.3c7.2-5.7,12.9-13,17.8-20.7c5.3-8.3,9.8-17.2,14.3-26
			c4.7-9.1,9.1-18.4,13.4-27.7c4-8.9,7.8-18,11.1-27.2c0.8-2.3,1.6-4.7,2.4-7"/>
	</g>
	<g id="POLYLINE_451_">
		<path class="st34" d="M496.2,381.3c0.7-9.2,1.4-18.4,2.1-27.5c0.5-6.9,1.3-13.7,2.1-20.5c1-8.3,2-16.6,2.7-25
			c0.6-7.6,0.9-15.2,0.6-22.8c-0.3-7.8-1.3-15.6-2.9-23.2c-1.6-7.8-3.7-15.5-6.3-23.1c-2.1-5.9-5-11.6-4.9-18
			c0.1-6.2,2-12.6,5.1-17.9c3.1-5.3,7.9-9.1,13.2-12.2c6.5-3.9,13.5-6.8,19.6-11.3c1.6-1.1,3.1-2.4,4.6-3.6"/>
	</g>
	<g id="POLYLINE_450_">
		<path class="st34" d="M341,617.4c-1.1,4.1,0.3,9.3,4.3,11.3c4.1,2.1,9.3,1.8,13.8,2c13.1,0.4,26.3,0.3,39.4,0.2
			c10.3-0.1,20.6-0.3,30.9-0.4c5.5-0.1,11.1-0.3,16.6,0c1.6,0.1,6.7,1.3,8-0.3c1.2-1.6-0.9-4.7-1.9-5.9c-2.1-2.5-5-4-8.1-4.7
			c-6.3-1.4-12.8-0.3-19.1-0.5c-5.3-0.2-10.2-1.6-15-3.9c-1.4-0.7-2.7-1.4-4-2.2"/>
	</g>
</g>
<g id="AG-OUTLINE">
	<g id="POLYLINE_2_">
		<path class="st35" d="M520.9,158.4c-6.1,0.2-12-0.2-17.9-2.1c-7.1-2.2-13.6-5.8-20.1-9.3c-6.1-3.3-12.2-6.7-18.9-8.7
			c-6-1.8-12.2-2.5-18.5-2.2c-6.5,0.3-13,1.6-19.2,3.6c-6.4,2.1-12.6,5.1-18.2,8.9c-5.9,4-11.1,9-15.9,14.3
			c-4.9,5.6-9.4,11.6-13.5,17.8c-4.6,7-9,14-13.5,21.1c-3.2,5-6.4,10-9.8,14.9c-6,8.7-11.9,17.4-17.9,26.1
			c-3.6,5.3-7.2,10.7-10.6,16.1c-4.2,6.6-8.2,13.3-12,20.1c-3.7,6.7-7.2,13.5-10.4,20.4c-3.1,6.9-6,13.9-8.4,21
			c-2.5,7.3-4.7,14.8-6.7,22.3c-1.9,7.2-3.5,14.5-4.9,21.8c-1.4,7.3-2.7,14.6-3.8,22c-1.3,8.4-2.6,16.7-3.6,25.1
			c-0.9,7.2-1.5,14.5-1.8,21.8c-0.2,7,0,14.1,0.4,21.1c0.5,8.4,1.2,16.9,1.5,25.4c0.3,7.4,0.2,14.9-0.3,22.3
			c-0.5,8.4-1.5,16.8-2.4,25.1c-0.5,4.5-0.7,9.6-4.2,13c-3.8,3.7-8.4,5.2-9.6,10.9c-1,4.9-0.5,9.8-2.7,14.4c-1,2.2-2.5,4.2-3.2,6.5
			c-0.9,2.7,0.1,5.7-1.3,8.2c-1.2,2.3-3.6,3.9-5.7,5.3c-2.9,1.9-6.1,3.5-9.2,5c-6.9,3.3-14,6.1-21,9c-7.3,3-14.6,5.9-21.8,9.2
			c-6.4,2.9-13.1,5.9-18.6,10.4c-1.5,1.2-3.1,2.6-3.9,4.4c-1.2,2.8,1.5,4.5,3.8,5.3c5.9,2.3,12.8,2.4,19.1,2.6
			c7.4,0.2,14.9-0.2,22.3-0.9c7.7-0.7,15.3-1.7,22.8-3.1c7.1-1.3,14.1-3,21-5.3c6.8-2.3,13.6-5.1,19.7-8.9c2.9-1.8,5.5-3.8,8.1-6
			c0.7-0.6,1.5-1.3,2.2-1.9c0.5-0.4,1.7-1.9,2.3-2c0.6-0.1,1.8,0.9,2.4,1.2c0.9,0.4,1.7,0.8,2.6,1.2c6.8,3.1,13.8,5.8,20.9,8.2
			c6.5,2.1,13.4,3.9,20.3,3.4c-1.1,4.1,0.3,9.3,4.3,11.3c4.1,2.1,9.3,1.8,13.8,2c13.1,0.4,26.3,0.3,39.4,0.2
			c10.3-0.1,20.6-0.3,30.9-0.4c5.5-0.1,11.1-0.3,16.6,0c1.6,0.1,6.7,1.3,8-0.3c1.2-1.6-0.9-4.7-1.9-5.9c-2.1-2.5-5-4-8.1-4.7
			c-6.3-1.4-12.8-0.3-19.1-0.5c-5.3-0.2-10.2-1.6-15-3.9c-1.4-0.7-2.7-1.4-4-2.2c8.2-1.2,15.8-6.7,21.7-12.2
			c6.8-6.3,12.1-14,16.8-21.9c4.9-8.3,9.2-16.9,13.5-25.5c4.6-9.2,9-18.4,13.1-27.8c3.9-8.8,7.5-17.7,10.6-26.8
			c0.4-1.2,0.8-2.3,1.2-3.5c1.7,4.6,5.1,12.2,11.1,11.8c3.9-0.3,7.2-3.7,9.5-6.5c4.8-5.8,7.8-13,9.4-20.3c1.6-7.5,1.8-15.2,1.5-22.8
			c-0.3-7.8-1.1-15.6-2.2-23.3c-1.1-7.9-2.5-15.7-4.5-23.4c-2-7.7-4.5-15.3-7.8-22.6c-0.7-1.6-1.5-3.3-2.4-4.9
			c-0.6-1.2-1.1-1.9-1-3.2c0.4-4.9,0.8-9.9,1.1-14.8c0.6-8.1,1.2-16.2,2.1-24.3c0.8-7.6,1.9-15.2,2.7-22.9
			c0.8-7.8,1.5-15.6,1.7-23.5c0.2-7.5-0.2-15-1.2-22.4c-1.1-7.8-2.7-15.6-4.9-23.2c-1-3.6-2.2-7.3-3.4-10.8c-1.3-3.7-3-7.4-4-11.3
			c-1.3-5.3-0.5-10.9,1.1-16.1c1.7-5.5,4.6-10.5,8.9-14.4c5.4-4.9,12.2-8,18.5-11.4c3.2-1.7,6.3-3.5,9.1-5.7c1.4-1,2.8-2.5,4.3-3.3
			c0.8-0.4,1.8-0.6,2.6-1.1c2.2-1.1,4.3-2.5,6.1-4.2c0.9-0.9,1.7-1.9,2.7-2.4c1.2-0.6,1.8-1.4,1.6-2.8c-0.4-2.7-3.7-4-6-4.7
			c-3.4-1.2-7.1-1.8-10.7-2.2C526.2,158.4,523.5,158.1,520.9,158.4z"/>
	</g>
</g>
</svg>
