<?xml version="1.0" encoding="utf-8"?>
<!-- Generator: Adobe Illustrator 23.0.6, SVG Export Plug-In . SVG Version: 6.00 Build 0)  -->
<!DOCTYPE svg PUBLIC "-//W3C//DTD SVG 1.1//EN" "http://www.w3.org/Graphics/SVG/1.1/DTD/svg11.dtd" [
	<!ENTITY ns_extend "http://ns.adobe.com/Extensibility/1.0/">
	<!ENTITY ns_ai "http://ns.adobe.com/AdobeIllustrator/10.0/">
	<!ENTITY ns_graphs "http://ns.adobe.com/Graphs/1.0/">
	<!ENTITY ns_vars "http://ns.adobe.com/Variables/1.0/">
	<!ENTITY ns_imrep "http://ns.adobe.com/ImageReplacement/1.0/">
	<!ENTITY ns_sfw "http://ns.adobe.com/SaveForWeb/1.0/">
	<!ENTITY ns_custom "http://ns.adobe.com/GenericCustomNamespace/1.0/">
	<!ENTITY ns_adobe_xpath "http://ns.adobe.com/XPath/1.0/">
]>
<svg version="1.1" xmlns:x="&ns_extend;" xmlns:i="&ns_ai;" xmlns:graph="&ns_graphs;"
	 xmlns="http://www.w3.org/2000/svg" xmlns:xlink="http://www.w3.org/1999/xlink" x="0px" y="0px" viewBox="0 0 750 750"
	 enable-background="new 0 0 750 750" xml:space="preserve">
<metadata>
	<sfw  xmlns="&ns_sfw;">
		<slices></slices>
		<sliceSourceBounds  bottomLeftOrigin="true" height="13750" width="1369.644" x="-2000" y="-7000"></sliceSourceBounds>
	</sfw>
</metadata>
<g id="FILL-BACKGROUND">
	<rect fill="#FFFFFF" width="750" height="750"/>
</g>
<g id="N-DIMENSIONS">
</g>
<g id="AG-GUIDES">
</g>
<g id="N-TEXT">
</g>
<g id="AG-DIAGRAM">
	<g id="POLYLINE_452_">
		<g>
			<g>
				
					<line fill="none" stroke="#C346FF" stroke-width="3.25" stroke-linecap="round" stroke-linejoin="round" x1="104.193" y1="656.25" x2="106.193" y2="656.25"/>
				
					<line fill="none" stroke="#C346FF" stroke-width="3.25" stroke-linecap="round" stroke-linejoin="round" stroke-dasharray="4.0108,7.0189" x1="113.212" y1="656.25" x2="661.184" y2="656.25"/>
				
					<line fill="none" stroke="#C346FF" stroke-width="3.25" stroke-linecap="round" stroke-linejoin="round" x1="664.693" y1="656.25" x2="666.693" y2="656.25"/>
			</g>
		</g>
	</g>
</g>
<g id="AG-DETAILS">
	<g id="POLYLINE_460_">
		
			<path fill="none" stroke="#C346FF" stroke-width="1.75" stroke-linecap="round" stroke-linejoin="round" stroke-miterlimit="10" d="
			M559.14,303.575c0.604-1.207,1.028-2.451,1.893-3.508c0.431-0.526,2.904-3.002,2.719-1.206c-0.09,0.868-0.547,1.759-0.973,2.502
			c-0.981,1.71-2.027,3.494-3.227,5.059c-1.069,1.394-2.175,1.943-3.926,1.83c-1.852-0.12-3.164,0.579-4.901,1.067
			c-1.549,0.435-3.296,0.342-4.738-0.402c-1.497-0.773-2.452-2.361-4.173-2.696c-0.637-0.124-1.305-0.125-1.914-0.369
			c-0.744-0.297-1.289-0.915-1.741-1.555c-0.997-1.413-1.686-3.061-2.383-4.635c-0.568-1.283-1.199-2.559-1.469-3.946
			c-0.15-0.77-0.512-2.649,0.352-3.093c1.135-0.584,1.831,3.203,2.034,3.774c0.495,1.393,1.156,2.77,2.073,3.939
			c1.017,1.296,2.232,1.751,3.726,2.28c1.364,0.483,2.499,1.454,3.906,1.829c1.278,0.341,2.644,0.224,3.948,0.196
			c2.338-0.05,4.649,1.257,6.979,0.587C558.193,304.978,558.74,304.357,559.14,303.575z"/>
	</g>
	<g id="POLYLINE_473_">
		
			<path fill="none" stroke="#C346FF" stroke-width="1.75" stroke-linecap="round" stroke-linejoin="round" stroke-miterlimit="10" d="
			M559.912,295.38c2.357,0.292,3.706-2.928,4.339-4.733c0.555-1.581,0.73-3.4-1.425-3.497c-2.098-0.094-4.381,0.517-6.386,1.067
			c-0.923,0.253-1.907,0.533-2.736,1.033c-1.232,0.743-0.833,1.617,0.068,2.504C555.339,293.296,557.644,295.064,559.912,295.38z"/>
	</g>
	<g id="POLYLINE_474_">
		
			<path fill="none" stroke="#C346FF" stroke-width="1.75" stroke-linecap="round" stroke-linejoin="round" stroke-miterlimit="10" d="
			M540.599,292.153c0.945,0.595,2.069,0.355,3.07,0.045c1.201-0.372,2.418-0.817,3.546-1.376c0.77-0.381,2.032-1.007,1.573-2.046
			c-0.4-0.903-1.624-1.646-2.382-2.199c-1.745-1.275-3.662-2.557-5.737-3.227c-0.909-0.293-2.094-0.514-2.876,0.201
			c-0.715,0.654-0.542,1.655-0.325,2.492C537.972,287.992,538.789,290.938,540.599,292.153z"/>
	</g>
	<g id="POLYLINE_507_">
		
			<path fill="none" stroke="#C346FF" stroke-width="1.75" stroke-linecap="round" stroke-linejoin="round" stroke-miterlimit="10" d="
			M278.828,178.952c0.882-1.823,1.649-3.678,1.746-5.724c0.137-2.914-0.647-5.785-0.616-8.697c0.018-1.722,0.295-3.42,0.561-5.117"
			/>
	</g>
	<g id="POLYLINE_508_">
		
			<path fill="none" stroke="#C346FF" stroke-width="1.75" stroke-linecap="round" stroke-linejoin="round" stroke-miterlimit="10" d="
			M275.138,180.537c0.784-2.537,1.327-5.041,1.425-7.701c0.101-2.739-0.03-5.481,0.08-8.22c0.065-1.632,0.195-3.262,0.301-4.891"/>
	</g>
	<g id="POLYLINE_509_">
		
			<path fill="none" stroke="#C346FF" stroke-width="1.75" stroke-linecap="round" stroke-linejoin="round" stroke-miterlimit="10" d="
			M273.564,159.064c-0.298,0.803-0.602,1.588-0.689,2.446c-0.14,1.396,0.091,2.835,0.197,4.225c0.236,3.12-0.032,6.209-0.734,9.258
			c-0.435,1.885-1.087,3.646-1.955,5.374"/>
	</g>
	<g id="POLYLINE_510_">
		
			<path fill="none" stroke="#C346FF" stroke-width="1.75" stroke-linecap="round" stroke-linejoin="round" stroke-miterlimit="10" d="
			M266.713,179.776c1.143-2.31,1.868-4.503,2.061-7.088c0.241-3.226,0.043-6.464,0.078-9.694c0.016-1.467,0.157-2.88,0.438-4.318"/>
	</g>
	<g id="POLYLINE_511_">
		
			<path fill="none" stroke="#C346FF" stroke-width="1.75" stroke-linecap="round" stroke-linejoin="round" stroke-miterlimit="10" d="
			M262.304,178.959c0.956-2.552,1.709-5.184,2.072-7.889c0.368-2.747,0.35-5.528,0.569-8.287c0.125-1.579,0.31-3.149,0.522-4.718"/>
	</g>
	<g id="POLYLINE_512_">
		
			<path fill="none" stroke="#C346FF" stroke-width="1.75" stroke-linecap="round" stroke-linejoin="round" stroke-miterlimit="10" d="
			M258.505,177.529c0.972-2.205,1.639-4.505,1.915-6.901c0.312-2.71,0.337-5.445,0.628-8.158c0.162-1.508,0.387-3.005,0.63-4.502"/>
	</g>
	<g id="POLYLINE_513_">
		
			<path fill="none" stroke="#C346FF" stroke-width="1.75" stroke-linecap="round" stroke-linejoin="round" stroke-miterlimit="10" d="
			M258.8,156.434c-0.278,2.592-0.734,5.097-1.692,7.53c-0.88,2.234-1.908,4.381-2.369,6.753c-0.284,1.462-0.467,2.959-0.57,4.445"/>
	</g>
</g>
<g id="AG-POP-CULTURE">
	<g id="POLYLINE_398_">
		
			<path fill="none" stroke="#C346FF" stroke-width="2.75" stroke-linecap="round" stroke-linejoin="round" stroke-miterlimit="10" d="
			M527.467,562.432c4.793,0.412,9.603,0.45,14.408,0.237c4.867-0.216,9.736-0.711,14.52-1.639c2.688-0.521,5.337-1.205,7.978-1.926"
			/>
	</g>
	<g id="POLYLINE_453_">
		
			<path fill="none" stroke="#C346FF" stroke-width="2.75" stroke-linecap="round" stroke-linejoin="round" stroke-miterlimit="10" d="
			M568.05,303.036c1.73,3.575,3.291,7.215,3.697,11.207c0.388,3.814-0.107,7.671-0.563,11.455
			c-1.009,8.376-1.954,16.708-2.505,25.129c-0.538,8.212-0.858,16.445-1.012,24.674c-0.16,8.525-0.256,17.055-0.064,25.581
			c0.189,8.393,0.571,16.802,1.622,25.137c1.027,8.139,2.927,16.032,5.815,23.714c3.066,8.157,6.71,16.091,9.941,24.184
			c3.093,7.749,5.759,15.669,7.914,23.729c2.089,7.812,3.567,15.816,4.653,23.826c1.136,8.375,1.981,16.792,2.388,25.237
			c0.219,4.541,0.29,9.084,0.402,13.629c0.085,3.472,0.248,7.051,1.256,10.398c0.486,1.613,1.186,3.207,2.17,4.581
			c0.293,0.409,0.681,1.022,1.164,1.208c0.692,0.267,0.78-0.464,0.848-1.004c0.26-2.069-0.076-4.252-0.186-6.319
			c-0.065-1.217-0.122-2.433-0.172-3.651c-0.382-9.204-0.656-18.42-1.217-27.616c-0.504-8.271-1.478-16.439-2.576-24.648
			c-1.116-8.342-2.064-16.737-3.617-25.013c-1.528-8.143-3.2-16.233-4.209-24.461c-1.083-8.826-1.946-17.727-3.818-26.432
			c-1.715-7.974-4.398-15.745-5.178-23.896c-0.751-7.844-1.284-15.935,0.083-23.74c0.697-3.98,1.835-7.865,2.695-11.81
			c0.862-3.954,1.393-7.969,1.74-11.999c0.344-3.998,0.501-8.004,0.608-12.014"/>
	</g>
	<g id="POLYLINE_454_">
		
			<path fill="none" stroke="#C346FF" stroke-width="2.75" stroke-linecap="round" stroke-linejoin="round" stroke-miterlimit="10" d="
			M605.148,630.023c1.39,1.64,2.911,3.166,4.4,4.716c1.452,1.511,2.888,3.041,4.512,4.372c2.99,2.451,6.264,3.449,9.961,4.372
			c1.352,0.337,2.99,0.672,3.989,1.723c1.124,1.184,1.439,3.289,1.672,4.839c0.161,1.069,0.244,2.25-0.147,3.281
			c-0.492,1.298-1.758,1.913-3.022,2.249c-3.311,0.881-6.973,0.565-10.366,0.536c-4.836-0.042-9.674-0.135-14.51-0.118
			c-4.609,0.017-9.233,0.207-13.84,0.071c-2.533-0.075-5.644-0.116-7.81-1.653c-2.191-1.555-1.882-4.323-1.727-6.674
			c0.326-4.931,0.416-9.882,0.602-14.82c0.024-0.628,0.047-1.257,0.071-1.885"/>
	</g>
	<g id="POLYLINE_455_">
		
			<path fill="none" stroke="#C346FF" stroke-width="2.75" stroke-linecap="round" stroke-linejoin="round" stroke-miterlimit="10" d="
			M601.588,570.917c0.348,7.023,0.697,14.046,1.045,21.069c0.282,5.68,0.576,11.366,0.993,17.038
			c0.227,3.082,0.495,6.162,0.867,9.23c0.346,2.857,0.981,5.703,1.135,8.579c0.055,1.025,0.074,2.192-0.438,3.114
			c-0.522,0.941-1.551,1.311-2.552,1.5c-2.582,0.49-5.357,0.301-7.973,0.34c-3.111,0.046-6.221,0.106-9.331-0.002
			c-1.449-0.05-2.903-0.121-4.341-0.316c-1.077-0.146-2.314-0.326-3.182-1.033c-1.658-1.351-2.04-4.413-2.443-6.35
			c-0.683-3.284-1.314-6.581-1.97-9.87c-1.209-6.055-2.44-12.106-3.452-18.198c-1.126-6.775-1.934-13.605-2.853-20.41
			c-0.759-5.623-1.624-11.223-2.777-16.781c-0.853-4.114-1.823-8.205-2.754-12.302c-1.926-8.478-3.852-16.956-5.777-25.434
			c-1.835-8.079-3.67-16.157-5.505-24.236c-0.909-4-1.847-7.996-2.658-12.018c-1.315-6.522-2.326-13.096-3.377-19.664
			c-0.189-1.183-0.371-2.367-0.584-3.546c-0.09-0.498-0.23-2.631-0.802-2.942c-0.599-0.325-0.92,2.263-0.984,2.653
			c-0.233,1.405-0.411,2.82-0.587,4.233c-0.787,6.307-1.475,12.627-2.288,18.93c-0.863,6.694-1.863,13.368-2.867,20.042
			c-0.892,5.932-1.99,11.826-3.101,17.72c-1.109,5.884-2.249,11.734-2.656,17.719c-0.412,6.063-0.901,12.025-2.057,17.999
			c-0.65,3.357-1.299,6.714-1.949,10.072"/>
	</g>
	<g id="POLYLINE_456_">
		
			<path fill="none" stroke="#C346FF" stroke-width="2.75" stroke-linecap="round" stroke-linejoin="round" stroke-miterlimit="10" d="
			M532.277,313.503c2.068,4.349,4.093,8.715,6.022,13.128c1.923,4.398,3.777,8.826,5.593,13.269
			c1.854,4.537,3.701,9.078,5.479,13.646c1.779,4.571,3.499,9.173,5.018,13.838c1.404,4.313,2.764,8.737,3.223,13.267
			c0.4,3.952-0.105,7.883-0.558,11.807c-0.573,4.959-1.185,9.914-1.712,14.878c-0.568,5.345-1.092,10.696-1.71,16.036
			c-0.161,1.392-0.341,2.828-0.902,4.126c-0.673,1.559-1.901,2.789-3.043,4.01c-3.161,3.385-6.389,6.732-9.91,9.747
			c-0.808,0.692-1.639,1.354-2.487,1.995"/>
	</g>
	<g id="POLYLINE_457_">
		
			<path fill="none" stroke="#C346FF" stroke-width="2.75" stroke-linecap="round" stroke-linejoin="round" stroke-miterlimit="10" d="
			M551.886,428.972c2.508,3.933,6.265,7.081,9.651,10.227c0.921,0.856,2.085,1.972,3.431,1.991c1.516,0.021,2.776-1.367,3.632-2.48
			c0.867-1.126,1.58-2.404,2.042-3.749"/>
	</g>
	<g id="POLYLINE_458_">
		
			<path fill="none" stroke="#C346FF" stroke-width="2.75" stroke-linecap="round" stroke-linejoin="round" stroke-miterlimit="10" d="
			M557.455,379.36c-2.816-5.54-6.117-10.868-9.944-15.769c-1.022-1.309-2.09-2.578-3.172-3.837"/>
	</g>
	<g id="POLYLINE_459_">
		
			<path fill="none" stroke="#C346FF" stroke-width="2.75" stroke-linecap="round" stroke-linejoin="round" stroke-miterlimit="10" d="
			M554.814,368.696c2.504-3.637,4.425-7.624,5.766-11.832"/>
	</g>
	<g id="POLYLINE_461_">
		
			<path fill="none" stroke="#C346FF" stroke-width="2.75" stroke-linecap="round" stroke-linejoin="round" stroke-miterlimit="10" d="
			M569.226,286.228c-0.109,0.611-0.287,1.284-0.253,1.914c0.045,0.834,0.561,1.05,1.233,1.392c1.31,0.666,1.403,1.869,0.841,3.172
			c-1.047,2.426-4.337,2.705-4.999,5.28c-0.721,2.804-1.81,5.328-3.56,7.665c-2.079,2.777-5.059,4.357-7.645,6.576
			c-1.84,1.578-3.544,3.374-6.028,3.816c-2.022,0.36-4.257,0.021-6.115-0.84c-2.533-1.175-3.14-3.273-4.154-5.661
			c-1.312-3.089-3.596-5.63-5.064-8.635c-0.978-2.002-1.3-4.137-1.22-6.357c0.056-1.565,0.33-3.141,0.242-4.708
			c-0.026-0.464-0.076-0.948-0.297-1.365c-0.412-0.778-1.148-1.224-1.458-2.09c-0.59-1.646-0.401-3.199,0.949-4.333
			c1.024-0.861,1.658-1.787,2.177-3.007c1.44-3.384,2.447-6.976,3.455-10.507c0.626-2.193,1.33-4.023,3.116-5.534
			c0.626-0.53,2.273-1.896,3.016-0.954c0.618,0.783,0.409,2.261,0.669,3.212c1.241,4.542,7.919,5.709,11.833,5.82
			c2.151,0.061,4.429-0.172,6.367-1.174c0.738-0.381,1.399-0.875,1.969-1.481c0.836-0.887,1.691-2.665,3.046-2.777
			c2.207-0.183,3.293,2.556,3.529,4.328c0.458,3.448-0.194,7.144-0.707,10.553C569.883,282.436,569.557,284.331,569.226,286.228z"/>
	</g>
	<g id="POLYLINE_462_">
		
			<path fill="none" stroke="#C346FF" stroke-width="2.75" stroke-linecap="round" stroke-linejoin="round" stroke-miterlimit="10" d="
			M559.41,330.142c-0.615-4.421-2.476-8.955-5.465-12.303c-0.858-0.961-1.813-1.826-2.807-2.644"/>
	</g>
	<g id="POLYLINE_463_">
		
			<path fill="none" stroke="#C346FF" stroke-width="2.75" stroke-linecap="round" stroke-linejoin="round" stroke-miterlimit="10" d="
			M545.859,316.085c-2.742,3.506-4.263,7.469-4.957,11.866c-0.207,1.313-0.332,2.642-0.318,3.972"/>
	</g>
	<g id="POLYLINE_464_">
		
			<path fill="none" stroke="#C346FF" stroke-width="2.75" stroke-linecap="round" stroke-linejoin="round" stroke-miterlimit="10" d="
			M557.281,323.036c0.461,2.427-0.112,5.998-2.095,7.677c-1.757,1.488-4.739,1.257-6.881,1.115c-1.966-0.13-3.659-0.311-5.072-1.813
			c-0.924-0.982-1.71-2.211-2.063-3.525"/>
	</g>
	<g id="POLYLINE_465_">
		
			<path fill="none" stroke="#C346FF" stroke-width="2.75" stroke-linecap="round" stroke-linejoin="round" stroke-miterlimit="10" d="
			M553.203,331.63c1.57,4.746,2.57,9.627,2.985,14.611"/>
	</g>
	<g id="POLYLINE_466_">
		
			<path fill="none" stroke="#C346FF" stroke-width="2.75" stroke-linecap="round" stroke-linejoin="round" stroke-miterlimit="10" d="
			M545.557,331.485c-0.774,3.136-1.168,6.312-1.193,9.542"/>
	</g>
	<g id="POLYLINE_467_">
		
			<path fill="none" stroke="#C346FF" stroke-width="2.75" stroke-linecap="round" stroke-linejoin="round" stroke-miterlimit="10" d="
			M541.554,397.14c1.716-6.18,2.774-12.542,3.288-18.933c0.514-6.392,0.451-12.844-0.62-19.178
			c-1.112-6.577-3.084-13.045-4.773-19.489c-1.702-6.496-3.363-13.007-5.21-19.464c-0.92-3.218-1.843-6.442-2.995-9.586
			c-1.093-2.982-2.127-5.912-2.799-9.022c-0.167-0.773-0.318-1.55-0.467-2.327"/>
	</g>
	<g id="POLYLINE_468_">
		
			<path fill="none" stroke="#C346FF" stroke-width="2.75" stroke-linecap="round" stroke-linejoin="round" stroke-miterlimit="10" d="
			M545.12,368.196c-2.878-4.503-5.671-9.058-8.286-13.72c-0.794-1.415-1.573-2.837-2.35-4.261"/>
	</g>
	<g id="POLYLINE_469_">
		
			<path fill="none" stroke="#C346FF" stroke-width="2.75" stroke-linecap="round" stroke-linejoin="round" stroke-miterlimit="10" d="
			M541.53,412.431c-0.28-2.709-0.517-5.427-1.18-8.076c-0.681-2.717-1.755-5.319-2.939-7.851
			c-2.484-5.313-5.473-10.373-8.474-15.405c-2.436-4.083-4.967-8.114-7.515-12.128c-4.22-6.648-8.441-13.297-12.661-19.945
			c-2.651-4.177-5.308-8.347-7.858-12.587c-1.481-2.462-2.943-4.937-4.305-7.466c-1.055-1.957-2.215-4.014-2.775-6.183
			c-0.161-0.624-0.377-1.5,0.138-2.012c0.562-0.559,1.736-0.463,2.471-0.442c2.925,0.084,5.853,0.536,8.761,0.821
			c2.572,0.252,5.182,0.517,7.77,0.463c0.505-0.011,2.177,0.085,2.294-0.583c0.121-0.689-1.873-1.922-2.261-2.255
			c-0.666-0.572-1.379-1.221-1.655-2.082c-0.312-0.975-0.021-2.029,0.251-2.979c0.723-2.526,1.549-5.077,2.696-7.445
			c0.744-1.535,1.667-2.828,2.989-3.92c2.065-1.706,3.931-3.452,5.691-5.479c0.885-1.019,1.737-2.066,2.594-3.108"/>
	</g>
	<g id="POLYLINE_470_">
		
			<path fill="none" stroke="#C346FF" stroke-width="2.75" stroke-linecap="round" stroke-linejoin="round" stroke-miterlimit="10" d="
			M531.89,300.988c-1.986-0.4-3.916-1.485-5.129-3.131c-0.577-0.783-0.71-1.985-1.423-2.608c-1.044-0.912-2.32-1.094-3.107-2.368
			c-0.444-0.719-0.724-1.55-0.844-2.386c-0.202-1.407,0.304-2.582,0.637-3.918c0.276-1.11,0.31-2.284,0.114-3.411
			c-0.242-1.392-0.956-2.371-1.661-3.55c-0.687-1.149-0.918-2.395-0.158-3.573c0.826-1.281,1.731-2.101,1.781-3.729
			c0.049-1.593-0.128-2.97,0.75-4.401c0.687-1.121,1.712-1.969,2.594-2.926c0.75-0.813,1.195-1.765,1.824-2.663
			c0.875-1.247,2.461-1.565,3.405-2.752c0.948-1.192,1.425-2.692,2.238-3.969c0.604-0.949,1.405-1.663,2.358-2.254
			c1.31-0.811,2.527-1.51,3.675-2.547c1.102-0.996,2.203-2.052,3.578-2.666c1.657-0.739,3.009-0.118,4.692-0.151
			c1.618-0.032,2.7-1.548,4.351-1.577c3.025-0.053,5.608,2.371,8.654,2.186c0.638-0.039,1.299-0.241,1.939-0.137
			c0.688,0.112,1.233,0.588,1.753,1.017c1.279,1.056,2.511,1.555,4.003,2.224c1.546,0.694,2.3,2.009,3.112,3.42
			c0.911,1.585,2.02,2.943,3.096,4.413c1.424,1.946,1.629,3.837,1.798,6.214c0.078,1.103,0.219,2.138,0.624,3.171
			c0.454,1.157,1.059,2.238,1.153,3.5c0.105,1.417-0.217,2.838-0.351,4.242c-0.131,1.383,0.007,2.679,0.234,4.047
			c0.195,1.173,0.376,2.276,0.087,3.448c-0.289,1.174-0.801,2.264-0.941,3.475c-0.251,2.175,0.135,4.488-1.111,6.42
			c-0.719,1.116-1.792,2.013-2.953,2.642c-1.237,0.669-2.305,0.966-2.894,2.382c-0.545,1.309-0.74,2.868-1.712,3.961
			c-0.715,0.804-1.768,1.231-2.779,1.531c-0.732,0.217-1.492,0.351-2.257,0.346"/>
	</g>
	<g id="POLYLINE_471_">
		
			<path fill="none" stroke="#C346FF" stroke-width="2.75" stroke-linecap="round" stroke-linejoin="round" stroke-miterlimit="10" d="
			M552.083,360.728c2.217-7.181,4.178-14.368,5.679-21.735c1.471-7.217,2.68-14.505,3.634-21.809c0.459-3.514,0.81-6.899,0.18-10.41
			"/>
	</g>
	<g id="POLYLINE_472_">
		
			<path fill="none" stroke="#C346FF" stroke-width="2.75" stroke-linecap="round" stroke-linejoin="round" stroke-miterlimit="10" d="
			M539.388,311.634c-1.924-1.282-3.726-2.769-5.347-4.418c-0.72-0.733-1.402-1.503-2.044-2.305c-0.654-0.818-0.61-1.354-0.42-2.326
			c0.301-1.54,0.603-3.08,0.904-4.621"/>
	</g>
	<g id="POLYLINE_475_">
		
			<path fill="none" stroke="#C346FF" stroke-width="2.75" stroke-linecap="round" stroke-linejoin="round" stroke-miterlimit="10" d="
			M567.625,402.123c-1.418-5.735-2.554-11.524-3.567-17.343c-1.121-6.439-2.473-12.904-3.179-19.406
			c-0.629-5.801-0.193-11.538,0.495-17.311c0.733-6.152,1.734-12.29,2.094-18.481c0.351-6.04-0.264-11.985-1.178-17.949
			c-0.12-0.781-0.239-1.561-0.359-2.342"/>
	</g>
	<g id="POLYLINE_476_">
		
			<path fill="none" stroke="#C346FF" stroke-width="2.75" stroke-linecap="round" stroke-linejoin="round" stroke-miterlimit="10" d="
			M562.46,375.61c0.631-5.273,1.937-10.435,4.005-15.331c0.577-1.367,1.214-2.705,1.889-4.026"/>
	</g>
	<g id="POLYLINE_477_">
		
			<path fill="none" stroke="#C346FF" stroke-width="2.75" stroke-linecap="round" stroke-linejoin="round" stroke-miterlimit="10" d="
			M584.108,471.919c-2.197-6.67-4.236-13.373-5.638-20.262c-1.432-7.037-2.338-14.175-2.999-21.323
			c-0.642-6.936-1-13.91-1.027-20.876c-0.027-6.878,0.262-13.794,1.359-20.592c1.063-6.585,2.959-13.002,5.84-19.026
			c2.902-6.069,6.588-11.737,9.293-17.904c2.728-6.218,3.807-12.632,3.519-19.408c-0.141-3.319-0.405-6.78-1.091-10.036
			c-0.273-1.299-1.451-0.84-2.439-0.556c-1.611,0.463-3.194,1.026-4.823,1.427c-1.848,0.455-4.205,0.947-5.881-0.277
			c-1.898-1.387-2.332-4.174-2.523-6.352c-0.227-2.592-0.037-5.284-1.017-7.746c-0.854-2.148-2.431-3.993-4.149-5.508
			c-1.058-0.933-2.209-1.763-3.437-2.459"/>
	</g>
	<g id="POLYLINE_478_">
		
			<path fill="none" stroke="#C346FF" stroke-width="2.75" stroke-linecap="round" stroke-linejoin="round" stroke-miterlimit="10" d="
			M592.62,454.364c1.542-0.451,3.089-0.857,4.584-1.454c1.626-0.648,3.224-1.366,4.87-1.964c1.254-0.456,2.54-0.862,3.861-1.069
			c1.329-0.208,2.668-0.126,4.004-0.226c0.946-0.071,1.878-0.284,2.53-1.034c0.768-0.883,1.06-2.146,1.258-3.272
			c0.571-3.245,0.47-6.66,0.365-9.94c-0.225-7.062-1.088-14.124-2.674-21.012c-1.613-7.004-4.241-13.821-5.405-20.92
			c-0.253-1.541-0.333-3.082-0.238-4.641c0.071-1.165,0.229-2.344,0.112-3.511c-0.245-2.438-1.635-4.638-2.499-6.884
			c-2.433-6.323-2.234-13.139-3.586-19.691c-0.51-2.473-1.864-4.87-1.99-7.403c-0.11-2.227,1.325-4.088,1.929-6.145
			c0.537-1.831,0.04-3.702,0.114-5.568c0.115-2.899,1.321-5.643,1.683-8.511c0.522-4.13-0.591-7.512-3.688-10.275
			c-5.025-4.484-11.007-7.548-16.864-10.778c-1.747-0.964-3.494-1.927-5.242-2.891"/>
	</g>
	<g id="POLYLINE_479_">
		
			<path fill="none" stroke="#C346FF" stroke-width="2.75" stroke-linecap="round" stroke-linejoin="round" stroke-miterlimit="10" d="
			M496.952,353.503c0.224,5.573-0.078,11.023-0.874,16.543c-0.895,6.199-2.053,12.364-3.111,18.537
			c-0.865,5.047-1.423,10.396-3.252,15.207c-0.727,1.912-1.809,3.71-2.199,5.737c-0.467,2.429-0.357,4.934-0.827,7.369
			c-0.968,5.019-3.83,9.643-4.197,14.784c-0.126,1.759,0.207,3.476,0.689,5.16c0.713,2.488,1.397,4.881,1.713,7.458
			c0.355,2.892,0.568,5.803,0.879,8.7c0.193,1.799,0.621,3.989-0.069,5.738c-0.781,1.981-3.368,1.896-5.141,1.897
			c-3.093,0.002-6.187-0.035-9.28-0.052c-2.838-0.016-5.676-0.014-8.513-0.073c-1.28-0.027-2.562-0.067-3.838-0.17
			c-0.989-0.08-2.221-0.115-3.01-0.793c-1.479-1.27-1.185-4.411-1.139-6.122c0.049-1.798,0.194-3.589,0.344-5.381
			c0.62-7.417,1.241-14.835,1.861-22.252c0.428-5.123,0.805-10.253,1.297-15.371c0.571-5.947,1.071-11.918,1.957-17.828
			c0.831-5.544,2.421-10.901,4.309-16.169c1.964-5.48,4.227-10.838,6.344-16.258c2.005-5.134,3.692-10.232,4.521-15.696
			c0.438-2.885,0.935-5.685,1.71-8.5c0.77-2.797,1.028-5.425,1.039-8.321c0.013-3.171,0.441-6.023,2.587-8.471
			c2.877-3.282,7.363-4.655,11.271-6.25c5.433-2.218,10.839-4.514,16.315-6.621c2.542-0.978,5.101-1.9,7.683-2.768"/>
	</g>
	<g id="POLYLINE_480_">
		
			<path fill="none" stroke="#C346FF" stroke-width="2.75" stroke-linecap="round" stroke-linejoin="round" stroke-miterlimit="10" d="
			M485.096,459.673c0.965,2.117,1.807,4.298,2.31,6.575c0.467,2.114,0.498,4.224,0.437,6.378c-0.078,2.75,0.047,5.392,0.329,8.128
			c0.187,1.812,0.61,4.464-0.658,5.998c-1.249,1.51-3.72,1.346-5.461,1.017c-1.6-0.302-3.141-0.897-4.535-1.736
			c-3.916-2.357-7.06-6.473-9.426-10.301c-2.546-4.121-4.181-8.8-4.979-13.569c-0.092-0.549-0.171-1.099-0.239-1.652"/>
	</g>
	<g id="POLYLINE_481_">
		
			<path fill="none" stroke="#C346FF" stroke-width="2.75" stroke-linecap="round" stroke-linejoin="round" stroke-miterlimit="10" d="
			M610.488,449.594c0.579,2.865,0.615,5.823,0.542,8.736c-0.043,1.71-0.202,3.427-0.846,5.025c-0.732,1.817-1.986,3.39-3.259,4.857
			c-1.714,1.973-3.522,3.988-5.549,5.648c-1.681,1.377-3.57,2.143-5.679,2.599"/>
	</g>
	<g id="POLYLINE_482_">
		
			<path fill="none" stroke="#C346FF" stroke-width="2.75" stroke-linecap="round" stroke-linejoin="round" stroke-miterlimit="10" d="
			M493.585,384.908c0.913,4.172,1.645,8.332,1.427,12.621c-0.209,4.115-1.016,8.159-1.789,12.196
			c-0.843,4.403-1.766,8.799-2.476,13.226c-0.825,5.15-1.617,10.306-2.426,15.459c-0.799,5.094-1.599,10.188-2.398,15.283
			c-0.014,0.09-0.028,0.18-0.042,0.27"/>
	</g>
	<g id="POLYLINE_483_">
		
			<path fill="none" stroke="#C346FF" stroke-width="2.75" stroke-linecap="round" stroke-linejoin="round" stroke-miterlimit="10" d="
			M483.05,487.917c-0.333,7.278-0.717,14.556-0.744,21.844c-0.03,7.993,0.113,15.99,0.17,23.982
			c0.046,6.331-0.174,12.652-0.274,18.982c-0.067,4.251-0.626,10.728,3.884,13.023c2.101,1.069,4.143,1.675,5.835,3.385
			c1.868,1.887,3.128,4.341,5.118,6.103c1.571,1.391,3.656,1.961,5.617,2.573c3.297,1.03,6.615,2.005,9.955,2.887
			c3.269,0.864,6.585,1.708,9.945,2.131c1.764,0.222,5.069,0.781,4.842-1.89c-0.115-1.356-0.475-2.69-0.629-4.044
			c-0.188-1.656-0.283-3.325-0.334-4.991c-0.108-3.491-0.057-6.982,0.038-10.473c0.199-7.331,0.675-14.651,1.18-21.967
			c0.417-6.038,0.982-12.066,1.496-18.097c0.834-9.784,1.668-19.567,2.503-29.351c0.455-5.338,0.906-10.678,1.444-16.008
			c0.719-7.128,1.46-14.252,2.479-21.345c1.193-8.298,2.482-16.582,3.722-24.873c0.923-6.165,1.805-12.356,2.345-18.567
			c0.592-6.811,0.041-13.554-0.703-20.33c-0.777-7.079-1.712-14.143-2.841-21.175c-1.163-7.246-2.501-14.459-4.081-21.625
			c-1.679-7.614-3.633-15.171-5.477-22.746c-1.409-5.789-2.87-11.766-2.793-17.76c0.042-3.241,0.611-6.434,1.088-9.631"/>
	</g>
	<g id="POLYLINE_484_">
		
			<path fill="none" stroke="#C346FF" stroke-width="2.75" stroke-linecap="round" stroke-linejoin="round" stroke-miterlimit="10" d="
			M523.872,582.96c-0.65,4.649-1.249,9.301-1.674,13.977c-0.399,4.392-0.615,8.803-0.697,13.212
			c-0.086,4.616,0.01,9.23,0.018,13.846c0.003,2.07,0.03,4.179-0.281,6.231c-0.114,0.752-0.247,1.649-0.728,2.261
			c-0.49,0.624-1.263,0.672-1.999,0.692c-4.328,0.113-8.74-0.194-13.025-0.789c-3.732-0.518-7.644-1.343-10.983-3.156
			c-1.368-0.743-2.803-1.744-3.038-3.397c-0.232-1.626,0.153-3.404,0.329-5.02c0.43-3.933,0.888-7.865,1.271-11.803
			c0.563-5.782,1.126-11.565,1.69-17.347c0.523-5.372,1.047-10.744,1.57-16.116c0.03-0.309,0.06-0.617,0.09-0.926"/>
	</g>
	<g id="POLYLINE_485_">
		
			<path fill="none" stroke="#C346FF" stroke-width="2.75" stroke-linecap="round" stroke-linejoin="round" stroke-miterlimit="10" d="
			M519.152,633.145c0.733,5.451,2.321,10.68,3.257,16.086c0.292,1.683,1.239,4.847-0.487,6.067c-1.468,1.037-3.83,0.91-5.509,0.937
			c-5.456,0.086-11.005,0.111-16.446-0.338c-1.389-0.115-3.527-0.206-4.224-1.664c-0.386-0.808-0.428-1.824-0.526-2.695
			c-0.151-1.334-0.246-2.677-0.256-4.021c-0.017-2.266,0.391-4.274,1.186-6.385c1.031-2.736,1.802-5.526,2.585-8.341
			c0.158-0.569,0.317-1.139,0.475-1.708"/>
	</g>
	<g id="POLYLINE_486_">
		
			<line fill="none" stroke="#C346FF" stroke-width="2.75" stroke-linecap="round" stroke-linejoin="round" stroke-miterlimit="10" x1="302.004" y1="239.143" x2="288.857" y2="237.583"/>
	</g>
	<g id="POLYLINE_487_">
		
			<path fill="none" stroke="#C346FF" stroke-width="2.75" stroke-linecap="round" stroke-linejoin="round" stroke-miterlimit="10" d="
			M288.857,237.583c-0.956-4.168-2.183-8.264-3.597-12.299c-1.438-4.105-3.057-8.148-4.78-12.141
			c-0.963-2.23-1.971-4.439-2.988-6.645"/>
	</g>
	<g id="POLYLINE_488_">
		
			<path fill="none" stroke="#C346FF" stroke-width="2.75" stroke-linecap="round" stroke-linejoin="round" stroke-miterlimit="10" d="
			M302.004,239.143c0.328-8.04-0.078-16.048-0.993-24.039c-0.257-2.243-0.575-4.478-0.901-6.712"/>
	</g>
	<g id="POLYLINE_489_">
		
			<path fill="none" stroke="#C346FF" stroke-width="2.75" stroke-linecap="round" stroke-linejoin="round" stroke-miterlimit="10" d="
			M277.492,206.497c-5.839-2.485-11.617-5.079-17.763-6.723c-6.71-1.795-13.645-2.755-20.476-3.951
			c-2.809-0.492-5.618-0.989-8.404-1.599c-2.669-0.585-5.469-1.187-7.932-2.41c-1.017-0.505-1.915-1.165-2.457-2.191
			c-0.533-1.011-0.749-2.123-1.463-3.042c-1.13-1.454-2.837-2.463-4.502-3.186c-4.528-1.97-9.753-1.799-14.361-0.177
			c-0.596,0.21-1.183,0.445-1.759,0.706"/>
	</g>
	<g id="POLYLINE_490_">
		
			<path fill="none" stroke="#C346FF" stroke-width="2.75" stroke-linecap="round" stroke-linejoin="round" stroke-miterlimit="10" d="
			M252.067,343.524c1.751-7.337,2.728-14.832,3.077-22.364c0.342-7.374,0.197-14.84-1.042-22.131
			c-1.235-7.268-3.827-14.076-6.999-20.704c-3.32-6.938-6.966-13.717-10.336-20.631c-1.647-3.379-3.262-6.777-4.765-10.224
			c-1.394-3.196-2.754-6.435-3.484-9.858c-0.197-0.923-0.377-1.85-0.565-2.774"/>
	</g>
	<g id="POLYLINE_491_">
		
			<path fill="none" stroke="#C346FF" stroke-width="2.75" stroke-linecap="round" stroke-linejoin="round" stroke-miterlimit="10" d="
			M205.142,410.201c-1.297-3.193-2.216-6.587-1.709-10.052c0.347-2.367,1.165-4.658,1.862-6.936c0.676-2.209,1.202-4.449,1.623-6.72
			c0.952-5.127,1.666-10.296,2.917-15.363c1.241-5.025,2.865-9.951,4.071-14.986c1.125-4.697,1.812-9.454,2.021-14.28
			c0.24-5.569,0.095-11.147,0.079-16.72c-0.014-4.65,0.405-9.167,1.514-13.689c0.915-3.731,1.751-7.216,0.607-10.983
			c-1.134-3.734-3.403-6.903-6.379-9.387c-1.929-1.61-4.021-3.018-5.876-4.719c-1.726-1.583-3.274-3.352-4.74-5.175
			c-0.755-0.938-1.486-1.896-2.216-2.853"/>
	</g>
	<g id="POLYLINE_492_">
		
			<path fill="none" stroke="#C346FF" stroke-width="2.75" stroke-linecap="round" stroke-linejoin="round" stroke-miterlimit="10" d="
			M206.296,257.584c3.907-2.555,7.567-5.375,10.973-8.573c3.318-3.117,6.855-6.503,9.006-10.567
			c1.003-1.895,1.811-3.903,2.683-5.861c1.139-2.556,2.293-5.106,3.386-7.682c1.843-4.347,3.423-8.771,4.793-13.288
			c1.396-4.606,2.511-9.63,5.009-13.799c0.274-0.458,0.568-0.904,0.877-1.339"/>
	</g>
	<g id="POLYLINE_493_">
		
			<path fill="none" stroke="#C346FF" stroke-width="2.75" stroke-linecap="round" stroke-linejoin="round" stroke-miterlimit="10" d="
			M198.376,183.924c-3.979,0.347-8.32,0.697-11.944,2.511c-0.993,0.497-1.939,1.087-2.837,1.741"/>
	</g>
	<g id="POLYLINE_494_">
		
			<path fill="none" stroke="#C346FF" stroke-width="2.75" stroke-linecap="round" stroke-linejoin="round" stroke-miterlimit="10" d="
			M184.806,316.168c-0.448-2.514-0.772-5.05-1.339-7.542c-0.4-1.759-0.832-3.521-0.702-5.338c0.308-4.326,2.576-8.213,5.431-11.348
			c3.5-3.843,6.94-7.735,9.78-12.104c2.628-4.042,4.709-8.442,6.212-13.023c1.564-4.769,2.452-9.735,2.429-14.761
			c-0.011-2.38-0.196-4.766-0.592-7.113c-0.347-2.059-1.419-4.442-0.729-6.523c0.646-1.949,1.739-3.693,2.322-5.684
			c0.696-2.378,1.139-4.832,1.464-7.287c0.677-5.113,0.816-10.34,0.201-15.465c-0.522-4.355-1.566-8.976-4.339-12.492
			c-2.912-3.693-7.548-5.447-11.832-6.993c-4.274-1.542-8.531-2.756-13.115-2.169c-4.474,0.573-8.598,2.56-12.134,5.313
			c-3.748,2.918-6.957,6.563-9.559,10.528c-2.613,3.981-4.583,8.388-5.565,13.058c-1.055,5.015-0.588,9.871,0.151,14.886
			c0.275,1.869,0.667,3.867,0.227,5.742c-0.465,1.98-1.845,3.659-2.983,5.289c-2.79,3.998-5.227,8.144-6.29,12.954
			c-1.026,4.638-0.877,9.485-0.644,14.199c0.14,2.816,0.435,5.685,0.249,8.506c-0.148,2.245-0.817,4.396-1.188,6.606
			c-0.405,2.411-0.175,4.781-0.06,7.206c0.098,2.076-0.101,4.115-0.648,6.121c-0.601,2.204-1.518,4.327-2.724,6.268"/>
	</g>
	<g id="POLYLINE_495_">
		
			<path fill="none" stroke="#C346FF" stroke-width="2.75" stroke-linecap="round" stroke-linejoin="round" stroke-miterlimit="10" d="
			M300.11,208.391c4.227-1.461,8.49-2.885,12.914-3.621c2.257-0.375,4.519-0.478,6.801-0.585c0.69-0.032,3.959,0.118,3.424-1.215
			c-0.286-0.714-1.146-1.356-1.686-1.874c-0.748-0.717-1.487-1.44-2.212-2.18c-1.659-1.692-3.291-3.416-5.061-4.993
			c-3.2-2.851-6.852-4.892-10.783-6.563c-2.131-0.906-4.3-1.727-6.409-2.685c-2.147-0.976-4.163-2.203-6.206-3.375
			c-0.371-0.213-0.741-0.425-1.112-0.638"/>
	</g>
	<g id="POLYLINE_496_">
		
			<path fill="none" stroke="#C346FF" stroke-width="2.75" stroke-linecap="round" stroke-linejoin="round" stroke-miterlimit="10" d="
			M313.461,204.7c2.87,2.777,5.467,5.694,7.661,9.04c2.188,3.336,4.101,6.872,5.712,10.522c0.916,2.075,1.719,4.192,2.39,6.359"/>
	</g>
	<g id="POLYLINE_497_">
		
			<path fill="none" stroke="#C346FF" stroke-width="2.75" stroke-linecap="round" stroke-linejoin="round" stroke-miterlimit="10" d="
			M317.603,197.126c3.038,0.383,6.61,1.675,8.864,3.812c1.963,1.861,2.587,4.672,2.921,7.253c1.085,8.37-0.307,16.878-0.172,25.275
			c0.14,8.77,0.064,17.487-1.073,26.203c-1.093,8.383-3.112,16.774-2.453,25.272c0.679,8.758,1.466,17.557,2.555,26.276
			c0.13,1.043,0.274,2.083,0.411,3.125"/>
	</g>
	<g id="POLYLINE_498_">
		
			<path fill="none" stroke="#C346FF" stroke-width="2.75" stroke-linecap="round" stroke-linejoin="round" stroke-miterlimit="10" d="
			M253.682,335.499c3.843,0.052,7.69-0.094,11.532,0c2.539,0.062,4.793,0.499,7.091,1.599c1.374,0.658,2.671,1.458,3.896,2.362
			c1.186,0.876,2.184,2.23,3.789,1.797c2.597-0.701,4.608-2.667,7.036-3.712c2.69-1.158,6.21-0.215,8.976,0.053
			c3.816,0.37,7.642,0.504,11.471,0.655c2.172,0.086,4.344,0.163,6.516,0.258c1.32,0.057,2.701,0.046,4.001,0.321
			c2.76,0.585,3.793,3.789,6.016,5.25c2.901,1.906,3.632-3.594,5.842-4.468c1.249-0.494,2.716-0.277,4.02-0.395
			c0.431-0.039,1.014-0.05,1.294-0.43c0.376-0.51,0.253-1.703,0.289-2.285c0.236-3.76,0.401-7.537,0.366-11.306
			c-0.016-1.653-0.057-3.322-0.347-4.953c-0.226-1.273-0.519-2.918-1.253-3.996c-0.664-0.977-2.157-1.241-3.234-1.474
			c-1.747-0.379-3.527-0.653-5.304-0.843c-0.917-0.098-2.35-0.394-3.106,0.316c-0.982,0.922-1.185,2.77-1.744,3.953
			c-0.2,0.423-0.431,1.001-0.868,1.227c-0.52,0.269-1.496,0.082-2.034,0.07c-2.108-0.046-4.212-0.112-6.318-0.205
			c-3.785-0.168-7.567-0.414-11.345-0.687c-3.811-0.276-7.644-0.511-11.442-0.914c-1.557-0.165-2.134-2.278-2.804-3.469
			c-0.714-1.27-1.327-2.336-2.859-2.651c-3.42-0.704-7.089-0.686-10.567-0.707c-3.904-0.024-7.809,0.044-11.71,0.183
			c-1.879,0.067-3.756,0.156-5.634,0.25"/>
	</g>
	<g id="POLYLINE_499_">
		
			<path fill="none" stroke="#C346FF" stroke-width="2.75" stroke-linecap="round" stroke-linejoin="round" stroke-miterlimit="10" d="
			M241.754,135.71c-0.078-0.917-0.51-2.104-1.377-2.554c-1.004-0.52-2.085,0.2-2.733,0.952c-0.84,0.974-1.302,2.238-1.527,3.49
			c-0.644,3.585,0.02,8.172,1.615,11.442c0.871,1.784,2.22,2.451,4.139,2.56"/>
	</g>
	<g id="POLYLINE_500_">
		
			<line fill="none" stroke="#C346FF" stroke-width="2.75" stroke-linecap="round" stroke-linejoin="round" stroke-miterlimit="10" x1="247.119" y1="178.649" x2="248.786" y2="173.433"/>
	</g>
	<g id="POLYLINE_501_">
		
			<line fill="none" stroke="#C346FF" stroke-width="2.75" stroke-linecap="round" stroke-linejoin="round" stroke-miterlimit="10" x1="248.786" y1="173.433" x2="241.521" y2="155.912"/>
	</g>
	<g id="POLYLINE_502_">
		
			<line fill="none" stroke="#C346FF" stroke-width="2.75" stroke-linecap="round" stroke-linejoin="round" stroke-miterlimit="10" x1="241.521" y1="155.912" x2="239.113" y2="155.717"/>
	</g>
	<g id="POLYLINE_503_">
		
			<line fill="none" stroke="#C346FF" stroke-width="2.75" stroke-linecap="round" stroke-linejoin="round" stroke-miterlimit="10" x1="239.113" y1="155.717" x2="245.95" y2="172.734"/>
	</g>
	<g id="POLYLINE_504_">
		
			<line fill="none" stroke="#C346FF" stroke-width="2.75" stroke-linecap="round" stroke-linejoin="round" stroke-miterlimit="10" x1="245.95" y1="172.734" x2="244.93" y2="177.65"/>
	</g>
	<g id="POLYLINE_505_">
		
			<path fill="none" stroke="#C346FF" stroke-width="2.75" stroke-linecap="round" stroke-linejoin="round" stroke-miterlimit="10" d="
			M239.113,155.717c-1.742-0.121-3.53,0.13-5.229,0.507c-0.655,0.145-1.358,0.32-1.915,0.709c-0.752,0.526-0.807,1.383-1.284,2.1
			c-0.518,0.779-1.557,1.098-2.348,1.512c-0.689,0.36-1.362,0.759-1.993,1.215c-1.313,0.948-2.173,2.047-2.329,3.706
			c-0.205,2.192-0.144,4.524,0.243,6.692"/>
	</g>
	<g id="POLYLINE_506_">
		
			<path fill="none" stroke="#C346FF" stroke-width="2.75" stroke-linecap="round" stroke-linejoin="round" stroke-miterlimit="10" d="
			M246.858,168.783c3.923,4.59,9.236,8.327,15.063,10.066c1.442,0.431,2.925,0.669,4.413,0.875c1.726,0.239,3.436,0.585,5.162,0.81
			c1.614,0.211,3.236,0.213,4.799-0.277c3.636-1.137,5.103-4.361,5.909-7.838c0.814-3.509,1.076-7.125,1.453-10.699
			c0.353-3.342,0.956-6.62,1.607-9.914c0.589-2.982,1.378-6.098,1.232-9.159c-0.027-0.572-0.095-1.151-0.271-1.698
			c-0.309-0.962-1.055-1.747-0.627-2.794c0.478-1.167,1.246-1.996,1.352-3.32c0.071-0.887-0.056-1.801-0.311-2.652
			c-0.375-1.254-0.665-2.253-0.612-3.573c0.051-1.253,0.149-2.512-0.011-3.762c-0.658-5.138-4.976-9.536-9.072-12.325
			c-4.641-3.16-9.849-3.893-15.353-3.396c-5.33,0.482-11.453,1.781-15.636,5.378c-1.524,1.311-2.589,2.999-3.36,4.843
			c-1.218,2.916-1.984,6.111-2.413,9.237c-0.201,1.461-0.309,2.937-0.283,4.412"/>
	</g>
	<g id="POLYLINE_514_">
		
			<path fill="none" stroke="#C346FF" stroke-width="2.75" stroke-linecap="round" stroke-linejoin="round" stroke-miterlimit="10" d="
			M238.581,155.692c0.256-1.562,0.496-3.125,0.718-4.692"/>
	</g>
	<g id="POLYLINE_515_">
		
			<path fill="none" stroke="#C346FF" stroke-width="2.75" stroke-linecap="round" stroke-linejoin="round" stroke-miterlimit="10" d="
			M288.245,185.752c-1.981-0.283-4.145-1.243-5.568-2.677c-1.221-1.231-1.726-2.981-1.833-4.674
			c-0.047-0.745-0.014-1.499,0.13-2.233"/>
	</g>
	<g id="POLYLINE_516_">
		
			<line fill="none" stroke="#C346FF" stroke-width="2.75" stroke-linecap="round" stroke-linejoin="round" stroke-miterlimit="10" x1="286.049" y1="185.154" x2="287.264" y2="177.972"/>
	</g>
	<g id="POLYLINE_517_">
		
			<line fill="none" stroke="#C346FF" stroke-width="2.75" stroke-linecap="round" stroke-linejoin="round" stroke-miterlimit="10" x1="287.264" y1="177.972" x2="283.613" y2="162.089"/>
	</g>
	<g id="POLYLINE_518_">
		
			<path fill="none" stroke="#C346FF" stroke-width="2.75" stroke-linecap="round" stroke-linejoin="round" stroke-miterlimit="10" d="
			M198.376,183.924c0.613-1.028,1.206-1.984,2.11-2.782c1.237-1.093,2.703-1.945,4.154-2.718c3.523-1.878,7.284-3.165,11.141-4.162
			c4.245-1.098,8.837-2.718,13.268-2.721c4.087-0.003,7.837,2.01,11.387,3.82c4.205,2.144,8.476,4.071,12.782,6.001
			c4.166,1.868,8.515,3.137,12.887,4.419c1.758,0.516,3.615,0.949,5.273,1.744c1.218,0.584,2.004,1.955,3.082,2.794
			c1.389,1.081,2.775,1.056,4.491,1.164c0.561,0.035,1.645,0.213,2.127-0.138c0.552-0.402,0.036-1.059-0.266-1.473
			c-0.336-0.461-1.048-1.014-0.416-1.482c0.61-0.451,1.754-0.423,2.48-0.479c1.15-0.088,2.321-0.145,3.39-0.621
			c1.659-0.738,2.82-2.332,3.172-4.092c0.167-0.834,0.229-1.692,0.341-2.535"/>
	</g>
	<g id="POLYLINE_519_">
		
			<line fill="none" stroke="#C346FF" stroke-width="2.75" stroke-linecap="round" stroke-linejoin="round" stroke-miterlimit="10" x1="289.78" y1="180.662" x2="290.08" y2="178.111"/>
	</g>
	<g id="POLYLINE_520_">
		
			<line fill="none" stroke="#C346FF" stroke-width="2.75" stroke-linecap="round" stroke-linejoin="round" stroke-miterlimit="10" x1="290.08" y1="178.111" x2="286.307" y2="162.614"/>
	</g>
	<g id="POLYLINE_521_">
		
			<line fill="none" stroke="#C346FF" stroke-width="2.75" stroke-linecap="round" stroke-linejoin="round" stroke-miterlimit="10" x1="286.307" y1="162.614" x2="283.613" y2="162.089"/>
	</g>
	<g id="POLYLINE_522_">
		
			<path fill="none" stroke="#C346FF" stroke-width="2.75" stroke-linecap="round" stroke-linejoin="round" stroke-miterlimit="10" d="
			M135.269,367.674c-2.933-4.88-4.769-10.56-5.07-16.26c-0.096-1.812-0.287-4.417,0.8-6.021c1.155-1.703,4.461-1.858,6.27-1.861
			c2.659-0.005,5.248,0.758,7.753,1.581c3.261,1.071,6.539,2.114,9.775,3.259c6.004,2.125,11.57,5.467,16.801,9.06
			c1.298,0.892,2.582,1.811,3.797,2.813c0.873,0.72,2.023,1.588,2.121,2.806c0.079,0.979-0.43,1.999-0.858,2.853
			c-0.655,1.308-1.415,2.566-2.285,3.743c-0.454,0.614-0.935,1.207-1.418,1.798"/>
	</g>
	<g id="POLYLINE_523_">
		
			<path fill="none" stroke="#C346FF" stroke-width="2.75" stroke-linecap="round" stroke-linejoin="round" stroke-miterlimit="10" d="
			M177.315,362.29c2.325-4.67,4.474-9.432,6.425-14.27c1.895-4.698,3.728-9.483,4.882-14.425c0.899-3.85,1.448-8.07-0.071-11.839
			c-1.48-3.672-4.549-6.683-7.456-9.261c-3.595-3.188-7.66-5.889-12.102-7.743c-4.356-1.819-9.036-2.868-13.756-3.025
			c-4.742-0.158-9.651,0.507-14.088,2.223c-3.512,1.358-6.923,3.75-8.327,7.384c-0.719,1.863-0.917,3.924-1.089,5.896
			c-0.217,2.494-0.297,4.998-0.323,7.501c-0.055,5.238,0.155,10.479,0.702,15.689c0.136,1.296,0.302,2.588,0.477,3.879"/>
	</g>
	<g id="POLYLINE_524_">
		
			<path fill="none" stroke="#C346FF" stroke-width="2.75" stroke-linecap="round" stroke-linejoin="round" stroke-miterlimit="10" d="
			M133.228,397.591c-0.745-2.3-0.728-4.943,0.075-7.225c0.724-2.058,2.739-4.557,5.101-3.054c2.018,1.284,2.659,4.206,2.713,6.421
			c0.051,2.074-0.374,4.409-1.682,6.088c-0.992,1.273-2.563,1.924-4.019,0.997C134.3,400.108,133.626,398.815,133.228,397.591z"/>
	</g>
	<g id="POLYLINE_525_">
		
			<path fill="none" stroke="#C346FF" stroke-width="2.75" stroke-linecap="round" stroke-linejoin="round" stroke-miterlimit="10" d="
			M150.419,399.908c-0.676-0.861-1.124-1.907-1.311-2.985c-0.29-1.678,0.19-4.479,2.456-4.282c2.954,0.257,4.458,4.753,3.587,7.142
			C154.259,402.228,151.727,401.57,150.419,399.908z"/>
	</g>
	<g id="POLYLINE_526_">
		
			<path fill="none" stroke="#C346FF" stroke-width="2.75" stroke-linecap="round" stroke-linejoin="round" stroke-miterlimit="10" d="
			M147.724,403.618c0.482,0.962,0.713,2.054,0.691,3.128c-0.035,1.704-1.039,4.38-3.222,3.776c-2.869-0.793-3.449-5.519-2.153-7.688
			c0.542-0.906,1.497-1.517,2.566-1.221C146.274,401.798,147.724,402.813,147.724,403.618z"/>
	</g>
	<g id="POLYLINE_527_">
		
			<path fill="none" stroke="#C346FF" stroke-width="2.75" stroke-linecap="round" stroke-linejoin="round" stroke-miterlimit="10" d="
			M137.131,416.884c-0.804-1.818-0.741-6.565,2.249-6.074c2.653,0.436,3.025,4.69,2.085,6.581
			C140.342,419.648,138.02,418.888,137.131,416.884z"/>
	</g>
	<g id="POLYLINE_528_">
		
			<path fill="none" stroke="#C346FF" stroke-width="2.75" stroke-linecap="round" stroke-linejoin="round" stroke-miterlimit="10" d="
			M137.313,401.243c0.406,3.213,0.898,6.409,1.22,9.632"/>
	</g>
	<g id="POLYLINE_529_">
		
			<path fill="none" stroke="#C346FF" stroke-width="2.75" stroke-linecap="round" stroke-linejoin="round" stroke-miterlimit="10" d="
			M139.074,418.796c0.1,1.192,0.295,2.465,1.077,3.419c0.771,0.94,1.946,1.482,3.074,1.863c1.558,0.526,3.201,0.715,4.778,1.173
			c1.806,0.525,3.487,1.392,5.194,2.166c2.163,0.981,4.432,1.937,6.851,1.818c2.184-0.107,4.171-1.224,6.348-1.264
			c1.235-0.023,2.204-0.029,3.329-0.635c1.534-0.826,2.954-1.879,4.449-2.776c2.172-1.303,4.867-1.464,6.844-3.12
			c0.529-0.443,0.989-0.962,1.528-1.394c0.539-0.431,1.193-0.734,1.666-1.244c0.903-0.971,0.814-2.504,0.675-3.736
			c-0.237-2.101-0.887-4.297-2.989-5.219c-2.112-0.926-4.359-1.086-6.252-2.503c-1.441-1.079-2.62-2.455-3.958-3.651
			c-1.204-1.076-2.635-1.874-3.799-2.994c-1.74-1.673-2.361-4.051-2.786-6.356c-0.587-3.183-0.447-6.644-1.526-9.715
			c-0.404-1.15-1.139-1.979-1.876-2.924c-0.875-1.122-1.146-2.292-0.824-3.69c0.627-2.719,2.798-5.252,2.673-8.13
			c-0.07-1.624-1.344-2.455-2.713-3.028c-1.74-0.729-3.592-1.218-5.411-1.709c-1.922-0.519-3.86-0.979-5.806-1.399
			c-1.414-0.305-2.869-0.661-4.323-0.68c-1.992-0.026-3.887,0.821-5.624,1.713c-2.638,1.355-5.429,2.935-6.051,6.051
			c-0.29,1.454-0.352,2.957-0.773,4.384c-0.38,1.288-1.251,2.44-1.355,3.802c-0.151,1.97,0.997,4.031,2.033,5.606
			c0.613,0.931,1.281,1.805,1.676,2.856"/>
	</g>
	<g id="POLYLINE_530_">
		
			<path fill="none" stroke="#C346FF" stroke-width="2.75" stroke-linecap="round" stroke-linejoin="round" stroke-miterlimit="10" d="
			M179.384,372.882c1.062,0.338,2.079,0.862,2.971,1.531c1.099,0.825,2.946,3.244,0.331,3.25c-2.129,0.005-4.96-1.466-6.096-3.263
			C175.284,372.335,178.157,372.493,179.384,372.882z"/>
	</g>
	<g id="POLYLINE_531_">
		
			<path fill="none" stroke="#C346FF" stroke-width="2.75" stroke-linecap="round" stroke-linejoin="round" stroke-miterlimit="10" d="
			M184.29,412.434c2.609-0.224,5.519-1.118,7.664-2.644c2.228-1.584,2.05-3.9,1.534-6.277c-0.389-1.791-0.917-3.572-0.964-5.417
			c-0.041-1.63,0.337-3.228,0.478-4.845c0.165-1.896-0.253-3.495-1.216-5.132c-1.084-1.843-2.333-3.603-3.537-5.369
			c-1.057-1.55-2.163-3.081-3.469-4.434c-0.313-0.324-0.636-0.638-0.969-0.942"/>
	</g>
	<g id="POLYLINE_532_">
		
			<path fill="none" stroke="#C346FF" stroke-width="2.75" stroke-linecap="round" stroke-linejoin="round" stroke-miterlimit="10" d="
			M176.685,372.768c-4.069-1.839-8.709-2.419-13.142-2.432"/>
	</g>
	<g id="POLYLINE_533_">
		
			<path fill="none" stroke="#C346FF" stroke-width="2.75" stroke-linecap="round" stroke-linejoin="round" stroke-miterlimit="10" d="
			M334.705,339.086c-0.051,2.357-0.112,4.711,0.231,7.052c0.366,2.497,1.092,4.941,1.697,7.386c0.558,2.255,0.974,4.538,1.09,6.862
			c0.118,2.382-0.019,4.771,0.123,7.153c0.234,3.939,2.133,7.34,3.357,11.026c1.527,4.6,2.44,9.398,3.191,14.177
			c0.749,4.765,1.225,9.583,1.454,14.4c0.232,4.885,0.17,9.77-0.131,14.651c-0.282,4.59-0.745,9.163-1.311,13.726
			c-0.637,5.127-1.356,10.254-1.852,15.397c-0.45,4.665-0.436,9.72-2.473,14.041c-1.018,2.16-2.199,4.219-3.089,6.441
			c-0.895,2.235-1.646,4.528-2.332,6.835c-0.323,1.086-0.621,2.179-0.918,3.272"/>
	</g>
	<g id="POLYLINE_534_">
		
			<path fill="none" stroke="#C346FF" stroke-width="2.75" stroke-linecap="round" stroke-linejoin="round" stroke-miterlimit="10" d="
			M335.965,350.854c2.503,2.045,4.878,4.184,6.974,6.651c2.21,2.601,4.198,5.394,6.078,8.241c2.048,3.101,3.884,6.331,5.822,9.5
			c0.63,1.03,1.295,2.059,2.083,2.976c0.954,1.11,1.875,1.878,1.959,3.435c0.076,1.42-0.146,2.887-0.276,4.294
			c-0.085,0.918-0.239,1.78-0.606,2.633c-0.676,1.57-1.482,2.949-1.544,4.691c-0.099,2.794,0.931,5.438,1.744,8.058
			c0.745,2.402,0.503,4.965,0.9,7.429c0.347,2.153,1.217,4.001,3.228,5.033c2.512,1.288,5.504,1.681,8.191,2.461
			c1.123,0.326,1.976,0.822,2.677,1.799c0.663,0.924,1.211,1.939,2.004,2.763c1.71,1.778,4.091,1.407,6.17,0.56
			c1.145-0.467,2.226-1.084,3.214-1.828c0.936-0.705,1.79-1.492,2.861-1.992c1.972-0.922,4.312-1.243,5.95-2.786
			c1.659-1.563,2.276-3.895,3.513-5.754c1.093-1.643,2.373-3.102,2.49-5.15c0.134-2.345-0.741-4.715-1.609-6.847
			c-1.189-2.922-2.702-5.725-4.432-8.362c-1.839-2.804-4.099-5.271-6.075-7.97c-1.7-2.322-2.515-4.701-3.159-7.489
			c-0.246-1.066-0.713-2.148-0.726-3.255c-0.015-1.294,0.598-2.53,0.836-3.786c0.3-1.586-0.048-3.065-0.662-4.535
			c-1.25-2.988-2.825-5.747-3.713-8.886c-0.891-3.149-1.207-6.382-1.247-9.645c-0.081-6.679,0.215-13.32-1.624-19.821
			c-1.585-5.604-4.508-10.201-8.871-14.049c-1.93-1.702-4.701-3.44-5.756-5.906c-0.474-1.108-0.557-2.337-0.834-3.499
			c-0.338-1.423-0.866-2.795-1.362-4.167c-1.137-3.143-2.291-6.269-2.864-9.574c-0.587-3.385-0.711-6.828-1.193-10.227
			c-0.488-3.448-1.651-6.615-2.917-9.84c-0.827-2.108-1.698-4.225-1.254-6.528c0.58-3.011,2.126-5.779,2.787-8.789
			c0.656-2.989,0.856-6.076,0.746-9.13c-0.248-6.899-2.1-13.829-5.385-19.904c-3.102-5.737-7.727-10.859-13.283-14.312
			c-2.558-1.59-5.318-2.629-8.289-3.116"/>
	</g>
	<g id="POLYLINE_535_">
		
			<path fill="none" stroke="#C346FF" stroke-width="2.75" stroke-linecap="round" stroke-linejoin="round" stroke-miterlimit="10" d="
			M276.019,505.353c4.992,5.923,10.778,10.753,17.465,14.67c6.738,3.947,14.175,6.995,21.985,7.869
			c3.036,0.34,6.291,0.429,9.233-0.515c1.029-0.33,2.004-0.807,2.903-1.408c0.572-0.383,1.111-0.813,1.627-1.268
			c0.471-0.415,1.718-2.019,2.206-2.022c2.319-0.018-1.436,7.209-1.745,7.762c-0.928,1.656-2.002,3.208-2.811,4.931
			c-0.86,1.834-1.585,3.73-2.293,5.627c-1.518,4.066-2.849,8.201-4.233,12.313c-0.506,1.503-1.028,3.007-1.682,4.453
			c-0.545,1.204-1.188,2.496-2.382,3.17c-1.356,0.766-3.092,1.046-4.595,1.354c-1.554,0.319-3.155,0.571-4.746,0.54
			c-1.574-0.03-3.111-0.401-3.75-2.001c-0.369-0.924-0.451-1.961-0.558-2.938c-0.493-4.488-0.883-8.986-1.29-13.483
			c-0.242-2.679-0.273-5.988-1.713-8.363c-0.928-1.531-2.813-2.209-4.332-2.983c-1.832-0.934-3.642-1.905-5.428-2.924
			c-3.432-1.959-6.762-4.102-9.945-6.445c-2.782-2.047-5.534-4.29-7.73-6.973c-1.488-1.818-2.668-3.876-2.584-6.298
			c0.049-1.434,0.48-2.811,0.821-4.193c0.305-1.237,0.407-2.534,0.819-3.743c0.691-2.026,2.593-3.084,4.545-3.633
			c0.806-0.227,1.64-0.367,2.477-0.397"/>
	</g>
	<g id="POLYLINE_536_">
		
			<path fill="none" stroke="#C346FF" stroke-width="2.75" stroke-linecap="round" stroke-linejoin="round" stroke-miterlimit="10" d="
			M294.056,520.356c0.688-0.64,1.365-1.3,2.128-1.852c0.698-0.504,1.69-0.918,2.189-1.652c0.523-0.769,0.213-1.885,0.096-2.734
			c-0.119-0.866-0.262-1.729-0.397-2.592c-0.877-5.638-1.83-11.271-2.562-16.931c-0.185-1.429-0.777-3.733,0.243-5.002
			c1.222-1.52,3.71-2.282,5.396-3.09c2.183-1.047,4.291-2.263,6.49-3.272c1.062-0.488,2.14-0.823,3.315-0.857
			c2.047-0.059,4.098,0.383,6.144,0.461c2.385,0.09,4.78-0.025,7.16-0.19c4.585-0.317,9.62-0.575,13.858-2.514
			c1.532-0.701,2.902-0.935,4.522-0.399c1.711,0.566,2.2,1.879,2.264,3.534c0.186,4.832-1.492,9.802-2.604,14.441
			c-1.133,4.728-1.819,9.635-3.368,14.254c-0.433,1.29-1.012,2.483-1.881,3.536c-1.236,1.5-2.754,2.748-3.931,4.3
			c-0.674,0.888-1.223,1.855-1.752,2.834"/>
	</g>
	<g id="POLYLINE_537_">
		
			<path fill="none" stroke="#C346FF" stroke-width="2.75" stroke-linecap="round" stroke-linejoin="round" stroke-miterlimit="10" d="
			M328.038,533.175c-0.626,3.349-1.22,6.703-2.006,10.02c-0.82,3.462-1.804,6.884-2.74,10.316c-0.82,3.006-1.664,6.006-2.214,9.077
			c-0.288,1.606-0.508,3.229-0.933,4.807c-0.401,1.493-0.823,2.954-1.037,4.488c-0.888,6.386-0.574,13.192,0.34,19.558
			c0.437,3.048,1.09,6.09,2.21,8.965c1.087,2.79,2.809,5.383,3.585,8.285c0.642,2.404,0.65,4.825,1.735,7.116
			c1.149,2.427,3.025,4.225,5.204,5.747c5.413,3.781,11.514,6.714,17.527,9.4c3.236,1.446,6.524,2.708,9.84,3.955
			c2.055,0.773,4.117,1.644,5.581,3.342c2.704,3.136,4.098,8.357,3.137,12.398c-0.432,1.817-1.593,3.025-3.313,3.719
			c-2.687,1.084-5.679,1.535-8.548,1.789c-6.175,0.547-12.432,0.296-18.622,0.244c-7.09-0.06-14.189-0.236-21.279-0.167
			c-7.324,0.071-14.686,0.388-22.008,0.091c-3.215-0.13-6.449-0.362-9.604-1.025c-2.194-0.461-4.686-1.126-6.345-2.733
			c-1.75-1.695-1.604-4.225-1.56-6.465c0.057-2.913-0.244-5.758-0.75-8.625c-0.59-3.343-1.317-6.678-1.576-10.069
			c-0.23-3.003,0.075-5.962,0.405-8.944c0.804-7.261,0.869-14.523,1.042-21.823c0.147-6.205-0.169-12.222-1.39-18.326
			c-1.34-6.693-3.592-13.125-5.535-19.655c-1.756-5.9-2.859-11.92-3.075-18.078c-0.233-6.651,0.294-13.348,1.464-19.897
			c0.545-3.05,1.266-6.058,2.1-9.041"/>
	</g>
	<g id="POLYLINE_538_">
		
			<path fill="none" stroke="#C346FF" stroke-width="2.75" stroke-linecap="round" stroke-linejoin="round" stroke-miterlimit="10" d="
			M252.067,343.524c-1.835,2.416-3.821,4.455-6.235,6.301c-2.923,2.235-5.855,4.453-8.658,6.839
			c-5.105,4.343-9.874,9.128-13.951,14.458c-4.187,5.474-7.644,11.482-10.62,17.688c-2.904,6.055-5.295,12.365-6.887,18.894
			c-1.673,6.861-2.423,13.898-3.81,20.816c-0.605,3.017-1.355,6.001-2.483,8.869c-1.043,2.651-2.493,5.376-2.694,8.272
			c-0.181,2.613,0.752,5.177,0.516,7.789c-0.228,2.531-1.775,4.66-2.587,7.011c-0.746,2.158-0.445,4.301-0.182,6.525
			c0.264,2.237,0.132,4.193-0.581,6.343c-0.947,2.857-2.439,5.627-2.816,8.648c-0.241,1.933,0.722,3.584,0.798,5.473
			c0.202,5.026-3.988,8.31-6.012,12.46c-0.743,1.523-1.355,3.101-1.876,4.712"/>
	</g>
	<g id="POLYLINE_539_">
		
			<path fill="none" stroke="#C346FF" stroke-width="2.75" stroke-linecap="round" stroke-linejoin="round" stroke-miterlimit="10" d="
			M276.019,505.353c0.638-3.034,1.689-5.995,3.185-8.714c1.087-1.976,3.028-4.036,3.054-6.421c0.026-2.353-1.306-4.519-1.445-6.868
			c-0.15-2.541,0.862-4.987,1.072-7.499c0.248-2.971-0.788-5.785-1.301-8.671c-0.327-1.836-0.297-3.496,0.659-5.142
			c0.612-1.053,1.556-2.088,1.601-3.366c0.029-0.823-0.283-1.638-0.592-2.384c-0.471-1.138-1.016-2.237-1.286-3.444
			c-0.295-1.317-0.325-2.671-0.286-4.015c0.071-2.446,0.338-4.752-0.559-7.071c-1.116-2.886-1.357-5.607-1.252-8.699
			c0.127-3.73,0.541-7.442,0.878-11.156c0.316-3.486,0.397-6.911,0.241-10.408c-0.05-1.121-0.067-2.305-0.355-3.397
			c-0.443-1.678-1.469-0.629-2.152,0.326c-1.806,2.525-2.87,5.567-3.904,8.465c-2.507,7.025-4.567,14.204-7.222,21.177
			c-1.289,3.386-3.032,6.502-4.519,9.793c-1.306,2.892-2.148,5.988-2.922,9.057c-1.851,7.347-3.382,14.797-5.657,22.031
			c-0.525,1.668-1.095,3.319-1.675,4.968"/>
	</g>
	<g id="POLYLINE_540_">
		
			<path fill="none" stroke="#C346FF" stroke-width="2.75" stroke-linecap="round" stroke-linejoin="round" stroke-miterlimit="10" d="
			M185.42,500.855c-2.474-0.5-4.489,0.572-5.946,2.567c-0.686,0.939-1.151,2.002-1.523,3.099c-0.465,1.374-1.058,2.893-1.12,4.362
			c-0.057,1.334,0.789,2.186,1.703,3.027c1.706,1.571,3.427,3.127,5.14,4.69c3.035,2.77,6.042,5.574,9.174,8.236
			c1.519,1.291,3.091,2.525,4.566,3.866c0.828,0.753,1.896,1.679,2.238,2.792c0.408,1.324-0.243,2.997-0.461,4.295
			c-0.327,1.944-0.606,3.899-0.86,5.854c-0.518,3.983-0.96,7.984-1.234,11.991c-0.124,1.819-0.237,3.653-0.17,5.477
			c0.023,0.628,0.025,1.352,0.238,1.951c0.262,0.736,0.874,0.867,1.564,1.112c3.39,1.203,7,2.74,10.603,3.13
			c0.767,0.083,1.581,0.092,2.311-0.194c1.354-0.53,2.081-1.958,2.693-3.187c1.783-3.58,3.375-7.213,5.334-10.708
			c1.942-3.463,3.986-6.886,6.188-10.191c0.805-1.209,1.622-2.455,2.659-3.484c0.896-0.889,1.991-1.48,3.029-2.182
			c1.681-1.136,2.826-2.673,3.664-4.512c0.515-1.128,0.945-2.326,1.17-3.549c0.055-0.3,0.261-1.063,0.06-1.3
			c-0.367-0.433-1.269,0.563-1.618,0.816c-2.479,1.794-5.81,2.83-8.845,3.03c-3.624,0.239-7.186-1.059-10.444-2.513
			c-3.427-1.53-6.69-3.414-9.798-5.513c-6.512-4.396-12.52-9.665-18.032-15.253c-1.269-1.287-2.503-2.606-3.717-3.945"/>
	</g>
	<g id="POLYLINE_541_">
		
			<path fill="none" stroke="#C346FF" stroke-width="2.75" stroke-linecap="round" stroke-linejoin="round" stroke-miterlimit="10" d="
			M195.036,515.453c1.881-1.312,3.851-2.678,5.612-4.147c1.754-1.462,1.124-3.179,0.942-5.198
			c-0.482-5.346,0.219-10.694,0.73-16.011c0.232-2.41,0.435-4.79,0.417-7.213c-0.006-0.862,0.118-1.543,0.828-2.11
			c0.608-0.487,1.352-0.811,2.051-1.142c2.493-1.182,4.979-2.456,7.579-3.393c1.517-0.547,3.165-1.021,4.794-0.854
			c1.958,0.201,3.833,1.227,5.642,1.914c2.442,0.927,4.923,1.758,7.422,2.516c5.033,1.528,10.072,2.54,15.286,3.193
			c3.321,0.416,7.854,0.542,8.457,4.667c0.598,4.089-0.896,8.606-2.215,12.411c-1.658,4.784-3.673,9.495-6.084,13.949
			c-1.129,2.086-2.381,4.114-4.017,5.844c-1.575,1.667-3.117,3.191-4.387,5.116c-0.617,0.935-1.184,1.899-1.743,2.869"/>
	</g>
	<g id="POLYLINE_542_">
		
			<path fill="none" stroke="#C346FF" stroke-width="2.75" stroke-linecap="round" stroke-linejoin="round" stroke-miterlimit="10" d="
			M231.713,537.246c-2.012,5.94-4.126,11.872-6.432,17.706c-1.09,2.759-2.239,5.502-3.629,8.125c-1.344,2.536-3.108,4.731-4.707,7.1
			c-0.909,1.347-1.588,2.752-1.884,4.357c-0.385,2.082-0.144,4.306-0.811,6.331c-0.633,1.924-2.139,3.462-3.059,5.254
			c-1.317,2.565-2.25,5.332-3,8.11c-0.758,2.81-1.34,5.68-1.648,8.576c-0.222,2.085,0.006,4.274-0.534,6.312
			c-0.464,1.75-1.463,3.324-2.446,4.821c-0.907,1.38-1.879,2.716-2.837,4.059c-0.549,0.77-1.183,1.549-1.485,2.46
			c-0.711,2.147-0.279,4.838-0.119,7.038c0.232,3.175,0.547,6.343,0.813,9.516c0.251,3.007,0.421,6.012,0.391,9.03
			c-0.019,1.883,0.017,3.913-0.718,5.688c-1.531,3.698-6.49,4.219-9.913,4.458c-6.708,0.469-13.531,0.053-20.243-0.038
			c-2.717-0.037-5.434-0.064-8.149-0.168c-2.847-0.109-5.793-0.212-8.57-0.898c-1.778-0.439-3.372-1.248-4.11-3.047
			c-0.685-1.67-0.721-3.58-0.749-5.355c-0.048-3.061,0.117-6.173,0.748-9.175c0.224-1.068,0.503-2.149,0.97-3.139
			c0.48-1.016,1.296-1.671,1.977-2.536c1.37-1.74,2.021-4.085,2.732-6.142c0.974-2.818,2.141-5.654,2.835-8.557
			c0.144-0.601,0.256-1.227,0.219-1.848c-0.068-1.134-0.745-1.988-1.305-2.924c-0.728-1.215-0.979-2.517-0.983-3.922
			c-0.008-2.622,0.688-5.201,1.448-7.69c0.988-3.238,2.014-6.463,2.976-9.708c1.751-5.91,3.308-11.88,4.552-17.918
			c1.199-5.819,1.776-11.647,2.111-17.569c0.363-6.408,0.692-12.814,1.706-19.161c0.947-5.926,2.532-11.765,4.897-17.288
			c1.129-2.637,2.538-5.058,4.126-7.442"/>
	</g>
</g>
<g id="AG-OUTLINE">
	<g id="POLYLINE_19_">
		
			<path fill="none" stroke="#C346FF" stroke-width="3.5" stroke-linecap="round" stroke-linejoin="round" stroke-miterlimit="10" d="
			M283.613,162.089c0.492-4.611,1.49-9.093,2.302-13.652c0.447-2.513,1.178-5.624,0.078-8.078c-0.306-0.681-0.711-1.269-0.46-2.036
			c0.205-0.624,0.647-1.16,0.935-1.746c0.652-1.321,0.602-2.854,0.214-4.248c-0.225-0.809-0.597-1.551-0.661-2.401
			c-0.067-0.89,0.037-1.795,0.068-2.684c0.041-1.152,0.004-2.297-0.258-3.423c-0.873-3.755-3.64-6.991-6.488-9.45
			c-2.503-2.161-5.422-3.918-8.641-4.757c-3.633-0.947-7.517-0.748-11.202-0.25c-3.871,0.523-7.822,1.57-11.23,3.531
			c-2.122,1.221-3.847,2.853-5.001,5.025c-1.923,3.618-2.879,8.061-3.253,12.117c-0.091,0.985-0.133,1.974-0.117,2.963
			c-2.075-0.283-3.299,2.452-3.684,4.111c-0.529,2.282-0.313,4.723,0.087,7.009c0.356,2.035,0.812,4.399,2.126,6.074
			c0.19,0.243,0.661,0.509,0.792,0.759c0.169,0.321-0.061,1.032-0.119,1.434c-0.117,0.805-0.244,1.609-0.375,2.412
			c-0.066,0.401-0.016,0.755-0.318,0.893c-0.197,0.09-0.643,0.008-0.854,0.019c-0.808,0.042-1.61,0.151-2.407,0.282
			c-1.073,0.176-2.46,0.334-3.333,1.056c-0.514,0.425-0.661,1.032-0.935,1.611c-0.283,0.597-0.7,0.939-1.271,1.251
			c-2.006,1.094-4.847,2.175-5.455,4.659c-0.309,1.262-0.231,2.664-0.21,3.95c0.013,0.803,0.053,1.607,0.14,2.406
			c0.03,0.277,0.125,0.595,0.114,0.872c-0.007,0.171,0.088,0.273,0.001,0.376c-0.074,0.089-0.586,0.131-0.727,0.163
			c-3.335,0.772-6.682,1.599-9.971,2.551c-3.056,0.884-6.029,2.031-8.84,3.527c-1.883,1.002-3.937,2.145-5.251,3.878
			c-0.253,0.334-0.47,0.689-0.686,1.048c-0.336,0.559-0.333,0.58-0.969,0.64c-0.424,0.04-0.847,0.086-1.27,0.137
			c-1.676,0.199-3.356,0.43-5.018,0.723c-2.52,0.444-4.841,1.318-6.985,2.724c-0.249,0.163-0.606,0.528-0.888,0.615
			c-0.272,0.084-0.725-0.022-1.015-0.021c-0.635,0.003-1.27,0.035-1.902,0.095c-1.379,0.132-2.744,0.399-4.073,0.786
			c-2.854,0.832-5.506,2.223-7.904,3.971c-4.981,3.63-9.103,8.581-12.086,13.952c-3.062,5.512-4.814,11.81-4.54,18.14
			c0.14,3.24,0.857,6.404,1.156,9.625c0.224,2.415-0.357,4.354-1.676,6.362c-1.897,2.888-3.995,5.589-5.508,8.714
			c-1.272,2.628-2.155,5.432-2.575,8.322c-0.465,3.208-0.479,6.471-0.381,9.705c0.107,3.516,0.544,7.057,0.379,10.575
			c-0.137,2.925-1.18,5.698-1.417,8.608c-0.248,3.046,0.429,6.084,0.027,9.127c-0.385,2.906-1.432,5.76-2.905,8.288
			c-0.428,0.735-1.114,0.986-1.806,1.458c-0.611,0.417-1.191,0.88-1.729,1.389c-0.845,0.801-1.594,1.719-2.178,2.727
			c-1.245,2.147-1.508,4.725-1.721,7.15c-0.305,3.46-0.364,6.943-0.335,10.414c0.029,3.512,0.177,7.027,0.482,10.527
			c0.151,1.729,0.337,3.455,0.562,5.176c0.041,0.311,0.228,0.856,0.058,1.062c-0.057,0.069-0.299,0.117-0.383,0.157
			c-0.675,0.316-1.137,0.791-1.419,1.481c-0.82,2.007-0.614,4.536-0.419,6.635c0.29,3.119,1.057,6.188,2.124,9.129
			c0.502,1.385,1.079,2.746,1.77,4.047c0.226,0.426,1.067,1.396,1.059,1.846c-0.005,0.327-0.925,1.179-1.114,1.577
			c-0.893,1.875-0.694,4.089-1.285,6.056c-0.568,1.891-1.678,3.357-1.165,5.404c0.564,2.247,2.029,3.896,3.103,5.884
			c0.162,0.3,0.439,0.731,0.339,1.005c-0.094,0.258-0.631,0.62-0.811,0.862c-0.156,0.21-0.296,0.432-0.425,0.66
			c-0.351,0.623-0.607,1.299-0.794,1.988c-0.592,2.189-0.539,4.642,0.226,6.783c0.594,1.663,1.961,3.748,3.998,3.4
			c0.367,2.906,0.837,5.799,1.128,8.715c0.044,0.44,0.143,0.713-0.069,0.979c-0.161,0.202-0.538,0.33-0.733,0.539
			c-0.374,0.401-0.619,0.916-0.776,1.437c-0.228,0.757-0.273,1.57-0.175,2.352c0.066,0.528,0.2,1.051,0.409,1.541
			c0.212,0.496,0.5,0.974,0.891,1.351c0.22,0.212,0.46,0.344,0.712,0.505c0.353,0.225,0.356,0.195,0.425,0.652
			c0.284,1.872,0.964,3.293,2.728,4.197c1.993,1.021,4.266,1.159,6.378,1.808c2.682,0.824,5.097,2.324,7.746,3.24
			c1.347,0.466,2.715,0.753,4.145,0.672c1.818-0.103,3.458-0.866,5.232-1.171c1.544-0.266,2.891,0.066,4.345-0.711
			c2.023-1.082,3.813-2.75,5.966-3.579c1.805-0.695,3.729-1.006,5.269-2.261c0.727-0.593,1.344-1.296,2.12-1.831
			c1.1-0.759,1.774-1.423,1.888-2.827c0.065-0.795-0.015-1.606-0.138-2.392c-0.067-0.428-0.152-0.853-0.268-1.27
			c-0.095-0.342-0.288-0.596-0.026-0.775c0.235-0.16,0.932-0.122,1.225-0.178c0.406-0.077,0.809-0.173,1.208-0.282
			c1.116-0.306,2.218-0.707,3.27-1.189c1.626-0.745,3.27-1.804,3.57-3.713c0.222-1.411-0.141-2.872-0.456-4.237
			c-0.515-2.234-0.966-4.362-0.695-6.659c0.203-1.72,0.638-3.513,0.3-5.246c-0.263-1.351-0.975-2.561-1.716-3.701
			c-1.593-2.451-3.172-4.961-4.999-7.247c-0.737-0.922-1.535-1.792-2.407-2.587c1.31-1.164-1.604-3.131-2.503-3.643
			c-1.15-0.654-2.76-1.373-4.114-1.126c-0.456,0.083-0.603,0.113-1.057-0.077c-0.371-0.155-0.743-0.307-1.121-0.444
			c-0.676-0.246-1.364-0.458-2.06-0.638c1.123-1.375,2.181-2.779,3.054-4.328c0.607-1.077,1.364-2.329,1.493-3.592
			c0.032-0.316-0.035-0.584-0.058-0.889c-0.045-0.575,0.168-0.934,0.437-1.488c0.419-0.862,0.833-1.725,1.242-2.592
			c0.817-1.733,1.611-3.477,2.376-5.234c3.043-6.989,6.202-14.272,7.555-21.815c0.526-2.93,0.728-6.032-0.199-8.905
			c-0.324-1.005-0.779-1.963-1.325-2.867c-0.382-0.633-0.809-1.239-1.262-1.824c-0.456-0.589-1.246-1.237-1.495-1.913
			c-0.345-0.934-0.361-2.153-0.519-3.122c-0.146-0.898-0.285-1.796-0.455-2.69c-0.322-1.686-0.839-3.343-1.007-5.056
			c-0.257-2.629,0.506-5.255,1.58-7.631c1.467-3.246,3.947-5.664,6.29-8.284c2.468-2.76,4.814-5.64,6.875-8.719
			c0.475-0.709,0.931-1.43,1.376-2.158c1.796,2.356,3.62,4.698,5.7,6.814c2.127,2.163,4.614,3.856,6.946,5.779
			c3.528,2.909,6.243,6.871,7.018,11.445c0.367,2.168,0.092,4.333-0.409,6.459c-0.684,2.898-1.451,5.75-1.807,8.715
			c-0.763,6.368-0.276,12.893-0.303,19.287c-0.025,5.944-0.487,11.862-1.779,17.673c-1.376,6.186-3.468,12.187-4.862,18.367
			c-1.37,6.071-1.937,12.321-3.545,18.338c-1.27,4.751-3.263,9.178-2.26,14.169c0.226,1.126,0.553,2.229,0.941,3.31
			c0.207,0.579,0.566,1.176,0.53,1.774c-0.044,0.728-0.317,1.53-0.454,2.245c-0.671,3.506-1.197,7.043-1.782,10.564
			c-0.449,2.703-0.928,5.405-1.561,8.072c-0.709,2.984-1.765,5.786-2.908,8.624c-0.814,2.019-1.651,4.067-1.675,6.277
			c-0.027,2.421,0.764,4.806,0.536,7.231c-0.216,2.296-1.522,4.274-2.357,6.371c-0.64,1.609-0.814,3.196-0.663,4.916
			c0.185,2.099,0.628,4.159,0.268,6.261c-0.475,2.772-1.826,5.317-2.69,7.974c-0.57,1.752-1.032,3.572-0.599,5.403
			c0.379,1.601,0.832,2.943,0.563,4.596c-0.333,2.045-1.195,4.03-2.429,5.69c-0.785,1.056-1.654,2.038-2.348,3.159
			c-0.388,0.627-0.738,1.277-1.064,1.938c-0.094,0.19-0.33,0.98-0.502,1.067c-0.075,0.038-0.408-0.075-0.507-0.089
			c-4.432-0.648-6.422,3.894-7.461,7.366c-0.32,1.068-0.564,2.044-0.62,3.152c-0.036,0.707-0.515,1.213-0.912,1.825
			c-0.432,0.666-0.846,1.343-1.236,2.035c-1.432,2.542-2.539,5.27-3.505,8.019c-2.038,5.801-3.25,11.801-3.959,17.899
			c-0.731,6.292-0.899,12.621-1.332,18.936c-0.417,6.08-1.519,12.085-2.92,18.009c-1.419,5.998-3.096,11.935-4.926,17.819
			c-0.969,3.115-2.12,6.249-2.681,9.473c-0.303,1.74-0.491,3.626-0.045,5.361c0.46,1.79,2.098,3.076,2.04,5.008
			c-0.064,2.139-1.127,4.343-1.801,6.329c-0.936,2.757-1.752,5.632-3.035,8.254c-0.846,1.731-2.455,2.855-3.16,4.654
			c-0.984,2.508-1.258,5.331-1.411,7.998c-0.151,2.628-0.293,5.484,0.335,8.065c1.066,4.382,5.989,4.564,9.723,4.832
			c6.71,0.482,13.479,0.375,20.201,0.466c2.754,0.037,5.511,0.107,8.265,0.053c2.879-0.056,5.875-0.158,8.645-1.025
			c1.332-0.417,2.666-1.049,3.601-2.117c1-1.141,1.343-2.65,1.489-4.122c0.622-6.294-0.338-12.804-0.891-19.068
			c-0.235-2.66-0.532-5.412-0.326-8.084c0.178-2.316,1.814-4.002,3.104-5.826c1.326-1.876,2.758-3.819,3.594-5.978
			c0.623-1.61,0.608-3.229,0.675-4.938c0.225-5.745,1.649-11.719,3.884-17.007c0.506-1.198,1.074-2.375,1.755-3.483
			c0.582-0.947,1.309-1.804,1.821-2.793c0.866-1.672,0.846-3.567,0.997-5.402c0.148-1.801,0.484-3.5,1.371-5.089
			c1.289-2.307,3.099-4.285,4.467-6.547c3.016-4.988,4.956-10.616,6.944-16.069c1.151-3.159,2.339-6.308,3.424-9.491
			c0.237-0.695,0.376-1.654,0.879-2.172c0.212-0.218,0.507-0.384,0.738-0.588c0.497-0.44,0.941-0.936,1.328-1.475
			c1.116-1.555,1.893-3.452,2.32-5.312c0.171-0.744,0.014-1.666,0.318-2.302c0.55-1.151,1.338-2.258,2.073-3.298
			c1.551-2.193,3.671-3.857,5.273-6.002c1.706-2.284,3.015-4.879,4.243-7.442c2.557-5.335,4.945-10.991,6.144-16.806
			c0.72-3.491,1.573-8.584-2.758-9.973c1.944-5.528,3.496-11.152,4.865-16.848c1.445-6.011,2.572-12.309,4.897-18.06
			c1.07-2.645,2.556-5.094,3.698-7.707c1.143-2.615,2.119-5.311,3.038-8.012c2.049-6.021,3.883-12.126,6.111-18.084
			c0.878-2.348,1.834-4.759,3.308-6.807c0.379-0.527,1.253-1.817,1.88-0.982c0.433,0.576,0.447,1.736,0.505,2.405
			c0.519,5.911-0.155,11.702-0.647,17.585c-0.243,2.904-0.492,5.83-0.372,8.747c0.045,1.091,0.153,2.18,0.427,3.24
			c0.288,1.111,0.801,2.138,1.141,3.231c0.588,1.888,0.329,3.929,0.258,5.867c-0.073,2.006,0.015,4.003,0.748,5.892
			c0.6,1.549,1.831,3.384,1.248,5.127c-0.564,1.688-2.007,2.885-2.266,4.71c-0.293,2.061,0.423,4.233,0.876,6.211
			c0.478,2.087,0.787,4.126,0.492,6.261c-0.295,2.132-1.049,4.233-0.988,6.405c0.059,2.094,1.002,4.006,1.355,6.046
			c0.266,1.536-0.165,2.863-0.949,4.185c-0.692,1.167-1.45,2.29-2.098,3.483c-0.199,0.366-0.502,1.429-0.828,1.646
			c-0.164,0.109-0.721,0.051-0.928,0.078c-1.295,0.169-2.593,0.562-3.73,1.21c-1.483,0.845-2.281,2.125-2.634,3.756
			c-0.474,2.187-1.228,4.473-1.36,6.71c-0.051,0.859,0.014,1.519-0.22,2.37c-0.377,1.371-0.723,2.751-1.036,4.138
			c-1.308,5.789-2.041,11.712-2.262,17.642c-0.209,5.615,0.093,11.272,1.186,16.791c1.219,6.153,3.335,12.092,5.14,18.087
			c1.669,5.542,2.919,11.247,3.479,17.012c0.63,6.488,0.126,13.101-0.027,19.6c-0.062,2.628-0.125,5.256-0.332,7.877
			c-0.244,3.092-0.742,6.162-0.931,9.259c-0.346,5.662,1.156,11.111,1.962,16.668c0.403,2.775,0.332,5.46,0.379,8.25
			c0.032,1.908,0.408,3.743,1.964,5.007c1.657,1.345,3.878,1.952,5.926,2.386c2.785,0.59,5.644,0.847,8.484,0.983
			c6.824,0.329,13.684,0.05,20.511-0.017c5.557-0.054,11.114,0.033,16.671,0.08c6.508,0.055,13.025,0.214,19.533,0.102
			c2.911-0.05,5.836-0.141,8.721-0.554c2.29-0.328,4.828-0.775,6.905-1.852c3.435-1.781,3.146-6.421,2.375-9.624
			c-0.48-1.996-1.297-4.016-2.536-5.668c-1.153-1.537-2.715-2.486-4.458-3.231c-2.744-1.173-5.594-2.085-8.346-3.245
			c-2.836-1.196-5.636-2.485-8.399-3.841c-2.772-1.36-5.506-2.796-8.164-4.367c-2.444-1.444-4.997-2.928-6.966-5.005
			c-1.47-1.55-2.506-3.483-3.057-5.543c-0.561-2.098-0.579-4.265-1.394-6.303c-1.077-2.695-2.563-5.201-3.505-7.956
			c-0.92-2.691-1.475-5.497-1.855-8.311c-0.795-5.883-1.024-12.016-0.409-17.927c0.275-2.648,1.169-5.113,1.635-7.719
			c0.515-2.876,1.049-5.718,1.802-8.543c1.602-6.019,3.424-11.986,4.607-18.107c0.336-1.738,0.456-3.656,0.998-5.338
			c0.384-1.191,1.389-2.301,1.983-3.422c0.681-1.286,1.288-2.628,1.755-4.008c0.227-0.671,0.602-1.631,0.462-2.355
			c-0.106-0.549-0.658-0.489-0.796-0.856c-0.121-0.324,0.763-1.483,0.967-1.804c0.596-0.938,1.291-1.781,2.053-2.588
			c1.381-1.463,2.935-2.814,3.831-4.649c0.992-2.032,1.469-4.347,1.952-6.541c0.688-3.125,1.333-6.262,2.078-9.374
			c0.774-3.228,1.657-6.454,2.203-9.732c0.318-1.908,0.655-4.024,0.272-5.949c-0.376-1.884-2.196-2.553-3.938-2.628
			c-1.267-0.055-2.259,0.562-3.392,1.027c-1.193,0.49-2.441,0.822-3.702,1.079c1.134-4.17,2.355-8.376,4.195-12.298
			c0.916-1.951,2.07-3.799,2.81-5.83c0.632-1.733,0.927-3.584,1.127-5.411c0.464-4.246,0.8-8.501,1.327-12.741
			c0.61-4.909,1.283-9.813,1.79-14.734c0.472-4.577,0.832-9.169,0.958-13.769c0.124-4.492,0.001-8.988-0.344-13.468
			c-0.343-4.447-0.888-8.883-1.664-13.275c-0.768-4.347-1.716-8.71-3.244-12.86c-1.232-3.344-2.713-6.368-2.87-9.977
			c-0.096-2.205,0.005-4.414-0.096-6.619c-0.099-2.16-0.458-4.277-0.947-6.38c-0.256-1.1-0.542-2.192-0.817-3.287
			c2.959,2.418,5.674,4.989,8.066,7.978c2.563,3.202,4.876,6.615,7.021,10.108c1.914,3.115,3.549,6.655,5.986,9.415
			c1.138,1.289,1.886,2.133,1.848,3.949c-0.033,1.542-0.143,3.145-0.405,4.665c-0.347,2.01-1.746,3.648-1.983,5.697
			c-0.36,3.104,0.964,6.061,1.792,8.973c0.778,2.735,0.338,5.661,1.077,8.414c0.723,2.692,2.71,3.846,5.201,4.596
			c1.934,0.582,3.908,1.024,5.849,1.58c1.36,0.39,2.246,1.032,3.047,2.224c0.755,1.123,1.489,2.429,2.684,3.153
			c1.183,0.716,2.634,0.574,3.914,0.223c1.246-0.342,2.443-0.908,3.534-1.594c1.199-0.754,2.196-1.801,3.445-2.475
			c2.221-1.199,4.97-1.397,6.726-3.375c0.755-0.851,1.267-1.879,1.772-2.888c0.797-1.593,1.778-2.964,2.741-4.455
			c0.988-1.529,1.276-3.098,1.03-4.887c-0.488-3.542-2.209-7.014-3.921-10.113c-1.989-3.602-4.477-6.772-7.046-9.971
			c-2.032-2.53-3.338-4.993-4.063-8.165c-0.312-1.367-0.976-2.855-0.877-4.279c0.094-1.348,0.733-2.606,0.905-3.948
			c0.325-2.536-1.115-4.898-2.179-7.084c-1.588-3.261-2.717-6.705-3.194-10.308c-0.536-4.045-0.291-8.155-0.34-12.222
			c-0.045-3.728-0.322-7.445-1.171-11.084c-0.75-3.212-1.902-6.357-3.606-9.19c-1.864-3.099-4.462-5.49-7.173-7.836
			c-1.221-1.056-2.538-2.086-3.532-3.371c-0.786-1.017-1.083-2.16-1.315-3.401c-0.695-3.718-2.355-7.155-3.453-10.76
			c-1.19-3.906-1.519-7.91-1.929-11.953c-0.374-3.682-1.142-7.137-2.494-10.588c-1.062-2.71-2.596-5.591-1.949-8.588
			c0.367-1.703,1.117-3.318,1.694-4.956c0.64-1.82,1.123-3.681,1.414-5.588c1.162-7.607-0.083-15.62-2.951-22.722
			c-2.93-7.255-7.908-13.717-14.43-18.097c-1.571-1.055-3.24-1.973-5.018-2.63c-0.764-0.282-1.545-0.516-2.337-0.705
			c-0.446-0.107-0.896-0.199-1.347-0.28c-0.546-0.099-0.521-0.213-0.721-0.69c-1.107-2.64-3.375-4.051-5.92-5.136
			c-0.775-0.33-1.566-0.623-2.375-0.858c-0.713-0.208-1.613-0.213-2.282-0.491c-0.737-0.306-1.51-1.441-2.1-2.005
			c-0.695-0.664-1.406-1.313-2.141-1.932c-2.857-2.408-6.092-4.161-9.506-5.647c-3.641-1.585-7.308-2.954-10.76-4.935
			c-0.61-0.35-1.221-0.7-1.831-1.051c-0.354-0.203-1.251-0.507-1.482-0.85c-0.374-0.556,0.248-1.897,0.201-2.609
			c-0.035-0.525-0.268-1.101-0.392-1.61c-0.312-1.281-0.624-2.562-0.936-3.843c-0.663-2.725-1.327-5.45-1.99-8.175
			c-0.098-0.403-0.156-1.534-0.45-1.847c-0.159-0.169-0.835-0.183-1.065-0.227C284.702,162.301,284.158,162.195,283.613,162.089z"/>
	</g>
	<g id="POLYLINE_20_">
		
			<path fill="none" stroke="#C346FF" stroke-width="3.5" stroke-linecap="round" stroke-linejoin="round" stroke-miterlimit="10" d="
			M569.094,301.02c0.358-1.084,0.645-2.546,1.589-3.305c0.785-0.631,1.833-0.887,2.674-1.448c1.493-0.996,2.677-2.403,3.043-4.184
			c0.446-2.174,0.109-4.358,0.814-6.496c0.341-1.033,0.669-2.025,0.603-3.127c-0.076-1.278-0.432-2.522-0.521-3.8
			c-0.151-2.177,0.632-4.335,0.373-6.502c-0.238-1.992-1.494-3.665-1.696-5.695c-0.199-2-0.107-4.019-1.12-5.817
			c-0.622-1.104-1.483-2.053-2.248-3.057c-0.908-1.192-1.548-2.535-2.361-3.788c-0.705-1.086-1.545-1.795-2.755-2.28
			c-1.361-0.545-2.446-1.111-3.582-2.05c-0.452-0.373-0.926-0.795-1.5-0.961c-0.597-0.173-1.217-0.015-1.818,0.047
			c-1.169,0.12-2.22-0.121-3.317-0.495c-2.502-0.853-5.201-2.462-7.765-0.993c-1.229,0.704-2.05,1.009-3.479,0.795
			c-1.56-0.234-2.861-0.169-4.262,0.663c-1.138,0.675-2.079,1.61-3.061,2.485c-0.961,0.855-1.985,1.472-3.089,2.124
			c-2.265,1.337-3.015,3.138-4.259,5.365c-0.567,1.017-1.273,1.763-2.281,2.355c-1.252,0.735-1.838,1.537-2.588,2.752
			c-1.042,1.689-2.809,2.786-3.774,4.525c-0.72,1.296-0.599,2.574-0.615,3.994c-0.016,1.403-0.568,2.294-1.389,3.371
			c-0.732,0.959-1.115,1.918-0.718,3.116c0.329,0.992,1.063,1.778,1.536,2.697c1.062,2.066,0.783,4.311,0.144,6.444
			c-0.515,1.717-0.419,3.481,0.51,5.044c0.597,1.005,1.488,1.524,2.498,2.042c-1.318,1.587-2.65,3.168-4.1,4.638
			c-1.24,1.257-2.686,2.245-3.967,3.449c-0.178,0.168-0.348,0.417-0.546,0.555c-0.42,0.291-1.071,0.391-1.561,0.559
			c-0.989,0.338-1.973,0.691-2.955,1.048c-1.712,0.623-3.418,1.267-5.11,1.943c-4.811,1.921-9.595,3.912-14.392,5.868
			c-3.003,1.224-6.19,2.303-8.879,4.148c-1.637,1.123-3.061,2.597-3.942,4.39c-1.282,2.61-1.022,5.548-1.074,8.371
			c-0.073,4.012-1.663,7.731-2.283,11.663c-0.639,4.05-1.244,8.028-2.513,11.941c-2.612,8.054-6.285,15.726-9.061,23.725
			c-1.397,4.027-2.688,8.09-3.508,12.279c-0.829,4.232-1.241,8.533-1.698,12.818c-0.856,8.031-1.478,16.084-2.151,24.132
			c-0.502,5.999-1.004,11.999-1.505,17.998c-0.252,3.012-0.569,6.03-0.651,9.053c-0.041,1.504-0.077,3.093,0.3,4.563
			c0.485,1.89,1.983,2.195,3.722,2.342c0.959,0.081,1.922,0.121,2.884,0.153c0.269,0.009,0.67-0.062,0.92,0.025
			c0.359,0.125,0.188-0.036,0.313,0.404c0.112,0.394,0.121,0.85,0.188,1.255c0.276,1.649,0.658,3.281,1.136,4.883
			c1.08,3.617,2.669,7.053,4.809,10.166c2,2.909,4.369,5.873,7.224,7.992c0.993,0.737,2.07,1.358,3.218,1.818
			c0.861,0.345,1.759,0.606,2.672,0.77c0.181,0.032,0.501,0.015,0.659,0.1c0.312,0.168,0.118-0.034,0.204,0.323
			c0.093,0.388-0.044,0.968-0.063,1.366c-0.035,0.759-0.07,1.518-0.104,2.277c-0.07,1.524-0.14,3.049-0.21,4.573
			c-0.091,1.977-0.155,3.954-0.217,5.933c-0.292,9.254-0.059,18.524,0.007,27.78c0.057,7.977-0.233,15.939-0.259,23.913
			c-0.01,2.898-0.071,6.194,1.135,8.901c1.233,2.766,4.126,3.127,6.501,4.512c1.034,0.603,1.908,1.421,2.702,2.31
			c1.282,1.437,2.524,3.009,3.643,4.573c0.494,0.691,0.079,1.963-0.003,2.796c-0.235,2.414-0.47,4.827-0.705,7.241
			c-0.893,9.173-1.693,18.361-2.695,27.522c-0.311,2.841-0.622,5.683-0.933,8.524c-0.169,1.542-0.418,3.109-0.414,4.662
			c0.007,3.015,3.209,4.368,5.627,5.271c0.33,0.123,2.053,0.498,2.15,0.747c0.093,0.242-0.302,1.085-0.369,1.327
			c-0.222,0.8-0.445,1.6-0.667,2.399c-0.515,1.851-1.038,3.696-1.716,5.496c-0.584,1.55-1.177,3.074-1.371,4.731
			c-0.236,2.016-0.107,4.084,0.102,6.096c0.13,1.247,0.117,3.098,1.27,3.897c0.91,0.631,2.25,0.719,3.307,0.814
			c4.04,0.362,8.147,0.35,12.201,0.366c2.132,0.009,4.281,0.062,6.41-0.083c1.163-0.079,2.652-0.176,3.623-0.91
			c1.326-1.002,0.872-3.066,0.67-4.47c-0.253-1.755-0.593-3.498-1.002-5.223c-0.979-4.133-1.936-8.2-2.503-12.414
			c1.625-0.181,1.924-1.736,2.114-3.119c0.251-1.825,0.244-3.681,0.25-5.52c0.015-4.09-0.086-8.179-0.05-12.268
			c0.068-7.803,0.619-15.591,1.604-23.332c0.118-0.927,0.23-1.854,0.359-2.779c0.084-0.606,0.104-2.915,0.551-3.159
			c0.292-0.159,1.146,0.04,1.534,0.008c0.441-0.036,0.938-0.089,1.315-0.335c0.859-0.56,0.581-1.763,0.434-2.615
			c-0.326-1.885-0.592-3.752-0.713-5.663c-0.123-1.941-0.166-3.888-0.177-5.833c-0.005-0.879,0.244-1.744,0.412-2.605
			c0.136-0.697,0.272-1.395,0.408-2.092c0.05-0.258,0.068-1.177,0.266-1.365c0.256-0.243,2.304,0.139,2.699,0.163
			c0.941,0.056,1.883,0.094,2.826,0.123c1.883,0.059,3.768,0.061,5.652,0.023c7.705-0.154,15.4-0.974,22.871-2.906
			c0.958-0.248,1.912-0.505,2.866-0.766c0.879,4.421,1.655,8.853,2.288,13.316c0.708,4.992,1.35,9.995,2.025,14.991
			c0.522,3.869,1.077,7.731,1.763,11.574c0.834,4.666,1.794,9.31,2.711,13.96c0.826,4.188,1.544,8.421,2.529,12.576
			c0.32,1.351,0.65,2.817,1.375,4.021c0.253,0.42,0.568,0.789,0.979,1.063c0.2,0.133,0.747,0.271,0.845,0.441
			c0.083,0.144-0.01,0.588-0.014,0.747c-0.014,0.54-0.032,1.081-0.05,1.621c-0.163,4.999-0.289,10.004-0.607,14.996
			c-0.146,2.294-0.189,4.767,1.998,6.149c2.382,1.507,5.654,1.469,8.359,1.521c4.555,0.087,9.118-0.096,13.674-0.092
			c4.955,0.005,9.912,0.085,14.867,0.128c3.179,0.028,6.625,0.306,9.702-0.63c1.391-0.423,2.561-1.237,2.881-2.732
			c0.239-1.117,0.076-2.313-0.14-3.417c-0.319-1.627-0.667-3.638-2.141-4.63c-1.383-0.931-3.274-1.198-4.851-1.59
			c-3.553-0.882-6.526-2.236-9.289-4.677c-1.469-1.298-2.804-2.739-4.159-4.153c-0.847-0.884-1.705-1.759-2.539-2.654
			c-0.39-0.419-0.841-0.837-1.17-1.306c-0.195-0.278-0.192-0.2-0.169-0.48c0.016-0.19,0.179-0.44,0.231-0.633
			c0.397-1.479,0.122-3.158-0.077-4.642c-0.29-2.169-0.663-4.326-0.923-6.499c-0.477-3.991-0.815-8.005-1.045-12.018
			c-0.253-4.425-0.535-8.849-0.755-13.276c-0.284-5.735-0.569-11.47-0.853-17.204c-0.077-1.554-0.154-3.107-0.231-4.661
			c0.515,1.713,1.264,3.433,2.366,4.855c0.331,0.427,1.114,1.478,1.62,0.787c0.35-0.477,0.285-1.703,0.278-2.226
			c-0.061-4.94-0.491-9.93-0.696-14.868c-0.226-5.443-0.396-10.892-0.688-16.332c-0.29-5.397-0.597-10.794-1.138-16.174
			c-0.522-5.196-1.291-10.367-1.983-15.542c-0.688-5.14-1.34-10.286-2.09-15.418c-0.795-5.44-1.88-10.828-2.921-16.225
			c-0.148-0.766-0.295-1.532-0.443-2.298c-0.028-0.147-0.28-0.871-0.194-1.007c0.175-0.278,1.82-0.48,2.226-0.625
			c1.568-0.561,2.912-1.473,4.144-2.583c1.728-1.557,3.332-3.295,4.856-5.05c1.167-1.344,2.31-2.773,3.061-4.398
			c1.474-3.191,1.199-7.175,0.97-10.583c-0.082-1.22-0.225-2.437-0.467-3.636c2.797-0.411,3.225-3.538,3.453-5.87
			c0.317-3.244,0.245-6.554,0.095-9.807c-0.311-6.739-1.192-13.463-2.737-20.032c-1.569-6.671-3.986-13.169-5.2-19.918
			c-0.258-1.432-0.406-2.873-0.362-4.329c0.039-1.301,0.245-2.604,0.18-3.907c-0.107-2.172-1.201-4.163-2.045-6.117
			c-2.51-5.811-2.725-12.118-3.627-18.294c-0.228-1.558-0.505-3.115-0.95-4.627c-0.41-1.392-0.997-2.738-1.311-4.158
			c-0.37-1.673,0.003-3.116,0.668-4.658c0.713-1.654,1.398-3.116,1.353-4.936c-0.03-1.2-0.215-2.39-0.135-3.592
			c0.084-1.259,0.397-2.49,0.7-3.711c0.988-3.985,1.999-8.561-0.425-12.25c-1.331-2.025-3.408-3.56-5.309-5.01
			c-2.367-1.805-4.913-3.368-7.516-4.808c-3.394-1.878-6.789-3.755-10.186-5.628c-0.542-0.299-1.146-0.527-1.537-0.995
			c-0.294-0.351-0.53-0.762-0.818-1.121c-0.799-0.998-1.711-1.905-2.691-2.724C571.155,302.32,570.153,301.621,569.094,301.02z"/>
	</g>
</g>
</svg>
