<?xml version="1.0" encoding="utf-8"?>
<!-- Generator: Adobe Illustrator 23.0.6, SVG Export Plug-In . SVG Version: 6.00 Build 0)  -->
<!DOCTYPE svg PUBLIC "-//W3C//DTD SVG 1.1//EN" "http://www.w3.org/Graphics/SVG/1.1/DTD/svg11.dtd" [
	<!ENTITY ns_extend "http://ns.adobe.com/Extensibility/1.0/">
	<!ENTITY ns_ai "http://ns.adobe.com/AdobeIllustrator/10.0/">
	<!ENTITY ns_graphs "http://ns.adobe.com/Graphs/1.0/">
	<!ENTITY ns_vars "http://ns.adobe.com/Variables/1.0/">
	<!ENTITY ns_imrep "http://ns.adobe.com/ImageReplacement/1.0/">
	<!ENTITY ns_sfw "http://ns.adobe.com/SaveForWeb/1.0/">
	<!ENTITY ns_custom "http://ns.adobe.com/GenericCustomNamespace/1.0/">
	<!ENTITY ns_adobe_xpath "http://ns.adobe.com/XPath/1.0/">
]>
<svg version="1.1" xmlns:x="&ns_extend;" xmlns:i="&ns_ai;" xmlns:graph="&ns_graphs;"
	 xmlns="http://www.w3.org/2000/svg" xmlns:xlink="http://www.w3.org/1999/xlink" x="0px" y="0px" viewBox="0 0 750 750"
	 enable-background="new 0 0 750 750" xml:space="preserve">
<metadata>
	<sfw  xmlns="&ns_sfw;">
		<slices></slices>
		<sliceSourceBounds  bottomLeftOrigin="true" height="14750" width="5875" x="-3125" y="-7000"></sliceSourceBounds>
	</sfw>
</metadata>
<g id="FILL-BACKGROUND">
	<rect fill="#FFFFFF" width="750" height="750"/>
</g>
<g id="AG-DIAGRAM">
	<g id="POLYLINE_1707_">
		<g>
			<g>
				
					<line fill="none" stroke="#E74C3C" stroke-width="3.25" stroke-linecap="round" stroke-linejoin="round" x1="135.062" y1="592.333" x2="137.062" y2="592.333"/>
				
					<line fill="none" stroke="#E74C3C" stroke-width="3.25" stroke-linecap="round" stroke-linejoin="round" stroke-dasharray="4.0273,7.0478" x1="144.11" y1="592.333" x2="583.593" y2="592.333"/>
				
					<line fill="none" stroke="#E74C3C" stroke-width="3.25" stroke-linecap="round" stroke-linejoin="round" x1="587.117" y1="592.333" x2="589.117" y2="592.333"/>
			</g>
		</g>
	</g>
</g>
<g id="AG-DETAILS">
</g>
<g id="AG-SPORTS">
	<g id="POLYLINE_1632_">
		
			<path fill="none" stroke="#E74C3C" stroke-width="2.75" stroke-linecap="round" stroke-linejoin="round" stroke-miterlimit="10" d="
			M446.794,286.454c-0.975,5.801-2.455,11.541-4.658,17.004c-2.309,5.725-5.659,10.946-8.078,16.614
			c-1.059,2.48-2.031,5.211-1.909,7.948c0.131,2.941,1.734,5.493,3.479,7.766c3.789,4.935,7.821,9.803,12.133,14.292
			c2.1,2.187,4.311,4.266,6.559,6.3c0.643,0.582,1.289,1.163,1.939,1.736c0.415,0.366,0.992,1.007,1.584,1.068
			c0.639,0.066,1.121-0.605,1.524-1.009c0.453-0.454,0.909-0.905,1.374-1.347c1.276-1.215,2.572-2.41,3.842-3.632
			c0.407-0.391,0.998-0.853,1.048-1.461c0.051-0.616-0.439-1.247-0.769-1.717c-1.805-2.568-3.909-4.935-5.84-7.409
			c-1.781-2.281-3.456-4.637-4.948-7.117c-1.528-2.538-3.14-5.199-4.24-7.956c-0.589-1.475-0.018-2.47,0.961-3.62
			c1.118-1.314,2.413-2.488,3.643-3.694c1.05-1.029,2.089-2.098,2.862-3.356c0.799-1.3,1.468-2.347,2.809-3.16
			c2.228-1.352,4.673-2.278,6.855-3.724c1.891-1.253,3.628-2.731,5.1-4.46c0.928-1.089,1.758-2.254,2.579-3.424
			c0.795-1.133,1.523-2.481,2.972-2.805c2.726-0.609,5.81,0.802,8.454-0.235c1.364-0.535,1.207-2.062,1.199-3.282
			c-0.011-1.698-0.011-3.397-0.03-5.095c-0.031-2.739-0.151-5.51-0.639-8.211c-0.458-2.54-1.257-5.221-3.306-6.936
			c-1.217-1.018-2.709-1.716-4.09-2.479c-1.463-0.808-2.912-1.642-4.365-2.468c-2.537-1.441-5.264-3.104-8.156-3.691
			c-1.477-0.3-2.606,0.119-3.985,0.586c-1.324,0.449-2.638,0.4-4.008,0.21c-2.764-0.382-5.46-1.06-8.27-0.945
			c-2.562,0.104-5.078,0.706-7.515,1.477c-2.821,0.892-5.58,1.971-8.446,2.72c-2.705,0.707-5.469,1.203-8.231,1.627
			c-6.244,0.958-12.667,1.593-18.546,4.045c-2.54,1.06-5.097,2.357-7.872,2.634c-1.383,0.138-2.811,0.161-3.966,1.04
			c-1.127,0.858-1.885,2.197-2.517,3.439c-0.568,1.116-1.053,2.284-1.439,3.475c-0.161,0.498-0.449,1.172-0.234,1.692
			c0.232,0.561,0.977,0.799,1.501,0.983c2.638,0.923,5.668,0.822,8.191,2.055c2.602,1.271,3.067,4.719,4.047,7.15
			c1.313,3.26,3.577,5.335,6.765,6.75c5.487,2.436,11.486,3.388,17.199,5.126c2.643,0.804,5.194,1.841,7.715,2.964"/>
	</g>
	<g id="POLYLINE_1633_">
		
			<path fill="none" stroke="#E74C3C" stroke-width="2.75" stroke-linecap="round" stroke-linejoin="round" stroke-miterlimit="10" d="
			M431.741,336.857c-7.701,0.929-15.403,1.084-23.114,0.154c-7.495-0.904-15.001-2.522-22.079-5.177
			c-6.388-2.395-13.594-6.04-15.872-12.984c-1.892-5.77-0.448-13.19,2.63-18.316c2.109-3.511,5.703-5.579,8.52-8.44
			c1.412-1.434,2.713-2.972,4.096-4.433c0.568-0.6,1.168-1.312,1.889-1.733c1.043-0.608,1.051,0.446,1.641,1.056
			c0.539,0.557,1.409,0.665,2.145,0.665"/>
	</g>
	<g id="POLYLINE_1634_">
		
			<path fill="none" stroke="#E74C3C" stroke-width="2.75" stroke-linecap="round" stroke-linejoin="round" stroke-miterlimit="10" d="
			M499.911,277.832c-4.696,4.9-8.782,10.651-11.194,17.029c-0.47,1.243-1.254,2.943-1.033,4.305
			c0.141,0.866,1.102,0.896,1.821,1.079c0.842,0.215,1.232-0.036,1.577-0.833c0.612-1.414,1.03-2.902,1.667-4.312
			c0.675-1.494,1.436-2.948,2.263-4.363c2.004-3.427,4.404-6.611,7.111-9.512"/>
	</g>
	<g id="POLYLINE_1635_">
		
			<path fill="none" stroke="#E74C3C" stroke-width="2.75" stroke-linecap="round" stroke-linejoin="round" stroke-miterlimit="10" d="
			M483.911,262.68c-0.401-1.062,1.867-1.851,2.623-1.883c1.274-0.055,2.528,0.648,3.58,1.286c2.268,1.374,4.329,3.176,6.068,5.173
			c3.682,4.229,5.567,9.642,9.581,13.634c1.883,1.873,4.002,3.087,6.229,4.485c1.145,0.719,1.917,1.724,0.651,2.808
			c-1.083,0.927-2.17,0.033-3.089-0.673c-2.492-1.915-5.256-3.692-7.292-6.118c-1.831-2.182-3.022-4.852-4.551-7.243
			c-1.502-2.35-3.053-4.742-4.864-6.868c-0.947-1.111-2.017-2.153-3.3-2.868c-1.17-0.652-2.457-0.916-3.761-1.152
			C485.258,263.165,484.265,263.144,483.911,262.68z"/>
	</g>
	<g id="POLYLINE_1636_">
		
			<path fill="none" stroke="#E74C3C" stroke-width="2.75" stroke-linecap="round" stroke-linejoin="round" stroke-miterlimit="10" d="
			M519.07,287.449c0.517-0.372,1.106-0.635,1.543-1.111c0.436-0.474,0.723-1.076,0.978-1.661"/>
	</g>
	<g id="POLYLINE_1637_">
		
			<path fill="none" stroke="#E74C3C" stroke-width="2.75" stroke-linecap="round" stroke-linejoin="round" stroke-miterlimit="10" d="
			M506.922,281.975c1.697-1.808,4.621-0.889,6.669-0.297c2.586,0.748,5.036,2.178,5.432,5.09c0.415,3.057-2.248,5.642-4.336,7.509
			c-0.889,0.795-2.102,1.938-3.34,2.104c-1.339,0.18-2.376-1.376-3.076-2.295c-2.061-2.709-3.236-6.076-2.532-9.484"/>
	</g>
	<g id="POLYLINE_1638_">
		
			<path fill="none" stroke="#E74C3C" stroke-width="2.75" stroke-linecap="round" stroke-linejoin="round" stroke-miterlimit="10" d="
			M494.442,284.423c-1.438-2.337-1.56-5.466-0.611-8.035"/>
	</g>
	<g id="POLYLINE_1639_">
		
			<path fill="none" stroke="#E74C3C" stroke-width="2.75" stroke-linecap="round" stroke-linejoin="round" stroke-miterlimit="10" d="
			M504.051,252.341c0.345-1.013,1.176-1.595,2.272-1.484c1.118,0.113,1.595,1.168,1.764,2.161"/>
	</g>
	<g id="POLYLINE_1640_">
		
			<path fill="none" stroke="#E74C3C" stroke-width="2.75" stroke-linecap="round" stroke-linejoin="round" stroke-miterlimit="10" d="
			M484.195,262.885c-1.079,1.561-2.043,3.258-2.56,5.094c-0.565,2.007-0.454,4.073-0.51,6.135"/>
	</g>
	<g id="POLYLINE_1641_">
		
			<path fill="none" stroke="#E74C3C" stroke-width="2.75" stroke-linecap="round" stroke-linejoin="round" stroke-miterlimit="10" d="
			M484.316,276.567c5.157-0.567,10.196-0.33,15.28,0.707"/>
	</g>
	<g id="POLYLINE_1642_">
		
			<path fill="none" stroke="#E74C3C" stroke-width="2.75" stroke-linecap="round" stroke-linejoin="round" stroke-miterlimit="10" d="
			M503.401,278.198c6.856,1.909,13.358,4.76,20.039,7.174c1.23,0.444,2.62,1.001,3.952,0.962c0.477-0.014,1.522-0.167,1.406-0.849
			c-0.12-0.706-1.823-1.161-2.327-1.39c-0.566-0.256-1.539-0.592-1.669-1.296c-0.126-0.679,0.471-1.516,0.66-2.158
			c0.404-1.374,0.496-2.852,0.479-4.278c-0.071-5.919-2.448-11.465-6.421-15.81c-4.098-4.481-9.778-7.767-15.903-8.252
			c-6.27-0.496-11.864,2.348-16.192,6.716c-0.618,0.623-1.207,1.273-1.768,1.947"/>
	</g>
	<g id="POLYLINE_1643_">
		
			<line fill="none" stroke="#E74C3C" stroke-width="2.75" stroke-linecap="round" stroke-linejoin="round" stroke-miterlimit="10" x1="487.076" y1="298.109" x2="487.746" y2="298.147"/>
	</g>
	<g id="POLYLINE_1644_">
		
			<path fill="none" stroke="#E74C3C" stroke-width="2.75" stroke-linecap="round" stroke-linejoin="round" stroke-miterlimit="10" d="
			M491.105,299.357c1.773,1.168,3.307,2.624,4.934,3.977c0.69,0.575,1.538,1.284,2.493,1.262c1.067-0.024,1.948-0.938,2.776-1.501
			c0.386-0.262,0.779-0.496,1.231-0.62c0.424-0.117,0.939-0.067,1.331-0.277c0.857-0.46,0.553-1.776,1.73-1.816
			c0.886-0.03,1.808,0.502,2.527-0.254c0.683-0.718,0.665-2.029,1.621-2.504c0.856-0.425,1.958-0.016,2.872-0.239
			c1.357-0.331,1.42-1.401,1.484-2.609"/>
	</g>
	<g id="POLYLINE_1645_">
		
			<path fill="none" stroke="#E74C3C" stroke-width="2.75" stroke-linecap="round" stroke-linejoin="round" stroke-miterlimit="10" d="
			M458.624,358.896c2.109,2.902,3.652,6.151,5.826,9.016c0.981,1.293,2.047,2.593,3.327,3.603c1.714,1.353,3.039,0.995,4.959,0.253
			c1.617-0.625,3.291-1.082,4.924-1.659c1.514-0.534,3.666-1.198,4.403-2.766c0.867-1.845-0.574-4.308-1.694-5.724
			c-1.217-1.539-2.85-2.582-4.575-3.467c-1.883-0.966-3.848-1.769-5.662-2.865c-1.605-0.97-3.081-2.126-4.563-3.27"/>
	</g>
	<g id="POLYLINE_1646_">
		
			<path fill="none" stroke="#E74C3C" stroke-width="2.75" stroke-linecap="round" stroke-linejoin="round" stroke-miterlimit="10" d="
			M480.965,362.455c6.304-1.953,12.595-3.934,18.875-5.962c0.844-0.272,2.245-1.068,2.733,0.112
			c0.224,0.543,0.428,1.547,0.389,2.138c-0.035,0.52-0.339,0.728-0.769,0.9c-3.19,1.278-6.605,2.171-9.882,3.209
			c-3.33,1.055-6.673,2.073-10.009,3.109"/>
	</g>
	<g id="POLYLINE_1647_">
		
			<path fill="none" stroke="#E74C3C" stroke-width="2.75" stroke-linecap="round" stroke-linejoin="round" stroke-miterlimit="10" d="
			M466.698,370.54c-5.948,1.641-11.897,3.258-17.866,4.823c-5.711,1.498-11.447,2.892-17.187,4.275
			c-5.779,1.392-11.582,2.677-17.385,3.963c-5.709,1.266-11.444,2.42-17.177,3.571c-2.842,0.57-5.693,1.107-8.542,1.645
			c-1.2,0.227-2.402,0.439-3.603,0.657c-1.597,0.29-3.287,0.793-4.909,0.892c-0.512,0.031-0.879-0.121-1.092-0.62
			c-0.23-0.538-0.436-1.581-0.396-2.174c0.08-1.189,1.999-1.123,2.834-1.276c2.96-0.541,5.921-1.075,8.876-1.643
			c5.848-1.124,11.688-2.281,17.514-3.516c5.899-1.251,11.786-2.549,17.662-3.908c5.92-1.369,11.823-2.808,17.717-4.285
			c5.677-1.423,11.331-2.934,16.976-4.48c1.312-0.359,2.624-0.719,3.936-1.078"/>
	</g>
	<g id="POLYLINE_1648_">
		
			<path fill="none" stroke="#E74C3C" stroke-width="2.75" stroke-linecap="round" stroke-linejoin="round" stroke-miterlimit="10" d="
			M434.058,333.557c-4.169,5.999-8.302,12.011-12.379,18.072c-4.645,6.905-9.282,13.81-14.038,20.639
			c-1.11,1.594-2.236,3.179-3.326,4.786c-1.116,1.645-2.284,3.408-2.724,5.373"/>
	</g>
	<g id="POLYLINE_1649_">
		
			<path fill="none" stroke="#E74C3C" stroke-width="2.75" stroke-linecap="round" stroke-linejoin="round" stroke-miterlimit="10" d="
			M401.98,386.192c1.033,2.059,3.127,2.982,5.236,3.578c2.412,0.681,4.917,1.06,7.375,1.526c5.058,0.958,10.002,2.369,14.972,3.699
			c2.112,0.565,4.229,1.116,6.378,1.526c2.085,0.398,4.41,0.83,6.515,0.358c1.998-0.448,3.355-2.034,3.121-4.124
			c-0.283-2.541-2.392-4.282-4.493-5.43c-1.953-1.067-4.065-1.791-6.156-2.532c-2.101-0.745-4.53-1.376-6.266-2.839
			c-0.453-0.382-0.818-0.839-1.13-1.341"/>
	</g>
	<g id="POLYLINE_1650_">
		
			<path fill="none" stroke="#E74C3C" stroke-width="2.75" stroke-linecap="round" stroke-linejoin="round" stroke-miterlimit="10" d="
			M424.961,377.347c-1.53-1.748-0.107-4.529,1.912-5.125c1.122-0.332,2.113-0.408,3.037-1.204c0.717-0.618,1.312-1.389,1.929-2.106
			c3.61-4.199,7.297-8.344,10.762-12.666c1.692-2.11,3.318-4.271,4.825-6.518"/>
	</g>
	<g id="POLYLINE_1651_">
		
			<path fill="none" stroke="#E74C3C" stroke-width="2.75" stroke-linecap="round" stroke-linejoin="round" stroke-miterlimit="10" d="
			M372.629,322.705c-1.388,1.641-2.121,3.361-0.731,5.222c1.351,1.809,3.399,3.212,5.208,4.532c3.26,2.379,6.819,4.33,10.616,5.705
			c3.924,1.421,8.06,2.219,12.183,2.795c4.344,0.607,8.728,0.975,13.11,1.164c4.492,0.194,8.977,0.291,13.471,0.103
			c0.527-0.022,1.053-0.049,1.579-0.074"/>
	</g>
	<g id="POLYLINE_1652_">
		
			<path fill="none" stroke="#E74C3C" stroke-width="2.75" stroke-linecap="round" stroke-linejoin="round" stroke-miterlimit="10" d="
			M456.924,339.819c1.596-2.449,2.678-5.278,3.707-8c1.089-2.879,1.171-5.498-0.851-7.995c-1.338-1.652-3.136-2.996-5.071-3.869"/>
	</g>
	<g id="POLYLINE_1653_">
		
			<path fill="none" stroke="#E74C3C" stroke-width="2.75" stroke-linecap="round" stroke-linejoin="round" stroke-miterlimit="10" d="
			M443.566,389.048c2.197-4.536,4.148-9.16,5.977-13.856"/>
	</g>
	<g id="POLYLINE_1654_">
		
			<path fill="none" stroke="#E74C3C" stroke-width="2.75" stroke-linecap="round" stroke-linejoin="round" stroke-miterlimit="10" d="
			M451.118,370.897c1.562-4.489,2.977-9.014,4.224-13.601"/>
	</g>
	<g id="POLYLINE_1655_">
		
			<path fill="none" stroke="#E74C3C" stroke-width="2.75" stroke-linecap="round" stroke-linejoin="round" stroke-miterlimit="10" d="
			M411.698,390.75c-0.605,5.352-1.197,10.69-2.131,15.997c-0.75,4.262-1.634,8.495-2.499,12.734
			c-1.536,7.528-3.072,15.056-4.608,22.583c-0.844,4.134-1.719,8.266-2.441,12.424c-0.431,2.478-0.88,5.006-0.992,7.524
			c-0.055,1.233,0.318,1.908,1.483,2.38c1.121,0.454,2.281,0.816,3.407,1.262c1.324,0.525,2.644,1.061,3.979,1.557
			c1.052,0.391,2.252,0.918,3.386,0.951c1.284,0.038,1.157-1.497,1.354-2.446c0.268-1.289,0.597-2.567,0.926-3.842
			c1.328-5.158,2.781-10.286,4-15.472c1.297-5.517,2.429-11.062,3.55-16.617c1.126-5.581,2.181-11.175,3.247-16.768
			c0.928-4.872,1.801-9.755,2.637-14.644c0.221-1.293,0.442-2.585,0.663-3.878"/>
	</g>
	<g id="POLYLINE_1656_">
		
			<path fill="none" stroke="#E74C3C" stroke-width="2.75" stroke-linecap="round" stroke-linejoin="round" stroke-miterlimit="10" d="
			M373.49,329.592c-5.838-0.073-11.646-0.286-17.479-0.561c-3.151-0.149-6.302-0.339-9.454-0.447
			c-2.215-0.076-4.298,0.179-4.799,2.706c-0.489,2.471-0.061,5.188,0.227,7.66c0.341,2.929,0.734,5.852,1.033,8.785
			c0.591,5.794,0.905,11.614,1.117,17.434c0.21,5.764,0.317,11.531,0.393,17.298c0.041,3.041-0.008,6.098,0.166,9.135
			c0.133,2.311,0.328,5.607,2.902,6.511c2.265,0.796,5.118,0.057,7.374-0.439c3.464-0.76,6.919-1.567,10.378-2.35
			c5.326-1.206,10.616-2.564,15.938-3.784c2.529-0.58,5.152-1.106,7.76-0.97c2.899,0.152,5.31,1.411,7.319,3.505
			c3.815,3.977,5.762,9.306,8.997,13.705c0.934,1.27,1.993,2.489,3.309,3.375"/>
	</g>
	<g id="POLYLINE_1657_">
		
			<path fill="none" stroke="#E74C3C" stroke-width="2.75" stroke-linecap="round" stroke-linejoin="round" stroke-miterlimit="10" d="
			M424.444,412.637c3.256,0.026,5.695-0.878,7.754-3.465c1.741-2.187,3.018-4.732,4.382-7.16c0.937-1.667,1.873-3.334,2.81-5.002"/>
	</g>
	<g id="POLYLINE_1658_">
		
			<path fill="none" stroke="#E74C3C" stroke-width="2.75" stroke-linecap="round" stroke-linejoin="round" stroke-miterlimit="10" d="
			M677.215,376.729c0.317,1.122,0.447,2.364,0.162,3.508c-0.356,1.432-1.463,2.308-2.663,3.058c-1.09,0.681-2.217,1.314-3.345,1.93
			c-1,0.546-2.015,1.151-3.151,1.345"/>
	</g>
	<g id="POLYLINE_1659_">
		
			<path fill="none" stroke="#E74C3C" stroke-width="2.75" stroke-linecap="round" stroke-linejoin="round" stroke-miterlimit="10" d="
			M608.096,301.941c-0.912-3.921-0.798-7.847,0.752-11.589c1.547-3.734,3.808-7.238,6.037-10.596
			c1.187-1.789,2.452-3.934,4.141-5.295c0.951-0.766,1.315-0.162,1.36,0.851c0.04,0.904-0.072,1.816-0.165,2.713
			c-0.434,4.193-0.305,8.538-1.576,12.591c-1.127,3.595-2.901,7.055-5.101,10.109c-0.268,0.372-0.545,0.736-0.829,1.095"/>
	</g>
	<g id="POLYLINE_1660_">
		
			<path fill="none" stroke="#E74C3C" stroke-width="2.75" stroke-linecap="round" stroke-linejoin="round" stroke-miterlimit="10" d="
			M550.737,318.423c3.826-1.397,7.593-2.672,11.688-2.931c4.38-0.277,8.779,0.021,13.14-0.582c3.768-0.521,7.453-1.666,10.916-3.228
			c3.779-1.704,6.83-4.019,9.965-6.682c1.606-1.364,3.331-2.386,5.204-3.335c1.865-0.945,3.642-1.848,4.912-3.574
			c0.328-0.445,0.622-0.913,0.92-1.378"/>
	</g>
	<g id="POLYLINE_1661_">
		
			<path fill="none" stroke="#E74C3C" stroke-width="2.75" stroke-linecap="round" stroke-linejoin="round" stroke-miterlimit="10" d="
			M459.103,335.576c3.856,1.385,7.468,2.48,11.59,2.691c4.373,0.224,8.776-0.005,13.137-0.354c4.444-0.356,8.873-0.894,13.28-1.563
			c4.326-0.657,8.629-1.468,12.89-2.466c4.201-0.984,8.367-2.136,12.462-3.494c0.601-0.199,1.203-0.399,1.804-0.598"/>
	</g>
	<g id="POLYLINE_1662_">
		
			<path fill="none" stroke="#E74C3C" stroke-width="2.75" stroke-linecap="round" stroke-linejoin="round" stroke-miterlimit="10" d="
			M530.04,327.697c5.634-2.222,11.149-4.669,16.617-7.272c1.368-0.651,2.721-1.333,4.08-2.002"/>
	</g>
	<g id="POLYLINE_1663_">
		
			<path fill="none" stroke="#E74C3C" stroke-width="2.75" stroke-linecap="round" stroke-linejoin="round" stroke-miterlimit="10" d="
			M645.653,369.515c1.054-5.055-4.728-9.022-9.03-6.082c-4.513,3.085-2.491,10.362,2.963,10.685
			C642.442,374.286,645.023,372.294,645.653,369.515z"/>
	</g>
	<g id="POLYLINE_1664_">
		
			<path fill="none" stroke="#E74C3C" stroke-width="2.75" stroke-linecap="round" stroke-linejoin="round" stroke-miterlimit="10" d="
			M463.841,482.616c6.089-1.884,12.058-4.085,18-6.385c2.833-1.097,5.655-2.223,8.419-3.483c2.61-1.19,5.278-2.45,7.551-4.223
			c2.295-1.79,4.119-3.879,6.723-5.276c2.873-1.542,6.108-2.88,8.412-5.266c2.283-2.364,3.035-5.573,4.675-8.33
			c1.522-2.558,3.956-4.41,5.48-6.985c1.469-2.481,2.334-5.312,3.113-8.071c0.919-3.252,1.693-6.545,2.509-9.824
			c0.676-2.716,1.34-5.454,2.344-8.071c1.148-2.99,2.962-5.446,5.271-7.648c5.072-4.84,10.413-9.422,15.617-14.119
			c4.203-3.793,8.409-7.584,12.525-11.473c4.689-4.429,9.241-9.005,13.986-13.374c3.904-3.596,8.217-7.778,13.382-9.453
			c1.231-0.399,2.509-0.6,3.805-0.578"/>
	</g>
	<g id="POLYLINE_1665_">
		
			<path fill="none" stroke="#E74C3C" stroke-width="2.75" stroke-linecap="round" stroke-linejoin="round" stroke-miterlimit="10" d="
			M634.331,366.538c-4.542-1.243-9.085-2.477-13.611-3.775c-4.146-1.189-8.276-2.444-12.377-3.782
			c-4.568-1.491-9.116-3.037-13.626-4.696c-3.871-1.424-7.727-2.909-11.553-4.45c-3.459-1.394-6.902-2.83-10.352-4.244
			c-6.22-2.55-12.439-5.1-18.659-7.65c-4.67-1.915-9.34-3.829-14.009-5.744c-3.053-1.252-6.111-2.51-9.069-3.976
			c-1.717-0.851-3.425-1.765-4.97-2.904c-1.787-1.318-3.145-2.977-4.318-4.847c-1.106-1.763-2.143-3.583-3.468-5.197
			c-0.814-0.992-2.971-3.46-4.492-2.424c-1.715,1.169,0.005,4.09,0.604,5.403c0.799,1.75,1.756,3.43,2.906,4.975
			c2.377,3.194,5.539,5.728,8.86,7.881c3.629,2.353,7.527,4.281,11.483,6.017c3.622,1.59,7.305,3.041,10.968,4.534
			c5.953,2.426,11.906,4.852,17.859,7.277c3.562,1.452,7.137,2.871,10.713,4.29c4.029,1.599,8.078,3.149,12.154,4.625
			c4.192,1.519,8.414,2.962,12.66,4.32c4.525,1.447,9.068,2.834,13.626,4.173c4.125,1.212,8.255,2.421,12.407,3.538
			c2.4,0.646,4.799,1.291,7.199,1.937"/>
	</g>
	<g id="POLYLINE_1666_">
		
			<path fill="none" stroke="#E74C3C" stroke-width="2.75" stroke-linecap="round" stroke-linejoin="round" stroke-miterlimit="10" d="
			M518.969,316.111c0.89,0.48,1.775,0.999,2.704,1.402c0.266,0.115,0.935,0.484,1.243,0.295c0.326-0.199,0.144-0.73,0.085-1.023
			c-0.184-0.915-0.611-2.05,0.457-2.56c0.645-0.307,1.485-0.264,2.179-0.232c4.05,0.19,7.976,1.519,11.997,1.975
			c2.037,0.231,4.166,0.272,6.125-0.416c1.839-0.645,3.356-1.917,4.651-3.342c2.612-2.873,4.109-6.455,6.393-9.557
			c2.261-3.071,4.856-6.204,7.868-8.571c0.595-0.467,1.419-1.172,2.216-1.216c1.188-0.066,1.036,1.611,0.999,2.397
			c-0.047,1.019-0.186,2.033-0.277,3.048c-0.054,0.603-0.381,2.206,0.264,2.595c0.626,0.378,1.746-0.657,2.208-0.997
			c0.81-0.595,1.608-1.254,2.506-1.715c1.805-0.926,2.971,0.514,4.75,0.555c1.938,0.044,3.901-1.346,5.532-2.254
			c0.83-0.462,1.706-1.054,2.628-1.315c1.216-0.344,0.944,0.76,1.756,1.254c1.242,0.756,3.783-0.123,5.058-0.323
			c1.91-0.299,3.922-0.444,5.727-1.19c2.209-0.914,3.381-3.036,5.293-4.348c1.431-0.982,3.181-1.069,4.849-0.801
			c0.893,0.143,1.77,0.389,2.618,0.7"/>
	</g>
	<g id="POLYLINE_1667_">
		
			<path fill="none" stroke="#E74C3C" stroke-width="2.75" stroke-linecap="round" stroke-linejoin="round" stroke-miterlimit="10" d="
			M463.843,337.213c-0.501-1.974-0.562-3.782-0.267-5.791c0.118-0.804,0.266-1.604,0.455-2.395c0.187-0.78,0.373-1.971,0.963-2.564
			c0.85-0.856,1.402,1.169,1.598,1.743c0.345,1.009,0.624,2.039,0.935,3.059c0.13,0.427,0.258,0.859,0.424,1.274
			c0.171,0.428,0.383,1.043,0.755,0.461c0.492-0.768,0.503-2.052,0.729-2.923c0.175-0.675,0.464-2.18,1.325-2.316
			c0.804-0.126,1.641,0.968,2.11,1.484c0.484,0.532,1.594,2.292,2.419,2.294c0.768,0.001,0.929-1.799,1.082-2.327
			c0.219-0.756,0.524-1.726,1.387-1.935c0.903-0.219,1.992,0.38,2.749,0.781c1.118,0.592,2.167,1.312,3.231,1.995
			c0.491,0.315,1.753,1.394,2.349,1.103c0.922-0.451-0.969-4.739-1.186-5.445c-0.505-1.648-0.912-3.333-1.01-5.059
			c-0.072-1.268-0.053-5.499,2.263-4.499c1.943,0.839,3.456,3.289,4.782,4.85c0.331,0.39,1.355,1.856,1.556,0.933
			c0.152-0.697-0.637-2.498,0.507-2.681c0.924-0.148,2.2,0.88,2.896,1.335c1.039,0.678,2.042,1.415,3.059,2.125
			c0.406,0.284,1.772,1.512,2.251,1.301c0.528-0.233-0.494-2.042-0.666-2.427c-0.748-1.67-1.464-3.355-1.851-5.152
			c-0.313-1.457-0.932-4.599,0.71-5.508c1.433-0.793,3.558,1.027,4.629,1.819c1.868,1.382,3.615,2.923,5.408,4.399
			c0.641,0.527,3.51,3.25,4.278,2.173c0.431-0.604,0.069-2.07,0.011-2.725"/>
	</g>
	<g id="POLYLINE_1668_">
		
			<path fill="none" stroke="#E74C3C" stroke-width="2.75" stroke-linecap="round" stroke-linejoin="round" stroke-miterlimit="10" d="
			M602.164,356.933c2.488-6.805,4.036-13.997,4.583-21.225c0.522-6.901-0.212-13.699-3.298-19.96
			c-1.896-3.846-4.445-7.31-7.304-10.491"/>
	</g>
	<g id="POLYLINE_1669_">
		
			<path fill="none" stroke="#E74C3C" stroke-width="2.75" stroke-linecap="round" stroke-linejoin="round" stroke-miterlimit="10" d="
			M598.301,303.549c5.014,5.646,9.049,12.138,10.586,19.614c1.514,7.364,0.674,15.08-0.732,22.395
			c-0.802,4.171-1.933,8.265-3.391,12.254"/>
	</g>
	<g id="POLYLINE_1670_">
		
			<path fill="none" stroke="#E74C3C" stroke-width="2.75" stroke-linecap="round" stroke-linejoin="round" stroke-miterlimit="10" d="
			M614.676,299.045c1.323,0.547,2.628,1.124,3.923,1.734"/>
	</g>
	<g id="POLYLINE_1671_">
		
			<path fill="none" stroke="#E74C3C" stroke-width="2.75" stroke-linecap="round" stroke-linejoin="round" stroke-miterlimit="10" d="
			M621.76,302.413c5.801,3.271,10.95,7.386,15.307,12.433c4.704,5.45,8.694,11.514,12.86,17.372c2.01,2.827,4.17,5.539,6.396,8.199"
			/>
	</g>
	<g id="POLYLINE_1672_">
		
			<path fill="none" stroke="#E74C3C" stroke-width="2.75" stroke-linecap="round" stroke-linejoin="round" stroke-miterlimit="10" d="
			M658.914,343.422c3.157,3.565,6.455,7.046,9.392,10.799c1.381,1.764,2.674,3.62,4.213,5.255c1.634,1.735,3.563,2.813,5.598,3.991
			c2.126,1.231,3.841,2.687,3.753,5.346c-0.075,2.258-1.111,4.592-2.607,6.269c-2.856,3.203-8.139,3.134-10.781-0.389
			c-2.618-3.491-0.45-8.027,2.499-10.503c0.412-0.346,0.847-0.664,1.303-0.95"/>
	</g>
	<g id="POLYLINE_1673_">
		
			<path fill="none" stroke="#E74C3C" stroke-width="2.75" stroke-linecap="round" stroke-linejoin="round" stroke-miterlimit="10" d="
			M644.372,369.236c0.81-4.062-3.949-7.158-7.265-4.534c-3.252,2.574-1.468,7.981,2.678,8.112
			C641.964,372.883,643.893,371.35,644.372,369.236z"/>
	</g>
	<g id="POLYLINE_1674_">
		
			<path fill="none" stroke="#E74C3C" stroke-width="2.75" stroke-linecap="round" stroke-linejoin="round" stroke-miterlimit="10" d="
			M638.541,362.578c1.373-3.602,3.29-6.916,5.603-9.994c2.466-3.281,5.249-6.367,8.284-9.132c1.251-1.139,2.739-2.665,4.356-3.264
			c1.025-0.38,1.379,0.596,1.87,1.352c0.462,0.711,0.678,1.346,0.12,2.074c-0.681,0.889-1.857,1.487-2.758,2.116
			c-0.744,0.519-1.464,1.071-2.141,1.676c-1.447,1.293-2.725,2.773-3.933,4.287c-2.512,3.147-4.82,6.538-6.682,10.112
			c-0.218,0.418-0.426,0.841-0.631,1.266"/>
	</g>
	<g id="POLYLINE_1675_">
		
			<path fill="none" stroke="#E74C3C" stroke-width="2.75" stroke-linecap="round" stroke-linejoin="round" stroke-miterlimit="10" d="
			M642.09,364.269c-1.174,2.746-1.945,5.627-2.645,8.523"/>
	</g>
	<g id="POLYLINE_1676_">
		
			<path fill="none" stroke="#E74C3C" stroke-width="2.75" stroke-linecap="round" stroke-linejoin="round" stroke-miterlimit="10" d="
			M639.146,374.076c-0.303,1.383-0.606,2.766-0.909,4.148c-0.159,0.725-0.185,2.227-1.057,2.354
			c-0.852,0.124-2.174-0.034-2.428-0.98c-0.245-0.914,0.039-2.027,0.212-2.931c0.267-1.396,0.601-2.78,0.909-4.168"/>
	</g>
	<g id="POLYLINE_1677_">
		
			<path fill="none" stroke="#E74C3C" stroke-width="2.75" stroke-linecap="round" stroke-linejoin="round" stroke-miterlimit="10" d="
			M636.219,370.902c0.502-2.271,1.033-4.53,1.76-6.741"/>
	</g>
	<g id="POLYLINE_1678_">
		
			<path fill="none" stroke="#E74C3C" stroke-width="2.75" stroke-linecap="round" stroke-linejoin="round" stroke-miterlimit="10" d="
			M602.621,362.362c2.093,1.453,3.94,2.828,6.439,3.526c2.175,0.608,4.413,0.982,6.556,1.704c4.345,1.464,7.599,4.92,11.761,6.777
			c2.43,1.084,4.981,1.859,7.529,2.61"/>
	</g>
	<g id="POLYLINE_1679_">
		
			<path fill="none" stroke="#E74C3C" stroke-width="2.75" stroke-linecap="round" stroke-linejoin="round" stroke-miterlimit="10" d="
			M638.298,377.939c1.744,0.497,3.489,0.989,5.206,1.574"/>
	</g>
	<g id="POLYLINE_1680_">
		
			<path fill="none" stroke="#E74C3C" stroke-width="2.75" stroke-linecap="round" stroke-linejoin="round" stroke-miterlimit="10" d="
			M648.73,382.093c1.556,1.232,2.358,2.869,3.142,4.643c0.7,1.585,1.507,3.177,3.16,3.946c1.454,0.676,2.996,0.369,4.491,0.025
			c1.865-0.429,3.577-0.506,5.48-0.611c2.039-0.112,3.419-1.55,3.137-3.693c-0.224-1.703-1.534-3.121-2.692-4.286
			c-2.588-2.602-5.529-4.911-8.556-6.978c-3.454-2.359-7.2-4.457-11.237-5.625"/>
	</g>
	<g id="POLYLINE_1681_">
		
			<path fill="none" stroke="#E74C3C" stroke-width="2.75" stroke-linecap="round" stroke-linejoin="round" stroke-miterlimit="10" d="
			M643.863,372.61c1.866,3.196,3.815,6.419,5.036,9.933c0.32,0.92,0.406,1.48-0.549,1.946c-0.71,0.346-1.667,0.836-2.361,0.239
			c-1.2-1.033-1.758-3.377-2.321-4.787c-0.804-2.012-1.625-3.994-2.619-5.921"/>
	</g>
	<g id="POLYLINE_1682_">
		
			<line fill="none" stroke="#E74C3C" stroke-width="2.75" stroke-linecap="round" stroke-linejoin="round" stroke-miterlimit="10" x1="640.392" y1="372.794" x2="639.731" y2="371.614"/>
	</g>
	<g id="POLYLINE_1683_">
		
			<line fill="none" stroke="#E74C3C" stroke-width="2.75" stroke-linecap="round" stroke-linejoin="round" stroke-miterlimit="10" x1="640.856" y1="367.59" x2="643.177" y2="371.452"/>
	</g>
	<g id="POLYLINE_1684_">
		
			<line fill="none" stroke="#E74C3C" stroke-width="2.75" stroke-linecap="round" stroke-linejoin="round" stroke-miterlimit="10" x1="637.096" y1="367.155" x2="636.199" y2="365.666"/>
	</g>
	<g id="POLYLINE_1685_">
		
			<path fill="none" stroke="#E74C3C" stroke-width="2.75" stroke-linecap="round" stroke-linejoin="round" stroke-miterlimit="10" d="
			M604.311,311.59c2.442-1.822,4.834-3.652,7.186-5.592c2.003-1.652,4.004-3.368,6.227-4.724c0.946-0.577,2.187-1.35,3.317-0.837
			c0.405,0.184,1.42,0.731,1.343,1.275c-0.072,0.508-1.003,0.977-1.381,1.227c-2.347,1.557-4.618,3.188-6.869,4.882
			c-2.798,2.107-5.58,4.236-8.444,6.253"/>
	</g>
	<g id="POLYLINE_1686_">
		
			<path fill="none" stroke="#E74C3C" stroke-width="2.75" stroke-linecap="round" stroke-linejoin="round" stroke-miterlimit="10" d="
			M600.68,302.157c2.076,2.512,4.152,5.019,6.131,7.609"/>
	</g>
	<g id="POLYLINE_1687_">
		
			<path fill="none" stroke="#E74C3C" stroke-width="2.75" stroke-linecap="round" stroke-linejoin="round" stroke-miterlimit="10" d="
			M608.497,312.058c4.231,6.003,7.668,12.466,11.157,18.914c3.503,6.475,6.988,12.954,10.773,19.271
			c2.501,4.173,5.002,8.347,7.503,12.52"/>
	</g>
	<g id="POLYLINE_1688_">
		
			<path fill="none" stroke="#E74C3C" stroke-width="2.75" stroke-linecap="round" stroke-linejoin="round" stroke-miterlimit="10" d="
			M635.476,364.462c-3.992-6.748-7.683-13.656-11.428-20.543c-3.579-6.582-7.11-13.192-10.959-19.622
			c-2.165-3.618-4.377-7.19-6.944-10.539"/>
	</g>
	<g id="POLYLINE_1689_">
		
			<path fill="none" stroke="#E74C3C" stroke-width="2.75" stroke-linecap="round" stroke-linejoin="round" stroke-miterlimit="10" d="
			M333.16,548.385c-0.504-1.071,0.886-2.219,1.549-2.851c0.997-0.952,2.036-1.863,3.056-2.79c1.803-1.64,3.542-3.351,5.344-4.993
			c3.123-2.845,7.146-6.923,11.657-4.595c4.361,2.25,4.52,7.399,3.487,11.604c-0.48,1.956-1.27,5.184-3.331,6.043
			c-0.901,0.375-2.005,0.29-2.96,0.292c-1.173,0.002-2.345-0.035-3.516-0.088c-2.479-0.112-4.961-0.272-7.43-0.518
			c-2.138-0.213-4.431-0.407-6.455-1.18C334.045,549.111,333.472,548.864,333.16,548.385z"/>
	</g>
	<g id="POLYLINE_1690_">
		
			<path fill="none" stroke="#E74C3C" stroke-width="2.75" stroke-linecap="round" stroke-linejoin="round" stroke-miterlimit="10" d="
			M354.936,550.798c2.938,1.156,5.751,2.004,8.857,2.565c2.588,0.468,4.992,1.129,7.319,2.39c2.636,1.428,5.223,3.166,8.299,3.398
			c2.58,0.195,5.157-0.419,7.663-0.952c6.061-1.288,12.064-2.039,18.264-2.185c3.006-0.071,6.018-0.03,9.021,0.137
			c3.098,0.173,6.195,0.614,9.301,0.57c5.537-0.079,11.146-2.105,15.856-4.95c2.673-1.615,5.022-3.657,6.173-6.635
			c1.167-3.021,1.576-6.411,2.211-9.566c1.171-5.82,2.773-11.496,4.766-17.088c2.121-5.949,4.46-11.818,6.571-17.771
			c0.986-2.781,1.926-5.587,2.582-8.466c0.668-2.931,0.995-5.933,1.794-8.835c1.508-5.481,4.206-10.73,7.218-15.528
			c0.765-1.219,1.574-2.407,2.419-3.572"/>
	</g>
	<g id="POLYLINE_1691_">
		
			<path fill="none" stroke="#E74C3C" stroke-width="2.75" stroke-linecap="round" stroke-linejoin="round" stroke-miterlimit="10" d="
			M358.821,540.495c4.039,2.228,8.995,2.297,13.489,1.82c2.369-0.251,4.648-0.437,7.031-0.261c1.341,0.099,2.683,0.237,4.027,0.274
			c1.21,0.033,2.411-0.104,3.62-0.113c2.417-0.018,4.58,1.189,6.949,1.506c2.407,0.322,4.866,0.076,7.276-0.091
			c5.236-0.363,10.569-0.084,15.772-0.777c2.021-0.269,4.031-0.745,5.933-1.487c2.043-0.797,4.55-2.005,4.75-4.471
			c0.188-2.308-0.677-4.741-1.042-7c-0.405-2.508-0.684-5.035-0.853-7.57c-0.33-4.949-0.168-9.887,0.419-14.81
			c0.619-5.194,1.655-10.332,2.228-15.53c0.524-4.759,0.775-10.06-0.528-14.721c-0.756-2.706-2.312-4.199-4.964-4.976
			c-2.525-0.74-4.888-1.417-7.237-2.641c-1.169-0.609-2.323-1.248-3.483-1.876"/>
	</g>
	<g id="POLYLINE_1692_">
		
			<path fill="none" stroke="#E74C3C" stroke-width="2.75" stroke-linecap="round" stroke-linejoin="round" stroke-miterlimit="10" d="
			M469.674,480.734c6.006,5.378,12.321,10.484,19.041,14.949c3.528,2.344,7.221,4.373,10.927,6.417
			c3.199,1.763,6.498,3.479,9.3,5.85c3.095,2.618,5.639,6.678,5.352,10.881c-0.24,3.496-2.811,6.698-4.819,9.4
			c-4.782,6.433-10.193,12.508-15.904,18.128c-2.861,2.815-5.871,5.482-9.148,7.806c-2.719,1.928-6.269,4.691-9.762,4.683
			c-0.96-0.002-1.887-0.259-2.802-0.524"/>
	</g>
	<g id="POLYLINE_1693_">
		
			<path fill="none" stroke="#E74C3C" stroke-width="2.75" stroke-linecap="round" stroke-linejoin="round" stroke-miterlimit="10" d="
			M471.859,558.323c1.762,3.507,0.395,8.464-1.233,11.785c-0.504,1.028-1.111,2.102-1.99,2.859
			c-0.974,0.838-2.279,1.166-3.486,1.517c-2.401,0.698-4.827,1.34-7.285,1.803c-1.628,0.306-4.195,0.986-5.764,0.173
			c-1.967-1.018,0.121-3.961,0.828-5.18c2.466-4.257,4.443-8.776,6.918-13.024c0.541-0.929,1.131-2.028,2.137-2.518
			c0.836-0.407,1.854-0.379,2.76-0.319c1.937,0.128,4.427,0.493,6.032,1.657C471.232,557.406,471.593,557.827,471.859,558.323z"/>
	</g>
	<g id="POLYLINE_1694_">
		
			<path fill="none" stroke="#E74C3C" stroke-width="2.75" stroke-linecap="round" stroke-linejoin="round" stroke-miterlimit="10" d="
			M468.914,572.706c2.262-0.545,4.55-1.034,6.667-2.031c1.983-0.934,3.778-2.219,5.781-3.114c4.326-1.934,9.095-0.775,13.487-2.255
			c2.512-0.847,4.138-2.945,5.538-5.089c1.344-2.058,2.626-4.128,4.174-6.043c3.13-3.873,6.69-7.377,9.691-11.357
			c2.903-3.849,5.546-8.181,9.598-10.945c2.228-1.519,4.507-2.819,5.663-5.384c0.949-2.107,1.3-4.462,1.561-6.739
			c0.279-2.438,0.566-4.946,0.496-7.403c-0.069-2.425-0.804-4.591-2.069-6.651c-2.535-4.129-5.804-7.822-8.623-11.761
			c-3.033-4.239-5.992-8.527-8.794-12.923c-2.796-4.388-5.462-8.859-7.983-13.412c-0.566-1.022-1.117-2.052-1.676-3.078"/>
	</g>
	<g id="POLYLINE_1695_">
		
			<path fill="none" stroke="#E74C3C" stroke-width="2.75" stroke-linecap="round" stroke-linejoin="round" stroke-miterlimit="10" d="
			M476.882,299.54c-0.826,3.758-1.518,7.856-1.406,11.714c0.109,3.766,1.511,7.491,2.849,10.967
			c0.807,2.096,1.713,4.148,2.739,6.147"/>
	</g>
	<g id="POLYLINE_1696_">
		
			<path fill="none" stroke="#E74C3C" stroke-width="2.75" stroke-linecap="round" stroke-linejoin="round" stroke-miterlimit="10" d="
			M326.629,392.094c3.747,6.183,5.65,13.397,7.134,20.409c0.625,2.956,1.189,6.066,0.507,9.064c-0.77,3.388-3.16,6.115-5.452,8.606
			c-2.494,2.71-5.15,5.271-7.136,8.395c-1.916,3.015-3.486,6.204-5.723,9.01c-4.62,5.794-10.572,10.669-16.61,14.912
			c-3.031,2.13-6.182,4.087-9.467,5.803c-3.399,1.776-6.918,3.319-10.284,5.157c-2.912,1.59-5.676,3.462-7.822,6.024
			c-1.863,2.224-3.623,5.098-3.857,8.061c-0.318,4.035,4.341,5.619,7.217,7.258c3.033,1.729,5.957,3.657,8.903,5.527
			c3.549,2.253,7.072,4.556,10.664,6.74c3.283,1.996,6.705,3.795,9.869,5.978c2.884,1.99,5.299,4.415,7.025,7.479
			c1.555,2.761,2.659,5.763,3.643,8.767c2.252,6.877,5.479,13.887,4.504,21.277c-0.194,1.473-0.501,2.929-0.897,4.361"/>
	</g>
	<g id="POLYLINE_1697_">
		
			<path fill="none" stroke="#E74C3C" stroke-width="2.75" stroke-linecap="round" stroke-linejoin="round" stroke-miterlimit="10" d="
			M307.457,568.631c-1.697-0.244-2.321-3.51-2.785-4.818c-0.825-2.324-1.695-4.637-2.37-7.01c-1.186-4.168-1.753-8.44,1.294-11.955
			c0.622-0.717,1.419-1.775,2.487-1.574c0.933,0.176,1.806,0.94,2.525,1.518c1.86,1.495,3.594,3.166,5.344,4.786
			c1.487,1.377,3.037,2.773,4.27,4.391c0.517,0.678,1.053,1.462,0.863,2.354c-0.2,0.944-0.93,1.827-1.494,2.582
			c-1.368,1.83-2.909,3.536-4.44,5.231c-1.318,1.459-2.736,3.212-4.497,4.154C308.28,568.489,307.886,568.649,307.457,568.631z"/>
	</g>
	<g id="POLYLINE_1698_">
		
			<path fill="none" stroke="#E74C3C" stroke-width="2.75" stroke-linecap="round" stroke-linejoin="round" stroke-miterlimit="10" d="
			M305.975,543.253c0.736-3.232-0.44-6.097-3.004-8.125c-2.314-1.83-4.994-3.126-7.148-5.171c-2.133-2.025-3.784-4.482-5.727-6.678
			c-1.744-1.972-3.825-3.535-6.039-4.945c-5.956-3.792-11.919-7.573-17.919-11.294c-5.452-3.381-10.959-6.687-16.623-9.703
			c-2.799-1.491-5.657-2.82-8.562-4.088c-2.905-1.268-6.168-2.536-7.412-5.708c-1.005-2.562-1.086-5.899-0.334-8.546
			c0.853-2.999,3.758-5.004,6.17-6.741c5.217-3.757,10.864-7.141,15.272-11.89c2.164-2.332,3.951-4.963,5.405-7.789
			c1.215-2.362,2.342-4.904,2.853-7.526c0.286-1.467,0.312-2.764-1.086-3.612c-1.312-0.795-2.858-1.291-4.272-1.864
			c-2.785-1.129-5.518-2.366-8.114-3.887c-5.178-3.033-9.943-6.85-14.055-11.22c-3.862-4.104-7.228-8.815-9.241-14.109
			c-2.231-5.868-2.771-12.258-2.317-18.483c0.443-6.065,1.818-12.031,3.773-17.78c1.056-3.104,2.235-6.17,3.195-9.306
			c0.913-2.979,1.624-6.023,2.653-8.966c0.785-2.244,1.815-4.381,3.301-6.248c1.695-2.129,3.833-3.873,6.03-5.458
			c5.081-3.664,10.653-6.653,16.221-9.501c5.651-2.89,11.425-5.584,17.423-7.679c5.736-2.003,11.709-3.448,17.802-3.662
			c5.898-0.207,11.794,0.609,17.566,1.762c7.243,1.446,14.489,2.878,21.728,4.345c2.764,0.56,5.517,1.168,8.258,1.833"/>
	</g>
	<g id="POLYLINE_1699_">
		
			<path fill="none" stroke="#E74C3C" stroke-width="2.75" stroke-linecap="round" stroke-linejoin="round" stroke-miterlimit="10" d="
			M331.014,427.652c3.79,3.195,7.553,6.347,11.701,9.076c4.14,2.724,8.449,5.209,12.808,7.564c4.437,2.397,8.921,4.721,13.494,6.849
			c4.738,2.204,9.51,4.311,14.376,6.22c4.545,1.783,9.17,3.377,13.871,4.696c0.583,0.164,1.169,0.318,1.755,0.473"/>
	</g>
	<g id="POLYLINE_1700_">
		
			<path fill="none" stroke="#E74C3C" stroke-width="2.75" stroke-linecap="round" stroke-linejoin="round" stroke-miterlimit="10" d="
			M281.039,472.689c-2.042,5.455-4.289,10.838-6.824,16.083c-0.697,1.442-1.425,2.869-2.151,4.297"/>
	</g>
	<g id="POLYLINE_1701_">
		
			<path fill="none" stroke="#E74C3C" stroke-width="2.75" stroke-linecap="round" stroke-linejoin="round" stroke-miterlimit="10" d="
			M328.531,430.486c-0.106,2.139-0.194,4.277-0.626,6.382c-0.378,1.841-0.995,3.619-1.674,5.367
			c-1.66,4.271-3.676,8.396-5.342,12.665c-1.614,4.135-2.911,8.406-4.813,12.424c-1.897,4.007-4.64,7.491-6.927,11.269
			c-2.055,3.394-3.534,6.987-4.416,10.858c-0.913,4.003-1.553,8.385-1.112,12.493c0.098,0.916,0.273,1.846,0.845,2.593
			c0.695,0.907,1.733,1.582,2.665,2.225c1.748,1.206,3.587,2.287,5.441,3.322c4.475,2.498,9.026,4.862,13.547,7.276
			c3.661,1.955,7.307,3.924,10.891,6.018c3.841,2.244,7.613,4.607,11.347,7.023c1.038,0.672,2.075,1.343,3.113,2.015"/>
	</g>
	<g id="POLYLINE_1702_">
		
			<path fill="none" stroke="#E74C3C" stroke-width="2.75" stroke-linecap="round" stroke-linejoin="round" stroke-miterlimit="10" d="
			M315.236,529.247c6.069,2.968,11.95,6.52,17.299,10.654c1.501,1.161,2.937,2.396,4.372,3.637"/>
	</g>
	<g id="POLYLINE_1703_">
		
			<path fill="none" stroke="#E74C3C" stroke-width="2.75" stroke-linecap="round" stroke-linejoin="round" stroke-miterlimit="10" d="
			M353.657,569.066c-1.209-1.363-2.462-2.818-3.05-4.573c-0.537-1.604-0.614-4.274,1.065-5.271c1.522-0.904,3.957-0.18,5.575,0.049
			c2.326,0.329,4.671,0.606,6.98,1.043c1.587,0.3,4.711,0.677,5.234,2.531c0.216,0.765-0.042,1.629-0.229,2.375
			c-0.277,1.103-0.575,2.196-0.803,3.31c-0.47,2.289-0.816,4.604-1.326,6.885c-0.266,1.188-0.807,4.813-2.524,4.646
			c-1.002-0.098-1.917-1.284-2.529-1.957c-0.789-0.867-1.553-1.756-2.348-2.618c-1.638-1.775-3.339-3.492-4.985-5.26
			C354.36,569.841,354.009,569.453,353.657,569.066z"/>
	</g>
	<g id="POLYLINE_1704_">
		
			<path fill="none" stroke="#E74C3C" stroke-width="2.75" stroke-linecap="round" stroke-linejoin="round" stroke-miterlimit="10" d="
			M351.98,559.071c0.044-3.296-2.091-6.445-4.901-8.132"/>
	</g>
	<g id="POLYLINE_1705_">
		
			<path fill="none" stroke="#E74C3C" stroke-width="2.75" stroke-linecap="round" stroke-linejoin="round" stroke-miterlimit="10" d="
			M365.016,553.59c1.47,2.525,2.626,5.229,3.436,8.036"/>
	</g>
	<g id="POLYLINE_1706_">
		
			<path fill="none" stroke="#E74C3C" stroke-width="2.75" stroke-linecap="round" stroke-linejoin="round" stroke-miterlimit="10" d="
			M230.887,364.466c-1.969,0.981-4.076,1.666-6.003,2.732c-1.802,0.996-3.34,2.35-4.597,3.979
			c-2.729,3.539-4.423,7.927-6.055,12.047c-1.801,4.548-3.421,9.167-5.233,13.71c-0.817,2.05-1.65,4.129-2.758,6.043
			c-0.48,0.828-1.214,2.208-2.279,2.367c-1.065,0.16-1.899-0.975-2.489-1.69c-1.361-1.646-2.689-3.333-3.846-5.13
			c-1.062-1.651-2.272-4.442-4.419-4.889c-1.88-0.391-3.845,1.183-5.192,2.275c-1.675,1.358-3.208,2.899-4.693,4.46
			c-3.403,3.579-6.691,7.279-10.263,10.693c-3.028,2.894-6.274,5.59-9.895,7.715c-3.316,1.946-6.916,3.335-10.657,4.207
			c-4.077,0.95-8.329,1.336-12.504,0.981c-4.356-0.37-8.391-1.731-12.06-4.111c-1.931-1.252-3.748-3.193-5.969-3.898
			c-2.15-0.683-4.665-0.175-6.813,0.287c-4.525,0.974-8.896,2.574-13.252,4.11c-4.748,1.674-9.482,3.424-14.297,4.899
			c-2.048,0.627-4.5,1.554-6.672,1.389c-2.68-0.204,0.317-3.412,1.101-4.243c3.294-3.485,7.206-6.424,10.896-9.466
			c3.552-2.928,7.4-5.755,10.487-9.192c0.518-0.576,1.834-1.862,1.417-2.767c-0.373-0.81-1.878-0.748-2.609-0.756
			c-2.108-0.023-4.228,0.254-6.324,0.445c-4.984,0.454-9.953,0.885-14.958,1.015c-2.253,0.059-4.519,0.07-6.768-0.103
			c-1.029-0.079-5.485-0.322-4.08-2.18c1.256-1.661,3.98-2.639,5.837-3.442c2.084-0.901,4.213-1.694,6.362-2.428
			c4.758-1.624,9.606-2.953,14.461-4.253c5.007-1.34,10.046-2.566,15.069-3.845c4.177-1.065,8.743-1.852,12.734-3.538
			c0.494-0.209,0.874-0.405,0.183-0.549c-0.429-0.089-0.948-0.013-1.388-0.004c-1.326,0.025-2.653,0.061-3.979,0.067
			c-2.277,0.011-4.554-0.058-6.825-0.231c-4.799-0.366-9.591-1.074-14.305-2.042c-1.056-0.217-2.109-0.453-3.15-0.733
			c-0.413-0.111-2.821-0.694-2.243-1.196c0.524-0.456,2.267-0.27,2.921-0.292c1.009-0.034,2.019-0.045,3.029-0.055
			c5.04-0.051,10.091-0.04,15.121-0.399c4.6-0.328,9.072-1.187,13.528-2.352c4.724-1.235,9.357-2.413,14.268-2.512
			c4.676-0.094,9.346,0.323,14.019,0.421c4.422,0.092,8.84-0.057,13.165-1.057c2.121-0.49,4.226-1.125,6.232-1.974
			c0.583-0.247,1.17-0.505,1.714-0.829c0.393-0.235,1.078-0.582,0.425-0.858c-0.317-0.134-0.851-0.048-1.193-0.044
			c-0.769,0.009-1.538,0.031-2.306,0.046c-4.713,0.095-9.416-0.327-14.081-0.977c-2.238-0.312-4.491-0.654-6.685-1.204
			c-0.48-0.12-2.705-0.6-1.706-1.167c0.796-0.452,2.157-0.386,3.055-0.453c4.742-0.358,9.518-0.197,14.268-0.141
			c4.899,0.057,9.798,0.165,14.688-0.221c4.671-0.369,9.282-1.229,13.828-2.347c4.661-1.146,9.266-2.524,13.868-3.885
			c4.785-1.415,9.554-2.871,14.295-4.424c4.373-1.433,8.704-2.986,12.995-4.648"/>
	</g>
</g>
<g id="AG-OUTLINE">
	<g id="POLYLINE_25_">
		
			<path fill="none" stroke="#E74C3C" stroke-width="3.5" stroke-linecap="round" stroke-linejoin="round" stroke-miterlimit="10" d="
			M358.821,540.495c3.231,1.782,7.013,2.139,10.661,2.034c1.949-0.056,3.872-0.383,5.813-0.522c1.981-0.142,3.948,0.039,5.923,0.189
			c1.858,0.141,3.654,0.07,5.513,0.022c2.012-0.052,3.752,0.721,5.667,1.202c3.843,0.965,8.038,0.237,11.927-0.007
			c4.003-0.251,8.034-0.032,12.024-0.484c3.255-0.368,7.041-1.173,9.684-3.217c1.496-1.157,1.791-2.675,1.557-4.474
			c-0.252-1.935-0.732-3.837-1.033-5.765c-0.628-4.018-0.945-8.092-0.966-12.158c-0.042-8.076,1.622-15.933,2.656-23.905
			c0.52-4.01,0.671-8.044,0.316-12.075c-0.167-1.902-0.43-3.894-1.234-5.644c-0.873-1.901-2.411-2.817-4.349-3.389
			c-1.954-0.577-3.875-1.022-5.733-1.884c-0.876-0.406-1.73-0.857-2.579-1.315c-0.581-0.313-1.162-0.629-1.742-0.944
			c-0.146-0.079-0.495-0.362-0.664-0.36c-0.105,0.002-0.295,0.256-0.464,0.323c-0.702,0.28-1.859-0.217-2.514-0.427
			c-0.919-0.294-1.819-0.644-2.718-0.994c-1.893-0.736-3.78-1.469-5.686-2.171c-0.846-0.312-1.47-0.594-1.802-1.467
			c-0.201-0.53-0.209-0.546-0.838-0.739c-0.418-0.129-0.844-0.231-1.265-0.351c-1.986-0.565-3.962-1.168-5.918-1.83
			c-3.924-1.327-7.804-2.781-11.627-4.378c-7.744-3.234-15.338-6.845-22.723-10.834c-7.241-3.912-14.455-8.022-20.863-13.221
			c-1.633-1.325-3.224-2.704-4.832-4.06c-0.376,0.464-0.761,0.92-1.155,1.368c-0.364,0.413-0.956,0.878-1.227,1.356
			c-0.274,0.483-0.158,1.298-0.188,1.864c-0.03,0.561-0.065,1.121-0.116,1.681c-0.195,2.161-0.658,4.251-1.359,6.303
			c-1.654,4.841-3.999,9.421-5.885,14.171c-1.845,4.647-3.245,9.494-5.517,13.963c-2.243,4.41-5.472,8.226-7.764,12.611
			c-2.145,4.103-3.313,8.597-3.902,13.174c-0.296,2.3-0.48,4.649-0.348,6.968c0.057,0.993,0.133,2.083,0.614,2.973
			c0.604,1.117,1.825,1.886,2.841,2.595c3.843,2.682,8.082,4.793,12.208,6.997c4.859,2.595,9.763,5.12,14.553,7.841
			c4.502,2.557,8.917,5.25,13.279,8.039c1.287,0.823,2.565,1.66,3.848,2.49c0.849,0.549,1.865,0.352,2.842,0.676
			c2.138,0.708,3.833,2.406,4.573,4.526C358.675,538.29,358.815,539.394,358.821,540.495z"/>
	</g>
	<g id="POLYLINE_26_">
		
			<path fill="none" stroke="#E74C3C" stroke-width="3.5" stroke-linecap="round" stroke-linejoin="round" stroke-miterlimit="10" d="
			M230.887,364.466c-2.287,1.138-4.772,1.889-6.927,3.283c-2.077,1.344-3.682,3.226-4.966,5.321
			c-2.722,4.441-4.528,9.454-6.363,14.306c-1.143,3.023-2.25,6.062-3.437,9.068c-1.001,2.535-1.979,5.264-3.566,7.504
			c-0.692,0.978-1.617,1.863-2.8,1.08c-1.161-0.769-2.051-2.205-2.894-3.288c-1.573-2.02-2.768-4.301-4.336-6.312
			c-0.725-0.93-1.669-1.834-2.92-1.846c-1.108-0.01-2.181,0.584-3.083,1.168c-2.213,1.433-4.114,3.379-5.935,5.267
			c-3.963,4.108-7.71,8.432-11.926,12.289c-3.572,3.268-7.496,6.2-11.917,8.218c-4.109,1.876-8.582,2.982-13.075,3.395
			c-5.208,0.479-10.623,0.067-15.412-2.169c-2.536-1.184-4.737-2.832-6.987-4.47c-1.29-0.939-2.581-1.55-4.208-1.615
			c-1.246-0.05-2.5,0.115-3.724,0.333c-5.578,0.994-10.947,3.104-16.27,4.981c-5.305,1.871-10.628,4.004-16.123,5.256
			c-1.022,0.233-2.836,0.827-3.812,0.25c-1.123-0.665,0.363-2.383,0.865-2.994c1.672-2.038,3.726-3.765,5.723-5.471
			c4.419-3.775,9.054-7.3,13.402-11.159c0.966-0.858,1.922-1.734,2.813-2.671c0.607-0.638,2.304-2.168,1.832-3.215
			c-0.42-0.932-2.309-0.768-3.136-0.752c-1.061,0.02-2.12,0.107-3.177,0.203c-6.052,0.551-12.094,1.155-18.175,1.269
			c-2.538,0.048-5.119,0.072-7.64-0.27c-0.737-0.1-2.913-0.278-2.927-1.348c-0.014-1.152,2.158-2.145,2.975-2.591
			c4.705-2.571,9.981-4.205,15.099-5.73c5.184-1.544,10.423-2.876,15.663-4.211c6.148-1.567,12.359-2.978,18.442-4.787
			c0.638-0.19,1.274-0.385,1.902-0.606c0.316-0.111,1.639-0.472,1.14-0.785c-0.329-0.207-1.122-0.039-1.515-0.033
			c-0.956,0.016-1.913,0.038-2.869,0.055c-2.641,0.046-5.285-0.007-7.919-0.205c-5.55-0.416-11.155-1.22-16.569-2.524
			c-0.444-0.107-3.408-0.627-3.455-1.205c-0.051-0.614,3.073-0.546,3.527-0.558c2.88-0.075,5.761-0.057,8.641-0.103
			c5.602-0.09,11.222-0.264,16.739-1.319c5.517-1.055,10.846-3.058,16.448-3.662c5.659-0.61,11.408,0.019,17.074,0.184
			c5.208,0.151,10.389-0.074,15.438-1.454c0.785-0.214,7.516-2.317,6.989-3.16c-0.156-0.249-1.13-0.135-1.395-0.133
			c-0.876,0.008-1.753,0.035-2.629,0.053c-1.276,0.026-2.552,0.019-3.827-0.033c-5.537-0.228-11.287-0.801-16.672-2.153
			c-0.518-0.13-1.252-0.235-1.696-0.547c-0.689-0.484-0.001-0.649,0.541-0.769c1.228-0.272,2.525-0.318,3.777-0.386
			c2.472-0.134,4.953-0.154,7.429-0.125c6.157,0.072,12.341,0.318,18.494-0.037c5.592-0.323,11.08-1.331,16.506-2.696
			c5.689-1.432,11.32-3.143,16.936-4.833c5.367-1.614,10.727-3.292,16.004-5.182c1.487-0.533,2.974-1.063,4.452-1.619
			c1.229-0.462,2.497-0.782,3.461-1.684c1.88-1.761,3.99-3.282,6.139-4.695c4.819-3.169,9.919-5.891,15.059-8.495
			c4.988-2.527,10.088-4.872,15.35-6.773c5.131-1.853,10.458-3.302,15.903-3.816c5.543-0.524,11.134-0.038,16.609,0.884
			c6.241,1.051,12.434,2.419,18.638,3.659c5.066,1.013,10.136,1.994,15.157,3.212c0.453-2.108,2.013-2.629,3.982-2.64
			c1.677-0.01,3.362,0.133,5.035,0.212c4.935,0.233,9.877,0.565,14.816,0.684c2.627,0.063,5.255,0.091,7.882,0.124
			c-0.96-0.86-2.142-1.947-2.379-3.283c-0.251-1.41,0.759-2.238,1.322-3.367c0.174-0.349,0.134-0.315-0.099-0.669
			c-0.153-0.232-0.3-0.467-0.439-0.707c-0.278-0.479-0.529-0.974-0.749-1.482c-0.452-1.042-0.774-2.136-0.975-3.253
			c-0.724-4.028-0.065-8.357,1.264-12.193c0.942-2.721,2.311-5.228,4.39-7.251c1.858-1.807,4.003-3.289,5.837-5.126
			c1.911-1.913,3.54-4.166,5.606-5.916c0.334-0.283,0.895-0.819,1.367-0.584c0.46,0.229,0.57,1.044,0.991,1.382
			c0.399,0.32,0.995,0.467,1.498,0.488c0.815,0.034,0.775-0.49,1.021-1.166c0.772-2.12,1.822-4.675,3.627-6.117
			c1.81-1.446,4.591-0.974,6.725-1.657c2.427-0.777,4.704-1.961,7.101-2.822c2.526-0.907,5.162-1.475,7.803-1.925
			c5.472-0.933,11.025-1.502,16.422-2.837c4.823-1.193,9.373-3.413,14.312-4.14c2.259-0.333,4.505-0.27,6.756,0.093
			c2.432,0.392,5.208,1.265,7.641,0.48c1.307-0.422,2.407-0.925,3.813-0.706c1.378,0.215,2.704,0.783,3.962,1.365
			c2.627,1.216,5.113,2.724,7.628,4.15c1.058,0.6,2.127,1.179,3.191,1.767c0.056-2.077-0.056-4.158,0.522-6.179
			c0.521-1.819,1.477-3.502,2.548-5.05c-1.144-0.632,0.863-1.574,1.313-1.866c0.944-0.612,1.699-1.812,2.523-2.597
			c1.338-1.275,2.8-2.428,4.377-3.394c1.627-0.997,3.382-1.78,5.235-2.247c1.171-0.295,2.371-0.468,3.577-0.523
			c0.592-0.027,1.186-0.026,1.778,0.002c0.228,0.011,0.643,0.13,0.857,0.06c0.3-0.098,0.252-0.253,0.429-0.549
			c0.451-0.757,1.501-1.092,2.343-0.865c0.448,0.121,0.771,0.408,1.011,0.799c0.243,0.397,0.238,1.062,0.508,1.392
			c0.258,0.314,1.036,0.424,1.416,0.569c0.405,0.154,0.806,0.32,1.201,0.497c0.861,0.384,1.699,0.82,2.511,1.3
			c3.246,1.919,6.097,4.54,8.288,7.609c2.293,3.211,3.75,6.905,4.216,10.828c0.209,1.758,0.25,3.562-0.013,5.317
			c-0.093,0.624-0.228,1.241-0.437,1.836c-0.16,0.457-0.464,0.939-0.517,1.426c-0.117,1.092,1.436,1.516,2.23,1.865
			c0.584,0.257,2.646,1.082,1.313,1.786c-0.77,0.407-1.818,0.162-2.613-0.033c-0.984-0.242-1.94-0.592-2.889-0.944
			c-0.229-0.085-0.458-0.171-0.686-0.258c-0.514-0.195-0.457-0.27-0.735,0.134c-0.305,0.443-0.468,0.937-0.849,1.339
			c-0.374,0.395-0.961,0.559-1.315,0.941c-0.296,0.319-0.221,0.822-0.333,1.28c-0.301,1.236-1.074,2.31-1.89,3.259
			c-0.769,0.895-1.601,1.762-2.488,2.54c-0.342,0.3-0.387,0.322-0.472,0.739c-0.066,0.329-0.019,0.675-0.103,1.006
			c-0.115,0.455-0.345,0.792-0.76,1.026c-0.846,0.477-1.82,0.235-2.734,0.302c-1.186,0.087-1.451,0.966-1.911,1.911
			c-0.509,1.047-1.083,1.246-2.191,1.098c-0.395-0.053-0.912-0.201-1.289-0.005c-0.47,0.244-0.515,0.82-0.759,1.236
			c-0.503,0.858-1.725,0.632-2.541,1.079c-0.992,0.544-1.84,1.598-2.997,1.787c-1.905,0.312-3.94-2.291-5.242-3.367
			c-0.789-0.652-1.597-1.285-2.453-1.846c-0.493,1.189-1.093,0.998-2.164,0.723c-0.461-0.119-0.964-0.124-1.19-0.605
			c-0.176-0.374-0.07-0.945-0.005-1.328c-0.372-0.021-0.508-0.057-0.741,0.125c-0.207,0.162-0.304,0.441-0.553,0.601
			c-0.547,0.353-1.278,0.417-1.908,0.457c-1.301,0.083-2.614-0.049-3.912-0.117c-0.988-0.052-2.043-0.135-3.018,0.081
			c-0.721,0.16-0.797,0.503-0.936,1.199c-0.127,0.634-0.24,1.271-0.342,1.909c-0.733,4.611-1.294,9.113-0.068,13.678
			c0.653,2.433,1.514,4.823,2.454,7.158c0.464,1.151,0.955,2.291,1.487,3.412c0.237,0.499,0.446,1.173,0.793,1.603
			c0.285,0.352,0.837,0.584,1.233,0.838c0.675,0.433,1.344,0.875,2.025,1.299c0.4,0.249,1.034,0.754,1.535,0.776
			c1.067,0.046,0.229-1.97,0.05-2.529c-0.741-2.309-1.589-4.606-1.873-7.028c-0.159-1.356-0.424-6.526,2.146-5.469
			c1.178,0.484,2.118,1.699,2.93,2.632c0.825,0.948,1.588,1.954,2.445,2.873c0.347,0.372,0.821,1.01,0.996,0.292
			c0.156-0.639-0.233-1.382-0.073-2.048c0.338-1.408,2.294-0.036,2.969,0.381c1.25,0.77,2.432,1.654,3.634,2.494
			c0.446,0.311,0.887,0.636,1.357,0.911c0.452,0.264,1.053,0.635,0.952-0.153c-0.14-1.092-0.953-2.256-1.378-3.258
			c-0.43-1.014-0.818-2.048-1.096-3.115c-0.407-1.562-1.345-5.625,0.781-6.323c0.964-0.317,2.113,0.415,2.892,0.897
			c1.001,0.619,1.938,1.342,2.855,2.077c2.02,1.618,3.922,3.415,6.05,4.893c0.659,0.458,2.118,1.556,2.395,0.222
			c0.249-1.204-0.209-2.402-0.559-3.515c-0.269-0.856-0.214-2.246,0.762-2.661c0.942-0.4,2.109,0.418,2.789,0.984
			c0.945,0.787,1.572,2.08,2.636,2.654c0.537,0.29,1.073,0.584,1.62,0.855c0.394,0.195,1.214,0.735,1.685,0.61
			c0.847-0.225-0.257-2.356,0.086-3.069c0.428-0.888,1.864-0.814,2.687-0.782c4.997,0.193,9.788,2.227,14.817,2.126
			c5.37-0.107,8.866-4.179,11.369-8.512c2.491-4.312,5.386-8.236,8.953-11.733c0.8-0.785,4.676-4.715,5.173-2.051
			c0.202,1.084-1.046,7.138,0.38,7.151c0.95,0.009,2.235-1.35,2.942-1.86c0.863-0.622,1.881-1.405,3.009-1.295
			c1.097,0.107,1.995,0.894,3.12,0.933c1.232,0.043,2.457-0.59,3.522-1.134c1.122-0.574,2.2-1.229,3.315-1.817
			c0.487-0.257,1.035-0.584,1.586-0.678c0.74-0.127,0.778,0.326,1.113,0.86c0.552,0.88,1.745,0.697,2.642,0.589
			c1.23-0.148,2.448-0.398,3.673-0.58c2.395-0.356,4.907-0.624,6.821-2.254c2.088-1.778,3.453-4.02,6.443-4.092
			c1.14-0.028,2.282,0.181,3.373,0.499c0.225,0.065,0.537,0.244,0.765,0.245c0.39,0.002,0.332-0.126,0.516-0.545
			c0.244-0.554,0.507-1.1,0.781-1.639c1.14-2.242,2.454-4.402,3.796-6.528c1.387-2.196,2.806-4.458,4.552-6.392
			c0.723-0.801,2.009-2.008,2.175-0.215c0.106,1.15-0.088,2.342-0.206,3.485c-0.278,2.686-0.325,5.399-0.652,8.077
			c-0.262,2.145-0.866,4.213-1.667,6.216c-0.863,2.158-1.93,4.238-3.171,6.203c1.18,0.488,2.329,1.072,3.514,1.541
			c0.926,0.366,1.838-0.652,2.927-0.108c0.373,0.186,1.26,0.664,1.27,1.144c0.017,0.831-1.037,0.517,0.063,1.178
			c1.016,0.61,2.037,1.205,3.028,1.855c4.279,2.802,8.106,6.183,11.46,10.042c3.403,3.916,6.352,8.187,9.354,12.41
			c3.107,4.368,6.191,8.722,9.634,12.836c0.287,0.343,0.246,0.398,0.597,0.367c0.235-0.021,0.447-0.249,0.702-0.255
			c0.601-0.015,0.807,0.578,1.102,1.014c0.282,0.416,0.672,0.856,0.779,1.362c0.074,0.352-0.128,0.673-0.043,0.965
			c0.119,0.409,0.732,0.91,1.001,1.227c0.602,0.712,1.213,1.416,1.825,2.12c1.16,1.335,2.328,2.663,3.498,3.989
			c1.604,1.817,3.093,3.717,4.572,5.637c1.515,1.967,3.061,3.934,5.145,5.333c1.929,1.295,4.478,2.128,5.91,4.044
			c1.654,2.214,0.698,5.479-0.551,7.656c-0.653,1.139-1.513,2.183-2.599,2.932c-0.227,0.157-0.544,0.256-0.612,0.525
			c-0.058,0.231,0.17,0.75,0.205,1.004c0.073,0.53,0.097,1.071,0.047,1.604c-0.264,2.83-3.053,4.024-5.243,5.264
			c-1.01,0.572-2.049,1.216-3.145,1.614c-0.197,0.072-0.504,0.085-0.678,0.186c-0.378,0.219-0.237,0.462-0.31,0.936
			c-0.1,0.644-0.369,1.29-0.819,1.769c-0.8,0.85-1.973,0.869-3.064,0.879c-1.209,0.011-2.368,0.071-3.552,0.327
			c-1.983,0.429-4.082,1.157-5.99,0.071c-2.102-1.196-2.647-3.661-3.702-5.652c-0.556-1.049-1.264-1.967-2.197-2.71
			c0.173,0.135,0.372,1.21,0.349,1.477c-0.044,0.521-0.408,0.678-0.842,0.881c-1.044,0.489-1.945,0.84-2.685-0.238
			c-0.567-0.826-0.949-1.803-1.322-2.728c-0.227-0.563-0.375-1.438-0.75-1.907c-0.27-0.338-0.998-0.44-1.435-0.578
			c-1.266-0.398-2.543-0.755-3.819-1.119c-0.142,0.65-0.239,1.335-0.44,1.97c-0.202,0.637-0.486,0.686-1.118,0.651
			c-0.531-0.03-1.348-0.005-1.741-0.439c-0.353-0.388-0.325-1.046-0.302-1.532c0.016-0.343,0.062-0.686,0.113-1.025
			c0.059-0.396,0.133-0.431-0.105-0.644c-0.393-0.352-1.773-0.529-2.279-0.688c-1.325-0.416-2.638-0.87-3.926-1.389
			c-4.91-1.979-8.654-6.019-13.759-7.526c-2.568-0.758-5.307-1.075-7.777-2.143c-1.411-0.61-2.599-1.554-3.832-2.45
			c-1.112-0.808-2.645-1.052-3.941-1.48c-1.347-0.445-2.816-1.24-4.25-1.179c-1.146,0.049-2.271,0.282-3.353,0.658
			c-2.126,0.738-4.069,1.951-5.88,3.268c-4.141,3.012-7.839,6.616-11.525,10.155c-4.758,4.57-9.508,9.139-14.346,13.623
			c-4.211,3.903-8.498,7.724-12.76,11.571c-2.824,2.549-5.648,5.097-8.471,7.646c-1.468,1.325-2.962,2.632-4.26,4.129
			c-3.749,4.329-4.78,10.281-6.122,15.676c-1.311,5.268-2.308,11.094-5.092,15.828c-1.379,2.345-3.461,4.068-5.014,6.269
			c-1.631,2.314-2.322,5.145-3.895,7.499c-1.704,2.552-4.368,4.073-7.022,5.464c-1.382,0.724-2.801,1.405-4.123,2.238
			c-0.262,0.165-0.584,0.287-0.595,0.536c-0.011,0.264,0.465,0.854,0.59,1.084c0.343,0.63,0.681,1.263,1.029,1.89
			c2.798,5.049,5.757,10.016,8.906,14.854c3.262,5.012,6.68,9.924,10.24,14.728c1.691,2.281,3.482,4.492,5.121,6.812
			c1.508,2.134,2.805,4.4,3.111,7.041c0.319,2.761-0.071,5.659-0.373,8.407c-0.284,2.585-0.647,5.359-1.905,7.68
			c-1.356,2.501-3.963,3.689-6.154,5.321c-2.167,1.614-3.871,3.757-5.481,5.905c-1.774,2.367-3.478,4.787-5.373,7.06
			c-1.873,2.248-3.873,4.387-5.8,6.588c-1.759,2.009-3.37,4.105-4.81,6.353c-1.577,2.46-3.149,5.353-5.917,6.634
			c-2.338,1.083-5.093,1.027-7.609,1.177c-2.668,0.159-5.123,0.59-7.535,1.801c-2.276,1.143-4.349,2.616-6.773,3.455
			c-1.287,0.446-2.611,0.754-3.934,1.073c-1.237,0.298-2.159,1.197-3.407,1.611c-2.635,0.875-5.374,1.556-8.096,2.099
			c-1.149,0.229-2.312,0.429-3.482,0.516c-0.969,0.072-2.402,0.217-3.146-0.551c-1.483-1.531,1.375-5.099,2.126-6.422
			c1.485-2.615,2.8-5.324,4.166-8.002c0.566-1.111,1.141-2.219,1.761-3.301c0.607-1.06,1.273-2.345,2.48-2.803
			c1.921-0.729,4.611-0.054,6.492,0.517c0.657,0.199,1.323,0.433,1.902,0.812c0.547,0.358,0.817,1.016,1.303,1.355
			c0.46,0.321,1.391,0.399,1.937,0.47c0.805,0.104,1.607,0.047,2.392-0.152c2.438-0.617,4.687-2.107,6.753-3.492
			c4.656-3.123,8.789-6.905,12.687-10.92c3.915-4.033,7.664-8.249,11.181-12.633c1.764-2.199,3.498-4.441,5.015-6.82
			c1.25-1.958,2.426-4.094,2.43-6.479c0.008-5.884-4.531-10.157-9.153-13.044c-4.935-3.082-10.224-5.548-15.12-8.702
			c-4.693-3.023-9.158-6.401-13.483-9.929c-1.13-0.921-2.255-1.849-3.363-2.797c-0.582-0.498-1.162-0.999-1.738-1.504
			c-0.463-0.407-1.085-1.235-1.628-1.449c-0.552-0.218-1.45,0.295-2.053,0.496c-0.657,0.219-1.315,0.433-1.975,0.642
			c-0.509,0.162-1.617,0.261-1.958,0.608c-0.348,0.353-0.443,1.597-0.557,2.086c-0.624,2.667-0.952,5.393-1.585,8.059
			c-0.637,2.678-1.525,5.293-2.441,7.887c-1.925,5.45-4.049,10.828-6.029,16.258c-1.948,5.341-3.629,10.753-4.837,16.311
			c-0.626,2.882-1.132,5.79-1.777,8.668c-0.632,2.821-1.591,5.41-3.751,7.427c-3.704,3.459-9.079,5.642-13.962,6.771
			c-5.47,1.265-11.017,0.169-16.542-0.022c-5.634-0.195-11.313-0.064-16.913,0.622c-2.886,0.353-5.713,0.951-8.555,1.555
			c-2.312,0.491-4.671,1.031-7.051,0.938c-2.718-0.106-5.038-1.375-7.359-2.664c-2.412-1.339-4.749-2.363-7.467-2.923
			c0.738,1.266,1.389,2.583,1.971,3.927c0.531,1.227,0.857,2.525,1.362,3.754c0.247,0.601,0.91,0.863,1.108,1.554
			c0.16,0.557,0.049,1.165-0.066,1.72c-0.296,1.43-0.732,2.826-1.019,4.26c-0.582,2.907-0.93,5.913-1.828,8.749
			c-0.305,0.962-0.858,2.842-2.2,2.451c-1.426-0.416-2.592-2.236-3.537-3.293c-2.06-2.305-4.251-4.488-6.346-6.76
			c-1.667-1.808-3.613-3.814-4.08-6.325c-0.228-1.229-0.154-2.77,0.633-3.804c0.21-0.276,0.595-0.42,0.785-0.668
			c0.237-0.309,0.201-0.758,0.181-1.142c-0.031-0.575-0.151-1.125-0.362-1.661c-0.494-1.257-1.317-2.413-2.211-3.416
			c-0.479-0.538-1.001-1.044-1.574-1.482c-0.727-0.555-1.204-0.542-2.119-0.599c-2.964-0.185-5.96-0.373-8.88-0.942
			c-1.075-0.21-2.963-0.451-3.616-1.442c-0.775-1.176,1.212-2.689,1.937-3.353c0.58-0.531,1.168-1.053,1.753-1.579
			c-5.188-4.485-10.772-8.363-16.754-11.72c-1.614-0.906-3.254-1.758-4.917-2.572c0.983,3.007,1.965,6.015,2.948,9.022
			c0.681,2.086,1.349,4.186,1.629,6.37c0.282,2.2,0.174,4.438-0.168,6.625c-0.175,1.118-0.535,2.21-0.705,3.322
			c-0.08,0.525,0.234,0.959,0.179,1.517c-0.051,0.527-0.343,1.02-0.61,1.463c-1.346,2.234-3.232,4.195-4.963,6.129
			c-1.436,1.606-3.268,4.125-5.402,4.824c-2.195,0.72-2.991-3.346-3.491-4.755c-0.976-2.75-2.018-5.488-2.716-8.326
			c-0.568-2.311-1.013-4.843-0.302-7.173c0.365-1.194,1.007-2.281,1.803-3.237c0.446-0.536,0.983-1.21,1.594-1.566
			c0.22-0.128,0.47-0.125,0.679-0.226c0.314-0.152,0.318-0.214,0.389-0.629c0.472-2.787-0.613-5.326-2.72-7.143
			c-1.956-1.687-4.321-2.834-6.338-4.446c-3.91-3.125-6.233-7.746-10.234-10.791c-1.953-1.486-4.089-2.74-6.16-4.052
			c-3.171-2.009-6.343-4.017-9.514-6.026c-4.501-2.851-9.048-5.637-13.642-8.336c-4.6-2.703-9.275-5.357-14.155-7.525
			c-2.661-1.182-5.827-2.15-8.019-4.145c-2.011-1.83-2.541-4.647-2.554-7.257c-0.014-2.593,0.44-5.022,2.25-6.981
			c1.738-1.881,3.919-3.341,6.003-4.809c4.715-3.323,9.679-6.479,13.631-10.734c3.554-3.827,6.306-8.615,7.824-13.617
			c0.322-1.061,0.655-2.219,0.602-3.337c-0.064-1.351-1.067-1.932-2.192-2.454c-2.447-1.136-5.007-2.007-7.447-3.164
			c-4.77-2.262-9.177-5.249-13.181-8.681c-3.776-3.236-7.226-6.903-10.025-11.021c-2.928-4.309-4.951-9.09-5.873-14.226
			c-0.943-5.257-0.85-10.669-0.116-15.946c0.732-5.27,2.147-10.382,3.892-15.4C229.065,369.836,230.049,367.177,230.887,364.466z"/>
	</g>
</g>
</svg>
