<?xml version="1.0" encoding="utf-8"?>
<!-- Generator: Adobe Illustrator 23.0.6, SVG Export Plug-In . SVG Version: 6.00 Build 0)  -->
<!DOCTYPE svg PUBLIC "-//W3C//DTD SVG 1.1//EN" "http://www.w3.org/Graphics/SVG/1.1/DTD/svg11.dtd" [
	<!ENTITY ns_extend "http://ns.adobe.com/Extensibility/1.0/">
	<!ENTITY ns_ai "http://ns.adobe.com/AdobeIllustrator/10.0/">
	<!ENTITY ns_graphs "http://ns.adobe.com/Graphs/1.0/">
	<!ENTITY ns_vars "http://ns.adobe.com/Variables/1.0/">
	<!ENTITY ns_imrep "http://ns.adobe.com/ImageReplacement/1.0/">
	<!ENTITY ns_sfw "http://ns.adobe.com/SaveForWeb/1.0/">
	<!ENTITY ns_custom "http://ns.adobe.com/GenericCustomNamespace/1.0/">
	<!ENTITY ns_adobe_xpath "http://ns.adobe.com/XPath/1.0/">
]>
<svg version="1.1" xmlns:x="&ns_extend;" xmlns:i="&ns_ai;" xmlns:graph="&ns_graphs;"
	 xmlns="http://www.w3.org/2000/svg" xmlns:xlink="http://www.w3.org/1999/xlink" x="0px" y="0px" viewBox="0 0 750 750"
	 enable-background="new 0 0 750 750" xml:space="preserve">
<metadata>
	<sfw  xmlns="&ns_sfw;">
		<slices></slices>
		<sliceSourceBounds  bottomLeftOrigin="true" height="10750" width="2750" x="-2000" y="-3000"></sliceSourceBounds>
	</sfw>
</metadata>
<g id="FILL-BACKGROUND">
	<rect x="0" fill="#FFFFFF" width="750" height="750"/>
</g>
<g id="AG-DIAGRAM">
</g>
<g id="AG-DETAILS">
</g>
<g id="AG-DIGITAL">
	<g id="POLYLINE_330_">
		
			<path fill="none" stroke="#00B9D2" stroke-width="2.75" stroke-linecap="round" stroke-linejoin="round" stroke-miterlimit="10" d="
			M298.978,387.87c1.874-0.032,1.549-2.2,1.549-3.453c0-3.342,0-6.685,0-10.027c0-2.208-0.056-4.425,0-6.632
			c0.058-2.283,1.601-4.294,3.873-4.77c1.895-0.397,4.079-0.104,5.993-0.104c3.426,0,6.853,0,10.279,0
			c1.766,0,3.66-0.233,5.224,0.761c1.681,1.068,2.259,2.814,2.259,4.706c0,5.828,0,11.657,0,17.485c0,1.387,0.701,2.034,2.068,2.034
			c2.919,0.001,5.838,0,8.757,0.001c2.923,0,5.846,0,8.769,0c1.909,0,3.668,0.65,4.697,2.365c0.945,1.573,0.695,3.51,0.695,5.265
			c0,3.437,0,6.874,0,10.312c0,1.88,0.306,4.07-0.129,5.927c-0.521,2.223-2.508,3.702-4.751,3.759c-5.576,0.143-11.174,0-16.752,0
			c-1.295,0-3.183-0.295-3.354,1.5c-0.208,2.18-0.001,4.481-0.001,6.668c0,3.338,0,6.676,0,10.014c0,1.784,0.114,3.519-1.09,5.002
			c-1.261,1.553-2.984,1.801-4.844,1.801c-3.154,0-6.308,0-9.462,0c-2.436,0-4.878,0.05-7.313,0
			c-2.174-0.044-4.121-1.403-4.731-3.532c-0.501-1.75-0.188-3.906-0.188-5.689c0-3.484,0-6.969,0-10.453
			c0-1.115,0.002-2.229,0-3.344c-0.001-0.585-0.034-1.131-0.502-1.56c-0.466-0.427-1.02-0.407-1.603-0.407c-1.202,0-2.403,0-3.605,0
			c-3.52,0-7.039,0-10.559,0c-1.707,0-3.818,0.306-5.47-0.279c-2.016-0.714-3.212-2.605-3.248-4.697c-0.045-2.581,0-5.167,0-7.748
			c0-3.084,0-6.168,0-9.253c0-1.872,0.429-3.599,2.052-4.752c1.509-1.071,3.267-0.9,5.013-0.9c3.406,0,6.811,0,10.217,0
			C294.874,387.87,296.926,387.87,298.978,387.87z"/>
	</g>
	<g id="POLYLINE_331_">
		
			<path fill="none" stroke="#00B9D2" stroke-width="2.75" stroke-linecap="round" stroke-linejoin="round" stroke-miterlimit="10" d="
			M354.806,320.372c-0.01-4.599-2.962-8.81-7.297-10.362c-4.327-1.549-9.299-0.176-12.215,3.377
			c-2.917,3.554-3.298,8.694-0.936,12.639c2.361,3.944,7.074,6.036,11.584,5.142c4.494-0.891,8.04-4.599,8.737-9.126
			C354.763,321.489,354.805,320.931,354.806,320.372z"/>
	</g>
	<g id="POLYLINE_332_">
		
			<path fill="none" stroke="#00B9D2" stroke-width="2.75" stroke-linecap="round" stroke-linejoin="round" stroke-miterlimit="10" d="
			M283.041,320.023c-0.055-6.326-1.962-12.512-5.622-17.69c-3.633-5.14-8.841-9.085-14.772-11.191
			c-5.921-2.102-12.445-2.329-18.497-0.638c-6.027,1.685-11.472,5.231-15.443,10.069c-3.971,4.837-6.394,10.867-6.872,17.107
			c-0.482,6.293,1.022,12.673,4.265,18.088c3.242,5.415,8.156,9.753,13.931,12.299c5.727,2.524,12.186,3.235,18.325,2.018
			c6.138-1.217,11.838-4.342,16.167-8.86c4.348-4.538,7.228-10.394,8.171-16.607C282.924,323.095,283.027,321.563,283.041,320.023z"
			/>
	</g>
	<g id="POLYLINE_333_">
		
			<path fill="none" stroke="#00B9D2" stroke-width="2.75" stroke-linecap="round" stroke-linejoin="round" stroke-miterlimit="10" d="
			M271.005,320.023c-0.008-3.822-1.195-7.592-3.397-10.718c-2.197-3.12-5.351-5.519-8.943-6.805
			c-3.592-1.286-7.552-1.434-11.23-0.417c-3.68,1.018-7.004,3.177-9.427,6.128c-2.414,2.94-3.884,6.605-4.174,10.397
			c-0.292,3.819,0.623,7.691,2.591,10.976c1.96,3.273,4.927,5.902,8.415,7.449c3.477,1.542,7.4,1.987,11.133,1.254
			c3.747-0.735,7.224-2.637,9.865-5.394c2.631-2.748,4.375-6.29,4.952-10.05C270.826,322.61,271.085,320.023,271.005,320.023z"/>
	</g>
	<g id="POLYLINE_334_">
		
			<path fill="none" stroke="#00B9D2" stroke-width="2.75" stroke-linecap="round" stroke-linejoin="round" stroke-miterlimit="10" d="
			M464.753,395.022c-0.008-3.822-1.195-7.592-3.397-10.718c-2.197-3.12-5.351-5.519-8.943-6.805
			c-3.592-1.286-7.552-1.434-11.23-0.417c-3.68,1.018-7.004,3.177-9.427,6.128c-2.414,2.94-3.884,6.605-4.174,10.397
			c-0.292,3.819,0.623,7.691,2.591,10.976c1.96,3.273,4.927,5.902,8.415,7.449c3.477,1.542,7.4,1.987,11.133,1.254
			c3.747-0.735,7.224-2.637,9.865-5.394c2.631-2.748,4.375-6.29,4.952-10.05C464.68,396.909,464.751,395.966,464.753,395.022z"/>
	</g>
	<g id="POLYLINE_335_">
		
			<path fill="none" stroke="#00B9D2" stroke-width="2.75" stroke-linecap="round" stroke-linejoin="round" stroke-miterlimit="10" d="
			M476.788,395.022c-0.055-6.326-1.962-12.512-5.622-17.69c-3.633-5.14-8.841-9.085-14.772-11.191
			c-5.921-2.102-12.445-2.329-18.497-0.638c-6.027,1.685-11.472,5.231-15.443,10.069c-3.971,4.837-6.394,10.867-6.872,17.107
			c-0.482,6.293,1.022,12.673,4.265,18.088c3.242,5.415,8.156,9.753,13.931,12.299c5.727,2.524,12.186,3.235,18.325,2.018
			c6.138-1.217,11.838-4.342,16.167-8.86c4.348-4.538,7.228-10.394,8.171-16.607C476.672,398.094,476.775,396.562,476.788,395.022z"
			/>
	</g>
	<g id="POLYLINE_336_">
		
			<path fill="none" stroke="#00B9D2" stroke-width="2.75" stroke-linecap="round" stroke-linejoin="round" stroke-miterlimit="10" d="
			M491.415,320.372c-0.007-3.349-1.048-6.65-2.976-9.39c-1.923-2.734-4.689-4.835-7.835-5.961c-3.146-1.126-6.617-1.257-9.838-0.365
			c-3.224,0.893-6.135,2.783-8.258,5.368c-2.115,2.575-3.403,5.786-3.657,9.108c-0.256,3.345,0.546,6.737,2.269,9.616
			c1.717,2.867,4.316,5.171,7.372,6.525c3.047,1.351,6.482,1.741,9.753,1.099c3.283-0.644,6.329-2.31,8.642-4.726
			c2.305-2.408,3.831-5.51,4.338-8.804C491.352,322.025,491.414,321.199,491.415,320.372z"/>
	</g>
	<g id="POLYLINE_337_">
		
			<path fill="none" stroke="#00B9D2" stroke-width="2.75" stroke-linecap="round" stroke-linejoin="round" stroke-miterlimit="10" d="
			M526.442,320.372c0.007-3.349,1.048-6.65,2.976-9.39c1.923-2.734,4.689-4.835,7.835-5.961c3.146-1.126,6.617-1.257,9.838-0.365
			c3.224,0.893,6.135,2.783,8.258,5.368c2.115,2.575,3.403,5.786,3.656,9.108c0.256,3.345-0.546,6.737-2.269,9.616
			c-1.717,2.867-4.316,5.171-7.372,6.525c-3.047,1.351-6.482,1.741-9.753,1.099c-3.283-0.644-6.329-2.31-8.642-4.726
			c-2.305-2.408-3.831-5.51-4.338-8.804C526.505,322.025,526.444,321.199,526.442,320.372z"/>
	</g>
	<g id="POLYLINE_338_">
		
			<path fill="none" stroke="#00B9D2" stroke-width="2.75" stroke-linecap="round" stroke-linejoin="round" stroke-miterlimit="10" d="
			M508.929,302.859c-3.349-0.007-6.65-1.048-9.39-2.976c-2.734-1.923-4.835-4.689-5.961-7.835c-1.126-3.146-1.257-6.617-0.365-9.838
			c0.893-3.224,2.783-6.135,5.368-8.258c2.575-2.115,5.786-3.403,9.108-3.657c3.345-0.256,6.737,0.546,9.616,2.269
			c2.867,1.717,5.171,4.316,6.525,7.372c1.351,3.047,1.741,6.482,1.099,9.753c-0.644,3.283-2.31,6.329-4.726,8.642
			c-2.407,2.305-5.51,3.831-8.804,4.338C510.582,302.796,509.756,302.857,508.929,302.859z"/>
	</g>
	<g id="POLYLINE_339_">
		
			<path fill="none" stroke="#00B9D2" stroke-width="2.75" stroke-linecap="round" stroke-linejoin="round" stroke-miterlimit="10" d="
			M508.929,337.885c-3.349,0.007-6.65,1.048-9.39,2.976c-2.734,1.923-4.835,4.689-5.961,7.835c-1.126,3.146-1.257,6.617-0.365,9.838
			c0.893,3.224,2.783,6.135,5.368,8.258c2.575,2.115,5.786,3.403,9.108,3.657c3.345,0.256,6.737-0.546,9.616-2.269
			c2.867-1.717,5.171-4.316,6.525-7.372c1.351-3.047,1.741-6.482,1.099-9.753c-0.644-3.283-2.31-6.329-4.726-8.642
			c-2.407-2.305-5.51-3.831-8.804-4.338C510.582,337.948,509.756,337.887,508.929,337.885z"/>
	</g>
	<g id="POLYLINE_340_">
		
			<path fill="none" stroke="#00B9D2" stroke-width="2.75" stroke-linecap="round" stroke-linejoin="round" stroke-miterlimit="10" d="
			M403.854,320.372c0.01-4.599,2.962-8.81,7.297-10.362c4.327-1.549,9.299-0.176,12.215,3.377c2.917,3.554,3.298,8.694,0.936,12.639
			c-2.361,3.944-7.074,6.036-11.584,5.142c-4.494-0.891-8.04-4.599-8.737-9.126C403.897,321.489,403.855,320.931,403.854,320.372z"
			/>
	</g>
	<g id="POLYLINE_341_">
		
			<path fill="none" stroke="#00B9D2" stroke-width="2.75" stroke-linecap="round" stroke-linejoin="round" stroke-miterlimit="10" d="
			M379.33,472.962c4.943,0.011,9.885,0.021,14.828,0.032c9.27,0.02,18.539,0.039,27.809,0.059
			c5.258,0.011,10.517-0.007,15.774,0.034c5.929,0.046,11.868,0.109,17.794,0.324c6.168,0.224,12.424,0.386,18.496,1.588
			c5.622,1.113,10.753,3.36,15.038,7.22c1.783,1.606,3.4,3.377,5.029,5.136c2.992,3.234,5.984,6.467,8.976,9.701
			c3.703,4.002,7.421,7.994,11.046,12.068c3.6,4.046,7.201,8.089,10.757,12.174c5.796,6.656,11.592,13.313,17.388,19.969
			c3.638,4.178,7.268,8.35,11.001,12.442c3.853,4.224,7.891,8.676,12.651,11.898c1.414,0.957,2.948,1.788,4.622,2.176
			c2.117,0.491,4.407,0.299,6.54,0.031c5.681-0.714,11.033-2.992,15.932-5.886c4.975-2.939,9.622-6.531,13.591-10.737
			c4.079-4.323,7.244-9.346,9.543-14.819c2.34-5.57,3.895-11.46,5.068-17.377c1.21-6.106,1.985-12.298,2.405-18.507
			c0.413-6.095,0.47-12.214,0.179-18.317c-0.301-6.306-1.004-12.575-1.908-18.82c-0.901-6.218-2.108-12.387-3.402-18.533
			c-1.265-6.008-2.697-11.984-4.186-17.94c-1.589-6.358-3.273-12.696-5.003-19.018c-1.739-6.357-3.569-12.687-5.4-19.017
			c-1.867-6.454-3.881-12.868-5.831-19.297c-1.587-5.233-3.249-10.444-4.952-15.64c-1.977-6.032-3.957-12.064-6.056-18.055
			c-2.157-6.156-4.325-12.308-6.607-18.419c-2.33-6.24-4.715-12.457-7.205-18.635c-2.266-5.623-4.613-11.243-7.298-16.681
			c-2.314-4.686-5.034-8.842-9.116-12.156c-4.672-3.793-9.796-7.084-15.026-10.049c-5.451-3.09-11.08-5.826-16.849-8.271
			c-5.771-2.446-11.666-4.607-17.646-6.48c-5.913-1.853-11.942-3.401-18.056-4.423c-5.728-0.957-11.62-1.498-17.393-0.614
			c-5.817,0.891-11.272,3.204-17.132,3.939c-6.304,0.792-12.713,0.866-19.059,0.955c-4.878,0.069-9.759,0.031-14.637,0.044
			c-9.208,0.026-18.415,0.052-27.623,0.077c-4.706,0.013-9.413,0.04-14.12,0.039c-5.432-0.001-10.864-0.03-16.297-0.046
			c-9.179-0.026-18.359-0.051-27.538-0.077c-4.798-0.013-9.597,0.017-14.394-0.075c-6.22-0.119-12.518-0.189-18.68-1.13
			c-5.81-0.888-11.258-3.272-17.114-3.929c-5.824-0.654-11.755,0.043-17.49,1.099c-6.177,1.137-12.258,2.775-18.231,4.709
			c-5.955,1.928-11.823,4.146-17.564,6.643c-5.6,2.436-11.073,5.159-16.349,8.237c-5.151,3.005-10.285,6.28-14.811,10.181
			c-4.069,3.507-6.602,8.134-8.895,12.92c-2.598,5.422-4.895,11.002-7.123,16.585c-2.506,6.28-4.911,12.594-7.276,18.928
			c-2.216,5.935-4.312,11.919-6.385,17.905c-2.136,6.169-4.165,12.374-6.198,18.577c-1.702,5.192-3.322,10.411-4.907,15.64
			c-1.963,6.474-3.966,12.937-5.846,19.436c-1.741,6.019-3.484,12.038-5.111,18.089c-1.667,6.199-3.368,12.395-4.883,18.634
			c-1.574,6.478-3.115,12.955-4.489,19.478c-1.29,6.125-2.362,12.292-3.253,18.487c-0.871,6.054-1.435,12.166-1.669,18.277
			c-0.235,6.137-0.114,12.292,0.37,18.415c0.48,6.077,1.291,12.136,2.541,18.104c1.249,5.964,2.893,11.902,5.404,17.468
			c2.457,5.446,5.818,10.358,10.046,14.583c4.108,4.105,8.855,7.625,13.935,10.436c4.893,2.707,10.213,4.737,15.822,5.2
			c1.927,0.159,3.919,0.231,5.792-0.323c1.879-0.555,3.569-1.632,5.124-2.797c4.851-3.632,8.964-8.269,13.031-12.728
			c3.735-4.095,7.335-8.309,10.974-12.488c5.666-6.507,11.332-13.014,16.998-19.522c3.441-3.952,6.914-7.877,10.421-11.77
			c4.507-5.002,9.123-9.909,13.684-14.862c3.756-4.079,7.389-8.557,11.662-12.116c4.427-3.688,9.751-5.64,15.38-6.595
			c5.918-1.004,11.984-1.189,17.973-1.371c5.727-0.174,11.463-0.266,17.192-0.295c5.884-0.03,11.769-0.025,17.653-0.038
			c9.231-0.02,18.461-0.039,27.692-0.059C370.769,472.98,375.049,472.971,379.33,472.962z"/>
	</g>
	<g id="POLYLINE_342_">
		
			<path fill="none" stroke="#00B9D2" stroke-width="2.75" stroke-linecap="round" stroke-linejoin="round" stroke-miterlimit="10" d="
			M568.286,287.09c-3.406-6.066-8.027-11.112-14.012-14.708c-2.837-1.705-5.857-3.079-8.908-4.352
			c-4.04-1.685-8.096-3.331-12.143-4.996c-6.549-2.694-13.101-5.382-19.784-7.732c-6.78-2.384-13.706-4.425-20.718-6.005
			c-6.029-1.359-12.354-2.728-18.349-0.566c-6.546,2.361-11.799,7.167-16.683,11.958c-5.229,5.13-10.156,10.564-15.285,15.793
			c-2.607,2.657-5.243,5.291-7.984,7.811c-2.455,2.257-4.999,4.523-7.904,6.191c-5.623,3.229-12.406,3.21-18.706,3.292
			c-8.142,0.106-16.285,0.094-24.428,0.1c-7.155,0.005-14.311,0.022-21.466-0.01c-3.735-0.017-7.473-0.037-11.208-0.092
			c-3.436-0.05-6.915-0.108-10.321-0.598c-3.003-0.432-5.892-1.296-8.512-2.85c-2.926-1.736-5.506-4.051-7.988-6.359
			c-5.638-5.242-10.897-10.877-16.23-16.423c-4.775-4.966-9.492-10.143-15.065-14.236c-4.907-3.604-10.458-6.122-16.642-5.688
			c-7.06,0.495-14.13,2.544-20.895,4.521c-6.818,1.993-13.524,4.375-20.114,7.021c-7.228,2.901-14.437,5.863-21.626,8.86
			c-6.359,2.651-12.445,5.891-17.182,11.002c-2.259,2.437-4.135,5.174-5.759,8.066"/>
	</g>
	<g id="POLYLINE_343_">
		
			<path fill="none" stroke="#00B9D2" stroke-width="2.75" stroke-linecap="round" stroke-linejoin="round" stroke-miterlimit="10" d="
			M207.345,265.862c1.261-3.083,2.503-6.174,3.888-9.204c1.165-2.547,2.44-5.17,4.387-7.22c1.974-2.078,4.542-3.597,7.015-4.999
			c2.754-1.561,5.61-2.942,8.497-4.241c5.966-2.685,12.093-5.004,18.277-7.131c6.007-2.067,12.112-3.874,18.294-5.34
			c6.007-1.424,12.338-2.875,18.548-2.709c2.86,0.076,5.601,0.733,8.305,1.635c2.662,0.888,5.313,1.968,7.692,3.471
			c2.012,1.271,3.771,3.034,5.992,3.951c1.903,0.786,4.057,0.825,6.083,0.872c4.868,0.113,9.745,0.033,14.614,0.034
			c9.583,0.002,19.166,0.004,28.749,0.006c6.869,0.001,13.738,0.003,20.606,0.004c3.414,0.001,6.829-0.001,10.243-0.002
			c9.252-0.002,18.505-0.004,27.757-0.006c7.825-0.002,15.651-0.003,23.476-0.005c3.514-0.001,7.523,0.461,10.804-0.969
			c2.235-0.974,4.012-2.764,6.074-4.032c2.46-1.513,5.194-2.599,7.935-3.481c2.663-0.857,5.348-1.442,8.155-1.485
			c2.989-0.046,5.981,0.349,8.925,0.829c6.415,1.045,12.734,2.644,18.965,4.475c6.208,1.824,12.333,3.952,18.357,6.314
			c5.971,2.341,11.921,4.868,17.491,8.065c2.391,1.372,4.867,2.883,6.743,4.935c1.968,2.152,3.234,4.877,4.426,7.507
			c1.303,2.875,2.477,5.805,3.672,8.726"/>
	</g>
</g>
<g id="AG-OUTLINE">
	<g id="POLYLINE_344_">
		
			<path fill="none" stroke="#00B9D2" stroke-width="3.5" stroke-linecap="round" stroke-linejoin="round" stroke-miterlimit="10" d="
			M551.316,265.862c4.727,3.311,9.141,6.711,12.173,11.71c3.177,5.237,5.537,11.019,7.876,16.665
			c2.48,5.988,4.887,12.007,7.177,18.071c2.288,6.058,4.524,12.137,6.665,18.248c2.149,6.133,4.28,12.272,6.304,18.448
			c1.976,6.028,3.98,12.052,5.825,18.122c2.054,6.758,4.142,13.508,6.149,20.28c1.938,6.539,3.764,13.111,5.6,19.68
			c1.755,6.279,3.369,12.596,4.992,18.91c1.523,5.925,2.923,11.891,4.212,17.872c1.343,6.228,2.561,12.492,3.502,18.794
			c0.963,6.445,1.686,12.925,2.004,19.435c0.303,6.204,0.243,12.432-0.192,18.629c-0.441,6.285-1.231,12.55-2.481,18.726
			c-1.232,6.084-2.864,12.143-5.37,17.836c-2.484,5.643-5.933,10.741-10.308,15.09c-4.213,4.189-9.078,7.773-14.298,10.606
			c-5.062,2.747-10.57,4.729-16.36,5.031c-1.798,0.094-3.587,0.056-5.301-0.54c-2.143-0.745-4.038-2.113-5.783-3.53
			c-5.006-4.065-9.295-8.988-13.627-13.738c-3.952-4.333-7.722-8.843-11.573-13.266c-5.369-6.166-10.737-12.331-16.106-18.497
			c-3.142-3.608-6.303-7.212-9.544-10.731c-5.518-5.991-11.035-11.982-16.553-17.973c-3.524-3.826-6.945-7.922-11.406-10.697
			c-4.954-3.081-10.776-4.279-16.507-4.868c-6.185-0.636-12.426-0.803-18.64-0.921c-5.014-0.095-10.029-0.165-15.043-0.176
			c-8.018-0.017-16.037-0.034-24.055-0.051c-8.654-0.018-17.308-0.037-25.961-0.055c-2.974-0.006-5.947-0.01-8.921-0.004
			c-8.153,0.017-16.305,0.035-24.458,0.052c-8.533,0.018-17.065,0.036-25.598,0.055c-5.079,0.011-10.155,0.086-15.233,0.158
			c-5.992,0.085-12.004,0.237-17.977,0.734c-5.797,0.482-11.738,1.358-16.961,4.069c-5.05,2.621-8.761,6.926-12.564,11.036
			c-4.887,5.281-9.78,10.557-14.634,15.869c-3.85,4.213-7.676,8.454-11.424,12.758c-4.914,5.643-9.827,11.286-14.741,16.929
			c-4.357,5.004-8.663,10.057-13.073,15.014c-4.006,4.503-8.102,9.031-12.629,13.02c-3.109,2.74-6.538,5.337-10.835,5.395
			c-5.741,0.078-11.353-1.653-16.447-4.199c-5.322-2.66-10.288-6.141-14.639-10.195c-4.483-4.177-8.162-9.073-10.822-14.598
			c-2.696-5.598-4.456-11.614-5.783-17.669c-1.325-6.047-2.199-12.196-2.713-18.364c-0.532-6.38-0.681-12.791-0.443-19.188
			c0.233-6.244,0.819-12.487,1.715-18.67c0.935-6.459,2.091-12.875,3.435-19.261c1.341-6.368,2.834-12.704,4.412-19.017
			c1.592-6.369,3.277-12.717,5.01-19.048c1.791-6.54,3.676-13.053,5.559-19.567c1.91-6.603,3.979-13.163,5.973-19.741
			c1.698-5.601,3.511-11.168,5.334-16.73c2.03-6.194,4.112-12.371,6.267-18.523c2.258-6.446,4.591-12.862,6.98-19.261
			c2.148-5.754,4.378-11.483,6.729-17.157c2.455-5.928,4.869-11.935,7.968-17.564c1.282-2.328,2.732-4.577,4.559-6.519
			c2.1-2.234,4.612-4.075,7.095-5.856c0.494-0.354,1.21-0.677,1.553-1.156c0.513-0.716,0.759-1.856,1.092-2.669
			c0.575-1.406,1.155-2.81,1.761-4.202c1.178-2.706,2.37-5.494,4.101-7.903c1.636-2.277,3.911-3.9,6.27-5.363
			c2.58-1.6,5.292-2.99,8.034-4.289c5.872-2.782,11.934-5.136,18.045-7.334c5.892-2.12,11.895-3.978,17.96-5.532
			c6.039-1.548,12.25-2.971,18.485-3.389c5.787-0.388,11.333,1.098,16.529,3.607c2.475,1.195,4.503,2.912,6.789,4.403
			c1.315,0.858,2.701,1.387,4.257,1.604c3.173,0.442,6.481,0.271,9.683,0.271c6.069,0.001,12.138,0.001,18.207,0.002
			c8.96,0.001,17.921,0.002,26.881,0.003c9.764,0.001,19.529,0.002,29.293,0.003c8.481,0.001,16.962,0.002,25.443,0.003
			c5.1,0.001,10.201,0.001,15.301,0.002c3.966,0,7.993,0.21,11.938-0.222c4.429-0.485,7.285-3.927,11.113-5.852
			c5.126-2.579,10.763-4.175,16.524-3.852c6.204,0.348,12.387,1.769,18.396,3.282c6.089,1.533,12.103,3.4,18.021,5.496
			c6.121,2.168,12.18,4.542,18.064,7.292c2.729,1.276,5.426,2.645,8.005,4.205c2.371,1.434,4.742,3.022,6.446,5.244
			c1.653,2.155,2.796,4.684,3.898,7.15C549.114,260.417,550.204,263.144,551.316,265.862z"/>
	</g>
</g>
</svg>
