<?xml version="1.0" encoding="utf-8"?>
<!-- Generator: Adobe Illustrator 23.0.6, SVG Export Plug-In . SVG Version: 6.00 Build 0)  -->
<!DOCTYPE svg PUBLIC "-//W3C//DTD SVG 1.1//EN" "http://www.w3.org/Graphics/SVG/1.1/DTD/svg11.dtd" [
	<!ENTITY ns_extend "http://ns.adobe.com/Extensibility/1.0/">
	<!ENTITY ns_ai "http://ns.adobe.com/AdobeIllustrator/10.0/">
	<!ENTITY ns_graphs "http://ns.adobe.com/Graphs/1.0/">
	<!ENTITY ns_vars "http://ns.adobe.com/Variables/1.0/">
	<!ENTITY ns_imrep "http://ns.adobe.com/ImageReplacement/1.0/">
	<!ENTITY ns_sfw "http://ns.adobe.com/SaveForWeb/1.0/">
	<!ENTITY ns_custom "http://ns.adobe.com/GenericCustomNamespace/1.0/">
	<!ENTITY ns_adobe_xpath "http://ns.adobe.com/XPath/1.0/">
]>
<svg version="1.1" xmlns:x="&ns_extend;" xmlns:i="&ns_ai;" xmlns:graph="&ns_graphs;"
	 xmlns="http://www.w3.org/2000/svg" xmlns:xlink="http://www.w3.org/1999/xlink" x="0px" y="0px" viewBox="0 0 750 750"
	 enable-background="new 0 0 750 750" xml:space="preserve">
<metadata>
	<sfw  xmlns="&ns_sfw;">
		<slices></slices>
		<sliceSourceBounds  bottomLeftOrigin="true" height="6700" width="750" x="770" y="-4495"></sliceSourceBounds>
	</sfw>
</metadata>
<g id="FILL-BACKGROUND">
	<rect fill="#FFFFFF" width="750" height="750"/>
</g>
<g id="AG-DIAGRAM">
</g>
<g id="AG-FIXTURE">
	
		<path fill-rule="evenodd" clip-rule="evenodd" fill="none" stroke="#9B59B6" stroke-width="3.5" stroke-linecap="round" stroke-linejoin="round" stroke-miterlimit="10" d="
		M604.314,305.667c-43.544,0.449-71.653,24.604-71.842,62.921c0.141,43.579,28.397,69.373,71.842,69.374
		c44.294,0.543,71.602-23.014,71.842-68.805C675.954,330.258,649.535,306.104,604.314,305.667z"/>
	
		<path fill-rule="evenodd" clip-rule="evenodd" fill="none" stroke="#9B59B6" stroke-width="3.5" stroke-linecap="round" stroke-linejoin="round" stroke-miterlimit="10" d="
		M602.606,323.508c15.781-0.707,32.156,6.564,36.538,21.353c5.13,18.13,5.031,33.213-0.475,53.241
		c-10.304,31.402-55.857,31.304-68.33,0c-5.765-19.503-5.983-35.119,0.569-53.905C575.246,330.967,588.682,324.132,602.606,323.508z
		"/>
	
		<path id="path1882" fill-rule="evenodd" clip-rule="evenodd" fill="none" stroke="#9B59B6" stroke-width="3.5" stroke-linecap="round" stroke-linejoin="round" stroke-miterlimit="10" d="
		M89.734,357.648h14.642c0.047-29.895,21.125-31.181,36.334-30.911l-0.271,93.819h-25.217v14.1l80.803,0.271v-14.642l-25.488,0.271
		l0.271-93.548c14.946-0.218,36.523-0.743,36.334,30.64h15.185l-0.271-44.74l-132.865-0.271L89.734,357.648z"/>
	
		<path fill-rule="evenodd" clip-rule="evenodd" fill="none" stroke="#9B59B6" stroke-width="3.5" stroke-linecap="round" stroke-linejoin="round" stroke-miterlimit="10" d="
		M304.514,306.141c-43.544,0.449-71.653,24.604-71.842,62.921c0.141,43.579,28.397,69.373,71.842,69.374
		c44.294,0.543,71.602-23.109,71.842-68.9C376.154,330.638,349.735,306.578,304.514,306.141z"/>
	
		<path fill-rule="evenodd" clip-rule="evenodd" fill="none" stroke="#9B59B6" stroke-width="3.5" stroke-linecap="round" stroke-linejoin="round" stroke-miterlimit="10" d="
		M302.901,323.983c15.781-0.707,32.156,6.469,36.538,21.258c5.13,18.13,5.031,33.308-0.475,53.336
		c-10.304,31.402-55.857,31.304-68.33,0c-5.765-19.503-6.078-35.119,0.475-53.905C275.446,331.442,288.977,324.607,302.901,323.983z
		"/>
	
		<path id="path1923" fill-rule="evenodd" clip-rule="evenodd" fill="none" stroke="#9B59B6" stroke-width="3.5" stroke-linecap="round" stroke-linejoin="round" stroke-miterlimit="10" d="
		M389.521,357.205h14.642c0.047-29.895,21.125-31.181,36.334-30.911l-0.271,93.819h-25.217v14.1l80.803,0.271v-14.642l-25.488,0.271
		l0.271-93.548c14.946-0.218,36.523-0.743,36.334,30.64h15.185l-0.271-44.74l-132.865-0.271L389.521,357.205z"/>
</g>
<g id="AG-OUTLINE">
</g>
</svg>
