<?xml version="1.0" encoding="utf-8"?>
<!-- Generator: Adobe Illustrator 23.1.1, SVG Export Plug-In . SVG Version: 6.00 Build 0)  -->
<!DOCTYPE svg PUBLIC "-//W3C//DTD SVG 1.1//EN" "http://www.w3.org/Graphics/SVG/1.1/DTD/svg11.dtd" [
	<!ENTITY ns_extend "http://ns.adobe.com/Extensibility/1.0/">
	<!ENTITY ns_ai "http://ns.adobe.com/AdobeIllustrator/10.0/">
	<!ENTITY ns_graphs "http://ns.adobe.com/Graphs/1.0/">
	<!ENTITY ns_vars "http://ns.adobe.com/Variables/1.0/">
	<!ENTITY ns_imrep "http://ns.adobe.com/ImageReplacement/1.0/">
	<!ENTITY ns_sfw "http://ns.adobe.com/SaveForWeb/1.0/">
	<!ENTITY ns_custom "http://ns.adobe.com/GenericCustomNamespace/1.0/">
	<!ENTITY ns_adobe_xpath "http://ns.adobe.com/XPath/1.0/">
]>
<svg version="1.1" xmlns:x="&ns_extend;" xmlns:i="&ns_ai;" xmlns:graph="&ns_graphs;"
	 xmlns="http://www.w3.org/2000/svg" xmlns:xlink="http://www.w3.org/1999/xlink" x="0px" y="0px" viewBox="0 0 750 750"
	 enable-background="new 0 0 750 750" xml:space="preserve">
<metadata>
	<sfw  xmlns="&ns_sfw;">
		<slices></slices>
		<sliceSourceBounds  bottomLeftOrigin="true" height="2250.406" width="4590.604" x="-2759.604" y="-105.82"></sliceSourceBounds>
	</sfw>
</metadata>
<g id="FILL-BACKGROUND">
	<rect fill="#FFFFFF" width="750" height="750"/>
</g>
<g id="AG-DETAILS">
	<g id="POLYLINE_31_">
		<path fill="none" stroke="#FB8604" stroke-width="2" stroke-linecap="round" stroke-linejoin="round" stroke-miterlimit="10" d="
			M665.722,441.444c-17.805-8.959-31.208-26.001-49.568-34.749c-41.269-22.753-70.893-2.322-77.679,44.679"/>
	</g>
	<g id="POLYLINE_33_">
		<path fill="none" stroke="#FB8604" stroke-width="2" stroke-linecap="round" stroke-linejoin="round" stroke-miterlimit="10" d="
			M222.043,468.645c6.467-10.918,15.891-20.729,27.992-26.355c29.896-13.602,71.991-17.445,97.266-15.915
			c29.944,1.977,56.311,15.477,80.74,31.222"/>
	</g>
	<g id="POLYLINE_34_">
		<path fill="none" stroke="#FB8604" stroke-width="2" stroke-linecap="round" stroke-linejoin="round" stroke-miterlimit="10" d="
			M567.885,461.419c6.434-18.425,43.407-10.758,55.578-9.81c5.669,0.993,18.738,2.382,22.273,3.596
			c1.737,0.704,2.938,1.942,4.052,3.722"/>
	</g>
</g>
<g id="N-DIMENSIONS">
</g>
<g id="N-TEXT">
</g>
<g id="AG-PEOPLE">
</g>
<g id="AG-ANIMALS">
	<g id="POLYLINE_69_">
		
			<path fill="none" stroke="#FB8604" stroke-width="2.75" stroke-linecap="round" stroke-linejoin="round" stroke-miterlimit="10" d="
			M372.565,321.712c20.177-1.899,40.851-0.973,60.876,3.424"/>
	</g>
	<g id="POLYLINE_30_">
		
			<path fill="none" stroke="#FB8604" stroke-width="2.75" stroke-linecap="round" stroke-linejoin="round" stroke-miterlimit="10" d="
			M562.639,461.67c27.745-2.471,59.984,0.801,87.511-2.781c5.401-0.763,17.194,3.358,16.006-7.187"/>
	</g>
	<g id="POLYLINE_29_">
		
			<path fill="none" stroke="#FB8604" stroke-width="2.75" stroke-linecap="round" stroke-linejoin="round" stroke-miterlimit="10" d="
			M538.474,451.375c-16.989-4.677-28.473,12.878-39.562,24.413c-2.453,2.976-7.974,7.758-12.79,9.056
			c-3.837,1.666-5.247,1.211-7.38,3.802c-0.189,0.445-0.186,0.944-0.013,1.416c6.98,11.179,50.419,3.358,60.372-4.665
			c11.166-6.722,19-17.95,26.825-28.297c1.129-3.022,0.203-6.045-1.407-9.062"/>
	</g>
	<g id="POLYLINE_28_">
		
			<path fill="none" stroke="#FB8604" stroke-width="2.75" stroke-linecap="round" stroke-linejoin="round" stroke-miterlimit="10" d="
			M142.095,479.689c25.059,0.768,49.337-3.757,73.403-9.525c25.387-5.229,47.497-13.385,72.157-18.833
			c73.751-7.036,153.336,14.355,227.262,7.67"/>
	</g>
	<g id="POLYLINE_27_">
		
			<path fill="none" stroke="#FB8604" stroke-width="2.75" stroke-linecap="round" stroke-linejoin="round" stroke-miterlimit="10" d="
			M148.689,447.392c-31.213,4.538-54.725-7.289-56.48-1.66c0.203,4.688,2.447,10.006,5.814,13.773
			c1.134,1.261,3.883,1.318,4.878,2.908c-0.862,1.817-3.61,2.481-4.625,4.606c-2.338,9.827,5.752,9.543-9.654,31.162
			c-7.554,13.566,23.158,3.338,28.221-0.505c17.614-8.943,30.468-25.734,49.651-32.634"/>
	</g>
	<g id="POLYLINE_26_">
		
			<path fill="none" stroke="#FB8604" stroke-width="2.75" stroke-linecap="round" stroke-linejoin="round" stroke-miterlimit="10" d="
			M639.307,441.393c3.482,1.976,25.733,15.805,28.214,8.608c0.495-2.965-1.716-5.541-1.825-8.825
			c-0.124-9.611,1.419-17.085-5.809-26.644c-10.398-12.686-28.456-18.316-42.521-26.381
			c-50.219-36.047-100.345-47.597-164.382-59.169c-1.269-0.473-6.964-0.539-11.03-4.307c-8.501-9.486-12.38-24.507-19.059-35.43
			c-11.623-18.013-28.898-41.48-49.316-43.481c-12.885,0.081,12.366,32.258-1.826,64.646c-3.611,7.329-11.307,12.451-19.412,15.778
			c-101.042,33.471-147.44,84.765-218.819,131.039"/>
	</g>
</g>
<g id="AG-OUTLINE">
	<g id="POLYLINE_40_">
		
			<path fill="none" stroke="#FB8604" stroke-width="3.5" stroke-linecap="round" stroke-linejoin="round" stroke-miterlimit="10" d="
			M666.156,451.702c0.926-0.482,1.531-1.53,1.474-2.618c-5.68-16.253,5.24-25.764-15.877-42.219
			c-11.384-8.505-25.653-12.97-37.601-20.824c-28.602-20.324-59.126-33.296-94.272-42.806
			c-21.536-6.247-50.722-10.594-73.512-15.867c-1.714-0.57-3.328-1.584-4.837-3.112c-9.443-11.485-13.335-28.396-22.098-40.605
			c-11.07-15.203-27.784-37.571-46.742-37.766c-7.61,0.852,1.682,18.989,1.595,24.1c2.168,14.848,4.15,31.296-5.206,44.593
			c-9.386,12.738-38.787,18.323-52.329,24.671c-35.763,15.462-73.023,38.573-102.6,59.873
			c-17.468,12.63-49.021,36.969-64.966,47.928c-40.387,7.457-65.713-15.71-54.22,7.893c0.85,1.704,1.963,4.221,4.051,5.237
			c0.892,0.921,6.01,1.454,2.847,3.469c-9.132,5.879,0.684,9.359-6.034,23.19c-1.692,5.243-16.291,17.916-2.662,18.118
			c13.461-0.049,28.79-9.473,39.378-17.442c3.501-2.289,9.092-8.552,10.903-7.84c29.562,0.403,47.279-3.909,74.68-10.122
			c22.821-4.646,46.474-13.301,70.011-18.296c73.66-6.884,153.197,14.386,226.781,7.743c-15.596,13.876-14.624,21.071-35.109,28.481
			c-0.689,0.439-1.374,1.26-1.186,2.164c1.758,6.4,19.325,6.148,26.206,5.604c52-3.84,49.446-36.707,63.402-33.838
			c29.869-2.279,55.014,1.107,82.135-2.546C655.599,458.188,667.361,462.185,666.156,451.702z"/>
	</g>
</g>
</svg>
