<?xml version="1.0" encoding="utf-8"?>
<!-- Generator: Adobe Illustrator 23.1.1, SVG Export Plug-In . SVG Version: 6.00 Build 0)  -->
<!DOCTYPE svg PUBLIC "-//W3C//DTD SVG 1.1//EN" "http://www.w3.org/Graphics/SVG/1.1/DTD/svg11.dtd" [
	<!ENTITY ns_extend "http://ns.adobe.com/Extensibility/1.0/">
	<!ENTITY ns_ai "http://ns.adobe.com/AdobeIllustrator/10.0/">
	<!ENTITY ns_graphs "http://ns.adobe.com/Graphs/1.0/">
	<!ENTITY ns_vars "http://ns.adobe.com/Variables/1.0/">
	<!ENTITY ns_imrep "http://ns.adobe.com/ImageReplacement/1.0/">
	<!ENTITY ns_sfw "http://ns.adobe.com/SaveForWeb/1.0/">
	<!ENTITY ns_custom "http://ns.adobe.com/GenericCustomNamespace/1.0/">
	<!ENTITY ns_adobe_xpath "http://ns.adobe.com/XPath/1.0/">
]>
<svg version="1.1" xmlns:x="&ns_extend;" xmlns:i="&ns_ai;" xmlns:graph="&ns_graphs;"
	 xmlns="http://www.w3.org/2000/svg" xmlns:xlink="http://www.w3.org/1999/xlink" x="0px" y="0px" viewBox="0 0 750 750"
	 enable-background="new 0 0 750 750" xml:space="preserve">
<metadata>
	<sfw  xmlns="&ns_sfw;">
		<slices></slices>
		<sliceSourceBounds  bottomLeftOrigin="true" height="4820.468" width="8440.827" x="-6582.828" y="1000"></sliceSourceBounds>
	</sfw>
</metadata>
<g id="FILL-BACKGROUND">
	<rect fill="#FFFFFF" width="750" height="750"/>
</g>
<g id="N-DIMENSIONS">
</g>
<g id="N-TEXT">
</g>
<g id="AG-DIAGRAM">
</g>
<g id="AG-PEOPLE">
</g>
<g id="AG-DETAILS">
</g>
<g id="AG-ANIMALS">
	<g id="POLYLINE_224_">
		
			<path fill="none" stroke="#FB8604" stroke-width="2.75" stroke-linecap="round" stroke-linejoin="round" stroke-miterlimit="10" d="
			M507.298,436.127c47.333-0.064,97.502,0.461,143.353-12.442"/>
	</g>
	<g id="POLYLINE_225_">
		
			<path fill="none" stroke="#FB8604" stroke-width="2.75" stroke-linecap="round" stroke-linejoin="round" stroke-miterlimit="10" d="
			M150.679,427.416c13.18-3.663,23.56-1.744,30.4-1.394c12.693,0.953,40.315,3.028,50.378,3.784
			c34.491,3.366,53.661-0.05,74.031-2.433c24.382-3.14,46.141,3.487,68.441,6.118c11.248,1.462,23.898,0.654,35.301,0.776
			c16.038,0.627,33.455,1.848,49.385,1.802"/>
	</g>
	<g id="POLYLINE_226_">
		
			<path fill="none" stroke="#FB8604" stroke-width="2.75" stroke-linecap="round" stroke-linejoin="round" stroke-miterlimit="10" d="
			M176.537,408.475c-44.089-7.714-121.413,17.176-111.809,20.607c8.042,2.422,9.372,1.592,19.637,2.918
			c16.849,1.594,22.602,2.459,37.068,5.501c4.316,0.798,9.143,1.307,13.895-0.229c2.333-0.431,5.009-2.37,7.404-1.342
			c6.224,8.982,12.506,1.173,25.248,3.712c5.057,0.789,9.847,3.136,15.068,3.674c0.871,0.07,1.544-0.663,1.312-1.604
			c-1.174-4.893-1.222-10.5-2.222-15.613"/>
	</g>
	<g id="POLYLINE_227_">
		
			<path fill="none" stroke="#FB8604" stroke-width="2.75" stroke-linecap="round" stroke-linejoin="round" stroke-miterlimit="10" d="
			M573.432,426.015c14.055,7.828,47.118-3.554,60.163-3.849c18.299-1.126,13.442,5.739,37.205-2.087
			c10.498-3.63,11.078-16.375,11.884-26.448c1.966-18.54-1.21-46.336-25.639-46.337c-9.687-4.123-20.822-3.658-31.557-3.971
			c-27.461-3.162-53.798-1.046-74.662-2.615c-15.675-1.268-36.585-5.216-51.479-6.685c-57.912-6.001-102.871,11.02-142.51,1.392
			c-4.031-0.664-9.685-2.245-15.198-0.922c-5.232,1.477-8.381,6.419-13.159,9.357c-8.179,4.885-17.216,8.185-27.382,9.41
			c-1.25,0.201-3.692,0.574-5.537,1.418c-3.473,1.521-6.713,4.211-10.441,5.74c-3.815,1.566-8.812,2.043-12.974,3.245
			c-7.121,2.04-14.854,6.616-22.118,8.558c-13.028,3.014-12.27,2.107-24.219,6.891c-12.508,2.863-10.64,2.553-23.184,8.22
			c-14.793,2.837-28.367,9.604-39.675,19.826"/>
	</g>
	<g id="POLYLINE_228_">
		
			<path fill="none" stroke="#FB8604" stroke-width="2.75" stroke-linecap="round" stroke-linejoin="round" stroke-miterlimit="10" d="
			M473.452,415.913c-13.25,4.57-18.337,20.754-12.83,34.05c0.425,1.745-0.077,4.598,1.791,5.867
			c6.461,3.405,23.617-4.789,29.797-8.866c13.636-8.574,24.883-19.723,38.481-28.204c3.067-3.314-0.148-6.449-4.169-7.422"/>
	</g>
</g>
<g id="AG-OUTLINE">
	<g id="POLYLINE_36_">
		
			<path fill="none" stroke="#FB8604" stroke-width="3.5" stroke-linecap="round" stroke-linejoin="round" stroke-miterlimit="10" d="
			M650.651,423.685c4.782,1.073,10.313-0.766,15.249-2.295c4.494-1.11,8.499-1.759,11.807-6.584
			c4.091-5.454,4.348-14.456,5.045-21.97c1.195-14.074,0.344-32.511-12.575-42.255c-3.832-2.617-9.103-2.537-13.766-3.421
			c-4.136-1.1-7.918-3.186-12.743-3.273c-14.427-0.128-31.034-1.646-44.85-2.464c-14.1-0.451-31.139,0.519-44.706-0.465
			c-33.596-3.146-66.927-11-101.323-7.53c-17.768,0.965-48.848,4.797-67.197,5.075c-31.856,0.985-38.184-12.438-53.162,2.338
			c-6.975,5.958-16.743,9.518-25.958,11.602c-6.185,0.865-10.856,1.299-16.735,5.525c-6.058,4.454-15.327,4.216-22.425,7.364
			c-19.436,9-19.287,6.626-33.829,10.792c-12.123,5.524-16.724,3.46-29.074,10.579c-32.494,6.993-38.752,21.565-43.646,20.376
			c-37.075-1.972-102.844,17.771-96.396,21.789c5.602,2.271,10.226,1.885,14.268,2.541c21.093,1.932,28.592,3.135,44.678,6.399
			c3.779,0.574,7.385,0.786,11.445-0.378c2.41-0.381,5.42-2.554,7.972-1.504c6.209,8.954,12.55,1.226,25.069,3.68
			c5.329,0.805,9.856,3.145,15.248,3.706c0.786,0.062,1.44-0.507,1.328-1.339c-1.088-5.022-1.284-10.705-2.238-15.878
			c14.995,0.998,58.038,4.712,72.723,5.084c23.453,1.217,45.907-4.897,67.586-4.591c16.145,0.218,36.252,5.285,52.373,7.002
			c10.725,1.312,23.521,0.557,34.411,0.674c16.039,0.627,33.455,1.848,49.385,1.802c-0.88,4.513,0.301,9.067,1.962,13.677
			c0.512,1.926-0.141,5.335,2.342,6.359c12.55,3.442,36.133-12.967,44.379-19.977c0.006-0.007,3.181-0.014,7.764-0.047
			C570.828,435.846,603.469,435.976,650.651,423.685z"/>
	</g>
</g>
</svg>
