<?xml version="1.0" encoding="utf-8"?>
<!-- Generator: Adobe Illustrator 23.1.1, SVG Export Plug-In . SVG Version: 6.00 Build 0)  -->
<!DOCTYPE svg PUBLIC "-//W3C//DTD SVG 1.1//EN" "http://www.w3.org/Graphics/SVG/1.1/DTD/svg11.dtd" [
	<!ENTITY ns_extend "http://ns.adobe.com/Extensibility/1.0/">
	<!ENTITY ns_ai "http://ns.adobe.com/AdobeIllustrator/10.0/">
	<!ENTITY ns_graphs "http://ns.adobe.com/Graphs/1.0/">
	<!ENTITY ns_vars "http://ns.adobe.com/Variables/1.0/">
	<!ENTITY ns_imrep "http://ns.adobe.com/ImageReplacement/1.0/">
	<!ENTITY ns_sfw "http://ns.adobe.com/SaveForWeb/1.0/">
	<!ENTITY ns_custom "http://ns.adobe.com/GenericCustomNamespace/1.0/">
	<!ENTITY ns_adobe_xpath "http://ns.adobe.com/XPath/1.0/">
]>
<svg version="1.1" xmlns:x="&ns_extend;" xmlns:i="&ns_ai;" xmlns:graph="&ns_graphs;"
	 xmlns="http://www.w3.org/2000/svg" xmlns:xlink="http://www.w3.org/1999/xlink" x="0px" y="0px" viewBox="0 0 750 750"
	 enable-background="new 0 0 750 750" xml:space="preserve">
<metadata>
	<sfw  xmlns="&ns_sfw;">
		<slices></slices>
		<sliceSourceBounds  bottomLeftOrigin="true" height="4820.468" width="8440.827" x="-6582.828" y="1000"></sliceSourceBounds>
	</sfw>
</metadata>
<g id="FILL-BACKGROUND">
	<rect fill="#FFFFFF" width="750" height="750"/>
</g>
<g id="N-DIMENSIONS">
</g>
<g id="N-TEXT">
</g>
<g id="AG-DIAGRAM">
</g>
<g id="AG-PEOPLE">
</g>
<g id="AG-DETAILS">
</g>
<g id="AG-ANIMALS">
	<g id="POLYLINE_35_">
		
			<path fill="none" stroke="#FB8604" stroke-width="2.75" stroke-linecap="round" stroke-linejoin="round" stroke-miterlimit="10" d="
			M632.266,323.279c7.471,1.772,16.523,1.576,24.902,1.74c1.864-0.043,8.009,0.43,6.443-3.991
			c-7.845-21.499-20.434-17.657-41.291-19.018c-19.48-2.623-42.363,8.888-61.599,14.544c-14.946,4.114-32.05,4.934-47.771,8.973
			c-31.693,8.266-70.739,17.749-102.644,25.805c-23.082,6.054-45.987,21.742-66.337,32.981
			c-17.958,9.781-35.82,16.426-55.388,21.289c-34.921,9.122-72.859,6.139-106.535,3.181c-46.416-5.842-35.701-0.329-65.591-26.21
			c-0.86-0.661-2.06-1.414-3.282-1.336c-5.176,0.695-10.871,3.326-14.82,7.614c-1.756,1.064-3.939,0.742-6.064,1.677
			c-2.798,1.233-3.549,4.219-5.455,6.744c-1.4,4.283-15.009,6.213-13.502,11.761c3.841,8.325,15.126,12.805,26.353,13.893
			c11.034,1.06,21.735-2.116,32.789-0.977c9.428,0.7,16.164,11.332,22.548,17.504c43.923,45.817,83.865,53.957,131.692,59.476
			c80.483,8.881,147.646-25.974,217.95-51.24"/>
	</g>
	<g id="POLYLINE_34_">
		
			<path fill="none" stroke="#FB8604" stroke-width="2.75" stroke-linecap="round" stroke-linejoin="round" stroke-miterlimit="10" d="
			M635.666,337.581c11.294,2.329,23.048,3.204,34.762,2.941c1.079-0.068,2.3-0.34,3.301-0.963
			c8.089-4.754-3.168-14.105-10.255-15.946"/>
	</g>
	<g id="POLYLINE_33_">
		
			<path fill="none" stroke="#FB8604" stroke-width="2.75" stroke-linecap="round" stroke-linejoin="round" stroke-miterlimit="10" d="
			M561.014,416.262c40.497-29.979,24.202-32.782,70.05-46.703c9.964-3.369,13.318-15.286,23.914-18.117
			c8.407-2.731,13.91-1.84,18.209-11.593"/>
	</g>
	<g id="POLYLINE_14_">
		
			<path fill="none" stroke="#FB8604" stroke-width="2.75" stroke-linecap="round" stroke-linejoin="round" stroke-miterlimit="10" d="
			M533.526,401.905c-17.756,7.868-33.047,31.709-27.636,52.819c1.147,3.845,4.548,7.022,7.361,10.188
			c2.579,3.124,4.858,7.676,7.525,11.167c1.851,2.331,5.134,6.677,9.042,5.845c5.816-1.505,11.577-10.57,15.183-15.525
			c12.977-18.633,18.224-40.4,15.266-62.615"/>
	</g>
</g>
<g id="AG-OUTLINE">
	<g id="POLYLINE_203_">
		
			<path fill="none" stroke="#FB8604" stroke-width="3.5" stroke-linecap="round" stroke-linejoin="round" stroke-miterlimit="10" d="
			M673.187,339.848c9.129-4.629-2.508-14.376-9.713-16.235c1.952-3.683-6.707-16.6-13.06-19.042
			c-7.081-2.741-36.383-2.982-42.499-2.338c-16.237,1.981-33.898,11.018-49.506,14.941c-33.329,5.933-52.443,9.135-92.584,20.503
			c-17.379,5.05-53.298,10.825-75.065,20.756c-13.915,6.114-31.284,17.291-44.932,24.866
			c-54.04,29.579-99.193,30.377-143.227,27.152c-53.45-5.245-58.506-2.75-74.396-17.573c-13.04-10.306-10.901-15.64-25.449-7.758
			c-1.282,0.776-2.76,1.867-3.904,3.313c-1.877,1.732-4.808,0.991-7.165,2.391c-2.499,1.541-3.191,4.455-5.179,6.878
			c-2.944,4.198-9.426,4.764-12.86,8.728c-3.204,6.606,14.745,17.63,31.797,16.683c10.881,0.266,22.253-3.874,32.847,0.533
			c2.45,0.977,6.503,4.758,7.905,6.354c25.739,28.622,53.718,50.573,89.937,59.786c111.515,29.186,175.313-8.515,268.529-42.097
			c-0.218,6.059,3.298,12.314,8.044,16.588c4.876,5.31,7.236,14.014,14.465,17.461c7.609,3.38,21.961-21.391,24.859-27.366
			c5.171-10.21,8.052-20.398,8.803-32.278c0.347-1.733-0.345-6.123,0.751-6.26c8.949-6.691,13.374-9.778,19.496-16.075
			c35.643-39.622,39.958-13.968,66.815-44.636C655.212,348.648,668.974,351.976,673.187,339.848z"/>
	</g>
</g>
</svg>
