<?xml version="1.0" encoding="utf-8"?>
<!-- Generator: Adobe Illustrator 23.1.1, SVG Export Plug-In . SVG Version: 6.00 Build 0)  -->
<!DOCTYPE svg PUBLIC "-//W3C//DTD SVG 1.1//EN" "http://www.w3.org/Graphics/SVG/1.1/DTD/svg11.dtd" [
	<!ENTITY ns_extend "http://ns.adobe.com/Extensibility/1.0/">
	<!ENTITY ns_ai "http://ns.adobe.com/AdobeIllustrator/10.0/">
	<!ENTITY ns_graphs "http://ns.adobe.com/Graphs/1.0/">
	<!ENTITY ns_vars "http://ns.adobe.com/Variables/1.0/">
	<!ENTITY ns_imrep "http://ns.adobe.com/ImageReplacement/1.0/">
	<!ENTITY ns_sfw "http://ns.adobe.com/SaveForWeb/1.0/">
	<!ENTITY ns_custom "http://ns.adobe.com/GenericCustomNamespace/1.0/">
	<!ENTITY ns_adobe_xpath "http://ns.adobe.com/XPath/1.0/">
]>
<svg version="1.1" xmlns:x="&ns_extend;" xmlns:i="&ns_ai;" xmlns:graph="&ns_graphs;"
	 xmlns="http://www.w3.org/2000/svg" xmlns:xlink="http://www.w3.org/1999/xlink" x="0px" y="0px" viewBox="0 0 750 750"
	 enable-background="new 0 0 750 750" xml:space="preserve">
<metadata>
	<sfw  xmlns="&ns_sfw;">
		<slices></slices>
		<sliceSourceBounds  bottomLeftOrigin="true" height="4820.468" width="8440.827" x="-6582.828" y="1000"></sliceSourceBounds>
	</sfw>
</metadata>
<g id="FILL-BACKGROUND">
	<rect fill="#FFFFFF" width="750" height="750"/>
</g>
<g id="N-DIMENSIONS">
</g>
<g id="N-TEXT">
</g>
<g id="AG-DIAGRAM">
</g>
<g id="AG-PEOPLE">
</g>
<g id="AG-DETAILS">
</g>
<g id="AG-ANIMALS">
	<g id="POLYLINE_257_">
		
			<path fill="none" stroke="#FB8604" stroke-width="2.75" stroke-linecap="round" stroke-linejoin="round" stroke-miterlimit="10" d="
			M506.491,460.648c-15.215,4.495-30.183,14.163-37.069,29.352c-2.338,5.336-3.91,12.863,0.702,17.922
			c15.664,13.958,56.095-4.283,68.462-18.26c10.517-11.149,15.308-26.099,25.889-37.355c1.463-1.449,1.671-3.587-0.491-5.059"/>
	</g>
	<g id="POLYLINE_258_">
		
			<path fill="none" stroke="#FB8604" stroke-width="2.75" stroke-linecap="round" stroke-linejoin="round" stroke-miterlimit="10" d="
			M556.492,462.785c28.485-4.614,34.915-6.54,72.659-14.458c9.437-2.459,52.645-8.694,45.523-18.676
			c-9.003-1.883-18.908-2.823-27.938-5.248"/>
	</g>
	<g id="POLYLINE_259_">
		
			<path fill="none" stroke="#FB8604" stroke-width="2.75" stroke-linecap="round" stroke-linejoin="round" stroke-miterlimit="10" d="
			M623.267,431.065c35.012-14.022,45.13-2.383,55.947-9.957c2.709-5.71-3.234-9.271-7.398-12.655
			c-4.495-5.208-7.166-11.828-13.573-15.932c-18.353-11.754-29.239-12.847-45.108-18.579c-28.815-9.25-48.674-15.8-59.266-19.017
			c-23.97-7.453-53.939-12.559-77.42-20.78c-10.181-3.321-17.628-10.09-22.655-20.617c-5.55-11.494-11.832-24.427-15.441-36.553
			c-7.21-23.143-5.192-49.98-21.624-68.999c-8.684-8.489-11.744,6.21-12.324,13.679c-0.806,9.954,1.411,20.08-0.744,30.182
			c-0.931,4.988-2.394,9.914-3.469,13.577c-8.446,24.133-6.657,37.991-16.868,55.301c-6.397,8.436-18.953,9.348-30.843,11.851
			c-9.026,1.729-20.446,4.43-31.523,7.542c-65.602,18.813-144.245,56.806-182.814,94.353c-15.375,14.557-25.954,34.02-31.498,54.412
			"/>
	</g>
	<g id="POLYLINE_260_">
		
			<path fill="none" stroke="#FB8604" stroke-width="2.75" stroke-linecap="round" stroke-linejoin="round" stroke-miterlimit="10" d="
			M107.878,484.606c-10.646,5.241-22.457,9.264-33.284,13.897c-5.924,4.253,6.154,2.624,8.523,1.948
			c6.076-0.037-20.552,9.455-21.438,11.15c-0.296,0.183-2.9,2.007-0.613,1.677c31.032-5.821,60.049-22.262,79.2-47.526"/>
	</g>
	<g id="POLYLINE_261_">
		
			<path fill="none" stroke="#FB8604" stroke-width="2.75" stroke-linecap="round" stroke-linejoin="round" stroke-miterlimit="10" d="
			M118.555,487.691c15.935-0.416,32.389-4.002,46.726-10.609c43.004-22.099,84.442-40.499,130.727-35.858
			c18.094,1.516,37.161,8.416,54.943,11.326c47.687,5.983,104.753,13.179,145.965,11.676"/>
	</g>
	<g id="POLYLINE_262_">
		
			<path fill="none" stroke="#FB8604" stroke-width="2.75" stroke-linecap="round" stroke-linejoin="round" stroke-miterlimit="10" d="
			M309.235,443.124c-2.493-3.597-6.104-4.4-10.895-4.611c-11.465-1.298-35.628,1.767-37.057-14.015
			c-0.331-17.395,35.957-22.349,48.304-22.555c58.13-2.008,76.512,38.134,116.288,49.655c23.782,5.217,50.846,7.205,74.936,11.035"
			/>
	</g>
	<g id="POLYLINE_263_">
		
			<path fill="none" stroke="#FB8604" stroke-width="2.75" stroke-linecap="round" stroke-linejoin="round" stroke-miterlimit="10" d="
			M558.06,460.486c5.42-0.471,10.872-3.652,13.633-8.626c4.35-6.298-10.541-6.204-1.393-11.167
			c5.118-1.677,12.084-2.878,16.269-4.689c11.151-4.283,17.133-5.651,27.572-7.144c1.56-0.06,3.305-1.173,5.144-0.971
			c1.62,0.663,1.411,4.423,3.982,3.177"/>
	</g>
	<g id="POLYLINE_264_">
		
			<path fill="none" stroke="#FB8604" stroke-width="2.75" stroke-linecap="round" stroke-linejoin="round" stroke-miterlimit="10" d="
			M603.872,424.02c-12.596-0.619-27.576,0.953-38.228-7.316c-2.048-3.099,2.174-5.331,5.188-5.703
			c5.089-0.591,9.94-0.694,15.178-3.244c6.768-2.903,11.833-5.732,19.987-5.467C625.345,402.495,648.008,422.48,603.872,424.02z"/>
	</g>
	<g id="POLYLINE_265_">
		
			<path fill="none" stroke="#FB8604" stroke-width="2.75" stroke-linecap="round" stroke-linejoin="round" stroke-miterlimit="10" d="
			M140.266,465.751c2.371-2.635,9.616-3.229,12.519,0.184c1.05,2.79,3.831,1.678,6.251,2.527c3.395,1.641,3.335,6.759,7.459,8.078"
			/>
	</g>
	<g id="POLYLINE_266_">
		
			<path fill="none" stroke="#FB8604" stroke-width="2.75" stroke-linecap="round" stroke-linejoin="round" stroke-miterlimit="10" d="
			M651.965,423.838c0.103,1.393,1.355,0.471,2.361,0.521c1.079,1.612,1.177,0.627,3.201,0.621c0.6,0.119,0.61,0.861,1.192,1.187
			c0.671,0.242,1.702-0.911,2.29-0.063c0.19,0.453,0.774,0.925,1.308,0.542c1.485-0.932,1.442-0.127,2.71,0.541
			c1.491-0.188,2.092-1.277,3.436,0.604c1.815-0.12,2.888-1.846,3.914,1.302"/>
	</g>
</g>
<g id="AG-OUTLINE">
	<g id="POLYLINE_196_">
		
			<path fill="none" stroke="#FB8604" stroke-width="3.5" stroke-linecap="round" stroke-linejoin="round" stroke-miterlimit="10" d="
			M107.878,484.606c14.524-52.063,67.881-81.344,111.245-104.165c72.935-36.088,106.796-41.673,153.68-52.508
			c15.343-4.958,16.515-21.295,20.807-38.314c2.3-11.733,7.815-25.769,10.323-39.321c2.346-13.248-2.227-26.4,2.715-39.48
			c0.88-2.447,3.258-6.774,6.729-5.106c17.439,8.987,19.864,56.912,25.116,71.732c3.057,10.41,7.411,19.03,12.293,29.916
			c5.187,10.732,9.214,20.213,23.339,25.866c22.996,8.661,51.875,13.35,76.167,20.626c26.356,8.775,86.568,25.82,103.486,35.733
			c7.067,3.659,12.466,10.369,16.736,17.421c2.094,2.949,6.198,4.332,8.229,7.709c7.241,13.449-20.168,7.813-26.777,9.122
			c0.034,1.355,1.349,0.52,2.297,0.51c1.198,1.56,1.076,0.7,3.265,0.631c1.438,1.452,0.902,1.215,3.223,0.867
			c0.433,0.177,0.52,1.155,1.224,0.912c3.179-1.697,1.076,1.436,5.038-0.085c0.289-0.038,0.57,0.079,0.749,0.326
			c0.664,1.971,2.56-0.62,3.743,0.499c0.63,0.454,0.371,1.429,1.234,1.641c1.025,0.118,2.141,0.219,2.532,1.298
			c3.773,9.401-36.523,15.449-35.808,15.701c-33.425,6.988-48.407,10.581-68.173,14.166c-0.696,0.117-14.015,2.35-14.767,2.477
			c-0.587,0.737-1.698,2.575-2.693,4.159c-5.613,9.271-9.959,18.454-18.339,25.7c-15.076,12.549-35.099,21.638-54.721,19.864
			c-6.231-0.829-14.356-3.844-13.555-14.02c1.27-14.53,16.201-28.711,29.704-34.258c-45.974,1.395-96.416-5.893-142.224-11.095
			c-17.288-2.323-34.918-8.732-52.279-11.141c-75.029-8.637-120.561,31.784-149.719,39.977c-10.366,3.45-21.817,5.154-32.276,5.647
			c-2.559-0.275-3.372,1.512-4.976,2.443c-10.547,7.719-20.861,13.133-32.942,17.344c-5.25,1.711-26.577,8.452-21.526,4.711
			c0.256-1.679,29.524-12.248,21.808-11.616c-2.194,0.791-15.29,2.166-7.254-2.489C85.828,493.957,97.772,489.484,107.878,484.606z"
			/>
	</g>
</g>
</svg>
