<?xml version="1.0" encoding="utf-8"?>
<!-- Generator: Adobe Illustrator 24.0.1, SVG Export Plug-In . SVG Version: 6.00 Build 0)  -->
<!DOCTYPE svg PUBLIC "-//W3C//DTD SVG 1.1//EN" "http://www.w3.org/Graphics/SVG/1.1/DTD/svg11.dtd" [
	<!ENTITY ns_extend "http://ns.adobe.com/Extensibility/1.0/">
	<!ENTITY ns_ai "http://ns.adobe.com/AdobeIllustrator/10.0/">
	<!ENTITY ns_graphs "http://ns.adobe.com/Graphs/1.0/">
	<!ENTITY ns_vars "http://ns.adobe.com/Variables/1.0/">
	<!ENTITY ns_imrep "http://ns.adobe.com/ImageReplacement/1.0/">
	<!ENTITY ns_sfw "http://ns.adobe.com/SaveForWeb/1.0/">
	<!ENTITY ns_custom "http://ns.adobe.com/GenericCustomNamespace/1.0/">
	<!ENTITY ns_adobe_xpath "http://ns.adobe.com/XPath/1.0/">
]>
<svg version="1.1" xmlns:x="&ns_extend;" xmlns:i="&ns_ai;" xmlns:graph="&ns_graphs;"
	 xmlns="http://www.w3.org/2000/svg" xmlns:xlink="http://www.w3.org/1999/xlink" x="0px" y="0px" viewBox="0 0 750 750"
	 enable-background="new 0 0 750 750" xml:space="preserve">
<metadata>
	<sfw  xmlns="&ns_sfw;">
		<slices></slices>
		<sliceSourceBounds  bottomLeftOrigin="true" height="14825" width="8203.412" x="-3962.412" y="-6975"></sliceSourceBounds>
	</sfw>
</metadata>
<g id="FILL-BACKGROUND">
	<rect fill="#FFFFFF" width="750" height="750"/>
</g>
<g id="N-DIMENSIONS">
</g>
<g id="N-TEXT">
</g>
<g id="AG-DIAGRAM">
	<g id="POLYLINE_2829_">
		<g>
			<g>
				
					<line fill="none" stroke="#FB8604" stroke-width="3.25" stroke-linecap="round" stroke-linejoin="round" x1="124.698" y1="565.529" x2="126.698" y2="565.529"/>
				
					<line fill="none" stroke="#FB8604" stroke-width="3.25" stroke-linecap="round" stroke-linejoin="round" stroke-dasharray="4.026,7.0456" x1="133.743" y1="565.529" x2="550.941" y2="565.529"/>
				
					<line fill="none" stroke="#FB8604" stroke-width="3.25" stroke-linecap="round" stroke-linejoin="round" x1="554.464" y1="565.529" x2="556.464" y2="565.529"/>
			</g>
		</g>
	</g>
</g>
<g id="AG-DETAIL">
</g>
<g id="AG-GUIDES">
</g>
<g id="AG-PEOPLE">
</g>
<g id="AG-ANIMALS">
	<g id="POLYLINE_118_">
		
			<path fill="none" stroke="#FB8604" stroke-width="2.75" stroke-linecap="round" stroke-linejoin="round" stroke-miterlimit="10" d="
			M619.602,255.669c-0.088,0.062-0.133,0.091-0.133,0.091c-0.09,0.057-0.135,0.084-0.135,0.084
			c-0.091,0.052-0.136,0.077-0.136,0.077c-0.092,0.048-0.138,0.07-0.138,0.07c-0.093,0.043-0.14,0.063-0.14,0.063
			c-0.094,0.038-0.142,0.057-0.142,0.057c-0.095,0.034-0.143,0.05-0.143,0.05c-0.096,0.03-0.145,0.043-0.145,0.043
			c-0.098,0.025-0.147,0.037-0.147,0.037c-0.099,0.021-0.148,0.03-0.148,0.03c-0.1,0.017-0.15,0.024-0.15,0.024
			c-0.101,0.012-0.151,0.018-0.151,0.018c-0.101,0.008-0.152,0.011-0.152,0.011c-0.102,0.004-0.154,0.005-0.154,0.005
			c-0.103,0-0.155-0.001-0.155-0.001c-0.104-0.004-0.156-0.007-0.156-0.007c-0.105-0.008-0.157-0.012-0.157-0.012
			c-4.43-0.995-9.023-5.418-9.462-10.334c0.006-0.107,0.008-0.142,0.008-0.142c0.009-0.106,0.013-0.141,0.013-0.141
			c0.013-0.105,0.018-0.14,0.018-0.14c0.017-0.104,0.023-0.139,0.023-0.139c0.021-0.103,0.029-0.137,0.029-0.137
			c0.025-0.102,0.034-0.136,0.034-0.136c0.027-0.094,0.036-0.125,0.036-0.125c0.03-0.093,0.041-0.124,0.041-0.124
			c0.073-0.194,0.116-0.315,0.269-0.597c0.066-0.115,0.101-0.172,0.101-0.172c0.072-0.113,0.11-0.169,0.11-0.169
			c0.078-0.111,0.118-0.165,0.118-0.165c0.083-0.108,0.127-0.162,0.127-0.162c0.089-0.106,0.135-0.158,0.135-0.158
			c0.094-0.103,0.142-0.154,0.142-0.154c0.099-0.101,0.15-0.15,0.15-0.15c8.259-6.592,18.317,1.142,11.504,11.62
			c-0.096,0.115-0.144,0.171-0.144,0.171c-0.098,0.109-0.147,0.162-0.147,0.162c-0.1,0.103-0.151,0.153-0.151,0.153
			c-0.102,0.096-0.154,0.143-0.154,0.143c-0.104,0.09-0.157,0.133-0.157,0.133C619.656,255.629,619.629,255.649,619.602,255.669z"/>
	</g>
	<g id="POLYLINE_117_">
		
			<path fill="none" stroke="#FB8604" stroke-width="2.75" stroke-linecap="round" stroke-linejoin="round" stroke-miterlimit="10" d="
			M614.123,240.867c-5.144-1.545-16.348-4.392-16.481-12.381c0.036-11.496-6.533-16.239-16.354-24.047
			c-9.556-8.243-16.855-13.277-32.896-8.161"/>
	</g>
	<g id="POLYLINE_116_">
		
			<path fill="none" stroke="#FB8604" stroke-width="2.75" stroke-linecap="round" stroke-linejoin="round" stroke-miterlimit="10" d="
			M554.246,194.784c1.551-4.433,5.927-9.473,11.33-8.986c0.103,0.019,0.154,0.03,0.154,0.03c0.101,0.023,0.151,0.035,0.151,0.035
			c0.099,0.026,0.149,0.041,0.149,0.041c0.098,0.03,0.146,0.046,0.146,0.046c0.096,0.034,0.143,0.052,0.143,0.052
			c0.094,0.038,0.141,0.058,0.141,0.058c0.092,0.042,0.138,0.063,0.138,0.063c0.09,0.045,0.135,0.069,0.135,0.069
			c0.088,0.049,0.131,0.075,0.131,0.075c0.086,0.053,0.128,0.081,0.128,0.081c0.083,0.058,0.125,0.087,0.125,0.087
			c0.081,0.062,0.121,0.094,0.121,0.094c0.079,0.066,0.117,0.1,0.117,0.1c0.105,0.097,0.127,0.119,0.127,0.119
			c0.086,0.088,0.128,0.133,0.128,0.133c0.083,0.094,0.123,0.142,0.123,0.142c0.079,0.099,0.118,0.15,0.118,0.15
			c0.076,0.104,0.113,0.157,0.113,0.157c0.072,0.109,0.108,0.165,0.108,0.165c1.364,2.457,1.441,5.427,0.944,8.424"/>
	</g>
	<g id="POLYLINE_115_">
		
			<path fill="none" stroke="#FB8604" stroke-width="2.75" stroke-linecap="round" stroke-linejoin="round" stroke-miterlimit="10" d="
			M602.647,287.178c-8.542,10.239-28.583,9.533-43.22,2.308c-2.175-1.17-4.42-2.648-7.072-3.59l-3.332-1.167
			c-8.985-3.924-17.335-11.837-20.667-21.718"/>
	</g>
	<g id="POLYLINE_114_">
		
			<path fill="none" stroke="#FB8604" stroke-width="2.75" stroke-linecap="round" stroke-linejoin="round" stroke-miterlimit="10" d="
			M552.916,286.108c-9.627,21.161-19.983,42.532-24.27,65.706l-0.727,6.368c-3.302,24.456-24.187,42.106-36.389,62.583
			c-6.498,12.735-7.47,30.73-9.12,45.108c-2.811,24.251,0.177,49.063,5.395,72.966c0.154,0.658,0.651,2.75,1.374,3.591
			c0.089,0.116,0.12,0.154,0.12,0.154c0.094,0.112,0.126,0.148,0.126,0.148c0.099,0.107,0.133,0.141,0.133,0.141
			c0.105,0.102,0.14,0.135,0.14,0.135c0.11,0.098,0.148,0.129,0.148,0.129c0.116,0.093,0.156,0.123,0.156,0.123
			c0.081,0.06,0.122,0.089,0.122,0.089c11.269,4.61,21.437-2.76,23.732,18.2c-0.013,0.081-0.02,0.121-0.02,0.121
			c-0.023,0.115-0.032,0.153-0.032,0.153c-0.029,0.109-0.039,0.144-0.039,0.144c-0.034,0.102-0.046,0.135-0.046,0.135
			c-0.046,0.112-0.053,0.127-0.053,0.127c-0.053,0.105-0.061,0.12-0.061,0.12c-0.068,0.113-0.077,0.127-0.077,0.127
			c-0.077,0.107-0.087,0.12-0.087,0.12c-0.086,0.101-0.108,0.125-0.108,0.125c-0.096,0.095-0.121,0.119-0.121,0.119
			c-0.106,0.091-0.134,0.113-0.134,0.113c-0.116,0.087-0.147,0.109-0.147,0.109c-4.231,2.227-9.009,2.139-14.718,2.455
			c-48.846-0.276-21.037-6.76-41.6-31.682c-7.319-6.923-3.92-35.929-5.311-44.212c-2.013-23.652-0.036-46.22-13.104-67.194
			c-1.261-3.169-1.869-7.219-2.195-11.242"/>
	</g>
	<g id="POLYLINE_113_">
		
			<path fill="none" stroke="#FB8604" stroke-width="2.75" stroke-linecap="round" stroke-linejoin="round" stroke-miterlimit="10" d="
			M175.907,348.87c-2.797,0.859-7.009,2.18-10.118,0.536c-0.094-0.057-0.125-0.076-0.125-0.076c-0.091-0.06-0.121-0.08-0.121-0.08
			c-0.089-0.063-0.118-0.084-0.118-0.084c-0.115-0.089-0.145-0.113-0.145-0.113c-0.089-0.076-0.118-0.101-0.118-0.101
			c-0.114-0.106-0.142-0.134-0.142-0.134c-0.109-0.112-0.136-0.141-0.136-0.141c-0.078-0.088-0.104-0.118-0.104-0.118
			c-0.075-0.092-0.1-0.123-0.1-0.123c-0.072-0.095-0.096-0.127-0.096-0.127c-6.887-15.377,16.754-31.679,27.201-39.057
			c40.932-28.035,77.095-23.991,128.973-21.44c128.933,6.332,133.36-9.357,204.799-79.083"/>
	</g>
	<g id="POLYLINE_112_">
		
			<path fill="none" stroke="#FB8604" stroke-width="2.75" stroke-linecap="round" stroke-linejoin="round" stroke-miterlimit="10" d="
			M443.241,432.041c-17.888,4.854-37.855-2.723-53.052-10.31c-20.12-9.457-40.422-19.459-59.978-26.092
			c-41.09-14.262-89.203-15.065-106.306,32.889c-26.66,46.604-57.399,56.051-57.547,112.979c-0.066,1.146-0.396,3.262-0.291,4.626
			c0.013,0.112,0.017,0.148,0.017,0.148c0.016,0.108,0.022,0.144,0.022,0.144c0.02,0.105,0.028,0.139,0.028,0.139
			c0.024,0.101,0.033,0.134,0.033,0.134c0.029,0.098,0.039,0.13,0.039,0.13c0.033,0.094,0.045,0.125,0.045,0.125
			c0.038,0.091,0.051,0.12,0.051,0.12c0.058,0.116,0.073,0.144,0.073,0.144c0.067,0.11,0.084,0.137,0.084,0.137
			c0.076,0.104,0.096,0.13,0.096,0.13c0.085,0.099,0.108,0.122,0.108,0.122c0.095,0.093,0.12,0.115,0.12,0.115
			c0.116,0.095,0.135,0.109,0.135,0.109c0.098,0.07,0.119,0.083,0.119,0.083c0.105,0.066,0.149,0.092,0.149,0.092
			c0.09,0.05,0.137,0.074,0.137,0.074c0.096,0.047,0.145,0.07,0.145,0.07c0.101,0.045,0.153,0.067,0.153,0.067
			c7.395,1.297,19.085,3.137,16.344,14.617c-0.047,0.088-0.074,0.136-0.074,0.136c-0.056,0.095-0.085,0.142-0.085,0.142
			c-0.06,0.092-0.091,0.137-0.091,0.137c-0.064,0.089-0.096,0.132-0.096,0.132c-0.067,0.085-0.102,0.127-0.102,0.127
			c-0.071,0.082-0.107,0.122-0.107,0.122c-0.075,0.079-0.113,0.118-0.113,0.118c-0.078,0.076-0.118,0.113-0.118,0.113
			c-0.082,0.073-0.123,0.108-0.123,0.108c-0.085,0.07-0.129,0.104-0.129,0.104c-0.089,0.067-0.134,0.1-0.134,0.1
			c-0.092,0.064-0.139,0.095-0.139,0.095c-5.565,2.696-15.111,1.036-23.572,1.038c-15.588,0.411-18.34-6.861-14.579-25.063
			c3.397-10.427,2.968-21.842,2.81-33.013c0.182-7.39,2.348-13.785,2.551-21.46c-2.214-27.507,23.224-14.574,21.566-63.301
			l-0.169-35.953c0.095-23.814,3.03-41.46,16.159-61.197"/>
	</g>
	<g id="POLYLINE_111_">
		
			<path fill="none" stroke="#FB8604" stroke-width="2.75" stroke-linecap="round" stroke-linejoin="round" stroke-miterlimit="10" d="
			M187.062,478.27c2.141,18.053,1.674,37.362,1.016,55.332c0.217,7.095-2.616,21.315,0.093,28.057
			c0.072,0.115,0.108,0.172,0.108,0.172c0.076,0.111,0.115,0.165,0.115,0.165c0.08,0.107,0.12,0.157,0.12,0.157
			c0.081,0.099,0.123,0.147,0.123,0.147c0.085,0.095,0.129,0.141,0.129,0.141c0.089,0.091,0.135,0.135,0.135,0.135
			c0.093,0.087,0.141,0.13,0.141,0.13c0.097,0.084,0.146,0.125,0.146,0.125c0.101,0.08,0.152,0.12,0.152,0.12
			c5.252,3.848,34.649,3.13,39.012,0.838c0.084-0.052,0.125-0.079,0.125-0.079c0.08-0.054,0.12-0.082,0.12-0.082
			c0.115-0.085,0.152-0.114,0.152-0.114c0.108-0.09,0.143-0.12,0.143-0.12c0.101-0.094,0.134-0.126,0.134-0.126
			c0.094-0.099,0.124-0.133,0.124-0.133c0.087-0.104,0.115-0.139,0.115-0.139c0.08-0.109,0.105-0.146,0.105-0.146
			c0.066-0.103,0.086-0.136,0.086-0.136c0.057-0.101,0.075-0.135,0.075-0.135c0.052-0.104,0.068-0.14,0.068-0.14
			c0.047-0.108,0.062-0.144,0.062-0.144c0.042-0.111,0.055-0.148,0.055-0.148c0.895-5.155-2.18-12.206-7.532-14.635
			c-4.349-1.715-9.586-0.245-14.489-1.469c-0.103-0.038-0.136-0.051-0.136-0.051c-0.098-0.041-0.13-0.055-0.13-0.055
			c-0.093-0.043-0.124-0.058-0.124-0.058c-0.108-0.057-0.142-0.076-0.142-0.076c-0.101-0.061-0.133-0.081-0.133-0.081
			c-0.094-0.065-0.124-0.087-0.124-0.087c-0.115-0.092-0.142-0.116-0.142-0.116c-0.105-0.099-0.129-0.124-0.129-0.124
			c-0.095-0.105-0.117-0.132-0.117-0.132c-0.085-0.111-0.105-0.14-0.105-0.14c-0.058-0.088-0.076-0.117-0.076-0.117
			c-0.053-0.091-0.069-0.122-0.069-0.122c-0.048-0.095-0.063-0.127-0.063-0.127c-0.043-0.099-0.057-0.132-0.057-0.132
			c-0.039-0.102-0.051-0.137-0.051-0.137c-0.034-0.106-0.045-0.141-0.045-0.141c-0.03-0.109-0.04-0.146-0.04-0.146
			c-4.349-42.981,16.348-61.361,33.535-91.895c6.119-12.139,9.495-21.517,13.937-34.258c5.007-14.218,6.326-20.955,18.951-29.885"/>
	</g>
	<g id="POLYLINE_110_">
		
			<path fill="none" stroke="#FB8604" stroke-width="2.75" stroke-linecap="round" stroke-linejoin="round" stroke-miterlimit="10" d="
			M602.647,287.178c11.284-3.738,17.031-18.33,16.955-31.509"/>
	</g>
	<g id="POLYLINE_109_">
		
			<path fill="none" stroke="#FB8604" stroke-width="2.75" stroke-linecap="round" stroke-linejoin="round" stroke-miterlimit="10" d="
			M531.819,238.887c-20.293-10.363-6.274-39.479,11.682-47.164c0.112-0.024,0.168-0.034,0.168-0.034
			c0.111-0.019,0.166-0.028,0.166-0.028c0.11-0.014,0.164-0.02,0.164-0.02c0.108-0.01,0.162-0.013,0.162-0.013
			c0.107-0.005,0.16-0.006,0.16-0.006c0.105,0,0.158,0.002,0.158,0.002c0.104,0.006,0.155,0.01,0.155,0.01
			c0.102,0.011,0.128,0.014,0.128,0.014c0.116,0.018,0.156,0.025,0.156,0.025c0.08,0.017,0.119,0.026,0.119,0.026
			c0.079,0.02,0.118,0.031,0.118,0.031c0.116,0.036,0.154,0.049,0.154,0.049c0.114,0.042,0.151,0.058,0.151,0.058
			c0.112,0.049,0.149,0.066,0.149,0.066c0.109,0.055,0.146,0.075,0.146,0.075c0.107,0.061,0.143,0.083,0.143,0.083
			c0.105,0.068,0.14,0.091,0.14,0.091c0.103,0.073,0.137,0.099,0.137,0.099c0.1,0.079,0.134,0.107,0.134,0.107
			c0.098,0.085,0.13,0.114,0.13,0.114c0.096,0.09,0.127,0.121,0.127,0.121c0.093,0.096,0.124,0.129,0.124,0.129
			c0.091,0.101,0.121,0.136,0.121,0.136c4.191,5.028,0.558,20.5,0.514,26.659c-0.077,0.737-0.201,1.886-0.367,3.174"/>
	</g>
</g>
<g id="AG-OUTLINE">
	<g id="POLYLINE_530_">
		
			<path fill="none" stroke="#FB8604" stroke-width="3.5" stroke-linecap="round" stroke-linejoin="round" stroke-miterlimit="10" d="
			M175.907,348.87c-3.747,11.736-4.475,25.037-4.646,37.645l0.169,35.953c1.178,51.291-21.454,30.725-21.566,63.301
			c-0.094,6.625-2.446,14.702-2.563,21.792c0.196,10.88,0.627,21.844-2.799,32.68c-1.96,10.87-4.865,25.209,12.242,24.962
			c8.263-0.175,17.596,2.057,25.765-0.846c0.096-0.06,0.144-0.091,0.144-0.091c0.093-0.063,0.139-0.095,0.139-0.095
			c0.09-0.066,0.134-0.1,0.134-0.1c0.086-0.069,0.129-0.104,0.129-0.104c0.083-0.072,0.123-0.108,0.123-0.108
			c0.079-0.075,0.118-0.113,0.118-0.113c0.076-0.078,0.113-0.118,0.113-0.118c0.072-0.081,0.107-0.122,0.107-0.122
			c0.069-0.084,0.102-0.127,0.102-0.127c0.065-0.087,0.096-0.132,0.096-0.132c0.061-0.091,0.091-0.137,0.091-0.137
			c0.057-0.094,0.085-0.142,0.085-0.142c2.02-4.693-1.334-10.324-6.13-12.402c-2.97-1.481-6.819-1.208-10.243-2.395
			c-0.099-0.046-0.147-0.069-0.147-0.069c-0.094-0.048-0.14-0.073-0.14-0.073c-0.11-0.064-0.131-0.077-0.131-0.077
			c-0.103-0.067-0.123-0.081-0.123-0.081c-0.114-0.086-0.141-0.107-0.141-0.107c-0.102-0.09-0.126-0.113-0.126-0.113
			c-0.091-0.095-0.113-0.12-0.113-0.12c-0.081-0.101-0.1-0.127-0.1-0.127c-0.072-0.107-0.089-0.134-0.089-0.134
			c-0.063-0.112-0.078-0.141-0.078-0.141c-0.041-0.088-0.054-0.118-0.054-0.118c-0.037-0.091-0.048-0.123-0.048-0.123
			c-0.032-0.095-0.042-0.127-0.042-0.127c-0.027-0.099-0.036-0.132-0.036-0.132c-0.023-0.102-0.03-0.137-0.03-0.137
			c-0.019-0.106-0.025-0.141-0.025-0.141c-0.185-1.131,0.173-3.439,0.263-4.847c0.592-26.085,6.028-43.711,20.704-63.236
			c2.141,18.053,1.674,37.362,1.016,55.332c0.217,7.095-2.616,21.315,0.093,28.057c0.072,0.115,0.108,0.172,0.108,0.172
			c0.076,0.111,0.115,0.165,0.115,0.165c0.08,0.107,0.12,0.157,0.12,0.157c0.081,0.099,0.123,0.147,0.123,0.147
			c0.085,0.095,0.129,0.141,0.129,0.141c0.089,0.091,0.135,0.135,0.135,0.135c0.093,0.087,0.141,0.13,0.141,0.13
			c0.097,0.084,0.146,0.125,0.146,0.125c0.101,0.08,0.152,0.12,0.152,0.12c5.252,3.848,34.649,3.13,39.012,0.838
			c0.084-0.052,0.125-0.079,0.125-0.079c0.08-0.054,0.12-0.082,0.12-0.082c0.115-0.085,0.152-0.114,0.152-0.114
			c0.108-0.09,0.143-0.12,0.143-0.12c0.101-0.094,0.134-0.126,0.134-0.126c0.094-0.099,0.124-0.133,0.124-0.133
			c0.087-0.104,0.115-0.139,0.115-0.139c0.08-0.109,0.105-0.146,0.105-0.146c0.066-0.103,0.086-0.136,0.086-0.136
			c0.057-0.101,0.075-0.135,0.075-0.135c0.052-0.104,0.068-0.14,0.068-0.14c0.047-0.108,0.062-0.144,0.062-0.144
			c0.042-0.111,0.055-0.148,0.055-0.148c0.895-5.155-2.18-12.206-7.532-14.635c-4.349-1.715-9.586-0.245-14.489-1.469
			c-0.103-0.038-0.136-0.051-0.136-0.051c-0.098-0.041-0.13-0.055-0.13-0.055c-0.093-0.043-0.124-0.058-0.124-0.058
			c-0.108-0.057-0.142-0.076-0.142-0.076c-0.101-0.061-0.133-0.081-0.133-0.081c-0.094-0.065-0.124-0.087-0.124-0.087
			c-0.115-0.092-0.142-0.116-0.142-0.116c-0.105-0.099-0.129-0.124-0.129-0.124c-0.095-0.105-0.117-0.132-0.117-0.132
			c-0.085-0.111-0.105-0.14-0.105-0.14c-0.058-0.088-0.076-0.117-0.076-0.117c-0.053-0.091-0.069-0.122-0.069-0.122
			c-0.048-0.095-0.063-0.127-0.063-0.127c-0.043-0.099-0.057-0.132-0.057-0.132c-0.039-0.102-0.051-0.137-0.051-0.137
			c-0.034-0.106-0.045-0.141-0.045-0.141c-0.03-0.109-0.04-0.146-0.04-0.146c-4.349-42.981,16.348-61.361,33.535-91.895
			c6.119-12.139,9.495-21.517,13.937-34.258c5.007-14.218,6.326-20.955,18.951-29.885c72.838-8.267,125.55,55.912,170.805,43.881
			c7.286,15.599,6.539,40.977,8.064,57.583c0.954,11.589-0.21,24.98,1.605,36.632c0.558,2.692,1.692,5.202,3.706,7.58
			c15.957,14.97-1.768,30.53,28.313,31.401c9.8,0.191,18.451,1.451,27.741-2.007c0.103-0.062,0.136-0.083,0.136-0.083
			c0.096-0.063,0.127-0.085,0.127-0.085c0.09-0.065,0.118-0.086,0.118-0.086c0.11-0.089,0.136-0.112,0.136-0.112
			c0.1-0.093,0.123-0.117,0.123-0.117c0.1-0.111,0.111-0.124,0.111-0.124c0.08-0.105,0.089-0.118,0.089-0.118
			c0.071-0.111,0.079-0.125,0.079-0.125c0.055-0.103,0.062-0.118,0.062-0.118c0.042-0.093,0.055-0.125,0.055-0.125
			c0.036-0.099,0.048-0.133,0.048-0.133c0.031-0.105,0.041-0.141,0.041-0.141c0.026-0.112,0.034-0.15,0.034-0.15
			c0.014-0.079,0.021-0.119,0.021-0.119c-0.098-5.648-2.69-14.137-9.643-15.633c-4.083-1.233-9.777-0.371-14.042-2.579
			c-0.083-0.058-0.124-0.088-0.124-0.088c-0.08-0.06-0.119-0.091-0.119-0.091c-0.115-0.094-0.152-0.126-0.152-0.126
			c-0.109-0.099-0.144-0.132-0.144-0.132c-0.103-0.103-0.137-0.138-0.137-0.138c-0.098-0.108-0.13-0.145-0.13-0.145
			c-0.95-1.296-1.074-1.921-1.556-3.82c-5.216-23.831-8.185-48.446-5.395-72.966c2.086-16.175,2.053-32.577,10.452-47.535
			c12.525-19.247,31.493-35.956,35.057-60.156l0.727-6.368c4.055-22.47,14.842-45.089,24.27-65.706
			c1.337,0.423,4.943,2.499,6.511,3.378c7.5,4.741,33.845,9.982,43.22-2.308c11.284-3.738,17.031-18.33,16.955-31.509
			c0.107-0.08,0.16-0.122,0.16-0.122c0.105-0.087,0.157-0.133,0.157-0.133c0.103-0.094,0.154-0.143,0.154-0.143
			c0.101-0.101,0.151-0.153,0.151-0.153c0.099-0.107,0.147-0.162,0.147-0.162c4.107-5.065,3.069-15.335-6.248-14.089
			c-5.144-1.545-16.348-4.392-16.481-12.381c-0.31-5.203-1.249-10.571-5.492-14.66c-6.795-6.151-14.591-13.56-23.137-17.909
			c0.435-2.622,0.498-5.695-0.841-8.252c-0.068-0.115-0.103-0.172-0.103-0.172c-0.071-0.111-0.108-0.165-0.108-0.165
			c-0.075-0.106-0.113-0.157-0.113-0.157c-0.078-0.101-0.118-0.15-0.118-0.15c-0.081-0.095-0.123-0.142-0.123-0.142
			c-0.106-0.112-0.128-0.133-0.128-0.133c-0.088-0.084-0.127-0.119-0.127-0.119c-0.078-0.067-0.117-0.1-0.117-0.1
			c-0.08-0.063-0.121-0.094-0.121-0.094c-0.083-0.059-0.125-0.087-0.125-0.087c-0.085-0.055-0.128-0.081-0.128-0.081
			c-0.087-0.051-0.131-0.075-0.131-0.075c-0.089-0.047-0.135-0.069-0.135-0.069c-0.091-0.043-0.138-0.063-0.138-0.063
			c-0.093-0.039-0.141-0.058-0.141-0.058c-0.095-0.035-0.143-0.052-0.143-0.052c-0.097-0.031-0.146-0.046-0.146-0.046
			c-0.099-0.028-0.149-0.041-0.149-0.041c-0.101-0.024-0.151-0.035-0.151-0.035c-0.102-0.02-0.154-0.03-0.154-0.03
			c-5.096-0.432-9.586,4.054-11.33,8.986c-1.623,0.293-3.604,0.72-5.853,1.494c-0.248-0.995-0.612-2.129-1.351-3.131
			c-0.085-0.112-0.114-0.149-0.114-0.149c-0.088-0.107-0.118-0.142-0.118-0.142c-0.09-0.102-0.121-0.136-0.121-0.136
			c-0.093-0.097-0.124-0.129-0.124-0.129c-0.095-0.092-0.127-0.121-0.127-0.121c-0.098-0.086-0.13-0.114-0.13-0.114
			c-0.1-0.081-0.134-0.107-0.134-0.107c-0.102-0.075-0.137-0.099-0.137-0.099c-0.104-0.069-0.14-0.091-0.14-0.091
			c-0.107-0.063-0.143-0.083-0.143-0.083c-0.109-0.057-0.146-0.075-0.146-0.075c-0.111-0.051-0.149-0.066-0.149-0.066
			c-0.113-0.044-0.151-0.058-0.151-0.058c-0.115-0.038-0.154-0.049-0.154-0.049c-0.078-0.021-0.118-0.031-0.118-0.031
			c-0.079-0.018-0.119-0.026-0.119-0.026c-0.105-0.018-0.131-0.022-0.131-0.022c-0.102-0.013-0.127-0.015-0.127-0.015
			c-0.077-0.007-0.129-0.01-0.129-0.01c-0.104-0.004-0.157-0.005-0.157-0.005c-0.106,0.001-0.159,0.003-0.159,0.003
			c-0.107,0.006-0.161,0.011-0.161,0.011c-0.109,0.011-0.163,0.018-0.163,0.018c-0.11,0.016-0.166,0.025-0.166,0.025
			c-0.111,0.021-0.168,0.032-0.168,0.032c-7.353,3.325-13.72,9.551-18.001,17.019c-22.224,21.085-45.258,47.853-71.656,63.378
			c-17.737,10.451-40.138,14.632-59.621,15.996c-35.042,2.194-49.156,0.77-91.369-1.177c-22.085-1.069-53.99-3.079-80.325,6.586
			c-19.866,6.953-66.55,33.255-58.116,54.63c0.068,0.1,0.091,0.132,0.091,0.132c0.071,0.096,0.095,0.128,0.095,0.128
			c0.074,0.093,0.099,0.124,0.099,0.124c0.077,0.09,0.103,0.119,0.103,0.119c0.107,0.115,0.134,0.143,0.134,0.143
			c0.112,0.109,0.141,0.135,0.141,0.135c0.088,0.077,0.117,0.103,0.117,0.103c0.088,0.072,0.117,0.094,0.117,0.094
			c0.116,0.087,0.146,0.108,0.146,0.108c0.09,0.061,0.121,0.081,0.121,0.081c0.093,0.058,0.124,0.077,0.124,0.077
			C169.01,350.922,172.207,349.992,175.907,348.87z"/>
	</g>
</g>
</svg>
