<?xml version="1.0" encoding="utf-8"?>
<!-- Generator: Adobe Illustrator 24.0.1, SVG Export Plug-In . SVG Version: 6.00 Build 0)  -->
<!DOCTYPE svg PUBLIC "-//W3C//DTD SVG 1.1//EN" "http://www.w3.org/Graphics/SVG/1.1/DTD/svg11.dtd" [
	<!ENTITY ns_extend "http://ns.adobe.com/Extensibility/1.0/">
	<!ENTITY ns_ai "http://ns.adobe.com/AdobeIllustrator/10.0/">
	<!ENTITY ns_graphs "http://ns.adobe.com/Graphs/1.0/">
	<!ENTITY ns_vars "http://ns.adobe.com/Variables/1.0/">
	<!ENTITY ns_imrep "http://ns.adobe.com/ImageReplacement/1.0/">
	<!ENTITY ns_sfw "http://ns.adobe.com/SaveForWeb/1.0/">
	<!ENTITY ns_custom "http://ns.adobe.com/GenericCustomNamespace/1.0/">
	<!ENTITY ns_adobe_xpath "http://ns.adobe.com/XPath/1.0/">
]>
<svg version="1.1" xmlns:x="&ns_extend;" xmlns:i="&ns_ai;" xmlns:graph="&ns_graphs;"
	 xmlns="http://www.w3.org/2000/svg" xmlns:xlink="http://www.w3.org/1999/xlink" x="0px" y="0px" viewBox="0 0 750 750"
	 enable-background="new 0 0 750 750" xml:space="preserve">
<metadata>
	<sfw  xmlns="&ns_sfw;">
		<slices></slices>
		<sliceSourceBounds  bottomLeftOrigin="true" height="14825" width="8203.412" x="-3962.412" y="-6975"></sliceSourceBounds>
	</sfw>
</metadata>
<g id="FILL-BACKGROUND">
	<rect fill="#FFFFFF" width="750" height="750"/>
</g>
<g id="N-DIMENSIONS">
</g>
<g id="N-TEXT">
</g>
<g id="AG-DIAGRAM">
	<g id="POLYLINE_2831_">
		<g>
			<g>
				
					<line fill="none" stroke="#FB8604" stroke-width="3.25" stroke-linecap="round" stroke-linejoin="round" x1="107.226" y1="551.259" x2="109.226" y2="551.259"/>
				
					<line fill="none" stroke="#FB8604" stroke-width="3.25" stroke-linecap="round" stroke-linejoin="round" stroke-dasharray="3.9849,6.9736" x1="116.199" y1="551.259" x2="551.055" y2="551.259"/>
				
					<line fill="none" stroke="#FB8604" stroke-width="3.25" stroke-linecap="round" stroke-linejoin="round" x1="554.542" y1="551.259" x2="556.542" y2="551.259"/>
			</g>
		</g>
	</g>
</g>
<g id="AG-DETAIL">
</g>
<g id="AG-GUIDES">
</g>
<g id="AG-PEOPLE">
</g>
<g id="AG-ANIMALS">
	<g id="POLYLINE_155_">
		
			<path fill="none" stroke="#FB8604" stroke-width="2.75" stroke-linecap="round" stroke-linejoin="round" stroke-miterlimit="10" d="
			M423.316,434.495c-2.652,27.799-11.433,54.573-5.958,82.697c0.403,2.734-0.234,5.778-0.236,8.999
			c0.015,0.192,0.021,0.255,0.021,0.255c0.021,0.184,0.03,0.244,0.03,0.244c0.039,0.233,0.05,0.289,0.05,0.289
			c0.051,0.219,0.065,0.272,0.065,0.272c0.064,0.205,0.081,0.254,0.081,0.254c0.099,0.237,0.109,0.26,0.109,0.26
			c0.131,0.238,0.144,0.259,0.144,0.259c0.172,0.233,0.187,0.251,0.187,0.251c0.238,0.236,0.257,0.252,0.257,0.252
			c0.234,0.173,0.255,0.187,0.255,0.187c0.215,0.124,0.259,0.147,0.259,0.147c0.232,0.105,0.28,0.124,0.28,0.124
			c0.197,0.07,0.247,0.086,0.247,0.086c0.206,0.058,0.259,0.071,0.259,0.071c0.214,0.046,0.269,0.056,0.269,0.056
			c0.221,0.034,0.278,0.042,0.278,0.042c0.227,0.023,0.285,0.028,0.285,0.028c0.232,0.013,0.291,0.014,0.291,0.014
			c0.762,0.003,0.838-0.026,2.084-0.153c0.23-0.019,0.344-0.027,0.344-0.027c0.224-0.01,0.279-0.012,0.279-0.012
			c0.217,0,0.27,0.002,0.27,0.002c0.209,0.014,0.26,0.019,0.26,0.019c0.224,0.034,0.248,0.039,0.248,0.039
			c0.235,0.062,0.257,0.07,0.257,0.07c0.218,0.092,0.239,0.103,0.239,0.103c0.22,0.139,0.24,0.153,0.24,0.153
			c0.236,0.215,0.254,0.233,0.254,0.233c0.182,0.224,0.198,0.246,0.198,0.246c0.153,0.238,0.183,0.289,0.183,0.289
			c0.115,0.217,0.142,0.274,0.142,0.274c0.082,0.179,0.108,0.24,0.108,0.24c1.899,5.733,2.197,11.719,5.059,17.739
			c0.118,0.219,0.157,0.289,0.157,0.289c0.12,0.202,0.161,0.266,0.161,0.266c0.125,0.185,0.168,0.245,0.168,0.245
			c0.178,0.224,0.201,0.25,0.201,0.25c0.217,0.226,0.242,0.249,0.242,0.249c0.212,0.179,0.239,0.2,0.239,0.2
			c0.233,0.16,0.263,0.179,0.263,0.179c0.224,0.125,0.258,0.142,0.258,0.142c0.209,0.097,0.246,0.112,0.246,0.112
			c0.227,0.088,0.307,0.115,0.307,0.115c0.164,0.053,0.249,0.078,0.249,0.078c0.176,0.048,0.267,0.072,0.267,0.072
			c11.888,0.927,26.573,1.032,38.541-0.33c0.233-0.065,0.344-0.098,0.344-0.098c0.21-0.069,0.261-0.087,0.261-0.087
			c0.193-0.073,0.239-0.092,0.239-0.092c0.218-0.098,0.26-0.118,0.26-0.118c0.232-0.126,0.268-0.148,0.268-0.148
			c0.234-0.159,0.265-0.182,0.265-0.182c0.226-0.198,0.251-0.224,0.251-0.224c0.187-0.216,0.209-0.244,0.209-0.244
			c0.156-0.235,0.173-0.265,0.173-0.265c0.115-0.222,0.13-0.254,0.13-0.254c0.086-0.203,0.113-0.273,0.113-0.273
			c0.076-0.217,0.101-0.292,0.101-0.292c0.493-1.709,0.645-3.734,0.166-5.761c-0.065-0.232-0.089-0.308-0.089-0.308
			c-0.076-0.222-0.103-0.295-0.103-0.295c-0.087-0.213-0.118-0.283-0.118-0.283c-0.099-0.205-0.133-0.272-0.133-0.272
			c-0.111-0.198-0.15-0.263-0.15-0.263c-0.124-0.192-0.168-0.254-0.168-0.254c-0.138-0.186-0.187-0.247-0.187-0.247
			c-0.153-0.182-0.207-0.241-0.207-0.241c-0.228-0.237-0.288-0.295-0.288-0.295c-0.189-0.174-0.255-0.232-0.255-0.232
			c-0.206-0.173-0.278-0.23-0.278-0.23c-5.124-3.173-11.617-5.924-16.634-10.032c-0.956-0.708-2.78-1.682-4.186-2.675
			c-0.205-0.157-0.272-0.21-0.272-0.21c-0.197-0.163-0.261-0.219-0.261-0.219c-0.188-0.171-0.249-0.23-0.249-0.23
			c-0.179-0.181-0.238-0.244-0.238-0.244c-0.171-0.193-0.226-0.26-0.226-0.26c-0.162-0.207-0.215-0.278-0.215-0.278
			c-0.154-0.222-0.203-0.298-0.203-0.298c-0.145-0.237-0.191-0.319-0.191-0.319c-0.091-0.168-0.135-0.253-0.135-0.253
			c-0.086-0.175-0.128-0.265-0.128-0.265c-0.081-0.183-0.121-0.277-0.121-0.277c-0.076-0.191-0.113-0.289-0.113-0.289
			c-0.071-0.199-0.105-0.301-0.105-0.301c-0.999-3.264-0.52-6.437,0.173-10.22l1.527-7.293c0.349-17.91,10.87-32.624,29.275-41.833"
			/>
	</g>
	<g id="POLYLINE_154_">
		
			<path fill="none" stroke="#FB8604" stroke-width="2.75" stroke-linecap="round" stroke-linejoin="round" stroke-miterlimit="10" d="
			M638.377,317.057c-0.203,0.125-0.244,0.148-0.244,0.148c-0.204,0.106-0.245,0.126-0.245,0.126
			c-0.204,0.089-0.245,0.105-0.245,0.105c-0.205,0.072-0.246,0.084-0.246,0.084c-0.206,0.055-0.247,0.064-0.247,0.064
			c-0.206,0.039-0.248,0.045-0.248,0.045c-0.207,0.023-0.249,0.026-0.249,0.026c-0.208,0.007-0.249,0.007-0.249,0.007
			c-0.209-0.008-0.25-0.011-0.25-0.011c-0.209-0.023-0.251-0.029-0.251-0.029c-0.21-0.037-0.252-0.046-0.252-0.046
			c-0.211-0.051-0.253-0.062-0.253-0.062c-0.212-0.064-0.254-0.079-0.254-0.079c-0.17-0.061-0.255-0.094-0.255-0.094
			c-0.171-0.071-0.256-0.109-0.256-0.109c-0.171-0.081-0.257-0.124-0.257-0.124c-0.172-0.09-0.258-0.138-0.258-0.138
			c-3.27-2.085-6.035-5.407-7.244-9.467c-0.056-0.232-0.073-0.308-0.073-0.308c-0.045-0.222-0.065-0.332-0.065-0.332
			c-0.036-0.219-0.051-0.328-0.051-0.328c-0.026-0.217-0.036-0.324-0.036-0.324c-0.016-0.213-0.022-0.319-0.022-0.319
			c-0.007-0.21-0.008-0.314-0.008-0.314c0.003-0.206,0.007-0.308,0.007-0.308c0.013-0.202,0.021-0.301,0.021-0.301
			c0.022-0.197,0.036-0.294,0.036-0.294c0.032-0.192,0.041-0.239,0.041-0.239c0.05-0.234,0.062-0.28,0.062-0.28
			c0.062-0.226,0.076-0.271,0.076-0.271c0.074-0.219,0.09-0.262,0.09-0.262c0.086-0.211,0.104-0.252,0.104-0.252
			c0.098-0.202,0.118-0.242,0.118-0.242c0.132-0.231,0.156-0.268,0.156-0.268c0.149-0.217,0.175-0.252,0.175-0.252
			c0.194-0.236,0.223-0.268,0.223-0.268c0.215-0.216,0.248-0.245,0.248-0.245c0.237-0.195,0.272-0.221,0.272-0.221
			c0.22-0.149,0.258-0.172,0.258-0.172c0.191-0.108,0.24-0.133,0.24-0.133c0.202-0.096,0.253-0.118,0.253-0.118
			c0.212-0.084,0.266-0.104,0.266-0.104c0.221-0.073,0.278-0.089,0.278-0.089c0.23-0.061,0.289-0.075,0.289-0.075
			c0.179-0.039,0.239-0.051,0.239-0.051c0.183-0.032,0.245-0.042,0.245-0.042c3.019-0.321,6.085,0.474,9.101,2.088
			c0.227,0.137,0.338,0.206,0.338,0.206c0.218,0.143,0.324,0.217,0.324,0.217c0.208,0.15,0.31,0.227,0.31,0.227
			c0.198,0.157,0.295,0.238,0.295,0.238c0.233,0.207,0.279,0.249,0.279,0.249c0.219,0.217,0.261,0.261,0.261,0.261
			c0.204,0.227,0.243,0.273,0.243,0.273c0.188,0.237,0.224,0.285,0.224,0.285c0.138,0.197,0.172,0.247,0.172,0.247
			c0.127,0.204,0.157,0.257,0.157,0.257c0.115,0.212,0.142,0.266,0.142,0.266c0.102,0.22,0.127,0.275,0.127,0.275
			c0.09,0.227,0.11,0.285,0.11,0.285c0.076,0.235,0.094,0.295,0.094,0.295c0.048,0.182,0.063,0.243,0.063,0.243
			c0.04,0.187,0.051,0.25,0.051,0.25c0.031,0.192,0.04,0.257,0.04,0.257c0.025,0.228,0.031,0.305,0.031,0.305
			c0.013,0.235,0.016,0.314,0.016,0.314c-0.032,2.667-1.034,5.291-2.891,7.619c-0.159,0.184-0.212,0.244-0.212,0.244
			c-0.216,0.23-0.27,0.285-0.27,0.285c-0.219,0.211-0.274,0.261-0.274,0.261c-0.222,0.191-0.277,0.236-0.277,0.236
			C638.546,316.942,638.49,316.981,638.377,317.057z"/>
	</g>
	<g id="POLYLINE_152_">
		
			<path fill="none" stroke="#FB8604" stroke-width="2.75" stroke-linecap="round" stroke-linejoin="round" stroke-miterlimit="10" d="
			M450.413,509.394c28.25-9.865,55.882-27.362,70.877-54.453c4.609-8.931,5.282-22.024,6.349-32.341
			c0.515-6.158,2.925-15.095,4.039-18.221c22.681-66.559,14.353-70.568,65.735-66.799c6.024,0.563,12.924-0.227,17.934-5.109
			l3.405-2.863c2.228-1.918,5.328-3.798,8.661-5.154c2.378-1.046,5.526-2.025,7.924-3.72c0.216-0.16,0.322-0.242,0.322-0.242
			c0.209-0.168,0.313-0.254,0.313-0.254c0.203-0.176,0.303-0.267,0.303-0.267c0.196-0.185,0.292-0.281,0.292-0.281
			c0.188-0.195,0.281-0.295,0.281-0.295c0.181-0.205,0.269-0.31,0.269-0.31c0.173-0.216,0.257-0.326,0.257-0.326
			c0.164-0.227,0.244-0.343,0.244-0.343c0.245-0.375,0.445-0.697,0.718-1.268"/>
	</g>
	<g id="POLYLINE_151_">
		
			<path fill="none" stroke="#FB8604" stroke-width="2.75" stroke-linecap="round" stroke-linejoin="round" stroke-miterlimit="10" d="
			M632.808,301.066c-8.704-5.884-22.525-11.148-32.761-14.917c-11.101-4.549-17.741-6.559-23.888-21.469
			c-0.175-0.233-0.264-0.348-0.264-0.348c-0.183-0.224-0.277-0.335-0.277-0.335c-0.192-0.216-0.29-0.323-0.29-0.323
			c-0.2-0.209-0.302-0.311-0.302-0.311c-0.208-0.202-0.315-0.301-0.315-0.301c-27.633-19.531-93.495-22.537-96.828,24.422
			c-1.473,11.793-9.038,23.759-7.447,36.333c6.963,20.96,40.142,41.242,65.67,35.57c0.187-0.088,0.248-0.118,0.248-0.118
			c0.181-0.093,0.24-0.124,0.24-0.124c0.231-0.131,0.288-0.165,0.288-0.165c0.221-0.139,0.275-0.175,0.275-0.175
			c0.211-0.148,0.263-0.186,0.263-0.186c0.201-0.157,0.25-0.197,0.25-0.197c0.238-0.208,0.284-0.251,0.284-0.251
			c0.224-0.222,0.267-0.267,0.267-0.267c0.209-0.236,0.25-0.284,0.25-0.284c0.157-0.199,0.195-0.25,0.195-0.25
			c0.148-0.208,0.184-0.262,0.184-0.262c0.139-0.218,0.173-0.274,0.173-0.274c0.131-0.228,0.162-0.286,0.162-0.286
			c0.122-0.238,0.151-0.299,0.151-0.299c0.086-0.185,0.141-0.311,0.141-0.311c4.555-12.529-9.235-43.482-12.632-54.261
			c-3.949-11.039-6.306-21.447-5.264-33.969"/>
	</g>
	<g id="POLYLINE_150_">
		
			<path fill="none" stroke="#FB8604" stroke-width="2.75" stroke-linecap="round" stroke-linejoin="round" stroke-miterlimit="10" d="
			M416.699,512.451l-19.102-5.363l-21.143-5.406c-8.638-2.101-17.865-6.515-26.486-9.267c-15.41-4.925-36.166-4.289-52.355-5.064
			c-27.507-1.157-54.601-9.455-80.167-19.864"/>
	</g>
	<g id="POLYLINE_149_">
		
			<path fill="none" stroke="#FB8604" stroke-width="2.75" stroke-linecap="round" stroke-linejoin="round" stroke-miterlimit="10" d="
			M260.472,456.987c-15.268-3.357-32.853,3.444-45.938,12.425c-8.754,5.733-14.884,13.011-24.94,16.513
			c-24.613,7.51-31.753-0.168-35.635,32.31c-0.204,3.104-0.501,6.089,0.446,9.454c0.061,0.178,0.093,0.264,0.093,0.264
			c0.065,0.169,0.099,0.251,0.099,0.251c0.069,0.161,0.105,0.239,0.105,0.239c0.11,0.227,0.148,0.3,0.148,0.3
			c0.117,0.211,0.158,0.28,0.158,0.28c0.124,0.197,0.167,0.26,0.167,0.26c0.131,0.183,0.175,0.242,0.175,0.242
			c0.184,0.226,0.231,0.279,0.231,0.279c0.193,0.206,0.243,0.255,0.243,0.255c0.202,0.188,0.254,0.233,0.254,0.233
			c0.211,0.172,0.264,0.214,0.264,0.214c0.218,0.158,0.274,0.196,0.274,0.196c0.226,0.146,0.283,0.181,0.283,0.181
			c0.174,0.102,0.291,0.167,0.291,0.167c0.346,0.176,0.29,0.167,0.975,0.473c4.2,1.434,8.347,5.204,9.491,10.04
			c0.485,2.292,0.315,4.272-0.287,6.939c-0.054,0.214-0.073,0.283-0.073,0.283c-0.059,0.199-0.08,0.263-0.08,0.263
			c-0.066,0.185-0.089,0.245-0.089,0.245c-0.101,0.226-0.115,0.253-0.115,0.253c-0.134,0.231-0.15,0.256-0.15,0.256
			c-0.179,0.23-0.198,0.251-0.198,0.251c-0.217,0.203-0.24,0.222-0.24,0.222c-0.233,0.161-0.261,0.177-0.261,0.177
			c-0.21,0.111-0.242,0.126-0.242,0.126c-0.238,0.1-0.274,0.113-0.274,0.113c-0.188,0.064-0.268,0.089-0.268,0.089
			c-0.166,0.046-0.252,0.069-0.252,0.069c-0.18,0.042-0.274,0.062-0.274,0.062c-7.168,0.384-16.075,1.025-23.41-1.18
			c-0.181-0.086-0.27-0.13-0.27-0.13c-0.176-0.091-0.262-0.139-0.262-0.139c-0.171-0.097-0.255-0.148-0.255-0.148
			c-0.165-0.103-0.247-0.157-0.247-0.157c-0.16-0.11-0.239-0.166-0.239-0.166c-0.231-0.176-0.306-0.237-0.306-0.237
			c-0.22-0.19-0.291-0.255-0.291-0.255c-0.208-0.204-0.275-0.274-0.275-0.274c-0.196-0.218-0.26-0.294-0.26-0.294
			c-0.184-0.234-0.243-0.314-0.243-0.314c-0.115-0.165-0.171-0.249-0.171-0.249c-0.109-0.173-0.162-0.261-0.162-0.261
			c-0.121-0.216-0.161-0.29-0.161-0.29c-0.113-0.226-0.15-0.303-0.15-0.303c-2.576-6.624-0.556-17.047-0.42-24.287
			c0.412-7.591-0.014-15.782-2.326-23.677c-1.316-4.995-4.31-10.649-3.071-16.421c0.06-0.23,0.093-0.346,0.093-0.346
			c0.069-0.231,0.106-0.346,0.106-0.346c3-8.32,12.568-11.42,19.662-16.479c0.216-0.185,0.321-0.278,0.321-0.278
			c0.201-0.188,0.298-0.282,0.298-0.282c0.186-0.191,0.23-0.239,0.23-0.239c0.172-0.194,0.213-0.242,0.213-0.242
			c0.157-0.196,0.207-0.262,0.207-0.262c0.143-0.199,0.188-0.266,0.188-0.266c0.129-0.202,0.169-0.27,0.169-0.27
			c0.115-0.205,0.151-0.274,0.151-0.274c0.102-0.208,0.134-0.278,0.134-0.278c0.09-0.211,0.118-0.282,0.118-0.282
			c0.078-0.214,0.102-0.285,0.102-0.285c0.067-0.216,0.088-0.289,0.088-0.289c0.056-0.219,0.073-0.292,0.073-0.292
			c0.046-0.221,0.06-0.295,0.06-0.295c0.037-0.223,0.048-0.298,0.048-0.298c0.028-0.225,0.036-0.3,0.036-0.3
			c-1.013-29.313-6.242-62.067,27.782-76.719"/>
	</g>
	<g id="POLYLINE_148_">
		
			<path fill="none" stroke="#FB8604" stroke-width="2.75" stroke-linecap="round" stroke-linejoin="round" stroke-miterlimit="10" d="
			M153.785,446.798c-8.418-16.628-9.053-39.619,2.902-55.513c13.354-15.829,44.051-23.366,65.788-20.924
			c30.29,3.511,64.206,1.426,95.936,0.815c23.754-0.868,51.706,5.709,76.037-3.415l13.008-4.542
			c3.961-1.337,8.32-2.608,13.092-3.391l7.482-1.203c8.088-1.151,12.949-3.6,16.95-12.528c8.83-17.98,23.044-37.864,32.142-54.623"
			/>
	</g>
	<g id="POLYLINE_147_">
		
			<path fill="none" stroke="#FB8604" stroke-width="2.75" stroke-linecap="round" stroke-linejoin="round" stroke-miterlimit="10" d="
			M172.006,508.968c6.748,10.911,16.433,25.491,20.388,37.861c0.129,0.219,0.173,0.291,0.173,0.291
			c0.135,0.211,0.181,0.28,0.181,0.28c0.141,0.202,0.19,0.268,0.19,0.268c0.149,0.194,0.2,0.258,0.2,0.258
			c0.157,0.187,0.211,0.248,0.211,0.248c0.223,0.238,0.281,0.297,0.281,0.297c0.179,0.171,0.24,0.227,0.24,0.227
			c0.191,0.164,0.257,0.217,0.257,0.217c0.204,0.156,0.275,0.207,0.275,0.207c0.219,0.149,0.295,0.198,0.295,0.198
			c0.235,0.142,0.316,0.188,0.316,0.188c0.167,0.09,0.253,0.134,0.253,0.134c0.176,0.086,0.267,0.129,0.267,0.129
			c0.186,0.083,0.282,0.123,0.282,0.123c8.647,2.071,19.012,1.812,28.176,0.624c0.209-0.064,0.311-0.098,0.311-0.098
			c0.2-0.07,0.297-0.106,0.297-0.106c0.19-0.076,0.283-0.115,0.283-0.115c0.181-0.081,0.269-0.124,0.269-0.124
			c0.213-0.11,0.255-0.133,0.255-0.133c0.202-0.118,0.241-0.142,0.241-0.142c0.227-0.152,0.264-0.178,0.264-0.178
			c0.211-0.164,0.245-0.192,0.245-0.192c0.226-0.207,0.257-0.237,0.257-0.237c0.205-0.224,0.233-0.257,0.233-0.257
			c0.159-0.206,0.184-0.242,0.184-0.242c0.143-0.22,0.165-0.258,0.165-0.258c0.127-0.234,0.147-0.274,0.147-0.274
			c0.094-0.206,0.112-0.249,0.112-0.249c0.083-0.217,0.098-0.261,0.098-0.261c0.072-0.228,0.085-0.275,0.085-0.275
			c0.049-0.191,0.061-0.239,0.061-0.239c0.042-0.198,0.061-0.3,0.061-0.3c0.033-0.207,0.048-0.313,0.048-0.313
			c0.025-0.216,0.035-0.326,0.035-0.326c0.016-0.224,0.022-0.337,0.022-0.337c0.007-0.231,0.009-0.348,0.009-0.348
			c-0.006-6.492-5.33-12.603-11.998-13.233c-1.963-0.263-4.701-0.475-6.765-1.624c-0.22-0.119-0.33-0.182-0.33-0.182
			c-0.22-0.13-0.331-0.198-0.331-0.198c-0.221-0.141-0.332-0.215-0.332-0.215c-0.222-0.153-0.333-0.233-0.333-0.233
			c-0.222-0.166-0.334-0.252-0.334-0.252c-0.223-0.179-0.334-0.272-0.334-0.272c-5.421-5.369-13.84-20.031-10.318-31.244
			c3.004-8.301,13.352-12.146,20.991-16.164c4.459-2.378,9.114-5.033,12.836-9.275"/>
	</g>
	<g id="POLYLINE_146_">
		
			<path fill="none" stroke="#FB8604" stroke-width="2.75" stroke-linecap="round" stroke-linejoin="round" stroke-miterlimit="10" d="
			M166.521,491.568c-2.169,13.033-6.561,26.547-9.605,39.328"/>
	</g>
	<g id="POLYLINE_140_">
		
			<path fill="none" stroke="#FB8604" stroke-width="2.75" stroke-linecap="round" stroke-linejoin="round" stroke-miterlimit="10" d="
			M161.6,533.193c7.905-13.09,12.219-29.637,16.274-44.397"/>
	</g>
</g>
<g id="AG-OUTLINE">
	<g id="POLYLINE_303_">
		
			<path fill="none" stroke="#FB8604" stroke-width="3.5" stroke-linecap="round" stroke-linejoin="round" stroke-miterlimit="10" d="
			M153.785,446.798c-0.446,4.03,0.716,8.883,0.874,13.427c-0.017,0.227-0.025,0.303-0.025,0.303c-0.026,0.226-0.036,0.3-0.036,0.3
			c-0.035,0.224-0.048,0.298-0.048,0.298c-0.044,0.221-0.06,0.295-0.06,0.295c-0.054,0.219-0.073,0.292-0.073,0.292
			c-0.064,0.217-0.088,0.289-0.088,0.289c-0.075,0.214-0.102,0.285-0.102,0.285c-0.087,0.212-0.118,0.282-0.118,0.282
			c-0.099,0.209-0.134,0.278-0.134,0.278c-0.112,0.206-0.151,0.274-0.151,0.274c-0.125,0.203-0.169,0.27-0.169,0.27
			c-0.139,0.2-0.188,0.266-0.188,0.266c-0.153,0.197-0.207,0.262-0.207,0.262c-0.169,0.194-0.213,0.242-0.213,0.242
			c-0.136,0.144-0.23,0.239-0.23,0.239c-0.196,0.189-0.298,0.282-0.298,0.282c-0.211,0.186-0.321,0.278-0.321,0.278
			c-6.531,4.823-16.295,7.682-19.662,16.479c-0.072,0.231-0.106,0.346-0.106,0.346c-0.064,0.232-0.093,0.346-0.093,0.346
			c-1.662,8.168,7.654,23.404,5.396,40.098c-0.102,7.839-2.168,16.126,0.314,24.052c0.106,0.236,0.142,0.313,0.142,0.313
			c0.113,0.226,0.153,0.3,0.153,0.3c0.121,0.216,0.174,0.305,0.174,0.305c0.109,0.173,0.165,0.257,0.165,0.257
			c0.115,0.165,0.175,0.245,0.175,0.245c0.184,0.234,0.247,0.309,0.247,0.309c0.196,0.218,0.264,0.289,0.264,0.289
			c0.208,0.204,0.279,0.269,0.279,0.269c0.22,0.19,0.295,0.251,0.295,0.251c0.231,0.176,0.309,0.233,0.309,0.233
			c0.16,0.11,0.242,0.163,0.242,0.163c0.165,0.103,0.249,0.154,0.249,0.154c0.171,0.097,0.257,0.145,0.257,0.145
			c0.176,0.091,0.265,0.136,0.265,0.136c6.786,2.236,15.984,1.685,23.494,1.285c0.19-0.039,0.282-0.06,0.282-0.06
			c0.175-0.044,0.259-0.066,0.259-0.066c0.238-0.073,0.276-0.086,0.276-0.086c0.215-0.081,0.249-0.095,0.249-0.095
			c0.223-0.105,0.253-0.121,0.253-0.121c0.223-0.135,0.249-0.153,0.249-0.153c0.236-0.191,0.257-0.211,0.257-0.211
			c0.195-0.217,0.213-0.24,0.213-0.24c0.146-0.219,0.161-0.245,0.161-0.245c0.11-0.215,0.123-0.243,0.123-0.243
			c0.095-0.235,0.117-0.297,0.117-0.297c0.062-0.192,0.082-0.259,0.082-0.259c1.855-5.61-0.307-12.294-5.676-15.662
			c4.472-7.232,7.712-15.786,10.405-24.225c6.748,10.911,16.433,25.491,20.388,37.861c0.129,0.219,0.173,0.291,0.173,0.291
			c0.135,0.211,0.181,0.28,0.181,0.28c0.141,0.202,0.19,0.268,0.19,0.268c0.149,0.194,0.2,0.258,0.2,0.258
			c0.157,0.187,0.211,0.248,0.211,0.248c0.223,0.238,0.281,0.297,0.281,0.297c0.179,0.171,0.24,0.227,0.24,0.227
			c0.191,0.164,0.257,0.217,0.257,0.217c0.204,0.156,0.275,0.207,0.275,0.207c0.219,0.149,0.295,0.198,0.295,0.198
			c0.235,0.142,0.316,0.188,0.316,0.188c0.167,0.09,0.253,0.134,0.253,0.134c0.176,0.086,0.267,0.129,0.267,0.129
			c0.186,0.083,0.282,0.123,0.282,0.123c8.647,2.071,19.012,1.812,28.176,0.624c0.209-0.064,0.311-0.098,0.311-0.098
			c0.2-0.07,0.297-0.106,0.297-0.106c0.19-0.076,0.283-0.115,0.283-0.115c0.181-0.081,0.269-0.124,0.269-0.124
			c0.213-0.11,0.255-0.133,0.255-0.133c0.202-0.118,0.241-0.142,0.241-0.142c0.227-0.152,0.264-0.178,0.264-0.178
			c0.211-0.164,0.245-0.192,0.245-0.192c0.226-0.207,0.257-0.237,0.257-0.237c0.205-0.224,0.233-0.257,0.233-0.257
			c0.159-0.206,0.184-0.242,0.184-0.242c0.143-0.22,0.165-0.258,0.165-0.258c0.127-0.234,0.147-0.274,0.147-0.274
			c0.094-0.206,0.112-0.249,0.112-0.249c0.083-0.217,0.098-0.261,0.098-0.261c0.072-0.228,0.085-0.275,0.085-0.275
			c0.049-0.191,0.061-0.239,0.061-0.239c0.042-0.198,0.061-0.3,0.061-0.3c0.033-0.207,0.048-0.313,0.048-0.313
			c0.025-0.216,0.035-0.326,0.035-0.326c0.016-0.224,0.022-0.337,0.022-0.337c0.007-0.231,0.009-0.348,0.009-0.348
			c-0.006-6.492-5.33-12.603-11.998-13.233c-1.963-0.263-4.701-0.475-6.765-1.624c-0.22-0.119-0.33-0.182-0.33-0.182
			c-0.22-0.13-0.331-0.198-0.331-0.198c-0.221-0.141-0.332-0.215-0.332-0.215c-0.222-0.153-0.333-0.233-0.333-0.233
			c-0.222-0.166-0.334-0.252-0.334-0.252c-0.223-0.179-0.334-0.272-0.334-0.272c-5.421-5.369-13.84-20.031-10.318-31.244
			c3.004-8.301,13.352-12.146,20.991-16.164c4.459-2.378,9.114-5.033,12.836-9.275c21.648,7.438,43.97,13.952,67.191,14.729
			c49.788,0.94,44.736,3.201,78.842,14.331c0,0,21.143,5.406,21.143,5.406l19.102,5.363c0.965,4.507,0.766,8.585,0.424,13.74
			c0.015,0.192,0.021,0.255,0.021,0.255c0.021,0.184,0.03,0.244,0.03,0.244c0.039,0.233,0.05,0.289,0.05,0.289
			c0.051,0.219,0.065,0.272,0.065,0.272c0.064,0.205,0.081,0.254,0.081,0.254c0.099,0.237,0.109,0.26,0.109,0.26
			c0.131,0.238,0.144,0.259,0.144,0.259c0.172,0.233,0.187,0.251,0.187,0.251c0.238,0.236,0.257,0.252,0.257,0.252
			c0.234,0.173,0.255,0.187,0.255,0.187c0.215,0.124,0.259,0.147,0.259,0.147c0.232,0.105,0.28,0.124,0.28,0.124
			c0.197,0.07,0.247,0.086,0.247,0.086c0.206,0.058,0.259,0.071,0.259,0.071c0.214,0.046,0.269,0.056,0.269,0.056
			c0.221,0.034,0.278,0.042,0.278,0.042c0.227,0.023,0.285,0.028,0.285,0.028c0.232,0.013,0.291,0.014,0.291,0.014
			c0.762,0.003,0.838-0.026,2.084-0.153c0.23-0.019,0.344-0.027,0.344-0.027c0.224-0.01,0.279-0.012,0.279-0.012
			c0.217,0,0.27,0.002,0.27,0.002c0.209,0.014,0.26,0.019,0.26,0.019c0.224,0.034,0.248,0.039,0.248,0.039
			c0.235,0.062,0.257,0.07,0.257,0.07c0.218,0.092,0.239,0.103,0.239,0.103c0.22,0.139,0.24,0.153,0.24,0.153
			c0.236,0.215,0.254,0.233,0.254,0.233c0.182,0.224,0.198,0.246,0.198,0.246c0.153,0.238,0.183,0.289,0.183,0.289
			c0.115,0.217,0.142,0.274,0.142,0.274c0.082,0.179,0.108,0.24,0.108,0.24c1.899,5.733,2.197,11.719,5.059,17.739
			c0.118,0.219,0.157,0.289,0.157,0.289c0.12,0.202,0.161,0.266,0.161,0.266c0.125,0.185,0.168,0.245,0.168,0.245
			c0.178,0.224,0.201,0.25,0.201,0.25c0.217,0.226,0.242,0.249,0.242,0.249c0.212,0.179,0.239,0.2,0.239,0.2
			c0.233,0.16,0.263,0.179,0.263,0.179c0.224,0.125,0.258,0.142,0.258,0.142c0.209,0.097,0.246,0.112,0.246,0.112
			c0.227,0.088,0.307,0.115,0.307,0.115c0.164,0.053,0.249,0.078,0.249,0.078c0.176,0.048,0.267,0.072,0.267,0.072
			c11.888,0.927,26.573,1.032,38.541-0.33c0.233-0.065,0.344-0.098,0.344-0.098c0.21-0.069,0.261-0.087,0.261-0.087
			c0.193-0.073,0.239-0.092,0.239-0.092c0.218-0.098,0.26-0.118,0.26-0.118c0.232-0.126,0.268-0.148,0.268-0.148
			c0.234-0.159,0.265-0.182,0.265-0.182c0.226-0.198,0.251-0.224,0.251-0.224c0.187-0.216,0.209-0.244,0.209-0.244
			c0.156-0.235,0.173-0.265,0.173-0.265c0.115-0.222,0.13-0.254,0.13-0.254c0.086-0.203,0.113-0.273,0.113-0.273
			c0.076-0.217,0.101-0.292,0.101-0.292c0.493-1.709,0.645-3.734,0.166-5.761c-0.065-0.232-0.089-0.308-0.089-0.308
			c-0.076-0.222-0.103-0.295-0.103-0.295c-0.087-0.213-0.118-0.283-0.118-0.283c-0.099-0.205-0.133-0.272-0.133-0.272
			c-0.111-0.198-0.15-0.263-0.15-0.263c-0.124-0.192-0.168-0.254-0.168-0.254c-0.138-0.186-0.187-0.247-0.187-0.247
			c-0.153-0.182-0.207-0.241-0.207-0.241c-0.228-0.237-0.288-0.295-0.288-0.295c-0.189-0.174-0.255-0.232-0.255-0.232
			c-0.206-0.173-0.278-0.23-0.278-0.23c-5.124-3.173-11.617-5.924-16.634-10.032c-0.956-0.708-2.78-1.682-4.186-2.675
			c-0.205-0.157-0.272-0.21-0.272-0.21c-0.197-0.163-0.261-0.219-0.261-0.219c-0.188-0.171-0.249-0.23-0.249-0.23
			c-0.179-0.181-0.238-0.244-0.238-0.244c-0.171-0.193-0.226-0.26-0.226-0.26c-0.162-0.207-0.215-0.278-0.215-0.278
			c-0.154-0.222-0.203-0.298-0.203-0.298c-0.145-0.237-0.191-0.319-0.191-0.319c-0.091-0.168-0.135-0.253-0.135-0.253
			c-0.086-0.175-0.128-0.265-0.128-0.265c-0.081-0.183-0.121-0.277-0.121-0.277c-0.076-0.191-0.113-0.289-0.113-0.289
			c-0.071-0.199-0.105-0.301-0.105-0.301c-1.329-4.425-0.066-8.842,0.931-13.862c28.25-9.865,55.882-27.362,70.877-54.453
			c4.609-8.931,5.282-22.024,6.349-32.341c0.515-6.158,2.925-15.095,4.039-18.221c22.681-66.559,14.353-70.568,65.735-66.799
			c6.024,0.563,12.924-0.227,17.934-5.109l3.405-2.863c2.228-1.918,5.328-3.798,8.661-5.154c2.378-1.046,5.526-2.025,7.924-3.72
			c0.216-0.16,0.322-0.242,0.322-0.242c0.209-0.168,0.313-0.254,0.313-0.254c0.203-0.176,0.303-0.267,0.303-0.267
			c0.196-0.185,0.292-0.281,0.292-0.281c0.188-0.195,0.281-0.295,0.281-0.295c0.181-0.205,0.269-0.31,0.269-0.31
			c0.173-0.216,0.257-0.326,0.257-0.326c0.164-0.227,0.244-0.343,0.244-0.343c0.245-0.375,0.445-0.697,0.718-1.268
			c0.211-0.206,0.267-0.246,0.267-0.246c0.223-0.174,0.279-0.22,0.279-0.22c0.221-0.195,0.276-0.246,0.276-0.246
			c0.218-0.215,0.273-0.271,0.273-0.271c1.837-2.046,3.284-5.016,3.262-8.116c-0.013-0.235-0.02-0.312-0.02-0.312
			c-0.025-0.228-0.034-0.293-0.034-0.293c-0.031-0.192-0.043-0.255-0.043-0.255c-0.04-0.187-0.054-0.248-0.054-0.248
			c-0.048-0.182-0.065-0.242-0.065-0.242c-0.076-0.235-0.097-0.293-0.097-0.293c-0.09-0.227-0.114-0.283-0.114-0.283
			c-0.102-0.22-0.13-0.273-0.13-0.273c-0.115-0.212-0.145-0.264-0.145-0.264c-0.127-0.204-0.16-0.255-0.16-0.255
			c-0.138-0.197-0.174-0.246-0.174-0.246c-0.188-0.237-0.227-0.283-0.227-0.283c-0.204-0.227-0.246-0.271-0.246-0.271
			c-0.219-0.217-0.264-0.259-0.264-0.259c-0.233-0.207-0.33-0.287-0.33-0.287c-0.198-0.157-0.3-0.234-0.3-0.234
			c-0.208-0.15-0.315-0.224-0.315-0.224c-0.218-0.143-0.329-0.213-0.329-0.213c-0.227-0.137-0.342-0.203-0.342-0.203
			c-1.828-0.989-3.966-1.748-6.494-2.045c-8.704-5.884-22.525-11.148-32.761-14.917c-11.101-4.549-17.741-6.559-23.888-21.469
			c-0.175-0.233-0.264-0.348-0.264-0.348c-0.183-0.224-0.277-0.335-0.277-0.335c-0.192-0.216-0.29-0.323-0.29-0.323
			c-0.2-0.209-0.302-0.311-0.302-0.311c-0.208-0.202-0.315-0.301-0.315-0.301c-30.896-21.123-96.067-21.303-97.588,28.411
			c-5.726,10.189-6.636,11.435-13.641,22.833c-21.21,30.074-15.846,40.917-35.452,44.317l-7.482,1.203
			c-4.15,0.683-8.492,1.825-13.092,3.391l-13.008,4.542c-22.018,8.596-49.667,3.113-72.41,3.412
			c-32.25,0.323-68.234,2.886-99.564-0.812c-27.219-1.793-66.546,5.706-73.388,37.623
			C146.506,420.615,147.212,434.581,153.785,446.798z"/>
	</g>
</g>
</svg>
