<?xml version="1.0" encoding="utf-8"?>
<!-- Generator: Adobe Illustrator 24.0.1, SVG Export Plug-In . SVG Version: 6.00 Build 0)  -->
<!DOCTYPE svg PUBLIC "-//W3C//DTD SVG 1.1//EN" "http://www.w3.org/Graphics/SVG/1.1/DTD/svg11.dtd" [
	<!ENTITY ns_extend "http://ns.adobe.com/Extensibility/1.0/">
	<!ENTITY ns_ai "http://ns.adobe.com/AdobeIllustrator/10.0/">
	<!ENTITY ns_graphs "http://ns.adobe.com/Graphs/1.0/">
	<!ENTITY ns_vars "http://ns.adobe.com/Variables/1.0/">
	<!ENTITY ns_imrep "http://ns.adobe.com/ImageReplacement/1.0/">
	<!ENTITY ns_sfw "http://ns.adobe.com/SaveForWeb/1.0/">
	<!ENTITY ns_custom "http://ns.adobe.com/GenericCustomNamespace/1.0/">
	<!ENTITY ns_adobe_xpath "http://ns.adobe.com/XPath/1.0/">
]>
<svg version="1.1" xmlns:x="&ns_extend;" xmlns:i="&ns_ai;" xmlns:graph="&ns_graphs;"
	 xmlns="http://www.w3.org/2000/svg" xmlns:xlink="http://www.w3.org/1999/xlink" x="0px" y="0px" viewBox="0 0 750 750"
	 enable-background="new 0 0 750 750" xml:space="preserve">
<metadata>
	<sfw  xmlns="&ns_sfw;">
		<slices></slices>
		<sliceSourceBounds  bottomLeftOrigin="true" height="14825" width="8203.412" x="-3962.412" y="-6975"></sliceSourceBounds>
	</sfw>
</metadata>
<g id="FILL-BACKGROUND">
	<rect fill="#FFFFFF" width="750" height="750"/>
</g>
<g id="N-DIMENSIONS">
</g>
<g id="N-TEXT">
</g>
<g id="AG-DIAGRAM">
	<g id="POLYLINE_2838_">
		<g>
			<g>
				
					<line fill="none" stroke="#FB8604" stroke-width="3.25" stroke-linecap="round" stroke-linejoin="round" x1="148.995" y1="573.911" x2="150.995" y2="573.911"/>
				
					<line fill="none" stroke="#FB8604" stroke-width="3.25" stroke-linecap="round" stroke-linejoin="round" stroke-dasharray="3.9696,6.9468" x1="157.941" y1="573.911" x2="547.458" y2="573.911"/>
				
					<line fill="none" stroke="#FB8604" stroke-width="3.25" stroke-linecap="round" stroke-linejoin="round" x1="550.932" y1="573.911" x2="552.932" y2="573.911"/>
			</g>
		</g>
	</g>
</g>
<g id="AG-DETAIL">
	<g id="POLYLINE_121_">
		<path fill="none" stroke="#FB8604" stroke-width="2" stroke-linecap="round" stroke-linejoin="round" stroke-miterlimit="10" d="
			M499.21,446.414c-0.467-12.41,2.023-29.537,3.171-41.934l0.732-9.978c-0.223-18.525,18.629-18.744,27.853-32.931
			c2.447-4.38,3.178-10.129,5.821-14.884c13.59-18.339,27.989-10.423,27.808-50.324c-3.025-30.793,8.136-42.799,38.691-27.752
			c8.424,3.239,16.133,6.221,25.317-0.216"/>
	</g>
</g>
<g id="AG-GUIDES">
</g>
<g id="AG-PEOPLE">
</g>
<g id="AG-ANIMALS">
	<g id="POLYLINE_197_">
		
			<path fill="none" stroke="#FB8604" stroke-width="2.75" stroke-linecap="round" stroke-linejoin="round" stroke-miterlimit="10" d="
			M247.838,290.439c-10.293,15.564,0.445,39.551,22.288,37.651c22.805-5.881,33.593-35.944,23.556-57.491
			c-11.932-27.41-29.761-33.209-61.913-23.253c-41.943,12.686-43.683,41.884-26.237,80.617
			c10.591,22.767-12.264,43.131-17.158,64.695c-2.089,13.867,2.042,31.412,3.977,45.428c2.081,12.776,1.56,25.714-2.61,38.498
			c-3.317,13.998-18.015,11.901-20.995,38.817c-1.993,20.72-10.539,42.075-2.028,55.636c0.16,0.182,0.214,0.241,0.214,0.241
			c0.165,0.172,0.22,0.228,0.22,0.228c0.171,0.163,0.229,0.215,0.229,0.215c0.179,0.154,0.24,0.203,0.24,0.203
			c0.189,0.145,0.253,0.192,0.253,0.192c0.133,0.092,0.2,0.136,0.2,0.136c0.139,0.087,0.21,0.13,0.21,0.13
			c0.146,0.083,0.222,0.124,0.222,0.124c0.154,0.079,0.234,0.118,0.234,0.118c0.163,0.076,0.247,0.112,0.247,0.112
			c0.172,0.072,0.261,0.107,0.261,0.107c9.098,1.931,19.269,1.72,28.787-0.442c0.184-0.078,0.244-0.105,0.244-0.105
			c0.177-0.083,0.234-0.112,0.234-0.112c0.169-0.088,0.224-0.118,0.224-0.118c0.161-0.093,0.213-0.125,0.213-0.125
			c0.153-0.098,0.203-0.132,0.203-0.132c0.192-0.139,0.239-0.175,0.239-0.175c0.179-0.149,0.222-0.187,0.222-0.187
			c0.165-0.159,0.205-0.2,0.205-0.2c0.152-0.169,0.188-0.213,0.188-0.213c0.138-0.18,0.171-0.227,0.171-0.227
			c0.124-0.192,0.154-0.241,0.154-0.241c0.084-0.152,0.11-0.204,0.11-0.204c0.075-0.159,0.099-0.213,0.099-0.213
			c0.067-0.167,0.088-0.223,0.088-0.223c0.06-0.181,0.08-0.247,0.08-0.247c0.037-0.135,0.054-0.203,0.054-0.203
			c0.032-0.139,0.047-0.21,0.047-0.21c0.027-0.143,0.039-0.216,0.039-0.216c0.022-0.148,0.031-0.222,0.031-0.222
			c0.249-3.04-0.909-6.315-3.191-8.765c-0.208-0.202-0.297-0.301-0.654-0.6c-2.076-1.749-4.861-2.113-7.583-3.262
			c-0.166-0.081-0.221-0.108-0.221-0.108c-0.159-0.085-0.211-0.114-0.211-0.114c-0.152-0.089-0.201-0.12-0.201-0.12
			c-0.191-0.126-0.227-0.152-0.227-0.152c-0.174-0.132-0.208-0.159-0.208-0.159c-0.193-0.169-0.224-0.199-0.224-0.199
			c-0.177-0.181-0.205-0.212-0.205-0.212c-0.161-0.192-0.186-0.225-0.186-0.225c-0.122-0.169-0.146-0.203-0.146-0.203
			c-0.112-0.177-0.134-0.213-0.134-0.213c-0.102-0.185-0.122-0.222-0.122-0.222c-0.093-0.192-0.111-0.232-0.111-0.232
			c-0.068-0.16-0.1-0.241-0.1-0.241c-0.061-0.166-0.09-0.25-0.09-0.25c-0.055-0.172-0.08-0.259-0.08-0.259
			c-0.048-0.178-0.071-0.268-0.071-0.268c-1.719-13.893,4.459-30.681,14.822-41.67c13.468-13.701,33.483-22.778,46.68-36.952
			c8.158-8.214,13.308-19.345,20.096-28.63c22.286-24.638,37.862-29.877,33.245-71.438"/>
	</g>
	<g id="POLYLINE_196_">
		
			<path fill="none" stroke="#FB8604" stroke-width="2.75" stroke-linecap="round" stroke-linejoin="round" stroke-miterlimit="10" d="
			M634.964,276.454c-0.18-0.032-0.2-0.036-0.2-0.036c-0.182-0.052-0.202-0.059-0.202-0.059c-0.163-0.063-0.204-0.081-0.204-0.081
			c-0.165-0.08-0.206-0.102-0.206-0.102c-0.166-0.096-0.208-0.122-0.208-0.122c-0.167-0.111-0.209-0.14-0.209-0.14
			c-0.168-0.125-0.21-0.158-0.21-0.158c-0.126-0.103-0.21-0.175-0.21-0.175c-0.169-0.151-0.253-0.23-0.253-0.23
			c-0.169-0.165-0.253-0.251-0.253-0.251c-1.774-1.995-3.354-4.448-4.406-7.274c-0.054-0.18-0.079-0.268-0.079-0.268
			c-0.045-0.176-0.065-0.262-0.065-0.262c-0.036-0.172-0.051-0.256-0.051-0.256c-0.026-0.167-0.031-0.209-0.031-0.209
			c-0.017-0.164-0.021-0.204-0.021-0.204c-0.008-0.16-0.009-0.199-0.009-0.199c0.001-0.156,0.002-0.194,0.002-0.194
			c0.014-0.189,0.018-0.226,0.018-0.226c0.029-0.183,0.036-0.219,0.036-0.219c0.044-0.176,0.055-0.211,0.055-0.211
			c0.06-0.169,0.074-0.203,0.074-0.203c0.091-0.188,0.107-0.217,0.107-0.217c0.105-0.168,0.124-0.195,0.124-0.195
			c0.145-0.185,0.168-0.211,0.168-0.211c0.168-0.174,0.193-0.198,0.193-0.198c0.188-0.162,0.217-0.185,0.217-0.185
			c0.177-0.13,0.207-0.151,0.207-0.151c0.157-0.101,0.222-0.14,0.222-0.14c0.133-0.076,0.202-0.112,0.202-0.112
			c0.14-0.07,0.211-0.104,0.211-0.104c0.145-0.065,0.219-0.096,0.219-0.096c0.151-0.06,0.227-0.089,0.227-0.089
			c0.155-0.055,0.234-0.081,0.234-0.081c0.159-0.049,0.24-0.073,0.24-0.073c0.614-0.164,1.233-0.277,2.035-0.286
			c0.177,0.001,0.266,0.003,0.266,0.003c0.176,0.007,0.264,0.012,0.264,0.012c0.174,0.014,0.261,0.022,0.261,0.022
			c0.173,0.02,0.258,0.032,0.258,0.032c0.17,0.027,0.255,0.042,0.255,0.042c0.168,0.034,0.251,0.052,0.251,0.052
			c0.165,0.041,0.247,0.063,0.247,0.063c0.162,0.048,0.243,0.073,0.243,0.073c0.159,0.055,0.238,0.084,0.238,0.084
			c0.156,0.062,0.232,0.095,0.232,0.095c0.152,0.069,0.227,0.106,0.227,0.106c0.184,0.097,0.22,0.117,0.22,0.117
			c0.179,0.106,0.214,0.129,0.214,0.129c0.173,0.116,0.207,0.14,0.207,0.14c0.167,0.126,0.199,0.152,0.199,0.152
			c0.191,0.164,0.222,0.192,0.222,0.192c0.181,0.178,0.211,0.209,0.211,0.209c0.171,0.192,0.199,0.225,0.199,0.225
			c0.134,0.171,0.16,0.207,0.16,0.207c0.126,0.182,0.15,0.22,0.15,0.22c0.111,0.182,0.14,0.231,0.14,0.231
			c0.082,0.151,0.108,0.202,0.108,0.202c0.077,0.157,0.102,0.21,0.102,0.21c0.072,0.162,0.094,0.217,0.094,0.217
			c0.923,2.485,0.868,5.562-0.356,8.199c-0.075,0.146-0.114,0.218-0.114,0.218c-0.079,0.14-0.119,0.208-0.119,0.208
			c-0.082,0.133-0.124,0.198-0.124,0.198c-0.129,0.187-0.173,0.247-0.173,0.247c-0.135,0.171-0.158,0.199-0.158,0.199
			c-0.164,0.182-0.188,0.207-0.188,0.207c-0.171,0.162-0.196,0.183-0.196,0.183c-0.177,0.14-0.203,0.159-0.203,0.159
			c-0.183,0.118-0.209,0.133-0.209,0.133c-0.188,0.094-0.215,0.106-0.215,0.106c-0.193,0.069-0.221,0.077-0.221,0.077
			c-0.169,0.038-0.198,0.043-0.198,0.043c-0.172,0.018-0.201,0.019-0.201,0.019C635.038,276.461,635.023,276.46,634.964,276.454z"/>
	</g>
	<g id="POLYLINE_195_">
		
			<path fill="none" stroke="#FB8604" stroke-width="2.75" stroke-linecap="round" stroke-linejoin="round" stroke-miterlimit="10" d="
			M539.262,224.71c12.914-11.054,27.314-16.381,41.699-25.434c0.148-0.044,0.221-0.064,0.221-0.064
			c0.145-0.037,0.217-0.054,0.217-0.054c0.143-0.03,0.213-0.043,0.213-0.043c0.14-0.023,0.209-0.033,0.209-0.033
			c0.172-0.019,0.206-0.021,0.206-0.021c0.168-0.009,0.202-0.01,0.202-0.01c0.165,0.001,0.197,0.002,0.197,0.002
			c0.193,0.015,0.225,0.019,0.225,0.019c0.188,0.03,0.219,0.036,0.219,0.036c0.16,0.039,0.2,0.05,0.2,0.05
			c0.156,0.051,0.194,0.065,0.194,0.065c0.189,0.08,0.225,0.098,0.225,0.098c0.181,0.097,0.217,0.118,0.217,0.118
			c0.173,0.112,0.207,0.136,0.207,0.136c0.165,0.127,0.197,0.154,0.197,0.154c0.187,0.17,0.217,0.2,0.217,0.2
			c0.174,0.188,0.202,0.221,0.202,0.221c0.135,0.169,0.161,0.204,0.161,0.204c0.125,0.18,0.149,0.217,0.149,0.217
			c0.114,0.19,0.136,0.229,0.136,0.229c0.084,0.158,0.104,0.199,0.104,0.199c0.076,0.164,0.094,0.205,0.094,0.205
			c0.069,0.169,0.085,0.211,0.085,0.211c0.061,0.173,0.075,0.217,0.075,0.217c0.053,0.177,0.065,0.221,0.065,0.221
			c0.044,0.18,0.054,0.225,0.054,0.225c0.036,0.183,0.043,0.229,0.043,0.229c0.027,0.185,0.032,0.231,0.032,0.231
			c0.018,0.186,0.021,0.233,0.021,0.233c0.008,0.188,0.009,0.235,0.009,0.235c-0.001,0.188-0.002,0.235-0.002,0.235
			c-0.011,0.188-0.015,0.235-0.015,0.235c-0.018,0.168-0.028,0.243-0.028,0.243c-0.024,0.149-0.038,0.223-0.038,0.223
			c-0.031,0.148-0.049,0.222-0.049,0.222c-0.038,0.148-0.059,0.222-0.059,0.222c-0.045,0.148-0.069,0.222-0.069,0.222
			c-0.052,0.148-0.079,0.221-0.079,0.221c-0.058,0.148-0.089,0.221-0.089,0.221c-0.748,1.958-3.683,4.944-5.243,6.777
			c-9.63,10.367-12.116,25.24-16.353,38.713c-3.185,5.513-10.049,7.25-16.678,7.522"/>
	</g>
	<g id="POLYLINE_194_">
		
			<path fill="none" stroke="#FB8604" stroke-width="2.75" stroke-linecap="round" stroke-linejoin="round" stroke-miterlimit="10" d="
			M293.697,306.591c41.363,2.847,83.829,2.229,124.564-6.618c7.412-1.412,16.727-2.239,24.226-2.795
			c21.144,0.415,28.518-17.683,39.692-34.551c17.502-22.897,38.49-51.858,71.145-48.029"/>
	</g>
	<g id="POLYLINE_193_">
		
			<path fill="none" stroke="#FB8604" stroke-width="2.75" stroke-linecap="round" stroke-linejoin="round" stroke-miterlimit="10" d="
			M574.316,219.767c10.64,3.61,19.727,11.293,24.866,22.164c6.547,12.743,23.341,14.218,34.846,21.381"/>
	</g>
	<g id="POLYLINE_192_">
		
			<path fill="none" stroke="#FB8604" stroke-width="2.75" stroke-linecap="round" stroke-linejoin="round" stroke-miterlimit="10" d="
			M435.87,391.709c-1.615,11.162,0.056,23.341,6.146,33.533c6.917,13.631,5.144,31.988,8.202,46.885
			c6.98,28.971,2.511,49.973,11.58,72.943c3.737,8.895,3.903,22.249,13.319,27.53c10.498,1.743,22.292,2.474,32.933-0.644
			c0.162-0.087,0.214-0.116,0.214-0.116c0.154-0.09,0.204-0.12,0.204-0.12c0.194-0.125,0.241-0.157,0.241-0.157
			c0.182-0.13,0.226-0.164,0.226-0.164c0.17-0.136,0.211-0.171,0.211-0.171c0.158-0.142,0.196-0.178,0.196-0.178
			c0.182-0.185,0.217-0.223,0.217-0.223c0.133-0.155,0.165-0.194,0.165-0.194c0.122-0.161,0.151-0.202,0.151-0.202
			c0.111-0.167,0.138-0.21,0.138-0.21c0.101-0.174,0.124-0.218,0.124-0.218c0.09-0.18,0.111-0.226,0.111-0.226
			c0.08-0.187,0.099-0.234,0.099-0.234c0.07-0.193,0.086-0.242,0.086-0.242c0.046-0.149,0.06-0.2,0.06-0.2
			c0.04-0.154,0.053-0.206,0.053-0.206c0.035-0.158,0.045-0.211,0.045-0.211c0.435-3.212-0.607-6.662-2.53-9.586
			c-0.122-0.166-0.184-0.247-0.184-0.247c-0.125-0.156-0.188-0.232-0.188-0.232c-0.127-0.147-0.191-0.218-0.191-0.218
			c-0.13-0.138-0.196-0.205-0.196-0.205c-0.133-0.129-0.201-0.192-0.201-0.192c-0.137-0.121-0.207-0.18-0.207-0.18
			c-0.141-0.113-0.213-0.168-0.213-0.168c-0.146-0.106-0.22-0.157-0.22-0.157c-0.151-0.099-0.227-0.147-0.227-0.147
			c-0.156-0.092-0.236-0.137-0.236-0.137c-0.162-0.086-0.244-0.128-0.244-0.128c-0.168-0.08-0.253-0.119-0.253-0.119
			c-0.174-0.075-0.263-0.111-0.263-0.111c-4.77-1.654-10.534-0.893-15.456-3.6c-0.169-0.104-0.251-0.156-0.251-0.156
			c-0.162-0.108-0.241-0.164-0.241-0.164c-0.155-0.113-0.23-0.171-0.23-0.171c-0.142-0.113-0.208-0.169-0.208-0.169
			c-0.193-0.17-0.255-0.229-0.255-0.229c-0.181-0.179-0.239-0.24-0.239-0.24c-0.169-0.187-0.223-0.25-0.223-0.25
			c-0.106-0.129-0.158-0.195-0.158-0.195c-0.1-0.133-0.149-0.201-0.149-0.201c-0.095-0.137-0.141-0.206-0.141-0.206
			c-0.09-0.141-0.134-0.212-0.134-0.212c-0.085-0.144-0.126-0.218-0.126-0.218c-1.518-2.514-1.511-7.94-1.849-11.085
			c-0.976-9.745-2.677-19.61-0.853-29.668c9.84-36.72,7.712-70.458,32.103-88.825c12.619-9.38,24.633-17.525,28.917-33.01
			c1.727-6.231,3.194-11.581,6.297-17.901c33.616-64.097,16.903-75.14,54.06-75.609c12.455-1.042,24.683-2.919,29.333-18.304"/>
	</g>
	<g id="POLYLINE_191_">
		
			<path fill="none" stroke="#FB8604" stroke-width="2.75" stroke-linecap="round" stroke-linejoin="round" stroke-miterlimit="10" d="
			M292.59,420.489c69.501,3.447,88.317,7.649,126.322,24.545c8.74,3.945,18.977,5.812,28.874,6.043"/>
	</g>
</g>
<g id="AG-OUTLINE">
	<g id="POLYLINE_5_">
		
			<path fill="none" stroke="#FB8604" stroke-width="3.5" stroke-linecap="round" stroke-linejoin="round" stroke-miterlimit="10" d="
			M293.697,306.591c6.922-16.287,4.106-34.299-8.246-50.047c-11.691-17.706-35.975-15.153-53.983-9.098
			c-45.199,14.012-41.743,45.289-24.405,84.587c6.403,22.005-14.452,40.313-18.762,61.073c-1.915,13.734,2.122,31.112,4.048,44.98
			c2.081,12.776,1.56,25.714-2.61,38.498c-3.317,13.998-18.015,11.901-20.995,38.817c-1.993,20.72-10.539,42.075-2.028,55.636
			c0.16,0.182,0.214,0.241,0.214,0.241c0.165,0.172,0.22,0.228,0.22,0.228c0.171,0.163,0.229,0.215,0.229,0.215
			c0.179,0.154,0.24,0.203,0.24,0.203c0.189,0.145,0.253,0.192,0.253,0.192c0.133,0.092,0.2,0.136,0.2,0.136
			c0.139,0.087,0.21,0.13,0.21,0.13c0.146,0.083,0.222,0.124,0.222,0.124c0.154,0.079,0.234,0.118,0.234,0.118
			c0.163,0.076,0.247,0.112,0.247,0.112c0.172,0.072,0.261,0.107,0.261,0.107c9.098,1.931,19.269,1.72,28.787-0.442
			c0.184-0.078,0.244-0.105,0.244-0.105c0.177-0.083,0.234-0.112,0.234-0.112c0.169-0.088,0.224-0.118,0.224-0.118
			c0.161-0.093,0.213-0.125,0.213-0.125c0.153-0.098,0.203-0.132,0.203-0.132c0.192-0.139,0.239-0.175,0.239-0.175
			c0.179-0.149,0.222-0.187,0.222-0.187c0.165-0.159,0.205-0.2,0.205-0.2c0.152-0.169,0.188-0.213,0.188-0.213
			c0.138-0.18,0.171-0.227,0.171-0.227c0.124-0.192,0.154-0.241,0.154-0.241c0.084-0.152,0.11-0.204,0.11-0.204
			c0.075-0.159,0.099-0.213,0.099-0.213c0.067-0.167,0.088-0.223,0.088-0.223c0.06-0.181,0.08-0.247,0.08-0.247
			c0.037-0.135,0.054-0.203,0.054-0.203c0.032-0.139,0.047-0.21,0.047-0.21c0.027-0.143,0.039-0.216,0.039-0.216
			c0.022-0.148,0.031-0.222,0.031-0.222c0.249-3.04-0.909-6.315-3.191-8.765c-0.208-0.202-0.297-0.301-0.654-0.6
			c-2.076-1.749-4.861-2.113-7.583-3.262c-0.166-0.081-0.221-0.108-0.221-0.108c-0.159-0.085-0.211-0.114-0.211-0.114
			c-0.152-0.089-0.201-0.12-0.201-0.12c-0.191-0.126-0.227-0.152-0.227-0.152c-0.174-0.132-0.208-0.159-0.208-0.159
			c-0.193-0.169-0.224-0.199-0.224-0.199c-0.177-0.181-0.205-0.212-0.205-0.212c-0.161-0.192-0.186-0.225-0.186-0.225
			c-0.122-0.169-0.146-0.203-0.146-0.203c-0.112-0.177-0.134-0.213-0.134-0.213c-0.102-0.185-0.122-0.222-0.122-0.222
			c-0.093-0.192-0.111-0.232-0.111-0.232c-0.068-0.16-0.1-0.241-0.1-0.241c-0.061-0.166-0.09-0.25-0.09-0.25
			c-0.055-0.172-0.08-0.259-0.08-0.259c-0.048-0.178-0.071-0.268-0.071-0.268c-1.722-14.04,4.547-30.956,15.112-41.973
			c14.862-14.833,35.505-23.437,49.156-39.704c6.367-7.315,11.233-17.179,17.052-25.199c6.954-9.693,17.505-15.683,24.355-25.655
			c69.501,3.447,88.317,7.649,126.322,24.545c8.74,3.945,18.977,5.812,28.874,6.043l0.957,10.62
			c0.335,3.313,0.841,6.876,1.476,10.429c6.98,28.971,2.511,49.973,11.58,72.943c3.737,8.895,3.903,22.249,13.319,27.53
			c10.498,1.743,22.292,2.474,32.933-0.644c0.162-0.087,0.214-0.116,0.214-0.116c0.154-0.09,0.204-0.12,0.204-0.12
			c0.194-0.125,0.241-0.157,0.241-0.157c0.182-0.13,0.226-0.164,0.226-0.164c0.17-0.136,0.211-0.171,0.211-0.171
			c0.158-0.142,0.196-0.178,0.196-0.178c0.182-0.185,0.217-0.223,0.217-0.223c0.133-0.155,0.165-0.194,0.165-0.194
			c0.122-0.161,0.151-0.202,0.151-0.202c0.111-0.167,0.138-0.21,0.138-0.21c0.101-0.174,0.124-0.218,0.124-0.218
			c0.09-0.18,0.111-0.226,0.111-0.226c0.08-0.187,0.099-0.234,0.099-0.234c0.07-0.193,0.086-0.242,0.086-0.242
			c0.046-0.149,0.06-0.2,0.06-0.2c0.04-0.154,0.053-0.206,0.053-0.206c0.035-0.158,0.045-0.211,0.045-0.211
			c0.435-3.212-0.607-6.662-2.53-9.586c-0.122-0.166-0.184-0.247-0.184-0.247c-0.125-0.156-0.188-0.232-0.188-0.232
			c-0.127-0.147-0.191-0.218-0.191-0.218c-0.13-0.138-0.196-0.205-0.196-0.205c-0.133-0.129-0.201-0.192-0.201-0.192
			c-0.137-0.121-0.207-0.18-0.207-0.18c-0.141-0.113-0.213-0.168-0.213-0.168c-0.146-0.106-0.22-0.157-0.22-0.157
			c-0.151-0.099-0.227-0.147-0.227-0.147c-0.156-0.092-0.236-0.137-0.236-0.137c-0.162-0.086-0.244-0.128-0.244-0.128
			c-0.168-0.08-0.253-0.119-0.253-0.119c-0.174-0.075-0.263-0.111-0.263-0.111c-4.77-1.654-10.534-0.893-15.456-3.6
			c-0.169-0.104-0.251-0.156-0.251-0.156c-0.162-0.108-0.241-0.164-0.241-0.164c-0.155-0.113-0.23-0.171-0.23-0.171
			c-0.142-0.113-0.208-0.169-0.208-0.169c-0.193-0.17-0.255-0.229-0.255-0.229c-0.181-0.179-0.239-0.24-0.239-0.24
			c-0.169-0.187-0.223-0.25-0.223-0.25c-0.106-0.129-0.158-0.195-0.158-0.195c-0.1-0.133-0.149-0.201-0.149-0.201
			c-0.095-0.137-0.141-0.206-0.141-0.206c-0.09-0.141-0.134-0.212-0.134-0.212c-0.085-0.144-0.126-0.218-0.126-0.218
			c-1.518-2.514-1.511-7.94-1.849-11.085c-0.976-9.745-2.677-19.61-0.853-29.668c9.739-37.234,8.359-71.732,32.324-88.987
			c13.114-9.795,24.262-17.32,28.696-32.848c1.727-6.231,3.194-11.581,6.297-17.901c33.616-64.097,16.903-75.14,54.06-75.609
			c12.455-1.042,24.683-2.919,29.333-18.304c0.173-0.037,0.197-0.043,0.197-0.043c0.193-0.066,0.217-0.076,0.217-0.076
			c0.188-0.091,0.212-0.104,0.212-0.104c0.183-0.114,0.206-0.13,0.206-0.13c0.178-0.137,0.2-0.155,0.2-0.155
			c0.172-0.158,0.214-0.2,0.214-0.2c0.165-0.18,0.205-0.228,0.205-0.228c0.119-0.149,0.157-0.201,0.157-0.201
			c0.114-0.161,0.151-0.217,0.151-0.217c0.109-0.172,0.144-0.231,0.144-0.231c0.104-0.183,0.137-0.245,0.137-0.245
			c1.127-2.333,1.413-5.164,0.599-7.889c-0.06-0.174-0.081-0.231-0.081-0.231c-0.065-0.169-0.088-0.224-0.088-0.224
			c-0.07-0.164-0.094-0.217-0.094-0.217c-0.075-0.158-0.102-0.21-0.102-0.21c-0.081-0.152-0.108-0.202-0.108-0.202
			c-0.116-0.194-0.153-0.252-0.153-0.252c-0.116-0.17-0.156-0.225-0.156-0.225c-0.124-0.16-0.167-0.212-0.167-0.212
			c-0.131-0.15-0.176-0.198-0.176-0.198c-0.186-0.185-0.234-0.229-0.234-0.229c-0.147-0.128-0.197-0.169-0.197-0.169
			c-0.153-0.118-0.206-0.156-0.206-0.156c-0.159-0.109-0.214-0.144-0.214-0.144c-0.165-0.1-0.221-0.132-0.221-0.132
			c-0.17-0.091-0.228-0.119-0.228-0.119c-0.175-0.082-0.235-0.108-0.235-0.108c-0.18-0.073-0.241-0.096-0.241-0.096
			c-0.184-0.064-0.246-0.084-0.246-0.084c-0.188-0.056-0.251-0.073-0.251-0.073c-0.213-0.051-0.303-0.078-0.648-0.134
			c-11.395-7.298-27.704-8.066-34.846-21.381c-5.166-10.314-12.302-17.587-24.866-22.164c1.509-2.618,3.083-5.08,5.571-7.939
			c1.478-1.76,3.43-3.641,4.796-5.888c0.147-0.264,0.265-0.467,0.448-0.889c0.06-0.148,0.089-0.221,0.089-0.221
			c0.054-0.148,0.079-0.221,0.079-0.221c0.047-0.148,0.069-0.222,0.069-0.222c0.041-0.148,0.059-0.222,0.059-0.222
			c0.034-0.148,0.049-0.222,0.049-0.222c0.026-0.148,0.038-0.223,0.038-0.223c0.019-0.149,0.024-0.196,0.024-0.196
			c0.015-0.188,0.017-0.235,0.017-0.235c0.005-0.188,0.005-0.235,0.005-0.235c-0.005-0.188-0.007-0.235-0.007-0.235
			c-0.014-0.187-0.019-0.234-0.019-0.234c-0.023-0.185-0.03-0.232-0.03-0.232c-0.032-0.184-0.041-0.229-0.041-0.229
			c-0.041-0.181-0.052-0.226-0.052-0.226c-0.049-0.178-0.063-0.222-0.063-0.222c-0.057-0.174-0.073-0.218-0.073-0.218
			c-0.065-0.17-0.083-0.212-0.083-0.212c-0.073-0.166-0.092-0.207-0.092-0.207c-0.081-0.161-0.102-0.2-0.102-0.2
			c-0.111-0.193-0.134-0.231-0.134-0.231c-0.121-0.184-0.147-0.219-0.147-0.219c-0.131-0.173-0.159-0.207-0.159-0.207
			c-0.17-0.193-0.2-0.224-0.2-0.224c-0.183-0.176-0.215-0.203-0.215-0.203c-0.162-0.132-0.196-0.157-0.196-0.157
			c-0.171-0.117-0.206-0.139-0.206-0.139c-0.179-0.102-0.215-0.121-0.215-0.121c-0.186-0.086-0.224-0.101-0.224-0.101
			c-0.193-0.068-0.232-0.08-0.232-0.08c-0.159-0.041-0.2-0.05-0.2-0.05c-0.188-0.032-0.219-0.036-0.219-0.036
			c-0.193-0.017-0.225-0.019-0.225-0.019c-0.164-0.003-0.197-0.002-0.197-0.002c-0.168,0.007-0.202,0.01-0.202,0.01
			c-0.137,0.013-0.206,0.021-0.206,0.021c-0.139,0.02-0.209,0.033-0.209,0.033c-0.142,0.028-0.213,0.043-0.213,0.043
			c-0.144,0.035-0.217,0.054-0.217,0.054c-0.147,0.042-0.221,0.064-0.221,0.064c-8.635,5.294-18.236,10.37-27.638,15.321
			c-30.613-4.882-55.666,26.661-71.826,49.014c-11.831,16.336-14.33,32.168-39.011,33.566c-7.657,0.568-16.55,1.357-24.226,2.795
			C377.627,308.826,335.109,309.425,293.697,306.591z"/>
	</g>
</g>
</svg>
