<?xml version="1.0" encoding="utf-8"?>
<!-- Generator: Adobe Illustrator 24.0.1, SVG Export Plug-In . SVG Version: 6.00 Build 0)  -->
<!DOCTYPE svg PUBLIC "-//W3C//DTD SVG 1.1//EN" "http://www.w3.org/Graphics/SVG/1.1/DTD/svg11.dtd" [
	<!ENTITY ns_extend "http://ns.adobe.com/Extensibility/1.0/">
	<!ENTITY ns_ai "http://ns.adobe.com/AdobeIllustrator/10.0/">
	<!ENTITY ns_graphs "http://ns.adobe.com/Graphs/1.0/">
	<!ENTITY ns_vars "http://ns.adobe.com/Variables/1.0/">
	<!ENTITY ns_imrep "http://ns.adobe.com/ImageReplacement/1.0/">
	<!ENTITY ns_sfw "http://ns.adobe.com/SaveForWeb/1.0/">
	<!ENTITY ns_custom "http://ns.adobe.com/GenericCustomNamespace/1.0/">
	<!ENTITY ns_adobe_xpath "http://ns.adobe.com/XPath/1.0/">
]>
<svg version="1.1" xmlns:x="&ns_extend;" xmlns:i="&ns_ai;" xmlns:graph="&ns_graphs;"
	 xmlns="http://www.w3.org/2000/svg" xmlns:xlink="http://www.w3.org/1999/xlink" x="0px" y="0px" viewBox="0 0 750 750"
	 enable-background="new 0 0 750 750" xml:space="preserve">
<metadata>
	<sfw  xmlns="&ns_sfw;">
		<slices></slices>
		<sliceSourceBounds  bottomLeftOrigin="true" height="14825" width="8203.412" x="-3962.412" y="-6975"></sliceSourceBounds>
	</sfw>
</metadata>
<g id="FILL-BACKGROUND">
	<rect fill="#FFFFFF" width="750" height="750"/>
</g>
<g id="N-DIMENSIONS">
</g>
<g id="N-TEXT">
</g>
<g id="AG-DIAGRAM">
	<g id="POLYLINE_2840_">
		<g>
			<g>
				
					<line fill="none" stroke="#FB8604" stroke-width="3.25" stroke-linecap="round" stroke-linejoin="round" x1="154.652" y1="575.917" x2="156.652" y2="575.917"/>
				
					<line fill="none" stroke="#FB8604" stroke-width="3.25" stroke-linecap="round" stroke-linejoin="round" stroke-dasharray="3.9987,6.9977" x1="163.65" y1="575.917" x2="578.012" y2="575.917"/>
				
					<line fill="none" stroke="#FB8604" stroke-width="3.25" stroke-linecap="round" stroke-linejoin="round" x1="581.511" y1="575.917" x2="583.511" y2="575.917"/>
			</g>
		</g>
	</g>
</g>
<g id="AG-DETAIL">
</g>
<g id="AG-GUIDES">
</g>
<g id="AG-PEOPLE">
</g>
<g id="AG-ANIMALS">
	<g id="POLYLINE_119_">
		
			<path fill="none" stroke="#FB8604" stroke-width="2.75" stroke-linecap="round" stroke-linejoin="round" stroke-miterlimit="10" d="
			M295.91,422.53c12.013-8.647,55.978,13.137,67.538,14.998c26.263,6.972,53.754,9.59,80.357,0.772"/>
	</g>
	<g id="POLYLINE_108_">
		
			<path fill="none" stroke="#FB8604" stroke-width="2.75" stroke-linecap="round" stroke-linejoin="round" stroke-miterlimit="10" d="
			M208.805,356.459c-2.97,6.844-3.148,15.904-2.948,23.624c0.583,13.982-7.173,27.148-6.744,41.474
			c1.059,9.544,3.688,19.777,4.407,29.506l1.323,9.401c2.135,9.387-1.012,19.154-7.501,26.71
			c-5.527,6.931-5.889,17.422-6.477,26.298c-2.765,19.188-6.057,40.255,4.773,58.114c3.63,5.255,27.017,5.667,33.979,2.881
			c0.1-0.062,0.149-0.094,0.149-0.094c0.144-0.098,0.191-0.132,0.191-0.132c0.138-0.105,0.183-0.141,0.183-0.141
			c0.131-0.111,0.174-0.149,0.174-0.149c0.125-0.118,0.165-0.159,0.165-0.159c0.118-0.125,0.157-0.168,0.157-0.168
			c0.112-0.132,0.148-0.178,0.148-0.178c0.105-0.14,0.139-0.188,0.139-0.188c0.066-0.098,0.099-0.148,0.099-0.148
			c0.063-0.102,0.094-0.154,0.094-0.154c0.06-0.106,0.089-0.16,0.089-0.16c0.056-0.11,0.084-0.166,0.084-0.166
			c1.612-5.066,0.456-11.001-1.759-16.382c-0.077-0.122-0.103-0.161-0.103-0.161c-0.08-0.117-0.107-0.155-0.107-0.155
			c-0.084-0.113-0.112-0.149-0.112-0.149c-0.117-0.143-0.147-0.178-0.147-0.178c-0.123-0.136-0.155-0.169-0.155-0.169
			c-0.13-0.128-0.164-0.16-0.164-0.16c-0.138-0.121-0.173-0.15-0.173-0.15c-0.108-0.086-0.145-0.114-0.145-0.114
			c-0.113-0.081-0.152-0.108-0.152-0.108c-0.118-0.077-0.158-0.102-0.158-0.102c-0.123-0.072-0.165-0.096-0.165-0.096
			c-0.129-0.068-0.173-0.09-0.173-0.09c-0.134-0.064-0.18-0.084-0.18-0.084c-0.216-0.089-0.329-0.139-0.659-0.238
			c-3.269-0.902-7.254,0.011-10.777-1.418c-0.142-0.068-0.211-0.103-0.211-0.103c-0.136-0.073-0.202-0.112-0.202-0.112
			c-0.13-0.079-0.16-0.098-0.16-0.098c-0.118-0.079-0.147-0.1-0.147-0.1c-0.141-0.105-0.168-0.127-0.168-0.127
			c-0.108-0.089-0.16-0.134-0.16-0.134c-0.102-0.093-0.152-0.141-0.152-0.141c-0.097-0.098-0.144-0.148-0.144-0.148
			c-0.092-0.103-0.137-0.155-0.137-0.155c-0.087-0.107-0.129-0.162-0.129-0.162c-0.082-0.112-0.122-0.169-0.122-0.169
			c-0.078-0.116-0.116-0.175-0.116-0.175c-0.074-0.121-0.109-0.182-0.109-0.182c-0.069-0.125-0.103-0.188-0.103-0.188
			c-0.065-0.129-0.097-0.194-0.097-0.194c-1.161-2.609-1.013-5.803-1.484-9.077c-2.216-12.969-1.823-18.815,7.241-31.404l5.64-7.77
			c0.869-1.23,3.465-5.057,4.416-6.457c13.818-17.714,37.202-27.419,48.76-47.949c12.669-21.56,28.672-29.541,19.652-58.336"/>
	</g>
	<g id="POLYLINE_107_">
		
			<path fill="none" stroke="#FB8604" stroke-width="2.75" stroke-linecap="round" stroke-linejoin="round" stroke-miterlimit="10" d="
			M597.804,281.91c-2.921-3.019-3.743-8.01-2.469-12.243c0.052-0.119,0.07-0.159,0.07-0.159c0.056-0.116,0.075-0.155,0.075-0.155
			c0.06-0.113,0.08-0.151,0.08-0.151c0.064-0.11,0.085-0.147,0.085-0.147c0.091-0.143,0.115-0.178,0.115-0.178
			c0.098-0.138,0.124-0.171,0.124-0.171c0.105-0.132,0.133-0.165,0.133-0.165c0.113-0.127,0.142-0.158,0.142-0.158
			c0.121-0.122,0.152-0.152,0.152-0.152c0.129-0.117,0.162-0.145,0.162-0.145c0.138-0.111,0.173-0.138,0.173-0.138
			c0.109-0.08,0.146-0.106,0.146-0.106c0.114-0.076,0.153-0.101,0.153-0.101c0.12-0.073,0.16-0.097,0.16-0.097
			c0.121-0.066,0.107-0.063,0.336-0.176c0.129-0.06,0.195-0.089,0.195-0.089c4.036-1.32,9.116-1.129,13.357,0.972
			c0.112,0.076,0.149,0.101,0.149,0.101c0.143,0.105,0.178,0.132,0.178,0.132c0.136,0.111,0.169,0.139,0.169,0.139
			c0.129,0.116,0.16,0.146,0.16,0.146c0.122,0.122,0.151,0.153,0.151,0.153c0.114,0.128,0.142,0.16,0.142,0.16
			c0.107,0.134,0.133,0.168,0.133,0.168c0.1,0.14,0.124,0.176,0.124,0.176c0.07,0.11,0.093,0.147,0.093,0.147
			c0.066,0.114,0.087,0.152,0.087,0.152c0.061,0.118,0.081,0.158,0.081,0.158c0.057,0.122,0.075,0.163,0.075,0.163
			c0.052,0.126,0.069,0.169,0.069,0.169c0.048,0.131,0.063,0.175,0.063,0.175c0.044,0.135,0.058,0.181,0.058,0.181
			c0.039,0.14,0.052,0.188,0.052,0.188c0.626,3.863-0.444,8.087-2.589,11.877c-0.09,0.127-0.135,0.188-0.135,0.188
			c-0.092,0.119-0.138,0.177-0.138,0.177c-0.094,0.112-0.141,0.166-0.141,0.166c-0.096,0.104-0.145,0.155-0.145,0.155
			c-0.099,0.097-0.149,0.144-0.149,0.144c-0.128,0.112-0.154,0.134-0.154,0.134c-0.133,0.104-0.159,0.124-0.159,0.124
			c-0.137,0.096-0.165,0.114-0.165,0.114c-0.142,0.088-0.171,0.104-0.171,0.104c-0.118,0.065-0.148,0.08-0.148,0.08
			c-0.122,0.06-0.153,0.074-0.153,0.074c-0.126,0.055-0.19,0.081-0.19,0.081c-0.131,0.049-0.198,0.073-0.198,0.073
			c-0.137,0.044-0.206,0.065-0.206,0.065C604.619,285.121,600.588,284.36,597.804,281.91z"/>
	</g>
	<g id="POLYLINE_106_">
		
			<path fill="none" stroke="#FB8604" stroke-width="2.75" stroke-linecap="round" stroke-linejoin="round" stroke-miterlimit="10" d="
			M508.59,241.873c-10.691-16.265-2.728-53.307,17.814-63.688c0.117-0.021,0.176-0.03,0.176-0.03
			c0.116-0.016,0.174-0.023,0.174-0.023c0.115-0.012,0.172-0.016,0.172-0.016c0.113-0.007,0.151-0.009,0.151-0.009
			c0.111-0.003,0.148-0.003,0.148-0.003c0.11,0.001,0.147,0.002,0.147,0.002c0.145,0.008,0.181,0.011,0.181,0.011
			c0.143,0.015,0.179,0.019,0.179,0.019c0.141,0.021,0.176,0.027,0.176,0.027c0.139,0.028,0.174,0.035,0.174,0.035
			c0.137,0.034,0.172,0.043,0.172,0.043c0.136,0.04,0.169,0.051,0.169,0.051c0.134,0.046,0.167,0.059,0.167,0.059
			c0.132,0.052,0.198,0.08,0.198,0.08c0.13,0.059,0.195,0.091,0.195,0.091c0.129,0.066,0.192,0.101,0.192,0.101
			c0.127,0.073,0.19,0.112,0.19,0.112c0.125,0.08,0.187,0.122,0.187,0.122c0.123,0.086,0.185,0.131,0.185,0.131
			c0.122,0.093,0.182,0.141,0.182,0.141c6.963,8.994,11.746,20.378,12.969,32.286"/>
	</g>
	<g id="POLYLINE_105_">
		
			<path fill="none" stroke="#FB8604" stroke-width="2.75" stroke-linecap="round" stroke-linejoin="round" stroke-miterlimit="10" d="
			M552.758,201.002c5.816-7.009,10.297-14.691,16.033-22.248c0.187-0.18,0.284-0.283,0.615-0.563
			c0.137-0.111,0.205-0.164,0.205-0.164c0.137-0.102,0.205-0.151,0.205-0.151c0.137-0.094,0.205-0.138,0.205-0.138
			c0.137-0.085,0.205-0.125,0.205-0.125c0.137-0.075,0.171-0.093,0.171-0.093c0.137-0.067,0.171-0.083,0.171-0.083
			c0.137-0.059,0.171-0.073,0.171-0.073c0.137-0.051,0.171-0.062,0.171-0.062c0.137-0.042,0.171-0.051,0.171-0.051
			c0.125-0.031,0.171-0.04,0.171-0.04c0.137-0.024,0.182-0.031,0.182-0.031c0.137-0.015,0.182-0.019,0.182-0.019
			c0.136-0.006,0.182-0.007,0.182-0.007c0.136,0.003,0.181,0.005,0.181,0.005c0.135,0.011,0.181,0.016,0.181,0.016
			c0.135,0.02,0.18,0.028,0.18,0.028c0.134,0.028,0.179,0.039,0.179,0.039c0.133,0.036,0.177,0.05,0.177,0.05
			c0.132,0.044,0.176,0.06,0.176,0.06c0.131,0.052,0.174,0.07,0.174,0.07c0.13,0.06,0.173,0.081,0.173,0.081
			c0.128,0.067,0.171,0.091,0.171,0.091c0.127,0.074,0.169,0.1,0.169,0.1c0.125,0.081,0.166,0.11,0.166,0.11
			c0.123,0.088,0.164,0.119,0.164,0.119c0.121,0.095,0.161,0.128,0.161,0.128c0.119,0.102,0.159,0.137,0.159,0.137
			c0.117,0.108,0.156,0.145,0.156,0.145c0.115,0.114,0.153,0.154,0.153,0.154c0.112,0.121,0.149,0.162,0.149,0.162
			c4.968,5.361,1.042,24.884-0.406,32.823"/>
	</g>
	<g id="POLYLINE_104_">
		
			<path fill="none" stroke="#FB8604" stroke-width="2.75" stroke-linecap="round" stroke-linejoin="round" stroke-miterlimit="10" d="
			M608.544,267.337c-1.394-1.734-2.545-2.557-4.847-3.949c-7.443-4.635-16.299-7.277-16.064-18.565
			c2.061-28.609-18.063-41.868-47.598-46.455"/>
	</g>
	<g id="POLYLINE_103_">
		
			<path fill="none" stroke="#FB8604" stroke-width="2.75" stroke-linecap="round" stroke-linejoin="round" stroke-miterlimit="10" d="
			M505.276,209.839c-26.632,22.913-36.451,50.733-61.055,68.324c-33.545,22.249-96.827,30.483-125.541,28.239
			c-45.912-5.047-57.938,3.059-89.12,13.007c-7.694,3.023-16.807,1.012-22.65,7.783c-7.338,9.912-10.741,24.279-15.212,36.529
			c-5.441,14.06-3.576,30.202-9.944,44.52c-6.368,18.348-6.841,42.196-7.413,60.462c0.269,7.706-1.11,18.279,8.598,20.366
			c0.108,0.005,0.162,0.007,0.162,0.007c0.108,0.002,0.162,0.001,0.162,0.001c0.108-0.002,0.162-0.005,0.162-0.005
			c0.108-0.006,0.162-0.011,0.162-0.011c0.108-0.011,0.162-0.017,0.162-0.017c0.108-0.015,0.162-0.023,0.162-0.023
			c0.108-0.019,0.162-0.03,0.162-0.03c0.108-0.024,0.162-0.037,0.162-0.037c0.139-0.037,0.181-0.049,0.181-0.049
			c0.127-0.04,0.169-0.054,0.169-0.054c0.127-0.045,0.169-0.061,0.169-0.061c0.126-0.051,0.168-0.068,0.168-0.068
			c7.772-4.833,16.731-26.752,18.93-35.193"/>
	</g>
	<g id="POLYLINE_64_">
		
			<path fill="none" stroke="#FB8604" stroke-width="2.75" stroke-linecap="round" stroke-linejoin="round" stroke-miterlimit="10" d="
			M503.462,280.144c0.233,0.349,1.292,2.067,1.741,2.791c4.452,10.592,37.768,13.603,47.186,16.78
			c14.947,3.297,31.962,2.659,46.23-5.057c3.793-2.243,5.346-6.653,8.478-10.068"/>
	</g>
	<g id="POLYLINE_63_">
		
			<path fill="none" stroke="#FB8604" stroke-width="2.75" stroke-linecap="round" stroke-linejoin="round" stroke-miterlimit="10" d="
			M437.533,387.673c0.367,3.674,1.306,12.957,1.732,16.519c1.075,6.997,4.514,36.363,5.938,42.648
			c5.612,14.569,16.039,27.761,18.525,44.102c5.099,24.662,11.868,51.588,27.138,71.776c3.789,4.861,4.899,8.737,10.017,11.43
			c5.012,2.256,33.544,3.624,37.706-1.66c0.134-0.139,0.178-0.186,0.178-0.186c3.27-3.993,2.577-10.238,0.417-14.961
			c-0.071-0.115-0.114-0.181-0.114-0.181c-0.087-0.128-0.109-0.159-0.109-0.159c-0.089-0.119-0.111-0.148-0.111-0.148
			c-0.114-0.138-0.137-0.164-0.137-0.164c-0.117-0.126-0.141-0.149-0.141-0.149c-0.121-0.114-0.146-0.136-0.146-0.136
			c-0.125-0.103-0.151-0.123-0.151-0.123c-0.13-0.093-0.156-0.111-0.156-0.111c-0.134-0.084-0.162-0.1-0.162-0.1
			c-0.139-0.075-0.168-0.089-0.168-0.089c-0.145-0.067-0.174-0.079-0.174-0.079c-0.12-0.048-0.151-0.059-0.151-0.059
			c-0.093-0.033-0.156-0.053-0.156-0.053c-0.128-0.039-0.194-0.057-0.194-0.057c-0.134-0.034-0.202-0.049-0.202-0.049
			c-13.608-1.849-19.395,2.531-27.45-13.671c-2.851-5.692-4.448-10.454-4.35-17.513c1.02-12.945-3.202-27.705-5.322-40.477
			c-4.587-33.199-2.028-57.443,21.839-81.786c7.012-7.13,9.849-17.409,12.984-27.072c2.49-6.705,9.459-15.76,13.45-21.8
			c9.804-15.79,19.326-32.42,20.722-51.738"/>
	</g>
</g>
<g id="AG-OUTLINE">
	<g id="POLYLINE_248_">
		
			<path fill="none" stroke="#FB8604" stroke-width="3.5" stroke-linecap="round" stroke-linejoin="round" stroke-miterlimit="10" d="
			M203.852,453.53l0.99,6.933c2.135,9.387-1.012,19.154-7.501,26.71c-5.527,6.931-5.889,17.422-6.477,26.298
			c-2.765,19.188-6.057,40.255,4.773,58.114c3.63,5.255,27.017,5.667,33.979,2.881c0.1-0.062,0.149-0.094,0.149-0.094
			c0.144-0.098,0.191-0.132,0.191-0.132c0.138-0.105,0.183-0.141,0.183-0.141c0.131-0.111,0.174-0.149,0.174-0.149
			c0.125-0.118,0.165-0.159,0.165-0.159c0.118-0.125,0.157-0.168,0.157-0.168c0.112-0.132,0.148-0.178,0.148-0.178
			c0.105-0.14,0.139-0.188,0.139-0.188c0.066-0.098,0.099-0.148,0.099-0.148c0.063-0.102,0.094-0.154,0.094-0.154
			c0.06-0.106,0.089-0.16,0.089-0.16c0.056-0.11,0.084-0.166,0.084-0.166c1.612-5.066,0.456-11.001-1.759-16.382
			c-0.077-0.122-0.103-0.161-0.103-0.161c-0.08-0.117-0.107-0.155-0.107-0.155c-0.084-0.113-0.112-0.149-0.112-0.149
			c-0.117-0.143-0.147-0.178-0.147-0.178c-0.123-0.136-0.155-0.169-0.155-0.169c-0.13-0.128-0.164-0.16-0.164-0.16
			c-0.138-0.121-0.173-0.15-0.173-0.15c-0.108-0.086-0.145-0.114-0.145-0.114c-0.113-0.081-0.152-0.108-0.152-0.108
			c-0.118-0.077-0.158-0.102-0.158-0.102c-0.123-0.072-0.165-0.096-0.165-0.096c-0.129-0.068-0.173-0.09-0.173-0.09
			c-0.134-0.064-0.18-0.084-0.18-0.084c-0.216-0.089-0.329-0.139-0.659-0.238c-3.269-0.902-7.254,0.011-10.777-1.418
			c-0.142-0.068-0.211-0.103-0.211-0.103c-0.136-0.073-0.202-0.112-0.202-0.112c-0.13-0.079-0.16-0.098-0.16-0.098
			c-0.118-0.079-0.147-0.1-0.147-0.1c-0.141-0.105-0.168-0.127-0.168-0.127c-0.108-0.089-0.16-0.134-0.16-0.134
			c-0.102-0.093-0.152-0.141-0.152-0.141c-0.097-0.098-0.144-0.148-0.144-0.148c-0.092-0.103-0.137-0.155-0.137-0.155
			c-0.087-0.107-0.129-0.162-0.129-0.162c-0.082-0.112-0.122-0.169-0.122-0.169c-0.078-0.116-0.116-0.175-0.116-0.175
			c-0.074-0.121-0.109-0.182-0.109-0.182c-0.069-0.125-0.103-0.188-0.103-0.188c-0.065-0.129-0.097-0.194-0.097-0.194
			c-1.161-2.609-1.013-5.803-1.484-9.077c-2.216-12.969-1.823-18.815,7.241-31.404l5.64-7.77c0.869-1.23,3.465-5.057,4.416-6.457
			c13.818-17.714,37.202-27.419,48.76-47.949c5.104-8.213,12.217-17.371,17.511-25.616c12.304-8.283,55.174,12.99,66.846,14.97
			c26.518,7.101,54.081,9.778,80.877,0.915c0.247,9.681,5.441,18.209,10.625,26.906c4.408,7.764,7.077,16.63,9.298,25.736
			c5.099,24.662,11.868,51.588,27.138,71.776c3.789,4.861,4.899,8.737,10.017,11.43c5.012,2.256,33.544,3.624,37.706-1.66
			c0.134-0.139,0.178-0.186,0.178-0.186c3.27-3.993,2.577-10.238,0.417-14.961c-0.071-0.115-0.114-0.181-0.114-0.181
			c-0.087-0.128-0.109-0.159-0.109-0.159c-0.089-0.119-0.111-0.148-0.111-0.148c-0.114-0.138-0.137-0.164-0.137-0.164
			c-0.117-0.126-0.141-0.149-0.141-0.149c-0.121-0.114-0.146-0.136-0.146-0.136c-0.125-0.103-0.151-0.123-0.151-0.123
			c-0.13-0.093-0.156-0.111-0.156-0.111c-0.134-0.084-0.162-0.1-0.162-0.1c-0.139-0.075-0.168-0.089-0.168-0.089
			c-0.145-0.067-0.174-0.079-0.174-0.079c-0.12-0.048-0.151-0.059-0.151-0.059c-0.093-0.033-0.156-0.053-0.156-0.053
			c-0.128-0.039-0.194-0.057-0.194-0.057c-0.134-0.034-0.202-0.049-0.202-0.049c-13.608-1.849-19.395,2.531-27.45-13.671
			c-2.851-5.692-4.448-10.454-4.35-17.513c1.02-12.945-3.202-27.705-5.322-40.477c-4.587-33.199-2.028-57.443,21.839-81.786
			c7.012-7.13,9.849-17.409,12.984-27.072c2.49-6.705,9.459-15.76,13.45-21.8c9.804-15.79,19.326-32.42,20.722-51.738
			c10.147-0.505,21.91-1.543,31.09-7.884c3.004-2.302,4.393-6.153,7.22-9.151c0.158-0.025,0.319-0.045,0.62-0.116
			c0.144-0.037,0.215-0.057,0.215-0.057c0.138-0.042,0.206-0.065,0.206-0.065c0.133-0.047,0.198-0.073,0.198-0.073
			c0.128-0.053,0.159-0.067,0.159-0.067c0.123-0.058,0.154-0.073,0.154-0.073c0.119-0.063,0.149-0.079,0.149-0.079
			c0.144-0.085,0.172-0.103,0.172-0.103c0.139-0.093,0.166-0.112,0.166-0.112c0.134-0.101,0.16-0.122,0.16-0.122
			c0.13-0.109,0.155-0.132,0.155-0.132c0.126-0.118,0.175-0.167,0.175-0.167c0.097-0.102,0.145-0.155,0.145-0.155
			c0.095-0.109,0.141-0.166,0.141-0.166c0.092-0.117,0.138-0.177,0.138-0.177c0.09-0.124,0.135-0.188,0.135-0.188
			c1.85-3.193,3.221-7.542,2.624-11.732c-0.035-0.145-0.047-0.193-0.047-0.193c-0.039-0.14-0.053-0.186-0.053-0.186
			c-0.044-0.135-0.059-0.18-0.059-0.18c-0.048-0.131-0.065-0.174-0.065-0.174c-0.052-0.126-0.071-0.168-0.071-0.168
			c-0.057-0.122-0.077-0.162-0.077-0.162c-0.061-0.118-0.082-0.156-0.082-0.156c-0.066-0.114-0.088-0.151-0.088-0.151
			c-0.07-0.11-0.094-0.145-0.094-0.145c-0.1-0.14-0.126-0.174-0.126-0.174c-0.107-0.134-0.135-0.166-0.135-0.166
			c-0.114-0.128-0.144-0.159-0.144-0.159c-0.122-0.122-0.153-0.151-0.153-0.151c-0.129-0.116-0.162-0.144-0.162-0.144
			c-0.136-0.111-0.171-0.138-0.171-0.138c-0.143-0.105-0.18-0.131-0.18-0.131c-0.783-0.509-1.435-0.782-2.561-1.092
			c-1.394-1.734-2.545-2.557-4.847-3.949c-7.443-4.635-16.299-7.277-16.064-18.565c-0.178-13.21-0.864-23.991-13.371-33.354
			c1.157-10.12,5.871-22.906,0.443-32.781c-0.111-0.124-0.148-0.164-0.148-0.164c-0.114-0.118-0.152-0.156-0.152-0.156
			c-0.116-0.111-0.155-0.147-0.155-0.147c-0.118-0.105-0.158-0.139-0.158-0.139c-0.12-0.098-0.161-0.13-0.161-0.13
			c-0.122-0.092-0.163-0.121-0.163-0.121c-0.124-0.085-0.166-0.112-0.166-0.112c-0.126-0.078-0.168-0.103-0.168-0.103
			c-0.128-0.071-0.17-0.093-0.17-0.093c-0.129-0.063-0.172-0.083-0.172-0.083c-0.13-0.056-0.174-0.073-0.174-0.073
			c-0.132-0.048-0.176-0.063-0.176-0.063c-0.133-0.04-0.177-0.052-0.177-0.052c-0.134-0.032-0.178-0.041-0.178-0.041
			c-0.134-0.024-0.179-0.03-0.179-0.03c-0.135-0.015-0.18-0.019-0.18-0.019c-0.136-0.007-0.181-0.008-0.181-0.008
			c-0.136,0.002-0.182,0.004-0.182,0.004c-0.137,0.011-0.182,0.016-0.182,0.016c-0.137,0.02-0.182,0.028-0.182,0.028
			c-0.137,0.029-0.182,0.04-0.182,0.04c-0.137,0.039-0.171,0.049-0.171,0.049c-0.137,0.047-0.171,0.06-0.171,0.06
			c-0.137,0.056-0.171,0.071-0.171,0.071c-0.137,0.064-0.171,0.081-0.171,0.081c-0.136,0.073-0.108,0.052-0.342,0.192
			c-0.137,0.088-0.205,0.134-0.205,0.134c-0.137,0.096-0.205,0.147-0.205,0.147c-0.137,0.105-0.205,0.16-0.205,0.16
			c-5.769,6.652-10.63,15.771-16.716,22.867c-3.847-1.157-8.102-2.161-12.724-2.634c-2.642-6.238-5.112-13.654-9.995-19.14
			c-0.12-0.099-0.181-0.147-0.181-0.147c-0.122-0.093-0.183-0.138-0.183-0.138c-0.123-0.086-0.185-0.128-0.185-0.128
			c-0.125-0.08-0.188-0.118-0.188-0.118c-0.127-0.073-0.191-0.108-0.191-0.108c-0.129-0.066-0.193-0.098-0.193-0.098
			c-0.13-0.059-0.196-0.087-0.196-0.087c-0.132-0.052-0.166-0.065-0.166-0.065c-0.134-0.046-0.168-0.057-0.168-0.057
			c-0.136-0.04-0.17-0.049-0.17-0.049c-0.137-0.034-0.172-0.042-0.172-0.042c-0.139-0.028-0.174-0.034-0.174-0.034
			c-0.141-0.021-0.177-0.026-0.177-0.026c-0.143-0.015-0.179-0.017-0.179-0.017c-0.145-0.008-0.182-0.009-0.182-0.009
			c-0.11-0.001-0.147-0.001-0.147-0.001c-0.111,0.003-0.149,0.004-0.149,0.004c-0.113,0.007-0.17,0.012-0.17,0.012
			c-0.115,0.012-0.172,0.019-0.172,0.019c-0.116,0.016-0.175,0.026-0.175,0.026c-9.065,2.599-18.49,19.802-21.245,31.675
			c-26.632,22.913-36.451,50.733-61.055,68.324c-33.545,22.249-96.827,30.483-125.541,28.239
			c-45.912-5.047-57.938,3.059-89.12,13.007c-7.694,3.023-16.807,1.012-22.65,7.783c-7.338,9.912-10.741,24.279-15.212,36.529
			c-5.441,14.06-3.576,30.202-9.944,44.52c-6.368,18.348-6.841,42.196-7.413,60.462c0.269,7.706-1.11,18.279,8.598,20.366
			c0.108,0.005,0.162,0.007,0.162,0.007c0.108,0.002,0.162,0.001,0.162,0.001c0.108-0.002,0.162-0.005,0.162-0.005
			c0.108-0.006,0.162-0.011,0.162-0.011c0.108-0.011,0.162-0.017,0.162-0.017c0.108-0.015,0.162-0.023,0.162-0.023
			c0.108-0.019,0.162-0.03,0.162-0.03c0.108-0.024,0.162-0.037,0.162-0.037c0.139-0.037,0.181-0.049,0.181-0.049
			c0.127-0.04,0.169-0.054,0.169-0.054c0.127-0.045,0.169-0.061,0.169-0.061c0.126-0.051,0.168-0.068,0.168-0.068
			C192.694,483.89,201.653,461.971,203.852,453.53z"/>
	</g>
</g>
</svg>
