<?xml version="1.0" encoding="utf-8"?>
<!-- Generator: Adobe Illustrator 24.0.1, SVG Export Plug-In . SVG Version: 6.00 Build 0)  -->
<!DOCTYPE svg PUBLIC "-//W3C//DTD SVG 1.1//EN" "http://www.w3.org/Graphics/SVG/1.1/DTD/svg11.dtd" [
	<!ENTITY ns_extend "http://ns.adobe.com/Extensibility/1.0/">
	<!ENTITY ns_ai "http://ns.adobe.com/AdobeIllustrator/10.0/">
	<!ENTITY ns_graphs "http://ns.adobe.com/Graphs/1.0/">
	<!ENTITY ns_vars "http://ns.adobe.com/Variables/1.0/">
	<!ENTITY ns_imrep "http://ns.adobe.com/ImageReplacement/1.0/">
	<!ENTITY ns_sfw "http://ns.adobe.com/SaveForWeb/1.0/">
	<!ENTITY ns_custom "http://ns.adobe.com/GenericCustomNamespace/1.0/">
	<!ENTITY ns_adobe_xpath "http://ns.adobe.com/XPath/1.0/">
]>
<svg version="1.1" xmlns:x="&ns_extend;" xmlns:i="&ns_ai;" xmlns:graph="&ns_graphs;"
	 xmlns="http://www.w3.org/2000/svg" xmlns:xlink="http://www.w3.org/1999/xlink" x="0px" y="0px" viewBox="0 0 750 750"
	 enable-background="new 0 0 750 750" xml:space="preserve">
<metadata>
	<sfw  xmlns="&ns_sfw;">
		<slices></slices>
		<sliceSourceBounds  bottomLeftOrigin="true" height="14825" width="8203.412" x="-3962.412" y="-6975"></sliceSourceBounds>
	</sfw>
</metadata>
<g id="FILL-BACKGROUND">
	<rect fill="#FFFFFF" width="750" height="750"/>
</g>
<g id="N-DIMENSIONS">
</g>
<g id="N-TEXT">
</g>
<g id="AG-DIAGRAM">
	<g id="POLYLINE_2836_">
		<g>
			<g>
				
					<line fill="none" stroke="#FB8604" stroke-width="3.25" stroke-linecap="round" stroke-linejoin="round" x1="134.459" y1="575.577" x2="136.459" y2="575.577"/>
				
					<line fill="none" stroke="#FB8604" stroke-width="3.25" stroke-linecap="round" stroke-linejoin="round" stroke-dasharray="3.997,6.9948" x1="143.454" y1="575.577" x2="535.662" y2="575.577"/>
				
					<line fill="none" stroke="#FB8604" stroke-width="3.25" stroke-linecap="round" stroke-linejoin="round" x1="539.16" y1="575.577" x2="541.16" y2="575.577"/>
			</g>
		</g>
	</g>
</g>
<g id="AG-DETAIL">
	<g id="POLYLINE_125_">
		<path fill="none" stroke="#FB8604" stroke-width="2" stroke-linecap="round" stroke-linejoin="round" stroke-miterlimit="10" d="
			M559.191,328.363c-2.164-3.229-4.159-7.447-3.826-12.026c0.091-5.589,0.214-9.908-2.194-16.001
			c-6.123-13.484-2.394-12.449-1.394-28.444c-0.604-10.694-5.978-19.249,5.105-27.478c4.171-3.057,8.267-7.605,14.076-8.389
			c0.195-0.012,0.292-0.016,0.292-0.016c0.256-0.005,0.335-0.005,0.335-0.005c0.237,0.005,0.316,0.008,0.316,0.008
			c2.783,0.155,4.903,1.32,7.857,2.53c0.203,0.075,0.302,0.109,0.302,0.109c0.201,0.066,0.303,0.097,0.303,0.097
			c0.198,0.055,0.294,0.08,0.294,0.08c0.186,0.043,0.277,0.062,0.277,0.062c0.264,0.047,0.349,0.06,0.349,0.06
			c0.474,0.06,0.478,0.052,1.304,0.116c0.253,0.024,0.339,0.033,0.339,0.033"/>
	</g>
</g>
<g id="AG-GUIDES">
</g>
<g id="AG-PEOPLE">
</g>
<g id="AG-ANIMALS">
	<g id="POLYLINE_145_">
		
			<path fill="none" stroke="#FB8604" stroke-width="2.75" stroke-linecap="round" stroke-linejoin="round" stroke-miterlimit="10" d="
			M422.494,463.766l-12.566-0.252c-8.512-0.063-16.556,0.232-25.414,1.784l-13.008,2.387c-11.061,2.442-23.097,1.471-33.982-4.033
			c-20.645-9.46-43.09-16.886-61.889-30.442c-2.463-1.443-5.509-3.453-8.778-4.406c-0.23-0.058-0.344-0.085-0.344-0.085
			c-0.224-0.048-0.334-0.069-0.334-0.069c-0.217-0.037-0.325-0.053-0.325-0.053c-0.212-0.027-0.317-0.037-0.317-0.037
			c-0.207-0.016-0.309-0.022-0.309-0.022c-0.203-0.006-0.303-0.006-0.303-0.006c-0.199,0.004-0.297,0.009-0.297,0.009
			c-0.195,0.014-0.292,0.024-0.292,0.024c-0.193,0.024-0.289,0.039-0.289,0.039c-0.191,0.034-0.286,0.053-0.286,0.053
			c-0.189,0.044-0.284,0.068-0.284,0.068c-0.188,0.053-0.282,0.082-0.282,0.082c-0.188,0.063-0.282,0.097-0.282,0.097
			c-0.188,0.072-0.283,0.111-0.283,0.111c-0.189,0.081-0.284,0.124-0.284,0.124c-6.842,3.502-16.675,16.093-20.042,20.004
			c-33.055,47.13-77.396,61.096-43.025,108.902c0.385,0.466,1.359,1.676,1.799,2.599c0.098,0.198,0.146,0.298,0.146,0.298
			c0.089,0.199,0.131,0.298,0.131,0.298c0.08,0.2,0.119,0.301,0.119,0.301c1.025,3.037,0.883,6.402-0.092,9.817
			c-0.087,0.255-0.117,0.338-0.117,0.338c-0.094,0.245-0.126,0.325-0.126,0.325c-0.101,0.235-0.136,0.311-0.136,0.311
			c-0.108,0.224-0.145,0.296-0.145,0.296c-0.115,0.212-0.155,0.28-0.155,0.28c-0.165,0.263-0.208,0.326-0.208,0.326
			c-0.178,0.24-0.201,0.269-0.201,0.269c-0.211,0.24-0.238,0.269-0.238,0.269c-0.26,0.243-0.29,0.268-0.29,0.268
			c-0.251,0.19-0.283,0.213-0.283,0.213c-0.237,0.148-0.272,0.168-0.272,0.168c-0.254,0.132-0.292,0.15-0.292,0.15
			c-0.193,0.085-0.273,0.117-0.273,0.117c-0.248,0.09-0.334,0.118-0.334,0.118c-0.176,0.054-0.267,0.079-0.267,0.079
			c-9.489,1.062-19.917,1.21-29.71-0.289c-0.251-0.075-0.373-0.114-0.373-0.114c-0.239-0.082-0.355-0.126-0.355-0.126
			c-0.227-0.091-0.338-0.138-0.338-0.138c-0.216-0.099-0.268-0.125-0.268-0.125c-0.257-0.135-0.307-0.163-0.307-0.163
			c-0.244-0.147-0.291-0.177-0.291-0.177c-0.231-0.16-0.275-0.193-0.275-0.193c-0.26-0.209-0.302-0.246-0.302-0.246
			c-0.244-0.229-0.283-0.269-0.283-0.269c-0.227-0.251-0.264-0.294-0.264-0.294c-0.177-0.226-0.212-0.273-0.212-0.273
			c-0.162-0.236-0.193-0.283-0.193-0.283c-0.12-0.196-0.179-0.297-0.179-0.297c-0.113-0.207-0.167-0.313-0.167-0.313
			c-0.105-0.217-0.156-0.328-0.156-0.328c-0.098-0.226-0.145-0.342-0.145-0.342c-0.091-0.235-0.134-0.354-0.134-0.354
			c-1.839-4.796,0.086-9.477,0.877-14.695c0.582-4.661-0.098-16.029-0.186-20.928c-0.144-9.955,1.36-20.472-0.133-30.838
			c-2.661-12.069,8.135-19.102,13.164-29.617c4.596-8.924,3.969-21.138,3.98-31.297c0.049-3.785,0.223-7.262,1.153-11.716
			c7.701-33.212-15.105-42.256,17.905-88.887c4.49-6.402,7.422-14.025,6.538-22.638c-5.715-39.074,33.984-84.89,74.405-57.417
			c22.017,15.704,12.158,42.335-16.103,45.496c-7.623,0.775-14.873,2.662-22.018-1.095c-0.222-0.14-0.331-0.213-0.331-0.213
			c-0.465-0.321-0.859-0.606-1.442-1.15c-7.411-7.46-6.337-21.543,1.936-28.58c0.237-0.189,0.356-0.281,0.356-0.281
			c0.24-0.178,0.361-0.264,0.361-0.264c0.244-0.166,0.367-0.246,0.367-0.246c0.247-0.154,0.372-0.227,0.372-0.227
			c0.251-0.141,0.377-0.208,0.377-0.208c0.255-0.128,0.383-0.189,0.383-0.189c0.258-0.115,0.388-0.169,0.388-0.169
			c0.262-0.101,0.393-0.148,0.393-0.148c0.199-0.066,0.265-0.087,0.265-0.087c0.201-0.059,0.268-0.077,0.268-0.077
			c0.202-0.052,0.27-0.068,0.27-0.068c0.204-0.044,0.272-0.057,0.272-0.057c0.206-0.036,0.275-0.047,0.275-0.047
			c0.208-0.029,0.277-0.037,0.277-0.037c0.209-0.021,0.279-0.026,0.279-0.026c0.211-0.013,0.282-0.016,0.282-0.016
			c0.213-0.005,0.284-0.005,0.284-0.005c0.215,0.004,0.286,0.006,0.286,0.006c0.216,0.012,0.289,0.017,0.289,0.017
			c0.218,0.021,0.291,0.029,0.291,0.029c0.22,0.029,0.293,0.04,0.293,0.04c8.272,1.997,14.276,10.83,12.68,19.73"/>
	</g>
	<g id="POLYLINE_144_">
		
			<path fill="none" stroke="#FB8604" stroke-width="2.75" stroke-linecap="round" stroke-linejoin="round" stroke-miterlimit="10" d="
			M589.209,260.857c-0.064-0.26-0.073-0.305-0.073-0.305c-0.033-0.234-0.037-0.282-0.037-0.282
			c-0.014-0.248-0.015-0.299-0.015-0.299c0.003-0.26,0.006-0.313,0.006-0.313c0.015-0.216,0.02-0.27,0.02-0.27
			c0.026-0.221,0.042-0.333,0.042-0.333c0.038-0.226,0.061-0.34,0.061-0.34c0.05-0.229,0.078-0.345,0.078-0.345
			c0.062-0.231,0.095-0.347,0.095-0.347c0.072-0.231,0.111-0.346,0.111-0.346c0.082-0.229,0.126-0.343,0.126-0.343
			c0.092-0.226,0.14-0.338,0.14-0.338c0.101-0.221,0.153-0.33,0.153-0.33c0.109-0.214,0.166-0.319,0.166-0.319
			c0.117-0.206,0.177-0.306,0.177-0.306c0.124-0.196,0.188-0.291,0.188-0.291c0.164-0.228,0.197-0.272,0.197-0.272
			c0.206-0.252,0.241-0.292,0.241-0.292c0.252-0.26,0.288-0.294,0.288-0.294c0.262-0.218,0.3-0.246,0.3-0.246
			c0.258-0.165,0.287-0.181,0.287-0.181c0.263-0.122,0.292-0.133,0.292-0.133c0.237-0.074,0.266-0.082,0.266-0.082
			c0.239-0.043,0.269-0.047,0.269-0.047c0.239-0.014,0.269-0.014,0.269-0.014c0.239,0.014,0.269,0.017,0.269,0.017
			c0.237,0.041,0.267,0.047,0.267,0.047c0.263,0.076,0.292,0.086,0.292,0.086c0.258,0.106,0.286,0.119,0.286,0.119
			c0.251,0.133,0.278,0.15,0.278,0.15c0.242,0.159,0.268,0.178,0.268,0.178c0.231,0.183,0.281,0.227,0.281,0.227
			c0.241,0.232,0.288,0.281,0.288,0.281c0.224,0.26,0.249,0.292,0.249,0.292c0.15,0.202,0.198,0.271,0.198,0.271
			c0.139,0.214,0.183,0.287,0.183,0.287c0.129,0.224,0.17,0.301,0.17,0.301c0.119,0.233,0.157,0.312,0.157,0.312
			c0.11,0.241,0.145,0.322,0.145,0.322c0.502,1.23,0.757,2.307,1.112,4.019c0.037,0.228,0.047,0.301,0.047,0.301
			c0.021,0.242,0.022,0.276,0.022,0.276c-0.01,0.264-0.012,0.279-0.012,0.279c-0.065,0.257-0.07,0.27-0.07,0.27
			c-0.171,0.255-0.181,0.265-0.181,0.265c-0.25,0.175-0.271,0.185-0.271,0.185c-0.251,0.101-0.276,0.109-0.276,0.109
			c-0.212,0.056-0.268,0.069-0.268,0.069c-0.237,0.042-0.299,0.05-0.299,0.05c-0.259,0.028-0.326,0.033-0.326,0.033
			c-1.248,0.057-2.391-0.027-4.012-0.326c-0.217-0.05-0.288-0.067-0.288-0.067c-0.209-0.057-0.278-0.077-0.278-0.077
			c-0.201-0.065-0.266-0.089-0.266-0.089c-0.252-0.101-0.283-0.115-0.283-0.115c-0.264-0.132-0.292-0.148-0.292-0.148
			c-0.24-0.154-0.265-0.173-0.265-0.173c-0.258-0.221-0.28-0.243-0.28-0.243c-0.215-0.261-0.233-0.287-0.233-0.287
			c-0.141-0.246-0.155-0.275-0.155-0.275C589.219,260.889,589.209,260.857,589.209,260.857z"/>
	</g>
	<g id="POLYLINE_143_">
		
			<path fill="none" stroke="#FB8604" stroke-width="2.75" stroke-linecap="round" stroke-linejoin="round" stroke-miterlimit="10" d="
			M422.455,410.311c0.01,10.242-0.459,21.108-1.972,31.444c-1.556,10.215,2.574,21.229,3.393,31.874
			c2.093,15.847,0.201,31.769-1.852,47.376c-0.49,6.013-1.488,12.64,0.445,19.116c0.094,0.245,0.126,0.325,0.126,0.325
			c0.1,0.232,0.134,0.308,0.134,0.308c0.105,0.22,0.142,0.291,0.142,0.291c0.111,0.207,0.149,0.273,0.149,0.273
			c0.157,0.255,0.198,0.316,0.198,0.316c0.167,0.232,0.211,0.287,0.211,0.287c0.224,0.257,0.247,0.281,0.247,0.281
			c0.255,0.238,0.285,0.263,0.285,0.263c0.245,0.186,0.276,0.208,0.276,0.208c0.256,0.163,0.321,0.201,0.321,0.201
			c0.528,0.298,0.952,0.443,1.823,0.828c0.218,0.103,0.29,0.139,0.29,0.139c0.217,0.113,0.289,0.153,0.289,0.153
			c0.216,0.126,0.287,0.171,0.287,0.171c0.214,0.142,0.284,0.193,0.284,0.193c0.245,0.19,0.28,0.219,0.28,0.219
			c0.24,0.216,0.274,0.249,0.274,0.249c0.244,0.255,0.304,0.323,0.304,0.323c0.178,0.214,0.237,0.289,0.237,0.289
			c0.174,0.233,0.231,0.314,0.231,0.314c4.196,6.657,4.033,16.512,5.383,24.804c0.068,0.264,0.104,0.392,0.104,0.392
			c0.076,0.246,0.095,0.306,0.095,0.306c0.082,0.231,0.104,0.287,0.104,0.287c0.089,0.215,0.112,0.267,0.112,0.267
			c0.122,0.247,0.148,0.294,0.148,0.294c0.136,0.225,0.165,0.268,0.165,0.268c0.179,0.24,0.21,0.278,0.21,0.278
			c0.227,0.245,0.26,0.277,0.26,0.277c0.242,0.214,0.278,0.242,0.278,0.242c0.217,0.164,0.291,0.216,0.291,0.216
			c0.478,0.325,0.946,0.564,2.027,1.296c0.25,0.158,0.335,0.209,0.335,0.209c0.261,0.151,0.351,0.2,0.351,0.2
			c0.183,0.095,0.277,0.141,0.277,0.141c0.242,0.109,0.292,0.13,0.292,0.13c0.256,0.099,0.308,0.118,0.308,0.118
			c0.216,0.07,0.272,0.087,0.272,0.087c0.248,0.066,0.346,0.089,0.346,0.089c0.202,0.043,0.305,0.062,0.305,0.062
			c0.211,0.035,0.319,0.051,0.319,0.051c11.111-0.341,22.74-0.446,34.197-0.052c0.228-0.037,0.303-0.051,0.303-0.051
			c0.222-0.045,0.295-0.061,0.295-0.061c0.216-0.052,0.286-0.071,0.286-0.071c0.209-0.06,0.278-0.082,0.278-0.082
			c0.202-0.069,0.269-0.093,0.269-0.093c0.26-0.105,0.323-0.133,0.323-0.133c0.248-0.121,0.308-0.153,0.308-0.153
			c0.236-0.137,0.293-0.174,0.293-0.174c0.223-0.155,0.277-0.196,0.277-0.196c0.261-0.219,0.311-0.265,0.311-0.265
			c0.241-0.248,0.287-0.301,0.287-0.301c0.209-0.262,0.249-0.317,0.249-0.317c0.154-0.228,0.191-0.287,0.191-0.287
			c0.142-0.244,0.175-0.307,0.175-0.307c0.13-0.258,0.16-0.324,0.16-0.324c0.089-0.202,0.118-0.271,0.118-0.271
			c0.082-0.209,0.108-0.28,0.108-0.28c0.075-0.216,0.099-0.289,0.099-0.289c0.51-1.705,0.673-3.687,0.191-5.729
			c-0.055-0.213-0.074-0.283-0.074-0.283c-0.061-0.207-0.083-0.274-0.083-0.274c-0.068-0.199-0.091-0.265-0.091-0.265
			c-0.1-0.254-0.126-0.316-0.126-0.316c-0.11-0.239-0.139-0.297-0.139-0.297c-0.126-0.233-0.152-0.278-0.152-0.278
			c-0.165-0.259-0.193-0.301-0.193-0.301c-0.179-0.239-0.21-0.277-0.21-0.277c-0.225-0.256-0.259-0.291-0.259-0.291
			c-0.242-0.233-0.278-0.265-0.278-0.265c-0.221-0.184-0.297-0.243-0.297-0.243c-0.234-0.17-0.314-0.224-0.314-0.224
			c-0.246-0.157-0.33-0.208-0.33-0.208c-5.873-2.708-11.617-6.171-17.993-8.714c-0.192-0.114-0.286-0.173-0.286-0.173
			c-0.186-0.121-0.277-0.183-0.277-0.183c-0.179-0.128-0.268-0.194-0.268-0.194c-0.258-0.206-0.342-0.277-0.342-0.277
			c-0.244-0.224-0.284-0.263-0.284-0.263c-0.238-0.248-0.282-0.297-0.282-0.297c-0.213-0.253-0.255-0.306-0.255-0.306
			c-0.162-0.215-0.202-0.271-0.202-0.271c-0.117-0.169-0.193-0.284-0.193-0.284c-0.148-0.237-0.22-0.358-0.22-0.358
			c-0.141-0.249-0.209-0.377-0.209-0.377c-2.662-8.76-8.572-18.219-4.695-27.904l2.069-5.604
			c3.213-10.994,3.246-24.086,10.262-34.584c7.103-13.534,7.081-30.868,19.176-42.104c6.773-6.536,13.257-13.529,21.557-18.684
			c19.768-10.612,16.455-15.505,18.193-37.253c2.53-16.656,5.89-38.507,24.831-44.258c1.785-0.8,4.44-2.013,6.241-3.797
			c0.256-0.259,0.369-0.379,0.369-0.379c0.22-0.245,0.326-0.37,0.326-0.37c0.208-0.254,0.309-0.383,0.309-0.383
			c1.551-1.955,2.526-4.705,4.111-7.09c0.174-0.248,0.263-0.369,0.263-0.369c0.182-0.238,0.275-0.355,0.275-0.355
			c0.161-0.194,0.243-0.289,0.243-0.289c1.107-1.275,2.468-2.179,4.019-3.517c0.238-0.217,0.315-0.29,0.315-0.29
			c0.224-0.22,0.296-0.295,0.296-0.295c0.208-0.225,0.274-0.301,0.274-0.301c0.189-0.232,0.219-0.271,0.219-0.271
			c0.175-0.244,0.222-0.313,0.222-0.313c0.132-0.21,0.175-0.281,0.175-0.281c0.461-0.783,0.681-1.498,1.272-2.7
			c0.121-0.228,0.163-0.303,0.163-0.303c0.132-0.226,0.178-0.301,0.178-0.301c0.145-0.224,0.196-0.298,0.196-0.298
			c0.161-0.22,0.217-0.293,0.217-0.293c0.178-0.217,0.241-0.288,0.241-0.288c0.211-0.226,0.267-0.282,0.267-0.282
			c0.232-0.222,0.293-0.277,0.293-0.277c20.866-12.055,41.537-17.295,29.342-50.99c-0.272-1.1-0.578-2.323-0.879-3.897"/>
	</g>
	<g id="POLYLINE_142_">
		
			<path fill="none" stroke="#FB8604" stroke-width="2.75" stroke-linecap="round" stroke-linejoin="round" stroke-miterlimit="10" d="
			M595.177,255.396c-1.518-7.665-9.118-11.823-13.75-18.22c-6.015-15.509-23.744-21.588-40.084-21.963"/>
	</g>
	<g id="POLYLINE_141_">
		
			<path fill="none" stroke="#FB8604" stroke-width="2.75" stroke-linecap="round" stroke-linejoin="round" stroke-miterlimit="10" d="
			M496.709,242.435c0.556-0.078,2.181-0.459,3.229-0.501c0.191-0.007,0.286-0.009,0.286-0.009c0.19,0,0.286,0.002,0.286,0.002
			c0.19,0.009,0.285,0.015,0.285,0.015c0.237,0.024,0.284,0.03,0.284,0.03c0.236,0.036,0.283,0.045,0.283,0.045
			c0.235,0.05,0.282,0.062,0.282,0.062c0.234,0.065,0.28,0.08,0.28,0.08c0.232,0.082,0.279,0.1,0.279,0.1
			c0.231,0.099,0.277,0.12,0.277,0.12c0.229,0.117,0.275,0.143,0.275,0.143c0.243,0.146,0.283,0.172,0.283,0.172
			c0.201,0.138,0.281,0.197,0.281,0.197c0.24,0.187,0.319,0.254,0.319,0.254c0.238,0.21,0.317,0.283,0.317,0.283
			c0.237,0.231,0.315,0.311,0.315,0.311c2.033,1.975,5.314,8.236,6.957,10.965c3.968,6.408,9.759,14.462,18.384,15.193
			c2.785,0.072,5.631-1.004,7.854-3.031c0.263-0.244,0.349-0.327,0.349-0.327c9.095-9.581,1.732-24.266,0.552-35.94
			c-0.149-4.099,2.318-8.342,3.278-12.675c0.039-0.263,0.05-0.35,0.05-0.35c0.025-0.258,0.031-0.342,0.031-0.342
			c0.01-0.252,0.01-0.335,0.01-0.335c-0.007-0.245-0.009-0.286-0.009-0.286c-0.023-0.24-0.028-0.279-0.028-0.279
			c-0.039-0.234-0.047-0.273-0.047-0.273c-0.057-0.228-0.068-0.266-0.068-0.266c-0.09-0.258-0.105-0.295-0.105-0.295
			c-0.116-0.25-0.135-0.285-0.135-0.285c-0.154-0.256-0.178-0.292-0.178-0.292c-0.184-0.246-0.212-0.28-0.212-0.28
			c-0.212-0.235-0.244-0.268-0.244-0.268c-0.237-0.223-0.273-0.254-0.273-0.254c-0.223-0.182-0.3-0.241-0.3-0.241
			c-0.241-0.171-0.324-0.226-0.324-0.226c-0.258-0.16-0.347-0.212-0.347-0.212c-0.181-0.1-0.273-0.149-0.273-0.149
			c-0.188-0.094-0.283-0.14-0.283-0.14c-0.194-0.088-0.292-0.131-0.292-0.131c-0.199-0.082-0.3-0.121-0.3-0.121
			c-2.078-0.761-3.981-0.818-6.454-0.358l-3.732,0.718c-15.566,2.073-23.448-0.704-36.711,14.702l-6.457,7.344
			c-6.301,7.73-16.805,10.853-23.29,19.703c-12.705,14.971-10.621,18.747-32.836,22.512c-0.206,0.101-0.308,0.154-0.308,0.154
			c-0.202,0.109-0.303,0.166-0.303,0.166c-0.209,0.124-0.313,0.188-0.313,0.188c-0.205,0.133-0.307,0.202-0.307,0.202
			c-0.202,0.142-0.302,0.215-0.302,0.215c-2.652,2.123-3.944,4.281-5.928,7.79c-1.869,3.326-3.404,7.023-6.175,10.324
			c-0.219,0.239-0.328,0.355-0.328,0.355c-0.221,0.222-0.332,0.329-0.332,0.329c-0.223,0.205-0.279,0.254-0.279,0.254
			c-0.225,0.189-0.282,0.234-0.282,0.234c-0.227,0.173-0.285,0.214-0.285,0.214c-0.23,0.156-0.287,0.193-0.287,0.193
			c-0.232,0.139-0.29,0.171-0.29,0.171c-0.234,0.121-0.293,0.149-0.293,0.149c-0.237,0.102-0.297,0.125-0.297,0.125
			c-0.24,0.083-0.3,0.101-0.3,0.101c-0.242,0.063-0.303,0.076-0.303,0.076c-0.245,0.043-0.307,0.051-0.307,0.051
			c-0.248,0.022-0.279,0.023-0.279,0.023c-0.251,0.002-0.282,0.001-0.282,0.001c-0.257-0.018-0.29-0.022-0.29-0.022
			c-0.236-0.034-0.303-0.047-0.303-0.047c-0.204-0.044-0.273-0.061-0.273-0.061c-0.206-0.057-0.275-0.078-0.275-0.078
			c-0.208-0.068-0.278-0.093-0.278-0.093c-1.888-0.688-3.726-2.158-5.962-3.003c-0.25-0.09-0.333-0.118-0.333-0.118
			c-0.252-0.08-0.336-0.105-0.336-0.105c-0.254-0.07-0.338-0.091-0.338-0.091c-0.256-0.058-0.341-0.075-0.341-0.075
			c-0.258-0.046-0.344-0.058-0.344-0.058c-0.259-0.032-0.346-0.04-0.346-0.04c-0.261-0.017-0.349-0.021-0.349-0.021
			c-0.263-0.002-0.352,0-0.352,0c-0.236,0.012-0.296,0.017-0.296,0.017c-0.238,0.024-0.297,0.032-0.297,0.032
			c-0.239,0.036-0.299,0.046-0.299,0.046c-0.18,0.035-0.301,0.061-0.301,0.061c-0.242,0.058-0.363,0.091-0.363,0.091
			c-0.243,0.071-0.365,0.109-0.365,0.109c-0.244,0.083-0.367,0.128-0.367,0.128c-0.246,0.095-0.369,0.145-0.369,0.145
			c-10.192,4.699-15.049,18.458-29.184,9.663c-2.069-1.015-4.706-2.166-7.673-2.129c-6.616,0.771-14.021,1.173-20.811-1.522
			c-9.34-3.501-56.012,0.362-64.461,3.901"/>
	</g>
</g>
<g id="AG-OUTLINE">
	<g id="POLYLINE_1_">
		
			<path fill="none" stroke="#FB8604" stroke-width="3.5" stroke-linecap="round" stroke-linejoin="round" stroke-miterlimit="10" d="
			M276.153,305.568c49.07-23.563-14.591-76.66-50.85-37.183c-15.39,15.846-19.99,32.072-17.861,56.456
			c-0.012,6.083-2.877,12.198-6.593,17.743c-16.986,24.096-21.445,37.428-16.323,70.836c0.958,5.17-0.103,12.344-1.581,18.051
			c-0.727,3.282-1.145,7.588-1.153,11.716c0.091,18.288,0.814,28.5-12.471,43.912c-4.137,4.872-5.527,9.956-4.673,17.002
			c1.479,9.774,0.011,20.593,0.133,30.838c0.062,5.956,0.871,15.554,0.104,21.578c-0.698,4.223-2.622,9.263-0.837,13.924
			c0.086,0.24,0.13,0.358,0.13,0.358c0.093,0.232,0.141,0.346,0.141,0.346c0.1,0.223,0.153,0.333,0.153,0.333
			c0.108,0.214,0.164,0.318,0.164,0.318c0.145,0.253,0.175,0.302,0.175,0.302c0.154,0.239,0.186,0.285,0.186,0.285
			c0.172,0.234,0.208,0.279,0.208,0.279c0.221,0.26,0.259,0.301,0.259,0.301c0.237,0.238,0.277,0.276,0.277,0.276
			c0.253,0.218,0.297,0.252,0.297,0.252c0.224,0.166,0.27,0.198,0.27,0.198c0.237,0.153,0.286,0.183,0.286,0.183
			c0.25,0.141,0.302,0.168,0.302,0.168c0.264,0.129,0.318,0.154,0.318,0.154c0.165,0.072,0.278,0.118,0.278,0.118
			c0.231,0.088,0.349,0.13,0.349,0.13c0.243,0.08,0.367,0.118,0.367,0.118c9.467,1.518,19.683,1.372,29.555,0.398
			c0.189-0.047,0.282-0.072,0.282-0.072c0.18-0.052,0.267-0.079,0.267-0.079c0.253-0.087,0.334-0.118,0.334-0.118
			c0.235-0.099,0.273-0.117,0.273-0.117c0.257-0.13,0.292-0.15,0.292-0.15c0.239-0.146,0.272-0.168,0.272-0.168
			c0.253-0.188,0.283-0.213,0.283-0.213c0.262-0.24,0.29-0.268,0.29-0.268c0.215-0.241,0.238-0.269,0.238-0.269
			c0.158-0.207,0.201-0.269,0.201-0.269c0.168-0.259,0.208-0.326,0.208-0.326c0.117-0.209,0.155-0.28,0.155-0.28
			c0.11-0.221,0.145-0.296,0.145-0.296c0.103-0.232,0.136-0.311,0.136-0.311c1.067-3.016,1.482-6.714,0.444-10.174
			c-0.071-0.205-0.108-0.307-0.108-0.307c-0.078-0.201-0.119-0.301-0.119-0.301c-0.085-0.197-0.131-0.298-0.131-0.298
			c-0.096-0.2-0.146-0.298-0.146-0.298c-0.567-1.021-0.809-1.387-1.799-2.599c-23.795-30.552-10.645-50.923,16.819-77.543
			c14.85-15.026,27.829-37.425,45.379-50.908c0.267-0.149,0.409-0.237,0.869-0.455c0.19-0.085,0.284-0.124,0.284-0.124
			c0.189-0.075,0.283-0.111,0.283-0.111c0.188-0.066,0.282-0.097,0.282-0.097c0.188-0.056,0.282-0.082,0.282-0.082
			c0.189-0.047,0.284-0.068,0.284-0.068c0.19-0.037,0.286-0.053,0.286-0.053c0.192-0.027,0.289-0.039,0.289-0.039
			c0.194-0.018,0.292-0.024,0.292-0.024c0.198-0.008,0.297-0.009,0.297-0.009c0.201,0.003,0.303,0.006,0.303,0.006
			c0.205,0.013,0.309,0.022,0.309,0.022c0.21,0.023,0.317,0.037,0.317,0.037c0.216,0.034,0.325,0.053,0.325,0.053
			c0.222,0.044,0.334,0.069,0.334,0.069c0.228,0.055,0.344,0.085,0.344,0.085c2.972,0.867,5.623,2.527,8.778,4.406
			c18.501,13.407,41.321,21.025,61.889,30.442c10.204,5.142,21.784,6.653,33.982,4.033l13.008-2.387
			c7.828-1.439,16.981-1.877,25.414-1.784l12.566,0.252c3.638,18.547,2.268,38.541-0.469,57.239
			c-0.49,6.013-1.488,12.64,0.445,19.116c0.094,0.245,0.126,0.325,0.126,0.325c0.1,0.232,0.134,0.308,0.134,0.308
			c0.105,0.22,0.142,0.291,0.142,0.291c0.111,0.207,0.149,0.273,0.149,0.273c0.157,0.255,0.198,0.316,0.198,0.316
			c0.167,0.232,0.211,0.287,0.211,0.287c0.224,0.257,0.247,0.281,0.247,0.281c0.255,0.238,0.285,0.263,0.285,0.263
			c0.245,0.186,0.276,0.208,0.276,0.208c0.256,0.163,0.321,0.201,0.321,0.201c0.528,0.298,0.952,0.443,1.823,0.828
			c0.218,0.103,0.29,0.139,0.29,0.139c0.217,0.113,0.289,0.153,0.289,0.153c0.216,0.126,0.287,0.171,0.287,0.171
			c0.214,0.142,0.284,0.193,0.284,0.193c0.245,0.19,0.28,0.219,0.28,0.219c0.24,0.216,0.274,0.249,0.274,0.249
			c0.244,0.255,0.304,0.323,0.304,0.323c0.178,0.214,0.237,0.289,0.237,0.289c0.174,0.233,0.231,0.314,0.231,0.314
			c4.196,6.657,4.033,16.512,5.383,24.804c0.068,0.264,0.104,0.392,0.104,0.392c0.076,0.246,0.095,0.306,0.095,0.306
			c0.082,0.231,0.104,0.287,0.104,0.287c0.089,0.215,0.112,0.267,0.112,0.267c0.122,0.247,0.148,0.294,0.148,0.294
			c0.136,0.225,0.165,0.268,0.165,0.268c0.179,0.24,0.21,0.278,0.21,0.278c0.227,0.245,0.26,0.277,0.26,0.277
			c0.242,0.214,0.278,0.242,0.278,0.242c0.217,0.164,0.291,0.216,0.291,0.216c0.478,0.325,0.946,0.564,2.027,1.296
			c0.25,0.158,0.335,0.209,0.335,0.209c0.261,0.151,0.351,0.2,0.351,0.2c0.183,0.095,0.277,0.141,0.277,0.141
			c0.242,0.109,0.292,0.13,0.292,0.13c0.256,0.099,0.308,0.118,0.308,0.118c0.216,0.07,0.272,0.087,0.272,0.087
			c0.248,0.066,0.346,0.089,0.346,0.089c0.202,0.043,0.305,0.062,0.305,0.062c0.211,0.035,0.319,0.051,0.319,0.051
			c11.111-0.341,22.74-0.446,34.197-0.052c0.228-0.037,0.303-0.051,0.303-0.051c0.222-0.045,0.295-0.061,0.295-0.061
			c0.216-0.052,0.286-0.071,0.286-0.071c0.209-0.06,0.278-0.082,0.278-0.082c0.202-0.069,0.269-0.093,0.269-0.093
			c0.26-0.105,0.323-0.133,0.323-0.133c0.248-0.121,0.308-0.153,0.308-0.153c0.236-0.137,0.293-0.174,0.293-0.174
			c0.223-0.155,0.277-0.196,0.277-0.196c0.261-0.219,0.311-0.265,0.311-0.265c0.241-0.248,0.287-0.301,0.287-0.301
			c0.209-0.262,0.249-0.317,0.249-0.317c0.154-0.228,0.191-0.287,0.191-0.287c0.142-0.244,0.175-0.307,0.175-0.307
			c0.13-0.258,0.16-0.324,0.16-0.324c0.089-0.202,0.118-0.271,0.118-0.271c0.082-0.209,0.108-0.28,0.108-0.28
			c0.075-0.216,0.099-0.289,0.099-0.289c0.51-1.705,0.673-3.687,0.191-5.729c-0.055-0.213-0.074-0.283-0.074-0.283
			c-0.061-0.207-0.083-0.274-0.083-0.274c-0.068-0.199-0.091-0.265-0.091-0.265c-0.1-0.254-0.126-0.316-0.126-0.316
			c-0.11-0.239-0.139-0.297-0.139-0.297c-0.126-0.233-0.152-0.278-0.152-0.278c-0.165-0.259-0.193-0.301-0.193-0.301
			c-0.179-0.239-0.21-0.277-0.21-0.277c-0.225-0.256-0.259-0.291-0.259-0.291c-0.242-0.233-0.278-0.265-0.278-0.265
			c-0.221-0.184-0.297-0.243-0.297-0.243c-0.234-0.17-0.314-0.224-0.314-0.224c-0.246-0.157-0.33-0.208-0.33-0.208
			c-5.873-2.708-11.617-6.171-17.993-8.714c-0.192-0.114-0.286-0.173-0.286-0.173c-0.186-0.121-0.277-0.183-0.277-0.183
			c-0.179-0.128-0.268-0.194-0.268-0.194c-0.258-0.206-0.342-0.277-0.342-0.277c-0.244-0.224-0.284-0.263-0.284-0.263
			c-0.238-0.248-0.282-0.297-0.282-0.297c-0.213-0.253-0.255-0.306-0.255-0.306c-0.162-0.215-0.202-0.271-0.202-0.271
			c-0.117-0.169-0.193-0.284-0.193-0.284c-0.148-0.237-0.22-0.358-0.22-0.358c-0.141-0.249-0.209-0.377-0.209-0.377
			c-2.662-8.76-8.572-18.219-4.695-27.904l2.069-5.604c3.213-10.994,3.246-24.086,10.262-34.584
			c7.103-13.534,7.081-30.868,19.176-42.104c6.773-6.536,13.257-13.529,21.557-18.684c19.768-10.612,16.455-15.505,18.193-37.253
			c2.53-16.656,5.89-38.507,24.831-44.258c1.785-0.8,4.44-2.013,6.241-3.797c0.256-0.259,0.363-0.373,0.363-0.373
			c0.209-0.232,0.31-0.351,0.31-0.351c0.198-0.24,0.295-0.362,0.295-0.362c1.625-2.041,2.54-4.754,4.218-7.24
			c0.152-0.209,0.153-0.223,0.466-0.62c0.161-0.194,0.243-0.289,0.243-0.289c1.107-1.275,2.468-2.179,4.019-3.517
			c0.238-0.217,0.315-0.29,0.315-0.29c0.224-0.22,0.296-0.295,0.296-0.295c0.208-0.225,0.274-0.301,0.274-0.301
			c0.189-0.232,0.219-0.271,0.219-0.271c0.175-0.244,0.222-0.313,0.222-0.313c0.132-0.21,0.175-0.281,0.175-0.281
			c0.461-0.783,0.681-1.498,1.272-2.7c0.121-0.228,0.163-0.303,0.163-0.303c0.132-0.226,0.178-0.301,0.178-0.301
			c0.145-0.224,0.196-0.298,0.196-0.298c0.161-0.22,0.217-0.293,0.217-0.293c0.178-0.217,0.241-0.288,0.241-0.288
			c0.211-0.226,0.267-0.282,0.267-0.282c0.232-0.222,0.293-0.277,0.293-0.277c20.866-12.055,41.537-17.295,29.342-50.99
			c-0.272-1.1-0.578-2.323-0.879-3.897c0.255-0.095,0.273-0.104,0.273-0.104c0.259-0.165,0.265-0.171,0.265-0.171
			c0.191-0.253,0.197-0.265,0.197-0.265c0.075-0.251,0.077-0.265,0.077-0.265c0.017-0.243,0.017-0.275,0.017-0.275
			c-0.015-0.237-0.019-0.272-0.019-0.272c-0.185-1.073-0.482-2.513-0.998-3.943c-0.097-0.249-0.131-0.331-0.131-0.331
			c-0.105-0.244-0.142-0.324-0.142-0.324c-0.114-0.237-0.154-0.315-0.154-0.315c-0.124-0.229-0.167-0.304-0.167-0.304
			c-0.134-0.219-0.18-0.291-0.18-0.291c-0.144-0.208-0.194-0.275-0.194-0.275c-1.207-3.842-2.957-7.146-6.367-10.327l-4.189-4.176
			c-7.821-6.298-4.718-23.186-43.487-25.937c-0.154-0.256-0.178-0.292-0.178-0.292c-0.184-0.246-0.212-0.28-0.212-0.28
			c-0.212-0.235-0.244-0.268-0.244-0.268c-0.237-0.223-0.273-0.254-0.273-0.254c-0.223-0.182-0.3-0.241-0.3-0.241
			c-0.241-0.171-0.324-0.226-0.324-0.226c-0.258-0.16-0.347-0.212-0.347-0.212c-0.181-0.1-0.273-0.149-0.273-0.149
			c-0.188-0.094-0.283-0.14-0.283-0.14c-0.194-0.088-0.292-0.131-0.292-0.131c-0.199-0.082-0.3-0.121-0.3-0.121
			c-2.078-0.761-3.981-0.818-6.454-0.358l-3.732,0.718c-15.566,2.073-23.448-0.704-36.711,14.702l-6.457,7.344
			c-6.301,7.73-16.805,10.853-23.29,19.703c-12.705,14.971-10.621,18.747-32.836,22.512c-0.206,0.101-0.308,0.154-0.308,0.154
			c-0.202,0.109-0.303,0.166-0.303,0.166c-0.209,0.124-0.313,0.188-0.313,0.188c-0.205,0.133-0.307,0.202-0.307,0.202
			c-0.202,0.142-0.302,0.215-0.302,0.215c-2.652,2.123-3.944,4.281-5.928,7.79c-1.869,3.326-3.404,7.023-6.175,10.324
			c-0.219,0.239-0.328,0.355-0.328,0.355c-0.221,0.222-0.332,0.329-0.332,0.329c-0.223,0.205-0.279,0.254-0.279,0.254
			c-0.225,0.189-0.282,0.234-0.282,0.234c-0.227,0.173-0.285,0.214-0.285,0.214c-0.23,0.156-0.287,0.193-0.287,0.193
			c-0.232,0.139-0.29,0.171-0.29,0.171c-0.234,0.121-0.293,0.149-0.293,0.149c-0.237,0.102-0.297,0.125-0.297,0.125
			c-0.24,0.083-0.3,0.101-0.3,0.101c-0.242,0.063-0.303,0.076-0.303,0.076c-0.245,0.043-0.307,0.051-0.307,0.051
			c-0.248,0.022-0.279,0.023-0.279,0.023c-0.251,0.002-0.282,0.001-0.282,0.001c-0.257-0.018-0.29-0.022-0.29-0.022
			c-0.236-0.034-0.303-0.047-0.303-0.047c-0.204-0.044-0.273-0.061-0.273-0.061c-0.206-0.057-0.275-0.078-0.275-0.078
			c-0.208-0.068-0.278-0.093-0.278-0.093c-1.888-0.688-3.726-2.158-5.962-3.003c-0.25-0.09-0.333-0.118-0.333-0.118
			c-0.252-0.08-0.336-0.105-0.336-0.105c-0.254-0.07-0.338-0.091-0.338-0.091c-0.256-0.058-0.341-0.075-0.341-0.075
			c-0.258-0.046-0.344-0.058-0.344-0.058c-0.259-0.032-0.346-0.04-0.346-0.04c-0.261-0.017-0.349-0.021-0.349-0.021
			c-0.263-0.002-0.352,0-0.352,0c-0.236,0.012-0.296,0.017-0.296,0.017c-0.238,0.024-0.297,0.032-0.297,0.032
			c-0.239,0.036-0.299,0.046-0.299,0.046c-0.18,0.035-0.301,0.061-0.301,0.061c-0.242,0.058-0.363,0.091-0.363,0.091
			c-0.243,0.071-0.365,0.109-0.365,0.109c-0.244,0.083-0.367,0.128-0.367,0.128c-0.246,0.095-0.369,0.145-0.369,0.145
			c-10.192,4.699-15.049,18.458-29.184,9.663c-2.069-1.015-4.706-2.166-7.673-2.129c-6.616,0.771-14.021,1.173-20.811-1.522
			C331.274,298.166,284.601,302.029,276.153,305.568z"/>
	</g>
</g>
</svg>
