<?xml version="1.0" encoding="utf-8"?>
<!-- Generator: Adobe Illustrator 24.0.1, SVG Export Plug-In . SVG Version: 6.00 Build 0)  -->
<!DOCTYPE svg PUBLIC "-//W3C//DTD SVG 1.1//EN" "http://www.w3.org/Graphics/SVG/1.1/DTD/svg11.dtd" [
	<!ENTITY ns_extend "http://ns.adobe.com/Extensibility/1.0/">
	<!ENTITY ns_ai "http://ns.adobe.com/AdobeIllustrator/10.0/">
	<!ENTITY ns_graphs "http://ns.adobe.com/Graphs/1.0/">
	<!ENTITY ns_vars "http://ns.adobe.com/Variables/1.0/">
	<!ENTITY ns_imrep "http://ns.adobe.com/ImageReplacement/1.0/">
	<!ENTITY ns_sfw "http://ns.adobe.com/SaveForWeb/1.0/">
	<!ENTITY ns_custom "http://ns.adobe.com/GenericCustomNamespace/1.0/">
	<!ENTITY ns_adobe_xpath "http://ns.adobe.com/XPath/1.0/">
]>
<svg version="1.1" xmlns:x="&ns_extend;" xmlns:i="&ns_ai;" xmlns:graph="&ns_graphs;"
	 xmlns="http://www.w3.org/2000/svg" xmlns:xlink="http://www.w3.org/1999/xlink" x="0px" y="0px" viewBox="0 0 750 750"
	 enable-background="new 0 0 750 750" xml:space="preserve">
<metadata>
	<sfw  xmlns="&ns_sfw;">
		<slices></slices>
		<sliceSourceBounds  bottomLeftOrigin="true" height="14825" width="8203.412" x="-3962.412" y="-6975"></sliceSourceBounds>
	</sfw>
</metadata>
<g id="FILL-BACKGROUND">
	<rect fill="#FFFFFF" width="750" height="750"/>
</g>
<g id="N-DIMENSIONS">
</g>
<g id="N-TEXT">
</g>
<g id="AG-DIAGRAM">
	<g id="POLYLINE_2828_">
		<g>
			<g>
				
					<line fill="none" stroke="#FB8604" stroke-width="3.25" stroke-linecap="round" stroke-linejoin="round" x1="127.03" y1="582.177" x2="129.03" y2="582.177"/>
				
					<line fill="none" stroke="#FB8604" stroke-width="3.25" stroke-linecap="round" stroke-linejoin="round" stroke-dasharray="4.022,7.0385" x1="136.069" y1="582.177" x2="541.788" y2="582.177"/>
				
					<line fill="none" stroke="#FB8604" stroke-width="3.25" stroke-linecap="round" stroke-linejoin="round" x1="545.307" y1="582.177" x2="547.307" y2="582.177"/>
			</g>
		</g>
	</g>
</g>
<g id="AG-DETAIL">
	<g id="POLYLINE_168_">
		<path fill="none" stroke="#FB8604" stroke-width="2" stroke-linecap="round" stroke-linejoin="round" stroke-miterlimit="10" d="
			M531.864,322.171c-14.55-20.226,15.469-30.467-3.61-53.699c-3.415-4.862-5.06-7.052-6.196-13.351l-0.789-5.042
			c-0.572-4.574-3.201-8.919-6.31-12.968"/>
	</g>
</g>
<g id="AG-GUIDES">
</g>
<g id="AG-PEOPLE">
</g>
<g id="AG-ANIMALS">
	<g id="POLYLINE_388_">
		
			<path fill="none" stroke="#FB8604" stroke-width="2.75" stroke-linecap="round" stroke-linejoin="round" stroke-miterlimit="10" d="
			M616.272,257.164c-0.692-0.226-1.398-0.555-2.072-1.128c-0.127-0.111-0.19-0.168-0.19-0.168c-0.124-0.118-0.185-0.179-0.185-0.179
			c-2.009-2.18-2.628-5.643-1.858-8.718c0.041-0.129,0.063-0.192,0.063-0.192c0.045-0.125,0.069-0.186,0.069-0.186
			c0.049-0.121,0.075-0.18,0.075-0.18c0.053-0.117,0.081-0.174,0.081-0.174c0.057-0.112,0.087-0.167,0.087-0.167
			c0.062-0.107,0.093-0.16,0.093-0.16c0.083-0.127,0.1-0.152,0.1-0.152c0.088-0.12,0.106-0.144,0.106-0.144
			c0.094-0.114,0.113-0.136,0.113-0.136c0.12-0.127,0.14-0.147,0.14-0.147c0.128-0.116,0.149-0.135,0.149-0.135
			c0.113-0.088,0.136-0.105,0.136-0.105c0.118-0.08,0.143-0.095,0.143-0.095c0.122-0.07,0.147-0.083,0.147-0.083
			c0.128-0.062,0.154-0.074,0.154-0.074c0.106-0.044,0.133-0.054,0.133-0.054c0.109-0.039,0.137-0.048,0.137-0.048
			c0.112-0.033,0.141-0.041,0.141-0.041c0.115-0.028,0.144-0.035,0.144-0.035c0.118-0.024,0.178-0.034,0.178-0.034
			c0.121-0.018,0.183-0.025,0.183-0.025c0.124-0.012,0.187-0.017,0.187-0.017c2.235-0.042,4.422,0.889,6.344,2.418
			c0.093,0.083,0.104,0.088,0.279,0.256c0.102,0.103,0.15,0.154,0.15,0.154c0.093,0.102,0.137,0.153,0.137,0.153
			c0.084,0.102,0.123,0.153,0.123,0.153c0.093,0.128,0.111,0.154,0.111,0.154c0.083,0.128,0.099,0.154,0.099,0.154
			c0.059,0.103,0.073,0.129,0.073,0.129c0.053,0.104,0.065,0.13,0.065,0.13c0.047,0.105,0.058,0.131,0.058,0.131
			c0.041,0.106,0.05,0.132,0.05,0.132c0.035,0.107,0.043,0.134,0.043,0.134c0.03,0.108,0.037,0.135,0.037,0.135
			c0.025,0.11,0.03,0.137,0.03,0.137c0.02,0.111,0.024,0.139,0.024,0.139c0.015,0.113,0.021,0.17,0.021,0.17
			c0.009,0.115,0.013,0.173,0.013,0.173c0.004,0.118,0.005,0.177,0.005,0.177c0,0.121-0.002,0.182-0.002,0.182
			c-0.162,1.967-0.689,4.294-1.993,6.214c-0.084,0.112-0.113,0.148-0.113,0.148c-0.086,0.106-0.116,0.14-0.116,0.14
			c-0.089,0.1-0.118,0.132-0.118,0.132c-0.121,0.124-0.152,0.154-0.152,0.154c-0.117,0.106-0.141,0.126-0.141,0.126
			c-0.12,0.096-0.144,0.114-0.144,0.114c-0.122,0.087-0.147,0.103-0.147,0.103c-0.125,0.078-0.15,0.092-0.15,0.092
			c-0.128,0.069-0.153,0.082-0.153,0.082c-0.104,0.049-0.13,0.06-0.13,0.06c-0.105,0.043-0.132,0.053-0.132,0.053
			c-0.107,0.038-0.134,0.046-0.134,0.046c-0.108,0.032-0.135,0.04-0.135,0.04c-0.109,0.027-0.137,0.033-0.137,0.033
			c-0.11,0.022-0.138,0.027-0.138,0.027c-0.112,0.017-0.168,0.024-0.168,0.024c-0.113,0.012-0.169,0.016-0.169,0.016
			c-0.114,0.006-0.171,0.008-0.171,0.008c-0.115,0.001-0.172,0-0.172,0c-0.115-0.004-0.173-0.008-0.173-0.008
			c-0.116-0.009-0.174-0.015-0.174-0.015c-0.117-0.014-0.175-0.022-0.175-0.022C616.878,257.325,616.646,257.28,616.272,257.164z"/>
	</g>
	<g id="POLYLINE_387_">
		
			<path fill="none" stroke="#FB8604" stroke-width="2.75" stroke-linecap="round" stroke-linejoin="round" stroke-miterlimit="10" d="
			M558.369,267.656l1.159,2.76c1.263,2.96,3.175,5.531,6.298,7.556l3.861,2.635c0.84,0.607,2.913,2.03,3.689,3.373
			c0.058,0.098,0.077,0.131,0.077,0.131c0.053,0.098,0.07,0.131,0.07,0.131c0.049,0.099,0.064,0.131,0.064,0.131
			c0.044,0.099,0.057,0.132,0.057,0.132c0.036,0.092,0.053,0.138,0.053,0.138c0.031,0.092,0.045,0.139,0.045,0.139
			c0.026,0.093,0.038,0.139,0.038,0.139c0.022,0.093,0.032,0.139,0.032,0.139c0.017,0.093,0.025,0.14,0.025,0.14
			c0.013,0.093,0.019,0.14,0.019,0.14c0.009,0.094,0.013,0.141,0.013,0.141c0.005,0.094,0.007,0.141,0.007,0.141
			c0.002,0.094,0.002,0.141,0.002,0.141c-0.959,4.272-2.365,7.231-0.527,12.301c1.245,3.667,1.823,8.364,4.331,11.784
			c0.097,0.114,0.147,0.169,0.147,0.169c0.1,0.109,0.151,0.162,0.151,0.162c0.103,0.104,0.156,0.154,0.156,0.154
			c0.106,0.099,0.16,0.146,0.16,0.146c0.11,0.093,0.165,0.138,0.165,0.138c0.113,0.088,0.17,0.13,0.17,0.13
			c0.116,0.082,0.175,0.121,0.175,0.121c0.12,0.076,0.181,0.112,0.181,0.112c0.123,0.07,0.186,0.103,0.186,0.103
			c0.127,0.064,0.189,0.093,0.189,0.093c0.125,0.055,0.189,0.081,0.189,0.081c13.944,4.466,21.584-34.677-17.975-49.725"/>
	</g>
	<g id="POLYLINE_386_">
		
			<path fill="none" stroke="#FB8604" stroke-width="2.75" stroke-linecap="round" stroke-linejoin="round" stroke-miterlimit="10" d="
			M558.369,267.656c-0.212-0.573-0.44-1.37-0.399-2.12c0.005-0.092,0.008-0.137,0.008-0.137c0.008-0.092,0.014-0.138,0.014-0.138
			c0.012-0.092,0.019-0.138,0.019-0.138c0.016-0.092,0.024-0.138,0.024-0.138c0.02-0.092,0.03-0.139,0.03-0.139
			c0.027-0.106,0.044-0.166,0.044-0.166c0.037-0.12,0.057-0.179,0.057-0.179c0.044-0.119,0.068-0.179,0.068-0.179
			c0.051-0.119,0.078-0.178,0.078-0.178c0.058-0.118,0.089-0.177,0.089-0.177c0.065-0.117,0.099-0.176,0.099-0.176
			c0.072-0.116,0.11-0.174,0.11-0.174c0.08-0.115,0.121-0.172,0.121-0.172c0.087-0.113,0.133-0.169,0.133-0.169
			c0.095-0.111,0.144-0.166,0.144-0.166c0.102-0.109,0.155-0.162,0.155-0.162c0.11-0.106,0.167-0.159,0.167-0.159
			c0.118-0.103,0.179-0.154,0.179-0.154c5.815-4.439,23.321,0.68,30.024,2.276c6.538,1.632,23.955,3.766,29.029-6.584l0.656-1.251"
			/>
	</g>
	<g id="POLYLINE_385_">
		
			<path fill="none" stroke="#FB8604" stroke-width="2.75" stroke-linecap="round" stroke-linejoin="round" stroke-miterlimit="10" d="
			M514.959,237.111c-10.899-17.989,7.492-35.376,11.268-53.05l1.094-5.776c0.061-0.287,0.373-1.804,0.691-2.536
			c0.052-0.124,0.078-0.183,0.078-0.183c0.053-0.114,0.081-0.169,0.081-0.169c0.055-0.104,0.069-0.129,0.069-0.129
			c0.071-0.118,0.086-0.14,0.086-0.14c0.088-0.124,0.103-0.143,0.103-0.143c0.108-0.12,0.123-0.135,0.123-0.135
			c0.113-0.093,0.129-0.104,0.129-0.104c0.124-0.067,0.136-0.072,0.136-0.072c0.118-0.035,0.13-0.037,0.13-0.037
			c0.122-0.011,0.135-0.011,0.135-0.011c0.126,0.013,0.139,0.015,0.139,0.015c0.117,0.031,0.13,0.036,0.13,0.036
			c0.12,0.049,0.133,0.056,0.133,0.056c0.122,0.067,0.136,0.075,0.136,0.075c0.111,0.074,0.138,0.094,0.138,0.094
			c0.112,0.089,0.141,0.113,0.141,0.113c0.114,0.103,0.142,0.131,0.142,0.131c0.115,0.117,0.144,0.148,0.144,0.148
			c0.087,0.097,0.116,0.13,0.116,0.13c3.856,5.179,4.153,15.217,5.368,21.631c0.539,3.31,1.227,6.47,2.51,10.29
			c2.339,6.131,4.254,12.72,4.77,19.642"/>
	</g>
	<g id="POLYLINE_384_">
		
			<path fill="none" stroke="#FB8604" stroke-width="2.75" stroke-linecap="round" stroke-linejoin="round" stroke-miterlimit="10" d="
			M537.372,204.765c11.664,2.686,25.616,5.306,34.754,14.444c7.122,12.673,30.108,19.905,42.413,25.397"/>
	</g>
	<g id="POLYLINE_383_">
		
			<path fill="none" stroke="#FB8604" stroke-width="2.75" stroke-linecap="round" stroke-linejoin="round" stroke-miterlimit="10" d="
			M514.679,211.245c-13.02,6.38-19.634,20.446-27.919,32.15c-10.396,10.703-21.543,21.876-33.724,31.073
			c-12.002,7.053-62.978,19.52-69.593,20.223c-53.325,3.574-111.17-13.794-158.211,4.882
			c-26.702,11.393-51.344,36.342-47.687,69.775c1.112,17.946,8.903,33.485,11.537,51.237c4.054,66.072-19.581,62.868-22.011,92.051
			l-0.407,8.416c-0.788,17.215-7.794,34.69-4.89,52.363c0.466,2.092,1.191,4.758,2.886,6.447c0.108,0.106,0.163,0.158,0.163,0.158
			c0.111,0.102,0.167,0.151,0.167,0.151c0.114,0.097,0.171,0.144,0.171,0.144c0.117,0.093,0.176,0.138,0.176,0.138
			c0.12,0.088,0.18,0.131,0.18,0.131c0.123,0.084,0.185,0.125,0.185,0.125c2.764,1.539,4.906,1.487,8.584,1.568
			c2.476-0.039,7.77-0.124,10.315-0.168c1.71-0.084,4.435-0.098,6.576-0.887c0.121-0.05,0.181-0.075,0.181-0.075
			c0.115-0.052,0.171-0.079,0.171-0.079c0.109-0.055,0.162-0.083,0.162-0.083c0.102-0.058,0.152-0.088,0.152-0.088
			c0.108-0.069,0.136-0.088,0.136-0.088c0.111-0.08,0.138-0.101,0.138-0.101c0.127-0.106,0.152-0.128,0.152-0.128
			c0.115-0.112,0.137-0.135,0.137-0.135c0.103-0.118,0.123-0.143,0.123-0.143c0.092-0.125,0.11-0.15,0.11-0.15
			c0.066-0.105,0.082-0.131,0.082-0.131c0.059-0.109,0.073-0.137,0.073-0.137c0.053-0.114,0.065-0.143,0.065-0.143
			c0.047-0.118,0.058-0.149,0.058-0.149c0.041-0.123,0.05-0.154,0.05-0.154c0.035-0.128,0.043-0.161,0.043-0.161
			c0.286-3.967,0.013-8.923-2.36-12.72c-0.099-0.126-0.149-0.187-0.149-0.187c-0.102-0.119-0.155-0.177-0.155-0.177
			c-0.106-0.112-0.161-0.167-0.161-0.167c-0.11-0.105-0.138-0.13-0.138-0.13c-0.114-0.099-0.143-0.123-0.143-0.123
			c-0.117-0.092-0.166-0.129-0.166-0.129c-0.099-0.07-0.148-0.103-0.148-0.103c-0.101-0.065-0.152-0.096-0.152-0.096
			c-0.104-0.06-0.156-0.089-0.156-0.089c-0.106-0.055-0.16-0.082-0.16-0.082c-0.108-0.051-0.163-0.075-0.163-0.075
			c-0.11-0.047-0.166-0.069-0.166-0.069c-1.891-0.761-4.029-0.278-6.282-0.749c-0.097-0.026-0.144-0.04-0.144-0.04
			c-0.103-0.032-0.137-0.043-0.137-0.043c-0.1-0.035-0.133-0.048-0.133-0.048c-0.129-0.052-0.16-0.066-0.16-0.066
			c-0.123-0.057-0.154-0.072-0.154-0.072c-0.118-0.062-0.148-0.079-0.148-0.079c-0.114-0.068-0.141-0.085-0.141-0.085
			c-0.109-0.072-0.135-0.091-0.135-0.091c-0.104-0.077-0.129-0.097-0.129-0.097c-0.123-0.103-0.147-0.124-0.147-0.124
			c-0.116-0.11-0.139-0.132-0.139-0.132c-0.109-0.116-0.13-0.14-0.13-0.14c-0.102-0.123-0.122-0.148-0.122-0.148
			c-0.095-0.129-0.113-0.155-0.113-0.155c-0.071-0.107-0.088-0.135-0.088-0.135c-0.067-0.111-0.083-0.139-0.083-0.139
			c-0.062-0.115-0.092-0.173-0.092-0.173c-0.057-0.119-0.084-0.18-0.084-0.18c-0.052-0.123-0.076-0.186-0.076-0.186
			c-1.074-4.176,0.898-8.028,0.787-12.751c-1.873-30.824,25.222-61.686,41.92-82.959c9.702-12.845,20.852-34.162,28.851-47.95
			c19.839-33.522,20.963-40.361,62.968-24.445l15.67,7.235c30.281,13.523,64.372,18.999,97.525,13.192"/>
	</g>
	<g id="POLYLINE_382_">
		
			<path fill="none" stroke="#FB8604" stroke-width="2.75" stroke-linecap="round" stroke-linejoin="round" stroke-miterlimit="10" d="
			M183.765,472.458c-4.965,0.932-15.392,2.882-20.295,3.798c-3.73,0.768-7.388,1.495-11.414,2.691
			c-0.959,0.278-2.821,0.98-4.049,1.197c-0.121,0.017-0.16,0.022-0.16,0.022c-0.115,0.012-0.153,0.015-0.153,0.015
			c-0.11,0.007-0.145,0.008-0.145,0.008c-0.104,0.001-0.138,0-0.138,0c-0.115-0.007-0.131-0.009-0.131-0.009
			c-0.123-0.017-0.138-0.02-0.138-0.02c-0.115-0.027-0.129-0.032-0.129-0.032c-0.119-0.044-0.132-0.049-0.132-0.049
			c-0.12-0.065-0.132-0.072-0.132-0.072c-0.127-0.102-0.137-0.111-0.137-0.111c-0.1-0.117-0.108-0.129-0.108-0.129
			c-0.074-0.123-0.086-0.145-0.086-0.145c-0.053-0.121-0.062-0.146-0.062-0.146c-0.035-0.107-0.043-0.135-0.043-0.135
			c-0.029-0.117-0.035-0.147-0.035-0.147c-0.022-0.126-0.027-0.159-0.027-0.159c-0.012-0.101-0.016-0.135-0.016-0.135
			c-0.009-0.106-0.011-0.142-0.011-0.142c0.656-11.096,11.435-17.756,21.328-21.252c11.049-3.642,15.303-16.333,19.638-26.415
			c0.775-1.857,1.559-3.779,2.369-6.274"/>
	</g>
	<g id="POLYLINE_381_">
		
			<path fill="none" stroke="#FB8604" stroke-width="2.75" stroke-linecap="round" stroke-linejoin="round" stroke-miterlimit="10" d="
			M224.726,463.975c0.931,13.944-5.674,28.185-12.061,40.758c-2.102,4.171-3.659,9.462-2.236,14.651
			c6.939,20.308,13.483,42.439,25.309,60.555c0.123,0.115,0.165,0.152,0.165,0.152c0.126,0.109,0.168,0.145,0.168,0.145
			c0.12,0.097,0.181,0.144,0.181,0.144c0.123,0.091,0.186,0.135,0.186,0.135c4.974,2.693,28.948,1.942,33.444,0.157
			c0.109-0.057,0.162-0.087,0.162-0.087c0.104-0.06,0.156-0.091,0.156-0.091c0.1-0.063,0.149-0.095,0.149-0.095
			c0.095-0.066,0.142-0.1,0.142-0.1c0.09-0.069,0.134-0.104,0.134-0.104c0.127-0.109,0.168-0.147,0.168-0.147
			c0.117-0.116,0.136-0.135,0.136-0.135c0.109-0.122,0.126-0.142,0.126-0.142c0.1-0.128,0.116-0.15,0.116-0.15
			c0.076-0.111,0.091-0.134,0.091-0.134c0.069-0.115,0.082-0.138,0.082-0.138c0.062-0.117,0.073-0.141,0.073-0.141
			c0.056-0.121,0.066-0.146,0.066-0.146c0.05-0.125,0.068-0.177,0.068-0.177c0.035-0.104,0.051-0.156,0.051-0.156
			c0.03-0.107,0.044-0.161,0.044-0.161c0.026-0.11,0.037-0.165,0.037-0.165c0.021-0.112,0.031-0.169,0.031-0.169
			c0.017-0.115,0.024-0.174,0.024-0.174c0.013-0.118,0.018-0.177,0.018-0.177c-0.32-6.406-4.837-14.993-12.919-14.219
			c-2.583-0.099-6.042,0.483-8.592-1.011c-0.129-0.08-0.192-0.121-0.192-0.121c-0.125-0.084-0.187-0.128-0.187-0.128
			c-0.122-0.089-0.183-0.135-0.183-0.135c-6.688-8.091-9.936-19.396-12.632-29.889c-3.884-23.909,19.494-56.774,32.258-74.408
			c15.567-20.08,10.323-48.483,19.689-71.374"/>
	</g>
	<g id="POLYLINE_373_">
		
			<path fill="none" stroke="#FB8604" stroke-width="2.75" stroke-linecap="round" stroke-linejoin="round" stroke-miterlimit="10" d="
			M422.054,371.51c1.29,18.777,4.867,37.868,8.065,56.538c0,0,4.368,21.512,4.368,21.512c2.865,11.154,1.583,22.727,1.294,34.525
			c0.464,12.81,3.734,25.031,2.917,37.982c-2.857,17.343,3.892,28.803,6.089,45.236c-0.887,20.37,14.492,13.776,28.073,14.878
			c2.256-0.076,6.355,0.068,8.918-1.451c0.109-0.07,0.145-0.094,0.145-0.094c0.105-0.073,0.14-0.097,0.14-0.097
			c0.101-0.076,0.134-0.101,0.134-0.101c0.128-0.105,0.159-0.132,0.159-0.132c0.091-0.082,0.134-0.123,0.134-0.123
			c0.123-0.124,0.163-0.167,0.163-0.167c0.077-0.086,0.114-0.13,0.114-0.13c0.072-0.089,0.108-0.135,0.108-0.135
			c0.068-0.092,0.101-0.139,0.101-0.139c0.064-0.095,0.095-0.143,0.095-0.143c0.06-0.098,0.089-0.148,0.089-0.148
			c0.056-0.101,0.083-0.152,0.083-0.152c0.052-0.103,0.077-0.155,0.077-0.155c0.048-0.106,0.071-0.159,0.071-0.159
			c0.044-0.108,0.065-0.163,0.065-0.163c0.04-0.111,0.059-0.166,0.059-0.166c0.874-3.908-0.372-8.495-2.945-12.012
			c-3.834-4.613-10.432-2.435-15.854-4.289c-0.1-0.046-0.133-0.062-0.133-0.062c-0.127-0.065-0.169-0.088-0.169-0.088
			c-0.12-0.07-0.159-0.094-0.159-0.094c-0.113-0.074-0.15-0.1-0.15-0.1c-0.106-0.079-0.141-0.106-0.141-0.106
			c-0.1-0.083-0.132-0.112-0.132-0.112c-0.124-0.117-0.153-0.147-0.153-0.147c-0.114-0.124-0.141-0.156-0.141-0.156
			c-0.079-0.098-0.104-0.131-0.104-0.131c-0.073-0.102-0.097-0.136-0.097-0.136c-0.068-0.106-0.09-0.142-0.09-0.142
			c-0.063-0.11-0.084-0.147-0.084-0.147c-0.059-0.113-0.078-0.152-0.078-0.152c-0.055-0.117-0.072-0.157-0.072-0.157
			c-0.051-0.121-0.067-0.162-0.067-0.162c-0.74-2.731-1.672-9.743-2.344-12.695c-2.574-18.466,1.245-43.46,1.159-62.138
			c2.333-61,14.285-72.695,36.829-110.099c9.017-15.45,12.252-27.577,25.875-40.328c10.361-11.243,11.269-33.402,22.663-43.579
			c6.422-2.79,17.891,2.011,25.848,5.109"/>
	</g>
</g>
<g id="AG-OUTLINE">
	<g id="POLYLINE_59_">
		
			<path fill="none" stroke="#FB8604" stroke-width="3.5" stroke-linecap="round" stroke-linejoin="round" stroke-miterlimit="10" d="
			M183.765,472.458c-3.693,13.956-16.533,24.707-16.695,40.177l-0.407,8.416c-0.788,17.215-7.794,34.69-4.89,52.363
			c0.466,2.092,1.191,4.758,2.886,6.447c0.108,0.106,0.163,0.158,0.163,0.158c0.111,0.102,0.167,0.151,0.167,0.151
			c0.114,0.097,0.171,0.144,0.171,0.144c0.117,0.093,0.176,0.138,0.176,0.138c0.12,0.088,0.18,0.131,0.18,0.131
			c0.123,0.084,0.185,0.125,0.185,0.125c2.764,1.539,4.906,1.487,8.584,1.568c2.476-0.039,7.77-0.124,10.315-0.168
			c1.71-0.084,4.435-0.098,6.576-0.887c0.121-0.05,0.181-0.075,0.181-0.075c0.115-0.052,0.171-0.079,0.171-0.079
			c0.109-0.055,0.162-0.083,0.162-0.083c0.102-0.058,0.152-0.088,0.152-0.088c0.108-0.069,0.136-0.088,0.136-0.088
			c0.111-0.08,0.138-0.101,0.138-0.101c0.127-0.106,0.152-0.128,0.152-0.128c0.115-0.112,0.137-0.135,0.137-0.135
			c0.103-0.118,0.123-0.143,0.123-0.143c0.092-0.125,0.11-0.15,0.11-0.15c0.066-0.105,0.082-0.131,0.082-0.131
			c0.059-0.109,0.073-0.137,0.073-0.137c0.053-0.114,0.065-0.143,0.065-0.143c0.047-0.118,0.058-0.149,0.058-0.149
			c0.041-0.123,0.05-0.154,0.05-0.154c0.035-0.128,0.043-0.161,0.043-0.161c0.286-3.967,0.013-8.923-2.36-12.72
			c-0.099-0.126-0.149-0.187-0.149-0.187c-0.102-0.119-0.155-0.177-0.155-0.177c-0.106-0.112-0.161-0.167-0.161-0.167
			c-0.11-0.105-0.138-0.13-0.138-0.13c-0.114-0.099-0.143-0.123-0.143-0.123c-0.117-0.092-0.166-0.129-0.166-0.129
			c-0.099-0.07-0.148-0.103-0.148-0.103c-0.101-0.065-0.152-0.096-0.152-0.096c-0.104-0.06-0.156-0.089-0.156-0.089
			c-0.106-0.055-0.16-0.082-0.16-0.082c-0.108-0.051-0.163-0.075-0.163-0.075c-0.11-0.047-0.166-0.069-0.166-0.069
			c-1.891-0.761-4.029-0.278-6.282-0.749c-0.097-0.026-0.144-0.04-0.144-0.04c-0.103-0.032-0.137-0.043-0.137-0.043
			c-0.1-0.035-0.133-0.048-0.133-0.048c-0.129-0.052-0.16-0.066-0.16-0.066c-0.123-0.057-0.154-0.072-0.154-0.072
			c-0.118-0.062-0.148-0.079-0.148-0.079c-0.114-0.068-0.141-0.085-0.141-0.085c-0.109-0.072-0.135-0.091-0.135-0.091
			c-0.104-0.077-0.129-0.097-0.129-0.097c-0.123-0.103-0.147-0.124-0.147-0.124c-0.116-0.11-0.139-0.132-0.139-0.132
			c-0.109-0.116-0.13-0.14-0.13-0.14c-0.102-0.123-0.122-0.148-0.122-0.148c-0.095-0.129-0.113-0.155-0.113-0.155
			c-0.071-0.107-0.088-0.135-0.088-0.135c-0.067-0.111-0.083-0.139-0.083-0.139c-0.062-0.115-0.092-0.173-0.092-0.173
			c-0.057-0.119-0.084-0.18-0.084-0.18c-0.052-0.123-0.076-0.186-0.076-0.186c-1.074-4.176,0.898-8.028,0.787-12.751
			c-1.81-32.282,26.691-62.881,43.784-85.521c0.931,13.944-5.674,28.185-12.061,40.758c-2.102,4.171-3.659,9.462-2.236,14.651
			c6.939,20.308,13.483,42.439,25.309,60.555c0.123,0.115,0.165,0.152,0.165,0.152c0.126,0.109,0.168,0.145,0.168,0.145
			c0.12,0.097,0.181,0.144,0.181,0.144c0.123,0.091,0.186,0.135,0.186,0.135c4.974,2.693,28.948,1.942,33.444,0.157
			c0.109-0.057,0.162-0.087,0.162-0.087c0.104-0.06,0.156-0.091,0.156-0.091c0.1-0.063,0.149-0.095,0.149-0.095
			c0.095-0.066,0.142-0.1,0.142-0.1c0.09-0.069,0.134-0.104,0.134-0.104c0.127-0.109,0.168-0.147,0.168-0.147
			c0.117-0.116,0.136-0.135,0.136-0.135c0.109-0.122,0.126-0.142,0.126-0.142c0.1-0.128,0.116-0.15,0.116-0.15
			c0.076-0.111,0.091-0.134,0.091-0.134c0.069-0.115,0.082-0.138,0.082-0.138c0.062-0.117,0.073-0.141,0.073-0.141
			c0.056-0.121,0.066-0.146,0.066-0.146c0.05-0.125,0.068-0.177,0.068-0.177c0.035-0.104,0.051-0.156,0.051-0.156
			c0.03-0.107,0.044-0.161,0.044-0.161c0.026-0.11,0.037-0.165,0.037-0.165c0.021-0.112,0.031-0.169,0.031-0.169
			c0.017-0.115,0.024-0.174,0.024-0.174c0.013-0.118,0.018-0.177,0.018-0.177c-0.32-6.406-4.837-14.993-12.919-14.219
			c-2.583-0.099-6.042,0.483-8.592-1.011c-0.129-0.08-0.192-0.121-0.192-0.121c-0.125-0.084-0.187-0.128-0.187-0.128
			c-0.122-0.089-0.183-0.135-0.183-0.135c-6.688-8.091-9.936-19.396-12.632-29.889c-3.884-23.909,19.494-56.774,32.258-74.408
			c15.567-20.08,10.323-48.483,19.689-71.374c8.529,0.891,17.274,3.756,25.683,7.543l15.67,7.235
			c30.281,13.523,64.372,18.999,97.525,13.192c0.462,2.658,1.772,11.027,2.243,13.479c0,0,4.368,21.512,4.368,21.512
			c2.865,11.154,1.583,22.727,1.294,34.525c0.464,12.81,3.734,25.031,2.917,37.982c-2.857,17.343,3.892,28.803,6.089,45.236
			c-0.887,20.37,14.492,13.776,28.073,14.878c2.256-0.076,6.355,0.068,8.918-1.451c0.109-0.07,0.145-0.094,0.145-0.094
			c0.105-0.073,0.14-0.097,0.14-0.097c0.101-0.076,0.134-0.101,0.134-0.101c0.128-0.105,0.159-0.132,0.159-0.132
			c0.091-0.082,0.134-0.123,0.134-0.123c0.123-0.124,0.163-0.167,0.163-0.167c0.077-0.086,0.114-0.13,0.114-0.13
			c0.072-0.089,0.108-0.135,0.108-0.135c0.068-0.092,0.101-0.139,0.101-0.139c0.064-0.095,0.095-0.143,0.095-0.143
			c0.06-0.098,0.089-0.148,0.089-0.148c0.056-0.101,0.083-0.152,0.083-0.152c0.052-0.103,0.077-0.155,0.077-0.155
			c0.048-0.106,0.071-0.159,0.071-0.159c0.044-0.108,0.065-0.163,0.065-0.163c0.04-0.111,0.059-0.166,0.059-0.166
			c0.874-3.908-0.372-8.495-2.945-12.012c-3.834-4.613-10.432-2.435-15.854-4.289c-0.1-0.046-0.133-0.062-0.133-0.062
			c-0.127-0.065-0.169-0.088-0.169-0.088c-0.12-0.07-0.159-0.094-0.159-0.094c-0.113-0.074-0.15-0.1-0.15-0.1
			c-0.106-0.079-0.141-0.106-0.141-0.106c-0.1-0.083-0.132-0.112-0.132-0.112c-0.124-0.117-0.153-0.147-0.153-0.147
			c-0.114-0.124-0.141-0.156-0.141-0.156c-0.079-0.098-0.104-0.131-0.104-0.131c-0.073-0.102-0.097-0.136-0.097-0.136
			c-0.068-0.106-0.09-0.142-0.09-0.142c-0.063-0.11-0.084-0.147-0.084-0.147c-0.059-0.113-0.078-0.152-0.078-0.152
			c-0.055-0.117-0.072-0.157-0.072-0.157c-0.051-0.121-0.067-0.162-0.067-0.162c-0.74-2.731-1.672-9.743-2.344-12.695
			c-2.574-18.466,1.245-43.46,1.159-62.138c2.333-61,14.285-72.695,36.829-110.099c9.017-15.449,12.252-27.578,25.875-40.328
			c10.298-11.497,11.282-32.389,22.132-43.264c5.909-3.499,18.451,1.689,26.379,4.794c1.314,4.112,1.992,9.395,4.707,13.245
			c0.097,0.114,0.147,0.169,0.147,0.169c0.1,0.109,0.151,0.162,0.151,0.162c0.103,0.104,0.156,0.154,0.156,0.154
			c0.106,0.099,0.16,0.146,0.16,0.146c0.11,0.093,0.165,0.138,0.165,0.138c0.113,0.088,0.17,0.13,0.17,0.13
			c0.116,0.082,0.175,0.121,0.175,0.121c0.12,0.076,0.181,0.112,0.181,0.112c0.123,0.07,0.186,0.103,0.186,0.103
			c0.127,0.064,0.189,0.093,0.189,0.093c0.125,0.055,0.189,0.081,0.189,0.081c13.944,4.466,21.584-34.677-17.975-49.725
			c8.507-2.033,19.282,1.331,27.959,3.376c6.538,1.632,23.955,3.766,29.029-6.584l0.656-1.251c0.113-0.062,0.15-0.085,0.15-0.085
			c0.111-0.07,0.147-0.095,0.147-0.095c0.108-0.078,0.144-0.106,0.144-0.106c0.106-0.086,0.141-0.117,0.141-0.117
			c0.124-0.115,0.155-0.145,0.155-0.145c0.121-0.126,0.15-0.159,0.15-0.159c0.088-0.102,0.117-0.136,0.117-0.136
			c1.305-1.766,1.965-4.01,2.164-6.494c0-0.121-0.001-0.18-0.001-0.18c-0.004-0.118-0.008-0.176-0.008-0.176
			c-0.009-0.115-0.016-0.172-0.016-0.172c-0.015-0.113-0.019-0.141-0.019-0.141c-0.02-0.111-0.025-0.139-0.025-0.139
			c-0.025-0.11-0.031-0.137-0.031-0.137c-0.03-0.108-0.038-0.135-0.038-0.135c-0.035-0.107-0.045-0.133-0.045-0.133
			c-0.041-0.106-0.052-0.132-0.052-0.132c-0.047-0.105-0.059-0.131-0.059-0.131c-0.053-0.104-0.067-0.13-0.067-0.13
			c-0.059-0.103-0.075-0.129-0.075-0.129c-0.083-0.128-0.101-0.154-0.101-0.154c-0.093-0.128-0.133-0.179-0.133-0.179
			c-0.084-0.102-0.128-0.153-0.128-0.153c-0.093-0.102-0.141-0.154-0.141-0.154c-0.102-0.103-0.155-0.154-0.155-0.154
			c-1.505-1.318-3.455-2.321-5.678-2.604c-0.246-0.021-0.467-0.039-0.817-0.023c-0.105,0.007-0.156,0.011-0.156,0.011
			c-63.792-23.541-19.737-25.902-77.269-39.83c-0.634-2.115-1.255-4.909-1.704-7.709c-1.368-6.868-1.19-15.281-5.281-21.527
			c-0.087-0.105-0.116-0.138-0.116-0.138c-0.116-0.128-0.144-0.158-0.144-0.158c-0.115-0.114-0.143-0.141-0.143-0.141
			c-0.113-0.1-0.142-0.124-0.142-0.124c-0.112-0.086-0.14-0.106-0.14-0.106c-0.124-0.079-0.138-0.087-0.138-0.087
			c-0.122-0.062-0.135-0.068-0.135-0.068c-0.119-0.044-0.132-0.048-0.132-0.048c-0.116-0.026-0.129-0.027-0.129-0.027
			c-0.125-0.006-0.138-0.006-0.138-0.006c-0.121,0.017-0.133,0.02-0.133,0.02c-0.116,0.042-0.133,0.05-0.133,0.05
			c-0.117,0.072-0.133,0.084-0.133,0.084c-0.127,0.116-0.143,0.133-0.143,0.133c-0.091,0.11-0.106,0.13-0.106,0.13
			c-0.073,0.107-0.087,0.129-0.087,0.129c-0.071,0.12-0.085,0.145-0.085,0.145c-0.041,0.079-0.068,0.133-0.068,0.133
			c-0.053,0.114-0.08,0.174-0.08,0.174c-0.372,0.977-0.42,1.183-0.743,2.66l-1.094,5.776c-1.597,9.366-8.207,17.984-11.548,27.184
			c-13.012,6.369-19.641,20.454-27.919,32.15c-10.392,10.699-21.545,21.88-33.724,31.073c-11.908,7.028-63.166,19.567-69.593,20.223
			c-63.871,4.709-137.105-22.918-185.599,22.814c-37.007,35.099-13.787,69.26-8.284,107.31c-0.597,1.847-1.381,3.937-2.369,6.274
			c-4.78,10.338-7.386,21.688-19.638,26.415c-9.883,3.987-19.491,8.306-21.335,21.066c0.003,0.113,0.004,0.15,0.004,0.15
			c0.007,0.108,0.01,0.144,0.01,0.144c0.01,0.103,0.015,0.137,0.015,0.137c0.014,0.098,0.02,0.13,0.02,0.13
			c0.025,0.122,0.032,0.152,0.032,0.152c0.031,0.113,0.04,0.14,0.04,0.14c0.048,0.128,0.059,0.152,0.059,0.152
			c0.06,0.118,0.068,0.131,0.068,0.131c0.083,0.118,0.092,0.129,0.092,0.129c0.128,0.125,0.138,0.133,0.138,0.133
			c0.125,0.081,0.137,0.088,0.137,0.088c0.127,0.055,0.141,0.06,0.141,0.06c0.126,0.035,0.14,0.039,0.14,0.039
			c0.121,0.021,0.136,0.022,0.136,0.022c0.096,0.009,0.129,0.011,0.129,0.011c0.102,0.002,0.136,0.002,0.136,0.002
			c0.107-0.004,0.144-0.006,0.144-0.006c0.112-0.009,0.151-0.013,0.151-0.013c1.079-0.124,2.929-0.83,4.248-1.224
			c3.34-1.016,7.58-1.915,11.414-2.691C168.457,475.324,178.79,473.391,183.765,472.458z"/>
	</g>
</g>
</svg>
