<?xml version="1.0" encoding="utf-8"?>
<!-- Generator: Adobe Illustrator 24.0.1, SVG Export Plug-In . SVG Version: 6.00 Build 0)  -->
<!DOCTYPE svg PUBLIC "-//W3C//DTD SVG 1.1//EN" "http://www.w3.org/Graphics/SVG/1.1/DTD/svg11.dtd" [
	<!ENTITY ns_extend "http://ns.adobe.com/Extensibility/1.0/">
	<!ENTITY ns_ai "http://ns.adobe.com/AdobeIllustrator/10.0/">
	<!ENTITY ns_graphs "http://ns.adobe.com/Graphs/1.0/">
	<!ENTITY ns_vars "http://ns.adobe.com/Variables/1.0/">
	<!ENTITY ns_imrep "http://ns.adobe.com/ImageReplacement/1.0/">
	<!ENTITY ns_sfw "http://ns.adobe.com/SaveForWeb/1.0/">
	<!ENTITY ns_custom "http://ns.adobe.com/GenericCustomNamespace/1.0/">
	<!ENTITY ns_adobe_xpath "http://ns.adobe.com/XPath/1.0/">
]>
<svg version="1.1" xmlns:x="&ns_extend;" xmlns:i="&ns_ai;" xmlns:graph="&ns_graphs;"
	 xmlns="http://www.w3.org/2000/svg" xmlns:xlink="http://www.w3.org/1999/xlink" x="0px" y="0px" viewBox="0 0 750 750"
	 enable-background="new 0 0 750 750" xml:space="preserve">
<metadata>
	<sfw  xmlns="&ns_sfw;">
		<slices></slices>
		<sliceSourceBounds  bottomLeftOrigin="true" height="14825" width="8203.412" x="-3962.412" y="-6975"></sliceSourceBounds>
	</sfw>
</metadata>
<g id="FILL-BACKGROUND">
	<rect fill="#FFFFFF" width="750" height="750"/>
</g>
<g id="N-DIMENSIONS">
</g>
<g id="N-TEXT">
</g>
<g id="AG-DIAGRAM">
	<g id="POLYLINE_2832_">
		<g>
			<g>
				
					<line fill="none" stroke="#FB8604" stroke-width="3.25" stroke-linecap="round" stroke-linejoin="round" x1="133.824" y1="577.023" x2="135.824" y2="577.023"/>
				
					<line fill="none" stroke="#FB8604" stroke-width="3.25" stroke-linecap="round" stroke-linejoin="round" stroke-dasharray="4.0166,7.0291" x1="142.854" y1="577.023" x2="536.985" y2="577.023"/>
				
					<line fill="none" stroke="#FB8604" stroke-width="3.25" stroke-linecap="round" stroke-linejoin="round" x1="540.5" y1="577.023" x2="542.5" y2="577.023"/>
			</g>
		</g>
	</g>
</g>
<g id="AG-DETAIL">
	<g id="POLYLINE_153_">
		<path fill="none" stroke="#FB8604" stroke-width="2" stroke-linecap="round" stroke-linejoin="round" stroke-miterlimit="10" d="
			M552.446,302.703c-5.893-2.698-8.419-8.892-9.371-15.398c-1.282-11.99-6.37-23.937-12.131-34.751
			c-2.454-5.551-6.267-12.881-3.185-19.326c0.126-0.239,0.191-0.357,0.191-0.357c0.134-0.233,0.203-0.348,0.203-0.348
			c0.142-0.227,0.215-0.339,0.215-0.339c0.15-0.22,0.227-0.329,0.227-0.329c0.157-0.213,0.238-0.318,0.238-0.318
			c0.164-0.206,0.248-0.308,0.248-0.308c0.171-0.199,0.258-0.296,0.258-0.296c0.177-0.191,0.267-0.285,0.267-0.285
			c0.183-0.183,0.276-0.273,0.276-0.273c0.188-0.175,0.284-0.26,0.284-0.26c0.194-0.166,0.292-0.247,0.292-0.247
			c0.198-0.157,0.299-0.234,0.299-0.234c0.203-0.148,0.305-0.22,0.305-0.22c0.207-0.139,0.311-0.206,0.311-0.206
			c0.211-0.129,0.317-0.191,0.317-0.191c0.907-0.536,2.045-0.884,3.252-1.51c0.173-0.096,0.259-0.146,0.259-0.146
			c0.169-0.103,0.252-0.157,0.252-0.157c0.204-0.14,0.244-0.169,0.244-0.169c0.236-0.184,0.274-0.216,0.274-0.216
			c0.225-0.203,0.261-0.238,0.261-0.238c0.213-0.224,0.247-0.264,0.247-0.264c0.167-0.205,0.199-0.248,0.199-0.248
			c0.157-0.224,0.187-0.271,0.187-0.271c0.118-0.194,0.146-0.244,0.146-0.244c0.11-0.208,0.149-0.288,0.149-0.288
			c0.075-0.164,0.111-0.248,0.111-0.248c0.07-0.173,0.104-0.262,0.104-0.262c1.368-3.893,0.727-8.919,2.109-13.384
			c0.066-0.18,0.1-0.267,0.1-0.267c0.07-0.171,0.107-0.254,0.107-0.254c0.109-0.23,0.133-0.278,0.133-0.278
			c0.128-0.233,0.154-0.277,0.154-0.277c0.136-0.216,0.164-0.257,0.164-0.257c0.174-0.239,0.204-0.277,0.204-0.277
			c0.185-0.218,0.217-0.253,0.217-0.253c0.228-0.232,0.262-0.263,0.262-0.263c0.205-0.181,0.275-0.238,0.275-0.238
			c0.214-0.164,0.287-0.216,0.287-0.216c0.222-0.15,0.297-0.197,0.297-0.197c0.229-0.138,0.306-0.182,0.306-0.182
			c0.524-0.293,1.081-0.537,2.014-0.973c0.162-0.079,0.323-0.16,0.323-0.16"/>
	</g>
</g>
<g id="AG-GUIDES">
</g>
<g id="AG-PEOPLE">
</g>
<g id="AG-ANIMALS">
	<g id="POLYLINE_280_">
		
			<path fill="none" stroke="#FB8604" stroke-width="2.75" stroke-linecap="round" stroke-linejoin="round" stroke-miterlimit="10" d="
			M590.479,268.013c1.766,11.971-9.424,19.724-19.472,24.585c-12.362,4.828-23.313,12.864-31.96,23.269
			c-1.17,1.191-2.568,2.553-4.193,4.01c-21.701,15.259-27.552,42.606-25.937,68.718c0.312,4.832,2.725,9.161,1.215,14.281
			c-7.486,20.522-38.518,55.359-48.588,62.329"/>
	</g>
	<g id="POLYLINE_279_">
		
			<path fill="none" stroke="#FB8604" stroke-width="2.75" stroke-linecap="round" stroke-linejoin="round" stroke-miterlimit="10" d="
			M466.892,430.169c-3.519,11.943-4.64,23.378-5.508,35.98c-1.688,8.225-4.597,16.95-4.588,25.769l-0.119,8.085
			c-0.055,1.926-0.165,3.954-0.417,6.314c-1.732,12.866-3.009,23.606,2.519,36.304c2.445,6.352,6.149,12.394,13.859,13.784
			l6.574,1.699c1.44,0.421,3.012,0.85,4.819,1.732c0.312,0.162,0.485,0.242,0.987,0.546c0.204,0.129,0.303,0.195,0.303,0.195
			c0.194,0.134,0.289,0.202,0.289,0.202c0.185,0.139,0.275,0.209,0.275,0.209c0.235,0.196,0.295,0.249,0.295,0.249
			c0.23,0.215,0.286,0.269,0.286,0.269c0.213,0.223,0.264,0.279,0.264,0.279c0.197,0.23,0.244,0.289,0.244,0.289
			c0.181,0.238,0.224,0.298,0.224,0.298c0.125,0.183,0.165,0.244,0.165,0.244c0.116,0.186,0.153,0.249,0.153,0.249
			c0.107,0.19,0.141,0.254,0.141,0.254c0.099,0.193,0.13,0.258,0.13,0.258c0.09,0.196,0.119,0.262,0.119,0.262
			c0.082,0.199,0.108,0.266,0.108,0.266c0.074,0.201,0.098,0.269,0.098,0.269c0.894,2.931,0.555,6.349-0.88,9.41
			c-0.091,0.169-0.137,0.252-0.137,0.252c-0.095,0.162-0.143,0.242-0.143,0.242c-0.15,0.231-0.201,0.305-0.201,0.305
			c-0.158,0.216-0.212,0.285-0.212,0.285c-0.166,0.2-0.223,0.265-0.223,0.265c-0.174,0.184-0.233,0.243-0.233,0.243
			c-0.213,0.195-0.244,0.221-0.244,0.221c-0.217,0.171-0.255,0.198-0.255,0.198c-0.228,0.152-0.268,0.176-0.268,0.176
			c-0.2,0.114-0.241,0.135-0.241,0.135c-0.211,0.102-0.254,0.121-0.254,0.121c-0.223,0.091-0.268,0.108-0.268,0.108
			c-0.236,0.081-0.284,0.096-0.284,0.096c-0.199,0.058-0.301,0.085-0.301,0.085c-0.211,0.05-0.32,0.074-0.32,0.074
			c-0.993,0.192-1.73,0.245-3.229,0.309c-2.332,0.084-14.982,0.283-17.373,0.328c-9.12-0.293-18.223,0.674-27.345-2.304
			c-0.22-0.103-0.292-0.138-0.292-0.138c-0.208-0.106-0.275-0.142-0.275-0.142c-0.196-0.11-0.259-0.147-0.259-0.147
			c-0.184-0.113-0.243-0.152-0.243-0.152c-0.228-0.156-0.283-0.196-0.283-0.196c-0.21-0.162-0.26-0.203-0.26-0.203
			c-0.237-0.211-0.282-0.254-0.282-0.254c-0.212-0.22-0.252-0.265-0.252-0.265c-0.187-0.229-0.222-0.276-0.222-0.276
			c-0.164-0.238-0.194-0.286-0.194-0.286c-0.115-0.197-0.142-0.247-0.142-0.247c-0.1-0.203-0.124-0.255-0.124-0.255
			c-0.087-0.209-0.107-0.262-0.107-0.262c-0.074-0.215-0.091-0.27-0.091-0.27c-0.062-0.222-0.076-0.278-0.076-0.278
			c-0.05-0.228-0.061-0.286-0.061-0.286c-0.039-0.234-0.048-0.294-0.048-0.294c-0.092-0.874-0.1-1.337,0-2.561l0.343-3.391
			c1.086-8.518-6.077-15.596-7.439-24.215c-0.693-23.23,0.765-47.298-3.726-70.61c-1.392-8.804-6.845-17.302-9.419-26.2
			c-2.602-9.685-3.197-18.955-2.773-29.474"/>
	</g>
	<g id="POLYLINE_277_">
		
			<path fill="none" stroke="#FB8604" stroke-width="2.75" stroke-linecap="round" stroke-linejoin="round" stroke-miterlimit="10" d="
			M422.256,473.18l-14.978-3.85c-14.654-3.875-43.333-7.524-58.301-9.891c-30.343-4.367-61.28-16.486-92.342-16.205"/>
	</g>
	<g id="POLYLINE_276_">
		
			<path fill="none" stroke="#FB8604" stroke-width="2.75" stroke-linecap="round" stroke-linejoin="round" stroke-miterlimit="10" d="
			M221.796,346.594c-6.707,7.568-17.322,12.78-27.963,12.236c-0.237-0.041-0.313-0.057-0.313-0.057
			c-0.218-0.051-0.288-0.069-0.288-0.069c-0.231-0.071-0.262-0.082-0.262-0.082c-0.235-0.094-0.263-0.107-0.263-0.107
			c-0.227-0.124-0.243-0.134-0.243-0.134c-0.238-0.19-0.25-0.202-0.25-0.202c-0.177-0.228-0.185-0.242-0.185-0.242
			c-0.097-0.236-0.101-0.25-0.101-0.25c-0.029-0.234-0.029-0.249-0.029-0.249c0.028-0.227,0.031-0.242,0.031-0.242
			c0.08-0.229,0.087-0.245,0.087-0.245c0.133-0.228,0.143-0.243,0.143-0.243c0.196-0.235,0.214-0.254,0.214-0.254
			c0.197-0.183,0.24-0.219,0.24-0.219c0.234-0.179,0.285-0.215,0.285-0.215c0.213-0.141,0.269-0.177,0.269-0.177
			c9.521-3.638,11.111-6.839,18.75-16.744c3.346-3.157,8.423-4.122,13.165-3.109c0.13,0.016,0.145,0.024,0.532,0.062
			c0.196,0.014,0.261,0.018,0.261,0.018c0.194,0.006,0.259,0.006,0.259,0.006c0.193-0.003,0.258-0.006,0.258-0.006
			c0.193-0.014,0.257-0.021,0.257-0.021c0.194-0.026,0.258-0.037,0.258-0.037c0.204-0.042,0.241-0.05,0.241-0.05
			c0.187-0.049,0.262-0.072,0.262-0.072c0.227-0.074,0.303-0.101,0.303-0.101c0.23-0.088,0.307-0.12,0.307-0.12
			c1.037-0.419,2.668-1.434,4.193-1.864c4.005-1,8.189,0.215,12.654-0.641c9.522-2.407,19.481-5.225,29.989-4.162l18.314,0.978
			c7.514,0.421,19.316-0.08,23.632-0.451c57.664-5.371,35.787,2.593,61.926-1.386c4.953-1.917,9.13-6.061,14.667-7.648
			c5.135-1.584,12.009,1.089,16.838-2.904c4.872-5.453,11.191-8.433,18.436-11.277c0.211-0.139,0.314-0.211,0.314-0.211
			c0.2-0.145,0.298-0.219,0.298-0.219c0.19-0.151,0.283-0.227,0.283-0.227c0.181-0.156,0.27-0.236,0.27-0.236
			c0.174-0.162,0.259-0.244,0.259-0.244c1.004-0.941,2.195-2.789,3.195-4.181c1.139-1.736,6.381-7.511,7.965-9.33
			c3.413-3.953,6.397-7.906,8.137-13.536l1.421-4.406c1.93-6.338,6.615-12.79,11.463-18.176"/>
	</g>
	<g id="POLYLINE_275_">
		
			<path fill="none" stroke="#FB8604" stroke-width="2.75" stroke-linecap="round" stroke-linejoin="round" stroke-miterlimit="10" d="
			M274.143,390.564c-6.872,35.521-12.216,51.03-36.34,73.561c-19.608,22.147-23.536,29.211-45.166,43.695
			c-4.132,4.021-4.473,11.61-5.525,17.432c-0.114,1.224-3.267,24.118-3.132,24.591c0.002,0.173,0.005,0.257,0.005,0.257
			c0.009,0.164,0.016,0.244,0.016,0.244c0.027,0.231,0.033,0.269,0.033,0.269c0.042,0.217,0.05,0.252,0.05,0.252
			c0.069,0.237,0.08,0.269,0.08,0.269c0.092,0.219,0.107,0.249,0.107,0.249c0.135,0.231,0.154,0.258,0.154,0.258
			c0.193,0.236,0.217,0.261,0.217,0.261c0.239,0.213,0.258,0.228,0.258,0.228c0.206,0.143,0.25,0.171,0.25,0.171
			c0.232,0.132,0.281,0.157,0.281,0.157c0.204,0.098,0.257,0.122,0.257,0.122c0.164,0.07,0.277,0.115,0.277,0.115
			c0.638,0.227,0.797,0.29,1.858,0.552l2.914,0.666c7.829,1.183,15.804,9.969,10.873,18.4c-0.151,0.237-0.19,0.295-0.19,0.295
			c-0.16,0.227-0.2,0.282-0.2,0.282c-0.158,0.204-0.234,0.297-0.234,0.297c-0.156,0.181-0.235,0.269-0.235,0.269
			c-0.163,0.171-0.246,0.254-0.246,0.254c-0.17,0.162-0.257,0.24-0.257,0.24c-0.177,0.152-0.267,0.227-0.267,0.227
			c-0.183,0.144-0.276,0.213-0.276,0.213c-0.189,0.135-0.286,0.201-0.286,0.201c-0.195,0.127-0.294,0.189-0.294,0.189
			c-0.201,0.119-0.303,0.177-0.303,0.177c-0.206,0.112-0.311,0.166-0.311,0.166c-5.188,2.084-26.225,3.675-33.984-0.291
			c-0.234-0.165-0.291-0.207-0.291-0.207c-0.222-0.172-0.277-0.216-0.277-0.216c-0.212-0.179-0.263-0.224-0.263-0.224
			c-0.201-0.186-0.25-0.233-0.25-0.233c-0.191-0.192-0.237-0.241-0.237-0.241c-0.136-0.148-0.224-0.249-0.224-0.249
			c-0.17-0.205-0.252-0.309-0.252-0.309c-0.158-0.212-0.235-0.319-0.235-0.319c-0.147-0.218-0.217-0.329-0.217-0.329
			c-0.135-0.225-0.2-0.339-0.2-0.339c-0.124-0.231-0.184-0.347-0.184-0.347c-2.679-7.267,0.669-16.853,0.055-24.695
			c-0.095-5.867,0.348-35.864-0.175-40.968c-0.356-6.217-2.949-13.043-1.171-19.729c0.904-2.538,2.423-4.27,4.793-6.287
			c24.133-16.792,17.133-25.703,24.112-50.819c1.559-6.209,1.944-13.133,0.631-19.978c-1.68-18.361,3.532-38.719,16.996-52.737"/>
	</g>
	<g id="POLYLINE_274_">
		
			<path fill="none" stroke="#FB8604" stroke-width="2.75" stroke-linecap="round" stroke-linejoin="round" stroke-miterlimit="10" d="
			M482.352,272.509c-7.191-2.779-14.804-7.481-18.982-14.754c-6.558-12.824-5.546-31.659-5.799-45.973
			c0.142-10.314-2.13-21.062-7.948-30.351c-0.66-1.176-3.336-5.551-3.959-6.868c-0.107-0.231-0.14-0.306-0.14-0.306
			c-0.091-0.219-0.119-0.29-0.119-0.29c-0.075-0.207-0.097-0.274-0.097-0.274c-0.065-0.226-0.072-0.257-0.072-0.257
			c-0.046-0.239-0.05-0.268-0.05-0.268c-0.015-0.232-0.015-0.245-0.015-0.245c0.025-0.232,0.028-0.243,0.028-0.243
			c0.089-0.232,0.094-0.242,0.094-0.242c0.207-0.232,0.22-0.242,0.22-0.242c0.232-0.133,0.248-0.14,0.248-0.14
			c0.232-0.079,0.252-0.084,0.252-0.084c0.204-0.043,0.248-0.05,0.248-0.05c0.227-0.026,0.275-0.029,0.275-0.029
			c0.198-0.008,0.249-0.009,0.249-0.009c0.211,0.003,0.265,0.005,0.265,0.005c0.224,0.015,0.281,0.02,0.281,0.02
			c11.278,2.136,16.152,16.056,25.077,23.051c5.093,4.858,12.806,7.905,18.036,13.149c5.761,10.591,8.258,23.469,6.685,36.155"/>
	</g>
	<g id="POLYLINE_273_">
		
			<path fill="none" stroke="#FB8604" stroke-width="2.75" stroke-linecap="round" stroke-linejoin="round" stroke-miterlimit="10" d="
			M580.917,243.064c5.166,4.959,14.458,15.941,9.562,24.949"/>
	</g>
	<g id="POLYLINE_263_">
		
			<path fill="none" stroke="#FB8604" stroke-width="2.75" stroke-linecap="round" stroke-linejoin="round" stroke-miterlimit="10" d="
			M580.917,243.064c-0.229,0.133-0.251,0.142-0.251,0.142c-0.219,0.066-0.245,0.071-0.245,0.071c-0.217,0.028-0.246,0.03-0.246,0.03
			c-0.237,0-0.268-0.002-0.268-0.002c-0.223-0.022-0.256-0.027-0.256-0.027c-0.202-0.035-0.271-0.049-0.271-0.049
			c-0.213-0.051-0.285-0.071-0.285-0.071c-0.222-0.067-0.298-0.091-0.298-0.091c-0.231-0.081-0.31-0.111-0.31-0.111
			c-3.081-1.364-6.119-3.55-8.593-6.646c-0.16-0.235-0.21-0.313-0.21-0.313c-0.138-0.229-0.18-0.304-0.18-0.304
			c-0.116-0.222-0.133-0.258-0.133-0.258c-0.095-0.215-0.11-0.251-0.11-0.251c-0.075-0.209-0.086-0.243-0.086-0.243
			c-0.061-0.236-0.068-0.269-0.068-0.269c-0.033-0.227-0.036-0.259-0.036-0.259c-0.004-0.218-0.003-0.249-0.003-0.249
			c0.031-0.238,0.034-0.253,0.034-0.253c0.068-0.227,0.073-0.241,0.073-0.241c0.112-0.229,0.12-0.242,0.12-0.242
			c0.171-0.234,0.183-0.248,0.183-0.248c0.23-0.226,0.26-0.252,0.26-0.252c0.228-0.173,0.263-0.196,0.263-0.196
			c0.221-0.138,0.259-0.16,0.259-0.16c0.2-0.107,0.242-0.128,0.242-0.128c0.214-0.1,0.302-0.139,0.302-0.139
			c0.182-0.074,0.275-0.11,0.275-0.11c0.19-0.069,0.287-0.101,0.287-0.101c1.28-0.399,2.726-0.634,4.266-0.501
			c0.232,0.028,0.308,0.039,0.308,0.039c0.221,0.039,0.293,0.054,0.293,0.054c0.211,0.051,0.28,0.07,0.28,0.07
			c0.235,0.075,0.268,0.087,0.268,0.087c0.225,0.091,0.256,0.105,0.256,0.105c0.216,0.108,0.246,0.124,0.246,0.124
			c0.237,0.144,0.267,0.164,0.267,0.164c0.229,0.169,0.257,0.191,0.257,0.191c0.222,0.194,0.276,0.246,0.276,0.246
			c0.215,0.224,0.268,0.284,0.268,0.284c0.158,0.189,0.211,0.256,0.211,0.256c0.156,0.209,0.208,0.282,0.208,0.282
			c1.238,1.919,2.226,4.277,2.651,6.985c0.025,0.221,0.032,0.294,0.032,0.294c0.017,0.214,0.021,0.283,0.021,0.283
			c0.008,0.205,0.008,0.272,0.008,0.272c-0.002,0.196-0.004,0.259-0.004,0.259c-0.012,0.185-0.018,0.245-0.018,0.245
			c-0.031,0.23-0.036,0.258-0.036,0.258c-0.055,0.237-0.062,0.262-0.062,0.262c-0.086,0.234-0.096,0.256-0.096,0.256
			C581.128,242.847,581.115,242.865,580.917,243.064z"/>
	</g>
	<g id="POLYLINE_262_">
		
			<path fill="none" stroke="#FB8604" stroke-width="2.75" stroke-linecap="round" stroke-linejoin="round" stroke-miterlimit="10" d="
			M491.519,209.725c3.257-1.317,8.546-3.108,11.892-4.223c15.486-4.664,38.012-9.011,47.018,10.08
			c1.16,2.003,2.221,4.303,3.811,6.498c0.19,0.239,0.253,0.315,0.253,0.315c0.19,0.219,0.253,0.289,0.253,0.289
			c0.189,0.2,0.251,0.264,0.251,0.264c0.547,0.535,0.75,0.695,1.75,1.486c0.229,0.189,0.343,0.285,0.343,0.285
			c0.224,0.2,0.279,0.251,0.279,0.251c0.219,0.215,0.273,0.271,0.273,0.271c0.214,0.235,0.267,0.297,0.267,0.297
			c0.157,0.193,0.216,0.27,0.216,0.27c0.778,1.022,1.401,2.445,2.395,3.844c0.13,0.174,0.196,0.258,0.196,0.258
			c0.134,0.165,0.202,0.244,0.202,0.244c0.208,0.228,0.244,0.265,0.244,0.265c0.217,0.207,0.254,0.24,0.254,0.24
			c0.226,0.183,0.265,0.211,0.265,0.211c0.236,0.156,0.277,0.18,0.277,0.18c0.239,0.123,0.277,0.139,0.277,0.139
			c0.233,0.089,0.272,0.102,0.272,0.102c0.2,0.057,0.241,0.067,0.241,0.067c0.205,0.042,0.247,0.049,0.247,0.049
			c0.21,0.029,0.252,0.034,0.252,0.034c0.171,0.015,0.257,0.021,0.257,0.021c0.174,0.007,0.261,0.009,0.261,0.009
			c0.633,0.005,1.158-0.056,2.155-0.13c0.178-0.01,0.355-0.017,0.355-0.017c0.176-0.004,0.263-0.005,0.263-0.005
			c0.173,0.002,0.259,0.004,0.259,0.004c0.17,0.009,0.254,0.015,0.254,0.015c0.208,0.022,0.249,0.028,0.249,0.028
			c0.203,0.034,0.243,0.043,0.243,0.043c0.201,0.049,0.24,0.06,0.24,0.06c0.235,0.078,0.274,0.092,0.274,0.092
			c0.227,0.096,0.264,0.114,0.264,0.114c0.219,0.114,0.255,0.134,0.255,0.134c0.212,0.129,0.246,0.152,0.246,0.152
			c0.204,0.144,0.271,0.194,0.271,0.194c0.196,0.159,0.26,0.214,0.26,0.214c0.188,0.171,0.25,0.231,0.25,0.231
			c0.181,0.183,0.24,0.245,0.24,0.245"/>
	</g>
</g>
<g id="AG-OUTLINE">
	<g id="POLYLINE_2_">
		
			<path fill="none" stroke="#FB8604" stroke-width="3.5" stroke-linecap="round" stroke-linejoin="round" stroke-miterlimit="10" d="
			M207.138,356.605c-13.035,13.712-18.711,33.284-16.996,52.737c1.267,6.409,1.02,13.116-0.631,19.978
			c-8.403,29.927,1.875,30.823-25.257,51.843c-1.683,1.578-3.359,3.632-3.893,6.125c-1.238,5.718,1.012,12.928,1.448,19.27
			c0.424,3.611,0.122,29.544,0.198,35.647c0.909,7.508-2.561,20.063-0.279,29.258c0.11,0.238,0.168,0.356,0.168,0.356
			c0.121,0.233,0.184,0.347,0.184,0.347c0.132,0.227,0.2,0.339,0.2,0.339c0.143,0.221,0.217,0.329,0.217,0.329
			c0.154,0.214,0.235,0.319,0.235,0.319c0.166,0.207,0.252,0.309,0.252,0.309c0.178,0.2,0.224,0.249,0.224,0.249
			c0.188,0.194,0.237,0.241,0.237,0.241c0.199,0.187,0.25,0.233,0.25,0.233c0.209,0.18,0.263,0.224,0.263,0.224
			c0.22,0.173,0.277,0.216,0.277,0.216c3.265,3.324,27.471,3.33,34.169,0.55c0.21-0.107,0.313-0.162,0.313-0.162
			c0.205-0.114,0.306-0.173,0.306-0.173c0.199-0.122,0.297-0.185,0.297-0.185c0.193-0.13,0.289-0.197,0.289-0.197
			c0.187-0.138,0.279-0.209,0.279-0.209c0.181-0.147,0.27-0.222,0.27-0.222c0.175-0.156,0.26-0.236,0.26-0.236
			c0.168-0.165,0.25-0.249,0.25-0.249c0.161-0.174,0.239-0.264,0.239-0.264c0.153-0.184,0.228-0.279,0.228-0.279
			c0.165-0.221,0.205-0.277,0.205-0.277c4.918-7.785-1.216-17.146-10.605-18.81l-2.914-0.666c-0.175-0.044-1.055-0.255-1.623-0.465
			c-0.235-0.087-0.348-0.133-0.348-0.133c-0.217-0.094-0.269-0.118-0.269-0.118c-0.201-0.1-0.249-0.125-0.249-0.125
			c-0.228-0.134-0.271-0.162-0.271-0.162c-0.239-0.175-0.266-0.199-0.266-0.199c-0.225-0.22-0.248-0.246-0.248-0.246
			c-0.162-0.215-0.18-0.243-0.18-0.243c-0.128-0.235-0.142-0.266-0.142-0.266c-0.086-0.224-0.097-0.257-0.097-0.257
			c-0.056-0.206-0.063-0.241-0.063-0.241c-0.04-0.219-0.045-0.257-0.045-0.257c-0.022-0.194-0.028-0.274-0.028-0.274
			c-0.009-0.164-0.012-0.248-0.012-0.248c-0.291,0.513,3.145-24.558,3.13-24.763c1.096-5.57,1.034-12.049,5.077-16.956
			c15.742-11.089,23.892-18.096,38.679-36.324c7.087-9.111,17.846-17.472,25.767-28.738c30.952-0.319,62.121,11.868,92.342,16.205
			c15.054,2.363,44.026,6.101,58.301,9.891l14.978,3.85c8.391,61.857-4.193,55.194,8.752,81.744
			c1.285,2.817,2.295,6.345,1.827,9.898l-0.343,3.391c-0.036,0.46-0.127,1.572-0.022,2.381c0.031,0.239,0.04,0.298,0.04,0.298
			c0.041,0.233,0.053,0.29,0.053,0.29c0.052,0.227,0.067,0.283,0.067,0.283c0.064,0.22,0.082,0.275,0.082,0.275
			c0.077,0.214,0.097,0.267,0.097,0.267c0.09,0.208,0.114,0.259,0.114,0.259c0.103,0.202,0.131,0.252,0.131,0.252
			c0.118,0.196,0.149,0.244,0.149,0.244c0.168,0.236,0.203,0.283,0.203,0.283c0.191,0.227,0.232,0.272,0.232,0.272
			c0.216,0.218,0.262,0.261,0.262,0.261c0.192,0.168,0.242,0.209,0.242,0.209c0.21,0.162,0.264,0.202,0.264,0.202
			c0.228,0.156,0.287,0.195,0.287,0.195c0.184,0.113,0.247,0.15,0.247,0.15c0.196,0.11,0.263,0.146,0.263,0.146
			c0.208,0.106,0.279,0.141,0.279,0.141c7.849,2.948,19.002,2.188,27.565,2.407c2.422-0.044,15.436-0.255,17.373-0.328
			c0.661-0.032,1.872-0.063,3.004-0.266c0.224-0.044,0.333-0.068,0.333-0.068c0.211-0.05,0.313-0.077,0.313-0.077
			c0.199-0.058,0.247-0.073,0.247-0.073c0.236-0.081,0.281-0.098,0.281-0.098c0.223-0.091,0.266-0.11,0.266-0.11
			c0.211-0.102,0.252-0.123,0.252-0.123c0.2-0.114,0.239-0.138,0.239-0.138c0.228-0.152,0.266-0.179,0.266-0.179
			c0.217-0.171,0.249-0.197,0.249-0.197c0.213-0.195,0.272-0.253,0.272-0.253c0.174-0.184,0.231-0.249,0.231-0.249
			c0.166-0.2,0.22-0.27,0.22-0.27c0.158-0.216,0.209-0.29,0.209-0.29c0.15-0.231,0.198-0.31,0.198-0.31
			c0.095-0.162,0.141-0.245,0.141-0.245c1.303-2.624,1.902-5.971,1.099-9.17c-0.061-0.205-0.083-0.273-0.083-0.273
			c-0.069-0.203-0.093-0.271-0.093-0.271c-0.076-0.201-0.103-0.267-0.103-0.267c-0.084-0.198-0.114-0.264-0.114-0.264
			c-0.092-0.195-0.124-0.26-0.124-0.26c-0.101-0.192-0.136-0.256-0.136-0.256c-0.109-0.189-0.147-0.252-0.147-0.252
			c-0.118-0.186-0.159-0.247-0.159-0.247c-0.127-0.182-0.171-0.242-0.171-0.242c-0.184-0.236-0.232-0.294-0.232-0.294
			c-0.2-0.229-0.252-0.285-0.252-0.285c-0.217-0.221-0.273-0.275-0.273-0.275c-0.234-0.213-0.294-0.265-0.294-0.265
			c-0.175-0.144-0.264-0.214-0.264-0.214c-0.185-0.139-0.279-0.207-0.279-0.207c-0.194-0.134-0.294-0.2-0.294-0.2
			c-1.714-1.087-3.614-1.726-6.01-2.406l-6.574-1.699c-18.001-3.442-19.644-34.936-16.378-50.088
			c0.193-1.826,0.36-4.029,0.417-6.314l0.119-8.085c-0.07-8.753,3.076-17.88,4.749-26.713
			c14.893-11.635,26.665-27.718,37.836-42.932c7.113-11.075,13.988-17.883,9.745-31.981c-2.216-25.392,3.099-54.374,25.728-70.415
			c0.496-0.449,1.273-1.156,2.125-1.964c11.428-12.587,18.938-19.127,34.028-25.315c9.322-4.781,21.097-11.6,19.472-24.585
			c4.277-8.805-2.61-18.095-9.562-24.949c0.224-0.235,0.236-0.253,0.236-0.253c0.123-0.223,0.133-0.245,0.133-0.245
			c0.083-0.237,0.09-0.263,0.09-0.263c0.048-0.212,0.053-0.24,0.053-0.24c0.031-0.23,0.037-0.29,0.037-0.29
			c0.012-0.185,0.014-0.249,0.014-0.249c0.002-0.196,0.001-0.262,0.001-0.262c-0.008-0.205-0.012-0.275-0.012-0.275
			c-0.247-2.392-1.08-4.822-2.545-7.263c-0.155-0.23-0.207-0.303-0.207-0.303c-0.156-0.209-0.209-0.275-0.209-0.275
			c-0.158-0.189-0.211-0.249-0.211-0.249c-0.215-0.224-0.27-0.276-0.27-0.276c-0.222-0.194-0.25-0.217-0.25-0.217
			c-0.229-0.169-0.258-0.188-0.258-0.188c-0.237-0.144-0.268-0.161-0.268-0.161c-0.216-0.108-0.248-0.122-0.248-0.122
			c-0.225-0.091-0.258-0.103-0.258-0.103c-0.235-0.075-0.303-0.094-0.303-0.094c-0.211-0.051-0.283-0.066-0.283-0.066
			c-0.221-0.039-0.297-0.05-0.297-0.05c-1.514-0.168-3.22-0.007-4.9,0.619c-0.237,0.099-0.314,0.134-0.314,0.134
			c-0.222,0.108-0.293,0.145-0.293,0.145c-0.237,0.137-0.27,0.157-0.27,0.157c-0.214,0.147-0.243,0.168-0.243,0.168
			c-0.179-0.185-0.24-0.245-0.24-0.245c-0.187-0.174-0.25-0.231-0.25-0.231c-0.194-0.162-0.26-0.214-0.26-0.214
			c-0.237-0.171-0.271-0.194-0.271-0.194c-0.211-0.132-0.246-0.152-0.246-0.152c-0.218-0.116-0.255-0.134-0.255-0.134
			c-0.226-0.099-0.264-0.114-0.264-0.114c-0.234-0.08-0.274-0.092-0.274-0.092c-0.201-0.051-0.24-0.06-0.24-0.06
			c-0.202-0.037-0.243-0.043-0.243-0.043c-0.207-0.024-0.249-0.028-0.249-0.028c-0.169-0.012-0.254-0.015-0.254-0.015
			c-0.334-0.003-0.32-0.012-0.877,0.017c-0.442,0.026-1.397,0.136-2.155,0.13c-0.175-0.005-0.261-0.009-0.261-0.009
			c-0.215-0.016-0.257-0.021-0.257-0.021c-0.211-0.027-0.252-0.034-0.252-0.034c-0.206-0.04-0.247-0.049-0.247-0.049
			c-0.201-0.054-0.241-0.067-0.241-0.067c-0.234-0.086-0.272-0.102-0.272-0.102c-0.237-0.117-0.277-0.139-0.277-0.139
			c-0.238-0.152-0.277-0.18-0.277-0.18c-0.228-0.179-0.265-0.211-0.265-0.211c-0.218-0.204-0.254-0.24-0.254-0.24
			c-0.175-0.187-0.244-0.265-0.244-0.265c-0.135-0.161-0.202-0.244-0.202-0.244c-0.876-1.092-1.492-2.543-2.532-4.023
			c-0.17-0.221-0.222-0.286-0.222-0.286c-0.159-0.185-0.212-0.245-0.212-0.245c-0.216-0.226-0.271-0.28-0.271-0.28
			c-0.166-0.157-0.277-0.258-0.277-0.258c-0.455-0.414-1.128-0.875-1.894-1.57c-0.186-0.177-0.249-0.238-0.249-0.238
			c-0.188-0.192-0.251-0.258-0.251-0.258c-0.189-0.209-0.252-0.282-0.252-0.282c-1.041-1.07-3.408-5.639-4.291-7.175
			c-7.965-17.806-30.714-14.999-46.856-9.793c-3.81,1.28-7.957,2.659-11.892,4.223c-0.255-0.446-0.541-0.948-1.052-1.586
			c-0.196-0.237-0.297-0.353-0.297-0.353c-0.208-0.229-0.315-0.342-0.315-0.342c-0.221-0.224-0.336-0.335-0.336-0.335
			c-5.672-4.698-12.966-7.946-18.56-13.456c-7.739-6.52-12.285-19.176-23.332-21.708c-0.238-0.028-0.296-0.034-0.296-0.034
			c-0.226-0.017-0.281-0.02-0.281-0.02c-0.214-0.006-0.265-0.005-0.265-0.005c-0.2,0.006-0.249,0.009-0.249,0.009
			c-0.231,0.023-0.275,0.029-0.275,0.029c-0.228,0.045-0.248,0.05-0.248,0.05c-0.235,0.077-0.252,0.084-0.252,0.084
			c-0.235,0.131-0.248,0.14-0.248,0.14c-0.214,0.232-0.22,0.242-0.22,0.242c-0.092,0.23-0.094,0.242-0.094,0.242
			c-0.028,0.23-0.028,0.243-0.028,0.243c0.011,0.216,0.015,0.245,0.015,0.245c0.043,0.237,0.05,0.268,0.05,0.268
			c0.052,0.191,0.072,0.257,0.072,0.257c0.07,0.204,0.097,0.274,0.097,0.274c0.318,1.023,3.631,6.402,4.218,7.464
			c5.554,8.882,8.078,19.319,7.948,30.351c0.328,14.68-0.805,29.473,4.706,43.767c-4.669,5.388-9.007,10.651-11.463,18.176
			l-1.421,4.406c-1.347,4.642-4.515,9.512-8.137,13.536c-2.185,2.549-5.867,6.419-7.965,9.33c-0.83,1.142-1.477,2.189-2.473,3.397
			c-0.221,0.253-0.328,0.389-0.723,0.784c-0.171,0.164-0.259,0.244-0.259,0.244c-0.179,0.158-0.27,0.236-0.27,0.236
			c-0.187,0.153-0.283,0.227-0.283,0.227c-0.197,0.147-0.298,0.219-0.298,0.219c-7.941,3.568-11.083,4.066-20.172,12.441
			c-7.644,3.532-12.955-2.29-26.793,7.995c-1.659,0.928-3.768,1.989-6.112,2.445c-6.738,1.27-15.338-1.064-22.312-1.235
			c-19.807-0.658-40.813,3.335-60.424,2.232l-18.314-0.978c-15.127-1.573-25.603,5.126-42.338,4.721
			c-0.204,0.054-0.305,0.082-0.305,0.082c-1.42,0.424-2.218,0.945-3.96,1.764c-0.233,0.1-0.311,0.132-0.311,0.132
			c-0.23,0.088-0.306,0.115-0.306,0.115c-0.227,0.074-0.302,0.096-0.302,0.096c-0.224,0.058-0.261,0.067-0.261,0.067
			c-0.232,0.044-0.296,0.054-0.296,0.054c-0.193,0.023-0.258,0.029-0.258,0.029c-0.193,0.011-0.257,0.013-0.257,0.013
			c-0.193,0.001-0.258,0-0.258,0c-0.766-0.026-1.35-0.162-2.51-0.335c-3.713-0.484-7.774,0.285-10.877,2.749
			c-6.112,5.75-6.736,12.764-19.276,17.249c-0.23,0.141-0.285,0.176-0.285,0.176c-0.208,0.142-0.258,0.177-0.258,0.177
			c-0.228,0.18-0.27,0.216-0.27,0.216c-0.225,0.221-0.242,0.239-0.242,0.239c-0.179,0.237-0.188,0.252-0.188,0.252
			c-0.116,0.229-0.122,0.244-0.122,0.244c-0.064,0.229-0.066,0.244-0.066,0.244c-0.011,0.225-0.01,0.24-0.01,0.24
			c0.047,0.231,0.051,0.245,0.051,0.245c0.116,0.231,0.125,0.244,0.125,0.244c0.211,0.233,0.224,0.244,0.224,0.244
			c0.225,0.159,0.249,0.173,0.249,0.173c0.239,0.118,0.268,0.13,0.268,0.13c0.213,0.079,0.245,0.09,0.245,0.09
			c0.237,0.068,0.308,0.086,0.308,0.086c0.223,0.048,0.301,0.063,0.301,0.063C197.918,359.298,202.57,358.124,207.138,356.605z"/>
	</g>
</g>
</svg>
