<?xml version="1.0" encoding="utf-8"?>
<!-- Generator: Adobe Illustrator 24.0.1, SVG Export Plug-In . SVG Version: 6.00 Build 0)  -->
<!DOCTYPE svg PUBLIC "-//W3C//DTD SVG 1.1//EN" "http://www.w3.org/Graphics/SVG/1.1/DTD/svg11.dtd" [
	<!ENTITY ns_extend "http://ns.adobe.com/Extensibility/1.0/">
	<!ENTITY ns_ai "http://ns.adobe.com/AdobeIllustrator/10.0/">
	<!ENTITY ns_graphs "http://ns.adobe.com/Graphs/1.0/">
	<!ENTITY ns_vars "http://ns.adobe.com/Variables/1.0/">
	<!ENTITY ns_imrep "http://ns.adobe.com/ImageReplacement/1.0/">
	<!ENTITY ns_sfw "http://ns.adobe.com/SaveForWeb/1.0/">
	<!ENTITY ns_custom "http://ns.adobe.com/GenericCustomNamespace/1.0/">
	<!ENTITY ns_adobe_xpath "http://ns.adobe.com/XPath/1.0/">
]>
<svg version="1.1" xmlns:x="&ns_extend;" xmlns:i="&ns_ai;" xmlns:graph="&ns_graphs;"
	 xmlns="http://www.w3.org/2000/svg" xmlns:xlink="http://www.w3.org/1999/xlink" x="0px" y="0px" viewBox="0 0 750 750"
	 enable-background="new 0 0 750 750" xml:space="preserve">
<metadata>
	<sfw  xmlns="&ns_sfw;">
		<slices></slices>
		<sliceSourceBounds  bottomLeftOrigin="true" height="14825" width="8203.412" x="-3962.412" y="-6975"></sliceSourceBounds>
	</sfw>
</metadata>
<g id="FILL-BACKGROUND">
	<rect fill="#FFFFFF" width="750" height="750"/>
</g>
<g id="N-DIMENSIONS">
</g>
<g id="N-TEXT">
</g>
<g id="AG-DIAGRAM">
	<g id="POLYLINE_2830_">
		<g>
			<g>
				
					<line fill="none" stroke="#FB8604" stroke-width="3.25" stroke-linecap="round" stroke-linejoin="round" x1="147.5" y1="576.097" x2="149.5" y2="576.097"/>
				
					<line fill="none" stroke="#FB8604" stroke-width="3.25" stroke-linecap="round" stroke-linejoin="round" stroke-dasharray="4.0096,7.0167" x1="156.517" y1="576.097" x2="560.98" y2="576.097"/>
				
					<line fill="none" stroke="#FB8604" stroke-width="3.25" stroke-linecap="round" stroke-linejoin="round" x1="564.489" y1="576.097" x2="566.489" y2="576.097"/>
			</g>
		</g>
	</g>
</g>
<g id="AG-DETAIL">
</g>
<g id="AG-GUIDES">
</g>
<g id="AG-PEOPLE">
</g>
<g id="AG-ANIMALS">
	<g id="POLYLINE_73_">
		
			<path fill="none" stroke="#FB8604" stroke-width="2.75" stroke-linecap="round" stroke-linejoin="round" stroke-miterlimit="10" d="
			M308.327,403.122c8.777,20.894,10.148,49.616-9.236,66.044c-8.484,7.448-21.659,10.157-32.512,14.106
			c-19.577,7.087-36.983,20.37-56.019,28.958c-0.275,0.183-0.41,0.277-0.41,0.277c-0.264,0.192-0.394,0.29-0.394,0.29
			c-0.376,0.304-0.497,0.409-0.497,0.409c-0.351,0.326-0.408,0.382-0.408,0.382c-0.328,0.347-0.381,0.406-0.381,0.406
			c-0.304,0.37-0.352,0.433-0.352,0.433c-0.233,0.327-0.287,0.407-0.287,0.407c-0.204,0.33-0.253,0.415-0.253,0.415
			c-0.187,0.347-0.232,0.436-0.232,0.436c-0.171,0.364-0.211,0.457-0.211,0.457c-0.118,0.284-0.155,0.38-0.155,0.38
			c-1.342,3.193-1.336,9.812-1.594,13.726c-0.256,5.716-1.56,11.92-0.353,18.159c0.088,0.357,0.119,0.474,0.119,0.474
			c0.099,0.346,0.134,0.46,0.134,0.46c0.102,0.311,0.156,0.464,0.156,0.464c0.113,0.301,0.173,0.449,0.173,0.449
			c0.124,0.291,0.188,0.434,0.188,0.434c0.134,0.281,0.203,0.419,0.203,0.419c0.143,0.271,0.217,0.405,0.217,0.405
			c0.152,0.262,0.229,0.391,0.229,0.391c0.16,0.254,0.242,0.379,0.242,0.379c0.253,0.366,0.339,0.486,0.339,0.486
			c0.267,0.351,0.357,0.465,0.357,0.465c0.279,0.336,0.374,0.446,0.374,0.446c1.622,1.757,3.718,3.581,6.391,5.139
			c0.312,0.164,0.418,0.217,0.418,0.217c0.319,0.152,0.426,0.201,0.426,0.201c0.325,0.139,0.435,0.183,0.435,0.183
			c0.333,0.125,0.445,0.165,0.445,0.165c0.341,0.111,0.456,0.145,0.456,0.145c0.35,0.096,0.469,0.125,0.469,0.125
			c0.36,0.079,0.482,0.103,0.482,0.103c0.371,0.062,0.496,0.08,0.496,0.08c0.288,0.035,0.433,0.049,0.433,0.049
			c1.755,0.163,3.534-0.04,5.778,0.059c0.292,0.021,0.339,0.016,0.925,0.078c0.302,0.04,0.452,0.063,0.452,0.063
			c0.297,0.053,0.444,0.083,0.444,0.083c0.362,0.085,0.434,0.104,0.434,0.104c0.353,0.105,0.423,0.128,0.423,0.128
			c0.343,0.126,0.411,0.154,0.411,0.154c0.332,0.149,0.397,0.182,0.397,0.182c0.371,0.204,0.431,0.241,0.431,0.241
			c0.355,0.235,0.413,0.277,0.413,0.277c0.339,0.264,0.394,0.31,0.394,0.31c0.375,0.34,0.427,0.391,0.427,0.391
			c0.353,0.371,0.451,0.481,0.451,0.481c0.283,0.343,0.374,0.46,0.374,0.46c0.264,0.362,0.349,0.486,0.349,0.486
			c0.165,0.251,0.246,0.379,0.246,0.379c0.156,0.258,0.231,0.389,0.231,0.389c0.647,1.168,1.195,2.477,1.524,4.06
			c0.061,0.32,0.093,0.509,0.093,0.509c0.053,0.37,0.063,0.461,0.063,0.461c0.034,0.357,0.04,0.444,0.04,0.444
			c0.015,0.344,0.016,0.428,0.016,0.428c-0.005,0.331-0.008,0.412-0.008,0.412c-0.024,0.318-0.032,0.396-0.032,0.396
			c-0.044,0.305-0.057,0.38-0.057,0.38c-0.082,0.364-0.101,0.434-0.101,0.434c-0.112,0.344-0.138,0.411-0.138,0.411
			c-0.143,0.325-0.174,0.388-0.174,0.388c-0.212,0.365-0.231,0.394-0.231,0.394c-0.277,0.369-0.301,0.397-0.301,0.397
			c-0.339,0.351-0.395,0.403-0.395,0.403c-0.361,0.294-0.425,0.341-0.425,0.341c-0.336,0.224-0.406,0.266-0.406,0.266
			c-0.367,0.204-0.443,0.243-0.443,0.243c-0.315,0.149-0.397,0.185-0.397,0.185c-0.335,0.137-0.421,0.169-0.421,0.169
			c-0.354,0.124-0.444,0.154-0.444,0.154c-6.772,1.66-17.046,0.353-24.114,0.931c-3.025,0.008-7.956,0.021-11.5-1.584
			c-0.374-0.174-0.497-0.235-0.497-0.235c-0.361-0.19-0.48-0.256-0.48-0.256c-0.348-0.206-0.462-0.278-0.462-0.278
			c-0.293-0.194-0.382-0.257-0.382-0.257c-0.348-0.258-0.433-0.324-0.433-0.324c-0.333-0.275-0.414-0.346-0.414-0.346
			c-0.318-0.291-0.395-0.366-0.395-0.366c-0.303-0.306-0.377-0.384-0.377-0.384c-0.289-0.32-0.359-0.402-0.359-0.402
			c-0.275-0.333-0.408-0.503-0.408-0.503c-0.258-0.347-0.383-0.524-0.383-0.524c-0.242-0.359-0.359-0.542-0.359-0.542
			c-2.03-3.405-3.004-7.101-3.076-11.625c1.056-19.079-8.946-38.451-7.847-57.504c0.066-0.254,0.101-0.379,0.101-0.379
			c0.113-0.369,0.153-0.489,0.153-0.489c0.13-0.355,0.176-0.471,0.176-0.471c0.133-0.31,0.17-0.391,0.17-0.391
			c0.156-0.318,0.197-0.395,0.197-0.395c0.171-0.306,0.215-0.381,0.215-0.381c0.233-0.367,0.282-0.438,0.282-0.438
			c0.254-0.351,0.307-0.419,0.307-0.419c0.274-0.335,0.331-0.4,0.331-0.4c0.293-0.32,0.353-0.383,0.353-0.383
			c0.375-0.365,0.505-0.484,0.505-0.484c0.266-0.231,0.402-0.344,0.402-0.344c0.279-0.221,0.422-0.329,0.422-0.329
			c0.292-0.211,0.44-0.315,0.44-0.315c0.303-0.202,0.458-0.301,0.458-0.301c15.032-7.317,24.919-5.153,31.845-28.414
			c1.502-6.371-4.589-25.759-5.575-32.231c-6.868-32.411-5.005-36.466,6.619-66.419c0.074-0.363,0.095-0.48,0.095-0.48
			c0.055-0.344,0.071-0.456,0.071-0.456c0.037-0.329,0.046-0.436,0.046-0.436c0.018-0.315,0.022-0.418,0.022-0.418
			c0-0.305-0.003-0.405-0.003-0.405c-0.018-0.296-0.027-0.394-0.027-0.394c-0.036-0.29-0.051-0.386-0.051-0.386
			c-0.054-0.287-0.075-0.382-0.075-0.382c-0.072-0.286-0.098-0.382-0.098-0.382c-0.089-0.288-0.122-0.384-0.122-0.384
			c-0.107-0.292-0.145-0.39-0.145-0.39c-21.446-35.6-34.793-45.934-34.513-88.505c0.733-22.656-4.543-51.208,10.658-70.78
			c0.258-0.289,0.343-0.381,0.343-0.381c0.337-0.346,0.42-0.427,0.42-0.427c0.327-0.3,0.408-0.369,0.408-0.369
			c0.317-0.252,0.395-0.309,0.395-0.309c0.342-0.225,0.38-0.246,0.38-0.246c0.363-0.181,0.398-0.195,0.398-0.195
			c0.376-0.112,0.409-0.118,0.409-0.118c0.369-0.015,0.396-0.012,0.396-0.012c0.358,0.102,0.383,0.113,0.383,0.113
			c0.368,0.259,0.39,0.28,0.39,0.28c0.307,0.374,0.326,0.403,0.326,0.403c0.203,0.353,0.221,0.388,0.221,0.388
			c0.169,0.377,0.201,0.458,0.201,0.458c0.124,0.343,0.153,0.433,0.153,0.433c0.086,0.281,0.114,0.379,0.114,0.379
			c6.111,42.838-11.355,108.281,34.846,129.943c21.896,8.703,47.454,4.925,71.708,3.993
			c149.947-15.112,141.927-45.03,166.034-98.683"/>
	</g>
	<g id="POLYLINE_72_">
		
			<path fill="none" stroke="#FB8604" stroke-width="2.75" stroke-linecap="round" stroke-linejoin="round" stroke-miterlimit="10" d="
			M492.589,210.535c19.948-12.07,46.684-6.609,66.751,4.71c0.347,0.23,0.517,0.348,0.517,0.348c0.334,0.242,0.499,0.367,0.499,0.367
			c0.322,0.256,0.479,0.387,0.479,0.387c0.308,0.271,0.383,0.34,0.383,0.34c0.368,0.357,0.439,0.43,0.439,0.43
			c0.348,0.378,0.416,0.456,0.416,0.456c0.263,0.319,0.328,0.401,0.328,0.401c0.249,0.335,0.31,0.421,0.31,0.421
			c0.234,0.352,0.291,0.442,0.291,0.442c0.219,0.37,0.275,0.472,0.275,0.472c0.165,0.314,0.219,0.421,0.219,0.421
			c0.155,0.326,0.204,0.436,0.204,0.436c1.748,3.863,1.749,9.033,3.08,13.618c0.129,0.373,0.162,0.463,0.162,0.463
			c0.146,0.362,0.189,0.459,0.189,0.459c0.18,0.373,0.227,0.461,0.227,0.461c0.196,0.338,0.247,0.418,0.247,0.418
			c0.267,0.378,0.323,0.449,0.323,0.449c0.29,0.332,0.35,0.394,0.35,0.394c0.376,0.344,0.442,0.397,0.442,0.397
			c0.337,0.245,0.406,0.29,0.406,0.29c0.357,0.21,0.43,0.249,0.43,0.249c0.377,0.178,0.454,0.211,0.454,0.211
			c0.315,0.122,0.396,0.15,0.396,0.15c0.327,0.105,0.411,0.129,0.411,0.129c0.339,0.09,0.425,0.11,0.425,0.11
			c5.555,0.83,12.061,0.132,18.162-0.196"/>
	</g>
	<g id="POLYLINE_71_">
		
			<path fill="none" stroke="#FB8604" stroke-width="2.75" stroke-linecap="round" stroke-linejoin="round" stroke-miterlimit="10" d="
			M498.728,256.302c-4.151,6.168-11.808,11.443-20.003,10.237c-0.376-0.07-0.562-0.109-0.562-0.109
			c-0.365-0.088-0.456-0.111-0.456-0.111c-0.355-0.103-0.443-0.13-0.443-0.13c-0.345-0.118-0.429-0.149-0.429-0.149
			c-0.333-0.133-0.415-0.168-0.415-0.168c-0.321-0.148-0.399-0.188-0.399-0.188c-0.308-0.164-0.383-0.207-0.383-0.207
			c-0.365-0.227-0.436-0.275-0.436-0.275c-0.343-0.251-0.409-0.304-0.409-0.304c-0.319-0.276-0.38-0.333-0.38-0.333
			c-0.319-0.328-0.383-0.4-0.383-0.4c-0.304-0.377-0.362-0.455-0.362-0.455c-0.221-0.324-0.274-0.407-0.274-0.407
			c-0.202-0.344-0.25-0.432-0.25-0.432c-0.184-0.363-0.228-0.456-0.228-0.456c-0.127-0.284-0.168-0.381-0.168-0.381
			c-0.118-0.295-0.156-0.395-0.156-0.395c-1.745-5.634-1.606-11.983-3.687-18.184l-2.555-8.579
			c-1.544-4.361-2.108-10.6-0.809-15.804c1.04-5.259-0.628-11.4-0.002-17.302c0.052-0.344,0.071-0.457,0.071-0.457
			c0.064-0.333,0.087-0.442,0.087-0.442c0.076-0.321,0.103-0.426,0.103-0.426c0.089-0.309,0.12-0.41,0.12-0.41
			c0.102-0.296,0.139-0.392,0.139-0.392c0.158-0.373,0.2-0.463,0.2-0.463c0.17-0.324,0.204-0.385,0.204-0.385
			c0.223-0.349,0.262-0.405,0.262-0.405c0.293-0.373,0.337-0.423,0.337-0.423c0.326-0.336,0.374-0.381,0.374-0.381
			c0.356-0.299,0.409-0.339,0.409-0.339c0.327-0.227,0.384-0.263,0.384-0.263c0.347-0.2,0.406-0.231,0.406-0.231
			c0.364-0.173,0.426-0.2,0.426-0.2c0.315-0.123,0.38-0.146,0.38-0.146c0.326-0.104,0.392-0.123,0.392-0.123
			c0.335-0.085,0.403-0.1,0.403-0.1c0.343-0.066,0.412-0.078,0.412-0.078c0.35-0.048,0.421-0.055,0.421-0.055
			c0.356-0.029,0.428-0.033,0.428-0.033c0.289-0.009,0.434-0.01,0.434-0.01c0.292,0.005,0.439,0.012,0.439,0.012
			c0.294,0.02,0.442,0.034,0.442,0.034c0.296,0.035,0.444,0.056,0.444,0.056c0.297,0.05,0.445,0.078,0.445,0.078
			c0.297,0.064,0.445,0.1,0.445,0.1c0.357,0.096,0.461,0.127,0.461,0.127c0.312,0.099,0.416,0.134,0.416,0.134
			c0.311,0.113,0.415,0.153,0.415,0.153c0.31,0.126,0.413,0.17,0.413,0.17c3.607,1.427,8.519,6.399,11.772,9.327
			c10.527,9.397,18.378,14.026,18.882,31.593"/>
	</g>
	<g id="POLYLINE_70_">
		
			<path fill="none" stroke="#FB8604" stroke-width="2.75" stroke-linecap="round" stroke-linejoin="round" stroke-miterlimit="10" d="
			M603.206,252.549c-0.37,0.232-0.395,0.245-0.395,0.245c-0.36,0.152-0.387,0.16-0.387,0.16c-0.374,0.092-0.401,0.097-0.401,0.097
			c-0.358,0.035-0.386,0.036-0.386,0.036c-0.339-0.009-0.396-0.013-0.396-0.013c-0.346-0.049-0.405-0.06-0.405-0.06
			c-0.353-0.087-0.412-0.104-0.412-0.104c-0.359-0.123-0.419-0.146-0.419-0.146c-0.364-0.156-0.425-0.184-0.425-0.184
			c-0.306-0.154-0.43-0.22-0.43-0.22c-0.371-0.215-0.495-0.292-0.495-0.292c-0.374-0.245-0.498-0.331-0.498-0.331
			c-0.375-0.272-0.5-0.366-0.5-0.366c-3.111-2.554-6.216-5.977-8.218-10.261c-0.105-0.257-0.154-0.382-0.154-0.382
			c-0.13-0.366-0.168-0.484-0.168-0.484c-0.098-0.346-0.111-0.401-0.111-0.401c-0.073-0.377-0.08-0.429-0.08-0.429
			c-0.024-0.374-0.024-0.398-0.024-0.398c0.037-0.368,0.041-0.39,0.041-0.39c0.116-0.359,0.125-0.379,0.125-0.379
			c0.232-0.364,0.247-0.382,0.247-0.382c0.37-0.343,0.392-0.359,0.392-0.359c0.341-0.217,0.395-0.246,0.395-0.246
			c0.35-0.17,0.412-0.197,0.412-0.197c0.329-0.131,0.398-0.156,0.398-0.156c0.287-0.097,0.437-0.144,0.437-0.144
			c0.311-0.089,0.471-0.132,0.471-0.132c3.075-0.698,6.414-0.91,10.233-0.523c0.335,0.047,0.444,0.064,0.444,0.064
			c0.317,0.057,0.42,0.077,0.42,0.077c0.299,0.068,0.396,0.093,0.396,0.093c0.373,0.11,0.462,0.141,0.462,0.141
			c0.344,0.135,0.385,0.154,0.385,0.154c0.355,0.182,0.393,0.204,0.393,0.204c0.357,0.243,0.39,0.27,0.39,0.27
			c0.376,0.355,0.405,0.387,0.405,0.387c0.27,0.354,0.295,0.392,0.295,0.392c0.209,0.368,0.231,0.412,0.231,0.412
			c0.159,0.371,0.177,0.42,0.177,0.42c0.118,0.361,0.134,0.415,0.134,0.415c0.08,0.315,0.1,0.405,0.1,0.405
			c0.072,0.373,0.088,0.469,0.088,0.469c0.043,0.297,0.056,0.398,0.056,0.398c0.261,2.866-0.054,5.967-1.227,9.11
			c-0.128,0.315-0.172,0.417-0.172,0.417c-0.135,0.301-0.181,0.399-0.181,0.399c-0.142,0.286-0.19,0.378-0.19,0.378
			c-0.2,0.356-0.251,0.442-0.251,0.442c-0.211,0.326-0.265,0.403-0.265,0.403c-0.279,0.362-0.307,0.395-0.307,0.395
			C603.484,252.32,603.454,252.348,603.206,252.549z"/>
	</g>
	<g id="POLYLINE_69_">
		
			<path fill="none" stroke="#FB8604" stroke-width="2.75" stroke-linecap="round" stroke-linejoin="round" stroke-miterlimit="10" d="
			M603.206,252.549c0.259,26.53-29.255,33.284-48.368,44.353c-0.277,0.196-0.299,0.201-0.833,0.603
			c-0.355,0.284-0.467,0.378-0.467,0.378c-0.318,0.281-0.418,0.374-0.418,0.374c-0.371,0.373-0.457,0.466-0.457,0.466
			c-0.318,0.376-0.355,0.423-0.355,0.423c-0.243,0.334-0.275,0.382-0.275,0.382c-0.212,0.342-0.241,0.392-0.241,0.392
			c-0.185,0.352-0.234,0.455-0.234,0.455c-0.137,0.314-0.179,0.421-0.179,0.421c-0.119,0.328-0.156,0.439-0.156,0.439
			c-0.104,0.343-0.136,0.461-0.136,0.461c-1.752,9.121-1.718,19.213-4.889,28.453c-4.622,9.742-6.868,20.506-5.152,32.076
			c0.465,9.92,4.141,22.161-0.308,31.965c-3.536,6.944-11.459,10.747-15.569,17.876c-0.164,0.315-0.243,0.473-0.243,0.473
			c-6.117,18.08-28.794,25.006-38.896,44.033c-6.593,16.975-0.563,82.952,2.757,89.269c0.167,0.366,0.253,0.546,0.253,0.546
			c0.178,0.355,0.271,0.529,0.271,0.529c0.191,0.344,0.29,0.513,0.29,0.513c0.204,0.333,0.309,0.496,0.309,0.496
			c0.218,0.322,0.331,0.48,0.331,0.48c0.233,0.312,0.353,0.465,0.353,0.465c0.248,0.301,0.377,0.449,0.377,0.449
			c0.265,0.291,0.401,0.435,0.401,0.435c0.282,0.282,0.427,0.42,0.427,0.42c0.3,0.272,0.455,0.406,0.455,0.406
			c0.319,0.263,0.483,0.392,0.483,0.392c2.154,1.582,3.981,2.412,7.193,3.69c2.847,1.134,6.539,2.256,9.56,3.885
			c0.365,0.21,0.483,0.281,0.483,0.281c0.343,0.215,0.453,0.288,0.453,0.288c0.322,0.221,0.425,0.295,0.425,0.295
			c0.301,0.227,0.398,0.304,0.398,0.304c0.372,0.313,0.461,0.393,0.461,0.393c0.341,0.326,0.422,0.409,0.422,0.409
			c0.311,0.34,0.385,0.427,0.385,0.427c0.283,0.356,0.35,0.446,0.35,0.446c0.256,0.373,0.317,0.468,0.317,0.468
			c0.175,0.292,0.231,0.391,0.231,0.391c0.161,0.303,0.212,0.407,0.212,0.407c0.147,0.316,0.194,0.423,0.194,0.423
			c0.134,0.329,0.177,0.441,0.177,0.441c0.122,0.343,0.162,0.463,0.162,0.463c0.584,1.875,0.891,4.012,0.633,6.35
			c-0.051,0.37-0.071,0.491-0.071,0.491c-0.067,0.355-0.092,0.47-0.092,0.47c-0.082,0.338-0.112,0.447-0.112,0.447
			c-0.098,0.318-0.126,0.4-0.126,0.4c-0.122,0.317-0.154,0.394-0.154,0.394c-0.178,0.366-0.216,0.437-0.216,0.437
			c-0.23,0.367-0.252,0.399-0.252,0.399c-0.292,0.363-0.318,0.392-0.318,0.392c-0.367,0.352-0.398,0.378-0.398,0.378
			c-0.355,0.266-0.424,0.312-0.424,0.312c-0.365,0.216-0.442,0.257-0.442,0.257c-0.323,0.156-0.407,0.193-0.407,0.193
			c-0.352,0.141-0.444,0.174-0.444,0.174c-0.285,0.096-0.383,0.127-0.383,0.127c-0.304,0.088-0.409,0.116-0.409,0.116
			c-9.945,1.3-23.114,1.022-33.436,0.166c-0.29-0.076-0.386-0.103-0.386-0.103c-0.375-0.115-0.467-0.146-0.467-0.146
			c-0.361-0.131-0.449-0.166-0.449-0.166c-0.347-0.148-0.432-0.188-0.432-0.188c-0.332-0.166-0.413-0.21-0.413-0.21
			c-0.317-0.185-0.395-0.234-0.395-0.234c-0.376-0.259-0.449-0.314-0.449-0.314c-0.353-0.291-0.424-0.355-0.424-0.355
			c-0.343-0.338-0.409-0.409-0.409-0.409c-0.319-0.372-0.381-0.45-0.381-0.45c-0.239-0.321-0.297-0.404-0.297-0.404
			c-0.226-0.342-0.281-0.43-0.281-0.43c-6.518-23.996-20.427-45.863-21.602-71.62c-1.092-17.906,0.608-29.941-14.91-43.861
			c-57.672-10.289-84.366-8.936-123.534-7.956"/>
	</g>
</g>
<g id="AG-OUTLINE">
	<g id="POLYLINE_537_">
		
			<path fill="none" stroke="#FB8604" stroke-width="3.5" stroke-linecap="round" stroke-linejoin="round" stroke-miterlimit="10" d="
			M467.85,239.898c-11.874,26.155-14.706,47.499-39.34,66.609c-30.868,21.802-105.94,31.192-128.909,32.214
			c-118.245,12.905-98.486-44.65-104.312-133.977c-0.083-0.292-0.112-0.386-0.112-0.386c-0.119-0.357-0.151-0.442-0.151-0.442
			c-0.13-0.32-0.163-0.396-0.163-0.396c-0.177-0.348-0.195-0.38-0.195-0.38c-0.253-0.371-0.273-0.396-0.273-0.396
			c-0.371-0.344-0.394-0.359-0.394-0.359c-0.368-0.164-0.394-0.17-0.394-0.17c-0.366-0.03-0.398-0.028-0.398-0.028
			c-0.365,0.073-0.399,0.084-0.399,0.084c-0.354,0.147-0.39,0.165-0.39,0.165c-0.373,0.22-0.411,0.246-0.411,0.246
			c-0.351,0.259-0.43,0.323-0.43,0.323c-0.323,0.281-0.405,0.358-0.405,0.358c-0.333,0.328-0.417,0.415-0.417,0.415
			c-9.125,10.973-11.273,26.112-11.283,40.752c-0.277,69.429,0.704,65.343,34.541,118.604c0.128,0.3,0.168,0.399,0.168,0.399
			c0.111,0.293,0.145,0.39,0.145,0.39c0.094,0.288,0.122,0.384,0.122,0.384c0.076,0.286,0.098,0.382,0.098,0.382
			c0.058,0.286,0.075,0.382,0.075,0.382c0.04,0.289,0.051,0.386,0.051,0.386c0.022,0.294,0.027,0.394,0.027,0.394
			c0.004,0.302,0.003,0.405,0.003,0.405c-0.014,0.312-0.022,0.418-0.022,0.418c-0.032,0.325-0.046,0.436-0.046,0.436
			c-0.051,0.34-0.071,0.456-0.071,0.456c-11.032,27.302-13.721,37.483-6.715,66.899c2.402,16.43,11.347,28.684,0.209,44.519
			c-5.155,9.832-16.913,11.437-26.479,16.126c-0.307,0.199-0.458,0.301-0.458,0.301c-0.295,0.208-0.44,0.315-0.44,0.315
			c-0.283,0.218-0.422,0.329-0.422,0.329c-0.271,0.228-0.402,0.344-0.402,0.344c-0.257,0.238-0.382,0.36-0.382,0.36
			c-0.361,0.377-0.419,0.441-0.419,0.441c-0.28,0.33-0.334,0.397-0.334,0.397c-0.261,0.345-0.311,0.416-0.311,0.416
			c-0.24,0.361-0.286,0.435-0.286,0.435c-0.177,0.301-0.219,0.378-0.219,0.378c-0.162,0.313-0.201,0.392-0.201,0.392
			c-0.16,0.356-0.208,0.471-0.208,0.471c-0.134,0.352-0.176,0.471-0.176,0.471c-0.117,0.365-0.153,0.489-0.153,0.489
			c-0.068,0.251-0.101,0.379-0.101,0.379c-1.116,18.836,8.852,38.139,7.847,57.504c0.045,3.365,0.736,7.611,2.741,11.067
			c0.221,0.374,0.335,0.558,0.335,0.558c0.237,0.363,0.359,0.542,0.359,0.542c0.253,0.351,0.383,0.524,0.383,0.524
			c0.269,0.338,0.338,0.421,0.338,0.421c0.283,0.325,0.356,0.405,0.356,0.405c0.297,0.312,0.374,0.388,0.374,0.388
			c0.312,0.297,0.392,0.37,0.392,0.37c0.327,0.281,0.41,0.35,0.41,0.35c0.342,0.265,0.429,0.329,0.429,0.329
			c0.357,0.247,0.47,0.32,0.47,0.32c0.344,0.21,0.462,0.278,0.462,0.278c0.358,0.194,0.48,0.256,0.48,0.256
			c3.858,1.742,7.061,1.799,11.997,1.819c7.664-0.601,16.032,0.728,23.837-0.846c0.368-0.115,0.458-0.145,0.458-0.145
			c0.35-0.127,0.435-0.16,0.435-0.16c0.331-0.139,0.411-0.175,0.411-0.175c0.311-0.152,0.387-0.191,0.387-0.191
			c0.362-0.207,0.431-0.251,0.431-0.251c0.33-0.227,0.393-0.274,0.393-0.274c0.355-0.298,0.41-0.351,0.41-0.351
			c0.332-0.356,0.355-0.384,0.355-0.384c0.268-0.371,0.287-0.4,0.287-0.4c0.205-0.368,0.236-0.432,0.236-0.432
			c0.138-0.328,0.162-0.396,0.162-0.396c0.107-0.347,0.126-0.419,0.126-0.419c0.077-0.367,0.089-0.442,0.089-0.442
			c0.04-0.308,0.047-0.386,0.047-0.386c0.02-0.321,0.023-0.402,0.023-0.402c0.001-0.334-0.002-0.419-0.002-0.419
			c-0.019-0.346-0.026-0.435-0.026-0.435c-0.038-0.359-0.049-0.451-0.049-0.451c-0.041-0.278-0.073-0.467-0.073-0.467
			c-0.261-1.35-0.661-2.654-1.439-4.116c-0.146-0.264-0.222-0.395-0.222-0.395c-0.156-0.258-0.236-0.386-0.236-0.386
			c-0.25-0.375-0.337-0.497-0.337-0.497c-0.269-0.358-0.362-0.474-0.362-0.474c-0.288-0.337-0.387-0.446-0.387-0.446
			c-0.359-0.363-0.412-0.413-0.412-0.413c-0.325-0.286-0.38-0.332-0.38-0.332c-0.341-0.26-0.399-0.301-0.399-0.301
			c-0.357-0.231-0.418-0.267-0.418-0.267c-0.375-0.201-0.441-0.232-0.441-0.232c-0.334-0.145-0.402-0.172-0.402-0.172
			c-0.345-0.122-0.415-0.145-0.415-0.145c-0.355-0.101-0.427-0.12-0.427-0.12c-0.29-0.067-0.437-0.097-0.437-0.097
			c-0.297-0.053-0.447-0.076-0.447-0.076c-0.302-0.04-0.455-0.057-0.455-0.057c-1.861-0.227-4.262,0.084-6.696-0.135
			c-0.288-0.035-0.413-0.052-0.413-0.052c-0.371-0.062-0.493-0.086-0.493-0.086c-0.36-0.079-0.479-0.108-0.479-0.108
			c-0.35-0.096-0.465-0.13-0.465-0.13c-0.341-0.111-0.453-0.15-0.453-0.15c-0.333-0.125-0.443-0.17-0.443-0.17
			c-0.325-0.139-0.433-0.188-0.433-0.188c-0.319-0.152-0.424-0.205-0.424-0.205c-2.135-1.173-4.231-2.745-6.414-4.98
			c-0.289-0.323-0.384-0.433-0.384-0.433c-0.279-0.336-0.37-0.451-0.37-0.451c-0.267-0.351-0.353-0.47-0.353-0.47
			c-0.253-0.366-0.335-0.491-0.335-0.491c-0.16-0.254-0.238-0.383-0.238-0.383c-0.152-0.262-0.225-0.396-0.225-0.396
			c-0.143-0.271-0.212-0.41-0.212-0.41c-0.134-0.281-0.198-0.424-0.198-0.424c-0.124-0.291-0.183-0.439-0.183-0.439
			c-0.113-0.301-0.167-0.454-0.167-0.454c-0.102-0.311-0.137-0.425-0.137-0.425c-0.099-0.346-0.13-0.463-0.13-0.463
			c-1.296-4.895-0.067-12.829,0.265-18.516c0.336-4.218,0.063-8.848,1.451-13.333c0.106-0.295,0.143-0.392,0.143-0.392
			c0.115-0.286,0.155-0.38,0.155-0.38c0.168-0.367,0.211-0.457,0.211-0.457c0.184-0.351,0.232-0.436,0.232-0.436
			c0.201-0.334,0.253-0.415,0.253-0.415c0.239-0.343,0.287-0.407,0.287-0.407c0.3-0.373,0.352-0.433,0.352-0.433
			c0.325-0.35,0.381-0.406,0.381-0.406c0.289-0.275,0.408-0.382,0.408-0.382c0.37-0.31,0.497-0.409,0.497-0.409
			c0.26-0.195,0.394-0.29,0.394-0.29c0.272-0.186,0.41-0.277,0.41-0.277c8.684-4.283,12.436-5.764,23.206-12.413
			c15.066-9.48,31.961-16.967,50.173-22.337c13.034-4.289,24.473-14.436,28.338-28.839c14.909-0.077,49.688-1.31,64.156-0.128
			c15.689,1.128,43.776,5.838,59.378,8.084c13.405,10.07,14.739,27.822,14.91,43.861c0.758,24.686,15.065,46.839,21.136,70.784
			c0.15,0.287,0.201,0.381,0.201,0.381c0.211,0.366,0.265,0.455,0.265,0.455c0.223,0.346,0.281,0.43,0.281,0.43
			c0.237,0.326,0.297,0.404,0.297,0.404c0.316,0.377,0.381,0.45,0.381,0.45c0.339,0.343,0.409,0.409,0.409,0.409
			c0.352,0.299,0.424,0.355,0.424,0.355c0.372,0.264,0.449,0.314,0.449,0.314c0.314,0.189,0.395,0.234,0.395,0.234
			c0.329,0.17,0.413,0.21,0.413,0.21c0.344,0.152,0.432,0.188,0.432,0.188c0.358,0.135,0.449,0.166,0.449,0.166
			c10.597,1.406,22.586,1.166,33.611,0.243c0.351-0.078,0.464-0.105,0.464-0.105c0.319-0.083,0.422-0.111,0.422-0.111
			c0.299-0.09,0.396-0.122,0.396-0.122c0.371-0.133,0.459-0.167,0.459-0.167c0.34-0.147,0.422-0.185,0.422-0.185
			c0.311-0.162,0.386-0.204,0.386-0.204c0.351-0.224,0.384-0.248,0.384-0.248c0.374-0.3,0.403-0.326,0.403-0.326
			c0.352-0.364,0.376-0.394,0.376-0.394c0.278-0.375,0.3-0.408,0.3-0.408c0.181-0.307,0.219-0.378,0.219-0.378
			c0.173-0.372,0.205-0.449,0.205-0.449c0.118-0.322,0.152-0.426,0.152-0.426c0.094-0.323,0.123-0.434,0.123-0.434
			c0.078-0.342,0.102-0.459,0.102-0.459c0.063-0.359,0.081-0.481,0.081-0.481c0.247-1.946,0.147-3.974-0.486-6.228
			c-0.114-0.369-0.155-0.49-0.155-0.49c-0.122-0.343-0.165-0.454-0.165-0.454c-0.134-0.329-0.181-0.436-0.181-0.436
			c-0.147-0.316-0.198-0.419-0.198-0.419c-0.161-0.303-0.217-0.403-0.217-0.403c-0.175-0.292-0.236-0.387-0.236-0.387
			c-0.256-0.373-0.323-0.464-0.323-0.464c-0.283-0.356-0.357-0.442-0.357-0.442c-0.311-0.34-0.392-0.423-0.392-0.423
			c-0.341-0.326-0.43-0.405-0.43-0.405c-0.372-0.313-0.469-0.39-0.469-0.39c-0.301-0.227-0.405-0.301-0.405-0.301
			c-0.322-0.221-0.432-0.293-0.432-0.293c-0.343-0.215-0.461-0.286-0.461-0.286c-1.664-1.12-7.637-3.221-9.925-4.096
			c-1.748-0.698-4.684-1.852-6.855-3.437c-0.338-0.254-0.503-0.383-0.503-0.383c-0.319-0.263-0.473-0.396-0.473-0.396
			c-0.3-0.272-0.445-0.41-0.445-0.41c-0.282-0.282-0.419-0.425-0.419-0.425c-0.265-0.291-0.393-0.439-0.393-0.439
			c-0.248-0.301-0.369-0.454-0.369-0.454c-0.233-0.312-0.345-0.47-0.345-0.47c-0.218-0.322-0.323-0.486-0.323-0.486
			c-0.204-0.333-0.303-0.502-0.303-0.502c-0.191-0.344-0.283-0.518-0.283-0.518c-0.178-0.355-0.265-0.535-0.265-0.535
			c-0.167-0.366-0.248-0.552-0.248-0.552c-4.126-11.796-3.95-30.687-4.757-41.957c-1.509-46.216-5.168-47.995,31.663-76.498
			c3.984-3.789,6.782-9.145,9.392-14.82c0.164-0.315,0.249-0.471,0.249-0.471c17.73-21.073,20.025-13.73,15.792-49.685
			c-1.715-13.164,0.295-20.349,5.885-34.418c2.133-7.358,2.705-17.543,3.983-25.373c0.083-0.377,0.113-0.499,0.113-0.499
			c0.094-0.357,0.127-0.473,0.127-0.473c0.107-0.339,0.145-0.45,0.145-0.45c0.123-0.324,0.167-0.43,0.167-0.43
			c0.142-0.311,0.192-0.413,0.192-0.413c0.192-0.35,0.221-0.399,0.221-0.399c0.22-0.34,0.253-0.388,0.253-0.388
			c0.213-0.285,0.289-0.38,0.289-0.38c0.328-0.375,0.417-0.468,0.417-0.468c0.283-0.28,0.382-0.373,0.382-0.373
			c0.318-0.281,0.43-0.375,0.43-0.375c19.593-13.472,47.768-14.594,49.557-45.24c0.368-0.315,0.398-0.344,0.398-0.344
			c0.319-0.356,0.375-0.426,0.375-0.426c0.22-0.3,0.273-0.379,0.273-0.379c0.209-0.332,0.259-0.419,0.259-0.419
			c0.197-0.362,0.245-0.456,0.245-0.456c0.14-0.29,0.186-0.389,0.186-0.389c1.16-2.766,1.775-5.959,1.521-9.418
			c-0.034-0.311-0.046-0.412-0.046-0.412c-0.043-0.297-0.059-0.393-0.059-0.393c-0.072-0.373-0.092-0.462-0.092-0.462
			c-0.096-0.369-0.112-0.422-0.112-0.422c-0.121-0.356-0.139-0.405-0.139-0.405c-0.162-0.366-0.184-0.409-0.184-0.409
			c-0.213-0.363-0.238-0.401-0.238-0.401c-0.274-0.349-0.303-0.381-0.303-0.381c-0.347-0.323-0.38-0.349-0.38-0.349
			c-0.357-0.243-0.394-0.265-0.394-0.265c-0.355-0.182-0.397-0.2-0.397-0.2c-0.344-0.135-0.433-0.166-0.433-0.166
			c-0.373-0.11-0.47-0.135-0.47-0.135c-0.299-0.068-0.402-0.089-0.402-0.089c-0.317-0.057-0.426-0.074-0.426-0.074
			c-3.124-0.364-6.82-0.389-10.568,0.476c-0.318,0.086-0.471,0.132-0.471,0.132c-0.366,0.119-0.437,0.144-0.437,0.144
			c-0.335,0.129-0.398,0.156-0.398,0.156c-0.357,0.168-0.412,0.197-0.412,0.197c-0.352,0.215-0.382,0.237-0.382,0.237
			c-4.597,0.922-12.327,0.997-17.618,0.638c-0.329-0.056-0.438-0.077-0.438-0.077c-0.32-0.067-0.425-0.091-0.425-0.091
			c-0.341-0.087-0.425-0.11-0.425-0.11c-0.33-0.102-0.411-0.129-0.411-0.129c-0.318-0.118-0.396-0.15-0.396-0.15
			c-0.305-0.137-0.38-0.173-0.38-0.173c-0.364-0.199-0.434-0.242-0.434-0.242c-0.344-0.233-0.41-0.283-0.41-0.283
			c-0.323-0.27-0.385-0.328-0.385-0.328c-0.359-0.377-0.416-0.445-0.416-0.445c-0.275-0.362-0.327-0.439-0.327-0.439
			c-0.203-0.325-0.251-0.41-0.251-0.41c-0.187-0.359-0.231-0.453-0.231-0.453c-0.129-0.293-0.164-0.379-0.164-0.379
			c-1.524-4.189-1.276-9.246-3.166-13.92c-0.144-0.337-0.194-0.447-0.194-0.447c-0.155-0.326-0.208-0.433-0.208-0.433
			c-0.165-0.314-0.222-0.417-0.222-0.417c-0.219-0.37-0.275-0.46-0.275-0.46c-0.234-0.352-0.294-0.438-0.294-0.438
			c-0.249-0.335-0.313-0.417-0.313-0.417c-0.263-0.319-0.331-0.397-0.331-0.397c-0.348-0.378-0.42-0.451-0.42-0.451
			c-0.368-0.357-0.443-0.426-0.443-0.426c-0.308-0.271-0.465-0.402-0.465-0.402c-0.322-0.256-0.486-0.38-0.486-0.38
			c-0.334-0.242-0.505-0.36-0.505-0.36c-0.347-0.23-0.523-0.342-0.523-0.342c-20.457-10.503-43.322-17.46-66.575-4.598
			c-5.55-4.32-10.004-10.163-16.636-13.62c-0.31-0.132-0.413-0.174-0.413-0.174c-0.311-0.119-0.414-0.157-0.414-0.157
			c-0.312-0.106-0.416-0.139-0.416-0.139c-0.313-0.092-0.417-0.12-0.417-0.12c-0.296-0.074-0.445-0.107-0.445-0.107
			c-0.297-0.059-0.445-0.085-0.445-0.085c-0.297-0.045-0.445-0.063-0.445-0.063c-0.296-0.03-0.443-0.041-0.443-0.041
			c-0.294-0.015-0.44-0.019-0.44-0.019c-0.291-0.001-0.436,0.003-0.436,0.003c-0.359,0.02-0.43,0.025-0.43,0.025
			c-0.353,0.038-0.423,0.048-0.423,0.048c-0.347,0.057-0.415,0.07-0.415,0.07c-0.339,0.076-0.406,0.093-0.406,0.093
			c-0.33,0.095-0.396,0.116-0.396,0.116c-0.321,0.114-0.384,0.138-0.384,0.138c-0.371,0.161-0.431,0.191-0.431,0.191
			c-0.354,0.188-0.412,0.222-0.412,0.222c-0.336,0.215-0.39,0.254-0.39,0.254c-0.367,0.285-0.417,0.329-0.417,0.329
			c-0.337,0.322-0.383,0.371-0.383,0.371c-0.305,0.359-0.347,0.413-0.347,0.413c-0.234,0.337-0.271,0.396-0.271,0.396
			c-0.21,0.371-0.232,0.415-0.232,0.415c-0.168,0.363-0.207,0.457-0.207,0.457c-0.109,0.289-0.143,0.387-0.143,0.387
			c-0.095,0.302-0.125,0.405-0.125,0.405c-0.082,0.315-0.107,0.422-0.107,0.422c-0.069,0.327-0.091,0.438-0.091,0.438
			c-0.905,5.599,1.03,11.504-0.089,17.871C463.698,225.872,465.544,232.941,467.85,239.898z"/>
	</g>
</g>
</svg>
