<?xml version="1.0" encoding="utf-8"?>
<!-- Generator: Adobe Illustrator 24.0.1, SVG Export Plug-In . SVG Version: 6.00 Build 0)  -->
<!DOCTYPE svg PUBLIC "-//W3C//DTD SVG 1.1//EN" "http://www.w3.org/Graphics/SVG/1.1/DTD/svg11.dtd" [
	<!ENTITY ns_extend "http://ns.adobe.com/Extensibility/1.0/">
	<!ENTITY ns_ai "http://ns.adobe.com/AdobeIllustrator/10.0/">
	<!ENTITY ns_graphs "http://ns.adobe.com/Graphs/1.0/">
	<!ENTITY ns_vars "http://ns.adobe.com/Variables/1.0/">
	<!ENTITY ns_imrep "http://ns.adobe.com/ImageReplacement/1.0/">
	<!ENTITY ns_sfw "http://ns.adobe.com/SaveForWeb/1.0/">
	<!ENTITY ns_custom "http://ns.adobe.com/GenericCustomNamespace/1.0/">
	<!ENTITY ns_adobe_xpath "http://ns.adobe.com/XPath/1.0/">
]>
<svg version="1.1" xmlns:x="&ns_extend;" xmlns:i="&ns_ai;" xmlns:graph="&ns_graphs;"
	 xmlns="http://www.w3.org/2000/svg" xmlns:xlink="http://www.w3.org/1999/xlink" x="0px" y="0px" viewBox="0 0 750 750"
	 enable-background="new 0 0 750 750" xml:space="preserve">
<metadata>
	<sfw  xmlns="&ns_sfw;">
		<slices></slices>
		<sliceSourceBounds  bottomLeftOrigin="true" height="14825" width="8203.412" x="-3962.412" y="-6975"></sliceSourceBounds>
	</sfw>
</metadata>
<g id="FILL-BACKGROUND">
	<rect fill="#FFFFFF" width="750" height="750"/>
</g>
<g id="N-DIMENSIONS">
</g>
<g id="N-TEXT">
</g>
<g id="AG-DIAGRAM">
	<g id="POLYLINE_2837_">
		<g>
			<g>
				
					<line fill="none" stroke="#FB8604" stroke-width="3.25" stroke-linecap="round" stroke-linejoin="round" x1="162.783" y1="577.757" x2="164.783" y2="577.757"/>
				
					<line fill="none" stroke="#FB8604" stroke-width="3.25" stroke-linecap="round" stroke-linejoin="round" stroke-dasharray="3.9964,6.9936" x1="171.777" y1="577.757" x2="541.94" y2="577.757"/>
				
					<line fill="none" stroke="#FB8604" stroke-width="3.25" stroke-linecap="round" stroke-linejoin="round" x1="545.437" y1="577.757" x2="547.437" y2="577.757"/>
			</g>
		</g>
	</g>
</g>
<g id="AG-DETAIL">
</g>
<g id="AG-GUIDES">
</g>
<g id="AG-PEOPLE">
</g>
<g id="AG-ANIMALS">
	<g id="POLYLINE_61_">
		
			<path fill="none" stroke="#FB8604" stroke-width="2.75" stroke-linecap="round" stroke-linejoin="round" stroke-miterlimit="10" d="
			M527.853,245.391c-4.383-12.543-7.625-28.26-2.428-41.523c13.858-19.597,26.19,4.852,21.808,22.388"/>
	</g>
	<g id="POLYLINE_60_">
		
			<path fill="none" stroke="#FB8604" stroke-width="2.75" stroke-linecap="round" stroke-linejoin="round" stroke-miterlimit="10" d="
			M547.696,213.587c5.825,2.523,11.863,7.478,16.73,12.205c5.216,13.706,8.191,17.124,27.017,15.07
			c3.426-0.518,7.226-1.548,10.936-0.743"/>
	</g>
	<g id="POLYLINE_52_">
		
			<path fill="none" stroke="#FB8604" stroke-width="2.75" stroke-linecap="round" stroke-linejoin="round" stroke-miterlimit="10" d="
			M610.837,251.589c2.024,6.481-1.538,12.797-5.602,18.255c-6.824,14.429-49.192,5.656-39.86,28.712
			c3.168,8.341,8.027,18.524-1.298,26.513c-2.538,2.414-3.912,5.747-3.422,9.868c1.445,9.055-1.555,12.65-5.201,22.257
			c-0.982,3.6-0.492,8.048-2.326,11.864c-3.814,7-10.898,13.321-15.211,20.37c-5.733,8.602-10.493,16.693-11.787,27.649
			c-0.229,1.195-0.605,2.904-1.389,4.084c-0.085,0.131-0.129,0.196-0.129,0.196c-0.089,0.128-0.135,0.19-0.135,0.19
			c-3.794,4.046-9.389,6.022-12.238,11.687c-3.563,5.504-5.482,11.433-10.496,16.125c-9.894,7.795-21.755,5.912-26.729,34.33
			l-3.027,17.792c-1.1,12.754-8.547,23.902-8.445,36.883c0.465,3.888,7.634,16.02,14.53,17.003
			c4.368,0.72,10.009-0.433,14.077,2.732c4.366,3.549,7.462,10.005,6.584,16.108c-0.033,0.116-0.05,0.174-0.05,0.174
			c-0.036,0.113-0.055,0.168-0.055,0.168c-0.04,0.109-0.061,0.162-0.061,0.162c-0.043,0.105-0.066,0.156-0.066,0.156
			c-0.065,0.138-0.083,0.172-0.083,0.172c-0.071,0.132-0.09,0.164-0.09,0.164c-0.077,0.126-0.097,0.157-0.097,0.157
			c-0.082,0.12-0.104,0.149-0.104,0.149c-0.11,0.142-0.133,0.169-0.133,0.169c-0.118,0.133-0.142,0.159-0.142,0.159
			c-0.126,0.125-0.152,0.149-0.152,0.149c-0.133,0.117-0.16,0.14-0.16,0.14c-0.14,0.11-0.169,0.131-0.169,0.131
			c-0.117,0.083-0.147,0.103-0.147,0.103c-0.091,0.059-0.153,0.097-0.153,0.097c-0.127,0.074-0.191,0.109-0.191,0.109
			c-0.132,0.068-0.199,0.101-0.199,0.101c-0.137,0.064-0.206,0.094-0.206,0.094c-8.927,2.017-15.904,0.343-26.417,0.993
			c-9.425-0.402-19.227,2.252-26.015-6.816c-2.831-3.664-5.742-7.188-9.32-10.68c-11.485-9.105-5.219-14.673-10.93-28.183
			c-3.3-8.237-11.358-15.477-13.526-24.645c-0.471-3.389-0.113-6.933-1.368-10.656l-2.064-6.79
			c-1.248-4.167-1.953-8.826-0.738-13.621c9.833-27.239-18.861-16.517-35.612-20.39c-25.433-4.188-49.62-13.252-71.649-26.323"/>
	</g>
	<g id="POLYLINE_51_">
		
			<path fill="none" stroke="#FB8604" stroke-width="2.75" stroke-linecap="round" stroke-linejoin="round" stroke-miterlimit="10" d="
			M293.474,395.676c2.958,12.382,7.387,24.826,4.84,37.967c-0.29,10.999-10.638,17.697-14.377,27.843
			c-4.093,15.061-6.853,20.16-22.624,35.226c-14.734,15.545-14.598,39.406-6.507,58.694c0.084,0.143,0.126,0.212,0.126,0.212
			c0.085,0.13,0.107,0.162,0.107,0.162c0.087,0.12,0.109,0.149,0.109,0.149c0.112,0.137,0.135,0.162,0.135,0.162
			c0.117,0.123,0.14,0.146,0.14,0.146c0.122,0.109,0.147,0.13,0.147,0.13c0.128,0.097,0.154,0.115,0.154,0.115
			c0.135,0.086,0.163,0.102,0.163,0.102c0.143,0.075,0.173,0.089,0.173,0.089c0.121,0.053,0.152,0.065,0.152,0.065
			c0.127,0.047,0.16,0.058,0.16,0.058c0.134,0.041,0.169,0.051,0.169,0.051c1.185,0.326,3.546,0.237,5.054,0.307
			c3.601,0.039,7.395,1.256,10.588,3.448c0.097,0.071,0.114,0.079,0.305,0.229c0.141,0.117,0.186,0.156,0.186,0.156
			c0.131,0.121,0.173,0.162,0.173,0.162c0.122,0.126,0.161,0.169,0.161,0.169c0.113,0.132,0.15,0.178,0.15,0.178
			c0.106,0.141,0.14,0.189,0.14,0.189c0.066,0.099,0.099,0.15,0.099,0.15c0.063,0.104,0.094,0.158,0.094,0.158
			c0.06,0.11,0.09,0.167,0.09,0.167c0.058,0.117,0.086,0.177,0.086,0.177c1.174,3.474,2.038,8.414,0.128,12.251
			c-0.072,0.121-0.11,0.181-0.11,0.181c-0.078,0.118-0.118,0.176-0.118,0.176c-0.084,0.115-0.128,0.172-0.128,0.172
			c-0.115,0.14-0.139,0.168-0.139,0.168c-0.125,0.136-0.151,0.163-0.151,0.163c-0.136,0.132-0.165,0.158-0.165,0.158
			c-0.118,0.103-0.149,0.128-0.149,0.128c-0.127,0.1-0.16,0.124-0.16,0.124c-0.136,0.097-0.171,0.121-0.171,0.121
			c-0.109,0.071-0.146,0.094-0.146,0.094c-0.115,0.069-0.155,0.092-0.155,0.092c-3.606,2.406-48.303,2.334-50.734,0.423
			c-0.143-0.082-0.189-0.11-0.189-0.11c-0.138-0.087-0.183-0.116-0.183-0.116c-0.133-0.091-0.177-0.122-0.177-0.122
			c-0.129-0.096-0.171-0.128-0.171-0.128c-0.124-0.1-0.165-0.134-0.165-0.134c-0.12-0.104-0.159-0.139-0.159-0.139
			c-0.116-0.108-0.154-0.145-0.154-0.145c-3.04-3.452-3.274-8.308-3.687-13.344l-0.638-15.458
			c-0.43-10.921-3.155-27.447-4.627-38.135l-2.926-25.801c-6.814-51.297-45.791-52.41-33.101-132.868
			c1.689-10.743,2.007-16.916,1.423-27.154l-1.462-21.461c-3.732-34.228,44.525-63.775,78.178-65.084
			c8.344-0.525,16.805,3.575,25.184,5.73c3.271,0.618,6.328-0.245,9.802-1.965c26.805-15.607,40.653-1.223,49.372,27.313
			c3.169,10.277,2.288,24.479-6.177,32.745c-9.198,8.056-36.089,3.936-47.894,0.799c-36.197-9.405-58.91-17.666-93.852-0.994"/>
	</g>
	<g id="POLYLINE_50_">
		
			<path fill="none" stroke="#FB8604" stroke-width="2.75" stroke-linecap="round" stroke-linejoin="round" stroke-miterlimit="10" d="
			M609.38,253.034c-0.135,0.051-0.158,0.059-0.158,0.059c-0.14,0.041-0.163,0.048-0.163,0.048c-0.12,0.027-0.144,0.032-0.144,0.032
			c-0.123,0.02-0.148,0.024-0.148,0.024c-0.125,0.014-0.151,0.016-0.151,0.016c-0.102,0.006-0.154,0.008-0.154,0.008
			c-0.104,0.001-0.157,0-0.157,0c-0.106-0.004-0.16-0.007-0.16-0.007c-0.108-0.009-0.162-0.015-0.162-0.015
			c-0.109-0.014-0.164-0.022-0.164-0.022c-0.111-0.019-0.167-0.029-0.167-0.029c-0.112-0.023-0.168-0.036-0.168-0.036
			c-4.237-1.229-7.724-6.126-6.816-10.818c0.028-0.101,0.042-0.151,0.042-0.151c0.031-0.098,0.047-0.147,0.047-0.147
			c0.052-0.142,0.07-0.189,0.07-0.189c0.058-0.136,0.078-0.18,0.078-0.18c0.065-0.131,0.082-0.163,0.082-0.163
			c0.071-0.125,0.089-0.155,0.089-0.155c0.077-0.119,0.096-0.148,0.096-0.148c0.104-0.141,0.125-0.168,0.125-0.168
			c0.112-0.132,0.135-0.158,0.135-0.158c0.12-0.124,0.145-0.148,0.145-0.148c0.128-0.116,0.154-0.138,0.154-0.138
			c0.135-0.108,0.163-0.128,0.163-0.128c0.143-0.1,0.172-0.119,0.172-0.119c0.12-0.075,0.15-0.093,0.15-0.093
			c0.124-0.068,0.093-0.056,0.317-0.167c0.133-0.06,0.201-0.089,0.201-0.089c0.138-0.055,0.209-0.081,0.209-0.081
			c2.176-0.666,4.805-0.626,7.154,0.345c0.135,0.064,0.179,0.086,0.179,0.086c0.13,0.067,0.172,0.091,0.172,0.091
			c0.125,0.071,0.166,0.095,0.166,0.095c0.12,0.075,0.159,0.1,0.159,0.1c0.115,0.078,0.152,0.105,0.152,0.105
			c0.109,0.082,0.144,0.11,0.144,0.11c0.136,0.115,0.169,0.145,0.169,0.145c0.123,0.119,0.151,0.148,0.151,0.148
			c0.106,0.117,0.131,0.147,0.131,0.147c0.097,0.122,0.12,0.154,0.12,0.154c0.088,0.128,0.109,0.16,0.109,0.16
			c0.08,0.133,0.099,0.166,0.099,0.166c0.072,0.138,0.089,0.173,0.089,0.173c0.064,0.143,0.079,0.179,0.079,0.179
			c0.043,0.11,0.057,0.147,0.057,0.147c0.039,0.113,0.051,0.151,0.051,0.151c0.035,0.116,0.046,0.155,0.046,0.155
			c0.458,2.756-0.018,5.97-1.279,8.954c-0.079,0.143-0.106,0.19-0.106,0.19c-0.083,0.137-0.111,0.181-0.111,0.181
			c-0.087,0.13-0.116,0.172-0.116,0.172c-0.091,0.123-0.122,0.163-0.122,0.163c-0.095,0.115-0.127,0.153-0.127,0.153
			c-0.133,0.142-0.167,0.176-0.167,0.176c-0.141,0.128-0.177,0.158-0.177,0.158c-0.129,0.1-0.148,0.113-0.148,0.113
			c-0.135,0.089-0.155,0.101-0.155,0.101C609.526,252.967,609.506,252.977,609.38,253.034z"/>
	</g>
	<g id="POLYLINE_49_">
		
			<path fill="none" stroke="#FB8604" stroke-width="2.75" stroke-linecap="round" stroke-linejoin="round" stroke-miterlimit="10" d="
			M339.307,282.027l4.777-0.034c15.035,0.174,29.867,5.82,45.462,7.368c37.165,5.288,27.34-11.854,58.72-29.593
			c16.777-10.476,25.918-12.23,34.947-30.571c5.442-11.611,25.502-24.696,41.537-23.933"/>
	</g>
</g>
<g id="AG-OUTLINE">
	<g id="POLYLINE_295_">
		
			<path fill="none" stroke="#FB8604" stroke-width="3.5" stroke-linecap="round" stroke-linejoin="round" stroke-miterlimit="10" d="
			M339.307,282.027c1.641-7.95-9.093-67.547-50.891-41.876c-4.136,2.441-9.962,2.741-14.197,0.771
			c-31.819-16.685-103.077,18.815-98.967,60.548l1.462,21.461c1.618,17.677-3.944,36.102-3.732,53.811
			c-0.896,58.086,30.916,62.649,35.41,106.211l2.926,25.801c1.512,10.923,4.185,27.191,4.627,38.135l0.638,15.458
			c0.37,4.138,0.474,9.711,3.65,13.307c0.114,0.11,0.152,0.146,0.152,0.146c0.118,0.106,0.158,0.141,0.158,0.141
			c0.122,0.102,0.163,0.135,0.163,0.135c0.126,0.098,0.169,0.13,0.169,0.13c0.131,0.093,0.175,0.124,0.175,0.124
			c0.135,0.089,0.181,0.118,0.181,0.118c2.29,1.281,4.461,1.175,7.448,1.293c12.463-0.703,31.413,1.701,43.4-1.509
			c0.122-0.067,0.161-0.09,0.161-0.09c0.115-0.069,0.152-0.092,0.152-0.092c0.109-0.071,0.144-0.095,0.144-0.095
			c0.136-0.097,0.169-0.122,0.169-0.122c0.127-0.1,0.157-0.125,0.157-0.125c0.118-0.103,0.146-0.129,0.146-0.129
			c0.136-0.132,0.162-0.159,0.162-0.159c0.125-0.136,0.149-0.164,0.149-0.164c0.115-0.14,0.159-0.197,0.159-0.197
			c0.084-0.115,0.125-0.174,0.125-0.174c0.078-0.118,0.115-0.178,0.115-0.178c0.072-0.121,0.107-0.182,0.107-0.182
			c1.721-3.625,1.186-7.901-0.108-12.067c-0.055-0.124-0.084-0.184-0.084-0.184c-0.058-0.117-0.087-0.173-0.087-0.173
			c-0.06-0.11-0.091-0.164-0.091-0.164c-0.063-0.104-0.096-0.155-0.096-0.155c-0.066-0.099-0.101-0.148-0.101-0.148
			c-0.106-0.141-0.142-0.186-0.142-0.186c-0.113-0.132-0.153-0.175-0.153-0.175c-0.122-0.126-0.164-0.167-0.164-0.167
			c-0.131-0.121-0.176-0.16-0.176-0.16c-3.124-2.256-6.878-3.763-11.034-3.793c-1.275-0.068-3.391,0.028-4.876-0.263
			c-0.143-0.035-0.178-0.044-0.178-0.044c-0.136-0.04-0.169-0.051-0.169-0.051c-0.129-0.046-0.16-0.058-0.16-0.058
			c-0.122-0.052-0.152-0.065-0.152-0.065c-0.116-0.058-0.144-0.073-0.144-0.073c-0.138-0.082-0.164-0.1-0.164-0.1
			c-0.13-0.093-0.156-0.113-0.156-0.113c-0.124-0.105-0.148-0.128-0.148-0.128c-0.141-0.143-0.164-0.169-0.164-0.169
			c-0.113-0.134-0.135-0.162-0.135-0.162c-0.088-0.118-0.109-0.149-0.109-0.149c-0.086-0.128-0.107-0.162-0.107-0.162
			c-8.11-19.287-8.903-43.717,7.682-60.331c14.849-15.06,13.995-11.706,22.598-36.844c4.792-9.26,12.784-12.885,13.626-28.791
			c80.463,45.802,107.407,14.331,109.283,37.684c-1.265,7.582-4.411,13.837-1.285,22.65l2.064,6.79
			c1.182,3.29,0.867,7.314,1.456,11.148c2.334,8.698,9.771,15.439,13.437,24.153c4.301,8.645,0.649,21.519,10.931,28.184
			c3.084,2.955,6.474,6.978,9.32,10.68c3.004,4.173,7.644,6.624,13.302,6.671c12.992-0.071,26.246,1.017,38.916-0.76
			c0.143-0.057,0.214-0.087,0.214-0.087c0.138-0.062,0.206-0.094,0.206-0.094c0.133-0.067,0.199-0.101,0.199-0.101
			c0.128-0.072,0.191-0.109,0.191-0.109c0.123-0.077,0.153-0.097,0.153-0.097c0.118-0.082,0.147-0.103,0.147-0.103
			c0.142-0.109,0.169-0.131,0.169-0.131c0.134-0.116,0.16-0.14,0.16-0.14c0.127-0.124,0.152-0.149,0.152-0.149
			c0.119-0.132,0.142-0.159,0.142-0.159c0.112-0.14,0.133-0.169,0.133-0.169c0.083-0.119,0.104-0.149,0.104-0.149
			c0.078-0.125,0.097-0.157,0.097-0.157c0.072-0.131,0.09-0.164,0.09-0.164c0.067-0.137,0.083-0.172,0.083-0.172
			c0.045-0.104,0.066-0.156,0.066-0.156c0.041-0.108,0.061-0.162,0.061-0.162c0.037-0.111,0.055-0.168,0.055-0.168
			c0.034-0.115,0.05-0.174,0.05-0.174c1.023-6.455-3.315-16.969-11.587-18.162c-3.854-0.773-8.944,0.395-12.766-2.046
			c-4.712-4.054-9.796-9.552-10.929-16.324c0.28-11.872,7.386-23.977,8.536-36.195l3.027-17.792
			c2.255-12.452,5.952-24.157,19.968-30.13c3.466-1.656,6.969-3.633,9.576-7.323c7.087-10.434,6.535-15.484,19.202-23.854
			c0.247-0.258,0.465-0.487,0.763-0.897c0.089-0.128,0.133-0.192,0.133-0.192c1.01-1.517,1.369-3.529,1.645-5.205
			c1.503-13.301,10.96-26.427,18.709-36.136c8.313-9.86,8.604-9.277,10.54-23.116c2.638-6.677,6.802-13.706,5.105-21.899
			c-1.119-15.545,16.716-7.482,4.72-36.381c-9.328-23.859,33.386-12.399,41.615-31.253c2.961-4.355,5.701-9.971,3.848-15.715
			c0.069-0.128,0.103-0.193,0.103-0.193c1.041-2.454,1.623-5.456,1.309-8.547c-0.026-0.122-0.035-0.162-0.035-0.162
			c-0.03-0.119-0.04-0.158-0.04-0.158c-0.034-0.116-0.046-0.155-0.046-0.155c-0.038-0.114-0.051-0.151-0.051-0.151
			c-0.042-0.111-0.057-0.147-0.057-0.147c-0.063-0.144-0.079-0.179-0.079-0.179c-0.071-0.139-0.089-0.173-0.089-0.173
			c-0.078-0.134-0.099-0.166-0.099-0.166c-0.087-0.129-0.109-0.16-0.109-0.16c-0.095-0.123-0.12-0.154-0.12-0.154
			c-0.104-0.118-0.131-0.147-0.131-0.147c-0.118-0.118-0.151-0.148-0.151-0.148c-0.134-0.117-0.169-0.145-0.169-0.145
			c-0.107-0.083-0.144-0.11-0.144-0.11c-0.113-0.079-0.152-0.105-0.152-0.105c-0.119-0.076-0.159-0.1-0.159-0.1
			c-0.124-0.072-0.166-0.095-0.166-0.095c-2.227-1.069-5.068-1.317-7.657-0.463c-0.142,0.06-0.212,0.091-0.212,0.091
			c-3.141-0.489-7.689,0.152-11.14,0.843c-12.623,1.43-22,1.738-26.844-14.789c-1.302-2.286-3.544-3.338-5.844-5.023
			c-3.316-2.858-6.297-5.708-11.058-7.463c-0.905-5.043-2.527-11.909-7.401-15.532c-5.724-3.873-13.041,1.231-15.544,7.21
			c-11.627-0.946-33.947,8.807-41.537,23.933c-7.02,17.548-25.411,24.101-40.504,34.104c-29.779,18.93-13.265,33.219-66.289,23.965
			c-10.396-1.84-21.186-5.302-32.336-5.272L339.307,282.027z"/>
	</g>
</g>
</svg>
