<?xml version="1.0" encoding="utf-8"?>
<!-- Generator: Adobe Illustrator 24.0.1, SVG Export Plug-In . SVG Version: 6.00 Build 0)  -->
<!DOCTYPE svg PUBLIC "-//W3C//DTD SVG 1.1//EN" "http://www.w3.org/Graphics/SVG/1.1/DTD/svg11.dtd" [
	<!ENTITY ns_extend "http://ns.adobe.com/Extensibility/1.0/">
	<!ENTITY ns_ai "http://ns.adobe.com/AdobeIllustrator/10.0/">
	<!ENTITY ns_graphs "http://ns.adobe.com/Graphs/1.0/">
	<!ENTITY ns_vars "http://ns.adobe.com/Variables/1.0/">
	<!ENTITY ns_imrep "http://ns.adobe.com/ImageReplacement/1.0/">
	<!ENTITY ns_sfw "http://ns.adobe.com/SaveForWeb/1.0/">
	<!ENTITY ns_custom "http://ns.adobe.com/GenericCustomNamespace/1.0/">
	<!ENTITY ns_adobe_xpath "http://ns.adobe.com/XPath/1.0/">
]>
<svg version="1.1" xmlns:x="&ns_extend;" xmlns:i="&ns_ai;" xmlns:graph="&ns_graphs;"
	 xmlns="http://www.w3.org/2000/svg" xmlns:xlink="http://www.w3.org/1999/xlink" x="0px" y="0px" viewBox="0 0 750 750"
	 enable-background="new 0 0 750 750" xml:space="preserve">
<metadata>
	<sfw  xmlns="&ns_sfw;">
		<slices></slices>
		<sliceSourceBounds  bottomLeftOrigin="true" height="14825" width="8203.412" x="-3962.412" y="-6975"></sliceSourceBounds>
	</sfw>
</metadata>
<g id="FILL-BACKGROUND">
	<rect fill="#FFFFFF" width="750" height="750"/>
</g>
<g id="N-DIMENSIONS">
</g>
<g id="N-TEXT">
</g>
<g id="AG-DIAGRAM">
	<g id="POLYLINE_2827_">
		<g>
			<g>
				
					<line fill="none" stroke="#FB8604" stroke-width="3.25" stroke-linecap="round" stroke-linejoin="round" x1="140.903" y1="575.206" x2="142.903" y2="575.206"/>
				
					<line fill="none" stroke="#FB8604" stroke-width="3.25" stroke-linecap="round" stroke-linejoin="round" stroke-dasharray="4.0159,7.0277" x1="149.93" y1="575.206" x2="543.986" y2="575.206"/>
				
					<line fill="none" stroke="#FB8604" stroke-width="3.25" stroke-linecap="round" stroke-linejoin="round" x1="547.5" y1="575.206" x2="549.5" y2="575.206"/>
			</g>
		</g>
	</g>
</g>
<g id="AG-DETAIL">
	<g id="POLYLINE_170_">
		<path fill="none" stroke="#FB8604" stroke-width="2" stroke-linecap="round" stroke-linejoin="round" stroke-miterlimit="10" d="
			M171.648,574.135c-1.827-24.308,0.04-50.861,12.923-72.36c11.698-17.254,32.934-25.568,41.332-45.644
			c6.753-14.004,8.022-29.797,17.38-42.664c4.785-6.595,13.072-12.812,19.389-18.543c12.469-12.279,26.828-23.827,46.604-13.355
			c11.698,7.772,8.787,24.454,23.623,34.055c19.074,12.772,44.46,11.601,66.133,5.579c94.337-16.983,39.847,71.941,57.11,114.978
			c2.409,6.522,6.039,16.791,17.053,13.228l3.562-0.946"/>
	</g>
	<g id="POLYLINE_169_">
		<path fill="none" stroke="#FB8604" stroke-width="2" stroke-linecap="round" stroke-linejoin="round" stroke-miterlimit="10" d="
			M186.81,455.424c5.167-60.906,24.949-81.42-5.096-110.905"/>
	</g>
	<g id="POLYLINE_167_">
		<path fill="none" stroke="#FB8604" stroke-width="2" stroke-linecap="round" stroke-linejoin="round" stroke-miterlimit="10" d="
			M488.886,442.858c7.991-59.696,26.381-47.366,27.169-79.128c-1.271-8.756-7.285-16.954-9.949-25.626
			c-1.221-3.582-0.6-8.003,2.98-10.385c12.306-9.138,32.312-9.831,18.794-47.309c-3.87-10.725-14.031-16.638-6.958-29.624
			c5.016-9.036,14.432-19.341,26.277-17.513c8.868,0.654,19.843,13.124,27.879,3.138c3.905-4.966,9.83-8.057,16.16-10.133"/>
	</g>
</g>
<g id="AG-GUIDES">
</g>
<g id="AG-PEOPLE">
</g>
<g id="AG-ANIMALS">
	<g id="POLYLINE_410_">
		
			<path fill="none" stroke="#FB8604" stroke-width="2.75" stroke-linecap="round" stroke-linejoin="round" stroke-miterlimit="10" d="
			M235.472,278.356c-11.684,2.656-36.534,9.615-40.769,24.288c-2.358,14.112,9.869,29.107,28.332,25.514
			c19.218-3.881,53.74-17.603,57.299-38.381c1.206-12.224-12.701-46.855-42.772-45.432c-46.55,0.091-79.533,37.695-44.021,80.246"/>
	</g>
	<g id="POLYLINE_409_">
		
			<path fill="none" stroke="#FB8604" stroke-width="2.75" stroke-linecap="round" stroke-linejoin="round" stroke-miterlimit="10" d="
			M199.928,320.725c-9.299,2.677-15.095,17.685-19.237,26.034c-19.231,42.27-10.033,56.217,1.898,92.396
			c2.727,9.173,5.501,16.116,4.29,25.689c-2.283,15.971-21.33,25.615-20.814,42.877c1.227,52.705-8.759,68.3,15.776,67.544
			c8.39-0.675,19.899,1.638,27.789-2.126c0.089-0.071,0.118-0.096,0.118-0.096c0.113-0.098,0.14-0.123,0.14-0.123
			c0.106-0.102,0.132-0.128,0.132-0.128c0.099-0.105,0.123-0.132,0.123-0.132c0.093-0.109,0.115-0.136,0.115-0.136
			c0.086-0.112,0.107-0.141,0.107-0.141c0.08-0.116,0.099-0.145,0.099-0.145c0.055-0.089,0.073-0.119,0.073-0.119
			c0.051-0.091,0.068-0.122,0.068-0.122c0.047-0.093,0.063-0.125,0.063-0.125c0.044-0.096,0.057-0.128,0.057-0.128
			c0.04-0.098,0.052-0.131,0.052-0.131c0.036-0.1,0.047-0.134,0.047-0.134c0.032-0.102,0.042-0.137,0.042-0.137
			c0.028-0.105,0.037-0.14,0.037-0.14c0.024-0.107,0.031-0.143,0.031-0.143c0.02-0.109,0.026-0.146,0.026-0.146
			c0.016-0.111,0.021-0.149,0.021-0.149c0.011-0.107,0.011-0.079,0.025-0.286c-0.464-9.164-10.335-13.125-18.657-13.801
			c-0.937-0.167-2.715-0.451-3.852-1.111c-0.091-0.054-0.136-0.082-0.136-0.082c-0.087-0.057-0.13-0.085-0.13-0.085
			c-0.083-0.059-0.123-0.089-0.123-0.089c-0.109-0.086-0.139-0.111-0.139-0.111c-0.115-0.103-0.142-0.13-0.142-0.13
			c-0.106-0.109-0.131-0.137-0.131-0.137c-0.097-0.114-0.12-0.143-0.12-0.143c-0.067-0.089-0.089-0.12-0.089-0.12
			c-0.063-0.093-0.083-0.124-0.083-0.124c-0.058-0.096-0.077-0.129-0.077-0.129c-0.054-0.1-0.071-0.133-0.071-0.133
			c-0.049-0.103-0.065-0.138-0.065-0.138c-0.045-0.107-0.06-0.143-0.06-0.143c-0.042-0.11-0.055-0.147-0.055-0.147
			c-0.295-1.015-0.314-1.348-0.382-2.734c-3.492-37.181,18.282-56.961,39.71-81.184c12.595-13.303,21.451-29.74,31.104-45.095
			c9.066-12.962,20.693-24.768,32.844-35.206"/>
	</g>
	<g id="POLYLINE_407_">
		
			<path fill="none" stroke="#FB8604" stroke-width="2.75" stroke-linecap="round" stroke-linejoin="round" stroke-miterlimit="10" d="
			M602.246,229.485c-1.497-0.173-3.206-0.005-4.491,1.046c-0.089,0.074-0.119,0.099-0.119,0.099
			c-0.095,0.085-0.126,0.113-0.126,0.113c-0.092,0.089-0.122,0.119-0.122,0.119c-1,1.044-1.649,2.516-1.617,4.148
			c0.463,4.075,4.103,6.754,7.727,9.016c0.106,0.043,0.141,0.056,0.141,0.056c0.105,0.038,0.139,0.05,0.139,0.05
			c0.104,0.033,0.138,0.043,0.138,0.043c0.103,0.028,0.137,0.037,0.137,0.037c0.102,0.023,0.135,0.029,0.135,0.029
			c0.101,0.017,0.134,0.022,0.134,0.022c0.099,0.012,0.132,0.014,0.132,0.014c0.098,0.006,0.131,0.007,0.131,0.007
			c0.097,0,0.129-0.002,0.129-0.002c0.096-0.007,0.128-0.01,0.128-0.01c0.11-0.016,0.126-0.019,0.126-0.019
			c0.109-0.024,0.124-0.028,0.124-0.028c0.107-0.032,0.122-0.037,0.122-0.037c0.115-0.044,0.132-0.051,0.132-0.051
			c0.113-0.053,0.129-0.062,0.129-0.062c0.096-0.053,0.127-0.072,0.127-0.072c0.094-0.061,0.125-0.082,0.125-0.082
			c0.092-0.068,0.122-0.092,0.122-0.092c0.09-0.075,0.12-0.102,0.12-0.102c0.088-0.082,0.117-0.111,0.117-0.111
			c0.086-0.089,0.115-0.12,0.115-0.12c0.084-0.095,0.112-0.128,0.112-0.128c0.082-0.102,0.109-0.136,0.109-0.136
			c2.018-3.109,2.439-7.716,0.408-11.161c-0.174-0.253-0.297-0.434-0.602-0.758c-0.112-0.114-0.169-0.169-0.169-0.169
			C605.069,230.216,603.75,229.657,602.246,229.485z"/>
	</g>
	<g id="POLYLINE_406_">
		
			<path fill="none" stroke="#FB8604" stroke-width="2.75" stroke-linecap="round" stroke-linejoin="round" stroke-miterlimit="10" d="
			M436.513,404.798c4.353,22.109,0.166,45.026,1.988,67.245c1.103,11.529,2.856,27.287,2.693,38.812l-0.204,14.303
			c0.075,3.953-0.079,8.822,2.239,12.71c2.162,3.131,4.719,5.808,6.349,9.871c12.742,31.39,11.252,27.578,44.516,27.177
			c2.14-0.21,4.567-0.31,6.443-1.839c0.115-0.103,0.153-0.138,0.153-0.138c0.11-0.108,0.146-0.145,0.146-0.145
			c2.881-3.607,2.072-9.696-0.897-13.46c-2.412-3.104-7.741-3.929-11.53-5.123c-6.286-1.691-13.621-4.904-15.292-12.341
			c-5.883-14.342,2.268-60.003,6.608-70.939c2.796-7.2,6.265-17.956,8.341-25.522c4.663-20.252,29.057-27.795,38.723-45.773
			c5.511-9.062,8.413-22.28,10.758-31.023c7.095-30.211,14.763-55.844,13.935-85.188c0.05-1.371-0.036-3.993,1.065-5.449
			c0.085-0.116,0.115-0.154,0.115-0.154c0.091-0.114,0.122-0.151,0.122-0.151c19.265-13.446,39.234-4.636,52.432-33.48"/>
	</g>
	<g id="POLYLINE_405_">
		
			<path fill="none" stroke="#FB8604" stroke-width="2.75" stroke-linecap="round" stroke-linejoin="round" stroke-miterlimit="10" d="
			M489.259,227.333c-1.395-9.342,1.366-17.338,7.843-26.018c6.726-8.381,12.675-17.461,22.339-22.889
			c0.115-0.029,0.153-0.038,0.153-0.038c0.112-0.023,0.148-0.029,0.148-0.029c0.108-0.017,0.144-0.021,0.144-0.021
			c0.105-0.01,0.139-0.012,0.139-0.012c0.101-0.004,0.135-0.004,0.135-0.004c0.098,0.003,0.13,0.005,0.13,0.005
			c0.094,0.01,0.125,0.014,0.125,0.014c0.091,0.017,0.12,0.023,0.12,0.023c0.115,0.033,0.143,0.042,0.143,0.042
			c0.116,0.048,0.137,0.057,0.137,0.057c0.117,0.065,0.135,0.077,0.135,0.077c0.109,0.079,0.127,0.093,0.127,0.093
			c0.102,0.092,0.118,0.109,0.118,0.109c0.095,0.105,0.11,0.124,0.11,0.124c0.074,0.098,0.088,0.118,0.088,0.118
			c0.069,0.107,0.082,0.129,0.082,0.129c0.064,0.116,0.076,0.139,0.076,0.139c0.048,0.099,0.059,0.124,0.059,0.124
			c0.034,0.078,0.056,0.131,0.056,0.131c0.042,0.11,0.062,0.166,0.062,0.166c0.991,2.87-0.233,10.289-0.37,12.04
			c-5.081,25.316,0.021,47.742-13.138,50.473l-2.526,0.584"/>
	</g>
	<g id="POLYLINE_404_">
		
			<path fill="none" stroke="#FB8604" stroke-width="2.75" stroke-linecap="round" stroke-linejoin="round" stroke-miterlimit="10" d="
			M602.246,229.485c-0.108-0.099-0.163-0.148-0.163-0.148c-0.112-0.096-0.169-0.143-0.169-0.143
			c-5.229-3.622-19.637-3.461-25.661-4.422c-25.202-0.484-14.711-24.208-56.152-23.51"/>
	</g>
	<g id="POLYLINE_403_">
		
			<path fill="none" stroke="#FB8604" stroke-width="2.75" stroke-linecap="round" stroke-linejoin="round" stroke-miterlimit="10" d="
			M494.094,205.851c-6.922,2.573-13.932,6.594-18.962,12.871c-11.146,14.431-22.388,32.111-32.297,47.183
			c-3.821,5.313-7.229,11.35-13.557,14.856c-7.976,2.803-17.201,2.298-25.621,4.771c-10.48,2.419-20.148,6.863-31.243,7.936
			c-30.366,2.408-61.799-0.262-92.106-3.481"/>
	</g>
	<g id="POLYLINE_402_">
		
			<path fill="none" stroke="#FB8604" stroke-width="2.75" stroke-linecap="round" stroke-linejoin="round" stroke-miterlimit="10" d="
			M258.774,423.048c14.379-14.1,40-4.095,57.126-0.783c38.852,8.829,82.428,25.165,122.419,23.696"/>
	</g>
</g>
<g id="AG-OUTLINE">
	<g id="POLYLINE_156_">
		
			<path fill="none" stroke="#FB8604" stroke-width="3.5" stroke-linecap="round" stroke-linejoin="round" stroke-miterlimit="10" d="
			M193.54,324.591c-16.338,22.549-29.189,55.824-21.608,81.556c5.573,25.803,20.69,44.634,12.892,65.43
			c-5.158,12.216-19.289,21.33-18.758,36.144c0.515,72.26-10.359,67.725,33.108,67.443c3.731-0.266,7.116,0.049,10.457-2.025
			c0.089-0.071,0.118-0.096,0.118-0.096c0.113-0.098,0.14-0.123,0.14-0.123c0.106-0.102,0.132-0.128,0.132-0.128
			c0.099-0.105,0.123-0.132,0.123-0.132c0.093-0.109,0.115-0.136,0.115-0.136c0.086-0.112,0.107-0.141,0.107-0.141
			c0.08-0.116,0.099-0.145,0.099-0.145c0.055-0.089,0.073-0.119,0.073-0.119c0.051-0.091,0.068-0.122,0.068-0.122
			c0.047-0.093,0.063-0.125,0.063-0.125c0.044-0.096,0.057-0.128,0.057-0.128c0.04-0.098,0.052-0.131,0.052-0.131
			c0.036-0.1,0.047-0.134,0.047-0.134c0.032-0.102,0.042-0.137,0.042-0.137c0.028-0.105,0.037-0.14,0.037-0.14
			c0.024-0.107,0.031-0.143,0.031-0.143c0.02-0.109,0.026-0.146,0.026-0.146c0.016-0.111,0.021-0.149,0.021-0.149
			c0.011-0.107,0.011-0.079,0.025-0.286c-0.464-9.164-10.335-13.125-18.657-13.801c-0.937-0.167-2.715-0.451-3.852-1.111
			c-0.091-0.054-0.136-0.082-0.136-0.082c-0.087-0.057-0.13-0.085-0.13-0.085c-0.083-0.059-0.123-0.089-0.123-0.089
			c-0.109-0.086-0.139-0.111-0.139-0.111c-0.115-0.103-0.142-0.13-0.142-0.13c-0.106-0.109-0.131-0.137-0.131-0.137
			c-0.097-0.114-0.12-0.143-0.12-0.143c-0.067-0.089-0.089-0.12-0.089-0.12c-0.063-0.093-0.083-0.124-0.083-0.124
			c-0.058-0.096-0.077-0.129-0.077-0.129c-0.054-0.1-0.071-0.133-0.071-0.133c-0.049-0.103-0.065-0.138-0.065-0.138
			c-0.045-0.107-0.06-0.143-0.06-0.143c-0.042-0.11-0.055-0.147-0.055-0.147c-0.295-1.015-0.314-1.348-0.382-2.734
			c-3.492-37.181,18.282-56.961,39.71-81.184c13.959-14.763,22.084-31.452,32.369-46.891c14.379-14.1,40-4.095,57.126-0.783
			c38.852,8.829,82.428,25.165,122.419,23.696c-0.413,8.573-0.657,17.315,0.183,26.082c1.103,11.529,2.856,27.287,2.693,38.812
			l-0.204,14.303c0.075,3.953-0.079,8.822,2.239,12.71c2.162,3.131,4.719,5.808,6.349,9.871
			c12.742,31.39,11.252,27.578,44.516,27.177c2.14-0.21,4.567-0.31,6.443-1.839c0.115-0.103,0.153-0.138,0.153-0.138
			c0.11-0.108,0.146-0.145,0.146-0.145c2.881-3.607,2.072-9.696-0.897-13.46c-2.412-3.104-7.741-3.929-11.53-5.123
			c-6.114-1.667-13.408-4.734-15.166-11.968c-6.113-14.182,2.128-60.381,6.482-71.312c4.718-11.168,6.686-22.888,11.622-34.04
			c3.173-6.542,10.055-11.442,16.638-16.897c21.047-16.143,25.122-32.796,30.076-53.444c6.625-28.22,14.333-54.768,13.421-83.126
			c0.05-1.371-0.036-3.993,1.065-5.449c0.085-0.116,0.115-0.154,0.115-0.154c0.091-0.114,0.122-0.151,0.122-0.151
			c19.265-13.446,39.234-4.636,52.432-33.48c0.115-0.044,0.132-0.051,0.132-0.051c0.113-0.053,0.129-0.062,0.129-0.062
			c0.096-0.053,0.127-0.072,0.127-0.072c0.094-0.061,0.125-0.082,0.125-0.082c0.092-0.068,0.122-0.092,0.122-0.092
			c0.09-0.075,0.12-0.102,0.12-0.102c0.088-0.082,0.117-0.111,0.117-0.111c0.086-0.089,0.115-0.12,0.115-0.12
			c0.084-0.095,0.112-0.128,0.112-0.128c0.082-0.102,0.109-0.136,0.109-0.136c2.018-3.109,2.439-7.716,0.408-11.161
			c-0.174-0.253-0.297-0.434-0.602-0.758c-0.112-0.114-0.169-0.169-0.169-0.169c-0.984-0.985-2.403-1.433-3.868-1.711
			c-0.109-0.098-0.165-0.146-0.165-0.146c-3.3-2.554-8.7-2.623-13.107-3.28c-7.807-1.188-18.322-0.527-25.577-4.456
			c-13.925-12.946-16.662-20.66-43.243-20.291c0.561-6.669,2.789-14.697,1.648-21.529c-0.039-0.114-0.06-0.169-0.06-0.169
			c-0.043-0.107-0.065-0.16-0.065-0.16c-0.047-0.101-0.059-0.125-0.059-0.125c-0.05-0.095-0.062-0.118-0.062-0.118
			c-0.066-0.111-0.08-0.133-0.08-0.133c-0.071-0.102-0.086-0.122-0.086-0.122c-0.092-0.111-0.108-0.128-0.108-0.128
			c-0.116-0.113-0.133-0.128-0.133-0.128c-0.107-0.083-0.126-0.095-0.126-0.095c-0.115-0.069-0.134-0.079-0.134-0.079
			c-0.101-0.046-0.129-0.057-0.129-0.057c-0.113-0.037-0.142-0.045-0.142-0.045c-0.089-0.02-0.119-0.026-0.119-0.026
			c-0.092-0.013-0.124-0.016-0.124-0.016c-0.096-0.006-0.129-0.007-0.129-0.007c-0.1,0-0.133,0.001-0.133,0.001
			c-0.103,0.007-0.138,0.01-0.138,0.01c-0.107,0.013-0.143,0.019-0.143,0.019c-0.11,0.02-0.147,0.027-0.147,0.027
			c-0.113,0.026-0.152,0.036-0.152,0.036c-8.813,4.281-20.531,19.935-25.386,27.434c-6.922,2.573-13.932,6.594-18.962,12.871
			c-11.146,14.431-22.388,32.111-32.297,47.183c-3.821,5.313-7.229,11.35-13.557,14.856c-7.976,2.803-17.201,2.298-25.621,4.771
			c-10.48,2.419-20.148,6.863-31.243,7.936c-30.366,2.408-61.799-0.262-92.106-3.481c1.616-12.534-12.033-37.539-26.752-42.751
			C212.269,233.408,149.483,271.333,193.54,324.591z"/>
	</g>
</g>
</svg>
