<?xml version="1.0" encoding="utf-8"?>
<!-- Generator: Adobe Illustrator 24.0.1, SVG Export Plug-In . SVG Version: 6.00 Build 0)  -->
<!DOCTYPE svg PUBLIC "-//W3C//DTD SVG 1.1//EN" "http://www.w3.org/Graphics/SVG/1.1/DTD/svg11.dtd" [
	<!ENTITY ns_extend "http://ns.adobe.com/Extensibility/1.0/">
	<!ENTITY ns_ai "http://ns.adobe.com/AdobeIllustrator/10.0/">
	<!ENTITY ns_graphs "http://ns.adobe.com/Graphs/1.0/">
	<!ENTITY ns_vars "http://ns.adobe.com/Variables/1.0/">
	<!ENTITY ns_imrep "http://ns.adobe.com/ImageReplacement/1.0/">
	<!ENTITY ns_sfw "http://ns.adobe.com/SaveForWeb/1.0/">
	<!ENTITY ns_custom "http://ns.adobe.com/GenericCustomNamespace/1.0/">
	<!ENTITY ns_adobe_xpath "http://ns.adobe.com/XPath/1.0/">
]>
<svg version="1.1" xmlns:x="&ns_extend;" xmlns:i="&ns_ai;" xmlns:graph="&ns_graphs;"
	 xmlns="http://www.w3.org/2000/svg" xmlns:xlink="http://www.w3.org/1999/xlink" x="0px" y="0px" viewBox="0 0 750 750"
	 enable-background="new 0 0 750 750" xml:space="preserve">
<metadata>
	<sfw  xmlns="&ns_sfw;">
		<slices></slices>
		<sliceSourceBounds  bottomLeftOrigin="true" height="14825" width="8203.412" x="-3962.412" y="-6975"></sliceSourceBounds>
	</sfw>
</metadata>
<g id="FILL-BACKGROUND">
	<rect fill="#FFFFFF" width="750" height="750"/>
</g>
<g id="N-DIMENSIONS">
</g>
<g id="N-TEXT">
</g>
<g id="AG-DIAGRAM">
	<g id="POLYLINE_2833_">
		<g>
			<g>
				
					<line fill="none" stroke="#FB8604" stroke-width="3.25" stroke-linecap="round" stroke-linejoin="round" x1="134.079" y1="570.679" x2="136.079" y2="570.679"/>
				
					<line fill="none" stroke="#FB8604" stroke-width="3.25" stroke-linecap="round" stroke-linejoin="round" stroke-dasharray="3.9669,6.942" x1="143.021" y1="570.679" x2="543.177" y2="570.679"/>
				
					<line fill="none" stroke="#FB8604" stroke-width="3.25" stroke-linecap="round" stroke-linejoin="round" x1="546.648" y1="570.679" x2="548.648" y2="570.679"/>
			</g>
		</g>
	</g>
</g>
<g id="AG-DETAIL">
</g>
<g id="AG-GUIDES">
</g>
<g id="AG-PEOPLE">
</g>
<g id="AG-ANIMALS">
	<g id="POLYLINE_58_">
		
			<path fill="none" stroke="#FB8604" stroke-width="2.75" stroke-linecap="round" stroke-linejoin="round" stroke-miterlimit="10" d="
			M515.093,244.595l3.024,3.502c6.911,8.575,24.075,10.431,35.536,9.776c4.433-0.27,13.044-1.661,11.886-9.031
			c-0.091-7.186-15.127-43.778-29.645-37.284"/>
	</g>
	<g id="POLYLINE_57_">
		
			<path fill="none" stroke="#FB8604" stroke-width="2.75" stroke-linecap="round" stroke-linejoin="round" stroke-miterlimit="10" d="
			M617.542,238.365c-4.075-2.45-6.699-8.401-5.267-13.28c0.045-0.108,0.069-0.161,0.069-0.161c0.049-0.105,0.074-0.157,0.074-0.157
			c0.052-0.102,0.079-0.153,0.079-0.153c0.056-0.1,0.085-0.149,0.085-0.149c0.06-0.097,0.091-0.145,0.091-0.145
			c0.064-0.094,0.096-0.141,0.096-0.141c0.068-0.091,0.102-0.136,0.102-0.136c0.071-0.088,0.108-0.132,0.108-0.132
			c0.076-0.085,0.114-0.127,0.114-0.127c0.079-0.082,0.12-0.122,0.12-0.122c0.084-0.079,0.126-0.117,0.126-0.117
			c0.088-0.075,0.133-0.112,0.133-0.112c0.092-0.072,0.139-0.107,0.139-0.107c2.872-1.724,7.048-1.308,10.017,0.607
			c0.108,0.087,0.143,0.116,0.143,0.116c0.102,0.089,0.136,0.119,0.136,0.119c0.097,0.092,0.128,0.123,0.128,0.123
			c0.091,0.094,0.12,0.126,0.12,0.126c0.086,0.097,0.113,0.129,0.113,0.129c0.08,0.099,0.106,0.133,0.106,0.133
			c0.075,0.102,0.099,0.136,0.099,0.136c0.07,0.104,0.093,0.14,0.093,0.14c1.524,3.6,0.882,8.563-1.233,12.244
			c-0.077,0.101-0.116,0.15-0.116,0.15c-0.08,0.097-0.12,0.144-0.12,0.144c-0.082,0.092-0.124,0.137-0.124,0.137
			c-0.075,0.078-0.108,0.111-0.108,0.111c-0.101,0.097-0.135,0.128-0.135,0.128c-0.104,0.091-0.139,0.12-0.139,0.12
			C621.193,239.132,619.231,239.239,617.542,238.365z"/>
	</g>
	<g id="POLYLINE_56_">
		
			<path fill="none" stroke="#FB8604" stroke-width="2.75" stroke-linecap="round" stroke-linejoin="round" stroke-miterlimit="10" d="
			M621.67,238.569c-1.659,14.718-17.655,27.761-33.216,31.013c-5.46,1.42-12.302,0.568-17.413,4.016
			c-0.109,0.096-0.162,0.145-0.162,0.145c-0.104,0.099-0.155,0.149-0.155,0.149c-0.1,0.102-0.148,0.154-0.148,0.154
			c-0.095,0.105-0.142,0.158-0.142,0.158c-2.669,4.017-3.101,10.189-5.743,14.792c-4.095,7.753-0.88,17.983,1.142,26.403
			c1.861,7.463,2.044,15.003,0.155,23.117l-2.055,9.489c-3.088,10.981,2.261,19.183-8.978,27.678
			c-1.256,1.312-2.302,2.92-2.917,4.88c-1.541,4.633-1.702,11.165-6.736,14.229c-4.53,2.942-7.417,6.37-10.755,11.81
			c-1.601,2.263-3.762,6.181-7.439,6.672c-2.703,0.366-6.077-0.311-8.778,1.355c-5.483,3.162-9.804,8.615-16.755,10.376
			c-4.826,1.526-9.308,1.783-13.981,4.382c-7.033,4.199-10.626,13.236-14.4,21c-13.611,28.492-15.585,61.88-6.173,92.388
			c0.05,0.102,0.075,0.152,0.075,0.152c0.052,0.096,0.078,0.143,0.078,0.143c0.054,0.09,0.068,0.112,0.068,0.112
			c0.071,0.106,0.086,0.126,0.086,0.126c0.075,0.098,0.091,0.117,0.091,0.117c0.097,0.108,0.113,0.125,0.113,0.125
			c0.104,0.098,0.122,0.113,0.122,0.113c0.093,0.074,0.112,0.088,0.112,0.088c0.099,0.067,0.12,0.079,0.12,0.079
			c0.106,0.06,0.128,0.071,0.128,0.071c0.09,0.043,0.113,0.053,0.113,0.053c0.095,0.038,0.12,0.047,0.12,0.047
			c0.101,0.033,0.127,0.041,0.127,0.041c0.107,0.029,0.134,0.035,0.134,0.035c0.074,0.017,0.122,0.026,0.122,0.026
			c0.097,0.017,0.147,0.025,0.147,0.025c3.477,0.259,8.015-1.201,11.256,1.435c4.628,3.788,8.045,13.933,4.83,21.079
			c-0.062,0.094-0.054,0.086-0.177,0.259c-0.083,0.109-0.111,0.144-0.111,0.144c-0.086,0.104-0.115,0.137-0.115,0.137
			c-0.089,0.099-0.119,0.131-0.119,0.131c-0.092,0.094-0.124,0.125-0.124,0.125c-0.095,0.089-0.128,0.119-0.128,0.119
			c-0.099,0.085-0.132,0.113-0.132,0.113c-0.102,0.081-0.136,0.107-0.136,0.107c-0.105,0.077-0.141,0.102-0.141,0.102
			c-15.953,5.251-49.289,5.476-53.755-18.698l-0.69-4.767c-0.452-3.095-1.511-6.67-3.466-9.86
			c-8.554-12.144-12.359-22.926-14.149-38.751c-1.724-12.135-3.897-22.765-14.338-31.846c-6.518-5.032-16.612-5.733-24.617-8.913
			c-11.844-4.25-22.291-11.084-34.665-14.388c-19.836-4.977-39.775-12.37-58.664-20.314"/>
	</g>
	<g id="POLYLINE_55_">
		
			<path fill="none" stroke="#FB8604" stroke-width="2.75" stroke-linecap="round" stroke-linejoin="round" stroke-miterlimit="10" d="
			M273.948,375.407c1.346,8.773,2.101,19.31,3.731,27.922c1.182,6.194,3.017,11.303,1.481,17.825
			c-3.75,13.335-14.048,25.465-23.999,35.773c-20.906,24.456-58.578,28.53-62.921,64.523c-2.802,28.617,12.7,15.653,15.675,29.474
			c0.598,4.948,1.359,14.377-5.061,17.033c-7.475,2.862-38.175,6.202-46.36-3.509c-3.931-4.817-7.724-12.132-6.013-19.08
			c3.186-6.783,5.278-14.701,4.566-22.706c-1.068-10.516,8.549-19.058,6.201-30.079c-0.884-6.287-2.593-11.298,1.46-17.394
			c3.314-5.55,5.848-7.554,0.422-13.787c-6.722-5.886-8.852-15.45-9.556-24.389c-8.69-34.604,1.835-34.485,1.908-64.119
			c-13.565-113.956,148.738-76.893,213.439-91.449c28.735-6.182,57.189-20.916,78.68-36.078c9.709-6.886,15.924-16.53,26.702-21.914
			c13.74-5.843,17.731-5.106,28.01-18.919c8.653-10.864,25.365-12.323,38.933-14.625c16.252-2.352,29.451-0.605,37.774,21.658
			c10.045,9.621,27.374-0.27,37.53,10.767"/>
	</g>
	<g id="POLYLINE_54_">
		
			<path fill="none" stroke="#FB8604" stroke-width="2.75" stroke-linecap="round" stroke-linejoin="round" stroke-miterlimit="10" d="
			M155.054,357.259c-15.828,43.063-37.72,92.429-14.203,136.48c2.163,3.62,4.086,7.671,8.159,9.852
			c0.069,0.026,0.137,0.051,0.137,0.051c0.068,0.023,0.135,0.044,0.135,0.044c0.067,0.02,0.134,0.038,0.134,0.038
			c0.066,0.017,0.132,0.031,0.132,0.031c0.066,0.013,0.131,0.025,0.131,0.025c0.065,0.01,0.129,0.018,0.129,0.018
			c0.107,0.01,0.133,0.012,0.133,0.012c0.105,0.004,0.131,0.005,0.131,0.005c0.104-0.001,0.13-0.002,0.13-0.002
			c0.103-0.007,0.128-0.009,0.128-0.009c0.101-0.012,0.126-0.015,0.126-0.015c0.1-0.017,0.125-0.022,0.125-0.022
			c0.099-0.022,0.123-0.028,0.123-0.028c0.098-0.027,0.122-0.034,0.122-0.034c0.096-0.031,0.12-0.04,0.12-0.04
			c0.095-0.036,0.119-0.046,0.119-0.046c0.094-0.041,0.141-0.062,0.141-0.062c0.093-0.046,0.139-0.07,0.139-0.07
			c0.092-0.051,0.138-0.077,0.138-0.077c0.091-0.056,0.136-0.085,0.136-0.085c0.09-0.06,0.134-0.091,0.134-0.091
			c0.089-0.065,0.133-0.098,0.133-0.098c2.985-3.359,5.968-7.471,9.277-11.116"/>
	</g>
	<g id="POLYLINE_53_">
		
			<path fill="none" stroke="#FB8604" stroke-width="2.75" stroke-linecap="round" stroke-linejoin="round" stroke-miterlimit="10" d="
			M192.081,570.209c29.168-0.914,51.383,8.077,43.215-24.781c-0.877-2.833-3.445-4.144-6.433-4.843
			c-7.898-1.56-11.392,0.779-12.901-11.391c-3.082-16.601,10.683-40.074,17.111-54.065"/>
	</g>
</g>
<g id="AG-OUTLINE">
	<g id="POLYLINE_528_">
		
			<path fill="none" stroke="#FB8604" stroke-width="3.5" stroke-linecap="round" stroke-linejoin="round" stroke-miterlimit="10" d="
			M161.164,492.021c2.753,10.624-6.974,19.519-6.118,30.642c0.542,12.743-1.146,11.784-4.981,24.971
			c-0.153,6.958,3.437,15.738,10.297,19.872c8.939,4.38,21.524,3.329,31.72,2.704c29.168-0.914,51.383,8.077,43.215-24.781
			c-0.877-2.833-3.445-4.144-6.433-4.843c-7.898-1.56-11.392,0.779-12.901-11.391c-3.082-16.601,10.683-40.074,17.111-54.065
			c19.267-13.958,38.857-31.081,46.262-54.789c18.835,7.928,38.729,15.298,58.664,20.314c9.18,2.365,19.716,8.036,28.46,11.907
			c29.109,12.438,39.139,1.457,46.437,51.297c1.425,7.907,2.925,14.3,7.147,21.439c3.771,6.61,8.102,11.066,9.19,19.116l0.69,4.767
			c3.103,21.87,34.922,24.802,53.461,18.886c0.07-0.043,0.082-0.048,0.222-0.139c0.107-0.074,0.143-0.099,0.143-0.099
			c0.104-0.078,0.138-0.104,0.138-0.104c0.101-0.082,0.134-0.11,0.134-0.11c0.098-0.086,0.13-0.116,0.13-0.116
			c0.095-0.091,0.126-0.122,0.126-0.122c0.091-0.095,0.121-0.128,0.121-0.128c0.088-0.1,0.117-0.134,0.117-0.134
			c0.094-0.118,0.137-0.166,0.274-0.365c2.813-4.772,1.178-17.446-5.734-21.821c-3.067-1.719-6.559-0.619-10.18-0.786
			c-0.102-0.014-0.152-0.022-0.152-0.022c-0.097-0.017-0.145-0.027-0.145-0.027c-0.102-0.023-0.129-0.03-0.129-0.03
			c-0.105-0.03-0.131-0.038-0.131-0.038c-0.1-0.034-0.124-0.043-0.124-0.043c-0.094-0.039-0.117-0.049-0.117-0.049
			c-0.089-0.043-0.111-0.055-0.111-0.055c-0.105-0.061-0.125-0.074-0.125-0.074c-0.098-0.068-0.117-0.082-0.117-0.082
			c-0.092-0.075-0.11-0.091-0.11-0.091c-0.103-0.099-0.119-0.117-0.119-0.117c-0.08-0.091-0.096-0.11-0.096-0.11
			c-0.075-0.098-0.09-0.119-0.09-0.119c-0.071-0.106-0.085-0.127-0.085-0.127c-0.054-0.09-0.081-0.137-0.081-0.137
			c-0.052-0.096-0.077-0.146-0.077-0.146c-9.48-30.115-7.517-64.155,6.383-93.05c3.878-7.656,6.363-15.214,13.887-20.29
			c2.962-1.752,5.934-2.439,10.149-3.455c9.321-1.014,14.348-8.185,22.681-12.233c2.508-0.846,5.516,0.041,8.281-0.917
			c6.955-4.154,8.932-13.983,16.851-18.139c6.338-3.82,4.504-12.462,8.807-18.14c11.335-8.905,6.909-14.433,9.824-28.647
			l2.055-9.489c1.75-7.257,1.825-15.352-0.155-23.117c-1.849-8.519-5.396-17.493-1.142-26.403
			c2.569-4.403,2.885-10.161,5.697-14.739c0.093-0.107,0.14-0.16,0.14-0.16c0.097-0.104,0.146-0.155,0.146-0.155
			c0.101-0.101,0.153-0.151,0.153-0.151c5.837-4.134,14.072-2.586,21.023-5.055c13.464-4.353,27.599-14.719,29.821-30.169
			c0.086-0.04,0.129-0.061,0.129-0.061c0.085-0.043,0.127-0.066,0.127-0.066c0.083-0.046,0.125-0.07,0.125-0.07
			c0.082-0.049,0.123-0.075,0.123-0.075c0.081-0.053,0.121-0.08,0.121-0.08c0.079-0.056,0.118-0.084,0.118-0.084
			c0.078-0.059,0.116-0.089,0.116-0.089c0.076-0.062,0.114-0.094,0.114-0.094c0.074-0.065,0.111-0.098,0.111-0.098
			c0.108-0.103,0.144-0.139,0.144-0.139c0.077-0.08,0.119-0.125,0.119-0.125c0.082-0.092,0.123-0.14,0.123-0.14
			c0.08-0.097,0.119-0.146,0.119-0.146c2.026-3.254,2.821-8.124,1.437-12.13c-0.062-0.109-0.083-0.145-0.083-0.145
			c-0.066-0.106-0.089-0.141-0.089-0.141c-0.071-0.104-0.096-0.138-0.096-0.138c-0.076-0.101-0.103-0.134-0.103-0.134
			c-0.082-0.099-0.11-0.131-0.11-0.131c-0.087-0.096-0.117-0.128-0.117-0.128c-0.092-0.094-0.124-0.124-0.124-0.124
			c-0.098-0.091-0.132-0.121-0.132-0.121c-1.964-1.538-4.649-1.981-7.293-1.774c-4.424-4.206-9.718-6.21-16.767-5.756
			c-6.894-0.493-14.933,0.444-20.622-4.817c-3.637-8.464-8.12-17.82-18.123-21.121c-10.539-3.786-34.34,1.002-45.903,5.003
			c-12.146,3.216-16.284,17.805-27.937,22.609c-17.348,5.134-24.349,13.773-36.851,24.959
			c-13.787,11.037-30.539,19.361-45.739,26.281c-47.969,23.243-101.893,13.814-153.048,17.951
			c-43.868,4.511-96.885,15.871-96.504,69.813c-15.828,43.063-37.72,92.429-14.203,136.48c2.163,3.62,4.086,7.671,8.159,9.852
			c0.069,0.026,0.137,0.051,0.137,0.051c0.068,0.023,0.135,0.044,0.135,0.044c0.067,0.02,0.134,0.038,0.134,0.038
			c0.066,0.017,0.132,0.031,0.132,0.031c0.066,0.013,0.131,0.025,0.131,0.025c0.065,0.01,0.129,0.018,0.129,0.018
			c0.107,0.01,0.133,0.012,0.133,0.012c0.105,0.004,0.131,0.005,0.131,0.005c0.104-0.001,0.13-0.002,0.13-0.002
			c0.103-0.007,0.128-0.009,0.128-0.009c0.101-0.012,0.126-0.015,0.126-0.015c0.1-0.017,0.125-0.022,0.125-0.022
			c0.099-0.022,0.123-0.028,0.123-0.028c0.098-0.027,0.122-0.034,0.122-0.034c0.096-0.031,0.12-0.04,0.12-0.04
			c0.095-0.036,0.119-0.046,0.119-0.046c0.094-0.041,0.141-0.062,0.141-0.062c0.093-0.046,0.139-0.07,0.139-0.07
			c0.092-0.051,0.138-0.077,0.138-0.077c0.091-0.056,0.136-0.085,0.136-0.085c0.09-0.06,0.134-0.091,0.134-0.091
			c0.089-0.065,0.133-0.098,0.133-0.098C154.871,499.778,157.854,495.665,161.164,492.021z"/>
	</g>
</g>
</svg>
