<?xml version="1.0" encoding="utf-8"?>
<!-- Generator: Adobe Illustrator 24.0.1, SVG Export Plug-In . SVG Version: 6.00 Build 0)  -->
<!DOCTYPE svg PUBLIC "-//W3C//DTD SVG 1.1//EN" "http://www.w3.org/Graphics/SVG/1.1/DTD/svg11.dtd" [
	<!ENTITY ns_extend "http://ns.adobe.com/Extensibility/1.0/">
	<!ENTITY ns_ai "http://ns.adobe.com/AdobeIllustrator/10.0/">
	<!ENTITY ns_graphs "http://ns.adobe.com/Graphs/1.0/">
	<!ENTITY ns_vars "http://ns.adobe.com/Variables/1.0/">
	<!ENTITY ns_imrep "http://ns.adobe.com/ImageReplacement/1.0/">
	<!ENTITY ns_sfw "http://ns.adobe.com/SaveForWeb/1.0/">
	<!ENTITY ns_custom "http://ns.adobe.com/GenericCustomNamespace/1.0/">
	<!ENTITY ns_adobe_xpath "http://ns.adobe.com/XPath/1.0/">
]>
<svg version="1.1" xmlns:x="&ns_extend;" xmlns:i="&ns_ai;" xmlns:graph="&ns_graphs;"
	 xmlns="http://www.w3.org/2000/svg" xmlns:xlink="http://www.w3.org/1999/xlink" x="0px" y="0px" viewBox="0 0 750 750"
	 enable-background="new 0 0 750 750" xml:space="preserve">
<metadata>
	<sfw  xmlns="&ns_sfw;">
		<slices></slices>
		<sliceSourceBounds  bottomLeftOrigin="true" height="15878.78" width="11141.354" x="-4000" y="-7507.207"></sliceSourceBounds>
	</sfw>
</metadata>
<g id="FILL-BACKGROUND">
	<rect fill="#FFFFFF" width="750" height="750"/>
</g>
<g id="N-TEXT">
</g>
<g id="N-DIMENSIONS">
</g>
<g id="AG-DIAGRAM">
	<g id="POLYLINE_2950_">
		<g>
			<g>
				
					<line fill="none" stroke="#FB8604" stroke-width="3.25" stroke-linecap="round" stroke-linejoin="round" x1="119.847" y1="568.508" x2="121.847" y2="568.508"/>
				
					<line fill="none" stroke="#FB8604" stroke-width="3.25" stroke-linecap="round" stroke-linejoin="round" stroke-dasharray="3.9971,6.9949" x1="128.842" y1="568.508" x2="554.035" y2="568.508"/>
				
					<line fill="none" stroke="#FB8604" stroke-width="3.25" stroke-linecap="round" stroke-linejoin="round" x1="557.532" y1="568.508" x2="559.532" y2="568.508"/>
			</g>
		</g>
	</g>
</g>
<g id="AG-DETAILS">
</g>
<g id="AG-DETAIL">
</g>
<g id="AG-PEOPLE">
</g>
<g id="AG-ANIMALS">
	<g id="POLYLINE_975_">
		
			<path fill="none" stroke="#FB8604" stroke-width="2.75" stroke-linecap="round" stroke-linejoin="round" stroke-miterlimit="10" d="
			M481.161,231.168c-62.18,66.351-129.486,52.476-201.132,46.65c-25.454-3.806-49.775,8.292-70.133,23.091
			c-15.741,11.828-19.48,32.357-19.312,51.441c-0.357,40.782,3.99,87.26-24.584,120.187c-4.086,5.603-7.331,11.742-7.618,19.421
			c-1.085,32.96-10.731,56.027-6.632,74.011c0.067,0.108,0.102,0.161,0.102,0.161c0.071,0.104,0.107,0.155,0.107,0.155
			c0.074,0.099,0.112,0.148,0.112,0.148c0.078,0.095,0.118,0.141,0.118,0.141c0.082,0.091,0.123,0.135,0.123,0.135
			c0.085,0.086,0.128,0.128,0.128,0.128c0.089,0.082,0.134,0.122,0.134,0.122c0.092,0.078,0.139,0.116,0.139,0.116
			c0.095,0.074,0.144,0.11,0.144,0.11c0.099,0.07,0.149,0.104,0.149,0.104c0.102,0.066,0.153,0.099,0.153,0.099
			c0.105,0.063,0.158,0.093,0.158,0.093c4.39,1.732,5.714,0.764,11.837,1.024c10.605-0.422,13.897,1.13,22.932-1.484
			c5.403-2.598,8.126-15.539,3.063-21.524c-7.933-5.481-12.346-6.392-10.032-20.432c0.411-17.155,11.476-32.029,20.028-46.512
			c33.542-49.693,61.1-78.512,122.217-59.363c0,0,23.246,6.796,23.246,6.796c37.179,11.736,67.773,6.476,96.731-0.312"/>
	</g>
	<g id="POLYLINE_974_">
		
			<path fill="none" stroke="#FB8604" stroke-width="2.75" stroke-linecap="round" stroke-linejoin="round" stroke-miterlimit="10" d="
			M434.788,372.96c4.547,9.212,7.991,19.658,6.832,30.641c-0.885,8.343-1.882,14.754,2.207,23.142
			c11.018,16.067,12.358,34.33,12.91,51.305c1.448,31.285,2.487,41.082,9.864,65.703c0,0,1.83,9.926,1.83,9.926
			c1.796,12.808,9.392,15.03,21.775,14.822c9.184-0.679,19.275,1.674,24.248-1.54c4.301-4.37,3.382-16.964-0.913-23.872
			c-2.597-3.162-7.582-2.924-11.553-3.442c-14.68-0.062-12.697-25.386-11.73-35.71c0.697-11.098,2.552-38.348,3.115-46.476
			c2.813-25.659-1.021-30.959,23.036-42.151c8.089-4.089,10.998-4.116,16.334-9.104c7.457-10.828,16.874-38.515,17.573-50.158
			c-0.73-20.074,5.569-40.405,7.328-60.215"/>
	</g>
	<g id="POLYLINE_973_">
		
			<path fill="none" stroke="#FB8604" stroke-width="2.75" stroke-linecap="round" stroke-linejoin="round" stroke-miterlimit="10" d="
			M519.382,278.959c4.299,7.651,19.97,27.198,33.794,19.121c5.792-3.291,11.548-5.543,18.932-4.462c0,0,6.365,0.71,6.365,0.71
			c8.952,2.074,13.878-9.66,14.421-18.397"/>
	</g>
	<g id="POLYLINE_972_">
		
			<path fill="none" stroke="#FB8604" stroke-width="2.75" stroke-linecap="round" stroke-linejoin="round" stroke-miterlimit="10" d="
			M533.792,186.346c-25.234,16.814-6.034,27.656-9.498,58.539c-0.935,5.359-0.687,13.478-5.833,17.424
			c-0.106,0.056-0.142,0.074-0.142,0.074c-6.119,2.073-15.787-5.101-20.994-14.607c-2.416-4.894-4.338-8.99-9.88-12.206
			c-3.512-2.446-7.776-4.23-9.234-8.82c-1.882-7.526,6.945-20.561,10.612-27.215c5.525-11.507,18.769-15.931,30.906-18.318
			c4.083-0.96,10.986-3.665,15.081-5.206c12.778-4.662,28.429-5.53,40.185,3.475l5.2,3.723
			c11.053,6.957,17.492,13.379,17.438,30.159"/>
	</g>
	<g id="POLYLINE_971_">
		
			<path fill="none" stroke="#FB8604" stroke-width="2.75" stroke-linecap="round" stroke-linejoin="round" stroke-miterlimit="10" d="
			M597.544,270.436c0.682-0.345,2.286-0.924,3.116-1.691c0.092-0.082,0.122-0.11,0.122-0.11c0.089-0.086,0.119-0.116,0.119-0.116
			c0.087-0.09,0.116-0.121,0.116-0.121c0.085-0.095,0.112-0.127,0.112-0.127c0.082-0.1,0.109-0.134,0.109-0.134
			c2.807-4.206,0.8-13.726,0.449-19.096c-0.732-7.123,1.475-14.394-0.201-22.437"/>
	</g>
	<g id="POLYLINE_970_">
		
			<path fill="none" stroke="#FB8604" stroke-width="2.75" stroke-linecap="round" stroke-linejoin="round" stroke-miterlimit="10" d="
			M541.796,266.714c6.457,11.099,22.137,14.805,34.197,7.416c4.45-3.442,6.738-11.804,9.068-17.012
			c1.535-3.386,3.15-7.876,6.509-10.52c0.097-0.064,0.146-0.095,0.146-0.095c0.097-0.059,0.145-0.087,0.145-0.087
			c0.096-0.053,0.144-0.078,0.144-0.078c0.096-0.047,0.143-0.07,0.143-0.07c0.095-0.042,0.142-0.061,0.142-0.061
			c0.094-0.036,0.118-0.044,0.118-0.044c0.094-0.031,0.117-0.038,0.117-0.038c0.093-0.025,0.116-0.031,0.116-0.031
			c0.093-0.02,0.116-0.025,0.116-0.025c0.092-0.015,0.115-0.018,0.115-0.018c0.091-0.009,0.114-0.011,0.114-0.011
			c0.09-0.004,0.113-0.004,0.113-0.004c0.09,0.002,0.112,0.003,0.112,0.003c0.089,0.007,0.111,0.01,0.111,0.01
			c0.088,0.013,0.11,0.017,0.11,0.017c0.087,0.019,0.109,0.024,0.109,0.024c0.108,0.031,0.129,0.039,0.129,0.039
			c0.106,0.04,0.128,0.049,0.128,0.049c0.105,0.049,0.126,0.06,0.126,0.06c0.103,0.059,0.124,0.071,0.124,0.071
			c0.102,0.068,0.136,0.093,0.136,0.093c0.102,0.081,0.136,0.109,0.136,0.109c0.101,0.092,0.134,0.124,0.134,0.124
			c0.099,0.102,0.131,0.138,0.131,0.138c0.065,0.074,0.097,0.112,0.097,0.112c0.064,0.079,0.095,0.12,0.095,0.12
			c2.526,3.835,5.015,19.193,1.574,26.893c-0.072,0.107-0.109,0.159-0.109,0.159c-0.075,0.103-0.114,0.153-0.114,0.153
			c-0.078,0.098-0.118,0.147-0.118,0.147c-0.082,0.094-0.123,0.14-0.123,0.14c-0.085,0.09-0.128,0.134-0.128,0.134
			c-0.088,0.086-0.133,0.128-0.133,0.128c-0.091,0.081-0.138,0.121-0.138,0.121c-0.095,0.077-0.143,0.115-0.143,0.115
			c-0.098,0.073-0.148,0.109-0.148,0.109c-0.102,0.069-0.154,0.102-0.154,0.102c-5.195,2.197-11.455-0.639-16.253-4.167"/>
	</g>
	<g id="POLYLINE_969_">
		
			<path fill="none" stroke="#FB8604" stroke-width="2.75" stroke-linecap="round" stroke-linejoin="round" stroke-miterlimit="10" d="
			M589.25,228.686c-2.484-0.345-6.196-0.565-8.244-2.785c-0.088-0.097-0.132-0.147-0.132-0.147
			c-0.086-0.101-0.128-0.153-0.128-0.153c-10.735-19.605,27.364-19.339,20.823,0.842c-0.053,0.103-0.08,0.154-0.08,0.154
			c-0.057,0.101-0.086,0.15-0.086,0.15c-0.06,0.098-0.091,0.146-0.091,0.146c-0.064,0.095-0.096,0.142-0.096,0.142
			c-0.067,0.092-0.102,0.137-0.102,0.137c-0.071,0.089-0.107,0.133-0.107,0.133c-0.075,0.086-0.113,0.128-0.113,0.128
			c-0.079,0.082-0.119,0.123-0.119,0.123c-0.082,0.079-0.125,0.118-0.125,0.118c-0.096,0.083-0.123,0.106-0.123,0.106
			c-0.082,0.066-0.11,0.087-0.11,0.087C597.22,229.873,593.461,229.041,589.25,228.686z"/>
	</g>
</g>
<g id="AG-OUTLINE">
	<g id="POLYLINE_939_">
		
			<path fill="none" stroke="#FB8604" stroke-width="3.5" stroke-linecap="round" stroke-linejoin="round" stroke-miterlimit="10" d="
			M443.339,425.676c-40.832,9.838-66.051,9.495-96.731,0.312c0,0-23.246-6.796-23.246-6.796
			c-61.693-20.586-91.844,13.883-122.217,59.363c-11.199,19.332-18.702,26.786-20.288,48.761c-1.19,9.331,0.308,12.15,10.227,18.113
			c4.148,4.39,3.97,17.677-3.217,21.695c-4.683,1.897-30.074,2.167-34.441,0.418c-0.108-0.059-0.161-0.09-0.161-0.09
			c-0.105-0.063-0.156-0.095-0.156-0.095c-0.102-0.066-0.152-0.101-0.152-0.101c-0.099-0.07-0.147-0.106-0.147-0.106
			c-0.095-0.074-0.142-0.112-0.142-0.112c-0.092-0.078-0.137-0.118-0.137-0.118c-0.089-0.082-0.132-0.124-0.132-0.124
			c-0.085-0.086-0.127-0.13-0.127-0.13c-0.082-0.091-0.121-0.137-0.121-0.137c-0.078-0.095-0.116-0.144-0.116-0.144
			c-0.074-0.099-0.111-0.15-0.111-0.15c-0.071-0.104-0.105-0.157-0.105-0.157c-4.528-8.392,7.09-62.254,6.117-66.078
			c0.396-10.512,0.592-17.614,8.066-27.462c28.414-32.355,24.301-79.9,24.584-120.187c0.116-17.629,2.352-36.446,16.945-49.409
			c19.986-15.823,46.024-28.974,72.5-25.123c84.897,8.671,144.964,13.64,201.132-46.65c-9.839-6.572,6.812-31.299,13.059-38.879
			c5.855-6.816,16.774-8.853,25.51-11.072c4.083-0.96,10.986-3.665,15.081-5.206c12.778-4.662,28.429-5.53,40.185,3.475l5.2,3.723
			c11.053,6.957,17.492,13.379,17.438,30.159c4.248,2.222,5.476,8.135,4.094,12.724c-0.068,0.159-0.118,0.28-0.242,0.511
			c1.59,6.986-0.449,14.708,0.201,22.437c0.362,5.882,2.098,12.153,0.034,18.323c-0.095,0.186-0.183,0.353-0.353,0.597
			c-0.078,0.107-0.104,0.142-0.104,0.142c-0.081,0.102-0.108,0.135-0.108,0.135c-0.083,0.097-0.111,0.129-0.111,0.129
			c-0.086,0.093-0.115,0.123-0.115,0.123c-0.088,0.088-0.118,0.117-0.118,0.117c-0.091,0.084-0.121,0.112-0.121,0.112
			c-0.999,0.834-1.627,1-3.147,1.718c-0.233,1.319-0.633,2.952-1.641,4.047c-0.101,0.108-0.136,0.143-0.136,0.143
			c-0.106,0.103-0.142,0.136-0.142,0.136c-0.073,0.065-0.11,0.097-0.11,0.097c-0.075,0.063-0.113,0.093-0.113,0.093
			c-0.077,0.06-0.117,0.089-0.117,0.089c-0.08,0.057-0.12,0.085-0.12,0.085c-0.082,0.055-0.123,0.081-0.123,0.081
			c-0.084,0.052-0.127,0.077-0.127,0.077c-0.615,0.344-1.199,0.537-2.021,0.646c-0.29,6.127-2.85,13.557-8.316,17.805
			c-2.075,0.939-3.448,0.799-6.105,0.592l-6.365-0.71c-4.728-0.517-9.77-0.288-14.464,2.212c-3.284,27.26-7.607,40.443-7.783,65.243
			c-1.772,9.671-5.749,19.028-9.314,29.276c-2.278,5.534-3.801,11.685-8.673,16.729c-33.773,19.777-35.971,10.344-38.595,51.676
			c-0.409,6.081-2.771,41.266-3.128,46.583c-0.014,5.454-4.574,33.192,11.836,34.307c3.994,0.546,9.579,0.15,12.156,4.274
			c2.819,5.161,7.309,25.637-5.387,24.581c-14.463-1.435-37.975,6.224-40.326-14.823l-1.83-9.926
			c-17.054-51.261-1.703-83.326-21.134-113.832C444.83,428.741,444.106,427.423,443.339,425.676z"/>
	</g>
</g>
</svg>
