<?xml version="1.0" encoding="utf-8"?>
<!-- Generator: Adobe Illustrator 24.0.1, SVG Export Plug-In . SVG Version: 6.00 Build 0)  -->
<!DOCTYPE svg PUBLIC "-//W3C//DTD SVG 1.1//EN" "http://www.w3.org/Graphics/SVG/1.1/DTD/svg11.dtd" [
	<!ENTITY ns_extend "http://ns.adobe.com/Extensibility/1.0/">
	<!ENTITY ns_ai "http://ns.adobe.com/AdobeIllustrator/10.0/">
	<!ENTITY ns_graphs "http://ns.adobe.com/Graphs/1.0/">
	<!ENTITY ns_vars "http://ns.adobe.com/Variables/1.0/">
	<!ENTITY ns_imrep "http://ns.adobe.com/ImageReplacement/1.0/">
	<!ENTITY ns_sfw "http://ns.adobe.com/SaveForWeb/1.0/">
	<!ENTITY ns_custom "http://ns.adobe.com/GenericCustomNamespace/1.0/">
	<!ENTITY ns_adobe_xpath "http://ns.adobe.com/XPath/1.0/">
]>
<svg version="1.1" xmlns:x="&ns_extend;" xmlns:i="&ns_ai;" xmlns:graph="&ns_graphs;"
	 xmlns="http://www.w3.org/2000/svg" xmlns:xlink="http://www.w3.org/1999/xlink" x="0px" y="0px" viewBox="0 0 750 750"
	 enable-background="new 0 0 750 750" xml:space="preserve">
<metadata>
	<sfw  xmlns="&ns_sfw;">
		<slices></slices>
		<sliceSourceBounds  bottomLeftOrigin="true" height="15878.78" width="11141.354" x="-4000" y="-7507.207"></sliceSourceBounds>
	</sfw>
</metadata>
<g id="FILL-BACKGROUND">
	<rect fill="#FFFFFF" width="750" height="750"/>
</g>
<g id="N-TEXT">
</g>
<g id="N-DIMENSIONS">
</g>
<g id="AG-DIAGRAM">
	<g id="POLYLINE_2957_">
		<g>
			<g>
				
					<line fill="none" stroke="#FB8604" stroke-width="3.25" stroke-linecap="round" stroke-linejoin="round" x1="148.78" y1="563.797" x2="150.78" y2="563.797"/>
				
					<line fill="none" stroke="#FB8604" stroke-width="3.25" stroke-linecap="round" stroke-linejoin="round" stroke-dasharray="4.0605,7.1058" x1="157.885" y1="563.797" x2="500.489" y2="563.797"/>
				
					<line fill="none" stroke="#FB8604" stroke-width="3.25" stroke-linecap="round" stroke-linejoin="round" x1="504.042" y1="563.797" x2="506.042" y2="563.797"/>
			</g>
		</g>
	</g>
</g>
<g id="AG-DETAILS">
	<g id="POLYLINE_1518_">
		<path fill="none" stroke="#FB8604" stroke-width="2" stroke-linecap="round" stroke-linejoin="round" stroke-miterlimit="10" d="
			M552.964,264.623c-2.206-11.737-34.062-8.342-43.643-1.54c-6.486,4.624-4.775,15.722-5.005,23.65
			c0.764,7.221,13.532,10.222,19.007,13.892c4.591,2.446,8.824,6.577,14.537,7.378c8.962,0.364,13.108-7.576,12.681-16.592
			c0,0-0.044-8.015-0.044-8.015C550.015,277.397,553.389,271.055,552.964,264.623z"/>
	</g>
</g>
<g id="AG-DETAIL">
</g>
<g id="AG-PEOPLE">
</g>
<g id="AG-ANIMALS">
	<g id="POLYLINE_1555_">
		
			<path fill="none" stroke="#FB8604" stroke-width="2.75" stroke-linecap="round" stroke-linejoin="round" stroke-miterlimit="10" d="
			M254.637,431.277c75.434,46.522,104.428,28.935,170.608,29.023"/>
	</g>
	<g id="POLYLINE_1554_">
		
			<path fill="none" stroke="#FB8604" stroke-width="2.75" stroke-linecap="round" stroke-linejoin="round" stroke-miterlimit="10" d="
			M295.689,430.881c-11.555-3.153-24.328-7.95-36.459-2.67c-11.79,7.228-21.279,19.701-27.842,32.238
			c-10.585,21.223-24.397,42.157-24.471,66.955c-0.465,6.511,3.235,12.023,9.319,15.419c3.167,3.057,11.388,10.438,10.622,16.597
			c-0.029,0.114-0.039,0.152-0.039,0.152c-0.032,0.112-0.044,0.149-0.044,0.149c-0.036,0.11-0.049,0.147-0.049,0.147
			c-0.04,0.108-0.053,0.144-0.053,0.144c-0.043,0.106-0.058,0.141-0.058,0.141c-0.047,0.104-0.063,0.139-0.063,0.139
			c-0.05,0.102-0.068,0.136-0.068,0.136c-0.054,0.1-0.073,0.133-0.073,0.133c-0.058,0.098-0.077,0.131-0.077,0.131
			c-0.082,0.128-0.104,0.16-0.104,0.16c-0.089,0.125-0.112,0.156-0.112,0.156c-0.095,0.122-0.12,0.152-0.12,0.152
			c-0.102,0.118-0.128,0.147-0.128,0.147c-0.108,0.115-0.136,0.143-0.136,0.143c-0.115,0.111-0.145,0.139-0.145,0.139
			c-2.791,2.253-6.595,1.981-10.536,2.183c-6.916-0.285-14.241,0.879-21.149-1.216c-0.127-0.063-0.168-0.084-0.168-0.084
			c-0.12-0.065-0.159-0.088-0.159-0.088c-0.114-0.068-0.151-0.091-0.151-0.091c-0.108-0.07-0.143-0.094-0.143-0.094
			c-0.102-0.073-0.135-0.098-0.135-0.098c-0.128-0.101-0.159-0.127-0.159-0.127c-0.119-0.105-0.148-0.132-0.148-0.132
			c-0.112-0.109-0.139-0.137-0.139-0.137c-0.105-0.114-0.13-0.143-0.13-0.143c-0.098-0.118-0.122-0.148-0.122-0.148
			c-0.092-0.122-0.114-0.153-0.114-0.153c-1.786-3.177-2.139-6.67-4.844-9.859c-6.192-6.035-4.488-15.463-1.473-23.246
			c6.174-19.371-6.391-37.934,10.841-55.863c4.415-6.246,4.552-15.147,4.585-23.463c-1.266-12.91-1.895-17.823,0.804-32.164
			c0.374-19.867-18.148-29.53,5.484-61.459l6.536-8.423c0.242-0.332,0.944-1.245,1.399-2.06c0.067-0.126,0.097-0.185,0.097-0.185
			c0.054-0.113,0.066-0.14,0.066-0.14c0.054-0.128,0.063-0.153,0.063-0.153c0.04-0.115,0.046-0.137,0.046-0.137
			c0.031-0.123,0.034-0.142,0.034-0.142c0.015-0.126,0.015-0.134,0.015-0.134c-0.006-0.125-0.007-0.132-0.007-0.132
			c-0.035-0.128-0.038-0.134-0.038-0.134c-0.064-0.118-0.071-0.129-0.071-0.129c-0.096-0.119-0.106-0.129-0.106-0.129
			c-0.12-0.114-0.132-0.125-0.132-0.125c-0.121-0.091-0.135-0.101-0.135-0.101c-0.112-0.07-0.129-0.079-0.129-0.079
			c-0.091-0.049-0.13-0.068-0.13-0.068c-0.126-0.058-0.171-0.077-0.171-0.077c-0.095-0.038-0.146-0.057-0.146-0.057
			c-25.903-4.069-58.446-2.2-83.652-9.734c-11.454-6.08-25.108-12.218-33.788-22.543c-0.045-0.093-0.066-0.139-0.066-0.139
			c-0.04-0.092-0.058-0.138-0.058-0.138c-0.035-0.091-0.051-0.136-0.051-0.136c-0.03-0.09-0.044-0.134-0.044-0.134
			c-0.026-0.089-0.037-0.133-0.037-0.133c-0.026-0.11-0.03-0.132-0.03-0.132c-0.019-0.108-0.023-0.13-0.023-0.13
			c-0.015-0.128-0.016-0.15-0.016-0.15c-0.004-0.126-0.004-0.147-0.004-0.147c0.006-0.124,0.008-0.144,0.008-0.144
			c0.017-0.121,0.021-0.141,0.021-0.141c0.029-0.118,0.035-0.138,0.035-0.138c0.042-0.115,0.05-0.134,0.05-0.134
			c0.055-0.112,0.065-0.13,0.065-0.13c0.081-0.126,0.094-0.144,0.094-0.144c0.101-0.121,0.117-0.138,0.117-0.138
			c0.121-0.116,0.14-0.132,0.14-0.132c0.121-0.095,0.142-0.11,0.142-0.11c0.113-0.076,0.137-0.09,0.137-0.09
			c0.126-0.072,0.152-0.086,0.152-0.086c0.11-0.055,0.138-0.069,0.138-0.069c0.088-0.04,0.149-0.066,0.149-0.066
			c5.352-1.508,10.031,0.615,15.922,2.956c29.392,15.097,57.237,14.962,89.092,16.67c30.764,2.929,44.637-1.065,70.627-0.361
			c34.07,0.633,64.326,16.055,97.825,13.272c27.563-5.116,50.694-16.029,70.636-33.117c22.313-17.62,28.275-19.32,42.238-36.792"/>
	</g>
	<g id="POLYLINE_1547_">
		
			<path fill="none" stroke="#FB8604" stroke-width="2.75" stroke-linecap="round" stroke-linejoin="round" stroke-miterlimit="10" d="
			M597.828,283.684c-8.093-8.631-19.952-15.587-31.879-19.205c-6.781-1.989-11.538-8.13-18.128-11.326
			c-11.373-5.799-37.365,2.283-47.347-2.268c-0.126-0.083-0.187-0.126-0.187-0.126c-0.12-0.087-0.179-0.131-0.179-0.131
			c-0.115-0.09-0.171-0.136-0.171-0.136c-0.11-0.094-0.164-0.142-0.164-0.142c-0.105-0.098-0.157-0.149-0.157-0.149
			c-0.101-0.103-0.151-0.155-0.151-0.155c-0.097-0.108-0.145-0.163-0.145-0.163c-0.094-0.113-0.14-0.171-0.14-0.171
			c-0.091-0.118-0.135-0.179-0.135-0.179c-3.925-6.272-3.6-15.753-8.745-21.714c-0.113-0.1-0.169-0.148-0.169-0.148
			c-0.113-0.093-0.17-0.137-0.17-0.137c-0.113-0.086-0.17-0.127-0.17-0.127c-0.113-0.079-0.17-0.117-0.17-0.117
			c-0.113-0.072-0.169-0.107-0.169-0.107c-0.113-0.066-0.169-0.097-0.169-0.097c-0.112-0.059-0.168-0.087-0.168-0.087
			c-0.111-0.053-0.167-0.077-0.167-0.077c-0.11-0.046-0.165-0.068-0.165-0.068c-0.109-0.04-0.164-0.058-0.164-0.058
			c-0.108-0.033-0.162-0.049-0.162-0.049c-0.107-0.027-0.134-0.033-0.134-0.033c-0.106-0.022-0.132-0.027-0.132-0.027
			c-0.105-0.017-0.131-0.02-0.131-0.02c-0.104-0.011-0.13-0.013-0.13-0.013c-0.104-0.006-0.13-0.007-0.13-0.007
			c-0.103,0-0.129,0-0.129,0c-0.128,0.007-0.154,0.01-0.154,0.01c-0.127,0.016-0.153,0.02-0.153,0.02
			c-0.127,0.024-0.152,0.03-0.152,0.03c-0.127,0.033-0.152,0.04-0.152,0.04c-0.126,0.042-0.152,0.051-0.152,0.051
			c-0.126,0.05-0.152,0.061-0.152,0.061c-0.126,0.059-0.152,0.072-0.152,0.072c-0.127,0.068-0.152,0.083-0.152,0.083
			c-0.102,0.061-0.152,0.094-0.152,0.094c-0.102,0.069-0.153,0.105-0.153,0.105c-0.103,0.076-0.154,0.116-0.154,0.116
			c-0.103,0.084-0.155,0.127-0.155,0.127c-0.104,0.091-0.156,0.139-0.156,0.139c-7.243,7.735-2.425,21.785-1.195,32.054
			c0.167,11.534,0.097,32.991,16.93,32.173"/>
	</g>
	<g id="POLYLINE_1546_">
		
			<path fill="none" stroke="#FB8604" stroke-width="2.75" stroke-linecap="round" stroke-linejoin="round" stroke-miterlimit="10" d="
			M416.633,411.589c0.243,11.138,4.836,21.495,8.084,32.464c0.602,23.626,3.671,54.268-4.073,77.111
			c-0.347,1.149-1.822,5.212-2.077,6.496c-0.026,0.147-0.044,0.227-0.07,0.475c-0.009,0.1-0.012,0.15-0.012,0.15
			c-0.005,0.098-0.006,0.147-0.006,0.147c0,0.096,0,0.143,0,0.143c0.004,0.094,0.007,0.141,0.007,0.141
			c0.008,0.092,0.013,0.138,0.013,0.138c0.012,0.091,0.019,0.136,0.019,0.136c0.016,0.09,0.026,0.134,0.026,0.134
			c0.021,0.089,0.032,0.132,0.032,0.132c0.025,0.088,0.039,0.131,0.039,0.131c0.03,0.087,0.046,0.13,0.046,0.13
			c0.034,0.087,0.053,0.13,0.053,0.13c0.039,0.086,0.06,0.129,0.06,0.129c0.044,0.086,0.067,0.13,0.067,0.13
			c0.049,0.087,0.074,0.13,0.074,0.13c0.054,0.087,0.082,0.131,0.082,0.131c1.24,1.835,3.686,3.171,4.799,5.458
			c0.054,0.119,0.08,0.18,0.08,0.18c1.88,7.704-0.631,17.788,4.519,25.097c2.604,4.289,28.016,3.577,32.883,1.26
			c0.126-0.076,0.167-0.102,0.167-0.102c0.119-0.079,0.158-0.106,0.158-0.106c0.113-0.082,0.15-0.11,0.15-0.11
			c0.107-0.085,0.141-0.114,0.141-0.114c0.101-0.088,0.133-0.118,0.133-0.118c0.126-0.122,0.156-0.153,0.156-0.153
			c0.116-0.127,0.144-0.16,0.144-0.16c0.081-0.099,0.107-0.133,0.107-0.133c0.075-0.102,0.1-0.137,0.1-0.137
			c0.07-0.106,0.093-0.141,0.093-0.141c0.065-0.109,0.086-0.146,0.086-0.146c0.06-0.112,0.079-0.151,0.079-0.151
			c0.055-0.116,0.073-0.155,0.073-0.155c0.05-0.119,0.066-0.16,0.066-0.16c0.046-0.123,0.06-0.164,0.06-0.164
			c1.912-10.545-5.772-12.546-15.066-15.195c-0.089-0.046-0.132-0.07-0.132-0.07c-0.125-0.074-0.166-0.099-0.166-0.099
			c-0.118-0.079-0.156-0.107-0.156-0.107c-0.112-0.086-0.148-0.116-0.148-0.116c-0.107-0.094-0.142-0.126-0.142-0.126
			c-0.103-0.102-0.137-0.138-0.137-0.138c-0.1-0.113-0.133-0.152-0.133-0.152c-4.897-6.849-2.527-16.526-1.496-24.503
			c4.717-22.726,8.424-45.96,15.911-67.385c18.105-19.438,31.995-23.151,36.015-52.037l2.113-13.265
			c1.053-6.464,2.796-13.338,5.609-19.537c36.565-81.739,70.274-27.746,90.875-64.727"/>
	</g>
	<g id="POLYLINE_1543_">
		
			<path fill="none" stroke="#FB8604" stroke-width="2.75" stroke-linecap="round" stroke-linejoin="round" stroke-miterlimit="10" d="
			M595.936,302.655c-0.121,0.012-0.133,0.012-0.133,0.012c-0.119,0-0.131-0.001-0.131-0.001c-0.128-0.014-0.14-0.016-0.14-0.016
			c-0.115-0.025-0.138-0.031-0.138-0.031c-0.113-0.037-0.135-0.045-0.135-0.045c-0.111-0.049-0.133-0.059-0.133-0.059
			c-0.109-0.06-0.13-0.073-0.13-0.073c-0.128-0.086-0.149-0.102-0.149-0.102c-0.126-0.101-0.146-0.119-0.146-0.119
			c-0.123-0.116-0.143-0.136-0.143-0.136c-0.081-0.085-0.121-0.129-0.121-0.129c-0.079-0.093-0.118-0.141-0.118-0.141
			c-0.078-0.1-0.117-0.152-0.117-0.152c-0.077-0.107-0.115-0.162-0.115-0.162c-2.232-4.216-3.497-9.726-2.927-15.024
			c0.033-0.124,0.045-0.165,0.045-0.165c0.037-0.121,0.05-0.161,0.05-0.161c0.041-0.118,0.055-0.157,0.055-0.157
			c0.045-0.115,0.061-0.153,0.061-0.153c0.049-0.112,0.067-0.148,0.067-0.148c0.054-0.108,0.072-0.144,0.072-0.144
			c0.058-0.105,0.079-0.139,0.079-0.139c0.063-0.102,0.085-0.135,0.085-0.135c0.068-0.098,0.091-0.13,0.091-0.13
			c0.098-0.126,0.124-0.156,0.124-0.156c0.107-0.12,0.135-0.149,0.135-0.149c0.116-0.114,0.146-0.141,0.146-0.141
			c0.125-0.107,0.157-0.134,0.157-0.134c0.1-0.076,0.134-0.101,0.134-0.101c0.106-0.073,0.142-0.096,0.142-0.096
			c0.088-0.055,0.133-0.081,0.133-0.081c0.092-0.052,0.139-0.077,0.139-0.077c0.096-0.049,0.145-0.073,0.145-0.073
			c2.166-0.92,4.979-0.848,7.22,0.433c0.091,0.06,0.101,0.062,0.276,0.186c0.127,0.095,0.168,0.128,0.168,0.128
			c0.121,0.1,0.16,0.134,0.16,0.134c0.115,0.104,0.153,0.14,0.153,0.14c0.11,0.108,0.145,0.145,0.145,0.145
			c0.104,0.112,0.138,0.151,0.138,0.151c0.099,0.116,0.131,0.156,0.131,0.156c0.094,0.12,0.124,0.161,0.124,0.161
			c0.088,0.124,0.117,0.165,0.117,0.165c2.872,5.205-0.358,11.751-4.466,16.074c-0.108,0.087-0.144,0.115-0.144,0.115
			c-0.108,0.08-0.143,0.105-0.143,0.105c-0.107,0.072-0.142,0.095-0.142,0.095c-0.106,0.064-0.141,0.084-0.141,0.084
			c-0.105,0.056-0.14,0.073-0.14,0.073c-0.104,0.048-0.138,0.062-0.138,0.062c-0.12,0.045-0.137,0.05-0.137,0.05
			c-0.118,0.034-0.135,0.038-0.135,0.038C595.953,302.652,595.936,302.655,595.936,302.655z"/>
	</g>
</g>
<g id="AG-OUTLINE">
	<g id="POLYLINE_925_">
		
			<path fill="none" stroke="#FB8604" stroke-width="3.5" stroke-linecap="round" stroke-linejoin="round" stroke-miterlimit="10" d="
			M254.637,431.277c-9.511,7.758-17.468,17.844-23.25,29.172c-10.585,21.223-24.397,42.157-24.471,66.955
			c-0.465,6.511,3.235,12.023,9.319,15.419c3.167,3.057,11.388,10.438,10.622,16.597c-0.029,0.114-0.039,0.152-0.039,0.152
			c-0.032,0.112-0.044,0.149-0.044,0.149c-0.036,0.11-0.049,0.147-0.049,0.147c-0.04,0.108-0.053,0.144-0.053,0.144
			c-0.043,0.106-0.058,0.141-0.058,0.141c-0.047,0.104-0.063,0.139-0.063,0.139c-0.05,0.102-0.068,0.136-0.068,0.136
			c-0.054,0.1-0.073,0.133-0.073,0.133c-0.058,0.098-0.077,0.131-0.077,0.131c-0.082,0.128-0.104,0.16-0.104,0.16
			c-0.089,0.125-0.112,0.156-0.112,0.156c-0.095,0.122-0.12,0.152-0.12,0.152c-0.102,0.118-0.128,0.147-0.128,0.147
			c-0.108,0.115-0.136,0.143-0.136,0.143c-0.115,0.111-0.145,0.139-0.145,0.139c-2.791,2.253-6.595,1.981-10.536,2.183
			c-6.916-0.285-14.241,0.879-21.149-1.216c-0.127-0.063-0.168-0.084-0.168-0.084c-0.12-0.065-0.159-0.088-0.159-0.088
			c-0.114-0.068-0.151-0.091-0.151-0.091c-0.108-0.07-0.143-0.094-0.143-0.094c-0.102-0.073-0.135-0.098-0.135-0.098
			c-0.128-0.101-0.159-0.127-0.159-0.127c-0.119-0.105-0.148-0.132-0.148-0.132c-0.112-0.109-0.139-0.137-0.139-0.137
			c-0.105-0.114-0.13-0.143-0.13-0.143c-0.098-0.118-0.122-0.148-0.122-0.148c-0.092-0.122-0.114-0.153-0.114-0.153
			c-1.786-3.177-2.139-6.67-4.844-9.859c-6.192-6.035-4.488-15.463-1.473-23.246c6.174-19.371-6.391-37.934,10.841-55.863
			c4.415-6.246,4.552-15.147,4.585-23.463c-1.266-12.91-1.895-17.823,0.804-32.164c0.374-19.867-18.148-29.53,5.484-61.459
			l6.536-8.423c0.242-0.332,0.944-1.245,1.399-2.06c0.067-0.126,0.097-0.185,0.097-0.185c0.054-0.113,0.066-0.14,0.066-0.14
			c0.054-0.128,0.063-0.153,0.063-0.153c0.04-0.115,0.046-0.137,0.046-0.137c0.031-0.123,0.034-0.142,0.034-0.142
			c0.015-0.126,0.015-0.134,0.015-0.134c-0.006-0.125-0.007-0.132-0.007-0.132c-0.035-0.128-0.038-0.134-0.038-0.134
			c-0.064-0.118-0.071-0.129-0.071-0.129c-0.096-0.119-0.106-0.129-0.106-0.129c-0.12-0.114-0.132-0.125-0.132-0.125
			c-0.121-0.091-0.135-0.101-0.135-0.101c-0.112-0.07-0.129-0.079-0.129-0.079c-0.091-0.049-0.13-0.068-0.13-0.068
			c-0.126-0.058-0.171-0.077-0.171-0.077c-0.095-0.038-0.146-0.057-0.146-0.057c-25.903-4.069-58.446-2.2-83.652-9.734
			c-11.454-6.08-25.108-12.218-33.788-22.543c-0.045-0.093-0.066-0.139-0.066-0.139c-0.04-0.092-0.058-0.138-0.058-0.138
			c-0.035-0.091-0.051-0.136-0.051-0.136c-0.03-0.09-0.044-0.134-0.044-0.134c-0.026-0.089-0.037-0.133-0.037-0.133
			c-0.026-0.11-0.03-0.132-0.03-0.132c-0.019-0.108-0.023-0.13-0.023-0.13c-0.015-0.128-0.016-0.15-0.016-0.15
			c-0.004-0.126-0.004-0.147-0.004-0.147c0.006-0.124,0.008-0.144,0.008-0.144c0.017-0.121,0.021-0.141,0.021-0.141
			c0.029-0.118,0.035-0.138,0.035-0.138c0.042-0.115,0.05-0.134,0.05-0.134c0.055-0.112,0.065-0.13,0.065-0.13
			c0.081-0.126,0.094-0.144,0.094-0.144c0.101-0.121,0.117-0.138,0.117-0.138c0.121-0.116,0.14-0.132,0.14-0.132
			c0.121-0.095,0.142-0.11,0.142-0.11c0.113-0.076,0.137-0.09,0.137-0.09c0.126-0.072,0.152-0.086,0.152-0.086
			c0.11-0.055,0.138-0.069,0.138-0.069c0.088-0.04,0.149-0.066,0.149-0.066c5.352-1.508,10.031,0.615,15.922,2.956
			c29.392,15.097,57.237,14.962,89.092,16.67c30.764,2.929,44.637-1.065,70.627-0.361c34.07,0.633,64.326,16.055,97.825,13.272
			c27.563-5.116,50.694-16.029,70.636-33.117c22.313-17.62,28.275-19.32,42.238-36.792c1.977-13.851-8.405-30.153,0.94-42.796
			c0.104-0.094,0.156-0.139,0.156-0.139c0.103-0.086,0.155-0.127,0.155-0.127c0.103-0.079,0.154-0.116,0.154-0.116
			c0.102-0.071,0.153-0.105,0.153-0.105c0.102-0.064,0.152-0.094,0.152-0.094c0.127-0.07,0.152-0.083,0.152-0.083
			c0.126-0.061,0.152-0.072,0.152-0.072c0.126-0.052,0.152-0.061,0.152-0.061c0.126-0.043,0.152-0.051,0.152-0.051
			c0.126-0.034,0.152-0.04,0.152-0.04c0.127-0.026,0.152-0.03,0.152-0.03c0.127-0.017,0.153-0.02,0.153-0.02
			c0.128-0.009,0.154-0.01,0.154-0.01c0.103-0.001,0.129,0,0.129,0c0.104,0.005,0.13,0.007,0.13,0.007
			c0.104,0.01,0.13,0.013,0.13,0.013c0.105,0.016,0.131,0.02,0.131,0.02c0.106,0.021,0.132,0.027,0.132,0.027
			c0.08,0.019,0.134,0.033,0.134,0.033c0.108,0.031,0.162,0.049,0.162,0.049c0.109,0.038,0.164,0.058,0.164,0.058
			c0.11,0.044,0.165,0.068,0.165,0.068c0.111,0.05,0.167,0.077,0.167,0.077c0.112,0.057,0.168,0.087,0.168,0.087
			c0.112,0.064,0.169,0.097,0.169,0.097c0.113,0.07,0.169,0.107,0.169,0.107c0.113,0.077,0.17,0.117,0.17,0.117
			c0.113,0.084,0.17,0.127,0.17,0.127c0.113,0.09,0.17,0.137,0.17,0.137c0.113,0.097,0.169,0.148,0.169,0.148
			c4.894,5.5,4.772,14.941,8.614,21.526c0.087,0.126,0.131,0.188,0.131,0.188c0.09,0.12,0.135,0.179,0.135,0.179
			c0.093,0.115,0.14,0.171,0.14,0.171c0.096,0.109,0.145,0.163,0.145,0.163c0.1,0.104,0.151,0.155,0.151,0.155
			c0.104,0.1,0.157,0.149,0.157,0.149c0.108,0.095,0.164,0.142,0.164,0.142c0.113,0.091,0.171,0.136,0.171,0.136
			c0.118,0.088,0.179,0.131,0.179,0.131c12.558,5.075,29.592-3.481,46.4,1.949c6.947,2.631,11.612,9.455,19.262,11.771
			c11.818,3.689,22.867,9.828,31.879,19.205c0.8,0.157,1.689,0.406,2.514,0.949c0.089,0.06,0.133,0.091,0.133,0.091
			c0.128,0.094,0.17,0.126,0.17,0.126c0.122,0.099,0.162,0.132,0.162,0.132c0.117,0.103,0.155,0.138,0.155,0.138
			c0.111,0.107,0.147,0.144,0.147,0.144c0.106,0.111,0.14,0.149,0.14,0.149c0.1,0.115,0.133,0.154,0.133,0.154
			c0.095,0.119,0.126,0.159,0.126,0.159c0.09,0.123,0.119,0.164,0.119,0.164c2.928,5.196-0.323,11.787-4.437,16.116
			c-0.108,0.087-0.144,0.115-0.144,0.115c-0.108,0.08-0.143,0.105-0.143,0.105c-0.107,0.072-0.142,0.095-0.142,0.095
			c-0.106,0.064-0.141,0.084-0.141,0.084c-0.105,0.056-0.14,0.073-0.14,0.073c-0.104,0.048-0.138,0.062-0.138,0.062
			c-0.12,0.045-0.137,0.05-0.137,0.05c-0.118,0.034-0.135,0.038-0.135,0.038c-0.116,0.023-0.133,0.025-0.133,0.025
			c-15.476,31.695-51.621-5.823-80.689,45.478c-7.34,12.211-13.688,24.294-15.794,38.787l-2.113,13.265
			c-3.632,29.362-20.842,34.864-36.098,52.19c-4.663,11.841-5.135,18.586-9.065,34.521c-3.452,20.774-12.626,42.899-5.595,56.765
			c0.061,0.09,0.068,0.105,0.197,0.282c0.099,0.127,0.131,0.167,0.131,0.167c0.1,0.115,0.133,0.152,0.133,0.152
			c0.102,0.105,0.137,0.138,0.137,0.138c0.106,0.096,0.142,0.126,0.142,0.126c0.11,0.088,0.148,0.116,0.148,0.116
			c0.116,0.081,0.156,0.107,0.156,0.107c0.123,0.075,0.166,0.099,0.166,0.099c0.087,0.047,0.132,0.07,0.132,0.07
			c3.64,1.518,7.991,1.854,11.642,4.305c3.045,2.286,4.208,6.772,3.492,10.677c-0.039,0.128-0.053,0.17-0.053,0.17
			c-0.044,0.125-0.059,0.166-0.059,0.166c-0.048,0.121-0.065,0.161-0.065,0.161c-0.053,0.118-0.071,0.156-0.071,0.156
			c-0.057,0.114-0.077,0.152-0.077,0.152c-0.062,0.111-0.084,0.147-0.084,0.147c-0.067,0.107-0.091,0.143-0.091,0.143
			c-0.073,0.104-0.098,0.138-0.098,0.138c-0.078,0.101-0.105,0.134-0.105,0.134c-0.083,0.098-0.112,0.13-0.112,0.13
			c-0.12,0.125-0.151,0.156-0.151,0.156c-0.096,0.09-0.129,0.12-0.129,0.12c-0.102,0.087-0.137,0.116-0.137,0.116
			c-0.108,0.084-0.145,0.112-0.145,0.112c-0.115,0.081-0.154,0.108-0.154,0.108c-0.121,0.078-0.162,0.104-0.162,0.104
			c-4.282,2.197-29.456,3.203-32.716-0.954c-5.429-6.875-2.783-17.031-4.823-25.472c-0.056-0.118-0.084-0.177-0.084-0.177
			c-1.016-2.058-3.253-3.281-4.742-5.34c-0.055-0.087-0.082-0.131-0.082-0.131c-0.05-0.087-0.074-0.13-0.074-0.13
			c-0.045-0.086-0.067-0.13-0.067-0.13c-0.041-0.086-0.06-0.129-0.06-0.129c-0.036-0.086-0.053-0.13-0.053-0.13
			c-0.031-0.087-0.046-0.13-0.046-0.13c-0.027-0.087-0.039-0.131-0.039-0.131c-0.022-0.088-0.032-0.132-0.032-0.132
			c-0.018-0.089-0.026-0.134-0.026-0.134c-0.014-0.09-0.019-0.136-0.019-0.136c-0.009-0.092-0.013-0.138-0.013-0.138
			c-0.005-0.093-0.007-0.141-0.007-0.141c-0.001-0.095,0-0.143,0-0.143c0.003-0.097,0.006-0.147,0.006-0.147
			c0.007-0.1,0.012-0.15,0.012-0.15c0.076-1.169,1.77-5.688,2.147-6.971c6.585-17.909,4.929-41.984,4.601-60.865
			C337.751,463.876,319.447,470.538,254.637,431.277z"/>
	</g>
</g>
</svg>
