<?xml version="1.0" encoding="utf-8"?>
<!-- Generator: Adobe Illustrator 24.0.1, SVG Export Plug-In . SVG Version: 6.00 Build 0)  -->
<!DOCTYPE svg PUBLIC "-//W3C//DTD SVG 1.1//EN" "http://www.w3.org/Graphics/SVG/1.1/DTD/svg11.dtd" [
	<!ENTITY ns_extend "http://ns.adobe.com/Extensibility/1.0/">
	<!ENTITY ns_ai "http://ns.adobe.com/AdobeIllustrator/10.0/">
	<!ENTITY ns_graphs "http://ns.adobe.com/Graphs/1.0/">
	<!ENTITY ns_vars "http://ns.adobe.com/Variables/1.0/">
	<!ENTITY ns_imrep "http://ns.adobe.com/ImageReplacement/1.0/">
	<!ENTITY ns_sfw "http://ns.adobe.com/SaveForWeb/1.0/">
	<!ENTITY ns_custom "http://ns.adobe.com/GenericCustomNamespace/1.0/">
	<!ENTITY ns_adobe_xpath "http://ns.adobe.com/XPath/1.0/">
]>
<svg version="1.1" xmlns:x="&ns_extend;" xmlns:i="&ns_ai;" xmlns:graph="&ns_graphs;"
	 xmlns="http://www.w3.org/2000/svg" xmlns:xlink="http://www.w3.org/1999/xlink" x="0px" y="0px" viewBox="0 0 750 750"
	 enable-background="new 0 0 750 750" xml:space="preserve">
<metadata>
	<sfw  xmlns="&ns_sfw;">
		<slices></slices>
		<sliceSourceBounds  bottomLeftOrigin="true" height="15878.78" width="11141.354" x="-4000" y="-7507.207"></sliceSourceBounds>
	</sfw>
</metadata>
<g id="FILL-BACKGROUND">
	<rect fill="#FFFFFF" width="750" height="750"/>
</g>
<g id="N-TEXT">
</g>
<g id="N-DIMENSIONS">
</g>
<g id="AG-DIAGRAM">
	<g id="POLYLINE_2952_">
		<g>
			<g>
				
					<line fill="none" stroke="#FB8604" stroke-width="3.25" stroke-linecap="round" stroke-linejoin="round" x1="147.412" y1="577.687" x2="149.412" y2="577.687"/>
				
					<line fill="none" stroke="#FB8604" stroke-width="3.25" stroke-linecap="round" stroke-linejoin="round" stroke-dasharray="3.9641,6.9372" x1="156.349" y1="577.687" x2="578.031" y2="577.687"/>
				
					<line fill="none" stroke="#FB8604" stroke-width="3.25" stroke-linecap="round" stroke-linejoin="round" x1="581.5" y1="577.687" x2="583.5" y2="577.687"/>
			</g>
		</g>
	</g>
</g>
<g id="AG-DETAILS">
</g>
<g id="AG-DETAIL">
</g>
<g id="AG-PEOPLE">
</g>
<g id="AG-ANIMALS">
	<g id="POLYLINE_965_">
		
			<path fill="none" stroke="#FB8604" stroke-width="2.75" stroke-linecap="round" stroke-linejoin="round" stroke-miterlimit="10" d="
			M269.019,393.336c5.641,2.231,12.87,1.964,18.192-2.472c0.096-0.034,0.144-0.049,0.144-0.049c0.097-0.03,0.145-0.044,0.145-0.044
			c0.097-0.026,0.146-0.037,0.146-0.037c0.098-0.021,0.147-0.031,0.147-0.031c0.099-0.017,0.148-0.024,0.148-0.024
			c0.1-0.012,0.15-0.017,0.15-0.017c0.101-0.008,0.151-0.01,0.151-0.01c0.106-0.001,0.152-0.007,0.359,0.006
			c2.971,0.378,5.157,3.306,8.332,3.896c0.102,0.011,0.153,0.016,0.153,0.016c0.101,0.007,0.152,0.01,0.152,0.01
			c0.1,0.003,0.15,0.003,0.15,0.003c0.1-0.001,0.149-0.003,0.149-0.003c0.099-0.005,0.148-0.008,0.148-0.008
			c10.307-5.221,16.603,10.097,26.001,4.378c3.18-1.839,6.067-0.34,9.393,1.577c0,0,5.421,3.235,5.421,3.235
			c5.923,3.4,9.164,5.083,16.198-1.55c0.082-0.039,0.11-0.052,0.11-0.052c0.082-0.035,0.109-0.046,0.109-0.046
			c0.082-0.031,0.109-0.041,0.109-0.041c0.081-0.027,0.108-0.035,0.108-0.035c0.081-0.022,0.108-0.029,0.108-0.029
			c0.08-0.018,0.107-0.023,0.107-0.023c0.08-0.013,0.107-0.016,0.107-0.016c0.08-0.008,0.106-0.01,0.106-0.01
			c0.08-0.003,0.106-0.003,0.106-0.003c0.079,0.002,0.106,0.004,0.106,0.004c0.079,0.008,0.105,0.011,0.105,0.011
			c0.079,0.014,0.105,0.019,0.105,0.019c0.101,0.026,0.126,0.033,0.126,0.033c0.101,0.034,0.126,0.044,0.126,0.044
			c0.101,0.043,0.126,0.054,0.126,0.054c0.1,0.051,0.125,0.064,0.125,0.064c0.1,0.058,0.125,0.074,0.125,0.074
			c0.1,0.066,0.125,0.083,0.125,0.083c0.1,0.072,0.15,0.111,0.15,0.111c0.1,0.08,0.149,0.122,0.149,0.122
			c0.099,0.088,0.149,0.133,0.149,0.133c1.509,1.4,2.496,3.666,4.344,5.17c0.08,0.058,0.107,0.077,0.107,0.077
			c0.08,0.054,0.107,0.071,0.107,0.071c0.08,0.05,0.107,0.066,0.107,0.066c0.081,0.045,0.108,0.06,0.108,0.06
			c0.081,0.041,0.108,0.054,0.108,0.054c0.082,0.036,0.109,0.048,0.109,0.048c0.082,0.031,0.109,0.041,0.109,0.041
			c0.082,0.026,0.11,0.034,0.11,0.034c0.083,0.021,0.11,0.027,0.11,0.027c0.079,0.015,0.105,0.02,0.105,0.02
			c0.079,0.011,0.106,0.013,0.106,0.013c0.08,0.006,0.106,0.007,0.106,0.007c0.08,0.002,0.107,0.001,0.107,0.001
			c0.08-0.003,0.107-0.004,0.107-0.004c0.081-0.007,0.107-0.01,0.107-0.01c0.081-0.011,0.108-0.015,0.108-0.015
			c0.081-0.015,0.108-0.02,0.108-0.02c0.082-0.018,0.109-0.025,0.109-0.025c1.919-0.535,3.392-2.476,5.602-3.012
			c0.097-0.02,0.129-0.026,0.129-0.026c0.097-0.016,0.129-0.021,0.129-0.021c0.097-0.012,0.13-0.016,0.13-0.016
			c0.098-0.009,0.13-0.011,0.13-0.011c0.098-0.005,0.131-0.005,0.131-0.005c0.098,0,0.131,0,0.131,0
			c0.098,0.004,0.131,0.006,0.131,0.006c0.099,0.008,0.132,0.012,0.132,0.012c0.085,0.011,0.127,0.017,0.127,0.017
			c0.085,0.015,0.127,0.023,0.127,0.023c0.085,0.018,0.127,0.028,0.127,0.028c0.085,0.022,0.128,0.034,0.128,0.034
			c0.085,0.025,0.128,0.039,0.128,0.039c3.787,1.455,5.665,6.024,9.465,8.099c0.071,0.029,0.107,0.042,0.107,0.042
			c0.071,0.025,0.106,0.037,0.106,0.037c0.07,0.022,0.105,0.031,0.105,0.031c0.069,0.018,0.104,0.026,0.104,0.026
			c0.088,0.018,0.115,0.023,0.115,0.023c0.08,0.012,0.107,0.015,0.107,0.015c0.08,0.007,0.106,0.009,0.106,0.009
			c0.079,0.003,0.105,0.004,0.105,0.004c0.078-0.001,0.105-0.002,0.105-0.002c0.078-0.005,0.104-0.007,0.104-0.007
			c0.077-0.009,0.103-0.012,0.103-0.012c0.077-0.013,0.103-0.017,0.103-0.017c0.102-0.022,0.128-0.028,0.128-0.028
			c0.101-0.028,0.127-0.036,0.127-0.036c0.101-0.033,0.126-0.042,0.126-0.042c0.101-0.039,0.151-0.059,0.151-0.059
			c0.1-0.045,0.15-0.068,0.15-0.068c0.1-0.05,0.15-0.077,0.15-0.077c7.949-8.341,15.932,1.407,25.328,2.041
			c0.1-0.012,0.15-0.02,0.15-0.02c0.098-0.017,0.147-0.026,0.147-0.026c0.096-0.021,0.143-0.033,0.143-0.033
			c0.093-0.025,0.138-0.039,0.138-0.039c0.09-0.029,0.134-0.045,0.134-0.045c0.087-0.033,0.129-0.05,0.129-0.05
			c0.084-0.036,0.125-0.055,0.125-0.055c0.081-0.04,0.121-0.06,0.121-0.06c0.079-0.043,0.117-0.065,0.117-0.065
			c0.076-0.046,0.114-0.069,0.114-0.069c0.074-0.048,0.11-0.073,0.11-0.073c0.067-0.048,0.079-0.054,0.212-0.157
			c0.102-0.083,0.135-0.111,0.135-0.111c0.519-0.438,0.885-0.96,1.566-1.628c0.089-0.081,0.119-0.108,0.119-0.108
			c0.091-0.077,0.122-0.102,0.122-0.102c0.093-0.072,0.125-0.096,0.125-0.096c0.096-0.067,0.128-0.088,0.128-0.088
			c0.099-0.061,0.132-0.08,0.132-0.08c0.102-0.055,0.137-0.072,0.137-0.072c0.088-0.04,0.106-0.048,0.106-0.048
			c0.091-0.035,0.109-0.042,0.109-0.042c0.093-0.03,0.112-0.036,0.112-0.036c0.096-0.025,0.116-0.03,0.116-0.03
			c0.077-0.016,0.103-0.02,0.103-0.02c0.079-0.012,0.105-0.016,0.105-0.016c0.081-0.009,0.108-0.011,0.108-0.011
			c0.082-0.005,0.11-0.007,0.11-0.007c0.084-0.002,0.113-0.002,0.113-0.002c2.731,0.14,5.05,2.172,8.001,2.695
			c0.231,0.025,0.468,0.038,0.768,0.004c0.102-0.013,0.135-0.019,0.135-0.019c0.099-0.017,0.132-0.024,0.132-0.024
			c0.098-0.021,0.13-0.029,0.13-0.029c0.713-0.201,0.707-0.241,1.707-0.691c7.225-1.936,15.502,2.451,23.406,1.921"/>
	</g>
	<g id="POLYLINE_964_">
		
			<path fill="none" stroke="#FB8604" stroke-width="2.75" stroke-linecap="round" stroke-linejoin="round" stroke-miterlimit="10" d="
			M266.714,334.041c-1.32,5.561-1.958,11.747-0.589,17.963c1.855,6.744,3.697,13.227,2.104,20.66
			c-0.568,2.934,0.206,6.86,1.131,10.149c2.158,7.326-2.187,13.952-3.349,21.633l-0.567,3.668c-0.527,3.848-2.211,7.567-5.28,11.047
			c-3.394,3.653-6.345,7.837-7.961,12.975c-5.292,12.516-18.942,22.895-26.223,34.485c-7.294,10.494-15.632,23.436-24.287,33.579
			c-1.21,1.406-2.661,3.561-3.495,6.238c-3.256,9.777-4.483,21.351-5.078,31.761c-0.671,14.699,0.006,17.89,16.338,20.234
			c0.099,0.043,0.131,0.057,0.131,0.057c0.095,0.045,0.126,0.061,0.126,0.061c0.091,0.048,0.121,0.065,0.121,0.065
			c0.087,0.051,0.115,0.069,0.115,0.069c0.082,0.054,0.109,0.073,0.109,0.073c0.078,0.057,0.104,0.077,0.104,0.077
			c0.098,0.081,0.122,0.102,0.122,0.102c0.092,0.086,0.114,0.108,0.114,0.108c0.086,0.091,0.107,0.114,0.107,0.114
			c0.08,0.095,0.1,0.12,0.1,0.12c0.075,0.1,0.093,0.126,0.093,0.126c0.053,0.078,0.07,0.105,0.07,0.105
			c0.05,0.081,0.066,0.108,0.066,0.108c0.293,0.539,0.412,0.891,0.609,1.659c0.825,4.441,3.432,9.984,0.585,14.511
			c-0.081,0.102-0.123,0.152-0.123,0.152c-0.085,0.098-0.129,0.146-0.129,0.146c-0.09,0.094-0.136,0.139-0.136,0.139
			c-0.094,0.089-0.142,0.133-0.142,0.133c-1.936,2.441-39.784,1.922-40.41-0.604c-5.354-4.887-1.093-12.854,0.095-19.274
			c0.673-3.346,0.461-9.897,0.659-13.537c0,0,0.713-11.753,0.713-11.753c0.226-4.549-0.023-9.434-0.552-14.318
			c-0.355-8.397-4.363-18.644,1.225-26.35c21.357-27.318,18.516-65.058,19.416-97.921c-0.196-15.693-4.178-31.751-2.751-47.401
			c2.828-26.32,21.6-45.305,48.766-52.393c6.229-1.779,14.233-4.136,20.412-6.558c10.349-3.876,22.852-3.074,33.923-5.268
			c24.215-6.167,50.508-6.272,75.315-4.79c11.06,0.43,23.222,2.313,34.207-1.093l6.052-1.83c2.049-0.617,4.751-1.223,7.305-1.615
			c7.589-1.126,13.641-1.617,21.06-5.521l6.279-3.214c10.481-5.659,21.947-8.168,33.383-11.659
			c7.06-2.308,9.765-9.882,13.847-15.911c3.99-5.501,11.003-11.466,16.132-16.176"/>
	</g>
	<g id="POLYLINE_953_">
		
			<path fill="none" stroke="#FB8604" stroke-width="2.75" stroke-linecap="round" stroke-linejoin="round" stroke-miterlimit="10" d="
			M435.732,359.969c-1.308,9.551-1.34,20.152,1.278,29.99c0.033,0.068,0.036,0.079,0.107,0.215c0.054,0.097,0.073,0.128,0.073,0.128
			c0.055,0.088,0.074,0.116,0.074,0.116c0.056,0.079,0.075,0.103,0.075,0.103c0.077,0.091,0.096,0.111,0.096,0.111
			c0.098,0.09,0.118,0.106,0.118,0.106c0.101,0.064,0.121,0.075,0.121,0.075c0.083,0.032,0.103,0.038,0.103,0.038
			c0.084,0.014,0.106,0.015,0.106,0.015c0.099-0.007,0.106-0.008,0.106-0.008c0.102-0.027,0.11-0.03,0.11-0.03
			c0.088-0.037,0.104-0.044,0.104-0.044c0.097-0.053,0.113-0.063,0.113-0.063c0.098-0.064,0.13-0.087,0.13-0.087
			c0.098-0.073,0.164-0.125,0.164-0.125l0.394-0.323c0.098-0.075,0.13-0.099,0.13-0.099c0.097-0.067,0.113-0.077,0.113-0.077
			c0.095-0.057,0.111-0.065,0.111-0.065c0.102-0.047,0.109-0.05,0.109-0.05c0.1-0.03,0.107-0.032,0.107-0.032
			c0.098-0.011,0.105-0.01,0.105-0.01c0.095,0.012,0.102,0.014,0.102,0.014c0.099,0.041,0.106,0.045,0.106,0.045
			c0.095,0.072,0.115,0.092,0.115,0.092c0.078,0.091,0.097,0.117,0.097,0.117c0.056,0.086,0.075,0.117,0.075,0.117
			c0.055,0.101,0.073,0.138,0.073,0.138c0.036,0.076,0.053,0.116,0.053,0.116c1.712,5.399,1.063,11.899,3.133,17.556
			c0.046,0.092,0.069,0.136,0.069,0.136c0.047,0.085,0.071,0.126,0.071,0.126c0.048,0.078,0.072,0.115,0.072,0.115
			c0.049,0.071,0.074,0.104,0.074,0.104c0.076,0.093,0.101,0.122,0.101,0.122c0.078,0.078,0.104,0.101,0.104,0.101
			c0.08,0.062,0.108,0.079,0.108,0.079c0.095,0.05,0.107,0.056,0.107,0.056c0.098,0.032,0.111,0.035,0.111,0.035
			c0.101,0.014,0.114,0.015,0.114,0.015c0.09-0.001,0.103-0.002,0.103-0.002c0.092-0.013,0.105-0.015,0.105-0.015
			c0.093-0.024,0.106-0.028,0.106-0.028c0.094-0.034,0.107-0.039,0.107-0.039c0.081-0.037,0.108-0.05,0.108-0.05
			c0.082-0.044,0.109-0.059,0.109-0.059c0.082-0.05,0.11-0.068,0.11-0.068c0.279-0.198,0.328-0.23,0.711-0.583
			c0,0,0.612-0.587,0.612-0.587c0.086-0.078,0.096-0.092,0.274-0.243c0.085-0.067,0.106-0.082,0.106-0.082
			c0.1-0.068,0.11-0.074,0.11-0.074c0.102-0.054,0.111-0.058,0.111-0.058c0.101-0.032,0.109-0.033,0.109-0.033
			c0.091,0.001,0.106,0.005,0.106,0.005c0.095,0.054,0.107,0.066,0.107,0.066c0.066,0.091,0.076,0.109,0.076,0.109
			c0.037,0.083,0.045,0.106,0.045,0.106c0.031,0.101,0.038,0.129,0.038,0.129c0.019,0.088,0.025,0.119,0.025,0.119
			c0.263,1.688-0.441,6.872-0.558,8.761c-0.143,3.309-1.012,8.101,2.172,10.754c0.086,0.095,0.102,0.107,0.268,0.305
			c0.061,0.077,0.08,0.102,0.08,0.102c0.057,0.077,0.075,0.103,0.075,0.103c0.053,0.079,0.069,0.105,0.069,0.105
			c0.048,0.08,0.063,0.107,0.063,0.107c0.043,0.082,0.056,0.11,0.056,0.11c0.038,0.085,0.049,0.114,0.049,0.114
			c0.032,0.088,0.037,0.103,0.037,0.103c0.03,0.102,0.034,0.12,0.034,0.12c0.02,0.09,0.024,0.108,0.024,0.108
			c0.013,0.074,0.019,0.111,0.019,0.111c0.009,0.076,0.013,0.115,0.013,0.115c0.006,0.078,0.008,0.118,0.008,0.118
			c0.003,0.08,0.004,0.121,0.004,0.121c-2.738,8.173,3.077,14.023,4.422,22.171c0.193,4.709-3.01,9.834,1.151,14.556
			c4.167,7.917-3.593,12.615,4.326,27.078c0.574,1.781,0.732,3.748,0.925,6.061c0.692,11.903-0.044,8.359,4.201,19.847
			c1.174,8.306,1.146,16.307,5.617,24.131c0.451,1.273,0.676,2.12,0.926,3.877c1.071,31.357,0.666,32.198,37.142,30.7
			c2.503-0.315,5.923-0.578,8.144-2.531c0.094-0.089,0.124-0.119,0.124-0.119c0.09-0.092,0.119-0.123,0.119-0.123
			c0.086-0.094,0.114-0.126,0.114-0.126c0.082-0.097,0.109-0.13,0.109-0.13c0.078-0.099,0.103-0.133,0.103-0.133
			c2.042-3.197,0.294-7.251-0.679-10.586c-5.886-22.464-23.843,9.845-25.974-60.788c-0.763-9.554-2.311-22.278-1.899-31.898
			c1.582-18.189-1.191-42.017,8.298-58.461c12.75-10.598,28.914-7.246,33.05-57.082c0.486-24.19,3.572-36.778,17.815-56.111
			c2.976-4.387,6.452-10.961,8.915-15.976"/>
	</g>
	<g id="POLYLINE_952_">
		
			<path fill="none" stroke="#FB8604" stroke-width="2.75" stroke-linecap="round" stroke-linejoin="round" stroke-miterlimit="10" d="
			M542.928,196.475c-5.331,3.355-8.867,9.187-10.524,15.66c-3.073,8.64-9.919,16.708-17.959,21.943
			c-0.069,0.021-0.104,0.031-0.104,0.031c-0.069,0.018-0.103,0.027-0.103,0.027c-0.102,0.022-0.135,0.028-0.135,0.028
			c-0.1,0.016-0.133,0.02-0.133,0.02c-0.099,0.009-0.131,0.011-0.131,0.011c-0.097,0.002-0.113,0.002-0.113,0.002
			c-0.096-0.004-0.112-0.005-0.112-0.005c-0.094-0.01-0.11-0.012-0.11-0.012c-0.093-0.016-0.109-0.019-0.109-0.019
			c-0.092-0.022-0.107-0.027-0.107-0.027c-0.091-0.029-0.106-0.034-0.106-0.034c-0.096-0.038-0.114-0.046-0.114-0.046
			c-0.089-0.043-0.107-0.052-0.107-0.052c-0.088-0.05-0.105-0.06-0.105-0.06c-0.087-0.056-0.104-0.068-0.104-0.068
			c-0.086-0.063-0.12-0.089-0.12-0.089c-0.101-0.085-0.135-0.115-0.135-0.115c-0.1-0.094-0.132-0.127-0.132-0.127
			c-0.065-0.068-0.098-0.104-0.098-0.104c-1.81-2.229-3.052-6.77-4.266-9.531c-2.958-7.11-2.326-13.249,5.164-20.69
			c4.984-3.752,5.245-10.625,9.766-15.294c3.832-2.697,9.17-0.722,16.248-4.439c7.362-4.432,16.132,0.871,24.359,1.11
			c18.547-0.418,30.333,11.707,27.595,31.944c-0.06,1.61,0.585,3.112,1.883,4.366c1.659,1.64,6.814,7.369,8.439,9.147
			c6.032,6.753,13.446,10.008,14.173,21.052"/>
	</g>
	<g id="POLYLINE_951_">
		
			<path fill="none" stroke="#FB8604" stroke-width="2.75" stroke-linecap="round" stroke-linejoin="round" stroke-miterlimit="10" d="
			M521.673,254.175c0.091,0.84,0.335,1.726,0.84,2.567c0.051,0.08,0.069,0.106,0.069,0.106c0.07,0.101,0.088,0.125,0.088,0.125
			c0.072,0.094,0.091,0.116,0.091,0.116c0.074,0.086,0.093,0.106,0.093,0.106c0.096,0.095,0.115,0.113,0.115,0.113
			c0.098,0.081,0.108,0.089,0.108,0.089c0.1,0.067,0.11,0.073,0.11,0.073c0.102,0.052,0.112,0.057,0.112,0.057
			c0.093,0.033,0.103,0.036,0.103,0.036c0.096,0.02,0.104,0.021,0.104,0.021c0.098,0.006,0.106,0.006,0.106,0.006
			c0.099-0.005,0.115-0.007,0.115-0.007c0.1-0.016,0.117-0.02,0.117-0.02c0.101-0.025,0.118-0.03,0.118-0.03
			c0.108-0.024,0.256-0.1,0.769-0.274c0.09-0.025,0.108-0.03,0.108-0.03c0.091-0.02,0.109-0.023,0.109-0.023
			c0.092-0.014,0.11-0.016,0.11-0.016c0.092-0.006,0.111-0.006,0.111-0.006c0.093,0.003,0.102,0.004,0.102,0.004
			c0.094,0.012,0.103,0.014,0.103,0.014c0.094,0.022,0.104,0.025,0.104,0.025c0.095,0.033,0.104,0.037,0.104,0.037
			c0.095,0.046,0.105,0.051,0.105,0.051c0.079,0.048,0.103,0.063,0.103,0.063c0.094,0.069,0.117,0.088,0.117,0.088
			c0.094,0.082,0.118,0.105,0.118,0.105c0.095,0.095,0.119,0.121,0.119,0.121c0.072,0.08,0.096,0.108,0.096,0.108
			c2.185,2.913,3.001,7.138,5.614,10.258c0.093,0.098,0.125,0.13,0.125,0.13c0.094,0.091,0.125,0.121,0.125,0.121
			c0.094,0.085,0.126,0.112,0.126,0.112c0.095,0.077,0.127,0.102,0.127,0.102c0.095,0.07,0.127,0.092,0.127,0.092
			c0.096,0.062,0.128,0.082,0.128,0.082c0.096,0.054,0.128,0.071,0.128,0.071c0.095,0.045,0.114,0.054,0.114,0.054
			c0.095,0.038,0.114,0.045,0.114,0.045c0.096,0.032,0.115,0.037,0.115,0.037c0.096,0.026,0.115,0.03,0.115,0.03
			c0.096,0.02,0.115,0.023,0.115,0.023c0.096,0.014,0.116,0.016,0.116,0.016c0.077,0.007,0.116,0.01,0.116,0.01
			c0.077,0.003,0.116,0.004,0.116,0.004c0.077,0,0.116-0.001,0.116-0.001c0.077-0.004,0.116-0.006,0.116-0.006
			c0.077-0.007,0.116-0.011,0.116-0.011c0.65-0.096,0.727-0.151,1.635-0.431c0.094-0.028,0.51-0.152,0.749-0.177
			c0.069-0.008,0.103-0.012,0.103-0.012c0.102-0.007,0.135-0.008,0.135-0.008c0.1,0,0.117,0,0.117,0
			c0.099,0.006,0.115,0.008,0.115,0.008c0.097,0.013,0.113,0.016,0.113,0.016c0.095,0.021,0.111,0.025,0.111,0.025
			c0.094,0.029,0.109,0.034,0.109,0.034c0.092,0.037,0.107,0.044,0.107,0.044c0.09,0.047,0.109,0.058,0.109,0.058
			c0.095,0.061,0.113,0.075,0.113,0.075c0.092,0.072,0.111,0.088,0.111,0.088c0.09,0.082,0.108,0.1,0.108,0.1
			c0.088,0.092,0.106,0.112,0.106,0.112c0.086,0.102,0.121,0.144,0.121,0.144c0.068,0.089,0.101,0.135,0.101,0.135
			c0.066,0.095,0.099,0.144,0.099,0.144c0.665,1.067,0.945,1.945,1.591,3.466c0.085,0.198,0.492,1.145,0.802,1.585
			c0.063,0.093,0.095,0.139,0.095,0.139c0.064,0.087,0.097,0.129,0.097,0.129c0.082,0.099,0.099,0.118,0.099,0.118
			c0.084,0.09,0.101,0.107,0.101,0.107c0.086,0.08,0.103,0.095,0.103,0.095c0.087,0.069,0.105,0.082,0.105,0.082
			c0.089,0.058,0.107,0.068,0.107,0.068c0.091,0.046,0.11,0.054,0.11,0.054c0.101,0.036,0.114,0.04,0.114,0.04
			c0.091,0.021,0.104,0.024,0.104,0.024c0.093,0.012,0.106,0.013,0.106,0.013c0.094,0.003,0.108,0.003,0.108,0.003
			c0.096-0.005,0.109-0.007,0.109-0.007c0.083-0.011,0.111-0.015,0.111-0.015c0.084-0.017,0.112-0.023,0.112-0.023
			c0.085-0.022,0.113-0.03,0.113-0.03c0.085-0.027,0.114-0.036,0.114-0.036c0.437-0.143,0.7-0.34,1.531-0.683
			c0.084-0.029,0.112-0.038,0.112-0.038c0.083-0.025,0.11-0.033,0.11-0.033c0.082-0.02,0.109-0.026,0.109-0.026
			c0.094-0.017,0.107-0.018,0.107-0.018c0.092-0.009,0.105-0.01,0.105-0.01c0.091-0.002,0.103-0.001,0.103-0.001
			c0.101,0.009,0.114,0.01,0.114,0.01c0.099,0.021,0.111,0.024,0.111,0.024c0.096,0.034,0.108,0.039,0.108,0.039
			c0.093,0.048,0.111,0.058,0.111,0.058c0.102,0.072,0.118,0.085,0.118,0.085c0.098,0.09,0.114,0.106,0.114,0.106
			c0.079,0.088,0.094,0.107,0.094,0.107c0.077,0.099,0.092,0.12,0.092,0.12c0.06,0.087,0.074,0.11,0.074,0.11
			c0.058,0.094,0.087,0.143,0.087,0.143c0.926,1.688,1.138,3.93,2.163,5.912c0.059,0.102,0.09,0.151,0.09,0.151
			c0.061,0.094,0.077,0.117,0.077,0.117c0.063,0.088,0.079,0.109,0.079,0.109c0.081,0.1,0.097,0.118,0.097,0.118
			c0.083,0.088,0.1,0.105,0.1,0.105c0.086,0.076,0.104,0.09,0.104,0.09c0.089,0.063,0.107,0.075,0.107,0.075
			c0.089,0.049,0.104,0.056,0.104,0.056c0.094,0.037,0.109,0.042,0.109,0.042c0.096,0.025,0.113,0.028,0.113,0.028
			c0.099,0.013,0.116,0.014,0.116,0.014c0.102,0.002,0.119,0.002,0.119,0.002c0.087-0.006,0.104-0.008,0.104-0.008
			c0.088-0.013,0.106-0.016,0.106-0.016c0.09-0.019,0.108-0.024,0.108-0.024c0.073-0.02,0.11-0.031,0.11-0.031
			c0.075-0.024,0.112-0.037,0.112-0.037c0.076-0.028,0.114-0.043,0.114-0.043c0.323-0.144,0.279-0.114,0.76-0.383
			c0.215-0.118,1.35-0.838,1.975-1.052c0.091-0.032,0.136-0.047,0.136-0.047c0.091-0.028,0.136-0.041,0.136-0.041
			c0.091-0.024,0.136-0.035,0.136-0.035c0.091-0.02,0.136-0.028,0.136-0.028c0.091-0.015,0.114-0.018,0.114-0.018
			c0.091-0.011,0.114-0.013,0.114-0.013c0.091-0.006,0.113-0.007,0.113-0.007c0.091-0.001,0.113-0.001,0.113-0.001
			c0.09,0.004,0.113,0.005,0.113,0.005c0.09,0.009,0.113,0.012,0.113,0.012c0.09,0.014,0.113,0.018,0.113,0.018
			c0.097,0.022,0.127,0.029,0.127,0.029c0.089,0.026,0.118,0.036,0.118,0.036c0.088,0.032,0.118,0.043,0.118,0.043
			c0.088,0.037,0.117,0.051,0.117,0.051c0.088,0.043,0.117,0.058,0.117,0.058c0.087,0.048,0.116,0.065,0.116,0.065
			c0.087,0.053,0.116,0.071,0.116,0.071c1.396,0.961,2.294,2.543,3.484,4.112c0.247,0.326,0.988,1.325,1.56,1.75
			c0.102,0.078,0.128,0.097,0.128,0.097c0.102,0.07,0.127,0.087,0.127,0.087c0.102,0.062,0.127,0.076,0.127,0.076
			c0.101,0.053,0.127,0.065,0.127,0.065c0.101,0.044,0.126,0.053,0.126,0.053c0.101,0.034,0.126,0.041,0.126,0.041
			c0.101,0.024,0.126,0.029,0.126,0.029c0.1,0.013,0.125,0.015,0.125,0.015c0.1,0.003,0.12,0.002,0.12,0.002
			c0.098-0.008,0.117-0.01,0.117-0.01c0.098-0.018,0.117-0.022,0.117-0.022c0.097-0.027,0.117-0.033,0.117-0.033
			c0.097-0.036,0.117-0.044,0.117-0.044c0.097-0.044,0.116-0.054,0.116-0.054c0.097-0.052,0.116-0.063,0.116-0.063
			c0.096-0.06,0.135-0.085,0.135-0.085c0.077-0.054,0.115-0.082,0.115-0.082c0.077-0.059,0.115-0.089,0.115-0.089
			c0.672-0.567,1.015-1.049,1.784-1.946c0.053-0.058,0.327-0.383,0.568-0.611c0.065-0.061,0.073-0.072,0.209-0.19
			c0.069-0.057,0.104-0.084,0.104-0.084c0.069-0.052,0.103-0.076,0.103-0.076c0.085-0.057,0.102-0.068,0.102-0.068
			c0.102-0.059,0.119-0.068,0.119-0.068c0.101-0.048,0.118-0.054,0.118-0.054c0.1-0.035,0.117-0.04,0.117-0.04
			c0.099-0.022,0.116-0.025,0.116-0.025c0.099-0.009,0.115-0.009,0.115-0.009c0.098,0.006,0.114,0.008,0.114,0.008
			c0.09,0.019,0.108,0.025,0.108,0.025c0.089,0.032,0.107,0.04,0.107,0.04c0.089,0.045,0.106,0.055,0.106,0.055
			c0.088,0.057,0.106,0.069,0.106,0.069c0.088,0.068,0.105,0.082,0.105,0.082c0.087,0.078,0.105,0.095,0.105,0.095
			c0.07,0.07,0.104,0.107,0.104,0.107c0.069,0.077,0.104,0.118,0.104,0.118c0.6,0.73,1.045,1.655,1.675,2.735
			c0.141,0.239,0.609,1.03,0.982,1.436c0.08,0.089,0.12,0.131,0.12,0.131c0.081,0.082,0.121,0.121,0.121,0.121
			c0.082,0.075,0.102,0.093,0.102,0.093c0.083,0.069,0.103,0.085,0.103,0.085c0.084,0.062,0.105,0.077,0.105,0.077
			c0.085,0.055,0.106,0.068,0.106,0.068c0.086,0.048,0.107,0.059,0.107,0.059c0.087,0.04,0.109,0.049,0.109,0.049
			c0.088,0.032,0.11,0.039,0.11,0.039c0.089,0.023,0.111,0.028,0.111,0.028c0.09,0.015,0.113,0.017,0.113,0.017
			c0.099,0.006,0.129,0.006,0.129,0.006c0.091-0.005,0.122-0.008,0.122-0.008c0.092-0.014,0.123-0.02,0.123-0.02
			c0.093-0.023,0.125-0.032,0.125-0.032c0.094-0.032,0.126-0.044,0.126-0.044c0.096-0.04,0.128-0.055,0.128-0.055
			c0.097-0.048,0.129-0.066,0.129-0.066c0.098-0.056,0.13-0.076,0.13-0.076c0.099-0.063,0.132-0.086,0.132-0.086
			c0.1-0.071,0.133-0.095,0.133-0.095c2.478-2.032,3.779-5.38,6.462-7.838c0.099-0.079,0.132-0.104,0.132-0.104
			c0.098-0.072,0.13-0.095,0.13-0.095c0.097-0.065,0.129-0.085,0.129-0.085c0.096-0.058,0.128-0.075,0.128-0.075
			c0.095-0.05,0.126-0.065,0.126-0.065c0.094-0.042,0.125-0.054,0.125-0.054c0.092-0.033,0.123-0.043,0.123-0.043
			c0.091-0.025,0.121-0.032,0.121-0.032c0.09-0.016,0.12-0.02,0.12-0.02c0.084-0.007,0.104-0.007,0.104-0.007
			c0.083,0.001,0.103,0.002,0.103,0.002c0.102,0.011,0.122,0.014,0.122,0.014c0.1,0.021,0.12,0.026,0.12,0.026
			c0.099,0.031,0.119,0.038,0.119,0.038c0.098,0.04,0.117,0.049,0.117,0.049c0.097,0.049,0.116,0.059,0.116,0.059
			c0.096,0.057,0.115,0.069,0.115,0.069c0.095,0.064,0.113,0.078,0.113,0.078c0.075,0.057,0.112,0.087,0.112,0.087
			c0.074,0.062,0.111,0.094,0.111,0.094c0.073,0.067,0.11,0.102,0.11,0.102c0.303,0.311,0.348,0.35,0.751,0.865
			c0.321,0.405,1.01,1.425,1.605,1.973c0.075,0.067,0.112,0.1,0.112,0.1c0.075,0.062,0.113,0.092,0.113,0.092
			c0.095,0.071,0.115,0.084,0.115,0.084c0.097,0.063,0.116,0.075,0.116,0.075c0.098,0.056,0.117,0.066,0.117,0.066
			c0.099,0.047,0.119,0.056,0.119,0.056c0.1,0.039,0.121,0.046,0.121,0.046c0.102,0.029,0.122,0.034,0.122,0.034
			c0.082,0.016,0.103,0.02,0.103,0.02c0.096,0.011,0.122,0.012,0.122,0.012c0.102,0.002,0.128,0.001,0.128,0.001
			c0.078-0.005,0.104-0.008,0.104-0.008c0.078-0.011,0.105-0.015,0.105-0.015c0.079-0.016,0.106-0.022,0.106-0.022
			c0.08-0.021,0.107-0.029,0.107-0.029c0.081-0.026,0.108-0.035,0.108-0.035c0.081-0.031,0.109-0.042,0.109-0.042
			c0.082-0.035,0.11-0.048,0.11-0.048c0.083-0.04,0.11-0.054,0.11-0.054c0.86-0.503,1.129-0.761,2.065-1.674
			c0.917-0.887,2.142-2.4,3.51-3.232c0.081-0.044,0.108-0.058,0.108-0.058c0.081-0.04,0.107-0.052,0.107-0.052
			c0.08-0.035,0.106-0.046,0.106-0.046c0.079-0.031,0.105-0.04,0.105-0.04c0.078-0.026,0.104-0.034,0.104-0.034
			c0.077-0.021,0.103-0.027,0.103-0.027c0.096-0.02,0.112-0.022,0.112-0.022c0.095-0.013,0.11-0.014,0.11-0.014
			c0.094-0.006,0.109-0.007,0.109-0.007c0.093,0,0.108,0,0.108,0c0.091,0.005,0.122,0.008,0.122,0.008
			c0.09,0.011,0.12,0.016,0.12,0.016c0.089,0.017,0.118,0.023,0.118,0.023c0.088,0.022,0.117,0.03,0.117,0.03
			c0.087,0.027,0.115,0.036,0.115,0.036c0.086,0.031,0.114,0.042,0.114,0.042c0.229,0.098,0.268,0.109,0.601,0.298l0.613,0.369
			c0.092,0.052,0.104,0.062,0.292,0.16c0.096,0.046,0.119,0.056,0.119,0.056c0.095,0.039,0.118,0.048,0.118,0.048
			c0.094,0.032,0.117,0.039,0.117,0.039c0.093,0.024,0.104,0.027,0.104,0.027c0.092,0.016,0.103,0.017,0.103,0.017
			c0.091,0.007,0.102,0.007,0.102,0.007c0.096-0.003,0.112-0.005,0.112-0.005c0.099-0.016,0.115-0.02,0.115-0.02
			c0.098-0.029,0.114-0.035,0.114-0.035c0.097-0.041,0.114-0.049,0.114-0.049c0.097-0.053,0.113-0.063,0.113-0.063
			c0.096-0.064,0.112-0.076,0.112-0.076c0.096-0.075,0.112-0.088,0.112-0.088c0.096-0.085,0.128-0.115,0.128-0.115
			c0.096-0.096,0.128-0.13,0.128-0.13c1.792-2.221,2.831-5.275,5.367-7.315c3.148-2.624,7.362-4.389,10.617-7.619"/>
	</g>
	<g id="POLYLINE_950_">
		
			<path fill="none" stroke="#FB8604" stroke-width="2.75" stroke-linecap="round" stroke-linejoin="round" stroke-miterlimit="10" d="
			M607.789,264.049c-4.193-1.45-7.831-7.851-4.525-12.02c0.076-0.087,0.115-0.13,0.115-0.13c0.08-0.085,0.121-0.127,0.121-0.127
			c0.084-0.083,0.126-0.124,0.126-0.124c5.074-4.354,17.005-2.376,13.391,7.225C615.665,262.235,611.713,265.325,607.789,264.049z"
			/>
	</g>
</g>
<g id="AG-OUTLINE">
	<g id="POLYLINE_933_">
		
			<path fill="none" stroke="#FB8604" stroke-width="3.5" stroke-linecap="round" stroke-linejoin="round" stroke-miterlimit="10" d="
			M269.019,393.336c-0.167,0.616-1.235,3.909-1.506,4.758c-0.525,1.722-1.06,3.737-1.501,6.351l-0.567,3.668
			c-0.527,3.848-2.211,7.567-5.28,11.047c-3.394,3.653-6.345,7.837-7.961,12.975c-5.292,12.516-18.942,22.895-26.223,34.485
			c-7.294,10.494-15.632,23.436-24.287,33.579c-1.21,1.406-2.661,3.561-3.495,6.238c-3.256,9.777-4.483,21.351-5.078,31.761
			c-0.671,14.699,0.006,17.89,16.338,20.234c0.099,0.043,0.131,0.057,0.131,0.057c0.095,0.045,0.126,0.061,0.126,0.061
			c0.091,0.048,0.121,0.065,0.121,0.065c0.087,0.051,0.115,0.069,0.115,0.069c0.082,0.054,0.109,0.073,0.109,0.073
			c0.078,0.057,0.104,0.077,0.104,0.077c0.098,0.081,0.122,0.102,0.122,0.102c0.092,0.086,0.114,0.108,0.114,0.108
			c0.086,0.091,0.107,0.114,0.107,0.114c0.08,0.095,0.1,0.12,0.1,0.12c0.075,0.1,0.093,0.126,0.093,0.126
			c0.053,0.078,0.07,0.105,0.07,0.105c0.05,0.081,0.066,0.108,0.066,0.108c0.293,0.539,0.412,0.891,0.609,1.659
			c0.825,4.441,3.432,9.984,0.585,14.511c-0.081,0.102-0.123,0.152-0.123,0.152c-0.085,0.098-0.129,0.146-0.129,0.146
			c-0.09,0.094-0.136,0.139-0.136,0.139c-0.094,0.089-0.142,0.133-0.142,0.133c-1.936,2.441-39.784,1.922-40.41-0.604
			c-5.354-4.887-1.093-12.854,0.095-19.274c0.673-3.346,0.461-9.897,0.659-13.537c0,0,0.713-11.753,0.713-11.753
			c0.226-4.549-0.023-9.434-0.552-14.318c-0.355-8.397-4.363-18.644,1.225-26.35c21.357-27.318,18.516-65.058,19.416-97.921
			c-0.196-15.693-4.178-31.751-2.751-47.401c2.828-26.32,21.6-45.305,48.766-52.393c6.229-1.779,14.233-4.136,20.412-6.558
			c10.349-3.876,22.852-3.074,33.923-5.268c24.215-6.167,50.508-6.272,75.315-4.79c11.06,0.43,23.222,2.313,34.207-1.093l6.052-1.83
			c2.049-0.617,4.751-1.223,7.305-1.615c7.589-1.126,13.641-1.617,21.06-5.521l6.279-3.214c10.481-5.659,21.947-8.168,33.383-11.659
			c7.06-2.308,9.765-9.882,13.847-15.911c3.99-5.501,11.003-11.466,16.132-16.176c-1.272-6.051,1.973-11.191,6.589-15.954
			c4.984-3.752,5.245-10.625,9.766-15.294c3.832-2.697,9.17-0.722,16.248-4.439c7.362-4.432,16.132,0.871,24.359,1.11
			c18.547-0.418,30.333,11.707,27.595,31.944c-0.06,1.61,0.585,3.112,1.883,4.366c1.659,1.64,6.814,7.369,8.439,9.147
			c6.032,6.753,13.446,10.008,14.173,21.052c4.37,3.87,1.118,11.57-4.312,12.998c-2.967,3.015-7.211,4.801-10.745,7.731
			c-2.216,1.783-3.329,4.702-5.207,7.168c-0.096,0.102-0.128,0.134-0.128,0.134c-0.096,0.091-0.128,0.119-0.128,0.119
			c-0.096,0.079-0.112,0.092-0.112,0.092c-0.096,0.069-0.112,0.079-0.112,0.079c-0.097,0.058-0.113,0.066-0.113,0.066
			c-0.097,0.046-0.113,0.053-0.113,0.053c-0.098,0.034-0.114,0.039-0.114,0.039c-0.098,0.022-0.115,0.024-0.115,0.024
			c-0.1,0.009-0.111,0.009-0.111,0.009c-0.102-0.003-0.113-0.005-0.113-0.005c-0.092-0.013-0.103-0.015-0.103-0.015
			c-0.081-0.018-0.104-0.025-0.104-0.025c-0.093-0.029-0.117-0.037-0.117-0.037c-0.094-0.037-0.118-0.047-0.118-0.047
			c-0.095-0.043-0.143-0.067-0.143-0.067c-0.106-0.057-0.034-0.013-0.292-0.16l-0.613-0.369c-0.049-0.027-0.249-0.145-0.433-0.227
			c-0.084-0.037-0.112-0.049-0.112-0.049c-0.085-0.034-0.113-0.044-0.113-0.044c-0.086-0.03-0.115-0.039-0.115-0.039
			c-0.087-0.025-0.116-0.033-0.116-0.033c-0.088-0.021-0.118-0.027-0.118-0.027c-0.089-0.016-0.119-0.02-0.119-0.02
			c-0.09-0.01-0.121-0.012-0.121-0.012c-0.092-0.004-0.107-0.004-0.107-0.004c-0.093,0.002-0.108,0.003-0.108,0.003
			c-0.094,0.008-0.11,0.01-0.11,0.01c-0.095,0.015-0.111,0.018-0.111,0.018c-0.09,0.02-0.115,0.026-0.115,0.026
			c-0.078,0.022-0.104,0.031-0.104,0.031c-0.078,0.027-0.105,0.037-0.105,0.037c-0.079,0.032-0.106,0.043-0.106,0.043
			c-0.08,0.036-0.107,0.049-0.107,0.049c-1.415,0.78-2.286,1.957-3.672,3.317c-0.304,0.301-1.293,1.288-1.981,1.63
			c-0.083,0.044-0.111,0.058-0.111,0.058c-0.083,0.04-0.11,0.052-0.11,0.052c-0.082,0.035-0.109,0.046-0.109,0.046
			c-0.081,0.031-0.108,0.04-0.108,0.04c-0.081,0.026-0.107,0.034-0.107,0.034c-0.08,0.021-0.107,0.027-0.107,0.027
			c-0.079,0.016-0.105,0.02-0.105,0.02c-0.078,0.011-0.104,0.013-0.104,0.013c-0.078,0.005-0.103,0.006-0.103,0.006
			c-0.102-0.002-0.128-0.003-0.128-0.003c-0.096-0.011-0.117-0.014-0.117-0.014c-0.082-0.016-0.103-0.021-0.103-0.021
			c-0.102-0.029-0.122-0.036-0.122-0.036c-0.1-0.039-0.12-0.047-0.12-0.047c-0.099-0.047-0.119-0.058-0.119-0.058
			c-0.098-0.056-0.117-0.068-0.117-0.068c-0.097-0.063-0.116-0.077-0.116-0.077c-0.095-0.071-0.133-0.1-0.133-0.1
			c-0.075-0.062-0.113-0.095-0.113-0.095c-0.075-0.067-0.112-0.102-0.112-0.102c-0.578-0.567-0.879-1.036-1.568-1.938
			c-0.087-0.113-0.488-0.625-0.751-0.865c-0.073-0.069-0.11-0.102-0.11-0.102c-0.074-0.064-0.111-0.094-0.111-0.094
			c-0.093-0.073-0.112-0.087-0.112-0.087c-0.094-0.066-0.113-0.078-0.113-0.078c-0.095-0.058-0.115-0.069-0.115-0.069
			c-0.096-0.05-0.116-0.059-0.116-0.059c-0.098-0.041-0.117-0.049-0.117-0.049c-0.099-0.032-0.119-0.038-0.119-0.038
			c-0.1-0.023-0.12-0.026-0.12-0.026c-0.102-0.013-0.122-0.014-0.122-0.014c-0.082-0.002-0.103-0.002-0.103-0.002
			c-0.083,0.005-0.104,0.007-0.104,0.007c-0.09,0.014-0.12,0.02-0.12,0.02c-0.091,0.023-0.121,0.032-0.121,0.032
			c-0.092,0.031-0.123,0.043-0.123,0.043c-0.093,0.04-0.125,0.054-0.125,0.054c-0.094,0.048-0.126,0.065-0.126,0.065
			c-0.096,0.056-0.128,0.075-0.128,0.075c-0.097,0.063-0.129,0.085-0.129,0.085c-0.098,0.07-0.13,0.095-0.13,0.095
			c-2.425,2.023-3.746,5.345-6.392,7.782c-0.101,0.083-0.135,0.109-0.135,0.109c-0.1,0.076-0.133,0.1-0.133,0.1
			c-0.099,0.069-0.132,0.091-0.132,0.091c-0.098,0.062-0.131,0.081-0.131,0.081c-0.097,0.054-0.13,0.071-0.13,0.071
			c-0.096,0.046-0.128,0.06-0.128,0.06c-0.095,0.038-0.127,0.049-0.127,0.049c-0.094,0.03-0.125,0.038-0.125,0.038
			c-0.093,0.021-0.124,0.026-0.124,0.026c-0.092,0.012-0.122,0.014-0.122,0.014c-0.091,0.002-0.121,0.002-0.121,0.002
			c-0.091-0.007-0.114-0.01-0.114-0.01c-0.09-0.016-0.112-0.022-0.112-0.022c-0.089-0.025-0.111-0.033-0.111-0.033
			c-0.088-0.034-0.109-0.043-0.109-0.043c-0.087-0.042-0.108-0.053-0.108-0.053c-0.086-0.049-0.107-0.062-0.107-0.062
			c-0.084-0.056-0.105-0.072-0.105-0.072c-0.083-0.063-0.104-0.08-0.104-0.08c-0.083-0.07-0.103-0.088-0.103-0.088
			c-0.102-0.096-0.142-0.136-0.142-0.136c-0.08-0.084-0.12-0.128-0.12-0.128c-0.079-0.091-0.119-0.137-0.119-0.137
			c-0.354-0.452-0.471-0.613-0.903-1.343c-0.394-0.657-1.007-1.899-1.641-2.694c-0.069-0.082-0.104-0.121-0.104-0.121
			c-0.087-0.093-0.104-0.11-0.104-0.11c-0.087-0.083-0.105-0.099-0.105-0.099c-0.088-0.073-0.105-0.087-0.105-0.087
			c-0.088-0.062-0.106-0.074-0.106-0.074c-0.089-0.051-0.106-0.06-0.106-0.06c-0.089-0.039-0.107-0.045-0.107-0.045
			c-0.09-0.026-0.108-0.03-0.108-0.03c-0.101-0.013-0.118-0.014-0.118-0.014c-0.098,0.002-0.115,0.004-0.115,0.004
			c-0.099,0.017-0.116,0.02-0.116,0.02c-0.1,0.03-0.117,0.036-0.117,0.036c-0.101,0.042-0.117,0.05-0.117,0.05
			c-0.101,0.054-0.118,0.064-0.118,0.064c-0.102,0.065-0.119,0.077-0.119,0.077c-0.086,0.062-0.12,0.088-0.12,0.088
			c-0.069,0.055-0.104,0.084-0.104,0.084c-0.312,0.284-0.361,0.327-0.776,0.8c-0.385,0.434-1.148,1.447-1.823,1.977
			c-0.077,0.059-0.115,0.087-0.115,0.087c-0.077,0.054-0.115,0.079-0.115,0.079c-0.096,0.06-0.116,0.071-0.116,0.071
			c-0.097,0.052-0.116,0.062-0.116,0.062c-0.097,0.044-0.116,0.052-0.116,0.052c-0.097,0.036-0.117,0.042-0.117,0.042
			c-0.097,0.027-0.117,0.032-0.117,0.032c-0.098,0.018-0.117,0.02-0.117,0.02c-0.098,0.008-0.117,0.008-0.117,0.008
			c-0.099-0.002-0.113-0.003-0.113-0.003c-0.099-0.012-0.113-0.015-0.113-0.015c-0.099-0.022-0.113-0.025-0.113-0.025
			c-0.099-0.031-0.114-0.036-0.114-0.036c-0.099-0.039-0.114-0.045-0.114-0.045c-0.086-0.04-0.114-0.055-0.114-0.055
			c-0.086-0.047-0.114-0.064-0.114-0.064c-0.086-0.054-0.115-0.073-0.115-0.073c-0.086-0.06-0.115-0.081-0.115-0.081
			c-0.086-0.066-0.115-0.089-0.115-0.089c-1.008-0.86-1.641-1.91-2.612-3.219c-2.755,5.507-5.296,10.508-8.915,15.976
			c-14.612,19.619-17.267,32.696-17.815,56.111c-1.729,16.006-3.391,35.047-16.666,46.611c-4.58,4.05-11.894,5.891-16.478,10.582
			c-4.982,7.923-6.325,19.666-6.973,29.235c-1.151,18.484-1.869,42.649,0.668,61.012c2.446,75.69,21.055,31.954,27.524,67.029
			c0.131,1.338,0.093,3.045-0.797,4.243c-0.074,0.102-0.099,0.136-0.099,0.136c-0.078,0.099-0.105,0.132-0.105,0.132
			c-0.082,0.097-0.11,0.129-0.11,0.129c-0.086,0.094-0.115,0.125-0.115,0.125c-0.09,0.092-0.121,0.122-0.121,0.122
			c-2.463,2.122-5.646,2.329-9.13,2.699c-31.252,0.375-35.763,4.249-36.195-30.358c-0.227-3.911-2.618-7.271-4.019-11.252
			c-1.505-4.826-1.609-11.141-2.448-16.402c-0.185-2.81-1.677-4.941-2.951-7.638c-1.102-3.423-1.04-9.145-1.381-12.985
			c-0.074-10.577-6.536-7.346-3.941-29.203c-0.085-1.37-0.501-2.589-1.31-3.937c-4.409-5.907-0.894-7.838-1.193-14.971
			c-1.256-7.52-7.062-12.954-4.38-21.715c-0.001-0.082-0.002-0.122-0.002-0.122c-0.004-0.08-0.007-0.119-0.007-0.119
			c-0.007-0.078-0.012-0.116-0.012-0.116c-0.011-0.075-0.017-0.113-0.017-0.113c-0.018-0.091-0.022-0.109-0.022-0.109
			c-0.023-0.089-0.028-0.106-0.028-0.106c-0.03-0.094-0.041-0.123-0.041-0.123c-0.035-0.086-0.048-0.115-0.048-0.115
			c-0.04-0.084-0.055-0.111-0.055-0.111c-0.046-0.081-0.062-0.108-0.062-0.108c-0.05-0.079-0.068-0.106-0.068-0.106
			c-0.055-0.078-0.074-0.104-0.074-0.104c-0.059-0.077-0.1-0.128-0.1-0.128c-0.096-0.111-0.024-0.037-0.268-0.305
			c-3.078-2.72-2.396-6.7-2.151-11.022c-7.556,0.601-15.647-3.823-23.406-1.921c-0.169,0.069-1.09,0.535-1.611,0.666
			c-0.096,0.024-0.128,0.032-0.128,0.032c-0.098,0.021-0.13,0.027-0.13,0.027c-0.099,0.017-0.133,0.023-0.133,0.023
			c-3.009,0.181-5.516-2.423-8.756-2.684c-0.086-0.002-0.115-0.002-0.115-0.002c-0.085,0.001-0.113,0.002-0.113,0.002
			c-0.083,0.005-0.11,0.007-0.11,0.007c-0.081,0.008-0.108,0.011-0.108,0.011c-0.079,0.011-0.105,0.016-0.105,0.016
			c-0.077,0.015-0.103,0.02-0.103,0.02c-0.097,0.024-0.116,0.03-0.116,0.03c-0.094,0.03-0.112,0.036-0.112,0.036
			c-0.091,0.034-0.109,0.042-0.109,0.042c-0.088,0.039-0.106,0.048-0.106,0.048c-0.069,0.035-0.103,0.053-0.103,0.053
			c-0.1,0.058-0.133,0.078-0.133,0.078c-0.097,0.064-0.129,0.086-0.129,0.086c-0.094,0.07-0.126,0.094-0.126,0.094
			c-0.092,0.075-0.122,0.101-0.122,0.101c-0.52,0.436-0.978,1.102-1.682,1.733c-0.111,0.093-0.156,0.136-0.344,0.271
			c-0.073,0.05-0.109,0.074-0.109,0.074c-0.075,0.047-0.113,0.07-0.113,0.07c-0.077,0.045-0.116,0.066-0.116,0.066
			c-0.079,0.042-0.12,0.062-0.12,0.062c-0.082,0.039-0.124,0.057-0.124,0.057c-0.085,0.035-0.128,0.052-0.128,0.052
			c-0.088,0.032-0.132,0.047-0.132,0.047c-0.091,0.028-0.137,0.041-0.137,0.041c-0.094,0.024-0.141,0.035-0.141,0.035
			c-0.097,0.02-0.146,0.029-0.146,0.029c-0.098,0.015-0.148,0.022-0.148,0.022c-8.248-0.018-17.196-10.495-24.978-2.276
			c-0.094,0.06-0.107,0.071-0.3,0.185c-0.1,0.055-0.15,0.082-0.15,0.082c-0.1,0.05-0.15,0.074-0.15,0.074
			c-0.1,0.045-0.15,0.065-0.15,0.065c-0.101,0.039-0.126,0.048-0.126,0.048c-0.101,0.033-0.126,0.041-0.126,0.041
			c-0.101,0.028-0.127,0.034-0.127,0.034c-0.102,0.022-0.128,0.027-0.128,0.027c-0.077,0.013-0.103,0.016-0.103,0.016
			c-0.077,0.009-0.103,0.011-0.103,0.011c-0.078,0.005-0.104,0.006-0.104,0.006c-0.078,0.001-0.105,0.001-0.105,0.001
			c-0.079-0.003-0.105-0.005-0.105-0.005c-0.08-0.007-0.106-0.011-0.106-0.011c-0.08-0.012-0.107-0.017-0.107-0.017
			c-0.088-0.018-0.123-0.026-0.123-0.026c-0.069-0.018-0.104-0.028-0.104-0.028c-0.07-0.022-0.105-0.033-0.105-0.033
			c-0.071-0.025-0.106-0.038-0.106-0.038c-0.071-0.029-0.107-0.044-0.107-0.044c-3.505-1.811-5.412-6.457-9.472-8.098
			c-0.085-0.025-0.128-0.037-0.128-0.037c-0.085-0.022-0.128-0.032-0.128-0.032c-0.085-0.018-0.127-0.027-0.127-0.027
			c-0.085-0.015-0.127-0.021-0.127-0.021c-0.085-0.011-0.117-0.015-0.117-0.015c-0.099-0.008-0.132-0.01-0.132-0.01
			c-0.098-0.004-0.131-0.005-0.131-0.005c-0.098,0-0.131,0.001-0.131,0.001c-0.098,0.005-0.13,0.007-0.13,0.007
			c-0.098,0.009-0.13,0.012-0.13,0.012c-0.097,0.012-0.13,0.017-0.13,0.017c-0.097,0.016-0.129,0.022-0.129,0.022
			c-2.002,0.393-3.37,2.151-5.48,2.968c-0.082,0.026-0.11,0.034-0.11,0.034c-0.082,0.023-0.109,0.03-0.109,0.03
			c-0.082,0.019-0.109,0.025-0.109,0.025c-0.081,0.015-0.108,0.02-0.108,0.02c-0.081,0.012-0.108,0.015-0.108,0.015
			c-0.081,0.008-0.107,0.01-0.107,0.01c-0.08,0.004-0.107,0.004-0.107,0.004c-0.08-0.001-0.107-0.001-0.107-0.001
			c-0.08-0.005-0.106-0.007-0.106-0.007c-0.079-0.009-0.106-0.013-0.106-0.013c-0.079-0.014-0.105-0.02-0.105-0.02
			c-0.083-0.02-0.11-0.027-0.11-0.027c-0.082-0.025-0.11-0.034-0.11-0.034c-0.082-0.03-0.109-0.041-0.109-0.041
			c-0.082-0.035-0.109-0.048-0.109-0.048c-0.081-0.04-0.108-0.054-0.108-0.054c-0.081-0.044-0.108-0.06-0.108-0.06
			c-0.081-0.049-0.107-0.066-0.107-0.066c-1.826-1.274-2.733-3.512-4.508-5.271c-0.099-0.092-0.149-0.137-0.149-0.137
			c-0.099-0.085-0.149-0.126-0.149-0.126c-0.1-0.078-0.125-0.096-0.125-0.096c-0.1-0.071-0.125-0.088-0.125-0.088
			c-0.1-0.064-0.125-0.079-0.125-0.079c-0.1-0.057-0.125-0.07-0.125-0.07c-0.1-0.049-0.126-0.06-0.126-0.06
			c-0.101-0.041-0.126-0.05-0.126-0.05c-0.101-0.033-0.126-0.04-0.126-0.04c-0.102-0.024-0.128-0.029-0.128-0.029
			c-0.079-0.012-0.105-0.015-0.105-0.015c-0.079-0.007-0.106-0.008-0.106-0.008c-0.079-0.001-0.106-0.001-0.106-0.001
			c-0.08,0.004-0.106,0.006-0.106,0.006c-0.08,0.009-0.107,0.013-0.107,0.013c-0.08,0.014-0.107,0.02-0.107,0.02
			c-0.081,0.019-0.107,0.026-0.107,0.026c-0.081,0.023-0.108,0.032-0.108,0.032c-0.081,0.028-0.108,0.038-0.108,0.038
			c-0.082,0.032-0.109,0.044-0.109,0.044c-6.56,4.698-6.836,7.045-16.363,1.625l-5.421-3.235c-2.479-1.442-6.336-3.633-9.393-1.577
			c-9.143,5.874-15.087-9.475-26.001-4.378c-0.099,0.006-0.148,0.008-0.148,0.008c-0.099,0.002-0.149,0.003-0.149,0.003
			c-0.1-0.002-0.15-0.003-0.15-0.003c-0.101-0.006-0.152-0.01-0.152-0.01c-2.95-0.376-5.117-3.234-8.25-3.885
			c-0.088-0.012-0.118-0.016-0.118-0.016c-0.114-0.01-0.123-0.016-0.323-0.02c-0.102,0.001-0.153,0.003-0.153,0.003
			c-0.101,0.006-0.151,0.01-0.151,0.01c-0.1,0.011-0.15,0.017-0.15,0.017c-0.099,0.015-0.148,0.024-0.148,0.024
			c-0.098,0.02-0.147,0.031-0.147,0.031c-0.097,0.024-0.146,0.037-0.146,0.037c-0.097,0.028-0.145,0.044-0.145,0.044
			c-0.096,0.032-0.144,0.049-0.144,0.049C280.947,394.853,278.296,396.123,269.019,393.336z"/>
	</g>
</g>
</svg>
