<?xml version="1.0" encoding="utf-8"?>
<!-- Generator: Adobe Illustrator 24.0.1, SVG Export Plug-In . SVG Version: 6.00 Build 0)  -->
<!DOCTYPE svg PUBLIC "-//W3C//DTD SVG 1.1//EN" "http://www.w3.org/Graphics/SVG/1.1/DTD/svg11.dtd" [
	<!ENTITY ns_extend "http://ns.adobe.com/Extensibility/1.0/">
	<!ENTITY ns_ai "http://ns.adobe.com/AdobeIllustrator/10.0/">
	<!ENTITY ns_graphs "http://ns.adobe.com/Graphs/1.0/">
	<!ENTITY ns_vars "http://ns.adobe.com/Variables/1.0/">
	<!ENTITY ns_imrep "http://ns.adobe.com/ImageReplacement/1.0/">
	<!ENTITY ns_sfw "http://ns.adobe.com/SaveForWeb/1.0/">
	<!ENTITY ns_custom "http://ns.adobe.com/GenericCustomNamespace/1.0/">
	<!ENTITY ns_adobe_xpath "http://ns.adobe.com/XPath/1.0/">
]>
<svg version="1.1" xmlns:x="&ns_extend;" xmlns:i="&ns_ai;" xmlns:graph="&ns_graphs;"
	 xmlns="http://www.w3.org/2000/svg" xmlns:xlink="http://www.w3.org/1999/xlink" x="0px" y="0px" viewBox="0 0 750 750"
	 enable-background="new 0 0 750 750" xml:space="preserve">
<metadata>
	<sfw  xmlns="&ns_sfw;">
		<slices></slices>
		<sliceSourceBounds  bottomLeftOrigin="true" height="15878.78" width="11141.354" x="-4000" y="-7507.207"></sliceSourceBounds>
	</sfw>
</metadata>
<g id="FILL-BACKGROUND">
	<rect fill="#FFFFFF" width="750" height="750"/>
</g>
<g id="N-TEXT">
</g>
<g id="N-DIMENSIONS">
</g>
<g id="AG-DIAGRAM">
	<g id="POLYLINE_2959_">
		<g>
			<g>
				
					<line fill="none" stroke="#FB8604" stroke-width="3.25" stroke-linecap="round" stroke-linejoin="round" x1="127.551" y1="541.571" x2="129.551" y2="541.571"/>
				
					<line fill="none" stroke="#FB8604" stroke-width="3.25" stroke-linecap="round" stroke-linejoin="round" stroke-dasharray="4.0268,7.0469" x1="136.598" y1="541.571" x2="542.798" y2="541.571"/>
				
					<line fill="none" stroke="#FB8604" stroke-width="3.25" stroke-linecap="round" stroke-linejoin="round" x1="546.322" y1="541.571" x2="548.322" y2="541.571"/>
			</g>
		</g>
	</g>
</g>
<g id="AG-DETAILS">
</g>
<g id="AG-DETAIL">
</g>
<g id="AG-PEOPLE">
</g>
<g id="AG-ANIMALS">
	<g id="POLYLINE_1595_">
		
			<path fill="none" stroke="#FB8604" stroke-width="2.75" stroke-linecap="round" stroke-linejoin="round" stroke-miterlimit="10" d="
			M246.935,329.664c4.012-2.244,9.204-4.269,14.371-3.495c0.23,0.044,0.344,0.069,0.344,0.069c0.225,0.052,0.337,0.08,0.337,0.08
			c0.22,0.06,0.329,0.092,0.329,0.092c0.215,0.068,0.321,0.104,0.321,0.104c0.209,0.076,0.312,0.116,0.312,0.116
			c0.198,0.082,0.292,0.124,0.292,0.124c0.187,0.087,0.279,0.132,0.279,0.132c0.182,0.094,0.271,0.143,0.271,0.143
			c0.177,0.101,0.264,0.154,0.264,0.154c0.172,0.108,0.257,0.164,0.257,0.164c0.168,0.115,0.25,0.174,0.25,0.174
			c0.244,0.183,0.324,0.247,0.324,0.247c0.236,0.196,0.313,0.263,0.313,0.263c0.228,0.208,0.303,0.279,0.303,0.279
			c0.221,0.219,0.294,0.294,0.294,0.294c0.215,0.23,0.285,0.309,0.285,0.309c1.363,1.356,3.51,5.546,4.647,7.647
			c10.673,16.047,23.073,32.019,45.814,19.485c0.242-0.182,0.36-0.275,0.36-0.275c0.229-0.187,0.34-0.282,0.34-0.282
			c0.215-0.193,0.319-0.29,0.319-0.29c0.249-0.248,0.296-0.298,0.296-0.298c0.185-0.203,0.229-0.254,0.229-0.254
			c0.172-0.207,0.213-0.26,0.213-0.26c0.158-0.211,0.196-0.265,0.196-0.265c0.141-0.211,0.19-0.29,0.19-0.29
			c0.14-0.24,0.184-0.321,0.184-0.321c0.123-0.245,0.161-0.327,0.161-0.327c0.073-0.166,0.107-0.249,0.107-0.249
			c0.065-0.168,0.095-0.253,0.095-0.253c0.057-0.17,0.084-0.256,0.084-0.256c0.05-0.172,0.073-0.259,0.073-0.259
			c0.043-0.174,0.062-0.261,0.062-0.261c0.036-0.176,0.052-0.264,0.052-0.264c0.029-0.177,0.042-0.266,0.042-0.266
			c0.464-4.304-1.875-8.108-2.72-12.65c-0.933-3.603-0.486-11.526-0.417-15.577c0.464-7.505-1.408-17.116-9.578-20.664
			c-3.464-1.811-6.884-3.895-9.901-6.945c-0.185-0.146-0.21-0.174-0.591-0.456c-0.206-0.145-0.312-0.216-0.312-0.216
			c-0.215-0.139-0.325-0.207-0.325-0.207c-0.225-0.132-0.34-0.197-0.34-0.197c-0.236-0.125-0.357-0.186-0.357-0.186
			c-6.749-2.385-14.296-1.108-21.358,1.196c-0.824,0.317-2.106,0.909-3.247,1.225c-0.209,0.054-0.315,0.08-0.315,0.08
			c-0.213,0.047-0.32,0.068-0.32,0.068c-0.218,0.038-0.328,0.055-0.328,0.055c-0.224,0.029-0.337,0.042-0.337,0.042
			c-0.231,0.02-0.348,0.027-0.348,0.027c-0.256,0.007-0.363,0.022-0.866,0.002c-11.302-1.598-17.723-7.608-30.443,0.454
			c-7.11,4.838-15.515,8.04-22.301,13.725c-0.226,0.237-0.3,0.316-0.3,0.316c-0.214,0.241-0.284,0.323-0.284,0.323
			c-0.217,0.269-0.319,0.38-0.634,0.835c-0.113,0.172-0.167,0.259-0.167,0.259c-0.106,0.175-0.156,0.263-0.156,0.263
			c-0.098,0.177-0.145,0.267-0.145,0.267c-0.09,0.18-0.133,0.271-0.133,0.271c-0.082,0.183-0.121,0.275-0.121,0.275
			c-0.074,0.186-0.108,0.279-0.108,0.279c-0.062,0.18-0.091,0.27-0.091,0.27c-0.054,0.182-0.08,0.274-0.08,0.274
			c-0.047,0.185-0.069,0.278-0.069,0.278c-0.04,0.187-0.058,0.281-0.058,0.281c-0.033,0.189-0.047,0.285-0.047,0.285
			c-0.026,0.191-0.037,0.288-0.037,0.288c-0.398,10.239,9.651,14.856,5.004,29.851c-0.258,2.315,0.367,4.492,1.102,7.04
			c0.07,0.277,0.309,1.188,0.373,1.852c0.019,0.19,0.024,0.253,0.024,0.253c0.012,0.188,0.015,0.25,0.015,0.25
			c0.005,0.247,0.004,0.309,0.004,0.309c-0.009,0.244-0.013,0.304-0.013,0.304c-0.024,0.24-0.032,0.299-0.032,0.299
			c-0.04,0.235-0.053,0.294-0.053,0.294c-0.058,0.231-0.067,0.264-0.067,0.264c-0.073,0.226-0.097,0.289-0.097,0.289
			c-0.077,0.19-0.105,0.253-0.105,0.253c-0.09,0.188-0.122,0.25-0.122,0.25c-0.138,0.247-0.176,0.308-0.176,0.308
			c-0.158,0.244-0.199,0.304-0.199,0.304c-0.176,0.241-0.221,0.301-0.221,0.301c-0.192,0.24-0.293,0.359-0.293,0.359
			c-0.21,0.238-0.32,0.357-0.32,0.357c-5.874,4.583-9.73,10.816-11.431,18.831c-2.393,10.786-6.547,21.873-8.973,32.808
			c-2.003,13.549-5.604,26.452-20.255,33.273c-6.645,3.342-12.372,5.924-17.099,12.808c-12.2,19.282-19.658,43.299-15.211,66.579
			c3.641,11.671,17.273,19.616,30.54,18.195c9.693-0.357,16.835,1.399,24.47-1.472c0.223-0.108,0.333-0.164,0.333-0.164
			c0.216-0.115,0.323-0.175,0.323-0.175c0.21-0.122,0.313-0.186,0.313-0.186c0.203-0.13,0.302-0.197,0.302-0.197
			c0.195-0.137,0.291-0.208,0.291-0.208c0.181-0.14,0.266-0.208,0.266-0.208c0.167-0.141,0.249-0.213,0.249-0.213
			c0.24-0.222,0.319-0.298,0.319-0.298c0.229-0.234,0.303-0.314,0.303-0.314c4.27-5.281,4.212-13.176,11.867-17.285
			c4.517-3.017,9.657-6.26,11.77-12.052l1.186-3.157c0.449-1.125,1.197-2.876,2.273-4.118c0.168-0.197,0.225-0.261,0.225-0.261
			c0.205-0.222,0.275-0.295,0.275-0.295c3.739-3.765,9.779-5.132,13.546-9.773c3.446-6.143,9.45-9.665,15.359-13.977
			c0.187-0.202,0.249-0.27,0.249-0.27c0.18-0.209,0.238-0.279,0.238-0.279c0.172-0.216,0.228-0.289,0.228-0.289
			c2.295-3.013,2.798-7.189,5.21-10.587c5.148-5.237,9.557-7.13,13.537-16.609c0.153-0.209,0.205-0.277,0.205-0.277
			c0.158-0.2,0.212-0.265,0.212-0.265c0.164-0.19,0.219-0.251,0.219-0.251c0.228-0.237,0.286-0.294,0.286-0.294
			c0.239-0.218,0.3-0.27,0.3-0.27c0.187-0.15,0.251-0.198,0.251-0.198c0.195-0.137,0.262-0.18,0.262-0.18
			c0.242-0.145,0.278-0.165,0.278-0.165c0.22-0.113,0.295-0.149,0.295-0.149c0.229-0.1,0.306-0.13,0.306-0.13
			c0.237-0.086,0.317-0.113,0.317-0.113c0.245-0.074,0.328-0.096,0.328-0.096c0.168-0.042,0.253-0.062,0.253-0.062
			c4.653-0.812,9.382,1.1,14.461-0.03c7.47-2.509,14.841-1.034,22.671,1.718c4.113,1.267,8.963,0.099,13.565,1.004
			c6.054,2.587,12.298,6,19.616,5.875c3.681,0.243,8.842,2.108,12.777,3.624c2.224,0.806,4.555,1.328,7.424,1.169l5.748-0.236
			c4.612-0.351,9.896,0.601,14.627,2.84c0.243,0.079,0.364,0.115,0.364,0.115c0.24,0.069,0.358,0.1,0.358,0.1
			c0.236,0.057,0.353,0.083,0.353,0.083c0.233,0.045,0.291,0.055,0.291,0.055c0.231,0.034,0.288,0.04,0.288,0.04
			c0.228,0.021,0.285,0.025,0.285,0.025c0.226,0.008,0.283,0.008,0.283,0.008c0.224-0.006,0.28-0.009,0.28-0.009
			c0.211-0.019,0.262-0.026,0.262-0.026c0.206-0.032,0.257-0.041,0.257-0.041c0.205-0.043,0.256-0.055,0.256-0.055
			c0.204-0.054,0.255-0.069,0.255-0.069c0.153-0.047,0.254-0.082,0.254-0.082c0.203-0.074,0.305-0.113,0.305-0.113
			c0.487-0.208,0.57-0.233,1.331-0.639c3.576-2.664,8.215-2.602,12.674-3.873c0.226-0.087,0.301-0.118,0.301-0.118
			c0.222-0.095,0.295-0.128,0.295-0.128c0.217-0.103,0.288-0.138,0.288-0.138c0.211-0.111,0.281-0.149,0.281-0.149
			c0.205-0.12,0.273-0.161,0.273-0.161c0.199-0.129,0.264-0.174,0.264-0.174c0.193-0.139,0.256-0.187,0.256-0.187
			c0.248-0.2,0.309-0.252,0.309-0.252c0.238-0.214,0.297-0.27,0.297-0.27c2.064-1.985,3.072-4.86,5.081-7.378
			c0.207-0.243,0.312-0.362,0.312-0.362c0.206-0.22,0.307-0.322,0.307-0.322c0.205-0.198,0.31-0.295,0.31-0.295
			c0.212-0.187,0.319-0.278,0.319-0.278c0.218-0.177,0.328-0.263,0.328-0.263c1.436-1.108,3.121-1.837,4.912-3.024
			c0.34-0.238,0.517-0.348,1.054-0.781c3.145-2.801,4.815-6.367,6.089-10.935"/>
	</g>
	<g id="POLYLINE_1594_">
		
			<path fill="none" stroke="#FB8604" stroke-width="2.75" stroke-linecap="round" stroke-linejoin="round" stroke-miterlimit="10" d="
			M396.175,462.899c1.247,3.406,2.489,7.465,1.689,11.561l-0.707,4.575c-0.684,3.926-0.197,8.185,1.931,11.934l2.681,5.192
			c3.568,7.553,4.316,17.352,8,25.542c0.043,0.222,0.062,0.334,0.062,0.334c0.033,0.215,0.047,0.319,0.047,0.319
			c0.024,0.208,0.034,0.313,0.034,0.313c0.274,4.052-1.745,8.432-0.703,12.875c0.05,0.192,0.068,0.255,0.068,0.255
			c0.056,0.188,0.076,0.249,0.076,0.249c0.084,0.244,0.107,0.304,0.107,0.304c0.095,0.236,0.121,0.294,0.121,0.294
			c0.107,0.228,0.135,0.284,0.135,0.284c0.119,0.219,0.15,0.273,0.15,0.273c0.131,0.21,0.166,0.261,0.166,0.261
			c0.144,0.2,0.182,0.249,0.182,0.249c0.199,0.237,0.241,0.282,0.241,0.282c0.219,0.221,0.265,0.264,0.265,0.264
			c0.238,0.206,0.287,0.246,0.287,0.246c0.203,0.154,0.255,0.192,0.255,0.192c0.214,0.145,0.269,0.18,0.269,0.18
			c0.224,0.136,0.281,0.169,0.281,0.169c0.175,0.096,0.293,0.159,0.293,0.159c8.164,3.193,22.502,2.115,30.207,2.414
			c13.706-0.549,25.848,1.093,38.397-1.919c0.188-0.079,0.28-0.12,0.28-0.12c0.181-0.085,0.27-0.129,0.27-0.129
			c0.174-0.092,0.259-0.139,0.259-0.139c0.248-0.149,0.288-0.175,0.288-0.175c0.235-0.162,0.273-0.19,0.273-0.19
			c0.221-0.176,0.257-0.206,0.257-0.206c0.24-0.223,0.273-0.257,0.273-0.257c0.221-0.244,0.251-0.28,0.251-0.28
			c0.173-0.227,0.201-0.266,0.201-0.266c0.158-0.244,0.183-0.286,0.183-0.286c0.129-0.235,0.156-0.289,0.156-0.289
			c0.103-0.222,0.128-0.279,0.128-0.279c0.093-0.234,0.116-0.294,0.116-0.294c0.329-0.999,0.444-1.567,0.627-3.007
			c0.278-8.196,6.266-15.346,3.471-24.174c-1.256-5.605,3.017-11.474,0.254-17.387c-7.571-16.933,2.972-14.359,2.773-32.188
			c-0.058-0.479-0.206-1.303-0.274-2.154c-0.012-0.212-0.014-0.282-0.014-0.282c-0.003-0.209-0.002-0.279-0.002-0.279
			c0.008-0.207,0.012-0.275,0.012-0.275c0.02-0.205,0.029-0.273,0.029-0.273c0.04-0.237,0.047-0.271,0.047-0.271
			c0.057-0.237,0.067-0.27,0.067-0.27c0.076-0.237,0.089-0.27,0.089-0.27c0.097-0.237,0.115-0.276,0.115-0.276
			c0.096-0.198,0.137-0.278,0.137-0.278c0.133-0.239,0.181-0.319,0.181-0.319c0.589-0.972,1.4-1.868,2.216-3.124
			c0.106-0.173,0.128-0.197,0.33-0.551c0.101-0.188,0.15-0.282,0.15-0.282c0.093-0.19,0.137-0.286,0.137-0.286
			c0.084-0.194,0.123-0.291,0.123-0.291c0.075-0.201,0.093-0.252,0.093-0.252c0.051-0.155,0.082-0.259,0.082-0.259
			c0.058-0.21,0.084-0.316,0.084-0.316c0.048-0.213,0.07-0.32,0.07-0.32c0.039-0.215,0.057-0.324,0.057-0.324
			c0.172-0.854,0.137-3.052,0.152-4.106c0.009-0.211,0-0.238,0.042-0.865c0.019-0.199,0.017-0.231,0.069-0.63
			c0.031-0.196,0.048-0.293,0.048-0.293c0.037-0.193,0.057-0.289,0.057-0.289c0.044-0.19,0.067-0.285,0.067-0.285
			c0.917-3.589,3.844-5.598,6.314-8.639c0.147-0.195,0.174-0.222,0.457-0.623c0.141-0.212,0.209-0.318,0.209-0.318
			c0.132-0.215,0.195-0.323,0.195-0.323c0.121-0.218,0.179-0.327,0.179-0.327c0.11-0.221,0.161-0.333,0.161-0.333
			c0.097-0.225,0.12-0.281,0.12-0.281c0.086-0.228,0.106-0.285,0.106-0.285c0.073-0.225,0.089-0.28,0.089-0.28
			c0.06-0.222,0.074-0.278,0.074-0.278c0.051-0.224,0.073-0.337,0.073-0.337c0.04-0.227,0.058-0.341,0.058-0.341
			c0.212-1.397,0.052-2.809,0.133-4.674c0.016-0.213,0.013-0.247,0.061-0.675c0.031-0.221,0.048-0.331,0.048-0.331
			c0.04-0.218,0.063-0.325,0.063-0.325c0.051-0.214,0.064-0.265,0.064-0.265c0.042-0.152,0.073-0.252,0.073-0.252
			c0.066-0.199,0.101-0.297,0.101-0.297c0.076-0.195,0.116-0.291,0.116-0.291c0.085-0.191,0.13-0.286,0.13-0.286
			c0.094-0.187,0.143-0.28,0.143-0.28c0.103-0.184,0.156-0.274,0.156-0.274c0.111-0.18,0.168-0.269,0.168-0.269
			c0.118-0.176,0.18-0.263,0.18-0.263c0.126-0.172,0.191-0.258,0.191-0.258c0.133-0.169,0.201-0.252,0.201-0.252
			c0.211-0.247,0.283-0.328,0.283-0.328c0.223-0.24,0.299-0.318,0.299-0.318c1.495-1.563,3.321-2.467,5.463-3.936
			c0.244-0.182,0.324-0.244,0.324-0.244c0.234-0.188,0.31-0.252,0.31-0.252c0.222-0.196,0.294-0.262,0.294-0.262
			c0.209-0.204,0.276-0.274,0.276-0.274c0.194-0.214,0.256-0.288,0.256-0.288c0.178-0.226,0.206-0.264,0.206-0.264
			c0.163-0.237,0.189-0.277,0.189-0.277c0.131-0.221,0.157-0.268,0.157-0.268c0.123-0.24,0.146-0.289,0.146-0.289
			c0.089-0.2,0.11-0.25,0.11-0.25c0.061-0.154,0.099-0.258,0.099-0.258c0.073-0.212,0.107-0.32,0.107-0.32
			c0.064-0.22,0.094-0.331,0.094-0.331c0.21-0.934,0.239-0.989,0.4-2.442c0.1-4.515,1.899-9.546,2.73-14.397
			c0.436-3.011-0.012-6.612,1.029-9.988l1.092-3.777c0.594-2.171,1.05-4.731,0.727-7.521c0,0-0.375-3.827-0.375-3.827
			c-0.036-0.489-0.14-1.832-0.038-2.795c0.025-0.241,0.034-0.321,0.034-0.321c0.033-0.235,0.045-0.313,0.045-0.313
			c0.042-0.229,0.057-0.305,0.057-0.305c0.051-0.223,0.07-0.296,0.07-0.296c0.061-0.216,0.084-0.287,0.084-0.287
			c0.072-0.209,0.098-0.278,0.098-0.278c0.083-0.202,0.113-0.268,0.113-0.268c0.1-0.203,0.126-0.253,0.126-0.253
			c0.141-0.244,0.17-0.291,0.17-0.291c0.156-0.233,0.189-0.279,0.189-0.279c0.17-0.224,0.241-0.312,0.241-0.312
			c0.146-0.172,0.222-0.256,0.222-0.256c0.233-0.248,0.314-0.328,0.314-0.328c0.495-0.49,1.063-0.952,1.971-1.717
			c0.167-0.146,0.33-0.292,0.33-0.292c0.237-0.222,0.313-0.297,0.313-0.297c0.221-0.227,0.292-0.304,0.292-0.304
			c0.202-0.234,0.234-0.274,0.234-0.274c0.182-0.242,0.211-0.283,0.211-0.283c0.135-0.209,0.16-0.252,0.16-0.252
			c0.129-0.241,0.149-0.282,0.149-0.282c0.092-0.207,0.11-0.249,0.11-0.249c0.08-0.213,0.094-0.256,0.094-0.256
			c0.068-0.218,0.093-0.306,0.093-0.306c0.046-0.178,0.067-0.268,0.067-0.268c0.255-1.068,0.23-2.5,0.53-3.875
			c0.045-0.184,0.069-0.275,0.069-0.275c0.053-0.181,0.081-0.271,0.081-0.271c0.079-0.225,0.096-0.27,0.096-0.27
			c0.072-0.178,0.111-0.266,0.111-0.266c0.081-0.174,0.124-0.261,0.124-0.261c0.09-0.171,0.137-0.255,0.137-0.255
			c0.098-0.167,0.149-0.25,0.149-0.25c0.16-0.245,0.216-0.326,0.216-0.326c0.174-0.238,0.234-0.316,0.234-0.316
			c0.187-0.231,0.251-0.307,0.251-0.307c0.198-0.225,0.265-0.298,0.265-0.298c0.794-0.814,1.333-1.296,2.608-2.189"/>
	</g>
	<g id="POLYLINE_1593_">
		
			<path fill="none" stroke="#FB8604" stroke-width="2.75" stroke-linecap="round" stroke-linejoin="round" stroke-miterlimit="10" d="
			M595.234,315.176c-0.243,0-0.282-0.003-0.282-0.003c-0.248-0.031-0.267-0.034-0.267-0.034c-0.234-0.059-0.252-0.065-0.252-0.065
			c-0.238-0.094-0.254-0.102-0.254-0.102c-0.239-0.135-0.27-0.156-0.27-0.156c-0.237-0.184-0.266-0.209-0.266-0.209
			c-0.219-0.223-0.246-0.253-0.246-0.253c-0.179-0.226-0.203-0.26-0.203-0.26c-0.143-0.216-0.167-0.254-0.167-0.254
			c-0.135-0.236-0.179-0.319-0.179-0.319c-0.085-0.171-0.126-0.259-0.126-0.259c-0.081-0.181-0.12-0.274-0.12-0.274
			c-1.112-3.184-1.827-7.341-0.994-11.209c0.069-0.245,0.093-0.324,0.093-0.324c0.078-0.234,0.105-0.31,0.105-0.31
			c0.087-0.222,0.117-0.294,0.117-0.294c0.096-0.21,0.13-0.277,0.13-0.277c0.124-0.228,0.143-0.259,0.143-0.259
			c0.156-0.241,0.177-0.269,0.177-0.269c0.194-0.244,0.217-0.269,0.217-0.269c0.239-0.236,0.264-0.257,0.264-0.257
			c0.239-0.18,0.261-0.195,0.261-0.195c0.234-0.137,0.258-0.149,0.258-0.149c0.248-0.112,0.274-0.122,0.274-0.122
			c0.209-0.072,0.262-0.088,0.262-0.088c0.218-0.055,0.273-0.066,0.273-0.066c0.226-0.038,0.283-0.046,0.283-0.046
			c0.233-0.022,0.292-0.026,0.292-0.026c0.24-0.007,0.301-0.007,0.301-0.007c0.246,0.008,0.308,0.012,0.308,0.012
			c0.188,0.016,0.251,0.022,0.251,0.022c0.19,0.024,0.254,0.033,0.254,0.033c0.192,0.032,0.257,0.044,0.257,0.044
			c1.017,0.209,2.055,0.59,3.179,1.265c0.246,0.151,0.367,0.229,0.367,0.229c0.239,0.16,0.356,0.241,0.356,0.241
			c0.23,0.167,0.343,0.252,0.343,0.252c0.22,0.173,0.327,0.26,0.327,0.26c0.208,0.178,0.31,0.268,0.31,0.268
			c0.198,0.183,0.294,0.276,0.294,0.276c0.187,0.189,0.278,0.285,0.278,0.285c0.176,0.194,0.261,0.293,0.261,0.293
			c0.164,0.2,0.243,0.301,0.243,0.301c0.152,0.205,0.225,0.309,0.225,0.309c0.139,0.21,0.173,0.263,0.173,0.263
			c0.128,0.214,0.159,0.268,0.159,0.268c0.117,0.218,0.145,0.272,0.145,0.272c0.106,0.221,0.131,0.277,0.131,0.277
			c0.094,0.225,0.116,0.282,0.116,0.282c0.082,0.228,0.101,0.286,0.101,0.286c0.069,0.232,0.085,0.29,0.085,0.29
			c0.057,0.235,0.069,0.294,0.069,0.294c0.043,0.238,0.053,0.298,0.053,0.298c0.03,0.241,0.036,0.302,0.036,0.302
			c0.016,0.244,0.019,0.305,0.019,0.305c0.002,0.247,0.001,0.309,0.001,0.309c-0.008,0.187-0.012,0.249-0.012,0.249
			c-0.017,0.188-0.024,0.251-0.024,0.251c-0.026,0.19-0.036,0.253-0.036,0.253c-0.035,0.191-0.048,0.255-0.048,0.255
			c-0.044,0.193-0.06,0.257-0.06,0.257c-0.053,0.194-0.073,0.259-0.073,0.259c-0.063,0.195-0.085,0.26-0.085,0.26
			c-0.086,0.231-0.117,0.308-0.117,0.308c-0.099,0.232-0.134,0.31-0.134,0.31c-0.111,0.233-0.15,0.31-0.15,0.31
			c-1.091,2.022-2.765,3.886-5.038,5.261c-0.215,0.122-0.286,0.161-0.286,0.161c-0.213,0.111-0.283,0.146-0.283,0.146
			c-0.21,0.099-0.279,0.13-0.279,0.13c-0.206,0.087-0.274,0.114-0.274,0.114c-0.202,0.074-0.269,0.096-0.269,0.096
			c-0.197,0.061-0.262,0.079-0.262,0.079c-0.192,0.047-0.254,0.06-0.254,0.06C595.47,315.156,595.44,315.159,595.234,315.176z"/>
	</g>
	<g id="POLYLINE_1513_">
		
			<path fill="none" stroke="#FB8604" stroke-width="2.75" stroke-linecap="round" stroke-linejoin="round" stroke-miterlimit="10" d="
			M483.204,278.832l-1.259,3.177c-1.281,3.971-4.827,7.33-7.44,11.01c-0.144,0.248-0.213,0.372-0.213,0.372
			c-0.128,0.247-0.158,0.309-0.158,0.309c-0.113,0.246-0.139,0.308-0.139,0.308c-0.096,0.245-0.118,0.306-0.118,0.306
			c-0.079,0.244-0.096,0.305-0.096,0.305c-0.06,0.243-0.073,0.304-0.073,0.304c-0.04,0.242-0.048,0.303-0.048,0.303
			c-0.018,0.203-0.02,0.254-0.02,0.254c-0.003,0.202-0.003,0.253-0.003,0.253c0.01,0.202,0.014,0.252,0.014,0.252
			c0.023,0.201,0.03,0.251,0.03,0.251c0.035,0.2,0.045,0.25,0.045,0.25c0.046,0.2,0.059,0.25,0.059,0.25
			c0.056,0.199,0.072,0.249,0.072,0.249c0.049,0.149,0.083,0.249,0.083,0.249c0.075,0.199,0.115,0.298,0.115,0.298
			c0.084,0.198,0.129,0.297,0.129,0.297c2.996,4.209,3.929,9.861,7.361,14.291c0.168,0.191,0.254,0.284,0.254,0.284
			c0.173,0.182,0.26,0.27,0.26,0.27c0.177,0.171,0.266,0.254,0.266,0.254c0.181,0.16,0.272,0.236,0.272,0.236
			c0.231,0.183,0.278,0.218,0.278,0.218c0.236,0.166,0.284,0.197,0.284,0.197c0.24,0.148,0.289,0.176,0.289,0.176
			c0.245,0.129,0.294,0.152,0.294,0.152c0.199,0.088,0.249,0.108,0.249,0.108c0.201,0.074,0.252,0.09,0.252,0.09
			c0.204,0.059,0.255,0.072,0.255,0.072c0.228,0.047,0.273,0.055,0.273,0.055c0.223,0.029,0.268,0.034,0.268,0.034
			c0.225,0.015,0.27,0.017,0.27,0.017c0.227,0.002,0.318,0,0.318,0c0.182-0.008,0.274-0.014,0.274-0.014
			c0.788-0.042,1.687-0.302,2.974-0.43c0.171-0.01,0.255-0.013,0.255-0.013c0.209-0.001,0.251,0,0.251,0
			c0.246,0.015,0.286,0.019,0.286,0.019c0.239,0.035,0.279,0.042,0.279,0.042c0.233,0.057,0.256,0.064,0.256,0.064
			c0.231,0.083,0.253,0.092,0.253,0.092c0.224,0.106,0.268,0.13,0.268,0.13c0.218,0.13,0.261,0.159,0.261,0.159
			c0.213,0.153,0.255,0.186,0.255,0.186c0.209,0.174,0.25,0.211,0.25,0.211c0.246,0.234,0.328,0.317,0.328,0.317
			c0.162,0.173,0.243,0.263,0.243,0.263c0.376,0.386,2.007,2.628,2.393,3.137c2.287,2.974,5.728,5.734,9.826,6.716
			c0.248,0.051,0.33,0.066,0.33,0.066c0.244,0.04,0.324,0.052,0.324,0.052c0.239,0.03,0.318,0.038,0.318,0.038
			c0.234,0.019,0.311,0.024,0.311,0.024c0.229,0.008,0.304,0.009,0.304,0.009c0.223-0.003,0.296-0.007,0.296-0.007
			c0.216-0.015,0.287-0.022,0.287-0.022c0.2-0.026,0.249-0.033,0.249-0.033c0.242-0.045,0.29-0.055,0.29-0.055
			c0.235-0.058,0.281-0.071,0.281-0.071c0.228-0.069,0.318-0.099,0.318-0.099c0.178-0.064,0.265-0.098,0.265-0.098
			c0.772-0.289,1.56-0.821,2.753-1.338c0.173-0.068,0.261-0.1,0.261-0.1c0.177-0.061,0.267-0.089,0.267-0.089
			c0.227-0.065,0.274-0.077,0.274-0.077c0.234-0.053,0.281-0.062,0.281-0.062c0.241-0.039,0.29-0.046,0.29-0.046
			c0.217-0.022,0.277-0.026,0.277-0.026c0.242-0.011,0.304-0.012,0.304-0.012c0.743,0.013,1.074,0.041,2.107,0.22l2.227,0.429
			c0.327,0.055,1.199,0.21,1.869,0.216c0.189,0.002,0.251,0.001,0.251,0.001c0.246-0.009,0.307-0.012,0.307-0.012
			c0.239-0.022,0.298-0.029,0.298-0.029c0.231-0.037,0.288-0.048,0.288-0.048c0.223-0.053,0.277-0.068,0.277-0.068
			c0.239-0.08,0.265-0.09,0.265-0.09c0.248-0.11,0.296-0.135,0.296-0.135c0.235-0.135,0.281-0.164,0.281-0.164
			c0.223-0.158,0.267-0.192,0.267-0.192c0.212-0.18,0.253-0.217,0.253-0.217c0.242-0.241,0.281-0.283,0.281-0.283
			c0.192-0.22,0.229-0.266,0.229-0.266c0.148-0.188,0.22-0.285,0.22-0.285c0.142-0.2,0.212-0.303,0.212-0.303
			c1.53-2.846,3.226-5.927,5.705-8.678c0.129-0.187,0.154-0.213,0.402-0.598c0.123-0.204,0.182-0.306,0.182-0.306
			c0.114-0.207,0.169-0.312,0.169-0.312c0.104-0.212,0.153-0.319,0.153-0.319c0.093-0.217,0.115-0.272,0.115-0.272
			c0.083-0.222,0.102-0.279,0.102-0.279c0.072-0.228,0.089-0.285,0.089-0.285c0.062-0.238,0.077-0.301,0.077-0.301
			c0.04-0.192,0.053-0.256,0.053-0.256c0.345-1.74-0.062-4.084-0.264-6.186c-0.04-0.459-0.147-1.63-0.064-2.486
			c0.02-0.212,0.032-0.316,0.032-0.316c0.028-0.207,0.044-0.309,0.044-0.309c0.036-0.202,0.056-0.301,0.056-0.301
			c0.043-0.197,0.067-0.294,0.067-0.294c0.051-0.193,0.078-0.288,0.078-0.288c0.057-0.188,0.088-0.282,0.088-0.282
			c0.064-0.185,0.098-0.276,0.098-0.276c0.07-0.181,0.107-0.271,0.107-0.271c0.505-1.119,0.888-1.734,1.866-2.975l1.48-1.806
			c0.244-0.313,0.69-0.883,1.045-1.486c0.106-0.183,0.157-0.275,0.157-0.275c0.098-0.186,0.145-0.28,0.145-0.28
			c0.09-0.189,0.133-0.285,0.133-0.285c0.081-0.193,0.119-0.29,0.119-0.29c0.088-0.246,0.104-0.296,0.104-0.296
			c0.06-0.201,0.074-0.252,0.074-0.252c0.051-0.204,0.063-0.256,0.063-0.256c0.041-0.208,0.05-0.261,0.05-0.261
			c0.031-0.212,0.037-0.266,0.037-0.266c0.02-0.216,0.023-0.271,0.023-0.271c0.008-0.23,0.008-0.296,0.008-0.296
			c-0.004-0.199-0.006-0.266-0.006-0.266c-0.013-0.202-0.019-0.27-0.019-0.27c-0.022-0.205-0.031-0.274-0.031-0.274
			c-0.227-1.45-0.601-2.445-1.358-4.186c-0.658-1.515-1.591-3.159-2.101-5.125c-0.137-0.52-0.453-2.014-0.891-2.961
			c-1.402-2.948-3.521-5.842-6.484-8.32"/>
	</g>
	<g id="POLYLINE_1507_">
		
			<path fill="none" stroke="#FB8604" stroke-width="2.75" stroke-linecap="round" stroke-linejoin="round" stroke-miterlimit="10" d="
			M510.592,339.144c0.351,0.659,1.159,2.124,1.958,3.052c0.208,0.244,0.279,0.324,0.279,0.324c0.218,0.235,0.292,0.312,0.292,0.312
			c0.228,0.226,0.306,0.299,0.306,0.299c0.239,0.215,0.32,0.285,0.32,0.285c0.166,0.137,0.251,0.204,0.251,0.204
			c0.172,0.131,0.26,0.194,0.26,0.194c0.178,0.124,0.269,0.185,0.269,0.185c0.185,0.117,0.279,0.174,0.279,0.174
			c0.192,0.11,0.292,0.165,0.292,0.165c0.204,0.106,0.308,0.157,0.308,0.157c1.66,0.825,3.776,1.121,5.738,1.937
			c0.175,0.081,0.26,0.123,0.26,0.123c0.245,0.13,0.284,0.153,0.284,0.153c0.199,0.123,0.25,0.158,0.25,0.158
			c0.245,0.179,0.292,0.215,0.292,0.215c0.223,0.189,0.266,0.228,0.266,0.228c0.352,0.337,0.429,0.427,0.928,0.971
			c0.228,0.24,0.305,0.318,0.305,0.318c0.242,0.228,0.284,0.265,0.284,0.265c0.218,0.179,0.264,0.213,0.264,0.213
			c0.2,0.14,0.26,0.179,0.26,0.179c0.187,0.112,0.252,0.148,0.252,0.148c0.2,0.104,0.268,0.137,0.268,0.137
			c0.211,0.096,0.284,0.126,0.284,0.126c0.222,0.088,0.297,0.116,0.297,0.116c1.113,0.368,1.616,0.484,3.263,0.735
			c12.254,1.505,24.706,8.045,37.726,6c0.205-0.056,0.307-0.086,0.307-0.086c0.201-0.063,0.3-0.096,0.3-0.096
			c0.196-0.069,0.293-0.105,0.293-0.105c0.191-0.075,0.286-0.115,0.286-0.115c0.186-0.081,0.278-0.124,0.278-0.124
			c0.181-0.087,0.269-0.133,0.269-0.133c0.175-0.093,0.261-0.141,0.261-0.141c0.169-0.099,0.252-0.15,0.252-0.15
			c0.242-0.158,0.32-0.213,0.32-0.213c0.229-0.169,0.302-0.227,0.302-0.227c0.214-0.18,0.284-0.241,0.284-0.241
			c0.2-0.19,0.264-0.255,0.264-0.255c0.184-0.2,0.243-0.268,0.243-0.268c0.195-0.245,0.221-0.28,0.221-0.28
			c0.151-0.218,0.175-0.255,0.175-0.255c0.135-0.226,0.157-0.264,0.157-0.264c0.12-0.233,0.138-0.273,0.138-0.273
			c0.103-0.24,0.119-0.281,0.119-0.281c0.074-0.209,0.088-0.254,0.088-0.254c0.065-0.227,0.076-0.273,0.076-0.273
			c0.042-0.186,0.061-0.28,0.061-0.28c0.033-0.19,0.048-0.286,0.048-0.286c0.195-1.344-0.003-2.873,0.237-4.561
			c0.036-0.225,0.057-0.338,0.057-0.338c0.046-0.225,0.071-0.338,0.071-0.338c0.056-0.226,0.087-0.339,0.087-0.339
			c0.068-0.226,0.089-0.29,0.089-0.29c0.665-2.058,2.413-4.111,3.887-6.134c0.127-0.184,0.366-0.51,0.639-0.964
			c0.131-0.231,0.159-0.283,0.159-0.283c0.103-0.203,0.126-0.253,0.126-0.253c0.108-0.244,0.127-0.292,0.127-0.292
			c0.088-0.235,0.104-0.281,0.104-0.281c0.072-0.228,0.098-0.318,0.098-0.318c0.052-0.211,0.049-0.166,0.142-0.617
			c0.035-0.178,0.08-0.474,0.202-1.072"/>
	</g>
	<g id="POLYLINE_977_">
		
			<path fill="none" stroke="#FB8604" stroke-width="2.75" stroke-linecap="round" stroke-linejoin="round" stroke-miterlimit="10" d="
			M316.273,317.889c5.178,0.777,10.688,1.42,16.558,0.081c4.687-1.151,9.421-2.152,14.782-1.793
			c16.988,1.29,15.67,0.287,33.909-6.322c0,0,4.233-0.98,4.233-0.98c5.345-1.443,11.684-3.55,15.955-8.118
			c2.504-2.749,4.039-6.947,7.227-9.722c0.236-0.201,0.356-0.3,0.356-0.3c2.18-1.694,4.091-2.347,7.3-2.958
			c2.974-0.616,6.339-0.85,9.465-2.374c0.185-0.101,0.276-0.152,0.276-0.152c0.178-0.106,0.265-0.16,0.265-0.16
			c0.171-0.112,0.255-0.169,0.255-0.169c0.244-0.178,0.308-0.227,0.308-0.227c0.248-0.205,0.308-0.258,0.308-0.258
			c0.232-0.218,0.288-0.274,0.288-0.274c0.217-0.23,0.269-0.288,0.269-0.288c0.203-0.241,0.252-0.302,0.252-0.302
			c0.143-0.187,0.19-0.251,0.19-0.251c0.136-0.193,0.18-0.258,0.18-0.258c2.985-5.665,2.503-10.974,10.007-15.201
			c13.949-7.787,10.656-11.014,17.134-26.141c0.16-0.234,0.214-0.31,0.214-0.31c0.167-0.226,0.224-0.3,0.224-0.3
			c0.175-0.218,0.234-0.289,0.234-0.289c0.215-0.246,0.325-0.365,0.325-0.365c0.226-0.233,0.342-0.347,0.342-0.347
			c0.236-0.222,0.357-0.33,0.357-0.33c1.623-1.47,3.841-2.492,5.861-4.074c0.229-0.19,0.341-0.286,0.341-0.286
			c0.218-0.197,0.324-0.298,0.324-0.298c0.206-0.205,0.256-0.258,0.256-0.258c0.191-0.209,0.235-0.26,0.235-0.26
			c0.171-0.205,0.253-0.309,0.253-0.309c0.16-0.212,0.238-0.32,0.238-0.32c0.151-0.219,0.224-0.33,0.224-0.33
			c0.235-0.38,0.254-0.384,0.675-1.155l0.994-1.927c0.189-0.344,0.493-0.921,0.91-1.52c0.159-0.223,0.242-0.333,0.242-0.333
			c0.17-0.217,0.258-0.323,0.258-0.323c0.182-0.21,0.228-0.261,0.228-0.261c0.193-0.203,0.242-0.253,0.242-0.253
			c0.204-0.196,0.257-0.244,0.257-0.244c0.23-0.199,0.299-0.256,0.299-0.256c0.213-0.166,0.286-0.22,0.286-0.22
			c0.224-0.159,0.301-0.211,0.301-0.211c3.385-2.269,8.218-2.656,12.058-5.225c0.248-0.179,0.369-0.271,0.369-0.271
			c0.237-0.186,0.353-0.28,0.353-0.28c1.33-1.072,2.557-2.679,3.9-4.318c2.558-3.098,6.634-6.357,11.238-6.922
			c3.118-0.374,6.509,0.387,10.013-0.365l2.945-0.551c2.707-0.532,5.524-0.52,8.677,0.35c4.367,1.37,9.405,2.15,14.396,1.921
			c0.892,0.025,2.667,0.083,3.981,0.476c0.227,0.066,0.301,0.09,0.301,0.09c0.214,0.074,0.122,0.034,0.549,0.196
			c0.249,0.104,0.372,0.158,0.372,0.158c0.243,0.114,0.363,0.173,0.363,0.173c0.843,0.404,2.157,1.315,3.189,1.985
			c0.325,0.201,0.863,0.548,1.505,0.857c0.241,0.112,0.363,0.166,0.363,0.166c0.246,0.102,0.371,0.15,0.371,0.15
			c0.189,0.068,0.252,0.09,0.252,0.09c0.192,0.062,0.257,0.081,0.257,0.081c0.195,0.055,0.261,0.072,0.261,0.072
			c0.199,0.047,0.266,0.062,0.266,0.062c0.211,0.041,0.287,0.054,0.287,0.054c0.232,0.034,0.31,0.044,0.31,0.044
			c1.114,0.099,1.638,0.095,3.177-0.054c1.627-0.158,3.513-0.524,5.495-0.411c0.237,0.02,0.315,0.029,0.315,0.029
			c0.232,0.029,0.309,0.04,0.309,0.04c0.228,0.039,0.302,0.053,0.302,0.053c0.222,0.049,0.296,0.067,0.296,0.067
			c0.217,0.06,0.288,0.081,0.288,0.081c0.198,0.066,0.264,0.09,0.264,0.09c0.193,0.076,0.257,0.103,0.257,0.103
			c0.189,0.085,0.251,0.115,0.251,0.115c0.245,0.127,0.306,0.16,0.306,0.16c0.239,0.14,0.298,0.177,0.298,0.177
			c0.233,0.153,0.348,0.233,0.348,0.233c0.227,0.166,0.339,0.252,0.339,0.252c0.222,0.178,0.332,0.27,0.332,0.27
			c1.203,1,2.522,2.637,4.056,3.845c2.367,1.934,5.626,2.253,8.618,3.73c0.247,0.137,0.307,0.172,0.307,0.172
			c0.235,0.145,0.292,0.183,0.292,0.183c0.222,0.155,0.276,0.195,0.276,0.195c0.208,0.165,0.258,0.208,0.258,0.208
			c0.234,0.217,0.275,0.258,0.275,0.258c0.194,0.211,0.231,0.255,0.231,0.255c0.177,0.224,0.211,0.271,0.211,0.271
			c0.162,0.236,0.193,0.285,0.193,0.285c0.149,0.247,0.177,0.298,0.177,0.298c0.11,0.205,0.163,0.31,0.163,0.31
			c0.102,0.213,0.151,0.321,0.151,0.321c0.37,0.846,0.578,1.555,1.037,2.926c0.126,0.349,0.325,0.931,0.623,1.552
			c0.115,0.232,0.175,0.347,0.175,0.347c0.125,0.227,0.191,0.34,0.191,0.34c0.147,0.233,0.109,0.188,0.386,0.589
			c0.172,0.233,0.261,0.348,0.261,0.348c0.438,0.529,0.509,0.635,1.293,1.433l1.733,1.697c0.294,0.303,0.805,0.81,1.293,1.431
			c0.176,0.23,0.262,0.347,0.262,0.347c0.164,0.236,0.204,0.296,0.204,0.296c0.153,0.241,0.189,0.302,0.189,0.302
			c0.14,0.247,0.173,0.309,0.173,0.309c0.096,0.189,0.127,0.253,0.127,0.253c0.087,0.193,0.115,0.259,0.115,0.259
			c0.079,0.199,0.103,0.266,0.103,0.266c0.07,0.204,0.091,0.272,0.091,0.272c0.061,0.208,0.08,0.278,0.08,0.278
			c0.053,0.211,0.069,0.282,0.069,0.282c0.573,2.543-0.107,5.326,0.252,8.237c0.032,0.205,0.044,0.273,0.044,0.273
			c0.043,0.22,0.066,0.328,0.066,0.328c0.051,0.215,0.079,0.321,0.079,0.321c0.294,1.142,0.866,2.189,1.419,3.629
			c0.059,0.171,0.073,0.196,0.178,0.544c0.05,0.182,0.073,0.273,0.073,0.273c0.041,0.183,0.059,0.275,0.059,0.275
			c0.038,0.231,0.045,0.278,0.045,0.278c0.025,0.233,0.029,0.28,0.029,0.28c0.01,0.241,0.011,0.293,0.011,0.293
			c-0.004,0.21-0.006,0.263-0.006,0.263c-0.015,0.213-0.021,0.266-0.021,0.266c-0.026,0.215-0.042,0.324-0.042,0.324
			c-0.038,0.218-0.059,0.328-0.059,0.328c-0.048,0.221-0.075,0.332-0.075,0.332c-0.368,1.483-1.147,3.085-1.645,4.851
			c-0.066,0.255-0.104,0.364-0.209,0.87c-0.045,0.246-0.065,0.367-0.065,0.367c-0.282,1.638-0.053,3.461-0.291,5.483
			c-0.032,0.21-0.051,0.314-0.051,0.314c-0.041,0.205-0.064,0.307-0.064,0.307c-0.051,0.2-0.065,0.25-0.065,0.25
			c-0.076,0.244-0.092,0.292-0.092,0.292c-0.09,0.237-0.11,0.284-0.11,0.284c-0.098,0.212-0.118,0.253-0.118,0.253
			c-0.131,0.242-0.154,0.282-0.154,0.282c-0.146,0.235-0.198,0.312-0.198,0.312c-0.162,0.227-0.218,0.302-0.218,0.302
			c-0.551,0.724-1.227,1.345-2.047,2.242c-0.183,0.209-0.243,0.28-0.243,0.28c-0.173,0.213-0.228,0.284-0.228,0.284
			c-0.16,0.217-0.21,0.29-0.21,0.29c-0.144,0.223-0.167,0.26-0.167,0.26c-0.128,0.227-0.147,0.263-0.147,0.263
			c-0.107,0.224-0.14,0.299-0.14,0.299c-0.091,0.23-0.119,0.307-0.119,0.307c-0.078,0.235-0.101,0.314-0.101,0.314
			c-0.066,0.24-0.086,0.32-0.086,0.32c-0.227,0.891-0.268,1.902-0.557,3.279c-0.039,0.159-0.041,0.185-0.13,0.502
			c-0.077,0.243-0.103,0.321-0.103,0.321c-0.288,0.813-0.601,1.339-1.128,2.503c-0.088,0.208-0.116,0.278-0.116,0.278
			c-0.078,0.206-0.102,0.274-0.102,0.274c-0.065,0.203-0.085,0.27-0.085,0.27c-0.058,0.234-0.065,0.267-0.065,0.267
			c-0.038,0.231-0.042,0.263-0.042,0.263c-0.015,0.228-0.016,0.26-0.016,0.26c0.01,0.225,0.013,0.256,0.013,0.256
			c0.041,0.238,0.048,0.267,0.048,0.267c0.07,0.233,0.081,0.262,0.081,0.262c0.099,0.228,0.113,0.256,0.113,0.256
			c0.125,0.222,0.142,0.249,0.142,0.249c0.17,0.241,0.19,0.267,0.19,0.267c0.175,0.206,0.221,0.256,0.221,0.256
			c0.198,0.196,0.25,0.243,0.25,0.243c0.218,0.184,0.275,0.229,0.275,0.229c0.237,0.172,0.298,0.213,0.298,0.213
			c0.189,0.12,0.253,0.158,0.253,0.158c0.198,0.111,0.265,0.147,0.265,0.147c0.205,0.102,0.275,0.134,0.275,0.134
			c0.212,0.092,0.283,0.121,0.283,0.121c0.217,0.082,0.29,0.107,0.29,0.107c0.171,0.056,0.269,0.085,0.269,0.085
			c0.198,0.055,0.298,0.08,0.298,0.08c0.202,0.046,0.303,0.067,0.303,0.067c8.024,0.001,17.304,3.49,19.951,12.384"/>
	</g>
	<g id="POLYLINE_976_">
		
			<path fill="none" stroke="#FB8604" stroke-width="2.75" stroke-linecap="round" stroke-linejoin="round" stroke-miterlimit="10" d="
			M544.032,325.931c0.074,0.301,0.271,1.305,0.526,2.059c0.075,0.214,0.101,0.285,0.101,0.285c0.083,0.212,0.112,0.283,0.112,0.283
			c0.093,0.211,0.125,0.281,0.125,0.281c0.103,0.21,0.14,0.279,0.14,0.279c0.116,0.208,0.156,0.277,0.156,0.277
			c0.129,0.207,0.174,0.276,0.174,0.276c0.143,0.206,0.194,0.274,0.194,0.274c0.159,0.205,0.215,0.273,0.215,0.273
			c0.176,0.204,0.238,0.271,0.238,0.271c0.182,0.19,0.277,0.285,0.277,0.285c0.199,0.189,0.303,0.283,0.303,0.283
			c0.215,0.187,0.326,0.28,0.326,0.28c3.552,2.875,8.602,4.699,13.662,4.602c5.468,0.434,11.065,1.251,16.812-0.1
			c2.488-0.365,5.326-0.484,8.014-1.589c0.247-0.113,0.368-0.172,0.368-0.172c0.235-0.123,0.293-0.154,0.293-0.154
			c0.225-0.131,0.28-0.165,0.28-0.165c0.228-0.15,0.273-0.181,0.273-0.181c0.174-0.127,0.259-0.192,0.259-0.192
			c0.246-0.203,0.325-0.272,0.325-0.272c0.231-0.215,0.305-0.289,0.305-0.289c0.217-0.226,0.288-0.303,0.288-0.303
			c2.038-3.244,5.003-5.845,7.948-8.84c0.153-0.201,0.227-0.304,0.227-0.304c0.145-0.208,0.216-0.314,0.216-0.314
			c0.142-0.223,0.213-0.34,0.213-0.34c0.137-0.239,0.203-0.36,0.203-0.36c1.263-2.53,1.642-5.088,1.484-8.323"/>
	</g>
	<g id="POLYLINE_966_">
		
			<path fill="none" stroke="#FB8604" stroke-width="2.75" stroke-linecap="round" stroke-linejoin="round" stroke-miterlimit="10" d="
			M204.158,535.334c-0.006-0.018,0.15,0.31,0.452,0.867c0.12,0.212,0.181,0.317,0.181,0.317c0.127,0.207,0.193,0.309,0.193,0.309
			c0.136,0.201,0.172,0.251,0.172,0.251c0.184,0.244,0.223,0.291,0.223,0.291c0.202,0.234,0.244,0.279,0.244,0.279
			c0.222,0.222,0.268,0.265,0.268,0.265c0.245,0.209,0.296,0.25,0.296,0.25c0.215,0.157,0.271,0.195,0.271,0.195
			c0.237,0.149,0.279,0.173,0.279,0.173c0.171,0.095,0.259,0.141,0.259,0.141c0.181,0.089,0.274,0.132,0.274,0.132
			c0.19,0.084,0.288,0.124,0.288,0.124c1.166,0.43,1.526,0.538,3.269,0.897c7.445,2.116,17.065,1.926,24.721,1.603
			c6.725-0.209,12.219,1.061,18.482-1.489c0.201-0.103,0.299-0.155,0.299-0.155c0.194-0.108,0.289-0.164,0.289-0.164
			c0.186-0.114,0.278-0.172,0.278-0.172c0.179-0.119,0.267-0.18,0.267-0.18c0.171-0.125,0.255-0.189,0.255-0.189
			c0.243-0.198,0.322-0.266,0.322-0.266c0.228-0.21,0.301-0.282,0.301-0.282c0.211-0.222,0.279-0.298,0.279-0.298
			c0.195-0.234,0.257-0.314,0.257-0.314c0.177-0.246,0.206-0.289,0.206-0.289c0.138-0.216,0.19-0.304,0.19-0.304
			c0.101-0.179,0.15-0.27,0.15-0.27c0.094-0.184,0.14-0.278,0.14-0.278c0.788-1.633,1.14-3.804,2.21-5.732
			c0.139-0.243,0.211-0.363,0.211-0.363c1.122-1.873,3.059-3.712,4.354-5.891c0.138-0.245,0.204-0.368,0.204-0.368
			c0.126-0.248,0.185-0.372,0.185-0.372c0.085-0.188,0.112-0.251,0.112-0.251c0.078-0.19,0.103-0.253,0.103-0.253
			c0.088-0.241,0.126-0.356,0.126-0.356c0.07-0.23,0.103-0.346,0.103-0.346c0.059-0.232,0.087-0.349,0.087-0.349
			c0.361-1.478,0.241-3.301,0.55-5.191c0.042-0.21,0.065-0.314,0.065-0.314c0.05-0.205,0.078-0.306,0.078-0.306
			c0.076-0.249,0.093-0.298,0.093-0.298c0.09-0.24,0.109-0.287,0.109-0.287c0.102-0.229,0.124-0.275,0.124-0.275
			c0.116-0.223,0.14-0.267,0.14-0.267c0.101-0.174,0.154-0.26,0.154-0.26c0.11-0.17,0.167-0.255,0.167-0.255
			c0.118-0.167,0.179-0.25,0.179-0.25c0.883-1.19,2.237-2.346,3.254-3.902c1.328-2.031,1.853-4.596,3.115-7.057
			c0.13-0.236,0.197-0.351,0.197-0.351c0.137-0.223,0.172-0.277,0.172-0.277c0.143-0.21,0.179-0.261,0.179-0.261
			c0.188-0.245,0.226-0.292,0.226-0.292c0.199-0.223,0.24-0.266,0.24-0.266c0.219-0.207,0.254-0.237,0.254-0.237
			c0.213-0.17,0.249-0.197,0.249-0.197c0.222-0.153,0.26-0.177,0.26-0.177c0.192-0.116,0.269-0.16,0.269-0.16
			c0.237-0.125,0.318-0.165,0.318-0.165c0.607-0.309,1.582-0.595,2.613-1.095c0.247-0.131,0.329-0.178,0.329-0.178
			c0.241-0.148,0.281-0.174,0.281-0.174c0.235-0.164,0.273-0.193,0.273-0.193c0.227-0.184,0.265-0.216,0.265-0.216
			c0.208-0.194,0.256-0.243,0.256-0.243c0.189-0.203,0.235-0.256,0.235-0.256c0.182-0.221,0.226-0.278,0.226-0.278
			c1.78-2.388,2.444-5.584,4.343-8.376c0.14-0.195,0.188-0.258,0.188-0.258c0.167-0.214,0.252-0.317,0.252-0.317
			c0.173-0.202,0.261-0.3,0.261-0.3c0.179-0.191,0.269-0.283,0.269-0.283c0.184-0.181,0.277-0.269,0.277-0.269
			c1.221-1.171,3.025-2.105,4.512-3.386c0.18-0.162,0.269-0.245,0.269-0.245c0.175-0.17,0.261-0.257,0.261-0.257
			c0.191-0.203,0.285-0.307,0.285-0.307c0.184-0.214,0.275-0.323,0.275-0.323c0.178-0.224,0.265-0.338,0.265-0.338
			c0.536-0.741,0.84-1.192,1.52-2.435l1.837-3.529c0.577-1.078,1.243-2.233,2.339-3.783c3.972-4.669,6.182-9.566,6.736-16.114
			c0.066-0.247,0.101-0.369,0.101-0.369c0.074-0.24,0.114-0.358,0.114-0.358c0.084-0.232,0.128-0.347,0.128-0.347
			c0.086-0.206,0.127-0.297,0.127-0.297c0.086-0.181,0.13-0.27,0.13-0.27c0.092-0.176,0.14-0.263,0.14-0.263
			c0.64-1.156,1.579-2.11,2.56-3.442c0.166-0.237,0.22-0.317,0.22-0.317c0.134-0.213,0.119-0.173,0.354-0.576
			c0.094-0.172,0.139-0.26,0.139-0.26c0.088-0.178,0.13-0.268,0.13-0.268c0.811-1.923,1.017-3.462,1.056-5.939"/>
	</g>
</g>
<g id="AG-OUTLINE">
	<g id="POLYLINE_838_">
		
			<path fill="none" stroke="#FB8604" stroke-width="3.5" stroke-linecap="round" stroke-linejoin="round" stroke-miterlimit="10" d="
			M204.158,535.334c-0.172,0.324-0.528,0.994-0.931,1.574c-0.172,0.245-0.26,0.366-0.26,0.366c-0.18,0.237-0.272,0.353-0.272,0.353
			c-0.189,0.228-0.286,0.339-0.286,0.339c-0.198,0.218-0.3,0.324-0.3,0.324c-0.208,0.208-0.315,0.309-0.315,0.309
			c-0.219,0.197-0.275,0.245-0.275,0.245c-0.228,0.187-0.287,0.232-0.287,0.232c-0.19,0.142-0.287,0.212-0.287,0.212
			c-0.198,0.135-0.298,0.2-0.298,0.2c-0.205,0.127-0.309,0.189-0.309,0.189c-0.212,0.12-0.32,0.178-0.32,0.178
			c-0.219,0.113-0.33,0.168-0.33,0.168c-7.073,2.677-11.296,1.352-21.947,1.554c-11.895-0.057-20.819,0.588-31.1-13.553
			c-9.298-20.046,1.295-53.982,13.596-71.882c12.822-17.129,31.535-7.27,36.894-45.448c2.279-10.381,6.674-22.399,8.973-32.808
			c1.502-7.202,5.121-13.951,11.431-18.831c0.216-0.238,0.32-0.357,0.32-0.357c0.198-0.239,0.246-0.299,0.246-0.299
			c0.182-0.24,0.226-0.301,0.226-0.301c0.165-0.243,0.204-0.304,0.204-0.304c0.146-0.245,0.18-0.307,0.18-0.307
			c0.096-0.186,0.126-0.249,0.126-0.249c0.084-0.189,0.11-0.252,0.11-0.252c0.071-0.192,0.092-0.256,0.092-0.256
			c0.07-0.245,0.084-0.303,0.084-0.303c0.047-0.234,0.057-0.293,0.057-0.293c0.03-0.238,0.036-0.298,0.036-0.298
			c0.015-0.242,0.017-0.303,0.017-0.303c0.001-0.246-0.001-0.308-0.001-0.308c-0.008-0.187-0.012-0.25-0.012-0.25
			c-0.074-0.745-0.126-1.102-0.402-2.169c-3.632-9.272,4.117-14.704-3.33-26.446c-1.074-2.34-2.554-5.525-2.796-8.663
			c-0.034-0.54-0.056-1.055,0.02-1.782c0.023-0.192,0.037-0.288,0.037-0.288c0.03-0.19,0.047-0.285,0.047-0.285
			c0.037-0.188,0.058-0.281,0.058-0.281c0.044-0.186,0.069-0.278,0.069-0.278c0.052-0.183,0.08-0.274,0.08-0.274
			c0.06-0.181,0.091-0.27,0.091-0.27c0.071-0.187,0.108-0.279,0.108-0.279c0.079-0.184,0.121-0.275,0.121-0.275
			c0.087-0.181,0.133-0.271,0.133-0.271c0.095-0.178,0.145-0.267,0.145-0.267c0.103-0.176,0.156-0.263,0.156-0.263
			c0.11-0.173,0.167-0.259,0.167-0.259c0.113-0.161,0.127-0.19,0.367-0.506c0.198-0.247,0.267-0.329,0.267-0.329
			c5.683-5.577,16.172-9.69,22.884-14.364c9.153-7.192,20.258-2.503,30.824-0.443c0.245-0.002,0.366-0.006,0.366-0.006
			c0.236-0.013,0.352-0.022,0.352-0.022c0.228-0.023,0.341-0.037,0.341-0.037c0.221-0.032,0.331-0.051,0.331-0.051
			c0.216-0.041,0.323-0.064,0.323-0.064c0.212-0.049,0.317-0.076,0.317-0.076c0.822-0.192,2.339-0.85,3.352-1.252
			c6.367-2.07,14.342-3.687,21.235-1.255c0.244,0.12,0.363,0.182,0.363,0.182c0.232,0.128,0.345,0.193,0.345,0.193
			c0.221,0.134,0.33,0.203,0.33,0.203c0.212,0.141,0.316,0.213,0.316,0.213c2.96,2.774,6.609,5.519,10.595,7.473
			c5.648,2.766,9.366,8.628,9.444,15.405c5.178,0.777,10.688,1.42,16.558,0.081c4.687-1.151,9.421-2.152,14.782-1.793
			c16.988,1.29,15.67,0.287,33.909-6.322c0,0,4.233-0.98,4.233-0.98c5.345-1.443,11.684-3.55,15.955-8.118
			c2.504-2.749,4.039-6.947,7.227-9.722c0.236-0.201,0.356-0.3,0.356-0.3c2.18-1.694,4.091-2.347,7.3-2.958
			c2.974-0.616,6.339-0.85,9.465-2.374c0.185-0.101,0.276-0.152,0.276-0.152c0.178-0.106,0.265-0.16,0.265-0.16
			c0.171-0.112,0.255-0.169,0.255-0.169c0.244-0.178,0.308-0.227,0.308-0.227c0.248-0.205,0.308-0.258,0.308-0.258
			c0.232-0.218,0.288-0.274,0.288-0.274c0.217-0.23,0.269-0.288,0.269-0.288c0.203-0.241,0.252-0.302,0.252-0.302
			c0.143-0.187,0.19-0.251,0.19-0.251c0.136-0.193,0.18-0.258,0.18-0.258c2.985-5.665,2.503-10.974,10.007-15.201
			c13.949-7.787,10.656-11.014,17.134-26.141c0.16-0.234,0.214-0.31,0.214-0.31c0.167-0.226,0.224-0.3,0.224-0.3
			c0.175-0.218,0.234-0.289,0.234-0.289c0.215-0.246,0.325-0.365,0.325-0.365c0.226-0.233,0.342-0.347,0.342-0.347
			c0.236-0.222,0.357-0.33,0.357-0.33c1.623-1.47,3.841-2.492,5.861-4.074c0.229-0.19,0.341-0.286,0.341-0.286
			c0.218-0.197,0.324-0.298,0.324-0.298c0.206-0.205,0.256-0.258,0.256-0.258c0.191-0.209,0.235-0.26,0.235-0.26
			c0.171-0.205,0.253-0.309,0.253-0.309c0.16-0.212,0.238-0.32,0.238-0.32c0.151-0.219,0.224-0.33,0.224-0.33
			c0.235-0.38,0.254-0.384,0.675-1.155l0.994-1.927c0.189-0.344,0.493-0.921,0.91-1.52c0.159-0.223,0.242-0.333,0.242-0.333
			c0.17-0.217,0.258-0.323,0.258-0.323c0.182-0.21,0.228-0.261,0.228-0.261c0.193-0.203,0.242-0.253,0.242-0.253
			c0.204-0.196,0.257-0.244,0.257-0.244c0.23-0.199,0.299-0.256,0.299-0.256c0.213-0.166,0.286-0.22,0.286-0.22
			c0.224-0.159,0.301-0.211,0.301-0.211c3.385-2.269,8.218-2.656,12.058-5.225c0.248-0.179,0.369-0.271,0.369-0.271
			c0.237-0.186,0.353-0.28,0.353-0.28c1.33-1.072,2.557-2.679,3.9-4.318c2.558-3.098,6.634-6.357,11.238-6.922
			c3.118-0.374,6.509,0.387,10.013-0.365l2.945-0.551c2.707-0.532,5.524-0.52,8.677,0.35c4.367,1.37,9.405,2.15,14.396,1.921
			c0.892,0.025,2.667,0.083,3.981,0.476c0.227,0.066,0.301,0.09,0.301,0.09c0.214,0.074,0.122,0.034,0.549,0.196
			c0.249,0.104,0.372,0.158,0.372,0.158c0.243,0.114,0.363,0.173,0.363,0.173c0.843,0.404,2.157,1.315,3.189,1.985
			c0.325,0.201,0.863,0.548,1.505,0.857c0.241,0.112,0.363,0.166,0.363,0.166c0.246,0.102,0.371,0.15,0.371,0.15
			c0.189,0.068,0.252,0.09,0.252,0.09c0.192,0.062,0.257,0.081,0.257,0.081c0.195,0.055,0.261,0.072,0.261,0.072
			c0.199,0.047,0.266,0.062,0.266,0.062c0.211,0.041,0.287,0.054,0.287,0.054c0.232,0.034,0.31,0.044,0.31,0.044
			c1.114,0.099,1.638,0.095,3.177-0.054c1.627-0.158,3.513-0.524,5.495-0.411c0.237,0.02,0.315,0.029,0.315,0.029
			c0.232,0.029,0.309,0.04,0.309,0.04c0.228,0.039,0.302,0.053,0.302,0.053c0.222,0.049,0.296,0.067,0.296,0.067
			c0.217,0.06,0.288,0.081,0.288,0.081c0.198,0.066,0.264,0.09,0.264,0.09c0.193,0.076,0.257,0.103,0.257,0.103
			c0.189,0.085,0.251,0.115,0.251,0.115c0.245,0.127,0.306,0.16,0.306,0.16c0.239,0.14,0.298,0.177,0.298,0.177
			c0.233,0.153,0.348,0.233,0.348,0.233c0.227,0.166,0.339,0.252,0.339,0.252c0.222,0.178,0.332,0.27,0.332,0.27
			c1.203,1,2.522,2.637,4.056,3.845c2.367,1.934,5.626,2.253,8.618,3.73c0.247,0.137,0.307,0.172,0.307,0.172
			c0.235,0.145,0.292,0.183,0.292,0.183c0.222,0.155,0.276,0.195,0.276,0.195c0.208,0.165,0.258,0.208,0.258,0.208
			c0.234,0.217,0.275,0.258,0.275,0.258c0.194,0.211,0.231,0.255,0.231,0.255c0.177,0.224,0.211,0.271,0.211,0.271
			c0.162,0.236,0.193,0.285,0.193,0.285c0.149,0.247,0.177,0.298,0.177,0.298c0.11,0.205,0.163,0.31,0.163,0.31
			c0.102,0.213,0.151,0.321,0.151,0.321c0.37,0.846,0.578,1.555,1.037,2.926c0.126,0.349,0.325,0.931,0.623,1.552
			c0.115,0.232,0.175,0.347,0.175,0.347c0.125,0.227,0.191,0.34,0.191,0.34c0.147,0.233,0.109,0.188,0.386,0.589
			c0.172,0.233,0.261,0.348,0.261,0.348c0.438,0.529,0.509,0.635,1.293,1.433l1.733,1.697c0.294,0.303,0.805,0.81,1.293,1.431
			c0.176,0.23,0.262,0.347,0.262,0.347c0.164,0.236,0.204,0.296,0.204,0.296c0.153,0.241,0.189,0.302,0.189,0.302
			c0.14,0.247,0.173,0.309,0.173,0.309c0.096,0.189,0.127,0.253,0.127,0.253c0.087,0.193,0.115,0.259,0.115,0.259
			c0.079,0.199,0.103,0.266,0.103,0.266c0.07,0.204,0.091,0.272,0.091,0.272c0.061,0.208,0.08,0.278,0.08,0.278
			c0.053,0.211,0.069,0.282,0.069,0.282c0.573,2.543-0.107,5.326,0.252,8.237c0.032,0.205,0.044,0.273,0.044,0.273
			c0.043,0.22,0.066,0.328,0.066,0.328c0.051,0.215,0.079,0.321,0.079,0.321c0.294,1.142,0.866,2.189,1.419,3.629
			c0.059,0.171,0.073,0.196,0.178,0.544c0.05,0.182,0.073,0.273,0.073,0.273c0.041,0.183,0.059,0.275,0.059,0.275
			c0.038,0.231,0.045,0.278,0.045,0.278c0.025,0.233,0.029,0.28,0.029,0.28c0.01,0.241,0.011,0.293,0.011,0.293
			c-0.004,0.21-0.006,0.263-0.006,0.263c-0.015,0.213-0.021,0.266-0.021,0.266c-0.026,0.215-0.042,0.324-0.042,0.324
			c-0.038,0.218-0.059,0.328-0.059,0.328c-0.048,0.221-0.075,0.332-0.075,0.332c-0.368,1.483-1.147,3.085-1.645,4.851
			c-0.066,0.255-0.104,0.364-0.209,0.87c-0.045,0.246-0.065,0.367-0.065,0.367c-0.282,1.638-0.053,3.461-0.291,5.483
			c-0.032,0.21-0.051,0.314-0.051,0.314c-0.041,0.205-0.064,0.307-0.064,0.307c-0.051,0.2-0.065,0.25-0.065,0.25
			c-0.076,0.244-0.092,0.292-0.092,0.292c-0.09,0.237-0.11,0.284-0.11,0.284c-0.098,0.212-0.118,0.253-0.118,0.253
			c-0.131,0.242-0.154,0.282-0.154,0.282c-0.146,0.235-0.198,0.312-0.198,0.312c-0.162,0.227-0.218,0.302-0.218,0.302
			c-0.551,0.724-1.227,1.345-2.047,2.242c-0.183,0.209-0.243,0.28-0.243,0.28c-0.173,0.213-0.228,0.284-0.228,0.284
			c-0.16,0.217-0.21,0.29-0.21,0.29c-0.144,0.223-0.167,0.26-0.167,0.26c-0.128,0.227-0.147,0.263-0.147,0.263
			c-0.107,0.224-0.14,0.299-0.14,0.299c-0.091,0.23-0.119,0.307-0.119,0.307c-0.078,0.235-0.101,0.314-0.101,0.314
			c-0.066,0.24-0.086,0.32-0.086,0.32c-0.227,0.891-0.268,1.902-0.557,3.279c-0.039,0.159-0.041,0.185-0.13,0.502
			c-0.077,0.243-0.103,0.321-0.103,0.321c-0.288,0.813-0.601,1.339-1.128,2.503c-0.088,0.208-0.116,0.278-0.116,0.278
			c-0.078,0.206-0.102,0.274-0.102,0.274c-0.065,0.203-0.085,0.27-0.085,0.27c-0.058,0.234-0.065,0.267-0.065,0.267
			c-0.038,0.231-0.042,0.263-0.042,0.263c-0.015,0.228-0.016,0.26-0.016,0.26c0.01,0.225,0.013,0.256,0.013,0.256
			c0.041,0.238,0.048,0.267,0.048,0.267c0.07,0.233,0.081,0.262,0.081,0.262c0.099,0.228,0.113,0.256,0.113,0.256
			c0.125,0.222,0.142,0.249,0.142,0.249c0.17,0.241,0.19,0.267,0.19,0.267c0.175,0.206,0.221,0.256,0.221,0.256
			c0.198,0.196,0.25,0.243,0.25,0.243c0.218,0.184,0.275,0.229,0.275,0.229c0.237,0.172,0.298,0.213,0.298,0.213
			c0.189,0.12,0.253,0.158,0.253,0.158c0.198,0.111,0.265,0.147,0.265,0.147c0.205,0.102,0.275,0.134,0.275,0.134
			c0.212,0.092,0.283,0.121,0.283,0.121c0.217,0.082,0.29,0.107,0.29,0.107c0.171,0.056,0.269,0.085,0.269,0.085
			c0.198,0.055,0.298,0.08,0.298,0.08c0.202,0.046,0.303,0.067,0.303,0.067c8.024,0.001,17.304,3.49,19.951,12.384
			c0.279,0.18,0.55,0.342,1.053,0.733c0.215,0.174,0.32,0.262,0.32,0.262c0.205,0.18,0.305,0.271,0.305,0.271
			c0.195,0.185,0.289,0.279,0.289,0.279c0.184,0.191,0.272,0.288,0.272,0.288c0.172,0.196,0.255,0.296,0.255,0.296
			c0.16,0.201,0.237,0.303,0.237,0.303c0.148,0.207,0.183,0.259,0.183,0.259c0.137,0.211,0.17,0.264,0.17,0.264
			c0.126,0.215,0.156,0.269,0.156,0.269c0.115,0.218,0.142,0.273,0.142,0.273c0.103,0.222,0.128,0.278,0.128,0.278
			c0.091,0.226,0.113,0.282,0.113,0.282c0.079,0.229,0.098,0.287,0.098,0.287c0.067,0.232,0.082,0.291,0.082,0.291
			c0.054,0.236,0.066,0.295,0.066,0.295c0.041,0.239,0.049,0.299,0.049,0.299c0.027,0.242,0.032,0.302,0.032,0.302
			c0.014,0.245,0.015,0.306,0.015,0.306c-0.001,0.247-0.002,0.309-0.002,0.309c-0.01,0.187-0.015,0.25-0.015,0.25
			c-0.019,0.189-0.027,0.252-0.027,0.252c-0.028,0.19-0.039,0.254-0.039,0.254c-0.037,0.191-0.051,0.256-0.051,0.256
			c-0.046,0.193-0.063,0.257-0.063,0.257c-0.056,0.194-0.076,0.259-0.076,0.259c-0.065,0.195-0.102,0.298-0.102,0.298
			c-0.08,0.206-0.123,0.31-0.123,0.31c-0.091,0.207-0.14,0.311-0.14,0.311c-0.102,0.208-0.156,0.311-0.156,0.311
			c-0.112,0.208-0.171,0.311-0.171,0.311c-0.889,1.457-1.763,2.527-3.379,3.852c-1.986,1.36-0.311,6.042-2.389,8.904
			c-0.131,0.244-0.198,0.364-0.198,0.364c-0.14,0.236-0.213,0.352-0.213,0.352c-0.14,0.213-0.212,0.317-0.212,0.317
			c-0.148,0.206-0.224,0.307-0.224,0.307c-2.377,2.722-5.566,4.903-7.62,8.463c-0.199,0.242-0.266,0.321-0.266,0.321
			c-0.208,0.233-0.28,0.31-0.28,0.31c-0.22,0.223-0.296,0.296-0.296,0.296c-0.234,0.212-0.315,0.281-0.315,0.281
			c-0.165,0.134-0.25,0.199-0.25,0.199c-0.219,0.158-0.263,0.189-0.263,0.189c-0.238,0.154-0.294,0.187-0.294,0.187
			c-0.227,0.13-0.285,0.161-0.285,0.161c-0.177,0.091-0.298,0.15-0.298,0.15c-2.288,1.094-5.38,1.303-8.261,1.702
			c-0.054,0.261-0.079,0.393-0.202,1.072c-0.035,0.167-0.036,0.194-0.118,0.527c-0.05,0.179-0.077,0.27-0.077,0.27
			c-0.077,0.23-0.094,0.277-0.094,0.277c-0.094,0.238-0.115,0.286-0.115,0.286c-0.115,0.247-0.14,0.298-0.14,0.298
			c-0.109,0.206-0.159,0.295-0.159,0.295c-0.234,0.384-0.211,0.369-0.691,1.054c-1.239,1.735-2.934,3.625-3.821,5.942
			c-0.066,0.192-0.087,0.256-0.087,0.256c-0.068,0.226-0.099,0.339-0.099,0.339c-0.056,0.226-0.082,0.339-0.082,0.339
			c-0.046,0.225-0.066,0.338-0.066,0.338c-0.265,1.36-0.076,2.965-0.26,4.689c-0.028,0.192-0.044,0.287-0.044,0.287
			c-0.046,0.235-0.056,0.282-0.056,0.282c-0.058,0.23-0.071,0.275-0.071,0.275c-0.07,0.221-0.085,0.262-0.085,0.262
			c-0.096,0.243-0.113,0.283-0.113,0.283c-0.112,0.236-0.133,0.275-0.133,0.275c-0.129,0.229-0.151,0.267-0.151,0.267
			c-0.144,0.221-0.17,0.258-0.17,0.258c-0.187,0.249-0.215,0.283-0.215,0.283c-0.176,0.204-0.237,0.271-0.237,0.271
			c-0.192,0.195-0.259,0.258-0.259,0.258c-0.207,0.185-0.279,0.245-0.279,0.245c-0.222,0.174-0.298,0.231-0.298,0.231
			c-0.235,0.164-0.316,0.216-0.316,0.216c-0.248,0.153-0.333,0.202-0.333,0.202c-0.173,0.095-0.261,0.141-0.261,0.141
			c-0.179,0.089-0.269,0.133-0.269,0.133c-0.184,0.083-0.278,0.124-0.278,0.124c-0.19,0.077-0.286,0.115-0.286,0.115
			c-0.195,0.071-0.293,0.105-0.293,0.105c-0.2,0.065-0.3,0.096-0.3,0.096c-12.659,2.228-24.705-4.009-37.308-5.813
			c-0.53,0.377-1.412,0.997-2.186,1.758c-0.214,0.213-0.284,0.285-0.284,0.285c-0.205,0.22-0.272,0.294-0.272,0.294
			c-0.195,0.226-0.258,0.303-0.258,0.303c-0.183,0.233-0.243,0.312-0.243,0.312c-0.171,0.24-0.225,0.321-0.225,0.321
			c-0.156,0.247-0.206,0.33-0.206,0.33c-0.095,0.169-0.141,0.254-0.141,0.254c-0.087,0.172-0.128,0.259-0.128,0.259
			c-0.078,0.176-0.115,0.264-0.115,0.264c-0.085,0.224-0.101,0.27-0.101,0.27c-0.058,0.179-0.085,0.269-0.085,0.269
			c-0.05,0.182-0.073,0.274-0.073,0.274c-0.21,0.907-0.232,1.524-0.372,2.854c-0.024,0.187-0.057,0.505-0.142,0.932
			c-0.039,0.181-0.06,0.271-0.06,0.271c-0.046,0.178-0.071,0.267-0.071,0.267c-0.068,0.218-0.083,0.261-0.083,0.261
			c-0.08,0.213-0.097,0.255-0.097,0.255c-0.112,0.248-0.133,0.289-0.133,0.289c-0.134,0.243-0.16,0.285-0.16,0.285
			c-0.137,0.208-0.167,0.249-0.167,0.249c-0.185,0.241-0.218,0.281-0.218,0.281c-0.169,0.195-0.24,0.272-0.24,0.272
			c-0.221,0.227-0.298,0.302-0.298,0.302c-0.547,0.537-1.537,1.285-2.374,2.072c-0.243,0.24-0.322,0.322-0.322,0.322
			c-0.154,0.166-0.23,0.25-0.23,0.25c-0.146,0.172-0.217,0.259-0.217,0.259c-0.17,0.224-0.203,0.27-0.203,0.27
			c-0.156,0.233-0.186,0.281-0.186,0.281c-0.141,0.244-0.167,0.293-0.167,0.293c-0.1,0.203-0.13,0.269-0.13,0.269
			c-0.083,0.202-0.109,0.27-0.109,0.27c-0.072,0.209-0.094,0.28-0.094,0.28c-0.061,0.216-0.08,0.289-0.08,0.289
			c-0.051,0.223-0.067,0.298-0.067,0.298c-0.042,0.229-0.054,0.307-0.054,0.307c-0.033,0.235-0.042,0.315-0.042,0.315
			c-0.086,1.038-0.101,1.526,0.014,3.036c0,0,0.375,3.827,0.375,3.827c0.211,2.288,0.084,4.796-0.727,7.521
			c0,0-1.092,3.777-1.092,3.777c-1.022,3.223-0.533,6.866-1.124,10.61c-0.843,4.384-2.435,8.84-2.635,13.776
			c-0.018,0.172-0.164,1.538-0.344,2.215c-0.057,0.226-0.087,0.338-0.087,0.338c-0.064,0.22-0.098,0.328-0.098,0.328
			c-0.073,0.212-0.111,0.317-0.111,0.317c-0.082,0.205-0.103,0.255-0.103,0.255c-0.114,0.247-0.138,0.295-0.138,0.295
			c-0.127,0.237-0.154,0.283-0.154,0.283c-0.156,0.248-0.183,0.288-0.183,0.288c-0.169,0.232-0.199,0.27-0.199,0.27
			c-0.153,0.185-0.216,0.257-0.216,0.257c-0.198,0.212-0.266,0.281-0.266,0.281c-0.212,0.202-0.285,0.268-0.285,0.268
			c-0.225,0.194-0.302,0.257-0.302,0.257c-1.529,1.243-3.685,2.184-5.469,3.845c-0.241,0.227-0.32,0.304-0.32,0.304
			c-0.231,0.234-0.306,0.314-0.306,0.314c-0.237,0.265-0.349,0.373-0.696,0.826c-0.126,0.172-0.187,0.26-0.187,0.26
			c-0.118,0.176-0.176,0.265-0.176,0.265c-0.111,0.18-0.164,0.271-0.164,0.271c-0.103,0.184-0.152,0.276-0.152,0.276
			c-0.094,0.187-0.139,0.282-0.139,0.282c-0.085,0.191-0.125,0.288-0.125,0.288c-0.076,0.195-0.111,0.293-0.111,0.293
			c-0.066,0.199-0.096,0.299-0.096,0.299c-0.056,0.202-0.069,0.256-0.069,0.256c-0.037,0.161-0.06,0.268-0.06,0.268
			c-0.04,0.218-0.058,0.327-0.058,0.327c-0.031,0.221-0.044,0.332-0.044,0.332c-0.178,1.469,0.062,3.293-0.165,5.124
			c-0.034,0.229-0.053,0.343-0.053,0.343c-0.044,0.226-0.068,0.339-0.068,0.339c-0.054,0.223-0.069,0.279-0.069,0.279
			c-0.064,0.221-0.082,0.276-0.082,0.276c-0.079,0.23-0.101,0.287-0.101,0.287c-0.091,0.227-0.115,0.283-0.115,0.283
			c-0.102,0.223-0.155,0.334-0.155,0.334c-0.114,0.22-0.173,0.329-0.173,0.329c-0.125,0.217-0.19,0.324-0.19,0.324
			c-0.135,0.214-0.205,0.319-0.205,0.319c-1.981,2.976-6.01,5.499-6.888,9.558c-0.042,0.191-0.061,0.288-0.061,0.288
			c-0.035,0.194-0.051,0.292-0.051,0.292c-0.166,0.834-0.126,3.012-0.143,4.043c-0.01,0.217-0.001,0.245-0.046,0.89
			c-0.02,0.208-0.018,0.241-0.073,0.658c-0.034,0.217-0.053,0.325-0.053,0.325c-0.042,0.215-0.065,0.321-0.065,0.321
			c-0.051,0.212-0.079,0.317-0.079,0.317c-0.061,0.209-0.078,0.261-0.078,0.261c-0.071,0.206-0.089,0.257-0.089,0.257
			c-0.077,0.196-0.118,0.293-0.118,0.293c-0.087,0.193-0.133,0.288-0.133,0.288c-0.096,0.189-0.146,0.283-0.146,0.283
			c-0.54,0.98-1.059,1.612-1.998,2.878c-0.118,0.164-0.232,0.326-0.232,0.326c-0.164,0.243-0.217,0.323-0.217,0.323
			c-0.15,0.241-0.198,0.321-0.198,0.321c-0.133,0.239-0.175,0.318-0.175,0.318c-0.113,0.238-0.131,0.277-0.131,0.277
			c-0.092,0.231-0.104,0.265-0.104,0.265c-0.074,0.237-0.083,0.27-0.083,0.27c-0.055,0.237-0.062,0.271-0.062,0.271
			c-0.033,0.204-0.042,0.272-0.042,0.272c-0.02,0.205-0.024,0.273-0.024,0.273c-0.008,0.207-0.009,0.276-0.009,0.276
			c0.003,0.209,0.005,0.279,0.005,0.279c0.038,0.727,0.133,1.252,0.286,2.367c2.253,10.804-10.497,16.46-2.773,32.188
			c2.752,5.8-1.635,11.715-0.154,18.16c2.622,8.135-3.274,15-3.572,23.401c-0.074,0.565-0.238,1.901-0.563,2.824
			c-0.086,0.243-0.109,0.302-0.109,0.302c-0.095,0.231-0.12,0.288-0.12,0.288c-0.105,0.22-0.133,0.273-0.133,0.273
			c-0.126,0.224-0.151,0.266-0.151,0.266c-0.16,0.241-0.188,0.28-0.188,0.28c-0.175,0.224-0.206,0.26-0.206,0.26
			c-0.223,0.241-0.257,0.274-0.257,0.274c-0.243,0.221-0.279,0.251-0.279,0.251c-0.223,0.174-0.261,0.202-0.261,0.202
			c-0.237,0.16-0.277,0.186-0.277,0.186c-0.207,0.124-0.293,0.171-0.293,0.171c-0.174,0.092-0.263,0.136-0.263,0.136
			c-0.181,0.085-0.273,0.126-0.273,0.126c-0.188,0.079-0.284,0.117-0.284,0.117c-16.589,3.107-60.125,2.744-68.266-0.414
			c-0.243-0.12-0.361-0.182-0.361-0.182c-0.232-0.129-0.289-0.163-0.289-0.163c-0.222-0.138-0.276-0.174-0.276-0.174
			c-0.212-0.147-0.263-0.185-0.263-0.185c-0.201-0.156-0.25-0.197-0.25-0.197c-0.235-0.209-0.28-0.252-0.28-0.252
			c-0.216-0.224-0.257-0.27-0.257-0.27c-0.195-0.239-0.232-0.288-0.232-0.288c-0.141-0.202-0.175-0.254-0.175-0.254
			c-0.129-0.212-0.159-0.266-0.159-0.266c-0.116-0.221-0.144-0.277-0.144-0.277c-0.105-0.23-0.129-0.288-0.129-0.288
			c-0.093-0.238-0.115-0.298-0.115-0.298c-0.082-0.245-0.101-0.307-0.101-0.307c-1.106-3.878,0.39-7.797,0.633-12.097
			c0.003-0.387,0.011-0.678-0.044-1.263c-0.024-0.208-0.038-0.313-0.038-0.313c-0.033-0.215-0.052-0.327-0.052-0.327
			c-0.043-0.222-0.067-0.334-0.067-0.334c-3.749-8.151-3.975-16.617-7.976-25.431l-2.681-5.192c-1.88-3.517-2.778-7.7-1.931-11.934
			l0.707-4.575c0.701-3.698-0.179-7.615-1.689-11.561c-0.243,0.066-0.304,0.081-0.304,0.081c-0.244,0.051-0.306,0.062-0.306,0.062
			c-0.246,0.034-0.307,0.04-0.307,0.04c-0.229,0.015-0.285,0.017-0.285,0.017c-0.225,0-0.282-0.001-0.282-0.001
			c-0.227-0.013-0.284-0.018-0.284-0.018c-0.229-0.026-0.287-0.034-0.287-0.034c-0.232-0.038-0.29-0.049-0.29-0.049
			c-0.234-0.049-0.352-0.077-0.352-0.077c-0.237-0.061-0.357-0.095-0.357-0.095c-4.751-1.959-9.054-3.422-15.111-2.991l-5.748,0.236
			c-2.218,0.101-4.884-0.162-7.424-1.169c-4.179-1.52-7.81-3.106-12.777-3.624c-7.501,0.099-12.701-3.053-19.931-5.948
			c-7.73-0.023-15.267-1.005-23.218-3.734c-0.016,1.577-0.165,4.036-1.015,5.848c-0.084,0.181-0.127,0.27-0.127,0.27
			c-0.09,0.177-0.137,0.264-0.137,0.264c-0.095,0.169-0.143,0.252-0.143,0.252c-0.152,0.247-0.204,0.328-0.204,0.328
			c-0.607,0.946-1.548,1.916-2.418,3.171c-0.139,0.215-0.122,0.175-0.366,0.583c-0.096,0.173-0.143,0.26-0.143,0.26
			c-0.09,0.178-0.134,0.268-0.134,0.268c-0.083,0.183-0.123,0.276-0.123,0.276c-0.091,0.227-0.133,0.343-0.133,0.343
			c-0.081,0.235-0.118,0.354-0.118,0.354c-0.576,5.931-2.565,11.772-6.874,16.603c-0.653,0.927-1.494,2.183-2.339,3.783
			l-1.837,3.529c-0.161,0.283-0.435,0.819-0.934,1.592c-0.229,0.341-0.342,0.529-0.762,1.07c-0.18,0.22-0.271,0.328-0.271,0.328
			c-0.187,0.21-0.282,0.312-0.282,0.312c-0.182,0.187-0.27,0.273-0.27,0.273c-0.177,0.167-0.267,0.249-0.267,0.249
			c-0.722,0.669-2.003,1.498-3.04,2.218c-0.383,0.277-1.062,0.763-1.655,1.336c-0.184,0.181-0.274,0.273-0.274,0.273
			c-0.179,0.191-0.267,0.289-0.267,0.289c-0.173,0.202-0.258,0.305-0.258,0.305c-0.167,0.214-0.214,0.277-0.214,0.277
			c-1.692,2.284-2.433,5.414-4.179,8.148c-0.172,0.246-0.215,0.306-0.215,0.306c-0.178,0.231-0.223,0.287-0.223,0.287
			c-0.185,0.214-0.232,0.265-0.232,0.265c-0.241,0.242-0.277,0.276-0.277,0.276c-0.224,0.192-0.262,0.223-0.262,0.223
			c-0.232,0.172-0.271,0.199-0.271,0.199c-0.199,0.13-0.279,0.179-0.279,0.179c-0.244,0.139-0.327,0.183-0.327,0.183
			c-0.702,0.359-1.091,0.465-2.286,0.952c-0.247,0.109-0.328,0.147-0.328,0.147c-0.241,0.119-0.32,0.161-0.32,0.161
			c-0.234,0.132-0.31,0.179-0.31,0.179c-0.225,0.148-0.261,0.174-0.261,0.174c-0.216,0.165-0.251,0.194-0.251,0.194
			c-0.247,0.225-0.289,0.267-0.289,0.267c-0.201,0.219-0.24,0.266-0.24,0.266c-0.189,0.241-0.226,0.292-0.226,0.292
			c-0.144,0.208-0.179,0.261-0.179,0.261c-0.104,0.164-0.172,0.277-0.172,0.277c-0.132,0.232-0.197,0.351-0.197,0.351
			c-1.056,1.967-1.605,4.493-2.917,6.74c-0.131,0.213-0.198,0.317-0.198,0.317c-0.791,1.232-1.812,2.161-2.999,3.574
			c-0.193,0.245-0.255,0.328-0.255,0.328c-0.121,0.166-0.179,0.25-0.179,0.25c-0.113,0.169-0.167,0.255-0.167,0.255
			c-0.104,0.173-0.154,0.26-0.154,0.26c-0.118,0.222-0.14,0.267-0.14,0.267c-0.105,0.228-0.124,0.275-0.124,0.275
			c-0.092,0.238-0.109,0.287-0.109,0.287c-0.079,0.247-0.093,0.298-0.093,0.298c-0.054,0.203-0.078,0.306-0.078,0.306
			c-0.045,0.208-0.065,0.314-0.065,0.314c-0.237,1.308-0.171,2.518-0.384,4.249c-0.034,0.224-0.033,0.26-0.116,0.708
			c-0.05,0.234-0.077,0.351-0.077,0.351c-0.059,0.232-0.092,0.348-0.092,0.348c-0.07,0.23-0.108,0.344-0.108,0.344
			c-0.088,0.241-0.112,0.305-0.112,0.305c-0.091,0.215-0.073,0.189-0.25,0.565c-0.126,0.248-0.192,0.371-0.192,0.371
			c-0.138,0.245-0.21,0.367-0.21,0.367c-1.006,1.682-2.635,3.342-3.896,5.171c-0.148,0.225-0.177,0.256-0.458,0.719
			c-0.139,0.243-0.198,0.35-0.198,0.35c-0.827,1.514-1.143,3.077-1.897,5.046c-0.078,0.183-0.085,0.214-0.254,0.578
			c-0.092,0.186-0.14,0.278-0.14,0.278c-0.099,0.181-0.15,0.27-0.15,0.27c-0.107,0.175-0.162,0.261-0.162,0.261
			c-0.144,0.209-0.174,0.25-0.174,0.25c-0.186,0.24-0.251,0.318-0.251,0.318c-0.203,0.228-0.273,0.302-0.273,0.302
			c-0.219,0.216-0.295,0.286-0.295,0.286c-0.236,0.204-0.317,0.27-0.317,0.27c-0.166,0.129-0.251,0.192-0.251,0.192
			c-0.174,0.123-0.263,0.183-0.263,0.183c-0.181,0.117-0.274,0.175-0.274,0.175c-0.189,0.112-0.285,0.166-0.285,0.166
			c-0.196,0.106-0.296,0.158-0.296,0.158c-6.057,2.991-37.521,1.965-43.304-0.063c-0.508-0.101-2.305-0.47-3.269-0.897
			c-0.193-0.082-0.288-0.124-0.288-0.124c-0.184-0.087-0.274-0.132-0.274-0.132c-0.217-0.117-0.259-0.141-0.259-0.141
			c-0.222-0.135-0.279-0.173-0.279-0.173c-0.218-0.155-0.271-0.195-0.271-0.195c-0.201-0.165-0.249-0.207-0.249-0.207
			c-0.229-0.218-0.273-0.263-0.273-0.263c-0.208-0.23-0.248-0.277-0.248-0.277c-0.19-0.24-0.226-0.289-0.226-0.289
			c-0.14-0.199-0.208-0.3-0.208-0.3c-0.13-0.205-0.193-0.309-0.193-0.309C204.471,535.938,204.731,536.452,204.158,535.334z"/>
	</g>
</g>
</svg>
