<?xml version="1.0" encoding="utf-8"?>
<!-- Generator: Adobe Illustrator 24.0.1, SVG Export Plug-In . SVG Version: 6.00 Build 0)  -->
<!DOCTYPE svg PUBLIC "-//W3C//DTD SVG 1.1//EN" "http://www.w3.org/Graphics/SVG/1.1/DTD/svg11.dtd" [
	<!ENTITY ns_extend "http://ns.adobe.com/Extensibility/1.0/">
	<!ENTITY ns_ai "http://ns.adobe.com/AdobeIllustrator/10.0/">
	<!ENTITY ns_graphs "http://ns.adobe.com/Graphs/1.0/">
	<!ENTITY ns_vars "http://ns.adobe.com/Variables/1.0/">
	<!ENTITY ns_imrep "http://ns.adobe.com/ImageReplacement/1.0/">
	<!ENTITY ns_sfw "http://ns.adobe.com/SaveForWeb/1.0/">
	<!ENTITY ns_custom "http://ns.adobe.com/GenericCustomNamespace/1.0/">
	<!ENTITY ns_adobe_xpath "http://ns.adobe.com/XPath/1.0/">
]>
<svg version="1.1" xmlns:x="&ns_extend;" xmlns:i="&ns_ai;" xmlns:graph="&ns_graphs;"
	 xmlns="http://www.w3.org/2000/svg" xmlns:xlink="http://www.w3.org/1999/xlink" x="0px" y="0px" viewBox="0 0 750 750"
	 enable-background="new 0 0 750 750" xml:space="preserve">
<metadata>
	<sfw  xmlns="&ns_sfw;">
		<slices></slices>
		<sliceSourceBounds  bottomLeftOrigin="true" height="15878.78" width="11141.354" x="-4000" y="-7507.207"></sliceSourceBounds>
	</sfw>
</metadata>
<g id="FILL-BACKGROUND">
	<rect fill="#FFFFFF" width="750" height="750"/>
</g>
<g id="N-TEXT">
</g>
<g id="N-DIMENSIONS">
</g>
<g id="AG-DIAGRAM">
	<g id="POLYLINE_2958_">
		<g>
			<g>
				
					<line fill="none" stroke="#FB8604" stroke-width="3.25" stroke-linecap="round" stroke-linejoin="round" x1="140.666" y1="570.093" x2="142.666" y2="570.093"/>
				
					<line fill="none" stroke="#FB8604" stroke-width="3.25" stroke-linecap="round" stroke-linejoin="round" stroke-dasharray="3.9742,6.9549" x1="149.621" y1="570.093" x2="561.451" y2="570.093"/>
				
					<line fill="none" stroke="#FB8604" stroke-width="3.25" stroke-linecap="round" stroke-linejoin="round" x1="564.928" y1="570.093" x2="566.928" y2="570.093"/>
			</g>
		</g>
	</g>
</g>
<g id="AG-DETAILS">
	<g id="POLYLINE_1603_">
		<path fill="none" stroke="#FB8604" stroke-width="2" stroke-linecap="round" stroke-linejoin="round" stroke-miterlimit="10" d="
			M346.168,390.801c10.374-4.538,22.252-7.402,33.947-3.417c22.762,8.223,43.635,21.581,68.9,18.672"/>
	</g>
	<g id="POLYLINE_1602_">
		<path fill="none" stroke="#FB8604" stroke-width="2" stroke-linecap="round" stroke-linejoin="round" stroke-miterlimit="10" d="
			M559.529,186.658c1.354,1.195,3.301,2.84,3.801,4.946c0.791,2.807,0.109,6.286,1.071,9.409c0.046,0.127,0.07,0.189,0.07,0.189
			c0.05,0.122,0.076,0.182,0.076,0.182c0.054,0.118,0.082,0.176,0.082,0.176c0.051,0.099,0.077,0.148,0.077,0.148
			c0.054,0.096,0.082,0.143,0.082,0.143c0.086,0.138,0.116,0.183,0.116,0.183c0.092,0.132,0.124,0.175,0.124,0.175
			c0.098,0.126,0.132,0.167,0.132,0.167c0.104,0.121,0.139,0.16,0.139,0.16c0.109,0.116,0.147,0.153,0.147,0.153
			c0.115,0.111,0.154,0.148,0.154,0.148c14.396,7.868,17.561,23.972,2.195,37.013"/>
	</g>
	<g id="POLYLINE_1601_">
		<path fill="none" stroke="#FB8604" stroke-width="2" stroke-linecap="round" stroke-linejoin="round" stroke-miterlimit="10" d="
			M504.006,391.05c15.326-33.394-10.314-96.473-27.314-115.038c-3.713-5.092-8.674-11.862-7.496-19.026
			c0.029-0.09,0.032-0.105,0.097-0.283c0.054-0.137,0.073-0.182,0.073-0.182c0.059-0.133,0.079-0.176,0.079-0.176
			c0.064-0.128,0.086-0.171,0.086-0.171c0.069-0.124,0.092-0.165,0.092-0.165c0.073-0.12,0.098-0.16,0.098-0.16
			c0.078-0.116,0.104-0.154,0.104-0.154c0.082-0.112,0.11-0.149,0.11-0.149c0.087-0.108,0.116-0.143,0.116-0.143
			c0.122-0.138,0.153-0.171,0.153-0.171c0.129-0.131,0.162-0.163,0.162-0.163c0.136-0.124,0.171-0.154,0.171-0.154
			c0.106-0.088,0.142-0.117,0.142-0.117c0.11-0.084,0.148-0.112,0.148-0.112c0.114-0.08,0.153-0.107,0.153-0.107
			c0.118-0.076,0.158-0.101,0.158-0.101c0.122-0.072,0.163-0.096,0.163-0.096c0.125-0.068,0.167-0.091,0.167-0.091
			c8.664-3.343,15.26,4.754,20.587,10.88c0.184,0.153,0.28,0.241,0.603,0.477c0.134,0.093,0.202,0.138,0.202,0.138
			c0.135,0.086,0.202,0.127,0.202,0.127c0.135,0.078,0.203,0.115,0.203,0.115c0.136,0.07,0.204,0.103,0.204,0.103
			c0.136,0.062,0.17,0.076,0.17,0.076c0.137,0.054,0.171,0.067,0.171,0.067c0.137,0.047,0.172,0.058,0.172,0.058
			c0.138,0.039,0.173,0.048,0.173,0.048c0.139,0.031,0.174,0.038,0.174,0.038c0.105,0.018,0.14,0.023,0.14,0.023
			c0.122,0.014,0.151,0.017,0.151,0.017c0.116,0.008,0.146,0.009,0.146,0.009c0.117,0.002,0.146,0.002,0.146,0.002
			c0.117-0.003,0.147-0.004,0.147-0.004c0.118-0.008,0.147-0.011,0.147-0.011c0.118-0.014,0.177-0.022,0.177-0.022
			c0.118-0.02,0.177-0.031,0.177-0.031c0.118-0.026,0.177-0.04,0.177-0.04c0.118-0.032,0.177-0.049,0.177-0.049
			c0.118-0.038,0.177-0.058,0.177-0.058c0.118-0.043,0.177-0.066,0.177-0.066c0.117-0.049,0.176-0.074,0.176-0.074
			c0.117-0.054,0.176-0.082,0.176-0.082c8.257-4.154,1.934-17.368,11.992-21.407c0.137-0.045,0.206-0.066,0.206-0.066
			c0.137-0.04,0.206-0.058,0.206-0.058c0.137-0.034,0.206-0.05,0.206-0.05c0.137-0.028,0.206-0.041,0.206-0.041
			c0.137-0.023,0.205-0.033,0.205-0.033c0.137-0.017,0.205-0.024,0.205-0.024c0.136-0.011,0.204-0.015,0.204-0.015
			c0.135-0.005,0.203-0.005,0.203-0.005c0.135,0.002,0.202,0.004,0.202,0.004c0.134,0.008,0.201,0.014,0.201,0.014
			c0.133,0.015,0.199,0.023,0.199,0.023c0.132,0.021,0.198,0.033,0.198,0.033c0.131,0.027,0.197,0.041,0.197,0.041
			c0.131,0.032,0.196,0.05,0.196,0.05c0.13,0.038,0.195,0.058,0.195,0.058c13.963,10.101,15.266-5.265,30.955,1.914"/>
	</g>
	<g id="POLYLINE_1600_">
		<path fill="none" stroke="#FB8604" stroke-width="2" stroke-linecap="round" stroke-linejoin="round" stroke-miterlimit="10" d="
			M449.722,506.984c3.779,7.027,13.8,15.837,23.852,7.997"/>
	</g>
	<g id="POLYLINE_1599_">
		<path fill="none" stroke="#FB8604" stroke-width="2" stroke-linecap="round" stroke-linejoin="round" stroke-miterlimit="10" d="
			M167.262,536.264c7.387-0.702,14.199-5.516,17.197-13.006"/>
	</g>
</g>
<g id="AG-DETAIL">
</g>
<g id="AG-PEOPLE">
</g>
<g id="AG-ANIMALS">
	<g id="POLYLINE_1572_">
		
			<path fill="none" stroke="#FB8604" stroke-width="2.75" stroke-linecap="round" stroke-linejoin="round" stroke-miterlimit="10" d="
			M283.033,395.698c24.156-13.68,54.424-10.138,79.392,0.952c28.674,13.266,55.489,22.217,85.612,19.493"/>
	</g>
	<g id="POLYLINE_1571_">
		
			<path fill="none" stroke="#FB8604" stroke-width="2.75" stroke-linecap="round" stroke-linejoin="round" stroke-miterlimit="10" d="
			M451.053,351.84c-9.119,25.048-1.624,34.189-2.285,57.326c-0.555,4.053-1.066,7.571-0.408,12.17
			c1.258,8.126,1.879,16.983,1.874,25.43c-0.953,23.7,2.654,61.061-4.881,83.579c-0.005,0.107-0.007,0.16-0.007,0.16
			c-0.001,0.105,0,0.158,0,0.158c0.003,0.104,0.006,0.155,0.006,0.155c0.008,0.102,0.013,0.153,0.013,0.153
			c0.013,0.101,0.02,0.151,0.02,0.151c0.023,0.124,0.028,0.149,0.028,0.149c0.029,0.122,0.036,0.146,0.036,0.146
			c0.036,0.12,0.045,0.144,0.045,0.144c0.044,0.118,0.053,0.142,0.053,0.142c0.052,0.116,0.063,0.14,0.063,0.14
			c0.072,0.137,0.085,0.16,0.085,0.16c0.075,0.121,0.093,0.148,0.093,0.148c0.095,0.132,0.115,0.158,0.115,0.158
			c0.106,0.129,0.128,0.154,0.128,0.154c0.117,0.126,0.166,0.176,0.166,0.176c0.102,0.098,0.155,0.147,0.155,0.147
			c0.109,0.096,0.166,0.143,0.166,0.143c0.116,0.093,0.175,0.139,0.175,0.139c1.775,1.434,4.079,1.596,6.418,2.685
			c0.121,0.069,0.182,0.105,0.182,0.105c0.121,0.075,0.182,0.114,0.182,0.114c0.121,0.081,0.182,0.124,0.182,0.124
			c0.122,0.088,0.183,0.134,0.183,0.134c7.804,7.55,8.707,21.134,13.34,30.978c0.098,0.139,0.148,0.205,0.148,0.205
			c0.099,0.126,0.149,0.186,0.149,0.186c0.101,0.115,0.152,0.17,0.152,0.17c0.103,0.106,0.155,0.158,0.155,0.158
			c0.106,0.1,0.16,0.149,0.16,0.149c0.11,0.096,0.166,0.143,0.166,0.143c0.115,0.091,0.174,0.136,0.174,0.136
			c0.122,0.087,0.153,0.108,0.153,0.108c0.129,0.083,0.162,0.104,0.162,0.104c0.137,0.08,0.172,0.1,0.172,0.1
			c0.108,0.058,0.145,0.077,0.145,0.077c11.531,2.405,24.932,1.524,36.804,0.732c0.117-0.034,0.155-0.046,0.155-0.046
			c0.111-0.037,0.147-0.05,0.147-0.05c0.139-0.054,0.172-0.069,0.172-0.069c0.129-0.06,0.16-0.076,0.16-0.076
			c0.12-0.066,0.148-0.083,0.148-0.083c0.137-0.091,0.163-0.11,0.163-0.11c0.135-0.112,0.147-0.122,0.147-0.122
			c0.131-0.135,0.141-0.147,0.141-0.147c0.105-0.137,0.114-0.151,0.114-0.151c0.076-0.123,0.092-0.151,0.092-0.151
			c0.059-0.118,0.073-0.149,0.073-0.149c0.051-0.127,0.063-0.16,0.063-0.16c0.043-0.136,0.053-0.172,0.053-0.172
			c0.028-0.109,0.036-0.146,0.036-0.146c0.023-0.115,0.03-0.154,0.03-0.154c-0.013-8.646-5.921-19.174-17.348-17.967l-3.849,0.164
			c-0.487,0.009-1.752,0.044-2.633-0.12c-0.15-0.029-0.233-0.04-0.479-0.105c-0.1-0.028-0.149-0.043-0.149-0.043
			c-0.096-0.031-0.143-0.048-0.143-0.048c-0.11-0.042-0.142-0.054-0.142-0.054c-0.123-0.053-0.153-0.067-0.153-0.067
			c-0.117-0.058-0.145-0.074-0.145-0.074c-0.138-0.08-0.165-0.097-0.165-0.097c-0.131-0.088-0.156-0.107-0.156-0.107
			c-0.123-0.096-0.147-0.116-0.147-0.116c-0.117-0.104-0.14-0.125-0.14-0.125c-0.133-0.135-0.154-0.158-0.154-0.158
			c-0.105-0.121-0.125-0.146-0.125-0.146c-0.081-0.103-0.12-0.156-0.12-0.156c-0.078-0.109-0.116-0.165-0.116-0.165
			c-0.075-0.115-0.112-0.175-0.112-0.175c-0.283-0.497-0.262-0.433-0.639-1.254c-5.089-10.738-8.587-21.673-6.702-34.212
			c0.395-3.529,1.119-8.895,1.326-12.583c-0.351-19.16,6.588-39.877,10.353-58.254c3.272-16.555,0.101-23.966,10.59-38.826
			c12.765-16.252,17.925-33.268,19.227-52.488c3.915-30.769-6.133-31.147,2.514-57.714c0.437-1.609,0.87-3.355,1.318-5.474
			l2.169-10.938c3.845-19.263,13.15-30.199,35.486-33.861c11.096-2.552,19.623-3.847,27.261-12.701
			c1.369-1.842,2.536-4.087,2.678-6.581c0.231-3.682-1.943-6.975-2.625-10.861c-0.559-3.62,0.877-7.763-1.207-11.489
			c-1.145-2.317-2.405-5.639-3.312-8.406"/>
	</g>
	<g id="POLYLINE_1570_">
		
			<path fill="none" stroke="#FB8604" stroke-width="2.75" stroke-linecap="round" stroke-linejoin="round" stroke-miterlimit="10" d="
			M567.617,185.136c-1.67,0.283-4.213,1.167-6.228,1.561c-0.189,0.027-0.289,0.046-0.606,0.068
			c-0.133,0.006-0.199,0.008-0.199,0.008c-0.132,0.001-0.198,0-0.198,0c-0.131-0.005-0.196-0.009-0.196-0.009
			c-0.13-0.011-0.195-0.019-0.195-0.019c-0.129-0.018-0.161-0.023-0.161-0.023c-0.128-0.024-0.16-0.031-0.16-0.031
			c-0.127-0.03-0.159-0.038-0.159-0.038c-0.126-0.037-0.157-0.046-0.157-0.046c-0.125-0.043-0.156-0.055-0.156-0.055
			c-0.124-0.05-0.155-0.064-0.155-0.064c-0.123-0.058-0.162-0.077-0.162-0.077c-0.117-0.063-0.156-0.085-0.156-0.085
			c-0.116-0.07-0.155-0.095-0.155-0.095c-0.115-0.077-0.153-0.104-0.153-0.104c-0.114-0.084-0.151-0.113-0.151-0.113
			c-0.112-0.09-0.15-0.121-0.15-0.121c-0.111-0.096-0.148-0.13-0.148-0.13c-2.939-2.64-3.124-6.964-5.172-10.49
			c-0.086-0.119-0.116-0.158-0.116-0.158c-0.091-0.116-0.122-0.154-0.122-0.154c-0.095-0.112-0.128-0.149-0.128-0.149
			c-0.1-0.109-0.134-0.145-0.134-0.145c-0.105-0.106-0.14-0.14-0.14-0.14c-0.13-0.121-0.175-0.16-0.175-0.16
			c-1.42-1.145-2.699-1.54-4.764-2.16l-3.827-1.035c-15.501-6.556-39.28-3.301-52.622,10.176
			c-6.292,6.597-10.409,15.786-15.162,24.017c-5.9,9.188-12.808,19.105-17.675,29.164c-3.815,7.666-10.272,14.34-14.532,21.955
			c-0.079,0.139-0.1,0.172-0.1,0.172c-0.084,0.13-0.105,0.161-0.105,0.161c-0.091,0.122-0.115,0.151-0.115,0.151
			c-0.114,0.128-0.127,0.142-0.127,0.142c-0.128,0.12-0.143,0.133-0.143,0.133c-0.128,0.1-0.145,0.113-0.145,0.113
			c-0.115,0.077-0.142,0.094-0.142,0.094c-0.114,0.066-0.143,0.083-0.143,0.083c-0.091,0.048-0.155,0.08-0.155,0.08
			c-4.284,0.825-7.178,3.879-10.285,7.093c-2.509,1.901-7.81,1.579-11.003,1.865c-8.562,0.519-17.663,2.329-25.003,7.159
			c-7.316,5.357-14.144,5.713-22.794,4.958c-50.186,3.77-147.7,17.785-171.915,51.543c-5.444,7.1-0.151,20.169,10.774,16.688"/>
	</g>
	<g id="POLYLINE_1569_">
		
			<path fill="none" stroke="#FB8604" stroke-width="2.75" stroke-linecap="round" stroke-linejoin="round" stroke-miterlimit="10" d="
			M569.012,189.769c-0.548-0.581-1.107-1.271-1.532-2.177c-0.059-0.132-0.077-0.175-0.077-0.175
			c-0.053-0.13-0.069-0.174-0.069-0.174c-0.046-0.129-0.06-0.172-0.06-0.172c-0.041-0.133-0.05-0.165-0.05-0.165
			c-0.033-0.131-0.04-0.163-0.04-0.163c-0.025-0.129-0.03-0.161-0.03-0.161c-0.015-0.127-0.018-0.158-0.018-0.158
			c-0.005-0.125-0.005-0.156-0.005-0.156c0.006-0.138,0.008-0.153,0.008-0.153c0.019-0.136,0.022-0.151,0.022-0.151
			c0.033-0.134,0.037-0.148,0.037-0.148c0.048-0.132,0.054-0.146,0.054-0.146c0.063-0.129,0.071-0.144,0.071-0.144
			c0.079-0.127,0.089-0.141,0.089-0.141c0.108-0.139,0.119-0.153,0.119-0.153c0.113-0.12,0.138-0.145,0.138-0.145
			c0.137-0.122,0.166-0.146,0.166-0.146c0.123-0.096,0.156-0.119,0.156-0.119c2.362-1.424,5.782-2.155,8.661-1.071
			c0.137,0.061,0.204,0.093,0.204,0.093c0.132,0.066,0.197,0.101,0.197,0.101c0.127,0.071,0.189,0.108,0.189,0.108
			c0.122,0.076,0.182,0.115,0.182,0.115c0.117,0.081,0.174,0.123,0.174,0.123c0.112,0.086,0.167,0.13,0.167,0.13
			c0.107,0.091,0.159,0.137,0.159,0.137c0.101,0.095,0.151,0.144,0.151,0.144c0.096,0.1,0.143,0.151,0.143,0.151
			c0.091,0.105,0.134,0.158,0.134,0.158c0.086,0.11,0.127,0.166,0.127,0.166c0.08,0.115,0.119,0.173,0.119,0.173
			c0.075,0.119,0.111,0.18,0.111,0.18c0.07,0.123,0.103,0.186,0.103,0.186c0.065,0.128,0.096,0.192,0.096,0.192
			c0.06,0.131,0.089,0.198,0.089,0.198c0.056,0.135,0.082,0.204,0.082,0.204c0.571,1.694,0.776,3.567,0.595,5.692
			c-0.022,0.138-0.035,0.206-0.035,0.206c-0.028,0.133-0.043,0.198-0.043,0.198c-0.033,0.127-0.042,0.158-0.042,0.158
			c-0.038,0.122-0.048,0.151-0.048,0.151c-0.044,0.116-0.055,0.144-0.055,0.144c-0.062,0.137-0.075,0.163-0.075,0.163
			c-0.071,0.127-0.086,0.151-0.086,0.151c-0.097,0.138-0.106,0.149-0.106,0.149c-0.12,0.133-0.129,0.143-0.129,0.143
			c-0.135,0.115-0.146,0.123-0.146,0.123c-0.127,0.082-0.14,0.088-0.14,0.088c-0.128,0.061-0.145,0.068-0.145,0.068
			c-0.122,0.043-0.14,0.049-0.14,0.049c-0.13,0.033-0.149,0.037-0.149,0.037c-0.138,0.024-0.158,0.026-0.158,0.026
			c-0.103,0.011-0.145,0.014-0.145,0.014c-0.129,0.006-0.173,0.007-0.173,0.007c-0.134-0.001-0.18-0.003-0.18-0.003
			C574.707,193.397,571.577,191.966,569.012,189.769z"/>
	</g>
	<g id="POLYLINE_1568_">
		
			<path fill="none" stroke="#FB8604" stroke-width="2.75" stroke-linecap="round" stroke-linejoin="round" stroke-miterlimit="10" d="
			M503.638,188.109l1.167,1.049c1.546,1.382,3.057,3.246,3.609,5.471l0.823,2.806c2.074,8.622,12.439,8.153,17.959,22.771
			c0.075,0.101,0.112,0.15,0.112,0.15c0.113,0.139,0.151,0.183,0.151,0.183c0.115,0.123,0.134,0.143,0.134,0.143
			c0.136,0.126,0.156,0.142,0.156,0.142c0.139,0.106,0.159,0.119,0.159,0.119c0.121,0.074,0.142,0.085,0.142,0.085
			c0.124,0.057,0.145,0.066,0.145,0.066c0.136,0.043,0.154,0.047,0.154,0.047c0.129,0.023,0.148,0.025,0.148,0.025
			c0.132,0.006,0.151,0.006,0.151,0.006c0.134-0.01,0.154-0.012,0.154-0.012c0.137-0.025,0.156-0.03,0.156-0.03
			c0.139-0.041,0.159-0.047,0.159-0.047c0.12-0.047,0.141-0.055,0.141-0.055c0.122-0.057,0.142-0.068,0.142-0.068
			c0.103-0.056,0.144-0.08,0.144-0.08c0.124-0.078,0.166-0.106,0.166-0.106c0.125-0.09,0.167-0.121,0.167-0.121
			c0.127-0.101,0.169-0.136,0.169-0.136c0.128-0.111,0.17-0.15,0.17-0.15c0.128-0.122,0.171-0.164,0.171-0.164
			c9.488-13.673,10.869-31.76-5.754-44.535"/>
	</g>
	<g id="POLYLINE_1565_">
		
			<path fill="none" stroke="#FB8604" stroke-width="2.75" stroke-linecap="round" stroke-linejoin="round" stroke-miterlimit="10" d="
			M302.326,371.793l-3.155,2.18c-14.821,9.079-22.011,38.881-29.913,53.567c-26.303,53.342-106.412,57.176-79.455,119.737
			c0.101,0.136,0.152,0.202,0.152,0.202c0.104,0.129,0.156,0.191,0.156,0.191c0.106,0.122,0.16,0.182,0.16,0.182
			c0.11,0.116,0.165,0.172,0.165,0.172c0.113,0.11,0.171,0.163,0.171,0.163c0.117,0.104,0.177,0.154,0.177,0.154
			c0.121,0.098,0.183,0.146,0.183,0.146c0.126,0.093,0.19,0.138,0.19,0.138c0.131,0.088,0.198,0.131,0.198,0.131
			c9.773,3.726,18.336,0.794,18.597,17.159c-0.032,0.127-0.043,0.169-0.043,0.169c-0.036,0.125-0.049,0.166-0.049,0.166
			c-0.04,0.122-0.054,0.162-0.054,0.162c-0.045,0.119-0.06,0.158-0.06,0.158c-0.049,0.116-0.066,0.154-0.066,0.154
			c-0.054,0.113-0.072,0.15-0.072,0.15c-0.058,0.11-0.079,0.146-0.079,0.146c-0.063,0.107-0.085,0.142-0.085,0.142
			c-0.092,0.137-0.115,0.171-0.115,0.171c-0.099,0.132-0.125,0.164-0.125,0.164c-0.107,0.126-0.135,0.157-0.135,0.157
			c-0.114,0.121-0.144,0.151-0.144,0.151c-0.121,0.116-0.152,0.144-0.152,0.144c-0.128,0.111-0.161,0.138-0.161,0.138
			c-4.084,3.178-15.624,1.611-20.677,2.037c-5.614-0.33-14.598,0.667-17.469-5.987c-1.673-10.984-2.376-27.565-4.685-36.114
			c-4.054-27.111-14.95-38.529,10.38-56.782c11.77-8.567,20.606-20.525,28.301-34.096c12.281-18.781,7.706-43.411,6.679-64.766
			c-1-24.251-1.907-34.54,23.849-49.138"/>
	</g>
</g>
<g id="AG-OUTLINE">
	<g id="POLYLINE_923_">
		
			<path fill="none" stroke="#FB8604" stroke-width="3.5" stroke-linecap="round" stroke-linejoin="round" stroke-miterlimit="10" d="
			M283.033,395.698c-6.93,14.752-11.457,31.14-21.465,44.279c-31.36,42.354-96.055,48.81-71.763,107.301
			c0.101,0.136,0.152,0.202,0.152,0.202c0.104,0.129,0.156,0.191,0.156,0.191c0.106,0.122,0.16,0.182,0.16,0.182
			c0.11,0.116,0.165,0.172,0.165,0.172c0.113,0.11,0.171,0.163,0.171,0.163c0.117,0.104,0.177,0.154,0.177,0.154
			c0.121,0.098,0.183,0.146,0.183,0.146c0.126,0.093,0.19,0.138,0.19,0.138c0.131,0.088,0.198,0.131,0.198,0.131
			c9.773,3.726,18.336,0.794,18.597,17.159c-0.032,0.127-0.043,0.169-0.043,0.169c-0.036,0.125-0.049,0.166-0.049,0.166
			c-0.04,0.122-0.054,0.162-0.054,0.162c-0.045,0.119-0.06,0.158-0.06,0.158c-0.049,0.116-0.066,0.154-0.066,0.154
			c-0.054,0.113-0.072,0.15-0.072,0.15c-0.058,0.11-0.079,0.146-0.079,0.146c-0.063,0.107-0.085,0.142-0.085,0.142
			c-0.092,0.137-0.115,0.171-0.115,0.171c-0.099,0.132-0.125,0.164-0.125,0.164c-0.107,0.126-0.135,0.157-0.135,0.157
			c-0.114,0.121-0.144,0.151-0.144,0.151c-0.121,0.116-0.152,0.144-0.152,0.144c-0.128,0.111-0.161,0.138-0.161,0.138
			c-4.084,3.178-15.624,1.611-20.677,2.037c-5.575-0.335-14.41,0.669-17.401-5.822c-1.81-10.945-2.398-27.719-4.754-36.279
			c-4.054-27.111-14.95-38.529,10.38-56.782c11.77-8.567,20.606-20.525,28.301-34.096c12.281-18.781,7.706-43.411,6.679-64.766
			c-0.24-8.586-1.065-16.52,0.863-25.461c-2.063,0.497-4.592,0.877-6.782,0.029c-10.245-5.845-6.756-16.435,2.671-24.141
			c18.41-17.766,75.55-32.355,93.586-34.84c12.122-1.75,42.392-6.143,54.011-7.971c5.761-0.767,11.395-1.476,17.656-1.307
			c21.038,3.23,20.521-10.654,47.797-12.117c2.956-0.268,6.767-0.001,9.791-1.195c3.948-2.337,5.812-6.818,11.227-7.641
			c0.138-0.06,0.205-0.091,0.205-0.091c0.128-0.063,0.159-0.078,0.159-0.078c0.119-0.065,0.148-0.081,0.148-0.081
			c0.128-0.079,0.146-0.091,0.146-0.091c0.135-0.098,0.15-0.11,0.15-0.11c0.134-0.117,0.148-0.13,0.148-0.13
			c0.119-0.125,0.144-0.153,0.144-0.153c0.094-0.118,0.117-0.149,0.117-0.149c0.086-0.126,0.107-0.159,0.107-0.159
			c4.139-7.502,10.626-14.168,14.652-22.161c5.016-10.395,11.905-20.05,18.12-29.928c4.672-8.146,8.493-16.918,15.341-23.901
			c10.775-11.038,34.864-16.907,51.997-9.529c0,0,3.827,1.035,3.827,1.035c1.227,0.36,3.279,0.952,4.58,2.006
			c0.139,0.115,0.184,0.154,0.184,0.154c0.132,0.12,0.175,0.16,0.175,0.16c0.106,0.105,0.14,0.14,0.14,0.14
			c0.101,0.108,0.134,0.145,0.134,0.145c0.096,0.112,0.128,0.149,0.128,0.149c2.213,3.122,2.173,7.727,5.3,10.699
			c0.11,0.102,0.147,0.136,0.147,0.136c0.111,0.096,0.149,0.128,0.149,0.128c0.112,0.09,0.15,0.119,0.15,0.119
			c0.114,0.084,0.152,0.111,0.152,0.111c0.115,0.077,0.153,0.102,0.153,0.102c0.116,0.07,0.155,0.092,0.155,0.092
			c0.117,0.063,0.156,0.083,0.156,0.083c0.112,0.053,0.15,0.069,0.15,0.069c0.113,0.046,0.151,0.061,0.151,0.061
			c0.114,0.04,0.152,0.052,0.152,0.052c0.115,0.034,0.153,0.044,0.153,0.044c0.108,0.026,0.162,0.038,0.162,0.038
			c0.108,0.021,0.163,0.03,0.163,0.03c0.109,0.016,0.164,0.023,0.164,0.023c0.11,0.011,0.165,0.015,0.165,0.015
			c0.111,0.006,0.166,0.008,0.166,0.008c0.112,0.002,0.167,0.002,0.167,0.002c1.323,0.003,3.257-0.712,4.817-1.103
			c0.594-0.151,1.272-0.335,2.283-0.536c0.13-0.123,0.158-0.147,0.158-0.147c0.118-0.096,0.149-0.12,0.149-0.12
			c0.13-0.094,0.164-0.118,0.164-0.118c2.359-1.353,5.717-2.08,8.561-1c0.137,0.061,0.204,0.093,0.204,0.093
			c0.132,0.066,0.197,0.101,0.197,0.101c0.127,0.071,0.189,0.108,0.189,0.108c0.122,0.076,0.182,0.115,0.182,0.115
			c0.117,0.081,0.174,0.123,0.174,0.123c0.112,0.086,0.167,0.13,0.167,0.13c0.107,0.091,0.159,0.137,0.159,0.137
			c0.101,0.095,0.151,0.144,0.151,0.144c0.096,0.1,0.143,0.151,0.143,0.151c0.091,0.105,0.134,0.158,0.134,0.158
			c0.086,0.11,0.127,0.166,0.127,0.166c0.08,0.115,0.119,0.173,0.119,0.173c0.075,0.119,0.111,0.18,0.111,0.18
			c0.07,0.123,0.103,0.186,0.103,0.186c0.065,0.128,0.096,0.192,0.096,0.192c0.06,0.131,0.089,0.198,0.089,0.198
			c0.056,0.135,0.082,0.204,0.082,0.204c0.576,1.733,0.812,3.719,0.565,5.872c-0.023,0.117-0.032,0.155-0.032,0.155
			c-0.027,0.113-0.037,0.15-0.037,0.15c0.853,2.619,1.988,5.65,3.312,8.406c2.004,3.515,0.652,7.657,1.26,11.793
			c0.508,2.832,2.214,5.864,2.547,9.121c0.195,10.954-12.804,16.872-24.321,19.491c-21.305,3.982-35.58,8.398-41.079,35.088
			l-2.169,10.938c-0.323,1.518-0.775,3.498-1.318,5.474c-4.881,13.188-3.894,20.411-1.913,35.288
			c0.683,29.297-2.332,52.406-19.828,74.915c-8.592,10.466-8.318,24.214-10.34,37.517c-3.825,19.591-10.87,39.317-10.603,59.563
			c-0.071,1.12-0.168,2.424-0.332,4.011c-2.791,17.664-1.816,27.757,6.384,44.097c0.075,0.115,0.113,0.172,0.113,0.172
			c0.078,0.109,0.117,0.162,0.117,0.162c0.101,0.128,0.122,0.152,0.122,0.152c0.106,0.12,0.127,0.143,0.127,0.143
			c0.134,0.133,0.157,0.154,0.157,0.154c0.118,0.102,0.142,0.122,0.142,0.122c0.124,0.095,0.15,0.113,0.15,0.113
			c0.132,0.087,0.159,0.103,0.159,0.103c0.111,0.064,0.14,0.079,0.14,0.079c0.117,0.058,0.147,0.072,0.147,0.072
			c0.123,0.053,0.154,0.066,0.154,0.066c0.11,0.042,0.157,0.058,0.157,0.058c0.096,0.031,0.145,0.046,0.145,0.046
			c1.121,0.275,1.703,0.275,3.212,0.253l3.849-0.164c9.578-1.114,17.044,6.997,17.386,17.696c-0.017,0.138-0.027,0.206-0.027,0.206
			c-0.018,0.105-0.025,0.144-0.025,0.144c-0.024,0.113-0.033,0.15-0.033,0.15c-0.029,0.107-0.039,0.142-0.039,0.142
			c-0.045,0.134-0.057,0.167-0.057,0.167c-0.053,0.125-0.067,0.155-0.067,0.155c-0.061,0.116-0.077,0.144-0.077,0.144
			c-0.087,0.134-0.096,0.146-0.096,0.146c-0.109,0.134-0.119,0.146-0.119,0.146c-0.135,0.132-0.147,0.143-0.147,0.143
			c-0.125,0.099-0.152,0.118-0.152,0.118c-0.139,0.089-0.168,0.106-0.168,0.106c-0.121,0.065-0.153,0.08-0.153,0.08
			c-0.131,0.059-0.165,0.073-0.165,0.073c-0.105,0.04-0.141,0.053-0.141,0.053c-0.111,0.037-0.149,0.049-0.149,0.049
			c-12.074,0.857-24.77,1.682-36.806-0.642c-0.114-0.056-0.151-0.075-0.151-0.075c-0.108-0.058-0.144-0.077-0.144-0.077
			c-0.137-0.08-0.17-0.1-0.17-0.1c-0.129-0.083-0.16-0.105-0.16-0.105c-0.122-0.087-0.181-0.131-0.181-0.131
			c-0.115-0.091-0.171-0.138-0.171-0.138c-0.11-0.096-0.164-0.145-0.164-0.145c-0.106-0.1-0.158-0.152-0.158-0.152
			c-0.103-0.106-0.154-0.162-0.154-0.162c-0.101-0.115-0.151-0.175-0.151-0.175c-0.099-0.126-0.149-0.192-0.149-0.192
			c-4.759-9.768-5.092-21.8-12.834-30.597c-0.198-0.183-0.341-0.321-0.665-0.566c-0.122-0.088-0.182-0.13-0.182-0.13
			c-0.121-0.081-0.182-0.12-0.182-0.12c-0.121-0.075-0.182-0.111-0.182-0.111c-1.645-0.935-3.783-1.033-5.755-2.236
			c-0.245-0.147-0.437-0.258-0.784-0.518c-0.118-0.092-0.175-0.139-0.175-0.139c-0.112-0.095-0.166-0.143-0.166-0.143
			c-0.104-0.097-0.155-0.147-0.155-0.147c-0.12-0.125-0.143-0.15-0.143-0.15c-0.11-0.128-0.131-0.154-0.131-0.154
			c-0.099-0.131-0.117-0.157-0.117-0.157c-0.084-0.129-0.098-0.152-0.098-0.152c-0.076-0.137-0.087-0.159-0.087-0.159
			c-0.064-0.139-0.074-0.163-0.074-0.163c-0.045-0.118-0.053-0.142-0.053-0.142c-0.038-0.12-0.045-0.144-0.045-0.144
			c-0.031-0.122-0.036-0.146-0.036-0.146c-0.024-0.124-0.028-0.149-0.028-0.149c-0.014-0.1-0.02-0.151-0.02-0.151
			c-0.009-0.102-0.013-0.153-0.013-0.153c-0.005-0.103-0.006-0.155-0.006-0.155c0-0.105,0-0.158,0-0.158
			c2.689-9.639,4.846-19.739,4.613-30.344c-0.283-20.561,1.723-59.123-1.6-78.825c-0.876-1.035,1.12-5.37-1.564-5.106
			c-7.532,0.506-15.117,0.379-22.532-0.345c-21.98-1.671-42.26-10.659-61.839-19.234C336.52,385.615,308.96,381.745,283.033,395.698
			z"/>
	</g>
</g>
</svg>
