<?xml version="1.0" encoding="utf-8"?>
<!-- Generator: Adobe Illustrator 24.1.0, SVG Export Plug-In . SVG Version: 6.00 Build 0)  -->
<!DOCTYPE svg PUBLIC "-//W3C//DTD SVG 1.1//EN" "http://www.w3.org/Graphics/SVG/1.1/DTD/svg11.dtd" [
	<!ENTITY ns_extend "http://ns.adobe.com/Extensibility/1.0/">
	<!ENTITY ns_ai "http://ns.adobe.com/AdobeIllustrator/10.0/">
	<!ENTITY ns_graphs "http://ns.adobe.com/Graphs/1.0/">
	<!ENTITY ns_vars "http://ns.adobe.com/Variables/1.0/">
	<!ENTITY ns_imrep "http://ns.adobe.com/ImageReplacement/1.0/">
	<!ENTITY ns_sfw "http://ns.adobe.com/SaveForWeb/1.0/">
	<!ENTITY ns_custom "http://ns.adobe.com/GenericCustomNamespace/1.0/">
	<!ENTITY ns_adobe_xpath "http://ns.adobe.com/XPath/1.0/">
]>
<svg version="1.1" xmlns:x="&ns_extend;" xmlns:i="&ns_ai;" xmlns:graph="&ns_graphs;"
	 xmlns="http://www.w3.org/2000/svg" xmlns:xlink="http://www.w3.org/1999/xlink" x="0px" y="0px" viewBox="0 0 750 750"
	 enable-background="new 0 0 750 750" xml:space="preserve">
<metadata>
	<sfw  xmlns="&ns_sfw;">
		<slices></slices>
		<sliceSourceBounds  bottomLeftOrigin="true" height="3565.921" width="5322.413" x="-5308.413" y="1355.079"></sliceSourceBounds>
	</sfw>
</metadata>
<g id="FILL-BACKGROUND">
	<rect fill="#FFFFFF" width="750" height="750"/>
</g>
<g id="N-DIMENSIONS">
</g>
<g id="N-TEXT">
</g>
<g id="AG-DIAGRAM">
	<g id="POLYLINE_42_">
		<g>
			<g>
				
					<line fill="none" stroke="#00B9D2" stroke-width="3.5" stroke-linecap="round" stroke-linejoin="round" x1="148.973" y1="611.22" x2="150.973" y2="611.22"/>
				
					<line fill="none" stroke="#00B9D2" stroke-width="3.5" stroke-linecap="round" stroke-linejoin="round" stroke-dasharray="4.0235,7.041" x1="158.014" y1="611.22" x2="597.073" y2="611.22"/>
				
					<line fill="none" stroke="#00B9D2" stroke-width="3.5" stroke-linecap="round" stroke-linejoin="round" x1="600.594" y1="611.22" x2="602.594" y2="611.22"/>
			</g>
		</g>
	</g>
</g>
<g id="AG-DETAILS">
	<g id="POLYLINE_268_">
		
			<line fill="none" stroke="#00B9D2" stroke-width="2" stroke-linecap="round" stroke-linejoin="round" stroke-miterlimit="10" x1="199.938" y1="572.213" x2="199.938" y2="186.635"/>
	</g>
	<g id="POLYLINE_267_">
		
			<line fill="none" stroke="#00B9D2" stroke-width="2" stroke-linecap="round" stroke-linejoin="round" stroke-miterlimit="10" x1="551.629" y1="572.213" x2="551.629" y2="186.635"/>
	</g>
	<g id="POLYLINE_266_">
		
			<path fill="none" stroke="#00B9D2" stroke-width="2.75" stroke-linecap="round" stroke-linejoin="round" stroke-miterlimit="10" d="
			M404.843,375.761c-0.043-6.44,2.679-12.438,7.298-16.878c1.255-1.207,2.628-2.3,4.114-3.21c-2.342-3.42-5.537-6.172-9.277-7.963
			c-3.787-1.813-8.137-2.727-12.338-2.583c-4.577,0.157-8.814,2.002-13.024,3.617c-2.864,1.099-5.045,1.635-7.986,0.696
			c-4.536-1.447-8.811-3.873-13.682-3.987c-4.633-0.108-9.299,1.278-13.237,3.685c-4.208,2.571-7.608,6.327-9.873,10.697
			c-2.359,4.551-3.485,9.65-3.734,14.748c-0.258,5.263,0.391,10.548,1.616,15.663c1.21,5.056,3.007,9.99,5.333,14.639
			c2.314,4.625,5.238,9,8.534,12.984c2.231,2.698,4.868,5.39,8.201,6.674c2.916,1.123,6.077,0.737,8.969-0.276
			c2.311-0.81,4.487-1.962,6.853-2.623c2.227-0.622,4.565-0.837,6.87-0.688c2.342,0.152,4.566,0.777,6.725,1.675
			c2.023,0.841,4.001,1.799,6.168,2.216c2.686,0.516,5.477,0.305,7.973-0.851c3.277-1.517,5.802-4.299,7.969-7.111
			c3.196-4.147,6.043-8.577,8.222-13.344c0.541-1.183,1.042-2.384,1.505-3.6c0.238-0.625,0.466-1.254,0.676-1.889
			c0.239-0.722,0.439-0.858-0.245-1.167c-1.979-0.894-3.825-2.124-5.481-3.523c-3.564-3.014-6.187-7.029-7.369-11.557
			C405.108,379.833,404.865,377.799,404.843,375.761"/>
	</g>
	<g id="POLYLINE_265_">
		
			<path fill="none" stroke="#00B9D2" stroke-width="2.75" stroke-linecap="round" stroke-linejoin="round" stroke-miterlimit="10" d="
			M375.898,344.001c3.884,0.298,7.747-1.082,10.942-3.224c4.221-2.831,7.368-7.12,9.052-11.898c0.86-2.439,1.325-5.027,1.26-7.617
			c-0.013-0.502,0.075-1.407-0.294-1.586c-0.334-0.162-1.292,0.122-1.655,0.181c-1.209,0.195-2.396,0.52-3.548,0.932
			c-4.782,1.713-9.016,4.903-11.866,9.114c-2.577,3.809-4.31,8.486-3.988,13.136C375.823,343.361,375.855,343.682,375.898,344.001z"
			/>
	</g>
</g>
<g id="AG-FURNITURE">
</g>
<g id="AG-PEOPLE">
</g>
<g id="AG-DIGITAL">
	<g id="POLYLINE_10_">
		
			<path fill="none" stroke="#00B9D2" stroke-width="2.75" stroke-linecap="round" stroke-linejoin="round" stroke-miterlimit="10" d="
			M193.417,186.635c0-10.255,0-20.511,0-30.766c0-3.4-0.192-6.862,0.01-10.259c0.092-1.55,0.735-3.037,1.811-4.156
			c2.29-2.38,6.148-2.647,8.744-0.595c3.286,2.598,2.476,7.196,2.476,10.882c0,11.358,0,22.717,0,34.075c0,0.273,0,0.546,0,0.819"/>
	</g>
	<g id="POLYLINE_9_">
		
			<path fill="none" stroke="#00B9D2" stroke-width="2.75" stroke-linecap="round" stroke-linejoin="round" stroke-miterlimit="10" d="
			M188.652,607.226c1.571,0.001,3.265-0.396,4.136-1.834c0.672-1.109,0.629-2.413,0.629-3.661c0-8.929,0-17.858,0-26.786
			c0-0.383-0.287-2.442,0-2.728c0.13-0.13,1.031-0.003,1.204-0.003c1.129,0,2.258,0,3.387,0c2.416,0,4.831,0,7.247,0
			c1.086,0,1.204-0.249,1.204,0.793c0,8.914,0,17.827,0,26.741c0,3.082-0.35,6.834,3.616,7.403c0.38,0.055,0.765,0.075,1.149,0.075"
			/>
	</g>
	<g id="POLYLINE_7_">
		
			<path fill="none" stroke="#00B9D2" stroke-width="2.75" stroke-linecap="round" stroke-linejoin="round" stroke-miterlimit="10" d="
			M175.056,611.22c0-0.938,0-1.876,0-2.814c0-0.317-0.128-1.025,0.089-1.18c0.346-0.248,1.789,0,2.199,0c3.708,0,7.416,0,11.124,0
			c9.78,0,19.561,0,29.341,0c1.556,0,3.111,0,4.667,0c0.415,0,1.892-0.252,2.242,0c0.205,0.147,0.101,0.65,0.101,0.965
			c0,0.616,0,1.232,0,1.849c0,0.169,0.123,1.034,0,1.162c-0.164,0.17-1.243,0.019-1.483,0.019c-8.411,0-16.822,0-25.233,0
			c-7.55,0-15.101,0-22.651,0C175.32,611.22,175.188,611.22,175.056,611.22z"/>
	</g>
	<g id="POLYLINE_6_">
		
			<path fill="none" stroke="#00B9D2" stroke-width="2.75" stroke-linecap="round" stroke-linejoin="round" stroke-miterlimit="10" d="
			M175.056,572.213c0.895,0,1.79,0,2.685,0c2.552,0,5.104,0,7.657,0c4.034,0,8.069,0,12.103,0c5.367,0,10.733,0,16.099,0
			c6.477,0,12.955,0,19.432,0c7.433,0,14.866,0,22.299,0c8.25,0,16.5,0,24.75,0c8.821,0,17.643,0,26.464,0
			c9.291,0,18.582,0,27.872,0c9.506,0,19.011,0,28.517,0c9.625,0,19.249,0,28.874,0c9.486,0,18.972,0,28.459,0
			c9.213,0,18.427,0,27.64,0c8.801,0,17.603,0,26.404,0c8.139,0,16.278,0,24.417,0c7.34,0,14.68,0,22.019,0c6.39,0,12.78,0,19.17,0
			c5.211,0,10.421,0,15.632,0c3.885,0,7.77,0,11.655,0c2.391,0,4.782,0,7.173,0c0.33,0,1.918,0.21,2.133-0.032
			c0.109-0.123,0-0.851,0-1.006c0-0.787,0-1.575,0-2.362c0-2.819,0-5.639,0-8.458c0-4.348,0-8.697,0-13.045c0-5.65,0-11.3,0-16.95
			c0-6.777,0-13.554,0-20.331c0-7.749,0-15.498,0-23.247c0-8.464,0-16.929,0-25.393c0-9.021,0-18.042,0-27.063
			c0-9.428,0-18.857,0-28.285c0-9.565,0-19.13,0-28.696c0-9.551,0-19.103,0-28.654c0-9.387,0-18.774,0-28.161
			c0-8.952,0-17.905,0-26.857c0-8.402,0-16.805,0-25.207c0-7.59,0-15.181,0-22.771c0-6.652,0-13.303,0-19.955
			c0-5.466,0-10.932,0-16.398c0-4.121,0-8.241,0-12.362c0-2.593,0-5.186,0-7.779c0-0.356,0.267-2.299-0.004-2.563
			c-0.313-0.305-2.455,0-2.862,0c-2.62,0-5.24,0-7.86,0c-4.088,0-8.175,0-12.263,0c-5.388,0-10.776,0-16.163,0
			c-6.543,0-13.085,0-19.628,0c-7.466,0-14.933,0-22.399,0c-8.277,0-16.553,0-24.83,0c-8.841,0-17.682,0-26.523,0
			c-9.304,0-18.608,0-27.911,0c-9.512,0-19.024,0-28.536,0c-9.583,0-19.167,0-28.75,0c-9.52,0-19.039,0-28.559,0
			c-9.199,0-18.399,0-27.598,0c-8.745,0-17.489,0-26.234,0c-8.148,0-16.295,0-24.443,0c-7.306,0-14.611,0-21.917,0
			c-6.325,0-12.649,0-18.974,0c-5.188,0-10.375,0-15.563,0c-3.831,0-7.661,0-11.492,0c-2.33,0-4.659,0-6.989,0
			c-0.346,0-1.754-0.188-1.957,0.06c-0.123,0.15,0,0.927,0,1.112c0,0.821,0,1.642,0,2.463c0,2.881,0,5.761,0,8.642
			c0,4.381,0,8.762,0,13.143c0,5.718,0,11.437,0,17.155c0,6.817,0,13.633,0,20.45c0,7.746,0,15.493,0,23.239
			c0,8.524,0,17.048,0,25.572c0,9.039,0,18.077,0,27.116c0,9.398,0,18.796,0,28.195c0,9.609,0,19.217,0,28.826
			c0,9.547,0,19.094,0,28.642c0,9.375,0,18.751,0,28.126c0,8.933,0,17.867,0,26.8c0,8.376,0,16.752,0,25.128
			c0,7.557,0,15.114,0,22.671c0,6.585,0,13.17,0,19.755c0,5.444,0,10.887,0,16.331c0,4.065,0,8.131,0,12.196
			c0,2.523,0,5.046,0,7.569C175.056,570.622,175.056,571.417,175.056,572.213z"/>
	</g>
	<g id="POLYLINE_5_">
		
			<path fill="none" stroke="#00B9D2" stroke-width="2.75" stroke-linecap="round" stroke-linejoin="round" stroke-miterlimit="10" d="
			M576.511,611.22c0-0.938,0-1.876,0-2.814c0-0.292,0.124-1.033-0.077-1.18c-0.342-0.25-1.805,0-2.211,0c-3.708,0-7.416,0-11.124,0
			c-9.751,0-19.502,0-29.253,0c-2.366,0-4.733,0-7.099,0c0.115,0-0.195,3.795,0.077,3.994c0.342,0.25,1.805,0,2.211,0
			c3.708,0,7.416,0,11.124,0c9.751,0,19.502,0,29.253,0C571.778,611.22,574.144,611.22,576.511,611.22z"/>
	</g>
	<g id="POLYLINE_4_">
		
			<path fill="none" stroke="#00B9D2" stroke-width="2.75" stroke-linecap="round" stroke-linejoin="round" stroke-miterlimit="10" d="
			M562.915,607.226c-1.571,0.001-3.265-0.396-4.136-1.834c-0.672-1.109-0.629-2.413-0.629-3.661c0-8.929,0-17.858,0-26.786
			c0-0.383,0.287-2.442,0-2.728c-0.13-0.13-1.031-0.003-1.204-0.003c-1.129,0-2.258,0-3.387,0c-2.416,0-4.831,0-7.247,0
			c-1.086,0-1.203-0.249-1.203,0.793c0,8.914,0,17.827,0,26.741c0,3.082,0.35,6.834-3.616,7.403
			c-0.38,0.055-0.766,0.075-1.149,0.075"/>
	</g>
	<g id="POLYLINE_2_">
		
			<path fill="none" stroke="#00B9D2" stroke-width="2.75" stroke-linecap="round" stroke-linejoin="round" stroke-miterlimit="10" d="
			M558.15,186.635c0-10.255,0-20.511,0-30.766c0-3.4,0.192-6.862-0.01-10.259c-0.092-1.55-0.734-3.037-1.811-4.156
			c-2.29-2.38-6.148-2.647-8.744-0.595c-3.286,2.598-2.476,7.196-2.476,10.882c0,11.358,0,22.717,0,34.075c0,0.273,0,0.546,0,0.819"
			/>
	</g>
</g>
<g id="AG-OUTLINE">
	<g id="POLYLINE_12_">
		
			<path fill="none" stroke="#00B9D2" stroke-width="3.5" stroke-linecap="round" stroke-linejoin="round" stroke-miterlimit="10" d="
			M558.15,186.635c4.926,0,9.852,0,14.778,0c1.002,0,2.004-0.012,3.006,0c0.108,0.001,0.507-0.059,0.577,0.013
			c0.055,0.057-0.009,0.391,0,0.468c0.303,2.63,0,5.478,0,8.12c0,5.649,0,11.299,0,16.948c0,8.107,0,16.213,0,24.32
			c0,10.076,0,20.151,0,30.227c0,11.594,0,23.188,0,34.781c0,12.59,0,25.181,0,37.771c0,13.053,0,26.107,0,39.16
			c0,13.066,0,26.131,0,39.197c0,12.589,0,25.178,0,37.768c0,11.659,0,23.317,0,34.976c0,10.195,0,20.39,0,30.584
			c0,8.216,0,16.432,0,24.648c0,5.783,0,11.566,0,17.349c0,2.861,0,5.723,0,8.584c0,0.102,0.066,0.524,0,0.607
			c-0.214,0.264-1.769,0.056-2.133,0.056c-2.955,0-5.91,0-8.865,0c-1.452,0-2.904,0-4.356,0c-0.747,0-1.963-0.239-2.676,0
			c-0.462,0.155-0.198-0.136-0.331,0.332c-0.163,0.578,0,1.443,0,2.041c0,2.569,0,5.137,0,7.706c0,5.893,0,11.786,0,17.679
			c0,1.708-0.306,3.851,0.615,5.398c1.097,1.841,3.268,1.857,5.157,1.857c2.875,0,5.75,0,8.625,0c1.135,0,2.298-0.074,3.432,0
			c0.866,0.056,0.532,0.497,0.532,1.406c0,0.439,0.249,2.334-0.048,2.588c-0.125,0.107-0.818,0-0.975,0c-1.653,0-3.306,0-4.959,0
			c-11.894,0-23.788,0-35.682,0c-2.7,0-5.399,0-8.099,0c0.072,0-0.181-3.792,0.168-3.994c0.374-0.217,1.53,0,1.956,0
			c1.076,0,2.151,0,3.227,0c3.011,0,6.163,0.284,9.164-0.047c1.428-0.157,2.766-0.774,3.404-2.14
			c0.512-1.097,0.442-2.325,0.442-3.503c0-8.409,0-16.818,0-25.227c0-1.116,0.279-2.647,0-3.734c-0.06-0.235,0.047-0.264-0.08-0.361
			c-0.202-0.153-1.131,0-1.374,0c-2.505,0-5.009,0-7.514,0c-4.393,0-8.786,0-13.179,0c-6.005,0-12.011,0-18.016,0
			c-7.342,0-14.684,0-22.026,0c-8.403,0-16.806,0-25.21,0c-9.227,0-18.455,0-27.682,0c-9.7,0-19.399,0-29.099,0
			c-9.932,0-19.865,0-29.797,0c-9.89,0-19.779,0-29.669,0c-9.571,0-19.142,0-28.713,0c-8.977,0-17.953,0-26.93,0
			c-8.106,0-16.213,0-24.319,0c-6.961,0-13.921,0-20.882,0c-5.539,0-11.078,0-16.617,0c-3.842,0-7.684,0-11.525,0
			c-1.206,0-2.412,0-3.618,0c-0.622,0-1.386-0.121-1.998,0c-0.607,0.12-0.401,0.079-0.401,0.926c0,3.72,0,7.44,0,11.16
			c0,4.622,0,9.244,0,13.866c0,1.814-0.199,3.76,0.07,5.566c0.576,3.865,4.514,3.494,7.491,3.494c2.353,0,4.705,0,7.058,0
			c0.934,0,1.867,0,2.801,0c0.204,0,0.827-0.088,0.942,0.046c0.244,0.283,0.129,3.798-0.077,3.949c-0.305,0.223-1.634,0-1.995,0
			c-8.174,0-16.348,0-24.522,0c-7.455,0-14.909,0-22.364,0c-0.83,0-0.806,0.148-0.806-0.764c0-0.569,0-1.138,0-1.708
			c0-0.268-0.156-1.184,0-1.407c0.143-0.204,0.547-0.116,0.876-0.116c4.063,0,8.125,0.002,12.188,0
			c1.224-0.001,2.505-0.041,3.573-0.718c1.306-0.827,1.689-2.283,1.724-3.735c0.175-7.273,0.001-14.571,0.001-21.846
			c0-1.944,0-3.889,0-5.833c0-0.47,0.312-2.433,0-2.815c-0.24-0.294-1.97-0.064-2.384-0.064c-2.225,0-4.45,0-6.675,0
			c-2.249,0-4.497,0-6.746,0c-0.358,0-2.302,0.265-2.556-0.003c-0.092-0.097,0-0.732,0-0.857c0-2.003,0-4.005,0-6.008
			c0-3.734,0-7.468,0-11.202c0-5.253,0-10.506,0-15.76c0-6.589,0-13.178,0-19.767c0-7.658,0-15.315,0-22.973
			c0-8.538,0-17.077,0-25.615c0-9.206,0-18.413,0-27.619c0-9.662,0-19.324,0-28.986c0-9.905,0-19.81,0-29.715
			c0-9.935,0-19.871,0-29.806c0-9.793,0-19.585,0-29.378c0-9.357,0-18.714,0-28.07c0-8.749,0-17.498,0-26.246
			c0-7.928,0-15.857,0-23.785c0-6.895,0-13.791,0-20.686c0-5.65,0-11.299,0-16.949c0-4.192,0-8.383,0-12.575
			c0-2.521,0-5.042,0-7.563c0-0.48-0.148-1.242,0-1.703c0.019-0.058-0.042-0.255,0-0.299c0.192-0.2,1.541-0.013,1.817-0.013
			c4.45,0,8.899,0,13.349,0c0.788,0,1.577,0,2.365,0c0.117,0,0.746,0.085,0.83-0.002c0.19-0.197,0-1.529,0-1.786
			c0-8.506,0-17.012,0-25.517c0-3.743,0-7.487,0-11.23c0-1.37-0.114-2.786,0.309-4.11c0.56-1.755,1.868-3.216,3.549-3.968
			c2.365-1.058,5.213-0.582,7.106,1.18c1.696,1.579,2.077,3.647,2.077,5.876c0,8.186,0,16.373,0,24.559c0,4.018,0,8.036,0,12.054
			c0,0.495-0.281,2.681,0.094,2.944c0.226,0.159,1.149,0,1.415,0c1.012,0,2.024,0,3.036,0c3.506,0,7.013,0,10.519,0
			c5.253,0,10.507,0,15.76,0c6.725,0,13.449,0,20.174,0c7.92,0,15.84,0,23.76,0c8.84,0,17.68,0,26.52,0c9.484,0,18.968,0,28.452,0
			c9.852,0,19.705,0,29.557,0c9.986,0,19.971,0,29.957,0c9.761,0,19.521,0,29.282,0c9.301,0,18.602,0,27.902,0
			c8.565,0,17.13,0,25.696,0c7.554,0,15.108,0,22.662,0c6.267,0,12.534,0,18.8,0c4.72,0,9.439,0,14.159,0c2.857,0,5.715,0,8.572,0
			c0.596,0,1.374,0.134,1.958,0c0.547-0.126,0.373-0.036,0.373-0.819c0-8.003,0-16.006,0-24.01c0-4.109,0-8.219,0-12.328
			c0-1.523-0.171-3.179,0.109-4.691c0.359-1.938,1.606-3.64,3.344-4.567c2.289-1.221,5.166-0.941,7.178,0.692
			c1.666,1.352,2.404,3.32,2.411,5.433c0.024,7.589,0,15.179,0,22.768C558.15,174.954,558.15,180.795,558.15,186.635z"/>
	</g>
</g>
</svg>
