<?xml version="1.0" encoding="utf-8"?>
<!-- Generator: Adobe Illustrator 24.1.2, SVG Export Plug-In . SVG Version: 6.00 Build 0)  -->
<!DOCTYPE svg PUBLIC "-//W3C//DTD SVG 1.1//EN" "http://www.w3.org/Graphics/SVG/1.1/DTD/svg11.dtd" [
	<!ENTITY ns_extend "http://ns.adobe.com/Extensibility/1.0/">
	<!ENTITY ns_ai "http://ns.adobe.com/AdobeIllustrator/10.0/">
	<!ENTITY ns_graphs "http://ns.adobe.com/Graphs/1.0/">
	<!ENTITY ns_vars "http://ns.adobe.com/Variables/1.0/">
	<!ENTITY ns_imrep "http://ns.adobe.com/ImageReplacement/1.0/">
	<!ENTITY ns_sfw "http://ns.adobe.com/SaveForWeb/1.0/">
	<!ENTITY ns_custom "http://ns.adobe.com/GenericCustomNamespace/1.0/">
	<!ENTITY ns_adobe_xpath "http://ns.adobe.com/XPath/1.0/">
]>
<svg version="1.1" xmlns:x="&ns_extend;" xmlns:i="&ns_ai;" xmlns:graph="&ns_graphs;"
	 xmlns="http://www.w3.org/2000/svg" xmlns:xlink="http://www.w3.org/1999/xlink" x="0px" y="0px" viewBox="0 0 60 60"
	 enable-background="new 0 0 60 60" xml:space="preserve">
<metadata>
	<sfw  xmlns="&ns_sfw;">
		<slices></slices>
		<sliceSourceBounds  bottomLeftOrigin="true" height="10938.293" width="7084" x="-3349" y="-7694"></sliceSourceBounds>
	</sfw>
</metadata>
<g id="AG-GENERAL">
</g>
<g id="ADVERTISEMENTS">
</g>
<g id="AG-ELEMENTS">
	<g>
		<path fill="#FFFFFF" d="M12.637,23.445c0.201,0.202,0.465,0.303,0.729,0.303c0.263,0,0.525-0.1,0.726-0.3
			c0.403-0.401,0.404-1.052,0.003-1.455l-3.674-3.689c-0.193-0.193-0.454-0.302-0.727-0.303c-0.001,0-0.001,0-0.002,0
			c-0.001,0-0.003,0-0.004,0c-0.001,0-0.003,0-0.004,0c-0.322,0-0.609,0.148-0.797,0.379l-3.611,3.596
			c-0.403,0.401-0.404,1.052-0.003,1.455c0.401,0.402,1.052,0.404,1.455,0.003l1.928-1.92v29.978l-1.928-1.937
			c-0.401-0.403-1.052-0.404-1.455-0.003c-0.403,0.401-0.404,1.052-0.003,1.455l3.673,3.689C9.135,54.89,9.396,54.999,9.669,55
			c0.001,0,0.001,0,0.002,0c0.272,0,0.533-0.108,0.726-0.3l3.689-3.674c0.402-0.401,0.404-1.052,0.003-1.455
			c-0.401-0.403-1.052-0.404-1.455-0.003l-1.921,1.914V21.513L12.637,23.445z"/>
		<path fill="#FFFFFF" d="M21.95,14.116c0.201,0.202,0.465,0.303,0.729,0.303c0.263,0,0.525-0.1,0.726-0.3
			c0.402-0.401,0.404-1.052,0.003-1.455l-1.914-1.921h29.969l-1.932,1.924c-0.403,0.401-0.404,1.052-0.003,1.455
			c0.201,0.202,0.465,0.303,0.729,0.303c0.263,0,0.525-0.1,0.726-0.3l3.689-3.674c0.203-0.202,0.303-0.467,0.303-0.732
			c0-0.002,0-0.003,0-0.005c0-0.321-0.148-0.608-0.378-0.797L51,5.306c-0.401-0.403-1.052-0.404-1.455-0.003
			c-0.403,0.401-0.404,1.052-0.003,1.455l1.92,1.928H21.483l1.937-1.928c0.402-0.401,0.404-1.052,0.003-1.455
			C23.022,4.9,22.371,4.899,21.968,5.3l-3.689,3.673c-0.193,0.192-0.302,0.454-0.303,0.727c-0.001,0.273,0.107,0.535,0.3,0.728
			L21.95,14.116z"/>
		<path fill="#FFFFFF" d="M51.09,17.946H21.972c-2.173,0-3.94,1.768-3.94,3.94v29.117c0,2.173,1.768,3.94,3.94,3.94H51.09
			c2.173,0,3.94-1.768,3.94-3.94V21.886C55.03,19.714,53.263,17.946,51.09,17.946z M52.973,51.004c0,1.038-0.845,1.883-1.883,1.883
			H21.972c-1.038,0-1.883-0.845-1.883-1.883V21.886c0-1.038,0.845-1.883,1.883-1.883H51.09c1.038,0,1.883,0.845,1.883,1.883V51.004z
			"/>
	</g>
</g>
<g id="AG-GUIDES">
</g>
<g id="LINES">
</g>
</svg>
