<?xml version="1.0" encoding="utf-8"?>
<!-- Generator: Adobe Illustrator 24.2.0, SVG Export Plug-In . SVG Version: 6.00 Build 0)  -->
<!DOCTYPE svg PUBLIC "-//W3C//DTD SVG 1.1//EN" "http://www.w3.org/Graphics/SVG/1.1/DTD/svg11.dtd" [
	<!ENTITY ns_extend "http://ns.adobe.com/Extensibility/1.0/">
	<!ENTITY ns_ai "http://ns.adobe.com/AdobeIllustrator/10.0/">
	<!ENTITY ns_graphs "http://ns.adobe.com/Graphs/1.0/">
	<!ENTITY ns_vars "http://ns.adobe.com/Variables/1.0/">
	<!ENTITY ns_imrep "http://ns.adobe.com/ImageReplacement/1.0/">
	<!ENTITY ns_sfw "http://ns.adobe.com/SaveForWeb/1.0/">
	<!ENTITY ns_custom "http://ns.adobe.com/GenericCustomNamespace/1.0/">
	<!ENTITY ns_adobe_xpath "http://ns.adobe.com/XPath/1.0/">
]>
<svg version="1.1" xmlns:x="&ns_extend;" xmlns:i="&ns_ai;" xmlns:graph="&ns_graphs;"
	 xmlns="http://www.w3.org/2000/svg" xmlns:xlink="http://www.w3.org/1999/xlink" x="0px" y="0px" width="750px" height="750px"
	 viewBox="0 0 750 750" enable-background="new 0 0 750 750" xml:space="preserve">
<metadata>
	<sfw  xmlns="&ns_sfw;">
		<slices></slices>
		<sliceSourceBounds  bottomLeftOrigin="true" height="8995.771" width="8021.451" x="-5958.451" y="-734.928"></sliceSourceBounds>
	</sfw>
</metadata>
<g id="FILL-BACKGROUND">
	<rect x="0" fill="#FFFFFF" width="750" height="750"/>
</g>
<g id="N-TEXT">
</g>
<g id="N-DIMENSIONS">
</g>
<g id="AG-GUIDES">
</g>
<g id="AG-DETAIL-DIAGRAM">
</g>
<g id="AG-DIAGRAM">
	<g id="POLYLINE_34_">
		<g>
			<g>
				
					<line fill="none" stroke="#FB8604" stroke-width="3.25" stroke-linecap="round" stroke-linejoin="round" x1="110.031" y1="528.84" x2="112.031" y2="528.84"/>
				
					<line fill="none" stroke="#FB8604" stroke-width="3.25" stroke-linecap="round" stroke-linejoin="round" stroke-dasharray="4.0353,7.0617" x1="119.093" y1="528.84" x2="637.119" y2="528.84"/>
				
					<line fill="none" stroke="#FB8604" stroke-width="3.25" stroke-linecap="round" stroke-linejoin="round" x1="640.65" y1="528.84" x2="642.65" y2="528.84"/>
			</g>
		</g>
	</g>
</g>
<g id="AG-DETAILS">
</g>
<g id="AG-PEOPLE">
</g>
<g id="AG-ANIMALS">
	<g id="POLYLINE_99_">
		
			<path fill="none" stroke="#FB8604" stroke-width="2.75" stroke-linecap="round" stroke-linejoin="round" stroke-miterlimit="10" d="
			M549.611,353.828c-0.937-3.145-1.815-6.438-1.563-9.745c0.154-2.377,0.87-4.694,1.882-6.841c1-2.127,2.272-4.143,3.702-6.006
			c2.067-2.675,4.5-5.109,7.297-7.018c2.604-1.784,5.634-3.053,8.813-3.207c1.904-0.104,3.834,0.178,5.619,0.853
			c1.77,0.666,3.394,1.72,4.728,3.06c5.185,5.248,6.35,14.91,5.226,21.929"/>
	</g>
	<g id="POLYLINE_98_">
		
			<path fill="none" stroke="#FB8604" stroke-width="2.75" stroke-linecap="round" stroke-linejoin="round" stroke-miterlimit="10" d="
			M636.756,435.898c-2.458-0.267-3.966-2.616-4.44-4.804c-0.469-2.078-0.06-4.276,0.841-6.182c0.655-1.357,1.611-2.759,2.924-3.516
			c1.718-0.973,3.52,0.084,5.013,0.953c1.327,0.801,2.604,1.72,3.74,2.777c0.68,0.646,1.397,1.406,1.778,2.26
			c0.219,0.487,0.271,1.013,0.169,1.483c-0.171,0.76-0.593,1.349-1.031,1.915c-0.671,0.838-1.457,1.591-2.285,2.272
			c-1.16,0.943-2.436,1.776-3.828,2.334C638.732,435.746,637.73,435.995,636.756,435.898z"/>
	</g>
	<g id="POLYLINE_97_">
		
			<path fill="none" stroke="#FB8604" stroke-width="2.75" stroke-linecap="round" stroke-linejoin="round" stroke-miterlimit="10" d="
			M640.49,422c-0.924-1.709-2.176-4.253-3.153-5.922c-0.731-1.266-1.595-2.573-2.444-3.765c-3.251-4.525-7.693-10.045-9.935-15.127
			c-0.509-1.114-1.325-3.011-1.882-4.073c-0.424-0.81-0.97-1.71-1.636-2.287c-0.246-0.214-0.493-0.373-0.73-0.484
			c-0.058-0.026-0.087-0.039-0.087-0.039c-0.058-0.024-0.088-0.036-0.088-0.036c-0.059-0.022-0.089-0.032-0.089-0.032
			c-0.06-0.02-0.091-0.029-0.091-0.029c-0.061-0.018-0.092-0.026-0.092-0.026c-0.062-0.015-0.093-0.023-0.093-0.023
			c-0.063-0.013-0.095-0.019-0.095-0.019c-0.064-0.011-0.096-0.016-0.096-0.016c-0.065-0.009-0.097-0.012-0.097-0.012
			c-0.066-0.006-0.099-0.009-0.099-0.009c-4.116-0.232-11.824,8.428-14.309,11.649c-1.53,1.977-2.889,4.127-3.861,6.434
			c-1.635,3.913-2.362,8.175-2.581,12.394c-0.443,9.161,2.128,19.555,10.868,24.088c3.203,1.681,6.88,2.538,10.498,2.25
			c1.633-0.131,3.245-0.541,4.767-1.14c2.524-0.99,4.843-2.484,7.021-4.085c2.565-1.913,5.165-3.94,7.366-6.268"/>
	</g>
	<g id="POLYLINE_96_">
		
			<path fill="none" stroke="#FB8604" stroke-width="2.75" stroke-linecap="round" stroke-linejoin="round" stroke-miterlimit="10" d="
			M459.863,334.773c-1.718,10.722-3.801,22.01-6.29,32.575c-0.674,2.799-1.447,6.106-2.382,8.766
			c-1.047,3.064-2.387,6.117-3.943,8.956c-2.04,3.723-4.549,7.26-7.359,10.442c-1.245,1.433-2.857,3.023-4.203,4.377
			c-2.677,2.72-5.479,5.73-7.976,8.614c-5.469,6.32-10.551,13.151-14.727,20.398c-3.512,6.069-6.586,12.569-9.203,19.071
			c-3.271,8.053-6.917,16.122-11.705,23.399c-2.343,3.371-4.248,7.092-5.468,11.016c-1.105,3.478-1.658,7.156-1.814,10.798
			c-0.116,2.781-0.161,5.636,0.478,8.362c0.197,0.823,0.531,1.734,0.996,2.412c0.441,0.666,1.089,1.131,1.709,1.51
			c1.193,0.7,2.534,1.122,3.873,1.445c3.842,0.917,7.874,0.839,11.762,1.476c1.948,0.298,3.922,0.689,5.792,1.317
			c0.728,0.251,1.571,0.564,2.173,0.999c0.879,0.61,1.517,1.461,1.912,2.378c1.047,2.446,0.733,5.182,0.482,7.756
			c-0.154,1.362-0.347,2.787-0.706,4.112c-0.196,0.719-0.457,1.485-0.882,2.082c-0.043,0.056-0.065,0.084-0.065,0.084
			c-0.046,0.055-0.07,0.082-0.07,0.082c-0.049,0.054-0.075,0.08-0.075,0.08c-0.052,0.052-0.079,0.078-0.079,0.078
			c-0.055,0.051-0.084,0.076-0.084,0.076c-0.059,0.05-0.089,0.074-0.089,0.074c-0.062,0.048-0.093,0.072-0.093,0.072
			c-0.658,0.473-1.365,0.701-2.128,0.881c-1.029,0.234-2.109,0.322-3.163,0.36c-11.316,0.028-33.026,0.013-44.303,0.016
			c-0.482-0.001-0.948-0.056-1.362-0.156c-2.044-0.484-3.504-2.037-4.561-3.752c-1.374-2.277-2.338-4.842-2.581-7.5
			c-0.047-0.507-0.068-1.027-0.063-1.535c0.013-0.511,0.032-1.035-0.023-1.544c-0.114-1.204-0.483-2.38-1-3.47
			c-0.732-1.544-1.753-2.946-2.875-4.228c-1.161-1.266-2.344-2.563-3.114-4.114c-0.621-1.217-0.947-2.646-0.527-3.921
			c0.175-0.574,0.476-0.964,0.719-1.473c0.255-0.519,0.462-1.07,0.609-1.629c0.396-1.486,0.367-3.064,0.05-4.562
			c-0.732-2.999-2.033-7.391-2.9-10.386c-0.129-0.455-0.241-0.939-0.328-1.404c-0.33-1.77-0.374-3.597-0.251-5.391
			c0.108-1.546,0.349-3.125,0.665-4.642c0.238-1.172,0.587-2.392,0.828-3.563c0.471-2.277,0.705-4.64,0.716-6.964
			c0.014-2.848-0.304-5.729-0.868-8.52c-0.714-3.287-1.287-6.719-1.535-10.076c-0.151-2.014-0.198-4.079-0.109-6.096
			c0.138-2.967,0.568-6.016,1.071-8.943c1.596-9.625,6.437-25.763,8.562-35.363c1.738-9.349,2.43-19.412,3.129-28.894"/>
	</g>
	<g id="POLYLINE_95_">
		
			<path fill="none" stroke="#FB8604" stroke-width="2.75" stroke-linecap="round" stroke-linejoin="round" stroke-miterlimit="10" d="
			M603.345,438.813c-3.667,1.095-7.538,1.605-11.363,1.488c-2.705-0.091-5.437-0.548-7.907-1.692
			c-2.456-1.108-4.996-2.86-7.472-3.925c-2.835-1.264-7.486-2.328-10.496-3.194c-2.836-0.839-5.713-1.824-8.134-3.565
			c-2.18-1.545-4.12-3.848-5.899-5.838c-1.177-1.306-2.419-2.616-3.846-3.65c-3.382-2.437-7.692-3.441-11.196-5.666
			c-2.953-1.794-4.973-4.824-7.47-7.134c-0.74-0.664-1.56-1.278-2.5-1.624c-1.749-0.643-3.766-0.148-5.553,0.052
			c-1.297,0.158-2.642,0.224-3.913-0.13c-0.995-0.272-1.902-0.803-2.735-1.4c-1.937-1.381-3.877-3.548-5.729-5.039
			c-0.718-0.562-1.584-1.169-2.484-1.244c-0.651-0.054-1.212,0.121-1.795,0.328c-0.711,0.267-1.508,0.595-2.253,0.715
			c-0.726,0.124-1.38,0.072-2.063-0.074c-0.991-0.216-1.951-0.6-2.875-1.012c-3.746-1.705-7.561-4.226-11.45-5.603
			c-1.182-0.417-2.418-0.726-3.671-0.816c-1.435-0.111-2.891,0.054-4.274,0.447c-2.104,0.595-4.039,1.692-5.832,2.925
			c-1.946,1.311-5.433,4.215-7.304,5.693c-6.337,5.096-13.846,8.573-21.3,11.705c-5.051,2.065-10.384,4.143-15.625,5.664
			c-2.592,0.733-5.382,1.259-8.04,1.71"/>
	</g>
	<g id="POLYLINE_94_">
		
			<path fill="none" stroke="#FB8604" stroke-width="2.75" stroke-linecap="round" stroke-linejoin="round" stroke-miterlimit="10" d="
			M435.803,413.697c1,6.154,2.07,12.585,3.728,18.581c0.548,1.952,1.164,3.939,1.962,5.804c0.779,1.758,1.69,3.491,2.747,5.099
			c0.716,1.064,1.544,2.14,2.578,2.91c0.086,0.065,0.215,0.15,0.266,0.183c0.072,0.046,0.146,0.091,0.176,0.108
			c0.128,0.075,0.258,0.141,0.35,0.184c0.099,0.047,0.2,0.086,0.26,0.109c0.043,0.016,0.086,0.034,0.086,0.034
			c0.043,0.018,0.085,0.036,0.085,0.036c0.131,0.059,0.25,0.124,0.334,0.174c0.644,0.388,1.121,0.971,1.496,1.556
			c0.917,1.476,1.403,3.185,1.793,4.865c0.21,0.891,0.335,1.82,0.588,2.699c0.485,1.786,1.277,3.505,2.397,4.983
			c1.102,1.462,2.519,2.679,4.095,3.605c1.503,0.847,2.909,1.888,4.116,3.124c1.236,1.26,2.269,2.723,3.064,4.298
			c0.305,0.601,0.582,1.235,0.821,1.865c0.275,0.759,0.565,1.528,0.927,2.25c0.621,1.262,1.42,2.451,2.408,3.456
			c0.935,0.954,2.046,1.741,3.254,2.31c0.704,0.346,1.472,0.563,2.196,0.859c1.04,0.427,2.039,0.974,2.979,1.588
			c1.981,1.298,3.766,2.919,5.39,4.638c1.454,1.544,2.977,3.472,4.37,5.081c1.847,2.123,3.833,4.26,5.905,6.165
			c1.362,1.239,2.798,2.456,4.373,3.416c1.808,1.114,3.802,1.955,5.855,2.494c0.691,0.181,1.446,0.343,2.151,0.461
			c0.48,0.068,0.987,0.161,1.458,0.267c1.285,0.296,2.534,0.781,3.677,1.44c1.339,0.769,2.54,1.779,3.57,2.926
			c0.768,0.834,1.403,1.8,2.084,2.703c1.642,2.145,3.616,4.099,5.994,5.415c1.176,0.667,2.492,1.062,3.699,1.666
			c2.568,1.22,4.853,2.834,7.002,4.677c1.552,1.195,3.425,1.909,5.317,2.362c1.712,0.408,3.499,0.608,5.255,0.7
			c0.484,0.018,1.161,0.049,1.647,0.05c0,0,0.569,0.003,0.569,0.003s24.739,0,24.739,0s22.747,0,22.747,0
			c0.263-0.006,0.609-0.004,0.875-0.024c0.717-0.044,1.455-0.136,2.153-0.316c0.722-0.183,1.428-0.456,2.064-0.845
			c0.836-0.49,1.485-1.193,1.958-1.944c0.928-1.482,1.112-3.25,1.26-4.955c0.23-2.895-0.012-5.888-1.12-8.595
			c-0.569-1.41-1.426-2.717-2.556-3.741c-1.149-1.05-2.556-1.794-4.034-2.263c-4.476-1.352-9.255-1.83-13.901-2.232
			c-4.663-0.373-9.38-1.035-13.908-2.221c-1.263-0.337-2.586-0.699-3.769-1.253c-1.345-0.611-2.615-1.406-3.782-2.31
			c-1.451-1.124-2.774-2.439-3.969-3.832c-0.748-0.872-1.504-1.855-2.169-2.792c-4.337-6.302-13.179-19.666-17.446-26.146
			c-7.213-11.081-14.748-23.013-20.853-34.716c-1.561-3.127-3.025-6.386-3.946-9.765c-0.523-2.008-0.911-4.128-0.555-6.197
			c0.947-4.142,2.7-8.094,4.943-11.693"/>
	</g>
	<g id="POLYLINE_93_">
		
			<path fill="none" stroke="#FB8604" stroke-width="2.75" stroke-linecap="round" stroke-linejoin="round" stroke-miterlimit="10" d="
			M265.42,329.596c-1.816,14.241-3.721,29.076-7.289,42.966c-0.822,3.07-1.736,6.207-2.926,9.151
			c-0.892,2.201-2.019,4.406-3.19,6.473c-3.546,6.223-8.36,11.787-14.214,15.939c-0.856,0.651-16.272,11.356-16.616,11.823
			c-1.326,1.172-2.497,2.556-3.559,3.969c-2.292,3.063-4.197,6.511-5.982,9.89c-1.139,2.093-2.468,4.394-3.718,6.422
			c-1.823,2.958-3.868,6.014-5.902,8.83c-1.31,2.005-17.634,22.665-19.511,25.122c0,0-14.907,18.891-14.907,18.891
			c-0.182,0.209-0.522,0.694-0.697,0.911c-0.708,0.947-1.418,1.984-2.028,2.996c-0.858,1.439-1.623,2.969-2.03,4.601
			c-0.796,3.155,0.304,5.675,3.258,7.05c1.933,0.928,4.181,1.165,6.285,1.441c2.179,0.301,4.49,0.693,6.621,1.23
			c0.855,0.244,1.821,0.461,2.572,0.925c1.293,0.814,2.014,2.122,2.518,3.5c0.581,1.653,0.854,3.414,0.982,5.156
			c0.144,2.164-0.051,4.37-0.636,6.461c-0.244,0.875-0.555,1.776-1.016,2.56c-0.531,0.93-1.253,1.671-2.125,2.173
			c-0.995,0.572-2.083,0.757-3.167,0.763c-7.761-0.05-22.553,0.068-30.324-0.028c-0.771-0.052-1.548-0.179-2.296-0.374
			c-1.778-0.462-3.442-1.314-4.932-2.381c-0.986-0.682-1.919-1.545-2.789-2.372c-1.788-1.669-3.834-3.876-5.538-5.65
			c-5.945-6.549-12.648-13.468-17.596-20.799c-1.555-2.361-3.053-4.844-3.88-7.565c-0.932-3.059-0.826-6.38,0.112-9.424
			c0.497-1.671,1.25-3.277,2.071-4.812c1.508-2.811,3.377-5.45,5.481-7.846c0.803-0.913,1.687-1.846,2.556-2.697
			c1.326-1.265,2.689-2.554,3.884-3.945c1.223-1.426,2.386-2.963,3.1-4.714c0.558-1.329,0.533-2.542,0.587-3.92
			c0.061-2.365-0.129-4.769-0.39-7.118c-0.101-1.437,0.278-2.871,0.868-4.172c0.934-2.047,2.347-3.85,3.856-5.503
			c1.017-1.115,2.192-2.174,3.205-3.293c1.253-1.376,2.419-2.869,3.309-4.508c0.628-1.161,1.122-2.416,1.327-3.724
			c0.098-0.621,0.129-1.257,0.081-1.884c-0.111-1.163-0.292-2.431-0.479-3.584c-0.291-1.765-0.678-3.599-1.12-5.333
			c-0.56-2.073-1.171-4.226-1.592-6.335c-1.943-9.525-3.476-20.277-4.809-29.918c-0.342-2.724-0.764-6.076-0.966-8.818
			c-0.048-0.649-0.051-1.327-0.023-1.977c0.157-3.228,0.952-6.416,1.869-9.503c1.145-3.905,2.809-7.783,4.196-11.604
			c1.221-3.459,2.227-7.064,2.939-10.664c0.579-2.928,0.982-5.968,1.174-8.948c0.148-2.174,0.109-4.46,0.282-6.634
			c0.906-11.196,3.824-22.265,6.898-33.035"/>
	</g>
	<g id="POLYLINE_92_">
		
			<path fill="none" stroke="#FB8604" stroke-width="2.75" stroke-linecap="round" stroke-linejoin="round" stroke-miterlimit="10" d="
			M142.797,314.024c-2.319,1.402-4.774,2.761-7.42,3.428c-0.511,0.123-1.044,0.215-1.569,0.251c-0.3,0.02-0.625,0.023-0.927-0.002
			c0,0-0.087-0.008-0.087-0.008s-0.087-0.009-0.087-0.009s-0.086-0.01-0.086-0.01s-0.085-0.012-0.085-0.012
			c-0.042-0.006-0.084-0.013-0.084-0.013c-0.041-0.007-0.083-0.014-0.083-0.014c-0.041-0.008-0.082-0.016-0.082-0.016
			c-0.041-0.008-0.081-0.017-0.081-0.017c-0.04-0.009-0.08-0.019-0.08-0.019c-0.04-0.01-0.079-0.02-0.079-0.02
			c-0.039-0.01-0.078-0.021-0.078-0.021c-0.039-0.011-0.077-0.023-0.077-0.023c-0.038-0.012-0.076-0.024-0.076-0.024
			c-0.038-0.013-0.075-0.025-0.075-0.025c-0.037-0.013-0.074-0.027-0.074-0.027c-0.037-0.014-0.073-0.028-0.073-0.028
			c-0.036-0.015-0.072-0.029-0.072-0.029c-0.036-0.015-0.071-0.031-0.071-0.031c-0.035-0.016-0.07-0.032-0.07-0.032
			c-0.035-0.017-0.069-0.033-0.069-0.033c-0.034-0.017-0.068-0.035-0.068-0.035c-0.067-0.036-0.101-0.055-0.101-0.055
			c-0.066-0.038-0.099-0.058-0.099-0.058c-0.065-0.04-0.097-0.061-0.097-0.061c-0.063-0.042-0.094-0.064-0.094-0.064
			c-0.062-0.044-0.092-0.067-0.092-0.067c-0.06-0.046-0.09-0.07-0.09-0.07c-0.059-0.048-0.088-0.073-0.088-0.073
			c-0.057-0.05-0.086-0.076-0.086-0.076c-0.056-0.052-0.084-0.079-0.084-0.079c-0.055-0.054-0.082-0.082-0.082-0.082
			c-0.053-0.057-0.079-0.085-0.079-0.085c-0.052-0.059-0.077-0.088-0.077-0.088c-0.05-0.061-0.075-0.091-0.075-0.091
			c-0.049-0.063-0.073-0.094-0.073-0.094c-0.048-0.065-0.071-0.097-0.071-0.097c-0.046-0.067-0.069-0.101-0.069-0.101
			c-0.022-0.034-0.045-0.069-0.045-0.069c-0.022-0.035-0.044-0.07-0.044-0.07c-0.021-0.036-0.043-0.071-0.043-0.071
			c-0.021-0.036-0.042-0.073-0.042-0.073s-0.041-0.074-0.041-0.074c-0.119-0.225-0.241-0.463-0.339-0.698
			c-0.352-0.814-0.567-1.689-0.707-2.563c-0.497-3.418,0.068-6.908,0.798-10.253c1.107-4.837,2.745-9.588,4.962-14.03
			c1.509-2.976,3.263-5.963,5.354-8.57c1.219-1.467,2.614-2.811,4.065-4.047c3.871-3.274,8.258-5.99,12.681-8.448
			c2.397-1.346,5.512-2.896,7.994-4.105c5.127-2.475,15.313-7.547,20.371-10.161c5.417-2.809,16.197-8.547,21.546-11.483
			c5.149-2.815,10.808-5.65,16.187-7.992c9.593-4.166,19.654-7.554,29.982-9.302c9.694-1.644,19.649-1.88,29.435-1.007
			c3.639,0.303,8.571,1.019,12.233,1.571c10.903,1.672,22.606,3.954,33.347,6.464c4.839,1.207,10.428,2.545,15.307,3.386
			c6.287,1.078,12.747,1.684,19.129,1.572c5.32-0.058,10.725-0.792,15.932-1.867c6.123-1.224,12.39-2.879,18.286-4.937
			c2.377-0.825,5.077-1.879,7.391-2.871c1.777-0.776,3.637-1.635,5.482-2.247c2.751-0.949,5.622-1.648,8.484-2.167
			c6.002-1.074,12.203-1.404,18.293-1.347c4.576,0.064,9.321,0.289,13.87,0.81c11.396,1.322,22.922,4.924,31.75,12.493
			c1.964,1.613,4.183,4.068,5.955,5.815c5.734,5.899,11.835,12.41,17.188,18.657c2.024,2.422,4.592,5.475,6.861,7.691
			c3.095,3.076,6.508,5.93,10.023,8.513c3.588,2.631,7.431,5.095,11.289,7.313c4.902,2.838,10.758,6.356,15.516,9.441
			c17.992,11.673,35.246,25.268,48.541,42.23c1.73,2.226,3.01,4.249,4.662,6.433c2.383,3.216,5.202,6.72,7.783,9.783
			c0,0,1.761,2.064,1.761,2.064l0.445,0.521c0,0,0.437,0.522,0.437,0.522c0.96,1.171,1.967,2.455,2.841,3.694
			c2.17,3.054,4.073,6.348,5.544,9.797c0,0,0.234,0.557,0.234,0.557s0.226,0.558,0.226,0.558s0.218,0.559,0.218,0.559
			s0.21,0.561,0.21,0.561s0.202,0.562,0.202,0.562s0.098,0.283,0.098,0.283s0.096,0.286,0.096,0.286s0.094,0.289,0.094,0.289
			s0.091,0.292,0.091,0.292s0.089,0.295,0.089,0.295c0.127,0.48,0.304,1.036,0.414,1.524c0,0,0.076,0.314,0.076,0.314
			s0.074,0.317,0.074,0.317s0.141,0.644,0.141,0.644s0.132,0.656,0.132,0.656s0.124,0.669,0.124,0.669l0.115,0.681
			c0.95,5.981,0.798,12.13,0.3,18.148"/>
	</g>
	<g id="POLYLINE_91_">
		
			<path fill="none" stroke="#FB8604" stroke-width="2.75" stroke-linecap="round" stroke-linejoin="round" stroke-miterlimit="10" d="
			M589.325,324.68c2.343-0.868,4.841-1.395,7.346-1.367c2.666,0.023,5.324,0.665,7.721,1.829c2.779,1.35,5.337,3.558,6.336,6.559
			c0.663,1.993,0.656,4.152,0.347,6.212c-0.535,3.382-1.841,6.635-3.657,9.531"/>
	</g>
	<g id="POLYLINE_90_">
		
			<path fill="none" stroke="#FB8604" stroke-width="2.75" stroke-linecap="round" stroke-linejoin="round" stroke-miterlimit="10" d="
			M237.802,404.126c0.811,2.138,1.907,4.198,3.352,5.976c0.908,1.099,1.979,2.115,3.275,2.715c1.811,0.861,4.034,0.475,5.965,0.367
			c1.494-0.091,3.034-0.013,4.444,0.529c0.805,0.304,1.561,0.743,2.275,1.22c1.642,1.078,4.124,3.338,5.649,4.621
			c1.026,0.852,2.096,1.708,3.264,2.356c0.852,0.473,1.88,0.867,2.841,0.807c1.274-0.082,2.316-0.856,3.248-1.641
			c1.276-1.062,2.513-2.582,3.991-3.336c0.176-0.084,0.327-0.139,0.452-0.177c0.06-0.017,0.09-0.025,0.09-0.025
			c0.06-0.015,0.09-0.022,0.09-0.022c0.06-0.013,0.09-0.018,0.09-0.018c0.06-0.01,0.09-0.015,0.09-0.015
			c0.06-0.008,0.09-0.011,0.09-0.011c0.06-0.005,0.09-0.007,0.09-0.007c0.06-0.002,0.09-0.003,0.09-0.003
			c0.06,0,0.09,0.001,0.09,0.001c0.064,0.003,0.097,0.006,0.097,0.006c0.067,0.007,0.101,0.011,0.101,0.011
			c0.067,0.01,0.101,0.017,0.101,0.017c0.067,0.014,0.101,0.022,0.101,0.022c0.067,0.017,0.101,0.026,0.101,0.026
			c0.067,0.02,0.101,0.031,0.101,0.031c0.068,0.023,0.101,0.036,0.101,0.036c0.068,0.026,0.101,0.04,0.101,0.04
			c0.719,0.316,1.262,0.798,1.817,1.327c1.133,1.105,2.396,2.677,3.536,3.774c0.882,0.851,1.915,1.695,3.097,2.057
			c0.873,0.275,1.809,0.201,2.627-0.021c1.54-0.424,2.904-1.274,4.219-2.154c2.111-1.432,4.918-3.72,7.079-5.064
			c1.117-0.696,2.298-1.337,3.558-1.732c2.13-0.689,4.421-0.398,6.554,0.129l2.44,0.615c1.41,0.333,2.92,0.629,4.352,0.268
			c0.907-0.232,1.711-0.714,2.447-1.278c1.373-1.041,2.959-2.874,4.161-4.126c0.842-0.864,1.723-1.732,2.766-2.351
			c1.533-0.909,3.243-0.993,4.956-0.958c1.739,0.048,3.671,0.135,5.383-0.18c1.917-0.325,3.794-0.95,5.591-1.685
			c2.568-1.059,5.076-2.411,7.446-3.856"/>
	</g>
	<g id="POLYLINE_89_">
		
			<path fill="none" stroke="#FB8604" stroke-width="2.75" stroke-linecap="round" stroke-linejoin="round" stroke-miterlimit="10" d="
			M182.543,527.109c4.44,1.253,9.157,1.498,13.747,1.671c6.706,0.099,29.288,0.12,35.963-0.016c2.336-0.09,4.808-0.22,7.121-0.54
			c1.181-0.168,2.395-0.374,3.538-0.716c0.538-0.154,1.153-0.391,1.631-0.651c0.511-0.271,0.931-0.641,1.299-1
			c1.024-1.038,1.668-2.304,2.167-3.651c0.698-1.928,1.045-3.985,1.26-6.019c0.196-1.976,0.246-4.003-0.101-5.965
			c-0.244-1.379-0.731-2.814-1.573-3.935c-1.337-1.758-3.334-2.774-5.367-3.5c-1.678-0.611-3.475-0.899-5.194-1.365
			c-2.377-0.654-4.749-1.532-6.774-2.963c-2.198-1.562-3.777-3.874-4.789-6.35c-1.088-2.598-1.496-5.448-1.832-8.228
			c-2.39-22.435-1.336-46.685-0.727-69.25"/>
	</g>
</g>
<g id="AG-OUTLINE">
	<g id="POLYLINE_28_">
		
			<path fill="none" stroke="#FB8604" stroke-width="3.5" stroke-linecap="round" stroke-linejoin="round" stroke-miterlimit="10" d="
			M639.553,435.422c1.182-0.458,2.281-1.129,3.296-1.884c1.038-0.783,2.02-1.674,2.843-2.682c1.56-1.911,1.502-3.182-0.104-4.964
			c-1.455-1.575-3.241-2.833-5.097-3.892c-0.924-1.709-2.176-4.253-3.153-5.922c-0.731-1.266-1.595-2.573-2.444-3.765
			c-3.193-4.447-7.595-9.925-9.829-14.898c-0.396-0.867-1.368-3.07-1.779-3.89c0.573-7.014,0.708-14.221-0.886-21.115
			c-0.576-2.472-1.49-4.883-2.539-7.191c-1.482-3.24-3.341-6.339-5.436-9.219c-2.08-2.893-4.753-5.788-7.007-8.556
			c1.816-2.895,3.122-6.148,3.657-9.531c0.309-2.059,0.316-4.219-0.347-6.212c-0.999-3.001-3.557-5.209-6.336-6.559
			c-2.396-1.164-5.055-1.806-7.721-1.829c-2.505-0.028-5.003,0.499-7.346,1.367c-16.659-17.983-37.377-31.861-58.522-44.021
			c-4.363-2.608-8.633-5.506-12.6-8.685c-2.811-2.252-5.542-4.723-8.032-7.323c-2.596-2.742-5.535-6.404-8.066-9.252
			c-5.917-6.686-12.482-13.645-18.816-19.937c-2.037-1.94-4.289-3.704-6.654-5.227c-10.724-6.913-23.699-9.128-36.258-9.569
			c-9.619-0.358-19.457-0.013-28.77,2.611c-1.473,0.423-2.97,0.924-4.394,1.487c-1.158,0.452-2.437,1.056-3.585,1.547
			c-3.586,1.546-7.524,2.977-11.257,4.15c-4.647,1.453-9.647,2.703-14.421,3.658c-3.263,0.65-6.731,1.259-10.034,1.549
			c-5.667,0.517-11.459,0.398-17.117-0.171c-3.981-0.402-8.074-1.051-11.994-1.852c-3.18-0.63-8.008-1.863-11.223-2.617
			c-10.742-2.505-22.444-4.796-33.347-6.464c-3.707-0.55-8.533-1.27-12.233-1.571c-4.755-0.421-9.646-0.589-14.418-0.452
			c-10.477,0.264-20.927,2.147-30.886,5.396c-9.469,3.044-18.757,7.223-27.544,11.872c-10.463,5.712-23.956,12.893-34.634,18.216
			c-2.817,1.42-11.955,5.796-14.768,7.273c-4.222,2.209-8.518,4.649-12.392,7.431c-2.655,1.921-5.257,4.045-7.393,6.544
			c-1.134,1.317-2.101,2.817-3.032,4.28c-1.731,2.781-3.228,5.755-4.453,8.793c-1.505,3.758-2.681,7.692-3.443,11.669
			c-0.335,1.869-0.601,3.807-0.598,5.711c0.001,1.349,0.117,2.718,0.476,4.022c0.353,1.262,0.976,2.722,2.129,3.392
			c3.181,1.91,8.914-1.405,11.752-3.117c-0.39,2.949-0.634,6.004-0.662,8.976c-0.074,2.693-0.322,5.45-0.719,8.114
			c-0.535,3.58-1.365,7.173-2.422,10.634c-0.973,3.283-2.346,6.589-3.558,9.794c-1.063,2.922-2.065,5.942-2.756,8.967
			c-0.451,1.999-0.805,4.049-0.849,6.1c-0.009,0.5,0.001,1.017,0.038,1.515c0.342,4.527,1.178,10.371,1.806,14.92
			c0.906,6.188,2.121,14.147,3.26,20.254c0.467,2.466,1.005,5.15,1.658,7.554c1.075,3.694,1.874,7.513,2.247,11.344
			c0.109,1.65-0.335,3.293-1.035,4.776c-0.92,1.941-2.25,3.672-3.688,5.256c-0.885,0.982-1.917,1.928-2.826,2.887
			c-1.089,1.155-2.136,2.393-3.01,3.718c-1.164,1.773-2.124,3.809-2.107,5.97c0.003,0.597,0.127,1.325,0.175,1.924
			c0.178,1.839,0.273,3.74,0.231,5.587c-0.028,0.785-0.049,1.721-0.168,2.486c-0.109,0.594-0.261,1.051-0.474,1.57
			c-0.494,1.174-1.203,2.254-1.973,3.266c-1.35,1.764-2.948,3.363-4.566,4.88c-3.327,3.187-6.246,6.852-8.425,10.919
			c-1.036,1.926-1.936,3.963-2.412,6.105c-0.633,2.739-0.562,5.649,0.291,8.333c0.526,1.683,1.339,3.282,2.217,4.806
			c1.704,2.931,3.812,5.735,5.925,8.385c2.536,3.201,6.479,7.51,9.225,10.582c2.277,2.459,5.824,6.351,8.205,8.688
			c1.356,1.322,2.757,2.759,4.326,3.833c1.403,0.983,2.958,1.774,4.614,2.227c0.853,0.234,1.741,0.381,2.624,0.427
			c0.206,0.003,0.458,0.024,0.665,0.018c0,0,15.164,0,15.164,0h14.329c0.162-0.005,0.344-0.002,0.506-0.015
			c0.291-0.019,0.591-0.052,0.878-0.107c1.13-0.193,2.27-0.799,3.014-1.609c4.44,1.253,9.157,1.498,13.747,1.671
			c6.706,0.099,29.288,0.12,35.963-0.016c2.336-0.09,4.808-0.22,7.121-0.54c1.181-0.168,2.395-0.374,3.538-0.716
			c0.538-0.154,1.153-0.391,1.631-0.651c0.511-0.271,0.931-0.641,1.299-1c1.024-1.038,1.668-2.304,2.167-3.651
			c0.698-1.928,1.045-3.985,1.26-6.019c0.196-1.976,0.246-4.003-0.101-5.965c-0.244-1.379-0.731-2.814-1.573-3.935
			c-1.337-1.758-3.334-2.774-5.367-3.5c-1.678-0.611-3.475-0.899-5.194-1.365c-2.377-0.654-4.749-1.532-6.774-2.963
			c-2.198-1.562-3.777-3.874-4.789-6.35c-1.088-2.598-1.496-5.448-1.832-8.228c-2.39-22.435-1.336-46.685-0.727-69.25l14.89-10.506
			c0.811,2.138,1.907,4.198,3.352,5.976c0.908,1.099,1.979,2.115,3.275,2.715c1.811,0.861,4.034,0.475,5.965,0.367
			c1.494-0.091,3.034-0.013,4.444,0.529c0.805,0.304,1.561,0.743,2.275,1.22c1.642,1.078,4.124,3.338,5.649,4.621
			c1.026,0.852,2.096,1.708,3.264,2.356c0.852,0.473,1.88,0.867,2.841,0.807c1.274-0.082,2.316-0.856,3.248-1.641
			c1.276-1.062,2.513-2.582,3.991-3.336c0.176-0.084,0.327-0.139,0.452-0.177c0.06-0.017,0.09-0.025,0.09-0.025
			c0.06-0.015,0.09-0.022,0.09-0.022c0.06-0.013,0.09-0.018,0.09-0.018c0.06-0.01,0.09-0.015,0.09-0.015
			c0.06-0.008,0.09-0.011,0.09-0.011c0.06-0.005,0.09-0.007,0.09-0.007c0.06-0.002,0.09-0.003,0.09-0.003
			c0.06,0,0.09,0.001,0.09,0.001c0.064,0.003,0.097,0.006,0.097,0.006c0.067,0.007,0.101,0.011,0.101,0.011
			c0.067,0.01,0.101,0.017,0.101,0.017c0.067,0.014,0.101,0.022,0.101,0.022c0.067,0.017,0.101,0.026,0.101,0.026
			c0.067,0.02,0.101,0.031,0.101,0.031c0.068,0.023,0.101,0.036,0.101,0.036c0.068,0.026,0.101,0.04,0.101,0.04
			c0.719,0.316,1.262,0.798,1.817,1.327c1.133,1.105,2.396,2.677,3.536,3.774c0.882,0.851,1.915,1.695,3.097,2.057
			c0.873,0.275,1.809,0.201,2.627-0.021c1.54-0.424,2.904-1.274,4.219-2.154c2.111-1.432,4.918-3.72,7.079-5.064
			c1.117-0.696,2.298-1.337,3.558-1.732c2.13-0.689,4.421-0.398,6.554,0.129l2.44,0.615c1.41,0.333,2.92,0.629,4.352,0.268
			c0.907-0.232,1.711-0.714,2.447-1.278c1.373-1.041,2.959-2.874,4.161-4.126c0.842-0.864,1.723-1.732,2.766-2.351
			c1.533-0.909,3.243-0.993,4.956-0.958c1.739,0.048,3.671,0.135,5.383-0.18c1.917-0.325,3.794-0.95,5.591-1.685
			c2.568-1.059,5.076-2.411,7.446-3.856c-2.062,8.145-4.744,17.72-5.859,25.966c-0.335,2.469-0.586,5.017-0.581,7.506
			c-0.01,3.376,0.341,6.816,0.9,10.146c0.309,1.903,0.796,3.899,1.108,5.795c0.597,3.658,0.736,7.425,0.27,11.106
			c-0.153,1.212-0.384,2.482-0.668,3.669c-0.371,1.454-0.721,2.966-0.95,4.449c-0.495,3.2-0.606,6.549,0.316,9.683
			c0.859,2.952,2.134,7.273,2.851,10.217c0.129,0.615,0.212,1.247,0.236,1.875c0.048,1.21-0.135,2.435-0.569,3.568
			c-0.137,0.361-0.304,0.722-0.487,1.062c-0.21,0.365-0.452,0.792-0.557,1.159c-0.579,1.855,0.268,3.68,1.268,5.175
			c0.755,1.147,1.743,2.134,2.64,3.168c1.015,1.197,1.935,2.499,2.609,3.92c0.517,1.09,0.886,2.266,1,3.47
			c0.089,0.899-0.024,1.737,0.053,2.661c0.124,1.971,0.653,3.912,1.459,5.712c0.464,1.02,0.996,2.036,1.648,2.95
			c0.51,0.712,1.105,1.377,1.802,1.911c0.777,0.606,1.683,1.007,2.599,1.167c0.337,0.068,0.631,0.074,0.913,0.087
			c0.1,0.033,20.746-0.021,20.859,0.001c0,0,22.555,0,22.555,0l0.344-0.002c0,0,0.335-0.005,0.335-0.005
			c0.27-0.015,0.683-0.015,0.956-0.038c0.879-0.056,1.788-0.15,2.646-0.358c0.651-0.149,1.341-0.402,1.884-0.761
			c0.067-0.046,0.099-0.069,0.099-0.069c0.064-0.047,0.095-0.072,0.095-0.072c0.061-0.049,0.09-0.073,0.09-0.073
			c0.057-0.05,0.085-0.076,0.085-0.076c0.054-0.051,0.081-0.078,0.081-0.078c0.051-0.053,0.076-0.08,0.076-0.08
			c0.048-0.054,0.071-0.082,0.071-0.082c0.045-0.056,0.067-0.084,0.067-0.084c0.042-0.057,0.062-0.086,0.062-0.086
			c0.467-0.701,0.69-1.46,0.902-2.257c0.376-1.493,0.568-3.086,0.719-4.618c0.189-2.026,0.347-4.136-0.231-6.115
			c-0.385-1.396-1.255-2.702-2.459-3.427c-0.823-0.5-1.662-0.757-2.554-1.047c-3.547-1.059-7.305-1.459-10.985-1.751
			c-1.992-0.15-4.019-0.39-5.965-0.848c-1.156-0.278-2.313-0.634-3.376-1.172c-0.789-0.4-1.59-0.953-2.097-1.631
			c-0.488-0.664-0.74-1.322-0.97-2.067c-0.271-0.919-0.426-1.881-0.526-2.833c-0.264-2.617-0.156-5.313,0.033-7.933
			c0.381-5.145,1.774-10.239,4.118-14.837c0.577-1.134,1.259-2.332,1.941-3.405c0.716-1.11,1.532-2.285,2.226-3.41
			c2.529-4.057,4.78-8.467,6.783-12.807c2.725-5.858,4.971-12.127,7.776-17.95c3.457-7.302,7.603-14.434,12.406-20.935
			c2.41-0.41,4.978-0.887,7.335-1.518c2.751-0.73,5.625-1.749,8.304-2.719c1,6.154,2.07,12.585,3.728,18.581
			c0.548,1.952,1.164,3.939,1.962,5.804c0.779,1.758,1.69,3.491,2.747,5.099c0.716,1.064,1.544,2.14,2.578,2.91
			c0.086,0.065,0.215,0.15,0.266,0.183c0.072,0.046,0.146,0.091,0.176,0.108c0.128,0.075,0.258,0.141,0.35,0.184
			c0.099,0.047,0.2,0.086,0.26,0.109c0.043,0.016,0.086,0.034,0.086,0.034c0.043,0.018,0.085,0.036,0.085,0.036
			c0.131,0.059,0.25,0.124,0.334,0.174c0.644,0.388,1.121,0.971,1.496,1.556c0.917,1.476,1.403,3.185,1.793,4.865
			c0.21,0.891,0.335,1.82,0.588,2.699c0.485,1.786,1.277,3.505,2.397,4.983c1.102,1.462,2.519,2.679,4.095,3.605
			c1.503,0.847,2.909,1.888,4.116,3.124c1.236,1.26,2.269,2.723,3.064,4.298c0.305,0.601,0.582,1.235,0.821,1.865
			c0.275,0.759,0.565,1.528,0.927,2.25c0.621,1.262,1.42,2.451,2.408,3.456c0.935,0.954,2.046,1.741,3.254,2.31
			c0.704,0.346,1.472,0.563,2.196,0.859c1.04,0.427,2.039,0.974,2.979,1.588c1.981,1.298,3.766,2.919,5.39,4.638
			c1.454,1.544,2.977,3.472,4.37,5.081c1.847,2.123,3.833,4.26,5.905,6.165c1.362,1.239,2.798,2.456,4.373,3.416
			c1.808,1.114,3.802,1.955,5.855,2.494c0.691,0.181,1.446,0.343,2.151,0.461c0.48,0.068,0.987,0.161,1.458,0.267
			c1.285,0.296,2.534,0.781,3.677,1.44c1.339,0.769,2.54,1.779,3.57,2.926c0.768,0.834,1.403,1.8,2.084,2.703
			c1.642,2.145,3.616,4.099,5.994,5.415c1.176,0.667,2.492,1.062,3.699,1.666c2.568,1.22,4.853,2.834,7.002,4.677
			c1.552,1.195,3.425,1.909,5.317,2.362c1.712,0.408,3.499,0.608,5.255,0.7c0.484,0.018,1.161,0.049,1.647,0.05
			c0,0,0.569,0.003,0.569,0.003s24.739,0,24.739,0s22.747,0,22.747,0c0.263-0.006,0.609-0.004,0.875-0.024
			c0.717-0.044,1.455-0.136,2.153-0.316c0.722-0.183,1.428-0.456,2.064-0.845c0.836-0.49,1.485-1.193,1.958-1.944
			c0.928-1.482,1.112-3.25,1.26-4.955c0.23-2.895-0.012-5.888-1.12-8.595c-0.569-1.41-1.426-2.717-2.556-3.741
			c-1.149-1.05-2.556-1.794-4.034-2.263c-4.476-1.352-9.255-1.83-13.901-2.232c-4.663-0.373-9.38-1.035-13.908-2.221
			c-1.263-0.337-2.586-0.699-3.769-1.253c-1.345-0.611-2.615-1.406-3.782-2.31c-1.451-1.124-2.774-2.439-3.969-3.832
			c-0.748-0.872-1.504-1.855-2.169-2.792c-4.337-6.302-13.179-19.666-17.446-26.146c-7.213-11.081-14.748-23.013-20.853-34.716
			c-1.561-3.127-3.025-6.386-3.946-9.765c-0.523-2.008-0.911-4.128-0.555-6.197c0.947-4.142,2.7-8.094,4.943-11.693
			c0.77,0.485,1.614,0.873,2.511,1.045c1.132,0.227,2.305,0.156,3.444,0.019c1.78-0.197,3.826-0.693,5.553-0.052
			c0.941,0.346,1.76,0.959,2.5,1.624c2.498,2.311,4.517,5.339,7.47,7.134c3.504,2.225,7.814,3.229,11.196,5.666
			c1.426,1.034,2.67,2.345,3.846,3.65c1.833,2.053,3.817,4.41,6.093,5.976c2.381,1.656,5.179,2.611,7.94,3.428
			c3.041,0.874,7.649,1.928,10.496,3.194c2.475,1.064,5.017,2.817,7.472,3.925c2.47,1.144,5.202,1.602,7.907,1.692
			c3.825,0.117,7.696-0.393,11.363-1.488c1.02,1.495,2.256,2.855,3.676,3.979c1.94,1.537,4.199,2.669,6.57,3.373
			c3.278,0.973,6.851,1.128,10.136,0.11c3.09-0.936,5.876-2.685,8.46-4.585C634.752,439.78,637.351,437.749,639.553,435.422z"/>
	</g>
</g>
</svg>
