<?xml version="1.0" encoding="utf-8"?>
<!-- Generator: Adobe Illustrator 24.2.0, SVG Export Plug-In . SVG Version: 6.00 Build 0)  -->
<!DOCTYPE svg PUBLIC "-//W3C//DTD SVG 1.1//EN" "http://www.w3.org/Graphics/SVG/1.1/DTD/svg11.dtd" [
	<!ENTITY ns_extend "http://ns.adobe.com/Extensibility/1.0/">
	<!ENTITY ns_ai "http://ns.adobe.com/AdobeIllustrator/10.0/">
	<!ENTITY ns_graphs "http://ns.adobe.com/Graphs/1.0/">
	<!ENTITY ns_vars "http://ns.adobe.com/Variables/1.0/">
	<!ENTITY ns_imrep "http://ns.adobe.com/ImageReplacement/1.0/">
	<!ENTITY ns_sfw "http://ns.adobe.com/SaveForWeb/1.0/">
	<!ENTITY ns_custom "http://ns.adobe.com/GenericCustomNamespace/1.0/">
	<!ENTITY ns_adobe_xpath "http://ns.adobe.com/XPath/1.0/">
]>
<svg version="1.1" xmlns:x="&ns_extend;" xmlns:i="&ns_ai;" xmlns:graph="&ns_graphs;"
	 xmlns="http://www.w3.org/2000/svg" xmlns:xlink="http://www.w3.org/1999/xlink" x="0px" y="0px" width="750px" height="750px"
	 viewBox="0 0 750 750" enable-background="new 0 0 750 750" xml:space="preserve">
<metadata>
	<sfw  xmlns="&ns_sfw;">
		<slices></slices>
		<sliceSourceBounds  bottomLeftOrigin="true" height="8995.771" width="8021.451" x="-5958.451" y="-734.928"></sliceSourceBounds>
	</sfw>
</metadata>
<g id="FILL-BACKGROUND">
	<rect x="0" fill="#FFFFFF" width="750" height="750"/>
</g>
<g id="N-TEXT">
</g>
<g id="N-DIMENSIONS">
</g>
<g id="AG-GUIDES">
</g>
<g id="AG-DETAIL-DIAGRAM">
</g>
<g id="AG-DIAGRAM">
	<g id="POLYLINE_6_">
		<g>
			<g>
				
					<line fill="none" stroke="#FB8604" stroke-width="3.25" stroke-linecap="round" stroke-linejoin="round" x1="88.778" y1="560.846" x2="90.778" y2="560.846"/>
				
					<line fill="none" stroke="#FB8604" stroke-width="3.25" stroke-linecap="round" stroke-linejoin="round" stroke-dasharray="3.9873,6.9778" x1="97.756" y1="560.846" x2="598.663" y2="560.846"/>
				
					<line fill="none" stroke="#FB8604" stroke-width="3.25" stroke-linecap="round" stroke-linejoin="round" x1="602.152" y1="560.846" x2="604.152" y2="560.846"/>
			</g>
		</g>
	</g>
</g>
<g id="AG-DETAILS">
</g>
<g id="AG-PEOPLE">
</g>
<g id="AG-ANIMALS">
	<g id="POLYLINE_58_">
		
			<path fill="none" stroke="#FB8604" stroke-width="2.75" stroke-linecap="round" stroke-linejoin="round" stroke-miterlimit="10" d="
			M203.193,382.36c-2.471,11.914-7.355,39.187-10.497,50.428c-0.525,1.695-1.196,3.357-2.073,4.899
			c-1.135,2.005-2.652,3.821-4.537,5.159c-1.277,0.898-2.826,1.712-4.192,2.481c-6.884,3.74-16.857,8.607-23.945,12.099
			c-5.885,2.894-11.866,6.118-17.342,9.721c-4.145,2.727-8.201,5.762-11.803,9.181c-2.775,2.572-5.532,6.031-7.989,8.918
			c-2.77,3.412-5.625,6.924-7.806,10.75c-0.594,1.039-1.027,2.104-1.232,3.288c-0.299,1.651-0.19,3.359,0.132,4.998
			c0.34,1.722,0.921,3.407,1.608,5.02c0.433,0.987,1.341,2.894,1.825,3.896c1.755,3.737,3.584,7.978,5.119,11.81
			c1.256,3.134,2.638,6.914,3.887,10.052c2.106,5.286,4.511,10.894,6.917,16.05c0.846,1.751,1.805,3.489,2.965,5.053
			c1.33,1.784,2.981,3.463,5.103,4.255c0.582,0.215,1.197,0.355,1.816,0.405c0.18,0.013,0.375,0.024,0.556,0.023
			c0,0,15.433,0,15.433,0c2.195-0.007,4.434-0.135,6.583-0.61c1.359-0.307,2.714-0.756,3.893-1.512
			c0.445-0.283,0.961-0.703,1.294-1.072c0.583-0.653,0.988-1.32,1.388-2.073c1.198-2.307,1.552-4.967,1.373-7.538
			c-0.102-1.481-0.305-2.979-0.735-4.402c-0.313-1.027-0.751-2.033-1.402-2.892c-1.398-1.653-3.421-3.559-4.959-5.104
			c-0.942-0.92-2.604-2.482-3.467-3.422c-0.849-0.915-1.666-1.907-2.397-2.919c-2.372-3.297-4.106-7.1-4.859-11.1
			c-0.232-1.267-0.355-2.579-0.349-3.867c0.009-0.513,0.008-1.071,0.1-1.577c0.205-1.171,0.839-2.226,1.64-3.089
			c0.775-0.837,1.705-1.53,2.672-2.132c1.494-0.924,3.132-1.654,4.77-2.282c5.946-2.139,16.849-5.66,22.886-7.576
			c1.646-0.519,3.736-1.244,5.362-1.83c14.322-5.239,32.88-13.043,47.048-18.923"/>
	</g>
	<g id="POLYLINE_57_">
		
			<path fill="none" stroke="#FB8604" stroke-width="2.75" stroke-linecap="round" stroke-linejoin="round" stroke-miterlimit="10" d="
			M373.86,401.713c-3.499,14.919-7.259,31.963-9.843,47.036c-1.449,8.585-2.792,17.673-3.429,26.351
			c-0.916,13.507-2.558,37.736-3.207,51.222c-0.095,2.715-0.21,6.071-0.173,8.781c0.03,2.699,0.13,5.508,0.44,8.19
			c0.177,1.484,0.415,2.991,0.818,4.432c0.239,0.834,0.531,1.668,0.965,2.422c0.473,0.833,1.185,1.447,1.834,2.121
			c1.347,1.324,2.826,2.543,4.377,3.621c1.416,0.964,2.911,1.915,4.475,2.619c1.742,0.754,3.622,1.204,5.487,1.534
			c2.712,0.471,5.542,0.669,8.293,0.759c0.882,0.085,24.106,0.03,25.787,0.044c0.971-0.003,2.061-0.038,3.029-0.118
			c2.419-0.199,4.846-0.658,7.098-1.585c3.501-1.411,6.55-4.231,7.737-7.869c0.831-2.516,0.64-5.256-0.069-7.777
			c-0.357-1.312-0.82-2.613-1.475-3.808c-0.888-1.643-2.259-3.114-4.053-3.679c-4.06-1.17-8.336-1.432-12.531-1.7
			c-3.41-0.287-6.807-1.036-9.973-2.347c-1.286-0.523-2.556-1.156-3.631-2.046c-1.212-0.983-2.181-2.266-2.79-3.703
			c-0.543-1.282-0.844-2.673-0.912-4.063c-0.061-1.585,0.185-3.176,0.536-4.717c1.254-5.284,3.705-10.255,6.113-15.094
			c1.382-2.849,2.811-6.097,4.012-9.029c2.266-5.525,4.417-11.618,6.273-17.306c1.125-3.562,2.554-8.244,3.916-11.719
			c7.728-19.763,18.505-39.383,28.673-58.005"/>
	</g>
	<g id="POLYLINE_56_">
		
			<path fill="none" stroke="#FB8604" stroke-width="2.75" stroke-linecap="round" stroke-linejoin="round" stroke-miterlimit="10" d="
			M199.249,329.418c-3.434,2.354-6.913,4.821-9.738,7.901c-2.087,2.262-3.806,4.897-4.875,7.79
			c-1.094,2.902-1.504,6.028-1.548,9.116c-0.047,3.786,0.405,7.595,1.213,11.291c0.523,2.357,1.206,4.719,2.112,6.958
			c0.597,1.453,1.29,2.902,2.204,4.184c1.626,2.277,3.358,3.006,5.868,1.561c0.935-0.541,1.811-1.226,2.648-1.906
			c1.156-0.956,2.216-2.066,2.948-3.385"/>
	</g>
	<g id="POLYLINE_55_">
		
			<path fill="none" stroke="#FB8604" stroke-width="2.75" stroke-linecap="round" stroke-linejoin="round" stroke-miterlimit="10" d="
			M310.539,404.709c24.029,0.118,49.914-1.822,73.871-3.91c9.564-0.938,19.415-2.031,28.707-4.525
			c7.618-2.032,14.95-5.29,21.947-8.893"/>
	</g>
	<g id="POLYLINE_54_">
		
			<path fill="none" stroke="#FB8604" stroke-width="2.75" stroke-linecap="round" stroke-linejoin="round" stroke-miterlimit="10" d="
			M298.158,323.957c3.815,13.826,7.755,28.867,10.387,42.94c1.28,6.977,2.372,14.176,2.592,21.267
			c0.253,7.288-0.22,14.661-1.257,21.877c-0.79,5.734-2.194,11.994-3.573,17.642c-2.527,10.341-5.721,21.397-9.156,31.472
			c-2.456,6.928-5.055,14.281-6.725,21.435c-1.26,5.296-2.195,10.747-2.49,16.188c-0.237,7.07-0.496,14.446-1.583,21.443
			c-0.757,4.833-2.093,9.734-2.357,14.634c-0.013,0.329-0.012,0.764,0.054,1.06c0.009,0.046,0.019,0.091,0.019,0.091
			c0.01,0.045,0.021,0.09,0.021,0.09c0.012,0.045,0.024,0.09,0.024,0.09c0.013,0.044,0.026,0.089,0.026,0.089
			c0.014,0.044,0.029,0.088,0.029,0.088c0.015,0.044,0.031,0.087,0.031,0.087c0.017,0.044,0.034,0.087,0.034,0.087
			c0.018,0.043,0.036,0.086,0.036,0.086c0.019,0.043,0.039,0.085,0.039,0.085c0.02,0.042,0.041,0.085,0.041,0.085
			c0.022,0.042,0.044,0.084,0.044,0.084c0.023,0.042,0.046,0.083,0.046,0.083c0.024,0.041,0.049,0.083,0.049,0.083
			c0.465,0.758,1.101,1.264,1.81,1.716c0.731,0.453,1.531,0.802,2.339,1.092c1.899,0.683,3.924,1.01,5.926,1.212
			c3.254,0.319,6.631,0.271,9.895,0.118c3.789-0.182,7.753-0.322,11.528,0.055c0.883,0.115,1.844,0.237,2.668,0.559
			c0.892,0.359,1.602,0.896,2.198,1.572c1.266,1.44,1.939,3.297,2.433,5.123c0.789,2.88,1.288,5.882,1.343,8.871
			c0,0,0.005,0.306,0.005,0.306s0.001,0.305,0.001,0.305c-0.001,0.215-0.009,0.446-0.031,0.661
			c-0.048,0.483-0.154,0.965-0.342,1.414c-0.509,1.256-1.619,2.021-2.842,2.392c-0.706,0.222-1.453,0.327-2.191,0.378
			c-0.307,0.015-0.648,0.033-0.955,0.03c0,0-20.689,0-20.689,0h-27.122c0,0-0.792-0.004-0.792-0.004
			c-0.371-0.013-1.165-0.011-1.539-0.03c-2.043-0.065-4.16-0.207-6.184-0.498c-2.955-0.439-5.963-1.129-8.549-2.68
			c-2.003-1.221-3.588-3.038-4.806-5.025c-1.083-1.761-1.907-3.699-2.57-5.654c-0.521-1.486-0.935-3.188-1.304-4.725
			c-0.804-3.336-1.635-7.601-2.291-10.982c-1.917-10.865-4.238-22.809-4.802-33.81c-0.311-5.508-0.325-11.298,0.046-16.802
			c0.398-5.075,0.936-10.335,0.945-15.432c0.005-3.455-0.108-6.98-0.864-10.363c-0.364-1.599-0.998-3.162-1.635-4.67
			c-5.521-12.495-13.246-26.032-19.562-38.163c-5.824-11.313-11.34-23.115-15.293-35.225c-3.601-11.29-6.04-23.272-4.787-35.155
			c1.104-9.865,5.001-19.257,10.109-27.701c3.062-5.051,6.592-9.9,10.536-14.301c3.416-3.815,7.212-7.391,11.23-10.566
			c4.117-3.556,30.634-20.295,35.562-23.674c9.475-6.184,20.415-12.498,30.326-18c3.153-1.724,6.541-3.282,9.878-4.617
			c7.556-3.035,15.59-5.255,23.528-7.047c6.001-1.278,12.425-2.56,18.521-3.275c8.007-0.99,16.213-1.43,24.28-1.43
			c9.45,0.008,19.453,0.627,28.847,1.658c15.162,1.663,44.093,4.644,59.217,5.898c0,0,2.674,0.164,2.674,0.164
			s1.32,0.064,1.32,0.064s1.309,0.052,1.309,0.052s1.297,0.039,1.297,0.039c5.253,0.138,10.613-0.029,15.839-0.595
			c3.265-0.35,6.643-0.901,9.849-1.616c3.897-0.932,7.443-1.928,11.203-2.856c20.922-5.284,43.016-8.894,64.433-11.565"/>
	</g>
	<g id="POLYLINE_53_">
		
			<path fill="none" stroke="#FB8604" stroke-width="2.75" stroke-linecap="round" stroke-linejoin="round" stroke-miterlimit="10" d="
			M515.237,373.156c-4.379,11.818-9.258,25.257-12.71,37.321c-0.518,1.812-1.026,3.778-1.447,5.614
			c-1.935,8.412-2.868,17.171-2.95,25.799c-0.046,5.366,0.675,10.783,1.769,16.029c1.348,6.426,3.336,12.847,5.578,19.017
			c3.021,8.134,7.862,19.607,11.212,27.64c3.319,7.757,7.463,17.078,11.252,24.588c0.931,1.811,2.094,4.123,3.184,5.857
			c0.252,0.396,0.54,0.838,0.842,1.191c0.044,0.049,0.059,0.066,0.059,0.066c0.047,0.049,0.063,0.065,0.063,0.065
			c0.05,0.048,0.067,0.064,0.067,0.064c0.466,0.412,0.962,0.628,1.498,0.831c0.717,0.26,1.474,0.431,2.224,0.565
			c3.051,0.523,6.24,0.522,9.328,0.537c4.072,0.071,8.244,0.273,12.203,1.294c1.283,0.343,2.564,0.792,3.694,1.501
			c1.271,0.783,2.354,1.869,3.148,3.131c0.939,1.477,1.486,3.174,1.833,4.88c0.51,2.491,0.44,5.177-0.661,7.505
			c-0.47,1.042-1.225,2.059-2.108,2.729c-0.809,0.626-1.66,0.984-2.617,1.219c-0.591,0.14-1.207,0.214-1.813,0.238
			c-10.564,0.047-31.825-0.012-42.504,0.006c-2.686-0.032-5.42-0.199-8.06-0.719c-1.674-0.337-3.344-0.818-4.859-1.618
			c-2.118-1.093-3.675-3.016-4.792-5.083c-1.009-1.86-1.725-3.893-2.287-5.929c-0.347-1.244-0.608-2.587-0.939-3.836
			c-1.071-4.049-2.683-7.982-4.514-11.744c-1.902-3.948-4.975-9.064-7.169-12.907c-3.183-5.586-10.141-18.246-13.217-24.002
			c-1.888-3.619-3.869-7.742-5.544-11.465c-5.28-11.772-9.977-24.544-13.991-36.808c-3.264-10.227-6.289-20.784-7.788-31.432
			c-0.768-5.618-1.918-11.328-3.626-16.738c-0.786-2.49-1.73-5.019-2.799-7.402c0,0-0.314-0.687-0.314-0.687s-0.32-0.677-0.32-0.677
			s-0.326-0.667-0.326-0.667s-0.082-0.168-0.082-0.168s-0.083-0.173-0.083-0.173s-0.083-0.179-0.083-0.179
			c-0.34-0.738-0.656-1.544-0.936-2.305c-1.291-3.574-2.26-7.387-3.154-11.077c-3.703-15.805-6.446-33.567-8.967-49.625"/>
	</g>
	<g id="POLYLINE_52_">
		
			<path fill="none" stroke="#FB8604" stroke-width="2.75" stroke-linecap="round" stroke-linejoin="round" stroke-miterlimit="10" d="
			M637.161,270.726c-0.649-0.845-1.435-1.602-2.233-2.306c-0.768-0.678-2.449-2.043-3.225-2.716c0,0-0.561-0.487-0.561-0.487
			l-4.599-4.092c-1.116-0.969-2.429-2.074-3.607-2.957"/>
	</g>
	<g id="POLYLINE_51_">
		
			<path fill="none" stroke="#FB8604" stroke-width="2.75" stroke-linecap="round" stroke-linejoin="round" stroke-miterlimit="10" d="
			M604.108,300.634c2.248,0.82,4.633,1.292,7.009,1.547c3.029,0.315,6.122,0.287,9.147-0.057c3.094-0.354,6.289-1.055,8.818-2.97
			c1.839-1.367,3.261-3.221,4.46-5.155c1.824-2.983,3.181-6.26,4.19-9.603"/>
	</g>
	<g id="POLYLINE_50_">
		
			<path fill="none" stroke="#FB8604" stroke-width="2.75" stroke-linecap="round" stroke-linejoin="round" stroke-miterlimit="10" d="
			M635.836,284.206c-1.058-0.407-1.826-1.257-2.392-2.152c-0.814-1.319-1.26-2.861-1.331-4.406
			c-0.054-1.322,0.187-2.664,0.731-3.872c0.453-1.004,1.152-1.934,2.056-2.49c1.538-0.952,3.405-0.565,4.914,0.163
			c1.37,0.676,2.602,1.696,3.391,3.015c1.004,1.656,1.223,3.79,0.404,5.566c-0.574,1.272-1.592,2.296-2.734,3.076
			C639.45,284.074,637.523,284.832,635.836,284.206z"/>
	</g>
	<g id="POLYLINE_49_">
		
			<path fill="none" stroke="#FB8604" stroke-width="2.75" stroke-linecap="round" stroke-linejoin="round" stroke-miterlimit="10" d="
			M573.883,242.417c-1.571-1.375-3.036-2.911-4.217-4.637c-1.024-1.488-1.839-3.126-2.414-4.838
			c-0.762-2.279-1.16-4.689-1.167-7.092c0.002-1.981,0.277-3.993,1.021-5.839c0.578-1.449,1.497-2.767,2.703-3.761
			c1.893-1.572,4.449-2.469,6.909-2.064c0.684,0.115,1.353,0.341,1.961,0.675c0.786,0.43,1.476,1.022,2.091,1.669
			c1.584,1.652,3.026,4.14,4.295,6.053c1.061,1.617,2.206,3.259,3.59,4.617c2.302,2.274,5.231,3.808,8.148,5.145
			c3.022,1.365,6.909,2.976,9.757,4.592c3.02,1.679,5.943,3.626,8.619,5.813c1.598,1.315,3.157,2.752,4.513,4.315
			c0.978,1.132,1.88,2.356,2.549,3.697c0.482,0.966,0.84,2.006,1.004,3.076c0.162,1.041,0.139,2.114-0.042,3.152
			c-0.332,1.901-1.155,3.697-1.99,5.423c-1.108,2.241-2.857,5.439-3.648,7.776c-0.544,1.556-0.878,3.212-1.13,4.84l-0.564,3.91
			c-0.303,1.98-0.755,3.97-1.455,5.849c-1.537,4.148-3.802,8.034-6.244,11.709c-1.056,1.568-2.212,3.245-3.963,4.086
			c-1.132,0.558-2.384,0.742-3.63,0.808c-2.004,0.099-4.093-0.097-6.088-0.304c0,0-8.612-1.051-8.612-1.051
			c-3.906-0.465-7.919-0.571-11.845-0.329c-1.998,0.118-8.392,0.659-10.245,0.669c-1.952,0.047-4.649-0.105-6.607-0.098
			c-1.525,0.009-3.072,0.119-4.566,0.428c-1.379,0.279-2.731,0.74-4.02,1.298c-5.238,2.329-9.87,5.902-14.278,9.521
			c-3.387,2.851-6.831,5.818-9.415,9.442c-1.409,1.974-2.508,4.185-3.147,6.528c-1.3,4.575-1.289,10.579-1.625,15.325
			c-0.26,4.262-0.877,8.667-1.602,12.874l-3.292,17.461"/>
	</g>
</g>
<g id="AG-OUTLINE">
	<g id="POLYLINE_32_">
		
			<path fill="none" stroke="#FB8604" stroke-width="3.5" stroke-linecap="round" stroke-linejoin="round" stroke-miterlimit="10" d="
			M441.638,406.282c0.721,3.268,1.271,6.683,1.72,9.998c0.32,2.293,0.864,5.097,1.332,7.384c1.85,8.722,4.474,17.531,7.276,25.992
			c3.173,9.428,6.931,19.705,10.826,28.841c2.342,5.49,4.988,11.219,7.75,16.507c5.275,9.889,12.735,23.217,18.275,32.836
			c2.91,5.354,5.49,11.005,6.908,16.951c0.695,3.164,1.603,6.351,3.245,9.166c0.997,1.696,2.306,3.27,4.016,4.281
			c2.236,1.312,4.83,1.87,7.374,2.22c1.539,0.202,3.159,0.312,4.711,0.36c11.567,0.046,32.779,0.068,44.253-0.006
			c1.365-0.095,2.81-0.54,3.893-1.357c1.087-0.807,1.796-1.857,2.319-3.054c0.544-1.252,0.816-2.617,0.85-3.979
			c0.035-1.323-0.141-2.651-0.448-3.936c-0.326-1.373-0.796-2.732-1.521-3.948c-0.836-1.423-2.027-2.64-3.447-3.484
			c-1.096-0.664-2.328-1.089-3.561-1.42c-3.958-1.021-8.13-1.222-12.203-1.294c-3.089-0.014-6.277-0.015-9.328-0.537
			c-1.218-0.23-2.629-0.534-3.613-1.302c-0.055-0.047-0.073-0.062-0.073-0.062c-0.052-0.047-0.069-0.063-0.069-0.063
			c-0.049-0.048-0.065-0.064-0.065-0.064c-0.436-0.483-0.763-1.02-1.103-1.564c-0.652-1.061-1.343-2.36-1.93-3.468
			c-4.275-8.242-8.665-18.132-12.336-26.701c-3.357-8.052-8.186-19.493-11.212-27.64c-2.242-6.171-4.231-12.591-5.578-19.017
			c-1.093-5.246-1.815-10.663-1.769-16.029c0.083-8.627,1.015-17.388,2.95-25.799c0.422-1.831,0.928-3.807,1.447-5.614
			c3.447-12.049,8.336-25.538,12.71-37.321l3.292-17.461c0.727-4.209,1.341-8.611,1.602-12.874
			c0.348-4.776,0.324-10.734,1.625-15.325c0.639-2.343,1.738-4.554,3.147-6.528c2.584-3.624,6.028-6.592,9.415-9.442
			c4.407-3.619,9.039-7.191,14.278-9.521c1.35-0.586,2.768-1.061,4.216-1.337c1.675-0.33,3.416-0.406,5.12-0.387
			c1.64,0.033,4.224,0.133,5.858,0.096c1.909-0.033,8.277-0.534,10.245-0.669c3.926-0.242,7.939-0.136,11.845,0.329l8.612,1.051
			c2.084,0.215,4.255,0.42,6.347,0.288c1.117-0.074,2.25-0.263,3.269-0.744c2.248,0.82,4.633,1.292,7.009,1.547
			c3.029,0.315,6.122,0.287,9.147-0.057c3.094-0.354,6.289-1.055,8.818-2.97c1.839-1.367,3.261-3.221,4.46-5.155
			c1.824-2.983,3.181-6.26,4.19-9.603c1.343-0.183,2.583-0.839,3.647-1.657c0.751-0.585,1.426-1.285,1.915-2.106
			c0.467-0.778,0.751-1.668,0.807-2.574c0.082-1.253-0.251-2.521-0.895-3.596c-0.524-0.881-1.255-1.629-2.083-2.229
			c-1.157-0.829-2.526-1.439-3.962-1.509c-0.649-0.845-1.435-1.602-2.233-2.306c-0.768-0.678-2.449-2.043-3.225-2.716
			c0,0-0.561-0.487-0.561-0.487l-4.599-4.092c-1.116-0.969-2.429-2.074-3.607-2.957c0.506-1.767,0.575-3.674,0.065-5.447
			c-0.396-1.418-1.108-2.734-1.954-3.932c-0.998-1.409-2.19-2.698-3.436-3.891c-3.13-2.963-6.711-5.476-10.445-7.617
			c-3.053-1.785-7.119-3.478-10.365-4.933c-3.482-1.582-6.972-3.5-9.407-6.525c-1.749-2.107-3.33-4.916-4.909-7.157
			c-1.065-1.484-2.261-2.978-3.899-3.852c-2.048-1.083-4.566-0.864-6.624,0.081c-1.447,0.661-2.733,1.685-3.675,2.968
			c-0.949,1.295-1.531,2.832-1.856,4.396c-17.12,2.166-35.281,4.917-52.08,8.672c-5.189,1.142-11.287,2.601-16.426,3.926
			c-3.322,0.878-6.981,1.886-10.311,2.472c-5.315,0.974-10.789,1.456-16.189,1.577c-4.228,0.096-8.69-0.041-12.917-0.333
			c-17.228-1.415-46.239-4.527-63.509-6.339c-2.124-0.183-6.294-0.549-8.413-0.677c-7.794-0.492-16.074-0.694-23.869-0.406
			c-9.557,0.328-19.225,1.378-28.611,3.23c-7.467,1.453-15.184,3.288-22.413,5.649c-4.103,1.34-8.264,2.912-12.188,4.714
			c-3.537,1.538-9.728,5.162-13.153,7.049c-7.163,4.137-15.529,9.097-22.44,13.592c-1.771,1.162-32.228,20.944-32.919,21.66
			c-3.237,2.375-6.393,5.027-9.283,7.815c-5.62,5.408-10.525,11.613-14.623,18.245c-3.16,5.122-5.911,10.605-7.839,16.314
			c-3.434,2.354-6.913,4.821-9.738,7.901c-2.087,2.262-3.806,4.897-4.875,7.79c-1.094,2.902-1.504,6.028-1.548,9.116
			c-0.047,3.786,0.405,7.595,1.213,11.291c0.523,2.357,1.206,4.719,2.112,6.958c0.597,1.453,1.29,2.902,2.204,4.184
			c1.626,2.277,3.358,3.006,5.868,1.561c0.935-0.541,1.811-1.226,2.648-1.906c1.156-0.956,2.216-2.066,2.948-3.385
			c0.877,3.052,2.022,6.44,3.112,9.432c-2.471,11.914-7.355,39.187-10.497,50.428c-0.525,1.695-1.196,3.357-2.073,4.899
			c-1.135,2.005-2.652,3.821-4.537,5.159c-1.277,0.898-2.826,1.712-4.192,2.481c-6.884,3.74-16.857,8.607-23.945,12.099
			c-5.885,2.894-11.866,6.118-17.342,9.721c-4.145,2.727-8.201,5.762-11.803,9.181c-2.775,2.572-5.532,6.031-7.989,8.918
			c-2.77,3.412-5.625,6.924-7.806,10.75c-0.594,1.039-1.027,2.104-1.232,3.288c-0.299,1.651-0.19,3.359,0.132,4.998
			c0.34,1.722,0.921,3.407,1.608,5.02c0.433,0.987,1.341,2.894,1.825,3.896c1.755,3.737,3.584,7.978,5.119,11.81
			c1.256,3.134,2.638,6.914,3.887,10.052c2.106,5.286,4.511,10.894,6.917,16.05c0.846,1.751,1.805,3.489,2.965,5.053
			c1.33,1.784,2.981,3.463,5.103,4.255c0.582,0.215,1.197,0.355,1.816,0.405c0.18,0.013,0.375,0.024,0.556,0.023
			c0,0,15.433,0,15.433,0c2.195-0.007,4.434-0.135,6.583-0.61c1.359-0.307,2.714-0.756,3.893-1.512
			c0.445-0.283,0.961-0.703,1.294-1.072c0.583-0.653,0.988-1.32,1.388-2.073c1.198-2.307,1.552-4.967,1.373-7.538
			c-0.102-1.481-0.305-2.979-0.735-4.402c-0.313-1.027-0.751-2.033-1.402-2.892c-1.398-1.653-3.421-3.559-4.959-5.104
			c-0.942-0.92-2.604-2.482-3.467-3.422c-0.849-0.915-1.666-1.907-2.397-2.919c-2.372-3.297-4.106-7.1-4.859-11.1
			c-0.232-1.267-0.355-2.579-0.349-3.867c0.009-0.513,0.008-1.071,0.1-1.577c0.205-1.171,0.839-2.226,1.64-3.089
			c0.775-0.837,1.705-1.53,2.672-2.132c1.494-0.924,3.132-1.654,4.77-2.282c5.946-2.139,16.849-5.66,22.886-7.576
			c1.646-0.519,3.736-1.244,5.362-1.83c14.322-5.239,32.88-13.043,47.048-18.923c-0.892,9.102-0.718,18.444,0.216,27.538
			c0.517,5.45,1.883,13.348,2.801,18.824c0.722,4.077,1.921,10.716,2.778,14.694c1.066,4.827,2.047,9.913,4.579,14.22
			c1.218,2.089,2.817,4.016,4.873,5.322c2.268,1.417,4.905,2.129,7.516,2.597c2.175,0.379,4.442,0.575,6.647,0.664
			c1.069,0.109,28.424,0.043,30.2,0.059c0,0,20.689,0,20.689,0s0.197-0.001,0.197-0.001s0.194-0.004,0.194-0.004
			c0.356-0.011,0.745-0.031,1.099-0.071c2.77-0.294,4.785-1.586,4.866-4.573c0.031-2.822-0.355-5.661-1.01-8.404
			c-0.389-1.553-0.799-3.151-1.536-4.58c-0.594-1.186-1.503-2.361-2.64-3.03c-0.695-0.421-1.39-0.611-2.15-0.754
			c-1.4-0.259-2.879-0.343-4.303-0.394c-4.007-0.146-8.187,0.194-12.193,0.261c-2.649,0.022-5.375-0.062-7.996-0.448
			c-1.666-0.247-3.339-0.631-4.897-1.279c-1.09-0.453-2.232-1.077-3.007-1.966c-0.439-0.499-0.734-1.081-0.85-1.688
			c-0.113-0.607-0.046-1.153-0.018-1.748c0.155-2.143,0.57-4.476,0.944-6.596c0.43-2.339,1.02-5.003,1.377-7.35
			c0.638-4.129,1.003-8.568,1.241-12.745c0.177-2.891,0.222-6.746,0.398-9.629c0.198-2.938,0.591-5.965,1.102-8.865
			c0.911-5.193,2.294-10.475,3.852-15.514c1.165-3.812,2.902-8.532,4.206-12.313c3.435-10.07,6.63-21.135,9.156-31.471
			c1.834-7.394,3.484-15.389,4.233-22.974c20.367,0.139,42.971-1.385,63.321-2.996c-3.499,14.919-7.259,31.963-9.843,47.036
			c-1.449,8.585-2.792,17.673-3.429,26.351c-0.916,13.507-2.558,37.736-3.207,51.222c-0.095,2.715-0.21,6.071-0.173,8.781
			c0.03,2.699,0.13,5.508,0.44,8.19c0.177,1.484,0.415,2.991,0.818,4.432c0.239,0.834,0.531,1.668,0.965,2.422
			c0.473,0.833,1.185,1.447,1.834,2.121c1.347,1.324,2.826,2.543,4.377,3.621c1.416,0.964,2.911,1.915,4.475,2.619
			c1.742,0.754,3.622,1.204,5.487,1.534c2.712,0.471,5.542,0.669,8.293,0.759c0.882,0.085,24.106,0.03,25.787,0.044
			c0.971-0.003,2.061-0.038,3.029-0.118c2.419-0.199,4.846-0.658,7.098-1.585c3.501-1.411,6.55-4.231,7.737-7.869
			c0.831-2.516,0.64-5.256-0.069-7.777c-0.357-1.312-0.82-2.613-1.475-3.808c-0.888-1.643-2.259-3.114-4.053-3.679
			c-4.06-1.17-8.336-1.432-12.531-1.7c-3.41-0.287-6.807-1.036-9.973-2.347c-1.286-0.523-2.556-1.156-3.631-2.046
			c-1.212-0.983-2.181-2.266-2.79-3.703c-0.543-1.282-0.844-2.673-0.912-4.063c-0.061-1.585,0.185-3.176,0.536-4.717
			c1.254-5.284,3.705-10.255,6.113-15.094c1.382-2.849,2.811-6.097,4.012-9.029c2.266-5.525,4.417-11.618,6.273-17.306
			c1.125-3.562,2.554-8.244,3.916-11.719C420.693,444.525,431.47,424.904,441.638,406.282z"/>
	</g>
</g>
</svg>
