<?xml version="1.0" encoding="utf-8"?>
<!-- Generator: Adobe Illustrator 24.2.0, SVG Export Plug-In . SVG Version: 6.00 Build 0)  -->
<!DOCTYPE svg PUBLIC "-//W3C//DTD SVG 1.1//EN" "http://www.w3.org/Graphics/SVG/1.1/DTD/svg11.dtd" [
	<!ENTITY ns_extend "http://ns.adobe.com/Extensibility/1.0/">
	<!ENTITY ns_ai "http://ns.adobe.com/AdobeIllustrator/10.0/">
	<!ENTITY ns_graphs "http://ns.adobe.com/Graphs/1.0/">
	<!ENTITY ns_vars "http://ns.adobe.com/Variables/1.0/">
	<!ENTITY ns_imrep "http://ns.adobe.com/ImageReplacement/1.0/">
	<!ENTITY ns_sfw "http://ns.adobe.com/SaveForWeb/1.0/">
	<!ENTITY ns_custom "http://ns.adobe.com/GenericCustomNamespace/1.0/">
	<!ENTITY ns_adobe_xpath "http://ns.adobe.com/XPath/1.0/">
]>
<svg version="1.1" xmlns:x="&ns_extend;" xmlns:i="&ns_ai;" xmlns:graph="&ns_graphs;"
	 xmlns="http://www.w3.org/2000/svg" xmlns:xlink="http://www.w3.org/1999/xlink" x="0px" y="0px" width="750px" height="750px"
	 viewBox="0 0 750 750" enable-background="new 0 0 750 750" xml:space="preserve">
<metadata>
	<sfw  xmlns="&ns_sfw;">
		<slices></slices>
		<sliceSourceBounds  bottomLeftOrigin="true" height="8995.771" width="8021.451" x="-5958.451" y="-734.928"></sliceSourceBounds>
	</sfw>
</metadata>
<g id="FILL-BACKGROUND">
	<rect x="0" fill="#FFFFFF" width="750" height="750"/>
</g>
<g id="N-TEXT">
</g>
<g id="N-DIMENSIONS">
</g>
<g id="AG-GUIDES">
</g>
<g id="AG-DETAIL-DIAGRAM">
</g>
<g id="AG-DIAGRAM">
	<g id="POLYLINE_21_">
		<g>
			<g>
				
					<line fill="none" stroke="#FB8604" stroke-width="3.25" stroke-linecap="round" stroke-linejoin="round" x1="129.507" y1="559.887" x2="131.507" y2="559.887"/>
				
					<line fill="none" stroke="#FB8604" stroke-width="3.25" stroke-linecap="round" stroke-linejoin="round" stroke-dasharray="4.0351,7.0614" x1="138.569" y1="559.887" x2="567.802" y2="559.887"/>
				
					<line fill="none" stroke="#FB8604" stroke-width="3.25" stroke-linecap="round" stroke-linejoin="round" x1="571.332" y1="559.887" x2="573.332" y2="559.887"/>
			</g>
		</g>
	</g>
</g>
<g id="AG-DETAILS">
</g>
<g id="AG-PEOPLE">
</g>
<g id="AG-ANIMALS">
	<g id="POLYLINE_110_">
		
			<path fill="none" stroke="#FB8604" stroke-width="2.75" stroke-linecap="round" stroke-linejoin="round" stroke-miterlimit="10" d="
			M174.064,436.893c-2.023,2.754-4.243,5.458-6.612,7.914c-3.251,3.277-6.314,6.84-8.741,10.777
			c-1.367,2.218-2.545,4.579-3.395,7.045c-0.332,0.965-0.624,1.978-0.847,2.974c-0.237,1.052-0.402,2.233-0.648,3.287
			c-0.668,2.989-1.689,5.943-2.928,8.742c-1.159,2.617-2.553,5.2-4.055,7.635c-1.184,1.945-2.94,4.435-4.233,6.343
			c-2.385,3.584-4.927,7.536-7.008,11.293c-2.003,3.637-3.949,7.42-5.105,11.422c-0.572,2.014-0.959,4.116-0.872,6.216
			c0.031,0.675,0.102,1.359,0.274,2.014c0.252,0.99,0.679,1.937,1.183,2.823c1.377,2.386,3.303,4.428,5.305,6.302
			c0.649,0.743,20.436,16.967,21.828,18.143c0.661,0.544,1.395,1.114,2.091,1.614c2.271,1.637,4.736,3.041,7.294,4.177
			c3.703,1.646,7.649,2.756,11.643,3.417c4.025,0.684,8.285,0.838,12.363,0.931c2.758,0.028,5.653,0.005,8.396-0.291
			c1.57-0.175,3.17-0.416,4.677-0.902c0.653-0.216,1.304-0.478,1.887-0.846c0.606-0.364,1.099-0.893,1.486-1.41"/>
	</g>
	<g id="POLYLINE_109_">
		
			<path fill="none" stroke="#FB8604" stroke-width="2.75" stroke-linecap="round" stroke-linejoin="round" stroke-miterlimit="10" d="
			M195.849,527.191c-1.836-0.7-3.615-1.636-5.102-2.933c-0.522-0.455-1.011-0.96-1.443-1.502c-0.337-0.411-0.687-0.964-0.975-1.415
			c-0.842-1.34-1.675-2.743-2.29-4.203c-0.284-0.695-0.55-1.446-0.598-2.197c-0.002-0.052-0.002-0.069-0.002-0.069
			c0.003-0.375,0.116-0.716,0.227-1.03c0.148-0.4,0.339-0.798,0.536-1.175c0.701-1.325,1.587-2.624,2.451-3.851
			c1.477-2.029,3.062-4.185,4.719-6.071c1.292-1.424,2.757-2.766,4.219-4.016"/>
	</g>
	<g id="POLYLINE_108_">
		
			<path fill="none" stroke="#FB8604" stroke-width="2.75" stroke-linecap="round" stroke-linejoin="round" stroke-miterlimit="10" d="
			M343.254,447.556c2.456,9.592,4.378,19.507,4.42,29.437c0.005,1.487-0.056,3.136-0.158,4.617c-0.11,1.382-0.242,2.915-0.286,4.299
			c-0.115,3.282,0.019,6.625,0.594,9.861c0.418,2.351,1.074,4.68,2.047,6.863c0.469,1.094,1.109,2.163,1.676,3.21
			c0.866,1.633,1.627,3.39,2.252,5.129c1.074,2.994,1.83,6.142,2.338,9.28c0.436,2.579,0.671,5.643,0.914,8.265
			c0.44,4.242,0.99,8.777,1.819,12.953c0.491,2.44,1.059,4.964,1.866,7.319c0.712,2.069,1.602,4.117,2.863,5.914
			c0.678,0.95,1.453,1.861,2.406,2.545c1.715,1.207,3.791,1.778,5.832,2.142c1.426,0.246,2.926,0.382,4.371,0.448
			c11.385,0.122,32.175,0.021,43.503,0.05c3.467-0.036,6.219-1.332,7.013-4.951c0.322-1.4,0.389-2.863,0.371-4.296
			c-0.038-2.304-0.337-4.65-0.709-6.923c-0.428-2.512-0.913-5.092-1.947-7.432c-0.983-2.281-2.538-4.437-4.792-5.589
			c-0.465-0.241-0.957-0.44-1.458-0.593c-4.046-1.088-8.644-2.265-12.606-3.617c-1.338-0.51-2.636-1.194-3.699-2.166
			c-0.854-0.776-1.527-1.757-1.91-2.847c-0.331-0.922-0.539-1.903-0.706-2.866c-0.293-1.735-0.454-3.591-0.565-5.348
			c-0.136-2.721-0.316-5.529,0.028-8.239c0.436-3.696,1.317-7.409,2.273-11.002c2.086-7.738,5.016-16.016,7.797-23.552"/>
	</g>
	<g id="POLYLINE_107_">
		
			<path fill="none" stroke="#FB8604" stroke-width="2.75" stroke-linecap="round" stroke-linejoin="round" stroke-miterlimit="10" d="
			M276.153,457.87c-1.112,9.875-2.259,21.621-4.094,31.33c-0.377,1.956-0.887,3.936-1.51,5.828
			c-1.613,4.911-3.855,9.698-6.228,14.285c-1.629,3.069-3.329,6.317-4.664,9.526c-0.657,1.592-1.28,3.258-1.663,4.941
			c-0.125,0.564-0.227,1.16-0.26,1.738c0,0-0.004,0.073-0.004,0.073s-0.003,0.072-0.003,0.072l-0.002,0.071
			c0,0-0.001,0.07-0.001,0.07s-0.001,0.069-0.001,0.069s0,0.068,0,0.068s0.001,0.067,0.001,0.067l0.002,0.066l0.002,0.065
			c0.005,0.193,0.034,0.398,0.073,0.56c0.157,0.689,0.625,1.241,1.139,1.64c0.893,0.682,1.981,1.06,3.055,1.35
			c1.919,0.503,3.941,0.697,5.917,0.823c6.484,0.236,13.753,0.338,20.206,0.906c0.468,0.05,0.938,0.137,1.393,0.258
			c1.764,0.46,3.318,1.539,4.47,2.94c1.49,1.779,2.355,3.982,3.074,6.163c1.315,3.962,2.064,8.141,2.046,12.32
			c-0.01,0.969-0.184,1.95-0.606,2.827c-0.378,0.794-0.963,1.487-1.666,2.013c-0.906,0.682-1.979,1.115-3.071,1.4
			c-1.625,0.42-3.327,0.541-5.001,0.545c-16.977-0.085-48.209,0.173-65.288-0.106c-2.1-0.121-4.34-0.292-6.419-0.624
			c-2.742-0.428-5.492-1.069-8.04-2.189c-1.727-0.765-3.378-1.773-4.698-3.137c-0.601-0.616-1.122-1.334-1.628-2.029
			c-0.922-1.297-1.739-2.685-2.441-4.113c-3.068-6.287-4.096-13.374-4.389-20.303c-0.092-2.936,0.032-5.918,0.467-8.825
			c0.292-1.994,0.838-3.987,1.075-5.99c0.581-4.452,0.529-9.038,0.218-13.512c-0.213-2.998-0.542-6.148-1.113-9.094
			c-0.828-4.274-2.088-8.529-3.536-12.633c-1.896-5.346-4.276-10.846-6.725-15.964c-3.991-8.374-9.707-19.738-13.992-27.961
			c-1.936-3.757-5.959-11.022-7.8-14.795c-3.158-6.438-6.151-13.154-7.791-20.159c-1.391-6.396-1.983-13.042-2.001-19.582
			c0.008-3.045,0.072-6.255,0.557-9.269c1.093-7.144,3.394-14.154,5.884-20.922c1.468-3.781,3.075-8.02,4.801-11.69
			c1.751-3.755,3.792-7.54,6.015-11.038c3.102-4.885,6.737-9.548,10.766-13.704c2.113-2.172,4.471-4.36,6.814-6.283
			c4.431-3.652,13.315-11.19,17.667-14.965c5.074-4.381,15.221-13.436,20.225-17.929c3.501-3.153,7.324-6.274,11.137-9.044
			c8.111-5.904,16.983-10.92,26.222-14.829c15.84-6.675,32.908-10.381,50.018-11.71c5.766-0.439,11.758-0.621,17.54-0.54
			c5.64,0.146,11.655,0.316,17.294,0.133c8.777-0.278,17.68-1.129,26.189-3.375c3.363-0.892,6.697-2.057,9.852-3.528
			c5.526-2.468,11.477-3.987,17.492-4.616c5.473-0.585,11.06-0.435,16.521,0.208c5.582,0.711,11.365,1.844,16.824,3.203
			c5.707,1.449,11.404,3.283,16.752,5.761c1.388,0.673,2.966,1.422,4.305,2.194c1.324,0.774,2.831,1.612,4.186,2.334
			c4.687,2.462,9.78,4.754,14.684,6.754c21.974,8.811,45.255,15.618,68.427,20.45"/>
	</g>
	<g id="POLYLINE_106_">
		
			<path fill="none" stroke="#FB8604" stroke-width="2.75" stroke-linecap="round" stroke-linejoin="round" stroke-miterlimit="10" d="
			M214.278,386.128c3.539,10.786,8.607,21.133,14.574,30.777c5.554,9.016,11.999,17.653,19.8,24.853
			c5.829,5.399,12.52,9.94,19.752,13.242c3.995,1.794,8.202,3.319,12.573,3.829c2.077,0.213,4.268,0.213,6.224-0.605
			c0.982-0.417,1.844-1.08,2.598-1.827c1.339-1.312,2.51-3.04,4.137-4.022c0.567-0.343,1.195-0.592,1.845-0.721
			c1.238-0.241,2.52-0.137,3.76,0.043c1.612,0.244,3.257,0.671,4.828,1.107c3.555,1.002,7.555,2.347,11.172,3.075
			c2.06,0.404,4.194,0.687,6.291,0.436c2.66-0.309,5.051-1.646,7.2-3.175c2.428-1.728,5.089-3.917,7.929-4.877
			c1.458-0.511,3.014-0.719,4.554-0.746c2.168-0.036,4.354,0.263,6.478,0.677c5.867,1.122,14.806,4.336,20.603,5.944
			c3.781,1.064,7.718,1.853,11.614,2.347c5.478,0.744,14.143,1.019,19.723,1.328"/>
	</g>
	<g id="POLYLINE_105_">
		
			<path fill="none" stroke="#FB8604" stroke-width="2.75" stroke-linecap="round" stroke-linejoin="round" stroke-miterlimit="10" d="
			M616.13,364.234c-2.798-4.941-9.797-15.182-12.986-20.029"/>
	</g>
	<g id="POLYLINE_104_">
		
			<path fill="none" stroke="#FB8604" stroke-width="2.75" stroke-linecap="round" stroke-linejoin="round" stroke-miterlimit="10" d="
			M573.54,393.244c3.212,2.204,6.786,3.894,10.461,5.169c3.751,1.291,7.675,2.172,11.627,2.539
			c4.443,0.388,9.069,0.209,13.266-1.422c2.832-1.102,5.397-2.894,7.4-5.179c2.927-3.342,4.764-7.645,5.121-12.075"/>
	</g>
	<g id="POLYLINE_103_">
		
			<path fill="none" stroke="#FB8604" stroke-width="2.75" stroke-linecap="round" stroke-linejoin="round" stroke-miterlimit="10" d="
			M621.154,382.339c-2.012,0.461-4.223,0.127-5.94-1.042c-0.68-0.459-1.278-1.043-1.753-1.694c-0.491-0.67-0.865-1.425-1.158-2.201
			c-0.775-2.098-1.04-4.371-0.944-6.599c0.117-2.524,0.842-6.029,3.769-6.52c1.499-0.235,2.922,0.31,4.229,0.975
			c1.196,0.625,2.317,1.422,3.355,2.282c1.19,0.995,2.316,2.104,3.293,3.31c1.228,1.521,2.311,3.468,1.862,5.483
			c-0.222,1.018-0.771,1.941-1.431,2.736C625.078,380.671,623.205,381.864,621.154,382.339z"/>
	</g>
	<g id="POLYLINE_102_">
		
			<path fill="none" stroke="#FB8604" stroke-width="2.75" stroke-linecap="round" stroke-linejoin="round" stroke-miterlimit="10" d="
			M358.412,359.821c-1.827,8.107-4.125,20.733-0.368,28.442c3.349,6.459,7.623,12.79,11.781,18.765
			c2.941,4.109,6.065,8.483,8.634,12.817c1.965,3.292,3.806,6.749,5.32,10.266c0.88,1.978,1.568,4.105,2.355,6.119
			c2.616,6.498,6.524,12.44,10.826,17.94c1.156,1.47,2.616,3.2,3.781,4.643c1.097,1.378,2.271,2.955,3.289,4.392
			c6.137,8.727,11.27,18.367,15.933,27.95c3.897,8.21,15.658,33.56,19.233,41.636c0.679,1.412,1.467,2.899,2.287,4.235
			c0.972,1.591,2.065,3.139,3.261,4.569c1.929,2.31,4.185,4.373,6.711,6.015c0.551,0.356,1.163,0.728,1.739,1.045
			c2.986,1.575,7.42,4.055,10.349,5.72c1.318,0.735,3.103,1.841,4.396,2.627c0.301,0.177,0.621,0.34,0.94,0.482
			c1.147,0.509,2.377,0.849,3.599,1.121c5.481,1.145,11.23,1.239,16.812,1.283c1.67-0.006,34.376,0.04,35.221-0.053
			c1.705-0.061,3.53-0.157,5.228-0.348c1.895-0.225,3.845-0.511,5.647-1.167c0.386-0.144,0.776-0.308,1.139-0.504
			c0.164-0.094,0.348-0.191,0.504-0.3c0,0,0.066-0.045,0.066-0.045s0.064-0.045,0.064-0.045s0.063-0.045,0.063-0.045
			s0.061-0.046,0.061-0.046c0.067-0.06,0.186-0.141,0.229-0.187c0.027-0.024,0.053-0.048,0.053-0.048
			c0.052-0.048,0.077-0.073,0.077-0.073c0.049-0.049,0.073-0.073,0.073-0.073c0.047-0.049,0.07-0.074,0.07-0.074
			c0.045-0.05,0.067-0.075,0.067-0.075c0.042-0.051,0.063-0.076,0.063-0.076c0.04-0.051,0.059-0.077,0.059-0.077
			c0.809-1.172,1.144-2.593,1.291-3.991c0.237-2.491-0.098-5.02-0.565-7.467c-0.393-1.986-0.916-3.972-1.753-5.819
			c-0.572-1.243-1.333-2.505-2.348-3.434c-0.677-0.639-1.505-1.076-2.335-1.481c-3.928-1.832-8.284-2.776-12.513-3.646
			c-3.929-0.795-8.208-1.486-12.184-1.992c-1.333-0.167-3.151-0.353-4.468-0.588c-2.702-0.48-5.451-1.199-7.77-2.716
			c-1.388-0.907-2.471-2.208-3.458-3.523c-1.876-2.545-3.421-5.414-4.845-8.233c-1.894-3.719-3.372-7.7-4.083-11.821
			c-0.273-1.573-0.449-3.216-0.501-4.811c-0.001-5.712,0.099-15.981,0.047-21.737c-0.029-5.426-0.455-10.972-1.194-16.347
			c-0.261-1.931-0.638-4.216-0.984-6.133c-0.237-1.205-0.511-2.695-0.693-3.897c-0.906-6.111-0.749-12.381,0.143-18.484
			c0.453-3.327,1.3-6.659,1.931-9.953c0.778-4.186,1.288-8.485,1.228-12.748c-0.031-2.097-0.214-4.236-0.601-6.298
			c-0.234-1.205-0.583-2.55-0.835-3.751c-0.476-2.318-0.887-4.699-0.873-7.073c0.017-0.979,0.103-1.979,0.431-2.908
			c0.474-1.276,1.37-2.259,2.395-3.103c1.024-0.833,2.193-1.499,3.38-2.071c0.923-0.426,1.875-0.863,2.855-1.139
			c4.043-1.125,8.324-0.117,12.146,1.355c1.223,0.468,2.646,1.143,3.871,1.627c1.985,0.798,4.041,1.524,6.126,2.011
			c1.677,0.377,3.428,0.646,5.143,0.395c0.609-0.097,1.205-0.035,1.806,0.057c0.9,0.15,1.793,0.422,2.652,0.725
			c3.244,1.178,6.352,2.895,9.342,4.607c6.447,3.824,13.673,8.586,20.217,12.237c2.214,1.238,4.752,2.65,7.07,3.658
			c0.659,0.262,1.346,0.47,2.044,0.596c1.154,0.211,2.36,0.181,3.487-0.154c1.123-0.328,2.15-0.947,3.026-1.716
			c1.024-0.891,1.853-1.989,2.59-3.121c1.877-2.862,3.222-6.08,4.075-9.39c0.316-1.225,0.585-2.542,0.779-3.793
			c0.251-1.629,0.417-3.436,0.677-5.064c0.492-3.252,1.177-6.577,2.145-9.723c0.408-1.299,0.85-2.636,1.429-3.871
			c1.712-3.608,4.36-6.702,7.18-9.494c2.217-2.176,4.722-4.203,6.947-6.372c3.981-3.809,7.756-7.981,11.109-12.355
			c1.683-2.211,3.286-4.547,4.555-7.024c0.804-1.589,1.5-3.274,1.831-5.031c0.591-3.409-0.076-6.954-1.459-10.096
			c-1.588-3.53-3.885-6.74-6.278-9.765c-1.061-1.317-2.291-2.763-3.427-4.018c-3-3.158-15.211-16.995-18.272-19.751
			c-5.012-4.826-10.56-9.275-16.201-13.343"/>
	</g>
	<g id="POLYLINE_88_">
		
			<path fill="none" stroke="#FB8604" stroke-width="2.75" stroke-linecap="round" stroke-linejoin="round" stroke-miterlimit="10" d="
			M546.333,300.409c-2.379-1.111-4.796-2.332-6.673-4.205c-2.608-2.552-3.873-6.158-4.374-9.706
			c-0.599-4.436-0.029-9.152,2.194-13.086c1.015-1.794,2.406-3.365,3.991-4.675c3.041-2.488,6.773-4.197,10.676-4.723
			c1.978-0.245,4.067-0.178,5.914,0.636c2.857,1.253,4.496,4.162,5.425,7.01c0.733,2.252,1.16,4.623,1.415,6.975
			c0.429,4.124,0.138,8.373-1.181,12.319"/>
	</g>
</g>
<g id="AG-OUTLINE">
	<g id="POLYLINE_27_">
		
			<path fill="none" stroke="#FB8604" stroke-width="3.5" stroke-linecap="round" stroke-linejoin="round" stroke-miterlimit="10" d="
			M621.414,382.276c2.105-0.562,4.016-1.859,5.327-3.597c0.734-0.985,1.269-2.18,1.225-3.429c-0.023-0.93-0.336-1.832-0.775-2.645
			c-0.655-1.206-1.567-2.264-2.516-3.248c-1.496-1.526-3.176-2.914-5.049-3.954c-1.08-0.586-2.259-1.085-3.496-1.168
			c-2.798-4.941-9.797-15.182-12.986-20.029c1.533-1.977,3.006-4.059,4.245-6.234c0.843-1.491,1.605-3.062,2.119-4.698
			c0.612-1.869,0.733-3.868,0.543-5.817c-0.313-3.347-1.669-6.505-3.406-9.351c-1.854-3.077-4.107-5.985-6.448-8.706
			c-1.561-1.805-14.752-16.266-16.444-18.089c-1.343-1.417-3.004-3.062-4.429-4.398c-4.686-4.388-9.837-8.487-15.042-12.24
			c-0.841-3.963-2.461-8.541-6.535-10.154c-1.403-0.549-2.94-0.685-4.435-0.61c-2.975,0.171-5.875,1.138-8.482,2.556
			c-23.178-4.832-46.45-11.637-68.427-20.45c-4.915-2.004-9.993-4.284-14.684-6.754c-1.663-0.858-3.371-1.895-5.012-2.787
			c-2.002-1.076-4.176-2.097-6.275-2.966c-8.519-3.518-17.655-5.642-26.728-7.161c-11.207-1.865-22.984-1.659-33.781,2.134
			c-1.8,0.624-3.606,1.375-5.335,2.172c-1.447,0.642-2.987,1.236-4.484,1.748c-6.52,2.213-13.434,3.379-20.274,4.051
			c-5.81,0.558-11.817,0.75-17.653,0.708c-6.477-0.106-13.234-0.383-19.704-0.104c-26.765,0.963-53.819,7.57-76.599,21.991
			c-6.518,4.104-12.771,8.864-18.488,14.026c-11.644,10.521-25.803,22.913-37.892,32.894c-1.631,1.348-3.419,2.934-4.94,4.409
			c-6.467,6.25-11.891,13.628-16.127,21.553c-2.01,3.705-3.787,7.763-5.357,11.674c-1.527,3.836-3.176,8.2-4.434,12.136
			c-1.651,5.185-3.093,10.535-3.692,15.955c-0.273,2.348-0.261,4.822-0.288,7.177c0.01,5.155,0.396,10.438,1.229,15.528
			c0.648,4.249,1.825,8.401,3.353,12.418c3.816,10.329,9.84,20.277,14.825,30.076c-2.023,2.754-4.243,5.458-6.612,7.914
			c-3.251,3.277-6.314,6.84-8.741,10.777c-1.367,2.218-2.545,4.579-3.395,7.045c-0.332,0.965-0.624,1.978-0.847,2.974
			c-0.237,1.052-0.402,2.233-0.648,3.287c-0.668,2.989-1.689,5.943-2.928,8.742c-1.159,2.617-2.553,5.2-4.055,7.635
			c-1.184,1.945-2.94,4.435-4.233,6.343c-2.385,3.584-4.927,7.536-7.008,11.293c-2.003,3.637-3.949,7.42-5.105,11.422
			c-0.572,2.014-0.959,4.116-0.872,6.216c0.031,0.675,0.102,1.359,0.274,2.014c0.252,0.99,0.679,1.937,1.183,2.823
			c1.377,2.386,3.303,4.428,5.305,6.302c0.649,0.743,20.436,16.967,21.828,18.143c0.661,0.544,1.395,1.114,2.091,1.614
			c2.271,1.637,4.736,3.041,7.294,4.177c3.703,1.646,7.649,2.756,11.643,3.417c4.025,0.684,8.285,0.838,12.363,0.931
			c2.758,0.028,5.653,0.005,8.396-0.291c1.57-0.175,3.17-0.416,4.677-0.902c0.653-0.216,1.304-0.478,1.887-0.846
			c0.606-0.364,1.099-0.893,1.486-1.41c2.78,1.404,5.864,2.148,8.925,2.634c2.298,0.356,4.684,0.559,7.006,0.659
			c1.42,0.162,36.313,0.053,38.628,0.082c1.438-0.043,28.202,0.131,28.857-0.136c1.398-0.156,2.808-0.446,4.088-1.045
			c1.218-0.563,2.308-1.477,2.905-2.695c0.537-1.059,0.68-2.272,0.644-3.446c-0.013-0.992-0.069-2.04-0.164-3.028
			c-0.3-3.127-1.01-6.227-2.029-9.196c-0.77-2.29-1.768-4.591-3.482-6.34c-1.211-1.254-2.794-2.137-4.51-2.461
			c-0.29-0.057-0.592-0.1-0.886-0.129c-3.781-0.347-8.501-0.511-12.324-0.655c-3.162-0.103-7.83-0.109-10.926-0.533
			c-1.387-0.191-2.788-0.455-4.102-0.951c-0.836-0.32-1.719-0.781-2.299-1.463c-0.325-0.378-0.512-0.78-0.603-1.23
			c-0.084-0.467-0.054-0.898-0.018-1.362c0.117-1.179,0.442-2.341,0.805-3.466c1.447-4.308,3.645-8.427,5.759-12.439
			c2.623-5.08,5.093-10.375,6.717-15.868c0.532-1.8,0.936-3.724,1.272-5.572c1.637-9.269,2.805-20.594,3.843-30.003
			c1.984,0.544,4.036,0.959,6.095,1.059c1.378,0.062,2.785-0.015,4.115-0.404c1.206-0.342,2.286-1.034,3.19-1.893
			c1.381-1.281,2.532-3.021,4.108-4.083c0.55-0.372,1.164-0.659,1.808-0.824c0.696-0.18,1.425-0.224,2.142-0.208
			c1.711,0.051,3.414,0.424,5.07,0.835c4.482,1.145,9.171,2.883,13.731,3.69c1.93,0.329,3.929,0.523,5.873,0.207
			c2.485-0.392,4.721-1.672,6.747-3.11c2.631-1.874,5.472-4.237,8.631-5.098c1.81-0.511,3.722-0.593,5.591-0.486
			c2.456,9.592,4.378,19.507,4.42,29.437c0.005,1.487-0.056,3.136-0.158,4.617c-0.11,1.382-0.242,2.915-0.286,4.299
			c-0.115,3.282,0.019,6.625,0.594,9.861c0.418,2.351,1.074,4.68,2.047,6.863c0.469,1.094,1.109,2.163,1.676,3.21
			c0.866,1.633,1.627,3.39,2.252,5.129c1.074,2.994,1.83,6.142,2.338,9.28c0.436,2.579,0.671,5.643,0.914,8.265
			c0.44,4.242,0.99,8.777,1.819,12.953c0.491,2.44,1.059,4.964,1.866,7.319c0.712,2.069,1.602,4.117,2.863,5.914
			c0.678,0.95,1.453,1.861,2.406,2.545c1.715,1.207,3.791,1.778,5.832,2.142c1.426,0.246,2.926,0.382,4.371,0.448
			c11.385,0.122,32.175,0.021,43.503,0.05c3.467-0.036,6.219-1.332,7.013-4.951c0.322-1.4,0.389-2.863,0.371-4.296
			c-0.038-2.304-0.337-4.65-0.709-6.923c-0.428-2.512-0.913-5.092-1.947-7.432c-0.983-2.281-2.538-4.437-4.792-5.589
			c-0.465-0.241-0.957-0.44-1.458-0.593c-4.046-1.088-8.644-2.265-12.606-3.617c-1.338-0.51-2.636-1.194-3.699-2.166
			c-0.854-0.776-1.527-1.757-1.91-2.847c-0.331-0.922-0.539-1.903-0.706-2.866c-0.293-1.735-0.454-3.591-0.565-5.348
			c-0.136-2.721-0.316-5.529,0.028-8.239c0.436-3.696,1.317-7.409,2.273-11.002c2.086-7.738,5.016-16.016,7.797-23.552
			c3.306,5.388,6.554,11.412,9.382,17.067c4.534,9.234,16.132,34.346,20.314,43.732c0.646,1.464,1.406,3.013,2.192,4.406
			c1.407,2.501,3.065,4.884,5,7.006c2.008,2.206,4.339,4.139,6.918,5.643c4.41,2.423,9.627,5.21,13.915,7.81
			c0.507,0.312,1.479,0.931,1.995,1.182c1.249,0.61,2.609,0.989,3.962,1.292c2.454,0.534,5.017,0.807,7.52,0.992
			c2.264,0.16,4.975,0.252,7.246,0.279c3.803,0.004,33.713,0.065,37.266-0.041c3.079-0.114,6.227-0.305,9.233-1.021
			c0.864-0.216,1.739-0.484,2.542-0.875c0.639-0.305,1.28-0.741,1.689-1.288c0.781-1.122,1.114-2.485,1.273-3.824
			c0.256-2.379-0.033-4.8-0.454-7.144c-0.679-3.595-1.99-8.676-5.397-10.626c-2.173-1.236-4.602-2.021-6.998-2.701
			c-4.78-1.291-9.869-2.208-14.762-2.971c-4.118-0.704-8.515-0.799-12.507-2.104c-1.569-0.511-3.11-1.195-4.422-2.209
			c-1.003-0.781-1.838-1.776-2.612-2.778c-1.328-1.737-2.486-3.698-3.545-5.611c-1.155-2.155-2.331-4.417-3.253-6.68
			c-0.987-2.418-1.768-4.96-2.257-7.526c-0.332-1.748-0.54-3.569-0.598-5.347c-0.025-7.686,0.205-18.444-0.059-26.12
			c-0.213-4.984-0.754-10.093-1.544-15.018c-0.472-3.079-1.229-6.264-1.522-9.366c-0.554-5.341-0.331-10.786,0.444-16.094
			c0.416-3.025,1.146-6.08,1.76-9.067c0.49-2.483,0.891-5.077,1.135-7.596c0.35-3.672,0.405-7.432-0.129-11.089
			c-0.229-1.663-0.696-3.358-1.044-4.998c-0.382-1.832-0.708-3.724-0.831-5.594c-0.079-1.406-0.088-2.86,0.332-4.217
			c0.415-1.259,1.263-2.251,2.24-3.096c1.46-1.238,3.2-2.12,4.957-2.856c3.297-1.446,7.059-1.171,10.457-0.235
			c1.057,0.279,2.156,0.667,3.179,1.058c1.228,0.461,2.642,1.148,3.871,1.627c1.851,0.746,3.773,1.427,5.71,1.911
			c1.482,0.364,3.014,0.631,4.544,0.587c0.262-0.009,0.547-0.03,0.807-0.063c0.271-0.036,0.534-0.079,0.796-0.076
			c0.681-0.007,1.363,0.112,2.023,0.268c2.623,0.662,5.102,1.89,7.499,3.122c2.916,1.521,5.98,3.384,8.771,5.132
			c5.332,3.402,11.947,7.404,17.449,10.428c1.466,0.795,3.126,1.669,4.653,2.336c1.26,0.514,2.622,0.833,3.988,0.763
			c1.091-0.052,2.168-0.367,3.123-0.897c1.037-0.571,1.936-1.374,2.706-2.269c0.953-1.122,1.752-2.394,2.479-3.671
			c1.534-2.74,2.617-5.736,3.306-8.796c3.212,2.204,6.786,3.894,10.461,5.169c3.751,1.291,7.675,2.172,11.627,2.539
			c4.443,0.388,9.069,0.209,13.266-1.422c2.832-1.102,5.397-2.894,7.4-5.179C619.22,391.009,621.057,386.706,621.414,382.276z"/>
	</g>
</g>
</svg>
