<?xml version="1.0" encoding="utf-8"?>
<!-- Generator: Adobe Illustrator 24.2.0, SVG Export Plug-In . SVG Version: 6.00 Build 0)  -->
<!DOCTYPE svg PUBLIC "-//W3C//DTD SVG 1.1//EN" "http://www.w3.org/Graphics/SVG/1.1/DTD/svg11.dtd" [
	<!ENTITY ns_extend "http://ns.adobe.com/Extensibility/1.0/">
	<!ENTITY ns_ai "http://ns.adobe.com/AdobeIllustrator/10.0/">
	<!ENTITY ns_graphs "http://ns.adobe.com/Graphs/1.0/">
	<!ENTITY ns_vars "http://ns.adobe.com/Variables/1.0/">
	<!ENTITY ns_imrep "http://ns.adobe.com/ImageReplacement/1.0/">
	<!ENTITY ns_sfw "http://ns.adobe.com/SaveForWeb/1.0/">
	<!ENTITY ns_custom "http://ns.adobe.com/GenericCustomNamespace/1.0/">
	<!ENTITY ns_adobe_xpath "http://ns.adobe.com/XPath/1.0/">
]>
<svg version="1.1" xmlns:x="&ns_extend;" xmlns:i="&ns_ai;" xmlns:graph="&ns_graphs;"
	 xmlns="http://www.w3.org/2000/svg" xmlns:xlink="http://www.w3.org/1999/xlink" x="0px" y="0px" width="750px" height="750px"
	 viewBox="0 0 750 750" enable-background="new 0 0 750 750" xml:space="preserve">
<metadata>
	<sfw  xmlns="&ns_sfw;">
		<slices></slices>
		<sliceSourceBounds  bottomLeftOrigin="true" height="8995.771" width="8021.451" x="-5958.451" y="-734.928"></sliceSourceBounds>
	</sfw>
</metadata>
<g id="FILL-BACKGROUND">
	<rect x="0" fill="#FFFFFF" width="750" height="750"/>
</g>
<g id="N-TEXT">
</g>
<g id="N-DIMENSIONS">
</g>
<g id="AG-GUIDES">
</g>
<g id="AG-DETAIL-DIAGRAM">
</g>
<g id="AG-DIAGRAM">
	<g id="POLYLINE_12_">
		<g>
			<g>
				
					<line fill="none" stroke="#FB8604" stroke-width="3.25" stroke-linecap="round" stroke-linejoin="round" x1="110.113" y1="567.65" x2="112.113" y2="567.65"/>
				
					<line fill="none" stroke="#FB8604" stroke-width="3.25" stroke-linecap="round" stroke-linejoin="round" stroke-dasharray="3.9908,6.9839" x1="119.097" y1="567.65" x2="642.395" y2="567.65"/>
				
					<line fill="none" stroke="#FB8604" stroke-width="3.25" stroke-linecap="round" stroke-linejoin="round" x1="645.887" y1="567.65" x2="647.887" y2="567.65"/>
			</g>
		</g>
	</g>
</g>
<g id="AG-DETAILS">
</g>
<g id="AG-PEOPLE">
</g>
<g id="AG-ANIMALS">
	<g id="POLYLINE_119_">
		
			<path fill="none" stroke="#FB8604" stroke-width="2.75" stroke-linecap="round" stroke-linejoin="round" stroke-miterlimit="10" d="
			M561.232,338.503c-1.453-1.057-3.108-1.787-4.868-2.134c-1.468-0.29-2.994-0.287-4.465-0.014c-3.573,0.667-7.54,2.848-8.707,6.458
			c-0.975,3.184,0.13,6.809,2.43,9.044c1.214,1.16,2.661,1.799,4.217,2.172c1.528,0.357,3.121,0.428,4.681,0.293
			c2.179-0.198,4.567-0.791,6.252-2.217c1.086-0.92,1.765-1.986,2.321-3.211c0.454-1.02,0.777-2.103,0.957-3.205
			c0.197-1.198,0.222-2.554-0.132-3.708C563.471,340.484,562.416,339.361,561.232,338.503z"/>
	</g>
	<g id="POLYLINE_118_">
		
			<path fill="none" stroke="#FB8604" stroke-width="2.75" stroke-linecap="round" stroke-linejoin="round" stroke-miterlimit="10" d="
			M534.772,319.076c-2.946,3.955-3.367,9.121-3.322,13.898c0.002,2.89,0.916,14.884,1.097,17.977
			c0.097,0.98,0.179,2.274,0.321,3.246c0.231,1.762,0.559,3.549,1.139,5.232c0.426,1.236,0.996,2.437,1.76,3.501
			c1.054,1.459,2.332,2.538,3.804,3.434c2.255,1.357,4.824,2.153,7.423,2.509c3.379,0.454,6.884,0.17,10.106-0.968
			c2.055-0.728,4.028-1.844,5.592-3.371c1.103-1.077,1.855-2.195,2.5-3.539c1.534-3.299,1.886-7.014,2.147-10.601
			c0.254-4.324,0.436-9.163,0.451-13.493c-0.012-3.478-0.104-7.092-0.606-10.535c-0.273-1.821-0.662-3.656-1.403-5.349
			c-0.564-1.304-1.353-2.511-2.297-3.572c-0.789-0.89-1.697-1.725-2.595-2.505c-1.441-1.244-3.075-2.309-4.898-2.894
			c-2.631-0.862-5.481-0.736-8.173-0.243c-2.848,0.54-5.63,1.542-8.131,3.013C537.817,315.929,536.083,317.33,534.772,319.076z"/>
	</g>
	<g id="POLYLINE_117_">
		
			<path fill="none" stroke="#FB8604" stroke-width="2.75" stroke-linecap="round" stroke-linejoin="round" stroke-miterlimit="10" d="
			M467.264,255.733c-1.517,2.41-3.271,4.758-5.089,6.947c-1.846,2.256-4.425,5.03-6.126,7.376c-1.25,1.71-2.302,3.598-2.857,5.652
			c-0.665,2.379-0.832,4.891-0.916,7.351c-0.115,4.067-0.051,9.151-0.935,13.103c-1.817,8.273-6.963,16.165-9.721,24.117
			c-0.773,2.181-1.406,4.449-1.801,6.731c-0.535,3.04-0.713,6.183-0.704,9.268c-0.028,4.797,0.812,13.168,1.173,18.008
			c0.371,4.597,0.347,10.769,0.392,15.405c0.13,5.412,0.513,11.084,3.108,15.948c1.317,2.461,3.166,4.627,5.273,6.448
			c2.156,1.854,4.614,3.387,7.254,4.448c1.913,0.76,3.95,1.29,6.015,1.346c3.869,0.145,7.63-1.655,11.476-1.745
			c2.73-0.089,5.343,0.933,7.807,2.002c2.626,1.163,6.447,3.065,9.163,3.826c1.607,0.463,3.302,0.743,4.973,0.54
			c2.03-0.238,3.938-1.082,5.746-1.997c2.918-1.497,5.911-3.311,9.1-4.157c2.147-0.601,4.408-0.713,6.62-0.487
			c8.034,0.802,16.351,4.958,24.196,6.643c1.667,0.331,3.404,0.517,5.086,0.187c1.889-0.338,3.733-1.36,5.453-2.159
			c1.324-0.613,2.719-1.117,4.157-1.381c2.54-0.457,5.183-0.372,7.751-0.274c5.019,0.203,11.113,0.935,16.069,0.299
			c1.778-0.241,3.626-0.696,5.1-1.738c1.837-1.297,2.883-3.135,3.85-5.065c1.181-2.407,2.274-5.05,3.943-7.167
			c3.214-4.055,8.203-6.585,12.018-9.994c1.045-0.949,2.04-2.003,2.709-3.257c1.405-2.609,0.853-5.849,0.723-8.681
			c-0.081-1.631-0.061-3.301,0.367-4.886c0.676-2.466,2.252-4.569,3.825-6.54c1.55-1.925,3.828-4.432,5.225-6.457
			c0.731-1.056,1.402-2.181,1.849-3.389c0.601-1.612,0.737-3.366,0.604-5.072c-0.173-2.518-0.989-5.175-1.31-7.673
			c-0.149-1.218-0.14-2.471-0.054-3.693c0.159-1.933,0.447-4.507,0.347-6.422c-0.102-2.738-0.542-5.496-1.477-8.078
			c-0.738-2.087-1.966-3.97-3.322-5.705l-2.862-3.623c-1.964-2.54-3.608-5.364-5.052-8.228c-1.942-3.871-3.633-8.001-5.04-12.096"/>
	</g>
	<g id="POLYLINE_116_">
		
			<path fill="none" stroke="#FB8604" stroke-width="2.75" stroke-linecap="round" stroke-linejoin="round" stroke-miterlimit="10" d="
			M233.593,473.232c5.341,1.964,11.947,4.298,17.337,5.925c9.457,2.86,19.624,5.374,29.281,7.462
			c15.54,3.299,31.622,5.861,47.489,6.734c7.513,0.405,15.323,0.412,22.824-0.19c11.058-0.88,22.124-2.912,32.803-5.903
			c6.666-1.884,13.336-4.137,19.677-6.931c3.699-1.606,7.525-3.745,11.035-5.742"/>
	</g>
	<g id="POLYLINE_115_">
		
			<path fill="none" stroke="#FB8604" stroke-width="2.75" stroke-linecap="round" stroke-linejoin="round" stroke-miterlimit="10" d="
			M240.609,475.765c5.237,11.683,10.588,24.436,14.947,36.466c3.272,9.087,6.308,18.95,8.928,28.241
			c1.311,4.689,2.679,10.107,3.691,14.853c0.298,1.322,0.675,2.66,1.155,3.928c0.829,2.18,1.998,4.297,3.746,5.874
			c1.578,1.444,3.634,2.296,5.76,2.473c13.036,0.103,36.313,0.077,49.382,0.007c1.382-0.063,2.811-0.186,4.173-0.43
			c2.625-0.471,5.727-1.465,6.965-3.991c0.84-1.932,1.252-3.992,1.371-6.084c0.118-2.073-0.148-4.171-0.559-6.2
			c-0.458-2.204-0.986-4.658-2.152-6.588c-0.761-1.129-1.772-1.802-2.852-2.5c-1.489-0.923-3.125-1.69-4.734-2.382
			c-2.866-1.23-5.728-2.632-8.322-4.371c-1.134-0.762-2.207-1.563-3.086-2.62c-1.383-1.622-2.419-3.526-3.299-5.458
			c-1.244-2.739-2.166-5.648-2.863-8.572c-2.049-8.625-3.402-18.12-4.651-26.904"/>
	</g>
	<g id="POLYLINE_114_">
		
			<path fill="none" stroke="#FB8604" stroke-width="2.75" stroke-linecap="round" stroke-linejoin="round" stroke-miterlimit="10" d="
			M463.655,242.863c-13.997,2.492-31.904,5.673-45.869,7.468c-8.281,1.075-16.902,1.957-25.238,1.874
			c-6.741-0.017-13.766-0.493-20.458-1.296c-6.297-0.818-12.94-1.838-19.266-2.419c-8.991-0.904-19.319-1.46-28.362-1.743
			c-3.497-0.109-8.725-0.213-12.108-0.142c-4.67,0.104-9.533,0.442-14.171,0.991c-13.109,1.544-26.065,4.798-38.494,9.211
			c-13.663,4.862-27.305,10.698-39.953,17.815c-7.898,4.46-15.628,9.478-22.512,15.399c-9.634,8.205-18.046,17.876-25.328,28.207
			c-10.998,15.582-19.557,32.959-26.206,50.81c-4.398,11.907-8.203,24.25-10.353,36.772c-1.525,8.966-2.259,18.204-1.379,27.276
			c2.324,23.204,2.05,47.008-0.193,70.205c-0.294,3.014-0.812,7.292-1.25,10.301c-1.045,6.893-2.113,13.957-1.788,20.947
			c0.089,1.497,0.259,3.044,0.601,4.508c0.432,1.915,1.112,3.784,1.953,5.557c2.092,4.472,5.43,8.304,8.636,12.008
			c1.641,1.845,3.415,3.734,5.211,5.431c0.571,0.497,1.457,1.407,2.068,1.823c0.087,0.064,0.174,0.127,0.174,0.127l0.178,0.125
			c0.296,0.194,0.629,0.421,0.94,0.593c1.523,0.872,3.201,1.47,4.899,1.895c3.023,0.751,6.184,0.996,9.292,1.04
			c11.883-0.008,35.315,0.038,47.067-0.015c0.73-0.043,1.419-0.274,1.982-0.599c0.093-0.057,0.124-0.076,0.124-0.076
			c0.091-0.06,0.121-0.081,0.121-0.081c0.089-0.063,0.118-0.085,0.118-0.085c0.087-0.067,0.116-0.089,0.116-0.089
			c0.999-0.795,1.544-2.005,1.862-3.129c0.346-1.252,0.472-2.567,0.505-3.862c0.019-3.105-0.17-6.268-0.947-9.285
			c-0.363-1.31-0.854-2.666-1.642-3.78c-0.682-0.959-1.47-1.637-2.431-2.246c-3.103-1.918-6.846-2.415-10.397-2.901
			c-3.175-0.491-6.416-1.09-9.482-2.067c-1.138-0.366-2.283-0.801-3.3-1.438c-1.722-1.04-3.047-2.727-3.269-4.696
			c-0.151-1.124-0.084-2.285,0.016-3.411c0.184-2.041,0.631-4.148,1.073-6.15c1.14-5.045,2.79-10.018,5.18-14.614
			c1.112-2.11,2.324-4.218,3.773-6.116c2.272-2.886,5.072-5.386,7.873-7.748c6.499-5.442,14.008-10.359,21.02-15.134
			c7.983-5.54,15.934-11.502,23.069-18.109c1.795-1.652,3.735-3.659,5.507-5.334c2.622-2.457,5.388-4.911,8.312-6.999
			c1.726-1.225,3.545-2.389,5.471-3.271c0.649-0.286,1.313-0.583,2-0.763c0.696-0.183,1.422-0.269,2.14-0.286
			c2.808-0.043,5.559,0.778,8.167,1.749c3.398,1.296,6.71,3.02,9.863,4.827c2.037,1.168,4.17,2.539,6.218,3.687
			c2.125,1.193,4.382,2.337,6.631,3.268c2.373,0.976,4.857,1.788,7.406,2.14c1.757,0.237,3.573,0.247,5.301-0.184
			c0.643-0.16,1.28-0.387,1.878-0.674c0.666-0.339,1.284-0.702,1.991-0.977c1.243-0.506,2.567-0.815,3.903-0.931
			c3.78-0.323,7.532,0.806,10.933,2.377c1.968,0.886,3.801,2.08,5.743,3.017c2.636,1.268,5.482,2.293,8.433,2.378
			c2,0.061,4.037-0.413,5.728-1.503c0.617-0.382,1.169-0.867,1.712-1.345c0.524-0.443,1.099-0.877,1.669-1.259
			c3.25-2.186,7.121-3.29,10.988-3.699c1.879-0.222,3.82-0.195,5.709-0.231c1.284-0.045,2.594-0.171,3.861-0.391
			c3.619-0.612,7.144-2.127,9.824-4.673c1.202-1.093,2.059-2.415,3.211-3.542c1.038-1.025,2.284-1.988,3.657-2.309
			c1.141-0.283,2.251,0.011,3.14,0.616c1.029,0.686,1.633,1.594,2.375,2.505c3.12,4.117,5.712,8.833,8.206,13.353
			c1.294,2.432,2.819,5.431,4.385,7.683c1.893,2.778,4.158,5.346,6.841,7.386c1.681,1.28,3.544,2.355,5.507,3.141
			c0.738,0.297,1.546,0.569,2.312,0.786c2.303,0.627,5.418,1.385,7.749,1.912c2.476,0.549,5.105,1.063,7.623,1.381
			c0.527,0.066,1.164,0.128,1.681,0.177c0.09,0.012,0.181,0.025,0.181,0.025c0.091,0.015,0.183,0.031,0.183,0.031
			c0.092,0.018,0.186,0.037,0.186,0.037c0.156,0.039,0.185,0.04,0.282,0.068c0,0,0.095,0.026,0.095,0.026s0.096,0.027,0.096,0.027
			s0.096,0.029,0.096,0.029s0.097,0.031,0.097,0.031c0.841,0.272,1.633,0.682,2.384,1.144c2.555,1.606,4.721,3.786,6.759,5.993
			c3.294,3.648,6.328,7.649,9.097,11.707c3.854,5.686,7.218,11.765,9.949,18.068c1.227,2.774,2.263,5.745,3.389,8.56
			c0.994,2.445,2.167,4.953,3.396,7.289c2.143,4.068,4.681,8.006,7.505,11.636c2.528,3.255,5.418,6.371,8.364,9.249
			c2.161,2.084,4.461,4.146,6.99,5.778c0.554,0.355,1.175,0.712,1.769,1.003c0,0,0.209,0.1,0.209,0.1s0.103,0.048,0.103,0.048
			s0.103,0.046,0.103,0.046s0.102,0.045,0.102,0.045s0.101,0.043,0.101,0.043s0.1,0.042,0.1,0.042s0.1,0.041,0.1,0.041
			s0.099,0.039,0.099,0.039s0.098,0.038,0.098,0.038c0.725,0.279,1.523,0.469,2.229,0.481c12.628-0.022,37.088,0.054,49.813-0.033
			c1.795-0.056,3.667-0.181,5.446-0.424c1.952-0.275,3.92-0.678,5.737-1.46c1.023-0.443,1.993-1.035,2.713-1.782
			c0.983-1.052,1.611-2.22,2.13-3.528c1.428-3.781,1.593-7.92,1.554-11.921c-0.042-2.107-0.168-4.256-0.589-6.325
			c-0.277-1.316-0.702-2.75-1.513-3.817c-0.074-0.093-0.111-0.138-0.111-0.138c-0.076-0.088-0.114-0.131-0.114-0.131
			c-1.035-1.088-2.283-1.713-3.627-2.293c-2.212-0.915-4.586-1.491-6.929-1.963c-4.773-0.936-9.698-1.649-14.558-1.854
			c-1.69-0.077-3.433-0.207-5.092-0.546c-0.967-0.203-2.082-0.511-2.87-1.07c-0.094-0.07-0.124-0.093-0.124-0.093
			c-0.086-0.072-0.114-0.096-0.114-0.096c-0.079-0.074-0.106-0.1-0.106-0.1c-0.079-0.081-0.105-0.109-0.105-0.109
			c-0.809-0.932-1.258-1.944-1.747-3.033c-0.733-1.703-1.349-3.565-1.898-5.338c-1.226-3.982-2.76-7.936-4.828-11.56
			c-1.348-2.227-2.078-4.778-2.605-7.31c-0.972-4.604-1.145-10.305-1.492-15.027c-0.5-6.656-1.392-15.43-2.118-22.069
			c-0.141-1.537-0.241-3.176-0.246-4.717c-0.033-4.815,0.671-9.703,2.561-14.156c0.586-1.382,1.297-2.744,2.104-4.011
			c1.225-1.888,3.118-4.285,4.399-6.146c1.941-2.739,4.071-5.881,5.816-8.743c1.05-1.707,2.032-3.594,3.132-5.27
			c1.372-2.1,2.918-4.137,4.825-5.782c0.82-0.632,1.441-1.381,1.993-2.208c0.679-1.013,1.266-2.116,1.799-3.212
			c1.826-3.82,3.244-7.964,4.547-11.988"/>
	</g>
	<g id="POLYLINE_113_">
		
			<path fill="none" stroke="#FB8604" stroke-width="2.75" stroke-linecap="round" stroke-linejoin="round" stroke-miterlimit="10" d="
			M495.542,239.793c9.914-3.065,20.335-4.814,30.731-4.414c6.132,0.225,12.287,1.203,18.244,2.655
			c6.215,1.525,12.36,3.591,18.231,6.137c4.429,1.885,9.517,4.731,13.947,6.62c2.39,1.001,4.902,1.844,7.495,2.072
			c2.539,0.231,5.104-0.213,7.519-0.989c4.658-1.471,9.293-4.388,13.533-6.792c2.873-1.57,6.015-3.202,9.383-2.977
			c1.898,0.124,3.799,0.991,5.28,2.125c2.623,2.011,4.369,4.888,5.155,8.062c1.02,4.324,0.315,8.916-1.262,13.02
			c-1.283,3.267-3.2,6.346-5.824,8.703c-1.892,1.693-4.144,2.954-6.476,3.935c-2.172,0.932-5.06,1.789-7.334,2.501
			c-1.283,0.408-2.648,0.851-3.866,1.422c-1.015,0.467-2.094,1.141-2.854,1.935c-0.852,0.884-1.354,1.813-1.736,2.936
			c-0.353,1.067-0.533,2.196-0.651,3.31c-0.417,3.788-0.041,9.614-0.004,13.462c0.099,4.516-0.177,9.106-1.059,13.541
			c-0.685,3.552-1.735,7.123-2.916,10.542c-1.215,3.474-2.625,7.122-4.144,10.474c-3.296,7.206-7.501,14.288-13.721,19.345
			c-2.659,2.153-5.709,3.826-8.873,5.11"/>
	</g>
	<g id="POLYLINE_111_">
		
			<path fill="none" stroke="#FB8604" stroke-width="2.75" stroke-linecap="round" stroke-linejoin="round" stroke-miterlimit="10" d="
			M541.587,367.4c-4.884,0.548-9.929,1.111-14.819,0.415c-6.062-0.851-11.817-3.336-16.97-6.584
			c-6.349-4.049-11.946-9.651-14.92-16.655c-2.084-4.836-3.067-10.101-3.402-15.337c-0.442-7.083,0.268-14.258,1.534-21.228
			l2.099-10.721c0.289-1.635,0.581-3.383,0.669-5.037c0.051-0.976,0.037-2.066-0.204-3.004c-0.364-1.518-1.341-2.612-2.177-3.851
			l-3.5-4.707c-2.419-3.182-5.066-6.305-8.024-8.996c-3.096-2.86-7.141-6.173-9.88-9.347c-1.894-2.144-3.582-4.503-4.952-7.015
			c-2.252-4.161-3.858-8.937-3.28-13.717c0.476-4.055,2.903-7.653,6.004-10.213c1.434-1.179,3.043-2.172,4.774-2.848
			c1.295-0.503,2.674-0.835,4.068-0.851c3.3-0.063,6.134,1.983,8.455,4.13c2.701,2.543,5.51,5.704,8.48,7.959"/>
	</g>
	<g id="POLYLINE_87_">
		
			<path fill="none" stroke="#FB8604" stroke-width="2.75" stroke-linecap="round" stroke-linejoin="round" stroke-miterlimit="10" d="
			M568.84,399.168c-2.618,10.84-5.683,22.178-9.459,32.651c-0.674,1.911-1.671,4.42-2.426,6.291c-0.932,2.168-1.92,4.524-2.666,6.75
			c-1.706,5.038-2.79,10.343-3.309,15.634c-0.368,3.752-0.466,7.633-0.333,11.401c0.242,5.508,0.921,14.55,1.315,20.061
			c0.405,4.529,0.956,11.984,1.507,16.466c0.261,1.969,0.624,3.996,1.138,5.913c1.096,4.12,3.003,8.352,6.423,11.032
			c2.976,2.325,6.579,3.716,10.172,4.775c2.565,0.742,5.256,1.311,7.888,1.753c1.967,0.329,4.292,0.625,6.266,0.962
			c3.318,0.566,6.733,1.285,9.954,2.254c2.541,0.769,5.082,1.71,7.422,2.972c2.299,1.205,4.37,2.938,5.748,5.133
			c1.954,3.036,2.555,6.729,2.508,10.287c-0.011,1.965-0.14,3.969-0.58,5.889c-0.394,1.75-1.144,3.614-2.416,4.86
			c-0.751,0.737-1.559,1.187-2.476,1.625c-1.978,0.896-4.152,1.305-6.3,1.542c-2.046,0.466-41.525,0.138-44.504,0.23"/>
	</g>
</g>
<g id="AG-OUTLINE">
	<g id="POLYLINE_25_">
		
			<path fill="none" stroke="#FB8604" stroke-width="3.5" stroke-linecap="round" stroke-linejoin="round" stroke-miterlimit="10" d="
			M554.711,567.65c3.164-0.092,42.287,0.241,44.504-0.229c2.148-0.238,4.322-0.646,6.3-1.542c0.875-0.391,1.812-0.971,2.476-1.625
			c1.351-1.356,1.987-3.068,2.416-4.86c0.44-1.92,0.57-3.923,0.58-5.889c0.046-3.558-0.554-7.251-2.508-10.287
			c-1.458-2.313-3.588-4.028-5.987-5.261c-2.271-1.196-4.729-2.102-7.183-2.844c-3.22-0.969-6.637-1.688-9.954-2.254
			c-2.285-0.389-4.854-0.701-7.13-1.111c-2.337-0.416-4.743-0.944-7.024-1.604c-3.593-1.06-7.196-2.451-10.172-4.775
			c-3.462-2.735-5.302-6.877-6.423-11.032c-0.654-2.453-1.066-5.031-1.328-7.555c-0.372-3.67-1.03-11.133-1.316-14.825
			c-0.38-5.499-1.078-14.553-1.315-20.061c-0.132-3.765-0.036-7.65,0.333-11.401c0.519-5.289,1.602-10.597,3.309-15.634
			c0.727-2.234,1.757-4.585,2.666-6.751c0.764-1.84,1.742-4.416,2.426-6.291c3.775-10.466,6.84-21.83,9.459-32.651
			c3.432,0.182,7.148,0.453,10.557,0.075c2.25-0.242,4.678-0.836,6.366-2.386c1.675-1.504,2.6-3.423,3.553-5.391
			c1.025-2.162,2.086-4.497,3.588-6.367c3.083-3.821,7.785-6.328,11.478-9.486c1.187-1.028,2.333-2.163,3.103-3.545
			c1.478-2.627,0.916-5.92,0.783-8.792c-0.081-1.631-0.061-3.301,0.367-4.886c0.676-2.466,2.252-4.569,3.825-6.54
			c1.55-1.925,3.828-4.432,5.225-6.457c0.731-1.056,1.402-2.181,1.849-3.389c0.601-1.612,0.737-3.366,0.604-5.072
			c-0.173-2.518-0.989-5.175-1.31-7.673c-0.149-1.218-0.14-2.471-0.054-3.693c0.159-1.933,0.447-4.507,0.347-6.422
			c-0.102-2.738-0.542-5.496-1.477-8.078c-0.738-2.087-1.966-3.97-3.322-5.705l-2.862-3.623c-1.964-2.54-3.608-5.364-5.052-8.228
			c-1.942-3.871-3.633-8.001-5.04-12.096c2.71-1.041,6.015-1.869,8.728-2.906c2.786-1.046,5.51-2.41,7.757-4.386
			c6.363-5.565,10.023-17.329,5.989-25.109c-1.787-3.499-5.113-6.521-9.118-6.899c-3.402-0.269-6.585,1.384-9.485,2.969
			c-4.264,2.407-8.866,5.317-13.533,6.792c-2.415,0.776-4.98,1.219-7.519,0.989c-2.594-0.229-5.106-1.071-7.495-2.073
			c-4.431-1.89-9.518-4.735-13.947-6.62c-5.87-2.546-12.016-4.612-18.231-6.137c-5.957-1.452-12.112-2.43-18.244-2.655
			c-10.395-0.399-20.817,1.349-30.731,4.414c-2.777-2.107-5.588-5.178-8.101-7.606c-1.434-1.346-2.973-2.646-4.75-3.515
			c-1.265-0.622-2.67-0.99-4.084-0.968c-1.543,0.019-3.065,0.421-4.48,1.019c-1.968,0.838-3.77,2.069-5.326,3.531
			c-1.74,1.647-3.204,3.623-4.12,5.845c-0.623,1.508-0.954,3.135-1.025,4.764c-13.997,2.492-31.904,5.673-45.869,7.468
			c-8.281,1.075-16.902,1.957-25.238,1.874c-6.741-0.017-13.766-0.493-20.458-1.296c-6.297-0.818-12.94-1.838-19.266-2.419
			c-8.991-0.904-19.319-1.46-28.362-1.743c-3.497-0.109-8.725-0.213-12.108-0.142c-4.67,0.104-9.533,0.442-14.171,0.991
			c-13.109,1.544-26.065,4.798-38.494,9.211c-13.663,4.862-27.305,10.698-39.953,17.815c-7.898,4.46-15.628,9.478-22.512,15.399
			c-9.634,8.205-18.046,17.876-25.328,28.207c-10.998,15.582-19.557,32.959-26.206,50.81c-4.398,11.907-8.203,24.25-10.353,36.772
			c-1.525,8.966-2.259,18.204-1.379,27.276c2.324,23.204,2.05,47.008-0.193,70.205c-0.294,3.014-0.812,7.292-1.25,10.301
			c-1.045,6.893-2.113,13.957-1.788,20.947c0.089,1.497,0.259,3.044,0.601,4.508c0.432,1.915,1.112,3.784,1.953,5.557
			c2.092,4.472,5.43,8.304,8.636,12.008c1.641,1.845,3.415,3.734,5.211,5.431c0.571,0.497,1.457,1.407,2.068,1.823
			c0.087,0.064,0.174,0.127,0.174,0.127s0.178,0.125,0.178,0.125c0.296,0.194,0.629,0.421,0.94,0.593
			c1.523,0.872,3.201,1.47,4.899,1.895c3.023,0.751,6.184,0.996,9.292,1.04c11.883-0.008,35.315,0.038,47.067-0.015
			c0.73-0.043,1.419-0.274,1.982-0.599c0.093-0.057,0.124-0.076,0.124-0.076c0.091-0.06,0.121-0.081,0.121-0.081
			c0.089-0.063,0.118-0.085,0.118-0.085c0.087-0.067,0.116-0.089,0.116-0.089c1.146-0.927,1.671-2.293,1.986-3.617
			c0.454-1.996,0.421-4.079,0.333-6.113c-0.093-1.93-0.287-3.894-0.711-5.781c-0.287-1.261-0.68-2.515-1.289-3.66
			c-1.363-2.657-4.151-4.011-6.884-4.82c-2.053-0.62-4.358-0.914-6.484-1.212c-2.969-0.455-5.995-1.018-8.875-1.878
			c-1.683-0.504-3.41-1.137-4.789-2.249c-1.163-0.933-1.95-2.093-2.279-3.467c-0.287-1.328-0.208-2.678-0.092-4.018
			c0.198-2.047,0.62-4.144,1.073-6.15c0.586-2.541,1.287-5.142,2.161-7.599c1.16-3.294,2.629-6.514,4.404-9.522
			c0.623-1.04,1.299-2.138,2.015-3.117c0.585-0.793,1.243-1.574,1.905-2.303c2.905-3.169,6.309-5.979,9.69-8.628
			c8.695-6.749,18.484-12.634,27.224-19.335l7.016,2.533c5.237,11.683,10.588,24.436,14.947,36.466
			c3.272,9.087,6.308,18.95,8.928,28.241c1.311,4.689,2.679,10.107,3.691,14.853c0.298,1.322,0.675,2.66,1.155,3.928
			c0.829,2.18,1.998,4.297,3.746,5.874c1.578,1.444,3.634,2.296,5.76,2.473c13.036,0.103,36.313,0.077,49.382,0.007
			c1.382-0.063,2.811-0.186,4.173-0.43c2.625-0.471,5.727-1.465,6.965-3.991c0.84-1.932,1.252-3.992,1.371-6.084
			c0.118-2.073-0.148-4.171-0.559-6.2c-0.458-2.204-0.986-4.658-2.152-6.588c-0.761-1.129-1.772-1.802-2.852-2.5
			c-1.489-0.923-3.125-1.69-4.734-2.382c-2.866-1.23-5.728-2.632-8.322-4.371c-1.134-0.762-2.207-1.563-3.086-2.62
			c-1.383-1.622-2.419-3.526-3.299-5.458c-1.244-2.739-2.166-5.648-2.863-8.572c-2.049-8.625-3.402-18.12-4.651-26.904
			c11.777,1.526,23.869,2.453,35.741,2.034c10.908-0.4,21.879-1.979,32.496-4.499c9.041-2.174,18.036-4.977,26.558-8.714
			c3.69-1.606,7.531-3.744,11.035-5.742c2.484,2.871,5.522,5.317,9.008,6.857c2.548,1.159,5.815,1.791,8.527,2.493
			c2.962,0.705,6.116,1.376,9.12,1.806c0.609,0.072,1.351,0.185,1.954,0.233c0.552,0.034,1.09,0.123,1.563,0.266
			c1.728,0.524,3.249,1.573,4.649,2.686c2.588,2.101,4.866,4.627,7.002,7.177c5.69,6.881,10.647,14.436,14.581,22.454
			c1.339,2.728,2.606,5.612,3.708,8.444c0.945,2.502,1.914,5.125,3.029,7.558c2.308,5.118,5.174,10.045,8.51,14.562
			c2.659,3.625,5.752,7.054,8.942,10.22c2.285,2.242,4.697,4.46,7.373,6.231c1.563,1.005,3.376,2.013,5.246,2.076
			C518.667,567.651,543.163,567.65,554.711,567.65z"/>
	</g>
</g>
</svg>
