<?xml version="1.0" encoding="utf-8"?>
<!-- Generator: Adobe Illustrator 24.2.0, SVG Export Plug-In . SVG Version: 6.00 Build 0)  -->
<!DOCTYPE svg PUBLIC "-//W3C//DTD SVG 1.1//EN" "http://www.w3.org/Graphics/SVG/1.1/DTD/svg11.dtd" [
	<!ENTITY ns_extend "http://ns.adobe.com/Extensibility/1.0/">
	<!ENTITY ns_ai "http://ns.adobe.com/AdobeIllustrator/10.0/">
	<!ENTITY ns_graphs "http://ns.adobe.com/Graphs/1.0/">
	<!ENTITY ns_vars "http://ns.adobe.com/Variables/1.0/">
	<!ENTITY ns_imrep "http://ns.adobe.com/ImageReplacement/1.0/">
	<!ENTITY ns_sfw "http://ns.adobe.com/SaveForWeb/1.0/">
	<!ENTITY ns_custom "http://ns.adobe.com/GenericCustomNamespace/1.0/">
	<!ENTITY ns_adobe_xpath "http://ns.adobe.com/XPath/1.0/">
]>
<svg version="1.1" xmlns:x="&ns_extend;" xmlns:i="&ns_ai;" xmlns:graph="&ns_graphs;"
	 xmlns="http://www.w3.org/2000/svg" xmlns:xlink="http://www.w3.org/1999/xlink" x="0px" y="0px" width="750px" height="750px"
	 viewBox="0 0 750 750" enable-background="new 0 0 750 750" xml:space="preserve">
<metadata>
	<sfw  xmlns="&ns_sfw;">
		<slices></slices>
		<sliceSourceBounds  bottomLeftOrigin="true" height="8995.771" width="8021.451" x="-5958.451" y="-734.928"></sliceSourceBounds>
	</sfw>
</metadata>
<g id="FILL-BACKGROUND">
	<rect x="0" fill="#FFFFFF" width="750" height="750"/>
</g>
<g id="N-TEXT">
</g>
<g id="N-DIMENSIONS">
</g>
<g id="AG-GUIDES">
</g>
<g id="AG-DETAIL-DIAGRAM">
</g>
<g id="AG-DIAGRAM">
	<g id="POLYLINE_8_">
		<g>
			<g>
				
					<line fill="none" stroke="#FB8604" stroke-width="3.25" stroke-linecap="round" stroke-linejoin="round" x1="115.5" y1="549.649" x2="117.5" y2="549.649"/>
				
					<line fill="none" stroke="#FB8604" stroke-width="3.25" stroke-linecap="round" stroke-linejoin="round" stroke-dasharray="4.0268,7.047" x1="124.547" y1="549.649" x2="563.977" y2="549.649"/>
				
					<line fill="none" stroke="#FB8604" stroke-width="3.25" stroke-linecap="round" stroke-linejoin="round" x1="567.5" y1="549.649" x2="569.5" y2="549.649"/>
			</g>
		</g>
	</g>
</g>
<g id="AG-DETAILS">
</g>
<g id="AG-PEOPLE">
</g>
<g id="AG-ANIMALS">
	<g id="POLYLINE_85_">
		
			<path fill="none" stroke="#FB8604" stroke-width="2.75" stroke-linecap="round" stroke-linejoin="round" stroke-miterlimit="10" d="
			M387.29,368.742c-4.348,14.137-7.234,29.19-5.159,43.983c0.458,3.413,1.44,6.834,2.047,10.224
			c1.066,5.753,1.626,11.685,1.413,17.537c-0.143,3.894-0.635,7.815-1.533,11.606c-0.397,1.671-0.913,3.36-1.262,5.042
			c-0.63,2.887-1.045,5.939-1.292,8.885c-0.766,9.521,0.058,19.182,1.507,28.603c1.133,7.097,2.563,15.321,4.118,22.319
			c1.365,6.149,2.966,12.506,4.963,18.48c1.151,3.315,2.563,6.617,4.69,9.432c1.45,1.907,3.331,3.595,5.641,4.349
			c0.911,0.3,1.875,0.449,2.834,0.448c6.103-0.041,28.945,0.125,34.631-0.152c2.497-0.125,5.198-0.273,7.672-0.618
			c1.889-0.277,3.843-0.58,5.595-1.37c1.586-0.764,2.791-2.131,3.53-3.688c0.842-1.766,1.175-3.733,1.287-5.673
			c0.102-2.1,0.087-4.243-0.342-6.308c-0.203-0.96-0.524-1.945-1.026-2.788c-0.467-0.763-1.042-1.363-1.688-1.957
			c-1.454-1.315-3.25-2.208-5.111-2.794c-3.081-0.991-6.386-1.641-9.575-2.193c-1.93-0.331-3.87-0.794-5.678-1.559
			c-1.199-0.512-2.359-1.171-3.306-2.077c-0.042-0.041-0.062-0.062-0.062-0.062c-0.041-0.044-0.062-0.066-0.062-0.066
			c-0.524-0.606-0.797-1.329-1.046-2.071c-0.416-1.294-0.646-2.685-0.836-4.031c-0.616-4.785-0.67-9.802-0.663-14.625
			c0.095-7.084,0.858-14.307,3.38-20.972c0.813-2.172,1.917-4.308,3.144-6.28c5.631-9.14,12.49-18.135,19.031-26.652
			c5.172-6.714,10.12-13.83,13.829-21.466c1.144-2.376,2.199-4.895,3.005-7.405c0.511-1.599,0.98-3.499,1.46-5.112
			c0.752-2.527,1.623-5.19,2.642-7.62c1.283-2.996,2.795-6.1,5.464-8.099c2.12-1.619,4.742-2.463,7.369-2.775
			c0.721-0.095,1.476-0.128,2.202-0.167c1.334-0.099,2.827-0.254,4.155-0.443c11.284-1.597,23.635-4.68,34.824-6.852
			c10.385-1.936,21.097-3.5,31.679-2.67c5.744,0.373,11.779,0.773,17.428,1.918c6.769,1.219,14.872,2.197,21.714,3.046"/>
	</g>
	<g id="POLYLINE_84_">
		
			<path fill="none" stroke="#FB8604" stroke-width="2.75" stroke-linecap="round" stroke-linejoin="round" stroke-miterlimit="10" d="
			M647.334,371.14c-0.911,2.021-2.784,3.483-4.839,4.221c-1.849,0.66-3.876,0.727-5.8,0.399c-2.453-0.437-5.175-1.626-6.156-4.081
			c-0.468-1.162-0.547-2.449-0.425-3.686c0.159-1.53,0.606-3.033,1.286-4.411c1.34-2.71,3.277-3.356,6.117-2.719
			c1.445,0.325,2.838,0.885,4.156,1.557c1.319,0.682,2.589,1.492,3.708,2.472C647.289,366.554,648.434,368.67,647.334,371.14z"/>
	</g>
	<g id="POLYLINE_83_">
		
			<path fill="none" stroke="#FB8604" stroke-width="2.75" stroke-linecap="round" stroke-linejoin="round" stroke-miterlimit="10" d="
			M640.971,375.77c-2.051,2.256-4.243,4.468-6.742,6.228c-2.78,1.982-5.935,3.413-9.183,4.439
			c-4.092,1.287-8.381,2.029-12.672,2.102c-3.526,0.047-7.113-0.37-10.436-1.593c-3.989-1.461-7.496-4.251-9.771-7.844
			c-1.744-2.774-2.851-6.324-1.682-9.523c0.845-2.244,2.623-3.972,4.394-5.519c3.396-2.916,7.602-5.662,10.137-9.416
			c2.49-3.675,3.184-8.372,4.153-12.62c0.208-0.864,0.441-1.766,0.774-2.591c0.255-0.635,0.619-1.315,1.119-1.759
			c1.129-1.014,2.748-0.766,4.016-0.26c1.296,0.515,2.466,1.317,3.539,2.199c1.799,1.488,3.408,3.281,4.94,5.039
			c1.408,1.645,4.227,5.015,5.671,6.554c1.579,1.703,3.409,3.506,5.108,5.097l5.972,5.479"/>
	</g>
	<g id="POLYLINE_82_">
		
			<path fill="none" stroke="#FB8604" stroke-width="2.75" stroke-linecap="round" stroke-linejoin="round" stroke-miterlimit="10" d="
			M566.971,308.788c-3.405-4.751-6.07-10.521-5.375-16.494c0.347-3.012,1.467-5.914,3.023-8.504
			c1.117-1.829,2.483-3.549,4.172-4.881c1.367-1.076,3.065-1.919,4.838-1.803c1.749,0.097,3.35,0.981,4.69,2.061
			c2.948,2.42,4.992,5.751,6.796,9.065c1.414,2.655,3.339,6.528,4.964,8.99c0.908,1.401,1.964,2.767,3.066,4.021
			c3.684,4.201,8.685,8.189,12.629,12.152c3.624,3.645,7.002,7.671,9.29,12.302c2.157,4.369,3.276,9.203,3.701,14.04"/>
	</g>
	<g id="POLYLINE_81_">
		
			<path fill="none" stroke="#FB8604" stroke-width="2.75" stroke-linecap="round" stroke-linejoin="round" stroke-miterlimit="10" d="
			M242.158,439.779c14.55,3.611,29.756,6.836,44.624,8.784c10.051,1.273,20.357,2.102,30.484,1.546
			c9.405-0.565,18.839-2.303,27.991-4.497c13.487-3.26,27.201-7.806,40.209-12.635"/>
	</g>
	<g id="POLYLINE_72_">
		
			<path fill="none" stroke="#FB8604" stroke-width="2.75" stroke-linecap="round" stroke-linejoin="round" stroke-miterlimit="10" d="
			M566.635,280.995c-9.848-1.713-44.431-7.532-53.371-8.859c-2.863-0.516-5.779-1.219-8.568-2.039
			c-4.429-1.306-8.8-3.015-12.958-5.021c-2.433-1.143-4.85-2.548-7.212-3.823c-4.358-2.287-9.026-4.094-13.822-5.209
			c-5.345-1.27-10.915-1.648-16.395-1.322c-7.03,0.339-14.187,1.22-21.079,2.647c-4.07,0.797-8.176,2.062-12.229,2.886
			c-7.842,1.579-16,2.14-23.995,2.202c-10.117,0.142-59.375-2.354-69.678-2.411c-4.109-0.026-8.539,0.068-12.641,0.306
			c-12.259,0.694-24.558,2.556-36.51,5.358c-17.979,4.303-35.996,10.224-51.483,20.547c-3.694,2.486-7.251,5.265-10.491,8.32
			c-1.77,1.62-3.831,3.902-5.465,5.701c-2.676,2.997-5.772,6.623-8.282,9.759c-6.252,7.793-12.219,16.252-17.559,24.695
			c-5.579,8.776-10.716,18.008-14.78,27.584c-3.049,7.127-5.632,14.574-7.6,22.073c-1.107,4.088-1.997,8.768-3.043,12.886
			c-1.354,5.456-3.107,11.499-4.829,16.851c-2.688,8.329-5.941,17.013-9.288,25.1c-3.924,9.289-8.524,19.658-12.043,29.112
			c-3.1,8.236-6.06,16.964-8.382,25.454c-1.423,5.301-2.819,10.915-3.444,16.376c-0.773,6.611-0.764,13.521,1.51,19.852
			c0.359,0.942,0.757,1.938,1.224,2.834c0.428,0.876,0.979,1.745,1.464,2.581c1.246,2.062,2.598,4.149,4.073,6.055
			c1.24,1.581,2.579,3.138,4.143,4.41c0.898,0.725,1.876,1.38,2.959,1.792c1.767,0.648,3.673,0.956,5.532,1.215
			c9.13,1.201,26.078,0.601,35.49,0.74c1.517,0.004,3.039-0.326,4.407-0.984c2.155-1.029,3.878-2.78,5.234-4.718
			c0.849-1.212,1.603-2.512,2.093-3.913c0.493-1.406,0.691-2.958,0.311-4.415c-0.03-0.132-0.074-0.26-0.113-0.389
			c-0.029-0.076-0.058-0.18-0.089-0.256c-0.044-0.129-0.102-0.253-0.155-0.378c0,0-0.114-0.249-0.114-0.249
			c-0.264-0.572-0.58-1.151-0.905-1.69c-0.827-1.363-1.849-2.62-2.987-3.734c-1.363-1.322-3.055-2.567-4.471-3.84
			c-4.041-3.484-8.344-7.841-12.362-11.362c-0.039-0.038-0.058-0.058-0.058-0.058c-0.037-0.04-0.055-0.06-0.055-0.06
			c-0.035-0.041-0.052-0.062-0.052-0.062c-0.033-0.042-0.049-0.064-0.049-0.064c-0.031-0.044-0.045-0.066-0.045-0.066
			c-0.029-0.045-0.042-0.068-0.042-0.068c-0.026-0.046-0.039-0.069-0.039-0.069c-0.024-0.047-0.036-0.071-0.036-0.071
			c-0.022-0.049-0.033-0.073-0.033-0.073c-0.02-0.05-0.03-0.075-0.03-0.075c-0.018-0.051-0.027-0.077-0.027-0.077
			c-0.016-0.052-0.023-0.079-0.023-0.079c-0.014-0.054-0.02-0.081-0.02-0.081c-0.012-0.055-0.017-0.083-0.017-0.083
			c-0.1-0.599,0.014-1.148,0.19-1.7c0.241-0.736,0.613-1.44,1.009-2.104c1.244-2.041,2.837-3.901,4.432-5.675
			c4.976-5.422,10.513-10.476,16.191-15.153c2.751-2.286,6.137-4.81,8.915-7.062c2.056-1.69,4.164-3.54,6.071-5.39
			c2.746-2.657,5.358-5.536,7.662-8.586c1.549-2.018,2.882-4.272,4.476-6.257c3.487-4.414,7.697-8.266,12.133-11.708
			c2.427-1.892,5.116-3.741,7.681-5.446c2.022-1.379,4.095-2.945,5.969-4.52c5.832-4.893,10.875-10.79,14.761-17.339
			c3.311-5.375,5.074-11.572,6.566-17.659c3.629-15.616,5.275-32.048,6.668-48.002"/>
	</g>
	<g id="POLYLINE_47_">
		
			<path fill="none" stroke="#FB8604" stroke-width="2.75" stroke-linecap="round" stroke-linejoin="round" stroke-miterlimit="10" d="
			M249.925,441.657c3.06,4.015,33.995,42.444,35.683,45.498c3.324,4.893,6.289,10.118,8.753,15.497
			c1.285,2.804,2.492,5.792,3.517,8.701c0.839,2.4,1.705,5.268,2.551,7.677c1.641,4.662,3.564,9.304,5.95,13.638
			c3.225,5.83,7.501,11.434,13.507,14.581c2.214,1.158,4.644,1.927,7.124,2.234c0.896,0.112,1.83,0.168,2.733,0.168
			c7.087-0.061,30.955,0.17,37.673-0.205c2.344-0.137,4.823-0.286,7.129-0.744c0.701-0.149,1.424-0.318,2.073-0.632
			c0.136-0.068,0.231-0.125,0.309-0.175c0.044-0.03,0.066-0.045,0.066-0.045c0.041-0.031,0.061-0.046,0.061-0.046
			c0.038-0.031,0.057-0.047,0.057-0.047c0.052-0.047,0.068-0.063,0.068-0.063c0.046-0.048,0.06-0.064,0.06-0.064
			c0.04-0.049,0.052-0.065,0.052-0.065c0.035-0.05,0.046-0.067,0.046-0.067c0.034-0.053,0.045-0.071,0.045-0.071
			c0.242-0.408,0.347-0.791,0.458-1.212c0.129-0.53,0.211-1.085,0.27-1.627c0.211-2.016,0.169-4.133,0.099-6.159
			c-0.215-4.185-0.38-8.535-1.938-12.476c-0.602-1.454-1.476-2.901-2.845-3.739c-0.802-0.453-1.814-0.85-2.663-1.219
			c-2.463-1.025-5.105-1.91-7.667-2.664c-1.938-0.554-3.805-1.613-5.063-3.206c-1.1-1.355-1.699-3.01-2.028-4.707
			c-0.978-4.787-1.42-9.947-1.848-14.816c-0.15-1.976-0.352-4.823-0.593-6.783c-1.822-14.276-5.374-29.106-8.645-43.126"/>
	</g>
	<g id="POLYLINE_46_">
		
			<path fill="none" stroke="#FB8604" stroke-width="2.75" stroke-linecap="round" stroke-linejoin="round" stroke-miterlimit="10" d="
			M432.815,474.589c10.168,7.596,20.907,14.874,32.57,19.968c2.668,1.147,5.476,2.204,8.261,3.017
			c1.393,0.412,2.981,0.779,4.386,1.166c2.384,0.657,4.876,1.463,7.178,2.365c6.024,2.384,13.282,6.287,15.884,12.554
			c1.841,4.591,0.8,10.042,0.399,14.823c-0.144,1.748-0.256,3.558-0.029,5.303c0.142,1.081,0.426,2.161,0.958,3.118
			c1.436,2.581,4.268,4.033,7.061,4.674c2.717,0.615,5.593,0.575,8.289-0.128c5.521-1.442,9.72-5.836,12.502-10.646
			c3.478-5.994,5.156-12.864,6.081-19.681c0.642-4.917,0.979-10.027,1.05-14.984c0.015-2.777-0.071-5.637-0.487-8.385
			c-0.283-1.835-0.707-3.678-1.474-5.375c-0.671-1.506-1.705-2.832-2.923-3.936c-1.277-1.199-3.705-2.876-5.124-3.944
			c-1.591-1.181-3.202-2.515-4.66-3.857c-2.99-2.751-5.831-5.799-8.45-8.905c-2.738-3.264-5.365-6.76-7.628-10.372
			c-2.847-4.58-5.377-9.656-5.516-15.15c-0.071-2.248,0.249-4.504,0.787-6.683c1.647-6.715,6.165-15.884,8.837-22.289
			c1.946-4.581,3.549-9.441,4.839-14.249l1.751-6.762"/>
	</g>
</g>
<g id="AG-OUTLINE">
	<g id="POLYLINE_29_">
		
			<path fill="none" stroke="#FB8604" stroke-width="3.5" stroke-linecap="round" stroke-linejoin="round" stroke-miterlimit="10" d="
			M647.334,371.14c1.112-2.498-0.078-4.621-1.972-6.263c-1.497-1.299-3.238-2.314-5.054-3.096l-5.972-5.479
			c-2.435-2.28-4.888-4.748-7.055-7.28c-2.526-2.911-5.583-6.82-8.514-9.285c-0.425-4.837-1.544-9.671-3.701-14.04
			c-2.288-4.632-5.666-8.657-9.29-12.302c-3.946-3.965-8.941-7.947-12.629-12.152c-1.223-1.39-2.374-2.909-3.359-4.478
			c-1.467-2.286-3.382-6.117-4.671-8.533c-1.836-3.37-3.92-6.767-6.954-9.19c-1.37-1.073-3.02-1.929-4.794-1.943
			c-1.166-0.018-2.304,0.372-3.306,0.951c-1.311,0.757-2.441,1.806-3.427,2.947c-9.848-1.713-44.431-7.532-53.371-8.859
			c-2.863-0.516-5.779-1.219-8.568-2.039c-4.429-1.306-8.8-3.015-12.958-5.021c-2.433-1.143-4.85-2.548-7.212-3.823
			c-4.358-2.287-9.026-4.094-13.822-5.209c-5.345-1.27-10.915-1.648-16.395-1.322c-7.03,0.339-14.187,1.22-21.079,2.647
			c-4.07,0.797-8.176,2.062-12.229,2.886c-7.842,1.579-16,2.14-23.995,2.202c-10.117,0.142-59.375-2.354-69.678-2.411
			c-4.109-0.026-8.539,0.068-12.641,0.306c-12.259,0.694-24.558,2.556-36.51,5.358c-17.979,4.303-35.996,10.224-51.483,20.547
			c-3.694,2.486-7.251,5.265-10.491,8.32c-1.77,1.62-3.831,3.902-5.465,5.701c-2.676,2.997-5.772,6.623-8.282,9.759
			c-6.252,7.793-12.219,16.252-17.559,24.695c-5.579,8.776-10.716,18.008-14.78,27.584c-3.049,7.127-5.632,14.574-7.6,22.073
			c-1.107,4.088-1.997,8.768-3.043,12.886c-1.354,5.456-3.107,11.499-4.829,16.851c-2.688,8.329-5.941,17.013-9.288,25.1
			c-3.924,9.289-8.524,19.658-12.043,29.112c-3.1,8.236-6.06,16.964-8.382,25.454c-1.423,5.301-2.819,10.915-3.444,16.376
			c-0.773,6.611-0.764,13.521,1.51,19.852c0.359,0.942,0.757,1.938,1.224,2.834c0.428,0.876,0.979,1.745,1.464,2.581
			c1.246,2.062,2.598,4.149,4.073,6.055c1.24,1.581,2.579,3.138,4.143,4.41c0.898,0.725,1.876,1.38,2.959,1.792
			c1.767,0.648,3.673,0.956,5.532,1.215c9.13,1.201,26.078,0.601,35.49,0.74c1.517,0.004,3.039-0.326,4.407-0.984
			c2.155-1.029,3.878-2.78,5.234-4.718c0.849-1.212,1.603-2.512,2.093-3.913c0.493-1.406,0.691-2.958,0.311-4.415
			c-0.03-0.132-0.074-0.26-0.113-0.389c-0.029-0.076-0.058-0.18-0.089-0.256c-0.044-0.129-0.102-0.253-0.155-0.378
			c0,0-0.114-0.249-0.114-0.249c-0.264-0.572-0.58-1.151-0.905-1.69c-0.827-1.363-1.849-2.62-2.987-3.734
			c-1.363-1.322-3.055-2.567-4.471-3.84c-4.041-3.484-8.344-7.841-12.362-11.362c-0.039-0.038-0.058-0.058-0.058-0.058
			c-0.037-0.04-0.055-0.06-0.055-0.06c-0.035-0.041-0.052-0.062-0.052-0.062c-0.033-0.042-0.049-0.064-0.049-0.064
			c-0.031-0.044-0.045-0.066-0.045-0.066c-0.029-0.045-0.042-0.068-0.042-0.068c-0.026-0.046-0.039-0.069-0.039-0.069
			c-0.024-0.047-0.036-0.071-0.036-0.071c-0.022-0.049-0.033-0.073-0.033-0.073c-0.02-0.05-0.03-0.075-0.03-0.075
			c-0.018-0.051-0.027-0.077-0.027-0.077c-0.016-0.052-0.023-0.079-0.023-0.079c-0.014-0.054-0.02-0.081-0.02-0.081
			c-0.012-0.055-0.017-0.083-0.017-0.083c-0.555-3.179,5.604-9.472,7.792-11.779c4.809-4.977,10.087-9.68,15.471-14.027
			c4.295-3.423,8.966-6.856,12.915-10.674c2.983-2.831,5.812-5.907,8.292-9.19c1.068-1.389,2.071-2.943,3.07-4.381
			c0.896-1.261,1.938-2.575,2.95-3.745c3.819-4.401,8.315-8.231,13.014-11.66c1.858-1.37,4.032-2.786,5.934-4.093
			c1.503-1.049,3.093-2.248,4.513-3.408l7.768,1.878c3.06,4.015,33.995,42.444,35.683,45.498c3.324,4.893,6.289,10.118,8.753,15.497
			c1.285,2.804,2.492,5.792,3.517,8.701c0.839,2.4,1.705,5.268,2.551,7.677c1.641,4.662,3.564,9.304,5.95,13.638
			c3.225,5.83,7.501,11.434,13.507,14.581c2.214,1.158,4.644,1.927,7.124,2.234c0.896,0.112,1.83,0.168,2.733,0.168
			c7.087-0.061,30.955,0.17,37.673-0.205c2.344-0.137,4.823-0.286,7.129-0.744c0.701-0.149,1.424-0.318,2.073-0.632
			c0.136-0.068,0.231-0.125,0.309-0.175c0.044-0.03,0.066-0.045,0.066-0.045c0.041-0.031,0.061-0.046,0.061-0.046
			c0.038-0.031,0.057-0.047,0.057-0.047c0.052-0.047,0.068-0.063,0.068-0.063c0.046-0.048,0.06-0.064,0.06-0.064
			c0.04-0.049,0.052-0.065,0.052-0.065c0.035-0.05,0.046-0.067,0.046-0.067c0.034-0.053,0.045-0.071,0.045-0.071
			c0.242-0.408,0.347-0.791,0.458-1.212c0.129-0.53,0.211-1.085,0.27-1.627c0.211-2.016,0.169-4.133,0.099-6.159
			c-0.215-4.185-0.38-8.535-1.938-12.476c-0.602-1.454-1.476-2.901-2.845-3.739c-0.802-0.453-1.814-0.85-2.663-1.219
			c-2.463-1.025-5.105-1.91-7.667-2.664c-1.938-0.554-3.805-1.613-5.063-3.206c-1.1-1.355-1.699-3.01-2.028-4.707
			c-0.978-4.787-1.42-9.947-1.848-14.816c-0.15-1.976-0.352-4.823-0.593-6.783c-1.822-14.276-5.374-29.106-8.645-43.126
			c13.6-3.267,27.434-7.848,40.547-12.716c0.379,5.594,0.15,11.269-0.907,16.782c-0.512,2.832-1.446,5.598-1.979,8.425
			c-1.068,5.408-1.421,11.014-1.36,16.52c0.078,10.501,1.931,21.346,3.785,31.674c1.504,8.006,3.274,16.365,5.565,24.171
			c0.87,2.874,1.781,5.967,3.012,8.704c0.893,2.013,1.952,3.988,3.304,5.733c0.925,1.189,2.003,2.279,3.265,3.109
			c0.994,0.655,2.111,1.139,3.28,1.374c0.467,0.095,0.953,0.153,1.429,0.173c1.379,0.04,28.387-0.005,29.114-0.001
			c4.024-0.05,8.274-0.162,12.274-0.599c1.97-0.232,3.99-0.508,5.881-1.125c0.448-0.153,0.901-0.327,1.318-0.552
			c0.413-0.217,0.848-0.536,1.193-0.827c1.156-0.983,1.903-2.221,2.428-3.612c0.828-2.237,0.97-4.662,0.958-7.028
			c-0.02-1.499-0.132-3.024-0.491-4.483c-0.264-1.086-0.722-2.228-1.434-3.082c-1.491-1.843-3.586-3.118-5.815-3.874
			c-3.23-1.092-6.696-1.768-10.053-2.353c-1.93-0.331-3.87-0.794-5.678-1.559c-1.199-0.512-2.359-1.171-3.306-2.077
			c-0.042-0.041-0.062-0.062-0.062-0.062c-0.041-0.044-0.062-0.066-0.062-0.066c-0.37-0.42-0.574-0.853-0.785-1.349
			c-0.263-0.646-0.455-1.339-0.614-2.018c-0.624-2.79-0.827-5.744-0.984-8.596c-0.427-10.67-0.342-21.866,4.076-31.79
			c10.168,7.596,20.907,14.874,32.57,19.968c2.668,1.147,5.476,2.204,8.261,3.017c1.393,0.412,2.981,0.779,4.386,1.166
			c2.384,0.657,4.876,1.463,7.178,2.365c6.024,2.384,13.282,6.287,15.884,12.554c1.841,4.591,0.8,10.042,0.399,14.823
			c-0.144,1.748-0.256,3.558-0.029,5.303c0.142,1.081,0.426,2.161,0.958,3.118c1.436,2.581,4.268,4.033,7.061,4.674
			c2.717,0.615,5.593,0.575,8.289-0.128c5.521-1.442,9.72-5.836,12.502-10.646c3.478-5.994,5.156-12.864,6.081-19.681
			c0.642-4.917,0.979-10.027,1.05-14.984c0.015-2.777-0.071-5.637-0.487-8.385c-0.283-1.835-0.707-3.678-1.474-5.375
			c-0.671-1.506-1.705-2.832-2.923-3.936c-1.277-1.199-3.705-2.876-5.124-3.944c-1.591-1.181-3.202-2.515-4.66-3.857
			c-2.99-2.751-5.831-5.799-8.45-8.905c-2.738-3.264-5.365-6.76-7.628-10.372c-2.847-4.58-5.377-9.656-5.516-15.15
			c-0.071-2.248,0.249-4.504,0.787-6.683c1.647-6.715,6.165-15.884,8.837-22.289c1.946-4.581,3.549-9.441,4.839-14.249l1.751-6.762
			c7.951-1.775,16.225-3.463,24.311-4.468c5.23-0.635,10.616-1.074,15.882-0.829c5.604,0.29,11.554,0.656,17.102,1.466
			c1.437,0.207,3.034,0.533,4.463,0.79c6.37,1.107,14.34,2.08,20.786,2.878c2.846,1.423,6.017,2.122,9.176,2.372
			c4.203,0.319,8.458-0.121,12.557-1.068c4.296-1.011,8.528-2.583,12.184-5.09c2.668-1.81,4.99-4.13,7.149-6.511
			C643.623,375.287,646.199,373.644,647.334,371.14z"/>
	</g>
</g>
</svg>
