<?xml version="1.0" encoding="utf-8"?>
<!-- Generator: Adobe Illustrator 24.2.0, SVG Export Plug-In . SVG Version: 6.00 Build 0)  -->
<!DOCTYPE svg PUBLIC "-//W3C//DTD SVG 1.1//EN" "http://www.w3.org/Graphics/SVG/1.1/DTD/svg11.dtd" [
	<!ENTITY ns_extend "http://ns.adobe.com/Extensibility/1.0/">
	<!ENTITY ns_ai "http://ns.adobe.com/AdobeIllustrator/10.0/">
	<!ENTITY ns_graphs "http://ns.adobe.com/Graphs/1.0/">
	<!ENTITY ns_vars "http://ns.adobe.com/Variables/1.0/">
	<!ENTITY ns_imrep "http://ns.adobe.com/ImageReplacement/1.0/">
	<!ENTITY ns_sfw "http://ns.adobe.com/SaveForWeb/1.0/">
	<!ENTITY ns_custom "http://ns.adobe.com/GenericCustomNamespace/1.0/">
	<!ENTITY ns_adobe_xpath "http://ns.adobe.com/XPath/1.0/">
]>
<svg version="1.1" xmlns:x="&ns_extend;" xmlns:i="&ns_ai;" xmlns:graph="&ns_graphs;"
	 xmlns="http://www.w3.org/2000/svg" xmlns:xlink="http://www.w3.org/1999/xlink" x="0px" y="0px" width="750px" height="750px"
	 viewBox="0 0 750 750" enable-background="new 0 0 750 750" xml:space="preserve">
<metadata>
	<sfw  xmlns="&ns_sfw;">
		<slices></slices>
		<sliceSourceBounds  bottomLeftOrigin="true" height="8995.771" width="8021.451" x="-5958.451" y="-734.928"></sliceSourceBounds>
	</sfw>
</metadata>
<g id="FILL-BACKGROUND">
	<rect x="0" fill="#FFFFFF" width="750" height="750"/>
</g>
<g id="N-TEXT">
</g>
<g id="N-DIMENSIONS">
</g>
<g id="AG-GUIDES">
</g>
<g id="AG-DETAIL-DIAGRAM">
</g>
<g id="AG-DIAGRAM">
	<g id="POLYLINE_35_">
		<g>
			<g>
				
					<line fill="none" stroke="#FB8604" stroke-width="3.25" stroke-linecap="round" stroke-linejoin="round" x1="93.774" y1="539.748" x2="95.774" y2="539.748"/>
				
					<line fill="none" stroke="#FB8604" stroke-width="3.25" stroke-linecap="round" stroke-linejoin="round" stroke-dasharray="3.966,6.9405" x1="102.715" y1="539.748" x2="622.755" y2="539.748"/>
				
					<line fill="none" stroke="#FB8604" stroke-width="3.25" stroke-linecap="round" stroke-linejoin="round" x1="626.226" y1="539.748" x2="628.226" y2="539.748"/>
			</g>
		</g>
	</g>
</g>
<g id="AG-DETAILS">
</g>
<g id="AG-PEOPLE">
</g>
<g id="AG-ANIMALS">
	<g id="POLYLINE_121_">
		
			<path fill="none" stroke="#FB8604" stroke-width="2.75" stroke-linecap="round" stroke-linejoin="round" stroke-miterlimit="10" d="
			M603.378,356.934c-2.032-0.829-4.172-1.865-5.519-3.655c-0.674-0.891-1.018-1.966-1.088-3.014c-0.14-2.15,0.669-4.565,2.559-5.653
			c1.082-0.594,2.236-0.689,3.399-0.666c1.426,0.043,2.864,0.321,4.256,0.623c1.864,0.448,4.134,0.916,5.948,1.504
			c0.866,0.288,1.832,0.684,2.53,1.256c0.075,0.063,0.112,0.095,0.112,0.095c0.072,0.065,0.107,0.098,0.107,0.098
			c0.068,0.067,0.102,0.101,0.102,0.101c0.065,0.069,0.096,0.104,0.096,0.104c0.061,0.071,0.091,0.107,0.091,0.107
			c0.057,0.073,0.085,0.11,0.085,0.11c0.053,0.075,0.079,0.113,0.079,0.113c0.045,0.07,0.065,0.102,0.065,0.102
			c0.038,0.065,0.056,0.097,0.056,0.097c0.035,0.066,0.052,0.099,0.052,0.099c0.033,0.067,0.048,0.101,0.048,0.101
			c0.03,0.069,0.044,0.103,0.044,0.103c0.027,0.07,0.041,0.105,0.041,0.105c0.025,0.071,0.037,0.107,0.037,0.107
			c0.022,0.072,0.033,0.109,0.033,0.109c0.02,0.073,0.029,0.11,0.029,0.11c0.227,0.992,0.053,1.882-0.289,2.789
			c-0.565,1.441-1.617,2.641-2.808,3.607c-1.459,1.161-3.197,2.105-5.048,2.423c-0.697,0.113-1.414,0.111-2.111,0.003
			C605.283,357.66,604.313,357.307,603.378,356.934z"/>
	</g>
	<g id="POLYLINE_120_">
		
			<path fill="none" stroke="#FB8604" stroke-width="2.75" stroke-linecap="round" stroke-linejoin="round" stroke-miterlimit="10" d="
			M607.404,357.893c-2.913,1.933-6.444,3.126-9.964,2.751c-2.856-0.286-5.529-1.538-7.877-3.141
			c-2.235-1.534-4.272-3.374-6.047-5.422c-1.536-1.794-2.914-3.78-3.768-5.995c-0.548-1.42-0.828-2.966-0.638-4.485
			c0.157-1.356,0.627-2.662,1.224-3.883c0.925-1.93,2.418-4.007,3.59-5.806c0.736-1.103,2.692-4.369,3.397-5.538
			c1.334-2.157,2.824-4.275,4.714-5.983c2.057-1.866,4.555-3.234,7.193-4.087c1.526-0.482,3.13-0.797,4.735-0.759
			c1.077,0.026,2.228,0.242,3.172,0.763c2.013,1.135,2.918,3.239,3.635,5.283c0.617,1.765,1.765,6.553,2.266,8.414
			c1.002,3.744,3.114,10.158,3.576,13.938c0.253,1.897,0.132,3.938,0.025,5.847"/>
	</g>
	<g id="POLYLINE_86_">
		
			<path fill="none" stroke="#FB8604" stroke-width="2.75" stroke-linecap="round" stroke-linejoin="round" stroke-miterlimit="10" d="
			M272.189,407.949c2.675,1.978,5.6,3.684,8.695,4.912c2.464,0.969,5.085,1.654,7.743,1.704c2.184,0.065,4.329-0.481,6.36-1.243
			l2.942-1.128c1.142-0.404,2.48-0.886,3.667-0.619c0.06,0.015,0.089,0.023,0.089,0.023c0.059,0.017,0.088,0.026,0.088,0.026
			c0.058,0.019,0.087,0.029,0.087,0.029c0.057,0.021,0.085,0.033,0.085,0.033c0.067,0.029,0.09,0.039,0.09,0.039
			c0.066,0.031,0.088,0.042,0.088,0.042c0.065,0.034,0.087,0.046,0.087,0.046c0.122,0.069,0.184,0.111,0.253,0.158
			c0.082,0.059,0.122,0.09,0.122,0.09c0.08,0.064,0.12,0.097,0.12,0.097c0.079,0.068,0.118,0.103,0.118,0.103
			c0.79,0.751,1.349,1.681,1.988,2.539c0.559,0.76,1.277,1.565,2.108,1.976c1.221,0.597,2.561,0.497,3.854,0.317
			c4.128-0.667,8.293-2.567,12.513-2.658c3.41-0.097,6.929,1.363,10.167,2.265c1.662,0.456,3.393,0.771,5.123,0.698
			c4.566-0.196,9.521-2.59,13.767-4.147c1.276-0.465,2.597-0.907,3.932-1.164c1.364-0.272,2.784-0.357,4.173-0.361
			c1.504,0.002,4.132,0.058,5.595-0.039c1.829-0.101,3.732-0.328,5.544-0.597c6.542-1.004,13.121-2.593,19.444-4.539"/>
	</g>
	<g id="POLYLINE_45_">
		
			<path fill="none" stroke="#FB8604" stroke-width="2.75" stroke-linecap="round" stroke-linejoin="round" stroke-miterlimit="10" d="
			M201.387,464.218c0.444,3.924,0.954,8.062,1.887,11.893c0.388,1.538,0.84,3.097,1.621,4.487c0.431,0.789,0.989,1.691,1.611,2.294
			c0.082,0.077,0.109,0.102,0.109,0.102c0.081,0.071,0.108,0.094,0.108,0.094c0.08,0.065,0.107,0.085,0.107,0.085
			c0.08,0.059,0.106,0.077,0.106,0.077c0.079,0.052,0.106,0.069,0.106,0.069c0.079,0.046,0.105,0.06,0.105,0.06
			c0.078,0.04,0.104,0.052,0.104,0.052c0.077,0.034,0.103,0.044,0.103,0.044c0.077,0.027,0.089,0.032,0.089,0.032
			c0.076,0.022,0.089,0.025,0.089,0.025c0.076,0.017,0.088,0.019,0.088,0.019c0.075,0.011,0.088,0.013,0.088,0.013
			c0.075,0.006,0.087,0.006,0.087,0.006c0.074,0,0.086,0,0.086,0c0.073-0.005,0.086-0.006,0.086-0.006
			c0.073-0.011,0.085-0.013,0.085-0.013c0.072-0.016,0.084-0.019,0.084-0.019c0.071-0.017,0.083-0.019,0.083-0.019
			c0.081-0.009,0.093-0.009,0.093-0.009c0.079,0.003,0.09,0.004,0.09,0.004c0.077,0.015,0.087,0.018,0.087,0.018
			c0.074,0.027,0.085,0.032,0.085,0.032c0.082,0.046,0.092,0.052,0.092,0.052c0.079,0.061,0.089,0.07,0.089,0.07
			c0.076,0.077,0.085,0.087,0.085,0.087c0.064,0.08,0.073,0.092,0.073,0.092c0.053,0.078,0.062,0.092,0.062,0.092
			c0.034,0.057,0.051,0.087,0.051,0.087c0.033,0.062,0.05,0.095,0.05,0.095c0.032,0.068,0.048,0.103,0.048,0.103
			c0.253,0.599,0.348,1.147,0.449,1.77c0.141,0.955,0.207,1.955,0.247,2.92c0.049,1.603,0.087,3.296,0.286,4.887
			c0.098,0.742,0.225,1.587,0.515,2.267c0.028,0.062,0.043,0.092,0.043,0.092c0.029,0.057,0.044,0.085,0.044,0.085
			c0.045,0.078,0.052,0.09,0.052,0.09c0.054,0.081,0.062,0.092,0.062,0.092c0.064,0.08,0.072,0.089,0.072,0.089
			c0.074,0.073,0.083,0.08,0.083,0.08c0.077,0.056,0.086,0.061,0.086,0.061c0.108,0.055,0.154,0.064,0.178,0.075
			c0.077,0.038,0.085,0.042,0.085,0.042c0.08,0.053,0.088,0.059,0.088,0.059c0.082,0.071,0.09,0.078,0.09,0.078
			c0.069,0.077,0.076,0.085,0.076,0.085c0.052,0.07,0.064,0.088,0.064,0.088c0.048,0.078,0.06,0.098,0.06,0.098
			c0.034,0.064,0.044,0.086,0.044,0.086c0.031,0.069,0.041,0.093,0.041,0.093c0.029,0.074,0.038,0.099,0.038,0.099
			c0.182,0.534,0.206,1.028,0.224,1.53c0.014,0.689-0.038,1.399-0.112,2.084c-0.271,2.402-0.889,4.79-1.592,7.099
			c-0.673,2.168-1.534,4.337-1.727,6.618c-0.102,1.127-0.04,2.403,0.474,3.409c0.692,1.353,1.852,2.409,3.152,3.006
			c0.307,0.14,0.471,0.207,0.755,0.307c0.302,0.107,0.712,0.21,0.982,0.336c1.798,0.808,2.853,2.503,3.649,4.197
			c0.41,0.884,0.713,1.845,1.133,2.725c0.492,1.054,1.082,2.075,1.788,3.001c0.918,1.222,2.063,2.273,3.341,3.109
			c1.346,0.916,2.775,1.792,4.221,2.541c1.186,0.604,2.421,1.192,3.706,1.549c1.837,0.521,3.762,0.723,5.668,0.759
			c9.263-0.007,25.837,0.046,35.138-0.022c1.096-0.039,2.306-0.104,3.397-0.223c1.892-0.203,3.804-0.535,5.605-1.163
			c1.298-0.443,2.542-1.103,3.526-2.07c0.889-0.858,1.567-1.926,2.033-3.068c0.395-0.947,0.632-1.963,0.82-2.969
			c0.241-1.307,0.401-2.654,0.342-3.984c-0.044-0.946-0.202-1.902-0.584-2.774c-0.697-1.54-2.036-2.43-3.481-3.096
			c-1.537-0.686-3.201-1.089-4.858-1.354c-2.586-0.403-5.261-0.469-7.875-0.397c-3.559,0.144-7.235,0.44-10.708-0.536
			c-2.129-0.579-3.867-2.057-5.123-3.834c-0.528-0.74-0.987-1.549-1.382-2.367c-0.307-0.645-0.606-1.328-0.778-2
			c-0.39-1.454-0.474-2.98-0.425-4.479c0.103-2.733,0.642-5.459,1.311-8.105c0.988-3.731,2.088-8.135,3.32-11.773
			c1.523-4.365,3.923-8.669,5.953-12.817c1.086-2.256,2.089-4.677,2.92-7.039c1.136-3.094,1.835-6.406,2.87-9.532
			c0.421-1.213,0.871-2.48,1.569-3.56c0.098-0.146,0.172-0.241,0.228-0.311c0.05-0.06,0.075-0.089,0.075-0.089
			c0.075-0.082,0.099-0.108,0.099-0.108c0.074-0.072,0.098-0.095,0.098-0.095c0.073-0.063,0.086-0.072,0.086-0.072
			c0.073-0.054,0.085-0.063,0.085-0.063c0.072-0.046,0.084-0.053,0.084-0.053c0.072-0.048,0.084-0.057,0.084-0.057
			c0.071-0.058,0.083-0.068,0.083-0.068c0.082-0.08,0.094-0.092,0.094-0.092c0.07-0.079,0.081-0.093,0.081-0.093
			c0.046-0.058,0.069-0.089,0.069-0.089c0.046-0.064,0.069-0.097,0.069-0.097c0.045-0.07,0.068-0.106,0.068-0.106
			c0.523-0.896,0.765-1.861,1.018-2.85c0.639-2.637,0.908-5.432,1.298-8.114c0.228-1.463,0.504-2.958,0.923-4.379
			c0.247-0.82,0.564-1.71,1.035-2.417c0.057-0.082,0.085-0.121,0.085-0.121c0.057-0.076,0.086-0.113,0.086-0.113
			c0.058-0.071,0.087-0.104,0.087-0.104c0.059-0.065,0.088-0.096,0.088-0.096c0.074-0.074,0.089-0.088,0.089-0.088
			c0.075-0.067,0.09-0.079,0.09-0.079c0.076-0.06,0.091-0.071,0.091-0.071c0.077-0.053,0.092-0.063,0.092-0.063
			c0.107-0.064,0.156-0.087,0.183-0.104c0.072-0.054,0.086-0.067,0.086-0.067c0.071-0.071,0.085-0.087,0.085-0.087
			c0.056-0.069,0.069-0.088,0.069-0.088c0.055-0.08,0.069-0.102,0.069-0.102c0.041-0.068,0.054-0.091,0.054-0.091
			c0.04-0.074,0.054-0.1,0.054-0.1c0.486-1.044,0.644-2.093,0.849-3.197c0.819-5.257,1.013-11.008,1.253-16.332"/>
	</g>
	<g id="POLYLINE_44_">
		
			<path fill="none" stroke="#FB8604" stroke-width="2.75" stroke-linecap="round" stroke-linejoin="round" stroke-miterlimit="10" d="
			M394.5,346.419c-1.748,1.915-3.04,4.219-4.111,6.568c-1.403,3.133-2.432,6.457-3.058,9.832c-0.303,1.685-0.516,3.421-0.496,5.135
			c0.025,1.163,0.132,2.478,0.671,3.498c0.026,0.047,0.053,0.093,0.053,0.093c0.027,0.045,0.055,0.089,0.055,0.089
			c0.048,0.071,0.072,0.105,0.072,0.105c0.05,0.067,0.075,0.099,0.075,0.099c0.052,0.063,0.078,0.093,0.078,0.093
			c0.053,0.059,0.081,0.088,0.081,0.088c0.055,0.056,0.083,0.083,0.083,0.083c0.057,0.052,0.085,0.078,0.085,0.078
			c0.058,0.049,0.087,0.073,0.087,0.073c0.059,0.046,0.089,0.069,0.089,0.069c0.277,0.203,0.5,0.315,0.758,0.441l0.639,0.3
			c0.202,0.099,0.371,0.195,0.502,0.284c0.082,0.058,0.108,0.078,0.108,0.078c0.078,0.062,0.103,0.083,0.103,0.083
			c0.074,0.067,0.098,0.09,0.098,0.09c0.07,0.072,0.081,0.085,0.081,0.085c0.066,0.077,0.077,0.091,0.077,0.091
			c0.052,0.069,0.062,0.083,0.062,0.083c0.048,0.073,0.058,0.088,0.058,0.088c0.045,0.078,0.054,0.094,0.054,0.094
			c0.042,0.082,0.049,0.099,0.049,0.099c0.03,0.07,0.038,0.088,0.038,0.088c0.028,0.073,0.035,0.092,0.035,0.092
			c0.025,0.077,0.031,0.097,0.031,0.097c0.034,0.121,0.034,0.129,0.047,0.186c0.153,0.82,0.052,1.551-0.053,2.342
			c-0.206,1.359-0.57,2.768-0.926,4.097c-0.896,3.275-2.688,8.778-3.187,12.075c-0.129,0.897-0.239,1.928-0.047,2.797
			c0.012,0.052,0.026,0.102,0.026,0.102c0.014,0.05,0.029,0.098,0.029,0.098c0.016,0.048,0.032,0.094,0.032,0.094
			c0.017,0.045,0.035,0.09,0.035,0.09c0.019,0.043,0.038,0.086,0.038,0.086c0.041,0.081,0.063,0.12,0.063,0.12
			c0.046,0.075,0.071,0.11,0.071,0.11c0.051,0.068,0.078,0.1,0.078,0.1c0.074,0.078,0.09,0.094,0.09,0.094
			c0.066,0.057,0.084,0.071,0.084,0.071c0.071,0.051,0.089,0.063,0.089,0.063c0.076,0.045,0.095,0.055,0.095,0.055
			c0.08,0.039,0.1,0.048,0.1,0.048c0.063,0.026,0.084,0.033,0.084,0.033c0.065,0.022,0.087,0.029,0.087,0.029
			c0.067,0.019,0.09,0.025,0.09,0.025c0.069,0.016,0.093,0.021,0.093,0.021c0.071,0.013,0.096,0.017,0.096,0.017
			c0.073,0.01,0.098,0.014,0.098,0.014c1.567,0.138,3.127-0.622,4.669-0.658c0.068,0.001,0.091,0.002,0.091,0.002
			c0.066,0.003,0.088,0.005,0.088,0.005c0.064,0.006,0.085,0.008,0.085,0.008c0.082,0.012,0.101,0.015,0.101,0.015
			c0.077,0.016,0.096,0.021,0.096,0.021c0.073,0.021,0.091,0.027,0.091,0.027c0.068,0.026,0.085,0.033,0.085,0.033
			c0.079,0.04,0.094,0.049,0.094,0.049c0.071,0.048,0.085,0.059,0.085,0.059c0.068,0.061,0.088,0.083,0.088,0.083
			c0.058,0.072,0.075,0.098,0.075,0.098c0.048,0.082,0.063,0.112,0.063,0.112c0.027,0.061,0.039,0.093,0.039,0.093
			c0.022,0.066,0.032,0.1,0.032,0.1c0.018,0.071,0.025,0.108,0.025,0.108c0.013,0.076,0.019,0.115,0.019,0.115
			c0.009,0.081,0.013,0.122,0.013,0.122c0.038,0.914-0.223,1.738-0.473,2.592c-1.454,4.468-4.217,9.754-5.428,14.295
			c-0.299,1.137-0.516,2.315-0.466,3.495c0.038,0.983,0.231,1.828,0.528,2.742c0.425,1.265,1.05,2.731,1.05,4.068
			c0.013,0.747-0.096,1.372-0.263,2.079c-0.26,1.067-0.657,2.143-1.055,3.166c-0.921,2.349-2.476,5.745-3.01,8.18
			c-0.233,1.028-0.378,2.155-0.223,3.198c0.243,1.67,1.22,3.039,2.085,4.42c0.387,0.624,0.802,1.364,0.939,2.064
			c0.015,0.082,0.02,0.109,0.02,0.109c0.012,0.082,0.016,0.109,0.016,0.109c0.009,0.082,0.012,0.109,0.012,0.109
			c0.103,1.226-0.634,2.247-1.268,3.183c-0.719,1.038-1.808,2.286-2.196,3.486c-0.023,0.078-0.03,0.104-0.03,0.104
			c-0.019,0.077-0.025,0.103-0.025,0.103c-0.016,0.077-0.021,0.102-0.021,0.102c-0.012,0.076-0.016,0.101-0.016,0.101
			c-0.009,0.076-0.011,0.101-0.011,0.101c-0.005,0.075-0.006,0.1-0.006,0.1c-0.001,0.074,0,0.099,0,0.099
			c0.003,0.073,0.005,0.098,0.005,0.098c0.008,0.073,0.011,0.097,0.011,0.097c0.012,0.072,0.017,0.096,0.017,0.096
			c0.016,0.071,0.023,0.095,0.023,0.095c0.024,0.081,0.034,0.108,0.034,0.108c0.03,0.08,0.042,0.106,0.042,0.106
			c0.036,0.079,0.049,0.105,0.049,0.105c0.042,0.078,0.057,0.104,0.057,0.104c0.047,0.077,0.064,0.103,0.064,0.103
			c0.052,0.076,0.071,0.101,0.071,0.101c0.057,0.075,0.077,0.1,0.077,0.1c0.062,0.075,0.084,0.1,0.084,0.1
			c1.002,1.083,2.728,1.891,3.96,2.665c0.996,0.608,2.113,1.36,2.803,2.268c0.22,0.289,0.38,0.569,0.491,0.83
			c0.03,0.073,0.044,0.11,0.044,0.11c0.027,0.074,0.04,0.112,0.04,0.112c0.271,0.804,0.196,1.638,0.023,2.404
			c-0.194,0.838-0.525,1.65-0.889,2.427c-0.716,1.559-2.504,4.454-3.377,5.971c-0.547,0.973-1.09,1.982-1.476,3.031
			c-0.346,0.904-0.551,1.986-0.336,2.905c0.296,1.407,1.263,2.542,2.025,3.706c0.385,0.577,0.783,1.288,0.983,1.928
			c0.185,0.585,0.241,1.056,0.263,1.628c0.044,2.925-1.099,5.936-1.077,8.862c0.003,0.903,0.123,1.818,0.447,2.665
			c0.678,1.772,2.027,3.183,3.365,4.486c2.052,1.971,4.636,4.089,6.066,6.566c1.228,2.108,1.79,4.539,2.245,6.914
			c0.396,1.946,0.683,4.444,1.56,6.223c0.897,1.812,2.675,2.86,4.079,4.198c1.155,1.075,2.11,2.38,3.013,3.667
			c0.998,1.453,2.761,4.149,3.839,5.491c0.798,1.012,1.77,2.027,2.929,2.598c0.91,0.462,1.882,0.658,2.882,0.785
			c0.929,0.114,2.205,0.18,3.153,0.228c6.989,0.302,14.672,0.587,21.645,0.328c1.638-0.082,3.469-0.165,5.091-0.382
			c1.017-0.135,2.054-0.311,3.021-0.662c0.805-0.284,1.543-0.723,2.109-1.284c0.664-0.659,1.074-1.414,1.404-2.228
			c0.719-1.853,1.001-3.86,1.044-5.839c0.02-1.912-0.192-3.874-0.937-5.65c-0.361-0.881-0.987-1.795-1.689-2.357
			c-0.869-0.708-1.764-1.071-2.796-1.345c-1.155-0.295-2.363-0.399-3.552-0.433c-3.54-0.095-7.446,0.477-10.969,0.012
			c-1.658-0.21-3.432-0.768-4.738-1.792c-1.265-0.986-2.102-2.183-2.807-3.559c-0.716-1.429-1.197-2.977-1.498-4.544
			c-0.698-3.589-0.369-7.314,0.545-10.835c1.589-6.416,5.591-13.299,8.637-19.151c1.473-2.864,2.879-5.889,3.961-8.923
			c0.88-2.437,1.564-5.026,2.099-7.561c0.314-1.499,1.234-6.332,1.605-7.728c0.123-0.471,0.293-1.063,0.488-1.479
			c0.038-0.079,0.051-0.104,0.051-0.104c0.039-0.072,0.052-0.094,0.052-0.094c0.039-0.064,0.052-0.084,0.052-0.084
			c0.053-0.074,0.066-0.091,0.066-0.091c0.067-0.075,0.08-0.088,0.08-0.088c0.081-0.063,0.095-0.071,0.095-0.071
			c0.069-0.03,0.083-0.034,0.083-0.034c0.07-0.008,0.085-0.008,0.085-0.008c0.072,0.014,0.086,0.019,0.086,0.019
			c0.081,0.041,0.088,0.046,0.088,0.046c0.075,0.06,0.083,0.067,0.083,0.067c0.069,0.07,0.085,0.088,0.085,0.088
			c0.063,0.076,0.078,0.096,0.078,0.096c0.134,0.178,0.228,0.338,0.31,0.474c0.203,0.349,0.564,1.005,0.789,1.312
			c0.057,0.078,0.077,0.103,0.077,0.103c0.058,0.073,0.077,0.097,0.077,0.097c0.059,0.068,0.078,0.089,0.078,0.089
			c0.079,0.081,0.099,0.1,0.099,0.1c0.08,0.069,0.09,0.077,0.09,0.077c0.081,0.057,0.091,0.063,0.091,0.063
			c0.082,0.044,0.092,0.049,0.092,0.049c0.072,0.027,0.083,0.03,0.083,0.03c0.073,0.015,0.083,0.016,0.083,0.016
			c0.074,0.002,0.084,0.002,0.084,0.002c0.074-0.011,0.085-0.014,0.085-0.014c0.058-0.019,0.085-0.029,0.085-0.029
			c0.079-0.042,0.106-0.059,0.106-0.059c0.08-0.06,0.107-0.082,0.107-0.082c0.081-0.077,0.108-0.105,0.108-0.105
			c0.054-0.061,0.082-0.094,0.082-0.094c0.055-0.069,0.082-0.106,0.082-0.106c0.47-0.671,0.729-1.362,1.024-2.104
			c0.44-1.163,0.842-2.468,1.198-3.661c0.864-2.908,2.312-8.502,3.412-11.262c0.22-0.543,0.487-1.157,0.803-1.638
			c0.056-0.082,0.084-0.121,0.084-0.121c0.056-0.074,0.083-0.109,0.083-0.109c0.055-0.066,0.083-0.097,0.083-0.097
			c0.055-0.058,0.082-0.085,0.082-0.085c0.082-0.072,0.109-0.093,0.109-0.093c0.081-0.054,0.108-0.069,0.108-0.069
			c0.075-0.034,0.084-0.038,0.084-0.038c0.074-0.022,0.083-0.024,0.083-0.024c0.074-0.01,0.083-0.011,0.083-0.011
			c0.082,0.001,0.092,0.002,0.092,0.002c0.082,0.013,0.091,0.015,0.091,0.015c0.082,0.024,0.091,0.027,0.091,0.027
			c0.082,0.033,0.1,0.042,0.1,0.042c0.073,0.037,0.091,0.047,0.091,0.047c0.073,0.043,0.091,0.055,0.091,0.055
			c0.12,0.079,0.155,0.107,0.218,0.154c0.055,0.043,0.374,0.288,0.408,0.31c0.076,0.053,0.114,0.078,0.114,0.078
			c0.077,0.048,0.096,0.06,0.096,0.06c0.078,0.043,0.097,0.053,0.097,0.053c0.079,0.037,0.098,0.045,0.098,0.045
			c0.08,0.029,0.09,0.033,0.09,0.033c0.081,0.022,0.091,0.024,0.091,0.024c0.082,0.013,0.092,0.015,0.092,0.015
			c0.073,0.004,0.083,0.004,0.083,0.004c0.073-0.004,0.084-0.005,0.084-0.005c0.075-0.012,0.085-0.015,0.085-0.015
			c0.076-0.022,0.108-0.033,0.108-0.033c0.065-0.028,0.098-0.044,0.098-0.044c0.066-0.037,0.1-0.058,0.1-0.058
			c0.067-0.046,0.101-0.071,0.101-0.071c0.068-0.054,0.103-0.084,0.103-0.084c0.069-0.063,0.104-0.096,0.104-0.096
			c0.07-0.071,0.105-0.108,0.105-0.108c0.532-0.594,0.869-1.219,1.24-1.902c0.668-1.274,1.275-2.701,1.828-4.031
			c1.241-2.994,3.339-8.671,4.846-11.467c0.348-0.642,0.768-1.361,1.25-1.89c0.074-0.078,0.111-0.115,0.111-0.115
			c0.073-0.07,0.11-0.103,0.11-0.103c0.072-0.062,0.108-0.091,0.108-0.091c0.071-0.054,0.107-0.078,0.107-0.078
			c0.071-0.045,0.106-0.065,0.106-0.065c0.077-0.04,0.092-0.047,0.092-0.047c0.07-0.029,0.084-0.034,0.084-0.034
			c0.07-0.022,0.083-0.026,0.083-0.026c0.069-0.016,0.083-0.018,0.083-0.018c0.082-0.01,0.095-0.011,0.095-0.011
			c0.081-0.002,0.094-0.002,0.094-0.002c0.08,0.006,0.094,0.008,0.094,0.008c0.08,0.014,0.093,0.016,0.093,0.016
			c0.079,0.021,0.092,0.025,0.092,0.025c0.078,0.027,0.091,0.032,0.091,0.032c0.078,0.033,0.104,0.045,0.104,0.045
			c0.077,0.04,0.103,0.054,0.103,0.054c0.077,0.045,0.102,0.061,0.102,0.061c0.526,0.344,0.954,0.839,1.436,1.19
			c0.08,0.057,0.107,0.076,0.107,0.076c0.081,0.053,0.108,0.07,0.108,0.07c0.082,0.048,0.11,0.064,0.11,0.064
			c0.055,0.029,0.083,0.043,0.083,0.043c0.056,0.026,0.084,0.038,0.084,0.038c0.071,0.028,0.085,0.034,0.085,0.034
			c0.071,0.024,0.086,0.028,0.086,0.028c0.072,0.02,0.087,0.023,0.087,0.023c0.063,0.013,0.096,0.018,0.096,0.018
			c0.068,0.009,0.102,0.012,0.102,0.012c0.068,0.004,0.103,0.004,0.103,0.004c0.069-0.002,0.104-0.004,0.104-0.004
			c0.07-0.006,0.105-0.011,0.105-0.011c0.071-0.011,0.107-0.018,0.107-0.018c0.072-0.016,0.108-0.026,0.108-0.026
			c0.072-0.021,0.109-0.033,0.109-0.033c0.073-0.026,0.11-0.04,0.11-0.04c0.074-0.03,0.111-0.047,0.111-0.047
			c0.075-0.035,0.112-0.054,0.112-0.054c0.075-0.04,0.113-0.061,0.113-0.061c0.076-0.044,0.114-0.067,0.114-0.067
			c0.076-0.048,0.115-0.074,0.115-0.074c1.027-0.724,1.703-1.662,2.397-2.662c1.105-1.652,2.031-3.481,2.855-5.289
			c2.533-5.613,4.251-11.614,5.356-17.665c1.314-6.889,1.805-14.746,2.893-21.677c0.209-1.18,0.456-2.382,0.844-3.517
			c0.318-0.944,0.807-1.96,1.457-2.67c0.742-0.852,1.799-1.292,2.843-1.406c0.742-0.093,1.506-0.077,2.251-0.03
			c2.216,0.16,5.007,0.655,7.22,0.697c0.937,0.024,1.895-0.012,2.823-0.15c0.903-0.134,1.806-0.37,2.671-0.66
			c3.195-1.061,6.302-3.079,9.523-4.065c0.822-0.246,1.676-0.424,2.534-0.473c0.978-0.057,1.966,0.049,2.925,0.24
			c3.92,0.808,7.733,2.907,11.799,2.959c2.219,0.036,4.427-0.443,6.565-0.997c4.323-1.121,8.972-2.833,13.501-2.366
			c3.502,0.315,7.311,1.769,10.647,2.845c2.98,0.969,6.099,1.835,9.251,1.904c3.468,0.076,6.897-0.796,10.197-1.783
			c2.117-0.649,6.674-2.19,8.777-2.645"/>
	</g>
	<g id="POLYLINE_43_">
		
			<path fill="none" stroke="#FB8604" stroke-width="2.75" stroke-linecap="round" stroke-linejoin="round" stroke-miterlimit="10" d="
			M464.254,423.181c-0.232,2.318-0.514,4.943-0.431,7.257c0.122,4.05,0.74,8.218,1.383,12.217c0.524,3.014,1.098,6.195,1.985,9.122
			c0.219,0.683,0.474,1.456,0.841,2.06c0.04,0.061,0.06,0.091,0.06,0.091c0.059,0.082,0.079,0.107,0.079,0.107
			c0.059,0.069,0.078,0.09,0.078,0.09c0.077,0.073,0.097,0.088,0.097,0.088c0.076,0.051,0.095,0.061,0.095,0.061
			c0.075,0.028,0.094,0.032,0.094,0.032c0.074,0.005,0.092,0.003,0.092,0.003c0.079-0.022,0.086-0.025,0.086-0.025
			c0.081-0.05,0.088-0.055,0.088-0.055c0.08-0.074,0.087-0.081,0.087-0.081c0.066-0.078,0.079-0.095,0.079-0.095
			c0.052-0.073,0.065-0.092,0.065-0.092c0.291-0.447,0.508-1.001,0.791-1.427c0.044-0.064,0.058-0.084,0.058-0.084
			c0.059-0.078,0.074-0.097,0.074-0.097c0.068-0.078,0.076-0.086,0.076-0.086c0.078-0.074,0.086-0.08,0.086-0.08
			c0.08-0.058,0.088-0.063,0.088-0.063c0.082-0.041,0.091-0.044,0.091-0.044c0.076-0.02,0.085-0.022,0.085-0.022
			c0.079-0.003,0.087-0.003,0.087-0.003c0.063,0.01,0.086,0.017,0.086,0.017c0.071,0.028,0.095,0.04,0.095,0.04
			c0.073,0.044,0.098,0.062,0.098,0.062c0.075,0.06,0.1,0.083,0.1,0.083c0.077,0.076,0.103,0.103,0.103,0.103
			c0.052,0.059,0.079,0.091,0.079,0.091c0.053,0.066,0.08,0.101,0.08,0.101c0.416,0.569,0.672,1.125,0.964,1.746
			c0.467,1.026,0.919,2.197,1.317,3.253c0.919,2.421,2.606,7.376,3.73,9.642c0.231,0.469,0.525,1.019,0.831,1.425
			c0.058,0.075,0.087,0.111,0.087,0.111c0.057,0.068,0.086,0.1,0.086,0.1c0.057,0.061,0.085,0.089,0.085,0.089
			c0.056,0.053,0.083,0.078,0.083,0.078c0.082,0.067,0.109,0.087,0.109,0.087c0.08,0.051,0.107,0.065,0.107,0.065
			c0.079,0.035,0.104,0.044,0.104,0.044c0.072,0.017,0.084,0.019,0.084,0.019c0.08,0.004,0.092,0.004,0.092,0.004
			c0.079-0.011,0.09-0.013,0.09-0.013c0.077-0.025,0.088-0.029,0.088-0.029c0.076-0.038,0.086-0.044,0.086-0.044
			c0.075-0.05,0.085-0.058,0.085-0.058c0.074-0.061,0.084-0.071,0.084-0.071c0.073-0.071,0.093-0.093,0.093-0.093
			c0.062-0.069,0.082-0.094,0.082-0.094c0.061-0.076,0.082-0.103,0.082-0.103c0.404-0.542,0.739-1.24,1.157-1.73
			c0.07-0.079,0.094-0.104,0.094-0.104c0.072-0.073,0.096-0.096,0.096-0.096c0.074-0.065,0.086-0.076,0.086-0.076
			c0.075-0.058,0.088-0.067,0.088-0.067c0.077-0.05,0.09-0.058,0.09-0.058c0.079-0.042,0.092-0.048,0.092-0.048
			c0.081-0.033,0.095-0.037,0.095-0.037c0.069-0.02,0.083-0.023,0.083-0.023c0.071-0.012,0.085-0.014,0.085-0.014
			c0.072-0.004,0.107-0.004,0.107-0.004c0.071,0.005,0.107,0.01,0.107,0.01c0.073,0.014,0.11,0.024,0.11,0.024
			c0.075,0.023,0.113,0.037,0.113,0.037c0.077,0.032,0.116,0.05,0.116,0.05c0.079,0.041,0.118,0.063,0.118,0.063
			c0.08,0.049,0.121,0.076,0.121,0.076c0.72,0.516,1.173,1.15,1.681,1.831c1.925,2.728,4.136,7.048,5.847,9.933
			c0.845,1.435,1.755,2.944,2.759,4.272c0.584,0.759,1.281,1.601,2.084,2.09c0.048,0.028,0.096,0.055,0.096,0.055
			c0.048,0.025,0.095,0.049,0.095,0.049c0.047,0.023,0.095,0.044,0.095,0.044c0.047,0.02,0.094,0.038,0.094,0.038
			c0.07,0.025,0.094,0.033,0.094,0.033c0.07,0.021,0.093,0.027,0.093,0.027c0.069,0.017,0.092,0.022,0.092,0.022
			c0.068,0.013,0.091,0.016,0.091,0.016c0.068,0.009,0.09,0.011,0.09,0.011c0.067,0.005,0.089,0.006,0.089,0.006
			c0.067,0.001,0.089,0.001,0.089,0.001c0.066-0.002,0.088-0.003,0.088-0.003c0.065-0.006,0.087-0.008,0.087-0.008
			c0.065-0.009,0.086-0.012,0.086-0.012c0.064-0.012,0.086-0.016,0.086-0.016c0.064-0.015,0.085-0.02,0.085-0.02
			c0.064-0.018,0.085-0.024,0.085-0.024c0.063-0.021,0.084-0.028,0.084-0.028c0.119-0.043,0.181-0.072,0.249-0.104
			c0.082-0.041,0.123-0.062,0.123-0.062c0.081-0.045,0.122-0.069,0.122-0.069c0.315-0.186,0.586-0.403,0.797-0.573
			c0.334-0.276,0.945-0.798,1.273-1.015c0.263-0.177,0.435-0.272,0.667-0.37c0.064-0.026,0.086-0.034,0.086-0.034
			c0.065-0.023,0.087-0.03,0.087-0.03c0.065-0.02,0.087-0.027,0.087-0.027c0.066-0.018,0.088-0.023,0.088-0.023
			c0.066-0.015,0.089-0.019,0.089-0.019c0.067-0.012,0.089-0.015,0.089-0.015c0.068-0.009,0.09-0.011,0.09-0.011
			c0.068-0.005,0.091-0.006,0.091-0.006c0.069-0.002,0.092-0.002,0.092-0.002c0.07,0.002,0.093,0.003,0.093,0.003
			c0.075,0.006,0.112,0.01,0.112,0.01c0.076,0.01,0.113,0.017,0.113,0.017c0.076,0.015,0.115,0.023,0.115,0.023
			c0.077,0.019,0.116,0.03,0.116,0.03c0.078,0.023,0.117,0.036,0.117,0.036c0.079,0.028,0.118,0.042,0.118,0.042
			c0.08,0.032,0.12,0.048,0.12,0.048c0.867,0.391,1.502,0.962,2.182,1.589c1.453,1.374,3.302,3.604,4.715,5.027
			c0.611,0.615,1.257,1.224,1.961,1.731c0.547,0.392,1.201,0.762,1.841,0.865c0.059,0.009,0.088,0.013,0.088,0.013
			c0.058,0.007,0.087,0.01,0.087,0.01c0.341,0.031,0.655-0.012,0.93-0.086c0.844-0.242,1.448-0.705,2.107-1.216
			c0.78-0.612,1.715-1.491,2.636-1.839c0.073-0.026,0.098-0.035,0.098-0.035c0.074-0.023,0.098-0.031,0.098-0.031
			c0.074-0.02,0.098-0.026,0.098-0.026c0.074-0.017,0.099-0.022,0.099-0.022c0.074-0.014,0.099-0.018,0.099-0.018
			c0.074-0.01,0.099-0.013,0.099-0.013c0.075-0.006,0.099-0.008,0.099-0.008c0.062-0.002,0.093-0.003,0.093-0.003
			c0.062,0,0.093,0.001,0.093,0.001c0.062,0.003,0.093,0.006,0.093,0.006c0.062,0.006,0.093,0.01,0.093,0.01
			c0.062,0.009,0.094,0.014,0.094,0.014c0.063,0.011,0.094,0.017,0.094,0.017c0.063,0.014,0.094,0.021,0.094,0.021
			c0.933,0.254,1.628,0.829,2.319,1.404c0.967,0.828,2.341,2.234,3.307,3.056c0.86,0.74,1.844,1.473,2.876,1.883
			c0.678,0.272,1.406,0.415,2.135,0.455c1.639,0.087,3.292-0.299,4.875-0.685c1.896-0.467,3.972-1.051,5.92-1.08
			c2.16-0.041,4.294,0.565,6.22,1.516c6.256,3.072,10.734,9.614,15.062,14.871c3.219,3.941,6.829,7.659,11.09,10.476
			c6.445,4.301,15.396,7.716,22.747,3.713c2.66-1.449,4.978-3.611,6.439-6.278c0.839-1.542,1.388-3.411,1.076-5.157
			c-0.172-0.967-0.588-1.778-1.139-2.532c-0.851-1.147-1.974-2.072-3.132-2.895c-3.365-2.392-7.581-4.074-10.865-6.583
			c-1.818-1.394-3.304-3.206-4.257-5.292c-0.593-1.266-1.032-2.629-1.397-3.978c-0.982-3.73-1.854-8.64-3.029-12.302
			c-1.107-3.578-2.636-7.078-4.84-10.122c-5.165-7.154-14.172-12.922-21.055-18.337c-2.443-1.921-4.886-3.981-7.003-6.259
			c-1.963-2.101-3.716-4.42-5.157-6.91c-2.243-3.849-3.72-8.129-4.686-12.467c-1.037-4.667-1.537-9.487-1.624-14.265
			c-0.099-4.929,0.316-9.924,1.091-14.792c0.913-5.889,2.387-12.414,2.794-18.356c0.386-5.502-0.008-11.139-0.547-16.621"/>
	</g>
	<g id="POLYLINE_42_">
		
			<path fill="none" stroke="#FB8604" stroke-width="2.75" stroke-linecap="round" stroke-linejoin="round" stroke-miterlimit="10" d="
			M584.496,269.088c3.747-0.142,7.594,0.452,10.961,2.159c3.707,1.895,6.728,4.983,8.92,8.493"/>
	</g>
	<g id="POLYLINE_41_">
		
			<path fill="none" stroke="#FB8604" stroke-width="2.75" stroke-linecap="round" stroke-linejoin="round" stroke-miterlimit="10" d="
			M525.946,298.466c-1.128-1.234-1.9-2.663-2.701-4.105c-1.682-3.147-3.157-6.591-4.482-9.906
			c-2.682-6.912-5.118-14.082-6.482-21.382c-0.246-1.425-0.455-2.908-0.499-4.354c-0.021-0.833-0.001-1.685,0.182-2.5l0.022-0.091
			l0.023-0.089l0.024-0.087l0.025-0.085c0.027-0.082,0.055-0.162,0.055-0.162c0.052-0.143,0.098-0.242,0.13-0.311
			c0.032-0.064,0.048-0.096,0.048-0.096c0.033-0.062,0.05-0.092,0.05-0.092c0.035-0.059,0.053-0.088,0.053-0.088
			c0.036-0.056,0.055-0.084,0.055-0.084c0.057-0.08,0.077-0.106,0.077-0.106c0.06-0.075,0.081-0.1,0.081-0.1
			c0.063-0.071,0.085-0.093,0.085-0.093c0.066-0.066,0.089-0.087,0.089-0.087c0.069-0.062,0.092-0.081,0.092-0.081
			c0.072-0.057,0.096-0.076,0.096-0.076c0.074-0.053,0.099-0.07,0.099-0.07c0.077-0.049,0.103-0.065,0.103-0.065
			c0.08-0.045,0.106-0.06,0.106-0.06c0.831-0.417,1.671-0.411,2.533-0.414c1.283,0.018,2.623,0.179,3.895,0.351
			c3.506,0.549,16.381,2.414,19.594,3.037c1.848,0.355,3.773,0.793,5.576,1.331c2.499,0.749,4.971,1.726,7.163,3.157
			c3.276,2.157,5.961,5.328,7.268,9.049c0.618,1.771,0.851,3.712,0.402,5.55c-0.418,1.8-1.382,3.421-2.395,4.946"/>
	</g>
	<g id="POLYLINE_40_">
		
			<path fill="none" stroke="#FB8604" stroke-width="2.75" stroke-linecap="round" stroke-linejoin="round" stroke-miterlimit="10" d="
			M613.935,333.164c1.493-3.733,2.968-7.646,3.814-11.576c0.621-2.843,0.945-5.775,0.875-8.685
			c-0.081-3.611-0.773-7.272-1.518-10.801c-0.82-3.909-2.235-9.234-2.511-13.185c-0.072-1.082-0.049-2.186,0.116-3.259
			c0.165-1.108,0.483-2.202,0.851-3.258l1.508-4.118c1.143-3.266,1.845-6.729,2.392-10.141c0.635-4.07,1.056-8.259,1.149-12.379
			c0.034-2.007,0.002-4.081-0.253-6.072c-0.159-1.168-0.39-2.457-0.928-3.499c-0.123-0.232-0.243-0.411-0.36-0.56
			c-0.065-0.08-0.087-0.106-0.087-0.106c-0.067-0.075-0.09-0.099-0.09-0.099c-0.069-0.07-0.093-0.092-0.093-0.092
			c-0.072-0.065-0.096-0.086-0.096-0.086c-0.074-0.06-0.099-0.079-0.099-0.079c-0.076-0.055-0.102-0.072-0.102-0.072
			c-0.078-0.05-0.105-0.066-0.105-0.066c-0.081-0.045-0.108-0.06-0.108-0.06c-0.055-0.027-0.083-0.041-0.083-0.041
			c-0.056-0.025-0.085-0.037-0.085-0.037c-0.057-0.023-0.086-0.034-0.086-0.034c-0.059-0.02-0.088-0.03-0.088-0.03
			c-0.06-0.018-0.09-0.027-0.09-0.027c-0.061-0.016-0.092-0.023-0.092-0.023c-0.062-0.014-0.094-0.02-0.094-0.02
			c-0.063-0.011-0.095-0.017-0.095-0.017c-0.065-0.009-0.097-0.013-0.097-0.013c-1.183-0.105-2.247,0.334-3.272,0.761
			c-1.434,0.636-2.815,1.463-4.127,2.32c-3.991,2.668-7.756,5.792-10.875,9.453c-1.772,2.061-3.382,4.537-4.857,6.825
			c-0.746,1.129-1.564,2.252-2.621,3.11c-0.759,0.629-1.729,1.13-2.627,1.396c-1.1,0.333-2.214,0.44-3.353,0.483
			c-2.561,0.076-5.18-0.238-7.717-0.575l-8.343-1.241c-4.222-0.607-8.692-0.798-12.959-0.862"/>
	</g>
	<g id="POLYLINE_39_">
		
			<path fill="none" stroke="#FB8604" stroke-width="2.75" stroke-linecap="round" stroke-linejoin="round" stroke-miterlimit="10" d="
			M519.649,318.809c1.875,7.16,4.657,14.196,8.935,20.273c3.747,5.346,8.622,9.882,14.048,13.491
			c3.83,2.544,8.013,4.613,12.278,6.318"/>
	</g>
	<g id="POLYLINE_38_">
		
			<path fill="none" stroke="#FB8604" stroke-width="2.75" stroke-linecap="round" stroke-linejoin="round" stroke-miterlimit="10" d="
			M277.448,344.53c-0.958,2.568-2.954,7.55-3.706,10.105c-0.572,1.856-1.053,3.802-1.367,5.718
			c-0.434,2.608-0.576,5.281-0.491,7.922c0.109,4.797,1.485,15.168,1.989,20.054c0.331,3.677,0.552,7.453,0.282,11.138
			c-0.194,2.603-0.653,5.22-1.62,7.653c-1.72,4.423-4.93,8.066-8.253,11.373c-2.183,2.131-6.836,6.555-8.84,8.71
			c-1.988,2.094-3.981,4.502-5.779,6.769c-3.183,3.941-7.402,9.97-11.126,13.312c-0.918,0.79-2.016,1.624-3.195,1.863
			c-0.055,0.01-0.111,0.019-0.111,0.019c-0.055,0.008-0.11,0.015-0.11,0.015c-0.054,0.006-0.109,0.011-0.109,0.011
			c-0.054,0.004-0.108,0.006-0.108,0.006c-0.053,0.001-0.107,0.002-0.107,0.002c-0.053-0.001-0.106-0.003-0.106-0.003
			c-0.052-0.003-0.105-0.007-0.105-0.007c-0.071-0.008-0.094-0.011-0.094-0.011c-0.07-0.01-0.094-0.014-0.094-0.014
			c-0.07-0.013-0.093-0.018-0.093-0.018c-0.069-0.016-0.092-0.021-0.092-0.021c-0.793-0.203-1.45-0.742-2.009-1.223
			c-0.459-0.402-1.16-1.07-1.651-1.371c-0.071-0.043-0.106-0.064-0.106-0.064c-0.071-0.039-0.106-0.058-0.106-0.058
			c-0.07-0.035-0.106-0.052-0.106-0.052c-0.07-0.031-0.088-0.038-0.088-0.038c-0.07-0.027-0.088-0.033-0.088-0.033
			c-0.07-0.023-0.088-0.028-0.088-0.028c-0.07-0.019-0.088-0.023-0.088-0.023c-0.07-0.014-0.088-0.017-0.088-0.017
			c-0.07-0.01-0.088-0.012-0.088-0.012c-0.07-0.005-0.088-0.006-0.088-0.006c-0.065,0-0.089,0.001-0.089,0.001
			c-0.071,0.005-0.095,0.008-0.095,0.008c-0.072,0.01-0.095,0.015-0.095,0.015c-0.072,0.016-0.096,0.022-0.096,0.022
			c-0.072,0.021-0.096,0.028-0.096,0.028c-0.072,0.026-0.096,0.035-0.096,0.035c-0.072,0.03-0.096,0.041-0.096,0.041
			c-0.072,0.035-0.097,0.047-0.097,0.047c-0.073,0.039-0.097,0.053-0.097,0.053c-0.073,0.044-0.097,0.059-0.097,0.059
			c-0.073,0.048-0.098,0.065-0.098,0.065c-1.182,0.865-2.24,2.479-3.168,3.599c-1.059,1.325-2.254,2.693-3.68,3.61
			c-1.581,1.023-3.432,1.543-5.253,1.952c-3.151,0.681-6.709,1.213-9.475,2.95c-2.302,1.426-4.068,3.562-5.716,5.675
			c-0.561,0.735-2.672,3.578-3.237,4.244c-0.61,0.733-1.339,1.571-2.121,2.032c-0.066,0.037-0.099,0.055-0.099,0.055
			c-0.066,0.034-0.099,0.05-0.099,0.05c-0.065,0.03-0.098,0.044-0.098,0.044c-0.065,0.026-0.097,0.038-0.097,0.038
			c-0.064,0.022-0.096,0.032-0.096,0.032c-0.064,0.018-0.095,0.026-0.095,0.026c-0.063,0.014-0.095,0.02-0.095,0.02
			c-0.063,0.01-0.094,0.014-0.094,0.014c-0.066,0.006-0.083,0.007-0.083,0.007c-0.069,0.002-0.086,0.002-0.086,0.002
			c-0.069-0.002-0.086-0.003-0.086-0.003c-0.068-0.006-0.085-0.008-0.085-0.008c-0.068-0.01-0.085-0.013-0.085-0.013
			c-0.068-0.013-0.084-0.017-0.084-0.017c-0.067-0.017-0.084-0.021-0.084-0.021c-0.05-0.015-0.084-0.026-0.084-0.026
			c-0.067-0.023-0.1-0.036-0.1-0.036c-0.066-0.027-0.1-0.041-0.1-0.041c-0.066-0.03-0.099-0.046-0.099-0.046
			c-0.842-0.428-1.554-1.148-2.38-1.496c-0.079-0.033-0.119-0.049-0.119-0.049c-0.08-0.03-0.121-0.045-0.121-0.045
			c-0.219-0.074-0.369-0.106-0.547-0.131c-0.066-0.008-0.088-0.01-0.088-0.01c-0.067-0.006-0.089-0.007-0.089-0.007
			c-0.067-0.003-0.09-0.004-0.09-0.004c-0.068-0.001-0.091-0.001-0.091-0.001c-0.069,0.002-0.092,0.003-0.092,0.003
			c-0.107,0.006-0.14,0.011-0.187,0.016c-0.769,0.108-1.393,0.446-2.018,0.823c-0.845,0.526-1.639,1.172-2.391,1.823
			c-2.376,2.074-5.128,5.046-7.506,7.117c-0.671,0.58-1.382,1.157-2.127,1.638c-0.574,0.373-1.272,0.733-1.916,0.865
			c-0.791,0.172-1.509,0.073-2.256-0.114c0,0-1.04-0.274-1.04-0.274c-0.54-0.139-1.175-0.23-1.706-0.166
			c-0.908,0.109-1.636,0.497-2.373,0.921c-1.578,0.942-3.522,2.549-5.005,3.666c-1.607,1.186-3.332,2.441-5.286,2.949
			c-1.374,0.368-2.981,0.301-4.391,0.321c-0.657,0.004-1.423,0.072-2.048,0.216c-0.726,0.153-1.401,0.484-1.951,0.868
			c-1.059,0.764-1.806,1.75-2.503,2.822c-0.939,1.48-1.672,3.109-2.278,4.75c-0.922,2.525-1.565,5.173-1.944,7.833
			c-0.355,2.55-0.479,5.168-0.195,7.731c0.224,2.038,0.772,4.051,1.598,5.926c0.917,2.099,2.188,4.049,3.568,5.871
			c1.56,2.087,3.643,4.353,4.909,6.633c0.491,0.892,0.911,1.868,1.044,2.882c0.099,0.691,0.015,1.417-0.218,2.016
			c-0.377,0.993-1.124,1.762-1.886,2.341c-1.789,1.321-3.988,1.92-6.17,2.17c-2.621,0.279-5.314,0.025-7.819-0.809
			c-1.822-0.611-3.528-1.56-5.052-2.726c-2.108-1.611-3.897-3.637-5.341-5.857c-2.346-3.614-3.956-8.028-5.788-11.919
			c-1.769-3.82-4.833-9.589-6.01-13.568c-0.388-1.284-0.667-2.62-0.679-3.965c-0.023-2.221,0.517-4.553,0.509-6.775
			c0.028-1.932-0.268-3.889-0.6-5.789c-0.687-3.85-1.851-9.026-2.185-12.867c-0.186-2-0.255-4.043-0.01-6.041
			c0.168-1.353,0.488-2.706,1.062-3.948c0.444-0.966,1.039-1.82,1.75-2.592c2.555-2.741,6.246-4.327,9.468-6.13
			c1.762-0.993,3.581-2.065,4.878-3.648c2.031-2.474,1.678-5.953,1.705-8.948c0.021-1.838,0.046-3.957,1.208-5.467
			c0.06-0.075,0.091-0.112,0.091-0.112c1.027-1.181,2.437-1.729,3.864-2.218c1.877-0.619,4.545-1.153,6.426-1.762
			c0.828-0.269,1.658-0.584,2.412-1.024c0.784-0.441,1.472-1.111,1.887-1.834c0.618-1.058,0.855-2.132,1.079-3.296
			c0.287-1.553,0.497-3.479,1.156-4.905c0.456-0.986,1.048-1.719,1.764-2.474c1.798-1.868,4.187-3.454,5.395-5.802
			c0.742-1.437,1.042-3.062,1.146-4.664c0.167-2.792-0.213-5.641-0.629-8.399c-0.833-5.194-2.339-12.868-2.549-18.047
			c-0.109-2.287-0.077-4.623,0.284-6.887c0.504-3.491,2.289-7.152,3.679-10.377c1-2.339,1.85-4.787,2.239-7.307
			c1.01-6.35,0.286-13.471,1.825-19.744c0.79-3.323,2.578-6.311,4.626-9.008c1.493-1.913,4.471-5.591,5.778-7.49
			c0.938-1.341,1.81-2.8,2.574-4.247c2.784-5.256,4.992-11.649,8.029-16.764c1.882-3.243,4.43-6.07,7.321-8.445
			c3.191-2.691,8.677-6.155,12.192-8.53c6.689-4.52,15.206-10.973,22.206-14.922c2.622-1.495,5.411-2.849,8.235-3.916
			c3.507-1.389,10.359-3.254,14.031-4.355c2.816-0.849,5.858-1.914,8.599-2.987c8.533-3.32,19.808-8.521,28.645-10.787
			c3.671-0.975,7.501-1.598,11.282-1.933c5.182-0.498,11.47-0.435,16.681-0.645c3.707-0.134,11.127-0.941,14.797-1.28
			c5.641-0.484,11.412-0.591,17.063-0.281c20.972,1.282,50.592,6.766,71.539,8.665c5.348,0.486,10.96,0.891,16.329,0.78
			c3.694-0.073,7.475-0.421,11.13-0.961c2.86-0.43,8.731-1.482,11.53-1.681c1.775-0.15,3.637-0.177,5.416-0.111
			c2.315,0.083,4.773,0.332,7.074,0.626c8.506,1.247,36.406,5.811,45.311,7.183"/>
	</g>
</g>
<g id="AG-OUTLINE">
	<g id="POLYLINE_24_">
		
			<path fill="none" stroke="#FB8604" stroke-width="3.5" stroke-linecap="round" stroke-linejoin="round" stroke-miterlimit="10" d="
			M464.254,423.181c-0.232,2.318-0.514,4.943-0.431,7.257c0.122,4.05,0.74,8.218,1.383,12.217c0.524,3.014,1.098,6.195,1.985,9.122
			c0.219,0.683,0.474,1.456,0.841,2.06c0.04,0.061,0.06,0.091,0.06,0.091c0.059,0.082,0.079,0.107,0.079,0.107
			c0.059,0.069,0.078,0.09,0.078,0.09c0.077,0.073,0.097,0.088,0.097,0.088c0.076,0.051,0.095,0.061,0.095,0.061
			c0.075,0.028,0.094,0.032,0.094,0.032c0.074,0.005,0.092,0.003,0.092,0.003c0.079-0.022,0.086-0.025,0.086-0.025
			c0.081-0.05,0.088-0.055,0.088-0.055c0.08-0.074,0.087-0.081,0.087-0.081c0.066-0.078,0.079-0.095,0.079-0.095
			c0.052-0.073,0.065-0.092,0.065-0.092c0.291-0.447,0.508-1.001,0.791-1.427c0.044-0.064,0.058-0.084,0.058-0.084
			c0.059-0.078,0.074-0.097,0.074-0.097c0.068-0.078,0.076-0.086,0.076-0.086c0.078-0.074,0.086-0.08,0.086-0.08
			c0.08-0.058,0.088-0.063,0.088-0.063c0.082-0.041,0.091-0.044,0.091-0.044c0.076-0.02,0.085-0.022,0.085-0.022
			c0.079-0.003,0.087-0.003,0.087-0.003c0.063,0.01,0.086,0.017,0.086,0.017c0.071,0.028,0.095,0.04,0.095,0.04
			c0.073,0.044,0.098,0.062,0.098,0.062c0.075,0.06,0.1,0.083,0.1,0.083c0.077,0.076,0.103,0.103,0.103,0.103
			c0.052,0.059,0.079,0.091,0.079,0.091c0.053,0.066,0.08,0.101,0.08,0.101c0.416,0.569,0.672,1.125,0.964,1.746
			c0.467,1.026,0.919,2.197,1.317,3.253c0.919,2.421,2.606,7.376,3.73,9.642c0.231,0.469,0.525,1.019,0.831,1.425
			c0.058,0.075,0.087,0.111,0.087,0.111c0.057,0.068,0.086,0.1,0.086,0.1c0.057,0.061,0.085,0.089,0.085,0.089
			c0.056,0.053,0.083,0.078,0.083,0.078c0.082,0.067,0.109,0.087,0.109,0.087c0.08,0.051,0.107,0.065,0.107,0.065
			c0.079,0.035,0.104,0.044,0.104,0.044c0.072,0.017,0.084,0.019,0.084,0.019c0.08,0.004,0.092,0.004,0.092,0.004
			c0.079-0.011,0.09-0.013,0.09-0.013c0.077-0.025,0.088-0.029,0.088-0.029c0.076-0.038,0.086-0.044,0.086-0.044
			c0.075-0.05,0.085-0.058,0.085-0.058c0.074-0.061,0.084-0.071,0.084-0.071c0.073-0.071,0.093-0.093,0.093-0.093
			c0.062-0.069,0.082-0.094,0.082-0.094c0.061-0.076,0.082-0.103,0.082-0.103c0.404-0.542,0.739-1.24,1.157-1.73
			c0.07-0.079,0.094-0.104,0.094-0.104c0.072-0.073,0.096-0.096,0.096-0.096c0.074-0.065,0.086-0.076,0.086-0.076
			c0.075-0.058,0.088-0.067,0.088-0.067c0.077-0.05,0.09-0.058,0.09-0.058c0.079-0.042,0.092-0.048,0.092-0.048
			c0.081-0.033,0.095-0.037,0.095-0.037c0.069-0.02,0.083-0.023,0.083-0.023c0.071-0.012,0.085-0.014,0.085-0.014
			c0.072-0.004,0.107-0.004,0.107-0.004c0.071,0.005,0.107,0.01,0.107,0.01c0.073,0.014,0.11,0.024,0.11,0.024
			c0.075,0.023,0.113,0.037,0.113,0.037c0.077,0.032,0.116,0.05,0.116,0.05c0.079,0.041,0.118,0.063,0.118,0.063
			c0.08,0.049,0.121,0.076,0.121,0.076c0.72,0.516,1.173,1.15,1.681,1.831c1.925,2.728,4.136,7.048,5.847,9.933
			c0.845,1.435,1.755,2.944,2.759,4.272c0.584,0.759,1.281,1.601,2.084,2.09c0.048,0.028,0.096,0.055,0.096,0.055
			c0.048,0.025,0.095,0.049,0.095,0.049c0.047,0.023,0.095,0.044,0.095,0.044c0.047,0.02,0.094,0.038,0.094,0.038
			c0.07,0.025,0.094,0.033,0.094,0.033c0.07,0.021,0.093,0.027,0.093,0.027c0.069,0.017,0.092,0.022,0.092,0.022
			c0.068,0.013,0.091,0.016,0.091,0.016c0.068,0.009,0.09,0.011,0.09,0.011c0.067,0.005,0.089,0.006,0.089,0.006
			c0.067,0.001,0.089,0.001,0.089,0.001c0.066-0.002,0.088-0.003,0.088-0.003c0.065-0.006,0.087-0.008,0.087-0.008
			c0.065-0.009,0.086-0.012,0.086-0.012c0.064-0.012,0.086-0.016,0.086-0.016c0.064-0.015,0.085-0.02,0.085-0.02
			c0.064-0.018,0.085-0.024,0.085-0.024c0.063-0.021,0.084-0.028,0.084-0.028c0.119-0.043,0.181-0.072,0.249-0.104
			c0.082-0.041,0.123-0.062,0.123-0.062c0.081-0.045,0.122-0.069,0.122-0.069c0.315-0.186,0.586-0.403,0.797-0.573
			c0.334-0.276,0.945-0.798,1.273-1.015c0.263-0.177,0.435-0.272,0.667-0.37c0.064-0.026,0.086-0.034,0.086-0.034
			c0.065-0.023,0.087-0.03,0.087-0.03c0.065-0.02,0.087-0.027,0.087-0.027c0.066-0.018,0.088-0.023,0.088-0.023
			c0.066-0.015,0.089-0.019,0.089-0.019c0.067-0.012,0.089-0.015,0.089-0.015c0.068-0.009,0.09-0.011,0.09-0.011
			c0.068-0.005,0.091-0.006,0.091-0.006c0.069-0.002,0.092-0.002,0.092-0.002c0.07,0.002,0.093,0.003,0.093,0.003
			c0.075,0.006,0.112,0.01,0.112,0.01c0.076,0.01,0.113,0.017,0.113,0.017c0.076,0.015,0.115,0.023,0.115,0.023
			c0.077,0.019,0.116,0.03,0.116,0.03c0.078,0.023,0.117,0.036,0.117,0.036c0.079,0.028,0.118,0.042,0.118,0.042
			c0.08,0.032,0.12,0.048,0.12,0.048c0.867,0.391,1.502,0.962,2.182,1.589c1.453,1.374,3.302,3.604,4.715,5.027
			c0.611,0.615,1.257,1.224,1.961,1.731c0.547,0.392,1.201,0.762,1.841,0.865c0.059,0.009,0.088,0.013,0.088,0.013
			c0.058,0.007,0.087,0.01,0.087,0.01c0.341,0.031,0.655-0.012,0.93-0.086c0.844-0.242,1.448-0.705,2.107-1.216
			c0.78-0.612,1.715-1.491,2.636-1.839c0.073-0.026,0.098-0.035,0.098-0.035c0.074-0.023,0.098-0.031,0.098-0.031
			c0.074-0.02,0.098-0.026,0.098-0.026c0.074-0.017,0.099-0.022,0.099-0.022c0.074-0.014,0.099-0.018,0.099-0.018
			c0.074-0.01,0.099-0.013,0.099-0.013c0.075-0.006,0.099-0.008,0.099-0.008c0.062-0.002,0.093-0.003,0.093-0.003
			c0.062,0,0.093,0.001,0.093,0.001c0.062,0.003,0.093,0.006,0.093,0.006c0.062,0.006,0.093,0.01,0.093,0.01
			c0.062,0.009,0.094,0.014,0.094,0.014c0.063,0.011,0.094,0.017,0.094,0.017c0.063,0.014,0.094,0.021,0.094,0.021
			c0.933,0.254,1.628,0.829,2.319,1.404c0.967,0.828,2.341,2.234,3.307,3.056c0.86,0.74,1.844,1.473,2.876,1.883
			c0.678,0.272,1.406,0.415,2.135,0.455c1.639,0.087,3.292-0.299,4.875-0.685c1.896-0.467,3.972-1.051,5.92-1.08
			c2.16-0.041,4.294,0.565,6.22,1.516c6.256,3.072,10.734,9.614,15.062,14.871c3.219,3.941,6.829,7.659,11.09,10.476
			c6.445,4.301,15.396,7.716,22.747,3.713c2.66-1.449,4.978-3.611,6.439-6.278c0.839-1.542,1.388-3.411,1.076-5.157
			c-0.172-0.967-0.588-1.778-1.139-2.532c-0.851-1.147-1.974-2.072-3.132-2.895c-3.365-2.392-7.581-4.074-10.865-6.583
			c-1.818-1.394-3.304-3.206-4.257-5.292c-0.593-1.266-1.032-2.629-1.397-3.978c-0.982-3.73-1.854-8.64-3.029-12.302
			c-1.107-3.578-2.636-7.078-4.84-10.122c-5.165-7.154-14.172-12.922-21.055-18.337c-2.443-1.921-4.886-3.981-7.003-6.259
			c-1.963-2.101-3.716-4.42-5.157-6.91c-2.243-3.849-3.72-8.129-4.686-12.467c-1.037-4.667-1.537-9.487-1.624-14.265
			c-0.099-4.929,0.316-9.924,1.091-14.792c0.913-5.889,2.387-12.414,2.794-18.356c0.386-5.502-0.008-11.139-0.547-16.621
			c4.484-1.04,9.268-2.962,13.93-2.767c2.86,0.118,5.662,0.961,8.368,1.843c4.246,1.4,8.782,3.087,13.308,2.97
			c3.18-0.07,6.322-0.875,9.354-1.784c2.117-0.649,6.674-2.19,8.777-2.645c1.982,1.018,4.174,1.69,6.411,1.741
			c3.201,0.088,6.336-1.064,8.982-2.814c1.783-0.025,3.477-0.777,4.958-1.723c2.159-1.409,4.27-3.672,4.278-6.381
			c0.107-1.912,0.228-3.948-0.025-5.847c-0.448-3.453-1.741-7.41-2.68-10.778c1.493-3.733,2.968-7.646,3.814-11.576
			c0.621-2.843,0.945-5.775,0.875-8.685c-0.081-3.611-0.773-7.272-1.518-10.801c-0.82-3.909-2.235-9.234-2.511-13.185
			c-0.072-1.082-0.049-2.186,0.116-3.259c0.165-1.108,0.483-2.202,0.851-3.258l1.508-4.118c1.143-3.266,1.845-6.729,2.392-10.141
			c0.635-4.07,1.056-8.259,1.149-12.379c0.034-2.007,0.002-4.081-0.253-6.072c-0.159-1.168-0.39-2.457-0.928-3.499
			c-0.123-0.232-0.243-0.411-0.36-0.56c-0.065-0.08-0.087-0.106-0.087-0.106c-0.067-0.075-0.09-0.099-0.09-0.099
			c-0.069-0.07-0.093-0.092-0.093-0.092c-0.072-0.065-0.096-0.086-0.096-0.086c-0.074-0.06-0.099-0.079-0.099-0.079
			c-0.076-0.055-0.102-0.072-0.102-0.072c-0.078-0.05-0.105-0.066-0.105-0.066c-0.081-0.045-0.108-0.06-0.108-0.06
			c-0.055-0.027-0.083-0.041-0.083-0.041c-0.056-0.025-0.085-0.037-0.085-0.037c-0.057-0.023-0.086-0.034-0.086-0.034
			c-0.059-0.02-0.088-0.03-0.088-0.03c-0.06-0.018-0.09-0.027-0.09-0.027c-0.061-0.016-0.092-0.023-0.092-0.023
			c-0.062-0.014-0.094-0.02-0.094-0.02c-0.063-0.011-0.095-0.017-0.095-0.017c-0.065-0.009-0.097-0.013-0.097-0.013
			c-0.995-0.096-1.881,0.217-2.742,0.54c-1.185,0.471-2.335,1.105-3.426,1.763c-3.846,2.388-7.447,5.268-10.584,8.534
			c-1.876,1.965-3.539,4.17-5.025,6.442c-0.91,1.363-2.005,3.238-3.139,4.412c-0.788,0.848-1.85,1.589-2.911,1.984
			c-1.297,0.495-2.603,0.625-3.967,0.675c-4.8,0.111-10.565-1.068-15.335-1.725c-4.375-0.659-8.968-0.887-13.393-0.95
			c-1.261-1.711-2.817-3.211-4.569-4.414c-1.656-1.138-3.506-2.002-5.39-2.691c-2.482-0.903-5.109-1.532-7.701-2.032
			c-4.479-0.789-16.917-2.685-21.415-3.259c-0.776-0.077-1.597-0.135-2.377-0.13c-0.743,0.004-1.552,0.073-2.176,0.387
			c-0.081,0.043-0.108,0.057-0.108,0.057c-0.079,0.046-0.105,0.062-0.105,0.062c-0.076,0.05-0.101,0.068-0.101,0.068
			c-0.074,0.054-0.098,0.073-0.098,0.073c-0.071,0.058-0.094,0.079-0.094,0.079c-0.068,0.063-0.09,0.084-0.09,0.084
			c-0.065,0.067-0.087,0.09-0.087,0.09c-0.062,0.072-0.083,0.096-0.083,0.096c-0.06,0.077-0.079,0.103-0.079,0.103
			c-0.057,0.081-0.075,0.109-0.075,0.109c-0.036,0.057-0.054,0.086-0.054,0.086c-0.034,0.06-0.051,0.09-0.051,0.09
			c-0.033,0.062-0.049,0.094-0.049,0.094c-0.031,0.065-0.047,0.098-0.047,0.098c-0.268,0.618-0.342,1.164-0.401,1.801
			c-0.062,0.781-0.037,1.587,0.019,2.368c-4.143-0.634-42.285-6.84-45.311-7.183c-2.303-0.293-4.758-0.543-7.074-0.626
			c-1.779-0.066-3.642-0.039-5.416,0.111c-2.775,0.194-8.717,1.256-11.53,1.681c-3.659,0.54-7.434,0.888-11.13,0.961
			c-5.368,0.111-10.98-0.295-16.329-0.78c-20.958-1.9-50.552-7.382-71.539-8.665c-5.649-0.31-11.425-0.203-17.063,0.281
			c-3.659,0.344-11.322,1.164-14.798,1.28c-4.888,0.18-10.961,0.176-15.799,0.57c-4.081,0.322-8.204,0.956-12.163,2.008
			c-8.8,2.263-20.121,7.457-28.645,10.787c-2.747,1.077-5.779,2.136-8.599,2.987c-3.724,1.113-10.507,2.964-14.031,4.355
			c-2.825,1.067-5.613,2.42-8.235,3.916c-6.988,3.939-15.533,10.411-22.206,14.922c-3.511,2.375-8.981,5.822-12.192,8.53
			c-2.891,2.375-5.44,5.202-7.321,8.445c-3.041,5.116-5.246,11.51-8.029,16.764c-0.76,1.444-1.639,2.908-2.574,4.247
			c-1.401,2.024-4.28,5.567-5.778,7.49c-2.048,2.697-3.836,5.685-4.626,9.008c-1.539,6.272-0.815,13.395-1.825,19.744
			c-0.388,2.519-1.239,4.969-2.239,7.307c-1.396,3.236-3.171,6.878-3.679,10.377c-1.184,7.877,1.072,17.123,2.265,24.934
			c0.416,2.759,0.796,5.606,0.629,8.399c-0.104,1.602-0.404,3.227-1.146,4.664c-1.241,2.387-3.576,3.91-5.395,5.802
			c-0.688,0.708-1.379,1.604-1.764,2.474c-0.675,1.483-0.862,3.321-1.156,4.905c-0.282,1.609-0.803,3.421-2.062,4.488
			c-1.165,0.99-2.594,1.449-4.027,1.883c-1.901,0.556-4.557,1.093-6.405,1.786c-0.832,0.312-1.658,0.69-2.372,1.226
			c-0.32,0.242-0.571,0.484-0.769,0.713c-0.063,0.075-0.093,0.113-0.093,0.113c-0.576,0.737-0.83,1.489-1.008,2.36
			c-0.198,1.025-0.225,2.101-0.23,3.144c-0.021,2.972,0.314,6.51-1.705,8.948c-1.303,1.588-3.111,2.652-4.878,3.648
			c-3.224,1.804-6.911,3.388-9.468,6.13c-0.705,0.761-1.323,1.656-1.75,2.592c-0.573,1.241-0.893,2.595-1.062,3.948
			c-0.226,1.841-0.183,3.728-0.031,5.573c0.307,4.023,1.501,9.334,2.227,13.335c0.332,1.901,0.628,3.856,0.6,5.789
			c0.009,2.273-0.557,4.651-0.506,6.924c0.028,1.295,0.304,2.58,0.676,3.816c1.167,3.957,4.255,9.786,6.01,13.568
			c1.772,3.768,3.353,8.041,5.565,11.57c1.307,2.078,2.911,3.997,4.789,5.583c1.568,1.324,3.345,2.422,5.267,3.148
			c1.947,0.734,4.034,1.087,6.111,1.116c2.156,0.021,4.347-0.288,6.35-1.109c1.263-0.516,2.588-1.365,3.379-2.443
			c1.736-2.273,0.479-4.95-0.876-7.03c-1.401-2.118-3.44-4.374-4.913-6.445c-1.366-1.893-2.571-3.94-3.382-6.134
			c-1.819-4.851-1.487-10.232-0.462-15.226c0.457-2.139,1.088-4.272,1.921-6.296c0.599-1.44,1.308-2.867,2.202-4.148
			c0.77-1.106,1.799-2.231,3.021-2.768c1.026-0.461,2.024-0.541,3.1-0.569c1.549-0.015,3.387,0.046,4.852-0.453
			c2.607-0.874,4.95-2.958,7.127-4.587c1.381-1.026,2.897-2.26,4.562-2.724c0.779-0.2,1.482-0.109,2.22,0.074l1.04,0.274
			c0.719,0.192,1.554,0.279,2.256,0.114c0.736-0.164,1.31-0.482,1.916-0.865c0.745-0.481,1.456-1.059,2.127-1.638
			c2.378-2.07,5.129-5.043,7.506-7.117c0.752-0.651,1.545-1.296,2.391-1.823c0.624-0.386,1.361-0.754,2.065-0.828
			c0.071-0.006,0.094-0.008,0.094-0.008c0.07-0.004,0.093-0.005,0.093-0.005c0.069-0.001,0.092-0.001,0.092-0.001
			c0.068,0.001,0.091,0.002,0.091,0.002c0.067,0.004,0.09,0.005,0.09,0.005c0.232,0.019,0.419,0.063,0.598,0.118
			c0.082,0.027,0.122,0.041,0.122,0.041c0.08,0.03,0.12,0.046,0.12,0.046c0.941,0.382,1.634,1.127,2.492,1.545
			c0.066,0.03,0.1,0.044,0.1,0.044c0.066,0.027,0.1,0.039,0.1,0.039c0.067,0.023,0.1,0.034,0.1,0.034
			c0.067,0.02,0.084,0.024,0.084,0.024c0.067,0.016,0.084,0.02,0.084,0.02c0.068,0.013,0.085,0.015,0.085,0.015
			c0.068,0.009,0.085,0.011,0.085,0.011c0.068,0.005,0.085,0.006,0.085,0.006c0.069,0.001,0.086,0.001,0.086,0.001
			c0.069-0.003,0.087-0.004,0.087-0.004c0.077-0.008,0.097-0.011,0.097-0.011c0.08-0.014,0.1-0.018,0.1-0.018
			c0.08-0.02,0.101-0.025,0.101-0.025c0.081-0.025,0.101-0.032,0.101-0.032c0.082-0.03,0.102-0.039,0.102-0.039
			c0.082-0.036,0.103-0.045,0.103-0.045c0.608-0.3,1.022-0.707,1.469-1.159c0.546-0.568,1.076-1.235,1.561-1.857l2.655-3.515
			c0.444,3.924,0.954,8.062,1.887,11.893c0.388,1.538,0.84,3.097,1.621,4.487c0.431,0.789,0.989,1.691,1.611,2.294
			c0.082,0.077,0.109,0.102,0.109,0.102c0.081,0.071,0.108,0.094,0.108,0.094c0.08,0.065,0.107,0.085,0.107,0.085
			c0.08,0.059,0.106,0.077,0.106,0.077c0.079,0.052,0.106,0.069,0.106,0.069c0.079,0.046,0.105,0.06,0.105,0.06
			c0.078,0.04,0.104,0.052,0.104,0.052c0.077,0.034,0.103,0.044,0.103,0.044c0.077,0.027,0.089,0.032,0.089,0.032
			c0.076,0.022,0.089,0.025,0.089,0.025c0.076,0.017,0.088,0.019,0.088,0.019c0.075,0.011,0.088,0.013,0.088,0.013
			c0.075,0.006,0.087,0.006,0.087,0.006c0.074,0,0.086,0,0.086,0c0.073-0.005,0.086-0.006,0.086-0.006
			c0.073-0.011,0.085-0.013,0.085-0.013c0.072-0.016,0.084-0.019,0.084-0.019c0.071-0.017,0.083-0.019,0.083-0.019
			c0.081-0.009,0.093-0.009,0.093-0.009c0.079,0.003,0.09,0.004,0.09,0.004c0.077,0.015,0.087,0.018,0.087,0.018
			c0.074,0.027,0.085,0.032,0.085,0.032c0.082,0.046,0.092,0.052,0.092,0.052c0.079,0.061,0.089,0.07,0.089,0.07
			c0.076,0.077,0.085,0.087,0.085,0.087c0.064,0.08,0.073,0.092,0.073,0.092c0.053,0.078,0.062,0.092,0.062,0.092
			c0.034,0.057,0.051,0.087,0.051,0.087c0.033,0.062,0.05,0.095,0.05,0.095c0.032,0.068,0.048,0.103,0.048,0.103
			c0.253,0.599,0.348,1.147,0.449,1.77c0.141,0.955,0.207,1.955,0.247,2.92c0.049,1.603,0.087,3.296,0.286,4.887
			c0.098,0.742,0.225,1.587,0.515,2.267c0.028,0.062,0.043,0.092,0.043,0.092c0.029,0.057,0.044,0.085,0.044,0.085
			c0.045,0.078,0.052,0.09,0.052,0.09c0.054,0.081,0.062,0.092,0.062,0.092c0.064,0.08,0.072,0.089,0.072,0.089
			c0.074,0.073,0.083,0.08,0.083,0.08c0.077,0.056,0.086,0.061,0.086,0.061c0.108,0.055,0.154,0.064,0.178,0.075
			c0.077,0.038,0.085,0.042,0.085,0.042c0.08,0.053,0.088,0.059,0.088,0.059c0.082,0.071,0.09,0.078,0.09,0.078
			c0.069,0.077,0.076,0.085,0.076,0.085c0.052,0.07,0.064,0.088,0.064,0.088c0.048,0.078,0.06,0.098,0.06,0.098
			c0.034,0.064,0.044,0.086,0.044,0.086c0.031,0.069,0.041,0.093,0.041,0.093c0.029,0.074,0.038,0.099,0.038,0.099
			c0.182,0.534,0.206,1.028,0.224,1.53c0.014,0.689-0.038,1.399-0.112,2.084c-0.271,2.402-0.889,4.79-1.592,7.099
			c-0.673,2.168-1.534,4.337-1.727,6.618c-0.102,1.127-0.04,2.403,0.474,3.409c0.692,1.353,1.852,2.409,3.152,3.006
			c0.307,0.14,0.471,0.207,0.755,0.307c0.302,0.107,0.712,0.21,0.982,0.336c1.798,0.808,2.853,2.503,3.649,4.197
			c0.41,0.884,0.713,1.845,1.133,2.725c0.492,1.054,1.082,2.075,1.788,3.001c0.918,1.222,2.063,2.273,3.341,3.109
			c1.346,0.916,2.775,1.792,4.221,2.541c1.186,0.604,2.421,1.192,3.706,1.549c1.837,0.521,3.762,0.723,5.668,0.759
			c9.263-0.007,25.837,0.046,35.138-0.022c1.096-0.039,2.306-0.104,3.397-0.223c1.892-0.203,3.804-0.535,5.605-1.163
			c1.298-0.443,2.542-1.103,3.526-2.07c0.889-0.858,1.567-1.926,2.033-3.068c0.395-0.947,0.632-1.963,0.82-2.969
			c0.241-1.307,0.401-2.654,0.342-3.984c-0.044-0.946-0.202-1.902-0.584-2.774c-0.697-1.54-2.036-2.43-3.481-3.096
			c-1.537-0.686-3.201-1.089-4.858-1.354c-2.586-0.403-5.261-0.469-7.875-0.397c-3.559,0.144-7.235,0.44-10.708-0.536
			c-2.129-0.579-3.867-2.057-5.123-3.834c-0.528-0.74-0.987-1.549-1.382-2.367c-0.307-0.645-0.606-1.328-0.778-2
			c-0.39-1.454-0.474-2.98-0.425-4.479c0.103-2.733,0.642-5.459,1.311-8.105c0.988-3.731,2.088-8.135,3.32-11.773
			c1.523-4.365,3.923-8.669,5.953-12.817c1.086-2.256,2.089-4.677,2.92-7.039c1.136-3.094,1.835-6.406,2.87-9.532
			c0.421-1.213,0.871-2.48,1.569-3.56c0.098-0.146,0.172-0.241,0.228-0.311c0.05-0.06,0.075-0.089,0.075-0.089
			c0.075-0.082,0.099-0.108,0.099-0.108c0.074-0.072,0.098-0.095,0.098-0.095c0.073-0.063,0.086-0.072,0.086-0.072
			c0.073-0.054,0.085-0.063,0.085-0.063c0.072-0.046,0.084-0.053,0.084-0.053c0.072-0.048,0.084-0.057,0.084-0.057
			c0.071-0.058,0.083-0.068,0.083-0.068c0.082-0.08,0.094-0.092,0.094-0.092c0.07-0.079,0.081-0.093,0.081-0.093
			c0.046-0.058,0.069-0.089,0.069-0.089c0.046-0.064,0.069-0.097,0.069-0.097c0.045-0.07,0.068-0.106,0.068-0.106
			c0.523-0.896,0.765-1.861,1.018-2.85c0.639-2.637,0.908-5.432,1.298-8.114c0.228-1.463,0.504-2.958,0.923-4.379
			c0.247-0.82,0.564-1.71,1.035-2.417c0.057-0.082,0.085-0.121,0.085-0.121c0.057-0.076,0.086-0.113,0.086-0.113
			c0.058-0.071,0.087-0.104,0.087-0.104c0.059-0.065,0.088-0.096,0.088-0.096c0.074-0.074,0.089-0.088,0.089-0.088
			c0.075-0.067,0.09-0.079,0.09-0.079c0.076-0.06,0.091-0.071,0.091-0.071c0.077-0.053,0.092-0.063,0.092-0.063
			c0.107-0.064,0.156-0.087,0.183-0.104c0.072-0.054,0.086-0.067,0.086-0.067c0.071-0.071,0.085-0.087,0.085-0.087
			c0.056-0.069,0.069-0.088,0.069-0.088c0.055-0.08,0.069-0.102,0.069-0.102c0.041-0.068,0.054-0.091,0.054-0.091
			c0.04-0.074,0.054-0.1,0.054-0.1c0.486-1.044,0.644-2.093,0.849-3.197c0.819-5.257,1.013-11.008,1.253-16.332
			c3.126,1.325,6.531,2.248,9.95,2.002c1.707-0.123,3.374-0.615,4.973-1.204l2.942-1.128c1.142-0.404,2.48-0.886,3.667-0.619
			c0.06,0.015,0.089,0.023,0.089,0.023c0.059,0.017,0.088,0.026,0.088,0.026c0.058,0.019,0.087,0.029,0.087,0.029
			c0.057,0.021,0.085,0.033,0.085,0.033c0.067,0.029,0.09,0.039,0.09,0.039c0.066,0.031,0.088,0.042,0.088,0.042
			c0.065,0.034,0.087,0.046,0.087,0.046c0.122,0.069,0.184,0.111,0.253,0.158c0.082,0.059,0.122,0.09,0.122,0.09
			c0.08,0.064,0.12,0.097,0.12,0.097c0.079,0.068,0.118,0.103,0.118,0.103c0.79,0.751,1.349,1.681,1.988,2.539
			c0.559,0.76,1.277,1.565,2.108,1.976c1.221,0.597,2.561,0.497,3.854,0.317c4.128-0.667,8.293-2.567,12.513-2.658
			c3.41-0.097,6.929,1.363,10.167,2.265c1.662,0.456,3.393,0.771,5.123,0.698c4.566-0.196,9.521-2.59,13.767-4.147
			c1.276-0.465,2.597-0.907,3.932-1.164c1.364-0.272,2.784-0.357,4.173-0.361c1.504,0.002,4.132,0.058,5.595-0.039
			c1.829-0.101,3.732-0.328,5.544-0.597c6.542-1.004,13.121-2.593,19.444-4.539c-1.032,2.51-2.234,5.302-2.926,7.915
			c-0.216,0.828-0.395,1.681-0.451,2.536c-0.093,1.273,0.115,2.508,0.513,3.697c0.392,1.178,0.978,2.552,1.038,3.789
			c0.054,0.846-0.061,1.56-0.251,2.358c-0.26,1.067-0.657,2.143-1.055,3.166c-0.921,2.349-2.476,5.745-3.01,8.18
			c-0.233,1.028-0.378,2.155-0.223,3.198c0.243,1.67,1.22,3.039,2.085,4.42c0.387,0.624,0.802,1.364,0.939,2.064
			c0.015,0.082,0.02,0.109,0.02,0.109c0.012,0.082,0.016,0.109,0.016,0.109c0.009,0.082,0.012,0.109,0.012,0.109
			c0.103,1.226-0.634,2.247-1.268,3.183c-0.719,1.038-1.808,2.286-2.196,3.486c-0.023,0.078-0.03,0.104-0.03,0.104
			c-0.019,0.077-0.025,0.103-0.025,0.103c-0.016,0.077-0.021,0.102-0.021,0.102c-0.012,0.076-0.016,0.101-0.016,0.101
			c-0.009,0.076-0.011,0.101-0.011,0.101c-0.005,0.075-0.006,0.1-0.006,0.1c-0.001,0.074,0,0.099,0,0.099
			c0.003,0.073,0.005,0.098,0.005,0.098c0.008,0.073,0.011,0.097,0.011,0.097c0.012,0.072,0.017,0.096,0.017,0.096
			c0.016,0.071,0.023,0.095,0.023,0.095c0.024,0.081,0.034,0.108,0.034,0.108c0.03,0.08,0.042,0.106,0.042,0.106
			c0.036,0.079,0.049,0.105,0.049,0.105c0.042,0.078,0.057,0.104,0.057,0.104c0.047,0.077,0.064,0.103,0.064,0.103
			c0.052,0.076,0.071,0.101,0.071,0.101c0.057,0.075,0.077,0.1,0.077,0.1c0.062,0.075,0.084,0.1,0.084,0.1
			c1.002,1.083,2.728,1.891,3.96,2.665c0.996,0.608,2.113,1.36,2.803,2.268c0.22,0.289,0.38,0.569,0.491,0.83
			c0.03,0.073,0.044,0.11,0.044,0.11c0.027,0.074,0.04,0.112,0.04,0.112c0.271,0.804,0.196,1.638,0.023,2.404
			c-0.194,0.838-0.525,1.65-0.889,2.427c-0.716,1.559-2.504,4.454-3.377,5.971c-0.547,0.973-1.09,1.982-1.476,3.031
			c-0.346,0.904-0.551,1.986-0.336,2.905c0.296,1.407,1.263,2.542,2.025,3.706c0.385,0.577,0.783,1.288,0.983,1.928
			c0.185,0.585,0.241,1.056,0.263,1.628c0.044,2.925-1.099,5.936-1.077,8.862c0.003,0.903,0.123,1.818,0.447,2.665
			c0.678,1.772,2.027,3.183,3.365,4.486c2.052,1.971,4.636,4.089,6.066,6.566c1.228,2.108,1.79,4.539,2.245,6.914
			c0.396,1.946,0.683,4.444,1.56,6.223c0.897,1.812,2.675,2.86,4.079,4.198c1.155,1.075,2.11,2.38,3.013,3.667
			c0.998,1.453,2.761,4.149,3.839,5.491c0.798,1.012,1.77,2.027,2.929,2.598c0.91,0.462,1.882,0.658,2.882,0.785
			c0.929,0.114,2.205,0.18,3.153,0.228c6.989,0.302,14.672,0.587,21.645,0.328c1.638-0.082,3.469-0.165,5.091-0.382
			c1.017-0.135,2.054-0.311,3.021-0.662c0.805-0.284,1.543-0.723,2.109-1.284c0.664-0.659,1.074-1.414,1.404-2.228
			c0.719-1.853,1.001-3.86,1.044-5.839c0.02-1.912-0.192-3.874-0.937-5.65c-0.361-0.881-0.987-1.795-1.689-2.357
			c-0.869-0.708-1.764-1.071-2.796-1.345c-1.155-0.295-2.363-0.399-3.552-0.433c-3.54-0.095-7.446,0.477-10.969,0.012
			c-1.658-0.21-3.432-0.768-4.738-1.792c-1.265-0.986-2.102-2.183-2.807-3.559c-0.716-1.429-1.197-2.977-1.498-4.544
			c-0.698-3.589-0.369-7.314,0.545-10.835c1.589-6.416,5.591-13.299,8.637-19.151c1.473-2.864,2.879-5.889,3.961-8.923
			c0.88-2.437,1.564-5.026,2.099-7.561c0.314-1.499,1.234-6.332,1.605-7.728c0.123-0.471,0.293-1.063,0.488-1.479
			c0.038-0.079,0.051-0.104,0.051-0.104c0.039-0.072,0.052-0.094,0.052-0.094c0.039-0.064,0.052-0.084,0.052-0.084
			c0.053-0.074,0.066-0.091,0.066-0.091c0.067-0.075,0.08-0.088,0.08-0.088c0.081-0.063,0.095-0.071,0.095-0.071
			c0.069-0.03,0.083-0.034,0.083-0.034c0.07-0.008,0.085-0.008,0.085-0.008c0.072,0.014,0.086,0.019,0.086,0.019
			c0.081,0.041,0.088,0.046,0.088,0.046c0.075,0.06,0.083,0.067,0.083,0.067c0.069,0.07,0.085,0.088,0.085,0.088
			c0.063,0.076,0.078,0.096,0.078,0.096c0.134,0.178,0.228,0.338,0.31,0.474c0.203,0.349,0.564,1.005,0.789,1.312
			c0.057,0.078,0.077,0.103,0.077,0.103c0.058,0.073,0.077,0.097,0.077,0.097c0.059,0.068,0.078,0.089,0.078,0.089
			c0.079,0.081,0.099,0.1,0.099,0.1c0.08,0.069,0.09,0.077,0.09,0.077c0.081,0.057,0.091,0.063,0.091,0.063
			c0.082,0.044,0.092,0.049,0.092,0.049c0.072,0.027,0.083,0.03,0.083,0.03c0.073,0.015,0.083,0.016,0.083,0.016
			c0.074,0.002,0.084,0.002,0.084,0.002c0.074-0.011,0.085-0.014,0.085-0.014c0.058-0.019,0.085-0.029,0.085-0.029
			c0.079-0.042,0.106-0.059,0.106-0.059c0.08-0.06,0.107-0.082,0.107-0.082c0.081-0.077,0.108-0.105,0.108-0.105
			c0.054-0.061,0.082-0.094,0.082-0.094c0.055-0.069,0.082-0.106,0.082-0.106c0.47-0.671,0.729-1.362,1.024-2.104
			c0.44-1.163,0.842-2.468,1.198-3.661c0.864-2.908,2.312-8.502,3.412-11.262c0.22-0.543,0.487-1.157,0.803-1.638
			c0.056-0.082,0.084-0.121,0.084-0.121c0.056-0.074,0.083-0.109,0.083-0.109c0.055-0.066,0.083-0.097,0.083-0.097
			c0.055-0.058,0.082-0.085,0.082-0.085c0.082-0.072,0.109-0.093,0.109-0.093c0.081-0.054,0.108-0.069,0.108-0.069
			c0.075-0.034,0.084-0.038,0.084-0.038c0.074-0.022,0.083-0.024,0.083-0.024c0.074-0.01,0.083-0.011,0.083-0.011
			c0.082,0.001,0.092,0.002,0.092,0.002c0.082,0.013,0.091,0.015,0.091,0.015c0.082,0.024,0.091,0.027,0.091,0.027
			c0.082,0.033,0.1,0.042,0.1,0.042c0.073,0.037,0.091,0.047,0.091,0.047c0.073,0.043,0.091,0.055,0.091,0.055
			c0.12,0.079,0.155,0.107,0.218,0.154c0.055,0.043,0.374,0.288,0.408,0.31c0.076,0.053,0.114,0.078,0.114,0.078
			c0.077,0.048,0.096,0.06,0.096,0.06c0.078,0.043,0.097,0.053,0.097,0.053c0.079,0.037,0.098,0.045,0.098,0.045
			c0.08,0.029,0.09,0.033,0.09,0.033c0.081,0.022,0.091,0.024,0.091,0.024c0.082,0.013,0.092,0.015,0.092,0.015
			c0.073,0.004,0.083,0.004,0.083,0.004c0.073-0.004,0.084-0.005,0.084-0.005c0.075-0.012,0.085-0.015,0.085-0.015
			c0.076-0.022,0.097-0.029,0.097-0.029c0.064-0.026,0.085-0.036,0.085-0.036c0.065-0.034,0.086-0.047,0.086-0.047
			c0.065-0.042,0.087-0.057,0.087-0.057c0.066-0.049,0.088-0.066,0.088-0.066c0.067-0.056,0.09-0.076,0.09-0.076
			c0.068-0.063,0.091-0.085,0.091-0.085c0.069-0.07,0.092-0.095,0.092-0.095c0.604-0.684,0.948-1.355,1.355-2.12
			c0.581-1.133,1.135-2.426,1.629-3.604C461.687,429.541,463.631,424.674,464.254,423.181z"/>
	</g>
</g>
</svg>
