<?xml version="1.0" encoding="utf-8"?>
<!-- Generator: Adobe Illustrator 24.2.0, SVG Export Plug-In . SVG Version: 6.00 Build 0)  -->
<!DOCTYPE svg PUBLIC "-//W3C//DTD SVG 1.1//EN" "http://www.w3.org/Graphics/SVG/1.1/DTD/svg11.dtd" [
	<!ENTITY ns_extend "http://ns.adobe.com/Extensibility/1.0/">
	<!ENTITY ns_ai "http://ns.adobe.com/AdobeIllustrator/10.0/">
	<!ENTITY ns_graphs "http://ns.adobe.com/Graphs/1.0/">
	<!ENTITY ns_vars "http://ns.adobe.com/Variables/1.0/">
	<!ENTITY ns_imrep "http://ns.adobe.com/ImageReplacement/1.0/">
	<!ENTITY ns_sfw "http://ns.adobe.com/SaveForWeb/1.0/">
	<!ENTITY ns_custom "http://ns.adobe.com/GenericCustomNamespace/1.0/">
	<!ENTITY ns_adobe_xpath "http://ns.adobe.com/XPath/1.0/">
]>
<svg version="1.1" xmlns:x="&ns_extend;" xmlns:i="&ns_ai;" xmlns:graph="&ns_graphs;"
	 xmlns="http://www.w3.org/2000/svg" xmlns:xlink="http://www.w3.org/1999/xlink" x="0px" y="0px" width="750px" height="750px"
	 viewBox="0 0 750 750" enable-background="new 0 0 750 750" xml:space="preserve">
<metadata>
	<sfw  xmlns="&ns_sfw;">
		<slices></slices>
		<sliceSourceBounds  bottomLeftOrigin="true" height="8995.771" width="8021.451" x="-5958.451" y="-734.928"></sliceSourceBounds>
	</sfw>
</metadata>
<g id="FILL-BACKGROUND">
	<rect x="0" fill="#FFFFFF" width="750" height="750"/>
</g>
<g id="N-TEXT">
</g>
<g id="N-DIMENSIONS">
</g>
<g id="AG-GUIDES">
</g>
<g id="AG-DETAIL-DIAGRAM">
</g>
<g id="AG-DIAGRAM">
	<g id="POLYLINE_75_">
		<g>
			<g>
				
					<line fill="none" stroke="#FB8604" stroke-width="3.25" stroke-linecap="round" stroke-linejoin="round" x1="90.37" y1="552.461" x2="92.37" y2="552.461"/>
				
					<line fill="none" stroke="#FB8604" stroke-width="3.25" stroke-linecap="round" stroke-linejoin="round" stroke-dasharray="4.0162,7.0283" x1="99.398" y1="552.461" x2="648.107" y2="552.461"/>
				
					<line fill="none" stroke="#FB8604" stroke-width="3.25" stroke-linecap="round" stroke-linejoin="round" x1="651.621" y1="552.461" x2="653.621" y2="552.461"/>
			</g>
		</g>
	</g>
</g>
<g id="AG-DETAILS">
</g>
<g id="AG-PEOPLE">
</g>
<g id="AG-ANIMALS">
	<g id="POLYLINE_706_">
		
			<path fill="none" stroke="#FB8604" stroke-width="2.75" stroke-linecap="round" stroke-linejoin="round" stroke-miterlimit="10" d="
			M506.6,424.438c4.758,3.247,10.163,5.702,15.819,6.853c1.276,0.263,3.654,0.704,4.89,1.019c1.695,0.408,3.506,1.151,4.696,2.383
			c1.27,1.303,2.008,2.756,2.799,4.33c0.717,1.486,1.998,4.373,2.829,5.751c0.75,1.276,1.711,2.569,2.957,3.238
			c0.093,0.049,0.14,0.072,0.14,0.072c0.095,0.045,0.142,0.067,0.142,0.067c1.006,0.447,2.066,0.475,3.064,0.411
			c1.193-0.074,2.911-0.439,4.101-0.653c1.389-0.237,3.012-0.508,4.324-0.003c0.073,0.03,0.109,0.045,0.109,0.045
			c0.072,0.032,0.107,0.049,0.107,0.049c0.105,0.053,0.14,0.072,0.14,0.072c0.102,0.058,0.136,0.079,0.136,0.079
			c0.104,0.067,0.142,0.093,0.142,0.093c0.074,0.054,0.111,0.081,0.111,0.081c0.072,0.057,0.108,0.087,0.108,0.087
			c0.105,0.092,0.139,0.124,0.139,0.124c0.101,0.099,0.134,0.134,0.134,0.134c0.065,0.07,0.097,0.106,0.097,0.106
			c0.955,1.138,1.33,2.461,1.719,3.825c0.596,2.229,1.074,5.239,1.777,7.428c0.302,0.963,0.753,2.069,1.319,2.876
			c1.427,2.085,3.925,2.685,6.152,3.442c1.316,0.441,2.772,1.074,3.653,2.129c1.493,1.788,2.027,4.284,2.83,6.405
			c0.478,1.31,1.104,2.774,2.084,3.736c0.093,0.089,0.124,0.118,0.124,0.118c0.096,0.085,0.128,0.113,0.128,0.113
			c0.099,0.082,0.132,0.108,0.132,0.108c1.544,1.179,3.501,1.262,5.29,1.123c2.51-0.236,4.959-1.007,7.265-2.004"/>
	</g>
	<g id="POLYLINE_705_">
		
			<path fill="none" stroke="#FB8604" stroke-width="2.75" stroke-linecap="round" stroke-linejoin="round" stroke-miterlimit="10" d="
			M644.858,492.538c-2.81,1.681-5.785,3.172-8.931,4.106c-6.401,1.921-13.328,1.916-19.781,0.234
			c-5.051-1.288-9.773-3.678-14.16-6.455c-5.646-3.583-10.978-7.86-15.93-12.346"/>
	</g>
	<g id="POLYLINE_703_">
		
			<path fill="none" stroke="#FB8604" stroke-width="2.75" stroke-linecap="round" stroke-linejoin="round" stroke-miterlimit="10" d="
			M586.056,478.076c-2.138-7.467-2.334-15.74,0.656-23.002c1.61-3.851,4.087-7.354,7.213-10.123
			c1.595-1.405,3.381-2.625,5.318-3.509c1.258-0.578,2.603-0.986,3.953-1.283c2.506-0.556,5.247-0.816,7.702-1.582
			c1.421-0.439,2.797-1.071,4.016-1.928c1.579-1.107,2.897-2.558,4.101-4.052c3.069-3.845,5.845-8.82,8.822-12.732
			c1.277-1.646,2.697-3.336,4.501-4.408c1.439-0.843,2.949-1.154,4.542-1.169c1.865-0.035,3.938,0.406,5.788,0.608"/>
	</g>
	<g id="POLYLINE_702_">
		
			<path fill="none" stroke="#FB8604" stroke-width="2.75" stroke-linecap="round" stroke-linejoin="round" stroke-miterlimit="10" d="
			M503.717,371.165c-0.276,3.618-0.425,7.333-0.038,10.944c0.529,5.021,1.866,10.006,3.287,14.841
			c1.443,4.995,3.8,11.289,5.239,16.289c0.32,1.179,0.615,2.415,0.783,3.626c0.199,1.452,0.27,3.16-0.366,4.481
			c-0.041,0.082-0.062,0.123-0.062,0.123c-0.044,0.08-0.066,0.12-0.066,0.12c-0.046,0.078-0.07,0.116-0.07,0.116
			c-0.049,0.076-0.074,0.113-0.074,0.113c-0.052,0.074-0.078,0.11-0.078,0.11c-0.054,0.071-0.082,0.106-0.082,0.106
			c-0.087,0.103-0.116,0.137-0.116,0.137c-0.092,0.098-0.116,0.123-0.116,0.123c-0.098,0.094-0.123,0.118-0.123,0.118
			c-0.103,0.09-0.13,0.112-0.13,0.112c-0.981,0.78-2.076,1.079-3.231,1.413c-1.434,0.409-3.242,0.732-4.46,1.598
			c-0.104,0.079-0.129,0.099-0.129,0.099c-0.099,0.082-0.123,0.103-0.123,0.103c-0.093,0.086-0.116,0.108-0.116,0.108
			c-0.088,0.09-0.109,0.113-0.109,0.113c-0.082,0.094-0.101,0.118-0.101,0.118c-0.076,0.099-0.095,0.125-0.095,0.125
			c-0.054,0.079-0.071,0.106-0.071,0.106c-0.05,0.082-0.066,0.11-0.066,0.11c-0.046,0.084-0.061,0.113-0.061,0.113
			c-0.043,0.087-0.056,0.117-0.056,0.117c-0.039,0.09-0.051,0.12-0.051,0.12c-0.035,0.092-0.046,0.123-0.046,0.123
			c-0.032,0.094-0.042,0.126-0.042,0.126c-0.028,0.097-0.037,0.129-0.037,0.129c-0.025,0.099-0.033,0.132-0.033,0.132
			c-0.283,1.412,0.037,2.716,0.434,4.025c0.524,1.615,1.278,3.169,2.165,4.614c3.511,7.227,19.538,40.896,22.895,47.182
			c3.495,6.661,7.414,13.621,11.49,19.923c2.044,3.158,4.333,6.512,6.583,9.524c1.631,2.16,3.364,4.353,5.261,6.281
			c1.26,1.245,2.706,2.617,4.412,3.134c1.647,0.516,3.405,0.616,5.121,0.604c3.282-0.04,6.597-0.602,9.82-1.189
			c4.883-0.789,9.969-1.255,14.84-0.165c4.171,0.923,6.604,3.761,7.524,7.785c0.91,4.513,1.313,9.178,1.423,13.778
			c0.021,1.532,0.089,3.279-0.255,4.761c-0.724,3.42-3.078,4.95-6.387,4.927c-15.184-0.078-43.9,0.155-59.179-0.091
			c-1.804-0.118-3.627-0.356-5.397-0.727c-5.16-1.062-10.066-3.383-14.104-6.775c-1.797-1.938-3.959-4.009-6.656-4.339
			c-1.298-0.201-2.882-0.052-4.118-0.418c-0.077-0.026-0.114-0.039-0.114-0.039c-0.074-0.028-0.11-0.043-0.11-0.043
			c-0.071-0.031-0.106-0.047-0.106-0.047c-0.102-0.051-0.119-0.06-0.119-0.06c-0.097-0.057-0.113-0.067-0.113-0.067
			c-0.092-0.062-0.107-0.073-0.107-0.073c-0.1-0.08-0.114-0.092-0.114-0.092c-0.105-0.102-0.118-0.115-0.118-0.115
			c-0.083-0.099-0.095-0.114-0.095-0.114c-0.071-0.102-0.083-0.12-0.083-0.12c-0.054-0.092-0.064-0.11-0.064-0.11
			c-0.049-0.097-0.058-0.117-0.058-0.117c-0.044-0.103-0.061-0.145-0.061-0.145c-0.032-0.087-0.047-0.131-0.047-0.131
			c-0.029-0.09-0.042-0.137-0.042-0.137c-0.139-0.513-0.168-0.841-0.22-1.32c-0.123-1.295-0.15-2.898-0.746-4.062
			c-0.055-0.104-0.083-0.156-0.083-0.156c-0.06-0.101-0.091-0.151-0.091-0.151c-0.065-0.098-0.081-0.122-0.081-0.122
			c-0.069-0.095-0.087-0.119-0.087-0.119c-0.074-0.092-0.092-0.115-0.092-0.115c-0.078-0.089-0.098-0.111-0.098-0.111
			c-0.081-0.084-0.109-0.111-0.109-0.111c-0.086-0.081-0.115-0.107-0.115-0.107c-0.091-0.077-0.122-0.103-0.122-0.103
			c-0.095-0.074-0.128-0.099-0.128-0.099c-0.099-0.072-0.133-0.095-0.133-0.095c-0.955-0.628-1.895-0.889-2.942-1.189
			c-2.097-0.587-4.836-1.016-6.517-2.442c-0.103-0.091-0.136-0.122-0.136-0.122c-0.098-0.095-0.131-0.127-0.131-0.127
			c-0.094-0.099-0.125-0.132-0.125-0.132c-0.13-0.148-0.155-0.183-0.203-0.244c-0.055-0.073-0.081-0.109-0.081-0.109
			c-0.052-0.075-0.077-0.113-0.077-0.113c-0.05-0.077-0.074-0.116-0.074-0.116c-0.047-0.079-0.07-0.119-0.07-0.119
			c-0.048-0.089-0.072-0.134-0.072-0.134c-0.045-0.091-0.067-0.138-0.067-0.138c-0.042-0.094-0.062-0.142-0.062-0.142
			c-0.332-0.825-0.415-1.534-0.461-2.381c-0.04-0.951,0.034-1.936,0.136-2.882c0.168-1.524,0.509-3.511,0.67-5.034
			c0.092-0.931,0.171-2.043-0.048-2.915c-0.021-0.078-0.032-0.116-0.032-0.116c-0.024-0.075-0.036-0.112-0.036-0.112
			c-0.026-0.072-0.04-0.107-0.04-0.107c-0.044-0.103-0.059-0.136-0.059-0.136c-0.049-0.096-0.067-0.127-0.067-0.127
			c-0.055-0.09-0.074-0.119-0.074-0.119c-0.061-0.083-0.082-0.109-0.082-0.109c-0.089-0.099-0.105-0.115-0.105-0.115
			c-0.097-0.088-0.114-0.102-0.114-0.102c-0.088-0.066-0.106-0.078-0.106-0.078c-0.094-0.059-0.113-0.07-0.113-0.07
			c-0.099-0.053-0.119-0.063-0.119-0.063c-0.104-0.047-0.125-0.056-0.125-0.056c-0.087-0.033-0.109-0.041-0.109-0.041
			c-0.09-0.03-0.135-0.044-0.135-0.044c-0.093-0.026-0.141-0.038-0.141-0.038c-0.096-0.022-0.145-0.032-0.145-0.032
			c-1.136-0.213-2.319-0.039-3.446-0.161c-0.152-0.017-0.249-0.034-0.298-0.042c-0.095-0.018-0.142-0.028-0.142-0.028
			c-0.092-0.021-0.138-0.033-0.138-0.033c-0.089-0.025-0.111-0.032-0.111-0.032c-0.086-0.028-0.107-0.036-0.107-0.036
			c-0.103-0.04-0.123-0.049-0.123-0.049c-0.097-0.046-0.116-0.055-0.116-0.055c-0.092-0.052-0.11-0.062-0.11-0.062
			c-0.103-0.07-0.119-0.082-0.119-0.082c-0.094-0.079-0.109-0.093-0.109-0.093c-0.085-0.089-0.104-0.112-0.104-0.112
			c-0.073-0.097-0.09-0.122-0.09-0.122c-0.048-0.079-0.063-0.107-0.063-0.107c-0.043-0.085-0.056-0.115-0.056-0.115
			c-0.038-0.091-0.049-0.122-0.049-0.122c-0.033-0.097-0.043-0.13-0.043-0.13c-0.028-0.102-0.036-0.137-0.036-0.137
			c-0.016-0.071-0.023-0.107-0.023-0.107c-0.154-0.91-0.039-1.692,0.065-2.543c0.171-1.229,0.629-3.556,0.773-4.778
			c0.176-1.465,0.291-3.159-0.253-4.535c-0.037-0.09-0.057-0.134-0.057-0.134c-0.04-0.088-0.061-0.131-0.061-0.131
			c-0.043-0.086-0.066-0.128-0.066-0.128c-0.048-0.087-0.075-0.132-0.075-0.132c-0.054-0.088-0.082-0.132-0.082-0.132
			c-0.058-0.086-0.087-0.128-0.087-0.128c-0.061-0.083-0.093-0.124-0.093-0.124c-0.065-0.081-0.098-0.12-0.098-0.12
			c-0.068-0.078-0.103-0.117-0.103-0.117c-0.071-0.076-0.108-0.113-0.108-0.113c-0.074-0.074-0.112-0.11-0.112-0.11
			c-0.949-0.863-1.971-1.248-3.123-1.624c-1.452-0.464-4.116-0.959-5.629-1.292c-1.742-0.408-3.737-0.921-5.087-2.113
			c-0.101-0.093-0.134-0.125-0.134-0.125c-1.14-1.123-1.606-2.518-2.031-3.963c-0.47-1.626-0.859-3.691-1.879-5.047
			c-0.076-0.098-0.102-0.13-0.102-0.13c-0.079-0.095-0.106-0.126-0.106-0.126c-0.083-0.092-0.111-0.122-0.111-0.122
			c-0.086-0.089-0.115-0.118-0.115-0.118c-0.09-0.086-0.12-0.114-0.12-0.114c-0.094-0.082-0.125-0.109-0.125-0.109
			c-0.098-0.079-0.131-0.104-0.131-0.104c-0.718-0.54-1.504-0.789-2.279-0.977c-0.794-0.184-1.624-0.284-2.436-0.353
			c-1.498-0.127-3.398-0.161-4.893-0.307c-1.065-0.109-2.279-0.292-3.17-0.794c-0.071-0.042-0.106-0.063-0.106-0.063
			c-0.102-0.066-0.136-0.089-0.136-0.089c-0.097-0.07-0.128-0.094-0.128-0.094c-0.091-0.074-0.12-0.1-0.12-0.1
			c-0.085-0.079-0.112-0.106-0.112-0.106c-0.098-0.105-0.117-0.127-0.117-0.127c-0.072-0.089-0.09-0.112-0.09-0.112
			c-0.067-0.093-0.083-0.117-0.083-0.117c-0.061-0.097-0.076-0.122-0.076-0.122c-0.056-0.101-0.069-0.127-0.069-0.127
			c-0.051-0.105-0.063-0.131-0.063-0.131c-0.035-0.081-0.046-0.108-0.046-0.108c-0.71-1.863-0.056-4.059-0.562-5.934
			c-0.033-0.104-0.042-0.13-0.042-0.13c-0.037-0.1-0.047-0.125-0.047-0.125c-0.041-0.097-0.052-0.12-0.052-0.12
			c-0.046-0.093-0.058-0.115-0.058-0.115c-0.05-0.088-0.064-0.11-0.064-0.11c-0.07-0.104-0.084-0.125-0.084-0.125
			c-0.078-0.097-0.094-0.116-0.094-0.116c-0.097-0.101-0.12-0.123-0.12-0.123c-0.1-0.085-0.126-0.105-0.126-0.105
			c-0.081-0.058-0.109-0.077-0.109-0.077c-0.086-0.054-0.116-0.071-0.116-0.071c-0.091-0.049-0.123-0.065-0.123-0.065
			c-0.096-0.045-0.129-0.059-0.129-0.059c-0.101-0.041-0.136-0.053-0.136-0.053c-0.993-0.332-1.934-0.281-2.906-0.238
			c-1.084,0.055-3.856,0.427-4.969,0.553c-1.634,0.165-3.49,0.327-5.061-0.127c-1.296-0.362-2.332-1.257-3.014-2.29
			c-0.696-1.051-1.084-2.044-1.481-3.18c-1.146-3.476-2.545-10.023-3.548-13.567c-1.164-4.215-2.429-8.621-4.147-12.643
			c-0.643-1.441-1.363-2.995-2.411-4.174c-0.086-0.091-0.128-0.134-0.128-0.134c-0.086-0.084-0.128-0.124-0.128-0.124
			c-0.085-0.077-0.128-0.113-0.128-0.113c-0.085-0.069-0.128-0.102-0.128-0.102c-0.085-0.062-0.127-0.091-0.127-0.091
			c-0.085-0.054-0.127-0.08-0.127-0.08c-0.084-0.047-0.127-0.068-0.127-0.068c-0.084-0.039-0.126-0.056-0.126-0.056
			c-0.084-0.031-0.126-0.044-0.126-0.044c-0.084-0.023-0.125-0.032-0.125-0.032c-0.083-0.015-0.125-0.02-0.125-0.02
			c-0.083-0.006-0.125-0.007-0.125-0.007c-0.083,0.002-0.124,0.006-0.124,0.006c-0.082,0.011-0.124,0.019-0.124,0.019
			c-0.082,0.02-0.123,0.032-0.123,0.032c-0.082,0.029-0.122,0.045-0.122,0.045c-0.098,0.046-0.122,0.059-0.122,0.059
			c-0.097,0.057-0.121,0.072-0.121,0.072c-0.097,0.067-0.121,0.084-0.121,0.084c-0.096,0.076-0.12,0.096-0.12,0.096
			c-0.096,0.085-0.12,0.108-0.12,0.108c-0.095,0.094-0.119,0.118-0.119,0.118c-0.587,0.635-0.929,1.245-1.341,1.963
			c-0.746,1.312-1.432,2.917-2.311,4.139c-0.081,0.106-0.122,0.156-0.122,0.156c-0.081,0.096-0.101,0.119-0.101,0.119
			c-0.081,0.087-0.101,0.108-0.101,0.108c-0.1,0.097-0.12,0.115-0.12,0.115c-0.1,0.082-0.12,0.097-0.12,0.097
			c-0.099,0.067-0.119,0.079-0.119,0.079c-0.099,0.051-0.118,0.06-0.118,0.06c-0.098,0.034-0.118,0.039-0.118,0.039
			c-0.098,0.017-0.117,0.018-0.117,0.018c-0.097-0.002-0.116-0.004-0.116-0.004c-0.101-0.023-0.132-0.033-0.132-0.033
			c-0.093-0.042-0.123-0.059-0.123-0.059c-0.092-0.061-0.123-0.085-0.123-0.085c-0.092-0.08-0.122-0.11-0.122-0.11
			c-0.091-0.098-0.122-0.134-0.122-0.134c-0.061-0.076-0.091-0.116-0.091-0.116c-0.061-0.084-0.091-0.129-0.091-0.129
			c-0.061-0.093-0.091-0.141-0.091-0.141c-0.742-1.278-1.138-2.682-1.585-4.074c-1.054-3.507-2.575-9.464-4.027-12.755
			c-0.549-1.248-1.228-2.621-2.174-3.586c-0.104-0.102-0.157-0.15-0.157-0.15c-0.106-0.094-0.159-0.138-0.159-0.138
			c-0.053-0.043-0.107-0.085-0.107-0.085c-0.054-0.04-0.108-0.079-0.108-0.079c-0.054-0.038-0.109-0.074-0.109-0.074
			c-0.055-0.035-0.11-0.068-0.11-0.068c-0.055-0.032-0.111-0.062-0.111-0.062c-0.056-0.029-0.111-0.056-0.111-0.056
			c-0.072-0.033-0.109-0.048-0.109-0.048c-0.073-0.029-0.11-0.042-0.11-0.042c-0.074-0.025-0.11-0.037-0.11-0.037
			c-0.074-0.022-0.111-0.031-0.111-0.031c-0.075-0.018-0.112-0.026-0.112-0.026c-0.075-0.015-0.113-0.021-0.113-0.021
			c-0.076-0.011-0.113-0.016-0.113-0.016c-0.076-0.008-0.114-0.011-0.114-0.011c-0.076-0.005-0.115-0.006-0.115-0.006
			c-0.077-0.002-0.115-0.002-0.115-0.002c-0.077,0.002-0.116,0.003-0.116,0.003c-0.078,0.005-0.116,0.008-0.116,0.008
			c-1.039,0.103-1.899,0.59-2.709,1.092c-1.389,0.854-2.802,2.223-4.243,2.976c-0.083,0.038-0.111,0.05-0.111,0.05
			c-0.081,0.034-0.108,0.044-0.108,0.044c-0.105,0.037-0.13,0.046-0.13,0.046c-0.101,0.029-0.126,0.035-0.126,0.035
			c-0.097,0.02-0.121,0.024-0.121,0.024c-0.093,0.01-0.116,0.012-0.116,0.012c-0.089,0-0.106-0.001-0.106-0.001
			c-0.099-0.012-0.115-0.015-0.115-0.015c-0.094-0.024-0.109-0.03-0.109-0.03c-0.104-0.044-0.118-0.051-0.118-0.051
			c-0.098-0.059-0.112-0.068-0.112-0.068c-0.106-0.085-0.118-0.096-0.118-0.096c-0.099-0.102-0.111-0.116-0.111-0.116
			c-0.082-0.103-0.094-0.118-0.094-0.118c-0.056-0.081-0.078-0.114-0.078-0.114c-0.065-0.105-0.086-0.142-0.086-0.142
			c-0.375-0.681-0.648-1.627-0.91-2.322c-0.139-0.384-0.379-0.95-0.55-1.259c-0.105-0.195-0.195-0.336-0.255-0.429
			c-0.061-0.09-0.093-0.134-0.093-0.134c-0.064-0.087-0.097-0.129-0.097-0.129c-0.067-0.083-0.101-0.124-0.101-0.124
			c-0.093-0.105-0.117-0.129-0.117-0.129c-0.095-0.096-0.12-0.12-0.12-0.12c-0.1-0.091-0.125-0.113-0.125-0.113
			c-0.104-0.086-0.13-0.107-0.13-0.107c-0.081-0.061-0.108-0.081-0.108-0.081c-0.975-0.681-2.026-0.876-3.137-1.07
			c-1.97-0.31-4.321-0.464-6.097-1.402c-1.489-0.765-2.821-2.108-4.064-3.206c-0.7-0.613-1.533-1.293-2.386-1.609
			c-0.091-0.033-0.121-0.043-0.121-0.043c-0.091-0.029-0.122-0.038-0.122-0.038c-0.092-0.025-0.122-0.033-0.122-0.033
			c-0.092-0.022-0.123-0.028-0.123-0.028c-0.093-0.018-0.124-0.023-0.124-0.023c-0.093-0.014-0.124-0.018-0.124-0.018
			c-0.094-0.01-0.125-0.012-0.125-0.012c-0.094-0.006-0.125-0.007-0.125-0.007c-0.095-0.001-0.126-0.001-0.126-0.001
			c-0.095,0.003-0.127,0.005-0.127,0.005c-0.096,0.008-0.128,0.011-0.128,0.011c-0.096,0.012-0.129,0.017-0.129,0.017
			c-0.072,0.012-0.108,0.019-0.108,0.019c-0.072,0.015-0.109,0.024-0.109,0.024c-1.268,0.343-2.184,1.126-3.175,1.888
			c-0.896,0.722-2.226,1.855-3.17,2.484c-0.85,0.574-1.81,1.084-2.76,1.203c-0.084,0.01-0.127,0.014-0.127,0.014
			c-0.084,0.007-0.127,0.009-0.127,0.009c-0.084,0.003-0.126,0.004-0.126,0.004c-0.084,0-0.126,0-0.126,0
			c-0.084-0.003-0.126-0.005-0.126-0.005c-0.084-0.006-0.126-0.011-0.126-0.011c-0.084-0.01-0.126-0.016-0.126-0.016
			c-0.084-0.013-0.126-0.021-0.126-0.021c-0.084-0.017-0.125-0.027-0.125-0.027c-0.089-0.022-0.134-0.035-0.134-0.035
			c-0.089-0.026-0.134-0.041-0.134-0.041c-0.089-0.031-0.134-0.047-0.134-0.047c-0.089-0.034-0.133-0.053-0.133-0.053
			c-0.089-0.038-0.133-0.058-0.133-0.058c-1.344-0.664-2.223-1.696-3.137-2.757c-0.81-0.966-2.067-2.695-2.852-3.698
			c-0.54-0.683-1.212-1.496-1.866-2.016c-0.102-0.079-0.136-0.104-0.136-0.104c-0.101-0.072-0.135-0.095-0.135-0.095
			c-0.1-0.065-0.133-0.085-0.133-0.085c-0.099-0.057-0.132-0.075-0.132-0.075c-0.098-0.05-0.131-0.065-0.131-0.065
			c-0.097-0.042-0.13-0.054-0.13-0.054c-0.097-0.033-0.129-0.043-0.129-0.043c-0.096-0.025-0.127-0.031-0.127-0.031
			c-0.095-0.016-0.126-0.019-0.126-0.019c-0.094-0.007-0.125-0.007-0.125-0.007c-0.093,0.003-0.124,0.005-0.124,0.005
			c-0.083,0.011-0.111,0.016-0.111,0.016c-0.082,0.019-0.11,0.026-0.11,0.026c-0.082,0.026-0.109,0.036-0.109,0.036
			c-0.081,0.034-0.108,0.046-0.108,0.046c-0.08,0.041-0.107,0.055-0.107,0.055c-0.08,0.048-0.106,0.065-0.106,0.065
			c-0.105,0.073-0.131,0.093-0.131,0.093c-0.104,0.084-0.13,0.106-0.13,0.106c-0.104,0.094-0.129,0.118-0.129,0.118
			c-0.727,0.739-1.137,1.525-1.633,2.388c-0.875,1.552-1.807,3.565-3.067,4.813c-0.095,0.09-0.126,0.119-0.126,0.119
			c-0.096,0.084-0.128,0.112-0.128,0.112c-0.097,0.079-0.13,0.104-0.13,0.104c-0.098,0.073-0.131,0.097-0.131,0.097
			c-0.1,0.068-0.133,0.089-0.133,0.089c-0.101,0.062-0.135,0.081-0.135,0.081c-0.102,0.055-0.137,0.073-0.137,0.073
			c-0.104,0.049-0.139,0.064-0.139,0.064c-0.105,0.042-0.141,0.055-0.141,0.055c-0.071,0.024-0.107,0.035-0.107,0.035
			c-0.08,0.022-0.123,0.033-0.123,0.033c-0.088,0.019-0.133,0.027-0.133,0.027c-0.089,0.014-0.134,0.02-0.134,0.02
			c-0.09,0.009-0.136,0.012-0.136,0.012c-0.091,0.004-0.137,0.005-0.137,0.005c-0.092-0.001-0.139-0.002-0.139-0.002
			c-0.094-0.005-0.141-0.009-0.141-0.009c-0.095-0.01-0.142-0.016-0.142-0.016c-0.096-0.014-0.144-0.023-0.144-0.023
			c-0.097-0.019-0.145-0.029-0.145-0.029c-0.098-0.023-0.147-0.035-0.147-0.035c-1.5-0.436-2.671-1.369-3.88-2.266
			c-1.639-1.258-3.634-2.966-5.413-3.982c-1.077-0.624-2.372-1.172-3.61-1.148c-0.976,0.018-1.833,0.357-2.629,0.814
			c-0.87,0.505-1.657,1.161-2.395,1.84c-1.246,1.144-2.921,3.012-4.15,4.18c-0.917,0.869-2.009,1.79-3.127,2.206
			c-0.101,0.036-0.151,0.053-0.151,0.053c-0.101,0.032-0.151,0.047-0.151,0.047c-0.101,0.028-0.151,0.04-0.151,0.04
			c-0.101,0.023-0.151,0.034-0.151,0.034c-0.101,0.019-0.151,0.027-0.151,0.027c-0.101,0.014-0.151,0.02-0.151,0.02
			c-0.101,0.009-0.151,0.013-0.151,0.013c-0.101,0.005-0.151,0.006-0.151,0.006c-0.101,0-0.141-0.001-0.141-0.001
			c-0.08-0.004-0.12-0.006-0.12-0.006c-0.08-0.007-0.12-0.011-0.12-0.011c-0.08-0.01-0.121-0.016-0.121-0.016
			c-1.099-0.181-1.958-0.756-2.784-1.362c-1.438-1.052-2.835-2.651-4.356-3.572c-0.089-0.049-0.119-0.064-0.119-0.064
			c-0.088-0.044-0.117-0.058-0.117-0.058c-0.087-0.039-0.115-0.051-0.115-0.051c-0.085-0.034-0.113-0.044-0.113-0.044
			c-0.084-0.029-0.112-0.037-0.112-0.037c-0.082-0.023-0.11-0.03-0.11-0.03c-0.081-0.017-0.108-0.022-0.108-0.022
			c-0.08-0.011-0.106-0.014-0.106-0.014c-0.104-0.006-0.129-0.006-0.129-0.006c-0.101,0.005-0.126,0.008-0.126,0.008
			c-0.099,0.016-0.123,0.022-0.123,0.022c-0.096,0.028-0.12,0.037-0.12,0.037c-0.092,0.04-0.111,0.049-0.111,0.049
			c-0.09,0.051-0.108,0.062-0.108,0.062c-0.105,0.074-0.122,0.088-0.122,0.088c-0.102,0.088-0.119,0.104-0.119,0.104
			c-0.099,0.101-0.115,0.118-0.115,0.118c-0.08,0.093-0.112,0.132-0.112,0.132c-0.063,0.081-0.094,0.123-0.094,0.123
			c-0.061,0.087-0.092,0.131-0.092,0.131c-0.288,0.441-0.419,0.722-0.628,1.153l-0.642,1.403c-0.11,0.238-0.331,0.669-0.439,0.846
			c-0.084,0.141-0.143,0.228-0.172,0.272c-0.059,0.084-0.088,0.124-0.088,0.124c-0.06,0.078-0.09,0.115-0.09,0.115
			c-0.092,0.105-0.107,0.122-0.107,0.122c-0.094,0.093-0.11,0.107-0.11,0.107c-0.097,0.08-0.113,0.092-0.113,0.092
			c-0.099,0.065-0.116,0.075-0.116,0.075c-0.102,0.05-0.119,0.057-0.119,0.057c-0.105,0.034-0.123,0.039-0.123,0.039
			c-0.09,0.015-0.109,0.017-0.109,0.017c-0.093,0.003-0.112,0.002-0.112,0.002c-0.101-0.012-0.133-0.018-0.133-0.018
			c-0.098-0.026-0.131-0.037-0.131-0.037c-0.1-0.04-0.134-0.056-0.134-0.056c-0.103-0.054-0.138-0.074-0.138-0.074
			c-0.07-0.044-0.106-0.067-0.106-0.067c-0.072-0.05-0.108-0.077-0.108-0.077c-0.073-0.056-0.11-0.086-0.11-0.086
			c-0.074-0.062-0.111-0.095-0.111-0.095c-1.098-1.043-1.786-2.233-2.585-3.466c-0.937-1.527-3.065-5.15-4.056-6.566
			c-0.637-0.922-1.44-2.011-2.277-2.696c-0.088-0.069-0.131-0.103-0.131-0.103c-0.087-0.064-0.13-0.094-0.13-0.094
			c-0.086-0.058-0.129-0.085-0.129-0.085c-0.085-0.051-0.128-0.075-0.128-0.075c-0.084-0.045-0.126-0.066-0.126-0.066
			c-0.083-0.038-0.125-0.056-0.125-0.056c-0.082-0.032-0.123-0.046-0.123-0.046c-0.081-0.025-0.122-0.035-0.122-0.035
			c-0.08-0.018-0.12-0.025-0.12-0.025c-0.079-0.01-0.119-0.014-0.119-0.014c-0.078-0.003-0.117-0.002-0.117-0.002
			c-0.077,0.005-0.111,0.009-0.111,0.009c-0.101,0.017-0.135,0.025-0.135,0.025c-0.1,0.029-0.133,0.041-0.133,0.041
			c-0.098,0.041-0.13,0.056-0.13,0.056c-0.096,0.052-0.128,0.071-0.128,0.071c-0.095,0.063-0.126,0.085-0.126,0.085
			c-0.093,0.073-0.124,0.099-0.124,0.099c-0.092,0.083-0.122,0.112-0.122,0.112c-0.09,0.093-0.12,0.125-0.12,0.125
			c-0.089,0.102-0.118,0.137-0.118,0.137c-0.872,1.141-1.275,2.362-1.761,3.658c-0.781,2.117-1.534,5.165-2.654,7.107
			c-0.074,0.119-0.124,0.191-0.149,0.228c-0.076,0.104-0.101,0.138-0.101,0.138c-0.076,0.095-0.102,0.125-0.102,0.125
			c-0.077,0.086-0.103,0.113-0.103,0.113c-0.104,0.099-0.131,0.122-0.131,0.122c-0.079,0.063-0.106,0.082-0.106,0.082
			c-0.081,0.052-0.108,0.068-0.108,0.068c-0.082,0.041-0.109,0.053-0.109,0.053c-0.083,0.03-0.107,0.036-0.107,0.036
			c-0.096,0.02-0.121,0.023-0.121,0.023c-0.098,0.006-0.123,0.006-0.123,0.006c-0.099-0.007-0.124-0.011-0.124-0.011
			c-0.101-0.02-0.126-0.027-0.126-0.027c-0.102-0.033-0.128-0.043-0.128-0.043c-0.103-0.045-0.129-0.058-0.129-0.058
			c-0.104-0.056-0.131-0.072-0.131-0.072c-0.106-0.067-0.132-0.085-0.132-0.085c-0.08-0.057-0.107-0.078-0.107-0.078
			c-0.081-0.063-0.108-0.086-0.108-0.086c-0.751-0.653-1.229-1.36-1.792-2.132c-1.029-1.423-2.077-3.205-3.412-4.338
			c-0.091-0.072-0.122-0.095-0.122-0.095c-0.091-0.066-0.122-0.087-0.122-0.087c-0.091-0.06-0.121-0.079-0.121-0.079
			c-0.091-0.054-0.121-0.071-0.121-0.071c-0.091-0.048-0.121-0.063-0.121-0.063c-0.09-0.041-0.12-0.054-0.12-0.054
			c-0.09-0.034-0.12-0.045-0.12-0.045c-0.09-0.027-0.12-0.035-0.12-0.035c-0.094-0.021-0.141-0.029-0.141-0.029
			c-0.094-0.012-0.141-0.015-0.141-0.015c-0.093-0.003-0.14-0.002-0.14-0.002c-0.093,0.006-0.139,0.011-0.139,0.011
			c-0.093,0.015-0.139,0.024-0.139,0.024c-0.092,0.023-0.138,0.037-0.138,0.037c-0.092,0.032-0.138,0.05-0.138,0.05
			c-0.091,0.04-0.137,0.062-0.137,0.062c-0.091,0.048-0.136,0.074-0.136,0.074c-0.091,0.056-0.136,0.086-0.136,0.086
			c-0.09,0.064-0.135,0.098-0.135,0.098c-0.09,0.072-0.135,0.109-0.135,0.109c-0.089,0.079-0.134,0.12-0.134,0.12
			c-0.089,0.086-0.133,0.131-0.133,0.131c-0.089,0.094-0.133,0.142-0.133,0.142c-0.905,1.045-1.449,2.219-2.001,3.457
			c-2.444,5.754-4.508,15.265-6.177,21.363c-0.993,3.613-2.205,7.278-3.692,10.718c-3.03,6.912-6.916,14.748-9.422,21.848
			c-0.958,2.701-1.839,5.504-2.383,8.32c-0.409,2.12-0.612,4.323-0.686,6.48c-0.071,2.778-0.034,7.141-0.432,9.846
			c-0.452,3.489-1.319,7-2.296,10.378c-0.849,3.053-2.443,6.982-2.361,10.16c0.08,2.364,0.975,4.439,2.127,6.431
			c1.145,1.666,2.8,2.666,4.594,3.415c2.361,0.961,4.916,1.425,7.439,1.713c4.76,0.481,9.8,0.836,14.583,0.85
			c2.539,0.01,5.144-0.215,7.658,0.241c1.225,0.212,2.608,0.63,3.567,1.395c0.08,0.065,0.119,0.098,0.119,0.098
			c0.077,0.067,0.114,0.101,0.114,0.101c0.073,0.069,0.109,0.104,0.109,0.104c0.07,0.071,0.104,0.107,0.104,0.107
			c0.066,0.073,0.099,0.11,0.099,0.11c0.065,0.077,0.097,0.117,0.097,0.117c0.063,0.081,0.095,0.123,0.095,0.123
			c0.775,1.091,1.099,2.264,1.399,3.528c0.49,2.24,0.65,4.593,0.734,6.882c0.073,2.567,0.075,5.214-0.276,7.761
			c-0.179,1.228-0.448,2.541-0.997,3.651c-0.05,0.096-0.064,0.119-0.064,0.119c-0.06,0.094-0.077,0.117-0.077,0.117
			c-0.072,0.092-0.091,0.115-0.091,0.115c-0.083,0.09-0.105,0.112-0.105,0.112c-0.094,0.088-0.119,0.11-0.119,0.11
			c-0.105,0.086-0.133,0.108-0.133,0.108c-0.086,0.063-0.116,0.084-0.116,0.084c-0.093,0.062-0.125,0.083-0.125,0.083
			c-0.737,0.453-1.44,0.659-2.204,0.878c-1.016,0.275-2.112,0.464-3.155,0.616c-2.736,0.388-5.75,0.55-8.518,0.657
			c-5.709,0.205-34.5,0.085-40.659,0.096c-3.159-0.055-6.387-0.237-9.5-0.794c-1.78-0.328-3.574-0.776-5.222-1.538
			c-1.908-0.884-3.518-2.306-4.927-3.846c-2.31-2.557-4.163-5.522-5.816-8.535"/>
	</g>
	<g id="POLYLINE_701_">
		
			<path fill="none" stroke="#FB8604" stroke-width="2.75" stroke-linecap="round" stroke-linejoin="round" stroke-miterlimit="10" d="
			M611.943,339.806c2.945-1.559,6.165-2.65,9.462-3.146c3.208-0.486,6.514-0.428,9.71,0.121c2.018,0.357,4.03,0.905,5.867,1.829
			c1.537,0.778,3.015,1.906,3.687,3.447c0.49,1.114,0.55,2.305,0.464,3.424c-0.093,1.151-0.354,2.3-0.656,3.412
			c-0.224,0.894-3.676,11.532-4.047,12.691c-1.324,4.092-2.795,8.314-4.799,12.124"/>
	</g>
	<g id="POLYLINE_700_">
		
			<path fill="none" stroke="#FB8604" stroke-width="2.75" stroke-linecap="round" stroke-linejoin="round" stroke-miterlimit="10" d="
			M650.37,474.268c-0.988-2.187-2.332-5.61-3.405-7.733c-1.123-2.236-2.702-4.844-3.717-7.123c-1.04-2.284-1.813-4.712-2.188-7.197
			c-0.792-5.46-0.326-11.08,0.233-16.543c0.432-3.859,1.452-10.799,1.556-14.582c0.091-2.646-0.085-5.411-0.352-8.045
			c-0.767-7.205-2.246-14.441-4.341-21.378c-3.167-10.276-8.113-21.44-11.64-31.615c-1.469-3.889-3.215-7.753-5.666-11.13
			c-2.026-2.808-4.471-5.346-7.086-7.61c-3.178-2.738-6.695-5.145-10.403-7.107"/>
	</g>
	<g id="POLYLINE_699_">
		
			<path fill="none" stroke="#FB8604" stroke-width="2.75" stroke-linecap="round" stroke-linejoin="round" stroke-miterlimit="10" d="
			M639.723,492.005c-2.635-0.912-5.087-2.972-6.073-5.59c-0.527-1.39-0.573-2.779-0.301-4.166c0.293-1.485,0.918-2.896,1.724-4.173
			c1.092-1.739,2.704-3.389,4.426-4.424c2.593-1.627,5.867-1.852,8.596-0.719c1.994,0.804,3.656,2.311,4.542,4.169
			c0.865,1.841,1.08,3.713,1.033,5.686c-0.046,1.334-0.245,2.673-0.603,3.959c-0.289,1.041-0.743,2.201-1.357,3.058
			c-0.738,1.071-1.841,1.663-3.007,1.99c-0.692,0.2-1.434,0.37-2.141,0.504C644.305,492.722,641.914,492.768,639.723,492.005z"/>
	</g>
	<g id="POLYLINE_698_">
		
			<path fill="none" stroke="#FB8604" stroke-width="2.75" stroke-linecap="round" stroke-linejoin="round" stroke-miterlimit="10" d="
			M382.068,417.561c-0.677,1.009-12.556,18.395-12.844,18.902c-0.727,1.131-1.468,2.345-2.09,3.537
			c-0.514,1.009-1.075,2.171-1.236,3.273c-0.011,0.093-0.014,0.124-0.014,0.124c-0.007,0.089-0.009,0.119-0.009,0.119
			c-0.003,0.086-0.004,0.114-0.004,0.114c0,0.082,0.001,0.109,0.001,0.109c0.006,0.104,0.009,0.129,0.009,0.129
			c0.013,0.098,0.017,0.122,0.017,0.122c0.019,0.092,0.025,0.114,0.025,0.114c0.026,0.086,0.033,0.107,0.033,0.107
			c0.041,0.099,0.05,0.118,0.05,0.118c0.05,0.09,0.061,0.107,0.061,0.107c0.073,0.096,0.086,0.111,0.086,0.111
			c0.102,0.096,0.117,0.108,0.117,0.108c0.101,0.068,0.119,0.079,0.119,0.079c0.095,0.047,0.115,0.056,0.115,0.056
			c0.104,0.038,0.126,0.045,0.126,0.045c0.091,0.024,0.114,0.029,0.114,0.029c0.097,0.018,0.122,0.021,0.122,0.021
			c0.103,0.012,0.13,0.014,0.13,0.014c0.082,0.005,0.109,0.006,0.109,0.006c0.082,0.005,0.109,0.008,0.109,0.008
			c0.08,0.009,0.106,0.013,0.106,0.013c0.104,0.017,0.129,0.022,0.129,0.022c0.101,0.023,0.125,0.03,0.125,0.03
			c0.097,0.029,0.121,0.037,0.121,0.037c0.094,0.035,0.117,0.045,0.117,0.045c0.091,0.041,0.113,0.052,0.113,0.052
			c0.088,0.047,0.109,0.06,0.109,0.06c0.105,0.067,0.126,0.082,0.126,0.082c0.1,0.076,0.12,0.092,0.12,0.092
			c0.095,0.085,0.114,0.103,0.114,0.103c0.09,0.094,0.108,0.114,0.108,0.114c0.086,0.103,0.102,0.124,0.102,0.124
			c0.065,0.089,0.081,0.112,0.081,0.112c0.062,0.095,0.077,0.119,0.077,0.119c0.058,0.101,0.072,0.127,0.072,0.127
			c0.042,0.08,0.055,0.107,0.055,0.107c0.505,1.097,0.541,2.2,0.555,3.345c-0.01,1.609-0.225,3.252-0.486,4.839
			c-0.626,3.616-1.436,7.316-2.45,10.844c-0.552,1.913-1.227,3.959-1.947,5.815c-0.588,1.455-1.192,2.97-1.536,4.502
			c-0.37,1.627-0.555,3.524,0.177,5.043c0.053,0.106,0.081,0.158,0.081,0.158c0.057,0.102,0.087,0.153,0.087,0.153
			c0.061,0.099,0.093,0.148,0.093,0.148c0.065,0.096,0.099,0.143,0.099,0.143c0.069,0.093,0.105,0.138,0.105,0.138
			c0.073,0.09,0.111,0.134,0.111,0.134c0.11,0.125,0.216,0.233,0.236,0.256c0.077,0.089,0.095,0.112,0.095,0.112
			c0.073,0.095,0.09,0.119,0.09,0.119c0.069,0.1,0.086,0.125,0.086,0.125c0.065,0.105,0.081,0.132,0.081,0.132
			c0.046,0.082,0.061,0.11,0.061,0.11c0.418,0.789,0.531,1.7,0.57,2.505c0.035,0.905-0.04,1.826-0.162,2.722
			c-0.437,3.164-1.464,6.241-2.434,9.273c-0.858,2.835-1.5,5.79-1.818,8.737c-0.316,2.937-0.319,5.949,0.06,8.879
			c0.095,1.028,1.747,10.078,1.941,11.326c0.492,2.788,1.14,7.394,1.589,10.177c0.611,3.544,1.575,7.117,3.458,10.211
			c0.471,0.777,1.061,1.577,1.666,2.24c0.577,0.639,1.261,1.135,1.906,1.548c2.088,1.286,4.486,1.881,6.888,2.228
			c1.806,0.254,3.691,0.345,5.514,0.348c0,0,21.995,0,21.995,0c0.334-0.012,1.031,0.001,1.366-0.016
			c1.392-0.035,2.868-0.123,4.249-0.3c1.636-0.213,3.283-0.541,4.816-1.164c1.531-0.614,2.875-1.579,3.599-3.014
			c1.219-2.226,1.468-4.845,1.287-7.34c-0.152-1.86-0.463-3.737-1.061-5.508c-0.555-1.651-1.52-3.349-2.89-4.397
			c-0.605-0.479-1.293-0.824-1.954-1.05c-1.017-0.314-2.065-0.491-3.072-0.796c-1.552-0.438-3.126-0.979-4.599-1.638
			c-0.781-0.354-1.745-0.812-2.404-1.293c-1.37-0.938-2.284-2.394-2.335-3.976c-0.037-0.935,0.12-1.679,0.366-2.542
			c0.948-3.078,2.755-5.884,4.479-8.58c8.234-12.464,18.649-26.574,26.889-39.1"/>
	</g>
	<g id="POLYLINE_697_">
		
			<path fill="none" stroke="#FB8604" stroke-width="2.75" stroke-linecap="round" stroke-linejoin="round" stroke-miterlimit="10" d="
			M156.421,453.252c-6.251,4.012-13.197,8.284-18.981,12.906c-0.907,0.786-1.879,1.734-2.367,2.819
			c-0.044,0.105-0.064,0.157-0.064,0.157c-0.037,0.103-0.046,0.129-0.046,0.129c-0.032,0.102-0.039,0.128-0.039,0.128
			c-0.027,0.101-0.032,0.126-0.032,0.126c-0.021,0.1-0.026,0.124-0.026,0.124c-0.016,0.098-0.019,0.123-0.019,0.123
			c-0.01,0.097-0.012,0.121-0.012,0.121c-0.005,0.096-0.005,0.12-0.005,0.12c0.001,0.095,0.002,0.118,0.002,0.118
			c0.006,0.093,0.008,0.117,0.008,0.117c0.012,0.092,0.015,0.115,0.015,0.115c0.017,0.091,0.022,0.114,0.022,0.114
			c0.023,0.09,0.029,0.112,0.029,0.112c0.028,0.088,0.036,0.11,0.036,0.11c0.034,0.087,0.043,0.109,0.043,0.109
			c0.039,0.086,0.049,0.107,0.049,0.107c0.044,0.085,0.056,0.106,0.056,0.106c0.063,0.104,0.077,0.125,0.077,0.125
			c0.071,0.102,0.086,0.123,0.086,0.123c0.079,0.1,0.096,0.12,0.096,0.12c0.088,0.099,0.106,0.118,0.106,0.118
			c0.076,0.077,0.116,0.116,0.116,0.116c0.083,0.076,0.126,0.114,0.126,0.114c0.089,0.074,0.136,0.111,0.136,0.111
			c0.096,0.073,0.145,0.109,0.145,0.109c0.366,0.247,0.673,0.463,0.918,0.675c0.238,0.204,0.412,0.381,0.551,0.54
			c0.061,0.073,0.091,0.109,0.091,0.109c0.057,0.073,0.085,0.109,0.085,0.109c0.053,0.073,0.078,0.11,0.078,0.11
			c0.049,0.073,0.072,0.11,0.072,0.11c0.044,0.073,0.065,0.11,0.065,0.11c0.04,0.074,0.059,0.11,0.059,0.11
			c0.036,0.074,0.053,0.111,0.053,0.111c0.032,0.074,0.046,0.111,0.046,0.111c0.027,0.074,0.04,0.111,0.04,0.111
			c0.028,0.093,0.034,0.112,0.034,0.112c0.023,0.093,0.027,0.112,0.027,0.112c0.018,0.093,0.021,0.112,0.021,0.112
			c0.012,0.094,0.014,0.113,0.014,0.113c0.007,0.094,0.008,0.113,0.008,0.113c0.002,0.094,0.002,0.113,0.002,0.113
			c-0.003,0.095-0.005,0.113-0.005,0.113c-0.009,0.095-0.011,0.114-0.011,0.114c-0.014,0.095-0.017,0.114-0.017,0.114
			c-0.019,0.095-0.024,0.114-0.024,0.114c-0.019,0.076-0.03,0.115-0.03,0.115c-0.024,0.077-0.037,0.115-0.037,0.115
			c-0.028,0.077-0.043,0.115-0.043,0.115c-0.032,0.077-0.049,0.116-0.049,0.116c-0.036,0.077-0.056,0.116-0.056,0.116
			c-0.041,0.077-0.062,0.116-0.062,0.116c-0.045,0.078-0.068,0.116-0.068,0.116c-0.049,0.078-0.075,0.117-0.075,0.117
			c-0.599,0.836-1.336,1.442-2.048,2.143c-2.589,2.421-6.031,5.277-8.773,7.569c-1.359,1.136-3.087,2.591-4.366,3.798
			c-0.754,0.72-1.663,1.584-2.228,2.415c-0.046,0.073-0.068,0.108-0.068,0.108c-0.058,0.102-0.067,0.118-0.067,0.118
			c-0.046,0.094-0.053,0.109-0.053,0.109c-0.039,0.1-0.044,0.113-0.044,0.113c-0.026,0.102-0.028,0.114-0.028,0.114
			c-0.005,0.099-0.005,0.109-0.005,0.109c0.027,0.098,0.031,0.106,0.031,0.106c0.105,0.101,0.113,0.105,0.113,0.105
			c1.106,0.501,3.072,1.277,4.194,1.763c0.077,0.039,0.115,0.058,0.115,0.058c0.074,0.04,0.11,0.061,0.11,0.061
			c0.105,0.064,0.139,0.086,0.139,0.086c0.099,0.068,0.13,0.091,0.13,0.091c0.092,0.071,0.122,0.095,0.122,0.095
			c0.086,0.075,0.113,0.1,0.113,0.1c0.105,0.105,0.13,0.132,0.13,0.132c0.071,0.083,0.094,0.111,0.094,0.111
			c0.065,0.087,0.086,0.116,0.086,0.116c0.059,0.09,0.077,0.121,0.077,0.121c0.052,0.094,0.069,0.126,0.069,0.126
			c0.046,0.098,0.06,0.131,0.06,0.131c0.039,0.101,0.051,0.136,0.051,0.136c0.033,0.105,0.043,0.141,0.043,0.141
			c0.018,0.072,0.027,0.109,0.027,0.109c0.015,0.074,0.022,0.111,0.022,0.111c0.012,0.076,0.017,0.114,0.017,0.114
			c0.009,0.078,0.012,0.117,0.012,0.117c0.005,0.079,0.007,0.12,0.007,0.12c0.002,0.081,0.003,0.122,0.003,0.122
			c-0.001,0.083-0.002,0.125-0.002,0.125c-0.004,0.085-0.007,0.128-0.007,0.128c-0.086,0.991-0.453,1.749-0.837,2.594
			c-0.459,1.038-0.882,2.191-1.246,3.267c-0.7,2.061-1.319,4.391-1.849,6.509c-0.191,0.777-0.326,1.586-0.408,2.381
			c-0.432,4.397,0.544,8.817,1.908,12.978c1.744,4.993,3.958,10.912,5.955,15.802c0.449,1.041,1.006,2.468,1.527,3.464
			c0.721,1.431,1.565,2.83,2.617,4.044c1.184,1.379,2.522,2.327,4.2,2.924c2.004,0.73,4.152,1.027,6.271,1.174
			c3.09,0.183,6.392,0.067,9.486-0.061c1.803-0.103,3.762-0.238,5.55-0.478c1.487-0.197,3.177-0.647,4.283-1.654
			c0.104-0.098,0.138-0.131,0.138-0.131c0.098-0.102,0.13-0.136,0.13-0.136c0.092-0.105,0.121-0.141,0.121-0.141
			c0.058-0.072,0.086-0.108,0.086-0.108c0.055-0.074,0.081-0.111,0.081-0.111c0.052-0.075,0.077-0.114,0.077-0.114
			c0.049-0.077,0.072-0.116,0.072-0.116c0.046-0.079,0.068-0.119,0.068-0.119c0.043-0.081,0.063-0.121,0.063-0.121
			c0.04-0.082,0.059-0.124,0.059-0.124c0.037-0.084,0.054-0.126,0.054-0.126c0.034-0.086,0.05-0.129,0.05-0.129
			c0.031-0.087,0.045-0.131,0.045-0.131c0.028-0.089,0.041-0.134,0.041-0.134c0.025-0.091,0.036-0.137,0.036-0.137
			c0.022-0.093,0.032-0.14,0.032-0.14c0.278-1.485-0.078-2.948-0.486-4.358c-0.658-2.207-1.717-4.296-2.69-6.375
			c-0.68-1.527-1.274-3.125-1.616-4.764c-0.293-1.406-0.404-2.94-0.065-4.339c0.627-2.433,1.902-5.04,4.241-6.096
			c0.093-0.04,0.124-0.053,0.124-0.053c0.091-0.036,0.121-0.047,0.121-0.047c0.089-0.031,0.119-0.04,0.119-0.04
			c0.087-0.026,0.116-0.034,0.116-0.034c0.085-0.021,0.113-0.027,0.113-0.027c0.083-0.016,0.11-0.021,0.11-0.021
			c0.081-0.012,0.107-0.015,0.107-0.015c0.105-0.008,0.13-0.009,0.13-0.009c0.101,0,0.126,0.001,0.126,0.001
			c0.098,0.008,0.121,0.011,0.121,0.011c0.106,0.018,0.117,0.021,0.117,0.021c0.102,0.027,0.113,0.031,0.113,0.031
			c0.098,0.036,0.108,0.041,0.108,0.041c0.104,0.051,0.114,0.057,0.114,0.057c0.099,0.062,0.109,0.069,0.109,0.069
			c0.094,0.073,0.113,0.089,0.113,0.089c0.089,0.085,0.106,0.103,0.106,0.103c0.084,0.097,0.1,0.118,0.1,0.118
			c0.063,0.087,0.079,0.109,0.079,0.109c0.06,0.095,0.074,0.119,0.074,0.119c0.078,0.141,0.104,0.2,0.124,0.238
			c0.058,0.1,0.066,0.112,0.066,0.112c0.073,0.099,0.081,0.109,0.081,0.109c0.099,0.101,0.109,0.11,0.109,0.11
			c0.1,0.073,0.11,0.08,0.11,0.08c0.098,0.051,0.109,0.056,0.109,0.056c0.106,0.036,0.118,0.039,0.118,0.039
			c0.1,0.02,0.113,0.022,0.113,0.022c0.093,0.008,0.106,0.008,0.106,0.008c0.098-0.001,0.112-0.002,0.112-0.002
			c0.102-0.01,0.117-0.013,0.117-0.013c0.092-0.016,0.107-0.019,0.107-0.019c0.095-0.023,0.127-0.032,0.127-0.032
			c0.099-0.031,0.133-0.042,0.133-0.042c0.103-0.039,0.138-0.053,0.138-0.053c1.655-0.752,2.657-2.118,4.024-3.199
			c0.866-0.687,1.835-1.273,2.897-1.597c1.049-0.329,2.159-0.34,3.168-0.077c0.085,0.016,0.114,0.021,0.114,0.021
			c0.849,0.123,1.607-0.007,2.383-0.168c0.997-0.221,1.99-0.558,2.945-0.921c3.34-1.298,6.618-3.066,9.742-4.818"/>
	</g>
	<g id="POLYLINE_696_">
		
			<path fill="none" stroke="#FB8604" stroke-width="2.75" stroke-linecap="round" stroke-linejoin="round" stroke-miterlimit="10" d="
			M204.354,537.737c-0.117-1.434-0.48-2.849-1.004-4.186c-0.505-1.273-1.239-2.626-2.207-3.577
			c-0.102-0.097-0.153-0.144-0.153-0.144c-0.103-0.091-0.155-0.136-0.155-0.136c-0.245-0.202-0.388-0.298-0.589-0.419
			c-0.083-0.047-0.11-0.062-0.11-0.062c-0.083-0.044-0.111-0.058-0.111-0.058c-0.084-0.04-0.112-0.053-0.112-0.053
			c-0.083-0.036-0.124-0.053-0.124-0.053c-0.084-0.032-0.126-0.047-0.126-0.047c-0.084-0.029-0.126-0.042-0.126-0.042
			c-0.085-0.025-0.127-0.037-0.127-0.037c-1.341-0.37-2.702,0.054-4.011-0.145c-0.072-0.013-0.108-0.021-0.108-0.021
			c-0.106-0.025-0.14-0.034-0.14-0.034c-0.103-0.031-0.137-0.042-0.137-0.042c-0.1-0.037-0.133-0.05-0.133-0.05
			c-0.097-0.043-0.113-0.051-0.113-0.051c-0.094-0.05-0.117-0.063-0.117-0.063c-0.091-0.057-0.114-0.072-0.114-0.072
			c-0.088-0.064-0.11-0.08-0.11-0.08c-0.085-0.07-0.106-0.089-0.106-0.089c-0.102-0.097-0.122-0.117-0.122-0.117
			c-0.079-0.085-0.098-0.106-0.098-0.106c-0.076-0.091-0.094-0.114-0.094-0.114c-0.073-0.097-0.091-0.122-0.091-0.122
			c-0.42-0.612-0.626-1.26-0.795-1.906c-0.166-0.664-0.273-1.358-0.348-2.037c-0.245-2.318-0.191-4.737-0.101-7.065
			c0.106-2.414,0.517-8.013,0.437-10.347c-0.02-0.649-0.069-1.436-0.226-2.035c-0.026-0.092-0.034-0.121-0.034-0.121
			c-0.028-0.086-0.037-0.113-0.037-0.113c-0.04-0.104-0.05-0.129-0.05-0.129c-0.044-0.094-0.055-0.116-0.055-0.116
			c-0.06-0.101-0.072-0.12-0.072-0.12c-0.079-0.099-0.093-0.114-0.093-0.114c-0.103-0.084-0.118-0.093-0.118-0.093
			c-0.098-0.044-0.115-0.049-0.115-0.049c-0.088-0.016-0.107-0.017-0.107-0.017c-0.091,0.004-0.106,0.006-0.106,0.006
			c-0.095,0.021-0.111,0.026-0.111,0.026c-0.1,0.037-0.117,0.045-0.117,0.045c-0.106,0.053-0.124,0.062-0.124,0.062
			c-0.092,0.055-0.111,0.067-0.111,0.067c-0.095,0.065-0.134,0.093-0.134,0.093c-0.079,0.06-0.12,0.091-0.12,0.091
			c-0.76,0.615-1.813,1.837-2.488,2.532c-0.676,0.691-1.458,1.465-2.311,1.896c-0.081,0.039-0.107,0.051-0.107,0.051
			c-0.08,0.035-0.107,0.046-0.107,0.046c-0.08,0.031-0.106,0.04-0.106,0.04c-0.105,0.035-0.132,0.042-0.132,0.042
			c-0.105,0.027-0.131,0.033-0.131,0.033c-0.103,0.02-0.129,0.024-0.129,0.024c-0.093,0.011-0.127,0.014-0.127,0.014
			c-0.1,0.004-0.134,0.004-0.134,0.004c-0.099-0.004-0.132-0.007-0.132-0.007c-0.098-0.012-0.131-0.017-0.131-0.017
			c-0.097-0.02-0.129-0.028-0.129-0.028c-0.096-0.027-0.128-0.038-0.128-0.038c-0.095-0.035-0.126-0.048-0.126-0.048
			c-0.094-0.042-0.125-0.057-0.125-0.057c-0.093-0.049-0.123-0.067-0.123-0.067c-0.091-0.056-0.122-0.076-0.122-0.076
			c-0.09-0.063-0.12-0.086-0.12-0.086c-0.089-0.07-0.119-0.094-0.119-0.094c-0.088-0.077-0.118-0.103-0.118-0.103
			c-0.087-0.083-0.116-0.112-0.116-0.112c-0.086-0.089-0.115-0.12-0.115-0.12c-0.085-0.095-0.113-0.128-0.113-0.128
			c-0.844-1.035-1.284-2.096-1.761-3.281c-0.491-1.271-0.906-2.635-1.274-3.947c-0.246-0.655-5.307-21.517-5.627-22.772
			c-0.478-1.743-0.937-3.695-1.879-5.243c-0.065-0.097-0.098-0.145-0.098-0.145c-0.066-0.091-0.099-0.134-0.099-0.134
			c-0.084-0.104-0.101-0.124-0.101-0.124c-0.086-0.095-0.103-0.113-0.103-0.113c-0.105-0.102-0.122-0.117-0.122-0.117
			c-0.089-0.074-0.107-0.088-0.107-0.088c-0.09-0.064-0.109-0.076-0.109-0.076c-0.092-0.054-0.111-0.063-0.111-0.063
			c-0.094-0.043-0.113-0.05-0.113-0.05c-0.095-0.032-0.115-0.037-0.115-0.037c-0.097-0.02-0.117-0.023-0.117-0.023
			c-0.099-0.009-0.119-0.009-0.119-0.009c-0.101,0.003-0.121,0.005-0.121,0.005c-0.103,0.016-0.123,0.02-0.123,0.02
			c-0.104,0.028-0.121,0.033-0.121,0.033c-0.101,0.038-0.118,0.045-0.118,0.045c-0.103,0.048-0.12,0.057-0.12,0.057
			c-0.104,0.057-0.139,0.078-0.139,0.078c-0.07,0.044-0.106,0.067-0.106,0.067c-0.681,0.465-1.312,1.181-1.883,1.73
			c-0.289,0.282-0.635,0.589-0.907,0.769c-0.105,0.067-0.139,0.088-0.139,0.088c-0.103,0.058-0.12,0.066-0.12,0.066
			c-0.102,0.048-0.119,0.056-0.119,0.056c-0.1,0.038-0.117,0.044-0.117,0.044c-0.098,0.028-0.115,0.031-0.115,0.031
			c-0.097,0.016-0.113,0.018-0.113,0.018c-0.095,0.004-0.11,0.004-0.11,0.004c-0.093-0.009-0.108-0.011-0.108-0.011
			c-0.105-0.027-0.12-0.032-0.12-0.032c-0.1-0.045-0.126-0.06-0.126-0.06c-0.102-0.07-0.128-0.09-0.128-0.09
			c-0.099-0.092-0.123-0.118-0.123-0.118c-0.072-0.083-0.096-0.113-0.096-0.113c-0.07-0.096-0.093-0.13-0.093-0.13
			c-0.046-0.071-0.068-0.108-0.068-0.108c-0.045-0.077-0.067-0.116-0.067-0.116c-0.705-1.395-0.976-3.091-1.292-4.606
			c-0.477-2.528-1.024-6.133-1.723-8.578c-0.187-0.64-0.403-1.293-0.695-1.893c-0.099-0.201-0.179-0.338-0.237-0.436
			c-0.055-0.087-0.083-0.129-0.083-0.129c-0.056-0.082-0.084-0.121-0.084-0.121c-0.057-0.076-0.086-0.113-0.086-0.113
			c-0.088-0.104-0.118-0.136-0.118-0.136c-0.09-0.092-0.121-0.12-0.121-0.12c-0.093-0.079-0.124-0.104-0.124-0.104
			c-0.095-0.066-0.111-0.076-0.111-0.076c-0.097-0.055-0.114-0.064-0.114-0.064c-0.099-0.045-0.116-0.052-0.116-0.052
			c-0.101-0.036-0.118-0.041-0.118-0.041c-0.103-0.027-0.12-0.031-0.12-0.031c-0.104-0.019-0.122-0.021-0.122-0.021
			c-0.088-0.01-0.106-0.011-0.106-0.011c-0.089-0.004-0.107-0.005-0.107-0.005c-0.072,0-0.108,0.001-0.108,0.001
			c-0.072,0.003-0.109,0.006-0.109,0.006c-0.073,0.007-0.11,0.011-0.11,0.011c-0.67,0.086-1.284,0.37-1.903,0.521
			c-0.103,0.024-0.138,0.031-0.138,0.031c-0.102,0.019-0.135,0.025-0.135,0.025c-0.099,0.014-0.132,0.017-0.132,0.017
			c-0.097,0.007-0.113,0.008-0.113,0.008c-0.095,0.001-0.111,0.001-0.111,0.001c-0.093-0.005-0.108-0.007-0.108-0.007
			c-0.105-0.015-0.12-0.018-0.12-0.018c-0.101-0.026-0.116-0.03-0.116-0.03c-0.098-0.037-0.111-0.044-0.111-0.044
			c-0.094-0.05-0.107-0.058-0.107-0.058c-0.096-0.068-0.124-0.091-0.124-0.091c-0.081-0.076-0.108-0.104-0.108-0.104
			c-0.077-0.091-0.102-0.123-0.102-0.123c-0.073-0.104-0.096-0.141-0.096-0.141c-0.046-0.077-0.068-0.118-0.068-0.118
			c-0.044-0.084-0.065-0.128-0.065-0.128c-0.042-0.09-0.062-0.137-0.062-0.137c-0.04-0.097-0.059-0.146-0.059-0.146
			c-0.269-0.725-0.379-1.41-0.489-2.159c-0.452-3.496-0.419-9.199-0.769-12.713c-0.132-1.389-0.309-2.808-0.651-4.163
			c-0.248-0.987-0.644-2.073-1.273-2.833c-0.085-0.103-0.129-0.153-0.129-0.153c-0.088-0.097-0.132-0.144-0.132-0.144
			c-0.09-0.092-0.135-0.136-0.135-0.136c-0.092-0.087-0.138-0.129-0.138-0.129c-0.094-0.082-0.141-0.122-0.141-0.122
			c-0.515-0.427-1.053-0.709-1.551-0.945l-1.204-0.544c-0.231-0.109-0.426-0.212-0.559-0.288c-0.176-0.101-0.304-0.187-0.387-0.245
			c-0.081-0.059-0.122-0.09-0.122-0.09c-0.079-0.062-0.117-0.094-0.117-0.094c-0.076-0.066-0.113-0.1-0.113-0.1
			c-0.073-0.069-0.108-0.105-0.108-0.105c-0.087-0.092-0.104-0.111-0.104-0.111c-0.082-0.097-0.098-0.117-0.098-0.117
			c-0.078-0.103-0.093-0.124-0.093-0.124c-0.059-0.087-0.083-0.125-0.083-0.125c-0.047-0.078-0.071-0.118-0.071-0.118
			c-0.045-0.082-0.066-0.124-0.066-0.124c-0.042-0.086-0.062-0.129-0.062-0.129c-0.039-0.089-0.058-0.134-0.058-0.134
			c-0.489-1.272-0.483-2.562-0.479-3.89c0.183-5.866,1.46-12.23,0.09-18.026c-0.958-4.327-3.81-9.105-5.819-13.042
			c-1.676-3.289-3.103-6.778-3.66-10.445c-0.353-2.22-0.373-4.505-0.237-6.745c0.291-5.113,1.602-11.057,2.474-16.115
			c0.183-1.1,0.374-2.326,0.457-3.438c0.048-0.658,0.071-1.413-0.037-2.045c-0.02-0.105-0.031-0.156-0.031-0.156
			c-0.023-0.099-0.036-0.147-0.036-0.147c-0.027-0.093-0.042-0.137-0.042-0.137c-0.031-0.086-0.047-0.128-0.047-0.128
			c-0.035-0.08-0.053-0.118-0.053-0.118c-0.039-0.073-0.059-0.108-0.059-0.108c-0.065-0.097-0.088-0.128-0.088-0.128
			c-0.074-0.083-0.1-0.109-0.1-0.109c-0.082-0.069-0.111-0.09-0.111-0.09c-0.099-0.059-0.112-0.065-0.112-0.065
			c-0.093-0.04-0.107-0.045-0.107-0.045c-0.099-0.03-0.114-0.034-0.114-0.034c-0.105-0.021-0.12-0.024-0.12-0.024
			c-0.094-0.012-0.11-0.013-0.11-0.013c-0.098-0.006-0.131-0.007-0.131-0.007c-0.101,0-0.136,0.001-0.136,0.001
			c-0.965,0.053-1.891,0.454-2.815,0.493c-0.072,0.002-0.107,0.002-0.107,0.002c-0.105-0.003-0.139-0.004-0.139-0.004
			c-0.101-0.009-0.118-0.011-0.118-0.011c-0.098-0.015-0.114-0.018-0.114-0.018c-0.095-0.021-0.11-0.026-0.11-0.026
			c-0.105-0.034-0.12-0.039-0.12-0.039c-0.1-0.044-0.114-0.051-0.114-0.051c-0.096-0.056-0.123-0.074-0.123-0.074
			c-0.103-0.081-0.128-0.103-0.128-0.103c-0.094-0.097-0.116-0.124-0.116-0.124c-0.064-0.084-0.085-0.113-0.085-0.113
			c-0.059-0.093-0.078-0.126-0.078-0.126c-0.053-0.102-0.07-0.138-0.07-0.138c-0.033-0.073-0.048-0.111-0.048-0.111
			c-0.03-0.078-0.044-0.118-0.044-0.118c-0.027-0.082-0.04-0.124-0.04-0.124c-0.025-0.086-0.036-0.131-0.036-0.131
			c-0.303-1.327-0.129-2.657,0.058-3.976c0.413-2.562,1.18-5.103,2.065-7.54c1.521-4.117,3.51-8.13,6.283-11.554
			c3.668-4.673,10.169-9.32,14.757-13.109c3.394-2.797,6.931-5.981,10.082-9.05c2.435-2.398,4.938-4.963,7.076-7.625
			c0.63-0.793,1.263-1.637,1.799-2.497c0.349-0.562,0.72-1.238,0.905-1.85c0.03-0.103,0.043-0.154,0.043-0.154
			c0.024-0.099,0.034-0.148,0.034-0.148c0.017-0.095,0.024-0.141,0.024-0.141c0.011-0.091,0.015-0.135,0.015-0.135
			c0.004-0.086,0.005-0.129,0.005-0.129c-0.002-0.082-0.005-0.122-0.005-0.122c-0.009-0.078-0.015-0.115-0.015-0.115
			c-0.016-0.073-0.025-0.108-0.025-0.108c-0.035-0.101-0.049-0.133-0.049-0.133c-0.049-0.092-0.068-0.121-0.068-0.121
			c-0.077-0.096-0.086-0.106-0.086-0.106c-0.103-0.093-0.114-0.101-0.114-0.101c-0.095-0.065-0.108-0.073-0.108-0.073
			c-0.106-0.058-0.119-0.065-0.119-0.065c-0.086-0.039-0.115-0.051-0.115-0.051c-0.092-0.034-0.123-0.045-0.123-0.045
			c-0.097-0.031-0.13-0.04-0.13-0.04c-0.812-0.219-1.733-0.194-2.534-0.335c-0.099-0.019-0.131-0.026-0.131-0.026
			c-0.094-0.022-0.124-0.029-0.124-0.029c-0.088-0.025-0.116-0.033-0.116-0.033c-0.095-0.033-0.108-0.038-0.108-0.038
			c-0.099-0.043-0.11-0.048-0.11-0.048c-0.098-0.055-0.108-0.062-0.108-0.062c-0.098-0.079-0.106-0.087-0.106-0.087
			c-0.074-0.093-0.085-0.111-0.085-0.111c-0.044-0.097-0.05-0.118-0.05-0.118c-0.019-0.086-0.022-0.109-0.022-0.109
			c-0.005-0.094-0.005-0.119-0.005-0.119c0.009-0.102,0.013-0.128,0.013-0.128c0.016-0.081,0.022-0.109,0.022-0.109
			c0.024-0.086,0.033-0.115,0.033-0.115c0.031-0.09,0.043-0.12,0.043-0.12c0.039-0.094,0.053-0.126,0.053-0.126
			c0.047-0.098,0.063-0.131,0.063-0.131c0.054-0.102,0.073-0.136,0.073-0.136c0.901-1.481,2.246-2.681,3.493-3.839
			c3.52-3.132,7.443-5.972,11.418-8.499c3.566-2.312,11.067-6.294,14.858-8.398c8.45-4.617,16.354-11.624,24.639-16.519
			c5.696-3.365,12.317-6.054,18.432-8.589c6.541-2.667,13.358-4.945,20.371-5.944c6.467-0.974,13.16-0.668,19.657-0.114
			c11.708,1.042,24.912,2.957,36.634,2.242c17.004-0.948,34.677-6.589,51.589-8.318c5.22-0.544,10.567-0.648,15.805-0.327
			c11.715,0.7,23.378,3.398,34.666,6.507c17.316,4.989,36.371,10.503,53.053,17.268c5.507,2.254,11.208,4.806,16.449,7.628
			c4.341,2.31,8.845,5.039,12.976,7.706c12.643,8.512,52.164,35.242,64.33,44.075"/>
	</g>
	<g id="POLYLINE_684_">
		
			<path fill="none" stroke="#FB8604" stroke-width="2.75" stroke-linecap="round" stroke-linejoin="round" stroke-miterlimit="10" d="
			M563.185,355.791c-0.676-3.1-1.105-6.292-1.106-9.468c-0.009-3.223,0.414-6.471,1.157-9.605c1.278-5.322,3.453-10.508,6.79-14.874
			c2.679-3.523,6.244-6.366,10.275-8.195c2.411-1.083,5.023-1.855,7.682-1.875c1.191-0.013,2.515,0.19,3.597,0.641
			c1.599,0.658,2.793,1.742,3.815,3.033c1.117,1.425,1.978,3.055,2.753,4.686c1.621,3.484,3.055,7.213,4.244,10.868
			c1.661,5.193,2.974,10.59,3.313,16.045c0.321,4.889-0.165,9.835-1.028,14.648"/>
	</g>
</g>
<g id="AG-OUTLINE">
	<g id="POLYLINE_36_">
		
			<path fill="none" stroke="#FB8604" stroke-width="3.5" stroke-linecap="round" stroke-linejoin="round" stroke-miterlimit="10" d="
			M644.858,492.538c1.023-0.093,2.056-0.289,3.054-0.533c0.916-0.218,1.956-0.54,2.691-1.08c0.831-0.584,1.384-1.447,1.775-2.284
			c0.366-0.788,0.637-1.631,0.84-2.476c0.646-2.78,0.701-5.927-0.368-8.588c-0.479-1.183-1.223-2.195-2.095-2.982
			c-0.127-0.119-0.251-0.216-0.306-0.264c-0.078-0.064-0.534-1.09-0.534-1.09c-0.482-1.125-1.932-4.597-2.441-5.651
			c-1.743-3.699-4.182-7.293-5.419-11.224c-0.846-2.531-1.232-5.203-1.353-7.862c-0.198-4.245,0.144-8.61,0.592-12.832
			c0.563-5.127,1.769-12.335,1.561-17.429c-0.305-7.889-1.763-15.777-3.783-23.398c-1.892-7.019-4.787-14.36-7.442-21.137
			c2.003-3.809,3.476-8.032,4.799-12.124c0.51-1.619,3.827-11.714,4.16-13.112c0.525-2.045,0.945-4.449,0.08-6.415
			c-0.733-1.639-2.206-2.682-3.687-3.447c-1.836-0.924-3.849-1.472-5.867-1.829c-3.196-0.549-6.502-0.608-9.71-0.121
			c-3.297,0.496-6.517,1.587-9.462,3.146c-2.675-2.112-5.568-4.009-8.581-5.602c-1.36-4.772-3.13-9.566-5.215-14.07
			c-1.247-2.611-2.779-5.419-5.249-7.029c-2.464-1.611-5.461-1.541-8.218-0.942c-4.487,1.034-8.619,3.449-11.934,6.62
			c-12.03-8.709-51.736-35.621-64.33-44.075c-4.147-2.669-8.63-5.394-12.976-7.705c-5.245-2.821-10.928-5.373-16.449-7.628
			c-16.666-6.761-35.735-12.284-53.053-17.268c-11.292-3.109-22.949-5.807-34.666-6.507c-5.24-0.32-10.584-0.217-15.805,0.328
			c-16.914,1.729-34.583,7.37-51.589,8.318c-11.707,0.715-24.952-1.203-36.634-2.243c-6.494-0.553-13.19-0.861-19.657,0.114
			c-7.011,0.998-13.832,3.276-20.371,5.944c-6.106,2.536-12.731,5.221-18.432,8.589c-8.283,4.9-16.186,11.895-24.639,16.519
			c-3.846,2.131-11.265,6.076-14.858,8.398c-3.795,2.407-7.546,5.121-10.937,8.071c-1.393,1.259-2.97,2.642-3.954,4.232
			c-0.058,0.103-0.076,0.137-0.076,0.137c-0.05,0.1-0.066,0.132-0.066,0.132c-0.043,0.096-0.056,0.127-0.056,0.127
			c-0.035,0.092-0.046,0.122-0.046,0.122c-0.028,0.088-0.035,0.116-0.035,0.116c-0.02,0.083-0.025,0.111-0.025,0.111
			c-0.014,0.105-0.016,0.13-0.016,0.13c-0.001,0.097,0.001,0.121,0.001,0.121c0.013,0.09,0.019,0.111,0.019,0.111
			c0.037,0.101,0.046,0.12,0.046,0.12c0.073,0.105,0.087,0.122,0.087,0.122c0.104,0.088,0.114,0.095,0.114,0.095
			c0.096,0.056,0.108,0.062,0.108,0.062c0.097,0.043,0.11,0.048,0.11,0.048c0.08,0.029,0.108,0.038,0.108,0.038
			c0.086,0.025,0.116,0.033,0.116,0.033c0.84,0.2,1.839,0.159,2.652,0.355c0.103,0.026,0.136,0.035,0.136,0.035
			c0.098,0.03,0.13,0.04,0.13,0.04c0.093,0.033,0.123,0.045,0.123,0.045c0.101,0.044,0.115,0.051,0.115,0.051
			c0.094,0.049,0.107,0.057,0.107,0.057c0.097,0.064,0.109,0.072,0.109,0.072c0.096,0.081,0.106,0.091,0.106,0.091
			c0.085,0.098,0.105,0.126,0.105,0.126c0.053,0.089,0.068,0.121,0.068,0.121c0.039,0.099,0.049,0.133,0.049,0.133
			c0.018,0.071,0.025,0.108,0.025,0.108c0.011,0.076,0.015,0.115,0.015,0.115c0.004,0.081,0.005,0.122,0.005,0.122
			c-0.002,0.085-0.005,0.129-0.005,0.129c-0.009,0.089-0.015,0.135-0.015,0.135c-0.015,0.094-0.024,0.141-0.024,0.141
			c-0.021,0.098-0.034,0.148-0.034,0.148c-0.213,0.769-0.554,1.349-0.948,2.004c-0.535,0.859-1.169,1.704-1.799,2.497
			c-2.137,2.661-4.642,5.229-7.076,7.625c-3.15,3.068-6.689,6.254-10.082,9.05c-3.157,2.587-8.991,7.04-11.805,9.86
			c-1.728,1.696-3.318,3.565-4.665,5.579c-2.761,4.17-4.682,8.898-5.987,13.714c-0.335,1.295-0.62,2.633-0.773,3.963
			c-0.087,0.801-0.137,1.623-0.048,2.427c0.03,0.253,0.067,0.44,0.103,0.591c0.023,0.089,0.035,0.133,0.035,0.133
			c0.026,0.085,0.039,0.126,0.039,0.126c0.028,0.081,0.043,0.12,0.043,0.12c0.031,0.076,0.047,0.114,0.047,0.114
			c0.033,0.072,0.051,0.107,0.051,0.107c0.055,0.1,0.074,0.132,0.074,0.132c0.06,0.091,0.081,0.12,0.081,0.12
			c0.066,0.082,0.088,0.107,0.088,0.107c0.096,0.094,0.121,0.116,0.121,0.116c0.105,0.078,0.133,0.095,0.133,0.095
			c0.097,0.052,0.111,0.059,0.111,0.059c0.101,0.041,0.116,0.046,0.116,0.046c0.091,0.027,0.107,0.031,0.107,0.031
			c0.095,0.02,0.111,0.023,0.111,0.023c0.099,0.014,0.115,0.016,0.115,0.016c0.085,0.007,0.119,0.009,0.119,0.009
			c0.105,0.003,0.14,0.002,0.14,0.002c0.909-0.027,1.743-0.366,2.602-0.471c0.109-0.013,0.18-0.017,0.215-0.02
			c0.104-0.004,0.138-0.005,0.138-0.005c0.101,0.001,0.133,0.003,0.133,0.003c0.097,0.007,0.112,0.009,0.112,0.009
			c0.093,0.013,0.108,0.016,0.108,0.016c0.103,0.024,0.118,0.028,0.118,0.028c0.098,0.033,0.111,0.038,0.111,0.038
			c0.104,0.05,0.117,0.057,0.117,0.057c0.09,0.059,0.118,0.081,0.118,0.081c0.105,0.099,0.13,0.127,0.13,0.127
			c0.069,0.09,0.091,0.123,0.091,0.123c0.061,0.104,0.08,0.141,0.08,0.141c0.036,0.077,0.053,0.118,0.053,0.118
			c0.032,0.084,0.047,0.128,0.047,0.128c0.028,0.091,0.042,0.137,0.042,0.137c0.025,0.097,0.036,0.147,0.036,0.147
			c0.135,0.668,0.116,1.232,0.088,1.882c-0.052,0.943-0.196,1.977-0.34,2.915c-0.877,5.376-2.301,11.525-2.611,16.958
			c-0.136,2.24-0.116,4.525,0.237,6.745c0.558,3.668,1.984,7.157,3.661,10.445c2.022,3.957,4.851,8.703,5.819,13.042
			c1.37,5.793,0.093,12.164-0.09,18.026c-0.013,1.26,0.008,2.668,0.46,3.844c0.038,0.091,0.057,0.136,0.057,0.136
			c0.04,0.088,0.061,0.131,0.061,0.131c0.043,0.084,0.065,0.126,0.065,0.126c0.046,0.081,0.069,0.12,0.069,0.12
			c0.063,0.099,0.078,0.121,0.078,0.121c0.06,0.085,0.076,0.106,0.076,0.106c0.079,0.101,0.096,0.121,0.096,0.121
			c0.084,0.096,0.118,0.133,0.118,0.133c0.071,0.072,0.107,0.107,0.107,0.107c0.074,0.068,0.112,0.101,0.112,0.101
			c0.077,0.065,0.116,0.096,0.116,0.096c0.08,0.061,0.12,0.091,0.12,0.091c0.082,0.058,0.124,0.087,0.124,0.087
			c0.523,0.364,1.575,0.787,2.067,1.02c0.596,0.278,1.134,0.595,1.551,0.945c0.094,0.08,0.141,0.122,0.141,0.122
			c0.092,0.085,0.138,0.129,0.138,0.129c0.09,0.09,0.135,0.136,0.135,0.136c0.088,0.095,0.132,0.144,0.132,0.144
			c0.698,0.794,1.051,1.738,1.315,2.665c0.314,1.127,0.495,2.313,0.632,3.474c0.429,3.611,0.419,8.81,0.731,12.446
			c-6.251,4.012-13.197,8.284-18.981,12.906c-0.907,0.786-1.879,1.734-2.367,2.819c-0.044,0.105-0.064,0.157-0.064,0.157
			c-0.037,0.103-0.046,0.129-0.046,0.129c-0.032,0.102-0.039,0.128-0.039,0.128c-0.027,0.101-0.032,0.126-0.032,0.126
			c-0.021,0.1-0.026,0.124-0.026,0.124c-0.016,0.098-0.019,0.123-0.019,0.123c-0.01,0.097-0.012,0.121-0.012,0.121
			c-0.005,0.096-0.005,0.12-0.005,0.12c0.001,0.095,0.002,0.118,0.002,0.118c0.006,0.093,0.008,0.117,0.008,0.117
			c0.012,0.092,0.015,0.115,0.015,0.115c0.017,0.091,0.022,0.114,0.022,0.114c0.023,0.09,0.029,0.112,0.029,0.112
			c0.028,0.088,0.036,0.11,0.036,0.11c0.034,0.087,0.043,0.109,0.043,0.109c0.039,0.086,0.049,0.107,0.049,0.107
			c0.044,0.085,0.056,0.106,0.056,0.106c0.063,0.104,0.077,0.125,0.077,0.125c0.071,0.102,0.086,0.123,0.086,0.123
			c0.079,0.1,0.096,0.12,0.096,0.12c0.088,0.099,0.106,0.118,0.106,0.118c0.076,0.077,0.116,0.116,0.116,0.116
			c0.083,0.076,0.126,0.114,0.126,0.114c0.089,0.074,0.136,0.111,0.136,0.111c0.096,0.073,0.145,0.109,0.145,0.109
			c0.366,0.247,0.673,0.463,0.918,0.675c0.238,0.204,0.412,0.381,0.551,0.54c0.061,0.073,0.091,0.109,0.091,0.109
			c0.057,0.073,0.085,0.109,0.085,0.109c0.053,0.073,0.078,0.11,0.078,0.11c0.049,0.073,0.072,0.11,0.072,0.11
			c0.044,0.073,0.065,0.11,0.065,0.11c0.04,0.074,0.059,0.11,0.059,0.11c0.036,0.074,0.053,0.111,0.053,0.111
			c0.032,0.074,0.046,0.111,0.046,0.111c0.027,0.074,0.04,0.111,0.04,0.111c0.028,0.093,0.034,0.112,0.034,0.112
			c0.023,0.093,0.027,0.112,0.027,0.112c0.018,0.093,0.021,0.112,0.021,0.112c0.012,0.094,0.014,0.113,0.014,0.113
			c0.007,0.094,0.008,0.113,0.008,0.113c0.002,0.094,0.002,0.113,0.002,0.113c-0.003,0.095-0.005,0.113-0.005,0.113
			c-0.009,0.095-0.011,0.114-0.011,0.114c-0.014,0.095-0.017,0.114-0.017,0.114c-0.019,0.095-0.024,0.114-0.024,0.114
			c-0.019,0.076-0.03,0.115-0.03,0.115c-0.024,0.077-0.037,0.115-0.037,0.115c-0.028,0.077-0.043,0.115-0.043,0.115
			c-0.032,0.077-0.049,0.116-0.049,0.116c-0.036,0.077-0.056,0.116-0.056,0.116c-0.041,0.077-0.062,0.116-0.062,0.116
			c-0.045,0.078-0.068,0.116-0.068,0.116c-0.049,0.078-0.075,0.117-0.075,0.117c-0.599,0.836-1.336,1.442-2.048,2.143
			c-2.589,2.421-6.031,5.277-8.773,7.569c-1.359,1.136-3.087,2.591-4.366,3.798c-0.754,0.72-1.663,1.584-2.228,2.415
			c-0.046,0.073-0.068,0.108-0.068,0.108c-0.058,0.102-0.067,0.118-0.067,0.118c-0.046,0.094-0.053,0.109-0.053,0.109
			c-0.039,0.1-0.044,0.113-0.044,0.113c-0.026,0.102-0.028,0.114-0.028,0.114c-0.005,0.099-0.005,0.109-0.005,0.109
			c0.027,0.098,0.031,0.106,0.031,0.106c0.105,0.101,0.113,0.105,0.113,0.105c1.106,0.501,3.072,1.277,4.194,1.763
			c0.077,0.039,0.115,0.058,0.115,0.058c0.074,0.04,0.11,0.061,0.11,0.061c0.105,0.064,0.139,0.086,0.139,0.086
			c0.099,0.068,0.13,0.091,0.13,0.091c0.092,0.071,0.122,0.095,0.122,0.095c0.086,0.075,0.113,0.1,0.113,0.1
			c0.105,0.105,0.13,0.132,0.13,0.132c0.071,0.083,0.094,0.111,0.094,0.111c0.065,0.087,0.086,0.116,0.086,0.116
			c0.059,0.09,0.077,0.121,0.077,0.121c0.052,0.094,0.069,0.126,0.069,0.126c0.046,0.098,0.06,0.131,0.06,0.131
			c0.039,0.101,0.051,0.136,0.051,0.136c0.033,0.105,0.043,0.141,0.043,0.141c0.018,0.072,0.027,0.109,0.027,0.109
			c0.015,0.074,0.022,0.111,0.022,0.111c0.012,0.076,0.017,0.114,0.017,0.114c0.009,0.078,0.012,0.117,0.012,0.117
			c0.005,0.079,0.007,0.12,0.007,0.12c0.002,0.081,0.003,0.122,0.003,0.122c-0.001,0.083-0.002,0.125-0.002,0.125
			c-0.004,0.085-0.007,0.128-0.007,0.128c-0.086,0.991-0.453,1.749-0.837,2.594c-0.459,1.038-0.882,2.191-1.246,3.267
			c-0.7,2.061-1.319,4.391-1.849,6.509c-0.191,0.777-0.326,1.586-0.408,2.381c-0.432,4.397,0.544,8.817,1.908,12.978
			c1.744,4.993,3.958,10.912,5.955,15.802c0.449,1.041,1.006,2.468,1.527,3.464c0.721,1.431,1.565,2.83,2.617,4.044
			c1.184,1.379,2.522,2.327,4.2,2.924c2.004,0.73,4.152,1.027,6.271,1.174c3.09,0.183,6.392,0.067,9.486-0.061
			c1.803-0.103,3.762-0.238,5.55-0.478c1.487-0.197,3.177-0.647,4.283-1.654c0.104-0.098,0.138-0.131,0.138-0.131
			c0.098-0.102,0.13-0.136,0.13-0.136c0.092-0.105,0.121-0.141,0.121-0.141c0.058-0.072,0.086-0.108,0.086-0.108
			c0.055-0.074,0.081-0.111,0.081-0.111c0.052-0.075,0.077-0.114,0.077-0.114c0.049-0.077,0.072-0.116,0.072-0.116
			c0.046-0.079,0.068-0.119,0.068-0.119c0.043-0.081,0.063-0.121,0.063-0.121c0.04-0.082,0.059-0.124,0.059-0.124
			c0.037-0.084,0.054-0.126,0.054-0.126c0.034-0.086,0.05-0.129,0.05-0.129c0.031-0.087,0.045-0.131,0.045-0.131
			c0.028-0.089,0.041-0.134,0.041-0.134c0.025-0.091,0.036-0.137,0.036-0.137c0.022-0.093,0.032-0.14,0.032-0.14
			c0.278-1.485-0.078-2.948-0.486-4.358c-0.658-2.207-1.717-4.296-2.69-6.375c-0.68-1.527-1.274-3.125-1.616-4.764
			c-0.293-1.406-0.404-2.94-0.065-4.339c0.627-2.433,1.902-5.04,4.241-6.096c0.093-0.04,0.124-0.053,0.124-0.053
			c0.091-0.036,0.121-0.047,0.121-0.047c0.089-0.031,0.119-0.04,0.119-0.04c0.087-0.026,0.116-0.034,0.116-0.034
			c0.085-0.021,0.113-0.027,0.113-0.027c0.083-0.016,0.11-0.021,0.11-0.021c0.081-0.012,0.107-0.015,0.107-0.015
			c0.105-0.008,0.13-0.009,0.13-0.009c0.101,0,0.126,0.001,0.126,0.001c0.098,0.008,0.121,0.011,0.121,0.011
			c0.106,0.018,0.117,0.021,0.117,0.021c0.102,0.027,0.113,0.031,0.113,0.031c0.098,0.036,0.108,0.041,0.108,0.041
			c0.104,0.051,0.114,0.057,0.114,0.057c0.099,0.062,0.109,0.069,0.109,0.069c0.094,0.073,0.113,0.089,0.113,0.089
			c0.089,0.085,0.106,0.103,0.106,0.103c0.084,0.097,0.1,0.118,0.1,0.118c0.063,0.087,0.079,0.109,0.079,0.109
			c0.06,0.095,0.074,0.119,0.074,0.119c0.078,0.141,0.104,0.2,0.124,0.238c0.058,0.1,0.066,0.112,0.066,0.112
			c0.073,0.099,0.081,0.109,0.081,0.109c0.099,0.101,0.109,0.11,0.109,0.11c0.1,0.073,0.11,0.08,0.11,0.08
			c0.098,0.051,0.109,0.056,0.109,0.056c0.106,0.036,0.118,0.039,0.118,0.039c0.1,0.02,0.113,0.022,0.113,0.022
			c0.093,0.008,0.106,0.008,0.106,0.008c0.098-0.001,0.112-0.002,0.112-0.002c0.102-0.01,0.117-0.013,0.117-0.013
			c0.092-0.016,0.107-0.019,0.107-0.019c0.095-0.023,0.127-0.032,0.127-0.032c0.099-0.031,0.133-0.042,0.133-0.042
			c0.103-0.039,0.138-0.053,0.138-0.053c1.655-0.752,2.657-2.118,4.024-3.199c0.866-0.687,1.835-1.273,2.897-1.597
			c1.049-0.329,2.159-0.34,3.168-0.077c0.085,0.016,0.114,0.021,0.114,0.021c0.849,0.123,1.607-0.007,2.383-0.168
			c0.997-0.221,1.99-0.558,2.945-0.921c3.34-1.298,6.618-3.066,9.742-4.818c-0.179,3.349-0.466,7.319-0.187,10.64
			c0.141,1.486,0.339,3.165,1.116,4.442c0.069,0.105,0.087,0.13,0.087,0.13c0.072,0.098,0.091,0.122,0.091,0.122
			c0.075,0.092,0.094,0.114,0.094,0.114c0.078,0.086,0.098,0.106,0.098,0.106c0.102,0.098,0.122,0.117,0.122,0.117
			c0.085,0.072,0.106,0.089,0.106,0.089c0.088,0.065,0.11,0.08,0.11,0.08c0.091,0.058,0.114,0.072,0.114,0.072
			c0.102,0.055,0.117,0.063,0.117,0.063c0.096,0.044,0.113,0.051,0.113,0.051c0.099,0.038,0.133,0.05,0.133,0.05
			c0.102,0.032,0.137,0.042,0.137,0.042c0.105,0.026,0.14,0.034,0.14,0.034c0.072,0.014,0.108,0.021,0.108,0.021
			c1.304,0.192,2.724-0.212,3.968,0.133c0.085,0.023,0.128,0.036,0.128,0.036c0.085,0.026,0.127,0.041,0.127,0.041
			c0.084,0.03,0.126,0.046,0.126,0.046c0.083,0.033,0.125,0.051,0.125,0.051c0.098,0.044,0.126,0.058,0.126,0.058
			c0.084,0.042,0.112,0.057,0.112,0.057c0.24,0.129,0.409,0.247,0.57,0.37c0.105,0.084,0.158,0.127,0.158,0.127
			c0.104,0.089,0.155,0.136,0.155,0.136c0.102,0.095,0.153,0.144,0.153,0.144c1.035,1.043,1.665,2.248,2.207,3.577
			c0.524,1.338,0.887,2.752,1.004,4.186c1.654,3.012,3.506,5.978,5.816,8.535c1.409,1.54,3.019,2.962,4.927,3.846
			c1.648,0.762,3.442,1.21,5.222,1.538c2.639,0.473,5.365,0.674,8.042,0.761c7.225,0.063,35.139,0.13,42.116-0.063
			c2.763-0.108,5.782-0.269,8.518-0.657c1.733-0.268,3.65-0.568,5.19-1.393c0.103-0.061,0.137-0.081,0.137-0.081
			c0.097-0.062,0.128-0.083,0.128-0.083c0.09-0.063,0.119-0.084,0.119-0.084c0.083-0.064,0.11-0.086,0.11-0.086
			c0.101-0.087,0.124-0.109,0.124-0.109c0.089-0.089,0.11-0.111,0.11-0.111c0.078-0.091,0.096-0.114,0.096-0.114
			c0.067-0.093,0.082-0.116,0.082-0.116c0.056-0.094,0.068-0.118,0.068-0.118c0.588-1.179,0.828-2.416,1.022-3.699
			c0.351-2.547,0.35-5.194,0.276-7.761c-0.084-2.289-0.244-4.641-0.734-6.882c-0.275-1.216-0.687-2.579-1.43-3.57
			c-0.063-0.081-0.096-0.121-0.096-0.121c-0.065-0.077-0.098-0.114-0.098-0.114c-0.066-0.073-0.1-0.109-0.1-0.109
			c-0.105-0.106-0.142-0.14-0.142-0.14c-0.074-0.068-0.112-0.102-0.112-0.102c-0.078-0.066-0.118-0.099-0.118-0.099
			c-1.09-0.855-2.299-1.179-3.607-1.427c-2.514-0.455-5.119-0.231-7.658-0.241c-4.781-0.015-9.824-0.37-14.583-0.85
			c-2.524-0.288-5.078-0.752-7.439-1.713c-1.76-0.711-3.551-1.851-4.594-3.415c-1.155-1.959-2.11-4.282-2.129-6.554
			c-0.04-3.139,1.526-7.03,2.363-10.037c0.978-3.379,1.844-6.888,2.296-10.378c0.397-2.688,0.362-7.094,0.432-9.846
			c0.074-2.158,0.276-4.359,0.686-6.48c0.544-2.816,1.425-5.62,2.383-8.32c2.503-7.092,6.396-14.945,9.422-21.848
			c1.486-3.439,2.7-7.106,3.692-10.718c1.684-6.147,3.723-15.574,6.177-21.363c0.522-1.189,1.147-2.49,2.001-3.457
			c0.088-0.096,0.133-0.142,0.133-0.142c0.089-0.089,0.133-0.131,0.133-0.131c0.089-0.081,0.134-0.12,0.134-0.12
			c0.09-0.074,0.135-0.109,0.135-0.109c0.09-0.066,0.135-0.098,0.135-0.098c0.09-0.059,0.136-0.086,0.136-0.086
			c0.091-0.051,0.136-0.074,0.136-0.074c0.091-0.043,0.137-0.062,0.137-0.062c0.092-0.035,0.138-0.05,0.138-0.05
			c0.092-0.026,0.138-0.037,0.138-0.037c0.092-0.018,0.139-0.024,0.139-0.024c0.093-0.009,0.139-0.011,0.139-0.011
			c0.093,0,0.14,0.002,0.14,0.002c0.094,0.009,0.141,0.015,0.141,0.015c0.094,0.018,0.141,0.029,0.141,0.029
			c0.09,0.025,0.12,0.035,0.12,0.035c0.09,0.033,0.12,0.045,0.12,0.045c0.09,0.04,0.12,0.054,0.12,0.054
			c0.09,0.046,0.121,0.063,0.121,0.063c0.091,0.053,0.121,0.071,0.121,0.071c0.091,0.059,0.121,0.079,0.121,0.079
			c0.091,0.065,0.122,0.087,0.122,0.087c0.882,0.694,1.443,1.493,2.085,2.359c0.978,1.322,1.957,3.022,3.16,4.136
			c0.081,0.069,0.108,0.091,0.108,0.091c0.081,0.063,0.107,0.084,0.107,0.084c0.08,0.057,0.107,0.076,0.107,0.076
			c0.106,0.067,0.132,0.083,0.132,0.083c0.104,0.056,0.13,0.069,0.13,0.069c0.103,0.045,0.129,0.055,0.129,0.055
			c0.102,0.033,0.127,0.04,0.127,0.04c0.101,0.02,0.126,0.024,0.126,0.024c0.099,0.007,0.124,0.008,0.124,0.008
			c0.098-0.006,0.122-0.009,0.122-0.009c0.096-0.02,0.12-0.027,0.12-0.027c0.083-0.03,0.11-0.041,0.11-0.041
			c0.082-0.041,0.109-0.057,0.109-0.057c0.081-0.052,0.107-0.071,0.107-0.071c0.079-0.063,0.106-0.086,0.106-0.086
			c0.104-0.099,0.13-0.126,0.13-0.126c0.077-0.086,0.103-0.116,0.103-0.116c0.076-0.095,0.102-0.129,0.102-0.129
			c0.545-0.767,0.805-1.473,1.128-2.284c0.338-0.859,1.251-3.69,1.561-4.609c0.508-1.421,1.048-3.069,1.981-4.24
			c0.089-0.102,0.119-0.134,0.119-0.134c0.09-0.093,0.121-0.122,0.121-0.122c0.092-0.083,0.123-0.109,0.123-0.109
			c0.093-0.073,0.125-0.096,0.125-0.096c0.095-0.063,0.127-0.082,0.127-0.082c0.096-0.052,0.129-0.067,0.129-0.067
			c0.098-0.041,0.131-0.053,0.131-0.053c0.1-0.029,0.133-0.037,0.133-0.037c0.101-0.017,0.135-0.021,0.135-0.021
			c0.077-0.005,0.116-0.005,0.116-0.005c0.078,0.003,0.118,0.006,0.118,0.006c0.079,0.01,0.119,0.017,0.119,0.017
			c0.08,0.018,0.121,0.028,0.121,0.028c0.081,0.025,0.122,0.039,0.122,0.039c0.082,0.032,0.124,0.049,0.124,0.049
			c0.083,0.038,0.125,0.059,0.125,0.059c0.084,0.045,0.127,0.069,0.127,0.069c0.085,0.051,0.128,0.079,0.128,0.079
			c0.086,0.058,0.129,0.088,0.129,0.088c0.087,0.064,0.131,0.097,0.131,0.097c1.02,0.834,1.638,1.741,2.365,2.765
			c0.98,1.399,3.135,5.064,4.056,6.566c0.675,1.067,1.462,2.316,2.319,3.21c0.115,0.117,0.19,0.185,0.229,0.222
			c0.075,0.066,0.112,0.098,0.112,0.098c0.074,0.06,0.11,0.089,0.11,0.089c0.072,0.054,0.108,0.08,0.108,0.08
			c0.071,0.048,0.106,0.07,0.106,0.07c0.104,0.061,0.139,0.079,0.139,0.079c0.102,0.047,0.135,0.061,0.135,0.061
			c0.099,0.033,0.132,0.042,0.132,0.042c0.096,0.019,0.128,0.023,0.128,0.023c0.094,0.004,0.113,0.004,0.113,0.004
			c0.091-0.009,0.11-0.012,0.11-0.012c0.089-0.022,0.107-0.027,0.107-0.027c0.104-0.041,0.121-0.049,0.121-0.049
			c0.101-0.057,0.117-0.068,0.117-0.068c0.098-0.072,0.114-0.085,0.114-0.085c0.096-0.085,0.111-0.101,0.111-0.101
			c0.093-0.098,0.108-0.116,0.108-0.116c0.076-0.091,0.106-0.129,0.106-0.129c0.059-0.08,0.089-0.121,0.089-0.121
			c0.293-0.429,0.446-0.759,0.64-1.16l0.642-1.403c0.162-0.35,0.436-0.875,0.628-1.153c0.061-0.089,0.092-0.131,0.092-0.131
			c0.062-0.083,0.094-0.123,0.094-0.123c0.08-0.096,0.096-0.114,0.096-0.114c0.098-0.104,0.115-0.12,0.115-0.12
			c0.101-0.092,0.118-0.106,0.118-0.106c0.104-0.078,0.122-0.09,0.122-0.09c0.089-0.054,0.107-0.064,0.107-0.064
			c0.092-0.044,0.11-0.051,0.11-0.051c0.09-0.031,0.114-0.038,0.114-0.038c0.098-0.021,0.122-0.025,0.122-0.025
			c0.1-0.01,0.126-0.011,0.126-0.011c0.103,0.001,0.129,0.003,0.129,0.003c0.105,0.012,0.132,0.016,0.132,0.016
			c0.081,0.016,0.108,0.022,0.108,0.022c0.082,0.022,0.11,0.03,0.11,0.03c0.084,0.027,0.112,0.037,0.112,0.037
			c0.085,0.033,0.113,0.044,0.113,0.044c0.086,0.038,0.115,0.051,0.115,0.051c0.661,0.328,1.111,0.719,1.648,1.166
			c0.728,0.625,1.886,1.704,2.634,2.289c0.895,0.709,1.968,1.422,3.054,1.596c0.08,0.012,0.121,0.017,0.121,0.017
			c0.08,0.009,0.121,0.013,0.121,0.013c0.08,0.006,0.12,0.008,0.12,0.008c0.08,0.003,0.131,0.003,0.131,0.003
			c0.101-0.001,0.151-0.003,0.151-0.003c0.101-0.006,0.151-0.011,0.151-0.011c0.101-0.011,0.151-0.018,0.151-0.018
			c0.101-0.016,0.151-0.025,0.151-0.025c0.101-0.02,0.151-0.032,0.151-0.032c0.101-0.025,0.151-0.038,0.151-0.038
			c0.101-0.029,0.151-0.045,0.151-0.045c0.101-0.033,0.151-0.051,0.151-0.051c1.308-0.503,2.222-1.344,3.177-2.224
			c1.137-1.079,2.798-2.91,3.937-3.981c1.41-1.316,3.125-2.75,5.12-2.85c1.378-0.042,2.573,0.495,3.727,1.145
			c1.773,1.012,3.786,2.73,5.413,3.982c1.13,0.853,2.437,1.838,3.782,2.239c0.099,0.027,0.148,0.04,0.148,0.04
			c0.098,0.023,0.146,0.033,0.146,0.033c0.097,0.019,0.145,0.027,0.145,0.027c0.096,0.014,0.143,0.021,0.143,0.021
			c0.095,0.01,0.142,0.014,0.142,0.014c0.094,0.005,0.14,0.007,0.14,0.007c0.092,0.001,0.139,0,0.139,0
			c0.091-0.004,0.137-0.007,0.137-0.007c0.09-0.009,0.135-0.015,0.135-0.015c0.089-0.014,0.134-0.022,0.134-0.022
			c0.088-0.019,0.132-0.03,0.132-0.03c0.08-0.022,0.115-0.033,0.115-0.033c0.071-0.024,0.107-0.037,0.107-0.037
			c0.105-0.042,0.14-0.057,0.14-0.057c0.104-0.049,0.138-0.066,0.138-0.066c0.102-0.055,0.136-0.075,0.136-0.075
			c0.101-0.062,0.135-0.083,0.135-0.083c0.1-0.068,0.133-0.091,0.133-0.091c0.098-0.073,0.131-0.099,0.131-0.099
			c0.097-0.079,0.129-0.106,0.129-0.106c0.096-0.084,0.128-0.113,0.128-0.113c0.954-0.917,1.509-1.931,2.142-3.034
			c0.721-1.266,1.551-3.061,2.524-4.126c0.103-0.105,0.128-0.13,0.128-0.13c0.103-0.096,0.129-0.118,0.129-0.118
			c0.104-0.086,0.13-0.106,0.13-0.106c0.105-0.075,0.131-0.093,0.131-0.093c0.079-0.049,0.106-0.065,0.106-0.065
			c0.08-0.042,0.107-0.055,0.107-0.055c0.081-0.035,0.108-0.046,0.108-0.046c0.081-0.028,0.109-0.036,0.109-0.036
			c0.082-0.021,0.11-0.026,0.11-0.026c0.083-0.013,0.111-0.016,0.111-0.016c0.092-0.005,0.124-0.005,0.124-0.005
			c0.093,0.004,0.125,0.007,0.125,0.007c0.094,0.013,0.126,0.019,0.126,0.019c0.095,0.022,0.127,0.031,0.127,0.031
			c0.096,0.031,0.129,0.043,0.129,0.043c0.097,0.039,0.13,0.054,0.13,0.054c0.098,0.048,0.131,0.065,0.131,0.065
			c0.099,0.055,0.132,0.075,0.132,0.075c0.1,0.063,0.133,0.085,0.133,0.085c0.101,0.07,0.135,0.095,0.135,0.095
			c0.834,0.641,1.37,1.339,2.002,2.12c0.788,1.007,2.039,2.729,2.852,3.698c0.889,1.059,1.965,2.225,3.181,2.777
			c0.089,0.038,0.133,0.057,0.133,0.057c0.089,0.034,0.133,0.051,0.133,0.051c0.089,0.031,0.134,0.045,0.134,0.045
			c0.089,0.026,0.134,0.039,0.134,0.039c0.089,0.022,0.131,0.032,0.131,0.032c0.084,0.017,0.125,0.025,0.125,0.025
			c0.084,0.013,0.126,0.019,0.126,0.019c0.084,0.01,0.126,0.014,0.126,0.014c0.084,0.006,0.126,0.009,0.126,0.009
			c0.084,0.003,0.126,0.004,0.126,0.004c0.084,0,0.126-0.001,0.126-0.001c0.084-0.003,0.126-0.006,0.126-0.006
			c0.084-0.007,0.127-0.011,0.127-0.011c1.596-0.206,2.827-1.174,4.028-2.083c0.803-0.63,2.128-1.764,2.951-2.352
			c0.675-0.486,1.457-0.972,2.211-1.149c0.073-0.016,0.109-0.024,0.109-0.024c0.072-0.013,0.108-0.019,0.108-0.019
			c0.097-0.014,0.129-0.017,0.129-0.017c0.096-0.009,0.128-0.011,0.128-0.011c0.095-0.004,0.127-0.005,0.127-0.005
			c0.095,0,0.126,0.001,0.126,0.001c0.094,0.005,0.125,0.007,0.125,0.007c0.094,0.009,0.125,0.012,0.125,0.012
			c0.093,0.013,0.124,0.018,0.124,0.018c0.093,0.017,0.124,0.023,0.124,0.023c0.092,0.021,0.123,0.028,0.123,0.028
			c0.092,0.025,0.122,0.033,0.122,0.033c1.064,0.335,1.82,0.999,2.63,1.69c1.259,1.116,2.699,2.553,4.213,3.281
			c1.173,0.566,2.328,0.793,3.583,0.989l1.657,0.231c-0.677,1.009-12.556,18.395-12.844,18.902c-0.727,1.131-1.468,2.345-2.09,3.537
			c-0.514,1.009-1.075,2.171-1.236,3.273c-0.011,0.093-0.014,0.124-0.014,0.124c-0.007,0.089-0.009,0.119-0.009,0.119
			c-0.003,0.086-0.004,0.114-0.004,0.114c0,0.082,0.001,0.109,0.001,0.109c0.006,0.104,0.009,0.129,0.009,0.129
			c0.013,0.098,0.017,0.122,0.017,0.122c0.019,0.092,0.025,0.114,0.025,0.114c0.026,0.086,0.033,0.107,0.033,0.107
			c0.041,0.099,0.05,0.118,0.05,0.118c0.05,0.09,0.061,0.107,0.061,0.107c0.073,0.096,0.086,0.111,0.086,0.111
			c0.102,0.096,0.117,0.108,0.117,0.108c0.101,0.068,0.119,0.079,0.119,0.079c0.095,0.047,0.115,0.056,0.115,0.056
			c0.104,0.038,0.126,0.045,0.126,0.045c0.091,0.024,0.114,0.029,0.114,0.029c0.097,0.018,0.122,0.021,0.122,0.021
			c0.103,0.012,0.13,0.014,0.13,0.014c0.082,0.005,0.109,0.006,0.109,0.006c0.082,0.005,0.109,0.008,0.109,0.008
			c0.08,0.009,0.106,0.013,0.106,0.013c0.104,0.017,0.129,0.022,0.129,0.022c0.101,0.023,0.125,0.03,0.125,0.03
			c0.097,0.029,0.121,0.037,0.121,0.037c0.094,0.035,0.117,0.045,0.117,0.045c0.091,0.041,0.113,0.052,0.113,0.052
			c0.088,0.047,0.109,0.06,0.109,0.06c0.105,0.067,0.126,0.082,0.126,0.082c0.1,0.076,0.12,0.092,0.12,0.092
			c0.095,0.085,0.114,0.103,0.114,0.103c0.09,0.094,0.108,0.114,0.108,0.114c0.086,0.103,0.102,0.124,0.102,0.124
			c0.065,0.089,0.081,0.112,0.081,0.112c0.062,0.095,0.077,0.119,0.077,0.119c0.058,0.101,0.072,0.127,0.072,0.127
			c0.042,0.08,0.055,0.107,0.055,0.107c0.505,1.097,0.541,2.2,0.555,3.345c-0.01,1.609-0.225,3.252-0.486,4.839
			c-0.626,3.616-1.436,7.316-2.45,10.844c-0.552,1.913-1.227,3.959-1.947,5.815c-0.588,1.455-1.192,2.97-1.536,4.502
			c-0.37,1.627-0.555,3.524,0.177,5.043c0.053,0.106,0.081,0.158,0.081,0.158c0.057,0.102,0.087,0.153,0.087,0.153
			c0.061,0.099,0.093,0.148,0.093,0.148c0.065,0.096,0.099,0.143,0.099,0.143c0.069,0.093,0.105,0.138,0.105,0.138
			c0.073,0.09,0.111,0.134,0.111,0.134c0.11,0.125,0.216,0.233,0.236,0.256c0.077,0.089,0.095,0.112,0.095,0.112
			c0.073,0.095,0.09,0.119,0.09,0.119c0.069,0.1,0.086,0.125,0.086,0.125c0.065,0.105,0.081,0.132,0.081,0.132
			c0.046,0.082,0.061,0.11,0.061,0.11c0.418,0.789,0.531,1.7,0.57,2.505c0.035,0.905-0.04,1.826-0.162,2.722
			c-0.437,3.164-1.464,6.241-2.434,9.273c-0.858,2.835-1.5,5.79-1.818,8.737c-0.316,2.937-0.319,5.949,0.06,8.879
			c0.095,1.028,1.747,10.078,1.941,11.326c0.492,2.788,1.14,7.394,1.589,10.177c0.611,3.544,1.575,7.117,3.458,10.211
			c0.471,0.777,1.061,1.577,1.666,2.24c0.577,0.639,1.261,1.135,1.906,1.548c2.088,1.286,4.486,1.881,6.888,2.228
			c1.806,0.254,3.691,0.345,5.514,0.348c0,0,21.995,0,21.995,0c0.334-0.012,1.031,0.001,1.366-0.016
			c1.392-0.035,2.868-0.123,4.249-0.3c1.636-0.213,3.283-0.541,4.816-1.164c1.531-0.614,2.875-1.579,3.599-3.014
			c1.219-2.226,1.468-4.845,1.287-7.34c-0.152-1.86-0.463-3.737-1.061-5.508c-0.555-1.651-1.52-3.349-2.89-4.397
			c-0.605-0.479-1.293-0.824-1.954-1.05c-1.017-0.314-2.065-0.491-3.072-0.796c-1.552-0.438-3.126-0.979-4.599-1.638
			c-0.781-0.354-1.745-0.812-2.404-1.293c-1.37-0.938-2.284-2.394-2.335-3.976c-0.037-0.935,0.12-1.679,0.366-2.542
			c0.948-3.078,2.755-5.884,4.479-8.58c8.234-12.464,18.649-26.574,26.889-39.1c1.659-0.122,4.13-0.513,5.79-0.637
			c0.968-0.066,2.073-0.109,2.993,0.156c0.083,0.026,0.11,0.035,0.11,0.035c0.08,0.028,0.107,0.038,0.107,0.038
			c0.103,0.041,0.128,0.052,0.128,0.052c0.098,0.045,0.122,0.057,0.122,0.057c0.093,0.049,0.116,0.062,0.116,0.062
			c0.088,0.053,0.11,0.067,0.11,0.067c0.104,0.073,0.123,0.088,0.123,0.088c0.096,0.08,0.114,0.096,0.114,0.096
			c0.105,0.105,0.121,0.124,0.121,0.124c0.079,0.096,0.094,0.116,0.094,0.116c0.071,0.103,0.084,0.125,0.084,0.125
			c0.051,0.087,0.064,0.11,0.064,0.11c0.047,0.092,0.058,0.115,0.058,0.115c0.042,0.096,0.052,0.12,0.052,0.12
			c0.038,0.1,0.047,0.125,0.047,0.125c0.234,0.72,0.236,1.37,0.25,2.095c0.013,1.203-0.098,2.698,0.301,3.83
			c0.031,0.084,0.042,0.111,0.042,0.111c0.034,0.082,0.045,0.109,0.045,0.109c0.037,0.08,0.049,0.106,0.049,0.106
			c0.053,0.103,0.067,0.128,0.067,0.128c0.058,0.099,0.073,0.124,0.073,0.124c0.063,0.096,0.08,0.119,0.08,0.119
			c0.069,0.091,0.087,0.114,0.087,0.114c0.075,0.087,0.1,0.115,0.1,0.115c0.081,0.082,0.108,0.109,0.108,0.109
			c0.087,0.078,0.116,0.103,0.116,0.103c0.092,0.073,0.124,0.097,0.124,0.097c0.098,0.069,0.132,0.091,0.132,0.091
			c0.104,0.065,0.139,0.086,0.139,0.086c0.975,0.538,1.955,0.661,2.979,0.791c1.389,0.152,3.23,0.195,4.628,0.293
			c1.717,0.139,3.724,0.313,5.14,1.318c0.101,0.076,0.133,0.102,0.133,0.102c0.097,0.08,0.128,0.107,0.128,0.107
			c0.093,0.083,0.123,0.111,0.123,0.111c0.089,0.087,0.118,0.116,0.118,0.116c0.085,0.09,0.113,0.12,0.113,0.12
			c0.082,0.093,0.108,0.124,0.108,0.124c1.203,1.486,1.509,3.476,2.033,5.241c0.371,1.323,0.914,2.793,1.84,3.768
			c0.094,0.098,0.126,0.131,0.126,0.131c0.098,0.095,0.131,0.127,0.131,0.127c0.718,0.651,1.42,0.992,2.239,1.325
			c0.934,0.367,1.938,0.626,2.915,0.85c1.53,0.337,4.167,0.826,5.629,1.292c1.087,0.333,2.332,0.865,3.123,1.624
			c0.075,0.073,0.112,0.11,0.112,0.11c0.072,0.075,0.108,0.113,0.108,0.113c0.069,0.078,0.103,0.117,0.103,0.117
			c0.066,0.08,0.098,0.12,0.098,0.12c0.062,0.082,0.093,0.124,0.093,0.124c0.059,0.085,0.087,0.128,0.087,0.128
			c0.055,0.087,0.082,0.132,0.082,0.132c0.052,0.09,0.075,0.132,0.075,0.132c0.044,0.085,0.066,0.128,0.066,0.128
			c0.041,0.087,0.061,0.131,0.061,0.131c0.545,1.306,0.492,2.586,0.389,3.938c-0.1,1.256-0.542,3.575-0.752,4.843
			c-0.138,0.879-0.288,1.928-0.222,2.785c0.016,0.196,0.04,0.345,0.064,0.461c0.016,0.071,0.024,0.106,0.024,0.106
			c0.028,0.102,0.038,0.135,0.038,0.135c0.033,0.097,0.044,0.128,0.044,0.128c0.038,0.091,0.051,0.121,0.051,0.121
			c0.043,0.085,0.058,0.113,0.058,0.113c0.065,0.105,0.083,0.13,0.083,0.13c0.075,0.095,0.088,0.11,0.088,0.11
			c0.101,0.101,0.117,0.115,0.117,0.115c0.097,0.077,0.113,0.088,0.113,0.088c0.105,0.067,0.123,0.078,0.123,0.078
			c0.094,0.049,0.113,0.059,0.113,0.059c0.099,0.044,0.12,0.052,0.12,0.052c0.104,0.038,0.126,0.046,0.126,0.046
			c0.065,0.02,0.109,0.033,0.109,0.033c0.09,0.024,0.136,0.035,0.136,0.035c0.093,0.02,0.141,0.029,0.141,0.029
			c1.249,0.217,2.569-0.024,3.792,0.212c0.097,0.021,0.145,0.032,0.145,0.032c0.094,0.024,0.141,0.038,0.141,0.038
			c0.091,0.028,0.113,0.036,0.113,0.036c0.088,0.032,0.11,0.04,0.11,0.04c0.106,0.045,0.126,0.054,0.126,0.054
			c0.101,0.051,0.12,0.061,0.12,0.061c0.095,0.057,0.114,0.069,0.114,0.069c0.09,0.063,0.107,0.077,0.107,0.077
			c0.1,0.085,0.116,0.1,0.116,0.1c0.099,0.104,0.12,0.13,0.12,0.13c0.062,0.081,0.082,0.109,0.082,0.109
			c0.056,0.088,0.074,0.119,0.074,0.119c0.051,0.095,0.067,0.127,0.067,0.127c0.045,0.101,0.059,0.136,0.059,0.136
			c0.027,0.071,0.04,0.107,0.04,0.107c0.024,0.074,0.036,0.112,0.036,0.112c0.022,0.077,0.032,0.116,0.032,0.116
			c0.232,1.024,0.134,1.921,0.048,2.915c-0.161,1.521-0.503,3.51-0.67,5.034c-0.169,1.703-0.323,3.598,0.305,5.215
			c0.04,0.096,0.061,0.143,0.061,0.143c0.043,0.093,0.065,0.139,0.065,0.139c0.046,0.091,0.07,0.135,0.07,0.135
			c0.047,0.084,0.07,0.124,0.07,0.124c0.048,0.078,0.072,0.117,0.072,0.117c0.05,0.076,0.076,0.114,0.076,0.114
			c0.053,0.074,0.08,0.111,0.08,0.111c0.055,0.072,0.084,0.107,0.084,0.107c0.087,0.104,0.117,0.139,0.117,0.139
			c0.092,0.101,0.123,0.133,0.123,0.133c0.096,0.097,0.129,0.128,0.129,0.128c0.101,0.093,0.135,0.123,0.135,0.123
			c0.829,0.711,1.713,1.075,2.661,1.408c0.922,0.327,2.924,0.807,3.891,1.064c0.932,0.255,2.017,0.597,2.803,1.098
			c0.105,0.068,0.139,0.091,0.139,0.091c0.101,0.071,0.133,0.095,0.133,0.095c0.096,0.074,0.128,0.099,0.128,0.099
			c0.092,0.077,0.122,0.103,0.122,0.103c0.087,0.08,0.115,0.107,0.115,0.107c0.082,0.083,0.109,0.111,0.109,0.111
			c0.079,0.088,0.098,0.111,0.098,0.111c0.074,0.092,0.092,0.115,0.092,0.115c0.07,0.095,0.087,0.119,0.087,0.119
			c0.049,0.073,0.081,0.122,0.081,0.122c0.061,0.1,0.091,0.151,0.091,0.151c0.704,1.276,0.688,2.817,0.829,4.218
			c0.033,0.366,0.106,0.906,0.194,1.226c0.026,0.094,0.039,0.14,0.039,0.14c0.029,0.09,0.044,0.135,0.044,0.135
			c0.032,0.087,0.049,0.129,0.049,0.129c0.044,0.103,0.054,0.123,0.054,0.123c0.049,0.097,0.059,0.116,0.059,0.116
			c0.054,0.092,0.065,0.109,0.065,0.109c0.071,0.102,0.083,0.117,0.083,0.117c0.083,0.099,0.096,0.112,0.096,0.112
			c0.105,0.102,0.119,0.114,0.119,0.114c0.1,0.08,0.115,0.091,0.115,0.091c0.092,0.062,0.107,0.072,0.107,0.072
			c0.097,0.057,0.114,0.066,0.114,0.066c0.102,0.051,0.137,0.068,0.137,0.068c0.071,0.031,0.108,0.046,0.108,0.046
			c0.074,0.028,0.112,0.042,0.112,0.042c0.077,0.026,0.115,0.038,0.115,0.038c1.342,0.367,2.853,0.199,4.183,0.422
			c2.76,0.414,4.747,2.408,6.551,4.323c4.038,3.392,8.943,5.713,14.104,6.775c1.77,0.371,3.593,0.609,5.397,0.727
			c15.307,0.247,43.974,0.013,59.179,0.091c3.532,0.023,5.776-1.709,6.428-5.123c0.365-1.822,0.209-3.688,0.19-5.523
			c-0.106-3.38-0.408-6.833-0.924-10.176c-0.224-1.338-0.417-2.773-0.878-4.052c-0.417-1.233-1.105-2.493-1.927-3.422
			c-0.925-1.077-2.114-1.864-3.34-2.372c-1.214-0.505-2.421-0.731-3.699-0.929c-3.905-0.55-7.898-0.253-11.783,0.318
			c-4.057,0.669-8.182,1.521-12.315,1.366c-1.811-0.085-3.822-0.312-5.368-1.297c-1.015-0.649-1.843-1.404-2.691-2.237
			c-1.423-1.419-2.757-3.011-4.004-4.587c-6.516-8.397-12.132-17.686-17.221-27.009c-5.236-9.412-20.244-41.409-25.194-51.505
			c-0.856-1.394-1.587-2.892-2.109-4.443c-0.412-1.252-0.744-2.712-0.53-3.993c0.019-0.102,0.026-0.136,0.026-0.136
			c0.022-0.1,0.03-0.133,0.03-0.133c0.026-0.098,0.035-0.131,0.035-0.131c0.029-0.096,0.039-0.128,0.039-0.128
			c0.033-0.094,0.044-0.125,0.044-0.125c0.036-0.091,0.049-0.121,0.049-0.121c0.04-0.089,0.054-0.118,0.054-0.118
			c0.043-0.086,0.059-0.115,0.059-0.115c0.047-0.084,0.064-0.111,0.064-0.111c0.051-0.081,0.069-0.108,0.069-0.108
			c0.074-0.104,0.089-0.124,0.089-0.124c0.08-0.099,0.096-0.118,0.096-0.118c0.086-0.095,0.103-0.113,0.103-0.113
			c0.091-0.091,0.129-0.126,0.129-0.126c0.078-0.069,0.118-0.103,0.118-0.103c0.082-0.066,0.124-0.098,0.124-0.098
			c0.086-0.063,0.13-0.094,0.13-0.094c0.09-0.06,0.136-0.09,0.136-0.09c0.784-0.48,1.516-0.697,2.367-0.947
			c4.758,3.247,10.163,5.702,15.819,6.853c1.276,0.263,3.654,0.704,4.89,1.019c1.695,0.408,3.506,1.151,4.696,2.383
			c1.27,1.303,2.008,2.756,2.799,4.33c0.717,1.486,1.998,4.373,2.829,5.751c0.75,1.276,1.711,2.569,2.957,3.238
			c0.093,0.049,0.14,0.072,0.14,0.072c0.095,0.045,0.142,0.067,0.142,0.067c1.006,0.447,2.066,0.475,3.064,0.411
			c1.193-0.074,2.911-0.439,4.101-0.653c1.389-0.237,3.012-0.508,4.324-0.003c0.073,0.03,0.109,0.045,0.109,0.045
			c0.072,0.032,0.107,0.049,0.107,0.049c0.105,0.053,0.14,0.072,0.14,0.072c0.102,0.058,0.136,0.079,0.136,0.079
			c0.104,0.067,0.142,0.093,0.142,0.093c0.074,0.054,0.111,0.081,0.111,0.081c0.072,0.057,0.108,0.087,0.108,0.087
			c0.105,0.092,0.139,0.124,0.139,0.124c0.101,0.099,0.134,0.134,0.134,0.134c0.065,0.07,0.097,0.106,0.097,0.106
			c0.955,1.138,1.33,2.461,1.719,3.825c0.596,2.229,1.074,5.239,1.777,7.428c0.302,0.963,0.753,2.069,1.319,2.876
			c1.427,2.085,3.925,2.685,6.152,3.442c1.316,0.441,2.772,1.074,3.653,2.129c1.493,1.788,2.027,4.284,2.83,6.405
			c0.478,1.31,1.104,2.774,2.084,3.736c0.093,0.089,0.124,0.118,0.124,0.118c0.096,0.085,0.128,0.113,0.128,0.113
			c0.099,0.082,0.132,0.108,0.132,0.108c1.544,1.179,3.501,1.262,5.29,1.123c2.51-0.236,4.959-1.007,7.265-2.004
			c4.953,4.487,10.284,8.763,15.93,12.347c4.387,2.777,9.109,5.167,14.16,6.455c6.453,1.682,13.38,1.688,19.781-0.234
			C639.073,495.71,642.049,494.219,644.858,492.538z"/>
	</g>
</g>
</svg>
