<?xml version="1.0" encoding="utf-8"?>
<!-- Generator: Adobe Illustrator 24.2.0, SVG Export Plug-In . SVG Version: 6.00 Build 0)  -->
<!DOCTYPE svg PUBLIC "-//W3C//DTD SVG 1.1//EN" "http://www.w3.org/Graphics/SVG/1.1/DTD/svg11.dtd" [
	<!ENTITY ns_extend "http://ns.adobe.com/Extensibility/1.0/">
	<!ENTITY ns_ai "http://ns.adobe.com/AdobeIllustrator/10.0/">
	<!ENTITY ns_graphs "http://ns.adobe.com/Graphs/1.0/">
	<!ENTITY ns_vars "http://ns.adobe.com/Variables/1.0/">
	<!ENTITY ns_imrep "http://ns.adobe.com/ImageReplacement/1.0/">
	<!ENTITY ns_sfw "http://ns.adobe.com/SaveForWeb/1.0/">
	<!ENTITY ns_custom "http://ns.adobe.com/GenericCustomNamespace/1.0/">
	<!ENTITY ns_adobe_xpath "http://ns.adobe.com/XPath/1.0/">
]>
<svg version="1.1" xmlns:x="&ns_extend;" xmlns:i="&ns_ai;" xmlns:graph="&ns_graphs;"
	 xmlns="http://www.w3.org/2000/svg" xmlns:xlink="http://www.w3.org/1999/xlink" x="0px" y="0px" width="750px" height="750px"
	 viewBox="0 0 750 750" enable-background="new 0 0 750 750" xml:space="preserve">
<metadata>
	<sfw  xmlns="&ns_sfw;">
		<slices></slices>
		<sliceSourceBounds  bottomLeftOrigin="true" height="9750" width="8220" x="-4000" y="-1526"></sliceSourceBounds>
	</sfw>
</metadata>
<g id="FILL-BACKGROUND">
	<rect fill="#FFFFFF" width="750" height="750"/>
</g>
<g id="N-TEXT">
</g>
<g id="N-DIMENSIONS">
</g>
<g id="AG-DIAGRAM">
	<g id="POLYLINE_62_">
		<g>
			<g>
				
					<line fill="none" stroke="#FB8604" stroke-width="3.25" stroke-linecap="round" stroke-linejoin="round" x1="174.614" y1="638.494" x2="176.614" y2="638.494"/>
				
					<line fill="none" stroke="#FB8604" stroke-width="3.25" stroke-linecap="round" stroke-linejoin="round" stroke-dasharray="4.0352,7.0617" x1="183.676" y1="638.494" x2="490.858" y2="638.494"/>
				
					<line fill="none" stroke="#FB8604" stroke-width="3.25" stroke-linecap="round" stroke-linejoin="round" x1="494.389" y1="638.494" x2="496.389" y2="638.494"/>
			</g>
		</g>
	</g>
</g>
<g id="AG-DETAIL-DIAGRAM">
</g>
<g id="AG-DETAILS">
</g>
<g id="AG-ANIMALS">
	<g id="POLYLINE_348_">
		
			<path fill="none" stroke="#FB8604" stroke-width="2.75" stroke-linecap="round" stroke-linejoin="round" stroke-miterlimit="10" d="
			M204.372,348.314c-3.659,7.118-6.938,14.586-9.167,22.282c-1.561,5.437-2.623,11.084-2.637,16.755
			c-0.001,1.565,0.083,3.183,0.262,4.736c0.187,1.586,0.522,3.402,0.82,4.981c0.701,3.638,1.601,7.319,2.745,10.843
			c1.371,4.203,3.132,8.341,5.486,12.091c0.882,1.383,1.917,2.798,2.777,4.201c1.656,2.665,3.149,5.512,4.471,8.357
			c2.746,5.918,4.974,12.278,6.857,18.522c1.314,4.432,2.612,9.04,3.371,13.598c0.222,1.411,0.412,2.846,0.444,4.272
			c0.015,0.791-0.009,1.588-0.151,2.366c-0.134,0.71-0.376,1.417-0.639,2.09c-0.439,1.107-1.004,2.244-1.571,3.294
			c-3.822,6.921-9.282,13.999-14.011,20.372c-2.723,3.519-6.025,8.034-9.018,11.253c-0.159,0.168-0.316,0.348-0.458,0.53
			c-0.64,0.815-1.09,1.771-1.356,2.771c-0.405,1.52-0.418,3.124-0.246,4.679c0.11,0.983,0.299,1.973,0.535,2.934
			c0.475,1.775,0.857,3.741,1.167,5.559c1.493,8.935,2.529,20.426,3.397,29.52c0.832,9.6,1.878,22.422,2.239,31.997
			c0.148,4.059,0.21,8.583,0.029,12.633c-0.099,2.189-0.266,4.553-0.581,6.722c-0.207,1.4-0.476,2.837-0.909,4.186
			c-0.803,2.247-1.52,4.587-1.506,6.995c0.007,1.251,0.239,2.568,0.931,3.621c0.482,0.744,1.099,1.266,1.843,1.688
			c0.106,0.052,0.235,0.131,0.344,0.178c0.389,0.204,0.858,0.322,1.217,0.522c1.644,0.856,2.539,2.5,3.075,4.189
			c0.4,1.252,0.545,2.578,0.917,3.837c0.602,2.106,1.508,4.253,3.21,5.702c1.239,1.02,2.826,1.515,4.394,1.738
			c0.815,0.121,1.666,0.159,2.489,0.163c1.482-0.018,11.123,0.082,12.405-0.098c1.036-0.121,2.228-0.319,3.029-1.008
			c0.051-0.048,0.076-0.072,0.076-0.072c0.047-0.049,0.059-0.061,0.059-0.061c0.044-0.05,0.055-0.063,0.055-0.063
			c0.041-0.052,0.051-0.065,0.051-0.065c0.029-0.039,0.038-0.053,0.038-0.053c0.027-0.04,0.036-0.054,0.036-0.054
			c0.025-0.041,0.034-0.055,0.034-0.055c0.024-0.042,0.031-0.056,0.031-0.056c0.022-0.042,0.029-0.057,0.029-0.057
			c0.02-0.043,0.026-0.058,0.026-0.058c0.018-0.044,0.024-0.059,0.024-0.059c0.016-0.045,0.022-0.06,0.022-0.06
			c0.015-0.046,0.019-0.061,0.019-0.061c0.013-0.046,0.017-0.062,0.017-0.062c0.011-0.047,0.014-0.063,0.014-0.063
			c0.297-1.506-0.078-3.074-0.873-4.369c-0.532-0.836-1.266-1.533-2.024-2.164c-1.078-0.898-2.296-1.656-3.481-2.403
			c-0.795-0.528-1.548-1.132-2.228-1.802c-0.935-0.919-1.74-1.975-2.384-3.117c-0.744-1.321-1.273-2.808-1.815-4.222
			c-0.691-1.88-1.3-3.838-1.776-5.783c-0.3-1.228-0.485-2.503-0.596-3.761c-0.154-1.732-0.167-3.553-0.111-5.292
			c0.061-1.431,0.16-2.975,0.157-4.409c-0.035-14.421-2.352-29.224-1.923-43.653c0.146-6.706,1.1-13.457,3.294-19.812
			c1.76-5.117,4.201-10.074,7.625-14.289c0.84-1.029,1.777-2.059,2.735-2.981c0.734-0.709,1.58-1.419,2.315-2.128
			c3.682-3.575,7.562-7.95,10.964-11.812c9.295-10.538,32.738-39.203,42.062-50.237c1.04-1.156,2.182-2.304,3.337-3.347
			c1.697-1.532,3.541-2.96,5.445-4.225c6.079-4.046,13.042-6.652,20.15-8.218"/>
	</g>
	<g id="POLYLINE_347_">
		
			<path fill="none" stroke="#FB8604" stroke-width="2.75" stroke-linecap="round" stroke-linejoin="round" stroke-miterlimit="10" d="
			M205.226,631.491c5.602-1.642,10.748-4.75,14.895-8.849"/>
	</g>
	<g id="POLYLINE_346_">
		
			<path fill="none" stroke="#FB8604" stroke-width="2.75" stroke-linecap="round" stroke-linejoin="round" stroke-miterlimit="10" d="
			M519.522,311.575c-3.782-2.295-12.171-0.929-14.874,2.627c-1.243,1.58-1.572,3.695-1.326,5.651
			c0.199,1.599,0.686,3.276,1.914,4.393c1.335,1.221,3.169,1.706,4.909,2.021c1.565,0.263,3.169,0.345,4.752,0.238
			c1.221-0.089,2.455-0.286,3.602-0.725c2.939-1.109,3.673-3.715,3.866-6.565C522.558,316.464,522.085,313.12,519.522,311.575z"/>
	</g>
	<g id="POLYLINE_345_">
		
			<path fill="none" stroke="#FB8604" stroke-width="2.75" stroke-linecap="round" stroke-linejoin="round" stroke-miterlimit="10" d="
			M485.98,299.525c0.898,6.363,1.743,13.059,4.618,18.875c1.401,2.803,3.348,5.355,5.777,7.344
			c3.732,3.083,8.481,4.722,13.249,5.276c2.121,0.24,4.286,0.262,6.404-0.019c1.711-0.23,3.419-0.665,4.976-1.423
			c1.758-0.847,3.3-2.126,4.495-3.665c1.466-1.876,2.462-4.083,3.212-6.331c1.557-4.759,2.244-9.873,2.816-14.836
			c0.168-1.675,0.697-7.338,0.954-8.863c0.15-0.902,0.348-1.809,0.659-2.669c0.567-1.617,1.603-3.048,2.902-4.157
			c1.492-1.28,3.331-2.171,5.276-2.48c2.207-0.347,4.689-0.107,6.914-0.247c1.814-0.097,3.637-0.457,5.28-1.25
			c1.761-0.834,3.341-2.033,4.738-3.384c1.958-1.906,3.589-4.153,4.884-6.556c1.629-3.021,2.713-6.343,3.19-9.741
			c0.328-2.341,0.404-4.741,0.098-7.088c-0.176-1.3-0.47-2.605-0.983-3.816c-0.379-0.904-0.943-1.827-1.662-2.479
			c-0.621-0.571-1.379-0.938-2.192-1.133c-0.855-0.205-1.75-0.221-2.623-0.148c-1.312,0.112-2.621,0.428-3.885,0.789
			c-2.302,0.686-4.654,1.5-6.868,2.43c-2.869,1.218-5.649,2.771-7.942,4.902c-1.732,1.577-3.187,3.662-4.585,5.538
			c-0.359,0.496-0.802,1.044-1.206,1.501c-0.301,0.33-0.661,0.685-1.025,0.878c-0.037,0.019-0.056,0.028-0.056,0.028
			c-0.037,0.017-0.055,0.025-0.055,0.025c-0.036,0.015-0.055,0.022-0.055,0.022c-0.036,0.013-0.054,0.019-0.054,0.019
			c-0.036,0.011-0.054,0.016-0.054,0.016c-0.035,0.009-0.053,0.013-0.053,0.013c-0.053,0.01-0.07,0.012-0.07,0.012
			c-0.052,0.006-0.064,0.006-0.064,0.006c-0.048,0.002-0.06,0.002-0.06,0.002c-0.047-0.002-0.059-0.003-0.059-0.003
			c-0.047-0.005-0.059-0.007-0.059-0.007c-0.046-0.009-0.058-0.011-0.058-0.011c-0.046-0.012-0.058-0.015-0.058-0.015
			c-0.046-0.015-0.057-0.019-0.057-0.019c-0.045-0.018-0.057-0.023-0.057-0.023c-0.045-0.021-0.056-0.027-0.056-0.027
			c-0.045-0.024-0.056-0.031-0.056-0.031c-0.045-0.027-0.056-0.034-0.056-0.034c-0.033-0.022-0.055-0.038-0.055-0.038
			c-0.044-0.033-0.066-0.05-0.066-0.05c-0.044-0.036-0.066-0.054-0.066-0.054c-0.044-0.039-0.066-0.059-0.066-0.059
			c-0.561-0.535-1.148-1.526-1.601-2.155c-1.049-1.526-2.439-2.804-4.003-3.79c-1.557-0.983-3.296-1.702-5.11-2.035
			c-2.915-0.562-6.005,0.21-8.881,0.713c-1.785,0.31-3.625,0.533-5.431,0.28c-3.262-0.421-6.533-2.045-9.874-1.508
			c-1.356,0.219-2.628,0.806-3.802,1.501c-2.512,1.493-4.712,3.616-6.816,5.628c-0.152,0.14-0.354,0.319-0.517,0.431
			c-0.052,0.035-0.078,0.052-0.078,0.052c-0.051,0.031-0.064,0.039-0.064,0.039c-0.05,0.028-0.063,0.034-0.063,0.034
			c-0.05,0.025-0.062,0.03-0.062,0.03c-0.049,0.021-0.061,0.026-0.061,0.026c-0.049,0.017-0.061,0.021-0.061,0.021
			c-0.049,0.014-0.061,0.017-0.061,0.017c-0.049,0.01-0.061,0.012-0.061,0.012c-0.049,0.007-0.061,0.008-0.061,0.008
			c-0.049,0.003-0.062,0.003-0.062,0.003c-0.05-0.001-0.062-0.002-0.062-0.002c-0.05-0.005-0.063-0.007-0.063-0.007
			c-0.051-0.009-0.064-0.011-0.064-0.011c-0.052-0.013-0.065-0.016-0.065-0.016c-0.04-0.012-0.053-0.017-0.053-0.017
			c-0.048-0.018-0.06-0.022-0.06-0.022c-0.047-0.02-0.071-0.031-0.071-0.031c-0.048-0.023-0.072-0.036-0.072-0.036
			c-0.049-0.027-0.074-0.041-0.074-0.041c-0.05-0.03-0.075-0.046-0.075-0.046c-0.52-0.346-0.893-0.77-1.292-1.232
			c-0.669-0.799-1.285-1.695-1.855-2.567l-1.891-3.021c-0.99-1.547-2.137-3.018-3.49-4.266c-1.642-1.531-3.551-2.765-5.519-3.833
			c-2.058-1.107-4.227-2.049-6.456-2.752c-1.693-0.523-3.453-0.936-5.23-1.001c-1.075-0.036-2.239,0.071-3.214,0.535
			c-0.74,0.351-1.3,0.906-1.714,1.568c-0.639,1.035-0.919,2.249-1.084,3.442c-0.343,2.551-0.143,5.927-0.108,8.522
			c0.067,2.286,0.183,4.634,0.675,6.873c0.353,1.626,0.918,3.22,1.719,4.681c0.864,1.585,2.011,3.017,3.27,4.305
			c1.405,1.433,2.977,2.723,4.639,3.848c1.409,0.949,2.908,1.8,4.472,2.464c1.056,0.443,2.161,0.817,3.292,1.006
			c0.915,0.156,1.857,0.155,2.778,0.057c1.035-0.107,2.28-0.372,3.317-0.287c1.282,0.094,2.304,0.851,3.165,1.695
			c0.883,0.878,1.625,1.902,2.279,2.959c0.801,1.311,1.488,2.715,1.996,4.166C485.345,294.934,485.664,297.274,485.98,299.525z"/>
	</g>
	<g id="POLYLINE_344_">
		
			<path fill="none" stroke="#FB8604" stroke-width="2.75" stroke-linecap="round" stroke-linejoin="round" stroke-miterlimit="10" d="
			M201.943,420.103c-2.267-0.562-5.102-0.992-7.313-1.782c-1.425-0.492-2.802-1.166-4.038-2.031
			c-2.387-1.659-4.241-3.974-5.823-6.386c-2.296-3.539-4.093-7.428-5.566-11.375c-2.338-6.352-3.897-13.045-4.407-19.8
			c-0.401-5.544-0.059-11.236,1.725-16.532c5.454-16.333,22.094-25.55,37.479-30.856c16.807-5.676,34.846-7.202,52.487-6.175
			c17.008,0.884,39.407,5.245,56.353,8.125c12.507,2.135,25.728,3.98,38.389,4.66c9.696,0.527,19.623,0.436,29.29-0.481
			c11.798-1.061,28.985-4.37,40.771-5.533c4.585-0.447,9.345-0.717,13.952-0.472c4.186,0.181,9.961,1.026,14.147,1.134
			c2.32,0.041,4.721-0.092,6.877-1.023c1.722-0.734,3.133-2.062,4.23-3.559c1.601-2.165,2.686-4.681,3.703-7.158
			c0.916-2.349,2.712-7.098,3.723-9.33c1.909-4.266,5.579-11.949,7.372-16.192"/>
	</g>
	<g id="POLYLINE_343_">
		
			<path fill="none" stroke="#FB8604" stroke-width="2.75" stroke-linecap="round" stroke-linejoin="round" stroke-miterlimit="10" d="
			M535.967,242.638c3.854-1.319,7.5-3.299,10.981-5.397c1.73-1.077,9.349-5.718,10.879-6.747c2.087-1.39,4.119-2.951,5.727-4.889
			c1.179-1.413,2.112-3.042,2.681-4.794c0.751-2.262,0.856-4.688,0.73-7.052c-0.285-5.299-1.822-11.162-2.965-16.352
			c-0.161-0.771-0.339-1.647-0.439-2.426c-0.055-0.446-0.108-0.974-0.05-1.403c0.005-0.036,0.011-0.071,0.011-0.071
			c0.006-0.034,0.013-0.066,0.013-0.066c0.008-0.032,0.016-0.062,0.016-0.062c0.009-0.029,0.018-0.058,0.018-0.058
			c0.01-0.027,0.02-0.053,0.02-0.053c0.023-0.049,0.027-0.058,0.027-0.058c0.029-0.05,0.034-0.057,0.034-0.057
			c0.038-0.05,0.044-0.056,0.044-0.056c0.049-0.046,0.056-0.051,0.056-0.051c0.048-0.031,0.055-0.035,0.055-0.035
			c0.052-0.023,0.06-0.025,0.06-0.025c0.048-0.013,0.056-0.014,0.056-0.014c0.051-0.006,0.06-0.007,0.06-0.007
			c0.045-0.001,0.054,0,0.054,0c0.047,0.004,0.056,0.005,0.056,0.005c0.049,0.008,0.058,0.01,0.058,0.01
			c0.05,0.012,0.061,0.015,0.061,0.015c0.052,0.016,0.063,0.02,0.063,0.02c0.043,0.016,0.054,0.02,0.054,0.02
			c0.044,0.018,0.066,0.028,0.066,0.028c0.045,0.021,0.068,0.033,0.068,0.033c0.047,0.025,0.07,0.038,0.07,0.038
			c0.559,0.333,0.955,0.761,1.375,1.234c0.733,0.852,1.355,1.815,1.91,2.79c1.075,1.901,1.952,3.964,2.69,6.019
			c0.959,2.704,1.717,5.54,2.174,8.373c0.393,2.486,0.573,5.044,0.215,7.546c-0.274,1.95-0.904,3.852-1.811,5.597
			c-1.284,2.481-3.065,4.697-4.917,6.776c-1.933,2.163-4.172,4.367-6.277,6.371c-8.95,8.442-20.566,17.708-30.04,25.62"/>
	</g>
	<g id="POLYLINE_342_">
		
			<path fill="none" stroke="#FB8604" stroke-width="2.75" stroke-linecap="round" stroke-linejoin="round" stroke-miterlimit="10" d="
			M519.121,258.369c1.317-2.784,2.693-5.693,4.414-8.247c1.337-2.009,2.937-3.871,4.7-5.517c1.576-1.485,3.419-2.972,5.13-4.306
			c4.225-3.238,10.788-7.998,14.602-11.608c6.927-6.405,12.757-14.05,18.102-21.796"/>
	</g>
	<g id="POLYLINE_341_">
		
			<path fill="none" stroke="#FB8604" stroke-width="2.75" stroke-linecap="round" stroke-linejoin="round" stroke-miterlimit="10" d="
			M569.592,200.811c1.014-2.902,1.807-5.931,1.966-9.011c0.238-4.272-0.7-8.549-2.175-12.541c-1.156-3.071-2.68-6.045-4.653-8.673
			c-1.117-1.488-2.418-2.857-3.808-4.092c-3.492-3.096-8.038-5.778-11.804-8.528c-4.255-3.092-8.401-6.496-11.974-10.364
			c-2.069-2.252-3.968-4.722-5.374-7.447c-0.309-0.606-0.615-1.258-0.845-1.9c-0.153-0.426-0.302-0.926-0.325-1.357
			c-0.002-0.052-0.002-0.068-0.002-0.068c0-0.049,0.001-0.065,0.001-0.065c0.003-0.047,0.004-0.062,0.004-0.062
			c0.005-0.044,0.007-0.058,0.007-0.058c0.007-0.041,0.009-0.055,0.009-0.055c0.012-0.051,0.016-0.063,0.016-0.063
			c0.016-0.046,0.02-0.057,0.02-0.057c0.025-0.052,0.03-0.061,0.03-0.061c0.037-0.052,0.043-0.06,0.043-0.06
			c0.044-0.042,0.053-0.048,0.053-0.048c0.044-0.027,0.054-0.032,0.054-0.032c0.05-0.02,0.061-0.023,0.061-0.023
			c0.044-0.01,0.056-0.012,0.056-0.012c0.048-0.005,0.061-0.006,0.061-0.006c0.052,0,0.065,0.001,0.065,0.001
			c0.041,0.003,0.055,0.005,0.055,0.005c0.044,0.006,0.058,0.009,0.058,0.009c0.046,0.009,0.061,0.012,0.061,0.012
			c0.048,0.012,0.064,0.016,0.064,0.016c0.336,0.097,0.595,0.244,0.874,0.401c0.339,0.197,0.713,0.448,1.036,0.675
			c0.871,0.573,7.517,5.909,8.507,6.682c2.168,1.691,6.546,5.026,8.755,6.659c2.816,2.041,5.891,4.355,8.86,6.152
			c1.267,0.75,2.596,1.452,4.002,1.901c0.92,0.291,1.89,0.472,2.857,0.411c1.012-0.059,2.003-0.394,2.802-0.939
			c0.816-0.549,1.441-1.325,1.814-2.178c0.534-1.224,0.566-2.543,0.462-3.848c-0.177-1.984-0.71-3.96-1.26-5.87
			c-1.701-5.306-3.765-13.395-6.1-18.33c-1.251-2.72-2.919-5.215-4.804-7.534c-1.218-1.54-3.781-4.448-4.768-6.094
			c-0.335-0.572-0.705-1.255-0.664-1.926c0.005-0.052,0.007-0.069,0.007-0.069c0.007-0.051,0.01-0.067,0.01-0.067
			c0.01-0.049,0.013-0.066,0.013-0.066c0.012-0.048,0.016-0.064,0.016-0.064c0.014-0.047,0.019-0.062,0.019-0.062
			c0.016-0.045,0.022-0.06,0.022-0.06c0.018-0.044,0.025-0.058,0.025-0.058c0.02-0.042,0.028-0.056,0.028-0.056
			c0.023-0.041,0.03-0.054,0.03-0.054c0.033-0.052,0.042-0.064,0.042-0.064c0.036-0.049,0.046-0.061,0.046-0.061
			c0.04-0.046,0.05-0.057,0.05-0.057c0.043-0.043,0.054-0.054,0.054-0.054c0.046-0.04,0.058-0.05,0.058-0.05
			c0.049-0.037,0.061-0.046,0.061-0.046c0.052-0.034,0.065-0.043,0.065-0.043c0.041-0.024,0.054-0.031,0.054-0.031
			c0.042-0.022,0.056-0.029,0.056-0.029c0.044-0.02,0.059-0.026,0.059-0.026c0.045-0.018,0.061-0.024,0.061-0.024
			c0.047-0.016,0.063-0.021,0.063-0.021c0.048-0.014,0.065-0.018,0.065-0.018c0.05-0.012,0.066-0.016,0.066-0.016
			c0.051-0.01,0.068-0.013,0.068-0.013c0.477-0.08,0.924,0.047,1.337,0.181c0.473,0.164,0.93,0.398,1.362,0.648
			c1.542,0.913,2.923,2.105,4.221,3.334c8.322,7.985,13.05,18.95,15.906,29.956c2.08,8.067,3.409,16.413,4.158,24.707
			c0.574,6.79,0.84,13.732,0.126,20.521c-0.384,3.524-1.12,7.047-2.256,10.407c-1.629,4.905-4.233,9.846-6.504,14.486"/>
	</g>
	<g id="POLYLINE_340_">
		
			<path fill="none" stroke="#FB8604" stroke-width="2.75" stroke-linecap="round" stroke-linejoin="round" stroke-miterlimit="10" d="
			M486.161,300.846c-2.352,6.503-3.768,13.402-3.996,20.318c-0.172,5.725,0.525,11.524,1.466,17.164
			c0.594,3.349,1.239,6.822,2.306,10.054c0.271,0.762,0.562,1.586,1.037,2.241c0.041,0.052,0.061,0.077,0.061,0.077
			c0.041,0.047,0.061,0.069,0.061,0.069c0.04,0.042,0.061,0.062,0.061,0.062c0.04,0.037,0.06,0.054,0.06,0.054
			c0.04,0.032,0.06,0.047,0.06,0.047c0.04,0.027,0.06,0.039,0.06,0.039c0.04,0.022,0.06,0.031,0.06,0.031
			c0.04,0.016,0.059,0.023,0.059,0.023c0.039,0.011,0.059,0.015,0.059,0.015c0.039,0.005,0.059,0.006,0.059,0.006
			c0.039,0,0.058-0.002,0.058-0.002c0.039-0.006,0.058-0.011,0.058-0.011c0.046-0.015,0.054-0.018,0.054-0.018
			c0.046-0.021,0.053-0.025,0.053-0.025c0.045-0.027,0.053-0.032,0.053-0.032c0.053-0.039,0.06-0.045,0.06-0.045
			c0.045-0.039,0.06-0.053,0.06-0.053c0.045-0.044,0.06-0.06,0.06-0.06c0.149-0.161,0.26-0.33,0.355-0.473l0.358-0.559
			c0.104-0.16,0.24-0.349,0.339-0.461c0.048-0.052,0.063-0.069,0.063-0.069c0.048-0.048,0.064-0.063,0.064-0.063
			c0.049-0.043,0.057-0.049,0.057-0.049c0.049-0.038,0.057-0.044,0.057-0.044c0.05-0.033,0.058-0.038,0.058-0.038
			c0.05-0.027,0.059-0.031,0.059-0.031c0.051-0.021,0.059-0.024,0.059-0.024c0.051-0.014,0.06-0.016,0.06-0.016
			c0.052-0.007,0.061-0.008,0.061-0.008c0.053,0,0.061,0,0.061,0c0.051,0.007,0.066,0.01,0.066,0.01
			c0.047,0.013,0.063,0.019,0.063,0.019c0.047,0.02,0.063,0.028,0.063,0.028c0.048,0.026,0.064,0.036,0.064,0.036
			c0.049,0.032,0.065,0.044,0.065,0.044c0.049,0.038,0.066,0.052,0.066,0.052c0.05,0.044,0.066,0.059,0.066,0.059
			c0.396,0.399,0.612,0.806,0.878,1.268c0.4,0.724,0.919,1.832,1.285,2.586c0.277,0.565,0.599,1.222,0.917,1.762
			c0.22,0.375,0.511,0.826,0.81,1.106c0.036,0.033,0.053,0.048,0.053,0.048c0.035,0.03,0.053,0.044,0.053,0.044
			c0.035,0.027,0.053,0.04,0.053,0.04c0.053,0.035,0.07,0.046,0.07,0.046c0.052,0.029,0.069,0.038,0.069,0.038
			c0.052,0.023,0.061,0.027,0.061,0.027c0.048,0.017,0.058,0.019,0.058,0.019c0.048,0.012,0.057,0.014,0.057,0.014
			c0.047,0.007,0.057,0.008,0.057,0.008c0.047,0.003,0.057,0.003,0.057,0.003c0.047-0.001,0.056-0.002,0.056-0.002
			c0.047-0.005,0.056-0.007,0.056-0.007c0.047-0.009,0.056-0.011,0.056-0.011c0.046-0.012,0.056-0.015,0.056-0.015
			c0.046-0.015,0.056-0.019,0.056-0.019c0.046-0.018,0.065-0.026,0.065-0.026c0.037-0.017,0.055-0.026,0.055-0.026
			c0.037-0.019,0.055-0.029,0.055-0.029c0.238-0.133,0.451-0.31,0.657-0.46c0.133-0.098,0.305-0.21,0.419-0.266
			c0.041-0.02,0.062-0.03,0.062-0.03c0.042-0.018,0.063-0.027,0.063-0.027c0.042-0.016,0.064-0.024,0.064-0.024
			c0.043-0.014,0.054-0.018,0.054-0.018c0.043-0.012,0.054-0.015,0.054-0.015c0.044-0.01,0.055-0.012,0.055-0.012
			c0.044-0.008,0.055-0.01,0.055-0.01c0.045-0.006,0.056-0.007,0.056-0.007c0.045-0.003,0.057-0.004,0.057-0.004
			c0.046,0,0.057,0,0.057,0c0.046,0.002,0.058,0.003,0.058,0.003c0.047,0.005,0.059,0.007,0.059,0.007
			c0.048,0.008,0.06,0.011,0.06,0.011c0.048,0.011,0.072,0.018,0.072,0.018c0.049,0.015,0.073,0.023,0.073,0.023
			c0.049,0.019,0.074,0.029,0.074,0.029c0.05,0.022,0.075,0.034,0.075,0.034c0.051,0.026,0.076,0.04,0.076,0.04
			c0.052,0.029,0.077,0.045,0.077,0.045c0.387,0.242,0.663,0.525,0.966,0.849c0.472,0.519,0.917,1.114,1.331,1.682
			c0.787,1.083,2.143,3.118,3.033,4.086c0.276,0.304,0.607,0.631,0.945,0.848c0.052,0.032,0.078,0.048,0.078,0.048
			c0.052,0.029,0.077,0.043,0.077,0.043c0.051,0.026,0.076,0.038,0.076,0.038c0.05,0.022,0.075,0.033,0.075,0.033
			c0.05,0.019,0.074,0.027,0.074,0.027c0.049,0.015,0.073,0.022,0.073,0.022c0.048,0.011,0.072,0.016,0.072,0.016
			c0.048,0.007,0.071,0.01,0.071,0.01c0.047,0.003,0.07,0.004,0.07,0.004c0.041,0,0.059-0.001,0.059-0.001
			c0.035-0.003,0.053-0.005,0.053-0.005c0.052-0.009,0.069-0.012,0.069-0.012c0.051-0.013,0.068-0.018,0.068-0.018
			c0.05-0.018,0.067-0.024,0.067-0.024c0.05-0.022,0.066-0.03,0.066-0.03c0.049-0.026,0.065-0.036,0.065-0.036
			c0.048-0.03,0.064-0.041,0.064-0.041c0.048-0.034,0.063-0.046,0.063-0.046c0.047-0.038,0.063-0.051,0.063-0.051
			c0.046-0.041,0.062-0.056,0.062-0.056c0.046-0.045,0.061-0.06,0.061-0.06c0.046-0.048,0.061-0.065,0.061-0.065
			c0.298-0.34,0.471-0.647,0.684-1.013c0.596-1.03,1.17-2.408,2.188-3.063c0.044-0.026,0.066-0.039,0.066-0.039
			c0.045-0.025,0.067-0.036,0.067-0.036c0.046-0.023,0.069-0.034,0.069-0.034c0.046-0.021,0.07-0.031,0.07-0.031
			c0.047-0.019,0.071-0.028,0.071-0.028c0.048-0.017,0.072-0.025,0.072-0.025c0.049-0.015,0.073-0.021,0.073-0.021
			c0.049-0.013,0.074-0.018,0.074-0.018c0.05-0.01,0.075-0.015,0.075-0.015c0.082-0.013,0.1-0.014,0.143-0.019
			c0.041-0.003,0.083-0.005,0.083-0.005c0.042-0.001,0.084-0.001,0.084-0.001c0.043,0.001,0.085,0.002,0.085,0.002
			c0.043,0.003,0.087,0.006,0.087,0.006c0.044,0.004,0.088,0.009,0.088,0.009c0.044,0.006,0.089,0.013,0.089,0.013
			c0.837,0.158,1.494,0.567,2.175,1.013c0.982,0.666,1.918,1.478,2.803,2.267c1.585,1.426,3.598,3.423,5.289,4.683
			c0.511,0.37,1.116,0.771,1.708,0.94c0.039,0.01,0.077,0.02,0.077,0.02c0.038,0.009,0.075,0.016,0.075,0.016
			c0.037,0.007,0.074,0.013,0.074,0.013c0.036,0.005,0.072,0.009,0.072,0.009c0.036,0.003,0.071,0.006,0.071,0.006
			c0.035,0.002,0.069,0.002,0.069,0.002c0.034,0,0.068-0.001,0.068-0.001c0.033-0.002,0.066-0.005,0.066-0.005
			c0.032-0.004,0.064-0.009,0.064-0.009c0.032-0.006,0.063-0.013,0.063-0.013c0.031-0.008,0.061-0.017,0.061-0.017
			c0.041-0.014,0.061-0.022,0.061-0.022c0.04-0.017,0.059-0.026,0.059-0.026c0.039-0.019,0.058-0.03,0.058-0.03
			c0.037-0.022,0.056-0.034,0.056-0.034c0.036-0.025,0.054-0.038,0.054-0.038c0.053-0.041,0.07-0.056,0.07-0.056
			c0.051-0.046,0.067-0.063,0.067-0.063c0.049-0.051,0.064-0.069,0.064-0.069c0.031-0.037,0.047-0.056,0.047-0.056
			c0.03-0.039,0.045-0.059,0.045-0.059c0.029-0.041,0.044-0.062,0.044-0.062c0.45-0.711,0.592-1.536,0.762-2.341
			c0.113-0.596,0.354-2.045,0.502-2.611c0.099-0.397,0.245-0.879,0.453-1.213c0.025-0.04,0.038-0.059,0.038-0.059
			c0.026-0.038,0.039-0.056,0.039-0.056c0.041-0.052,0.055-0.069,0.055-0.069c0.042-0.048,0.057-0.063,0.057-0.063
			c0.044-0.043,0.059-0.056,0.059-0.056c0.046-0.038,0.062-0.05,0.062-0.05c0.048-0.033,0.064-0.043,0.064-0.043
			c0.051-0.028,0.063-0.033,0.063-0.033c0.047-0.021,0.059-0.025,0.059-0.025c0.049-0.017,0.061-0.02,0.061-0.02
			c0.05-0.013,0.063-0.016,0.063-0.016c0.052-0.009,0.065-0.011,0.065-0.011c0.039-0.005,0.053-0.006,0.053-0.006
			c0.04-0.003,0.054-0.003,0.054-0.003c0.041-0.001,0.055-0.001,0.055-0.001c0.042,0.001,0.055,0.002,0.055,0.002
			c0.042,0.003,0.056,0.004,0.056,0.004c0.79,0.096,1.479,0.603,2.224,0.826c0.052,0.014,0.078,0.021,0.078,0.021
			c0.051,0.012,0.076,0.017,0.076,0.017c0.049,0.009,0.061,0.011,0.061,0.011c0.048,0.006,0.059,0.007,0.059,0.007
			c0.046,0.003,0.057,0.004,0.057,0.004c0.044,0,0.055,0,0.055,0c0.043-0.003,0.053-0.004,0.053-0.004
			c0.051-0.008,0.061-0.01,0.061-0.01c0.048-0.013,0.058-0.017,0.058-0.017c0.045-0.019,0.054-0.023,0.054-0.023
			c0.051-0.03,0.059-0.036,0.059-0.036c0.051-0.044,0.062-0.056,0.062-0.056c0.043-0.051,0.053-0.065,0.053-0.065
			c0.029-0.045,0.038-0.061,0.038-0.061c0.026-0.051,0.034-0.068,0.034-0.068c0.016-0.037,0.023-0.056,0.023-0.056
			c0.014-0.04,0.021-0.06,0.021-0.06c0.013-0.042,0.019-0.064,0.019-0.064c0.012-0.045,0.017-0.068,0.017-0.068
			c0.071-0.317,0.078-0.579,0.085-0.892c0.009-1.043-0.184-2.759-0.242-3.811c-0.04-0.939-0.109-1.991,0.19-2.89
			c0.02-0.052,0.03-0.078,0.03-0.078c0.021-0.05,0.032-0.075,0.032-0.075c0.023-0.048,0.034-0.071,0.034-0.071
			c0.024-0.045,0.037-0.067,0.037-0.067c0.026-0.043,0.039-0.064,0.039-0.064c0.027-0.04,0.042-0.06,0.042-0.06
			c0.029-0.038,0.044-0.056,0.044-0.056c0.047-0.052,0.063-0.068,0.063-0.068c0.041-0.039,0.054-0.05,0.054-0.05
			c0.053-0.042,0.066-0.051,0.066-0.051c0.042-0.028,0.056-0.037,0.056-0.037c0.043-0.025,0.058-0.033,0.058-0.033
			c0.045-0.022,0.06-0.029,0.06-0.029c0.047-0.02,0.062-0.026,0.062-0.026c0.048-0.017,0.065-0.022,0.065-0.022
			c0.05-0.015,0.067-0.019,0.067-0.019c0.051-0.012,0.069-0.016,0.069-0.016c0.553-0.098,1.037,0.02,1.557,0.13
			c0.598,0.136,1.402,0.387,2.007,0.396c0.052,0,0.069-0.001,0.069-0.001c0.05-0.002,0.067-0.003,0.067-0.003
			c0.049-0.004,0.065-0.006,0.065-0.006c0.047-0.006,0.063-0.008,0.063-0.008c0.046-0.008,0.06-0.011,0.06-0.011
			c0.044-0.01,0.058-0.014,0.058-0.014c0.042-0.013,0.056-0.017,0.056-0.017c0.04-0.015,0.053-0.021,0.053-0.021
			c0.051-0.024,0.063-0.03,0.063-0.03c0.048-0.028,0.059-0.036,0.059-0.036c0.044-0.033,0.055-0.041,0.055-0.041
			c0.049-0.046,0.061-0.059,0.061-0.059c0.035-0.042,0.046-0.056,0.046-0.056c0.032-0.046,0.042-0.062,0.042-0.062
			c0.029-0.051,0.037-0.068,0.037-0.068c0.017-0.036,0.025-0.055,0.025-0.055c0.016-0.038,0.023-0.058,0.023-0.058
			c0.014-0.04,0.021-0.061,0.021-0.061c0.013-0.042,0.019-0.064,0.019-0.064c0.011-0.044,0.016-0.067,0.016-0.067
			c0.085-0.407,0.069-0.755,0.048-1.156c-0.043-0.735-0.293-2.242-0.396-2.99c-0.108-0.904-0.257-1.909-0.022-2.799
			c0.015-0.05,0.023-0.075,0.023-0.075c0.017-0.048,0.026-0.072,0.026-0.072c0.018-0.047,0.028-0.069,0.028-0.069
			c0.02-0.045,0.03-0.067,0.03-0.067c0.022-0.043,0.033-0.064,0.033-0.064c0.023-0.041,0.035-0.061,0.035-0.061
			c0.025-0.039,0.038-0.058,0.038-0.058c0.036-0.048,0.048-0.064,0.048-0.064c0.038-0.045,0.052-0.06,0.052-0.06
			c0.041-0.042,0.055-0.056,0.055-0.056c0.043-0.039,0.058-0.052,0.058-0.052c0.046-0.036,0.062-0.048,0.062-0.048
			c0.048-0.034,0.065-0.045,0.065-0.045c0.051-0.031,0.068-0.041,0.068-0.041c0.035-0.019,0.053-0.029,0.053-0.029
			c0.036-0.018,0.055-0.027,0.055-0.027c0.037-0.017,0.056-0.025,0.056-0.025c0.674-0.259,1.331-0.2,2.016-0.17
			c1.063,0.05,2.389,0.294,3.386-0.12c0.039-0.018,0.059-0.028,0.059-0.028c0.038-0.019,0.057-0.029,0.057-0.029
			c0.052-0.029,0.078-0.044,0.078-0.044c0.05-0.032,0.075-0.048,0.075-0.048c0.048-0.034,0.072-0.052,0.072-0.052
			c0.046-0.037,0.069-0.055,0.069-0.055c0.044-0.039,0.066-0.059,0.066-0.059c0.042-0.041,0.063-0.063,0.063-0.063
			c0.04-0.044,0.06-0.066,0.06-0.066c0.039-0.046,0.057-0.069,0.057-0.069c0.037-0.048,0.055-0.073,0.055-0.073
			c0.035-0.05,0.052-0.076,0.052-0.076c0.323-0.514,0.428-1.05,0.496-1.625c0.074-0.708,0.045-1.435-0.015-2.144
			c-0.277-3.093-1.725-8.772-2.352-11.87c-2.137-10.669-4.099-22.935-5.618-33.716"/>
	</g>
	<g id="POLYLINE_339_">
		
			<path fill="none" stroke="#FB8604" stroke-width="2.75" stroke-linecap="round" stroke-linejoin="round" stroke-miterlimit="10" d="
			M281.413,456.181c5.714,3.205,11.783,6.437,17.849,8.883c5.206,2.119,10.681,3.799,16.205,4.849
			c7.885,1.496,16.125,1.813,24.139,1.878c7.242,0.052,28.204-0.483,35.325-0.279c6.971,0.126,15.062,0.583,22.032,1.095"/>
	</g>
	<g id="POLYLINE_338_">
		
			<path fill="none" stroke="#FB8604" stroke-width="2.75" stroke-linecap="round" stroke-linejoin="round" stroke-miterlimit="10" d="
			M434.726,476.084c8.478,0.574,17.463,0.354,25.131-3.72c10.858-5.731,19.414-19.305,25.34-29.802
			c1.804-3.241,5.816-11.041,7.814-13.961c1.28-1.92,2.765-3.73,4.435-5.323c2.564-2.463,6.524-5.334,9.363-7.549
			c3.437-2.669,6.877-5.56,9.877-8.714c4.379-4.536,7.903-9.857,10.851-15.412c4.591-8.711,8.099-18.087,10.511-27.63
			c1.001-4.094,1.849-8.342,2.097-12.555c0.154-2.596,0.042-5.258-0.302-7.835"/>
	</g>
	<g id="POLYLINE_337_">
		
			<path fill="none" stroke="#FB8604" stroke-width="2.75" stroke-linecap="round" stroke-linejoin="round" stroke-miterlimit="10" d="
			M464.38,233.43c-1.694-2.069-3.473-4.231-4.868-6.507c-1.306-2.102-2.361-4.395-3.171-6.733c-1.028-2.971-1.757-6.119-2.299-9.215
			c-0.669-3.919-1.056-7.973-1.042-11.95c0.016-2.697,0.212-5.432,0.752-8.077c0.487-2.409,1.33-4.774,2.686-6.836
			c0.467-0.713,0.993-1.401,1.588-2.011c0.432-0.439,0.957-0.904,1.497-1.146c0.053-0.022,0.07-0.029,0.07-0.029
			c0.051-0.019,0.068-0.025,0.068-0.025c0.049-0.016,0.065-0.02,0.065-0.02c0.048-0.013,0.063-0.016,0.063-0.016
			c0.046-0.009,0.061-0.012,0.061-0.012c0.044-0.006,0.058-0.008,0.058-0.008c0.042-0.003,0.056-0.003,0.056-0.003
			c0.04,0,0.053,0.001,0.053,0.001c0.05,0.005,0.062,0.007,0.062,0.007c0.047,0.011,0.058,0.014,0.058,0.014
			c0.052,0.021,0.06,0.025,0.06,0.025c0.048,0.029,0.056,0.035,0.056,0.035c0.05,0.044,0.056,0.051,0.056,0.051
			c0.037,0.046,0.043,0.055,0.043,0.055c0.027,0.045,0.032,0.054,0.032,0.054c0.024,0.05,0.028,0.061,0.028,0.061
			c0.017,0.044,0.02,0.056,0.02,0.056c0.014,0.048,0.018,0.06,0.018,0.06c0.012,0.051,0.015,0.064,0.015,0.064
			c0.008,0.041,0.01,0.054,0.01,0.054c0.065,0.433,0.015,0.817-0.028,1.238c-0.306,2.154-0.828,4.513-1.051,6.674
			c-0.759,6.8-0.664,13.798,0.95,20.472c1.654,6.708,5.112,12.886,9.475,18.205c4.017,4.973,9.73,9.886,14.199,14.458
			c4.657,4.742,8.826,10.331,12.704,15.729"/>
	</g>
	<g id="POLYLINE_336_">
		
			<path fill="none" stroke="#FB8604" stroke-width="2.75" stroke-linecap="round" stroke-linejoin="round" stroke-miterlimit="10" d="
			M486.636,265.185c-1.807-3.06-3.736-6.208-5.893-9.031c-2.063-2.73-4.497-5.305-6.932-7.706
			c-5.602-5.411-13.403-12.558-18.238-18.512c-6.237-7.456-11.419-15.919-14.37-25.219c-2.598-8.05-3.788-16.546-4.396-24.963
			c-0.621-9.585-0.514-19.359,1.025-28.853c1.211-7.41,3.411-14.72,6.887-21.392c2.079-3.986,4.62-7.788,7.772-11.008
			c1.607-1.626,3.375-3.141,5.325-4.342c0.458-0.273,0.944-0.548,1.437-0.755c0.414-0.176,0.88-0.334,1.299-0.347
			c0.052-0.001,0.069,0,0.069,0c0.05,0.002,0.067,0.003,0.067,0.003c0.048,0.004,0.064,0.006,0.064,0.006
			c0.047,0.006,0.062,0.009,0.062,0.009c0.045,0.009,0.059,0.012,0.059,0.012c0.043,0.011,0.056,0.015,0.056,0.015
			c0.046,0.016,0.057,0.02,0.057,0.02c0.044,0.019,0.054,0.024,0.054,0.024c0.051,0.027,0.061,0.033,0.061,0.033
			c0.048,0.031,0.057,0.038,0.057,0.038c0.053,0.042,0.061,0.05,0.061,0.05c0.048,0.047,0.055,0.056,0.055,0.056
			c0.043,0.052,0.05,0.061,0.05,0.061c0.032,0.047,0.038,0.057,0.038,0.057c0.029,0.05,0.034,0.06,0.034,0.06
			c0.02,0.042,0.025,0.053,0.025,0.053c0.018,0.044,0.022,0.055,0.022,0.055c0.016,0.046,0.02,0.057,0.02,0.057
			c0.014,0.047,0.017,0.059,0.017,0.059c0.012,0.049,0.014,0.061,0.014,0.061c0.009,0.05,0.012,0.063,0.012,0.063
			c0.07,0.461-0.057,0.927-0.217,1.323c-0.207,0.504-0.501,0.986-0.8,1.442c-1.145,1.688-2.873,3.907-3.996,5.598
			c-1.932,2.844-3.807,5.908-5.408,8.947c-1.981,3.765-3.713,7.736-4.905,11.825c-1.223,4.256-1.897,8.722-1.839,13.155
			c0.046,2.092,0.232,4.221,0.866,6.225c0.268,0.82,0.628,1.645,1.186,2.308c0.604,0.739,1.486,1.185,2.406,1.207
			c1.136,0.036,2.192-0.423,3.179-0.933c1.249-0.649,3.432-2.115,4.649-2.884c1.415-0.894,2.974-1.736,4.473-2.485
			c4.038-2.007,8.589-3.979,12.413-6.363c3.497-2.164,6.817-4.676,9.756-7.557c1.464-1.402,2.921-3.209,4.189-4.796
			c0.316-0.378,0.655-0.785,1.021-1.115c0.078-0.069,0.128-0.109,0.155-0.131c0.05-0.038,0.075-0.057,0.075-0.057
			c0.049-0.034,0.073-0.051,0.073-0.051c0.048-0.03,0.059-0.038,0.059-0.038c0.046-0.027,0.058-0.033,0.058-0.033
			c0.045-0.023,0.057-0.029,0.057-0.029c0.044-0.02,0.055-0.024,0.055-0.024c0.043-0.016,0.054-0.019,0.054-0.019
			c0.053-0.014,0.063-0.017,0.063-0.017c0.051-0.008,0.061-0.009,0.061-0.009c0.049-0.002,0.059-0.002,0.059-0.002
			c0.048,0.004,0.057,0.005,0.057,0.005c0.049,0.011,0.056,0.013,0.056,0.013c0.048,0.018,0.055,0.021,0.055,0.021
			c0.046,0.025,0.053,0.029,0.053,0.029c0.051,0.037,0.057,0.042,0.057,0.042c0.048,0.045,0.054,0.051,0.054,0.051
			c0.04,0.046,0.046,0.053,0.046,0.053c0.039,0.052,0.044,0.06,0.044,0.06c0.032,0.049,0.042,0.067,0.042,0.067
			c0.02,0.036,0.03,0.054,0.03,0.054c0.019,0.038,0.029,0.058,0.029,0.058c0.018,0.04,0.027,0.061,0.027,0.061
			c0.265,0.679,0.287,1.382,0.279,2.096c-0.045,1.652-0.5,3.276-1.166,4.781c-0.866,1.947-2.099,3.725-3.55,5.282
			c-1.755,1.877-3.848,3.443-5.996,4.841c-4.283,2.789-10.218,5.591-14.819,7.913c-2.725,1.404-5.479,2.929-7.911,4.802
			c-2.377,1.824-4.501,4.062-5.872,6.747c-1.792,3.528-2.326,7.56-2.392,11.476c-0.037,2.931,0.228,5.916,0.696,8.809
			c0.379,2.273,0.885,4.593,1.6,6.785c0.32,0.972,0.701,1.953,1.136,2.88c0.551,1.232,1.449,2.718,2.104,3.895"/>
	</g>
	<g id="POLYLINE_335_">
		
			<path fill="none" stroke="#FB8604" stroke-width="2.75" stroke-linecap="round" stroke-linejoin="round" stroke-miterlimit="10" d="
			M384.292,627.118c3.845,0,7.71-0.669,11.305-2.041c2.485-0.951,4.832-2.281,6.983-3.843"/>
	</g>
	<g id="POLYLINE_334_">
		
			<path fill="none" stroke="#FB8604" stroke-width="2.75" stroke-linecap="round" stroke-linejoin="round" stroke-miterlimit="10" d="
			M417.368,522.839c2.684,19.004,5.551,39.433,6.64,58.569c0.156,3.49,0.264,7.127,0.029,10.611
			c-0.327,4.514-0.979,9.075-2.19,13.442c-0.677,2.236-1.232,4.584-0.997,6.934c0.097,0.99,0.344,1.977,0.777,2.875
			c0.158,0.338,0.36,0.66,0.555,0.977c0.224,0.378,0.426,0.784,0.593,1.19c0.509,1.237,0.747,2.577,0.794,3.911
			c0.036,0.985-0.032,1.987-0.164,2.964c-0.15,1.044-0.379,2.113-0.494,3.162c-0.205,1.739-0.265,3.523-0.014,5.26
			c0.132,0.863,0.322,1.732,0.66,2.54c0.37,0.865,1.01,1.584,1.754,2.061c0.63,0.409,1.283,0.652,1.999,0.836
			c0.744,0.185,1.52,0.276,2.285,0.309c1.04,0.013,11.844,0.055,12.815-0.025c0.876-0.074,1.874-0.288,2.532-0.878
			c0.051-0.048,0.068-0.064,0.068-0.064c0.049-0.05,0.065-0.067,0.065-0.067c0.845-0.928,0.589-2.222,0.217-3.282
			c-0.52-1.507-3.59-9.406-3.897-10.763c-0.451-1.688-0.723-3.442-0.888-5.18c-0.139-1.465-0.202-3.064-0.212-4.538
			c-0.112-10.524-1.289-23.543-2.109-34.115c-0.638-8.049-2.109-19.538-1.711-27.534c0.094-2.268,0.298-4.591,0.672-6.831
			c0.18-1.09,0.451-2.259,0.634-3.349c0.254-1.492,0.479-3.217,0.642-4.722c0.913-8.664,0.935-17.906,1.058-26.618
			c0.226-11.201,0.972-23.057,2.151-34.199"/>
	</g>
	<g id="POLYLINE_333_">
		
			<path fill="none" stroke="#FB8604" stroke-width="2.75" stroke-linecap="round" stroke-linejoin="round" stroke-miterlimit="10" d="
			M395.293,412.463c-1.821,11.9-3.414,24.135-2.726,36.186c0.142,2.15,0.379,4.309,0.768,6.421c0.235,1.373,0.702,3.075,1.058,4.441
			c0.973,3.836,1.866,7.846,2.403,11.765c0.336,2.519,0.56,5.093,0.425,7.633c-0.254,4.396-0.979,8.928-1.797,13.259
			c-0.562,2.985-1.379,6.319-1.855,9.297c-0.669,4.134-1.086,8.592-1.376,12.774c-0.68,9.593-0.567,20.07-0.9,29.692
			c-0.372,10.339-1.191,21.493-2.487,31.755c-0.684,5.285-1.527,11.297-2.542,16.509c-0.563,2.831-1.204,5.811-2.109,8.551
			c-0.233,0.715-0.543,1.469-0.804,2.174c-0.277,0.768-0.54,1.605-0.736,2.398c-0.308,1.237-0.51,2.512-0.56,3.786
			c-0.056,1.407,0.076,2.832,0.427,4.197c0.141,0.555,0.342,1.132,0.48,1.687c0.227,0.869,0.42,1.804,0.57,2.69
			c0.693,4.054,0.756,8.244,0.793,12.347c0.065,1.647,0.237,3.321,0.765,4.89c0.339,1.004,0.878,2.006,1.702,2.683
			c0.578,0.481,1.249,0.744,1.959,0.847c0.202,0.027,0.414,0.045,0.618,0.047c0.064,0.003,12.63-0.001,12.703,0.001
			c1.536-0.008,3.11-0.064,4.623-0.354c0.901-0.171,1.9-0.463,2.613-1.033c0.052-0.044,0.069-0.059,0.069-0.059
			c0.05-0.045,0.066-0.06,0.066-0.06c0.047-0.046,0.062-0.061,0.062-0.061c0.044-0.047,0.059-0.063,0.059-0.063
			c0.042-0.048,0.055-0.064,0.055-0.064c0.039-0.049,0.052-0.065,0.052-0.065c0.037-0.05,0.049-0.066,0.049-0.066
			c0.034-0.051,0.045-0.068,0.045-0.068c0.032-0.052,0.042-0.069,0.042-0.069c0.185-0.321,0.218-0.613,0.266-0.947
			c0.045-0.328,0.071-0.663,0.075-0.995c0.01-0.734-0.09-1.471-0.307-2.173c-0.174-0.578-0.441-1.132-0.74-1.656
			c-1.354-2.361-3.169-4.531-4.796-6.705c-0.857-1.203-1.603-2.516-2.237-3.85c-0.776-1.637-1.417-3.369-1.942-5.102
			c-0.404-1.336-0.769-2.736-1.004-4.112c-0.492-2.841-0.601-5.768-0.49-8.646c0.122-4.532,1.717-14.036,2.299-18.651
			c1.003-7.284,2.146-18.562,3.834-25.619c0.615-2.658,1.357-5.4,2.241-7.979c0.504-1.473,1.092-3.02,1.711-4.449
			c6.446-15.183,11.682-32.258,17.427-47.734c1.971-5.252,5.413-14.531,7.585-19.716c0.874-1.971,1.907-3.939,2.998-5.798
			c3.066-5.214,6.83-10.106,10.762-14.693c6.205-7.218,13.305-14.069,20.375-20.441"/>
	</g>
	<g id="POLYLINE_332_">
		
			<path fill="none" stroke="#FB8604" stroke-width="2.75" stroke-linecap="round" stroke-linejoin="round" stroke-miterlimit="10" d="
			M423.575,622.118c5.37-1.656,11.521-3.754,16.799-5.682"/>
	</g>
</g>
<g id="AG-OUTLINE">
	<g id="POLYLINE_18_">
		
			<path fill="none" stroke="#FB8604" stroke-width="3.5" stroke-linecap="round" stroke-linejoin="round" stroke-miterlimit="10" d="
			M573.079,215.562c2.272-4.657,4.873-9.576,6.504-14.486c1.135-3.361,1.872-6.882,2.256-10.407
			c0.714-6.789,0.448-13.73-0.126-20.521c-0.701-7.798-1.929-15.655-3.792-23.262c-2.83-11.514-7.584-23.062-16.273-31.401
			c-1.298-1.228-2.679-2.421-4.221-3.334c-0.787-0.446-1.759-0.941-2.664-0.835c-0.052,0.008-0.069,0.011-0.069,0.011
			c-0.051,0.01-0.067,0.014-0.067,0.014c-0.049,0.012-0.066,0.017-0.066,0.017c-0.048,0.015-0.064,0.02-0.064,0.02
			c-0.046,0.017-0.062,0.022-0.062,0.022c-0.045,0.018-0.06,0.025-0.06,0.025c-0.043,0.02-0.058,0.028-0.058,0.028
			c-0.042,0.022-0.055,0.03-0.055,0.03c-0.04,0.024-0.053,0.033-0.053,0.033c-0.051,0.035-0.063,0.044-0.063,0.044
			c-0.048,0.038-0.06,0.048-0.06,0.048c-0.045,0.041-0.056,0.052-0.056,0.052c-0.042,0.044-0.052,0.055-0.052,0.055
			c-0.039,0.047-0.048,0.059-0.048,0.059c-0.036,0.049-0.044,0.062-0.044,0.062c-0.032,0.052-0.04,0.066-0.04,0.066
			c-0.022,0.041-0.029,0.055-0.029,0.055c-0.02,0.042-0.026,0.057-0.026,0.057c-0.018,0.044-0.023,0.059-0.023,0.059
			c-0.016,0.045-0.02,0.061-0.02,0.061c-0.013,0.047-0.018,0.063-0.018,0.063c-0.011,0.048-0.015,0.065-0.015,0.065
			c-0.009,0.05-0.012,0.067-0.012,0.067c-0.007,0.051-0.008,0.068-0.008,0.068c-0.032,0.364,0.056,0.678,0.17,0.987
			c0.129,0.338,0.305,0.664,0.49,0.974c0.975,1.631,3.565,4.574,4.768,6.094c1.364,1.702,2.678,3.506,3.726,5.421
			c1.517,2.73,2.639,5.719,3.591,8.689c0.662,2.218,3.604,11.613,4.113,13.66c0.258,1.02,0.498,2.09,0.64,3.132
			c0.153,1.145,0.22,2.325,0.004,3.465c-0.431,2.4-2.377,4.07-4.725,4.31c-1.057,0.114-2.115-0.071-3.122-0.389
			c-1.272-0.405-2.484-1.022-3.638-1.687c-2.354-1.367-4.832-3.193-7.055-4.78c-3.185-2.3-7.811-5.825-10.923-8.244
			c-0.744-0.582-7.622-6.087-8.276-6.517c-0.623-0.438-1.297-0.929-2.005-1.198c-0.052-0.018-0.069-0.023-0.069-0.023
			c-0.05-0.015-0.067-0.02-0.067-0.02c-0.048-0.012-0.064-0.016-0.064-0.016c-0.046-0.01-0.061-0.012-0.061-0.012
			c-0.044-0.007-0.058-0.009-0.058-0.009c-0.042-0.004-0.055-0.005-0.055-0.005c-0.053-0.001-0.065-0.001-0.065-0.001
			c-0.049,0.004-0.061,0.006-0.061,0.006c-0.045,0.009-0.056,0.012-0.056,0.012c-0.051,0.018-0.061,0.023-0.061,0.023
			c-0.045,0.026-0.054,0.032-0.054,0.032c-0.046,0.041-0.053,0.048-0.053,0.048c-0.038,0.051-0.043,0.06-0.043,0.06
			c-0.026,0.05-0.03,0.061-0.03,0.061c-0.016,0.046-0.02,0.057-0.02,0.057c-0.013,0.05-0.016,0.063-0.016,0.063
			c-0.007,0.041-0.009,0.055-0.009,0.055c-0.005,0.043-0.007,0.058-0.007,0.058c-0.003,0.046-0.004,0.062-0.004,0.062
			c-0.001,0.048-0.001,0.065-0.001,0.065c0.012,0.482,0.147,0.883,0.288,1.315c0.201,0.585,0.471,1.179,0.744,1.734
			c1.313,2.628,3.094,5.022,5.046,7.208c3.677,4.09,7.999,7.65,12.441,10.879c3.767,2.752,8.309,5.431,11.804,8.528
			c1.391,1.235,2.691,2.604,3.808,4.092c1.849,2.46,3.302,5.23,4.43,8.089c1.61,4.161,2.646,8.643,2.399,13.124
			c-0.159,3.08-0.952,6.11-1.966,9.011c-0.811-1.913-1.744-3.813-2.951-5.509c-0.578-0.782-1.236-1.62-2.062-2.142
			c-0.048-0.028-0.071-0.041-0.071-0.041c-0.047-0.025-0.07-0.036-0.07-0.036c-0.045-0.021-0.068-0.031-0.068-0.031
			c-0.044-0.018-0.055-0.023-0.055-0.023c-0.043-0.016-0.054-0.019-0.054-0.019c-0.052-0.016-0.062-0.019-0.062-0.019
			c-0.05-0.012-0.06-0.014-0.06-0.014c-0.049-0.008-0.058-0.009-0.058-0.009c-0.047-0.004-0.056-0.004-0.056-0.004
			c-0.045,0.001-0.053,0.001-0.053,0.001c-0.051,0.006-0.059,0.008-0.059,0.008c-0.048,0.013-0.056,0.015-0.056,0.015
			c-0.052,0.023-0.059,0.026-0.059,0.026c-0.048,0.031-0.054,0.036-0.054,0.036c-0.049,0.046-0.055,0.052-0.055,0.052
			c-0.038,0.05-0.044,0.057-0.044,0.057c-0.029,0.05-0.034,0.059-0.034,0.059c-0.021,0.046-0.028,0.062-0.028,0.062
			c-0.018,0.051-0.024,0.069-0.024,0.069c-0.011,0.037-0.016,0.056-0.016,0.056c-0.009,0.039-0.014,0.06-0.014,0.06
			c-0.008,0.042-0.012,0.063-0.012,0.063c-0.059,0.406-0.028,0.747,0.007,1.142c0.084,0.819,0.269,1.733,0.434,2.542
			c0.39,1.776,1.822,8.005,2.111,9.682c-5.347,7.748-11.175,15.39-18.102,21.796c-3.788,3.588-10.4,8.389-14.602,11.608
			c-1.711,1.334-3.553,2.82-5.13,4.306c-1.763,1.646-3.363,3.509-4.7,5.517c-1.72,2.552-3.1,5.466-4.414,8.247
			c-3.321,0.026-6.751,1.235-10.068,1.299c-2.21,0.073-4.555-0.659-6.687-1.187c-1.833-0.45-3.775-0.768-5.641-0.324
			c-3.885-5.409-8.043-10.982-12.704-15.729c-4.474-4.579-10.178-9.483-14.199-14.458c-4.363-5.319-7.82-11.497-9.475-18.205
			c-1.614-6.674-1.709-13.672-0.95-20.472c0.223-2.161,0.745-4.523,1.051-6.674c0.044-0.393,0.089-0.843,0.03-1.224
			c-0.007-0.042-0.01-0.055-0.01-0.055c-0.012-0.052-0.015-0.065-0.015-0.065c-0.014-0.049-0.017-0.061-0.017-0.061
			c-0.016-0.045-0.02-0.056-0.02-0.056c-0.023-0.052-0.028-0.062-0.028-0.062c-0.026-0.047-0.032-0.055-0.032-0.055
			c-0.036-0.049-0.042-0.056-0.042-0.056c-0.048-0.047-0.055-0.053-0.055-0.053c-0.047-0.032-0.055-0.036-0.055-0.036
			c-0.047-0.021-0.058-0.025-0.058-0.025c-0.045-0.013-0.057-0.016-0.057-0.016c-0.049-0.008-0.062-0.009-0.062-0.009
			c-0.052-0.002-0.066-0.002-0.066-0.002c-0.041,0.002-0.056,0.003-0.056,0.003c-0.043,0.005-0.058,0.008-0.058,0.008
			c-0.045,0.009-0.061,0.012-0.061,0.012c-0.047,0.012-0.063,0.016-0.063,0.016c-0.049,0.015-0.065,0.02-0.065,0.02
			c-0.051,0.018-0.068,0.025-0.068,0.025c-0.6,0.255-1.029,0.654-1.471,1.078c-0.593,0.592-1.118,1.263-1.585,1.958
			c-2.026,2.997-2.891,6.604-3.274,10.159c-0.553,5.33-0.187,10.755,0.644,16.038c-0.681-1.171-1.54-2.693-2.104-3.895
			c-0.435-0.928-0.816-1.906-1.136-2.88c-0.796-2.446-1.336-5.029-1.723-7.571c-0.388-2.637-0.608-5.358-0.573-8.023
			c0.066-3.916,0.6-7.948,2.392-11.476c1.426-2.793,3.665-5.098,6.159-6.965c2.355-1.77,5.007-3.236,7.624-4.583
			c4.821-2.434,10.858-5.265,15.321-8.243c2.02-1.349,3.983-2.862,5.628-4.657c1.392-1.521,2.578-3.25,3.417-5.137
			c0.624-1.412,1.063-2.927,1.153-4.474c0.037-0.795,0.025-1.663-0.266-2.404c-0.018-0.041-0.027-0.061-0.027-0.061
			c-0.019-0.039-0.029-0.058-0.029-0.058c-0.02-0.037-0.03-0.054-0.03-0.054c-0.031-0.051-0.036-0.059-0.036-0.059
			c-0.033-0.046-0.038-0.054-0.038-0.054c-0.04-0.048-0.045-0.055-0.045-0.055c-0.048-0.048-0.054-0.053-0.054-0.053
			c-0.05-0.04-0.056-0.044-0.056-0.044c-0.052-0.031-0.059-0.035-0.059-0.035c-0.048-0.02-0.055-0.022-0.055-0.022
			c-0.044-0.012-0.054-0.014-0.054-0.014c-0.047-0.006-0.057-0.007-0.057-0.007c-0.049,0-0.059,0.001-0.059,0.001
			c-0.051,0.006-0.061,0.008-0.061,0.008c-0.052,0.012-0.063,0.015-0.063,0.015c-0.043,0.014-0.054,0.018-0.054,0.018
			c-0.044,0.018-0.055,0.023-0.055,0.023c-0.045,0.022-0.056,0.028-0.056,0.028c-0.046,0.025-0.058,0.032-0.058,0.032
			c-0.047,0.029-0.071,0.044-0.071,0.044c-0.048,0.033-0.073,0.051-0.073,0.051c-0.05,0.037-0.075,0.057-0.075,0.057
			c-0.452,0.369-0.804,0.806-1.176,1.246c-1.272,1.599-2.729,3.391-4.189,4.796c-2.939,2.882-6.258,5.394-9.756,7.557
			c-3.821,2.383-8.377,4.359-12.413,6.363c-1.499,0.747-3.057,1.591-4.473,2.485c-1.393,0.844-3.541,2.371-4.997,3.061
			c-0.856,0.419-1.803,0.775-2.764,0.758c-0.498-0.004-0.973-0.127-1.389-0.334c-0.456-0.223-0.839-0.575-1.133-0.934
			c-0.534-0.66-0.874-1.449-1.137-2.249c-0.602-1.898-0.797-3.911-0.859-5.893c-0.102-4.543,0.579-9.124,1.831-13.487
			c1.191-4.088,2.924-8.06,4.905-11.825c1.601-3.039,3.477-6.105,5.408-8.947c1.122-1.694,2.853-3.914,3.996-5.598
			c0.504-0.792,1.102-1.716,1.029-2.674c-0.006-0.052-0.01-0.078-0.01-0.078c-0.009-0.051-0.011-0.063-0.011-0.063
			c-0.011-0.049-0.014-0.062-0.014-0.062c-0.013-0.048-0.016-0.06-0.016-0.06c-0.015-0.046-0.019-0.058-0.019-0.058
			c-0.017-0.045-0.022-0.056-0.022-0.056c-0.019-0.043-0.025-0.053-0.025-0.053c-0.027-0.051-0.033-0.061-0.033-0.061
			c-0.031-0.048-0.037-0.057-0.037-0.057c-0.034-0.045-0.041-0.053-0.041-0.053c-0.046-0.049-0.054-0.057-0.054-0.057
			c-0.051-0.044-0.059-0.051-0.059-0.051c-0.046-0.033-0.055-0.039-0.055-0.039c-0.049-0.029-0.06-0.034-0.06-0.034
			c-0.042-0.02-0.053-0.025-0.053-0.025c-0.045-0.017-0.056-0.021-0.056-0.021c-0.051-0.016-0.065-0.019-0.065-0.019
			c-0.044-0.01-0.058-0.013-0.058-0.013c-0.046-0.008-0.061-0.01-0.061-0.01c-0.047-0.005-0.064-0.007-0.064-0.007
			c-0.049-0.003-0.066-0.003-0.066-0.003c-0.384-0.003-0.772,0.111-1.09,0.229c-0.355,0.132-0.707,0.3-1.04,0.478
			c-1.039,0.558-2.023,1.255-2.951,1.98c-5.261,4.165-9.056,9.914-11.907,15.926c-5.573,11.77-7.208,24.987-7.197,37.894
			c0.022,7.059,0.504,14.321,1.568,21.298c1.02,6.713,2.67,13.402,5.352,19.654c3.002,7.053,7.308,13.541,12.201,19.42
			c4.831,5.952,12.69,13.153,18.238,18.512c2.435,2.402,4.869,4.976,6.932,7.706c2.157,2.822,4.087,5.972,5.893,9.031
			c-0.123,0.114-0.313,0.279-0.408,0.35c-0.07,0.053-0.115,0.084-0.139,0.1c-0.045,0.029-0.067,0.043-0.067,0.043
			c-0.044,0.026-0.066,0.039-0.066,0.039c-0.044,0.023-0.054,0.029-0.054,0.029c-0.043,0.021-0.054,0.025-0.054,0.025
			c-0.043,0.018-0.054,0.022-0.054,0.022c-0.043,0.015-0.053,0.019-0.053,0.019c-0.043,0.012-0.053,0.015-0.053,0.015
			c-0.043,0.01-0.053,0.012-0.053,0.012c-0.043,0.007-0.053,0.008-0.053,0.008c-0.043,0.004-0.053,0.005-0.053,0.005
			c-0.043,0.001-0.054,0.001-0.054,0.001c-0.043-0.002-0.054-0.002-0.054-0.002c-0.044-0.005-0.055-0.006-0.055-0.006
			c-0.044-0.008-0.056-0.01-0.056-0.01c-0.045-0.011-0.057-0.014-0.057-0.014c-0.046-0.014-0.057-0.017-0.057-0.017
			c-0.046-0.017-0.058-0.021-0.058-0.021c-0.047-0.019-0.059-0.025-0.059-0.025c-0.048-0.022-0.072-0.034-0.072-0.034
			c-0.049-0.026-0.073-0.039-0.073-0.039c-0.05-0.029-0.075-0.044-0.075-0.044c-0.53-0.345-0.912-0.78-1.317-1.248
			c-0.669-0.799-1.285-1.695-1.855-2.567l-1.891-3.021c-1.131-1.775-2.479-3.434-4.086-4.8c-1.324-1.139-2.805-2.109-4.323-2.968
			c-1.73-0.974-3.552-1.824-5.412-2.519c-2.291-0.836-4.696-1.526-7.15-1.571c-1.409-0.019-2.996,0.258-4.006,1.292
			c-0.759,0.753-1.169,1.728-1.439,2.74c-0.41,1.596-0.474,3.276-0.49,4.917c-0.013,1.489,0.082,4.606,0.121,6.103
			c0.085,2.197,0.257,4.44,0.805,6.575c0.413,1.63,1.057,3.213,1.933,4.65c1.083,1.776,2.497,3.346,4.027,4.747
			c1.859,1.688,3.93,3.164,6.147,4.344c1.577,0.826,3.252,1.538,5.01,1.86c0.801,0.145,1.626,0.176,2.437,0.116
			c0.898-0.054,2.026-0.279,2.924-0.333c0.656-0.044,1.382,0.023,1.962,0.263c1.003,0.417,1.731,1.084,2.444,1.847
			c0.918,1.008,1.687,2.162,2.354,3.348c1.037,1.843,1.805,3.849,2.237,5.919c-1.782,4.218-5.473,11.947-7.372,16.192
			c-1.003,2.212-2.82,7.013-3.723,9.33c-1.079,2.604-2.21,5.249-3.951,7.485c-1.054,1.361-2.386,2.551-3.982,3.231
			c-2.045,0.884-4.318,1.047-6.521,1.029c-4.303-0.067-10.194-0.957-14.502-1.14c-4.607-0.245-9.361,0.024-13.952,0.472
			c-11.76,1.159-29.002,4.477-40.771,5.533c-9.667,0.917-19.591,1.006-29.29,0.481c-12.658-0.678-25.88-2.529-38.389-4.66
			c-17.021-2.891-39.276-7.232-56.353-8.125c-17.64-1.027-35.681,0.499-52.487,6.175c-15.389,5.308-32.023,14.522-37.479,30.856
			c-1.783,5.296-2.128,10.988-1.725,16.532c0.51,6.755,2.069,13.449,4.407,19.8c1.551,4.149,3.45,8.236,5.927,11.918
			c1.5,2.209,3.254,4.311,5.462,5.843c1.238,0.864,2.612,1.54,4.038,2.031c2.225,0.77,5.012,1.236,7.313,1.782
			c0.565,0.912,1.273,1.871,1.862,2.771c0.869,1.324,1.75,2.78,2.519,4.164c4.841,8.76,8.095,18.413,10.813,28.016
			c0.79,2.919,1.587,5.987,2.105,8.955c0.292,1.709,0.542,3.447,0.561,5.18c0.004,0.743-0.029,1.485-0.171,2.214
			c-0.153,0.753-0.418,1.501-0.706,2.212c-0.76,1.84-1.76,3.635-2.777,5.346c-2.354,3.91-5.293,8.08-8.006,11.776
			c-3.428,4.6-7.961,10.756-11.582,15.132c-0.719,0.844-1.492,1.78-2.258,2.572c-0.313,0.344-0.596,0.721-0.837,1.119
			c-1.294,2.138-1.386,4.758-1.063,7.176c0.133,0.996,0.349,2.013,0.604,2.986c0.555,2.132,0.961,4.535,1.313,6.718
			c0.741,4.763,1.441,10.844,1.953,15.657c1.229,12.307,2.58,27.71,3.23,40.03c0.218,4.481,0.402,9.651,0.299,14.122
			c-0.099,3.856-0.274,7.827-1.052,11.613c-0.141,0.653-0.316,1.359-0.523,1.996c-0.347,1.001-0.711,2.023-0.966,3.053
			c-0.376,1.492-0.623,3.046-0.514,4.588c0.061,0.864,0.245,1.739,0.639,2.513c0.45,0.892,1.119,1.559,1.945,2.055
			c0.388,0.242,0.834,0.426,1.257,0.583c0.414,0.174,0.763,0.351,1.081,0.588c1.364,1.002,2.08,2.516,2.546,4.086
			c0.31,1.05,0.45,2.157,0.739,3.212c0.488,1.835,1.191,3.669,2.409,5.149c0.609,0.75,1.373,1.344,2.24,1.761
			c1.714,0.825,3.657,1.038,5.54,1.045c0,0,10.331,0,10.331,0c0.271-0.013,0.673,0.002,0.946-0.018
			c0.808-0.04,1.638-0.104,2.427-0.295c0.617-0.146,1.273-0.385,1.729-0.793c0.051-0.048,0.076-0.072,0.076-0.072
			c0.047-0.049,0.059-0.061,0.059-0.061c0.044-0.05,0.055-0.063,0.055-0.063c0.041-0.052,0.051-0.065,0.051-0.065
			c0.029-0.039,0.038-0.053,0.038-0.053c0.027-0.04,0.036-0.054,0.036-0.054c0.025-0.041,0.034-0.055,0.034-0.055
			c0.024-0.042,0.031-0.056,0.031-0.056c0.022-0.042,0.029-0.057,0.029-0.057c0.02-0.043,0.026-0.058,0.026-0.058
			c0.018-0.044,0.024-0.059,0.024-0.059c0.016-0.045,0.022-0.06,0.022-0.06c0.015-0.046,0.019-0.061,0.019-0.061
			c0.013-0.046,0.017-0.062,0.017-0.062c0.011-0.047,0.014-0.063,0.014-0.063c0.297-1.506-0.078-3.074-0.873-4.369
			c-0.376-0.596-0.865-1.121-1.379-1.601c-0.817-0.755-1.732-1.422-2.659-2.034c-0.56-0.386-1.219-0.743-1.767-1.137
			c-0.63-0.44-1.244-0.939-1.798-1.471c-1.038-0.995-1.925-2.161-2.613-3.424c-0.331-0.589-0.624-1.277-0.882-1.904
			c-0.494-1.204-0.978-2.493-1.391-3.727c-0.537-1.626-1.04-3.317-1.396-4.992c-0.217-1.074-0.358-2.189-0.444-3.282
			c-0.198-2.447-0.105-4.961,0.032-7.409c0.097-2.672,0-5.752-0.104-8.437c-0.604-14.075-2.646-28.612-1.47-42.698
			c0.641-7.199,2.485-14.334,5.687-20.826c1.28-2.588,2.809-5.094,4.6-7.361c0.828-1.045,1.755-2.095,2.701-3.035
			c0.698-0.701,1.513-1.401,2.241-2.071c1.811-1.71,3.687-3.672,5.378-5.503c12.116-13.169,34.731-41.051,46.444-55.03
			c5.714,3.205,11.783,6.437,17.849,8.883c5.206,2.119,10.681,3.799,16.205,4.849c7.885,1.496,16.125,1.813,24.139,1.878
			c7.242,0.052,28.204-0.483,35.325-0.279c6.971,0.126,15.062,0.583,22.032,1.095c0.192,1.747,0.325,3.506,0.295,5.256
			c-0.073,2.711-0.416,5.535-0.798,8.221c-0.633,4.514-1.714,9.301-2.613,13.768c-0.472,2.538-0.837,5.417-1.113,7.997
			c-1.036,9.868-1.123,20.46-1.277,30.393c-0.115,4.987-0.397,11.755-0.71,16.727c-0.613,9.715-1.732,20.181-3.207,29.797
			c-0.683,4.368-1.465,8.927-2.571,13.207c-0.302,1.148-0.658,2.364-1.061,3.479c-0.59,1.506-1.152,3.055-1.473,4.644
			c-0.439,2.085-0.544,4.262-0.142,6.361c0.188,1.042,0.575,2.054,0.807,3.086c0.517,2.176,0.798,4.46,0.974,6.689
			c0.165,2.135,0.228,4.481,0.231,6.626c0.011,2.001,0.135,4.049,0.754,5.965c0.246,0.74,0.579,1.462,1.059,2.08
			c0.473,0.619,1.137,1.116,1.848,1.355c0.402,0.14,0.755,0.196,1.165,0.226c0.991,0.031,13.606,0.015,14.28-0.013
			c1.19-0.048,2.413-0.137,3.578-0.393c0.801-0.173,1.688-0.462,2.317-0.971c0.052-0.044,0.069-0.059,0.069-0.059
			c0.05-0.045,0.066-0.06,0.066-0.06c0.047-0.046,0.062-0.061,0.062-0.061c0.044-0.047,0.059-0.063,0.059-0.063
			c0.042-0.048,0.055-0.064,0.055-0.064c0.039-0.049,0.052-0.065,0.052-0.065c0.037-0.05,0.049-0.066,0.049-0.066
			c0.034-0.051,0.045-0.068,0.045-0.068c0.032-0.052,0.042-0.069,0.042-0.069c0.175-0.291,0.209-0.568,0.255-0.869
			c0.037-0.253,0.063-0.514,0.076-0.77c0.062-1.126-0.14-2.269-0.607-3.297c-0.48-1.03-1.137-2.006-1.778-2.942
			c-1.098-1.614-2.462-3.235-3.603-4.817c-1.138-1.639-2.061-3.45-2.815-5.296c-0.853-2.122-1.549-4.353-2.031-6.589
			c-0.417-2.014-0.627-4.107-0.691-6.161c-0.091-3.017,0.12-6.075,0.503-9.068c1.116-7.783,2.833-20.742,3.83-28.564
			c0.38-2.736,0.898-5.799,1.471-8.502c0.633-2.949,1.415-6.021,2.363-8.884c0.563-1.707,1.222-3.474,1.938-5.124
			c3.056-7.11,6.066-15.493,8.65-22.811c2.683,19.004,5.551,39.433,6.64,58.569c0.171,3.827,0.284,7.788-0.048,11.606
			c-0.349,4.179-0.991,8.403-2.114,12.447c-0.719,2.373-1.3,4.883-0.945,7.371c0.126,0.884,0.38,1.759,0.783,2.557
			c0.16,0.328,0.366,0.635,0.55,0.949c0.201,0.349,0.382,0.717,0.535,1.089c0.47,1.138,0.71,2.367,0.782,3.594
			c0.064,1.096-0.001,2.208-0.149,3.295c-0.149,1.045-0.379,2.107-0.493,3.158c-0.205,1.739-0.265,3.523-0.014,5.26
			c0.132,0.863,0.322,1.732,0.66,2.54c0.37,0.865,1.01,1.584,1.754,2.061c0.63,0.409,1.283,0.652,1.999,0.836
			c0.744,0.185,1.52,0.276,2.285,0.309c1.04,0.013,11.844,0.055,12.815-0.025c0.876-0.074,1.874-0.288,2.532-0.878
			c0.051-0.048,0.068-0.064,0.068-0.064c0.049-0.05,0.065-0.067,0.065-0.067c0.828-0.907,0.597-2.171,0.242-3.213
			c-0.497-1.448-3.579-9.401-3.886-10.703c-0.464-1.688-0.741-3.461-0.913-5.203c-0.146-1.513-0.213-3.123-0.222-4.643
			c-0.112-10.524-1.289-23.543-2.109-34.115c-0.638-8.048-2.109-19.538-1.711-27.534c0.094-2.268,0.298-4.591,0.672-6.831
			c0.18-1.09,0.451-2.259,0.634-3.349c0.254-1.492,0.479-3.217,0.642-4.722c0.913-8.664,0.935-17.906,1.058-26.618
			c0.226-11.201,0.972-23.057,2.151-34.199c3.726-0.028,7.5-0.358,11.121-1.266c2.84-0.708,5.602-1.789,8.138-3.255
			c4.269-2.474,7.892-5.951,11.11-9.659c5.116-5.949,9.357-12.746,13.197-19.573c1.804-3.241,5.816-11.041,7.814-13.961
			c1.28-1.92,2.765-3.73,4.435-5.323c2.564-2.463,6.524-5.334,9.363-7.549c3.437-2.669,6.877-5.56,9.877-8.714
			c4.379-4.536,7.903-9.857,10.851-15.412c4.591-8.711,8.099-18.087,10.511-27.63c1.001-4.094,1.849-8.342,2.097-12.555
			c0.154-2.596,0.042-5.258-0.302-7.835c0.052-0.029,0.078-0.044,0.078-0.044c0.05-0.032,0.075-0.048,0.075-0.048
			c0.048-0.034,0.072-0.052,0.072-0.052c0.046-0.037,0.069-0.055,0.069-0.055c0.044-0.039,0.066-0.059,0.066-0.059
			c0.042-0.041,0.063-0.063,0.063-0.063c0.04-0.044,0.06-0.066,0.06-0.066c0.039-0.046,0.057-0.069,0.057-0.069
			c0.037-0.048,0.055-0.073,0.055-0.073c0.035-0.05,0.052-0.076,0.052-0.076c0.323-0.514,0.428-1.05,0.496-1.625
			c0.074-0.708,0.045-1.435-0.015-2.144c-0.277-3.093-1.725-8.772-2.352-11.87c-2.137-10.669-4.099-22.935-5.618-33.716
			c0.812-2.689,2.871-4.876,5.369-6.103c0.778-0.383,1.609-0.674,2.458-0.852c1.109-0.232,2.265-0.279,3.395-0.289
			c2.559-0.01,5.323,0.114,7.779-0.701c1.872-0.602,3.571-1.669,5.074-2.923c2.587-2.179,4.658-4.945,6.225-7.932
			c2.486-4.766,3.654-10.25,3.219-15.614c-0.148-1.605-0.454-3.224-1.083-4.714c-0.438-1.039-1.097-2.083-1.996-2.756
			c-1.794-1.343-4.207-1.154-6.288-0.736c-2.419,0.514-4.827,1.378-7.147,2.228c-2.544,0.967-5.056,2.127-7.302,3.676
			c-1.62,1.11-3.093,2.451-4.342,3.968c-1.078,1.27-2.229,2.959-3.261,4.271c-0.475,0.58-1.007,1.264-1.653,1.626
			c-0.037,0.019-0.056,0.028-0.056,0.028c-0.037,0.017-0.055,0.025-0.055,0.025c-0.036,0.015-0.055,0.022-0.055,0.022
			c-0.036,0.013-0.054,0.019-0.054,0.019c-0.036,0.011-0.054,0.016-0.054,0.016c-0.035,0.009-0.053,0.013-0.053,0.013
			c-0.053,0.01-0.07,0.012-0.07,0.012c-0.052,0.006-0.064,0.006-0.064,0.006c-0.048,0.002-0.06,0.002-0.06,0.002
			c-0.047-0.002-0.059-0.003-0.059-0.003c-0.047-0.005-0.058-0.007-0.058-0.007c-0.046-0.009-0.058-0.011-0.058-0.011
			c-0.046-0.012-0.057-0.015-0.057-0.015c-0.046-0.015-0.057-0.019-0.057-0.019c-0.045-0.018-0.056-0.023-0.056-0.023
			c-0.045-0.021-0.056-0.027-0.056-0.027c-0.045-0.024-0.056-0.03-0.056-0.03c-0.044-0.027-0.055-0.034-0.055-0.034
			c-0.033-0.022-0.055-0.037-0.055-0.037c-0.044-0.032-0.066-0.049-0.066-0.049c-0.044-0.035-0.066-0.054-0.066-0.054
			c-0.044-0.038-0.066-0.058-0.066-0.058c-0.33-0.314-0.53-0.607-0.783-0.96c-0.418-0.605-1.061-1.578-1.53-2.131
			c10.338-8.659,23.981-19.418,33.383-28.885c2.096-2.135,4.198-4.385,5.95-6.814c1.302-1.81,2.417-3.789,3.088-5.922
			C572.917,219.818,573.146,217.675,573.079,215.562z"/>
	</g>
</g>
</svg>
