<?xml version="1.0" encoding="utf-8"?>
<!-- Generator: Adobe Illustrator 24.2.0, SVG Export Plug-In . SVG Version: 6.00 Build 0)  -->
<!DOCTYPE svg PUBLIC "-//W3C//DTD SVG 1.1//EN" "http://www.w3.org/Graphics/SVG/1.1/DTD/svg11.dtd" [
	<!ENTITY ns_extend "http://ns.adobe.com/Extensibility/1.0/">
	<!ENTITY ns_ai "http://ns.adobe.com/AdobeIllustrator/10.0/">
	<!ENTITY ns_graphs "http://ns.adobe.com/Graphs/1.0/">
	<!ENTITY ns_vars "http://ns.adobe.com/Variables/1.0/">
	<!ENTITY ns_imrep "http://ns.adobe.com/ImageReplacement/1.0/">
	<!ENTITY ns_sfw "http://ns.adobe.com/SaveForWeb/1.0/">
	<!ENTITY ns_custom "http://ns.adobe.com/GenericCustomNamespace/1.0/">
	<!ENTITY ns_adobe_xpath "http://ns.adobe.com/XPath/1.0/">
]>
<svg version="1.1" xmlns:x="&ns_extend;" xmlns:i="&ns_ai;" xmlns:graph="&ns_graphs;"
	 xmlns="http://www.w3.org/2000/svg" xmlns:xlink="http://www.w3.org/1999/xlink" x="0px" y="0px" width="750px" height="750px"
	 viewBox="0 0 750 750" enable-background="new 0 0 750 750" xml:space="preserve">
<metadata>
	<sfw  xmlns="&ns_sfw;">
		<slices></slices>
		<sliceSourceBounds  bottomLeftOrigin="true" height="9750" width="8220" x="-4000" y="-1526"></sliceSourceBounds>
	</sfw>
</metadata>
<g id="FILL-BACKGROUND">
	<rect fill="#FFFFFF" width="750" height="750"/>
</g>
<g id="N-TEXT">
</g>
<g id="N-DIMENSIONS">
</g>
<g id="AG-DIAGRAM">
	<g id="POLYLINE_75_">
		<g>
			<g>
				
					<line fill="none" stroke="#FB8604" stroke-width="3.25" stroke-linecap="round" stroke-linejoin="round" x1="136.865" y1="631.738" x2="138.865" y2="631.738"/>
				
					<line fill="none" stroke="#FB8604" stroke-width="3.25" stroke-linecap="round" stroke-linejoin="round" stroke-dasharray="3.9629,6.935" x1="145.8" y1="631.738" x2="458.371" y2="631.738"/>
				
					<line fill="none" stroke="#FB8604" stroke-width="3.25" stroke-linecap="round" stroke-linejoin="round" x1="461.838" y1="631.738" x2="463.838" y2="631.738"/>
			</g>
		</g>
	</g>
</g>
<g id="AG-DETAIL-DIAGRAM">
</g>
<g id="AG-DETAILS">
</g>
<g id="AG-ANIMALS">
	<g id="POLYLINE_371_">
		
			<path fill="none" stroke="#FB8604" stroke-width="2.75" stroke-linecap="round" stroke-linejoin="round" stroke-miterlimit="10" d="
			M618.08,185.124c-2.69-1.456-5.482-2.937-7.85-4.885c-0.574-0.461-1.724-1.634-2.271-2.173c-1.283-1.26-2.636-2.531-4.128-3.536
			c-1.81-1.286-4.779-2.423-6.823-3.331c-1.739-0.772-3.477-1.65-5.078-2.679c-1.856-1.187-3.583-2.604-5.111-4.192
			c-4.552-4.724-8.149-11.169-12.08-16.354c-0.499-0.608-1.025-1.272-1.688-1.702c-0.032-0.019-0.063-0.037-0.063-0.037
			c-0.031-0.017-0.061-0.033-0.061-0.033c-0.03-0.015-0.06-0.029-0.06-0.029c-0.03-0.013-0.059-0.025-0.059-0.025
			c-0.029-0.011-0.058-0.021-0.058-0.021c-0.028-0.009-0.056-0.017-0.056-0.017c-0.028-0.007-0.055-0.013-0.055-0.013
			c-0.027-0.005-0.054-0.008-0.054-0.008c-0.023-0.002-0.034-0.003-0.034-0.003c-0.022-0.001-0.033-0.001-0.033-0.001
			c-0.022,0-0.033,0-0.033,0c-0.032,0.002-0.043,0.003-0.043,0.003c-0.031,0.004-0.042,0.006-0.042,0.006
			c-0.031,0.007-0.041,0.009-0.041,0.009c-0.03,0.009-0.04,0.012-0.04,0.012c-0.029,0.011-0.039,0.015-0.039,0.015
			c-0.029,0.013-0.038,0.018-0.038,0.018c-0.028,0.015-0.037,0.021-0.037,0.021c-0.027,0.017-0.036,0.024-0.036,0.024
			c-0.026,0.019-0.035,0.026-0.035,0.026c-0.026,0.021-0.034,0.029-0.034,0.029c-0.025,0.023-0.033,0.032-0.033,0.032
			c-0.024,0.025-0.032,0.034-0.032,0.034c-0.024,0.027-0.031,0.037-0.031,0.037c-0.023,0.029-0.03,0.039-0.03,0.039
			c-0.221,0.313-0.301,0.639-0.381,0.989c-0.101,0.488-0.141,0.998-0.159,1.496c-0.055,2.03,0.233,4.067,0.742,6.03
			c0.874,3.343,2.439,6.498,4.497,9.269c1.302,1.753,2.827,3.388,4.391,4.911c3.502,3.415,8.878,7.631,12.664,10.801
			c2.945,2.508,5.899,5.153,8.293,8.203c1.997,2.549,3.642,5.542,3.894,8.824c0.126,1.59-0.019,3.231-0.595,4.727
			c-0.434,1.126-1.194,2.229-2.314,2.745c-0.833,0.391-1.778,0.451-2.68,0.343c-1.338-0.166-2.619-0.661-3.823-1.253
			c-3.101-1.557-5.817-3.822-8.352-6.165c-5.42-5.063-10.351-11.183-14.962-16.995c-0.555-0.682-1.17-1.425-1.801-2.038
			c-0.288-0.274-0.609-0.556-0.958-0.736c-0.088-0.045-0.161-0.074-0.224-0.095c-0.029-0.009-0.043-0.013-0.043-0.013
			c-0.028-0.008-0.043-0.011-0.043-0.011c-0.028-0.007-0.042-0.01-0.042-0.01c-0.028-0.005-0.041-0.008-0.041-0.008
			c-0.027-0.004-0.041-0.006-0.041-0.006c-0.027-0.003-0.04-0.004-0.04-0.004c-0.027-0.001-0.04-0.002-0.04-0.002
			c-0.026,0-0.039,0-0.039,0c-0.026,0.001-0.039,0.002-0.039,0.002c-0.026,0.003-0.038,0.004-0.038,0.004
			c-0.025,0.004-0.038,0.007-0.038,0.007c-0.025,0.005-0.037,0.009-0.037,0.009c-0.031,0.009-0.041,0.012-0.041,0.012
			c-0.028,0.01-0.037,0.014-0.037,0.014c-0.028,0.012-0.037,0.016-0.037,0.016c-0.027,0.013-0.036,0.018-0.036,0.018
			c-0.027,0.015-0.035,0.02-0.035,0.02c-0.026,0.016-0.035,0.022-0.035,0.022c-0.026,0.018-0.034,0.024-0.034,0.024
			c-0.025,0.02-0.034,0.026-0.034,0.026c-0.025,0.021-0.033,0.029-0.033,0.029c-0.032,0.031-0.04,0.039-0.04,0.039
			c-0.024,0.025-0.031,0.033-0.031,0.033c-0.023,0.026-0.031,0.035-0.031,0.035c-0.21,0.252-0.321,0.56-0.404,0.844
			c-0.091,0.328-0.143,0.672-0.171,1.011c-0.104,1.331,0.12,2.673,0.466,3.956c0.968,3.431,2.678,6.641,4.686,9.573
			c0.891,1.28,1.893,2.528,2.991,3.637c1.293,1.338,3.444,3.062,4.874,4.278c2.405,2.061,4.604,4.421,6.313,7.094
			c0.808,1.3,1.552,2.702,1.795,4.231c0.09,0.604,0.077,1.234-0.117,1.818c-0.273,0.847-0.893,1.55-1.639,2.019
			c-0.917,0.579-2.012,0.848-3.092,0.84c-1.526-0.018-3.008-0.506-4.435-1.007c-2.614-0.966-5.699-2.187-8.398-2.792
			c-2.812-0.648-5.73-1.001-8.61-1.154c-1.556-0.072-3.166-0.101-4.718,0.048c-0.569,0.067-1.197,0.13-1.715,0.376
			c-0.019,0.01-0.038,0.021-0.038,0.021c-0.018,0.01-0.035,0.021-0.035,0.021c-0.017,0.011-0.032,0.021-0.032,0.021
			c-0.03,0.022-0.044,0.033-0.044,0.033c-0.026,0.022-0.037,0.034-0.037,0.034c-0.022,0.023-0.031,0.035-0.031,0.035
			c-0.017,0.024-0.025,0.036-0.025,0.036c-0.015,0.028-0.018,0.035-0.018,0.035c-0.01,0.028-0.012,0.035-0.012,0.035
			c-0.006,0.029-0.006,0.036-0.006,0.036c-0.001,0.03-0.001,0.037-0.001,0.037c0.003,0.03,0.004,0.038,0.004,0.038
			c0.007,0.031,0.01,0.039,0.01,0.039c0.011,0.031,0.015,0.039,0.015,0.039c0.016,0.032,0.02,0.04,0.02,0.04
			c0.014,0.024,0.02,0.033,0.02,0.033c0.017,0.025,0.023,0.033,0.023,0.033c0.019,0.025,0.026,0.034,0.026,0.034
			c0.021,0.025,0.029,0.034,0.029,0.034c0.193,0.208,0.399,0.337,0.625,0.48c0.318,0.194,0.676,0.378,1.011,0.542
			c4.29,1.976,9.107,3.835,13.161,6.256c1.993,1.191,3.954,2.523,5.555,4.219c0.65,0.711,1.269,1.503,1.551,2.437
			c0.174,0.566,0.141,1.212-0.101,1.732c-0.257,0.565-0.67,0.985-1.165,1.333c-0.89,0.611-1.959,0.905-2.99,1.182
			c-1.401,0.345-3.674,0.88-5.016,1.295c-1.303,0.393-2.641,0.88-3.889,1.424c-4.176,1.861-8.075,4.403-11.696,7.18
			c-1.929,1.52-3.858,3.137-5.438,5.025c-0.504,0.63-1.013,1.297-1.255,2.076l-0.011,0.04c0,0-0.01,0.039-0.01,0.039l-0.009,0.039
			l-0.008,0.039l-0.007,0.038l-0.007,0.038l-0.006,0.037c0,0-0.005,0.037-0.005,0.037l-0.004,0.036l-0.003,0.036l-0.002,0.035
			l-0.001,0.035v0.034c0.001,0.028,0.001,0.042,0.001,0.042c0.002,0.028,0.003,0.041,0.003,0.041
			c0.003,0.027,0.004,0.041,0.004,0.041c0.004,0.027,0.006,0.04,0.006,0.04c0.005,0.026,0.007,0.039,0.007,0.039
			c0.005,0.026,0.008,0.038,0.008,0.038c0.006,0.025,0.01,0.038,0.01,0.038c0.007,0.025,0.011,0.037,0.011,0.037
			c0.008,0.024,0.012,0.036,0.012,0.036c0.009,0.024,0.014,0.036,0.014,0.036c0.01,0.023,0.015,0.035,0.015,0.035
			c0.011,0.023,0.016,0.034,0.016,0.034c0.012,0.022,0.018,0.033,0.018,0.033c0.012,0.022,0.019,0.033,0.019,0.033
			c0.02,0.032,0.027,0.042,0.027,0.042c0.022,0.031,0.029,0.041,0.029,0.041c0.023,0.03,0.032,0.04,0.032,0.04
			c0.025,0.029,0.034,0.039,0.034,0.039c0.027,0.028,0.036,0.037,0.036,0.037c0.028,0.027,0.038,0.036,0.038,0.036
			c0.03,0.026,0.04,0.035,0.04,0.035c0.298,0.243,0.632,0.345,0.981,0.417c0.412,0.079,0.838,0.092,1.256,0.072
			c1.057-0.054,2.095-0.335,3.083-0.704c1.603-0.604,3.145-1.456,4.625-2.315c3.586-2.107,7.468-4.746,11.471-5.931
			c1.681-0.506,3.456-0.776,5.211-0.618c1.545,0.135,3.068,0.593,4.417,1.361c1.286,0.729,2.411,1.742,3.287,2.931
			c1.499,2.06,2.371,4.545,2.709,7.059c0.203,1.618,0.183,3.298-0.288,4.87c-0.399,1.344-1.215,2.539-2.256,3.47
			c-0.936,0.847-2.027,1.52-3.137,2.113c-1.684,0.894-3.599,1.702-5.363,2.433c-3.697,1.496-7.553,2.772-11.458,3.594
			c-2.981,0.62-6.055,0.997-9.103,0.875"/>
	</g>
	<g id="POLYLINE_370_">
		
			<path fill="none" stroke="#FB8604" stroke-width="2.75" stroke-linecap="round" stroke-linejoin="round" stroke-miterlimit="10" d="
			M586.999,262.999c2.664-1.534,5.243-3.307,7.408-5.503c1.763-1.784,3.242-3.878,4.215-6.195c1.019-2.425,1.517-5.055,1.685-7.672
			c0.178-2.882-0.041-5.798-0.613-8.627c-0.33-1.619-0.785-3.235-1.379-4.777c-0.706-1.874-1.808-3.852-2.716-5.638
			c-0.279-0.562-0.566-1.155-0.752-1.755c-0.117-0.389-0.21-0.84-0.086-1.225c0.006-0.017,0.012-0.035,0.012-0.035
			c0.006-0.017,0.013-0.034,0.013-0.034c0.007-0.017,0.014-0.033,0.014-0.033c0.008-0.016,0.015-0.033,0.015-0.033
			c0.017-0.032,0.025-0.048,0.025-0.048c0.018-0.031,0.028-0.046,0.028-0.046c0.022-0.032,0.029-0.043,0.029-0.043
			c0.024-0.031,0.032-0.041,0.032-0.041c0.025-0.03,0.034-0.04,0.034-0.04c0.027-0.029,0.037-0.039,0.037-0.039
			c0.029-0.028,0.039-0.037,0.039-0.037c0.287-0.25,0.618-0.352,0.964-0.415c0.392-0.066,0.796-0.061,1.19-0.014
			c0.773,0.096,1.528,0.356,2.199,0.751c0.471,0.278,0.898,0.633,1.282,1.021c0.701,0.711,1.286,1.545,1.827,2.382
			c1.099,1.713,2.421,4.145,3.782,5.66c1.62,1.84,3.833,3.216,6.262,3.65c1.231,0.214,2.54,0.155,3.693-0.355
			c0.993-0.434,1.821-1.185,2.459-2.052c1.064-1.455,1.693-3.183,2.167-4.908c0.728-2.732,1.074-5.589,1.285-8.405
			c0.468-6.872,0.088-13.886-0.963-20.69c-0.94-5.854-2.387-11.715-4.918-17.098c-1.794-3.803-4.311-7.266-7.314-10.205
			c-3.515-3.437-7.903-6.387-11.259-9.992c-3.274-3.481-6.13-7.424-8.454-11.6c-1.4-2.564-2.65-5.266-3.317-8.121
			c-0.346-1.523-0.504-3.127-0.159-4.664c0.06-0.253,0.133-0.525,0.228-0.769c0.045-0.115,0.094-0.238,0.149-0.349
			c0.113-0.248,0.284-0.504,0.454-0.685c0.092-0.097,0.181-0.169,0.269-0.225c0.023-0.014,0.035-0.021,0.035-0.021
			c0.023-0.013,0.035-0.02,0.035-0.02c0.023-0.012,0.035-0.018,0.035-0.018c0.024-0.011,0.035-0.016,0.035-0.016
			c0.024-0.01,0.036-0.015,0.036-0.015c0.024-0.009,0.036-0.013,0.036-0.013c0.024-0.008,0.036-0.011,0.036-0.011
			c0.024-0.007,0.036-0.01,0.036-0.01c0.024-0.006,0.036-0.008,0.036-0.008c0.024-0.004,0.036-0.006,0.036-0.006
			c0.024-0.003,0.037-0.005,0.037-0.005c0.024-0.002,0.037-0.003,0.037-0.003c0.025-0.001,0.037-0.001,0.037-0.001
			c0.025,0,0.037,0.001,0.037,0.001c0.025,0.001,0.037,0.002,0.037,0.002c0.025,0.003,0.037,0.004,0.037,0.004
			c0.025,0.004,0.037,0.006,0.037,0.006c0.025,0.005,0.037,0.008,0.037,0.008c0.025,0.006,0.037,0.01,0.037,0.01
			c0.031,0.009,0.049,0.016,0.049,0.016c0.018,0.007,0.037,0.014,0.037,0.014c0.018,0.007,0.037,0.015,0.037,0.015
			c0.018,0.008,0.037,0.017,0.037,0.017c0.018,0.009,0.037,0.019,0.037,0.019c0.478,0.274,0.791,0.751,1.081,1.195
			c0.559,0.9,1.01,1.921,1.435,2.891c0.933,2.132,2.009,5.184,3.332,7.08c0.34,0.495,0.724,0.969,1.134,1.407
			c0.43,0.461,0.912,0.91,1.386,1.325c0.317,0.337,12.88,10.451,13.583,11.033c3.255,2.738,6.625,5.687,9.625,8.701
			c2.443,2.463,4.779,5.117,6.712,8.002c2.398,3.551,4.17,7.534,5.181,11.699c0.969,3.944,1.32,8.063,1.418,12.116
			c0.126,6.075-0.368,12.28-1.156,18.303c-0.874,6.193-1.911,12.541-3.877,18.49c-1.073,3.24-2.512,6.46-4.016,9.524
			c-1.646,3.327-3.543,6.854-5.461,10.028c-2.933,4.85-6.224,9.602-10.039,13.804c-2.98,3.263-6.355,6.272-10.29,8.331
			c-3.238,1.71-6.803,2.786-10.415,3.347c-4.535,0.715-9.222,0.664-13.797,0.457"/>
	</g>
	<g id="POLYLINE_369_">
		
			<path fill="none" stroke="#FB8604" stroke-width="2.75" stroke-linecap="round" stroke-linejoin="round" stroke-miterlimit="10" d="
			M369.76,474.11c-0.633,16.074-1.077,32.655,0.83,48.638c1.012,6.931,1.827,14.127,2.218,21.125
			c0.691,11.626,0.554,23.77-0.009,35.408c-0.5,8.434-1.124,17.088-3.925,25.118c-0.529,1.442-1.152,2.878-2.014,4.155
			c-0.209,0.308-0.445,0.617-0.69,0.897c-0.189,0.206-0.413,0.442-0.603,0.648c-1.031,1.148-1.978,2.494-2.201,4.055
			c-0.143,1.001,0.116,2.025,0.57,2.916c0.47,0.911,1.203,1.669,2.045,2.247c0.298,0.212,0.628,0.385,0.935,0.583
			c0.325,0.215,0.63,0.47,0.906,0.746c1.033,1.043,1.715,2.381,2.237,3.74c0.218,0.572,0.421,1.202,0.587,1.791
			c0.152,0.564,0.317,1.151,0.534,1.694c0.457,1.166,1.133,2.302,2.171,3.037c0.663,0.474,1.46,0.745,2.27,0.811
			c0.138,0.011,0.286,0.019,0.424,0.02c0.048,0.027,11.918-0.019,11.974,0c2.223-0.013,4.527-0.063,6.723-0.424
			c0.944-0.17,1.916-0.373,2.757-0.853c2.064-1.243,0.933-3.422-0.185-4.904c-1.232-1.645-2.679-3.154-4.23-4.502
			c-0.885-0.784-1.897-1.494-2.785-2.272c-1.684-1.479-3.122-3.242-4.307-5.141c-0.559-0.894-1.08-1.833-1.482-2.808
			c-0.635-1.517-1.061-3.136-1.336-4.755c-0.458-2.72-0.521-5.515-0.354-8.264c0.193-3.202,0.631-6.549,1.119-9.72
			c0.801-5.359,8.17-43.723,9.283-49.87"/>
	</g>
	<g id="POLYLINE_368_">
		
			<path fill="none" stroke="#FB8604" stroke-width="2.75" stroke-linecap="round" stroke-linejoin="round" stroke-miterlimit="10" d="
			M370.089,624.468c3.249-0.222,6.507-0.844,9.592-1.89c3.372-1.143,6.598-2.798,9.523-4.826"/>
	</g>
	<g id="POLYLINE_367_">
		
			<path fill="none" stroke="#FB8604" stroke-width="2.75" stroke-linecap="round" stroke-linejoin="round" stroke-miterlimit="10" d="
			M148.024,618.274c7.722,0.167,15.483-0.904,22.889-3.087"/>
	</g>
	<g id="POLYLINE_366_">
		
			<path fill="none" stroke="#FB8604" stroke-width="2.75" stroke-linecap="round" stroke-linejoin="round" stroke-miterlimit="10" d="
			M177.812,405.338c2.628,10.394,7.728,30.062,10.56,40.252c0.306,1.154,0.602,2.468,0.828,3.634
			c0.375,1.963,0.638,3.973,0.737,5.968c0.164,3.277-0.113,6.608-1.035,9.764c-0.294,1.007-0.663,2.022-1.086,2.98
			c-0.353,0.834-0.99,1.982-1.433,2.794c-1.338,2.43-2.871,4.993-4.365,7.329c-2.888,4.513-6.171,9.006-9.534,13.183
			c-2.093,2.592-4.332,5.214-6.702,7.553c-1.074,1.053-2.216,2.081-3.437,2.96c-0.948,0.677-1.698,1.599-2.29,2.596
			c-1.501,2.578-2.152,5.564-2.602,8.486c-0.329,2.171-0.507,5.03-0.679,7.249c-0.397,4.841-0.993,10.232-1.66,15.042
			c-1.406,10.595-3.907,21.392-6.635,31.723c-1.382,5.217-3.015,11.118-4.714,16.221c-0.818,2.439-1.745,5.017-2.804,7.358
			c-0.489,1.07-1.034,2.162-1.684,3.143c-0.322,0.474-0.688,0.936-0.985,1.428c-0.507,0.818-0.926,1.703-1.215,2.621
			c-0.428,1.348-0.574,2.786-0.451,4.195c0.142,1.56,0.566,3.098,1.188,4.534c0.64,1.453,1.594,2.806,2.908,3.72
			c0.301,0.21,0.628,0.404,0.958,0.565c0.415,0.19,0.836,0.392,1.222,0.637c1.193,0.741,2.187,1.774,2.993,2.918
			c0.545,0.775,1.018,1.614,1.426,2.469c0.556,1.115,3.976,9.471,4.596,10.592c0.301,0.519,0.678,0.996,1.113,1.409
			c1.214,1.156,2.827,1.795,4.446,2.139c1.386,0.293,2.891,0.395,4.3,0.536c3.665,0.31,7.594,0.407,11.273,0.396
			c1.068-0.024,2.176-0.073,3.231-0.244c1.802-0.282,4.344-1.014,4.21-3.265c-0.079-1.422-0.252-2.855-0.632-4.23
			c-0.232-0.801-0.499-1.617-0.975-2.31c-0.485-0.71-1.108-1.326-1.758-1.886c-1.121-0.965-2.386-1.765-3.638-2.545
			c-1.869-1.235-3.47-2.856-4.903-4.567c-2.004-2.414-3.743-5.118-5.291-7.845c-1.757-3.149-3.274-6.496-4.03-10.036
			c-0.38-1.786-0.456-3.65-0.469-5.472c-0.003-3.483,0.305-7.131,0.671-10.595c0.403-3.566,0.894-7.608,1.604-11.117
			c0.867-4.393,2.071-8.785,3.559-13.008c1.71-4.905,3.924-9.718,6.338-14.316c2.318-4.443,4.945-8.981,7.672-13.185
			c2.564-3.979,5.561-8.07,8.502-11.785c2.812-3.547,5.848-7.139,9.004-10.387c1.086-1.104,2.45-2.452,3.613-3.487
			c1.135-1.012,2.441-2.129,3.546-3.173c4.854-4.543,9.637-9.74,14.038-14.726"/>
	</g>
	<g id="POLYLINE_365_">
		
			<path fill="none" stroke="#FB8604" stroke-width="2.75" stroke-linecap="round" stroke-linejoin="round" stroke-miterlimit="10" d="
			M199.987,378.883c-2.865,0.563-5.738,1.314-8.421,2.48c-1.887,0.826-3.71,1.875-5.23,3.277c-0.779,0.719-1.475,1.538-2.033,2.44
			c-0.734,1.184-1.25,2.502-1.66,3.83c-1.219,4.027-1.711,8.647-3.638,12.429c-1.085,2.195-2.731,4.082-4.637,5.604
			c-1.338,1.069-2.818,1.989-4.389,2.673c-1.038,0.447-2.133,0.806-3.257,0.948c-1.079,0.135-2.322,0.066-3.184-0.662
			c-2.028-1.736-1.434-6.072-0.962-8.428c0.875-4.388,3.089-8.808,3.987-13.191c0.843-4.06,0.924-8.834,2.248-12.783
			c0.476-1.439,1.13-2.838,2.028-4.064c0.81-1.113,1.829-2.072,2.932-2.891c1.908-1.412,4.078-2.461,6.271-3.35
			c4.4-1.809,11.75-3.681,16.369-5.036c4.852-1.445,9.782-3.245,14.38-5.364c4.046-1.86,8.126-4.107,11.907-6.459
			c5.144-3.206,11.178-7.221,16.69-9.655c3.949-1.782,8.152-3.087,12.456-3.635c9.42-1.171,19.022,0.372,28.292,2.051
			c21.465,4.167,45.001,10.348,66.864,6.484c6.948-1.176,13.668-3.7,20.083-6.568c5.447-2.456,13.805-6.533,19.331-8.496
			c3.786-1.363,7.75-2.406,11.784-2.609c4.669-0.263,9.366,0.456,13.883,1.604c4.151,1.004,16.629,5.202,20.877,6.525
			c3.196,1.066,6.633,2.3,9.721,3.638"/>
	</g>
	<g id="POLYLINE_364_">
		
			<path fill="none" stroke="#FB8604" stroke-width="2.75" stroke-linecap="round" stroke-linejoin="round" stroke-miterlimit="10" d="
			M269.378,463.222c6.377,3.238,13.067,6.279,19.817,8.637c6.03,2.118,12.332,3.78,18.629,4.877c23.286,4,50.856,1.565,73.26-5.866"
			/>
	</g>
	<g id="POLYLINE_363_">
		
			<path fill="none" stroke="#FB8604" stroke-width="2.75" stroke-linecap="round" stroke-linejoin="round" stroke-miterlimit="10" d="
			M244.367,624.455c6.787-3.914,14.333-6.507,22.068-7.722"/>
	</g>
	<g id="POLYLINE_362_">
		
			<path fill="none" stroke="#FB8604" stroke-width="2.75" stroke-linecap="round" stroke-linejoin="round" stroke-miterlimit="10" d="
			M274.156,378.334c2.465,12.662,4.809,25.955,5.927,38.799c0.487,6.116,0.813,12.377,0.148,18.486
			c-0.26,2.212-0.651,4.433-1.416,6.528c-2.248,6.071-5.033,12.184-7.892,17.991c-5.593,11.475-23.702,43.392-30.079,55.14
			c-4.296,7.941-7.891,16.573-8.511,25.669c-0.144,2.07-0.061,4.195,0.134,6.261c0.25,2.861,0.689,6.014,1.172,8.848
			c1.871,10.526,4.784,21.003,8.368,31.071c3.192,8.659,7.145,17.477,14.056,23.823c1.488,1.347,3.129,2.551,4.911,3.48
			c0.473,0.245,0.987,0.489,1.479,0.692c2.751,1.108,7.864,3.189,10.556,4.376c0.53,0.233,1.027,0.546,1.456,0.936
			c1.434,1.288,1.945,3.284,2.041,5.148c0.055,1.155,0.02,2.341-0.317,3.455c-0.217,0.714-0.589,1.4-1.165,1.886
			c-0.634,0.541-1.473,0.781-2.296,0.81c-1.277-0.011-13.913,0.034-14.845-0.016c-1.093-0.034-2.248-0.091-3.335-0.209
			c-1.83-0.212-3.713-0.507-5.369-1.355c-0.555-0.288-0.977-0.623-1.412-1.066c-0.669-0.656-1.305-1.365-1.868-2.114
			c-0.482-0.641-0.923-1.327-1.294-2.038c-0.228-0.45-0.432-0.915-0.728-1.325c-0.792-1.134-1.976-1.932-3.228-2.483
			c-0.519-0.238-1.115-0.426-1.657-0.609c-0.821-0.291-1.657-0.606-2.44-0.986c-0.715-0.343-1.422-0.737-2.067-1.2
			c-0.379-0.274-0.803-0.6-1.075-0.966c-0.341-0.446-0.573-0.97-0.742-1.503c-0.416-1.355-0.486-2.8-0.477-4.209
			c0.133-3.51,0.277-7.145,0.106-10.657c-0.045-0.915-0.206-1.848-0.397-2.745c-1.028-4.588-2.905-9.137-4.61-13.513
			c-1.411-3.608-3.334-9.035-4.597-12.714c-0.832-2.506-2.237-6.877-3.1-9.327c-1.408-3.99-3.048-8.056-4.792-11.911
			c-1.952-4.418-9.272-18.596-11.488-23.09c-1.607-3.358-2.868-7.105-2.372-10.87c0.168-1.15,0.559-2.264,1.02-3.326
			c0.652-1.493,1.491-2.938,2.364-4.311c1.101-1.747,2.425-3.505,3.687-5.141c1.198-1.48,2.446-3.083,3.455-4.699
			c3.565-5.592,5.554-12.096,6.269-18.664c0.793-7.028,0.122-14.233-1.902-21.007c-0.622-2.125-1.442-4.315-2.284-6.361
			c-1.486-3.61-3.267-7.359-5.129-10.792c-1.599-2.942-3.476-6.059-5.333-8.847c0,0-0.973-1.438-0.973-1.438
			s-0.997-1.428-0.997-1.428s-0.498-0.713-0.498-0.713s-0.486-0.716-0.486-0.716c-4.614-6.863-7.751-14.772-8.816-22.987"/>
	</g>
	<g id="POLYLINE_361_">
		
			<path fill="none" stroke="#FB8604" stroke-width="2.75" stroke-linecap="round" stroke-linejoin="round" stroke-miterlimit="10" d="
			M409.405,623.392c4.096-0.14,8.201-1.122,11.834-3.038c2.554-1.352,4.845-3.186,6.831-5.279"/>
	</g>
	<g id="POLYLINE_360_">
		
			<path fill="none" stroke="#FB8604" stroke-width="2.75" stroke-linecap="round" stroke-linejoin="round" stroke-miterlimit="10" d="
			M380.146,397.973c-1.337,13.159-3.068,29.808-3.675,42.844c-0.111,2.814-0.227,5.868-0.162,8.658
			c0.122,4.331,0.605,8.697,1.629,12.911c0.505,2.053,1.164,4.114,1.995,6.058c0.379,0.9,0.847,1.809,1.273,2.683
			c0.726,1.536,1.328,3.204,1.828,4.83c1.391,4.585,2.186,9.446,2.766,14.199c1.271,12.283,2.467,25.28,4.91,37.383
			c0.957,4.719,2.248,9.941,3.591,14.565c0.702,2.323,1.559,5.141,2.159,7.467c1.966,7.645,3.189,15.599,4.009,23.445
			c0.153,1.709,2.831,25.552,2.79,26.462c0.118,2.272,0.057,4.581-0.315,6.828c-0.107,0.645-0.255,1.342-0.42,1.975
			c-0.105,0.391-0.232,0.836-0.316,1.234c-0.432,1.945-0.49,4.064,0.359,5.907c0.251,0.568,0.613,1.09,0.992,1.579
			c0.34,0.422,0.719,0.93,1.086,1.33c0.581,0.655,1.21,1.288,1.91,1.817c0.173,0.129,0.357,0.259,0.541,0.373
			c0.174,0.12,0.373,0.202,0.525,0.317c0.413,0.298,0.702,0.637,0.974,1.033c0.796,1.193,1.247,2.585,1.631,3.955
			c0.149,0.506,0.247,1.089,0.437,1.584c0.302,0.816,0.816,1.551,1.472,2.12c0.692,0.605,1.522,1.039,2.383,1.35
			c1.94,0.688,4.03,0.85,6.075,0.859c0,0,12.441,0,12.441,0s0.217-0.002,0.217-0.002s0.213-0.005,0.213-0.005
			s0.105-0.004,0.105-0.004c0.483-0.021,0.972-0.071,1.445-0.167c1.069-0.204,2.177-0.716,2.835-1.591
			c0.423-0.544,0.697-1.192,0.817-1.868c0.137-0.769,0.086-1.563-0.065-2.327c-0.111-0.562-0.273-1.12-0.519-1.638
			c-0.373-0.797-0.899-1.52-1.489-2.169c-0.621-0.682-1.335-1.306-2.069-1.866c-0.786-0.593-1.697-1.185-2.489-1.775
			c-1.611-1.186-3.193-2.504-4.642-3.883c-0.876-0.84-1.77-1.726-2.52-2.679c-1.66-2.081-3.016-4.439-4.233-6.802
			c-0.742-1.477-1.524-3.057-2.107-4.601c-0.819-2.156-1.422-4.437-1.859-6.7c-0.552-2.868-0.865-5.826-1.021-8.741
			c-0.402-10.607-0.382-21.949,0.051-32.552c0.637-11.924,1.221-27.964,1.495-39.986c0.249-9.668,0.764-19.879,2.061-29.462
			c0.658-4.607,1.424-9.358,2.845-13.8c0.581-1.718,1.242-3.488,2.378-4.924c0,0,0.047-0.058,0.047-0.058s0.048-0.056,0.048-0.056
			s0.048-0.055,0.048-0.055s0.048-0.054,0.048-0.054s0.048-0.053,0.048-0.053s0.048-0.051,0.048-0.051s0.048-0.05,0.048-0.05
			s0.048-0.049,0.048-0.049s0.048-0.048,0.048-0.048s0.049-0.047,0.049-0.047l0.197-0.184c0,0,0.203-0.185,0.203-0.185
			s0.208-0.185,0.208-0.185c0.999-0.89,2.101-1.697,3.198-2.459c3.801-2.746,20.524-11.306,24.763-13.728"/>
	</g>
	<g id="POLYLINE_359_">
		
			<path fill="none" stroke="#FB8604" stroke-width="2.75" stroke-linecap="round" stroke-linejoin="round" stroke-miterlimit="10" d="
			M540.711,289.056c2.054-1.724,4.19-3.586,6.758-4.471c1.727-0.625,3.592-0.744,5.414-0.697c3.269,0.084,7.4,0.73,10.668,0.776
			c1.649,0.028,3.324-0.073,4.929-0.471c2.906-0.694,5.553-2.353,7.488-4.624c1.693-1.984,2.943-4.354,3.678-6.854
			c0.19-0.681,0.342-1.386,0.375-2.094c0.019-0.468-0.011-0.994-0.236-1.404c-0.029-0.049-0.035-0.058-0.05-0.081
			c-0.022-0.031-0.033-0.047-0.033-0.047c-0.023-0.03-0.035-0.044-0.035-0.044c-0.024-0.028-0.031-0.035-0.031-0.035
			c-0.025-0.027-0.032-0.033-0.032-0.033c-0.026-0.025-0.033-0.032-0.033-0.032c-0.027-0.024-0.034-0.03-0.034-0.03
			c-0.028-0.023-0.035-0.028-0.035-0.028c-0.022-0.016-0.036-0.027-0.036-0.027c-0.03-0.02-0.045-0.03-0.045-0.03
			c-0.031-0.019-0.047-0.028-0.047-0.028c-0.389-0.212-0.841-0.177-1.241-0.081c-0.68,0.17-1.289,0.546-1.852,0.952
			c-1.154,0.853-2.52,2.123-3.649,3.014c-1.07,0.849-2.214,1.638-3.437,2.25c-2.742,1.362-5.865,1.877-8.909,1.776
			c-1.65-0.075-3.33-0.334-4.844-1.019c-0.623-0.286-1.227-0.663-1.707-1.155c-0.421-0.431-0.747-0.955-0.943-1.525
			c-0.453-1.303-0.228-2.758,0.366-3.98c0.417-0.873,1.038-1.637,1.724-2.314c1.493-1.485,3.575-2.834,5.027-4.36
			c0.524-0.555,1.002-1.173,1.307-1.878c0.277-0.64,0.415-1.339,0.41-2.035c-0.01-1.029-0.338-2.248-1.222-2.848
			c-0.81-0.521-1.804-0.292-2.636,0.037c-0.894,0.364-1.719,0.897-2.495,1.466c-2.809,2.069-6.169,5.793-8.73,8.19
			c-1.511,1.446-3.159,2.827-4.868,4.035c-3.119,2.204-7.171,4.607-10.064,7.094c-4.195,3.512-8.019,7.56-11.537,11.743"/>
	</g>
	<g id="POLYLINE_358_">
		
			<path fill="none" stroke="#FB8604" stroke-width="2.75" stroke-linecap="round" stroke-linejoin="round" stroke-miterlimit="10" d="
			M492.57,271.315c-3.613-0.919-6.944-2.819-9.765-5.236c-1.507-1.311-2.917-2.784-4.005-4.466c-0.688-1.069-1.239-2.243-1.543-3.48
			c-0.243-0.981-0.33-2.004-0.255-3.012c0.129-1.71,0.692-3.362,1.373-4.925c1.045-2.367,2.439-4.627,3.852-6.791
			c0.99-1.529,3.435-4.953,4.224-6.555c0.257-0.541,0.547-1.179,0.465-1.78c-0.005-0.026-0.007-0.039-0.007-0.039
			c-0.005-0.026-0.008-0.039-0.008-0.039c-0.006-0.025-0.01-0.038-0.01-0.038c-0.007-0.025-0.011-0.037-0.011-0.037
			c-0.008-0.024-0.012-0.036-0.012-0.036c-0.009-0.024-0.014-0.036-0.014-0.036c-0.01-0.023-0.015-0.035-0.015-0.035
			c-0.011-0.023-0.016-0.034-0.016-0.034c-0.015-0.029-0.02-0.037-0.02-0.037c-0.015-0.026-0.02-0.034-0.02-0.034
			c-0.016-0.025-0.022-0.033-0.022-0.033c-0.023-0.032-0.03-0.04-0.03-0.04c-0.025-0.031-0.032-0.039-0.032-0.039
			c-0.027-0.03-0.034-0.037-0.034-0.037c-0.029-0.029-0.036-0.036-0.036-0.036c-0.031-0.028-0.038-0.035-0.038-0.035
			c-0.024-0.02-0.032-0.027-0.032-0.027c-0.373-0.287-0.827-0.36-1.266-0.392c-0.548-0.031-1.099,0.036-1.635,0.15
			c-1.279,0.28-2.487,0.839-3.614,1.495c-1.48,0.869-2.845,1.942-4.086,3.126c-1.995,1.897-3.657,4.141-4.953,6.568
			c-1.85,3.348-3.182,7.277-5.176,10.546c-0.643,1.024-1.412,1.997-2.396,2.713c-0.808,0.595-1.753,0.997-2.739,1.181
			c-1.167,0.221-2.374,0.163-3.54-0.031c-1.47-0.248-2.914-0.705-4.292-1.269c-2.406-0.993-4.674-2.339-6.739-3.921
			c-2.302-1.769-4.373-3.868-6.047-6.242c-2.025-2.87-3.514-6.105-4.671-9.412c-1.877-5.366-2.941-11.149-3.861-16.753
			c-0.638-4.008-1.148-8.138-1.062-12.202c0.055-2.825,0.401-5.664,1.074-8.41c1.61-6.466,4.876-12.422,8.475-17.982
			c4.271-6.486,9.245-12.586,14.934-17.884l8.083-7.379c3.142-2.948,6.4-6.127,9.237-9.36c1.434-1.66,2.876-3.39,3.971-5.298
			c0.366-0.662,0.709-1.361,0.843-2.112c0.087-0.499,0.062-1.054-0.18-1.49c-0.018-0.032-0.027-0.047-0.027-0.047
			c-0.019-0.031-0.029-0.046-0.029-0.046c-0.02-0.03-0.03-0.044-0.03-0.044c-0.021-0.028-0.031-0.042-0.031-0.042
			c-0.021-0.027-0.032-0.041-0.032-0.041c-0.022-0.026-0.033-0.039-0.033-0.039c-0.023-0.025-0.034-0.037-0.034-0.037
			c-0.024-0.024-0.035-0.036-0.035-0.036c-0.024-0.023-0.036-0.034-0.036-0.034c-0.025-0.022-0.037-0.032-0.037-0.032
			c-0.025-0.021-0.038-0.031-0.038-0.031c-0.026-0.02-0.039-0.029-0.039-0.029c-0.027-0.018-0.04-0.027-0.04-0.027
			c-0.027-0.017-0.041-0.026-0.041-0.026c-0.028-0.016-0.042-0.024-0.042-0.024c-0.028-0.015-0.042-0.022-0.042-0.022
			c-0.031-0.015-0.046-0.022-0.046-0.022c-0.031-0.013-0.047-0.02-0.047-0.02c-0.032-0.012-0.048-0.018-0.048-0.018
			c-0.316-0.107-0.628-0.09-0.938-0.029c-0.388,0.077-0.768,0.226-1.13,0.384c-1.042,0.463-2.11,1.085-3.094,1.671
			c-2.192,1.324-4.728,3.04-6.849,4.495c-8.596,5.974-17.445,12.254-25.186,19.308c-2.436,2.218-4.864,4.616-7.086,7.048
			c-3.183,3.457-8.088,9.537-11.17,13.149c-1.711,1.962-3.52,3.999-5.518,5.672c-1.185,0.983-2.486,1.883-3.952,2.387
			c-1.15,0.4-2.423,0.492-3.598,0.143c-0.948-0.273-1.813-0.79-2.569-1.417c-1.509-1.263-2.634-2.969-3.281-4.822
			c-0.394-1.138-0.602-2.347-0.59-3.552c0.02-1.976,0.548-3.92,1.245-5.757c1.496-3.984,4.252-8.141,6.384-11.826
			c1.374-2.364,2.571-4.883,3.13-7.573c0.342-1.581,0.492-3.223,0.534-4.838c0.04-1.79-0.041-3.622-0.3-5.394
			c-0.124-0.82-0.286-1.652-0.553-2.439c-0.162-0.462-0.368-0.964-0.707-1.311c-0.032-0.031-0.048-0.046-0.048-0.046
			c-0.016-0.014-0.033-0.028-0.033-0.028c-0.03-0.024-0.044-0.035-0.044-0.035c-0.028-0.02-0.042-0.03-0.042-0.03
			c-0.028-0.018-0.035-0.023-0.035-0.023c-0.028-0.017-0.036-0.021-0.036-0.021c-0.029-0.015-0.036-0.019-0.036-0.019
			c-0.029-0.014-0.036-0.017-0.036-0.017c-0.029-0.012-0.036-0.015-0.036-0.015c-0.029-0.01-0.037-0.013-0.037-0.013
			c-0.03-0.009-0.037-0.011-0.037-0.011c-0.03-0.007-0.037-0.009-0.037-0.009c-0.03-0.006-0.037-0.007-0.037-0.007
			c-0.03-0.005-0.038-0.005-0.038-0.005c-0.03-0.003-0.038-0.004-0.038-0.004c-0.03-0.002-0.038-0.002-0.038-0.002
			c-0.031,0-0.038,0-0.038,0c-0.031,0.001-0.038,0.002-0.038,0.002c-0.031,0.002-0.046,0.004-0.046,0.004
			c-0.031,0.004-0.046,0.007-0.046,0.007c-0.031,0.006-0.047,0.009-0.047,0.009c-0.031,0.007-0.047,0.011-0.047,0.011
			c-0.031,0.009-0.047,0.014-0.047,0.014c-0.031,0.01-0.047,0.016-0.047,0.016c-0.031,0.012-0.047,0.018-0.047,0.018
			c-0.032,0.013-0.047,0.02-0.047,0.02c-0.032,0.015-0.047,0.023-0.047,0.023c-0.341,0.178-0.571,0.413-0.801,0.68
			c-0.258,0.307-0.479,0.653-0.675,1.002c-0.589,1.067-1.019,2.251-1.424,3.398c-0.881,2.624-2.029,6.237-3.11,8.742
			c-1.231,2.938-2.714,5.888-4.298,8.651c-3.252,5.809-8.331,12.211-11.853,17.871l-1.9,3.195c-1.059,1.739-2.259,3.466-3.912,4.69
			c-1.422,1.069-3.128,1.705-4.854,2.087c-6.371,1.382-15.322-0.151-19.133-5.928c-0.565-0.875-0.986-1.85-1.199-2.871
			c-0.209-0.988-0.21-2.013-0.096-3.014c0.185-1.598,0.647-3.175,1.139-4.703c0.961-2.917,2.205-6.188,2.824-9.191
			c1.019-4.896,1.04-9.987,0.443-14.939c-0.447-3.453-1.142-6.936-2.392-10.195c-0.217-0.539-0.462-1.093-0.758-1.595
			c0,0-0.055-0.091-0.055-0.091s-0.027-0.044-0.027-0.044c-0.041-0.064-0.091-0.145-0.136-0.207
			c-0.041-0.057-0.091-0.13-0.136-0.185c-0.115-0.15-0.264-0.305-0.39-0.401c-0.027-0.02-0.04-0.029-0.04-0.029
			c-0.027-0.018-0.04-0.027-0.04-0.027c-0.026-0.017-0.04-0.025-0.04-0.025c-0.026-0.015-0.04-0.022-0.04-0.022
			c-0.026-0.013-0.039-0.02-0.039-0.02c-0.026-0.012-0.039-0.017-0.039-0.017c-0.026-0.01-0.039-0.015-0.039-0.015
			c-0.026-0.009-0.039-0.012-0.039-0.012c-0.026-0.007-0.039-0.01-0.039-0.01c-0.026-0.005-0.039-0.007-0.039-0.007
			c-0.026-0.003-0.039-0.005-0.039-0.005c-0.032-0.002-0.04-0.002-0.04-0.002c-0.031,0-0.039,0.001-0.039,0.001
			c-0.031,0.002-0.039,0.003-0.039,0.003c-0.031,0.005-0.039,0.006-0.039,0.006c-0.031,0.007-0.039,0.009-0.039,0.009
			c-0.031,0.009-0.039,0.011-0.039,0.011c-0.031,0.011-0.038,0.014-0.038,0.014c-0.031,0.013-0.038,0.016-0.038,0.016
			c-0.03,0.015-0.038,0.019-0.038,0.019c-0.03,0.017-0.038,0.021-0.038,0.021c-0.03,0.018-0.037,0.023-0.037,0.023
			c-0.03,0.02-0.037,0.026-0.037,0.026c-0.029,0.022-0.044,0.034-0.044,0.034c-0.029,0.024-0.044,0.037-0.044,0.037
			c-0.029,0.026-0.043,0.04-0.043,0.04c-0.029,0.029-0.043,0.043-0.043,0.043c-0.357,0.394-0.544,0.866-0.714,1.356
			c-0.312,0.944-0.433,1.95-0.514,2.938c-0.154,2.043-0.177,4.585-0.496,6.602c-0.205,1.405-0.57,2.797-1.086,4.12
			c-1.22,3.18-3.471,6.769-5.061,9.789c-1.449,2.677-2.661,5.54-3.584,8.44c-2.048,6.187-3.617,13.699-7.887,18.781
			c-3.541,4.256-8.734,7.036-14.196,7.833c-7.746,1.127-15.807-1.823-21.841-6.625c-2.689-2.146-4.989-4.771-6.94-7.597
			c-3.613-5.129-7.242-13.318-10.063-18.972c-1.264-2.468-2.599-5.027-4.245-7.262c-0.577-0.771-1.208-1.524-1.943-2.15
			c-0.485-0.41-1.029-0.768-1.633-0.974c-0.389-0.136-0.859-0.204-1.254-0.144c-0.552,0.071-1.034,0.399-1.322,0.835
			c-0.266,0.396-0.399,0.831-0.494,1.29c-0.182,0.932-0.172,1.9-0.125,2.845c0.245,4.312,1.999,11.526,2.801,15.83
			c1.126,6.003,1.979,13.265,4.596,18.788c1.313,2.886,3.145,5.524,5.199,7.931c3.508,4.161,8.997,9.208,12.688,13.218
			c1.651,1.806,3.289,3.707,4.563,5.803c2.268,3.702,2.738,7.752,0.248,11.485c-1.017,1.529-2.396,2.79-3.849,3.897
			c-2.677,2.059-7.315,4.577-10.248,6.328c-1.999,1.184-4.134,2.583-6.036,3.919c-4.42,3.083-11,8.284-15.795,10.59
			c-1.386,0.696-3.337,1.446-4.693,2.196c-0.296,0.171-0.641,0.394-0.852,0.647c-0.02,0.024-0.029,0.037-0.029,0.037
			c-0.018,0.024-0.027,0.037-0.027,0.037c-0.017,0.024-0.025,0.037-0.025,0.037c-0.015,0.024-0.022,0.037-0.022,0.037
			c-0.014,0.025-0.02,0.037-0.02,0.037c-0.012,0.025-0.018,0.037-0.018,0.037c-0.011,0.025-0.015,0.037-0.015,0.037
			c-0.009,0.025-0.013,0.037-0.013,0.037c-0.007,0.025-0.011,0.037-0.011,0.037c-0.006,0.025-0.008,0.037-0.008,0.037
			c-0.004,0.025-0.006,0.038-0.006,0.038c-0.002,0.025-0.003,0.038-0.003,0.038c-0.001,0.025-0.001,0.038-0.001,0.038
			c0.001,0.023,0.002,0.034,0.002,0.034c0.002,0.023,0.004,0.034,0.004,0.034c0.003,0.023,0.006,0.034,0.006,0.034
			c0.005,0.023,0.008,0.034,0.008,0.034c0.006,0.023,0.01,0.035,0.01,0.035c0.007,0.023,0.011,0.035,0.011,0.035
			c0.009,0.023,0.013,0.035,0.013,0.035c0.01,0.023,0.015,0.035,0.015,0.035c0.011,0.023,0.017,0.035,0.017,0.035
			c0.012,0.023,0.019,0.035,0.019,0.035c0.014,0.023,0.021,0.035,0.021,0.035c0.015,0.023,0.023,0.035,0.023,0.035
			c0.343,0.474,0.879,0.749,1.381,0.99c0.689,0.314,1.425,0.534,2.164,0.693c3.462,0.743,7.045-0.031,10.335-1.166
			c4.616-1.624,8.986-4.085,13.165-6.608c6.067-3.671,14.024-9.178,20.51-11.871c1.934-0.789,3.967-1.429,6.049-1.664
			c0.739-0.077,1.497-0.105,2.234,0.005c0.475,0.073,0.993,0.219,1.37,0.515c0.031,0.025,0.045,0.037,0.045,0.037
			c0.029,0.025,0.043,0.038,0.043,0.038c0.028,0.026,0.042,0.039,0.042,0.039c0.027,0.027,0.04,0.04,0.04,0.04
			c0.025,0.028,0.038,0.042,0.038,0.042c0.024,0.028,0.034,0.041,0.034,0.041c0.02,0.026,0.03,0.039,0.03,0.039
			c0.019,0.027,0.028,0.04,0.028,0.04c0.018,0.027,0.027,0.041,0.027,0.041c0.017,0.028,0.025,0.042,0.025,0.042
			c0.016,0.028,0.024,0.043,0.024,0.043c0.015,0.029,0.022,0.044,0.022,0.044c0.014,0.03,0.02,0.044,0.02,0.044
			c0.013,0.03,0.019,0.045,0.019,0.045c0.012,0.031,0.017,0.046,0.017,0.046c0.011,0.031,0.016,0.047,0.016,0.047
			c0.104,0.344,0.08,0.673,0.008,1.01c-0.09,0.399-0.254,0.781-0.444,1.142c-0.477,0.893-1.12,1.696-1.792,2.45
			c-1.309,1.452-2.841,2.771-4.338,4.025l-7.892,6.355c-1.475,1.239-2.999,2.522-4.261,3.982c-0.455,0.547-0.909,1.129-1.141,1.81
			c0,0-0.013,0.04-0.013,0.04l-0.012,0.04l-0.011,0.04l-0.01,0.039l-0.009,0.039c-0.087,0.379-0.031,0.772,0.172,1.074
			c0.022,0.032,0.029,0.042,0.029,0.042c0.023,0.031,0.031,0.042,0.031,0.042c0.024,0.031,0.033,0.041,0.033,0.041
			c0.265,0.31,0.634,0.507,0.989,0.624c0.402,0.132,0.806,0.193,1.226,0.214c1.547,0.056,3.07-0.383,4.521-0.876
			c3.166-1.125,6.205-2.754,9.141-4.376c2.391-1.317,5.798-3.438,8.323-4.372c1.584-0.601,3.286-0.94,4.983-0.855
			c1.487,0.068,2.954,0.436,4.363,0.902c2.303,0.766,4.647,1.89,6.832,2.955c3.493,1.77,9.772,4.962,13.277,6.535
			c3.15,1.432,6.571,2.802,9.842,3.94c11.926,4.094,24.423,6.775,36.903,8.498c4.819,0.643,9.89,1.149,14.749,1.334
			c3.335,0.117,6.777,0.107,10.094-0.29c1.678-0.199,3.412-0.508,5.055-0.906c2.583-0.609,6.084-1.797,8.57-2.554"/>
	</g>
	<g id="POLYLINE_357_">
		
			<path fill="none" stroke="#FB8604" stroke-width="2.75" stroke-linecap="round" stroke-linejoin="round" stroke-miterlimit="10" d="
			M494.895,278.756c-0.688-1.148-1.377-2.346-1.778-3.628c-0.398-1.234-0.55-2.541-0.547-3.835c0.006-1.842,0.289-3.691,0.813-5.456
			c0.526-1.753,1.31-3.45,2.41-4.918c0.991-1.34,2.284-2.443,3.725-3.276c1.51-0.867,3.171-1.531,4.901-1.776
			c0.354-0.045,0.715-0.07,1.071-0.047c0.288,0.019,0.599,0.073,0.839,0.208c0.032,0.019,0.047,0.028,0.047,0.028
			c0.03,0.02,0.044,0.03,0.044,0.03c0.027,0.021,0.041,0.032,0.041,0.032c0.029,0.025,0.036,0.032,0.036,0.032
			c0.029,0.03,0.036,0.037,0.036,0.037c0.026,0.031,0.033,0.039,0.033,0.039c0.018,0.024,0.024,0.033,0.024,0.033
			c0.016,0.025,0.022,0.034,0.022,0.034c0.015,0.026,0.019,0.035,0.019,0.035c0.013,0.027,0.017,0.036,0.017,0.036
			c0.012,0.028,0.015,0.037,0.015,0.037c0.01,0.029,0.013,0.039,0.013,0.039c0.009,0.03,0.011,0.04,0.011,0.04
			c0.007,0.031,0.009,0.041,0.009,0.041c0.006,0.031,0.007,0.042,0.007,0.042c0.056,0.478-0.151,0.926-0.335,1.34
			c-0.405,0.874-1.53,2.596-2.037,3.447c-1.302,2.168-2.512,4.524-2.683,7.09c-0.117,1.887,0.324,3.813,1.251,5.46
			c0.507,0.887,1.178,1.704,2.038,2.268c2.002,1.338,4.548,0.639,6.397-0.638c1.297-0.888,2.38-2.08,3.206-3.413
			c1.154-1.882,1.832-4.033,2.443-6.141c0.336-1.149,0.827-3.13,1.293-4.219c0.129-0.295,0.29-0.623,0.501-0.853
			c0.03-0.031,0.045-0.046,0.045-0.046c0.03-0.028,0.045-0.042,0.045-0.042c0.031-0.026,0.046-0.038,0.046-0.038
			c0.031-0.023,0.047-0.033,0.047-0.033c0.029-0.019,0.037-0.023,0.037-0.023c0.03-0.017,0.037-0.02,0.037-0.02
			c0.03-0.014,0.038-0.018,0.038-0.018c0.03-0.012,0.038-0.015,0.038-0.015c0.031-0.01,0.038-0.013,0.038-0.013
			c0.031-0.008,0.039-0.01,0.039-0.01c0.031-0.006,0.039-0.008,0.039-0.008c0.031-0.004,0.039-0.005,0.039-0.005
			c0.032-0.002,0.04-0.003,0.04-0.003c0.032,0,0.04,0,0.04,0c0.032,0.002,0.04,0.002,0.04,0.002c0.032,0.003,0.04,0.005,0.04,0.005
			c0.024,0.004,0.033,0.005,0.033,0.005c0.024,0.005,0.033,0.007,0.033,0.007c0.025,0.006,0.033,0.008,0.033,0.008
			c0.025,0.007,0.033,0.01,0.033,0.01c0.025,0.008,0.033,0.011,0.033,0.011c0.472,0.184,0.808,0.62,1.09,1.011
			c0.498,0.724,0.868,1.535,1.17,2.358c0.744,2.086,1.077,4.347,0.821,6.554c-0.107,0.883-0.321,1.761-0.669,2.58
			c-0.536,1.276-1.344,2.427-2.194,3.511c-0.725,0.922-2.074,2.494-2.679,3.469c-0.305,0.48-0.572,0.993-0.743,1.536
			c-0.364,1.114-0.332,2.312-0.204,3.464l0.162,1.344"/>
	</g>
	<g id="POLYLINE_356_">
		
			<path fill="none" stroke="#FB8604" stroke-width="2.75" stroke-linecap="round" stroke-linejoin="round" stroke-miterlimit="10" d="
			M501.229,293.08c-2.827-3.1-6.119-5.918-10.054-7.486c-2.009-0.816-4.15-1.32-6.292-1.636c-2.959-0.429-6-0.507-8.983-0.329
			c-1.533,0.093-3.132,0.265-4.649,0.504c-1.812,0.268-5.807,1.146-7.636,1.517c-2.89,0.572-5.87,0.948-8.817,0.707
			c-5.957-0.468-11.717-3.013-16.13-7.032c-4.13-3.735-6.92-8.732-8.851-13.904c-0.768-2.127-1.435-4.332-1.679-6.588
			c-0.066-0.768-0.114-1.604,0.132-2.344l0.012-0.034c0,0,0.013-0.033,0.013-0.033s0.013-0.032,0.013-0.032
			c0.014-0.032,0.028-0.062,0.028-0.062c0.014-0.03,0.029-0.059,0.029-0.059c0.015-0.029,0.031-0.056,0.031-0.056
			c0.016-0.027,0.033-0.053,0.033-0.053c0.017-0.025,0.034-0.05,0.034-0.05c0.018-0.024,0.036-0.047,0.036-0.047
			c0.019-0.022,0.038-0.044,0.038-0.044c0.02-0.021,0.04-0.04,0.04-0.04c0.023-0.021,0.034-0.031,0.034-0.031
			c0.023-0.019,0.035-0.029,0.035-0.029c0.024-0.018,0.036-0.026,0.036-0.026c0.025-0.016,0.037-0.024,0.037-0.024
			c0.026-0.015,0.039-0.022,0.039-0.022c0.026-0.014,0.04-0.02,0.04-0.02c0.027-0.012,0.041-0.018,0.041-0.018
			c0.028-0.011,0.042-0.016,0.042-0.016c0.028-0.009,0.043-0.014,0.043-0.014c0.029-0.008,0.044-0.012,0.044-0.012
			c0.03-0.007,0.045-0.01,0.045-0.01c0.03-0.005,0.046-0.008,0.046-0.008c0.031-0.004,0.047-0.006,0.047-0.006
			c0.336-0.027,0.629,0.066,0.929,0.186c0.387,0.162,0.753,0.385,1.098,0.623c1.711,1.213,3.136,2.814,4.46,4.428l3.171,4.007
			c1.354,1.656,2.837,3.246,4.546,4.542c2.821,2.133,6.124,3.587,9.51,4.564c3.537,1.005,7.265,1.483,10.938,1.197
			c3.161-0.236,6.275-1.031,9.24-2.134"/>
	</g>
	<g id="POLYLINE_355_">
		
			<path fill="none" stroke="#FB8604" stroke-width="2.75" stroke-linecap="round" stroke-linejoin="round" stroke-miterlimit="10" d="
			M479.882,317.304l-2.239,3.223c-4.757,6.798-8.716,8.902-16.415,11.445c-2.38,0.764-7.937,2.478-10.199,3.306
			c-2.051,0.748-4.123,1.584-6.004,2.7c-1.027,0.61-2.002,1.327-2.849,2.172c-0.835,0.829-1.546,1.786-2.104,2.82
			c-0.949,1.752-1.473,3.709-1.803,5.664c-0.511,3.077-0.602,6.343-0.679,9.461c-0.07,3.932-0.01,8.189,0.226,12.115
			c0.143,2.174,0.329,4.447,0.717,6.592c0.124,0.644,0.266,1.326,0.475,1.95c0.112,0.327,0.239,0.662,0.426,0.955l0.022,0.033
			c0.022,0.032,0.044,0.063,0.044,0.063c0.022,0.03,0.045,0.059,0.045,0.059c0.022,0.027,0.045,0.054,0.045,0.054
			c0.023,0.025,0.046,0.049,0.046,0.049c0.023,0.023,0.046,0.044,0.046,0.044c0.023,0.02,0.047,0.039,0.047,0.039
			c0.024,0.018,0.047,0.034,0.047,0.034c0.024,0.015,0.048,0.029,0.048,0.029c0.024,0.013,0.049,0.024,0.049,0.024
			c0.025,0.01,0.049,0.019,0.049,0.019c0.025,0.008,0.05,0.014,0.05,0.014c0.025,0.005,0.05,0.009,0.05,0.009
			c0.025,0.002,0.051,0.003,0.051,0.003c0.026,0,0.052-0.002,0.052-0.002c0.026-0.003,0.052-0.007,0.052-0.007
			c0.026-0.006,0.034-0.008,0.034-0.008c0.026-0.007,0.034-0.01,0.034-0.01c0.026-0.009,0.035-0.012,0.035-0.012
			c0.026-0.01,0.035-0.014,0.035-0.014c0.026-0.012,0.035-0.016,0.035-0.016c0.026-0.013,0.035-0.018,0.035-0.018
			c0.409-0.234,0.748-0.675,1.072-1.007c0.089-0.095,0.237-0.24,0.324-0.307c0.03-0.024,0.045-0.035,0.045-0.035
			c0.03-0.021,0.044-0.031,0.044-0.031c0.029-0.018,0.036-0.023,0.036-0.023c0.029-0.016,0.036-0.02,0.036-0.02
			c0.028-0.014,0.035-0.017,0.035-0.017c0.027-0.011,0.034-0.013,0.034-0.013c0.027-0.008,0.033-0.01,0.033-0.01
			c0.026-0.005,0.032-0.006,0.032-0.006c0.032-0.003,0.038-0.003,0.038-0.003c0.03,0.002,0.036,0.003,0.036,0.003
			c0.029,0.007,0.035,0.009,0.035,0.009c0.028,0.012,0.034,0.016,0.034,0.016c0.032,0.022,0.049,0.036,0.049,0.036
			c0.016,0.016,0.031,0.034,0.031,0.034c0.015,0.02,0.03,0.042,0.03,0.042c0.014,0.023,0.028,0.049,0.028,0.049
			c0.014,0.027,0.027,0.056,0.027,0.056c0.013,0.031,0.025,0.063,0.025,0.063s0.012,0.034,0.012,0.034l0.012,0.036l0.011,0.037
			l0.011,0.039c0.077,0.294,0.11,0.606,0.135,0.909c0.087,1.178,0.045,2.459,0.013,3.641c-0.171,5.003-0.837,12.636-0.431,17.552
			c0.079,0.737,0.17,1.494,0.437,2.19c0,0,0.021,0.051,0.021,0.051l0.021,0.049l0.022,0.048l0.022,0.046l0.023,0.044l0.023,0.043
			l0.024,0.041l0.024,0.04l0.025,0.038c0,0,0.025,0.036,0.025,0.036l0.025,0.034l0.026,0.033c0.026,0.031,0.053,0.06,0.053,0.06
			c0.028,0.028,0.038,0.037,0.038,0.037c0.029,0.026,0.039,0.034,0.039,0.034c0.03,0.024,0.04,0.031,0.04,0.031
			c0.03,0.021,0.041,0.028,0.041,0.028c0.031,0.019,0.041,0.025,0.041,0.025c0.032,0.017,0.042,0.022,0.042,0.022
			c0.032,0.015,0.043,0.019,0.043,0.019c0.022,0.009,0.033,0.013,0.033,0.013c0.022,0.008,0.033,0.011,0.033,0.011
			c0.022,0.007,0.033,0.01,0.033,0.01c0.022,0.006,0.034,0.009,0.034,0.009c0.023,0.005,0.034,0.007,0.034,0.007
			c0.023,0.004,0.034,0.006,0.034,0.006c0.656,0.079,1.247-0.322,1.883-0.354c0.07-0.003,0.127,0,0.173,0.005
			c0.022,0.003,0.034,0.004,0.034,0.004c0.022,0.004,0.033,0.005,0.033,0.005c0.022,0.004,0.033,0.007,0.033,0.007
			c0.022,0.005,0.032,0.008,0.032,0.008c0.032,0.009,0.043,0.013,0.043,0.013c0.031,0.011,0.042,0.015,0.042,0.015
			c0.031,0.013,0.041,0.018,0.041,0.018c0.03,0.015,0.04,0.021,0.04,0.021c0.03,0.017,0.039,0.023,0.039,0.023
			c0.029,0.019,0.038,0.026,0.038,0.026c0.028,0.022,0.038,0.029,0.038,0.029c0.045,0.039,0.048,0.043,0.073,0.068
			c0.026,0.029,0.052,0.06,0.052,0.06l0.025,0.033l0.025,0.035l0.024,0.037l0.024,0.038l0.023,0.04l0.023,0.042l0.022,0.044
			l0.022,0.045l0.021,0.047l0.021,0.049c0,0,0.02,0.05,0.02,0.05l0.02,0.052c0.242,0.695,0.31,1.444,0.369,2.173
			c0.25,4.662-0.329,10.922-0.402,15.612c-0.034,2.13-0.056,4.35,0.214,6.464c0.113,0.798,0.257,1.614,0.594,2.352l0.029,0.059
			l0.029,0.058l0.03,0.056l0.03,0.054l0.031,0.053l0.031,0.051l0.032,0.049l0.033,0.048l0.033,0.046c0,0,0.034,0.044,0.034,0.044
			l0.035,0.042l0.035,0.041l0.036,0.039l0.036,0.037l0.037,0.035c0.481,0.449,1.154,0.425,1.744,0.298
			c0.597-0.124,1.282-0.393,1.874-0.545c0.335-0.084,0.72-0.157,1.055-0.078c0.032,0.008,0.048,0.013,0.048,0.013
			c0.031,0.01,0.047,0.015,0.047,0.015c0.031,0.011,0.046,0.017,0.046,0.017c0.03,0.013,0.044,0.019,0.044,0.019
			c0.029,0.014,0.043,0.022,0.043,0.022c0.028,0.016,0.042,0.024,0.042,0.024c0.027,0.018,0.041,0.027,0.041,0.027
			c0.027,0.019,0.04,0.029,0.04,0.029c0.026,0.021,0.038,0.032,0.038,0.032c0.013,0.011,0.034,0.032,0.034,0.032
			c0.021,0.021,0.042,0.044,0.042,0.044c0.02,0.023,0.04,0.048,0.04,0.048c0.02,0.025,0.039,0.051,0.039,0.051
			c0.019,0.027,0.037,0.055,0.037,0.055c0.018,0.029,0.035,0.058,0.035,0.058c0.017,0.03,0.034,0.062,0.034,0.062
			c0.016,0.032,0.032,0.065,0.032,0.065l0.015,0.034l0.015,0.035c0.173,0.42,0.237,0.88,0.281,1.329
			c0.181,2.291-0.19,5.558-0.264,7.871c-0.042,1.273-0.071,2.594,0.114,3.856c0.086,0.549,0.211,1.107,0.479,1.598l0.022,0.038
			l0.022,0.037l0.023,0.037l0.023,0.036l0.024,0.035l0.024,0.034l0.025,0.033l0.025,0.033c0.025,0.032,0.051,0.063,0.051,0.063
			c0.026,0.03,0.053,0.059,0.053,0.059c0.027,0.028,0.055,0.056,0.055,0.056c0.028,0.026,0.057,0.052,0.057,0.052
			c0.029,0.025,0.059,0.048,0.059,0.048c0.024,0.018,0.049,0.036,0.049,0.036c0.025,0.017,0.05,0.034,0.05,0.034
			c0.025,0.016,0.051,0.031,0.051,0.031c0.026,0.015,0.052,0.029,0.052,0.029c0.027,0.014,0.054,0.027,0.054,0.027
			c0.027,0.013,0.055,0.025,0.055,0.025c0.028,0.012,0.056,0.023,0.056,0.023c0.028,0.011,0.057,0.021,0.057,0.021
			c0.029,0.01,0.058,0.019,0.058,0.019c0.03,0.009,0.059,0.017,0.059,0.017c0.496,0.123,0.979,0.055,1.466-0.055
			c0.849-0.204,1.672-0.57,2.463-0.935c0.844-0.396,2.523-1.248,3.381-1.556c0.47-0.169,1.012-0.341,1.504-0.295
			c0.025,0.003,0.051,0.006,0.051,0.006c0.025,0.004,0.049,0.008,0.049,0.008c0.024,0.005,0.048,0.01,0.048,0.01
			c0.024,0.006,0.047,0.012,0.047,0.012c0.023,0.007,0.036,0.011,0.036,0.011c0.027,0.009,0.04,0.014,0.04,0.014
			c0.026,0.01,0.039,0.015,0.039,0.015c0.025,0.011,0.038,0.017,0.038,0.017c0.025,0.012,0.037,0.018,0.037,0.018
			c0.024,0.013,0.036,0.019,0.036,0.019c0.023,0.014,0.035,0.021,0.035,0.021c0.023,0.015,0.034,0.022,0.034,0.022
			c0.022,0.015,0.033,0.023,0.033,0.023c0.032,0.025,0.043,0.033,0.043,0.033c0.031,0.026,0.041,0.035,0.041,0.035
			c0.03,0.028,0.04,0.037,0.04,0.037c0.029,0.029,0.038,0.039,0.038,0.039c0.028,0.031,0.037,0.041,0.037,0.041
			c0.26,0.315,0.375,0.649,0.503,1.014c0.139,0.404,0.285,0.978,0.514,1.332c0.021,0.031,0.028,0.041,0.028,0.041
			c0.021,0.029,0.029,0.039,0.029,0.039c0.022,0.028,0.03,0.037,0.03,0.037c0.023,0.026,0.031,0.035,0.031,0.035
			c0.024,0.025,0.032,0.033,0.032,0.033c0.025,0.023,0.033,0.031,0.033,0.031c0.026,0.021,0.034,0.028,0.034,0.028
			c0.026,0.02,0.035,0.026,0.035,0.026c0.027,0.018,0.037,0.023,0.037,0.023c0.028,0.016,0.038,0.021,0.038,0.021
			c0.019,0.009,0.038,0.018,0.038,0.018c0.02,0.008,0.04,0.015,0.04,0.015c0.02,0.007,0.041,0.013,0.041,0.013
			c0.021,0.005,0.042,0.01,0.042,0.01c0.022,0.004,0.043,0.008,0.043,0.008c0.022,0.003,0.045,0.006,0.045,0.006
			c0.023,0.002,0.046,0.003,0.046,0.003c0.023,0.001,0.047,0.001,0.047,0.001c0.024,0,0.048-0.001,0.048-0.001
			c0.025-0.002,0.05-0.004,0.05-0.004c0.025-0.003,0.051-0.006,0.051-0.006c0.026-0.004,0.052-0.008,0.052-0.008
			c0.455-0.089,0.813-0.296,1.197-0.521c1.417-0.862,3.887-3.01,5.216-4.053c1.484-1.153,3.022-2.328,4.777-3.037
			c1.286-0.53,2.821-0.745,4.191-0.971c0.942-0.165,1.894-0.405,2.72-0.901c1.07-0.625,1.85-1.629,2.505-2.661
			c1.572-2.451,2.857-5.904,4.227-8.475c0.213-0.372,0.452-0.795,0.766-1.081c0.017-0.015,0.034-0.029,0.034-0.029
			c0.017-0.013,0.034-0.026,0.034-0.026c0.017-0.012,0.034-0.023,0.034-0.023c0.017-0.01,0.033-0.02,0.033-0.02
			c0.016-0.009,0.033-0.017,0.033-0.017c0.032-0.015,0.048-0.021,0.048-0.021c0.032-0.01,0.047-0.014,0.047-0.014
			c0.031-0.006,0.046-0.007,0.046-0.007c0.03-0.001,0.046-0.001,0.046-0.001c0.03,0.003,0.038,0.005,0.038,0.005
			c0.03,0.008,0.038,0.01,0.038,0.01c0.03,0.012,0.037,0.015,0.037,0.015c0.029,0.016,0.037,0.02,0.037,0.02
			c0.029,0.02,0.036,0.025,0.036,0.025c0.028,0.023,0.036,0.029,0.036,0.029c0.028,0.027,0.035,0.034,0.035,0.034
			c0.028,0.03,0.035,0.038,0.035,0.038c0.021,0.025,0.027,0.033,0.027,0.033c0.31,0.419,0.515,1.073,0.723,1.546
			c0.143,0.334,0.315,0.716,0.541,0.991c0.026,0.03,0.034,0.04,0.034,0.04c0.026,0.029,0.035,0.038,0.035,0.038
			c0.027,0.027,0.036,0.036,0.036,0.036c0.027,0.025,0.036,0.033,0.036,0.033c0.028,0.023,0.037,0.031,0.037,0.031
			c0.028,0.022,0.038,0.028,0.038,0.028c0.029,0.02,0.038,0.026,0.038,0.026c0.029,0.017,0.039,0.023,0.039,0.023
			c0.018,0.01,0.036,0.018,0.036,0.018c0.018,0.008,0.037,0.016,0.037,0.016c0.019,0.007,0.038,0.014,0.038,0.014
			c0.019,0.006,0.038,0.011,0.038,0.011c0.019,0.005,0.039,0.009,0.039,0.009c0.02,0.004,0.039,0.007,0.039,0.007
			c0.02,0.002,0.04,0.004,0.04,0.004c0.02,0.001,0.04,0.002,0.04,0.002c0.02,0,0.041,0,0.041,0c0.021-0.001,0.041-0.002,0.041-0.002
			c0.021-0.002,0.042-0.005,0.042-0.005c0.021-0.003,0.043-0.007,0.043-0.007c0.021-0.004,0.043-0.009,0.043-0.009
			c0.022-0.005,0.044-0.011,0.044-0.011c0.022-0.006,0.044-0.013,0.044-0.013c0.022-0.007,0.044-0.015,0.044-0.015
			c0.022-0.008,0.045-0.017,0.045-0.017c0.523-0.234,0.886-0.637,1.254-1.051c0.646-0.76,1.197-1.628,1.706-2.484
			c1.408-2.42,2.576-5.011,3.565-7.629c0.308-0.82,1.187-3.321,1.531-4.095c0.099-0.225,0.226-0.494,0.36-0.687
			c0.025-0.036,0.041-0.057,0.05-0.068c0.025-0.03,0.033-0.04,0.033-0.04c0.024-0.027,0.032-0.035,0.032-0.035
			c0.032-0.031,0.04-0.038,0.04-0.038c0.032-0.025,0.039-0.03,0.039-0.03c0.031-0.019,0.039-0.023,0.039-0.023
			c0.031-0.013,0.038-0.015,0.038-0.015c0.03-0.007,0.038-0.008,0.038-0.008c0.03-0.001,0.037,0,0.037,0
			c0.029,0.006,0.037,0.008,0.037,0.008c0.029,0.012,0.036,0.016,0.036,0.016c0.029,0.019,0.036,0.024,0.036,0.024
			c0.029,0.026,0.035,0.032,0.035,0.032c0.028,0.031,0.033,0.038,0.033,0.038c0.022,0.029,0.027,0.036,0.027,0.036
			c0.144,0.218,0.217,0.436,0.31,0.672c0.199,0.541,0.42,1.195,0.676,1.707c0.237,0.477,0.565,0.987,1.029,1.227
			c0.027,0.013,0.054,0.026,0.054,0.026c0.027,0.012,0.055,0.024,0.055,0.024c0.028,0.011,0.056,0.022,0.056,0.022
			c0.028,0.01,0.057,0.019,0.057,0.019c0.029,0.009,0.058,0.017,0.058,0.017c0.029,0.008,0.059,0.015,0.059,0.015
			c0.03,0.006,0.06,0.012,0.06,0.012c0.03,0.005,0.061,0.01,0.061,0.01c0.031,0.004,0.062,0.008,0.062,0.008
			c0.031,0.003,0.063,0.005,0.063,0.005c0.032,0.002,0.063,0.003,0.063,0.003c0.642,0.014,1.244-0.261,1.788-0.576
			c1.342-0.814,2.441-1.981,3.428-3.187c2.248-2.803,3.896-6.09,4.812-9.564c0.397-1.47,0.704-3.031,0.954-4.533
			c0.259-1.557,0.604-4.244,0.986-5.758c0.142-0.528,0.316-1.118,0.653-1.543c0.017-0.021,0.035-0.041,0.035-0.041
			c0.018-0.02,0.035-0.039,0.035-0.039c0.018-0.018,0.036-0.036,0.036-0.036c0.018-0.017,0.037-0.034,0.037-0.034
			c0.019-0.016,0.037-0.032,0.037-0.032c0.019-0.015,0.038-0.03,0.038-0.03c0.019-0.014,0.039-0.027,0.039-0.027
			c0.02-0.013,0.04-0.025,0.04-0.025c0.029-0.017,0.038-0.021,0.038-0.021c0.028-0.014,0.037-0.018,0.037-0.018
			c0.028-0.013,0.038-0.017,0.038-0.017c0.029-0.011,0.038-0.015,0.038-0.015c0.029-0.01,0.039-0.013,0.039-0.013
			c0.029-0.009,0.039-0.011,0.039-0.011c0.03-0.008,0.04-0.01,0.04-0.01c0.03-0.006,0.041-0.008,0.041-0.008
			c0.48-0.077,0.977,0.094,1.443,0.168c0.471,0.09,1.014,0.107,1.442-0.092c0.75-0.353,1.236-1.044,1.66-1.708
			c0.634-1.038,1.104-2.182,1.515-3.324c1.323-3.821,2.108-7.849,2.527-11.866c0.266-2.393,0.315-5.991,0.433-8.416
			c0.034-0.588,0.084-1.215,0.17-1.798c0.171-1.284,0.657-2.671,1.061-3.9"/>
	</g>
	<g id="POLYLINE_354_">
		
			<path fill="none" stroke="#FB8604" stroke-width="2.75" stroke-linecap="round" stroke-linejoin="round" stroke-miterlimit="10" d="
			M542.368,294.175c1.259-0.712,2.571-1.394,3.932-1.888c1.502-0.552,3.086-0.917,4.66-1.196c2.693-0.48,10.578-1.518,12.168,1.127
			c1.384,2.385-2.353,7.361-3.776,9.322c-4.476,6.037-10.043,11.29-16.348,15.381"/>
	</g>
	<g id="POLYLINE_353_">
		
			<path fill="none" stroke="#FB8604" stroke-width="2.75" stroke-linecap="round" stroke-linejoin="round" stroke-miterlimit="10" d="
			M505.964,298.517l-3.247-0.684c-1.643-0.359-3.319-0.844-4.898-1.423c-4.355-1.65-9.44-3.579-13.92-4.712
			c-6.098-1.57-12.392-2.656-18.67-3.151c-2.89-0.191-5.864-0.315-8.734,0.142c-1.043,0.188-2.135,0.439-3.012,1.062l-0.044,0.033
			l-0.043,0.034l-0.042,0.034l-0.041,0.035c-1.447,1.235-0.61,3.28,0.136,4.669c1.247,2.234,2.896,4.258,4.56,6.194
			c5.024,5.71,11,10.637,17.681,14.287c2.359,1.321,6.534,3.387,8.69,4.927c0.558,0.406,1.106,0.851,1.545,1.387
			c0.38,0.46,0.664,1.002,0.813,1.58c0.209,0.801,0.195,1.648,0.162,2.469c-0.112,1.773-0.244,3.843-0.17,5.6
			c0.086,2.326,0.386,4.675,0.949,6.934c0.78,3.118,2.088,6.173,4.196,8.629c1.883,2.207,4.411,3.765,7.033,4.948
			c5.448,2.455,12.407,3.741,18.22,5.173c3.407,0.817,7.539,2.256,10.902,3.302c1.844,0.554,3.747,1.051,5.668,1.233
			c2.941,0.301,5.925-0.322,8.611-1.521c2.042-0.917,3.967-2.159,5.527-3.773c0.822-0.855,1.527-1.827,2.095-2.868
			c0.736-1.34,1.254-2.806,1.671-4.274"/>
	</g>
	<g id="POLYLINE_352_">
		
			<path fill="none" stroke="#FB8604" stroke-width="2.75" stroke-linecap="round" stroke-linejoin="round" stroke-miterlimit="10" d="
			M547.855,336.087c-1.478-1.436-2.785-3.074-3.838-4.846c-0.858-1.453-1.561-3.018-1.957-4.662
			c-0.297-1.215-0.385-2.483-0.289-3.729c0.136-2.1,0.879-4.562,1.413-6.607c0.769-2.864,1.207-5.837,1.223-8.804
			c0.043-4.158-0.748-8.307-1.787-12.319c-0.457-1.724-0.981-3.538-1.574-5.22c-0.206-0.56-0.439-1.124-0.739-1.64
			c-0.314-0.544-0.713-1.043-1.184-1.459c-0.765-0.677-1.685-1.165-2.628-1.546c-2.167-0.851-4.586-1.202-6.884-0.747
			c-1.09,0.219-2.122,0.676-3.094,1.205c-1.118,0.608-2.592,1.583-3.753,2.09c-0.534,0.23-1.1,0.411-1.683,0.447
			c-0.948,0.06-1.859-0.305-2.699-0.707c-1.221-0.593-2.456-1.354-3.778-1.702c-1.037-0.287-2.139-0.251-3.186-0.031
			c-1.37,0.287-2.676,0.847-3.899,1.518c-1.776,0.996-3.467,2.216-4.821,3.747c-0.639,0.724-1.191,1.54-1.69,2.365
			c-0.664,1.102-1.249,2.276-1.678,3.49"/>
	</g>
	<g id="POLYLINE_351_">
		
			<path fill="none" stroke="#FB8604" stroke-width="2.75" stroke-linecap="round" stroke-linejoin="round" stroke-miterlimit="10" d="
			M551.104,337.461c-1.277-0.75-2.692-1.257-4.126-1.612c-1.753-0.425-3.576-0.617-5.378-0.494c-1.789,0.12-3.571,0.601-5.124,1.508
			c-1.517,0.887-2.916,2.253-3.281,4.03c-0.263,1.313,0.124,2.668,0.733,3.832c0.501,0.951,1.167,1.819,1.939,2.566
			c0.93,0.906,2.062,1.613,3.306,1.993c1.441,0.454,3.014,0.533,4.515,0.62c1.856,0.092,3.79,0.196,5.619-0.19
			c0.966-0.208,1.925-0.576,2.68-1.23c1.236-1.084,1.848-2.715,2.085-4.308c0.199-1.464,0.132-3.039-0.57-4.368
			C552.97,338.8,552.076,338.033,551.104,337.461z"/>
	</g>
</g>
<g id="AG-OUTLINE">
	<g id="POLYLINE_19_">
		
			<path fill="none" stroke="#FB8604" stroke-width="3.5" stroke-linecap="round" stroke-linejoin="round" stroke-miterlimit="10" d="
			M573.586,281.797c4.723,0.211,9.551,0.261,14.224-0.527c3.464-0.576,6.878-1.635,9.988-3.278c3.935-2.06,7.311-5.067,10.29-8.331
			c3.815-4.202,7.106-8.953,10.039-13.803c1.917-3.173,3.816-6.7,5.461-10.028c1.504-3.065,2.942-6.283,4.016-9.524
			c1.966-5.948,3.004-12.298,3.877-18.49c0.788-6.023,1.283-12.228,1.156-18.303c-0.098-4.053-0.449-8.172-1.418-12.116
			c-1.011-4.165-2.783-8.148-5.181-11.699c-1.933-2.885-4.268-5.541-6.712-8.002c-2.999-3.012-6.37-5.968-9.625-8.701
			c-1.085-0.903-13.327-10.714-13.96-11.369c-0.594-0.54-1.172-1.124-1.669-1.755c-1.657-2.054-2.747-5.314-3.805-7.721
			c-0.426-0.971-0.876-1.991-1.435-2.891c-0.285-0.442-0.62-0.936-1.081-1.195c-0.018-0.01-0.037-0.019-0.037-0.019
			c-0.018-0.009-0.037-0.017-0.037-0.017c-0.018-0.008-0.037-0.015-0.037-0.015c-0.018-0.007-0.037-0.014-0.037-0.014
			c-0.018-0.006-0.037-0.012-0.037-0.012c-0.025-0.007-0.037-0.01-0.037-0.01c-0.025-0.006-0.037-0.008-0.037-0.008
			c-0.025-0.005-0.037-0.007-0.037-0.007c-0.025-0.003-0.037-0.005-0.037-0.005c-0.025-0.002-0.037-0.003-0.037-0.003
			c-0.025-0.001-0.037-0.001-0.037-0.001c-0.025,0-0.037,0.001-0.037,0.001c-0.025,0.001-0.037,0.002-0.037,0.002
			c-0.024,0.003-0.037,0.004-0.037,0.004c-0.024,0.004-0.036,0.006-0.036,0.006c-0.024,0.005-0.036,0.007-0.036,0.007
			c-0.024,0.006-0.036,0.009-0.036,0.009c-0.024,0.007-0.036,0.011-0.036,0.011c-0.024,0.008-0.036,0.013-0.036,0.013
			c-0.024,0.009-0.036,0.014-0.036,0.014c-0.024,0.01-0.036,0.016-0.036,0.016c-0.024,0.011-0.035,0.017-0.035,0.017
			c-0.023,0.013-0.035,0.019-0.035,0.019c-0.023,0.014-0.035,0.021-0.035,0.021c-0.48,0.316-0.724,0.848-0.914,1.35
			c-0.381,1.092-0.446,2.276-0.349,3.421c0.187,2.017,0.831,3.977,1.592,5.845c1.406,3.384,3.318,6.592,5.422,9.586
			c1.839,2.589,3.902,5.107,6.167,7.335c2.235,2.223,5.264,4.549,7.668,6.601c1.47,1.26,2.924,2.626,4.213,4.072
			c1.385,1.548,2.642,3.239,3.743,5c1.518,2.443,2.702,5.117,3.663,7.824c-2.69-1.456-5.482-2.937-7.85-4.885
			c-0.574-0.461-1.724-1.634-2.271-2.173c-1.283-1.26-2.636-2.531-4.128-3.536c-1.81-1.286-4.779-2.423-6.823-3.331
			c-1.739-0.772-3.477-1.65-5.078-2.679c-1.856-1.187-3.583-2.604-5.111-4.192c-4.552-4.724-8.149-11.169-12.08-16.354
			c-0.499-0.608-1.025-1.272-1.688-1.702c-0.032-0.019-0.063-0.037-0.063-0.037c-0.031-0.017-0.061-0.033-0.061-0.033
			c-0.03-0.015-0.06-0.029-0.06-0.029c-0.03-0.013-0.059-0.025-0.059-0.025c-0.029-0.011-0.058-0.021-0.058-0.021
			c-0.028-0.009-0.056-0.017-0.056-0.017c-0.028-0.007-0.055-0.013-0.055-0.013c-0.027-0.005-0.054-0.008-0.054-0.008
			c-0.023-0.002-0.034-0.003-0.034-0.003c-0.022-0.001-0.033-0.001-0.033-0.001c-0.022,0-0.033,0-0.033,0
			c-0.032,0.002-0.043,0.003-0.043,0.003c-0.031,0.004-0.042,0.006-0.042,0.006c-0.031,0.007-0.041,0.009-0.041,0.009
			c-0.03,0.009-0.04,0.012-0.04,0.012c-0.029,0.011-0.039,0.015-0.039,0.015c-0.029,0.013-0.038,0.018-0.038,0.018
			c-0.028,0.015-0.037,0.021-0.037,0.021c-0.027,0.017-0.036,0.024-0.036,0.024c-0.026,0.019-0.035,0.026-0.035,0.026
			c-0.026,0.021-0.034,0.029-0.034,0.029c-0.025,0.023-0.033,0.032-0.033,0.032c-0.024,0.025-0.032,0.034-0.032,0.034
			c-0.024,0.027-0.031,0.037-0.031,0.037c-0.023,0.029-0.03,0.039-0.03,0.039c-0.221,0.313-0.301,0.639-0.381,0.989
			c-0.101,0.488-0.141,0.998-0.159,1.496c-0.055,2.03,0.233,4.067,0.742,6.03c0.874,3.343,2.439,6.498,4.497,9.269
			c1.302,1.753,2.827,3.388,4.391,4.911c3.502,3.415,8.878,7.631,12.664,10.801c2.945,2.508,5.899,5.153,8.293,8.203
			c1.997,2.549,3.642,5.542,3.894,8.824c0.126,1.59-0.019,3.231-0.595,4.727c-0.434,1.126-1.194,2.229-2.314,2.745
			c-0.833,0.391-1.778,0.451-2.68,0.343c-1.338-0.166-2.619-0.661-3.823-1.253c-3.101-1.557-5.817-3.822-8.352-6.165
			c-5.42-5.063-10.351-11.183-14.962-16.995c-0.555-0.682-1.17-1.425-1.801-2.038c-0.288-0.274-0.609-0.556-0.958-0.736
			c-0.088-0.045-0.161-0.074-0.224-0.095c-0.029-0.009-0.043-0.013-0.043-0.013c-0.028-0.008-0.043-0.011-0.043-0.011
			c-0.028-0.007-0.042-0.01-0.042-0.01c-0.028-0.005-0.041-0.008-0.041-0.008c-0.027-0.004-0.041-0.006-0.041-0.006
			c-0.027-0.003-0.04-0.004-0.04-0.004c-0.027-0.001-0.04-0.002-0.04-0.002c-0.026,0-0.039,0-0.039,0
			c-0.026,0.001-0.039,0.002-0.039,0.002c-0.026,0.003-0.038,0.004-0.038,0.004c-0.025,0.004-0.038,0.007-0.038,0.007
			c-0.025,0.005-0.037,0.009-0.037,0.009c-0.031,0.009-0.041,0.012-0.041,0.012c-0.028,0.01-0.037,0.014-0.037,0.014
			c-0.028,0.012-0.037,0.016-0.037,0.016c-0.027,0.013-0.036,0.018-0.036,0.018c-0.027,0.015-0.035,0.02-0.035,0.02
			c-0.026,0.016-0.035,0.022-0.035,0.022c-0.026,0.018-0.034,0.024-0.034,0.024c-0.025,0.02-0.034,0.026-0.034,0.026
			c-0.025,0.021-0.033,0.029-0.033,0.029c-0.032,0.031-0.04,0.039-0.04,0.039c-0.024,0.025-0.031,0.033-0.031,0.033
			c-0.023,0.026-0.031,0.035-0.031,0.035c-0.21,0.252-0.321,0.56-0.404,0.844c-0.091,0.328-0.143,0.672-0.171,1.011
			c-0.104,1.331,0.12,2.673,0.466,3.956c0.968,3.431,2.678,6.641,4.686,9.573c0.891,1.28,1.893,2.528,2.991,3.637
			c1.293,1.338,3.444,3.062,4.874,4.278c2.405,2.061,4.604,4.421,6.313,7.094c0.808,1.3,1.552,2.702,1.795,4.231
			c0.09,0.604,0.077,1.234-0.117,1.818c-0.273,0.847-0.893,1.55-1.639,2.019c-0.917,0.579-2.012,0.848-3.092,0.84
			c-1.526-0.018-3.008-0.506-4.435-1.007c-2.614-0.966-5.699-2.187-8.398-2.792c-2.812-0.648-5.73-1.001-8.61-1.154
			c-1.556-0.072-3.166-0.101-4.718,0.048c-0.569,0.067-1.197,0.13-1.715,0.376c-0.019,0.01-0.038,0.021-0.038,0.021
			c-0.018,0.01-0.035,0.021-0.035,0.021c-0.017,0.011-0.032,0.021-0.032,0.021c-0.03,0.022-0.044,0.033-0.044,0.033
			c-0.026,0.022-0.037,0.034-0.037,0.034c-0.022,0.023-0.031,0.035-0.031,0.035c-0.017,0.024-0.025,0.036-0.025,0.036
			c-0.015,0.028-0.018,0.035-0.018,0.035c-0.01,0.028-0.012,0.035-0.012,0.035c-0.006,0.029-0.006,0.036-0.006,0.036
			c-0.001,0.03-0.001,0.037-0.001,0.037c0.003,0.03,0.004,0.038,0.004,0.038c0.007,0.031,0.01,0.039,0.01,0.039
			c0.011,0.031,0.015,0.039,0.015,0.039c0.016,0.032,0.02,0.04,0.02,0.04c0.014,0.024,0.02,0.033,0.02,0.033
			c0.017,0.025,0.023,0.033,0.023,0.033c0.019,0.025,0.026,0.034,0.026,0.034c0.021,0.025,0.029,0.034,0.029,0.034
			c0.193,0.208,0.399,0.337,0.625,0.48c0.318,0.194,0.676,0.378,1.011,0.542c4.29,1.976,9.107,3.835,13.161,6.256
			c1.993,1.191,3.954,2.523,5.555,4.219c0.65,0.711,1.269,1.503,1.551,2.437c0.174,0.566,0.141,1.212-0.101,1.732
			c-0.257,0.565-0.67,0.985-1.165,1.333c-0.89,0.611-1.959,0.905-2.99,1.182c-1.401,0.345-3.674,0.88-5.016,1.295
			c-1.303,0.393-2.641,0.88-3.889,1.424c-4.176,1.861-8.075,4.403-11.696,7.18c-1.929,1.52-3.858,3.137-5.438,5.025
			c-0.504,0.63-1.013,1.297-1.255,2.076l-0.011,0.04c0,0-0.01,0.039-0.01,0.039l-0.009,0.039l-0.008,0.039l-0.007,0.038
			l-0.007,0.038l-0.006,0.037c0,0-0.005,0.037-0.005,0.037l-0.004,0.036l-0.003,0.036l-0.002,0.035l-0.001,0.035v0.034
			c0.001,0.028,0.001,0.042,0.001,0.042c0.002,0.028,0.003,0.041,0.003,0.041c0.003,0.027,0.004,0.041,0.004,0.041
			c0.004,0.027,0.006,0.04,0.006,0.04c0.005,0.026,0.007,0.039,0.007,0.039c0.005,0.026,0.008,0.038,0.008,0.038
			c0.006,0.025,0.01,0.038,0.01,0.038c0.007,0.025,0.011,0.037,0.011,0.037c0.008,0.024,0.012,0.036,0.012,0.036
			c0.009,0.024,0.014,0.036,0.014,0.036c0.01,0.023,0.015,0.035,0.015,0.035c0.011,0.023,0.016,0.034,0.016,0.034
			c0.012,0.022,0.018,0.033,0.018,0.033c0.012,0.022,0.019,0.033,0.019,0.033c0.02,0.032,0.027,0.042,0.027,0.042
			c0.022,0.031,0.029,0.041,0.029,0.041c0.023,0.03,0.032,0.04,0.032,0.04c0.025,0.029,0.034,0.039,0.034,0.039
			c0.027,0.028,0.036,0.037,0.036,0.037c0.028,0.027,0.038,0.036,0.038,0.036c0.03,0.026,0.04,0.035,0.04,0.035
			c0.298,0.243,0.632,0.345,0.981,0.417c0.412,0.079,0.838,0.092,1.256,0.072c1.057-0.054,2.095-0.335,3.083-0.704
			c1.603-0.604,3.145-1.456,4.625-2.315c3.586-2.107,7.468-4.746,11.471-5.931c1.681-0.506,3.456-0.776,5.211-0.618
			c1.545,0.135,3.068,0.593,4.417,1.361c1.286,0.729,2.411,1.742,3.287,2.931c1.499,2.06,2.371,4.545,2.709,7.059
			c0.203,1.618,0.183,3.298-0.288,4.87c-0.399,1.344-1.215,2.539-2.256,3.47c-0.936,0.847-2.027,1.52-3.137,2.113
			c-1.684,0.894-3.599,1.702-5.363,2.433c-3.697,1.496-7.553,2.772-11.458,3.594c-2.981,0.62-6.055,0.997-9.103,0.875
			c0.441-0.989,1.142-1.839,1.917-2.586c1.29-1.254,3.151-2.545,4.452-3.787c0.716-0.687,1.392-1.456,1.781-2.379
			c0.316-0.752,0.443-1.582,0.372-2.394c-0.085-0.961-0.481-2.079-1.373-2.543c-0.409-0.205-0.83-0.236-1.27-0.188
			c-0.631,0.075-1.233,0.315-1.798,0.598c-0.966,0.491-1.86,1.14-2.702,1.819c-3.407,2.795-6.995,6.985-10.405,9.776
			c-2.916,2.432-6.982,4.768-10.038,7.025c-5.212,3.888-9.759,8.68-13.947,13.633c-1.332-0.302-2.508-1.086-3.732-1.66
			c0,0-0.162-1.344-0.162-1.344c-0.128-1.152-0.159-2.35,0.204-3.464c0.186-0.588,0.483-1.14,0.82-1.655
			c0.574-0.902,1.929-2.496,2.603-3.351c0.85-1.085,1.658-2.236,2.194-3.511c0.347-0.82,0.562-1.697,0.669-2.58
			c0.25-2.155-0.064-4.362-0.769-6.406c-0.303-0.856-0.679-1.701-1.188-2.456c-0.284-0.406-0.63-0.852-1.091-1.048
			c-0.025-0.009-0.033-0.012-0.033-0.012c-0.025-0.008-0.033-0.011-0.033-0.011c-0.025-0.007-0.033-0.01-0.033-0.01
			c-0.025-0.006-0.033-0.008-0.033-0.008c-0.025-0.005-0.033-0.007-0.033-0.007c-0.024-0.004-0.033-0.005-0.033-0.005
			c-0.024-0.003-0.032-0.004-0.032-0.004c-0.032-0.002-0.04-0.003-0.04-0.003c-0.032,0-0.04,0-0.04,0
			c-0.032,0.002-0.04,0.002-0.04,0.002c-0.031,0.004-0.039,0.005-0.039,0.005c-0.031,0.005-0.039,0.007-0.039,0.007
			c-0.031,0.007-0.039,0.01-0.039,0.01c-0.031,0.009-0.038,0.012-0.038,0.012c-0.03,0.012-0.038,0.015-0.038,0.015
			c-0.03,0.014-0.038,0.017-0.038,0.017c-0.03,0.016-0.037,0.02-0.037,0.02c-0.03,0.018-0.037,0.023-0.037,0.023
			c-0.023,0.015-0.038,0.027-0.038,0.027c-0.031,0.024-0.046,0.036-0.046,0.036c-0.03,0.027-0.045,0.041-0.045,0.041
			c-0.03,0.029-0.045,0.045-0.045,0.045c-0.241,0.266-0.376,0.553-0.516,0.869c-0.465,1.081-0.953,3.069-1.293,4.219
			c-0.592,2.044-1.249,4.127-2.337,5.968c-0.824,1.38-1.919,2.616-3.24,3.537c-1.858,1.308-4.439,2.042-6.468,0.687
			c-0.86-0.565-1.531-1.381-2.038-2.268c-0.901-1.601-1.342-3.466-1.26-5.302c0.129-2.624,1.364-5.037,2.692-7.249
			c0.491-0.815,1.602-2.539,2.006-3.383c0.197-0.425,0.419-0.918,0.369-1.383c-0.005-0.032-0.007-0.042-0.007-0.042
			c-0.006-0.031-0.008-0.041-0.008-0.041c-0.008-0.03-0.01-0.04-0.01-0.04c-0.009-0.029-0.012-0.039-0.012-0.039
			c-0.011-0.029-0.014-0.038-0.014-0.038c-0.012-0.028-0.016-0.037-0.016-0.037c-0.014-0.027-0.018-0.036-0.018-0.036
			c-0.015-0.026-0.021-0.035-0.021-0.035c-0.017-0.025-0.023-0.033-0.023-0.033c-0.025-0.032-0.031-0.04-0.031-0.04
			c-0.028-0.031-0.035-0.038-0.035-0.038c-0.03-0.029-0.038-0.036-0.038-0.036c-0.026-0.022-0.04-0.032-0.04-0.032
			c-0.028-0.021-0.043-0.031-0.043-0.031c-0.03-0.019-0.046-0.029-0.046-0.029c-0.016-0.009-0.032-0.018-0.032-0.018
			c-0.247-0.131-0.512-0.171-0.768-0.195c-0.305-0.024-0.615-0.011-0.918,0.019c-1.033,0.11-2.047,0.409-3.013,0.785
			c-2.124,0.842-4.112,2.139-5.546,3.937c-1.251,1.554-2.124,3.394-2.693,5.3c-0.522,1.764-0.802,3.609-0.805,5.45
			c-3.613-0.919-6.944-2.819-9.765-5.236c-1.507-1.311-2.917-2.784-4.005-4.466c-0.688-1.069-1.239-2.243-1.543-3.48
			c-0.243-0.981-0.33-2.004-0.255-3.012c0.129-1.71,0.692-3.362,1.373-4.925c1.045-2.367,2.439-4.627,3.852-6.791
			c0.99-1.529,3.435-4.953,4.224-6.555c0.257-0.541,0.547-1.179,0.465-1.78c-0.005-0.026-0.007-0.039-0.007-0.039
			c-0.005-0.026-0.008-0.039-0.008-0.039c-0.006-0.025-0.01-0.038-0.01-0.038c-0.007-0.025-0.011-0.037-0.011-0.037
			c-0.008-0.024-0.012-0.036-0.012-0.036c-0.009-0.024-0.014-0.036-0.014-0.036c-0.01-0.023-0.015-0.035-0.015-0.035
			c-0.011-0.023-0.016-0.034-0.016-0.034c-0.015-0.029-0.02-0.037-0.02-0.037c-0.015-0.026-0.02-0.034-0.02-0.034
			c-0.016-0.025-0.022-0.033-0.022-0.033c-0.023-0.032-0.03-0.04-0.03-0.04c-0.025-0.031-0.032-0.039-0.032-0.039
			c-0.027-0.03-0.034-0.037-0.034-0.037c-0.029-0.029-0.036-0.036-0.036-0.036c-0.031-0.028-0.038-0.035-0.038-0.035
			c-0.024-0.02-0.032-0.027-0.032-0.027c-0.373-0.287-0.827-0.36-1.266-0.392c-0.548-0.031-1.099,0.036-1.635,0.15
			c-1.279,0.28-2.487,0.839-3.614,1.495c-1.48,0.869-2.845,1.942-4.086,3.126c-1.995,1.897-3.657,4.141-4.953,6.568
			c-1.85,3.348-3.182,7.277-5.176,10.546c-0.643,1.024-1.412,1.997-2.396,2.713c-0.808,0.595-1.753,0.997-2.739,1.181
			c-1.167,0.221-2.374,0.163-3.54-0.031c-1.47-0.248-2.914-0.705-4.292-1.269c-2.406-0.993-4.674-2.339-6.739-3.921
			c-2.302-1.769-4.373-3.868-6.047-6.242c-2.025-2.87-3.514-6.105-4.671-9.412c-1.877-5.366-2.941-11.149-3.861-16.753
			c-0.638-4.008-1.148-8.138-1.062-12.202c0.055-2.825,0.401-5.664,1.074-8.41c1.61-6.466,4.876-12.422,8.475-17.982
			c4.271-6.486,9.245-12.586,14.934-17.884l8.083-7.379c3.142-2.948,6.4-6.127,9.237-9.36c1.434-1.66,2.876-3.39,3.971-5.298
			c0.366-0.662,0.709-1.361,0.843-2.112c0.087-0.499,0.062-1.054-0.18-1.49c-0.018-0.032-0.027-0.047-0.027-0.047
			c-0.019-0.031-0.029-0.046-0.029-0.046c-0.02-0.03-0.03-0.044-0.03-0.044c-0.021-0.028-0.031-0.042-0.031-0.042
			c-0.021-0.027-0.032-0.041-0.032-0.041c-0.022-0.026-0.033-0.039-0.033-0.039c-0.023-0.025-0.034-0.037-0.034-0.037
			c-0.024-0.024-0.035-0.036-0.035-0.036c-0.024-0.023-0.036-0.034-0.036-0.034c-0.025-0.022-0.037-0.032-0.037-0.032
			c-0.025-0.021-0.038-0.031-0.038-0.031c-0.026-0.02-0.039-0.029-0.039-0.029c-0.027-0.018-0.04-0.027-0.04-0.027
			c-0.027-0.017-0.041-0.026-0.041-0.026c-0.028-0.016-0.042-0.024-0.042-0.024c-0.028-0.015-0.042-0.022-0.042-0.022
			c-0.031-0.015-0.046-0.022-0.046-0.022c-0.031-0.013-0.047-0.02-0.047-0.02c-0.032-0.012-0.048-0.018-0.048-0.018
			c-0.316-0.107-0.628-0.09-0.938-0.029c-0.388,0.077-0.768,0.226-1.13,0.384c-1.042,0.463-2.11,1.085-3.094,1.671
			c-2.192,1.324-4.728,3.04-6.849,4.495c-8.596,5.974-17.445,12.254-25.186,19.308c-2.436,2.218-4.864,4.616-7.086,7.048
			c-3.183,3.457-8.088,9.537-11.17,13.149c-1.711,1.962-3.52,3.999-5.518,5.672c-1.185,0.983-2.486,1.883-3.952,2.387
			c-1.15,0.4-2.423,0.492-3.598,0.143c-0.948-0.273-1.813-0.79-2.569-1.417c-1.509-1.263-2.634-2.969-3.281-4.822
			c-0.394-1.138-0.602-2.347-0.59-3.552c0.02-1.976,0.548-3.92,1.245-5.757c1.496-3.984,4.252-8.141,6.384-11.826
			c1.374-2.364,2.571-4.883,3.13-7.573c0.342-1.581,0.492-3.223,0.534-4.838c0.04-1.79-0.041-3.622-0.3-5.394
			c-0.124-0.82-0.286-1.652-0.553-2.439c-0.162-0.462-0.368-0.964-0.707-1.311c-0.032-0.031-0.048-0.046-0.048-0.046
			c-0.016-0.014-0.033-0.028-0.033-0.028c-0.03-0.024-0.044-0.035-0.044-0.035c-0.028-0.02-0.042-0.03-0.042-0.03
			c-0.028-0.018-0.035-0.023-0.035-0.023c-0.028-0.017-0.036-0.021-0.036-0.021c-0.029-0.015-0.036-0.019-0.036-0.019
			c-0.029-0.014-0.036-0.017-0.036-0.017c-0.029-0.012-0.036-0.015-0.036-0.015c-0.029-0.01-0.037-0.013-0.037-0.013
			c-0.03-0.009-0.037-0.011-0.037-0.011c-0.03-0.007-0.037-0.009-0.037-0.009c-0.03-0.006-0.037-0.007-0.037-0.007
			c-0.03-0.005-0.038-0.005-0.038-0.005c-0.03-0.003-0.038-0.004-0.038-0.004c-0.03-0.002-0.038-0.002-0.038-0.002
			c-0.031,0-0.038,0-0.038,0c-0.031,0.001-0.038,0.002-0.038,0.002c-0.031,0.002-0.046,0.004-0.046,0.004
			c-0.031,0.004-0.046,0.007-0.046,0.007c-0.031,0.006-0.047,0.009-0.047,0.009c-0.031,0.007-0.047,0.011-0.047,0.011
			c-0.031,0.009-0.047,0.014-0.047,0.014c-0.031,0.01-0.047,0.016-0.047,0.016c-0.031,0.012-0.047,0.018-0.047,0.018
			c-0.032,0.013-0.047,0.02-0.047,0.02c-0.032,0.015-0.047,0.023-0.047,0.023c-0.341,0.178-0.571,0.413-0.801,0.68
			c-0.258,0.307-0.479,0.653-0.675,1.002c-0.589,1.067-1.019,2.251-1.424,3.398c-0.881,2.624-2.029,6.237-3.11,8.742
			c-1.231,2.938-2.714,5.888-4.298,8.651c-3.252,5.809-8.331,12.211-11.853,17.871l-1.9,3.195c-1.059,1.739-2.259,3.466-3.912,4.69
			c-1.422,1.069-3.128,1.705-4.854,2.087c-6.371,1.382-15.322-0.151-19.133-5.928c-0.565-0.875-0.986-1.85-1.199-2.871
			c-0.209-0.988-0.21-2.013-0.096-3.014c0.185-1.598,0.647-3.175,1.139-4.703c0.961-2.917,2.205-6.188,2.824-9.191
			c1.019-4.896,1.04-9.987,0.443-14.939c-0.447-3.453-1.142-6.936-2.392-10.195c-0.217-0.539-0.462-1.093-0.758-1.595
			c0,0-0.055-0.091-0.055-0.091s-0.027-0.044-0.027-0.044c-0.041-0.064-0.091-0.145-0.136-0.207
			c-0.041-0.057-0.091-0.13-0.136-0.185c-0.115-0.15-0.264-0.305-0.39-0.401c-0.027-0.02-0.04-0.029-0.04-0.029
			c-0.027-0.018-0.04-0.027-0.04-0.027c-0.026-0.017-0.04-0.025-0.04-0.025c-0.026-0.015-0.04-0.022-0.04-0.022
			c-0.026-0.013-0.039-0.02-0.039-0.02c-0.026-0.012-0.039-0.017-0.039-0.017c-0.026-0.01-0.039-0.015-0.039-0.015
			c-0.026-0.009-0.039-0.012-0.039-0.012c-0.026-0.007-0.039-0.01-0.039-0.01c-0.026-0.005-0.039-0.007-0.039-0.007
			c-0.026-0.003-0.039-0.005-0.039-0.005c-0.032-0.002-0.04-0.002-0.04-0.002c-0.031,0-0.039,0.001-0.039,0.001
			c-0.031,0.002-0.039,0.003-0.039,0.003c-0.031,0.005-0.039,0.006-0.039,0.006c-0.031,0.007-0.039,0.009-0.039,0.009
			c-0.031,0.009-0.039,0.011-0.039,0.011c-0.031,0.011-0.038,0.014-0.038,0.014c-0.031,0.013-0.038,0.016-0.038,0.016
			c-0.03,0.015-0.038,0.019-0.038,0.019c-0.03,0.017-0.038,0.021-0.038,0.021c-0.03,0.018-0.037,0.023-0.037,0.023
			c-0.03,0.02-0.037,0.026-0.037,0.026c-0.029,0.022-0.044,0.034-0.044,0.034c-0.029,0.024-0.044,0.037-0.044,0.037
			c-0.029,0.026-0.043,0.04-0.043,0.04c-0.029,0.029-0.043,0.043-0.043,0.043c-0.357,0.394-0.544,0.866-0.714,1.356
			c-0.312,0.944-0.433,1.95-0.514,2.938c-0.154,2.043-0.177,4.585-0.496,6.602c-0.205,1.405-0.57,2.797-1.086,4.12
			c-1.22,3.18-3.471,6.769-5.061,9.789c-1.449,2.677-2.661,5.54-3.584,8.44c-2.048,6.187-3.617,13.699-7.887,18.781
			c-3.541,4.256-8.734,7.036-14.196,7.833c-7.746,1.127-15.807-1.823-21.841-6.625c-2.689-2.146-4.989-4.771-6.94-7.597
			c-3.613-5.129-7.242-13.318-10.063-18.972c-1.264-2.468-2.599-5.027-4.245-7.262c-0.577-0.771-1.208-1.524-1.943-2.15
			c-0.485-0.41-1.029-0.768-1.633-0.974c-0.389-0.136-0.859-0.204-1.254-0.144c-0.552,0.071-1.034,0.399-1.322,0.835
			c-0.266,0.396-0.399,0.831-0.494,1.29c-0.182,0.932-0.172,1.9-0.125,2.845c0.245,4.312,1.999,11.526,2.801,15.83
			c1.126,6.003,1.979,13.265,4.596,18.788c1.313,2.886,3.145,5.524,5.199,7.931c3.508,4.161,8.997,9.208,12.688,13.218
			c1.651,1.806,3.289,3.707,4.563,5.803c2.268,3.702,2.738,7.752,0.248,11.485c-1.017,1.529-2.396,2.79-3.849,3.897
			c-2.677,2.059-7.315,4.577-10.248,6.328c-1.999,1.184-4.134,2.583-6.036,3.919c-4.42,3.083-11,8.284-15.795,10.59
			c-1.386,0.696-3.337,1.446-4.693,2.196c-0.296,0.171-0.641,0.394-0.852,0.647c-0.02,0.024-0.029,0.037-0.029,0.037
			c-0.018,0.024-0.027,0.037-0.027,0.037c-0.017,0.024-0.025,0.037-0.025,0.037c-0.015,0.024-0.022,0.037-0.022,0.037
			c-0.014,0.025-0.02,0.037-0.02,0.037c-0.012,0.025-0.018,0.037-0.018,0.037c-0.011,0.025-0.015,0.037-0.015,0.037
			c-0.009,0.025-0.013,0.037-0.013,0.037c-0.007,0.025-0.011,0.037-0.011,0.037c-0.006,0.025-0.008,0.037-0.008,0.037
			c-0.004,0.025-0.006,0.038-0.006,0.038c-0.002,0.025-0.003,0.038-0.003,0.038c-0.001,0.025-0.001,0.038-0.001,0.038
			c0.001,0.023,0.002,0.034,0.002,0.034c0.002,0.023,0.004,0.034,0.004,0.034c0.003,0.023,0.006,0.034,0.006,0.034
			c0.005,0.023,0.008,0.034,0.008,0.034c0.006,0.023,0.01,0.035,0.01,0.035c0.007,0.023,0.011,0.035,0.011,0.035
			c0.009,0.023,0.013,0.035,0.013,0.035c0.01,0.023,0.015,0.035,0.015,0.035c0.011,0.023,0.017,0.035,0.017,0.035
			c0.012,0.023,0.019,0.035,0.019,0.035c0.014,0.023,0.021,0.035,0.021,0.035c0.015,0.023,0.023,0.035,0.023,0.035
			c0.343,0.474,0.879,0.749,1.381,0.99c0.689,0.314,1.425,0.534,2.164,0.693c3.462,0.743,7.045-0.031,10.335-1.166
			c4.616-1.624,8.986-4.085,13.165-6.608c6.067-3.671,14.024-9.178,20.51-11.871c1.934-0.789,3.967-1.429,6.049-1.664
			c0.739-0.077,1.497-0.105,2.234,0.005c0.475,0.073,0.993,0.219,1.37,0.515c0.031,0.025,0.045,0.037,0.045,0.037
			c0.029,0.025,0.043,0.038,0.043,0.038c0.028,0.026,0.042,0.039,0.042,0.039c0.027,0.027,0.04,0.04,0.04,0.04
			c0.025,0.028,0.038,0.042,0.038,0.042c0.024,0.028,0.034,0.041,0.034,0.041c0.02,0.026,0.03,0.039,0.03,0.039
			c0.019,0.027,0.028,0.04,0.028,0.04c0.018,0.027,0.027,0.041,0.027,0.041c0.017,0.028,0.025,0.042,0.025,0.042
			c0.016,0.028,0.024,0.043,0.024,0.043c0.015,0.029,0.022,0.044,0.022,0.044c0.014,0.03,0.02,0.044,0.02,0.044
			c0.013,0.03,0.019,0.045,0.019,0.045c0.012,0.031,0.017,0.046,0.017,0.046c0.011,0.031,0.016,0.047,0.016,0.047
			c0.104,0.344,0.08,0.673,0.008,1.01c-0.09,0.399-0.254,0.781-0.444,1.142c-0.477,0.893-1.12,1.696-1.792,2.45
			c-1.309,1.452-2.841,2.771-4.338,4.025c0,0-7.892,6.355-7.892,6.355c-1.475,1.239-2.999,2.522-4.261,3.982
			c-0.455,0.547-0.909,1.129-1.141,1.81c0,0-0.013,0.04-0.013,0.04l-0.012,0.04l-0.011,0.04l-0.01,0.039l-0.009,0.039
			c-0.087,0.379-0.031,0.772,0.172,1.074c0.022,0.032,0.029,0.042,0.029,0.042c0.023,0.031,0.031,0.042,0.031,0.042
			c0.024,0.031,0.033,0.041,0.033,0.041c0.265,0.31,0.634,0.507,0.989,0.624c0.402,0.132,0.806,0.193,1.226,0.214
			c1.547,0.056,3.07-0.383,4.521-0.876c3.166-1.125,6.205-2.754,9.141-4.376c2.391-1.317,5.798-3.438,8.323-4.372
			c1.584-0.601,3.286-0.94,4.983-0.855c1.487,0.068,2.954,0.436,4.363,0.902c2.303,0.766,4.647,1.89,6.832,2.955
			c3.493,1.77,9.772,4.962,13.277,6.535c3.15,1.432,6.571,2.802,9.842,3.94c11.926,4.094,24.423,6.775,36.903,8.498
			c4.819,0.643,9.89,1.149,14.749,1.334c3.335,0.117,6.777,0.107,10.094-0.29c1.678-0.199,3.412-0.508,5.055-0.906
			c2.583-0.609,6.084-1.797,8.57-2.554c4.379,4.21,10.192,6.919,16.244,7.495c3.084,0.308,6.211-0.069,9.238-0.67
			c1.86-0.381,5.83-1.246,7.636-1.517c1.518-0.239,3.115-0.411,4.649-0.504c2.983-0.177,6.023-0.1,8.983,0.329
			c2.142,0.316,4.283,0.82,6.292,1.636c3.935,1.568,7.227,4.386,10.054,7.486c-0.759,1.209-1.422,2.502-1.899,3.849
			c-0.422-0.134-1.09-0.368-1.512-0.518c-4.355-1.65-9.44-3.579-13.92-4.712c-6.098-1.57-12.392-2.656-18.67-3.151
			c-2.89-0.191-5.864-0.315-8.734,0.142c-1.043,0.188-2.135,0.439-3.012,1.062l-0.044,0.033c0,0-0.043,0.034-0.043,0.034
			s-0.042,0.034-0.042,0.034l-0.041,0.035c-1.447,1.235-0.61,3.28,0.136,4.669c1.247,2.234,2.896,4.258,4.56,6.194
			c5.026,5.712,11.004,10.64,17.688,14.291l4.186,2.263c0,0-2.239,3.223-2.239,3.223c-1.753,2.483-3.734,4.873-6.195,6.684
			c-1.866,1.401-3.991,2.442-6.153,3.3c-5.332,2.122-12.111,3.699-17.367,5.995c-1.868,0.827-3.715,1.803-5.247,3.17
			c-3.089-1.339-6.521-2.572-9.721-3.638c-4.339-1.353-16.679-5.505-20.877-6.525c-4.517-1.149-9.214-1.867-13.883-1.604
			c-4.033,0.202-7.998,1.246-11.784,2.609c-5.505,1.939-13.936,6.074-19.331,8.496c-6.416,2.868-13.134,5.392-20.083,6.568
			c-21.836,3.867-45.435-2.32-66.864-6.484c-9.272-1.679-18.87-3.222-28.292-2.051c-4.134,0.527-8.18,1.751-11.989,3.428
			c-5.699,2.453-11.872,6.565-17.157,9.863c-3.78,2.351-7.862,4.599-11.907,6.459c-4.597,2.119-9.53,3.919-14.38,5.364
			c-5.381,1.585-12.911,3.418-17.953,5.712c-2.243,1.021-4.443,2.258-6.229,3.977c-1.277,1.218-2.256,2.728-2.932,4.354
			c-1.539,3.619-1.797,8.207-2.374,12.073c-0.319,2.222-0.918,4.438-1.646,6.56c-1.346,3.864-3.034,8.121-3.154,12.245
			c-0.024,0.837,0.012,1.69,0.186,2.51c0.122,0.578,0.328,1.166,0.652,1.659c0.311,0.476,0.727,0.836,1.221,1.056
			c0.414,0.185,0.867,0.274,1.318,0.303c1.147,0.068,2.291-0.195,3.371-0.561c1.796-0.623,3.477-1.581,4.997-2.717
			c1.495-1.127,2.86-2.461,3.943-3.992c2.628,10.394,7.728,30.062,10.56,40.252c0.306,1.154,0.602,2.468,0.828,3.634
			c0.375,1.963,0.638,3.973,0.737,5.968c0.164,3.277-0.113,6.608-1.035,9.764c-0.294,1.007-0.663,2.022-1.086,2.98
			c-0.353,0.834-0.99,1.982-1.433,2.794c-1.338,2.43-2.871,4.993-4.365,7.329c-2.888,4.513-6.171,9.006-9.534,13.183
			c-2.093,2.592-4.332,5.214-6.702,7.553c-1.074,1.053-2.216,2.081-3.437,2.96c-0.948,0.677-1.698,1.599-2.29,2.596
			c-1.501,2.578-2.152,5.564-2.602,8.486c-0.329,2.171-0.506,5.03-0.679,7.249c-0.397,4.841-0.993,10.232-1.66,15.042
			c-1.406,10.595-3.907,21.392-6.635,31.723c-1.382,5.217-3.015,11.118-4.714,16.221c-0.818,2.439-1.745,5.017-2.804,7.358
			c-0.489,1.07-1.034,2.162-1.684,3.143c-0.322,0.474-0.688,0.936-0.985,1.428c-0.507,0.818-0.926,1.703-1.215,2.621
			c-0.428,1.348-0.574,2.786-0.451,4.195c0.142,1.56,0.566,3.098,1.188,4.534c0.64,1.453,1.594,2.806,2.908,3.72
			c0.301,0.21,0.628,0.404,0.958,0.565c0.415,0.19,0.836,0.392,1.222,0.637c1.236,0.767,2.257,1.847,3.078,3.04
			c0.573,0.833,1.065,1.736,1.485,2.656c0.413,0.991,3.686,8.6,4.163,9.725c0.087,0.188,0.185,0.379,0.289,0.558
			c0.27,0.465,0.601,0.897,0.979,1.278c1.185,1.198,2.798,1.872,4.422,2.236c1.182,0.277,2.483,0.367,3.689,0.501
			c3.756,0.359,7.768,0.46,11.543,0.469c1.171-0.009,2.385-0.047,3.544-0.22c1.653-0.25,4.086-0.819,4.375-2.766
			c0.02-0.145,0.028-0.296,0.025-0.419c-0.014-0.42-0.062-0.963-0.102-1.382c-0.097-0.937-0.249-1.88-0.489-2.791
			c-0.231-0.83-0.495-1.678-0.972-2.404c-0.447-0.676-1.023-1.266-1.627-1.802c-1.045-0.919-2.216-1.711-3.401-2.437
			c-1.85-1.136-3.439-2.662-4.861-4.292c-2.208-2.555-4.084-5.451-5.75-8.384c-1.697-3.04-3.167-6.265-3.95-9.669
			c-0.405-1.719-0.515-3.519-0.544-5.281c-0.043-3.674,0.282-7.499,0.666-11.153c0.402-3.566,0.894-7.608,1.604-11.117
			c0.867-4.393,2.071-8.785,3.559-13.008c1.71-4.905,3.924-9.718,6.338-14.316c2.318-4.443,4.945-8.981,7.672-13.185
			c2.564-3.979,5.561-8.07,8.502-11.785c2.812-3.547,5.848-7.139,9.004-10.387c1.086-1.104,2.45-2.452,3.613-3.487
			c1.135-1.012,2.441-2.129,3.546-3.173c4.854-4.543,9.637-9.74,14.038-14.726c-1.013,6.157-3.262,12.169-6.866,17.285
			c-0.699,1.042-1.687,2.213-2.462,3.21c-1.376,1.8-2.8,3.682-3.983,5.61c-1.132,1.842-2.2,3.774-2.804,5.859
			c-0.522,1.802-0.478,3.723-0.166,5.559c0.454,2.604,1.465,5.097,2.664,7.442c0.963,1.917,9.248,18.278,9.863,19.65
			c1.411,2.969,2.8,6.155,4.012,9.209c1.832,4.526,3.555,9.978,5.094,14.647c1.896,5.587,4.297,12.043,6.463,17.504
			c0.877,2.336,1.741,4.807,2.382,7.217c0.339,1.302,0.642,2.646,0.744,3.99c0.185,3.487,0.065,7.103-0.085,10.589
			c-0.028,1.447,0.022,2.93,0.409,4.332c0.216,0.777,0.585,1.58,1.184,2.125c1.258,1.093,2.789,1.822,4.332,2.421
			c1.16,0.444,2.305,0.729,3.4,1.358c0.888,0.495,1.705,1.149,2.303,1.977c0.395,0.524,0.63,1.149,0.952,1.716
			c0.522,0.939,1.161,1.824,1.863,2.636c0.4,0.462,0.839,0.922,1.28,1.346c0,0,0.155,0.147,0.155,0.147
			c0.034,0.027,0.085,0.082,0.121,0.109c0.112,0.097,0.235,0.193,0.356,0.278c0.693,0.486,1.495,0.803,2.301,1.048
			c2.443,0.707,5.028,0.851,7.558,0.911c0,0,1.091,0.009,1.091,0.009h12.978c0.409,0,0.823-0.041,1.219-0.144
			c0.771-0.192,1.465-0.659,1.91-1.32c0.761-1.131,0.91-2.548,0.919-3.88c-0.004-1.498-0.196-3.045-0.88-4.396
			c-0.493-0.983-1.287-1.811-2.265-2.318c-2.329-1.1-8.682-3.612-11.143-4.647c-0.493-0.213-1.003-0.459-1.476-0.713
			c-1.622-0.87-3.127-1.968-4.502-3.19c-5.354-4.819-8.992-11.234-11.803-17.793c-2.894-6.766-5.166-13.981-7.132-21.068
			c-2.084-7.618-3.846-15.511-4.697-23.37c-0.193-1.906-0.388-3.908-0.372-5.826c0.01-2.027,0.199-4.081,0.522-6.081
			c0.743-4.589,2.204-9.083,4.003-13.361c0.868-2.052,1.9-4.236,2.923-6.216c6.06-11.337,24.043-43.06,29.671-54.194
			c5.944,3.017,12.198,5.885,18.462,8.153c5.973,2.174,12.218,3.911,18.467,5.086c9.744,1.835,19.782,2.395,29.683,2.111
			c11.338-0.346,22.738-1.809,33.77-4.462c-0.633,16.074-1.077,32.655,0.83,48.638c1.012,6.931,1.827,14.127,2.218,21.125
			c0.691,11.626,0.554,23.77-0.009,35.408c-0.514,8.568-1.136,17.41-4.081,25.539c-0.496,1.295-1.078,2.582-1.857,3.734
			c-0.323,0.482-0.705,0.937-1.114,1.349c-1.117,1.204-2.162,2.625-2.386,4.294c-0.136,1.041,0.155,2.104,0.653,3.016
			c0.485,0.876,1.216,1.6,2.044,2.155c0.287,0.199,0.606,0.361,0.896,0.555c0.359,0.242,0.691,0.53,0.988,0.844
			c1.102,1.174,1.794,2.672,2.321,4.178c0.36,1.005,0.562,2.076,0.973,3.063c0.475,1.166,1.183,2.294,2.255,2.993
			c0.667,0.439,1.455,0.678,2.25,0.725c2.355,0.017,12.863,0.048,15.043-0.041c1.404-0.066,2.865-0.165,4.248-0.423
			c0.861-0.168,1.742-0.374,2.505-0.823c2.108-1.309,0.78-3.601-0.371-5.08c-1.197-1.567-2.592-3.011-4.08-4.304
			c-0.944-0.837-2.018-1.577-2.954-2.421c-1.71-1.534-3.161-3.367-4.347-5.331c-1.369-2.188-2.187-4.688-2.61-7.224
			c-0.458-2.72-0.521-5.515-0.354-8.264c0.193-3.202,0.631-6.549,1.119-9.72c0.801-5.359,8.17-43.723,9.283-49.87
			c1.117,4.273,2.615,8.636,3.639,12.932c1.73,7.137,2.849,14.557,3.611,21.857c0.103,1.218,2.742,25.005,2.738,25.619
			c0.096,1.333,0.133,2.709,0.088,4.044c-0.053,1.547-0.219,3.118-0.541,4.632c-0.146,0.731-0.387,1.475-0.546,2.203
			c-0.432,1.944-0.49,4.065,0.359,5.907c0.433,0.961,1.15,1.79,1.81,2.6c0.737,0.864,1.541,1.697,2.48,2.343
			c0.226,0.159,0.474,0.29,0.708,0.435c0.197,0.13,0.377,0.288,0.54,0.459c0.392,0.413,0.698,0.903,0.959,1.407
			c0.4,0.779,0.702,1.616,0.958,2.452c0.15,0.512,0.313,1.094,0.435,1.613c0.055,0.227,0.125,0.461,0.207,0.68
			c0.195,0.523,0.476,1.019,0.828,1.453c0.735,0.91,1.766,1.538,2.85,1.952c1.56,0.592,3.244,0.811,4.903,0.894
			c0.433,0.052,13.025,0.026,13.791,0.031c0.372-0.008,0.771-0.011,1.141-0.054c0.725-0.073,1.453-0.226,2.121-0.524
			c0.534-0.233,1.055-0.603,1.419-1.027c0.488-0.56,0.795-1.238,0.938-1.96c0.154-0.792,0.104-1.612-0.052-2.399
			c-0.122-0.629-0.315-1.249-0.607-1.82c-0.62-1.224-1.568-2.252-2.597-3.146c-1.234-1.072-2.71-1.953-3.998-2.959
			c-2.097-1.608-4.122-3.381-5.9-5.339c-1.104-1.26-2.068-2.667-2.94-4.095c-1.001-1.644-1.946-3.459-2.778-5.195
			c-0.516-1.071-1.037-2.25-1.435-3.368c-1.394-3.874-2.11-7.989-2.487-12.08c-0.315-3.061-0.342-7.847-0.424-10.961
			c-0.109-6.176-0.095-13.571,0.108-19.739c0.264-8.372,0.9-18.878,1.168-27.245c0.609-17.695,0.4-37.395,3.869-54.763
			c0.447-2.15,0.977-4.354,1.691-6.433c0.449-1.279,0.968-2.576,1.7-3.723c0.211-0.326,0.444-0.648,0.705-0.937
			c0.471-0.513,1.027-0.96,1.555-1.411c1.744-1.439,3.684-2.7,5.623-3.857c1.778-1.181,19.658-10.585,21.682-11.771
			c0.128,0.239,0.287,0.446,0.483,0.597c0.024,0.018,0.049,0.036,0.049,0.036c0.025,0.017,0.05,0.034,0.05,0.034
			c0.025,0.016,0.051,0.031,0.051,0.031c0.026,0.015,0.052,0.029,0.052,0.029c0.027,0.014,0.054,0.027,0.054,0.027
			c0.027,0.013,0.055,0.025,0.055,0.025c0.028,0.012,0.056,0.023,0.056,0.023c0.028,0.011,0.057,0.021,0.057,0.021
			c0.029,0.01,0.058,0.019,0.058,0.019c0.03,0.009,0.059,0.017,0.059,0.017c0.496,0.123,0.979,0.055,1.466-0.055
			c0.849-0.204,1.672-0.57,2.463-0.935c0.844-0.396,2.523-1.248,3.381-1.556c0.47-0.169,1.012-0.341,1.504-0.295
			c0.025,0.003,0.051,0.006,0.051,0.006c0.025,0.004,0.049,0.008,0.049,0.008c0.024,0.005,0.048,0.01,0.048,0.01
			c0.024,0.006,0.047,0.012,0.047,0.012c0.023,0.007,0.036,0.011,0.036,0.011c0.027,0.009,0.04,0.014,0.04,0.014
			c0.026,0.01,0.039,0.015,0.039,0.015c0.025,0.011,0.038,0.017,0.038,0.017c0.025,0.012,0.037,0.018,0.037,0.018
			c0.024,0.013,0.036,0.019,0.036,0.019c0.023,0.014,0.035,0.021,0.035,0.021c0.023,0.015,0.034,0.022,0.034,0.022
			c0.022,0.015,0.033,0.023,0.033,0.023c0.032,0.025,0.043,0.033,0.043,0.033c0.031,0.026,0.041,0.035,0.041,0.035
			c0.03,0.028,0.04,0.037,0.04,0.037c0.029,0.029,0.038,0.039,0.038,0.039c0.028,0.031,0.037,0.041,0.037,0.041
			c0.26,0.315,0.375,0.649,0.503,1.014c0.139,0.404,0.285,0.978,0.514,1.332c0.021,0.031,0.028,0.041,0.028,0.041
			c0.021,0.029,0.029,0.039,0.029,0.039c0.022,0.028,0.03,0.037,0.03,0.037c0.023,0.026,0.031,0.035,0.031,0.035
			c0.024,0.025,0.032,0.033,0.032,0.033c0.025,0.023,0.033,0.031,0.033,0.031c0.026,0.021,0.034,0.028,0.034,0.028
			c0.026,0.02,0.035,0.026,0.035,0.026c0.027,0.018,0.037,0.023,0.037,0.023c0.028,0.016,0.038,0.021,0.038,0.021
			c0.019,0.009,0.038,0.018,0.038,0.018c0.02,0.008,0.04,0.015,0.04,0.015c0.02,0.007,0.041,0.013,0.041,0.013
			c0.021,0.005,0.042,0.01,0.042,0.01c0.022,0.004,0.043,0.008,0.043,0.008c0.022,0.003,0.045,0.006,0.045,0.006
			c0.023,0.002,0.046,0.003,0.046,0.003c0.023,0.001,0.047,0.001,0.047,0.001c0.024,0,0.048-0.001,0.048-0.001
			c0.025-0.002,0.05-0.004,0.05-0.004c0.025-0.003,0.051-0.006,0.051-0.006c0.026-0.004,0.052-0.008,0.052-0.008
			c0.455-0.089,0.813-0.296,1.197-0.521c1.417-0.862,3.887-3.01,5.216-4.053c1.484-1.153,3.022-2.328,4.777-3.037
			c1.286-0.53,2.821-0.745,4.191-0.971c0.942-0.165,1.894-0.405,2.72-0.901c1.07-0.625,1.85-1.629,2.505-2.661
			c1.572-2.451,2.857-5.904,4.227-8.475c0.213-0.372,0.452-0.795,0.766-1.081c0.017-0.015,0.034-0.029,0.034-0.029
			c0.017-0.013,0.034-0.026,0.034-0.026c0.017-0.012,0.034-0.023,0.034-0.023c0.017-0.01,0.033-0.02,0.033-0.02
			c0.016-0.009,0.033-0.017,0.033-0.017c0.032-0.015,0.048-0.021,0.048-0.021c0.032-0.01,0.047-0.014,0.047-0.014
			c0.031-0.006,0.046-0.007,0.046-0.007c0.03-0.001,0.046-0.001,0.046-0.001c0.03,0.003,0.038,0.005,0.038,0.005
			c0.03,0.008,0.038,0.01,0.038,0.01c0.03,0.012,0.037,0.015,0.037,0.015c0.029,0.016,0.037,0.02,0.037,0.02
			c0.029,0.02,0.036,0.025,0.036,0.025c0.028,0.023,0.036,0.029,0.036,0.029c0.028,0.027,0.035,0.034,0.035,0.034
			c0.028,0.03,0.035,0.038,0.035,0.038c0.021,0.025,0.027,0.033,0.027,0.033c0.31,0.419,0.515,1.073,0.723,1.546
			c0.143,0.334,0.315,0.716,0.541,0.991c0.026,0.03,0.034,0.04,0.034,0.04c0.026,0.029,0.035,0.038,0.035,0.038
			c0.027,0.027,0.036,0.036,0.036,0.036c0.027,0.025,0.036,0.033,0.036,0.033c0.028,0.023,0.037,0.031,0.037,0.031
			c0.028,0.022,0.038,0.028,0.038,0.028c0.029,0.02,0.038,0.026,0.038,0.026c0.029,0.017,0.039,0.023,0.039,0.023
			c0.018,0.01,0.036,0.018,0.036,0.018c0.018,0.008,0.037,0.016,0.037,0.016c0.019,0.007,0.038,0.014,0.038,0.014
			c0.019,0.006,0.038,0.011,0.038,0.011c0.019,0.005,0.039,0.009,0.039,0.009c0.02,0.004,0.039,0.007,0.039,0.007
			c0.02,0.002,0.04,0.004,0.04,0.004c0.02,0.001,0.04,0.002,0.04,0.002c0.02,0,0.041,0,0.041,0c0.021-0.001,0.041-0.002,0.041-0.002
			c0.021-0.002,0.042-0.005,0.042-0.005c0.021-0.003,0.043-0.007,0.043-0.007c0.021-0.004,0.043-0.009,0.043-0.009
			c0.022-0.005,0.044-0.011,0.044-0.011c0.022-0.006,0.044-0.013,0.044-0.013c0.022-0.007,0.044-0.015,0.044-0.015
			c0.022-0.008,0.045-0.017,0.045-0.017c0.523-0.234,0.886-0.637,1.254-1.051c0.646-0.76,1.197-1.628,1.706-2.484
			c1.408-2.42,2.576-5.011,3.565-7.629c0.308-0.82,1.187-3.321,1.531-4.095c0.099-0.225,0.226-0.494,0.36-0.687
			c0.025-0.036,0.041-0.057,0.05-0.068c0.025-0.03,0.033-0.04,0.033-0.04c0.024-0.027,0.032-0.035,0.032-0.035
			c0.032-0.031,0.04-0.038,0.04-0.038c0.032-0.025,0.039-0.03,0.039-0.03c0.031-0.019,0.039-0.023,0.039-0.023
			c0.031-0.013,0.038-0.015,0.038-0.015c0.03-0.007,0.038-0.008,0.038-0.008c0.03-0.001,0.037,0,0.037,0
			c0.029,0.006,0.037,0.008,0.037,0.008c0.029,0.012,0.036,0.016,0.036,0.016c0.029,0.019,0.036,0.024,0.036,0.024
			c0.029,0.026,0.035,0.032,0.035,0.032c0.028,0.031,0.033,0.038,0.033,0.038c0.022,0.029,0.027,0.036,0.027,0.036
			c0.144,0.218,0.217,0.436,0.31,0.672c0.199,0.541,0.42,1.195,0.676,1.707c0.237,0.477,0.565,0.987,1.029,1.227
			c0.027,0.013,0.054,0.026,0.054,0.026c0.027,0.012,0.055,0.024,0.055,0.024c0.028,0.011,0.056,0.022,0.056,0.022
			c0.028,0.01,0.057,0.019,0.057,0.019c0.029,0.009,0.058,0.017,0.058,0.017c0.029,0.008,0.059,0.015,0.059,0.015
			c0.03,0.006,0.06,0.012,0.06,0.012c0.03,0.005,0.061,0.01,0.061,0.01c0.031,0.004,0.062,0.008,0.062,0.008
			c0.031,0.003,0.063,0.005,0.063,0.005c0.032,0.002,0.063,0.003,0.063,0.003c0.642,0.014,1.244-0.261,1.788-0.576
			c1.342-0.814,2.441-1.981,3.428-3.187c2.248-2.803,3.896-6.09,4.812-9.564c0.397-1.47,0.704-3.031,0.954-4.533
			c0.259-1.557,0.604-4.244,0.986-5.758c0.142-0.528,0.316-1.118,0.653-1.543c0.017-0.021,0.035-0.041,0.035-0.041
			c0.018-0.02,0.035-0.039,0.035-0.039c0.018-0.018,0.036-0.036,0.036-0.036c0.018-0.017,0.037-0.034,0.037-0.034
			c0.019-0.016,0.037-0.032,0.037-0.032c0.019-0.015,0.038-0.03,0.038-0.03c0.019-0.014,0.039-0.027,0.039-0.027
			c0.02-0.013,0.04-0.025,0.04-0.025c0.029-0.017,0.038-0.021,0.038-0.021c0.028-0.014,0.037-0.018,0.037-0.018
			c0.028-0.013,0.038-0.017,0.038-0.017c0.029-0.011,0.038-0.015,0.038-0.015c0.029-0.01,0.039-0.013,0.039-0.013
			c0.029-0.009,0.039-0.011,0.039-0.011c0.03-0.008,0.04-0.01,0.04-0.01c0.03-0.006,0.041-0.008,0.041-0.008
			c0.48-0.077,0.977,0.094,1.443,0.168c0.471,0.09,1.014,0.107,1.442-0.092c0.75-0.353,1.236-1.044,1.66-1.708
			c0.634-1.038,1.104-2.182,1.515-3.324c1.323-3.821,2.108-7.849,2.527-11.866c0.266-2.393,0.315-5.991,0.433-8.416
			c0.034-0.588,0.084-1.215,0.17-1.798c0.171-1.284,0.657-2.671,1.061-3.9c2.094,0.561,4.271,0.957,6.446,0.833
			c3.178-0.189,6.273-1.314,8.941-3.03c1.648-1.067,3.139-2.412,4.239-4.046c1.117-1.635,1.83-3.516,2.366-5.412
			c1.492-1.04,2.212-2.862,2.471-4.606c0.221-1.617,0.113-3.391-0.818-4.783c-0.521-0.784-1.264-1.397-2.064-1.881
			c-1.036-0.625-2.178-1.08-3.335-1.426c-1.622-1.576-3.038-3.392-4.138-5.369c-0.867-1.57-1.549-3.269-1.839-5.045
			c-0.37-2.228,0.026-4.503,0.575-6.668l0.551-2.083c6.305-4.091,11.872-9.344,16.348-15.381c1.424-1.961,5.16-6.935,3.776-9.322
			c-1.591-2.645-9.469-1.608-12.168-1.127c-1.574,0.279-3.158,0.643-4.66,1.196c-1.361,0.494-2.674,1.176-3.932,1.888
			c-0.489-1.697-0.973-3.491-1.657-5.119c1.438-1.196,2.977-2.544,4.599-3.467c1.069-0.62,2.23-1.1,3.437-1.373
			c1.877-0.424,3.84-0.368,5.75-0.251c4.059,0.257,8.72,1.104,12.763,0.475C569.538,284.08,571.739,283.182,573.586,281.797z"/>
	</g>
</g>
</svg>
