<?xml version="1.0" encoding="utf-8"?>
<!-- Generator: Adobe Illustrator 24.2.0, SVG Export Plug-In . SVG Version: 6.00 Build 0)  -->
<!DOCTYPE svg PUBLIC "-//W3C//DTD SVG 1.1//EN" "http://www.w3.org/Graphics/SVG/1.1/DTD/svg11.dtd" [
	<!ENTITY ns_extend "http://ns.adobe.com/Extensibility/1.0/">
	<!ENTITY ns_ai "http://ns.adobe.com/AdobeIllustrator/10.0/">
	<!ENTITY ns_graphs "http://ns.adobe.com/Graphs/1.0/">
	<!ENTITY ns_vars "http://ns.adobe.com/Variables/1.0/">
	<!ENTITY ns_imrep "http://ns.adobe.com/ImageReplacement/1.0/">
	<!ENTITY ns_sfw "http://ns.adobe.com/SaveForWeb/1.0/">
	<!ENTITY ns_custom "http://ns.adobe.com/GenericCustomNamespace/1.0/">
	<!ENTITY ns_adobe_xpath "http://ns.adobe.com/XPath/1.0/">
]>
<svg version="1.1" xmlns:x="&ns_extend;" xmlns:i="&ns_ai;" xmlns:graph="&ns_graphs;"
	 xmlns="http://www.w3.org/2000/svg" xmlns:xlink="http://www.w3.org/1999/xlink" x="0px" y="0px" width="750px" height="750px"
	 viewBox="0 0 750 750" enable-background="new 0 0 750 750" xml:space="preserve">
<metadata>
	<sfw  xmlns="&ns_sfw;">
		<slices></slices>
		<sliceSourceBounds  bottomLeftOrigin="true" height="9750" width="8220" x="-4000" y="-1526"></sliceSourceBounds>
	</sfw>
</metadata>
<g id="FILL-BACKGROUND">
	<rect fill="#FFFFFF" width="750" height="750"/>
</g>
<g id="N-TEXT">
</g>
<g id="N-DIMENSIONS">
</g>
<g id="AG-DIAGRAM">
	<g id="POLYLINE_76_">
		<g>
			<g>
				
					<line fill="none" stroke="#FB8604" stroke-width="3.25" stroke-linecap="round" stroke-linejoin="round" x1="143.237" y1="638.765" x2="145.237" y2="638.765"/>
				
					<line fill="none" stroke="#FB8604" stroke-width="3.25" stroke-linecap="round" stroke-linejoin="round" stroke-dasharray="3.9847,6.9733" x1="152.21" y1="638.765" x2="488.421" y2="638.765"/>
				
					<line fill="none" stroke="#FB8604" stroke-width="3.25" stroke-linecap="round" stroke-linejoin="round" x1="491.907" y1="638.765" x2="493.907" y2="638.765"/>
			</g>
		</g>
	</g>
</g>
<g id="AG-DETAIL-DIAGRAM">
</g>
<g id="AG-DETAILS">
</g>
<g id="AG-ANIMALS">
	<g id="POLYLINE_417_">
		
			<path fill="none" stroke="#FB8604" stroke-width="2.75" stroke-linecap="round" stroke-linejoin="round" stroke-miterlimit="10" d="
			M494.026,276.978c-4.595,3.074-8.873,6.731-12.43,10.973c-2.524,3.008-4.668,6.378-6.092,10.047
			c-1.095,2.731-2.041,5.933-3.309,8.588c-0.644,1.358-1.412,2.675-2.312,3.879c-1.725,2.301-3.873,4.31-6.02,6.212
			c-1.974,1.737-5.771,4.819-7.537,6.648c-1.027,1.066-2.016,2.26-2.454,3.699c-0.252,0.825-0.278,1.706-0.132,2.553
			c0.224,1.355,0.909,3.103,1.278,4.437c0.252,0.883,0.456,1.788,0.551,2.701c0.085,0.804,0.08,1.629,0.032,2.436
			c-0.174,2.764-0.86,6.038-0.891,8.803c-0.023,1.137,0.036,2.291,0.213,3.415c0.202,1.291,0.558,2.58,1.001,3.809
			c0.949,2.62,2.326,5.096,3.854,7.421c2.387,3.614,5.268,7.014,8.207,10.193c4.956,5.376,10.917,10.925,14.109,17.579
			c1.638,3.339,2.386,7.049,2.699,10.735c0.564,6.198-0.02,12.935,0.783,19.112c0.273,2.032,0.78,4.062,1.395,6.016
			c0.774,2.497,2.158,6.005,2.806,8.533c0.374,1.431,0.63,2.91,0.685,4.39c0.165,3.39-0.615,7.133-0.623,10.519
			c0.011,1.475,0.208,3.022,0.974,4.307c0.545,0.926,1.453,1.597,2.516,1.574c0.567-0.002,1.062-0.146,1.584-0.324
			c0.684-0.236,1.358-0.583,2.001-0.912c2.617-1.409,5.375-3.128,8.294-3.8c2.343-0.531,4.787-0.383,7.154-0.103
			c2.867,0.345,6.467,1.042,9.329,0.739c1.93-0.199,3.826-0.815,5.487-1.823c1.609-0.979,3.028-2.348,3.86-4.054
			c0.723-1.456,1.066-3.23,1.578-4.767c0.277-0.829,0.627-1.646,1.118-2.372c0.789-1.178,2.074-2.291,3.105-3.266
			c0.991-0.946,2.029-1.943,2.573-3.225c0.263-0.627,0.369-1.311,0.397-1.987c0.075-2.004-0.438-4.109,0.035-6.089
			c0.221-0.939,0.694-1.799,1.231-2.593c0.888-1.311,2.249-2.825,3.165-4.116c0.733-1.025,1.386-2.134,1.755-3.345
			c0.612-2.039,0.432-4.218,0.183-6.302c-0.249-2.052-0.813-4.921-0.657-6.957c0.067-0.967,0.35-1.915,0.811-2.767
			c0.803-1.496,2.125-2.834,3.137-4.188c1.185-1.568,2.139-3.326,2.889-5.14c0.782-1.923,1.371-3.96,1.53-6.036
			c0.134-1.59-0.084-3.291,0.005-4.883c0.028-0.417,0.102-0.9,0.232-1.281c0.124-0.368,0.269-0.636,0.463-0.949
			c0.585-0.9,1.328-1.762,1.667-2.799c0.323-0.916,0.346-1.907,0.267-2.866c-0.18-2.067-0.746-4.144-1.298-6.14l-2.006-6.73
			c-0.299-1.09-0.609-2.224-0.757-3.345c-0.118-0.859-0.084-1.807,0.31-2.579c0.173-0.356,0.401-0.691,0.637-1.009
			c2.416-3.153,5.94-7.332,8.012-10.677c0.609-0.986,1.088-2.172,1.517-3.248c1.366-3.431,2.803-7.053,3.727-10.629"/>
	</g>
	<g id="POLYLINE_416_">
		
			<path fill="none" stroke="#FB8604" stroke-width="2.75" stroke-linecap="round" stroke-linejoin="round" stroke-miterlimit="10" d="
			M436.327,625.967c3.575-2.759,7.475-5.173,11.531-7.16"/>
	</g>
	<g id="POLYLINE_415_">
		
			<path fill="none" stroke="#FB8604" stroke-width="2.75" stroke-linecap="round" stroke-linejoin="round" stroke-miterlimit="10" d="
			M435.889,527.707c1.093,20.385,2.124,42.968,5.033,63.081c1.134,7.18,2.338,14.787,4.377,21.756
			c0.433,1.427,0.922,2.892,1.535,4.25c1.453,3.134,3.427,6.065,5.934,8.451c0.652,0.621,1.38,1.238,2.099,1.78
			c0.789,0.574,1.587,1.187,2.294,1.859c1.369,1.293,2.589,2.879,2.976,4.758c0.214,1.088,0.192,2.335-0.365,3.318
			c-0.634,1.11-1.841,1.57-3.034,1.728c-0.594,0.09-1.266,0.078-1.867,0.072c-4.775-0.093-10.201-0.724-14.97-1.235"/>
	</g>
	<g id="POLYLINE_414_">
		
			<path fill="none" stroke="#FB8604" stroke-width="2.75" stroke-linecap="round" stroke-linejoin="round" stroke-miterlimit="10" d="
			M460.736,198.402c-1.59,0.488-4.256,1.593-5.833,2.207c-1.513,0.565-3.076,1.115-4.695,1.254
			c-1.079,0.092-2.199-0.038-3.179-0.519c-1.124-0.548-1.999-1.486-2.795-2.429c-2.086-2.527-3.899-5.613-6.647-7.493
			c-1.455-0.98-3.132-1.639-4.861-1.934c-0.72-0.108-1.586-0.203-2.275,0.032c-0.03,0.012-0.045,0.018-0.045,0.018
			c-0.043,0.019-0.057,0.026-0.057,0.026c-0.04,0.021-0.052,0.028-0.052,0.028c-0.037,0.022-0.048,0.03-0.048,0.03
			c-0.033,0.023-0.044,0.031-0.044,0.031c-0.039,0.033-0.048,0.042-0.048,0.042c-0.033,0.036-0.041,0.045-0.041,0.045
			c-0.028,0.039-0.032,0.046-0.032,0.046c-0.022,0.041-0.026,0.048-0.026,0.048c-0.014,0.036-0.017,0.044-0.017,0.044
			c-0.01,0.038-0.012,0.045-0.012,0.045c-0.007,0.039-0.008,0.047-0.008,0.047c-0.003,0.041-0.003,0.049-0.003,0.049
			c0.001,0.042,0.001,0.051,0.001,0.051c0.003,0.035,0.004,0.044,0.004,0.044c0.005,0.036,0.007,0.045,0.007,0.045
			c0.008,0.037,0.01,0.046,0.01,0.046c0.01,0.038,0.012,0.048,0.012,0.048c0.012,0.039,0.018,0.059,0.018,0.059
			c0.014,0.04,0.022,0.061,0.022,0.061c0.017,0.041,0.026,0.062,0.026,0.062c0.337,0.717,1.075,1.549,1.544,2.194
			c0.683,0.909,1.314,1.889,1.872,2.879c1.103,1.969,2.004,4.081,2.533,6.279c0.48,2.002,0.612,4.132,0.072,6.136"/>
	</g>
	<g id="POLYLINE_413_">
		
			<path fill="none" stroke="#FB8604" stroke-width="2.75" stroke-linecap="round" stroke-linejoin="round" stroke-miterlimit="10" d="
			M537.699,221.955l-2.663-2.989c-1.481-1.691-2.854-3.512-3.907-5.502c-1.165-2.17-1.987-4.53-2.669-6.891
			c-1.389-4.868-2.305-10.11-3.094-15.113c-2.523-17.082-4.383-37.141-8.153-53.952c-1.26-5.709-2.643-11.563-4.798-17.007
			c-0.635-1.575-1.36-3.151-2.233-4.609c-0.589-0.976-1.258-1.926-2.056-2.743c-0.755-0.776-1.658-1.428-2.672-1.821
			c-0.67-0.255-1.435-0.427-2.114-0.258c-0.043,0.012-0.057,0.017-0.057,0.017c-0.042,0.014-0.056,0.018-0.056,0.018
			c-0.04,0.015-0.054,0.02-0.054,0.02c-0.039,0.016-0.052,0.022-0.052,0.022c-0.038,0.018-0.05,0.024-0.05,0.024
			c-0.036,0.019-0.048,0.026-0.048,0.026c-0.035,0.02-0.046,0.027-0.046,0.027c-0.033,0.022-0.044,0.029-0.044,0.029
			c-0.042,0.031-0.052,0.039-0.052,0.039c-0.039,0.033-0.048,0.042-0.048,0.042c-0.036,0.035-0.045,0.044-0.045,0.044
			c-0.033,0.038-0.041,0.047-0.041,0.047c-0.03,0.04-0.038,0.05-0.038,0.05c-0.027,0.042-0.034,0.053-0.034,0.053
			c-0.017,0.031-0.026,0.047-0.026,0.047c-0.016,0.032-0.023,0.048-0.023,0.048c-0.014,0.033-0.02,0.05-0.02,0.05
			c-0.012,0.035-0.018,0.052-0.018,0.052c-0.01,0.036-0.015,0.054-0.015,0.054c-0.009,0.037-0.013,0.056-0.013,0.056
			c-0.007,0.038-0.01,0.058-0.01,0.058c-0.005,0.04-0.008,0.06-0.008,0.06c-0.004,0.041-0.005,0.061-0.005,0.061
			c-0.002,0.042-0.003,0.063-0.003,0.063c-0.006,0.377,0.078,0.706,0.183,1.057c0.163,0.524,0.394,1.053,0.623,1.553
			c1.274,2.646,2.87,5.444,3.759,8.252c1.433,4.275,1.978,8.895,2.408,13.369l3.153,39.208l0.083,1.172
			c0.046,0.653,0.09,1.617,0.114,2.259c0.054,1.712,0.038,3.469-0.164,5.171c-0.26,2.255-0.886,4.498-2.042,6.463
			c-1.183,2.038-2.947,3.731-5.035,4.824c-1.734,0.914-3.657,1.454-5.595,1.716c-2.183,0.289-4.426,0.227-6.582-0.226
			c-1.294-0.275-2.573-0.7-3.755-1.297c-1.288-0.652-2.469-1.517-3.553-2.465c-2.287-1.967-4.287-4.585-6.666-6.445
			c-0.636-0.482-1.323-0.912-2.06-1.22c-0.566-0.232-1.227-0.424-1.822-0.328c-0.043,0.008-0.057,0.011-0.057,0.011
			c-0.042,0.009-0.055,0.012-0.055,0.012c-0.041,0.011-0.054,0.014-0.054,0.014c-0.04,0.012-0.053,0.016-0.053,0.016
			c-0.039,0.013-0.051,0.018-0.051,0.018c-0.038,0.015-0.05,0.02-0.05,0.02c-0.037,0.016-0.049,0.022-0.049,0.022
			c-0.036,0.018-0.047,0.024-0.047,0.024c-0.035,0.019-0.046,0.026-0.046,0.026c-0.033,0.021-0.044,0.028-0.044,0.028
			c-0.043,0.03-0.053,0.038-0.053,0.038c-0.041,0.033-0.051,0.041-0.051,0.041c-0.039,0.035-0.048,0.044-0.048,0.044
			c-0.037,0.038-0.046,0.047-0.046,0.047c-0.03,0.035-0.04,0.047-0.04,0.047c-0.029,0.037-0.038,0.05-0.038,0.05
			c-0.027,0.039-0.036,0.052-0.036,0.052c-0.026,0.041-0.034,0.055-0.034,0.055c-0.187,0.327-0.249,0.68-0.293,1.015
			c-0.053,0.445-0.055,0.912-0.049,1.36c0.02,1.393,0.176,2.932-0.086,4.307c-0.139,0.74-0.396,1.467-0.809,2.1
			c-0.435,0.669-1.014,1.191-1.692,1.566c-1.504,0.808-3.288,0.979-4.956,1.202"/>
	</g>
	<g id="POLYLINE_412_">
		
			<path fill="none" stroke="#FB8604" stroke-width="2.75" stroke-linecap="round" stroke-linejoin="round" stroke-miterlimit="10" d="
			M467.752,206.645c5.959-1.154,12.118-1.236,18.163-0.886c5.772,0.334,11.644,1.037,17.092,3.058
			c2.29,0.849,4.512,1.944,6.547,3.296c2.625,1.745,4.98,3.906,7.054,6.275c3.98,4.566,7.046,9.934,9.158,15.603"/>
	</g>
	<g id="POLYLINE_411_">
		
			<path fill="none" stroke="#FB8604" stroke-width="2.75" stroke-linecap="round" stroke-linejoin="round" stroke-miterlimit="10" d="
			M446.803,214.767c4.278-2.394,8.781-4.518,13.422-6.109"/>
	</g>
	<g id="POLYLINE_410_">
		
			<path fill="none" stroke="#FB8604" stroke-width="2.75" stroke-linecap="round" stroke-linejoin="round" stroke-miterlimit="10" d="
			M427.15,217.849c-2.196,1.636-4.707,3.475-6.663,5.369c-2.228,2.126-4.249,4.514-5.85,7.15c-0.612,1.023-1.189,2.097-1.614,3.212
			c-0.201,0.558-0.415,1.187-0.363,1.78c0.004,0.035,0.006,0.046,0.006,0.046c0.006,0.034,0.008,0.045,0.008,0.045
			c0.007,0.033,0.009,0.043,0.009,0.043c0.011,0.042,0.014,0.052,0.014,0.052c0.013,0.04,0.016,0.05,0.016,0.05
			c0.015,0.038,0.019,0.047,0.019,0.047c0.017,0.036,0.021,0.045,0.021,0.045c0.024,0.042,0.029,0.05,0.029,0.05
			c0.027,0.039,0.033,0.047,0.033,0.047c0.037,0.043,0.043,0.05,0.043,0.05c0.041,0.038,0.048,0.044,0.048,0.044
			c0.038,0.028,0.046,0.033,0.046,0.033c0.041,0.025,0.056,0.032,0.056,0.032c0.03,0.014,0.045,0.021,0.045,0.021
			c0.032,0.012,0.048,0.018,0.048,0.018c0.033,0.011,0.051,0.015,0.051,0.015c0.035,0.009,0.053,0.013,0.053,0.013
			c0.037,0.007,0.056,0.01,0.056,0.01c0.039,0.005,0.058,0.007,0.058,0.007c0.04,0.003,0.061,0.005,0.061,0.005
			c0.366,0.012,0.674-0.069,1.013-0.167c0.478-0.146,0.952-0.348,1.405-0.558c1.078-0.504,2.176-1.139,3.197-1.754
			c4.463-2.673,11.481-7.949,15.778-11.025"/>
	</g>
	<g id="POLYLINE_409_">
		
			<path fill="none" stroke="#FB8604" stroke-width="2.75" stroke-linecap="round" stroke-linejoin="round" stroke-miterlimit="10" d="
			M544.439,235.756c-0.004-1,0.025-2.041,0.381-2.987c0.27-0.741,0.687-1.426,1.135-2.071c0.856-1.217,1.889-2.358,2.906-3.443
			l4.497-4.61c3.259-3.416,6.357-7.197,7.965-11.694c1.419-3.963,1.846-8.257,1.468-12.439c-0.234-2.488-0.768-4.971-1.73-7.283
			c-0.221-0.524-0.473-1.064-0.76-1.556c-0.21-0.36-0.474-0.761-0.769-1.037c-0.033-0.03-0.044-0.039-0.044-0.039
			c-0.033-0.027-0.044-0.036-0.044-0.036c-0.043-0.033-0.054-0.04-0.054-0.04c-0.042-0.029-0.053-0.035-0.053-0.035
			c-0.041-0.024-0.051-0.03-0.051-0.03c-0.04-0.02-0.05-0.024-0.05-0.024c-0.039-0.016-0.049-0.019-0.049-0.019
			c-0.038-0.011-0.048-0.013-0.048-0.013c-0.037-0.006-0.047-0.007-0.047-0.007c-0.036-0.002-0.045-0.002-0.045-0.002
			c-0.043,0.004-0.05,0.005-0.05,0.005c-0.037,0.009-0.044,0.012-0.044,0.012c-0.042,0.018-0.049,0.021-0.049,0.021
			c-0.041,0.025-0.047,0.03-0.047,0.03c-0.039,0.032-0.045,0.038-0.045,0.038c-0.037,0.039-0.044,0.046-0.044,0.046
			c-0.03,0.038-0.036,0.046-0.036,0.046c-0.029,0.042-0.035,0.051-0.035,0.051c-0.022,0.037-0.028,0.047-0.028,0.047
			c-0.016,0.03-0.027,0.051-0.027,0.051c-0.138,0.282-0.197,0.542-0.264,0.836c-0.232,1.075-0.486,3.869-0.629,5.004
			c-0.335,2.7-0.76,5.513-1.417,8.152c-0.416,1.658-0.937,3.323-1.685,4.863c-1.044,2.194-2.594,4.128-4.199,5.937"/>
	</g>
	<g id="POLYLINE_408_">
		
			<path fill="none" stroke="#FB8604" stroke-width="2.75" stroke-linecap="round" stroke-linejoin="round" stroke-miterlimit="10" d="
			M541.773,260.913c-0.218-1.221-0.093-2.486,0.213-3.68c0.213-0.803,0.533-1.651,1.053-2.303c0.626-0.772,1.503-1.136,2.378-1.517
			c6.871-2.814,17.037-5.718,24.156-8.069c2.446-0.835,4.982-1.786,7.322-2.876c2.639-1.224,5.212-2.693,7.552-4.423
			c4.928-3.639,9.102-8.324,12.147-13.64c2.341-4.13,4.057-8.725,4.681-13.444c0.131-1.117,0.2-2.263,0.065-3.383
			c-0.088-0.733-0.297-1.554-0.797-2.095c-0.04-0.042-0.053-0.055-0.053-0.055c-0.041-0.039-0.054-0.052-0.054-0.052
			c-0.041-0.037-0.055-0.049-0.055-0.049c-0.042-0.034-0.056-0.046-0.056-0.046c-0.043-0.032-0.057-0.042-0.057-0.042
			c-0.097-0.068-0.16-0.102-0.233-0.137c-0.029-0.013-0.044-0.02-0.044-0.02c-0.03-0.012-0.044-0.018-0.044-0.018
			c-0.029-0.011-0.044-0.016-0.044-0.016c-0.03-0.01-0.044-0.014-0.044-0.014c-0.029-0.008-0.044-0.012-0.044-0.012
			c-0.029-0.007-0.044-0.011-0.044-0.011c-0.029-0.006-0.044-0.009-0.044-0.009c-0.029-0.005-0.044-0.007-0.044-0.007
			c-0.029-0.004-0.044-0.005-0.044-0.005c-0.029-0.002-0.043-0.003-0.043-0.003c-0.043-0.001-0.057-0.001-0.057-0.001
			c-0.043,0.001-0.057,0.002-0.057,0.002c-0.042,0.004-0.056,0.005-0.056,0.005c-0.042,0.006-0.055,0.009-0.055,0.009
			c-0.041,0.009-0.055,0.012-0.055,0.012c-0.04,0.011-0.053,0.016-0.053,0.016c-0.039,0.014-0.052,0.019-0.052,0.019
			c-0.039,0.016-0.051,0.022-0.051,0.022c-0.035,0.018-0.045,0.023-0.045,0.023c-0.039,0.023-0.049,0.029-0.049,0.029
			c-0.038,0.025-0.048,0.032-0.048,0.032c-0.037,0.028-0.046,0.035-0.046,0.035c-0.036,0.031-0.045,0.039-0.045,0.039
			c-0.035,0.033-0.044,0.042-0.044,0.042c-0.034,0.036-0.043,0.045-0.043,0.045c-0.034,0.038-0.05,0.058-0.05,0.058
			c-0.288,0.369-0.427,0.772-0.574,1.2c-0.234,0.731-0.562,2.039-0.772,2.787c-0.839,2.957-2.108,5.812-3.694,8.443
			c-1.753,2.9-3.951,5.553-6.536,7.748c-4.165,3.537-9.059,6.17-14.04,8.369c-4.926,2.164-10.104,3.904-15.396,4.907"/>
	</g>
	<g id="POLYLINE_407_">
		
			<path fill="none" stroke="#FB8604" stroke-width="2.75" stroke-linecap="round" stroke-linejoin="round" stroke-miterlimit="10" d="
			M539.078,263.122c1.479-1.271,3.058-2.55,4.674-3.639c3.157-2.112,6.579-3.986,9.985-5.665c1.779-0.854,3.623-1.686,5.508-2.273
			c0.572-0.173,1.17-0.33,1.763-0.412c0.426-0.059,0.91-0.085,1.307,0.012c0.03,0.008,0.06,0.016,0.06,0.016
			c0.029,0.009,0.058,0.018,0.058,0.018c0.028,0.009,0.056,0.019,0.056,0.019c0.027,0.01,0.054,0.021,0.054,0.021
			c0.031,0.013,0.046,0.02,0.046,0.02c0.03,0.014,0.044,0.022,0.044,0.022c0.043,0.023,0.056,0.031,0.056,0.031
			c0.04,0.025,0.054,0.034,0.054,0.034c0.038,0.027,0.051,0.036,0.051,0.036c0.036,0.029,0.048,0.039,0.048,0.039
			c0.034,0.031,0.045,0.041,0.045,0.041c0.032,0.032,0.043,0.043,0.043,0.043c0.03,0.034,0.04,0.046,0.04,0.046
			c0.028,0.036,0.038,0.048,0.038,0.048c0.026,0.038,0.035,0.05,0.035,0.05c0.025,0.039,0.032,0.053,0.032,0.053
			c0.023,0.041,0.03,0.055,0.03,0.055c0.021,0.043,0.028,0.057,0.028,0.057c0.213,0.5,0.173,1.008,0.124,1.511
			c-0.081,0.686-0.258,1.391-0.431,2.06c-0.266,0.995-1.204,4.265-1.502,5.307c-1.228,4.06-2.678,8.178-5.196,11.634"/>
	</g>
	<g id="POLYLINE_406_">
		
			<path fill="none" stroke="#FB8604" stroke-width="2.75" stroke-linecap="round" stroke-linejoin="round" stroke-miterlimit="10" d="
			M528.054,261.453c0.445-0.822,0.957-1.692,1.199-2.598c0.15-0.547,0.207-1.124,0.157-1.69c-0.115-1.217-0.636-2.517-0.977-3.686
			c-0.208-0.724-0.436-1.532-0.345-2.283c0.041-0.327,0.167-0.618,0.343-0.851c0.033-0.043,0.044-0.057,0.044-0.057
			c0.035-0.042,0.047-0.056,0.047-0.056c0.476-0.526,1.086-0.782,1.715-1.02c0.45-0.162,0.944-0.305,1.408-0.426
			c1.845-0.462,4.931-1.191,6.729-1.699c4.381-1.215,8.786-2.696,12.906-4.623c8.592-3.978,16.308-10.572,20.219-19.329
			c2.885-6.522,3.701-13.852,3.016-20.914c-0.147-1.393-0.343-2.829-0.676-4.19c-0.163-0.64-0.353-1.345-0.694-1.904
			c-0.028-0.042-0.037-0.055-0.037-0.055c-0.028-0.039-0.038-0.051-0.038-0.051c-0.028-0.035-0.038-0.046-0.038-0.046
			c-0.038-0.042-0.047-0.052-0.047-0.052c-0.038-0.036-0.047-0.044-0.047-0.044c-0.038-0.03-0.048-0.037-0.048-0.037
			c-0.038-0.024-0.048-0.029-0.048-0.029c-0.038-0.018-0.048-0.021-0.048-0.021c-0.043-0.013-0.048-0.014-0.048-0.014
			c-0.04-0.005-0.045-0.005-0.045-0.005c-0.04,0.001-0.045,0.001-0.045,0.001c-0.04,0.007-0.045,0.008-0.045,0.008
			c-0.04,0.012-0.045,0.014-0.045,0.014c-0.04,0.018-0.045,0.02-0.045,0.02c-0.04,0.023-0.045,0.026-0.045,0.026
			c-0.039,0.028-0.044,0.032-0.044,0.032c-0.034,0.029-0.044,0.038-0.044,0.038c-0.039,0.038-0.049,0.048-0.049,0.048
			c-0.029,0.032-0.039,0.043-0.039,0.043c-0.029,0.035-0.039,0.047-0.039,0.047c-0.317,0.429-0.472,0.868-0.65,1.347
			c-0.304,0.866-0.53,1.811-0.732,2.707c-0.475,2.265-1.183,5.833-1.77,8.016c-0.522,1.989-1.157,4.01-1.892,5.932
			c-1.539,4.01-3.603,7.883-6.442,11.128c-1.582,1.812-3.431,3.397-5.392,4.785c-3.047,2.15-6.406,3.891-9.839,5.338
			c-3.159,1.331-6.472,2.452-9.835,3.131"/>
	</g>
	<g id="POLYLINE_405_">
		
			<path fill="none" stroke="#FB8604" stroke-width="2.75" stroke-linecap="round" stroke-linejoin="round" stroke-miterlimit="10" d="
			M525.128,248.952c6.443-5.325,11.928-11.814,16.979-18.445c2.884-3.856,5.49-8.02,7.104-12.577
			c1.043-2.906,1.652-5.97,1.907-9.044c0.22-2.715,0.196-5.491-0.161-8.192c-0.248-1.81-0.633-3.632-1.344-5.322
			c-0.344-0.804-0.776-1.582-1.348-2.248c-0.379-0.436-0.859-0.882-1.408-1.051c-0.034-0.01-0.046-0.012-0.046-0.012
			c-0.034-0.008-0.045-0.011-0.045-0.011c-0.034-0.007-0.045-0.009-0.045-0.009c-0.033-0.005-0.044-0.007-0.044-0.007
			c-0.033-0.004-0.044-0.005-0.044-0.005c-0.043-0.003-0.054-0.004-0.054-0.004c-0.042-0.001-0.053-0.001-0.053-0.001
			c-0.041,0.002-0.052,0.002-0.052,0.002c-0.041,0.004-0.051,0.006-0.051,0.006c-0.04,0.007-0.049,0.009-0.049,0.009
			c-0.039,0.009-0.048,0.012-0.048,0.012c-0.038,0.012-0.047,0.015-0.047,0.015c-0.037,0.014-0.046,0.018-0.046,0.018
			c-0.036,0.017-0.045,0.021-0.045,0.021c-0.035,0.019-0.043,0.024-0.043,0.024c-0.03,0.02-0.044,0.029-0.044,0.029
			c-0.039,0.03-0.052,0.04-0.052,0.04c-0.037,0.034-0.05,0.046-0.05,0.046c-0.036,0.038-0.047,0.051-0.047,0.051
			c-0.034,0.041-0.045,0.056-0.045,0.056c-0.022,0.03-0.033,0.045-0.033,0.045c-0.021,0.032-0.031,0.048-0.031,0.048
			c-0.02,0.033-0.03,0.051-0.03,0.051c-0.02,0.035-0.029,0.053-0.029,0.053c-0.187,0.367-0.261,0.735-0.332,1.13
			c-0.099,0.607-0.148,1.265-0.18,1.88c-0.107,1.861-0.108,4.44-0.287,6.274c-0.147,1.711-0.415,3.486-0.777,5.164
			c-1.028,4.765-2.919,9.368-5.53,13.484c-1.944,3.07-4.326,5.899-6.916,8.445c-2.777,2.71-5.861,5.185-9.202,7.164
			c-2.223,1.307-4.607,2.41-7.136,2.957c-1.913,0.42-3.9,0.493-5.843,0.256c-3.422-0.42-6.718-1.632-9.885-2.95
			c-6.134-2.616-13.041-6.248-19.356-8.376c-1.45-0.472-4.739-1.519-6.102-2.042c-1.271-0.49-2.544-1.048-3.656-1.843
			c-0.866-0.613-1.613-1.414-2.069-2.379c-0.464-0.957-0.683-2.018-0.792-3.071c-0.114-1.113-0.108-2.282-0.081-3.4
			c0.092-2.791,0.21-6.261,0.1-9.026c-0.182-4.886-0.757-9.84-2.238-14.515c-1.128-3.493-2.923-6.972-5.997-9.122
			c-0.615-0.438-1.271-0.834-1.96-1.143c-0.468-0.21-1.018-0.404-1.518-0.436c-0.082-0.004-0.145-0.002-0.194,0.001
			c-0.03,0.002-0.045,0.004-0.045,0.004c-0.043,0.005-0.057,0.008-0.057,0.008c-0.041,0.007-0.055,0.01-0.055,0.01
			c-0.039,0.009-0.052,0.013-0.052,0.013c-0.037,0.012-0.049,0.016-0.049,0.016c-0.035,0.014-0.046,0.018-0.046,0.018
			c-0.043,0.021-0.053,0.027-0.053,0.027c-0.039,0.025-0.048,0.031-0.048,0.031c-0.043,0.036-0.05,0.043-0.05,0.043
			c-0.034,0.038-0.04,0.046-0.04,0.046c-0.029,0.043-0.034,0.052-0.034,0.052c-0.019,0.037-0.024,0.047-0.024,0.047
			c-0.016,0.04-0.019,0.051-0.019,0.051c-0.013,0.043-0.015,0.054-0.015,0.054c-0.007,0.034-0.009,0.046-0.009,0.046
			c-0.005,0.036-0.007,0.048-0.007,0.048c-0.003,0.038-0.004,0.05-0.004,0.05c-0.002,0.039-0.002,0.053-0.002,0.053
			c0,0.041,0,0.055,0,0.055c0.019,0.362,0.118,0.646,0.228,0.967c0.151,0.419,0.358,0.872,0.547,1.277c0,0,1.285,2.633,1.285,2.633
			c1.759,3.709,3.052,7.692,3.445,11.791c0.416,4.411-0.185,8.874-1.016,13.204c-0.336,1.671-0.688,3.447-1.269,5.05
			c-0.211,0.573-0.455,1.145-0.786,1.66c-0.337,0.528-0.782,0.984-1.372,1.11c-0.726,0.143-1.391-0.123-2.027-0.396
			c-0.407-0.183-0.827-0.407-1.218-0.623c-1.998-1.137-6.865-3.936-8.786-5.077c-5.248-3.181-10.55-6.6-14.627-11.247
			c-2.91-3.311-5.091-7.228-6.988-11.188c-1.386-2.94-4.448-9.625-5.82-12.638c-2.371-5.378-4.547-10.97-5.805-16.723
			c-1.338-6.081-1.512-12.413-1.392-18.618c0.179-4.934,0.352-13.264,0.313-18.175c0.025-1.608,0.084-3.46,0.216-5.055
			c0.133-1.709,0.425-3.97,0.482-5.677c0.012-0.635,0.019-1.337-0.163-1.943c-0.027-0.086-0.053-0.149-0.076-0.198
			c-0.014-0.03-0.021-0.045-0.021-0.045c-0.022-0.043-0.03-0.056-0.03-0.056c-0.024-0.04-0.032-0.053-0.032-0.053
			c-0.025-0.037-0.032-0.047-0.032-0.047c-0.029-0.038-0.037-0.047-0.037-0.047c-0.039-0.043-0.047-0.051-0.047-0.051
			c-0.041-0.038-0.049-0.045-0.049-0.045c-0.043-0.034-0.052-0.04-0.052-0.04c-0.036-0.024-0.045-0.029-0.045-0.029
			c-0.037-0.021-0.047-0.025-0.047-0.025c-0.038-0.018-0.048-0.022-0.048-0.022c-0.039-0.015-0.049-0.018-0.049-0.018
			c-0.041-0.012-0.051-0.014-0.051-0.014c-0.042-0.009-0.052-0.011-0.052-0.011c-0.043-0.006-0.053-0.007-0.053-0.007
			c-0.032-0.003-0.043-0.003-0.043-0.003c-0.033-0.001-0.044-0.001-0.044-0.001c-0.033,0.001-0.045,0.001-0.045,0.001
			c-0.034,0.002-0.045,0.004-0.045,0.004c-0.034,0.004-0.046,0.006-0.046,0.006c-0.035,0.006-0.046,0.008-0.046,0.008
			c-0.035,0.007-0.047,0.01-0.047,0.01c-0.035,0.009-0.047,0.012-0.047,0.012c-0.035,0.011-0.047,0.015-0.047,0.015
			c-0.036,0.012-0.048,0.017-0.048,0.017c-0.036,0.014-0.048,0.019-0.048,0.019c-0.49,0.209-0.842,0.625-1.131,1.01
			c-0.37,0.509-0.672,1.074-0.941,1.642c-0.998,2.156-1.663,4.508-2.27,6.801c-1.512,5.91-2.505,12.146-3.166,18.21
			c-0.787,7.363-1.033,14.94-0.591,22.332c0.18,2.966,0.867,12.117,0.903,14.918c0.026,1.425,0.019,2.913-0.12,4.331
			c-0.117,1.163-0.319,2.339-0.756,3.427c-0.427,1.096-1.192,2.127-2.182,2.743c-0.629,0.405-1.342,0.67-2.064,0.853
			c-2.204,0.571-6.15,0.608-8.442,0.8c-2.385,0.175-4.896,0.549-7.254,0.957c-3.933,0.713-10.744,2.092-14.614,2.58
			c-1.39,0.172-2.836,0.307-4.236,0.319c-1.588,0.015-3.195-0.126-4.734-0.532c-3.76-0.956-6.807-3.551-9.668-6.048
			c-4.493-3.976-9.273-8.617-14.674-11.303c-0.619-0.293-1.265-0.565-1.932-0.727c-0.454-0.108-0.974-0.177-1.411-0.036
			c-0.043,0.015-0.064,0.023-0.064,0.023c-0.041,0.017-0.062,0.026-0.062,0.026c-0.04,0.019-0.059,0.029-0.059,0.029
			c-0.038,0.021-0.057,0.033-0.057,0.033c-0.036,0.023-0.054,0.036-0.054,0.036c-0.034,0.026-0.051,0.039-0.051,0.039
			c-0.033,0.028-0.048,0.041-0.048,0.041c-0.043,0.043-0.057,0.058-0.057,0.058c-0.027,0.031-0.04,0.047-0.04,0.047
			c-0.025,0.033-0.038,0.049-0.038,0.049c-0.024,0.034-0.035,0.052-0.035,0.052c-0.022,0.036-0.033,0.055-0.033,0.055
			c-0.021,0.038-0.031,0.058-0.031,0.058c-0.019,0.04-0.028,0.06-0.028,0.06c-0.018,0.042-0.026,0.063-0.026,0.063
			c-0.15,0.401-0.155,0.783-0.137,1.191c0.029,0.512,0.129,1.028,0.252,1.526c0.693,2.627,1.945,5.11,3.355,7.423
			c2.116,3.432,4.953,6.422,8.233,8.763c2.258,1.672,5.441,3.297,7.914,4.663c1.675,0.951,3.393,1.952,4.787,3.295
			c0.573,0.558,1.09,1.189,1.457,1.902c0.304,0.589,0.494,1.236,0.577,1.893c0.124,0.971,0.032,1.963-0.169,2.917
			c-0.279,1.312-0.764,2.585-1.324,3.801c-0.787,1.68-1.725,3.32-2.756,4.862c-1.238,1.835-2.724,3.545-4.551,4.814
			c-0.851,0.594-1.779,1.097-2.74,1.488c-1.167,0.476-2.428,0.806-3.653,1.1c-1.104,0.262-2.828,0.611-3.897,0.974
			c-0.301,0.106-0.654,0.247-0.902,0.423c-0.032,0.023-0.048,0.035-0.048,0.035c-0.03,0.024-0.045,0.036-0.045,0.036
			c-0.042,0.036-0.056,0.048-0.056,0.048c-0.038,0.037-0.05,0.05-0.05,0.05c-0.034,0.038-0.044,0.051-0.044,0.051
			c-0.03,0.039-0.039,0.052-0.039,0.052c-0.025,0.04-0.033,0.053-0.033,0.053c-0.021,0.041-0.027,0.054-0.027,0.054
			c-0.015,0.038-0.019,0.049-0.019,0.049c-0.01,0.033-0.012,0.044-0.012,0.044c-0.007,0.033-0.009,0.044-0.009,0.044
			c-0.004,0.034-0.005,0.045-0.005,0.045c-0.002,0.034-0.002,0.046-0.002,0.046c0.001,0.035,0.002,0.047,0.002,0.047
			c0.004,0.035,0.005,0.047,0.005,0.047c0.006,0.036,0.009,0.048,0.009,0.048c0.009,0.036,0.012,0.048,0.012,0.048
			c0.011,0.037,0.015,0.049,0.015,0.049c0.014,0.037,0.019,0.049,0.019,0.049c0.016,0.037,0.022,0.05,0.022,0.05
			c0.018,0.038,0.025,0.05,0.025,0.05c0.021,0.038,0.028,0.051,0.028,0.051c0.023,0.038,0.031,0.051,0.031,0.051
			c0.224,0.345,0.537,0.592,0.838,0.812c0.355,0.251,0.744,0.466,1.137,0.653c1.375,0.648,2.887,0.99,4.401,1.074
			c3.437,0.179,6.882-0.762,9.902-2.375c1.519-0.817,2.944-1.837,4.201-3.019c1.918-1.794,3.523-3.944,5.004-6.106
			c1.681-2.477,4.046-6.338,6.049-8.493c1.09-1.195,2.324-2.271,3.681-3.154c3.681-2.397,8.091-3.326,12.361-4.061
			c3.12-0.528,6.932-0.921,10.093-1.248c0.79-0.069,1.636-0.142,2.427-0.137c1.212-0.004,2.429,0.16,3.595,0.494
			c1.921,0.547,3.745,1.468,5.501,2.408c8.757,4.846,17.983,11.932,26.554,17.113c4.804,2.93,11.57,6.671,16.51,9.405
			c5.728,3.098,11.853,6.265,17.922,8.625c2.051,0.797,4.229,1.525,6.349,2.117c2.691,0.779,7.732,1.871,10.443,2.509
			c2.374,0.565,4.809,1.27,7.072,2.192c3.344,1.337,6.596,3.117,9.727,4.889"/>
	</g>
	<g id="POLYLINE_404_">
		
			<path fill="none" stroke="#FB8604" stroke-width="2.75" stroke-linecap="round" stroke-linejoin="round" stroke-miterlimit="10" d="
			M595.966,299.785c-1.217-1.23-2.639-2.276-4.071-3.242c-7.776-5.11-18.188-9.77-25.871-15.022
			c-2.025-1.376-3.964-2.938-5.684-4.683c-1.724-1.704-3.474-3.906-5.255-5.552c-1.042-0.962-2.231-1.783-3.541-2.333
			c-2.054-0.886-4.538-1.394-6.666-2.079c-1.101-0.357-2.208-0.78-3.196-1.391c-0.909-0.556-1.682-1.314-2.383-2.11l-1.303-1.518
			c-0.616-0.691-1.333-1.435-2.225-1.704c-1.023-0.293-2.091,0.021-3.077,0.316c-1.258,0.388-2.689,0.98-4.011,1.007
			c-1.146,0.032-2.383-0.354-3.491-0.623c-0.808-0.195-1.643-0.335-2.476-0.31c-0.893,0.026-1.782,0.215-2.633,0.48
			c-1.307,0.411-2.559,1.009-3.734,1.711c-1.231,0.74-2.399,1.606-3.438,2.6"/>
	</g>
	<g id="POLYLINE_403_">
		
			<path fill="none" stroke="#FB8604" stroke-width="2.75" stroke-linecap="round" stroke-linejoin="round" stroke-miterlimit="10" d="
			M504.118,293.084c1.802,1.492,3.985,3.135,5.43,4.974c1.208,1.483,2.096,3.218,2.906,4.942c2.154,4.716,4.318,10.166,7.691,14.131
			c3.543,4.199,8.444,7.092,13.604,8.856c3.979,1.346,8.211,2.037,12.414,1.828c4.483-0.183,9.696-1.497,14.131-2.191
			c1.91-0.302,3.922-0.528,5.855-0.609c2.714-0.125,8.227,0.031,11.002,0.071c3.203,0.004,6.484-0.088,9.604-0.876
			c1.898-0.48,3.742-1.269,5.294-2.475c3.279-2.548,5.351-6.415,6.368-10.389"/>
	</g>
	<g id="POLYLINE_402_">
		
			<path fill="none" stroke="#FB8604" stroke-width="2.75" stroke-linecap="round" stroke-linejoin="round" stroke-miterlimit="10" d="
			M594.655,312.237c-1.087-0.16-2.147-0.506-3.154-0.941c-1.159-0.506-2.268-1.148-3.269-1.922c-1.627-1.255-3.111-3.023-3.214-5.16
			c-0.024-0.523,0.044-1.053,0.214-1.549c0.176-0.54,0.538-1.101,0.923-1.488c0.623-0.635,1.377-1.035,2.194-1.346
			c1.957-0.71,4.126-0.839,6.167-0.452c1.633,0.32,3.292,1.063,4.274,2.457c0.667,0.93,1.036,2.046,1.198,3.171
			c0.186,1.344,0.106,2.736-0.268,4.043C598.979,311.62,597.241,312.618,594.655,312.237z"/>
	</g>
	<g id="POLYLINE_401_">
		
			<path fill="none" stroke="#FB8604" stroke-width="2.75" stroke-linecap="round" stroke-linejoin="round" stroke-miterlimit="10" d="
			M504.118,293.084c-5.327-4.242-9.214-8.694-10.043-15.695c-0.41-3.26-0.229-6.593,0.222-9.84c0.652-4.54,1.847-9.045,3.364-13.37
			c0.85-2.345,1.789-4.721,3.118-6.84c0.336-0.521,0.705-1.035,1.137-1.481c0.358-0.37,0.784-0.712,1.25-0.863
			c0.031-0.01,0.062-0.019,0.062-0.019c0.031-0.008,0.061-0.016,0.061-0.016c0.031-0.007,0.061-0.014,0.061-0.014
			c0.031-0.006,0.061-0.011,0.061-0.011c0.031-0.005,0.061-0.008,0.061-0.008c0.03-0.003,0.061-0.006,0.061-0.006
			c0.03-0.002,0.061-0.003,0.061-0.003c0.03-0.001,0.061-0.001,0.061-0.001c0.03,0.001,0.06,0.002,0.06,0.002
			c0.03,0.002,0.06,0.005,0.06,0.005c0.03,0.003,0.06,0.007,0.06,0.007c0.03,0.005,0.06,0.01,0.06,0.01
			c0.03,0.006,0.06,0.013,0.06,0.013c0.03,0.007,0.06,0.016,0.06,0.016c0.034,0.01,0.068,0.021,0.068,0.021
			c0.034,0.012,0.068,0.025,0.068,0.025c0.034,0.014,0.068,0.029,0.068,0.029c0.034,0.016,0.068,0.032,0.068,0.032
			c0.034,0.017,0.067,0.036,0.067,0.036c0.034,0.019,0.067,0.039,0.067,0.039c0.033,0.021,0.067,0.042,0.067,0.042
			c0.483,0.331,0.799,0.752,1.107,1.203c0.384,0.577,0.708,1.214,1,1.842c1.816,4.036,3.237,9.482,4.818,13.622
			c0.951,2.629,2.45,5.351,3.799,7.805c0.659,1.256,1.276,2.583,1.431,4.008c0.123,1.113-0.006,2.244-0.258,3.331
			c-0.354,1.512-0.947,2.973-1.641,4.359"/>
	</g>
	<g id="POLYLINE_400_">
		
			<path fill="none" stroke="#FB8604" stroke-width="2.75" stroke-linecap="round" stroke-linejoin="round" stroke-miterlimit="10" d="
			M196.464,388.527c-1.724,0.958-3.547,1.816-5.476,2.261c-0.931,0.194-2.027,0.337-2.895-0.124
			c-0.08-0.046-0.107-0.064-0.154-0.095c-0.043-0.03-0.064-0.046-0.064-0.046c-0.041-0.032-0.062-0.049-0.062-0.049
			c-0.04-0.034-0.06-0.051-0.06-0.051c-0.039-0.035-0.058-0.054-0.058-0.054c-0.037-0.037-0.055-0.056-0.055-0.056
			c-0.036-0.039-0.053-0.059-0.053-0.059c-0.034-0.04-0.051-0.061-0.051-0.061c-0.542-0.695-0.646-1.565-0.661-2.41
			c0.005-1.639,0.425-3.255,0.948-4.798c0.997-2.872,2.508-5.561,4.283-8.022c1.961-2.711,4.273-5.181,6.808-7.362
			c2.963-2.548,6.274-4.714,9.816-6.366c8.661-4.036,19.119-5.765,27.955-9.35c9.009-3.54,18.439-8.056,28.164-8.965
			c9.175-0.944,19.842,0.819,28.997,1.903c3.699,0.449,7.724,0.772,11.447,0.92c7.681,0.245,17.519,0.388,25.102,1.292
			c9.899,1.133,22.333,3.048,32.202,2.762c4.938-0.12,9.93-0.731,14.629-2.304c4.089-1.342,8.01-3.311,11.767-5.395
			c5.679-3.172,12.758-7.519,18.901-9.573c7.2-2.47,14.893-3.328,22.466-3.65c3.376-0.16,7.956-0.114,11.355-0.089
			c3.263,0.055,8.727,0.112,11.969,0.372"/>
	</g>
	<g id="POLYLINE_399_">
		
			<path fill="none" stroke="#FB8604" stroke-width="2.75" stroke-linecap="round" stroke-linejoin="round" stroke-miterlimit="10" d="
			M180.301,629.965c7.256-1.871,14.164-5.123,20.248-9.496"/>
	</g>
	<g id="POLYLINE_398_">
		
			<path fill="none" stroke="#FB8604" stroke-width="2.75" stroke-linecap="round" stroke-linejoin="round" stroke-miterlimit="10" d="
			M284.049,633.076c4.011-1.791,7.736-4.244,11.027-7.149c2.266-2.004,4.224-4.367,5.914-6.872"/>
	</g>
	<g id="POLYLINE_397_">
		
			<path fill="none" stroke="#FB8604" stroke-width="2.75" stroke-linecap="round" stroke-linejoin="round" stroke-miterlimit="10" d="
			M414.041,630.469c1.651-0.083,3.344-0.223,4.959-0.576c1.744-0.372,3.456-0.962,5.104-1.639c3.3-1.38,6.495-3.124,9.282-5.38"/>
	</g>
	<g id="POLYLINE_396_">
		
			<path fill="none" stroke="#FB8604" stroke-width="2.75" stroke-linecap="round" stroke-linejoin="round" stroke-miterlimit="10" d="
			M416.268,408.706c-5.004,15.203-9.568,30.914-11.13,46.888c-0.203,2.321-0.361,4.823-0.382,7.144
			c-0.073,1.489,0.307,10.763,0.347,12.5c0.273,6.494,0.677,13.72,1.289,20.181c1.274,12.741,3.594,26.911,5.597,39.58
			c1.409,9.444,2.4,19.143,1.935,28.698c-0.67,10.206-2.585,20.66-4.655,30.672c-1.531,7.243-3.604,15.706-4.672,23.016
			c-0.117,0.945-0.258,1.938-0.226,2.893c0.03,1.153,0.356,2.398,1.106,3.272c0.349,0.424,0.774,0.736,1.21,0.983
			c0.406,0.23,0.826,0.366,1.236,0.554c1.015,0.442,2.038,0.951,2.986,1.522c0.498,0.314,1.083,0.652,1.482,1.074
			c0.836,0.892,1.348,2.019,1.793,3.142c0.274,0.71,0.518,1.468,0.728,2.199c0.208,0.742,0.407,1.52,0.71,2.232
			c0.522,1.283,1.378,2.57,2.665,3.147c0.51,0.233,1.072,0.348,1.632,0.36c2.558-0.006,11.709,0.063,14.103-0.087
			c1.169-0.073,2.365-0.186,3.515-0.411c1.095-0.216,2.279-0.543,3.155-1.246c3.616-2.945-2.174-8.884-4.416-11.103
			c-2.708-2.684-5.304-5.599-7.124-8.971c-1.178-2.257-1.983-4.724-2.633-7.181c-0.269-1.077-0.578-2.278-0.762-3.368
			c-0.181-1.067-0.289-2.217-0.361-3.299c-0.227-3.631-0.1-7.459,0.089-11.094c0.356-6.338,1.083-13.427,1.864-19.738
			c0.671-5.064,1.438-10.292,2.755-15.231c0.315-1.193,0.743-2.426,1.142-3.593c0.28-0.859,0.563-1.833,0.796-2.706
			c1.352-5.114,2.208-10.596,2.923-15.84c0.626-5.395,1.44-11.154,2.625-16.454c1.766-8.122,4.196-16.333,6.879-24.199
			c2.87-8.303,7.483-18.199,15.714-22.25c0.957-0.466,1.968-0.851,2.995-1.133c0,0,0.193-0.052,0.193-0.052s0.193-0.05,0.193-0.05
			s0.194-0.047,0.194-0.047c0.073-0.015,0.309-0.073,0.39-0.088c0,0,0.392-0.087,0.392-0.087s0.392-0.094,0.392-0.094
			c0.914-0.223,1.87-0.524,2.754-0.844c3.777-1.382,7.243-3.544,10.392-6.025c4.429-3.505,8.343-7.709,11.893-12.09"/>
	</g>
	<g id="POLYLINE_395_">
		
			<path fill="none" stroke="#FB8604" stroke-width="2.75" stroke-linecap="round" stroke-linejoin="round" stroke-miterlimit="10" d="
			M272.607,468.288c2.144,0.897,7.783,3.206,9.799,4.148c3.161,1.437,12.171,5.894,15.422,7.467
			c7.388,3.493,15.146,6.798,22.979,9.124c12.113,3.627,24.904,5.422,37.544,4.528c17.055-1.232,33.553-7.439,47.956-16.518"/>
	</g>
	<g id="POLYLINE_394_">
		
			<path fill="none" stroke="#FB8604" stroke-width="2.75" stroke-linecap="round" stroke-linejoin="round" stroke-miterlimit="10" d="
			M238.622,499.085c-1.181,6.68-3.633,20.593-4.856,27.071c-0.099,0.669-0.151,1.362-0.154,2.038
			c-0.009,1.929,0.357,3.853,0.947,5.685c0.553,1.722,1.323,3.41,2.186,5c3.422,5.861,7.173,13.382,10.217,19.518
			c3.529,7.186,7.813,16.152,10.97,23.444c3.093,7.121,6.299,15.187,8.868,22.51c1.715,5.038,5.761,16.396,7.217,21.359
			c0.222,0.737,0.548,1.451,0.985,2.085c0.803,1.182,1.995,2.062,3.305,2.611c0.845,0.363,1.762,0.556,2.61,0.915
			c1.832,0.732,3.513,1.856,4.848,3.312c0.484,0.51,0.876,1.11,1.401,1.582c0.957,0.89,2.157,1.486,3.4,1.867
			c1.191,0.364,2.439,0.549,3.679,0.632c0.832,0.084,14.047,0.048,15.231,0.051c0.985-0.017,1.991-0.115,2.92-0.461
			c0.682-0.247,1.356-0.709,1.731-1.314c0.382-0.598,0.501-1.266,0.499-1.95c-0.007-0.672-0.14-1.34-0.322-1.984
			c-0.227-0.802-0.529-1.593-0.895-2.341c-0.799-1.64-1.918-3.117-3.212-4.398c-0.789-0.783-1.659-1.509-2.557-2.165
			c-1.219-0.856-2.58-1.798-3.753-2.721c-3.428-2.669-6.668-5.706-9.695-8.82c-2.238-2.323-4.181-4.98-5.984-7.649
			c-2.91-4.349-5.634-9.136-8.104-13.749c-5.622-10.607-10.84-21.664-14.283-33.189c-1.113-3.765-2.037-7.665-2.522-11.565
			c-0.596-4.711-0.615-9.549,0.058-14.254c0.471-3.476,1.466-6.978,2.472-10.332c1.403-4.607,3.126-9.297,5.049-13.713
			c1.483-3.468,3.368-7,4.876-10.456c3.433-7.872,6.076-16.221,8.281-24.514"/>
	</g>
	<g id="POLYLINE_393_">
		
			<path fill="none" stroke="#FB8604" stroke-width="2.75" stroke-linecap="round" stroke-linejoin="round" stroke-miterlimit="10" d="
			M286.976,392.111c1.792,10.197,3.266,20.662,3.512,31.013c0.124,7.152-0.193,14.472-2.324,21.346
			c-0.414,1.301-0.907,2.593-1.493,3.826c-1.037,2.13-2.284,4.335-3.534,6.349c-4.825,7.733-10.992,14.618-17.711,20.751
			c-2.261,2.063-6.051,5.251-8.447,7.283c-3.7,3.187-8.673,7.536-12.281,10.815c-7.136,6.415-15.122,14.187-21.901,21.031
			c-5.222,5.331-10.76,11.133-15.568,16.829c-3.501,4.181-5.78,9.258-7.508,14.391c-2.327,6.966-3.59,14.345-4.592,21.608
			c-1.148,8.333-1.964,16.924-2.019,25.34c-0.006,4.769,0.16,9.687,0.95,14.395c0.428,2.491,1.026,4.999,2.021,7.328
			c0.558,1.295,1.25,2.556,2.144,3.651c0.214,0.261,0.447,0.523,0.685,0.763c2.903,2.923,6.363,6.275,9.406,9.044
			c1.643,1.59,3.033,3.593,3.355,5.9c0.095,0.714,0.129,1.457-0.046,2.162c-0.16,0.691-0.603,1.359-1.15,1.76
			c-0.786,0.596-1.758,0.845-2.719,0.974c-0.782,0.242-14.084,0.022-15.161,0.095c-1.883-0.008-3.805-0.111-5.646-0.532
			c-1.087-0.255-2.172-0.623-3.101-1.255c-0.389-0.26-0.78-0.618-1.057-0.971c-0.436-0.578-0.79-1.223-1.106-1.873
			c-1.001-2.116-1.521-4.436-1.846-6.744c-0.185-1.339-0.412-2.718-0.756-4.023c-0.167-0.58-0.349-1.215-0.684-1.72
			c-0.03-0.043-0.045-0.063-0.045-0.063c-0.03-0.039-0.045-0.058-0.045-0.058c-0.03-0.036-0.038-0.044-0.038-0.044
			c-0.038-0.041-0.046-0.049-0.046-0.049c-0.038-0.036-0.046-0.043-0.046-0.043c-0.039-0.032-0.046-0.038-0.046-0.038
			c-1.338-0.849-3.051-1.58-4.496-2.254c-0.204-0.096-0.407-0.201-0.598-0.32c-1.009-0.615-1.713-1.558-2.02-2.671
			c-0.47-1.622-0.142-3.355,0.125-4.985c0.741-4.324,2.057-8.704,3.204-12.935c1.378-5.397,2.345-11.276,3.147-16.796
			c1.461-9.839,2.02-20.252,2.298-30.199c0.206-7.701,0.128-16.505,0.44-24.194c0.169-3.785,0.387-7.803,0.919-11.551
			c0.219-1.442,0.466-2.925,0.95-4.305c1.07-2.833,2.804-5.381,4.641-7.769c1.154-1.492,2.499-3.037,3.774-4.431
			c0.983-1.044,2.083-2.225,3.009-3.317c3.048-3.583,5.679-7.577,7.541-11.906c0.52-1.205,1.013-2.483,1.304-3.766
			c0.777-3.334,0.8-6.815,0.59-10.217c-0.188-2.842-0.587-5.768-1.081-8.573c-2.02-10.424-6.011-26.623-8.48-36.955
			c-0.501-1.982-1.014-4.39-1.377-6.406c-0.619-3.488-1.032-7.069-1.058-10.614c-0.003-2.211,0.105-4.492,0.513-6.67
			c0.26-1.311,0.653-2.621,1.108-3.878c1.068-2.933,2.524-5.76,4.078-8.462c2.43-4.213,5.336-8.355,8.235-12.258"/>
	</g>
</g>
<g id="AG-OUTLINE">
	<g id="POLYLINE_21_">
		
			<path fill="none" stroke="#FB8604" stroke-width="3.5" stroke-linecap="round" stroke-linejoin="round" stroke-miterlimit="10" d="
			M541.773,260.913c-0.218-1.221-0.093-2.486,0.213-3.68c0.213-0.803,0.533-1.651,1.053-2.303c0.626-0.772,1.503-1.136,2.378-1.517
			c6.871-2.814,17.037-5.718,24.156-8.069c2.446-0.835,4.982-1.786,7.322-2.876c2.639-1.224,5.212-2.693,7.552-4.423
			c4.928-3.639,9.102-8.324,12.147-13.64c2.341-4.13,4.057-8.725,4.681-13.444c0.131-1.117,0.2-2.263,0.065-3.383
			c-0.088-0.733-0.297-1.554-0.797-2.095c-0.04-0.042-0.053-0.055-0.053-0.055c-0.041-0.039-0.054-0.052-0.054-0.052
			c-0.041-0.037-0.055-0.049-0.055-0.049c-0.042-0.034-0.056-0.046-0.056-0.046c-0.043-0.032-0.057-0.042-0.057-0.042
			c-0.097-0.068-0.16-0.102-0.233-0.137c-0.029-0.013-0.044-0.02-0.044-0.02c-0.03-0.012-0.044-0.018-0.044-0.018
			c-0.029-0.011-0.044-0.016-0.044-0.016c-0.03-0.01-0.044-0.014-0.044-0.014c-0.029-0.008-0.044-0.012-0.044-0.012
			c-0.029-0.007-0.044-0.011-0.044-0.011c-0.029-0.006-0.044-0.009-0.044-0.009c-0.029-0.005-0.044-0.007-0.044-0.007
			c-0.029-0.004-0.044-0.005-0.044-0.005c-0.029-0.002-0.043-0.003-0.043-0.003c-0.043-0.001-0.057-0.001-0.057-0.001
			c-0.043,0.001-0.057,0.002-0.057,0.002c-0.042,0.004-0.056,0.005-0.056,0.005c-0.042,0.006-0.055,0.009-0.055,0.009
			c-0.041,0.009-0.055,0.012-0.055,0.012c-0.04,0.011-0.053,0.016-0.053,0.016c-0.039,0.014-0.052,0.019-0.052,0.019
			c-0.039,0.016-0.051,0.022-0.051,0.022c-0.035,0.018-0.045,0.023-0.045,0.023c-0.039,0.023-0.049,0.029-0.049,0.029
			c-0.038,0.025-0.048,0.032-0.048,0.032c-0.037,0.028-0.046,0.035-0.046,0.035c-0.036,0.031-0.045,0.039-0.045,0.039
			c-0.035,0.033-0.044,0.042-0.044,0.042c-0.034,0.036-0.043,0.045-0.043,0.045c-0.034,0.038-0.05,0.058-0.05,0.058
			c-0.288,0.369-0.427,0.772-0.574,1.2c-0.234,0.731-0.562,2.039-0.772,2.787c-0.839,2.957-2.108,5.812-3.694,8.443
			c-1.753,2.9-3.951,5.553-6.536,7.748c-4.165,3.537-9.059,6.17-14.04,8.369c-4.926,2.164-10.104,3.904-15.396,4.907
			c4.29-2.871,8.13-6.505,11.012-10.801c1.665-2.473,2.988-5.185,3.924-8.015c1.957-5.933,2.435-12.326,1.727-18.518
			c-0.139-1.154-0.321-2.335-0.597-3.465c-0.164-0.639-0.352-1.346-0.694-1.904c-0.028-0.042-0.037-0.055-0.037-0.055
			c-0.028-0.039-0.038-0.051-0.038-0.051c-0.028-0.035-0.038-0.046-0.038-0.046c-0.038-0.042-0.047-0.052-0.047-0.052
			c-0.038-0.036-0.047-0.044-0.047-0.044c-0.038-0.03-0.048-0.037-0.048-0.037c-0.038-0.024-0.048-0.029-0.048-0.029
			c-0.038-0.018-0.048-0.021-0.048-0.021c-0.043-0.013-0.048-0.014-0.048-0.014c-0.04-0.005-0.045-0.005-0.045-0.005
			c-0.04,0.001-0.045,0.001-0.045,0.001c-0.04,0.007-0.045,0.008-0.045,0.008c-0.04,0.012-0.045,0.014-0.045,0.014
			c-0.04,0.018-0.045,0.02-0.045,0.02c-0.04,0.023-0.045,0.026-0.045,0.026c-0.039,0.028-0.044,0.032-0.044,0.032
			c-0.034,0.029-0.044,0.038-0.044,0.038c-0.039,0.038-0.049,0.048-0.049,0.048c-0.029,0.032-0.039,0.043-0.039,0.043
			c-0.029,0.035-0.039,0.047-0.039,0.047c-0.317,0.429-0.472,0.868-0.65,1.347c-0.304,0.866-0.53,1.811-0.732,2.707
			c-0.764,3.69-1.604,7.98-2.802,11.523c-1.646,4.996-4,9.87-7.533,13.812c-1.843,2.055-4.03,3.808-6.332,5.323
			c-3.055,2.002-6.388,3.636-9.776,4.994c-0.004-1,0.025-2.041,0.381-2.987c0.27-0.741,0.687-1.426,1.135-2.071
			c0.856-1.217,1.889-2.358,2.906-3.443l4.497-4.61c3.259-3.416,6.357-7.197,7.965-11.694c1.419-3.963,1.846-8.257,1.468-12.439
			c-0.234-2.488-0.768-4.971-1.73-7.283c-0.221-0.524-0.473-1.064-0.76-1.556c-0.21-0.36-0.474-0.761-0.769-1.037
			c-0.033-0.03-0.044-0.039-0.044-0.039c-0.033-0.027-0.044-0.036-0.044-0.036c-0.043-0.033-0.054-0.04-0.054-0.04
			c-0.042-0.029-0.053-0.035-0.053-0.035c-0.041-0.024-0.051-0.03-0.051-0.03c-0.04-0.02-0.05-0.024-0.05-0.024
			c-0.039-0.016-0.049-0.019-0.049-0.019c-0.038-0.011-0.048-0.013-0.048-0.013c-0.037-0.006-0.047-0.007-0.047-0.007
			c-0.036-0.002-0.045-0.002-0.045-0.002c-0.043,0.004-0.05,0.005-0.05,0.005c-0.037,0.009-0.044,0.012-0.044,0.012
			c-0.042,0.018-0.049,0.021-0.049,0.021c-0.041,0.025-0.047,0.03-0.047,0.03c-0.039,0.032-0.045,0.038-0.045,0.038
			c-0.037,0.039-0.044,0.046-0.044,0.046c-0.03,0.038-0.036,0.046-0.036,0.046c-0.029,0.042-0.035,0.051-0.035,0.051
			c-0.022,0.037-0.028,0.047-0.028,0.047c-0.016,0.03-0.027,0.051-0.027,0.051c-0.138,0.282-0.197,0.542-0.264,0.836
			c-0.232,1.075-0.486,3.869-0.629,5.004c-0.335,2.7-0.76,5.513-1.417,8.152c-0.416,1.658-0.937,3.323-1.685,4.863
			c-1.044,2.194-2.594,4.128-4.199,5.937c0.638-3.076,0.888-6.266,0.787-9.404c-0.093-2.459-0.383-4.946-1.1-7.306
			c-0.396-1.269-0.924-2.531-1.769-3.57c-0.401-0.484-0.91-0.987-1.511-1.174c-0.034-0.01-0.046-0.012-0.046-0.012
			c-0.034-0.008-0.045-0.011-0.045-0.011c-0.034-0.007-0.045-0.009-0.045-0.009c-0.033-0.005-0.044-0.007-0.044-0.007
			c-0.033-0.004-0.044-0.005-0.044-0.005c-0.043-0.003-0.054-0.004-0.054-0.004c-0.042-0.001-0.053-0.001-0.053-0.001
			c-0.041,0.002-0.052,0.002-0.052,0.002c-0.041,0.004-0.051,0.006-0.051,0.006c-0.04,0.007-0.049,0.009-0.049,0.009
			c-0.039,0.009-0.048,0.012-0.048,0.012c-0.038,0.012-0.047,0.015-0.047,0.015c-0.037,0.014-0.046,0.018-0.046,0.018
			c-0.036,0.017-0.045,0.021-0.045,0.021c-0.035,0.019-0.043,0.024-0.043,0.024c-0.03,0.02-0.044,0.029-0.044,0.029
			c-0.039,0.03-0.052,0.04-0.052,0.04c-0.037,0.034-0.05,0.046-0.05,0.046c-0.036,0.038-0.047,0.051-0.047,0.051
			c-0.034,0.041-0.045,0.056-0.045,0.056c-0.022,0.03-0.033,0.045-0.033,0.045c-0.021,0.032-0.031,0.048-0.031,0.048
			c-0.02,0.033-0.03,0.051-0.03,0.051c-0.02,0.035-0.029,0.053-0.029,0.053c-0.17,0.333-0.241,0.654-0.311,1.01
			c-0.099,0.541-0.147,1.126-0.183,1.676c-0.094,1.598-0.128,4.158-0.241,5.747c-0.1,1.532-0.297,3.132-0.57,4.643
			c-1.052,5.839-3.392,11.459-6.78,16.328l-2.663-2.989c-1.481-1.691-2.854-3.512-3.907-5.502c-1.165-2.17-1.987-4.53-2.669-6.891
			c-1.389-4.868-2.305-10.11-3.094-15.113c-2.523-17.082-4.383-37.141-8.153-53.952c-1.26-5.709-2.643-11.563-4.798-17.007
			c-0.635-1.575-1.36-3.151-2.233-4.609c-0.589-0.976-1.258-1.926-2.056-2.743c-0.755-0.776-1.658-1.428-2.672-1.821
			c-0.67-0.255-1.435-0.427-2.114-0.258c-0.043,0.012-0.057,0.017-0.057,0.017c-0.042,0.014-0.056,0.018-0.056,0.018
			c-0.04,0.015-0.054,0.02-0.054,0.02c-0.039,0.016-0.052,0.022-0.052,0.022c-0.038,0.018-0.05,0.024-0.05,0.024
			c-0.036,0.019-0.048,0.026-0.048,0.026c-0.035,0.02-0.046,0.027-0.046,0.027c-0.033,0.022-0.044,0.029-0.044,0.029
			c-0.042,0.031-0.052,0.039-0.052,0.039c-0.039,0.033-0.048,0.042-0.048,0.042c-0.036,0.035-0.045,0.044-0.045,0.044
			c-0.033,0.038-0.041,0.047-0.041,0.047c-0.03,0.04-0.038,0.05-0.038,0.05c-0.027,0.042-0.034,0.053-0.034,0.053
			c-0.017,0.031-0.026,0.047-0.026,0.047c-0.016,0.032-0.023,0.048-0.023,0.048c-0.014,0.033-0.02,0.05-0.02,0.05
			c-0.012,0.035-0.018,0.052-0.018,0.052c-0.01,0.036-0.015,0.054-0.015,0.054c-0.009,0.037-0.013,0.056-0.013,0.056
			c-0.007,0.038-0.01,0.058-0.01,0.058c-0.005,0.04-0.008,0.06-0.008,0.06c-0.004,0.041-0.005,0.061-0.005,0.061
			c-0.002,0.042-0.003,0.063-0.003,0.063c-0.006,0.377,0.078,0.706,0.183,1.057c0.163,0.524,0.394,1.053,0.623,1.553
			c1.274,2.646,2.87,5.444,3.759,8.252c1.433,4.275,1.978,8.895,2.408,13.369l3.153,39.208l0.083,1.172
			c0.046,0.653,0.09,1.617,0.114,2.259c0.054,1.712,0.038,3.469-0.164,5.171c-0.26,2.255-0.886,4.498-2.042,6.463
			c-1.183,2.038-2.947,3.731-5.035,4.824c-1.734,0.914-3.657,1.454-5.595,1.716c-2.183,0.289-4.426,0.227-6.582-0.226
			c-1.294-0.275-2.573-0.7-3.755-1.297c-1.288-0.652-2.469-1.517-3.553-2.465c-2.287-1.967-4.287-4.585-6.666-6.445
			c-0.636-0.482-1.323-0.912-2.06-1.22c-0.566-0.232-1.227-0.424-1.822-0.328c-0.043,0.008-0.057,0.011-0.057,0.011
			c-0.042,0.009-0.055,0.012-0.055,0.012c-0.041,0.011-0.054,0.014-0.054,0.014c-0.04,0.012-0.053,0.016-0.053,0.016
			c-0.039,0.013-0.051,0.018-0.051,0.018c-0.038,0.015-0.05,0.02-0.05,0.02c-0.037,0.016-0.049,0.022-0.049,0.022
			c-0.036,0.018-0.047,0.024-0.047,0.024c-0.035,0.019-0.046,0.026-0.046,0.026c-0.033,0.021-0.044,0.028-0.044,0.028
			c-0.043,0.03-0.053,0.038-0.053,0.038c-0.041,0.033-0.051,0.041-0.051,0.041c-0.039,0.035-0.048,0.044-0.048,0.044
			c-0.037,0.038-0.046,0.047-0.046,0.047c-0.03,0.035-0.04,0.047-0.04,0.047c-0.029,0.037-0.038,0.05-0.038,0.05
			c-0.027,0.039-0.036,0.052-0.036,0.052c-0.026,0.041-0.034,0.055-0.034,0.055c-0.187,0.327-0.249,0.68-0.293,1.015
			c-0.053,0.445-0.055,0.912-0.049,1.36c0.02,1.393,0.176,2.932-0.086,4.307c-0.139,0.74-0.396,1.467-0.809,2.1
			c-0.435,0.669-1.014,1.191-1.692,1.566c-1.504,0.808-3.288,0.979-4.956,1.202c-0.527-2.977-1.29-5.959-2.578-8.704
			c-0.649-1.374-1.447-2.696-2.438-3.851c-0.712-0.83-1.539-1.57-2.435-2.197c-0.581-0.406-1.2-0.773-1.848-1.063
			c-0.467-0.207-1.019-0.407-1.518-0.436c-0.082-0.004-0.145-0.002-0.194,0.001c-0.03,0.002-0.045,0.004-0.045,0.004
			c-0.043,0.005-0.057,0.008-0.057,0.008c-0.041,0.007-0.055,0.01-0.055,0.01c-0.039,0.009-0.052,0.013-0.052,0.013
			c-0.037,0.012-0.049,0.016-0.049,0.016c-0.035,0.014-0.046,0.018-0.046,0.018c-0.043,0.021-0.053,0.027-0.053,0.027
			c-0.039,0.025-0.048,0.031-0.048,0.031c-0.043,0.036-0.05,0.043-0.05,0.043c-0.034,0.038-0.04,0.046-0.04,0.046
			c-0.029,0.043-0.034,0.052-0.034,0.052c-0.019,0.037-0.024,0.047-0.024,0.047c-0.016,0.04-0.019,0.051-0.019,0.051
			c-0.013,0.043-0.015,0.054-0.015,0.054c-0.007,0.034-0.009,0.046-0.009,0.046c-0.005,0.036-0.007,0.048-0.007,0.048
			c-0.003,0.038-0.004,0.05-0.004,0.05c-0.002,0.039-0.002,0.053-0.002,0.053c0,0.041,0,0.055,0,0.055
			c0.019,0.362,0.118,0.646,0.228,0.967c0.151,0.419,0.358,0.872,0.547,1.277c0,0,1.285,2.633,1.285,2.633
			c1.767,3.726,3.064,7.729,3.45,11.848c-1.59,0.488-4.256,1.593-5.833,2.207c-1.513,0.565-3.076,1.115-4.695,1.254
			c-1.079,0.092-2.199-0.038-3.179-0.519c-1.124-0.548-1.999-1.486-2.795-2.429c-2.086-2.527-3.899-5.613-6.647-7.493
			c-1.455-0.98-3.132-1.639-4.861-1.934c-0.72-0.108-1.586-0.203-2.275,0.032c-0.03,0.012-0.045,0.018-0.045,0.018
			c-0.043,0.019-0.057,0.026-0.057,0.026c-0.04,0.021-0.052,0.028-0.052,0.028c-0.037,0.022-0.048,0.03-0.048,0.03
			c-0.033,0.023-0.044,0.031-0.044,0.031c-0.039,0.033-0.048,0.042-0.048,0.042c-0.033,0.036-0.041,0.045-0.041,0.045
			c-0.028,0.039-0.032,0.046-0.032,0.046c-0.022,0.041-0.026,0.048-0.026,0.048c-0.014,0.036-0.017,0.044-0.017,0.044
			c-0.01,0.038-0.012,0.045-0.012,0.045c-0.007,0.039-0.008,0.047-0.008,0.047c-0.003,0.041-0.003,0.049-0.003,0.049
			c0.001,0.042,0.001,0.051,0.001,0.051c0.003,0.035,0.004,0.044,0.004,0.044c0.005,0.036,0.007,0.045,0.007,0.045
			c0.008,0.037,0.01,0.046,0.01,0.046c0.01,0.038,0.012,0.048,0.012,0.048c0.012,0.039,0.018,0.059,0.018,0.059
			c0.014,0.04,0.022,0.061,0.022,0.061c0.017,0.041,0.026,0.062,0.026,0.062c0.337,0.717,1.075,1.549,1.544,2.194
			c0.683,0.909,1.314,1.889,1.872,2.879c1.103,1.969,2.004,4.081,2.533,6.279c0.48,2.002,0.612,4.132,0.072,6.136
			c-2.431-1.817-4.764-3.836-6.732-6.153c-2.801-3.253-4.917-7.073-6.765-10.93c-1.386-2.94-4.448-9.625-5.82-12.638
			c-2.371-5.378-4.547-10.97-5.805-16.723c-1.338-6.081-1.512-12.413-1.392-18.618c0.179-4.934,0.352-13.264,0.313-18.175
			c0.025-1.608,0.084-3.46,0.216-5.055c0.133-1.709,0.425-3.97,0.482-5.677c0.012-0.635,0.019-1.337-0.163-1.943
			c-0.027-0.086-0.053-0.149-0.076-0.198c-0.014-0.03-0.021-0.045-0.021-0.045c-0.022-0.043-0.03-0.056-0.03-0.056
			c-0.024-0.04-0.032-0.053-0.032-0.053c-0.025-0.037-0.032-0.047-0.032-0.047c-0.029-0.038-0.037-0.047-0.037-0.047
			c-0.039-0.043-0.047-0.051-0.047-0.051c-0.041-0.038-0.049-0.045-0.049-0.045c-0.043-0.034-0.052-0.04-0.052-0.04
			c-0.036-0.024-0.045-0.029-0.045-0.029c-0.037-0.021-0.047-0.025-0.047-0.025c-0.038-0.018-0.048-0.022-0.048-0.022
			c-0.039-0.015-0.049-0.018-0.049-0.018c-0.041-0.012-0.051-0.014-0.051-0.014c-0.042-0.009-0.052-0.011-0.052-0.011
			c-0.043-0.006-0.053-0.007-0.053-0.007c-0.032-0.003-0.043-0.003-0.043-0.003c-0.033-0.001-0.044-0.001-0.044-0.001
			c-0.033,0.001-0.045,0.001-0.045,0.001c-0.034,0.002-0.045,0.004-0.045,0.004c-0.034,0.004-0.046,0.006-0.046,0.006
			c-0.035,0.006-0.046,0.008-0.046,0.008c-0.035,0.007-0.047,0.01-0.047,0.01c-0.035,0.009-0.047,0.012-0.047,0.012
			c-0.035,0.011-0.047,0.015-0.047,0.015c-0.036,0.012-0.048,0.017-0.048,0.017c-0.036,0.014-0.048,0.019-0.048,0.019
			c-0.49,0.209-0.842,0.625-1.131,1.01c-0.37,0.509-0.672,1.074-0.941,1.642c-0.998,2.156-1.663,4.508-2.27,6.801
			c-1.512,5.91-2.505,12.146-3.166,18.21c-0.787,7.363-1.033,14.94-0.591,22.332c0.18,2.966,0.867,12.117,0.903,14.918
			c0.026,1.425,0.019,2.913-0.12,4.331c-0.117,1.163-0.319,2.339-0.756,3.427c-0.427,1.096-1.192,2.127-2.182,2.743
			c-0.629,0.405-1.342,0.67-2.064,0.853c-2.204,0.571-6.15,0.608-8.442,0.8c-2.385,0.175-4.896,0.549-7.254,0.957
			c-3.933,0.713-10.744,2.092-14.614,2.58c-1.39,0.172-2.836,0.307-4.236,0.319c-1.588,0.015-3.195-0.126-4.734-0.532
			c-3.76-0.956-6.807-3.551-9.668-6.048c-4.493-3.976-9.273-8.617-14.674-11.303c-0.619-0.293-1.265-0.565-1.932-0.727
			c-0.454-0.108-0.974-0.177-1.411-0.036c-0.043,0.015-0.064,0.023-0.064,0.023c-0.041,0.017-0.062,0.026-0.062,0.026
			c-0.04,0.019-0.059,0.029-0.059,0.029c-0.038,0.021-0.057,0.033-0.057,0.033c-0.036,0.023-0.054,0.036-0.054,0.036
			c-0.034,0.026-0.051,0.039-0.051,0.039c-0.033,0.028-0.048,0.041-0.048,0.041c-0.043,0.043-0.057,0.058-0.057,0.058
			c-0.027,0.031-0.04,0.047-0.04,0.047c-0.025,0.033-0.038,0.049-0.038,0.049c-0.024,0.034-0.035,0.052-0.035,0.052
			c-0.022,0.036-0.033,0.055-0.033,0.055c-0.021,0.038-0.031,0.058-0.031,0.058c-0.019,0.04-0.028,0.06-0.028,0.06
			c-0.018,0.042-0.026,0.063-0.026,0.063c-0.15,0.401-0.155,0.783-0.137,1.191c0.029,0.512,0.129,1.028,0.252,1.526
			c0.693,2.627,1.945,5.11,3.355,7.423c2.116,3.432,4.953,6.422,8.233,8.763c2.258,1.672,5.441,3.297,7.914,4.663
			c1.675,0.951,3.393,1.952,4.787,3.295c0.573,0.558,1.09,1.189,1.457,1.902c0.304,0.589,0.494,1.236,0.577,1.893
			c0.124,0.971,0.032,1.963-0.169,2.917c-0.279,1.312-0.764,2.585-1.324,3.801c-0.787,1.68-1.725,3.32-2.756,4.862
			c-1.238,1.835-2.724,3.545-4.551,4.814c-0.851,0.594-1.779,1.097-2.74,1.488c-1.167,0.476-2.428,0.806-3.653,1.1
			c-1.104,0.262-2.828,0.611-3.897,0.974c-0.301,0.106-0.654,0.247-0.902,0.423c-0.032,0.023-0.048,0.035-0.048,0.035
			c-0.03,0.024-0.045,0.036-0.045,0.036c-0.042,0.036-0.056,0.048-0.056,0.048c-0.038,0.037-0.05,0.05-0.05,0.05
			c-0.034,0.038-0.044,0.051-0.044,0.051c-0.03,0.039-0.039,0.052-0.039,0.052c-0.025,0.04-0.033,0.053-0.033,0.053
			c-0.021,0.041-0.027,0.054-0.027,0.054c-0.015,0.038-0.019,0.049-0.019,0.049c-0.01,0.033-0.012,0.044-0.012,0.044
			c-0.007,0.033-0.009,0.044-0.009,0.044c-0.004,0.034-0.005,0.045-0.005,0.045c-0.002,0.034-0.002,0.046-0.002,0.046
			c0.001,0.035,0.002,0.047,0.002,0.047c0.004,0.035,0.005,0.047,0.005,0.047c0.006,0.036,0.009,0.048,0.009,0.048
			c0.009,0.036,0.012,0.048,0.012,0.048c0.011,0.037,0.015,0.049,0.015,0.049c0.014,0.037,0.019,0.049,0.019,0.049
			c0.016,0.037,0.022,0.05,0.022,0.05c0.018,0.038,0.025,0.05,0.025,0.05c0.021,0.038,0.028,0.051,0.028,0.051
			c0.023,0.038,0.031,0.051,0.031,0.051c0.224,0.345,0.537,0.592,0.838,0.812c0.355,0.251,0.744,0.466,1.137,0.653
			c1.375,0.648,2.887,0.99,4.401,1.074c3.437,0.179,6.882-0.762,9.902-2.375c1.519-0.817,2.944-1.837,4.201-3.019
			c1.918-1.794,3.523-3.944,5.004-6.106c1.474-2.169,3.844-5.969,5.526-7.902c0.982-1.15,2.083-2.216,3.3-3.116
			c2.659-1.994,5.862-3.114,9.072-3.863c4.585-1.076,9.599-1.592,14.286-2.075c1.181-0.11,2.406-0.193,3.59-0.09
			c0.921,0.076,1.838,0.262,2.722,0.532c1.566,0.478,3.073,1.203,4.524,1.957c7.513,4.011,15.956,10.278,23.143,14.902
			c-2.196,1.636-4.707,3.475-6.663,5.369c-2.228,2.126-4.249,4.514-5.85,7.15c-0.612,1.023-1.189,2.097-1.614,3.212
			c-0.201,0.558-0.415,1.187-0.363,1.78c0.004,0.035,0.006,0.046,0.006,0.046c0.006,0.034,0.008,0.045,0.008,0.045
			c0.007,0.033,0.009,0.043,0.009,0.043c0.011,0.042,0.014,0.052,0.014,0.052c0.013,0.04,0.016,0.05,0.016,0.05
			c0.015,0.038,0.019,0.047,0.019,0.047c0.017,0.036,0.021,0.045,0.021,0.045c0.024,0.042,0.029,0.05,0.029,0.05
			c0.027,0.039,0.033,0.047,0.033,0.047c0.037,0.043,0.043,0.05,0.043,0.05c0.041,0.038,0.048,0.044,0.048,0.044
			c0.038,0.028,0.046,0.033,0.046,0.033c0.041,0.025,0.056,0.032,0.056,0.032c0.03,0.014,0.045,0.021,0.045,0.021
			c0.032,0.012,0.048,0.018,0.048,0.018c0.033,0.011,0.051,0.015,0.051,0.015c0.035,0.009,0.053,0.013,0.053,0.013
			c0.037,0.007,0.056,0.01,0.056,0.01c0.039,0.005,0.058,0.007,0.058,0.007c0.04,0.003,0.061,0.005,0.061,0.005
			c0.366,0.012,0.674-0.069,1.013-0.167c0.478-0.146,0.952-0.348,1.405-0.558c1.078-0.504,2.176-1.139,3.197-1.754
			c4.463-2.673,11.481-7.949,15.778-11.025c4.94,2.857,11.245,6.382,16.291,9.074c4.956,2.596,10.224,5.21,15.456,7.171
			c2.573,0.97,5.304,1.783,7.973,2.451c2.553,0.646,8.104,1.816,10.605,2.535c5.01,1.371,9.682,3.844,14.176,6.402
			c-1.582,3.496-2.752,7.25-3.704,10.965c-1.269,5.157-2.103,10.536-1.542,15.85c-4.595,3.074-8.873,6.731-12.43,10.973
			c-2.524,3.008-4.668,6.378-6.092,10.047c-1.095,2.731-2.041,5.933-3.309,8.588c-0.644,1.358-1.412,2.675-2.312,3.879
			c-1.725,2.301-3.873,4.31-6.02,6.212c-1.728,1.511-5.628,4.732-7.196,6.304c-0.606,0.602-1.199,1.243-1.702,1.935
			c-0.466,0.641-0.865,1.346-1.093,2.108c-0.209,0.688-0.266,1.421-0.189,2.135c-3.243-0.252-8.643-0.325-11.969-0.372
			c-3.433-0.035-7.974-0.057-11.355,0.089c-7.574,0.322-15.266,1.18-22.466,3.65c-6.12,2.043-13.241,6.41-18.901,9.573
			c-3.758,2.083-7.678,4.052-11.767,5.395c-4.931,1.65-10.178,2.239-15.358,2.319c-9.551,0.197-21.922-1.683-31.472-2.776
			c-7.561-0.902-17.414-1.048-25.102-1.292c-3.724-0.148-7.745-0.47-11.447-0.92c-9.372-1.106-20.143-2.91-29.531-1.847
			c-9.51,1.006-18.806,5.441-27.63,8.909c-7.819,3.162-17.302,5.017-25.141,8.129c-3.686,1.463-7.22,3.377-10.382,5.777
			c-2.813,2.12-5.393,4.578-7.623,7.306c-2,2.454-3.745,5.152-5.006,8.061c-0.856,2.026-1.576,4.177-1.657,6.392
			c-0.017,0.868,0.08,1.839,0.594,2.557c0.032,0.043,0.049,0.064,0.049,0.064c0.034,0.041,0.051,0.062,0.051,0.062
			c0.035,0.04,0.053,0.059,0.053,0.059c0.036,0.038,0.055,0.057,0.055,0.057c0.038,0.037,0.057,0.054,0.057,0.054
			c0.039,0.035,0.059,0.052,0.059,0.052c0.04,0.033,0.061,0.049,0.061,0.049c0.042,0.032,0.063,0.047,0.063,0.047
			c0.401,0.281,0.85,0.376,1.31,0.407c0.495,0.03,0.995-0.026,1.482-0.117c2.035-0.412,3.948-1.318,5.755-2.318
			c-2.091,3.71-4.043,7.609-4.946,11.795c-0.408,2.026-0.525,4.158-0.553,6.223c-0.023,3.762,0.402,7.556,1.058,11.256
			c0.256,1.416,0.648,3.338,0.98,4.756c2.354,9.62,6.156,25.69,8.263,35.399c0.546,2.666,1.032,5.461,1.356,8.163
			c0.384,3.275,0.597,6.628,0.341,9.92c-0.144,1.801-0.434,3.616-0.988,5.339c-1.08,3.129-2.64,6.112-4.435,8.889
			c-1.558,2.393-3.354,4.676-5.272,6.791c-2.91,3.103-5.82,6.32-8.074,9.943c-1.115,1.814-2.134,3.748-2.573,5.848
			c-0.577,2.614-0.826,5.404-1.044,8.072c-0.456,6.023-0.559,12.989-0.613,19.05c-0.108,12.501-0.424,25.531-1.994,37.934
			c-0.781,5.88-1.74,12.193-3.062,17.973c-0.94,4.1-2.325,8.282-3.2,12.399c-0.366,1.707-0.733,3.519-0.9,5.26
			c-0.072,0.967-0.015,1.963,0.312,2.882c0.065,0.181,0.142,0.367,0.229,0.539c0.054,0.103,0.114,0.22,0.177,0.319
			c0,0,0.027,0.044,0.027,0.044s0.028,0.044,0.028,0.044s0.028,0.043,0.028,0.043c0.029,0.043,0.058,0.086,0.058,0.086
			c0.03,0.042,0.06,0.084,0.06,0.084c0.031,0.042,0.062,0.083,0.062,0.083c0.032,0.041,0.064,0.081,0.064,0.081
			c0.033,0.04,0.066,0.08,0.066,0.08c0.034,0.039,0.068,0.078,0.068,0.078c0.034,0.038,0.069,0.077,0.069,0.077
			c0.035,0.038,0.071,0.075,0.071,0.075c0.036,0.037,0.073,0.074,0.073,0.074c0.037,0.036,0.075,0.072,0.075,0.072
			c0.038,0.035,0.077,0.071,0.077,0.071c0.039,0.035,0.079,0.069,0.079,0.069c0.04,0.034,0.081,0.068,0.081,0.068
			c0.041,0.033,0.083,0.066,0.083,0.066c0.042,0.032,0.085,0.065,0.085,0.065c0.043,0.032,0.087,0.063,0.087,0.063l0.044,0.031
			l0.045,0.031c0.263,0.177,0.545,0.332,0.835,0.463c1.4,0.638,3.096,1.392,4.404,2.202c0.039,0.028,0.047,0.034,0.047,0.034
			c0.039,0.032,0.046,0.039,0.046,0.039c0.038,0.036,0.046,0.044,0.046,0.044c0.038,0.041,0.046,0.049,0.046,0.049
			c0.03,0.036,0.046,0.055,0.046,0.055c0.03,0.039,0.045,0.06,0.045,0.06c0.401,0.602,0.581,1.28,0.767,1.966
			c0.617,2.384,0.726,4.892,1.374,7.27c0.352,1.343,0.821,2.673,1.481,3.898c0.293,0.529,0.614,1.089,1.025,1.533
			c0.958,1.016,2.277,1.534,3.598,1.883c1.185,0.305,2.425,0.456,3.645,0.54c1.273,0.107,14.277,0.072,15.881,0.073
			c0.908-0.002,1.832-0.071,2.711-0.309c0.493-0.134,0.977-0.327,1.406-0.607c0.506-0.329,0.898-0.769,1.141-1.279
			c0.309-0.641,0.379-1.369,0.342-2.072c-0.054-1.202-0.407-2.383-0.968-3.444c-0.48-0.914-1.107-1.752-1.804-2.511
			c-0.35-0.382-0.741-0.764-1.125-1.113c-2.935-2.664-6.538-6.156-9.319-9.012c-1.042-1.174-1.825-2.566-2.443-4.002
			c-0.897-2.099-1.471-4.347-1.89-6.588c-1.364-7.761-1.211-15.835-0.786-23.679c0.339-5.51,0.967-11.328,1.724-16.797
			c0.534-3.763,1.147-7.885,1.935-11.601c1.481-6.937,3.509-13.914,7.116-20.067c1.147-1.975,2.563-3.822,4.071-5.533
			c9.306-10.724,20.049-21.309,30.37-31.067c-1.167,6.568-3.607,20.51-4.824,26.872c-0.108,0.666-0.171,1.355-0.183,2.03
			c-0.036,1.918,0.304,3.836,0.872,5.664c0.559,1.806,1.357,3.568,2.259,5.229c3.422,5.862,7.172,13.382,10.217,19.518
			c3.529,7.185,7.813,16.153,10.97,23.444c3.093,7.121,6.299,15.187,8.868,22.51c1.714,5.036,5.762,16.397,7.217,21.359
			c0.211,0.699,0.515,1.378,0.919,1.987c0.779,1.192,1.952,2.092,3.25,2.656c0.819,0.372,1.712,0.559,2.545,0.894
			c2.166,0.828,4.127,2.209,5.582,4.019c0.49,0.646,1.084,1.217,1.762,1.663c1.087,0.726,2.344,1.17,3.617,1.442
			c0.967,0.206,1.964,0.316,2.951,0.364c1.207,0.045,14.106,0.049,15.419,0.008c0.859-0.052,1.731-0.181,2.528-0.519
			c0.647-0.267,1.263-0.741,1.598-1.335c0.349-0.599,0.448-1.252,0.437-1.922c-0.015-0.647-0.145-1.291-0.321-1.913
			c-0.259-0.918-0.617-1.818-1.058-2.664c-0.815-1.571-1.925-2.985-3.193-4.216c-0.748-0.728-1.571-1.408-2.413-2.025
			c-1.181-0.831-2.501-1.741-3.64-2.634c-3.551-2.755-6.898-5.897-10.02-9.128c-2.145-2.269-4.027-4.843-5.772-7.428
			c-2.91-4.349-5.634-9.136-8.104-13.749c-5.77-10.893-11.124-22.249-14.553-34.119c-2.352-8.034-3.407-16.565-2.194-24.889
			c0.471-3.476,1.466-6.978,2.472-10.332c1.403-4.607,3.126-9.297,5.049-13.713c1.483-3.468,3.368-7,4.876-10.456
			c3.433-7.872,6.076-16.221,8.281-24.514c1.961,0.928,11.643,5.665,13.793,6.714c7.388,3.493,15.146,6.798,22.979,9.124
			c12.113,3.627,24.904,5.422,37.544,4.528c16.622-1.198,32.722-7.133,46.857-15.832c0.286,5.957,0.69,12.874,1.287,18.764
			c0.809,7.944,2.286,17.93,3.488,25.882c1.859,11.579,3.996,23.859,4.055,35.569c0.079,4.881-0.345,9.774-0.982,14.61
			c-1.403,11.259-4.036,23.091-6.488,34.181c-0.806,4.06-1.837,8.575-2.187,12.685c-0.073,1.152,0.061,2.405,0.612,3.427
			c0.346,0.655,0.87,1.186,1.46,1.556c0.579,0.367,1.199,0.552,1.802,0.839c0.898,0.404,1.809,0.865,2.653,1.375
			c0.438,0.276,0.967,0.587,1.338,0.933c0.566,0.545,0.935,1.148,1.29,1.826c0.483,0.943,0.853,1.963,1.17,2.973
			c0.304,0.96,0.52,1.987,0.914,2.916c0.51,1.25,1.335,2.51,2.572,3.104c0.453,0.221,0.95,0.35,1.452,0.389
			c0.684,0.046,11.413,0.003,11.923,0.01c1.269-0.022,2.654-0.069,3.916-0.2c1.498-0.168,3.045-0.376,4.417-1.036
			c4.78,0.509,10.187,1.142,14.97,1.235c0.602,0.002,1.273,0.018,1.867-0.072c0.554-0.075,1.106-0.209,1.613-0.449
			c0.577-0.265,1.097-0.72,1.397-1.237c0.309-0.52,0.444-1.078,0.495-1.67c0.045-0.563,0.008-1.135-0.105-1.689
			c-0.387-1.879-1.607-3.465-2.976-4.758c-0.776-0.744-1.666-1.394-2.525-2.036c-0.62-0.479-1.251-1.02-1.82-1.559
			c-2.531-2.395-4.519-5.342-5.982-8.496c-0.613-1.358-1.103-2.825-1.535-4.25c-2.038-6.963-3.246-14.586-4.377-21.756
			c-2.907-20.081-3.949-42.75-5.033-63.081c1.454-9.754,4.032-19.453,7.042-28.835c1.855-5.784,3.885-11.678,7.09-16.869
			c2.672-4.357,6.276-8.421,11.079-10.425c0.671-0.281,1.376-0.524,2.077-0.717c0.563-0.159,1.185-0.276,1.754-0.418
			c1.053-0.261,2.136-0.605,3.149-0.992c3.786-1.45,7.252-3.668,10.402-6.2c4.259-3.437,8.048-7.521,11.488-11.768
			c0.337,2.267,1.633,4.643,4.265,3.954c0.688-0.167,1.349-0.457,1.984-0.764c2.206-1.094,4.573-2.616,6.877-3.495
			c1.087-0.425,2.229-0.739,3.389-0.882c1.946-0.249,3.937-0.108,5.878,0.121c2.867,0.345,6.467,1.042,9.329,0.739
			c1.93-0.199,3.826-0.815,5.487-1.823c1.609-0.979,3.028-2.348,3.86-4.054c0.723-1.456,1.066-3.23,1.578-4.767
			c0.277-0.829,0.627-1.646,1.118-2.372c0.789-1.178,2.074-2.291,3.105-3.266c0.991-0.946,2.029-1.943,2.573-3.225
			c0.263-0.627,0.369-1.311,0.397-1.987c0.075-2.004-0.438-4.109,0.035-6.089c0.221-0.939,0.694-1.799,1.231-2.593
			c0.888-1.311,2.249-2.825,3.165-4.116c0.733-1.025,1.386-2.134,1.755-3.345c0.612-2.039,0.432-4.218,0.183-6.302
			c-0.249-2.052-0.813-4.921-0.657-6.957c0.067-0.967,0.35-1.915,0.811-2.767c0.803-1.496,2.125-2.834,3.137-4.188
			c1.185-1.568,2.139-3.326,2.889-5.14c0.782-1.923,1.371-3.96,1.53-6.036c0.134-1.59-0.084-3.291,0.005-4.883
			c0.028-0.417,0.102-0.9,0.232-1.281c0.124-0.368,0.269-0.636,0.463-0.949c0.585-0.9,1.328-1.762,1.667-2.799
			c0.323-0.916,0.346-1.907,0.267-2.866c-0.18-2.067-0.746-4.144-1.298-6.14l-2.006-6.73c-0.299-1.09-0.609-2.224-0.757-3.345
			c-0.118-0.859-0.084-1.807,0.31-2.579c0.173-0.356,0.401-0.691,0.637-1.009c2.416-3.153,5.94-7.332,8.012-10.677
			c0.609-0.986,1.088-2.172,1.517-3.248c1.366-3.431,2.803-7.053,3.727-10.629c0.881-0.033,2.275-0.036,3.166-0.033
			c5.523,0.017,11.959,0.598,17.315-0.857c1.211-0.337,2.399-0.799,3.49-1.426c1.185-0.681,2.259-1.567,3.189-2.567
			c2.264-2.451,3.773-5.546,4.591-8.766c0.634-0.59,1.013-1.361,1.267-2.174c0.351-1.152,0.461-2.378,0.369-3.577
			c-0.126-1.559-0.627-3.155-1.719-4.31c-0.649-0.686-1.488-1.171-2.368-1.499c-1.003-1.016-2.157-1.909-3.324-2.73
			c-1.839-1.291-4.024-2.579-5.979-3.704c-6.202-3.549-15.251-8.057-21.065-12.126c-2.321-1.596-4.469-3.478-6.377-5.55
			c-0.546-0.595-2.567-2.837-3.094-3.372c2.518-3.456,3.968-7.574,5.196-11.634c0.303-1.06,1.231-4.296,1.502-5.307
			c0.174-0.669,0.35-1.374,0.431-2.06c0.056-0.493,0.075-1.056-0.117-1.496c-0.013-0.029-0.02-0.043-0.02-0.043
			c-0.021-0.042-0.029-0.056-0.029-0.056c-0.023-0.041-0.031-0.054-0.031-0.054c-0.025-0.039-0.034-0.051-0.034-0.051
			c-0.027-0.037-0.036-0.049-0.036-0.049c-0.029-0.035-0.039-0.047-0.039-0.047c-0.031-0.034-0.041-0.045-0.041-0.045
			c-0.033-0.032-0.044-0.042-0.044-0.042c-0.035-0.03-0.047-0.04-0.047-0.04c-0.037-0.028-0.049-0.037-0.049-0.037
			c-0.039-0.026-0.052-0.035-0.052-0.035c-0.041-0.025-0.055-0.032-0.055-0.032c-0.043-0.023-0.058-0.03-0.058-0.03
			c-0.03-0.014-0.045-0.021-0.045-0.021c-0.042-0.017-0.069-0.028-0.069-0.028c-0.028-0.01-0.056-0.019-0.056-0.019
			c-0.029-0.009-0.058-0.018-0.058-0.018c-0.03-0.008-0.06-0.016-0.06-0.016c-0.457-0.104-0.87-0.067-1.307-0.012
			c-0.514,0.071-1.037,0.201-1.536,0.345c-1.771,0.525-3.505,1.289-5.176,2.072c-2.301,1.094-4.695,2.381-6.899,3.66
			C545.481,258.326,543.529,259.557,541.773,260.913z"/>
	</g>
	<g id="POLYLINE_16_">
		
			<path fill="none" stroke="#FB8604" stroke-width="3.5" stroke-linecap="round" stroke-linejoin="round" stroke-miterlimit="10" d="
			M525.767,233.99c-4.117,2.944-8.889,5.515-14.08,5.448c-3.271-0.022-6.471-0.963-9.514-2.095
			c-7.128-2.73-14.592-6.938-21.835-9.365c-2.157-0.732-5.525-1.706-7.558-2.646c-0.989-0.453-1.962-0.988-2.788-1.703
			c-0.545-0.47-1.014-1.034-1.354-1.669c-0.454-0.837-0.703-1.775-0.843-2.713c-0.145-0.984-0.176-2.005-0.173-2.999
			c0.059-2.99,0.234-6.624,0.13-9.604c5.959-1.154,12.118-1.236,18.163-0.886c5.772,0.334,11.644,1.037,17.092,3.058
			c2.29,0.849,4.512,1.944,6.547,3.296c2.625,1.745,4.98,3.906,7.054,6.275C520.589,222.953,523.655,228.321,525.767,233.99z"/>
	</g>
</g>
</svg>
