<?xml version="1.0" encoding="utf-8"?>
<!-- Generator: Adobe Illustrator 24.2.0, SVG Export Plug-In . SVG Version: 6.00 Build 0)  -->
<!DOCTYPE svg PUBLIC "-//W3C//DTD SVG 1.1//EN" "http://www.w3.org/Graphics/SVG/1.1/DTD/svg11.dtd" [
	<!ENTITY ns_extend "http://ns.adobe.com/Extensibility/1.0/">
	<!ENTITY ns_ai "http://ns.adobe.com/AdobeIllustrator/10.0/">
	<!ENTITY ns_graphs "http://ns.adobe.com/Graphs/1.0/">
	<!ENTITY ns_vars "http://ns.adobe.com/Variables/1.0/">
	<!ENTITY ns_imrep "http://ns.adobe.com/ImageReplacement/1.0/">
	<!ENTITY ns_sfw "http://ns.adobe.com/SaveForWeb/1.0/">
	<!ENTITY ns_custom "http://ns.adobe.com/GenericCustomNamespace/1.0/">
	<!ENTITY ns_adobe_xpath "http://ns.adobe.com/XPath/1.0/">
]>
<svg version="1.1" xmlns:x="&ns_extend;" xmlns:i="&ns_ai;" xmlns:graph="&ns_graphs;"
	 xmlns="http://www.w3.org/2000/svg" xmlns:xlink="http://www.w3.org/1999/xlink" x="0px" y="0px" width="750px" height="750px"
	 viewBox="0 0 750 750" enable-background="new 0 0 750 750" xml:space="preserve">
<metadata>
	<sfw  xmlns="&ns_sfw;">
		<slices></slices>
		<sliceSourceBounds  bottomLeftOrigin="true" height="11102.873" width="7970" x="-4000" y="-2649.281"></sliceSourceBounds>
	</sfw>
</metadata>
<g id="FILL-BACKGROUND">
	<rect fill="#FFFFFF" width="750" height="750"/>
</g>
<g id="N-TEXT">
</g>
<g id="N-DIMENSIONS">
</g>
<g id="AG-DIAGRAM">
	<g id="POLYLINE_224_">
		<g>
			<g>
				
					<line fill="none" stroke="#FB8604" stroke-width="3.25" stroke-linecap="round" stroke-linejoin="round" x1="156.792" y1="635.749" x2="158.792" y2="635.749"/>
				
					<line fill="none" stroke="#FB8604" stroke-width="3.25" stroke-linecap="round" stroke-linejoin="round" stroke-dasharray="3.9525,6.9168" x1="165.709" y1="635.749" x2="466.592" y2="635.749"/>
				
					<line fill="none" stroke="#FB8604" stroke-width="3.25" stroke-linecap="round" stroke-linejoin="round" x1="470.05" y1="635.749" x2="472.05" y2="635.749"/>
			</g>
		</g>
	</g>
</g>
<g id="AG-GUIDES">
</g>
<g id="AG-DETAIL-DIAGRAM">
</g>
<g id="AG-DETAILS">
	<g id="POLYLINE_1540_">
		<path fill="none" stroke="#FB8604" stroke-width="2" stroke-linecap="round" stroke-linejoin="round" stroke-miterlimit="10" d="
			M605.279,376.993c-1.575-1.61-2.968-3.413-4.154-5.327c-1.19-1.929-2.19-4.001-2.848-6.173c-0.72-2.379-1.021-4.952-0.408-7.388
			c0.978-4.058,3.986-7.479,6.314-10.837c1.974-2.827,3.768-6.477,5.601-9.399"/>
	</g>
</g>
<g id="AG-ANIMALS">
	<g id="POLYLINE_90_">
		
			<path fill="none" stroke="#FB8604" stroke-width="2.75" stroke-linecap="round" stroke-linejoin="round" stroke-miterlimit="10" d="
			M554.887,379.569c6.145-1.91,12.683-3.963,19.074-4.673c6.82-0.797,13.789-0.173,20.58,0.646
			c2.111,0.268,12.015,1.676,13.923,1.811c1.263,0.105,2.563,0.159,3.828,0.07c1.586-0.107,3.174-0.453,4.609-1.151
			c3.04-1.459,5.102-4.315,6.708-7.187c1.04-1.895,1.901-3.904,2.536-5.971c0.478-1.592,0.854-3.246,0.885-4.915"/>
	</g>
	<g id="POLYLINE_91_">
		
			<path fill="none" stroke="#FB8604" stroke-width="2.75" stroke-linecap="round" stroke-linejoin="round" stroke-miterlimit="10" d="
			M558.197,319.676l4.515,2.334c3.491,1.77,7.201,3.171,11.006,4.093c7.577,1.871,16.931,3.303,24.23,6.038
			c7.527,2.751,14.425,7.065,20.888,11.752"/>
	</g>
	<g id="POLYLINE_92_">
		
			<path fill="none" stroke="#FB8604" stroke-width="2.75" stroke-linecap="round" stroke-linejoin="round" stroke-miterlimit="10" d="
			M176.334,381.992c-2.759,1.636-6.334,3.186-9.057,4.878c-1.71,1.033-3.67,2.562-5.438,3.489c-0.694,0.354-1.532,0.714-2.301,0.652
			c-0.047-0.005-0.07-0.007-0.07-0.007c-0.046-0.006-0.069-0.01-0.069-0.01c-0.046-0.008-0.068-0.012-0.068-0.012
			c-0.045-0.01-0.067-0.015-0.067-0.015c-0.044-0.011-0.066-0.018-0.066-0.018c-0.044-0.013-0.065-0.02-0.065-0.02
			c-0.043-0.015-0.064-0.023-0.064-0.023c-0.042-0.017-0.063-0.026-0.063-0.026c-0.041-0.019-0.062-0.029-0.062-0.029
			c-0.045-0.023-0.07-0.036-0.07-0.036c-0.049-0.028-0.073-0.043-0.073-0.043c-0.048-0.031-0.071-0.047-0.071-0.047
			c-0.047-0.034-0.07-0.051-0.07-0.051c-0.045-0.036-0.068-0.055-0.068-0.055c-0.044-0.039-0.066-0.059-0.066-0.059
			c-0.043-0.042-0.065-0.063-0.065-0.063c-0.042-0.044-0.063-0.067-0.063-0.067c-0.041-0.047-0.062-0.071-0.062-0.071
			c-0.04-0.049-0.06-0.074-0.06-0.074c-0.59-0.795-0.804-1.766-0.962-2.716c-0.259-1.767-0.199-3.575-0.009-5.346
			c0.358-3.241,1.259-6.436,2.717-9.356c1.714-3.458,4.172-6.519,7.005-9.127c18.235-16.668,52.886-19.319,76.714-19.262
			c25.271-0.068,52.689,5.374,77.974,4.153c5.289-0.249,10.825-0.78,16.051-1.639c7.589-1.234,15.379-3.203,22.782-5.282
			c9.357-2.664,27.245-8.41,36.566-10.166c2.969-0.571,6.035-1.026,9.059-1.129c2.707-0.092,5.445,0.115,8.105,0.629
			c3.004,0.569,5.981,1.56,8.834,2.653c1.087,0.429,6.192,2.457,7.173,2.819"/>
	</g>
	<g id="POLYLINE_93_">
		
			<path fill="none" stroke="#FB8604" stroke-width="2.75" stroke-linecap="round" stroke-linejoin="round" stroke-miterlimit="10" d="
			M204.776,626.256c4.794-0.383,9.546-1.608,13.893-3.674c2.912-1.389,5.622-3.223,8.08-5.307"/>
	</g>
	<g id="POLYLINE_94_">
		
			<path fill="none" stroke="#FB8604" stroke-width="2.75" stroke-linecap="round" stroke-linejoin="round" stroke-miterlimit="10" d="
			M247.257,476.178c7.534,3.664,15.377,7.244,23.336,9.868c6.738,2.236,13.807,3.854,20.861,4.676
			c12.029,1.39,24.346,0.631,36.359-0.613c6.696-0.699,15.08-1.921,21.763-2.967c8.6-1.475,33.128-5.466,41.401-7.168"/>
	</g>
	<g id="POLYLINE_95_">
		
			<path fill="none" stroke="#FB8604" stroke-width="2.75" stroke-linecap="round" stroke-linejoin="round" stroke-miterlimit="10" d="
			M400.193,628.055c4.596-0.624,9.026-2.276,13.151-4.357c2.049-1.059,4.075-2.256,5.854-3.731c1.49-1.219,2.789-2.726,4.017-4.204"
			/>
	</g>
	<g id="POLYLINE_96_">
		
			<path fill="none" stroke="#FB8604" stroke-width="2.75" stroke-linecap="round" stroke-linejoin="round" stroke-miterlimit="10" d="
			M378.016,423.313c-0.342,6.097-0.484,12.392-0.053,18.476c0.278,3.804,0.765,7.663,1.728,11.356
			c0.341,1.3,0.756,2.613,1.249,3.862c0.473,1.322,9.22,20.341,9.576,21.543c0.958,2.72,1.492,5.635,1.92,8.482
			c0.893,6.224,1.214,12.82,1.394,19.107c0.163,8.809,0.241,21.557,0.52,30.397c0.126,4.084,0.361,9.676,0.607,13.746
			c0.336,4.883,0.75,10.1,0.721,14.988c-0.016,2.816-0.129,5.73-0.522,8.519c-0.225,1.593-0.617,3.206-0.781,4.808
			c-0.431,3.737-0.336,7.558,0,11.299c0.382,3.85,1.038,7.812,1.222,11.682c0.187,3.286,0.193,6.712-0.071,9.994
			c-0.202,2.245-0.489,4.527-0.401,6.786c0.037,1.011,0.132,2.037,0.387,3.018c0.189,0.736,0.517,1.522,1.017,2.06
			c0.052,0.054,0.069,0.072,0.069,0.072c0.053,0.052,0.071,0.068,0.071,0.068c0.054,0.049,0.072,0.065,0.072,0.065
			c1.826,1.42,3.01,3.485,4.022,5.527c0.382,0.748,0.688,1.609,1.102,2.341c0.632,1.119,1.562,2.064,2.667,2.721
			c1.279,0.768,2.749,1.173,4.22,1.367c0.646,0.084,1.321,0.131,1.972,0.145c0.12-0.012,0.348,0.015,0.467,0.005
			c0,0,13.269,0,13.269,0c0.876-0.001,1.764-0.057,2.629-0.201c0.974-0.164,1.942-0.444,2.818-0.905
			c1.01-0.517,1.845-1.304,2.411-2.217c0.708-1.119,1.175-2.392,1.345-3.706c0.194-1.534,0.045-3.119-0.409-4.596
			c-0.575-1.83-1.809-3.398-3.331-4.542c-0.435-0.331-0.902-0.639-1.374-0.915c-2.628-1.492-5.733-3.112-8.415-4.494
			c-1.627-0.994-2.533-2.645-3.223-4.343c-0.412-1.04-0.728-2.149-0.981-3.24c-0.808-4.005-1.796-9.06-2.716-13.052
			c-0.169-0.771-1.077-4.56-1.202-5.279c-0.143-0.758-0.257-1.557-0.337-2.324c-0.305-2.939-0.215-5.949,0.062-8.887
			c0.398-4.295,1.294-8.628,2.255-12.831c0.701-3.252,1.651-8.143,2.248-11.427c3.217-17.5,5.581-37.207,8.766-54.688
			c0.71-3.665,1.482-7.666,2.54-11.25c0.27-0.884,0.567-1.808,0.954-2.65c0.32-0.684,0.721-1.34,1.151-1.959
			c1.198-1.707,2.702-3.194,4.279-4.55c2.059-1.755,4.326-3.327,6.618-4.762c10.902-6.788,21.866-15.95,31.897-24.009"/>
	</g>
	<g id="POLYLINE_97_">
		
			<path fill="none" stroke="#FB8604" stroke-width="2.75" stroke-linecap="round" stroke-linejoin="round" stroke-miterlimit="10" d="
			M251.156,416.706c1.512,12.294,2.912,25.033,2.702,37.421c-0.081,3.067-0.256,6.19-0.724,9.215
			c-0.276,1.748-0.641,3.5-1.219,5.171c-0.232,0.667-0.504,1.332-0.825,1.96c-0.32,0.638-0.797,1.353-1.182,1.962
			c-1.645,2.523-3.554,4.973-5.488,7.28c-4.223,5.006-9.03,9.893-13.745,14.44c-7.578,7.175-15.483,14.354-22.015,22.521
			c-2.314,2.944-4.583,6.039-6.077,9.492c-1.153,2.743-1.813,5.685-2.245,8.621c-1.358,9.874-0.52,20.016,0.535,29.883
			c1.418,12.161,3.805,24.474,9.215,35.545c1.602,3.221,3.463,6.415,6.048,8.951c0.509,0.491,1.065,0.971,1.64,1.384
			c1.316,0.912,3.944,2.906,5.236,3.845c1.729,1.329,3.909,2.894,5.488,4.391c1.099,1.048,2.102,2.217,2.965,3.467
			c0.557,0.822,1.122,1.675,1.451,2.618c0.475,1.316,0.513,2.769,0.206,4.128c-0.149,0.676-0.377,1.343-0.653,1.977
			c-0.196,0.454-0.425,0.911-0.722,1.309c-0.59,0.804-1.359,1.416-2.223,1.881c-2.22,1.17-4.787,1.466-7.262,1.561
			c-0.273-0.012-0.83,0.032-1.105,0.017c-0.071-0.001-11.352,0.003-11.416-0.001c-0.053-0.003-0.071-0.004-0.071-0.004
			c-0.053-0.005-0.07-0.007-0.07-0.007c-0.052-0.007-0.07-0.009-0.07-0.009c-0.052-0.009-0.069-0.012-0.069-0.012
			c-0.052-0.011-0.069-0.015-0.069-0.015c-0.051-0.013-0.068-0.017-0.068-0.017c-0.051-0.015-0.068-0.02-0.068-0.02
			c-0.051-0.017-0.068-0.023-0.068-0.023c-0.05-0.019-0.067-0.025-0.067-0.025c-0.05-0.021-0.067-0.028-0.067-0.028
			c-0.05-0.023-0.066-0.031-0.066-0.031c-0.049-0.025-0.066-0.033-0.066-0.033c-0.033-0.018-0.065-0.036-0.065-0.036
			c-0.032-0.019-0.065-0.039-0.065-0.039c-0.032-0.02-0.064-0.041-0.064-0.041c-0.032-0.022-0.064-0.044-0.064-0.044
			c-0.032-0.023-0.063-0.047-0.063-0.047c-0.031-0.024-0.063-0.049-0.063-0.049c-0.088-0.07-0.193-0.17-0.246-0.224
			c-0.064-0.059-0.146-0.16-0.18-0.196c-0.029-0.035-0.059-0.071-0.059-0.071c-0.029-0.036-0.058-0.073-0.058-0.073
			c-0.083-0.106-0.179-0.243-0.229-0.319c-0.324-0.5-0.574-1.025-0.79-1.577c-0.616-1.535-0.852-3.208-1.431-4.756
			c-0.787-2.192-2.041-4.289-3.915-5.717c-1.541-1.186-2.988-2.516-4.234-4.009c-0.586-0.708-1.153-1.448-1.624-2.238
			c-1.042-1.757-1.776-3.714-2.412-5.65c-0.689-2.089-1.302-4.617-1.82-6.77c-1.756-7.485-3.419-16.641-4.95-24.211
			c-3.602-18.028-9.217-40.18-12.311-58.226c-0.224-1.549-0.493-3.257-0.562-4.818c-0.018-0.436-0.022-0.891,0.037-1.324
			c0.22-1.661,0.945-3.215,1.755-4.664c1.785-3.106,4.132-5.895,6.526-8.547c1.27-1.381,2.749-2.864,3.919-4.328
			c3.882-4.773,6.442-10.552,7.677-16.563c0.731-3.481,1.035-7.072,1.07-10.626c0.038-3.537-0.183-7.166-0.763-10.658
			c-0.789-4.772-2.282-9.468-4.678-13.682c-1.223-2.092-3.018-4.88-4.218-6.978c-2.773-4.755-5.652-10.215-8.054-15.17
			c0,0-1.539-3.239-1.539-3.239s-0.094-0.206-0.094-0.206s-0.092-0.209-0.092-0.209s-0.09-0.212-0.09-0.212
			c-0.179-0.425-0.355-0.903-0.501-1.341c-0.728-2.197-1.108-4.512-1.317-6.812c-0.313-3.571-0.215-7.211,0.06-10.782
			c0.896-10.931,3.385-21.898,6.109-32.507"/>
	</g>
	<g id="POLYLINE_98_">
		
			<path fill="none" stroke="#FB8604" stroke-width="2.75" stroke-linecap="round" stroke-linejoin="round" stroke-miterlimit="10" d="
			M492.098,173.627c2.999-1.391,5.795-3.285,8.073-5.692c2.726-2.89,4.698-6.462,5.901-10.237"/>
	</g>
	<g id="POLYLINE_99_">
		
			<path fill="none" stroke="#FB8604" stroke-width="2.75" stroke-linecap="round" stroke-linejoin="round" stroke-miterlimit="10" d="
			M461.23,150.422c-0.546-6.776-1.067-13.815-0.275-20.581c0.158-1.198,0.37-2.413,0.74-3.566c0.24-0.729,0.573-1.524,1.091-2.082
			c0.053-0.054,0.079-0.081,0.079-0.081c0.054-0.051,0.081-0.075,0.081-0.075c0.055-0.047,0.082-0.07,0.082-0.07
			c0.056-0.044,0.084-0.064,0.084-0.064c0.028-0.02,0.057-0.04,0.057-0.04c0.029-0.019,0.058-0.037,0.058-0.037
			c0.045-0.027,0.06-0.036,0.06-0.036c0.046-0.025,0.061-0.033,0.061-0.033c0.046-0.023,0.062-0.031,0.062-0.031
			c0.047-0.021,0.063-0.028,0.063-0.028c0.047-0.019,0.063-0.025,0.063-0.025c0.048-0.017,0.064-0.023,0.064-0.023
			c0.048-0.015,0.065-0.02,0.065-0.02c0.049-0.013,0.065-0.018,0.065-0.018c0.049-0.012,0.066-0.015,0.066-0.015
			c0.05-0.01,0.067-0.013,0.067-0.013c0.05-0.008,0.067-0.01,0.067-0.01c0.051-0.006,0.068-0.008,0.068-0.008
			c0.051-0.004,0.068-0.005,0.068-0.005c0.91-0.033,1.68,0.457,2.336,0.997c1.353,1.158,2.248,2.754,2.948,4.369
			c1.466,3.49,2.178,7.279,2.688,11.014c0.479,3.659,0.626,7.645,1.999,11.108"/>
	</g>
	<g id="POLYLINE_100_">
		
			<path fill="none" stroke="#FB8604" stroke-width="2.75" stroke-linecap="round" stroke-linejoin="round" stroke-miterlimit="10" d="
			M459.988,180.129c0.776-2.318,1.765-5.038,2.138-7.442c0.623-3.783,0.328-7.7,0.064-11.505"/>
	</g>
	<g id="POLYLINE_101_">
		
			<path fill="none" stroke="#FB8604" stroke-width="2.75" stroke-linecap="round" stroke-linejoin="round" stroke-miterlimit="10" d="
			M444.471,150.069c-1.245-3.48-2.396-7.116-3.23-10.717c-0.717-3.115-1.173-6.336-1.017-9.539c0.062-1.338,0.231-2.717,0.477-4.033
			c0.287-1.562,0.887-3.867,1.185-5.428c0.101-0.542,0.195-1.115,0.23-1.665c0.028-0.434,0.019-0.943-0.105-1.33
			c-0.013-0.041-0.021-0.061-0.021-0.061c-0.015-0.04-0.022-0.059-0.022-0.059c-0.016-0.038-0.024-0.057-0.024-0.057
			c-0.026-0.055-0.035-0.072-0.035-0.072c-0.029-0.052-0.038-0.068-0.038-0.068c-0.031-0.049-0.042-0.064-0.042-0.064
			c-0.034-0.046-0.045-0.06-0.045-0.06c-0.036-0.043-0.049-0.056-0.049-0.056c-0.048-0.048-0.058-0.057-0.058-0.057
			c-0.052-0.044-0.062-0.052-0.062-0.052c-0.055-0.04-0.067-0.047-0.067-0.047c-0.047-0.029-0.059-0.036-0.059-0.036
			c-0.049-0.026-0.061-0.032-0.061-0.032c-0.051-0.023-0.064-0.029-0.064-0.029c-0.053-0.021-0.066-0.026-0.066-0.026
			c-0.055-0.018-0.069-0.022-0.069-0.022c-0.043-0.012-0.057-0.016-0.057-0.016c-0.044-0.01-0.058-0.014-0.058-0.014
			c-0.045-0.009-0.06-0.012-0.06-0.012c-0.609-0.093-1.158,0.051-1.713,0.235c-0.632,0.221-1.234,0.532-1.797,0.891
			c-2.051,1.307-3.558,3.332-4.563,5.523c-1.983,4.292-2.034,9.177-1.479,13.792c0.627,5.084,1.836,10.195,3.191,15.13"/>
	</g>
	<g id="POLYLINE_102_">
		
			<path fill="none" stroke="#FB8604" stroke-width="2.75" stroke-linecap="round" stroke-linejoin="round" stroke-miterlimit="10" d="
			M550.247,320.315c4.435-0.427,9.255-0.873,13.691-0.659c7.214,0.319,14.602,1.519,21.696,2.84c6.327,1.239,12.867,2.7,18.992,4.71
			c2.31,0.736,4.843,1.837,7.067,2.821c1.515,0.627,3.258,1.327,4.877,0.669c0.662-0.263,1.238-0.705,1.75-1.193
			c0.781-0.751,1.441-1.631,2.013-2.549c0.751-1.226,1.379-2.552,1.719-3.954c0.174-0.755,0.286-1.617,0.039-2.355
			c-0.051-0.148-0.111-0.267-0.168-0.364c-0.034-0.056-0.046-0.074-0.046-0.074c-0.036-0.054-0.049-0.071-0.049-0.071
			c-0.039-0.052-0.052-0.069-0.052-0.069c-0.041-0.05-0.055-0.067-0.055-0.067c-0.043-0.048-0.057-0.064-0.057-0.064
			c-0.045-0.047-0.06-0.062-0.06-0.062c-0.047-0.045-0.063-0.06-0.063-0.06c-0.645-0.568-1.411-0.772-2.197-0.995
			c-1.414-0.363-2.989-0.669-4.264-1.396c-1.789-0.969-3.447-2.779-3.46-4.883c-0.007-0.821,0.228-1.609,0.552-2.354
			c0.57-1.291,1.408-2.467,2.254-3.59c0.752-0.993,2.359-2.944,2.984-3.995c0.36-0.589,0.702-1.275,0.771-1.96
			c0.04-0.344-0.011-0.68-0.116-0.976c-0.154-0.451-0.498-0.862-0.804-1.159c-0.584-0.555-1.293-0.968-2.028-1.288
			c-1.285-0.553-2.7-0.823-4.099-0.747c-1.32,0.069-2.622,0.457-3.773,1.106c-1.417,0.797-2.599,1.976-3.733,3.126
			c-1.921,1.968-3.918,4.187-6.377,5.479c-1.786,0.947-3.776,1.484-5.778,1.716c-1.939,0.221-3.916,0.169-5.841-0.153
			c-1.078-0.185-2.162-0.452-3.179-0.858c-0.676-0.27-1.399-0.637-1.919-1.137c-0.048-0.048-0.071-0.073-0.071-0.073
			c-0.045-0.049-0.067-0.073-0.067-0.073c-0.042-0.049-0.062-0.074-0.062-0.074c-0.038-0.05-0.057-0.075-0.057-0.075
			c-0.035-0.05-0.051-0.075-0.051-0.075c-0.031-0.05-0.039-0.063-0.039-0.063c-0.028-0.051-0.035-0.063-0.035-0.063
			c-0.025-0.051-0.033-0.067-0.033-0.067c-0.021-0.049-0.028-0.065-0.028-0.065c-0.018-0.049-0.024-0.066-0.024-0.066
			c-0.016-0.049-0.02-0.066-0.02-0.066c-0.013-0.05-0.016-0.066-0.016-0.066c-0.01-0.05-0.012-0.066-0.012-0.066
			c-0.007-0.05-0.009-0.067-0.009-0.067c-0.004-0.05-0.005-0.067-0.005-0.067c-0.001-0.05-0.001-0.067-0.001-0.067
			c0.002-0.051,0.003-0.068,0.003-0.068c0.004-0.051,0.006-0.068,0.006-0.068c0.007-0.051,0.01-0.068,0.01-0.068
			c0.01-0.051,0.014-0.068,0.014-0.068c0.013-0.051,0.018-0.069,0.018-0.069c0.016-0.052,0.021-0.069,0.021-0.069
			c0.018-0.052,0.025-0.069,0.025-0.069c0.021-0.052,0.029-0.069,0.029-0.069c0.024-0.052,0.032-0.069,0.032-0.069
			c0.026-0.052,0.036-0.07,0.036-0.07c0.029-0.052,0.039-0.07,0.039-0.07c0.262-0.436,0.614-0.753,0.973-1.042
			c0.417-0.329,0.88-0.621,1.34-0.886c1.668-0.946,3.523-1.704,5.302-2.422l10.443-4.006c5.314-2.149,10.743-4.47,15.505-7.688
			c2.284-1.558,4.423-3.398,6.074-5.628c1.342-1.8,2.339-3.857,2.94-6.019c0.676-2.413,0.908-4.949,0.959-7.448
			c0.075-4.322-0.395-8.892-0.84-13.194c-0.377-3.177-0.828-6.447-1.832-9.493c-0.668-1.968-1.615-4.048-3.331-5.303
			c-1.086-0.785-2.413-1.077-3.73-1.024c-1.309,0.059-2.609,0.453-3.715,1.158c-0.803,0.511-1.513,1.232-1.9,2.062
			c-0.358,0.753-0.492,1.566-0.522,2.39c-0.031,0.936,0.073,1.898,0.205,2.824c0.267,1.842,0.765,4.193,0.934,6.037
			c0.331,3.205-0.096,6.464-1.027,9.54c-0.951,3.137-2.417,6.122-4.276,8.82c-2.675,3.911-6.296,7.1-10.203,9.742
			c-5.848,3.902-12.288,7.158-18.679,10.074c-6.131,2.708-12.517,5.2-19.107,6.515c-3.383,0.659-6.881,0.895-10.309,0.482
			c-4.15-0.473-8.153-1.895-11.991-3.492c-2.825-1.232-9.149-3.94-12.031-4.97c-2.408-0.876-4.944-1.625-7.445-2.187
			c-4.079-0.99-9.153-1.647-12.905-3.56c-0.91-0.474-1.778-1.06-2.492-1.802c-0.597-0.62-1.078-1.352-1.437-2.133
			c-0.672-1.463-0.953-3.08-1.075-4.676c-0.221-2.94,0.107-6.116,0.364-9.055c0.854-9.107,2.009-18.448,4.226-27.33
			c1.008-4.029,2.236-8.095,3.841-11.927c2.077-4.912,4.815-9.75,8.981-13.185c4.5-3.703,10.237-5.423,15.818-6.742
			c8.52-1.911,18.878-3.73,27.121-6.513c3.079-1.043,6.154-2.301,8.979-3.918c1.504-0.865,2.999-1.839,4.312-2.978
			c0.457-0.4,0.912-0.84,1.301-1.309c0.106-0.129,0.221-0.277,0.317-0.415c0.058-0.086,0.135-0.197,0.188-0.288
			c0.149-0.236,0.26-0.494,0.329-0.708c0.015-0.052,0.022-0.078,0.022-0.078c0.013-0.051,0.019-0.077,0.019-0.077
			c0.011-0.051,0.016-0.076,0.016-0.076c0.009-0.05,0.012-0.075,0.012-0.075c0.006-0.049,0.009-0.074,0.009-0.074
			c0.004-0.049,0.005-0.073,0.005-0.073c0.002-0.048,0.002-0.072,0.002-0.072c-0.001-0.047-0.002-0.071-0.002-0.071
			c-0.003-0.047-0.005-0.07-0.005-0.07c-0.005-0.046-0.009-0.069-0.009-0.069c-0.008-0.045-0.012-0.066-0.012-0.066
			c-0.009-0.041-0.015-0.062-0.015-0.062c-0.011-0.041-0.018-0.061-0.018-0.061c-0.014-0.04-0.021-0.06-0.021-0.06
			c-0.016-0.039-0.024-0.059-0.024-0.059c-0.018-0.039-0.027-0.058-0.027-0.058c-0.02-0.038-0.03-0.057-0.03-0.057
			c-0.033-0.056-0.044-0.075-0.044-0.075c-0.037-0.055-0.05-0.073-0.05-0.073c-0.041-0.054-0.055-0.071-0.055-0.071
			c-0.044-0.053-0.06-0.07-0.06-0.07c-0.048-0.051-0.065-0.068-0.065-0.068c-0.052-0.05-0.07-0.067-0.07-0.067
			c-0.62-0.535-1.322-0.758-2.071-0.986c-1.125-0.318-2.314-0.503-3.472-0.657c-5.031-0.663-11.768-0.728-16.752-1.652
			c-0.717-0.154-1.492-0.329-2.132-0.687c-0.052-0.031-0.077-0.047-0.077-0.047c-0.048-0.032-0.071-0.048-0.071-0.048
			c-0.045-0.032-0.066-0.049-0.066-0.049c-0.041-0.033-0.061-0.05-0.061-0.05c-0.055-0.051-0.072-0.068-0.072-0.068
			c-0.048-0.052-0.062-0.069-0.062-0.069c-0.04-0.053-0.046-0.062-0.046-0.062c-0.034-0.055-0.039-0.064-0.039-0.064
			c-0.023-0.047-0.027-0.056-0.027-0.056c-0.018-0.048-0.021-0.057-0.021-0.057c-0.013-0.049-0.015-0.058-0.015-0.058
			c-0.008-0.049-0.01-0.059-0.01-0.059c-0.004-0.05-0.004-0.06-0.004-0.06c0.001-0.051,0.001-0.061,0.001-0.061
			c0.005-0.052,0.006-0.062,0.006-0.062c0.009-0.053,0.012-0.063,0.012-0.063c0.014-0.053,0.017-0.064,0.017-0.064
			c0.018-0.054,0.022-0.065,0.022-0.065c0.022-0.055,0.027-0.066,0.027-0.066c0.021-0.044,0.032-0.067,0.032-0.067
			c0.024-0.045,0.036-0.068,0.036-0.068c0.027-0.046,0.041-0.069,0.041-0.069c0.03-0.046,0.045-0.069,0.045-0.069
			c0.294-0.413,0.61-0.678,0.961-0.972c0.479-0.389,1.034-0.768,1.552-1.108c5.914-3.776,13.162-6.945,18.602-11.412
			c0.961-0.811,1.924-1.71,2.635-2.749c0.405-0.602,0.711-1.235,0.751-1.911c0.031-0.497-0.125-0.943-0.366-1.33
			c-0.395-0.606-0.876-0.977-1.463-1.317c-0.554-0.313-1.232-0.543-1.854-0.62c-1.379-0.173-2.666,0.269-3.915,0.779
			c-4.481,1.983-9.566,4.926-14.188,6.532c-0.728,0.249-1.487,0.482-2.244,0.625c-0.55,0.101-1.18,0.175-1.712,0.046
			c-0.031-0.008-0.061-0.016-0.061-0.016c-0.03-0.009-0.059-0.018-0.059-0.018c-0.029-0.01-0.057-0.02-0.057-0.02
			c-0.055-0.022-0.082-0.034-0.082-0.034c-0.052-0.025-0.065-0.032-0.065-0.032c-0.05-0.028-0.062-0.035-0.062-0.035
			c-0.047-0.03-0.059-0.038-0.059-0.038c-0.055-0.041-0.066-0.05-0.066-0.05c-0.051-0.045-0.061-0.054-0.061-0.054
			c-0.047-0.048-0.056-0.058-0.056-0.058c-0.043-0.051-0.052-0.062-0.052-0.062c-0.04-0.054-0.047-0.066-0.047-0.066
			c-0.029-0.046-0.036-0.057-0.036-0.057c-0.027-0.048-0.033-0.06-0.033-0.06c-0.024-0.05-0.03-0.062-0.03-0.062
			c-0.022-0.052-0.027-0.065-0.027-0.065c-0.019-0.053-0.024-0.067-0.024-0.067c-0.017-0.055-0.021-0.069-0.021-0.069
			c-0.187-0.747,0.026-1.517,0.258-2.213c0.605-1.714,1.709-3.211,2.826-4.627c1.457-1.822,3.264-3.947,4.528-5.88
			c1.272-1.911,2.374-3.987,3.292-6.091c0.742-1.716,1.394-3.515,1.844-5.329c0.296-1.204,0.518-2.449,0.557-3.69
			c0.025-0.831-0.038-1.714-0.284-2.506c-0.363-1.192-1.173-2.226-2.266-2.75c-2.613-1.246-4.553,1.08-5.753,3.089
			c-0.636,1.014-2.413,4.503-3.006,5.607c-1.606,2.953-3.501,5.779-5.592,8.41c-1.919,2.398-4.032,4.696-6.428,6.626
			c-0.925,0.735-1.906,1.439-2.96,1.976c-0.727,0.359-1.588,0.716-2.386,0.609c-0.056-0.009-0.074-0.013-0.074-0.013
			c-0.055-0.012-0.072-0.016-0.072-0.016c-0.053-0.014-0.071-0.019-0.071-0.019c-0.052-0.017-0.069-0.023-0.069-0.023
			c-0.05-0.019-0.067-0.026-0.067-0.026c-0.049-0.022-0.065-0.029-0.065-0.029c-0.047-0.024-0.063-0.033-0.063-0.033
			c-0.046-0.027-0.061-0.036-0.061-0.036c-0.044-0.029-0.059-0.039-0.059-0.039c-0.042-0.032-0.061-0.046-0.061-0.046
			c-0.053-0.046-0.071-0.062-0.071-0.062c-0.051-0.05-0.067-0.068-0.067-0.068c-0.048-0.055-0.063-0.074-0.063-0.074
			c-0.03-0.039-0.045-0.059-0.045-0.059c-0.029-0.041-0.043-0.062-0.043-0.062c-0.028-0.043-0.041-0.065-0.041-0.065
			c-0.027-0.045-0.039-0.068-0.039-0.068c-0.025-0.047-0.038-0.071-0.038-0.071c-0.33-0.696-0.379-1.436-0.413-2.188
			c-0.04-1.421,0.115-2.942,0.261-4.358c0.398-3.476,0.953-7.886,1.046-11.345c0.189-5.864-0.239-11.981-2.858-17.325
			c-0.905-1.817-2.009-3.583-3.5-4.979c-0.664-0.607-1.502-1.208-2.403-1.323c-0.054-0.006-0.08-0.008-0.08-0.008
			c-0.329-0.027-0.633,0.024-0.912,0.128c-0.056,0.022-0.084,0.033-0.084,0.033c-0.055,0.024-0.082,0.037-0.082,0.037
			c-0.054,0.026-0.081,0.04-0.081,0.04c-0.053,0.028-0.08,0.043-0.08,0.043c-0.052,0.031-0.078,0.046-0.078,0.046
			c-0.051,0.033-0.077,0.049-0.077,0.049c-0.05,0.035-0.076,0.052-0.076,0.052c-0.856,0.639-1.284,1.621-1.403,2.627
			c-0.113,1.081,0.094,2.132,0.324,3.179l0.778,3.23c0.62,2.703,0.803,5.522,0.547,8.283c-0.173,1.737-0.503,3.493-1.243,5.084
			c-0.423,0.901-1.028,1.757-1.855,2.325c-0.526,0.361-1.133,0.604-1.748,0.558c-0.056-0.005-0.084-0.009-0.084-0.009
			c-0.055-0.008-0.083-0.013-0.083-0.013c-0.054-0.011-0.081-0.017-0.081-0.017c-0.053-0.013-0.08-0.021-0.08-0.021
			c-0.052-0.016-0.065-0.02-0.065-0.02c-0.052-0.018-0.064-0.023-0.064-0.023c-0.051-0.021-0.063-0.026-0.063-0.026
			c-0.05-0.023-0.062-0.029-0.062-0.029c-0.049-0.025-0.061-0.032-0.061-0.032c-0.048-0.027-0.06-0.035-0.06-0.035
			c-0.047-0.03-0.058-0.038-0.058-0.038c-0.048-0.034-0.066-0.047-0.066-0.047c-0.053-0.042-0.071-0.057-0.071-0.057
			c-0.052-0.046-0.069-0.061-0.069-0.061c-0.05-0.049-0.066-0.066-0.066-0.066c-0.049-0.052-0.064-0.07-0.064-0.07
			c-0.527-0.642-0.724-1.365-0.95-2.124c-0.432-1.607-0.798-3.628-1.269-5.222c-0.649-2.3-1.697-4.496-3.102-6.431
			c-0.686-0.936-1.46-1.832-2.377-2.549c-0.592-0.456-1.31-0.885-2.058-0.953c-0.056-0.004-0.084-0.006-0.084-0.006
			c-0.056-0.002-0.083-0.002-0.083-0.002c-0.055,0-0.082,0.001-0.082,0.001c-0.055,0.003-0.082,0.005-0.082,0.005
			c-0.054,0.005-0.081,0.008-0.081,0.008c-0.045,0.006-0.064,0.009-0.064,0.009c-0.055,0.01-0.074,0.014-0.074,0.014
			c-0.055,0.012-0.073,0.017-0.073,0.017c-0.054,0.014-0.072,0.02-0.072,0.02c-0.054,0.017-0.071,0.023-0.071,0.023
			c-0.053,0.019-0.071,0.025-0.071,0.025c-0.052,0.021-0.07,0.028-0.07,0.028c-0.052,0.023-0.069,0.031-0.069,0.031
			c-0.051,0.025-0.068,0.034-0.068,0.034c-0.782,0.424-1.237,1.166-1.589,1.923c-0.415,0.942-0.651,1.974-0.649,3.005
			c0.002,0.872,0.208,1.734,0.493,2.554c0.426,1.215,1.294,3.161,1.73,4.368c0.693,1.857,1.317,3.836,1.845,5.747
			c2.051,7.611,3.206,15.637,2.194,23.502c-0.367,2.735-0.999,5.454-1.875,8.071c-0.748,2.215-1.669,4.399-2.863,6.412
			c-0.628,1.042-1.334,2.068-2.206,2.923c-0.573,0.556-1.281,1.086-2.062,1.216c-0.056,0.009-0.084,0.012-0.084,0.012
			c-0.056,0.006-0.083,0.009-0.083,0.009c-0.055,0.004-0.083,0.006-0.083,0.006c-0.055,0.002-0.082,0.002-0.082,0.002
			c-0.054,0-0.081-0.001-0.081-0.001c-0.054-0.002-0.081-0.004-0.081-0.004c-0.054-0.005-0.08-0.007-0.08-0.007
			c-0.053-0.007-0.08-0.011-0.08-0.011c-0.053-0.009-0.079-0.014-0.079-0.014c-0.052-0.011-0.078-0.017-0.078-0.017
			c-0.052-0.013-0.078-0.02-0.078-0.02c-0.051-0.015-0.077-0.023-0.077-0.023c-0.051-0.017-0.076-0.027-0.076-0.027
			c-0.05-0.019-0.075-0.03-0.075-0.03c-0.05-0.022-0.075-0.033-0.075-0.033c-0.049-0.024-0.074-0.036-0.074-0.036
			c-0.049-0.026-0.073-0.039-0.073-0.039c-0.048-0.028-0.072-0.042-0.072-0.042c-0.048-0.03-0.072-0.045-0.072-0.045
			c-0.68-0.461-1.05-1.101-1.386-1.796c-0.386-0.835-0.649-1.739-0.865-2.632c-0.465-1.965-0.725-4.076-0.936-6.086
			c-0.151-0.646-1.605-22.839-1.726-24.338c-0.647-7.918-1.512-16.422-2.816-24.256c-0.615-3.486-1.316-7.065-2.525-10.398
			c-0.423-1.134-0.915-2.271-1.583-3.284c-0.506-0.766-1.176-1.518-1.995-1.881c-0.967-0.446-2.123-0.349-2.982,0.211
			c-0.056,0.037-0.084,0.057-0.084,0.057c-0.055,0.039-0.081,0.059-0.081,0.059c-0.053,0.041-0.079,0.062-0.079,0.062
			c-0.051,0.043-0.076,0.065-0.076,0.065c-0.049,0.044-0.074,0.067-0.074,0.067c-0.048,0.046-0.071,0.069-0.071,0.069
			c-0.046,0.048-0.068,0.072-0.068,0.072c-0.044,0.049-0.065,0.074-0.065,0.074c-0.042,0.051-0.062,0.076-0.062,0.076
			c-0.413,0.531-0.558,1.162-0.605,1.775c-0.043,0.576-0.001,1.163,0.065,1.736c0.226,1.789,0.736,3.989,1.045,5.772
			c0.646,3.718,1.07,7.644,1.298,11.411c0.128,2.422,0.216,4.972,0.085,7.391c-0.071,1.179-0.168,2.385-0.436,3.537
			c-0.179,0.793-0.505,1.652-1.039,2.259c-0.542,0.622-1.201,0.953-1.947,1.205c-0.773,0.253-1.59,0.387-2.398,0.474
			c-5.01,0.458-11.147-0.472-16.179-0.902c-4.257-0.386-8.616-0.55-12.876-0.133c-5.229,0.515-10.424,1.803-15.3,3.759
			c-2.083,0.861-4.153,1.852-5.968,3.201c-1.142,0.869-2.355,2.011-2.582,3.473c-0.117,0.709,0.058,1.43,0.446,1.989
			c0.039,0.055,0.06,0.083,0.06,0.083c0.042,0.054,0.063,0.081,0.063,0.081c0.044,0.053,0.066,0.079,0.066,0.079
			c0.046,0.051,0.069,0.076,0.069,0.076c0.048,0.05,0.072,0.074,0.072,0.074c0.05,0.048,0.075,0.072,0.075,0.072
			c0.052,0.047,0.078,0.069,0.078,0.069c0.054,0.045,0.081,0.067,0.081,0.067c0.992,0.767,2.28,0.854,3.481,0.852
			c3.101-0.059,8.392-1.293,11.494-1.807c6.493-1.069,13.166-1.816,19.752-1.482c3.544,0.214,7.216,0.718,10.335,2.525
			c2.666,1.522,4.708,3.936,6.244,6.56c1.493,2.547,2.656,5.331,3.669,8.101c2.153,6.063,3.764,12.397,4.633,18.774
			c0.158,1.303,0.302,2.678,0.289,3.992c-0.009,0.56-0.041,1.153-0.186,1.692c-0.035,0.126-0.069,0.218-0.099,0.291
			c-0.019,0.043-0.028,0.065-0.028,0.065c-0.02,0.041-0.03,0.061-0.03,0.061c-0.021,0.039-0.031,0.058-0.031,0.058
			c-0.033,0.055-0.044,0.072-0.044,0.072c-0.034,0.05-0.04,0.058-0.04,0.058c-0.042,0.054-0.048,0.061-0.048,0.061
			c-0.051,0.055-0.058,0.061-0.058,0.061c-0.054,0.048-0.061,0.054-0.061,0.054c-0.05,0.037-0.057,0.042-0.057,0.042
			c-0.052,0.032-0.06,0.036-0.06,0.036c-0.054,0.026-0.062,0.03-0.062,0.03c-0.048,0.018-0.057,0.021-0.057,0.021
			c-0.05,0.015-0.059,0.017-0.059,0.017c-0.052,0.011-0.061,0.012-0.061,0.012c-0.054,0.007-0.063,0.008-0.063,0.008
			c-0.056,0.003-0.065,0.003-0.065,0.003c-0.054-0.001-0.072-0.002-0.072-0.002c-0.055-0.005-0.073-0.007-0.073-0.007
			c-0.037-0.005-0.056-0.008-0.056-0.008c-0.038-0.007-0.058-0.011-0.058-0.011c-0.039-0.009-0.059-0.014-0.059-0.014
			c-0.745-0.223-1.31-0.707-1.884-1.169c-0.968-0.818-1.913-1.797-2.788-2.717c-6.097-6.663-12.57-13.737-17.688-21.184
			c-3.77-5.433-6.982-11.371-9.727-17.383"/>
	</g>
	<g id="POLYLINE_103_">
		
			<path fill="none" stroke="#FB8604" stroke-width="2.75" stroke-linecap="round" stroke-linejoin="round" stroke-miterlimit="10" d="
			M437.8,161.986c2.786,7.922,6.215,15.747,10.9,22.74c2.415,3.631,5.2,7.078,8.165,10.274c1.666,1.818,5.764,5.979,7.218,7.893
			c0.31,0.413,0.655,0.895,0.844,1.364c0.018,0.048,0.027,0.072,0.027,0.072c0.016,0.047,0.023,0.07,0.023,0.07
			c0.013,0.045,0.019,0.067,0.019,0.067c0.01,0.043,0.015,0.064,0.015,0.064c0.007,0.041,0.01,0.062,0.01,0.062
			c0.005,0.04,0.006,0.059,0.006,0.059c0.002,0.054,0.002,0.065,0.002,0.065c-0.003,0.055-0.004,0.061-0.004,0.061
			c-0.008,0.052-0.01,0.057-0.01,0.057c-0.015,0.054-0.017,0.059-0.017,0.059c-0.023,0.055-0.025,0.059-0.025,0.059
			c-0.033,0.054-0.035,0.058-0.035,0.058c-0.044,0.053-0.047,0.057-0.047,0.057c-0.053,0.048-0.057,0.051-0.057,0.051
			c-0.048,0.034-0.057,0.04-0.057,0.04c-0.048,0.028-0.059,0.033-0.059,0.033c-0.053,0.025-0.064,0.029-0.064,0.029
			c-0.046,0.017-0.058,0.022-0.058,0.022c-0.049,0.016-0.062,0.019-0.062,0.019c-0.052,0.014-0.066,0.017-0.066,0.017
			c-0.388,0.081-0.723,0.057-1.098,0.026c-0.527-0.051-1.08-0.157-1.599-0.266c-2.923-0.654-7.137-1.921-10.061-2.509
			c-2.146-0.459-4.37-0.755-6.563-0.849c0,0-5.347-0.172-5.347-0.172c-2.268-0.117-4.65-0.364-6.627-1.575
			c-1.46-0.891-2.634-2.2-3.521-3.652c-1.215-1.987-1.912-4.265-2.161-6.574c0,0-0.272-2.704-0.272-2.704
			c-0.073-0.577-0.16-1.234-0.405-1.753c-0.024-0.047-0.032-0.062-0.032-0.062c-0.025-0.045-0.033-0.059-0.033-0.059
			c-0.026-0.043-0.035-0.057-0.035-0.057c-0.036-0.054-0.045-0.067-0.045-0.067c-0.038-0.05-0.048-0.062-0.048-0.062
			c-0.04-0.046-0.05-0.057-0.05-0.057c-0.053-0.052-0.064-0.062-0.064-0.062c-0.045-0.038-0.056-0.047-0.056-0.047
			c-0.054-0.038-0.064-0.044-0.064-0.044c-0.053-0.031-0.063-0.037-0.063-0.037c-0.055-0.026-0.066-0.031-0.066-0.031
			c-0.046-0.018-0.057-0.022-0.057-0.022c-0.047-0.015-0.059-0.019-0.059-0.019c-0.049-0.012-0.061-0.015-0.061-0.015
			c-0.05-0.01-0.063-0.012-0.063-0.012c-0.052-0.007-0.065-0.008-0.065-0.008c-0.053-0.004-0.066-0.005-0.066-0.005
			c-0.054-0.001-0.068-0.001-0.068-0.001c-0.055,0.002-0.069,0.002-0.069,0.002c-0.453,0.025-0.857,0.231-1.211,0.437
			c-0.419,0.255-0.803,0.573-1.154,0.915c-0.794,0.775-1.44,1.699-1.982,2.665c-0.696,1.249-1.237,2.598-1.644,3.967
			c-1.29,4.436-1.422,9.745,1.512,13.572c4.454,5.842,14.313,8.281,21.223,9.837c5.728,1.267,12.689,2.436,17.985,4.971
			c4.721,2.202,8.892,5.614,11.909,9.867c2.588,3.623,4.305,7.848,5.135,12.215c1.662,8.666,0.793,19.129,1.262,27.918
			c0.202,3.743,0.59,7.571,1.74,11.154c0.956,3.03,2.622,6.022,4.114,8.814c0.285,0.556,0.582,1.15,0.799,1.735
			c0.134,0.361,0.258,0.786,0.271,1.16c0.001,0.055,0.001,0.083,0.001,0.083c-0.001,0.054-0.002,0.08-0.002,0.08
			c-0.004,0.052-0.006,0.078-0.006,0.078c-0.006,0.051-0.01,0.076-0.01,0.076c-0.009,0.049-0.014,0.074-0.014,0.074
			c-0.011,0.048-0.017,0.072-0.017,0.072c-0.014,0.046-0.021,0.069-0.021,0.069c-0.017,0.045-0.025,0.067-0.025,0.067
			c-0.019,0.043-0.026,0.057-0.026,0.057c-0.028,0.054-0.036,0.068-0.036,0.068c-0.032,0.052-0.041,0.065-0.041,0.065
			c-0.036,0.05-0.045,0.062-0.045,0.062c-0.039,0.048-0.05,0.06-0.05,0.06c-0.043,0.046-0.054,0.058-0.054,0.058
			c-0.046,0.044-0.058,0.055-0.058,0.055c-0.05,0.042-0.062,0.053-0.062,0.053c-0.053,0.041-0.066,0.051-0.066,0.051
			c-0.056,0.039-0.07,0.048-0.07,0.048c-0.371,0.236-0.774,0.344-1.165,0.426c-0.424,0.084-0.867,0.126-1.299,0.147
			c-1.739,0.088-3.831-0.177-5.573-0.337c-1.958-0.173-4.057-0.174-5.815,0.819c-1.879,1.047-3.777,3.258-5.326,4.746
			c-1.639,1.607-3.436,3.112-5.489,4.162c-4.151,2.109-9.388,2.432-13.936,3.127c-1.183,0.184-2.409,0.388-3.553,0.742
			c-0.703,0.223-1.482,0.537-1.994,1.048c-0.028,0.029-0.056,0.058-0.056,0.058c-0.027,0.029-0.053,0.059-0.053,0.059
			c-0.025,0.03-0.05,0.06-0.05,0.06c-0.04,0.052-0.053,0.07-0.053,0.07c-0.037,0.054-0.049,0.072-0.049,0.072
			c-0.035,0.055-0.046,0.073-0.046,0.073c-0.3,0.486-0.31,1.06-0.209,1.56c0.193,0.902,0.734,1.664,1.315,2.295
			c1.191,1.273,2.796,2.088,4.462,2.548c1.688,0.47,3.461,0.632,5.209,0.626c2.292-0.014,4.591-0.322,6.824-0.829
			c2.245-0.51,4.455-1.243,6.563-2.168c4.755-2.068,9.756-5.414,14.538-7.423c3.494-1.513,7.254-2.392,11.045-2.706
			c5.13-0.428,10.352-0.046,15.35,1.199c2.022,0.514,4.034,1.189,5.914,2.1c1.773,0.852,3.457,1.945,5.047,3.1
			c1.758,1.275,3.987,3.095,5.906,4.072c2.739,1.422,5.91,1.799,8.942,2.108"/>
	</g>
	<g id="POLYLINE_104_">
		
			<path fill="none" stroke="#FB8604" stroke-width="2.75" stroke-linecap="round" stroke-linejoin="round" stroke-miterlimit="10" d="
			M430.387,163.345c3.132,2.676,9.357,8.151,12.41,10.916"/>
	</g>
	<g id="POLYLINE_105_">
		
			<path fill="none" stroke="#FB8604" stroke-width="2.75" stroke-linecap="round" stroke-linejoin="round" stroke-miterlimit="10" d="
			M402.826,158.057c-2.065-2-4.059-4.213-5.188-6.891c-0.378-0.913-0.627-1.888-0.687-2.876c-0.099-1.558,0.212-3.142,0.878-4.552
			c0.299-0.637,0.739-1.323,1.203-1.811c0.422-0.445,0.883-0.794,1.431-0.956c0.589-0.175,1.199-0.065,1.732,0.139
			c0.702,0.268,1.352,0.687,1.979,1.098c6.28,4.313,13.283,10.361,19.208,15.218"/>
	</g>
	<g id="POLYLINE_106_">
		
			<path fill="none" stroke="#FB8604" stroke-width="2.75" stroke-linecap="round" stroke-linejoin="round" stroke-miterlimit="10" d="
			M438.713,201.44c-0.277-5.908-1.294-12.001-4.433-17.111c-1.62-2.645-3.778-4.939-6.083-6.998
			c-3.857-3.465-9.221-7.032-13.487-10.033"/>
	</g>
	<g id="POLYLINE_107_">
		
			<path fill="none" stroke="#FB8604" stroke-width="2.75" stroke-linecap="round" stroke-linejoin="round" stroke-miterlimit="10" d="
			M467.728,298.985c-5.194-3.463-9.902-7.702-14.058-12.354c-3.427-3.82-6.548-7.992-9.003-12.508
			c-1.64-3.016-2.979-6.221-3.9-9.529c-2.569-9.156-2.752-19.546-5.46-28.668c-1.749-5.922-4.732-11.571-9.103-15.976
			c-2.181-2.205-4.713-4.092-7.456-5.542c-2.417-1.287-5.042-2.218-7.681-2.932c-6.372-1.724-14.118-2.585-20.525-4.164
			c-3.153-0.775-6.305-1.768-9.205-3.243c-2.694-1.354-5.134-3.212-7.159-5.446c-2.243-2.458-4.033-5.34-5.326-8.403
			c-1.256-2.994-2.067-6.21-2.255-9.455c-0.199-3.271,0.312-6.626,1.777-9.577c0.434-0.875,0.95-1.729,1.569-2.486
			c0.429-0.535,1.003-1.086,1.556-1.416c0.181-0.107,0.339-0.18,0.481-0.233c0.052-0.019,0.078-0.027,0.078-0.027
			c0.052-0.016,0.078-0.024,0.078-0.024c0.051-0.014,0.077-0.021,0.077-0.021c0.051-0.012,0.076-0.017,0.076-0.017
			c0.05-0.009,0.076-0.014,0.076-0.014c0.05-0.007,0.075-0.01,0.075-0.01c0.049-0.005,0.074-0.007,0.074-0.007
			c0.049-0.002,0.073-0.003,0.073-0.003c0.048,0,0.072,0.001,0.072,0.001c0.048,0.002,0.071,0.004,0.071,0.004
			c0.047,0.005,0.07,0.008,0.07,0.008c0.046,0.007,0.069,0.012,0.069,0.012c0.046,0.01,0.068,0.015,0.068,0.015
			c0.045,0.012,0.067,0.019,0.067,0.019c0.044,0.015,0.066,0.023,0.066,0.023c0.045,0.018,0.069,0.028,0.069,0.028
			c0.046,0.022,0.069,0.033,0.069,0.033c0.045,0.025,0.068,0.038,0.068,0.038c0.045,0.028,0.067,0.042,0.067,0.042
			c0.044,0.03,0.065,0.046,0.065,0.046c0.043,0.033,0.064,0.051,0.064,0.051c0.042,0.036,0.063,0.055,0.063,0.055
			c0.041,0.039,0.062,0.059,0.062,0.059c0.041,0.041,0.061,0.063,0.061,0.063c0.04,0.044,0.06,0.067,0.06,0.067
			c0.53,0.646,0.782,1.402,1.033,2.179c1.147,3.905,1.349,8.422,3.041,12.159c0.785,1.77,1.962,3.364,3.427,4.631
			c1.73,1.507,3.772,2.631,5.837,3.61c3.368,1.571,6.945,2.78,10.525,3.762c3.231,0.87,6.559,1.594,9.884,1.986
			c1.301,0.14,2.64,0.237,3.945,0.095c0.843-0.093,1.801-0.326,2.427-0.894c0.055-0.052,0.073-0.07,0.073-0.07
			c0.053-0.054,0.07-0.073,0.07-0.073c0.033-0.037,0.05-0.056,0.05-0.056c0.032-0.038,0.048-0.058,0.048-0.058
			c0.031-0.039,0.046-0.059,0.046-0.059c0.029-0.041,0.043-0.061,0.043-0.061c0.028-0.042,0.041-0.063,0.041-0.063
			c0.026-0.043,0.039-0.064,0.039-0.064c0.025-0.044,0.037-0.066,0.037-0.066c0.023-0.045,0.034-0.068,0.034-0.068
			c0.022-0.046,0.032-0.069,0.032-0.069c0.263-0.616,0.247-1.244,0.171-1.872c-0.109-0.812-0.359-1.608-0.646-2.373
			c-1.224-3.127-3.082-6.014-4.955-8.787l-3.072-4.368c-1.229-1.793-2.411-3.679-3.177-5.72c-0.651-1.707-0.988-3.538-1.006-5.364
			c-0.025-3.108,0.581-6.216,1.609-9.143c0.451-1.245,0.989-2.481,1.712-3.593c0.506-0.766,1.193-1.605,2.076-1.874
			c0.043-0.012,0.065-0.018,0.065-0.018c0.043-0.01,0.064-0.015,0.064-0.015c0.043-0.009,0.064-0.012,0.064-0.012
			c0.042-0.007,0.064-0.01,0.064-0.01c0.042-0.005,0.063-0.007,0.063-0.007c0.042-0.003,0.063-0.005,0.063-0.005
			c0.042-0.002,0.062-0.002,0.062-0.002c0.041,0,0.062,0,0.062,0c0.041,0.002,0.061,0.003,0.061,0.003
			c0.041,0.003,0.061,0.005,0.061,0.005c0.04,0.005,0.06,0.008,0.06,0.008c0.04,0.007,0.06,0.011,0.06,0.011
			c0.039,0.008,0.059,0.013,0.059,0.013c0.039,0.01,0.058,0.016,0.058,0.016c0.039,0.012,0.058,0.018,0.058,0.018
			c0.038,0.013,0.057,0.021,0.057,0.021c0.038,0.015,0.056,0.023,0.056,0.023c0.056,0.025,0.074,0.035,0.074,0.035
			c0.055,0.029,0.073,0.039,0.073,0.039c0.054,0.032,0.072,0.043,0.072,0.043c0.053,0.035,0.07,0.048,0.07,0.048
			c0.052,0.038,0.069,0.052,0.069,0.052c0.044,0.036,0.059,0.048,0.059,0.048c0.043,0.038,0.057,0.052,0.057,0.052
			c0.406,0.392,0.628,0.84,0.846,1.318c0.279,0.634,0.5,1.342,0.701,2.005c0.531,1.848,1.202,4.325,1.883,6.094
			c0.955,2.574,2.144,5.179,3.359,7.64c2.778,5.524,5.871,11.157,9.227,16.35"/>
	</g>
	<g id="POLYLINE_108_">
		
			<path fill="none" stroke="#FB8604" stroke-width="2.75" stroke-linecap="round" stroke-linejoin="round" stroke-miterlimit="10" d="
			M543.067,299.02c7.864-2.129,15.514-5.931,21.091-11.979c3.892-4.261,6.602-9.498,8.573-14.889
			c1.15-3.069,1.985-6.596,2.717-9.795c0.471-1.933,1.11-3.859,1.978-5.652c1.567-3.218,3.664-6.196,5.896-8.985
			c1.203-1.47,2.493-2.937,3.921-4.193c0.747-0.632,1.605-1.343,2.554-1.597c0.036-0.008,0.071-0.015,0.071-0.015
			c0.035-0.007,0.069-0.012,0.069-0.012c0.034-0.005,0.068-0.009,0.068-0.009c0.033-0.004,0.066-0.006,0.066-0.006
			c0.033-0.002,0.065-0.003,0.065-0.003c0.032,0,0.063,0,0.063,0c0.031,0.001,0.062,0.003,0.062,0.003
			c0.03,0.003,0.06,0.006,0.06,0.006c0.03,0.004,0.059,0.009,0.059,0.009c0.029,0.006,0.057,0.013,0.057,0.013
			c0.056,0.016,0.083,0.025,0.083,0.025c0.053,0.021,0.079,0.033,0.079,0.033c0.051,0.026,0.075,0.041,0.075,0.041
			c0.041,0.026,0.057,0.038,0.057,0.038c0.048,0.037,0.064,0.05,0.064,0.05c0.046,0.042,0.061,0.057,0.061,0.057
			c0.043,0.047,0.057,0.063,0.057,0.063c0.041,0.051,0.055,0.069,0.055,0.069c0.039,0.056,0.052,0.075,0.052,0.075
			c0.025,0.04,0.037,0.06,0.037,0.06c0.024,0.042,0.035,0.063,0.035,0.063c0.37,0.756,0.425,1.59,0.518,2.405
			c0.102,1.117,0.176,2.549,0.384,3.64c0.1,0.519,0.261,1.119,0.536,1.558c0.03,0.047,0.045,0.07,0.045,0.07
			c0.031,0.045,0.047,0.067,0.047,0.067c0.032,0.043,0.049,0.064,0.049,0.064c0.04,0.049,0.054,0.064,0.054,0.064
			c0.042,0.046,0.056,0.061,0.056,0.061c0.044,0.043,0.058,0.058,0.058,0.058c0.045,0.041,0.06,0.054,0.06,0.054
			c0.046,0.039,0.062,0.051,0.062,0.051c0.048,0.036,0.064,0.048,0.064,0.048c0.049,0.034,0.066,0.045,0.066,0.045
			c0.051,0.032,0.068,0.042,0.068,0.042c0.052,0.03,0.069,0.04,0.069,0.04c0.053,0.028,0.071,0.037,0.071,0.037
			c1.38,0.636,3.102,0.083,4.447,0.798c0.056,0.031,0.075,0.042,0.075,0.042c0.082,0.049,0.101,0.064,0.134,0.086
			c0.049,0.035,0.074,0.053,0.074,0.053c0.048,0.037,0.072,0.057,0.072,0.057c0.047,0.04,0.071,0.06,0.071,0.06
			c0.046,0.042,0.069,0.063,0.069,0.063c0.423,0.412,0.656,0.837,0.893,1.347c0.249,0.555,0.435,1.15,0.595,1.737
			c0.417,1.554,0.768,3.613,1.202,5.159c0.26,0.935,0.595,1.866,1.113,2.691c0.713,1.164,1.758,2.084,2.869,2.858l1.904,1.282"/>
	</g>
	<g id="POLYLINE_109_">
		
			<path fill="none" stroke="#FB8604" stroke-width="2.75" stroke-linecap="round" stroke-linejoin="round" stroke-miterlimit="10" d="
			M618.652,358.784c-2.408-1.148-4.181-3.447-4.889-5.998c-0.395-1.425-0.425-2.966,0.036-4.379c0.848-2.672,3.29-4.867,6.184-4.502
			c1.425,0.163,2.761,0.801,3.917,1.629c1.63,1.177,2.959,2.774,3.825,4.588c0.547,1.152,0.925,2.403,1.008,3.679
			c0.044,0.699-0.005,1.411-0.191,2.088c-0.174,0.677-0.571,1.401-1.043,1.882c-0.867,0.895-1.966,1.369-3.152,1.638
			C622.451,359.813,620.412,359.608,618.652,358.784z"/>
	</g>
	<g id="POLYLINE_110_">
		
			<path fill="none" stroke="#FB8604" stroke-width="2.75" stroke-linecap="round" stroke-linejoin="round" stroke-miterlimit="10" d="
			M522.614,314.635c-5.485,3.124-11.195,6.197-17.057,8.535c-9.898,3.932-20.448,6.603-30.826,8.933
			c-6.234,1.362-12.808,2.608-19.125,3.489c-4.515,0.617-9.186,1.091-13.745,1.108c-1.236,0.004-2.544-0.038-3.776-0.125
			c-1.006-0.071-2.564-0.255-3.573-0.342c-1.485-0.127-3.019-0.12-4.448,0.35c-1.773,0.567-3.267,1.757-4.579,3.045
			c-2.292,2.289-4.146,5.003-5.747,7.808c-3.495,6.254-5.937,13.294-5.968,20.516c-0.005,2.776,0.338,5.586,1.216,8.227
			c0.586,1.745,1.417,3.435,2.601,4.855c2.368,2.921,6.355,3.925,8.907,6.624c1.026,1.064,1.741,2.392,2.222,3.783
			c0.548,1.563,0.882,3.218,1.146,4.851c0.895,5.651,1.008,12.155,2.287,17.739c0.423,1.809,0.996,3.615,1.905,5.243
			c1.02,1.854,2.462,3.472,4.172,4.718c1.629,1.194,3.483,2.071,5.389,2.723c1.92,0.695,4.763,1.246,6.763,1.706
			c2.337,0.552,4.796,1.27,6.525,3.03c1.061,1.058,1.707,2.452,2.185,3.854c0.753,2.138,1.188,4.914,1.881,7.066
			c0,0,0.054,0.153,0.054,0.153s0.027,0.074,0.027,0.074l0.027,0.073c0,0,0.028,0.071,0.028,0.071s0.028,0.07,0.028,0.07
			c0.04,0.1,0.096,0.227,0.144,0.326c0,0,0.03,0.06,0.03,0.06s0.03,0.058,0.03,0.058c0.015,0.029,0.03,0.057,0.03,0.057
			c0.031,0.055,0.046,0.082,0.046,0.082c0.031,0.052,0.047,0.078,0.047,0.078c0.032,0.049,0.048,0.073,0.048,0.073
			c0.033,0.047,0.049,0.069,0.049,0.069c0.033,0.044,0.05,0.065,0.05,0.065c0.034,0.041,0.051,0.06,0.051,0.06
			c0.052,0.056,0.07,0.073,0.07,0.073c0.053,0.05,0.071,0.065,0.071,0.065c0.055,0.043,0.073,0.056,0.073,0.056
			c0.038,0.025,0.056,0.037,0.056,0.037c0.038,0.022,0.058,0.032,0.058,0.032c0.039,0.018,0.059,0.026,0.059,0.026
			c0.046,0.017,0.059,0.021,0.059,0.021c0.053,0.014,0.066,0.017,0.066,0.017c0.054,0.01,0.068,0.012,0.068,0.012
			c0.055,0.005,0.069,0.006,0.069,0.006c0.042,0.001,0.056,0.001,0.056,0.001c0.043-0.001,0.057-0.002,0.057-0.002
			c0.044-0.004,0.058-0.005,0.058-0.005c0.044-0.006,0.059-0.008,0.059-0.008c0.045-0.008,0.06-0.011,0.06-0.011
			c0.319-0.071,0.551-0.189,0.822-0.324l0.9-0.482c0.801-0.431,1.788-0.774,2.66-0.491c0.049,0.015,0.099,0.032,0.099,0.032
			c0.049,0.018,0.099,0.036,0.099,0.036c0.05,0.02,0.099,0.041,0.099,0.041c0.732,0.33,1.264,0.822,1.789,1.356
			c0.661,0.689,1.253,1.473,1.801,2.253c1.801,2.578,4.109,6.847,5.715,9.599c0.739,1.236,1.516,2.515,2.407,3.646
			c0.582,0.74,1.309,1.492,2.167,1.84c0.697,0.3,1.468,0.348,2.196,0.515c0.668,0.146,1.303,0.452,1.814,0.855
			c1.009,0.795,1.863,1.854,2.686,2.836c1.041,1.26,2.536,3.192,3.714,4.3c0.67,0.621,1.467,1.307,2.384,1.449
			c0.034,0.004,0.067,0.008,0.067,0.008c0.033,0.003,0.067,0.005,0.067,0.005c0.033,0.002,0.067,0.003,0.067,0.003
			c0.033,0,0.066,0,0.066,0c0.033-0.001,0.066-0.003,0.066-0.003c0.033-0.002,0.065-0.005,0.065-0.005
			c0.033-0.004,0.065-0.008,0.065-0.008c0.031-0.005,0.062-0.01,0.062-0.01c0.031-0.006,0.061-0.013,0.061-0.013
			c0.03-0.007,0.061-0.015,0.061-0.015c0.03-0.008,0.061-0.018,0.061-0.018c0.03-0.01,0.06-0.02,0.06-0.02
			c0.03-0.011,0.06-0.022,0.06-0.022c0.695-0.293,1.142-0.85,1.575-1.419c0.746-1.015,1.606-2.643,2.261-3.731
			c0.465-0.772,0.963-1.551,1.554-2.233c0.476-0.552,1.092-1.098,1.755-1.365c0.762-0.307,1.538-0.286,2.318-0.151
			c1.295,0.225,2.702,0.861,3.939,1.302c0.544,0.189,1.169,0.395,1.738,0.398c0.05-0.001,0.075-0.001,0.075-0.001
			c0.049-0.002,0.073-0.004,0.073-0.004c0.048-0.004,0.072-0.007,0.072-0.007c0.047-0.006,0.07-0.01,0.07-0.01
			c0.046-0.008,0.068-0.013,0.068-0.013c0.044-0.01,0.066-0.016,0.066-0.016c0.043-0.012,0.064-0.019,0.064-0.019
			c0.042-0.015,0.062-0.022,0.062-0.022c0.041-0.017,0.06-0.026,0.06-0.026c0.039-0.019,0.058-0.029,0.058-0.029
			c0.056-0.033,0.074-0.044,0.074-0.044c0.054-0.037,0.071-0.05,0.071-0.05c0.051-0.042,0.068-0.056,0.068-0.056
			c0.049-0.046,0.064-0.062,0.064-0.062c0.046-0.05,0.061-0.067,0.061-0.067c0.044-0.054,0.058-0.073,0.058-0.073
			c0.028-0.038,0.042-0.058,0.042-0.058c0.027-0.04,0.04-0.061,0.04-0.061c0.366-0.614,0.466-1.246,0.594-1.921
			c0.234-1.373,0.366-2.964,0.829-4.279c0.251-0.75,0.714-1.525,1.335-1.967c0.562-0.422,1.207-0.674,1.874-0.87
			c1.191-0.349,2.713-0.53,3.916-0.836c0.814-0.206,1.728-0.533,2.315-1.133c0.044-0.046,0.066-0.07,0.066-0.07
			c0.043-0.048,0.063-0.072,0.063-0.072c0.41-0.493,0.595-0.996,0.75-1.586c0.178-0.716,0.243-1.472,0.288-2.208
			c0.049-0.881,0.083-2.416,0.212-3.271c0.079-0.556,0.227-1.196,0.513-1.668c0.03-0.048,0.045-0.072,0.045-0.072
			c0.031-0.046,0.044-0.065,0.044-0.065c0.041-0.056,0.054-0.074,0.054-0.074c0.042-0.054,0.057-0.071,0.057-0.071
			c0.044-0.052,0.059-0.069,0.059-0.069c0.046-0.05,0.062-0.066,0.062-0.066c0.048-0.048,0.064-0.063,0.064-0.063
			c0.05-0.046,0.066-0.061,0.066-0.061c0.861-0.731,2.047-0.891,3.092-1.178c0.775-0.197,1.646-0.48,2.257-0.976
			c0.697-0.569,1.091-1.283,1.458-2.048c0.469-1.001,0.95-2.447,1.404-3.457c0.268-0.604,0.628-1.277,1.033-1.782
			c0.446-0.566,0.984-0.977,1.553-1.31c1.596-0.929,3.589-1.326,5.178-2.269c0.89-0.522,1.542-1.206,2.045-2.047
			c0.634-1.059,0.996-2.265,1.219-3.473c0.783-4.338-0.138-8.953-0.683-13.276c-0.278-2.25-0.456-4.553-0.214-6.812
			c0.284-2.73,1.087-5.437,2.528-7.784c0.763-1.257,1.764-2.382,2.791-3.43c1.747-1.768,3.646-3.585,4.791-5.813
			c0.955-1.832,1.497-3.86,1.856-5.886c0.548-3.158,0.659-6.438,0.642-9.64c-0.071-4.813-0.326-9.757-1.048-14.518
			c-0.452-2.831-1.068-5.695-2.211-8.334c-0.766-1.765-1.837-3.447-3.375-4.635c-2.791-2.205-6.58-2.703-9.935-3.547
			c-2.475-0.612-5.02-1.531-6.782-3.457c-1.552-1.697-2.497-3.86-3.18-6.032c-0.703-2.343-1.147-4.807-1.104-7.258
			c0.032-1.188,0.268-2.382,0.78-3.459c0.646-1.377,1.657-2.551,2.74-3.604c2.6-2.47,5.616-4.534,8.768-6.235
			c1.906-0.989,3.911-1.916,6.048-2.252c0.686-0.1,1.454-0.115,2.089,0.081c0.616,0.173,1.125,0.601,1.455,1.073
			c0.544,0.794,0.754,1.693,0.894,2.622c0.216,1.548,0.164,3.172,0.097,4.732c-0.296,5.811-1.184,11.841-4.226,16.905"/>
	</g>
</g>
<g id="AG-OUTLINE">
	<g id="POLYLINE_2_">
		
			<path fill="none" stroke="#FB8604" stroke-width="3.5" stroke-linecap="round" stroke-linejoin="round" stroke-miterlimit="10" d="
			M618.835,343.894c1.618-0.155,3.217,0.444,4.566,1.3c2.443,1.574,4.294,4.073,5.047,6.884c0.295,1.13,0.411,2.331,0.174,3.483
			c-0.09,0.433-0.234,0.858-0.438,1.251c-0.278,0.55-0.714,1.042-1.153,1.388c-0.037,1.859-0.49,3.694-1.056,5.456
			c-0.772,2.341-1.816,4.606-3.11,6.704c-1.483,2.385-3.365,4.669-5.944,5.903c-3.27,1.597-7.051,1.287-10.559,0.868
			c-10.545-1.346-22.536-3.563-33.111-2.149c-6.11,0.756-12.482,2.76-18.364,4.586c-0.397,3.283-1.117,6.672-3.045,9.423
			c-1.324,1.924-3.228,3.58-4.797,5.299c-0.931,1.015-1.759,2.141-2.398,3.363c-1.128,2.133-1.776,4.507-2.025,6.903
			c-0.242,2.256-0.064,4.567,0.214,6.812c0.544,4.33,1.466,8.934,0.683,13.276c-0.223,1.208-0.585,2.413-1.219,3.473
			c-0.468,0.801-1.18,1.531-1.937,1.981c-1.615,0.996-3.651,1.383-5.287,2.335c-0.568,0.328-1.089,0.746-1.47,1.208
			c-0.493,0.599-0.803,1.198-1.116,1.884c-0.432,0.959-0.91,2.376-1.347,3.332c-0.345,0.766-0.82,1.597-1.446,2.117
			c-0.644,0.532-1.355,0.762-2.122,0.978c-1.028,0.287-2.317,0.474-3.175,1.131c-0.053,0.042-0.07,0.057-0.07,0.057
			c-0.051,0.044-0.068,0.059-0.068,0.059c-0.05,0.046-0.066,0.061-0.066,0.061c-0.048,0.048-0.064,0.064-0.064,0.064
			c-0.046,0.05-0.061,0.067-0.061,0.067c-0.044,0.052-0.059,0.069-0.059,0.069c-0.042,0.054-0.056,0.072-0.056,0.072
			c-0.041,0.056-0.054,0.075-0.054,0.075c-0.031,0.046-0.046,0.07-0.046,0.07c-0.336,0.551-0.447,1.102-0.543,1.716
			c-0.129,0.848-0.165,2.4-0.212,3.271c-0.089,1.264-0.189,2.719-0.998,3.745c-0.04,0.049-0.061,0.072-0.061,0.072
			c-0.043,0.048-0.065,0.071-0.065,0.071c-0.044,0.046-0.067,0.069-0.067,0.069c-0.581,0.559-1.257,0.812-1.999,1.032
			c-1.36,0.384-3.008,0.542-4.359,0.959c-0.542,0.168-1.078,0.385-1.551,0.702c-0.524,0.35-0.885,0.778-1.158,1.287
			c-0.75,1.429-0.874,3.22-1.131,4.793c-0.103,0.623-0.221,1.317-0.473,1.891c-0.054,0.12-0.102,0.209-0.143,0.277
			c-0.026,0.042-0.039,0.063-0.039,0.063c-0.027,0.04-0.041,0.06-0.041,0.06c-0.028,0.038-0.042,0.057-0.042,0.057
			c-0.044,0.054-0.059,0.071-0.059,0.071c-0.046,0.05-0.062,0.066-0.062,0.066c-0.049,0.046-0.065,0.06-0.065,0.06
			c-0.051,0.042-0.068,0.055-0.068,0.055c-0.054,0.037-0.072,0.049-0.072,0.049c-0.056,0.033-0.075,0.043-0.075,0.043
			c-0.039,0.019-0.059,0.028-0.059,0.028c-0.041,0.017-0.061,0.025-0.061,0.025c-0.042,0.015-0.063,0.021-0.063,0.021
			c-0.043,0.012-0.065,0.018-0.065,0.018c-0.044,0.01-0.067,0.015-0.067,0.015c-0.046,0.008-0.069,0.012-0.069,0.012
			c-0.047,0.006-0.07,0.009-0.07,0.009c-0.048,0.004-0.072,0.006-0.072,0.006c-0.049,0.002-0.074,0.003-0.074,0.003
			c-0.647-0.001-1.195-0.197-1.789-0.398c-1.187-0.423-2.552-1.034-3.787-1.274c-0.751-0.154-1.609-0.19-2.326,0.068
			c-0.698,0.251-1.218,0.691-1.705,1.204c-0.584,0.627-1.071,1.351-1.522,2.077c-0.684,1.099-1.544,2.735-2.273,3.8
			c-0.467,0.666-1.032,1.412-1.79,1.721c-0.03,0.011-0.06,0.022-0.06,0.022c-0.03,0.01-0.06,0.02-0.06,0.02
			c-0.03,0.009-0.061,0.018-0.061,0.018c-0.03,0.008-0.061,0.015-0.061,0.015c-0.031,0.007-0.061,0.013-0.061,0.013
			c-0.031,0.005-0.062,0.01-0.062,0.01c-0.032,0.004-0.065,0.008-0.065,0.008c-0.033,0.003-0.065,0.005-0.065,0.005
			c-0.033,0.002-0.066,0.003-0.066,0.003c-0.033,0-0.066,0-0.066,0c-0.033-0.001-0.067-0.003-0.067-0.003
			c-0.033-0.002-0.067-0.005-0.067-0.005c-0.034-0.004-0.067-0.008-0.067-0.008c-0.577-0.086-1.04-0.37-1.486-0.688
			c-0.546-0.401-1.044-0.886-1.51-1.377c-1.382-1.464-2.955-3.598-4.304-5.093c-0.598-0.653-1.257-1.344-2.022-1.791
			c-0.879-0.529-1.826-0.565-2.786-0.783c-0.67-0.151-1.32-0.5-1.803-0.931c-0.627-0.556-1.073-1.143-1.555-1.802
			c-1.965-2.772-4.25-7.234-6.04-10.134c-10.074,8.081-20.982,17.221-31.897,24.009c-2.292,1.438-4.558,3.005-6.618,4.762
			c-1.578,1.359-3.081,2.841-4.279,4.549c-0.431,0.621-0.832,1.274-1.151,1.959c-0.387,0.843-0.684,1.762-0.954,2.65
			c-1.058,3.582-1.83,7.573-2.54,11.25c-3.184,17.472-5.551,37.191-8.766,54.688c-0.741,4.089-1.76,9.307-2.671,13.329
			c-0.807,3.579-1.484,7.278-1.833,10.928c-0.277,2.938-0.367,5.948-0.062,8.887c0.081,0.768,0.194,1.565,0.337,2.324
			c0.129,0.692,1.024,4.508,1.202,5.279c0.923,3.994,1.906,9.044,2.716,13.051c0.254,1.09,0.568,2.199,0.981,3.24
			c0.526,1.332,1.276,2.712,2.331,3.676c0.672,0.661,1.754,1.098,2.552,1.521c2.064,1.07,4.863,2.566,6.888,3.719
			c0.424,0.253,0.847,0.537,1.24,0.836c1.557,1.17,2.811,2.786,3.37,4.666c0.431,1.48,0.569,3.06,0.354,4.589
			c-0.182,1.272-0.642,2.504-1.329,3.589c-1.165,1.912-3.264,2.831-5.38,3.146c-0.816,0.126-1.652,0.177-2.478,0.177
			c0,0-13.269,0-13.269,0c-0.11-0.007-0.356,0.002-0.467-0.005c-0.651-0.015-1.326-0.059-1.972-0.145
			c-1.471-0.194-2.941-0.599-4.22-1.367c-1.056-0.629-1.955-1.52-2.583-2.577c-0.445-0.734-0.737-1.587-1.123-2.353
			c-1.013-2.062-2.212-4.196-4.048-5.628c-0.055-0.047-0.073-0.063-0.073-0.063c-0.054-0.05-0.071-0.067-0.071-0.067
			c-0.503-0.494-0.772-1.085-0.985-1.703c-0.232-0.702-0.358-1.445-0.436-2.18c-0.231-2.318-0.032-4.68,0.216-6.99
			c0.281-2.827,0.352-5.792,0.275-8.633c-0.07-2.464-0.27-5.122-0.544-7.572c-0.442-3.558-0.966-7.239-1.047-10.827
			c-0.078-2.667,0.014-5.379,0.39-8.022c0.174-1.263,0.485-2.561,0.654-3.826c0.329-2.339,0.461-4.776,0.508-7.138
			c0.109-5.367-0.334-11.01-0.707-16.369c-0.469-7.407-0.713-17.428-0.871-24.905c-0.196-11.562,0.021-24.915-1.383-36.359
			c-0.383-3.023-0.874-6.115-1.726-9.045l-6.33,1.211c-21.903,3.631-46.103,8.494-68.189,9.901
			c-9.427,0.585-19.067,0.613-28.422-0.824c-6.404-0.968-12.825-2.606-18.944-4.724c-7.414-2.552-14.787-5.933-21.836-9.361
			c-5.182,6.744-11.427,13.021-17.56,18.914c-5.082,4.784-10.523,9.814-15.256,14.931c-2.608,2.831-5.24,5.811-7.514,8.911
			c-1.515,2.08-2.976,4.262-4.064,6.599c-1.461,3.206-2.197,6.71-2.653,10.189c-0.757,6.005-0.661,12.19-0.3,18.224
			c0.558,8.3,1.528,16.82,3.192,24.974c1.336,6.567,3.26,13.071,6.002,19.194c1.771,3.898,3.824,7.803,6.852,10.879
			c0.452,0.449,0.949,0.895,1.452,1.286c1.66,1.233,5.973,4.367,7.56,5.605c1.289,1.001,2.957,2.264,4.078,3.445
			c1.239,1.263,2.334,2.684,3.237,4.206c0.562,0.94,0.923,2.007,1.011,3.1c0.094,1.105-0.08,2.226-0.421,3.278
			c-0.231,0.688-0.503,1.378-0.876,2.002c-0.339,0.558-0.814,1.083-1.307,1.481c-1.186,0.962-2.658,1.501-4.133,1.837
			c-1.146,0.257-2.331,0.395-3.503,0.463c-1.125,0.073-11.928,0.056-13.314,0.051c-0.053-0.003-0.071-0.004-0.071-0.004
			c-0.053-0.005-0.07-0.007-0.07-0.007c-0.052-0.007-0.07-0.009-0.07-0.009c-0.052-0.009-0.069-0.012-0.069-0.012
			c-0.052-0.011-0.069-0.015-0.069-0.015c-0.051-0.013-0.068-0.017-0.068-0.017c-0.051-0.015-0.068-0.02-0.068-0.02
			c-0.051-0.017-0.068-0.023-0.068-0.023c-0.05-0.019-0.067-0.025-0.067-0.025c-0.05-0.021-0.067-0.028-0.067-0.028
			c-0.05-0.023-0.066-0.031-0.066-0.031c-0.049-0.025-0.066-0.033-0.066-0.033c-0.033-0.018-0.065-0.036-0.065-0.036
			c-0.032-0.019-0.065-0.039-0.065-0.039c-0.032-0.02-0.064-0.041-0.064-0.041c-0.032-0.022-0.064-0.044-0.064-0.044
			c-0.032-0.023-0.063-0.047-0.063-0.047c-0.091-0.063-0.193-0.164-0.248-0.213c-0.064-0.056-0.148-0.154-0.181-0.188
			c-0.067-0.083-0.141-0.16-0.177-0.212c-0.029-0.038-0.058-0.076-0.058-0.076c-0.029-0.039-0.057-0.079-0.057-0.079
			c-0.099-0.143-0.154-0.224-0.225-0.341c-0.157-0.258-0.301-0.536-0.427-0.809c-0.356-0.772-0.626-1.622-0.849-2.444
			c-0.237-0.94-0.469-1.898-0.8-2.809c-0.771-2.18-1.993-4.274-3.831-5.72c-2.157-1.647-4.136-3.574-5.657-5.831
			c-0.558-0.846-1.027-1.776-1.436-2.703c-0.91-2.075-1.598-4.316-2.188-6.503c-2.294-8.804-4.054-18.988-5.877-27.933
			c-2.899-14.227-7.667-34.641-10.585-48.813c-0.644-3.344-1.474-7.457-1.933-10.81c-0.174-1.325-0.367-2.714-0.368-4.052
			c0.017-1.001,0.281-1.985,0.633-2.916c0.527-1.373,1.265-2.672,2.063-3.905c1.189-1.823,2.585-3.586,4-5.238
			c1.751-2.091,3.837-4.055,5.553-6.174c3.368-4.149,5.763-9.062,7.122-14.223c1.034-3.881,1.514-7.917,1.605-11.928
			c0.073-2.944-0.03-6.003-0.36-8.931c-0.614-5.458-2.055-10.885-4.67-15.737c-1.335-2.413-3.248-5.296-4.611-7.689
			c-3.394-5.82-6.741-12.303-9.593-18.408c-0.81-1.74-1.319-3.618-1.663-5.503c-0.489-2.73-0.64-5.541-0.627-8.312
			c0.083-8.326,1.498-16.688,3.175-24.827c-2.759,1.636-6.334,3.186-9.057,4.878c-1.71,1.033-3.67,2.562-5.438,3.489
			c-0.694,0.354-1.532,0.714-2.301,0.652c-0.047-0.005-0.07-0.007-0.07-0.007c-0.046-0.006-0.069-0.01-0.069-0.01
			c-0.046-0.008-0.068-0.012-0.068-0.012c-0.045-0.01-0.067-0.015-0.067-0.015c-0.044-0.011-0.066-0.018-0.066-0.018
			c-0.044-0.013-0.065-0.02-0.065-0.02c-0.043-0.015-0.064-0.023-0.064-0.023c-0.042-0.017-0.063-0.026-0.063-0.026
			c-0.041-0.019-0.062-0.029-0.062-0.029c-0.045-0.023-0.07-0.036-0.07-0.036c-0.049-0.028-0.073-0.043-0.073-0.043
			c-0.048-0.031-0.071-0.047-0.071-0.047c-0.047-0.034-0.07-0.051-0.07-0.051c-0.045-0.036-0.068-0.055-0.068-0.055
			c-0.044-0.039-0.066-0.059-0.066-0.059c-0.043-0.042-0.065-0.063-0.065-0.063c-0.042-0.044-0.063-0.067-0.063-0.067
			c-0.041-0.047-0.062-0.071-0.062-0.071c-0.04-0.049-0.06-0.074-0.06-0.074c-0.59-0.795-0.804-1.766-0.962-2.716
			c-0.259-1.767-0.199-3.575-0.009-5.346c0.358-3.241,1.259-6.436,2.717-9.356c1.714-3.458,4.172-6.519,7.005-9.127
			c18.235-16.668,52.886-19.319,76.714-19.262c25.271-0.068,52.689,5.374,77.974,4.153c5.289-0.249,10.825-0.78,16.051-1.639
			c7.589-1.234,15.379-3.203,22.782-5.282c9.357-2.664,27.245-8.41,36.566-10.166c2.969-0.571,6.035-1.026,9.059-1.129
			c2.707-0.092,5.445,0.115,8.105,0.629c3.004,0.569,5.981,1.56,8.834,2.653c1.087,0.429,6.192,2.457,7.173,2.819
			c1.427-0.423,2.944-0.398,4.413-0.266c1.92,0.206,4.122,0.427,6.03,0.442c2.895,0.052,5.945-0.127,8.831-0.392
			c7.464-0.714,15.071-2.086,22.413-3.605c11.319-2.44,22.8-5.257,33.583-9.524c5.856-2.332,11.582-5.42,17.057-8.535
			c-1.908-0.97-4.163-2.806-5.906-4.072c-1.663-1.206-3.419-2.34-5.28-3.211c-2.065-0.973-4.274-1.669-6.495-2.186
			c-4.894-1.114-9.983-1.432-14.979-0.962c-3.641,0.339-7.244,1.213-10.603,2.665c-4.781,2.009-9.784,5.355-14.538,7.423
			c-2.211,0.971-4.532,1.728-6.892,2.242c-2.229,0.484-4.523,0.769-6.806,0.755c-1.734-0.016-3.491-0.202-5.156-0.701
			c-1.61-0.479-3.151-1.308-4.287-2.563c-0.89-0.988-1.706-2.448-1.054-3.709c0.032-0.056,0.043-0.074,0.043-0.074
			c0.035-0.055,0.047-0.073,0.047-0.073c0.037-0.054,0.05-0.071,0.05-0.071c0.04-0.052,0.065-0.083,0.065-0.083
			c0.025-0.03,0.051-0.06,0.051-0.06c0.027-0.029,0.054-0.058,0.054-0.058c0.578-0.574,1.289-0.834,2.023-1.077
			c1.144-0.355,2.371-0.558,3.553-0.742c4.477-0.682,9.618-1.013,13.726-3.02c2.176-1.072,4.065-2.658,5.784-4.351l1.716-1.721
			c-5.194-3.463-9.902-7.702-14.058-12.354c-3.427-3.82-6.548-7.992-9.003-12.508c-1.64-3.016-2.979-6.221-3.9-9.529
			c-2.569-9.156-2.752-19.546-5.46-28.668c-1.749-5.922-4.732-11.571-9.103-15.976c-2.181-2.205-4.713-4.092-7.456-5.542
			c-2.417-1.287-5.042-2.218-7.681-2.932c-6.372-1.724-14.118-2.585-20.525-4.164c-3.153-0.775-6.305-1.768-9.205-3.243
			c-2.694-1.354-5.134-3.212-7.159-5.446c-2.243-2.458-4.033-5.34-5.326-8.403c-1.256-2.994-2.067-6.21-2.255-9.455
			c-0.199-3.271,0.312-6.626,1.777-9.577c0.434-0.875,0.95-1.729,1.569-2.486c0.429-0.535,1.003-1.086,1.556-1.416
			c0.181-0.107,0.339-0.18,0.481-0.233c0.052-0.019,0.078-0.027,0.078-0.027c0.052-0.016,0.078-0.024,0.078-0.024
			c0.051-0.014,0.077-0.021,0.077-0.021c0.051-0.012,0.076-0.017,0.076-0.017c0.05-0.009,0.076-0.014,0.076-0.014
			c0.05-0.007,0.075-0.01,0.075-0.01c0.049-0.005,0.074-0.007,0.074-0.007c0.049-0.002,0.073-0.003,0.073-0.003
			c0.048,0,0.072,0.001,0.072,0.001c0.048,0.002,0.071,0.004,0.071,0.004c0.047,0.005,0.07,0.008,0.07,0.008
			c0.046,0.007,0.069,0.012,0.069,0.012c0.046,0.01,0.068,0.015,0.068,0.015c0.045,0.012,0.067,0.019,0.067,0.019
			c0.044,0.015,0.066,0.023,0.066,0.023c0.045,0.018,0.069,0.028,0.069,0.028c0.046,0.022,0.069,0.033,0.069,0.033
			c0.045,0.025,0.068,0.038,0.068,0.038c0.045,0.028,0.067,0.042,0.067,0.042c0.044,0.03,0.065,0.046,0.065,0.046
			c0.043,0.033,0.064,0.051,0.064,0.051c0.042,0.036,0.063,0.055,0.063,0.055c0.041,0.039,0.062,0.059,0.062,0.059
			c0.041,0.041,0.061,0.063,0.061,0.063c0.04,0.044,0.06,0.067,0.06,0.067c0.53,0.646,0.782,1.402,1.033,2.179
			c1.147,3.905,1.349,8.422,3.041,12.159c0.785,1.77,1.962,3.364,3.427,4.631c1.73,1.507,3.772,2.631,5.837,3.61
			c3.368,1.571,6.945,2.78,10.525,3.762c3.231,0.87,6.559,1.594,9.884,1.986c1.301,0.14,2.64,0.237,3.945,0.095
			c0.843-0.093,1.801-0.326,2.427-0.894c0.055-0.052,0.073-0.07,0.073-0.07c0.053-0.054,0.07-0.073,0.07-0.073
			c0.033-0.037,0.05-0.056,0.05-0.056c0.032-0.038,0.048-0.058,0.048-0.058c0.031-0.039,0.046-0.059,0.046-0.059
			c0.029-0.041,0.043-0.061,0.043-0.061c0.028-0.042,0.041-0.063,0.041-0.063c0.026-0.043,0.039-0.064,0.039-0.064
			c0.025-0.044,0.037-0.066,0.037-0.066c0.023-0.045,0.034-0.068,0.034-0.068c0.022-0.046,0.032-0.069,0.032-0.069
			c0.263-0.616,0.247-1.244,0.171-1.872c-0.109-0.812-0.359-1.608-0.646-2.373c-1.224-3.127-3.082-6.014-4.955-8.787l-3.072-4.368
			c-1.689-2.447-3.254-5.09-3.855-8.034c-0.375-1.768-0.397-3.607-0.231-5.402c0.173-1.831,0.539-3.658,1.063-5.421
			c-2.065-2-4.059-4.213-5.188-6.891c-0.378-0.913-0.627-1.888-0.687-2.876c-0.099-1.558,0.212-3.142,0.878-4.552
			c0.299-0.637,0.739-1.323,1.203-1.811c0.422-0.445,0.883-0.794,1.431-0.956c0.589-0.175,1.199-0.065,1.732,0.139
			c0.702,0.268,1.352,0.687,1.979,1.098c6.28,4.313,13.283,10.361,19.208,15.218c1.227-1.039,2.649-1.851,4.084-2.568
			c2.3-1.134,4.771-2.033,7.226-2.773c-1.355-4.936-2.564-10.046-3.191-15.13c-0.549-4.565-0.507-9.391,1.415-13.651
			c0.992-2.216,2.489-4.271,4.542-5.609c0.589-0.383,1.219-0.714,1.882-0.946c0.533-0.184,1.155-0.325,1.698-0.237
			c0.045,0.008,0.06,0.011,0.06,0.011c0.044,0.01,0.059,0.013,0.059,0.013c0.043,0.011,0.057,0.015,0.057,0.015
			c0.056,0.017,0.07,0.022,0.07,0.022c0.054,0.02,0.067,0.025,0.067,0.025c0.052,0.022,0.064,0.028,0.064,0.028
			c0.05,0.025,0.062,0.032,0.062,0.032c0.048,0.028,0.059,0.035,0.059,0.035c0.045,0.03,0.056,0.038,0.056,0.038
			c0.053,0.042,0.064,0.05,0.064,0.05c0.05,0.046,0.06,0.055,0.06,0.055c0.044,0.047,0.056,0.061,0.056,0.061
			c0.035,0.044,0.046,0.059,0.046,0.059c0.032,0.047,0.043,0.063,0.043,0.063c0.03,0.05,0.039,0.067,0.039,0.067
			c0.027,0.053,0.036,0.071,0.036,0.071c0.025,0.056,0.033,0.075,0.033,0.075c0.015,0.039,0.022,0.059,0.022,0.059
			c0.014,0.04,0.021,0.061,0.021,0.061c0.138,0.469,0.127,0.878,0.105,1.33c-0.035,0.55-0.128,1.122-0.23,1.665
			c-0.298,1.56-0.898,3.867-1.185,5.428c-0.246,1.316-0.415,2.695-0.477,4.033c-0.156,3.202,0.3,6.424,1.017,9.539
			c0.834,3.6,1.985,7.238,3.23,10.717c5.547-0.64,11.222-0.229,16.759,0.353c-0.546-6.776-1.067-13.815-0.275-20.581
			c0.158-1.198,0.37-2.413,0.74-3.566c0.24-0.729,0.573-1.524,1.091-2.082c0.053-0.054,0.079-0.081,0.079-0.081
			c0.054-0.051,0.081-0.075,0.081-0.075c0.055-0.047,0.082-0.07,0.082-0.07c0.056-0.044,0.084-0.064,0.084-0.064
			c0.028-0.02,0.057-0.04,0.057-0.04c0.029-0.019,0.058-0.037,0.058-0.037c0.045-0.027,0.06-0.036,0.06-0.036
			c0.046-0.025,0.061-0.033,0.061-0.033c0.046-0.023,0.062-0.031,0.062-0.031c0.047-0.021,0.063-0.028,0.063-0.028
			c0.047-0.019,0.063-0.025,0.063-0.025c0.048-0.017,0.064-0.023,0.064-0.023c0.048-0.015,0.065-0.02,0.065-0.02
			c0.049-0.013,0.065-0.018,0.065-0.018c0.049-0.012,0.066-0.015,0.066-0.015c0.05-0.01,0.067-0.013,0.067-0.013
			c0.05-0.008,0.067-0.01,0.067-0.01c0.051-0.006,0.068-0.008,0.068-0.008c0.051-0.004,0.068-0.005,0.068-0.005
			c0.91-0.033,1.68,0.457,2.336,0.997c1.353,1.158,2.248,2.754,2.948,4.369c1.466,3.49,2.178,7.279,2.688,11.014
			c0.479,3.659,0.626,7.645,1.999,11.108c1.207-0.12,2.451-0.305,3.54-0.868c0.654-0.338,1.187-0.871,1.516-1.476
			c0.366-0.659,0.557-1.384,0.698-2.118c0.22-1.185,0.307-2.428,0.358-3.632c0.166-6.064-0.414-12.23-1.411-18.209
			c-0.317-1.84-0.843-4.066-1.061-5.913c-0.095-0.904-0.137-1.941,0.214-2.78c0.085-0.202,0.184-0.371,0.284-0.51
			c0.039-0.053,0.059-0.079,0.059-0.079c0.041-0.051,0.062-0.076,0.062-0.076c0.043-0.05,0.065-0.074,0.065-0.074
			c0.045-0.048,0.068-0.072,0.068-0.072c0.047-0.047,0.071-0.069,0.071-0.069c0.049-0.045,0.074-0.067,0.074-0.067
			c0.051-0.043,0.076-0.065,0.076-0.065c0.052-0.042,0.079-0.062,0.079-0.062c0.054-0.04,0.081-0.059,0.081-0.059
			c0.875-0.619,2.048-0.705,2.993-0.299c0.919,0.394,1.541,1.132,2.068,1.913c0.668,1.014,1.16,2.149,1.583,3.284
			c0.909,2.488,1.517,5.135,2.036,7.73c2.702,14.05,3.622,31.715,4.608,46.08c2.999-1.391,5.795-3.285,8.073-5.692
			c2.726-2.89,4.698-6.462,5.901-10.237c-0.625-4.779-1.743-9.565-3.274-14.134c-0.624-1.949-1.653-4.235-2.366-6.16
			c-0.164-0.477-0.308-0.974-0.394-1.471c-0.221-1.218-0.055-2.487,0.369-3.644c0.33-0.884,0.858-1.828,1.669-2.312
			c0.05-0.028,0.067-0.038,0.067-0.038c0.051-0.026,0.068-0.035,0.068-0.035c0.051-0.025,0.069-0.032,0.069-0.032
			c0.052-0.022,0.069-0.03,0.069-0.03c0.053-0.02,0.07-0.027,0.07-0.027c0.053-0.018,0.071-0.024,0.071-0.024
			c0.054-0.016,0.072-0.021,0.072-0.021c0.054-0.014,0.073-0.018,0.073-0.018c0.055-0.012,0.073-0.015,0.073-0.015
			c0.056-0.009,0.074-0.012,0.074-0.012c0.054-0.007,0.08-0.01,0.08-0.01c0.054-0.004,0.081-0.006,0.081-0.006
			c0.055-0.002,0.082-0.002,0.082-0.002c0.055,0,0.083,0.001,0.083,0.001c0.757,0.038,1.386,0.398,1.981,0.818
			c0.895,0.655,1.651,1.492,2.325,2.367c1.445,1.905,2.539,4.08,3.228,6.368c0.541,1.732,0.914,3.855,1.384,5.609
			c0.199,0.703,0.452,1.509,0.903,2.068c0.047,0.056,0.063,0.074,0.063,0.074c0.049,0.052,0.065,0.069,0.065,0.069
			c0.05,0.049,0.067,0.065,0.067,0.065c0.052,0.046,0.069,0.06,0.069,0.06c0.053,0.042,0.071,0.056,0.071,0.056
			c0.048,0.034,0.059,0.042,0.059,0.042c0.047,0.03,0.058,0.037,0.058,0.037c0.048,0.027,0.06,0.034,0.06,0.034
			c0.049,0.025,0.061,0.031,0.061,0.031c0.05,0.023,0.062,0.028,0.062,0.028c0.051,0.021,0.063,0.025,0.063,0.025
			c0.052,0.018,0.065,0.023,0.065,0.023c0.052,0.016,0.079,0.023,0.079,0.023c0.053,0.013,0.08,0.019,0.08,0.019
			c0.054,0.011,0.082,0.015,0.082,0.015c0.055,0.008,0.083,0.012,0.083,0.012c0.648,0.07,1.271-0.196,1.773-0.532
			c0.827-0.561,1.418-1.379,1.848-2.268c0.768-1.611,1.105-3.397,1.281-5.162c0.255-2.761,0.073-5.58-0.547-8.283l-0.778-3.23
			c-0.217-0.98-0.415-2.007-0.34-3.013c0.076-1.089,0.585-2.218,1.469-2.828c0.051-0.034,0.076-0.05,0.076-0.05
			c0.052-0.032,0.078-0.047,0.078-0.047c0.053-0.03,0.079-0.044,0.079-0.044c0.054-0.028,0.081-0.041,0.081-0.041
			c0.054-0.026,0.082-0.038,0.082-0.038c0.055-0.023,0.083-0.034,0.083-0.034c0.294-0.114,0.579-0.156,0.861-0.144
			c0.053,0.003,0.08,0.005,0.08,0.005c0.053,0.005,0.08,0.008,0.08,0.008c0.949,0.132,1.717,0.71,2.403,1.323
			c1.438,1.345,2.514,3.039,3.403,4.783c2.6,5.171,3.105,11.11,2.976,16.818c-0.063,3.724-0.634,8.323-1.067,12.048
			c-0.142,1.353-0.288,2.823-0.266,4.184c0.023,0.786,0.075,1.651,0.418,2.362c0.025,0.048,0.038,0.071,0.038,0.071
			c0.026,0.046,0.039,0.068,0.039,0.068c0.027,0.044,0.041,0.065,0.041,0.065c0.029,0.042,0.043,0.062,0.043,0.062
			c0.03,0.04,0.045,0.059,0.045,0.059c0.047,0.056,0.063,0.074,0.063,0.074c0.05,0.051,0.067,0.068,0.067,0.068
			c0.053,0.047,0.071,0.062,0.071,0.062c0.046,0.036,0.061,0.046,0.061,0.046c0.044,0.03,0.059,0.039,0.059,0.039
			c0.045,0.027,0.061,0.036,0.061,0.036c0.047,0.025,0.063,0.033,0.063,0.033c0.048,0.022,0.065,0.029,0.065,0.029
			c0.05,0.02,0.067,0.026,0.067,0.026c0.051,0.017,0.069,0.023,0.069,0.023c0.053,0.015,0.071,0.019,0.071,0.019
			c0.054,0.012,0.072,0.016,0.072,0.016c0.836,0.138,1.637-0.209,2.351-0.542c1.097-0.544,2.113-1.271,3.07-2.031
			c2.395-1.93,4.509-4.228,6.428-6.626c2.09-2.631,3.987-5.457,5.592-8.41c0.605-1.129,2.363-4.577,3.006-5.607
			c1.248-2.094,3.211-4.359,5.82-3.056c1.094,0.548,1.861,1.601,2.199,2.717c0.252,0.822,0.306,1.655,0.284,2.506
			c-0.043,1.336-0.294,2.671-0.626,3.963c-0.446,1.717-1.071,3.429-1.775,5.057c-0.918,2.103-2.02,4.18-3.292,6.091
			c-1.26,1.928-3.078,4.075-4.528,5.88c-1.117,1.415-2.221,2.912-2.826,4.627c-0.231,0.678-0.434,1.47-0.269,2.17
			c0.011,0.043,0.015,0.057,0.015,0.057c0.017,0.055,0.022,0.069,0.022,0.069c0.019,0.053,0.025,0.066,0.025,0.066
			c0.022,0.052,0.027,0.064,0.027,0.064c0.024,0.05,0.03,0.062,0.03,0.062c0.027,0.048,0.033,0.059,0.033,0.059
			c0.029,0.046,0.037,0.057,0.037,0.057c0.04,0.054,0.048,0.065,0.048,0.065c0.043,0.051,0.052,0.061,0.052,0.061
			c0.047,0.048,0.057,0.057,0.057,0.057c0.051,0.045,0.062,0.053,0.062,0.053c0.055,0.041,0.067,0.049,0.067,0.049
			c0.047,0.03,0.059,0.038,0.059,0.038c0.05,0.028,0.063,0.035,0.063,0.035c0.052,0.025,0.079,0.037,0.079,0.037
			c0.055,0.022,0.083,0.032,0.083,0.032c0.029,0.01,0.058,0.019,0.058,0.019c0.03,0.009,0.06,0.017,0.06,0.017
			c0.601,0.145,1.162,0.06,1.743-0.038c0.844-0.16,1.684-0.427,2.493-0.712c3.98-1.427,8.788-4.018,12.626-5.858
			c0.8-0.373,1.646-0.753,2.486-1.024c0.74-0.243,1.59-0.416,2.357-0.374c0.724,0.037,1.34,0.213,1.974,0.516
			c0.975,0.474,1.948,1.325,2.082,2.422c0.103,1.044-0.49,1.962-1.064,2.719c-0.826,1.048-1.849,1.944-2.888,2.775
			c-5.188,4.07-12.058,7.206-17.641,10.695c-0.925,0.604-1.951,1.249-2.691,2.065c-0.081,0.094-0.134,0.164-0.171,0.215
			c-0.033,0.047-0.048,0.07-0.048,0.07c-0.03,0.046-0.044,0.069-0.044,0.069c-0.027,0.046-0.039,0.068-0.039,0.068
			c-0.024,0.045-0.035,0.067-0.035,0.067c-0.025,0.055-0.03,0.067-0.03,0.067c-0.021,0.055-0.025,0.066-0.025,0.066
			c-0.017,0.054-0.02,0.065-0.02,0.065c-0.013,0.053-0.015,0.064-0.015,0.064c-0.009,0.052-0.01,0.063-0.01,0.063
			c-0.004,0.052-0.005,0.062-0.005,0.062c0,0.051,0.001,0.061,0.001,0.061c0.005,0.05,0.006,0.06,0.006,0.06
			c0.009,0.049,0.012,0.059,0.012,0.059c0.014,0.048,0.017,0.058,0.017,0.058c0.019,0.048,0.023,0.057,0.023,0.057
			c0.029,0.056,0.034,0.065,0.034,0.065c0.029,0.046,0.042,0.064,0.042,0.064c0.042,0.053,0.057,0.07,0.057,0.07
			c0.049,0.052,0.067,0.068,0.067,0.068c0.037,0.034,0.057,0.05,0.057,0.05c0.041,0.033,0.062,0.049,0.062,0.049
			c0.045,0.032,0.068,0.048,0.068,0.048c0.048,0.032,0.073,0.047,0.073,0.047c0.052,0.031,0.078,0.046,0.078,0.046
			c0.664,0.358,1.379,0.513,2.106,0.671c4.628,0.868,11.199,0.994,15.89,1.548c1.332,0.157,2.725,0.343,4.024,0.677
			c0.796,0.212,1.696,0.497,2.324,1.021c0.056,0.049,0.074,0.066,0.074,0.066c0.052,0.05,0.069,0.067,0.069,0.067
			c0.048,0.051,0.064,0.069,0.064,0.069c0.044,0.053,0.059,0.07,0.059,0.07c0.041,0.054,0.054,0.072,0.054,0.072
			c0.037,0.055,0.048,0.073,0.048,0.073c0.033,0.056,0.043,0.075,0.043,0.075c0.02,0.038,0.029,0.057,0.029,0.057
			c0.018,0.039,0.026,0.058,0.026,0.058c0.016,0.039,0.023,0.059,0.023,0.059c0.014,0.04,0.02,0.06,0.02,0.06
			c0.011,0.041,0.017,0.061,0.017,0.061c0.009,0.041,0.014,0.062,0.014,0.062c0.008,0.045,0.011,0.068,0.011,0.068
			c0.005,0.046,0.008,0.069,0.008,0.069c0.003,0.047,0.004,0.07,0.004,0.07c0.001,0.047,0,0.071,0,0.071
			c-0.002,0.048-0.003,0.072-0.003,0.072c-0.004,0.049-0.007,0.073-0.007,0.073c-0.006,0.049-0.01,0.074-0.01,0.074
			c-0.009,0.05-0.013,0.075-0.013,0.075c-0.011,0.051-0.017,0.076-0.017,0.076c-0.013,0.051-0.02,0.077-0.02,0.077
			c-0.016,0.081-0.072,0.204-0.08,0.236c-0.023,0.063-0.065,0.149-0.07,0.162c-0.042,0.103-0.134,0.254-0.16,0.305
			c-0.143,0.244-0.312,0.479-0.49,0.699c-0.4,0.494-0.872,0.951-1.35,1.369c-1.314,1.139-2.807,2.112-4.312,2.978
			c-2.825,1.618-5.899,2.875-8.979,3.918c-8.223,2.776-18.612,4.595-27.121,6.513c-5.582,1.32-11.319,3.039-15.818,6.742
			c-4.166,3.435-6.903,8.274-8.981,13.185c-1.604,3.832-2.834,7.898-3.841,11.927c-2.217,8.88-3.374,18.225-4.226,27.33
			c-0.252,2.935-0.586,6.113-0.364,9.055c0.119,1.56,0.39,3.139,1.029,4.576c0.38,0.854,0.903,1.653,1.565,2.317
			c0.729,0.733,1.607,1.31,2.526,1.777c1.584,0.803,3.318,1.323,5.031,1.769c1.663,0.445,6.019,1.34,7.757,1.73
			c4.11,0.906,8.156,2.359,12.033,3.984c5.148,2.137,11.595,5.273,17.061,6.292c7.864-2.129,15.514-5.931,21.091-11.979
			c3.892-4.261,6.602-9.498,8.573-14.889c1.15-3.069,1.985-6.596,2.717-9.795c0.471-1.933,1.11-3.859,1.978-5.652
			c1.567-3.218,3.664-6.196,5.896-8.985c1.203-1.47,2.493-2.937,3.921-4.193c0.747-0.632,1.605-1.343,2.554-1.597
			c0.036-0.008,0.071-0.015,0.071-0.015c0.035-0.007,0.069-0.012,0.069-0.012c0.034-0.005,0.068-0.009,0.068-0.009
			c0.033-0.004,0.066-0.006,0.066-0.006c0.033-0.002,0.065-0.003,0.065-0.003c0.032,0,0.063,0,0.063,0
			c0.031,0.001,0.062,0.003,0.062,0.003c0.03,0.003,0.06,0.006,0.06,0.006c0.03,0.004,0.059,0.009,0.059,0.009
			c0.029,0.006,0.057,0.013,0.057,0.013c0.056,0.016,0.083,0.025,0.083,0.025c0.053,0.021,0.079,0.033,0.079,0.033
			c0.051,0.026,0.075,0.041,0.075,0.041c0.041,0.026,0.057,0.038,0.057,0.038c0.048,0.037,0.064,0.05,0.064,0.05
			c0.046,0.042,0.061,0.057,0.061,0.057c0.043,0.047,0.057,0.063,0.057,0.063c0.041,0.051,0.055,0.069,0.055,0.069
			c0.039,0.056,0.052,0.075,0.052,0.075c0.025,0.04,0.037,0.06,0.037,0.06c0.024,0.042,0.035,0.063,0.035,0.063
			c0.37,0.756,0.425,1.59,0.518,2.405c0.102,1.117,0.176,2.549,0.384,3.64c0.1,0.519,0.261,1.119,0.536,1.558
			c0.03,0.047,0.045,0.07,0.045,0.07c0.031,0.045,0.047,0.067,0.047,0.067c0.032,0.043,0.049,0.064,0.049,0.064
			c0.04,0.049,0.054,0.064,0.054,0.064c0.042,0.046,0.056,0.061,0.056,0.061c0.044,0.043,0.058,0.058,0.058,0.058
			c0.045,0.041,0.06,0.054,0.06,0.054c0.046,0.039,0.062,0.051,0.062,0.051c0.048,0.036,0.064,0.048,0.064,0.048
			c0.049,0.034,0.066,0.045,0.066,0.045c0.051,0.032,0.068,0.042,0.068,0.042c0.052,0.03,0.069,0.04,0.069,0.04
			c0.053,0.028,0.071,0.037,0.071,0.037c1.38,0.636,3.102,0.083,4.447,0.798c0.056,0.031,0.075,0.042,0.075,0.042
			c0.082,0.049,0.101,0.064,0.134,0.086c0.049,0.035,0.074,0.053,0.074,0.053c0.048,0.037,0.072,0.057,0.072,0.057
			c0.047,0.04,0.071,0.06,0.071,0.06c0.046,0.042,0.069,0.063,0.069,0.063c0.423,0.412,0.656,0.837,0.893,1.347
			c0.249,0.555,0.435,1.15,0.595,1.737c0.417,1.554,0.768,3.613,1.202,5.159c0.26,0.935,0.595,1.866,1.113,2.691
			c0.713,1.164,1.758,2.084,2.869,2.858l1.904,1.282c1.523-3.537,2.438-7.393,2.326-11.258c-0.065-2.588-0.742-5.434-1.093-7.996
			c-0.181-1.465-0.302-3.014,0.214-4.427c0.332-0.924,1.003-1.689,1.755-2.23c0.867-0.628,1.885-1.039,2.934-1.24
			c1.089-0.206,2.235-0.184,3.298,0.146c1.366,0.407,2.446,1.399,3.209,2.551c0.889,1.33,1.462,2.854,1.914,4.381
			c0.807,2.778,1.222,5.745,1.558,8.616c0.446,4.303,0.913,8.871,0.84,13.194c-0.054,2.646-0.31,5.332-1.083,7.873
			c-0.645,2.134-1.686,4.151-3.056,5.911c-1.615,2.089-3.66,3.828-5.834,5.311c-4.761,3.218-10.191,5.542-15.505,7.688
			l-10.443,4.006c-1.779,0.718-3.633,1.476-5.302,2.422c-0.819,0.481-1.731,1.053-2.259,1.84c-0.033,0.053-0.044,0.07-0.044,0.07
			c-0.03,0.052-0.04,0.07-0.04,0.07c-0.028,0.052-0.037,0.07-0.037,0.07c-0.025,0.052-0.033,0.069-0.033,0.069
			c-0.022,0.052-0.029,0.069-0.029,0.069c-0.02,0.052-0.026,0.069-0.026,0.069c-0.017,0.052-0.022,0.069-0.022,0.069
			c-0.014,0.051-0.018,0.069-0.018,0.069c-0.011,0.051-0.015,0.068-0.015,0.068c-0.009,0.051-0.011,0.068-0.011,0.068
			c-0.006,0.051-0.007,0.068-0.007,0.068c-0.003,0.051-0.004,0.068-0.004,0.068c0,0.051,0,0.067,0,0.067
			c0.003,0.05,0.004,0.067,0.004,0.067c0.005,0.05,0.008,0.067,0.008,0.067c0.008,0.05,0.011,0.067,0.011,0.067
			c0.011,0.05,0.015,0.066,0.015,0.066c0.014,0.049,0.019,0.066,0.019,0.066c0.017,0.049,0.023,0.066,0.023,0.066
			c0.02,0.049,0.027,0.065,0.027,0.065c0.021,0.045,0.027,0.058,0.027,0.058c0.027,0.051,0.034,0.064,0.034,0.064
			c0.03,0.051,0.037,0.063,0.037,0.063c0.033,0.05,0.05,0.075,0.05,0.075c0.036,0.05,0.055,0.075,0.055,0.075
			c0.039,0.05,0.06,0.074,0.06,0.074c0.043,0.049,0.065,0.074,0.065,0.074c0.046,0.049,0.07,0.073,0.07,0.073
			c0.049,0.048,0.075,0.072,0.075,0.072c0.58,0.53,1.252,0.837,1.964,1.126c1.047,0.405,2.158,0.671,3.265,0.849
			c1.934,0.305,3.917,0.341,5.86,0.099c1.933-0.244,3.851-0.776,5.577-1.692c2.457-1.291,4.457-3.513,6.377-5.479
			c1.135-1.149,2.316-2.329,3.733-3.126c1.151-0.649,2.453-1.037,3.773-1.106c1.399-0.076,2.813,0.194,4.099,0.747
			c0.736,0.32,1.445,0.733,2.028,1.288c0.619,0.582,1.027,1.339,0.916,2.167c-0.08,0.664-0.358,1.221-0.681,1.784
			c-0.647,1.124-2.27,3.084-3.071,4.14c-0.846,1.124-1.684,2.299-2.254,3.59c-0.322,0.736-0.56,1.546-0.552,2.354
			c0.045,2.189,1.665,3.884,3.46,4.883c1.273,0.726,2.854,1.035,4.264,1.396c0.717,0.194,1.532,0.443,2.098,0.909
			c0.05,0.043,0.067,0.057,0.067,0.057c0.048,0.044,0.064,0.059,0.064,0.059c0.046,0.046,0.061,0.061,0.061,0.061
			c0.044,0.047,0.059,0.063,0.059,0.063c0.042,0.049,0.056,0.065,0.056,0.065c0.04,0.051,0.053,0.068,0.053,0.068
			c0.038,0.052,0.05,0.07,0.05,0.07c0.036,0.054,0.047,0.073,0.047,0.073c0.09,0.147,0.14,0.263,0.183,0.38
			c0.262,0.787,0.141,1.596-0.032,2.377c-0.323,1.336-0.912,2.604-1.614,3.782c-0.58,0.957-1.255,1.875-2.055,2.66
			c-0.528,0.513-1.124,0.98-1.813,1.254c-1.619,0.658-3.361-0.042-4.877-0.669c-2.234-0.991-4.755-2.082-7.067-2.821
			c-6.124-2.01-12.667-3.471-18.992-4.71c-8.982-1.637-18.282-3.22-27.438-2.82l4.515,2.334c3.491,1.77,7.201,3.171,11.006,4.093
			c7.665,1.892,17.082,3.324,24.456,6.122C605.61,334.976,612.439,339.257,618.835,343.894z"/>
	</g>
</g>
</svg>
