<?xml version="1.0" encoding="utf-8"?>
<!-- Generator: Adobe Illustrator 24.2.0, SVG Export Plug-In . SVG Version: 6.00 Build 0)  -->
<!DOCTYPE svg PUBLIC "-//W3C//DTD SVG 1.1//EN" "http://www.w3.org/Graphics/SVG/1.1/DTD/svg11.dtd" [
	<!ENTITY ns_flows "http://ns.adobe.com/Flows/1.0/">
	<!ENTITY ns_extend "http://ns.adobe.com/Extensibility/1.0/">
	<!ENTITY ns_ai "http://ns.adobe.com/AdobeIllustrator/10.0/">
	<!ENTITY ns_graphs "http://ns.adobe.com/Graphs/1.0/">
	<!ENTITY ns_vars "http://ns.adobe.com/Variables/1.0/">
	<!ENTITY ns_imrep "http://ns.adobe.com/ImageReplacement/1.0/">
	<!ENTITY ns_sfw "http://ns.adobe.com/SaveForWeb/1.0/">
	<!ENTITY ns_custom "http://ns.adobe.com/GenericCustomNamespace/1.0/">
	<!ENTITY ns_adobe_xpath "http://ns.adobe.com/XPath/1.0/">
]>
<svg version="1.1" xmlns:x="&ns_extend;" xmlns:i="&ns_ai;" xmlns:graph="&ns_graphs;"
	 xmlns="http://www.w3.org/2000/svg" xmlns:xlink="http://www.w3.org/1999/xlink" xmlns:a="http://ns.adobe.com/AdobeSVGViewerExtensions/3.0/"
	 x="0px" y="0px" width="750px" height="750px" viewBox="0 0 750 750" enable-background="new 0 0 750 750" xml:space="preserve">
<metadata>
	<sfw  xmlns="&ns_sfw;">
		<slices></slices>
		<sliceSourceBounds  bottomLeftOrigin="true" height="6031.127" width="3975" x="-2000" y="1474"></sliceSourceBounds>
	</sfw>
</metadata>
<g id="FILL-BACKGROUND">
	<rect fill="#FFFFFF" width="750" height="750"/>
</g>
<g id="N-TEXT">
</g>
<g id="N-DIMENSIONS">
</g>
<g id="AG-DETAIL-DIAGRAM">
</g>
<g id="AG-DIAGRAM">
	<g id="POLYLINE_4_">
		<g>
			<g>
				
					<line fill="none" stroke="#FB8604" stroke-width="3.25" stroke-linecap="round" stroke-linejoin="round" x1="201.5" y1="564.171" x2="203.5" y2="564.171"/>
				
					<line fill="none" stroke="#FB8604" stroke-width="3.25" stroke-linecap="round" stroke-linejoin="round" stroke-dasharray="4.0456,7.0798" x1="210.58" y1="564.171" x2="629.806" y2="564.171"/>
				
					<line fill="none" stroke="#FB8604" stroke-width="3.25" stroke-linecap="round" stroke-linejoin="round" x1="633.346" y1="564.171" x2="635.346" y2="564.171"/>
			</g>
		</g>
	</g>
</g>
<g id="AG-GUIDES">
</g>
<g id="AG-DETAILS">
	<g id="POLYLINE_1967_">
		<path fill="none" stroke="#FB8604" stroke-width="2" stroke-linecap="round" stroke-linejoin="round" stroke-miterlimit="10" d="
			M613.725,352.287c-3.867,0.039-7.929,0.171-11.443,1.965c-2.976,1.505-5.493,4.082-8.239,5.94
			c-1.019,0.68-2.115,1.305-3.323,1.567c-1.422,0.313-2.943-0.02-4.16-0.803c-1.313-0.833-2.312-2.161-2.707-3.668
			c-0.749-2.805,0.516-5.751,2.519-7.722c2.346-2.306,5.493-3.596,8.602-4.516c3.398-0.968,6.951-1.444,10.482-1.487
			c3.292-0.027,6.631,0.315,9.787,1.284"/>
	</g>
	<g id="POLYLINE_1966_">
		<path fill="none" stroke="#FB8604" stroke-width="2" stroke-linecap="round" stroke-linejoin="round" stroke-miterlimit="10" d="
			M537.163,347.496c1.692-0.948,3.472-1.808,5.352-2.308c1.526-0.41,3.126-0.572,4.702-0.445c1.93,0.157,3.825,0.69,5.611,1.426
			c1.968,0.817,3.838,1.901,5.507,3.227c1.468,1.172,2.798,2.555,3.775,4.166c0.578,0.964,1.052,2.021,1.202,3.143
			c0.114,0.815,0.002,1.725-0.456,2.415c-0.727,1.082-2.002,1.595-3.23,1.859c-1.578,0.318-3.245,0.231-4.78-0.254
			c-0.867-0.274-1.681-0.71-2.424-1.23c-1.547-1.07-2.979-2.666-4.357-3.942c-0.859-0.794-1.795-1.542-2.87-2.021
			c-2.159-0.984-4.608-1.018-6.94-1.023"/>
	</g>
	<g id="POLYLINE_1965_">
		<path fill="none" stroke="#FB8604" stroke-width="2" stroke-linecap="round" stroke-linejoin="round" stroke-miterlimit="10" d="
			M219.82,536.76c1.044-1.102,2.245-2.143,3.717-2.606c1.685-0.534,3.53-0.216,5.134,0.445c1.101,0.47,2.157,1.141,2.887,2.105
			c0.501,0.674,0.771,1.424,0.826,2.247c0.2,4.038-4.459,6.965-8.001,7.587"/>
	</g>
	<g id="POLYLINE_1964_">
		<path fill="none" stroke="#FB8604" stroke-width="2" stroke-linecap="round" stroke-linejoin="round" stroke-miterlimit="10" d="
			M282.643,419.103c-0.408-0.651-0.962-1.098-1.578-1.486c-0.566-0.345-1.187-0.612-1.835-0.755
			c-0.779-0.178-1.727-0.148-2.345,0.397c-0.59,0.513-0.868,1.2-1.09,1.92c-0.413,1.439-0.503,2.973-0.579,4.463
			c-0.05,2.033-0.196,4.33-0.051,6.349c0.071,0.888,0.209,1.785,0.52,2.623c0.199,0.535,0.474,1.046,0.834,1.49
			c0.5,0.613,1.109,1.064,1.797,1.41c1.031,0.507,2.563,0.875,3.48,0.002c0.036-0.037,0.054-0.056,0.054-0.056
			c0.47-0.539,0.593-1.217,0.683-1.892c0.182-1.659-0.044-3.758-0.129-5.434c-0.056-1.078-0.104-2.212,0.001-3.286
			c0.09-1.053,0.393-2.261,0.559-3.306C283.099,420.726,283.091,419.806,282.643,419.103z"/>
	</g>
	<g id="POLYLINE_1963_">
		<path fill="none" stroke="#FB8604" stroke-width="2" stroke-linecap="round" stroke-linejoin="round" stroke-miterlimit="10" d="
			M249.537,382.447c-1.452-1.826-4.153-2.125-6.226-1.289c-2.273,0.871-3.744,3.065-4.444,5.317
			c-0.498,1.654-0.703,3.546-0.056,5.187c0.727,1.808,2.572,2.795,4.39,3.153c1.241,0.248,2.563,0.297,3.773-0.117
			c0.78-0.257,1.54-0.785,2.05-1.4c0.557-0.657,0.939-1.446,1.221-2.254c0.592-1.749,0.779-3.648,0.519-5.477
			C250.596,384.458,250.242,383.335,249.537,382.447z"/>
	</g>
	<g id="POLYLINE_1962_">
		<path fill="none" stroke="#FB8604" stroke-width="2" stroke-linecap="round" stroke-linejoin="round" stroke-miterlimit="10" d="
			M232.169,385.366c-0.969,0.213-1.868-0.299-2.563-0.917c-0.682-0.613-1.232-1.367-1.694-2.155
			c-0.566-0.976-1.01-2.033-1.291-3.126c-0.352-1.366-0.408-2.807-0.196-4.2c0.275-1.835,0.961-3.594,1.757-5.261
			c0.978-2.024,2.15-3.994,3.506-5.788c0.906-1.184,1.907-2.326,3.093-3.238c0.907-0.692,2.056-1.316,3.214-1.218
			c0.992,0.083,1.823,0.612,2.533,1.265c0.967,0.907,1.706,2.036,2.34,3.194c1.274,2.421,2.309,5.168,2.661,7.889
			c0.099,0.987,0.155,2.174-0.394,3.038c-0.024,0.035-0.036,0.052-0.036,0.052c-0.025,0.034-0.038,0.05-0.038,0.05
			c-0.026,0.032-0.039,0.048-0.039,0.048c-0.027,0.031-0.041,0.046-0.041,0.046c-0.033,0.035-0.044,0.047-0.044,0.047
			c-0.034,0.034-0.046,0.045-0.046,0.045c-0.036,0.032-0.048,0.043-0.048,0.043c-0.037,0.031-0.049,0.041-0.049,0.041
			c-0.038,0.029-0.051,0.039-0.051,0.039c-0.428,0.306-0.886,0.409-1.373,0.526c-0.684,0.149-1.48,0.301-2.127,0.56
			c-0.678,0.258-1.297,0.659-1.828,1.151c-1.422,1.316-2.694,3.298-3.859,4.85c-0.535,0.708-1.1,1.428-1.748,2.035
			C233.348,384.809,232.775,385.232,232.169,385.366z"/>
	</g>
	<g id="POLYLINE_1961_">
		<path fill="none" stroke="#FB8604" stroke-width="2" stroke-linecap="round" stroke-linejoin="round" stroke-miterlimit="10" d="
			M216.437,416.526c1.739-0.139,3.545-0.322,5.131-1.1c0.554-0.275,1.108-0.687,1.462-1.182c0.353-0.488,0.521-1.029,0.618-1.602
			c0.214-1.284,0.041-2.938-0.02-4.244c-0.103-1.94-0.133-3.991,0.705-5.789c0.885-1.948,2.612-3.692,3.869-5.401
			c0.57-0.785,1.106-1.63,1.352-2.578c0.221-0.833,0.141-1.653-0.142-2.43c-0.391-1.072-1.081-2.014-1.875-2.823
			c-0.88-0.885-1.913-1.63-3.057-2.133c-0.89-0.39-1.927-0.64-2.89-0.479c-0.875,0.141-1.668,0.592-2.35,1.142
			c-1.492,1.196-2.719,3.032-4.082,4.362c-1.528,1.537-3.624,2.379-5.508,3.375"/>
	</g>
	<g id="POLYLINE_1960_">
		<path fill="none" stroke="#FB8604" stroke-width="2" stroke-linecap="round" stroke-linejoin="round" stroke-miterlimit="10" d="
			M209.8,385.336c0.315,0.504,0.767,0.946,1.333,1.082c0.563,0.135,1.102,0.001,1.614-0.193c1.136-0.455,2.141-1.194,3.076-1.972
			c1.641-1.396,3.08-3.039,4.271-4.833c1.528-2.294,2.607-4.947,2.752-7.72c0.07-1.345-0.058-2.731-0.573-3.986
			c-0.33-0.8-0.857-1.557-1.597-2.022c-0.924-0.586-2.057-0.721-3.131-0.666c-1.422,0.08-2.82,0.467-4.144,0.978
			c-1.375,0.531-2.695,1.326-3.588,2.522c-1.42,1.889-1.708,4.346-1.814,6.641c-0.071,2.182,0.097,4.392,0.529,6.533
			C208.799,382.951,209.125,384.234,209.8,385.336z"/>
	</g>
	<g id="POLYLINE_1959_">
		<path fill="none" stroke="#FB8604" stroke-width="2" stroke-linecap="round" stroke-linejoin="round" stroke-miterlimit="10" d="
			M231.554,415.044c-0.971-0.102-1.752-0.742-2.238-1.529c-0.767-1.245-1.01-2.743-1.048-4.185c-0.059-3.55,1.307-7.135,3.775-9.696
			c1.253-1.279,2.897-2.325,4.729-2.403c2.12-0.081,4.176,1.154,5.265,2.948c0.725,1.178,0.998,2.616,0.77,3.979
			c-0.252,1.519-0.958,2.929-1.794,4.207c-1.312,1.964-2.992,3.703-4.931,5.054c-0.826,0.565-1.713,1.066-2.667,1.381
			C232.819,414.994,232.183,415.116,231.554,415.044z"/>
	</g>
	<g id="POLYLINE_1958_">
		<path fill="none" stroke="#FB8604" stroke-width="2" stroke-linecap="round" stroke-linejoin="round" stroke-miterlimit="10" d="
			M243.258,416.601c-0.64-1.073-1.15-2.29-1.117-3.56c0.017-1.078,0.527-2.091,1.286-2.821c0.711-0.7,1.592-1.216,2.516-1.582
			c1.308-0.512,2.74-0.732,4.139-0.594c2.201,0.227,4.347,1.36,5.633,3.182c0.71,1.002,1.101,2.227,1.076,3.457
			c-0.042,2.066-0.927,4.133-2.303,5.663c-0.946,1.053-2.314,1.891-3.762,1.805c-1.262-0.055-2.446-0.614-3.48-1.308
			C245.637,419.737,244.276,418.265,243.258,416.601z"/>
	</g>
	<g id="POLYLINE_1957_">
		<path fill="none" stroke="#FB8604" stroke-width="2" stroke-linecap="round" stroke-linejoin="round" stroke-miterlimit="10" d="
			M263.553,433.148c-2.612-0.649-5.942-1.194-8.472-2.081c-1.054-0.39-2.358-0.895-2.984-1.865c-0.399-0.637-0.271-1.4-0.012-2.042
			c0.373-0.916,0.973-1.733,1.567-2.518c1.206-1.54,2.915-3.48,3.991-5.1c0.854-1.222,1.906-3.042,2.944-4.1
			c0.54-0.561,1.186-1.043,1.932-1.285c1.128-0.364,2.364-0.217,3.466,0.172c1.864,0.665,3.436,2.047,4.443,3.74
			c1.375,2.363,1.771,5.175,1.772,7.873c-0.033,2.013-0.276,4.075-1.061,5.945c-0.416,0.978-1.102,1.958-2.176,2.173
			c-0.382,0.087-0.779,0.092-1.168,0.059C266.44,433.994,264.878,433.456,263.553,433.148z"/>
	</g>
	<g id="POLYLINE_1956_">
		<path fill="none" stroke="#FB8604" stroke-width="2" stroke-linecap="round" stroke-linejoin="round" stroke-miterlimit="10" d="
			M297.467,396.674c-1.054-0.642-2.145-1.326-3.331-1.69c-0.647-0.197-1.344-0.293-2.012-0.152
			c-0.936,0.194-1.669,0.841-2.278,1.537c-1.098,1.287-1.889,2.831-2.629,4.344c-0.627,1.418-2.657,5.577-3.136,6.966
			c-0.25,0.716-0.423,1.464-0.49,2.22c-0.099,1.105,0.006,2.232,0.159,3.327c0.147,1.027,0.373,2.134,0.6,3.148
			c0.504,2.118,2.823,11.762,3.356,13.755"/>
	</g>
	<g id="POLYLINE_1955_">
		<path fill="none" stroke="#FB8604" stroke-width="2" stroke-linecap="round" stroke-linejoin="round" stroke-miterlimit="10" d="
			M284.654,389.849c-0.8-1.582-2.39-2.507-3.999-3.079c-2.369-0.828-4.929-1.094-7.414-1.344c-2.403-0.157-7.574-0.817-9.919-0.809
			c-1.456-0.012-2.943,0.094-4.329,0.568c-0.966,0.329-1.869,0.858-2.609,1.563c-1.261,1.208-2.1,2.794-2.707,4.415
			c-0.89,2.451-1.301,5.099-1.112,7.703c0.139,1.904,0.713,3.833,1.977,5.299c1.64,1.936,4.122,2.888,6.545,3.401
			c3.469,0.714,7.076,0.722,10.6,0.519c1.352-0.096,2.809-0.201,4.147-0.417c1.286-0.206,2.566-0.624,3.614-1.419
			c0.925-0.687,1.671-1.593,2.313-2.543c0.865-1.289,1.572-2.697,2.147-4.138c0.762-1.944,1.324-4.005,1.406-6.1
			C285.352,392.239,285.215,390.962,284.654,389.849z"/>
	</g>
	<g id="POLYLINE_1954_">
		<path fill="none" stroke="#FB8604" stroke-width="2" stroke-linecap="round" stroke-linejoin="round" stroke-miterlimit="10" d="
			M297.516,381.216c-0.325-1.139-0.667-2.35-0.602-3.539c0.116-1.774,1.004-3.588,1.412-5.304c0.186-0.758,0.314-1.543,0.272-2.326
			c-0.039-0.911-0.332-1.873-0.858-2.612c-0.493-0.697-1.143-1.179-1.91-1.468c-0.713-0.266-1.486-0.342-2.243-0.36
			c-2.298-0.034-4.885,0.451-7.183,0.417c-1.134-0.016-2.296-0.138-3.348-0.589c-1.101-0.469-2.032-1.259-2.846-2.122
			c-1.355-1.432-2.691-3.416-4.146-4.749c-0.659-0.613-1.406-1.14-2.201-1.563c-2.523-1.335-5.43-1.716-8.249-1.804
			c-2.602-0.053-5.247,0.048-7.804,0.565c-2.814,0.568-5.76,1.847-7.214,4.461c-0.989,1.752-1.349,3.799-1.355,5.793
			c0.014,2.597,0.608,5.236,1.916,7.494c0.811,1.388,1.948,2.58,3.284,3.472c1.68,1.127,3.637,1.796,5.621,2.143
			c3.263,0.629,7.533,0.152,10.856,0.033c2.023-0.057,4.092-0.009,6.054,0.533c4.121,1.149,7.345,4.473,10.846,6.758
			c2.907,1.936,6.542,2.978,9.864,3.976"/>
	</g>
	<g id="POLYLINE_1953_">
		<path fill="none" stroke="#FB8604" stroke-width="2" stroke-linecap="round" stroke-linejoin="round" stroke-miterlimit="10" d="
			M249.439,442.69c-0.665-1.027-0.941-2.288-0.802-3.501c0.158-1.43,0.847-2.798,1.909-3.769c0.825-0.767,1.893-1.227,2.996-1.407
			c1.382-0.231,2.805-0.11,4.178,0.132c2.37,0.431,4.691,1.248,6.932,2.119c2.118,0.847,4.307,1.725,6.267,2.899
			c0.844,0.518,1.678,1.102,2.311,1.873c0.42,0.508,0.734,1.169,0.726,1.821c-0.005,1.052-0.622,1.966-1.356,2.668
			c-0.873,0.825-1.957,1.407-3.08,1.816c-2.829,0.996-5.921,0.972-8.865,0.609c-2.762-0.378-5.525-1.114-7.981-2.46
			C251.427,444.789,250.227,443.904,249.439,442.69z"/>
	</g>
	<g id="POLYLINE_1952_">
		<path fill="none" stroke="#FB8604" stroke-width="2" stroke-linecap="round" stroke-linejoin="round" stroke-miterlimit="10" d="
			M236.485,442.192c-1.388,0.243-2.796-0.109-4.104-0.562c-2.872-1.062-5.504-2.856-7.489-5.194
			c-3.677-4.337-4.074-11.005-0.89-15.725c1.138-1.684,2.772-3.14,4.771-3.667c1.202-0.327,2.481-0.222,3.668,0.119
			c1.94,0.555,3.72,1.602,5.422,2.662c0.972,0.643,6.008,3.82,6.824,4.451c0.46,0.345,0.91,0.72,1.292,1.15
			c0.305,0.344,0.569,0.733,0.729,1.167c0.192,0.505,0.208,1.055,0.111,1.558c-0.113,0.605-0.353,1.182-0.628,1.73
			c-0.995,1.951-2.782,4.114-4.076,5.893c-0.814,1.083-1.691,2.515-2.406,3.677C238.937,440.672,237.983,441.929,236.485,442.192z"
			/>
	</g>
	<g id="POLYLINE_1951_">
		<path fill="none" stroke="#FB8604" stroke-width="2" stroke-linecap="round" stroke-linejoin="round" stroke-miterlimit="10" d="
			M255.184,461.539c-3.108-1.006-6.797-1.05-9.535-3.003c-1.737-1.22-2.732-3.225-3.235-5.241c-0.334-1.389-0.474-2.859-0.202-4.271
			c0.166-0.843,0.546-1.76,1.275-2.231c0.033-0.021,0.066-0.041,0.066-0.041c0.034-0.02,0.068-0.039,0.068-0.039
			c0.034-0.019,0.069-0.036,0.069-0.036c1.017-0.49,2.208-0.259,3.253,0.006c4.683,1.38,9.269,4.507,14.028,5.676
			c1.098,0.297,2.782,0.669,3.833,1.079c0.498,0.194,1.05,0.485,1.388,0.89c0.03,0.036,0.044,0.054,0.044,0.054
			c0.028,0.037,0.042,0.056,0.042,0.056c0.027,0.038,0.04,0.057,0.04,0.057c0.025,0.039,0.038,0.058,0.038,0.058
			c0.416,0.689,0.306,1.492,0.132,2.226c-0.324,1.247-0.945,2.407-1.675,3.461c-0.558,0.79-1.2,1.538-1.957,2.144
			c-0.545,0.434-1.174,0.798-1.87,0.908c-0.702,0.117-1.42-0.024-2.086-0.25C257.694,462.625,256.399,461.926,255.184,461.539z"/>
	</g>
	<g id="POLYLINE_1950_">
		<path fill="none" stroke="#FB8604" stroke-width="2" stroke-linecap="round" stroke-linejoin="round" stroke-miterlimit="10" d="
			M218.426,453.394c1.094,1.001,2.425,2.351,3.572,3.282c1.064,0.882,2.274,1.691,3.446,2.426c3.405,2.103,7.407,4.37,10.543,6.814
			c1.475,1.152,2.879,2.435,3.994,3.945c1.763,2.313,2.84,5.224,4.485,7.612c1.323,1.91,3.175,3.484,5.335,4.362
			c1.479,0.599,3.137,0.83,4.704,0.471c1.201-0.27,2.305-0.877,3.272-1.627c1.224-0.958,2.27-2.16,3.037-3.513
			c0.738-1.328,1.322-2.986,0.84-4.486c-0.379-1.135-1.276-1.943-2.234-2.597c-1.851-1.27-4.995-2.409-7.053-3.346
			c-3.276-1.477-6.449-3.302-9.141-5.701c-3.098-2.698-6.15-7.088-8.702-10.327c-1.578-2.009-3.305-3.97-5.173-5.712
			c-3.117-2.938-6.674-5.521-10.23-7.903"/>
	</g>
	<g id="POLYLINE_1949_">
		<path fill="none" stroke="#FB8604" stroke-width="2" stroke-linecap="round" stroke-linejoin="round" stroke-miterlimit="10" d="
			M217.742,458.902c4.155,5.806,9.019,11.364,13.899,16.573c3.265,3.436,6.712,6.882,10.456,9.795
			c1.688,1.299,3.481,2.514,5.432,3.382c1.868,0.848,3.89,1.349,5.907,1.691l2.678,0.431"/>
	</g>
	<g id="POLYLINE_1948_">
		<path fill="none" stroke="#FB8604" stroke-width="2" stroke-linecap="round" stroke-linejoin="round" stroke-miterlimit="10" d="
			M214.968,471.649c4.224,8.419,10.235,16.012,17.756,21.718c4.871,3.726,10.285,6.852,16.127,8.771"/>
	</g>
	<g id="POLYLINE_1947_">
		<path fill="none" stroke="#FB8604" stroke-width="2" stroke-linecap="round" stroke-linejoin="round" stroke-miterlimit="10" d="
			M217.057,530.174c1.313-1.013,2.833-1.983,3.813-3.343c0.55-0.75,0.919-1.63,1.058-2.55c0.112-0.714,0.116-1.451,0.082-2.172
			c-0.109-2.167-0.712-5.145-0.923-7.309c-0.149-1.567-0.229-3.193,0.204-4.723c0.509-1.839,2.011-3.287,3.267-4.652
			c0.61-0.681,1.223-1.41,1.513-2.291c0.272-0.831,0.162-1.672-0.079-2.475c-0.222-0.726-0.558-1.424-0.926-2.087
			c-1.174-2.121-3.267-4.69-4.731-6.646c-2.913-3.784-5.562-8.56-8.369-12.426"/>
	</g>
	<g id="POLYLINE_1946_">
		<path fill="none" stroke="#FB8604" stroke-width="2" stroke-linecap="round" stroke-linejoin="round" stroke-miterlimit="10" d="
			M246.853,510.36c-2.125-0.288-4.311-0.18-6.395,0.329c-1.877,0.465-3.704,1.282-5.162,2.57c-1.614,1.426-2.802,3.441-2.926,5.621
			c-0.187,2.798,1.69,5.25,3.835,6.844c1.717,1.265,3.793,2.176,5.954,2.157c2.315-0.009,4.492-1.002,6.442-2.174"/>
	</g>
	<g id="POLYLINE_1945_">
		<path fill="none" stroke="#FB8604" stroke-width="2" stroke-linecap="round" stroke-linejoin="round" stroke-miterlimit="10" d="
			M212.972,357.922c-0.956-1.159-0.988-2.718-0.757-4.127c0.234-1.365,0.736-2.682,1.348-3.92c0.838-1.677,1.909-3.248,3.151-4.652
			c3.133-3.515,7.486-5.995,12.156-6.703c2.176-0.302,4.582-0.277,6.484,0.954c0.602,0.395,1.12,0.917,1.511,1.521
			c0.548,0.845,0.863,1.823,1.049,2.807c0.26,1.412,0.261,2.871,0.077,4.293c-0.188,1.405-0.559,2.801-1.186,4.075
			c-0.61,1.245-1.5,2.354-2.576,3.228c-1.377,1.126-3.013,1.9-4.677,2.502c-2.228,0.793-4.581,1.346-6.924,1.665
			c-1.817,0.237-3.677,0.348-5.501,0.136C215.641,359.516,213.977,359.098,212.972,357.922z"/>
	</g>
	<g id="POLYLINE_1944_">
		<path fill="none" stroke="#FB8604" stroke-width="2" stroke-linecap="round" stroke-linejoin="round" stroke-miterlimit="10" d="
			M283.516,290.259c-0.133,2.272-0.036,4.594,0.552,6.801c0.367,1.345,0.938,2.669,1.868,3.723c1.122,1.289,2.768,1.963,4.397,2.354
			c3.107,0.738,6.527,0.655,9.671,1.171c2.522,0.35,5.524,1.32,7.965,0.205c1.438-0.639,2.582-1.874,3.155-3.334
			c0.43-1.072,0.549-2.246,0.502-3.392c-0.071-1.608-0.45-3.2-1.015-4.704c-0.574-1.511-1.348-2.962-2.353-4.23"/>
	</g>
	<g id="POLYLINE_1943_">
		<path fill="none" stroke="#FB8604" stroke-width="2" stroke-linecap="round" stroke-linejoin="round" stroke-miterlimit="10" d="
			M564.327,298.497c-0.187,3.562-0.389,7.881,2.604,10.405c1.543,1.279,3.502,1.945,5.436,2.368c2.557,0.518,5.245,0.652,7.807,0.1
			c0.678-0.157,1.355-0.374,1.963-0.719c0.562-0.313,1.072-0.79,1.403-1.3c0.32-0.483,0.505-0.952,0.676-1.488
			c0.43-1.522,0.817-3.525,1.23-5.065c0.295-1.281,0.543-2.603,0.562-3.92"/>
	</g>
	<g id="POLYLINE_1942_">
		<path fill="none" stroke="#FB8604" stroke-width="2" stroke-linecap="round" stroke-linejoin="round" stroke-miterlimit="10" d="
			M270.033,309.325c-3.019-0.459-5.194-3.019-6.439-5.649c-0.79-1.691-1.36-3.551-1.269-5.434c0.055-0.999,0.35-2.015,1-2.791
			c0.59-0.707,1.415-1.178,2.271-1.49c1.352-0.485,2.817-0.617,4.244-0.518c1.821,0.126,3.626,0.697,5.125,1.751
			c2.101,1.47,3.658,3.729,4.276,6.218c0.197,0.845,0.252,1.736,0.072,2.589c-0.148,0.715-0.464,1.392-0.905,1.973
			c-0.887,1.154-2.142,1.983-3.461,2.568C273.415,309.204,271.701,309.568,270.033,309.325z"/>
	</g>
	<g id="POLYLINE_1941_">
		<path fill="none" stroke="#FB8604" stroke-width="2" stroke-linecap="round" stroke-linejoin="round" stroke-miterlimit="10" d="
			M223.011,299.236c0.519,1.518,1.15,3.043,2.171,4.297c0.56,0.682,1.263,1.271,2.095,1.588c0.851,0.326,1.79,0.352,2.684,0.224
			c1.307-0.194,2.568-0.704,3.663-1.443c0.848-0.581,1.621-1.322,2.08-2.254c0.966-1.989,0.39-4.286-0.245-6.287"/>
	</g>
	<g id="POLYLINE_1940_">
		<path fill="none" stroke="#FB8604" stroke-width="2" stroke-linecap="round" stroke-linejoin="round" stroke-miterlimit="10" d="
			M252.256,313.83c-2.723,1.554-6.132,0.98-8.815-0.381c-2.193-1.127-4.221-2.819-5.297-5.076c-0.568-1.206-0.803-2.582-0.567-3.9
			c0.217-1.257,0.851-2.418,1.713-3.349c1.131-1.224,2.605-2.081,4.126-2.731c2.257-0.942,4.715-1.473,7.165-1.434
			c2.017,0.051,4.236,0.516,5.623,2.095c1.267,1.489,1.494,3.576,1.326,5.459c-0.195,2.006-0.844,3.967-1.852,5.71
			C254.836,311.66,253.714,312.99,252.256,313.83z"/>
	</g>
	<g id="POLYLINE_1939_">
		<path fill="none" stroke="#FB8604" stroke-width="2" stroke-linecap="round" stroke-linejoin="round" stroke-miterlimit="10" d="
			M243.287,327.923c-3.217,1.803-6.62,3.389-10.194,4.338c-1.618,0.394-3.348,0.725-4.997,0.339
			c-4.1-1.035-3.418-7.426-2.872-10.628c0.659-3.516,2.161-7.585,5.749-8.997c1.43-0.544,3.002-0.6,4.51-0.439
			c2.383,0.272,4.702,1.069,6.808,2.207c2.372,1.295,4.698,3.191,5.432,5.9c0.355,1.283,0.286,2.773-0.384,3.934
			C246.44,326.108,244.773,327.045,243.287,327.923z"/>
	</g>
	<g id="POLYLINE_1938_">
		<path fill="none" stroke="#FB8604" stroke-width="2" stroke-linecap="round" stroke-linejoin="round" stroke-miterlimit="10" d="
			M271.545,350.629c-1.016-0.583-2.084-1.362-3.172-1.796c-0.592-0.241-1.223-0.396-1.862-0.443
			c-0.778-0.062-1.565,0.031-2.327,0.19c-3.08,0.687-6.607,2.254-9.628,3.161c-1.692,0.516-3.442,0.975-5.216,1.054
			c-1.022,0.04-2.073-0.057-3.023-0.455c-1.442-0.601-2.529-1.842-3.214-3.22c-0.775-1.572-1.133-3.364-0.968-5.112
			c0.086-0.872,0.327-1.74,0.784-2.492c0.533-0.894,1.312-1.613,2.113-2.265l1.673-1.322c0.886-0.717,1.735-1.512,2.373-2.462
			c0.759-1.133,1.24-2.437,1.667-3.725c0,0,0.987-3.174,0.987-3.174c0.308-0.931,0.641-1.882,1.13-2.735
			c0.381-0.677,0.941-1.346,1.636-1.677c1.044-0.507,2.208-0.423,3.304-0.185c1.908,0.444,3.68,1.371,5.354,2.367
			c4.395,2.679,8.399,6.178,11.149,10.564c1.896,3.036,3.178,6.489,3.585,10.052c0.093,0.92,0.125,1.864-0.016,2.781
			c-0.095,0.612-0.291,1.28-0.693,1.746c-0.035,0.04-0.053,0.059-0.053,0.059c-0.037,0.038-0.055,0.056-0.055,0.056
			c-0.038,0.035-0.057,0.053-0.057,0.053c-0.039,0.033-0.059,0.05-0.059,0.05c-0.617,0.48-1.39,0.446-2.1,0.314
			C273.678,351.768,272.581,351.221,271.545,350.629z"/>
	</g>
	<g id="POLYLINE_1937_">
		<path fill="none" stroke="#FB8604" stroke-width="2" stroke-linecap="round" stroke-linejoin="round" stroke-miterlimit="10" d="
			M176.922,322.974l0.262,1.451c0.379,1.885,0.866,4.03,2.519,5.214c0.832,0.58,1.838,0.782,2.831,0.84
			c1.758,0.084,3.517-0.259,5.208-0.714c3.038-0.85,5.98-2.137,8.701-3.729c2.204-1.311,4.303-2.914,5.815-5.009
			c3.053-4.147,2.719-9.806,1.079-14.454"/>
	</g>
	<g id="POLYLINE_1936_">
		<path fill="none" stroke="#FB8604" stroke-width="2" stroke-linecap="round" stroke-linejoin="round" stroke-miterlimit="10" d="
			M194.929,341.74c-0.541-1.79-0.976-3.646-1.032-5.522c-0.029-1.147,0.093-2.322,0.532-3.391c0.401-1.009,1.146-1.839,2.008-2.483
			c2.941-2.217,7.115-3.066,9.257-6.262c0.827-1.233,1.338-2.659,1.783-4.067c0.71-2.289,1.447-5.137,2.605-7.233
			c1.15-2.138,2.779-4.021,4.69-5.514c1.221-0.935,2.588-1.752,4.101-2.094c0.892-0.205,1.927-0.183,2.733,0.251
			c0.974,0.516,1.618,1.427,2.08,2.397c0.648,1.407,0.936,2.984,0.852,4.53c-0.039,0.629-0.149,1.26-0.371,1.851
			c-0.235,0.635-0.594,1.222-0.998,1.763c-0.78,1.04-1.805,2.069-2.325,3.275c-0.477,1.092-0.576,2.311-0.658,3.487
			c-0.175,2.626-0.068,5.643-1.693,7.864c-0.956,1.291-2.311,2.224-3.645,3.089c-1.784,1.17-3.96,2.268-5.311,3.954
			c-0.89,1.111-1.104,2.564-1.064,3.947c0.069,2.302,0.633,4.825,0.481,7.132c-0.127,2.332-1.016,4.563-2.188,6.56
			c-1.742,2.941-4.098,5.5-6.651,7.756"/>
	</g>
	<g id="POLYLINE_1935_">
		<path fill="none" stroke="#FB8604" stroke-width="2" stroke-linecap="round" stroke-linejoin="round" stroke-miterlimit="10" d="
			M160.746,340.427l4.474,1.164c2.185,0.597,4.364,1.358,6.39,2.372c2.649,1.284,6.641,4.064,9.156,5.67
			c1.599,0.998,3.264,2.03,5.032,2.695c0.745,0.272,1.531,0.489,2.33,0.467c0.758-0.013,1.528-0.301,2.042-0.823
			c0.525-0.523,0.793-1.193,0.909-1.883c0.226-1.489-0.156-3.001-0.648-4.4c-1.128-3.039-2.986-5.797-5.249-8.108
			c-4.265-4.333-10.28-6.534-16.253-7.082"/>
	</g>
	<g id="POLYLINE_1934_">
		<path fill="none" stroke="#FB8604" stroke-width="2" stroke-linecap="round" stroke-linejoin="round" stroke-miterlimit="10" d="
			M149.462,358.345c5.687,2.833,12.82,4.838,18.58,7.519c2.646,1.189,5.459,2.78,8.357,3.182c1.059,0.139,2.158,0.076,3.168-0.284
			c1.17-0.416,2.194-1.171,3.073-2.036c1.129-1.13,2.067-2.48,2.644-3.974c0.312-0.834,0.539-1.791,0.343-2.671
			c-0.161-0.737-0.656-1.329-1.223-1.766c-0.693-0.536-1.501-0.922-2.296-1.284l-3.64-1.564c-6.786-3.093-14.467-7.454-21.694-9.331
			"/>
	</g>
	<g id="POLYLINE_1933_">
		<path fill="none" stroke="#FB8604" stroke-width="2" stroke-linecap="round" stroke-linejoin="round" stroke-miterlimit="10" d="
			M141.473,374.142c4.227,0.99,9.586,1.849,13.707,3.16c3.36,1.007,7.108,2.855,10.449,3.932c1.59,0.489,3.279,0.913,4.949,0.658
			c1.145-0.173,2.197-0.803,2.923-1.701c1.003-1.216,1.428-2.932,0.949-4.452c-0.523-1.627-1.889-2.803-3.241-3.761
			c-3.02-2.056-6.529-3.373-9.94-4.628c-4.621-1.62-9.513-3.408-14.348-4.237"/>
	</g>
	<g id="POLYLINE_1932_">
		<path fill="none" stroke="#FB8604" stroke-width="2" stroke-linecap="round" stroke-linejoin="round" stroke-miterlimit="10" d="
			M135.013,389.704c0.414,0.126,1.252,0.368,1.669,0.482c3.976,1.039,9.039,2.176,12.747,3.872c3.198,1.36,6.54,3.256,9.999,3.817
			c1.357,0.207,2.806,0.138,4.048-0.494c0.977-0.49,1.804-1.244,2.474-2.101c0.721-0.928,1.274-1.99,1.618-3.114
			c0.374-1.244,0.521-2.663,0.02-3.888c-0.405-0.989-1.185-1.729-2.061-2.304c-1.437-0.931-3.103-1.499-4.719-2.036
			c-6.892-2.088-14.215-4.815-21.471-5.049"/>
	</g>
	<g id="POLYLINE_1931_">
		<path fill="none" stroke="#FB8604" stroke-width="2" stroke-linecap="round" stroke-linejoin="round" stroke-miterlimit="10" d="
			M126.341,420.429c2.28,1.199,4.771,1.988,7.292,2.493c3.1,0.613,6.311,0.815,9.465,0.624c2.814-0.202,5.732-0.603,8.223-2.01
			c1.211-0.689,2.269-1.65,3.058-2.8c1.505-2.226,2.18-4.938,2.342-7.596c0.135-2.892-0.374-6.317-2.962-8.047
			c-1.337-0.913-2.933-1.355-4.499-1.692c-1.791-0.374-4.458-0.733-6.228-1.176c-2.183-0.5-6.116-1.876-8.279-2.578
			c-0.637-0.202-1.515-0.463-2.16-0.637"/>
	</g>
	<g id="POLYLINE_1930_">
		<path fill="none" stroke="#FB8604" stroke-width="2" stroke-linecap="round" stroke-linejoin="round" stroke-miterlimit="10" d="
			M124.818,425.972c9.188,4.675,19.1,8.114,29.13,10.462"/>
	</g>
	<g id="POLYLINE_1929_">
		<path fill="none" stroke="#FB8604" stroke-width="2" stroke-linecap="round" stroke-linejoin="round" stroke-miterlimit="10" d="
			M116.939,446.763c1.764,1.475,3.613,2.933,5.633,4.041c2.271,1.262,4.747,2.189,7.227,2.949c4.799,1.427,9.833,2.333,14.853,2.181
			"/>
	</g>
	<g id="POLYLINE_1928_">
		<path fill="none" stroke="#FB8604" stroke-width="2" stroke-linecap="round" stroke-linejoin="round" stroke-miterlimit="10" d="
			M110.372,454.896c4.082,2.645,8.639,4.997,13.035,7.083c4.328,2.038,8.984,4.091,13.488,5.686"/>
	</g>
	<g id="POLYLINE_1927_">
		<path fill="none" stroke="#FB8604" stroke-width="2" stroke-linecap="round" stroke-linejoin="round" stroke-miterlimit="10" d="
			M411.566,295.843c0.674,1.225,1.398,2.496,2.416,3.467c1.517,1.462,3.438,2.439,5.381,3.211c2.957,1.131,6.187,1.765,9.35,1.344
			c4.005-0.536,7.628-2.643,10.674-5.22"/>
	</g>
	<g id="POLYLINE_1926_">
		<path fill="none" stroke="#FB8604" stroke-width="2" stroke-linecap="round" stroke-linejoin="round" stroke-miterlimit="10" d="
			M404.102,300.842c-0.552-0.777-1.393-1.257-2.284-1.537c-1.706-0.521-3.571-0.347-5.237,0.239
			c-1.341,0.477-2.574,1.239-3.676,2.134c-1.217,1-2.308,2.184-3.113,3.542c-0.515,0.881-0.94,1.893-0.964,2.922
			c-0.017,0.686,0.185,1.311,0.565,1.851c0.725,1.016,1.895,1.617,3.068,1.962c2.302,0.674,4.797,0.341,6.876-0.839
			c2.429-1.371,4.367-3.688,5.147-6.378C404.84,303.464,404.893,301.964,404.102,300.842z"/>
	</g>
	<g id="POLYLINE_1925_">
		<path fill="none" stroke="#FB8604" stroke-width="2" stroke-linecap="round" stroke-linejoin="round" stroke-miterlimit="10" d="
			M388.084,297.386c-0.508-0.988-1.405-1.598-2.365-2.058c-1.316-0.609-2.768-0.899-4.21-0.984c-1.989-0.091-4.103,0.16-5.812,1.25
			c-2.038,1.313-3.001,3.823-4.045,5.906c-0.474,0.937-1,1.875-1.703,2.66c-0.604,0.677-1.351,1.221-2.11,1.711
			c-0.697,0.463-1.874,1.078-2.437,1.683c-0.034,0.039-0.045,0.053-0.045,0.053c-0.032,0.039-0.042,0.053-0.042,0.053
			c-0.029,0.04-0.039,0.053-0.039,0.053c-0.027,0.04-0.035,0.053-0.035,0.053c-0.024,0.04-0.031,0.053-0.031,0.053
			c-0.014,0.027-0.021,0.04-0.021,0.04c-0.013,0.027-0.019,0.04-0.019,0.04c-0.011,0.027-0.017,0.04-0.017,0.04
			c-0.01,0.027-0.014,0.041-0.014,0.041c-0.008,0.027-0.012,0.041-0.012,0.041c-0.007,0.027-0.01,0.041-0.01,0.041
			c-0.005,0.027-0.007,0.041-0.007,0.041c-0.004,0.028-0.005,0.042-0.005,0.042c-0.002,0.028-0.003,0.042-0.003,0.042
			c0,0.028,0,0.042,0,0.042c0.001,0.028,0.002,0.042,0.002,0.042c0.003,0.028,0.005,0.043,0.005,0.043
			c0.007,0.038,0.011,0.057,0.011,0.057c0.009,0.038,0.015,0.057,0.015,0.057c0.012,0.038,0.019,0.058,0.019,0.058
			c0.015,0.039,0.024,0.058,0.024,0.058c0.018,0.039,0.028,0.059,0.028,0.059c0.021,0.039,0.032,0.059,0.032,0.059
			c0.024,0.04,0.036,0.059,0.036,0.059c0.336,0.496,0.813,0.813,1.303,1.131c0.882,0.546,1.849,0.974,2.816,1.346
			c1.575,0.592,3.225,1.062,4.891,1.301c1.155,0.161,2.355,0.192,3.488-0.117c1.184-0.312,2.227-1.006,3.14-1.805
			c1.401-1.249,2.679-2.674,3.86-4.131c1.39-1.772,2.732-3.678,3.398-5.852C388.473,299.564,388.579,298.368,388.084,297.386z"/>
	</g>
	<g id="POLYLINE_1924_">
		<path fill="none" stroke="#FB8604" stroke-width="2" stroke-linecap="round" stroke-linejoin="round" stroke-miterlimit="10" d="
			M315.767,288.627c1.309,1.052,2.801,2.204,3.274,3.888c0.252,0.881,0.225,1.817,0.178,2.724l-0.154,2.182
			c-0.095,1.624-0.044,3.38,1.046,4.69c0.966,1.193,2.372,1.93,3.776,2.489c2.68,1.027,5.556,1.502,8.39,1.873
			c2.862,0.348,5.786,0.524,8.668,0.379c1.624-0.096,3.282-0.269,4.833-0.781c1.447-0.453,2.634-1.477,3.945-2.189
			c1.177-0.644,2.519-0.914,3.831-1.13l4.283-0.636c2.134-0.373,4.37-0.813,6.174-2.08c2.819-2.054,3.574-5.73,4.105-8.977"/>
	</g>
	<g id="POLYLINE_1923_">
		<path fill="none" stroke="#FB8604" stroke-width="2" stroke-linecap="round" stroke-linejoin="round" stroke-miterlimit="10" d="
			M500.113,290.23c0.508,2.822,1.529,5.748,3.801,7.631c1.139,0.953,2.504,1.617,3.912,2.068c1.466,0.46,3.022,0.707,4.56,0.592
			c1.052-0.081,2.115-0.368,2.967-1.011c1.298-0.948,2.096-2.537,2.995-3.828c1.168-1.715,2.939-3.11,4.45-4.513"/>
	</g>
	<g id="POLYLINE_1922_">
		<path fill="none" stroke="#FB8604" stroke-width="2" stroke-linecap="round" stroke-linejoin="round" stroke-miterlimit="10" d="
			M491.886,309.535c-0.888-0.118-1.793-0.38-2.554-0.856c-0.844-0.52-1.459-1.314-1.662-2.255c-0.141-0.637-0.101-1.303,0.029-1.938
			c0.197-0.941,0.593-1.838,1.098-2.654c0.853-1.361,2.043-2.547,3.497-3.252c1.645-0.79,3.573-0.956,5.338-0.507
			c1.394,0.353,2.723,1.142,3.516,2.366c1.155,1.734,1.224,4.18-0.008,5.893c-0.813,1.13-2.048,1.88-3.319,2.397
			C495.949,309.464,493.886,309.781,491.886,309.535z"/>
	</g>
	<g id="POLYLINE_1921_">
		<path fill="none" stroke="#FB8604" stroke-width="2" stroke-linecap="round" stroke-linejoin="round" stroke-miterlimit="10" d="
			M487.544,335.8c-0.436-1.649,0.458-3.694,2.108-4.236c1.024-0.332,2.114,0.015,3.02,0.514c0.948,0.534,1.781,1.285,2.398,2.183
			c0.49,0.716,0.84,1.564,0.814,2.444c-0.016,1.489-1.098,2.905-2.563,3.14c-1.065,0.17-2.14-0.205-3.052-0.736
			C489.034,338.366,487.919,337.222,487.544,335.8z"/>
	</g>
	<g id="POLYLINE_1920_">
		<path fill="none" stroke="#FB8604" stroke-width="2" stroke-linecap="round" stroke-linejoin="round" stroke-miterlimit="10" d="
			M531.911,318.212c-0.448,2.428-1.131,4.847-2.236,7.062c-0.935,1.888-2.253,3.624-4.007,4.819
			c-2.663,1.833-5.92,2.964-8.444,5.013c-3.868,3.111-6.725,8.152-9.526,12.2c-1.932,2.756-4.16,5.918-7.669,6.625
			c-1.487,0.287-3.087,0.148-4.453-0.531c-0.772-0.38-1.481-1.007-1.908-1.727c-0.404-0.674-0.593-1.381-0.59-2.141
			c0.004-0.675,0.18-1.342,0.466-1.95c0.989-2.032,2.948-3.948,4.375-5.691c1.35-1.625,2.672-3.359,3.364-5.379
			c1.354-4.103-0.301-8.452-0.983-12.527c-0.318-1.928-0.462-4.736,1.645-5.668c0.985-0.407,2.052-0.339,3.087-0.257
			c3.517,0.326,7.329,1.622,10.859,0.828c0.888-0.208,1.761-0.555,2.487-1.116c0.688-0.532,1.183-1.22,1.409-2.046
			c0.254-0.949,0.167-1.954,0.057-2.919c-0.287-2.391-0.993-5.114,0.253-7.348c0.599-1.107,1.503-2.024,2.488-2.795
			c1.583-1.225,3.408-2.13,5.283-2.817"/>
	</g>
	<g id="POLYLINE_1919_">
		<path fill="none" stroke="#FB8604" stroke-width="2" stroke-linecap="round" stroke-linejoin="round" stroke-miterlimit="10" d="
			M495.391,374.074c-3.033-2.514-2.94-8.995-0.295-11.753c2.75-2.826,8.013-1.838,10.617,0.734c0.9,0.885,1.559,2.016,1.869,3.241
			c0.336,1.311,0.261,2.732-0.256,3.987c-0.652,1.626-2.029,2.85-3.546,3.666c-1.475,0.789-3.14,1.264-4.819,1.261
			C497.709,375.209,496.365,374.875,495.391,374.074z"/>
	</g>
	<g id="POLYLINE_1918_">
		<path fill="none" stroke="#FB8604" stroke-width="2" stroke-linecap="round" stroke-linejoin="round" stroke-miterlimit="10" d="
			M451.112,299.266c0.11,1.787,0.4,3.595,0.85,5.327c0.361,1.362,0.825,2.719,1.506,3.957c0.724,1.327,1.896,2.715,3.503,2.759
			c1.008,0.046,1.959-0.264,2.879-0.633c2.257-0.931,4.678-2.555,6.976-3.387c1.117-0.409,2.308-0.61,3.491-0.703
			c1.945-0.15,4.205-0.093,6.009-0.924c1.814-0.82,3.267-2.268,4.509-3.793c2.183-2.76,3.829-5.981,4.693-9.396"/>
	</g>
	<g id="POLYLINE_1917_">
		<path fill="none" stroke="#FB8604" stroke-width="2" stroke-linecap="round" stroke-linejoin="round" stroke-miterlimit="10" d="
			M438.804,330.54c-1.049-0.143-1.88-0.771-2.601-1.489c-1.112-1.136-1.971-2.512-2.791-3.866c-0.344-0.598-4.508-7.569-4.673-7.97
			c-0.317-0.611-0.613-1.25-0.829-1.905c-0.257-0.778-0.406-1.609-0.318-2.429c0.125-1.286,0.869-2.381,1.768-3.26
			c1.283-1.253,2.849-2.195,4.46-2.965c2.555-1.188,5.338-2.001,8.165-2.099c1.757-0.053,3.602,0.237,5.06,1.277
			c2.05,1.436,3.102,3.89,3.542,6.285c0.437,2.437,0.344,5.006-0.505,7.345c-0.98,2.675-2.734,5.003-4.601,7.124
			c-1.111,1.214-2.329,2.379-3.762,3.205C440.853,330.289,439.806,330.672,438.804,330.54z"/>
	</g>
	<g id="POLYLINE_1915_">
		<path fill="none" stroke="#FB8604" stroke-width="2" stroke-linecap="round" stroke-linejoin="round" stroke-miterlimit="10" d="
			M448.998,362.878c0.821,0.02,1.593-0.438,2.254-0.859c1.204-0.807,2.257-1.835,3.213-2.919c1.641-1.898,3.052-4.055,3.855-6.445
			c0.655-1.955,0.852-4.052,0.694-6.103c-0.25-3.246-1.263-6.415-2.307-9.482c-0.5-1.413-1.059-2.843-1.777-4.161
			c-0.431-0.782-0.926-1.547-1.552-2.188c-0.582-0.607-1.375-1.12-2.203-1.226c-0.877-0.116-1.685,0.121-2.455,0.485
			c-0.881,0.427-1.668,1.033-2.369,1.712c-1.912,1.881-3.281,4.336-3.832,6.964c-0.874,4.474,0.501,9.01,1.893,13.236
			c0.488,1.355,1.442,4.19,1.862,5.538c0.241,0.784,0.673,2.454,0.925,3.233c0.19,0.581,0.427,1.235,0.812,1.696
			c0.024,0.027,0.035,0.041,0.035,0.041c0.036,0.039,0.048,0.052,0.048,0.052c0.037,0.037,0.049,0.049,0.049,0.049
			c0.038,0.035,0.051,0.046,0.051,0.046c0.039,0.033,0.052,0.043,0.052,0.043c0.04,0.031,0.053,0.041,0.053,0.041
			c0.027,0.019,0.041,0.029,0.041,0.029c0.028,0.018,0.041,0.027,0.041,0.027c0.028,0.017,0.042,0.025,0.042,0.025
			c0.029,0.016,0.043,0.024,0.043,0.024c0.029,0.015,0.044,0.022,0.044,0.022c0.03,0.014,0.045,0.02,0.045,0.02
			c0.03,0.012,0.045,0.018,0.045,0.018c0.031,0.011,0.046,0.017,0.046,0.017c0.031,0.01,0.047,0.015,0.047,0.015
			c0.032,0.009,0.048,0.013,0.048,0.013c0.033,0.008,0.049,0.011,0.049,0.011c0.033,0.007,0.05,0.009,0.05,0.009
			c0.034,0.005,0.051,0.008,0.051,0.008c0.034,0.004,0.052,0.006,0.052,0.006C448.98,362.877,448.998,362.878,448.998,362.878z"/>
	</g>
	<g id="POLYLINE_1914_">
		<path fill="none" stroke="#FB8604" stroke-width="2" stroke-linecap="round" stroke-linejoin="round" stroke-miterlimit="10" d="
			M470.878,395.216c-0.034,0.002-0.068,0.003-0.068,0.003c-0.034,0-0.067,0-0.067,0c-0.034-0.001-0.067-0.003-0.067-0.003
			c-0.033-0.002-0.067-0.005-0.067-0.005c-0.033-0.004-0.067-0.008-0.067-0.008c-0.033-0.005-0.066-0.011-0.066-0.011
			c-0.033-0.006-0.066-0.014-0.066-0.014c-0.033-0.008-0.066-0.016-0.066-0.016c-0.033-0.009-0.065-0.019-0.065-0.019
			c-0.033-0.01-0.065-0.022-0.065-0.022c-0.033-0.012-0.065-0.024-0.065-0.024c-0.523-0.208-0.904-0.584-1.249-0.975
			c-0.43-0.501-0.79-1.074-1.117-1.647c-1.276-2.259-2.391-5.322-3.459-7.698c-0.509-1.162-1.092-2.354-1.724-3.453
			c-0.668-1.207-1.732-2.801-2.319-4.043c-0.651-1.321-0.987-2.761-0.701-4.227c0.321-1.656,1.15-3.171,2.008-4.605
			c2.361-3.879,5.963-7.947,8.61-11.644c0.71-0.995,1.357-2.07,1.901-3.165c0.577-1.169,1.264-2.654,2.068-3.682
			c0.935-1.237,2.079-2.322,3.275-3.305c1.281-1.032,2.665-1.978,4.19-2.612c0.894-0.363,1.941-0.648,2.892-0.427
			c0.945,0.224,1.582,0.992,1.967,1.819c0.568,1.234,0.735,2.616,0.78,3.961c0.11,4.314-1.263,8.506-2.888,12.45
			c-1.148,2.812-3.005,6.573-3.951,9.441c-0.26,0.807-0.451,1.647-0.539,2.491c-0.154,1.542-0.074,3.225-0.302,4.759
			c-0.505,3.415-1.745,6.716-3.159,9.851c-0.754,1.603-1.598,3.203-2.661,4.625c-0.63,0.82-1.396,1.709-2.363,2.087
			c-0.038,0.014-0.076,0.026-0.076,0.026c-0.038,0.012-0.076,0.023-0.076,0.023c-0.038,0.01-0.076,0.02-0.076,0.02
			c-0.038,0.009-0.075,0.017-0.075,0.017c-0.038,0.007-0.075,0.013-0.075,0.013c-0.037,0.005-0.075,0.01-0.075,0.01
			C470.916,395.213,470.878,395.216,470.878,395.216z"/>
	</g>
	<g id="POLYLINE_1913_">
		<path fill="none" stroke="#FB8604" stroke-width="2" stroke-linecap="round" stroke-linejoin="round" stroke-miterlimit="10" d="
			M464.376,343.897c-1.302-0.809-1.754-2.335-2.075-3.735c-0.455-2.108-0.553-4.703-0.951-6.822c-0.156-0.84-0.388-1.678-0.75-2.453
			c-0.436-0.957-1.098-1.889-1.691-2.759c-0.493-0.73-0.953-1.504-1.223-2.347c-0.276-0.845-0.362-1.745-0.344-2.63
			c0.031-1.267,0.274-2.538,0.723-3.724c0.635-1.692,1.852-3.396,3.683-3.858c0.959-0.257,1.971-0.246,2.953-0.165
			c2.334,0.194,4.941,0.917,7.292,0.759c0.801-0.054,1.597-0.253,2.315-0.616c1.307-0.637,2.526-1.826,3.622-2.769
			c0.697-0.59,1.436-1.178,2.305-1.49c0.556-0.201,1.135-0.247,1.712-0.164c1.13,0.165,2.171,0.749,3.004,1.516
			c1.098,1.012,1.877,2.441,1.884,3.957c0.012,1.255-0.393,2.475-0.884,3.616c-1.204,2.781-3.392,5.76-4.526,8.572
			c-0.849,2.063-1.014,4.379-1.691,6.492c-0.327,1.007-0.811,1.971-1.452,2.815c-1.066,1.396-2.464,2.516-3.923,3.478
			c-1.713,1.106-3.583,2.021-5.564,2.532C467.374,344.446,465.693,344.658,464.376,343.897z"/>
	</g>
	<g id="POLYLINE_1912_">
		<path fill="none" stroke="#FB8604" stroke-width="2" stroke-linecap="round" stroke-linejoin="round" stroke-miterlimit="10" d="
			M405.198,326.805c-0.75-0.18-1.308-0.696-1.744-1.285c-0.559-0.771-0.914-1.675-1.157-2.591c-0.899-3.471-0.229-7.219,1.473-10.34
			c1.286-2.369,3.096-4.523,5.415-5.933c1.498-0.911,3.272-1.422,5.025-1.126c1.607,0.251,3.085,1.052,4.327,2.082
			c2.164,1.814,3.725,4.314,4.54,7.008c0.337,1.144,0.553,2.347,0.477,3.543c-0.049,0.732-0.234,1.518-0.678,2.108
			c-0.448,0.593-1.08,0.871-1.761,1.061c-0.912,0.256-2.544,0.393-3.499,0.52c-1.021,0.136-2.051,0.331-3.022,0.682
			c-1.036,0.374-2.021,0.919-2.963,1.485c-1.258,0.75-2.834,1.854-4.174,2.431C406.764,326.748,405.939,326.981,405.198,326.805z"/>
	</g>
	<g id="POLYLINE_1911_">
		<path fill="none" stroke="#FB8604" stroke-width="2" stroke-linecap="round" stroke-linejoin="round" stroke-miterlimit="10" d="
			M430.965,329.153c-1.911-1.769-4.562-2.593-7.141-2.52c-2.263,0.058-4.481,0.718-6.539,1.633
			c-2.113,0.962-4.134,2.228-5.736,3.924c-0.652,0.701-1.23,1.49-1.607,2.374c-0.334,0.778-0.507,1.624-0.51,2.471
			c-0.009,1.74,0.655,3.423,1.603,4.86c1.313,1.985,3.364,3.715,4.911,5.512c1.42,1.609,2.528,3.49,3.265,5.505
			c1.061,2.905,1.504,6.154,0.654,9.169c-0.64,2.262-1.958,4.37-3.847,5.793c-0.989,0.757-2.306,1.317-3.254,2.128
			c-0.501,0.434-0.863,0.951-1.033,1.558c-0.266,0.979-0.147,2.01,0.057,2.988c0.279,1.259,0.76,2.478,1.381,3.607
			c0.512,0.915,1.124,1.797,1.905,2.503c0.652,0.589,1.449,1.025,2.31,1.211c1.004,0.223,2.053,0.129,3.047-0.096
			c2.89-0.694,5.539-2.196,8.098-3.665c2.663-1.685,9.245-5.296,11.564-7.274c0.855-0.724,1.657-1.542,2.236-2.507
			c0.337-0.563,0.593-1.181,0.714-1.828c0.14-0.739,0.116-1.504,0.001-2.245c-0.5-3.068-2.52-6.532-3.812-9.345
			c-1.817-3.667-2.939-7.643-3.651-11.663l-1.001-5.786C434.021,334.491,433.293,331.267,430.965,329.153z"/>
	</g>
	<g id="POLYLINE_1910_">
		<path fill="none" stroke="#FB8604" stroke-width="2" stroke-linecap="round" stroke-linejoin="round" stroke-miterlimit="10" d="
			M450.677,395.934c-0.666-0.125-1.295-0.475-1.614-1.051c-0.488-0.896-0.427-1.926-0.381-2.902
			c0.238-2.902,0.947-5.887,2.194-8.525c0.515-1.025,1.156-2.111,2.135-2.746c1.332-0.857,2.953-0.312,4.029,0.648
			c1.194,1.047,1.886,2.522,2.507,3.953c0.27,0.643,1.018,2.499,1.306,3.094c0.234,0.501,0.622,1.235,0.834,1.743
			c0.234,0.55,0.423,1.206,0.273,1.781c-0.165,0.651-0.648,1.087-1.148,1.462c-0.623,0.454-1.324,0.807-2.029,1.113
			c-1.537,0.653-3.167,1.107-4.817,1.369C452.883,396.031,451.76,396.14,450.677,395.934z"/>
	</g>
	<g id="POLYLINE_1909_">
		<path fill="none" stroke="#FB8604" stroke-width="2" stroke-linecap="round" stroke-linejoin="round" stroke-miterlimit="10" d="
			M443.176,396.655c-1.528,0.867-3.218,1.524-4.976,1.694c-1.013,0.089-2.091-0.019-2.968-0.572
			c-0.651-0.405-1.159-0.982-1.582-1.601c-0.611-0.901-1.068-1.92-1.493-2.919c-0.682-1.785-1.812-3.93-1.977-5.848
			c-0.07-0.833,0.09-1.694,0.532-2.41c0.354-0.581,0.831-1.046,1.347-1.478c0.884-0.73,1.891-1.342,2.88-1.918
			c1.808-1.045,4.318-2.299,5.947-3.574c0.486-0.381,0.994-0.867,1.331-1.368c0.34-0.492,0.578-1.032,0.774-1.592
			c0.309-0.901,0.595-2.03,1.369-2.635c0.675-0.554,1.447-0.839,2.27-1.06c0.969-0.246,1.981-0.354,2.98-0.329"/>
	</g>
	<g id="POLYLINE_1908_">
		<path fill="none" stroke="#FB8604" stroke-width="2" stroke-linecap="round" stroke-linejoin="round" stroke-miterlimit="10" d="
			M381.143,403.955c-0.983,0.351-2.025,0.54-3.064,0.623c-1.053,0.078-2.13,0.049-3.163-0.185c-0.606-0.14-1.223-0.365-1.725-0.735
			c-0.448-0.324-0.762-0.778-0.917-1.275c-0.311-1.017-0.118-2.078,0.177-3.071c0.547-1.738,1.491-3.334,2.572-4.791
			c2.919-3.942,7.639-6.957,11.527-9.88c1.46-1.076,3.666-2.947,5.079-4.128c1.153-0.928,2.348-1.891,3.692-2.525
			c0.589-0.276,1.28-0.492,1.926-0.483c0.614,0,1.186,0.222,1.658,0.557c0.994,0.714,1.651,1.803,2.133,2.909
			c1.175,2.801,1.328,6.061-0.015,8.831c-1.191,2.511-3.27,4.496-5.549,6.035c-2.172,1.494-5.06,2.696-7.458,3.805
			c-1.093,0.516-2.205,1.072-3.156,1.825c-0.68,0.529-1.407,1.21-2.127,1.684C382.24,403.482,381.702,403.753,381.143,403.955z"/>
	</g>
	<g id="POLYLINE_1907_">
		<path fill="none" stroke="#FB8604" stroke-width="2" stroke-linecap="round" stroke-linejoin="round" stroke-miterlimit="10" d="
			M344.558,392.353c-0.01-0.028-0.014-0.043-0.014-0.043c-0.008-0.029-0.011-0.044-0.011-0.044c-0.006-0.03-0.008-0.045-0.008-0.045
			c-0.004-0.031-0.005-0.047-0.005-0.047c-0.002-0.032-0.002-0.048-0.002-0.048c0-0.033,0.001-0.049,0.001-0.049
			c0.002-0.034,0.004-0.051,0.004-0.051c0.004-0.034,0.007-0.052,0.007-0.052c0.006-0.035,0.01-0.053,0.01-0.053
			c0.008-0.036,0.013-0.054,0.013-0.054c0.01-0.037,0.016-0.055,0.016-0.055c0.012-0.037,0.018-0.056,0.018-0.056
			c0.014-0.038,0.021-0.057,0.021-0.057c0.293-0.689,0.829-1.206,1.372-1.699c1.041-0.904,2.243-1.627,3.505-2.177
			c4.027-1.833,8.73-0.774,12.935-0.236c2.005,0.258,4.061,0.36,6.061,0.003c1.045-0.163,2.424-0.496,3.471-0.616
			c0.331-0.035,0.732-0.054,1.043,0.026c0.032,0.009,0.048,0.013,0.048,0.013c0.031,0.01,0.046,0.015,0.046,0.015
			c0.03,0.011,0.044,0.016,0.044,0.016c0.029,0.012,0.043,0.018,0.043,0.018c0.027,0.013,0.041,0.019,0.041,0.019
			c0.039,0.021,0.052,0.028,0.052,0.028c0.037,0.023,0.049,0.031,0.049,0.031c0.034,0.026,0.046,0.034,0.046,0.034
			c0.032,0.028,0.042,0.038,0.042,0.038c0.03,0.03,0.039,0.041,0.039,0.041c0.027,0.033,0.036,0.044,0.036,0.044
			c0.025,0.035,0.032,0.048,0.032,0.048c0.022,0.039,0.03,0.052,0.03,0.052c0.014,0.028,0.02,0.043,0.02,0.043
			c0.012,0.029,0.018,0.045,0.018,0.045c0.011,0.031,0.016,0.047,0.016,0.047c0.01,0.032,0.014,0.049,0.014,0.049
			c0.008,0.033,0.012,0.051,0.012,0.051c0.007,0.035,0.01,0.052,0.01,0.052c0.006,0.036,0.008,0.054,0.008,0.054
			c0.004,0.037,0.006,0.056,0.006,0.056c0.043,0.763-0.262,1.494-0.579,2.169c-0.586,1.175-1.398,2.249-2.394,3.106
			c-0.712,0.614-1.555,1.08-2.466,1.318c-1.325,0.355-2.724,0.298-4.074,0.138c-1.879-0.224-4.971-0.909-6.848-1.147
			c-1.443-0.2-2.946-0.279-4.402-0.286c0,0-4.812,0.051-4.812,0.051c-0.652-0.004-1.342-0.015-1.989-0.094
			c-0.365-0.046-0.778-0.119-1.102-0.28c-0.039-0.02-0.058-0.031-0.058-0.031c-0.037-0.022-0.055-0.033-0.055-0.033
			c-0.034-0.023-0.051-0.034-0.051-0.034c-0.032-0.024-0.047-0.036-0.047-0.036c-0.029-0.025-0.043-0.037-0.043-0.037
			c-0.039-0.039-0.051-0.053-0.051-0.053c-0.023-0.027-0.034-0.042-0.034-0.042c-0.02-0.029-0.03-0.043-0.03-0.043
			c-0.018-0.03-0.026-0.045-0.026-0.045C344.571,392.385,344.564,392.369,344.558,392.353z"/>
	</g>
	<g id="POLYLINE_1906_">
		<path fill="none" stroke="#FB8604" stroke-width="2" stroke-linecap="round" stroke-linejoin="round" stroke-miterlimit="10" d="
			M362.637,418.903c-0.633-0.712-0.836-1.621-0.877-2.538c-0.044-1.374,0.288-2.74,0.775-4.017c0.6-1.537,1.454-2.997,2.601-4.191
			c0.555-0.572,1.208-1.095,1.931-1.432c0.673-0.315,1.386-0.462,2.123-0.464c1.802,0.008,3.498,0.843,4.91,1.91
			c1.253,0.973,2.392,2.163,3.109,3.59c0.379,0.773,0.582,1.666,0.394,2.519c-0.189,0.898-0.768,1.66-1.443,2.259
			c-0.9,0.795-1.964,1.399-3.047,1.907c-1.597,0.734-3.305,1.27-5.045,1.531c-1.116,0.159-2.269,0.214-3.379-0.012
			C363.941,419.818,363.138,419.468,362.637,418.903z"/>
	</g>
	<g id="POLYLINE_1905_">
		<path fill="none" stroke="#FB8604" stroke-width="2" stroke-linecap="round" stroke-linejoin="round" stroke-miterlimit="10" d="
			M339.433,418.191c-0.029-0.008-0.043-0.012-0.043-0.012c-0.028-0.01-0.042-0.016-0.042-0.016c-0.027-0.013-0.04-0.02-0.04-0.02
			c-0.039-0.023-0.052-0.031-0.052-0.031c-0.037-0.028-0.049-0.038-0.049-0.038c-0.036-0.032-0.047-0.044-0.047-0.044
			c-0.034-0.037-0.045-0.05-0.045-0.05c-0.022-0.027-0.032-0.041-0.032-0.041c-0.021-0.029-0.031-0.044-0.031-0.044
			c-0.02-0.031-0.03-0.048-0.03-0.048c-0.019-0.033-0.029-0.051-0.029-0.051c-0.018-0.035-0.027-0.054-0.027-0.054
			c-0.018-0.038-0.026-0.057-0.026-0.057c-0.198-0.467-0.236-0.955-0.27-1.451c-0.044-0.864,0.02-1.751,0.115-2.611
			c0.452-3.578,1.415-7.177,3.301-10.279c1.475-2.424,3.677-4.427,6.357-5.419c2.763-1.017,5.809-1.196,8.709-0.764
			c1.178,0.192,2.36,0.497,3.426,1.045c0.761,0.395,1.513,0.964,1.866,1.745c0.52,1.129,0.169,2.45-0.465,3.459
			c-0.56,0.9-1.357,1.645-2.264,2.189c-1.701,1.037-4.229,1.642-6.12,2.27c-1.79,0.581-3.567,1.302-5.135,2.355
			c-2.373,1.588-4.466,4.029-6.422,6.101c-0.412,0.429-0.853,0.883-1.309,1.265c-0.264,0.218-0.576,0.455-0.891,0.564
			c-0.02,0.007-0.04,0.013-0.04,0.013c-0.04,0.011-0.059,0.016-0.059,0.016c-0.038,0.008-0.057,0.012-0.057,0.012
			c-0.037,0.005-0.056,0.007-0.056,0.007c-0.036,0.002-0.054,0.003-0.054,0.003c-0.035-0.001-0.053-0.002-0.053-0.002
			C339.483,418.2,339.466,418.198,339.433,418.191z"/>
	</g>
	<g id="POLYLINE_1904_">
		<path fill="none" stroke="#FB8604" stroke-width="2" stroke-linecap="round" stroke-linejoin="round" stroke-miterlimit="10" d="
			M321.211,417.835c-0.856-0.343-1.337-1.141-1.722-1.921c-0.614-1.317-0.933-2.762-1.163-4.19
			c-0.201-1.312-0.314-2.671-0.321-3.998c-0.001-0.855,0.044-1.728,0.255-2.56c0.154-0.614,0.41-1.206,0.767-1.729
			c0.412-0.609,0.95-1.128,1.53-1.577c1.574-1.19,3.398-2.025,5.219-2.764c2.345-0.92,4.801-1.661,7.297-2.031
			c1.058-0.147,2.148-0.237,3.213-0.123c0.615,0.067,1.285,0.223,1.8,0.562c0.07,0.047,0.107,0.075,0.148,0.107
			c0.039,0.032,0.059,0.048,0.059,0.048c0.038,0.033,0.056,0.05,0.056,0.05c0.036,0.034,0.054,0.051,0.054,0.051
			c0.035,0.035,0.052,0.053,0.052,0.053c0.033,0.036,0.05,0.054,0.05,0.054c0.032,0.037,0.048,0.056,0.048,0.056
			c0.031,0.038,0.045,0.057,0.045,0.057c0.431,0.571,0.525,1.256,0.5,1.941c-0.041,0.845-0.274,1.675-0.572,2.463
			c-0.706,1.837-1.817,3.507-3.161,4.938c-0.623,0.67-1.35,1.347-2.031,1.959c-1.751,1.511-4.426,3.943-6.13,5.532
			c-1.075,0.946-2.187,1.903-3.452,2.587C322.995,417.8,322.04,418.146,321.211,417.835z"/>
	</g>
	<g id="POLYLINE_1903_">
		<path fill="none" stroke="#FB8604" stroke-width="2" stroke-linecap="round" stroke-linejoin="round" stroke-miterlimit="10" d="
			M304.057,417.835c1.024,1.151,2.452,1.883,3.922,2.29c0.939,0.254,1.924,0.378,2.896,0.292c0.768-0.065,1.608-0.302,2.2-0.794
			c0.829-0.692,1.068-1.753,1.135-2.766c0.062-1.079-0.07-2.175-0.241-3.24c-0.482-2.971-1.54-6.398-1.792-9.397
			c-0.126-1.558-0.072-3.217,0.687-4.621c0.972-1.829,3.021-2.65,4.895-3.245c4.559-1.378,10.038-1.919,14.415-3.86
			c4.238-1.816,7.754-5.461,11.81-7.594c1.213-0.63,2.509-1.129,3.847-1.416c1.858-0.398,3.792-0.431,5.685-0.387
			c2.534,0.057,5.876,0.409,8.408,0.31c0.658-0.03,1.336-0.095,1.979-0.242c0.65-0.146,1.343-0.413,1.83-0.854
			c0.529-0.478,0.814-1.059,0.962-1.72c0.254-1.172-0.049-2.572-0.919-3.406c-0.551-0.527-1.273-0.77-2.004-0.909
			c-0.961-0.173-1.962-0.161-2.935-0.125c-5.184,0.372-13.716,0.784-18.781,1.469c-3.759,0.46-7.803,1.245-11.515,2.033
			c-1.255,0.311-19.186,4.202-19.972,4.508c-1.006,0.291-2.018,0.64-2.947,1.129c-0.915,0.48-1.764,1.122-2.383,1.957
			c-1.013,1.376-1.363,3.11-1.563,4.774c-0.367,3.383-0.139,7.545-0.402,10.936c-0.21,3.403-1.014,7.122-0.795,10.537
			C302.587,415.04,303.011,416.657,304.057,417.835z"/>
	</g>
	<g id="POLYLINE_1902_">
		<path fill="none" stroke="#FB8604" stroke-width="2" stroke-linecap="round" stroke-linejoin="round" stroke-miterlimit="10" d="
			M385.124,423.965c-1.811-3.066-3.783-6.491-3.274-10.185c0.181-1.394,0.724-2.719,1.437-3.922c0.949-1.6,2.169-3.045,3.515-4.324
			c1.489-1.387,3.152-2.664,5.057-3.416c0.777-0.291,1.666-0.513,2.487-0.308c1.048,0.273,1.615,1.253,1.886,2.216
			c0.448,1.678,0.291,3.548-0.349,5.157c-0.767,1.975-2.451,3.639-2.719,5.8c-0.167,1.424,0.175,2.862,0.66,4.195
			c0.676,1.802,1.665,3.495,2.908,4.965"/>
	</g>
	<g id="POLYLINE_1901_">
		<path fill="none" stroke="#FB8604" stroke-width="2" stroke-linecap="round" stroke-linejoin="round" stroke-miterlimit="10" d="
			M526.448,402.563c-1.393,0.344-2.824-0.106-4.012-0.838c-1.123-0.692-2.084-1.629-2.911-2.651
			c-1.307-1.626-2.297-3.505-3.009-5.462c-1.332-3.776-1.904-7.845-1.699-11.843c0.06-0.911,0.169-1.84,0.397-2.726
			c0.165-0.623,0.405-1.323,0.848-1.782c0.057-0.057,0.07-0.067,0.093-0.088c0.027-0.023,0.041-0.034,0.041-0.034
			c0.028-0.022,0.041-0.032,0.041-0.032c0.028-0.02,0.042-0.03,0.042-0.03c0.028-0.019,0.042-0.028,0.042-0.028
			c0.029-0.018,0.043-0.026,0.043-0.026c0.029-0.016,0.043-0.024,0.043-0.024c0.029-0.015,0.044-0.022,0.044-0.022
			c0.03-0.014,0.044-0.02,0.044-0.02c0.03-0.012,0.045-0.018,0.045-0.018c0.03-0.011,0.045-0.016,0.045-0.016
			c0.031-0.01,0.046-0.015,0.046-0.015c0.031-0.009,0.046-0.013,0.046-0.013c0.031-0.007,0.047-0.011,0.047-0.011
			c0.031-0.006,0.047-0.009,0.047-0.009c0.032-0.005,0.048-0.007,0.048-0.007c0.032-0.004,0.048-0.005,0.048-0.005
			c0.032-0.002,0.049-0.003,0.049-0.003c0.033-0.001,0.049-0.001,0.049-0.001c0.033,0,0.049,0,0.049,0
			c0.033,0.001,0.05,0.002,0.05,0.002c0.892,0.09,1.59,0.765,2.174,1.347c1.078,1.132,1.936,2.504,2.758,3.829
			c1.332,2.17,2.983,5.158,4.598,7.101c0.651,0.793,1.417,1.498,2.226,2.127c1.045,0.854,2.507,1.654,2.883,3.029
			c0.147,0.548,0.123,1.106,0.038,1.657c-0.115,0.704-0.345,1.391-0.636,2.042c-0.526,1.158-1.254,2.238-2.176,3.117
			C528.238,401.768,527.38,402.336,526.448,402.563z"/>
	</g>
	<g id="POLYLINE_1900_">
		<path fill="none" stroke="#FB8604" stroke-width="2" stroke-linecap="round" stroke-linejoin="round" stroke-miterlimit="10" d="
			M516.657,373.148c-0.039-0.009-0.059-0.014-0.059-0.014c-0.039-0.011-0.059-0.017-0.059-0.017c-0.039-0.013-0.058-0.02-0.058-0.02
			c-0.039-0.015-0.058-0.023-0.058-0.023c-0.039-0.017-0.058-0.026-0.058-0.026c-0.038-0.019-0.057-0.029-0.057-0.029
			c-0.038-0.021-0.057-0.031-0.057-0.031c-0.038-0.022-0.057-0.034-0.057-0.034c-0.846-0.567-1.37-1.604-1.847-2.461
			c-0.669-1.261-1.541-3.18-2.302-4.378c-0.579-0.941-1.489-2.023-2.182-2.893c-0.682-0.867-1.318-1.834-1.486-2.946
			c-0.132-0.846-0.029-1.713,0.142-2.546c0.357-1.672,1.021-3.306,1.69-4.875c0.543-1.162,2.253-5.206,2.859-6.247
			c0.207-0.358,0.475-0.756,0.781-1.01c0.037-0.03,0.049-0.039,0.049-0.039c0.037-0.028,0.049-0.037,0.049-0.037
			c0.037-0.026,0.05-0.034,0.05-0.034c0.038-0.024,0.05-0.032,0.05-0.032c0.038-0.022,0.051-0.029,0.051-0.029
			c0.038-0.02,0.051-0.027,0.051-0.027c0.039-0.018,0.052-0.024,0.052-0.024c0.039-0.016,0.052-0.021,0.052-0.021
			c0.04-0.014,0.053-0.018,0.053-0.018c0.027-0.008,0.04-0.012,0.04-0.012c0.027-0.007,0.04-0.01,0.04-0.01
			c0.027-0.006,0.041-0.009,0.041-0.009c0.027-0.005,0.041-0.007,0.041-0.007c0.028-0.004,0.042-0.005,0.042-0.005
			c0.028-0.003,0.042-0.004,0.042-0.004c0.028-0.002,0.042-0.002,0.042-0.002c0.028,0,0.043,0,0.043,0
			c0.029,0.001,0.043,0.001,0.043,0.001c0.029,0.002,0.043,0.003,0.043,0.003c0.029,0.003,0.044,0.005,0.044,0.005
			c0.029,0.004,0.044,0.007,0.044,0.007c0.038,0.007,0.057,0.011,0.057,0.011c0.038,0.009,0.058,0.014,0.058,0.014
			c0.039,0.011,0.058,0.017,0.058,0.017c0.039,0.013,0.059,0.019,0.059,0.019c0.586,0.221,1.023,0.645,1.439,1.091
			c0.72,0.803,1.297,1.734,1.768,2.702c0.525,1.103,0.937,2.288,1.033,3.512c0.082,1.045-0.11,2.094-0.387,3.099
			c-0.344,1.238-0.848,2.706-0.856,3.995c-0.018,1.059,0.22,2.113,0.485,3.132c0.635,2.511,1.887,5.433,0.833,7.983
			c-0.253,0.63-0.658,1.271-1.146,1.71c-0.374,0.337-0.824,0.59-1.303,0.59c-0.03-0.001-0.045-0.001-0.045-0.001
			c-0.03-0.002-0.045-0.003-0.045-0.003c-0.03-0.003-0.045-0.004-0.045-0.004c-0.03-0.004-0.045-0.006-0.045-0.006
			C516.701,373.156,516.687,373.154,516.657,373.148z"/>
	</g>
	<g id="POLYLINE_1899_">
		<path fill="none" stroke="#FB8604" stroke-width="2" stroke-linecap="round" stroke-linejoin="round" stroke-miterlimit="10" d="
			M535.036,334.096c-2.208,2.487-4.383,5.155-5.546,8.309c-0.781,2.073-1.074,4.319-1.295,6.513
			c-0.28,3.026-0.496,6.716-1.142,9.663c-0.534,2.609-1.954,6.32-2.817,8.871c-0.601,1.901-1.187,3.904-0.969,5.917
			c0.207,1.9,1.266,3.649,2.77,4.81c1.512,1.196,3.414,1.773,5.301,2.029c3.736,0.519,8.527-0.06,12.303-0.249
			c3.215-0.21,6.482-0.002,9.666,0.474"/>
	</g>
	<g id="POLYLINE_1898_">
		<path fill="none" stroke="#FB8604" stroke-width="2" stroke-linecap="round" stroke-linejoin="round" stroke-miterlimit="10" d="
			M515.035,412.737c-5.35,0.346-11.407-1.126-16.665-2.093c-1.554-0.289-3.416-0.53-4.896-1.074
			c-0.596-0.221-1.219-0.542-1.661-0.996c-0.771-0.764-0.875-1.861-0.748-2.875c0.211-1.55,0.856-3.062,1.868-4.259
			c0.467-0.54,1.088-1.044,1.787-1.205c0.937-0.219,1.876,0.072,2.76,0.369c1.357,0.474,2.841,1.109,4.297,1.077
			c2.275-0.059,4.507-1.278,6.635-1.964c1.156-0.377,2.397-0.685,3.615-0.462c0.901,0.166,1.729,0.606,2.469,1.133
			c1.533,1.095,2.917,2.727,4.249,4.053c0.773,0.782,1.628,1.508,2.556,2.101c1.251,0.82,2.974,1.577,4.306,2.266"/>
	</g>
	<g id="POLYLINE_1897_">
		<path fill="none" stroke="#FB8604" stroke-width="2" stroke-linecap="round" stroke-linejoin="round" stroke-miterlimit="10" d="
			M484.134,408.272l-0.482,2.518c-0.29,1.388-0.612,2.815-1.242,4.094c-0.337,0.678-0.795,1.335-1.415,1.779
			c-0.984,0.697-2.189,0.756-3.344,0.722c-2.177-0.1-4.995-0.673-7.171-0.811c-2.105-0.176-4.239-0.036-6.312,0.355
			c-3.805,0.65-7.664,2.072-11.541,2.229c-1.147,0.024-2.327-0.106-3.375-0.597c-0.883-0.412-1.626-1.085-2.207-1.861
			c-0.917-1.238-1.498-2.737-1.627-4.274c-0.072-0.903,0.038-1.927,0.562-2.68c0.646-0.909,1.738-1.217,2.778-1.368
			c2.068-0.283,5.057,0.038,7.165,0.123c1.888,0.087,3.826,0.068,5.708-0.083c2.184-0.18,4.392-0.507,6.487-1.166
			c1.227-0.394,2.447-0.914,3.444-1.747c0.662-0.548,1.209-1.229,1.677-1.947c1.02-1.598,1.952-3.529,2.815-5.226
			c1.524-3.085,3.138-6.584,4.495-9.747c0.463-1.076,1.742-4.332,2.294-5.336c0.408-0.776,0.9-1.525,1.536-2.134
			c1.771-1.722,4.402-1.943,6.753-1.935c2.71,0.036,5.423,0.453,8.058,1.074c2.383,0.578,4.76,1.326,6.954,2.433
			c1.243,0.649,2.586,1.452,3.302,2.684c0.286,0.484,0.405,1.035,0.362,1.556c-0.039,0.529-0.288,1.022-0.588,1.408
			c-0.425,0.539-0.974,0.915-1.571,1.229c-1.287,0.658-2.727,0.971-4.156,1.13c-2.15,0.235-4.34,0.053-6.437-0.466
			c-1.29-0.298-3.198-0.885-4.502-0.976c-0.646-0.05-1.348-0.003-1.94,0.266c-0.706,0.32-1.198,0.886-1.611,1.514
			c-0.523,0.814-0.891,1.727-1.207,2.638c-0.258,0.75-0.497,1.599-0.7,2.368C486.482,398.565,484.578,405.81,484.134,408.272z"/>
	</g>
	<g id="POLYLINE_1896_">
		<path fill="none" stroke="#FB8604" stroke-width="2" stroke-linecap="round" stroke-linejoin="round" stroke-miterlimit="10" d="
			M493.702,432.71c-0.195-0.145-1.687-1.33-1.916-1.511c-0.817-0.631-1.687-1.223-2.618-1.672c-0.793-0.391-1.663-0.671-2.514-0.908
			c-1.042-0.293-2.405-0.616-3.396-1.029c-0.553-0.23-1.174-0.565-1.523-1.043c-0.025-0.035-0.037-0.052-0.037-0.052
			c-0.023-0.035-0.035-0.053-0.035-0.053c-0.022-0.036-0.033-0.054-0.033-0.054c-0.021-0.037-0.031-0.055-0.031-0.055
			c-0.019-0.037-0.028-0.056-0.028-0.056c-0.018-0.038-0.026-0.057-0.026-0.057c-0.317-0.785-0.045-1.606,0.267-2.334
			c0.662-1.436,1.688-2.683,2.762-3.831c1.329-1.373,2.795-2.677,4.494-3.573c0.991-0.512,2.109-0.867,3.235-0.762
			c1.38,0.112,2.558,0.975,3.472,1.962c0.901,0.974,1.624,2.11,2.216,3.295c0.587,1.188,1.053,2.45,1.33,3.747"/>
	</g>
	<g id="POLYLINE_1895_">
		<path fill="none" stroke="#FB8604" stroke-width="2" stroke-linecap="round" stroke-linejoin="round" stroke-miterlimit="10" d="
			M481.177,441.209c-2.194,1.271-4.633,2.125-7.133,2.54c-2.043,0.326-4.178,0.367-6.184-0.193c-2.63-0.725-4.686-2.675-6.401-4.712
			c-0.972-1.151-2.335-2.894-3.41-3.911c-0.772-0.753-1.63-1.438-2.524-2.042c-1.847-1.256-4.324-2.422-6.168-3.683
			c-0.629-0.434-1.254-0.904-1.751-1.489c-0.364-0.428-0.667-0.98-0.612-1.536c0.003-0.029,0.006-0.058,0.006-0.058
			c0.004-0.029,0.009-0.058,0.009-0.058c0.005-0.029,0.011-0.058,0.011-0.058c0.006-0.029,0.013-0.058,0.013-0.058
			c0.008-0.029,0.016-0.058,0.016-0.058c0.196-0.637,0.648-1.088,1.124-1.496c0.641-0.53,1.379-0.948,2.126-1.31
			c1.535-0.729,3.183-1.236,4.849-1.565c1.501-0.288,3.05-0.436,4.575-0.295c2.211,0.189,4.299,1.068,6.202,2.173
			c1.602,0.924,3.686,2.32,5.288,3.238c1.244,0.723,2.64,1.415,3.942,2.033c2.679,1.319,6.401,2.783,8.739,4.635
			c0.744,0.604,1.503,1.4,1.638,2.367c0.129,0.901-0.245,1.75-0.748,2.47C483.854,439.437,482.536,440.403,481.177,441.209z"/>
	</g>
	<g id="POLYLINE_1894_">
		<path fill="none" stroke="#FB8604" stroke-width="2" stroke-linecap="round" stroke-linejoin="round" stroke-miterlimit="10" d="
			M441.556,448.067c1.3,0.112,2.621-0.01,3.896-0.274c1.348-0.284,2.676-0.732,3.894-1.38c1.433-0.757,2.869-1.941,3.204-3.589
			c0.582-2.759-1.68-5.287-4.162-6.138c-2.452-0.892-5.161-0.005-7.224,1.423"/>
	</g>
	<g id="POLYLINE_1893_">
		<path fill="none" stroke="#FB8604" stroke-width="2" stroke-linecap="round" stroke-linejoin="round" stroke-miterlimit="10" d="
			M480.632,461.271c-2.406-0.264-4.902-0.541-7.316-0.246c-1.511,0.168-2.984,0.619-4.391,1.185l-3.39,1.4
			c-2.307,0.933-4.803,1.609-7.305,1.225c-3.224-0.457-6.27-2.167-8.32-4.7c-1.352-1.691-2.259-3.776-2.449-5.941
			c-0.104-1.301,0.101-2.846,1.157-3.723c0.702-0.565,1.561-0.724,2.423-0.777c1.497-0.068,2.999,0.22,4.452,0.556
			c3.161,0.718,6.429,2.111,9.606,2.754c0.904,0.165,1.837,0.234,2.751,0.115c0.978-0.124,1.923-0.47,2.833-0.838
			c1.641-0.681,3.444-1.527,5.202-1.809c2.833-0.471,5.746-0.064,8.507,0.641"/>
	</g>
	<g id="POLYLINE_1892_">
		<path fill="none" stroke="#FB8604" stroke-width="2" stroke-linecap="round" stroke-linejoin="round" stroke-miterlimit="10" d="
			M404.556,408.19c0.023-0.002,0.046-0.005,0.046-0.005c0.023-0.003,0.045-0.007,0.045-0.007c0.023-0.004,0.045-0.009,0.045-0.009
			c0.023-0.005,0.045-0.01,0.045-0.01c0.022-0.006,0.045-0.012,0.045-0.012c0.022-0.007,0.045-0.014,0.045-0.014
			c0.417-0.143,0.715-0.435,0.986-0.746c0.362-0.427,0.658-0.916,0.93-1.405c1.341-2.438,2.259-5.329,3.994-7.533
			c1.167-1.507,2.75-2.63,4.396-3.562c1.559-0.889,3.959-2.137,5.372-3.202c0.708-0.534,1.481-1.185,1.863-1.98
			c0.226-0.463,0.247-0.971,0.089-1.428c-0.156-0.465-0.487-0.848-0.845-1.128c-0.489-0.38-1.044-0.594-1.639-0.725
			c-1.582-0.323-3.225-0.083-4.776,0.292c-2.68,0.681-5.226,1.892-7.519,3.43c-3.743,2.531-7.375,6.511-7.029,11.328
			c0.146,1.881,0.734,3.766,1.821,5.318c0.464,0.629,1.101,1.33,1.915,1.401c0.022,0.001,0.043,0.002,0.043,0.002
			c0.022,0,0.043,0,0.043,0c0.021,0,0.043-0.001,0.043-0.001C404.535,408.191,404.556,408.19,404.556,408.19z"/>
	</g>
	<g id="POLYLINE_1891_">
		<path fill="none" stroke="#FB8604" stroke-width="2" stroke-linecap="round" stroke-linejoin="round" stroke-miterlimit="10" d="
			M420.411,418.971c0.028-0.013,0.056-0.026,0.056-0.026c0.028-0.014,0.055-0.028,0.055-0.028c0.027-0.015,0.055-0.03,0.055-0.03
			c0.027-0.016,0.054-0.032,0.054-0.032c0.797-0.533,1.136-1.473,1.42-2.332c0.55-1.793,0.851-4.303,1.165-6.171
			c0.259-1.527,0.547-3.088,1.149-4.523c0.334-0.808,0.766-1.588,1.231-2.327c0.7-1.113,1.655-2.42,2.053-3.678
			c0.338-1.048,0.42-2.182,0.245-3.269c-0.132-0.809-0.461-1.694-1.075-2.235c-0.853-0.751-2.038-0.627-3.044-0.347
			c-1.057,0.306-2.048,0.826-2.975,1.411c-1.222,0.779-2.356,1.707-3.393,2.718c-3.096,3.057-5.7,7.239-5.339,11.743
			c0.255,2.9,1.905,5.554,4.017,7.493c0.674,0.6,1.419,1.143,2.255,1.493C418.99,419.103,419.767,419.256,420.411,418.971z"/>
	</g>
	<g id="POLYLINE_1890_">
		<path fill="none" stroke="#FB8604" stroke-width="2" stroke-linecap="round" stroke-linejoin="round" stroke-miterlimit="10" d="
			M432.047,420.824c-1.265-0.996-2.772-1.933-3.68-3.293c-0.646-0.937-0.931-2.088-0.88-3.219c0.121-2.431,1.078-4.77,2.2-6.902
			c1.183-2.142,2.652-4.278,4.652-5.73c0.922-0.663,2.016-1.05,3.161-0.963c1.607,0.097,3.165,0.994,4.618,1.615"/>
	</g>
	<g id="POLYLINE_1889_">
		<path fill="none" stroke="#FB8604" stroke-width="2" stroke-linecap="round" stroke-linejoin="round" stroke-miterlimit="10" d="
			M403.078,424.027c-1.648-1.297-3.214-2.938-3.734-5.027c-0.375-1.515-0.012-3.139,0.746-4.48c0.495-0.857,1.209-1.687,2.152-2.013
			c0.978-0.339,1.948,0.133,2.73,0.686c1.867,1.369,3.371,3.402,5.003,5.028c1.783,1.852,4.288,3.421,6.327,4.975"/>
	</g>
	<g id="POLYLINE_1888_">
		<path fill="none" stroke="#FB8604" stroke-width="2" stroke-linecap="round" stroke-linejoin="round" stroke-miterlimit="10" d="
			M355.421,364.726c-0.585,1.355-1.379,2.641-2.466,3.651c-0.894,0.846-1.94,1.526-3.021,2.107
			c-1.519,0.813-3.163,1.478-4.789,2.045c-3.989,1.399-15.646,4.503-17.687-0.704c-0.241-0.655-0.267-1.369-0.205-2.058
			c0.121-1.289,0.518-2.564,0.913-3.792c0.511-1.48,1.27-3.651,1.629-5.152c0.288-1.179,0.515-2.671,0.872-3.827
			c0.4-1.361,1.125-2.564,2.244-3.453c1.351-1.082,2.965-1.795,4.571-2.41c3.762-1.394,7.794-2.238,11.726-3.002
			c4.794-0.851,9.787-1.913,14.674-1.801c3.182,0.013,6.985,0.989,10.109,1.59c1.907,0.366,3.869,0.661,5.811,0.712
			c1.778,0.048,3.586-0.118,5.342-0.397c4.387-0.675,8.806-2.236,13.077-3.411c1.317-0.333,2.682-0.575,4.045-0.536
			c2.534,0.051,4.927,1.167,6.94,2.649c1.995,1.494,3.774,3.443,4.609,5.827c0.698,1.956,0.397,4.052-0.372,5.939
			c-1.14,2.794-3.051,5.217-4.964,7.521c-1.398,1.641-2.864,3.393-4.485,4.816c-1.017,0.891-2.146,1.682-3.403,2.193
			c-2.07,0.837-4.779,1.05-6.564-0.511c-0.644-0.566-1.055-1.343-1.317-2.145c-0.384-1.17-0.539-2.424-0.667-3.645
			c-0.189-1.844-0.287-4.43-0.75-6.205c-0.151-0.576-0.356-1.156-0.682-1.656c-0.712-1.127-1.969-1.644-3.238-1.767
			c-1.619-0.162-3.264,0.115-4.854,0.411c-2.047,0.412-4.932,1.059-6.979,1.281c-1.678,0.206-3.438,0.239-5.128,0.201
			c-2.979-0.049-6.67-0.395-9.598,0.064c-0.753,0.129-1.509,0.325-2.183,0.693C356.834,360.925,356.185,362.975,355.421,364.726z"/>
	</g>
	<g id="POLYLINE_1887_">
		<path fill="none" stroke="#FB8604" stroke-width="2" stroke-linecap="round" stroke-linejoin="round" stroke-miterlimit="10" d="
			M358.126,372.058c-0.13-0.533-0.018-1.041,0.126-1.549c0.224-0.735,0.58-1.43,0.984-2.081c1.264-1.99,3.061-3.759,5.329-4.529
			c1.258-0.439,2.603-0.607,3.927-0.691c2.266-0.121,5.171-0.085,7.403-0.443c2.267-0.324,4.822-1.006,7.105-1.185
			c0.67-0.045,1.357-0.049,2.017,0.087c0.594,0.117,1.181,0.393,1.574,0.825c0.482,0.523,0.715,1.149,0.868,1.815
			c0.319,1.523,0.167,3.108-0.087,4.63c-0.457,2.561-1.302,5.07-2.395,7.428c-0.758,1.587-1.635,3.16-2.843,4.452
			c-0.786,0.834-1.936,1.687-3.13,1.395c-0.532-0.133-0.946-0.412-1.354-0.741c-0.494-0.408-0.935-0.892-1.351-1.378
			c-1.702-1.986-3.282-4.599-5.564-5.972c-2.815-1.667-6.291-0.956-9.383-0.841c-0.899,0.006-2.012,0.02-2.759-0.521
			c-0.04-0.032-0.049-0.04-0.049-0.04c-0.038-0.033-0.047-0.041-0.047-0.041c-0.036-0.034-0.045-0.043-0.045-0.043
			c-0.034-0.036-0.043-0.045-0.043-0.045c-0.032-0.037-0.04-0.047-0.04-0.047c-0.03-0.039-0.038-0.049-0.038-0.049
			c-0.022-0.03-0.029-0.04-0.029-0.04c-0.02-0.031-0.027-0.042-0.027-0.042c-0.019-0.032-0.025-0.043-0.025-0.043
			c-0.018-0.033-0.024-0.044-0.024-0.044c-0.017-0.034-0.022-0.045-0.022-0.045c-0.016-0.035-0.021-0.047-0.021-0.047
			c-0.014-0.036-0.019-0.048-0.019-0.048c-0.013-0.037-0.017-0.049-0.017-0.049C358.137,372.096,358.133,372.084,358.126,372.058z"
			/>
	</g>
	<g id="POLYLINE_1886_">
		<path fill="none" stroke="#FB8604" stroke-width="2" stroke-linecap="round" stroke-linejoin="round" stroke-miterlimit="10" d="
			M303.336,378.537c-0.033-0.035-0.049-0.053-0.049-0.053c-0.031-0.036-0.046-0.054-0.046-0.054
			c-0.03-0.037-0.044-0.055-0.044-0.055c-0.028-0.037-0.042-0.056-0.042-0.056c-0.027-0.038-0.04-0.057-0.04-0.057
			c-0.402-0.615-0.42-1.333-0.367-2.033c0.102-1.169,0.491-2.585,0.648-3.749c0.216-1.332,0.097-2.7-0.124-4.024
			c-0.218-1.5-0.63-3.121-0.218-4.619c0.222-0.81,0.752-1.492,1.384-2.017c1.591-1.295,3.629-1.918,5.627-2.242
			c1.852-0.278,3.773-0.267,5.598,0.179c2.161,0.534,4.208,1.672,5.676,3.361c0.947,1.085,1.621,2.446,1.705,3.899
			c0.082,1.178-0.161,2.358-0.517,3.476c-0.357,1.083-0.786,2.167-1.31,3.18c-0.689,1.334-1.663,2.535-2.893,3.405
			c-1.83,1.3-4.046,1.934-6.228,2.347c-1.927,0.338-3.916,0.498-5.863,0.252C305.222,379.53,304.074,379.276,303.336,378.537z"/>
	</g>
	<g id="POLYLINE_1885_">
		<path fill="none" stroke="#FB8604" stroke-width="2" stroke-linecap="round" stroke-linejoin="round" stroke-miterlimit="10" d="
			M298.174,311.016c-0.557,0.389-0.978,0.931-1.199,1.536c-0.235,0.63-0.293,1.282-0.31,1.946c-0.026,1.702,0.298,4.496,0.387,6.211
			c0.081,1.524,0.12,3.089-0.114,4.601c-0.142,1.042-0.584,2.156-0.956,3.138c-0.222,0.625-0.482,1.384-0.187,2.007
			c0.02,0.04,0.026,0.053,0.026,0.053c0.021,0.039,0.029,0.052,0.029,0.052c0.023,0.039,0.032,0.052,0.032,0.052
			c0.026,0.038,0.034,0.051,0.034,0.051c0.021,0.03,0.034,0.047,0.034,0.047c0.026,0.034,0.04,0.051,0.04,0.051
			c0.028,0.033,0.043,0.05,0.043,0.05c0.481,0.512,1.095,0.768,1.738,0.993c1.097,0.359,2.264,0.506,3.416,0.497
			c1.209-0.02,2.448-0.211,3.535-0.764c0.997-0.506,1.815-1.299,2.549-2.128c0.96-1.071,1.928-2.437,3.242-3.086
			c0.827-0.407,1.767-0.524,2.68-0.509c1.631,0.035,3.256,0.433,4.83,0.838c3.422,0.885,7.304,2.24,10.853,2.241
			c1.398-0.007,2.849-0.255,4.038-1.029c1.139-0.737,1.921-1.911,2.451-3.139c0.906-2.15,1.194-4.547,0.976-6.862
			c-0.156-1.533-0.573-3.081-1.464-4.357c-0.843-1.23-2.128-2.12-3.549-2.554c-2.476-0.765-5.13-0.339-7.634,0.071
			c-2.712,0.448-6.084,1.313-8.824,1.155c-1.176-0.074-2.318-0.432-3.395-0.895c-1.2-0.518-2.677-1.235-3.948-1.505
			c-1.211-0.274-2.468-0.341-3.707-0.287c-1.194,0.057-2.394,0.231-3.542,0.569C299.542,310.28,298.807,310.569,298.174,311.016z"/>
	</g>
	<g id="POLYLINE_1884_">
		<path fill="none" stroke="#FB8604" stroke-width="2" stroke-linecap="round" stroke-linejoin="round" stroke-miterlimit="10" d="
			M329.328,343.099c-0.174,0.888-0.272,1.805-0.2,2.709c0.054,0.65,0.216,1.376,0.628,1.869c0.034,0.039,0.045,0.052,0.045,0.052
			c0.035,0.038,0.047,0.05,0.047,0.05c0.036,0.036,0.048,0.048,0.048,0.048c0.037,0.034,0.05,0.046,0.05,0.046
			c0.359,0.332,0.868,0.418,1.311,0.424c0.491,0.003,0.977-0.092,1.45-0.215c1.603-0.439,3.123-1.205,4.59-1.974
			c4.444-2.307,9.134-5.971,14.041-6.574c2.456-0.335,4.967-0.035,7.402,0.343c6.259,1.038,13.057,2.848,19.416,2.917
			c3.742,0.055,7.539-0.329,11.177-1.218c2.148-0.54,4.291-1.244,6.222-2.346c0.964-0.558,1.877-1.245,2.555-2.138
			c0.623-0.811,1.018-1.777,1.257-2.766c0.567-2.543,0.64-5.213,0.288-7.793c-0.319-2.09-0.978-4.297-2.598-5.751
			c-0.884-0.789-1.987-1.296-3.118-1.619c-1.855-0.523-3.815-0.624-5.734-0.644c-5.125-0.052-11.004,0.757-16.053-0.289
			c-2.377-0.514-4.858-1.781-7.071-2.783c-4.172-1.894-8.766-2.942-13.355-2.906c-2.949,0.057-6.205,0.604-8.3,2.865
			c-1.071,1.131-1.816,2.532-2.433,3.951c-1.161,2.749-2.077,5.864-3.451,8.518c-0.874,1.759-1.913,3.549-2.947,5.219
			c-0.785,1.276-3.37,5.206-4.011,6.517C330.014,340.707,329.567,341.884,329.328,343.099z"/>
	</g>
	<g id="POLYLINE_1883_">
		<path fill="none" stroke="#FB8604" stroke-width="2" stroke-linecap="round" stroke-linejoin="round" stroke-miterlimit="10" d="
			M329.853,333.606c-0.415-1.037-1.423-1.572-2.393-1.947c-1.687-0.611-3.509-0.774-5.291-0.803
			c-3.927-0.019-7.887,0.716-11.495,2.283c-1.748,0.782-3.478,1.751-4.788,3.173c-0.493,0.542-0.942,1.227-1.115,1.932
			c-0.122,0.478-0.11,0.947-0.021,1.424c0.215,1.15,0.936,2.392,1.394,3.463c0.439,0.988,0.787,2.036,0.863,3.12
			c0.194,2.258-0.466,4.698-0.076,6.944c0.114,0.627,0.382,1.286,0.792,1.757c0.486,0.563,1.089,0.896,1.746,1.163
			c0.988,0.387,2.053,0.561,3.108,0.631c1.409,0.086,2.841-0.02,4.224-0.3c2.089-0.435,4.33-1.278,5.474-3.198
			c0.475-0.768,0.776-1.635,1.018-2.501c0.399-1.486,0.775-3.362,1.297-4.804c0.922-2.599,2.7-5.132,4.026-7.539
			c0.458-0.842,0.907-1.717,1.183-2.638C330.005,335.077,330.11,334.272,329.853,333.606z"/>
	</g>
	<g id="POLYLINE_1882_">
		<path fill="none" stroke="#FB8604" stroke-width="2" stroke-linecap="round" stroke-linejoin="round" stroke-miterlimit="10" d="
			M298.411,336.08c-0.422-0.36-0.908-0.613-1.411-0.835c-1.438-0.627-3.471-1.078-4.952-1.6c-0.758-0.276-1.578-0.595-2.158-1.168
			c-0.037-0.039-0.055-0.059-0.055-0.059c-0.753-0.823-0.574-1.969-0.292-2.939c0.468-1.509,1.253-3.053,1.788-4.54
			c0.769-2.058,1.395-4.213,1.753-6.382c0.168-1.042,0.304-2.112,0.215-3.168c-0.062-0.773-0.285-1.581-0.729-2.219
			c-0.526-0.762-1.268-1.207-2.091-1.547c-1.665-0.656-3.484-0.839-5.262-0.868c-2.046-0.01-4.117,0.205-6.081,0.796
			c-1.781,0.5-3.63,1.662-5.48,1.751c-0.946,0.047-1.873-0.232-2.743-0.579c-1.914-0.769-3.872-1.995-5.813-2.697
			c-0.714-0.253-1.467-0.451-2.23-0.433c-0.643,0.008-1.319,0.193-1.874,0.503c-0.839,0.466-1.442,1.136-1.948,1.922
			c-1.009,1.629-1.582,3.664-1.118,5.562c0.189,0.749,0.569,1.451,1.105,2.008c1.099,1.116,2.602,1.688,4.052,2.193
			c2.837,0.946,6.44,1.635,9.268,2.612c1.11,0.385,2.219,0.838,3.222,1.454c1.405,0.845,2.515,2.132,3.212,3.611
			c1.388,2.94,1.531,6.413,2.269,9.541c0.528,2.331,1.472,5.961,1.758,8.294c0.276,1.862,0.22,4.039,0.202,5.926
			c0.015,1.95,0.13,4.187,1.592,5.644c0.774,0.771,1.764,1.177,2.794,1.46c1.763,0.463,3.619,0.534,5.432,0.434
			c2.594-0.172,5.218-0.687,7.569-1.824c1.052-0.528,2.086-1.205,2.755-2.195c0.677-0.997,0.776-2.248,0.59-3.409
			c-0.373-2.327-1.677-4.796-2.563-6.97c-0.372-0.91-0.729-1.86-0.952-2.818c-0.204-0.86-0.31-1.778-0.382-2.66
			C299.698,339.257,299.772,337.23,298.411,336.08z"/>
	</g>
	<g id="POLYLINE_1881_">
		<path fill="none" stroke="#FB8604" stroke-width="2" stroke-linecap="round" stroke-linejoin="round" stroke-miterlimit="10" d="
			M468.233,476.299c-1.429-0.639-2.322-2.247-2.166-3.76c0.114-1.028,0.664-1.958,1.33-2.729c1.277-1.467,3.621-2.913,5.477-1.66
			c0.546,0.374,0.906,0.956,1.037,1.57c0.099,0.453,0.095,0.925,0.036,1.383c-0.209,1.454-0.881,2.84-1.842,3.946
			c-0.456,0.512-1.016,0.962-1.651,1.226C469.738,476.579,468.921,476.601,468.233,476.299z"/>
	</g>
	<g id="POLYLINE_1880_">
		<path fill="none" stroke="#FB8604" stroke-width="2" stroke-linecap="round" stroke-linejoin="round" stroke-miterlimit="10" d="
			M461.027,482.753c-1.687,1.573-3.879,2.53-6.11,3.036c-1.81,0.388-3.735,0.509-5.534,0.004c-0.852-0.242-1.654-0.675-2.3-1.284
			c-0.697-0.65-1.213-1.478-1.579-2.353c-0.616-1.492-0.866-3.121-0.934-4.727c-0.068-1.857,0.272-3.942,1.756-5.21
			c1.274-1.087,3.018-1.37,4.641-1.457c2.04-0.081,4.101,0.211,6.056,0.792c1.499,0.459,2.979,1.093,4.216,2.07
			C464.433,476.123,463.76,480.187,461.027,482.753z"/>
	</g>
	<g id="POLYLINE_1879_">
		<path fill="none" stroke="#FB8604" stroke-width="2" stroke-linecap="round" stroke-linejoin="round" stroke-miterlimit="10" d="
			M472.564,490.293c-0.919,0.658-3.244,2.036-4.236,2.647c-1.406,0.874-2.776,1.86-4.014,2.961
			c-1.392,1.218-3.223,3.033-4.748,4.044c-1.118,0.758-2.642,1.487-3.954,0.84c-0.968-0.48-1.621-1.351-2.133-2.27
			c-0.678-1.265-1.078-2.695-1.083-4.134c-0.009-1.034,0.272-2.164,0.955-2.943c0.5-0.594,1.126-1.017,1.804-1.374
			c1.457-0.78,3.636-1.32,5.217-1.824c1.336-0.415,2.676-0.943,3.741-1.875c1.139-0.952,2.041-2.28,3.144-3.269
			c0.906-0.816,1.992-1.415,3.106-1.898c1.536-0.659,3.175-1.112,4.81-1.45"/>
	</g>
	<g id="POLYLINE_1878_">
		<path fill="none" stroke="#FB8604" stroke-width="2" stroke-linecap="round" stroke-linejoin="round" stroke-miterlimit="10" d="
			M440.48,499.269c1.173,0.708,2.391,1.421,3.722,1.781c0.66,0.174,1.411,0.252,2.058,0.006c1.094-0.431,1.604-1.634,1.877-2.684
			c0.278-1.139,0.314-2.34,0.126-3.497c-0.149-0.901-0.451-1.791-0.976-2.544c-1.464-2.083-4.071-2.878-6.455-3.365"/>
	</g>
	<g id="POLYLINE_1877_">
		<path fill="none" stroke="#FB8604" stroke-width="2" stroke-linecap="round" stroke-linejoin="round" stroke-miterlimit="10" d="
			M450.424,514.343c-0.688-0.491-1.123-1.201-1.248-2.015c-0.113-0.728,0.026-1.483,0.333-2.148
			c0.417-0.913,1.156-1.642,2.012-2.135c1.33-0.767,2.886-1.09,4.411-1.099c1.422,0.003,2.88,0.284,4.117,1.009
			c1.229,0.735,2.297,1.966,2.386,3.437c0.094,2.13-2.213,3.074-3.928,3.546c-1.64,0.426-3.367,0.571-5.053,0.392
			C452.409,515.209,451.293,514.953,450.424,514.343z"/>
	</g>
	<g id="POLYLINE_1876_">
		<path fill="none" stroke="#FB8604" stroke-width="2" stroke-linecap="round" stroke-linejoin="round" stroke-miterlimit="10" d="
			M447.108,523.17c-0.306-0.912-0.455-1.889-0.38-2.851c0.055-0.707,0.288-1.493,0.779-1.995c0.715-0.726,1.754-0.796,2.705-0.755
			c1.209,0.076,2.396,0.4,3.525,0.826c1.129,0.435,2.228,0.986,3.207,1.701c0.878,0.661,2.015,1.706,1.785,2.9
			c-0.009,0.04-0.013,0.053-0.013,0.053c-0.011,0.04-0.015,0.053-0.015,0.053c-0.012,0.04-0.017,0.053-0.017,0.053
			c-0.014,0.039-0.019,0.052-0.019,0.052c-0.016,0.039-0.021,0.052-0.021,0.052c-0.017,0.039-0.023,0.052-0.023,0.052
			c-0.019,0.039-0.025,0.051-0.025,0.051c-0.054,0.104-0.104,0.177-0.154,0.246c-0.543,0.683-1.317,1.038-2.098,1.361
			c-1.254,0.485-2.589,0.764-3.927,0.88c-1.306,0.094-2.786,0.091-3.906-0.663C447.793,524.696,447.38,523.963,447.108,523.17z"/>
	</g>
	<g id="POLYLINE_1875_">
		<path fill="none" stroke="#FB8604" stroke-width="2" stroke-linecap="round" stroke-linejoin="round" stroke-miterlimit="10" d="
			M450.745,538.79c-0.789-0.459-1.23-1.3-1.277-2.163c-0.047-0.685,0.104-1.373,0.352-2.009c0.384-0.976,1.005-1.85,1.727-2.605
			c0.708-0.732,1.53-1.373,2.451-1.812c0.936-0.451,2.117-0.695,3.085-0.243c0.845,0.396,1.424,1.147,1.829,1.961
			c0.595,1.241,0.813,2.704,0.439,4.042c-0.542,1.979-2.601,2.987-4.479,3.316c-0.794,0.138-1.611,0.172-2.411,0.066
			C451.87,539.262,451.257,539.097,450.745,538.79z"/>
	</g>
	<g id="POLYLINE_1874_">
		<path fill="none" stroke="#FB8604" stroke-width="2" stroke-linecap="round" stroke-linejoin="round" stroke-miterlimit="10" d="
			M574.417,536.994c-2.994-0.985-6.226-4.394-4.792-7.71c0.711-1.616,2.125-2.904,3.707-3.653c1.047-0.489,2.333-0.753,3.441-0.364
			c3.153,1.131,4.468,7.166,3.08,9.948c-0.497,1.029-1.462,1.751-2.56,1.981C576.341,537.406,575.339,537.296,574.417,536.994z"/>
	</g>
	<g id="POLYLINE_1873_">
		<path fill="none" stroke="#FB8604" stroke-width="2" stroke-linecap="round" stroke-linejoin="round" stroke-miterlimit="10" d="
			M508.937,428.006c2.6,0.056,5.256-0.003,7.806-0.551c2.043-0.433,4.029-1.2,5.8-2.312c2.948-1.865,5.334-4.518,7.312-7.366
			c2.406-3.518,4.258-7.458,5.237-11.614"/>
	</g>
	<g id="POLYLINE_1872_">
		<path fill="none" stroke="#FB8604" stroke-width="2" stroke-linecap="round" stroke-linejoin="round" stroke-miterlimit="10" d="
			M522.125,460.408c2.877,1.259,6.001,1.939,9.133,2.108c3.048,0.157,6.147-0.168,9.055-1.116c2.503-0.835,4.979-2.116,6.676-4.187
			c0.714-0.884,1.248-1.936,1.427-3.065c0.198-1.243-0.017-2.514-0.287-3.73c-0.395-1.862-1.17-3.936-0.966-5.858
			c0.134-1.314,0.981-2.418,1.997-3.206c2.064-1.575,4.633-2.34,7.149-2.834c1.827-0.369,3.949-0.55,5.448-1.764
			c0.982-0.797,1.577-1.973,1.949-3.161c0.314-1.035,0.469-2.134,0.374-3.215c-0.066-0.745-0.277-1.528-0.715-2.136
			c-0.501-0.707-1.306-1.072-2.107-1.223c-1.778-0.309-3.599,0.105-5.295,0.638c-1.785,0.585-3.502,1.401-5.095,2.395
			c-1.488,0.928-2.89,2.065-4.203,3.226c-1.789,1.572-3.903,3.722-5.971,4.889c-1.183,0.671-2.499,1.089-3.815,1.412l-2.69,0.622
			c-1.072,0.257-2.156,0.58-3.164,1.029c-1.824,0.776-4.24,2.34-5.959,3.368c-2.528,1.544-5.582,2.767-8.328,3.889"/>
	</g>
	<g id="POLYLINE_1871_">
		<path fill="none" stroke="#FB8604" stroke-width="2" stroke-linecap="round" stroke-linejoin="round" stroke-miterlimit="10" d="
			M538.644,496.393c1.816-0.072,3.806,0.15,5.49-0.662c1.014-0.474,1.758-1.356,2.296-2.309c0.733-1.285,1.237-2.72,1.703-4.121
			c1.283-3.9,2.325-8.352,4.39-11.922c1.328-2.312,3.271-4.206,5.311-5.891c2.101-1.744,4.893-3.77,6.492-5.993
			c0.972-1.324,1.649-2.86,2.034-4.454c0.273-1.158,0.41-2.37,0.264-3.556c-0.096-0.758-0.337-1.58-0.861-2.142
			c-0.038-0.039-0.057-0.059-0.057-0.059c-0.082-0.079-0.121-0.111-0.182-0.16c-0.546-0.419-1.206-0.508-1.862-0.499
			c-0.973,0.026-1.938,0.271-2.872,0.53c-0.77,0.215-2.679,0.828-3.452,1.036c-0.804,0.221-2.008,0.48-2.821,0.686
			c-0.765,0.198-1.539,0.436-2.225,0.836c-0.915,0.517-1.549,1.332-1.99,2.251c-0.491,1.006-0.823,2.103-1.126,3.179
			c-0.676,2.402-1.245,5.332-2.414,7.535c-0.688,1.307-1.651,2.481-2.847,3.353c-1.858,1.363-4.154,1.989-6.419,2.233
			c-2.92,0.293-5.931-0.009-8.685-1.045"/>
	</g>
	<g id="POLYLINE_1870_">
		<path fill="none" stroke="#FB8604" stroke-width="2" stroke-linecap="round" stroke-linejoin="round" stroke-miterlimit="10" d="
			M561.538,488.721c-0.708,0.156-1.461,0.136-2.148-0.104c-1.025-0.35-1.826-1.162-2.299-2.077c-0.537-1.031-0.723-2.218-0.68-3.371
			c0.07-1.688,0.631-3.375,1.669-4.716c1.167-1.49,2.908-2.523,4.771-2.849c0.991-0.17,2.036-0.123,2.98,0.238
			c1.703,0.635,2.978,2.251,3.072,4.072c0.051,0.789-0.122,1.58-0.408,2.313c-0.398,1.018-0.999,1.954-1.687,2.801
			c-0.831,1.013-1.809,1.921-2.907,2.639C563.175,488.136,562.385,488.533,561.538,488.721z"/>
	</g>
	<g id="POLYLINE_1869_">
		<path fill="none" stroke="#FB8604" stroke-width="2" stroke-linecap="round" stroke-linejoin="round" stroke-miterlimit="10" d="
			M548.578,515.895c-0.116-4.353,0.862-8.96,3.77-12.325c1.619-1.862,3.727-3.325,6.062-4.135c1.371-0.464,2.862-0.696,4.295-0.412
			c2.692,0.51,4.428,3.093,5.008,5.621c0.358,1.561,0.335,3.251-0.289,4.742c-0.547,1.297-1.5,2.375-2.478,3.367
			c-0.856,0.876-2.119,2-2.838,2.973c-0.585,0.759-0.999,1.654-1.003,2.621c-0.016,2.057,1.086,4.176,1.613,6.14
			c0.328,1.133,0.506,2.323,0.381,3.501c-0.289,2.845-1.8,5.386-3.357,7.719"/>
	</g>
	<g id="POLYLINE_1868_">
		<path fill="none" stroke="#FB8604" stroke-width="2" stroke-linecap="round" stroke-linejoin="round" stroke-miterlimit="10" d="
			M570.552,409.287c-1.174,0.212-2.452,0.299-3.588,0.678c-0.893,0.287-1.723,0.756-2.468,1.322
			c-1.626,1.239-3.588,3.284-5.071,4.726c-2.438,2.353-5.024,4.749-8.212,6.025c-2.364,0.924-5.064,1.333-7.525,0.555
			c-1.265-0.406-2.392-1.223-2.989-2.431c-0.481-0.942-0.666-2.014-0.667-3.066c0.006-1.62,0.421-3.233,1.135-4.683
			c0.86-1.741,2.192-3.217,3.711-4.411c3.893-3.085,9.166-4.501,13.8-6.096c1.315-0.462,2.664-0.978,3.888-1.646
			c1.377-0.731,2.777-1.762,4.045-2.675"/>
	</g>
	<g id="POLYLINE_1867_">
		<path fill="none" stroke="#FB8604" stroke-width="2" stroke-linecap="round" stroke-linejoin="round" stroke-miterlimit="10" d="
			M559.578,310.719c0.698,0.186,1.351,0.606,1.751,1.18c0.383,0.537,0.577,1.162,0.668,1.807c0.128,0.939,0.046,1.9-0.116,2.83
			c-0.409,2.442-1.835,5.62-2.698,7.954c-0.58,1.592-1.073,3.244-1.341,4.919c-0.228,1.396-0.296,2.831-0.255,4.244
			c0.13,3.514,0.768,7.06,2.113,10.319c0.544,1.263,1.968,4.18,3.685,3.169c0.04-0.026,0.06-0.039,0.06-0.039
			c0.04-0.028,0.06-0.042,0.06-0.042c0.04-0.03,0.059-0.046,0.059-0.046c0.039-0.032,0.059-0.049,0.059-0.049
			c0.433-0.388,0.698-0.838,0.969-1.332c1.143-2.163,2.311-6.346,3.125-8.688c0.638-1.838,1.313-3.732,2.326-5.4
			c0.533-0.872,1.162-1.709,1.964-2.352c0.406-0.323,0.861-0.592,1.358-0.748c0.493-0.164,1.092-0.188,1.582-0.078
			c1.516,0.34,2.545,1.599,3.135,2.944c0.365,0.838,0.573,1.744,0.738,2.64c0.354,1.961,0.536,4.432,0.962,6.378
			c0.31,1.385,0.765,2.866,1.805,3.877c1.027,0.991,2.526,1.4,3.927,1.233c1.262-0.139,2.504-0.784,3.27-1.801
			c1.079-1.44,1.387-3.288,1.512-5.043c0.033-0.536,0.045-1.118,0.037-1.655c-0.079-3.838-0.871-7.66-1.927-11.34
			c-0.6-2.113-1.707-5.193-1.973-7.347c-0.087-0.721-0.103-1.461,0.034-2.177c0.341-1.811,1.548-3.3,2.725-4.657"/>
	</g>
	<g id="POLYLINE_1866_">
		<path fill="none" stroke="#FB8604" stroke-width="2" stroke-linecap="round" stroke-linejoin="round" stroke-miterlimit="10" d="
			M585.584,387.09c4.426,1.062,8.704,2.989,12.218,5.91c3.711,3.099,6.501,7.225,8.353,11.671"/>
	</g>
	<g id="POLYLINE_1865_">
		<path fill="none" stroke="#FB8604" stroke-width="2" stroke-linecap="round" stroke-linejoin="round" stroke-miterlimit="10" d="
			M585.441,382.605c4.149-0.456,8.4-0.233,12.485,0.616c3.16,0.666,6.268,1.721,9.091,3.301c4.558,2.531,8.233,6.409,11.166,10.675"
			/>
	</g>
	<g id="POLYLINE_1864_">
		<path fill="none" stroke="#FB8604" stroke-width="2" stroke-linecap="round" stroke-linejoin="round" stroke-miterlimit="10" d="
			M585.299,378.192c4.565-0.98,9.284-1.49,13.95-1.133c3.85,0.282,7.685,1.078,11.376,2.197c4.025,1.231,7.969,2.878,11.615,4.986"
			/>
	</g>
	<g id="POLYLINE_1863_">
		<path fill="none" stroke="#FB8604" stroke-width="2" stroke-linecap="round" stroke-linejoin="round" stroke-miterlimit="10" d="
			M523.445,382.107c2.312-1.857,4.935-3.33,7.707-4.378c3.598-1.367,7.445-2.053,11.27-2.376c5.236-0.397,10.599-0.334,15.746,0.792
			"/>
	</g>
	<g id="POLYLINE_1862_">
		<path fill="none" stroke="#FB8604" stroke-width="2" stroke-linecap="round" stroke-linejoin="round" stroke-miterlimit="10" d="
			M523.943,391.645c2.797-2.005,5.988-3.573,9.091-5.046c3.596-1.635,7.331-3.22,11.179-4.146c4.82-1.122,10.05-0.723,14.963-0.63"
			/>
	</g>
	<g id="POLYLINE_1861_">
		<path fill="none" stroke="#FB8604" stroke-width="2" stroke-linecap="round" stroke-linejoin="round" stroke-miterlimit="10" d="
			M527.787,399.759c4.882-3.959,10.423-7.165,16.299-9.399c5.333-1.983,12.072-3.186,17.653-4.409"/>
	</g>
</g>
<g id="AG-ANIMALS">
	<g id="POLYLINE_240_">
		
			<path fill="none" stroke="#FB8604" stroke-width="2.75" stroke-linecap="round" stroke-linejoin="round" stroke-miterlimit="10" d="
			M290.742,423.15c28.395-1.086,58.104-1.178,86.473,0.446c12.315,0.692,25.051,0.836,37.339-0.238
			c8.64-0.766,17.37-2.133,25.693-4.616"/>
	</g>
	<g id="POLYLINE_269_">
		
			<path fill="none" stroke="#FB8604" stroke-width="2.75" stroke-linecap="round" stroke-linejoin="round" stroke-miterlimit="10" d="
			M543.457,295.906c3.973,1.127,8.68,2.584,12.604,3.875"/>
	</g>
	<g id="POLYLINE_270_">
		
			<path fill="none" stroke="#FB8604" stroke-width="2.75" stroke-linecap="round" stroke-linejoin="round" stroke-miterlimit="10" d="
			M197.61,353.03c-9.337,13.601-18.372,27.852-25.77,42.611c-1.901,3.842-3.858,8.027-5.474,11.986
			c-6.344,15.238-13.824,32.657-21.222,47.398c-6.249,11.763-15.341,22.04-26.342,29.562c-5.164,3.506-15.11,9.901-21.243,6.918
			c-0.77-0.378-1.464-0.909-2.041-1.542c-0.597-0.641-1.058-1.417-1.523-2.155c-1.476-2.431-2.55-5.196-2.607-8.067
			c-0.048-1.984,0.416-3.966,1.277-5.75c2.535-5.08,6.677-9.28,10.827-13.079c2.537-2.313,5.394-4.41,7.758-6.898
			c2.73-2.818,5.088-6.013,6.986-9.447c1.228-2.218,2.28-4.558,3.146-6.94c3.454-10.692,7.645-27.64,10.603-38.51
			c4.579-15.961,11.977-31.143,20.172-45.536c5.757-9.805,12.454-19.237,20.743-27.072c5.959-5.55,12.714-10.297,19.742-14.392
			c7.941-4.572,16.397-8.381,25.096-11.263c14.213-4.642,29.241-7.086,44.082-8.652c24.438-2.397,49.556-4.323,74.117-3.404
			c36.183,1.29,76.036,8.108,112.176,10.439c5.796,0.161,11.669-0.301,17.368-1.372c2.663-0.498,5.44-1.168,8.042-1.927
			c2.629-0.776,5.352-1.747,8.004-2.453c5.693-1.565,11.587-2.629,17.468-3.16c4.476-0.392,9.066-0.541,13.555-0.31
			c4.967,0.266,9.972,1.039,14.851,1.982"/>
	</g>
	<g id="POLYLINE_271_">
		
			<path fill="none" stroke="#FB8604" stroke-width="2.75" stroke-linecap="round" stroke-linejoin="round" stroke-miterlimit="10" d="
			M548.89,302.956c1.79-1.002,3.773-2.17,5.732-2.764c1.506-0.487,3.115-0.804,4.676-1.063c2.939-0.478,6.074-0.757,9.051-0.934
			c5.752-0.278,11.654-0.352,17.344,0.626c3.645,0.618,7.227,1.917,10.669,3.243"/>
	</g>
	<g id="POLYLINE_272_">
		
			<path fill="none" stroke="#FB8604" stroke-width="2.75" stroke-linecap="round" stroke-linejoin="round" stroke-miterlimit="10" d="
			M503.758,419.872c7.555,16.535,28.153,62.712,35.709,78.223c3.832,7.796,8.089,16.314,12.497,23.765
			c3.296,5.395,6.568,11.043,9.178,16.806c1.456,3.203,2.772,6.538,3.778,9.91c0.968,3.569,2.085,7.226,4.402,10.175
			c1.023,1.306,2.3,2.439,3.798,3.168c0.821,0.409,1.72,0.675,2.62,0.845c6.335,1.233,13.006,1.362,19.448,1.407
			c0.083-0.048,18.223,0.035,18.297-0.001c0.185-0.002,0.382-0.009,0.566-0.023c0.682-0.05,1.363-0.188,2.004-0.429
			c3.172-1.181,4.636-4.624,5.295-7.716c0.573-2.725,0.465-5.567-0.122-8.28c-0.298-1.306-0.641-2.649-1.184-3.877
			c-1.877-4.129-6.436-6.032-10.63-6.904c-1.798-0.393-3.765-0.589-5.6-0.776c-3.897-0.439-7.91-0.983-11.715-1.94
			c-1.221-0.314-2.471-0.687-3.637-1.166c-0.563-0.229-1.126-0.493-1.613-0.861c-1.395-1.04-2.364-2.545-3.155-4.07
			c-1.293-2.55-2.137-5.338-2.839-8.101c-0.461-1.705-8.117-38.219-8.653-40.661c-0.593-2.885-1.035-6.026-1.369-8.953
			c-2.348-23.162-0.98-47.553,0.27-70.781"/>
	</g>
	<g id="POLYLINE_273_">
		
			<path fill="none" stroke="#FB8604" stroke-width="2.75" stroke-linecap="round" stroke-linejoin="round" stroke-miterlimit="10" d="
			M450.466,368.154c-3.229,10.851-6.253,22.238-8.21,33.382c-1.251,7.227-2.169,14.652-2.09,21.995
			c-0.001,3.483,0.524,7.361,0.757,10.851c1.137,16.199,0.779,33.282,0.118,49.518c-0.65,18.77-1.56,39.079-0.078,57.763
			c0.402,4.073,0.967,8.22,2.234,12.124c0.723,2.135,1.654,4.309,3.304,5.895c1.069,0.97,2.374,1.665,3.691,2.236
			c2.383,1.006,4.958,1.538,7.517,1.862c1.789,0.221,3.672,0.337,5.475,0.376c0.379-0.01,1.125,0.029,1.503,0.016
			c0,0,22.57,0,22.57,0c1.078-0.002,2.184-0.059,3.252-0.216c2.175-0.317,4.467-1.077,5.875-2.859
			c0.603-0.761,0.998-1.676,1.195-2.625c0.181-0.811,0.188-1.689,0.186-2.518c-0.016-3.077-0.483-6.201-1.718-9.036
			c-0.622-1.42-1.418-2.784-2.45-3.946c-1.039-1.175-2.317-2.139-3.721-2.837c-0.999-0.499-2.067-0.874-3.151-1.139
			c-1.484-0.385-15.801-2.74-17.356-3.156c-1.521-0.404-3.006-1.154-4.019-2.387c-1.415-1.695-1.694-4.023-1.502-6.155
			c0.086-0.992,0.272-2.001,0.507-2.968c4.322-17.208,10.746-47.252,16.498-63.71c3.195-9.461,7.285-18.785,12.486-27.319
			c2.06-3.37,4.351-6.678,6.907-9.692c1.372-1.596,2.844-3.219,4.461-4.574c3.015-2.546,6.496-4.522,10.067-6.177
			c5.523-2.543,11.425-4.341,17.307-5.844c10.688-2.893,21.273-7.172,29.916-14.23"/>
	</g>
	<g id="POLYLINE_274_">
		
			<path fill="none" stroke="#FB8604" stroke-width="2.75" stroke-linecap="round" stroke-linejoin="round" stroke-miterlimit="10" d="
			M561.117,391.43c2.006,3.301,4.772,6.366,8.475,7.724c1.872,0.697,3.88,1.021,5.872,1.09c1.981,0.06,3.99-0.126,5.906-0.642
			c1.927-0.524,3.823-1.419,4.955-3.135c0.903-1.312,1.314-2.973,1.757-4.485"/>
	</g>
	<g id="POLYLINE_275_">
		
			<path fill="none" stroke="#FB8604" stroke-width="2.75" stroke-linecap="round" stroke-linejoin="round" stroke-miterlimit="10" d="
			M589.192,311.422l2.37-2.453c1.199-1.271,2.342-2.64,3.272-4.121c1.184-1.816,2.82-5.564,3.785-7.547
			c1.131-2.322,2.401-4.636,3.988-6.681c1.195-1.547,2.586-2.957,4.105-4.187c1.683-1.351,3.542-2.542,5.586-3.262
			c1.157-0.396,2.41-0.649,3.63-0.433c1.18,0.202,2.16,0.955,2.829,1.916c1.006,1.444,1.461,3.199,1.708,4.921
			c0.526,3.837-0.153,7.735-0.954,11.487c-0.745,3.304-2.017,8.553-2.463,11.854c-0.351,2.484-0.517,5.101-0.598,7.61
			c-0.162,5.786,0.013,13.973-0.618,19.689c-0.668,6.497-1.966,13.018-4.39,19.1c-0.872,2.159-1.913,4.282-3.181,6.238
			c-1.16,1.79-2.547,3.46-4.023,4.996c-1.916,2.04-4.535,4.156-6.447,6.197c-1.169,1.267-2.139,2.789-3.125,4.196"/>
	</g>
	<g id="POLYLINE_276_">
		
			<path fill="none" stroke="#FB8604" stroke-width="2.75" stroke-linecap="round" stroke-linejoin="round" stroke-miterlimit="10" d="
			M553.849,377.651c-3.217-3.187-6.401-6.535-8.997-10.255c-2.034-2.903-3.73-6.07-4.941-9.403
			c-3.853-10.781-4.334-24.162-6.93-35.271c-2.03-9.039-5.551-19.91-5.592-29.2c-0.015-2.034,0.064-4.115,0.561-6.096
			c0.279-1.055,0.712-2.223,1.59-2.903c0.731-0.564,1.671-0.546,2.505-0.323c1.237,0.339,2.349,1.037,3.373,1.792
			c2.644,1.975,4.743,4.6,6.479,7.386c1.64,2.63,3.521,5.926,5.635,8.174c3.426,3.732,7.657,6.674,12.045,9.166"/>
	</g>
	<g id="POLYLINE_277_">
		
			<path fill="none" stroke="#FB8604" stroke-width="2.75" stroke-linecap="round" stroke-linejoin="round" stroke-miterlimit="10" d="
			M557.288,371.362c-1.718,2.17-3.125,4.658-3.724,7.378c-0.332,1.508-0.403,3.086-0.127,4.608c0.279,1.559,0.929,3.058,1.91,4.304
			c1.429,1.826,3.513,3.03,5.69,3.751c2.534,0.828,5.245,1.117,7.901,0.919c1.85-0.114,3.696-0.747,5.516-1.046
			c1.07-0.171,2.166-0.166,3.241-0.047c3,0.326,6.208,1.132,9.238,0.903c1.219-0.095,2.452-0.382,3.5-1.032
			c1.452-0.9,2.479-2.355,3.157-3.9c0.984-2.292,1.354-4.88,0.942-7.346c-0.259-1.496-0.897-2.919-1.797-4.139
			c-1.086-1.485-2.515-2.696-3.985-3.785"/>
	</g>
	<g id="POLYLINE_278_">
		
			<path fill="none" stroke="#FB8604" stroke-width="2.75" stroke-linecap="round" stroke-linejoin="round" stroke-miterlimit="10" d="
			M581.559,372.5c-0.603-0.616-1.332-1.03-2.113-1.367c-1.107-0.468-2.296-0.741-3.483-0.912c-2.524-0.345-5.121-0.26-7.617,0.248
			c-1.506,0.325-3.029,0.795-4.302,1.687c-3.072,2.172-2.604,5.78-1.024,8.744c0.806,1.516,1.878,2.899,3.145,4.057
			c0.979,0.888,2.092,1.657,3.328,2.14c5.586,2.186,10.956-3.545,12.725-8.374c0.386-1.085,0.636-2.244,0.554-3.4
			C582.71,374.292,582.281,373.22,581.559,372.5z"/>
	</g>
	<g id="POLYLINE_279_">
		
			<path fill="none" stroke="#FB8604" stroke-width="2.75" stroke-linecap="round" stroke-linejoin="round" stroke-miterlimit="10" d="
			M194.929,341.74c4.303,18.305,9.067,37.526,15.198,55.286c1.873,5.267,4.028,10.614,5.432,16.022
			c1.879,6.94,3.054,14.149,3.449,21.329c0.396,7.003-0.02,14.174-0.816,21.137c-0.926,7.642-2.464,15.338-5.519,22.436
			c-0.918,2.041-1.944,4.127-2.714,6.232c-1.323,3.534-2.285,7.251-2.522,11.026c-0.187,2.658,0.07,5.367,0.674,7.961
			c1.072,4.91,2.605,9.859,4.248,14.607c3.679,10.325,7.914,20.814,12.945,30.556c1.748,3.318,3.631,6.664,6.046,9.548
			c1.266,1.496,2.695,2.91,4.42,3.868c0.708,0.391,1.497,0.68,2.254,0.959c2.195,0.779,4.515,1.232,6.837,1.393
			c0.432,0.084,18.113,0.088,19.178,0.072c2.09-0.005,4.243-0.103,6.311-0.41c1.669-0.252,3.344-0.635,4.895-1.314
			c0.996-0.44,1.949-1.015,2.724-1.786c1.54-1.592,2.391-3.781,2.562-5.973c0.206-2.684-0.473-5.363-1.433-7.85
			c-0.798-1.983-1.939-3.971-3.788-5.139c-0.463-0.295-0.976-0.51-1.491-0.696c-1.312-0.473-2.699-0.784-4.071-1.022
			c-1.852-0.316-3.832-0.51-5.708-0.632c-1.493-0.078-3.024-0.18-4.484-0.507c-2.676-0.56-5.303-1.81-7.053-3.964
			c-0.998-1.22-1.712-2.653-2.305-4.106c-0.917-2.282-1.552-4.708-2.068-7.11c-0.691-3.427-1.34-6.975-1.373-10.478
			c-0.04-3.46,0.487-6.956,1.743-10.189c0.522-1.348,1.176-2.668,1.931-3.9c0.611-1.043,11.471-16.599,12.124-17.633
			c1.062-1.626,2.159-3.51,3.11-5.207c5.85-10.506,12.482-25.212,17.59-36.215c3.253-7.199,7.702-17.122,10.607-24.442
			c0.343-0.866,0.671-1.806,0.949-2.696c1.289-4.154,1.981-8.525,2.396-12.848c0.586-6.202,0.566-12.614,0.308-18.837"/>
	</g>
</g>
<g id="AG-OUTLINE">
	<g id="POLYLINE_55_">
		
			<path fill="none" stroke="#FB8604" stroke-width="3.5" stroke-linecap="round" stroke-linejoin="round" stroke-miterlimit="10" d="
			M503.758,419.872c8.586,18.752,28.767,64.264,37.56,82.001c3.613,7.228,7.614,15.05,11.815,21.931
			c2.711,4.437,5.324,9.121,7.533,13.829c1.737,3.714,3.297,7.595,4.428,11.538c0.896,3.376,2.055,6.795,4.228,9.58
			c1.023,1.306,2.3,2.439,3.798,3.168c0.821,0.409,1.72,0.675,2.62,0.845c6.335,1.233,13.006,1.362,19.448,1.407
			c0.083-0.048,18.223,0.035,18.297-0.001c0.212-0.002,0.435-0.011,0.646-0.029c0.68-0.057,1.357-0.201,1.994-0.449
			c3.13-1.209,4.57-4.62,5.226-7.69c0.573-2.725,0.465-5.567-0.122-8.28c-0.298-1.306-0.641-2.649-1.184-3.877
			c-1.877-4.129-6.436-6.032-10.63-6.904c-1.798-0.393-3.765-0.589-5.6-0.776c-3.897-0.439-7.91-0.983-11.715-1.94
			c-1.221-0.314-2.471-0.687-3.637-1.166c-0.563-0.229-1.126-0.493-1.613-0.861c-1.395-1.04-2.364-2.545-3.155-4.07
			c-1.293-2.55-2.137-5.338-2.839-8.101c-0.427-1.555-8.126-38.257-8.64-40.6c-0.646-3.152-1.117-6.552-1.462-9.751
			c-2.213-22.977-0.909-47.022,0.351-70.044c2.971,0.758,6.123,0.817,9.131,0.237c1.646-0.34,3.312-0.867,4.668-1.89
			c0.673-0.513,1.237-1.166,1.665-1.895c0.733-1.225,1.115-2.74,1.515-4.102c0.841-0.161,1.667-0.447,2.392-0.906
			c0.903-0.568,1.648-1.364,2.235-2.25c1.5-2.31,2.13-5.149,1.955-7.883c0.951-1.361,1.884-2.82,2.992-4.049
			c1.672-1.817,4.14-3.876,5.886-5.637c1.743-1.74,3.377-3.635,4.717-5.703c1.581-2.442,2.804-5.122,3.798-7.851
			c2.222-6.191,3.401-12.758,3.935-19.302c0.558-6.541,0.169-15.156,0.654-21.709c0.361-6.551,2.694-13.552,3.673-20.017
			c0.437-3.093,0.544-6.316-0.328-9.344c-0.534-1.827-1.583-3.802-3.491-4.444c-1.018-0.339-2.122-0.258-3.153-0.019
			c-1.504,0.357-2.918,1.049-4.23,1.854c-1.778,1.103-3.408,2.459-4.853,3.97c-3.615,3.708-5.695,8.77-7.902,13.375
			c-3.211-1.229-6.617-2.486-9.995-3.118c-3.482-0.684-7.1-0.882-10.643-0.927c-3.768-0.035-7.646,0.126-11.398,0.477
			c-2.744,0.272-5.586,0.623-8.265,1.284c-3.925-1.292-8.631-2.748-12.604-3.875c-1.32-2.138-2.795-4.633-4.442-6.514
			c-1.585-1.813-3.397-3.506-5.543-4.631c-1.126-0.568-2.634-1.075-3.783-0.342c-0.894,0.603-1.301,1.59-1.616,2.57
			c-0.481,1.617-0.62,3.329-0.674,5.008c-5.128-0.97-10.354-1.796-15.559-2.017c-4.811-0.192-9.71,0.006-14.497,0.509
			c-5.504,0.587-11.014,1.647-16.344,3.143c-2.286,0.632-4.575,1.423-6.83,2.115c-2.573,0.774-5.241,1.439-7.874,1.962
			c-4.458,0.884-9.028,1.398-13.571,1.527c-2.592,0.075-5.271,0.02-7.858-0.15c-21.138-1.651-55.646-5.963-76.75-8.026
			c-13.672-1.277-28.248-2.355-41.968-2.508c-17.48-0.115-35.888,1.091-53.319,2.59c-18.225,1.633-36.971,3.835-54.417,9.493
			c-8.274,2.681-16.396,6.263-24.003,10.478c-7.738,4.349-15.207,9.493-21.693,15.569c-8.194,7.791-14.839,17.156-20.547,26.876
			c-4.256,7.346-8.283,15.244-11.79,22.974c-3.581,7.998-6.825,16.392-9.014,24.883c-2.331,8.862-6.758,25.717-9.364,34.401
			c-0.475,1.493-1.083,3.09-1.699,4.53c-1.64,3.818-3.793,7.441-6.406,10.674c-1.401,1.735-2.976,3.406-4.622,4.912
			c-1.837,1.655-3.958,3.309-5.783,4.979c-2.63,2.379-5.183,4.933-7.382,7.721c-1.424,1.829-2.764,3.79-3.699,5.919
			c-0.829,1.922-1.177,4.053-0.967,6.138c0.284,2.941,1.566,5.702,3.199,8.133c0.85,1.331,2.074,2.426,3.573,2.964
			c1.724,0.636,3.62,0.584,5.404,0.251c3.087-0.597,5.992-1.947,8.742-3.437c4.251-2.36,8.311-5.182,12.079-8.251
			c8.238-6.721,15.104-15.101,20.211-24.418c0.805-1.461,1.704-3.219,2.424-4.722c4.295-8.995,9.19-19.806,13.136-28.954
			c2.623-5.966,7.291-17.814,10.115-23.515c7.667-15.921,17.3-31.155,27.285-45.712c3.473,14.04,7.378,28.97,12.039,42.615
			c1.138,3.354,2.581,7.069,3.751,10.378c1.303,3.791,2.461,7.866,3.326,11.776c1.545,6.973,2.37,14.174,2.433,21.316
			c0.019,7.737-0.647,15.596-1.98,23.218c-0.825,4.547-1.966,9.103-3.614,13.424c-1.168,3.093-2.811,6.042-3.883,9.175
			c-1.14,3.199-1.972,6.546-2.223,9.939c-0.226,2.768,0.019,5.593,0.651,8.296c1.743,7.936,4.578,15.829,7.51,23.402
			c3.22,8.139,6.758,16.508,10.983,24.175c1.761,3.14,3.715,6.26,6.289,8.804c0.926,0.899,1.951,1.723,3.101,2.317
			c2.144,1.029,4.482,1.668,6.831,2.016c1.125,0.162,2.293,0.256,3.429,0.281c0.177-0.012,0.531,0.019,0.708,0.008
			c0,0,17.077,0,17.077,0c2.542-0.007,5.14-0.144,7.637-0.641c2.048-0.421,4.131-1.075,5.779-2.406
			c0.758-0.607,1.35-1.399,1.825-2.241c1.632-2.847,1.533-6.326,0.685-9.409c-0.55-2.004-1.285-4.007-2.506-5.706
			c-0.623-0.859-1.391-1.632-2.312-2.169c-0.416-0.247-0.874-0.432-1.328-0.598c-1.199-0.434-2.468-0.73-3.722-0.96
			c-2.28-0.411-4.683-0.623-6.996-0.748c-2.594-0.14-5.235-0.632-7.531-1.894c-1.265-0.695-2.402-1.643-3.281-2.791
			c-1.373-1.818-2.216-3.981-2.912-6.133c-0.838-2.659-1.426-5.475-1.892-8.222c-0.452-2.63-0.788-5.343-0.725-8.015
			c0.066-4.918,1.419-9.86,4.188-13.952c2.86-4.184,8.374-12.142,11.271-16.32c0.882-1.303,1.804-2.848,2.597-4.215
			c3.723-6.512,7.352-14.022,10.6-20.802c4.383-9.41,11.309-24.341,15.324-33.799c28.395-1.086,58.104-1.178,86.473,0.446
			c12.402,0.707,25.124,0.83,37.506-0.253c8.584-0.772,17.258-2.131,25.526-4.601c-0.104,2.591-0.128,5.298,0.028,7.879
			c0.134,2.076,0.42,4.697,0.576,6.79c2.091,27.108-0.527,54.992-0.666,82.135c0.02,9.588-0.016,19.675,1.118,29.197
			c0.543,3.981,1.24,8.057,2.961,11.719c0.507,1.044,1.122,2.054,1.92,2.902c0.462,0.5,1.02,0.916,1.59,1.285
			c1.858,1.197,3.977,1.945,6.117,2.456c3.272,0.769,6.682,1.019,10.036,1.061c0.904-0.008,23.839,0.039,24.581-0.025
			c1.137-0.056,2.294-0.187,3.401-0.458c1.267-0.31,2.514-0.812,3.534-1.639c0.922-0.74,1.607-1.761,1.956-2.89
			c0.426-1.31,0.379-2.728,0.348-4.088c-0.083-2.412-0.46-4.842-1.288-7.114c-0.722-1.964-1.756-3.852-3.217-5.364
			c-1.656-1.728-3.84-2.887-6.141-3.498c-0.817-0.294-15.737-2.812-16.974-3.074c-0.493-0.101-0.991-0.232-1.468-0.395
			c-1.196-0.408-2.335-1.061-3.177-2.016c-0.874-0.978-1.379-2.242-1.571-3.529c-0.197-1.296-0.122-2.625,0.075-3.917
			c0.076-0.488,0.182-1.034,0.294-1.515c0,0,0.075-0.316,0.075-0.316l8.208-34.035c4.755-19.854,10.292-40.088,21.138-57.583
			C496.579,428.117,499.822,423.62,503.758,419.872z"/>
	</g>
</g>
</svg>
