<?xml version="1.0" encoding="utf-8"?>
<!-- Generator: Adobe Illustrator 24.2.0, SVG Export Plug-In . SVG Version: 6.00 Build 0)  -->
<!DOCTYPE svg PUBLIC "-//W3C//DTD SVG 1.1//EN" "http://www.w3.org/Graphics/SVG/1.1/DTD/svg11.dtd" [
	<!ENTITY ns_flows "http://ns.adobe.com/Flows/1.0/">
	<!ENTITY ns_extend "http://ns.adobe.com/Extensibility/1.0/">
	<!ENTITY ns_ai "http://ns.adobe.com/AdobeIllustrator/10.0/">
	<!ENTITY ns_graphs "http://ns.adobe.com/Graphs/1.0/">
	<!ENTITY ns_vars "http://ns.adobe.com/Variables/1.0/">
	<!ENTITY ns_imrep "http://ns.adobe.com/ImageReplacement/1.0/">
	<!ENTITY ns_sfw "http://ns.adobe.com/SaveForWeb/1.0/">
	<!ENTITY ns_custom "http://ns.adobe.com/GenericCustomNamespace/1.0/">
	<!ENTITY ns_adobe_xpath "http://ns.adobe.com/XPath/1.0/">
]>
<svg version="1.1" xmlns:x="&ns_extend;" xmlns:i="&ns_ai;" xmlns:graph="&ns_graphs;"
	 xmlns="http://www.w3.org/2000/svg" xmlns:xlink="http://www.w3.org/1999/xlink" xmlns:a="http://ns.adobe.com/AdobeSVGViewerExtensions/3.0/"
	 x="0px" y="0px" width="750px" height="750px" viewBox="0 0 750 750" enable-background="new 0 0 750 750" xml:space="preserve">
<metadata>
	<sfw  xmlns="&ns_sfw;">
		<slices></slices>
		<sliceSourceBounds  bottomLeftOrigin="true" height="11750" width="4861" x="-2000" y="-3526"></sliceSourceBounds>
	</sfw>
</metadata>
<g id="FILL-BACKGROUND">
	<rect fill="#FFFFFF" width="750" height="750"/>
</g>
<g id="AG-GUIDES">
</g>
<g id="N-DIMENSIONS">
</g>
<g id="AG-DETAIL-DIAGRAM">
</g>
<g id="N-TEXT">
</g>
<g id="AG-DIAGRAM">
	<g id="POLYLINE_1519_">
		<g>
			<g>
				
					<line fill="none" stroke="#FB8604" stroke-width="3.25" stroke-linecap="round" stroke-linejoin="round" x1="118.076" y1="572.101" x2="120.076" y2="572.101"/>
				
					<line fill="none" stroke="#FB8604" stroke-width="3.25" stroke-linecap="round" stroke-linejoin="round" stroke-dasharray="3.9869,6.9771" x1="127.053" y1="572.101" x2="485.375" y2="572.101"/>
				
					<line fill="none" stroke="#FB8604" stroke-width="3.25" stroke-linecap="round" stroke-linejoin="round" x1="488.864" y1="572.101" x2="490.864" y2="572.101"/>
			</g>
		</g>
	</g>
</g>
<g id="AG-DETAILS">
</g>
<g id="AG-ANIMALS">
	<g id="POLYLINE_1420_">
		
			<path fill="none" stroke="#FB8604" stroke-width="2.75" stroke-linecap="round" stroke-linejoin="round" stroke-miterlimit="10" d="
			M406.793,330.24c-1.539,14.779-2.764,35.356,2.981,49.231c0.438,1.035,0.929,2.078,1.473,3.059
			c2.587,4.709,5.112,9.677,7.159,14.644c1.354,3.312,2.566,6.742,3.32,10.244c1.144,5.389,1.584,11.001,1.68,16.504
			c0.067,3.163-0.088,6.573-0.11,9.735c0.001,4.985,0.349,10.05,1.253,14.953c0.241,1.309,0.544,2.709,0.871,3.999
			c0.379,1.453,0.816,2.977,1.138,4.443c0.596,2.64,1.031,5.363,1.259,8.06c0.185,2.192,0.238,4.446,0.146,6.644
			c-0.036,0.888-0.126,2.065-0.189,2.962c-0.113,1.811-0.17,3.835-0.143,5.648c0.043,2.735,0.257,5.508,0.707,8.206
			c0.137,0.857,0.339,1.766,0.498,2.618c0.18,1.013,0.309,2.124,0.402,3.151c0.512,6.238,0.205,12.838-0.118,19.092
			c-0.454,7.207-1.177,16.646-1.437,23.858c-0.039,1.326-0.082,2.9-0.035,4.228c0.026,0.869,0.143,1.755,0.44,2.576
			c0.405,1.162,1.178,2.186,2.171,2.91c0.625,0.468,1.252,0.718,1.885,1.196c1.293,0.947,2.398,2.144,3.411,3.379
			c0.999,1.231,1.947,2.575,2.811,3.904c0.949,1.469,1.84,3.017,2.521,4.63c0.467,1.12,0.85,2.298,0.976,3.509
			c0.062,0.521,0.025,1.062,0.031,1.581c0.007,0.559,0.051,1.151,0.14,1.704c0.182,1.16,0.59,2.311,1.304,3.23
			c0.049,0.061,0.075,0.092,0.075,0.092c0.052,0.06,0.079,0.089,0.079,0.089c0.055,0.058,0.082,0.087,0.082,0.087
			c0.057,0.057,0.086,0.085,0.086,0.085c0.96,0.883,2.211,1.209,3.452,1.415c0.727,0.113,1.493,0.167,2.228,0.187
			c0.157,0.004,0.471,0.008,0.628,0.008c0,0,9.05,0,9.05,0h6.239c0.112,0,0.241-0.004,0.353-0.011
			c0.609-0.038,1.184-0.193,1.644-0.505c0.066-0.047,0.088-0.062,0.088-0.062c0.064-0.049,0.085-0.066,0.085-0.066
			c0.062-0.052,0.082-0.07,0.082-0.07c0.059-0.055,0.078-0.073,0.078-0.073c0.057-0.057,0.075-0.077,0.075-0.077
			c0.054-0.06,0.072-0.08,0.072-0.08c0.052-0.063,0.069-0.084,0.069-0.084c0.448-0.566,0.613-1.32,0.698-1.965
			c0.116-1.038-0.014-2.048-0.25-3.055c-0.208-0.916-0.575-1.846-1.118-2.614c-0.495-0.697-1.094-1.276-1.747-1.711
			c-1.018-0.684-6.99-4.2-7.885-4.842c-2.331-1.584-4.347-3.626-5.972-5.924c-1.335-1.933-2.65-3.945-3.521-6.136
			c-0.349-0.883-0.555-1.846-0.733-2.777c-0.226-1.229-0.374-2.516-0.47-3.762c-0.065-0.943-0.115-1.911-0.246-2.846
			c-0.245-1.837-0.703-3.655-1.374-5.383c-0.369-0.97-0.554-2.009-0.721-3.029c-0.36-2.344-0.52-4.851-0.64-7.22
			c-0.242-6.637-0.423-13.474,0.462-20.067c0.142-0.97,0.325-1.996,0.56-2.948c0.158-0.668,0.414-1.47,0.583-2.137
			c1.181-4.469,2.08-9.226,2.771-13.796c2.049-13.809,2.745-28.536,5.357-42.251c0.937-5.062,2.127-10.392,3.445-15.369
			c1.664-5.969,3.2-12.217,4.148-18.345c0.596-3.829,1.021-7.812,1.147-11.686c0,0,0.023-0.844,0.023-0.844s0.014-0.837,0.014-0.837
			s0.005-0.829,0.005-0.829s0.002-0.413,0.002-0.413s0.007-0.414,0.007-0.414l0.011-0.416c0.031-0.96,0.104-1.986,0.206-2.943
			c0.956-8.81,4.578-17.132,9.026-24.716"/>
	</g>
	<g id="POLYLINE_1419_">
		
			<path fill="none" stroke="#FB8604" stroke-width="2.75" stroke-linecap="round" stroke-linejoin="round" stroke-miterlimit="10" d="
			M260.136,301.564c-0.713,11.578-1.655,24.157-3.299,35.591c-0.777,5.186-1.673,10.516-3.07,15.557
			c-1.957,7.143-5.397,14.009-10.661,19.288c-1.4,1.414-2.936,2.727-4.546,3.895c-0.564,0.415-1.2,0.839-1.786,1.219
			c-2,1.261-4.788,3.159-6.714,4.487c-2.796,1.967-5.657,4.088-8.247,6.318c-1.15,1.013-2.333,2.036-3.337,3.195
			c-1.759,2.037-3.143,4.409-4.353,6.805c-1.474,2.941-2.726,6.123-3.82,9.229c-0.852,2.446-1.653,5.126-2.525,7.55
			c-1.372,3.839-2.991,7.671-4.774,11.337c-1.798,3.702-3.937,7.538-6.111,11.039c-2.4,3.812-5.287,7.964-7.593,11.83
			c-1.988,3.333-3.99,6.807-5.439,10.411c-0.606,1.468-0.985,3.105-1.503,4.606c-1.063,3.154-2.471,6.257-4.134,9.139
			c-0.309,0.522-0.696,1.166-0.958,1.704c-0.414,0.838-0.766,1.73-1.067,2.614c-0.865,2.563-1.419,5.273-1.858,7.94
			c-1.241,7.304-2.07,24.18-2.709,31.759c-0.095,1.27-0.094,2.568,0.106,3.829c0.114,0.707,0.291,1.412,0.562,2.075
			c0.133,0.344,0.321,0.674,0.473,1.01c0.269,0.581,0.504,1.194,0.7,1.803c0.287,0.893,0.503,1.82,0.658,2.745
			c0.162,0.914,0.238,1.862,0.183,2.791c-0.068,1.256-0.346,2.507-0.771,3.689c-0.202,0.555-0.454,1.118-0.609,1.69
			c-0.221,0.771-0.352,1.573-0.398,2.374c-0.07,1.199,0.047,2.41,0.288,3.584c0.45,1.939,1.058,4.339,1.62,6.249
			c0.286,0.915,0.585,2.143,1.069,2.998c0.488,0.914,1.154,1.731,1.911,2.436c0.945,0.9,2.048,1.564,3.146,2.255
			c2.113,1.364,4.154,2.909,6.042,4.571c1.698,1.482,3.042,3.392,3.734,5.545c0.339,1.105,0.688,2.365,0.34,3.474
			c-0.022,0.064-0.029,0.086-0.029,0.086c-0.024,0.063-0.032,0.084-0.032,0.084c-0.026,0.061-0.035,0.082-0.035,0.082
			c-0.028,0.06-0.037,0.08-0.037,0.08c-0.03,0.058-0.04,0.078-0.04,0.078c-0.032,0.057-0.043,0.076-0.043,0.076
			c-0.034,0.056-0.046,0.074-0.046,0.074c-0.036,0.054-0.048,0.072-0.048,0.072c-0.038,0.053-0.051,0.07-0.051,0.07
			c-0.04,0.051-0.054,0.068-0.054,0.068c-0.056,0.066-0.071,0.082-0.071,0.082c-0.06,0.063-0.075,0.079-0.075,0.079
			c-0.063,0.061-0.079,0.076-0.079,0.076c-0.067,0.058-0.084,0.073-0.084,0.073c-0.052,0.042-0.07,0.056-0.07,0.056
			c-0.054,0.041-0.073,0.054-0.073,0.054c-0.037,0.026-0.075,0.052-0.075,0.052c-0.039,0.025-0.078,0.05-0.078,0.05
			c-0.04,0.024-0.081,0.048-0.081,0.048c-0.041,0.023-0.083,0.046-0.083,0.046c-0.043,0.022-0.086,0.044-0.086,0.044
			c-0.044,0.021-0.089,0.042-0.089,0.042c-0.045,0.02-0.092,0.04-0.092,0.04c-0.047,0.019-0.094,0.038-0.094,0.038
			c-0.048,0.018-0.097,0.036-0.097,0.036c-0.05,0.017-0.1,0.034-0.1,0.034c-0.051,0.016-0.102,0.032-0.102,0.032
			c-0.052,0.015-0.105,0.03-0.105,0.03c-0.054,0.015-0.108,0.029-0.108,0.029c-0.055,0.014-0.111,0.027-0.111,0.027
			c-0.056,0.013-0.113,0.025-0.113,0.025c-0.058,0.012-0.116,0.023-0.116,0.023c-0.059,0.011-0.119,0.021-0.119,0.021
			c-0.06,0.01-0.121,0.019-0.121,0.019c-0.062,0.009-0.124,0.017-0.124,0.017c-0.063,0.008-0.127,0.015-0.127,0.015
			c-0.313,0.031-0.648,0.05-0.963,0.048c0,0-9.718,0-9.718,0s-8.131,0-8.131,0l-0.097-0.001c0,0-0.097-0.002-0.097-0.002
			s-0.096-0.004-0.096-0.004s-0.095-0.005-0.095-0.005c-0.045,0.004-0.143-0.016-0.189-0.016c0,0-0.094-0.01-0.094-0.01
			s-0.093-0.012-0.093-0.012c-0.046-0.006-0.093-0.013-0.093-0.013c-0.046-0.007-0.092-0.015-0.092-0.015
			c-0.046-0.008-0.091-0.017-0.091-0.017c-0.046-0.009-0.091-0.018-0.091-0.018c-1.299-0.257-2.346-1.027-3.167-2.012
			c-0.483-0.584-0.883-1.238-1.227-1.912c-0.636-1.248-1.052-2.608-1.238-3.996c-0.089-0.629-0.125-1.305-0.126-1.942
			c0.018-0.764,0.033-1.55-0.04-2.312c-0.198-2.264-0.857-4.474-1.721-6.568c-0.737-1.765-1.596-3.501-2.664-5.088
			c-0.467-0.699-0.998-1.363-1.578-1.969c-0.314-0.321-0.664-0.635-1.006-0.928c-1.108-0.998-2.082-2.172-2.754-3.508
			c-0.276-0.562-0.528-1.147-0.65-1.756c-0.207-0.974-0.222-1.995-0.184-2.988c0.078-1.949,0.445-3.941,0.814-5.855
			c0.794-4.357,1.169-8.873,1.299-13.3c0.228-9.611,1.364-25.018,1.941-34.779c0.114-2.105,0.163-4.445,0.152-6.551
			c-0.024-3.262-0.224-6.642-0.663-9.873c-0.132-1.014-0.335-2.095-0.466-3.108c-0.188-1.424-0.324-2.903-0.366-4.339
			c-0.086-2.904,0.167-5.859,1.018-8.647c1.238-3.99,3.289-7.732,5.417-11.31c1.993-3.26,4.224-6.531,5.996-9.921
			c1.228-2.3,2.358-4.723,3.275-7.16c0.77-2.067,1.469-4.518,2.035-6.66c0.963-3.648,1.803-7.641,2.397-11.366
			c0.101-0.629,0.179-1.291,0.233-1.926c0.264-3.113-0.011-6.28-0.632-9.337c-0.263-1.297-0.611-2.658-0.989-3.927
			c-1.521-4.944-10.516-31.749-11.757-36.44c-2.501-9.037-3.957-18.448-3.869-27.837c0.175-18.576,5.974-34.298,20.243-46.657
			c3.966-3.427,8.419-6.377,13.066-8.797c5.777-2.943,11.99-5.427,18.075-7.656c6.607-2.332,13.498-4.444,20.386-5.764
			c4.298-0.762,8.747-1.05,13.108-0.919c5.098,0.153,10.243,0.865,15.219,1.97c12.553,3.001,33.127,8.573,45.6,11.977
			c2.41,0.683,5.779,1.467,8.21,2.073c10.519,2.493,21.38,4.439,32.145,5.46c6.64,0.589,13.434,0.498,20-0.726
			c3.555-0.664,7.073-1.675,10.411-3.071c9.091-4.098,18.979-8.792,28.414-12.055c5.442-1.879,11.477-3.586,17.043-5.057
			c0,0,3.705-0.951,3.705-0.951c1.532-0.379,3.271-0.878,4.785-1.339c5.748-1.767,11.413-4.08,16.825-6.694
			c5.585-2.648,11.107-6.038,16.544-8.971c5.266-2.82,10.924-5.542,16.443-7.837c6.057-2.549,12.097-4.474,18.146-6.611
			c9.847-3.503,21.567-8.146,31.19-12.248c0,0,6.383-2.778,6.383-2.778s2.819-1.271,2.819-1.271s2.571-1.193,2.571-1.193
			l2.323-1.115l1.068-0.528c0,0,1.006-0.508,1.006-0.508s1.873-0.943,1.873-0.943s1.719-0.835,1.719-0.835s0.801-0.377,0.801-0.377
			l0.762-0.35c0,0,0.724-0.324,0.724-0.324s0.685-0.297,0.685-0.297s0.646-0.27,0.646-0.27s0.607-0.243,0.607-0.243
			s0.289-0.111,0.289-0.111s0.28-0.105,0.28-0.105s0.27-0.098,0.27-0.098s0.26-0.091,0.26-0.091s0.25-0.084,0.25-0.084
			s0.241-0.078,0.241-0.078s0.231-0.071,0.231-0.071s0.221-0.064,0.221-0.064s0.107-0.03,0.107-0.03s0.105-0.028,0.105-0.028
			s0.102-0.026,0.102-0.026s0.1-0.025,0.1-0.025s0.097-0.023,0.097-0.023s0.095-0.021,0.095-0.021s0.093-0.019,0.093-0.019
			l0.09-0.018"/>
	</g>
	<g id="POLYLINE_1418_">
		
			<path fill="none" stroke="#FB8604" stroke-width="2.75" stroke-linecap="round" stroke-linejoin="round" stroke-miterlimit="10" d="
			M242.696,372.409c7.737,0.082,15.641,0.68,23.002,3.209c0.983,0.345,1.983,0.742,2.931,1.173c0.499,0.197,5.269,2.651,5.874,2.947
			c5.564,2.876,12.818,6.852,18.286,9.914c2.178,1.191,4.508,2.331,6.78,3.328c5.489,2.407,11.259,4.283,17.081,5.699
			c11.69,2.716,25.137,4.569,37.056,6.31c9.389,1.263,21.641,2.943,31.044,3.428c12.247,0.738,24.842,0.586,37.056-0.604"/>
	</g>
	<g id="POLYLINE_1202_">
		
			<path fill="none" stroke="#FB8604" stroke-width="2.75" stroke-linecap="round" stroke-linejoin="round" stroke-miterlimit="10" d="
			M461.81,399.902c3.902-0.976,7.847-2.11,11.408-4.014c2.746-1.457,5.252-3.411,7.23-5.816c2.214-2.69,3.844-5.833,5.164-9.044
			c1.894-4.657,3.18-9.61,4.138-14.54c0.563-2.912,1.031-6.083,1.373-9.034c0.489-4.15,0.97-10.718,1.904-14.727
			c0.654-2.989,1.688-5.922,3.236-8.569c1.698-2.923,3.897-5.572,6.177-8.057c4.086-4.431,10.373-10.16,14.424-14.613
			c7.686-8.289,14.485-18.471,20.744-27.893c1.613-2.321,3.353-4.889,5.369-6.889c1.03-1.028,2.264-1.841,3.575-2.465l1.487-0.706"
			/>
	</g>
	<g id="POLYLINE_1201_">
		
			<path fill="none" stroke="#FB8604" stroke-width="2.75" stroke-linecap="round" stroke-linejoin="round" stroke-miterlimit="10" d="
			M441.872,563.741c2.868-0.006,5.751-0.382,8.508-1.181c3.262-0.947,6.359-2.467,9.142-4.411"/>
	</g>
	<g id="POLYLINE_1200_">
		
			<path fill="none" stroke="#FB8604" stroke-width="2.75" stroke-linecap="round" stroke-linejoin="round" stroke-miterlimit="10" d="
			M162.223,564.059c6.42-1.625,12.681-4.082,18.415-7.407"/>
	</g>
	<g id="POLYLINE_1199_">
		
			<path fill="none" stroke="#FB8604" stroke-width="2.75" stroke-linecap="round" stroke-linejoin="round" stroke-miterlimit="10" d="
			M155.62,473.153c-0.844,5.414-2.107,10.824-3.882,16.01c-1.479,4.297-3.343,8.535-5.731,12.408
			c-3.444,5.677-9.179,11.479-13.599,16.456c-1.791,2.04-3.618,4.239-5.223,6.423c-2.122,2.841-5.404,7.94-7.486,10.844
			c-0.738,0.983-1.571,2.18-2.547,2.906c-0.055,0.037-0.082,0.054-0.082,0.054c-0.053,0.033-0.079,0.048-0.079,0.048
			c-0.052,0.028-0.077,0.041-0.077,0.041c-0.05,0.024-0.075,0.035-0.075,0.035c-0.049,0.02-0.073,0.028-0.073,0.028
			c-0.047,0.015-0.07,0.022-0.07,0.022c-0.046,0.011-0.068,0.015-0.068,0.015c-0.066,0.008-0.087,0.009-0.087,0.009
			c-0.063-0.001-0.083-0.003-0.083-0.003c-0.059-0.01-0.076-0.015-0.076-0.015c-0.064-0.023-0.08-0.03-0.08-0.03
			c-0.06-0.034-0.075-0.044-0.075-0.044c-0.056-0.046-0.07-0.058-0.07-0.058c-0.053-0.057-0.066-0.072-0.066-0.072
			c-0.049-0.067-0.061-0.085-0.061-0.085c-0.035-0.057-0.046-0.078-0.046-0.078c-0.033-0.064-0.043-0.086-0.043-0.086
			c-0.021-0.046-0.031-0.07-0.031-0.07c-0.02-0.049-0.029-0.074-0.029-0.074c-0.223-0.652-0.253-1.261-0.295-1.928
			c-0.058-1.283,0.004-2.666,0.068-3.951c0.385-5.301,0.948-15.872,1.491-20.99c0.325-2.964,0.81-5.972,1.565-8.858
			c2.084-7.895,6.864-16.148,9.561-23.864c1.056-2.912,1.952-5.987,2.636-9.009c3.692-15.961,4.071-42.09,5.278-58.595
			c2.483-31.004,5.386-63.982,11.029-94.536c1.254-6.321,2.747-12.778,4.963-18.834c1.583-4.238,3.515-8.471,6.492-11.923
			c5.192-5.981,12.476-6.963,19.847-8.133"/>
	</g>
	<g id="POLYLINE_1198_">
		
			<path fill="none" stroke="#FB8604" stroke-width="2.75" stroke-linecap="round" stroke-linejoin="round" stroke-miterlimit="10" d="
			M186.868,453.11c0.473,7.855,1.704,15.747,3.907,23.304c0.877,3.12,2.111,6.315,3.158,9.386c1.365,4.074,2.595,8.454,3.585,12.635
			c1.632,6.689,2.818,14.613,3.805,21.47c0.777,5.482,1.646,12.024,2.1,17.498c0.398,4.008,1.824,8.122,5.568,10.125
			c0.438,0.232,0.949,0.465,1.384,0.707c0.658,0.358,1.307,0.758,1.918,1.193c1.472,1.044,2.781,2.34,3.768,3.855
			c0.419,0.632,0.783,1.35,1.101,2.04c1.08,2.302,2.069,4.839,2.924,7.236c0.548,1.465,1.057,3.376,1.716,4.783
			c0.37,0.787,0.879,1.601,1.445,2.242c0.685,0.777,1.415,1.33,2.288,1.756c1.122,0.542,2.378,0.764,3.618,0.762
			c0.884,0.008,14.281,0.016,14.734-0.032c1.077-0.047,2.192-0.132,3.253-0.332c0.941-0.179,1.977-0.457,2.73-1.038
			c0.065-0.053,0.097-0.08,0.097-0.08c0.061-0.055,0.09-0.083,0.09-0.083c0.056-0.056,0.07-0.071,0.07-0.071
			c0.053-0.058,0.066-0.072,0.066-0.072c0.049-0.059,0.061-0.074,0.061-0.074c0.045-0.06,0.056-0.075,0.056-0.075
			c0.042-0.061,0.052-0.077,0.052-0.077c0.753-1.292,0.902-2.767,0.653-4.208c-0.083-0.474-0.195-0.939-0.385-1.367
			c-0.262-0.605-0.646-1.154-1.094-1.636c-0.744-0.798-1.658-1.426-2.609-1.951c-2.432-1.281-4.891-2.813-7.177-4.342
			c-3.271-2.168-6.409-4.632-9.129-7.466c-1.355-1.421-2.429-3.104-3.236-4.89c-0.427-0.945-0.797-1.955-1.093-2.949
			c-0.276-0.907-0.501-1.948-0.748-2.865c-0.398-1.498-0.884-3.068-1.427-4.52c-0.376-1.004-0.816-2.043-1.29-3.003
			c-0.222-0.459-0.495-0.93-0.702-1.395c-0.668-1.477-1.169-3.09-1.634-4.642c-1.767-6.05-3.15-13.243-4.414-19.448
			c-1.309-6.963-2.968-15.574-3.77-22.594c-0.375-3.886-0.424-7.865,0.253-11.721c0.182-1.026,0.423-2.066,0.725-3.064
			c1.353-4.092,5.955-17.078,7.138-21.096c3.957-12.656,8.571-30.917,12.878-43.403c3.609-10.561,7.971-21.15,12.981-31.126"/>
	</g>
	<g id="POLYLINE_1197_">
		
			<path fill="none" stroke="#FB8604" stroke-width="2.75" stroke-linecap="round" stroke-linejoin="round" stroke-miterlimit="10" d="
			M219.513,560.983c5.947-1.173,11.661-3.518,16.771-6.773"/>
	</g>
	<g id="POLYLINE_1196_">
		
			<path fill="none" stroke="#FB8604" stroke-width="2.75" stroke-linecap="round" stroke-linejoin="round" stroke-miterlimit="10" d="
			M617.956,272.643c-1.038,0.207-2.233,0.406-3.136,0.969c-1.182,0.714-1.78,1.896-2.201,3.112c-0.397,1.185-0.603,2.44-0.625,3.689
			c-0.016,1.236,0.155,2.607,0.761,3.687c0.466,0.831,1.213,1.439,2.036,1.797c1.165,0.507,2.579,0.61,3.782,0.246
			c0.914-0.273,1.657-0.908,2.127-1.657c0.617-0.982,0.912-2.077,1.079-3.209c0.183-1.361,0.143-2.773-0.248-4.095"/>
	</g>
	<g id="POLYLINE_1195_">
		
			<path fill="none" stroke="#FB8604" stroke-width="2.75" stroke-linecap="round" stroke-linejoin="round" stroke-miterlimit="10" d="
			M576.156,193.159c1.077-0.879,2.872-2.268,3.849-3.215c0.863-0.813,1.671-1.712,2.399-2.648c1.112-1.421,2.477-3.447,3.618-4.841
			c0.513-0.614,1.105-1.301,1.779-1.714c0.061-0.035,0.081-0.046,0.081-0.046c0.06-0.032,0.08-0.042,0.08-0.042
			c0.059-0.028,0.079-0.037,0.079-0.037c0.059-0.025,0.078-0.032,0.078-0.032c0.053-0.019,0.07-0.025,0.07-0.025
			c0.052-0.016,0.07-0.021,0.07-0.021c0.052-0.013,0.069-0.017,0.069-0.017c0.051-0.01,0.068-0.013,0.068-0.013
			c0.067-0.009,0.083-0.011,0.083-0.011c0.066-0.005,0.082-0.005,0.082-0.005c0.065,0,0.081,0.001,0.081,0.001
			c0.063,0.005,0.079,0.007,0.079,0.007c0.062,0.009,0.077,0.012,0.077,0.012c0.061,0.014,0.076,0.018,0.076,0.018
			c0.059,0.018,0.074,0.023,0.074,0.023c0.058,0.023,0.072,0.029,0.072,0.029c0.057,0.027,0.07,0.034,0.07,0.034
			c0.055,0.031,0.069,0.039,0.069,0.039c0.067,0.045,0.08,0.054,0.08,0.054c0.064,0.051,0.077,0.061,0.077,0.061
			c0.062,0.057,0.074,0.069,0.074,0.069c0.06,0.063,0.071,0.076,0.071,0.076c0.046,0.054,0.057,0.068,0.057,0.068
			c0.044,0.058,0.055,0.073,0.055,0.073c0.042,0.062,0.053,0.078,0.053,0.078c0.249,0.387,0.364,0.831,0.442,1.233
			c0.087,0.477,0.116,0.908,0.129,1.384c0.026,1.39-0.14,2.795-0.357,4.165c-0.642,3.916-1.774,7.801-3.685,11.294"/>
	</g>
	<g id="POLYLINE_1194_">
		
			<path fill="none" stroke="#FB8604" stroke-width="2.75" stroke-linecap="round" stroke-linejoin="round" stroke-miterlimit="10" d="
			M552.16,205.541c1.244-7.111,3.937-14.098,6.933-20.66c0.672-1.433,1.399-2.922,2.226-4.271c0.475-0.757,1.031-1.601,1.721-2.153
			c0.058-0.044,0.077-0.058,0.077-0.058c0.057-0.04,0.076-0.053,0.076-0.053c0.057-0.036,0.076-0.048,0.076-0.048
			c0.056-0.033,0.075-0.043,0.075-0.043c0.056-0.029,0.074-0.038,0.074-0.038c0.055-0.025,0.074-0.033,0.074-0.033
			c0.055-0.021,0.073-0.027,0.073-0.027c0.054-0.017,0.072-0.022,0.072-0.022c0.054-0.013,0.071-0.017,0.071-0.017
			c0.053-0.009,0.071-0.011,0.071-0.011c0.053-0.005,0.07-0.006,0.07-0.006c0.052,0,0.069,0,0.069,0
			c0.051,0.004,0.068,0.006,0.068,0.006c0.057,0.01,0.071,0.013,0.071,0.013c0.056,0.015,0.07,0.019,0.07,0.019
			c0.055,0.02,0.069,0.025,0.069,0.025c0.055,0.024,0.068,0.031,0.068,0.031c0.067,0.037,0.081,0.045,0.081,0.045
			c0.066,0.044,0.079,0.053,0.079,0.053c0.065,0.051,0.078,0.061,0.078,0.061c0.064,0.057,0.077,0.069,0.077,0.069
			c0.063,0.064,0.076,0.077,0.076,0.077c0.05,0.055,0.075,0.084,0.075,0.084c0.049,0.06,0.073,0.091,0.073,0.091
			c0.335,0.452,0.532,0.896,0.737,1.401c0.296,0.749,0.534,1.568,0.744,2.346c0.63,2.486,1.281,5.049,1.424,7.617
			c0.081,1.366-0.04,2.752-0.307,4.093c-0.303,1.71-0.853,3.623-0.417,5.34c0.272,1.029,0.908,1.787,1.589,2.545
			c1.114,1.221,2.558,2.526,3.046,4.139c0.329,1.074,0.285,2.222,0.182,3.328c-0.301,2.825-1.018,5.885-0.485,8.72
			c0.32,1.813,1.154,3.505,2.211,5c0.766,1.071,1.664,2.068,2.702,2.881c0.658,0.513,1.47,1.015,2.282,1.169
			c0.061,0.01,0.092,0.015,0.092,0.015c0.06,0.008,0.09,0.011,0.09,0.011c0.06,0.005,0.089,0.007,0.089,0.007
			c0.058,0.003,0.087,0.003,0.087,0.003c0.057,0,0.086,0,0.086,0c0.056-0.002,0.084-0.004,0.084-0.004
			c0.055-0.005,0.082-0.008,0.082-0.008c0.054-0.008,0.081-0.012,0.081-0.012c0.053-0.01,0.079-0.016,0.079-0.016
			c0.051-0.013,0.077-0.02,0.077-0.02c0.05-0.016,0.075-0.025,0.075-0.025c0.048-0.018,0.071-0.028,0.071-0.028
			c0.046-0.021,0.068-0.032,0.068-0.032c0.067-0.036,0.088-0.048,0.088-0.048c0.064-0.041,0.085-0.055,0.085-0.055
			c0.062-0.045,0.082-0.061,0.082-0.061c0.06-0.05,0.079-0.068,0.079-0.068c0.057-0.055,0.076-0.074,0.076-0.074
			c0.055-0.059,0.073-0.08,0.073-0.08c0.053-0.064,0.07-0.086,0.07-0.086c0.034-0.045,0.051-0.068,0.051-0.068
			c0.307-0.439,0.457-0.873,0.599-1.333c0.19-0.644,0.317-1.337,0.425-2c0.44-2.659,0.569-5.646,1.823-8.079
			c0.715-1.404,2.027-2.931,3.72-2.779c0.598,0.058,1.141,0.32,1.597,0.601c0.544,0.342,0.968,0.695,1.435,1.112
			c1.027,0.922,2.662,2.713,3.636,3.723c1.216,1.252,2.523,2.461,3.934,3.489c0.733,0.516,1.545,1.084,2.411,1.318
			c0.054,0.012,0.072,0.016,0.072,0.016c0.053,0.01,0.07,0.013,0.07,0.013c0.067,0.009,0.084,0.011,0.084,0.011
			c0.064,0.005,0.08,0.006,0.08,0.006c0.061,0,0.076,0,0.076,0c0.058-0.004,0.072-0.006,0.072-0.006
			c0.067-0.011,0.08-0.014,0.08-0.014c0.062-0.018,0.074-0.023,0.074-0.023c0.067-0.031,0.078-0.037,0.078-0.037
			c0.059-0.042,0.069-0.049,0.069-0.049c0.06-0.063,0.069-0.074,0.069-0.074c0.039-0.06,0.046-0.073,0.046-0.073
			c0.026-0.055,0.032-0.069,0.032-0.069c0.021-0.061,0.026-0.077,0.026-0.077c0.016-0.067,0.02-0.084,0.02-0.084
			c0.009-0.054,0.012-0.072,0.012-0.072c0.006-0.057,0.008-0.077,0.008-0.077c0.004-0.06,0.004-0.081,0.004-0.081
			c0.001-0.064,0.001-0.085,0.001-0.085c-0.022-0.638-0.188-1.153-0.374-1.733c-0.254-0.75-0.585-1.509-0.927-2.224
			c-1.132-2.355-2.579-4.577-4.366-6.489l-1.869-2.003c-0.93-1.008-1.797-2.108-2.537-3.262c-1.666-2.583-3.243-5.54-5.24-7.882
			c-1.176-1.391-2.557-2.643-4.174-3.498c-1.774-0.948-3.755-1.475-5.743-1.726c-2.634-0.329-5.329-0.199-7.948,0.21"/>
	</g>
	<g id="POLYLINE_1193_">
		
			<path fill="none" stroke="#FB8604" stroke-width="2.75" stroke-linecap="round" stroke-linejoin="round" stroke-miterlimit="10" d="
			M536.897,251.811c0.435,3.865,1.609,7.635,3.183,11.182c1.267,2.843,2.785,5.646,4.919,7.937c0.964,1.038,2.056,1.969,3.244,2.741
			c1.982,1.286,4.222,2.197,6.428,3.024c2.183,0.797,6.48,2.269,8.551,3.185c1.702,0.727,3.411,1.633,5.016,2.556
			c3.082,1.788,7.056,4.34,10.35,5.619c1.963,0.791,4.07,1.296,6.144,1.7c2.31,0.453,6.053,0.982,8.231,1.73
			c1.049,0.344,2.046,0.854,2.923,1.526c1.54,1.174,2.866,2.743,4.53,3.755c1.311,0.821,2.756,1.427,4.235,1.873
			c1.712,0.513,3.495,0.813,5.281,0.887c4.404,0.172,9.015-1.095,12.354-4.054c1.489-1.322,2.605-3.023,3.406-4.836
			c0.758-1.709,1.27-3.537,1.641-5.366c0.279-1.419,0.524-2.897,0.608-4.342c0.066-1.155,0.023-2.331-0.188-3.47
			c-0.183-1.008-0.502-1.995-0.914-2.932c-0.819-1.864-1.962-3.614-3.109-5.291c-1.217-1.714-4.005-5.597-5.181-7.305
			c-3.497-5.247-9.055-13.585-12.802-18.547c-1.927-2.732-3.794-5.636-4.614-8.913c-0.645-2.48-0.836-5.541-1.255-8.068
			c-0.228-1.392-0.554-2.796-1.05-4.118"/>
	</g>
	<g id="POLYLINE_1192_">
		
			<path fill="none" stroke="#FB8604" stroke-width="2.75" stroke-linecap="round" stroke-linejoin="round" stroke-miterlimit="10" d="
			M370.217,273.894c1.717-2.961,3.725-5.809,6.182-8.205c1.958-1.909,4.252-3.528,6.835-4.465
			c4.614-1.681,10.074-1.676,14.836-2.732c5.771-1.173,11.795-4.715,17.052-7.307c1.997-0.982,4.13-1.959,6.21-2.743
			c2.325-0.883,4.909-1.668,7.307-2.341c6.588-1.811,14.393-3.528,20.534-6.419c6.599-3.04,13.965-8.122,20.408-11.485
			c9.865-5.287,22.66-9.129,33.286-12.782c8.941-3.07,18.048-6.493,26.306-11.12c3.489-1.963,7.926-5.005,11.576-6.634
			c4.608-2.07,9.624-3.185,14.626-3.777"/>
	</g>
</g>
<g id="AG-OUTLINE">
	<g id="POLYLINE_51_">
		
			<path fill="none" stroke="#FB8604" stroke-width="3.5" stroke-linecap="round" stroke-linejoin="round" stroke-miterlimit="10" d="
			M421.808,407.812c1.089,5.305,1.512,10.827,1.599,16.237c0.044,2.561-0.03,5.415-0.097,7.975c-0.043,2.817,0.025,5.865,0.235,8.67
			c0.249,3.326,0.701,6.683,1.41,9.943c0.5,2.349,1.254,4.69,1.741,7.042c0.867,4.023,1.339,8.163,1.31,12.28
			c0.002,1.929-0.197,3.989-0.297,5.919c-0.127,2.702-0.12,5.507,0.089,8.202c0.127,1.65,0.333,3.34,0.622,4.969
			c0.135,0.788,0.328,1.608,0.459,2.394c0.601,3.754,0.636,7.702,0.622,11.501c-0.112,12.313-1.774,25.545-1.872,37.864
			c0.012,0.931,0.048,1.893,0.303,2.795c0.308,1.155,0.95,2.222,1.849,3.013c0.308,0.274,0.648,0.524,1,0.739
			c0.281,0.172,0.587,0.325,0.864,0.505c0.618,0.394,1.193,0.863,1.73,1.36c1.633,1.528,3.004,3.342,4.269,5.18
			c1.388,2.046,2.708,4.206,3.564,6.535c0.326,0.903,0.581,1.847,0.665,2.805c0.042,0.413,0.021,0.834,0.018,1.248
			c-0.001,0.536,0.03,1.102,0.1,1.634c0.158,1.245,0.574,2.527,1.345,3.515c0.049,0.061,0.075,0.092,0.075,0.092
			c0.052,0.06,0.079,0.089,0.079,0.089c0.055,0.058,0.082,0.087,0.082,0.087c0.057,0.057,0.086,0.085,0.086,0.085
			c0.96,0.883,2.211,1.209,3.452,1.415c0.727,0.113,1.493,0.167,2.228,0.187c0.157,0.004,0.471,0.008,0.628,0.008c0,0,9.05,0,9.05,0
			h6.239c0.112,0,0.241-0.004,0.353-0.011c0.609-0.038,1.184-0.193,1.644-0.505c0.066-0.047,0.088-0.062,0.088-0.062
			c0.064-0.049,0.085-0.066,0.085-0.066c0.062-0.052,0.082-0.07,0.082-0.07c0.059-0.055,0.078-0.073,0.078-0.073
			c0.057-0.057,0.075-0.077,0.075-0.077c0.054-0.06,0.072-0.08,0.072-0.08c0.052-0.063,0.069-0.084,0.069-0.084
			c0.444-0.577,0.616-1.311,0.698-1.965c0.12-1.036-0.016-2.05-0.25-3.055c-0.215-0.963-0.623-1.957-1.213-2.745
			c-0.48-0.647-1.045-1.17-1.653-1.579c-0.408-0.294-7.059-4.277-7.372-4.503c-2.364-1.513-4.429-3.49-6.103-5.739
			c-1.261-1.737-2.457-3.578-3.401-5.508c-0.272-0.57-0.528-1.169-0.722-1.771c-0.184-0.57-0.321-1.204-0.443-1.792
			c-0.385-1.9-0.53-3.863-0.657-5.794c-0.127-1.476-0.385-2.953-0.78-4.381c-0.161-0.583-0.354-1.186-0.562-1.754
			c-0.12-0.335-0.268-0.685-0.363-1.021c-0.273-0.917-0.441-1.893-0.581-2.839c-0.314-2.211-0.468-4.588-0.58-6.82
			c-0.132-3.197-0.227-6.939-0.185-10.131c0.083-4.287,0.223-8.694,1.206-12.883c2.906-10.04,4.104-21.031,5.247-31.411
			c0.542-5.113,1.251-12.695,1.994-17.761c0.837-5.905,1.966-12.045,3.302-17.858c1.047-4.691,2.517-9.637,3.65-14.307
			c1.218-5.089,2.206-10.35,2.774-15.553c3.902-0.976,7.847-2.11,11.408-4.014c2.746-1.457,5.252-3.411,7.23-5.816
			c2.214-2.69,3.844-5.833,5.164-9.044c1.894-4.657,3.18-9.61,4.138-14.54c0.563-2.912,1.031-6.083,1.373-9.034
			c0.489-4.15,0.97-10.718,1.904-14.727c0.654-2.989,1.688-5.922,3.236-8.569c1.698-2.923,3.897-5.572,6.177-8.057
			c4.086-4.431,10.373-10.16,14.424-14.613c7.686-8.289,14.485-18.471,20.744-27.893c1.613-2.321,3.353-4.889,5.369-6.889
			c1.03-1.028,2.264-1.841,3.575-2.465l1.487-0.706c2.033,1.36,4.351,2.303,6.633,3.16c2.183,0.797,6.48,2.269,8.551,3.185
			c1.702,0.727,3.411,1.633,5.016,2.556c3.082,1.788,7.056,4.34,10.35,5.619c1.963,0.791,4.07,1.296,6.144,1.7
			c2.31,0.453,6.053,0.982,8.231,1.73c1.049,0.344,2.046,0.854,2.923,1.526c1.54,1.174,2.866,2.743,4.53,3.755
			c1.311,0.821,2.756,1.427,4.235,1.873c1.712,0.513,3.495,0.813,5.281,0.887c4.404,0.172,9.015-1.095,12.354-4.054
			c1.489-1.322,2.605-3.023,3.406-4.836c0.758-1.709,1.27-3.537,1.641-5.366c0.279-1.419,0.524-2.897,0.608-4.342
			c0.066-1.155,0.023-2.331-0.188-3.47c-0.183-1.008-0.502-1.995-0.914-2.932c-0.819-1.864-1.962-3.614-3.109-5.291
			c-1.217-1.714-4.005-5.597-5.181-7.305c-3.497-5.247-9.055-13.585-12.802-18.547c-1.927-2.732-3.794-5.636-4.614-8.913
			c-0.645-2.48-0.836-5.541-1.255-8.068c-0.228-1.392-0.554-2.796-1.05-4.118c0.224,0.12,0.551,0.266,0.776,0.333
			c0.062,0.018,0.093,0.027,0.093,0.027c0.06,0.015,0.09,0.022,0.09,0.022c0.058,0.012,0.086,0.017,0.086,0.017
			c0.056,0.009,0.069,0.011,0.069,0.011c0.067,0.007,0.08,0.008,0.08,0.008c0.063,0.003,0.076,0.003,0.076,0.003
			c0.06-0.002,0.072-0.002,0.072-0.002c0.057-0.006,0.068-0.008,0.068-0.008c0.064-0.013,0.074-0.016,0.074-0.016
			c0.064-0.022,0.068-0.023,0.068-0.023c0.067-0.034,0.071-0.036,0.071-0.036c0.067-0.05,0.07-0.053,0.07-0.053
			c0.058-0.065,0.067-0.076,0.067-0.076c0.038-0.062,0.045-0.075,0.045-0.075c0.025-0.056,0.03-0.071,0.03-0.071
			c0.02-0.062,0.024-0.078,0.024-0.078c0.012-0.051,0.015-0.068,0.015-0.068c0.009-0.054,0.012-0.072,0.012-0.072
			c0.006-0.057,0.008-0.077,0.008-0.077c0.004-0.06,0.004-0.081,0.004-0.081c0.001-0.064,0.001-0.085,0.001-0.085
			c-0.022-0.638-0.188-1.153-0.374-1.733c-0.254-0.75-0.585-1.509-0.927-2.224c-1.132-2.355-2.579-4.577-4.366-6.489l-1.869-2.003
			c-0.764-0.834-1.504-1.732-2.14-2.667c-1.572-2.324-3.18-5.342-4.897-7.557c1.911-3.493,3.042-7.378,3.685-11.294
			c0.211-1.327,0.372-2.688,0.36-4.033c-0.018-0.876-0.089-1.87-0.504-2.633c-0.039-0.067-0.049-0.084-0.049-0.084
			c-0.041-0.064-0.052-0.079-0.052-0.079c-0.043-0.06-0.054-0.075-0.054-0.075c-0.045-0.057-0.056-0.07-0.056-0.07
			c-0.058-0.065-0.07-0.078-0.07-0.078c-0.061-0.06-0.073-0.071-0.073-0.071c-0.063-0.054-0.076-0.064-0.076-0.064
			c-0.066-0.048-0.079-0.057-0.079-0.057c-0.054-0.034-0.068-0.042-0.068-0.042c-0.056-0.029-0.07-0.036-0.07-0.036
			c-0.057-0.025-0.072-0.031-0.072-0.031c-0.059-0.021-0.073-0.026-0.073-0.026c-0.06-0.017-0.075-0.02-0.075-0.02
			c-0.061-0.012-0.077-0.014-0.077-0.014c-0.063-0.008-0.078-0.009-0.078-0.009c-0.064-0.003-0.08-0.003-0.08-0.003
			c-0.065,0.002-0.081,0.003-0.081,0.003c-0.066,0.006-0.083,0.009-0.083,0.009c-0.067,0.011-0.084,0.015-0.084,0.015
			c-0.051,0.012-0.068,0.016-0.068,0.016c-0.052,0.015-0.069,0.02-0.069,0.02c-0.053,0.018-0.07,0.024-0.07,0.024
			c-0.057,0.022-0.076,0.03-0.076,0.03c-0.059,0.026-0.079,0.036-0.079,0.036c-0.06,0.03-0.08,0.04-0.08,0.04
			c-0.06,0.033-0.081,0.045-0.081,0.045c-0.663,0.409-1.114,0.933-1.609,1.499c-1.063,1.257-2.4,3.215-3.4,4.537
			c-0.793,1.058-1.672,2.093-2.627,3.007c-1.042,1.033-2.877,2.449-4.028,3.386c-2.845-0.445-5.769-0.325-8.607,0.116
			c0.512-3.118-0.152-6.292-0.882-9.322c-0.276-1.124-0.58-2.358-0.968-3.445c-0.212-0.587-0.471-1.225-0.825-1.731
			c-0.048-0.066-0.072-0.098-0.072-0.098c-0.049-0.062-0.073-0.091-0.073-0.091c-0.05-0.057-0.075-0.084-0.075-0.084
			c-0.063-0.065-0.076-0.077-0.076-0.077c-0.064-0.058-0.077-0.069-0.077-0.069c-0.065-0.052-0.078-0.061-0.078-0.061
			c-0.066-0.045-0.079-0.053-0.079-0.053c-0.067-0.038-0.081-0.045-0.081-0.045c-0.054-0.025-0.068-0.031-0.068-0.031
			c-0.055-0.021-0.069-0.025-0.069-0.025c-0.056-0.016-0.07-0.019-0.07-0.019c-0.057-0.011-0.071-0.013-0.071-0.013
			c-0.051-0.005-0.068-0.006-0.068-0.006c-0.052-0.001-0.069,0-0.069,0c-0.052,0.004-0.07,0.006-0.07,0.006
			c-0.053,0.008-0.071,0.011-0.071,0.011c-0.054,0.012-0.071,0.017-0.071,0.017c-0.054,0.016-0.072,0.022-0.072,0.022
			c-0.055,0.02-0.073,0.027-0.073,0.027c-0.055,0.024-0.074,0.033-0.074,0.033c-0.056,0.028-0.074,0.038-0.074,0.038
			c-0.056,0.032-0.075,0.043-0.075,0.043c-0.057,0.035-0.076,0.048-0.076,0.048c-0.057,0.039-0.076,0.053-0.076,0.053
			c-0.593,0.45-0.966,0.975-1.374,1.555c-0.534,0.786-1.014,1.649-1.455,2.491c-1.876,3.674-3.489,7.57-4.912,11.44
			c-5.002,0.591-10.018,1.706-14.626,3.777c-3.639,1.621-8.087,4.674-11.576,6.634c-8.256,4.626-17.367,8.051-26.306,11.12
			c-10.644,3.66-23.395,7.485-33.286,12.782c-6.449,3.367-13.799,8.44-20.408,11.485c-6.138,2.892-13.989,4.618-20.534,6.419
			c-2.4,0.674-4.981,1.458-7.307,2.341c-2.079,0.784-4.214,1.762-6.21,2.743c-5.281,2.604-11.269,6.127-17.052,7.307
			c-4.763,1.056-10.222,1.051-14.836,2.732c-2.583,0.937-4.877,2.557-6.835,4.465c-2.457,2.396-4.465,5.243-6.182,8.205
			c-6.227,2.042-12.841,2.838-19.379,2.817c-4.478,0.005-9.16-0.475-13.608-1.033c-11.48-1.452-23.018-3.87-34.195-6.854
			c-12.993-3.518-33.643-9.19-46.725-12.219c-2.136-0.446-4.464-0.846-6.628-1.126c-5.495-0.712-11.135-0.857-16.647-0.247
			c-3.548,0.366-7.192,1.191-10.642,2.09c-5.921,1.539-11.948,3.519-17.656,5.721c-5.228,2.066-10.652,4.275-15.589,6.974
			c-3.73,2.058-7.354,4.473-10.629,7.2c-7.375,1.171-14.655,2.152-19.847,8.133c-2.977,3.452-4.909,7.685-6.492,11.923
			c-2.215,6.054-3.71,12.515-4.963,18.834c-5.642,30.54-8.55,63.556-11.029,94.536c-1.22,16.693-1.574,42.518-5.278,58.595
			c-0.685,3.023-1.58,6.095-2.637,9.009c-1.64,4.671-4.906,11.518-6.856,16.119c-1.147,2.733-2.191,5.587-2.889,8.471
			c-0.65,2.653-1.083,5.419-1.381,8.132c-0.547,5.467-1.25,17.028-1.559,22.529c-0.026,0.905-0.042,1.877,0.022,2.781
			c0.038,0.525,0.11,1.137,0.293,1.609c0.02,0.048,0.03,0.071,0.03,0.071c0.032,0.067,0.042,0.088,0.042,0.088
			c0.034,0.061,0.045,0.08,0.045,0.08c0.036,0.054,0.048,0.071,0.048,0.071c0.051,0.063,0.064,0.077,0.064,0.077
			c0.054,0.052,0.068,0.064,0.068,0.064c0.058,0.041,0.073,0.05,0.073,0.05c0.062,0.03,0.078,0.036,0.078,0.036
			c0.049,0.015,0.068,0.019,0.068,0.019c0.06,0.008,0.081,0.009,0.081,0.009c0.063-0.001,0.085-0.003,0.085-0.003
			c0.067-0.011,0.089-0.016,0.089-0.016c0.046-0.012,0.07-0.02,0.07-0.02c0.048-0.017,0.072-0.026,0.072-0.026
			c0.049-0.021,0.074-0.033,0.074-0.033c0.051-0.026,0.076-0.039,0.076-0.039c0.052-0.03,0.079-0.046,0.079-0.046
			c0.054-0.034,0.081-0.052,0.081-0.052c0.493-0.349,0.799-0.704,1.167-1.117c0.482-0.558,0.971-1.21,1.408-1.808
			c2.087-2.911,5.358-7.994,7.486-10.844c1.604-2.182,3.433-4.386,5.223-6.423c4.553-5.129,10.348-10.966,13.837-16.845
			c5.083-8.52,7.819-18.287,9.375-28.029c0.143,3.199,0.103,6.594-0.058,9.792c-0.583,9.648-1.728,25.46-1.948,34.907
			c-0.08,2.733-0.26,5.599-0.568,8.309c-0.184,1.629-0.437,3.379-0.731,4.991c-0.371,1.923-0.732,3.897-0.814,5.855
			c-0.046,1.319-0.02,2.711,0.477,3.95c0.732,1.862,2.055,3.433,3.574,4.709c0.5,0.447,0.96,0.953,1.377,1.478
			c1.376,1.747,2.399,3.76,3.278,5.795c0.824,1.939,1.476,3.979,1.76,6.072c0.124,0.911,0.172,1.851,0.134,2.77
			c-0.05,1.885,0.264,3.793,1.009,5.53c0.759,1.749,1.908,3.53,3.699,4.337c0.566,0.256,1.116,0.382,1.694,0.433
			c0.153,0.012,0.326,0.02,0.48,0.02c0,0,8.131,0,8.131,0c0.321-0.049,10.455,0.063,10.551-0.035
			c0.783-0.068,1.544-0.254,2.151-0.681c0.055-0.04,0.073-0.054,0.073-0.054c0.053-0.042,0.07-0.056,0.07-0.056
			c0.067-0.058,0.084-0.073,0.084-0.073c0.064-0.06,0.079-0.076,0.079-0.076c0.06-0.063,0.075-0.079,0.075-0.079
			c0.057-0.065,0.071-0.082,0.071-0.082c0.041-0.051,0.054-0.068,0.054-0.068c0.039-0.052,0.051-0.07,0.051-0.07
			c0.036-0.054,0.048-0.072,0.048-0.072c0.034-0.055,0.046-0.074,0.046-0.074c0.032-0.057,0.043-0.076,0.043-0.076
			c0.03-0.058,0.04-0.078,0.04-0.078c0.028-0.06,0.037-0.08,0.037-0.08c0.026-0.061,0.035-0.082,0.035-0.082
			c0.024-0.062,0.032-0.084,0.032-0.084c0.244-0.682,0.196-1.434,0.073-2.084c-0.105-0.542-0.248-1.073-0.423-1.594
			c-0.401-1.187-0.994-2.312-1.741-3.317c-0.66-0.896-1.458-1.699-2.307-2.417c-1.914-1.654-3.973-3.181-6.111-4.533
			c-1.023-0.624-2.039-1.304-2.894-2.148c-0.987-0.956-1.796-2.117-2.243-3.422c-0.564-1.717-1.111-3.78-1.569-5.539
			c-0.212-0.878-0.634-2.463-0.757-3.331c-0.174-1.12-0.224-2.268-0.1-3.396c0.074-0.679,0.212-1.356,0.414-2.008
			c0.148-0.497,0.369-0.986,0.544-1.474c0.379-1.055,0.643-2.167,0.742-3.284c0.092-0.997,0.044-2.013-0.122-3.001
			c-0.138-0.871-0.329-1.747-0.582-2.592c-0.287-0.979-0.681-1.932-1.142-2.841c-0.435-0.944-0.669-1.974-0.782-3.003
			c-0.08-0.735-0.099-1.497-0.077-2.236c0.01-0.307,0.029-0.676,0.053-0.982c0,0,1.496-20.752,1.496-20.752
			c0.463-5.958,1.049-12.08,2.717-17.836c0.47-1.553,1.036-3.103,1.843-4.515c1.755-2.915,3.258-6.056,4.397-9.264
			c0.248-0.688,0.567-1.679,0.781-2.382c0,0,0.235-0.804,0.235-0.804l0.059-0.203c0,0,0.063-0.207,0.063-0.207
			c0.134-0.432,0.296-0.899,0.456-1.323c0.866-2.291,2.02-4.534,3.191-6.684c0.473,7.855,1.704,15.747,3.907,23.304
			c0.877,3.12,2.111,6.315,3.158,9.386c1.365,4.074,2.595,8.454,3.585,12.635c1.632,6.689,2.818,14.613,3.805,21.47
			c0.777,5.482,1.646,12.024,2.1,17.498c0.402,4.045,1.847,8.18,5.649,10.168c1.111,0.541,2.217,1.133,3.221,1.857
			c1.388,0.985,2.632,2.193,3.596,3.599c0.376,0.547,0.716,1.133,1.005,1.731c1.311,2.725,2.439,5.634,3.434,8.488
			c0.469,1.29,0.884,2.856,1.475,4.095c0.392,0.834,0.943,1.702,1.556,2.367c0.702,0.763,1.434,1.291,2.322,1.699
			c0.756,0.343,1.573,0.548,2.397,0.637c1.162,0.125,13.78,0.036,14.99,0.049c1.401-0.032,2.837-0.113,4.214-0.383
			c0.893-0.179,1.876-0.459,2.588-1.01c0.065-0.053,0.097-0.08,0.097-0.08c0.061-0.055,0.09-0.083,0.09-0.083
			c0.056-0.056,0.07-0.071,0.07-0.071c0.053-0.058,0.066-0.072,0.066-0.072c0.049-0.059,0.061-0.074,0.061-0.074
			c0.045-0.06,0.056-0.075,0.056-0.075c0.042-0.061,0.052-0.077,0.052-0.077c0.753-1.292,0.902-2.767,0.653-4.208
			c-0.083-0.474-0.195-0.939-0.385-1.367c-0.262-0.605-0.646-1.154-1.094-1.636c-0.744-0.798-1.658-1.426-2.609-1.951
			c-2.432-1.281-4.891-2.813-7.177-4.342c-3.229-2.141-6.328-4.567-9.023-7.356c-1.405-1.444-2.514-3.167-3.342-5
			c-0.427-0.945-0.797-1.955-1.093-2.949c-0.276-0.907-0.501-1.948-0.748-2.865c-0.398-1.498-0.884-3.068-1.427-4.52
			c-0.376-1.004-0.816-2.043-1.29-3.003c-0.248-0.508-0.545-1.023-0.769-1.542c-0.777-1.771-1.345-3.712-1.875-5.572
			c-2.147-7.861-3.826-16.954-5.357-24.979c-0.841-4.949-2.123-11.694-2.583-16.679c-0.32-3.75-0.321-7.585,0.365-11.295
			c0.175-0.935,0.4-1.887,0.676-2.797c1.353-4.091,5.955-17.079,7.138-21.096c3.957-12.656,8.571-30.917,12.878-43.403
			c3.609-10.561,7.971-21.15,12.981-31.126c6.909,0.275,13.944,1.057,20.45,3.514c0.852,0.327,1.719,0.699,2.541,1.096
			c4.957,2.453,11.592,5.973,16.453,8.636c1.832,1.008,6.954,3.894,8.715,4.802c1.93,1,4.015,1.979,6.015,2.832
			c5.218,2.223,10.689,3.978,16.198,5.318c11.689,2.716,25.138,4.57,37.056,6.31c9.392,1.263,21.639,2.943,31.044,3.428
			C396.999,409.154,409.594,409.002,421.808,407.812z"/>
	</g>
</g>
</svg>
