<?xml version="1.0" encoding="utf-8"?>
<!-- Generator: Adobe Illustrator 24.2.0, SVG Export Plug-In . SVG Version: 6.00 Build 0)  -->
<!DOCTYPE svg PUBLIC "-//W3C//DTD SVG 1.1//EN" "http://www.w3.org/Graphics/SVG/1.1/DTD/svg11.dtd" [
	<!ENTITY ns_flows "http://ns.adobe.com/Flows/1.0/">
	<!ENTITY ns_extend "http://ns.adobe.com/Extensibility/1.0/">
	<!ENTITY ns_ai "http://ns.adobe.com/AdobeIllustrator/10.0/">
	<!ENTITY ns_graphs "http://ns.adobe.com/Graphs/1.0/">
	<!ENTITY ns_vars "http://ns.adobe.com/Variables/1.0/">
	<!ENTITY ns_imrep "http://ns.adobe.com/ImageReplacement/1.0/">
	<!ENTITY ns_sfw "http://ns.adobe.com/SaveForWeb/1.0/">
	<!ENTITY ns_custom "http://ns.adobe.com/GenericCustomNamespace/1.0/">
	<!ENTITY ns_adobe_xpath "http://ns.adobe.com/XPath/1.0/">
]>
<svg version="1.1" xmlns:x="&ns_extend;" xmlns:i="&ns_ai;" xmlns:graph="&ns_graphs;"
	 xmlns="http://www.w3.org/2000/svg" xmlns:xlink="http://www.w3.org/1999/xlink" xmlns:a="http://ns.adobe.com/AdobeSVGViewerExtensions/3.0/"
	 x="0px" y="0px" width="750px" height="750px" viewBox="0 0 750 750" enable-background="new 0 0 750 750" xml:space="preserve">
<metadata>
	<sfw  xmlns="&ns_sfw;">
		<slices></slices>
		<sliceSourceBounds  bottomLeftOrigin="true" height="11750" width="4861" x="-2000" y="-3526"></sliceSourceBounds>
	</sfw>
</metadata>
<g id="FILL-BACKGROUND">
	<rect fill="#FFFFFF" width="750" height="750"/>
</g>
<g id="AG-GUIDES">
</g>
<g id="N-DIMENSIONS">
</g>
<g id="AG-DETAIL-DIAGRAM">
</g>
<g id="N-TEXT">
</g>
<g id="AG-DIAGRAM">
	<g id="POLYLINE_174_">
		<g>
			<g>
				
					<line fill="none" stroke="#FB8604" stroke-width="3.25" stroke-linecap="round" stroke-linejoin="round" x1="117.38" y1="586.691" x2="119.38" y2="586.691"/>
				
					<line fill="none" stroke="#FB8604" stroke-width="3.25" stroke-linecap="round" stroke-linejoin="round" stroke-dasharray="4.0429,7.0751" x1="126.455" y1="586.691" x2="523.165" y2="586.691"/>
				
					<line fill="none" stroke="#FB8604" stroke-width="3.25" stroke-linecap="round" stroke-linejoin="round" x1="526.702" y1="586.691" x2="528.702" y2="586.691"/>
			</g>
		</g>
	</g>
</g>
<g id="AG-DETAILS">
	<g id="POLYLINE_325_">
		<path fill="none" stroke="#FB8604" stroke-width="2" stroke-linecap="round" stroke-linejoin="round" stroke-miterlimit="10" d="
			M606.381,289.798c-2.447-3.359-4.011-7.295-5.356-11.201c-0.573-1.693-1.112-3.447-1.335-5.224
			c-0.136-1.098-0.152-2.227,0.067-3.315c0.373-1.998,1.668-3.626,3.155-4.869c1.994-1.663,4.364-2.837,6.768-3.786
			c5.005-1.937,10.484-2.973,15.84-2.233c4.042,0.558,7.901,2.15,11.337,4.323"/>
	</g>
</g>
<g id="AG-ANIMALS">
	<g id="POLYLINE_279_">
		
			<path fill="none" stroke="#FB8604" stroke-width="2.75" stroke-linecap="round" stroke-linejoin="round" stroke-miterlimit="10" d="
			M438.832,343.322c-0.785,15.839-2.17,47.136,4.566,61.063c1.747,3.357,9.234,17.588,10.901,20.549
			c0.251,0.478,0.485,0.986,0.688,1.486c0.75,1.846,1.199,3.821,1.466,5.793c0.24,1.792,0.331,3.652,0.325,5.459
			c-0.022,2.062-0.17,4.34-0.166,6.41c-0.064,9.436,1.111,19.187,1.998,28.572c0.369,4.876,0.744,9.901,0.223,14.774
			c-0.104,0.995-0.357,1.99-0.542,2.972c-0.302,1.683-0.445,3.426-0.494,5.135c-0.064,2.205,0.045,4.53,0.227,6.73
			c0.175,1.95,0.441,4.126,0.582,6.08c0.632,8.714,0.592,17.826,0.289,26.557c-0.197,4.513-0.519,9.177-1.267,13.634
			c-0.173,1.019-0.397,2.129-0.642,3.134c-0.371,1.417-0.707,2.894-0.89,4.349c-0.197,1.553-0.256,3.145-0.028,4.698
			c0.198,1.414,0.683,2.744,1.439,3.969c0.599,0.986,1.365,1.892,2.32,2.55c0.816,0.567,1.768,0.93,2.749,1.076
			c0.766,0.134,1.528,0.346,2.231,0.683c0.868,0.416,1.649,1.062,2.118,1.823c0.942,1.73,3.498,7.635,4.337,9.42
			c0.647,1.44,1.419,2.855,2.453,4.057c0.603,0.707,1.362,1.358,2.136,1.766c0.801,0.44,1.662,0.624,2.502,0.63
			c5.5-0.003,16.717,0.002,22.18,0c0.075-0.001,0.112-0.002,0.112-0.002c0.074-0.003,0.111-0.005,0.111-0.005
			c0.074-0.005,0.11-0.008,0.11-0.008c0.073-0.007,0.109-0.011,0.109-0.011c0.072-0.009,0.108-0.014,0.108-0.014
			c0.072-0.011,0.107-0.018,0.107-0.018c0.071-0.014,0.106-0.021,0.106-0.021c0.07-0.016,0.105-0.024,0.105-0.024
			c0.07-0.018,0.104-0.027,0.104-0.027c0.069-0.02,0.104-0.031,0.104-0.031c0.069-0.022,0.103-0.034,0.103-0.034
			c1.12-0.374,1.901-1.306,2.468-2.215c0.395-0.624,0.685-1.317,0.759-2.014c0.134-1.145-0.115-2.208-0.498-3.256
			c-0.68-1.82-1.823-3.475-2.932-5.059c-1.309-1.843-2.783-3.659-4.306-5.329c-1.867-2.051-4.426-4.45-6.428-6.395
			c-1.138-1.079-3.04-2.849-4.177-3.908c-0.564-0.562-1.076-1.189-1.539-1.836c-1.409-1.988-2.461-4.232-3.365-6.488
			c-0.919-2.334-1.733-4.78-2.311-7.222c-1.239-5.215-1.711-10.66-1.851-16.011c-0.103-5.279,0.041-10.718,0.58-15.971
			c0.269-2.506,0.645-5.106,1.195-7.563c0.406-1.804,0.985-3.73,1.377-5.542c1.767-7.888,2.678-16.316,3.608-24.343
			c0.719-5.68,1.671-11.745,2.891-17.332c2.045-9.168,5.988-22.24,8.604-31.3c0.951-3.176,2.119-6.363,3.519-9.369
			c1.46-3.132,3.228-6.186,5.318-8.941c1.617-2.182,3.65-4.135,5.4-6.206c2.888-3.366,5.595-7.059,7.931-10.83
			c1.519-2.458,3.029-5.113,4.133-7.79c1.646-3.929,2.763-8.11,3.494-12.303c0.702-3.815,0.895-7.798,1.405-11.64
			c0.632-4.618,1.512-9.31,3.298-13.636c0.253-0.602,0.546-1.239,0.847-1.82c0.648-1.236,1.436-2.622,2.137-3.827
			c2.169-3.698,4.776-7.723,7.164-11.284c0,0,1.793-2.642,1.793-2.642c0.449-0.654,1.048-1.586,1.468-2.261
			c2.95-4.803,5.667-10.117,8.18-15.161c4.661-9.464,9.866-20.954,14.121-30.62"/>
	</g>
	<g id="POLYLINE_280_">
		
			<path fill="none" stroke="#FB8604" stroke-width="2.75" stroke-linecap="round" stroke-linejoin="round" stroke-miterlimit="10" d="
			M574.903,182.971c13.549,2.264,26.308,11.189,34.296,22.214c1.66,2.309,3.146,4.781,4.342,7.363
			c1.169,2.52,2.057,5.214,2.811,7.885c0.761,2.758,1.874,7.31,2.823,9.941c0.601,1.677,1.339,3.335,2.365,4.799
			c2.219,3.195,5.674,5.502,8.172,8.452c1.797,2.064,2.987,4.565,3.728,7.186c0.91,3.198,1.258,6.559,1.243,9.877"/>
	</g>
	<g id="POLYLINE_281_">
		
			<path fill="none" stroke="#FB8604" stroke-width="2.75" stroke-linecap="round" stroke-linejoin="round" stroke-miterlimit="10" d="
			M545.897,243.928c1.832,7.718,5.392,14.972,9.846,21.507c3.59,5.234,7.974,10.259,13.812,13.005
			c5.185,2.45,11.877,3.067,17.467,4.174c4.667,0.89,9.269,2.342,13.622,4.243c2.925,1.289,5.81,2.788,8.36,4.729
			c2.382,1.758,4.509,4.189,6.955,5.862c1.341,0.912,2.855,1.592,4.455,1.884c1.632,0.302,3.317,0.291,4.965,0.147
			c2.289-0.21,4.576-0.693,6.786-1.32c2.332-0.691,4.737-1.435,6.726-2.881c0.922-0.674,1.727-1.516,2.364-2.465
			c0.897-1.336,1.501-2.858,1.94-4.4c0.605-2.161,0.889-4.418,0.907-6.66c0.015-2.489-0.302-5-1.03-7.383
			c-1.134-3.709-3.309-7.014-5.621-10.09c-1.711-2.262-4.119-5.167-5.559-7.544c-1.193-1.947-2.392-4.301-3.822-6.069
			c-2.267-2.853-5.473-4.805-8.516-6.732c-4.226-2.622-9.414-5.603-13.242-8.716c-1.74-1.396-3.395-2.965-4.909-4.604
			c-3.159-3.418-5.853-7.326-8.31-11.271c-4.42-7.057-9.522-16.553-14.635-23.091c-1.172-1.509-2.833-3.09-3.676-4.813
			c-0.59-1.196-0.651-2.52-0.552-3.81c0.11-1.578,0.613-4.214,0.846-5.779c0.419-2.84,0.649-5.75,0.462-8.618
			c-0.12-1.485-0.319-3.136-1.059-4.436c-0.087-0.146-0.163-0.253-0.225-0.335c-0.06-0.076-0.081-0.101-0.081-0.101
			c-0.062-0.072-0.083-0.095-0.083-0.095c-0.064-0.067-0.086-0.089-0.086-0.089c-0.066-0.063-0.089-0.083-0.089-0.083
			c-0.076-0.064-0.091-0.076-0.091-0.076c-0.077-0.058-0.093-0.069-0.093-0.069c-0.063-0.043-0.079-0.053-0.079-0.053
			c-0.065-0.04-0.081-0.049-0.081-0.049c-0.066-0.036-0.082-0.045-0.082-0.045c-0.067-0.033-0.084-0.041-0.084-0.041
			c-0.068-0.03-0.086-0.037-0.086-0.037c-0.07-0.027-0.087-0.033-0.087-0.033c-0.071-0.023-0.089-0.029-0.089-0.029
			c-0.072-0.02-0.09-0.025-0.09-0.025c-0.073-0.017-0.091-0.021-0.091-0.021c-0.074-0.014-0.111-0.02-0.111-0.02
			c-0.075-0.01-0.113-0.014-0.113-0.014c-0.076-0.006-0.114-0.009-0.114-0.009c-0.077-0.003-0.116-0.003-0.116-0.003
			c-0.851-0.001-1.634,0.409-2.266,0.878c-1.128,0.849-1.926,2.056-2.561,3.3c-2.331,4.713-3.317,10.588-5.605,15.322
			c-0.537,1.109-1.198,2.171-1.947,3.149c-0.995,1.317-2.479,2.844-3.601,4.073c-1.114,1.231-2.158,2.559-2.947,4.024
			c-1.242,2.311-1.981,4.874-2.484,7.439c-1.267,6.766-0.976,13.846,0.792,20.494c0.229,0.883,1.277,4.656,1.438,5.472
			c0.082,0.384,0.17,0.871,0.178,1.24c0.001,0.072,0,0.095,0,0.095c-0.002,0.067-0.003,0.089-0.003,0.089
			c-0.005,0.063-0.007,0.083-0.007,0.083c-0.011,0.077-0.014,0.096-0.014,0.096c-0.015,0.07-0.02,0.087-0.02,0.087
			c-0.026,0.077-0.032,0.091-0.032,0.091c-0.041,0.078-0.049,0.089-0.049,0.089c-0.073,0.078-0.083,0.086-0.083,0.086
			c-0.076,0.043-0.085,0.046-0.085,0.046c-0.079,0.021-0.089,0.023-0.089,0.023c-0.077,0.006-0.089,0.006-0.089,0.006
			c-0.072-0.004-0.085-0.005-0.085-0.005c-0.078-0.012-0.091-0.015-0.091-0.015c-0.069-0.017-0.083-0.02-0.083-0.02
			c-0.073-0.022-0.088-0.027-0.088-0.027c-0.076-0.028-0.107-0.04-0.107-0.04c-0.064-0.027-0.096-0.042-0.096-0.042
			c-0.834-0.413-1.446-0.971-2.117-1.577c-1.122-1.047-2.145-2.238-3.077-3.457c-0.563-0.74-2.303-3.123-2.879-3.786
			c-0.406-0.479-0.899-1.021-1.407-1.356c-0.061-0.039-0.082-0.051-0.082-0.051c-0.061-0.036-0.081-0.047-0.081-0.047
			c-0.06-0.032-0.08-0.042-0.08-0.042c-0.06-0.028-0.079-0.037-0.079-0.037c-0.078-0.032-0.098-0.04-0.098-0.04
			c-0.077-0.026-0.097-0.032-0.097-0.032c-0.076-0.02-0.095-0.024-0.095-0.024c-0.075-0.013-0.094-0.016-0.094-0.016
			c-0.074-0.006-0.093-0.007-0.093-0.007c-0.073,0.001-0.092,0.002-0.092,0.002c-0.078,0.009-0.099,0.012-0.099,0.012
			c-0.062,0.013-0.083,0.019-0.083,0.019c-0.061,0.019-0.081,0.026-0.081,0.026c-0.06,0.025-0.08,0.034-0.08,0.034
			c-0.059,0.03-0.079,0.041-0.079,0.041c-0.078,0.048-0.097,0.061-0.097,0.061c-0.077,0.057-0.095,0.072-0.095,0.072
			c-0.075,0.066-0.094,0.083-0.094,0.083c-0.074,0.074-0.092,0.094-0.092,0.094c-0.054,0.061-0.072,0.083-0.072,0.083
			c-0.053,0.066-0.071,0.089-0.071,0.089c-0.052,0.071-0.07,0.096-0.07,0.096c-0.367,0.531-0.574,1.112-0.757,1.658
			c-0.222,0.695-0.387,1.424-0.519,2.141c-0.393,2.183-0.543,4.442-0.577,6.658c-0.073,7.437,1.265,14.885,3.008,22.093
			c0.608,2.472,1.409,5.404,2.134,7.845c0.574,1.926,2.638,8.328,3.048,10.225c0.176,0.782,0.359,1.668,0.339,2.452
			c-0.005,0.122-0.014,0.208-0.021,0.269c-0.008,0.055-0.012,0.082-0.012,0.082c-0.015,0.079-0.02,0.104-0.02,0.104
			c-0.018,0.073-0.025,0.097-0.025,0.097c-0.022,0.068-0.03,0.09-0.03,0.09c-0.025,0.063-0.035,0.083-0.035,0.083
			c-0.04,0.076-0.05,0.093-0.05,0.093c-0.046,0.066-0.058,0.082-0.058,0.082c-0.067,0.07-0.081,0.082-0.081,0.082
			c-0.077,0.055-0.093,0.065-0.093,0.065c-0.069,0.033-0.087,0.04-0.087,0.04c-0.076,0.023-0.096,0.028-0.096,0.028
			c-0.062,0.011-0.083,0.013-0.083,0.013c-0.066,0.004-0.089,0.005-0.089,0.005c-0.073-0.002-0.1-0.004-0.1-0.004
			c-0.055-0.006-0.084-0.01-0.084-0.01c-0.058-0.01-0.088-0.016-0.088-0.016c-0.061-0.014-0.092-0.021-0.092-0.021
			c-0.063-0.017-0.096-0.027-0.096-0.027c-1.062-0.362-1.985-1.052-2.899-1.666c-1.848-1.301-4.732-3.51-6.682-4.577
			c-0.852-0.458-1.821-0.949-2.792-0.99c-0.078-0.001-0.123,0-0.123,0c-0.044,0.002-0.088,0.005-0.088,0.005
			c-0.043,0.004-0.086,0.008-0.086,0.008c-0.042,0.005-0.084,0.012-0.084,0.012c-0.042,0.007-0.082,0.015-0.082,0.015
			c-0.041,0.009-0.081,0.019-0.081,0.019c-0.079,0.022-0.117,0.034-0.117,0.034c-0.076,0.027-0.113,0.042-0.113,0.042
			c-0.073,0.032-0.109,0.05-0.109,0.05c-0.07,0.037-0.105,0.057-0.105,0.057c-0.068,0.042-0.101,0.064-0.101,0.064
			c-0.065,0.047-0.097,0.072-0.097,0.072c-0.062,0.052-0.093,0.079-0.093,0.079c-0.06,0.057-0.089,0.086-0.089,0.086
			c-0.057,0.061-0.085,0.093-0.085,0.093c-0.055,0.066-0.082,0.1-0.082,0.1c-0.052,0.07-0.078,0.107-0.078,0.107
			c-0.379,0.568-0.536,1.161-0.665,1.78c-0.144,0.741-0.201,1.512-0.225,2.266c-0.064,2.538,0.221,5.191,0.503,7.714
			c0.88,7.267,2.445,16.84,2.625,24.078c-0.003,1.021,0.007,2.119-0.261,3.106c-0.021,0.069-0.033,0.102-0.033,0.102
			c-0.023,0.064-0.035,0.095-0.035,0.095c-0.024,0.059-0.037,0.087-0.037,0.087c-0.026,0.054-0.039,0.08-0.039,0.08
			c-0.041,0.072-0.055,0.095-0.055,0.095c-0.044,0.062-0.059,0.081-0.059,0.081c-0.063,0.067-0.079,0.082-0.079,0.082
			c-0.068,0.049-0.086,0.059-0.086,0.059c-0.073,0.031-0.092,0.037-0.092,0.037c-0.078,0.013-0.099,0.014-0.099,0.014
			c-0.074-0.005-0.089-0.007-0.089-0.007c-0.078-0.018-0.094-0.023-0.094-0.023c-0.065-0.025-0.082-0.032-0.082-0.032
			c-0.067-0.033-0.085-0.043-0.085-0.043c-0.07-0.042-0.088-0.053-0.088-0.053c-0.072-0.05-0.09-0.063-0.09-0.063
			c-0.074-0.058-0.093-0.073-0.093-0.073c-0.057-0.049-0.096-0.083-0.096-0.083c-0.558-0.525-0.937-1.089-1.359-1.705
			c-1.776-2.682-3.944-7.09-5.553-9.91c-2.405-4.156-5.18-8.307-7.99-12.2c-0.687-0.923-1.478-1.964-2.235-2.827
			c-0.467-0.529-1.038-1.148-1.59-1.534c-0.077-0.051-0.103-0.067-0.103-0.067c-0.074-0.044-0.098-0.058-0.098-0.058
			c-0.071-0.037-0.094-0.048-0.094-0.048c-0.067-0.03-0.089-0.038-0.089-0.038c-0.064-0.022-0.085-0.028-0.085-0.028
			c-0.06-0.014-0.08-0.018-0.08-0.018c-0.075-0.007-0.093-0.007-0.093-0.007c-0.068,0.006-0.085,0.01-0.085,0.01
			c-0.062,0.02-0.08,0.029-0.08,0.029c-0.068,0.046-0.083,0.06-0.083,0.06c-0.057,0.067-0.071,0.087-0.071,0.087
			c-0.037,0.065-0.048,0.088-0.048,0.088c-0.031,0.077-0.04,0.105-0.04,0.105c-0.017,0.058-0.025,0.089-0.025,0.089
			c-0.015,0.064-0.021,0.098-0.021,0.098c-0.012,0.07-0.017,0.107-0.017,0.107c-0.061,0.492-0.028,0.911,0.008,1.387
			c0.167,2.031,1.272,7.453,1.63,9.543c0.735,4.378,1.47,8.898,0.945,13.339c-0.315,2.958-1.413,6.321-2.24,9.185
			c-0.689,2.431-1.158,4.967-1.001,7.502c0.096,1.788,0.485,3.567,0.961,5.289c1.048,3.885,3.29,9.109,4.453,12.968
			c0.182,0.629,0.356,1.297,0.46,1.943c0.081,0.508,0.13,1.085,0.041,1.56c-0.008,0.041-0.017,0.082-0.017,0.082
			c-0.01,0.04-0.02,0.079-0.02,0.079c-0.022,0.076-0.035,0.113-0.035,0.113c-0.027,0.071-0.041,0.106-0.041,0.106
			c-0.031,0.067-0.047,0.099-0.047,0.099c-0.035,0.062-0.054,0.092-0.054,0.092c-0.04,0.057-0.061,0.085-0.061,0.085
			c-0.067,0.078-0.089,0.1-0.089,0.1c-0.07,0.063-0.095,0.082-0.095,0.082c-0.078,0.054-0.105,0.071-0.105,0.071
			c-0.056,0.032-0.085,0.046-0.085,0.046c-0.06,0.028-0.09,0.04-0.09,0.04c-0.063,0.024-0.096,0.035-0.096,0.035
			c-0.067,0.02-0.101,0.029-0.101,0.029c-0.07,0.016-0.106,0.023-0.106,0.023c-0.074,0.012-0.111,0.017-0.111,0.017
			c-0.551,0.063-1.024-0.037-1.525-0.158c-0.563-0.145-1.123-0.355-1.658-0.582c-2.266-0.982-4.393-2.342-6.412-3.756
			c-3.564-2.534-6.925-5.46-9.59-8.944c-1.932-2.488-3.816-5.621-5.653-8.183c-1.558-2.192-3.321-4.299-5.168-6.253
			c-1.785-1.884-3.687-3.738-5.711-5.366c-0.826-0.648-1.719-1.328-2.67-1.765c-0.139-0.061-0.236-0.095-0.309-0.12
			c-0.064-0.02-0.095-0.029-0.095-0.029c-0.061-0.017-0.091-0.024-0.091-0.024c-0.059-0.013-0.087-0.018-0.087-0.018
			c-0.056-0.009-0.083-0.013-0.083-0.013c-0.053-0.005-0.079-0.007-0.079-0.007c-0.075-0.001-0.099,0-0.099,0
			c-0.069,0.007-0.091,0.01-0.091,0.01c-0.063,0.015-0.083,0.021-0.083,0.021c-0.074,0.032-0.092,0.041-0.092,0.041
			c-0.078,0.059-0.092,0.073-0.092,0.073c-0.05,0.063-0.062,0.08-0.062,0.08c-0.036,0.069-0.043,0.086-0.043,0.086
			c-0.024,0.072-0.029,0.091-0.029,0.091c-0.013,0.06-0.017,0.081-0.017,0.081c-0.009,0.065-0.012,0.088-0.012,0.088
			c-0.005,0.07-0.007,0.095-0.007,0.095c-0.003,0.648,0.154,1.165,0.303,1.749c0.113,0.451,1.014,3.251,1.169,3.753
			c0.218,0.726,0.434,1.495,0.571,2.24c0.095,0.511,0.166,1.142,0.101,1.618c-0.009,0.062-0.014,0.092-0.014,0.092
			c-0.011,0.059-0.017,0.089-0.017,0.089c-0.013,0.057-0.02,0.085-0.02,0.085c-0.015,0.055-0.023,0.082-0.023,0.082
			c-0.02,0.06-0.032,0.093-0.032,0.093c-0.026,0.064-0.04,0.095-0.04,0.095c-0.03,0.06-0.046,0.089-0.046,0.089
			c-0.034,0.056-0.051,0.083-0.051,0.083c-0.057,0.077-0.077,0.102-0.077,0.102c-0.064,0.07-0.086,0.092-0.086,0.092
			c-0.071,0.062-0.095,0.082-0.095,0.082c-0.077,0.055-0.104,0.072-0.104,0.072c-0.055,0.032-0.084,0.047-0.084,0.047
			c-0.059,0.028-0.089,0.042-0.089,0.042c-0.062,0.025-0.093,0.036-0.093,0.036c-0.065,0.021-0.098,0.031-0.098,0.031
			c-0.068,0.018-0.103,0.025-0.103,0.025c-0.071,0.014-0.107,0.02-0.107,0.02c-0.074,0.01-0.112,0.015-0.112,0.015
			c-0.944,0.075-1.826-0.249-2.669-0.591c-1.371-0.588-2.659-1.392-3.874-2.251c-2.518-1.802-4.804-3.945-6.837-6.277
			c-2.593-2.991-4.801-6.393-6.831-9.786l-3.37-5.807c-0.367-0.604-0.803-1.345-1.247-1.87c-0.067-0.075-0.089-0.098-0.089-0.098
			c-0.063-0.063-0.083-0.082-0.083-0.082c-0.078-0.067-0.096-0.081-0.096-0.081c-0.071-0.046-0.088-0.055-0.088-0.055
			c-0.064-0.025-0.079-0.029-0.079-0.029c-0.071-0.001-0.084,0.002-0.084,0.002c-0.071,0.042-0.081,0.053-0.081,0.053
			c-0.047,0.073-0.056,0.091-0.056,0.091c-0.023,0.061-0.03,0.084-0.03,0.084c-0.017,0.07-0.023,0.096-0.023,0.096
			c-0.009,0.054-0.014,0.083-0.014,0.083c-0.008,0.06-0.011,0.092-0.011,0.092c-0.06,0.798,0.034,1.587,0.098,2.376
			c0.335,3.304,0.888,7.394,0.891,10.685c-0.003,0.853-0.036,1.731-0.164,2.576c-0.096,0.625-0.262,1.321-0.57,1.838
			c-0.049,0.078-0.074,0.116-0.074,0.116c-0.052,0.073-0.078,0.108-0.078,0.108c-0.054,0.067-0.082,0.099-0.082,0.099
			c-0.057,0.061-0.087,0.091-0.087,0.091c-0.06,0.056-0.091,0.082-0.091,0.082c-0.063,0.05-0.095,0.073-0.095,0.073
			c-0.065,0.044-0.099,0.065-0.099,0.065c-0.068,0.039-0.103,0.057-0.103,0.057c-0.071,0.033-0.107,0.049-0.107,0.049
			c-0.073,0.028-0.11,0.041-0.11,0.041c-0.076,0.023-0.114,0.033-0.114,0.033c-0.078,0.018-0.117,0.025-0.117,0.025
			c-0.04,0.007-0.08,0.012-0.08,0.012c-0.041,0.005-0.082,0.009-0.082,0.009c-0.041,0.003-0.083,0.006-0.083,0.006
			c-0.042,0.002-0.085,0.002-0.085,0.002c-0.043,0-0.086-0.001-0.086-0.001c-0.044-0.002-0.087-0.004-0.087-0.004
			c-0.527-0.036-1.031-0.232-1.459-0.436c-0.505-0.245-0.987-0.555-1.439-0.886c-1.535-1.137-2.864-2.552-4.069-4.027
			c-1.991-2.478-3.697-5.231-4.854-8.199c-0.987-2.49-1.55-5.492-2.104-8.117c-0.208-0.906-0.446-1.917-0.871-2.736
			c-0.105-0.199-0.205-0.351-0.295-0.473c-0.043-0.056-0.065-0.083-0.065-0.083c-0.044-0.053-0.067-0.079-0.067-0.079
			c-0.069-0.075-0.092-0.099-0.092-0.099c-0.072-0.07-0.096-0.092-0.096-0.092c-0.075-0.064-0.1-0.085-0.1-0.085
			c-0.078-0.058-0.104-0.077-0.104-0.077c-0.054-0.036-0.081-0.053-0.081-0.053c-0.055-0.033-0.083-0.048-0.083-0.048
			c-0.057-0.03-0.086-0.044-0.086-0.044c-0.059-0.027-0.089-0.039-0.089-0.039c-0.061-0.024-0.091-0.035-0.091-0.035
			c-0.063-0.021-0.094-0.03-0.094-0.03c-0.064-0.018-0.097-0.026-0.097-0.026c-0.066-0.015-0.1-0.021-0.1-0.021
			c-0.068-0.011-0.103-0.016-0.103-0.016c-0.071-0.008-0.106-0.012-0.106-0.012c-0.071-0.005-0.107-0.007-0.107-0.007
			c-0.072-0.002-0.108-0.002-0.108-0.002c-0.074,0.001-0.111,0.002-0.111,0.002c-0.561,0.03-1.012,0.157-1.529,0.324
			c-0.75,0.25-1.509,0.593-2.225,0.93c-1.443,0.688-3.844,1.959-5.33,2.464c-0.563,0.195-1.221,0.376-1.807,0.392
			c-0.077,0.001-0.115,0.001-0.115,0.001c-0.075-0.002-0.112-0.003-0.112-0.003c-0.073-0.005-0.109-0.008-0.109-0.008
			c-0.071-0.008-0.107-0.012-0.107-0.012c-0.069-0.011-0.104-0.017-0.104-0.017c-0.067-0.014-0.1-0.022-0.1-0.022
			c-0.065-0.017-0.097-0.027-0.097-0.027c-0.063-0.021-0.094-0.032-0.094-0.032c-0.061-0.024-0.091-0.037-0.091-0.037
			c-0.07-0.033-0.092-0.045-0.092-0.045c-0.067-0.037-0.089-0.05-0.089-0.05c-0.064-0.041-0.085-0.056-0.085-0.056
			c-0.062-0.045-0.082-0.061-0.082-0.061c-0.079-0.066-0.098-0.084-0.098-0.084c-0.075-0.073-0.093-0.092-0.093-0.092
			c-0.053-0.059-0.071-0.079-0.071-0.079c-0.051-0.062-0.068-0.083-0.068-0.083c-0.049-0.065-0.065-0.088-0.065-0.088
			c-0.047-0.069-0.062-0.092-0.062-0.092c-0.712-1.163-0.874-2.828-1.179-4.133c-0.146-0.655-0.345-1.419-0.661-1.983
			c-0.043-0.074-0.057-0.098-0.057-0.098c-0.044-0.071-0.06-0.094-0.06-0.094c-0.046-0.068-0.062-0.09-0.062-0.09
			c-0.048-0.065-0.065-0.086-0.065-0.086c-0.051-0.061-0.068-0.081-0.068-0.081c-0.071-0.076-0.091-0.097-0.091-0.097
			c-0.063-0.06-0.084-0.079-0.084-0.079c-0.065-0.055-0.088-0.073-0.088-0.073c-0.068-0.051-0.091-0.067-0.091-0.067
			c-0.071-0.046-0.095-0.061-0.095-0.061c-0.073-0.042-0.098-0.055-0.098-0.055c-0.076-0.038-0.102-0.049-0.102-0.049
			c-0.078-0.033-0.105-0.044-0.105-0.044c-0.054-0.02-0.081-0.029-0.081-0.029c-0.055-0.018-0.083-0.026-0.083-0.026
			c-0.056-0.016-0.084-0.023-0.084-0.023c-0.057-0.014-0.086-0.02-0.086-0.02c-0.058-0.012-0.088-0.017-0.088-0.017
			c-0.605-0.104-1.221,0.004-1.746,0.145c-0.774,0.219-1.371,0.494-2.052,0.851c-2.269,1.229-4.256,2.948-6.018,4.821l-2.374,2.598
			c-0.335,0.357-0.799,0.831-1.165,1.098c-0.068,0.048-0.101,0.071-0.101,0.071c-0.065,0.042-0.081,0.052-0.081,0.052
			c-0.079,0.045-0.094,0.054-0.094,0.054c-0.076,0.037-0.09,0.044-0.09,0.044c-0.072,0.029-0.087,0.033-0.087,0.033
			c-0.069,0.02-0.083,0.023-0.083,0.023c-0.079,0.012-0.091,0.013-0.091,0.013c-0.074-0.001-0.086-0.002-0.086-0.002
			c-0.069-0.015-0.081-0.018-0.081-0.018c-0.076-0.035-0.086-0.041-0.086-0.041c-0.071-0.056-0.081-0.065-0.081-0.065
			c-0.065-0.075-0.073-0.087-0.073-0.087c-0.042-0.065-0.05-0.079-0.05-0.079c-0.039-0.075-0.046-0.091-0.046-0.091
			c-0.029-0.067-0.036-0.084-0.036-0.084c-0.241-0.708-0.241-1.402-0.258-2.128c-0.011-1.298,0.108-2.678,0.226-3.973
			c0.323-2.968,0.597-6.031,1.579-8.867c0.906-2.645,2.466-5.022,4.219-7.181c2.967-3.618,6.534-6.782,10.442-9.352
			c1.886-1.233,3.895-2.318,5.966-3.204c3.334-1.438,6.933-2.451,10.452-3.33c3.383-0.825,9.808-2.318,13.061-3.322
			c3.351-1.001,6.732-2.192,9.96-3.538c5.263-2.212,10.422-4.896,14.931-8.423c3.845-2.963,7.814-7.615,11.128-11.179
			c2.217-2.377,4.641-4.768,7.12-6.871c2.321-1.977,4.873-3.861,7.409-5.552c15.797-10.501,37.267-19.678,54.068-28.559
			c2.324-1.236,6.289-3.668,8.702-4.798"/>
	</g>
	<g id="POLYLINE_282_">
		
			<path fill="none" stroke="#FB8604" stroke-width="2.75" stroke-linecap="round" stroke-linejoin="round" stroke-miterlimit="10" d="
			M587.204,186.889l2.4-1.735c1.286-0.95,2.526-2.006,3.561-3.229c1.007-1.169,1.827-2.507,2.571-3.855l2.3-4.304
			c0.612-1.076,1.283-2.284,2.178-3.131c0.073-0.065,0.097-0.086,0.097-0.086c0.073-0.06,0.097-0.079,0.097-0.079
			c0.073-0.055,0.097-0.073,0.097-0.073c0.072-0.05,0.097-0.066,0.097-0.066c0.072-0.045,0.096-0.06,0.096-0.06
			c0.072-0.04,0.096-0.053,0.096-0.053c0.072-0.035,0.096-0.046,0.096-0.046c0.072-0.029,0.096-0.038,0.096-0.038
			c0.07-0.023,0.084-0.028,0.084-0.028c0.07-0.019,0.084-0.022,0.084-0.022c0.07-0.014,0.084-0.016,0.084-0.016
			c0.07-0.01,0.084-0.011,0.084-0.011c0.07-0.005,0.083-0.006,0.083-0.006c0.069-0.001,0.083,0,0.083,0
			c0.069,0.004,0.083,0.005,0.083,0.005c0.069,0.008,0.083,0.01,0.083,0.01c0.069,0.012,0.082,0.015,0.082,0.015
			c0.068,0.016,0.082,0.02,0.082,0.02c0.068,0.02,0.081,0.024,0.081,0.024c0.054,0.019,0.081,0.029,0.081,0.029
			c0.054,0.022,0.081,0.034,0.081,0.034c0.053,0.025,0.08,0.038,0.08,0.038c0.053,0.028,0.079,0.043,0.079,0.043
			c0.053,0.031,0.079,0.047,0.079,0.047c0.078,0.051,0.104,0.069,0.104,0.069c0.077,0.057,0.103,0.077,0.103,0.077
			c0.076,0.062,0.102,0.084,0.102,0.084c0.075,0.067,0.1,0.091,0.1,0.091c0.074,0.073,0.099,0.098,0.099,0.098
			c0.482,0.504,0.783,1.052,1.046,1.62c0.285,0.63,0.492,1.305,0.647,1.978c0.474,2.114,0.51,4.317,0.388,6.472
			c-0.187,2.944-0.691,5.891-1.563,8.711c-0.672,2.17-1.597,4.278-2.691,6.268"/>
	</g>
	<g id="POLYLINE_283_">
		
			<path fill="none" stroke="#FB8604" stroke-width="2.75" stroke-linecap="round" stroke-linejoin="round" stroke-miterlimit="10" d="
			M160.655,449.627l-1.396-12.713c-0.543-4.44-1.276-9.098-2.17-13.466c-1.787-8.62-5.483-22.559-7.232-31.135
			c-2.842-13.457-4.543-27.418-2.855-41.14c0.796-6.6,2.372-13.142,4.78-19.341c2.04-5.28,4.729-10.342,7.81-15.086
			c5.224-7.947,11.509-15.368,18.984-21.284c2.199-1.708,4.549-3.304,7.06-4.518c1.761-0.853,3.629-1.513,5.528-1.983
			c4.244-1.038,9.171-1.346,13.413-2.395c7.415-1.748,14.749-4.483,21.795-7.364c6.754-2.822,16.221-7.427,23.247-9.049
			c4.011-0.989,8.172-1.423,12.301-1.304c4.662,0.118,9.397,0.791,13.981,1.633c6.856,1.218,22.037,5.061,29.025,6.708
			c4.994,1.141,10.608,2.28,15.652,3.17c14.827,2.599,30.031,4.178,45.079,4.592c7.474,0.164,15.143,0.002,22.552-1.029
			c6.122-0.834,12.198-2.418,17.824-4.994"/>
	</g>
	<g id="POLYLINE_285_">
		
			<path fill="none" stroke="#FB8604" stroke-width="2.75" stroke-linecap="round" stroke-linejoin="round" stroke-miterlimit="10" d="
			M625.877,271.757c-2.796,2.257-4.586,4.796-3.668,8.502c0.574,2.366,2.136,4.652,4.277,5.81c1.333,0.728,2.907,1.093,4.398,0.98
			c1.071-0.082,2.111-0.431,2.869-1.124c0.076-0.072,0.114-0.109,0.114-0.109c0.073-0.076,0.109-0.114,0.109-0.114
			c0.639-0.711,0.958-1.563,1.134-2.441c0.172-0.894,0.181-1.821,0.055-2.722c-0.122-0.932-0.465-1.96-0.967-2.711
			c-0.593-0.907-1.317-1.527-2.145-2.159"/>
	</g>
	<g id="POLYLINE_286_">
		
			<path fill="none" stroke="#FB8604" stroke-width="2.75" stroke-linecap="round" stroke-linejoin="round" stroke-miterlimit="10" d="
			M407.946,577.379c7.437-4.461,15.589-7.755,24.008-9.82"/>
	</g>
	<g id="POLYLINE_287_">
		
			<path fill="none" stroke="#FB8604" stroke-width="2.75" stroke-linecap="round" stroke-linejoin="round" stroke-miterlimit="10" d="
			M433.498,420.625c-2.162,14.861-4.71,30.334-8.464,44.866c-2.274,8.373-4.556,17.222-6.049,25.766
			c-0.76,4.143-1.111,8.457-2.036,12.566c-1.649,7.608-4.277,15.121-7.188,22.333c-2.62,6.55-5.253,13.386-6.948,20.234
			c-0.647,2.723-1.19,5.534-1.09,8.344c0.068,2.006,0.565,4.216,1.886,5.748c0.657,0.804,1.46,1.255,2.282,1.774
			c0.91,0.592,1.813,1.237,2.617,1.968c0.706,0.667,1.32,1.323,1.638,2.164c0.022,0.063,0.032,0.094,0.032,0.094
			c0.02,0.064,0.029,0.096,0.029,0.096c0.2,0.754,0.127,1.41-0.025,2.128c-0.181,0.797-0.49,1.571-0.838,2.309
			c-0.381,0.816-0.944,1.68-1.186,2.518c-0.586,1.85-0.375,3.751,0.219,5.552c0.853,2.485,2.286,5.036,4.569,6.433
			c0.928,0.574,1.949,0.915,2.952,1.068c0.401,0.205,11.997,0.069,12.79,0.106c0,0,9.117,0,9.117,0c0.047,0,0.094-0.001,0.094-0.001
			c0.366-0.011,0.485-0.039,0.772-0.109c0.077-0.023,0.116-0.035,0.116-0.035c0.075-0.026,0.112-0.04,0.112-0.04
			c0.072-0.03,0.108-0.045,0.108-0.045c0.07-0.033,0.087-0.041,0.087-0.041c0.068-0.036,0.085-0.045,0.085-0.045
			c0.066-0.038,0.082-0.048,0.082-0.048c0.064-0.041,0.079-0.052,0.079-0.052c0.077-0.055,0.092-0.067,0.092-0.067
			c0.074-0.059,0.088-0.071,0.088-0.071c0.071-0.063,0.084-0.076,0.084-0.076c0.067-0.067,0.081-0.081,0.081-0.081
			c0.052-0.057,0.077-0.086,0.077-0.086c0.049-0.06,0.073-0.091,0.073-0.091c0.047-0.064,0.069-0.096,0.069-0.096
			c0.044-0.067,0.066-0.101,0.066-0.101c0.042-0.07,0.062-0.106,0.062-0.106c0.039-0.073,0.058-0.111,0.058-0.111
			c0.269-0.547,0.353-1.096,0.401-1.659c0.043-0.599,0.015-1.209-0.046-1.805c-0.186-1.857-0.764-3.677-1.703-5.29
			c-0.492-0.851-1.082-1.651-1.737-2.384c-2.3-2.596-4.331-5.571-6.228-8.473c-1.68-2.607-3.37-5.345-4.554-8.215
			c-0.539-1.322-1.001-2.703-1.176-4.125c-0.145-1.243-0.057-2.511,0.111-3.748c0.331-2.353,0.987-4.693,1.717-6.951
			c1.3-3.737,2.375-7.646,3.174-11.522c0.392-1.883,0.772-4.005,1.067-5.906c0.311-2.178,0.687-4.438,1.252-6.565
			c0.742-2.853,1.784-5.668,3.167-8.274c0.891-1.739,2.041-3.286,3.065-4.928c1.264-2.048,2.418-4.265,3.444-6.443
			c1.429-3.048,2.756-6.361,3.904-9.526c3.028-8.735,8.004-21.878,11.34-30.588"/>
	</g>
	<g id="POLYLINE_288_">
		
			<path fill="none" stroke="#FB8604" stroke-width="2.75" stroke-linecap="round" stroke-linejoin="round" stroke-miterlimit="10" d="
			M269.888,391.636c9.072-1.07,18.455-1.618,27.402,0.582c4.466,1.073,8.883,2.762,13.122,4.521
			c7.958,3.411,19.3,8.627,27.424,11.179c8.8,2.867,18.125,4.928,27.242,6.52c10.66,1.853,22.355,3.188,33.146,4.221
			c17.626,1.619,35.928,2.443,53.61,1.76"/>
	</g>
	<g id="POLYLINE_289_">
		
			<path fill="none" stroke="#FB8604" stroke-width="2.75" stroke-linecap="round" stroke-linejoin="round" stroke-miterlimit="10" d="
			M469.958,577.322c2.786-2.127,5.787-4.061,8.926-5.625c5.076-2.512,10.55-4.336,16.119-5.362"/>
	</g>
	<g id="POLYLINE_290_">
		
			<line fill="none" stroke="#FB8604" stroke-width="2.75" stroke-linecap="round" stroke-linejoin="round" stroke-miterlimit="10" x1="136.246" y1="571.502" x2="162.129" y2="565.739"/>
	</g>
	<g id="POLYLINE_291_">
		
			<path fill="none" stroke="#FB8604" stroke-width="2.75" stroke-linecap="round" stroke-linejoin="round" stroke-miterlimit="10" d="
			M170.222,502.389c0.302,1.473,0.339,3.118,0.697,4.58c0.276,1.152,0.772,2.249,1.391,3.256c0.888,1.446,2.013,2.768,3.15,4.024
			c2.32,2.531,4.932,4.958,7.522,7.212c3.29,2.827,6.76,5.614,10.41,7.965c0.753,0.475,1.566,0.963,2.363,1.36
			c0.534,0.266,1.179,0.551,1.737,0.663c0.052,0.01,0.103,0.018,0.103,0.018c0.05,0.007,0.098,0.013,0.098,0.013
			c0.047,0.005,0.093,0.008,0.093,0.008c0.045,0.002,0.088,0.003,0.088,0.003c0.042,0,0.083-0.002,0.083-0.002
			c0.078-0.007,0.115-0.013,0.115-0.013c0.07-0.015,0.104-0.025,0.104-0.025c0.062-0.024,0.092-0.037,0.092-0.037
			c0.078-0.049,0.094-0.061,0.094-0.061c0.07-0.07,0.082-0.086,0.082-0.086c0.044-0.069,0.054-0.087,0.054-0.087
			c0.026-0.059,0.034-0.079,0.034-0.079c0.02-0.065,0.026-0.088,0.026-0.088c0.014-0.071,0.018-0.096,0.018-0.096
			c0.009-0.077,0.011-0.104,0.011-0.104c0.003-0.055,0.003-0.083,0.003-0.083c0-0.058-0.001-0.088-0.001-0.088
			c-0.002-0.061-0.004-0.092-0.004-0.092c-0.059-0.654-0.239-1.178-0.43-1.78c-0.781-2.285-1.9-4.918-2.38-7.28
			c-0.228-1.104-0.366-2.265-0.23-3.387c0.322-2.658,2.192-4.674,4.056-6.428c2.314-2.182,5.263-4.414,6.517-7.418
			c0.683-1.625,0.913-3.407,0.953-5.158c0.078-3.586-0.686-7.82-0.969-11.396c-0.147-1.855-0.208-3.755,0.062-5.601
			c0.46-3.5,2.36-7.192,3.779-10.398c0.652-1.502,1.252-3.065,1.65-4.655c0.346-1.374,0.546-2.806,0.637-4.219
			c0.175-2.774-0.049-5.587-0.488-8.328c-0.599-3.666-1.607-7.308-2.909-10.785"/>
	</g>
	<g id="POLYLINE_292_">
		
			<path fill="none" stroke="#FB8604" stroke-width="2.75" stroke-linecap="round" stroke-linejoin="round" stroke-miterlimit="10" d="
			M295.322,316.417c-1.234,11.972-2.802,24.47-5.324,36.226c-1.424,6.501-3.122,13.076-5.667,19.232
			c-1.06,2.528-2.279,5.027-3.802,7.308c-5.126,7.37-11.596,13.782-18.476,19.512c-3.223,2.67-6.928,5.476-10.368,7.891
			c-2.032,1.392-4.428,3.04-6.399,4.459c-3.994,2.867-8.335,6.355-12.108,9.531c-11.476,9.755-22.346,20.732-32.481,31.864
			c-7.351,8.188-14.627,16.843-20.524,26.143c-2.208,3.524-4.283,7.231-5.856,11.082c-0.85,2.037-1.617,4.602-2.301,6.714
			c-1.299,4.15-2.571,8.673-3.64,12.888c-2.719,10.892-4.984,22.443-6.393,33.576c-0.673,5.723-1.194,11.603-0.683,17.358
			c0.291,3.283,0.902,6.582,2.013,9.691c0.468,1.298,1.031,2.6,1.69,3.814c1.494,2.728,3.791,7.358,1.743,10.209
			c-1.084,1.529-2.834,2.214-4.592,2.534c-0.987,0.179-2.006,0.239-3.008,0.242c-1.031-0.032-12.484,0.094-13.209-0.102
			c-1.194-0.148-2.376-0.476-3.457-1.008c-1.062-0.52-2.03-1.237-2.851-2.086c-0.799-0.828-1.477-1.791-2.127-2.738
			c-0.748-1.128-1.437-2.325-1.86-3.616c-0.24-0.734-0.381-1.51-0.335-2.284c0.113-1.831,0.947-3.531,1.879-5.078
			c0.595-0.963,1.287-1.886,1.793-2.902c0.275-0.532,0.548-1.197,0.637-1.776c0.01-0.072,0.014-0.107,0.014-0.107
			c0.007-0.069,0.009-0.104,0.009-0.104c0.004-0.067,0.005-0.1,0.005-0.1c0.001-0.065,0.001-0.097,0.001-0.097
			c-0.002-0.063-0.004-0.094-0.004-0.094c-0.007-0.076-0.008-0.091-0.008-0.091c-0.01-0.073-0.013-0.088-0.013-0.088
			c-0.014-0.071-0.017-0.085-0.017-0.085c-0.018-0.068-0.022-0.081-0.022-0.081c-0.026-0.078-0.031-0.091-0.031-0.091
			c-0.031-0.075-0.037-0.087-0.037-0.087c-0.036-0.071-0.043-0.082-0.043-0.082c-0.049-0.078-0.057-0.089-0.057-0.089
			c-0.056-0.073-0.064-0.083-0.064-0.083c-0.072-0.078-0.082-0.087-0.082-0.087c-1.267-1.065-3.682-2.927-5.002-3.982
			c-0.606-0.543-1.072-1.114-1.461-1.767c-0.587-0.98-0.979-2.072-1.243-3.18c-0.262-1.09-0.402-2.232-0.473-3.351
			c-0.113-1.753-0.031-3.524,0.286-5.252c0.555-3.093,1.841-6.031,3.567-8.647c2.075-3.171,3.535-6.729,4.699-10.323
			c1.051-3.2,1.799-6.654,2.569-9.932c1.159-4.775,2.686-10.053,4.211-14.724c0.944-2.911,2.239-6.457,3.198-9.342
			c1.032-3.153,2.01-6.6,2.797-9.822c0.811-3.328,1.552-6.954,2.122-10.332c0.46-2.749,0.87-5.837,1.356-8.58
			c0.73-3.965,1.492-8.052,3.012-11.8c0.409-1.009,0.979-1.963,1.599-2.851c0.875-1.275,1.897-2.552,2.898-3.734
			c2.779-3.314,6.069-6.346,8.971-9.55c3.066-3.372,6.113-7.171,8.864-10.813c1.378-1.848,3.18-4.283,4.419-6.223
			c2.223-3.467,4.274-7.155,5.323-11.163c0.437-1.653,0.578-3.388,0.652-5.092c0.18-5.072-0.279-10.258-0.813-15.299
			c-0.673-5.807-1.74-14.499-2.33-20.335c-0.914-10.047-2.949-27.058-2.851-37.061c0.01-2.48,0.104-5.073,0.403-7.538
			c0.18-1.44,0.433-2.906,0.871-4.293c0.383-1.176,0.922-2.321,1.466-3.428c1.906-3.782,4.43-7.255,7.127-10.509
			c4.344-5.052,8.986-10.167,14.03-14.533"/>
	</g>
</g>
<g id="AG-OUTLINE">
	<g id="POLYLINE_4_">
		
			<path fill="none" stroke="#FB8604" stroke-width="3.5" stroke-linecap="round" stroke-linejoin="round" stroke-miterlimit="10" d="
			M457.289,458.984c0.709,8.626,2.088,17.501,1.733,26.165c-0.058,1.118-0.156,2.261-0.347,3.36
			c-0.165,0.874-0.391,1.79-0.512,2.675c-0.309,2.071-0.401,4.2-0.379,6.292c0.012,3.601,0.538,7.284,0.823,10.869
			c0.429,5.595,0.52,11.714,0.492,17.333c-0.094,7.754-0.243,15.771-1.57,23.42c-0.248,1.464-0.651,2.948-0.987,4.391
			c-0.279,1.273-0.495,2.6-0.58,3.901c-0.153,2.285,0.085,4.678,1.212,6.711c0.508,0.952,1.144,1.851,1.948,2.576
			c0.736,0.668,1.624,1.175,2.582,1.446c0.723,0.202,1.324,0.227,2.114,0.486c0.598,0.184,1.271,0.488,1.766,0.835
			c0.733,0.507,1.283,1.159,1.627,1.889c1.233,2.509,3.617,8.167,4.888,10.593c0.489,0.88,1.052,1.738,1.723,2.491
			c0.673,0.767,1.509,1.429,2.388,1.82c0.62,0.289,1.269,0.412,1.882,0.449c0.065,0.003,0.131,0.005,0.131,0.005
			c0.066,0.001,0.131,0.002,0.131,0.002h11.996c0,0,10.183,0,10.183,0c0.075-0.001,0.112-0.002,0.112-0.002
			c0.074-0.003,0.111-0.005,0.111-0.005c0.074-0.005,0.11-0.008,0.11-0.008c0.073-0.007,0.109-0.011,0.109-0.011
			c0.072-0.009,0.108-0.014,0.108-0.014c0.072-0.011,0.107-0.018,0.107-0.018c0.071-0.014,0.106-0.021,0.106-0.021
			c0.92-0.191,1.699-0.782,2.244-1.437c0.319-0.391,0.519-0.681,0.741-1.063c0.186-0.302,0.381-0.713,0.477-1.022
			c0.367-1.152,0.227-2.314-0.097-3.42c-0.342-1.142-0.889-2.222-1.502-3.241c-1.86-2.988-4.081-5.804-6.482-8.375
			c-2.396-2.5-5.358-5.315-7.883-7.696c-0.559-0.545-2.049-1.84-2.531-2.385c-0.737-0.797-1.377-1.69-1.948-2.612
			c-1.132-1.839-2.033-3.845-2.812-5.856c-0.679-1.777-1.322-3.669-1.81-5.508c-1.617-6.142-2.107-12.589-2.188-18.923
			c-0.03-6.064,0.197-12.265,1.127-18.263c0.217-1.363,0.488-2.798,0.804-4.141c0.277-1.201,0.693-2.597,0.974-3.802
			c0.612-2.554,1.147-5.347,1.582-7.938c1.652-9.858,2.31-20.221,4.211-30.039c0.48-2.568,1.078-5.441,1.689-7.982
			c0.486-2.268,3.459-12.735,4.084-15.123c1.161-3.805,4.229-15.122,5.748-18.733c1.22-3.128,2.7-6.223,4.462-9.084
			c1.706-2.806,3.766-5.377,6.043-7.744c2.386-2.616,4.715-5.506,6.764-8.394c2.288-3.265,4.502-6.762,6.244-10.352
			c1.337-2.815,2.387-5.82,3.179-8.832c0.958-3.647,1.579-7.434,1.948-11.185c0.417-4.747,1.013-9.62,2.202-14.243
			c0.719-2.803,1.699-5.591,3.138-8.112c2.601-4.744,5.726-9.545,8.729-14.044c0,0,1.793-2.642,1.793-2.642s0.472-0.702,0.472-0.702
			c0.674-1.023,1.44-2.269,2.062-3.324c7.937-13.866,14.71-29.431,21.235-44.015c2.366,1.659,5.042,2.85,7.819,3.629
			c5.231,1.498,11.688,2.061,16.952,3.438c4.819,1.25,9.555,3.031,13.944,5.388c2.504,1.335,4.834,3.032,6.923,4.951
			c1.423,1.27,3.063,2.898,4.683,3.893c1.136,0.723,2.391,1.279,3.708,1.571c1.752,0.386,3.576,0.382,5.356,0.227
			c2.437-0.224,4.865-0.754,7.211-1.443c2.64-0.801,5.407-1.716,7.409-3.702c1.182-1.161,2.018-2.635,2.613-4.171
			c0.739-1.911,1.162-3.946,1.364-5.981c0.339-3.58,0.011-7.262-1.184-10.664c-1.673-4.77-5.05-8.874-8.11-12.828
			c0.014-3.318-0.333-6.679-1.243-9.877c-0.742-2.621-1.931-5.122-3.728-7.186c-2.498-2.95-5.953-5.257-8.172-8.452
			c-1.088-1.554-1.852-3.323-2.473-5.108c-0.873-2.485-2.004-7.058-2.714-9.633c-0.883-3.14-1.957-6.284-3.445-9.193
			c-3.01-5.894-7.333-11.08-12.272-15.457c1.093-1.991,2.019-4.097,2.691-6.268c0.872-2.82,1.376-5.767,1.563-8.711
			c0.116-2.037,0.086-4.116-0.313-6.122c-0.273-1.343-0.768-2.822-1.671-3.844c-0.073-0.079-0.097-0.104-0.097-0.104
			c-0.074-0.074-0.099-0.098-0.099-0.098c-0.075-0.069-0.1-0.091-0.1-0.091c-0.076-0.064-0.102-0.084-0.102-0.084
			c-0.077-0.058-0.103-0.077-0.103-0.077c-0.078-0.053-0.104-0.069-0.104-0.069c-0.053-0.032-0.079-0.047-0.079-0.047
			c-0.053-0.029-0.079-0.043-0.079-0.043c-0.053-0.026-0.08-0.038-0.08-0.038c-0.054-0.023-0.081-0.034-0.081-0.034
			c-0.068-0.025-0.081-0.029-0.081-0.029c-0.068-0.021-0.081-0.024-0.081-0.024c-0.068-0.017-0.082-0.02-0.082-0.02
			c-0.069-0.013-0.082-0.015-0.082-0.015c-0.069-0.008-0.083-0.01-0.083-0.01c-0.069-0.004-0.083-0.005-0.083-0.005
			c-0.069,0-0.083,0-0.083,0c-0.07,0.004-0.083,0.006-0.083,0.006c-0.07,0.009-0.084,0.011-0.084,0.011
			c-0.07,0.013-0.084,0.016-0.084,0.016c-0.07,0.018-0.084,0.022-0.084,0.022c-0.07,0.023-0.084,0.028-0.084,0.028
			c-0.072,0.028-0.096,0.038-0.096,0.038c-0.072,0.034-0.096,0.046-0.096,0.046c-0.072,0.039-0.096,0.053-0.096,0.053
			c-0.072,0.044-0.096,0.06-0.096,0.06c-0.072,0.049-0.097,0.066-0.097,0.066c-0.073,0.054-0.097,0.073-0.097,0.073
			c-0.507,0.414-0.824,0.843-1.172,1.329c-0.431,0.618-0.831,1.308-1.199,1.966l-2.3,4.304c-0.744,1.348-1.564,2.686-2.571,3.855
			c-1.035,1.222-2.275,2.279-3.561,3.229l-2.4,1.735c-3.897-1.821-8.046-3.24-12.301-3.918c0.525-3.202,0.85-6.496,0.637-9.74
			c-0.12-1.485-0.319-3.136-1.059-4.436c-0.087-0.146-0.163-0.253-0.225-0.335c-0.06-0.076-0.081-0.101-0.081-0.101
			c-0.062-0.072-0.083-0.095-0.083-0.095c-0.064-0.067-0.086-0.089-0.086-0.089c-0.066-0.063-0.089-0.083-0.089-0.083
			c-0.076-0.064-0.091-0.076-0.091-0.076c-0.077-0.058-0.093-0.069-0.093-0.069c-0.063-0.043-0.079-0.053-0.079-0.053
			c-0.065-0.04-0.081-0.049-0.081-0.049c-0.066-0.036-0.082-0.045-0.082-0.045c-0.067-0.033-0.084-0.041-0.084-0.041
			c-0.068-0.03-0.086-0.037-0.086-0.037c-0.07-0.027-0.087-0.033-0.087-0.033c-0.071-0.023-0.089-0.029-0.089-0.029
			c-0.072-0.02-0.09-0.025-0.09-0.025c-0.073-0.017-0.091-0.021-0.091-0.021c-0.074-0.014-0.111-0.02-0.111-0.02
			c-0.075-0.01-0.113-0.014-0.113-0.014c-0.076-0.006-0.114-0.009-0.114-0.009c-0.077-0.003-0.116-0.003-0.116-0.003
			c-0.892,0.006-1.693,0.436-2.349,0.942c-0.956,0.745-1.676,1.757-2.249,2.804c-0.858,1.574-1.484,3.316-2.059,5.012
			c-0.412,1.256-1.503,4.691-1.917,5.996c-0.186,0.552-0.477,1.405-0.679,1.944c-2.445,1.148-6.285,3.51-8.703,4.798
			c-16.845,8.905-38.258,18.054-54.068,28.559c-2.537,1.692-5.086,3.573-7.409,5.552c-2.482,2.105-4.899,4.491-7.12,6.871
			c-3.211,3.456-7.121,8.015-10.79,10.91c-4.587,3.663-9.874,6.424-15.269,8.692c-4.854,2.028-9.952,3.655-15.056,4.93
			c-6.989,1.749-15.221,3.285-21.563,6.78c-4.879,2.673-9.253,6.31-12.856,10.544c-1.773,2.119-3.386,4.436-4.388,7.025
			c-5.627,2.576-11.701,4.16-17.824,4.994c-7.409,1.031-15.077,1.193-22.552,1.029c-15.048-0.414-30.252-1.993-45.079-4.592
			c-5.043-0.89-10.659-2.029-15.652-3.17c-7.036-1.659-22.076-5.469-29.025-6.708c-4.583-0.842-9.318-1.516-13.981-1.633
			c-4.128-0.119-8.291,0.315-12.301,1.304c-7.029,1.621-16.567,6.26-23.247,9.049c-7.304,2.984-14.882,5.811-22.585,7.542
			c-4.17,0.962-9.025,1.252-13.162,2.356c-1.815,0.483-3.596,1.148-5.278,1.985c-2.4,1.195-4.658,2.733-6.772,4.377
			c-7.475,5.916-13.76,13.337-18.984,21.284c-3.081,4.744-5.77,9.806-7.81,15.086c-2.408,6.199-3.984,12.741-4.78,19.341
			c-1.687,13.721,0.013,27.685,2.855,41.14c1.74,8.591,5.449,22.523,7.232,31.135c0.894,4.358,1.625,9.047,2.17,13.466l1.396,12.713
			c-0.449,0.66-0.918,1.335-1.275,2.04c-0.471,0.92-0.849,1.93-1.177,2.911c-1.726,5.394-2.536,11.143-3.381,16.729
			c-1.158,7.388-2.878,14.817-5.206,21.925c-0.949,2.852-2.265,6.468-3.198,9.342c-1.525,4.672-3.052,9.95-4.211,14.725
			c-1.026,4.471-2.07,9.046-3.771,13.317c-0.768,1.958-1.673,3.911-2.742,5.724c-0.38,0.652-0.856,1.353-1.252,1.995
			c-0.382,0.627-0.768,1.317-1.093,1.975c-1.239,2.485-2.035,5.204-2.248,7.977c-0.131,1.698-0.058,3.426,0.187,5.11
			c0.243,1.595,0.68,3.193,1.514,4.586c0.394,0.665,0.919,1.297,1.461,1.767c1.309,1.053,3.67,2.855,4.942,3.928
			c0.07,0.063,0.079,0.073,0.079,0.073c0.071,0.078,0.08,0.089,0.08,0.089c0.055,0.074,0.063,0.085,0.063,0.085
			c0.048,0.079,0.055,0.09,0.055,0.09c0.036,0.071,0.041,0.084,0.041,0.084c0.031,0.075,0.035,0.088,0.035,0.088
			c0.021,0.065,0.025,0.079,0.025,0.079c0.018,0.068,0.021,0.082,0.021,0.082c0.014,0.071,0.016,0.085,0.016,0.085
			c0.01,0.073,0.012,0.088,0.012,0.088c0.007,0.076,0.008,0.107,0.008,0.107c0.002,0.063,0.002,0.095,0.002,0.095
			c-0.001,0.065-0.002,0.098-0.002,0.098c-0.004,0.067-0.007,0.102-0.007,0.102c-0.007,0.069-0.011,0.105-0.011,0.105
			c-0.01,0.072-0.015,0.108-0.015,0.108c-0.115,0.614-0.314,1.097-0.581,1.64c-0.523,1.078-1.263,2.054-1.886,3.073
			c-1.004,1.674-1.927,3.622-1.836,5.608c0.055,0.943,0.35,1.843,0.728,2.701c0.57,1.273,1.34,2.464,2.162,3.588
			c0.537,0.73,1.106,1.463,1.77,2.082c0.854,0.81,1.85,1.478,2.93,1.946c1.065,0.464,2.215,0.739,3.37,0.852
			c0.203,0.104,12.226,0.059,12.879,0.065c2.755-0.005,6.115-0.471,7.725-2.961c0.654-0.99,0.762-2.221,0.647-3.315
			c-0.124-1.167-0.477-2.305-0.908-3.393c-0.508-1.302-1.197-2.558-1.856-3.788c-0.438-0.854-0.837-1.753-1.183-2.649
			c-1.647-4.281-2.304-8.899-2.453-13.465c-0.165-6.767,0.713-13.632,1.699-20.316c1.787-11.485,4.236-23.234,7.407-34.415
			c0.302,1.473,0.339,3.118,0.697,4.58c0.276,1.152,0.772,2.249,1.391,3.256c0.888,1.446,2.013,2.768,3.15,4.024
			c2.32,2.531,4.932,4.958,7.522,7.212c3.29,2.827,6.76,5.614,10.41,7.965c0.753,0.475,1.566,0.963,2.363,1.36
			c0.534,0.266,1.179,0.551,1.737,0.663c0.052,0.01,0.103,0.018,0.103,0.018c0.05,0.007,0.098,0.013,0.098,0.013
			c0.047,0.005,0.093,0.008,0.093,0.008c0.045,0.002,0.088,0.003,0.088,0.003c0.042,0,0.083-0.002,0.083-0.002
			c0.078-0.007,0.115-0.013,0.115-0.013c0.07-0.015,0.104-0.025,0.104-0.025c0.062-0.024,0.092-0.037,0.092-0.037
			c0.078-0.049,0.094-0.061,0.094-0.061c0.07-0.07,0.082-0.086,0.082-0.086c0.044-0.069,0.054-0.087,0.054-0.087
			c0.026-0.059,0.034-0.079,0.034-0.079c0.02-0.065,0.026-0.088,0.026-0.088c0.014-0.071,0.018-0.096,0.018-0.096
			c0.009-0.077,0.011-0.104,0.011-0.104c0.003-0.055,0.003-0.083,0.003-0.083c0-0.058-0.001-0.088-0.001-0.088
			c-0.002-0.061-0.004-0.092-0.004-0.092c-0.059-0.654-0.239-1.178-0.43-1.78c-0.781-2.285-1.9-4.918-2.38-7.28
			c-0.228-1.104-0.366-2.265-0.23-3.387c0.322-2.658,2.192-4.674,4.056-6.428c2.314-2.182,5.263-4.414,6.517-7.418
			c0.683-1.625,0.913-3.407,0.953-5.158c0.078-3.586-0.686-7.82-0.969-11.396c-0.147-1.855-0.208-3.755,0.062-5.601
			c0.46-3.5,2.36-7.192,3.779-10.398c0.652-1.502,1.252-3.065,1.65-4.655c0.346-1.374,0.546-2.806,0.637-4.219
			c0.175-2.774-0.049-5.587-0.488-8.328c-0.599-3.666-1.607-7.308-2.909-10.785c10.355-10.78,21.41-21.292,33.319-30.348
			c4.105-3.151,8.7-6.105,12.858-9.171c5.193-3.83,10.277-8.034,14.88-12.56c9.072-1.07,18.455-1.618,27.402,0.582
			c4.466,1.073,8.883,2.762,13.122,4.521c6.566,2.813,17.661,7.838,24.259,10.106c4.769,1.682,9.801,3.137,14.71,4.346
			c13.385,3.284,27.498,5.229,41.198,6.706c14.049,1.496,28.788,2.524,42.918,2.728c-2.162,14.861-4.71,30.334-8.464,44.866
			c-2.274,8.373-4.556,17.222-6.049,25.766c-0.76,4.143-1.111,8.457-2.036,12.566c-1.649,7.608-4.277,15.121-7.188,22.333
			c-2.62,6.55-5.253,13.386-6.948,20.234c-0.647,2.723-1.19,5.534-1.09,8.344c0.068,2.006,0.565,4.216,1.886,5.748
			c0.657,0.804,1.46,1.255,2.282,1.774c0.91,0.592,1.813,1.237,2.617,1.968c0.706,0.667,1.32,1.323,1.638,2.164
			c0.022,0.063,0.032,0.094,0.032,0.094c0.02,0.064,0.029,0.096,0.029,0.096c0.239,0.906,0.092,1.729-0.144,2.588
			c-0.327,1.145-0.906,2.259-1.47,3.295c-0.876,1.734-0.959,3.654-0.529,5.507c0.269,1.174,0.726,2.308,1.271,3.381
			c0.754,1.5,1.855,2.974,3.235,3.922c0.932,0.654,1.98,1.065,3.024,1.262c0.627,0.119,1.127,0.152,1.739,0.158
			c5.042-0.012,15.475,0.008,20.473,0c0.367,0,0.569-0.035,0.866-0.11c0.077-0.023,0.116-0.035,0.116-0.035
			c0.075-0.026,0.112-0.04,0.112-0.04c0.072-0.03,0.108-0.045,0.108-0.045c0.07-0.033,0.087-0.041,0.087-0.041
			c0.068-0.036,0.085-0.045,0.085-0.045c0.066-0.038,0.082-0.048,0.082-0.048c0.064-0.041,0.079-0.052,0.079-0.052
			c0.077-0.055,0.092-0.067,0.092-0.067c0.074-0.059,0.088-0.071,0.088-0.071c0.071-0.063,0.084-0.076,0.084-0.076
			c0.067-0.067,0.081-0.081,0.081-0.081c0.052-0.057,0.077-0.086,0.077-0.086c0.049-0.06,0.073-0.091,0.073-0.091
			c0.047-0.064,0.069-0.096,0.069-0.096c0.044-0.067,0.066-0.101,0.066-0.101c0.042-0.07,0.062-0.106,0.062-0.106
			c0.039-0.073,0.058-0.111,0.058-0.111c0.269-0.547,0.353-1.096,0.401-1.659c0.043-0.599,0.015-1.209-0.046-1.805
			c-0.186-1.857-0.764-3.677-1.703-5.29c-0.492-0.851-1.082-1.651-1.737-2.384c-2.258-2.546-4.265-5.478-6.131-8.324
			c-1.647-2.551-3.323-5.246-4.515-8.04c-0.601-1.422-1.122-2.911-1.312-4.449c-0.145-1.243-0.057-2.511,0.111-3.748
			c0.331-2.353,0.987-4.693,1.717-6.951c1.3-3.737,2.375-7.646,3.174-11.522c0.392-1.883,0.772-4.005,1.067-5.906
			c0.311-2.178,0.687-4.438,1.252-6.565c0.742-2.853,1.784-5.668,3.167-8.274c0.891-1.739,2.041-3.286,3.065-4.928
			c1.264-2.048,2.418-4.265,3.444-6.443c1.429-3.048,2.756-6.361,3.904-9.526C448.976,480.837,453.953,467.694,457.289,458.984z"/>
	</g>
</g>
</svg>
