<?xml version="1.0" encoding="utf-8"?>
<!-- Generator: Adobe Illustrator 24.2.0, SVG Export Plug-In . SVG Version: 6.00 Build 0)  -->
<!DOCTYPE svg PUBLIC "-//W3C//DTD SVG 1.1//EN" "http://www.w3.org/Graphics/SVG/1.1/DTD/svg11.dtd" [
	<!ENTITY ns_flows "http://ns.adobe.com/Flows/1.0/">
	<!ENTITY ns_extend "http://ns.adobe.com/Extensibility/1.0/">
	<!ENTITY ns_ai "http://ns.adobe.com/AdobeIllustrator/10.0/">
	<!ENTITY ns_graphs "http://ns.adobe.com/Graphs/1.0/">
	<!ENTITY ns_vars "http://ns.adobe.com/Variables/1.0/">
	<!ENTITY ns_imrep "http://ns.adobe.com/ImageReplacement/1.0/">
	<!ENTITY ns_sfw "http://ns.adobe.com/SaveForWeb/1.0/">
	<!ENTITY ns_custom "http://ns.adobe.com/GenericCustomNamespace/1.0/">
	<!ENTITY ns_adobe_xpath "http://ns.adobe.com/XPath/1.0/">
]>
<svg version="1.1" xmlns:x="&ns_extend;" xmlns:i="&ns_ai;" xmlns:graph="&ns_graphs;"
	 xmlns="http://www.w3.org/2000/svg" xmlns:xlink="http://www.w3.org/1999/xlink" xmlns:a="http://ns.adobe.com/AdobeSVGViewerExtensions/3.0/"
	 x="0px" y="0px" width="750px" height="750px" viewBox="0 0 750 750" enable-background="new 0 0 750 750" xml:space="preserve">
<metadata>
	<sfw  xmlns="&ns_sfw;">
		<slices></slices>
		<sliceSourceBounds  bottomLeftOrigin="true" height="11750" width="4861" x="-2000" y="-3526"></sliceSourceBounds>
	</sfw>
</metadata>
<g id="FILL-BACKGROUND">
	<rect fill="#FFFFFF" width="750" height="750"/>
</g>
<g id="AG-GUIDES">
</g>
<g id="N-DIMENSIONS">
</g>
<g id="AG-DETAIL-DIAGRAM">
</g>
<g id="N-TEXT">
</g>
<g id="AG-DIAGRAM">
	<g id="POLYLINE_38_">
		<g>
			<g>
				
					<line fill="none" stroke="#FB8604" stroke-width="3.25" stroke-linecap="round" stroke-linejoin="round" x1="106.986" y1="606.587" x2="108.986" y2="606.587"/>
				
					<line fill="none" stroke="#FB8604" stroke-width="3.25" stroke-linecap="round" stroke-linejoin="round" stroke-dasharray="4.0395,7.0691" x1="116.055" y1="606.587" x2="490.213" y2="606.587"/>
				
					<line fill="none" stroke="#FB8604" stroke-width="3.25" stroke-linecap="round" stroke-linejoin="round" x1="493.748" y1="606.587" x2="495.748" y2="606.587"/>
			</g>
		</g>
	</g>
</g>
<g id="AG-DETAILS">
	<g id="POLYLINE_227_">
		<path fill="none" stroke="#FB8604" stroke-width="2" stroke-linecap="round" stroke-linejoin="round" stroke-miterlimit="10" d="
			M339.834,427.041c2.119-1.982,4.622-3.541,7.261-4.734c2.662-1.233,6.389-2.354,9.178-3.333c1.269-0.462,2.556-0.974,3.723-1.657
			c1.145-0.658,2.155-1.546,2.957-2.595c2.035-2.641,3.051-6.234,4.645-9.131c0.718-1.324,1.583-2.589,2.658-3.649
			c1.843-1.817,4.155-3.096,6.525-4.094c3.749-1.553,7.767-2.46,11.773-3.047"/>
	</g>
	<g id="POLYLINE_226_">
		<path fill="none" stroke="#FB8604" stroke-width="2" stroke-linecap="round" stroke-linejoin="round" stroke-miterlimit="10" d="
			M407.331,500.945c1.407,0.65,2.942,1.469,4.533,1.346c0.922-0.062,1.719-0.425,2.474-0.915c0.925-0.609,1.733-1.396,2.454-2.232
			c1.872-2.207,3.25-4.821,4.176-7.556c0.836-2.451,1.3-5.711,1.758-8.279c0.346-1.794,0.736-3.645,1.681-5.232
			c0.333-0.556,0.774-1.097,1.264-1.511c0.48-0.409,1.03-0.737,1.598-1.009c2.317-1.091,5.193-1.471,7.586-2.354
			c1.301-0.471,2.597-1.154,3.484-2.238c0.835-0.994,1.37-2.206,1.789-3.425c0.866-2.544,1.336-5.534,2.387-8.015
			c1.76-4.199,5.465-7.131,8.981-9.833"/>
	</g>
	<g id="POLYLINE_225_">
		<path fill="none" stroke="#FB8604" stroke-width="2" stroke-linecap="round" stroke-linejoin="round" stroke-miterlimit="10" d="
			M150.7,473.876c2.394,0.966,4.912,1.745,7.498,1.943c1.758,0.13,3.573-0.037,5.208-0.73c1.294-0.544,2.46-1.364,3.542-2.248
			c1.868-1.536,3.89-3.608,5.764-5.137c2.702-2.286,5.961-3.807,9.24-5.077c3.37-1.317,7.942-2.776,10.983-4.673
			c1.34-0.826,2.595-1.816,3.648-2.99c0.989-1.099,1.796-2.366,2.382-3.723c0.904-2.066,1.439-4.986,1.994-7.181
			c0.573-2.283,1.325-4.581,2.674-6.532c1.085-1.588,2.566-2.873,4.173-3.912c2.386-1.535,5.07-2.595,7.808-3.311
			c4.279-1.083,8.888-1.465,13.166-0.18c3.254,0.957,6.136,2.866,8.805,4.912"/>
	</g>
	<g id="POLYLINE_224_">
		<path fill="none" stroke="#FB8604" stroke-width="2" stroke-linecap="round" stroke-linejoin="round" stroke-miterlimit="10" d="
			M595.694,194.886c-0.336,5.089,0.072,10.401,2.289,15.061c1.557,3.25,3.974,6.023,6.435,8.621
			c1.461,1.495,5.757,5.882,7.109,7.347c4.14,4.482,12.446,13.854,16.763,17.924c4.272,4.145,9.304,8.309,13.969,12.033"/>
	</g>
</g>
<g id="AG-ANIMALS">
	<g id="POLYLINE_254_">
		
			<path fill="none" stroke="#FB8604" stroke-width="2.75" stroke-linecap="round" stroke-linejoin="round" stroke-miterlimit="10" d="
			M260.474,404.566c6.194,0.415,12.495,1.147,18.357,3.282c5.401,1.917,12.888,5.543,18.238,7.673
			c6.322,2.565,13.108,4.658,19.7,6.418c11.26,2.983,23.134,5.275,34.652,7.043c16.809,2.554,34.01,3.982,51.015,4.016"/>
	</g>
	<g id="POLYLINE_255_">
		
			<path fill="none" stroke="#FB8604" stroke-width="2.75" stroke-linecap="round" stroke-linejoin="round" stroke-miterlimit="10" d="
			M392.705,345.504c-2.142,15.575-4.2,31.643-4.181,47.374c0.042,3.383,0.175,6.848,0.616,10.193
			c0.271,2.021,0.641,4.052,1.259,5.995c0.656,1.938,1.662,4.254,2.459,6.15c2.157,4.989,4.668,9.988,7.524,14.615
			c0,0,0.808,1.283,0.808,1.283c0.364,0.582,0.855,1.298,1.231,1.863c0.858,1.226,1.674,2.499,2.36,3.827
			c2.467,4.721,3.841,9.968,4.689,15.205c2.237,14.414,0.792,29.21-1.285,43.56c-1.14,7.989-3.543,19.718-5.153,27.746
			c-2.129,10.164-4.569,21.119-7.47,31.08c-2.368,7.929-4.909,16.197-8.141,23.816c-2.323,5.362-3.414,11.222-3.537,17.05
			c-0.046,2.541,0.007,5.168,0.872,7.586c0.353,0.997,0.965,2.023,1.764,2.682c0.736,0.611,1.54,0.908,2.45,1.02
			c10.682,0.107,47.616,0.009,58.912,0.036c0.5-0.012,1.011-0.053,1.506-0.123c2.854-0.412,5.532-1.695,7.888-3.324
			c1.053-0.753,2.021-1.791,2.543-2.928c0.441-0.937,0.594-1.862,0.572-2.859c-0.03-1.063-0.301-2.111-0.666-3.105
			c-0.678-1.83-1.75-3.498-3.004-4.985c-0.962-1.14-2.061-2.209-3.195-3.177c-1.331-1.088-2.674-2.227-3.86-3.475
			c-2.134-2.209-3.98-4.718-5.507-7.381c-0.535-0.945-1.078-1.934-1.505-2.93c-0.429-1.003-0.772-2.062-1.013-3.126
			c-0.748-3.271-0.554-6.703,0.206-9.953c0.291-1.292,0.725-2.592,1.117-3.857c0.406-1.351,0.787-2.796,1.09-4.173
			c0.636-2.882,1.041-5.854,1.165-8.803c0.163-2.68-0.16-6.544-0.336-9.25c-0.323-4.288-0.905-10.149-1.429-14.42
			c-0.259-2.107-0.478-4.476-0.631-6.593c-0.318-4.449-0.468-9.535-0.496-14c-0.011-1.998-0.011-5.142,0.116-7.141
			c0.267-4.822,0.974-9.74,1.873-14.486c1.253-6.539,3.008-13.282,4.91-19.662c1.384-4.576,2.917-9.411,4.793-13.811
			c0.687-1.577,1.452-3.223,2.382-4.677c0,0,0.14-0.215,0.14-0.215l0.139-0.206l0.069-0.099c0,0,0.069-0.097,0.069-0.097
			s0.069-0.095,0.069-0.095s0.068-0.092,0.068-0.092l0.068-0.09c0.123-0.156,0.269-0.344,0.404-0.493
			c0.308-0.357,0.691-0.701,1.033-0.913c3.503-2.026,10.935-7.082,14.439-9.391c1.158-0.795,2.69-1.864,3.806-2.71
			c4.252-3.2,8.284-6.811,11.882-10.731c1.619-1.783,3.262-3.61,4.575-5.634c1.882-2.865,3.304-6.03,4.397-9.273
			c1.718-5.125,2.674-10.539,3.227-15.907c1.051-9.96,2.302-20.822,4.122-30.635c0.278-1.508,0.664-3.061,1.101-4.532
			c1.79-5.969,4.716-11.582,8.103-16.793c1.469-2.288,3.189-4.552,4.721-6.799c2.183-3.216,4.219-6.641,6.019-10.086
			c2.03-3.889,3.852-7.982,5.412-12.081c1.926-4.909,8.243-25.278,10.034-30.552c0.44-1.204,1.056-2.353,1.802-3.395
			c1.956-2.731,4.754-4.751,7.707-6.291"/>
	</g>
	<g id="POLYLINE_257_">
		
			<path fill="none" stroke="#FB8604" stroke-width="2.75" stroke-linecap="round" stroke-linejoin="round" stroke-miterlimit="10" d="
			M160.461,460.246c-0.701-1.49-1.454-3.055-1.738-4.686c-0.439-2.363,0.2-4.763,0.826-7.034c0.664-2.252,2.094-6.831,2.606-9.049
			c0.607-2.55,1.123-5.232,1.405-7.838c0.089-0.974,0.203-2.046,0.065-3.008c-0.009-0.048-0.013-0.071-0.013-0.071
			c-0.015-0.066-0.02-0.088-0.02-0.088c-0.016-0.061-0.022-0.08-0.022-0.08c-0.018-0.055-0.025-0.072-0.025-0.072
			c-0.027-0.064-0.034-0.078-0.034-0.078c-0.038-0.065-0.046-0.076-0.046-0.076c-0.061-0.064-0.07-0.071-0.07-0.071
			c-0.059-0.03-0.07-0.033-0.07-0.033c-0.066-0.005-0.078-0.004-0.078-0.004c-0.062,0.016-0.068,0.018-0.068,0.018
			c-0.063,0.031-0.07,0.035-0.07,0.035c-0.067,0.045-0.075,0.051-0.075,0.051c-0.055,0.044-0.07,0.058-0.07,0.058
			c-0.065,0.061-0.082,0.077-0.082,0.077c-0.571,0.602-1.021,1.437-1.529,2.071c-0.055,0.065-0.068,0.08-0.068,0.08
			c-0.063,0.067-0.075,0.078-0.075,0.078c-0.067,0.057-0.073,0.061-0.073,0.061c-0.067,0.035-0.074,0.036-0.074,0.036
			c-0.063-0.007-0.068-0.009-0.068-0.009c-0.05-0.063-0.054-0.071-0.054-0.071c-0.021-0.063-0.024-0.073-0.024-0.073
			c-0.011-0.057-0.013-0.069-0.013-0.069c-0.007-0.053-0.01-0.081-0.01-0.081c-0.022-0.272-0.011-0.459-0.004-0.716
			c0.151-2.636,0.266-5.371-0.423-7.938c-1.123-4.303-3.778-8.479-5.701-12.465c-0.834-1.741-1.609-3.552-2.034-5.441
			c-0.583-2.525-0.347-5.158,0.096-7.686c0.462-2.608,1.179-5.722,1.364-8.349c0.396-4.585-0.788-9.159-1.996-13.546
			c-1.818-6.611-4.356-13.701-4.026-20.633c0.235-4.721,1.779-9.32,4.099-13.417c2.445-4.294,5.683-8.165,9.486-11.32
			c2.699-2.232,5.735-4.076,8.901-5.564"/>
	</g>
	<g id="POLYLINE_258_">
		
			<path fill="none" stroke="#FB8604" stroke-width="2.75" stroke-linecap="round" stroke-linejoin="round" stroke-miterlimit="10" d="
			M255.456,323.55c2.486,14.652,5.169,30.922,6.67,45.674c0.521,5.575,1.044,11.451,0.977,17.04
			c-0.096,6.151-0.654,12.416-2.62,18.277c-0.656,1.926-1.486,3.818-2.541,5.561c-0.338,0.554-0.716,1.128-1.1,1.648
			c-2.072,2.759-5.897,7.457-8.138,10.185c-7.726,9.193-16.006,19.187-24.658,27.481c-3.247,3.144-6.865,6.419-10.328,9.322
			c-3.086,2.565-6.419,5.123-9.348,7.861c-4.91,4.525-9.404,9.599-13.06,15.195c-2.024,3.1-3.834,6.398-5.208,9.838
			c-1.617,4.011-2.71,8.252-3.288,12.537c-0.617,4.504-0.632,9.135-0.278,13.662c0.353,4.706,1.076,9.448,2.233,14.024
			c0.798,3.155,1.831,6.333,3.068,9.344c2.783,6.36,7.761,17.097,10.517,23.455c0.369,0.841,0.754,1.813,1.07,2.677
			c1.339,3.681,2.231,7.548,2.784,11.423c0.671,4.746,0.864,10.397,1.144,15.177c0.088,2.424,0.255,5.422,0.163,7.864
			c0,0-0.013,0.161-0.013,0.161s-0.016,0.158-0.016,0.158s-0.009,0.078-0.009,0.078s-0.009,0.077-0.009,0.077
			s-0.01,0.077-0.01,0.077s-0.011,0.076-0.011,0.076s-0.011,0.075-0.011,0.075l-0.012,0.075l-0.012,0.074
			c0,0-0.013,0.073-0.013,0.073s-0.014,0.073-0.014,0.073l-0.014,0.072c0,0-0.015,0.071-0.015,0.071s-0.016,0.071-0.016,0.071
			s-0.016,0.07-0.016,0.07s-0.017,0.069-0.017,0.069c-0.012,0.036-0.053,0.21-0.054,0.203c-0.019,0.066-0.039,0.132-0.039,0.132
			c-0.02,0.065-0.041,0.129-0.041,0.129c-0.022,0.064-0.044,0.127-0.044,0.127c-0.023,0.062-0.046,0.124-0.046,0.124
			c-0.024,0.061-0.049,0.121-0.049,0.121c-0.025,0.06-0.051,0.118-0.051,0.118c-0.026,0.058-0.053,0.116-0.053,0.116
			c-0.028,0.057-0.056,0.113-0.056,0.113c-0.029,0.055-0.058,0.11-0.058,0.11c-0.03,0.054-0.061,0.107-0.061,0.107
			c-0.031,0.053-0.063,0.105-0.063,0.105c-0.033,0.051-0.066,0.102-0.066,0.102c-0.034,0.05-0.068,0.099-0.068,0.099
			c-0.035,0.049-0.071,0.096-0.071,0.096c-0.036,0.047-0.073,0.094-0.073,0.094c-0.037,0.046-0.075,0.091-0.075,0.091
			c-0.039,0.044-0.078,0.088-0.078,0.088c-0.04,0.043-0.08,0.085-0.08,0.085c-0.041,0.042-0.083,0.083-0.083,0.083
			c-0.042,0.04-0.085,0.08-0.085,0.08c-0.043,0.039-0.088,0.077-0.088,0.077c-0.045,0.038-0.09,0.074-0.09,0.074
			c-0.046,0.036-0.092,0.072-0.092,0.072c-0.047,0.035-0.095,0.069-0.095,0.069c-0.048,0.033-0.097,0.066-0.097,0.066
			c-0.05,0.032-0.1,0.063-0.1,0.063c-0.051,0.031-0.102,0.061-0.102,0.061c-0.052,0.029-0.105,0.058-0.105,0.058
			c-0.053,0.028-0.107,0.055-0.107,0.055c-0.054,0.026-0.109,0.052-0.109,0.052c-0.056,0.025-0.112,0.05-0.112,0.05
			c-0.057,0.024-0.114,0.047-0.114,0.047c-0.058,0.022-0.117,0.044-0.117,0.044c-0.059,0.021-0.119,0.041-0.119,0.041
			c-0.06,0.02-0.122,0.039-0.122,0.039c-0.062,0.018-0.124,0.036-0.124,0.036c-0.063,0.017-0.126,0.033-0.126,0.033
			c-0.064,0.015-0.129,0.03-0.129,0.03c-0.065,0.014-0.131,0.028-0.131,0.028c-0.067,0.013-0.134,0.025-0.134,0.025
			c-0.068,0.011-0.136,0.022-0.136,0.022s-0.069,0.01-0.069,0.01s-0.07,0.009-0.07,0.009l-0.07,0.009l-0.071,0.008
			c-0.27,0.027-0.548,0.043-0.819,0.042c-13.29-0.076-37.588,0.15-50.907-0.087c-1.611-0.122-3.249-0.329-4.789-0.834
			c-0.89-0.289-1.854-0.742-2.555-1.333c-0.824-0.702-1.523-1.667-1.854-2.676c-0.317-0.946-0.382-1.907-0.271-2.885
			c0.036-0.318,0.091-0.642,0.159-0.954c0.285-1.224,0.818-3.701,1.08-4.945c1.833-8.492,3.805-20.589,5.191-29.27
			c1.058-6.697,2.354-15.815,3.223-22.531c0.434-3.557,1.128-9.328,1.622-12.766c0.766-5.161,1.755-10.43,3.227-15.438
			c0.437-1.518,1.004-3.061,1.487-4.564c0.413-1.309,0.786-2.69,1.063-4.033c0.472-2.34,0.736-4.777,0.343-7.147
			c-0.051-0.655-1.635-6.079-1.815-6.855c-0.836-3.349-2.474-8.876-2.858-12.248c-0.305-2.49-0.403-5.088,0.325-7.516
			c0.424-1.373,1.139-2.649,2.008-3.789c1.156-1.517,2.589-2.825,4.104-3.978c4.273-3.259,8.361-7.079,12.191-10.849
			c4.59-4.542,8.654-9.805,10.941-15.896c0.945-2.54,1.678-5.277,1.352-8.006c-0.16-1.253-0.613-2.459-1.057-3.634
			c-2.616-6.631-6.601-12.764-9.531-19.25c-2.413-5.21-4.709-11.028-6.699-16.424c-2.062-5.673-4.246-12.02-5.814-17.844
			c-1.052-3.999-2.045-8.155-2.278-12.296c-0.172-3.518,0.23-7.076,0.998-10.508c0.451-2.013,1.045-4.056,1.718-6.006
			c0.516-1.472,1.087-3.014,1.766-4.422c2.04-4.295,4.8-8.258,7.754-11.97c5.37-6.646,11.433-12.879,18.241-18.062
			c5.684-4.361,11.87-8.164,18.241-11.434c7.288-3.759,15.011-6.874,23-8.776c4.621-1.102,9.432-1.829,14.178-2.067
			c5.207-0.242,10.656,0.057,15.858,0.347c6.634,0.439,13.445,1.214,19.974,2.482c7.42,1.579,15.074,2.772,22.629,3.469
			c16.216,1.44,33.869,1.344,50.166,1.266"/>
	</g>
	<g id="POLYLINE_259_">
		
			<path fill="none" stroke="#FB8604" stroke-width="2.75" stroke-linecap="round" stroke-linejoin="round" stroke-miterlimit="10" d="
			M538.121,174.365c-2.751,1.777-5.694,3.635-7.525,6.421c-0.797,1.181-1.374,2.509-1.823,3.857
			c-1.237,3.64-2.108,10.05-2.838,13.873c-0.616,3.287-1.401,6.647-2.464,9.818c-2.048,6.139-4.935,12.047-8.402,17.508
			c-1.961,3.072-4.174,6.088-6.596,8.812c-1.997,2.239-4.203,4.347-6.657,6.079c-2.222,1.575-4.676,2.845-7.253,3.73
			c-3.074,1.062-6.333,1.593-9.572,1.801c-1.736,0.103-3.527,0.123-5.26-0.046c-0.901-0.096-1.843-0.227-2.687-0.561
			c-0.151-0.062-0.258-0.117-0.345-0.166c-0.05-0.029-0.075-0.044-0.075-0.044c-0.047-0.03-0.07-0.045-0.07-0.045
			c-0.065-0.046-0.085-0.062-0.085-0.062c-0.058-0.048-0.077-0.064-0.077-0.064c-0.067-0.066-0.083-0.083-0.083-0.083
			c-0.043-0.051-0.056-0.068-0.056-0.068c-0.036-0.053-0.046-0.07-0.046-0.07c-0.028-0.054-0.037-0.072-0.037-0.072
			c-0.023-0.062-0.027-0.074-0.027-0.074c-0.016-0.068-0.018-0.079-0.018-0.079c-0.007-0.058-0.007-0.069-0.007-0.069
			c-0.001-0.059,0-0.071,0-0.071c0.005-0.06,0.007-0.072,0.007-0.072c0.011-0.061,0.013-0.074,0.013-0.074
			c0.016-0.062,0.02-0.075,0.02-0.075c0.021-0.064,0.026-0.077,0.026-0.077c0.026-0.065,0.032-0.078,0.032-0.078
			c0.024-0.053,0.037-0.079,0.037-0.079c0.028-0.054,0.043-0.081,0.043-0.081c0.031-0.055,0.048-0.082,0.048-0.082
			c0.622-0.939,1.653-1.78,2.378-2.615c0.708-0.801,1.43-1.778,1.717-2.797c0.015-0.066,0.019-0.088,0.019-0.088
			c0.011-0.063,0.014-0.083,0.014-0.083c0.007-0.059,0.009-0.078,0.009-0.078c0.003-0.064,0.003-0.073,0.003-0.073
			c-0.002-0.06-0.003-0.068-0.003-0.068c-0.008-0.063-0.01-0.07-0.01-0.07c-0.017-0.063-0.02-0.069-0.02-0.069
			c-0.033-0.065-0.036-0.07-0.036-0.07c-0.066-0.067-0.071-0.07-0.071-0.07c-0.061-0.031-0.072-0.035-0.072-0.035
			c-0.061-0.015-0.074-0.017-0.074-0.017c-0.056-0.004-0.07-0.005-0.07-0.005c-0.062,0.002-0.078,0.003-0.078,0.003
			c-0.067,0.008-0.085,0.011-0.085,0.011c-0.054,0.01-0.073,0.014-0.073,0.014c-0.373,0.091-0.638,0.223-0.962,0.374
			c-0.61,0.284-2.777,1.529-3.406,1.875c-1.613,0.878-3.289,1.745-5.075,2.206c-1.668,0.454-3.806,0.521-5.535,0.646
			c-1.286,0.103-2.587,0.308-3.779,0.821c-1.701,0.726-3.104,2-4.356,3.335c-1.553,1.678-2.932,3.586-4.214,5.477
			c-5.203,7.813-10.712,18.391-16.524,25.745c-0.613,0.763-1.291,1.574-1.988,2.262c-0.383,0.378-0.824,0.77-1.269,1.035
			c-0.063,0.036-0.093,0.052-0.093,0.052c-0.061,0.032-0.091,0.046-0.091,0.046c-0.059,0.027-0.088,0.04-0.088,0.04
			c-0.057,0.023-0.085,0.034-0.085,0.034c-0.055,0.019-0.083,0.028-0.083,0.028c-0.054,0.015-0.08,0.021-0.08,0.021
			c-0.052,0.011-0.077,0.015-0.077,0.015c-0.05,0.006-0.074,0.008-0.074,0.008c-0.048,0.002-0.071,0.001-0.071,0.001
			c-0.046-0.003-0.068-0.005-0.068-0.005c-0.065-0.012-0.087-0.018-0.087-0.018c-0.061-0.021-0.081-0.03-0.081-0.03
			c-0.057-0.031-0.076-0.043-0.076-0.043c-0.053-0.04-0.07-0.055-0.07-0.055c-0.063-0.067-0.07-0.076-0.07-0.076
			c-0.048-0.066-0.054-0.076-0.054-0.076c-0.037-0.064-0.043-0.075-0.043-0.075c-0.029-0.058-0.035-0.07-0.035-0.07
			c-0.022-0.049-0.032-0.075-0.032-0.075c-0.02-0.053-0.03-0.08-0.03-0.08c-0.232-0.707-0.252-1.583-0.335-2.314
			c-0.024-0.232-0.067-0.546-0.121-0.734c-0.02-0.067-0.027-0.089-0.027-0.089c-0.022-0.06-0.026-0.069-0.026-0.069
			c-0.028-0.061-0.033-0.069-0.033-0.069c-0.041-0.064-0.046-0.07-0.046-0.07c-0.065-0.06-0.074-0.065-0.074-0.065
			c-0.063-0.024-0.073-0.026-0.073-0.026c-0.06-0.002-0.071-0.001-0.071-0.001c-0.066,0.015-0.077,0.019-0.077,0.019
			c-0.059,0.025-0.071,0.032-0.071,0.032c-0.063,0.037-0.076,0.045-0.076,0.045c-0.066,0.047-0.08,0.058-0.08,0.058
			c-0.056,0.046-0.07,0.058-0.07,0.058c-0.044,0.039-0.073,0.066-0.073,0.066c-0.061,0.059-0.092,0.09-0.092,0.09
			c-0.29,0.3-0.51,0.594-0.758,0.917c-0.813,1.086-2.017,2.841-2.866,3.869c-1.107,1.392-2.399,2.654-3.845,3.692
			c-3.54,2.561-8.214,4.238-12.05,6.295c-2.686,1.391-5.873,3.491-8.59,4.818c-0.575,0.267-1.257,0.568-1.868,0.642
			c-0.052,0.005-0.078,0.007-0.078,0.007c-0.05,0.003-0.075,0.003-0.075,0.003c-0.048,0-0.072,0-0.072,0
			c-0.046-0.002-0.068-0.004-0.068-0.004c-0.065-0.007-0.086-0.011-0.086-0.011c-0.061-0.012-0.08-0.017-0.08-0.017
			c-0.056-0.017-0.074-0.024-0.074-0.024c-0.052-0.023-0.068-0.031-0.068-0.031c-0.062-0.038-0.077-0.049-0.077-0.049
			c-0.067-0.06-0.079-0.074-0.079-0.074c-0.045-0.058-0.055-0.074-0.055-0.074c-0.036-0.068-0.044-0.086-0.044-0.086
			c-0.022-0.059-0.027-0.073-0.027-0.073c-0.016-0.058-0.019-0.073-0.019-0.073c-0.012-0.063-0.014-0.079-0.014-0.079
			c-0.008-0.067-0.01-0.084-0.01-0.084c-0.004-0.053-0.005-0.071-0.005-0.071c-0.01-0.609,0.14-1.135,0.284-1.708
			c0.234-0.932,0.678-2.111,0.772-3.064c0.003-0.068,0.004-0.084,0.004-0.084c0-0.064,0-0.079,0-0.079
			c-0.003-0.059-0.004-0.074-0.004-0.074c-0.009-0.068-0.011-0.081-0.011-0.081c-0.014-0.061-0.017-0.072-0.017-0.072
			c-0.024-0.063-0.029-0.073-0.029-0.073c-0.046-0.068-0.056-0.079-0.056-0.079c-0.058-0.045-0.071-0.052-0.071-0.052
			c-0.057-0.023-0.072-0.027-0.072-0.027c-0.066-0.011-0.083-0.012-0.083-0.012c-0.055-0.001-0.074,0-0.074,0
			c-0.06,0.006-0.081,0.009-0.081,0.009c-0.065,0.012-0.088,0.017-0.088,0.017c-0.046,0.012-0.07,0.018-0.07,0.018
			c-0.049,0.015-0.074,0.023-0.074,0.023c-0.465,0.167-0.795,0.376-1.182,0.61c-0.454,0.278-1.112,0.742-1.558,1.052
			c-1.929,1.362-4.208,3.063-6.249,4.208c-1.029,0.583-2.114,1.104-3.249,1.444c-1.201,0.367-2.465,0.538-3.719,0.553
			c-2.683,0.027-5.633-0.561-8.317-0.533c-3.195-0.008-6.59,0.765-9.76,1.09c-0.664,0.056-1.427,0.117-2.068-0.018
			c-0.051-0.012-0.076-0.019-0.076-0.019c-0.049-0.014-0.072-0.021-0.072-0.021c-0.046-0.015-0.068-0.023-0.068-0.023
			c-0.064-0.025-0.085-0.034-0.085-0.034c-0.059-0.029-0.077-0.039-0.077-0.039c-0.053-0.032-0.07-0.043-0.07-0.043
			c-0.062-0.047-0.076-0.06-0.076-0.06c-0.063-0.067-0.074-0.081-0.074-0.081c-0.039-0.06-0.048-0.076-0.048-0.076
			c-0.028-0.066-0.034-0.083-0.034-0.083c-0.014-0.054-0.017-0.072-0.017-0.072c-0.008-0.067-0.009-0.082-0.009-0.082
			c0-0.061,0-0.076,0-0.076c0.006-0.064,0.008-0.08,0.008-0.08c0.011-0.067,0.015-0.084,0.015-0.084
			c0.012-0.052,0.016-0.07,0.016-0.07c0.015-0.054,0.021-0.072,0.021-0.072c0.202-0.595,0.527-1.045,0.865-1.547
			c0.613-0.908,1.612-2.058,2.09-3.039c0.029-0.068,0.036-0.084,0.036-0.084c0.024-0.065,0.03-0.08,0.03-0.08
			c0.019-0.061,0.023-0.076,0.023-0.076c0.014-0.058,0.017-0.072,0.017-0.072c0.01-0.067,0.011-0.08,0.011-0.08
			c0.001-0.065,0.001-0.077,0.001-0.077c-0.008-0.06-0.011-0.071-0.011-0.071c-0.023-0.064-0.028-0.074-0.028-0.074
			c-0.043-0.064-0.051-0.073-0.051-0.073c-0.06-0.053-0.07-0.06-0.07-0.06c-0.065-0.038-0.077-0.043-0.077-0.043
			c-0.064-0.026-0.077-0.031-0.077-0.031c-0.057-0.017-0.072-0.021-0.072-0.021c-0.062-0.014-0.079-0.017-0.079-0.017
			c-0.068-0.011-0.085-0.013-0.085-0.013c-0.59-0.06-1.126,0.03-1.699,0.098c-1.549,0.218-3.295,0.505-4.851,0.539
			c-1.422,0.034-2.854-0.105-4.245-0.404c-1.021-0.235-2.13-0.532-2.997-1.12c-0.066-0.049-0.081-0.061-0.081-0.061
			c-0.06-0.049-0.074-0.061-0.074-0.061c-0.067-0.061-0.08-0.074-0.08-0.074c-0.058-0.061-0.069-0.074-0.069-0.074
			c-0.049-0.061-0.058-0.074-0.058-0.074c-0.04-0.061-0.047-0.073-0.047-0.073c-0.03-0.061-0.035-0.073-0.035-0.073
			c-0.02-0.06-0.023-0.072-0.023-0.072c-0.01-0.06-0.011-0.072-0.011-0.072c0.001-0.06,0.002-0.073,0.002-0.073
			c0.013-0.064,0.016-0.076,0.016-0.076c0.025-0.063,0.031-0.075,0.031-0.075c0.036-0.062,0.045-0.075,0.045-0.075
			c0.048-0.062,0.058-0.074,0.058-0.074c0.059-0.061,0.072-0.074,0.072-0.074c0.055-0.049,0.069-0.061,0.069-0.061
			c0.062-0.049,0.078-0.061,0.078-0.061c0.512-0.359,1.024-0.548,1.579-0.782c2.134-0.836,4.403-1.632,6.334-2.838
			c2.129-1.321,3.914-3.149,5.583-4.999c2.823-3.188,5.73-6.703,9.205-9.166c5.987-4.277,14.743-6.55,21.651-8.993
			c4.293-1.516,8.696-3.134,12.462-5.734c2.083-1.445,3.944-3.22,5.61-5.126c2.823-3.226,5.508-7.28,8.406-10.437
			c1.55-1.71,3.295-3.27,5.115-4.688c6.493-5.023,14.64-9.331,20.958-14.579c5.126-4.134,10.03-10.311,14.344-15.305
			c3.3-3.79,6.841-7.542,11.042-10.343c6.123-4.129,14.02-6.606,20.733-9.591c2.555-1.141,5.106-2.449,7.404-4.056
			c2.529-1.749,4.866-3.845,7.07-5.984c0,0,4.917-4.864,4.917-4.864s0.986-0.943,0.986-0.943s0.497-0.464,0.497-0.464
			s0.501-0.458,0.501-0.458c1.106-1.005,2.336-2.026,3.525-2.934c4.509-3.468,9.821-6.402,14.789-9.161"/>
	</g>
	<g id="POLYLINE_261_">
		
			<path fill="none" stroke="#FB8604" stroke-width="2.75" stroke-linecap="round" stroke-linejoin="round" stroke-miterlimit="10" d="
			M639.408,258.598c-0.996,0.408-2.135,0.887-2.929,1.601c-0.229,0.205-0.407,0.409-0.544,0.597
			c-0.044,0.063-0.066,0.094-0.066,0.094c-0.042,0.064-0.062,0.097-0.062,0.097c-0.04,0.066-0.059,0.099-0.059,0.099
			c-0.101,0.181-0.156,0.308-0.211,0.46c-0.348,1.039-0.198,2.067,0.017,3.078c0.301,1.309,0.808,2.578,1.37,3.796
			c0.367,0.785,0.796,1.626,1.226,2.379c0.307,0.533,0.701,1.158,1.108,1.577c0.065,0.065,0.086,0.086,0.086,0.086
			c0.065,0.06,0.086,0.08,0.086,0.08c0.065,0.055,0.087,0.073,0.087,0.073c0.065,0.05,0.087,0.066,0.087,0.066
			c0.065,0.045,0.087,0.059,0.087,0.059c0.065,0.039,0.087,0.052,0.087,0.052c0.065,0.034,0.076,0.039,0.076,0.039
			c0.065,0.029,0.076,0.033,0.076,0.033c0.065,0.024,0.076,0.027,0.076,0.027c0.065,0.019,0.076,0.021,0.076,0.021
			c0.066,0.013,0.077,0.015,0.077,0.015c0.066,0.008,0.077,0.009,0.077,0.009c0.066,0.002,0.077,0.002,0.077,0.002
			c0.066-0.004,0.077-0.005,0.077-0.005c0.066-0.009,0.077-0.011,0.077-0.011c0.063-0.014,0.077-0.018,0.077-0.018
			c0.059-0.019,0.074-0.024,0.074-0.024c0.059-0.023,0.074-0.03,0.074-0.03c0.059-0.028,0.074-0.036,0.074-0.036
			c0.059-0.033,0.074-0.042,0.074-0.042c0.059-0.038,0.074-0.047,0.074-0.047c0.059-0.042,0.074-0.053,0.074-0.053
			c0.059-0.046,0.074-0.059,0.074-0.059c0.059-0.051,0.088-0.077,0.088-0.077c0.059-0.056,0.088-0.085,0.088-0.085
			c0.059-0.061,0.088-0.092,0.088-0.092c0.741-0.85,1.161-1.896,1.525-2.94c0.603-1.808,0.893-3.724,0.88-5.628
			c-0.022-3.374-0.886-6.713-2.211-9.802c-1.223-2.899-3.293-6.146-4.904-8.868c-1.56-2.683-4.726-8.356-6.406-10.891
			c-1.127-1.73-2.393-3.457-3.703-5.053c-2.973-3.701-9.519-10.104-12.858-13.581c-4.811-4.856-12.95-14.822-17.437-20.11
			c-1.81-2.111-4.733-5.314-6.639-7.379"/>
	</g>
	<g id="POLYLINE_262_">
		
			<path fill="none" stroke="#FB8604" stroke-width="2.75" stroke-linecap="round" stroke-linejoin="round" stroke-miterlimit="10" d="
			M553.936,187.699c-1.433-0.498-2.89-1.05-4.244-1.735c-1.264-0.635-2.482-1.405-3.604-2.266
			c-6.501-5.043-10.75-12.779-11.814-20.913c-0.321-2.353-0.436-4.757-0.347-7.13c0.086-2.124,0.326-4.273,0.859-6.334
			c0.255-0.965,0.578-1.924,1.041-2.811c0.418-0.796,0.989-1.584,1.748-2.007c0.042-0.023,0.084-0.045,0.084-0.045
			c0.042-0.021,0.085-0.041,0.085-0.041c0.043-0.019,0.086-0.038,0.086-0.038c0.043-0.018,0.087-0.035,0.087-0.035
			c0.042-0.015,0.084-0.03,0.084-0.03c0.043-0.014,0.085-0.027,0.085-0.027c0.043-0.012,0.086-0.024,0.086-0.024
			c0.043-0.011,0.087-0.02,0.087-0.02c0.044-0.009,0.088-0.017,0.088-0.017c0.044-0.007,0.088-0.014,0.088-0.014
			c0.8-0.109,1.559,0.14,2.236,0.458c0.749,0.359,1.443,0.841,2.097,1.351c1.776,1.403,3.394,3.134,4.923,4.801
			c2.044,2.346,10.575,11.816,12.313,14.058c1.077,1.361,2.121,2.805,2.994,4.306c1.39,2.369,2.39,5.002,2.68,7.744
			c0.47,4.349-0.657,8.993-1.022,13.315c-0.059,0.795-0.092,1.614-0.014,2.409c0.06,0.606,0.204,1.263,0.51,1.759
			c0.043,0.068,0.065,0.101,0.065,0.101c0.046,0.065,0.069,0.096,0.069,0.096c0.049,0.061,0.074,0.091,0.074,0.091
			c0.052,0.058,0.078,0.087,0.078,0.087c0.053,0.054,0.071,0.071,0.071,0.071c0.056,0.051,0.074,0.067,0.074,0.067
			c0.058,0.048,0.078,0.064,0.078,0.064c0.06,0.045,0.081,0.06,0.081,0.06c0.062,0.043,0.084,0.056,0.084,0.056
			c0.065,0.04,0.087,0.053,0.087,0.053c0.755,0.431,1.657,0.438,2.441,0.322c1.571-0.257,3.026-1.044,4.079-2.144
			c0.644-0.686,1.052-1.433,1.458-2.258c0.282-0.577,0.669-1.472,1.039-1.985c0.05-0.067,0.075-0.099,0.075-0.099
			c0.051-0.063,0.076-0.093,0.076-0.093c0.052-0.058,0.065-0.072,0.065-0.072c0.067-0.067,0.08-0.08,0.08-0.08
			c0.055-0.049,0.069-0.061,0.069-0.061c0.056-0.045,0.07-0.055,0.07-0.055c0.058-0.04,0.073-0.05,0.073-0.05
			c0.059-0.036,0.075-0.044,0.075-0.044c0.061-0.031,0.077-0.038,0.077-0.038c0.063-0.026,0.079-0.032,0.079-0.032
			c0.065-0.021,0.082-0.025,0.082-0.025c0.067-0.016,0.084-0.019,0.084-0.019c0.052-0.008,0.069-0.01,0.069-0.01
			c0.053-0.005,0.071-0.006,0.071-0.006c0.055-0.001,0.073-0.001,0.073-0.001c0.056,0.002,0.075,0.003,0.075,0.003
			c0.058,0.006,0.077,0.008,0.077,0.008c0.059,0.009,0.079,0.013,0.079,0.013c0.05,0.01,0.08,0.017,0.08,0.017
			c0.061,0.016,0.091,0.025,0.091,0.025c0.062,0.02,0.094,0.031,0.094,0.031c0.064,0.024,0.096,0.036,0.096,0.036
			c0.066,0.027,0.099,0.042,0.099,0.042c0.479,0.219,0.855,0.493,1.264,0.805c0.724,0.565,1.432,1.232,2.093,1.87
			c1.056,1.036,2.817,2.842,3.906,3.805c0.447,0.392,1.002,0.854,1.51,1.117c0.059,0.029,0.088,0.043,0.088,0.043
			c0.057,0.026,0.085,0.037,0.085,0.037c0.055,0.022,0.082,0.032,0.082,0.032c0.053,0.018,0.079,0.026,0.079,0.026
			c0.051,0.014,0.077,0.02,0.077,0.02c0.049,0.01,0.074,0.014,0.074,0.014c0.047,0.006,0.071,0.008,0.071,0.008
			c0.067,0.002,0.089,0.001,0.089,0.001c0.063-0.007,0.084-0.01,0.084-0.01c0.056-0.014,0.07-0.019,0.07-0.019
			c0.065-0.028,0.078-0.035,0.078-0.035c0.06-0.039,0.072-0.047,0.072-0.047c0.066-0.059,0.076-0.071,0.076-0.071
			c0.05-0.06,0.059-0.073,0.059-0.073c0.037-0.055,0.045-0.069,0.045-0.069c0.034-0.061,0.042-0.077,0.042-0.077
			c0.031-0.066,0.039-0.084,0.039-0.084c0.022-0.053,0.029-0.072,0.029-0.072c0.02-0.057,0.027-0.076,0.027-0.076
			c0.16-0.523,0.182-0.98,0.222-1.5c0.088-1.239,0.022-2.897,0.456-4.059c0.027-0.066,0.037-0.087,0.037-0.087
			c0.029-0.063,0.039-0.084,0.039-0.084c0.027-0.053,0.041-0.078,0.041-0.078c0.028-0.05,0.043-0.075,0.043-0.075
			c0.03-0.048,0.045-0.071,0.045-0.071c0.031-0.046,0.047-0.068,0.047-0.068c0.049-0.065,0.065-0.086,0.065-0.086
			c0.051-0.061,0.068-0.081,0.068-0.081c0.053-0.057,0.071-0.076,0.071-0.076c0.055-0.054,0.073-0.071,0.073-0.071
			c0.056-0.051,0.075-0.067,0.075-0.067c0.323-0.276,0.656-0.43,0.996-0.642c0.067-0.043,0.099-0.065,0.099-0.065
			c0.062-0.045,0.077-0.056,0.077-0.056c0.058-0.047,0.071-0.059,0.071-0.059c0.065-0.061,0.077-0.074,0.077-0.074
			c0.057-0.066,0.062-0.073,0.062-0.073c0.044-0.063,0.048-0.071,0.048-0.071c0.036-0.068,0.04-0.076,0.04-0.076
			c0.025-0.065,0.028-0.073,0.028-0.073c0.017-0.064,0.02-0.079,0.02-0.079c0.01-0.062,0.012-0.078,0.012-0.078
			c0.005-0.066,0.005-0.083,0.005-0.083c0-0.052,0-0.069,0-0.069c-0.003-0.054-0.005-0.072-0.005-0.072
			c-0.006-0.056-0.008-0.075-0.008-0.075c-0.009-0.058-0.012-0.077-0.012-0.077c-0.012-0.06-0.016-0.08-0.016-0.08
			c-0.187-0.747-0.55-1.35-0.911-2.007c-0.793-1.383-1.909-3.096-2.475-4.574c-0.246-0.645-0.404-1.328-0.513-2.008
			c-0.113-0.7-0.227-1.741-0.436-2.408c-0.158-0.552-0.448-1.134-0.769-1.565c-0.712-0.953-1.542-1.628-2.459-2.336
			c-1.664-1.275-4.628-3.05-6.42-4.195c-1.117-0.746-2.406-1.548-3.235-2.598c-0.115-0.152-0.195-0.281-0.255-0.394
			c-0.027-0.052-0.04-0.078-0.04-0.078c-0.025-0.052-0.037-0.078-0.037-0.078c-0.022-0.052-0.033-0.078-0.033-0.078
			c-0.02-0.052-0.029-0.078-0.029-0.078c-0.017-0.052-0.025-0.078-0.025-0.078c-0.015-0.052-0.021-0.078-0.021-0.078
			c-0.012-0.052-0.017-0.078-0.017-0.078c-0.009-0.052-0.013-0.078-0.013-0.078c-0.007-0.052-0.009-0.079-0.009-0.079
			c-0.004-0.052-0.005-0.079-0.005-0.079c-0.001-0.066-0.001-0.079-0.001-0.079c0.002-0.066,0.003-0.079,0.003-0.079
			c0.006-0.066,0.007-0.079,0.007-0.079c0.007-0.053,0.011-0.079,0.011-0.079c0.01-0.053,0.016-0.079,0.016-0.079
			c0.013-0.053,0.02-0.08,0.02-0.08c0.019-0.062,0.024-0.08,0.024-0.08c0.019-0.053,0.025-0.071,0.025-0.071
			c0.021-0.054,0.029-0.072,0.029-0.072c0.231-0.52,0.559-0.887,0.916-1.3c0.671-0.745,1.62-1.724,2.184-2.538
			c0.523-0.731,0.964-1.568,1.209-2.41c0.331-1.13,0.428-2.327,0.357-3.499c-0.066-0.95-0.246-2.017-0.701-2.835
			c-0.037-0.063-0.05-0.084-0.05-0.084c-0.038-0.06-0.051-0.08-0.051-0.08c-0.039-0.057-0.053-0.075-0.053-0.075
			c-0.04-0.053-0.054-0.071-0.054-0.071c-0.055-0.066-0.07-0.081-0.07-0.081c-0.057-0.06-0.072-0.074-0.072-0.074
			c-0.059-0.053-0.074-0.066-0.074-0.066c-0.06-0.047-0.076-0.058-0.076-0.058c-0.062-0.04-0.077-0.049-0.077-0.049
			c-0.063-0.033-0.079-0.041-0.079-0.041c-0.065-0.026-0.081-0.032-0.081-0.032c-0.066-0.019-0.083-0.023-0.083-0.023
			c-0.068-0.011-0.085-0.013-0.085-0.013c-0.065-0.004-0.078-0.004-0.078-0.004c-0.067,0.003-0.08,0.004-0.08,0.004
			c-0.068,0.01-0.081,0.012-0.081,0.012c-0.055,0.012-0.069,0.016-0.069,0.016c-0.056,0.016-0.07,0.021-0.07,0.021
			c-0.056,0.02-0.07,0.025-0.07,0.025c-0.057,0.023-0.071,0.03-0.071,0.03c-0.057,0.027-0.086,0.041-0.086,0.041
			c-0.058,0.031-0.087,0.047-0.087,0.047c-0.058,0.034-0.088,0.052-0.088,0.052c-0.802,0.517-1.439,1.334-2.165,1.902
			c-0.078,0.06-0.129,0.095-0.156,0.113c-0.051,0.033-0.076,0.049-0.076,0.049c-0.05,0.03-0.074,0.043-0.074,0.043
			c-0.06,0.032-0.072,0.037-0.072,0.037c-0.059,0.026-0.071,0.031-0.071,0.031c-0.057,0.021-0.069,0.024-0.069,0.024
			c-0.067,0.017-0.078,0.02-0.078,0.02c-0.064,0.009-0.075,0.009-0.075,0.009c-0.063,0-0.07-0.001-0.07-0.001
			c-0.067-0.01-0.074-0.012-0.074-0.012c-0.065-0.02-0.071-0.022-0.071-0.022c-0.062-0.028-0.068-0.032-0.068-0.032
			c-0.066-0.04-0.078-0.048-0.078-0.048c-0.058-0.044-0.07-0.054-0.07-0.054c-0.068-0.062-0.079-0.073-0.079-0.073
			c-0.055-0.057-0.077-0.081-0.077-0.081c-0.115-0.128-0.286-0.357-0.387-0.484c-0.066-0.081-0.112-0.132-0.134-0.157
			c-0.058-0.061-0.07-0.072-0.07-0.072c-0.06-0.056-0.072-0.066-0.072-0.066c-0.062-0.05-0.074-0.06-0.074-0.06
			c-0.064-0.044-0.077-0.052-0.077-0.052c-0.067-0.036-0.074-0.039-0.074-0.039c-0.062-0.025-0.075-0.03-0.075-0.03
			c-0.056-0.016-0.07-0.02-0.07-0.02c-0.058-0.011-0.073-0.013-0.073-0.013c-0.06-0.005-0.075-0.006-0.075-0.006
			c-0.062,0-0.077,0-0.077,0c-0.064,0.005-0.08,0.007-0.08,0.007c-0.066,0.01-0.082,0.013-0.082,0.013
			c-0.068,0.014-0.085,0.018-0.085,0.018c-0.052,0.014-0.069,0.019-0.069,0.019c-0.564,0.183-0.986,0.495-1.456,0.814
			c-1.14,0.813-2.423,1.819-3.645,2.494c-3.293,1.843-7.202,2.2-10.911,2.006"/>
	</g>
	<g id="POLYLINE_263_">
		
			<path fill="none" stroke="#FB8604" stroke-width="2.75" stroke-linecap="round" stroke-linejoin="round" stroke-miterlimit="10" d="
			M530.769,233.179c-0.018,2.67,0.129,5.384,0.708,7.996c0.461,2.099,1.212,4.144,2.249,6.027c2.27,4.069,5.639,7.456,9.377,10.198
			c2.139,1.551,4.452,2.895,6.892,3.911c2.334,0.976,4.843,1.614,7.32,2.117c3.553,0.702,7.755,1.322,11.13,2.532
			c6.409,2.313,12.044,6.993,17.797,10.538c7.367,4.542,15.545,7.813,23.918,9.957c6.905,1.722,14.465,2.28,21.175-0.484
			c2.014-0.844,3.945-2.018,5.383-3.684c2.233-2.591,2.991-6.083,3.247-9.412"/>
	</g>
</g>
<g id="AG-OUTLINE">
	<g id="POLYLINE_7_">
		
			<path fill="none" stroke="#FB8604" stroke-width="3.5" stroke-linecap="round" stroke-linejoin="round" stroke-miterlimit="10" d="
			M402.437,432.998c3.803,5.285,5.754,11.664,6.868,18.017c2.457,14.603,1.024,29.618-1.064,44.181
			c-1.593,10.626-4.295,23.82-6.535,34.367c-2.289,10.627-5.052,21.82-8.374,32.165c-1.596,5.055-3.439,10.529-5.463,15.425
			c-0.893,2.048-1.738,4.219-2.32,6.38c-0.89,3.21-1.404,6.552-1.592,9.876c-0.127,2.724-0.207,5.525,0.425,8.197
			c0.277,1.162,0.73,2.32,1.481,3.253c0.734,0.912,1.68,1.438,2.773,1.639c10.616,0.24,47.713,0.013,58.976,0.089
			c0.591-0.001,1.192-0.043,1.777-0.126c1.945-0.272,3.816-0.977,5.545-1.893c1.037-0.57,2.088-1.169,2.989-1.941
			c2.038-1.731,2.833-3.99,2.324-6.56c-0.672-3.304-2.719-6.148-5.078-8.481c-1.067-1.077-2.301-2.027-3.446-3.016
			c-1.178-1.037-2.315-2.183-3.342-3.37c-1.703-1.966-3.202-4.14-4.468-6.411c-0.482-0.887-0.98-1.792-1.355-2.727
			c-0.48-1.168-0.841-2.399-1.069-3.641c-0.563-3.046-0.341-6.2,0.359-9.205c0.289-1.289,0.726-2.594,1.117-3.857
			c0.526-1.744,0.985-3.571,1.338-5.358c0.531-2.689,0.856-5.458,0.938-8.198c0.12-2.36-0.204-6.262-0.356-8.67
			c-0.175-2.386-0.616-7.148-0.866-9.526c-0.319-3.018-0.872-7.119-1.088-10.1c-0.525-6.74-0.686-13.91-0.567-20.671
			c0.294-8.681,1.972-17.378,4.052-25.795c2.072-7.992,4.375-16.182,7.522-23.823c0.901-2.064,1.851-4.18,3.244-5.966
			c0.39-0.493,0.818-0.915,1.297-1.218c4.921-2.976,12.248-7.867,16.98-11.17c5.751-4.167,11.062-9.053,15.629-14.493
			c2.858-3.4,4.872-7.448,6.322-11.627c1.2-3.463,2.042-7.117,2.638-10.731c0.683-4.09,1.228-10.483,1.711-14.545
			c0.841-7.182,1.894-14.968,3.22-22.078c0.375-1.919,0.899-3.843,1.517-5.696c2.472-7.356,6.564-14.09,11.134-20.322
			c5.449-7.663,9.775-16.143,13.031-24.957c2.1-5.653,7.819-24.24,9.781-29.87c0.373-0.936,0.859-1.845,1.423-2.68
			c1.958-2.898,4.87-5.03,7.943-6.631c2.39,1.02,4.964,1.68,7.507,2.196c3.553,0.702,7.755,1.322,11.13,2.532
			c6.409,2.313,12.044,6.993,17.797,10.538c7.367,4.542,15.545,7.813,23.918,9.957c6.905,1.722,14.465,2.28,21.175-0.484
			c2.014-0.844,3.945-2.018,5.383-3.684c2.233-2.591,2.991-6.083,3.247-9.412c0.066,0.021,0.083,0.026,0.083,0.026
			c0.066,0.016,0.083,0.019,0.083,0.019c0.067,0.01,0.075,0.011,0.075,0.011c0.067,0.004,0.075,0.004,0.075,0.004
			c0.067-0.001,0.075-0.002,0.075-0.002c0.067-0.007,0.075-0.008,0.075-0.008c0.067-0.013,0.082-0.016,0.082-0.016
			c0.059-0.017,0.074-0.021,0.074-0.021c0.059-0.021,0.074-0.027,0.074-0.027c0.059-0.026,0.074-0.033,0.074-0.033
			c0.059-0.031,0.074-0.039,0.074-0.039c0.059-0.036,0.074-0.045,0.074-0.045c0.059-0.04,0.074-0.051,0.074-0.051
			c0.059-0.045,0.074-0.056,0.074-0.056c0.059-0.049,0.089-0.075,0.089-0.075c0.059-0.054,0.088-0.082,0.088-0.082
			c0.059-0.059,0.088-0.09,0.088-0.09c0.731-0.817,1.147-1.83,1.51-2.842c0.581-1.695,0.887-3.491,0.92-5.282
			c0.062-3.42-0.766-6.819-2.074-9.964c-1.24-3.034-3.36-6.35-5.037-9.183c-1.746-2.998-4.882-8.664-6.8-11.486
			c-1.146-1.713-2.433-3.42-3.758-4.999c-3.541-4.264-10.318-10.744-14.112-14.832c-3.84-3.997-12.073-14.008-15.735-18.319
			c-1.857-2.157-4.692-5.277-6.639-7.379c0.013-0.06,0.016-0.075,0.016-0.075c0.008-0.064,0.009-0.08,0.009-0.08
			c0.003-0.067,0.003-0.084,0.003-0.084c-0.002-0.053-0.003-0.071-0.003-0.071c-0.005-0.055-0.007-0.073-0.007-0.073
			c-0.007-0.057-0.01-0.076-0.01-0.076c-0.01-0.059-0.014-0.079-0.014-0.079c-0.178-0.761-0.554-1.379-0.919-2.047
			c-0.793-1.383-1.909-3.096-2.475-4.574c-0.246-0.645-0.404-1.328-0.513-2.008c-0.113-0.7-0.227-1.741-0.436-2.408
			c-0.158-0.552-0.448-1.134-0.769-1.565c-0.712-0.953-1.542-1.628-2.459-2.336c-1.664-1.275-4.628-3.05-6.42-4.195
			c-1.117-0.746-2.406-1.548-3.235-2.598c-0.115-0.152-0.195-0.281-0.255-0.394c-0.027-0.052-0.04-0.078-0.04-0.078
			c-0.025-0.052-0.037-0.078-0.037-0.078c-0.022-0.052-0.033-0.078-0.033-0.078c-0.02-0.052-0.029-0.078-0.029-0.078
			c-0.017-0.052-0.025-0.078-0.025-0.078c-0.015-0.052-0.021-0.078-0.021-0.078c-0.012-0.052-0.017-0.078-0.017-0.078
			c-0.009-0.052-0.013-0.078-0.013-0.078c-0.007-0.052-0.009-0.079-0.009-0.079c-0.004-0.052-0.005-0.079-0.005-0.079
			c-0.001-0.066-0.001-0.079-0.001-0.079c0.002-0.066,0.003-0.079,0.003-0.079c0.006-0.066,0.007-0.079,0.007-0.079
			c0.007-0.053,0.011-0.079,0.011-0.079c0.01-0.053,0.016-0.079,0.016-0.079c0.013-0.053,0.02-0.08,0.02-0.08
			c0.019-0.062,0.024-0.08,0.024-0.08c0.019-0.053,0.025-0.071,0.025-0.071c0.021-0.054,0.029-0.072,0.029-0.072
			c0.231-0.52,0.559-0.887,0.916-1.3c0.671-0.745,1.62-1.724,2.184-2.538c0.523-0.731,0.964-1.568,1.209-2.41
			c0.331-1.13,0.428-2.327,0.357-3.499c-0.066-0.95-0.246-2.017-0.701-2.835c-0.037-0.063-0.05-0.084-0.05-0.084
			c-0.038-0.06-0.051-0.08-0.051-0.08c-0.039-0.057-0.053-0.075-0.053-0.075c-0.04-0.053-0.054-0.071-0.054-0.071
			c-0.055-0.066-0.07-0.081-0.07-0.081c-0.057-0.06-0.072-0.074-0.072-0.074c-0.059-0.053-0.074-0.066-0.074-0.066
			c-0.06-0.047-0.076-0.058-0.076-0.058c-0.062-0.04-0.077-0.049-0.077-0.049c-0.063-0.033-0.079-0.041-0.079-0.041
			c-0.065-0.026-0.081-0.032-0.081-0.032c-0.066-0.019-0.083-0.023-0.083-0.023c-0.068-0.011-0.085-0.013-0.085-0.013
			c-0.065-0.004-0.078-0.004-0.078-0.004c-0.067,0.003-0.08,0.004-0.08,0.004c-0.068,0.01-0.081,0.012-0.081,0.012
			c-0.055,0.012-0.069,0.016-0.069,0.016c-0.056,0.016-0.07,0.021-0.07,0.021c-0.056,0.02-0.07,0.025-0.07,0.025
			c-0.057,0.023-0.071,0.03-0.071,0.03c-0.057,0.027-0.086,0.041-0.086,0.041c-0.058,0.031-0.087,0.047-0.087,0.047
			c-0.058,0.034-0.088,0.052-0.088,0.052c-0.802,0.517-1.439,1.334-2.165,1.902c-0.078,0.06-0.129,0.095-0.156,0.113
			c-0.051,0.033-0.076,0.049-0.076,0.049c-0.05,0.03-0.074,0.043-0.074,0.043c-0.06,0.032-0.072,0.037-0.072,0.037
			c-0.059,0.026-0.071,0.031-0.071,0.031c-0.057,0.021-0.069,0.024-0.069,0.024c-0.067,0.017-0.078,0.02-0.078,0.02
			c-0.064,0.009-0.075,0.009-0.075,0.009c-0.063,0-0.07-0.001-0.07-0.001c-0.067-0.01-0.074-0.012-0.074-0.012
			c-0.065-0.02-0.071-0.022-0.071-0.022c-0.062-0.028-0.068-0.032-0.068-0.032c-0.066-0.04-0.078-0.048-0.078-0.048
			c-0.058-0.044-0.07-0.054-0.07-0.054c-0.068-0.062-0.079-0.073-0.079-0.073c-0.055-0.057-0.077-0.081-0.077-0.081
			c-0.115-0.128-0.286-0.357-0.387-0.484c-0.066-0.081-0.112-0.132-0.134-0.157c-0.058-0.061-0.07-0.072-0.07-0.072
			c-0.06-0.056-0.072-0.066-0.072-0.066c-0.062-0.05-0.074-0.06-0.074-0.06c-0.064-0.044-0.077-0.052-0.077-0.052
			c-0.067-0.036-0.074-0.039-0.074-0.039c-0.062-0.025-0.075-0.03-0.075-0.03c-0.056-0.016-0.07-0.02-0.07-0.02
			c-0.058-0.011-0.073-0.013-0.073-0.013c-0.06-0.005-0.075-0.006-0.075-0.006c-0.062,0-0.077,0-0.077,0
			c-0.064,0.005-0.08,0.007-0.08,0.007c-0.066,0.01-0.082,0.013-0.082,0.013c-0.068,0.014-0.085,0.018-0.085,0.018
			c-0.052,0.014-0.069,0.019-0.069,0.019c-0.564,0.183-0.986,0.495-1.456,0.814c-1.14,0.813-2.423,1.819-3.645,2.494
			c-3.293,1.843-7.202,2.2-10.911,2.006l-5.567-6.329c-1.53-1.668-3.146-3.397-4.923-4.801c-0.654-0.51-1.348-0.992-2.097-1.351
			c-0.706-0.337-1.494-0.566-2.236-0.458c-0.044,0.007-0.088,0.014-0.088,0.014c-0.044,0.008-0.088,0.017-0.088,0.017
			c-0.044,0.01-0.087,0.02-0.087,0.02c-0.043,0.011-0.086,0.024-0.086,0.024c-0.043,0.013-0.085,0.027-0.085,0.027
			c-0.249,0.083-0.465,0.201-0.649,0.326c-0.068,0.047-0.101,0.072-0.101,0.072c-0.067,0.051-0.1,0.077-0.1,0.077
			c-0.066,0.054-0.098,0.082-0.098,0.082c-0.6,0.535-0.949,1.103-1.302,1.784c-0.391,0.781-0.681,1.624-0.913,2.465
			c-1,3.811-1.098,7.833-0.783,11.744c-4.985,2.765-10.289,5.702-14.789,9.161c-3.289,2.415-7.468,6.756-10.426,9.664
			c-2.208,2.143-4.539,4.234-7.07,5.984c-2.298,1.607-4.846,2.913-7.404,4.056c-6.729,2.995-14.606,5.462-20.733,9.591
			c-4.202,2.801-7.741,6.552-11.042,10.343c-4.333,5.021-9.209,11.155-14.344,15.304c-6.316,5.247-14.468,9.558-20.958,14.579
			c-1.82,1.418-3.565,2.977-5.115,4.688c-2.899,3.157-5.584,7.211-8.406,10.437c-1.665,1.905-3.527,3.681-5.61,5.126
			c-3.764,2.599-8.173,4.22-12.462,5.734c-6.891,2.436-15.653,4.711-21.651,8.993c-3.48,2.464-6.391,5.993-9.205,9.166
			c-1.633,1.811-3.383,3.605-5.454,4.918c-1.985,1.266-4.289,2.067-6.463,2.92c-0.482,0.197-1.05,0.429-1.475,0.708
			c-0.054,0.037-0.071,0.049-0.071,0.049c-0.066,0.049-0.081,0.061-0.081,0.061c-0.059,0.049-0.073,0.061-0.073,0.061
			c-0.064,0.061-0.076,0.074-0.076,0.074c-0.053,0.062-0.063,0.074-0.063,0.074c-0.042,0.062-0.049,0.074-0.049,0.074
			c-0.031,0.063-0.036,0.075-0.036,0.075c-0.019,0.063-0.021,0.076-0.021,0.076c-10.934,0.321-24.826,0.059-35.839-0.289
			c-9.886-0.347-19.92-1.225-29.66-2.948c-3.596-0.622-7.436-1.509-11.038-2.09c-6.023-0.989-12.319-1.61-18.413-1.942
			c-4.068-0.194-8.447-0.387-12.515-0.267c-3.103,0.108-6.336,0.431-9.401,0.926c-11.437,1.83-22.343,6.258-32.446,11.829
			c-6.513,3.587-12.786,7.769-18.466,12.574c-4.522,3.804-8.706,8.188-12.547,12.674c-3.167,1.488-6.202,3.332-8.901,5.564
			c-3.803,3.155-7.041,7.026-9.486,11.32c-2.32,4.096-3.865,8.696-4.099,13.417c-0.332,6.926,2.208,14.026,4.026,20.633
			c1.208,4.388,2.391,8.96,1.996,13.546c-0.184,2.623-0.904,5.752-1.364,8.349c-0.443,2.527-0.679,5.162-0.096,7.686
			c0.425,1.888,1.199,3.701,2.034,5.441c1.925,3.984,4.576,8.157,5.701,12.465c0.689,2.567,0.574,5.308,0.423,7.939
			c-0.007,0.203-0.015,0.497,0.002,0.687c0.006,0.058,0.007,0.072,0.007,0.072c0.01,0.063,0.012,0.075,0.012,0.075
			c0.015,0.063,0.018,0.072,0.018,0.072c0.027,0.062,0.031,0.068,0.031,0.068c0.067,0.048,0.073,0.048,0.073,0.048
			c0.065-0.015,0.072-0.019,0.072-0.019c0.065-0.045,0.07-0.05,0.07-0.05c0.059-0.055,0.071-0.068,0.071-0.068
			c0.556-0.636,1.022-1.532,1.586-2.14c0.05-0.052,0.067-0.069,0.067-0.069c0.065-0.061,0.081-0.075,0.081-0.075
			c0.062-0.05,0.07-0.056,0.07-0.056c0.067-0.044,0.074-0.048,0.074-0.048c0.063-0.029,0.069-0.032,0.069-0.032
			c0.067-0.014,0.078-0.015,0.078-0.015c0.065,0.009,0.076,0.012,0.076,0.012c0.068,0.041,0.077,0.049,0.077,0.049
			c0.051,0.06,0.059,0.072,0.059,0.072c0.037,0.068,0.044,0.083,0.044,0.083c0.026,0.066,0.033,0.083,0.033,0.083
			c0.018,0.056,0.023,0.076,0.023,0.076c0.016,0.062,0.021,0.084,0.021,0.084c0.164,0.917,0.063,1.807-0.002,2.715
			c-0.266,2.748-0.809,5.561-1.445,8.247c-0.506,2.201-1.951,6.833-2.606,9.049c-0.626,2.271-1.265,4.671-0.826,7.034
			c0.283,1.63,1.038,3.198,1.738,4.686c-1.814,1.584-3.906,2.94-5.609,4.645c-1.587,1.578-2.95,3.457-3.616,5.613
			c-0.407,1.327-0.544,2.73-0.553,4.113c-0.008,2.007,0.271,4.041,0.659,6.008c0.294,1.686,1.978,7.846,2.427,9.643
			c0.066,0.27,1.689,6.141,1.681,6.184c0.103,0.446,0.181,0.917,0.232,1.371c0.237,2.15-0.014,4.336-0.442,6.447
			c-0.276,1.343-0.651,2.726-1.063,4.033c-0.481,1.501-1.052,3.048-1.487,4.564c-1.634,5.571-2.676,11.427-3.473,17.173
			c-2.657,21.576-5.83,44.19-10.351,65.467c0,0-0.491,2.188-0.491,2.188c-0.041,0.187-0.091,0.414-0.121,0.605
			c-0.043,0.262-0.08,0.551-0.098,0.817c-0.078,0.986,0.069,2.034,0.449,2.923c0.393,0.931,0.975,1.651,1.708,2.292
			c0.709,0.586,1.441,0.928,2.272,1.236c2.335,0.812,4.853,0.974,7.308,1.016c12.669-0.033,36.879,0.078,49.489-0.039
			c0.875-0.08,1.752-0.381,2.406-0.889c1.397-1.099,1.723-2.881,1.755-4.533c0.009-5.329-0.432-11.619-0.77-16.967
			c-0.161-2.22-0.402-4.506-0.763-6.697c-0.558-3.432-1.397-6.858-2.587-10.127c-2.58-6.517-7.657-17.268-10.54-23.722
			c-1.982-4.32-3.492-8.905-4.542-13.539c-0.981-4.328-1.589-8.801-1.874-13.228c-0.507-7.151,0.098-14.452,2.247-21.311
			c2.762-8.963,8.168-16.916,14.473-23.771c3.876-4.222,8.285-8.028,12.78-11.575c4.097-3.347,8.278-7.09,12.079-10.77
			c8.687-8.344,16.995-18.347,24.742-27.583c2.029-2.473,6.199-7.578,8.149-10.213c0.38-0.525,0.756-1.1,1.088-1.657
			c1.012-1.698,1.81-3.529,2.449-5.398c6.194,0.415,12.495,1.147,18.357,3.282c5.401,1.917,12.888,5.543,18.238,7.673
			c6.225,2.52,12.882,4.592,19.367,6.33c11.36,3.023,23.365,5.351,34.985,7.132C368.23,431.535,385.432,432.963,402.437,432.998z"/>
	</g>
</g>
</svg>
