<?xml version="1.0" encoding="utf-8"?>
<!-- Generator: Adobe Illustrator 24.2.0, SVG Export Plug-In . SVG Version: 6.00 Build 0)  -->
<!DOCTYPE svg PUBLIC "-//W3C//DTD SVG 1.1//EN" "http://www.w3.org/Graphics/SVG/1.1/DTD/svg11.dtd" [
	<!ENTITY ns_flows "http://ns.adobe.com/Flows/1.0/">
	<!ENTITY ns_extend "http://ns.adobe.com/Extensibility/1.0/">
	<!ENTITY ns_ai "http://ns.adobe.com/AdobeIllustrator/10.0/">
	<!ENTITY ns_graphs "http://ns.adobe.com/Graphs/1.0/">
	<!ENTITY ns_vars "http://ns.adobe.com/Variables/1.0/">
	<!ENTITY ns_imrep "http://ns.adobe.com/ImageReplacement/1.0/">
	<!ENTITY ns_sfw "http://ns.adobe.com/SaveForWeb/1.0/">
	<!ENTITY ns_custom "http://ns.adobe.com/GenericCustomNamespace/1.0/">
	<!ENTITY ns_adobe_xpath "http://ns.adobe.com/XPath/1.0/">
]>
<svg version="1.1" xmlns:x="&ns_extend;" xmlns:i="&ns_ai;" xmlns:graph="&ns_graphs;"
	 xmlns="http://www.w3.org/2000/svg" xmlns:xlink="http://www.w3.org/1999/xlink" xmlns:a="http://ns.adobe.com/AdobeSVGViewerExtensions/3.0/"
	 x="0px" y="0px" width="750px" height="750px" viewBox="0 0 750 750" enable-background="new 0 0 750 750" xml:space="preserve">
<metadata>
	<sfw  xmlns="&ns_sfw;">
		<slices></slices>
		<sliceSourceBounds  bottomLeftOrigin="true" height="11750" width="4861" x="-2000" y="-3526"></sliceSourceBounds>
	</sfw>
</metadata>
<g id="FILL-BACKGROUND">
	<rect fill="#FFFFFF" width="750" height="750"/>
</g>
<g id="AG-GUIDES">
</g>
<g id="N-DIMENSIONS">
</g>
<g id="AG-DETAIL-DIAGRAM">
</g>
<g id="N-TEXT">
</g>
<g id="AG-DIAGRAM">
	<g id="POLYLINE_42_">
		<g>
			<g>
				
					<line fill="none" stroke="#FB8604" stroke-width="3.25" stroke-linecap="round" stroke-linejoin="round" x1="110.066" y1="587.915" x2="112.066" y2="587.915"/>
				
					<line fill="none" stroke="#FB8604" stroke-width="3.25" stroke-linecap="round" stroke-linejoin="round" stroke-dasharray="4.033,7.0577" x1="119.124" y1="587.915" x2="481.586" y2="587.915"/>
				
					<line fill="none" stroke="#FB8604" stroke-width="3.25" stroke-linecap="round" stroke-linejoin="round" x1="485.115" y1="587.915" x2="487.115" y2="587.915"/>
			</g>
		</g>
	</g>
</g>
<g id="AG-DETAILS">
</g>
<g id="AG-ANIMALS">
	<g id="POLYLINE_326_">
		
			<path fill="none" stroke="#FB8604" stroke-width="2.75" stroke-linecap="round" stroke-linejoin="round" stroke-miterlimit="10" d="
			M232.552,398.709c3.749-2.19,7.996-4.065,12.43-3.725c3.61,0.3,6.963,1.926,10.135,3.573c5.714,3.123,13.126,7.353,18.942,10.162
			c10.664,5.253,21.846,9.963,33.282,13.246c11.048,3.168,22.526,5.009,33.995,5.667c15.681,1.015,33.976-0.757,49.708-1.815
			c3.556-0.203,7.345-0.355,10.898-0.211c3.234,0.1,7.877,0.626,11.135,0.95"/>
	</g>
	<g id="POLYLINE_229_">
		
			<path fill="none" stroke="#FB8604" stroke-width="2.75" stroke-linecap="round" stroke-linejoin="round" stroke-miterlimit="10" d="
			M568.865,236.405c-1.536,4.893-2.101,10.085-1.789,15.199c0.322,5.106,1.58,10.237,4.227,14.651
			c2.046,3.449,4.901,6.395,8.204,8.658c3.022,2.082,6.446,3.631,9.828,5.033c3.752,1.525,10.354,4.003,13.854,5.786
			c4.181,2.045,10.034,5.656,14.208,7.724c1.56,0.774,3.21,1.502,4.849,2.091c2.058,0.752,5.165,1.666,7.197,2.464
			c1.466,0.578,2.922,1.267,4.155,2.259c2.772,2.222,3.795,5.934,6.377,8.316c2.073,1.883,4.891,2.547,7.612,2.716
			c1.883,0.103,3.786-0.054,5.632-0.433c2.016-0.416,3.987-1.119,5.765-2.162c1.372-0.804,2.631-1.819,3.687-3.009
			c1-1.122,1.818-2.412,2.448-3.775c1.715-3.748,2.231-7.995,1.768-12.073c-0.91-7.824-5.873-14.369-10.86-20.169
			c-3.84-4.418-9.013-9.962-12.416-14.633c-2.688-3.658-5.109-7.647-7.145-11.704c-1.273-2.542-2.479-5.306-3.486-7.964
			c-1.354-3.54-2.988-8.554-4.815-11.837c-0.822-1.494-1.84-2.896-2.985-4.158c-1.326-1.474-2.887-2.824-4.415-4.086"/>
	</g>
	<g id="POLYLINE_228_">
		
			<path fill="none" stroke="#FB8604" stroke-width="2.75" stroke-linecap="round" stroke-linejoin="round" stroke-miterlimit="10" d="
			M661.568,282.71c-0.054,0.006-0.163,0.017-0.217,0.021l-0.883,0.064c-0.46,0.036-0.977,0.126-1.359,0.306
			c-0.075,0.036-0.099,0.048-0.099,0.048c-0.073,0.039-0.098,0.053-0.098,0.053c-0.072,0.043-0.096,0.058-0.096,0.058
			c-0.071,0.047-0.094,0.063-0.094,0.063c-0.07,0.051-0.093,0.069-0.093,0.069c-0.068,0.056-0.091,0.075-0.091,0.075
			c-0.067,0.06-0.089,0.081-0.089,0.081c-0.065,0.065-0.087,0.087-0.087,0.087c-0.063,0.07-0.084,0.094-0.084,0.094
			c-0.057,0.069-0.075,0.092-0.075,0.092c-0.053,0.07-0.07,0.094-0.07,0.094c-0.633,0.934-0.858,1.951-1.039,3.017
			c-0.208,1.384-0.213,2.806-0.04,4.194c0.184,1.401,0.547,2.816,1.299,4.027c0.796,1.272,2.107,2.445,3.621,2.628
			c0.075,0.006,0.112,0.009,0.112,0.009c0.073,0.003,0.11,0.004,0.11,0.004c0.072,0,0.108-0.001,0.108-0.001
			c0.071-0.003,0.106-0.006,0.106-0.006c0.069-0.007,0.103-0.011,0.103-0.011c0.068-0.01,0.084-0.013,0.084-0.013
			c0.066-0.013,0.082-0.016,0.082-0.016c0.065-0.016,0.09-0.022,0.09-0.022c0.074-0.022,0.098-0.03,0.098-0.03
			c0.072-0.026,0.095-0.036,0.095-0.036c0.07-0.03,0.092-0.041,0.092-0.041c0.067-0.034,0.09-0.046,0.09-0.046
			c0.065-0.038,0.087-0.051,0.087-0.051c0.063-0.042,0.084-0.056,0.084-0.056c0.061-0.045,0.081-0.061,0.081-0.061
			c0.059-0.049,0.079-0.065,0.079-0.065c0.057-0.052,0.076-0.07,0.076-0.07c0.074-0.074,0.092-0.093,0.092-0.093
			c0.053-0.059,0.07-0.079,0.07-0.079c0.051-0.062,0.068-0.083,0.068-0.083c0.049-0.065,0.066-0.087,0.066-0.087
			c0.341-0.479,0.527-0.988,0.683-1.493c0.153-0.513,0.266-1.055,0.349-1.585c0.258-1.734,0.211-3.557-0.393-5.217"/>
	</g>
	<g id="POLYLINE_223_">
		
			<path fill="none" stroke="#FB8604" stroke-width="2.75" stroke-linecap="round" stroke-linejoin="round" stroke-miterlimit="10" d="
			M612.95,195.896c1.625,1.261,3.069,2.762,4.291,4.416c1.093,1.489,2.024,3.117,2.643,4.861c0.618,1.7,0.797,3.529,0.807,5.328
			l0.003,2.915c-0.011,2.116,0.379,4.569,0.535,6.682c0.043,0.77,0.084,1.643-0.121,2.379c-0.019,0.062-0.026,0.082-0.026,0.082
			c-0.021,0.059-0.028,0.079-0.028,0.079c-0.022,0.057-0.03,0.075-0.03,0.075c-0.033,0.072-0.041,0.089-0.041,0.089
			c-0.036,0.067-0.045,0.083-0.045,0.083c-0.039,0.062-0.049,0.077-0.049,0.077c-0.053,0.071-0.064,0.085-0.064,0.085
			c-0.058,0.064-0.07,0.076-0.07,0.076c-0.072,0.063-0.081,0.07-0.081,0.07c-0.075,0.051-0.084,0.057-0.084,0.057
			c-0.07,0.038-0.08,0.043-0.08,0.043c-0.074,0.032-0.085,0.036-0.085,0.036c-0.066,0.022-0.078,0.025-0.078,0.025
			c-0.069,0.017-0.081,0.02-0.081,0.02c-0.071,0.013-0.084,0.015-0.084,0.015c-0.074,0.009-0.099,0.011-0.099,0.011
			c-0.051,0.003-0.076,0.004-0.076,0.004c-0.052,0.001-0.078,0-0.078,0c-0.053-0.002-0.08-0.003-0.08-0.003
			c-0.054-0.004-0.081-0.007-0.081-0.007c-0.055-0.006-0.082-0.01-0.082-0.01c-1.178-0.202-2.239-1.009-2.899-1.899
			c-0.834-1.153-1.204-2.592-1.75-3.867c-0.672-1.612-1.621-3.11-2.655-4.513c-1.1-1.483-2.337-2.887-3.655-4.18
			c-1.06-1.076-2.607-2.336-3.295-3.685c-0.035-0.075-0.052-0.112-0.052-0.112c-0.032-0.074-0.046-0.112-0.046-0.112
			c-0.028-0.074-0.041-0.111-0.041-0.111c-0.024-0.074-0.035-0.111-0.035-0.111c-0.02-0.074-0.03-0.111-0.03-0.111
			c-0.016-0.074-0.02-0.092-0.02-0.092c-0.013-0.074-0.016-0.092-0.016-0.092c-0.01-0.074-0.011-0.092-0.011-0.092
			c-0.006-0.074-0.007-0.092-0.007-0.092c-0.002-0.074-0.003-0.092-0.003-0.092c0.001-0.072,0.002-0.09,0.002-0.09
			c0.005-0.071,0.006-0.089,0.006-0.089c0.008-0.071,0.01-0.089,0.01-0.089c0.011-0.071,0.018-0.107,0.018-0.107
			c0.015-0.071,0.024-0.107,0.024-0.107c0.019-0.071,0.029-0.107,0.029-0.107c0.023-0.071,0.035-0.107,0.035-0.107
			c0.026-0.071,0.04-0.107,0.04-0.107c0.03-0.071,0.045-0.107,0.045-0.107c0.033-0.071,0.05-0.107,0.05-0.107
			c0.612-1.152,1.564-1.912,2.496-2.737c1.75-1.477,3.755-3.116,5.255-4.832c1.574-1.75,2.833-3.784,3.728-5.96
			c1.513-3.672,2.317-7.644,2.457-11.609c0.023-0.813,0.015-1.653-0.061-2.464c-0.049-0.526-0.14-1.127-0.315-1.613
			c-0.025-0.066-0.038-0.098-0.038-0.098c-0.027-0.062-0.04-0.092-0.04-0.092c-0.028-0.058-0.042-0.085-0.042-0.085
			c-0.037-0.066-0.044-0.079-0.044-0.079c-0.046-0.072-0.054-0.083-0.054-0.083c-0.057-0.073-0.065-0.083-0.065-0.083
			c-0.069-0.07-0.078-0.078-0.078-0.078c-0.073-0.055-0.082-0.061-0.082-0.061c-0.067-0.035-0.077-0.039-0.077-0.039
			c-0.071-0.022-0.08-0.024-0.08-0.024c-0.067-0.009-0.077-0.01-0.077-0.01c-0.07,0.001-0.08,0.002-0.08,0.002
			c-0.073,0.011-0.083,0.014-0.083,0.014c-0.064,0.017-0.075,0.021-0.075,0.021c-0.066,0.025-0.078,0.029-0.078,0.029
			c-0.068,0.031-0.08,0.037-0.08,0.037c-0.07,0.038-0.093,0.052-0.093,0.052c-0.072,0.045-0.096,0.061-0.096,0.061
			c-0.519,0.373-0.849,0.78-1.233,1.221c-0.494,0.586-1.543,1.94-2.035,2.528c-1.145,1.378-2.408,2.702-3.754,3.884
			c-2.91,2.559-6.28,4.634-9.646,6.536c-5.261,2.945-10.859,5.487-16.502,7.613c-18.645,6.834-39.651,13.759-56.223,24.766
			c-3.132,2.096-6.168,4.433-8.892,7.039c-3.231,3.069-6.131,6.568-8.784,10.144c-2.485,3.449-7.819,11.067-10.419,14.224
			c-1.817,2.239-3.823,4.453-5.893,6.459c-4.438,4.301-9.431,8.124-14.772,11.234c-4.525,2.63-9.368,4.794-14.417,6.197
			c-4.319,1.208-8.826,1.77-13.305,1.851c-3.2,0.06-6.543-0.112-9.73-0.403c-5.683-0.551-26.777-3.271-32.666-4.045
			c-2.612-0.405-5.298-0.855-7.803-1.719c-1.435-0.514-3.025-1.214-3.9-2.492c-1.199-1.821-0.234-3.878,1.317-5.047
			c0.857-0.66,1.832-1.099,2.836-1.476c1.876-0.687,3.894-1.127,5.85-1.523c4.797-0.962,10.66-1.716,15.149-3.61
			c3.905-1.606,7.392-4.493,11.063-6.532c1.393-0.77,2.868-1.431,4.385-1.916c3.695-1.186,8.41-1.703,12.26-2.319
			c2.454-0.394,5.015-0.847,7.378-1.617c1.379-0.452,2.742-1.026,3.956-1.828c1.519-0.997,2.748-2.379,3.792-3.853
			c1.38-1.945,2.815-4.575,4.312-6.432c0.855-1.071,1.837-2.062,2.957-2.855c1.336-0.948,2.847-1.643,4.371-2.228
			c2.634-1.025,6.851-2.084,9.562-2.92c2.164-0.682,4.38-1.439,6.272-2.721c0.989-0.668,1.839-1.543,2.49-2.543
			c1.115-1.675,1.81-3.854,2.543-5.707c0.628-1.585,1.386-3.172,2.58-4.414c0.878-0.916,1.95-1.632,3.065-2.227
			c1.833-0.97,3.841-1.662,5.814-2.288l7.681-2.302c1.773-0.569,3.595-1.214,5.289-1.984c1.632-0.739,3.25-1.648,4.773-2.592
			c4.339-2.679,8.654-6.236,13.474-8.017c2.463-0.928,5.114-1.29,7.737-1.307c3.534-0.028,7.114,0.497,10.585,1.126
			c4.503,0.839,10.803,2.352,15.324,2.522c2.647,0.125,5.335-0.126,7.891-0.836c3.458-0.947,7.367-2.846,10.82-3.809
			c1.27-0.357,2.586-0.616,3.905-0.687c1.685-0.098,3.386,0.075,5.037,0.41"/>
	</g>
	<g id="POLYLINE_221_">
		
			<path fill="none" stroke="#FB8604" stroke-width="2.75" stroke-linecap="round" stroke-linejoin="round" stroke-miterlimit="10" d="
			M397.988,268.826c-5.346,4.196-11.297,7.67-17.493,10.452c-5.534,2.462-11.361,4.442-17.335,5.493
			c-10.268,1.813-20.906,0.464-31.136-1.027c-23.485-3.604-54.387-10.463-77.864-13.593c-5.164-0.668-10.666-1.246-15.866-1.442
			c-4.588-0.178-9.279-0.09-13.848,0.373c-4.184,0.413-8.449,1.177-12.549,2.109c-20.654,4.705-36.181,13.208-47.587,31.576
			c-4.037,6.586-7.12,13.881-8.304,21.545c-0.698,4.568-0.639,9.254,0.001,13.826c1.093,7.856,3.755,15.533,6.436,22.969
			c4.751,12.923,15.292,38.965,18.731,52.004c0.792,2.959,1.476,6.031,1.902,9.066c0.592,4.165,0.655,8.452,0.075,12.623
			c-1.497,10.594-6.295,20.83-10.723,30.483c-1.221,2.803-2.373,5.737-2.59,8.814c-0.139,1.867,0.158,3.746,0.645,5.545
			c0.574,2.218,2.166,6.29,2.943,8.489c1.295,3.631,2.097,7.464,2.571,11.285c0.502,3.905,0.736,8.307,0.894,12.256
			c0.349,11.064,0.852,25.305,1.687,36.255c0.171,2.186,0.351,4.549,0.744,6.702c0.246,1.336,0.584,2.68,1.12,3.931
			c0.479,1.133,1.156,2.184,1.984,3.093c1.258,1.393,2.82,2.489,4.425,3.445c1.27,1.121,2.526,2.313,3.599,3.627
			c0.613,0.76,1.189,1.575,1.563,2.481c0.219,0.527,0.307,1.02,0.369,1.565c0.072,0.662,0.075,1.347,0.045,2.012
			c-0.071,1.475-0.312,2.978-0.6,4.427c-0.249,1.159-0.493,2.36-0.53,3.547c-0.031,0.935,0.053,1.984,0.487,2.805
			c0.04,0.073,0.06,0.109,0.06,0.109c0.042,0.07,0.064,0.105,0.064,0.105c0.044,0.067,0.067,0.1,0.067,0.1
			c0.047,0.065,0.071,0.096,0.071,0.096c0.049,0.062,0.074,0.092,0.074,0.092c0.051,0.059,0.078,0.088,0.078,0.088
			c0.054,0.056,0.081,0.084,0.081,0.084c0.056,0.053,0.085,0.079,0.085,0.079c0.058,0.051,0.088,0.075,0.088,0.075
			c0.061,0.048,0.092,0.071,0.092,0.071c0.98,0.687,1.993,1.039,3.131,1.256c0.56,0.103,1.148,0.162,1.716,0.186
			c0.103,0.004,0.307,0.01,0.41,0.011c0,0,0.209,0.001,0.209,0.001h8.628h8.951c0.138,0.001,0.349-0.008,0.445-0.016
			c0.566-0.041,1.083-0.164,1.541-0.414c0.073-0.042,0.109-0.064,0.109-0.064c0.07-0.045,0.104-0.068,0.104-0.068
			c0.067-0.048,0.1-0.072,0.1-0.072c0.064-0.051,0.096-0.077,0.096-0.077c0.061-0.054,0.091-0.081,0.091-0.081
			c0.058-0.057,0.087-0.086,0.087-0.086c0.055-0.059,0.082-0.09,0.082-0.09c0.052-0.062,0.078-0.094,0.078-0.094
			c0.05-0.065,0.074-0.099,0.074-0.099c0.047-0.068,0.069-0.103,0.069-0.103c0.044-0.071,0.065-0.107,0.065-0.107
			c0.616-1.13,0.462-2.383,0.315-3.586c-0.196-1.406-0.573-2.82-1.335-4.031c-0.522-0.823-1.15-1.386-1.835-2.022
			c-0.992-0.896-2.147-1.83-3.212-2.648c-2.601-1.983-5.574-4.05-8.074-6.158c-0.585-0.493-1.132-1.002-1.592-1.582
			c-0.77-0.95-1.43-2.008-1.893-3.142c-1.716-5.119-3.106-10.472-4.128-15.773c-1.873-10.289-3.077-20.869-3.319-31.328
			c-0.132-6.576,0.282-13.236,1.795-19.652c0.61-2.677,1.424-5.502,2.244-8.123c4.783-14.863,10.561-32.014,16.16-46.587
			c5.155-13.151,10.712-27.51,17.193-40.045c2.718-5.327,6.403-10.994,9.638-16.016c2.081-3.338,4.012-6.86,5.396-10.549
			c1.412-3.734,2.288-7.758,3.023-11.676c1.16-6.476,2.401-15.669,4.345-21.872c1.83-6.191,4.806-12.522,7.594-18.354"/>
	</g>
	<g id="POLYLINE_220_">
		
			<path fill="none" stroke="#FB8604" stroke-width="2.75" stroke-linecap="round" stroke-linejoin="round" stroke-miterlimit="10" d="
			M178.015,402.837c1.873,19.473-3.527,24.176-15.31,38.081c-3.706,4.493-7.227,9.315-10.199,14.325
			c-2.061,3.496-3.935,7.183-5.253,11.027c-1.369,3.931-1.936,8.121-2.175,12.263c-0.236,5.029-0.514,12.438-1.193,17.347
			c-1.824,14.367-5.161,28.994-8.954,42.97c-0.759,3.048-1.395,6.195-1.261,9.35c0.11,3.088,1.004,6.108,2.314,8.892
			c0.271,0.581,0.616,1.263,0.92,1.827c0.189,0.353,0.32,0.694,0.45,1.065c0.552,1.668,0.807,3.437,0.908,5.186
			c0.086,1.532-0.016,3.087-0.339,4.589c-0.676,3.138-2.09,6.286-3.101,9.323c-0.225,0.71-0.42,1.447-0.497,2.19
			c-0.053,0.495-0.034,1.006-0.011,1.503c0.066,1.21,0.299,2.547,0.918,3.574c0.046,0.073,0.061,0.096,0.061,0.096
			c0.05,0.07,0.067,0.093,0.067,0.093c0.054,0.068,0.072,0.09,0.072,0.09c0.058,0.066,0.078,0.087,0.078,0.087
			c0.062,0.063,0.083,0.084,0.083,0.084c0.066,0.061,0.088,0.081,0.088,0.081c0.07,0.059,0.094,0.078,0.094,0.078
			c0.491,0.381,0.998,0.556,1.541,0.697c0.541,0.134,1.106,0.2,1.662,0.234c5.007,0.053,13.916,0.029,18.954,0.01
			c0.963-0.046,2.057-0.254,2.843-0.8c0.062-0.044,0.093-0.066,0.093-0.066c0.06-0.046,0.09-0.069,0.09-0.069
			c0.058-0.047,0.086-0.072,0.086-0.072c0.056-0.049,0.083-0.074,0.083-0.074c0.053-0.051,0.08-0.077,0.08-0.077
			c0.051-0.053,0.076-0.079,0.076-0.079c0.049-0.054,0.073-0.082,0.073-0.082c0.047-0.056,0.07-0.085,0.07-0.085
			c0.044-0.058,0.066-0.087,0.066-0.087c0.042-0.06,0.063-0.09,0.063-0.09c0.04-0.061,0.059-0.092,0.059-0.092
			c0.038-0.063,0.056-0.095,0.056-0.095c0.035-0.065,0.053-0.098,0.053-0.098c0.033-0.067,0.049-0.1,0.049-0.1
			c0.031-0.068,0.046-0.103,0.046-0.103c0.029-0.07,0.043-0.106,0.043-0.106c0.694-1.948,0.438-4.107-0.364-5.978
			c-0.509-1.138-1.281-2.145-2.146-3.035c-0.451-0.463-0.952-0.916-1.451-1.327c-0.299-0.252-0.635-0.494-0.921-0.758
			c-0.502-0.45-0.964-0.955-1.379-1.486c-1.13-1.449-1.968-3.123-2.714-4.795c-1.097-2.397-1.892-4.899-2.17-7.527
			c-0.17-1.593-0.222-3.224-0.085-4.822c0.159-1.758,0.559-3.503,1.114-5.177c0.37-1.168,0.912-2.29,1.274-3.46
			c0.433-1.384,0.687-2.829,0.763-4.278c0.056-1.064,0.017-2.163-0.103-3.221c-0.102-0.872-0.272-1.775-0.359-2.649
			c-0.196-1.809-0.233-3.654-0.087-5.468c0.083-1.031,0.229-2.087,0.432-3.101c1.102-5.333,2.402-11.31,3.876-16.542
			c1.532-5.305,3.244-10.747,6.182-15.46c1.717-2.751,3.967-5.157,6.365-7.325l2.857-2.543"/>
	</g>
	<g id="POLYLINE_219_">
		
			<path fill="none" stroke="#FB8604" stroke-width="2.75" stroke-linecap="round" stroke-linejoin="round" stroke-miterlimit="10" d="
			M177.29,287.311c-7.627,0.086-15.707,1.061-20.719,7.487c-2.894,3.662-4.61,8.111-5.87,12.565
			c-2.197,7.951-2.917,16.349-3.309,24.566c-0.253,5.671-0.651,18.619-1.224,24.086c-0.454,4.86-1.164,9.849-2.276,14.603
			c-2.268,10.133-7.67,21.34-11.803,30.885c-2.051,4.789-4.111,9.832-5.391,14.889c-0.812,3.164-1.267,6.457-1.274,9.726
			c-0.06,5.469,1.084,11.834,1.649,17.267c0.491,4.573,0.654,9.257,0.175,13.838c-0.593,5.709-2.099,11.413-3.661,16.926
			c-1.177,4.036-4.188,13.656-5.106,17.602c-0.295,1.257-0.572,2.576-0.727,3.857c-0.115,1.022-0.194,2.125,0.045,3.129
			c0.018,0.069,0.037,0.137,0.037,0.137c0.02,0.066,0.041,0.131,0.041,0.131c0.022,0.064,0.045,0.126,0.045,0.126
			c0.024,0.061,0.05,0.12,0.05,0.12c0.026,0.058,0.054,0.114,0.054,0.114c0.029,0.055,0.058,0.108,0.058,0.108
			c0.044,0.073,0.059,0.097,0.059,0.097c0.047,0.069,0.063,0.091,0.063,0.091c0.05,0.065,0.067,0.086,0.067,0.086
			c0.052,0.061,0.07,0.081,0.07,0.081c0.055,0.058,0.074,0.076,0.074,0.076c0.058,0.054,0.078,0.072,0.078,0.072
			c0.061,0.051,0.081,0.067,0.081,0.067c0.063,0.047,0.085,0.062,0.085,0.062c0.066,0.044,0.088,0.058,0.088,0.058
			c0.069,0.04,0.092,0.053,0.092,0.053c0.071,0.037,0.095,0.049,0.095,0.049c0.074,0.034,0.099,0.044,0.099,0.044
			c0.596,0.25,1.262,0.244,1.836,0.195c0.708-0.068,1.355-0.219,2.032-0.404c1.415-0.391,3.006-1.011,4.386-1.537
			c2.586-0.998,5.359-2.097,7.796-3.405c3.638-1.916,6.942-4.503,9.564-7.677"/>
	</g>
	<g id="POLYLINE_218_">
		
			<path fill="none" stroke="#FB8604" stroke-width="2.75" stroke-linecap="round" stroke-linejoin="round" stroke-miterlimit="10" d="
			M406.708,349.877c-5.686,8.691-10.791,18.735-9.918,29.41c0.582,6.603,3.505,12.752,6.526,18.56c0,0,5.192,9.643,5.192,9.643
			c1.114,2.182,2.202,4.453,2.908,6.803c0.637,2.076,0.982,4.261,1.167,6.422l0.317,4.15c0.17,2.071,0.541,4.204,0.977,6.236
			c1.38,6.104,3.486,14.355,4.403,20.484c1.62,10.261,2.616,20.894,2.812,31.281c0.043,3.459-0.004,7.057-0.342,10.501
			c-0.216,2.412-0.855,5.499-1.309,7.889c-0.17,0.995-0.309,2.018-0.276,3.029c0.023,0.798,0.17,1.555,0.402,2.284
			c0.469,1.48,1.361,3.207,1.946,4.647c0.589,1.418,1.068,2.904,1.313,4.423c0.302,1.846,0.274,3.748,0.134,5.609
			c-0.494,6.453-2.962,15.258-4.39,21.623c-0.612,2.816-1.2,5.714-1.254,8.603c-0.058,2.447,0.33,4.92,0.812,7.313
			c0.167,0.702,0.933,4.618,1.154,5.186c0.302,0.925,0.703,1.83,1.138,2.7c0.341,0.674,0.72,1.357,1.126,1.993
			c0.469,0.699,0.925,1.424,1.257,2.201c0.592,1.378,0.891,2.914,0.245,4.254c-0.479,1.04-1.137,1.803-1.893,2.576
			c-0.383,0.375-0.786,0.75-1.112,1.178c-0.465,0.591-0.838,1.318-0.963,2.03c-0.115,0.606-0.063,1.217,0.091,1.769
			c0.184,0.63,0.457,1.153,0.742,1.726c0.417,0.803,0.978,1.664,1.639,2.243c0.445,0.404,0.979,0.66,1.492,0.83
			c0.854,0.277,1.66,0.367,2.537,0.419c0.207,0.026,7.918,0.028,8.398,0.023c0.624-0.014,9.629,0.049,9.978-0.055
			c0.69-0.068,1.454-0.235,2.045-0.558c0.074-0.042,0.11-0.063,0.11-0.063c0.071-0.044,0.106-0.066,0.106-0.066
			c0.068-0.046,0.101-0.069,0.101-0.069c0.065-0.048,0.096-0.072,0.096-0.072c0.061-0.05,0.091-0.075,0.091-0.075
			c0.058-0.052,0.087-0.078,0.087-0.078c0.055-0.054,0.082-0.081,0.082-0.081c0.052-0.056,0.077-0.084,0.077-0.084
			c0.049-0.058,0.072-0.087,0.072-0.087c0.046-0.06,0.068-0.09,0.068-0.09c0.042-0.062,0.063-0.093,0.063-0.093
			c0.039-0.064,0.058-0.097,0.058-0.097c0.036-0.066,0.053-0.1,0.053-0.1c0.033-0.068,0.049-0.103,0.049-0.103
			c0.03-0.07,0.044-0.106,0.044-0.106c0.027-0.072,0.039-0.109,0.039-0.109c0.023-0.074,0.034-0.112,0.034-0.112
			c0.01-0.038,0.02-0.076,0.02-0.076c0.027-0.107,0.051-0.245,0.06-0.319c0.014-0.107,0.026-0.268,0.026-0.34
			c0.002-0.088,0.003-0.212,0.001-0.262c-0.004-0.114-0.012-0.273-0.021-0.35c-0.012-0.135-0.025-0.205-0.039-0.307
			c-0.019-0.105-0.042-0.247-0.068-0.352c-0.09-0.395-0.226-0.784-0.393-1.152c-0.57-1.247-1.479-2.312-2.465-3.252
			c-1.031-0.956-2.072-2.02-3.003-3.064c-0.27-0.328-0.551-0.641-0.79-0.988c-0.327-0.484-0.639-1.013-0.915-1.527
			c-0.819-1.513-1.518-3.155-2.108-4.771c-1.036-2.874-1.819-5.88-1.992-8.939c-0.144-2.004,0.119-4.22,0.343-6.221
			c0.386-3.217,0.962-7.656,1.147-10.796c0.195-3.67,0.384-7.647,0.809-11.283c0.272-2.321,0.615-4.712,1.16-6.981
			c0.623-2.418,1.426-5.069,1.994-7.509c1.158-4.771,2.113-9.766,2.855-14.619c1.255-8.613,2.326-18.427,3.007-27.106
			c0.2-3.108,0.453-6.469,0.936-9.539c1.228-8.452,3.693-17.325,6.042-25.553c1.303-4.397,2.665-9.204,4.348-13.466
			c0.205-0.508,0.462-1.001,0.747-1.468c1.735-2.774,4.429-4.796,7.157-6.525c1.033-0.644,2.18-1.294,3.259-1.859
			c0.994-0.5,2.02-1.058,2.967-1.641c2.208-1.357,4.276-2.972,6.167-4.743c6.823-6.451,11.599-14.8,15.15-23.421
			c1.529-3.73,2.859-7.694,3.977-11.568c2.338-8.53,5.472-21.466,8.013-29.905c0.546-1.778,1.269-3.557,2.058-5.241
			c4.742-9.965,12.584-19.129,19.228-27.879c8.047-9.946,19.687-25.087,28.446-34.332c1.245-1.275,2.556-2.644,3.986-3.714
			c0.071-0.051,0.14-0.1,0.14-0.1c0.068-0.047,0.134-0.092,0.134-0.092c0.065-0.043,0.129-0.084,0.129-0.084
			c0.062-0.039,0.123-0.076,0.123-0.076s0.122-0.072,0.122-0.072s0.125-0.072,0.125-0.072s0.128-0.072,0.128-0.072
			s0.131-0.072,0.131-0.072s0.134-0.072,0.134-0.072s0.137-0.072,0.137-0.072s0.283-0.144,0.283-0.144
			c0.992-0.492,2.057-0.918,3.098-1.296c3.159-1.135,6.513-1.99,9.778-2.754"/>
	</g>
	<g id="POLYLINE_217_">
		
			<path fill="none" stroke="#FB8604" stroke-width="2.75" stroke-linecap="round" stroke-linejoin="round" stroke-miterlimit="10" d="
			M419.037,581.199c6.481-3.54,13.657-5.831,20.992-6.691"/>
	</g>
	<g id="POLYLINE_214_">
		
			<path fill="none" stroke="#FB8604" stroke-width="2.75" stroke-linecap="round" stroke-linejoin="round" stroke-miterlimit="10" d="
			M191.613,580.239c1.751-1.842,3.717-3.509,5.888-4.834c3.365-2.042,7.144-3.412,11.021-4.07"/>
	</g>
	<g id="POLYLINE_11_">
		
			<path fill="none" stroke="#FB8604" stroke-width="2.75" stroke-linecap="round" stroke-linejoin="round" stroke-miterlimit="10" d="
			M135.248,577.85c6.102-2.862,12.593-5.084,19.209-6.39"/>
	</g>
</g>
<g id="AG-OUTLINE">
	<g id="POLYLINE_17_">
		
			<path fill="none" stroke="#FB8604" stroke-width="3.5" stroke-linecap="round" stroke-linejoin="round" stroke-miterlimit="10" d="
			M573.807,269.774c1.612,1.919,3.501,3.61,5.557,5.041c3.058,2.132,6.536,3.709,9.971,5.132c3.752,1.525,10.354,4.003,13.854,5.786
			c4.181,2.045,10.034,5.656,14.208,7.724c1.56,0.774,3.21,1.502,4.849,2.091c2.058,0.752,5.165,1.666,7.197,2.464
			c1.466,0.578,2.922,1.267,4.155,2.259c2.772,2.222,3.795,5.934,6.377,8.316c2.073,1.883,4.891,2.547,7.612,2.716
			c1.883,0.103,3.786-0.054,5.632-0.433c2.016-0.416,3.987-1.119,5.765-2.162c1.372-0.804,2.631-1.819,3.687-3.009
			c1-1.122,1.818-2.412,2.448-3.775c1.715-3.748,2.231-7.995,1.768-12.073c-0.91-7.824-5.873-14.369-10.86-20.169
			c-3.84-4.418-9.013-9.962-12.416-14.633c-2.688-3.658-5.109-7.647-7.145-11.704c-1.273-2.542-2.479-5.306-3.486-7.964
			c-1.354-3.54-2.988-8.554-4.815-11.837c-0.822-1.494-1.84-2.896-2.985-4.158c-1.326-1.474-2.887-2.824-4.415-4.086
			c-0.042-0.594-0.063-1.286-0.071-1.883l-0.003-2.915c-0.01-1.799-0.189-3.628-0.807-5.328c-0.619-1.744-1.55-3.372-2.643-4.861
			c-1.221-1.654-2.666-3.155-4.291-4.416c1.155-1.261,2.181-2.662,2.989-4.171c1.648-3.1,2.604-6.549,3.111-10.012
			c0.228-1.627,0.358-3.296,0.323-4.939c-0.031-0.918-0.081-1.913-0.382-2.781c-0.025-0.066-0.038-0.098-0.038-0.098
			c-0.027-0.062-0.04-0.092-0.04-0.092c-0.028-0.058-0.042-0.085-0.042-0.085c-0.037-0.066-0.044-0.079-0.044-0.079
			c-0.046-0.072-0.054-0.083-0.054-0.083c-0.057-0.073-0.065-0.083-0.065-0.083c-0.069-0.07-0.078-0.078-0.078-0.078
			c-0.073-0.055-0.082-0.061-0.082-0.061c-0.067-0.035-0.077-0.039-0.077-0.039c-0.071-0.022-0.08-0.024-0.08-0.024
			c-0.067-0.009-0.077-0.01-0.077-0.01c-0.07,0.001-0.08,0.002-0.08,0.002c-0.073,0.011-0.083,0.014-0.083,0.014
			c-0.064,0.017-0.075,0.021-0.075,0.021c-0.066,0.025-0.078,0.029-0.078,0.029c-0.068,0.031-0.08,0.037-0.08,0.037
			c-0.07,0.038-0.093,0.052-0.093,0.052c-0.072,0.045-0.096,0.061-0.096,0.061c-0.467,0.333-0.773,0.696-1.113,1.081
			c-0.332,0.375-1.442,1.791-1.777,2.207c-0.859,1.062-1.808,2.13-2.782,3.087c-2.885,2.851-6.336,5.099-9.83,7.13
			c-1.652-0.335-3.353-0.508-5.037-0.41c-1.463,0.077-2.917,0.389-4.318,0.806c-3.437,1.014-7.344,2.911-10.818,3.798
			c-2.573,0.668-5.272,0.865-7.922,0.705c-4.309-0.206-10.603-1.708-14.883-2.5c-3.473-0.629-7.051-1.154-10.585-1.126
			c-2.623,0.017-5.274,0.378-7.737,1.307c-4.817,1.779-9.138,5.339-13.474,8.017c-1.522,0.944-3.141,1.853-4.772,2.592
			c-1.694,0.769-3.518,1.416-5.289,1.984l-7.681,2.302c-1.974,0.626-3.981,1.317-5.814,2.288c-1.115,0.594-2.187,1.31-3.065,2.227
			c-1.193,1.242-1.952,2.829-2.58,4.414c-1.01,2.582-1.897,5.544-4.013,7.447c-1.388,1.254-3.128,2.045-4.861,2.704
			c-3.152,1.182-7.752,2.241-10.935,3.356c-1.633,0.571-3.261,1.238-4.734,2.151c-1.799,1.1-3.254,2.68-4.46,4.393
			c-1.557,2.182-3.015,4.999-4.8,7.004c-0.879,1.001-1.905,1.887-3.06,2.555c-1.28,0.747-2.691,1.278-4.108,1.7
			c-2.133,0.632-4.463,1.041-6.662,1.394c-4.104,0.657-8.981,1.166-12.897,2.534c-3.429,1.175-6.631,3.466-9.652,5.434
			c-2.303,1.489-4.764,2.801-7.388,3.624c-4.82,1.552-10.944,2.224-15.86,3.433c-1.316,0.331-2.651,0.72-3.893,1.274
			c-1.016,0.45-2.061,1.092-2.753,1.939c-0.566,0.67-0.907,1.461-0.952,2.287c-0.054,0.828,0.277,1.616,0.768,2.21
			c-5.879,4.61-12.469,8.351-19.345,11.255c-6.38,2.672-13.136,4.672-20.044,5.296c-4.777,0.444-9.657,0.287-14.431-0.131
			c-8.604-0.747-19.092-2.613-27.665-4.107c-21.67-3.844-51.231-10.273-72.914-12.119c-5.622-0.436-11.361-0.56-16.986-0.128
			c-6.747,0.506-13.491,1.861-20.016,3.626c-10.608,2.887-20.971,7.496-29.297,14.793c-7.627,0.086-15.707,1.061-20.719,7.487
			c-2.894,3.662-4.61,8.111-5.87,12.565c-2.197,7.951-2.917,16.349-3.309,24.566c-0.253,5.671-0.651,18.619-1.224,24.086
			c-0.454,4.86-1.164,9.849-2.276,14.603c-2.268,10.133-7.67,21.34-11.803,30.885c-2.051,4.789-4.111,9.832-5.391,14.889
			c-0.812,3.164-1.267,6.457-1.274,9.726c-0.06,5.469,1.084,11.834,1.649,17.267c0.491,4.573,0.654,9.257,0.175,13.838
			c-0.593,5.709-2.099,11.413-3.661,16.926c-1.177,4.036-4.188,13.656-5.106,17.602c-0.295,1.257-0.572,2.576-0.727,3.857
			c-0.115,1.022-0.194,2.125,0.045,3.129c0.018,0.069,0.037,0.137,0.037,0.137c0.02,0.066,0.041,0.131,0.041,0.131
			c0.022,0.064,0.045,0.126,0.045,0.126c0.024,0.061,0.05,0.12,0.05,0.12c0.026,0.058,0.054,0.114,0.054,0.114
			c0.029,0.055,0.058,0.108,0.058,0.108c0.044,0.073,0.059,0.097,0.059,0.097c0.047,0.069,0.063,0.091,0.063,0.091
			c0.05,0.065,0.067,0.086,0.067,0.086c0.052,0.061,0.07,0.081,0.07,0.081c0.055,0.058,0.074,0.076,0.074,0.076
			c0.058,0.054,0.078,0.072,0.078,0.072c0.061,0.051,0.081,0.067,0.081,0.067c0.063,0.047,0.085,0.062,0.085,0.062
			c0.066,0.044,0.088,0.058,0.088,0.058c0.069,0.04,0.092,0.053,0.092,0.053c0.071,0.037,0.095,0.049,0.095,0.049
			c0.074,0.034,0.099,0.044,0.099,0.044c0.596,0.25,1.262,0.244,1.836,0.195c0.708-0.068,1.355-0.219,2.032-0.404
			c1.415-0.391,3.006-1.011,4.386-1.537c2.586-0.998,5.359-2.097,7.796-3.405c3.638-1.916,6.942-4.503,9.564-7.677
			c-0.351,6.31-1.301,12.855-2.378,19.083c-1.846,10.618-4.503,21.883-7.342,32.287c-0.759,3.048-1.395,6.195-1.261,9.35
			c0.105,2.924,0.91,5.792,2.111,8.449c0.258,0.574,0.586,1.247,0.876,1.805c0.244,0.454,0.5,0.939,0.658,1.421
			c0.581,1.699,0.842,3.509,0.946,5.297c0.086,1.532-0.016,3.087-0.339,4.589c-0.644,2.981-1.962,6.015-2.958,8.89
			c-0.265,0.783-0.506,1.595-0.615,2.415c-0.081,0.593-0.063,1.135-0.035,1.711c0.066,1.21,0.299,2.547,0.918,3.574
			c0.046,0.073,0.061,0.096,0.061,0.096c0.05,0.07,0.067,0.093,0.067,0.093c0.054,0.068,0.072,0.09,0.072,0.09
			c0.058,0.066,0.078,0.087,0.078,0.087c0.062,0.063,0.083,0.084,0.083,0.084c0.066,0.061,0.088,0.081,0.088,0.081
			c0.07,0.059,0.094,0.078,0.094,0.078c0.491,0.381,0.998,0.556,1.541,0.697c0.541,0.134,1.106,0.2,1.662,0.234
			c5.007,0.053,13.916,0.029,18.954,0.01c0.963-0.046,2.057-0.254,2.843-0.8c0.062-0.044,0.093-0.066,0.093-0.066
			c0.06-0.046,0.09-0.069,0.09-0.069c0.058-0.047,0.086-0.072,0.086-0.072c0.056-0.049,0.083-0.074,0.083-0.074
			c0.053-0.051,0.08-0.077,0.08-0.077c0.051-0.053,0.076-0.079,0.076-0.079c0.049-0.054,0.073-0.082,0.073-0.082
			c0.047-0.056,0.07-0.085,0.07-0.085c0.044-0.058,0.066-0.087,0.066-0.087c0.042-0.06,0.063-0.09,0.063-0.09
			c0.04-0.061,0.059-0.092,0.059-0.092c0.038-0.063,0.056-0.095,0.056-0.095c0.035-0.065,0.053-0.098,0.053-0.098
			c0.033-0.067,0.049-0.1,0.049-0.1c0.031-0.068,0.046-0.103,0.046-0.103c0.029-0.07,0.043-0.106,0.043-0.106
			c0.694-1.948,0.438-4.107-0.364-5.978c-0.542-1.209-1.378-2.27-2.311-3.202c-0.401-0.4-0.849-0.8-1.286-1.161
			c-0.311-0.261-0.658-0.512-0.955-0.788c-0.573-0.518-1.091-1.105-1.551-1.724c-1.045-1.408-1.837-3.013-2.547-4.612
			c-1.076-2.357-1.859-4.859-2.132-7.442c-0.17-1.593-0.222-3.224-0.085-4.822c0.159-1.758,0.559-3.503,1.114-5.177
			c0.37-1.168,0.912-2.29,1.274-3.46c0.433-1.384,0.687-2.829,0.763-4.278c0.056-1.064,0.017-2.163-0.103-3.221
			c-0.102-0.872-0.272-1.775-0.359-2.649c-0.196-1.809-0.233-3.654-0.087-5.468c0.083-1.031,0.229-2.087,0.432-3.101
			c1.102-5.333,2.402-11.31,3.876-16.542c1.532-5.305,3.244-10.747,6.182-15.46c1.717-2.751,3.967-5.157,6.365-7.325l2.857-2.543
			c0.633,1.758,1.265,3.614,1.721,5.419c0.6,2.348,1.027,4.822,1.333,7.225c0.502,3.905,0.736,8.307,0.894,12.256
			c0.349,11.063,0.852,25.306,1.687,36.255c0.171,2.186,0.351,4.549,0.744,6.702c0.246,1.336,0.584,2.68,1.12,3.931
			c0.479,1.133,1.156,2.184,1.984,3.093c1.258,1.393,2.82,2.489,4.425,3.445c1.27,1.121,2.526,2.313,3.599,3.627
			c0.632,0.785,1.227,1.627,1.599,2.57c0.348,0.912,0.388,1.846,0.396,2.803c-0.014,1.709-0.287,3.437-0.618,5.112
			c-0.264,1.225-0.52,2.494-0.535,3.75c-0.013,0.805,0.076,1.703,0.406,2.426c0.035,0.075,0.053,0.111,0.053,0.111
			c0.037,0.072,0.056,0.107,0.056,0.107c0.039,0.069,0.059,0.103,0.059,0.103c0.041,0.067,0.063,0.099,0.063,0.099
			c0.044,0.064,0.066,0.095,0.066,0.095c0.046,0.062,0.069,0.092,0.069,0.092c0.048,0.059,0.072,0.088,0.072,0.088
			c0.05,0.056,0.076,0.084,0.076,0.084c0.052,0.054,0.079,0.08,0.079,0.08c0.054,0.051,0.082,0.076,0.082,0.076
			c0.056,0.048,0.085,0.072,0.085,0.072c0.059,0.046,0.088,0.068,0.088,0.068c0.979,0.686,1.991,1.037,3.129,1.254
			c0.56,0.103,1.148,0.162,1.716,0.186c0.103,0.004,0.307,0.01,0.41,0.011c0,0,0.209,0.001,0.209,0.001h8.628h8.951
			c0.138,0.001,0.349-0.008,0.445-0.016c0.566-0.041,1.083-0.164,1.541-0.414c0.073-0.042,0.109-0.064,0.109-0.064
			c0.07-0.045,0.104-0.068,0.104-0.068c0.067-0.048,0.1-0.072,0.1-0.072c0.064-0.051,0.096-0.077,0.096-0.077
			c0.061-0.054,0.091-0.081,0.091-0.081c0.058-0.057,0.087-0.086,0.087-0.086c0.055-0.059,0.082-0.09,0.082-0.09
			c0.052-0.062,0.078-0.094,0.078-0.094c0.05-0.065,0.074-0.099,0.074-0.099c0.047-0.068,0.069-0.103,0.069-0.103
			c0.044-0.071,0.065-0.107,0.065-0.107c0.616-1.13,0.462-2.382,0.315-3.586c-0.176-1.259-0.496-2.52-1.106-3.642
			c-0.59-1.113-1.49-1.888-2.39-2.704c-1.548-1.361-3.333-2.715-5-3.935c-2.158-1.606-4.594-3.353-6.597-5.135
			c-1.133-1.075-2.004-2.347-2.667-3.749c-0.135-0.295-0.259-0.603-0.361-0.91c-0.745-2.346-1.524-4.977-2.15-7.356
			c-2.189-8.289-3.37-16.945-4.263-25.462c-0.781-8.162-1.247-16.538-0.486-24.717c0.453-4.784,1.499-9.55,2.856-14.156
			c6.763-21.668,14.818-44.617,23.449-65.612c3.719-8.916,7.726-18.428,12.425-26.873c3.749-2.19,7.996-4.065,12.43-3.725
			c3.61,0.3,6.963,1.926,10.135,3.573c5.714,3.123,13.126,7.353,18.942,10.162c10.664,5.253,21.846,9.963,33.282,13.246
			c11.048,3.168,22.526,5.009,33.995,5.667c15.681,1.015,33.976-0.757,49.708-1.815c3.556-0.203,7.345-0.355,10.898-0.211
			c3.234,0.1,7.877,0.626,11.135,0.95c0.566,4.581,2.761,12.534,3.71,17.114c1.597,7.388,2.636,15.2,3.358,22.724
			c0.739,8.349,1.282,16.981,0.743,25.354c-0.172,3.035-0.864,6.517-1.448,9.509c-0.17,0.995-0.309,2.018-0.276,3.029
			c0.023,0.798,0.17,1.555,0.402,2.284c0.469,1.48,1.361,3.207,1.946,4.647c0.589,1.418,1.068,2.904,1.313,4.423
			c0.302,1.846,0.274,3.748,0.134,5.609c-0.494,6.453-2.962,15.258-4.39,21.623c-0.612,2.816-1.2,5.714-1.254,8.603
			c-0.058,2.447,0.33,4.92,0.812,7.313c0.126,0.528,0.95,4.631,1.098,5.008c0.24,0.78,0.561,1.549,0.907,2.288
			c0.389,0.823,0.83,1.647,1.311,2.42c0.436,0.673,0.895,1.348,1.231,2.079c0.572,1.235,0.979,2.698,0.581,3.985
			c-0.36,1.134-1.051,2.005-1.803,2.821c-0.376,0.407-0.815,0.78-1.175,1.201c-0.548,0.631-0.963,1.335-1.15,2.096
			c-0.177,0.701-0.124,1.433,0.066,2.063c0.211,0.664,0.489,1.194,0.798,1.797c0.401,0.751,0.943,1.555,1.562,2.097
			c0.445,0.405,0.979,0.66,1.492,0.83c0.854,0.277,1.66,0.367,2.537,0.419c0.207,0.027,7.918,0.027,8.398,0.023
			c0.626-0.014,9.628,0.049,9.978-0.055c0.69-0.068,1.454-0.235,2.045-0.558c0.074-0.042,0.11-0.063,0.11-0.063
			c0.071-0.044,0.106-0.066,0.106-0.066c0.068-0.046,0.101-0.069,0.101-0.069c0.065-0.048,0.096-0.072,0.096-0.072
			c0.061-0.05,0.091-0.075,0.091-0.075c0.058-0.052,0.087-0.078,0.087-0.078c0.055-0.054,0.082-0.081,0.082-0.081
			c0.052-0.056,0.077-0.084,0.077-0.084c0.049-0.058,0.072-0.087,0.072-0.087c0.046-0.06,0.068-0.09,0.068-0.09
			c0.042-0.062,0.063-0.093,0.063-0.093c0.039-0.064,0.058-0.097,0.058-0.097c0.036-0.066,0.053-0.1,0.053-0.1
			c0.033-0.068,0.049-0.103,0.049-0.103c0.03-0.07,0.044-0.106,0.044-0.106c0.027-0.072,0.039-0.109,0.039-0.109
			c0.023-0.074,0.034-0.112,0.034-0.112c0.01-0.038,0.02-0.076,0.02-0.076c0.027-0.105,0.051-0.246,0.06-0.319
			c0.017-0.126,0.023-0.254,0.026-0.34c0.001-0.085,0.003-0.214,0.001-0.262c-0.004-0.114-0.012-0.273-0.021-0.35
			c-0.014-0.123-0.023-0.213-0.039-0.307c-0.019-0.105-0.042-0.247-0.068-0.352c-0.09-0.395-0.226-0.784-0.393-1.152
			c-0.57-1.247-1.479-2.312-2.465-3.252c-1.031-0.956-2.072-2.02-3.003-3.064c-0.303-0.341-0.594-0.712-0.856-1.083
			c-0.31-0.48-0.61-0.981-0.877-1.485c-0.739-1.373-1.379-2.846-1.928-4.306c-0.945-2.552-1.703-5.207-2.018-7.915
			c-0.247-1.958-0.188-3.988,0.03-5.948c0.345-3.357,1.028-8.157,1.265-11.492c0.254-4.006,0.406-8.319,0.879-12.298
			c0.272-2.321,0.615-4.713,1.16-6.981c0.623-2.418,1.426-5.069,1.994-7.509c1.158-4.771,2.113-9.766,2.855-14.619
			c1.255-8.613,2.326-18.427,3.007-27.106c0.2-3.108,0.453-6.469,0.936-9.539c1.228-8.452,3.693-17.325,6.042-25.553
			c1.303-4.396,2.665-9.205,4.348-13.466c0.205-0.508,0.462-1.001,0.747-1.468c1.838-2.934,4.756-5.048,7.664-6.837
			c1.845-1.144,3.873-2.048,5.719-3.188c2-1.229,3.888-2.672,5.628-4.246c7.114-6.504,12.045-15.076,15.689-23.917
			c1.529-3.73,2.859-7.694,3.977-11.568c2.338-8.529,5.472-21.466,8.013-29.905c0.546-1.778,1.269-3.557,2.058-5.241
			c4.743-9.965,12.584-19.128,19.228-27.879c8.045-9.944,19.688-25.089,28.446-34.332c1.245-1.275,2.556-2.644,3.986-3.714
			c0.071-0.051,0.14-0.1,0.14-0.1c0.068-0.047,0.134-0.092,0.134-0.092c0.065-0.043,0.129-0.084,0.129-0.084
			c0.062-0.039,0.123-0.076,0.123-0.076l0.122-0.072c0,0,0.125-0.072,0.125-0.072s0.128-0.072,0.128-0.072s0.131-0.072,0.131-0.072
			s0.134-0.072,0.134-0.072l0.137-0.072c0,0,0.283-0.144,0.283-0.144c0.992-0.492,2.057-0.918,3.098-1.296
			C567.187,271.393,570.542,270.538,573.807,269.774z"/>
	</g>
</g>
</svg>
