<?xml version="1.0" encoding="utf-8"?>
<!-- Generator: Adobe Illustrator 24.2.0, SVG Export Plug-In . SVG Version: 6.00 Build 0)  -->
<!DOCTYPE svg PUBLIC "-//W3C//DTD SVG 1.1//EN" "http://www.w3.org/Graphics/SVG/1.1/DTD/svg11.dtd" [
	<!ENTITY ns_flows "http://ns.adobe.com/Flows/1.0/">
	<!ENTITY ns_extend "http://ns.adobe.com/Extensibility/1.0/">
	<!ENTITY ns_ai "http://ns.adobe.com/AdobeIllustrator/10.0/">
	<!ENTITY ns_graphs "http://ns.adobe.com/Graphs/1.0/">
	<!ENTITY ns_vars "http://ns.adobe.com/Variables/1.0/">
	<!ENTITY ns_imrep "http://ns.adobe.com/ImageReplacement/1.0/">
	<!ENTITY ns_sfw "http://ns.adobe.com/SaveForWeb/1.0/">
	<!ENTITY ns_custom "http://ns.adobe.com/GenericCustomNamespace/1.0/">
	<!ENTITY ns_adobe_xpath "http://ns.adobe.com/XPath/1.0/">
]>
<svg version="1.1" xmlns:x="&ns_extend;" xmlns:i="&ns_ai;" xmlns:graph="&ns_graphs;"
	 xmlns="http://www.w3.org/2000/svg" xmlns:xlink="http://www.w3.org/1999/xlink" xmlns:a="http://ns.adobe.com/AdobeSVGViewerExtensions/3.0/"
	 x="0px" y="0px" width="750px" height="750px" viewBox="0 0 750 750" enable-background="new 0 0 750 750" xml:space="preserve">
<metadata>
	<sfw  xmlns="&ns_sfw;">
		<slices></slices>
		<sliceSourceBounds  bottomLeftOrigin="true" height="11750" width="4861" x="-2000" y="-3526"></sliceSourceBounds>
	</sfw>
</metadata>
<g id="FILL-BACKGROUND">
	<rect fill="#FFFFFF" width="750" height="750"/>
</g>
<g id="AG-GUIDES">
</g>
<g id="N-DIMENSIONS">
</g>
<g id="AG-DETAIL-DIAGRAM">
</g>
<g id="N-TEXT">
</g>
<g id="AG-DIAGRAM">
	<g id="POLYLINE_1518_">
		<g>
			<g>
				
					<line fill="none" stroke="#FB8604" stroke-width="3.25" stroke-linecap="round" stroke-linejoin="round" x1="118.484" y1="605.207" x2="120.484" y2="605.207"/>
				
					<line fill="none" stroke="#FB8604" stroke-width="3.25" stroke-linecap="round" stroke-linejoin="round" stroke-dasharray="3.9583,6.927" x1="127.411" y1="605.207" x2="494.045" y2="605.207"/>
				
					<line fill="none" stroke="#FB8604" stroke-width="3.25" stroke-linecap="round" stroke-linejoin="round" x1="497.508" y1="605.207" x2="499.508" y2="605.207"/>
			</g>
		</g>
	</g>
</g>
<g id="AG-DETAILS">
	<g id="POLYLINE_1428_">
		<path fill="none" stroke="#FB8604" stroke-width="2" stroke-linecap="round" stroke-linejoin="round" stroke-miterlimit="10" d="
			M653.977,282.162c0.678,0.194,1.432,0.302,2.116,0.277"/>
	</g>
	<g id="POLYLINE_1427_">
		<path fill="none" stroke="#FB8604" stroke-width="2" stroke-linecap="round" stroke-linejoin="round" stroke-miterlimit="10" d="
			M605.688,197.395c-0.332,4.335-0.306,8.752,0.29,13.064c0.452,3.222,1.233,6.431,2.522,9.425
			c1.767,4.234,5.153,8.262,7.925,11.898c1.509,2.012,2.978,4.12,3.933,6.458c1.694,4.058,1.797,8.96,3.797,12.904
			c1.338,2.63,3.64,4.602,5.942,6.376l4.704,3.471c1.617,1.215,3.17,2.571,4.475,4.121c1.824,2.108,3.381,4.805,4.804,7.206"/>
	</g>
	<g id="POLYLINE_1426_">
		<path fill="none" stroke="#FB8604" stroke-width="2" stroke-linecap="round" stroke-linejoin="round" stroke-miterlimit="10" d="
			M504.787,335.134c-2.476-4.654-8.71-4.114-10.949,0.349c-0.669,1.353-0.842,2.768-0.608,4.217
			c0.168,1.016,0.549,1.989,1.028,2.897c0.617,1.162,1.408,2.244,2.3,3.21c0.777,0.834,1.646,1.602,2.609,2.215
			c1.046,0.658,2.359,1.242,3.6,0.994c0.077-0.017,0.115-0.027,0.115-0.027c0.076-0.021,0.113-0.032,0.113-0.032
			c0.075-0.024,0.111-0.037,0.111-0.037c0.073-0.028,0.109-0.042,0.109-0.042c0.074-0.032,0.111-0.05,0.111-0.05
			c0.073-0.036,0.109-0.055,0.109-0.055c0.072-0.04,0.107-0.061,0.107-0.061c0.07-0.043,0.105-0.066,0.105-0.066
			c0.069-0.047,0.103-0.071,0.103-0.071c0.067-0.051,0.1-0.077,0.1-0.077c0.066-0.054,0.098-0.082,0.098-0.082
			c0.064-0.057,0.096-0.087,0.096-0.087c0.063-0.061,0.094-0.092,0.094-0.092c0.061-0.064,0.092-0.096,0.092-0.096
			c0.554-0.62,0.854-1.249,1.136-1.997c0.272-0.75,0.451-1.538,0.569-2.326c0.251-1.731,0.231-3.515-0.051-5.241
			C505.683,337.389,505.356,336.203,504.787,335.134z"/>
	</g>
	<g id="POLYLINE_1425_">
		<path fill="none" stroke="#FB8604" stroke-width="2" stroke-linecap="round" stroke-linejoin="round" stroke-miterlimit="10" d="
			M558.386,227.829c0.03-0.753,0.054-1.628-0.154-2.339c-0.023-0.076-0.032-0.101-0.032-0.101c-0.026-0.074-0.035-0.098-0.035-0.098
			c-0.028-0.072-0.038-0.095-0.038-0.095c-0.031-0.069-0.042-0.092-0.042-0.092c-0.034-0.067-0.046-0.089-0.046-0.089
			c-0.037-0.064-0.05-0.085-0.05-0.085c-0.04-0.061-0.054-0.081-0.054-0.081c-0.043-0.058-0.058-0.077-0.058-0.077
			c-0.063-0.073-0.079-0.091-0.079-0.091c-0.077-0.076-0.086-0.084-0.086-0.084c-0.076-0.063-0.09-0.073-0.09-0.073
			c-0.07-0.049-0.084-0.059-0.084-0.059c-0.074-0.045-0.089-0.054-0.089-0.054c-0.062-0.033-0.078-0.041-0.078-0.041
			c-0.065-0.03-0.082-0.038-0.082-0.038c-0.068-0.028-0.102-0.041-0.102-0.041c-0.071-0.025-0.107-0.036-0.107-0.036
			c-0.074-0.022-0.112-0.032-0.112-0.032c-0.605-0.145-1.15-0.141-1.753-0.121c-1.017,0.038-2.316,0.185-3.33,0.205
			c-1.702,0.05-3.427-0.179-5.03-0.763c-1.334-0.482-2.659-1.275-3.561-2.369c-0.732-0.875-1.196-1.967-1.31-3.054
			c-0.119-1.055,0.095-2.118,0.518-3.028c0.562-1.186,1.36-2.075,2.233-3.003c1.574-1.647,3.591-3.361,4.93-5.208
			c0.508-0.701,0.951-1.463,1.23-2.285c0.312-0.914,0.428-1.888,0.463-2.85c0.08-2.093-0.251-4.471,0.285-6.52
			c0.238-0.944,0.701-1.825,1.319-2.575c0.652-0.803,1.44-1.497,2.256-2.128c1.69-1.321,4.009-2.629,5.839-3.769
			c1.081-0.682,2.238-1.414,3.142-2.312c0.634-0.635,1.089-1.302,1.454-2.017c0.394-0.764,0.743-1.708,1.117-2.481"/>
	</g>
	<g id="POLYLINE_1424_">
		<path fill="none" stroke="#FB8604" stroke-width="2" stroke-linecap="round" stroke-linejoin="round" stroke-miterlimit="10" d="
			M515.787,198.814l-0.263,1.56c-0.156,1.006-0.26,2.039-0.138,3.053c0.095,0.851,0.378,1.7,0.78,2.447
			c0.849,1.588,2.078,3.046,2.94,4.627c0.611,1.097,1.068,2.4,0.935,3.623c-0.086,0.912-0.388,1.736-0.782,2.549
			c-0.551,1.12-1.277,2.171-2.021,3.171c-1.791,2.376-4.647,5.635-6.363,8.052c-1.115,1.548-2.15,3.196-3.06,4.872
			c-3.06,5.657-5.025,12-5.161,18.457c-0.079,3.287,0.464,6.58,1.197,9.774c1.122,5.007,3.034,10.695,2.468,15.859
			c-0.28,2.903-1.624,6.769-2.437,9.587c-0.67,2.355-1.193,4.798-1.162,7.257c0.018,1.934,0.393,3.863,0.982,5.702
			c0.456,1.406,1.042,2.789,1.801,4.06c0.541,0.89,1.238,1.864,2.085,2.405c0.058,0.035,0.087,0.052,0.087,0.052
			c0.058,0.032,0.087,0.047,0.087,0.047c0.057,0.029,0.086,0.043,0.086,0.043c0.057,0.026,0.086,0.038,0.086,0.038
			c0.057,0.023,0.085,0.033,0.085,0.033c0.056,0.019,0.084,0.028,0.084,0.028c0.056,0.016,0.084,0.023,0.084,0.023
			c0.055,0.013,0.083,0.018,0.083,0.018c0.055,0.009,0.082,0.013,0.082,0.013c0.055,0.006,0.082,0.008,0.082,0.008
			c0.054,0.002,0.081,0.002,0.081,0.002c0.053-0.001,0.08-0.003,0.08-0.003c0.053-0.005,0.079-0.008,0.079-0.008
			c0.052-0.009,0.078-0.014,0.078-0.014c0.077-0.02,0.111-0.03,0.111-0.03c0.067-0.024,0.1-0.038,0.1-0.038
			c0.066-0.031,0.098-0.047,0.098-0.047c0.065-0.037,0.097-0.057,0.097-0.057c0.064-0.043,0.095-0.066,0.095-0.066
			c0.063-0.049,0.094-0.075,0.094-0.075c0.062-0.055,0.092-0.084,0.092-0.084c0.061-0.061,0.091-0.093,0.091-0.093
			c0.06-0.067,0.089-0.102,0.089-0.102c0.316-0.385,0.499-0.744,0.698-1.16c0.254-0.547,0.47-1.15,0.657-1.724
			c1.822-5.822,2.609-12.873,5.526-18.29c1.01-1.839,2.35-3.493,3.858-4.947c1.72-1.688,4.236-3.564,5.87-5.335
			c1.326-1.4,2.296-3.101,3.082-4.851c1.548-3.389,2.702-7.522,5.179-10.384c1.439-1.696,3.561-3.293,5.268-4.719
			c1.348-1.137,2.724-2.435,3.558-3.994c1.102-2.026,1.467-4.616,2.208-6.78c0.442-1.331,1.167-2.655,2.254-3.487
			c1.233-0.968,2.6-1.464,4.081-1.824c1.697-0.395,3.462-0.531,5.202-0.496"/>
	</g>
	<g id="POLYLINE_1423_">
		<path fill="none" stroke="#FB8604" stroke-width="2" stroke-linecap="round" stroke-linejoin="round" stroke-miterlimit="10" d="
			M473.76,436.97c-4.26,1.661-8.912,2.145-13.457,1.995c-3.074-0.127-6.183-0.504-9.158-1.304c-3.082-0.857-6.222-2.414-6.707-5.877
			c-0.242-1.608,0.01-3.258,0.47-4.805c0.598-1.968,1.564-3.828,2.802-5.469c0.863-1.143,1.893-2.174,2.965-3.121
			c2.2-1.95,4.921-3.781,6.908-5.956c0.791-0.861,1.477-1.831,2.013-2.87c1.33-2.541,2.132-5.765,3.47-8.302
			c0.604-1.16,1.351-2.263,2.274-3.193c1.337-1.347,2.992-2.373,4.615-3.339c0.746-0.436,2.885-1.665,3.6-2.166
			c0.691-0.473,1.444-1.047,1.871-1.714c0.035-0.057,0.052-0.085,0.052-0.085c0.032-0.057,0.048-0.086,0.048-0.086
			c0.03-0.057,0.044-0.086,0.044-0.086c0.027-0.058,0.039-0.086,0.039-0.086c0.024-0.058,0.035-0.087,0.035-0.087
			c0.021-0.058,0.03-0.087,0.03-0.087c0.018-0.058,0.026-0.088,0.026-0.088c0.014-0.056,0.02-0.083,0.02-0.083
			c0.011-0.054,0.015-0.081,0.015-0.081c0.008-0.054,0.012-0.081,0.012-0.081c0.006-0.054,0.008-0.081,0.008-0.081
			c0.003-0.054,0.004-0.082,0.004-0.082c0.001-0.055,0.001-0.082,0.001-0.082c-0.002-0.055-0.003-0.083-0.003-0.083
			c-0.004-0.055-0.006-0.083-0.006-0.083c-0.006-0.056-0.01-0.084-0.01-0.084c-0.008-0.056-0.013-0.084-0.013-0.084
			c-0.011-0.056-0.016-0.085-0.016-0.085c-0.122-0.56-0.418-1.061-0.698-1.482c-0.364-0.538-0.762-1.013-1.181-1.5
			c-1.37-1.556-3-3.259-4.093-5.014c-1.47-2.346-2.267-5.051-2.885-7.729l-1.289-6.068c-0.425-1.889-0.986-3.784-1.745-5.566
			c-1.3-3.112-3.346-6.589-4.681-9.688c-1.205-2.748-2.065-5.666-2.499-8.636c-0.388-2.653-0.465-5.38-0.042-8.034
			c0.307-1.897,0.883-3.774,1.841-5.447c1.277-2.24,3.24-3.994,5.241-5.578c1.405-1.113,3.831-2.863,5.098-4.078
			c0.843-0.79,1.673-1.729,2.197-2.753c1.142-2.168,1.135-4.937-0.276-6.906c-1.243-1.746-3.509-2.52-5.333-3.46
			c-1.463-0.722-2.99-1.692-3.9-3.037c-0.707-1.022-1.157-2.204-1.524-3.384c-0.909-2.923-1.281-6.154-2.585-8.944
			c-0.372-0.797-0.944-1.646-1.561-2.234c-1.241-1.228-2.894-2.009-4.383-2.87c-1.085-0.622-2.264-1.423-2.878-2.499
			c-0.456-0.793-0.64-1.619-0.744-2.506c-0.13-1.192-0.073-2.418,0.015-3.612c0,0,0.482-5.081,0.482-5.081
			c0.095-1.243,0.153-2.526,0.079-3.77c-0.084-1.568-0.454-3.511-0.708-5.072c-0.217-1.492-0.459-3.299,0.468-4.566
			c0.058-0.077,0.078-0.103,0.078-0.103c0.062-0.076,0.084-0.1,0.084-0.1c0.066-0.074,0.089-0.098,0.089-0.098
			c0.655-0.666,1.403-1.013,2.195-1.366c1.083-0.468,2.965-1.075,4.064-1.517c1.342-0.541,2.883-1.264,3.654-2.5
			c0.439-0.709,0.569-1.512,0.562-2.292c-0.011-0.816-0.174-1.628-0.402-2.41c-0.469-1.577-1.208-3.075-2.04-4.49
			c-0.959-1.614-2.079-3.171-3.322-4.578"/>
	</g>
	<g id="POLYLINE_1422_">
		<path fill="none" stroke="#FB8604" stroke-width="2" stroke-linecap="round" stroke-linejoin="round" stroke-miterlimit="10" d="
			M423.808,347.732c-0.275-1.642-0.778-3.26-1.557-4.734c-0.513-0.955-1.202-1.963-2.091-2.54c-0.069-0.043-0.092-0.057-0.092-0.057
			c-0.069-0.04-0.092-0.052-0.092-0.052c-0.069-0.036-0.092-0.048-0.092-0.048c-0.069-0.033-0.092-0.043-0.092-0.043
			c-0.069-0.029-0.092-0.038-0.092-0.038c-0.069-0.025-0.092-0.033-0.092-0.033c-0.069-0.022-0.092-0.028-0.092-0.028
			c-0.069-0.018-0.092-0.023-0.092-0.023c-0.069-0.014-0.092-0.018-0.092-0.018c-0.069-0.01-0.091-0.013-0.091-0.013
			c-0.068-0.007-0.091-0.008-0.091-0.008c-0.068-0.003-0.091-0.003-0.091-0.003c-0.068,0.001-0.09,0.002-0.09,0.002
			c-0.063,0.005-0.084,0.007-0.084,0.007c-0.063,0.008-0.084,0.012-0.084,0.012c-0.062,0.012-0.083,0.016-0.083,0.016
			c-0.062,0.015-0.083,0.02-0.083,0.02c-0.062,0.018-0.083,0.025-0.083,0.025c-0.062,0.021-0.082,0.029-0.082,0.029
			c-0.062,0.024-0.082,0.033-0.082,0.033c-0.061,0.027-0.082,0.037-0.082,0.037c-0.061,0.03-0.082,0.041-0.082,0.041
			c-0.576,0.312-0.964,0.732-1.385,1.189c-0.631,0.709-1.491,1.851-2.11,2.571c-0.476,0.557-1.026,1.147-1.583,1.615
			c-0.71,0.595-1.437,1.066-2.24,1.505c-1.709,0.933-4.122,1.9-5.828,2.841c-1.447,0.785-2.828,1.727-4.039,2.844
			c-2.628,2.442-4.696,5.449-6.382,8.6c-1.319,2.529-2.45,5.215-2.947,8.037c-0.161,0.94-0.228,1.973-0.095,2.91
			c0.137,0.992,0.477,1.852,0.994,2.651c0.481,0.743,1.099,1.399,1.743,2.003c0.816,0.755,1.698,1.495,2.589,2.16
			c2.428,1.798,5.47,3.417,8.574,2.707c1.461-0.331,2.804-1.064,4.024-1.917c1.92-1.357,3.601-3.052,5.15-4.812
			c1.429-1.636,2.801-3.382,3.894-5.261c1.132-1.93,2.029-4.026,2.813-6.119c1.08-2.923,1.936-5.976,2.376-9.065
			C424.094,352.446,424.187,350.057,423.808,347.732z"/>
	</g>
	<g id="POLYLINE_1421_">
		<path fill="none" stroke="#FB8604" stroke-width="2" stroke-linecap="round" stroke-linejoin="round" stroke-miterlimit="10" d="
			M424.864,255.949c1.987,0.1,3.977,0.465,5.828,1.208c2.724,1.105,5.251,2.813,7.142,5.077c0.841,1.02,1.537,2.177,1.966,3.43
			c0.774,2.252,0.757,4.728,0.184,7.025c-0.411,1.704-1.192,3.301-2.124,4.778c-0.399,0.639-1.144,1.799-1.497,2.457
			c-0.283,0.527-0.568,1.149-0.639,1.72c-0.008,0.066-0.01,0.087-0.01,0.087c-0.005,0.065-0.006,0.087-0.006,0.087
			c-0.003,0.064-0.003,0.086-0.003,0.086c0,0.064,0,0.085,0,0.085c0.003,0.063,0.004,0.084,0.004,0.084
			c0.005,0.062,0.007,0.083,0.007,0.083c0.008,0.062,0.011,0.082,0.011,0.082c0.011,0.061,0.015,0.081,0.015,0.081
			c0.014,0.061,0.019,0.082,0.019,0.082c0.017,0.061,0.023,0.081,0.023,0.081c0.02,0.06,0.027,0.08,0.027,0.08
			c0.022,0.06,0.03,0.079,0.03,0.079c0.025,0.059,0.034,0.079,0.034,0.079c0.028,0.059,0.037,0.078,0.037,0.078
			c0.03,0.058,0.041,0.077,0.041,0.077c0.044,0.077,0.067,0.115,0.067,0.115c0.049,0.076,0.074,0.114,0.074,0.114
			c0.053,0.076,0.081,0.114,0.081,0.114c0.576,0.756,1.514,1.467,2.203,2.094c1.12,0.988,2.157,2.175,2.767,3.539
			c0.582,1.265,0.918,2.641,1.14,4.012c0.337,2.129,0.395,4.326,0.326,6.478c-0.122,3.321-0.551,6.678-1.259,9.924
			c-0.448,1.998-1.001,4.017-1.962,5.836c-1.103,2.125-2.83,3.858-4.693,5.331c-1.175,0.921-2.441,1.764-3.785,2.418
			c-0.91,0.439-1.873,0.806-2.872,0.979c-0.705,0.132-1.56,0.132-2.218-0.049c-1.045-0.271-1.898-0.974-2.517-1.758
			c-0.704-0.9-1.134-1.846-1.467-2.909c-0.398-1.298-0.546-2.67-0.485-4.025c0.036-1.372,0.395-3.434,0.522-4.811
			c0.079-0.85,0.11-1.809-0.039-2.638c-0.252-1.539-1.258-2.792-2.071-4.064c-0.575-0.884-1.108-1.969-0.995-3.025
			c0.08-0.857,0.362-1.551,0.676-2.314c0.498-1.132,1.201-2.578,1.546-3.76c0.229-0.769,0.359-1.625,0.305-2.367
			c-0.071-1.007-0.367-1.896-0.797-2.74c-0.554-1.056-1.371-2.104-2.419-2.629c-0.067-0.031-0.089-0.041-0.089-0.041
			c-0.066-0.028-0.089-0.037-0.089-0.037c-0.066-0.025-0.088-0.033-0.088-0.033c-0.066-0.022-0.088-0.029-0.088-0.029
			c-0.066-0.019-0.088-0.025-0.088-0.025c-0.065-0.016-0.087-0.021-0.087-0.021c-0.065-0.013-0.087-0.017-0.087-0.017
			c-0.065-0.01-0.086-0.013-0.086-0.013c-0.064-0.007-0.086-0.008-0.086-0.008c-0.064-0.003-0.085-0.004-0.085-0.004
			c-0.063,0-0.084,0.001-0.084,0.001c-0.062,0.004-0.083,0.005-0.083,0.005c-0.073,0.009-0.097,0.012-0.097,0.012
			c-0.072,0.013-0.095,0.018-0.095,0.018c-0.071,0.018-0.094,0.025-0.094,0.025c-0.07,0.022-0.093,0.031-0.093,0.031
			c-0.069,0.027-0.092,0.036-0.092,0.036c-0.069,0.031-0.091,0.042-0.091,0.042c-0.068,0.035-0.091,0.048-0.091,0.048
			c-0.067,0.039-0.09,0.053-0.09,0.053c-0.067,0.043-0.089,0.058-0.089,0.058c-0.066,0.047-0.089,0.063-0.089,0.063
			c-0.969,0.773-1.609,1.958-2.307,2.951c-0.682,1.013-1.414,2.037-2.278,2.901c-1.894,1.946-4.497,2.771-7.035,3.49
			c-0.887,0.242-2.322,0.623-3.188,0.903c-0.628,0.206-1.361,0.48-1.868,0.844c-0.075,0.056-0.099,0.075-0.099,0.075
			c-0.07,0.057-0.092,0.077-0.092,0.077c-0.065,0.059-0.085,0.079-0.085,0.079c-0.059,0.061-0.078,0.081-0.078,0.081
			c-0.054,0.062-0.071,0.083-0.071,0.083c-0.048,0.064-0.063,0.086-0.063,0.086c-0.043,0.066-0.052,0.082-0.052,0.082
			c-0.035,0.063-0.043,0.079-0.043,0.079c-0.03,0.065-0.037,0.081-0.037,0.081c-0.025,0.066-0.031,0.083-0.031,0.083
			c-0.021,0.068-0.026,0.085-0.026,0.085c-0.017,0.069-0.02,0.086-0.02,0.086c-0.012,0.07-0.015,0.088-0.015,0.088
			c-0.008,0.072-0.01,0.09-0.01,0.09c-0.004,0.073-0.005,0.091-0.005,0.091c0,0.074,0,0.093,0,0.093
			c0.004,0.076,0.005,0.095,0.005,0.095c0.059,0.577,0.286,1.047,0.549,1.519c0.351,0.61,0.785,1.187,1.228,1.733
			c1.264,1.579,2.938,3.139,3.969,4.888c0.612,1.024,1.013,2.174,1.168,3.357c0.188,1.421,0.089,2.876-0.125,4.289
			c-0.321,2.05-0.915,4.067-1.689,5.991c-1.153,2.834-2.714,5.542-4.783,7.807c-1.375,1.497-3.001,2.782-4.787,3.753
			c-3.313,1.812-7.215,2.531-10.954,1.994c-3.158-0.464-6.223-1.714-8.765-3.649c-1.377-1.074-2.743-2.49-3.16-4.18
			c-0.294-1.15-0.159-2.49-0.135-3.663c0.023-0.989-0.039-1.994-0.28-2.956c-0.303-1.207-0.831-2.356-1.451-3.431
			c-0.615-1.053-1.341-2.057-2.192-2.933c-0.732-0.737-1.574-1.437-2.536-1.677c-0.059-0.013-0.089-0.019-0.089-0.019
			c-0.059-0.011-0.088-0.015-0.088-0.015c-0.058-0.008-0.088-0.012-0.088-0.012c-0.058-0.006-0.087-0.008-0.087-0.008
			c-0.057-0.003-0.086-0.004-0.086-0.004c-0.057-0.001-0.085,0-0.085,0c-0.056,0.002-0.084,0.004-0.084,0.004
			c-0.056,0.005-0.082,0.007-0.082,0.007c-0.052,0.007-0.078,0.011-0.078,0.011c-0.052,0.009-0.078,0.014-0.078,0.014
			c-0.077,0.018-0.102,0.025-0.102,0.025c-0.076,0.022-0.101,0.031-0.101,0.031c-0.075,0.027-0.1,0.037-0.1,0.037
			c-0.074,0.031-0.098,0.042-0.098,0.042c-0.073,0.035-0.097,0.048-0.097,0.048c-0.072,0.04-0.096,0.053-0.096,0.053
			c-0.071,0.044-0.095,0.059-0.095,0.059c-0.07,0.047-0.094,0.064-0.094,0.064c-0.07,0.051-0.093,0.069-0.093,0.069
			c-0.069,0.055-0.092,0.074-0.092,0.074c-0.767,0.671-1.219,1.465-1.728,2.307c-0.972,1.665-1.975,3.7-3.385,5.02
			c-1.214,1.14-2.61,1.809-4.115,2.429c-1.98,0.787-4.647,1.733-6.46,2.812c-1.581,0.909-3.032,2.049-4.364,3.291
			c-0.962,0.903-1.88,1.877-2.685,2.924c-0.6,0.801-1.263,1.743-1.492,2.689c-0.011,0.056-0.016,0.083-0.016,0.083
			c-0.009,0.054-0.013,0.08-0.013,0.08c-0.006,0.052-0.009,0.078-0.009,0.078c-0.005,0.075-0.006,0.1-0.006,0.1
			c0,0.072,0.001,0.095,0.001,0.095c0.006,0.068,0.009,0.09,0.009,0.09c0.011,0.064,0.016,0.085,0.016,0.085
			c0.017,0.061,0.023,0.08,0.023,0.08c0.031,0.075,0.04,0.093,0.04,0.093c0.041,0.068,0.052,0.084,0.052,0.084
			c0.065,0.076,0.079,0.09,0.079,0.09c0.063,0.053,0.08,0.065,0.08,0.065c0.073,0.046,0.092,0.057,0.092,0.057
			c0.061,0.03,0.082,0.04,0.082,0.04c0.067,0.026,0.09,0.035,0.09,0.035c0.072,0.023,0.097,0.03,0.097,0.03
			c0.077,0.019,0.104,0.025,0.104,0.025c0.055,0.011,0.082,0.016,0.082,0.016c0.749,0.108,1.387,0.014,2.102-0.057l2.969-0.387
			c2.327-0.261,4.846-0.431,7.044,0.511c1.986,0.869,3.454,2.509,4.661,4.258c2.235,3.242,3.774,7.373,5.866,10.704
			c0.728,1.142,1.605,2.203,2.55,3.172c1.305,1.35,2.952,2.727,4.13,4.191c1.338,1.636,2.247,3.596,2.812,5.625
			c0.393,1.43,0.617,2.922,0.581,4.406c-0.029,1.05-0.19,2.109-0.57,3.092c-0.681,1.796-2.14,3.159-3.433,4.515
			c-0.669,0.711-1.406,1.527-1.727,2.445c-0.32,0.923-0.264,1.825-0.107,2.749c0.205,1.18,0.707,2.719,1.003,3.877l0.584,2.355
			c0.215,0.797,0.463,1.658,0.886,2.364c0.047,0.076,0.072,0.113,0.072,0.113c0.049,0.072,0.074,0.108,0.074,0.108
			c0.051,0.069,0.077,0.102,0.077,0.102c0.053,0.065,0.08,0.097,0.08,0.097c0.069,0.076,0.083,0.091,0.083,0.091
			c0.071,0.071,0.086,0.084,0.086,0.084c0.074,0.065,0.089,0.078,0.089,0.078c0.076,0.06,0.092,0.072,0.092,0.072
			c0.063,0.044,0.079,0.054,0.079,0.054c0.065,0.04,0.082,0.05,0.082,0.05c0.067,0.036,0.084,0.045,0.084,0.045
			c0.069,0.032,0.087,0.04,0.087,0.04c0.071,0.028,0.089,0.034,0.089,0.034c0.073,0.024,0.092,0.029,0.092,0.029
			c0.064,0.017,0.09,0.023,0.09,0.023c0.053,0.011,0.08,0.016,0.08,0.016c0.054,0.008,0.082,0.012,0.082,0.012
			c0.056,0.006,0.084,0.008,0.084,0.008c0.057,0.004,0.086,0.005,0.086,0.005c0.058,0.001,0.087,0.001,0.087,0.001
			c0.059-0.001,0.089-0.002,0.089-0.002c0.647-0.031,1.266-0.276,1.79-0.506c0.676-0.303,1.35-0.687,1.987-1.066l4.111-2.565
			c1.629-0.975,3.349-1.886,5.215-2.303c1.038-0.227,2.228-0.312,3.177,0.141c0.063,0.031,0.084,0.042,0.084,0.042
			c0.061,0.033,0.082,0.045,0.082,0.045c0.06,0.035,0.08,0.047,0.08,0.047c0.077,0.05,0.096,0.063,0.096,0.063
			c0.075,0.054,0.093,0.067,0.093,0.067c0.072,0.057,0.09,0.072,0.09,0.072c0.069,0.06,0.086,0.076,0.086,0.076
			c0.066,0.064,0.082,0.08,0.082,0.08c0.063,0.067,0.079,0.085,0.079,0.085c0.06,0.071,0.075,0.089,0.075,0.089
			c0.057,0.075,0.071,0.094,0.071,0.094c0.041,0.058,0.054,0.078,0.054,0.078c0.508,0.803,0.601,1.681,0.683,2.558
			c0.093,1.051,0.033,3.51,0.038,4.593c0.015,1.223,0.068,2.471,0.361,3.662c0.241,0.976,0.671,1.902,1.15,2.781
			c0.692,1.296,1.72,2.798,1.662,4.31c-0.028,0.732-0.238,1.329-0.497,1.969c-0.326,0.802-0.966,1.963-1.345,2.749
			c-0.322,0.673-0.668,1.457-0.733,2.183c-0.006,0.074-0.007,0.099-0.007,0.099c-0.003,0.073-0.003,0.098-0.003,0.098
			c0,0.073,0.001,0.096,0.001,0.096c0.003,0.072,0.005,0.095,0.005,0.095c0.006,0.071,0.009,0.094,0.009,0.094
			c0.009,0.07,0.013,0.093,0.013,0.093c0.014,0.076,0.018,0.095,0.018,0.095c0.018,0.075,0.023,0.094,0.023,0.094
			c0.021,0.074,0.027,0.092,0.027,0.092c0.025,0.073,0.032,0.091,0.032,0.091c0.028,0.072,0.043,0.107,0.043,0.107
			c0.032,0.071,0.049,0.106,0.049,0.106c0.036,0.069,0.054,0.104,0.054,0.104c0.039,0.068,0.059,0.102,0.059,0.102
			c0.042,0.067,0.064,0.101,0.064,0.101c0.528,0.769,1.308,1.324,1.983,1.919c0.386,0.334,0.812,0.752,1.06,1.124
			c0.044,0.067,0.066,0.101,0.066,0.101c0.04,0.065,0.058,0.097,0.058,0.097c0.035,0.064,0.052,0.096,0.052,0.096
			c0.033,0.064,0.048,0.097,0.048,0.097c0.03,0.065,0.044,0.098,0.044,0.098c0.027,0.066,0.041,0.099,0.041,0.099
			c0.501,1.387,0.093,2.759-0.259,4.088"/>
	</g>
	<g id="POLYLINE_1191_">
		<path fill="none" stroke="#FB8604" stroke-width="2" stroke-linecap="round" stroke-linejoin="round" stroke-miterlimit="10" d="
			M209.038,427.724c-1.133-0.782-2.416-1.708-3.236-2.787c-0.561-0.707-0.982-1.624-1.153-2.486
			c-0.585-2.89,0.057-6.039-0.839-8.878c-0.584-1.852-1.912-3.568-2.998-5.159c-0.817-1.189-1.598-2.443-2.181-3.765
			c-0.689-1.558-1.162-3.22-1.465-4.895c-0.543-3.086-0.561-6.316,0.259-9.355c0.342-1.244,0.842-2.454,1.539-3.543
			c0.904-1.421,2.109-2.64,3.346-3.773l2.772-2.477c2.016-1.83,3.878-3.949,4.774-6.563c0.851-2.448,1.051-5.094,0.868-7.667
			c-0.18-2.262-0.657-4.541-1.643-6.595c-0.432-0.885-1.017-1.801-1.735-2.466c-0.552-0.518-1.235-0.91-1.901-1.098
			c-1.507-0.45-3.193-0.265-4.737-0.223c-1.388,0.052-2.98-0.02-4.16-0.759c-0.861-0.536-1.449-1.23-1.974-2.042
			c-0.554-0.876-0.962-1.843-1.263-2.833c-0.911-3.085-0.934-6.458,0.01-9.538c1.651-5.211,6.301-8.637,10.591-11.652
			c2.756-1.904,6.069-4.064,8.428-6.428c2.125-2.079,3.838-4.578,5-7.316c1.497-3.49,2.319-7.744,3.499-11.349
			c1.252-3.942,3.076-7.784,5.857-10.882c2.201-2.469,4.9-4.475,7.719-6.184c3.801-2.283,7.923-4.069,12.141-5.426
			c3.223-1.027,6.562-1.823,9.922-2.24c2.463-0.298,4.993-0.405,7.457-0.063c1.295,0.177,2.59,0.474,3.837,0.864
			c1.913,0.572,4.579,1.771,6.431,2.52c2.541,1.056,5.268,1.694,7.978,2.144c3.279,0.542,7.819,1.125,10.965,1.997
			c2.513,0.689,4.985,1.728,7.009,3.399c1.422,1.168,2.581,2.663,3.334,4.344c0.684,1.519,1.05,3.17,1.306,4.81
			c0.525,3.451,0.607,7.439,1.107,10.892c0.344,2.421,0.952,4.85,2.149,6.999c0.841,1.534,2.088,3.046,3.604,3.88
			c2.325,1.335,5.134,0.727,7.079-0.861c1.475-1.197,2.384-2.811,2.734-4.618c0.664-3.496-0.163-7.513-0.09-11.04
			c0.031-1.312,0.174-2.748,0.81-3.909c0.69-1.236,1.752-1.998,2.9-2.693c1.424-0.846,3.262-1.694,4.594-2.68
			c2.035-1.431,3.322-3.78,4.712-5.774c0.978-1.406,2.22-2.892,3.865-3.413c0.925-0.298,1.809-0.296,2.739-0.207
			c1.105,0.115,2.205,0.388,3.271,0.696c2.538,0.74,5.806,2.066,8.348,2.787c1.222,0.344,2.487,0.639,3.76,0.682
			c1.046,0.039,2.104-0.164,3.053-0.61c2.106-0.985,3.755-2.987,5.395-4.56c0.776-0.753,1.603-1.49,2.48-2.122
			c1.292-0.936,2.704-1.724,4.156-2.384c2.716-1.227,5.634-2.063,8.585-2.483c1.289-0.182,2.611-0.268,3.912-0.256
			c1.542,0.004,3.414,0.161,4.946,0.013c0.949-0.087,1.953-0.357,2.713-0.859c1.49-0.986,2.525-2.808,3.575-4.201
			c0.953-1.301,2.168-2.723,3.74-3.169c1.206-0.343,2.405-0.254,3.624-0.114c1.033,0.123,2.736,0.435,3.769,0.528
			c0.832,0.077,1.776,0.092,2.527-0.179c0.135-0.05,0.189-0.074,0.269-0.111c0.077-0.038,0.115-0.057,0.115-0.057
			c0.075-0.041,0.111-0.062,0.111-0.062c0.072-0.044,0.108-0.066,0.108-0.066c0.07-0.046,0.104-0.07,0.104-0.07
			c0.068-0.049,0.101-0.074,0.101-0.074c0.065-0.052,0.098-0.078,0.098-0.078c0.063-0.054,0.094-0.082,0.094-0.082
			c0.061-0.057,0.091-0.085,0.091-0.085c0.059-0.059,0.087-0.089,0.087-0.089c0.056-0.061,0.084-0.092,0.084-0.092
			c0.054-0.063,0.08-0.095,0.08-0.095c0.052-0.065,0.077-0.098,0.077-0.098c0.049-0.067,0.073-0.101,0.073-0.101
			c0.601-0.877,0.8-1.91,0.657-2.905c-0.337-2.049-2.23-3.303-3.934-4.068"/>
	</g>
</g>
<g id="AG-ANIMALS">
	<g id="POLYLINE_1444_">
		
			<path fill="none" stroke="#FB8604" stroke-width="2.75" stroke-linecap="round" stroke-linejoin="round" stroke-miterlimit="10" d="
			M648.378,272.684c-0.599-0.579-1.335-1.248-2.051-1.589c-0.068-0.031-0.102-0.046-0.102-0.046c-0.067-0.027-0.1-0.04-0.1-0.04
			c-0.066-0.024-0.099-0.035-0.099-0.035c-0.065-0.02-0.097-0.029-0.097-0.029c-0.064-0.016-0.08-0.02-0.08-0.02
			c-0.063-0.013-0.079-0.016-0.079-0.016c-0.062-0.01-0.078-0.012-0.078-0.012c-0.077-0.007-0.092-0.008-0.092-0.008
			c-0.076-0.002-0.091-0.002-0.091-0.002c-0.074,0.003-0.089,0.004-0.089,0.004c-0.073,0.009-0.087,0.011-0.087,0.011
			c-0.072,0.014-0.086,0.018-0.086,0.018c-0.07,0.02-0.084,0.024-0.084,0.024c-0.069,0.026-0.082,0.031-0.082,0.031
			c-0.067,0.031-0.081,0.038-0.081,0.038c-0.066,0.037-0.079,0.046-0.079,0.046c-0.077,0.053-0.09,0.062-0.09,0.062
			c-0.075,0.062-0.087,0.073-0.087,0.073c-0.073,0.071-0.085,0.083-0.085,0.083c-0.059,0.066-0.071,0.08-0.071,0.08
			c-0.058,0.072-0.069,0.088-0.069,0.088c-0.045,0.063-0.067,0.096-0.067,0.096c-0.044,0.068-0.065,0.104-0.065,0.104
			c-0.397,0.707-0.54,1.419-0.68,2.191c-0.164,1.005-0.22,2.033-0.199,3.05c0.036,1.458,0.222,2.931,0.684,4.319
			c0.417,1.239,1.084,2.405,1.974,3.366c1.426,1.547,3.877,2.929,5.913,1.882c0.076-0.042,0.101-0.056,0.101-0.056
			c0.074-0.044,0.099-0.059,0.099-0.059c0.073-0.047,0.096-0.063,0.096-0.063c0.071-0.049,0.094-0.066,0.094-0.066
			c0.069-0.052,0.091-0.07,0.091-0.07c0.067-0.055,0.089-0.073,0.089-0.073c0.065-0.057,0.086-0.076,0.086-0.076
			c1.031-0.965,1.324-2.331,1.254-3.661c-0.106-1.807-0.886-3.5-1.838-5.013C651.084,275.632,649.797,274.079,648.378,272.684z"/>
	</g>
	<g id="POLYLINE_1443_">
		
			<path fill="none" stroke="#FB8604" stroke-width="2.75" stroke-linecap="round" stroke-linejoin="round" stroke-miterlimit="10" d="
			M221.958,594.112c2.424,0.139,4.888,0.008,7.255-0.554c3.88-0.938,7.548-2.775,10.683-5.239"/>
	</g>
	<g id="POLYLINE_1442_">
		
			<path fill="none" stroke="#FB8604" stroke-width="2.75" stroke-linecap="round" stroke-linejoin="round" stroke-miterlimit="10" d="
			M482.066,414.393c9.726-3.052,21.155-11.055,26.005-20.168c2.345-4.356,3.25-9.322,3.64-14.209
			c0.895-12.115-0.023-29.121,1.142-41.201c0.258-2.686,0.629-5.477,1.262-8.102c0.481-2.021,1.141-4.047,1.92-5.973
			c1.315-3.308,4.037-8.431,5.603-11.643c6.077-12.757,11.924-29.262,18.738-41.597c1.663-2.984,3.542-5.917,5.765-8.516
			c2.377-2.785,5.214-5.253,8.51-6.884c2.241-1.132,5.985-2.211,8.382-3.028"/>
	</g>
	<g id="POLYLINE_1441_">
		
			<path fill="none" stroke="#FB8604" stroke-width="2.75" stroke-linecap="round" stroke-linejoin="round" stroke-miterlimit="10" d="
			M558.386,227.829c-1.401,6.391-2.333,13.45,0.602,19.555c1.387,2.891,3.551,5.347,5.891,7.508
			c4.106,3.751,8.92,6.765,13.715,9.552l23.938,13.35c5.797,3.397,12.45,7.326,17.968,11.109c1.299,0.908,2.61,1.886,3.78,2.952
			c0.719,0.657,1.407,1.372,1.993,2.15c0.508,0.658,1.005,1.559,1.422,2.285c0.552,0.984,1.279,2.031,2.264,2.515
			c1,0.498,2.004,0.603,3.066,0.667c1.464,0.066,2.978-0.063,4.436-0.213c2.517-0.335,6.651-0.73,9.108-1.249
			c1.692-0.357,3.448-0.975,4.808-2.052c1.255-0.983,2.064-2.182,2.716-3.581c1.18-2.596,1.672-5.462,1.905-8.287
			c0.216-2.84,0.127-5.723-0.213-8.551c-0.323-2.642-0.872-5.285-1.718-7.81c-0.796-2.376-1.875-4.674-3.149-6.831
			c-2.444-4.239-6.694-9.14-9.764-12.985c-4.107-5.092-11.769-16.539-15.585-22.01c-3.977-5.624-14.51-19.909-18.03-25.503
			c-3.376-5.381-6.812-11.621-9.793-17.234"/>
	</g>
	<g id="POLYLINE_1440_">
		
			<path fill="none" stroke="#FB8604" stroke-width="2.75" stroke-linecap="round" stroke-linejoin="round" stroke-miterlimit="10" d="
			M395.623,264.922c0.806-2.219,1.683-4.51,3.227-6.33c0.867-1.035,1.966-1.862,3.174-2.42c1.412-0.665,2.951-1.085,4.462-1.461
			c2.667-0.652,6.056-1.32,8.557-2.409c3.963-1.673,7.488-4.873,11.062-7.21c1.676-1.11,3.499-2.023,5.386-2.713
			c2.4-0.903,5.826-1.847,8.199-2.814c1.573-0.634,3.117-1.409,4.493-2.406c3.054-2.19,5.747-5.683,8.232-8.485
			c1.446-1.626,2.987-3.248,4.743-4.541c3.049-2.305,7.508-4.051,10.981-5.655c2.653-1.21,5.24-2.723,7.675-4.327
			c4.559-3.023,10.566-7.313,15.436-9.649c4.902-2.445,11.662-4.551,16.785-6.553c2.149-0.854,4.317-1.797,6.285-3.02
			c3.079-1.866,5.709-4.603,8.85-6.371c2.121-1.187,4.52-1.815,6.878-2.339l5.835-1.191c5.915-1.167,11.701-3.962,17.439-5.742
			c2.664-0.836,5.471-1.379,8.235-1.762c2.896-0.414,7.308-0.829,10.152-1.417c1.942-0.374,4.169-1.185,6.05-1.821
			c1.094-0.354,2.23-0.662,3.383-0.727c1.846-0.114,3.691,0.265,5.463,0.755"/>
	</g>
	<g id="POLYLINE_1439_">
		
			<path fill="none" stroke="#FB8604" stroke-width="2.75" stroke-linecap="round" stroke-linejoin="round" stroke-miterlimit="10" d="
			M192.598,515.026c0.858,2.045,1.546,4.266,2.152,6.402c2.263,8.319,6.931,31.03,8.923,39.643
			c0.915,4.409,1.928,9.073,2.289,13.556c0.043,0.531,0.04,1.186,0.061,1.702c0.032,0.59,0.154,1.154,0.312,1.652
			c0.469,1.432,1.308,2.555,2.349,3.577c1.166,1.143,2.575,2.04,3.977,2.866c1.363,0.837,2.78,1.772,4.052,2.74
			c1.148,0.877,2.268,1.832,3.227,2.916c0.698,0.79,1.309,1.678,1.681,2.669c0.358,0.941,0.469,1.979,0.285,2.971
			c-0.053,0.314-0.151,0.628-0.237,0.934c-0.098,0.365-0.176,0.744-0.229,1.118c-0.163,1.136-0.095,2.306,0.194,3.417
			c0.178,0.661,0.412,1.401,0.811,1.939c0.057,0.076,0.086,0.114,0.086,0.114c0.06,0.074,0.09,0.111,0.09,0.111
			c0.063,0.072,0.095,0.108,0.095,0.108c0.066,0.07,0.099,0.104,0.099,0.104c0.069,0.068,0.104,0.101,0.104,0.101
			c0.072,0.066,0.109,0.098,0.109,0.098c1.021,0.866,2.262,1.174,3.535,1.341c0.441,0.054,0.901,0.084,1.345,0.096
			c4.668,0.018,13.877,0.001,18.5,0.006c0.844,0.005,1.796-0.143,2.476-0.586c0.076-0.051,0.101-0.068,0.101-0.068
			c0.073-0.053,0.097-0.072,0.097-0.072c0.07-0.056,0.093-0.075,0.093-0.075c0.067-0.059,0.089-0.079,0.089-0.079
			c0.064-0.062,0.085-0.083,0.085-0.083c0.061-0.065,0.081-0.086,0.081-0.086c0.058-0.067,0.077-0.09,0.077-0.09
			c0.055-0.07,0.073-0.094,0.073-0.094c0.052-0.073,0.068-0.098,0.068-0.098c0.936-1.536,0.641-3.445,0.053-4.991
			c-0.464-1.175-1.267-2.191-2.082-3.144c-1.419-1.635-3.149-3.155-4.763-4.601c-1.361-1.253-2.896-2.719-4.167-4.055
			c-2.804-2.908-5.335-6.203-7.651-9.51c-1.537-2.223-3.136-4.56-4.321-6.99c-0.579-1.178-1.095-2.414-1.467-3.674
			c-0.149-0.504-0.28-1.051-0.383-1.566c-0.158-0.718-0.382-1.613-0.573-2.326c-1.504-5.544-3.702-12.174-5.431-17.661
			c-2.034-6.549-3.977-13.708-5.566-20.379c-1.381-5.699-2.592-11.661-2.872-17.526c-0.178-3.467-0.071-7.004,0.493-10.433
			c1.51-8.908,4.268-17.869,7.062-26.454c5.468-16.653,14.905-52.121,19.708-69.326"/>
	</g>
	<g id="POLYLINE_1438_">
		
			<path fill="none" stroke="#FB8604" stroke-width="2.75" stroke-linecap="round" stroke-linejoin="round" stroke-miterlimit="10" d="
			M157.212,525.472c0.908,1.597,1.867,3.24,3.059,4.641c0.864,1.025,1.863,1.945,2.954,2.724c1.431,1.023,3.018,1.87,4.605,2.624
			c2.509,1.187,5.296,2.221,7.92,3.14c1.874,0.628,4.015,1.413,5.931,1.871c0.613,0.138,1.306,0.275,1.924,0.23
			c0.077-0.008,0.114-0.012,0.114-0.012c0.072-0.011,0.09-0.014,0.09-0.014c0.069-0.014,0.086-0.018,0.086-0.018
			c0.065-0.017,0.081-0.021,0.081-0.021c0.076-0.025,0.091-0.031,0.091-0.031c0.07-0.03,0.084-0.036,0.084-0.036
			c0.077-0.042,0.089-0.05,0.089-0.05c0.069-0.049,0.079-0.058,0.079-0.058c0.069-0.066,0.078-0.076,0.078-0.076
			c0.057-0.076,0.065-0.087,0.065-0.087c0.04-0.074,0.046-0.088,0.046-0.088c0.028-0.074,0.033-0.09,0.033-0.09
			c0.017-0.064,0.02-0.081,0.02-0.081c0.012-0.068,0.014-0.086,0.014-0.086c0.007-0.072,0.008-0.091,0.008-0.091
			c0.002-0.076,0.002-0.096,0.002-0.096c-0.001-0.06-0.002-0.08-0.002-0.08c-0.031-0.442-0.135-0.786-0.257-1.185
			c-0.175-0.566-0.547-1.515-0.756-2.084c-0.555-1.514-1.093-3.09-1.129-4.717c-0.025-1.172,0.219-2.341,0.63-3.435
			c1.414-3.711,4.724-7.108,7.187-10.173c2.647-3.228,5.171-6.843,5.797-11.063c0.434-2.892,0.114-5.854-0.293-8.731
			c-0.536-3.473-1.59-9.006-1.766-12.455c-0.176-2.953,0.02-5.972,0.354-8.908c0.466-3.819,1.389-9.663,1.421-13.451
			c0.12-4.597-0.387-9.602-0.845-14.188"/>
	</g>
	<g id="POLYLINE_1437_">
		
			<path fill="none" stroke="#FB8604" stroke-width="2.75" stroke-linecap="round" stroke-linejoin="round" stroke-miterlimit="10" d="
			M590.201,192.032c2.34-2.074,4.441-4.451,6.268-6.986c1.617-2.254,3.054-4.677,4.164-7.222c1.279-2.915,2.082-6.038,2.567-9.179
			c0.357-2.378,0.644-4.847,0.711-7.251c0.008-1.112,0.032-2.348-0.323-3.401c-0.024-0.062-0.032-0.083-0.032-0.083
			c-0.025-0.059-0.034-0.078-0.034-0.078c-0.036-0.074-0.045-0.091-0.045-0.091c-0.038-0.068-0.048-0.084-0.048-0.084
			c-0.051-0.076-0.061-0.091-0.061-0.091c-0.054-0.067-0.065-0.079-0.065-0.079c-0.07-0.068-0.082-0.078-0.082-0.078
			c-0.075-0.054-0.088-0.062-0.088-0.062c-0.066-0.034-0.08-0.04-0.08-0.04c-0.071-0.024-0.086-0.028-0.086-0.028
			c-0.075-0.013-0.09-0.015-0.09-0.015c-0.063-0.003-0.079-0.003-0.079-0.003c-0.065,0.003-0.082,0.005-0.082,0.005
			c-0.067,0.01-0.085,0.013-0.085,0.013c-0.07,0.016-0.087,0.021-0.087,0.021c-0.072,0.023-0.09,0.029-0.09,0.029
			c-0.074,0.029-0.093,0.037-0.093,0.037c-0.076,0.035-0.096,0.044-0.096,0.044c-0.059,0.03-0.079,0.041-0.079,0.041
			c-0.58,0.33-0.987,0.737-1.44,1.186c-0.734,0.749-1.464,1.635-2.127,2.451c-4.1,5.068-8.277,11.229-14.024,14.525
			c-2.371,1.344-5.059,2.03-7.72,2.53l-7.643,1.308c-8.801,1.612-17.638,5.028-25.98,8.251
			c-1.578,0.658-29.941,12.069-30.527,12.394c-2.013,0.884-4.055,1.885-5.976,2.947c-2.26,1.24-4.671,2.743-6.837,4.155
			c-14.087,9.282-37.76,27.509-51.937,36.534c-6.866,4.399-14.092,8.486-21.627,11.611c-2.606,1.091-5.56,2.17-8.258,3.054
			c-3.875,1.304-11.967,3.427-16.059,4.554c-4.351,1.232-8.743,2.627-12.857,4.503c-4.624,2.103-10.141,5.329-14.8,7.338
			c-3.053,1.333-6.239,2.439-9.492,3.16c-3.19,0.712-6.503,1.062-9.765,1.202c-9.605,0.367-19.327-0.874-28.783-2.48
			c-10.332-1.711-25.892-5.538-36.24-7.986c-6.336-1.444-13.315-3.042-19.729-3.95c-5.751-0.854-11.66-1.289-17.475-1.215
			c-7.716,0.073-15.561,0.972-23.17,2.24c-10.453,1.808-21.115,4.149-31.289,7.164c-6.552,1.976-13.133,4.335-19.269,7.383
			c-5.185,2.579-10.158,5.747-14.3,9.822c-8.063,7.801-12.623,18.385-16.228,28.826c-3.594,10.538-6.02,21.637-5.949,32.812
			c0.043,11.972,3.534,24.378,4.416,36.28c0.333,4.434,0.172,8.955-0.428,13.36c-0.866,6.411-2.621,12.785-4.588,18.939
			c-4.129,12.812-10.94,29.843-13.064,43.141c-0.912,5.422-1.299,11-0.616,16.472c1.265,10.708,6.241,20.567,11.894,29.602"/>
	</g>
	<g id="POLYLINE_1436_">
		
			<path fill="none" stroke="#FB8604" stroke-width="2.75" stroke-linecap="round" stroke-linejoin="round" stroke-miterlimit="10" d="
			M247.48,389.059c3.382-0.178,6.899-0.319,10.272-0.082c2.898,0.194,5.816,0.667,8.616,1.447c2.629,0.731,5.261,1.731,7.775,2.79
			c4.783,1.996,15.39,7.27,20.2,9.432c3.114,1.399,6.872,2.961,10.063,4.176c8.227,3.124,16.826,5.661,25.444,7.432
			c8.146,1.704,16.667,2.719,24.967,3.36c4.988,0.376,10.963,0.683,15.964,0.851c11.912,0.35,54.782,0.829,66.631,0.857"/>
	</g>
	<g id="POLYLINE_1435_">
		
			<path fill="none" stroke="#FB8604" stroke-width="2.75" stroke-linecap="round" stroke-linejoin="round" stroke-miterlimit="10" d="
			M445.823,592.301c7.311-0.521,14.532-2.495,21.072-5.808"/>
	</g>
	<g id="POLYLINE_1434_">
		
			<path fill="none" stroke="#FB8604" stroke-width="2.75" stroke-linecap="round" stroke-linejoin="round" stroke-miterlimit="10" d="
			M144.335,595.503c5.96-2.505,12.204-5.5,17.955-8.462"/>
	</g>
	<g id="POLYLINE_1433_">
		
			<path fill="none" stroke="#FB8604" stroke-width="2.75" stroke-linecap="round" stroke-linejoin="round" stroke-miterlimit="10" d="
			M254.898,305.591c3.093,9.663,5.914,19.631,7.426,29.666c0.814,5.592,1.3,11.32,0.712,16.956c-0.297,2.94-1.067,5.904-1.826,8.756
			c-1.466,5.341-3.431,10.601-5.921,15.549c-1.663,3.328-3.664,6.613-5.792,9.667c-2.251,3.278-4.738,6.652-7.237,9.742
			c-3.08,3.827-6.574,7.595-10.172,10.948c-4.756,4.498-10.03,8.956-15.24,12.915c-4.902,3.893-8.791,8.943-12.368,14.038
			c-3.554,5.078-6.973,11.031-10.101,16.402c-3.012,5.116-6.696,11.133-9.92,16.107c-1.89,2.924-4.381,6.572-6.406,9.376
			c-2.469,3.406-4.897,7.073-7.005,10.714c-1.649,2.855-3.254,5.958-4.579,8.977c-1.322,3.026-2.531,6.296-3.588,9.426
			c-1.396,4.109-2.726,8.817-3.836,13.025c-1.84,7.037-3.392,14.376-3.954,21.634c-0.313,3.591-0.286,7.367-0.09,10.97
			c0.136,2.537,0.33,5.239,0.686,7.755c0.209,1.426,0.463,2.888,0.89,4.268c0.121,0.394,0.281,0.795,0.415,1.186
			c0.144,0.423,0.27,0.868,0.375,1.302c0.539,2.231,0.549,4.575,0.199,6.836c-0.614,3.358-0.425,6.938,1.023,10.066
			c1.314,2.792,3.475,5.098,5.76,7.131c3.261,2.753,6.432,5.855,8.171,9.822c0.286,0.633,0.55,1.319,0.74,1.989
			c0.06,0.208,0.113,0.445,0.155,0.659c0,0,0.016,0.089,0.016,0.089s0.015,0.088,0.015,0.088s0.013,0.086,0.013,0.086
			s0.012,0.085,0.012,0.085l0.01,0.084c0,0,0.009,0.082,0.009,0.082s0.007,0.081,0.007,0.081c0.003,0.04,0.005,0.08,0.005,0.08
			c0.002,0.039,0.004,0.078,0.004,0.078c0.002,0.077,0.003,0.115,0.003,0.115c0,0.075,0,0.112,0,0.112
			c-0.002,0.073-0.004,0.109-0.004,0.109c-0.004,0.071-0.007,0.107-0.007,0.107c-0.007,0.069-0.011,0.104-0.011,0.104
			c-0.009,0.067-0.014,0.101-0.014,0.101c-0.011,0.065-0.017,0.098-0.017,0.098c-0.013,0.063-0.021,0.095-0.021,0.095
			c-0.016,0.062-0.024,0.092-0.024,0.092c-0.018,0.06-0.028,0.089-0.028,0.089c-0.02,0.058-0.031,0.086-0.031,0.086
			c-0.023,0.056-0.034,0.083-0.034,0.083c-0.025,0.054-0.038,0.08-0.038,0.08c-0.041,0.077-0.056,0.102-0.056,0.102
			c-0.046,0.073-0.062,0.097-0.062,0.097c-0.05,0.07-0.068,0.092-0.068,0.092c-0.055,0.067-0.074,0.089-0.074,0.089
			c-0.059,0.065-0.08,0.086-0.08,0.086c-0.064,0.063-0.085,0.084-0.085,0.084c-0.068,0.061-0.091,0.081-0.091,0.081
			c-0.072,0.059-0.097,0.078-0.097,0.078c-0.696,0.506-1.418,0.679-2.215,0.825c-0.638,0.107-1.306,0.154-1.952,0.17
			c-0.126,0.003-0.373,0.006-0.499,0.006c0,0-10.563,0-10.563,0h-9.817c-0.125,0-0.281-0.005-0.407-0.013
			c-0.493-0.03-0.993-0.13-1.415-0.302c-0.077-0.032-0.115-0.049-0.115-0.049c-0.075-0.035-0.112-0.052-0.112-0.052
			c-0.073-0.037-0.109-0.056-0.109-0.056c-0.071-0.039-0.106-0.06-0.106-0.06c-0.069-0.042-0.103-0.063-0.103-0.063
			c-0.067-0.044-0.1-0.067-0.1-0.067c-0.065-0.046-0.097-0.07-0.097-0.07c-0.063-0.049-0.094-0.074-0.094-0.074
			c-0.061-0.051-0.091-0.077-0.091-0.077c-0.059-0.053-0.088-0.081-0.088-0.081c-0.057-0.056-0.086-0.084-0.086-0.084
			c-0.055-0.058-0.083-0.088-0.083-0.088c-0.053-0.06-0.08-0.091-0.08-0.091c-0.051-0.063-0.077-0.095-0.077-0.095
			c-0.049-0.065-0.074-0.098-0.074-0.098c-0.047-0.068-0.071-0.102-0.071-0.102c-0.045-0.07-0.068-0.105-0.068-0.105
			c-0.054-0.084-0.115-0.202-0.126-0.221c-0.055-0.12-0.074-0.137-0.096-0.195c-0.018-0.04-0.036-0.081-0.036-0.081
			c-0.018-0.041-0.035-0.082-0.035-0.082c-0.038-0.09-0.078-0.203-0.097-0.257c-0.194-0.577-0.28-1.153-0.353-1.749
			c-0.117-1.048-0.09-2.114,0.107-3.15c0.093-0.492,0.225-0.981,0.39-1.453c0.223-0.601,0.477-1.212,0.646-1.833
			c0.433-1.487,0.557-3.134,0.213-4.642c-0.3-1.389-0.889-2.707-1.598-3.934c-0.834-1.444-1.863-2.796-3.12-3.899
			c-0.877-0.787-1.976-1.415-2.921-2.119c-0.61-0.423-1.243-0.936-1.816-1.399c-0.306-0.256-0.695-0.586-0.916-0.874
			c-0.858-1.06-1.251-2.272-1.551-3.55c-0.251-1.11-0.348-2.263-0.286-3.4c0.045-0.845,0.178-1.697,0.38-2.518
			c0.233-0.845,0.438-1.805,0.598-2.672c1.217-7.001,2.26-15.091,3.061-22.153c0.439-4.268,0.835-8.85,0.844-13.13
			c0.009-1.09-0.057-2.271-0.061-3.353c-0.004-1.073,0.033-2.207,0.106-3.277c0.142-2.069,0.429-4.162,0.833-6.196
			c0.223-1.118,0.497-2.294,0.791-3.396c0.274-1,0.583-2.078,0.806-3.091c0.715-3.187,1.161-6.588,1.507-9.837
			c1.18-10.875,0.733-22.112,2.878-32.873c0.306-1.478,0.678-3.011,1.17-4.439c0.62-1.746,1.438-3.547,2.231-5.221
			c1.161-2.408,2.512-4.858,3.902-7.142c1.123-1.849,2.442-3.787,3.553-5.644c3.326-5.567,6.322-11.576,8.888-17.533
			c1.729-4.195,3.01-8.63,3.522-13.145c0.347-2.907,0.285-5.887,0.031-8.799c-0.451-5.315-1.44-10.705-2.611-15.905
			c-0.915-4.079-2.189-8.735-3.096-12.821c-2.034-8.976-3.809-18.634-5.213-27.73c-1.114-7.55-2.039-15.322-1.877-22.965
			c0,0,0.023-0.71,0.023-0.71s0.03-0.694,0.03-0.694s0.038-0.678,0.038-0.678s0.045-0.662,0.045-0.662s0.053-0.646,0.053-0.646
			s0.015-0.16,0.015-0.16l0.018-0.162c0.045-0.386,0.114-0.804,0.193-1.186c0.424-2.03,1.205-3.98,2.079-5.855
			c1.845-3.902,4.224-7.613,6.662-11.166c3.91-5.67,8.496-11.364,12.905-16.654"/>
	</g>
	<g id="POLYLINE_1432_">
		
			<path fill="none" stroke="#FB8604" stroke-width="2.75" stroke-linecap="round" stroke-linejoin="round" stroke-miterlimit="10" d="
			M428.402,341.69c-0.6,12.76-1.25,26.722-0.753,39.44c0.138,2.971,0.335,6.02,0.786,8.955c0.159,1.013,0.355,2.031,0.626,3.016
			c1.796,6.464,4.006,13.093,6.515,19.312c1.238,3.171,1.904,6.571,2.223,9.954c0.34,3.678,0.276,7.436-0.02,11.115
			c-0.855,8.465-1.388,17.547-1.607,26.059c-0.231,8.228-0.099,17.038-0.737,25.234c-0.157,1.919-0.357,3.905-0.706,5.79
			c-0.126,0.662-0.276,1.334-0.482,1.975c-0.172,0.501-0.359,0.948-0.492,1.449c-0.304,1.096-0.434,2.243-0.441,3.379
			c-0.01,2.257,0.437,4.511,1.062,6.673c0.838,2.654,1.281,5.447,1.506,8.217c0.311,3.821,0.236,7.787,0.001,11.613
			c-0.547,8.785-1.568,17.869-2.853,26.575c-0.379,2.84-0.708,5.872-0.823,8.733c-0.073,1.961-0.071,3.972,0.17,5.922
			c0.374,2.958,1.475,6.08,3.964,7.899c0.465,0.339,0.977,0.63,1.505,0.86c0.637,0.254,1.271,0.542,1.858,0.899
			c1.89,1.129,3.419,2.786,4.645,4.599c0.965,1.421,1.787,2.973,2.208,4.647c0.409,1.578,0.468,3.247,0.187,4.852
			c-0.086,0.495-0.206,1.004-0.349,1.486c-0.186,0.598-0.399,1.206-0.54,1.818c-0.313,1.29-0.447,2.634-0.339,3.959
			c0.129,1.65,0.647,3.265,1.457,4.706c0.697,1.267,1.689,2.471,2.9,3.248c0.872,0.576,1.823,0.888,2.787,1.04
			c0.741,0.226,10.956,0.022,11.891,0.089c0,0,8.618,0,8.618,0l0.078-0.001c0.077-0.002,0.115-0.004,0.115-0.004
			c0.076-0.004,0.113-0.006,0.113-0.006c0.074-0.006,0.111-0.009,0.111-0.009c0.073-0.008,0.109-0.012,0.109-0.012
			c0.072-0.01,0.107-0.015,0.107-0.015c0.07-0.012,0.105-0.018,0.105-0.018c0.069-0.014,0.103-0.021,0.103-0.021
			c0.068-0.016,0.101-0.024,0.101-0.024c0.066-0.018,0.099-0.027,0.099-0.027c0.065-0.02,0.097-0.03,0.097-0.03
			c0.064-0.022,0.095-0.033,0.095-0.033c0.062-0.024,0.093-0.036,0.093-0.036c0.061-0.026,0.091-0.039,0.091-0.039
			c0.06-0.028,0.089-0.042,0.089-0.042c0.058-0.03,0.087-0.045,0.087-0.045c0.057-0.032,0.085-0.048,0.085-0.048
			c0.055-0.034,0.083-0.051,0.083-0.051c0.054-0.036,0.081-0.054,0.081-0.054c0.053-0.038,0.079-0.057,0.079-0.057
			c0.077-0.06,0.102-0.081,0.102-0.081c0.074-0.064,0.098-0.086,0.098-0.086c0.071-0.068,0.095-0.092,0.095-0.092
			c0.069-0.072,0.091-0.097,0.091-0.097c0.705-0.82,0.909-1.79,1.043-2.801c0.195-1.638-0.21-3.295-1.041-4.711
			c-1.048-1.78-2.45-3.374-3.834-4.9c-0.839-0.929-1.796-1.854-2.623-2.789c-0.951-1.057-1.9-2.262-2.752-3.405
			c-3.34-4.511-6.155-9.781-8.812-14.721c-0.708-1.385-1.565-3.016-2.196-4.428c-0.218-0.467-0.437-0.989-0.592-1.476
			c-0.529-1.658-0.81-3.416-1.043-5.138c-0.687-5.159-0.766-11.343-0.913-16.575c-0.093-5.045-0.098-11.961,0.045-17.001
			c0.06-2.041,0.202-4.328,0.421-6.358c0.33-3.044,0.854-6.12,1.646-9.078c0.348-1.346,0.823-2.754,1.263-4.074
			c0.608-1.889,1.206-4.032,1.699-5.955c3.22-12.949,5.511-28.397,8.321-41.473c0.424-1.894,0.983-4.003,1.537-5.865
			c2.783-9.403,7.643-19.913,11.103-29.099c0,0,1.691-4.454,1.691-4.454l0.099-0.269c0,0,0.098-0.276,0.098-0.276
			s0.098-0.282,0.098-0.282c0.383-1.129,0.738-2.368,1.031-3.523c2.038-8.334,2.891-17.155,3.661-25.69"/>
	</g>
</g>
<g id="AG-OUTLINE">
	<g id="POLYLINE_10_">
		
			<path fill="none" stroke="#FB8604" stroke-width="3.5" stroke-linecap="round" stroke-linejoin="round" stroke-miterlimit="10" d="
			M437.412,419.322c0.672,4.142,0.73,8.421,0.478,12.605c-0.219,3.225-0.695,7.482-0.911,10.737
			c-0.494,6.886-0.786,14.613-0.912,21.518c-0.116,7.417-0.097,15.345-0.826,22.711c-0.186,1.716-0.402,3.465-0.842,5.134
			c-0.187,0.733-0.509,1.389-0.685,2.112c-0.291,1.108-0.407,2.263-0.401,3.406c0.008,1.607,0.253,3.229,0.615,4.794
			c0.227,1.014,0.561,2.046,0.836,3.046c0.493,1.854,0.808,3.797,1.009,5.704c0.436,4.21,0.367,8.561,0.11,12.784
			c-0.453,7.168-1.219,14.735-2.186,21.851c-0.812,5.796-1.764,11.77-1.475,17.634c0.184,3.564,1.163,7.55,4.227,9.723
			c0.397,0.279,0.831,0.527,1.273,0.728c0.588,0.248,1.189,0.492,1.741,0.814c1.512,0.854,2.811,2.053,3.897,3.4
			c1.202,1.521,2.27,3.197,2.91,5.035c0.669,1.904,0.823,3.985,0.444,5.968c-0.133,0.741-0.358,1.474-0.596,2.187
			c-0.167,0.534-0.309,1.098-0.414,1.648c-0.245,1.287-0.3,2.618-0.117,3.916c0.184,1.323,0.617,2.612,1.243,3.791
			c0.503,0.95,1.127,1.851,1.901,2.6c0.79,0.775,1.774,1.365,2.774,1.682c0.781,0.255,1.464,0.332,2.251,0.356
			c4.814,0,14.634,0.002,19.413,0.001c0.485,0.011,0.859-0.077,1.236-0.203c0.062-0.024,0.093-0.036,0.093-0.036
			c0.061-0.026,0.091-0.039,0.091-0.039c0.06-0.028,0.089-0.042,0.089-0.042c0.058-0.03,0.087-0.045,0.087-0.045
			c0.057-0.032,0.085-0.048,0.085-0.048c0.055-0.034,0.083-0.051,0.083-0.051c0.054-0.036,0.081-0.054,0.081-0.054
			c0.053-0.038,0.079-0.057,0.079-0.057c0.077-0.06,0.102-0.081,0.102-0.081c0.074-0.064,0.098-0.086,0.098-0.086
			c0.071-0.068,0.095-0.092,0.095-0.092c0.069-0.072,0.091-0.097,0.091-0.097c0.688-0.799,0.894-1.735,1.033-2.717
			c0.203-1.563-0.138-3.169-0.893-4.546c-0.532-0.977-1.216-1.898-1.91-2.767c-1.348-1.691-2.914-3.275-4.394-4.847
			c-1.931-2.123-3.657-4.477-5.226-6.878c-2.613-4.053-5.134-8.717-7.365-12.991c-0.441-0.917-1.06-2.085-1.461-3.009
			c-0.258-0.572-0.522-1.188-0.69-1.791c-0.415-1.397-0.669-2.874-0.876-4.315c-0.355-2.564-0.556-5.328-0.691-7.914
			c-0.366-8.334-0.46-17.827-0.245-26.169c0.097-3.277,0.372-6.684,0.898-9.92c0.356-2.196,0.838-4.419,1.459-6.556
			c0.632-2.108,1.423-4.303,1.99-6.432c3.848-14.224,6.035-30.76,9.264-45.157c1.482-6.171,3.695-12.276,6.099-18.146
			c2.421-5.887,5.971-14.767,8.185-20.737c0.561-1.615,1.021-3.323,1.41-4.986c9.726-3.052,21.155-11.055,26.005-20.168
			c2.345-4.356,3.25-9.322,3.64-14.209c0.895-12.115-0.023-29.121,1.142-41.201c0.258-2.686,0.629-5.477,1.262-8.102
			c0.481-2.021,1.141-4.047,1.92-5.973c1.315-3.308,4.037-8.431,5.603-11.643c6.077-12.757,11.924-29.262,18.738-41.597
			c1.663-2.984,3.542-5.917,5.765-8.516c2.377-2.785,5.214-5.253,8.51-6.884c2.241-1.132,5.985-2.211,8.382-3.028
			c4.629,4.842,10.478,8.423,16.239,11.76l23.263,12.962c5.797,3.397,12.45,7.326,17.968,11.109c1.299,0.908,2.61,1.886,3.78,2.952
			c0.719,0.657,1.407,1.372,1.993,2.15c0.508,0.658,1.005,1.559,1.422,2.285c0.552,0.984,1.279,2.031,2.264,2.515
			c1,0.498,2.004,0.603,3.066,0.667c1.464,0.066,2.978-0.063,4.436-0.213c2.517-0.335,6.651-0.73,9.108-1.249
			c1.692-0.357,3.448-0.975,4.808-2.052c1.27-0.994,2.085-2.214,2.74-3.633c1.202-2.677,1.687-5.631,1.903-8.54
			c0.34-5.4-0.262-10.908-1.953-16.055c-0.796-2.376-1.875-4.674-3.149-6.831c-2.444-4.239-6.694-9.14-9.764-12.985
			c-4.107-5.092-11.769-16.539-15.585-22.01c-4.066-5.753-14.579-19.99-18.173-25.728c-3.332-5.337-6.697-11.447-9.65-17.009
			c1.618-2.513,2.989-5.227,3.928-8.067c1.057-3.153,1.602-6.489,1.956-9.789c0.165-1.596,0.306-3.27,0.281-4.875
			c-0.021-0.799-0.063-1.699-0.326-2.443c-0.024-0.062-0.032-0.083-0.032-0.083c-0.025-0.059-0.034-0.078-0.034-0.078
			c-0.036-0.074-0.045-0.091-0.045-0.091c-0.038-0.068-0.048-0.084-0.048-0.084c-0.051-0.076-0.061-0.091-0.061-0.091
			c-0.054-0.067-0.065-0.079-0.065-0.079c-0.07-0.068-0.082-0.078-0.082-0.078c-0.075-0.054-0.088-0.062-0.088-0.062
			c-0.066-0.034-0.08-0.04-0.08-0.04c-0.071-0.024-0.086-0.028-0.086-0.028c-0.075-0.013-0.09-0.015-0.09-0.015
			c-0.063-0.003-0.079-0.003-0.079-0.003c-0.065,0.003-0.082,0.005-0.082,0.005c-0.067,0.01-0.085,0.013-0.085,0.013
			c-0.07,0.016-0.087,0.021-0.087,0.021c-0.072,0.023-0.09,0.029-0.09,0.029c-0.074,0.029-0.093,0.037-0.093,0.037
			c-0.076,0.035-0.096,0.044-0.096,0.044c-0.059,0.03-0.079,0.041-0.079,0.041c-0.501,0.283-0.846,0.611-1.238,0.984
			c-0.48,0.471-0.956,1.007-1.393,1.519c-4.046,4.862-7.815,10.567-12.951,14.36c-1.772-0.489-3.616-0.868-5.463-0.755
			c-1.152,0.065-2.289,0.373-3.383,0.727c-1.896,0.639-4.103,1.445-6.05,1.821c-2.83,0.587-7.264,1.004-10.152,1.417
			c-2.765,0.383-5.571,0.926-8.236,1.762c-5.739,1.78-11.522,4.574-17.439,5.742l-5.835,1.191c-2.359,0.524-4.757,1.151-6.878,2.339
			c-3.141,1.768-5.772,4.505-8.85,6.371c-1.967,1.222-4.136,2.166-6.284,3.02c-5.13,2.005-11.87,4.103-16.785,6.553
			c-4.858,2.328-10.916,6.653-15.436,9.649c-2.435,1.604-5.021,3.116-7.675,4.327c-3.488,1.612-7.921,3.344-10.981,5.655
			c-1.755,1.292-3.298,2.915-4.743,4.541c-2.496,2.824-5.181,6.285-8.232,8.485c-1.377,0.998-2.919,1.772-4.493,2.406
			c-2.367,0.964-5.803,1.913-8.199,2.814c-1.888,0.69-3.71,1.603-5.386,2.713c-3.577,2.338-7.097,5.536-11.062,7.21
			c-2.66,1.155-6.201,1.813-9.018,2.524c-1.421,0.366-2.867,0.785-4.187,1.436c-1.298,0.629-2.406,1.554-3.274,2.682
			c-1.369,1.758-2.188,3.9-2.941,5.977c-2.164,0.737-4.366,1.585-6.447,2.532c-3.545,1.601-8.799,4.523-12.342,6.212
			c-3.815,1.83-7.814,3.373-11.95,4.285c-6.734,1.478-13.762,1.451-20.612,1c-9.597-0.685-19.387-2.408-28.804-4.377
			c-11.825-2.428-27.763-6.779-39.577-8.924c-5.371-0.97-10.925-1.746-16.376-2.003c-5.753-0.286-11.617-0.09-17.349,0.454
			c-6.974,0.656-14.207,1.88-21.074,3.267c-6.333,1.29-13.148,2.863-19.375,4.604c-7.433,2.097-14.887,4.616-21.847,7.988
			c-5.609,2.723-10.987,6.11-15.396,10.555c-6.67,6.61-10.931,15.21-14.204,23.909c-3.329,8.81-5.914,18.02-7.018,27.388
			c-0.803,6.562-0.714,13.28,0.118,19.835c1.211,10.184,3.961,21.24,3.904,31.526c-0.045,8.453-1.987,16.826-4.464,24.869
			c-4.92,15.997-13.109,34.594-14.547,51.381c-1.402,15.082,4.212,27.626,12.037,40.139c-0.372,2.03-0.99,3.953-1.469,5.946
			c-0.596,2.509-1.018,5.089-1.221,7.66c-0.17,2.017-0.159,4.073-0.088,6.094c0.04,2.688-0.101,5.54-0.297,8.222
			c-0.602,7.85-1.825,16.567-2.977,24.371c-0.325,1.999-0.652,4.227-1.172,6.175c-0.214,0.821-0.36,1.675-0.418,2.523
			c-0.093,1.323,0.033,2.667,0.36,3.952c0.266,1.075,0.716,2.242,1.384,3.088c0.543,0.685,1.194,1.125,1.852,1.658
			c0.622,0.478,1.384,1.024,2.032,1.468c0.569,0.376,1.2,0.805,1.714,1.25c1.164,0.992,2.141,2.2,2.945,3.497
			c0.651,1.052,1.22,2.171,1.608,3.347c0.289,0.878,0.478,1.802,0.5,2.728c0.026,1.015-0.132,2.035-0.408,3.01
			c-0.223,0.841-0.618,1.635-0.846,2.474c-0.361,1.287-0.449,2.647-0.299,3.974c0.1,0.898,0.292,1.915,0.788,2.656
			c0.046,0.069,0.07,0.103,0.07,0.103c0.048,0.067,0.073,0.099,0.073,0.099c0.05,0.064,0.076,0.096,0.076,0.096
			c0.052,0.062,0.079,0.092,0.079,0.092c0.054,0.06,0.082,0.089,0.082,0.089c0.056,0.057,0.085,0.085,0.085,0.085
			c0.058,0.055,0.087,0.082,0.087,0.082c0.06,0.053,0.09,0.078,0.09,0.078c0.062,0.05,0.093,0.075,0.093,0.075
			c0.064,0.048,0.096,0.071,0.096,0.071c0.066,0.046,0.099,0.068,0.099,0.068c0.068,0.043,0.102,0.064,0.102,0.064
			c0.07,0.041,0.105,0.061,0.105,0.061c0.072,0.039,0.108,0.057,0.108,0.057c0.074,0.036,0.111,0.054,0.111,0.054
			c0.516,0.237,1.047,0.332,1.568,0.367c0.128,0.008,0.278,0.013,0.407,0.013c0,0,9.817,0,9.817,0h10.563
			c0.12,0,0.377-0.003,0.499-0.006c0.613-0.015,1.25-0.059,1.856-0.154c0.78-0.121,1.675-0.365,2.286-0.822
			c0.075-0.057,0.099-0.077,0.099-0.077c0.07-0.06,0.093-0.08,0.093-0.08c0.066-0.062,0.087-0.083,0.087-0.083
			c0.061-0.064,0.081-0.086,0.081-0.086c0.057-0.066,0.075-0.089,0.075-0.089c0.052-0.068,0.069-0.092,0.069-0.092
			c0.048-0.071,0.063-0.096,0.063-0.096c0.043-0.075,0.057-0.101,0.057-0.101c0.026-0.052,0.039-0.079,0.039-0.079
			c0.024-0.054,0.035-0.082,0.035-0.082c0.022-0.056,0.032-0.085,0.032-0.085c0.02-0.058,0.029-0.088,0.029-0.088
			c0.017-0.06,0.025-0.091,0.025-0.091c0.015-0.062,0.022-0.094,0.022-0.094c0.013-0.064,0.018-0.097,0.018-0.097
			c0.01-0.066,0.015-0.1,0.015-0.1c0.008-0.068,0.012-0.103,0.012-0.103c0.046-0.585-0.032-1.055-0.159-1.601
			c-0.147-0.609-0.369-1.221-0.608-1.801c-1.176-2.902-3.153-5.408-5.37-7.589c-1.409-1.417-3.031-2.644-4.449-4.052
			c-1.77-1.752-3.4-3.722-4.419-6.013c-0.858-1.964-1.257-4.12-1.255-6.26c0-0.779,0.054-1.592,0.15-2.364
			c0.102-0.798,0.264-1.624,0.334-2.426c0.149-1.557,0.115-3.151-0.156-4.693c-0.117-0.667-0.28-1.336-0.485-1.981
			c-0.166-0.531-0.389-1.054-0.544-1.589c-0.669-2.29-0.952-4.733-1.192-7.101c-0.338-3.898-0.573-8.023-0.459-11.935
			c0.188-5.966,1.085-11.997,2.332-17.829c0.908,1.597,1.867,3.24,3.059,4.641c0.864,1.025,1.863,1.945,2.954,2.724
			c1.431,1.023,3.018,1.87,4.605,2.624c2.509,1.187,5.296,2.221,7.92,3.14c1.874,0.628,4.015,1.413,5.931,1.871
			c0.613,0.138,1.306,0.275,1.924,0.23c0.077-0.008,0.114-0.012,0.114-0.012c0.072-0.011,0.09-0.014,0.09-0.014
			c0.069-0.014,0.086-0.018,0.086-0.018c0.065-0.017,0.081-0.021,0.081-0.021c0.076-0.025,0.091-0.031,0.091-0.031
			c0.07-0.03,0.084-0.036,0.084-0.036c0.077-0.042,0.089-0.05,0.089-0.05c0.069-0.049,0.079-0.058,0.079-0.058
			c0.069-0.066,0.078-0.076,0.078-0.076c0.057-0.076,0.065-0.087,0.065-0.087c0.04-0.074,0.046-0.088,0.046-0.088
			c0.028-0.074,0.033-0.09,0.033-0.09c0.017-0.064,0.02-0.081,0.02-0.081c0.012-0.068,0.014-0.086,0.014-0.086
			c0.007-0.072,0.008-0.091,0.008-0.091c0.002-0.076,0.002-0.096,0.002-0.096c-0.001-0.06-0.002-0.08-0.002-0.08
			c-0.061-0.769-0.352-1.456-0.601-2.168c-0.499-1.341-1.061-2.759-1.345-4.161c-0.194-0.924-0.255-1.882-0.135-2.82
			c0.307-2.465,1.624-4.665,3.055-6.643c2.153-2.934,4.972-5.876,7.041-8.869c0.858,2.046,1.546,4.266,2.152,6.402
			c1.734,6.055,6.688,29.824,8.208,36.402c0.796,3.552,1.681,7.707,2.289,11.282c0.333,2.02,0.662,4.146,0.751,6.189
			c0.012,0.66,0.013,1.403,0.157,2c0.558,2.582,2.478,4.452,4.555,5.899c0.821,0.57,1.806,1.119,2.651,1.658
			c1.492,0.945,3.006,1.982,4.365,3.109c1.255,1.054,2.48,2.21,3.333,3.622c0.806,1.314,1.148,2.904,0.802,4.36
			c-0.186,0.729-0.342,1.182-0.433,1.917c-0.147,1.107-0.074,2.243,0.206,3.324c0.178,0.661,0.412,1.401,0.811,1.939
			c0.057,0.076,0.086,0.114,0.086,0.114c0.06,0.074,0.09,0.111,0.09,0.111c0.063,0.072,0.095,0.108,0.095,0.108
			c0.066,0.07,0.099,0.104,0.099,0.104c0.069,0.068,0.104,0.101,0.104,0.101c0.072,0.066,0.109,0.098,0.109,0.098
			c1.021,0.866,2.262,1.174,3.535,1.341c0.441,0.054,0.901,0.084,1.345,0.096c4.668,0.018,13.877,0.001,18.5,0.006
			c0.844,0.005,1.796-0.143,2.476-0.586c0.076-0.051,0.101-0.068,0.101-0.068c0.073-0.053,0.097-0.072,0.097-0.072
			c0.07-0.056,0.093-0.075,0.093-0.075c0.067-0.059,0.089-0.079,0.089-0.079c0.064-0.062,0.085-0.083,0.085-0.083
			c0.061-0.065,0.081-0.086,0.081-0.086c0.058-0.067,0.077-0.09,0.077-0.09c0.055-0.07,0.073-0.094,0.073-0.094
			c0.052-0.073,0.068-0.098,0.068-0.098c0.936-1.536,0.641-3.445,0.053-4.991c-0.464-1.175-1.267-2.191-2.082-3.144
			c-1.402-1.615-3.1-3.113-4.696-4.54c-1.522-1.396-3.155-2.964-4.566-4.465c-2.669-2.81-5.096-5.988-7.319-9.161
			c-1.537-2.223-3.136-4.56-4.321-6.99c-0.579-1.178-1.095-2.414-1.467-3.674c-0.149-0.504-0.28-1.051-0.383-1.566
			c-0.158-0.718-0.382-1.613-0.573-2.326c-1.504-5.544-3.702-12.174-5.431-17.661c-2.034-6.549-3.977-13.708-5.566-20.379
			c-1.381-5.699-2.592-11.661-2.872-17.526c-0.178-3.467-0.071-7.004,0.493-10.433c1.51-8.908,4.268-17.869,7.062-26.454
			c5.468-16.653,14.905-52.121,19.708-69.326c3.47-3.788,6.799-8.01,9.793-12.183c3.382-0.178,6.899-0.319,10.272-0.082
			c2.898,0.194,5.816,0.667,8.616,1.447c2.629,0.731,5.261,1.731,7.775,2.79c4.783,1.996,15.391,7.27,20.2,9.432
			c3.114,1.399,6.872,2.961,10.063,4.176c8.227,3.124,16.826,5.661,25.444,7.432c8.514,1.779,17.414,2.808,26.088,3.443
			c5.227,0.399,11.827,0.662,17.088,0.838C384.17,418.813,426.408,419.311,437.412,419.322z"/>
	</g>
</g>
</svg>
