<?xml version="1.0" encoding="utf-8"?>
<!-- Generator: Adobe Illustrator 24.2.0, SVG Export Plug-In . SVG Version: 6.00 Build 0)  -->
<!DOCTYPE svg PUBLIC "-//W3C//DTD SVG 1.1//EN" "http://www.w3.org/Graphics/SVG/1.1/DTD/svg11.dtd" [
	<!ENTITY ns_flows "http://ns.adobe.com/Flows/1.0/">
	<!ENTITY ns_extend "http://ns.adobe.com/Extensibility/1.0/">
	<!ENTITY ns_ai "http://ns.adobe.com/AdobeIllustrator/10.0/">
	<!ENTITY ns_graphs "http://ns.adobe.com/Graphs/1.0/">
	<!ENTITY ns_vars "http://ns.adobe.com/Variables/1.0/">
	<!ENTITY ns_imrep "http://ns.adobe.com/ImageReplacement/1.0/">
	<!ENTITY ns_sfw "http://ns.adobe.com/SaveForWeb/1.0/">
	<!ENTITY ns_custom "http://ns.adobe.com/GenericCustomNamespace/1.0/">
	<!ENTITY ns_adobe_xpath "http://ns.adobe.com/XPath/1.0/">
]>
<svg version="1.1" xmlns:x="&ns_extend;" xmlns:i="&ns_ai;" xmlns:graph="&ns_graphs;"
	 xmlns="http://www.w3.org/2000/svg" xmlns:xlink="http://www.w3.org/1999/xlink" xmlns:a="http://ns.adobe.com/AdobeSVGViewerExtensions/3.0/"
	 x="0px" y="0px" width="750px" height="750px" viewBox="0 0 750 750" enable-background="new 0 0 750 750" xml:space="preserve">
<metadata>
	<sfw  xmlns="&ns_sfw;">
		<slices></slices>
		<sliceSourceBounds  bottomLeftOrigin="true" height="11750" width="4861" x="-2000" y="-3526"></sliceSourceBounds>
	</sfw>
</metadata>
<g id="FILL-BACKGROUND">
	<rect fill="#FFFFFF" width="750" height="750"/>
</g>
<g id="AG-GUIDES">
</g>
<g id="N-DIMENSIONS">
</g>
<g id="AG-DETAIL-DIAGRAM">
</g>
<g id="N-TEXT">
</g>
<g id="AG-DIAGRAM">
	<g id="POLYLINE_180_">
		<g>
			<g>
				
					<line fill="none" stroke="#FB8604" stroke-width="3.25" stroke-linecap="round" stroke-linejoin="round" x1="120.083" y1="599.056" x2="122.083" y2="599.056"/>
				
					<line fill="none" stroke="#FB8604" stroke-width="3.25" stroke-linecap="round" stroke-linejoin="round" stroke-dasharray="3.9521,6.9162" x1="128.999" y1="599.056" x2="484.194" y2="599.056"/>
				
					<line fill="none" stroke="#FB8604" stroke-width="3.25" stroke-linecap="round" stroke-linejoin="round" x1="487.652" y1="599.056" x2="489.652" y2="599.056"/>
			</g>
		</g>
	</g>
</g>
<g id="AG-DETAILS">
</g>
<g id="AG-ANIMALS">
	<g id="POLYLINE_26_">
		
			<path fill="none" stroke="#FB8604" stroke-width="2.75" stroke-linecap="round" stroke-linejoin="round" stroke-miterlimit="10" d="
			M160.81,285.173l-3.891,0.316c-2.534,0.237-5.102,0.758-7.341,2.016c-1.583,0.871-2.974,2.068-4.189,3.397
			c-1.4,1.527-2.627,3.251-3.719,5.009c-3.673,6.027-6.17,12.755-7.699,19.632c-1.079,4.868-1.493,9.903-1.119,14.879
			c0.446,6.967,2.452,14.872,2.813,21.847c0.325,5.506-0.493,11.068-1.507,16.469c-1.427,7.433-3.788,16.886-4.028,24.355
			c-0.215,4.9,0.441,11.432,0.8,16.384c0.239,3.557,0.34,7.217,0.06,10.77c-0.259,3.336-0.852,6.755-1.506,10.036
			c-1.725,8.457-4.548,19.239-4.655,27.815c-0.083,3.715,0.361,7.461,1.083,11.102c1.19,6.171,3.668,13.551,4.505,19.776
			c0.328,2.392,0.39,4.843,0.152,7.246c-0.541,5.656-2.407,11.544-2.822,17.217c-0.604,6.761,1.178,13.472,3.421,19.794
			c1.897,5.413,4.714,11.351,7.155,16.555c0.243,0.5,0.546,1.121,0.85,1.562c0.052,0.073,0.07,0.097,0.07,0.097
			c0.052,0.067,0.069,0.089,0.069,0.089c0.051,0.061,0.068,0.08,0.068,0.08c0.067,0.071,0.084,0.088,0.084,0.088
			c0.074,0.067,0.083,0.074,0.083,0.074c0.074,0.054,0.082,0.059,0.082,0.059c0.073,0.041,0.081,0.044,0.081,0.044
			c0.073,0.027,0.081,0.029,0.081,0.029c0.072,0.013,0.08,0.014,0.08,0.014c0.072-0.001,0.08-0.002,0.08-0.002
			c0.072-0.016,0.08-0.018,0.08-0.018c0.073-0.031,0.081-0.035,0.081-0.035c0.076-0.048,0.09-0.059,0.09-0.059
			c0.069-0.059,0.083-0.072,0.083-0.072c0.07-0.073,0.084-0.089,0.084-0.089c0.056-0.069,0.071-0.087,0.071-0.087
			c0.412-0.575,0.635-1.165,0.908-1.796c1.21-2.93,2.291-6.329,4.417-8.732c0.924-1.015,1.892-1.705,3.047-2.352
			c2.138-1.184,4.597-1.932,6.707-3.171c1.757-1.021,3.251-2.451,4.535-4.014c1.951-2.384,3.489-5.118,4.85-7.873"/>
	</g>
	<g id="POLYLINE_25_">
		
			<path fill="none" stroke="#FB8604" stroke-width="2.75" stroke-linecap="round" stroke-linejoin="round" stroke-miterlimit="10" d="
			M242.866,388.078c3.607,0.037,7.308,0.135,10.872,0.702c3.382,0.518,6.762,1.465,10.017,2.513
			c10.553,3.483,31.745,12.302,42.235,16.027c10.937,3.988,22.51,7.772,33.783,10.693c27.938,7.315,57.23,9.087,85.988,7.292"/>
	</g>
	<g id="POLYLINE_24_">
		
			<path fill="none" stroke="#FB8604" stroke-width="2.75" stroke-linecap="round" stroke-linejoin="round" stroke-miterlimit="10" d="
			M424.238,587.827c7.935-2.564,16.513-4.895,24.628-6.811"/>
	</g>
	<g id="POLYLINE_23_">
		
			<path fill="none" stroke="#FB8604" stroke-width="2.75" stroke-linecap="round" stroke-linejoin="round" stroke-miterlimit="10" d="
			M178.961,589.002c6.747-3.86,14.226-6.448,21.902-7.66"/>
	</g>
	<g id="POLYLINE_22_">
		
			<path fill="none" stroke="#FB8604" stroke-width="2.75" stroke-linecap="round" stroke-linejoin="round" stroke-miterlimit="10" d="
			M261.415,301.221c2.1,9.576,3.953,19.486,4.734,29.254c0.453,5.931,0.591,11.983-0.244,17.884c-0.364,2.7-1.082,5.422-1.916,8.015
			c-1.308,4.098-3.001,8.147-5.084,11.912c-1.965,3.552-4.339,6.95-7.034,9.986c-0.92,1.06-2.222,2.351-3.209,3.379
			c-2.77,2.899-5.622,6.164-8.168,9.262c-7.279,8.948-14.231,18.623-20.326,28.416c-3.285,5.343-6.445,11.044-9.041,16.754
			c-1.918,4.257-3.582,8.818-5.603,13.034c-2.141,4.566-4.592,9.153-7.371,13.362c-1.528,2.25-3.043,4.392-4.4,6.773
			c-3.187,5.486-5.78,11.442-7.987,17.386c-1.208,3.301-2.426,6.864-3.314,10.263c-0.599,2.319-1.124,4.723-1.329,7.113
			c-0.101,1.247-0.124,2.523,0.072,3.761c0.067,0.493,0.215,0.981,0.358,1.456c0.179,0.651,0.403,1.443,0.556,2.099
			c0.918,3.874,1.72,8.339,2.389,12.273c1.356,8.348,3.48,22.018,4.988,30.345c0.698,3.609,1.617,9.089,2.675,12.615
			c0.741,2.565,1.625,5.147,2.95,7.476c0.374,0.648,0.796,1.292,1.267,1.874c1.844,2.261,4.893,5.941,6.813,8.148
			c0.768,0.944,1.496,1.951,2.15,2.976c1.152,1.818,2.205,3.771,3.044,5.755c0,0,0.105,0.261,0.105,0.261s0.098,0.254,0.098,0.254
			s0.091,0.248,0.091,0.248c0.108,0.296,0.21,0.624,0.294,0.928c0.055,0.194,0.107,0.43,0.147,0.629c0,0,0.019,0.099,0.019,0.099
			s0.017,0.098,0.017,0.098s0.015,0.096,0.015,0.096s0.013,0.094,0.013,0.094c0.038,0.289,0.055,0.6,0.037,0.857
			c-0.006,0.077-0.009,0.115-0.009,0.115c-0.008,0.075-0.013,0.111-0.013,0.111c-0.011,0.072-0.017,0.108-0.017,0.108
			c-0.014,0.07-0.021,0.104-0.021,0.104c-0.016,0.067-0.025,0.1-0.025,0.1c-0.019,0.065-0.029,0.097-0.029,0.097
			c-0.021,0.063-0.033,0.093-0.033,0.093c-0.024,0.06-0.037,0.09-0.037,0.09c-0.034,0.072-0.041,0.086-0.041,0.086
			c-0.037,0.069-0.045,0.082-0.045,0.082c-0.04,0.066-0.049,0.079-0.049,0.079c-0.052,0.075-0.062,0.087-0.062,0.087
			c-0.057,0.071-0.067,0.083-0.067,0.083c-0.061,0.068-0.082,0.09-0.082,0.09c-0.065,0.066-0.088,0.087-0.088,0.087
			c-0.07,0.064-0.093,0.084-0.093,0.084c-0.792,0.65-1.684,0.862-2.637,1.03c-0.572,0.091-1.175,0.139-1.753,0.16
			c-5.193,0.033-15.098,0.005-20.252,0.011c-0.055-0.003-0.082-0.005-0.082-0.005c-0.055-0.005-0.082-0.009-0.082-0.009
			c-0.055-0.008-0.083-0.012-0.083-0.012c-0.055-0.01-0.083-0.015-0.083-0.015c-0.055-0.012-0.083-0.019-0.083-0.019
			c-0.056-0.014-0.083-0.022-0.083-0.022c-0.056-0.017-0.084-0.026-0.084-0.026c-0.056-0.019-0.084-0.029-0.084-0.029
			c-0.69-0.258-1.248-0.782-1.689-1.268c-0.697-0.786-1.185-1.582-1.706-2.464c-0.624-1.106-1.348-2.403-1.477-3.664
			c-0.005-0.074-0.006-0.098-0.006-0.098c-0.002-0.072-0.002-0.095-0.002-0.095c0.007-0.586,0.165-1.089,0.341-1.593
			c0.227-0.623,0.523-1.235,0.834-1.821c0.234-0.434,0.522-0.924,0.766-1.35c0.237-0.436,0.436-0.898,0.588-1.37
			c0.383-1.188,0.464-2.46,0.312-3.695c-0.154-1.241-0.523-2.461-0.958-3.631c-0.899-2.384-2.431-4.716-4.618-6.054
			c-0.766-0.481-1.599-0.856-2.458-1.135c-0.793-0.268-1.642-0.381-2.403-0.739c-0.726-0.304-1.521-0.881-2.014-1.447
			c-0.54-0.614-0.923-1.272-1.211-2.025c-0.527-1.428-0.815-2.964-0.718-4.488c0.035-0.546,0.12-1.093,0.254-1.624
			c0.085-0.35,0.212-0.694,0.301-1.043c0.259-1.009,0.374-2.072,0.439-3.111c0.101-1.713,0.051-3.528-0.049-5.244
			c-0.541-7.71-1.672-17.917-2.605-25.62c-1.236-9.538-2.82-20.49-4.469-29.948c-1.053-5.775-2.234-11.803-4.004-17.394
			c-0.681-2.251-1.257-4.576-1.458-6.925c-0.131-1.622-0.088-3.337,0.486-4.873c0.542-1.427,1.373-2.746,2.227-4.005
			c1.63-2.363,3.56-4.646,5.462-6.796c1.679-1.823,3.33-3.785,4.727-5.833c2.011-2.916,3.71-6.095,5.077-9.361
			c1.344-3.208,2.396-6.587,3.226-9.963c0.922-3.796,1.542-7.718,1.578-11.63c0.052-4.009-0.689-8.012-1.772-11.86
			c-0.744-2.631-1.703-5.262-2.764-7.782c-0.89-2.125-2.034-4.396-2.961-6.505c-5.143-12.03-9.277-25.105-13.17-37.595
			c-1.871-6.257-3.823-13.258-5.141-19.65c-0.777-3.836-1.477-7.85-1.653-11.767c-0.221-5.658,0.659-11.342,1.97-16.832
			c0.722-3.051,1.671-6.187,2.65-9.164c0,0,0.738-2.156,0.738-2.156l0.194-0.542c0.248-0.653,0.553-1.482,0.83-2.129
			c1.699-4.088,3.98-7.962,6.783-11.392c2.824-3.465,6.193-6.501,9.878-9.027c2.427-1.685,5.069-3.138,7.716-4.445
			c2.855-1.403,5.916-2.724,8.903-3.822c5.779-2.129,11.842-3.7,17.917-4.704c4.548-0.789,9.361-1.165,13.967-1.455
			c7.664-0.42,15.529-0.539,23.156,0.435c1.609,0.223,3.355,0.481,4.944,0.826c14.565,3.084,30.917,7.981,45.338,11.714
			c4.846,1.181,9.97,2.175,14.897,2.949c14.738,2.297,29.987,3.004,44.893,2.759"/>
	</g>
	<g id="POLYLINE_21_">
		
			<path fill="none" stroke="#FB8604" stroke-width="2.75" stroke-linecap="round" stroke-linejoin="round" stroke-miterlimit="10" d="
			M409.544,346.533c-0.04,9.685,0.111,19.681,1.403,29.277c0.617,4.246,1.392,8.559,3.106,12.514
			c0.319,0.718,0.683,1.426,1.099,2.091c0.388,0.636,0.955,1.323,1.388,1.936c1.483,2.055,2.851,4.249,4.001,6.507
			c1.166,2.29,2.148,4.72,2.858,7.19c0.702,2.418,1.136,5.04,1.489,7.535c0.899,6.631,1.015,13.505,0.835,20.191
			c-0.542,19.019-3.163,40.317-4.463,59.331c-0.083,2.128,0.002,4.287,0.298,6.397c0.174,1.239,0.428,2.502,0.754,3.709
			c0.25,0.911,0.568,1.83,0.731,2.763c0.425,2.254,0.442,4.587,0.308,6.871c-0.228,4.304-1.399,9.533-2.174,13.798
			c-1.078,5.995-3.245,18.496-4.138,24.581c-0.271,2.027-0.493,4.191-0.599,6.234c-0.131,2.736-0.116,5.541,0.397,8.241
			c0.29,1.477,0.737,2.956,1.534,4.243c1.259,1.876,2.525,3.842,3.57,5.848c0.661,1.274,1.275,2.602,1.69,3.98
			c0.65,2.242,0.751,4.614,0.666,6.935c-0.045,1.395-0.248,2.832-0.259,4.23c-0.011,1.085,0.051,2.199,0.289,3.26
			c0.068,0.298,0.155,0.616,0.257,0.905c0,0,0.038,0.105,0.038,0.105s0.039,0.103,0.039,0.103c0.048,0.12,0.129,0.313,0.169,0.393
			c0.023,0.047,0.045,0.094,0.045,0.094c0.023,0.046,0.047,0.092,0.047,0.092c0.024,0.045,0.048,0.09,0.048,0.09
			c0.024,0.044,0.049,0.088,0.049,0.088c0.025,0.043,0.05,0.086,0.05,0.086c0.026,0.042,0.052,0.084,0.052,0.084
			c0.026,0.042,0.053,0.083,0.053,0.083c0.027,0.041,0.054,0.081,0.054,0.081c0.028,0.04,0.056,0.079,0.056,0.079
			c0.057,0.077,0.086,0.115,0.086,0.115c0.059,0.074,0.089,0.111,0.089,0.111c0.061,0.072,0.091,0.107,0.091,0.107
			c0.062,0.069,0.094,0.103,0.094,0.103c0.606,0.622,1.247,0.959,2.004,1.263c0.791,0.306,1.629,0.496,2.466,0.626
			c1.11,0.17,2.265,0.238,3.388,0.251c1.385-0.022,14.088,0.067,15.207-0.058c1.655-0.145,3.586-0.473,4.719-1.75
			c0.052-0.062,0.069-0.083,0.069-0.083c0.05-0.064,0.066-0.085,0.066-0.085c0.047-0.065,0.062-0.087,0.062-0.087
			c0.045-0.066,0.059-0.089,0.059-0.089c0.042-0.068,0.056-0.091,0.056-0.091c0.04-0.069,0.052-0.093,0.052-0.093
			c0.037-0.071,0.049-0.094,0.049-0.094c0.034-0.072,0.046-0.096,0.046-0.096c0.032-0.073,0.042-0.098,0.042-0.098
			c0.029-0.075,0.039-0.1,0.039-0.1c0.231-0.616,0.212-1.207,0.212-1.824c-0.007-0.726-0.06-1.472-0.151-2.193
			c-0.184-1.448-0.532-2.885-0.997-4.267c-0.498-1.529-1.214-2.996-2.1-4.338c-0.754-1.15-1.635-2.24-2.571-3.246
			c-0.687-0.727-1.489-1.499-2.204-2.205c-1.759-1.777-3.452-3.682-4.859-5.752c-0.611-0.873-1.135-1.817-1.436-2.844
			c-0.456-1.494-0.512-3.088-0.318-4.631c0.071-0.565,0.176-1.138,0.305-1.693c1.024-4.555,1.932-9.259,2.399-13.906
			c0.229-2.563,0.298-5.228,0.268-7.8c-0.01-1.77-0.143-3.623-0.102-5.389c0.058-3.088,0.454-6.191,1.115-9.207
			c0.416-1.939,0.998-3.918,1.594-5.811c0.75-2.482,1.449-5.136,2.026-7.663c1.974-8.588,2.927-18.121,3.89-26.895
			c0.472-4.466,0.983-10.895,1.68-15.282c0.625-4.149,1.501-8.514,2.576-12.57c1.397-5.325,3.344-10.597,5.505-15.656
			c1.457-3.374,3.134-6.835,4.988-10.009c0.986-1.726,2.179-3.442,3.232-5.128c1.932-3.121,3.655-6.438,4.899-9.895
			c0.418-1.145,0.779-2.376,1.092-3.555c0.268-0.929,0.614-1.855,1.025-2.731c1.351-2.904,3.49-5.398,5.988-7.382
			c0.8-0.657,1.691-1.229,2.525-1.838c1.201-0.881,2.394-1.888,3.484-2.904c2.572-2.404,4.892-5.12,7.012-7.927
			c1.327-1.786,2.841-3.861,3.954-5.799c2.247-3.931,3.897-8.236,5.322-12.525c2.436-7.445,4.247-15.388,5.765-23.071"/>
	</g>
	<g id="POLYLINE_20_">
		
			<path fill="none" stroke="#FB8604" stroke-width="2.75" stroke-linecap="round" stroke-linejoin="round" stroke-miterlimit="10" d="
			M559.773,258.745c3.632,2.148,7.43,4.268,11.333,5.877c2.499,1.085,6.349,2.078,8.995,2.835c1.779,0.527,3.573,1.154,5.259,1.928
			c1.843,0.844,3.657,1.883,5.358,2.984c2.945,1.921,5.754,4.132,8.242,6.619c1.243,1.25,2.424,2.602,3.41,4.065
			c1.075,1.568,2.066,3.531,3.139,5.1c0.646,0.944,1.399,1.829,2.272,2.571c0.929,0.795,1.996,1.438,3.09,1.979
			c2.616,1.275,5.466,2.057,8.339,2.478c2.722,0.381,5.531,0.449,8.233-0.112c5.78-1.205,9.538-5.366,11.674-10.687
			c0.938-2.331,1.553-4.816,1.828-7.313c0.203-1.889,0.21-3.816-0.09-5.695c-0.273-1.756-0.83-3.48-1.468-5.136
			c-0.883-2.148-2.503-6.066-3.32-8.213c-2.307-6.007-6.087-16.993-8.546-22.888"/>
	</g>
	<g id="POLYLINE_19_">
		
			<path fill="none" stroke="#FB8604" stroke-width="2.75" stroke-linecap="round" stroke-linejoin="round" stroke-miterlimit="10" d="
			M592.441,171.847c0.66-1.879,1.441-3.755,2.491-5.451c1.249-2.028,2.83-3.87,4.447-5.613c1.125-1.198,2.43-2.507,3.636-3.624
			c0.7-0.628,1.527-1.358,2.376-1.687c0.063-0.023,0.094-0.033,0.094-0.033c0.062-0.019,0.093-0.028,0.093-0.028
			c0.061-0.016,0.092-0.024,0.092-0.024c0.06-0.013,0.09-0.019,0.09-0.019c0.074-0.012,0.089-0.014,0.089-0.014
			c0.073-0.007,0.087-0.009,0.087-0.009c0.072-0.003,0.086-0.003,0.086-0.003c0.07,0.001,0.084,0.002,0.084,0.002
			c0.069,0.006,0.083,0.008,0.083,0.008c0.068,0.011,0.081,0.013,0.081,0.013c0.066,0.016,0.08,0.019,0.08,0.019
			c0.065,0.02,0.078,0.025,0.078,0.025c0.072,0.029,0.087,0.036,0.087,0.036c0.075,0.038,0.09,0.047,0.09,0.047
			c0.073,0.045,0.088,0.055,0.088,0.055c0.071,0.052,0.085,0.064,0.085,0.064c0.069,0.059,0.083,0.072,0.083,0.072
			c0.067,0.066,0.081,0.08,0.081,0.08c0.065,0.072,0.078,0.088,0.078,0.088c0.051,0.063,0.076,0.095,0.076,0.095
			c0.05,0.068,0.074,0.103,0.074,0.103c0.048,0.072,0.072,0.11,0.072,0.11c0.6,1.017,0.819,2.206,1.023,3.346
			c0.383,2.435,0.508,4.981,0.503,7.446c-0.045,3.633-0.388,7.336-1.617,10.777c-0.812,2.275-2.057,4.387-3.425,6.369"/>
	</g>
	<g id="POLYLINE_18_">
		
			<path fill="none" stroke="#FB8604" stroke-width="2.75" stroke-linecap="round" stroke-linejoin="round" stroke-miterlimit="10" d="
			M580.952,171.265c4.628-0.612,9.767-0.848,13.863,1.755c2.245,1.444,3.897,3.622,5.399,5.788l3.251,4.904
			c1.149,1.696,2.405,3.406,3.785,4.919c1.99,2.219,5.236,5.1,7.443,7.164c2.084,1.999,4.187,4.111,5.506,6.712
			c1.646,3.215,1.899,7.155,2.356,10.688c0.434,3.469,1.405,6.928,3.267,9.912c1.312,2.157,3.055,4.03,4.935,5.703l3.946,3.435
			c0.614,0.563,1.315,1.195,1.784,1.873c0.045,0.068,0.059,0.091,0.059,0.091c0.04,0.067,0.053,0.088,0.053,0.088
			c0.035,0.065,0.046,0.086,0.046,0.086c0.031,0.063,0.04,0.083,0.04,0.083c0.026,0.061,0.033,0.081,0.033,0.081
			c0.021,0.059,0.026,0.078,0.026,0.078c0.02,0.076,0.023,0.094,0.023,0.094c0.011,0.072,0.012,0.09,0.012,0.09
			c0.002,0.069,0.001,0.086,0.001,0.086c-0.008,0.066-0.011,0.082-0.011,0.082c-0.021,0.072-0.026,0.084-0.026,0.084
			c-0.033,0.068-0.039,0.079-0.039,0.079c-0.053,0.074-0.061,0.084-0.061,0.084c-0.068,0.068-0.078,0.078-0.078,0.078
			c-0.069,0.054-0.082,0.063-0.082,0.063c-0.066,0.042-0.08,0.05-0.08,0.05c-0.073,0.039-0.088,0.047-0.088,0.047
			c-0.064,0.029-0.08,0.037-0.08,0.037c-0.068,0.028-0.104,0.041-0.104,0.041c-0.802,0.265-1.592,0.266-2.416,0.274
			c-1.512-0.014-3.065-0.182-4.562-0.395c-2.251-0.332-4.522-0.869-6.529-1.974c-1.655-0.899-3.076-2.212-4.13-3.771
			c-3.001-4.464-4.233-10.139-7.492-14.448c-1.097-1.445-2.552-2.582-4.108-3.497c-2.476-1.459-5.283-2.609-7.538-4.418
			c-1.326-1.037-2.447-2.326-3.411-3.701c-1.835-2.593-3.8-6.502-5.354-9.296c-1.219-2.138-2.507-4.313-4.272-6.05
			c-0.842-0.829-1.82-1.481-2.876-1.975c-0.932-0.447-2.04-0.806-3.024-1.133c-0.603-0.206-1.317-0.44-1.844-0.778
			c-0.075-0.05-0.112-0.076-0.112-0.076c-0.07-0.052-0.087-0.065-0.087-0.065c-0.066-0.054-0.082-0.068-0.082-0.068
			c-0.076-0.07-0.09-0.084-0.09-0.084c-0.069-0.073-0.082-0.088-0.082-0.088c-0.062-0.077-0.073-0.092-0.073-0.092
			c-0.044-0.064-0.054-0.08-0.054-0.08c-0.044-0.077-0.052-0.092-0.052-0.092c-0.03-0.063-0.037-0.079-0.037-0.079
			c-0.026-0.065-0.032-0.081-0.032-0.081c-0.022-0.067-0.027-0.084-0.027-0.084c-0.018-0.069-0.023-0.086-0.023-0.086
			c-0.015-0.071-0.018-0.089-0.018-0.089c-0.011-0.073-0.013-0.091-0.013-0.091c-0.008-0.075-0.009-0.094-0.009-0.094
			c-0.036-0.864,0.296-1.66,0.583-2.441c0.424-1.068,1.08-2.601,1.412-3.681c0.291-0.918,0.524-1.896,0.71-2.841
			c0.55-2.696,0.978-7.717,1.298-10.501c0.21-1.976,0.883-5.885,1.206-7.884c0.153-1.147,0.382-2.399,0.248-3.547
			c-0.011-0.067-0.015-0.088-0.015-0.088c-0.013-0.063-0.018-0.083-0.018-0.083c-0.015-0.059-0.02-0.078-0.02-0.078
			c-0.023-0.073-0.029-0.091-0.029-0.091c-0.026-0.067-0.033-0.082-0.033-0.082c-0.037-0.074-0.045-0.088-0.045-0.088
			c-0.051-0.075-0.06-0.087-0.06-0.087c-0.069-0.069-0.08-0.077-0.08-0.077c-0.075-0.046-0.086-0.051-0.086-0.051
			c-0.071-0.025-0.083-0.028-0.083-0.028c-0.077-0.012-0.091-0.013-0.091-0.013c-0.069,0-0.084,0.001-0.084,0.001
			c-0.074,0.009-0.089,0.011-0.089,0.011c-0.062,0.013-0.078,0.017-0.078,0.017c-0.065,0.019-0.082,0.024-0.082,0.024
			c-0.068,0.025-0.085,0.031-0.085,0.031c-0.071,0.03-0.089,0.038-0.089,0.038c-0.055,0.026-0.092,0.045-0.092,0.045
			c-0.434,0.229-0.735,0.488-1.091,0.789c-0.398,0.346-0.81,0.755-1.179,1.135c-3.078,3.301-5.944,6.985-8.556,10.666
			c-3.233,4.668-6.154,9.694-7.711,15.188c-0.926,3.291-1.26,6.763-1.409,10.17c-0.14,3.816-0.187,9.812-0.71,13.531
			c-0.532,4.376-2.394,11.641-3.364,16.013c-0.772,3.608-1.425,7.334-1.556,11.023c-0.108,2.706,0.121,5.461,0.504,8.14
			c0.934,6.754,3.211,14.228,2.724,21.085c-0.606,7.855-5.115,14.704-9.751,20.821l-6.022,7.717
			c-2.514,3.313-4.879,6.832-6.608,10.623c-1.421,3.063-2.397,6.344-3.031,9.657c-0.669,3.262-1.169,7.913-1.74,11.203
			c-0.105,0.547-0.233,1.198-0.439,1.696c-0.024,0.055-0.036,0.081-0.036,0.081c-0.036,0.074-0.049,0.096-0.049,0.096
			c-0.037,0.064-0.05,0.083-0.05,0.083c-0.051,0.07-0.064,0.086-0.064,0.086c-0.066,0.064-0.08,0.075-0.08,0.075
			c-0.069,0.038-0.083,0.043-0.083,0.043c-0.071,0.011-0.086,0.011-0.086,0.011c-0.074-0.017-0.09-0.023-0.09-0.023
			c-0.071-0.04-0.08-0.047-0.08-0.047c-0.074-0.062-0.083-0.071-0.083-0.071c-0.066-0.07-0.076-0.081-0.076-0.081
			c-0.059-0.072-0.078-0.098-0.078-0.098c-0.392-0.537-0.874-1.566-1.19-2.14c-0.306-0.563-0.689-1.221-1.112-1.683
			c-0.064-0.068-0.096-0.1-0.096-0.1c-0.065-0.063-0.097-0.093-0.097-0.093c-0.065-0.058-0.082-0.072-0.082-0.072
			c-0.066-0.053-0.083-0.066-0.083-0.066c-0.067-0.048-0.083-0.06-0.083-0.06c-0.067-0.043-0.084-0.054-0.084-0.054
			c-0.068-0.038-0.085-0.047-0.085-0.047c-0.068-0.033-0.086-0.04-0.086-0.04c-0.063-0.025-0.092-0.035-0.092-0.035
			c-0.058-0.018-0.088-0.025-0.088-0.025c-0.059-0.013-0.088-0.018-0.088-0.018c-0.059-0.008-0.089-0.011-0.089-0.011
			c-0.06-0.004-0.09-0.004-0.09-0.004c-0.06,0.001-0.091,0.003-0.091,0.003c-0.061,0.006-0.091,0.01-0.091,0.01
			c-0.061,0.01-0.092,0.016-0.092,0.016c-0.062,0.014-0.093,0.023-0.093,0.023c-0.062,0.019-0.093,0.029-0.093,0.029
			c-0.062,0.023-0.094,0.036-0.094,0.036c-0.063,0.027-0.094,0.042-0.094,0.042c-0.063,0.031-0.095,0.048-0.095,0.048
			c-0.064,0.036-0.096,0.054-0.096,0.054c-0.064,0.04-0.096,0.06-0.096,0.06c-0.064,0.044-0.097,0.066-0.097,0.066
			c-0.843,0.636-1.356,1.406-1.918,2.248c-0.841,1.315-1.566,2.767-2.23,4.179c-1.385,2.972-2.742,6.47-3.915,9.542
			c-1.496,3.976-3.012,8.376-4.169,12.461c-0.539,1.818-1.206,4.744-1.744,6.569c-0.106,0.346-0.255,0.78-0.398,1.087
			c-0.046,0.098-0.077,0.156-0.094,0.188c-0.032,0.057-0.047,0.084-0.047,0.084c-0.048,0.077-0.064,0.101-0.064,0.101
			c-0.048,0.067-0.056,0.078-0.056,0.078c-0.065,0.076-0.073,0.085-0.073,0.085c-0.074,0.067-0.082,0.074-0.082,0.074
			c-0.075,0.047-0.084,0.051-0.084,0.051c-0.076,0.026-0.085,0.027-0.085,0.027c-0.069,0.004-0.078,0.004-0.078,0.004
			c-0.069-0.013-0.083-0.018-0.083-0.018c-0.072-0.033-0.086-0.041-0.086-0.041c-0.073-0.052-0.087-0.064-0.087-0.064
			c-0.074-0.07-0.089-0.086-0.089-0.086c-0.06-0.069-0.075-0.088-0.075-0.088c-0.045-0.06-0.06-0.081-0.06-0.081
			c-0.045-0.067-0.061-0.09-0.061-0.09c-0.365-0.596-0.545-1.151-0.76-1.775c-0.311-0.957-0.57-2.005-0.787-2.988
			c-0.645-2.993-1.065-6.073-1.289-9.126c-0.539-6.96,0.455-14.963-0.417-21.9c-0.28-2.297-0.801-4.583-1.484-6.792
			c-2.255-7.378-7.131-16.431-10.06-23.581c-1.154-2.741-3.364-8.868-4.59-11.551c-0.287-0.624-0.637-1.334-1.024-1.869
			c-0.058-0.077-0.077-0.102-0.077-0.102c-0.057-0.07-0.076-0.092-0.076-0.092c-0.056-0.063-0.075-0.083-0.075-0.083
			c-0.074-0.074-0.092-0.091-0.092-0.091c-0.072-0.061-0.09-0.075-0.09-0.075c-0.07-0.049-0.088-0.06-0.088-0.06
			c-0.069-0.036-0.086-0.044-0.086-0.044c-0.067-0.023-0.084-0.027-0.084-0.027c-0.066-0.01-0.082-0.011-0.082-0.011
			c-0.064,0.004-0.08,0.006-0.08,0.006c-0.067,0.019-0.079,0.024-0.079,0.024c-0.074,0.04-0.087,0.048-0.087,0.048
			c-0.073,0.058-0.085,0.069-0.085,0.069c-0.071,0.076-0.083,0.09-0.083,0.09c-0.058,0.076-0.07,0.093-0.07,0.093
			c-0.046,0.07-0.057,0.088-0.057,0.088c-0.27,0.464-0.408,0.902-0.573,1.386c-0.232,0.704-0.709,2.344-0.937,3.031
			c-0.634,1.956-1.407,3.912-2.629,5.582c-2.123,2.935-5.482,5.22-8.107,7.676c-1.707,1.584-3.266,3.385-4.3,5.487
			c-1.112,2.259-1.726,4.76-2.261,7.21c-0.331,1.415-0.722,3.909-1.304,5.23c-0.041,0.086-0.069,0.139-0.083,0.166
			c-0.043,0.076-0.057,0.1-0.057,0.1c-0.044,0.069-0.058,0.091-0.058,0.091c-0.045,0.062-0.06,0.082-0.06,0.082
			c-0.061,0.072-0.077,0.089-0.077,0.089c-0.063,0.06-0.079,0.074-0.079,0.074c-0.066,0.048-0.082,0.058-0.082,0.058
			c-0.068,0.035-0.085,0.042-0.085,0.042c-0.064,0.02-0.079,0.024-0.079,0.024c-0.075,0.01-0.091,0.011-0.091,0.011
			c-0.062-0.002-0.078-0.003-0.078-0.003c-0.064-0.01-0.08-0.014-0.08-0.014c-0.065-0.019-0.081-0.025-0.081-0.025
			c-0.066-0.027-0.083-0.035-0.083-0.035c-0.068-0.035-0.085-0.045-0.085-0.045c-0.069-0.043-0.086-0.055-0.086-0.055
			c-0.07-0.051-0.088-0.064-0.088-0.064c-0.071-0.058-0.089-0.074-0.089-0.074c-0.072-0.066-0.09-0.083-0.09-0.083
			c-0.527-0.531-0.834-1.076-1.183-1.697c-0.434-0.802-0.81-1.675-1.137-2.527c-0.615-1.624-1.105-3.327-1.421-5.036
			c-0.331-1.787-0.483-3.64-0.523-5.456c-0.098-3.512,0.342-7.831,0.006-11.327c-0.085-0.78-0.208-1.635-0.517-2.351
			c-0.033-0.073-0.05-0.108-0.05-0.108c-0.035-0.069-0.053-0.102-0.053-0.102c-0.036-0.065-0.055-0.096-0.055-0.096
			c-0.048-0.075-0.058-0.09-0.058-0.09c-0.05-0.07-0.06-0.083-0.06-0.083c-0.063-0.076-0.073-0.088-0.073-0.088
			c-0.066-0.068-0.077-0.079-0.077-0.079c-0.069-0.06-0.081-0.069-0.081-0.069c-0.072-0.051-0.084-0.059-0.084-0.059
			c-0.075-0.042-0.088-0.048-0.088-0.048c-0.065-0.028-0.079-0.033-0.079-0.033c-0.068-0.021-0.081-0.025-0.081-0.025
			c-0.07-0.015-0.09-0.018-0.09-0.018c-0.06-0.006-0.081-0.008-0.081-0.008c-0.062-0.001-0.083-0.001-0.083-0.001
			c-0.064,0.004-0.086,0.006-0.086,0.006c-0.066,0.009-0.088,0.013-0.088,0.013c-0.068,0.014-0.09,0.02-0.09,0.02
			c-0.069,0.019-0.093,0.026-0.093,0.026c-0.071,0.024-0.095,0.033-0.095,0.033c-0.073,0.029-0.097,0.039-0.097,0.039
			c-0.074,0.033-0.099,0.045-0.099,0.045c-0.076,0.038-0.101,0.051-0.101,0.051c-0.796,0.451-1.34,1.025-1.94,1.657
			c-0.805,0.879-1.559,1.861-2.256,2.827c-3.363,4.612-6.213,10.582-9.014,15.56c-0.683,1.192-1.482,2.515-2.245,3.656
			c-0.856,1.311-3.468,4.84-4.406,6.145c-1.667,2.365-3.297,4.851-4.187,7.625c-0.526,1.613-0.733,3.512-0.965,5.193
			c-0.062,0.406-0.144,0.9-0.27,1.28c-0.025,0.072-0.038,0.107-0.038,0.107c-0.027,0.067-0.034,0.083-0.034,0.083
			c-0.035,0.077-0.043,0.092-0.043,0.092c-0.038,0.07-0.045,0.083-0.045,0.083c-0.048,0.075-0.056,0.086-0.056,0.086
			c-0.061,0.074-0.07,0.083-0.07,0.083c-0.075,0.067-0.085,0.074-0.085,0.074c-0.072,0.042-0.083,0.047-0.083,0.047
			c-0.066,0.023-0.078,0.026-0.078,0.026c-0.062,0.01-0.078,0.012-0.078,0.012c-0.064,0-0.08-0.001-0.08-0.001
			c-0.067-0.009-0.085-0.012-0.085-0.012c-0.071-0.018-0.089-0.024-0.089-0.024c-0.074-0.027-0.093-0.035-0.093-0.035
			c-0.077-0.036-0.097-0.046-0.097-0.046c-0.06-0.033-0.08-0.044-0.08-0.044c-0.061-0.038-0.082-0.051-0.082-0.051
			c-0.063-0.042-0.084-0.057-0.084-0.057c-0.627-0.47-1.026-1.003-1.469-1.599c-0.499-0.698-0.945-1.45-1.341-2.21
			c-1.218-2.362-2.077-4.957-2.201-7.626c-0.165-2.619,0.388-5.706,0.536-8.324c0.047-1.029,0.029-2.081-0.217-3.087
			c-0.465-1.947-1.905-3.376-3.263-4.729c-1.663-1.619-3.427-3.32-4.528-5.386c-1.019-1.889-1.505-4.025-1.9-6.12
			c-0.246-1.378-0.609-3.863-0.884-5.226c-0.129-0.618-0.3-1.336-0.551-1.893c-0.056-0.122-0.101-0.206-0.134-0.265
			c-0.031-0.054-0.047-0.08-0.047-0.08c-0.048-0.075-0.065-0.099-0.065-0.099c-0.05-0.069-0.067-0.091-0.067-0.091
			c-0.052-0.062-0.07-0.082-0.07-0.082c-0.072-0.074-0.091-0.091-0.091-0.091c-0.076-0.062-0.095-0.077-0.095-0.077
			c-0.069-0.045-0.083-0.053-0.083-0.053c-0.072-0.037-0.086-0.043-0.086-0.043c-0.074-0.029-0.089-0.034-0.089-0.034
			c-0.077-0.021-0.092-0.024-0.092-0.024c-0.063-0.011-0.079-0.013-0.079-0.013c-0.065-0.006-0.081-0.006-0.081-0.006
			c-0.066,0-0.083,0-0.083,0c-0.067,0.005-0.084,0.006-0.084,0.006c-0.069,0.009-0.086,0.012-0.086,0.012
			c-0.07,0.014-0.088,0.018-0.088,0.018c-0.071,0.019-0.089,0.024-0.089,0.024c-0.072,0.024-0.091,0.03-0.091,0.03
			c-0.074,0.028-0.092,0.036-0.092,0.036c-0.075,0.033-0.093,0.042-0.093,0.042c-0.076,0.037-0.114,0.058-0.114,0.058
			c-0.646,0.364-1.089,0.827-1.561,1.354c-0.61,0.701-1.15,1.487-1.635,2.279c-1.197,1.94-2.302,4.657-3.312,6.711
			c-0.365,0.72-0.787,1.541-1.315,2.134c-0.057,0.061-0.076,0.081-0.076,0.081c-0.076,0.075-0.095,0.092-0.095,0.092
			c-0.076,0.067-0.094,0.083-0.094,0.083c-0.075,0.059-0.094,0.073-0.094,0.073c-0.075,0.051-0.094,0.062-0.094,0.062
			c-0.075,0.042-0.094,0.052-0.094,0.052c-0.075,0.033-0.094,0.041-0.094,0.041c-0.075,0.024-0.094,0.029-0.094,0.029
			c-0.076,0.015-0.094,0.018-0.094,0.018c-0.076,0.006-0.095,0.006-0.095,0.006c-0.076-0.004-0.095-0.006-0.095-0.006
			c-0.076-0.014-0.095-0.019-0.095-0.019c-0.069-0.021-0.085-0.028-0.085-0.028c-0.066-0.028-0.083-0.036-0.083-0.036
			c-0.067-0.036-0.083-0.046-0.083-0.046c-0.067-0.043-0.083-0.054-0.083-0.054c-0.067-0.05-0.084-0.063-0.084-0.063
			c-0.067-0.056-0.084-0.071-0.084-0.071c-0.067-0.062-0.084-0.079-0.084-0.079c-0.067-0.068-0.101-0.104-0.101-0.104
			c-0.462-0.517-0.753-1.031-1.095-1.609c-0.655-1.11-1.428-2.727-2.322-3.644c-0.076-0.074-0.114-0.109-0.114-0.109
			c-0.076-0.067-0.096-0.083-0.096-0.083c-0.077-0.061-0.096-0.076-0.096-0.076c-0.077-0.055-0.096-0.068-0.096-0.068
			c-0.058-0.037-0.082-0.051-0.082-0.051c-0.071-0.039-0.095-0.051-0.095-0.051c-0.071-0.033-0.095-0.043-0.095-0.043
			c-0.072-0.027-0.095-0.036-0.095-0.036c-0.072-0.022-0.096-0.028-0.096-0.028c-0.072-0.016-0.097-0.021-0.097-0.021
			c-0.073-0.011-0.097-0.014-0.097-0.014c-0.074-0.006-0.098-0.007-0.098-0.007c-0.074-0.001-0.099,0-0.099,0
			c-0.075,0.005-0.1,0.007-0.1,0.007c-0.076,0.009-0.101,0.013-0.101,0.013c-0.076,0.014-0.102,0.02-0.102,0.02
			c-0.077,0.019-0.103,0.026-0.103,0.026c-0.052,0.015-0.078,0.023-0.078,0.023c-0.593,0.203-1.028,0.533-1.489,0.877
			c-0.323,0.242-1.985,1.64-2.334,1.932c-1.13,0.927-2.335,1.808-3.606,2.532c-2.029,1.16-4.273,1.942-6.521,2.556
			c-4.447,1.172-9.091,1.792-13.691,1.814c-0.925-0.005-1.89-0.041-2.809-0.151c-0.572-0.071-1.215-0.177-1.739-0.387
			c-0.074-0.032-0.109-0.048-0.109-0.048c-0.067-0.033-0.099-0.05-0.099-0.05c-0.061-0.034-0.089-0.052-0.089-0.052
			c-0.054-0.036-0.079-0.054-0.079-0.054c-0.068-0.056-0.088-0.075-0.088-0.075c-0.064-0.071-0.072-0.082-0.072-0.082
			c-0.041-0.067-0.047-0.078-0.047-0.078c-0.027-0.069-0.03-0.081-0.03-0.081c-0.012-0.072-0.013-0.084-0.013-0.084
			c0.001-0.075,0.003-0.087,0.003-0.087c0.015-0.077,0.018-0.09,0.018-0.09c0.023-0.066,0.028-0.08,0.028-0.08
			c0.032-0.068,0.039-0.082,0.039-0.082c0.04-0.07,0.049-0.084,0.049-0.084c0.049-0.072,0.06-0.086,0.06-0.086
			c0.057-0.074,0.082-0.104,0.082-0.104c0.053-0.061,0.081-0.091,0.081-0.091c0.059-0.062,0.09-0.093,0.09-0.093
			c0.58-0.559,1.221-0.962,1.88-1.402c2.778-1.735,5.828-3.688,8.309-5.81c0.732-0.632,1.512-1.308,2.102-2.073
			c0.055-0.076,0.08-0.112,0.08-0.112c0.047-0.071,0.069-0.106,0.069-0.106c0.04-0.067,0.049-0.084,0.049-0.084
			c0.033-0.064,0.041-0.079,0.041-0.079c0.033-0.075,0.038-0.089,0.038-0.089c0.022-0.069,0.026-0.082,0.026-0.082
			c0.013-0.075,0.014-0.086,0.014-0.086c-0.004-0.076-0.005-0.086-0.005-0.086c-0.028-0.07-0.032-0.078-0.032-0.078
			c-0.075-0.072-0.083-0.078-0.083-0.078c-0.069-0.034-0.08-0.038-0.08-0.038c-0.073-0.022-0.086-0.025-0.086-0.025
			c-0.07-0.013-0.085-0.015-0.085-0.015c-0.063-0.007-0.079-0.008-0.079-0.008c-0.068-0.004-0.104-0.005-0.104-0.005
			c-1.024,0-3.064,0.487-4.099,0.653c-2.04,0.372-4.136,0.626-6.211,0.607c-3.214-0.022-6.448-0.482-9.504-1.488
			c-1.675-0.567-3.333-1.301-4.723-2.412c-0.866-0.709-1.632-1.579-1.962-2.58c-0.02-0.067-0.029-0.1-0.029-0.1
			c-0.017-0.066-0.025-0.099-0.025-0.099c-0.014-0.065-0.021-0.097-0.021-0.097c-0.011-0.064-0.016-0.096-0.016-0.096
			c-0.008-0.063-0.012-0.094-0.012-0.094c-0.005-0.062-0.007-0.093-0.007-0.093c-0.002-0.061-0.003-0.091-0.003-0.091
			c0.001-0.075,0.002-0.089,0.002-0.089c0.005-0.073,0.007-0.088,0.007-0.088c0.009-0.071,0.011-0.086,0.011-0.086
			c0.013-0.07,0.016-0.084,0.016-0.084c0.017-0.068,0.021-0.081,0.021-0.081c0.021-0.066,0.026-0.079,0.026-0.079
			c0.031-0.077,0.036-0.089,0.036-0.089c0.036-0.074,0.043-0.086,0.043-0.086c0.042-0.071,0.05-0.083,0.05-0.083
			c0.048-0.068,0.056-0.079,0.056-0.079c0.063-0.075,0.073-0.086,0.073-0.086c0.069-0.069,0.087-0.085,0.087-0.085
			c0.073-0.061,0.092-0.076,0.092-0.076c0.059-0.043,0.08-0.057,0.08-0.057c0.064-0.041,0.086-0.054,0.086-0.054
			c0.068-0.038,0.091-0.051,0.091-0.051c0.072-0.036,0.096-0.048,0.096-0.048c0.46-0.21,0.9-0.29,1.339-0.361
			c0.595-0.089,1.238-0.131,1.84-0.161c3.157-0.124,6.7-0.046,9.673-1.218c1.881-0.701,3.63-1.754,5.297-2.863
			c2.382-1.605,5.187-3.65,7.654-5.103c2.669-1.592,5.654-3.017,8.481-4.316l13.511-5.976c4.53-2.091,9.138-4.339,13.224-7.217
			c3.062-2.152,5.856-4.767,8.434-7.474c3.52-3.771,8.133-8.959,11.987-12.246c4.475-3.906,9.789-7.646,14.693-11.028
			c3.14-2.161,12.662-8.467,15.495-10.654c1.862-1.411,4.858-3.815,6.786-5.024c1.947-1.25,4.081-2.236,6.268-2.983
			c10.113-3.359,22.891-4.795,32.785-8.808c5.627-2.249,11.239-5.854,16.891-8.046c2.407-0.948,4.974-1.698,7.486-2.313
			c6.112-1.554,16.454-2.971,22.682-4.191c1.621-0.327,3.3-0.734,4.886-1.202"/>
	</g>
	<g id="POLYLINE_15_">
		
			<path fill="none" stroke="#FB8604" stroke-width="2.75" stroke-linecap="round" stroke-linejoin="round" stroke-miterlimit="10" d="
			M627.071,269.854l-0.128-0.035c-0.894-0.253-1.997-0.649-2.906-0.551c-0.066,0.007-0.099,0.012-0.099,0.012
			c-0.065,0.01-0.098,0.015-0.098,0.015c-0.065,0.012-0.097,0.019-0.097,0.019c-0.064,0.015-0.096,0.023-0.096,0.023
			c-0.064,0.018-0.095,0.027-0.095,0.027c-0.063,0.021-0.094,0.032-0.094,0.032c-0.062,0.024-0.093,0.036-0.093,0.036
			c-0.062,0.027-0.092,0.041-0.092,0.041c-0.061,0.03-0.091,0.046-0.091,0.046c-0.06,0.033-0.09,0.05-0.09,0.05
			c-0.059,0.036-0.089,0.056-0.089,0.056c-0.058,0.04-0.087,0.061-0.087,0.061c-0.058,0.044-0.079,0.061-0.079,0.061
			c-0.065,0.054-0.087,0.073-0.087,0.073c-0.064,0.058-0.085,0.078-0.085,0.078c-0.063,0.062-0.084,0.084-0.084,0.084
			c-0.062,0.066-0.082,0.089-0.082,0.089c-0.433,0.49-0.715,1.071-0.935,1.607c-0.251,0.632-0.41,1.209-0.547,1.861
			c-0.329,1.663-0.408,3.411-0.023,5.072c0.264,1.19,0.953,2.287,1.899,2.946c0.665,0.474,1.354,0.741,2.099,0.891
			c0.617,0.114,1.177,0.143,1.735,0.012c0.063-0.017,0.084-0.023,0.084-0.023c0.062-0.019,0.083-0.025,0.083-0.025
			c0.061-0.021,0.081-0.028,0.081-0.028c0.06-0.023,0.08-0.031,0.08-0.031c0.059-0.025,0.078-0.034,0.078-0.034
			c0.077-0.037,0.096-0.047,0.096-0.047c0.075-0.041,0.093-0.052,0.093-0.052c0.073-0.045,0.091-0.057,0.091-0.057
			c0.071-0.049,0.089-0.062,0.089-0.062c0.069-0.053,0.086-0.067,0.086-0.067c0.067-0.057,0.084-0.072,0.084-0.072
			c0.066-0.062,0.082-0.078,0.082-0.078c0.064-0.066,0.08-0.083,0.08-0.083c0.062-0.071,0.077-0.089,0.077-0.089
			c0.123-0.152,0.174-0.232,0.245-0.345c0.537-0.926,0.726-1.922,0.829-2.962c0.097-1.209,0.011-2.486-0.412-3.627"/>
	</g>
</g>
<g id="AG-OUTLINE">
	<g id="POLYLINE_1_">
		
			<path fill="none" stroke="#FB8604" stroke-width="3.5" stroke-linecap="round" stroke-linejoin="round" stroke-miterlimit="10" d="
			M425.762,425.305c0.252,21.738-2.943,45.257-4.459,66.961c-0.081,1.357-0.096,2.752-0.033,4.109
			c0.095,2.051,0.372,4.117,0.857,6.113c0.27,1.167,0.707,2.307,0.917,3.487c0.425,2.253,0.442,4.588,0.308,6.871
			c-0.227,4.263-1.401,9.563-2.174,13.798c-1.072,5.962-3.249,18.52-4.138,24.581c-0.271,2.03-0.493,4.189-0.599,6.234
			c-0.114,2.346-0.113,4.752,0.206,7.082c0.208,1.479,0.543,2.966,1.158,4.332c0.4,0.939,1.089,1.819,1.632,2.677
			c1.045,1.613,2.072,3.329,2.919,5.055c0.553,1.141,1.064,2.33,1.388,3.558c0.588,2.281,0.65,4.675,0.534,7.018
			c-0.049,1-0.178,2.085-0.219,3.086c-0.045,1.138-0.02,2.306,0.172,3.43c0.182,1.099,0.588,2.294,1.322,3.113
			c0.062,0.069,0.094,0.103,0.094,0.103c0.606,0.622,1.247,0.959,2.004,1.263c0.791,0.306,1.629,0.496,2.466,0.626
			c1.11,0.17,2.265,0.238,3.388,0.251c1.385-0.022,14.088,0.067,15.207-0.058c1.655-0.145,3.586-0.473,4.719-1.75
			c0.052-0.062,0.069-0.083,0.069-0.083c0.05-0.064,0.066-0.085,0.066-0.085c0.047-0.065,0.062-0.087,0.062-0.087
			c0.045-0.066,0.059-0.089,0.059-0.089c0.042-0.068,0.056-0.091,0.056-0.091c0.04-0.069,0.052-0.093,0.052-0.093
			c0.037-0.071,0.049-0.094,0.049-0.094c0.034-0.072,0.046-0.096,0.046-0.096c0.032-0.073,0.042-0.098,0.042-0.098
			c0.029-0.075,0.039-0.1,0.039-0.1c0.231-0.617,0.212-1.206,0.212-1.824c-0.008-0.81-0.072-1.638-0.184-2.439
			c-0.216-1.543-0.616-3.069-1.142-4.533c-0.499-1.414-1.204-2.759-2.039-4.002c-0.701-1.045-1.503-2.038-2.356-2.963
			c-0.717-0.769-1.55-1.568-2.302-2.31c-1.696-1.713-3.334-3.55-4.709-5.533c-0.561-0.807-1.095-1.647-1.423-2.578
			c-0.565-1.533-0.685-3.202-0.515-4.818c0.069-0.667,0.187-1.338,0.339-1.99c0.975-4.295,1.817-8.747,2.323-13.122
			c0.291-2.824,0.377-5.746,0.343-8.584c-0.014-1.941-0.162-3.954-0.089-5.891c0.089-2.919,0.477-5.854,1.102-8.705
			c0.416-1.939,0.998-3.918,1.594-5.811c0.524-1.734,1.058-3.683,1.496-5.44c1.831-7.182,2.824-15.02,3.689-22.393
			c0.733-6.083,1.354-14.059,2.14-20.109c0.572-4.204,1.388-8.629,2.407-12.748c1.322-5.426,3.203-10.807,5.347-15.961
			c2.241-5.399,4.908-10.728,8.198-15.568c2.015-3.141,3.835-6.488,5.183-9.972c0.39-1.009,0.764-2.104,1.067-3.144
			c0.313-1.144,0.635-2.344,1.115-3.436c1.297-3.082,3.477-5.743,6.066-7.838c0.859-0.718,1.817-1.34,2.721-1.996
			c1.039-0.761,2.093-1.637,3.048-2.502c2.751-2.503,5.209-5.363,7.448-8.328c1.327-1.785,2.841-3.861,3.954-5.799
			c2.247-3.931,3.897-8.236,5.322-12.525c2.436-7.445,4.247-15.388,5.765-23.071c0.293,1.045,0.597,2.196,1.161,3.122
			c0.052,0.076,0.064,0.093,0.064,0.093c0.051,0.067,0.064,0.083,0.064,0.083c0.063,0.072,0.076,0.086,0.076,0.086
			c0.075,0.07,0.081,0.075,0.081,0.075c0.074,0.052,0.08,0.056,0.08,0.056c0.073,0.035,0.079,0.037,0.079,0.037
			c0.072,0.016,0.08,0.017,0.08,0.017c0.069-0.002,0.078-0.004,0.078-0.004c0.077-0.024,0.085-0.027,0.085-0.027
			c0.075-0.045,0.084-0.051,0.084-0.051c0.074-0.065,0.082-0.074,0.082-0.074c0.065-0.075,0.073-0.085,0.073-0.085
			c0.048-0.066,0.056-0.078,0.056-0.078c0.048-0.074,0.064-0.101,0.064-0.101c0.232-0.411,0.339-0.751,0.479-1.166
			c0.446-1.415,1.118-4.324,1.525-5.76c1.849-6.703,4.351-13.484,7-19.912c0.94-2.212,1.96-4.523,3.177-6.596
			c0.626-1.036,1.372-2.21,2.334-2.924c0.065-0.045,0.097-0.066,0.097-0.066c0.064-0.041,0.096-0.06,0.096-0.06
			c0.064-0.037,0.096-0.054,0.096-0.054c0.063-0.033,0.095-0.048,0.095-0.048c0.063-0.029,0.094-0.042,0.094-0.042
			c0.063-0.025,0.094-0.036,0.094-0.036c0.062-0.02,0.093-0.029,0.093-0.029c0.062-0.016,0.093-0.023,0.093-0.023
			c0.061-0.012,0.092-0.016,0.092-0.016c0.061-0.007,0.091-0.01,0.091-0.01c0.06-0.003,0.091-0.003,0.091-0.003
			c0.06,0.002,0.09,0.004,0.09,0.004c0.06,0.007,0.089,0.011,0.089,0.011c0.059,0.011,0.088,0.018,0.088,0.018
			c0.058,0.016,0.088,0.025,0.088,0.025c0.075,0.028,0.092,0.035,0.092,0.035c0.069,0.032,0.086,0.04,0.086,0.04
			c0.068,0.037,0.085,0.047,0.085,0.047c0.067,0.042,0.084,0.054,0.084,0.054c0.067,0.047,0.083,0.06,0.083,0.06
			c0.066,0.052,0.083,0.066,0.083,0.066c0.049,0.042,0.082,0.072,0.082,0.072c0.065,0.061,0.097,0.093,0.097,0.093
			c0.064,0.066,0.096,0.1,0.096,0.1c0.476,0.535,0.775,1.073,1.112,1.683c0.283,0.518,0.837,1.662,1.17,2.114
			c0.04,0.053,0.059,0.077,0.059,0.077c0.058,0.069,0.068,0.079,0.068,0.079c0.075,0.075,0.084,0.083,0.084,0.083
			c0.073,0.055,0.082,0.06,0.082,0.06c0.074,0.034,0.089,0.039,0.089,0.039c0.073,0.007,0.088,0.006,0.088,0.006
			c0.071-0.02,0.084-0.027,0.084-0.027c0.068-0.047,0.081-0.059,0.081-0.059c0.065-0.073,0.078-0.09,0.078-0.09
			c0.051-0.077,0.063-0.098,0.063-0.098c0.037-0.069,0.049-0.093,0.049-0.093c0.024-0.051,0.036-0.078,0.036-0.078
			c0.239-0.584,0.331-1.126,0.451-1.724c0.571-3.295,1.071-7.939,1.74-11.203c0.634-3.313,1.609-6.594,3.031-9.657
			c1.728-3.791,4.094-7.312,6.608-10.623l6.022-7.717c4.759-6.274,9.393-13.355,9.791-21.452c3.632,2.148,7.43,4.268,11.333,5.877
			c2.499,1.085,6.349,2.078,8.995,2.835c1.779,0.527,3.573,1.154,5.259,1.928c1.843,0.844,3.657,1.883,5.358,2.984
			c2.945,1.921,5.754,4.132,8.242,6.619c1.243,1.25,2.424,2.602,3.41,4.065c1.075,1.568,2.066,3.531,3.139,5.1
			c0.646,0.944,1.399,1.829,2.272,2.571c0.929,0.795,1.996,1.438,3.09,1.979c2.616,1.275,5.466,2.057,8.339,2.478
			c2.722,0.381,5.531,0.449,8.233-0.112c5.78-1.205,9.538-5.366,11.674-10.687c0.938-2.331,1.553-4.816,1.828-7.313
			c0.203-1.889,0.21-3.816-0.09-5.695c-0.273-1.756-0.83-3.48-1.468-5.136c-0.883-2.148-2.503-6.066-3.32-8.213
			c-2.307-6.007-6.087-16.993-8.546-22.888c1.758,0.344,3.587,0.565,5.376,0.655c1.012,0.032,2.105,0.065,3.083-0.203
			c0.077-0.024,0.114-0.037,0.114-0.037c0.072-0.026,0.089-0.033,0.089-0.033c0.067-0.028,0.083-0.035,0.083-0.035
			c0.063-0.03,0.078-0.038,0.078-0.038c0.072-0.04,0.086-0.048,0.086-0.048c0.077-0.051,0.089-0.06,0.089-0.06
			c0.077-0.065,0.087-0.075,0.087-0.075c0.062-0.07,0.07-0.081,0.07-0.081c0.047-0.076,0.053-0.087,0.053-0.087
			c0.028-0.07,0.031-0.082,0.031-0.082c0.015-0.069,0.017-0.085,0.017-0.085c0.004-0.067,0.004-0.084,0.004-0.084
			c-0.005-0.07-0.008-0.089-0.008-0.089c-0.014-0.074-0.019-0.093-0.019-0.093c-0.023-0.077-0.03-0.097-0.03-0.097
			c-0.023-0.06-0.032-0.08-0.032-0.08c-0.028-0.062-0.038-0.083-0.038-0.083c-0.033-0.064-0.045-0.085-0.045-0.085
			c-0.038-0.066-0.051-0.088-0.051-0.088c-0.517-0.79-1.182-1.358-1.857-1.986l-3.946-3.435c-1.88-1.674-3.622-3.546-4.935-5.703
			c-1.862-2.984-2.833-6.443-3.267-9.912c-0.451-3.468-0.698-7.322-2.261-10.496c-1.309-2.688-3.466-4.856-5.6-6.903
			c-2.213-2.069-5.441-4.934-7.443-7.164c-1.276-1.399-2.455-2.975-3.525-4.537c1.368-1.982,2.613-4.094,3.425-6.369
			c1.23-3.441,1.572-7.144,1.617-10.777c0.005-2.465-0.12-5.01-0.503-7.446c-0.196-1.117-0.429-2.323-0.999-3.308
			c-0.047-0.076-0.071-0.112-0.071-0.112c-0.049-0.071-0.073-0.105-0.073-0.105c-0.05-0.066-0.063-0.082-0.063-0.082
			c-0.064-0.077-0.077-0.091-0.077-0.091c-0.066-0.07-0.08-0.084-0.08-0.084c-0.068-0.064-0.082-0.076-0.082-0.076
			c-0.07-0.057-0.084-0.068-0.084-0.068c-0.072-0.05-0.086-0.059-0.086-0.059c-0.074-0.043-0.089-0.051-0.089-0.051
			c-0.076-0.036-0.091-0.042-0.091-0.042c-0.067-0.025-0.08-0.029-0.08-0.029c-0.066-0.019-0.079-0.022-0.079-0.022
			c-0.067-0.014-0.081-0.016-0.081-0.016c-0.068-0.009-0.082-0.01-0.082-0.01c-0.07-0.004-0.084-0.005-0.084-0.005
			c-0.071,0-0.085,0.001-0.085,0.001c-0.072,0.005-0.087,0.006-0.087,0.006c-0.073,0.009-0.088,0.011-0.088,0.011
			c-0.074,0.013-0.104,0.019-0.104,0.019c-0.061,0.014-0.091,0.022-0.091,0.022c-0.061,0.017-0.092,0.027-0.092,0.027
			c-0.062,0.021-0.094,0.032-0.094,0.032c-0.063,0.024-0.095,0.036-0.095,0.036c-0.934,0.408-1.585,1.022-2.312,1.662
			c-1.206,1.117-2.511,2.426-3.636,3.624c-1.616,1.743-3.198,3.585-4.447,5.613c-1.05,1.695-1.831,3.573-2.491,5.451
			c-3.668-1.325-7.685-1.085-11.489-0.582c0.223-1.673,0.723-6.81,0.943-8.478c0.168-1.447,0.857-5.509,1.098-7.004
			c0.153-1.147,0.382-2.399,0.248-3.547c-0.011-0.067-0.015-0.088-0.015-0.088c-0.013-0.063-0.018-0.083-0.018-0.083
			c-0.015-0.059-0.02-0.078-0.02-0.078c-0.023-0.073-0.029-0.091-0.029-0.091c-0.026-0.067-0.033-0.082-0.033-0.082
			c-0.037-0.074-0.045-0.088-0.045-0.088c-0.051-0.075-0.06-0.087-0.06-0.087c-0.069-0.069-0.08-0.077-0.08-0.077
			c-0.075-0.046-0.086-0.051-0.086-0.051c-0.071-0.025-0.083-0.028-0.083-0.028c-0.077-0.012-0.091-0.013-0.091-0.013
			c-0.069,0-0.084,0.001-0.084,0.001c-0.074,0.009-0.089,0.011-0.089,0.011c-0.062,0.013-0.078,0.017-0.078,0.017
			c-0.065,0.019-0.082,0.024-0.082,0.024c-0.068,0.025-0.085,0.031-0.085,0.031c-0.071,0.03-0.089,0.038-0.089,0.038
			c-0.055,0.026-0.092,0.045-0.092,0.045c-0.712,0.39-1.247,0.92-1.821,1.469c-1.3,1.287-2.594,2.842-3.767,4.254
			c-4.186,5.118-8.145,10.572-10.924,16.597c-1.589,0.468-3.262,0.874-4.886,1.202c-6.254,1.223-16.582,2.642-22.682,4.192
			c-2.758,0.674-5.553,1.509-8.18,2.591c-5.369,2.18-10.815,5.62-16.197,7.769c-9.887,4.011-22.677,5.451-32.785,8.808
			c-2.188,0.747-4.321,1.734-6.268,2.983c-1.938,1.209-4.945,3.636-6.786,5.024c-2.848,2.19-12.419,8.546-15.495,10.654
			c-4.896,3.38-10.214,7.12-14.693,11.028c-3.878,3.296-8.493,8.52-11.987,12.246c-2.579,2.708-5.372,5.321-8.434,7.474
			c-4.084,2.877-8.695,5.127-13.224,7.217l-13.511,5.976c-2.614,1.2-5.399,2.527-7.882,3.964c-2.348,1.34-5.089,3.278-7.329,4.83
			c-1.954,1.336-3.994,2.659-6.221,3.488c-2.969,1.171-6.524,1.094-9.673,1.218c-1.022,0.061-2.194,0.105-3.129,0.499
			c-0.075,0.035-0.099,0.047-0.099,0.047c-0.071,0.037-0.094,0.049-0.094,0.049c-0.067,0.039-0.088,0.052-0.088,0.052
			c-0.063,0.041-0.083,0.055-0.083,0.055c-0.077,0.058-0.096,0.074-0.096,0.074c-0.07,0.062-0.087,0.079-0.087,0.079
			c-0.062,0.066-0.073,0.078-0.073,0.078c-0.052,0.065-0.061,0.078-0.061,0.078c-0.046,0.068-0.054,0.082-0.054,0.082
			c-0.04,0.071-0.047,0.085-0.047,0.085c-0.034,0.074-0.04,0.089-0.04,0.089c-0.028,0.076-0.033,0.092-0.033,0.092
			c-0.018,0.063-0.023,0.079-0.023,0.079c-0.015,0.065-0.018,0.081-0.018,0.081c-0.011,0.066-0.013,0.083-0.013,0.083
			c-0.007,0.068-0.009,0.085-0.009,0.085c-0.004,0.069-0.004,0.087-0.004,0.087c-7.175,0.298-15.234,0.017-22.424-0.343
			c-9.385-0.55-18.967-1.594-28.199-3.328c-4.189-0.785-8.585-1.769-12.702-2.867c-13.121-3.589-28.548-7.947-41.803-10.813
			c-7.62-1.569-15.547-1.715-23.302-1.486c-7.485,0.282-15.132,0.842-22.476,2.363c-7.579,1.538-15.039,3.981-22.021,7.314
			c-3.731,1.772-7.413,3.834-10.703,6.342c-4.237,3.198-7.964,7.135-10.848,11.596l-3.891,0.316
			c-2.534,0.237-5.102,0.758-7.341,2.016c-1.583,0.871-2.974,2.068-4.189,3.397c-1.4,1.527-2.627,3.251-3.719,5.009
			c-3.673,6.027-6.17,12.755-7.699,19.632c-1.079,4.868-1.493,9.903-1.119,14.879c0.446,6.967,2.452,14.872,2.813,21.847
			c0.325,5.506-0.493,11.068-1.507,16.469c-1.427,7.433-3.788,16.886-4.028,24.355c-0.215,4.9,0.441,11.432,0.8,16.384
			c0.239,3.557,0.34,7.217,0.06,10.77c-0.259,3.336-0.852,6.755-1.506,10.036c-1.725,8.457-4.548,19.239-4.655,27.815
			c-0.083,3.715,0.361,7.461,1.083,11.102c1.19,6.171,3.668,13.551,4.505,19.776c0.328,2.392,0.39,4.843,0.152,7.246
			c-0.541,5.656-2.407,11.544-2.822,17.217c-0.604,6.761,1.178,13.472,3.421,19.794c1.897,5.413,4.714,11.351,7.155,16.555
			c0.243,0.5,0.546,1.121,0.85,1.562c0.052,0.073,0.07,0.097,0.07,0.097c0.052,0.067,0.069,0.089,0.069,0.089
			c0.051,0.061,0.068,0.08,0.068,0.08c0.067,0.071,0.084,0.088,0.084,0.088c0.074,0.067,0.083,0.074,0.083,0.074
			c0.074,0.054,0.082,0.059,0.082,0.059c0.073,0.041,0.081,0.044,0.081,0.044c0.073,0.027,0.081,0.029,0.081,0.029
			c0.072,0.013,0.08,0.014,0.08,0.014c0.072-0.001,0.08-0.002,0.08-0.002c0.072-0.016,0.08-0.018,0.08-0.018
			c0.073-0.031,0.081-0.035,0.081-0.035c0.076-0.048,0.09-0.059,0.09-0.059c0.069-0.059,0.083-0.072,0.083-0.072
			c0.07-0.073,0.084-0.089,0.084-0.089c0.056-0.069,0.071-0.087,0.071-0.087c0.412-0.575,0.635-1.165,0.908-1.796
			c1.21-2.93,2.291-6.329,4.417-8.732c0.924-1.015,1.892-1.705,3.047-2.352c2.138-1.184,4.597-1.932,6.707-3.171
			c1.757-1.021,3.251-2.451,4.535-4.014c1.951-2.384,3.489-5.118,4.85-7.873c1.027,8.311,2.244,19.014,2.825,27.337
			c0.095,1.622,0.143,3.324,0.065,4.945c-0.059,1.141-0.173,2.3-0.456,3.409c-0.088,0.348-0.216,0.694-0.301,1.043
			c-0.134,0.53-0.219,1.078-0.254,1.624c-0.098,1.524,0.191,3.06,0.718,4.488c0.261,0.692,0.662,1.398,1.145,1.951
			c0.648,0.734,1.318,1.19,2.175,1.563c0.6,0.267,1.258,0.395,1.888,0.569c0.747,0.215,1.481,0.499,2.17,0.858
			c3.207,1.631,5.02,4.952,5.92,8.297c0.294,1.06,0.468,2.165,0.429,3.267c-0.034,1.071-0.276,2.139-0.726,3.112
			c-0.25,0.556-0.61,1.088-0.896,1.626c-0.536,1.003-1.112,2.141-1.263,3.263c-0.018,0.149-0.022,0.263-0.022,0.354
			c0.001,0.071,0.002,0.095,0.002,0.095c0.039,0.672,0.249,1.229,0.483,1.805c0.281,0.668,0.636,1.33,1,1.957
			c0.471,0.807,1.038,1.708,1.648,2.398c0.533,0.601,1.105,1.108,1.804,1.354c0.056,0.018,0.084,0.027,0.084,0.027
			c0.056,0.016,0.083,0.023,0.083,0.023c0.055,0.014,0.083,0.02,0.083,0.02c0.055,0.011,0.083,0.017,0.083,0.017
			c0.055,0.009,0.083,0.013,0.083,0.013c0.055,0.007,0.083,0.01,0.083,0.01c0.055,0.005,0.082,0.006,0.082,0.006
			c5.184-0.003,15.067,0.023,20.28-0.01c0.579-0.021,1.181-0.069,1.753-0.16c0.859-0.135,1.843-0.409,2.513-0.928
			c0.076-0.06,0.1-0.081,0.1-0.081c0.072-0.062,0.095-0.084,0.095-0.084c0.067-0.065,0.089-0.086,0.089-0.086
			c0.063-0.067,0.084-0.089,0.084-0.089c0.059-0.069,0.068-0.081,0.068-0.081c0.054-0.073,0.063-0.086,0.063-0.086
			c0.042-0.064,0.05-0.078,0.05-0.078c0.039-0.067,0.046-0.081,0.046-0.081c0.035-0.07,0.042-0.085,0.042-0.085
			c0.026-0.059,0.038-0.088,0.038-0.088c0.023-0.061,0.034-0.092,0.034-0.092c0.021-0.063,0.03-0.096,0.03-0.096
			c0.018-0.066,0.026-0.099,0.026-0.099c0.015-0.068,0.022-0.103,0.022-0.103c0.013-0.071,0.019-0.106,0.019-0.106
			c0.01-0.073,0.015-0.11,0.015-0.11c0.067-0.679-0.047-1.279-0.206-1.917c-0.208-0.794-0.516-1.59-0.847-2.341
			c-1.167-2.57-2.584-5.073-4.284-7.328c-0.376-0.499-0.791-1.006-1.199-1.477c-1.946-2.231-4.535-5.362-6.402-7.67
			c-0.384-0.491-0.739-1.025-1.056-1.562c-1.189-2.03-2.02-4.279-2.718-6.52c-1.891-6.254-3.016-14.104-4.206-20.556
			c-1.582-9.558-3.577-23.155-5.451-32.537c-0.363-1.747-0.789-3.658-1.285-5.371c-0.215-0.667-0.375-1.371-0.438-2.07
			c-0.14-1.418-0.047-2.862,0.127-4.273c0.323-2.529,0.938-5.07,1.63-7.522c0.991-3.479,2.285-7.149,3.574-10.531
			c2.687-6.941,5.877-13.831,10.087-19.988c4.904-6.899,8.703-14.618,11.928-22.425c2.253-5.794,5.032-11.548,8.092-16.961
			c3.804-6.757,8.232-13.472,12.727-19.79c4.212-5.914,8.875-12.067,13.59-17.591c3.607,0.037,7.308,0.135,10.872,0.702
			c3.382,0.518,6.762,1.465,10.017,2.513c10.553,3.483,31.745,12.302,42.235,16.027c10.937,3.988,22.51,7.772,33.783,10.693
			C367.712,425.328,397.004,427.099,425.762,425.305z"/>
	</g>
</g>
</svg>
