<?xml version="1.0" encoding="utf-8"?>
<!-- Generator: Adobe Illustrator 24.2.0, SVG Export Plug-In . SVG Version: 6.00 Build 0)  -->
<!DOCTYPE svg PUBLIC "-//W3C//DTD SVG 1.1//EN" "http://www.w3.org/Graphics/SVG/1.1/DTD/svg11.dtd" [
	<!ENTITY ns_flows "http://ns.adobe.com/Flows/1.0/">
	<!ENTITY ns_extend "http://ns.adobe.com/Extensibility/1.0/">
	<!ENTITY ns_ai "http://ns.adobe.com/AdobeIllustrator/10.0/">
	<!ENTITY ns_graphs "http://ns.adobe.com/Graphs/1.0/">
	<!ENTITY ns_vars "http://ns.adobe.com/Variables/1.0/">
	<!ENTITY ns_imrep "http://ns.adobe.com/ImageReplacement/1.0/">
	<!ENTITY ns_sfw "http://ns.adobe.com/SaveForWeb/1.0/">
	<!ENTITY ns_custom "http://ns.adobe.com/GenericCustomNamespace/1.0/">
	<!ENTITY ns_adobe_xpath "http://ns.adobe.com/XPath/1.0/">
]>
<svg version="1.1" xmlns:x="&ns_extend;" xmlns:i="&ns_ai;" xmlns:graph="&ns_graphs;"
	 xmlns="http://www.w3.org/2000/svg" xmlns:xlink="http://www.w3.org/1999/xlink" xmlns:a="http://ns.adobe.com/AdobeSVGViewerExtensions/3.0/"
	 x="0px" y="0px" width="750px" height="750px" viewBox="0 0 750 750" enable-background="new 0 0 750 750" xml:space="preserve">
<metadata>
	<sfw  xmlns="&ns_sfw;">
		<slices></slices>
		<sliceSourceBounds  bottomLeftOrigin="true" height="11750" width="4861" x="-2000" y="-3526"></sliceSourceBounds>
	</sfw>
</metadata>
<g id="FILL-BACKGROUND">
	<rect fill="#FFFFFF" width="750" height="750"/>
</g>
<g id="AG-GUIDES">
</g>
<g id="N-DIMENSIONS">
</g>
<g id="AG-DETAIL-DIAGRAM">
</g>
<g id="N-TEXT">
</g>
<g id="AG-DIAGRAM">
	<g id="POLYLINE_1520_">
		<g>
			<g>
				
					<line fill="none" stroke="#FB8604" stroke-width="3.25" stroke-linecap="round" stroke-linejoin="round" x1="139.1" y1="587.509" x2="141.1" y2="587.509"/>
				
					<line fill="none" stroke="#FB8604" stroke-width="3.25" stroke-linecap="round" stroke-linejoin="round" stroke-dasharray="3.9573,6.9252" x1="148.026" y1="587.509" x2="481.92" y2="587.509"/>
				
					<line fill="none" stroke="#FB8604" stroke-width="3.25" stroke-linecap="round" stroke-linejoin="round" x1="485.383" y1="587.509" x2="487.383" y2="587.509"/>
			</g>
		</g>
	</g>
</g>
<g id="AG-DETAILS">
</g>
<g id="AG-ANIMALS">
	<g id="POLYLINE_273_">
		
			<path fill="none" stroke="#FB8604" stroke-width="2.75" stroke-linecap="round" stroke-linejoin="round" stroke-miterlimit="10" d="
			M585.84,187.851c-1.241,2.311-2.899,4.409-4.794,6.219c-1.523,1.44-3.23,2.726-5.137,3.611c-2.247,1.057-4.74,1.499-7.188,1.799
			c-6.228,0.725-13.229,1.071-19.164,3.147c-5.764,1.985-10.826,5.606-15.318,9.662c-1.941,1.752-3.84,3.647-5.49,5.677
			c-1.575,1.928-2.981,4.032-4.196,6.204c-1.75,3.128-3.369,7.037-5.192,10.122c-1.03,1.74-2.235,3.424-3.792,4.733
			c-1.421,1.213-3.087,2.142-4.755,2.971c-1.724,0.852-3.946,1.835-5.527,2.931c-1.389,0.952-2.576,2.195-3.689,3.45
			c-1.797,2.07-3.793,4.393-5.946,6.101c-2.186,1.764-4.651,3.212-7.15,4.484c-1.868,0.933-3.834,1.81-5.826,2.444
			c-0.868,0.263-1.795,0.535-2.695,0.528c-0.062-0.003-0.092-0.005-0.092-0.005c-0.059-0.005-0.087-0.009-0.087-0.009
			c-0.055-0.008-0.082-0.012-0.082-0.012c-0.076-0.016-0.1-0.022-0.1-0.022c-0.068-0.021-0.09-0.029-0.09-0.029
			c-0.061-0.026-0.08-0.035-0.08-0.035c-0.069-0.042-0.085-0.053-0.085-0.053c-0.077-0.075-0.083-0.082-0.083-0.082
			c-0.045-0.073-0.049-0.081-0.049-0.081c-0.027-0.073-0.03-0.083-0.03-0.083c-0.014-0.07-0.015-0.081-0.015-0.081
			c-0.005-0.076-0.006-0.087-0.006-0.087c0.002-0.07,0.003-0.082,0.003-0.082c0.008-0.074,0.009-0.086,0.009-0.086
			c0.011-0.065,0.016-0.091,0.016-0.091c0.012-0.054,0.019-0.082,0.019-0.082c0.104-0.394,0.258-0.704,0.404-1.019
			c0.648-1.299,1.371-2.68,1.67-4.106c0.17-0.768,0.292-1.657,0.162-2.426c-0.012-0.065-0.019-0.096-0.019-0.096
			c-0.014-0.062-0.022-0.092-0.022-0.092c-0.016-0.059-0.025-0.088-0.025-0.088c-0.018-0.056-0.028-0.083-0.028-0.083
			c-0.026-0.065-0.031-0.078-0.031-0.078c-0.034-0.073-0.04-0.085-0.04-0.085c-0.038-0.067-0.045-0.078-0.045-0.078
			c-0.049-0.07-0.056-0.08-0.056-0.08c-0.062-0.07-0.07-0.078-0.07-0.078c-0.077-0.064-0.086-0.071-0.086-0.071
			c-0.076-0.044-0.086-0.049-0.086-0.049c-0.071-0.028-0.084-0.032-0.084-0.032c-0.067-0.016-0.081-0.019-0.081-0.019
			c-0.071-0.008-0.086-0.009-0.086-0.009c-0.075-0.001-0.091,0-0.091,0c-0.063,0.005-0.079,0.006-0.079,0.006
			c-0.065,0.009-0.082,0.012-0.082,0.012c-0.068,0.014-0.085,0.018-0.085,0.018c-0.07,0.019-0.088,0.024-0.088,0.024
			c-0.054,0.017-0.091,0.029-0.091,0.029c-0.074,0.027-0.112,0.042-0.112,0.042c-0.491,0.207-0.844,0.452-1.26,0.747
			c-1.129,0.811-3.265,2.756-4.347,3.679c-2.405,2.047-5.046,3.858-7.792,5.417c-2.014,1.154-4.14,2.187-6.346,2.915
			c-2.053,0.685-4.213,1.112-6.37,1.285c-1.428,0.115-2.893,0.151-4.323,0.051c-0.752-0.061-1.591-0.144-2.287-0.411
			c-0.075-0.032-0.093-0.04-0.093-0.04c-0.068-0.033-0.085-0.042-0.085-0.042c-0.076-0.044-0.09-0.052-0.09-0.052
			c-0.077-0.055-0.089-0.064-0.089-0.064c-0.07-0.067-0.079-0.077-0.079-0.077c-0.049-0.071-0.054-0.081-0.054-0.081
			c-0.026-0.074-0.028-0.082-0.028-0.082c-0.005-0.075-0.004-0.082-0.004-0.082c0.012-0.07,0.014-0.078,0.014-0.078
			c0.027-0.073,0.03-0.081,0.03-0.081c0.04-0.075,0.046-0.084,0.046-0.084c0.041-0.06,0.053-0.078,0.053-0.078
			c0.057-0.071,0.072-0.09,0.072-0.09c0.067-0.074,0.085-0.093,0.085-0.093c0.649-0.632,1.487-1.181,2.131-1.8
			c0.774-0.72,1.379-1.56,1.7-2.489c0.073-0.219,0.114-0.405,0.138-0.57c0.008-0.06,0.011-0.09,0.011-0.09
			c0.005-0.059,0.007-0.088,0.007-0.088c0.003-0.058,0.004-0.086,0.004-0.086c0-0.057,0-0.085,0-0.085
			c-0.002-0.055-0.004-0.082-0.004-0.082c-0.005-0.054-0.008-0.08-0.008-0.08c-0.01-0.065-0.012-0.078-0.012-0.078
			c-0.016-0.076-0.019-0.088-0.019-0.088c-0.021-0.073-0.024-0.085-0.024-0.085c-0.025-0.07-0.03-0.081-0.03-0.081
			c-0.036-0.077-0.041-0.088-0.041-0.088c-0.042-0.072-0.049-0.082-0.049-0.082c-0.057-0.077-0.064-0.086-0.064-0.086
			c-0.066-0.07-0.074-0.079-0.074-0.079c-0.074-0.063-0.09-0.075-0.09-0.075c-0.068-0.046-0.086-0.057-0.086-0.057
			c-0.074-0.041-0.094-0.051-0.094-0.051c-0.06-0.028-0.081-0.036-0.081-0.036c-0.064-0.025-0.086-0.032-0.086-0.032
			c-0.067-0.022-0.091-0.029-0.091-0.029c-0.071-0.019-0.095-0.025-0.095-0.025c-0.81-0.164-1.551-0.027-2.308,0.115
			c-1.02,0.212-2.04,0.543-3.017,0.903c-1.819,0.681-3.607,1.525-5.292,2.491c-1.906,1.073-4.543,2.953-6.376,4.192
			c-1.86,1.251-3.85,2.371-5.912,3.251c-4.416,1.895-9.159,3.149-13.836,4.219c-2.988,0.645-6.306,1.39-9.338,1.714
			c-1.052,0.097-2.234,0.194-3.257-0.026c-0.114-0.027-0.194-0.051-0.25-0.07c-0.076-0.027-0.101-0.036-0.101-0.036
			c-0.072-0.029-0.095-0.039-0.095-0.039c-0.067-0.032-0.088-0.043-0.088-0.043c-0.062-0.034-0.082-0.046-0.082-0.046
			c-0.075-0.049-0.093-0.062-0.093-0.062c-0.066-0.054-0.082-0.068-0.082-0.068c-0.071-0.073-0.084-0.089-0.084-0.089
			c-0.047-0.064-0.057-0.08-0.057-0.08c-0.038-0.068-0.046-0.086-0.046-0.086c-0.028-0.073-0.034-0.092-0.034-0.092
			c-0.015-0.058-0.019-0.078-0.019-0.078c-0.009-0.061-0.011-0.082-0.011-0.082c-0.003-0.075-0.003-0.092-0.003-0.092
			c0.004-0.068,0.005-0.085,0.005-0.085c0.009-0.071,0.012-0.089,0.012-0.089c0.014-0.073,0.018-0.092,0.018-0.092
			c0.019-0.076,0.025-0.095,0.025-0.095c0.197-0.626,0.533-1.109,0.877-1.644c0.549-0.845,1.465-2,1.801-2.942
			c0.019-0.059,0.025-0.078,0.025-0.078c0.021-0.076,0.026-0.095,0.026-0.095c0.016-0.074,0.019-0.092,0.019-0.092
			c0.011-0.071,0.013-0.089,0.013-0.089c0.006-0.068,0.006-0.085,0.006-0.085c0-0.066-0.001-0.082-0.001-0.082
			c-0.006-0.063-0.008-0.078-0.008-0.078c-0.014-0.069-0.02-0.089-0.02-0.089c-0.027-0.074-0.035-0.092-0.035-0.092
			c-0.037-0.069-0.048-0.085-0.048-0.085c-0.047-0.064-0.06-0.079-0.06-0.079c-0.073-0.073-0.089-0.087-0.089-0.087
			c-0.069-0.053-0.087-0.066-0.087-0.066c-0.058-0.037-0.078-0.048-0.078-0.048c-0.063-0.034-0.085-0.045-0.085-0.045
			c-0.069-0.031-0.093-0.041-0.093-0.041c-0.074-0.029-0.099-0.038-0.099-0.038c-0.95-0.296-1.962-0.232-2.919-0.212
			c-2.759,0.116-6.129,0.596-8.881,0.428c-1.211-0.071-2.423-0.254-3.594-0.572c-1.238-0.333-2.446-0.828-3.591-1.402
			c-0.759-0.386-1.576-0.814-2.299-1.262c-0.582-0.363-1.212-0.814-1.602-1.312c-0.042-0.055-0.062-0.082-0.062-0.082
			c-0.039-0.055-0.057-0.083-0.057-0.083c-0.035-0.055-0.052-0.083-0.052-0.083c-0.032-0.056-0.047-0.084-0.047-0.084
			c-0.036-0.07-0.042-0.084-0.042-0.084c-0.031-0.071-0.037-0.085-0.037-0.085c-0.027-0.071-0.032-0.085-0.032-0.085
			c-0.022-0.072-0.026-0.086-0.026-0.086c-0.017-0.072-0.02-0.087-0.02-0.087c-0.012-0.073-0.014-0.087-0.014-0.087
			c-0.007-0.073-0.008-0.088-0.008-0.088c-0.002-0.074-0.002-0.089-0.002-0.089c0.003-0.074,0.004-0.089,0.004-0.089
			c0.008-0.075,0.011-0.09,0.011-0.09c0.014-0.075,0.017-0.09,0.017-0.09c0.015-0.059,0.023-0.088,0.023-0.088
			c0.019-0.059,0.029-0.088,0.029-0.088c0.023-0.059,0.036-0.089,0.036-0.089c0.027-0.06,0.042-0.09,0.042-0.09
			c0.031-0.06,0.048-0.09,0.048-0.09c0.035-0.06,0.053-0.091,0.053-0.091c0.039-0.061,0.059-0.091,0.059-0.091
			c0.043-0.061,0.065-0.092,0.065-0.092c0.346-0.459,0.711-0.764,1.103-1.08c0.456-0.359,0.964-0.699,1.456-1.009
			c2.655-1.649,6.817-3.622,9.583-5.13c1.882-1.01,3.814-2.186,5.57-3.401c2.198-1.506,4.824-3.511,7.101-4.876
			c1.686-1.017,3.49-1.879,5.374-2.457c2.683-0.82,5.525-1.148,8.31-1.406c7.162-0.613,15.228-0.72,21.966-3.387
			c4.073-1.586,7.837-3.983,11.398-6.494l7.623-5.524c2.444-1.727,5.032-3.411,7.68-4.793c3.609-1.911,7.542-3.508,11.373-4.927
			c2.855-1.025,13.663-4.84,16.211-5.835c5.06-1.918,12.471-4.932,17.476-7.039c2.799-1.159,9.901-4.404,12.669-5.249
			c4.462-1.293,9.701-2.858,14.258-3.641c6.633-1.182,16.545-1.854,23.245-2.797c3.822-0.546,7.739-1.171,11.324-2.659
			c1.63-0.668,3.764-1.618,5.495-1.989C580.717,188.045,583.299,187.866,585.84,187.851z"/>
	</g>
	<g id="POLYLINE_272_">
		
			<path fill="none" stroke="#FB8604" stroke-width="2.75" stroke-linecap="round" stroke-linejoin="round" stroke-miterlimit="10" d="
			M585.84,187.851c1.013-0.85,1.994-1.84,2.903-2.802c2.54-2.733,5.352-6.005,8.269-8.308c0.573-0.441,1.218-0.919,1.88-1.192
			c0.076-0.029,0.113-0.042,0.113-0.042c0.072-0.024,0.09-0.029,0.09-0.029c0.07-0.019,0.087-0.024,0.087-0.024
			c0.067-0.015,0.083-0.018,0.083-0.018c0.064-0.01,0.079-0.012,0.079-0.012c0.076-0.006,0.09-0.007,0.09-0.007
			c0.071,0.001,0.084,0.002,0.084,0.002c0.066,0.009,0.078,0.011,0.078,0.011c0.072,0.021,0.084,0.025,0.084,0.025
			c0.075,0.038,0.085,0.045,0.085,0.045c0.075,0.064,0.084,0.074,0.084,0.074c0.049,0.066,0.057,0.078,0.057,0.078
			c0.034,0.065,0.041,0.079,0.041,0.079c0.028,0.074,0.033,0.09,0.033,0.09c0.018,0.066,0.023,0.083,0.023,0.083
			c0.015,0.071,0.018,0.09,0.018,0.09c0.011,0.077,0.013,0.097,0.013,0.097c0.049,0.559-0.037,1.029-0.121,1.555
			c-0.116,0.742-0.81,3.558-0.99,4.346c-0.23,1.017-0.436,2.085-0.536,3.122c-0.158,1.463-0.147,3.343-0.513,4.768
			c-0.151,0.619-0.42,1.3-0.727,1.84c-0.471,0.835-1.084,1.571-1.708,2.29c-0.89,1.017-1.971,2.129-2.79,3.201
			c-0.509,0.676-1.031,1.475-1.152,2.282c-0.007,0.056-0.011,0.083-0.011,0.083c-0.005,0.055-0.007,0.083-0.007,0.083
			c-0.003,0.055-0.004,0.082-0.004,0.082c-0.001,0.055-0.001,0.082-0.001,0.082c0.001,0.054,0.002,0.081,0.002,0.081
			c0.005,0.076,0.008,0.101,0.008,0.101c0.009,0.075,0.013,0.1,0.013,0.1c0.013,0.074,0.018,0.099,0.018,0.099
			c0.016,0.074,0.023,0.098,0.023,0.098c0.02,0.073,0.027,0.098,0.027,0.098c0.023,0.073,0.032,0.097,0.032,0.097
			c0.027,0.073,0.036,0.097,0.036,0.097c0.275,0.661,0.682,1.116,1.127,1.627c0.683,0.758,1.552,1.635,2.109,2.481
			c0.533,0.791,0.883,1.614,1.015,2.495c0.235,1.726-0.176,3.457-0.62,5.116c-0.465,1.715-1.357,4.122-1.803,5.842
			c-0.11,0.436-0.216,0.934-0.247,1.376c-0.01,0.143-0.009,0.245-0.008,0.317c0.003,0.066,0.004,0.098,0.004,0.098
			c0.005,0.063,0.008,0.094,0.008,0.094c0.007,0.061,0.012,0.09,0.012,0.09c0.01,0.058,0.016,0.086,0.016,0.086
			c0.013,0.055,0.02,0.082,0.02,0.082c0.015,0.052,0.024,0.078,0.024,0.078c0.028,0.073,0.038,0.097,0.038,0.097
			c0.034,0.067,0.046,0.089,0.046,0.089c0.045,0.069,0.056,0.085,0.056,0.085c0.062,0.072,0.075,0.086,0.075,0.086
			c0.071,0.063,0.086,0.074,0.086,0.074c0.063,0.043,0.08,0.054,0.08,0.054c0.069,0.037,0.087,0.046,0.087,0.046
			c0.074,0.031,0.093,0.039,0.093,0.039c0.059,0.02,0.08,0.026,0.08,0.026c0.062,0.016,0.084,0.021,0.084,0.021
			c0.065,0.013,0.088,0.016,0.088,0.016c0.068,0.009,0.092,0.012,0.092,0.012c0.071,0.006,0.095,0.008,0.095,0.008
			c0.074,0.003,0.099,0.003,0.099,0.003c0.631,0.002,1.208-0.185,1.745-0.371c0.613-0.223,1.217-0.507,1.794-0.813
			c1.997-1.08,3.877-2.438,5.435-4.094c1.197-1.278,2.178-2.771,2.826-4.4c1.309-3.325,1.415-7.081,0.484-10.517
			c-0.617-2.297-1.737-4.445-3.152-6.35c-1.532-2.063-3.402-3.892-5.482-5.4"/>
	</g>
	<g id="POLYLINE_271_">
		
			<path fill="none" stroke="#FB8604" stroke-width="2.75" stroke-linecap="round" stroke-linejoin="round" stroke-miterlimit="10" d="
			M598.263,186.708c1.507-0.486,3.04-1.033,4.378-1.892c0.94-0.589,1.762-1.354,2.509-2.169c1.012-1.076,2.13-2.579,3.304-3.451
			c0.195-0.14,0.363-0.237,0.508-0.31c0.067-0.032,0.1-0.048,0.1-0.048c0.066-0.029,0.098-0.042,0.098-0.042
			c0.065-0.025,0.097-0.037,0.097-0.037c0.063-0.022,0.095-0.032,0.095-0.032c0.062-0.018,0.093-0.027,0.093-0.027
			c0.06-0.015,0.09-0.021,0.09-0.021c0.073-0.013,0.088-0.016,0.088-0.016c0.071-0.009,0.085-0.01,0.085-0.01
			c0.069-0.004,0.082-0.005,0.082-0.005c0.066,0,0.079,0.001,0.079,0.001c0.075,0.007,0.088,0.008,0.088,0.008
			c0.071,0.014,0.083,0.016,0.083,0.016c0.077,0.024,0.088,0.028,0.088,0.028c0.075,0.036,0.08,0.039,0.08,0.039
			c0.076,0.053,0.08,0.057,0.08,0.057c0.071,0.073,0.077,0.08,0.077,0.08c0.049,0.072,0.053,0.08,0.053,0.08
			c0.036,0.074,0.04,0.083,0.04,0.083c0.026,0.073,0.029,0.082,0.029,0.082c0.016,0.059,0.021,0.079,0.021,0.079
			c0.013,0.063,0.016,0.085,0.016,0.085c0.009,0.067,0.012,0.09,0.012,0.09c0.006,0.071,0.008,0.096,0.008,0.096
			c0.019,0.599-0.095,1.075-0.213,1.626c-0.502,2.016-1.221,4.391-1.858,6.369c-0.553,1.645-1.147,3.326-1.973,4.856
			c-0.601,1.131-1.442,2.224-2.237,3.23"/>
	</g>
	<g id="POLYLINE_241_">
		
			<path fill="none" stroke="#FB8604" stroke-width="2.75" stroke-linecap="round" stroke-linejoin="round" stroke-miterlimit="10" d="
			M557.661,253.017c-0.068,2.526,0.06,5.096,0.729,7.543c0.513,1.918,1.299,3.767,2.239,5.512c1.04,1.924,2.285,3.751,3.708,5.413
			c1.812,2.111,3.943,3.986,6.375,5.35c3.273,1.849,7.301,2.826,10.905,3.855c2.225,0.654,4.519,1.342,6.467,2.633
			c2.272,1.499,4.055,3.838,6.139,5.565c0.777,0.65,1.62,1.242,2.506,1.734c0.995,0.551,2.067,1.001,3.133,1.395
			c3.605,1.333,7.822,2.208,11.399,3.617c1.427,0.573,2.944,1.332,3.971,2.48c1.31,1.408,1.899,3.345,2.548,5.112
			c0.558,1.534,1.262,3.042,2.178,4.397c0.875,1.297,1.981,2.501,3.319,3.321c1.081,0.664,2.181,0.992,3.382,1.148
			c1.503,0.187,3.038,0.066,4.52-0.232c1.712-0.348,3.386-0.94,4.931-1.756c1.319-0.692,2.561-1.574,3.737-2.484
			c1.395-1.121,3.471-2.652,4.747-3.889c0.979-0.938,1.863-1.997,2.521-3.187c0.784-1.416,1.26-2.991,1.561-4.577
			c0.444-2.386,0.506-4.852,0.344-7.269c-0.223-3.277-0.905-6.544-2.005-9.639c-1.067-3.02-2.531-5.921-4.199-8.651
			c-3.054-4.993-8.065-11.595-11.029-16.634c-2.055-3.405-3.734-7.093-5.123-10.817c-2.078-5.556-4.447-13.384-7.15-18.647
			c-3.167-6.507-8.288-13.872-12.263-19.958"/>
	</g>
	<g id="POLYLINE_240_">
		
			<path fill="none" stroke="#FB8604" stroke-width="2.75" stroke-linecap="round" stroke-linejoin="round" stroke-miterlimit="10" d="
			M250.516,326.056c-0.889,7.901-2.135,15.975-4.139,23.668c-2.29,8.905-5.9,17.657-11.739,24.841
			c-1.929,2.37-4.117,4.552-6.536,6.421c-1.05,0.815-2.202,1.589-3.328,2.301c-0.97,0.655-2.002,1.368-2.913,2.097
			c-3.524,2.768-6.571,6.161-8.878,10.006c-1.265,2.068-2.307,4.415-3.233,6.659c-4.598,11.1-7.542,23.187-10.932,34.694
			c-1.737,5.718-3.751,11.702-5.957,17.242c-1.216,3.098-2.733,6.359-3.967,9.448c-1.033,2.613-2.049,5.371-2.776,8.082
			c-0.419,1.584-0.782,3.221-0.91,4.857c-0.068,1.02-0.04,2.077-0.135,3.097c-0.153,1.987-0.496,3.98-0.982,5.913
			c-0.253,1.009-0.562,2.052-0.891,3.038c-0.375,1.062-0.736,2.154-0.958,3.26c-1.525,7.531-0.044,15.56,0.93,23.08
			c0.651,4.398,1.418,9.134,2.385,13.472c0.791,3.426,1.777,6.887,3.281,10.074c0.331,0.695,0.727,1.416,1.05,2.116
			c0.423,0.908,0.803,1.871,1.095,2.829c0.322,1.056,0.551,2.162,0.627,3.266c0.05,0.602,0.017,1.216-0.001,1.819
			c-0.039,2.556,0.733,5.073,1.924,7.317c1.187,2.234,2.684,4.343,4.21,6.355c2.856,3.797,10.551,12.475,13.485,16.255
			c0.834,1.118,1.625,2.314,2.196,3.59c0.098,0.216,0.198,0.472,0.279,0.697c0,0,0.039,0.112,0.039,0.112s0.037,0.112,0.037,0.112
			s0.035,0.11,0.035,0.11s0.033,0.109,0.033,0.109s0.031,0.108,0.031,0.108s0.029,0.107,0.029,0.107l0.026,0.106
			c0.056,0.231,0.106,0.517,0.126,0.716c0.005,0.049,0.01,0.098,0.01,0.098c0.004,0.049,0.007,0.097,0.007,0.097
			c0.003,0.048,0.005,0.096,0.005,0.096c0.002,0.048,0.003,0.095,0.003,0.095c0.001,0.047,0.001,0.094,0.001,0.094
			s-0.001,0.093-0.001,0.093s-0.002,0.091-0.002,0.091s-0.003,0.09-0.003,0.09l-0.004,0.088l-0.005,0.087
			c0,0-0.006,0.086-0.006,0.086s-0.007,0.084-0.007,0.084s-0.008,0.083-0.008,0.083c-0.032,0.339-0.123,0.71-0.226,0.972
			c-0.025,0.061-0.038,0.092-0.038,0.092c-0.027,0.059-0.04,0.088-0.04,0.088c-0.028,0.057-0.043,0.085-0.043,0.085
			c-0.03,0.055-0.046,0.082-0.046,0.082c-0.032,0.053-0.048,0.078-0.048,0.078c-0.051,0.075-0.068,0.099-0.068,0.099
			c-0.054,0.071-0.073,0.094-0.073,0.094c-0.057,0.066-0.077,0.088-0.077,0.088c-0.061,0.062-0.082,0.082-0.082,0.082
			c-0.064,0.058-0.086,0.076-0.086,0.076c-0.068,0.053-0.091,0.07-0.091,0.07c-0.071,0.049-0.095,0.064-0.095,0.064
			c-0.074,0.044-0.1,0.059-0.1,0.059c-0.052,0.027-0.078,0.04-0.078,0.04c-0.053,0.025-0.08,0.037-0.08,0.037
			c-0.055,0.023-0.083,0.033-0.083,0.033c-0.057,0.02-0.085,0.03-0.085,0.03c-0.058,0.018-0.088,0.027-0.088,0.027
			c-0.06,0.016-0.091,0.024-0.091,0.024c-0.062,0.014-0.093,0.02-0.093,0.02c-0.063,0.012-0.096,0.017-0.096,0.017
			c-0.065,0.01-0.098,0.014-0.098,0.014c-5.167,0.048-14.985,0.031-20.19,0.004c-1.012-0.033-2.059-0.108-3.06-0.269
			c-1.115-0.186-2.319-0.477-3.257-1.112c-0.075-0.053-0.112-0.08-0.112-0.08c-0.072-0.055-0.107-0.083-0.107-0.083
			c-0.068-0.056-0.101-0.085-0.101-0.085c-0.064-0.058-0.096-0.087-0.096-0.087c-0.061-0.059-0.09-0.089-0.09-0.089
			c-0.057-0.061-0.085-0.092-0.085-0.092c-1.033-1.275-1.793-2.73-2.404-4.245c-0.423-1.064-0.8-2.178-0.876-3.327
			c-0.042-0.576,0.005-1.185,0.135-1.684c0.117-0.558,0.555-1.305,0.77-1.758c0.394-0.769,0.85-1.598,1.299-2.334
			c0.032-0.062,0.042-0.083,0.042-0.083c0.029-0.064,0.039-0.086,0.039-0.086c0.027-0.067,0.035-0.089,0.035-0.089
			c0.024-0.069,0.032-0.093,0.032-0.093c0.022-0.072,0.028-0.096,0.028-0.096c0.019-0.074,0.025-0.099,0.025-0.099
			c0.016-0.077,0.021-0.103,0.021-0.103c0.009-0.053,0.014-0.079,0.014-0.079c0.011-0.072,0.022-0.17,0.024-0.192
			c0.005-0.057,0.009-0.114,0.009-0.114c0.003-0.058,0.005-0.118,0.005-0.118c0.001-0.06,0.002-0.121,0.002-0.121
			c0-0.062-0.002-0.125-0.002-0.125c-0.002-0.063-0.005-0.128-0.005-0.128c-0.004-0.065-0.009-0.131-0.009-0.131
			c-0.006-0.067-0.012-0.135-0.012-0.135c-0.073-0.668-0.215-1.184-0.398-1.789c-0.343-1.153-0.931-2.309-1.7-3.228
			c-0.536-0.659-1.064-1.123-1.672-1.598c-0.54-0.409-1.147-0.768-1.695-1.168c-1.072-0.774-2.079-1.655-3.01-2.593
			c-0.88-0.914-1.796-1.861-2.483-2.931c-0.52-0.822-0.913-1.726-1.177-2.661c-0.274-0.969-0.416-1.977-0.458-2.982
			c-0.023-0.575-0.015-1.161,0.02-1.734c0.153-2.523,0.483-7.123,0.689-9.614c0.046-0.631,0.068-1.293,0.071-1.925
			c0.004-3.182-0.43-6.395-0.998-9.521c-0.806-4.454-2.083-9.559-3.229-13.967c-2.164-8.025-4.521-18.643-6.64-26.619
			c-1.099-4.016-2.47-8.103-3.947-11.986c-1.078-3.03-2.056-6.17-2.672-9.33c-0.295-1.47-0.475-2.973-0.41-4.474
			c0.06-1.778,0.378-3.562,0.849-5.276c0.477-1.833,1.655-4.69,2.328-6.508c1.278-3.441,2.935-8.199,4.098-11.686
			c1.22-3.677,2.22-7.498,2.703-11.345c0.551-4.404,0.321-8.909-0.564-13.255c-1.277-6.298-4.264-12.159-7.227-17.812
			c-4.676-8.454-9.268-17.295-13.222-26.112c-3.657-8.43-5.874-17.51-7.389-26.552c-1.053-6.57-2.098-13.631-2.416-20.278
			c-0.448-8.001,0.917-16.053,3.427-23.641c1.847-5.57,4.424-10.973,7.433-16.007c1.718-2.832,3.586-5.743,5.651-8.338
			c1.43-1.776,2.974-3.531,4.841-4.861c1.209-0.843,2.583-1.465,3.919-2.075c3.164-1.403,6.628-2.607,9.902-3.729
			c10.98-3.6,23.183-7.233,34.407-9.964c3.557-0.869,7.454-1.689,11.11-1.977c3.291-0.286,6.657-0.285,9.945,0.042
			c2.455,0.201,5.233,0.791,7.651,1.29c7.468,1.571,15.79,3.814,23.154,5.916c12.975,3.723,32.18,8.657,45.364,11.869
			c5.517,1.297,11.933,2.654,17.522,3.555c3.584,0.579,7.452,1.069,11.083,1.235c7.689,0.254,15.497-0.464,22.937-2.458
			c3.029-0.841,6.05-2.013,8.952-3.205c5.813-2.416,12.05-5.373,17.7-8.131"/>
	</g>
	<g id="POLYLINE_239_">
		
			<path fill="none" stroke="#FB8604" stroke-width="2.75" stroke-linecap="round" stroke-linejoin="round" stroke-miterlimit="10" d="
			M457.228,411.95c9.403-4.191,17.808-10.907,23.375-19.621c3.659-5.688,6.031-12.184,7.217-18.829
			c1.483-8.077,1.435-18.216,2.274-26.39c0.194-1.77,0.448-3.611,0.869-5.342c0.388-1.598,0.965-3.166,1.782-4.597
			c0.872-1.548,2.027-2.941,3.218-4.253c7.3-7.772,15.174-16.446,21.91-24.671c5.33-6.35,19.466-25.019,24.768-31.799
			c0.453-0.563,0.961-1.185,1.45-1.714c0.936-1.029,2.019-1.944,3.257-2.588c1.697-0.887,3.583-1.382,5.452-1.754
			c3.376-0.638,6.866-0.815,10.286-0.472"/>
	</g>
	<g id="POLYLINE_237_">
		
			<path fill="none" stroke="#FB8604" stroke-width="2.75" stroke-linecap="round" stroke-linejoin="round" stroke-miterlimit="10" d="
			M642.978,287.177c-0.91-0.224-1.983-0.595-2.905-0.442c-0.059,0.01-0.088,0.016-0.088,0.016c-0.058,0.013-0.087,0.019-0.087,0.019
			c-0.058,0.015-0.086,0.023-0.086,0.023c-0.057,0.017-0.085,0.026-0.085,0.026c-0.056,0.02-0.084,0.03-0.084,0.03
			c-0.055,0.022-0.083,0.034-0.083,0.034c-0.055,0.025-0.082,0.038-0.082,0.038c-0.054,0.028-0.081,0.042-0.081,0.042
			c-0.053,0.03-0.079,0.046-0.079,0.046c-0.052,0.033-0.078,0.051-0.078,0.051c-0.077,0.055-0.102,0.075-0.102,0.075
			c-0.076,0.062-0.095,0.079-0.095,0.079c-0.074,0.068-0.092,0.086-0.092,0.086c-0.072,0.074-0.09,0.093-0.09,0.093
			c-0.053,0.059-0.07,0.079-0.07,0.079c-0.051,0.062-0.068,0.084-0.068,0.084c-0.538,0.711-0.782,1.488-0.976,2.298
			c-0.197,0.879-0.278,1.79-0.266,2.69c0.019,1.283,0.237,2.656,0.752,3.819c0.582,1.329,1.671,2.625,3.004,3.156
			c0.077,0.029,0.115,0.043,0.115,0.043c0.077,0.026,0.115,0.038,0.115,0.038c0.076,0.023,0.114,0.033,0.114,0.033
			c0.076,0.019,0.113,0.028,0.113,0.028c0.075,0.016,0.112,0.023,0.112,0.023c0.074,0.012,0.111,0.018,0.111,0.018
			c0.073,0.009,0.11,0.012,0.11,0.012c0.072,0.005,0.108,0.007,0.108,0.007c0.071,0.002,0.107,0.002,0.107,0.002
			c0.07-0.002,0.088-0.003,0.088-0.003c0.069-0.005,0.087-0.006,0.087-0.006c0.068-0.008,0.085-0.01,0.085-0.01
			c0.069-0.011,0.095-0.016,0.095-0.016c0.077-0.017,0.102-0.023,0.102-0.023c0.075-0.021,0.1-0.029,0.1-0.029
			c0.073-0.025,0.098-0.034,0.098-0.034c0.072-0.029,0.096-0.039,0.096-0.039c0.07-0.033,0.093-0.045,0.093-0.045
			c0.069-0.037,0.091-0.049,0.091-0.049c0.067-0.04,0.089-0.054,0.089-0.054c0.066-0.044,0.087-0.059,0.087-0.059
			c0.064-0.047,0.085-0.063,0.085-0.063c0.062-0.05,0.083-0.067,0.083-0.067c0.061-0.053,0.081-0.071,0.081-0.071
			c0.059-0.056,0.079-0.075,0.079-0.075c0.634-0.654,0.951-1.406,1.218-2.22c0.393-1.232,0.464-2.659,0.166-3.878"/>
	</g>
	<g id="POLYLINE_236_">
		
			<path fill="none" stroke="#FB8604" stroke-width="2.75" stroke-linecap="round" stroke-linejoin="round" stroke-miterlimit="10" d="
			M420.65,574.577c8.155-0.008,16.362-1.258,24.066-3.962"/>
	</g>
	<g id="POLYLINE_235_">
		
			<path fill="none" stroke="#FB8604" stroke-width="2.75" stroke-linecap="round" stroke-linejoin="round" stroke-miterlimit="10" d="
			M228.407,380.747c4.963-0.243,10.042-0.133,14.858,1.201c2.491,0.677,4.917,1.696,7.23,2.835
			c4.444,2.178,11.175,6.364,15.512,8.885c6.748,3.887,13.897,7.372,21.207,10.059c7.345,2.728,15.043,4.717,22.738,6.174
			c12.339,2.35,25.769,3.752,38.296,4.876c19.703,1.583,44.652,3.63,64.359,4.252"/>
	</g>
	<g id="POLYLINE_234_">
		
			<path fill="none" stroke="#FB8604" stroke-width="2.75" stroke-linecap="round" stroke-linejoin="round" stroke-miterlimit="10" d="
			M395.847,353.827c-0.405,5.44-0.646,11.036-0.355,16.474c0.195,3.464,0.579,6.969,1.465,10.327c0.266,1,0.589,2.009,0.97,2.97
			c2.442,5.552,7.399,15.958,10.013,21.474c0.542,1.14,1.11,2.405,1.584,3.573c1.807,4.438,3.101,9.138,3.587,13.911
			c0.214,1.971,0.239,4.097,0.209,6.083c-0.011,3.26,0.143,7.233,0.323,10.511c0.18,3.1,0.513,7.322,0.805,10.414
			c0.549,5.366,1.144,10.979,1.129,16.364c-0.009,2.859-0.149,5.769-0.674,8.584c-0.141,0.787-0.363,1.576-0.532,2.356
			c-0.213,0.993-0.369,2.015-0.463,3.027c-0.217,2.331-0.106,4.709,0.267,7.019c0.189,1.165,0.459,2.383,0.771,3.521
			c0.398,1.368,0.831,2.792,1.116,4.189c0.738,3.469,1.01,7.057,0.961,10.6c-0.021,1.496-0.105,3.077-0.232,4.567
			c-0.483,5.23-1.259,12.138-1.909,17.355c-0.567,4.554-1.437,10.01-1.526,14.572c-0.031,1.448-0.006,2.948,0.16,4.388
			c0.112,0.954,0.291,1.936,0.613,2.84c0.728,2.034,1.778,3.979,3.199,5.615c0.597,0.708,1.314,1.33,1.997,1.952
			c0.62,0.586,1.212,1.233,1.727,1.913c0.719,0.95,1.314,2.007,1.699,3.136c0.575,1.601,0.454,3.379-0.087,4.972
			c-0.181,0.547-0.409,1.087-0.664,1.603c-0.292,0.571-0.61,1.149-0.848,1.746c-0.578,1.404-0.887,2.972-0.555,4.475
			c0.201,0.899,0.627,1.737,1.043,2.554c0.796,1.509,1.804,2.916,2.901,4.22c1.072,1.217,3.182,3.805,4.318,4.976
			c0.786,0.74,1.742,1.104,2.727,1.282c0.367,0.063,0.745,0.1,1.116,0.114c4.554-0.006,13.368,0.018,17.917,0.007
			c0.692,0.006,1.407-0.088,1.993-0.341c0.076-0.035,0.101-0.047,0.101-0.047c0.073-0.037,0.097-0.05,0.097-0.05
			c0.07-0.039,0.093-0.053,0.093-0.053c0.067-0.042,0.089-0.056,0.089-0.056c0.064-0.044,0.085-0.059,0.085-0.059
			c0.061-0.046,0.081-0.062,0.081-0.062c0.077-0.065,0.096-0.082,0.096-0.082c0.072-0.069,0.09-0.087,0.09-0.087
			c0.067-0.073,0.083-0.091,0.083-0.091c0.062-0.077,0.077-0.096,0.077-0.096c0.043-0.06,0.057-0.08,0.057-0.08
			c0.04-0.062,0.053-0.083,0.053-0.083c0.037-0.065,0.049-0.086,0.049-0.086c0.034-0.067,0.045-0.089,0.045-0.089
			c0.031-0.069,0.041-0.092,0.041-0.092c0.028-0.071,0.037-0.096,0.037-0.096c0.025-0.073,0.033-0.098,0.033-0.098
			c0.021-0.075,0.028-0.101,0.028-0.101c0.018-0.077,0.023-0.103,0.023-0.103c0.009-0.053,0.014-0.079,0.014-0.079
			c0.008-0.054,0.011-0.081,0.011-0.081c0.006-0.055,0.008-0.082,0.008-0.082c0.057-1.059-0.43-1.995-0.913-2.842
			c-1.392-2.176-3.755-5.217-5.286-7.31c-1.029-1.397-1.996-2.887-2.851-4.397c-0.812-1.45-1.553-2.993-2.445-4.398
			c-0.828-1.334-1.804-2.766-2.735-4.039c-0.792-1.055-1.644-2.191-2.335-3.301c-1.314-2.095-2.363-4.381-2.981-6.779
			c-0.535-2.083-0.91-4.235-0.966-6.388c-0.026-0.786,0.015-1.591,0.066-2.375c0.033-0.696,0.033-1.416,0.001-2.111
			c-0.067-1.45-0.276-2.905-0.598-4.32c-0.129-0.568-0.293-1.16-0.412-1.73c-0.227-1.038-0.394-2.152-0.512-3.21
			c-0.377-3.289-0.193-7.031-0.142-10.346c0.193-4.812,0.18-10.743,1.181-15.431c0.579-2.755,1.607-5.592,2.661-8.201
			c0.528-1.289,1.179-2.57,1.611-3.898c0.933-2.777,1.5-5.716,1.957-8.605c0.887-5.694,1.582-12.227,2.168-17.965
			c0.8-6.8,2.425-13.736,4.142-20.364c2.159-8.004,4.553-16.418,7.468-24.18c0.905-2.392,2.039-4.87,2.901-7.279
			c1.301-3.57,2.386-7.333,3.241-11.035c1.481-6.375,2.371-13.015,1.626-19.552"/>
	</g>
	<g id="POLYLINE_232_">
		
			<path fill="none" stroke="#FB8604" stroke-width="2.75" stroke-linecap="round" stroke-linejoin="round" stroke-miterlimit="10" d="
			M154.944,270.717c-0.301,0.03-1.974,0.146-2.312,0.171c-1.242,0.101-2.498,0.316-3.639,0.837c-1.273,0.567-2.359,1.48-3.321,2.474
			c-1.4,1.452-2.613,3.123-3.73,4.8c-1.706,2.576-3.314,5.47-4.76,8.204c-3.178,6.217-6.492,12.728-8.788,19.329
			c-1.905,5.489-2.993,11.304-3.227,17.109c-0.161,3.675-0.029,7.542,0.204,11.215c0.681,11.368,3.843,31.802,5.039,43.24
			c1.895,16.773,1.889,34.123,1.094,50.975c-0.611,12.122-2.332,36.005-2.261,47.809c0.02,4.854,0.212,9.883,0.801,14.699
			c0.426,3.511,1.104,7.076,2.085,10.475c1.184,4.162,2.849,8.291,4.63,12.233c1.791,3.719,7.141,15.625,9.048,19.03
			c0.446,0.78,0.981,1.68,1.578,2.322c0.071,0.073,0.094,0.097,0.094,0.097c0.07,0.067,0.093,0.088,0.093,0.088
			c0.069,0.061,0.091,0.08,0.091,0.08c0.067,0.054,0.09,0.071,0.09,0.071c0.066,0.048,0.088,0.062,0.088,0.062
			c0.065,0.041,0.086,0.054,0.086,0.054c0.064,0.034,0.085,0.044,0.085,0.044c0.062,0.027,0.083,0.035,0.083,0.035
			c0.061,0.02,0.081,0.026,0.081,0.026c0.06,0.013,0.079,0.016,0.079,0.016c0.058,0.006,0.078,0.006,0.078,0.006
			c0.076-0.004,0.095-0.006,0.095-0.006c0.07-0.016,0.086-0.02,0.086-0.02c0.074-0.03,0.089-0.037,0.089-0.037
			c0.072-0.042,0.086-0.052,0.086-0.052c0.07-0.055,0.084-0.067,0.084-0.067c0.068-0.067,0.081-0.081,0.081-0.081
			c0.053-0.062,0.066-0.078,0.066-0.078c0.052-0.069,0.065-0.088,0.065-0.088c0.051-0.077,0.063-0.097,0.063-0.097
			c0.411-0.712,0.586-1.429,0.812-2.193c0.627-2.314,1.227-5.073,2.303-7.211c0.838-1.695,2.014-3.213,3.275-4.613l3.044-3.282
			c3.672-3.952,5.469-9.195,6.99-14.271"/>
	</g>
	<g id="POLYLINE_12_">
		
			<path fill="none" stroke="#FB8604" stroke-width="2.75" stroke-linecap="round" stroke-linejoin="round" stroke-miterlimit="10" d="
			M181.899,576.357c7.737-0.934,15.354-3.067,22.418-6.365"/>
	</g>
</g>
<g id="AG-OUTLINE">
	<g id="POLYLINE_55_">
		
			<path fill="none" stroke="#FB8604" stroke-width="3.5" stroke-linecap="round" stroke-linejoin="round" stroke-miterlimit="10" d="
			M412.607,419.03c0.596,3.147,0.787,6.407,0.712,9.608c-0.003,6.833,0.493,14.114,1.128,20.924c0.41,4.063,0.89,8.495,1.048,12.554
			c0.149,4.035,0.151,8.155-0.546,12.14c-0.173,1.03-0.476,2.046-0.674,3.071c-0.524,2.66-0.604,5.41-0.303,8.103
			c0.167,1.5,0.46,3.035,0.838,4.495c0.477,1.741,1.033,3.457,1.363,5.243c0.906,4.579,1.021,9.308,0.671,13.954
			c-0.478,5.491-1.287,12.544-1.963,18.023c-0.389,3.217-1.106,7.959-1.341,11.141c-0.195,2.585-0.313,5.239-0.024,7.819
			c0.089,0.759,0.221,1.528,0.429,2.264c0.299,1.004,0.719,1.972,1.187,2.906c0.714,1.4,1.623,2.719,2.714,3.852
			c0.571,0.604,1.245,1.135,1.829,1.726c0.721,0.722,1.39,1.521,1.941,2.381c0.657,1.038,1.191,2.181,1.414,3.395
			c0.298,1.671-0.084,3.392-0.759,4.927c-0.394,0.899-0.927,1.746-1.254,2.675c-0.434,1.167-0.672,2.435-0.499,3.677
			c0.099,0.8,0.418,1.554,0.759,2.277c0.776,1.644,1.811,3.169,2.957,4.576c1.206,1.413,3.268,3.886,4.523,5.248
			c0.774,0.776,1.751,1.176,2.749,1.366c0.423,0.078,0.858,0.12,1.288,0.131c0.08-0.006,0.197,0.01,0.277,0.004c0,0,8.968,0,8.968,0
			h8.581c0.095-0.007,0.221,0.003,0.317-0.006c0.633-0.02,1.159-0.12,1.675-0.335c0.076-0.035,0.101-0.047,0.101-0.047
			c0.073-0.037,0.097-0.05,0.097-0.05c0.07-0.039,0.093-0.053,0.093-0.053c0.067-0.042,0.089-0.056,0.089-0.056
			c0.064-0.044,0.085-0.059,0.085-0.059c0.061-0.046,0.081-0.062,0.081-0.062c0.077-0.065,0.096-0.082,0.096-0.082
			c0.072-0.069,0.09-0.087,0.09-0.087c0.067-0.073,0.083-0.091,0.083-0.091c0.062-0.077,0.077-0.096,0.077-0.096
			c0.043-0.06,0.057-0.08,0.057-0.08c0.04-0.062,0.053-0.083,0.053-0.083c0.037-0.065,0.049-0.086,0.049-0.086
			c0.034-0.067,0.045-0.089,0.045-0.089c0.031-0.069,0.041-0.092,0.041-0.092c0.028-0.071,0.037-0.096,0.037-0.096
			c0.025-0.073,0.033-0.098,0.033-0.098c0.021-0.075,0.028-0.101,0.028-0.101c0.018-0.077,0.023-0.103,0.023-0.103
			c0.009-0.053,0.014-0.079,0.014-0.079c0.008-0.054,0.011-0.081,0.011-0.081c0.006-0.055,0.008-0.082,0.008-0.082
			c0.058-0.987-0.381-1.887-0.819-2.68c-0.157-0.276-0.345-0.573-0.522-0.836c-1.161-1.655-3.355-4.631-4.574-6.254
			c-1.187-1.576-2.313-3.303-3.275-5.026c-0.753-1.374-1.466-2.826-2.306-4.151c-0.828-1.338-1.804-2.764-2.735-4.039
			c-0.787-1.054-1.647-2.191-2.335-3.301c-1.156-1.843-2.109-3.836-2.74-5.921c-0.66-2.27-1.104-4.635-1.2-7
			c-0.059-1.114,0.054-2.213,0.081-3.321c0.023-1.428-0.094-2.869-0.332-4.276c-0.242-1.505-0.715-2.975-0.949-4.482
			c-0.534-3.012-0.525-6.299-0.466-9.358c0.018-1.905,0.213-7.449,0.28-9.427c0.137-3.169,0.401-6.401,1.09-9.502
			c0.26-1.208,0.695-2.524,1.076-3.7c0.676-2.013,1.48-4.07,2.37-5.996c1.087-2.511,1.711-5.23,2.227-7.909
			c1.094-6.138,1.826-13.014,2.463-19.226c0.369-3.719,1.044-7.571,1.804-11.229c1.222-5.858,2.93-12.251,4.579-18.008
			c1.439-4.953,3.128-10.508,4.909-15.348c0.752-2.083,1.709-4.316,2.547-6.367c0.773-1.949,1.525-4.101,2.148-6.104
			c9.403-4.191,17.808-10.907,23.375-19.621c3.659-5.688,6.031-12.184,7.217-18.829c1.483-8.077,1.435-18.216,2.274-26.39
			c0.194-1.77,0.448-3.611,0.869-5.342c0.388-1.598,0.965-3.166,1.782-4.597c0.872-1.548,2.027-2.941,3.218-4.253
			c7.3-7.772,15.174-16.446,21.91-24.671c5.33-6.35,19.466-25.019,24.768-31.799c0.453-0.563,0.961-1.185,1.45-1.714
			c0.936-1.029,2.019-1.944,3.257-2.588c1.697-0.887,3.583-1.382,5.452-1.754c3.376-0.638,6.866-0.815,10.286-0.472
			c1.628,2.177,3.553,4.161,5.772,5.739c1.408,1.007,2.965,1.82,4.568,2.469c2.818,1.161,6.335,1.997,9.265,2.879
			c1.4,0.429,2.814,0.91,4.12,1.573c0.931,0.47,1.802,1.068,2.598,1.741c1.353,1.138,2.785,2.745,4.094,3.937
			c1.471,1.364,3.13,2.446,4.984,3.214c4.28,1.822,9.242,2.632,13.513,4.474c0.765,0.343,1.547,0.751,2.218,1.251
			c0.753,0.566,1.308,1.179,1.793,1.93c0.881,1.365,1.377,3.096,1.96,4.603c0.653,1.694,1.5,3.339,2.627,4.768
			c0.916,1.171,2.13,2.253,3.471,2.872c1.325,0.612,2.655,0.802,4.077,0.811c1.524-0.004,3.047-0.263,4.51-0.685
			c1.273-0.369,2.521-0.879,3.684-1.516c1.232-0.669,2.4-1.504,3.508-2.361c1.653-1.328,3.86-2.919,5.31-4.453
			c0.86-0.901,1.616-1.916,2.175-3.031c0.809-1.616,1.256-3.397,1.51-5.18c0.308-2.209,0.323-4.477,0.145-6.698
			c-0.277-3.474-1.077-6.923-2.331-10.173c-1.372-3.604-3.329-7.003-5.453-10.214c-2.761-4.099-7.383-10.561-9.829-14.801
			c-1.605-2.744-2.983-5.686-4.143-8.644c-2.316-5.834-4.611-13.868-7.406-19.481c-3.227-6.788-8.448-14.278-12.573-20.592
			c-0.181-3.133-1.261-6.187-2.99-8.798c0.796-1.008,1.635-2.097,2.237-3.23c0.826-1.529,1.42-3.211,1.973-4.856
			c0.622-1.92,1.322-4.259,1.822-6.215c0.119-0.501,0.246-1.11,0.253-1.6c0-0.053,0-0.079,0-0.079
			c-0.002-0.076-0.004-0.101-0.004-0.101c-0.005-0.072-0.008-0.096-0.008-0.096c-0.009-0.068-0.012-0.09-0.012-0.09
			c-0.012-0.064-0.016-0.085-0.016-0.085c-0.018-0.07-0.021-0.079-0.021-0.079c-0.026-0.074-0.029-0.082-0.029-0.082
			c-0.036-0.075-0.04-0.083-0.04-0.083c-0.048-0.073-0.053-0.08-0.053-0.08c-0.073-0.076-0.077-0.08-0.077-0.08
			c-0.076-0.054-0.08-0.057-0.08-0.057c-0.075-0.037-0.08-0.039-0.08-0.039c-0.076-0.025-0.088-0.028-0.088-0.028
			c-0.07-0.014-0.083-0.016-0.083-0.016c-0.075-0.008-0.088-0.008-0.088-0.008c-0.065-0.001-0.079-0.001-0.079-0.001
			c-0.068,0.003-0.082,0.005-0.082,0.005c-0.071,0.008-0.085,0.01-0.085,0.01c-0.073,0.013-0.088,0.016-0.088,0.016
			c-0.06,0.014-0.09,0.021-0.09,0.021c-0.062,0.017-0.093,0.027-0.093,0.027c-0.063,0.021-0.095,0.032-0.095,0.032
			c-0.064,0.024-0.097,0.037-0.097,0.037c-0.065,0.028-0.098,0.042-0.098,0.042c-0.066,0.031-0.1,0.048-0.1,0.048
			c-0.668,0.346-1.13,0.814-1.605,1.296c-0.469,0.485-1.438,1.606-1.899,2.127c-0.771,0.861-1.6,1.7-2.566,2.342
			c-1.399,0.953-3.028,1.541-4.63,2.057c0.065-1.001,0.153-2.102,0.33-3.085c0.177-1.093,0.836-3.737,1.093-4.852
			c0.173-0.82,0.388-1.722,0.36-2.555c-0.004-0.064-0.006-0.084-0.006-0.084c-0.006-0.06-0.009-0.08-0.009-0.08
			c-0.012-0.076-0.015-0.094-0.015-0.094c-0.015-0.07-0.02-0.087-0.02-0.087c-0.019-0.065-0.025-0.08-0.025-0.08
			c-0.029-0.073-0.036-0.086-0.036-0.086c-0.043-0.075-0.051-0.087-0.051-0.087c-0.061-0.071-0.071-0.08-0.071-0.08
			c-0.067-0.049-0.078-0.055-0.078-0.055c-0.066-0.03-0.078-0.034-0.078-0.034c-0.073-0.019-0.086-0.021-0.086-0.021
			c-0.067-0.008-0.08-0.008-0.08-0.008c-0.072,0-0.086,0.001-0.086,0.001c-0.076,0.007-0.092,0.009-0.092,0.009
			c-0.064,0.011-0.081,0.014-0.081,0.014c-0.067,0.016-0.085,0.02-0.085,0.02c-0.07,0.02-0.088,0.026-0.088,0.026
			c-0.055,0.018-0.092,0.031-0.092,0.031c-0.749,0.297-1.33,0.747-1.956,1.221c-2.911,2.296-5.738,5.583-8.269,8.308
			c-0.909,0.962-1.889,1.951-2.903,2.802c-2.541,0.015-5.122,0.194-7.603,0.767c-1.74,0.374-3.833,1.31-5.495,1.989
			c-3.585,1.488-7.501,2.113-11.324,2.659c-6.711,0.945-16.603,1.615-23.245,2.797c-4.549,0.781-9.807,2.35-14.258,3.641
			c-2.759,0.838-9.925,4.117-12.669,5.249c-4.998,2.106-12.413,5.12-17.475,7.039c-2.649,1.025-13.391,4.828-16.211,5.835
			c-3.826,1.419-7.764,3.016-11.373,4.927c-2.644,1.38-5.247,3.07-7.68,4.793l-7.623,5.524c-3.562,2.512-7.324,4.907-11.398,6.494
			c-6.727,2.665-14.82,2.776-21.966,3.387c-2.786,0.259-5.627,0.586-8.31,1.406c-1.885,0.578-3.688,1.44-5.374,2.457
			c-2.272,1.362-4.906,3.372-7.101,4.876c-1.756,1.214-3.689,2.391-5.57,3.401c-2.771,1.511-6.917,3.474-9.583,5.13
			c-0.898,0.573-1.927,1.255-2.559,2.088c-0.044,0.061-0.065,0.092-0.065,0.092c-0.04,0.061-0.059,0.091-0.059,0.091
			c-0.036,0.061-0.053,0.091-0.053,0.091c-0.032,0.06-0.048,0.09-0.048,0.09c-0.028,0.06-0.042,0.09-0.042,0.09
			c-0.024,0.059-0.036,0.089-0.036,0.089c-0.02,0.059-0.029,0.088-0.029,0.088c-0.016,0.059-0.023,0.088-0.023,0.088
			c-6.172,2.986-12.892,6.219-19.237,8.756c-2.072,0.808-4.273,1.661-6.394,2.289c-2.189,0.644-4.473,1.155-6.717,1.564
			c-5.653,1.012-11.502,1.379-17.241,1.185c-5.172-0.237-10.492-1.087-15.585-2.018c-15.245-2.904-35.231-8.385-50.3-12.366
			c-6.7-1.864-15.352-4.393-22.067-6.061c-3.728-0.93-8.21-1.96-11.978-2.704c-1.57-0.309-3.252-0.557-4.845-0.715
			c-4.017-0.398-8.116-0.314-12.12,0.19c-1.944,0.245-3.966,0.603-5.878,1.034c-4.19,0.947-9.161,2.226-13.306,3.364
			c-10.277,2.953-21.809,6.187-31.756,10.073c-1.541,0.632-3.311,1.365-4.784,2.169c-0.432,0.238-0.896,0.501-1.305,0.781
			c0,0-0.134,0.092-0.134,0.092c-0.076,0.054-0.544,0.093-0.544,0.093s-1.844,0.131-1.844,0.131
			c-1.242,0.101-2.498,0.316-3.639,0.837c-1.273,0.567-2.359,1.48-3.321,2.474c-1.4,1.452-2.613,3.123-3.73,4.8
			c-1.706,2.576-3.314,5.47-4.76,8.204c-3.178,6.217-6.492,12.728-8.788,19.329c-1.905,5.489-2.993,11.304-3.227,17.109
			c-0.161,3.675-0.029,7.542,0.204,11.215c0.681,11.368,3.843,31.802,5.039,43.24c1.895,16.773,1.889,34.123,1.094,50.975
			c-0.611,12.122-2.332,36.005-2.261,47.809c0.02,4.854,0.212,9.883,0.801,14.699c0.426,3.511,1.104,7.076,2.085,10.475
			c1.184,4.162,2.849,8.291,4.63,12.233c1.791,3.719,7.141,15.625,9.048,19.03c0.446,0.78,0.981,1.68,1.578,2.322
			c0.071,0.073,0.094,0.097,0.094,0.097c0.07,0.067,0.093,0.088,0.093,0.088c0.069,0.061,0.091,0.08,0.091,0.08
			c0.067,0.054,0.09,0.071,0.09,0.071c0.066,0.048,0.088,0.062,0.088,0.062c0.065,0.041,0.086,0.054,0.086,0.054
			c0.064,0.034,0.085,0.044,0.085,0.044c0.062,0.027,0.083,0.035,0.083,0.035c0.061,0.02,0.081,0.026,0.081,0.026
			c0.06,0.013,0.079,0.016,0.079,0.016c0.058,0.006,0.078,0.006,0.078,0.006c0.076-0.004,0.095-0.006,0.095-0.006
			c0.07-0.016,0.086-0.02,0.086-0.02c0.074-0.03,0.089-0.037,0.089-0.037c0.072-0.042,0.086-0.052,0.086-0.052
			c0.07-0.055,0.084-0.067,0.084-0.067c0.068-0.067,0.081-0.081,0.081-0.081c0.053-0.062,0.066-0.078,0.066-0.078
			c0.052-0.069,0.065-0.088,0.065-0.088c0.051-0.077,0.063-0.097,0.063-0.097c0.411-0.712,0.586-1.429,0.812-2.193
			c0.627-2.314,1.227-5.073,2.303-7.211c0.838-1.695,2.014-3.213,3.275-4.613l3.044-3.282c3.672-3.952,5.469-9.195,6.99-14.271
			c1.544,6.197,3.941,15.001,5.255,21.142c0.681,3.237,1.308,6.608,1.562,9.904c0.131,1.734,0.175,3.513,0.029,5.247
			c-0.205,2.56-0.556,7.267-0.691,9.838c-0.014,0.41-0.014,0.839,0.003,1.25c0.07,1.758,0.459,3.527,1.305,5.08
			c0.461,0.878,1.119,1.665,1.781,2.399c1.117,1.243,2.346,2.417,3.682,3.423c0.573,0.444,1.209,0.832,1.802,1.247
			c0.499,0.354,1.085,0.861,1.468,1.27c1.047,1.097,1.724,2.319,2.157,3.744c0.29,0.94,0.544,2.017,0.369,2.958
			c-0.016,0.077-0.022,0.102-0.022,0.102c-0.019,0.074-0.026,0.099-0.026,0.099c-0.022,0.072-0.029,0.095-0.029,0.095
			c-0.024,0.069-0.033,0.092-0.033,0.092c-0.027,0.067-0.036,0.088-0.036,0.088c-0.029,0.064-0.04,0.085-0.04,0.085
			c-0.032,0.062-0.043,0.082-0.043,0.082c-0.463,0.756-0.886,1.534-1.287,2.314c-0.185,0.392-0.618,1.164-0.714,1.556
			c-0.154,0.5-0.207,1.009-0.206,1.475c0.009,1.325,0.413,2.529,0.891,3.738c0.584,1.462,1.33,2.875,2.299,4.12
			c0.051,0.063,0.077,0.094,0.077,0.094c0.055,0.062,0.083,0.092,0.083,0.092c0.058,0.06,0.088,0.09,0.088,0.09
			c0.062,0.059,0.094,0.088,0.094,0.088c0.066,0.057,0.099,0.086,0.099,0.086c0.069,0.056,0.105,0.083,0.105,0.083
			c0.073,0.054,0.11,0.081,0.11,0.081c1.001,0.68,2.131,0.937,3.295,1.139c1,0.161,2.047,0.236,3.06,0.269
			c5.205,0.023,15.078,0.052,20.223-0.008c0.065-0.01,0.097-0.015,0.097-0.015c0.063-0.012,0.095-0.018,0.095-0.018
			c0.062-0.014,0.092-0.021,0.092-0.021c0.06-0.016,0.09-0.025,0.09-0.025c0.058-0.018,0.087-0.028,0.087-0.028
			c0.057-0.02,0.085-0.031,0.085-0.031c0.055-0.023,0.082-0.035,0.082-0.035c0.053-0.025,0.08-0.038,0.08-0.038
			c0.077-0.041,0.102-0.056,0.102-0.056c0.074-0.046,0.098-0.061,0.098-0.061c0.07-0.05,0.093-0.067,0.093-0.067
			c0.067-0.054,0.088-0.073,0.088-0.073c0.063-0.059,0.084-0.079,0.084-0.079c0.06-0.063,0.079-0.085,0.079-0.085
			c0.057-0.067,0.075-0.091,0.075-0.091c0.053-0.072,0.07-0.097,0.07-0.097c0.05-0.076,0.066-0.102,0.066-0.102
			c0.031-0.053,0.046-0.081,0.046-0.081c0.029-0.056,0.044-0.084,0.044-0.084c0.028-0.058,0.041-0.087,0.041-0.087
			c0.026-0.06,0.039-0.09,0.039-0.09c0.226-0.593,0.269-1.106,0.274-1.705c-0.013-1.132-0.404-2.15-0.888-3.144
			c-0.904-1.792-2.148-3.411-3.438-4.941c-3.375-4.015-8.28-9.705-11.501-13.754c-1.601-2.067-3.175-4.233-4.451-6.517
			c-0.942-1.682-1.677-3.508-2.003-5.413c-0.193-1.071-0.224-2.162-0.167-3.246c0.032-2.034-0.493-4.045-1.247-5.921
			c-0.478-1.23-1.147-2.4-1.703-3.594c-1.988-4.363-3.077-9.15-3.969-13.845c-1.057-5.526-1.917-11.839-2.607-17.445
			c-0.321-2.745-0.546-5.601-0.519-8.363c0.025-2.369,0.21-4.779,0.748-7.091c0.296-1.347,0.834-2.645,1.225-3.965
			c0.805-2.65,1.351-5.402,1.533-8.168c0.083-1.033,0.033-2.103,0.144-3.133c0.173-1.685,0.57-3.37,1.024-4.999
			c1.319-4.654,3.286-9.221,5.219-13.648c1.438-3.379,2.853-7.094,4.07-10.56c2.635-7.45,4.935-15.679,7.026-23.305
			c2.04-7.078,4.362-14.604,7.169-21.414c1.094-2.671,2.346-5.396,3.961-7.819c2.073-3.172,4.662-6.01,7.598-8.403
			c1.088-0.9,2.291-1.758,3.464-2.539c1.231-0.771,2.493-1.637,3.633-2.54c4.963-0.243,10.042-0.133,14.858,1.201
			c2.491,0.677,4.917,1.696,7.23,2.835c4.444,2.178,11.175,6.364,15.512,8.885c6.748,3.887,13.897,7.372,21.207,10.059
			c7.345,2.728,15.043,4.717,22.738,6.174c12.339,2.35,25.769,3.752,38.296,4.876C367.952,416.361,392.901,418.407,412.607,419.03z"
			/>
	</g>
</g>
</svg>
