<?xml version="1.0" encoding="utf-8"?>
<!-- Generator: Adobe Illustrator 24.2.0, SVG Export Plug-In . SVG Version: 6.00 Build 0)  -->
<!DOCTYPE svg PUBLIC "-//W3C//DTD SVG 1.1//EN" "http://www.w3.org/Graphics/SVG/1.1/DTD/svg11.dtd" [
	<!ENTITY ns_flows "http://ns.adobe.com/Flows/1.0/">
	<!ENTITY ns_extend "http://ns.adobe.com/Extensibility/1.0/">
	<!ENTITY ns_ai "http://ns.adobe.com/AdobeIllustrator/10.0/">
	<!ENTITY ns_graphs "http://ns.adobe.com/Graphs/1.0/">
	<!ENTITY ns_vars "http://ns.adobe.com/Variables/1.0/">
	<!ENTITY ns_imrep "http://ns.adobe.com/ImageReplacement/1.0/">
	<!ENTITY ns_sfw "http://ns.adobe.com/SaveForWeb/1.0/">
	<!ENTITY ns_custom "http://ns.adobe.com/GenericCustomNamespace/1.0/">
	<!ENTITY ns_adobe_xpath "http://ns.adobe.com/XPath/1.0/">
]>
<svg version="1.1" xmlns:x="&ns_extend;" xmlns:i="&ns_ai;" xmlns:graph="&ns_graphs;"
	 xmlns="http://www.w3.org/2000/svg" xmlns:xlink="http://www.w3.org/1999/xlink" xmlns:a="http://ns.adobe.com/AdobeSVGViewerExtensions/3.0/"
	 x="0px" y="0px" width="750px" height="750px" viewBox="0 0 750 750" enable-background="new 0 0 750 750" xml:space="preserve">
<metadata>
	<sfw  xmlns="&ns_sfw;">
		<slices></slices>
		<sliceSourceBounds  bottomLeftOrigin="true" height="11750" width="4861" x="-2000" y="-3526"></sliceSourceBounds>
	</sfw>
</metadata>
<g id="FILL-BACKGROUND">
	<rect fill="#FFFFFF" width="750" height="750"/>
</g>
<g id="AG-GUIDES">
</g>
<g id="N-DIMENSIONS">
</g>
<g id="AG-DETAIL-DIAGRAM">
</g>
<g id="N-TEXT">
</g>
<g id="AG-DIAGRAM">
	<g id="POLYLINE_177_">
		<g>
			<g>
				
					<line fill="none" stroke="#FB8604" stroke-width="3.25" stroke-linecap="round" stroke-linejoin="round" x1="122.682" y1="596.083" x2="124.682" y2="596.083"/>
				
					<line fill="none" stroke="#FB8604" stroke-width="3.25" stroke-linecap="round" stroke-linejoin="round" stroke-dasharray="4.0134,7.0234" x1="131.705" y1="596.083" x2="514.481" y2="596.083"/>
				
					<line fill="none" stroke="#FB8604" stroke-width="3.25" stroke-linecap="round" stroke-linejoin="round" x1="517.993" y1="596.083" x2="519.993" y2="596.083"/>
			</g>
		</g>
	</g>
</g>
<g id="AG-DETAILS">
</g>
<g id="AG-ANIMALS">
	<g id="POLYLINE_189_">
		
			<path fill="none" stroke="#FB8604" stroke-width="2.75" stroke-linecap="round" stroke-linejoin="round" stroke-miterlimit="10" d="
			M265.116,381.423c3.671-0.358,7.701-0.773,11.359-0.529c3.569,0.197,7.134,0.955,10.57,1.917
			c15.843,4.445,33.286,13.694,48.865,18.981c6.939,2.34,14.177,4.064,21.416,5.166c15.935,2.362,32.721,2.725,48.827,2.824
			c15.564-0.074,32.241-0.319,47.736-1.721"/>
	</g>
	<g id="POLYLINE_187_">
		
			<path fill="none" stroke="#FB8604" stroke-width="2.75" stroke-linecap="round" stroke-linejoin="round" stroke-miterlimit="10" d="
			M446.898,341.964c-9.207,11.197-3.201,36.767,0.789,49.601c0.943,3.023,2.099,6.378,3.237,9.333
			c0.803,2.131,2.703,6.543,3.604,8.678c1.298,3.106,2.463,6.347,3.046,9.671c0.45,2.486,0.608,5.041,0.561,7.565
			c-0.136,8.238-2.518,21.297-3.631,29.545c-0.564,4.312-1.07,8.802-1.016,13.151c-0.015,4.383,0.939,11.179,1.424,15.592
			c0.672,6.539,0.476,13.192-0.177,19.724c-0.663,6.383-1.77,12.804-3.634,18.952c-2.009,6.816-5.822,13.553-8.159,20.251
			c-1.722,4.915-2.523,10.149-2.594,15.349c-0.044,3.869,0.298,7.779,1.228,11.54c0.735,2.944,1.863,5.845,3.667,8.305
			c0.931,1.269,2.119,2.528,3.489,3.285c0.805,0.448,1.697,0.695,2.55,0.521c0.205-0.045,0.35-0.097,0.501-0.16
			c0.077-0.033,0.115-0.051,0.115-0.051c0.433-0.206,0.738-0.43,1.064-0.67l0.854-0.66c0.603-0.454,1.217-0.845,1.915-0.939
			c0.063-0.008,0.085-0.01,0.085-0.01c0.064-0.005,0.086-0.007,0.086-0.007c0.065-0.003,0.087-0.004,0.087-0.004
			c0.065-0.001,0.087-0.001,0.087-0.001c0.728,0.021,1.335,0.297,1.937,0.59c0.838,0.423,1.892,1.116,2.7,1.61
			c0.57,0.341,1.238,0.728,1.864,0.899c0.073,0.018,0.097,0.024,0.097,0.024c0.071,0.015,0.095,0.02,0.095,0.02
			c0.07,0.012,0.093,0.016,0.093,0.016c0.069,0.009,0.091,0.011,0.091,0.011c0.067,0.005,0.089,0.006,0.089,0.006
			c0.066,0.002,0.087,0.001,0.087,0.001c0.064-0.002,0.085-0.004,0.085-0.004c0.062-0.006,0.083-0.009,0.083-0.009
			c0.061-0.01,0.081-0.014,0.081-0.014c0.072-0.018,0.086-0.022,0.086-0.022c0.07-0.023,0.083-0.028,0.083-0.028
			c0.068-0.028,0.081-0.034,0.081-0.034c0.066-0.033,0.079-0.04,0.079-0.04c0.076-0.045,0.089-0.053,0.089-0.053
			c0.074-0.051,0.086-0.06,0.086-0.06c0.072-0.057,0.095-0.076,0.095-0.076c0.069-0.062,0.092-0.084,0.092-0.084
			c0.067-0.068,0.089-0.091,0.089-0.091c0.065-0.073,0.087-0.098,0.087-0.098c0.463-0.553,0.792-1.25,1.227-1.787
			c0.044-0.053,0.066-0.079,0.066-0.079c0.067-0.076,0.09-0.101,0.09-0.101c0.069-0.072,0.093-0.095,0.093-0.095
			c0.071-0.067,0.096-0.088,0.096-0.088c0.074-0.061,0.099-0.081,0.099-0.081c0.077-0.055,0.09-0.064,0.09-0.064
			c0.066-0.042,0.079-0.049,0.079-0.049c0.068-0.037,0.082-0.044,0.082-0.044c0.07-0.033,0.084-0.039,0.084-0.039
			c0.062-0.025,0.079-0.03,0.079-0.03c0.066-0.021,0.082-0.026,0.082-0.026c0.067-0.018,0.084-0.022,0.084-0.022
			c0.069-0.014,0.086-0.017,0.086-0.017c0.071-0.011,0.088-0.013,0.088-0.013c0.072-0.007,0.108-0.01,0.108-0.01
			c0.074-0.004,0.111-0.005,0.111-0.005c0.075,0,0.113,0,0.113,0c0.467,0.017,0.837,0.111,1.273,0.225
			c0.738,0.195,1.698,0.533,2.455,0.526c0.077-0.002,0.114-0.004,0.114-0.004c0.075-0.005,0.094-0.007,0.094-0.007
			c0.074-0.008,0.092-0.011,0.092-0.011c0.072-0.012,0.09-0.015,0.09-0.015c0.071-0.015,0.088-0.02,0.088-0.02
			c0.069-0.019,0.086-0.024,0.086-0.024c0.068-0.023,0.084-0.029,0.084-0.029c0.071-0.029,0.089-0.036,0.089-0.036
			c0.069-0.033,0.086-0.042,0.086-0.042c0.067-0.037,0.084-0.047,0.084-0.047c0.066-0.042,0.082-0.052,0.082-0.052
			c0.064-0.045,0.08-0.057,0.08-0.057c0.063-0.049,0.078-0.062,0.078-0.062c0.061-0.053,0.091-0.08,0.091-0.08
			c0.059-0.057,0.089-0.086,0.089-0.086c0.058-0.061,0.087-0.092,0.087-0.092c0.057-0.065,0.084-0.098,0.084-0.098
			c0.878-1.098,1.301-2.553,2.249-3.578c0.066-0.07,0.1-0.104,0.1-0.104c0.069-0.066,0.103-0.099,0.103-0.099
			c0.071-0.063,0.107-0.093,0.107-0.093c0.073-0.059,0.11-0.088,0.11-0.088c0.076-0.055,0.095-0.068,0.095-0.068
			c0.542-0.367,1.122-0.495,1.723-0.573c0.987-0.133,2.188-0.024,3.16-0.233c0.074-0.018,0.111-0.028,0.111-0.028
			c0.072-0.021,0.107-0.032,0.107-0.032c0.069-0.023,0.103-0.036,0.103-0.036c0.066-0.026,0.082-0.033,0.082-0.033
			c0.064-0.029,0.079-0.036,0.079-0.036c0.076-0.039,0.091-0.047,0.091-0.047c0.072-0.043,0.086-0.052,0.086-0.052
			c0.073-0.052,0.084-0.061,0.084-0.061c0.075-0.063,0.086-0.072,0.086-0.072c0.07-0.069,0.079-0.079,0.079-0.079
			c0.065-0.074,0.082-0.096,0.082-0.096c0.051-0.068,0.068-0.091,0.068-0.091c0.047-0.072,0.063-0.097,0.063-0.097
			c0.044-0.076,0.058-0.102,0.058-0.102c0.184-0.355,0.26-0.647,0.352-0.987l0.232-0.948c0.11-0.435,0.276-0.922,0.481-1.261
			c0.389-0.646,0.974-1.08,1.5-1.558c0.156-0.14,0.348-0.328,0.452-0.448c0.06-0.07,0.08-0.093,0.08-0.093
			c0.057-0.071,0.075-0.095,0.075-0.095c0.053-0.073,0.07-0.097,0.07-0.097c0.049-0.075,0.065-0.1,0.065-0.1
			c0.045-0.076,0.059-0.102,0.059-0.102c0.027-0.052,0.04-0.079,0.04-0.079c0.025-0.053,0.037-0.08,0.037-0.08
			c0.022-0.055,0.033-0.082,0.033-0.082c0.024-0.07,0.029-0.084,0.029-0.084c0.021-0.072,0.024-0.086,0.024-0.086
			c0.017-0.073,0.02-0.088,0.02-0.088c0.013-0.075,0.015-0.091,0.015-0.091c0.009-0.077,0.01-0.093,0.01-0.093
			c0.004-0.062,0.005-0.094,0.005-0.094c0.001-0.064,0-0.096,0-0.096c-0.002-0.065-0.004-0.099-0.004-0.099
			c-0.005-0.067-0.009-0.101-0.009-0.101c-0.008-0.068-0.013-0.103-0.013-0.103c-0.011-0.07-0.018-0.105-0.018-0.105
			c-0.177-0.832-0.569-1.521-0.998-2.231c-0.795-1.268-1.794-2.536-2.737-3.704c-2.182-2.707-4.969-5.839-6.62-8.872
			c-0.919-1.661-1.608-3.456-2.036-5.305c-0.522-2.221-0.712-4.562-0.82-6.838c-0.167-3.788-0.099-7.876,0.061-11.666
			c0.217-4.805,0.63-9.885,1.273-14.652c0.488-3.668,1.21-7.375,2.249-10.928c1.07-3.566,2.448-8.045,3.108-11.684
			c1.489-8.1,2.739-22.274,4.087-30.408c0.778-4.833,1.744-9.891,3.128-14.588c0.922-3.127,2.1-6.302,3.386-9.297
			c2.126-5.03,5.428-11.155,7.519-16.196c0.875-2.1,1.604-4.328,2.164-6.534c1.052-4.002,1.831-9.073,4.105-12.565
			c1.023-1.582,2.41-2.902,3.879-4.067c3.028-2.368,6.772-4.558,9.811-6.913c2.86-2.172,5.476-4.702,7.823-7.418
			c3.321-3.846,6.201-8.099,8.559-12.599c2.364-4.533,4.229-9.378,5.227-14.401c1.504-7.552,0.854-15.366-0.369-22.913
			c0,0-1.812-10.54-1.812-10.54c-0.874-5.513-1.411-11.229-0.237-16.737c1.221-5.706,4.212-11.587,6.176-17.067
			c0.96-2.614,1.814-5.353,2.444-8.066c0.982-4.21,1.609-8.67,2.124-12.963"/>
	</g>
	<g id="POLYLINE_179_">
		
			<path fill="none" stroke="#FB8604" stroke-width="2.75" stroke-linecap="round" stroke-linejoin="round" stroke-miterlimit="10" d="
			M284.727,310.58c2.28,12.605,3.083,25.85-0.381,38.315c-1.9,6.932-5.348,13.37-9.333,19.317
			c-5.556,8.38-14.93,19.192-21.148,27.197c-9.589,12.41-18.276,25.811-24.689,40.149c-2.506,5.594-4.629,11.575-6.467,17.422
			c-1.451,4.635-4.719,16.126-6.56,20.53c-0.979,2.446-2.482,5.979-3.122,8.557c-0.589,2.22-0.927,4.545-1.066,6.837
			c-0.152,2.401-0.124,4.943-0.058,7.346c0.217,7.167,1.206,17.476,1.601,24.642c0.285,4.966,0.425,10.156-0.068,15.113
			c-0.258,2.815-0.839,7.024-0.774,9.808c0.028,1.74,0.268,3.496,0.806,5.154c0.795,2.445,2.151,4.712,3.508,6.883
			c1.493,2.375,3.904,5.848,5.101,8.337c0.56,1.147,1.039,2.356,1.271,3.615c0.201,1.053,0.222,2.255-0.043,3.262
			c-0.298,1.209-1.045,2.266-2.05,2.899c-0.699,0.443-1.399,0.683-2.182,0.886c-1.134,0.284-2.329,0.416-3.492,0.519
			c-2.883,0.245-6.424,0.311-9.186,1.141c-1.712,0.503-3.344,1.319-4.898,2.188c-1.814,1.005-3.826,2.286-5.817,2.875
			c-1.507,0.45-3.112,0.511-4.676,0.505c-1.71-0.016-4.056-0.091-5.739,0.14c-1.561,0.18-3.711,0.802-5.245,1.182
			c-1.25,0.282-2.743,0.659-3.971,0.24c-0.076-0.029-0.101-0.039-0.101-0.039c-0.074-0.032-0.098-0.044-0.098-0.044
			c-0.072-0.035-0.095-0.048-0.095-0.048c-0.07-0.039-0.092-0.052-0.092-0.052c-0.067-0.042-0.089-0.057-0.089-0.057
			c-0.065-0.046-0.086-0.061-0.086-0.061c-0.069-0.054-0.096-0.076-0.096-0.076c-0.052-0.046-0.078-0.07-0.078-0.07
			c-0.075-0.074-0.099-0.1-0.099-0.1c-0.048-0.053-0.071-0.08-0.071-0.08c-0.046-0.056-0.069-0.084-0.069-0.084
			c-0.044-0.058-0.066-0.088-0.066-0.088c-0.042-0.061-0.063-0.092-0.063-0.092c-0.041-0.064-0.061-0.097-0.061-0.097
			c-0.039-0.067-0.058-0.101-0.058-0.101c-0.509-0.967-0.624-1.993-0.719-3.054c-0.197-2.663,0.145-6.7,0.254-9.401
			c0.137-2.786,0.067-5.678-0.145-8.46l-0.772-8.971c-0.245-3.339-0.339-6.807-0.16-10.149"/>
	</g>
	<g id="POLYLINE_176_">
		
			<path fill="none" stroke="#FB8604" stroke-width="2.75" stroke-linecap="round" stroke-linejoin="round" stroke-miterlimit="10" d="
			M184.468,283.402c-9.26,4.925-19.156,10.846-23.559,20.833c-1.081,2.47-1.744,5.125-2.167,7.783
			c-1.136,6.829-0.648,16.786-0.643,23.764c0.001,5.018-0.142,10.151-1.08,15.091c-1.055,5.588-3.179,10.958-5.609,16.081
			c-3.388,7.006-8.275,15.848-10.453,23.195c-3.742,12.19-4.184,25.179-3.384,37.828c0.466,7.267,1.837,18.484,2.163,25.743
			c0.254,5.216,0.208,10.573-0.3,15.773c-1.383,14.032-6.579,29.127-9.416,42.916c-1.053,5.24-1.916,10.638-1.682,15.996
			c0.149,3.404,0.76,6.803,1.762,10.058c1.216,3.994,3.037,7.854,4.946,11.56c2.699,5.033,7.158,13.877,10.141,18.643
			c0.946,1.509,1.972,3.052,3.102,4.43c1.291,1.556,2.805,3.084,4.766,3.735c3.161,1.005,5.287-1.396,6.348-4.054
			c0.968-2.387,1.537-5.344,2.136-7.861c0.534-2.308,1.198-4.663,2.018-6.882c1.096-2.955,2.511-5.838,4.421-8.356
			c1.073-1.428,2.344-2.723,3.721-3.861c1.883-1.577,3.953-3.1,5.446-5.031c2.191-2.797,3.237-6.293,4.055-9.7
			c1.505-6.712,2.25-13.943,2.994-20.784c1.074-10.739,1.75-21.902,1.74-32.697c-0.022-4.014-0.132-8.374-0.421-12.356
			c-0.264-3.131-0.466-6.432-0.414-9.572c0.047-3.843,0.391-7.781,0.94-11.583c1.15-7.844,3.443-17.311,4.059-25.192
			c0.645-7.178,0.429-14.491-0.871-21.587c-1.119-6.155-3.099-12.304-5.161-18.205c-2.564-7.181-7.652-20.512-9.633-27.718
			c-1.153-4.058-2.128-8.294-2.813-12.457c-1.432-8.675-1.706-17.625-0.392-26.332c0.818-5.45,2.266-10.857,4.542-15.885
			c6.35-14.163,18.173-23.134,31.63-30.108c7.487-3.858,15.508-7.007,23.577-9.421c7.05-2.076,14.367-3.688,21.683-4.438
			c6.434-0.675,12.993-0.582,19.416,0.186c9.731,1.034,23.861,5.02,33.465,7.27c20.637,4.618,42.025,8.028,63.17,8.844
			c8.463,0.239,17.109,0.045,25.413-1.735c5.551-1.173,11.005-3.151,16.234-5.338"/>
	</g>
	<g id="POLYLINE_172_">
		
			<path fill="none" stroke="#FB8604" stroke-width="2.75" stroke-linecap="round" stroke-linejoin="round" stroke-miterlimit="10" d="
			M564.504,238.613c4.65,3.944,9.422,8.355,13.721,12.676c3.138,3.198,6.303,6.56,8.935,10.188c0.88,1.235,1.726,2.529,2.345,3.917
			c0.516,1.129,0.836,2.517,1.255,3.685c0.227,0.626,0.591,1.275,1.026,1.735c0.546,0.586,1.137,0.958,1.815,1.317
			c1.71,0.874,3.592,1.393,5.462,1.795c2.519,0.522,5.111,0.79,7.684,0.792c2.722-0.023,5.527-0.272,8.053-1.353
			c1.353-0.581,2.647-1.521,3.627-2.59c1.816-1.929,2.974-4.565,4.124-6.926"/>
	</g>
	<g id="POLYLINE_170_">
		
			<path fill="none" stroke="#FB8604" stroke-width="2.75" stroke-linecap="round" stroke-linejoin="round" stroke-miterlimit="10" d="
			M619.969,249.759c-1.372,3.772-2.768,8.869-0.315,12.465c0.346,0.485,0.748,0.865,1.185,1.133
			c0.069,0.041,0.104,0.061,0.104,0.061c0.07,0.039,0.106,0.057,0.106,0.057c0.071,0.036,0.107,0.053,0.107,0.053
			c0.073,0.033,0.109,0.049,0.109,0.049c0.074,0.031,0.111,0.045,0.111,0.045c0.075,0.028,0.113,0.041,0.113,0.041
			c0.076,0.025,0.114,0.037,0.114,0.037c0.897,0.271,1.794,0.139,2.629-0.163c0.836-0.3,1.698-0.854,2.303-1.476
			c0.663-0.67,1.115-1.464,1.284-2.332c0.215-1.184,0.007-2.254-0.279-3.371c-0.438-1.684-1.545-4.324-2.171-5.977
			c-0.703-1.815-1.348-3.803-1.886-5.676c-1.924-6.731-3.368-14.216-5.922-20.742c-1.909-4.944-4.549-10.455-5.013-15.756
			c-0.237-2.556-0.027-5.188,0.242-7.736c0.33-3.089,0.919-7.235,0.819-10.297c-0.049-3.276-0.947-6.502-2.413-9.421
			c-2.174-4.457-5.828-8.55-9.03-12.316c-1.578-1.911-3.177-3.905-4.198-6.179c-0.45-1.004-0.756-2.082-0.883-3.176
			c-0.149-1.255-0.076-2.535,0.141-3.778c0.4-2.286,1.259-4.49,2.187-6.608c1.434-3.191,3.501-7.325,4.614-10.626
			c0.87-2.516,1.435-5.161,1.628-7.818c0.052-0.74,0.078-1.53,0.041-2.272c-0.026-0.521-0.085-1.115-0.238-1.591
			c-0.021-0.06-0.028-0.08-0.028-0.08c-0.029-0.075-0.037-0.093-0.037-0.093c-0.031-0.069-0.039-0.085-0.039-0.085
			c-0.041-0.077-0.05-0.091-0.05-0.091c-0.044-0.066-0.053-0.079-0.053-0.079c-0.066-0.076-0.076-0.085-0.076-0.085
			c-0.071-0.055-0.082-0.062-0.082-0.062c-0.075-0.034-0.085-0.037-0.085-0.037c-0.072-0.013-0.082-0.014-0.082-0.014
			c-0.075,0.003-0.086,0.005-0.086,0.005c-0.068,0.015-0.079,0.019-0.079,0.019c-0.071,0.027-0.083,0.032-0.083,0.032
			c-0.074,0.038-0.086,0.045-0.086,0.045c-0.076,0.048-0.089,0.057-0.089,0.057c-0.053,0.038-0.079,0.059-0.079,0.059
			c-0.054,0.044-0.082,0.067-0.082,0.067c-0.056,0.049-0.084,0.075-0.084,0.075c-0.91,0.899-1.933,2.521-2.705,3.549
			c-1.031,1.427-2.195,2.81-3.445,4.05c-3.424,3.39-7.479,6.15-11.834,8.201c-2.98,1.398-6.165,2.395-9.389,3.053"/>
	</g>
	<g id="POLYLINE_169_">
		
			<path fill="none" stroke="#FB8604" stroke-width="2.75" stroke-linecap="round" stroke-linejoin="round" stroke-miterlimit="10" d="
			M187.709,584.056c1.897,2.8,4.051,5.483,6.579,7.739c0.656,0.575,1.338,1.165,2.069,1.641c0.783,0.51,1.637,0.927,2.51,1.259
			c1.816,0.69,3.756,1.048,5.686,1.234c1.128,0.106,2.328,0.154,3.46,0.154c2.899-0.045,19.565,0.122,22.106-0.131
			c1.541-0.12,3.115-0.309,4.605-0.733c1.041-0.303,2.157-0.757,2.874-1.536c0.054-0.06,0.071-0.081,0.071-0.081
			c0.051-0.061,0.067-0.082,0.067-0.082c0.048-0.062,0.063-0.083,0.063-0.083c0.566-0.787,0.843-1.728,0.844-2.644
			c0.001-0.968-0.234-1.828-0.588-2.705c-0.454-1.102-1.084-2.132-1.811-3.075c-1.11-1.449-2.419-2.839-3.696-4.145
			c-2.768-2.81-6.141-5.817-9.12-8.421"/>
	</g>
	<g id="POLYLINE_168_">
		
			<path fill="none" stroke="#FB8604" stroke-width="2.75" stroke-linecap="round" stroke-linejoin="round" stroke-miterlimit="10" d="
			M599.157,149.293c2.782,2.472,5.552,5.14,7.948,7.987c2.575,3.038,4.942,6.445,7.058,9.818c2.74,4.438,5.331,9.106,7.169,13.995
			c0.57,1.54,1.048,3.138,1.32,4.76c0.333,1.887,0.405,4.092,0.628,5.995c0.144,1.243,0.376,2.512,0.701,3.721
			c0.696,2.601,2.068,5.879,2.875,8.451c0.257,0.865,0.567,1.855,0.539,2.744c-0.004,0.056-0.006,0.083-0.006,0.083
			c-0.006,0.054-0.009,0.08-0.009,0.08c-0.013,0.076-0.017,0.1-0.017,0.1c-0.017,0.071-0.023,0.093-0.023,0.093
			c-0.021,0.065-0.029,0.086-0.029,0.086c-0.026,0.06-0.035,0.079-0.035,0.079c-0.041,0.071-0.053,0.087-0.053,0.087
			c-0.063,0.075-0.076,0.089-0.076,0.089c-0.075,0.06-0.091,0.071-0.091,0.071c-0.07,0.037-0.088,0.045-0.088,0.045
			c-0.065,0.023-0.078,0.026-0.078,0.026c-0.07,0.016-0.085,0.018-0.085,0.018c-0.076,0.009-0.091,0.01-0.091,0.01
			c-0.064,0.003-0.081,0.003-0.081,0.003c-0.067-0.001-0.085-0.002-0.085-0.002c-0.07-0.005-0.088-0.007-0.088-0.007
			c-0.055-0.006-0.092-0.011-0.092-0.011c-0.672-0.113-1.231-0.378-1.838-0.651l-1.811-0.885c-0.19-0.09-0.449-0.203-0.598-0.251
			c-0.053-0.017-0.078-0.024-0.078-0.024c-0.071-0.019-0.082-0.021-0.082-0.021c-0.072-0.012-0.082-0.013-0.082-0.013
			c-0.076-0.001-0.083,0-0.083,0c-0.077,0.028-0.082,0.031-0.082,0.031c-0.046,0.073-0.048,0.079-0.048,0.079
			c-0.008,0.073-0.007,0.081-0.007,0.081c0.007,0.073,0.008,0.082,0.008,0.082c0.015,0.074,0.02,0.097,0.02,0.097
			c0.049,0.192,0.119,0.363,0.167,0.49c0.546,1.313,1.078,2.68,1.352,4.078c0.391,1.976,0.422,4.025,0.343,6.032
			c-0.076,1.64-0.247,3.333-0.541,4.948c-0.169,0.873-0.366,1.85-0.732,2.65c-0.039,0.077-0.052,0.101-0.052,0.101
			c-0.039,0.069-0.052,0.09-0.052,0.09c-0.039,0.06-0.052,0.079-0.052,0.079c-0.052,0.067-0.064,0.082-0.064,0.082
			c-0.077,0.073-0.09,0.083-0.09,0.083c-0.076,0.04-0.089,0.044-0.089,0.044c-0.075,0.006-0.087,0.004-0.087,0.004
			c-0.073-0.03-0.081-0.035-0.081-0.035c-0.072-0.065-0.08-0.074-0.08-0.074c-0.057-0.076-0.064-0.087-0.064-0.087
			c-0.042-0.07-0.049-0.083-0.049-0.083c-0.028-0.053-0.042-0.081-0.042-0.081c-0.31-0.67-0.592-1.936-0.803-2.646
			c-0.121-0.416-0.284-0.943-0.475-1.312c-0.033-0.062-0.05-0.092-0.05-0.092c-0.043-0.07-0.051-0.083-0.051-0.083
			c-0.052-0.074-0.061-0.086-0.061-0.086c-0.062-0.073-0.071-0.082-0.071-0.082c-0.073-0.064-0.083-0.07-0.083-0.07
			c-0.074-0.041-0.083-0.044-0.083-0.044c-0.072-0.018-0.082-0.019-0.082-0.019c-0.074,0.001-0.084,0.002-0.084,0.002
			c-0.076,0.019-0.085,0.022-0.085,0.022c-0.077,0.036-0.087,0.042-0.087,0.042c-0.069,0.045-0.078,0.052-0.078,0.052
			c-0.069,0.056-0.079,0.065-0.079,0.065c-0.07,0.067-0.09,0.088-0.09,0.088c-0.06,0.067-0.081,0.091-0.081,0.091
			c-0.368,0.463-0.569,0.896-0.798,1.371c-0.305,0.659-0.581,1.377-0.825,2.061"/>
	</g>
	<g id="POLYLINE_49_">
		
			<path fill="none" stroke="#FB8604" stroke-width="2.75" stroke-linecap="round" stroke-linejoin="round" stroke-miterlimit="10" d="
			M576.887,144.982c-1.316-1.225-2.916-1.855-4.626-2.243c-2.143-0.468-4.375-0.506-6.56-0.41
			c-6.361,0.315-12.736,1.816-18.883,3.421c-8.976,2.441-18.282,5.102-26.916,8.57c-7.976,3.199-15.73,7.236-22.686,12.302
			c-18.959,13.87-33.992,34.731-48.586,52.95c-3.855,4.757-8.114,9.731-12.417,14.067c-3.041,3.145-9.036,8.43-12.355,11.432
			c-3.398,3.124-6.825,6.407-9.607,10.099c-1.769,2.358-3.311,4.943-4.23,7.757c-1.237,3.81-1.255,7.99-0.248,11.855
			c0.28,1.032,0.644,2.061,1.141,3.009c0.381,0.738,0.943,1.557,1.575,2.048c0.064,0.049,0.096,0.073,0.096,0.073
			c0.065,0.046,0.097,0.068,0.097,0.068c0.065,0.042,0.098,0.062,0.098,0.062c0.065,0.039,0.098,0.057,0.098,0.057
			c0.066,0.035,0.098,0.052,0.098,0.052c0.066,0.032,0.099,0.046,0.099,0.046c0.066,0.028,0.099,0.041,0.099,0.041
			c0.068,0.025,0.102,0.036,0.102,0.036c0.068,0.021,0.102,0.031,0.102,0.031c0.068,0.018,0.102,0.026,0.102,0.026
			c0.068,0.014,0.102,0.021,0.102,0.021c0.068,0.011,0.103,0.016,0.103,0.016c0.069,0.008,0.103,0.012,0.103,0.012
			c0.069,0.006,0.103,0.008,0.103,0.008c0.56,0.03,1.088-0.088,1.606-0.16c0.165-0.024,0.414-0.049,0.531-0.052
			c0.129-0.005,0.227-0.002,0.291,0.001c0.064,0.004,0.096,0.007,0.096,0.007c0.063,0.007,0.095,0.011,0.095,0.011
			c0.063,0.01,0.094,0.015,0.094,0.015c0.062,0.013,0.094,0.02,0.094,0.02c0.062,0.016,0.077,0.02,0.077,0.02
			c0.077,0.024,0.092,0.029,0.092,0.029c0.076,0.028,0.091,0.034,0.091,0.034c0.075,0.033,0.09,0.04,0.09,0.04
			c0.074,0.038,0.089,0.046,0.089,0.046c0.074,0.043,0.088,0.052,0.088,0.052c0.073,0.048,0.087,0.059,0.087,0.059
			c0.072,0.054,0.095,0.073,0.095,0.073c0.069,0.059,0.092,0.079,0.092,0.079c0.068,0.065,0.091,0.088,0.091,0.088
			c0.067,0.071,0.09,0.095,0.09,0.095c0.656,0.771,0.989,1.59,1.392,2.476c0.813,1.829,1.59,4.241,2.904,5.752
			c0.159,0.175,0.301,0.304,0.425,0.404c0.059,0.046,0.088,0.068,0.088,0.068c0.06,0.043,0.09,0.064,0.09,0.064
			c0.06,0.04,0.091,0.06,0.091,0.06c0.061,0.037,0.092,0.055,0.092,0.055c0.062,0.034,0.093,0.05,0.093,0.05
			c0.063,0.031,0.095,0.045,0.095,0.045c0.064,0.027,0.096,0.04,0.096,0.04c0.065,0.024,0.097,0.035,0.097,0.035
			c0.066,0.021,0.099,0.03,0.099,0.03c0.067,0.017,0.1,0.025,0.1,0.025c0.069,0.014,0.104,0.02,0.104,0.02
			c0.071,0.01,0.107,0.014,0.107,0.014c0.072,0.006,0.108,0.008,0.108,0.008c0.073,0.003,0.109,0.003,0.109,0.003
			c0.074-0.001,0.111-0.003,0.111-0.003c0.075-0.005,0.112-0.008,0.112-0.008c0.076-0.008,0.114-0.013,0.114-0.013
			c0.615-0.091,1.098-0.313,1.624-0.589c0.675-0.363,1.327-0.818,1.947-1.268c0.967-0.712,2.416-1.848,3.42-2.468
			c0.582-0.361,1.265-0.728,1.927-0.872c0.076-0.015,0.114-0.022,0.114-0.022c0.075-0.012,0.112-0.018,0.112-0.018
			c0.074-0.009,0.111-0.013,0.111-0.013c0.073-0.006,0.11-0.008,0.11-0.008c0.072-0.002,0.108-0.002,0.108-0.002
			c0.071,0.001,0.107,0.003,0.107,0.003c0.07,0.005,0.105,0.009,0.105,0.009c0.069,0.009,0.104,0.014,0.104,0.014
			c0.068,0.013,0.102,0.02,0.102,0.02c0.067,0.017,0.099,0.026,0.099,0.026c0.064,0.02,0.095,0.031,0.095,0.031
			c0.063,0.023,0.094,0.036,0.094,0.036c0.062,0.027,0.092,0.041,0.092,0.041c0.061,0.031,0.091,0.047,0.091,0.047
			c0.06,0.034,0.09,0.052,0.09,0.052c0.059,0.037,0.088,0.057,0.088,0.057c0.058,0.04,0.087,0.061,0.087,0.061
			c0.057,0.044,0.086,0.066,0.086,0.066c0.056,0.047,0.084,0.071,0.084,0.071c0.055,0.05,0.083,0.075,0.083,0.075
			c0.649,0.637,0.995,1.328,1.372,2.104c0.463,0.967,1.159,2.894,1.555,3.913c0.353,0.871,0.763,1.892,1.358,2.591
			c0.067,0.074,0.089,0.097,0.089,0.097c0.068,0.068,0.09,0.089,0.09,0.089c0.069,0.061,0.092,0.081,0.092,0.081
			c0.07,0.055,0.094,0.072,0.094,0.072c0.071,0.048,0.095,0.063,0.095,0.063c0.076,0.043,0.091,0.051,0.091,0.051
			c0.077,0.037,0.093,0.043,0.093,0.043c0.063,0.025,0.078,0.03,0.078,0.03c0.063,0.021,0.079,0.025,0.079,0.025
			c0.064,0.017,0.08,0.021,0.08,0.021c0.065,0.013,0.081,0.016,0.081,0.016c0.065,0.01,0.082,0.012,0.082,0.012
			c0.066,0.006,0.083,0.008,0.083,0.008c0.067,0.003,0.083,0.004,0.083,0.004c0.05,0,0.084,0,0.084,0
			c0.068-0.003,0.102-0.005,0.102-0.005c0.068-0.006,0.103-0.009,0.103-0.009c0.069-0.009,0.103-0.014,0.103-0.014
			c0.297-0.047,0.503-0.111,0.74-0.183c0.44-0.141,1.138-0.394,1.565-0.437c0.069-0.007,0.103-0.01,0.103-0.01
			c0.068-0.004,0.102-0.006,0.102-0.006c0.068-0.001,0.102-0.001,0.102-0.001c0.067,0.002,0.084,0.003,0.084,0.003
			c0.067,0.005,0.083,0.007,0.083,0.007c0.066,0.009,0.082,0.011,0.082,0.011c0.065,0.012,0.082,0.015,0.082,0.015
			c0.065,0.016,0.081,0.02,0.081,0.02c0.064,0.019,0.08,0.025,0.08,0.025c0.063,0.023,0.079,0.03,0.079,0.03
			c0.047,0.02,0.084,0.038,0.084,0.038c0.073,0.038,0.109,0.059,0.109,0.059c0.072,0.045,0.108,0.07,0.108,0.07
			c0.071,0.052,0.106,0.08,0.106,0.08c0.069,0.059,0.104,0.09,0.104,0.09c0.068,0.066,0.102,0.1,0.102,0.1
			c0.568,0.617,0.85,1.31,1.136,2.048c0.382,1.04,0.651,2.153,0.875,3.238c0.856,4.346,1.172,8.927,1.423,13.347
			c0.199,3.199,0.238,9.84,0.55,13.007c0.167,1.711,0.485,3.454,0.911,5.119c0.816,3.19,2.039,6.466,3.22,9.542
			c1.871,4.769,4.049,9.826,6.304,14.424c1.017,2.047,2.13,4.21,3.341,6.149c0.609,0.943,1.271,1.992,2.118,2.719
			c0.041,0.033,0.082,0.064,0.082,0.064c0.04,0.029,0.08,0.057,0.08,0.057c0.039,0.026,0.078,0.05,0.078,0.05
			c0.076,0.043,0.113,0.063,0.113,0.063c0.073,0.033,0.108,0.047,0.108,0.047c0.069,0.022,0.103,0.031,0.103,0.031
			c0.066,0.012,0.098,0.015,0.098,0.015c0.063,0.001,0.093-0.002,0.093-0.002c0.059-0.011,0.088-0.019,0.088-0.019
			c0.056-0.022,0.082-0.036,0.082-0.036c0.077-0.054,0.101-0.075,0.101-0.075c0.047-0.05,0.069-0.077,0.069-0.077
			c0.052-0.076,0.064-0.096,0.064-0.096c0.036-0.066,0.047-0.09,0.047-0.09c0.033-0.075,0.044-0.101,0.044-0.101
			c0.021-0.054,0.031-0.082,0.031-0.082c0.161-0.497,0.195-0.904,0.244-1.391c0.064-0.738,0.074-1.658,0.082-2.404
			c0.012-1.299-0.023-3.649,0.094-4.917c0.042-0.489,0.117-1.091,0.265-1.539c0.021-0.062,0.032-0.093,0.032-0.093
			c0.023-0.059,0.034-0.087,0.034-0.087c0.024-0.055,0.036-0.081,0.036-0.081c0.038-0.075,0.052-0.099,0.052-0.099
			c0.041-0.067,0.055-0.088,0.055-0.088c0.059-0.076,0.075-0.094,0.075-0.094c0.064-0.062,0.081-0.075,0.081-0.075
			c0.069-0.046,0.087-0.056,0.087-0.056c0.075-0.03,0.094-0.036,0.094-0.036c0.063-0.012,0.086-0.014,0.086-0.014
			c0.073,0,0.098,0.002,0.098,0.002c0.077,0.013,0.104,0.019,0.104,0.019c0.054,0.016,0.081,0.025,0.081,0.025
			c0.056,0.022,0.085,0.034,0.085,0.034c0.058,0.028,0.088,0.043,0.088,0.043c0.06,0.033,0.09,0.051,0.09,0.051
			c0.062,0.039,0.093,0.06,0.093,0.06c0.064,0.044,0.096,0.068,0.096,0.068c0.833,0.654,1.386,1.403,2.031,2.197
			c1.032,1.318,3.158,4.268,4.228,5.517c0.436,0.515,0.906,1.041,1.4,1.501c0.393,0.364,0.869,0.749,1.338,0.945
			c0.076,0.03,0.114,0.044,0.114,0.044c0.075,0.024,0.112,0.035,0.112,0.035c0.073,0.018,0.11,0.026,0.11,0.026
			c0.072,0.012,0.107,0.017,0.107,0.017c0.07,0.006,0.105,0.007,0.105,0.007c0.068,0,0.102-0.002,0.102-0.002
			c0.067-0.007,0.1-0.012,0.1-0.012c0.065-0.014,0.097-0.022,0.097-0.022c0.063-0.021,0.101-0.036,0.101-0.036
			c0.075-0.035,0.112-0.056,0.112-0.056c0.072-0.046,0.108-0.071,0.108-0.071c0.07-0.056,0.104-0.086,0.104-0.086
			c0.067-0.066,0.1-0.101,0.1-0.101c0.064-0.075,0.096-0.115,0.096-0.115c0.031-0.042,0.062-0.085,0.062-0.085
			c0.03-0.045,0.06-0.091,0.06-0.091c0.029-0.048,0.059-0.097,0.059-0.097c0.411-0.749,0.567-1.475,0.736-2.272
			c0.225-1.156,0.351-2.373,0.447-3.546c0.304-3.532,0.283-9.897,0.593-13.432c0.07-0.663,0.147-1.425,0.363-2.043
			c0.015-0.041,0.031-0.08,0.031-0.08c0.032-0.074,0.048-0.108,0.048-0.108c0.034-0.064,0.051-0.093,0.051-0.093
			c0.035-0.054,0.054-0.078,0.054-0.078c0.056-0.063,0.076-0.081,0.076-0.081c0.06-0.042,0.081-0.052,0.081-0.052
			c0.076-0.022,0.09-0.024,0.09-0.024c0.072,0.002,0.086,0.005,0.086,0.005c0.075,0.022,0.091,0.029,0.091,0.029
			c0.063,0.032,0.079,0.041,0.079,0.041c0.065,0.044,0.082,0.056,0.082,0.056c0.068,0.055,0.085,0.071,0.085,0.071
			c0.07,0.066,0.087,0.084,0.087,0.084c0.516,0.568,0.821,1.156,1.198,1.793c0.827,1.416,1.737,3.366,2.848,4.557
			c0.069,0.068,0.092,0.09,0.092,0.09c0.069,0.062,0.091,0.082,0.091,0.082c0.068,0.056,0.091,0.074,0.091,0.074
			c0.067,0.05,0.09,0.065,0.09,0.065c0.067,0.043,0.089,0.057,0.089,0.057c0.066,0.036,0.088,0.047,0.088,0.047
			c0.065,0.029,0.087,0.038,0.087,0.038c0.065,0.022,0.086,0.028,0.086,0.028c0.064,0.014,0.085,0.018,0.085,0.018
			c0.063,0.006,0.084,0.007,0.084,0.007c0.077-0.003,0.102-0.006,0.102-0.006c0.076-0.015,0.1-0.023,0.1-0.023
			c0.074-0.027,0.099-0.039,0.099-0.039c0.073-0.039,0.097-0.054,0.097-0.054c0.072-0.05,0.096-0.069,0.096-0.069
			c0.071-0.061,0.094-0.083,0.094-0.083c0.07-0.071,0.093-0.097,0.093-0.097c0.046-0.054,0.069-0.082,0.069-0.082
			c0.045-0.058,0.068-0.089,0.068-0.089c0.045-0.063,0.067-0.096,0.067-0.096c0.593-0.938,0.89-1.977,1.232-3.017
			c0.552-1.788,1.28-4.5,2.008-6.194c0.277-0.648,0.634-1.367,1.078-1.901c0.061-0.072,0.092-0.106,0.092-0.106
			c0.062-0.067,0.093-0.1,0.093-0.1c0.063-0.062,0.095-0.093,0.095-0.093c0.064-0.058,0.096-0.085,0.096-0.085
			c0.065-0.053,0.098-0.078,0.098-0.078c0.066-0.048,0.099-0.07,0.099-0.07c0.067-0.043,0.101-0.062,0.101-0.062
			c0.068-0.037,0.103-0.054,0.103-0.054c0.069-0.032,0.104-0.046,0.104-0.046c0.071-0.026,0.098-0.035,0.098-0.035
			c0.056-0.017,0.085-0.024,0.085-0.024c0.057-0.013,0.086-0.019,0.086-0.019c0.058-0.01,0.087-0.014,0.087-0.014
			c0.058-0.007,0.088-0.009,0.088-0.009c0.059-0.003,0.089-0.004,0.089-0.004c0.06,0,0.089,0,0.089,0
			c0.06,0.003,0.09,0.005,0.09,0.005c0.061,0.006,0.091,0.009,0.091,0.009c0.061,0.009,0.092,0.014,0.092,0.014
			c0.062,0.011,0.093,0.018,0.093,0.018c0.062,0.014,0.093,0.022,0.093,0.022c1.029,0.298,1.783,0.948,2.575,1.581l1.566,1.338
			c0.414,0.344,0.93,0.758,1.388,0.997c0.052,0.027,0.078,0.039,0.078,0.039c0.076,0.036,0.102,0.047,0.102,0.047
			c0.075,0.031,0.099,0.041,0.099,0.041c0.073,0.026,0.097,0.034,0.097,0.034c0.071,0.021,0.094,0.027,0.094,0.027
			c0.069,0.015,0.092,0.019,0.092,0.019c0.067,0.01,0.089,0.012,0.089,0.012c0.065,0.004,0.087,0.004,0.087,0.004
			c0.063-0.002,0.084-0.004,0.084-0.004c0.061-0.009,0.081-0.013,0.081-0.013c0.059-0.015,0.078-0.022,0.078-0.022
			c0.075-0.031,0.093-0.04,0.093-0.04c0.069-0.041,0.092-0.057,0.092-0.057c0.065-0.053,0.087-0.072,0.087-0.072
			c0.062-0.064,0.082-0.087,0.082-0.087c0.058-0.075,0.077-0.102,0.077-0.102c0.037-0.056,0.055-0.086,0.055-0.086
			c0.035-0.061,0.052-0.093,0.052-0.093c0.033-0.066,0.05-0.101,0.05-0.101c0.032-0.071,0.047-0.108,0.047-0.108
			c0.196-0.493,0.276-0.928,0.36-1.433c0.265-1.611,0.351-5.065,0.452-6.735c0.06-0.948,0.137-1.954,0.294-2.89
			c0.097-0.568,0.237-1.207,0.475-1.72c0.037-0.077,0.056-0.114,0.056-0.114c0.039-0.072,0.059-0.107,0.059-0.107
			c0.041-0.067,0.061-0.099,0.061-0.099c0.042-0.062,0.064-0.092,0.064-0.092c0.044-0.057,0.067-0.084,0.067-0.084
			c0.07-0.076,0.094-0.1,0.094-0.1c0.074-0.066,0.099-0.086,0.099-0.086c0.052-0.037,0.078-0.054,0.078-0.054
			c0.074-0.042,0.094-0.052,0.094-0.052c0.062-0.027,0.083-0.035,0.083-0.035c0.064-0.021,0.086-0.027,0.086-0.027
			c0.066-0.015,0.088-0.019,0.088-0.019c0.068-0.009,0.091-0.012,0.091-0.012c0.07-0.004,0.094-0.004,0.094-0.004
			c0.072,0.001,0.096,0.003,0.096,0.003c0.074,0.006,0.099,0.009,0.099,0.009c0.076,0.011,0.101,0.016,0.101,0.016
			c0.051,0.01,0.077,0.016,0.077,0.016c0.767,0.197,1.341,0.603,1.978,1.01c1.029,0.66,2.263,1.684,3.455,1.957
			c0.054,0.01,0.081,0.015,0.081,0.015c0.054,0.008,0.08,0.011,0.08,0.011c0.053,0.005,0.079,0.008,0.079,0.008
			c0.052,0.003,0.078,0.004,0.078,0.004c0.077,0,0.102-0.001,0.102-0.001c0.075-0.005,0.099-0.008,0.099-0.008
			c0.073-0.011,0.097-0.015,0.097-0.015c0.071-0.016,0.094-0.023,0.094-0.023c0.069-0.022,0.092-0.031,0.092-0.031
			c0.067-0.028,0.089-0.039,0.089-0.039c0.065-0.035,0.086-0.047,0.086-0.047c0.059-0.039,0.097-0.066,0.097-0.066
			c0.073-0.06,0.109-0.092,0.109-0.092c0.07-0.07,0.104-0.108,0.104-0.108c0.033-0.04,0.066-0.081,0.066-0.081
			c0.032-0.043,0.064-0.087,0.064-0.087c0.031-0.046,0.062-0.094,0.062-0.094c0.03-0.049,0.06-0.101,0.06-0.101
			c0.029-0.053,0.057-0.107,0.057-0.107c0.028-0.056,0.055-0.113,0.055-0.113c0.43-0.98,0.549-1.947,0.676-2.979
			c0.24-2.238,0.223-4.757,0.214-7.016c-0.018-3.252-0.236-8.634,0.048-11.822c0.083-0.85,0.196-1.824,0.516-2.595
			c0.023-0.051,0.046-0.101,0.046-0.101c0.024-0.048,0.048-0.094,0.048-0.094c0.025-0.045,0.05-0.088,0.05-0.088
			c0.026-0.041,0.052-0.081,0.052-0.081c0.054-0.074,0.081-0.108,0.081-0.108c0.057-0.064,0.086-0.093,0.086-0.093
			c0.06-0.053,0.091-0.077,0.091-0.077c0.066-0.043,0.084-0.053,0.084-0.053c0.072-0.035,0.09-0.042,0.09-0.042
			c0.075-0.024,0.094-0.029,0.094-0.029c0.058-0.012,0.078-0.015,0.078-0.015c0.06-0.006,0.08-0.007,0.08-0.007
			c0.062-0.001,0.082,0,0.082,0c0.063,0.005,0.085,0.007,0.085,0.007c0.065,0.01,0.087,0.014,0.087,0.014
			c0.066,0.015,0.089,0.021,0.089,0.021c0.068,0.019,0.091,0.027,0.091,0.027c0.069,0.024,0.093,0.033,0.093,0.033
			c0.071,0.028,0.095,0.038,0.095,0.038c0.072,0.032,0.096,0.044,0.096,0.044c0.537,0.269,0.91,0.574,1.357,0.925
			c1.033,0.809,2.219,2.001,3.472,2.391c0.055,0.015,0.082,0.021,0.082,0.021c0.054,0.012,0.081,0.018,0.081,0.018
			c0.054,0.01,0.081,0.014,0.081,0.014c0.053,0.008,0.08,0.011,0.08,0.011c0.053,0.005,0.079,0.007,0.079,0.007
			c0.052,0.002,0.078,0.003,0.078,0.003c0.052,0,0.078-0.001,0.078-0.001c0.077-0.005,0.102-0.008,0.102-0.008
			c0.076-0.011,0.101-0.015,0.101-0.015c0.074-0.017,0.099-0.023,0.099-0.023c0.075-0.023,0.111-0.037,0.111-0.037
			c0.073-0.03,0.109-0.047,0.109-0.047c0.072-0.037,0.107-0.057,0.107-0.057c0.07-0.044,0.105-0.067,0.105-0.067
			c0.069-0.05,0.103-0.077,0.103-0.077c0.068-0.056,0.101-0.086,0.101-0.086c0.066-0.063,0.099-0.095,0.099-0.095
			c0.065-0.069,0.097-0.104,0.097-0.104c0.528-0.623,0.801-1.274,1.091-1.998c0.398-1.035,0.708-2.174,0.986-3.248
			c0.562-2.175,1.277-5.672,2.001-7.776c0.281-0.809,0.63-1.705,1.143-2.377c0.062-0.077,0.093-0.114,0.093-0.114
			c0.063-0.071,0.095-0.105,0.095-0.105c0.064-0.065,0.096-0.096,0.096-0.096c0.065-0.059,0.098-0.087,0.098-0.087
			c0.067-0.053,0.1-0.078,0.1-0.078c0.068-0.047,0.102-0.068,0.102-0.068c0.075-0.043,0.094-0.053,0.094-0.053
			c0.076-0.037,0.095-0.045,0.095-0.045c0.077-0.031,0.097-0.038,0.097-0.038c0.059-0.019,0.078-0.025,0.078-0.025
			c0.059-0.016,0.079-0.021,0.079-0.021c0.06-0.013,0.08-0.017,0.08-0.017c0.061-0.01,0.081-0.013,0.081-0.013
			c0.061-0.007,0.082-0.009,0.082-0.009c0.062-0.004,0.082-0.005,0.082-0.005c0.062-0.001,0.083-0.001,0.083-0.001
			c0.063,0.001,0.084,0.002,0.084,0.002c0.063,0.004,0.084,0.005,0.084,0.005c1.092,0.102,2.045,0.799,3.107,0.962
			c0.059,0.007,0.078,0.009,0.078,0.009c0.077,0.006,0.096,0.007,0.096,0.007c0.076,0.002,0.095,0.002,0.095,0.002
			c0.075-0.002,0.093-0.003,0.093-0.003c0.073-0.007,0.091-0.009,0.091-0.009c0.072-0.012,0.09-0.015,0.09-0.015
			c0.071-0.017,0.088-0.021,0.088-0.021c0.069-0.022,0.086-0.028,0.086-0.028c0.068-0.027,0.084-0.035,0.084-0.035
			c0.066-0.033,0.082-0.042,0.082-0.042c0.064-0.039,0.08-0.05,0.08-0.05c0.062-0.046,0.078-0.058,0.078-0.058
			c0.076-0.066,0.105-0.095,0.105-0.095c0.058-0.061,0.087-0.094,0.087-0.094c0.056-0.069,0.084-0.106,0.084-0.106
			c0.054-0.077,0.081-0.117,0.081-0.117c0.026-0.041,0.052-0.084,0.052-0.084c0.411-0.727,0.568-1.453,0.738-2.239
			c0.523-2.573,0.699-6.848,0.911-9.505c0.135-1.747,0.276-3.691,0.593-5.409c0.153-0.791,0.352-1.688,0.746-2.373
			c0.025-0.042,0.051-0.082,0.051-0.082c0.026-0.039,0.052-0.077,0.052-0.077c0.053-0.072,0.08-0.107,0.08-0.107
			c0.055-0.065,0.083-0.095,0.083-0.095c0.057-0.057,0.087-0.084,0.087-0.084c0.06-0.049,0.09-0.072,0.09-0.072
			c0.076-0.05,0.09-0.058,0.09-0.058c0.073-0.037,0.087-0.044,0.087-0.044c0.075-0.029,0.09-0.034,0.09-0.034
			c0.077-0.021,0.092-0.025,0.092-0.025c0.063-0.012,0.079-0.014,0.079-0.014c0.064-0.007,0.08-0.008,0.08-0.008
			c0.065-0.003,0.082-0.003,0.082-0.003c0.066,0.002,0.083,0.002,0.083,0.002c0.067,0.005,0.084,0.007,0.084,0.007
			c0.068,0.009,0.085,0.012,0.085,0.012c0.069,0.013,0.104,0.02,0.104,0.02c0.07,0.017,0.105,0.026,0.105,0.026
			c0.071,0.02,0.106,0.031,0.106,0.031c0.331,0.109,0.548,0.221,0.802,0.349c0.348,0.181,1.007,0.552,1.348,0.671
			c0.065,0.023,0.097,0.034,0.097,0.034c0.064,0.02,0.095,0.029,0.095,0.029c0.062,0.016,0.078,0.02,0.078,0.02
			c0.076,0.016,0.091,0.018,0.091,0.018c0.074,0.01,0.089,0.012,0.089,0.012c0.072,0.004,0.086,0.005,0.086,0.005
			c0.07-0.002,0.083-0.003,0.083-0.003c0.067-0.008,0.08-0.011,0.08-0.011c0.077-0.019,0.09-0.023,0.09-0.023
			c0.073-0.029,0.085-0.035,0.085-0.035c0.069-0.04,0.081-0.048,0.081-0.048c0.069-0.055,0.082-0.067,0.082-0.067
			c0.064-0.068,0.076-0.083,0.076-0.083c0.048-0.063,0.06-0.08,0.06-0.08c0.045-0.071,0.056-0.09,0.056-0.09
			c0.032-0.058,0.043-0.078,0.043-0.078c0.031-0.062,0.041-0.084,0.041-0.084c0.281-0.666,0.348-1.29,0.449-1.975
			c0.161-1.12,0.206-2.458,0.551-3.532c0.025-0.066,0.033-0.088,0.033-0.088c0.026-0.062,0.035-0.082,0.035-0.082
			c0.037-0.077,0.046-0.095,0.046-0.095c0.039-0.069,0.049-0.086,0.049-0.086c0.052-0.076,0.063-0.09,0.063-0.09
			c0.068-0.075,0.079-0.086,0.079-0.086c0.073-0.057,0.086-0.064,0.086-0.064c0.066-0.032,0.08-0.037,0.08-0.037
			c0.071-0.017,0.085-0.019,0.085-0.019c0.075-0.002,0.098,0,0.098,0c0.072,0.012,0.097,0.018,0.097,0.018
			c0.076,0.025,0.102,0.036,0.102,0.036c0.053,0.024,0.08,0.038,0.08,0.038c0.055,0.03,0.083,0.047,0.083,0.047
			c0.057,0.036,0.086,0.056,0.086,0.056c0.059,0.042,0.089,0.065,0.089,0.065c0.061,0.048,0.092,0.073,0.092,0.073
			c0.509,0.442,0.815,0.846,1.205,1.342c0.514,0.673,1.05,1.463,1.52,2.17c1.136,1.725,2.873,4.517,4.099,6.139
			c0.368,0.484,0.849,1.078,1.29,1.456c0.065,0.054,0.096,0.08,0.096,0.08c0.063,0.049,0.094,0.071,0.094,0.071
			c0.061,0.043,0.091,0.063,0.091,0.063c0.059,0.037,0.088,0.054,0.088,0.054c0.057,0.031,0.086,0.045,0.086,0.045
			c0.055,0.025,0.083,0.036,0.083,0.036c0.053,0.019,0.08,0.026,0.08,0.026c0.077,0.017,0.102,0.02,0.102,0.02
			c0.073,0.003,0.096,0.002,0.096,0.002c0.068-0.01,0.09-0.016,0.09-0.016c0.071-0.028,0.094-0.041,0.094-0.041
			c0.066-0.046,0.087-0.064,0.087-0.064c0.061-0.063,0.08-0.087,0.08-0.087c0.037-0.052,0.055-0.079,0.055-0.079
			c0.035-0.06,0.052-0.091,0.052-0.091c0.032-0.067,0.048-0.103,0.048-0.103c0.03-0.075,0.044-0.115,0.044-0.115
			c0.206-0.626,0.239-1.212,0.283-1.85c0.134-2.946-0.199-7.239-0.23-10.202c-0.014-1.207-0.012-2.503,0.098-3.704
			c0.075-0.755,0.189-1.619,0.496-2.293c0.021-0.044,0.043-0.087,0.043-0.087c0.022-0.042,0.044-0.082,0.044-0.082
			c0.023-0.039,0.046-0.077,0.046-0.077c0.048-0.072,0.073-0.107,0.073-0.107c0.051-0.065,0.077-0.095,0.077-0.095
			c0.054-0.057,0.082-0.083,0.082-0.083c0.057-0.049,0.086-0.071,0.086-0.071c0.06-0.04,0.078-0.051,0.078-0.051
			c0.075-0.039,0.095-0.048,0.095-0.048c0.059-0.023,0.079-0.029,0.079-0.029c0.061-0.017,0.082-0.022,0.082-0.022
			c0.063-0.012,0.084-0.015,0.084-0.015c0.065-0.006,0.087-0.007,0.087-0.007c0.067-0.001,0.089-0.001,0.089-0.001
			c0.069,0.004,0.092,0.006,0.092,0.006c0.07,0.008,0.094,0.012,0.094,0.012c0.072,0.013,0.096,0.018,0.096,0.018
			c0.073,0.017,0.098,0.024,0.098,0.024c0.075,0.022,0.1,0.029,0.1,0.029c0.717,0.249,1.241,0.642,1.833,1.062
			c0.712,0.514,1.817,1.442,2.594,1.812c0.067,0.03,0.088,0.039,0.088,0.039c0.065,0.026,0.086,0.034,0.086,0.034
			c0.063,0.022,0.083,0.029,0.083,0.029c0.061,0.018,0.081,0.023,0.081,0.023c0.059,0.014,0.078,0.018,0.078,0.018
			c0.075,0.012,0.093,0.014,0.093,0.014c0.071,0.004,0.089,0.004,0.089,0.004c0.067-0.005,0.084-0.007,0.084-0.007
			c0.063-0.013,0.079-0.018,0.079-0.018c0.073-0.029,0.087-0.036,0.087-0.036c0.062-0.039,0.078-0.052,0.078-0.052
			c0.063-0.06,0.077-0.077,0.077-0.077c0.055-0.076,0.068-0.096,0.068-0.096c0.037-0.067,0.048-0.091,0.048-0.091
			c0.033-0.076,0.043-0.102,0.043-0.102c0.02-0.055,0.029-0.084,0.029-0.084c0.018-0.059,0.026-0.09,0.026-0.09
			c0.016-0.063,0.023-0.096,0.023-0.096c0.105-0.511,0.102-0.938,0.097-1.441c-0.017-0.878-0.13-1.91-0.227-2.788
			c-0.148-1.303-0.486-3.733-0.538-5.017c-0.018-0.415-0.024-0.946,0.045-1.333c0.011-0.06,0.018-0.089,0.018-0.089
			c0.013-0.056,0.02-0.083,0.02-0.083c0.023-0.077,0.031-0.101,0.031-0.101c0.026-0.068,0.036-0.09,0.036-0.09
			c0.03-0.06,0.041-0.078,0.041-0.078c0.046-0.066,0.058-0.08,0.058-0.08c0.07-0.062,0.078-0.067,0.078-0.067
			c0.073-0.035,0.082-0.038,0.082-0.038c0.071-0.015,0.081-0.016,0.081-0.016c0.077-0.001,0.088-0.001,0.088-0.001
			c0.07,0.009,0.082,0.011,0.082,0.011c0.074,0.018,0.087,0.022,0.087,0.022c0.065,0.021,0.078,0.026,0.078,0.026
			c0.054,0.021,0.081,0.033,0.081,0.033c0.056,0.025,0.084,0.039,0.084,0.039c0.239,0.12,0.375,0.214,0.555,0.33
			c0.44,0.297,1.104,0.783,1.56,0.986c0.068,0.03,0.102,0.045,0.102,0.045c0.068,0.027,0.101,0.039,0.101,0.039
			c0.067,0.023,0.083,0.028,0.083,0.028c0.066,0.019,0.082,0.024,0.082,0.024c0.065,0.016,0.081,0.019,0.081,0.019
			c0.064,0.012,0.08,0.014,0.08,0.014c0.063,0.007,0.078,0.009,0.078,0.009c0.077,0.003,0.092,0.003,0.092,0.003
			c0.075-0.004,0.09-0.005,0.09-0.005c0.073-0.011,0.087-0.014,0.087-0.014c0.071-0.019,0.085-0.024,0.085-0.024
			c0.068-0.028,0.082-0.034,0.082-0.034c0.07-0.039,0.1-0.058,0.1-0.058c0.058-0.044,0.086-0.068,0.086-0.068
			c0.055-0.053,0.083-0.082,0.083-0.082c0.053-0.062,0.079-0.096,0.079-0.096c0.05-0.071,0.075-0.109,0.075-0.109
			c0.024-0.039,0.048-0.08,0.048-0.08c0.023-0.042,0.046-0.085,0.046-0.085c0.022-0.045,0.045-0.091,0.045-0.091
			c0.313-0.713,0.41-1.388,0.519-2.128c0.365-2.711,0.298-7.387,0.361-10.168c0.037-1.81,0.075-3.865,0.278-5.656
			c0.117-0.956,0.264-2.034,0.669-2.894c0.024-0.048,0.049-0.095,0.049-0.095c0.025-0.045,0.05-0.09,0.05-0.09
			c0.026-0.043,0.052-0.084,0.052-0.084c0.027-0.04,0.054-0.078,0.054-0.078c0.056-0.073,0.084-0.107,0.084-0.107
			c0.058-0.064,0.088-0.093,0.088-0.093c0.061-0.055,0.092-0.08,0.092-0.08c0.064-0.045,0.097-0.066,0.097-0.066
			c0.069-0.037,0.087-0.045,0.087-0.045c0.072-0.029,0.09-0.035,0.09-0.035c0.074-0.021,0.093-0.025,0.093-0.025
			c0.076-0.013,0.096-0.016,0.096-0.016c0.059-0.005,0.079-0.006,0.079-0.006c0.06-0.001,0.08-0.001,0.08-0.001
			c0.061,0.003,0.082,0.005,0.082,0.005c0.062,0.007,0.083,0.01,0.083,0.01c0.064,0.011,0.085,0.015,0.085,0.015
			c0.065,0.014,0.086,0.019,0.086,0.019c0.066,0.017,0.088,0.024,0.088,0.024c1.295,0.432,2.316,1.524,3.564,2.029
			c0.066,0.025,0.088,0.032,0.088,0.032c0.065,0.022,0.087,0.028,0.087,0.028c0.064,0.019,0.086,0.024,0.086,0.024
			c0.063,0.015,0.084,0.02,0.084,0.02c0.062,0.012,0.083,0.015,0.083,0.015c0.061,0.008,0.081,0.01,0.081,0.01
			c0.06,0.004,0.079,0.005,0.079,0.005c0.058,0.001,0.078,0,0.078,0c0.076-0.005,0.095-0.008,0.095-0.008
			c0.074-0.013,0.092-0.017,0.092-0.017c0.071-0.02,0.089-0.026,0.089-0.026c0.069-0.028,0.086-0.036,0.086-0.036
			c0.066-0.036,0.082-0.046,0.082-0.046c0.048-0.033,0.082-0.059,0.082-0.059c0.066-0.059,0.098-0.092,0.098-0.092
			c0.062-0.071,0.092-0.11,0.092-0.11c0.029-0.041,0.058-0.083,0.058-0.083c0.028-0.045,0.056-0.091,0.056-0.091
			c0.027-0.048,0.053-0.099,0.053-0.099c0.026-0.052,0.051-0.106,0.051-0.106c0.024-0.056,0.048-0.114,0.048-0.114
			c0.35-0.94,0.413-1.852,0.489-2.825c0.12-1.987,0.045-4.115-0.038-6.106c-0.189-4.595-0.822-11.038-0.743-15.615
			c0.031-0.861,0.075-1.845,0.313-2.657c0.018-0.056,0.036-0.109,0.036-0.109c0.019-0.052,0.038-0.102,0.038-0.102
			c0.02-0.048,0.04-0.094,0.04-0.094c0.021-0.044,0.042-0.086,0.042-0.086c0.022-0.04,0.045-0.079,0.045-0.079
			c0.047-0.071,0.071-0.103,0.071-0.103c0.051-0.058,0.077-0.084,0.077-0.084c0.054-0.046,0.082-0.066,0.082-0.066
			c0.073-0.04,0.084-0.045,0.084-0.045c0.069-0.023,0.081-0.026,0.081-0.026c0.072-0.011,0.085-0.012,0.085-0.012
			c0.075,0,0.088,0,0.088,0c0.065,0.007,0.078,0.01,0.078,0.01c0.067,0.014,0.081,0.018,0.081,0.018
			c0.069,0.021,0.083,0.025,0.083,0.025c0.07,0.027,0.085,0.033,0.085,0.033c0.057,0.025,0.087,0.039,0.087,0.039
			c0.059,0.03,0.088,0.045,0.088,0.045c0.06,0.033,0.09,0.051,0.09,0.051c0.64,0.391,1.215,0.987,1.804,1.393
			c0.085,0.058,0.14,0.091,0.169,0.108c0.054,0.031,0.081,0.046,0.081,0.046c0.066,0.034,0.079,0.04,0.079,0.04
			c0.077,0.033,0.089,0.038,0.089,0.038c0.073,0.025,0.086,0.028,0.086,0.028c0.07,0.016,0.082,0.018,0.082,0.018
			c0.067,0.006,0.078,0.006,0.078,0.006c0.073-0.006,0.083-0.008,0.083-0.008c0.068-0.021,0.077-0.025,0.077-0.025
			c0.077-0.048,0.096-0.064,0.096-0.064c0.055-0.059,0.072-0.081,0.072-0.081c0.048-0.077,0.063-0.106,0.063-0.106
			c0.029-0.062,0.042-0.095,0.042-0.095c0.026-0.07,0.038-0.107,0.038-0.107c0.012-0.039,0.023-0.079,0.023-0.079
			c0.163-0.688,0.138-1.326,0.13-2.011c-0.134-3.404-0.871-8.197-1.2-11.605c-0.141-1.438-0.279-2.985-0.285-4.428
			c0.004-0.78,0.022-1.669,0.255-2.398c0.016-0.045,0.032-0.088,0.032-0.088c0.017-0.042,0.034-0.083,0.034-0.083
			c0.018-0.039,0.036-0.077,0.036-0.077c0.038-0.072,0.058-0.106,0.058-0.106c0.041-0.063,0.063-0.093,0.063-0.093
			c0.045-0.055,0.068-0.08,0.068-0.08c0.065-0.059,0.079-0.07,0.079-0.07c0.072-0.048,0.087-0.057,0.087-0.057
			c0.062-0.029,0.078-0.035,0.078-0.035c0.065-0.021,0.082-0.025,0.082-0.025c0.068-0.013,0.085-0.015,0.085-0.015
			c0.071-0.005,0.089-0.005,0.089-0.005c0.074,0.003,0.093,0.004,0.093,0.004c0.077,0.01,0.096,0.013,0.096,0.013
			c0.059,0.012,0.079,0.016,0.079,0.016c0.061,0.016,0.081,0.022,0.081,0.022c0.062,0.02,0.083,0.027,0.083,0.027
			c0.064,0.023,0.085,0.031,0.085,0.031c0.602,0.254,1.044,0.609,1.546,0.99c0.825,0.632,1.886,1.613,2.823,2.039
			c0.065,0.027,0.086,0.036,0.086,0.036c0.064,0.024,0.085,0.031,0.085,0.031c0.062,0.02,0.083,0.026,0.083,0.026
			c0.061,0.016,0.081,0.021,0.081,0.021c0.059,0.012,0.079,0.016,0.079,0.016c0.077,0.01,0.109,0.013,0.109,0.013
			c0.064,0.002,0.095,0.002,0.095,0.002c0.061-0.004,0.091-0.007,0.091-0.007c0.059-0.01,0.088-0.016,0.088-0.016
			c0.057-0.016,0.084-0.026,0.084-0.026c0.054-0.022,0.081-0.034,0.081-0.034c0.052-0.028,0.078-0.043,0.078-0.043
			c0.074-0.052,0.098-0.071,0.098-0.071c0.07-0.063,0.092-0.086,0.092-0.086c0.066-0.074,0.087-0.101,0.087-0.101
			c0.041-0.056,0.061-0.085,0.061-0.085c0.039-0.061,0.058-0.093,0.058-0.093c0.037-0.066,0.055-0.101,0.055-0.101
			c0.035-0.072,0.052-0.109,0.052-0.109c0.37-0.892,0.414-1.806,0.468-2.746c0.086-2.522-0.18-5.204-0.426-7.717
			c-0.602-4.843-1.395-12.448-2.109-17.219c-0.219-1.344-0.485-2.738-0.854-4.048C579.21,148.368,578.378,146.373,576.887,144.982z"
			/>
	</g>
	<g id="POLYLINE_14_">
		
			<path fill="none" stroke="#FB8604" stroke-width="2.75" stroke-linecap="round" stroke-linejoin="round" stroke-miterlimit="10" d="
			M453.409,581.799c2.268,3.654,4.627,7.604,7.287,10.978c0.598,0.742,1.315,1.542,2.142,1.968c1.121,0.615,2.391,0.912,3.647,1.098
			c0.988,0.142,2.02,0.21,3.017,0.232c1.776,0.012,14.201,0.023,15.822-0.011c2.268-0.062,4.593-0.197,6.815-0.673
			c0.965-0.228,2.051-0.481,2.85-1.064c0.077-0.058,0.114-0.088,0.114-0.088c0.073-0.061,0.109-0.092,0.109-0.092
			c0.07-0.063,0.104-0.095,0.104-0.095c0.067-0.066,0.099-0.099,0.099-0.099c0.064-0.068,0.095-0.103,0.095-0.103
			c0.06-0.071,0.09-0.107,0.09-0.107c0.057-0.073,0.085-0.111,0.085-0.111c0.536-0.729,0.702-1.635,0.702-2.472
			c0-1.17-0.301-2.309-0.624-3.424c-0.599-2.029-1.459-4.003-2.642-5.761c-2.419-3.363-7.05-8.457-9.763-11.666"/>
	</g>
</g>
<g id="AG-OUTLINE">
	<g id="POLYLINE_5_">
		
			<path fill="none" stroke="#FB8604" stroke-width="3.5" stroke-linecap="round" stroke-linejoin="round" stroke-miterlimit="10" d="
			M453.409,581.799c2.268,3.654,4.627,7.604,7.287,10.978c0.598,0.742,1.315,1.542,2.142,1.968c1.121,0.615,2.391,0.912,3.647,1.098
			c0.988,0.142,2.02,0.21,3.017,0.232c1.776,0.012,14.201,0.023,15.822-0.011c2.268-0.062,4.593-0.197,6.815-0.673
			c0.965-0.228,2.051-0.481,2.85-1.064c0.077-0.058,0.114-0.088,0.114-0.088c0.073-0.061,0.109-0.092,0.109-0.092
			c0.07-0.063,0.104-0.095,0.104-0.095c0.067-0.066,0.099-0.099,0.099-0.099c0.064-0.068,0.095-0.103,0.095-0.103
			c0.06-0.071,0.09-0.107,0.09-0.107c0.057-0.073,0.085-0.111,0.085-0.111c0.536-0.729,0.702-1.635,0.702-2.472
			c0-1.17-0.301-2.309-0.624-3.424c-0.599-2.029-1.459-4.003-2.642-5.761c-2.419-3.363-7.05-8.457-9.763-11.666
			c0.196-0.17,0.51-0.453,0.658-0.619c0.097-0.105,0.164-0.189,0.207-0.246c0.042-0.056,0.062-0.085,0.062-0.085
			c0.039-0.058,0.058-0.087,0.058-0.087c0.036-0.059,0.054-0.089,0.054-0.089c0.041-0.075,0.049-0.091,0.049-0.091
			c0.03-0.062,0.037-0.077,0.037-0.077c0.027-0.063,0.033-0.079,0.033-0.079c0.024-0.065,0.03-0.081,0.03-0.081
			c0.021-0.066,0.026-0.083,0.026-0.083c0.018-0.068,0.021-0.085,0.021-0.085c0.014-0.069,0.017-0.087,0.017-0.087
			c0.01-0.071,0.013-0.089,0.013-0.089c0.005-0.054,0.008-0.085,0.008-0.085c0.003-0.063,0.004-0.095,0.004-0.095
			c0-0.064-0.001-0.097-0.001-0.097c-0.003-0.066-0.006-0.099-0.006-0.099c-0.006-0.067-0.01-0.102-0.01-0.102
			c-0.009-0.069-0.015-0.104-0.015-0.104c-0.012-0.07-0.019-0.106-0.019-0.106c-0.181-0.813-0.568-1.498-0.991-2.195
			c-0.795-1.268-1.794-2.536-2.737-3.704c-2.182-2.707-4.969-5.839-6.62-8.872c-0.919-1.661-1.608-3.456-2.036-5.305
			c-0.522-2.221-0.712-4.562-0.82-6.838c-0.167-3.788-0.099-7.876,0.061-11.666c0.217-4.805,0.63-9.885,1.273-14.652
			c0.488-3.668,1.21-7.375,2.249-10.928c1.07-3.566,2.448-8.045,3.108-11.684c1.489-8.1,2.739-22.274,4.087-30.408
			c0.778-4.833,1.744-9.891,3.128-14.588c0.922-3.127,2.1-6.302,3.386-9.297c2.126-5.03,5.428-11.155,7.519-16.196
			c0.875-2.1,1.604-4.328,2.164-6.534c1.052-4.002,1.831-9.073,4.105-12.565c1.023-1.582,2.41-2.902,3.879-4.067
			c3.028-2.368,6.772-4.558,9.811-6.913c2.86-2.172,5.476-4.702,7.823-7.418c3.321-3.846,6.201-8.099,8.559-12.599
			c2.364-4.533,4.229-9.378,5.227-14.401c1.504-7.552,0.854-15.366-0.369-22.913c0,0-1.812-10.54-1.812-10.54
			c-0.874-5.513-1.411-11.229-0.237-16.737c1.221-5.706,4.212-11.587,6.176-17.067c0.96-2.614,1.814-5.353,2.444-8.066
			c0.982-4.21,1.609-8.67,2.124-12.963c0.917,1.401,2.18,3.417,3.198,4.719c0.32,0.411,0.749,0.923,1.127,1.245
			c0.069,0.058,0.103,0.085,0.103,0.085c0.067,0.051,0.1,0.076,0.1,0.076c0.065,0.045,0.081,0.056,0.081,0.056
			c0.063,0.039,0.079,0.049,0.079,0.049c0.077,0.042,0.092,0.049,0.092,0.049c0.074,0.033,0.088,0.038,0.088,0.038
			c0.071,0.024,0.085,0.028,0.085,0.028c0.068,0.015,0.081,0.017,0.081,0.017c0.065,0.005,0.078,0.005,0.078,0.005
			c0.074-0.007,0.086-0.009,0.086-0.009c0.06-0.017,0.083-0.026,0.083-0.026c0.069-0.037,0.091-0.053,0.091-0.053
			c0.063-0.055,0.083-0.076,0.083-0.076c0.058-0.071,0.076-0.098,0.076-0.098c0.036-0.057,0.053-0.087,0.053-0.087
			c0.033-0.065,0.049-0.099,0.049-0.099c0.031-0.073,0.046-0.111,0.046-0.111c0.221-0.64,0.251-1.239,0.298-1.889
			c0.134-2.946-0.199-7.239-0.23-10.202c-0.014-1.207-0.012-2.503,0.098-3.704c0.075-0.755,0.189-1.619,0.496-2.293
			c0.021-0.044,0.043-0.087,0.043-0.087c0.022-0.042,0.044-0.082,0.044-0.082c0.023-0.039,0.046-0.077,0.046-0.077
			c0.048-0.072,0.073-0.107,0.073-0.107c0.051-0.065,0.077-0.095,0.077-0.095c0.054-0.057,0.082-0.083,0.082-0.083
			c0.057-0.049,0.086-0.071,0.086-0.071c0.06-0.04,0.078-0.051,0.078-0.051c0.075-0.039,0.095-0.048,0.095-0.048
			c0.059-0.023,0.079-0.029,0.079-0.029c0.061-0.017,0.082-0.022,0.082-0.022c0.063-0.012,0.084-0.015,0.084-0.015
			c0.065-0.006,0.087-0.007,0.087-0.007c0.067-0.001,0.089-0.001,0.089-0.001c0.069,0.004,0.092,0.006,0.092,0.006
			c0.07,0.008,0.094,0.012,0.094,0.012c0.072,0.013,0.096,0.018,0.096,0.018c0.073,0.017,0.098,0.024,0.098,0.024
			c0.075,0.022,0.1,0.029,0.1,0.029c0.717,0.249,1.241,0.642,1.833,1.062c0.712,0.514,1.817,1.442,2.594,1.812
			c0.067,0.03,0.088,0.039,0.088,0.039c0.065,0.026,0.086,0.034,0.086,0.034c0.063,0.022,0.083,0.029,0.083,0.029
			c0.061,0.018,0.081,0.023,0.081,0.023c0.059,0.014,0.078,0.018,0.078,0.018c0.075,0.012,0.093,0.014,0.093,0.014
			c0.071,0.004,0.089,0.004,0.089,0.004c0.067-0.005,0.084-0.007,0.084-0.007c0.063-0.013,0.079-0.018,0.079-0.018
			c0.073-0.029,0.087-0.036,0.087-0.036c0.062-0.039,0.078-0.052,0.078-0.052c0.063-0.06,0.077-0.077,0.077-0.077
			c0.055-0.076,0.068-0.096,0.068-0.096c0.037-0.067,0.048-0.091,0.048-0.091c0.033-0.076,0.043-0.102,0.043-0.102
			c0.02-0.055,0.029-0.084,0.029-0.084c0.018-0.059,0.026-0.09,0.026-0.09c0.016-0.063,0.023-0.096,0.023-0.096
			c0.105-0.511,0.102-0.938,0.097-1.441c-0.017-0.878-0.13-1.91-0.227-2.788c-0.148-1.303-0.486-3.733-0.538-5.017
			c-0.018-0.415-0.024-0.946,0.045-1.333c0.011-0.06,0.018-0.089,0.018-0.089c0.013-0.056,0.02-0.083,0.02-0.083
			c0.023-0.077,0.031-0.101,0.031-0.101c0.026-0.068,0.036-0.09,0.036-0.09c0.03-0.06,0.041-0.078,0.041-0.078
			c0.046-0.066,0.058-0.08,0.058-0.08c0.07-0.062,0.078-0.067,0.078-0.067c0.073-0.035,0.082-0.038,0.082-0.038
			c0.071-0.015,0.081-0.016,0.081-0.016c0.077-0.001,0.088-0.001,0.088-0.001c0.07,0.009,0.082,0.011,0.082,0.011
			c0.074,0.018,0.087,0.022,0.087,0.022c0.065,0.021,0.078,0.026,0.078,0.026c0.054,0.021,0.081,0.033,0.081,0.033
			c0.056,0.025,0.084,0.039,0.084,0.039c0.239,0.12,0.375,0.214,0.555,0.33c0.44,0.297,1.104,0.783,1.56,0.986
			c0.068,0.03,0.102,0.045,0.102,0.045c0.068,0.027,0.101,0.039,0.101,0.039c0.067,0.023,0.083,0.028,0.083,0.028
			c0.066,0.019,0.082,0.024,0.082,0.024c0.065,0.016,0.081,0.019,0.081,0.019c0.064,0.012,0.08,0.014,0.08,0.014
			c0.063,0.007,0.078,0.009,0.078,0.009c0.077,0.003,0.092,0.003,0.092,0.003c0.075-0.004,0.09-0.005,0.09-0.005
			c0.073-0.011,0.087-0.014,0.087-0.014c0.071-0.019,0.085-0.024,0.085-0.024c0.068-0.028,0.082-0.034,0.082-0.034
			c0.067-0.037,0.081-0.046,0.081-0.046c0.067-0.048,0.08-0.059,0.08-0.059c0.077-0.071,0.089-0.084,0.089-0.084
			c0.061-0.07,0.073-0.084,0.073-0.084c0.047-0.062,0.058-0.079,0.058-0.079c0.045-0.069,0.056-0.087,0.056-0.087
			c0.043-0.075,0.054-0.094,0.054-0.094c0.439-0.881,0.54-1.893,0.657-2.842c0.207-2.025,0.224-4.327,0.256-6.368
			c4.65,3.944,9.422,8.355,13.721,12.676c3.138,3.198,6.303,6.56,8.935,10.188c0.88,1.235,1.726,2.529,2.345,3.917
			c0.516,1.129,0.836,2.517,1.255,3.685c0.227,0.626,0.591,1.275,1.026,1.735c0.546,0.586,1.137,0.958,1.815,1.317
			c1.71,0.874,3.592,1.393,5.462,1.795c2.519,0.522,5.111,0.79,7.684,0.792c2.722-0.023,5.527-0.272,8.053-1.353
			c1.353-0.581,2.647-1.521,3.627-2.59c1.816-1.929,2.974-4.565,4.124-6.926c0.754,0.004,1.371-0.17,2.033-0.451
			c0.696-0.298,1.439-0.807,1.951-1.334c0.663-0.67,1.115-1.464,1.284-2.332c0.215-1.184,0.007-2.254-0.279-3.371
			c-0.438-1.684-1.545-4.324-2.171-5.977c-0.703-1.815-1.348-3.803-1.886-5.676c-1.938-6.784-3.388-14.316-5.979-20.888
			c0.416-1.124,0.865-2.392,1.563-3.356c0.061-0.075,0.081-0.099,0.081-0.099c0.06-0.067,0.08-0.088,0.08-0.088
			c0.07-0.067,0.08-0.076,0.08-0.076c0.069-0.056,0.079-0.064,0.079-0.064c0.069-0.045,0.078-0.05,0.078-0.05
			c0.077-0.036,0.087-0.039,0.087-0.039c0.076-0.019,0.085-0.02,0.085-0.02c0.074-0.001,0.083,0,0.083,0
			c0.072,0.018,0.081,0.022,0.081,0.022c0.074,0.041,0.084,0.047,0.084,0.047c0.073,0.064,0.082,0.073,0.082,0.073
			c0.062,0.073,0.071,0.084,0.071,0.084c0.052,0.074,0.061,0.088,0.061,0.088c0.043,0.07,0.06,0.1,0.06,0.1
			c0.033,0.062,0.05,0.095,0.05,0.095c0.217,0.451,0.321,0.821,0.459,1.28c0.186,0.637,0.505,1.972,0.762,2.557
			c0.027,0.061,0.041,0.09,0.041,0.09c0.028,0.055,0.042,0.081,0.042,0.081c0.042,0.072,0.049,0.083,0.049,0.083
			c0.05,0.07,0.057,0.078,0.057,0.078c0.072,0.071,0.079,0.077,0.079,0.077c0.076,0.037,0.088,0.04,0.088,0.04
			c0.075-0.001,0.087-0.004,0.087-0.004c0.076-0.035,0.089-0.044,0.089-0.044c0.077-0.069,0.09-0.083,0.09-0.083
			c0.052-0.064,0.064-0.082,0.064-0.082c0.039-0.058,0.052-0.079,0.052-0.079c0.039-0.067,0.052-0.09,0.052-0.09
			c0.403-0.822,0.555-1.646,0.74-2.519c0.323-1.691,0.505-3.46,0.585-5.18c0.079-2.008,0.049-4.056-0.343-6.032
			c-0.273-1.397-0.806-2.766-1.352-4.078c-0.049-0.123-0.124-0.332-0.148-0.418c-0.019-0.072-0.025-0.095-0.025-0.095
			c-0.015-0.074-0.016-0.084-0.016-0.084c-0.007-0.073-0.007-0.081-0.007-0.081c0.008-0.073,0.009-0.079,0.009-0.079
			c0.051-0.077,0.056-0.08,0.056-0.08c0.072-0.024,0.08-0.025,0.08-0.025c0.076,0.001,0.085,0.002,0.085,0.002
			c0.072,0.012,0.083,0.015,0.083,0.015c0.071,0.019,0.096,0.026,0.096,0.026c0.24,0.075,0.484,0.192,0.651,0.268l1.811,0.885
			c0.54,0.248,1.146,0.518,1.723,0.632c0.077,0.013,0.115,0.019,0.115,0.019c0.074,0.009,0.092,0.011,0.092,0.011
			c0.071,0.006,0.088,0.007,0.088,0.007c0.068,0.002,0.085,0.002,0.085,0.002c0.065-0.002,0.081-0.003,0.081-0.003
			c0.076-0.008,0.091-0.01,0.091-0.01c0.071-0.015,0.085-0.018,0.085-0.018c0.066-0.021,0.078-0.026,0.078-0.026
			c0.071-0.035,0.088-0.045,0.088-0.045c0.077-0.058,0.091-0.071,0.091-0.071c0.065-0.073,0.076-0.089,0.076-0.089
			c0.043-0.069,0.053-0.087,0.053-0.087c0.027-0.058,0.035-0.079,0.035-0.079c0.022-0.064,0.029-0.086,0.029-0.086
			c0.018-0.069,0.023-0.093,0.023-0.093c0.014-0.074,0.017-0.1,0.017-0.1c0.007-0.053,0.009-0.08,0.009-0.08
			c0.005-0.055,0.006-0.083,0.006-0.083c0.019-0.438-0.05-0.808-0.123-1.187c-0.104-0.509-0.262-1.059-0.416-1.557
			c-0.809-2.574-2.18-5.851-2.875-8.451c-0.325-1.209-0.557-2.477-0.701-3.721c-0.223-1.904-0.295-4.108-0.628-5.995
			c-0.272-1.622-0.75-3.22-1.32-4.76c-1.838-4.888-4.43-9.558-7.169-13.995c-2.306-3.677-4.885-7.356-7.748-10.62
			c-2.207-2.532-4.747-4.952-7.257-7.185c1.535-3.542,3.539-7.361,4.798-11.005c0.785-2.23,1.34-4.569,1.599-6.919
			c0.106-0.965,0.174-1.973,0.158-2.944c-0.015-0.661-0.058-1.412-0.252-2.03c-0.021-0.06-0.028-0.08-0.028-0.08
			c-0.029-0.075-0.037-0.093-0.037-0.093c-0.031-0.069-0.039-0.085-0.039-0.085c-0.041-0.077-0.05-0.091-0.05-0.091
			c-0.044-0.066-0.053-0.079-0.053-0.079c-0.066-0.076-0.076-0.085-0.076-0.085c-0.071-0.055-0.082-0.062-0.082-0.062
			c-0.075-0.034-0.085-0.037-0.085-0.037c-0.072-0.013-0.082-0.014-0.082-0.014c-0.075,0.003-0.086,0.005-0.086,0.005
			c-0.068,0.015-0.079,0.019-0.079,0.019c-0.071,0.027-0.083,0.032-0.083,0.032c-0.074,0.038-0.086,0.045-0.086,0.045
			c-0.076,0.048-0.089,0.057-0.089,0.057c-0.053,0.038-0.079,0.059-0.079,0.059c-0.054,0.044-0.082,0.067-0.082,0.067
			c-0.056,0.049-0.084,0.075-0.084,0.075c-0.91,0.899-1.933,2.521-2.705,3.549c-1.031,1.427-2.195,2.81-3.445,4.05
			c-3.424,3.39-7.479,6.15-11.834,8.201c-2.98,1.398-6.165,2.395-9.389,3.053c-1.316-1.225-2.916-1.855-4.626-2.243
			c-2.143-0.468-4.375-0.506-6.56-0.41c-6.361,0.315-12.736,1.816-18.883,3.421c-8.976,2.441-18.282,5.102-26.916,8.57
			c-7.976,3.199-15.73,7.236-22.686,12.302c-18.959,13.87-33.992,34.731-48.586,52.95c-3.847,4.747-8.119,9.739-12.417,14.066
			c-3.139,3.246-9.886,9.196-13.299,12.3c-2.975,2.77-5.965,5.709-8.44,8.937c-1.662,2.174-3.138,4.539-4.118,7.103
			c-5.231,2.188-10.681,4.165-16.234,5.338c-8.302,1.779-16.95,1.974-25.413,1.735c-21.141-0.815-42.537-4.226-63.17-8.844
			c-7.684-1.829-21.439-5.488-29.041-6.648c-5.262-0.851-10.687-1.328-16.018-1.258c-10.764,0.134-21.47,2.372-31.719,5.567
			c-9.07,2.881-18.003,6.647-26.245,11.412c-6.608,3.841-12.93,8.404-18.047,14.121c-9.26,4.925-19.156,10.846-23.559,20.833
			c-1.081,2.47-1.744,5.125-2.167,7.783c-1.136,6.829-0.648,16.786-0.643,23.764c0.001,5.018-0.142,10.151-1.08,15.091
			c-1.055,5.588-3.179,10.958-5.609,16.081c-3.388,7.006-8.275,15.848-10.453,23.195c-3.742,12.19-4.184,25.179-3.384,37.828
			c0.466,7.267,1.837,18.484,2.163,25.743c0.254,5.216,0.208,10.573-0.3,15.773c-1.445,14.634-6.959,30.148-9.741,44.557
			c-0.95,5.045-1.666,10.242-1.298,15.382c0.321,4.766,1.601,9.443,3.45,13.836c1.827,4.526,6.579,13.071,8.863,17.496
			c1.821,3.361,3.775,7.011,5.947,10.152c0.99,1.416,2.058,2.833,3.332,4.007c0.804,0.735,1.707,1.391,2.728,1.789
			c2.145,0.848,4.071,0.101,5.398-1.636c0.581-0.757,0.99-1.559,1.342-2.434c1.107-2.813,1.658-6.162,2.411-9.09
			c1.291-5.075,3.163-10.152,6.438-14.298c0.598-0.753,1.259-1.485,1.951-2.152c0.83-0.808,2.12-1.844,3.025-2.584
			c-0.179,3.341-0.085,6.811,0.16,10.149l0.772,8.971c0.211,2.783,0.282,5.673,0.145,8.46c-0.11,2.719-0.451,6.722-0.254,9.4
			c0.084,1.031,0.233,2.181,0.738,3.088c0.039,0.067,0.059,0.099,0.059,0.099c0.041,0.064,0.061,0.095,0.061,0.095
			c0.042,0.061,0.064,0.091,0.064,0.091c0.044,0.058,0.067,0.087,0.067,0.087c0.046,0.056,0.069,0.083,0.069,0.083
			c0.048,0.053,0.072,0.078,0.072,0.078c0.075,0.074,0.101,0.098,0.101,0.098c0.052,0.046,0.079,0.068,0.079,0.068
			c0.069,0.054,0.09,0.07,0.09,0.07c0.065,0.046,0.087,0.06,0.087,0.06c0.067,0.042,0.09,0.056,0.09,0.056
			c0.07,0.039,0.093,0.051,0.093,0.051c0.072,0.035,0.096,0.047,0.096,0.047c0.074,0.032,0.099,0.042,0.099,0.042
			c0.644,0.254,1.337,0.236,1.955,0.179c0.698-0.071,1.41-0.227,2.092-0.39c1.292-0.321,3.407-0.912,4.7-1.105
			c0.979-0.156,1.998-0.221,2.99-0.239c1.897,2.8,4.051,5.483,6.579,7.739c0.656,0.575,1.338,1.165,2.069,1.641
			c0.783,0.51,1.637,0.927,2.51,1.259c1.816,0.69,3.756,1.048,5.686,1.234c1.128,0.106,2.328,0.154,3.46,0.154
			c2.899-0.045,19.565,0.122,22.106-0.131c1.541-0.12,3.115-0.309,4.605-0.733c1.041-0.303,2.157-0.757,2.874-1.536
			c0.054-0.06,0.071-0.081,0.071-0.081c0.051-0.061,0.067-0.082,0.067-0.082c0.048-0.062,0.063-0.083,0.063-0.083
			c0.566-0.787,0.843-1.728,0.844-2.644c0.001-0.968-0.234-1.828-0.588-2.705c-0.454-1.102-1.084-2.132-1.811-3.075
			c-1.11-1.449-2.419-2.839-3.696-4.145c-2.768-2.81-6.141-5.817-9.12-8.421c0.298-2.074-0.347-4.148-1.228-6.005
			c-1.215-2.597-3.676-6.143-5.224-8.593c-1.358-2.172-2.712-4.437-3.508-6.883c-0.538-1.658-0.778-3.414-0.806-5.154
			c-0.067-2.769,0.517-7.018,0.774-9.808c0.398-4.048,0.388-8.231,0.208-12.292c-0.404-9.784-1.795-21.528-1.795-31.309
			c0.016-3.285,0.245-6.626,1.045-9.82c0.771-3.274,2.434-6.93,3.645-10.074c2.724-7.239,5.697-18.775,8.326-26.043
			c1.951-5.6,4.313-11.224,6.958-16.529c4.551-9.175,10.102-18.099,16.031-26.448c4.762-6.796,12.002-15.571,17.262-22.066
			c3.671-0.358,7.701-0.773,11.359-0.529c3.569,0.197,7.134,0.955,10.57,1.917c15.843,4.445,33.286,13.694,48.865,18.981
			c6.939,2.34,14.177,4.064,21.416,5.166c15.935,2.362,32.721,2.725,48.827,2.824c15.564-0.074,32.241-0.319,47.736-1.721
			c1.013,2.392,2.076,4.958,2.798,7.446c0.624,2.117,1.059,4.334,1.271,6.53c0.21,2.14,0.22,4.345,0.12,6.492
			c-0.294,7.319-2.565,20.446-3.576,27.827c-0.564,4.312-1.07,8.802-1.016,13.151c-0.015,4.383,0.939,11.179,1.424,15.592
			c0.672,6.539,0.476,13.192-0.177,19.724c-0.663,6.383-1.77,12.804-3.634,18.952c-2.009,6.816-5.822,13.553-8.159,20.251
			c-1.722,4.915-2.523,10.149-2.594,15.349c-0.044,3.869,0.298,7.779,1.228,11.54c0.735,2.944,1.863,5.845,3.667,8.305
			c0.931,1.269,2.119,2.528,3.489,3.285c0.805,0.448,1.697,0.695,2.55,0.521c0.064-0.015,0.099-0.023,0.099-0.023
			c0.071-0.019,0.106-0.029,0.106-0.029c0.07-0.022,0.105-0.034,0.105-0.034c0.069-0.025,0.104-0.038,0.104-0.038
			C452.38,582.628,452.868,582.215,453.409,581.799z"/>
	</g>
</g>
</svg>
