<?xml version="1.0" encoding="utf-8"?>
<!-- Generator: Adobe Illustrator 24.2.0, SVG Export Plug-In . SVG Version: 6.00 Build 0)  -->
<!DOCTYPE svg PUBLIC "-//W3C//DTD SVG 1.1//EN" "http://www.w3.org/Graphics/SVG/1.1/DTD/svg11.dtd" [
	<!ENTITY ns_flows "http://ns.adobe.com/Flows/1.0/">
	<!ENTITY ns_extend "http://ns.adobe.com/Extensibility/1.0/">
	<!ENTITY ns_ai "http://ns.adobe.com/AdobeIllustrator/10.0/">
	<!ENTITY ns_graphs "http://ns.adobe.com/Graphs/1.0/">
	<!ENTITY ns_vars "http://ns.adobe.com/Variables/1.0/">
	<!ENTITY ns_imrep "http://ns.adobe.com/ImageReplacement/1.0/">
	<!ENTITY ns_sfw "http://ns.adobe.com/SaveForWeb/1.0/">
	<!ENTITY ns_custom "http://ns.adobe.com/GenericCustomNamespace/1.0/">
	<!ENTITY ns_adobe_xpath "http://ns.adobe.com/XPath/1.0/">
]>
<svg version="1.1" xmlns:x="&ns_extend;" xmlns:i="&ns_ai;" xmlns:graph="&ns_graphs;"
	 xmlns="http://www.w3.org/2000/svg" xmlns:xlink="http://www.w3.org/1999/xlink" xmlns:a="http://ns.adobe.com/AdobeSVGViewerExtensions/3.0/"
	 x="0px" y="0px" width="750px" height="750px" viewBox="0 0 750 750" enable-background="new 0 0 750 750" xml:space="preserve">
<metadata>
	<sfw  xmlns="&ns_sfw;">
		<slices></slices>
		<sliceSourceBounds  bottomLeftOrigin="true" height="8088.428" width="8128.963" x="-5921.963" y="288.519"></sliceSourceBounds>
	</sfw>
</metadata>
<g id="FILL-BACKGROUND">
	<rect fill="#FFFFFF" width="750" height="750"/>
</g>
<g id="N-TEXT">
</g>
<g id="N-DIMENSIONS">
</g>
<g id="AG-DETAIL-DIAGRAM">
</g>
<g id="AG-DIAGRAM">
	<g id="POLYLINE_772_">
		<g>
			<g>
				
					<line fill="none" stroke="#FB8604" stroke-width="3.25" stroke-linecap="round" stroke-linejoin="round" x1="149.685" y1="589.04" x2="151.685" y2="589.038"/>
				
					<line fill="none" stroke="#FB8604" stroke-width="3.25" stroke-linecap="round" stroke-linejoin="round" stroke-dasharray="4.0157,7.0275" x1="158.713" y1="589.031" x2="497.537" y2="588.688"/>
				
					<line fill="none" stroke="#FB8604" stroke-width="3.25" stroke-linecap="round" stroke-linejoin="round" x1="501.051" y1="588.684" x2="503.051" y2="588.682"/>
			</g>
		</g>
	</g>
</g>
<g id="AG-DETAILS">
</g>
<g id="AG-ANIMALS">
	<g id="POLYLINE_532_">
		
			<path fill="none" stroke="#FB8604" stroke-width="2.75" stroke-linecap="round" stroke-linejoin="round" stroke-miterlimit="10" d="
			M179.09,457.176c-2.729,13.558-5.873,27.383-12.259,39.745c-0.791,1.524-1.79,2.963-2.398,4.576
			c-0.983,2.471-1.396,5.147-1.417,7.798c-0.03,2.32,0.274,4.7,0.697,6.98c1.712,9.062,4.516,18.366,7.21,27.188
			c2.561,8.303,5.399,17.827,7.342,26.252c0.853,3.914,1.613,7.936,3.417,11.55c0.676,1.36,1.516,2.687,2.59,3.765
			c0.924,0.926,1.925,1.544,3.063,2.121c2.173,1.063,4.586,1.567,6.984,1.775c1.572,0.219,16.459,0.074,18.398,0.113
			c1.326-0.004,2.698-0.065,4.011-0.25c1.903-0.269,3.975-0.809,5.437-2.087c1.055-0.919,1.586-2.208,1.822-3.508
			c0.263-1.472,0.192-2.989-0.001-4.466c-0.268-1.901-0.704-3.808-1.338-5.621c-0.919-2.632-2.58-5.404-5.266-6.443
			c-2.487-0.848-5.288-1.427-7.894-1.753c-1.012-0.139-2.089-0.138-3.083-0.379c-1.409-0.319-2.741-1.079-3.683-2.154
			c-0.609-0.677-1.077-1.477-1.453-2.303c-2.378-5.488-4.175-12.32-5.866-18.088c-1.822-6.693-2.88-13.66-2.715-20.607
			c0.082-3.574,0.531-7.183,1.161-10.7c1.106-6.107,2.929-12.108,5.342-17.824c3.941-9.264,9.287-17.984,14.966-26.274
			c5.713-8.28,12.721-18.096,18.826-26.088"/>
	</g>
	<g id="POLYLINE_523_">
		
			<path fill="none" stroke="#FB8604" stroke-width="2.75" stroke-linecap="round" stroke-linejoin="round" stroke-miterlimit="10" d="
			M222.35,283.961c-11.031,3.982-24.038,13.973-29.081,24.729c-1.108,2.384-1.789,4.973-2,7.594
			c-0.284,3.375,0.17,6.787,0.811,10.099l2.042,9.655c0.574,2.907,1.183,6.689,1.63,9.638c0.671,5.056,2.961,22.254,3.558,27
			c0.112,0.991,0.239,2.17,0.296,3.161c0.03,0.608,0.069,1.326-0.026,1.912c-0.013,0.066-0.017,0.087-0.017,0.087
			c-0.015,0.06-0.02,0.078-0.02,0.078c-0.016,0.053-0.022,0.07-0.022,0.07c-0.025,0.061-0.031,0.075-0.031,0.075
			c-0.035,0.061-0.043,0.072-0.043,0.072c-0.066,0.064-0.075,0.069-0.075,0.069c-0.068,0.021-0.078,0.021-0.078,0.021
			c-0.066-0.009-0.077-0.013-0.077-0.013c-0.064-0.03-0.071-0.034-0.071-0.034c-0.067-0.047-0.075-0.053-0.075-0.053
			c-0.056-0.048-0.072-0.063-0.072-0.063c-0.067-0.068-0.084-0.086-0.084-0.086c-0.701-0.811-1.241-1.935-1.915-2.747
			c-0.052-0.059-0.069-0.077-0.069-0.077c-0.066-0.067-0.082-0.082-0.082-0.082c-0.062-0.054-0.07-0.06-0.07-0.06
			c-0.061-0.043-0.073-0.05-0.073-0.05c-0.069-0.03-0.08-0.033-0.08-0.033c-0.062-0.007-0.072-0.006-0.072-0.006
			c-0.064,0.02-0.072,0.025-0.072,0.025c-0.062,0.059-0.07,0.069-0.07,0.069c-0.04,0.069-0.046,0.082-0.046,0.082
			c-0.023,0.058-0.028,0.074-0.028,0.074c-0.02,0.068-0.025,0.086-0.025,0.086c-0.013,0.058-0.017,0.078-0.017,0.078
			c-0.012,0.063-0.015,0.086-0.015,0.086c-0.108,0.872-0.012,1.718,0.05,2.582c0.744,7.027,2.665,17.897,3.37,24.889
			c0.182,1.83,0.378,3.864,0.376,5.698c-0.012,0.763-0.019,1.609-0.249,2.332c-0.025,0.068-0.038,0.1-0.038,0.1
			c-0.027,0.061-0.041,0.091-0.041,0.091c-0.029,0.055-0.044,0.081-0.044,0.081c-0.031,0.048-0.047,0.071-0.047,0.071
			c-0.05,0.06-0.067,0.078-0.067,0.078c-0.054,0.047-0.072,0.06-0.072,0.06c-0.058,0.032-0.078,0.041-0.078,0.041
			c-0.065,0.019-0.071,0.02-0.071,0.02c-0.069,0.006-0.075,0.006-0.075,0.006c-0.065-0.004-0.072-0.005-0.072-0.005
			c-0.068-0.013-0.082-0.016-0.082-0.016c-0.056-0.016-0.071-0.021-0.071-0.021c-0.058-0.021-0.072-0.027-0.072-0.027
			c-0.059-0.025-0.089-0.039-0.089-0.039c-0.225-0.108-0.527-0.303-0.69-0.39c-0.063-0.033-0.094-0.049-0.094-0.049
			c-0.062-0.03-0.093-0.044-0.093-0.044c-0.061-0.026-0.077-0.032-0.077-0.032c-0.06-0.022-0.075-0.027-0.075-0.027
			c-0.059-0.017-0.074-0.021-0.074-0.021c-0.065-0.013-0.072-0.014-0.072-0.014c-0.064-0.006-0.07-0.007-0.07-0.007
			c-0.068,0.002-0.075,0.003-0.075,0.003c-0.066,0.012-0.072,0.014-0.072,0.014c-0.066,0.024-0.082,0.032-0.082,0.032
			c-0.063,0.038-0.078,0.049-0.078,0.049c-0.06,0.051-0.074,0.065-0.074,0.065c-0.056,0.064-0.07,0.081-0.07,0.081
			c-0.04,0.056-0.053,0.076-0.053,0.076c-0.039,0.063-0.051,0.086-0.051,0.086c-0.025,0.046-0.037,0.07-0.037,0.07
			c-0.024,0.05-0.036,0.076-0.036,0.076c-0.291,0.705-0.372,1.4-0.479,2.136c-0.56,4.38-0.427,9.35-2.276,13.436
			c-1.542,3.504-4.503,6.17-6.358,9.486c-1.21,2.152-2.06,4.544-2.851,6.878c-1.131,3.347-2.406,7.891-4.128,10.964
			c-1.391,2.627-3.526,5.155-5.378,7.477c-1.28,1.63-2.45,3.39-3.204,5.33c-1.602,4.196-1.953,9.042-4.472,12.861
			c-1.561,2.456-4.545,4.297-6.825,6.035c-1.597,1.211-3.134,2.559-4.341,4.169c-1.79,2.375-2.903,5.46-4.06,8.185
			c-0.266,0.606-0.58,1.32-0.948,1.85c-0.048,0.067-0.064,0.088-0.064,0.088c-0.048,0.062-0.064,0.081-0.064,0.081
			c-0.048,0.056-0.064,0.074-0.064,0.074c-0.064,0.067-0.079,0.083-0.079,0.083c-0.063,0.058-0.079,0.071-0.079,0.071
			c-0.063,0.048-0.079,0.059-0.079,0.059c-0.063,0.038-0.079,0.047-0.079,0.047c-0.063,0.028-0.079,0.034-0.079,0.034
			c-0.063,0.018-0.079,0.021-0.079,0.021c-0.063,0.007-0.079,0.008-0.079,0.008c-0.06-0.003-0.074-0.005-0.074-0.005
			c-0.059-0.013-0.073-0.017-0.073-0.017c-0.059-0.022-0.073-0.029-0.073-0.029c-0.059-0.031-0.073-0.04-0.073-0.04
			c-0.059-0.04-0.073-0.051-0.073-0.051c-0.059-0.048-0.073-0.061-0.073-0.061c-0.058-0.056-0.073-0.072-0.073-0.072
			c-0.058-0.064-0.073-0.082-0.073-0.082c-0.044-0.054-0.058-0.072-0.058-0.072c-0.043-0.058-0.058-0.078-0.058-0.078
			c-0.66-1-0.98-2.224-1.289-3.36c-0.446-1.778-0.75-3.619-0.907-5.446c-0.281-2.91,0.15-6.082-0.142-8.991
			c-0.127-1.265-0.419-2.518-0.802-3.728c-0.789-2.576-2.668-6.787-3.692-9.32c-0.894-2.246-1.749-4.57-2.171-6.955
			c-0.401-2.215-0.428-4.502-0.068-6.724c0.437-2.776,1.452-5.447,2.589-8.004l3.454-7.484c1.427-3.19,2.734-6.541,3.695-9.901
			c1.069-3.754,1.826-7.654,2.294-11.528c0.205-1.784,0.366-3.644,0.346-5.44c-0.022-0.886-0.052-1.838-0.322-2.683
			c-0.025-0.069-0.037-0.103-0.037-0.103c-0.026-0.064-0.04-0.095-0.04-0.095c-0.028-0.059-0.042-0.088-0.042-0.088
			c-0.029-0.054-0.044-0.08-0.044-0.08c-0.03-0.049-0.046-0.072-0.046-0.072c-0.048-0.065-0.065-0.084-0.065-0.084
			c-0.051-0.054-0.069-0.07-0.069-0.07c-0.054-0.043-0.073-0.055-0.073-0.055c-0.057-0.032-0.077-0.04-0.077-0.04
			c-0.06-0.02-0.081-0.025-0.081-0.025c-0.063-0.009-0.071-0.009-0.071-0.009c-0.062,0.001-0.07,0.001-0.07,0.001
			c-0.064,0.009-0.072,0.01-0.072,0.01c-0.066,0.016-0.074,0.019-0.074,0.019c-0.067,0.023-0.084,0.03-0.084,0.03
			c-0.069,0.03-0.086,0.039-0.086,0.039c-0.053,0.027-0.07,0.037-0.07,0.037c-0.408,0.227-0.817,0.625-1.174,0.878
			c-0.063,0.044-0.094,0.064-0.094,0.064c-0.06,0.037-0.075,0.046-0.075,0.046c-0.058,0.031-0.072,0.038-0.072,0.038
			c-0.068,0.029-0.075,0.032-0.075,0.032c-0.064,0.019-0.07,0.02-0.07,0.02c-0.065,0.007-0.07,0.007-0.07,0.007
			c-0.069-0.012-0.082-0.017-0.082-0.017c-0.062-0.039-0.073-0.049-0.073-0.049c-0.052-0.065-0.061-0.081-0.061-0.081
			c-0.026-0.052-0.034-0.071-0.034-0.071c-0.022-0.062-0.029-0.084-0.029-0.084c-0.013-0.047-0.018-0.072-0.018-0.072
			c-0.011-0.052-0.016-0.079-0.016-0.079c-0.009-0.057-0.013-0.086-0.013-0.086c-0.056-0.498-0.016-0.946,0.021-1.435
			c0.177-2.025,1.239-8.03,1.557-10.124c0.433-2.915,0.805-5.974,0.848-8.921c0.056-2.89-0.17-5.875-0.52-8.744
			c-0.357-2.93-1.242-8.653-1.432-11.457c-0.192-2.253-0.249-4.669-0.205-6.931c0.177-7.754,1.394-15.521,3.099-23.077
			c2.018-8.805,4.79-17.594,8.208-25.954c3.171-7.715,6.993-15.285,11.651-22.214c3.143-4.66,6.727-9.094,10.807-12.965
			c5.089-4.86,10.975-8.924,17.162-12.258c7.836-4.199,16.227-7.501,24.666-10.269c22.455-7.315,46.319-9.996,69.87-9.991
			c9.756,0.04,19.869,0.518,29.546,1.745c7.732,0.954,15.543,2.521,22.982,4.854c6.78,2.054,15.297,5.386,22.339,5.957
			c4.011,0.342,8.104-0.077,12.076-0.661c3.298-0.531,12.821-2.156,15.931-2.512c3.527-0.454,7.605-0.755,11.169-0.958
			c11.082-0.639,24.165-0.436,35.205-1.478c2.318-0.242,4.693-0.602,6.957-1.154c2.009-0.481,4.044-1.154,5.979-1.88
			c5.945-2.42,18.532-6.965,24.704-9.217c4.625-1.774,9.58-3.711,13.938-6.046c3.874-2.034,7.814-4.819,11.389-7.359"/>
	</g>
	<g id="POLYLINE_522_">
		
			<path fill="none" stroke="#FB8604" stroke-width="2.75" stroke-linecap="round" stroke-linejoin="round" stroke-miterlimit="10" d="
			M292.622,368.289l8.031,2.452c3.572,1.144,7.23,2.469,10.646,4.017c2.794,1.253,5.64,2.795,8.298,4.324
			c5.322,3.14,14.885,8.978,20.236,11.718c4.648,2.44,9.591,4.669,14.506,6.52c9.416,3.543,19.309,6.175,29.179,8.095
			c10.945,2.109,22.196,3.404,33.342,3.673"/>
	</g>
	<g id="POLYLINE_521_">
		
			<path fill="none" stroke="#FB8604" stroke-width="2.75" stroke-linecap="round" stroke-linejoin="round" stroke-miterlimit="10" d="
			M287.634,273.278c4.934,31.704,7.921,64.232,4.871,96.261c-0.643,6.637-1.622,13.612-2.955,20.144
			c-2.286,11.308-5.622,24.85-8.533,36.094c-3.666,13.632-7.437,28.667-13.4,41.423c-1.614,3.44-3.443,6.867-5.641,9.97
			c-0.76,1.091-1.653,2.136-2.448,3.201c-0.945,1.263-1.848,2.601-2.661,3.952c-2.153,3.572-3.815,7.451-4.942,11.466
			c-0.984,3.434-1.534,7.074-1.837,10.633c-0.533,5.584-0.829,11.85-0.943,17.469c-0.069,5.292-0.056,11.414,0.217,16.692
			c0.243,4.223,0.656,8.536,1.578,12.668c0.499,2.19,1.142,4.388,2.126,6.413c1.39,2.796,3.422,5.374,6.158,6.947
			c1.245,0.719,2.624,1.216,4.037,1.479c1.134,0.203,2.396,0.29,3.53,0.495c2.109,0.349,4.222,0.852,6.213,1.64
			c1.061,0.44,2.233,0.955,3.12,1.663c1.093,0.879,1.818,1.969,2.341,3.205c0.855,2.051,1.081,4.308,1.113,6.512
			c0.009,1.162-0.04,2.358-0.281,3.498c-0.182,0.853-0.495,1.736-1.062,2.357c-0.064,0.068-0.097,0.1-0.097,0.1
			c-0.066,0.063-0.1,0.094-0.1,0.094c-0.069,0.059-0.086,0.073-0.086,0.073c-0.053,0.042-0.07,0.055-0.07,0.055
			c-0.054,0.039-0.072,0.052-0.072,0.052c-0.055,0.037-0.073,0.049-0.073,0.049c-0.056,0.035-0.075,0.046-0.075,0.046
			c-0.057,0.033-0.076,0.043-0.076,0.043c-0.058,0.031-0.078,0.041-0.078,0.041c-0.059,0.029-0.079,0.038-0.079,0.038
			c-0.06,0.026-0.081,0.035-0.081,0.035c-0.062,0.024-0.082,0.032-0.082,0.032c-0.779,0.262-1.594,0.388-2.404,0.497
			c-3.155,0.405-6.596,0.393-9.781,0.426c-0.616-0.018-17.408,0.034-17.45-0.03c-1.116-0.048-2.262-0.144-3.362-0.34
			c-1.653-0.295-3.368-0.81-4.635-1.956c-1.061-0.943-1.873-2.141-2.561-3.373c-0.963-1.755-1.717-3.643-2.307-5.555
			c-2.773-9.448-4.722-20.635-6.63-30.331c-1.067-5.86-2.481-13.578-3.283-19.438c-0.415-3.02-3.163-21.106-3.389-23.736
			c-0.177-1.887-0.276-3.824-0.174-5.718c0.069-1.192,0.215-2.399,0.54-3.55c1.326-3.751,4.078-10.133,5.569-13.851
			c0.844-2.109,1.564-4.351,2.176-6.54c1.497-5.42,2.54-11.101,3.351-16.662c0.837-6.18,1.217-12.585-0.21-18.705
			c-0.394-1.688-0.997-3.343-1.716-4.919c-1.119-2.478-2.531-4.863-4.123-7.066c-1.339-1.853-2.851-3.646-4.43-5.299
			c-0.902-0.953-1.944-1.926-2.868-2.859c-0.907-0.926-1.884-2.003-2.735-2.981c-6.81-7.965-13.023-17.189-18.84-25.907"/>
	</g>
	<g id="POLYLINE_520_">
		
			<path fill="none" stroke="#FB8604" stroke-width="2.75" stroke-linecap="round" stroke-linejoin="round" stroke-miterlimit="10" d="
			M425.722,338.544c-0.512,12.858-1.074,39.833-2.109,52.179c-0.201,1.931-0.567,3.893-1.067,5.769
			c-0.837,3.142-2.089,6.2-3.625,9.063c-0.786,1.529-1.795,2.969-2.587,4.491c-1.214,2.33-2.048,4.864-2.497,7.452
			c-0.445,2.548-0.53,5.166-0.345,7.744c0.12,1.797,0.41,3.623,0.737,5.394c0.24,1.428,0.444,3.034,0.591,4.475
			c0.632,6.383,0.686,13.093,0.59,19.508c-0.175,8.623-0.878,20.779-1.349,29.486c-0.495,10.194-0.887,21.976-0.808,32.115
			c-0.074,3.655-0.318,7.397-0.992,10.992c-0.324,1.704-0.761,3.426-1.385,5.046c-0.319,0.812-0.708,1.616-0.953,2.455
			c-0.342,1.116-0.538,2.289-0.534,3.457c0,1.611,0.39,3.213,1.075,4.668c0.33,0.703,0.733,1.392,1.174,2.031
			c0.4,0.565,0.84,1.132,1.205,1.722c1.254,1.987,2.208,4.184,3.025,6.383c3.36,8.97,4.147,18.727,7.334,27.748
			c0.377,1.024,0.792,2.106,1.293,3.078c0.358,0.718,0.84,1.505,1.377,2.054c0.66,0.659,1.335,1.037,2.138,1.413
			c1.501,0.669,3.13,1.027,4.747,1.279c2.544,0.383,5.173,0.489,7.744,0.493c1.383-0.008,23.869,0.059,24.648-0.073
			c1.4-0.093,2.815-0.27,4.17-0.64c0.885-0.246,1.762-0.575,2.542-1.066c0.936-0.562,1.681-1.429,2.025-2.394
			c0.234-0.687,0.336-1.408,0.416-2.126c0.2-2.02-0.103-4.067-0.719-5.993c-0.494-1.499-1.104-2.997-2-4.305
			c-1.004-1.472-2.347-2.7-3.853-3.644c-1.015-0.639-2.113-1.162-3.234-1.586c-0.494-0.188-1.023-0.363-1.528-0.516
			c-3.673-1.044-9.44-2.673-13.093-3.557c-0.892-0.218-1.737-0.623-2.472-1.173c-1.361-1.019-2.309-2.427-3.04-3.933
			c-1.422-2.988-2.013-6.307-2.472-9.561c-1.266-9.339-0.594-18.975,0.414-28.313c0.941-8.838,2.679-20.394,4.08-29.217
			c0.848-5.218,1.931-10.84,3.147-15.984c1.25-5.258,2.799-10.762,4.62-15.851c1.314-3.766,3.761-9.316,5.282-13.027
			c1.97-4.825,4.089-10.305,5.79-15.232c0.589-1.732,1.485-4.497,2.13-6.248c1.598-4.372,3.5-8.741,5.874-12.751
			c1.215-2.09,2.797-3.974,4.421-5.756c3.065-3.332,6.576-6.479,10.006-9.43c5.064-4.267,10.514-8.542,15.414-13.004
			c13.259-12.014,26.137-25.229,37.744-38.842c4.427-5.237,8.946-10.966,12.949-16.538c2.996-4.151,6.167-9.102,9.089-13.302
			c5.073-7.209,10.51-14.425,16.84-20.588"/>
	</g>
	<g id="POLYLINE_399_">
		
			<path fill="none" stroke="#FB8604" stroke-width="2.75" stroke-linecap="round" stroke-linejoin="round" stroke-miterlimit="10" d="
			M512.232,239.228c-3.385-8.182-5.752-16.849-7.314-25.558c-1.873-10.185-2.32-20.706-0.547-30.937
			c0.741-4.371,1.829-8.765,3.351-12.932c1.024-2.781,2.26-5.521,3.835-8.036c2.154-3.456,5.195-6.631,9.171-7.87
			c1.842-0.574,3.875-0.649,5.707,0.001c1.5,0.524,2.811,1.489,3.925,2.607c1.253,1.261,2.298,2.732,3.223,4.246
			c1.28,2.107,2.37,4.381,3.356,6.639c3.122,7.115,5.73,15.944,8.417,23.251c0.417,1.082,0.878,2.179,1.465,3.181
			c0.672,1.177,1.671,2.308,2.793,3.018c1.972,1.257,4.3,1.719,6.579,2.039c5.37,0.689,10.941,0.223,16.293-0.475
			c2.535-0.296,5.187-0.456,7.639,0.383c2.268,0.77,4.274,2.178,6.046,3.765c2.168,1.97,4.041,4.291,5.443,6.866"/>
	</g>
	<g id="POLYLINE_398_">
		
			<path fill="none" stroke="#FB8604" stroke-width="2.75" stroke-linecap="round" stroke-linejoin="round" stroke-miterlimit="10" d="
			M526.873,268.374c2.501,5.891,5.552,11.857,10.591,15.979c1.961,1.618,4.211,2.887,6.546,3.88
			c5.358,2.259,11.208,3.31,16.938,4.14c3.079,0.455,9.57,1.119,12.748,1.452c5.177,0.5,11.082,1.083,16.26,1.123
			c3.994,0.03,8.06-0.164,11.959-1.085c2.701-0.647,5.369-1.681,7.568-3.41c1.994-1.542,3.431-3.696,4.419-5.995
			c2.217-5.122,2.63-11.079,3.284-16.571l0.126-0.941"/>
	</g>
	<g id="POLYLINE_397_">
		
			<path fill="none" stroke="#FB8604" stroke-width="2.75" stroke-linecap="round" stroke-linejoin="round" stroke-miterlimit="10" d="
			M616.712,252.936c-0.848-1.915-2.01-3.707-3.238-5.397c-2.202-2.991-4.804-6.272-6.56-9.528c-1.878-3.433-3.273-7.222-3.49-11.156
			c-0.193-3.25,0.586-6.485,1.478-9.588c1.089-3.663,2.523-8,3.154-11.728c0.564-3.241,0.735-6.59,0.654-9.877
			c-0.131-5.073-0.872-10.191-1.881-15.161c-0.91-4.374-2.028-8.922-3.407-13.168c-1.094-3.283-2.328-6.608-4.191-9.541
			c-1.169-1.8-2.882-3.839-5.177-3.87c-1.908-0.021-3.565,1.043-4.955,2.229c-3.608,3.188-5.713,7.679-7.6,12.02
			c-3.541,8.978-9.582,21.765-13.23,30.72"/>
	</g>
	<g id="POLYLINE_396_">
		
			<path fill="none" stroke="#FB8604" stroke-width="2.75" stroke-linecap="round" stroke-linejoin="round" stroke-miterlimit="10" d="
			M618.226,254.18c-2.084-2.246-5.298-2.823-8.227-2.556c-1.842,0.176-3.656,0.706-5.302,1.553
			c-1.298,0.667-2.566,1.587-3.508,2.693c-0.857,1.017-1.434,2.119-1.54,3.411c-0.119,1.42,0.499,2.916,1.305,4.021
			c2.222,3.027,5.919,4.668,9.588,5.018c1.991,0.177,4.072-0.011,5.895-0.877c0.873-0.413,1.709-1.047,2.294-1.796
			c0.745-0.939,1.216-2.077,1.46-3.245c0.318-1.537,0.27-3.148-0.119-4.668C619.737,256.433,619.137,255.178,618.226,254.18z"/>
	</g>
</g>
<g id="AG-OUTLINE">
	<g id="POLYLINE_868_">
		
			<path fill="none" stroke="#FB8604" stroke-width="3.5" stroke-linecap="round" stroke-linejoin="round" stroke-miterlimit="10" d="
			M616.712,252.936c-0.848-1.915-2.01-3.707-3.238-5.397c-2.202-2.991-4.804-6.272-6.56-9.528c-1.878-3.433-3.273-7.222-3.49-11.156
			c-0.193-3.25,0.586-6.485,1.478-9.588c1.089-3.663,2.523-8,3.154-11.728c0.564-3.241,0.735-6.59,0.654-9.877
			c-0.131-5.073-0.872-10.191-1.881-15.161c-0.91-4.374-2.028-8.922-3.407-13.168c-1.094-3.283-2.328-6.608-4.191-9.541
			c-1.169-1.8-2.882-3.839-5.177-3.87c-1.908-0.021-3.565,1.043-4.955,2.229c-3.608,3.188-5.713,7.679-7.6,12.02
			c-3.541,8.978-9.582,21.765-13.23,30.72c-4.37,0.404-8.839,0.52-13.183-0.179c-2.439-0.412-5.104-1.174-6.848-3.001
			c-1.047-1.07-1.763-2.403-2.353-3.765c-0.647-1.479-1.38-3.673-1.925-5.219c-2.619-7.579-5.325-16.39-8.984-23.491
			c-1.114-2.13-2.372-4.234-3.968-6.041c-1.031-1.159-2.227-2.207-3.625-2.899c-1.339-0.671-2.861-0.949-4.352-0.838
			c-1.656,0.116-3.265,0.67-4.711,1.474c-2.589,1.439-4.663,3.663-6.295,6.109c-1.534,2.296-2.755,4.815-3.777,7.376
			c-1.434,3.616-2.509,7.449-3.304,11.256c-1.375,6.605-1.922,13.421-1.625,20.161c0.436,9.36,2.264,18.697,4.821,27.698
			c-3.582,2.545-7.51,5.323-11.389,7.359c-4.353,2.334-9.319,4.275-13.938,6.046c-6.232,2.273-18.705,6.776-24.704,9.217
			c-1.937,0.727-3.969,1.399-5.979,1.88c-2.264,0.552-4.639,0.912-6.957,1.154c-11.034,1.042-24.129,0.839-35.205,1.478
			c-3.561,0.203-7.639,0.503-11.169,0.957c-3.154,0.36-12.695,1.995-15.932,2.512c-3.973,0.584-8.064,1.003-12.076,0.661
			c-7.015-0.565-15.595-3.91-22.339-5.957c-7.443-2.331-15.246-3.901-22.982-4.854c-9.677-1.225-19.784-1.709-29.546-1.745
			c-23.552-0.005-47.413,2.675-69.87,9.991c-8.439,2.769-16.83,6.07-24.666,10.269c-6.187,3.334-12.073,7.398-17.162,12.258
			c-4.08,3.871-7.665,8.306-10.807,12.965c-4.658,6.929-8.48,14.499-11.651,22.214c-3.418,8.36-6.191,17.15-8.208,25.954
			c-1.704,7.556-2.923,15.323-3.099,23.077c-0.039,2.256,0.01,4.681,0.205,6.931c0.204,2.993,1.069,8.507,1.432,11.457
			c0.35,2.87,0.576,5.853,0.52,8.744c-0.043,2.945-0.415,6.007-0.848,8.921c-0.324,2.135-1.375,8.07-1.557,10.124
			c-0.038,0.456-0.076,0.989-0.021,1.435c0.008,0.058,0.013,0.086,0.013,0.086c0.01,0.053,0.016,0.079,0.016,0.079
			c0.012,0.049,0.018,0.072,0.018,0.072c0.021,0.064,0.029,0.084,0.029,0.084c0.025,0.055,0.034,0.071,0.034,0.071
			c0.039,0.057,0.05,0.07,0.05,0.07c0.059,0.048,0.071,0.055,0.071,0.055c0.069,0.021,0.084,0.022,0.084,0.022
			c0.069-0.004,0.075-0.005,0.075-0.005c0.069-0.019,0.076-0.021,0.076-0.021c0.061-0.025,0.075-0.032,0.075-0.032
			c0.057-0.03,0.072-0.038,0.072-0.038c0.06-0.036,0.075-0.046,0.075-0.046c0.062-0.042,0.094-0.064,0.094-0.064
			c0.371-0.267,0.734-0.615,1.103-0.837c0.054-0.031,0.071-0.041,0.071-0.041c0.053-0.028,0.07-0.037,0.07-0.037
			c0.069-0.032,0.086-0.039,0.086-0.039c0.068-0.025,0.076-0.027,0.076-0.027c0.066-0.018,0.074-0.02,0.074-0.02
			c0.064-0.011,0.072-0.011,0.072-0.011c0.062-0.003,0.07-0.002,0.07-0.002c0.058,0.006,0.078,0.01,0.078,0.01
			c0.061,0.017,0.081,0.025,0.081,0.025c0.058,0.029,0.077,0.04,0.077,0.04c0.055,0.04,0.073,0.055,0.073,0.055
			c0.052,0.051,0.069,0.07,0.069,0.07c0.049,0.062,0.065,0.084,0.065,0.084c0.031,0.047,0.046,0.072,0.046,0.072
			c0.03,0.053,0.044,0.08,0.044,0.08c0.028,0.058,0.042,0.088,0.042,0.088c0.027,0.063,0.04,0.095,0.04,0.095
			c0.291,0.819,0.317,1.658,0.354,2.511c0.039,1.631-0.089,3.326-0.255,4.949c-0.453,4.136-1.243,8.291-2.38,12.294
			c-0.961,3.358-2.269,6.712-3.695,9.901c0,0-3.454,7.484-3.454,7.484c-1.137,2.558-2.152,5.228-2.589,8.004
			c-0.36,2.222-0.333,4.509,0.068,6.724c0.422,2.385,1.277,4.711,2.171,6.955c1.035,2.568,2.896,6.731,3.692,9.32
			c0.383,1.211,0.675,2.463,0.802,3.728c0.292,2.909-0.138,6.081,0.142,8.991c0.157,1.826,0.46,3.668,0.907,5.446
			c0.304,1.126,0.637,2.364,1.274,3.34c0.043,0.06,0.058,0.08,0.058,0.08c0.044,0.056,0.058,0.074,0.058,0.074
			c0.058,0.068,0.073,0.084,0.073,0.084c0.058,0.06,0.073,0.074,0.073,0.074c0.059,0.052,0.073,0.063,0.073,0.063
			c0.059,0.043,0.073,0.053,0.073,0.053c0.059,0.034,0.073,0.042,0.073,0.042c0.059,0.026,0.073,0.031,0.073,0.031
			c0.059,0.017,0.073,0.02,0.073,0.02c0.059,0.007,0.073,0.008,0.073,0.008c0.063-0.003,0.079-0.005,0.079-0.005
			c0.063-0.014,0.079-0.018,0.079-0.018c0.063-0.024,0.079-0.032,0.079-0.032c0.063-0.034,0.079-0.044,0.079-0.044
			c0.063-0.044,0.079-0.057,0.079-0.057c0.063-0.054,0.079-0.069,0.079-0.069c0.063-0.064,0.079-0.081,0.079-0.081
			c0.048-0.054,0.064-0.073,0.064-0.073c0.048-0.059,0.064-0.08,0.064-0.08c0.46-0.631,0.717-1.269,1.028-1.96
			c1.16-2.73,2.268-5.806,4.06-8.185c1.207-1.61,2.744-2.958,4.341-4.169c2.012-1.54,4.728-3.258,6.274-5.27
			c2.93-3.778,3.305-8.857,4.873-13.232c0.434-1.191,1.014-2.335,1.695-3.403c1.466-2.31,3.614-4.604,5.184-6.842
			c-2.729,13.558-5.873,27.383-12.259,39.745c-0.791,1.524-1.79,2.963-2.398,4.576c-0.983,2.471-1.396,5.147-1.417,7.798
			c-0.03,2.32,0.274,4.7,0.697,6.98c1.712,9.062,4.516,18.366,7.21,27.188c2.561,8.303,5.399,17.827,7.342,26.252
			c0.853,3.914,1.613,7.936,3.417,11.55c0.676,1.36,1.516,2.687,2.59,3.765c0.924,0.926,1.925,1.544,3.063,2.121
			c2.173,1.063,4.586,1.567,6.984,1.775c1.572,0.219,16.459,0.074,18.398,0.113c1.326-0.004,2.698-0.065,4.011-0.25
			c1.903-0.269,3.975-0.809,5.437-2.087c1.055-0.919,1.586-2.208,1.822-3.508c0.263-1.472,0.192-2.989-0.001-4.466
			c-0.268-1.901-0.704-3.808-1.338-5.621c-0.919-2.632-2.58-5.404-5.266-6.443c-2.487-0.848-5.288-1.427-7.894-1.753
			c-1.012-0.139-2.089-0.138-3.083-0.379c-1.409-0.319-2.741-1.079-3.683-2.154c-0.609-0.677-1.077-1.477-1.453-2.303
			c-2.378-5.488-4.175-12.32-5.866-18.088c-1.822-6.693-2.88-13.66-2.715-20.607c0.082-3.574,0.531-7.183,1.161-10.7
			c1.106-6.107,2.929-12.108,5.342-17.824c3.941-9.264,9.287-17.984,14.966-26.274c5.713-8.28,12.721-18.096,18.826-26.088
			c1.067,5.6,0.741,11.397,0.002,17.019c-0.882,6.164-2.033,12.43-3.786,18.41c-0.465,1.568-1.003,3.182-1.592,4.707
			c-1.458,3.653-4.147,10.027-5.546,13.669c-0.178,0.483-0.319,0.995-0.426,1.499c-0.28,1.32-0.371,2.699-0.387,4.046
			c-0.022,2.411,0.227,4.9,0.551,7.29c0.733,4.944,3.128,21.593,3.866,26.291c1.831,11.035,4.221,23.645,6.604,34.575
			c0.973,4.102,1.887,8.522,3.438,12.446c0.739,1.801,1.612,3.589,2.834,5.116c0.566,0.702,1.24,1.365,2.005,1.836
			c0.835,0.51,1.776,0.833,2.722,1.065c1.3,0.315,2.657,0.46,3.991,0.531c0.399,0.063,16.83,0.052,17.82,0.047
			c3.183-0.036,6.623-0.027,9.781-0.426c0.78-0.11,1.591-0.227,2.341-0.475c0.063-0.022,0.083-0.03,0.083-0.03
			c0.062-0.024,0.082-0.033,0.082-0.033c0.06-0.026,0.08-0.035,0.08-0.035c0.059-0.029,0.079-0.038,0.079-0.038
			c0.058-0.031,0.077-0.041,0.077-0.041c0.057-0.033,0.076-0.044,0.076-0.044c0.056-0.035,0.075-0.047,0.075-0.047
			c0.055-0.037,0.073-0.05,0.073-0.05c0.054-0.039,0.072-0.053,0.072-0.053c0.053-0.042,0.07-0.056,0.07-0.056
			c0.069-0.059,0.102-0.089,0.102-0.089c0.066-0.063,0.099-0.096,0.099-0.096c0.791-0.839,1.046-1.924,1.23-2.992
			c0.22-1.44,0.204-2.929,0.124-4.38c-0.143-2.264-0.596-4.647-1.857-6.567c-0.517-0.779-1.168-1.46-1.883-1.955
			c-0.715-0.481-1.428-0.829-2.202-1.169c-1.915-0.828-3.963-1.364-6.011-1.744c-0.753-0.128-1.645-0.282-2.408-0.373
			c-0.816-0.095-1.724-0.193-2.519-0.388c-1.461-0.342-2.869-0.947-4.118-1.78c-2.321-1.545-4.078-3.821-5.345-6.281
			c-0.845-1.678-1.443-3.485-1.917-5.3c-1.165-4.556-1.632-9.329-1.904-14.015c-0.478-10.628-0.308-21.697,0.56-32.3
			c0.214-2.34,0.428-4.992,0.837-7.305c0.446-2.59,1.09-5.199,1.941-7.685c1.294-3.804,3.091-7.451,5.322-10.793
			c1.034-1.586,2.25-3.08,3.405-4.577c0.973-1.304,1.889-2.708,2.721-4.106c3.366-5.705,5.909-11.94,8.139-18.165
			c1.383-3.899,2.871-8.616,4.025-12.592c3.041-10.749,6.879-25.464,9.461-36.322c1.608-6.912,3.491-15.123,4.728-22.11
			c0.909-5.267,1.634-11.015,2.12-16.339l8.031,2.452c3.572,1.144,7.23,2.469,10.646,4.017c2.794,1.253,5.64,2.795,8.298,4.324
			c5.322,3.14,14.885,8.978,20.236,11.718c4.648,2.44,9.591,4.669,14.506,6.52c9.416,3.543,19.309,6.175,29.179,8.095
			c10.945,2.109,22.196,3.404,33.342,3.673c-1.633,2.822-2.686,5.975-3.148,9.2c-0.52,3.576-0.35,7.237,0.245,10.794
			c0.771,4.048,1.131,8.299,1.319,12.418c0.598,13.625-0.51,28.931-1.213,42.605c-0.36,8.963-0.907,19.908-0.795,28.806
			c0.032,3.26-0.063,6.694-0.386,9.934c-0.287,2.788-0.739,5.611-1.603,8.283c-0.291,0.947-0.718,1.861-1.08,2.781
			c-0.487,1.297-0.787,2.679-0.807,4.067c-0.019,1.136,0.15,2.277,0.489,3.361c0.498,1.629,1.397,3.107,2.426,4.453
			c0.698,0.985,1.304,2.054,1.84,3.134c2.151,4.414,3.476,9.244,4.609,14.007c1.453,6.425,2.576,13.1,5.005,19.25
			c0.533,1.282,1.163,2.67,2.113,3.673c0.589,0.596,1.18,0.937,1.884,1.294c1.247,0.6,2.607,0.957,3.961,1.22
			c2.16,0.41,4.41,0.57,6.606,0.64c1.995,0.052,23.443,0.044,25.657,0.013c1.172-0.045,2.378-0.121,3.536-0.311
			c1.932-0.318,4.073-0.899,5.453-2.352c0.542-0.564,0.865-1.223,1.047-1.915c0.159-0.654,0.263-1.331,0.313-2.003
			c0.149-1.981-0.179-3.977-0.798-5.857c-0.469-1.382-1.034-2.765-1.842-3.986c-1.476-2.25-3.724-3.898-6.169-4.967
			c-0.679-0.3-1.395-0.567-2.101-0.794c-0.202-0.072-0.473-0.142-0.676-0.206c0,0-6.877-1.933-6.877-1.933
			c-1.493-0.435-4.493-1.164-5.988-1.557c-0.313-0.078-0.627-0.178-0.926-0.299c-0.934-0.36-1.844-1.029-2.523-1.737
			c-1.2-1.249-2.023-2.817-2.645-4.421c-1.162-3.05-1.663-6.332-2.059-9.559c-1.191-10.297-0.14-20.889,1.06-31.144
			c1.601-12.364,3.511-26.346,6.174-38.511c1.37-6.122,3.085-12.453,5.197-18.361c0.689-1.922,1.491-3.992,2.293-5.871
			c2.088-4.935,4.896-11.739,6.752-16.75c2.187-5.705,3.897-11.882,6.387-17.466c1.243-2.8,2.659-5.659,4.311-8.244
			c0.831-1.267,1.81-2.469,2.798-3.613c5.442-6.137,11.967-11.39,18.311-16.556c7.952-6.563,15.96-14.106,23.253-21.407
			c10.584-10.655,21.103-22.043,30.29-33.928c2.797-3.611,5.844-7.791,8.415-11.572c2.126-3.168,5.065-7.613,7.307-10.731
			c4.663-6.494,9.677-12.997,15.423-18.578c5.822,0.48,11.801,0.853,17.622,0.243c5.011-0.558,10.405-1.896,13.884-5.8
			c1.446-1.636,2.46-3.617,3.211-5.655c1.757-4.771,2.183-10.264,2.773-15.292l0.126-0.941c2.467-1.627,3.295-4.758,3.046-7.561
			c-0.138-1.503-0.588-2.995-1.409-4.268C618.378,254.227,617.597,253.475,616.712,252.936z"/>
	</g>
</g>
</svg>
