<?xml version="1.0" encoding="utf-8"?>
<!-- Generator: Adobe Illustrator 24.2.0, SVG Export Plug-In . SVG Version: 6.00 Build 0)  -->
<!DOCTYPE svg PUBLIC "-//W3C//DTD SVG 1.1//EN" "http://www.w3.org/Graphics/SVG/1.1/DTD/svg11.dtd" [
	<!ENTITY ns_flows "http://ns.adobe.com/Flows/1.0/">
	<!ENTITY ns_extend "http://ns.adobe.com/Extensibility/1.0/">
	<!ENTITY ns_ai "http://ns.adobe.com/AdobeIllustrator/10.0/">
	<!ENTITY ns_graphs "http://ns.adobe.com/Graphs/1.0/">
	<!ENTITY ns_vars "http://ns.adobe.com/Variables/1.0/">
	<!ENTITY ns_imrep "http://ns.adobe.com/ImageReplacement/1.0/">
	<!ENTITY ns_sfw "http://ns.adobe.com/SaveForWeb/1.0/">
	<!ENTITY ns_custom "http://ns.adobe.com/GenericCustomNamespace/1.0/">
	<!ENTITY ns_adobe_xpath "http://ns.adobe.com/XPath/1.0/">
]>
<svg version="1.1" xmlns:x="&ns_extend;" xmlns:i="&ns_ai;" xmlns:graph="&ns_graphs;"
	 xmlns="http://www.w3.org/2000/svg" xmlns:xlink="http://www.w3.org/1999/xlink" xmlns:a="http://ns.adobe.com/AdobeSVGViewerExtensions/3.0/"
	 x="0px" y="0px" width="750px" height="750px" viewBox="0 0 750 750" enable-background="new 0 0 750 750" xml:space="preserve">
<metadata>
	<sfw  xmlns="&ns_sfw;">
		<slices></slices>
		<sliceSourceBounds  bottomLeftOrigin="true" height="8088.428" width="8128.963" x="-5921.963" y="288.519"></sliceSourceBounds>
	</sfw>
</metadata>
<g id="FILL-BACKGROUND">
	<rect fill="#FFFFFF" width="750" height="750"/>
</g>
<g id="N-TEXT">
</g>
<g id="N-DIMENSIONS">
</g>
<g id="AG-DETAIL-DIAGRAM">
</g>
<g id="AG-DIAGRAM">
	<g id="POLYLINE_541_">
		<g>
			<g>
				
					<line fill="none" stroke="#FB8604" stroke-width="3.25" stroke-linecap="round" stroke-linejoin="round" x1="130.095" y1="601.822" x2="132.095" y2="601.822"/>
				
					<line fill="none" stroke="#FB8604" stroke-width="3.25" stroke-linecap="round" stroke-linejoin="round" stroke-dasharray="4.0304,7.0532" x1="139.148" y1="601.822" x2="612.217" y2="601.822"/>
				
					<line fill="none" stroke="#FB8604" stroke-width="3.25" stroke-linecap="round" stroke-linejoin="round" x1="615.743" y1="601.822" x2="617.743" y2="601.822"/>
			</g>
		</g>
	</g>
</g>
<g id="AG-DETAILS">
</g>
<g id="AG-ANIMALS">
	<g id="POLYLINE_752_">
		
			<path fill="none" stroke="#FB8604" stroke-width="2.75" stroke-linecap="round" stroke-linejoin="round" stroke-miterlimit="10" d="
			M566.67,304.455c-1.827-1.863-4.457-2.339-6.937-2.076c-2.202,0.243-4.345,1.05-6.16,2.32c-1.216,0.852-2.371,2.004-3.03,3.329
			c-1.292,2.513-0.162,4.932,1.821,6.585c1.446,1.211,3.218,1.984,5.034,2.45c1.882,0.473,3.862,0.651,5.79,0.388
			c1.295-0.177,2.678-0.618,3.712-1.414c0.961-0.73,1.531-1.705,1.856-2.783c0.416-1.407,0.408-2.917,0.124-4.349
			C568.563,307.297,567.801,305.608,566.67,304.455z"/>
	</g>
	<g id="POLYLINE_751_">
		
			<path fill="none" stroke="#FB8604" stroke-width="2.75" stroke-linecap="round" stroke-linejoin="round" stroke-miterlimit="10" d="
			M556.513,283.464c-1.728,2.221-3.063,4.743-4.138,7.336c-1.627,3.943-2.7,8.151-3.517,12.332
			c-0.425,2.288-0.886,4.664-0.946,6.993c-0.031,1.144,0.062,2.386,0.375,3.478c0.299,1.083,0.852,2.043,1.574,2.806
			c4.802,5.022,17.596,4.915,24.185,4.302c3.304-0.32,6.615-1.048,9.613-2.506c3.04-1.454,5.703-3.607,8.072-5.981
			c2.712-2.728,5.116-5.824,7.19-9.062c1.848-2.919,3.496-6.027,4.653-9.287"/>
	</g>
	<g id="POLYLINE_750_">
		
			<path fill="none" stroke="#FB8604" stroke-width="2.75" stroke-linecap="round" stroke-linejoin="round" stroke-miterlimit="10" d="
			M588.879,232.865c4.176-6.878,8.809-14.081,13.638-20.523c3.425-4.549,7.117-9.057,11.19-13.047
			c2.082-2.084,4.442-3.948,6.748-5.759c0,0,1.287-0.991,1.287-0.991s1.195-0.896,1.195-0.896s1.104-0.802,1.104-0.802
			s0.518-0.365,0.518-0.365s0.495-0.342,0.495-0.342s0.472-0.318,0.472-0.318s0.449-0.294,0.449-0.294s0.426-0.271,0.426-0.271
			c0.995-0.638,2.093-1.142,3.244-1.425c1.387-0.354,2.84-0.426,4.263-0.309c2.815,0.183,4.495,1.821,5.188,4.472
			c0.053,0.169,0.096,0.404,0.137,0.579c0.086,0.461,0.214,1.175,0.286,1.643c0.802,5.321,1.494,11.814,2.003,17.199
			c0.438,5.099,0.561,10.336,0.193,15.441c-0.254,3.582-0.835,7.347-1.49,10.877c-0.533,2.766-1.164,5.564-2.041,8.236
			c-1.094,3.087-2.324,6.324-3.265,9.467c-0.437,1.47-0.926,2.969-1.183,4.458c-0.421,2.402-0.391,4.881-0.048,7.29
			c0.111,0.852,0.315,1.715,0.445,2.561c0.134,0.975,0.153,1.982,0.12,2.964c-0.151,3.72-0.97,7.467-1.855,11.077
			c-1.251,4.866-2.716,9.802-4.577,14.465c-2.503,6.309-5.674,12.403-9.258,18.163c-4.953,7.881-11.058,15.827-16.838,23.134
			c-6.927,8.663-15.162,17.908-22.768,26.006c-3.489,3.672-7.243,7.574-11.104,10.826c-1.679,1.447-3.248,3.075-4.658,4.785
			c-2.01,2.44-3.766,5.121-5.283,7.893c-1.416,2.696-3.107,5.288-4.925,7.73c-2.74,3.682-5.896,7.259-9.071,10.573
			c-1.436,1.499-3.04,3.09-4.335,4.704c-1.68,2.04-3.205,4.239-4.457,6.568c-1.685,3.124-2.886,6.535-3.398,10.052
			c-0.283,1.762-0.31,3.784-0.386,5.571c-0.124,4.065-0.054,8.316,0.177,12.377c0.288,5.038,0.84,10.24,1.596,15.23
			c2.411,15.804,6.549,33.962,9.758,49.66c1.57,7.997,3.288,16.785,4.144,24.881c0.252,3.303,0.66,6.645,1.353,9.888
			c1.475,7.338,4.275,14.674,7.073,21.604c1.073,2.591,2.396,5.854,3.644,8.385c1.152,2.372,2.613,4.973,5.138,6.032
			c0,0,0.086,0.034,0.086,0.034s0.086,0.033,0.086,0.033l0.087,0.031c0,0,0.087,0.03,0.087,0.03s0.087,0.028,0.087,0.028
			s0.088,0.027,0.088,0.027l0.088,0.025c0,0,0.088,0.024,0.088,0.024s0.089,0.022,0.089,0.022s0.089,0.021,0.089,0.021
			s0.089,0.019,0.089,0.019s0.09,0.018,0.09,0.018s0.09,0.016,0.09,0.016s0.091,0.015,0.091,0.015s0.372,0.055,0.372,0.055
			c0.692,0.126,1.447,0.16,2.132,0.247c1.797,0.172,3.819,0.271,5.624,0.343c1.032,0.033,2.089,0.144,3.102,0.342
			c1.65,0.331,3.385,0.99,4.52,2.255c1.417,1.517,2.411,3.322,3.238,5.208c0.866,1.956,1.571,4.139,0.968,6.255
			c-0.014,0.049-0.029,0.099-0.029,0.099c-0.015,0.049-0.031,0.098-0.031,0.098c-0.016,0.049-0.033,0.097-0.033,0.097
			c-0.017,0.048-0.035,0.096-0.035,0.096c-0.018,0.048-0.036,0.096-0.036,0.096c-0.019,0.048-0.038,0.095-0.038,0.095
			c-0.02,0.047-0.04,0.094-0.04,0.094c-0.021,0.047-0.042,0.093-0.042,0.093c-0.022,0.046-0.044,0.093-0.044,0.093
			c-0.023,0.046-0.045,0.092-0.045,0.092c-0.023,0.046-0.047,0.091-0.047,0.091c-0.024,0.045-0.049,0.09-0.049,0.09
			c-0.025,0.045-0.051,0.09-0.051,0.09c-0.026,0.044-0.053,0.089-0.053,0.089c-0.027,0.044-0.054,0.088-0.054,0.088
			c-0.028,0.044-0.056,0.087-0.056,0.087c-0.029,0.043-0.058,0.087-0.058,0.087c-0.03,0.043-0.06,0.086-0.06,0.086
			c-0.031,0.043-0.062,0.085-0.062,0.085c-0.031,0.042-0.063,0.084-0.063,0.084c-0.032,0.042-0.065,0.083-0.065,0.083
			c-0.033,0.041-0.067,0.081-0.067,0.081c-0.068,0.08-0.103,0.12-0.103,0.12c-0.071,0.078-0.107,0.117-0.107,0.117
			c-0.073,0.076-0.11,0.114-0.11,0.114c-0.076,0.074-0.114,0.111-0.114,0.111c-0.078,0.072-0.118,0.108-0.118,0.108
			c-0.081,0.07-0.121,0.105-0.121,0.105c-0.041,0.034-0.083,0.068-0.083,0.068c-0.042,0.034-0.085,0.067-0.085,0.067
			c-0.043,0.033-0.086,0.066-0.086,0.066c-0.044,0.032-0.088,0.064-0.088,0.064c-0.045,0.032-0.09,0.063-0.09,0.063
			c-0.045,0.031-0.091,0.062-0.091,0.062c-0.046,0.03-0.093,0.06-0.093,0.06c-0.047,0.03-0.094,0.059-0.094,0.059
			c-0.048,0.029-0.096,0.058-0.096,0.058c-0.898,0.525-1.913,0.833-2.934,1.01c-0.687,0.118-1.393,0.181-2.09,0.204
			c-5.605-0.002-15.505,0.065-21.08-0.026c-1.303-0.115-2.58-0.575-3.63-1.362c-1.033-0.751-1.799-1.798-2.49-2.857
			c-2.43-3.778-5.019-8.758-7.128-12.778c-2.666-5.181-5.685-11.081-7.998-16.384c-0.832-1.905-1.962-3.854-3.693-5.069
			c-0.053-0.037-0.106-0.073-0.106-0.073c-0.053-0.035-0.107-0.07-0.107-0.07c-0.054-0.034-0.107-0.068-0.107-0.068
			c-0.054-0.033-0.108-0.065-0.108-0.065c-0.054-0.032-0.109-0.063-0.109-0.063c-0.055-0.031-0.11-0.061-0.11-0.061
			c-0.055-0.029-0.11-0.058-0.11-0.058c-0.056-0.028-0.111-0.056-0.111-0.056c-0.056-0.027-0.112-0.053-0.112-0.053
			c-0.056-0.026-0.113-0.051-0.113-0.051c-0.057-0.025-0.114-0.048-0.114-0.048c-0.057-0.023-0.114-0.046-0.114-0.046
			c-0.057-0.022-0.115-0.044-0.115-0.044c-0.058-0.021-0.116-0.041-0.116-0.041c-0.058-0.02-0.117-0.039-0.117-0.039
			c-0.059-0.018-0.117-0.036-0.117-0.036c-0.059-0.017-0.118-0.034-0.118-0.034c-0.059-0.016-0.119-0.031-0.119-0.031
			c-0.06-0.015-0.12-0.029-0.12-0.029c-0.06-0.014-0.12-0.027-0.12-0.027c-0.06-0.012-0.121-0.024-0.121-0.024
			c-0.061-0.011-0.122-0.022-0.122-0.022c-0.061-0.01-0.123-0.019-0.123-0.019s-0.122-0.019-0.122-0.019l-0.121-0.02
			c-0.147-0.023-0.323-0.063-0.469-0.095c-0.963-0.208-2.013-0.694-2.705-1.35c-0.945-0.879-1.39-1.966-1.653-3.163
			c-0.206-0.891-0.328-1.815-0.372-2.727c-0.051-1.063,0.001-2.145,0.129-3.2c0.074-0.621,0.195-1.224,0.264-1.842
			c0.144-1.299,0.127-2.634,0.016-3.936c-0.169-1.958-0.552-3.932-1.032-5.838c-5.214-18.591-12.961-41.489-18.416-59.989
			c-1.743-5.909-4.236-14.558-5.757-20.446c-1.321-4.75-2.781-9.617-4.939-14.06c-0.678-1.354-1.45-2.72-2.432-3.874
			c-2.463-2.845-3.402-6.687-3.46-10.381c-0.038-1.302,0.1-2.634,0.079-3.935c-0.021-1.493-0.188-2.997-0.522-4.453
			c-0.455-1.995-1.239-3.922-2.308-5.667c-0.315-0.517-0.675-1.044-1.037-1.53c-0.477-0.624-0.992-1.252-1.414-1.917
			c-1.377-2.117-2.314-4.503-2.976-6.932c-1.521-5.708-1.747-11.709-1.451-17.584c0.501-9.898,2.19-20.244,3.883-30.014"/>
	</g>
	<g id="POLYLINE_749_">
		
			<path fill="none" stroke="#FB8604" stroke-width="2.75" stroke-linecap="round" stroke-linejoin="round" stroke-miterlimit="10" d="
			M210.674,328.957c-2.193,8.212-4.048,16.725-5.053,25.168c-0.711,6.108-1.021,12.334-0.461,18.465
			c0.359,3.864,1.075,7.747,2.35,11.418c0.731,2.172,1.804,4.326,2.874,6.354c3.754,7.139,8.321,13.94,13.795,19.878
			c2.523,2.738,5.318,5.363,8.222,7.692c3.99,3.219,8.069,6.635,11.677,10.278c1.746,1.793,3.478,3.672,4.81,5.8
			c2.511,4.301,3.823,9.239,4.302,14.173c0.252,3.09-0.037,6.23-0.458,9.294c-0.915,6.4-2.636,13.005-4.398,19.229
			c-1.727,5.981-3.941,12.586-6.137,18.411c-0.925,2.458-2.263,5.709-3.062,8.187c-1.193,3.686-2.211,7.531-2.224,11.429
			c0.008,1.378,0.159,2.777,0.584,4.092c0.116,0.356,0.255,0.718,0.414,1.057c1.316,2.508,11.449,24.353,12.913,27.449
			c3.975,8.566,8.41,17.767,13.009,26.01c3.474,6.23,10.516,17.164,14.374,23.193c0.537,0.795,1.156,1.554,1.848,2.219
			c1.538,1.497,3.532,2.519,5.65,2.878c0.742,0.13,1.511,0.193,2.264,0.192c3.089-0.088,17.583,0.183,20.466-0.182
			c1.29-0.134,2.612-0.309,3.857-0.688c0.933-0.279,1.901-0.701,2.564-1.358c0.078-0.08,0.096-0.101,0.096-0.101
			c0.055-0.061,0.073-0.082,0.073-0.082c0.052-0.062,0.069-0.083,0.069-0.083c0.049-0.064,0.064-0.085,0.064-0.085
			c0.046-0.065,0.06-0.086,0.06-0.086c0.043-0.066,0.056-0.088,0.056-0.088c0.04-0.067,0.052-0.089,0.052-0.089
			c0.496-0.928,0.741-1.944,0.885-2.977c0.207-1.555,0.165-3.151,0.031-4.711c-0.141-1.547-0.347-3.117-0.806-4.605
			c-0.313-1.022-0.795-2.104-1.465-2.923c-0.399-0.493-0.861-0.889-1.362-1.177c-0.425-0.245-0.803-0.362-1.238-0.519
			c-0.959-0.33-1.998-0.6-2.986-0.832c-5.331-1.225-11.077-1.657-16.434-2.753c-0.068-0.016-0.102-0.025-0.102-0.025
			c-0.069-0.02-0.104-0.031-0.104-0.031c-0.07-0.024-0.106-0.037-0.106-0.037c-0.072-0.028-0.108-0.043-0.108-0.043
			c-0.073-0.032-0.11-0.049-0.11-0.049c-0.648-0.323-1.114-0.709-1.624-1.181c-0.606-0.562-1.177-1.214-1.705-1.849
			c-1.009-1.23-1.998-2.603-2.871-3.936c-1.319-2.048-2.512-4.385-3.598-6.57c-1.773-3.565-3.683-8.054-5.246-11.741
			c-2.303-5.55-4.644-11.448-6.243-17.228c-1.138-4.07-2.042-8.277-2.361-12.497c-0.221-3.095-0.08-6.34,0.139-9.434
			c0.329-4.053,0.992-8.127,2.299-11.987c0.728-2.118,1.752-4.273,2.72-6.296c2.183-4.506,5.149-9.856,7.597-14.25
			c9.91-17.26,21.106-36.104,30.075-53.847c3.043-6.148,5.766-12.66,7.8-19.213c1.211-3.953,2.284-8.04,2.945-12.124
			c0.445-3.058,0.536-6.217,0.518-9.304c-0.056-6.333-0.718-12.974-1.472-19.264c-1.165-9.339-2.877-19.385-4.632-28.635"/>
	</g>
	<g id="POLYLINE_699_">
		
			<path fill="none" stroke="#FB8604" stroke-width="2.75" stroke-linecap="round" stroke-linejoin="round" stroke-miterlimit="10" d="
			M250.122,436.373l-62.666,57.648c-2.021,1.906-4.74,4.562-6.676,6.549"/>
	</g>
	<g id="POLYLINE_674_">
		
			<path fill="none" stroke="#FB8604" stroke-width="2.75" stroke-linecap="round" stroke-linejoin="round" stroke-miterlimit="10" d="
			M167.959,568.521c0.213,2.943,0.479,5.999,1.112,8.882c0.296,1.25,0.652,2.646,1.397,3.689c0.051,0.066,0.068,0.088,0.068,0.088
			c0.052,0.062,0.069,0.083,0.069,0.083c0.07,0.077,0.087,0.096,0.087,0.096c0.071,0.071,0.088,0.088,0.088,0.088
			c0.072,0.064,0.09,0.079,0.09,0.079c0.073,0.057,0.091,0.071,0.091,0.071c0.073,0.051,0.092,0.063,0.092,0.063
			c0.074,0.044,0.093,0.055,0.093,0.055c1.086,0.546,2.271,0.876,3.452,1.139c2.251,0.487,4.621,0.708,6.919,0.848
			c3.243,0.148,6.595,0.186,9.679,1.316c1.305,0.47,2.65,1.228,3.537,2.249c0.552,0.642,0.915,1.288,1.307,2.013
			c0.661,1.27,1.121,2.647,1.385,4.053c0.232,1.286,0.363,2.688,0.271,3.982c-0.088,0.918-0.442,1.764-1.01,2.403
			c-0.643,0.732-1.507,1.178-2.349,1.471c-0.894,0.307-1.843,0.467-2.783,0.554c-0.534,0.048-1.103,0.073-1.64,0.079
			c-7.171-0.015-22.452,0.014-29.516,0.001c-0.08-0.001-0.1-0.002-0.1-0.002c-0.614-0.026-1.172-0.3-1.64-0.605
			c-0.598-0.398-1.07-0.853-1.549-1.37c-1.463-1.616-2.608-3.534-3.684-5.421c-1.348-2.4-2.557-4.968-3.521-7.546
			c-1.011-2.699-1.929-6.127-2.734-8.905c-0.631-2.354-1.48-5.293-1.898-7.687c-0.622-3.458-0.96-7.167-1.213-10.673l-2.392-42.825"
			/>
	</g>
	<g id="POLYLINE_673_">
		
			<path fill="none" stroke="#FB8604" stroke-width="2.75" stroke-linecap="round" stroke-linejoin="round" stroke-miterlimit="10" d="
			M569.752,226.591c1.812-0.428,3.72-0.818,5.568-1.031c2.341-0.277,4.781-0.33,7.136-0.266c3.458,0.11,6.972,0.465,10.351,1.221"/>
	</g>
	<g id="POLYLINE_659_">
		
			<path fill="none" stroke="#FB8604" stroke-width="2.75" stroke-linecap="round" stroke-linejoin="round" stroke-miterlimit="10" d="
			M555.161,330.477c-2.289-0.265-4.569-0.811-6.693-1.709c-1.697-0.717-3.418-1.75-4.68-3.08c-0.825-0.866-1.368-1.749-1.874-2.796
			c-0.536-1.1-1.038-2.582-1.49-3.726c-0.256-0.633-0.572-1.351-0.987-1.876c-0.064-0.078-0.096-0.116-0.096-0.116
			c-0.066-0.074-0.1-0.109-0.1-0.109c-0.068-0.069-0.092-0.091-0.092-0.091c-0.073-0.066-0.098-0.088-0.098-0.088
			c-0.075-0.062-0.101-0.082-0.101-0.082c-0.077-0.058-0.103-0.076-0.103-0.076c-0.079-0.054-0.106-0.071-0.106-0.071
			c-0.284-0.179-0.506-0.275-0.764-0.383c-0.46-0.182-1.175-0.443-1.568-0.695c-0.737-0.431-1.213-1.145-1.544-1.832
			c-0.343-0.708-0.581-1.396-0.818-2.135c-0.5-1.584-1.042-3.844-1.536-5.433c-0.316-0.996-0.706-2.126-1.28-2.976
			c-0.492-0.731-1.136-1.174-1.794-1.668c-0.136-0.103-0.334-0.269-0.421-0.351c-0.074-0.07-0.099-0.094-0.099-0.094
			c-0.072-0.073-0.096-0.098-0.096-0.098c-0.07-0.077-0.092-0.103-0.092-0.103c-0.067-0.081-0.089-0.108-0.089-0.108
			c-0.043-0.056-0.064-0.085-0.064-0.085c-0.041-0.059-0.062-0.089-0.062-0.089c-0.04-0.061-0.059-0.092-0.059-0.092
			c-0.038-0.064-0.057-0.096-0.057-0.096c-0.036-0.067-0.054-0.101-0.054-0.101c-0.034-0.07-0.051-0.105-0.051-0.105
			c-0.032-0.073-0.048-0.11-0.048-0.11c-0.031-0.076-0.045-0.116-0.045-0.116c-0.355-1.051-0.311-2.085-0.299-3.159
			c0.047-1.614,0.29-3.871,0.367-5.486c0.026-0.644,0.048-1.411-0.058-2.028c-0.016-0.086-0.028-0.14-0.035-0.168
			c-0.02-0.078-0.027-0.102-0.027-0.102c-0.023-0.072-0.03-0.095-0.03-0.095c-0.025-0.066-0.034-0.087-0.034-0.087
			c-0.037-0.079-0.047-0.097-0.047-0.097c-0.042-0.068-0.053-0.084-0.053-0.084c-0.059-0.07-0.072-0.083-0.072-0.083
			c-0.08-0.062-0.085-0.065-0.085-0.065c-0.076-0.037-0.082-0.039-0.082-0.039c-0.075-0.023-0.081-0.024-0.081-0.024
			c-0.079-0.014-0.093-0.015-0.093-0.015c-0.069-0.005-0.083-0.005-0.083-0.005c-0.071,0-0.085,0.001-0.085,0.001
			c-0.175,0.009-0.295,0.028-0.445,0.044c-0.059,0.005-0.088,0.008-0.088,0.008c-0.058,0.003-0.087,0.004-0.087,0.004
			c-0.071,0-0.085,0-0.085,0c-0.069-0.005-0.082-0.006-0.082-0.006c-0.079-0.014-0.085-0.015-0.085-0.015
			c-0.08-0.025-0.086-0.028-0.086-0.028c-0.08-0.042-0.086-0.045-0.086-0.045c-0.077-0.064-0.082-0.069-0.082-0.069
			c-0.063-0.08-0.075-0.099-0.075-0.099c-0.033-0.062-0.043-0.084-0.043-0.084c-0.028-0.072-0.037-0.097-0.037-0.097
			c-0.016-0.053-0.024-0.081-0.024-0.081c-0.014-0.058-0.021-0.088-0.021-0.088c-0.012-0.063-0.018-0.095-0.018-0.095
			c-0.078-0.533-0.045-0.982-0.012-1.502c0.071-0.904,0.217-1.88,0.358-2.777c0.285-1.827,0.995-5.511,1.093-7.315
			c0.024-0.393,0.033-0.894-0.025-1.264c-0.011-0.066-0.017-0.099-0.017-0.099c-0.013-0.062-0.02-0.092-0.02-0.092
			c-0.015-0.057-0.023-0.085-0.023-0.085c-0.027-0.078-0.036-0.102-0.036-0.102c-0.031-0.068-0.042-0.089-0.042-0.089
			c-0.048-0.075-0.061-0.092-0.061-0.092c-0.076-0.074-0.082-0.078-0.082-0.078c-0.076-0.044-0.083-0.047-0.083-0.047
			c-0.077-0.025-0.084-0.027-0.084-0.027c-0.075-0.011-0.083-0.011-0.083-0.011c-0.08,0-0.088,0-0.088,0
			c-0.075,0.007-0.092,0.01-0.092,0.01c-0.069,0.013-0.087,0.017-0.087,0.017c-0.071,0.018-0.089,0.023-0.089,0.023
			c-0.054,0.017-0.091,0.029-0.091,0.029c-0.293,0.102-0.635,0.28-0.849,0.368c-0.068,0.028-0.101,0.041-0.101,0.041
			c-0.065,0.023-0.081,0.029-0.081,0.029c-0.077,0.023-0.092,0.027-0.092,0.027c-0.079,0.016-0.086,0.017-0.086,0.017
			c-0.079,0.006-0.085,0.006-0.085,0.006c-0.073-0.008-0.083-0.01-0.083-0.01c-0.075-0.031-0.083-0.036-0.083-0.036
			c-0.081-0.078-0.087-0.087-0.087-0.087c-0.039-0.07-0.044-0.081-0.044-0.081c-0.025-0.073-0.029-0.086-0.029-0.086
			c-0.016-0.07-0.018-0.084-0.018-0.084c-0.011-0.078-0.012-0.094-0.012-0.094c-0.005-0.068-0.006-0.085-0.006-0.085
			c-0.002-0.073-0.002-0.111-0.002-0.111c0.057-1.15,0.455-2.28,0.782-3.374c1.753-5.179,3.641-10.553,6.184-15.396
			c1.481-2.871,3.526-5.478,4.71-8.501c0.25-0.649,0.457-1.321,0.573-2.007c0.13-0.75,0.151-1.54,0.088-2.265
			c-0.065-0.771-0.222-1.551-0.413-2.301c-0.715-2.643-1.809-5.725-2.382-8.395c-1.672-7.436-2.612-15.271-3.404-22.848
			c-0.721-7.842-1.501-16.502-1.464-24.366c0.037-1.826,0.128-3.702,0.473-5.498c0.239-1.223,0.641-2.582,1.428-3.533
			c0.529-0.655,1.242-1.069,1.993-1.252c0.787-0.2,1.595-0.1,2.307,0.107c1.162,0.353,2.1,0.985,3.037,1.71
			c1.733,1.376,3.263,3.099,4.724,4.756c3.123,3.597,6.007,7.572,8.594,11.57c7.942,12.369,14.236,26.078,20.067,39.55"/>
	</g>
	<g id="POLYLINE_658_">
		
			<path fill="none" stroke="#FB8604" stroke-width="2.75" stroke-linecap="round" stroke-linejoin="round" stroke-miterlimit="10" d="
			M534.814,250.237l-14.419,3.816l-2.523,0.726l-19.631,6.227c-7.668,2.336-15.655,4.105-23.628,4.971
			c-4.356,0.528-15.812,1.421-20.093,2.046c-1.753,0.245-3.567,0.599-5.279,1.049c-1.811,0.492-4.474,1.263-6.267,1.617
			c-1.52,0.31-3.109,0.503-4.657,0.615c-9.14,0.55-18.513-0.441-27.554-1.774c-6.282-0.928-15.836-3.104-22.129-4.077
			c-1.883-0.281-3.86-0.521-5.762-0.592c-1.318-0.05-2.664-0.013-3.973,0.162c-1.775,0.215-4.077,0.831-5.822,1.237
			c-1.254,0.283-2.542,0.523-3.82,0.628c-1.172,0.101-2.381,0.095-3.556,0.037c-7.284-0.461-15.188-2.273-22.487-2.49
			c-3.861-0.15-7.791,0.138-11.616,0.662c-4.086,0.527-10.151,1.832-14.239,2.595c-1.586,0.287-3.288,0.552-4.894,0.661
			c-1.523,0.111-3.109,0.101-4.635,0.039c-13.312-0.742-28.462-2.759-41.769-2.257c-1.573,0.113-3.356,0.208-4.81,0.786
			c-0.06,0.027-0.118,0.054-0.118,0.054c-0.056,0.028-0.11,0.056-0.11,0.056c-0.052,0.029-0.102,0.057-0.102,0.057
			c-0.048,0.029-0.093,0.059-0.093,0.059c-0.044,0.03-0.085,0.061-0.085,0.061c-0.076,0.063-0.111,0.095-0.111,0.095
			c-0.064,0.066-0.092,0.1-0.092,0.1c-0.05,0.069-0.072,0.104-0.072,0.104c-0.037,0.072-0.042,0.083-0.042,0.083
			c-0.027,0.075-0.03,0.086-0.03,0.086c-0.017,0.077-0.019,0.089-0.019,0.089c-0.008,0.079-0.008,0.091-0.008,0.091
			c0,0.07,0.001,0.081,0.001,0.081c0.007,0.071,0.008,0.083,0.008,0.083c0.012,0.072,0.015,0.084,0.015,0.084
			c0.018,0.073,0.024,0.098,0.024,0.098c0.023,0.075,0.032,0.1,0.032,0.1c0.028,0.076,0.038,0.101,0.038,0.101
			c0.033,0.077,0.044,0.102,0.044,0.102c0.173,0.372,0.422,0.743,0.625,1.083c0.076,0.127,0.182,0.322,0.225,0.416
			c0.035,0.076,0.046,0.101,0.046,0.101c0.03,0.075,0.04,0.1,0.04,0.1c0.026,0.074,0.033,0.098,0.033,0.098
			c0.02,0.073,0.023,0.085,0.023,0.085c0.015,0.071,0.017,0.083,0.017,0.083c0.01,0.07,0.011,0.082,0.011,0.082
			c0.004,0.08,0.004,0.091,0.004,0.091c-0.004,0.078-0.006,0.089-0.006,0.089c-0.011,0.065-0.019,0.097-0.019,0.097
			c-0.02,0.063-0.032,0.094-0.032,0.094c-0.029,0.061-0.046,0.091-0.046,0.091c-0.038,0.059-0.059,0.088-0.059,0.088
			c-0.046,0.057-0.072,0.085-0.072,0.085c-0.055,0.055-0.085,0.082-0.085,0.082c-0.063,0.053-0.097,0.079-0.097,0.079
			c-0.072,0.051-0.109,0.077-0.109,0.077c-0.08,0.05-0.121,0.074-0.121,0.074c-0.605,0.329-1.194,0.463-1.837,0.611
			c-0.967,0.207-2.059,0.346-3.046,0.458c-9.046,0.909-18.734,1.015-27.467,3.74c-3.3,1.043-6.543,2.397-9.466,4.265
			c-1.299,0.861-2.72,1.881-3.547,3.205c-0.043,0.074-0.063,0.111-0.063,0.111c-0.039,0.073-0.057,0.109-0.057,0.109
			c-0.034,0.072-0.05,0.108-0.05,0.108c-0.03,0.071-0.044,0.106-0.044,0.106c-0.026,0.07-0.038,0.105-0.038,0.105
			c-0.022,0.069-0.031,0.103-0.031,0.103c-0.017,0.068-0.025,0.101-0.025,0.101c-0.013,0.066-0.018,0.099-0.018,0.099
			c-0.009,0.065-0.012,0.097-0.012,0.097c-0.004,0.064-0.005,0.095-0.005,0.095c0,0.062,0.001,0.093,0.001,0.093
			c0.005,0.061,0.008,0.091,0.008,0.091c0.009,0.06,0.015,0.089,0.015,0.089c0.014,0.058,0.022,0.087,0.022,0.087
			c0.018,0.057,0.029,0.085,0.029,0.085c0.023,0.055,0.036,0.082,0.036,0.082c0.043,0.08,0.05,0.092,0.05,0.092
			c0.046,0.07,0.054,0.082,0.054,0.082c0.062,0.079,0.071,0.091,0.071,0.091c0.059,0.066,0.08,0.087,0.08,0.087
			c0.066,0.064,0.088,0.084,0.088,0.084c0.071,0.061,0.096,0.082,0.096,0.082c0.664,0.518,1.494,0.783,2.191,1.19
			c0.077,0.046,0.101,0.062,0.101,0.062c0.071,0.047,0.094,0.063,0.094,0.063c0.066,0.048,0.086,0.064,0.086,0.064
			c0.078,0.065,0.087,0.073,0.087,0.073c0.075,0.075,0.083,0.083,0.083,0.083c0.061,0.077,0.067,0.086,0.067,0.086
			c0.046,0.079,0.05,0.088,0.05,0.088c0.026,0.073,0.029,0.082,0.029,0.082c0.012,0.072,0.013,0.096,0.013,0.096
			c-0.004,0.075-0.007,0.1-0.007,0.1c-0.019,0.077-0.027,0.104-0.027,0.104c-0.033,0.08-0.047,0.107-0.047,0.107
			c-0.031,0.055-0.048,0.083-0.048,0.083c-0.038,0.056-0.058,0.085-0.058,0.085c-0.045,0.057-0.069,0.086-0.069,0.086
			c-0.051,0.059-0.079,0.088-0.079,0.088c-0.058,0.06-0.089,0.09-0.089,0.09c-0.065,0.061-0.099,0.092-0.099,0.092
			c-0.794,0.683-1.697,1.148-2.608,1.639c-6.017,3.046-13.329,5.93-19.022,9.534c-2.245,1.422-4.427,3.041-6.355,4.873
			c-0.971,0.95-2.028,2.016-2.641,3.22c-0.037,0.081-0.048,0.107-0.048,0.107c-0.032,0.078-0.041,0.103-0.041,0.103
			c-0.027,0.074-0.035,0.098-0.035,0.098c-0.021,0.071-0.028,0.094-0.028,0.094c-0.016,0.068-0.021,0.089-0.021,0.089
			c-0.011,0.064-0.014,0.085-0.014,0.085c-0.007,0.08-0.007,0.099-0.007,0.099c0.002,0.074,0.004,0.092,0.004,0.092
			c0.011,0.068,0.015,0.084,0.015,0.084c0.027,0.076,0.034,0.09,0.034,0.09c0.05,0.078,0.06,0.09,0.06,0.09
			c0.07,0.063,0.083,0.073,0.083,0.073c0.074,0.041,0.082,0.045,0.082,0.045c0.078,0.029,0.087,0.032,0.087,0.032
			c0.077,0.019,0.088,0.021,0.088,0.021c0.063,0.011,0.085,0.014,0.085,0.014c0.067,0.008,0.091,0.01,0.091,0.01
			c0.222,0.017,0.414,0.005,0.581-0.004c0.392-0.027,1.051-0.093,1.421-0.07c0.081,0.005,0.107,0.008,0.107,0.008
			c0.078,0.008,0.103,0.012,0.103,0.012c0.074,0.012,0.098,0.016,0.098,0.016c0.07,0.015,0.093,0.021,0.093,0.021
			c0.077,0.023,0.088,0.027,0.088,0.027c0.072,0.028,0.081,0.032,0.081,0.032c0.075,0.039,0.084,0.044,0.084,0.044
			c0.074,0.052,0.082,0.059,0.082,0.059c0.076,0.078,0.082,0.086,0.082,0.086c0.044,0.068,0.056,0.089,0.056,0.089
			c0.029,0.068,0.038,0.092,0.038,0.092c0.021,0.076,0.026,0.102,0.026,0.102c0.009,0.055,0.012,0.084,0.012,0.084
			c0.004,0.059,0.005,0.089,0.005,0.089c0,0.063-0.001,0.095-0.001,0.095c-0.004,0.066-0.007,0.101-0.007,0.101
			c-0.008,0.07-0.013,0.106-0.013,0.106c-0.012,0.074-0.019,0.111-0.019,0.111c-0.016,0.077-0.025,0.117-0.025,0.117
			c-0.225,0.88-0.652,1.65-1.085,2.435c-2.303,3.924-5.342,7.682-8.164,11.254c-1.35,1.658-3.168,3.836-4.36,5.59
			c-2.44,3.479-5.941,9.438-8.207,13.1c-1.51,2.415-3.211,4.864-4.951,7.117l-6.763,8.469c-2.38,3.062-4.579,6.365-6.386,9.799
			c-3.238,6.216-5.649,12.924-7.581,19.652c-0.872,3.146-1.678,6.428-2.105,9.666c-0.121,0.963-0.216,1.974-0.212,2.945
			c0.003,0.68,0.057,1.455,0.254,2.06c0.018,0.055,0.037,0.108,0.037,0.108c0.02,0.052,0.04,0.103,0.04,0.103
			c0.021,0.049,0.043,0.097,0.043,0.097c0.022,0.046,0.046,0.091,0.046,0.091c0.024,0.044,0.048,0.086,0.048,0.086
			c0.051,0.08,0.078,0.117,0.078,0.117c0.055,0.071,0.084,0.104,0.084,0.104c0.06,0.062,0.09,0.091,0.09,0.091
			c0.079,0.064,0.088,0.071,0.088,0.071c0.079,0.051,0.089,0.057,0.089,0.057c0.072,0.038,0.083,0.043,0.083,0.043
			c0.075,0.032,0.086,0.036,0.086,0.036c0.077,0.026,0.1,0.033,0.1,0.033c0.068,0.018,0.092,0.023,0.092,0.023
			c0.07,0.013,0.094,0.017,0.094,0.017c0.072,0.01,0.096,0.012,0.096,0.012c0.073,0.006,0.097,0.008,0.097,0.008
			c0.5,0.027,1.002-0.091,1.477-0.096c0.066,0.001,0.087,0.001,0.087,0.001c0.063,0.003,0.084,0.005,0.084,0.005
			c0.081,0.009,0.1,0.012,0.1,0.012c0.076,0.015,0.086,0.018,0.086,0.018c0.081,0.024,0.089,0.027,0.089,0.027
			c0.075,0.033,0.083,0.037,0.083,0.037c0.068,0.042,0.095,0.062,0.095,0.062c0.074,0.07,0.097,0.097,0.097,0.097
			c0.042,0.058,0.061,0.089,0.061,0.089c0.036,0.067,0.052,0.103,0.052,0.103c0.029,0.076,0.042,0.117,0.042,0.117
			c0.012,0.042,0.023,0.086,0.023,0.086c0.01,0.045,0.019,0.092,0.019,0.092c0.008,0.048,0.015,0.098,0.015,0.098
			c0.006,0.051,0.011,0.103,0.011,0.103c0.004,0.054,0.007,0.109,0.007,0.109c0.019,1.021-0.231,1.944-0.47,2.912
			c-1.854,6.441-5.491,15.704-7.396,22.115c-1.421,4.607-2.727,9.459-3.638,14.194c-0.987,5.173-1.593,10.569-1.809,15.83
			c-0.15,4.122-0.127,8.366,0.387,12.462c0.137,1.023,0.31,2.098,0.569,3.098c0.18,0.686,0.422,1.467,0.797,2.04
			c0.055,0.079,0.083,0.117,0.083,0.117c0.056,0.07,0.084,0.103,0.084,0.103c0.057,0.061,0.086,0.089,0.086,0.089
			c0.058,0.052,0.087,0.075,0.087,0.075c0.059,0.042,0.088,0.061,0.088,0.061c0.059,0.033,0.089,0.047,0.089,0.047
			c0.06,0.023,0.09,0.033,0.09,0.033c0.061,0.014,0.092,0.018,0.092,0.018c0.062,0.004,0.093,0.003,0.093,0.003
			c0.062-0.006,0.094-0.012,0.094-0.012c0.063-0.016,0.095-0.027,0.095-0.027c0.079-0.034,0.091-0.04,0.091-0.04
			c0.071-0.041,0.083-0.048,0.083-0.048c0.072-0.05,0.084-0.059,0.084-0.059c0.072-0.058,0.084-0.069,0.084-0.069
			c0.073-0.066,0.097-0.09,0.097-0.09c0.873-0.933,1.331-2.135,2.005-3.175c0.049-0.073,0.066-0.096,0.066-0.096
			c0.047-0.064,0.062-0.084,0.062-0.084c0.066-0.08,0.073-0.088,0.073-0.088c0.075-0.072,0.081-0.077,0.081-0.077
			c0.071-0.043,0.083-0.047,0.083-0.047c0.072-0.003,0.082,0,0.082,0c0.077,0.066,0.084,0.077,0.084,0.077
			c0.035,0.07,0.042,0.086,0.042,0.086c0.024,0.073,0.03,0.094,0.03,0.094c0.016,0.066,0.021,0.089,0.021,0.089
			c0.1,0.571,0.08,1.04,0.084,1.584c-0.001,0.232-0.013,0.686-0.02,0.917c0,0-0.353,8.078-0.353,8.078
			c-0.167,4.75-0.06,9.631,0.5,14.352c0.773,6.574,2.242,13.155,4.656,19.328c1.089,2.76,2.392,5.475,3.987,7.98
			c1.061,1.671,2.312,3.265,3.616,4.753c2.174,2.484,5.011,5.259,6.966,7.916c1.408,1.885,2.601,3.956,3.488,6.136
			c2.455,6.074,3.205,13.148,5.134,19.384c0.399,1.177,0.859,2.462,1.673,3.402c0.072,0.077,0.108,0.115,0.108,0.115
			c0.073,0.071,0.11,0.106,0.11,0.106c0.074,0.065,0.112,0.097,0.112,0.097c0.076,0.059,0.114,0.087,0.114,0.087
			c0.077,0.053,0.116,0.078,0.116,0.078c0.078,0.047,0.118,0.068,0.118,0.068c0.08,0.04,0.12,0.058,0.12,0.058
			c0.074,0.031,0.108,0.043,0.108,0.043c0.068,0.023,0.103,0.034,0.103,0.034c0.069,0.019,0.104,0.027,0.104,0.027
			c0.07,0.014,0.106,0.02,0.106,0.02c0.071,0.01,0.107,0.014,0.107,0.014c0.072,0.005,0.108,0.007,0.108,0.007
			c0.073,0.001,0.11,0.001,0.11,0.001c0.074-0.003,0.111-0.006,0.111-0.006c0.075-0.007,0.112-0.012,0.112-0.012
			c0.075-0.011,0.113-0.018,0.113-0.018c0.076-0.016,0.114-0.024,0.114-0.024c0.077-0.02,0.115-0.03,0.115-0.03
			c0.077-0.024,0.116-0.036,0.116-0.036c0.078-0.027,0.117-0.042,0.117-0.042c0.079-0.031,0.118-0.048,0.118-0.048
			c0.079-0.035,0.119-0.054,0.119-0.054c0.972-0.483,1.684-1.22,2.372-2.024c1.041-1.25,1.895-2.667,2.638-4.11
			c1.408-2.769,2.44-5.744,3.074-8.785c0.95-4.585,1.014-9.355,0.876-14.02c-0.359-9.698-1.418-20.141,0.14-29.762
			c1.025-6.362,2.751-12.702,5.354-18.604c0.471-1.034,0.997-2.097,1.588-3.069c0.372-0.619,0.827-1.272,1.326-1.77
			c0.074-0.071,0.111-0.104,0.111-0.104c0.073-0.064,0.109-0.094,0.109-0.094c0.072-0.057,0.107-0.084,0.107-0.084
			c0.07-0.05,0.105-0.074,0.105-0.074c0.069-0.043,0.103-0.063,0.103-0.063c0.067-0.036,0.101-0.053,0.101-0.053
			c0.066-0.029,0.099-0.042,0.099-0.042c0.064-0.022,0.096-0.031,0.096-0.031c0.063-0.015,0.094-0.02,0.094-0.02
			c0.061-0.007,0.091-0.009,0.091-0.009c0.06,0,0.089,0.003,0.089,0.003c0.058,0.008,0.086,0.014,0.086,0.014
			c0.056,0.016,0.084,0.026,0.084,0.026c0.076,0.034,0.085,0.039,0.085,0.039c0.073,0.045,0.082,0.052,0.082,0.052
			c0.08,0.063,0.088,0.07,0.088,0.07c0.068,0.065,0.085,0.083,0.085,0.083c0.066,0.075,0.082,0.094,0.082,0.094
			c0.048,0.062,0.064,0.083,0.064,0.083c0.409,0.569,0.648,1.289,1.011,1.86c0.042,0.063,0.056,0.083,0.056,0.083
			c0.057,0.077,0.071,0.095,0.071,0.095c0.065,0.076,0.073,0.084,0.073,0.084c0.074,0.071,0.082,0.078,0.082,0.078
			c0.076,0.056,0.084,0.061,0.084,0.061c0.077,0.038,0.092,0.044,0.092,0.044c0.077,0.02,0.092,0.022,0.092,0.022
			c0.079,0.004,0.095,0.003,0.095,0.003c0.065-0.009,0.081-0.012,0.081-0.012c0.066-0.019,0.083-0.025,0.083-0.025
			c0.068-0.03,0.085-0.038,0.085-0.038c0.069-0.04,0.086-0.051,0.086-0.051c0.07-0.049,0.088-0.063,0.088-0.063
			c0.071-0.059,0.089-0.075,0.089-0.075c0.072-0.068,0.091-0.087,0.091-0.087c0.074-0.078,0.092-0.098,0.092-0.098
			c0.463-0.539,0.73-1.071,1.035-1.673c0.396-0.81,0.749-1.702,1.058-2.55c1.041-2.902,1.803-5.937,2.364-8.967
			c0.797-4.128,1.458-10.981,2.166-15.146c0.319-1.853,0.741-3.738,1.376-5.51c1.061-3.034,2.956-6.32,4.427-9.188
			c6.199-12.386,11.374-26.877,16.209-39.879"/>
	</g>
	<g id="POLYLINE_657_">
		
			<path fill="none" stroke="#FB8604" stroke-width="2.75" stroke-linecap="round" stroke-linejoin="round" stroke-miterlimit="10" d="
			M315.253,417.114c1.021,1.572,2.397,2.896,3.845,4.073c1.934,1.551,4.069,2.875,6.308,3.938c1.123,0.526,2.298,1,3.497,1.319
			c0.767,0.198,1.636,0.368,2.416,0.273c0.08-0.012,0.119-0.018,0.119-0.018c0.077-0.015,0.114-0.023,0.114-0.023
			c0.073-0.018,0.103-0.027,0.103-0.027c0.06-0.018,0.089-0.028,0.089-0.028c0.057-0.02,0.085-0.031,0.085-0.031
			c0.055-0.022,0.081-0.034,0.081-0.034c0.078-0.037,0.103-0.05,0.103-0.05c0.073-0.041,0.097-0.055,0.097-0.055
			c0.069-0.045,0.092-0.06,0.092-0.06c0.066-0.048,0.087-0.064,0.087-0.064c0.062-0.051,0.083-0.068,0.083-0.068
			c0.079-0.072,0.098-0.09,0.098-0.09c0.075-0.075,0.093-0.095,0.093-0.095c0.303-0.329,0.529-0.7,0.808-1.004
			c0.075-0.08,0.094-0.099,0.094-0.099c0.079-0.077,0.1-0.095,0.1-0.095c0.063-0.055,0.085-0.073,0.085-0.073
			c0.066-0.052,0.089-0.069,0.089-0.069c0.07-0.05,0.094-0.066,0.094-0.066c0.074-0.047,0.1-0.062,0.1-0.062
			c0.079-0.043,0.106-0.057,0.106-0.057c0.055-0.027,0.083-0.04,0.083-0.04c0.058-0.025,0.087-0.037,0.087-0.037
			c0.06-0.023,0.091-0.034,0.091-0.034c0.069-0.022,0.107-0.034,0.107-0.034c0.813-0.213,1.575-0.132,2.381-0.043
			c1.584,0.205,3.258,0.649,4.805,1.061c2.655,0.726,7.081,2.083,9.743,2.563c0.791,0.144,1.612,0.263,2.416,0.29
			c0.714,0.025,1.44-0.023,2.144-0.145c0.777-0.123,1.92-0.468,2.685-0.672c0.675-0.175,1.371-0.304,2.069-0.321
			c0.874-0.023,1.757,0.101,2.615,0.262c4.599,0.97,9.457,2.806,14.181,3.429c5.882,0.845,11.906,0.041,17.736-0.862
			c28.593-4.813,59.146-9.962,87.283-16.898"/>
	</g>
	<g id="POLYLINE_656_">
		
			<path fill="none" stroke="#FB8604" stroke-width="2.75" stroke-linecap="round" stroke-linejoin="round" stroke-miterlimit="10" d="
			M475.651,414.687c2.499,6.221,4.392,12.741,5.321,19.387c0.574,3.682,0.773,10.409,1.007,14.228
			c1.071,17.318,3.785,53.185,4.364,70.043c0.128,4.199,0.217,9.03,0.102,13.224c-0.059,1.952-0.161,4.07-0.382,6.01
			c-0.131,1.097-0.293,2.229-0.593,3.294c-0.635,2.26-1.241,4.617-1.484,6.957c-0.096,1.096-0.159,2.302,0.217,3.337
			c0.617,1.431,1.542,2.549,2.652,3.584c0.587,0.569,1.528,1.202,1.875,1.608c0.652,0.712,1.093,1.494,1.508,2.345
			c0.942,1.992,1.547,4.153,2.063,6.29c1.421,6.271,2.345,12.925,2.936,19.328c0.272,3.27,0.472,6.742,1.367,9.907
			c0.464,1.64,1.153,3.418,2.338,4.641c0.606,0.626,1.268,0.963,2.009,1.343c0.934,0.457,1.928,0.799,2.938,1.044
			c1.462,0.355,2.986,0.518,4.489,0.556c1.468,0.021,14.907,0.022,16.207-0.014c1.756-0.062,3.548-0.211,5.258-0.633
			c1.219-0.303,2.535-0.801,3.445-1.651c0.08-0.078,0.12-0.117,0.12-0.117c0.888-0.934,1.331-2.059,1.588-3.275
			c0.295-1.464,0.276-2.982,0.137-4.463c-0.156-1.517-0.406-3.055-0.87-4.511c-0.333-1.039-0.85-2.179-1.616-2.942
			c-0.07-0.068-0.105-0.101-0.105-0.101c-0.071-0.064-0.107-0.096-0.107-0.096c-0.072-0.061-0.108-0.09-0.108-0.09
			c-0.073-0.057-0.11-0.085-0.11-0.085c-0.075-0.053-0.112-0.079-0.112-0.079c-0.076-0.05-0.114-0.074-0.114-0.074
			c-0.077-0.046-0.116-0.068-0.116-0.068c-0.079-0.043-0.118-0.063-0.118-0.063c-0.768-0.36-1.571-0.562-2.393-0.743
			c-1.608-0.335-3.302-0.491-4.941-0.591c-1.901-0.091-3.853-0.122-5.709-0.587c-1.079-0.263-2.281-0.716-3.081-1.477
			c-0.064-0.062-0.096-0.094-0.096-0.094c-0.061-0.064-0.091-0.096-0.091-0.096c-0.058-0.065-0.086-0.098-0.086-0.098
			c-0.055-0.066-0.082-0.1-0.082-0.1c-0.053-0.071-0.08-0.108-0.08-0.108c-0.492-0.723-0.733-1.467-0.986-2.276
			c-0.41-1.387-0.681-2.877-0.908-4.307c-1.229-8.719-1.544-17.758-1.5-26.558c0.18-11.441,1.345-24.93,2.243-36.385"/>
	</g>
</g>
<g id="AG-OUTLINE">
	<g id="POLYLINE_925_">
		
			<path fill="none" stroke="#FB8604" stroke-width="3.5" stroke-linecap="round" stroke-linejoin="round" stroke-miterlimit="10" d="
			M569.752,226.591c-6.321-14.091-13.119-28.384-22.375-40.811c-1.623-2.149-3.439-4.367-5.258-6.352
			c-1.084-1.172-2.233-2.358-3.497-3.337c-0.907-0.708-1.996-1.376-3.097-1.665c-0.817-0.226-1.663-0.213-2.412,0.027
			c-0.808,0.25-1.472,0.817-1.916,1.45c-0.445,0.646-0.674,1.247-0.894,1.945c-0.239,0.792-0.394,1.626-0.505,2.446
			c-0.354,2.717-0.319,5.56-0.253,8.297c0.254,7.444,0.935,15.809,1.722,23.22c0.703,6.277,1.558,12.851,2.88,19.027
			c0.637,3.177,1.768,6.37,2.614,9.425c0.23,0.906,0.409,1.847,0.442,2.783c0.121,2.622-1.124,4.986-2.389,7.191l-14.419,3.816
			l-2.523,0.726l-19.631,6.227c-7.668,2.336-15.655,4.105-23.628,4.971c-4.356,0.528-15.812,1.421-20.093,2.046
			c-1.753,0.245-3.567,0.599-5.279,1.049c-1.811,0.492-4.474,1.263-6.267,1.617c-1.52,0.31-3.109,0.503-4.657,0.615
			c-9.14,0.55-18.513-0.441-27.554-1.774c-6.282-0.928-15.836-3.104-22.129-4.077c-1.883-0.281-3.86-0.521-5.762-0.592
			c-1.318-0.05-2.664-0.013-3.973,0.162c-1.775,0.215-4.077,0.831-5.822,1.237c-1.254,0.283-2.542,0.523-3.82,0.628
			c-1.172,0.101-2.381,0.095-3.556,0.037c-7.284-0.461-15.188-2.273-22.487-2.49c-3.861-0.15-7.791,0.138-11.616,0.662
			c-4.086,0.527-10.151,1.832-14.239,2.595c-1.586,0.287-3.288,0.552-4.894,0.661c-1.523,0.111-3.109,0.101-4.635,0.039
			c-13.312-0.742-28.462-2.759-41.769-2.257c-1.573,0.113-3.356,0.208-4.81,0.786c-0.06,0.027-0.118,0.054-0.118,0.054
			c-0.056,0.028-0.11,0.056-0.11,0.056c-0.052,0.029-0.102,0.057-0.102,0.057c-0.048,0.029-0.093,0.059-0.093,0.059
			c-0.044,0.03-0.085,0.061-0.085,0.061c-0.076,0.063-0.111,0.095-0.111,0.095c-0.064,0.066-0.092,0.1-0.092,0.1
			c-0.05,0.069-0.072,0.104-0.072,0.104c-0.037,0.072-0.042,0.083-0.042,0.083c-0.027,0.075-0.03,0.086-0.03,0.086
			c-0.017,0.077-0.019,0.089-0.019,0.089c-0.008,0.079-0.008,0.091-0.008,0.091c0,0.07,0.001,0.081,0.001,0.081
			c0.007,0.071,0.008,0.083,0.008,0.083c0.012,0.072,0.015,0.084,0.015,0.084c0.018,0.073,0.024,0.098,0.024,0.098
			c0.023,0.075,0.032,0.1,0.032,0.1c0.028,0.076,0.038,0.101,0.038,0.101c0.033,0.077,0.044,0.102,0.044,0.102
			c0.173,0.372,0.422,0.743,0.625,1.083c0.076,0.127,0.182,0.322,0.225,0.416c0.035,0.076,0.046,0.101,0.046,0.101
			c0.03,0.075,0.04,0.1,0.04,0.1c0.026,0.074,0.033,0.098,0.033,0.098c0.02,0.073,0.023,0.085,0.023,0.085
			c0.015,0.071,0.017,0.083,0.017,0.083c0.01,0.07,0.011,0.082,0.011,0.082c0.004,0.08,0.004,0.091,0.004,0.091
			c-0.004,0.078-0.006,0.089-0.006,0.089c-0.011,0.065-0.019,0.097-0.019,0.097c-0.02,0.063-0.032,0.094-0.032,0.094
			c-0.029,0.061-0.046,0.091-0.046,0.091c-0.038,0.059-0.059,0.088-0.059,0.088c-0.046,0.057-0.072,0.085-0.072,0.085
			c-0.055,0.055-0.085,0.082-0.085,0.082c-0.063,0.053-0.097,0.079-0.097,0.079c-0.072,0.051-0.109,0.077-0.109,0.077
			c-0.08,0.05-0.121,0.074-0.121,0.074c-0.605,0.329-1.194,0.463-1.837,0.611c-0.967,0.207-2.059,0.346-3.046,0.458
			c-9.046,0.909-18.734,1.015-27.467,3.74c-3.3,1.043-6.543,2.397-9.466,4.265c-1.299,0.861-2.72,1.881-3.547,3.205
			c-0.043,0.074-0.063,0.111-0.063,0.111c-0.039,0.073-0.057,0.109-0.057,0.109c-0.034,0.072-0.05,0.108-0.05,0.108
			c-0.03,0.071-0.044,0.106-0.044,0.106c-0.026,0.07-0.038,0.105-0.038,0.105c-0.022,0.069-0.031,0.103-0.031,0.103
			c-0.017,0.068-0.025,0.101-0.025,0.101c-0.013,0.066-0.018,0.099-0.018,0.099c-0.009,0.065-0.012,0.097-0.012,0.097
			c-0.004,0.064-0.005,0.095-0.005,0.095c0,0.062,0.001,0.093,0.001,0.093c0.005,0.061,0.008,0.091,0.008,0.091
			c0.009,0.06,0.015,0.089,0.015,0.089c0.014,0.058,0.022,0.087,0.022,0.087c0.018,0.057,0.029,0.085,0.029,0.085
			c0.023,0.055,0.036,0.082,0.036,0.082c0.043,0.08,0.05,0.092,0.05,0.092c0.046,0.07,0.054,0.082,0.054,0.082
			c0.062,0.079,0.071,0.091,0.071,0.091c0.059,0.066,0.08,0.087,0.08,0.087c0.066,0.064,0.088,0.084,0.088,0.084
			c0.071,0.061,0.096,0.082,0.096,0.082c0.664,0.518,1.494,0.783,2.191,1.19c0.077,0.046,0.101,0.062,0.101,0.062
			c0.071,0.047,0.094,0.063,0.094,0.063c0.066,0.048,0.086,0.064,0.086,0.064c0.078,0.065,0.087,0.073,0.087,0.073
			c0.075,0.075,0.083,0.083,0.083,0.083c0.061,0.077,0.067,0.086,0.067,0.086c0.046,0.079,0.05,0.088,0.05,0.088
			c0.026,0.073,0.029,0.082,0.029,0.082c0.012,0.072,0.013,0.096,0.013,0.096c-0.004,0.075-0.007,0.1-0.007,0.1
			c-0.019,0.077-0.027,0.104-0.027,0.104c-0.033,0.08-0.047,0.107-0.047,0.107c-0.031,0.055-0.048,0.083-0.048,0.083
			c-0.038,0.056-0.058,0.085-0.058,0.085c-0.045,0.057-0.069,0.086-0.069,0.086c-0.051,0.059-0.079,0.088-0.079,0.088
			c-0.058,0.06-0.089,0.09-0.089,0.09c-0.065,0.061-0.099,0.092-0.099,0.092c-0.794,0.683-1.697,1.148-2.608,1.639
			c-6.017,3.046-13.329,5.93-19.022,9.534c-2.245,1.422-4.427,3.041-6.355,4.873c-0.971,0.95-2.028,2.016-2.641,3.22
			c-0.037,0.081-0.048,0.107-0.048,0.107c-0.032,0.078-0.041,0.103-0.041,0.103c-0.027,0.074-0.035,0.098-0.035,0.098
			c-0.021,0.071-0.028,0.094-0.028,0.094c-0.016,0.068-0.021,0.089-0.021,0.089c-0.011,0.064-0.014,0.085-0.014,0.085
			c-0.007,0.08-0.007,0.099-0.007,0.099c0.002,0.074,0.004,0.092,0.004,0.092c0.011,0.068,0.015,0.084,0.015,0.084
			c0.027,0.076,0.034,0.09,0.034,0.09c0.05,0.078,0.06,0.09,0.06,0.09c0.07,0.063,0.083,0.073,0.083,0.073
			c0.074,0.041,0.082,0.045,0.082,0.045c0.078,0.029,0.087,0.032,0.087,0.032c0.077,0.019,0.088,0.021,0.088,0.021
			c0.063,0.011,0.085,0.014,0.085,0.014c0.067,0.008,0.091,0.01,0.091,0.01c0.222,0.017,0.414,0.005,0.581-0.004
			c0.392-0.027,1.051-0.093,1.421-0.07c0.081,0.005,0.107,0.008,0.107,0.008c0.078,0.008,0.103,0.012,0.103,0.012
			c0.074,0.012,0.098,0.016,0.098,0.016c0.07,0.015,0.093,0.021,0.093,0.021c0.077,0.023,0.088,0.027,0.088,0.027
			c0.072,0.028,0.081,0.032,0.081,0.032c0.075,0.039,0.084,0.044,0.084,0.044c0.074,0.052,0.082,0.059,0.082,0.059
			c0.076,0.078,0.082,0.086,0.082,0.086c0.044,0.068,0.056,0.089,0.056,0.089c0.029,0.068,0.038,0.092,0.038,0.092
			c0.021,0.076,0.026,0.102,0.026,0.102c0.009,0.055,0.012,0.084,0.012,0.084c0.004,0.059,0.005,0.089,0.005,0.089
			c0,0.063-0.001,0.095-0.001,0.095c-0.004,0.066-0.007,0.101-0.007,0.101c-0.008,0.07-0.013,0.106-0.013,0.106
			c-0.012,0.074-0.019,0.111-0.019,0.111c-0.016,0.077-0.025,0.117-0.025,0.117c-0.225,0.88-0.652,1.65-1.085,2.435
			c-2.303,3.924-5.342,7.682-8.164,11.254c-1.35,1.658-3.168,3.836-4.36,5.59c-2.44,3.479-5.941,9.438-8.207,13.1
			c-1.51,2.415-3.211,4.864-4.951,7.117l-6.763,8.469c-2.38,3.062-4.579,6.365-6.386,9.799c-3.238,6.216-5.649,12.924-7.581,19.652
			c-0.872,3.146-1.678,6.428-2.105,9.666c-0.121,0.963-0.216,1.974-0.212,2.945c0.003,0.68,0.057,1.455,0.254,2.06
			c0.018,0.055,0.037,0.108,0.037,0.108c0.02,0.052,0.04,0.103,0.04,0.103c0.021,0.049,0.043,0.097,0.043,0.097
			c0.022,0.046,0.046,0.091,0.046,0.091c0.024,0.044,0.048,0.086,0.048,0.086c0.051,0.08,0.078,0.117,0.078,0.117
			c0.055,0.071,0.084,0.104,0.084,0.104c0.06,0.062,0.09,0.091,0.09,0.091c0.079,0.064,0.088,0.071,0.088,0.071
			c0.079,0.051,0.089,0.057,0.089,0.057c0.072,0.038,0.083,0.043,0.083,0.043c0.075,0.032,0.086,0.036,0.086,0.036
			c0.077,0.026,0.1,0.033,0.1,0.033c0.068,0.018,0.092,0.023,0.092,0.023c0.07,0.013,0.094,0.017,0.094,0.017
			c0.072,0.01,0.096,0.012,0.096,0.012c0.073,0.006,0.097,0.008,0.097,0.008c0.5,0.027,1.002-0.091,1.477-0.096
			c0.066,0.001,0.087,0.001,0.087,0.001c0.063,0.003,0.084,0.005,0.084,0.005c0.081,0.009,0.1,0.012,0.1,0.012
			c0.076,0.015,0.086,0.018,0.086,0.018c0.081,0.024,0.089,0.027,0.089,0.027c0.075,0.033,0.083,0.037,0.083,0.037
			c0.068,0.042,0.095,0.062,0.095,0.062c0.074,0.07,0.097,0.097,0.097,0.097c0.042,0.058,0.061,0.089,0.061,0.089
			c0.036,0.067,0.052,0.103,0.052,0.103c0.029,0.076,0.042,0.117,0.042,0.117c0.012,0.042,0.023,0.086,0.023,0.086
			c0.01,0.045,0.019,0.092,0.019,0.092c0.008,0.048,0.015,0.098,0.015,0.098c0.006,0.051,0.011,0.103,0.011,0.103
			c0.004,0.054,0.007,0.109,0.007,0.109c0.019,1.021-0.231,1.944-0.47,2.912c-1.854,6.441-5.491,15.704-7.396,22.115
			c-1.421,4.607-2.727,9.459-3.638,14.194c-0.987,5.173-1.593,10.569-1.809,15.83c-0.15,4.122-0.127,8.366,0.387,12.462
			c0.137,1.023,0.31,2.098,0.569,3.098c0.18,0.686,0.422,1.467,0.797,2.04c0.055,0.079,0.083,0.117,0.083,0.117
			c0.056,0.07,0.084,0.103,0.084,0.103c0.057,0.061,0.086,0.089,0.086,0.089c0.058,0.052,0.087,0.075,0.087,0.075
			c0.059,0.042,0.088,0.061,0.088,0.061c0.059,0.033,0.089,0.047,0.089,0.047c0.06,0.023,0.09,0.033,0.09,0.033
			c0.061,0.014,0.092,0.018,0.092,0.018c0.062,0.004,0.093,0.003,0.093,0.003c0.062-0.006,0.094-0.012,0.094-0.012
			c0.063-0.016,0.095-0.027,0.095-0.027c0.079-0.034,0.091-0.04,0.091-0.04c0.071-0.041,0.083-0.048,0.083-0.048
			c0.072-0.05,0.084-0.059,0.084-0.059c0.072-0.058,0.084-0.069,0.084-0.069c0.073-0.066,0.097-0.09,0.097-0.09
			c0.873-0.933,1.331-2.135,2.005-3.175c0.049-0.073,0.066-0.096,0.066-0.096c0.047-0.064,0.062-0.084,0.062-0.084
			c0.066-0.08,0.073-0.088,0.073-0.088c0.075-0.072,0.081-0.077,0.081-0.077c0.071-0.043,0.083-0.047,0.083-0.047
			c0.072-0.003,0.082,0,0.082,0c0.077,0.066,0.084,0.077,0.084,0.077c0.035,0.07,0.042,0.086,0.042,0.086
			c0.024,0.073,0.03,0.094,0.03,0.094c0.016,0.066,0.021,0.089,0.021,0.089c0.137,0.853,0.076,1.658,0.065,2.501
			c-0.225,5.254-0.638,12.169-0.289,17.359c0.458,7.767,1.876,15.536,4.513,22.866l2.392,42.825
			c0.255,3.511,0.591,7.214,1.213,10.673c0.417,2.389,1.266,5.332,1.898,7.687c0.808,2.785,1.721,6.201,2.734,8.905
			c0.964,2.579,2.173,5.147,3.521,7.546c1.076,1.888,2.221,3.805,3.684,5.421c0.815,0.873,1.839,1.816,3.048,1.964
			c0.061,0.006,0.081,0.007,0.081,0.007c0.081,0.004,0.101,0.005,0.101,0.005c7.11,0.012,22.374-0.005,29.576,0
			c0.537-0.006,1.105-0.03,1.639-0.079c0.94-0.087,1.888-0.246,2.783-0.554c0.917-0.312,1.752-0.794,2.349-1.471
			c0.615-0.684,0.926-1.565,1.01-2.403c0.091-1.352-0.037-2.66-0.271-3.982c-0.273-1.453-0.755-2.873-1.451-4.178
			c-0.343-0.636-0.777-1.359-1.242-1.888c-0.946-1.059-2.098-1.691-3.362-2.184c-3.129-1.193-6.551-1.231-9.854-1.381
			c-2.298-0.14-4.667-0.361-6.919-0.848c-1.165-0.259-2.342-0.588-3.415-1.12c-0.075-0.04-0.094-0.051-0.094-0.051
			c-0.074-0.047-0.092-0.06-0.092-0.06c-0.073-0.054-0.091-0.068-0.091-0.068c-0.072-0.06-0.09-0.076-0.09-0.076
			c-0.071-0.067-0.089-0.084-0.089-0.084c-0.07-0.073-0.088-0.092-0.088-0.092c-0.069-0.08-0.086-0.101-0.086-0.101
			c-0.438-0.555-0.669-1.121-0.898-1.73c-0.241-0.669-0.428-1.375-0.584-2.068c-0.633-2.882-0.899-5.94-1.112-8.882
			c0.068,0.026,0.102,0.037,0.102,0.037c0.069,0.021,0.103,0.031,0.103,0.031c0.07,0.017,0.105,0.024,0.105,0.024
			c0.071,0.012,0.106,0.017,0.106,0.017c0.072,0.008,0.107,0.011,0.107,0.011c0.072,0.004,0.109,0.004,0.109,0.004
			c0.073-0.001,0.11-0.002,0.11-0.002c0.074-0.005,0.111-0.008,0.111-0.008c0.075-0.009,0.112-0.014,0.112-0.014
			c0.076-0.013,0.114-0.021,0.114-0.021c0.076-0.017,0.115-0.027,0.115-0.027c0.077-0.021,0.116-0.033,0.116-0.033
			c0.078-0.025,0.117-0.039,0.117-0.039c0.078-0.029,0.118-0.045,0.118-0.045c0.079-0.033,0.119-0.05,0.119-0.05
			c0.08-0.037,0.119-0.056,0.119-0.056c0.991-0.507,1.714-1.279,2.415-2.111c1.072-1.314,1.947-2.799,2.705-4.313
			c1.417-2.864,2.44-5.939,3.037-9.078c1-5.266,0.882-10.768,0.65-16.104c-0.347-6.986-0.924-15.186-0.331-22.127
			c0.367-4.732,1.29-9.476,2.562-14.047c1.935-1.987,4.656-4.645,6.676-6.549l62.666-57.648c1.711,3.712,2.682,7.748,3.069,11.809
			c0.185,2.193,0.077,4.445-0.136,6.634c-0.499,4.892-1.571,9.862-2.76,14.632c-2.482,9.852-5.809,19.946-9.536,29.396
			c-1.223,3.115-2.336,6.357-3.072,9.623c-0.476,2.144-0.81,4.351-0.772,6.552c0.029,1.361,0.204,2.736,0.654,4.025
			c0.123,0.351,0.27,0.703,0.436,1.036c6.479,13.198,15.11,32.872,21.823,45.797c2.353,4.506,4.993,9.413,7.674,13.721
			c1.862,2.858,9.365,15.141,11.287,17.742c0.791,1.021,1.734,1.941,2.81,2.659c1.333,0.895,2.881,1.465,4.469,1.691
			c1.059,0.325,16.615,0.041,17.986,0.133c2.259-0.01,4.567-0.094,6.791-0.518c1.405-0.278,2.977-0.716,4.01-1.71
			c0.078-0.08,0.096-0.101,0.096-0.101c0.055-0.061,0.073-0.082,0.073-0.082c0.052-0.062,0.069-0.083,0.069-0.083
			c0.049-0.064,0.064-0.085,0.064-0.085c0.046-0.065,0.06-0.086,0.06-0.086c0.043-0.066,0.056-0.088,0.056-0.088
			c0.04-0.067,0.052-0.089,0.052-0.089c0.496-0.928,0.741-1.944,0.885-2.977c0.207-1.555,0.165-3.151,0.031-4.711
			c-0.141-1.547-0.347-3.117-0.806-4.605c-0.313-1.022-0.795-2.104-1.465-2.923c-0.399-0.493-0.861-0.889-1.362-1.177
			c-0.425-0.245-0.803-0.362-1.238-0.519c-0.959-0.33-1.998-0.6-2.986-0.832c-5.331-1.225-11.077-1.657-16.434-2.753
			c-0.068-0.016-0.102-0.025-0.102-0.025c-0.069-0.02-0.104-0.031-0.104-0.031c-0.07-0.024-0.106-0.037-0.106-0.037
			c-0.072-0.028-0.108-0.043-0.108-0.043c-0.073-0.032-0.11-0.049-0.11-0.049c-0.686-0.343-1.179-0.762-1.717-1.268
			c-0.652-0.621-1.264-1.33-1.831-2.03c-2.224-2.733-4.02-5.773-5.594-8.919c-2.73-5.404-5.317-11.602-7.609-17.221
			c-3.247-8.187-6.175-16.736-6.898-25.564c-0.149-1.8-0.114-3.768-0.07-5.577c0.097-3.04,0.348-6.172,0.859-9.17
			c0.381-2.248,0.915-4.513,1.65-6.674c0.553-1.611,1.28-3.232,1.996-4.778c3.968-8.471,9.966-18.585,14.648-26.757
			c5.495-9.364,12.902-22.411,18.052-31.953c3.643-6.793,7.521-14.099,10.348-21.271c1.021,1.572,2.397,2.896,3.845,4.073
			c1.934,1.551,4.069,2.875,6.308,3.938c1.123,0.526,2.298,1,3.497,1.319c0.767,0.198,1.636,0.368,2.416,0.273
			c0.08-0.012,0.119-0.018,0.119-0.018c0.077-0.015,0.114-0.023,0.114-0.023c0.073-0.018,0.103-0.027,0.103-0.027
			c0.06-0.018,0.089-0.028,0.089-0.028c0.057-0.02,0.085-0.031,0.085-0.031c0.055-0.022,0.081-0.034,0.081-0.034
			c0.078-0.037,0.103-0.05,0.103-0.05c0.073-0.041,0.097-0.055,0.097-0.055c0.069-0.045,0.092-0.06,0.092-0.06
			c0.066-0.048,0.087-0.064,0.087-0.064c0.062-0.051,0.083-0.068,0.083-0.068c0.079-0.072,0.098-0.09,0.098-0.09
			c0.075-0.075,0.093-0.095,0.093-0.095c0.303-0.329,0.529-0.7,0.808-1.004c0.075-0.08,0.094-0.099,0.094-0.099
			c0.079-0.077,0.1-0.095,0.1-0.095c0.063-0.055,0.085-0.073,0.085-0.073c0.066-0.052,0.089-0.069,0.089-0.069
			c0.07-0.05,0.094-0.066,0.094-0.066c0.074-0.047,0.1-0.062,0.1-0.062c0.079-0.043,0.106-0.057,0.106-0.057
			c0.055-0.027,0.083-0.04,0.083-0.04c0.058-0.025,0.087-0.037,0.087-0.037c0.06-0.023,0.091-0.034,0.091-0.034
			c0.069-0.022,0.107-0.034,0.107-0.034c0.813-0.213,1.575-0.132,2.381-0.043c1.584,0.205,3.258,0.649,4.805,1.061
			c2.655,0.726,7.081,2.083,9.743,2.563c0.791,0.144,1.612,0.263,2.416,0.29c0.714,0.025,1.44-0.023,2.144-0.145
			c0.777-0.123,1.92-0.468,2.685-0.672c0.675-0.175,1.371-0.304,2.069-0.321c0.874-0.023,1.757,0.101,2.615,0.262
			c4.599,0.97,9.457,2.806,14.181,3.429c5.882,0.845,11.906,0.041,17.736-0.862c26.312-4.458,54.528-9.13,80.469-15.28
			c2.499,6.221,4.392,12.741,5.321,19.387c0.574,3.682,0.773,10.409,1.007,14.228c1.071,17.318,3.785,53.185,4.364,70.043
			c0.128,4.199,0.217,9.03,0.102,13.224c-0.059,1.952-0.161,4.07-0.382,6.01c-0.131,1.097-0.293,2.229-0.593,3.294
			c-0.635,2.26-1.241,4.617-1.484,6.957c-0.096,1.096-0.159,2.302,0.217,3.337c0.617,1.431,1.542,2.549,2.652,3.584
			c0.587,0.569,1.528,1.202,1.875,1.608c0.652,0.712,1.093,1.494,1.508,2.345c0.942,1.992,1.547,4.153,2.063,6.29
			c1.421,6.271,2.345,12.925,2.936,19.328c0.272,3.27,0.472,6.742,1.367,9.907c0.464,1.64,1.153,3.418,2.338,4.641
			c0.606,0.626,1.268,0.963,2.009,1.343c0.934,0.457,1.928,0.799,2.938,1.044c1.462,0.355,2.986,0.518,4.489,0.556
			c1.468,0.021,14.907,0.022,16.207-0.014c1.756-0.062,3.548-0.211,5.258-0.633c1.219-0.303,2.535-0.801,3.445-1.651
			c0.08-0.078,0.12-0.117,0.12-0.117c0.888-0.934,1.331-2.059,1.588-3.275c0.295-1.464,0.276-2.982,0.137-4.463
			c-0.156-1.517-0.406-3.055-0.87-4.511c-0.333-1.039-0.85-2.179-1.616-2.942c-0.07-0.068-0.105-0.101-0.105-0.101
			c-0.071-0.064-0.107-0.096-0.107-0.096c-0.072-0.061-0.108-0.09-0.108-0.09c-0.073-0.057-0.11-0.085-0.11-0.085
			c-0.075-0.053-0.112-0.079-0.112-0.079c-0.076-0.05-0.114-0.074-0.114-0.074c-0.077-0.046-0.116-0.068-0.116-0.068
			c-0.079-0.043-0.118-0.063-0.118-0.063c-0.768-0.36-1.571-0.562-2.393-0.743c-1.608-0.335-3.302-0.491-4.941-0.591
			c-1.901-0.091-3.853-0.122-5.709-0.587c-1.079-0.263-2.281-0.716-3.081-1.477c-0.064-0.062-0.096-0.094-0.096-0.094
			c-0.061-0.064-0.091-0.096-0.091-0.096c-0.058-0.065-0.086-0.098-0.086-0.098c-0.055-0.066-0.082-0.1-0.082-0.1
			c-0.053-0.071-0.08-0.108-0.08-0.108c-0.492-0.723-0.733-1.467-0.986-2.276c-0.41-1.387-0.681-2.877-0.908-4.307
			c-1.229-8.719-1.544-17.758-1.5-26.558c0.18-11.441,1.345-24.93,2.243-36.385c2.25,7.318,7.461,23.464,9.291,30.744
			c0.311,1.319,0.569,2.691,0.734,4.037c0.187,1.54,0.26,3.123,0.117,4.67c-0.049,0.539-0.14,1.071-0.223,1.604
			c-0.082,0.573-0.151,1.197-0.184,1.776c-0.103,1.706,0.025,3.445,0.466,5.1c0,0,0.059,0.214,0.059,0.214s0.031,0.106,0.031,0.106
			s0.032,0.105,0.032,0.105s0.034,0.103,0.034,0.103s0.035,0.102,0.035,0.102s0.037,0.101,0.037,0.101s0.038,0.099,0.038,0.099
			c0.02,0.049,0.04,0.098,0.04,0.098c0.02,0.048,0.041,0.096,0.041,0.096c0.021,0.048,0.043,0.095,0.043,0.095
			c0.022,0.047,0.044,0.094,0.044,0.094c0.023,0.046,0.045,0.092,0.045,0.092c0.023,0.046,0.047,0.091,0.047,0.091
			c0.024,0.045,0.048,0.089,0.048,0.089c0.025,0.044,0.05,0.088,0.05,0.088c0.025,0.044,0.051,0.087,0.051,0.087
			c0.026,0.043,0.053,0.085,0.053,0.085c0.027,0.042,0.054,0.084,0.054,0.084c0.028,0.042,0.056,0.083,0.056,0.083
			c0.028,0.041,0.057,0.081,0.057,0.081c0.059,0.08,0.088,0.119,0.088,0.119c0.061,0.078,0.092,0.116,0.092,0.116
			c0.063,0.076,0.095,0.113,0.095,0.113c0.065,0.074,0.098,0.11,0.098,0.11c0.067,0.071,0.101,0.107,0.101,0.107
			c0.672,0.691,1.381,1.042,2.221,1.337c0.327,0.106,0.671,0.195,1.009,0.257c0.305,0.042,0.706,0.118,0.968,0.182
			c1.64,0.421,2.906,1.479,3.892,2.78c0.71,0.935,1.275,1.983,1.749,3.055c3.08,7.09,7.083,14.637,10.674,21.491
			c1.625,2.927,3.361,6.279,5.334,9.001c0.586,0.784,1.3,1.485,2.132,2.006c0.762,0.481,1.624,0.808,2.511,0.965
			c0.448,0.079,0.911,0.122,1.366,0.127c5.307-0.012,15.214,0.029,20.544-0.016c1.488-0.064,3.003-0.297,4.359-0.94
			c0.879-0.398,1.723-1.098,2.24-1.841c0.643-0.902,0.975-1.955,1.019-3.013c0.07-1.517-0.385-3.011-0.97-4.395
			c-0.631-1.52-1.381-3.011-2.338-4.354c-0.665-0.924-1.471-1.867-2.425-2.436c-2.619-1.582-5.828-1.474-8.781-1.636
			c-1.91-0.144-3.953-0.234-5.841-0.563c-0.607-0.116-1.195-0.338-1.731-0.645c-1.206-0.711-2.079-1.676-2.837-2.788
			c-0.935-1.403-1.691-3.026-2.4-4.557c-2.213-4.877-4.587-10.975-6.443-16.018c-2.539-7.154-4.358-14.628-4.853-22.216
			c-0.859-8.092-2.574-16.877-4.144-24.881c-3.201-15.72-7.349-33.843-9.758-49.66c-1.518-10.087-2.193-20.402-1.647-30.595
			c0.185-3.497,1.048-6.958,2.453-10.163c1.546-3.539,3.726-6.789,6.231-9.718c1.912-2.243,4.238-4.429,6.205-6.629
			c3.534-3.882,6.946-8.033,9.723-12.494c1.064-1.682,1.96-3.528,2.993-5.228c1.409-2.342,3.013-4.61,4.804-6.676
			c1.549-1.811,3.322-3.46,5.152-4.983c1.628-1.438,3.363-3.098,4.899-4.636c14.319-14.608,28.073-30.56,39.918-47.245
			c5.139-7.247,9.695-15.035,13.15-23.229c2.76-6.566,4.824-13.519,6.315-20.48c0.568-2.888,1.06-5.877,0.932-8.831
			c0,0-0.013-0.231-0.013-0.231s-0.016-0.226-0.016-0.226s-0.019-0.221-0.019-0.221s-0.022-0.216-0.022-0.216l-0.026-0.211
			c0,0-0.014-0.104-0.014-0.104s-0.015-0.103-0.015-0.103s-0.015-0.101-0.015-0.101s-0.016-0.1-0.016-0.1
			c-0.133-0.746-0.302-1.508-0.399-2.257c-0.312-2.189-0.365-4.442-0.055-6.635c0.087-0.625,0.223-1.326,0.373-1.942
			c0,0,0.08-0.317,0.08-0.317s0.086-0.315,0.086-0.315s0.363-1.262,0.363-1.262s0.384-1.278,0.384-1.278l0.406-1.295
			c0.534-1.67,1.23-3.692,1.835-5.342c0,0,0.512-1.376,0.512-1.376s0.13-0.35,0.13-0.35c0.316-0.867,0.616-1.806,0.873-2.693
			c1.16-4.036,1.894-8.272,2.498-12.422c0.752-5.304,0.897-10.778,0.647-16.125c-0.192-4.283-0.621-7.489-1.019-11.534
			c0,0-0.542-4.709-0.542-4.709s-0.256-2.016-0.256-2.016s-0.247-1.791-0.247-1.791s-0.237-1.566-0.237-1.566
			s-0.115-0.698-0.115-0.698s-0.112-0.642-0.112-0.642c-0.096-0.517-0.226-1.058-0.404-1.556c0,0-0.047-0.128-0.047-0.128
			s-0.048-0.126-0.048-0.126c-0.025-0.062-0.05-0.124-0.05-0.124c-0.026-0.061-0.051-0.122-0.051-0.122
			c-0.026-0.06-0.053-0.119-0.053-0.119c-0.027-0.059-0.055-0.117-0.055-0.117c-0.028-0.058-0.056-0.115-0.056-0.115
			c-0.029-0.057-0.058-0.113-0.058-0.113c-0.03-0.056-0.06-0.111-0.06-0.111c-0.03-0.055-0.061-0.109-0.061-0.109
			c-0.031-0.053-0.063-0.106-0.063-0.106c-0.032-0.052-0.065-0.104-0.065-0.104c-0.033-0.051-0.066-0.102-0.066-0.102
			c-0.034-0.05-0.068-0.1-0.068-0.1c-0.034-0.049-0.069-0.098-0.069-0.098c-0.035-0.048-0.071-0.095-0.071-0.095
			c-0.036-0.047-0.073-0.093-0.073-0.093c-0.037-0.046-0.074-0.091-0.074-0.091c-0.038-0.045-0.076-0.089-0.076-0.089
			c-0.039-0.044-0.078-0.087-0.078-0.087c-0.039-0.042-0.079-0.084-0.079-0.084c-0.04-0.041-0.081-0.082-0.081-0.082
			c-0.041-0.04-0.082-0.08-0.082-0.08c-0.042-0.039-0.084-0.078-0.084-0.078c-0.043-0.038-0.086-0.076-0.086-0.076
			c-0.043-0.037-0.087-0.073-0.087-0.073c-0.044-0.036-0.089-0.071-0.089-0.071c-0.045-0.035-0.091-0.069-0.091-0.069
			c-1.28-0.961-2.833-1.082-4.345-1.088c-1.155,0.004-2.316,0.152-3.424,0.484c-0.727,0.218-1.435,0.514-2.099,0.884
			c-0.494,0.282-1.095,0.664-1.575,0.983c-1.182,0.76-2.64,1.874-3.783,2.723c-1.712,1.307-3.644,2.83-5.281,4.216
			c-1.481,1.25-3.016,2.779-4.377,4.168c-7.357,7.706-13.544,16.629-19.275,25.586c-3.379-0.755-6.893-1.11-10.351-1.221
			c-2.356-0.064-4.795-0.011-7.137,0.266C573.474,225.773,571.562,226.163,569.752,226.591z"/>
	</g>
</g>
</svg>
