<?xml version="1.0" encoding="utf-8"?>
<!-- Generator: Adobe Illustrator 24.2.0, SVG Export Plug-In . SVG Version: 6.00 Build 0)  -->
<!DOCTYPE svg PUBLIC "-//W3C//DTD SVG 1.1//EN" "http://www.w3.org/Graphics/SVG/1.1/DTD/svg11.dtd" [
	<!ENTITY ns_flows "http://ns.adobe.com/Flows/1.0/">
	<!ENTITY ns_extend "http://ns.adobe.com/Extensibility/1.0/">
	<!ENTITY ns_ai "http://ns.adobe.com/AdobeIllustrator/10.0/">
	<!ENTITY ns_graphs "http://ns.adobe.com/Graphs/1.0/">
	<!ENTITY ns_vars "http://ns.adobe.com/Variables/1.0/">
	<!ENTITY ns_imrep "http://ns.adobe.com/ImageReplacement/1.0/">
	<!ENTITY ns_sfw "http://ns.adobe.com/SaveForWeb/1.0/">
	<!ENTITY ns_custom "http://ns.adobe.com/GenericCustomNamespace/1.0/">
	<!ENTITY ns_adobe_xpath "http://ns.adobe.com/XPath/1.0/">
]>
<svg version="1.1" xmlns:x="&ns_extend;" xmlns:i="&ns_ai;" xmlns:graph="&ns_graphs;"
	 xmlns="http://www.w3.org/2000/svg" xmlns:xlink="http://www.w3.org/1999/xlink" xmlns:a="http://ns.adobe.com/AdobeSVGViewerExtensions/3.0/"
	 x="0px" y="0px" width="750px" height="750px" viewBox="0 0 750 750" enable-background="new 0 0 750 750" xml:space="preserve">
<metadata>
	<sfw  xmlns="&ns_sfw;">
		<slices></slices>
		<sliceSourceBounds  bottomLeftOrigin="true" height="8088.428" width="8128.963" x="-5921.963" y="288.519"></sliceSourceBounds>
	</sfw>
</metadata>
<g id="FILL-BACKGROUND">
	<rect fill="#FFFFFF" width="750" height="750"/>
</g>
<g id="N-TEXT">
</g>
<g id="N-DIMENSIONS">
</g>
<g id="AG-DETAIL-DIAGRAM">
</g>
<g id="AG-DIAGRAM">
	<g id="POLYLINE_776_">
		<g>
			<g>
				
					<line fill="none" stroke="#FB8604" stroke-width="3.25" stroke-linecap="round" stroke-linejoin="round" x1="163.5" y1="581.2" x2="165.5" y2="581.2"/>
				
					<line fill="none" stroke="#FB8604" stroke-width="3.25" stroke-linecap="round" stroke-linejoin="round" stroke-dasharray="3.9801,6.9653" x1="172.465" y1="581.2" x2="563.017" y2="581.2"/>
				
					<line fill="none" stroke="#FB8604" stroke-width="3.25" stroke-linecap="round" stroke-linejoin="round" x1="566.5" y1="581.2" x2="568.5" y2="581.2"/>
			</g>
		</g>
	</g>
</g>
<g id="AG-DETAILS">
</g>
<g id="AG-ANIMALS">
	<g id="POLYLINE_395_">
		
			<path fill="none" stroke="#FB8604" stroke-width="2.75" stroke-linecap="round" stroke-linejoin="round" stroke-miterlimit="10" d="
			M599.327,280.902c-1.154-0.871-2.546-1.374-3.931-1.743c-2.086-0.534-4.259-0.745-6.41-0.69c-3.458,0.092-7.429,0.986-9.02,4.394
			c-0.636,1.35-0.838,2.877-0.745,4.357c0.163,2.555,1.292,5.098,3.296,6.733c1.08,0.885,2.36,1.507,3.683,1.939
			c1.817,0.585,3.751,0.831,5.657,0.743c1.83-0.096,3.702-0.488,5.267-1.478c2.327-1.459,3.579-4.093,4.068-6.719
			c0.264-1.455,0.416-2.975,0.099-4.434C601.032,282.759,600.305,281.632,599.327,280.902z"/>
	</g>
	<g id="POLYLINE_394_">
		
			<path fill="none" stroke="#FB8604" stroke-width="2.75" stroke-linecap="round" stroke-linejoin="round" stroke-miterlimit="10" d="
			M541.918,280.917c2.361,3.654,5.005,7.203,8.145,10.227c5.079,4.895,11.25,8.608,17.672,11.465
			c4.447,1.92,9.154,3.477,14.011,3.832c1.818,0.12,3.669,0.05,5.447-0.366c1.538-0.359,3.018-0.983,4.347-1.837
			c3.585-2.295,5.978-6.147,6.997-10.233"/>
	</g>
	<g id="POLYLINE_393_">
		
			<path fill="none" stroke="#FB8604" stroke-width="2.75" stroke-linecap="round" stroke-linejoin="round" stroke-miterlimit="10" d="
			M598.231,280.211c-1.753-8.031-3.672-16.309-6.918-23.88"/>
	</g>
	<g id="POLYLINE_349_">
		
			<path fill="none" stroke="#FB8604" stroke-width="2.75" stroke-linecap="round" stroke-linejoin="round" stroke-miterlimit="10" d="
			M480.789,244.027c-1.185,1.518-2.188,3.29-3.576,4.641c-0.785,0.793-1.67,1.529-2.559,2.203c-1.907,1.462-6.437,4.437-8.48,5.83
			c-1.567,1.078-3.269,2.25-4.726,3.467c-0.685,0.592-1.456,1.245-1.903,2.03c-0.018,0.035-0.035,0.069-0.035,0.069
			c-0.016,0.034-0.031,0.068-0.031,0.068c-0.014,0.033-0.027,0.066-0.027,0.066c-0.012,0.033-0.023,0.065-0.023,0.065
			c-0.01,0.032-0.019,0.063-0.019,0.063c-0.008,0.031-0.014,0.062-0.014,0.062c-0.006,0.03-0.01,0.06-0.01,0.06
			c-0.003,0.029-0.006,0.059-0.006,0.059c-0.001,0.029-0.001,0.057-0.001,0.057c0.003,0.055,0.007,0.082,0.007,0.082
			c0.01,0.053,0.017,0.079,0.017,0.079c0.017,0.05,0.028,0.075,0.028,0.075c0.024,0.048,0.038,0.071,0.038,0.071
			c0.032,0.045,0.047,0.064,0.047,0.064c0.051,0.055,0.07,0.073,0.07,0.073c0.04,0.035,0.062,0.052,0.062,0.052
			c0.046,0.033,0.07,0.049,0.07,0.049c0.051,0.031,0.077,0.046,0.077,0.046c0.056,0.029,0.085,0.044,0.085,0.044
			c0.493,0.221,0.967,0.281,1.48,0.352c2.161,0.241,5.196,0.207,7.353,0.464c1.074,0.122,2.164,0.294,3.191,0.637
			c0.808,0.27,1.641,0.691,2.165,1.323c0.032,0.04,0.064,0.08,0.064,0.08c0.031,0.041,0.061,0.082,0.061,0.082
			c0.029,0.042,0.058,0.084,0.058,0.084c0.028,0.043,0.055,0.086,0.055,0.086c0.026,0.044,0.054,0.093,0.054,0.093
			c0.027,0.05,0.053,0.101,0.053,0.101c0.025,0.052,0.049,0.104,0.049,0.104c0.023,0.053,0.045,0.106,0.045,0.106
			c0.021,0.054,0.041,0.109,0.041,0.109c0.019,0.055,0.037,0.111,0.037,0.111c0.017,0.056,0.033,0.113,0.033,0.113l0.015,0.058
			c0.254,1.052,0.06,2.154-0.202,3.185c-0.78,2.923-2.683,6.413-3.969,9.166c-0.416,0.899-0.845,1.85-1.156,2.788
			c-0.184,0.56-0.361,1.226-0.351,1.797c0.001,0.046,0.003,0.091,0.003,0.091c0.003,0.044,0.007,0.088,0.007,0.088
			c0.005,0.043,0.01,0.085,0.01,0.085c0.006,0.042,0.014,0.083,0.014,0.083c0.008,0.04,0.017,0.08,0.017,0.08
			c0.01,0.039,0.021,0.077,0.021,0.077c0.012,0.037,0.025,0.074,0.025,0.074c0.014,0.036,0.028,0.071,0.028,0.071
			c0.016,0.034,0.032,0.068,0.032,0.068c0.016,0.03,0.033,0.06,0.033,0.06c0.018,0.029,0.036,0.057,0.036,0.057
			c0.04,0.054,0.061,0.081,0.061,0.081c0.044,0.051,0.068,0.075,0.068,0.075c0.049,0.047,0.075,0.069,0.075,0.069
			c0.054,0.043,0.082,0.064,0.082,0.064c0.029,0.02,0.058,0.04,0.058,0.04c0.03,0.019,0.061,0.037,0.061,0.037
			c0.032,0.018,0.064,0.035,0.064,0.035c0.033,0.017,0.067,0.033,0.067,0.033c0.034,0.016,0.07,0.031,0.07,0.031
			c0.036,0.014,0.072,0.028,0.072,0.028c0.037,0.013,0.075,0.026,0.075,0.026c0.797,0.241,1.574,0.177,2.378,0.116
			c3.489-0.348,7.372-1.524,10.895-1.279c0.982,0.073,2.062,0.319,2.87,0.874c0.976,0.66,1.586,1.58,2.085,2.599
			c0.702,1.42,1.24,3.488,1.725,5.005c0.558,1.695,1.219,3.641,2.756,4.676c1.113,0.719,2.374,0.882,3.654,0.932
			c2.044,0.075,5.149-0.379,7.207-0.577c1.509-0.14,3.061-0.242,4.571-0.084c0.954,0.1,1.949,0.327,2.805,0.755
			c1.875,0.928,3.189,2.649,4.347,4.338c0.82,1.18,1.727,2.688,2.62,3.791c0.592,0.741,1.255,1.446,2.045,1.977
			c0.895,0.607,1.878,0.887,2.92,0.996c1.509,0.153,3.054-0.029,4.551-0.232c3.005-0.423,6.32-1.087,9.348-0.736
			c1.552,0.164,3.068,0.643,4.437,1.391c3.111,1.659,5.991,4.646,8.587,7.013c0.978,0.886,2.011,1.791,3.117,2.513
			c0.962,0.628,2.129,1.184,3.27,1.152c0.932-0.022,1.744-0.344,2.548-0.765c1.145-0.602,2.546-1.673,3.617-2.409
			c1.397-0.957,2.909-1.868,4.606-2.138c0.945-0.152,1.917-0.077,2.852,0.107c1.438,0.285,2.838,0.822,4.185,1.39
			c1.283,0.543,3.742,1.72,5.05,2.098c0.567,0.165,1.224,0.311,1.795,0.198c0.059-0.012,0.097-0.023,0.115-0.027
			c0.056-0.016,0.074-0.022,0.074-0.022c0.054-0.019,0.072-0.025,0.072-0.025c0.053-0.021,0.07-0.028,0.07-0.028
			c0.052-0.023,0.069-0.031,0.069-0.031c0.05-0.025,0.067-0.034,0.067-0.034c0.049-0.027,0.065-0.037,0.065-0.037
			c0.048-0.029,0.064-0.039,0.064-0.039c0.047-0.031,0.062-0.042,0.062-0.042c0.106-0.075,0.171-0.132,0.236-0.191
			c0.468-0.442,0.804-1.044,1.157-1.569c0.358-0.552,0.819-1.152,1.316-1.56c0.886-0.743,1.93-1.033,3.022-1.257
			c1.763-0.365,4.883-0.492,6.703-0.645c1.185-0.106,2.404-0.234,3.553-0.553c0.795-0.224,1.657-0.584,2.172-1.217
			c0.038-0.048,0.056-0.072,0.056-0.072c0.036-0.049,0.053-0.074,0.053-0.074c0.034-0.05,0.05-0.076,0.05-0.076
			c0.032-0.051,0.048-0.078,0.048-0.078c0.03-0.053,0.045-0.079,0.045-0.079c0.293-0.556,0.373-1.104,0.409-1.71
			c0.048-0.876-0.086-2.123-0.144-3.007c-0.052-0.941-0.093-1.992,0.317-2.858c0.026-0.053,0.04-0.079,0.04-0.079
			c0.028-0.052,0.043-0.078,0.043-0.078c0.03-0.051,0.046-0.076,0.046-0.076c0.032-0.049,0.048-0.074,0.048-0.074
			c0.034-0.048,0.051-0.072,0.051-0.072c0.036-0.047,0.056-0.072,0.056-0.072c0.042-0.05,0.063-0.075,0.063-0.075
			c0.044-0.048,0.067-0.072,0.067-0.072c0.046-0.047,0.07-0.07,0.07-0.07c0.049-0.045,0.073-0.068,0.073-0.068
			c0.051-0.044,0.077-0.066,0.077-0.066c0.473-0.382,0.966-0.588,1.523-0.782c1.006-0.347,2.546-0.603,3.6-0.818
			c1.208-0.26,2.592-0.519,3.574-1.303c0.051-0.044,0.077-0.066,0.077-0.066c0.049-0.045,0.073-0.068,0.073-0.068
			c0.047-0.047,0.07-0.07,0.07-0.07c0.045-0.048,0.067-0.073,0.067-0.073c0.042-0.05,0.063-0.075,0.063-0.075
			c0.04-0.051,0.059-0.077,0.059-0.077c0.037-0.051,0.054-0.078,0.054-0.078c0.034-0.053,0.051-0.08,0.051-0.08
			c0.032-0.054,0.047-0.082,0.047-0.082c0.458-0.867,0.4-1.837,0.305-2.773c-0.198-1.829-0.86-3.781-0.782-5.633
			c0.026-0.634,0.243-1.289,0.636-1.745c1.022-1.221,2.704-1.682,3.794-2.805c0.631-0.627,0.849-1.452,0.851-2.287
			c0.008-0.787-0.128-1.577-0.296-2.344c-0.422-1.929-1.295-4.338-1.64-6.282c-0.111-0.633-0.175-1.285-0.123-1.927
			c0.049-0.674,0.22-1.338,0.434-1.977c0.25-0.743,0.605-1.643,0.721-2.413c0.093-0.571,0.086-1.11,0.012-1.668
			c-0.111-0.834-0.352-1.655-0.633-2.446c-0.949-2.67-2.891-6.032-4.21-8.566c-1.191-2.313-2.368-4.891-1.916-7.554
			c0.234-1.404,0.874-2.711,1.525-3.963c0,0,1.628-3.004,1.628-3.004c0.994-1.895,1.897-3.92,2.049-6.081
			c0.114-1.598-0.159-3.206-0.605-4.737c-0.735-2.5-1.933-4.894-3.153-7.19l-3.881-7.066c-1.965-3.643-5.06-10.414-7.267-13.841
			c-0.776-1.2-1.878-2.396-2.613-3.624c-0.537-0.884-0.96-1.852-1.31-2.824c-1.442-4.036-2.44-8.976-4.28-12.851
			c-0.264-0.534-0.56-1.066-0.917-1.543c-0.351-0.469-0.772-0.888-1.285-1.095c-0.642-0.258-1.279-0.193-1.926-0.095
			c-0.702,0.113-1.534,0.305-2.236,0.217c-0.689-0.084-1.239-0.388-1.794-0.738c-0.661-0.423-1.532-1.112-2.199-1.525
			c-0.771-0.491-1.677-0.873-2.576-0.814c-0.624,0.027-1.236,0.195-1.822,0.405c-0.957,0.327-2.628,1.184-3.562,1.612
			c-1.177,0.537-2.409,1.029-3.701,1.187c-1.673,0.203-3.361-0.142-4.974-0.565c-1.803-0.487-4.209-1.264-6.037-1.457
			c-0.93-0.109-1.883-0.093-2.813,0.005c-2.15,0.22-4.517,0.902-6.663,1.158c-1.469,0.184-2.982,0.149-4.409-0.269
			c-4.211-1.204-7.67-4.421-11.918-5.525c-2.69-0.695-5.682-0.436-7.307,2.058c-0.898,1.361-1.318,2.999-1.405,4.616
			c-0.047,0.997,0.04,2.01,0.303,2.974c0.206,0.763,0.548,1.492,0.922,2.186c0.344,0.634,0.831,1.441,1.113,2.096
			c0.289,0.649,0.442,1.404,0.195,2.051c-0.271,0.713-0.729,1.219-1.209,1.768c0,0-1.166,1.263-1.166,1.263
			c-0.674,0.756-1.415,1.667-1.554,2.672c-0.072,0.581,0.035,1.067,0.217,1.597c0.214,0.603,0.53,1.179,0.851,1.731l1.024,1.693
			c0.637,1.086,1.318,2.378,1.006,3.666c-0.26,1.134-1.059,2.057-1.864,2.816c-1.359,1.255-2.973,2.268-4.538,3.246
			c-3.336,2.034-6.809,4.015-10.521,5.275c-1.776,0.568-3.773,1.071-5.614,0.58c-1.177-0.31-2.151-1.112-2.754-2.101
			c-0.547-0.879-0.852-1.877-1.038-2.888c-0.192-1.042-0.262-2.132-0.293-3.191c-0.076-2.061,0.194-7.833,0.248-9.971
			c0.057-2.69,0.017-5.525-0.202-8.203c-0.279-3.722-1.114-9.735-1.412-13.471c-0.134-1.829-0.235-3.714-0.04-5.541
			c0.134-1.151,0.399-2.452,1.161-3.34c1.165-1.316,3.046-1.216,4.598-0.839c2.945,0.744,5.468,2.582,7.73,4.545
			c1.984,1.73,4.599,4.226,6.806,5.613c1.892,1.216,3.984,2.134,6.113,2.845"/>
	</g>
	<g id="POLYLINE_348_">
		
			<path fill="none" stroke="#FB8604" stroke-width="2.75" stroke-linecap="round" stroke-linejoin="round" stroke-miterlimit="10" d="
			M589.591,184.138c1.293-0.331,3.297-0.704,4.583-1.052c0.906-0.241,1.823-0.544,2.695-0.887c4.143-1.687,8.592-4.417,12.784-5.973
			c1.068-0.396,2.175-0.75,3.301-0.933c0.876-0.144,1.878-0.174,2.698,0.112c0.846,0.28,1.536,0.872,1.972,1.588
			c0.493,0.802,0.692,1.74,0.654,2.629c-0.048,1.125-0.497,2.171-1.044,3.136c-0.703,1.28-2.24,3.267-3.089,4.482
			c-1.039,1.452-2.025,3.021-2.875,4.591c-3.586,6.686-6.095,14.025-8.364,21.248"/>
	</g>
	<g id="POLYLINE_234_">
		
			<path fill="none" stroke="#FB8604" stroke-width="2.75" stroke-linecap="round" stroke-linejoin="round" stroke-miterlimit="10" d="
			M410.157,302.626c-1.319,5.948-3.005,13.723-4.077,19.68c-0.596,3.398-1.232,7.058-1.494,10.491
			c-0.053,0.769-0.091,1.574-0.06,2.345c0.024,0.488,0.068,1.05,0.244,1.493c0.024,0.056,0.037,0.082,0.037,0.082
			c0.026,0.05,0.039,0.074,0.039,0.074c0.027,0.045,0.042,0.066,0.042,0.066c0.638,0.883,0.944,1.875,1.18,2.912
			c0.32,1.481,0.43,3.03,0.466,4.543c0.059,1.694-0.128,3.424,0.047,5.112c0.17,1.789,0.65,3.585,1.62,5.112
			c0.54,0.855,1.231,1.616,2.028,2.239c0.255,0.201,0.526,0.389,0.8,0.562c0.304,0.187,0.617,0.37,0.904,0.583
			c1.091,0.783,1.972,1.853,2.519,3.08c0.725,1.605,0.911,3.403,0.834,5.148c-0.037,0.85-0.151,1.74-0.282,2.582
			c-0.14,1.039-0.246,2.135-0.274,3.183c-0.066,2.475,0.226,5.048,1.391,7.268c0.213,0.413,0.476,0.807,0.735,1.191
			c0.246,0.379,0.476,0.783,0.675,1.188c0.844,1.704,1.208,3.623,1.156,5.519c-0.017,0.727-0.093,1.464-0.213,2.181
			c-0.154,0.817-0.303,1.643-0.288,2.477c0,1.457,0.397,2.908,1.138,4.162c0.612,1.048,1.438,1.967,2.355,2.757
			c0.397,0.35,0.835,0.654,1.239,0.994c0.367,0.31,0.717,0.649,1.034,1.01c1.122,1.261,1.837,2.858,2.083,4.525
			c0.21,1.366,0.139,2.772-0.091,4.131c-0.137,0.881-0.404,1.754-0.582,2.625c-0.373,1.845-0.42,3.777,0.016,5.615
			c0.398,1.718,1.216,3.326,2.303,4.709c0.386,0.493,0.822,0.98,1.266,1.421c0.464,0.458,0.978,0.902,1.419,1.383
			c0.805,0.862,1.512,1.828,2.068,2.869c1.352,2.495,1.758,5.413,1.492,8.217c-0.123,1.569-0.559,3.104-0.736,4.665
			c-0.311,2.527-0.224,5.127,0.422,7.597c0.385,1.482,0.973,2.923,1.732,4.252c0.355,0.636,0.793,1.272,1.209,1.87
			c0.575,0.844,1.154,1.784,1.661,2.671c3.624,6.424,5.861,13.591,7.661,20.714c1.441,5.792,2.638,12.187,3.583,18.089
			c0.603,3.775,1.24,8.314,1.583,12.114c0.411,4.675,0.628,9.486,0.131,14.161c-0.119,1.068-0.29,2.235-0.516,3.289
			c-0.294,1.289-0.513,2.616-0.588,3.937c-0.138,2.298,0.153,4.652,1.053,6.782c0.452,1.077,1.06,2.104,1.78,3.023
			c0,0,0.139,0.175,0.139,0.175s0.143,0.174,0.143,0.174l0.146,0.172c0,0,0.149,0.17,0.149,0.17s0.075,0.086,0.075,0.086
			c0.096,0.101,0.208,0.25,0.3,0.357c0.45,0.562,0.868,1.174,1.238,1.79c1.312,2.198,2.258,4.625,3.066,7.047
			c1.486,4.532,2.517,9.338,3.374,14.027c0.5,2.737,1.122,5.584,1.969,8.238c0.586,1.822,1.289,3.648,2.243,5.312
			c0.719,1.242,1.596,2.43,2.764,3.283c0.047,0.034,0.094,0.067,0.094,0.067c0.047,0.032,0.094,0.064,0.094,0.064
			c0.047,0.031,0.095,0.062,0.095,0.062c0.047,0.03,0.095,0.06,0.095,0.06c0.048,0.029,0.095,0.058,0.095,0.058
			c0.048,0.028,0.096,0.056,0.096,0.056c0.048,0.027,0.096,0.053,0.096,0.053c0.048,0.026,0.097,0.051,0.097,0.051
			c0.049,0.025,0.097,0.049,0.097,0.049c0.049,0.024,0.098,0.047,0.098,0.047c0.049,0.023,0.098,0.045,0.098,0.045
			c0.049,0.022,0.099,0.043,0.099,0.043c0.049,0.02,0.099,0.04,0.099,0.04c0.05,0.019,0.1,0.038,0.1,0.038
			c0.05,0.018,0.1,0.036,0.1,0.036c0.05,0.017,0.1,0.034,0.1,0.034c0.05,0.016,0.101,0.032,0.101,0.032
			c0.051,0.015,0.101,0.029,0.101,0.029c0.051,0.014,0.102,0.027,0.102,0.027c0.051,0.013,0.102,0.025,0.102,0.025
			c0.051,0.012,0.103,0.023,0.103,0.023c0.051,0.011,0.103,0.021,0.103,0.021c0.052,0.01,0.104,0.019,0.104,0.019
			c10.483,0.185,30.444,0.026,40.903,0.06c0.86-0.033,1.796-0.312,2.435-0.857c0.607-0.522,0.953-1.152,1.171-1.88
			c0.312-1.059,0.327-2.188,0.249-3.282c-0.124-1.43-0.36-2.883-0.687-4.281c-0.384-1.549-0.917-3.226-1.973-4.449
			c-0.544-0.629-1.224-0.987-1.93-1.369c-1.792-0.912-3.766-1.486-5.718-1.944c-3.469-0.781-7.167-1.364-10.696-1.809
			c-1.881-0.215-3.842-0.421-5.615-1.091c-1.412-0.507-2.846-1.389-3.753-2.572c-0.466-0.593-0.785-1.214-1.033-1.909
			c-0.322-0.904-0.565-1.897-0.776-2.835c-1.759-8.611-2.566-18.045-3.431-26.802c-2.007-23.941-3.175-50.101-3.406-74.121
			c0.001-5.089,0.054-10.804,0.463-15.855c0.508-5.127,1.027-11.168,1.893-16.231c0.174-0.82,0.514-1.624,1.037-2.228
			c0.549-0.648,1.285-1.057,2.044-1.281c0.746-0.234,1.433-0.233,2.189-0.305c1.651-0.153,3.336-0.459,4.946-0.853
			c1.225-0.322,2.649-0.664,3.801-1.169c0.949-0.427,1.836-1.114,2.376-1.954c0.67-1.022,0.882-2.156,0.881-3.345
			c-0.002-0.387-0.045-0.793-0.047-1.181c-0.006-0.427,0.026-0.868,0.095-1.29c0.121-0.757,0.426-1.564,0.863-2.157
			c0.586-0.813,1.367-1.346,2.232-1.72c0.577-0.26,1.209-0.381,1.793-0.622c0.819-0.324,1.637-0.867,2.203-1.49
			c0.722-0.786,1.137-1.629,1.437-2.617c0.173-0.588,0.284-1.206,0.346-1.816c0.042-0.435,0.061-0.895,0.117-1.329
			c0.106-0.863,0.301-1.726,0.608-2.541c0.491-1.319,1.312-2.52,2.386-3.433c0.361-0.309,0.762-0.598,1.168-0.846
			c0.516-0.298,1.037-0.617,1.511-0.98c2.478-1.873,4.133-4.632,5.273-7.48"/>
	</g>
	<g id="POLYLINE_233_">
		
			<path fill="none" stroke="#FB8604" stroke-width="2.75" stroke-linecap="round" stroke-linejoin="round" stroke-miterlimit="10" d="
			M286.439,398.903c0.359,1.567,1.089,3.038,1.973,4.373c0.739,1.081,1.68,2.23,2.835,2.832c0.203,0.101,0.384,0.167,0.55,0.209
			c0.051,0.012,0.077,0.018,0.077,0.018c0.051,0.01,0.076,0.015,0.076,0.015c0.051,0.008,0.076,0.012,0.076,0.012
			c0.726,0.096,1.379-0.279,2.001-0.551c0.182-0.081,0.414-0.168,0.562-0.205c0.053-0.013,0.08-0.019,0.08-0.019
			c0.053-0.011,0.08-0.016,0.08-0.016c0.053-0.009,0.08-0.012,0.08-0.012c0.053-0.006,0.08-0.009,0.08-0.009
			c0.053-0.004,0.067-0.004,0.067-0.004c0.053-0.001,0.067-0.001,0.067-0.001c0.054,0.001,0.067,0.002,0.067,0.002
			c0.054,0.004,0.067,0.005,0.067,0.005c0.054,0.007,0.067,0.009,0.067,0.009c0.054,0.01,0.067,0.013,0.067,0.013
			c0.054,0.013,0.067,0.016,0.067,0.016c0.054,0.016,0.068,0.02,0.068,0.02c0.054,0.019,0.068,0.024,0.068,0.024
			c0.054,0.023,0.068,0.029,0.068,0.029c0.055,0.026,0.083,0.041,0.083,0.041c0.056,0.032,0.085,0.048,0.085,0.048
			c0.618,0.408,1.006,0.991,1.417,1.578c1.53,2.328,2.861,5.149,4.666,7.283c1.049,1.249,2.448,2.469,4.113,2.622
			c0.721,0.069,1.45-0.051,2.139-0.26c0.974-0.298,1.895-0.768,2.77-1.286c3.433-2.027,6.8-5.389,10.212-7.447
			c0.688-0.394,1.478-0.783,2.261-0.884c0.053-0.006,0.105-0.011,0.105-0.011c0.052-0.004,0.103-0.007,0.103-0.007
			c0.051-0.002,0.102-0.003,0.102-0.003c0.05,0,0.1,0.001,0.1,0.001c0.05,0.002,0.099,0.005,0.099,0.005
			c0.049,0.004,0.097,0.01,0.097,0.01c0.048,0.007,0.095,0.014,0.095,0.014c0.047,0.009,0.094,0.019,0.094,0.019
			c0.035,0.008,0.07,0.017,0.07,0.017c0.034,0.009,0.069,0.02,0.069,0.02c0.034,0.011,0.068,0.022,0.068,0.022
			c0.033,0.012,0.067,0.025,0.067,0.025c0.033,0.013,0.066,0.027,0.066,0.027c0.033,0.014,0.065,0.029,0.065,0.029
			c0.237,0.112,0.438,0.264,0.603,0.417c0.056,0.053,0.084,0.081,0.084,0.081c0.532,0.547,0.854,1.169,1.166,1.845
			c0.504,1.097,1.147,3.16,1.55,4.319c0.419,1.14,0.854,2.378,1.683,3.286c0.054,0.055,0.081,0.082,0.081,0.082
			c0.055,0.052,0.082,0.077,0.082,0.077c0.056,0.049,0.084,0.073,0.084,0.073c0.056,0.045,0.083,0.066,0.083,0.066
			c0.055,0.041,0.083,0.061,0.083,0.061c0.538,0.376,1.156,0.483,1.772,0.474c0.687-0.013,1.377-0.16,2.044-0.318
			c1.94-0.479,4.031-1.146,6.043-0.887c1.135,0.134,2.21,0.588,3.198,1.148c2.087,1.176,4.4,3.268,6.295,4.746
			c0.815,0.627,1.669,1.255,2.59,1.714c0.744,0.372,1.62,0.644,2.42,0.497c1.089-0.214,1.862-0.998,2.563-1.784
			c1.018-1.172,2.075-2.846,3.054-4.051c0.832-1.011,1.869-2.147,3.218-2.336c0.051-0.006,0.101-0.012,0.101-0.012
			c0.051-0.004,0.102-0.008,0.102-0.008c0.75-0.04,1.433,0.187,2.063,0.476c0.759,0.355,1.468,0.835,2.136,1.337
			c1.705,1.266,4.567,4.081,6.162,5.541c1.098,0.992,2.251,1.994,3.487,2.81c0.779,0.512,1.616,0.96,2.516,1.216
			c1.377,0.408,2.843,0.341,4.249,0.129l1.954-0.308c1.357-0.205,2.778-0.269,4.098,0.169c2.451,0.799,4.748,2.727,7.006,3.925
			c0.565,0.298,1.158,0.57,1.778,0.73c0.578,0.158,1.247,0.18,1.787,0.004c1.37-0.434,2.416-1.632,3.471-2.534
			c0.702-0.618,1.514-1.251,2.391-1.538c0.688-0.226,1.369-0.239,2.064-0.151c0.855,0.112,1.69,0.381,2.491,0.692
			c2.669,1.056,5.705,2.905,8.397,3.902c3.143,1.195,6.536,1.623,9.878,1.788l4.627,0.166"/>
	</g>
	<g id="POLYLINE_203_">
		
			<path fill="none" stroke="#FB8604" stroke-width="2.75" stroke-linecap="round" stroke-linejoin="round" stroke-miterlimit="10" d="
			M160.532,311.414c-3.971,5.477-7.545,11.351-10.111,17.625c-1.935,4.755-3.286,9.817-3.463,14.967
			c-0.291,7.89,1.809,16.049,1.913,23.925c0.049,2.755-0.168,5.546-0.694,8.252c-1.568,8.11-5.268,16.311-6.894,24.406
			c-0.558,2.758-0.903,5.603-0.845,8.42c0.047,2.45,0.424,4.916,0.968,7.302c1.285,5.703,3.707,11.401,5.315,17.013
			c0.597,2.167,1.103,4.412,1.074,6.672c-0.015,1.094-0.194,2.19-0.503,3.239c-0.563,1.975-1.714,4.118-2.568,5.975
			c-0.832,1.799-1.54,3.689-1.874,5.648c-0.334,1.895-0.334,3.847-0.079,5.752c0.34,2.538,1.047,5.057,1.866,7.48
			c1.218,3.56,2.773,7.067,4.489,10.416c1.923,3.686,4.056,7.36,6.655,10.612c0.57,0.699,1.18,1.394,1.843,2.007
			c0.367,0.336,0.757,0.658,1.188,0.908l0.06,0.034l0.059,0.032l0.059,0.03l0.058,0.028l0.057,0.027l0.057,0.025
			c0.056,0.023,0.111,0.044,0.111,0.044c0.055,0.019,0.108,0.036,0.108,0.036c0.053,0.015,0.105,0.028,0.105,0.028
			c0.052,0.011,0.102,0.02,0.102,0.02c0.05,0.007,0.099,0.013,0.099,0.013c0.048,0.003,0.096,0.005,0.096,0.005
			c0.047-0.001,0.093-0.003,0.093-0.003c0.045-0.005,0.09-0.012,0.09-0.012c0.044-0.009,0.086-0.02,0.086-0.02
			c0.042-0.013,0.083-0.028,0.083-0.028c0.039-0.017,0.058-0.026,0.058-0.026c0.038-0.02,0.057-0.03,0.057-0.03
			c0.055-0.035,0.073-0.047,0.073-0.047c0.053-0.04,0.07-0.055,0.07-0.055c0.05-0.046,0.067-0.062,0.067-0.062
			c0.048-0.051,0.064-0.069,0.064-0.069c0.046-0.056,0.062-0.076,0.062-0.076c0.03-0.04,0.044-0.061,0.044-0.061
			c0.029-0.043,0.043-0.064,0.043-0.064c0.436-0.736,0.563-1.538,0.74-2.352c0.189-0.96,0.417-2.347,0.706-3.27
			c0.156-0.513,0.384-1.092,0.7-1.513c0.038-0.05,0.058-0.074,0.058-0.074c0.039-0.048,0.059-0.071,0.059-0.071
			c0.041-0.046,0.061-0.068,0.061-0.068c0.042-0.043,0.063-0.064,0.063-0.064c0.043-0.041,0.065-0.061,0.065-0.061
			c0.044-0.038,0.067-0.057,0.067-0.057c0.046-0.036,0.069-0.053,0.069-0.053c0.047-0.033,0.071-0.05,0.071-0.05
			c0.051-0.032,0.078-0.048,0.078-0.048c0.055-0.031,0.083-0.045,0.083-0.045c0.028-0.014,0.057-0.028,0.057-0.028
			c0.029-0.013,0.058-0.026,0.058-0.026c0.539-0.22,1.097-0.183,1.633-0.097c0.698,0.12,1.389,0.359,2.052,0.606
			c1.319,0.498,2.811,1.193,4.168,1.561c0.712,0.188,1.54,0.33,2.238,0.095c0.035-0.012,0.07-0.025,0.07-0.025
			c0.034-0.014,0.068-0.028,0.068-0.028c0.034-0.015,0.067-0.03,0.067-0.03c0.033-0.016,0.066-0.033,0.066-0.033
			c0.032-0.017,0.065-0.035,0.065-0.035c0.032-0.018,0.063-0.037,0.063-0.037c0.12-0.073,0.221-0.153,0.299-0.221
			c0.056-0.051,0.084-0.077,0.084-0.077c0.497-0.49,0.758-1.05,1.002-1.67c0.324-0.859,0.533-1.792,0.717-2.691
			c0.382-1.922,0.798-4.782,1.451-6.604c0.317-0.915,0.753-1.802,1.379-2.547c1.229-1.491,3.041-2.327,4.815-2.988
			c1.795-0.657,4.095-1.384,5.738-2.339c2.526-1.42,4.705-3.412,6.746-5.449l3.141-3.229"/>
	</g>
	<g id="POLYLINE_202_">
		
			<path fill="none" stroke="#FB8604" stroke-width="2.75" stroke-linecap="round" stroke-linejoin="round" stroke-miterlimit="10" d="
			M477.882,427.241c2.264-1.643,4.837-2.849,7.482-3.739c2.287-0.748,4.683-1.293,7.099-1.293c0.872,0.008,1.756,0.094,2.593,0.349
			c0.969,0.279,1.955,0.899,2.825,1.402c0.568,0.327,1.249,0.639,1.89,0.658c0.699,0.028,1.293-0.219,1.872-0.529
			c0.536-0.292,1.053-0.653,1.541-1.019c1.636-1.237,4.002-3.435,5.63-4.686c1.343-1.022,2.798-2.069,4.461-2.464
			c1.028-0.236,2.079-0.083,3.071,0.231c1.135,0.346,2.294,0.948,3.465,1.169c0.536,0.106,1.186,0.088,1.67-0.096
			c0.724-0.268,1.261-0.73,1.796-1.248c1.243-1.235,2.471-3.043,3.552-4.431c0.681-0.873,1.398-1.75,2.211-2.502
			c0.589-0.546,1.308-1.078,2.051-1.364c1.003-0.395,2.109-0.405,3.169-0.303c1.927,0.174,3.992,0.776,5.89,0.143
			c1.109-0.368,1.951-1.164,2.648-2.02c0.99-1.229,1.759-2.642,2.463-4.05c1.999-4.002,3.66-9.008,5.968-12.843
			c0.653-1.06,1.497-2.169,2.537-2.826c0.982-0.656,2.121-0.928,3.231-1.248c0.575-0.168,1.221-0.408,1.661-0.788
			c0.051-0.044,0.068-0.059,0.068-0.059c0.049-0.046,0.066-0.062,0.066-0.062c0.048-0.048,0.064-0.064,0.064-0.064
			c0.047-0.05,0.062-0.067,0.062-0.067c0.043-0.049,0.064-0.075,0.064-0.075c0.041-0.052,0.062-0.078,0.062-0.078
			c0.471-0.637,0.672-1.344,0.838-2.097c0.283-1.382,0.337-2.856,0.38-4.265c0.074-3.294-0.021-7.116,0.582-10.338
			c0.398-2.262,1.092-4.489,2.164-6.524c1.014-1.94,2.38-3.693,3.959-5.205c3.011-2.931,6.882-5.38,9.3-8.872
			c0.648-0.95,1.169-1.998,1.47-3.111c0.529-1.89,0.518-4.092,0.6-6.047c0.04-0.713,0.079-1.487,0.294-2.167
			c0.042-0.127,0.081-0.221,0.115-0.294c0.022-0.045,0.033-0.067,0.033-0.067c0.023-0.043,0.035-0.064,0.035-0.064
			c0.024-0.041,0.036-0.061,0.036-0.061c0.025-0.039,0.038-0.058,0.038-0.058c0.04-0.056,0.054-0.073,0.054-0.073
			c0.043-0.052,0.057-0.068,0.057-0.068c0.045-0.048,0.061-0.063,0.061-0.063c0.048-0.044,0.065-0.057,0.065-0.057
			c0.051-0.039,0.068-0.052,0.068-0.052c0.054-0.035,0.072-0.046,0.072-0.046c0.047-0.026,0.063-0.034,0.063-0.034
			c0.049-0.023,0.065-0.03,0.065-0.03c0.051-0.02,0.068-0.026,0.068-0.026c0.053-0.017,0.07-0.022,0.07-0.022
			c0.054-0.015,0.073-0.019,0.073-0.019c0.624-0.124,1.175,0.011,1.767,0.125c1.543,0.313,3.451,1.002,4.912,0.147
			c0.926-0.57,1.469-1.482,1.93-2.424c0.733-1.56,1.173-3.283,1.575-4.954c0.449-1.973,1.056-4.95,1.667-6.846
			c0.532-1.734,1.465-4.162,1.938-5.906"/>
	</g>
	<g id="POLYLINE_195_">
		
			<path fill="none" stroke="#FB8604" stroke-width="2.75" stroke-linecap="round" stroke-linejoin="round" stroke-miterlimit="10" d="
			M279.529,327.86c0.573,5.338,1.796,10.652,3.686,15.679c1.204,3.13,2.679,6.22,4.794,8.841c2.148,2.707,5.122,4.934,6.845,7.97
			c1.195,2.067,1.77,4.435,2.087,6.784c0.419,3.225,0.358,6.515-0.015,9.742c-0.497,4.021-1.422,8.074-3.315,11.683
			c-0.747,1.414-1.687,2.852-2.602,4.169c-8.448,11.571-23.572,30.469-32.051,41.991c-3.128,4.312-30.062,40.441-32.271,43.875
			c-1.941,2.875-3.916,5.948-5.573,8.993c-1.615,2.995-3.135,6.132-3.956,9.449c-0.599,2.61-0.719,5.348-0.816,8.016
			c-0.162,5.802,0.217,12.016,0.637,17.814c0.673,7.777,1.378,16.246,2.612,23.948c0.257,1.415,0.495,2.903,0.973,4.264
			c0.104,0.281,0.244,0.563,0.372,0.8c0.189,0.35,0.403,0.731,0.617,1.068c0.593,0.947,1.285,1.846,2.041,2.669
			c0.486,0.529,1.037,1.086,1.586,1.53c0.41,0.325,0.756,0.5,1.188,0.726c1.121,0.55,2.345,0.883,3.563,1.138
			c1.894,0.385,3.857,0.568,5.786,0.668c2.211,0.107,4.528,0.302,6.717,0.622c1.481,0.224,2.98,0.517,4.402,0.996
			c3.296,1.004,5.136,4.217,6.327,7.23c0.706,1.834,1.307,3.749,1.543,5.706c0.143,1.245,0.134,2.544-0.253,3.743
			c-0.017,0.05-0.026,0.075-0.026,0.075c-0.019,0.05-0.029,0.074-0.029,0.074c-0.021,0.049-0.032,0.073-0.032,0.073
			c-0.023,0.048-0.035,0.073-0.035,0.073c-0.025,0.048-0.038,0.072-0.038,0.072c-0.027,0.047-0.041,0.071-0.041,0.071
			c-0.029,0.047-0.045,0.07-0.045,0.07c-0.031,0.046-0.048,0.069-0.048,0.069c-0.432,0.588-0.981,0.895-1.598,1.193
			c-0.754,0.346-1.572,0.569-2.38,0.747c-2.46,0.518-5.025,0.64-7.533,0.696c-3.946,0.011-22.763,0.096-26.487-0.087
			c-3.044-0.177-6.122-0.558-9.035-1.489c-0.719-0.246-1.453-0.488-2.122-0.851c-0.638-0.341-1.231-0.77-1.759-1.264
			c-1.169-1.091-2.025-2.484-2.66-3.942c-0.574-1.322-0.984-2.724-1.29-4.131c-3.547-18.094-7.499-37.602-13.231-55.124
			c-0.752-2.363-1.93-5.501-2.531-7.887c-0.849-3.21-1.448-6.54-1.362-9.87c0.069-2.56,0.584-5.16,1.842-7.411
			c1.131-2.179,11.998-21.502,12.631-23.326c1.595-3.592,2.852-7.41,3.857-11.207c0.933-3.556,1.683-7.241,2.161-10.886
			c0.444-3.664,0.69-8.072,0.883-11.757c0.058-1.786,0.117-3.646-0.148-5.42c-0.05-0.311-0.114-0.635-0.198-0.94
			c-0.053-0.19-0.119-0.398-0.192-0.583c-0.05-0.122-0.11-0.269-0.172-0.387c0,0-0.031-0.061-0.031-0.061s-0.032-0.06-0.032-0.06
			s-0.032-0.059-0.032-0.059s-0.033-0.058-0.033-0.058c-0.021-0.031-0.103-0.172-0.103-0.167c-0.036-0.054-0.054-0.08-0.054-0.08
			c-0.037-0.052-0.056-0.078-0.056-0.078c-0.038-0.051-0.057-0.076-0.057-0.076c-0.039-0.049-0.059-0.074-0.059-0.074
			c-0.663-0.802-1.527-1.164-2.434-1.538c-3.197-1.185-4.772-1.735-4.082-5.53c0.467-2.592,1.855-6.144,2.562-8.691
			c0.285-1.022,0.546-2.075,0.65-3.133c0.076-0.804,0.063-1.705-0.288-2.413c-0.029-0.056-0.043-0.084-0.043-0.084
			c-0.03-0.055-0.046-0.081-0.046-0.081c-0.032-0.053-0.049-0.079-0.049-0.079c-0.533-0.811-1.334-1.205-2.167-1.562
			c-1.86-0.781-4.437-1.233-5.195-3.361c-0.702-1.895-0.481-4.167-0.647-6.156c-0.06-0.705-0.153-1.481-0.47-2.115
			c-0.027-0.052-0.041-0.078-0.041-0.078c-0.029-0.05-0.044-0.075-0.044-0.075c-0.03-0.049-0.046-0.072-0.046-0.072
			c-0.032-0.047-0.048-0.069-0.048-0.069c-0.033-0.045-0.051-0.066-0.051-0.066c-0.035-0.043-0.053-0.063-0.053-0.063
			c-0.037-0.041-0.056-0.06-0.056-0.06c-0.054-0.053-0.072-0.07-0.072-0.07c-0.055-0.048-0.073-0.063-0.073-0.063
			c-0.038-0.03-0.057-0.045-0.057-0.045c-0.039-0.028-0.059-0.042-0.059-0.042c-0.041-0.027-0.061-0.04-0.061-0.04
			c-0.042-0.025-0.063-0.038-0.063-0.038c-0.043-0.024-0.065-0.036-0.065-0.036c-0.75-0.369-1.518-0.355-2.315-0.372
			c-1.191-0.005-2.566,0.083-3.718-0.242c-0.488-0.129-1.032-0.398-1.391-0.712c-0.728-0.631-1.133-1.413-1.488-2.258
			c-0.596-1.482-0.918-3.089-1.212-4.655c-0.524-2.882-1.043-6.971-1.999-9.707c-0.328-0.951-0.742-1.887-1.312-2.721
			c-1.187-1.784-3.074-3.033-4.767-4.296c-1.065-0.808-2.1-1.726-2.745-2.915c-0.921-1.69-0.957-3.685-0.912-5.563
			c0.076-3.089,0.845-6.866,0.899-9.958c-0.007-0.602-0.038-1.286-0.283-1.828c-0.014-0.029-0.028-0.057-0.028-0.057
			c-0.027-0.05-0.034-0.062-0.034-0.062c-0.029-0.048-0.036-0.059-0.036-0.059c-0.038-0.056-0.046-0.067-0.046-0.067
			c-0.04-0.053-0.048-0.063-0.048-0.063c-0.042-0.05-0.05-0.059-0.05-0.059c-0.053-0.056-0.071-0.073-0.071-0.073
			c-0.056-0.051-0.075-0.068-0.075-0.068c-0.039-0.032-0.058-0.047-0.058-0.047c-0.04-0.03-0.06-0.044-0.06-0.044
			c-0.041-0.028-0.062-0.042-0.062-0.042c-0.488-0.306-1.095-0.44-1.54-0.753c-0.046-0.032-0.069-0.049-0.069-0.049
			c-0.046-0.034-0.068-0.052-0.068-0.052c-0.045-0.037-0.067-0.056-0.067-0.056c-0.044-0.039-0.066-0.059-0.066-0.059
			c-0.043-0.042-0.064-0.063-0.064-0.063c-0.042-0.044-0.063-0.067-0.063-0.067c-0.041-0.047-0.061-0.072-0.061-0.072
			c-0.04-0.05-0.059-0.076-0.059-0.076c-0.085-0.117-0.123-0.182-0.173-0.271c-0.024-0.045-0.047-0.09-0.047-0.09
			c-0.389-0.829-0.487-1.705-0.581-2.599c-0.4-5.894,0.464-12.498-0.119-18.384c-0.257-2.402-0.661-5.037-2.305-6.915
			c-0.512-0.594-1.121-1.107-1.755-1.566c-0.888-0.648-2.055-1.323-2.842-2.082c-0.769-0.718-1.223-1.658-1.285-2.668
			c-0.058-0.785,0.041-1.579,0.183-2.35c0.618-3.196,2.176-6.856,3.272-9.933c0.337-0.944,0.688-1.966,0.929-2.939
			c0.135-0.569,0.27-1.221,0.216-1.79c-0.004-0.037-0.009-0.074-0.009-0.074c-0.005-0.036-0.012-0.071-0.012-0.071
			c-0.007-0.034-0.014-0.068-0.014-0.068c-0.008-0.033-0.017-0.065-0.017-0.065c-0.009-0.031-0.019-0.062-0.019-0.062
			c-0.011-0.03-0.022-0.059-0.022-0.059c-0.025-0.056-0.038-0.082-0.038-0.082c-0.029-0.051-0.044-0.075-0.044-0.075
			c-0.04-0.055-0.049-0.065-0.049-0.065c-0.045-0.049-0.054-0.059-0.054-0.059c-0.05-0.044-0.06-0.053-0.06-0.053
			c-0.054-0.039-0.065-0.046-0.065-0.046c-0.046-0.028-0.058-0.034-0.058-0.034c-0.049-0.025-0.061-0.03-0.061-0.03
			c-0.051-0.022-0.065-0.027-0.065-0.027c-0.054-0.019-0.068-0.023-0.068-0.023c-0.056-0.016-0.071-0.02-0.071-0.02
			c-0.044-0.01-0.058-0.014-0.058-0.014c-0.661-0.127-1.466,0.037-2.126,0.09c-0.373,0.034-0.814,0.056-1.167-0.015
			c-0.048-0.01-0.063-0.014-0.063-0.014c-0.047-0.012-0.062-0.016-0.062-0.016c-0.045-0.013-0.06-0.018-0.06-0.018
			c-0.044-0.015-0.059-0.02-0.059-0.02c-0.043-0.017-0.057-0.022-0.057-0.022c-0.055-0.025-0.081-0.037-0.081-0.037
			c-0.05-0.027-0.074-0.041-0.074-0.041c-0.047-0.03-0.07-0.046-0.07-0.046c-0.045-0.034-0.067-0.051-0.067-0.051
			c-0.042-0.037-0.063-0.056-0.063-0.056c-0.04-0.04-0.059-0.061-0.059-0.061c-0.037-0.043-0.055-0.066-0.055-0.066
			c-0.035-0.046-0.051-0.07-0.051-0.07c-0.032-0.049-0.048-0.075-0.048-0.075c-0.03-0.052-0.044-0.079-0.044-0.079
			c-0.027-0.055-0.04-0.084-0.04-0.084c-0.234-0.545-0.225-1.103-0.196-1.658c0.054-0.779,0.232-1.565,0.434-2.318
			c1.06-3.691,2.842-7.171,4.754-10.488c2.713-4.616,5.983-8.97,9.556-12.954c3.263-3.617,6.852-7.038,10.76-9.952
			c1.483-1.101,3.089-2.156,4.687-3.081c1.911-1.129,5.747-3.038,7.734-4.11c2.658-1.382,5.361-3.425,7.875-5.057
			c1.647-1.052,3.398-1.991,5.247-2.637c4.151-1.48,8.67-1.33,13.009-1.113c5.03,0.281,11.083,1.025,16.104,0.872
			c1.4-0.054,2.827-0.18,4.192-0.507c1.409-0.33,2.742-0.954,3.948-1.749c1.867-1.219,3.595-2.863,5.725-3.626
			c1.431-0.534,2.986-0.635,4.501-0.587c2.321,0.08,4.674,0.489,6.954,0.915c6.299,1.194,14.025,3.246,20.456,2.851
			c4.113-0.228,8.163-1.748,12.018-3.099c1.039-0.34,2.102-0.674,3.183-0.84c0.772-0.12,1.599-0.147,2.358,0.028
			c1.097,0.245,2.076,0.849,2.999,1.468c1.408,0.957,2.837,2.012,4.481,2.511c1.175,0.366,2.423,0.467,3.648,0.478
			c4.56-0.027,9.459-1.084,14.024-1.021c1.871,0.008,3.762,0.207,5.584,0.638c2.81,0.653,5.524,1.767,8.132,2.987
			c2.192,1.023,5.198,2.589,7.414,3.529c1.384,0.587,2.83,1.088,4.311,1.354c1.191,0.217,2.418,0.282,3.624,0.162
			c1.249-0.122,2.478-0.44,3.649-0.888c2.284-0.87,4.717-2.326,7.095-2.931c0.722-0.181,1.475-0.289,2.221-0.254
			c0.697,0.032,1.387,0.189,2.048,0.411c1.439,0.477,3.084,1.419,4.435,2.101c1.209,0.62,2.503,1.22,3.799,1.635
			c3.397,1.079,7.043,1.033,10.57,0.927c3.207-0.141,9.291-0.553,12.397-0.461c1.771,0.034,3.605,0.194,5.358,0.442
			c4.57,0.606,9.556,2.09,14.166,2.342c2.143,0.103,4.316-0.093,6.382-0.684c1.737-0.5,3.42-1.291,4.802-2.47
			c1.057-0.889,1.996-2.175,2.901-3.215c0.737-0.855,1.646-1.701,2.684-2.123c1.344-0.552,2.845-0.514,4.273-0.472
			c1.52,0.062,3.708,0.265,5.202,0.117c0.574-0.055,1.154-0.157,1.694-0.364c1.066-0.4,1.766-1.242,2.384-2.128
			c0.675-0.959,1.36-2.206,2.431-2.743c0.59-0.292,1.19-0.347,1.825-0.35c1.544,0.015,3.453,0.457,4.991,0.592
			c1.333,0.125,2.737,0.12,3.994-0.392c0.865-0.352,1.631-0.916,2.313-1.546c1.394-1.265,2.894-3.409,4.064-4.898
			c0.937-1.166,1.923-2.388,3.272-3.091c1.038-0.54,2.225-0.695,3.381-0.709c1.192-0.015,2.808,0.104,3.997,0.092
			c0.936-0.003,1.893-0.077,2.818-0.221c2.14-0.332,4.252-0.969,6.283-1.713c3.039-1.123,6.044-2.569,8.895-4.107"/>
	</g>
	<g id="POLYLINE_191_">
		
			<path fill="none" stroke="#FB8604" stroke-width="2.75" stroke-linecap="round" stroke-linejoin="round" stroke-miterlimit="10" d="
			M294.436,405.65c-10.012,21.619-20.605,44.172-33.394,64.259c-1.741,2.685-3.897,5.993-5.727,8.575
			c-0.929,1.275-1.951,2.751-2.79,4.059c-1.781,2.802-3.307,5.809-4.56,8.885c-1.722,4.236-2.968,8.737-3.783,13.234
			c-0.652,3.424-1.035,7.734-1.324,11.24c-0.404,5.198-0.689,10.612-0.558,15.824c0.109,5.298,0.891,10.625,2.533,15.671
			c0.599,1.811,1.342,3.612,2.27,5.28c0.894,1.627,2.024,3.146,3.441,4.356c1.577,1.365,3.479,2.334,5.481,2.901
			c0.514,0.146,1.057,0.274,1.582,0.373c4.335,0.828,9.414,1.581,13.803,2.129c2.601,0.325,5.252,1.023,7.382,2.609
			c0.645,0.483,1.234,1.051,1.729,1.687c0.395,0.497,0.719,1.059,1.017,1.618c1.199,2.24,2.018,4.717,2.193,7.26
			c0.041,0.698,0.083,1.413-0.046,2.105c-0.11,0.646-0.42,1.321-0.83,1.782c-0.49,0.562-1.067,0.894-1.712,1.151
			c-0.742,0.287-1.539,0.428-2.329,0.499c-9.178,0.15-28.331,0.004-37.655,0.054"/>
	</g>
	<g id="POLYLINE_180_">
		
			<path fill="none" stroke="#FB8604" stroke-width="2.75" stroke-linecap="round" stroke-linejoin="round" stroke-miterlimit="10" d="
			M516.452,416.184c-5.303,17.366-9.881,35.411-12.842,53.331c-0.885,5.423-1.767,11.876-2.315,17.338
			c-0.292,2.462-1.338,16.683-1.572,19.511c-0.555,9.258-1.417,20.992-1.366,30.169c0.019,3.403,0.106,6.964,0.521,10.339
			c0.218,1.703,0.502,3.433,1.025,5.07c0.298,0.911,0.667,1.82,1.24,2.594c0.443,0.616,1.027,0.984,1.609,1.395
			c0.852,0.583,1.768,1.122,2.676,1.612c1.819,0.977,3.792,1.858,5.704,2.635c1.933,0.794,3.949,1.487,5.974,2.005
			c2.562,0.66,5.21,1.08,7.851,1.239c2.835,0.125,5.729,0.287,8.481,1.025c1.509,0.412,3.032,1.012,4.157,2.135
			c1.196,1.168,1.927,2.733,2.361,4.33c0.33,1.251,0.544,2.552,0.609,3.845c0.046,1.115-0.031,2.262-0.428,3.314
			c-0.374,1.023-1.13,1.879-2.057,2.369c-0.76,0.412-1.609,0.614-2.463,0.705c-0.291,0.03-0.597,0.048-0.89,0.053
			c-0.062-0.007-0.173,0.008-0.234,0.002c0,0-23.193,0-23.193,0"/>
	</g>
</g>
<g id="AG-OUTLINE">
	<g id="POLYLINE_756_">
		
			<path fill="none" stroke="#FB8604" stroke-width="3.5" stroke-linecap="round" stroke-linejoin="round" stroke-miterlimit="10" d="
			M522.106,180.789c-2.13-0.711-4.222-1.629-6.113-2.845c-2.198-1.379-4.836-3.894-6.806-5.613c-2.152-1.868-4.53-3.614-7.296-4.428
			c-1.252-0.359-2.677-0.569-3.915-0.073c-1.472,0.584-1.976,2.143-2.2,3.552c-0.231,1.495-0.208,3.036-0.14,4.543
			c0.204,4.03,1.096,10.1,1.437,14.131c0.278,2.988,0.347,6.122,0.279,9.123c-0.06,3.29-0.47,8.874-0.111,12.087
			c0.102,0.9,0.267,1.809,0.574,2.663c-2.852,1.538-5.855,2.984-8.895,4.107c-2.031,0.744-4.143,1.382-6.283,1.713
			c-0.925,0.144-1.882,0.218-2.818,0.221c-1.188,0.012-2.807-0.107-3.997-0.092c-1.156,0.014-2.344,0.17-3.381,0.709
			c-1.349,0.703-2.335,1.925-3.272,3.091c-1.287,1.628-2.8,3.84-4.375,5.175c-0.86,0.746-1.88,1.352-3.006,1.572
			c-2.202,0.451-4.622-0.187-6.818-0.429c-0.809-0.083-1.663-0.138-2.455,0.074c-1.45,0.396-2.163,1.823-2.965,2.947
			c-0.598,0.878-1.383,1.771-2.384,2.128c-0.541,0.207-1.12,0.308-1.694,0.364c-1.487,0.148-3.695-0.055-5.202-0.117
			c-1.428-0.042-2.929-0.08-4.273,0.472c-1.104,0.464-1.92,1.251-2.684,2.123c-0.907,1.041-1.843,2.324-2.901,3.215
			c-1.382,1.179-3.064,1.97-4.802,2.47c-2.066,0.591-4.239,0.787-6.382,0.684c-4.609-0.252-9.597-1.736-14.166-2.342
			c-1.752-0.248-3.589-0.408-5.358-0.442c-3.115-0.092-9.24,0.323-12.397,0.461c-3.456,0.104-7.022,0.148-10.362-0.862
			c-1.373-0.421-2.728-1.046-4.007-1.701c-1.238-0.636-2.84-1.519-4.119-1.99c-0.733-0.271-1.501-0.472-2.284-0.518
			c-0.772-0.047-1.551,0.062-2.3,0.25c-2.374,0.605-4.812,2.062-7.095,2.931c-1.17,0.448-2.4,0.767-3.649,0.888
			c-1.206,0.12-2.433,0.055-3.624-0.162c-1.482-0.265-2.928-0.767-4.311-1.354c-2.211-0.938-5.226-2.508-7.414-3.529
			c-2.608-1.219-5.322-2.334-8.132-2.987c-1.822-0.431-3.713-0.63-5.584-0.638c-4.666-0.068-9.648,1.044-14.31,1.017
			c-1.157-0.025-2.333-0.142-3.439-0.498c-1.701-0.535-3.172-1.662-4.637-2.642c-0.869-0.573-1.801-1.111-2.831-1.327
			c-0.768-0.162-1.529-0.129-2.293-0.014c-1.08,0.166-2.148,0.499-3.183,0.84c-3.867,1.356-7.906,2.87-12.018,3.099
			c-6.42,0.398-14.14-1.655-20.456-2.85c-2.283-0.424-4.632-0.835-6.954-0.915c-1.515-0.048-3.069,0.053-4.501,0.587
			c-2.129,0.762-3.858,2.407-5.725,3.626c-1.206,0.795-2.538,1.419-3.948,1.749c-1.509,0.36-3.088,0.478-4.636,0.52
			c-4.842,0.094-10.805-0.613-15.66-0.885c-4.246-0.211-8.661-0.363-12.74,1.021c-1.784,0.595-3.483,1.463-5.078,2.454
			c-2.692,1.695-5.484,3.866-8.312,5.332c-3.741,1.99-8.317,4.167-11.725,6.684c-3.903,2.813-7.484,6.151-10.747,9.68
			c-3.859,4.199-7.373,8.814-10.265,13.733c-1.949,3.387-3.78,6.951-4.819,10.734c-0.176,0.704-0.335,1.44-0.374,2.167
			c-0.03,0.514-0.001,1.08,0.189,1.535c0.013,0.029,0.026,0.057,0.026,0.057c0.027,0.055,0.042,0.082,0.042,0.082
			c0.03,0.052,0.045,0.078,0.045,0.078c0.032,0.049,0.049,0.073,0.049,0.073c0.035,0.046,0.053,0.069,0.053,0.069
			c0.037,0.043,0.056,0.064,0.056,0.064c0.04,0.04,0.06,0.059,0.06,0.059c0.042,0.037,0.064,0.055,0.064,0.055
			c0.045,0.034,0.068,0.05,0.068,0.05c0.047,0.03,0.072,0.045,0.072,0.045c0.05,0.027,0.076,0.04,0.076,0.04
			c0.055,0.025,0.069,0.03,0.069,0.03c0.043,0.017,0.057,0.022,0.057,0.022c0.044,0.015,0.059,0.019,0.059,0.019
			c0.045,0.013,0.061,0.017,0.061,0.017c0.047,0.012,0.062,0.015,0.062,0.015c0.43,0.089,0.8,0.058,1.215,0.026
			c0.62-0.053,1.473-0.208,2.081-0.099c0.045,0.009,0.06,0.012,0.06,0.012c0.044,0.01,0.058,0.014,0.058,0.014
			c0.056,0.016,0.07,0.021,0.07,0.021c0.054,0.019,0.067,0.024,0.067,0.024c0.051,0.022,0.064,0.028,0.064,0.028
			c0.049,0.025,0.061,0.031,0.061,0.031c0.046,0.028,0.057,0.035,0.057,0.035c0.054,0.039,0.064,0.047,0.064,0.047
			c0.05,0.044,0.059,0.054,0.059,0.054c0.045,0.049,0.054,0.06,0.054,0.06c0.04,0.055,0.056,0.079,0.056,0.079
			c0.029,0.051,0.042,0.078,0.042,0.078c0.025,0.056,0.036,0.085,0.036,0.085c0.011,0.03,0.021,0.06,0.021,0.06
			c0.009,0.031,0.018,0.064,0.018,0.064c0.008,0.033,0.015,0.067,0.015,0.067c0.007,0.034,0.013,0.07,0.013,0.07
			c0.005,0.036,0.01,0.073,0.01,0.073c0.059,0.609-0.059,1.138-0.183,1.707c-0.191,0.809-0.471,1.658-0.742,2.446
			c-1.114,3.202-2.727,6.939-3.43,10.245c-0.164,0.81-0.287,1.644-0.253,2.472c0.023,0.855,0.323,1.714,0.84,2.347
			c0.87,1.086,2.2,1.771,3.301,2.585c-3.971,5.477-7.545,11.351-10.111,17.625c-1.935,4.755-3.286,9.817-3.463,14.967
			c-0.291,7.89,1.809,16.049,1.913,23.925c0.049,2.755-0.168,5.546-0.694,8.252c-1.568,8.11-5.268,16.311-6.894,24.406
			c-0.558,2.758-0.903,5.603-0.845,8.42c0.047,2.45,0.424,4.916,0.968,7.302c1.285,5.703,3.707,11.401,5.315,17.013
			c0.597,2.167,1.103,4.412,1.074,6.672c-0.015,1.094-0.194,2.19-0.503,3.239c-0.563,1.975-1.714,4.118-2.568,5.975
			c-0.832,1.799-1.54,3.689-1.874,5.648c-0.334,1.895-0.334,3.847-0.079,5.752c0.34,2.538,1.047,5.057,1.866,7.48
			c1.218,3.56,2.773,7.067,4.489,10.416c1.923,3.686,4.056,7.36,6.655,10.612c0.57,0.699,1.18,1.394,1.843,2.007
			c0.367,0.336,0.757,0.658,1.188,0.908l0.06,0.034c0,0,0.059,0.032,0.059,0.032l0.059,0.03l0.058,0.028l0.057,0.027l0.057,0.025
			c0.056,0.023,0.111,0.044,0.111,0.044c0.055,0.019,0.108,0.036,0.108,0.036c0.053,0.015,0.105,0.028,0.105,0.028
			c0.052,0.011,0.102,0.02,0.102,0.02c0.05,0.007,0.099,0.013,0.099,0.013c0.048,0.003,0.096,0.005,0.096,0.005
			c0.047-0.001,0.093-0.003,0.093-0.003c0.045-0.005,0.09-0.012,0.09-0.012c0.044-0.009,0.086-0.02,0.086-0.02
			c0.042-0.013,0.083-0.028,0.083-0.028c0.039-0.017,0.058-0.026,0.058-0.026c0.038-0.02,0.057-0.03,0.057-0.03
			c0.055-0.035,0.073-0.047,0.073-0.047c0.053-0.04,0.07-0.055,0.07-0.055c0.05-0.046,0.067-0.062,0.067-0.062
			c0.048-0.051,0.064-0.069,0.064-0.069c0.046-0.056,0.062-0.076,0.062-0.076c0.03-0.04,0.044-0.061,0.044-0.061
			c0.029-0.043,0.043-0.064,0.043-0.064c0.436-0.736,0.563-1.538,0.74-2.352c0.189-0.96,0.417-2.347,0.706-3.27
			c0.156-0.513,0.384-1.092,0.7-1.513c0.038-0.05,0.058-0.074,0.058-0.074c0.039-0.048,0.059-0.071,0.059-0.071
			c0.041-0.046,0.061-0.068,0.061-0.068c0.042-0.043,0.063-0.064,0.063-0.064c0.043-0.041,0.065-0.061,0.065-0.061
			c0.044-0.038,0.067-0.057,0.067-0.057c0.046-0.036,0.069-0.053,0.069-0.053c0.047-0.033,0.071-0.05,0.071-0.05
			c0.051-0.032,0.078-0.048,0.078-0.048c0.055-0.031,0.083-0.045,0.083-0.045c0.028-0.014,0.057-0.028,0.057-0.028
			c0.029-0.013,0.058-0.026,0.058-0.026c0.539-0.22,1.097-0.183,1.633-0.097c0.698,0.12,1.389,0.359,2.052,0.606
			c1.319,0.498,2.811,1.193,4.168,1.561c0.712,0.188,1.54,0.33,2.238,0.095c0.035-0.012,0.07-0.025,0.07-0.025
			c0.034-0.014,0.068-0.028,0.068-0.028c0.034-0.015,0.067-0.03,0.067-0.03c0.033-0.016,0.066-0.033,0.066-0.033
			c0.032-0.017,0.065-0.035,0.065-0.035c0.032-0.018,0.063-0.037,0.063-0.037c0.12-0.073,0.221-0.153,0.299-0.221
			c0.056-0.051,0.084-0.077,0.084-0.077c0.497-0.49,0.758-1.05,1.002-1.67c0.324-0.859,0.533-1.792,0.717-2.691
			c0.382-1.922,0.798-4.782,1.451-6.604c0.317-0.915,0.753-1.802,1.379-2.547c1.229-1.491,3.041-2.327,4.815-2.988
			c1.795-0.657,4.095-1.384,5.738-2.339c2.526-1.42,4.705-3.412,6.746-5.449l3.141-3.229c-0.885,2.854-1.939,5.718-3.2,8.429
			c-1.149,2.685-11.697,21.103-12.95,23.953c-0.385,0.945-0.661,1.943-0.847,2.945c-0.72,4.02-0.123,8.158,0.842,12.087
			c0.42,1.676,0.964,3.462,1.528,5.095c1.137,3.279,2.559,7.79,3.542,11.118c4.268,14.632,7.773,31.574,10.693,46.554
			c0.362,1.981,0.891,3.96,1.769,5.778c0.929,1.939,2.351,3.723,4.302,4.698c0.733,0.37,1.543,0.634,2.324,0.883
			c1.866,0.567,3.822,0.913,5.758,1.134c2.179,0.252,4.479,0.336,6.674,0.342c13.313-0.008,44.563,0.018,58.183-0.01
			c0.512-0.02,1.046-0.063,1.552-0.147c0.893-0.142,1.835-0.439,2.563-0.961c0.789-0.55,1.265-1.36,1.452-2.245
			c0.166-0.775,0.112-1.581,0.06-2.367c-0.195-2.494-1.006-4.921-2.183-7.12c-0.244-0.466-0.518-0.938-0.826-1.364
			c-0.375-0.518-0.809-0.997-1.286-1.423c-2.141-1.902-5.003-2.727-7.79-3.099c-4.481-0.559-9.604-1.312-14.029-2.158
			c-0.525-0.1-1.068-0.227-1.582-0.373c-1.406-0.401-2.769-0.995-3.997-1.791c-1.2-0.775-2.278-1.749-3.181-2.855
			c-0.838-1.018-1.528-2.172-2.133-3.341c-1.772-3.469-2.807-7.284-3.515-11.099c-1.264-6.805-1.002-13.867-0.635-20.748
			c0.341-4.995,0.719-10.511,1.619-15.437c0.996-5.497,2.624-10.955,5-16.018c1.399-2.984,3.073-5.866,4.991-8.546
			c16.246-22.834,28.48-49.09,40.264-74.447c0.065-0.021,0.122-0.037,0.149-0.044c0.056-0.014,0.075-0.018,0.075-0.018
			c0.056-0.012,0.075-0.016,0.075-0.016c0.056-0.01,0.075-0.012,0.075-0.012c0.056-0.007,0.075-0.009,0.075-0.009
			c0.056-0.005,0.075-0.006,0.075-0.006c0.056-0.002,0.075-0.002,0.075-0.002c0.056,0.001,0.075,0.002,0.075,0.002
			c0.056,0.004,0.075,0.006,0.075,0.006c0.056,0.008,0.075,0.011,0.075,0.011c0.038,0.007,0.056,0.011,0.056,0.011
			c0.038,0.009,0.057,0.014,0.057,0.014c0.038,0.011,0.057,0.016,0.057,0.016c0.038,0.013,0.057,0.019,0.057,0.019
			c0.038,0.014,0.057,0.022,0.057,0.022c0.038,0.017,0.057,0.025,0.057,0.025c0.038,0.019,0.066,0.033,0.066,0.033
			c0.056,0.032,0.085,0.048,0.085,0.048c0.618,0.408,1.006,0.991,1.417,1.578c1.53,2.328,2.861,5.149,4.666,7.283
			c1.049,1.249,2.448,2.469,4.113,2.622c0.721,0.069,1.45-0.051,2.139-0.26c0.974-0.298,1.895-0.768,2.77-1.286
			c3.433-2.027,6.8-5.389,10.212-7.447c0.688-0.394,1.478-0.783,2.261-0.884c0.053-0.006,0.105-0.011,0.105-0.011
			c0.052-0.004,0.103-0.007,0.103-0.007c0.051-0.002,0.102-0.003,0.102-0.003c0.05,0,0.1,0.001,0.1,0.001
			c0.05,0.002,0.099,0.005,0.099,0.005c0.049,0.004,0.097,0.01,0.097,0.01c0.048,0.007,0.095,0.014,0.095,0.014
			c0.047,0.009,0.094,0.019,0.094,0.019c0.035,0.008,0.07,0.017,0.07,0.017c0.034,0.009,0.069,0.02,0.069,0.02
			c0.034,0.011,0.068,0.022,0.068,0.022c0.033,0.012,0.067,0.025,0.067,0.025c0.033,0.013,0.066,0.027,0.066,0.027
			c0.033,0.014,0.065,0.029,0.065,0.029c0.237,0.112,0.438,0.264,0.603,0.417c0.056,0.053,0.084,0.081,0.084,0.081
			c0.532,0.547,0.854,1.169,1.166,1.845c0.504,1.097,1.147,3.16,1.55,4.319c0.419,1.14,0.854,2.378,1.683,3.286
			c0.054,0.055,0.081,0.082,0.081,0.082c0.055,0.052,0.082,0.077,0.082,0.077c0.056,0.049,0.084,0.073,0.084,0.073
			c0.056,0.045,0.083,0.066,0.083,0.066c0.055,0.041,0.083,0.061,0.083,0.061c0.538,0.376,1.156,0.483,1.772,0.474
			c0.687-0.013,1.377-0.16,2.044-0.318c1.94-0.479,4.031-1.146,6.043-0.887c1.135,0.134,2.21,0.588,3.198,1.148
			c2.087,1.176,4.4,3.268,6.295,4.746c0.815,0.627,1.669,1.255,2.59,1.714c0.744,0.372,1.62,0.644,2.42,0.497
			c1.089-0.214,1.862-0.998,2.563-1.784c1.018-1.172,2.075-2.846,3.054-4.051c0.832-1.011,1.869-2.147,3.218-2.336
			c0.051-0.006,0.101-0.012,0.101-0.012c0.051-0.004,0.102-0.008,0.102-0.008c0.75-0.04,1.433,0.187,2.063,0.476
			c0.759,0.355,1.468,0.835,2.136,1.337c1.705,1.266,4.567,4.081,6.162,5.541c1.098,0.992,2.251,1.994,3.487,2.81
			c0.779,0.512,1.616,0.96,2.516,1.216c1.377,0.408,2.843,0.341,4.249,0.129l1.954-0.308c1.357-0.205,2.778-0.269,4.098,0.169
			c2.451,0.799,4.748,2.727,7.006,3.925c0.565,0.298,1.158,0.57,1.778,0.73c0.578,0.158,1.247,0.18,1.787,0.004
			c1.37-0.434,2.416-1.632,3.471-2.534c0.702-0.618,1.514-1.251,2.391-1.538c0.688-0.226,1.369-0.239,2.064-0.151
			c0.855,0.112,1.69,0.381,2.491,0.692c2.669,1.056,5.705,2.905,8.397,3.902c3.143,1.195,6.536,1.623,9.878,1.788l4.627,0.166
			c-0.038,0.804-0.133,1.617-0.268,2.41c-0.164,0.915-0.374,1.848-0.489,2.771c-0.273,2.049-0.294,4.149,0.036,6.193
			c0.282,1.756,0.829,3.478,1.625,5.069c0.534,1.104,1.261,2.14,1.951,3.151c2.612,3.976,4.517,8.429,6.088,12.908
			c2.277,6.564,3.881,13.552,5.188,20.375c1.185,6.427,2.318,13.387,2.929,19.882c0.444,5.102,0.675,10.327-0.027,15.413
			c-0.205,1.575-0.657,3.123-0.833,4.702c-0.322,2.632-0.142,5.375,0.856,7.851c0.406,1.015,0.949,1.988,1.595,2.87
			c0.441,0.619,0.985,1.169,1.444,1.773c0.778,1.023,1.427,2.159,1.993,3.31c2.26,4.718,3.532,9.9,4.633,14.994
			c0.713,3.375,1.25,7.028,2.167,10.352c0.687,2.52,1.52,5.046,2.797,7.334c0.75,1.324,1.682,2.605,2.937,3.488
			c0.725,0.521,1.553,0.834,2.383,0.943c19.108,0.099,44.947,0.028,64.082,0.026c0.893-0.045,1.794-0.197,2.617-0.555
			c2.472-1.065,3.012-3.552,2.873-5.998c-0.241-3.471-1.252-7.503-4.586-9.229c-1.665-0.859-3.538-1.251-5.378-1.529
			c-1.841-0.275-3.778-0.368-5.638-0.453c-1.307-0.079-2.654-0.225-3.947-0.429c-3.959-0.605-7.807-1.873-11.468-3.48
			c-2.663-1.168-5.345-2.455-7.669-4.22c-0.719-0.569-1.123-1.295-1.494-2.095c-0.48-1.081-0.787-2.244-1.029-3.399
			c-0.533-2.614-0.749-5.334-0.879-7.996c-0.244-5.392-0.046-11.383,0.161-16.795c0.398-9.584,1.508-24.376,2.28-33.993
			c0.579-6.924,1.571-14.643,2.698-21.501c2.961-17.917,7.539-35.97,12.842-53.331c0.765,0.245,1.675,0.643,2.437,0.894
			c0.64,0.213,1.384,0.377,2.044,0.279c1.095-0.163,1.893-0.916,2.625-1.669c1.085-1.155,2.296-2.879,3.272-4.144
			c0.681-0.873,1.398-1.75,2.211-2.502c0.589-0.546,1.308-1.078,2.051-1.364c1.003-0.395,2.109-0.405,3.169-0.303
			c1.927,0.174,3.992,0.776,5.89,0.143c1.109-0.368,1.951-1.164,2.648-2.02c0.99-1.229,1.759-2.642,2.463-4.05
			c1.999-4.002,3.66-9.008,5.968-12.843c0.653-1.06,1.497-2.169,2.537-2.826c0.982-0.656,2.121-0.928,3.231-1.248
			c0.575-0.168,1.221-0.408,1.661-0.788c0.051-0.044,0.068-0.059,0.068-0.059c0.049-0.046,0.066-0.062,0.066-0.062
			c0.048-0.048,0.064-0.064,0.064-0.064c0.047-0.05,0.062-0.067,0.062-0.067c0.043-0.049,0.064-0.075,0.064-0.075
			c0.041-0.052,0.062-0.078,0.062-0.078c0.471-0.637,0.672-1.344,0.838-2.097c0.283-1.382,0.337-2.856,0.38-4.265
			c0.074-3.294-0.021-7.116,0.582-10.338c0.398-2.262,1.092-4.489,2.164-6.524c1.014-1.94,2.38-3.693,3.959-5.205
			c3.011-2.931,6.882-5.38,9.3-8.872c0.648-0.95,1.169-1.998,1.47-3.111c0.529-1.89,0.518-4.092,0.6-6.047
			c0.04-0.713,0.079-1.487,0.294-2.167c0.042-0.127,0.081-0.221,0.115-0.294c0.022-0.045,0.033-0.067,0.033-0.067
			c0.023-0.043,0.035-0.064,0.035-0.064c0.024-0.041,0.036-0.061,0.036-0.061c0.025-0.039,0.038-0.058,0.038-0.058
			c0.04-0.056,0.054-0.073,0.054-0.073c0.043-0.052,0.057-0.068,0.057-0.068c0.045-0.048,0.061-0.063,0.061-0.063
			c0.048-0.044,0.065-0.057,0.065-0.057c0.051-0.039,0.068-0.052,0.068-0.052c0.054-0.035,0.072-0.046,0.072-0.046
			c0.047-0.026,0.063-0.034,0.063-0.034c0.049-0.023,0.065-0.03,0.065-0.03c0.051-0.02,0.068-0.026,0.068-0.026
			c0.053-0.017,0.07-0.022,0.07-0.022c0.054-0.015,0.073-0.019,0.073-0.019c0.624-0.124,1.175,0.011,1.767,0.125
			c1.543,0.313,3.451,1.002,4.912,0.147c0.926-0.57,1.469-1.482,1.93-2.424c0.733-1.56,1.173-3.283,1.575-4.954
			c0.449-1.973,1.056-4.95,1.667-6.846c0.532-1.734,1.465-4.162,1.938-5.906c1.242-0.101,2.52-0.217,3.732-0.514
			c0.794-0.199,1.668-0.509,2.258-1.071c0.055-0.054,0.082-0.082,0.082-0.082c0.08-0.086,0.09-0.1,0.126-0.143
			c0.038-0.048,0.056-0.072,0.056-0.072c0.036-0.049,0.053-0.074,0.053-0.074c0.034-0.05,0.05-0.076,0.05-0.076
			c0.032-0.051,0.048-0.078,0.048-0.078c0.03-0.053,0.045-0.079,0.045-0.079c0.293-0.556,0.373-1.104,0.409-1.71
			c0.048-0.876-0.086-2.123-0.144-3.007c-0.052-0.941-0.093-1.992,0.317-2.858c0.026-0.053,0.04-0.079,0.04-0.079
			c0.028-0.052,0.043-0.078,0.043-0.078c0.03-0.051,0.046-0.076,0.046-0.076c0.032-0.049,0.048-0.074,0.048-0.074
			c0.034-0.048,0.051-0.072,0.051-0.072c0.036-0.047,0.056-0.072,0.056-0.072c0.042-0.05,0.063-0.075,0.063-0.075
			c0.044-0.048,0.067-0.072,0.067-0.072c0.046-0.047,0.07-0.07,0.07-0.07c0.049-0.045,0.073-0.068,0.073-0.068
			c0.051-0.044,0.077-0.066,0.077-0.066c0.473-0.382,0.966-0.588,1.523-0.782c1.006-0.347,2.546-0.603,3.6-0.818
			c1.208-0.26,2.592-0.519,3.574-1.303c0.051-0.044,0.077-0.066,0.077-0.066c0.049-0.045,0.073-0.068,0.073-0.068
			c0.047-0.047,0.07-0.07,0.07-0.07c0.045-0.048,0.067-0.073,0.067-0.073c0.042-0.05,0.063-0.075,0.063-0.075
			c0.04-0.051,0.059-0.077,0.059-0.077c0.037-0.051,0.054-0.078,0.054-0.078c0.034-0.053,0.051-0.08,0.051-0.08
			c0.032-0.054,0.047-0.082,0.047-0.082c0.458-0.867,0.4-1.837,0.305-2.773c-0.198-1.829-0.86-3.781-0.782-5.633
			c0.026-0.634,0.243-1.289,0.636-1.745c1.022-1.221,2.704-1.682,3.794-2.805c0.631-0.627,0.849-1.452,0.851-2.287
			c0.008-0.787-0.128-1.577-0.296-2.344c-0.422-1.929-1.295-4.338-1.64-6.282c-0.111-0.633-0.175-1.285-0.123-1.927
			c0.049-0.674,0.22-1.338,0.434-1.977c0.25-0.743,0.605-1.643,0.721-2.413c0.093-0.571,0.086-1.11,0.012-1.668
			c-0.111-0.834-0.352-1.655-0.633-2.446c-0.949-2.67-2.891-6.032-4.21-8.566c-1.191-2.313-2.368-4.891-1.916-7.554
			c0.234-1.404,0.874-2.711,1.525-3.963c0,0,1.628-3.004,1.628-3.004c0.994-1.895,1.897-3.92,2.049-6.081
			c0.114-1.598-0.159-3.206-0.605-4.737c-0.735-2.5-1.933-4.894-3.153-7.19l-3.995-7.28c-0.444-0.833-1.576-3.062-2.016-3.932
			c2.269-7.225,4.778-14.561,8.364-21.248c0.851-1.571,1.836-3.138,2.876-4.591c0.853-1.229,2.378-3.195,3.089-4.482
			c0.545-0.957,0.998-2.025,1.044-3.136c0.043-0.969-0.202-1.93-0.704-2.708c-0.459-0.721-1.158-1.255-1.922-1.509
			c-0.911-0.301-1.791-0.249-2.698-0.112c-1.126,0.183-2.233,0.537-3.301,0.933c-4.191,1.555-8.644,4.288-12.784,5.973
			c-0.872,0.343-1.79,0.646-2.695,0.887c-1.291,0.349-3.287,0.721-4.583,1.052c-0.267-0.544-0.565-1.086-0.926-1.573
			c-0.345-0.467-0.785-0.912-1.302-1.117c-0.642-0.258-1.28-0.194-1.926-0.095c-0.702,0.113-1.534,0.305-2.236,0.217
			c-0.689-0.084-1.239-0.388-1.794-0.738c-0.661-0.423-1.532-1.112-2.199-1.525c-0.771-0.491-1.677-0.873-2.576-0.814
			c-0.624,0.027-1.236,0.195-1.822,0.405c-0.957,0.327-2.628,1.184-3.562,1.612c-1.177,0.537-2.409,1.029-3.701,1.187
			c-1.673,0.203-3.361-0.142-4.974-0.565c-2.487-0.668-5.327-1.677-7.916-1.521c-2.366,0.097-4.891,0.855-7.23,1.18
			c-1.458,0.206-2.964,0.239-4.4-0.124c-4.044-1.025-7.383-3.979-11.299-5.327c-2.322-0.798-5.264-1.063-7.265,0.596
			c-0.701,0.588-1.15,1.258-1.54,2.053C522.502,178.868,522.24,179.825,522.106,180.789z"/>
	</g>
</g>
</svg>
