<?xml version="1.0" encoding="utf-8"?>
<!-- Generator: Adobe Illustrator 24.2.0, SVG Export Plug-In . SVG Version: 6.00 Build 0)  -->
<!DOCTYPE svg PUBLIC "-//W3C//DTD SVG 1.1//EN" "http://www.w3.org/Graphics/SVG/1.1/DTD/svg11.dtd" [
	<!ENTITY ns_flows "http://ns.adobe.com/Flows/1.0/">
	<!ENTITY ns_extend "http://ns.adobe.com/Extensibility/1.0/">
	<!ENTITY ns_ai "http://ns.adobe.com/AdobeIllustrator/10.0/">
	<!ENTITY ns_graphs "http://ns.adobe.com/Graphs/1.0/">
	<!ENTITY ns_vars "http://ns.adobe.com/Variables/1.0/">
	<!ENTITY ns_imrep "http://ns.adobe.com/ImageReplacement/1.0/">
	<!ENTITY ns_sfw "http://ns.adobe.com/SaveForWeb/1.0/">
	<!ENTITY ns_custom "http://ns.adobe.com/GenericCustomNamespace/1.0/">
	<!ENTITY ns_adobe_xpath "http://ns.adobe.com/XPath/1.0/">
]>
<svg version="1.1" xmlns:x="&ns_extend;" xmlns:i="&ns_ai;" xmlns:graph="&ns_graphs;"
	 xmlns="http://www.w3.org/2000/svg" xmlns:xlink="http://www.w3.org/1999/xlink" xmlns:a="http://ns.adobe.com/AdobeSVGViewerExtensions/3.0/"
	 x="0px" y="0px" width="750px" height="750px" viewBox="0 0 750 750" enable-background="new 0 0 750 750" xml:space="preserve">
<metadata>
	<sfw  xmlns="&ns_sfw;">
		<slices></slices>
		<sliceSourceBounds  bottomLeftOrigin="true" height="9296.003" width="6022.485" x="-3942.485" y="-895.699"></sliceSourceBounds>
	</sfw>
</metadata>
<g id="FILL-BACKGROUND">
	<rect fill="#FFFFFF" width="750" height="750"/>
</g>
<g id="N-TEXT">
</g>
<g id="N-DIMENSIONS">
</g>
<g id="AG-DIAGRAM">
	<g id="POLYLINE_674_">
		<g>
			<g>
				
					<line fill="none" stroke="#FB8604" stroke-width="3.25" stroke-linecap="round" stroke-linejoin="round" x1="144.46" y1="555.31" x2="146.46" y2="555.31"/>
				
					<line fill="none" stroke="#FB8604" stroke-width="3.25" stroke-linecap="round" stroke-linejoin="round" stroke-dasharray="3.9566,6.924" x1="153.384" y1="555.31" x2="541.625" y2="555.31"/>
				
					<line fill="none" stroke="#FB8604" stroke-width="3.25" stroke-linecap="round" stroke-linejoin="round" x1="545.087" y1="555.31" x2="547.087" y2="555.31"/>
			</g>
		</g>
	</g>
</g>
<g id="AG-DETAILS">
</g>
<g id="AG-ANIMALS">
	<g id="POLYLINE_735_">
		
			<path fill="none" stroke="#FB8604" stroke-width="2.75" stroke-linecap="round" stroke-linejoin="round" stroke-miterlimit="10" d="
			M475.871,301.169c-5.724,7.546-12.838,14.386-21.559,18.31c-5.546,2.483-11.614,3.637-17.65,4.06
			c-8.377,0.62-18.239-0.155-26.673-0.675c-20.383-1.375-52.53-3.439-72.465-5.888c-15.287-1.702-42.344-5.979-57.635-7.413
			c-9.824-0.919-19.956-1.465-29.813-0.876c-6.853,0.42-13.781,1.394-20.373,3.351c-13.132,3.835-24.523,12.142-33.927,21.902
			c-9.025,9.134-18.713,23.236-26.42,33.578c-2.354,3.11-5.133,6.633-7.657,9.588c-5.564,6.431-14.005,15.754-18.837,22.571
			c-3.71,5.134-7.075,10.62-9.65,16.413c-3.471,7.743-5.381,16.149-6.118,24.585c-0.359,4.361-0.44,8.798,0.106,13.147
			c0.299,2.127,0.699,4.417,1.756,6.298c0.08,0.131,0.12,0.195,0.12,0.195c0.082,0.123,0.123,0.183,0.123,0.183
			c0.083,0.115,0.126,0.17,0.126,0.17c0.085,0.107,0.129,0.158,0.129,0.158c0.087,0.098,0.132,0.145,0.132,0.145
			c0.134,0.132,0.18,0.173,0.18,0.173c0.122,0.102,0.152,0.126,0.152,0.126c0.124,0.09,0.155,0.111,0.155,0.111
			c0.126,0.079,0.158,0.097,0.158,0.097c0.128,0.069,0.16,0.085,0.16,0.085c0.13,0.06,0.162,0.074,0.162,0.074
			c0.131,0.052,0.164,0.064,0.164,0.064c0.132,0.045,0.199,0.065,0.199,0.065c0.133,0.037,0.2,0.054,0.2,0.054
			c0.401,0.097,0.765,0.145,1.125,0.208c0.192,0.035,0.319,0.064,0.38,0.078c0.123,0.032,0.154,0.04,0.154,0.04
			c0.121,0.037,0.15,0.047,0.15,0.047c0.118,0.043,0.147,0.054,0.147,0.054c0.143,0.063,0.171,0.076,0.171,0.076
			c0.137,0.075,0.164,0.091,0.164,0.091c0.132,0.088,0.157,0.108,0.157,0.108c0.125,0.104,0.15,0.126,0.15,0.126
			c0.12,0.122,0.151,0.157,0.151,0.157c0.091,0.112,0.12,0.151,0.12,0.151c0.086,0.124,0.114,0.167,0.114,0.167
			c0.081,0.136,0.108,0.184,0.108,0.184c0.052,0.098,0.077,0.148,0.077,0.148c0.049,0.104,0.074,0.157,0.074,0.157
			c0.36,0.846,0.49,1.523,0.648,2.359c0.172,0.978,0.294,2.096,0.39,3.087c0.554,6.827,0.998,14.379,2.76,20.986
			c1.09,4.253,2.777,8.367,4.825,12.246c1.845,3.478,3.983,6.841,6.45,9.912c1.52,1.837,3.302,3.913,5.334,5.075
			c0.109,0.057,0.163,0.083,0.163,0.083c0.106,0.05,0.159,0.073,0.159,0.073c0.103,0.043,0.154,0.063,0.154,0.063
			c0.1,0.036,0.149,0.053,0.149,0.053c0.143,0.042,0.19,0.054,0.19,0.054c0.136,0.028,0.18,0.035,0.18,0.035
			c0.129,0.014,0.171,0.016,0.171,0.016c0.121-0.001,0.16-0.003,0.16-0.003c0.113-0.015,0.15-0.023,0.15-0.023
			c0.139-0.043,0.172-0.057,0.172-0.057c0.135-0.076,0.145-0.082,0.145-0.082c0.139-0.118,0.147-0.127,0.147-0.127
			c0.106-0.126,0.122-0.147,0.122-0.147c0.087-0.135,0.101-0.159,0.101-0.159c0.065-0.124,0.078-0.15,0.078-0.15
			c0.059-0.133,0.082-0.188,0.082-0.188c0.043-0.112,0.064-0.17,0.064-0.17c0.148-0.421,0.295-1.082,0.392-1.403
			c0.031-0.102,0.047-0.151,0.047-0.151c0.05-0.138,0.059-0.16,0.059-0.16c0.063-0.14,0.073-0.159,0.073-0.159
			c0.092-0.141,0.098-0.148,0.098-0.148c0.136-0.109,0.151-0.115,0.151-0.115c0.131-0.025,0.149-0.025,0.149-0.025
			c0.129,0.024,0.149,0.031,0.149,0.031c0.143,0.066,0.165,0.079,0.165,0.079c0.134,0.089,0.157,0.107,0.157,0.107
			c0.144,0.119,0.168,0.141,0.168,0.141c0.127,0.121,0.18,0.174,0.18,0.174c0.108,0.114,0.163,0.174,0.163,0.174
			c0.508,0.576,0.806,1.007,1.222,1.592c1.61,2.352,4.612,7.134,6.25,9.415c2.722,3.872,5.811,7.537,9.262,10.779"/>
	</g>
	<g id="POLYLINE_317_">
		
			<path fill="none" stroke="#FB8604" stroke-width="2.75" stroke-linecap="round" stroke-linejoin="round" stroke-miterlimit="10" d="
			M467.562,287.944c2.287,2.599,5.54,5.628,7.006,8.783c0.821,1.699,1.231,3.573,1.433,5.44c0.401,3.545,0.249,8.971,0.297,12.581
			c0.083,4.16,0.297,8.454,1.778,12.385c2.252,6.072,7.045,10.148,13.016,12.384c7.26,2.722,15.802,3.426,23.101,6.024
			c3.261,1.131,6.31,2.871,9.177,4.776c3.632,2.388,7.661,5.516,11.783,6.932c3.649,1.257,7.746,1.669,11.477,0.537
			c1.305-0.398,2.542-1.065,3.493-1.873c1.436-1.197,2.65-2.83,3.965-4.114c0.946-0.923,1.738-1.551,2.778-2.161
			c1.377-0.787,2.755-1.284,4.231-1.794c5.248-1.724,11.262-3.31,15.063-7.544c2.244-2.477,3.722-5.552,4.897-8.654
			c1.945-5.04,3.586-13.044,4.869-18.382c0.743-3.026,1.563-6.16,2.744-9.036c1.692-4.219,4.23-8.119,7.56-11.227
			c3.763-3.565,8.871-6.432,12.754-9.858c2.059-1.773,3.972-3.768,5.698-5.864c4.018-4.888,7.434-10.336,10.458-15.886
			c3.14-5.819,5.918-11.928,8.052-18.189c2.428-7.087,3.936-14.524,4.685-21.973c0.411-4.236,0.734-8.695,0.726-12.951
			c-0.021-2.616-0.166-5.293-0.669-7.865c-0.377-1.996-1.086-4.168-2.162-5.843c-1.423-2.3-3.765-3.761-6.231-4.4
			c-2.924-0.757-5.888-0.513-8.729,0.365c-1.781,0.561-3.472,1.419-5.045,2.42c-3.048,1.95-5.759,4.452-8.339,6.975
			c-3.149,3.172-9.153,9.41-12.358,12.44c-3.854,3.702-15.321,13.713-19.479,17.411c-3.136,2.865-6.376,5.898-9.102,9.155
			c-1.807,2.067-4.073,5.45-6.458,6.78c-0.131,0.07-0.197,0.104-0.197,0.104c-0.132,0.065-0.199,0.096-0.199,0.096
			c-0.134,0.059-0.202,0.088-0.202,0.088c-0.136,0.054-0.204,0.08-0.204,0.08c-1.829,0.64-3.639,0.332-5.467,0.035
			c0,0-5.3-1.025-5.3-1.025c-4.476-0.826-9.137-0.99-13.682-0.989c-7.029-0.018-14.588,0.608-21.562,1.089
			c-0.182-0.001-0.295-0.007-0.354-0.01c-0.111-0.009-0.165-0.014-0.165-0.014c-0.106-0.013-0.159-0.021-0.159-0.021
			c-0.128-0.023-0.153-0.028-0.153-0.028c-0.123-0.029-0.148-0.035-0.148-0.035c-0.143-0.043-0.167-0.051-0.167-0.051
			c-0.139-0.053-0.162-0.063-0.162-0.063c-0.137-0.064-0.159-0.076-0.159-0.076c-0.135-0.076-0.158-0.089-0.158-0.089
			c-0.135-0.088-0.157-0.104-0.157-0.104c-0.113-0.083-0.158-0.119-0.158-0.119c-0.137-0.115-0.187-0.159-0.187-0.159
			c-0.1-0.093-0.151-0.141-0.151-0.141c-0.874-0.881-1.399-1.71-2.064-2.674c-0.033,0.003-3.48-5.442-3.659-5.707
			c-2.142-3.308-4.539-6.574-7.132-9.542c-5.87-6.742-12.689-12.806-19.709-18.328c-5.819-4.463-11.919-8.957-18.427-12.362
			c-2.232-1.134-4.573-2.141-7.019-2.709c-1.654-0.379-3.384-0.548-5.069-0.282c-1.114,0.155-2.388,0.642-3.278,1.185
			c-1.536,0.904-2.751,2.198-3.715,3.504c-1.835,2.537-2.953,5.347-3.785,8.325c-1.348,4.945-1.657,10.144-1.327,15.245
			c0.427,6.5,1.88,12.959,3.875,19.15c2.957,9.126,7.222,17.856,12.164,26.064C456.42,273.762,461.671,281.261,467.562,287.944z"/>
	</g>
	<g id="POLYLINE_293_">
		
			<path fill="none" stroke="#FB8604" stroke-width="2.75" stroke-linecap="round" stroke-linejoin="round" stroke-miterlimit="10" d="
			M543.645,329.333c-1.646-0.724-3.388-0.977-5.165-0.986c-1.951,0.009-4.124,0.405-5.702,1.521
			c-0.141,0.104-0.211,0.157-0.211,0.157c-0.135,0.109-0.201,0.165-0.201,0.165c-0.129,0.115-0.191,0.174-0.191,0.174
			c-0.117,0.116-0.171,0.172-0.171,0.172c-0.106,0.115-0.157,0.174-0.157,0.174c-0.1,0.12-0.149,0.181-0.149,0.181
			c-0.094,0.124-0.14,0.187-0.14,0.187c-0.089,0.128-0.131,0.193-0.131,0.193c-0.083,0.132-0.122,0.199-0.122,0.199
			c-0.077,0.136-0.114,0.205-0.114,0.205c-0.071,0.139-0.105,0.21-0.105,0.21c-0.984,2.102-0.687,4.618,0.461,6.503
			c0.09,0.143,0.136,0.214,0.136,0.214c0.095,0.14,0.144,0.209,0.144,0.209c0.101,0.136,0.153,0.204,0.153,0.204
			c0.106,0.133,0.161,0.198,0.161,0.198c0.112,0.129,0.169,0.192,0.169,0.192c0.117,0.125,0.177,0.186,0.177,0.186
			c0.122,0.121,0.185,0.18,0.185,0.18c2.902,2.709,8.935,3.107,12.249,1.168c0.144-0.09,0.214-0.136,0.214-0.136
			c0.117-0.081,0.165-0.116,0.165-0.116c0.14-0.106,0.185-0.142,0.185-0.142c0.132-0.111,0.175-0.148,0.175-0.148
			c0.125-0.115,0.165-0.154,0.165-0.154c0.117-0.119,0.155-0.159,0.155-0.159c0.11-0.123,0.146-0.164,0.146-0.164
			c0.103-0.127,0.136-0.169,0.136-0.169c0.096-0.13,0.127-0.174,0.127-0.174c0.09-0.133,0.118-0.178,0.118-0.178
			c0.083-0.137,0.11-0.183,0.11-0.183c0.077-0.14,0.101-0.187,0.101-0.187c0.659-1.295,0.728-2.736,0.599-4.054
			c-0.123-1.193-0.409-2.329-0.97-3.285c-0.077-0.127-0.103-0.169-0.103-0.169c-0.081-0.124-0.109-0.165-0.109-0.165
			c-0.086-0.122-0.115-0.162-0.115-0.162c-0.091-0.119-0.122-0.159-0.122-0.159c-0.096-0.117-0.129-0.155-0.129-0.155
			c-0.101-0.114-0.135-0.151-0.135-0.151c-0.106-0.111-0.142-0.148-0.142-0.148c-0.112-0.108-0.15-0.144-0.15-0.144
			c-0.117-0.105-0.157-0.14-0.157-0.14c-0.123-0.102-0.164-0.136-0.164-0.136c-0.128-0.099-0.172-0.132-0.172-0.132
			c-0.134-0.096-0.18-0.127-0.18-0.127C544.245,329.624,544.03,329.515,543.645,329.333z"/>
	</g>
	<g id="POLYLINE_292_">
		
			<path fill="none" stroke="#FB8604" stroke-width="2.75" stroke-linecap="round" stroke-linejoin="round" stroke-miterlimit="10" d="
			M398.9,409.179c-3.614,6.838-7.226,14.064-10.031,21.266c-1.438,3.745-2.762,7.625-3.493,11.573
			c-0.331,1.85-0.545,3.753-0.409,5.632c0.772,7.733,0.63,15.776,0.251,23.537c-0.733,13.307-2.32,28.499-3.93,41.747
			c-0.765,6.44-1.556,13.54-1.717,20.012c-0.042,2.122-0.035,4.319,0.204,6.43c0.213,1.711,0.671,3.599,1.054,5.278
			c0.411,1.703,0.898,3.48,1.472,5.136c0.358,1.01,0.79,2.263,1.424,3.064c0.112,0.144,0.15,0.191,0.15,0.191
			c0.117,0.138,0.157,0.183,0.157,0.183c0.122,0.132,0.164,0.175,0.164,0.175c0.127,0.126,0.17,0.168,0.17,0.168
			c0.132,0.121,0.177,0.16,0.177,0.16c0.138,0.115,0.184,0.152,0.184,0.152c1.461,1.135,3.172,1.415,4.881,1.428
			c7.778-0.056,22.049,0.112,29.835-0.065c1.536-0.124,3.303-0.6,4.472-1.533c0.103-0.082,0.154-0.124,0.154-0.124
			c0.099-0.085,0.148-0.128,0.148-0.128c0.143-0.133,0.189-0.178,0.189-0.178c0.136-0.139,0.18-0.186,0.18-0.186
			c0.086-0.096,0.128-0.145,0.128-0.145c0.083-0.099,0.123-0.15,0.123-0.15c0.079-0.102,0.118-0.154,0.118-0.154
			c0.075-0.106,0.112-0.159,0.112-0.159c0.072-0.109,0.107-0.164,0.107-0.164c0.068-0.112,0.101-0.168,0.101-0.168
			c0.596-1.069,0.86-2.244,1.068-3.322c0.492-2.696-0.146-5.607-2.1-7.455c-1.674-1.63-3.758-2.328-5.853-2.995
			c-2.652-0.846-5.501-1.539-8.232-2.09c-0.589-0.118-1.185-0.281-1.746-0.497c-0.942-0.363-1.735-0.858-2.36-1.464
			c-0.143-0.143-0.189-0.192-0.189-0.192c-0.091-0.099-0.135-0.149-0.135-0.149c-0.087-0.102-0.13-0.154-0.13-0.154
			c-0.083-0.105-0.124-0.158-0.124-0.158c-0.08-0.108-0.118-0.163-0.118-0.163c-0.076-0.111-0.113-0.167-0.113-0.167
			c-0.944-1.456-1.086-2.987-1.114-4.607c-0.017-1.867,0.212-3.754,0.54-5.589c0.988-5.364,2.795-10.626,4.85-15.668
			c3.791-9.301,8.809-18.464,12.856-27.656c1.377-3.059,3.181-7.257,4.467-10.352c1.203-2.885,2.511-6.303,3.871-9.09
			c2.05-4.239,4.404-8.456,7.698-11.861c2.923-3.037,6.862-4.848,10.826-6.115c2.619-0.83,5.37-1.445,8.076-1.911
			c1.94-0.332,4.011-0.585,5.945-0.955c3.957-0.736,7.914-1.788,11.714-3.113c8.199-2.872,15.972-7.036,22.952-12.203
			c2.618-1.952,5.166-4.109,7.509-6.384c1.904-1.843,3.813-3.954,5.575-5.933c5.104-5.769,9.967-12.157,14.384-18.472
			c7.164-10.265,16.052-21.424,23.98-31.153c3.898-4.724,8.603-10.349,12.815-14.804"/>
	</g>
	<g id="POLYLINE_291_">
		
			<path fill="none" stroke="#FB8604" stroke-width="2.75" stroke-linecap="round" stroke-linejoin="round" stroke-miterlimit="10" d="
			M211.328,411.637c-2.577,9.552-5.938,21.297-7.818,30.932c-0.206,1.097-0.328,2.228-0.601,3.308
			c-0.303,1.247-0.736,2.474-1.28,3.636c-0.937,2.009-2.219,3.855-3.706,5.495c-1.076,1.197-2.375,2.343-3.594,3.399
			c-3.359,2.912-7.055,5.719-10.715,8.251c-1.359,0.929-3.11,2.036-4.306,3.145c-1.338,1.204-2.509,2.613-3.436,4.157
			c-1.115,1.849-1.891,3.904-2.364,6.007c-0.417,1.779-0.575,3.696-0.661,5.521c-0.369,7.145-0.174,14.717,0.163,21.869
			c0.567,11.335,1.658,23.058,3.584,34.245c0.412,2.348,0.969,4.716,1.864,6.931c0.778,1.933,1.922,3.893,3.482,5.157
			c1.081,0.913,2.378,1.407,3.661,1.566c9.709,0.15,28.468,0.004,38.13,0.054c0.703,0.023,1.447-0.114,2.008-0.276
			c0.123-0.039,0.184-0.06,0.184-0.06c0.12-0.043,0.18-0.066,0.18-0.066c0.117-0.047,0.175-0.072,0.175-0.072
			c0.114-0.051,0.171-0.078,0.171-0.078c0.111-0.055,0.166-0.084,0.166-0.084c0.108-0.059,0.162-0.09,0.162-0.09
			c0.105-0.063,0.157-0.096,0.157-0.096c0.102-0.067,0.153-0.102,0.153-0.102c0.099-0.071,0.148-0.107,0.148-0.107
			c0.144-0.113,0.191-0.152,0.191-0.152c0.138-0.121,0.183-0.163,0.183-0.163c0.132-0.129,0.175-0.173,0.175-0.173
			c0.126-0.137,0.167-0.184,0.167-0.184c0.081-0.096,0.12-0.145,0.12-0.145c0.078-0.1,0.116-0.151,0.116-0.151
			c0.075-0.104,0.111-0.157,0.111-0.157c0.072-0.108,0.107-0.163,0.107-0.163c0.888-1.462,1.1-2.95,1.216-4.577
			c0.15-2.608-0.436-5.227-1.515-7.597c-0.708-1.549-1.604-3.032-2.573-4.431c-1.057-1.499-2.405-3.062-3.95-3.942
			c-1.35-0.744-2.715-0.982-4.14-1.189c-1.872-0.244-3.827-0.28-5.714-0.253c-1.576,0.049-3.213,0.08-4.777-0.138
			c-1.102-0.144-2.409-0.474-3.313-1.018c-0.105-0.063-0.156-0.096-0.156-0.096c-0.1-0.066-0.15-0.099-0.15-0.099
			c-0.143-0.103-0.189-0.138-0.189-0.138c-0.134-0.108-0.177-0.145-0.177-0.145c-0.125-0.113-0.166-0.151-0.166-0.151
			c-0.116-0.118-0.154-0.158-0.154-0.158c-0.108-0.123-0.142-0.165-0.142-0.165c-0.099-0.128-0.13-0.171-0.13-0.171
			c-0.09-0.133-0.118-0.178-0.118-0.178c-0.081-0.138-0.107-0.184-0.107-0.184c-0.072-0.143-0.095-0.191-0.095-0.191
			c-0.389-0.899-0.548-1.655-0.747-2.542c-0.266-1.254-0.465-2.679-0.628-3.956c-0.747-6.481-1.085-13.329-1.244-19.851
			c-0.03-2.468-0.034-5.167,0.153-7.621c0.047-0.611,0.133-1.237,0.257-1.838c0.386-1.887,1.199-3.686,2.352-5.228
			c1.078-1.428,2.282-2.561,3.668-3.531c1.246-0.847,2.626-1.543,3.991-2.178c6.581-2.966,13.877-5.057,20.815-7.048"/>
	</g>
	<g id="POLYLINE_290_">
		
			<path fill="none" stroke="#FB8604" stroke-width="2.75" stroke-linecap="round" stroke-linejoin="round" stroke-miterlimit="10" d="
			M431.765,458.265c3.142,12.784,6.851,27.038,10.697,39.612c2.588,8.494,5.637,17.114,9.158,25.264
			c2.382,5.545,5.072,11.193,8.071,16.431c1.511,2.604,3.16,5.315,4.968,7.72c1.642,2.169,3.471,4.257,5.68,5.863
			c1.61,1.171,3.517,2.051,5.431,2.145c8.042,0.016,23.778,0.016,31.771,0.007c0.792-0.023,1.419-0.164,2.045-0.407
			c0.144-0.061,0.191-0.082,0.191-0.082c0.14-0.066,0.186-0.089,0.186-0.089c0.137-0.072,0.182-0.097,0.182-0.097
			c0.133-0.078,0.177-0.104,0.177-0.104c0.13-0.083,0.173-0.112,0.173-0.112c0.126-0.089,0.168-0.119,0.168-0.119
			c0.123-0.094,0.163-0.127,0.163-0.127c0.12-0.1,0.159-0.134,0.159-0.134c0.116-0.105,0.154-0.141,0.154-0.141
			c0.113-0.111,0.15-0.149,0.15-0.149c0.109-0.117,0.145-0.156,0.145-0.156c0.106-0.122,0.14-0.164,0.14-0.164
			c0.102-0.128,0.136-0.171,0.136-0.171c0.099-0.133,0.131-0.179,0.131-0.179c2.26-3.354,1.672-7.529,0.218-11
			c-0.909-2.196-2.313-4.283-4.39-5.301c-1.293-0.602-2.51-0.827-3.866-1.074c-1.871-0.309-3.835-0.447-5.73-0.519
			c-2.012-0.052-4.084-0.045-6.063-0.452c-1.771-0.335-3.723-1.062-5.005-2.248c-0.142-0.132-0.188-0.177-0.188-0.177
			c-0.135-0.137-0.179-0.183-0.179-0.183c-0.989-1.107-1.573-2.189-2.257-3.428c-0.986-1.837-1.922-3.935-2.75-5.853
			c-1.434-3.447-3.059-7.418-4.216-10.96c-1.035-3.197-1.869-6.539-2.469-9.845c-0.968-5.331-1.382-10.808-1.317-16.223
			c0.154-8.282,0.318-17.367,1.301-25.565c0.394-2.576,1.336-4.802,2.697-6.964c1.675-2.63,3.877-4.904,6.255-6.907
			c2.001-1.711,4.364-3.243,6.489-4.798c2.886-2.12,5.807-4.404,8.335-6.944c1.242-1.267,2.446-2.629,3.311-4.187l1.673-3.131
			l8.684-16.976"/>
	</g>
	<g id="POLYLINE_192_">
		
			<path fill="none" stroke="#FB8604" stroke-width="2.75" stroke-linecap="round" stroke-linejoin="round" stroke-miterlimit="10" d="
			M306.41,438.915c7.579,3.513,18.002,8.542,25.651,11.631c3.06,1.21,6.25,2.27,9.439,3.086c3.393,0.903,6.935,1.275,10.443,1.148
			c0.976-0.034,2.009-0.108,2.98-0.212c3.725-0.441,9.289-1.135,12.963-1.696c5.377-0.703,11.953-1.112,17.386-1.488"/>
	</g>
	<g id="POLYLINE_191_">
		
			<path fill="none" stroke="#FB8604" stroke-width="2.75" stroke-linecap="round" stroke-linejoin="round" stroke-miterlimit="10" d="
			M204.393,347.451c-2.484,17.081-4.252,39.132,2.543,55.328c0.557,1.469,4.733,9.461,5.532,11.07c2.888,5.487,6.28,12.1,9.529,17.3
			c2.361,3.955,3.909,8.373,5.139,12.796c2.237,8.461,3.707,17.257,3.723,26.024c0.034,5.687-0.977,11.428-3.302,16.637
			c-0.373,0.845-0.829,1.774-1.265,2.588c-0.54,0.969-1.073,1.984-1.477,3.018c-0.591,1.484-0.999,3.061-1.128,4.656
			c-0.139,1.7,0.043,3.4,0.508,4.974c0.302,1.031,0.728,2.043,1.238,2.988c2.447,4.411,5.381,8.972,8.175,13.176
			c4.781,7.063,10.155,14.764,15.452,21.427c3.004,3.737,6.231,7.62,9.653,10.98c0.965,0.937,2.159,2.08,3.281,2.694
			c0.992,0.579,2.073,1.015,3.175,1.335c1.636,0.477,3.35,0.711,5.049,0.813c2.244,0.12,21.558,0.032,23.849,0.048
			c2.615-0.04,5.425-0.103,8.028-0.369c1.864-0.211,4.007-0.444,5.673-1.255c0.098-0.053,0.145-0.079,0.145-0.079
			c0.137-0.083,0.181-0.112,0.181-0.112c0.13-0.091,0.172-0.122,0.172-0.122c0.122-0.098,0.162-0.133,0.162-0.133
			c0.115-0.106,0.152-0.143,0.152-0.143c0.108-0.114,0.143-0.153,0.143-0.153c0.101-0.121,0.133-0.163,0.133-0.163
			c0.093-0.129,0.123-0.173,0.123-0.173c0.086-0.137,0.113-0.184,0.113-0.184c0.053-0.096,0.079-0.145,0.079-0.145
			c0.049-0.099,0.073-0.15,0.073-0.15c0.046-0.103,0.068-0.156,0.068-0.156c0.042-0.107,0.062-0.162,0.062-0.162
			c0.039-0.111,0.057-0.167,0.057-0.167c0.035-0.115,0.051-0.173,0.051-0.173c0.031-0.119,0.046-0.179,0.046-0.179
			c0.363-1.674,0.097-3.27-0.248-4.889c-0.396-1.725-0.945-3.439-1.764-5.012c-1.099-2.159-2.828-4.088-4.876-5.254
			c-2.425-1.379-5.215-2.006-7.965-2.324c-1.824-0.201-3.705-0.251-5.539-0.203c-2.291,0.071-4.937,0.303-7.232,0.36
			c-1.727,0.03-3.617,0.111-5.313-0.18c-0.119-0.025-0.156-0.034-0.156-0.034c-0.142-0.037-0.175-0.046-0.175-0.046
			c-0.123-0.04-0.152-0.05-0.152-0.05c-0.136-0.058-0.15-0.065-0.15-0.065c-0.132-0.073-0.163-0.091-0.163-0.091
			c-0.129-0.084-0.162-0.108-0.162-0.108c-0.86-0.658-1.44-1.323-2.129-2.097c-1.241-1.429-2.639-3.244-3.784-4.771
			c-3.547-4.77-7.018-9.851-9.928-15.031c-1.288-2.313-2.601-4.697-3.395-7.231c-0.767-2.37-1.165-4.878-1.046-7.371
			c0.109-2.323,0.679-4.626,1.467-6.808c1.644-4.458,4.458-8.456,7.919-11.692c2.98-2.8,6.388-5.265,9.793-7.526
			c3.214-2.118,6.756-4.147,9.927-6.331c4.435-3.044,8.785-6.403,12.376-10.428c4.415-5.016,7.675-10.983,10.434-17.037
			c3.709-8.11,6.133-17.006,5.802-25.978c-0.177-3.695-0.908-7.39-1.855-10.959c-1.467-5.493-3.568-10.943-5.825-16.158"/>
	</g>
</g>
<g id="AG-OUTLINE">
	<g id="POLYLINE_138_">
		
			<path fill="none" stroke="#FB8604" stroke-width="3.5" stroke-linecap="round" stroke-linejoin="round" stroke-miterlimit="10" d="
			M175.833,536.882c0.551,3.425,1.023,7.111,2.158,10.393c0.558,1.654,1.398,3.479,2.428,4.819c0.975,1.296,2.229,2.311,3.662,2.811
			c0.682,0.244,1.366,0.354,1.979,0.392c0.2,0.018,0.384,0.008,0.468,0.013c0,0,19.94,0,19.94,0h17.266
			c0.044-0.001,0.292-0.003,0.302-0.005c0.643-0.018,1.216-0.125,1.706-0.271c0.123-0.039,0.184-0.06,0.184-0.06
			c0.12-0.043,0.18-0.066,0.18-0.066c0.117-0.047,0.175-0.072,0.175-0.072c0.114-0.051,0.171-0.078,0.171-0.078
			c0.111-0.055,0.166-0.084,0.166-0.084c0.108-0.059,0.162-0.09,0.162-0.09c0.105-0.063,0.157-0.096,0.157-0.096
			c0.102-0.067,0.153-0.102,0.153-0.102c0.099-0.071,0.148-0.107,0.148-0.107c0.144-0.113,0.191-0.152,0.191-0.152
			c0.138-0.121,0.183-0.163,0.183-0.163c0.132-0.129,0.175-0.173,0.175-0.173c0.126-0.137,0.167-0.184,0.167-0.184
			c0.081-0.096,0.12-0.145,0.12-0.145c0.078-0.1,0.116-0.151,0.116-0.151c0.075-0.104,0.111-0.157,0.111-0.157
			c0.072-0.108,0.107-0.163,0.107-0.163c0.888-1.462,1.1-2.95,1.216-4.577c0.15-2.608-0.436-5.227-1.515-7.597
			c-0.708-1.549-1.604-3.032-2.573-4.431c-1.057-1.499-2.405-3.062-3.95-3.942c-1.35-0.744-2.715-0.982-4.14-1.189
			c-1.872-0.244-3.827-0.28-5.714-0.253c-1.576,0.049-3.213,0.08-4.777-0.138c-1.102-0.144-2.409-0.474-3.313-1.018
			c-0.105-0.063-0.156-0.096-0.156-0.096c-0.1-0.066-0.15-0.099-0.15-0.099c-0.143-0.103-0.189-0.138-0.189-0.138
			c-0.134-0.108-0.177-0.145-0.177-0.145c-0.125-0.113-0.166-0.151-0.166-0.151c-0.116-0.118-0.154-0.158-0.154-0.158
			c-0.108-0.123-0.142-0.165-0.142-0.165c-0.099-0.128-0.13-0.171-0.13-0.171c-0.09-0.133-0.118-0.178-0.118-0.178
			c-0.081-0.138-0.107-0.184-0.107-0.184c-0.072-0.143-0.095-0.191-0.095-0.191c-0.389-0.899-0.548-1.655-0.747-2.542
			c-0.266-1.254-0.465-2.679-0.628-3.956c-0.747-6.481-1.085-13.329-1.244-19.851c-0.03-2.468-0.034-5.167,0.153-7.621
			c0.047-0.611,0.133-1.237,0.257-1.838c0.386-1.887,1.199-3.686,2.352-5.228c1.078-1.428,2.282-2.561,3.668-3.531
			c1.246-0.847,2.626-1.543,3.991-2.178c6.581-2.966,13.877-5.057,20.815-7.048c-0.315,3.524-1.089,7.031-2.343,10.341
			c-0.524,1.386-1.153,2.785-1.839,4.098c-0.408,0.788-0.885,1.585-1.247,2.394c-1.093,2.335-1.741,4.993-1.582,7.572
			c0.127,2.186,0.756,4.148,1.769,6.046c4.99,8.884,11.226,17.778,17.162,26.066c4.298,5.891,8.911,11.868,13.872,17.216
			c1.402,1.469,2.954,3.117,4.542,4.35c0.988,0.721,1.821,1.126,2.907,1.56c1.578,0.604,3.256,0.942,4.932,1.122
			c1.078,0.114,2.228,0.166,3.312,0.166c6.016-0.086,23.11,0.231,28.903-0.282c1.345-0.113,2.746-0.264,4.071-0.526
			c0.874-0.165,1.899-0.445,2.635-0.823c0.098-0.053,0.145-0.079,0.145-0.079c0.137-0.083,0.181-0.112,0.181-0.112
			c0.13-0.091,0.172-0.122,0.172-0.122c0.122-0.098,0.162-0.133,0.162-0.133c0.115-0.106,0.152-0.143,0.152-0.143
			c0.108-0.114,0.143-0.153,0.143-0.153c0.101-0.121,0.133-0.163,0.133-0.163c0.093-0.129,0.123-0.173,0.123-0.173
			c0.086-0.137,0.113-0.184,0.113-0.184c0.053-0.096,0.079-0.145,0.079-0.145c0.049-0.099,0.073-0.15,0.073-0.15
			c0.046-0.103,0.068-0.156,0.068-0.156c0.042-0.107,0.062-0.162,0.062-0.162c0.039-0.111,0.057-0.167,0.057-0.167
			c0.035-0.115,0.051-0.173,0.051-0.173c0.031-0.119,0.046-0.179,0.046-0.179c0.363-1.674,0.097-3.27-0.248-4.889
			c-0.396-1.725-0.945-3.439-1.764-5.012c-1.099-2.159-2.828-4.088-4.876-5.254c-2.425-1.379-5.215-2.006-7.965-2.324
			c-1.824-0.201-3.705-0.251-5.539-0.203c-2.291,0.071-4.937,0.303-7.232,0.36c-1.727,0.03-3.617,0.111-5.313-0.18
			c-0.119-0.025-0.156-0.034-0.156-0.034c-0.142-0.037-0.175-0.046-0.175-0.046c-0.123-0.04-0.152-0.05-0.152-0.05
			c-0.136-0.058-0.15-0.065-0.15-0.065c-0.132-0.073-0.163-0.091-0.163-0.091c-0.129-0.084-0.162-0.108-0.162-0.108
			c-0.696-0.527-1.124-0.994-1.676-1.589c-0.772-0.838-1.594-1.866-2.308-2.76c-3.117-3.999-6.237-8.388-8.945-12.673
			c-1.366-2.173-2.744-4.514-3.954-6.777c-1.114-2.047-2.092-4.212-2.687-6.469c-0.564-2.095-0.827-4.284-0.699-6.452
			c0.156-2.541,0.832-5.051,1.772-7.409c1.268-3.128,3.129-6.02,5.348-8.557c3.462-3.863,7.751-6.971,12.047-9.841
			c2.749-1.82,5.839-3.607,8.586-5.431c4.921-3.28,9.763-6.904,13.718-11.328c3.967-4.499,6.998-9.793,9.577-15.186
			c7.579,3.513,18.002,8.542,25.651,11.631c3.06,1.21,6.25,2.27,9.439,3.086c3.393,0.903,6.935,1.275,10.443,1.148
			c0.976-0.034,2.009-0.108,2.98-0.212c3.725-0.441,9.289-1.135,12.963-1.696c5.377-0.703,11.953-1.112,17.386-1.488
			c0.423,6.681,0.259,13.717-0.087,20.407c-0.53,9.479-1.655,21.392-2.69,30.854c-1.05,9.375-2.587,20.123-2.903,29.501
			c-0.062,2.125-0.075,4.325,0.103,6.444c0.078,1.189,0.373,2.616,0.62,3.786c0.302,1.423,0.664,2.959,1.048,4.362
			c0.324,1.178,0.713,2.449,1.133,3.597c0.301,0.84,0.713,1.875,1.229,2.518c0.112,0.144,0.15,0.191,0.15,0.191
			c0.117,0.138,0.157,0.183,0.157,0.183c0.122,0.132,0.164,0.175,0.164,0.175c0.127,0.126,0.17,0.168,0.17,0.168
			c0.132,0.121,0.177,0.16,0.177,0.16c0.138,0.115,0.184,0.152,0.184,0.152c1.461,1.135,3.172,1.415,4.881,1.428
			c7.778-0.056,22.049,0.112,29.835-0.065c1.536-0.124,3.303-0.6,4.472-1.533c0.103-0.082,0.154-0.124,0.154-0.124
			c0.099-0.085,0.148-0.128,0.148-0.128c0.143-0.133,0.189-0.178,0.189-0.178c0.136-0.139,0.18-0.186,0.18-0.186
			c0.086-0.096,0.128-0.145,0.128-0.145c0.083-0.099,0.123-0.15,0.123-0.15c0.079-0.102,0.118-0.154,0.118-0.154
			c0.075-0.106,0.112-0.159,0.112-0.159c0.072-0.109,0.107-0.164,0.107-0.164c0.068-0.112,0.101-0.168,0.101-0.168
			c0.596-1.069,0.86-2.244,1.068-3.322c0.492-2.696-0.146-5.607-2.1-7.455c-1.674-1.63-3.758-2.328-5.853-2.995
			c-2.652-0.846-5.501-1.539-8.232-2.09c-0.589-0.118-1.185-0.281-1.746-0.497c-0.942-0.363-1.735-0.858-2.36-1.464
			c-0.143-0.143-0.189-0.192-0.189-0.192c-0.091-0.099-0.135-0.149-0.135-0.149c-0.087-0.102-0.13-0.154-0.13-0.154
			c-0.083-0.105-0.124-0.158-0.124-0.158c-0.08-0.108-0.118-0.163-0.118-0.163c-0.076-0.111-0.113-0.167-0.113-0.167
			c-0.907-1.412-1.076-2.868-1.112-4.433c-0.03-1.624,0.136-3.275,0.387-4.877c0.775-4.734,2.244-9.41,3.946-13.888
			c2.558-6.718,5.91-13.548,9.091-19.998c3.207-6.621,6.471-13.879,9.285-20.676c1.484-3.648,3.099-7.725,4.923-11.21
			c3.142,12.784,6.851,27.038,10.697,39.612c2.588,8.494,5.637,17.114,9.158,25.264c2.382,5.545,5.072,11.193,8.071,16.431
			c1.511,2.604,3.16,5.315,4.968,7.72c1.642,2.169,3.471,4.257,5.68,5.863c1.61,1.171,3.517,2.051,5.431,2.145
			c8.042,0.016,23.778,0.016,31.771,0.007c0.792-0.023,1.419-0.164,2.045-0.407c0.144-0.061,0.191-0.082,0.191-0.082
			c0.14-0.066,0.186-0.089,0.186-0.089c0.137-0.072,0.182-0.097,0.182-0.097c0.133-0.078,0.177-0.104,0.177-0.104
			c0.13-0.083,0.173-0.112,0.173-0.112c0.126-0.089,0.168-0.119,0.168-0.119c0.123-0.094,0.163-0.127,0.163-0.127
			c0.12-0.1,0.159-0.134,0.159-0.134c0.116-0.105,0.154-0.141,0.154-0.141c0.113-0.111,0.15-0.149,0.15-0.149
			c0.109-0.117,0.145-0.156,0.145-0.156c0.106-0.122,0.14-0.164,0.14-0.164c0.102-0.128,0.136-0.171,0.136-0.171
			c0.099-0.133,0.131-0.179,0.131-0.179c2.26-3.354,1.672-7.529,0.218-11c-0.909-2.196-2.313-4.283-4.39-5.301
			c-1.293-0.602-2.51-0.827-3.866-1.074c-1.871-0.309-3.835-0.447-5.73-0.519c-2.012-0.052-4.084-0.045-6.063-0.452
			c-1.771-0.335-3.723-1.062-5.005-2.248c-0.142-0.132-0.188-0.177-0.188-0.177c-0.135-0.137-0.179-0.183-0.179-0.183
			c-0.989-1.107-1.573-2.189-2.257-3.428c-0.986-1.837-1.922-3.935-2.75-5.853c-1.434-3.447-3.059-7.418-4.216-10.96
			c-1.035-3.197-1.869-6.539-2.469-9.845c-0.968-5.331-1.382-10.808-1.317-16.223c0.154-8.282,0.318-17.367,1.301-25.565
			c0.394-2.576,1.336-4.802,2.697-6.964c1.675-2.63,3.877-4.904,6.255-6.907c2.001-1.711,4.364-3.243,6.489-4.798
			c2.886-2.12,5.807-4.404,8.335-6.944c1.242-1.267,2.446-2.629,3.311-4.187l1.673-3.131l8.684-16.976
			c3.33-3.871,6.74-8.215,9.757-12.336c2.53-3.482,5.516-7.816,8.085-11.287c5.547-7.551,13.204-17.133,19.154-24.432
			c3.955-4.788,8.562-10.304,12.815-14.804l3.518-1.146c3.974-1.336,8.012-3.138,10.778-6.401c2.187-2.562,3.623-5.684,4.772-8.826
			c2.117-5.755,3.674-14.065,5.221-20.044c0.741-2.854,1.632-5.731,2.874-8.407c1.095-2.381,2.465-4.652,4.12-6.687
			c1.716-2.124,3.762-3.996,5.933-5.647c2.913-2.22,6.855-4.763,9.582-7.182c2.2-1.893,4.223-4.036,6.048-6.29
			c4.407-5.462,8.1-11.553,11.331-17.773c3.414-6.636,6.346-13.61,8.356-20.805c1.736-6.153,2.779-12.563,3.339-18.928
			c0.323-3.876,0.599-7.97,0.537-11.86c-0.049-2.469-0.221-4.994-0.73-7.414c-0.399-1.972-1.147-4.125-2.255-5.748
			c-1.568-2.38-4.146-3.792-6.779-4.319c-2.879-0.58-5.787-0.243-8.534,0.701c-1.722,0.6-3.357,1.476-4.88,2.475
			c-2.903,1.914-5.51,4.322-7.99,6.749c-3.15,3.172-9.153,9.41-12.358,12.44c-3.852,3.701-15.322,13.714-19.479,17.411
			c-3.136,2.865-6.376,5.898-9.102,9.155c-1.807,2.067-4.073,5.45-6.458,6.78c-0.131,0.07-0.197,0.104-0.197,0.104
			c-0.132,0.065-0.199,0.096-0.199,0.096c-0.134,0.059-0.202,0.088-0.202,0.088c-0.136,0.054-0.204,0.08-0.204,0.08
			c-1.829,0.64-3.639,0.332-5.467,0.035c0,0-5.3-1.025-5.3-1.025c-4.476-0.826-9.137-0.99-13.682-0.989
			c-7.029-0.018-14.588,0.608-21.562,1.089c-0.182-0.001-0.295-0.007-0.354-0.01c-0.111-0.009-0.165-0.014-0.165-0.014
			c-0.106-0.013-0.159-0.021-0.159-0.021c-0.128-0.023-0.153-0.028-0.153-0.028c-0.123-0.029-0.148-0.035-0.148-0.035
			c-0.143-0.043-0.167-0.051-0.167-0.051c-0.139-0.053-0.162-0.063-0.162-0.063c-0.137-0.064-0.159-0.076-0.159-0.076
			c-0.135-0.076-0.158-0.089-0.158-0.089c-0.135-0.088-0.157-0.104-0.157-0.104c-0.113-0.083-0.158-0.119-0.158-0.119
			c-0.137-0.115-0.187-0.159-0.187-0.159c-0.1-0.093-0.151-0.141-0.151-0.141c-0.874-0.881-1.399-1.71-2.064-2.674
			c-0.033,0.003-3.48-5.442-3.659-5.707c-2.142-3.308-4.539-6.574-7.132-9.542c-5.87-6.742-12.689-12.806-19.709-18.328
			c-5.819-4.463-11.919-8.957-18.427-12.362c-2.232-1.134-4.573-2.141-7.019-2.709c-1.654-0.379-3.384-0.548-5.069-0.282
			c-1.114,0.155-2.388,0.642-3.278,1.185c-1.536,0.904-2.751,2.198-3.715,3.504c-1.835,2.537-2.953,5.347-3.785,8.325
			c-1.348,4.945-1.657,10.144-1.327,15.245c0.427,6.5,1.88,12.959,3.875,19.15c2.957,9.126,7.222,17.856,12.164,26.064
			c4.623,7.61,9.873,15.109,15.764,21.792c2.078,2.354,5.146,5.293,6.631,8.05c0.886,1.595,1.418,3.373,1.678,5.174
			c-5.724,7.546-12.838,14.386-21.559,18.31c-5.546,2.483-11.614,3.637-17.65,4.06c-8.377,0.62-18.239-0.155-26.673-0.675
			c-20.383-1.375-52.53-3.439-72.465-5.888c-15.287-1.702-42.344-5.979-57.635-7.413c-9.824-0.919-19.956-1.465-29.813-0.876
			c-6.853,0.42-13.781,1.394-20.373,3.351c-13.132,3.835-24.523,12.142-33.927,21.902c-9.025,9.134-18.713,23.236-26.42,33.578
			c-2.354,3.11-5.133,6.633-7.657,9.588c-5.564,6.431-14.005,15.754-18.837,22.571c-3.71,5.134-7.075,10.62-9.65,16.413
			c-3.471,7.743-5.381,16.149-6.118,24.585c-0.359,4.361-0.44,8.798,0.106,13.147c0.299,2.127,0.699,4.417,1.756,6.298
			c0.08,0.131,0.12,0.195,0.12,0.195c0.082,0.123,0.123,0.183,0.123,0.183c0.083,0.115,0.126,0.17,0.126,0.17
			c0.085,0.107,0.129,0.158,0.129,0.158c0.087,0.098,0.132,0.145,0.132,0.145c0.134,0.132,0.18,0.173,0.18,0.173
			c0.122,0.102,0.152,0.126,0.152,0.126c0.124,0.09,0.155,0.111,0.155,0.111c0.126,0.079,0.158,0.097,0.158,0.097
			c0.128,0.069,0.16,0.085,0.16,0.085c0.13,0.06,0.162,0.074,0.162,0.074c0.131,0.052,0.164,0.064,0.164,0.064
			c0.132,0.045,0.199,0.065,0.199,0.065c0.133,0.037,0.2,0.054,0.2,0.054c0.401,0.097,0.765,0.145,1.125,0.208
			c0.192,0.035,0.319,0.064,0.38,0.078c0.123,0.032,0.154,0.04,0.154,0.04c0.121,0.037,0.15,0.047,0.15,0.047
			c0.118,0.043,0.147,0.054,0.147,0.054c0.143,0.063,0.171,0.076,0.171,0.076c0.137,0.075,0.164,0.091,0.164,0.091
			c0.132,0.088,0.157,0.108,0.157,0.108c0.125,0.104,0.15,0.126,0.15,0.126c0.12,0.122,0.151,0.157,0.151,0.157
			c0.091,0.112,0.12,0.151,0.12,0.151c0.086,0.124,0.114,0.167,0.114,0.167c0.081,0.136,0.108,0.184,0.108,0.184
			c0.052,0.098,0.077,0.148,0.077,0.148c0.049,0.104,0.074,0.157,0.074,0.157c0.36,0.846,0.49,1.523,0.648,2.359
			c0.172,0.978,0.294,2.096,0.39,3.087c0.554,6.827,0.998,14.379,2.76,20.986c1.09,4.253,2.777,8.367,4.825,12.246
			c1.845,3.478,3.983,6.841,6.45,9.912c1.52,1.837,3.302,3.913,5.334,5.075c0.109,0.057,0.163,0.083,0.163,0.083
			c0.106,0.05,0.159,0.073,0.159,0.073c0.103,0.043,0.154,0.063,0.154,0.063c0.1,0.036,0.149,0.053,0.149,0.053
			c0.143,0.042,0.19,0.054,0.19,0.054c0.136,0.028,0.18,0.035,0.18,0.035c0.129,0.014,0.171,0.016,0.171,0.016
			c0.121-0.001,0.16-0.003,0.16-0.003c0.113-0.015,0.15-0.023,0.15-0.023c0.139-0.043,0.172-0.057,0.172-0.057
			c0.135-0.076,0.145-0.082,0.145-0.082c0.139-0.118,0.147-0.127,0.147-0.127c0.106-0.126,0.122-0.147,0.122-0.147
			c0.087-0.135,0.101-0.159,0.101-0.159c0.065-0.124,0.078-0.15,0.078-0.15c0.059-0.133,0.082-0.188,0.082-0.188
			c0.043-0.112,0.064-0.17,0.064-0.17c0.148-0.421,0.295-1.082,0.392-1.403c0.031-0.102,0.047-0.151,0.047-0.151
			c0.05-0.138,0.059-0.16,0.059-0.16c0.063-0.14,0.073-0.159,0.073-0.159c0.092-0.141,0.098-0.148,0.098-0.148
			c0.136-0.109,0.151-0.115,0.151-0.115c0.131-0.025,0.149-0.025,0.149-0.025c0.129,0.024,0.149,0.031,0.149,0.031
			c0.143,0.066,0.165,0.079,0.165,0.079c0.134,0.089,0.157,0.107,0.157,0.107c0.144,0.119,0.168,0.141,0.168,0.141
			c0.127,0.121,0.18,0.174,0.18,0.174c0.108,0.114,0.163,0.174,0.163,0.174c0.508,0.576,0.806,1.007,1.222,1.592
			c1.61,2.352,4.612,7.134,6.25,9.415C169.293,529.974,172.382,533.639,175.833,536.882z"/>
	</g>
</g>
</svg>
