<?xml version="1.0" encoding="utf-8"?>
<!-- Generator: Adobe Illustrator 24.2.0, SVG Export Plug-In . SVG Version: 6.00 Build 0)  -->
<!DOCTYPE svg PUBLIC "-//W3C//DTD SVG 1.1//EN" "http://www.w3.org/Graphics/SVG/1.1/DTD/svg11.dtd" [
	<!ENTITY ns_flows "http://ns.adobe.com/Flows/1.0/">
	<!ENTITY ns_extend "http://ns.adobe.com/Extensibility/1.0/">
	<!ENTITY ns_ai "http://ns.adobe.com/AdobeIllustrator/10.0/">
	<!ENTITY ns_graphs "http://ns.adobe.com/Graphs/1.0/">
	<!ENTITY ns_vars "http://ns.adobe.com/Variables/1.0/">
	<!ENTITY ns_imrep "http://ns.adobe.com/ImageReplacement/1.0/">
	<!ENTITY ns_sfw "http://ns.adobe.com/SaveForWeb/1.0/">
	<!ENTITY ns_custom "http://ns.adobe.com/GenericCustomNamespace/1.0/">
	<!ENTITY ns_adobe_xpath "http://ns.adobe.com/XPath/1.0/">
]>
<svg version="1.1" xmlns:x="&ns_extend;" xmlns:i="&ns_ai;" xmlns:graph="&ns_graphs;"
	 xmlns="http://www.w3.org/2000/svg" xmlns:xlink="http://www.w3.org/1999/xlink" xmlns:a="http://ns.adobe.com/AdobeSVGViewerExtensions/3.0/"
	 x="0px" y="0px" width="750px" height="750px" viewBox="0 0 750 750" enable-background="new 0 0 750 750" xml:space="preserve">
<metadata>
	<sfw  xmlns="&ns_sfw;">
		<slices></slices>
		<sliceSourceBounds  bottomLeftOrigin="true" height="9296.003" width="6022.485" x="-3942.485" y="-895.699"></sliceSourceBounds>
	</sfw>
</metadata>
<g id="FILL-BACKGROUND">
	<rect fill="#FFFFFF" width="750" height="750"/>
</g>
<g id="N-TEXT">
</g>
<g id="N-DIMENSIONS">
</g>
<g id="AG-DIAGRAM">
	<g id="POLYLINE_676_">
		<g>
			<g>
				
					<line fill="none" stroke="#FB8604" stroke-width="3.25" stroke-linecap="round" stroke-linejoin="round" x1="297.407" y1="520.931" x2="299.407" y2="520.931"/>
				
					<line fill="none" stroke="#FB8604" stroke-width="3.25" stroke-linecap="round" stroke-linejoin="round" stroke-dasharray="4.0591,7.1034" x1="306.51" y1="520.931" x2="593.183" y2="520.931"/>
				
					<line fill="none" stroke="#FB8604" stroke-width="3.25" stroke-linecap="round" stroke-linejoin="round" x1="596.735" y1="520.931" x2="598.735" y2="520.931"/>
			</g>
		</g>
	</g>
</g>
<g id="AG-DETAILS">
</g>
<g id="AG-ANIMALS">
	<g id="POLYLINE_754_">
		
			<path fill="none" stroke="#FB8604" stroke-width="2.75" stroke-linecap="round" stroke-linejoin="round" stroke-miterlimit="10" d="
			M275.104,387.986c-0.661,2.351-1.251,4.778-1.301,7.23c-0.086,3.049,0.626,6.068,1.649,8.924c0.869,2.406,1.963,4.752,3.328,6.918
			c1.121,1.753,2.565,3.629,4.318,4.68c0.38,0.224,0.725,0.376,1.041,0.48c0.955,0.316,1.925,0.251,2.856,0.112
			c0.629-0.095,1.633-0.294,2.225-0.269c0.087,0.004,0.13,0.006,0.13,0.006c0.085,0.007,0.128,0.012,0.128,0.012
			c0.084,0.011,0.125,0.018,0.125,0.018c0.102,0.019,0.122,0.024,0.122,0.024c0.099,0.025,0.119,0.03,0.119,0.03
			c0.097,0.031,0.116,0.038,0.116,0.038c0.094,0.037,0.113,0.045,0.113,0.045c0.11,0.053,0.128,0.063,0.128,0.063
			c0.106,0.063,0.123,0.074,0.123,0.074c0.102,0.073,0.118,0.086,0.118,0.086c0.098,0.084,0.114,0.099,0.114,0.099
			c0.101,0.103,0.125,0.131,0.125,0.131c0.072,0.087,0.095,0.117,0.095,0.117c0.069,0.095,0.092,0.128,0.092,0.128
			c0.066,0.103,0.088,0.138,0.088,0.138c0.604,1.088,0.77,2.145,0.995,3.302c0.379,2.223,0.619,4.844,0.996,7.067
			c0.341,1.869,0.741,4.03,1.919,5.539c0.089,0.108,0.133,0.161,0.133,0.161c0.091,0.103,0.137,0.153,0.137,0.153
			c0.094,0.098,0.141,0.145,0.141,0.145c0.096,0.093,0.145,0.138,0.145,0.138c0.69,0.623,1.345,0.964,2.088,1.319
			c0,0,1.331,0.608,1.331,0.608c0.503,0.236,1.045,0.54,1.404,0.824c0.089,0.071,0.133,0.108,0.133,0.108
			c0.087,0.075,0.129,0.113,0.129,0.113c0.084,0.078,0.125,0.118,0.125,0.118c0.081,0.082,0.12,0.124,0.12,0.124
			c0.077,0.086,0.115,0.131,0.115,0.131c0.088,0.108,0.113,0.141,0.113,0.141c0.073,0.099,0.097,0.132,0.097,0.132
			c0.07,0.103,0.092,0.138,0.092,0.138c0.067,0.107,0.088,0.143,0.088,0.143c0.455,0.79,0.661,1.55,0.838,2.357
			c0.202,0.96,0.312,1.981,0.396,2.958l0.355,5.202c0.202,2.402,0.553,4.843,1.499,7.076c0.595,1.415,1.512,2.836,2.755,3.664
			c1.009,0.695,2.247,0.936,3.372,0.804c1.502-0.178,2.885-0.793,4.231-1.445c2.221-1.089,5.095-2.924,7.303-4.048
			c1.024-0.512,2.229-1.071,3.346-1.207c0.097-0.01,0.145-0.014,0.145-0.014c0.095-0.006,0.142-0.008,0.142-0.008
			c0.093-0.002,0.139-0.002,0.139-0.002c0.091,0.002,0.135,0.004,0.135,0.004c0.088,0.006,0.132,0.01,0.132,0.01
			c0.086,0.01,0.128,0.017,0.128,0.017c0.084,0.015,0.125,0.023,0.125,0.023c0.081,0.019,0.121,0.03,0.121,0.03
			c0.079,0.024,0.117,0.037,0.117,0.037c0.076,0.028,0.113,0.044,0.113,0.044c0.107,0.05,0.133,0.063,0.133,0.063
			c0.103,0.058,0.128,0.073,0.128,0.073c0.098,0.066,0.122,0.083,0.122,0.083c0.094,0.073,0.117,0.093,0.117,0.093
			c0.09,0.081,0.112,0.102,0.112,0.102c0.108,0.111,0.129,0.134,0.129,0.134c0.082,0.096,0.103,0.12,0.103,0.12
			c0.079,0.102,0.099,0.128,0.099,0.128c0.488,0.692,0.721,1.361,0.996,2.117c0.474,1.336,0.936,3.061,1.796,4.179
			c0.069,0.087,0.092,0.115,0.092,0.115c0.095,0.11,0.119,0.137,0.119,0.137c0.099,0.105,0.124,0.13,0.124,0.13
			c0.103,0.099,0.13,0.122,0.13,0.122c0.108,0.092,0.135,0.114,0.135,0.114c0.084,0.064,0.113,0.085,0.113,0.085
			c0.087,0.06,0.117,0.08,0.117,0.08c0.09,0.056,0.121,0.074,0.121,0.074c0.093,0.051,0.125,0.068,0.125,0.068
			c0.089,0.043,0.134,0.064,0.134,0.064c0.092,0.039,0.139,0.057,0.139,0.057c0.095,0.035,0.143,0.051,0.143,0.051
			c0.098,0.03,0.148,0.044,0.148,0.044c0.101,0.026,0.152,0.038,0.152,0.038c0.104,0.022,0.156,0.032,0.156,0.032
			c0.106,0.018,0.16,0.026,0.16,0.026c0.987,0.13,1.871-0.01,2.82-0.203c1.872-0.4,4.161-1.252,5.989-1.87
			c1.483-0.498,3.081-1.03,4.618-1.309c0.996-0.181,2.132-0.279,3.103-0.051c0.111,0.028,0.166,0.042,0.166,0.042
			c0.137,0.039,0.196,0.06,0.244,0.076c0.111,0.04,0.148,0.055,0.148,0.055c0.109,0.044,0.145,0.06,0.145,0.06
			c0.106,0.048,0.141,0.065,0.141,0.065c0.104,0.052,0.138,0.07,0.138,0.07c1.973,1.062,2.845,3.296,4.287,4.849
			c0.093,0.095,0.139,0.141,0.139,0.141c0.094,0.089,0.142,0.132,0.142,0.132c0.096,0.083,0.144,0.123,0.144,0.123
			c0.098,0.077,0.123,0.095,0.123,0.095c0.1,0.071,0.125,0.088,0.125,0.088c0.102,0.065,0.127,0.08,0.127,0.08
			c0.104,0.058,0.13,0.072,0.13,0.072c0.106,0.052,0.133,0.064,0.133,0.064c0.108,0.045,0.136,0.055,0.136,0.055
			c0.111,0.038,0.139,0.046,0.139,0.046c0.085,0.023,0.114,0.03,0.114,0.03c0.087,0.018,0.116,0.024,0.116,0.024
			c0.089,0.014,0.128,0.019,0.128,0.019c0.079,0.008,0.119,0.01,0.119,0.01c0.08,0.003,0.121,0.004,0.121,0.004
			c0.082-0.001,0.123-0.002,0.123-0.002c0.083-0.005,0.125-0.008,0.125-0.008c0.085-0.008,0.128-0.013,0.128-0.013
			c0.086-0.012,0.13-0.019,0.13-0.019c0.088-0.016,0.132-0.025,0.132-0.025c1.125-0.259,1.975-0.789,2.889-1.348
			c1.346-0.854,3.299-2.325,4.619-3.228c1.59-1.061,3.405-2.285,5.321-2.51c1.675-0.163,3.056,0.693,4.33,1.593
			c1.554,1.106,3.315,2.623,5.265,2.762c1.306,0.093,2.451-0.286,3.598-0.768c1.524-0.663,2.976-1.573,4.362-2.487
			c3.606-2.407,7.845-5.711,11.668-7.734c1.792-0.955,3.69-1.779,5.677-2.228c3.215-0.743,6.57-0.545,9.813-0.1
			c3.877,0.492,8.632,1.701,12.484,0.731c2.063-0.527,3.916-1.662,5.653-2.859c1.98-1.37,4.127-3.078,6.325-4.053
			c1.196-0.531,2.312-0.793,3.547-0.862c2.589-0.169,5.879,0.645,8.435,1.09c1.71,0.296,3.636,0.52,5.33,0.231
			c3.813-0.64,6.801-3.203,9.568-5.715c1.789-1.65,4.565-4.413,6.475-5.849c1.63-1.245,3.633-2.477,5.692-2.531
			c1.176-0.033,2.19,0.346,3.165,0.832c1.006,0.493,2.492,1.491,3.459,2.085c0.915,0.556,1.998,1.149,3.028,1.334
			c0.111,0.019,0.148,0.024,0.148,0.024c0.111,0.015,0.148,0.019,0.148,0.019c0.11,0.01,0.147,0.013,0.147,0.013
			c0.11,0.006,0.147,0.007,0.147,0.007c0.11,0.002,0.146,0.001,0.146,0.001c0.11-0.003,0.146-0.005,0.146-0.005
			c0.109-0.008,0.146-0.011,0.146-0.011c0.109-0.013,0.145-0.018,0.145-0.018c0.083-0.013,0.124-0.02,0.124-0.02
			c0.083-0.016,0.124-0.025,0.124-0.025c0.082-0.019,0.124-0.03,0.124-0.03c1.03-0.284,1.825-0.899,2.577-1.521
			c0.707-0.582,2.377-2.238,3.063-2.888c1.677-1.583,3.724-3.209,6.041-3.441c1.386-0.146,2.731,0.096,4.059,0.456
			c2.648,0.719,5.736,2.251,8.319,3.186c1.11,0.392,2.408,0.79,3.571,0.742c0.1-0.006,0.149-0.009,0.149-0.009
			c0.098-0.009,0.146-0.015,0.146-0.015c0.096-0.013,0.143-0.02,0.143-0.02c0.094-0.017,0.14-0.026,0.14-0.026
			c0.092-0.02,0.137-0.031,0.137-0.031c0.088-0.024,0.118-0.032,0.118-0.032c0.087-0.027,0.115-0.037,0.115-0.037
			c0.085-0.03,0.113-0.041,0.113-0.041c0.111-0.045,0.138-0.057,0.138-0.057c0.108-0.05,0.135-0.063,0.135-0.063
			c0.154-0.08,0.202-0.11,0.259-0.144c0.1-0.064,0.15-0.097,0.15-0.097c0.098-0.069,0.146-0.104,0.146-0.104
			c0.095-0.074,0.142-0.111,0.142-0.111c0.092-0.078,0.138-0.118,0.138-0.118c0.888-0.801,1.513-1.884,2.17-2.815
			c0.291-0.417,0.653-0.877,0.947-1.161c0.081-0.078,0.122-0.116,0.122-0.116c0.083-0.074,0.125-0.109,0.125-0.109
			c0.085-0.069,0.128-0.102,0.128-0.102c0.087-0.064,0.131-0.095,0.131-0.095c0.111-0.073,0.134-0.087,0.134-0.087
			c0.091-0.053,0.114-0.066,0.114-0.066c0.105-0.054,0.14-0.071,0.14-0.071c0.108-0.048,0.144-0.062,0.144-0.062
			c0.111-0.041,0.148-0.054,0.148-0.054c0.075-0.024,0.113-0.035,0.113-0.035c0.077-0.02,0.116-0.03,0.116-0.03
			c0.078-0.017,0.118-0.025,0.118-0.025c0.079-0.014,0.12-0.021,0.12-0.021c0.081-0.011,0.122-0.016,0.122-0.016
			c0.726-0.082,1.446,0.06,2.062,0.22c0.83,0.223,1.528,0.494,2.306,0.807l4.162,1.764c1.989,0.809,4.056,1.517,6.173,1.897
			c2.435,0.435,4.949,0.484,7.407,0.234c1.675-0.176,3.361-0.496,4.961-1.026c1.019-0.336,2.169-0.841,3.013-1.458
			c0.265-0.194,0.462-0.367,0.62-0.523c0.106-0.109,0.139-0.145,0.139-0.145c0.097-0.11,0.128-0.147,0.128-0.147
			c0.06-0.075,0.088-0.112,0.088-0.112c0.055-0.075,0.082-0.113,0.082-0.113c0.051-0.076,0.075-0.115,0.075-0.115
			c0.046-0.077,0.068-0.116,0.068-0.116c0.041-0.078,0.061-0.117,0.061-0.117c0.037-0.078,0.054-0.118,0.054-0.118
			c0.032-0.079,0.047-0.119,0.047-0.119c0.027-0.08,0.039-0.12,0.039-0.12c0.022-0.081,0.032-0.121,0.032-0.121
			c0.017-0.081,0.024-0.122,0.024-0.122c0.012-0.082,0.017-0.123,0.017-0.123c0.007-0.083,0.009-0.124,0.009-0.124
			c0.001-0.083,0.001-0.125,0.001-0.125c-0.004-0.084-0.007-0.126-0.007-0.126c-0.01-0.09-0.013-0.114-0.013-0.114
			c-0.016-0.096-0.021-0.12-0.021-0.12c-0.022-0.097-0.028-0.121-0.028-0.121c-0.027-0.097-0.034-0.121-0.034-0.121
			c-0.032-0.098-0.049-0.146-0.049-0.146c-0.038-0.098-0.058-0.147-0.058-0.147c-0.043-0.099-0.066-0.148-0.066-0.148
			c-0.048-0.099-0.073-0.148-0.073-0.148c-0.783-1.483-2.186-2.639-2.978-4.049c-0.044-0.086-0.065-0.129-0.065-0.129
			c-0.039-0.085-0.057-0.127-0.057-0.127c-0.041-0.104-0.048-0.125-0.048-0.125c-0.034-0.102-0.039-0.123-0.039-0.123
			c-0.026-0.1-0.03-0.12-0.03-0.12c-0.017-0.099-0.02-0.118-0.02-0.118c-0.009-0.097-0.009-0.116-0.009-0.116
			c0.001-0.107,0.004-0.139,0.004-0.139c0.012-0.093,0.018-0.124,0.018-0.124c0.023-0.091,0.032-0.12,0.032-0.12
			c0.033-0.088,0.046-0.118,0.046-0.118c0.043-0.086,0.059-0.115,0.059-0.115c0.053-0.084,0.073-0.112,0.073-0.112
			c0.085-0.109,0.109-0.136,0.109-0.136c0.101-0.106,0.128-0.132,0.128-0.132c0.086-0.077,0.116-0.103,0.116-0.103
			c0.095-0.075,0.128-0.1,0.128-0.1c1.067-0.731,2.267-1.017,3.453-1.336c4.821-1.146,10.695-1.768,15.458-3.117
			c1.878-0.528,3.771-1.165,5.517-2.041c1.265-0.64,2.618-1.496,3.441-2.598c0.074-0.102,0.098-0.137,0.098-0.137
			c0.069-0.103,0.091-0.138,0.091-0.138c0.064-0.104,0.085-0.139,0.085-0.139c0.059-0.105,0.078-0.14,0.078-0.14
			c0.054-0.106,0.071-0.141,0.071-0.141c0.048-0.107,0.064-0.142,0.064-0.142c0.043-0.108,0.057-0.144,0.057-0.144
			c0.038-0.108,0.049-0.145,0.049-0.145c0.032-0.109,0.042-0.146,0.042-0.146c0.027-0.11,0.035-0.147,0.035-0.147
			c0.021-0.111,0.027-0.148,0.027-0.148c0.011-0.074,0.015-0.112,0.015-0.112c0.008-0.075,0.011-0.112,0.011-0.112
			c0.005-0.075,0.007-0.113,0.007-0.113c0.002-0.076,0.002-0.113,0.002-0.113c-0.001-0.076-0.002-0.114-0.002-0.114
			c-0.004-0.076-0.006-0.115-0.006-0.115c-0.01-0.105-0.013-0.134-0.013-0.134c-0.107-0.784-0.412-1.401-0.759-2.055
			c-0.574-1.071-1.518-2.34-1.932-3.451c-0.035-0.102-0.052-0.152-0.052-0.152c-0.03-0.1-0.044-0.149-0.044-0.149
			c-0.024-0.098-0.03-0.123-0.03-0.123c-0.019-0.097-0.023-0.121-0.023-0.121c-0.014-0.095-0.017-0.119-0.017-0.119
			c-0.008-0.093-0.01-0.117-0.01-0.117c-0.003-0.092-0.003-0.115-0.003-0.115c0.003-0.09,0.005-0.112,0.005-0.112
			c0.013-0.11,0.016-0.132,0.016-0.132c0.023-0.107,0.028-0.129,0.028-0.129c0.033-0.105,0.04-0.125,0.04-0.125
			c0.039-0.092,0.052-0.118,0.052-0.118c0.055-0.101,0.07-0.125,0.07-0.125c0.066-0.098,0.084-0.122,0.084-0.122
			c0.077-0.095,0.098-0.118,0.098-0.118c0.087-0.092,0.111-0.115,0.111-0.115c0.097-0.09,0.123-0.112,0.123-0.112
			c0.107-0.087,0.135-0.109,0.135-0.109c0.086-0.064,0.116-0.085,0.116-0.085c0.79-0.533,1.54-0.799,2.388-1.126
			c2.238-0.842,5.085-1.617,6.848-3.261c0.106-0.103,0.14-0.138,0.14-0.138c0.101-0.106,0.134-0.141,0.134-0.141
			c0.194-0.218,0.285-0.341,0.39-0.491c0.058-0.087,0.086-0.131,0.086-0.131c0.055-0.089,0.081-0.133,0.081-0.133
			c0.536-0.942,0.689-1.872,0.752-2.86c0.055-1.013-0.029-2.052-0.14-3.059c-0.162-1.338-0.509-3.732-0.554-5.041
			c-0.053-1.131,0.035-2.462,0.474-3.456c0.776-1.738,2.353-2.706,3.916-3.532c2.456-1.289,5.466-2.149,7.608-3.944
			c1.895-1.594,2.862-3.993,4.211-5.999c0.76-1.14,1.73-2.057,2.892-2.686c2.302-1.324,5.353-1.955,7.353-3.74
			c0.102-0.096,0.148-0.141,0.148-0.141c0.957-0.974,1.417-2.028,1.759-3.271c0.377-1.43,0.475-2.936,0.527-4.409
			c-0.326-2.215-0.473-4.8,0.69-6.785c0.06-0.096,0.09-0.144,0.09-0.144c0.063-0.094,0.095-0.14,0.095-0.14
			c0.066-0.091,0.1-0.136,0.1-0.136c0.07-0.089,0.106-0.133,0.106-0.133c0.075-0.089,0.114-0.133,0.114-0.133
			c0.079-0.086,0.119-0.129,0.119-0.129c1.578-1.586,3.894-2.177,5.588-3.507c0.229-0.181,0.4-0.339,0.524-0.464
			c0.08-0.083,0.119-0.124,0.119-0.124c0.075-0.083,0.11-0.124,0.11-0.124c0.07-0.083,0.104-0.126,0.104-0.126
			c1.206-1.578,1.328-3.493,1.419-5.358c0.038-1.712,0.093-3.783,0.015-5.492"/>
	</g>
	<g id="POLYLINE_753_">
		
			<path fill="none" stroke="#FB8604" stroke-width="2.75" stroke-linecap="round" stroke-linejoin="round" stroke-miterlimit="10" d="
			M542.47,276.243c-0.096,0.051-0.113,0.058-0.113,0.058c-0.105,0.044-0.123,0.05-0.123,0.05c-0.093,0.031-0.113,0.037-0.113,0.037
			c-0.079,0.022-0.119,0.031-0.119,0.031c-0.083,0.018-0.125,0.026-0.125,0.026c-0.087,0.015-0.131,0.021-0.131,0.021
			c-1.066,0.129-2.147-0.056-3.183-0.134c-0.295-0.025-0.73-0.047-0.973-0.029c-0.108,0.008-0.143,0.012-0.143,0.012
			c-0.099,0.014-0.114,0.017-0.114,0.017c-0.104,0.022-0.118,0.026-0.118,0.026c-0.103,0.035-0.114,0.04-0.114,0.04
			c-0.103,0.058-0.112,0.064-0.112,0.064c-0.092,0.105-0.096,0.113-0.096,0.113c-0.034,0.107-0.036,0.116-0.036,0.116
			c-0.004,0.104-0.004,0.115-0.004,0.115c0.013,0.104,0.016,0.116,0.016,0.116c0.024,0.101,0.032,0.127,0.032,0.127
			c0.036,0.108,0.046,0.137,0.046,0.137c0.087,0.227,0.183,0.409,0.26,0.561c0.262,0.495,0.716,1.3,0.887,1.8
			c0.055,0.153,0.088,0.269,0.108,0.348c0.019,0.076,0.027,0.114,0.027,0.114c0.015,0.076,0.022,0.113,0.022,0.113
			c0.012,0.075,0.016,0.112,0.016,0.112c0.01,0.111,0.012,0.129,0.012,0.129c0.003,0.109,0.003,0.127,0.003,0.127
			c-0.005,0.107-0.006,0.125-0.006,0.125c-0.013,0.105-0.016,0.122-0.016,0.122c-0.023,0.105-0.028,0.125-0.028,0.125
			c-0.032,0.102-0.039,0.122-0.039,0.122c-0.041,0.1-0.05,0.119-0.05,0.119c-0.049,0.097-0.06,0.116-0.06,0.116
			c-0.057,0.095-0.069,0.114-0.069,0.114c-0.065,0.093-0.078,0.111-0.078,0.111c-0.087,0.109-0.102,0.127-0.102,0.127
			c-0.08,0.089-0.113,0.124-0.113,0.124c-0.105,0.104-0.141,0.138-0.141,0.138c-1.148,1.018-2.691,1.543-3.803,2.513
			c-0.076,0.069-0.113,0.104-0.113,0.104c-0.106,0.106-0.14,0.141-0.14,0.141c-0.096,0.109-0.111,0.127-0.111,0.127
			c-0.073,0.093-0.086,0.111-0.086,0.111c-0.066,0.095-0.078,0.114-0.078,0.114c-0.058,0.097-0.069,0.117-0.069,0.117
			c-0.051,0.1-0.06,0.121-0.06,0.121c-0.043,0.103-0.051,0.123-0.051,0.123c-0.036,0.105-0.042,0.126-0.042,0.126
			c-0.029,0.107-0.034,0.129-0.034,0.129c-0.022,0.109-0.026,0.131-0.026,0.131c-0.024,0.161-0.023,0.178-0.029,0.247
			c-0.005,0.092-0.006,0.138-0.006,0.138c-0.001,0.093,0,0.14,0,0.14c0.003,0.095,0.006,0.143,0.006,0.143
			c0.03,0.445,0.096,0.75,0.171,1.107c0.324,1.379,0.766,3.002,0.274,4.366c-0.377,1.053-1.003,1.817-1.682,2.602
			c-0.756,0.866-2.355,2.377-3.188,3.202c-0.803,0.812-1.719,1.774-2.225,2.769c-0.074,0.147-0.121,0.259-0.152,0.335
			c-0.042,0.111-0.056,0.148-0.056,0.148c-0.037,0.111-0.048,0.148-0.048,0.148c-0.03,0.11-0.04,0.147-0.04,0.147
			c-0.024,0.11-0.031,0.146-0.031,0.146c-0.018,0.109-0.023,0.146-0.023,0.146c-0.011,0.109-0.014,0.145-0.014,0.145
			c-0.004,0.109-0.004,0.145-0.004,0.145c0.003,0.108,0.005,0.141,0.005,0.141c0.009,0.097,0.013,0.13,0.013,0.13
			c0.014,0.097,0.02,0.129,0.02,0.129c0.02,0.097,0.028,0.129,0.028,0.129c0.025,0.096,0.035,0.128,0.035,0.128
			c0.031,0.096,0.042,0.128,0.042,0.128c0.036,0.096,0.048,0.128,0.048,0.128c0.04,0.095,0.055,0.127,0.055,0.127
			c0.045,0.095,0.061,0.127,0.061,0.127c0.05,0.095,0.067,0.126,0.067,0.126c0.556,0.959,1.276,1.603,2.049,2.33
			c1.153,1.074,2.71,2.288,3.459,3.671c0.051,0.1,0.067,0.133,0.067,0.133c0.047,0.1,0.061,0.133,0.061,0.133
			c0.042,0.1,0.055,0.134,0.055,0.134c0.037,0.101,0.049,0.135,0.049,0.135c0.032,0.102,0.042,0.135,0.042,0.135
			c0.027,0.102,0.035,0.136,0.035,0.136c0.022,0.103,0.028,0.137,0.028,0.137c0.014,0.085,0.018,0.113,0.018,0.113
			c0.01,0.085,0.013,0.114,0.013,0.114c0.007,0.086,0.008,0.114,0.008,0.114c0.003,0.086,0.004,0.115,0.004,0.115
			c-0.006,1.718-1.196,3.217-1.663,4.78c-0.027,0.099-0.04,0.149-0.04,0.149c-0.023,0.098-0.033,0.146-0.033,0.146
			c-0.018,0.096-0.021,0.12-0.021,0.12c-0.013,0.094-0.016,0.118-0.016,0.118c-0.008,0.093-0.01,0.116-0.01,0.116
			c-0.003,0.091-0.004,0.114-0.004,0.114c0.002,0.09,0.003,0.112,0.003,0.112c0.01,0.11,0.013,0.131,0.013,0.131
			c0.019,0.107,0.023,0.128,0.023,0.128c0.028,0.104,0.035,0.125,0.035,0.125c0.038,0.101,0.046,0.121,0.046,0.121
			c0.048,0.098,0.059,0.118,0.059,0.118c0.069,0.11,0.087,0.136,0.087,0.136c0.081,0.102,0.103,0.127,0.103,0.127
			c0.094,0.098,0.12,0.122,0.12,0.122c0.107,0.095,0.136,0.118,0.136,0.118c0.089,0.069,0.12,0.091,0.12,0.091
			c0.096,0.067,0.129,0.089,0.129,0.089c0.103,0.065,0.138,0.086,0.138,0.086c1.238,0.683,2.478,0.925,3.805,1.244
			c2.243,0.532,5.534,0.954,7.546,2.044c0.111,0.066,0.147,0.088,0.147,0.088c0.104,0.068,0.138,0.091,0.138,0.091
			c0.097,0.07,0.128,0.094,0.128,0.094c0.09,0.072,0.119,0.097,0.119,0.097c0.109,0.1,0.134,0.125,0.134,0.125
			c0.098,0.106,0.111,0.121,0.111,0.121c0.086,0.109,0.098,0.125,0.098,0.125c0.065,0.096,0.075,0.112,0.075,0.112
			c0.057,0.098,0.066,0.115,0.066,0.115c0.05,0.101,0.058,0.118,0.058,0.118c0.037,0.085,0.05,0.12,0.05,0.12
			c0.037,0.104,0.048,0.139,0.048,0.139c0.03,0.106,0.04,0.142,0.04,0.142c0.024,0.108,0.032,0.144,0.032,0.144
			c0.019,0.109,0.025,0.146,0.025,0.146c0.096,0.693,0,1.373,0.052,2.024c0.01,0.108,0.014,0.144,0.014,0.144
			c0.014,0.106,0.02,0.141,0.02,0.141c0.019,0.104,0.026,0.139,0.026,0.139c0.024,0.102,0.033,0.136,0.033,0.136
			c0.03,0.1,0.041,0.133,0.041,0.133c0.037,0.098,0.044,0.114,0.044,0.114c0.051,0.111,0.059,0.126,0.059,0.126
			c0.06,0.108,0.069,0.123,0.069,0.123c0.07,0.104,0.081,0.118,0.081,0.118c0.089,0.11,0.11,0.134,0.11,0.134
			c0.089,0.092,0.112,0.115,0.112,0.115c0.099,0.088,0.125,0.11,0.125,0.11c0.109,0.085,0.137,0.106,0.137,0.106
			c0.088,0.062,0.118,0.082,0.118,0.082c0.886,0.555,1.754,0.775,2.712,1.042c1.376,0.356,3.167,0.717,4.542,1.075
			c1.64,0.439,3.508,1.003,4.747,2.142c0.109,0.103,0.162,0.156,0.162,0.156c0.103,0.107,0.153,0.161,0.153,0.161
			c0.823,0.913,1.236,1.903,1.628,3.011c0.363,1.052,0.769,2.532,1.344,3.469c0.066,0.107,0.1,0.159,0.1,0.159
			c0.07,0.103,0.105,0.154,0.105,0.154c0.073,0.1,0.111,0.149,0.111,0.149c0.077,0.096,0.117,0.144,0.117,0.144
			c0.088,0.099,0.112,0.125,0.112,0.125c0.073,0.077,0.123,0.127,0.123,0.127c0.103,0.098,0.155,0.145,0.155,0.145
			c0.86,0.748,1.804,1.098,2.83,1.424c1.371,0.42,3.421,0.81,4.833,1.147c1.101,0.264,2.222,0.578,3.277,0.988
			c1.291,0.498,2.566,1.145,3.775,1.818c4.019,2.243,8.171,5.272,12.741,6.238c5.223,1.153,10.665,0.495,15.85-0.557
			c1.915-0.403,3.859-0.888,5.66-1.664c1.403-0.601,2.781-1.439,3.829-2.55c1.749-1.87,2.589-4.273,3.313-6.67
			c0.395-1.31,0.918-3.456,1.42-4.698c0.339-0.872,0.841-1.688,1.419-2.322c0.822-0.905,1.689-1.535,2.664-2.212
			c1.163-0.797,3.477-2.284,4.58-3.126c1.19-0.903,2.498-1.982,3.224-3.271c0.057-0.106,0.075-0.142,0.075-0.142
			c0.052-0.107,0.069-0.142,0.069-0.142c0.047-0.107,0.062-0.142,0.062-0.142c0.042-0.107,0.056-0.143,0.056-0.143
			c0.037-0.107,0.049-0.143,0.049-0.143c0.032-0.108,0.042-0.143,0.042-0.143c0.027-0.108,0.035-0.144,0.035-0.144
			c0.021-0.108,0.027-0.144,0.027-0.144c0.015-0.1,0.021-0.149,0.021-0.149c0.009-0.1,0.013-0.15,0.013-0.15
			c0.005-0.1,0.006-0.15,0.006-0.15c0-0.1-0.001-0.15-0.001-0.15c-0.004-0.1-0.008-0.15-0.008-0.15
			c-0.008-0.1-0.014-0.15-0.014-0.15c-0.138-1.185-0.728-2.209-1.034-3.293c-0.034-0.125-0.051-0.208-0.06-0.249
			c-0.016-0.081-0.023-0.121-0.023-0.121c-0.012-0.08-0.018-0.119-0.018-0.119c-0.009-0.078-0.012-0.117-0.012-0.117
			c-0.005-0.096-0.006-0.115-0.006-0.115c0-0.094,0.001-0.113,0.001-0.113c0.008-0.11,0.01-0.129,0.01-0.129
			c0.017-0.108,0.02-0.125,0.02-0.125c0.026-0.105,0.031-0.122,0.031-0.122c0.036-0.102,0.042-0.118,0.042-0.118
			c0.046-0.099,0.054-0.115,0.054-0.115c0.065-0.108,0.079-0.128,0.079-0.128c0.074-0.097,0.09-0.117,0.09-0.117
			c0.086-0.094,0.105-0.112,0.105-0.112c0.098-0.091,0.118-0.108,0.118-0.108c0.109-0.087,0.131-0.105,0.131-0.105
			c0.094-0.068,0.143-0.101,0.143-0.101c0.102-0.065,0.155-0.097,0.155-0.097c1.754-0.986,3.976-1.244,5.771-2.107
			c0.109-0.056,0.162-0.085,0.162-0.085c0.102-0.058,0.151-0.087,0.151-0.087c0.095-0.06,0.117-0.075,0.117-0.075
			c0.109-0.077,0.13-0.092,0.13-0.092c0.098-0.079,0.117-0.095,0.117-0.095c0.103-0.099,0.119-0.116,0.119-0.116
			c0.086-0.103,0.099-0.12,0.099-0.12c0.068-0.107,0.077-0.126,0.077-0.126c0.044-0.099,0.05-0.115,0.05-0.115
			c0.028-0.096,0.031-0.113,0.031-0.113c0.016-0.099,0.017-0.116,0.017-0.116c0.004-0.103,0.004-0.12,0.004-0.12
			c-0.007-0.105-0.009-0.123-0.009-0.123c-0.017-0.108-0.021-0.126-0.021-0.126c-0.027-0.111-0.032-0.129-0.032-0.129
			c-0.029-0.094-0.043-0.132-0.043-0.132c-0.029-0.077-0.044-0.116-0.044-0.116c-0.033-0.078-0.051-0.118-0.051-0.118
			c-0.516-1.082-1.416-2.068-1.824-3.152c-0.034-0.093-0.05-0.14-0.05-0.14c-0.03-0.093-0.043-0.139-0.043-0.139
			c-0.025-0.093-0.036-0.139-0.036-0.139c-0.02-0.093-0.024-0.116-0.024-0.116c-0.015-0.092-0.019-0.115-0.019-0.115
			c-0.011-0.092-0.013-0.115-0.013-0.115c-0.006-0.092-0.007-0.115-0.007-0.115c-0.001-0.091,0-0.114,0-0.114
			c0.005-0.091,0.006-0.114,0.006-0.114c0.012-0.106,0.016-0.133,0.016-0.133c0.02-0.106,0.026-0.132,0.026-0.132
			c0.027-0.105,0.035-0.132,0.035-0.132c0.034-0.105,0.043-0.131,0.043-0.131c0.041-0.104,0.052-0.13,0.052-0.13
			c0.047-0.104,0.06-0.129,0.06-0.129c0.053-0.103,0.067-0.129,0.067-0.129c0.044-0.077,0.074-0.128,0.074-0.128
			c0.064-0.102,0.098-0.153,0.098-0.153c0.07-0.102,0.107-0.152,0.107-0.152c0.755-1.003,1.86-1.829,2.755-2.633
			c0.424-0.374,0.888-0.825,1.17-1.184c0.073-0.095,0.109-0.142,0.109-0.142c0.068-0.095,0.1-0.142,0.1-0.142
			c0.061-0.095,0.076-0.118,0.076-0.118c0.056-0.095,0.069-0.119,0.069-0.119c0.05-0.095,0.061-0.119,0.061-0.119
			c0.044-0.095,0.054-0.119,0.054-0.119c0.037-0.095,0.045-0.119,0.045-0.119c0.03-0.095,0.037-0.119,0.037-0.119
			c0.023-0.096,0.028-0.117,0.028-0.117c0.018-0.107,0.02-0.129,0.02-0.129c0.009-0.108,0.01-0.129,0.01-0.129
			c0.001-0.108,0-0.129,0-0.129c-0.007-0.108-0.009-0.13-0.009-0.13c-0.014-0.108-0.018-0.13-0.018-0.13
			c-0.021-0.109-0.026-0.13-0.026-0.13c-0.028-0.109-0.04-0.153-0.04-0.153c-0.028-0.087-0.042-0.131-0.042-0.131
			c-0.032-0.088-0.049-0.132-0.049-0.132c-0.037-0.088-0.056-0.132-0.056-0.132c-0.21-0.458-0.422-0.769-0.656-1.116
			c-0.526-0.754-1.351-1.826-1.649-2.641c-0.037-0.099-0.054-0.148-0.054-0.148c-0.032-0.099-0.047-0.149-0.047-0.149
			c-0.028-0.1-0.04-0.15-0.04-0.15c-0.023-0.1-0.033-0.151-0.033-0.151c-0.018-0.101-0.021-0.126-0.021-0.126
			c-0.013-0.103-0.016-0.129-0.016-0.129c-0.008-0.107-0.01-0.134-0.01-0.134c-0.004-0.107-0.004-0.134-0.004-0.134
			c0.001-0.108,0.003-0.162,0.003-0.162c0.007-0.108,0.011-0.163,0.011-0.163c0.012-0.109,0.019-0.163,0.019-0.163
			c0.017-0.109,0.026-0.164,0.026-0.164c0.021-0.11,0.033-0.165,0.033-0.165c0.371-1.573,1.337-2.858,1.84-4.316
			c0.069-0.203,0.109-0.357,0.134-0.462c0.022-0.101,0.032-0.151,0.032-0.151c0.018-0.1,0.025-0.15,0.025-0.15
			c0.013-0.099,0.018-0.148,0.018-0.148c0.008-0.098,0.009-0.122,0.009-0.122c0.003-0.097,0.004-0.121,0.004-0.121
			c-0.001-0.096-0.002-0.12-0.002-0.12c-0.006-0.095-0.008-0.119-0.008-0.119c-0.013-0.108-0.016-0.129-0.016-0.129
			c-0.019-0.106-0.024-0.128-0.024-0.128c-0.02-0.084-0.031-0.126-0.031-0.126c-0.024-0.083-0.037-0.125-0.037-0.125
			c-0.028-0.083-0.044-0.124-0.044-0.124c-0.032-0.082-0.049-0.123-0.049-0.123c-0.036-0.081-0.055-0.122-0.055-0.122
			c-0.229-0.476-0.538-0.876-0.808-1.217l-0.76-0.929c-0.334-0.415-0.666-0.886-0.856-1.294c-0.039-0.085-0.058-0.128-0.058-0.128
			c-0.035-0.086-0.052-0.129-0.052-0.129c-0.032-0.087-0.047-0.13-0.047-0.13c-0.028-0.088-0.04-0.132-0.04-0.132
			c-0.023-0.089-0.034-0.134-0.034-0.134c-0.019-0.09-0.023-0.113-0.023-0.113c-0.015-0.091-0.018-0.114-0.018-0.114
			c-0.011-0.09-0.015-0.136-0.015-0.136c-0.006-0.091-0.008-0.137-0.008-0.137c-0.002-0.092-0.002-0.139-0.002-0.139
			c0.002-0.093,0.004-0.14,0.004-0.14c0.006-0.094,0.01-0.141,0.01-0.141c0.062-0.624,0.205-1.074,0.373-1.599
			c0.176-0.527,0.547-1.527,0.651-2.042c0.027-0.127,0.04-0.209,0.047-0.251c0.011-0.081,0.016-0.122,0.016-0.122
			c0.008-0.08,0.011-0.119,0.011-0.119c0.004-0.078,0.006-0.116,0.006-0.116c0-0.095,0-0.113,0-0.113
			c-0.007-0.11-0.008-0.128-0.008-0.128c-0.014-0.107-0.017-0.124-0.017-0.124c-0.023-0.103-0.027-0.12-0.027-0.12
			c-0.031-0.099-0.037-0.115-0.037-0.115c-0.048-0.11-0.056-0.125-0.056-0.125c-0.062-0.106-0.072-0.121-0.072-0.121
			c-0.075-0.1-0.086-0.114-0.086-0.114c-0.1-0.108-0.114-0.121-0.114-0.121c-0.099-0.089-0.115-0.102-0.115-0.102
			c-0.11-0.085-0.143-0.109-0.143-0.109c-0.103-0.069-0.138-0.092-0.138-0.092c-1.016-0.604-2.271-0.88-3.264-1.437
			c-0.174-0.096-0.299-0.177-0.381-0.232c-0.08-0.056-0.118-0.084-0.118-0.084c-0.076-0.058-0.114-0.087-0.114-0.087
			c-0.108-0.091-0.143-0.122-0.143-0.122c-0.101-0.096-0.117-0.113-0.117-0.113c-0.093-0.101-0.108-0.118-0.108-0.118
			c-0.085-0.106-0.099-0.125-0.099-0.125c-0.065-0.093-0.079-0.114-0.079-0.114c-0.065-0.108-0.077-0.131-0.077-0.131
			c-0.047-0.09-0.058-0.113-0.058-0.113c-0.042-0.093-0.052-0.117-0.052-0.117c-0.037-0.096-0.046-0.121-0.046-0.121
			c-0.049-0.145-0.061-0.195-0.077-0.252c-0.025-0.104-0.037-0.157-0.037-0.157c-0.021-0.107-0.03-0.161-0.03-0.161
			c-0.257-1.684,0.274-3.479-0.074-5.14c-0.026-0.111-0.04-0.165-0.04-0.165c-0.031-0.108-0.047-0.161-0.047-0.161
			c-0.036-0.105-0.045-0.131-0.045-0.131c-0.04-0.103-0.051-0.128-0.051-0.128c-0.045-0.1-0.057-0.125-0.057-0.125
			c-0.05-0.097-0.063-0.121-0.063-0.121c-0.055-0.094-0.069-0.118-0.069-0.118c-0.06-0.091-0.075-0.114-0.075-0.114
			c-0.07-0.095-0.09-0.12-0.09-0.12c-0.083-0.097-0.104-0.121-0.104-0.121c-0.089-0.093-0.113-0.116-0.113-0.116
			c-0.096-0.089-0.121-0.111-0.121-0.111c-0.103-0.086-0.129-0.107-0.129-0.107c-0.722-0.545-1.44-0.786-2.246-1.036
			c-0.882-0.272-2.83-0.66-3.752-0.867c-0.746-0.175-1.612-0.397-2.276-0.74c-0.11-0.059-0.163-0.09-0.163-0.09
			c-0.103-0.062-0.128-0.078-0.128-0.078c-0.096-0.065-0.12-0.082-0.12-0.082c-0.089-0.067-0.117-0.09-0.117-0.09
			c-0.108-0.094-0.134-0.118-0.134-0.118c-0.098-0.098-0.122-0.123-0.122-0.123c-0.089-0.102-0.111-0.128-0.111-0.128
			c-0.081-0.106-0.1-0.133-0.1-0.133c-0.074-0.109-0.091-0.137-0.091-0.137c-0.051-0.084-0.068-0.112-0.068-0.112
			c-0.326-0.571-0.494-1.215-0.796-1.755c-0.049-0.086-0.066-0.115-0.066-0.115c-0.053-0.085-0.071-0.113-0.071-0.113
			c-0.077-0.111-0.097-0.138-0.097-0.138c-0.084-0.108-0.106-0.134-0.106-0.134c-0.093-0.104-0.117-0.13-0.117-0.13
			c-0.102-0.101-0.129-0.125-0.129-0.125c-0.084-0.073-0.113-0.096-0.113-0.096c-0.09-0.07-0.122-0.093-0.122-0.093
			c-0.108-0.074-0.136-0.092-0.136-0.092c-0.086-0.053-0.116-0.071-0.116-0.071c-1.06-0.579-2.129-0.768-3.27-1.014
			c-2.174-0.463-5.088-0.737-6.992-1.901c-0.097-0.065-0.129-0.087-0.129-0.087c-0.093-0.067-0.123-0.09-0.123-0.09
			c-0.089-0.069-0.117-0.093-0.117-0.093c-0.111-0.096-0.138-0.121-0.138-0.121c-0.096-0.094-0.114-0.112-0.114-0.112
			c-0.087-0.095-0.104-0.114-0.104-0.114c-0.081-0.098-0.097-0.118-0.097-0.118c-0.06-0.081-0.089-0.122-0.089-0.122
			c-0.056-0.083-0.083-0.126-0.083-0.126c-0.051-0.086-0.076-0.129-0.076-0.129c-0.047-0.088-0.07-0.132-0.07-0.132
			c-0.043-0.09-0.064-0.135-0.064-0.135c-0.039-0.092-0.058-0.138-0.058-0.138c-0.036-0.093-0.053-0.14-0.053-0.14
			c-0.342-0.996-0.328-2.044-0.409-3.045c-0.034-0.451-0.101-0.948-0.209-1.305c-0.026-0.084-0.04-0.125-0.04-0.125
			c-0.029-0.082-0.044-0.122-0.044-0.122c-0.032-0.079-0.049-0.118-0.049-0.118c-0.045-0.095-0.054-0.114-0.054-0.114
			c-0.058-0.108-0.079-0.143-0.079-0.143c-0.065-0.103-0.088-0.136-0.088-0.136c-0.072-0.098-0.097-0.13-0.097-0.13
			c-0.078-0.094-0.105-0.124-0.105-0.124c-0.084-0.09-0.113-0.119-0.113-0.119c-0.089-0.086-0.12-0.114-0.12-0.114
			c-0.095-0.082-0.127-0.109-0.127-0.109c-0.1-0.079-0.134-0.104-0.134-0.104c-1.25-0.886-2.785-1.277-4.036-2.092
			c-1.454-0.91-2.477-2.302-3.851-3.247c-0.149-0.098-0.264-0.163-0.343-0.205c-0.077-0.04-0.115-0.059-0.115-0.059
			c-0.077-0.036-0.116-0.054-0.116-0.054c-0.077-0.033-0.116-0.048-0.116-0.048c-0.078-0.029-0.117-0.043-0.117-0.043
			c-0.078-0.025-0.118-0.037-0.118-0.037c-0.079-0.021-0.119-0.031-0.119-0.031c-0.099-0.021-0.119-0.024-0.119-0.024
			c-0.1-0.015-0.12-0.018-0.12-0.018c-0.101-0.009-0.121-0.011-0.121-0.011c-0.102-0.004-0.123-0.004-0.123-0.004
			c-0.082,0.001-0.124,0.003-0.124,0.003c-0.083,0.006-0.125,0.009-0.125,0.009c-0.084,0.01-0.126,0.016-0.126,0.016
			c-0.085,0.014-0.127,0.021-0.127,0.021c-0.085,0.017-0.128,0.027-0.128,0.027c-0.464,0.111-0.8,0.254-1.167,0.41
			c-1.202,0.539-2.578,1.221-3.876,1.314c-1.624,0.132-3.088-0.468-4.559-1.031c-0.869-0.345-2.219-0.917-3.103-1.18
			c-0.635-0.196-1.379-0.355-2.011-0.311c-0.111,0.008-0.166,0.013-0.166,0.013c-0.109,0.012-0.162,0.02-0.162,0.02
			c-0.107,0.017-0.16,0.026-0.16,0.026c-0.105,0.021-0.157,0.032-0.157,0.032c-0.103,0.025-0.154,0.038-0.154,0.038
			c-1.765,0.505-3.085,1.935-4.852,2.358c-1.149,0.287-2.175,0.216-3.283,0.102c-1.393-0.147-3.793-0.677-5.192-0.946
			c-1.37-0.243-2.953-0.55-4.295-0.262c-0.079,0.019-0.117,0.03-0.117,0.03c-0.076,0.022-0.114,0.033-0.114,0.033
			c-0.111,0.037-0.147,0.05-0.147,0.05c-0.106,0.042-0.14,0.057-0.14,0.057c-0.101,0.048-0.133,0.064-0.133,0.064
			c-0.096,0.053-0.127,0.072-0.127,0.072c-0.09,0.059-0.12,0.079-0.12,0.079c-0.085,0.065-0.112,0.087-0.112,0.087
			c-0.105,0.096-0.13,0.121-0.13,0.121c-0.098,0.109-0.114,0.129-0.114,0.129c-0.076,0.102-0.091,0.123-0.091,0.123
			c-0.07,0.109-0.083,0.132-0.083,0.132c-0.051,0.093-0.063,0.116-0.063,0.116c-0.047,0.097-0.058,0.122-0.058,0.122
			c-0.043,0.102-0.053,0.127-0.053,0.127c-0.03,0.079-0.049,0.133-0.049,0.133c-0.43,1.382-0.305,2.864-0.388,4.282
			c-0.044,0.93-0.132,1.996-0.506,2.83c-0.052,0.11-0.065,0.137-0.065,0.137c-0.056,0.106-0.071,0.132-0.071,0.132
			c-0.054,0.091-0.079,0.131-0.079,0.131c-0.051,0.077-0.077,0.115-0.077,0.115c-0.082,0.111-0.11,0.147-0.11,0.147
			c-0.088,0.105-0.118,0.139-0.118,0.139c-0.093,0.1-0.125,0.132-0.125,0.132c-0.098,0.095-0.131,0.126-0.131,0.126
			c-0.102,0.09-0.136,0.12-0.136,0.12c-0.105,0.086-0.141,0.114-0.141,0.114c-0.743,0.575-1.582,0.897-2.338,1.374
			c-0.092,0.061-0.122,0.082-0.122,0.082c-0.087,0.063-0.115,0.084-0.115,0.084c-0.108,0.086-0.133,0.108-0.133,0.108
			c-0.097,0.09-0.12,0.113-0.12,0.113c-0.095,0.106-0.105,0.118-0.105,0.118c-0.072,0.099-0.081,0.111-0.081,0.111
			c-0.06,0.104-0.067,0.117-0.067,0.117c-0.047,0.109-0.051,0.122-0.051,0.122c-0.031,0.103-0.034,0.116-0.034,0.116
			c-0.02,0.108-0.022,0.121-0.022,0.121c-0.01,0.098-0.01,0.112-0.01,0.112c-0.003,0.101-0.003,0.13-0.003,0.13
			c0.003,0.089,0.005,0.119,0.005,0.119c0.008,0.091,0.011,0.122,0.011,0.122c0.091,0.704,0.383,1.431,0.47,2.1
			c0.013,0.103,0.016,0.138,0.016,0.138c0.008,0.103,0.01,0.137,0.01,0.137c0.004,0.102,0.004,0.135,0.004,0.135
			c-0.002,0.1-0.003,0.134-0.003,0.134c-0.007,0.099-0.011,0.132-0.011,0.132c-0.014,0.098-0.016,0.114-0.016,0.114
			c-0.02,0.096-0.023,0.112-0.023,0.112c-0.031,0.11-0.036,0.126-0.036,0.126c-0.04,0.108-0.046,0.123-0.046,0.123
			c-0.049,0.105-0.057,0.12-0.057,0.12c-0.062,0.107-0.075,0.126-0.075,0.126c-0.066,0.094-0.081,0.113-0.081,0.113
			c-0.091,0.11-0.107,0.128-0.107,0.128c-0.103,0.107-0.121,0.124-0.121,0.124c-0.094,0.087-0.134,0.121-0.134,0.121
			c-0.082,0.068-0.124,0.101-0.124,0.101c-0.087,0.066-0.132,0.099-0.132,0.099c-1.406,0.977-3.284,1.422-4.673,2.359
			c-0.084,0.061-0.125,0.092-0.125,0.092c-0.078,0.062-0.116,0.093-0.116,0.093c-0.107,0.095-0.124,0.111-0.124,0.111
			c-0.096,0.098-0.11,0.114-0.11,0.114c-0.083,0.1-0.096,0.117-0.096,0.117c-0.07,0.103-0.081,0.121-0.081,0.121
			c-0.056,0.106-0.062,0.119-0.062,0.119c-0.04,0.102-0.045,0.115-0.045,0.115c-0.029,0.104-0.032,0.117-0.032,0.117
			c-0.018,0.107-0.02,0.12-0.02,0.12c-0.009,0.109-0.009,0.122-0.009,0.122c-0.001,0.097,0,0.124,0,0.124
			c0.005,0.084,0.008,0.112,0.008,0.112c0.01,0.085,0.014,0.113,0.014,0.113c0.014,0.086,0.02,0.114,0.02,0.114
			c0.109,0.544,0.336,1.033,0.462,1.544c0.02,0.085,0.026,0.113,0.026,0.113c0.016,0.084,0.021,0.111,0.021,0.111
			c0.016,0.11,0.019,0.137,0.019,0.137c0.008,0.108,0.009,0.134,0.009,0.134c-0.001,0.105-0.002,0.118-0.002,0.118
			c-0.01,0.103-0.012,0.116-0.012,0.116c-0.019,0.1-0.022,0.113-0.022,0.113c-0.034,0.11-0.039,0.122-0.039,0.122
			c-0.046,0.101-0.055,0.118-0.055,0.118c-0.065,0.104-0.078,0.121-0.078,0.121c-0.081,0.1-0.096,0.117-0.096,0.117
			c-0.096,0.097-0.113,0.112-0.113,0.112c-0.11,0.093-0.13,0.108-0.13,0.108c-0.102,0.075-0.123,0.09-0.123,0.09
			c-0.088,0.059-0.134,0.088-0.134,0.088c-0.095,0.057-0.144,0.085-0.144,0.085c-1.828,0.964-4.016,1.27-5.757,2.392
			c-0.111,0.075-0.165,0.113-0.165,0.113c-0.105,0.078-0.156,0.118-0.156,0.118c-0.099,0.081-0.147,0.122-0.147,0.122
			c-0.092,0.084-0.115,0.105-0.115,0.105c-0.107,0.108-0.128,0.13-0.128,0.13c-0.079,0.09-0.098,0.113-0.098,0.113
			c-0.078,0.099-0.091,0.117-0.091,0.117c-0.076,0.109-0.1,0.147-0.1,0.147c-0.046,0.075-0.067,0.113-0.067,0.113
			c-0.042,0.077-0.061,0.116-0.061,0.116c-0.038,0.078-0.056,0.118-0.056,0.118c-0.034,0.08-0.051,0.12-0.051,0.12
			c-0.031,0.081-0.046,0.122-0.046,0.122c-0.162,0.461-0.22,0.914-0.263,1.314c-0.029,0.292-0.088,1.035-0.138,1.299
			c-0.02,0.11-0.027,0.146-0.027,0.146c-0.023,0.106-0.032,0.141-0.032,0.141c-0.027,0.102-0.037,0.135-0.037,0.135
			c-0.032,0.097-0.044,0.129-0.044,0.129c-0.044,0.108-0.051,0.122-0.051,0.122c-0.051,0.101-0.058,0.115-0.058,0.115
			c-0.067,0.108-0.076,0.121-0.076,0.121c-0.088,0.11-0.099,0.122-0.099,0.122c-0.103,0.098-0.115,0.108-0.115,0.108
			C542.512,276.217,542.498,276.226,542.47,276.243z"/>
	</g>
	<g id="POLYLINE_752_">
		
			<path fill="none" stroke="#FB8604" stroke-width="2.75" stroke-linecap="round" stroke-linejoin="round" stroke-miterlimit="10" d="
			M530.522,272.732c-6.8,1.773-13.943,2.348-20.949,2.572c-5.504,0.176-15.864-0.135-21.372,0.045
			c-3.309,0.101-6.801,0.342-10.083,0.757c-4.1,0.504-8.671,1.403-12.724,2.256l-26.008,5.874
			c-12.123,2.505-24.614,4.466-37.012,3.468c-14.513-1.049-30.669-6.147-45.184-7.23c-5.867-0.444-11.841-0.257-17.63,0.831
			c-14.811,2.823-28.449,10.026-40.939,18.257c-10.207,6.811-19.897,14.678-28.865,23.045c-10.115,9.437-19.47,19.928-26.818,31.682
			c-4.669,7.431-8.597,15.48-11.731,23.674c-4.886,12.581-8.713,26.948-14.926,38.953c-2.176,4.139-4.751,8.152-8.031,11.506
			c-1.805,1.851-3.859,3.477-6.061,4.829c-4.604,2.838-9.825,4.566-15.057,5.827c-7.335,1.792-17.761,3.055-25.13,4.721
			c-9.543,2.109-18.815,5.788-26.913,11.3c-6.831,4.595-12.854,10.383-18.168,16.651c-4.949,5.866-9.502,12.242-13.261,18.938
			c-2.036,3.692-3.933,7.55-5.068,11.625c-0.698,2.665-1.263,5.892,0.441,8.218c0.085,0.11,0.129,0.164,0.129,0.164
			c0.089,0.106,0.135,0.158,0.135,0.158c0.094,0.102,0.142,0.152,0.142,0.152c0.098,0.098,0.148,0.146,0.148,0.146
			c0.102,0.094,0.154,0.14,0.154,0.14c0.106,0.09,0.16,0.134,0.16,0.134c1.564,1.213,3.467,1.472,5.355,1.487
			c2.269-0.014,4.559-0.43,6.779-0.869c5.04-1.003,11.027-2.727,16.156-2.645c2.331,0.029,4.643,0.623,6.722,1.673
			c3.95,1.963,7.167,5.34,11.065,7.391c2.892,1.58,6.161,2.468,9.459,2.511c2.303,0.048,4.623-0.287,6.88-0.724
			c3.492-0.671,9.516-2.32,13.016-3.196c3.436-0.828,7.001-1.605,10.535-1.789c2.467-0.13,4.968,0.107,7.405,0.486
			c3.879,0.63,8.626,1.626,12.54,1.377c3.514-0.154,6.971-1.167,10.3-2.242c2.247-0.728,6.846-2.406,9.088-2.906
			c0.686-0.157,1.554-0.308,2.216-0.265c0.087,0.006,0.13,0.01,0.13,0.01c0.084,0.01,0.124,0.015,0.124,0.015
			c0.08,0.013,0.119,0.02,0.119,0.02c0.076,0.016,0.113,0.025,0.113,0.025c0.107,0.03,0.142,0.041,0.142,0.041
			c0.099,0.037,0.131,0.051,0.131,0.051c0.091,0.044,0.12,0.06,0.12,0.06c0.109,0.07,0.121,0.078,0.121,0.078
			c0.107,0.09,0.117,0.1,0.117,0.1c0.093,0.103,0.102,0.114,0.102,0.114c0.073,0.103,0.081,0.114,0.081,0.114
			c0.064,0.111,0.077,0.137,0.077,0.137c0.049,0.106,0.06,0.133,0.06,0.133c0.032,0.084,0.043,0.112,0.043,0.112
			c0.029,0.087,0.038,0.117,0.038,0.117c0.129,0.44,0.183,0.924,0.257,1.354c0.029,0.171,0.083,0.426,0.115,0.542
			c0.027,0.099,0.037,0.131,0.037,0.131c0.031,0.097,0.041,0.128,0.041,0.128c0.034,0.094,0.046,0.125,0.046,0.125
			c0.038,0.092,0.052,0.122,0.052,0.122c0.043,0.089,0.058,0.118,0.058,0.118c0.048,0.086,0.065,0.113,0.065,0.113
			c0.072,0.109,0.081,0.122,0.081,0.122c0.081,0.103,0.091,0.115,0.091,0.115c0.093,0.099,0.119,0.124,0.119,0.124
			c0.084,0.074,0.113,0.098,0.113,0.098c0.092,0.068,0.124,0.09,0.124,0.09c0.1,0.063,0.134,0.083,0.134,0.083
			c0.107,0.057,0.144,0.075,0.144,0.075c0.076,0.035,0.115,0.051,0.115,0.051c0.08,0.032,0.12,0.047,0.12,0.047
			c0.083,0.029,0.126,0.043,0.126,0.043c0.087,0.026,0.131,0.039,0.131,0.039c0.09,0.024,0.136,0.035,0.136,0.035
			c1.282,0.271,2.483,0.088,3.729-0.161c2.134-0.467,4.193-1.296,6.137-2.281c3.745-1.91,7.144-4.529,9.897-7.71
			c2.598-2.92,5.065-6.798,7.221-10.077c0.841-1.244,1.817-2.776,2.882-3.8c0.111-0.101,0.147-0.133,0.147-0.133
			c0.109-0.091,0.144-0.12,0.144-0.12c0.107-0.082,0.142-0.107,0.142-0.107c0.105-0.071,0.139-0.094,0.139-0.094
			c0.103-0.061,0.137-0.08,0.137-0.08c0.101-0.051,0.134-0.066,0.134-0.066c0.099-0.04,0.132-0.051,0.132-0.051
			c0.097-0.029,0.13-0.036,0.13-0.036c0.096-0.017,0.127-0.021,0.127-0.021c0.094-0.006,0.125-0.006,0.125-0.006
			c0.092,0.006,0.123,0.01,0.123,0.01c0.1,0.02,0.114,0.024,0.114,0.024c0.11,0.037,0.124,0.043,0.124,0.043
			c0.108,0.051,0.121,0.058,0.121,0.058c0.106,0.064,0.12,0.073,0.12,0.073c0.092,0.066,0.118,0.086,0.118,0.086
			c0.104,0.087,0.129,0.11,0.129,0.11c0.102,0.098,0.128,0.123,0.128,0.123c0.396,0.407,0.8,1.006,1.131,1.441
			c0.146,0.195,0.391,0.494,0.527,0.633c0.082,0.084,0.11,0.112,0.11,0.112c0.084,0.079,0.112,0.105,0.112,0.105
			c0.085,0.073,0.114,0.097,0.114,0.097c0.087,0.067,0.116,0.088,0.116,0.088c0.103,0.07,0.118,0.079,0.118,0.079
			c0.105,0.061,0.12,0.069,0.12,0.069c0.107,0.051,0.123,0.057,0.123,0.057c0.11,0.04,0.126,0.045,0.126,0.045
			c0.096,0.026,0.128,0.033,0.128,0.033c0.098,0.016,0.131,0.02,0.131,0.02c0.1,0.007,0.134,0.008,0.134,0.008
			c0.102-0.002,0.136-0.004,0.136-0.004c0.104-0.011,0.139-0.016,0.139-0.016c0.106-0.02,0.141-0.028,0.141-0.028
			c0.107-0.029,0.143-0.04,0.143-0.04c0.109-0.037,0.146-0.051,0.146-0.051c0.111-0.046,0.148-0.062,0.148-0.062
			c0.075-0.035,0.112-0.054,0.112-0.054c0.075-0.04,0.113-0.06,0.113-0.06c0.999-0.583,1.719-1.455,2.366-2.272
			c0.773-1.006,1.461-2.106,2.087-3.208c2.639-4.701,4.48-9.862,5.875-15.057c0.662-2.471,2.198-8.932,3.011-11.25
			c0.263-0.763,0.626-1.684,1.04-2.314c0.075-0.111,0.1-0.147,0.1-0.147c0.076-0.102,0.101-0.135,0.101-0.135
			c0.077-0.093,0.103-0.123,0.103-0.123c0.104-0.111,0.13-0.137,0.13-0.137c0.106-0.095,0.133-0.117,0.133-0.117
			c0.108-0.08,0.135-0.098,0.135-0.098c0.11-0.063,0.138-0.077,0.138-0.077c0.084-0.036,0.112-0.047,0.112-0.047
			c0.085-0.026,0.114-0.033,0.114-0.033c0.105-0.018,0.117-0.02,0.117-0.02c0.107-0.007,0.119-0.007,0.119-0.007
			c0.108,0.004,0.12,0.005,0.12,0.005c0.097,0.012,0.122,0.016,0.122,0.016c0.098,0.02,0.123,0.025,0.123,0.025
			c0.1,0.026,0.125,0.034,0.125,0.034c0.1,0.033,0.151,0.051,0.151,0.051c0.102,0.039,0.152,0.06,0.152,0.06
			c0.315,0.134,0.606,0.286,0.881,0.418c0.156,0.074,0.261,0.118,0.313,0.139c0.104,0.041,0.156,0.06,0.156,0.06
			c0.103,0.035,0.129,0.043,0.129,0.043c0.103,0.03,0.129,0.036,0.129,0.036c0.102,0.023,0.128,0.028,0.128,0.028
			c0.102,0.016,0.127,0.018,0.127,0.018c0.101,0.007,0.113,0.008,0.113,0.008c0.1-0.001,0.112-0.002,0.112-0.002
			c0.099-0.01,0.111-0.012,0.111-0.012c0.103-0.02,0.125-0.026,0.125-0.026c0.089-0.027,0.112-0.035,0.112-0.035
			c0.111-0.046,0.133-0.057,0.133-0.057c0.109-0.059,0.131-0.072,0.131-0.072c0.108-0.071,0.13-0.087,0.13-0.087
			c0.107-0.083,0.128-0.101,0.128-0.101c0.106-0.095,0.127-0.115,0.127-0.115c0.105-0.106,0.125-0.129,0.125-0.129
			c0.083-0.093,0.124-0.142,0.124-0.142c0.082-0.102,0.123-0.155,0.123-0.155c0.506-0.684,0.802-1.313,1.141-2.06
			c0.811-1.817,1.968-5.371,2.652-7.28c1.773-4.948,4.547-10.504,6.367-15.441"/>
	</g>
	<g id="POLYLINE_751_">
		
			<path fill="none" stroke="#FB8604" stroke-width="2.75" stroke-linecap="round" stroke-linejoin="round" stroke-miterlimit="10" d="
			M493.499,429.145c-1.217,14.601-3.169,39.904-4.993,54.128c-0.228,2.318-0.353,4.742-0.294,7.07
			c0.068,2.596,0.351,5.214,1.011,7.73c0.454,1.723,1.098,3.42,1.979,4.97c0.488,0.99,5.111,7.181,5.83,8.222
			c0,0,3.863,5.215,3.863,5.215c0.053,0.069,0.107,0.138,0.107,0.138c0.362,0.46,0.754,0.829,1.135,1.144
			c1.328,1.068,2.75,1.655,4.328,2.124c1.467,0.424,3,0.674,4.518,0.831c1.016,0.103,2.16,0.169,3.181,0.196
			c8.096,0.046,25.789,0.003,33.741,0.017c0.099-0.003,0.116-0.004,0.116-0.004c0.1-0.01,0.117-0.012,0.117-0.012
			c0.101-0.017,0.118-0.02,0.118-0.02c0.085-0.019,0.119-0.028,0.119-0.028c0.102-0.03,0.137-0.042,0.137-0.042
			c0.103-0.038,0.138-0.052,0.138-0.052c0.104-0.046,0.139-0.062,0.139-0.062c0.105-0.054,0.14-0.073,0.14-0.073
			c0.106-0.061,0.141-0.083,0.141-0.083c0.107-0.069,0.142-0.094,0.142-0.094c0.108-0.077,0.143-0.104,0.143-0.104
			c0.108-0.085,0.145-0.114,0.145-0.114c1.152-0.996,1.819-2.142,2.551-3.39c0.606-1.084,1.188-2.211,1.526-3.411
			c0.441-1.505,0.54-3.114,0.261-4.658c-0.329-1.84-1.146-3.575-2.219-5.097c-1.142-1.615-2.658-2.96-4.382-3.927
			c-1.648-0.939-3.492-1.526-5.342-1.918c-2.668-0.589-5.411-0.962-8.142-1.048c-1.033-0.033-2.113-0.024-3.145,0.027
			c-0.922,0.055-1.869,0.129-2.792,0.061c-1.404-0.08-2.928-0.453-4.1-1.187c-1.257-0.772-2.097-1.847-2.695-3.084
			c-1.142-2.374-1.613-5.021-1.925-7.618c-0.736-6.403-0.225-12.933,0.693-19.292c0.878-5.941,2.063-12.015,3.562-17.833
			c1.979-7.637,4.586-15.265,7.554-22.573"/>
	</g>
	<g id="POLYLINE_750_">
		
			<path fill="none" stroke="#FB8604" stroke-width="2.75" stroke-linecap="round" stroke-linejoin="round" stroke-miterlimit="10" d="
			M304.443,455.287c-3.351,5.427-9.826,16.583-4.373,22.208c3.781,3.696,8.155,8.364,11.726,12.313
			c5.502,6.121,11.343,12.824,16.197,19.444c0.911,1.238,1.959,2.743,2.812,4.02c0.552,0.829,1.16,1.65,1.809,2.407
			c1.431,1.672,3.152,3.141,5.153,4.084c1.337,0.642,2.788,1.004,4.163,1.122c0.353,0.028,0.749,0.048,1.103,0.047
			c0,0,19.897,0,19.897,0h17.492c0.123-0.006,0.314,0,0.439-0.009c0.505-0.022,1.022-0.084,1.515-0.193
			c1.116-0.224,2.25-0.807,3.049-1.492c0.951-0.813,1.512-1.64,2.063-2.67c1.375-2.658,1.347-5.799,0.734-8.666
			c-0.438-2.027-1.092-4.042-2.18-5.819c-1.014-1.674-2.436-3.113-4.143-4.078c-1.114-0.638-2.341-1.071-3.579-1.394
			c-2.209-0.57-4.524-0.736-6.8-0.662c-1.253,0.042-2.558,0.163-3.799,0.335c-1.283,0.189-2.618,0.414-3.909,0.54
			c-3.422,0.329-7.024,0.396-10.269-0.894c-3.774-1.513-7.06-4.047-10.087-6.717c-2.749-2.475-5.424-5.173-7.27-8.406
			c-1.09-1.947-2.091-4.337-1.587-6.54c0.195-0.856,0.659-1.598,1.104-2.227c0.635-0.867,1.229-1.451,1.965-2.144
			c1.372-1.263,2.956-2.305,4.306-3.595c2.704-2.502,5.09-5.409,7.275-8.37"/>
	</g>
	<g id="POLYLINE_749_">
		
			<path fill="none" stroke="#FB8604" stroke-width="2.75" stroke-linecap="round" stroke-linejoin="round" stroke-miterlimit="10" d="
			M537.168,282.174c-4.079-4.315-7.278-9.535-8.907-15.265c-1.323-4.661-1.697-9.625-0.953-14.419
			c0.456-2.768,1.345-5.679,3.158-7.857c1.017-1.226,2.317-2.061,3.721-2.545c2.907-0.975,6.05-0.612,8.802,0.603
			c1.869,0.839,3.49,2.147,4.974,3.543c1.335,1.265,3.054,3.075,4.49,4.212c1.241,0.986,2.624,1.819,4.019,2.566l2.777,1.443"/>
	</g>
	<g id="POLYLINE_748_">
		
			<path fill="none" stroke="#FB8604" stroke-width="2.75" stroke-linecap="round" stroke-linejoin="round" stroke-miterlimit="10" d="
			M605.833,248.611c0.395-1.593,0.887-3.191,1.634-4.656c0.629-1.244,1.446-2.397,2.403-3.411c2.089-2.179,4.707-3.904,7.541-4.948
			c1.364-0.497,2.97-0.828,4.365-0.738c1.265,0.063,2.441,0.506,3.413,1.151c2.229,1.508,3.618,3.8,4.788,6.143
			c1.291,2.67,2.27,5.519,3.057,8.376c1.32,4.941,2.149,10.081,1.965,15.206c-0.112,3.034-0.693,6.06-1.45,8.994"/>
	</g>
	<g id="POLYLINE_736_">
		
			<path fill="none" stroke="#FB8604" stroke-width="2.75" stroke-linecap="round" stroke-linejoin="round" stroke-miterlimit="10" d="
			M601.877,330.902c-1.384-0.507-2.728-0.72-4.179-0.725c-1.414-0.003-3.062,0.319-4.174,1.163
			c-1.526,1.124-2.288,2.933-2.552,4.658c-0.178,1.153-0.14,2.438,0.185,3.479c0.218,0.711,0.567,1.329,1.001,1.808
			c0.102,0.109,0.137,0.145,0.137,0.145c0.108,0.105,0.145,0.139,0.145,0.139c0.076,0.067,0.114,0.1,0.114,0.1
			c0.078,0.065,0.118,0.097,0.118,0.097c0.081,0.063,0.123,0.094,0.123,0.094c0.085,0.06,0.128,0.09,0.128,0.09
			c0.088,0.058,0.132,0.086,0.132,0.086c0.091,0.055,0.137,0.083,0.137,0.083c0.094,0.053,0.142,0.079,0.142,0.079
			c0.765,0.404,1.579,0.579,2.35,0.674c0.915,0.104,1.761,0.09,2.664-0.001c2.073-0.237,4.341-0.881,5.905-2.278
			c2.002-1.821,1.91-4.932,0.779-7.108C604.363,332.205,603.125,331.359,601.877,330.902z"/>
	</g>
</g>
<g id="AG-OUTLINE">
	<g id="POLYLINE_130_">
		
			<path fill="none" stroke="#FB8604" stroke-width="3.5" stroke-linecap="round" stroke-linejoin="round" stroke-miterlimit="10" d="
			M530.522,272.732c-6.8,1.773-13.943,2.348-20.949,2.572c-5.504,0.176-15.864-0.135-21.372,0.045
			c-3.309,0.101-6.801,0.342-10.083,0.757c-4.1,0.504-8.671,1.403-12.724,2.256l-26.008,5.874
			c-12.123,2.505-24.614,4.466-37.012,3.468c-14.513-1.049-30.669-6.147-45.184-7.23c-5.867-0.444-11.841-0.257-17.63,0.831
			c-14.811,2.823-28.449,10.026-40.939,18.257c-10.207,6.811-19.897,14.678-28.865,23.045c-10.115,9.437-19.47,19.928-26.818,31.682
			c-4.669,7.431-8.597,15.48-11.731,23.674c-4.886,12.581-8.713,26.948-14.926,38.953c-2.176,4.139-4.751,8.152-8.031,11.506
			c-1.805,1.851-3.859,3.477-6.061,4.829c-4.604,2.838-9.825,4.566-15.057,5.827c-7.335,1.792-17.761,3.055-25.13,4.721
			c-9.543,2.109-18.815,5.788-26.913,11.3c-6.831,4.595-12.854,10.383-18.168,16.651c-4.949,5.866-9.502,12.242-13.261,18.938
			c-2.036,3.692-3.933,7.55-5.068,11.625c-0.698,2.665-1.263,5.892,0.441,8.218c0.085,0.11,0.129,0.164,0.129,0.164
			c0.089,0.106,0.135,0.158,0.135,0.158c0.094,0.102,0.142,0.152,0.142,0.152c0.098,0.098,0.148,0.146,0.148,0.146
			c0.102,0.094,0.154,0.14,0.154,0.14c0.106,0.09,0.16,0.134,0.16,0.134c1.564,1.213,3.467,1.472,5.355,1.487
			c2.269-0.014,4.559-0.43,6.779-0.869c5.04-1.003,11.027-2.727,16.156-2.645c2.331,0.029,4.643,0.623,6.722,1.673
			c3.95,1.963,7.167,5.34,11.065,7.391c2.892,1.58,6.161,2.468,9.459,2.511c2.303,0.048,4.623-0.287,6.88-0.724
			c3.492-0.671,9.516-2.32,13.016-3.196c3.436-0.828,7.001-1.605,10.535-1.789c2.467-0.13,4.968,0.107,7.405,0.486
			c3.879,0.63,8.626,1.626,12.54,1.377c3.514-0.154,6.971-1.167,10.3-2.242c2.247-0.728,6.846-2.406,9.088-2.906
			c0.686-0.157,1.554-0.308,2.216-0.265c0.087,0.006,0.13,0.01,0.13,0.01c0.084,0.01,0.124,0.015,0.124,0.015
			c0.08,0.013,0.119,0.02,0.119,0.02c0.076,0.016,0.113,0.025,0.113,0.025c0.107,0.03,0.142,0.041,0.142,0.041
			c0.099,0.037,0.131,0.051,0.131,0.051c0.091,0.044,0.12,0.06,0.12,0.06c0.109,0.07,0.121,0.078,0.121,0.078
			c0.107,0.09,0.117,0.1,0.117,0.1c0.093,0.103,0.102,0.114,0.102,0.114c0.073,0.103,0.081,0.114,0.081,0.114
			c0.064,0.111,0.077,0.137,0.077,0.137c0.049,0.106,0.06,0.133,0.06,0.133c0.032,0.084,0.043,0.112,0.043,0.112
			c0.029,0.087,0.038,0.117,0.038,0.117c0.129,0.44,0.183,0.924,0.257,1.354c0.029,0.171,0.083,0.426,0.115,0.542
			c0.027,0.099,0.037,0.131,0.037,0.131c0.031,0.097,0.041,0.128,0.041,0.128c0.034,0.094,0.046,0.125,0.046,0.125
			c0.038,0.092,0.052,0.122,0.052,0.122c0.043,0.089,0.058,0.118,0.058,0.118c0.048,0.086,0.065,0.113,0.065,0.113
			c0.072,0.109,0.081,0.122,0.081,0.122c0.081,0.103,0.091,0.115,0.091,0.115c0.093,0.099,0.119,0.124,0.119,0.124
			c0.084,0.074,0.113,0.098,0.113,0.098c0.092,0.068,0.124,0.09,0.124,0.09c0.1,0.063,0.134,0.083,0.134,0.083
			c0.107,0.057,0.144,0.075,0.144,0.075c0.076,0.035,0.115,0.051,0.115,0.051c0.08,0.032,0.12,0.047,0.12,0.047
			c0.083,0.029,0.126,0.043,0.126,0.043c0.087,0.026,0.131,0.039,0.131,0.039c0.09,0.024,0.136,0.035,0.136,0.035
			c1.282,0.271,2.483,0.088,3.729-0.161c2.134-0.467,4.193-1.296,6.137-2.281c3.745-1.91,7.144-4.529,9.897-7.71
			c2.598-2.92,5.065-6.798,7.221-10.077c0.841-1.244,1.817-2.776,2.882-3.8c0.111-0.101,0.147-0.133,0.147-0.133
			c0.109-0.091,0.144-0.12,0.144-0.12c0.107-0.082,0.142-0.107,0.142-0.107c0.105-0.071,0.139-0.094,0.139-0.094
			c0.103-0.061,0.137-0.08,0.137-0.08c0.101-0.051,0.134-0.066,0.134-0.066c0.099-0.04,0.132-0.051,0.132-0.051
			c0.097-0.029,0.13-0.036,0.13-0.036c0.096-0.017,0.127-0.021,0.127-0.021c0.094-0.006,0.125-0.006,0.125-0.006
			c0.092,0.006,0.123,0.01,0.123,0.01c0.1,0.02,0.114,0.024,0.114,0.024c0.11,0.037,0.124,0.043,0.124,0.043
			c0.108,0.051,0.121,0.058,0.121,0.058c0.106,0.064,0.12,0.073,0.12,0.073c0.092,0.066,0.118,0.086,0.118,0.086
			c0.104,0.087,0.129,0.11,0.129,0.11c0.102,0.098,0.128,0.123,0.128,0.123c0.396,0.407,0.8,1.006,1.131,1.441
			c0.146,0.195,0.391,0.494,0.527,0.633c0.082,0.084,0.11,0.112,0.11,0.112c0.084,0.079,0.112,0.105,0.112,0.105
			c0.085,0.073,0.114,0.097,0.114,0.097c0.087,0.067,0.116,0.088,0.116,0.088c0.103,0.07,0.118,0.079,0.118,0.079
			c0.105,0.061,0.12,0.069,0.12,0.069c0.107,0.051,0.123,0.057,0.123,0.057c0.11,0.04,0.126,0.045,0.126,0.045
			c0.096,0.026,0.128,0.033,0.128,0.033c0.098,0.016,0.131,0.02,0.131,0.02c0.1,0.007,0.134,0.008,0.134,0.008
			c0.102-0.002,0.136-0.004,0.136-0.004c0.104-0.011,0.139-0.016,0.139-0.016c0.106-0.02,0.141-0.028,0.141-0.028
			c0.107-0.029,0.143-0.04,0.143-0.04c0.109-0.037,0.146-0.051,0.146-0.051c0.111-0.046,0.148-0.062,0.148-0.062
			c0.075-0.035,0.112-0.054,0.112-0.054c0.075-0.04,0.113-0.06,0.113-0.06c0.999-0.583,1.719-1.455,2.366-2.272
			c0.773-1.006,1.461-2.106,2.087-3.208c2.639-4.701,4.48-9.862,5.875-15.057c0.662-2.471,2.198-8.932,3.011-11.25
			c0.263-0.763,0.626-1.684,1.04-2.314c0.075-0.111,0.1-0.147,0.1-0.147c0.076-0.102,0.101-0.135,0.101-0.135
			c0.077-0.093,0.103-0.123,0.103-0.123c0.104-0.111,0.13-0.137,0.13-0.137c0.106-0.095,0.133-0.117,0.133-0.117
			c0.108-0.08,0.135-0.098,0.135-0.098c0.11-0.063,0.138-0.077,0.138-0.077c0.084-0.036,0.112-0.047,0.112-0.047
			c0.085-0.026,0.114-0.033,0.114-0.033c0.105-0.018,0.117-0.02,0.117-0.02c0.107-0.007,0.119-0.007,0.119-0.007
			c0.108,0.004,0.12,0.005,0.12,0.005c0.097,0.012,0.122,0.016,0.122,0.016c0.098,0.02,0.123,0.025,0.123,0.025
			c0.1,0.026,0.125,0.034,0.125,0.034c0.1,0.033,0.151,0.051,0.151,0.051c0.102,0.039,0.152,0.06,0.152,0.06
			c0.315,0.134,0.606,0.286,0.881,0.418c0.156,0.074,0.261,0.118,0.313,0.139c0.104,0.041,0.156,0.06,0.156,0.06
			c0.103,0.035,0.129,0.043,0.129,0.043c0.103,0.03,0.129,0.036,0.129,0.036c0.102,0.023,0.128,0.028,0.128,0.028
			c0.102,0.016,0.127,0.018,0.127,0.018c0.101,0.007,0.113,0.008,0.113,0.008c0.1-0.001,0.112-0.002,0.112-0.002
			c0.099-0.01,0.111-0.012,0.111-0.012c0.103-0.02,0.125-0.026,0.125-0.026c0.089-0.027,0.112-0.035,0.112-0.035
			c0.111-0.046,0.133-0.057,0.133-0.057c0.109-0.059,0.131-0.072,0.131-0.072c0.108-0.071,0.13-0.087,0.13-0.087
			c0.107-0.083,0.128-0.101,0.128-0.101c0.106-0.095,0.127-0.115,0.127-0.115c0.105-0.106,0.125-0.129,0.125-0.129
			c0.083-0.093,0.124-0.142,0.124-0.142c0.082-0.102,0.123-0.155,0.123-0.155c0.506-0.684,0.802-1.313,1.141-2.06
			c0.811-1.817,1.968-5.371,2.652-7.28c1.773-4.948,4.547-10.504,6.367-15.441c0.809,0.386,1.91,0.818,2.626,1.323
			c0.102,0.073,0.152,0.11,0.152,0.11c0.099,0.076,0.148,0.115,0.148,0.115c0.096,0.08,0.143,0.121,0.143,0.121
			c0.092,0.085,0.138,0.128,0.138,0.128c0.089,0.089,0.132,0.135,0.132,0.135c0.085,0.094,0.126,0.142,0.126,0.142
			c0.066,0.081,0.091,0.113,0.091,0.113c0.074,0.098,0.098,0.131,0.098,0.131c0.07,0.102,0.093,0.137,0.093,0.137
			c0.067,0.106,0.089,0.142,0.089,0.142c0.464,0.784,0.685,1.593,0.86,2.393c0.202,0.96,0.312,1.981,0.396,2.958l0.355,5.202
			c0.208,2.481,0.577,5.007,1.596,7.298c-3.351,5.427-9.826,16.583-4.373,22.208c3.781,3.696,8.155,8.364,11.726,12.313
			c5.502,6.121,11.343,12.824,16.197,19.444c0.911,1.238,1.959,2.743,2.812,4.02c0.552,0.829,1.16,1.65,1.809,2.407
			c1.431,1.672,3.152,3.141,5.153,4.084c1.337,0.642,2.788,1.004,4.163,1.122c0.353,0.028,0.749,0.048,1.103,0.047
			c0,0,19.897,0,19.897,0h17.492c0.123-0.006,0.314,0,0.439-0.009c0.505-0.022,1.022-0.084,1.515-0.193
			c1.116-0.224,2.25-0.807,3.049-1.492c0.951-0.813,1.512-1.64,2.063-2.67c1.375-2.658,1.347-5.799,0.734-8.666
			c-0.438-2.027-1.092-4.042-2.18-5.819c-1.014-1.674-2.436-3.113-4.143-4.078c-1.114-0.638-2.341-1.071-3.579-1.394
			c-2.209-0.57-4.524-0.736-6.8-0.662c-1.253,0.042-2.558,0.163-3.799,0.335c-1.283,0.189-2.618,0.414-3.909,0.54
			c-3.422,0.329-7.024,0.396-10.269-0.894c-3.774-1.513-7.06-4.047-10.087-6.717c-2.749-2.475-5.424-5.173-7.27-8.406
			c-1.09-1.947-2.091-4.337-1.587-6.54c0.195-0.856,0.659-1.598,1.104-2.227c0.635-0.867,1.229-1.451,1.965-2.144
			c1.372-1.263,2.956-2.305,4.306-3.595c2.704-2.502,5.09-5.409,7.275-8.37c0.115,0.034,0.191,0.061,0.227,0.074
			c0.111,0.041,0.147,0.056,0.147,0.056c0.108,0.045,0.144,0.061,0.144,0.061c0.106,0.049,0.141,0.066,0.141,0.066
			c2.043,1.031,2.924,3.322,4.39,4.901c0.093,0.095,0.139,0.141,0.139,0.141c0.094,0.089,0.142,0.132,0.142,0.132
			c0.096,0.083,0.144,0.123,0.144,0.123c0.098,0.077,0.123,0.095,0.123,0.095c0.1,0.071,0.125,0.088,0.125,0.088
			c0.102,0.065,0.127,0.08,0.127,0.08c0.104,0.058,0.13,0.072,0.13,0.072c0.106,0.052,0.133,0.064,0.133,0.064
			c0.108,0.045,0.136,0.055,0.136,0.055c0.111,0.038,0.139,0.046,0.139,0.046c0.085,0.023,0.114,0.03,0.114,0.03
			c0.087,0.018,0.116,0.024,0.116,0.024c0.089,0.014,0.128,0.019,0.128,0.019c0.079,0.008,0.119,0.01,0.119,0.01
			c0.08,0.003,0.121,0.004,0.121,0.004c0.082-0.001,0.123-0.002,0.123-0.002c0.083-0.005,0.125-0.008,0.125-0.008
			c0.085-0.008,0.128-0.013,0.128-0.013c0.086-0.012,0.13-0.019,0.13-0.019c0.088-0.016,0.132-0.025,0.132-0.025
			c1.125-0.259,1.975-0.789,2.889-1.348c1.346-0.854,3.299-2.325,4.619-3.228c1.59-1.061,3.405-2.285,5.321-2.51
			c1.675-0.163,3.056,0.693,4.33,1.593c1.554,1.106,3.315,2.623,5.265,2.762c1.306,0.093,2.451-0.286,3.598-0.768
			c1.524-0.663,2.976-1.573,4.362-2.487c3.606-2.407,7.845-5.711,11.668-7.734c1.792-0.955,3.69-1.779,5.677-2.228
			c3.215-0.743,6.57-0.545,9.813-0.1c3.877,0.492,8.632,1.701,12.484,0.731c2.063-0.527,3.916-1.662,5.653-2.859
			c1.98-1.37,4.127-3.078,6.325-4.053c1.196-0.531,2.312-0.793,3.547-0.862c2.589-0.169,5.879,0.645,8.435,1.09
			c1.71,0.296,3.636,0.52,5.33,0.231c3.813-0.64,6.801-3.203,9.568-5.715c1.789-1.65,4.565-4.413,6.475-5.849
			c1.63-1.245,3.633-2.477,5.692-2.531c1.176-0.033,2.19,0.346,3.165,0.832c1.006,0.493,2.492,1.491,3.459,2.085
			c0.915,0.556,1.998,1.149,3.028,1.334c0.111,0.019,0.148,0.024,0.148,0.024c0.111,0.015,0.148,0.019,0.148,0.019
			c0.11,0.01,0.147,0.013,0.147,0.013c0.11,0.006,0.147,0.007,0.147,0.007c0.11,0.002,0.146,0.001,0.146,0.001
			c0.11-0.003,0.146-0.005,0.146-0.005c0.109-0.008,0.146-0.011,0.146-0.011c0.109-0.013,0.145-0.018,0.145-0.018
			c0.149-0.022,0.263-0.049,0.335-0.066c0.111-0.03,0.148-0.04,0.148-0.04c0.111-0.035,0.148-0.047,0.148-0.047
			c0.111-0.039,0.148-0.053,0.148-0.053c0.739-0.289,1.318-0.707,1.875-1.147c0.715-0.573,1.442-1.283,2.102-1.922
			c-1.217,14.601-3.169,39.904-4.993,54.128c-0.228,2.318-0.353,4.742-0.294,7.07c0.068,2.596,0.351,5.214,1.011,7.73
			c0.454,1.723,1.098,3.42,1.979,4.97c0.488,0.99,5.111,7.181,5.83,8.222c0,0,3.863,5.215,3.863,5.215
			c0.053,0.069,0.107,0.138,0.107,0.138c0.362,0.46,0.754,0.829,1.135,1.144c1.328,1.068,2.75,1.655,4.328,2.124
			c1.467,0.424,3,0.674,4.518,0.831c1.016,0.103,2.16,0.169,3.181,0.196c8.096,0.046,25.789,0.003,33.741,0.017
			c0.099-0.003,0.116-0.004,0.116-0.004c0.1-0.01,0.117-0.012,0.117-0.012c0.101-0.017,0.118-0.02,0.118-0.02
			c0.085-0.019,0.119-0.028,0.119-0.028c0.102-0.03,0.137-0.042,0.137-0.042c0.103-0.038,0.138-0.052,0.138-0.052
			c0.104-0.046,0.139-0.062,0.139-0.062c0.105-0.054,0.14-0.073,0.14-0.073c0.106-0.061,0.141-0.083,0.141-0.083
			c0.107-0.069,0.142-0.094,0.142-0.094c0.108-0.077,0.143-0.104,0.143-0.104c0.108-0.085,0.145-0.114,0.145-0.114
			c1.152-0.996,1.819-2.142,2.551-3.39c0.606-1.084,1.188-2.211,1.526-3.411c0.441-1.505,0.54-3.114,0.261-4.658
			c-0.329-1.84-1.146-3.575-2.219-5.097c-1.142-1.615-2.658-2.96-4.382-3.927c-1.648-0.939-3.492-1.526-5.342-1.918
			c-2.668-0.589-5.411-0.962-8.142-1.048c-1.033-0.033-2.113-0.024-3.145,0.027c-0.922,0.055-1.869,0.129-2.792,0.061
			c-1.404-0.08-2.928-0.453-4.1-1.187c-1.257-0.772-2.097-1.847-2.695-3.084c-1.142-2.374-1.613-5.021-1.925-7.618
			c-0.736-6.403-0.225-12.933,0.693-19.292c0.878-5.941,2.063-12.015,3.562-17.833c1.979-7.637,4.586-15.265,7.554-22.573
			c2.28,0.979,4.645,1.899,7.081,2.396c2.479,0.505,5.049,0.592,7.565,0.369c1.695-0.156,3.404-0.458,5.03-0.967
			c1.123-0.351,2.375-0.874,3.307-1.554c0.265-0.194,0.462-0.367,0.62-0.523c0.106-0.109,0.139-0.145,0.139-0.145
			c0.097-0.11,0.128-0.147,0.128-0.147c0.06-0.075,0.088-0.112,0.088-0.112c0.055-0.075,0.082-0.113,0.082-0.113
			c0.051-0.076,0.075-0.115,0.075-0.115c0.046-0.077,0.068-0.116,0.068-0.116c0.041-0.078,0.061-0.117,0.061-0.117
			c0.037-0.078,0.054-0.118,0.054-0.118c0.032-0.079,0.047-0.119,0.047-0.119c0.027-0.08,0.039-0.12,0.039-0.12
			c0.022-0.081,0.032-0.121,0.032-0.121c0.017-0.081,0.024-0.122,0.024-0.122c0.012-0.082,0.017-0.123,0.017-0.123
			c0.007-0.083,0.009-0.124,0.009-0.124c0.001-0.083,0.001-0.125,0.001-0.125c-0.004-0.084-0.007-0.126-0.007-0.126
			c-0.01-0.09-0.013-0.114-0.013-0.114c-0.016-0.096-0.021-0.12-0.021-0.12c-0.022-0.097-0.028-0.121-0.028-0.121
			c-0.027-0.097-0.034-0.121-0.034-0.121c-0.032-0.098-0.049-0.146-0.049-0.146c-0.038-0.098-0.058-0.147-0.058-0.147
			c-0.043-0.099-0.066-0.148-0.066-0.148c-0.048-0.099-0.073-0.148-0.073-0.148c-0.783-1.483-2.186-2.639-2.978-4.049
			c-0.044-0.086-0.065-0.129-0.065-0.129c-0.039-0.085-0.057-0.127-0.057-0.127c-0.041-0.104-0.048-0.125-0.048-0.125
			c-0.034-0.102-0.039-0.123-0.039-0.123c-0.026-0.1-0.03-0.12-0.03-0.12c-0.017-0.099-0.02-0.118-0.02-0.118
			c-0.009-0.097-0.009-0.116-0.009-0.116c0.001-0.107,0.004-0.139,0.004-0.139c0.012-0.093,0.018-0.124,0.018-0.124
			c0.023-0.091,0.032-0.12,0.032-0.12c0.033-0.088,0.046-0.118,0.046-0.118c0.043-0.086,0.059-0.115,0.059-0.115
			c0.053-0.084,0.073-0.112,0.073-0.112c0.085-0.109,0.109-0.136,0.109-0.136c0.101-0.106,0.128-0.132,0.128-0.132
			c0.086-0.077,0.116-0.103,0.116-0.103c0.095-0.075,0.128-0.1,0.128-0.1c1.067-0.731,2.267-1.017,3.453-1.336
			c4.821-1.146,10.695-1.768,15.458-3.117c1.878-0.528,3.771-1.165,5.517-2.041c1.265-0.64,2.618-1.496,3.441-2.598
			c0.074-0.102,0.098-0.137,0.098-0.137c0.069-0.103,0.091-0.138,0.091-0.138c0.064-0.104,0.085-0.139,0.085-0.139
			c0.059-0.105,0.078-0.14,0.078-0.14c0.054-0.106,0.071-0.141,0.071-0.141c0.048-0.107,0.064-0.142,0.064-0.142
			c0.043-0.108,0.057-0.144,0.057-0.144c0.038-0.108,0.049-0.145,0.049-0.145c0.032-0.109,0.042-0.146,0.042-0.146
			c0.027-0.11,0.035-0.147,0.035-0.147c0.021-0.111,0.027-0.148,0.027-0.148c0.011-0.074,0.015-0.112,0.015-0.112
			c0.008-0.075,0.011-0.112,0.011-0.112c0.005-0.075,0.007-0.113,0.007-0.113c0.002-0.076,0.002-0.113,0.002-0.113
			c-0.001-0.076-0.002-0.114-0.002-0.114c-0.004-0.076-0.006-0.115-0.006-0.115c-0.01-0.105-0.013-0.134-0.013-0.134
			c-0.107-0.784-0.412-1.401-0.759-2.055c-0.574-1.071-1.518-2.34-1.932-3.451c-0.035-0.102-0.052-0.152-0.052-0.152
			c-0.03-0.1-0.044-0.149-0.044-0.149c-0.024-0.098-0.03-0.123-0.03-0.123c-0.019-0.097-0.023-0.121-0.023-0.121
			c-0.014-0.095-0.017-0.119-0.017-0.119c-0.008-0.093-0.01-0.117-0.01-0.117c-0.003-0.092-0.003-0.115-0.003-0.115
			c0.003-0.09,0.005-0.112,0.005-0.112c0.013-0.11,0.016-0.132,0.016-0.132c0.023-0.107,0.028-0.129,0.028-0.129
			c0.033-0.105,0.04-0.125,0.04-0.125c0.039-0.092,0.052-0.118,0.052-0.118c0.055-0.101,0.07-0.125,0.07-0.125
			c0.066-0.098,0.084-0.122,0.084-0.122c0.077-0.095,0.098-0.118,0.098-0.118c0.087-0.092,0.111-0.115,0.111-0.115
			c0.097-0.09,0.123-0.112,0.123-0.112c0.107-0.087,0.135-0.109,0.135-0.109c0.086-0.064,0.116-0.085,0.116-0.085
			c0.79-0.533,1.54-0.799,2.388-1.126c2.238-0.842,5.085-1.617,6.848-3.261c0.106-0.103,0.14-0.138,0.14-0.138
			c0.101-0.106,0.134-0.141,0.134-0.141c0.194-0.218,0.285-0.341,0.39-0.491c0.058-0.087,0.086-0.131,0.086-0.131
			c0.055-0.089,0.081-0.133,0.081-0.133c0.536-0.942,0.689-1.872,0.752-2.86c0.055-1.013-0.029-2.052-0.14-3.059
			c-0.162-1.338-0.509-3.732-0.554-5.041c-0.053-1.131,0.035-2.462,0.474-3.456c0.776-1.738,2.353-2.706,3.916-3.532
			c2.456-1.289,5.466-2.149,7.608-3.944c1.895-1.594,2.862-3.993,4.211-5.999c0.76-1.14,1.73-2.057,2.892-2.686
			c2.302-1.324,5.353-1.955,7.353-3.74c0.102-0.096,0.148-0.141,0.148-0.141c0.957-0.974,1.417-2.028,1.759-3.271
			c0.377-1.43,0.475-2.936,0.527-4.409c-0.326-2.215-0.473-4.8,0.69-6.785c0.06-0.096,0.09-0.144,0.09-0.144
			c0.063-0.094,0.095-0.14,0.095-0.14c0.066-0.091,0.1-0.136,0.1-0.136c0.07-0.089,0.106-0.133,0.106-0.133
			c0.075-0.089,0.114-0.133,0.114-0.133c0.079-0.086,0.119-0.129,0.119-0.129c1.578-1.586,3.894-2.177,5.588-3.507
			c0.229-0.181,0.4-0.339,0.524-0.464c0.08-0.083,0.119-0.124,0.119-0.124c0.075-0.083,0.11-0.124,0.11-0.124
			c0.07-0.083,0.104-0.126,0.104-0.126c1.206-1.578,1.328-3.493,1.419-5.358c0.038-1.712,0.093-3.783,0.015-5.492
			c1.217-0.917,2.559-2.01,3.307-3.321c0.059-0.108,0.077-0.144,0.077-0.144c0.054-0.108,0.071-0.144,0.071-0.144
			c0.049-0.109,0.064-0.145,0.064-0.145c0.044-0.109,0.057-0.145,0.057-0.145c0.038-0.109,0.05-0.145,0.05-0.145
			c0.033-0.109,0.043-0.146,0.043-0.146c0.027-0.109,0.036-0.146,0.036-0.146c0.022-0.11,0.028-0.146,0.028-0.146
			c0.015-0.1,0.021-0.149,0.021-0.149c0.009-0.1,0.013-0.15,0.013-0.15c0.005-0.1,0.006-0.15,0.006-0.15
			c0-0.1-0.001-0.15-0.001-0.15c-0.004-0.1-0.008-0.15-0.008-0.15c-0.008-0.1-0.014-0.15-0.014-0.15
			c-0.138-1.185-0.728-2.209-1.034-3.293c-0.034-0.125-0.051-0.208-0.06-0.249c-0.016-0.081-0.023-0.121-0.023-0.121
			c-0.012-0.08-0.018-0.119-0.018-0.119c-0.009-0.078-0.012-0.117-0.012-0.117c-0.005-0.096-0.006-0.115-0.006-0.115
			c0-0.094,0.001-0.113,0.001-0.113c0.008-0.11,0.01-0.129,0.01-0.129c0.017-0.108,0.02-0.125,0.02-0.125
			c0.026-0.105,0.031-0.122,0.031-0.122c0.036-0.102,0.042-0.118,0.042-0.118c0.046-0.099,0.054-0.115,0.054-0.115
			c0.065-0.108,0.079-0.128,0.079-0.128c0.074-0.097,0.09-0.117,0.09-0.117c0.086-0.094,0.105-0.112,0.105-0.112
			c0.098-0.091,0.118-0.108,0.118-0.108c0.109-0.087,0.131-0.105,0.131-0.105c0.094-0.068,0.143-0.101,0.143-0.101
			c0.102-0.065,0.155-0.097,0.155-0.097c1.754-0.986,3.976-1.244,5.771-2.107c0.109-0.056,0.162-0.085,0.162-0.085
			c0.102-0.058,0.151-0.087,0.151-0.087c0.095-0.06,0.117-0.075,0.117-0.075c0.109-0.077,0.13-0.092,0.13-0.092
			c0.098-0.079,0.117-0.095,0.117-0.095c0.103-0.099,0.119-0.116,0.119-0.116c0.086-0.103,0.099-0.12,0.099-0.12
			c0.068-0.107,0.077-0.126,0.077-0.126c0.044-0.099,0.05-0.115,0.05-0.115c0.028-0.096,0.031-0.113,0.031-0.113
			c0.016-0.099,0.017-0.116,0.017-0.116c0.004-0.103,0.004-0.12,0.004-0.12c-0.007-0.105-0.009-0.123-0.009-0.123
			c-0.017-0.108-0.021-0.126-0.021-0.126c-0.027-0.111-0.032-0.129-0.032-0.129c-0.029-0.094-0.043-0.132-0.043-0.132
			c-0.029-0.077-0.044-0.116-0.044-0.116c-0.033-0.078-0.051-0.118-0.051-0.118c-0.516-1.082-1.416-2.068-1.824-3.152
			c-0.034-0.093-0.05-0.14-0.05-0.14c-0.03-0.093-0.043-0.139-0.043-0.139c-0.025-0.093-0.036-0.139-0.036-0.139
			c-0.02-0.093-0.024-0.116-0.024-0.116c-0.015-0.092-0.019-0.115-0.019-0.115c-0.011-0.092-0.013-0.115-0.013-0.115
			c-0.006-0.092-0.007-0.115-0.007-0.115c-0.001-0.091,0-0.114,0-0.114c0.005-0.091,0.006-0.114,0.006-0.114
			c0.012-0.106,0.016-0.133,0.016-0.133c0.02-0.106,0.026-0.132,0.026-0.132c0.027-0.105,0.035-0.132,0.035-0.132
			c0.034-0.105,0.043-0.131,0.043-0.131c0.041-0.104,0.052-0.13,0.052-0.13c0.047-0.104,0.06-0.129,0.06-0.129
			c0.053-0.103,0.067-0.129,0.067-0.129c0.044-0.077,0.074-0.128,0.074-0.128c0.064-0.102,0.098-0.153,0.098-0.153
			c0.07-0.102,0.107-0.152,0.107-0.152c0.755-1.003,1.86-1.829,2.755-2.633c0.424-0.374,0.888-0.825,1.17-1.184
			c0.073-0.095,0.109-0.142,0.109-0.142c0.068-0.095,0.1-0.142,0.1-0.142c0.061-0.095,0.076-0.118,0.076-0.118
			c0.056-0.095,0.069-0.119,0.069-0.119c0.05-0.095,0.061-0.119,0.061-0.119c0.044-0.095,0.054-0.119,0.054-0.119
			c0.037-0.095,0.045-0.119,0.045-0.119c0.03-0.095,0.037-0.119,0.037-0.119c0.023-0.096,0.028-0.117,0.028-0.117
			c0.018-0.107,0.02-0.129,0.02-0.129c0.009-0.108,0.01-0.129,0.01-0.129c0.001-0.108,0-0.129,0-0.129
			c-0.007-0.108-0.009-0.13-0.009-0.13c-0.014-0.108-0.018-0.13-0.018-0.13c-0.021-0.109-0.026-0.13-0.026-0.13
			c-0.028-0.109-0.04-0.153-0.04-0.153c-0.028-0.087-0.042-0.131-0.042-0.131c-0.032-0.088-0.049-0.132-0.049-0.132
			c-0.037-0.088-0.056-0.132-0.056-0.132c-0.21-0.458-0.422-0.769-0.656-1.116c-0.526-0.754-1.351-1.826-1.649-2.641
			c-0.037-0.099-0.054-0.148-0.054-0.148c-0.032-0.099-0.047-0.149-0.047-0.149c-0.028-0.1-0.04-0.15-0.04-0.15
			c-0.023-0.1-0.033-0.151-0.033-0.151c-0.018-0.101-0.021-0.126-0.021-0.126c-0.013-0.103-0.016-0.129-0.016-0.129
			c-0.008-0.107-0.01-0.134-0.01-0.134c-0.004-0.107-0.004-0.134-0.004-0.134c0.001-0.108,0.003-0.162,0.003-0.162
			c0.007-0.108,0.011-0.163,0.011-0.163c0.012-0.109,0.019-0.163,0.019-0.163c0.017-0.109,0.026-0.164,0.026-0.164
			c0.021-0.11,0.033-0.165,0.033-0.165c0.371-1.573,1.337-2.858,1.84-4.316c0.069-0.203,0.109-0.357,0.134-0.462
			c0.022-0.101,0.032-0.151,0.032-0.151c0.018-0.1,0.025-0.15,0.025-0.15c0.013-0.099,0.018-0.148,0.018-0.148
			c0.008-0.098,0.009-0.122,0.009-0.122c0.003-0.097,0.004-0.121,0.004-0.121c-0.001-0.096-0.002-0.12-0.002-0.12
			c-0.006-0.095-0.008-0.119-0.008-0.119c-0.013-0.108-0.016-0.129-0.016-0.129c-0.019-0.106-0.024-0.128-0.024-0.128
			c-0.02-0.084-0.031-0.126-0.031-0.126c-0.024-0.083-0.037-0.125-0.037-0.125c-0.028-0.083-0.044-0.124-0.044-0.124
			c-0.032-0.082-0.049-0.123-0.049-0.123c-0.036-0.081-0.055-0.122-0.055-0.122c-0.229-0.476-0.538-0.876-0.808-1.217l-0.76-0.929
			c-0.334-0.415-0.666-0.886-0.856-1.294c-0.039-0.085-0.058-0.128-0.058-0.128c-0.035-0.086-0.052-0.129-0.052-0.129
			c-0.032-0.087-0.047-0.13-0.047-0.13c-0.028-0.088-0.04-0.132-0.04-0.132c-0.023-0.089-0.034-0.134-0.034-0.134
			c-0.019-0.09-0.023-0.113-0.023-0.113c-0.015-0.091-0.018-0.114-0.018-0.114c-0.011-0.09-0.015-0.136-0.015-0.136
			c-0.006-0.091-0.008-0.137-0.008-0.137c-0.002-0.092-0.002-0.139-0.002-0.139c0.002-0.093,0.004-0.14,0.004-0.14
			c0.006-0.094,0.01-0.141,0.01-0.141c0.062-0.624,0.205-1.074,0.373-1.599c0.176-0.527,0.547-1.527,0.651-2.042
			c0.027-0.127,0.04-0.209,0.047-0.251c0.011-0.081,0.016-0.122,0.016-0.122c0.008-0.08,0.011-0.119,0.011-0.119
			c0.004-0.078,0.006-0.116,0.006-0.116c0-0.095,0-0.113,0-0.113c-0.007-0.11-0.008-0.128-0.008-0.128
			c-0.014-0.107-0.017-0.124-0.017-0.124c-0.023-0.103-0.027-0.12-0.027-0.12c-0.031-0.099-0.037-0.115-0.037-0.115
			c-0.048-0.11-0.056-0.125-0.056-0.125c-0.06-0.102-0.068-0.114-0.068-0.114c-0.081-0.108-0.091-0.12-0.091-0.12
			c-0.095-0.103-0.106-0.114-0.106-0.114c-0.107-0.097-0.133-0.118-0.133-0.118c-0.106-0.082-0.134-0.102-0.134-0.102
			c-0.086-0.059-0.116-0.078-0.116-0.078c-0.092-0.056-0.123-0.075-0.123-0.075c-1.054-0.589-2.382-0.882-3.38-1.502
			c-0.105-0.067-0.139-0.089-0.139-0.089c-0.101-0.07-0.134-0.094-0.134-0.094c0.757-2.935,1.338-5.96,1.45-8.994
			c0.184-5.125-0.645-10.265-1.965-15.206c-0.787-2.857-1.766-5.705-3.057-8.376c-1.16-2.356-2.707-4.832-4.951-6.247
			c-2.343-1.52-5.176-1.193-7.616-0.309c-2.834,1.044-5.451,2.769-7.541,4.948c-0.957,1.014-1.774,2.167-2.403,3.411
			c-0.747,1.465-1.24,3.064-1.634,4.656c-1.183-0.565-2.713-1.154-3.693-1.974c-1.084-0.842-2.027-1.985-3.142-2.743
			c-0.149-0.098-0.264-0.163-0.343-0.205c-0.077-0.04-0.115-0.059-0.115-0.059c-0.077-0.036-0.116-0.054-0.116-0.054
			c-0.077-0.033-0.116-0.048-0.116-0.048c-0.078-0.029-0.117-0.043-0.117-0.043c-0.078-0.025-0.118-0.037-0.118-0.037
			c-0.079-0.021-0.119-0.031-0.119-0.031c-0.099-0.021-0.119-0.024-0.119-0.024c-0.1-0.015-0.12-0.018-0.12-0.018
			c-0.101-0.009-0.121-0.011-0.121-0.011c-0.102-0.004-0.123-0.004-0.123-0.004c-0.082,0.001-0.124,0.003-0.124,0.003
			c-0.083,0.006-0.125,0.009-0.125,0.009c-0.084,0.01-0.126,0.016-0.126,0.016c-0.085,0.014-0.127,0.021-0.127,0.021
			c-0.085,0.017-0.128,0.027-0.128,0.027c-0.464,0.111-0.8,0.254-1.167,0.41c-1.202,0.539-2.578,1.221-3.876,1.314
			c-1.624,0.132-3.088-0.468-4.559-1.031c-0.869-0.345-2.219-0.917-3.103-1.18c-0.635-0.196-1.379-0.355-2.011-0.311
			c-0.111,0.008-0.166,0.013-0.166,0.013c-0.109,0.012-0.162,0.02-0.162,0.02c-0.107,0.017-0.16,0.026-0.16,0.026
			c-0.105,0.021-0.157,0.032-0.157,0.032c-0.103,0.025-0.154,0.038-0.154,0.038c-1.765,0.505-3.085,1.935-4.852,2.358
			c-1.149,0.287-2.175,0.216-3.283,0.102c-1.393-0.147-3.793-0.677-5.192-0.946c-1.37-0.243-2.953-0.55-4.295-0.262
			c-0.079,0.019-0.117,0.03-0.117,0.03c-0.076,0.022-0.114,0.033-0.114,0.033c-0.111,0.037-0.147,0.05-0.147,0.05
			c-0.106,0.042-0.14,0.057-0.14,0.057c-0.101,0.048-0.133,0.064-0.133,0.064c-0.096,0.053-0.127,0.072-0.127,0.072
			c-0.09,0.059-0.12,0.079-0.12,0.079c-0.085,0.065-0.112,0.087-0.112,0.087c-0.105,0.096-0.13,0.121-0.13,0.121
			c-0.098,0.109-0.114,0.129-0.114,0.129c-0.076,0.102-0.091,0.123-0.091,0.123c-0.07,0.109-0.083,0.132-0.083,0.132
			c-0.051,0.093-0.063,0.116-0.063,0.116c-0.047,0.097-0.058,0.122-0.058,0.122c-0.043,0.102-0.053,0.127-0.053,0.127
			c-0.03,0.079-0.049,0.133-0.049,0.133c-0.43,1.382-0.305,2.864-0.388,4.282c-0.044,0.93-0.132,1.996-0.506,2.83
			c-0.052,0.11-0.065,0.137-0.065,0.137c-0.056,0.106-0.071,0.132-0.071,0.132c-0.049,0.084-0.069,0.116-0.069,0.116
			c-0.061,0.094-0.083,0.124-0.083,0.124c-0.066,0.09-0.088,0.119-0.088,0.119c-0.069,0.086-0.093,0.114-0.093,0.114
			c-0.098,0.11-0.123,0.136-0.123,0.136c-0.103,0.104-0.129,0.129-0.129,0.129c-0.411,0.383-0.768,0.599-1.189,0.841l-2.777-1.443
			c-1.659-0.886-3.284-1.894-4.703-3.134c-2.073-1.814-4.092-4.18-6.349-5.771c-1.289-0.929-2.735-1.659-4.269-2.084
			c-2.648-0.757-5.771-0.694-8.199,0.597c-2.024,1.056-3.31,2.833-4.199,4.811c-1.029,2.321-1.515,4.86-1.721,7.379
			C526.559,260.954,527.771,267.22,530.522,272.732z"/>
	</g>
</g>
</svg>
