<?xml version="1.0" encoding="utf-8"?>
<!-- Generator: Adobe Illustrator 24.2.0, SVG Export Plug-In . SVG Version: 6.00 Build 0)  -->
<!DOCTYPE svg PUBLIC "-//W3C//DTD SVG 1.1//EN" "http://www.w3.org/Graphics/SVG/1.1/DTD/svg11.dtd" [
	<!ENTITY ns_flows "http://ns.adobe.com/Flows/1.0/">
	<!ENTITY ns_extend "http://ns.adobe.com/Extensibility/1.0/">
	<!ENTITY ns_ai "http://ns.adobe.com/AdobeIllustrator/10.0/">
	<!ENTITY ns_graphs "http://ns.adobe.com/Graphs/1.0/">
	<!ENTITY ns_vars "http://ns.adobe.com/Variables/1.0/">
	<!ENTITY ns_imrep "http://ns.adobe.com/ImageReplacement/1.0/">
	<!ENTITY ns_sfw "http://ns.adobe.com/SaveForWeb/1.0/">
	<!ENTITY ns_custom "http://ns.adobe.com/GenericCustomNamespace/1.0/">
	<!ENTITY ns_adobe_xpath "http://ns.adobe.com/XPath/1.0/">
]>
<svg version="1.1" xmlns:x="&ns_extend;" xmlns:i="&ns_ai;" xmlns:graph="&ns_graphs;"
	 xmlns="http://www.w3.org/2000/svg" xmlns:xlink="http://www.w3.org/1999/xlink" xmlns:a="http://ns.adobe.com/AdobeSVGViewerExtensions/3.0/"
	 x="0px" y="0px" width="750px" height="750px" viewBox="0 0 750 750" enable-background="new 0 0 750 750" xml:space="preserve">
<metadata>
	<sfw  xmlns="&ns_sfw;">
		<slices></slices>
		<sliceSourceBounds  bottomLeftOrigin="true" height="8679.549" width="4524.284" x="-3147.284" y="-526"></sliceSourceBounds>
	</sfw>
</metadata>
<g id="FILL-BACKGROUND">
	<rect fill="#FFFFFF" width="750" height="750"/>
</g>
<g id="N-TEXT">
</g>
<g id="N-DIMENSIONS">
</g>
<g id="AG-DIAGRAM">
	<g id="POLYLINE_496_">
		<g>
			<g>
				
					<line fill="none" stroke="#FB8604" stroke-width="3.25" stroke-linecap="round" stroke-linejoin="round" x1="136.026" y1="539.646" x2="138.026" y2="539.646"/>
				
					<line fill="none" stroke="#FB8604" stroke-width="3.25" stroke-linecap="round" stroke-linejoin="round" stroke-dasharray="3.9914,6.9849" x1="145.01" y1="539.646" x2="536.662" y2="539.646"/>
				
					<line fill="none" stroke="#FB8604" stroke-width="3.25" stroke-linecap="round" stroke-linejoin="round" x1="540.155" y1="539.646" x2="542.155" y2="539.646"/>
			</g>
		</g>
	</g>
</g>
<g id="AG-DETAILS">
	<g id="POLYLINE_114_">
		<path fill="none" stroke="#FB8604" stroke-width="2" stroke-linecap="round" stroke-linejoin="round" stroke-miterlimit="10" d="
			M584.753,396.184l-9.653-0.668c-5.278-0.306-10.664-0.245-15.914,0.387c-9.662,1.155-19.265,3.781-28.527,6.716
			c-13.941,4.507-27.744,10.251-40.732,17.036c-11.05,5.828-21.855,12.544-31.352,20.692"/>
	</g>
	<g id="POLYLINE_113_">
		<path fill="none" stroke="#FB8604" stroke-width="2" stroke-linecap="round" stroke-linejoin="round" stroke-miterlimit="10" d="
			M603.89,404.175c-1.677,2.441-3.648,5.012-5.008,7.641c-2.298,4.36-4.032,9.142-5.647,13.793
			c-3.384,10.014-6.073,20.432-7.884,30.848c-1.412,8.386-2.346,17.02-1.86,25.528"/>
	</g>
	<g id="POLYLINE_111_">
		<path fill="none" stroke="#FB8604" stroke-width="2" stroke-linecap="round" stroke-linejoin="round" stroke-miterlimit="10" d="
			M592.534,402.914c-21.685,9.564-44.289,28.307-56.804,48.516c-3.427,5.57-6.221,11.614-8.309,17.81
			c-2.382,7.025-3.929,14.474-5.126,21.789"/>
	</g>
</g>
<g id="AG-ANIMALS">
	<g id="POLYLINE_317_">
		
			<path fill="none" stroke="#FB8604" stroke-width="2.75" stroke-linecap="round" stroke-linejoin="round" stroke-miterlimit="10" d="
			M638.473,409.784c0.923-3.868,1.381-7.892,1.583-11.86c0.292-5.915-0.04-11.937-0.888-17.796
			c-2.386-16.891-9.305-32.818-17.688-47.553c-4.867-8.555-10.434-17.105-16.146-25.116c-5.434-7.617-11.397-15.061-18.229-21.473
			c-8.362-7.904-18.065-14.395-28.187-19.82c-11.384-6.055-23.545-10.925-36.099-13.919"/>
	</g>
	<g id="POLYLINE_310_">
		
			<path fill="none" stroke="#FB8604" stroke-width="2.75" stroke-linecap="round" stroke-linejoin="round" stroke-miterlimit="10" d="
			M496.88,388.81c8.687,17.28,20.807,33.06,39.219,40.504c7.585,3.137,15.711,4.993,23.827,6.118
			c10.626,1.445,21.51,1.659,32.213,1.174c7.581-0.382,15.309-1.12,22.649-3.121c5.245-1.454,10.45-3.613,14.58-7.236"/>
	</g>
	<g id="POLYLINE_309_">
		
			<path fill="none" stroke="#FB8604" stroke-width="2.75" stroke-linecap="round" stroke-linejoin="round" stroke-miterlimit="10" d="
			M352.93,522.005c6.604,0.498,13.445,1.57,19.961,2.757"/>
	</g>
	<g id="POLYLINE_308_">
		
			<path fill="none" stroke="#FB8604" stroke-width="2.75" stroke-linecap="round" stroke-linejoin="round" stroke-miterlimit="10" d="
			M382.161,504.387c-4.118,6.298-7.923,13.115-9.309,20.588c-0.467,2.708-0.607,5.562,0.005,8.254
			c0.328,1.427,0.923,2.727,1.802,3.759c0.876,1.042,2.061,1.739,3.244,2.128c1.188,0.383,2.213,0.496,3.379,0.526
			c15.224-0.002,45.964,0.027,61.385-0.017c1.711-0.036,4.143-0.103,5.857-0.221c3.136-0.21,6.354-0.532,9.416-1.262
			c1.899-0.464,4.001-1.141,5.509-2.344c0.125-0.104,0.165-0.139,0.165-0.139c0.118-0.106,0.156-0.141,0.156-0.141
			c0.111-0.107,0.147-0.144,0.147-0.144c0.105-0.109,0.138-0.146,0.138-0.146c0.098-0.111,0.129-0.148,0.129-0.148
			c0.091-0.113,0.121-0.151,0.121-0.151c0.085-0.115,0.112-0.153,0.112-0.153c1.015-1.56,1.693-3.291,2.214-5.067
			c0.83-2.894,1.214-5.927,1.403-8.926c0.14-2.382,0.187-4.818-0.106-7.19c-0.193-1.503-0.55-3.151-1.317-4.444
			c-0.078-0.126-0.117-0.188-0.117-0.188c-0.08-0.12-0.121-0.179-0.121-0.179c-0.083-0.115-0.126-0.17-0.126-0.17
			c-0.086-0.109-0.13-0.161-0.13-0.161c-0.089-0.103-0.134-0.153-0.134-0.153c-0.092-0.097-0.139-0.144-0.139-0.144
			c-0.095-0.091-0.143-0.135-0.143-0.135c-0.098-0.085-0.147-0.126-0.147-0.126c-0.101-0.079-0.151-0.117-0.151-0.117
			c-0.103-0.073-0.156-0.108-0.156-0.108c-0.106-0.067-0.16-0.099-0.16-0.099c-0.111-0.062-0.17-0.093-0.17-0.093
			c-1.3-0.615-2.639-0.942-4.003-1.327c-8.868-2.305-21.017-4.427-30.105-6.157"/>
	</g>
	<g id="POLYLINE_307_">
		
			<path fill="none" stroke="#FB8604" stroke-width="2.75" stroke-linecap="round" stroke-linejoin="round" stroke-miterlimit="10" d="
			M309.424,511.514c10.589,0.006,22.004-0.211,32.484,1.244c1.754,0.297,3.729,0.629,5.293,1.45
			c1.809,1.058,3.289,2.585,4.316,4.379c1.052,1.827,1.648,3.894,1.95,5.972c0.3,2.05,0.271,4.188-0.364,6.174
			c-0.618,1.945-1.748,3.527-3.251,4.814c-1.921,1.64-4.26,2.449-6.659,3.042c-3.592,0.838-7.336,1.045-11.014,1.056
			c-10.792-0.045-48.369,0.171-58.481-0.232c-5.736-0.242-11.814-0.552-17.495-1.367c-2.516-0.379-5.11-0.815-7.547-1.557
			c-0.854-0.255-1.722-0.595-2.559-0.898c-0.988-0.322-2.061-0.681-3.074-0.93c-3.382-0.878-6.911-1.425-10.381-1.814
			c-4.394-0.478-9.136-0.739-13.557-0.842c-3.325-0.073-6.962-0.103-10.269-0.499c-9.407-0.989-18.674-3.799-26.982-8.333
			c-13.099-6.811-22.035-19.3-28.685-32.136c-3.166-6.185-6.031-12.644-8.099-19.283c-3.649-11.53-5.293-23.728-5.326-35.807
			c0.043-9.592,0.742-19.353,2.933-28.71c4.606-19.65,14.808-37.597,26.857-53.62c20.047-26.558,45.64-48.802,73.986-66.127
			c14.851-9.033,30.529-17.128,46.642-23.662c14.042-5.613,28.786-10.131,43.867-11.735c11.051-1.092,22.361-0.709,33.312,1.135
			c9.69,1.672,19.2,4.723,27.887,9.357c2.598,1.358,5.132,2.992,7.638,4.508c2.671,1.583,5.499,3.045,8.337,4.303
			c6.128,2.716,12.675,4.588,19.338,5.363c6.605,0.78,13.353,0.477,19.881-0.772"/>
	</g>
	<g id="POLYLINE_306_">
		
			<path fill="none" stroke="#FB8604" stroke-width="2.75" stroke-linecap="round" stroke-linejoin="round" stroke-miterlimit="10" d="
			M348.49,373.473c15.577,10.173,32.981,24.23,38.921,42.497c1.357,4.151,1.988,8.548,1.983,12.912
			c0.062,4.256-0.106,8.706-0.576,12.936c-0.868,7.796-2.795,15.573-6.412,22.567c-2.227,4.344-5.173,8.328-8.613,11.787
			c-3.757,3.811-8.061,7.159-12.483,10.165c-6.916,4.671-14.42,8.683-21.957,12.25c-7.656,3.575-20.823,9.146-28.618,12.39
			c-8.315,3.348-17.453,7.039-26.03,9.616"/>
	</g>
	<g id="POLYLINE_305_">
		
			<path fill="none" stroke="#FB8604" stroke-width="2.75" stroke-linecap="round" stroke-linejoin="round" stroke-miterlimit="10" d="
			M527.028,424.695c-8.113,17.328-21.348,31.152-37.669,40.988c-3.047,1.849-6.29,3.616-9.487,5.192
			c-2.858,1.417-6.132,2.825-9.019,4.2c-5.047,2.396-10.296,5.134-15.139,7.92c-15.392,8.844-29.708,19.807-41.949,32.682"/>
	</g>
	<g id="POLYLINE_304_">
		
			<path fill="none" stroke="#FB8604" stroke-width="2.75" stroke-linecap="round" stroke-linejoin="round" stroke-miterlimit="10" d="
			M526.182,270.752c-0.196-3.531-0.547-7.137-1.256-10.604c-0.743-3.705-1.876-7.405-3.163-10.957
			c-3.261-8.865-7.844-17.431-14.398-24.304c-2.584-2.697-5.509-5.125-8.7-7.072c-6.095-3.709-13.1-5.924-20.2-6.544
			c-7.185-0.592-14.818,0.437-20.947,4.446c-4.026,2.641-7.051,6.603-9.045,10.951c-2.681,5.841-3.741,12.33-3.899,18.72
			c-0.245,13.403,3.337,26.779,9.522,38.626c2.692,5.068,5.937,9.924,9.95,14.044c2.857,2.924,6.184,5.481,9.994,7.025
			c6.686,2.791,14.172,2.275,21.228,1.629"/>
	</g>
	<g id="POLYLINE_303_">
		
			<path fill="none" stroke="#FB8604" stroke-width="2.75" stroke-linecap="round" stroke-linejoin="round" stroke-miterlimit="10" d="
			M623.138,425.522c-1.659-1.128-2.649-2.754-3.445-4.439c-0.887-1.945-1.451-4.044-1.761-6.156
			c-0.176-1.233-0.266-2.501-0.219-3.746c0.053-1.232,0.225-2.479,0.739-3.493c0.05-0.094,0.075-0.14,0.075-0.14
			c0.052-0.09,0.079-0.134,0.079-0.134c0.082-0.129,0.111-0.171,0.111-0.171c0.087-0.122,0.117-0.161,0.117-0.161
			c0.092-0.115,0.124-0.152,0.124-0.152c0.097-0.108,0.13-0.143,0.13-0.143c0.102-0.102,0.137-0.135,0.137-0.135
			c0.107-0.096,0.144-0.126,0.144-0.126c0.112-0.089,0.15-0.118,0.15-0.118c0.117-0.083,0.157-0.11,0.157-0.11
			c0.122-0.078,0.164-0.102,0.164-0.102c0.127-0.072,0.171-0.095,0.171-0.095c0.088-0.045,0.133-0.066,0.133-0.066
			c1.117-0.512,2.21-0.57,3.336-0.612c1.355-0.03,2.739,0.068,4.084,0.237c2.263,0.295,4.524,0.799,6.657,1.619
			c1.758,0.681,3.622,1.677,4.794,3.085c1.62,1.902,1.624,4.54,0.815,6.702c-1.091,2.95-3.302,5.326-5.872,7.068
			C630.883,426.203,626.44,427.676,623.138,425.522z"/>
	</g>
</g>
<g id="AG-OUTLINE">
	<g id="POLYLINE_9_">
		
			<path fill="none" stroke="#FB8604" stroke-width="3.5" stroke-linecap="round" stroke-linejoin="round" stroke-miterlimit="10" d="
			M450.399,275.987c-4.752-12.072-7.105-25.39-5.149-38.304c1.08-6.786,3.529-13.63,8.341-18.676
			c6.652-7.023,17.083-8.67,26.327-7.588c8.463,1.016,16.76,4.255,23.37,9.686c9.617,7.963,15.659,19.443,19.529,31.141
			c12.555,2.995,24.715,7.864,36.099,13.919c10.123,5.426,19.825,11.916,28.187,19.82c6.832,6.412,12.795,13.856,18.229,21.473
			c5.712,8.011,11.28,16.561,16.146,25.116c8.383,14.734,15.302,30.662,17.688,47.553c0.847,5.858,1.18,11.882,0.888,17.796
			c-0.203,3.966-0.659,7.993-1.583,11.86c0.275,0.263,0.481,0.499,0.639,0.699c1.801,2.24,1.433,5.311,0.259,7.662
			c-1.054,2.158-2.726,3.994-4.625,5.426c-1.621,1.212-3.434,2.171-5.377,2.676c-10.968,9.629-31.965,10.386-46.069,10.59
			c-11.313,0.048-22.787-0.771-33.832-3.311c-7.842-1.823-15.575-4.574-22.44-8.832c-8.854,18.896-23.604,33.372-41.78,43.371
			c-6.077,3.426-12.828,6.115-19.045,9.281c-12.466,6.272-24.532,13.878-35.396,22.645c9.134,1.739,21.203,3.845,30.105,6.157
			c1.272,0.353,2.678,0.72,3.874,1.263c0.129,0.064,0.189,0.095,0.189,0.095c0.111,0.062,0.164,0.094,0.164,0.094
			c0.106,0.067,0.159,0.102,0.159,0.102c0.103,0.073,0.154,0.111,0.154,0.111c0.101,0.079,0.15,0.12,0.15,0.12
			c0.098,0.085,0.146,0.129,0.146,0.129c0.095,0.091,0.141,0.138,0.141,0.138c0.092,0.097,0.137,0.147,0.137,0.147
			c0.089,0.103,0.133,0.156,0.133,0.156c0.086,0.109,0.129,0.164,0.129,0.164c0.083,0.115,0.124,0.173,0.124,0.173
			c0.08,0.12,0.12,0.182,0.12,0.182c0.873,1.436,1.171,2.958,1.395,4.57c0.293,2.372,0.246,4.808,0.106,7.19
			c-0.178,2.845-0.535,5.723-1.278,8.479c-0.509,1.868-1.206,3.712-2.236,5.358c-0.076,0.117-0.103,0.156-0.103,0.156
			c-0.083,0.115-0.112,0.153-0.112,0.153c-0.09,0.113-0.121,0.151-0.121,0.151c-0.096,0.112-0.129,0.148-0.129,0.148
			c-0.103,0.11-0.138,0.146-0.138,0.146c-0.11,0.108-0.147,0.144-0.147,0.144c-0.999,0.917-2.105,1.409-3.271,1.858
			c-1.432,0.528-2.948,0.886-4.447,1.164c-5.21,0.932-10.688,1.076-15.976,1.104c-14.559-0.029-45.174,0.057-59.481-0.031
			c-1.313-0.08-2.649-0.382-3.738-0.926c-1.429-0.69-2.513-1.86-3.177-3.17c-0.682-1.354-0.953-2.627-1.12-4.047
			c-0.235-2.233-0.074-4.506,0.33-6.71c-6.516-1.187-13.356-2.259-19.961-2.757c0.72,2.653,1.026,5.508,0.327,8.196
			c-0.685,2.715-2.547,5.003-4.88,6.403c-2.922,1.714-6.344,2.35-9.671,2.728c-2.143,0.226-4.375,0.314-6.53,0.314
			c-10.82-0.04-48.349,0.167-58.481-0.232c-4.959-0.214-10.35-0.473-15.272-1.077c-3.141-0.395-6.364-0.866-9.411-1.741
			c-0.98-0.276-1.963-0.654-2.918-1.004c-0.979-0.346-2.068-0.665-3.074-0.931c-4.047-1.048-8.263-1.627-12.42-2.022
			c-3.681-0.342-7.821-0.545-11.518-0.634c-3.767-0.065-7.788-0.141-11.526-0.644c-10.824-1.316-21.405-5.077-30.532-11.059
			c-10.111-6.813-17.345-17.08-23.05-27.689c-4.616-8.682-8.457-17.878-10.779-27.449c-2.88-11.598-3.847-23.723-3.347-35.649
			c0.268-5.498,0.715-11.204,1.657-16.628c4.173-23.844,16.849-45.328,31.729-64.073c25.121-31.657,58.086-56.507,94.084-74.579
			c19.926-9.997,41.051-18.623,63.253-21.73c8.544-1.179,17.322-1.247,25.916-0.62c13.122,1.005,26.217,4.184,37.928,10.284
			c2.881,1.465,5.67,3.245,8.428,4.923c2.428,1.44,5.007,2.788,7.574,3.961c6.111,2.79,12.648,4.748,19.316,5.608
			C436.59,277.559,443.612,277.286,450.399,275.987z"/>
	</g>
</g>
</svg>
