<?xml version="1.0" encoding="utf-8"?>
<!-- Generator: Adobe Illustrator 24.2.0, SVG Export Plug-In . SVG Version: 6.00 Build 0)  -->
<!DOCTYPE svg PUBLIC "-//W3C//DTD SVG 1.1//EN" "http://www.w3.org/Graphics/SVG/1.1/DTD/svg11.dtd" [
	<!ENTITY ns_flows "http://ns.adobe.com/Flows/1.0/">
	<!ENTITY ns_extend "http://ns.adobe.com/Extensibility/1.0/">
	<!ENTITY ns_ai "http://ns.adobe.com/AdobeIllustrator/10.0/">
	<!ENTITY ns_graphs "http://ns.adobe.com/Graphs/1.0/">
	<!ENTITY ns_vars "http://ns.adobe.com/Variables/1.0/">
	<!ENTITY ns_imrep "http://ns.adobe.com/ImageReplacement/1.0/">
	<!ENTITY ns_sfw "http://ns.adobe.com/SaveForWeb/1.0/">
	<!ENTITY ns_custom "http://ns.adobe.com/GenericCustomNamespace/1.0/">
	<!ENTITY ns_adobe_xpath "http://ns.adobe.com/XPath/1.0/">
]>
<svg version="1.1" xmlns:x="&ns_extend;" xmlns:i="&ns_ai;" xmlns:graph="&ns_graphs;"
	 xmlns="http://www.w3.org/2000/svg" xmlns:xlink="http://www.w3.org/1999/xlink" xmlns:a="http://ns.adobe.com/AdobeSVGViewerExtensions/3.0/"
	 x="0px" y="0px" width="750px" height="750px" viewBox="0 0 750 750" enable-background="new 0 0 750 750" xml:space="preserve">
<metadata>
	<sfw  xmlns="&ns_sfw;">
		<slices></slices>
		<sliceSourceBounds  bottomLeftOrigin="true" height="8679.549" width="4524.284" x="-3147.284" y="-526"></sliceSourceBounds>
	</sfw>
</metadata>
<g id="FILL-BACKGROUND">
	<rect fill="#FFFFFF" width="750" height="750"/>
</g>
<g id="N-TEXT">
</g>
<g id="N-DIMENSIONS">
</g>
<g id="AG-DIAGRAM">
	<g id="POLYLINE_174_">
		<g>
			<g>
				
					<line fill="none" stroke="#FB8604" stroke-width="3.25" stroke-linecap="round" stroke-linejoin="round" x1="141.471" y1="598.338" x2="143.471" y2="598.338"/>
				
					<line fill="none" stroke="#FB8604" stroke-width="3.25" stroke-linecap="round" stroke-linejoin="round" stroke-dasharray="4.004,7.007" x1="150.478" y1="598.338" x2="543.373" y2="598.338"/>
				
					<line fill="none" stroke="#FB8604" stroke-width="3.25" stroke-linecap="round" stroke-linejoin="round" x1="546.876" y1="598.338" x2="548.876" y2="598.338"/>
			</g>
		</g>
	</g>
</g>
<g id="AG-DETAILS">
	<g id="POLYLINE_167_">
		<path fill="none" stroke="#FB8604" stroke-width="2" stroke-linecap="round" stroke-linejoin="round" stroke-miterlimit="10" d="
			M539.377,351.725l-0.865-0.613c-2.454-1.719-5.556-3.618-7.7-5.668c-1.385-1.286-2.619-2.753-3.641-4.343
			c-1.747-2.741-2.977-5.833-4.136-8.859c-2.227-5.93-4.598-13.142-7.662-18.681c-1.475-2.678-3.209-5.267-5.351-7.46
			c-3.397-3.499-7.882-5.855-12.613-6.96c-5.442-1.258-11.451-1.003-16.445,1.662c-1.899,1.018-3.569,2.45-4.9,4.142
			c-2.109,2.667-3.468,5.855-4.535,9.06c-2.812,8.781-4.023,18.54-7.345,27.217c-2.944,8.245-7.612,17.275-8.522,26.046
			c-0.222,2.194-0.195,4.427,0.134,6.609c0.499,3.341,1.621,6.584,2.976,9.668c4.012,9.025,10.773,18.423,15.135,27.28
			c2.754,5.589,4.983,11.533,5.988,17.7c0.738,4.558,0.777,9.295-0.329,13.797c-1.733,7.151-6.491,13.444-12.69,17.353
			c-3.614,2.274-7.794,3.722-12.075,3.897c-2.999,0.127-6.005-0.39-8.902-1.129c-4.01-0.977-9.704-3.209-13.696-4.297
			c-1.61-0.442-3.276-0.817-4.942-0.956c-1.38-0.111-2.886-0.048-4.197,0.367c-1.373,0.418-2.611,1.15-3.716,2.053
			c-2.386,1.971-4.19,4.563-5.929,7.097c-1.926,2.874-4.608,7.032-6.755,9.745c-1.909,2.451-4.052,4.824-6.237,7.033
			c-10.406,10.391-22.921,18.593-35.555,26.009c-11.394,6.653-29.497,15.873-39.619,24.281
			c-5.757,4.685-10.528,10.979-16.087,15.874c-3.183,2.811-6.775,5.188-10.625,6.985c-7.5,3.487-15.666,5.444-23.824,6.636
			c-12.032,1.66-24.436,1.696-36.335-0.917"/>
	</g>
	<g id="POLYLINE_162_">
		<path fill="none" stroke="#FB8604" stroke-width="2" stroke-linecap="round" stroke-linejoin="round" stroke-miterlimit="10" d="
			M221.903,574.822c3.125,7.895,7.793,15.216,13.779,21.25"/>
	</g>
	<g id="POLYLINE_161_">
		<path fill="none" stroke="#FB8604" stroke-width="2" stroke-linecap="round" stroke-linejoin="round" stroke-miterlimit="10" d="
			M596.616,329.913c-0.98,4.706-1.781,9.603-2.018,14.404c-0.254,4.777-0.016,9.621,0.515,14.373
			c1.084,9.351,3.173,18.673,6.644,27.438"/>
	</g>
	<g id="POLYLINE_160_">
		<path fill="none" stroke="#FB8604" stroke-width="2" stroke-linecap="round" stroke-linejoin="round" stroke-miterlimit="10" d="
			M592.846,324.6c-1.604,1.792-3.525,3.882-4.863,5.849c-3.191,4.653-5.766,9.836-8.227,14.904
			c-4.318,9.095-8.127,18.607-11.047,28.247c-2.031,6.831-3.716,13.915-4.255,21.035"/>
	</g>
	<g id="POLYLINE_115_">
		<path fill="none" stroke="#FB8604" stroke-width="2" stroke-linecap="round" stroke-linejoin="round" stroke-miterlimit="10" d="
			M592.7,319.827c-5.353,1.615-10.848,3.368-15.855,5.867c-7.322,3.607-13.89,8.698-19.86,14.226
			c-5.533,5.169-10.675,10.929-15.052,17.111c-3.647,5.17-6.846,10.742-9.089,16.67"/>
	</g>
</g>
<g id="AG-ANIMALS">
	<g id="POLYLINE_143_">
		
			<path fill="none" stroke="#FB8604" stroke-width="2.75" stroke-linecap="round" stroke-linejoin="round" stroke-miterlimit="10" d="
			M603.068,325.465c-0.074-0.055-0.093-0.07-0.093-0.07c-0.074-0.06-0.092-0.076-0.092-0.076c-0.073-0.065-0.109-0.1-0.109-0.1
			c-0.072-0.071-0.107-0.108-0.107-0.108c-0.071-0.077-0.106-0.116-0.106-0.116c-0.58-0.685-0.92-1.394-1.27-2.19
			c-0.493-1.157-0.873-2.394-1.199-3.609c-0.226-0.865-0.459-1.826-0.626-2.703c-0.129-0.691-0.239-1.514-0.122-2.166
			c0.013-0.067,0.02-0.1,0.02-0.1c0.015-0.066,0.023-0.098,0.023-0.098c0.017-0.064,0.026-0.096,0.026-0.096
			c0.02-0.062,0.03-0.093,0.03-0.093c0.022-0.061,0.034-0.091,0.034-0.091c0.025-0.059,0.038-0.088,0.038-0.088
			c0.042-0.086,0.056-0.114,0.056-0.114c0.047-0.083,0.063-0.11,0.063-0.11c0.052-0.08,0.071-0.106,0.071-0.106
			c0.058-0.077,0.078-0.102,0.078-0.102c0.064-0.074,0.086-0.098,0.086-0.098c0.07-0.07,0.094-0.093,0.094-0.093
			c0.076-0.067,0.102-0.089,0.102-0.089c0.082-0.064,0.111-0.085,0.111-0.085c0.059-0.041,0.089-0.061,0.089-0.061
			c0.084-0.053,0.107-0.067,0.107-0.067c0.644-0.367,1.297-0.506,1.973-0.618c0.755-0.114,1.53-0.146,2.292-0.121
			c1.422,0.064,3.073,0.267,4.295,1.005c0.078,0.052,0.103,0.07,0.103,0.07c0.073,0.054,0.097,0.072,0.097,0.072
			c0.068,0.055,0.09,0.074,0.09,0.074c0.084,0.076,0.105,0.096,0.105,0.096c0.077,0.079,0.095,0.099,0.095,0.099
			c0.07,0.082,0.087,0.103,0.087,0.103c0.063,0.085,0.078,0.106,0.078,0.106c0.043,0.065,0.056,0.087,0.056,0.087
			c0.039,0.067,0.051,0.09,0.051,0.09c0.035,0.069,0.046,0.092,0.046,0.092c0.031,0.07,0.041,0.094,0.041,0.094
			c0.028,0.072,0.037,0.097,0.037,0.097c0.025,0.074,0.032,0.099,0.032,0.099c0.021,0.076,0.028,0.101,0.028,0.101
			c0.018,0.077,0.024,0.104,0.024,0.104c0.015,0.079,0.02,0.106,0.02,0.106c0.099,0.677,0.008,1.241-0.088,1.879
			c-0.125,0.764-0.299,1.542-0.503,2.289c-0.411,1.482-0.952,2.952-1.731,4.283c-0.609,1.027-1.451,2.075-2.5,2.563
			c-0.065,0.029-0.098,0.042-0.098,0.042c-0.065,0.026-0.098,0.038-0.098,0.038c-0.065,0.023-0.098,0.034-0.098,0.034
			c-0.065,0.02-0.098,0.029-0.098,0.029c-0.065,0.017-0.098,0.025-0.098,0.025c-0.065,0.014-0.098,0.02-0.098,0.02
			c-0.065,0.011-0.097,0.016-0.097,0.016c-0.065,0.008-0.097,0.011-0.097,0.011c-0.065,0.004-0.097,0.006-0.097,0.006
			c-0.064,0.001-0.097,0.001-0.097,0.001c-0.08-0.003-0.096-0.004-0.096-0.004c-0.08-0.007-0.096-0.009-0.096-0.009
			c-0.08-0.012-0.095-0.014-0.095-0.014c-0.079-0.016-0.095-0.02-0.095-0.02c-0.079-0.02-0.094-0.025-0.094-0.025
			c-0.078-0.025-0.094-0.03-0.094-0.03c-0.078-0.029-0.093-0.036-0.093-0.036c-0.077-0.034-0.092-0.041-0.092-0.041
			c-0.076-0.039-0.092-0.047-0.092-0.047c-0.061-0.035-0.091-0.053-0.091-0.053C603.128,325.506,603.098,325.486,603.068,325.465z"
			/>
	</g>
	<g id="POLYLINE_144_">
		
			<path fill="none" stroke="#FB8604" stroke-width="2.75" stroke-linecap="round" stroke-linejoin="round" stroke-miterlimit="10" d="
			M484.924,332.507c6.067,4.084,12.397,8.056,19.068,11.072c6.398,2.922,13.253,5.016,20.166,6.301
			c8.232,1.525,16.767,2.142,25.135,2.161c7.8-0.012,15.776-0.558,23.462-1.906c9.422-1.713,19.371-4.541,26.08-11.784
			c3.614-3.85,5.989-8.705,7.565-13.707"/>
	</g>
	<g id="POLYLINE_145_">
		
			<path fill="none" stroke="#FB8604" stroke-width="2.75" stroke-linecap="round" stroke-linejoin="round" stroke-miterlimit="10" d="
			M608.281,312.769c-0.019-3.112-0.498-6.241-1.456-9.202c-1.691-5.238-4.61-10.035-7.593-14.627
			c-4.936-7.168-10.427-16.116-15.838-22.88c-3.519-4.373-7.529-8.427-12.073-11.736c-6.108-4.443-13.054-7.678-20.194-10.085
			c-9.39-3.12-19.319-4.892-29.219-5.006"/>
	</g>
	<g id="POLYLINE_146_">
		
			<path fill="none" stroke="#FB8604" stroke-width="2.75" stroke-linecap="round" stroke-linejoin="round" stroke-miterlimit="10" d="
			M492.858,281.438c-7.952-7.025-14.974-15.201-20.881-24.009c-5.496-8.239-10.132-17.202-13.09-26.673
			c-4.802-15.242-4.984-31.541-4.651-47.381c0.268-9.136,0.844-18.588,2.261-27.616c0.755-4.627,1.698-9.338,3.344-13.737
			c1.206-3.125,2.903-6.623,6.012-8.169c8.849-4.203,20.182,11.626,24.415,17.998c6.136,9.312,11.192,19.428,15.517,29.696
			c5.077,12.169,9.344,25.072,12.524,37.87c1.36,5.577,2.584,11.375,3.306,17.073c0.584,4.487,0.695,9.079,0.151,13.576l-0.728,5.83
			"/>
	</g>
	<g id="POLYLINE_147_">
		
			<path fill="none" stroke="#FB8604" stroke-width="2.75" stroke-linecap="round" stroke-linejoin="round" stroke-miterlimit="10" d="
			M413.4,406.128c-2.934,17.26-5.784,35.249-6.661,52.734c-0.26,6.997-0.419,14.181,1.027,21.064
			c0.373,1.653,0.861,3.305,1.62,4.823c7.302,12.793,16.561,26.394,24.581,38.757c5.558,8.832,10.55,18.289,14.416,27.987
			c1.557,3.763,3.968,11.149,5.31,15.089c2.053,6.272,4.182,13.153,5.747,19.556c0.404,1.783,0.858,3.695,1.696,5.333
			c1.145,2.361,3.014,4.348,5.402,5.472c1.438,0.691,3.009,1.086,4.591,1.268c0.413,0.058,0.902,0.078,1.319,0.106
			c0.308,0.006,0.726,0.03,1.034,0.024c0,0,26.906,0,26.906,0c2.324-0.004,4.757-0.084,7.069-0.317c2.15-0.225,4.333-0.56,6.401-1.2
			c1.334-0.417,2.655-0.96,3.803-1.767c2.209-1.521,3.279-4.123,3.216-6.703c-0.066-2.413-1.002-4.713-2.171-6.793
			c-3.114-5.508-7.959-9.899-13.617-12.692c-2.125-1.063-4.207-2.312-6.159-3.667c-2.613-1.814-5.093-3.882-7.389-6.082
			c-1.485-1.442-3.002-2.93-4.237-4.595c-2.683-3.593-4.59-7.738-6.178-11.914c-2.275-6.107-3.932-12.547-5.206-18.935
			c-2.054-10.692-2.649-21.915,0.045-32.547c1.366-5.384,3.702-10.525,6.385-15.373c3.846-6.903,8.569-13.423,13.518-19.575
			c4.866-5.914,12.858-15.535,17.645-21.513c2.981-3.72,8.352-10.56,11.177-14.415c0.725-1.03,1.394-2.141,2.003-3.24
			c2.642-4.84,4.75-10.093,6.727-15.234c5.927-15.714,11.179-33.572,15.859-49.735"/>
	</g>
	<g id="POLYLINE_148_">
		
			<path fill="none" stroke="#FB8604" stroke-width="2.75" stroke-linecap="round" stroke-linejoin="round" stroke-miterlimit="10" d="
			M239.167,503.562c-0.573,13.742-1.287,30.093-1.164,43.777c0.091,8.18,0.247,16.86,1.151,24.98
			c0.518,4.659,1.338,9.36,2.984,13.763c1.028,2.745,2.375,5.43,4.317,7.647c1.353,1.548,3.029,2.84,4.936,3.627
			c1.34,0.558,2.783,0.869,4.231,0.954c25.036,0.064,88.4,0.03,114.187,0.012c0.86-0.034,1.744-0.125,2.588-0.297
			c1.631-0.316,3.344-1.062,4.493-2.231c1.205-1.203,1.81-2.658,2.121-4.268c0.402-2.241,0.457-4.555,0.292-6.823
			c-0.258-3.432-1.021-6.839-2.043-10.12c-0.663-2.077-1.626-4.082-2.945-5.824c-1.183-1.569-2.665-2.922-4.333-3.961
			c-1.954-1.245-4.185-1.994-6.416-2.571c-5.601-1.485-11.473-2.359-17.226-3.007c-1.944-0.196-5.126-0.549-7.078-0.63
			c-1.568-0.055-3.209-0.011-4.774,0.081c-7.195,0.45-14.638,1.833-21.707,3.251c-11.739,2.397-24.917,5.87-36.521,9.036"/>
	</g>
	<g id="POLYLINE_149_">
		
			<path fill="none" stroke="#FB8604" stroke-width="2.75" stroke-linecap="round" stroke-linejoin="round" stroke-miterlimit="10" d="
			M324.318,559.819c12.605-11.1,25.945-21.93,40.516-30.347c3.536-2.022,7.338-3.98,11.08-5.586c1.568-0.673,3.26-1.308,4.817-2.008
			c2.437-1.081,4.87-2.326,7.17-3.674c10.675-6.21,19.478-15.333,26.064-25.728"/>
	</g>
	<g id="POLYLINE_150_">
		
			<path fill="none" stroke="#FB8604" stroke-width="2.75" stroke-linecap="round" stroke-linejoin="round" stroke-miterlimit="10" d="
			M246.704,594.009c-8.319,1.701-16.996,3.198-25.45,3.907c-2.428,0.192-5.209,0.367-7.635,0.406
			c-0.665,0.043-24.834,0.01-26.014,0.011c-1.871-0.039-3.756-0.269-5.566-0.75c-3.171-0.827-6.116-2.514-8.397-4.871
			c-2.636-2.711-4.555-6.103-5.574-9.742c-0.533-1.883-0.843-3.839-0.968-5.791c-0.115-1.794-0.085-3.618,0.183-5.398
			c0.33-2.222,1.049-4.411,2.233-6.327c1.36-2.189,3.323-4.132,5.655-5.257c3.318-1.621,6.98-2.578,10.552-3.463
			c8.262-1.949,17.055-3.249,25.469-4.375"/>
	</g>
	<g id="POLYLINE_151_">
		
			<path fill="none" stroke="#FB8604" stroke-width="2.75" stroke-linecap="round" stroke-linejoin="round" stroke-miterlimit="10" d="
			M221.903,574.822c-4.865-8.809-9.121-18.775-13.102-28.031c-5.488-12.985-10.125-26.578-11.935-40.607
			c-3.392-24.926,4.172-49.931,14.806-72.265c6.4-13.318,14.183-26.188,22.756-38.216c14.457-20.238,32.196-38.444,53.115-52.02
			c23.148-15.159,49.946-24.084,76.981-29.292c15.22-2.868,30.947-4.584,46.442-4.652c4.068,0.011,8.817,0.107,12.888,0.406
			c5.334,0.271,16.5,1.669,21.743,2.162c2.694,0.227,5.473,0.434,8.172,0.231c2.141-0.166,4.587-0.664,6.045-2.316
			c1.061-1.184,1.535-2.604,1.823-4.105c0.363-1.99,0.351-4.07,0.3-6.087c-0.197-4.957-0.77-11.141-0.296-16.062
			c0.4-4.663,1.465-9.301,2.88-13.756c1.612-5.028,3.722-9.953,6.282-14.573"/>
	</g>
</g>
<g id="AG-OUTLINE">
	<g id="POLYLINE_2_">
		
			<path fill="none" stroke="#FB8604" stroke-width="3.5" stroke-linecap="round" stroke-linejoin="round" stroke-miterlimit="10" d="
			M470.803,255.639c-3.933-6.114-7.384-12.63-10.008-19.415c-2.421-6.253-4.113-12.873-5.111-19.501
			c-1.649-10.947-1.685-22.297-1.448-33.349c0.37-11.482,1.067-23.237,3.576-34.47c0.618-2.638,1.367-5.311,2.398-7.819
			c0.669-1.606,1.461-3.194,2.523-4.579c2.354-3.081,5.523-4.078,9.162-2.849c2.595,0.881,4.857,2.534,6.903,4.321
			c3.64,3.234,6.723,7.103,9.543,11.058c11.38,16.387,19.203,35.112,25.334,54.021c3.643,11.742,6.995,23.917,8.233,36.175
			c9.9,0.114,19.829,1.885,29.219,5.006c7.139,2.407,14.086,5.641,20.194,10.085c3.933,2.867,7.483,6.298,10.635,10.001
			c4.995,5.73,11.919,16.736,16.277,23.103c3.346,5.068,6.708,10.325,8.591,16.139c0.958,2.961,1.437,6.091,1.456,9.202
			c0.153,0.062,0.347,0.157,0.427,0.201c0.078,0.043,0.115,0.065,0.115,0.065c0.073,0.045,0.109,0.067,0.109,0.067
			c0.078,0.052,0.103,0.07,0.103,0.07c0.073,0.054,0.097,0.072,0.097,0.072c0.068,0.055,0.09,0.074,0.09,0.074
			c0.084,0.076,0.105,0.096,0.105,0.096c0.077,0.079,0.095,0.099,0.095,0.099c0.07,0.082,0.087,0.103,0.087,0.103
			c0.063,0.085,0.078,0.106,0.078,0.106c0.043,0.065,0.056,0.087,0.056,0.087c0.039,0.067,0.051,0.09,0.051,0.09
			c0.035,0.069,0.046,0.092,0.046,0.092c0.031,0.07,0.041,0.094,0.041,0.094c0.028,0.072,0.037,0.097,0.037,0.097
			c0.025,0.074,0.032,0.099,0.032,0.099c0.021,0.076,0.028,0.101,0.028,0.101c0.018,0.077,0.024,0.104,0.024,0.104
			c0.015,0.079,0.02,0.106,0.02,0.106c0.093,0.63,0.018,1.147-0.065,1.736c-0.113,0.73-0.273,1.475-0.46,2.189
			c-0.34,1.285-0.783,2.562-1.376,3.753c-0.421,0.843-0.966,1.709-1.621,2.377c-1.197,3.773-2.822,7.464-5.12,10.702
			c-2.191,3.108-5.025,5.76-8.231,7.799c-4.896,3.126-10.549,4.891-16.177,6.17c-9.03,1.985-18.359,2.707-27.592,2.727
			c-4.252,14.732-9.154,31.287-14.335,45.626c-2.333,6.34-4.794,12.833-7.95,18.792c-0.773,1.434-1.612,2.856-2.575,4.166
			c-7.868,10.514-17.95,22.773-26.383,32.914c-3.356,4.065-6.802,8.434-9.775,12.77c-4.641,6.765-8.872,13.991-11.431,21.82
			c-3.535,11.037-3.182,22.962-1.15,34.259c1.141,6.124,2.692,12.301,4.714,18.194c1.764,5.001,3.899,10,7.137,14.237
			c1.324,1.717,2.929,3.258,4.493,4.755c2.894,2.72,6.056,5.209,9.447,7.282c1.484,0.924,3.099,1.742,4.65,2.545
			c1.143,0.617,2.318,1.339,3.382,2.084c4.106,2.872,7.546,6.74,9.811,11.216c0.906,1.844,1.579,3.863,1.568,5.936
			c0.011,1.932-0.751,4.003-2.029,5.39c-0.732,0.786-1.481,1.259-2.384,1.746c-1.991,1.02-4.206,1.544-6.4,1.908
			c-2.236,0.362-4.585,0.532-6.849,0.61c-1.422,0.07-28.339,0.052-30.43,0.034c-2.28-0.07-4.592-0.505-6.624-1.575
			c-2.254-1.162-4.017-3.139-5.093-5.419c-0.795-1.605-1.236-3.455-1.63-5.198c-1.565-6.401-3.698-13.282-5.747-19.556
			c-1.125-3.31-3.568-10.726-4.837-13.884c-1.875-4.833-4.173-9.9-6.526-14.522c-4.588-9.133-10.62-18.289-16.328-26.782
			c-3.623-5.541-8.591-13.264-12.036-18.915c-6.586,10.395-15.389,19.518-26.064,25.728c-2.3,1.348-4.733,2.592-7.17,3.674
			c-1.557,0.699-3.25,1.335-4.817,2.008c-3.741,1.606-7.546,3.565-11.08,5.586c-14.569,8.416-27.914,19.249-40.516,30.347
			c4.345-0.646,8.857-1.221,13.25-1.253c1.93-0.057,5.017,0.283,6.968,0.463c5.263,0.541,10.668,1.276,15.836,2.418
			c2.097,0.494,4.332,1.006,6.353,1.751c1.801,0.678,3.519,1.63,5.003,2.859c1.455,1.199,2.693,2.672,3.654,4.293
			c1.165,1.93,1.895,4.099,2.472,6.268c1.207,4.472,1.911,9.179,1.326,13.803c-0.142,1.153-0.378,2.313-0.884,3.366
			c-0.829,1.792-2.346,3.055-4.108,3.721c-1.146,0.444-2.376,0.669-3.598,0.769c-21.235,0.126-92.956,0.099-115.31,0.01
			c-1.193-0.1-2.383-0.354-3.504-0.777c-1.945-0.726-3.675-1.973-5.072-3.501c-8.284,1.705-16.893,3.173-25.32,3.896
			c-6.837,0.735-26.62,0.351-33.779,0.427c-1.871-0.039-3.756-0.269-5.566-0.75c-3.085-0.806-5.961-2.423-8.213-4.685
			c-2.668-2.676-4.624-6.045-5.684-9.669c-0.579-1.964-0.912-4.008-1.042-6.05c-0.115-1.794-0.085-3.618,0.183-5.398
			c0.33-2.222,1.049-4.411,2.233-6.327c1.36-2.189,3.323-4.132,5.655-5.257c3.318-1.621,6.98-2.578,10.552-3.463
			c8.262-1.949,17.055-3.249,25.469-4.375c-7.895-17.9-14.723-36.904-15.133-56.663c-0.489-27.373,10.845-54.785,24.296-78.176
			c17.963-30.992,42.061-59.161,73.134-77.542c21.735-12.953,46.285-20.808,71.035-25.586c15.22-2.868,30.947-4.584,46.442-4.652
			c4.069,0.01,8.816,0.107,12.888,0.406c5.322,0.274,16.509,1.667,21.743,2.162c2.694,0.227,5.473,0.434,8.172,0.231
			c2.141-0.166,4.587-0.664,6.045-2.316c1.061-1.184,1.535-2.604,1.823-4.105c0.363-1.99,0.351-4.07,0.3-6.087
			c-0.197-4.957-0.77-11.141-0.296-16.062c0.4-4.663,1.465-9.301,2.88-13.756C466.133,265.184,468.244,260.259,470.803,255.639z"/>
	</g>
</g>
</svg>
