<?xml version="1.0" encoding="utf-8"?>
<!-- Generator: Adobe Illustrator 24.2.0, SVG Export Plug-In . SVG Version: 6.00 Build 0)  -->
<!DOCTYPE svg PUBLIC "-//W3C//DTD SVG 1.1//EN" "http://www.w3.org/Graphics/SVG/1.1/DTD/svg11.dtd" [
	<!ENTITY ns_flows "http://ns.adobe.com/Flows/1.0/">
	<!ENTITY ns_extend "http://ns.adobe.com/Extensibility/1.0/">
	<!ENTITY ns_ai "http://ns.adobe.com/AdobeIllustrator/10.0/">
	<!ENTITY ns_graphs "http://ns.adobe.com/Graphs/1.0/">
	<!ENTITY ns_vars "http://ns.adobe.com/Variables/1.0/">
	<!ENTITY ns_imrep "http://ns.adobe.com/ImageReplacement/1.0/">
	<!ENTITY ns_sfw "http://ns.adobe.com/SaveForWeb/1.0/">
	<!ENTITY ns_custom "http://ns.adobe.com/GenericCustomNamespace/1.0/">
	<!ENTITY ns_adobe_xpath "http://ns.adobe.com/XPath/1.0/">
]>
<svg version="1.1" xmlns:x="&ns_extend;" xmlns:i="&ns_ai;" xmlns:graph="&ns_graphs;"
	 xmlns="http://www.w3.org/2000/svg" xmlns:xlink="http://www.w3.org/1999/xlink" xmlns:a="http://ns.adobe.com/AdobeSVGViewerExtensions/3.0/"
	 x="0px" y="0px" width="750px" height="750px" viewBox="0 0 750 750" enable-background="new 0 0 750 750" xml:space="preserve">
<metadata>
	<sfw  xmlns="&ns_sfw;">
		<slices></slices>
		<sliceSourceBounds  bottomLeftOrigin="true" height="7750" width="5977.544" x="-3733.544" y="474"></sliceSourceBounds>
	</sfw>
</metadata>
<g id="FILL-BACKGROUND">
	<rect fill="#FFFFFF" width="750" height="750"/>
</g>
<g id="N-TEXT">
</g>
<g id="N-DIMENSIONS">
</g>
<g id="AG-DIAGRAM">
	<g id="POLYLINE_295_">
		<g>
			<g>
				
					<line fill="none" stroke="#FB8604" stroke-width="3.25" stroke-linecap="round" stroke-linejoin="round" x1="307.592" y1="470.868" x2="309.592" y2="470.868"/>
				
					<line fill="none" stroke="#FB8604" stroke-width="3.25" stroke-linecap="round" stroke-linejoin="round" stroke-dasharray="3.9657,6.94" x1="316.532" y1="470.868" x2="574.8" y2="470.868"/>
				
					<line fill="none" stroke="#FB8604" stroke-width="3.25" stroke-linecap="round" stroke-linejoin="round" x1="578.27" y1="470.868" x2="580.27" y2="470.868"/>
			</g>
		</g>
	</g>
</g>
<g id="AG-DETAILS">
	<g id="POLYLINE_214_">
		<path fill="none" stroke="#FB8604" stroke-width="2" stroke-linecap="round" stroke-linejoin="round" stroke-miterlimit="10" d="
			M357.418,445.896c-0.021-3.573,0.453-7.523,2.078-10.662c1.658-3.323,4.433-5.966,7.197-7.938
			c3.467-2.443,7.083-4.059,11.08-5.297c4.555-1.381,9.324-2.099,14.08-2.218c5.196-0.12,10.45,0.487,15.426,2.014
			c2.452,0.755,4.875,1.758,7.121,3.001c2.208,1.22,4.326,2.705,6.317,4.251c3.352,2.592,7.773,6.638,11.143,9.203
			c1.791,1.369,3.933,2.82,5.904,3.803c2.323,1.178,4.713,1.924,7.046,2.175c5.694,0.576,11.256-0.97,16.653-2.574
			c8.567-2.612,18.732-6.738,27.753-6.693c5.288-0.051,11.36,1.175,16.595,2.007c3.796,0.581,8.107,0.978,11.797,0.058
			c2.785-0.672,5.162-2.035,7.287-3.557c2.361-1.701,4.561-3.744,6.64-5.777c5.327-5.275,11.529-12.165,17.864-16.143
			c12.464-7.965,28.946-9.341,43.221-11.86l11.159-2.098c2.75-0.463,5.606-0.949,8.4-0.896c0.569,0.017,0.969,0.056,1.257,0.089
			c0.259,0.035,0.386,0.054,0.386,0.054c0.248,0.044,0.369,0.068,0.369,0.068c0.236,0.053,0.351,0.081,0.351,0.081
			c0.279,0.078,0.333,0.095,0.333,0.095c0.263,0.09,0.315,0.11,0.315,0.11c0.248,0.103,0.296,0.125,0.296,0.125
			c0.277,0.14,0.321,0.165,0.321,0.165c0.294,0.186,0.335,0.216,0.335,0.216c0.272,0.219,0.309,0.253,0.309,0.253
			c0.274,0.281,0.305,0.318,0.305,0.318c0.209,0.269,0.237,0.309,0.237,0.309c0.184,0.289,0.208,0.332,0.208,0.332
			c0.138,0.262,0.16,0.307,0.16,0.307c0.103,0.227,0.142,0.32,0.142,0.32c0.108,0.283,0.142,0.38,0.142,0.38
			c0.425,1.286,0.535,2.45,0.78,3.648"/>
	</g>
	<g id="POLYLINE_193_">
		<path fill="none" stroke="#FB8604" stroke-width="2" stroke-linecap="round" stroke-linejoin="round" stroke-miterlimit="10" d="
			M291.059,421.538c3.252-0.946,7.013-2.07,10.361-2.2c3.199-0.156,5.875,0.339,8.786,1.201c2.656,0.792,5.366,1.87,7.921,2.948
			l9.814,4.305c2.405,1.016,4.925,2.008,7.471,2.591c2.627,0.637,5.675,0.852,8.359,1.183"/>
	</g>
	<g id="POLYLINE_189_">
		<path fill="none" stroke="#FB8604" stroke-width="2" stroke-linecap="round" stroke-linejoin="round" stroke-miterlimit="10" d="
			M659.409,382.764c2.384,8.678,8.448,28.872,11.13,37.67"/>
	</g>
	<g id="POLYLINE_188_">
		<path fill="none" stroke="#FB8604" stroke-width="2" stroke-linecap="round" stroke-linejoin="round" stroke-miterlimit="10" d="
			M648.621,381.223c-5.11,13.495-7.416,28.05-6.849,42.464"/>
	</g>
</g>
<g id="AG-ANIMALS">
	<g id="POLYLINE_309_">
		
			<path fill="none" stroke="#FB8604" stroke-width="2.75" stroke-linecap="round" stroke-linejoin="round" stroke-miterlimit="10" d="
			M307.247,439.133c-6.937,3.4-13.642,7.479-19.636,12.361c-2.134,1.698-4.13,3.668-6.229,5.405
			c-2.852,2.352-5.974,4.459-9.238,6.197c-4.596,2.429-9.56,4.283-14.684,5.206c-9.33,1.647-19.128,2.017-28.588,2.341
			c-17.028,0.447-34.813,0.23-51.794-0.932c-21.016-1.298-44.229-4.459-65.083-7.775c-8.718-1.462-18.819-3.122-27.385-5.253
			c-2.677-0.67-5.437-1.469-7.988-2.532c-1.502-0.599-3.204-1.382-4.476-2.196c-0.228-0.152-0.301-0.203-0.301-0.203
			c-0.274-0.2-0.339-0.249-0.339-0.249c-0.241-0.196-0.297-0.244-0.297-0.244c-0.256-0.239-0.302-0.286-0.302-0.286
			c-0.242-0.28-0.259-0.303-0.259-0.303c-0.189-0.294-0.201-0.317-0.201-0.317c-0.113-0.286-0.119-0.307-0.119-0.307
			c-0.038-0.277-0.038-0.298-0.038-0.298c0.044-0.288,0.05-0.308,0.05-0.308c0.131-0.278,0.144-0.298,0.144-0.298
			c0.237-0.287,0.257-0.305,0.257-0.305c0.287-0.239,0.313-0.256,0.313-0.256c0.292-0.166,0.325-0.182,0.325-0.182
			c0.287-0.117,0.326-0.131,0.326-0.131c0.29-0.091,0.379-0.116,0.379-0.116c0.283-0.068,0.382-0.09,0.382-0.09
			c1.332-0.254,2.314-0.26,3.515-0.28c1.404-0.005,2.966,0.072,4.37,0.171c5.872,0.432,12.575,1.444,18.426,2.372
			c13.779,2.226,28.792,4.006,42.688,5.371c8.148,0.734,21.585,2.008,29.583,2.365c9.479,0.49,19.531,0.658,29.019,0.431
			c11.464-0.294,23.33-1.106,34.691-2.687c7.635-1.106,15.353-2.566,22.645-5.133c2.359-0.843,4.713-1.831,6.916-3.027
			c1.84-0.967,3.71-2.335,5.426-3.501c8.017-5.601,15.784-12.136,23.037-18.699"/>
	</g>
	<g id="POLYLINE_312_">
		
			<path fill="none" stroke="#FB8604" stroke-width="2.75" stroke-linecap="round" stroke-linejoin="round" stroke-miterlimit="10" d="
			M329.416,457.181c-0.285-0.149-0.863-0.44-1.151-0.58l-3.336-1.57c-0.87-0.416-1.96-1.013-2.571-1.414
			c-0.609-0.393-1.08-0.757-1.416-1.036c-0.265-0.227-0.396-0.344-0.396-0.344c-2.718-2.542-4.518-5.604-7.084-8.175
			c-2.792-2.895-7.174-5.511-10.455-7.793c-2.615-1.776-5.529-4.151-7.398-6.525c-4.222-5.246-5.958-11.498-6.809-18
			c-0.923-7.518-0.616-15.223,0.45-22.71c1.29-8.78,3.704-17.488,7.544-25.502c6.047-12.645,15.55-23.328,25.919-32.617
			c16.417-14.513,35.101-27.956,56.911-32.539c24.094-5.006,52.059,1.479,74.747,10.02c6.946,2.663,17.368,7.1,24.371,9.036
			c3.734,1.039,7.606,1.77,11.49,1.808c8.239,0.133,17.152-3.447,24.918-5.941c5.929-1.954,12.073-3.57,18.306-4.104
			c13.169-1.21,26.527,1.147,38.877,5.729c13.445,5.041,25.81,12.827,37.453,21.14c4.908,3.48,10.82,8.22,15.661,11.792
			c1.373,0.979,2.842,1.913,4.333,2.703c1.927,1.023,3.997,1.874,6.053,2.599c4.783,1.698,15.175,4.467,20.096,5.905
			c3.895,1.157,8.161,2.477,11.92,4.03c2.378,0.988,5.049,2.257,6.938,3.854c0.294,0.256,0.435,0.385,0.435,0.385
			c0.27,0.259,0.399,0.389,0.399,0.389c0.247,0.262,0.364,0.394,0.364,0.394c0.224,0.265,0.278,0.331,0.278,0.331
			c0.207,0.267,0.256,0.334,0.256,0.334c0.19,0.269,0.235,0.337,0.235,0.337c0.173,0.271,0.215,0.339,0.215,0.339
			c0.158,0.273,0.195,0.342,0.195,0.342c0.142,0.275,0.176,0.345,0.176,0.345c0.128,0.278,0.158,0.347,0.158,0.347
			c0.087,0.21,0.141,0.35,0.141,0.35c0.101,0.282,0.148,0.423,0.148,0.423c0.086,0.284,0.126,0.426,0.126,0.426
			c0.072,0.286,0.105,0.43,0.105,0.43c0.059,0.288,0.086,0.433,0.086,0.433c0.047,0.291,0.068,0.436,0.068,0.436
			c0.344,2.95,0.032,6.044-1.361,8.55c-0.17,0.295-0.26,0.441-0.26,0.441c-0.188,0.291-0.286,0.436-0.286,0.436
			c-0.206,0.287-0.313,0.429-0.313,0.429c-0.224,0.282-0.341,0.422-0.341,0.422c-0.244,0.277-0.371,0.414-0.371,0.414
			c-0.264,0.272-0.401,0.406-0.401,0.406c-1.896,1.786-3.996,2.807-6.164,3.776c-2.517,1.089-5.257,1.987-7.883,2.786
			c-7.203,2.151-20.61,5.473-27.728,7.74c-5.058,1.568-10.353,3.47-15.275,5.427c-11.477,4.568-23.03,10.191-33.855,16.148
			c-9.931,5.505-20.024,11.719-29.173,18.447c-2.89,2.112-11.521,8.797-14.416,10.576c-2.136,1.379-4.817,2.566-7.141,3.618"/>
	</g>
	<g id="POLYLINE_313_">
		
			<path fill="none" stroke="#FB8604" stroke-width="2.75" stroke-linecap="round" stroke-linejoin="round" stroke-miterlimit="10" d="
			M343.77,431.566c-4.083,6-8.222,12.338-11.488,18.82c-0.952,1.916-1.874,3.936-2.584,5.954c-0.543,1.533-1.049,3.382-1.163,4.923
			c-0.019,0.293-0.025,0.436-0.025,0.436c-0.006,0.281-0.006,0.418-0.006,0.418c0.007,0.269,0.013,0.4,0.013,0.4
			c0.02,0.257,0.026,0.32,0.026,0.32c0.141,1.116,0.373,2.074,0.655,2.933c0.101,0.29,0.136,0.385,0.136,0.385
			c0.108,0.279,0.146,0.37,0.146,0.37c0.116,0.267,0.155,0.354,0.155,0.354c0.123,0.256,0.165,0.339,0.165,0.339
			c0.13,0.245,0.175,0.324,0.175,0.324c0.137,0.233,0.184,0.309,0.184,0.309c0.194,0.294,0.244,0.365,0.244,0.365
			c0.206,0.275,0.259,0.342,0.259,0.342c0.218,0.256,0.274,0.318,0.274,0.318c0.289,0.295,0.349,0.351,0.349,0.351
			c0.244,0.215,0.307,0.266,0.307,0.266c0.256,0.196,0.322,0.243,0.322,0.243c0.268,0.177,0.337,0.219,0.337,0.219
			c0.28,0.158,0.352,0.196,0.352,0.196c0.292,0.14,0.367,0.172,0.367,0.172c0.227,0.092,0.304,0.121,0.304,0.121
			c0.235,0.081,0.314,0.106,0.314,0.106c0.242,0.069,0.324,0.091,0.324,0.091c0.249,0.058,0.333,0.075,0.333,0.075
			c0.256,0.047,0.343,0.06,0.343,0.06c0.264,0.035,0.353,0.045,0.353,0.045c0.271,0.024,0.362,0.03,0.362,0.03
			c13.391,0.043,71.863,0.01,86.365,0.012c1.008-0.027,1.88-0.159,2.689-0.381c0.228-0.067,0.303-0.091,0.303-0.091
			c0.223-0.074,0.296-0.1,0.296-0.1c0.289-0.11,0.36-0.139,0.36-0.139c0.279-0.122,0.348-0.153,0.348-0.153
			c0.27-0.133,0.337-0.168,0.337-0.168c0.261-0.145,0.325-0.183,0.325-0.183c0.252-0.157,0.314-0.198,0.314-0.198
			c0.243-0.169,0.302-0.213,0.302-0.213c0.291-0.228,0.348-0.275,0.348-0.275c0.277-0.246,0.331-0.297,0.331-0.297
			c0.264-0.264,0.315-0.318,0.315-0.318c0.25-0.281,0.299-0.34,0.299-0.34c0.19-0.238,0.236-0.299,0.236-0.299
			c0.181-0.25,0.225-0.314,0.225-0.314c0.172-0.262,0.213-0.329,0.213-0.329c0.123-0.205,0.202-0.344,0.202-0.344
			c0.512-0.942,0.847-1.84,1.102-2.671c0.083-0.29,0.121-0.435,0.121-0.435c0.071-0.287,0.103-0.43,0.103-0.43
			c0.059-0.284,0.085-0.426,0.085-0.426c0.047-0.281,0.067-0.421,0.067-0.421c0.035-0.278,0.049-0.416,0.049-0.416
			c0.023-0.275,0.031-0.411,0.031-0.411c0.011-0.272,0.013-0.407,0.013-0.407c-0.001-0.269-0.005-0.402-0.005-0.402
			c-0.013-0.265-0.023-0.397-0.023-0.397c-0.025-0.262-0.041-0.393-0.041-0.393c-0.037-0.259-0.059-0.388-0.059-0.388
			c-0.049-0.256-0.077-0.383-0.077-0.383c-0.061-0.253-0.095-0.379-0.095-0.379c-0.073-0.25-0.113-0.374-0.113-0.374
			c-0.085-0.247-0.131-0.369-0.131-0.369c-0.097-0.244-0.149-0.365-0.149-0.365c-0.109-0.24-0.167-0.36-0.167-0.36
			c-0.12-0.236-0.182-0.353-0.182-0.353c-0.129-0.23-0.196-0.343-0.196-0.343c-0.138-0.224-0.21-0.334-0.21-0.334
			c-0.147-0.217-0.224-0.324-0.224-0.324c-0.157-0.211-0.237-0.315-0.237-0.315c-0.166-0.205-0.251-0.306-0.251-0.306
			c-0.175-0.198-0.265-0.296-0.265-0.296c-0.278-0.287-0.374-0.38-0.374-0.38c-0.196-0.184-0.297-0.274-0.297-0.274
			c-0.205-0.178-0.31-0.265-0.31-0.265c-0.215-0.171-0.324-0.255-0.324-0.255c-0.224-0.165-0.338-0.246-0.338-0.246
			c-0.233-0.159-0.352-0.236-0.352-0.236c-1.706-1.109-3.142-1.451-4.859-2.113c-1.464-0.572-2.906-1.26-4.278-2.025
			c-1.116-0.621-2.237-1.328-3.287-2.057c-1.3-0.973-2.817-1.853-4.185-2.385c-3.759-1.527-7.608-1.744-11.576-1.773
			c-2.903-0.02-6.153,0.053-8.962,0.62c-1.755,0.389-3.237,0.983-4.873,1.631c-3.825,1.56-7.893,3.588-11.601,5.416
			c-3.28,1.535-6.983,3.28-10.545,3.759c-0.252,0.025-0.334,0.031-0.334,0.031c-0.24,0.015-0.318,0.018-0.318,0.018
			c-0.229,0.005-0.303,0.005-0.303,0.005c-0.288-0.009-0.357-0.013-0.357-0.013c-0.269-0.026-0.334-0.034-0.334-0.034
			c-0.25-0.042-0.31-0.055-0.31-0.055c-0.286-0.076-0.313-0.085-0.313-0.085c-0.285-0.11-0.335-0.132-0.335-0.132
			c-0.287-0.149-0.333-0.176-0.333-0.176c-0.265-0.178-0.307-0.21-0.307-0.21c-0.281-0.244-0.32-0.282-0.32-0.282
			c-0.252-0.283-0.286-0.327-0.286-0.327c-0.193-0.274-0.223-0.322-0.223-0.322c-0.143-0.251-0.171-0.303-0.171-0.303
			c-0.128-0.272-0.152-0.328-0.152-0.328c-0.112-0.293-0.133-0.353-0.133-0.353c-0.078-0.25-0.096-0.314-0.096-0.314
			c-0.068-0.263-0.083-0.331-0.083-0.331c-0.39-1.893-0.211-3.585,0.021-5.329"/>
	</g>
	<g id="POLYLINE_314_">
		
			<path fill="none" stroke="#FB8604" stroke-width="2.75" stroke-linecap="round" stroke-linejoin="round" stroke-miterlimit="10" d="
			M429.155,466.643c8.993,2.987,18.601,3.832,28.035,3.551c9.065-0.273,18.22-1.651,26.689-4.991"/>
	</g>
	<g id="POLYLINE_317_">
		
			<path fill="none" stroke="#FB8604" stroke-width="2.75" stroke-linecap="round" stroke-linejoin="round" stroke-miterlimit="10" d="
			M548.201,351.33c-1.944,2.182-3.906,4.942-5.063,7.534c-1.334,2.943-1.904,5.82-1.81,8.844c0.108,3.2,0.895,6.377,2.217,9.289
			c1.504,3.287,3.665,6.119,6.426,7.984c2.438,1.653,5.172,2.525,7.782,2.988c2.953,0.498,5.396,0.522,8.256,0.346"/>
	</g>
	<g id="POLYLINE_318_">
		
			<path fill="none" stroke="#FB8604" stroke-width="2.75" stroke-linecap="round" stroke-linejoin="round" stroke-miterlimit="10" d="
			M489.807,455.009c-0.377,0.099-0.692,0.2-0.912,0.276c-0.287,0.105-0.428,0.16-0.428,0.16c-0.275,0.115-0.41,0.175-0.41,0.175
			c-0.263,0.125-0.391,0.189-0.391,0.189c-0.25,0.134-0.372,0.204-0.372,0.204c-0.238,0.144-0.296,0.181-0.296,0.181
			c-0.283,0.191-0.338,0.231-0.338,0.231c-0.268,0.203-0.32,0.245-0.32,0.245c-0.252,0.216-0.301,0.26-0.301,0.26
			c-0.283,0.275-0.328,0.322-0.328,0.322c-0.261,0.292-0.302,0.342-0.302,0.342c-0.201,0.256-0.239,0.309-0.239,0.309
			c-0.185,0.269-0.221,0.323-0.221,0.323c-0.17,0.281-0.202,0.338-0.202,0.338c-0.154,0.293-0.183,0.353-0.183,0.353
			c-0.112,0.243-0.139,0.305-0.139,0.305c-0.102,0.251-0.126,0.315-0.126,0.315c-0.091,0.26-0.113,0.325-0.113,0.325
			c-0.081,0.268-0.118,0.404-0.118,0.404c-0.069,0.277-0.1,0.419-0.1,0.419c-0.194,0.965-0.265,1.772-0.277,2.484
			c0,0.257,0.002,0.384,0.002,0.384c0.009,0.251,0.016,0.375,0.016,0.375c0.018,0.245,0.029,0.366,0.029,0.366
			c0.027,0.239,0.043,0.357,0.043,0.357c0.036,0.233,0.057,0.348,0.057,0.348c0.046,0.227,0.071,0.339,0.071,0.339
			c0.055,0.221,0.084,0.33,0.084,0.33c0.064,0.215,0.098,0.322,0.098,0.322c0.073,0.209,0.112,0.313,0.112,0.313
			c0.082,0.204,0.125,0.304,0.125,0.304c0.139,0.295,0.189,0.391,0.189,0.391c0.157,0.283,0.213,0.375,0.213,0.375
			c0.176,0.271,0.237,0.36,0.237,0.36c0.194,0.259,0.262,0.344,0.262,0.344c0.252,0.288,0.272,0.308,0.272,0.308
			c0.279,0.253,0.326,0.29,0.326,0.29c0.251,0.183,0.304,0.219,0.304,0.219c0.283,0.174,0.343,0.208,0.343,0.208
			c0.25,0.132,0.315,0.164,0.315,0.164c0.271,0.126,0.341,0.156,0.341,0.156c2.243,0.896,4.32,1.079,6.587,1.282
			c1.579,0.12,3.378,0.16,4.967,0.164c11.328-0.059,35.261,0.117,46.751-0.065c0.292-0.036,0.434-0.058,0.434-0.058
			c0.278-0.049,0.346-0.062,0.346-0.062c0.266-0.059,0.331-0.075,0.331-0.075c0.254-0.069,0.316-0.087,0.316-0.087
			c0.243-0.079,0.302-0.1,0.302-0.1c0.287-0.113,0.343-0.137,0.343-0.137c0.27-0.128,0.322-0.155,0.322-0.155
			c0.252-0.143,0.301-0.173,0.301-0.173c0.28-0.191,0.324-0.225,0.324-0.225c0.255-0.213,0.296-0.25,0.296-0.25
			c0.267-0.275,0.303-0.316,0.303-0.316c0.203-0.258,0.234-0.303,0.234-0.303c0.178-0.28,0.206-0.328,0.206-0.328
			c0.13-0.25,0.154-0.301,0.154-0.301c0.112-0.265,0.133-0.319,0.133-0.319c0.094-0.28,0.112-0.337,0.112-0.337
			c0.077-0.295,0.091-0.356,0.091-0.356c0.049-0.247,0.059-0.31,0.059-0.31c0.161-1.075,0.189-2.069,0.105-2.926
			c-0.024-0.214-0.038-0.32-0.038-0.32c-0.031-0.208-0.049-0.311-0.049-0.311c-0.039-0.203-0.06-0.303-0.06-0.303
			c-0.07-0.294-0.096-0.391-0.096-0.391c-0.085-0.283-0.116-0.375-0.116-0.375c-0.1-0.272-0.135-0.36-0.135-0.36
			c-0.114-0.26-0.155-0.345-0.155-0.345c-0.129-0.249-0.174-0.33-0.174-0.33c-0.144-0.238-0.194-0.315-0.194-0.315
			c-0.158-0.226-0.213-0.3-0.213-0.3c-0.233-0.285-0.294-0.354-0.294-0.354c-0.259-0.273-0.327-0.34-0.327-0.34
			c-0.286-0.264-0.361-0.329-0.361-0.329c-0.233-0.193-0.313-0.256-0.313-0.256c-0.249-0.188-0.335-0.25-0.335-0.25
			c-0.265-0.183-0.357-0.243-0.357-0.243c-2.17-1.415-4.409-1.923-6.623-2.67c-2.485-0.857-4.699-1.988-6.643-3.33
			c-0.274-0.159-0.33-0.189-0.33-0.189c-0.284-0.145-0.342-0.173-0.342-0.173c-0.234-0.106-0.354-0.156-0.354-0.156
			c-0.242-0.095-0.366-0.139-0.366-0.139c-0.25-0.083-0.377-0.122-0.377-0.122c-0.258-0.072-0.389-0.106-0.389-0.106
			c-0.266-0.061-0.401-0.089-0.401-0.089c-0.274-0.05-0.413-0.072-0.413-0.072c-0.282-0.039-0.425-0.055-0.425-0.055
			c-2.305-0.227-4.289,0.181-6.394,0.738c-2.035,0.542-4.115,1.21-6.063,2.011c-1.947,0.757-3.768,1.889-5.434,2.623
			c-1.962,0.858-3.889,1.372-5.786,1.482c-0.23,0.01-0.345,0.013-0.345,0.013c-0.231,0.002-0.347,0.001-0.347,0.001
			c-2.667-0.033-5.137-1.165-7.131-2.452c-0.253-0.153-0.381-0.226-0.381-0.226c-0.256-0.141-0.385-0.209-0.385-0.209
			c-0.259-0.13-0.39-0.192-0.39-0.192c-0.263-0.119-0.395-0.175-0.395-0.175c-0.266-0.107-0.399-0.158-0.399-0.158
			c-0.269-0.096-0.404-0.141-0.404-0.141c-0.272-0.085-0.408-0.124-0.408-0.124c-0.275-0.073-0.413-0.107-0.413-0.107
			c-0.278-0.062-0.417-0.09-0.417-0.09c-0.281-0.05-0.422-0.073-0.422-0.073c-0.284-0.039-0.427-0.056-0.427-0.056
			c-0.287-0.028-0.431-0.039-0.431-0.039c-0.29-0.016-0.436-0.022-0.436-0.022C492.082,454.537,490.998,454.708,489.807,455.009z"/>
	</g>
</g>
<g id="AG-OUTLINE">
	<g id="POLYLINE_27_">
		
			<path fill="none" stroke="#FB8604" stroke-width="3.5" stroke-linecap="round" stroke-linejoin="round" stroke-miterlimit="10" d="
			M483.879,465.203c0.05,0.218,0.077,0.326,0.077,0.326c0.058,0.213,0.09,0.318,0.09,0.318c0.067,0.207,0.103,0.309,0.103,0.309
			c0.076,0.201,0.116,0.301,0.116,0.301c0.129,0.292,0.175,0.388,0.175,0.388c0.146,0.281,0.198,0.373,0.198,0.373
			c0.164,0.27,0.221,0.358,0.221,0.358c0.181,0.258,0.244,0.343,0.244,0.343c0.198,0.247,0.267,0.328,0.267,0.328
			c0.276,0.279,0.32,0.318,0.32,0.318c0.285,0.225,0.336,0.261,0.336,0.261c0.272,0.177,0.33,0.211,0.33,0.211
			c0.241,0.135,0.304,0.167,0.304,0.167c0.262,0.128,0.331,0.159,0.331,0.159c2.114,0.889,4.038,1.081,6.183,1.3
			c1.771,0.155,3.728,0.203,5.511,0.208c11.329-0.059,35.261,0.117,46.751-0.065c0.292-0.036,0.434-0.058,0.434-0.058
			c0.278-0.049,0.346-0.062,0.346-0.062c0.266-0.059,0.331-0.075,0.331-0.075c0.254-0.069,0.316-0.087,0.316-0.087
			c0.243-0.079,0.302-0.1,0.302-0.1c0.287-0.113,0.343-0.137,0.343-0.137c0.27-0.128,0.322-0.155,0.322-0.155
			c0.252-0.143,0.301-0.173,0.301-0.173c0.28-0.191,0.324-0.225,0.324-0.225c0.255-0.213,0.296-0.25,0.296-0.25
			c0.267-0.275,0.303-0.316,0.303-0.316c0.203-0.258,0.234-0.303,0.234-0.303c0.178-0.28,0.206-0.328,0.206-0.328
			c0.13-0.25,0.154-0.301,0.154-0.301c0.112-0.265,0.133-0.319,0.133-0.319c0.094-0.28,0.112-0.337,0.112-0.337
			c0.077-0.295,0.091-0.356,0.091-0.356c0.049-0.247,0.059-0.31,0.059-0.31c0.161-1.075,0.189-2.069,0.105-2.926
			c-0.024-0.214-0.038-0.32-0.038-0.32c-0.031-0.208-0.049-0.311-0.049-0.311c-0.039-0.203-0.06-0.303-0.06-0.303
			c-0.07-0.294-0.096-0.391-0.096-0.391c-0.085-0.283-0.116-0.375-0.116-0.375c-0.1-0.272-0.135-0.36-0.135-0.36
			c-0.114-0.26-0.155-0.345-0.155-0.345c-0.129-0.249-0.174-0.33-0.174-0.33c-0.144-0.238-0.194-0.315-0.194-0.315
			c-0.158-0.226-0.213-0.3-0.213-0.3c-0.233-0.285-0.294-0.354-0.294-0.354c-0.259-0.273-0.327-0.34-0.327-0.34
			c-0.286-0.264-0.361-0.329-0.361-0.329c-0.233-0.193-0.313-0.256-0.313-0.256c-0.249-0.188-0.335-0.25-0.335-0.25
			c-0.265-0.183-0.357-0.243-0.357-0.243c-2.17-1.415-4.408-1.923-6.623-2.67c-2.364-0.827-4.476-1.855-6.325-3.124
			c-0.284-0.185-0.381-0.244-0.381-0.244c-0.197-0.113-0.297-0.168-0.297-0.168c0.507-0.382,2.829-1.362,3.39-1.659
			c1.234-0.594,2.491-1.281,3.65-2.012c2.852-1.748,11.586-8.508,14.416-10.576c9.14-6.717,19.112-12.868,29.03-18.368
			c11.07-6.112,22.875-11.823,34.636-16.48c4.679-1.842,9.838-3.688,14.638-5.174c7.11-2.266,20.537-5.592,27.728-7.74
			c2.624-0.798,5.366-1.696,7.883-2.786c2.094-0.905,4.315-2.089,5.879-3.51c0.285-0.266,0.422-0.4,0.422-0.4
			c0.264-0.272,0.391-0.409,0.391-0.409c0.244-0.277,0.361-0.417,0.361-0.417c0.224-0.282,0.332-0.424,0.332-0.424
			c0.206-0.287,0.304-0.431,0.304-0.431c0.188-0.291,0.277-0.438,0.277-0.438c1.619-2.726,1.861-5.902,1.532-8.845
			c-0.044-0.291-0.068-0.436-0.068-0.436c-0.055-0.289-0.086-0.433-0.086-0.433c-0.068-0.287-0.105-0.43-0.105-0.43
			c-0.082-0.285-0.126-0.426-0.126-0.426c-0.096-0.282-0.148-0.423-0.148-0.423c-0.112-0.28-0.141-0.35-0.141-0.35
			c-0.125-0.278-0.158-0.347-0.158-0.347c-0.139-0.276-0.176-0.345-0.176-0.345c-0.154-0.274-0.195-0.342-0.195-0.342
			c-0.17-0.272-0.215-0.339-0.215-0.339c-0.186-0.27-0.235-0.337-0.235-0.337c-0.203-0.267-0.256-0.334-0.256-0.334
			c-0.221-0.265-0.278-0.331-0.278-0.331c-0.239-0.263-0.364-0.394-0.364-0.394c-0.262-0.26-0.399-0.389-0.399-0.389
			c-1.549-1.403-3.1-2.245-4.791-3.085c-2.115-1.029-4.444-1.917-6.667-2.7c-7.652-2.7-19.189-5.481-26.915-8.04
			c-2.24-0.754-4.492-1.626-6.596-2.702c-1.665-0.848-3.285-1.864-4.805-2.949c-4.842-3.573-10.753-8.312-15.661-11.792
			c-11.645-8.314-24.007-16.1-37.453-21.141c-12.582-4.668-26.216-7.029-39.623-5.656c-3.163,0.323-6.37,0.895-9.457,1.662
			c-4.937,1.188-12.075,3.711-16.95,5.294c-5.176,1.639-10.612,3.079-16.072,3.016c-4.295-0.041-8.565-0.931-12.67-2.147
			c-6.485-1.896-16.837-6.269-23.191-8.697c-21.931-8.254-48.429-14.474-71.835-10.573c-17.551,2.961-33.436,12.022-47.383,22.77
			c-13.289,10.358-26.179,21.97-34.919,36.542c-5.855,9.699-9.358,20.721-10.985,31.9c-0.973,6.8-1.302,13.799-0.676,20.646
			c0.495,5.379,1.686,10.997,4.212,15.767c-7.263,6.566-15.017,13.096-23.037,18.699c-1.713,1.184-3.602,2.522-5.426,3.501
			c-2.204,1.196-4.556,2.184-6.916,3.027c-7.292,2.566-15.01,4.027-22.645,5.133c-11.361,1.58-23.227,2.393-34.691,2.687
			c-9.488,0.227-19.541,0.06-29.019-0.431c-7.961-0.332-21.527-1.656-29.584-2.365c-13.89-1.366-28.912-3.144-42.687-5.371
			c-5.812-0.92-12.558-1.945-18.426-2.372c-2.504-0.157-5.37-0.336-7.783,0.089c-0.202,0.042-0.298,0.064-0.298,0.064
			c-0.275,0.071-0.361,0.096-0.361,0.096c-0.281,0.094-0.319,0.108-0.319,0.108c-0.276,0.121-0.308,0.136-0.308,0.136
			c-0.279,0.17-0.303,0.188-0.303,0.188c-0.294,0.259-0.312,0.278-0.312,0.278c-0.219,0.289-0.23,0.308-0.23,0.308
			c-0.114,0.28-0.119,0.3-0.119,0.3c-0.027,0.29-0.025,0.311-0.025,0.311c0.054,0.279,0.061,0.3,0.061,0.3
			c0.13,0.287,0.142,0.31,0.142,0.31c0.187,0.273,0.205,0.296,0.205,0.296c0.252,0.281,0.3,0.328,0.3,0.328
			c0.264,0.24,0.322,0.289,0.322,0.289c0.248,0.196,0.314,0.246,0.314,0.246c0.499,0.381,1.014,0.658,1.379,0.873
			c0.966,0.518,1.617,0.83,2.498,1.212c1.437,0.611,2.93,1.202,4.414,1.681c7.561,2.336,16.218,3.798,24.03,5.224
			c23.609,3.977,49.266,7.604,73.121,9.119c16.977,1.161,34.769,1.38,51.794,0.932c9.102-0.303,18.548-0.684,27.542-2.154
			c5.233-0.838,10.322-2.614,15.032-5.028c3.281-1.687,6.43-3.744,9.308-6.052c2.343-1.868,4.512-4.048,6.856-5.915
			c5.993-4.882,12.701-8.962,19.636-12.361c2.258,1.525,4.68,3.271,6.514,5.24c2.245,2.308,4.467,5.759,6.783,7.863
			c0.263,0.231,0.396,0.344,0.396,0.344c1.362,1.122,2.636,1.783,3.988,2.45l3.336,1.57c0.289,0.14,0.867,0.432,1.151,0.58
			c-0.476,1.487-0.834,3.019-0.901,4.402c-0.009,0.252-0.01,0.334-0.01,0.334c0,0.244,0.002,0.323,0.002,0.323
			c0.009,0.235,0.014,0.312,0.014,0.312c0.018,0.227,0.026,0.301,0.026,0.301c0.157,1.197,0.398,2.184,0.72,3.109
			c0.105,0.284,0.141,0.377,0.141,0.377c0.112,0.273,0.151,0.362,0.151,0.362c0.119,0.262,0.16,0.347,0.16,0.347
			c0.126,0.25,0.17,0.332,0.17,0.332c0.134,0.239,0.179,0.317,0.179,0.317c0.141,0.228,0.189,0.302,0.189,0.302
			c0.199,0.287,0.25,0.356,0.25,0.356c0.211,0.268,0.265,0.332,0.265,0.332c0.223,0.249,0.28,0.309,0.28,0.309
			c0.295,0.285,0.356,0.339,0.356,0.339c0.249,0.207,0.313,0.257,0.313,0.257c0.261,0.189,0.328,0.233,0.328,0.233
			c0.273,0.17,0.343,0.21,0.343,0.21c0.285,0.151,0.358,0.186,0.358,0.186c0.222,0.1,0.297,0.132,0.297,0.132
			c0.229,0.089,0.307,0.117,0.307,0.117c0.236,0.078,0.316,0.102,0.316,0.102c0.244,0.066,0.326,0.087,0.326,0.087
			c0.251,0.055,0.336,0.072,0.336,0.072c0.258,0.044,0.345,0.057,0.345,0.057c0.265,0.033,0.355,0.041,0.355,0.041
			c0.273,0.021,0.365,0.026,0.365,0.026c13.259,0.03,71.853,0.008,86.248,0.008c0.845-0.021,1.559-0.114,2.228-0.26
			c0.293-0.07,0.437-0.108,0.437-0.108c0.283-0.082,0.423-0.127,0.423-0.127c0.274-0.095,0.409-0.145,0.409-0.145
			c0.264-0.107,0.33-0.135,0.33-0.135c0.257-0.118,0.32-0.148,0.32-0.148c0.249-0.128,0.31-0.161,0.31-0.161
			c0.241-0.138,0.3-0.174,0.3-0.174c0.29-0.187,0.347-0.226,0.347-0.226c0.278-0.202,0.333-0.244,0.333-0.244
			c0.266-0.218,0.318-0.263,0.318-0.263c0.254-0.233,0.304-0.282,0.304-0.282c0.243-0.249,0.29-0.3,0.29-0.3
			c0.231-0.264,0.276-0.319,0.276-0.319c0.219-0.28,0.261-0.337,0.261-0.337c0.166-0.235,0.247-0.356,0.247-0.356
			c0.157-0.248,0.233-0.374,0.233-0.374c0.147-0.26,0.99,0.014,0.99,0.014l0.847,0.261c1.066,0.319,2.34,0.664,3.422,0.925
			c2.852,0.688,5.828,1.201,8.741,1.542c5.814,0.68,11.792,0.738,17.634,0.39C468.551,469.547,476.487,468.116,483.879,465.203z"/>
	</g>
</g>
</svg>
