<?xml version="1.0" encoding="utf-8"?>
<!-- Generator: Adobe Illustrator 24.2.1, SVG Export Plug-In . SVG Version: 6.00 Build 0)  -->
<!DOCTYPE svg PUBLIC "-//W3C//DTD SVG 1.1//EN" "http://www.w3.org/Graphics/SVG/1.1/DTD/svg11.dtd" [
	<!ENTITY ns_flows "http://ns.adobe.com/Flows/1.0/">
	<!ENTITY ns_extend "http://ns.adobe.com/Extensibility/1.0/">
	<!ENTITY ns_ai "http://ns.adobe.com/AdobeIllustrator/10.0/">
	<!ENTITY ns_graphs "http://ns.adobe.com/Graphs/1.0/">
	<!ENTITY ns_vars "http://ns.adobe.com/Variables/1.0/">
	<!ENTITY ns_imrep "http://ns.adobe.com/ImageReplacement/1.0/">
	<!ENTITY ns_sfw "http://ns.adobe.com/SaveForWeb/1.0/">
	<!ENTITY ns_custom "http://ns.adobe.com/GenericCustomNamespace/1.0/">
	<!ENTITY ns_adobe_xpath "http://ns.adobe.com/XPath/1.0/">
]>
<svg version="1.1" xmlns:x="&ns_extend;" xmlns:i="&ns_ai;" xmlns:graph="&ns_graphs;"
	 xmlns="http://www.w3.org/2000/svg" xmlns:xlink="http://www.w3.org/1999/xlink" xmlns:a="http://ns.adobe.com/AdobeSVGViewerExtensions/3.0/"
	 x="0px" y="0px" width="750px" height="750px" viewBox="0 0 750 750" enable-background="new 0 0 750 750" xml:space="preserve">
<metadata>
	<sfw  xmlns="&ns_sfw;">
		<slices></slices>
		<sliceSourceBounds  bottomLeftOrigin="true" height="8750" width="7929.938" x="-3957.938" y="-526"></sliceSourceBounds>
	</sfw>
</metadata>
<g id="FILL-BACKGROUND">
	<rect fill="#FFFFFF" width="750" height="750"/>
</g>
<g id="N-TEXT">
</g>
<g id="N-DIMENSIONS">
</g>
<g id="AG-DIAGRAM">
	<g id="POLYLINE_619_">
		<g>
			<g>
				
					<line fill="none" stroke="#FB8604" stroke-width="3.25" stroke-linecap="round" stroke-linejoin="round" x1="74.836" y1="532.258" x2="76.836" y2="532.258"/>
				
					<line fill="none" stroke="#FB8604" stroke-width="3.25" stroke-linecap="round" stroke-linejoin="round" stroke-dasharray="3.9652,6.9392" x1="83.775" y1="532.258" x2="549.196" y2="532.258"/>
				
					<line fill="none" stroke="#FB8604" stroke-width="3.25" stroke-linecap="round" stroke-linejoin="round" x1="552.666" y1="532.258" x2="554.666" y2="532.258"/>
			</g>
		</g>
	</g>
</g>
<g id="AG-DETAIL-DIAGRAM">
</g>
<g id="AG-DETAILS">
	<g id="POLYLINE_329_">
		<path fill="none" stroke="#FB8604" stroke-width="2" stroke-linecap="round" stroke-linejoin="round" stroke-miterlimit="10" d="
			M498.071,474.026c1.238,1.764,2.753,3.344,4.473,4.418c2.566,1.604,5.554,2.611,8.561,2.903"/>
	</g>
	<g id="POLYLINE_328_">
		<path fill="none" stroke="#FB8604" stroke-width="2" stroke-linecap="round" stroke-linejoin="round" stroke-miterlimit="10" d="
			M457.033,344.625c1.643,0.254,3.75,0.284,5.263,0.911c2.76,1.103,4.198,3.591,5.638,5.939c1.681,2.845,3.799,7.397,5.431,10.273
			c0.454,0.794,1.028,1.734,1.59,2.411c0.135,0.158,0.202,0.233,0.202,0.233c0.133,0.14,0.166,0.173,0.166,0.173
			c0.163,0.154,0.195,0.182,0.195,0.182c0.145,0.118,0.17,0.137,0.17,0.137c0.145,0.101,0.169,0.116,0.169,0.116
			c0.142,0.083,0.166,0.096,0.166,0.096c0.163,0.078,0.186,0.088,0.186,0.088c0.16,0.061,0.183,0.068,0.183,0.068
			c0.158,0.047,0.202,0.059,0.202,0.059c0.304,0.073,0.646,0.118,0.823,0.157c0.126,0.029,0.168,0.04,0.168,0.04
			c0.147,0.044,0.167,0.051,0.167,0.051c0.146,0.057,0.167,0.066,0.167,0.066c0.146,0.073,0.166,0.085,0.166,0.085
			c0.145,0.092,0.166,0.107,0.166,0.107c0.146,0.115,0.166,0.134,0.166,0.134c0.148,0.144,0.173,0.17,0.173,0.17
			c0.124,0.141,0.149,0.171,0.149,0.171c0.125,0.159,0.174,0.227,0.174,0.227c0.1,0.143,0.15,0.217,0.15,0.217
			c0.416,0.644,0.657,1.143,0.97,1.8c1.139,2.468,2.54,6.333,3.72,8.779c0.879,1.847,2.041,3.948,3.574,5.24
			c2.174,1.904,4.896,2.293,7.539,2.961"/>
	</g>
	<g id="POLYLINE_314_">
		<path fill="none" stroke="#FB8604" stroke-width="2" stroke-linecap="round" stroke-linejoin="round" stroke-miterlimit="10" d="
			M482.96,517.793c-1.399,0.484-2.961,1.131-4.083,2.056c-0.163,0.136-0.244,0.206-0.244,0.206
			c-0.159,0.144-0.237,0.218-0.237,0.218c-0.154,0.152-0.23,0.23-0.23,0.23c-0.363,0.387-0.554,0.639-0.778,0.963
			c-1.125,1.731-1.577,3.468-1.867,5.41c-0.236,1.783-0.223,3.617,0.138,5.382"/>
	</g>
</g>
<g id="AG-ANIMALS">
	<g id="POLYLINE_651_">
		
			<path fill="none" stroke="#FB8604" stroke-width="2.75" stroke-linecap="round" stroke-linejoin="round" stroke-miterlimit="10" d="
			M630.062,262.946c6.484,1.02,12.643,3.74,17.99,7.514c3.546,2.539,6.813,5.8,8.28,9.993c1.154,3.12,1.622,6.705,2.663,9.861
			c1.082,3.498,3.392,6.441,5.839,9.101c1.469,1.597,4.113,4.323,5.421,5.992c0.967,1.208,1.891,2.492,2.694,3.813
			c0.724,1.193,1.449,2.575,1.866,3.888c0.381,1.203,0.48,2.212,0.588,3.402"/>
	</g>
	<g id="POLYLINE_652_">
		
			<path fill="none" stroke="#FB8604" stroke-width="2.75" stroke-linecap="round" stroke-linejoin="round" stroke-miterlimit="10" d="
			M349.544,411.694c-1.497,3.561-3.151,7.18-5.195,10.46c-1.261,1.995-2.87,4.215-4.815,5.504c-0.154,0.098-0.231,0.145-0.231,0.145
			c-0.153,0.09-0.23,0.133-0.23,0.133c-2.231,1.133-3.992,2.847-5.462,4.637c-1.945,2.363-3.541,5.209-4.956,7.926
			c-2.609,4.943-5.161,10.284-7.429,15.393c-2.537,5.715-5.805,11.444-9.024,16.813c-3.162,5.186-6.636,10.697-10.318,15.517
			c-6.779,8.997-14.707,17.253-23.05,24.806c-4.145,3.733-8.58,7.44-13.166,10.619c-3.204,2.22-6.607,4.258-10.221,5.738
			c-3.148,1.297-6.483,2.218-9.865,2.623c-1.159,0.139-2.354,0.224-3.521,0.245c-25.301,0.006-110.108,0.025-136.705-0.009
			c-2.535-0.049-5.17-0.163-7.683-0.527c-0.544-0.085-1.168-0.184-1.709-0.305c-0.926-0.192-1.966-0.5-2.76-0.892
			c-0.159-0.082-0.235-0.123-0.235-0.123c-0.147-0.085-0.218-0.128-0.218-0.128c-0.136-0.087-0.169-0.11-0.169-0.11
			c-0.157-0.112-0.187-0.135-0.187-0.135c-0.142-0.116-0.169-0.14-0.169-0.14c-0.152-0.144-0.176-0.168-0.176-0.168
			c-0.132-0.149-0.153-0.174-0.153-0.174c-0.112-0.154-0.129-0.18-0.129-0.18c-0.092-0.159-0.106-0.185-0.106-0.185
			c-0.072-0.164-0.082-0.191-0.082-0.191c-0.044-0.14-0.052-0.169-0.052-0.169c-0.03-0.144-0.035-0.173-0.035-0.173
			c-0.016-0.147-0.018-0.177-0.018-0.177c-0.038-1.266,0.218-2.5,0.694-3.553c0.586-1.314,1.532-2.43,2.522-3.285
			c0.109-0.087,0.166-0.131,0.166-0.131c0.118-0.086,0.179-0.129,0.179-0.129c0.127-0.085,0.193-0.127,0.193-0.127
			c0.137-0.084,0.207-0.125,0.207-0.125c0.195-0.113,0.402-0.217,0.456-0.245c0.081-0.04,0.164-0.08,0.164-0.08
			c0.085-0.04,0.171-0.079,0.171-0.079c0.178-0.081,0.373-0.161,0.549-0.232c0.803-0.316,1.654-0.57,2.49-0.785
			c2.333-0.6,4.834-0.961,7.225-1.264c3.929-0.465,11.255-0.976,15.357-1.298c14.308-1.219,33.288-3.48,47.703-5.093
			c6.619-0.67,19.761-1.91,25.998-2.726c11.131-1.503,22.887-3.722,33.848-6.166c5.253-1.23,10.543-2.712,15.554-4.723
			c3.196-1.299,6.337-2.813,9.163-4.799c2.429-1.656,4.388-3.848,6.264-6.056c3.516-4.167,6.522-8.789,8.97-13.658
			c1.838-3.631,3.573-7.93,5.107-11.726c6.295-15.497,19.132-55.583,24.724-72.018c4.573-13.777,9.681-27.73,17.008-40.302
			c3.506-5.919,7.746-11.45,12.43-16.483c3.169-3.405,6.62-6.669,10.165-9.681c3.939-3.385,10.059-8.682,13.83-12.151
			c2.772-2.503,6.48-6.024,9.168-8.613c3.378-3.369,7.026-6.915,10.876-9.731c3.854-2.881,8.041-5.415,12.374-7.506
			c4.218-2.052,8.825-3.703,13.259-5.228c7.654-2.61,16.022-4.851,23.886-6.783c4.832-1.162,10.51-2.48,15.438-3.046
			c8.218-1.041,16.634-1.073,24.87-0.206c7.837,0.742,16.21,2.765,23.882,4.535c7.09,1.717,14.454,3.736,21.394,5.989
			c5.918,1.869,12.261,4.404,18.118,6.473c5.47,1.944,11.418,3.971,17.073,5.283c3.684,0.794,7.506,1.303,11.279,1.325
			c1.621,0.019,3.264-0.117,4.879-0.214c2.544-0.127,5.191-0.107,7.735,0.024c3.808,0.167,7.672,0.893,11.481,0.349
			c1.887-0.244,3.826-0.851,5.292-1.89c2.505-1.73,4.092-4.025,5.477-6.606c0.768-1.622,1.742-3.034,2.862-4.417
			c4.581-5.553,10.119-10.547,15.456-15.364"/>
	</g>
	<g id="POLYLINE_653_">
		
			<path fill="none" stroke="#FB8604" stroke-width="2.75" stroke-linecap="round" stroke-linejoin="round" stroke-miterlimit="10" d="
			M613.354,278.124c-2.371-4.172-4.512-8.63-6.298-13.083c-2.22-5.62-3.789-11.623-3.681-17.701
			c0.081-4.023,0.966-8.72,4.178-11.392c0.152-0.121,0.204-0.16,0.204-0.16c0.155-0.114,0.207-0.151,0.207-0.151
			c0.158-0.108,0.211-0.142,0.211-0.142c0.161-0.101,0.215-0.133,0.215-0.133c1.097-0.664,2.303-0.909,3.455-0.792
			c1.569,0.165,2.966,0.888,4.177,1.704c3.037,2.113,5.372,5.1,7.314,8.214c2.689,4.426,4.637,9.317,5.913,14.33
			c0.581,2.351,1.018,4.783,1.056,7.21c0.047,2.111-0.27,4.249-0.678,6.316"/>
	</g>
	<g id="POLYLINE_654_">
		
			<path fill="none" stroke="#FB8604" stroke-width="2.75" stroke-linecap="round" stroke-linejoin="round" stroke-miterlimit="10" d="
			M611.447,302.861c-0.014,0.142-0.02,0.214-0.02,0.214c-0.009,0.145-0.012,0.219-0.012,0.219c-0.038,1.476,0.359,2.881,0.81,4.108
			c0.488,1.27,1.049,2.387,1.786,3.357c0.104,0.129,0.138,0.17,0.138,0.17c0.135,0.153,0.169,0.189,0.169,0.189
			c0.163,0.16,0.194,0.189,0.194,0.189c0.156,0.126,0.169,0.135,0.169,0.135c0.157,0.098,0.169,0.105,0.169,0.105
			c0.162,0.073,0.184,0.081,0.184,0.081c0.156,0.046,0.178,0.051,0.178,0.051c0.228,0.044,0.224,0.038,0.4,0.064
			c0.162,0.028,0.185,0.032,0.185,0.032c0.146,0.036,0.17,0.043,0.17,0.043c0.151,0.053,0.175,0.062,0.175,0.062
			c0.145,0.066,0.17,0.079,0.17,0.079c0.127,0.068,0.178,0.098,0.178,0.098c0.159,0.099,0.213,0.134,0.213,0.134
			c2.226,1.57,3.673,3.936,5.675,5.665c1.341,1.116,2.666,1.811,4.202,2.526c1.191,0.528,2.548,1.074,3.821,1.255
			c0.132,0.014,0.175,0.018,0.175,0.018c0.125,0.008,0.165,0.01,0.165,0.01c0.157,0.004,0.232,0.004,0.232,0.004
			c0.357-0.007,0.749-0.055,0.968-0.065c0.14-0.006,0.211-0.008,0.211-0.008c0.147,0,0.185,0.001,0.185,0.001
			c0.155,0.008,0.195,0.011,0.195,0.011c0.124,0.012,0.166,0.017,0.166,0.017c2.108,0.356,5.304,1.924,7.32,2.675
			c1.631,0.662,4.21,1.399,5.918,1.915c1.706,0.518,3.391,1.233,4.886,2.195l2.615,1.673c1.448,0.915,3.091,1.792,4.688,2.289
			c1.558,0.493,3.197,0.738,4.828,0.792c2.466,0.065,5.248-0.267,7.369-1.547c0.135-0.086,0.184-0.118,0.184-0.118
			c0.145-0.1,0.192-0.134,0.192-0.134c0.139-0.104,0.185-0.139,0.185-0.139c0.133-0.107,0.177-0.143,0.177-0.143
			c0.128-0.111,0.17-0.148,0.17-0.148c0.163-0.152,0.202-0.191,0.202-0.191c0.154-0.158,0.229-0.238,0.229-0.238
			c1.275-1.424,1.766-3.066,2.302-4.799"/>
	</g>
	<g id="POLYLINE_655_">
		
			<path fill="none" stroke="#FB8604" stroke-width="2.75" stroke-linecap="round" stroke-linejoin="round" stroke-miterlimit="10" d="
			M674.573,315.408c-0.139-0.113-0.175-0.14-0.175-0.14c-0.148-0.103-0.186-0.127-0.186-0.127c-0.155-0.092-0.195-0.114-0.195-0.114
			c-0.162-0.082-0.204-0.101-0.204-0.101c-0.126-0.055-0.169-0.072-0.169-0.072c-0.13-0.049-0.174-0.064-0.174-0.064
			c-0.133-0.043-0.178-0.056-0.178-0.056c-0.136-0.037-0.182-0.049-0.182-0.049c-0.138-0.032-0.185-0.042-0.185-0.042
			c-0.141-0.026-0.188-0.034-0.188-0.034c-0.143-0.021-0.191-0.027-0.191-0.027c-1.212-0.139-2.388,0.085-3.406,0.548
			c-0.162,0.079-0.201,0.099-0.201,0.099c-0.117,0.063-0.178,0.098-0.178,0.098c-0.121,0.072-0.18,0.109-0.18,0.109
			c-0.115,0.076-0.171,0.114-0.171,0.114c-0.162,0.12-0.214,0.161-0.214,0.161c-0.15,0.127-0.198,0.17-0.198,0.17
			c-0.139,0.133-0.183,0.178-0.183,0.178c-0.127,0.139-0.168,0.186-0.168,0.186c-0.116,0.145-0.153,0.194-0.153,0.194
			c-0.105,0.15-0.138,0.201-0.138,0.201c-0.094,0.155-0.124,0.207-0.124,0.207c-0.083,0.16-0.109,0.214-0.109,0.214
			c-0.073,0.164-0.095,0.219-0.095,0.219c-0.042,0.111-0.062,0.167-0.062,0.167c-0.037,0.113-0.055,0.17-0.055,0.17
			c-0.032,0.115-0.047,0.172-0.047,0.172c-0.027,0.116-0.039,0.175-0.039,0.175c-0.022,0.117-0.032,0.176-0.032,0.176
			c-0.017,0.119-0.024,0.178-0.024,0.178c-0.012,0.12-0.017,0.18-0.017,0.18c-0.008,0.135-0.011,0.202-0.011,0.202
			c-0.002,0.136-0.001,0.204-0.001,0.204c0.004,0.136,0.007,0.205,0.007,0.205c0.01,0.137,0.016,0.206,0.016,0.206
			c0.016,0.138,0.025,0.207,0.025,0.207c0.022,0.139,0.034,0.208,0.034,0.208c0.028,0.139,0.043,0.209,0.043,0.209
			c0.034,0.14,0.052,0.21,0.052,0.21c0.039,0.14,0.061,0.21,0.061,0.21c0.045,0.14,0.069,0.211,0.069,0.211
			c0.051,0.141,0.078,0.211,0.078,0.211c0.747,1.849,2.196,3.329,3.682,4.329c0.162,0.103,0.244,0.152,0.244,0.152
			c0.163,0.094,0.244,0.139,0.244,0.139c0.162,0.085,0.243,0.126,0.243,0.126c0.161,0.076,0.241,0.111,0.241,0.111
			c0.159,0.065,0.199,0.081,0.199,0.081c0.158,0.056,0.197,0.069,0.197,0.069c0.156,0.047,0.194,0.057,0.194,0.057
			c0.153,0.037,0.191,0.044,0.191,0.044c0.15,0.026,0.187,0.031,0.187,0.031c0.147,0.015,0.183,0.017,0.183,0.017
			c0.143,0.004,0.178,0.003,0.178,0.003c0.156-0.01,0.173-0.012,0.173-0.012c0.144-0.022,0.173-0.028,0.173-0.028
			c0.139-0.036,0.167-0.044,0.167-0.044c0.161-0.06,0.187-0.071,0.187-0.071c0.154-0.077,0.179-0.091,0.179-0.091
			c0.147-0.094,0.171-0.111,0.171-0.111c0.164-0.13,0.186-0.15,0.186-0.15c0.155-0.151,0.176-0.173,0.176-0.173
			c0.126-0.145,0.146-0.17,0.146-0.17c0.119-0.159,0.138-0.186,0.138-0.186c0.094-0.143,0.131-0.202,0.131-0.202
			c0.072-0.122,0.106-0.185,0.106-0.185c0.068-0.129,0.101-0.195,0.101-0.195c0.064-0.136,0.096-0.205,0.096-0.205
			c0.469-1.093,0.664-2.212,0.763-3.284c0.1-1.245,0.032-2.448-0.295-3.533c-0.052-0.163-0.071-0.216-0.071-0.216
			c-0.058-0.158-0.078-0.21-0.078-0.21c-0.064-0.153-0.086-0.203-0.086-0.203c-0.069-0.148-0.094-0.196-0.094-0.196
			c-0.075-0.142-0.102-0.188-0.102-0.188c-0.081-0.136-0.11-0.18-0.11-0.18c-0.088-0.129-0.118-0.171-0.118-0.171
			c-0.126-0.162-0.159-0.201-0.159-0.201C674.757,315.581,674.721,315.545,674.573,315.408z"/>
	</g>
	<g id="POLYLINE_658_">
		
			<path fill="none" stroke="#FB8604" stroke-width="2.75" stroke-linecap="round" stroke-linejoin="round" stroke-miterlimit="10" d="
			M449.954,415.525c1.044,1.367,2.324,2.529,3.774,3.244c0.145,0.067,0.194,0.088,0.194,0.088c0.145,0.061,0.193,0.08,0.193,0.08
			c0.145,0.054,0.193,0.071,0.193,0.071c0.144,0.047,0.192,0.062,0.192,0.062c0.143,0.04,0.19,0.052,0.19,0.052
			c0.142,0.032,0.189,0.042,0.189,0.042c0.141,0.024,0.187,0.031,0.187,0.031c0.139,0.016,0.185,0.02,0.185,0.02
			c0.137,0.008,0.183,0.009,0.183,0.009c0.135-0.001,0.18-0.003,0.18-0.003c0.162-0.013,0.202-0.018,0.202-0.018
			c0.159-0.025,0.199-0.033,0.199-0.033c0.157-0.036,0.196-0.046,0.196-0.046c0.155-0.046,0.193-0.059,0.193-0.059
			c0.153-0.055,0.191-0.07,0.191-0.07c0.152-0.063,0.189-0.08,0.189-0.08c0.15-0.071,0.225-0.108,0.225-0.108
			c1.007-0.527,1.931-1.273,2.917-1.633c0.134-0.049,0.18-0.064,0.18-0.064c0.137-0.044,0.183-0.058,0.183-0.058
			c0.14-0.039,0.187-0.051,0.187-0.051c0.212-0.05,0.269-0.057,0.358-0.073c0.14-0.02,0.211-0.029,0.211-0.029
			c0.143-0.014,0.216-0.02,0.216-0.02c0.146-0.009,0.22-0.012,0.22-0.012c1.296-0.02,2.276,0.222,3.466,0.498
			c2.276,0.549,4.946,1.452,7.292,1.24c2.575-0.21,4.681-1.698,7.076-2.317c0.164-0.036,0.218-0.046,0.218-0.046
			c1.549-0.317,3.163,0.206,4.651,0.23c0.159,0,0.238-0.002,0.238-0.002c0.158-0.007,0.237-0.012,0.237-0.012
			c0.158-0.014,0.237-0.023,0.237-0.023c0.123-0.017,0.166-0.023,0.166-0.023c0.131-0.023,0.175-0.031,0.175-0.031
			c1.397-0.303,2.45-1.006,3.592-1.747c1.909-1.353,4.876-3.143,6.9-4.358c0.479-0.3,1.215-0.767,1.677-1.082"/>
	</g>
	<g id="POLYLINE_659_">
		
			<path fill="none" stroke="#FB8604" stroke-width="2.75" stroke-linecap="round" stroke-linejoin="round" stroke-miterlimit="10" d="
			M527.69,350.26c-2.102,1.325-4.437,3.054-6.577,4.305c-1.584,0.937-3.276,1.767-4.969,2.489c-3.387,1.446-8.17,3.195-11.43,4.86
			c-1.644,0.841-3.48,1.896-4.718,3.21c-0.124,0.137-0.164,0.182-0.164,0.182c-0.117,0.138-0.154,0.184-0.154,0.184
			c-0.109,0.139-0.143,0.185-0.143,0.185c-0.1,0.14-0.133,0.187-0.133,0.187c-0.092,0.141-0.121,0.188-0.121,0.188
			c-0.083,0.142-0.11,0.19-0.11,0.19c-0.075,0.143-0.098,0.191-0.098,0.191c-0.057,0.124-0.083,0.187-0.083,0.187
			c-0.05,0.125-0.073,0.188-0.073,0.188c-0.043,0.126-0.062,0.189-0.062,0.189c-0.036,0.127-0.053,0.191-0.053,0.191
			c-0.03,0.128-0.043,0.192-0.043,0.192c-0.024,0.129-0.034,0.193-0.034,0.193c-0.018,0.13-0.026,0.194-0.026,0.194
			c-0.013,0.13-0.018,0.196-0.018,0.196c-0.008,0.131-0.011,0.197-0.011,0.197c-0.05,2.061,0.891,4.093,0.78,6.085
			c-0.009,0.137-0.014,0.205-0.014,0.205c-0.014,0.137-0.022,0.205-0.022,0.205c-0.019,0.136-0.03,0.204-0.03,0.204
			c-0.025,0.136-0.039,0.204-0.039,0.204c-0.033,0.146-0.052,0.219-0.052,0.219c-0.04,0.145-0.062,0.218-0.062,0.218
			c-0.046,0.145-0.071,0.217-0.071,0.217c-0.402,1.103-0.952,1.899-1.549,2.761c-0.84,1.182-2.131,2.78-2.656,4.073
			c-0.053,0.133-0.078,0.2-0.078,0.2c-0.047,0.133-0.069,0.199-0.069,0.199c-0.041,0.133-0.059,0.199-0.059,0.199
			c-0.034,0.133-0.049,0.199-0.049,0.199c-0.027,0.132-0.033,0.165-0.033,0.165c-0.021,0.132-0.025,0.165-0.025,0.165
			c-0.014,0.132-0.017,0.165-0.017,0.165c-0.009,0.161-0.01,0.193-0.01,0.193c0,0.16,0.001,0.192,0.001,0.192
			c0.009,0.16,0.015,0.224,0.015,0.224c0.015,0.128,0.023,0.192,0.023,0.192c0.021,0.128,0.033,0.192,0.033,0.192
			c0.027,0.128,0.042,0.192,0.042,0.192c0.032,0.128,0.05,0.192,0.05,0.192c0.702,2.259,2.482,4.202,2.966,6.452
			c0.033,0.154,0.049,0.231,0.049,0.231c0.028,0.155,0.04,0.233,0.04,0.233c0.022,0.157,0.031,0.236,0.031,0.236
			c0.164,1.679-0.316,3.129-0.858,4.641c-0.796,2.225-2.193,4.7-2.404,7.056c-0.008,0.164-0.01,0.244-0.01,0.244
			c0,0.16,0.001,0.2,0.001,0.2c0.008,0.157,0.011,0.196,0.011,0.196c0.015,0.154,0.023,0.213,0.023,0.213
			c0.018,0.116,0.028,0.174,0.028,0.174c0.023,0.114,0.036,0.171,0.036,0.171c0.028,0.112,0.044,0.168,0.044,0.168
			c0.033,0.11,0.051,0.165,0.051,0.165c0.058,0.162,0.078,0.216,0.078,0.216c0.066,0.159,0.09,0.211,0.09,0.211
			c0.074,0.156,0.101,0.207,0.101,0.207c0.082,0.153,0.11,0.203,0.11,0.203c0.089,0.15,0.119,0.2,0.119,0.2
			c0.346,0.542,0.631,0.874,0.979,1.279c0.596,0.671,1.562,1.685,2.012,2.405c0.092,0.148,0.122,0.197,0.122,0.197
			c0.086,0.15,0.114,0.201,0.114,0.201c0.079,0.153,0.104,0.204,0.104,0.204c0.071,0.156,0.094,0.208,0.094,0.208
			c0.047,0.117,0.069,0.175,0.069,0.175c0.042,0.118,0.062,0.178,0.062,0.178c0.037,0.12,0.055,0.181,0.055,0.181
			c0.033,0.122,0.048,0.184,0.048,0.184c0.471,2.172-0.184,4.424-0.477,6.534c-0.173,1.111-0.275,2.245-0.237,3.355
			c0.044,1.585,0.318,3.195,0.633,4.748c0.466,2.24,1.253,5.569,1.665,7.811c0.758,4.121,1.314,8.529,1.728,12.699
			c0.453,5.015,0.895,10.199,0.682,15.234c-0.072,1.482-0.346,3.044-0.914,4.371c-1.383,3.129-3.209,6.155-4.948,9.098
			c-2.112,3.426-4.314,6.939-7.008,9.942c-0.838,0.923-2.203,2.283-2.869,3.295c-0.535,0.786-0.892,1.646-1.086,2.453
			c-0.395,1.698-0.383,3.392-0.216,5.109c0.186,1.732,0.579,3.54,1.303,5.12c0.213,0.457,0.415,0.804,0.603,1.087
			c0.088,0.128,0.132,0.19,0.132,0.19c0.123,0.162,0.155,0.203,0.155,0.203c0.132,0.158,0.166,0.196,0.166,0.196
			c0.136,0.147,0.171,0.182,0.171,0.182c0.14,0.136,0.176,0.169,0.176,0.169c0.144,0.126,0.181,0.156,0.181,0.156
			c0.148,0.116,0.185,0.144,0.185,0.144c0.152,0.106,0.19,0.132,0.19,0.132c0.155,0.097,0.194,0.12,0.194,0.12
			c0.159,0.089,0.199,0.11,0.199,0.11c0.162,0.08,0.203,0.099,0.203,0.099c0.124,0.055,0.166,0.072,0.166,0.072
			c1.383,0.552,2.718,0.512,4.138,0.524c1.782-0.002,3.78-0.207,5.457-0.723c3.271-0.957,5.941-3.235,7.868-5.774
			c1.253-1.669,2.262-3.558,2.761-5.592c0.33-1.353,0.412-2.766,0.409-4.155c-0.015-2.301-0.274-5.178,0.524-7.326
			c0.678-2.026,1.91-4.08,2.547-6.112c0.812-2.56,0.935-5.267,1.018-7.93c-0.008-18.769,1.746-38.048,8.742-55.612
			c2.318-5.73,5.126-11.412,9.261-16.062c2.181-2.473,4.799-4.556,7.68-6.159c4.573-2.429,10.12-5.925,14.712-8.299
			c0.769-0.38,1.767-0.844,2.557-1.064c0.136-0.036,0.202-0.052,0.202-0.052c0.157-0.033,0.188-0.039,0.188-0.039
			c0.145-0.022,0.173-0.025,0.173-0.025c0.158-0.011,0.183-0.012,0.183-0.012c0.161,0.008,0.183,0.01,0.183,0.01
			c0.159,0.039,0.168,0.043,0.168,0.043c0.157,0.088,0.164,0.093,0.164,0.093c0.218,0.208,0.276,0.3,0.324,0.352
			c0.163,0.137,0.17,0.141,0.17,0.141c0.156,0.054,0.17,0.056,0.17,0.056c0.16,0.003,0.178,0.001,0.178,0.001
			c0.151-0.024,0.171-0.029,0.171-0.029c0.148-0.04,0.192-0.054,0.192-0.054c0.14-0.049,0.188-0.067,0.188-0.067
			c0.152-0.062,0.204-0.085,0.204-0.085c3.425-1.68,6.546-4.511,10.35-5.243c1.655-0.356,3.701-0.298,5.26-0.928
			c1.871-0.761,3.599-2.407,5.165-3.615c1.022-0.815,2.138-1.567,3.284-2.151l2.716-1.36c1.631-0.809,3.29-2.007,4.305-3.401
			c2.579-3.448,3.735-7.751,5.096-11.755c0.469-1.366,1.077-2.923,1.977-4.003c0.138-0.161,0.173-0.201,0.173-0.201
			c0.144-0.154,0.181-0.192,0.181-0.192c0.151-0.147,0.189-0.183,0.189-0.183c0.158-0.14,0.198-0.174,0.198-0.174
			c0.945-0.776,2.011-1.196,3.054-1.713c0.993-0.47,2.115-1.12,2.854-1.829c0.14-0.134,0.186-0.18,0.186-0.18
			c0.137-0.141,0.182-0.189,0.182-0.189c1.238-1.35,2.096-3.192,2.982-4.732c0.255-0.45,0.637-1.066,0.897-1.408
			c0.115-0.149,0.153-0.197,0.153-0.197c0.116-0.139,0.155-0.184,0.155-0.184c0.117-0.129,0.157-0.17,0.157-0.17
			c0.159-0.154,0.199-0.191,0.199-0.191c0.162-0.134,0.183-0.149,0.183-0.149c0.145-0.101,0.165-0.114,0.165-0.114
			c0.147-0.085,0.169-0.096,0.169-0.096c0.159-0.071,0.184-0.081,0.184-0.081c0.156-0.05,0.183-0.057,0.183-0.057
			c0.159-0.034,0.185-0.039,0.185-0.039c0.161-0.021,0.188-0.023,0.188-0.023c0.162-0.009,0.216-0.01,0.216-0.01
			c0.373-0.003,0.802,0.056,1.062,0.078c0.151,0.012,0.201,0.015,0.201,0.015c0.146,0.006,0.194,0.007,0.194,0.007
			c0.164-0.004,0.187-0.006,0.187-0.006c0.156-0.018,0.178-0.022,0.178-0.022c0.157-0.039,0.168-0.042,0.168-0.042
			c0.156-0.066,0.166-0.071,0.166-0.071c0.158-0.108,0.17-0.118,0.17-0.118c0.153-0.164,0.163-0.177,0.163-0.177
			c0.107-0.16,0.116-0.176,0.116-0.176c0.071-0.133,0.088-0.168,0.088-0.168c0.065-0.147,0.08-0.185,0.08-0.185
			c0.355-0.929,0.502-2.237,0.69-3.182c0.082-0.44,0.224-1.049,0.355-1.418c0.048-0.134,0.065-0.178,0.065-0.178
			c0.052-0.128,0.07-0.169,0.07-0.169c0.075-0.16,0.091-0.192,0.091-0.192c0.085-0.154,0.103-0.184,0.103-0.184
			c0.092-0.142,0.111-0.17,0.111-0.17c0.119-0.156,0.139-0.181,0.139-0.181c0.127-0.143,0.149-0.166,0.149-0.166
			c0.158-0.152,0.181-0.173,0.181-0.173c0.119-0.1,0.168-0.139,0.168-0.139c0.15-0.112,0.201-0.148,0.201-0.148
			c0.649-0.438,1.416-0.801,1.959-1.221c0.122-0.093,0.182-0.142,0.182-0.142c0.121-0.101,0.167-0.14,0.167-0.14
			c0.137-0.123,0.183-0.166,0.183-0.166c1.2-1.174,1.935-2.463,2.632-3.847c0.701-1.441,1.281-3.033,1.63-4.59"/>
	</g>
	<g id="POLYLINE_661_">
		
			<path fill="none" stroke="#FB8604" stroke-width="2.75" stroke-linecap="round" stroke-linejoin="round" stroke-miterlimit="10" d="
			M333.59,366.081c0.723,5.581,1.493,11.55,2.817,17.008c0.34,1.332,0.715,2.702,1.273,3.96c0.143,0.315,0.251,0.516,0.338,0.671
			c0.075,0.128,0.113,0.188,0.113,0.188c0.075,0.116,0.113,0.171,0.113,0.171c1.922,2.491,2.507,5.452,2.916,8.428
			c0.14,1.076,0.19,2.207,0.355,3.28c0.206,1.43,0.637,3.083,1.3,4.279c0.164,0.301,0.311,0.526,0.43,0.696
			c0.115,0.16,0.155,0.211,0.155,0.211c0.12,0.152,0.16,0.201,0.16,0.201c0.124,0.144,0.166,0.191,0.166,0.191
			c0.128,0.136,0.172,0.181,0.172,0.181c0.133,0.129,0.177,0.17,0.177,0.17c0.137,0.121,0.183,0.16,0.183,0.16
			c0.141,0.113,0.189,0.15,0.189,0.15c0.145,0.105,0.195,0.139,0.195,0.139c0.15,0.098,0.2,0.129,0.2,0.129
			c0.154,0.09,0.206,0.119,0.206,0.119c0.158,0.082,0.212,0.108,0.212,0.108c0.188,0.086,0.351,0.165,0.429,0.205
			c0.157,0.083,0.208,0.112,0.208,0.112c0.153,0.088,0.203,0.119,0.203,0.119c0.15,0.094,0.199,0.126,0.199,0.126
			c0.146,0.099,0.194,0.133,0.194,0.133c0.143,0.104,0.19,0.14,0.19,0.14c1.593,1.21,2.497,3.057,3.01,4.816
			c0.255,0.882,0.351,1.499,0.57,2.293c0.371,1.386,0.926,2.938,1.723,4.075c0.114,0.159,0.172,0.236,0.172,0.236
			c0.117,0.148,0.177,0.219,0.177,0.219c0.12,0.137,0.151,0.171,0.151,0.171c0.154,0.16,0.185,0.19,0.185,0.19
			c0.158,0.146,0.189,0.174,0.189,0.174c0.161,0.133,0.194,0.158,0.194,0.158c2.054,1.417,3.678,3.116,5.339,4.911
			c0.143,0.141,0.192,0.188,0.192,0.188c0.15,0.137,0.201,0.182,0.201,0.182c0.157,0.133,0.21,0.176,0.21,0.176
			c2.054,1.6,4.408,2.1,6.86,2.402c1.757,0.204,3.565,0.145,5.325,0.313c2.475,0.214,4.957,0.665,7.322,1.431
			c1.891,0.585,3.69,1.543,5.534,2.25c2.316,0.903,4.76,1.633,7.232,1.92c0.132,0.022,0.197,0.035,0.197,0.035
			c1.459,0.269,2.719,1.127,3.719,1.98c1.416,1.246,2.357,2.466,3.375,3.908c1.055,1.517,2.006,3.137,2.653,4.871
			c1.784,4.713,2.147,9.851,2.1,14.851c-0.194,8.256-1.33,16.597-2.823,24.712c-1.225,6.74-4.146,18.71-5.648,25.521
			c-0.709,3.424-1.841,8.446-2.313,11.895c-0.284,2.394-0.471,5.166,0.513,7.365c0.078,0.16,0.105,0.212,0.105,0.212
			c0.083,0.153,0.112,0.202,0.112,0.202c0.089,0.145,0.119,0.193,0.119,0.193c0.094,0.138,0.126,0.183,0.126,0.183
			c0.099,0.131,0.133,0.173,0.133,0.173c0.14,0.164,0.176,0.204,0.176,0.204c0.147,0.157,0.185,0.195,0.185,0.195
			c0.155,0.151,0.194,0.187,0.194,0.187c1.387,1.285,3.266,1.801,4.982,2.001c9.385,0.293,98.686,0.015,110.386,0.108
			c0.112-0.001,0.221-0.002,0.221-0.002c0.108-0.003,0.215-0.006,0.215-0.006c0.105-0.005,0.209-0.01,0.209-0.01
			c0.102-0.007,0.203-0.014,0.203-0.014c0.099-0.009,0.197-0.018,0.197-0.018c0.096-0.011,0.191-0.022,0.191-0.022
			c0.093-0.013,0.185-0.026,0.185-0.026c0.09-0.015,0.179-0.03,0.179-0.03c0.087-0.017,0.173-0.034,0.173-0.034
			c0.084-0.019,0.167-0.039,0.167-0.039c0.161-0.043,0.239-0.065,0.239-0.065c0.152-0.049,0.189-0.061,0.189-0.061
			c0.144-0.054,0.179-0.068,0.179-0.068c0.137-0.059,0.17-0.074,0.17-0.074c0.161-0.08,0.192-0.097,0.192-0.097
			c0.149-0.088,0.178-0.106,0.178-0.106c0.138-0.096,0.164-0.116,0.164-0.116c0.151-0.125,0.175-0.146,0.175-0.146
			c0.156-0.159,0.177-0.182,0.177-0.182c0.117-0.148,0.135-0.173,0.135-0.173c0.101-0.158,0.117-0.185,0.117-0.185
			c0.072-0.14,0.085-0.169,0.085-0.169c0.061-0.148,0.072-0.178,0.072-0.178c0.049-0.155,0.058-0.187,0.058-0.187
			c0.437-1.816,0.1-3.578-0.466-5.2c-0.067-0.163-0.085-0.203-0.085-0.203c-0.074-0.159-0.094-0.198-0.094-0.198
			c-0.081-0.155-0.102-0.193-0.102-0.193c-0.088-0.151-0.111-0.188-0.111-0.188c-0.095-0.147-0.119-0.183-0.119-0.183
			c-0.101-0.143-0.127-0.178-0.127-0.178c-0.108-0.139-0.164-0.208-0.164-0.208c-0.116-0.135-0.176-0.201-0.176-0.201
			c-0.124-0.13-0.188-0.194-0.188-0.194c-0.132-0.125-0.201-0.187-0.201-0.187c-0.141-0.121-0.213-0.18-0.213-0.18
			c-0.149-0.116-0.225-0.173-0.225-0.173c-1.382-0.995-3.004-1.445-4.56-1.687c-1.765-0.261-3.577-0.254-5.354-0.137
			c-1.267,0.069-2.594,0.29-3.859,0.379c-1.043,0.065-2.103,0.042-3.143-0.052c-2.579-0.235-5.125-0.914-7.546-1.819
			c-1.963-0.734-3.874-1.705-5.858-2.386c-2.892-1.023-5.945-1.753-9.026-1.743c-0.76-0.004-1.544,0.078-2.302,0.134
			c-1.623,0.109-3.432,0.133-5.061,0.13c-9.167-0.113-19.389-0.795-28.521-1.634c-1.514-0.159-3.244-0.353-4.747-0.606
			c-1.319-0.202-2.73-0.577-3.73-1.364c-0.163-0.126-0.244-0.191-0.244-0.191c-0.158-0.135-0.235-0.204-0.235-0.204
			c-0.152-0.143-0.226-0.217-0.226-0.217c-0.146-0.152-0.218-0.23-0.218-0.23c-2.519-2.906-2.493-6.776-2.38-10.352
			c0.064-3.23,3.672-30.222,4.08-34.09c0.895-7.001,1.709-14.555,3.285-21.428c0.339-1.489,0.933-2.885,1.55-4.227
			c1.016-2.221,2.289-4.581,3.488-6.714c1.992-3.552,4.244-7.065,6.968-10.103c0.908-1.061,2.199-2.18,3.029-3.212
			c1.272-1.574,2.105-3.041,2.916-4.824c1.129-2.5,1.855-5.203,2.455-7.874c0.819-3.599,1.459-7.329,1.87-10.997
			c0.271-2.377,0.388-4.888,0.768-7.252c0.172-1.065,0.415-2.317,0.801-3.271c0.058-0.137,0.078-0.181,0.078-0.181
			c0.059-0.127,0.079-0.167,0.079-0.167c0.081-0.153,0.102-0.19,0.102-0.19c0.083-0.136,0.104-0.168,0.104-0.168
			c0.118-0.159,0.129-0.172,0.129-0.172c0.155-0.161,0.166-0.171,0.166-0.171c0.16-0.115,0.172-0.122,0.172-0.122
			c0.161-0.101,0.172-0.11,0.172-0.11c0.163-0.16,0.173-0.173,0.173-0.173c0.113-0.153,0.133-0.183,0.133-0.183
			c0.078-0.132,0.098-0.167,0.098-0.167c0.075-0.15,0.093-0.19,0.093-0.19c0.054-0.125,0.072-0.168,0.072-0.168
			c0.052-0.136,0.069-0.183,0.069-0.183c0.541-1.68,0.627-3.293,0.749-5.011c0.137-2.814,0.11-5.735,0.406-8.541
			c0.203-2.088,0.522-4.204,1.045-6.235c0.164-0.655,0.455-1.516,0.595-2.127c0.133-0.588,0.221-1.203,0.271-1.804
			c0.136-1.667,0.006-3.364-0.236-5.017c-0.58-3.973-1.961-7.987-3.238-11.788c-1.146-3.285-2.454-6.759-3.9-9.915
			c-0.764-1.691-1.629-3.414-2.664-4.956c-1.994-3.023-4.478-5.728-7.137-8.177c-3.718-3.453-7.946-6.385-12.492-8.641
			c-5.86-2.916-12.24-4.969-18.805-5.331c-4.597-0.272-9.269,0.094-13.762,1.105c-8.697,2.047-16.731,6.319-24.246,11.05"/>
	</g>
</g>
<g id="AG-OUTLINE">
	<g id="POLYLINE_128_">
		
			<path fill="none" stroke="#FB8604" stroke-width="3.5" stroke-linecap="round" stroke-linejoin="round" stroke-miterlimit="10" d="
			M675.401,316.512c-0.086-1.093-0.256-2.419-0.588-3.402c-0.463-1.422-1.109-2.627-1.866-3.888
			c-0.928-1.525-2.011-2.996-3.151-4.371c-1.093-1.348-3.762-4.127-4.964-5.434c-1.599-1.757-3.162-3.611-4.34-5.681
			c-0.658-1.147-1.172-2.384-1.572-3.643c-0.987-3.086-1.466-6.595-2.591-9.638c-1.467-4.194-4.734-7.454-8.28-9.993
			c-5.346-3.775-11.506-6.494-17.99-7.514c-0.596-4.143-1.862-8.199-3.468-12.057c-1.754-4.142-4.007-8.15-7.047-11.489
			c-1.167-1.272-2.461-2.458-3.921-3.387c-1.379-0.87-2.881-1.488-4.431-1.472c-0.986,0.013-1.891,0.308-2.642,0.727
			c-0.163,0.094-0.217,0.126-0.217,0.126c-0.161,0.101-0.214,0.136-0.214,0.136c-0.158,0.108-0.21,0.145-0.21,0.145
			c-0.155,0.114-0.207,0.154-0.207,0.154c-1.619,1.275-2.591,2.989-3.241,4.787c-0.668,1.895-0.966,3.911-1.063,5.912
			c-0.292,6.673,1.503,13.27,4.01,19.401c-5.181,4.69-10.568,9.527-15.053,14.869c-1.07,1.311-2.162,2.723-2.921,4.235
			c-1.529,3.162-3.882,6.409-7.018,7.991c-1.374,0.674-2.688,0.981-4.095,1.181c-3.811,0.545-7.669-0.183-11.481-0.349
			c-2.552-0.128-5.185-0.154-7.735-0.024c-1.614,0.091-3.265,0.24-4.879,0.214c-3.773-0.022-7.592-0.532-11.279-1.325
			c-4.376-1.007-9.04-2.511-13.307-3.968c-6.329-2.119-13.105-4.855-19.419-6.974c-6.818-2.291-14.045-4.358-21.022-6.106
			c-7.606-1.811-15.977-3.88-23.724-4.879c-7.774-1.019-15.738-1.261-23.553-0.601c-3.293,0.281-6.761,0.738-10.011,1.337
			c-2.521,0.464-7.179,1.542-9.74,2.163c-6.334,1.584-13.398,3.398-19.594,5.383c-5.587,1.796-11.344,3.737-16.67,6.209
			c-4.655,2.176-9.141,4.847-13.256,7.925c-3.847,2.815-7.499,6.359-10.876,9.731c-2.675,2.606-6.412,6.092-9.168,8.613
			c-3.757,3.45-9.913,8.792-13.83,12.151c-3.543,3.013-6.997,6.275-10.165,9.681c-4.683,5.034-8.925,10.564-12.43,16.483
			c-7.325,12.57-12.44,26.527-17.008,40.302c-6.305,18.55-18.794,57.954-26.197,75.657c-1.181,2.866-2.549,5.972-3.964,8.736
			c-2.276,4.419-5.024,8.637-8.19,12.471c-1.997,2.39-4.134,4.839-6.713,6.595c-2.824,1.985-5.972,3.504-9.163,4.799
			c-4.567,1.833-9.398,3.234-14.176,4.396c-11.413,2.623-23.619,4.912-35.226,6.492c-7.012,0.948-19.128,1.979-25.998,2.726
			c-14.22,1.549-33.454,3.92-47.703,5.093c0,0-8.222,0.636-8.222,0.636s-1.932,0.145-1.932,0.145s-1.833,0.159-1.833,0.159
			s-1.734,0.172-1.734,0.172s-1.635,0.186-1.635,0.186s-1.536,0.199-1.536,0.199s-0.731,0.105-0.731,0.105s-0.706,0.108-0.706,0.108
			c-1.375,0.209-2.896,0.511-4.251,0.851c0,0-0.257,0.067-0.257,0.067s-0.251,0.068-0.251,0.068s-0.245,0.069-0.245,0.069
			l-0.239,0.07c0,0-0.233,0.071-0.233,0.071l-0.226,0.071c0,0-0.22,0.072-0.22,0.072s-0.214,0.073-0.214,0.073
			s-0.208,0.074-0.208,0.074s-0.202,0.075-0.202,0.075s-0.195,0.076-0.195,0.076s-0.189,0.076-0.189,0.076s-0.183,0.077-0.183,0.077
			s-0.177,0.078-0.177,0.078c-0.086,0.039-0.171,0.079-0.171,0.079c-0.083,0.04-0.164,0.08-0.164,0.08
			c-0.158,0.081-0.235,0.121-0.235,0.121c-0.149,0.082-0.221,0.123-0.221,0.123c-0.14,0.083-0.207,0.125-0.207,0.125
			c-0.13,0.084-0.193,0.127-0.193,0.127c-0.121,0.086-0.179,0.129-0.179,0.129c-0.112,0.087-0.166,0.131-0.166,0.131
			c-1.043,0.902-1.875,1.94-2.424,3.076c-0.59,1.212-0.828,2.533-0.792,3.762c0.013,0.148,0.018,0.177,0.018,0.177
			c0.028,0.144,0.035,0.173,0.035,0.173c0.042,0.141,0.052,0.169,0.052,0.169c0.056,0.137,0.069,0.164,0.069,0.164
			c0.086,0.16,0.102,0.186,0.102,0.186c0.106,0.155,0.126,0.181,0.126,0.181c0.126,0.15,0.149,0.175,0.149,0.175
			c0.146,0.145,0.173,0.169,0.173,0.169c0.138,0.117,0.167,0.14,0.167,0.14c0.152,0.114,0.184,0.136,0.184,0.136
			c0.132,0.088,0.201,0.132,0.201,0.132c0.144,0.086,0.218,0.128,0.218,0.128c1.51,0.793,3.071,1.057,4.704,1.32
			c2.515,0.363,5.143,0.479,7.684,0.526c30.153,0.028,105.952,0.027,137.025,0.002c0.952-0.027,1.935-0.095,2.881-0.2
			c3.493-0.385,6.938-1.322,10.185-2.66c3.614-1.48,7.017-3.518,10.221-5.738c4.585-3.179,9.022-6.885,13.166-10.619
			c8.343-7.553,16.272-15.809,23.05-24.806c3.678-4.817,7.166-10.336,10.318-15.517c3.212-5.367,6.487-11.096,9.024-16.813
			c2.578-5.814,5.475-11.81,8.505-17.403c2.25-4.098,5.212-8.465,9.418-10.595c0.153-0.09,0.23-0.137,0.23-0.137
			c1.151-0.738,1.878-1.504,2.675-2.417c0.842-0.99,1.602-2.085,2.294-3.186c2.044-3.279,3.699-6.901,5.195-10.46
			c0.274,0.8,0.435,1.656,0.641,2.475c0.38,1.485,0.945,3.145,1.8,4.369c0.114,0.159,0.172,0.236,0.172,0.236
			c0.117,0.148,0.177,0.219,0.177,0.219c0.12,0.137,0.151,0.171,0.151,0.171c0.154,0.16,0.185,0.19,0.185,0.19
			c0.158,0.146,0.189,0.174,0.189,0.174c0.161,0.133,0.194,0.158,0.194,0.158c2.054,1.417,3.678,3.116,5.339,4.911
			c0.143,0.141,0.192,0.188,0.192,0.188c0.15,0.137,0.201,0.182,0.201,0.182c0.157,0.133,0.21,0.176,0.21,0.176
			c2.054,1.6,4.408,2.1,6.86,2.402c1.757,0.204,3.565,0.145,5.325,0.313c2.475,0.214,4.957,0.665,7.322,1.431
			c1.891,0.585,3.69,1.543,5.534,2.25c2.316,0.903,4.76,1.633,7.232,1.92c0.132,0.022,0.197,0.035,0.197,0.035
			c1.459,0.269,2.719,1.127,3.719,1.98c1.416,1.246,2.357,2.466,3.375,3.908c1.055,1.517,2.006,3.137,2.653,4.871
			c1.784,4.713,2.147,9.851,2.1,14.851c-0.194,8.256-1.33,16.597-2.823,24.712c-1.225,6.74-4.146,18.71-5.648,25.521
			c-0.709,3.424-1.841,8.446-2.313,11.895c-0.284,2.394-0.471,5.166,0.513,7.365c0.078,0.16,0.105,0.212,0.105,0.212
			c0.083,0.153,0.112,0.202,0.112,0.202c0.089,0.145,0.119,0.193,0.119,0.193c0.094,0.138,0.126,0.183,0.126,0.183
			c0.099,0.131,0.133,0.173,0.133,0.173c0.14,0.164,0.176,0.204,0.176,0.204c0.147,0.157,0.185,0.195,0.185,0.195
			c0.155,0.151,0.194,0.187,0.194,0.187c1.387,1.285,3.266,1.801,4.982,2.001c9.385,0.293,98.686,0.015,110.386,0.108
			c0.112-0.001,0.221-0.002,0.221-0.002c0.108-0.003,0.215-0.006,0.215-0.006c0.105-0.005,0.209-0.01,0.209-0.01
			c0.102-0.007,0.203-0.014,0.203-0.014c0.099-0.009,0.197-0.018,0.197-0.018c0.096-0.011,0.191-0.022,0.191-0.022
			c0.093-0.013,0.185-0.026,0.185-0.026c0.09-0.015,0.179-0.03,0.179-0.03c0.087-0.017,0.173-0.034,0.173-0.034
			c0.084-0.019,0.167-0.039,0.167-0.039c0.161-0.043,0.239-0.065,0.239-0.065c0.152-0.049,0.189-0.061,0.189-0.061
			c0.144-0.054,0.179-0.068,0.179-0.068c0.137-0.059,0.17-0.074,0.17-0.074c0.161-0.08,0.192-0.097,0.192-0.097
			c0.149-0.088,0.178-0.106,0.178-0.106c0.138-0.096,0.164-0.116,0.164-0.116c0.151-0.125,0.175-0.146,0.175-0.146
			c0.156-0.159,0.177-0.182,0.177-0.182c0.117-0.148,0.135-0.173,0.135-0.173c0.101-0.158,0.117-0.185,0.117-0.185
			c0.072-0.14,0.085-0.169,0.085-0.169c0.061-0.148,0.072-0.178,0.072-0.178c0.049-0.155,0.058-0.187,0.058-0.187
			c0.437-1.816,0.1-3.578-0.466-5.2c-0.067-0.163-0.085-0.203-0.085-0.203c-0.074-0.159-0.094-0.198-0.094-0.198
			c-0.081-0.155-0.102-0.193-0.102-0.193c-0.088-0.151-0.111-0.188-0.111-0.188c-0.095-0.147-0.119-0.183-0.119-0.183
			c-0.101-0.143-0.127-0.178-0.127-0.178c-0.108-0.139-0.164-0.208-0.164-0.208c-0.116-0.135-0.176-0.201-0.176-0.201
			c-0.124-0.13-0.188-0.194-0.188-0.194c-0.132-0.125-0.201-0.187-0.201-0.187c-0.141-0.121-0.213-0.18-0.213-0.18
			c-0.149-0.116-0.225-0.173-0.225-0.173c-1.382-0.995-3.004-1.445-4.56-1.687c-1.765-0.261-3.577-0.254-5.354-0.137
			c-1.267,0.069-2.594,0.29-3.859,0.379c-1.043,0.065-2.103,0.042-3.143-0.052c-2.579-0.235-5.125-0.914-7.546-1.819
			c-1.901-0.708-3.767-1.654-5.683-2.323c-2.99-1.073-6.154-1.839-9.347-1.805c-0.578,0.004-1.18,0.051-1.756,0.103
			c-1.764,0.137-3.691,0.161-5.461,0.159c-9.167-0.113-19.389-0.795-28.521-1.634c-1.514-0.159-3.244-0.353-4.747-0.606
			c-1.319-0.202-2.73-0.577-3.73-1.364c-0.163-0.126-0.244-0.191-0.244-0.191c-0.158-0.135-0.235-0.204-0.235-0.204
			c-0.152-0.143-0.226-0.217-0.226-0.217c-0.146-0.152-0.218-0.23-0.218-0.23c-1.943-2.205-2.347-5.056-2.415-7.804
			c-0.059-2.699,0.218-5.48,0.572-8.156c1.155-8.975,3.923-32.315,5.178-40.898c0.397-2.523,0.869-5.611,1.431-8.085
			c0.168-0.735,0.361-1.539,0.587-2.258c0.569-1.692,1.293-3.141,2.053-4.715c2.339-4.568,4.882-9.188,8.082-13.215
			c0.787-0.986,1.641-1.969,2.52-2.875c0.689-0.701,1.435-1.392,2.048-2.164c1.328-1.631,2.355-3.501,3.164-5.437
			c1.044,1.367,2.324,2.529,3.774,3.244c0.145,0.067,0.194,0.088,0.194,0.088c0.145,0.061,0.193,0.08,0.193,0.08
			c0.145,0.054,0.193,0.071,0.193,0.071c0.144,0.047,0.192,0.062,0.192,0.062c0.143,0.04,0.19,0.052,0.19,0.052
			c0.142,0.032,0.189,0.042,0.189,0.042c0.141,0.024,0.187,0.031,0.187,0.031c0.139,0.016,0.185,0.02,0.185,0.02
			c0.137,0.008,0.183,0.009,0.183,0.009c0.135-0.001,0.18-0.003,0.18-0.003c0.162-0.013,0.202-0.018,0.202-0.018
			c0.159-0.025,0.199-0.033,0.199-0.033c0.157-0.036,0.196-0.046,0.196-0.046c0.155-0.046,0.193-0.059,0.193-0.059
			c0.153-0.055,0.191-0.07,0.191-0.07c0.152-0.063,0.189-0.08,0.189-0.08c0.15-0.071,0.225-0.108,0.225-0.108
			c1.007-0.527,1.931-1.273,2.917-1.633c0.134-0.049,0.18-0.064,0.18-0.064c0.137-0.044,0.183-0.058,0.183-0.058
			c0.14-0.039,0.187-0.051,0.187-0.051c0.212-0.05,0.269-0.057,0.358-0.073c0.14-0.02,0.211-0.029,0.211-0.029
			c0.143-0.014,0.216-0.02,0.216-0.02c0.146-0.009,0.22-0.012,0.22-0.012c1.296-0.02,2.276,0.222,3.466,0.498
			c2.276,0.549,4.946,1.452,7.292,1.24c2.575-0.21,4.681-1.698,7.076-2.317c0.164-0.036,0.218-0.046,0.218-0.046
			c1.549-0.317,3.163,0.206,4.651,0.23c0.159,0,0.238-0.002,0.238-0.002c0.158-0.007,0.237-0.012,0.237-0.012
			c0.158-0.014,0.237-0.023,0.237-0.023c0.123-0.017,0.166-0.023,0.166-0.023c0.131-0.023,0.175-0.031,0.175-0.031
			c1.397-0.303,2.45-1.006,3.592-1.747c1.909-1.353,4.876-3.143,6.9-4.358c0.479-0.3,1.215-0.767,1.677-1.082
			c0.387,0.445,0.705,0.861,0.938,1.24c0.074,0.124,0.11,0.186,0.11,0.186c0.069,0.126,0.102,0.189,0.102,0.189
			c0.063,0.128,0.093,0.193,0.093,0.193c0.057,0.13,0.081,0.188,0.081,0.188c0.045,0.117,0.067,0.176,0.067,0.176
			c0.04,0.119,0.059,0.179,0.059,0.179c0.036,0.121,0.052,0.182,0.052,0.182c0.031,0.123,0.046,0.185,0.046,0.185
			c0.442,2.146-0.199,4.383-0.492,6.472c-0.173,1.111-0.275,2.245-0.237,3.355c0.044,1.585,0.318,3.195,0.633,4.748
			c0.465,2.24,1.253,5.569,1.665,7.811c0.758,4.121,1.314,8.529,1.728,12.699c0.449,4.921,0.871,10.013,0.697,14.954
			c-0.059,1.491-0.297,3.105-0.849,4.452c-1.271,3-3.224,6.228-4.88,9.053c-2.153,3.504-4.403,7.118-7.155,10.186
			c-0.838,0.923-2.203,2.283-2.869,3.295c-0.535,0.786-0.892,1.646-1.086,2.453c-0.395,1.698-0.383,3.392-0.216,5.109
			c0.186,1.732,0.579,3.54,1.303,5.12c0.213,0.457,0.415,0.804,0.603,1.087c0.088,0.128,0.132,0.19,0.132,0.19
			c0.123,0.162,0.155,0.203,0.155,0.203c0.132,0.158,0.166,0.196,0.166,0.196c0.136,0.147,0.171,0.182,0.171,0.182
			c0.14,0.136,0.176,0.169,0.176,0.169c0.144,0.126,0.181,0.156,0.181,0.156c0.148,0.116,0.185,0.144,0.185,0.144
			c0.152,0.106,0.19,0.132,0.19,0.132c0.155,0.097,0.194,0.12,0.194,0.12c0.159,0.089,0.199,0.11,0.199,0.11
			c0.162,0.08,0.203,0.099,0.203,0.099c0.124,0.055,0.166,0.072,0.166,0.072c1.383,0.552,2.718,0.512,4.138,0.524
			c1.972,0,4.192-0.255,6.017-0.904c3.108-1.07,5.596-3.295,7.433-5.76c1.26-1.718,2.264-3.667,2.713-5.76
			c0.29-1.355,0.345-2.763,0.331-4.145c-0.036-2.246-0.242-4.992,0.555-7.086c0.658-1.931,1.832-3.925,2.466-5.865
			c0.857-2.592,0.986-5.381,1.07-8.09c-0.008-18.769,1.746-38.048,8.742-55.612c2.318-5.73,5.126-11.412,9.261-16.062
			c2.181-2.473,4.799-4.556,7.68-6.159c4.573-2.429,10.12-5.925,14.712-8.299c0.769-0.38,1.767-0.844,2.557-1.064
			c0.136-0.036,0.202-0.052,0.202-0.052c0.157-0.033,0.188-0.039,0.188-0.039c0.145-0.022,0.173-0.025,0.173-0.025
			c0.158-0.011,0.183-0.012,0.183-0.012c0.161,0.008,0.183,0.01,0.183,0.01c0.159,0.039,0.168,0.043,0.168,0.043
			c0.157,0.088,0.164,0.093,0.164,0.093c0.218,0.208,0.276,0.3,0.324,0.352c0.163,0.137,0.17,0.141,0.17,0.141
			c0.156,0.054,0.17,0.056,0.17,0.056c0.16,0.003,0.178,0.001,0.178,0.001c0.151-0.024,0.171-0.029,0.171-0.029
			c0.148-0.04,0.192-0.054,0.192-0.054c0.14-0.049,0.188-0.067,0.188-0.067c0.152-0.062,0.204-0.085,0.204-0.085
			c3.425-1.68,6.546-4.511,10.35-5.243c1.655-0.356,3.701-0.298,5.26-0.928c1.871-0.761,3.599-2.407,5.165-3.615
			c1.022-0.815,2.138-1.567,3.284-2.151l2.716-1.36c1.631-0.809,3.29-2.007,4.305-3.401c2.579-3.448,3.735-7.751,5.096-11.755
			c0.469-1.366,1.077-2.923,1.977-4.003c0.138-0.161,0.173-0.201,0.173-0.201c0.144-0.154,0.181-0.192,0.181-0.192
			c0.151-0.147,0.189-0.183,0.189-0.183c0.158-0.14,0.198-0.174,0.198-0.174c0.945-0.776,2.011-1.196,3.054-1.713
			c0.993-0.47,2.115-1.12,2.854-1.829c0.14-0.134,0.186-0.18,0.186-0.18c0.137-0.141,0.182-0.189,0.182-0.189
			c1.238-1.35,2.096-3.192,2.982-4.732c0.255-0.45,0.637-1.066,0.897-1.408c0.115-0.149,0.153-0.197,0.153-0.197
			c0.116-0.139,0.155-0.184,0.155-0.184c0.117-0.129,0.157-0.17,0.157-0.17c0.159-0.154,0.199-0.191,0.199-0.191
			c0.162-0.134,0.183-0.149,0.183-0.149c0.145-0.101,0.165-0.114,0.165-0.114c0.147-0.085,0.169-0.096,0.169-0.096
			c0.159-0.071,0.184-0.081,0.184-0.081c0.156-0.05,0.183-0.057,0.183-0.057c0.159-0.034,0.185-0.039,0.185-0.039
			c0.161-0.021,0.188-0.023,0.188-0.023c0.162-0.009,0.216-0.01,0.216-0.01c0.373-0.003,0.802,0.056,1.062,0.078
			c0.151,0.012,0.201,0.015,0.201,0.015c0.146,0.006,0.194,0.007,0.194,0.007c0.164-0.004,0.187-0.006,0.187-0.006
			c0.156-0.018,0.178-0.022,0.178-0.022c0.157-0.039,0.168-0.042,0.168-0.042c0.156-0.066,0.166-0.071,0.166-0.071
			c0.158-0.108,0.17-0.118,0.17-0.118c0.153-0.164,0.163-0.177,0.163-0.177c0.107-0.16,0.116-0.176,0.116-0.176
			c0.071-0.133,0.088-0.168,0.088-0.168c0.065-0.147,0.08-0.185,0.08-0.185c0.355-0.929,0.502-2.237,0.69-3.182
			c0.082-0.44,0.224-1.049,0.355-1.418c0.048-0.134,0.065-0.178,0.065-0.178c0.052-0.128,0.07-0.169,0.07-0.169
			c0.075-0.16,0.091-0.192,0.091-0.192c0.085-0.154,0.103-0.184,0.103-0.184c0.092-0.142,0.111-0.17,0.111-0.17
			c0.119-0.156,0.139-0.181,0.139-0.181c0.127-0.143,0.149-0.166,0.149-0.166c0.158-0.152,0.181-0.173,0.181-0.173
			c0.119-0.1,0.168-0.139,0.168-0.139c0.15-0.112,0.201-0.148,0.201-0.148c0.649-0.438,1.416-0.801,1.959-1.221
			c0.122-0.093,0.182-0.142,0.182-0.142c0.121-0.101,0.167-0.14,0.167-0.14c0.137-0.123,0.183-0.166,0.183-0.166
			c1.2-1.174,1.935-2.463,2.632-3.847c0.701-1.441,1.281-3.033,1.63-4.59c1.12,0.746,2.336,1.367,3.57,1.9
			c1.04,0.438,2.25,0.896,3.345,1.045c0.132,0.014,0.175,0.018,0.175,0.018c0.125,0.008,0.165,0.01,0.165,0.01
			c0.157,0.004,0.232,0.004,0.232,0.004c0.357-0.007,0.749-0.055,0.968-0.065c0.14-0.006,0.211-0.008,0.211-0.008
			c0.147,0,0.185,0.001,0.185,0.001c0.155,0.008,0.195,0.011,0.195,0.011c0.124,0.012,0.166,0.017,0.166,0.017
			c2.108,0.356,5.304,1.924,7.32,2.675c1.631,0.662,4.21,1.399,5.918,1.915c1.706,0.518,3.391,1.233,4.886,2.195l2.615,1.673
			c1.448,0.915,3.091,1.792,4.688,2.289c1.558,0.493,3.197,0.738,4.828,0.792c2.466,0.065,5.248-0.267,7.369-1.547
			c0.135-0.086,0.184-0.118,0.184-0.118c0.145-0.1,0.192-0.134,0.192-0.134c0.139-0.104,0.185-0.139,0.185-0.139
			c0.133-0.107,0.177-0.143,0.177-0.143c0.128-0.111,0.17-0.148,0.17-0.148c0.163-0.152,0.202-0.191,0.202-0.191
			c0.154-0.158,0.229-0.238,0.229-0.238c1.275-1.424,1.766-3.066,2.302-4.799c0.159-0.099,0.178-0.112,0.178-0.112
			c0.152-0.117,0.17-0.133,0.17-0.133c0.162-0.152,0.179-0.17,0.179-0.17c0.136-0.153,0.169-0.193,0.169-0.193
			c0.097-0.126,0.128-0.17,0.128-0.17c0.092-0.136,0.122-0.183,0.122-0.183c0.087-0.146,0.115-0.196,0.115-0.196
			c0.083-0.155,0.109-0.208,0.109-0.208c0.591-1.271,0.776-2.414,0.887-3.739c0.082-1.273-0.023-2.653-0.478-3.775
			C675.475,316.667,675.457,316.628,675.401,316.512z"/>
	</g>
</g>
</svg>
