<?xml version="1.0" encoding="utf-8"?>
<!-- Generator: Adobe Illustrator 24.2.1, SVG Export Plug-In . SVG Version: 6.00 Build 0)  -->
<!DOCTYPE svg PUBLIC "-//W3C//DTD SVG 1.1//EN" "http://www.w3.org/Graphics/SVG/1.1/DTD/svg11.dtd" [
	<!ENTITY ns_flows "http://ns.adobe.com/Flows/1.0/">
	<!ENTITY ns_extend "http://ns.adobe.com/Extensibility/1.0/">
	<!ENTITY ns_ai "http://ns.adobe.com/AdobeIllustrator/10.0/">
	<!ENTITY ns_graphs "http://ns.adobe.com/Graphs/1.0/">
	<!ENTITY ns_vars "http://ns.adobe.com/Variables/1.0/">
	<!ENTITY ns_imrep "http://ns.adobe.com/ImageReplacement/1.0/">
	<!ENTITY ns_sfw "http://ns.adobe.com/SaveForWeb/1.0/">
	<!ENTITY ns_custom "http://ns.adobe.com/GenericCustomNamespace/1.0/">
	<!ENTITY ns_adobe_xpath "http://ns.adobe.com/XPath/1.0/">
]>
<svg version="1.1" xmlns:x="&ns_extend;" xmlns:i="&ns_ai;" xmlns:graph="&ns_graphs;"
	 xmlns="http://www.w3.org/2000/svg" xmlns:xlink="http://www.w3.org/1999/xlink" xmlns:a="http://ns.adobe.com/AdobeSVGViewerExtensions/3.0/"
	 x="0px" y="0px" width="750px" height="750px" viewBox="0 0 750 750" enable-background="new 0 0 750 750" xml:space="preserve">
<metadata>
	<sfw  xmlns="&ns_sfw;">
		<slices></slices>
		<sliceSourceBounds  bottomLeftOrigin="true" height="8750" width="7929.938" x="-3957.938" y="-526"></sliceSourceBounds>
	</sfw>
</metadata>
<g id="FILL-BACKGROUND">
	<rect fill="#FFFFFF" width="750" height="750"/>
</g>
<g id="N-TEXT">
</g>
<g id="N-DIMENSIONS">
</g>
<g id="AG-DIAGRAM">
	<g id="POLYLINE_780_">
		<g>
			<g>
				
					<line fill="none" stroke="#FB8604" stroke-width="3.25" stroke-linecap="round" stroke-linejoin="round" x1="204.419" y1="603.544" x2="206.419" y2="603.544"/>
				
					<line fill="none" stroke="#FB8604" stroke-width="3.25" stroke-linecap="round" stroke-linejoin="round" stroke-dasharray="3.9871,6.9774" x1="213.397" y1="603.544" x2="473.054" y2="603.544"/>
				
					<line fill="none" stroke="#FB8604" stroke-width="3.25" stroke-linecap="round" stroke-linejoin="round" x1="476.542" y1="603.544" x2="478.542" y2="603.544"/>
			</g>
		</g>
	</g>
</g>
<g id="AG-DETAIL-DIAGRAM">
</g>
<g id="AG-DETAILS">
</g>
<g id="AG-ANIMALS">
	<g id="POLYLINE_640_">
		
			<path fill="none" stroke="#FB8604" stroke-width="2.75" stroke-linecap="round" stroke-linejoin="round" stroke-miterlimit="10" d="
			M483.797,410.997c0.41,0.969,0.809,1.719,1.126,2.271c0.214,0.358,0.324,0.535,0.324,0.535c0.225,0.347,0.341,0.518,0.341,0.518
			c0.358,0.499,0.481,0.661,0.481,0.661c0.381,0.471,0.511,0.622,0.511,0.622c0.403,0.439,0.542,0.58,0.542,0.58
			c0.499,0.469,0.572,0.532,0.572,0.532c0.449,0.365,0.525,0.423,0.525,0.423c0.469,0.329,0.548,0.38,0.548,0.38
			c0.488,0.29,0.572,0.335,0.572,0.335c0.508,0.248,0.595,0.286,0.595,0.286c0.439,0.172,0.528,0.204,0.528,0.204
			c0.453,0.139,0.545,0.163,0.545,0.163c0.467,0.104,0.562,0.121,0.562,0.121c0.482,0.068,0.579,0.077,0.579,0.077
			c0.496,0.029,0.597,0.031,0.597,0.031c0.498-0.01,0.573-0.014,0.573-0.014c0.376-0.031,0.528-0.048,0.528-0.048
			c0.461-0.067,0.616-0.094,0.616-0.094c0.471-0.098,0.629-0.135,0.629-0.135c0.48-0.127,0.641-0.174,0.641-0.174
			c0.487-0.155,0.651-0.212,0.651-0.212c0.494-0.183,0.66-0.248,0.66-0.248c3.908-1.624,7.011-4.095,9.873-6.631
			c3.027-2.722,6.346-6.424,8.462-9.731c2.256-3.461,3.571-7.078,4.164-10.665c0.883-4.926,0.632-12.365,0.771-17.368
			c0.109-6.311,1.293-15.496,1.953-21.853c0.143-1.495,0.568-7.366,0.814-8.697c0.081-0.465,0.111-0.615,0.111-0.615
			c0.094-0.432,0.128-0.569,0.128-0.569c0.128-0.458,0.148-0.52,0.148-0.52c0.171-0.467,0.194-0.521,0.194-0.521
			c0.254-0.493,0.268-0.515,0.268-0.515c0.419-0.502,0.437-0.517,0.437-0.517c0.5-0.293,0.525-0.302,0.525-0.302
			c0.474-0.116,0.529-0.125,0.529-0.125c0.451-0.044,1.027-0.076,1.027-0.076c0.509-0.049,0.564-0.058,0.564-0.058
			c0.5-0.13,0.525-0.139,0.525-0.139c0.501-0.314,0.521-0.333,0.521-0.333c0.36-0.486,0.376-0.515,0.376-0.515
			c0.198-0.45,0.224-0.52,0.224-0.52c0.135-0.457,0.155-0.538,0.155-0.538c0.089-0.428,0.105-0.517,0.105-0.517
			c0.07-0.468,0.093-0.664,0.093-0.664c0.365-3.929-0.32-9.594-0.493-13.436c-0.166-3.723-0.319-10.142-0.739-13.771"/>
	</g>
	<g id="POLYLINE_639_">
		
			<path fill="none" stroke="#FB8604" stroke-width="2.75" stroke-linecap="round" stroke-linejoin="round" stroke-miterlimit="10" d="
			M478.413,332.817c-0.229,3.069-0.33,6.862,0.169,9.677c0.604,3.599,1.604,6.239,2.947,9.429c2.556,5.909,5.982,11.835,9.87,16.9
			c0.301,0.444,0.373,0.553,0.373,0.553c0.269,0.436,0.332,0.544,0.332,0.544c0.233,0.433,0.286,0.542,0.286,0.542
			c0.215,0.492,0.236,0.548,0.236,0.548c0.166,0.504,0.181,0.561,0.181,0.561c0.102,0.463,0.112,0.522,0.112,0.522
			c0.056,0.483,0.06,0.545,0.06,0.545c0.007,0.507,0.005,0.572,0.005,0.572c-0.036,0.468-0.05,0.579-0.05,0.579
			c-0.074,0.458-0.097,0.576-0.097,0.576c-0.111,0.481-0.144,0.604-0.144,0.604c-0.742,2.542-1.719,4.278-2.848,6.485
			c-1.922,3.615-4.727,8.501-6.08,12.283"/>
	</g>
	<g id="POLYLINE_638_">
		
			<path fill="none" stroke="#FB8604" stroke-width="2.75" stroke-linecap="round" stroke-linejoin="round" stroke-miterlimit="10" d="
			M396.226,566.456c-1.258,5.561-2.556,11.67-3.393,17.297c-0.456,3.119-0.92,6.997-0.788,10.032
			c0.046,1.029,0.138,1.784,0.239,2.407c0.065,0.362,0.1,0.538,0.1,0.538c0.076,0.345,0.116,0.513,0.116,0.513
			c0.132,0.487,0.18,0.644,0.18,0.644c0.154,0.454,0.208,0.599,0.208,0.599c0.206,0.487,0.237,0.554,0.237,0.554
			c0.266,0.509,0.301,0.569,0.301,0.569c0.298,0.458,0.337,0.512,0.337,0.512c0.417,0.502,0.461,0.548,0.461,0.548
			c0.466,0.424,0.515,0.463,0.515,0.463c0.464,0.32,0.518,0.354,0.518,0.354c0.458,0.261,0.579,0.323,0.579,0.323
			c0.507,0.239,0.64,0.296,0.64,0.296c0.414,0.164,0.556,0.217,0.556,0.217c0.443,0.151,0.596,0.199,0.596,0.199
			c0.473,0.138,0.635,0.181,0.635,0.181c2.174,0.564,4.411,0.73,6.256,0.805c12.502,0.086,35.133,0.024,47.578,0.025
			c0.486-0.032,0.641-0.047,0.641-0.047c0.448-0.06,0.52-0.072,0.52-0.072c0.482-0.101,0.548-0.118,0.548-0.118
			c0.499-0.155,0.558-0.177,0.558-0.177c0.495-0.225,0.546-0.253,0.546-0.253c0.468-0.312,0.511-0.346,0.511-0.346
			c0.483-0.5,0.499-0.522,0.499-0.522c0.302-0.504,0.314-0.529,0.314-0.529c0.174-0.468,0.19-0.523,0.19-0.523
			c0.096-0.461,0.104-0.521,0.104-0.521c0.04-0.503,0.042-0.569,0.042-0.569c-0.011-0.475-0.016-0.545-0.016-0.545
			c-0.193-1.729-0.52-3.086-0.933-4.462c-0.163-0.5-0.248-0.745-0.248-0.745c-0.177-0.479-0.27-0.714-0.27-0.714
			c-0.192-0.459-0.291-0.683-0.291-0.683c-0.206-0.439-0.313-0.653-0.313-0.653c-0.221-0.418-0.335-0.622-0.335-0.622
			c-0.236-0.398-0.357-0.592-0.357-0.592c-0.348-0.466-0.388-0.511-0.388-0.511c-0.488-0.476-0.537-0.518-0.537-0.518
			c-0.481-0.361-0.539-0.4-0.539-0.4c-0.491-0.299-0.556-0.335-0.556-0.335c-0.408-0.211-0.551-0.279-0.551-0.279
			c-0.448-0.197-0.604-0.26-0.604-0.26c-0.488-0.183-0.657-0.242-0.657-0.242c-4.196-1.364-7.871-1.144-12.009-1.84
			c-4.701-0.673-9.139-2.098-12.922-4.43c-0.417-0.265-0.616-0.398-0.616-0.398c-0.379-0.265-0.559-0.397-0.559-0.397
			c-0.503-0.396-0.581-0.462-0.581-0.462c-0.505-0.46-0.571-0.526-0.571-0.526c-0.429-0.493-0.442-0.513-0.442-0.513
			c-0.228-0.505-0.248-0.565-0.248-0.565c-0.121-0.472-0.136-0.546-0.136-0.546c-0.078-0.484-0.089-0.571-0.089-0.571
			c-0.046-0.461-0.061-0.658-0.061-0.658c-0.107-2.194,0.043-3.715,0.231-5.778c0.351-3.403,0.929-7.071,1.514-10.443"/>
	</g>
	<g id="POLYLINE_635_">
		
			<path fill="none" stroke="#FB8604" stroke-width="2.75" stroke-linecap="round" stroke-linejoin="round" stroke-miterlimit="10" d="
			M527.777,308.612c0.749-3.867,1.346-7.859,1.514-11.794c0.237-4.517-0.163-9.619-0.502-14.145"/>
	</g>
	<g id="POLYLINE_634_">
		
			<path fill="none" stroke="#FB8604" stroke-width="2.75" stroke-linecap="round" stroke-linejoin="round" stroke-miterlimit="10" d="
			M393.865,539.623c-0.566,2.586-0.862,5.292-1.046,7.932c-0.225,4.01-0.499,10.301-0.863,14.286
			c-0.037,0.63-0.049,1.15-0.054,1.421c0.001,0.495,0.005,0.654,0.005,0.654c0.021,0.461,0.031,0.609,0.031,0.609
			c0.053,0.492,0.062,0.559,0.062,0.559c0.097,0.502,0.112,0.561,0.112,0.561c0.173,0.506,0.184,0.53,0.184,0.53
			c0.33,0.509,0.346,0.526,0.346,0.526c0.505,0.327,0.526,0.334,0.526,0.334c0.484,0.078,0.511,0.079,0.511,0.079
			c0.482-0.035,0.542-0.044,0.542-0.044c0.506-0.108,0.573-0.126,0.573-0.126c1.387-0.399,2.973-1.147,4.019-1.52
			c0.472-0.167,0.627-0.219,0.627-0.219c0.462-0.142,0.613-0.184,0.613-0.184c0.447-0.108,0.52-0.123,0.52-0.123
			c0.499-0.079,0.569-0.087,0.569-0.087c0.503-0.02,0.535-0.018,0.535-0.018c0.495,0.061,0.524,0.068,0.524,0.068
			c0.495,0.177,0.516,0.188,0.516,0.188c0.476,0.301,0.514,0.331,0.514,0.331c0.495,0.462,0.562,0.534,0.562,0.534
			c0.664,0.786,0.541,0.658,1.008,1.253c0.377,0.453,0.441,0.525,0.441,0.525c0.504,0.479,0.54,0.507,0.54,0.507
			c0.507,0.307,0.526,0.316,0.526,0.316c0.507,0.143,0.543,0.147,0.543,0.147c0.491,0.003,0.531-0.001,0.531-0.001
			c0.495-0.091,0.538-0.102,0.538-0.102c0.441-0.139,0.532-0.172,0.532-0.172c0.466-0.195,0.562-0.239,0.562-0.239
			c0.489-0.245,0.589-0.298,0.589-0.298c0.406-0.228,0.612-0.35,0.612-0.35c1.417-0.836,4.617-3.224,5.576-3.894
			c0.932-0.65,1.662-1.109,2.195-1.416c0.418-0.232,0.624-0.339,0.624-0.339c0.504-0.242,0.602-0.286,0.602-0.286
			c0.483-0.192,0.577-0.225,0.577-0.225c0.479-0.14,0.537-0.154,0.537-0.154c0.504-0.093,0.559-0.1,0.559-0.1
			c0.427-0.038,0.531-0.042,0.531-0.042c0.508,0.001,0.607,0.005,0.607,0.005c0.293,0.018,1.411,0.117,1.411,0.117
			c0.45,0.02,0.54,0.021,0.54,0.021c0.491-0.027,0.535-0.032,0.535-0.032c0.493-0.098,0.538-0.111,0.538-0.111
			c0.501-0.193,0.547-0.215,0.547-0.215c0.468-0.278,0.515-0.311,0.515-0.311c0.474-0.382,0.522-0.426,0.522-0.426
			c0.488-0.486,0.587-0.594,0.587-0.594c4.021-4.795,6.765-11.764,10.533-16.633c0.409-0.496,0.51-0.613,0.51-0.613
			c0.399-0.431,0.498-0.53,0.498-0.53c0.485-0.439,0.533-0.478,0.533-0.478c0.506-0.351,0.546-0.374,0.546-0.374
			c0.482-0.223,0.521-0.237,0.521-0.237c0.503-0.13,0.541-0.136,0.541-0.136c0.449-0.046,0.523-0.049,0.523-0.049
			c0.435,0,0.999,0.019,0.999,0.019c0.481-0.005,0.515-0.008,0.515-0.008c0.505-0.078,0.538-0.087,0.538-0.087
			c0.497-0.203,0.529-0.222,0.529-0.222c0.484-0.372,0.522-0.408,0.522-0.408c0.414-0.474,0.452-0.524,0.452-0.524
			c0.3-0.43,0.375-0.547,0.375-0.547c0.299-0.505,0.374-0.639,0.374-0.639c3.076-6.097,4.468-13.292,7.519-19.31
			c0.253-0.469,0.337-0.62,0.337-0.62c0.255-0.432,0.341-0.57,0.341-0.57c0.258-0.392,0.344-0.516,0.344-0.516
			c0.388-0.509,0.437-0.568,0.437-0.568c0.442-0.488,0.54-0.587,0.54-0.587c0.494-0.447,0.593-0.528,0.593-0.528
			c0.494-0.371,0.593-0.439,0.593-0.439c0.393-0.256,0.589-0.376,0.589-0.376l1.15-0.675c0.462-0.292,0.553-0.354,0.553-0.354
			c0.49-0.366,0.534-0.402,0.534-0.402c0.51-0.477,0.551-0.52,0.551-0.52c0.402-0.482,0.441-0.535,0.441-0.535
			c0.291-0.433,0.362-0.549,0.362-0.549c0.277-0.496,0.344-0.627,0.344-0.627c0.199-0.412,0.264-0.555,0.264-0.555
			c1.656-3.846,2.744-9.79,3.788-13.805c0.999-4.052,2.439-8.95,4.252-12.48c2.968-5.951,7.751-10.815,11.956-15.745
			c2.152-2.507,4.606-5.839,6.031-8.538c2.222-4.152,3.54-7.898,4.952-12.24l3.334-10.968c0.669-2.142,1.699-4.92,2.666-6.707
			c1.419-2.712,3.489-5.612,4.519-8.307c1.188-3.049,1.754-5.683,2.399-8.777"/>
	</g>
	<g id="POLYLINE_631_">
		
			<path fill="none" stroke="#FB8604" stroke-width="2.75" stroke-linecap="round" stroke-linejoin="round" stroke-miterlimit="10" d="
			M369.077,322.158c-1.12,2.459-1.807,5.027-2.271,7.307c-0.594,3.027-0.862,5.887-0.676,8.587c0.029,0.347,0.046,0.518,0.046,0.518
			c0.059,0.503,0.082,0.667,0.082,0.667c0.078,0.481,0.107,0.637,0.107,0.637c0.096,0.457,0.132,0.605,0.132,0.605
			c0.116,0.431,0.158,0.569,0.158,0.569c0.16,0.467,0.184,0.532,0.184,0.532c0.212,0.491,0.24,0.549,0.24,0.549
			c0.276,0.494,0.308,0.545,0.308,0.545c0.354,0.471,0.392,0.514,0.392,0.514c0.492,0.45,0.522,0.472,0.522,0.472
			c0.478,0.284,0.512,0.3,0.512,0.3c0.489,0.188,0.525,0.199,0.525,0.199c0.448,0.109,0.525,0.123,0.525,0.123
			c0.472,0.065,0.553,0.072,0.553,0.072c0.492,0.027,0.66,0.03,0.66,0.03c1.066,0.007,2.581-0.169,3.313-0.225
			c0.346-0.024,0.517-0.034,0.517-0.034c0.506-0.019,0.672-0.021,0.672-0.021c0.487,0.01,0.567,0.014,0.567,0.014
			c0.466,0.043,0.542,0.053,0.542,0.053c0.441,0.083,0.512,0.101,0.512,0.101c0.509,0.171,0.541,0.185,0.541,0.185
			c0.488,0.271,0.517,0.291,0.517,0.291c0.508,0.465,0.534,0.494,0.534,0.494c0.359,0.494,0.381,0.53,0.381,0.53
			c0.249,0.456,0.288,0.536,0.288,0.536c0.216,0.506,0.25,0.594,0.25,0.594c0.159,0.454,0.218,0.642,0.218,0.642
			c0.591,1.971,0.879,4.492,1.3,6.111c0.097,0.362,0.148,0.538,0.148,0.538c0.164,0.5,0.193,0.58,0.193,0.58
			c0.187,0.449,0.221,0.519,0.221,0.519c0.293,0.508,0.312,0.536,0.312,0.536c0.47,0.508,0.504,0.535,0.504,0.535
			c0.472,0.3,0.51,0.319,0.51,0.319c0.482,0.191,0.524,0.204,0.524,0.204c0.473,0.123,0.562,0.141,0.562,0.141
			c0.452,0.081,1.389,0.222,1.389,0.222c0.476,0.082,0.572,0.101,0.572,0.101c0.475,0.111,0.569,0.137,0.569,0.137
			c0.467,0.156,0.513,0.174,0.513,0.174c0.472,0.221,0.533,0.255,0.533,0.255c0.482,0.312,0.541,0.356,0.541,0.356
			c0.466,0.384,0.523,0.436,0.523,0.436c0.453,0.445,0.566,0.563,0.566,0.563c1.104,1.21,2.112,2.669,3.04,3.78
			c0.363,0.427,0.487,0.567,0.487,0.567c0.377,0.411,0.506,0.544,0.506,0.544c0.394,0.388,0.528,0.513,0.528,0.513
			c0.483,0.416,0.553,0.473,0.553,0.473c0.508,0.374,0.582,0.424,0.582,0.424c0.471,0.289,0.556,0.336,0.556,0.336
			c0.434,0.22,0.522,0.261,0.522,0.261c0.45,0.19,0.542,0.225,0.542,0.225c0.465,0.163,0.56,0.194,0.56,0.194
			c0.479,0.14,0.673,0.191,0.673,0.191c0.393,0.094,0.592,0.137,0.592,0.137c2.138,0.439,4.545,0.535,6.466,0.869
			c0.411,0.074,0.616,0.114,0.616,0.114c0.405,0.087,0.606,0.134,0.606,0.134c0.398,0.102,0.595,0.158,0.595,0.158
			c0.486,0.152,0.582,0.185,0.582,0.185c0.473,0.177,0.567,0.216,0.567,0.216c0.464,0.208,0.555,0.253,0.555,0.253
			c0.452,0.238,0.541,0.288,0.541,0.288c0.439,0.265,0.525,0.32,0.525,0.32c0.342,0.23,0.511,0.349,0.511,0.349
			c0.498,0.375,0.662,0.505,0.662,0.505c0.483,0.405,0.642,0.544,0.642,0.544c1.52,1.371,2.761,2.788,4.086,4.166
			c0.521,0.536,0.992,0.985,1.225,1.202c0.472,0.424,0.632,0.562,0.632,0.562c0.485,0.398,0.649,0.526,0.649,0.526
			c0.502,0.368,0.673,0.486,0.673,0.486c0.347,0.228,0.522,0.337,0.522,0.337c0.355,0.212,0.534,0.314,0.534,0.314
			c0.363,0.197,0.546,0.293,0.546,0.293c3.354,1.672,6.697,2.252,10.093,3.368c4.097,1.322,7.813,3.186,10.881,5.452
			c1.175,0.876,2.072,1.684,2.77,2.385c0.488,0.51,0.645,0.682,0.645,0.682c0.432,0.498,0.568,0.661,0.568,0.661
			c0.393,0.496,0.52,0.663,0.52,0.663c2.349,3.179,3.606,6.647,5.273,9.977c1.741,3.552,3.976,6.999,6.444,9.435
			c0.406,0.395,0.613,0.588,0.613,0.588c0.421,0.379,0.635,0.564,0.635,0.564c0.436,0.362,0.658,0.538,0.658,0.538
			c0.451,0.343,0.681,0.51,0.681,0.51c0.467,0.323,0.705,0.48,0.705,0.48c0.483,0.302,0.729,0.448,0.729,0.448
			c0.766,0.429,0.888,0.482,1.269,0.668c0.394,0.18,0.527,0.238,0.527,0.238c4.459,1.85,9.362,1.953,13.725,0.814
			c0.51-0.149,0.76-0.229,0.76-0.229c0.489-0.169,0.728-0.258,0.728-0.258c0.465-0.188,0.579-0.237,0.579-0.237
			c0.444-0.203,0.552-0.256,0.552-0.256c0.421-0.219,0.524-0.275,0.524-0.275c0.493-0.294,0.588-0.355,0.588-0.355
			c0.506-0.355,0.572-0.406,0.572-0.406c0.502-0.419,0.561-0.473,0.561-0.473c0.502-0.507,0.554-0.565,0.554-0.565
			c0.394-0.482,0.44-0.544,0.44-0.544c0.306-0.446,0.347-0.511,0.347-0.511c0.271-0.468,0.307-0.537,0.307-0.537
			c0.238-0.49,0.301-0.634,0.301-0.634c0.176-0.44,0.23-0.589,0.23-0.589c0.151-0.458,0.197-0.614,0.197-0.614
			c0.127-0.476,0.166-0.638,0.166-0.638c0.538-2.548,0.495-4.37,0.432-6.746c-0.118-2.701-0.473-5.434-0.984-8.088
			c-0.575-2.968-1.366-5.941-2.386-8.788c-1.165-3.359-3.634-8.313-5.146-11.577c-0.763-1.677-1.525-3.478-2.121-5.219
			c-0.754-2.117-1.907-6.644-2.52-8.859c-0.584-2.131-1.552-5.01-2.505-6.838c-0.251-0.482-0.381-0.721-0.381-0.721
			c-0.269-0.47-0.408-0.701-0.408-0.701c-0.287-0.456-0.435-0.681-0.435-0.681c-0.305-0.443-0.462-0.661-0.462-0.661
			c-0.322-0.431-0.488-0.643-0.488-0.643c-1.931-2.438-4.211-4.331-6.212-5.933c-2.748-2.112-7.359-5.64-9.929-7.865
			c-2.996-2.559-9.994-8.668-12.998-11.026"/>
	</g>
	<g id="POLYLINE_630_">
		
			<path fill="none" stroke="#FB8604" stroke-width="2.75" stroke-linecap="round" stroke-linejoin="round" stroke-miterlimit="10" d="
			M333.583,536.939c6.917,4.735,15.332,9.056,23.685,9.301c8.302,0.277,16.99-2.667,24.91-4.549
			c2.927-0.713,6.056-1.343,9.041-1.732c4.625-0.639,10.846-1.025,15.108-2.716c0.444-0.182,0.589-0.245,0.589-0.245
			c0.432-0.197,0.574-0.265,0.574-0.265c0.42-0.212,0.557-0.285,0.557-0.285c0.407-0.228,0.541-0.307,0.541-0.307
			c0.394-0.246,0.523-0.33,0.523-0.33c0.506-0.355,0.629-0.447,0.629-0.447c0.476-0.381,0.588-0.477,0.588-0.477
			c0.437-0.396,0.543-0.498,0.543-0.498c0.417-0.423,0.52-0.532,0.52-0.532c0.4-0.448,0.498-0.563,0.498-0.563
			c0.289-0.352,0.478-0.592,0.478-0.592c2.071-2.685,3.765-6.398,5.342-9.325c0.754-1.419,1.882-3.301,2.766-4.454
			c0.391-0.505,0.592-0.751,0.592-0.751c0.418-0.488,0.635-0.729,0.635-0.729c0.445-0.469,0.673-0.699,0.673-0.699
			c0.465-0.448,0.701-0.667,0.701-0.667c1.015-0.919,1.916-1.61,2.496-2.059c1.913-1.436,4.601-3.342,6.314-4.912
			c0.505-0.469,0.755-0.71,0.755-0.71c1.047-1.043,1.5-1.58,2.134-2.385c0.332-0.442,0.441-0.592,0.441-0.592
			c0.321-0.461,0.426-0.618,0.426-0.618c0.309-0.482,0.411-0.646,0.411-0.646c1.796-3.003,2.635-5.94,3.424-8.887
			c1.207-4.485,2.173-11.461,3.455-15.88c0.155-0.483,0.207-0.637,0.207-0.637c0.161-0.441,0.215-0.58,0.215-0.58
			c0.168-0.395,0.225-0.519,0.225-0.519c0.266-0.507,0.296-0.558,0.296-0.558c0.348-0.489,0.381-0.526,0.381-0.526
			c0.497-0.407,0.513-0.416,0.513-0.416c0.494-0.162,0.512-0.165,0.512-0.165c0.497-0.015,0.534-0.012,0.534-0.012
			c0.453,0.062,0.531,0.077,0.531,0.077c0.236,0.049,0.892,0.199,0.892,0.199c0.427,0.088,0.514,0.104,0.514,0.104
			c0.487,0.065,0.532,0.069,0.532,0.069c0.503,0.013,0.549,0.011,0.549,0.011c0.47-0.053,0.517-0.062,0.517-0.062
			c0.485-0.134,0.538-0.153,0.538-0.153c0.482-0.22,0.536-0.249,0.536-0.249c0.49-0.305,0.545-0.343,0.545-0.343
			c0.442-0.338,0.553-0.431,0.553-0.431c0.447-0.405,0.559-0.514,0.559-0.514c0.451-0.466,0.564-0.59,0.564-0.59
			c1.86-2.117,3.066-4.216,4.267-6.355c1.154-2.11,2.243-4.377,3.211-6.578c1.337-3.088,2.706-6.492,3.599-9.717
			c0.621-2.216,0.893-4.283,1.213-6.489"/>
	</g>
	<g id="POLYLINE_629_">
		
			<path fill="none" stroke="#FB8604" stroke-width="2.75" stroke-linecap="round" stroke-linejoin="round" stroke-miterlimit="10" d="
			M284.707,555.928c-3.983,5.627-8.352,11.604-12.833,16.822c-1.82,2.137-4.549,5.055-6.471,6.725
			c-2.277,2.012-4.578,3.584-6.73,4.787c-2.019,1.126-4.188,2.076-6.384,2.799c-1.932,0.651-4.584,1.171-6.294,1.913
			c-0.485,0.202-0.722,0.306-0.722,0.306c-0.465,0.215-0.693,0.326-0.693,0.326c-0.446,0.228-0.664,0.345-0.664,0.345
			c-0.427,0.241-0.635,0.365-0.635,0.365c-0.407,0.254-0.606,0.384-0.606,0.384c-0.388,0.267-0.577,0.404-0.577,0.404
			c-0.368,0.28-0.548,0.424-0.548,0.424c-0.349,0.293-0.519,0.443-0.519,0.443c-0.49,0.463-0.646,0.621-0.646,0.621
			c-0.451,0.489-0.523,0.572-0.523,0.572c-0.349,0.425-0.417,0.511-0.417,0.511c-0.325,0.441-0.388,0.531-0.388,0.531
			c-0.301,0.457-0.359,0.55-0.359,0.55c-0.277,0.474-0.33,0.57-0.33,0.57c-0.252,0.49-0.348,0.69-0.348,0.69
			c-0.181,0.406-0.266,0.612-0.266,0.612c-0.16,0.416-0.197,0.519-0.197,0.519c-0.165,0.501-0.194,0.599-0.194,0.599
			c-0.125,0.477-0.146,0.57-0.146,0.57c-0.085,0.452-0.097,0.54-0.097,0.54c-0.044,0.428-0.049,0.511-0.049,0.511
			c-0.001,0.481,0.001,0.52,0.001,0.52c0.058,0.485,0.065,0.521,0.065,0.521c0.13,0.481,0.142,0.514,0.142,0.514
			c0.235,0.498,0.252,0.527,0.252,0.527c0.373,0.494,0.396,0.519,0.396,0.519c0.487,0.424,0.517,0.445,0.517,0.445
			c0.494,0.299,0.566,0.336,0.566,0.336c0.458,0.201,0.538,0.232,0.538,0.232c0.425,0.141,0.514,0.167,0.514,0.167
			c0.465,0.117,0.562,0.138,0.562,0.138c0.505,0.092,0.61,0.108,0.61,0.108c0.323,0.043,0.546,0.068,0.546,0.068
			c0.461,0.039,0.699,0.054,0.699,0.054c5.462-0.014,23.575,0.225,28.523-0.206c2.563-0.2,5.834-0.723,8.134-1.525
			c0.463-0.163,0.688-0.248,0.688-0.248c0.439-0.174,0.653-0.264,0.653-0.264c0.415-0.185,0.617-0.28,0.617-0.28
			c0.392-0.196,0.582-0.297,0.582-0.297c0.368-0.207,0.546-0.313,0.546-0.313c0.428-0.273,0.511-0.329,0.511-0.329
			c0.477-0.346,0.632-0.467,0.632-0.467c0.461-0.377,0.613-0.509,0.613-0.509c0.451-0.411,0.599-0.553,0.599-0.553
			c0.441-0.444,0.586-0.597,0.586-0.597c0.431-0.477,0.573-0.641,0.573-0.641c2.435-2.939,3.72-5.686,5-8.84
			c0.772-2.069,1.539-4.209,2.489-6.206c3.665-7.833,8.489-15.39,13.232-22.618"/>
	</g>
	<g id="POLYLINE_628_">
		
			<path fill="none" stroke="#FB8604" stroke-width="2.75" stroke-linecap="round" stroke-linejoin="round" stroke-miterlimit="10" d="
			M478.164,146.115c0.751-0.985,2.087-2.567,2.67-3.142c0.413-0.416,0.626-0.621,0.626-0.621c0.438-0.406,0.664-0.608,0.664-0.608
			c0.467-0.398,0.71-0.596,0.71-0.596c2.702-2.131,5.447-3.43,8.235-4.546c2.295-0.901,5.128-1.708,7.457-1.962
			c0.505-0.051,0.754-0.071,0.754-0.071c0.492-0.028,0.735-0.037,0.735-0.037c0.477-0.005,0.595-0.004,0.595-0.004
			c0.464,0.016,0.578,0.022,0.578,0.022c0.396,0.032,0.564,0.049,0.564,0.049c0.494,0.069,0.655,0.097,0.655,0.097
			c0.473,0.099,0.55,0.118,0.55,0.118c0.455,0.125,0.529,0.148,0.529,0.148c0.508,0.179,0.579,0.207,0.579,0.207
			c0.485,0.214,0.553,0.247,0.553,0.247c0.463,0.249,0.528,0.287,0.528,0.287c0.503,0.327,0.565,0.371,0.565,0.371
			c0.477,0.372,0.535,0.421,0.535,0.421c0.451,0.417,0.56,0.527,0.56,0.527c0.424,0.466,0.527,0.589,0.527,0.589
			c0.3,0.383,0.398,0.516,0.398,0.516c0.285,0.413,0.378,0.555,0.378,0.555c0.271,0.442,0.359,0.594,0.359,0.594
			c0.257,0.472,0.341,0.634,0.341,0.634c1.613,3.27,2.286,6.742,2.59,10.028c0.333,4.082,0.004,8.081-1.267,11.636"/>
	</g>
	<g id="POLYLINE_627_">
		
			<path fill="none" stroke="#FB8604" stroke-width="2.75" stroke-linecap="round" stroke-linejoin="round" stroke-miterlimit="10" d="
			M406.183,207.156l-2.862-2.91c-2.402-2.46-4.503-5.246-5.909-7.907c-2.427-4.571-3.888-9.338-5.136-14.268
			c-1.367-5.644-2.292-11.493-2.448-17.303c-0.105-4.132,0.225-8.934,1.721-12.684c0.18-0.438,0.242-0.582,0.242-0.582
			c0.192-0.424,0.257-0.563,0.257-0.563c0.203-0.409,0.273-0.543,0.273-0.543c0.215-0.394,0.288-0.524,0.288-0.524
			c0.303-0.504,0.381-0.627,0.381-0.627c0.322-0.48,0.404-0.597,0.404-0.597c0.34-0.456,0.427-0.567,0.427-0.567
			c0.358-0.432,0.449-0.537,0.449-0.537c0.471-0.507,0.568-0.605,0.568-0.605c0.497-0.472,0.599-0.562,0.599-0.562
			c0.416-0.351,0.522-0.436,0.522-0.436c0.432-0.328,0.543-0.407,0.543-0.407c0.449-0.305,0.563-0.378,0.563-0.378
			c0.464-0.281,0.582-0.349,0.582-0.349c0.48-0.258,0.602-0.32,0.602-0.32c0.495-0.235,0.621-0.291,0.621-0.291
			c0.51-0.212,0.639-0.262,0.639-0.262c0.392-0.144,0.525-0.189,0.525-0.189c0.401-0.13,0.536-0.171,0.536-0.171
			c0.409-0.117,0.547-0.153,0.547-0.153c1.017-0.257,1.725-0.363,2.446-0.45c4.481-0.477,8.863,0.437,12.715,1.718
			c5,1.712,9.494,4.247,13.12,7.481"/>
	</g>
	<g id="POLYLINE_496_">
		
			<path fill="none" stroke="#FB8604" stroke-width="2.75" stroke-linecap="round" stroke-linejoin="round" stroke-miterlimit="10" d="
			M409.352,258.105c-0.281,3.012-0.246,5.725,0.223,8.43c0.096,0.502,0.148,0.751,0.148,0.751c0.113,0.493,0.175,0.737,0.175,0.737
			c0.132,0.482,0.202,0.72,0.202,0.72c0.151,0.469,0.231,0.701,0.231,0.701c0.171,0.455,0.261,0.678,0.261,0.678
			c0.191,0.439,0.241,0.547,0.241,0.547c0.209,0.424,0.264,0.528,0.264,0.528c0.287,0.508,0.347,0.607,0.347,0.607
			c0.315,0.481,0.381,0.575,0.381,0.575c0.345,0.453,0.417,0.541,0.417,0.541c0.445,0.495,0.52,0.571,0.52,0.571
			c0.467,0.438,0.548,0.508,0.548,0.508c0.5,0.404,0.586,0.469,0.586,0.469c0.439,0.314,0.619,0.435,0.619,0.435
			c0.775,0.51,1.461,0.875,1.898,1.111l2.784,1.431c0.392,0.211,0.78,0.427,0.78,0.427c0.382,0.222,0.571,0.335,0.571,0.335
			c0.372,0.233,0.555,0.353,0.555,0.353c0.359,0.246,0.536,0.373,0.536,0.373c0.429,0.329,0.513,0.397,0.513,0.397
			c0.487,0.425,0.565,0.499,0.565,0.499c0.452,0.462,0.524,0.543,0.524,0.543c0.412,0.504,0.477,0.592,0.477,0.592
			c0.303,0.445,0.358,0.534,0.358,0.534c0.263,0.459,0.313,0.554,0.313,0.554c0.237,0.485,0.282,0.584,0.282,0.584
			c0.213,0.506,0.294,0.712,0.294,0.712c0.153,0.419,0.225,0.632,0.225,0.632c0.722,2.17,1.048,4.445,1.618,6.462
			c0.158,0.503,0.186,0.583,0.186,0.583c0.173,0.454,0.203,0.525,0.203,0.525c0.243,0.489,0.26,0.518,0.26,0.518
			c0.378,0.508,0.398,0.529,0.398,0.529c0.497,0.344,0.515,0.351,0.515,0.351c0.5,0.13,0.541,0.134,0.541,0.134
			c0.472,0.013,0.516,0.011,0.516,0.011c0.463-0.045,0.559-0.059,0.559-0.059c0.792-0.137,1.564-0.291,1.872-0.336
			c0.445-0.058,0.557-0.07,0.557-0.07c0.509-0.031,0.566-0.032,0.566-0.032c0.458,0.012,0.515,0.016,0.515,0.016
			c0.46,0.059,0.518,0.07,0.518,0.07c0.503,0.129,0.546,0.144,0.546,0.144c0.472,0.189,0.514,0.209,0.514,0.209
			c0.427,0.224,0.512,0.274,0.512,0.274c0.426,0.274,0.511,0.333,0.511,0.333c0.509,0.385,0.594,0.454,0.594,0.454
			c0.508,0.438,0.678,0.592,0.678,0.592c1.864,1.754,3.587,3.953,5.269,5.467c0.345,0.303,0.519,0.448,0.519,0.448
			c0.434,0.341,0.521,0.406,0.521,0.406c0.437,0.301,0.524,0.357,0.524,0.357c0.44,0.255,0.528,0.301,0.528,0.301
			c0.487,0.221,0.531,0.238,0.531,0.238c0.468,0.152,0.541,0.17,0.541,0.17c0.438,0.087,0.511,0.098,0.511,0.098
			c0.44,0.041,0.514,0.044,0.514,0.044c0.442,0,0.516-0.004,0.516-0.004c0.444-0.036,0.518-0.045,0.518-0.045
			c0.371-0.053,0.519-0.079,0.519-0.079c1.065-0.196,2.52-0.68,3.262-0.89c0.294-0.082,0.587-0.158,0.587-0.158
			c0.437-0.103,0.583-0.134,0.583-0.134c0.506-0.089,0.578-0.099,0.578-0.099c0.501-0.051,0.573-0.055,0.573-0.055
			c0.496-0.005,0.567-0.002,0.567-0.002c0.487,0.049,0.556,0.06,0.556,0.06c0.478,0.103,0.545,0.121,0.545,0.121
			c0.472,0.15,0.539,0.175,0.539,0.175c0.401,0.161,0.534,0.22,0.534,0.22c0.397,0.19,0.529,0.257,0.529,0.257
			c0.6,0.321,0.785,0.438,1.047,0.593c0.544,0.337,1.824,1.143,2.321,1.418c0.385,0.209,0.514,0.275,0.514,0.275
			c0.386,0.185,0.515,0.242,0.515,0.242c0.451,0.179,0.516,0.202,0.516,0.202c0.453,0.137,0.518,0.153,0.518,0.153
			c0.455,0.087,0.521,0.096,0.521,0.096c0.468,0.032,0.547,0.033,0.547,0.033c0.473-0.023,0.552-0.032,0.552-0.032
			c0.479-0.074,0.559-0.09,0.559-0.09c0.486-0.119,0.568-0.142,0.568-0.142c0.495-0.158,0.662-0.218,0.662-0.218
			c2.449-0.964,4.911-2.418,7.025-3.086c0.468-0.153,0.706-0.225,0.706-0.225c0.484-0.137,0.73-0.202,0.73-0.202
			c0.501-0.119,0.755-0.174,0.755-0.174c6.56-1.234,13.151,0.499,19.638,0.178c0.452-0.035,0.599-0.049,0.599-0.049
			c0.432-0.05,0.572-0.069,0.572-0.069c0.41-0.066,0.543-0.091,0.543-0.091c0.387-0.083,0.512-0.114,0.512-0.114
			c0.479-0.139,0.537-0.158,0.537-0.158c0.45-0.173,0.513-0.201,0.513-0.201c0.47-0.241,0.526-0.273,0.526-0.273
			c0.472-0.315,0.522-0.353,0.522-0.353c0.468-0.396,0.512-0.438,0.512-0.438c0.422-0.434,0.503-0.523,0.503-0.523
			c0.313-0.368,0.464-0.557,0.464-0.557l0.896-1.152c0.391-0.472,0.472-0.565,0.472-0.565c0.426-0.45,0.516-0.537,0.516-0.537
			c0.478-0.416,0.529-0.455,0.529-0.455c0.484-0.338,0.541-0.373,0.541-0.373c0.505-0.276,0.591-0.316,0.591-0.316
			c0.446-0.193,0.539-0.229,0.539-0.229c0.479-0.17,0.578-0.202,0.578-0.202c0.508-0.15,0.718-0.206,0.718-0.206
			c1.754-0.458,4.752-0.817,6.109-1.038c1.004-0.163,1.789-0.328,2.32-0.458c0.437-0.114,0.651-0.175,0.651-0.175
			c0.418-0.129,0.52-0.163,0.52-0.163c0.498-0.181,0.594-0.22,0.594-0.22c0.467-0.205,0.557-0.249,0.557-0.249
			c0.433-0.232,0.515-0.281,0.515-0.281c0.478-0.324,0.536-0.368,0.536-0.368c0.485-0.421,0.535-0.47,0.535-0.47
			c0.427-0.464,0.472-0.517,0.472-0.517c0.38-0.497,0.46-0.611,0.46-0.611c0.305-0.465,0.45-0.701,0.45-0.701
			c0.28-0.479,0.957-1.676,0.957-1.676c0.278-0.465,0.349-0.579,0.349-0.579c0.296-0.444,0.373-0.552,0.373-0.552
			c0.365-0.464,0.408-0.514,0.408-0.514c0.505-0.509,0.554-0.552,0.554-0.552c0.474-0.357,0.53-0.393,0.53-0.393
			c0.458-0.257,0.526-0.291,0.526-0.291c0.502-0.215,0.577-0.243,0.577-0.243c0.461-0.156,0.619-0.203,0.619-0.203
			c1.69-0.472,3.66-0.677,5.012-1.02c0.499-0.132,0.662-0.18,0.662-0.18c0.476-0.157,0.553-0.185,0.553-0.185
			c0.451-0.183,0.524-0.216,0.524-0.216c0.489-0.253,0.555-0.292,0.555-0.292c0.501-0.348,0.531-0.372,0.531-0.372
			c0.5-0.49,0.529-0.525,0.529-0.525c0.344-0.487,0.368-0.527,0.368-0.527c0.262-0.508,0.302-0.598,0.302-0.598
			c0.18-0.466,0.212-0.563,0.212-0.563c0.148-0.501,0.174-0.605,0.174-0.605c0.098-0.424,0.142-0.643,0.142-0.643
			c0.079-0.447,0.114-0.676,0.114-0.676c0.359-2.642,0.34-5.358,0.748-7.652c0.095-0.508,0.147-0.759,0.147-0.759
			c0.116-0.496,0.148-0.619,0.148-0.619c0.137-0.484,0.174-0.604,0.174-0.604c0.16-0.47,0.203-0.586,0.203-0.586
			c0.185-0.454,0.235-0.566,0.235-0.566c0.216-0.442,0.274-0.551,0.274-0.551c0.247-0.428,0.312-0.533,0.312-0.533
			c0.274-0.41,0.345-0.511,0.345-0.511c0.375-0.492,0.453-0.588,0.453-0.588c0.406-0.471,0.575-0.655,0.575-0.655
			c0.348-0.362,0.526-0.539,0.526-0.539c0.953-0.951,3.178-2.75,3.87-3.343c0.576-0.498,0.949-0.849,1.128-1.018
			c0.357-0.351,0.531-0.529,0.531-0.529c0.421-0.454,0.502-0.547,0.502-0.547c0.392-0.472,0.467-0.569,0.467-0.569
			c0.359-0.493,0.427-0.594,0.427-0.594c0.259-0.412,0.321-0.517,0.321-0.517c0.232-0.429,0.286-0.539,0.286-0.539
			c0.201-0.448,0.247-0.563,0.247-0.563c0.168-0.469,0.206-0.589,0.206-0.589c0.11-0.396,0.142-0.531,0.142-0.531
			c0.086-0.411,0.111-0.55,0.111-0.55c0.063-0.424,0.081-0.568,0.081-0.568c0.043-0.436,0.054-0.584,0.054-0.584
			c0.023-0.447,0.028-0.598,0.028-0.598c0.026-2.239-0.24-3.772-0.58-5.758l-0.977-5.004c-0.11-0.587-0.282-1.712-0.324-2.181
			c-0.043-0.494-0.051-0.614-0.051-0.614c-0.019-0.464-0.02-0.576-0.02-0.576c0.009-0.431,0.015-0.534,0.015-0.534
			c0.053-0.49,0.06-0.536,0.06-0.536c0.112-0.48,0.125-0.521,0.125-0.521c0.205-0.491,0.223-0.526,0.223-0.526
			c0.311-0.481,0.334-0.511,0.334-0.511c0.671-0.759,0.68-0.712,1.153-1.165c0.447-0.46,0.493-0.514,0.493-0.514
			c0.351-0.496,0.369-0.528,0.369-0.528c0.214-0.486,0.224-0.517,0.224-0.517c0.112-0.46,0.124-0.529,0.124-0.529
			c0.05-0.438,0.055-0.514,0.055-0.514c0.01-0.476,0.009-0.558,0.009-0.558c-0.02-0.424-0.033-0.599-0.033-0.599
			c-0.036-0.359-0.059-0.543-0.059-0.543c-0.414-2.896-1.565-6.214-2.309-8.934c-0.778-2.705-1.413-6.513-2.301-9.089
			c-0.254-0.736-0.489-1.285-0.649-1.64c-0.167-0.355-0.254-0.532-0.254-0.532c-0.182-0.35-0.276-0.525-0.276-0.525
			c-0.198-0.346-0.301-0.517-0.301-0.517c-0.215-0.341-0.327-0.51-0.327-0.51c-0.355-0.503-0.43-0.604-0.43-0.604
			c-0.391-0.497-0.555-0.694-0.555-0.694c-0.341-0.392-0.518-0.586-0.518-0.586c-3.478-3.651-7.991-6.585-11.04-10.147
			c-0.409-0.478-0.608-0.721-0.608-0.721c-4.437-5.546-5.8-12.574-8.537-18.867c-2.072-5.04-5.206-9.412-8.78-13.052
			c-5.717-5.793-12.643-10.515-20.289-13.355c-3.44-1.274-7.08-2.15-10.685-2.815c-3.404-0.621-7.389-1.2-10.777-1.209
			c-0.669,0.004-1.078,0.029-1.3,0.041c-0.399,0.031-0.592,0.051-0.592,0.051c-0.46,0.058-0.549,0.072-0.549,0.072
			c-0.502,0.094-0.581,0.112-0.581,0.112c-0.444,0.122-0.512,0.144-0.512,0.144c-0.495,0.206-0.522,0.22-0.522,0.22
			c-0.497,0.346-0.53,0.375-0.53,0.375c-0.344,0.367-0.594,0.673-0.594,0.673c-0.501,0.491-0.517,0.501-0.517,0.501
			c-0.492,0.22-0.515,0.226-0.515,0.226c-0.493,0.07-0.551,0.073-0.551,0.073c-0.497-0.003-0.564-0.007-0.564-0.007
			c-0.418-0.035-0.565-0.052-0.565-0.052c-2.435-0.336-5.48-1.214-7.74-1.477c-0.602-0.075-1.001-0.103-1.197-0.117
			c-0.39-0.02-0.567-0.026-0.567-0.026c-0.351-0.005-0.525-0.004-0.525-0.004c-0.344,0.008-0.514,0.015-0.514,0.015
			c-0.504,0.032-0.669,0.046-0.669,0.046c-0.49,0.053-0.651,0.073-0.651,0.073c-0.477,0.071-0.634,0.097-0.634,0.097
			c-2.1,0.36-4.021,1.123-5.879,1.673c-2.647,0.71-5.192,0.955-7.445,1.697c-3.665,1.152-7.391,2.784-10.375,4.783
			c-0.413,0.292-0.611,0.438-0.611,0.438c-0.47,0.368-0.559,0.442-0.559,0.442c-0.5,0.444-0.578,0.518-0.578,0.518
			c-0.424,0.445-0.488,0.519-0.488,0.519c-0.364,0.479-0.388,0.516-0.388,0.516c-0.262,0.475-0.278,0.511-0.278,0.511
			c-0.158,0.503-0.164,0.539-0.164,0.539c-0.019,0.497-0.017,0.518-0.017,0.518c0.111,0.503,0.125,0.545,0.125,0.545
			c0.215,0.495,0.236,0.536,0.236,0.536c0.233,0.408,0.334,0.571,0.334,0.571l0.526,0.814c0.292,0.492,0.336,0.575,0.336,0.575
			c0.225,0.5,0.24,0.542,0.24,0.542c0.122,0.49,0.125,0.511,0.125,0.511c0.005,0.502,0.002,0.524,0.002,0.524
			c-0.125,0.475-0.14,0.511-0.14,0.511c-0.256,0.475-0.281,0.512-0.281,0.512c-0.377,0.487-0.444,0.563-0.444,0.563
			c-0.448,0.458-0.53,0.535-0.53,0.535c-0.436,0.387-0.623,0.543-0.623,0.543c-2.233,1.78-4.378,2.962-6.465,4.464
			c-0.387,0.286-0.572,0.426-0.572,0.426c-0.43,0.346-0.511,0.414-0.511,0.414c-0.505,0.465-0.568,0.53-0.568,0.53
			c-0.415,0.501-0.435,0.532-0.435,0.532c-0.231,0.495-0.237,0.523-0.237,0.523c0.031,0.504,0.036,0.518,0.036,0.518
			c0.31,0.49,0.333,0.516,0.333,0.516c0.707,0.666,0.733,0.638,1.21,1.019c0.492,0.419,0.52,0.446,0.52,0.446
			c0.424,0.507,0.433,0.522,0.433,0.522c0.185,0.498,0.187,0.514,0.187,0.514c-0.046,0.498-0.055,0.527-0.055,0.527
			c-0.214,0.483-0.232,0.514-0.232,0.514c-0.328,0.483-0.379,0.549-0.379,0.549c-0.342,0.405-0.468,0.543-0.468,0.543
			c-1.301,1.358-2.636,2.402-3.859,3.548c-0.469,0.449-0.619,0.598-0.619,0.598c-0.423,0.442-0.555,0.588-0.555,0.588
			c-0.416,0.503-0.469,0.573-0.469,0.573c-0.324,0.486-0.344,0.52-0.344,0.52c-0.232,0.5-0.243,0.533-0.243,0.533
			c-0.095,0.505-0.095,0.535-0.095,0.535c0.089,0.505,0.096,0.525,0.096,0.525c0.267,0.492,0.294,0.53,0.294,0.53
			c0.385,0.446,0.458,0.518,0.458,0.518c0.812,0.73,0.692,0.602,1.314,1.115c0.477,0.412,0.552,0.481,0.552,0.481
			c0.452,0.49,0.479,0.526,0.479,0.526c0.272,0.493,0.279,0.512,0.279,0.512c0.06,0.502,0.057,0.53,0.057,0.53
			c-0.153,0.483-0.167,0.512-0.167,0.512c-0.331,0.508-0.38,0.569-0.38,0.569c-0.456,0.496-0.521,0.559-0.521,0.559
			c-0.419,0.382-0.569,0.51-0.569,0.51c-1.465,1.211-3.442,2.471-4.601,3.353c-0.469,0.364-0.616,0.483-0.616,0.483
			c-0.469,0.407-0.53,0.464-0.53,0.464c-0.466,0.494-0.487,0.521-0.487,0.521c-0.308,0.507-0.318,0.531-0.318,0.531
			c-0.038,0.497-0.034,0.512-0.034,0.512c0.304,0.506,0.317,0.519,0.317,0.519c0.462,0.393,0.534,0.444,0.534,0.444
			c0.387,0.257,1.241,0.785,1.241,0.785c0.432,0.281,0.516,0.34,0.516,0.34c0.481,0.367,0.519,0.4,0.519,0.4
			c0.469,0.479,0.498,0.516,0.498,0.516c0.298,0.501,0.312,0.536,0.312,0.536c0.129,0.479,0.135,0.517,0.135,0.517
			c0.021,0.483,0.019,0.525,0.019,0.525c-0.057,0.475-0.065,0.52-0.065,0.52c-0.124,0.504-0.152,0.598-0.152,0.598
			c-0.17,0.483-0.209,0.582-0.209,0.582c-0.219,0.505-0.268,0.608-0.268,0.608c-0.154,0.313-0.263,0.524-0.263,0.524
			c-1.724,3.183-4.403,6.374-5.932,9.338c-0.227,0.453-0.316,0.644-0.316,0.644c-0.168,0.377-0.247,0.564-0.247,0.564
			c-0.147,0.37-0.215,0.553-0.215,0.553c-0.127,0.364-0.186,0.544-0.186,0.544c-0.108,0.358-0.158,0.536-0.158,0.536
			c-0.091,0.353-0.132,0.528-0.132,0.528c-0.075,0.348-0.109,0.521-0.109,0.521c-0.06,0.344-0.087,0.515-0.087,0.515
			c-0.068,0.51-0.086,0.679-0.086,0.679c-0.195,2.021-0.039,3.809-0.003,5.671c0.045,2.173-0.152,4.255-0.588,5.999
			c-0.104,0.4-0.159,0.6-0.159,0.6c-0.119,0.399-0.183,0.598-0.183,0.598c-0.136,0.398-0.208,0.596-0.208,0.596
			c-0.153,0.396-0.234,0.593-0.234,0.593c-0.171,0.393-0.261,0.589-0.261,0.589c-0.19,0.39-0.29,0.584-0.29,0.584
			c-0.21,0.386-0.32,0.578-0.32,0.578c-0.231,0.382-0.351,0.571-0.351,0.571c-0.252,0.377-0.384,0.564-0.384,0.564
			c-0.275,0.371-0.418,0.555-0.418,0.555c-0.298,0.365-0.453,0.546-0.453,0.546c-0.322,0.358-0.489,0.535-0.489,0.535
			c-0.369,0.372-0.572,0.567-0.572,0.567c-0.42,0.385-0.637,0.575-0.637,0.575c-2.962,2.552-7.095,4.724-9.738,6.791
			c-0.366,0.297-0.541,0.445-0.541,0.445c-0.483,0.441-0.558,0.514-0.558,0.514c-0.409,0.438-0.47,0.51-0.47,0.51
			c-0.372,0.508-0.394,0.544-0.394,0.544c-0.255,0.506-0.269,0.542-0.269,0.542c-0.129,0.499-0.135,0.542-0.135,0.542
			c-0.024,0.471-0.022,0.514-0.022,0.514c0.048,0.474,0.062,0.56,0.062,0.56c0.117,0.606,0.247,1.042,0.338,1.411
			c0.104,0.454,0.122,0.546,0.122,0.546c0.071,0.465,0.076,0.511,0.076,0.511c0.022,0.475,0.021,0.523,0.021,0.523
			c-0.044,0.487-0.052,0.537-0.052,0.537c-0.127,0.501-0.145,0.551-0.145,0.551c-0.204,0.47-0.228,0.515-0.228,0.515
			c-0.299,0.497-0.362,0.589-0.362,0.589c-0.348,0.462-0.425,0.556-0.425,0.556c-0.413,0.471-0.502,0.566-0.502,0.566
			c-0.372,0.383-0.569,0.575-0.569,0.575c-2.399,2.281-5.528,4.393-7.781,6.475c-0.396,0.376-0.584,0.562-0.584,0.562
			c-0.438,0.459-0.519,0.55-0.519,0.55c-0.376,0.449-0.445,0.538-0.445,0.538c-0.334,0.48-0.36,0.523-0.36,0.523
			c-0.266,0.507-0.283,0.549-0.283,0.549c-0.155,0.506-0.16,0.53-0.16,0.53c-0.039,0.497-0.039,0.52-0.039,0.52
			c0.066,0.505,0.076,0.55,0.076,0.55c0.155,0.494,0.172,0.538,0.172,0.538c0.299,0.702,0.582,1.177,0.801,1.606
			c0.224,0.461,0.266,0.554,0.266,0.554c0.185,0.477,0.201,0.525,0.201,0.525c0.129,0.496,0.138,0.547,0.138,0.547
			c0.05,0.467,0.052,0.521,0.052,0.521c-0.027,0.484-0.033,0.533-0.033,0.533c-0.109,0.501-0.124,0.553-0.124,0.553
			c-0.165,0.47-0.186,0.524-0.186,0.524c-0.223,0.487-0.279,0.598-0.279,0.598c-0.247,0.448-0.315,0.562-0.315,0.562
			c-0.421,0.678-0.607,0.922-0.781,1.17c-1.637,2.196-3.591,4.25-5.232,6.153c-0.924,1.065-2.149,2.607-2.799,3.659
			c-0.307,0.508-0.379,0.634-0.379,0.634c-0.267,0.5-0.328,0.624-0.328,0.624c-0.222,0.492-0.271,0.614-0.271,0.614
			c-0.172,0.482-0.191,0.542-0.191,0.542c-0.128,0.489-0.146,0.574-0.146,0.574c-0.082,0.505-0.091,0.588-0.091,0.588
			c-0.035,0.495-0.037,0.577-0.037,0.577c0.005,0.486,0.009,0.567,0.009,0.567c0.029,0.399,0.045,0.558,0.045,0.558
			c0.082,0.739,0.363,2.098,0.457,2.634c0.073,0.459,0.094,0.613,0.094,0.613c0.05,0.461,0.056,0.537,0.056,0.537
			c0.021,0.463,0.022,0.54,0.022,0.54c-0.015,0.466-0.02,0.544-0.02,0.544c-0.058,0.471-0.072,0.55-0.072,0.55
			c-0.109,0.477-0.132,0.557-0.132,0.557c-0.168,0.484-0.201,0.566-0.201,0.566c-0.234,0.493-0.279,0.576-0.279,0.576
			c-0.288,0.473-0.338,0.548-0.338,0.548c-0.331,0.452-0.39,0.528-0.39,0.528c-0.318,0.382-0.454,0.536-0.454,0.536
			c-0.438,0.465-0.593,0.622-0.593,0.622c-2.638,2.509-4.838,3.878-7.576,5.716c-3.797,2.486-9.68,5.955-13.031,8.796
			c-0.488,0.432-0.642,0.574-0.642,0.574c-0.433,0.421-0.568,0.56-0.568,0.56c-0.431,0.478-0.487,0.545-0.487,0.545
			c-0.356,0.464-0.401,0.529-0.401,0.529c-0.275,0.449-0.308,0.512-0.308,0.512c-0.209,0.494-0.228,0.555-0.228,0.555
			c-0.095,0.499-0.097,0.523-0.097,0.523c0.013,0.492,0.019,0.538,0.019,0.538c0.111,0.494,0.125,0.538,0.125,0.538
			c0.182,0.475,0.221,0.559,0.221,0.559c0.205,0.416,0.546,1.062,0.546,1.062c0.227,0.472,0.244,0.511,0.244,0.511
			c0.17,0.504,0.179,0.542,0.179,0.542c0.045,0.5,0.043,0.519,0.043,0.519c-0.121,0.501-0.13,0.52-0.13,0.52
			c-0.328,0.509-0.365,0.553-0.365,0.553c-0.497,0.48-0.55,0.524-0.55,0.524c-0.406,0.309-0.533,0.397-0.533,0.397
			c-0.408,0.267-0.553,0.356-0.553,0.356c-5.865,3.307-13.907,5.244-19.63,8.555c-0.485,0.299-0.638,0.399-0.638,0.399
			c-0.435,0.3-0.571,0.4-0.571,0.4c-0.499,0.401-0.555,0.452-0.555,0.452c-0.499,0.503-0.542,0.554-0.542,0.554
			c-0.34,0.48-0.368,0.528-0.368,0.528c-0.225,0.48-0.242,0.529-0.242,0.529c-0.129,0.48-0.138,0.528-0.138,0.528
			c-0.055,0.479-0.057,0.527-0.057,0.527c-0.001,0.477,0.003,0.572,0.003,0.572c0.026,0.379,0.113,1.315,0.113,1.315
			c0.022,0.461,0.023,0.552,0.023,0.552c-0.029,0.498-0.035,0.543-0.035,0.543c-0.108,0.489-0.123,0.533-0.123,0.533
			c-0.217,0.483-0.243,0.528-0.243,0.528c-0.35,0.485-0.387,0.528-0.387,0.528c-0.472,0.475-0.52,0.518-0.52,0.518
			c-0.416,0.341-0.528,0.426-0.528,0.426c-0.48,0.338-0.607,0.422-0.607,0.422c-2.831,1.809-7.445,3.531-10.48,4.896
			c-3.34,1.447-7.407,3.415-10.151,5.466c-6.866,5.031-9.886,12.546-14.01,19.471c-2.9,5.107-7.523,9.892-11.375,14.241
			c-0.849,0.976-1.907,2.333-2.337,2.974c-0.312,0.469-0.459,0.7-0.459,0.7c-0.272,0.457-0.336,0.57-0.336,0.57
			c-0.236,0.447-0.29,0.558-0.29,0.558c-0.197,0.437-0.242,0.545-0.242,0.545c-0.156,0.427-0.19,0.533-0.19,0.533
			c-0.124,0.468-0.135,0.52-0.135,0.52c-0.076,0.49-0.082,0.553-0.082,0.553c-0.02,0.505-0.019,0.568-0.019,0.568
			c0.033,0.496,0.04,0.558,0.04,0.558c0.065,0.43,0.088,0.552,0.088,0.552c0.111,0.489,0.142,0.612,0.142,0.612
			c0.256,0.895,0.642,2.103,0.754,2.538c0.102,0.408,0.134,0.546,0.134,0.546c0.086,0.422,0.111,0.565,0.111,0.565
			c0.064,0.438,0.081,0.587,0.081,0.587c0.037,0.457,0.041,0.534,0.041,0.534c0.009,0.475,0.007,0.555,0.007,0.555
			c-0.024,0.494-0.035,0.622-0.035,0.622c-0.044,0.39-0.063,0.522-0.063,0.522c-0.066,0.403-0.092,0.539-0.092,0.539
			c-0.087,0.415-0.119,0.555-0.119,0.555c-1.28,5.075-4.241,9.69-5.619,14.618c-0.104,0.409-0.135,0.543-0.135,0.543
			c-0.084,0.396-0.109,0.526-0.109,0.526c-0.081,0.508-0.097,0.632-0.097,0.632c-0.043,0.484-0.049,0.602-0.049,0.602
			c-0.002,0.471,0.002,0.55,0.002,0.55c0.041,0.459,0.051,0.534,0.051,0.534c0.096,0.507,0.113,0.578,0.113,0.578
			c0.143,0.482,0.166,0.549,0.166,0.549c0.183,0.462,0.212,0.526,0.212,0.526c0.218,0.447,0.286,0.573,0.286,0.573
			c0.643,1.136,1.53,2.329,1.98,3.073c0.258,0.427,0.342,0.574,0.342,0.574c0.248,0.453,0.328,0.608,0.328,0.608
			c0.233,0.482,0.307,0.649,0.307,0.649c0.144,0.341,0.213,0.517,0.213,0.517c0.132,0.36,0.194,0.545,0.194,0.545
			c0.126,0.407,0.166,0.546,0.166,0.546c1.428,5.513,0.646,11.739,1.574,17.231c0.078,0.389,0.105,0.515,0.105,0.515
			c0.12,0.485,0.152,0.601,0.152,0.601c0.139,0.444,0.177,0.549,0.177,0.549c0.204,0.493,0.226,0.539,0.226,0.539
			c0.269,0.481,0.295,0.521,0.295,0.521c0.393,0.51,0.423,0.543,0.423,0.543c0.498,0.476,0.563,0.529,0.563,0.529
			c0.68,0.522,0.778,0.561,1.331,0.945c0.51,0.386,0.571,0.437,0.571,0.437c0.487,0.484,0.513,0.516,0.513,0.516
			c0.332,0.472,0.363,0.526,0.363,0.526c0.229,0.457,0.256,0.517,0.256,0.517c0.172,0.446,0.195,0.512,0.195,0.512
			c0.129,0.414,0.169,0.556,0.169,0.556c0.112,0.443,0.148,0.595,0.148,0.595c0.438,2.023,0.66,4.528,1.113,6.39
			c0.085,0.344,0.13,0.515,0.13,0.515c0.145,0.503,0.197,0.668,0.197,0.668c0.168,0.487,0.228,0.647,0.228,0.647
			c0.19,0.47,0.257,0.624,0.257,0.624c0.209,0.455,0.281,0.604,0.281,0.604c0.743,1.498,1.602,2.791,2.301,4.136
			c0.221,0.439,0.293,0.587,0.293,0.587c0.206,0.451,0.272,0.603,0.272,0.603c0.187,0.465,0.246,0.623,0.246,0.623
			c0.165,0.483,0.216,0.647,0.216,0.647c0.139,0.503,0.18,0.675,0.18,0.675c0.075,0.349,0.109,0.527,0.109,0.527
			c0.07,0.437,0.087,0.567,0.087,0.567c0.044,0.397,0.057,0.531,0.057,0.531c0.163,2.356-0.067,4.08-0.331,6.242
			c-0.538,3.964-1.508,9.266-1.278,13.166c0.252,5.131,2.336,9.477,4.2,14.054c0.861,2.087,1.821,4.705,2.308,6.824
			c1.381,5.661,1.336,12.838,1.608,18.652c0.109,2.568,0.461,5.722,0.958,7.923c0.661,2.993,1.415,5.115,2.449,7.697
			c1.16,2.844,2.754,6.308,4.4,8.582c0.366,0.486,0.489,0.64,0.489,0.64c0.432,0.503,0.494,0.57,0.494,0.57
			c0.498,0.492,0.56,0.547,0.56,0.547c0.5,0.393,0.563,0.435,0.563,0.435c0.501,0.283,0.532,0.297,0.532,0.297
			c0.499,0.168,0.531,0.175,0.531,0.175c0.491,0.046,0.514,0.045,0.514,0.045c0.467-0.061,0.514-0.072,0.514-0.072
			c0.468-0.151,0.515-0.169,0.515-0.169c0.425-0.198,0.52-0.248,0.52-0.248c0.75-0.42,1.512-0.96,1.98-1.262
			c0.422-0.266,0.529-0.33,0.529-0.33c0.436-0.248,0.547-0.307,0.547-0.307c0.51-0.245,0.567-0.27,0.567-0.27
			c0.47-0.18,0.53-0.199,0.53-0.199c0.488-0.134,0.55-0.147,0.55-0.147c0.473-0.076,0.553-0.085,0.553-0.085
			c0.488-0.031,0.571-0.033,0.571-0.033c0.502,0.008,0.587,0.012,0.587,0.012c0.428,0.032,0.601,0.05,0.601,0.05
			c1.924,0.226,4.057,0.879,5.779,1.061c0.357,0.034,0.534,0.048,0.534,0.048c0.44,0.019,0.527,0.021,0.527,0.021
			c0.433-0.007,0.519-0.011,0.519-0.011c0.509-0.047,0.593-0.058,0.593-0.058c0.496-0.094,0.578-0.114,0.578-0.114
			c0.486-0.148,0.567-0.178,0.567-0.178c0.478-0.207,0.556-0.246,0.556-0.246c0.463-0.258,0.539-0.305,0.539-0.305
			c0.45-0.302,0.524-0.356,0.524-0.356c0.439-0.34,0.584-0.46,0.584-0.46c1.556-1.349,2.538-2.608,3.851-3.888
			c0.413-0.391,0.551-0.516,0.551-0.516c0.419-0.359,0.56-0.473,0.56-0.473c0.5-0.37,0.572-0.419,0.572-0.419
			c0.438-0.271,0.512-0.313,0.512-0.313c0.449-0.222,0.525-0.255,0.525-0.255c0.487-0.175,0.555-0.195,0.555-0.195
			c0.478-0.114,0.547-0.127,0.547-0.127c0.488-0.069,0.558-0.076,0.558-0.076c0.424-0.029,0.567-0.033,0.567-0.033
			c0.429-0.002,0.573,0.001,0.573,0.001c1.073,0.037,2.25,0.185,3.011,0.225c0.418,0.018,0.556,0.021,0.556,0.021
			c0.41-0.002,0.544-0.006,0.544-0.006c0.465-0.035,0.531-0.042,0.531-0.042c0.451-0.073,0.514-0.087,0.514-0.087
			c0.495-0.14,0.556-0.161,0.556-0.161c0.496-0.222,0.537-0.245,0.537-0.245c0.477-0.31,0.516-0.34,0.516-0.34
			c0.452-0.391,0.525-0.463,0.525-0.463c0.428-0.471,0.497-0.556,0.497-0.556c0.34-0.45,0.407-0.544,0.407-0.544
			c0.328-0.498,0.392-0.602,0.392-0.602c0.255-0.431,0.38-0.655,0.38-0.655c2.116-4.006,3.548-8.764,5.932-12.527
			c2.86-4.611,7.304-8.39,11.075-12.105c2.339-2.267,5.029-5.259,6.67-7.833c2.468-3.855,3.863-7.342,5.394-11.449l3.268-9.422
			c0.632-1.759,1.536-3.941,2.44-5.346c0.32-0.496,0.482-0.735,0.482-0.735c0.971-1.384,2.042-2.596,2.983-3.769
			c2.622-3.36,4.23-6.471,6.096-10.131c2.145-4.353,4.114-8.978,5.655-13.58"/>
	</g>
	<g id="POLYLINE_493_">
		
			<path fill="none" stroke="#FB8604" stroke-width="2.75" stroke-linecap="round" stroke-linejoin="round" stroke-miterlimit="10" d="
			M520.128,195.346c-0.973-0.779-1.803-1.324-2.449-1.718c-0.42-0.247-0.631-0.366-0.631-0.366
			c-0.424-0.229-0.637-0.338-0.637-0.338c-0.427-0.21-0.642-0.311-0.642-0.311c-0.43-0.191-0.646-0.282-0.646-0.282
			c-0.433-0.172-0.649-0.252-0.649-0.252c-0.434-0.152-0.652-0.222-0.652-0.222c-0.436-0.131-0.654-0.191-0.654-0.191
			c-0.436-0.11-0.654-0.16-0.654-0.16c-0.436-0.088-0.654-0.127-0.654-0.127c-0.436-0.066-0.653-0.094-0.653-0.094
			c-0.435-0.044-0.543-0.052-0.543-0.052c-0.433-0.025-0.541-0.028-0.541-0.028c-0.432-0.005-0.539-0.004-0.539-0.004
			c-0.429,0.015-0.536,0.021-0.536,0.021c-0.427,0.035-0.533,0.046-0.533,0.046c-0.424,0.056-0.53,0.072-0.53,0.072
			c-0.421,0.077-0.526,0.098-0.526,0.098c-0.417,0.098-0.521,0.125-0.521,0.125c-0.413,0.12-0.519,0.153-0.519,0.153
			c-0.421,0.146-0.526,0.186-0.526,0.186c-0.416,0.169-0.519,0.214-0.519,0.214c-0.41,0.191-0.511,0.242-0.511,0.242
			c-0.503,0.269-0.602,0.326-0.602,0.326c-0.491,0.3-0.588,0.363-0.588,0.363c-0.479,0.33-0.573,0.399-0.573,0.399
			c-0.465,0.36-0.556,0.434-0.556,0.434c-0.361,0.308-0.538,0.468-0.538,0.468c-0.348,0.33-0.519,0.5-0.519,0.5
			c-0.334,0.351-0.497,0.532-0.497,0.532c-0.319,0.371-0.475,0.561-0.475,0.561c-0.303,0.39-0.451,0.59-0.451,0.59
			c-0.286,0.409-0.425,0.617-0.425,0.617c-0.269,0.426-0.398,0.643-0.398,0.643c-0.25,0.443-0.37,0.668-0.37,0.668
			c-0.23,0.459-0.34,0.692-0.34,0.692c-0.209,0.474-0.309,0.714-0.309,0.714c-0.188,0.488-0.276,0.735-0.276,0.735
			c-0.402,1.2-0.556,1.925-0.707,2.854c-0.066,0.478-0.085,0.639-0.085,0.639c-0.048,0.484-0.061,0.647-0.061,0.647
			c-0.03,0.49-0.037,0.654-0.037,0.654c-0.154,5.423,1.75,10.649,4.871,14.635c0.318,0.388,0.425,0.515,0.425,0.515
			c0.44,0.496,0.552,0.617,0.552,0.617c0.458,0.471,0.575,0.586,0.575,0.586c0.476,0.445,0.597,0.552,0.597,0.552
			c0.493,0.416,0.618,0.517,0.618,0.517c0.449,0.343,0.563,0.426,0.563,0.426c0.461,0.32,0.578,0.397,0.578,0.397
			c0.472,0.296,0.591,0.367,0.591,0.367c0.482,0.273,0.604,0.338,0.604,0.338c0.491,0.25,0.615,0.309,0.615,0.309
			c0.499,0.227,0.625,0.28,0.625,0.28c0.506,0.203,0.634,0.251,0.634,0.251c2.202,0.811,4.356,1.075,6.423,0.943
			c0.392-0.031,0.522-0.044,0.522-0.044c0.389-0.045,0.519-0.062,0.519-0.062c0.386-0.059,0.515-0.08,0.515-0.08
			c0.383-0.072,0.51-0.099,0.51-0.099c0.505-0.117,0.63-0.149,0.63-0.149c0.498-0.139,0.621-0.177,0.621-0.177
			c0.49-0.162,0.611-0.205,0.611-0.205c0.48-0.184,0.599-0.233,0.599-0.233c0.47-0.207,0.586-0.261,0.586-0.261
			c0.457-0.228,0.568-0.287,0.568-0.287c0.438-0.246,0.546-0.31,0.546-0.31c0.426-0.266,0.531-0.335,0.531-0.335
			c0.414-0.286,0.516-0.36,0.516-0.36c0.5-0.383,0.597-0.463,0.597-0.463c0.479-0.41,0.666-0.58,0.666-0.58
			c0.365-0.35,0.543-0.53,0.543-0.53c0.347-0.369,0.516-0.559,0.516-0.559c0.329-0.387,0.489-0.585,0.489-0.585
			c0.31-0.404,0.46-0.61,0.46-0.61c0.29-0.42,0.43-0.633,0.43-0.633c0.27-0.434,0.399-0.655,0.399-0.655
			c0.248-0.448,0.367-0.674,0.367-0.674c0.227-0.46,0.334-0.692,0.334-0.692c0.204-0.471,0.3-0.709,0.3-0.709
			c0.181-0.481,0.265-0.723,0.265-0.723c0.157-0.489,0.229-0.736,0.229-0.736c0.132-0.497,0.192-0.747,0.192-0.747
			c0.107-0.503,0.153-0.757,0.153-0.757c0.081-0.509,0.098-0.636,0.098-0.636c0.045-0.384,0.058-0.512,0.058-0.512
			c0.032-0.386,0.04-0.515,0.04-0.515c0.018-0.387,0.022-0.516,0.022-0.516c0.004-0.388,0.003-0.528,0.003-0.528
			c-0.012-0.42-0.019-0.56-0.019-0.56c-0.028-0.42-0.04-0.56-0.04-0.56c-0.044-0.42-0.061-0.56-0.061-0.56
			c-0.059-0.42-0.082-0.56-0.082-0.56c-0.455-2.706-1.506-5.077-2.776-7.159c-0.319-0.505-0.483-0.754-0.483-0.754
			c-0.338-0.493-0.511-0.737-0.511-0.737c-0.355-0.481-0.537-0.719-0.537-0.719c-0.91-1.167-1.737-2.033-2.376-2.661
			c-0.426-0.406-0.642-0.604-0.642-0.604C520.796,195.903,520.575,195.714,520.128,195.346z"/>
	</g>
</g>
<g id="AG-OUTLINE">
	<g id="POLYLINE_310_">
		
			<path fill="none" stroke="#FB8604" stroke-width="3.5" stroke-linecap="round" stroke-linejoin="round" stroke-miterlimit="10" d="
			M510.13,161.577c1.297-3.633,1.53-7.443,1.32-10.935c-0.252-3.626-0.967-7.016-2.319-10.056c-0.241-0.508-0.323-0.673-0.323-0.673
			c-0.254-0.479-0.341-0.634-0.341-0.634c-0.267-0.45-0.359-0.594-0.359-0.594c-0.282-0.42-0.378-0.555-0.378-0.555
			c-0.296-0.39-0.398-0.516-0.398-0.516c-0.419-0.476-0.527-0.589-0.527-0.589c-0.503-0.477-0.56-0.527-0.56-0.527
			c-0.474-0.377-0.535-0.421-0.535-0.421c-0.5-0.332-0.565-0.371-0.565-0.371c-0.461-0.254-0.528-0.287-0.528-0.287
			c-0.483-0.219-0.553-0.247-0.553-0.247c-0.505-0.184-0.579-0.207-0.579-0.207c-0.452-0.129-0.529-0.148-0.529-0.148
			c-0.391-0.087-0.55-0.118-0.55-0.118c-0.489-0.076-0.655-0.097-0.655-0.097c-0.451-0.042-0.564-0.049-0.564-0.049
			c-0.461-0.02-0.578-0.022-0.578-0.022c-0.355-0.001-0.595,0.004-0.595,0.004c-0.487,0.021-0.735,0.037-0.735,0.037
			c-2.916,0.255-5.093,0.901-7.682,1.831c-2.948,1.097-6.041,2.665-8.262,4.356c-0.503,0.392-0.745,0.59-0.745,0.59
			c-0.467,0.398-0.693,0.6-0.693,0.6c-0.438,0.406-0.65,0.612-0.65,0.612c-1.282,1.258-2.322,2.595-3.083,3.558
			c-3.223-0.514-7.202-1.022-10.253-0.792c-0.345,0.032-0.512,0.051-0.512,0.051c-0.477,0.068-0.628,0.095-0.628,0.095
			c-0.495,0.109-0.561,0.126-0.561,0.126c-0.488,0.16-0.544,0.182-0.544,0.182c-0.5,0.263-0.52,0.276-0.52,0.276
			c-0.494,0.439-0.521,0.47-0.521,0.47c-0.406,0.49-0.456,0.548-0.456,0.548c-0.5,0.436-0.517,0.446-0.517,0.446
			c-0.487,0.18-0.511,0.185-0.511,0.185c-0.455,0.051-0.514,0.054-0.514,0.054c-0.505-0.009-0.641-0.019-0.641-0.019
			c-2.619-0.277-5.733-1.243-8.169-1.52c-0.602-0.075-1.001-0.103-1.197-0.117c-0.39-0.02-0.567-0.026-0.567-0.026
			c-0.351-0.005-0.525-0.004-0.525-0.004c-0.344,0.008-0.514,0.015-0.514,0.015c-0.504,0.032-0.669,0.046-0.669,0.046
			c-0.49,0.053-0.651,0.073-0.651,0.073c-0.477,0.071-0.634,0.097-0.634,0.097c-2.1,0.36-4.021,1.123-5.879,1.673
			c-2.21,0.612-4.425,0.848-6.256,1.36c-2.72,0.73-5.102,1.688-7.529,2.836c-7.032-6.256-18.621-10.712-27.581-8.915
			c-0.422,0.096-0.561,0.131-0.561,0.131c-0.413,0.11-0.55,0.149-0.55,0.149c-0.405,0.123-0.539,0.167-0.539,0.167
			c-0.397,0.137-0.527,0.185-0.527,0.185c-0.388,0.151-0.516,0.203-0.516,0.203c-0.504,0.221-0.628,0.28-0.628,0.28
			c-0.489,0.244-0.609,0.308-0.609,0.308c-0.474,0.267-0.59,0.337-0.59,0.337c-0.458,0.291-0.571,0.366-0.571,0.366
			c-0.442,0.314-0.551,0.395-0.551,0.395c-0.426,0.337-0.53,0.425-0.53,0.425c-0.51,0.454-0.609,0.548-0.609,0.548
			c-0.484,0.489-0.578,0.591-0.578,0.591c-0.368,0.418-0.458,0.525-0.458,0.525c-0.351,0.442-0.436,0.555-0.436,0.555
			c-0.333,0.466-0.413,0.585-0.413,0.585c-0.314,0.49-0.39,0.615-0.39,0.615c-0.223,0.384-0.296,0.514-0.296,0.514
			c-0.212,0.398-0.28,0.533-0.28,0.533c-0.2,0.413-0.265,0.553-0.265,0.553c-0.532,1.177-0.837,2.142-1.088,3.059
			c-1.032,4.05-1.104,7.725-0.955,11.791c0.254,5.368,1.135,10.784,2.403,16.003c1.147,4.617,2.701,9.567,4.853,13.734
			c1.691,3.309,3.904,6.079,6.192,8.441l2.862,2.91c-1.276,1.993-3.602,5.182-4.6,7.028c-0.262,0.487-0.385,0.728-0.385,0.728
			c-0.207,0.429-0.293,0.618-0.293,0.618c-0.161,0.375-0.236,0.56-0.236,0.56c-0.14,0.368-0.205,0.55-0.205,0.55
			c-0.121,0.362-0.176,0.541-0.176,0.541c-0.102,0.356-0.149,0.533-0.149,0.533c-0.086,0.351-0.124,0.525-0.124,0.525
			c-0.07,0.347-0.101,0.519-0.101,0.519c-0.056,0.343-0.08,0.513-0.08,0.513c-0.061,0.508-0.078,0.677-0.078,0.677
			c-0.168,1.974-0.024,3.664,0.013,5.503c0.045,2.173-0.152,4.255-0.588,5.999c-0.104,0.4-0.159,0.6-0.159,0.6
			c-0.119,0.399-0.183,0.598-0.183,0.598c-0.136,0.398-0.208,0.596-0.208,0.596c-0.153,0.396-0.234,0.593-0.234,0.593
			c-0.171,0.393-0.261,0.589-0.261,0.589c-0.19,0.39-0.29,0.584-0.29,0.584c-0.21,0.386-0.32,0.578-0.32,0.578
			c-0.231,0.382-0.351,0.571-0.351,0.571c-0.252,0.377-0.384,0.564-0.384,0.564c-0.275,0.371-0.418,0.555-0.418,0.555
			c-0.298,0.365-0.453,0.546-0.453,0.546c-0.322,0.358-0.489,0.535-0.489,0.535c-0.369,0.372-0.572,0.567-0.572,0.567
			c-0.42,0.385-0.637,0.575-0.637,0.575c-2.962,2.552-7.095,4.724-9.738,6.791c-0.366,0.297-0.541,0.445-0.541,0.445
			c-0.483,0.441-0.558,0.514-0.558,0.514c-0.409,0.438-0.47,0.51-0.47,0.51c-0.372,0.508-0.394,0.544-0.394,0.544
			c-0.255,0.506-0.269,0.542-0.269,0.542c-0.129,0.499-0.135,0.542-0.135,0.542c-0.024,0.471-0.022,0.514-0.022,0.514
			c0.048,0.474,0.062,0.56,0.062,0.56c0.117,0.606,0.247,1.042,0.338,1.411c0.104,0.454,0.122,0.546,0.122,0.546
			c0.071,0.465,0.076,0.511,0.076,0.511c0.022,0.475,0.021,0.523,0.021,0.523c-0.044,0.487-0.052,0.537-0.052,0.537
			c-0.127,0.501-0.145,0.551-0.145,0.551c-0.204,0.47-0.228,0.515-0.228,0.515c-0.299,0.497-0.362,0.589-0.362,0.589
			c-0.348,0.462-0.425,0.556-0.425,0.556c-0.413,0.471-0.502,0.566-0.502,0.566c-0.372,0.383-0.569,0.575-0.569,0.575
			c-2.399,2.281-5.528,4.393-7.781,6.475c-0.396,0.376-0.584,0.562-0.584,0.562c-0.438,0.459-0.519,0.55-0.519,0.55
			c-0.376,0.449-0.445,0.538-0.445,0.538c-0.334,0.48-0.36,0.523-0.36,0.523c-0.266,0.507-0.283,0.549-0.283,0.549
			c-0.155,0.506-0.16,0.53-0.16,0.53c-0.039,0.497-0.039,0.52-0.039,0.52c0.066,0.505,0.076,0.55,0.076,0.55
			c0.155,0.494,0.172,0.538,0.172,0.538c0.299,0.702,0.582,1.177,0.801,1.606c0.224,0.461,0.266,0.554,0.266,0.554
			c0.185,0.477,0.201,0.525,0.201,0.525c0.129,0.496,0.138,0.547,0.138,0.547c0.05,0.467,0.052,0.521,0.052,0.521
			c-0.027,0.484-0.033,0.533-0.033,0.533c-0.109,0.501-0.124,0.553-0.124,0.553c-0.165,0.47-0.186,0.524-0.186,0.524
			c-0.223,0.487-0.279,0.598-0.279,0.598c-0.247,0.448-0.315,0.562-0.315,0.562c-0.421,0.678-0.607,0.922-0.781,1.17
			c-1.637,2.196-3.591,4.25-5.232,6.153c-0.924,1.065-2.149,2.607-2.799,3.659c-0.307,0.508-0.379,0.634-0.379,0.634
			c-0.267,0.5-0.328,0.624-0.328,0.624c-0.222,0.492-0.271,0.614-0.271,0.614c-0.172,0.482-0.191,0.542-0.191,0.542
			c-0.128,0.489-0.146,0.574-0.146,0.574c-0.082,0.505-0.091,0.588-0.091,0.588c-0.035,0.495-0.037,0.577-0.037,0.577
			c0.005,0.486,0.009,0.567,0.009,0.567c0.029,0.399,0.045,0.558,0.045,0.558c0.082,0.739,0.363,2.098,0.457,2.634
			c0.073,0.459,0.094,0.613,0.094,0.613c0.05,0.461,0.056,0.537,0.056,0.537c0.021,0.463,0.022,0.54,0.022,0.54
			c-0.015,0.466-0.02,0.544-0.02,0.544c-0.058,0.471-0.072,0.55-0.072,0.55c-0.109,0.477-0.132,0.557-0.132,0.557
			c-0.168,0.484-0.201,0.566-0.201,0.566c-0.234,0.493-0.279,0.576-0.279,0.576c-0.288,0.473-0.338,0.548-0.338,0.548
			c-0.331,0.452-0.39,0.528-0.39,0.528c-0.318,0.382-0.454,0.536-0.454,0.536c-0.438,0.465-0.593,0.622-0.593,0.622
			c-2.638,2.509-4.838,3.878-7.576,5.716c-3.797,2.486-9.68,5.955-13.031,8.796c-0.488,0.432-0.642,0.574-0.642,0.574
			c-0.433,0.421-0.568,0.56-0.568,0.56c-0.431,0.478-0.487,0.545-0.487,0.545c-0.356,0.464-0.401,0.529-0.401,0.529
			c-0.275,0.449-0.308,0.512-0.308,0.512c-0.209,0.494-0.228,0.555-0.228,0.555c-0.095,0.499-0.097,0.523-0.097,0.523
			c0.013,0.492,0.019,0.538,0.019,0.538c0.111,0.494,0.125,0.538,0.125,0.538c0.182,0.475,0.221,0.559,0.221,0.559
			c0.205,0.416,0.546,1.062,0.546,1.062c0.227,0.472,0.244,0.511,0.244,0.511c0.17,0.504,0.179,0.542,0.179,0.542
			c0.045,0.5,0.043,0.519,0.043,0.519c-0.121,0.501-0.13,0.52-0.13,0.52c-0.328,0.509-0.365,0.553-0.365,0.553
			c-0.497,0.48-0.55,0.524-0.55,0.524c-0.406,0.309-0.533,0.397-0.533,0.397c-0.408,0.267-0.553,0.356-0.553,0.356
			c-5.865,3.307-13.907,5.244-19.63,8.555c-0.485,0.299-0.638,0.399-0.638,0.399c-0.435,0.3-0.571,0.4-0.571,0.4
			c-0.499,0.401-0.555,0.452-0.555,0.452c-0.499,0.503-0.542,0.554-0.542,0.554c-0.34,0.48-0.368,0.528-0.368,0.528
			c-0.225,0.48-0.242,0.529-0.242,0.529c-0.129,0.48-0.138,0.528-0.138,0.528c-0.055,0.479-0.057,0.527-0.057,0.527
			c-0.001,0.477,0.003,0.572,0.003,0.572c0.026,0.379,0.113,1.315,0.113,1.315c0.022,0.461,0.023,0.552,0.023,0.552
			c-0.029,0.498-0.035,0.543-0.035,0.543c-0.108,0.489-0.123,0.533-0.123,0.533c-0.217,0.483-0.243,0.528-0.243,0.528
			c-0.35,0.485-0.387,0.528-0.387,0.528c-0.472,0.475-0.52,0.518-0.52,0.518c-0.416,0.341-0.528,0.426-0.528,0.426
			c-0.48,0.338-0.607,0.422-0.607,0.422c-2.831,1.809-7.445,3.531-10.48,4.896c-3.34,1.447-7.407,3.415-10.151,5.466
			c-6.866,5.031-9.886,12.546-14.01,19.471c-2.9,5.107-7.523,9.892-11.375,14.241c-0.849,0.976-1.907,2.333-2.337,2.974
			c-0.312,0.469-0.459,0.7-0.459,0.7c-0.272,0.457-0.336,0.57-0.336,0.57c-0.236,0.447-0.29,0.558-0.29,0.558
			c-0.197,0.437-0.242,0.545-0.242,0.545c-0.156,0.427-0.19,0.533-0.19,0.533c-0.124,0.468-0.135,0.52-0.135,0.52
			c-0.076,0.49-0.082,0.553-0.082,0.553c-0.02,0.505-0.019,0.568-0.019,0.568c0.033,0.496,0.04,0.558,0.04,0.558
			c0.065,0.43,0.088,0.552,0.088,0.552c0.111,0.489,0.142,0.612,0.142,0.612c0.256,0.895,0.642,2.103,0.754,2.538
			c0.102,0.408,0.134,0.546,0.134,0.546c0.086,0.422,0.111,0.565,0.111,0.565c0.064,0.438,0.081,0.587,0.081,0.587
			c0.037,0.457,0.041,0.534,0.041,0.534c0.009,0.475,0.007,0.555,0.007,0.555c-0.024,0.494-0.035,0.622-0.035,0.622
			c-0.044,0.39-0.063,0.522-0.063,0.522c-0.066,0.403-0.092,0.539-0.092,0.539c-0.087,0.415-0.119,0.555-0.119,0.555
			c-1.28,5.075-4.241,9.69-5.619,14.618c-0.104,0.409-0.135,0.543-0.135,0.543c-0.084,0.396-0.109,0.526-0.109,0.526
			c-0.081,0.508-0.097,0.632-0.097,0.632c-0.043,0.484-0.049,0.602-0.049,0.602c-0.002,0.471,0.002,0.55,0.002,0.55
			c0.041,0.459,0.051,0.534,0.051,0.534c0.096,0.507,0.113,0.578,0.113,0.578c0.143,0.482,0.166,0.549,0.166,0.549
			c0.183,0.462,0.212,0.526,0.212,0.526c0.218,0.447,0.286,0.573,0.286,0.573c0.643,1.136,1.53,2.329,1.98,3.073
			c0.258,0.427,0.342,0.574,0.342,0.574c0.248,0.453,0.328,0.608,0.328,0.608c0.233,0.482,0.307,0.649,0.307,0.649
			c0.144,0.341,0.213,0.517,0.213,0.517c0.132,0.36,0.194,0.545,0.194,0.545c0.126,0.407,0.166,0.546,0.166,0.546
			c1.428,5.513,0.646,11.739,1.574,17.231c0.078,0.389,0.105,0.515,0.105,0.515c0.12,0.485,0.152,0.601,0.152,0.601
			c0.139,0.444,0.177,0.549,0.177,0.549c0.204,0.493,0.226,0.539,0.226,0.539c0.269,0.481,0.295,0.521,0.295,0.521
			c0.393,0.51,0.423,0.543,0.423,0.543c0.498,0.476,0.563,0.529,0.563,0.529c0.68,0.522,0.778,0.561,1.331,0.945
			c0.51,0.386,0.571,0.437,0.571,0.437c0.487,0.484,0.513,0.516,0.513,0.516c0.332,0.472,0.363,0.526,0.363,0.526
			c0.229,0.457,0.256,0.517,0.256,0.517c0.172,0.446,0.195,0.512,0.195,0.512c0.129,0.414,0.169,0.556,0.169,0.556
			c0.112,0.443,0.148,0.595,0.148,0.595c0.438,2.023,0.66,4.528,1.113,6.39c0.085,0.344,0.13,0.515,0.13,0.515
			c0.145,0.503,0.197,0.668,0.197,0.668c0.168,0.487,0.228,0.647,0.228,0.647c0.19,0.47,0.257,0.624,0.257,0.624
			c0.209,0.455,0.281,0.604,0.281,0.604c0.743,1.498,1.602,2.791,2.301,4.136c0.221,0.439,0.293,0.587,0.293,0.587
			c0.206,0.451,0.272,0.603,0.272,0.603c0.187,0.465,0.246,0.623,0.246,0.623c0.165,0.483,0.216,0.647,0.216,0.647
			c0.139,0.503,0.18,0.675,0.18,0.675c0.075,0.349,0.109,0.527,0.109,0.527c0.07,0.437,0.087,0.567,0.087,0.567
			c0.044,0.397,0.057,0.531,0.057,0.531c0.163,2.356-0.067,4.08-0.331,6.242c-0.538,3.964-1.508,9.266-1.278,13.166
			c0.252,5.131,2.336,9.477,4.2,14.054c0.861,2.087,1.821,4.705,2.308,6.824c1.381,5.661,1.336,12.838,1.608,18.652
			c0.132,3.2,0.604,6.852,1.364,9.619c1.179,4.276,2.667,7.781,4.636,11.625c-3.983,5.627-8.352,11.604-12.833,16.822
			c-1.82,2.137-4.549,5.055-6.471,6.725c-2.277,2.012-4.578,3.584-6.73,4.787c-2.019,1.126-4.188,2.076-6.384,2.799
			c-1.932,0.651-4.584,1.171-6.294,1.913c-0.485,0.202-0.722,0.306-0.722,0.306c-0.465,0.215-0.693,0.326-0.693,0.326
			c-0.446,0.228-0.664,0.345-0.664,0.345c-0.427,0.241-0.635,0.365-0.635,0.365c-0.407,0.254-0.606,0.384-0.606,0.384
			c-0.388,0.267-0.577,0.404-0.577,0.404c-0.368,0.28-0.548,0.424-0.548,0.424c-0.349,0.293-0.519,0.443-0.519,0.443
			c-0.49,0.463-0.646,0.621-0.646,0.621c-0.451,0.489-0.523,0.572-0.523,0.572c-0.349,0.425-0.417,0.511-0.417,0.511
			c-0.325,0.441-0.388,0.531-0.388,0.531c-0.301,0.457-0.359,0.55-0.359,0.55c-0.277,0.474-0.33,0.57-0.33,0.57
			c-0.252,0.49-0.348,0.69-0.348,0.69c-0.181,0.406-0.266,0.612-0.266,0.612c-0.16,0.416-0.197,0.519-0.197,0.519
			c-0.165,0.501-0.194,0.599-0.194,0.599c-0.125,0.477-0.146,0.57-0.146,0.57c-0.085,0.452-0.097,0.54-0.097,0.54
			c-0.044,0.428-0.049,0.511-0.049,0.511c-0.001,0.481,0.001,0.52,0.001,0.52c0.058,0.485,0.065,0.521,0.065,0.521
			c0.13,0.481,0.142,0.514,0.142,0.514c0.235,0.498,0.252,0.527,0.252,0.527c0.373,0.494,0.396,0.519,0.396,0.519
			c0.487,0.424,0.517,0.445,0.517,0.445c0.494,0.299,0.566,0.336,0.566,0.336c0.458,0.201,0.538,0.232,0.538,0.232
			c0.425,0.141,0.514,0.167,0.514,0.167c0.465,0.117,0.562,0.138,0.562,0.138c0.505,0.092,0.61,0.108,0.61,0.108
			c0.323,0.043,0.546,0.068,0.546,0.068c0.461,0.039,0.699,0.054,0.699,0.054c5.462-0.014,23.575,0.225,28.523-0.206
			c2.563-0.2,5.834-0.723,8.134-1.525c0.463-0.163,0.688-0.248,0.688-0.248c0.439-0.174,0.653-0.264,0.653-0.264
			c0.415-0.185,0.617-0.28,0.617-0.28c0.392-0.196,0.582-0.297,0.582-0.297c0.368-0.207,0.546-0.313,0.546-0.313
			c0.428-0.273,0.511-0.329,0.511-0.329c0.477-0.346,0.632-0.467,0.632-0.467c0.461-0.377,0.613-0.509,0.613-0.509
			c0.451-0.411,0.599-0.553,0.599-0.553c0.441-0.444,0.586-0.597,0.586-0.597c0.431-0.477,0.573-0.641,0.573-0.641
			c2.435-2.939,3.72-5.686,5-8.84c0.772-2.069,1.539-4.209,2.489-6.206c3.665-7.833,8.489-15.39,13.232-22.618
			c0.442-0.061,0.514-0.075,0.514-0.075c0.502-0.12,0.572-0.141,0.572-0.141c0.475-0.171,0.555-0.205,0.555-0.205
			c0.471-0.23,0.549-0.272,0.549-0.272c0.458-0.278,0.533-0.328,0.533-0.328c0.445-0.32,0.592-0.433,0.592-0.433
			c0.433-0.359,0.576-0.485,0.576-0.485c1.427-1.302,2.427-2.534,3.565-3.64c0.413-0.391,0.551-0.516,0.551-0.516
			c0.419-0.359,0.56-0.473,0.56-0.473c0.5-0.37,0.572-0.419,0.572-0.419c0.438-0.271,0.512-0.313,0.512-0.313
			c0.449-0.222,0.525-0.255,0.525-0.255c0.487-0.175,0.555-0.195,0.555-0.195c0.478-0.114,0.547-0.127,0.547-0.127
			c0.488-0.069,0.558-0.076,0.558-0.076c0.424-0.029,0.567-0.033,0.567-0.033c0.429-0.002,0.573,0.001,0.573,0.001
			c1.073,0.037,2.25,0.185,3.011,0.225c0.418,0.018,0.556,0.021,0.556,0.021c0.41-0.002,0.544-0.006,0.544-0.006
			c0.465-0.035,0.531-0.042,0.531-0.042c0.451-0.073,0.514-0.087,0.514-0.087c0.495-0.14,0.556-0.161,0.556-0.161
			c0.491-0.219,0.529-0.24,0.529-0.24c0.482-0.312,0.518-0.339,0.518-0.339c0.456-0.393,0.524-0.46,0.524-0.46
			c0.399-0.435,0.464-0.513,0.464-0.513c0.381-0.499,0.443-0.588,0.443-0.588c0.245-0.367,0.366-0.558,0.366-0.558
			c0.238-0.398,0.355-0.604,0.355-0.604c2.026-3.79,3.192-7.697,5.239-11.349c6.917,4.735,15.332,9.056,23.685,9.301
			c8.302,0.277,16.99-2.667,24.91-4.549c3.799-0.946,7.798-1.633,11.687-2.068c-0.566,2.586-0.862,5.292-1.046,7.932
			c-0.225,4.01-0.499,10.301-0.863,14.286c-0.037,0.63-0.049,1.15-0.054,1.421c0.001,0.495,0.005,0.654,0.005,0.654
			c0.021,0.461,0.031,0.609,0.031,0.609c0.053,0.492,0.062,0.559,0.062,0.559c0.097,0.502,0.112,0.561,0.112,0.561
			c0.173,0.506,0.184,0.53,0.184,0.53c0.33,0.509,0.346,0.526,0.346,0.526c0.505,0.327,0.526,0.334,0.526,0.334
			c0.489,0.078,0.528,0.079,0.528,0.079c0.503-0.041,0.548-0.048,0.548-0.048c0.417-0.088,0.514-0.112,0.514-0.112
			c0.501-0.148,0.605-0.183,0.605-0.183c0.424-0.149,0.642-0.231,0.642-0.231c0.221-0.085-0.669,3.901-0.669,3.901
			c-0.388,1.793-1.124,5.387-1.463,7.182c-0.929,5.177-1.976,10.953-1.828,16.161c0.046,1.029,0.138,1.784,0.239,2.407
			c0.065,0.362,0.1,0.538,0.1,0.538c0.076,0.345,0.116,0.513,0.116,0.513c0.132,0.487,0.18,0.644,0.18,0.644
			c0.154,0.454,0.208,0.599,0.208,0.599c0.206,0.487,0.237,0.554,0.237,0.554c0.266,0.509,0.301,0.569,0.301,0.569
			c0.298,0.458,0.337,0.512,0.337,0.512c0.417,0.502,0.461,0.548,0.461,0.548c0.466,0.424,0.515,0.463,0.515,0.463
			c0.464,0.32,0.518,0.354,0.518,0.354c0.458,0.261,0.579,0.323,0.579,0.323c0.507,0.239,0.64,0.296,0.64,0.296
			c0.414,0.164,0.556,0.217,0.556,0.217c0.443,0.151,0.596,0.199,0.596,0.199c0.473,0.138,0.635,0.181,0.635,0.181
			c2.174,0.564,4.411,0.73,6.256,0.805c12.502,0.086,35.133,0.024,47.578,0.025c0.486-0.032,0.641-0.047,0.641-0.047
			c0.448-0.06,0.52-0.072,0.52-0.072c0.482-0.101,0.548-0.118,0.548-0.118c0.499-0.155,0.558-0.177,0.558-0.177
			c0.495-0.225,0.546-0.253,0.546-0.253c0.468-0.312,0.511-0.346,0.511-0.346c0.483-0.5,0.499-0.522,0.499-0.522
			c0.302-0.504,0.314-0.529,0.314-0.529c0.174-0.468,0.19-0.523,0.19-0.523c0.096-0.461,0.104-0.521,0.104-0.521
			c0.04-0.503,0.042-0.569,0.042-0.569c-0.011-0.475-0.016-0.545-0.016-0.545c-0.193-1.729-0.52-3.086-0.933-4.462
			c-0.163-0.5-0.248-0.745-0.248-0.745c-0.177-0.479-0.27-0.714-0.27-0.714c-0.192-0.459-0.291-0.683-0.291-0.683
			c-0.206-0.439-0.313-0.653-0.313-0.653c-0.221-0.418-0.335-0.622-0.335-0.622c-0.236-0.398-0.357-0.592-0.357-0.592
			c-0.348-0.466-0.388-0.511-0.388-0.511c-0.488-0.476-0.537-0.518-0.537-0.518c-0.481-0.361-0.539-0.4-0.539-0.4
			c-0.491-0.299-0.556-0.335-0.556-0.335c-0.408-0.211-0.551-0.279-0.551-0.279c-0.448-0.197-0.604-0.26-0.604-0.26
			c-0.488-0.183-0.657-0.242-0.657-0.242c-4.196-1.364-7.871-1.144-12.009-1.84c-4.701-0.673-9.139-2.098-12.922-4.43
			c-0.417-0.265-0.616-0.398-0.616-0.398c-0.379-0.265-0.559-0.397-0.559-0.397c-0.503-0.396-0.581-0.462-0.581-0.462
			c-0.505-0.46-0.571-0.526-0.571-0.526c-0.429-0.493-0.442-0.513-0.442-0.513c-0.228-0.505-0.248-0.565-0.248-0.565
			c-0.121-0.472-0.136-0.546-0.136-0.546c-0.078-0.484-0.089-0.571-0.089-0.571c-0.046-0.461-0.061-0.658-0.061-0.658
			c-0.107-2.194,0.043-3.715,0.231-5.778c0.351-3.403,0.929-7.071,1.514-10.443c0.495,0.017,0.577,0.016,0.577,0.016
			c0.492-0.038,0.533-0.044,0.533-0.044c0.495-0.113,0.536-0.126,0.536-0.126c0.504-0.211,0.547-0.233,0.547-0.233
			c0.475-0.3,0.522-0.335,0.522-0.335c0.475-0.401,0.524-0.447,0.524-0.447c0.49-0.504,0.59-0.615,0.59-0.615
			c0.403-0.478,0.505-0.605,0.505-0.605c3.632-4.754,6.358-11.258,9.928-15.916c0.409-0.496,0.51-0.613,0.51-0.613
			c0.399-0.431,0.498-0.53,0.498-0.53c0.485-0.439,0.533-0.478,0.533-0.478c0.506-0.351,0.546-0.374,0.546-0.374
			c0.482-0.223,0.521-0.237,0.521-0.237c0.503-0.13,0.541-0.136,0.541-0.136c0.449-0.046,0.523-0.049,0.523-0.049
			c0.435,0,0.999,0.019,0.999,0.019c0.481-0.005,0.515-0.008,0.515-0.008c0.505-0.078,0.538-0.087,0.538-0.087
			c0.497-0.203,0.529-0.222,0.529-0.222c0.484-0.372,0.522-0.408,0.522-0.408c0.414-0.474,0.452-0.524,0.452-0.524
			c0.3-0.43,0.375-0.547,0.375-0.547c0.299-0.505,0.374-0.639,0.374-0.639c3.076-6.097,4.468-13.292,7.519-19.31
			c0.253-0.469,0.337-0.62,0.337-0.62c0.255-0.432,0.341-0.57,0.341-0.57c0.258-0.392,0.344-0.516,0.344-0.516
			c0.388-0.509,0.437-0.568,0.437-0.568c0.442-0.488,0.54-0.587,0.54-0.587c0.494-0.447,0.593-0.528,0.593-0.528
			c0.494-0.371,0.593-0.439,0.593-0.439c0.393-0.256,0.589-0.376,0.589-0.376l1.15-0.675c0.462-0.292,0.553-0.354,0.553-0.354
			c0.49-0.366,0.534-0.402,0.534-0.402c0.51-0.477,0.551-0.52,0.551-0.52c0.402-0.482,0.441-0.535,0.441-0.535
			c0.291-0.433,0.362-0.549,0.362-0.549c0.277-0.496,0.344-0.627,0.344-0.627c0.199-0.412,0.264-0.555,0.264-0.555
			c1.656-3.846,2.744-9.79,3.788-13.805c0.999-4.052,2.439-8.95,4.252-12.48c2.968-5.951,7.751-10.815,11.956-15.745
			c2.152-2.507,4.606-5.839,6.031-8.538c2.222-4.152,3.54-7.898,4.952-12.24l3.334-10.968c0.669-2.142,1.699-4.92,2.666-6.707
			c1.419-2.712,3.489-5.612,4.519-8.307c1.188-3.049,1.754-5.683,2.399-8.777c5.373-4.497,10.854-10.61,13.158-17.074
			c2.497-6.892,1.797-15.127,2.036-22.244c0.109-6.311,1.293-15.496,1.953-21.853c0.143-1.495,0.568-7.366,0.814-8.697
			c0.081-0.465,0.111-0.615,0.111-0.615c0.094-0.432,0.128-0.569,0.128-0.569c0.128-0.458,0.148-0.52,0.148-0.52
			c0.171-0.467,0.194-0.521,0.194-0.521c0.254-0.493,0.268-0.515,0.268-0.515c0.419-0.502,0.437-0.517,0.437-0.517
			c0.5-0.293,0.525-0.302,0.525-0.302c0.474-0.116,0.529-0.125,0.529-0.125c0.451-0.044,1.027-0.076,1.027-0.076
			c0.509-0.049,0.564-0.058,0.564-0.058c0.5-0.13,0.525-0.139,0.525-0.139c0.501-0.314,0.521-0.333,0.521-0.333
			c0.36-0.486,0.376-0.515,0.376-0.515c0.198-0.45,0.224-0.52,0.224-0.52c0.135-0.457,0.155-0.538,0.155-0.538
			c0.089-0.428,0.105-0.517,0.105-0.517c0.07-0.468,0.093-0.664,0.093-0.664c0.365-3.929-0.32-9.594-0.493-13.436
			c-0.166-3.723-0.319-10.142-0.739-13.771c0.749-3.867,1.346-7.859,1.514-11.794c0.237-4.517-0.163-9.619-0.502-14.145
			c0.31-0.063,0.618-0.129,0.618-0.129c0.453-0.108,0.602-0.146,0.602-0.146c0.438-0.125,0.581-0.17,0.581-0.17
			c0.486-0.172,0.553-0.199,0.553-0.199c0.458-0.202,0.521-0.233,0.521-0.233c0.482-0.273,0.54-0.31,0.54-0.31
			c0.483-0.369,0.533-0.414,0.533-0.414c0.44-0.481,0.467-0.518,0.467-0.518c0.326-0.507,0.348-0.548,0.348-0.548
			c0.209-0.434,0.247-0.524,0.247-0.524c0.174-0.472,0.206-0.57,0.206-0.57c0.143-0.507,0.169-0.611,0.169-0.611
			c0.072-0.32,0.116-0.538,0.116-0.538c0.079-0.447,0.114-0.676,0.114-0.676c0.359-2.642,0.34-5.358,0.748-7.652
			c0.095-0.508,0.147-0.759,0.147-0.759c0.116-0.496,0.148-0.619,0.148-0.619c0.137-0.484,0.174-0.604,0.174-0.604
			c0.16-0.47,0.203-0.586,0.203-0.586c0.185-0.454,0.235-0.566,0.235-0.566c0.216-0.442,0.274-0.551,0.274-0.551
			c0.247-0.428,0.312-0.533,0.312-0.533c0.274-0.41,0.345-0.511,0.345-0.511c0.375-0.492,0.453-0.588,0.453-0.588
			c0.406-0.471,0.575-0.655,0.575-0.655c0.348-0.362,0.526-0.539,0.526-0.539c0.953-0.951,3.178-2.75,3.87-3.343
			c0.576-0.498,0.949-0.849,1.128-1.018c0.357-0.351,0.531-0.529,0.531-0.529c0.421-0.454,0.502-0.547,0.502-0.547
			c0.392-0.472,0.467-0.569,0.467-0.569c0.359-0.493,0.427-0.594,0.427-0.594c0.259-0.412,0.321-0.517,0.321-0.517
			c0.232-0.429,0.286-0.539,0.286-0.539c0.201-0.448,0.247-0.563,0.247-0.563c0.168-0.469,0.206-0.589,0.206-0.589
			c0.11-0.396,0.142-0.531,0.142-0.531c0.086-0.411,0.111-0.55,0.111-0.55c0.063-0.424,0.081-0.568,0.081-0.568
			c0.043-0.436,0.054-0.584,0.054-0.584c0.023-0.447,0.028-0.598,0.028-0.598c0.026-2.239-0.24-3.772-0.58-5.758l-0.977-5.004
			c-0.11-0.587-0.282-1.712-0.324-2.181c-0.043-0.494-0.051-0.614-0.051-0.614c-0.019-0.464-0.02-0.576-0.02-0.576
			c0.009-0.431,0.015-0.534,0.015-0.534c0.053-0.49,0.06-0.536,0.06-0.536c0.112-0.48,0.125-0.521,0.125-0.521
			c0.205-0.491,0.223-0.526,0.223-0.526c0.311-0.481,0.334-0.511,0.334-0.511c0.671-0.759,0.68-0.712,1.153-1.165
			c0.447-0.46,0.493-0.514,0.493-0.514c0.351-0.496,0.369-0.528,0.369-0.528c0.214-0.486,0.224-0.517,0.224-0.517
			c0.112-0.46,0.124-0.529,0.124-0.529c0.05-0.438,0.055-0.514,0.055-0.514c0.01-0.476,0.009-0.558,0.009-0.558
			c-0.02-0.424-0.033-0.599-0.033-0.599c-0.036-0.359-0.059-0.543-0.059-0.543c-0.414-2.896-1.565-6.214-2.309-8.934
			c-0.778-2.705-1.413-6.513-2.301-9.089c-0.254-0.736-0.489-1.285-0.649-1.64c-0.167-0.355-0.254-0.532-0.254-0.532
			c-0.182-0.35-0.276-0.525-0.276-0.525c-0.198-0.346-0.301-0.517-0.301-0.517c-0.215-0.341-0.327-0.51-0.327-0.51
			c-0.355-0.503-0.43-0.604-0.43-0.604c-0.391-0.497-0.555-0.694-0.555-0.694c-0.341-0.392-0.518-0.586-0.518-0.586
			c-3.478-3.651-7.991-6.585-11.04-10.147c-0.409-0.478-0.608-0.721-0.608-0.721c-4.109-5.116-5.566-11.547-7.939-17.412
			c-0.905-2.327-2.252-5.152-3.471-7.062C514.965,166.702,512.847,164.249,510.13,161.577z"/>
	</g>
</g>
</svg>
