<?xml version="1.0" encoding="utf-8"?>
<!-- Generator: Adobe Illustrator 24.2.1, SVG Export Plug-In . SVG Version: 6.00 Build 0)  -->
<!DOCTYPE svg PUBLIC "-//W3C//DTD SVG 1.1//EN" "http://www.w3.org/Graphics/SVG/1.1/DTD/svg11.dtd" [
	<!ENTITY ns_flows "http://ns.adobe.com/Flows/1.0/">
	<!ENTITY ns_extend "http://ns.adobe.com/Extensibility/1.0/">
	<!ENTITY ns_ai "http://ns.adobe.com/AdobeIllustrator/10.0/">
	<!ENTITY ns_graphs "http://ns.adobe.com/Graphs/1.0/">
	<!ENTITY ns_vars "http://ns.adobe.com/Variables/1.0/">
	<!ENTITY ns_imrep "http://ns.adobe.com/ImageReplacement/1.0/">
	<!ENTITY ns_sfw "http://ns.adobe.com/SaveForWeb/1.0/">
	<!ENTITY ns_custom "http://ns.adobe.com/GenericCustomNamespace/1.0/">
	<!ENTITY ns_adobe_xpath "http://ns.adobe.com/XPath/1.0/">
]>
<svg version="1.1" xmlns:x="&ns_extend;" xmlns:i="&ns_ai;" xmlns:graph="&ns_graphs;"
	 xmlns="http://www.w3.org/2000/svg" xmlns:xlink="http://www.w3.org/1999/xlink" xmlns:a="http://ns.adobe.com/AdobeSVGViewerExtensions/3.0/"
	 x="0px" y="0px" width="750px" height="750px" viewBox="0 0 750 750" enable-background="new 0 0 750 750" xml:space="preserve">
<metadata>
	<sfw  xmlns="&ns_sfw;">
		<slices></slices>
		<sliceSourceBounds  bottomLeftOrigin="true" height="8750" width="7929.938" x="-3957.938" y="-526"></sliceSourceBounds>
	</sfw>
</metadata>
<g id="FILL-BACKGROUND">
	<rect fill="#FFFFFF" width="750" height="750"/>
</g>
<g id="N-TEXT">
</g>
<g id="N-DIMENSIONS">
</g>
<g id="AG-DIAGRAM">
	<g id="POLYLINE_593_">
		<g>
			<g>
				
					<line fill="none" stroke="#FB8604" stroke-width="3.25" stroke-linecap="round" stroke-linejoin="round" x1="81.603" y1="580.87" x2="83.603" y2="580.87"/>
				
					<line fill="none" stroke="#FB8604" stroke-width="3.25" stroke-linecap="round" stroke-linejoin="round" stroke-dasharray="4.016,7.028" x1="90.631" y1="580.87" x2="617.23" y2="580.87"/>
				
					<line fill="none" stroke="#FB8604" stroke-width="3.25" stroke-linecap="round" stroke-linejoin="round" x1="620.744" y1="580.87" x2="622.744" y2="580.87"/>
			</g>
		</g>
	</g>
</g>
<g id="AG-DETAIL-DIAGRAM">
</g>
<g id="AG-DETAILS">
	<g id="POLYLINE_678_">
		<path fill="none" stroke="#FB8604" stroke-width="2" stroke-linecap="round" stroke-linejoin="round" stroke-miterlimit="10" d="
			M502.31,403.872c5.094-1.101,10.281-2.477,15.129-4.396c4.768-1.872,9.416-4.246,13.835-6.829
			c7.759-4.574,15.173-9.903,21.659-16.168"/>
	</g>
	<g id="POLYLINE_677_">
		<path fill="none" stroke="#FB8604" stroke-width="2" stroke-linecap="round" stroke-linejoin="round" stroke-miterlimit="10" d="
			M308.503,523.482l5.074-3.209c8.164-5.288,15.551-12.007,22.601-18.679c8.63-8.339,17.056-17.271,24.094-27.007"/>
	</g>
	<g id="POLYLINE_650_">
		<path fill="none" stroke="#FB8604" stroke-width="2" stroke-linecap="round" stroke-linejoin="round" stroke-miterlimit="10" d="
			M579.07,331.697c2.518-2.884,4.707-6.1,6.343-9.566c2.506-5.346,3.877-11.272,3.839-17.182c-0.04-3.343-0.585-6.723-1.892-9.814
			c-1.046-2.47-2.58-4.728-4.18-6.869c-2.69-3.566-6.172-7.605-7.822-11.781c-1.144-2.84-1.681-5.904-1.843-8.952
			c-0.208-4.041,0.214-8.126,0.919-12.103"/>
	</g>
</g>
<g id="AG-ANIMALS">
	<g id="POLYLINE_883_">
		
			<path fill="none" stroke="#FB8604" stroke-width="2.75" stroke-linecap="round" stroke-linejoin="round" stroke-miterlimit="10" d="
			M377.904,489.495c-6.611,9.428-14.109,19.342-21.495,28.173c-10.94,12.913-23.333,26.086-35.451,37.881
			c-4.36,4.223-9.123,8.133-14.196,11.471c-5.332,3.506-11.109,6.453-17.135,8.562c-5.184,1.797-10.644,2.984-16.067,3.783
			c-3.548,0.52-7.279,0.893-10.857,1.128c-7.876,0.714-59.224,0.255-68.168,0.376c0,0-94.839,0-94.839,0
			c-0.19-0.001-0.378-0.004-0.378-0.004c-0.185-0.005-0.368-0.011-0.368-0.011c-0.18-0.008-0.358-0.018-0.358-0.018
			c-0.175-0.012-0.348-0.026-0.348-0.026c-0.17-0.016-0.338-0.033-0.338-0.033c-0.165-0.019-0.328-0.041-0.328-0.041
			c-0.16-0.023-0.318-0.048-0.318-0.048c-0.155-0.027-0.308-0.055-0.308-0.055c-0.15-0.03-0.298-0.063-0.298-0.063
			c-0.145-0.034-0.288-0.07-0.288-0.07c-0.141-0.038-0.279-0.077-0.279-0.077c-0.202-0.063-0.269-0.085-0.269-0.085
			c-0.195-0.068-0.259-0.092-0.259-0.092c-0.187-0.074-0.249-0.099-0.249-0.099c-0.18-0.079-0.239-0.107-0.239-0.107
			c-0.229-0.114-0.284-0.144-0.284-0.144c-0.216-0.123-0.269-0.155-0.269-0.155c-0.204-0.133-0.253-0.167-0.253-0.167
			c-0.192-0.142-0.238-0.178-0.238-0.178c-0.222-0.19-0.265-0.229-0.265-0.229c-0.204-0.204-0.243-0.246-0.243-0.246
			c-0.185-0.218-0.22-0.262-0.22-0.262c-0.166-0.231-0.198-0.279-0.198-0.279c-0.119-0.195-0.148-0.245-0.148-0.245
			c-0.107-0.204-0.132-0.257-0.132-0.257c-0.095-0.214-0.117-0.268-0.117-0.268c-0.082-0.223-0.101-0.28-0.101-0.28
			c-0.07-0.232-0.086-0.291-0.086-0.291c-0.056-0.234-0.069-0.292-0.069-0.292c-0.042-0.231-0.051-0.289-0.051-0.289
			c-0.029-0.228-0.034-0.285-0.034-0.285c-0.015-0.225-0.017-0.281-0.017-0.281c-0.001-0.222,0.001-0.278,0.001-0.278
			c0.013-0.22,0.018-0.274,0.018-0.274c0.027-0.217,0.036-0.27,0.036-0.27c0.041-0.214,0.053-0.267,0.053-0.267
			c0.055-0.211,0.07-0.263,0.07-0.263c0.069-0.208,0.088-0.26,0.088-0.26c0.083-0.205,0.105-0.256,0.105-0.256
			c0.097-0.202,0.122-0.252,0.122-0.252c0.11-0.199,0.14-0.249,0.14-0.249c0.124-0.196,0.157-0.245,0.157-0.245
			c0.138-0.194,0.175-0.242,0.175-0.242c0.152-0.191,0.192-0.238,0.192-0.238c0.209-0.234,0.253-0.281,0.253-0.281
			c0.334-0.336,0.381-0.368,0.529-0.501c0.213-0.178,0.324-0.266,0.324-0.266c0.623-0.481,1.173-0.81,1.697-1.093
			c1.73-0.853,3.31-1.204,5.093-1.638c0.913-0.209,1.997-0.424,2.918-0.595c1.954-0.37,4.428-0.725,6.404-1.002
			c6.96-1.267,117.773-10.48,127.263-11.47c3.129-0.306,6.484-0.706,9.589-1.191c6.329-0.982,12.703-2.38,18.819-4.288
			c5.936-1.839,11.77-4.269,17.256-7.187c3.783-1.992,7.549-4.223,11.046-6.683c3.575-2.52,7.011-5.362,10.005-8.555
			c2.474-2.607,4.978-6.142,7.127-9.046c3.869-5.405,7.647-11.065,10.756-16.938c3.214-6.474,4.754-13.665,5.793-20.776
			c0.728-5.293,1.157-11.297,1.859-16.62c2.654-19.841,6.44-39.949,11.909-59.21c1.992-6.968,4.349-14.277,6.81-21.093
			c1.199-3.373,2.617-7.03,4.267-10.208c4.844-9.555,11.881-17.897,19.925-24.921c5.725-5.053,12.294-9.514,18.751-13.581
			c12.033-7.562,25.017-14.235,38.2-19.549c12.018-4.775,25.265-8.985,37.63-12.78c4.89-1.423,11.647-3.374,16.621-4.567
			c2.913-0.707,6.606-1.515,9.538-2.28c7.918-2.08,15.695-4.965,22.927-8.818c1.48-0.785,3.15-1.744,4.585-2.618
			c3.436-2.128,20.522-13.07,24.051-15.418c3.53-2.157,4.895-2.742,8.267-4.51c0.742-0.389,1.622-0.937,2.126-1.339
			c0.173-0.138,0.257-0.208,0.257-0.208c0.163-0.14,0.241-0.211,0.241-0.211c0.226-0.215,0.299-0.288,0.299-0.288
			c0.207-0.222,0.273-0.297,0.273-0.297c0.189-0.23,0.248-0.308,0.248-0.308c0.115-0.158,0.171-0.239,0.171-0.239
			c0.107-0.163,0.158-0.246,0.158-0.246c0.098-0.168,0.145-0.254,0.145-0.254c0.09-0.174,0.133-0.263,0.133-0.263
			c0.082-0.18,0.121-0.272,0.121-0.272c0.074-0.187,0.109-0.282,0.109-0.282c0.067-0.194,0.098-0.292,0.098-0.292
			c0.385-1.266,0.444-2.598,0.438-3.74c-0.02-1.562-0.179-3.049-0.392-4.579c-0.631-4.848-2.241-10.081-2.285-14.948
			c-0.007-2.627,0.489-4.828,1.452-7.114c1.226-2.928,3.127-6.168,4.389-9.08c1.052-2.382,1.902-5.03,2.123-7.619
			c0.419-5.065-0.811-9.976-2.098-14.82c-1.756-6.4-4.25-13.717-4.473-20.372c-0.086-2.412,0.151-5.119,1.103-7.305
			c0.102-0.229,0.155-0.342,0.155-0.342c0.109-0.223,0.166-0.333,0.166-0.333c0.117-0.217,0.177-0.323,0.177-0.323
			c0.125-0.21,0.189-0.314,0.189-0.314c0.132-0.204,0.2-0.304,0.2-0.304c0.14-0.197,0.212-0.294,0.212-0.294
			c0.148-0.191,0.224-0.284,0.224-0.284c0.156-0.184,0.236-0.274,0.236-0.274c0.164-0.177,0.249-0.264,0.249-0.264
			c0.173-0.17,0.253-0.246,0.253-0.246c0.165-0.149,0.249-0.222,0.249-0.222c0.172-0.143,0.259-0.213,0.259-0.213
			c0.178-0.137,0.269-0.204,0.269-0.204c0.184-0.131,0.278-0.195,0.278-0.195c2.24-1.455,4.523-1.947,7.027-2.13
			c2.377-0.154,5.095,0.182,7.287,0.982c7.537,2.67,10.076,10.803,11.279,17.885c1.206,7.587,1.393,15.41,0.222,23.013"/>
	</g>
	<g id="POLYLINE_884_">
		
			<path fill="none" stroke="#FB8604" stroke-width="2.75" stroke-linecap="round" stroke-linejoin="round" stroke-miterlimit="10" d="
			M594.179,192.128c0.416-2.315,0.92-4.684,1.796-6.871c1.219-3.086,3.054-5.92,5.059-8.549c1.728-2.236,3.656-4.377,5.804-6.218
			c1.623-1.388,3.61-2.774,5.602-3.438c0.793-0.264,1.522-0.399,2.194-0.443c0.236-0.012,0.314-0.014,0.314-0.014
			c0.234-0.002,0.311-0.001,0.311-0.001c0.231,0.008,0.308,0.013,0.308,0.013c0.229,0.018,0.304,0.026,0.304,0.026
			c0.226,0.028,0.301,0.039,0.301,0.039c0.223,0.038,0.297,0.052,0.297,0.052c0.22,0.048,0.293,0.065,0.293,0.065
			c0.217,0.057,0.288,0.078,0.288,0.078c0.214,0.067,0.284,0.091,0.284,0.091c0.21,0.077,0.28,0.104,0.28,0.104
			c0.207,0.086,0.275,0.117,0.275,0.117c0.203,0.096,0.27,0.13,0.27,0.13c0.199,0.106,0.265,0.142,0.265,0.142
			c0.196,0.115,0.26,0.155,0.26,0.155c0.192,0.125,0.255,0.168,0.255,0.168c0.188,0.134,0.25,0.18,0.25,0.18
			c0.184,0.144,0.244,0.193,0.244,0.193c0.179,0.153,0.238,0.206,0.238,0.206c0.232,0.218,0.29,0.275,0.29,0.275
			c0.225,0.234,0.28,0.294,0.28,0.294c0.163,0.186,0.217,0.249,0.217,0.249c0.159,0.195,0.211,0.261,0.211,0.261
			c0.154,0.204,0.204,0.274,0.204,0.274c0.149,0.213,0.222,0.323,0.222,0.323c0.144,0.225,0.214,0.34,0.214,0.34
			c1.212,2.07,1.754,4.131,2.196,6.415c0.513,2.826,0.674,5.753,0.621,8.622c-0.09,3.988-0.594,8.022-1.805,11.833
			c-0.966,3.08-2.43,6.014-4.071,8.787"/>
	</g>
	<g id="POLYLINE_885_">
		
			<path fill="none" stroke="#FB8604" stroke-width="2.75" stroke-linecap="round" stroke-linejoin="round" stroke-miterlimit="10" d="
			M587.927,191.921c4.702-0.151,9.474,0.367,13.988,1.712c2.047,0.618,4.061,1.425,5.922,2.482c1.713,0.949,3.483,2.374,4.734,3.608
			c2.929,2.816,5.658,6.771,8.785,9.334c2.688,2.249,6.264,3.951,8.578,6.556c0.187,0.22,0.248,0.294,0.248,0.294
			c0.178,0.226,0.236,0.302,0.236,0.302c1.246,1.651,1.72,3.517,2.062,5.333c0.407,2.233,0.6,4.954,1.025,7.184
			c0.544,3.138,1.925,5.598,3.698,8.055l2.163,2.965c2.414,3.28,4.165,7.488,5.827,11.201"/>
	</g>
	<g id="POLYLINE_886_">
		
			<path fill="none" stroke="#FB8604" stroke-width="2.75" stroke-linecap="round" stroke-linejoin="round" stroke-miterlimit="10" d="
			M570.387,247.57c0.868,2.286,1.873,4.773,3.252,6.778c2.179,3.237,5.169,5.243,8.459,7.011
			c10.435,5.475,22.979,7.695,34.328,10.562c5.518,1.424,11.904,3.66,17.633,3.044c2.377-0.237,4.614-0.921,6.445-2.18
			c0.213-0.151,0.283-0.203,0.283-0.203c0.207-0.159,0.275-0.213,0.275-0.213c0.201-0.166,0.267-0.223,0.267-0.223
			c0.195-0.173,0.259-0.232,0.259-0.232c0.189-0.181,0.251-0.242,0.251-0.242c0.183-0.188,0.243-0.253,0.243-0.253
			c0.182-0.203,0.242-0.272,0.242-0.272c0.175-0.211,0.232-0.283,0.232-0.283c1.168-1.486,1.86-3.169,2.316-4.796
			c0.58-2.121,0.771-4.237,0.694-6.24"/>
	</g>
	<g id="POLYLINE_887_">
		
			<path fill="none" stroke="#FB8604" stroke-width="2.75" stroke-linecap="round" stroke-linejoin="round" stroke-miterlimit="10" d="
			M638.806,266.417c-0.199,0.042-0.265,0.054-0.265,0.054c-0.2,0.032-0.266,0.041-0.266,0.041c-0.2,0.022-0.267,0.028-0.267,0.028
			c-0.201,0.012-0.268,0.015-0.268,0.015c-0.202,0.003-0.269,0.002-0.269,0.002c-0.202-0.007-0.27-0.011-0.27-0.011
			c-0.203-0.016-0.27-0.023-0.27-0.023c-0.203-0.026-0.27-0.036-0.27-0.036c-0.203-0.035-0.27-0.048-0.27-0.048
			c-0.203-0.044-0.27-0.061-0.27-0.061c-0.203-0.053-0.27-0.073-0.27-0.073c-0.202-0.062-0.27-0.085-0.27-0.085
			c-0.202-0.071-0.269-0.097-0.269-0.097c-0.201-0.08-0.268-0.108-0.268-0.108c-0.2-0.089-0.267-0.12-0.267-0.12
			c-0.2-0.098-0.266-0.131-0.266-0.131c-1.919-1.001-3.385-2.654-4.465-4.298c-1.222-1.887-2.069-3.896-2.464-5.886
			c-0.141-0.732-0.194-1.359-0.199-1.898c0.001-0.203,0.003-0.304,0.003-0.304c0.008-0.2,0.015-0.3,0.015-0.3
			c0.016-0.197,0.026-0.295,0.026-0.295c0.024-0.193,0.038-0.289,0.038-0.289c0.032-0.19,0.05-0.283,0.05-0.283
			c0.04-0.186,0.062-0.277,0.062-0.277c0.049-0.181,0.075-0.271,0.075-0.271c0.072-0.22,0.088-0.263,0.088-0.263
			c0.083-0.214,0.101-0.256,0.101-0.256c0.095-0.207,0.115-0.248,0.115-0.248c0.106-0.2,0.129-0.24,0.129-0.24
			c0.143-0.231,0.168-0.269,0.168-0.269c0.159-0.22,0.187-0.256,0.187-0.256c0.177-0.209,0.207-0.243,0.207-0.243
			c0.198-0.201,0.237-0.237,0.237-0.237c0.199-0.174,0.24-0.207,0.24-0.207c0.214-0.163,0.258-0.194,0.258-0.194
			c0.228-0.152,0.276-0.181,0.276-0.181c0.193-0.114,0.242-0.141,0.242-0.141c0.151-0.08,0.253-0.132,0.253-0.132
			c0.21-0.1,0.318-0.147,0.318-0.147c0.22-0.091,0.332-0.135,0.332-0.135c2.059-0.74,3.995-0.793,6.08-0.645
			c2.157,0.18,4.587,0.761,6.462,1.758c0.218,0.119,0.324,0.18,0.324,0.18c0.208,0.124,0.309,0.187,0.309,0.187
			c0.198,0.129,0.294,0.194,0.294,0.194c0.187,0.133,0.277,0.201,0.277,0.201c0.175,0.138,0.239,0.19,0.239,0.19
			c0.183,0.158,0.241,0.212,0.241,0.212c0.224,0.218,0.278,0.273,0.278,0.273c0.204,0.225,0.252,0.283,0.252,0.283
			c0.183,0.233,0.227,0.292,0.227,0.292c0.124,0.179,0.164,0.239,0.164,0.239c0.113,0.183,0.148,0.244,0.148,0.244
			c0.102,0.187,0.134,0.249,0.134,0.249c0.091,0.19,0.119,0.254,0.119,0.254c0.08,0.193,0.105,0.258,0.105,0.258
			c0.069,0.197,0.091,0.263,0.091,0.263c0.059,0.2,0.077,0.267,0.077,0.267c0.049,0.202,0.064,0.27,0.064,0.27
			c0.039,0.205,0.051,0.274,0.051,0.274c0.03,0.207,0.038,0.277,0.038,0.277c0.021,0.21,0.026,0.28,0.026,0.28
			c0.012,0.212,0.014,0.283,0.014,0.283c0.003,0.214,0.003,0.285,0.003,0.285c-0.005,0.215-0.008,0.287-0.008,0.287
			c-0.08,1.517-0.553,2.911-1.103,4.151c-0.789,1.746-1.821,3.292-3.046,4.541c-0.612,0.609-1.034,0.952-1.589,1.333
			c-0.193,0.126-0.257,0.167-0.257,0.167c-0.195,0.118-0.26,0.155-0.26,0.155c-0.197,0.109-0.263,0.143-0.263,0.143
			c-0.199,0.099-0.265,0.131-0.265,0.131c-0.201,0.09-0.268,0.118-0.268,0.118c-0.202,0.08-0.27,0.105-0.27,0.105
			c-0.204,0.07-0.272,0.092-0.272,0.092C639.012,266.365,638.943,266.384,638.806,266.417z"/>
	</g>
	<g id="POLYLINE_888_">
		
			<path fill="none" stroke="#FB8604" stroke-width="2.75" stroke-linecap="round" stroke-linejoin="round" stroke-miterlimit="10" d="
			M576.941,377.046c1.109-3.069,2.315-6.374,3.924-9.208c1.493-2.748,4.219-5.968,6.138-8.464c1.296-1.696,2.569-3.507,3.633-5.357
			c0.833-1.438,1.588-3.005,2.265-4.522l3.058-7.179c0.646-1.466,1.529-3.314,2.386-4.563c0.252-0.368,0.449-0.618,0.593-0.793
			c0.201-0.233,0.269-0.308,0.269-0.308c0.204-0.211,0.273-0.278,0.273-0.278c0.214-0.195,0.288-0.257,0.288-0.257
			c0.221-0.174,0.295-0.229,0.295-0.229c0.223-0.154,0.297-0.202,0.297-0.202c0.224-0.137,0.298-0.18,0.298-0.18
			c0.572-0.317,1.008-0.498,1.526-0.744c0.206-0.102,0.273-0.137,0.273-0.137c0.199-0.108,0.264-0.146,0.264-0.146
			c0.191-0.118,0.254-0.159,0.254-0.159c0.212-0.153,0.242-0.177,0.242-0.177c0.229-0.198,0.257-0.225,0.257-0.225
			c0.213-0.228,0.238-0.259,0.238-0.259c0.167-0.222,0.186-0.25,0.186-0.25c0.128-0.206,0.146-0.237,0.146-0.237
			c0.103-0.192,0.136-0.259,0.136-0.259c0.095-0.208,0.126-0.279,0.126-0.279c0.088-0.223,0.117-0.299,0.117-0.299
			c0.794-2.382,0.891-5.035,1.212-7.48c0.234-2.052,0.617-4.495,1.295-6.344c0.995-2.925,2.979-5.855,4.555-8.479
			c2.734-4.592,4.657-9.751,5.179-15.089c0.379-3.747-0.246-8.226-0.593-11.982c-0.226-2.482-0.166-5.039,0.039-7.522l0.318-3.521"
			/>
	</g>
	<g id="POLYLINE_889_">
		
			<path fill="none" stroke="#FB8604" stroke-width="2.75" stroke-linecap="round" stroke-linejoin="round" stroke-miterlimit="10" d="
			M494.375,461.787l2.5,0.026c1.716,0.01,3.817-0.1,5.402-0.48c1.92-0.428,3.658-1.294,4.995-2.435
			c2.451-2.148,3.953-4.718,5.61-7.409c1.696-2.77,3.657-6.56,5.919-8.829c0.184-0.176,0.276-0.261,0.276-0.261
			c0.185-0.163,0.277-0.242,0.277-0.242c0.237-0.189,0.296-0.234,0.296-0.234c0.178-0.13,0.238-0.172,0.238-0.172
			c0.179-0.121,0.239-0.16,0.239-0.16c0.18-0.112,0.24-0.148,0.24-0.148c1.555-0.936,3.42-1.199,5-1.851
			c0.232-0.1,0.347-0.153,0.347-0.153c0.229-0.112,0.343-0.171,0.343-0.171c0.226-0.125,0.282-0.158,0.282-0.158
			c0.223-0.138,0.279-0.174,0.279-0.174c0.22-0.151,0.275-0.191,0.275-0.191c0.197-0.151,0.268-0.208,0.268-0.208
			c0.211-0.179,0.281-0.241,0.281-0.241c0.209-0.194,0.278-0.26,0.278-0.26c0.206-0.208,0.274-0.279,0.274-0.279
			c2.626-2.898,4.231-6.67,6.69-9.624c1.85-2.327,4.336-3.571,6.754-5.047c1.192-0.73,2.462-1.711,3.286-2.676
			c1.77-2.097,2.677-4.248,3.732-6.641c1.325-3.137,2.834-7.195,4.552-10.101c2.964-5.082,7.406-8.583,12.029-11.976"/>
	</g>
	<g id="POLYLINE_890_">
		
			<path fill="none" stroke="#FB8604" stroke-width="2.75" stroke-linecap="round" stroke-linejoin="round" stroke-miterlimit="10" d="
			M545.588,301.148c-5.827,6.685-10.505,14.575-12.65,23.23c-1.669,6.761-1.648,13.867-0.669,20.732
			c0.603,4.176,1.566,8.368,2.813,12.399c0.94,2.934,2.113,6.249,3.888,8.701c0.179,0.233,0.239,0.307,0.239,0.307
			c0.181,0.215,0.241,0.283,0.241,0.283c0.182,0.196,0.243,0.258,0.243,0.258c0.183,0.176,0.244,0.232,0.244,0.232
			c0.215,0.181,0.246,0.205,0.246,0.205c0.216,0.157,0.247,0.177,0.247,0.177c0.217,0.132,0.248,0.149,0.248,0.149
			c0.218,0.106,0.249,0.12,0.249,0.12c0.205,0.076,0.239,0.086,0.239,0.086c0.206,0.055,0.24,0.062,0.24,0.062
			c0.207,0.036,0.241,0.041,0.241,0.041c0.208,0.02,0.242,0.022,0.242,0.022c0.209,0.007,0.279,0.007,0.279,0.007
			c0.565-0.008,1.095-0.087,1.579-0.113c0.222-0.009,0.297-0.011,0.297-0.011c0.225,0.001,0.301,0.003,0.301,0.003
			c0.228,0.015,0.266,0.018,0.266,0.018c0.23,0.029,0.269,0.036,0.269,0.036c0.233,0.047,0.272,0.056,0.272,0.056
			c0.236,0.067,0.276,0.08,0.276,0.08c0.202,0.074,0.244,0.092,0.244,0.092c0.214,0.097,0.258,0.119,0.258,0.119
			c0.217,0.117,0.26,0.142,0.26,0.142c0.219,0.135,0.263,0.164,0.263,0.164c0.177,0.121,0.266,0.185,0.266,0.185
			c0.179,0.135,0.269,0.206,0.269,0.206c1.987,1.678,3.211,3.515,4.676,5.517c2.284,3.275,5.712,8.5,8.256,11.491
			c2.865,3.495,7.491,7.872,10.723,11.1c3.57,3.575,6.83,7.553,9.22,12.021c2.136,3.943,3.686,8.237,4.364,12.677
			c0.433,2.73,0.452,5.536,0.262,8.29c-0.12,1.664-0.531,6.213-0.549,7.805c-0.042,1.732,0.057,3.716,0.632,5.29
			c0.089,0.235,0.136,0.351,0.136,0.351c0.1,0.227,0.126,0.283,0.126,0.283c0.109,0.221,0.137,0.275,0.137,0.275
			c0.118,0.214,0.149,0.267,0.149,0.267c0.128,0.207,0.161,0.258,0.161,0.258c0.138,0.2,0.174,0.249,0.174,0.249
			c0.148,0.193,0.187,0.24,0.187,0.24c0.194,0.225,0.23,0.263,0.23,0.263c0.221,0.226,0.298,0.299,0.298,0.299
			c0.158,0.143,0.239,0.213,0.239,0.213c0.166,0.137,0.252,0.203,0.252,0.203c0.175,0.13,0.264,0.194,0.264,0.194
			c0.182,0.124,0.275,0.184,0.275,0.184c0.19,0.117,0.286,0.174,0.286,0.174c0.197,0.111,0.297,0.165,0.297,0.165
			c0.203,0.105,0.306,0.155,0.306,0.155c1.885,0.871,3.518,1.139,5.475,1.218c1.787,0.06,3.966-0.251,5.531-0.916
			c0.199-0.085,0.297-0.129,0.297-0.129c0.192-0.091,0.287-0.138,0.287-0.138c0.185-0.096,0.276-0.146,0.276-0.146
			c0.233-0.135,0.308-0.181,0.308-0.181c0.221-0.143,0.293-0.192,0.293-0.192c0.21-0.151,0.278-0.203,0.278-0.203
			c0.199-0.159,0.263-0.214,0.263-0.214c0.188-0.167,0.249-0.224,0.249-0.224c0.235-0.234,0.292-0.295,0.292-0.295
			c0.165-0.184,0.218-0.247,0.218-0.247c0.155-0.191,0.205-0.256,0.205-0.256c0.146-0.199,0.193-0.266,0.193-0.266
			c0.136-0.205,0.18-0.275,0.18-0.275c0.128-0.212,0.169-0.284,0.169-0.284c0.119-0.219,0.157-0.293,0.157-0.293
			c0.111-0.225,0.146-0.301,0.146-0.301c0.687-1.516,0.914-3.017,1.061-4.497c0.137-1.526,0.154-3.107,0.131-4.638
			c-0.061-3.188-0.361-6.485-0.864-9.634c-0.366-2.246-0.843-4.513-1.531-6.683c-0.58-1.836-1.359-3.636-2.246-5.345
			c-3.054-5.648-6.806-11.786-10.221-17.225c-2.143-3.425-7.254-10.91-9.557-14.332c-3.808-5.813-7.494-12.045-8.461-19.04
			c-0.734-4.949-0.201-10.027,0.978-14.865c1.384-5.59,3.647-11.019,6.874-15.8"/>
	</g>
	<g id="POLYLINE_891_">
		
			<path fill="none" stroke="#FB8604" stroke-width="2.75" stroke-linecap="round" stroke-linejoin="round" stroke-miterlimit="10" d="
			M349.849,454.889c4.097,7.693,12.228,23.354,16.513,30.683c0.78,1.325,1.557,2.434,2.457,3.386
			c0.205,0.209,0.273,0.276,0.273,0.276c0.205,0.194,0.273,0.256,0.273,0.256c0.205,0.179,0.273,0.236,0.273,0.236
			c0.205,0.164,0.273,0.216,0.273,0.216c0.205,0.149,0.273,0.196,0.273,0.196c0.205,0.134,0.273,0.176,0.273,0.176
			c0.205,0.119,0.273,0.156,0.273,0.156c0.205,0.104,0.273,0.136,0.273,0.136c0.205,0.089,0.273,0.117,0.273,0.117
			c0.205,0.074,0.273,0.097,0.273,0.097c0.205,0.059,0.273,0.077,0.273,0.077c0.205,0.044,0.239,0.051,0.239,0.051
			c0.205,0.031,0.239,0.035,0.239,0.035c0.205,0.018,0.239,0.02,0.239,0.02c0.205,0.005,0.239,0.005,0.239,0.005
			c0.205-0.008,0.239-0.011,0.239-0.011c0.205-0.021,0.239-0.026,0.239-0.026c0.205-0.034,0.239-0.041,0.239-0.041
			c0.171-0.039,0.239-0.056,0.239-0.056c0.205-0.061,0.273-0.083,0.273-0.083c0.205-0.076,0.273-0.103,0.273-0.103
			c0.205-0.091,0.273-0.123,0.273-0.123c0.205-0.105,0.273-0.143,0.273-0.143c0.291-0.172,0.466-0.281,0.547-0.327
			c0.207-0.11,0.276-0.144,0.276-0.144c0.208-0.095,0.278-0.125,0.278-0.125c0.21-0.081,0.28-0.105,0.28-0.105
			c0.211-0.066,0.281-0.086,0.281-0.086c0.212-0.052,0.283-0.067,0.283-0.067c0.214-0.037,0.285-0.047,0.285-0.047
			c0.215-0.023,0.287-0.028,0.287-0.028c0.217-0.008,0.289-0.009,0.289-0.009c0.218,0.006,0.291,0.011,0.291,0.011
			c0.219,0.021,0.293,0.03,0.293,0.03c0.221,0.035,0.295,0.049,0.295,0.049c0.222,0.05,0.296,0.069,0.296,0.069
			c0.224,0.064,0.298,0.088,0.298,0.088c0.225,0.079,0.3,0.107,0.3,0.107c0.226,0.093,0.302,0.127,0.302,0.127
			c0.228,0.108,0.304,0.146,0.304,0.146c0.229,0.122,0.306,0.166,0.306,0.166c0.231,0.137,0.308,0.185,0.308,0.185
			c0.232,0.151,0.31,0.204,0.31,0.204c0.233,0.166,0.311,0.224,0.311,0.224c1.961,1.48,3.137,3.241,4.532,5.006
			c1.273,1.576,2.823,3.252,4.437,4.267c0.201,0.122,0.267,0.161,0.267,0.161c0.198,0.111,0.264,0.146,0.264,0.146
			c0.196,0.099,0.26,0.13,0.26,0.13c0.193,0.088,0.257,0.115,0.257,0.115c0.19,0.076,0.253,0.1,0.253,0.1
			c0.188,0.065,0.25,0.084,0.25,0.084c0.185,0.053,0.246,0.069,0.246,0.069c0.182,0.042,0.243,0.053,0.243,0.053
			c0.18,0.03,0.239,0.038,0.239,0.038c0.236,0.023,0.294,0.026,0.294,0.026c0.231,0.003,0.288,0.002,0.288,0.002
			c0.227-0.016,0.283-0.022,0.283-0.022c0.309-0.048,0.415-0.073,0.504-0.087c0.178-0.023,0.239-0.029,0.239-0.029
			c0.188-0.014,0.252-0.017,0.252-0.017c0.197-0.005,0.265-0.006,0.265-0.006c0.207,0.003,0.278,0.006,0.278,0.006
			c1.614,0.093,2.951,0.518,4.34,0.979c1.892,0.654,3.803,1.506,5.61,2.371c1.884,0.907,3.832,1.992,5.777,2.755
			c2.845,1.148,6.241,2.008,9.267,1.511c0.948-0.15,1.739-0.413,2.426-0.714c0.751-0.334,1.327-0.729,1.891-0.991
			c1.223-0.603,2.385-1.025,3.566-1.22c0.225-0.034,0.299-0.044,0.299-0.044c0.222-0.025,0.295-0.032,0.295-0.032
			c0.219-0.017,0.291-0.021,0.291-0.021c0.215-0.008,0.287-0.01,0.287-0.01c0.212,0,0.283,0.001,0.283,0.001
			c0.209,0.008,0.278,0.013,0.278,0.013c0.206,0.017,0.274,0.024,0.274,0.024c0.203,0.025,0.27,0.035,0.27,0.035
			c0.2,0.034,0.266,0.046,0.266,0.046c0.197,0.042,0.262,0.058,0.262,0.058c0.194,0.051,0.258,0.069,0.258,0.069
			c0.19,0.059,0.253,0.08,0.253,0.08c0.187,0.067,0.249,0.091,0.249,0.091c0.184,0.076,0.245,0.103,0.245,0.103
			c0.181,0.084,0.241,0.114,0.241,0.114c0.178,0.093,0.237,0.125,0.237,0.125c0.233,0.136,0.29,0.172,0.29,0.172
			c0.171,0.112,0.285,0.187,0.285,0.187c2.335,1.518,5.191,1.718,7.742,1.515c1.196-0.065,2.747-0.447,3.849-0.462
			c0.186-0.001,0.278,0,0.278,0c0.182,0.005,0.272,0.01,0.272,0.01c0.178,0.012,0.267,0.02,0.267,0.02
			c0.175,0.019,0.261,0.03,0.261,0.03c0.171,0.025,0.255,0.04,0.255,0.04c0.167,0.032,0.249,0.05,0.249,0.05
			c0.163,0.039,0.244,0.059,0.244,0.059c0.159,0.045,0.238,0.069,0.238,0.069c0.232,0.079,0.308,0.108,0.308,0.108
			c0.225,0.093,0.298,0.126,0.298,0.126c0.217,0.106,0.288,0.143,0.288,0.143c0.209,0.119,0.278,0.161,0.278,0.161
			c0.202,0.132,0.268,0.179,0.268,0.179c0.194,0.146,0.257,0.196,0.257,0.196c0.186,0.159,0.247,0.214,0.247,0.214
			c0.179,0.172,0.237,0.232,0.237,0.232c0.171,0.185,0.227,0.25,0.227,0.25c0.163,0.199,0.217,0.267,0.217,0.267
			c0.156,0.212,0.206,0.285,0.206,0.285c0.148,0.225,0.196,0.303,0.196,0.303c0.094,0.158,0.14,0.239,0.14,0.239
			c1.175,2.175,1.387,4.297,1.635,6.614c0.28,3.137,0.257,6.459,0.161,9.61c-0.332,10.333-2.037,20.786-2.085,31.133
			c-0.031,3.451,0.061,7.039,0.45,10.467c0.127,1.059,0.271,2.229,0.503,3.272c0.298,1.383,0.802,2.762,1.428,3.869
			c0.132,0.228,0.2,0.34,0.2,0.34c0.138,0.22,0.209,0.328,0.209,0.328c0.145,0.212,0.219,0.317,0.219,0.317
			c0.151,0.205,0.229,0.305,0.229,0.305c0.158,0.197,0.238,0.294,0.238,0.294c0.164,0.19,0.248,0.283,0.248,0.283
			c0.171,0.182,0.258,0.271,0.258,0.271c0.177,0.174,0.268,0.26,0.268,0.26c0.184,0.167,0.277,0.248,0.277,0.248
			c0.19,0.159,0.287,0.237,0.287,0.237c0.197,0.152,0.297,0.226,0.297,0.226c0.203,0.144,0.306,0.214,0.306,0.214
			c0.21,0.137,0.316,0.203,0.316,0.203c0.216,0.129,0.326,0.192,0.326,0.192c0.223,0.121,0.336,0.18,0.336,0.18
			c0.229,0.114,0.345,0.169,0.345,0.169c1.985,0.91,3.956,1.155,6.017,1.169c21.001-0.014,95.276,0.027,117.509-0.015
			c1.647-0.03,3.747-0.099,5.396-0.226c2.825-0.228,5.799-0.548,8.471-1.502c0.519-0.193,0.891-0.366,1.192-0.52
			c0.174-0.093,0.259-0.141,0.259-0.141c0.164-0.096,0.243-0.145,0.243-0.145c0.228-0.149,0.3-0.2,0.3-0.2
			c0.207-0.155,0.272-0.207,0.272-0.207c0.215-0.188,0.244-0.215,0.244-0.215c0.216-0.222,0.241-0.251,0.241-0.251
			c0.185-0.231,0.206-0.26,0.206-0.26c0.91-1.392,1.362-2.946,1.43-4.466c0.078-1.669-0.307-3.325-0.838-4.737
			c-0.091-0.229-0.123-0.305-0.123-0.305c-0.098-0.223-0.132-0.296-0.132-0.296c-0.105-0.217-0.141-0.288-0.141-0.288
			c-0.112-0.211-0.151-0.28-0.151-0.28c-0.119-0.204-0.16-0.271-0.16-0.271c-0.126-0.198-0.169-0.263-0.169-0.263
			c-0.133-0.192-0.179-0.255-0.179-0.255c-0.14-0.186-0.188-0.246-0.188-0.246c-0.147-0.179-0.197-0.238-0.197-0.238
			c-0.207-0.23-0.26-0.286-0.26-0.286c-0.219-0.219-0.275-0.273-0.275-0.273c-0.23-0.209-0.289-0.26-0.289-0.26
			c-0.181-0.15-0.242-0.198-0.242-0.198c-0.188-0.143-0.251-0.19-0.251-0.19c-0.195-0.137-0.261-0.182-0.261-0.182
			c-0.202-0.131-0.27-0.174-0.27-0.174c-0.209-0.125-0.279-0.165-0.279-0.165c-0.216-0.118-0.289-0.157-0.289-0.157
			c-1.743-0.917-3.592-1.178-5.357-1.378c-0.895-0.122-2.011-0.318-2.908-0.492c-5.558-1.107-11.378-2.84-16.8-4.515
			c-6.813-2.127-13.903-3.637-21.027-4.159c-6.339-0.46-12.819-0.096-19.138,0.51c-10.279,0.949-20.89,3.424-31.141,4.63
			c-1.241,0.142-2.759,0.292-4.008,0.359c-0.928,0.052-2.122,0.086-2.958-0.079c-0.235-0.045-0.313-0.061-0.313-0.061
			c-0.232-0.054-0.309-0.074-0.309-0.074c-0.229-0.063-0.305-0.086-0.305-0.086c-0.226-0.073-0.301-0.098-0.301-0.098
			c-0.223-0.082-0.297-0.11-0.297-0.11c-0.22-0.091-0.293-0.123-0.293-0.123c-0.217-0.1-0.289-0.135-0.289-0.135
			c-0.214-0.109-0.285-0.147-0.285-0.147c-0.212-0.119-0.282-0.16-0.282-0.16c-0.209-0.128-0.278-0.172-0.278-0.172
			c-0.206-0.137-0.274-0.184-0.274-0.184c-0.203-0.146-0.27-0.196-0.27-0.196c-1.661-1.244-2.86-3.057-3.726-4.714
			c-0.927-1.873-1.358-3.691-1.728-5.695c-0.607-3.491-0.787-7.106-0.837-10.646c-0.016-13.108,1.234-26.348,3.779-39.208
			c2.033-10.117,5.157-20.138,8.753-29.802c2.136-5.874,4.959-12,6.831-17.958c2.64-8.218,4.277-16.823,4.676-25.449
			c0.205-4.604,0.12-9.319-0.493-13.89c-0.776-5.714-2.404-11.468-5.731-16.245c-1.01-1.483-2.324-2.893-3.607-4.15
			c-1.3-1.284-2.88-2.785-4.258-3.985c-2.377-2.075-4.91-4.042-7.589-5.713c-1.663-1.07-3.541-1.949-5.29-2.87
			c-4.494-2.409-8.828-5.305-12.944-8.31c-2.219-1.659-4.643-3.533-7.087-4.864c-4.094-2.305-8.619-3.841-13.26-4.562
			c-2.661-0.425-5.417-0.552-8.109-0.588c-4.211-0.043-8.47,0.253-12.638,0.856c-2.389,0.347-4.849,0.807-7.203,1.347
			c-2.165,0.481-4.351,1.104-6.38,2.01c-7.953,3.493-14.169,9.979-19.201,16.912"/>
	</g>
</g>
<g id="AG-OUTLINE">
	<g id="POLYLINE_161_">
		
			<path fill="none" stroke="#FB8604" stroke-width="3.5" stroke-linecap="round" stroke-linejoin="round" stroke-miterlimit="10" d="
			M618.249,206.026c1.642-2.773,3.105-5.706,4.071-8.787c1.21-3.811,1.714-7.844,1.805-11.833c0.053-2.87-0.107-5.796-0.621-8.622
			c-0.381-2.085-1.021-4.366-2.058-6.18c-0.138-0.235-0.208-0.35-0.208-0.35c-0.144-0.225-0.217-0.335-0.217-0.335
			c-0.149-0.213-0.199-0.283-0.199-0.283c-0.154-0.204-0.206-0.271-0.206-0.271c-0.159-0.195-0.212-0.258-0.212-0.258
			c-0.163-0.186-0.219-0.246-0.219-0.246c-0.225-0.234-0.282-0.29-0.282-0.29c-0.232-0.218-0.291-0.271-0.291-0.271
			c-0.179-0.153-0.24-0.202-0.24-0.202c-0.184-0.144-0.245-0.19-0.245-0.19c-0.188-0.134-0.251-0.177-0.251-0.177
			c-0.192-0.125-0.256-0.165-0.256-0.165c-0.196-0.115-0.262-0.152-0.262-0.152c-0.199-0.106-0.267-0.139-0.267-0.139
			c-0.203-0.096-0.271-0.126-0.271-0.126c-0.207-0.086-0.276-0.114-0.276-0.114c-0.21-0.077-0.281-0.101-0.281-0.101
			c-0.214-0.067-0.285-0.088-0.285-0.088c-0.217-0.057-0.29-0.075-0.29-0.075c-0.22-0.048-0.294-0.062-0.294-0.062
			c-0.223-0.038-0.298-0.049-0.298-0.049c-0.226-0.028-0.301-0.036-0.301-0.036c-0.229-0.018-0.305-0.023-0.305-0.023
			c-0.231-0.008-0.309-0.009-0.309-0.009c-0.234,0.002-0.312,0.004-0.312,0.004c-2.866,0.137-5.153,1.625-7.281,3.274
			c-2.464,1.973-4.626,4.346-6.555,6.837c-2.005,2.63-3.84,5.464-5.059,8.549c-0.875,2.186-1.382,4.557-1.796,6.871
			c-2.046-0.205-4.197-0.278-6.252-0.207c-0.283-4.624-0.861-9.312-2.198-13.758c-1.64-5.491-4.647-10.297-10.149-12.153
			c-2.401-0.8-4.618-1.033-7.085-0.91c-2.307,0.117-4.988,0.795-6.837,2.005c-0.19,0.125-0.284,0.189-0.284,0.189
			c-0.184,0.131-0.275,0.198-0.275,0.198c-0.178,0.137-0.265,0.207-0.265,0.207c-0.172,0.143-0.256,0.216-0.256,0.216
			c-0.165,0.149-0.245,0.225-0.245,0.225c-0.173,0.17-0.257,0.256-0.257,0.256c-0.164,0.177-0.245,0.267-0.245,0.267
			c-0.156,0.184-0.232,0.278-0.232,0.278c-0.148,0.191-0.22,0.288-0.22,0.288c-0.14,0.197-0.208,0.298-0.208,0.298
			c-0.132,0.204-0.197,0.308-0.197,0.308c-0.125,0.21-0.185,0.317-0.185,0.317c-0.117,0.217-0.174,0.327-0.174,0.327
			c-0.109,0.223-0.162,0.336-0.162,0.336c-0.102,0.229-0.151,0.345-0.151,0.345c-0.997,2.465-1.133,4.921-1.041,7.503
			c0.277,6.52,2.738,13.768,4.461,20.057c1.278,4.769,2.526,9.867,2.098,14.82c-0.242,2.691-1.054,5.169-2.123,7.619
			c-1.262,2.913-3.163,6.151-4.389,9.08c-0.354,0.848-0.729,1.909-0.941,2.771c-0.349,1.392-0.481,2.691-0.507,3.909
			c-0.034,2.196,0.234,4.044,0.597,6.148c0.452,2.469,1.163,5.835,1.547,8.311c0.42,2.904,0.881,6.227,0.15,9.041
			c-0.059,0.201-0.091,0.3-0.091,0.3c-0.067,0.194-0.102,0.289-0.102,0.289c-0.074,0.187-0.113,0.278-0.113,0.278
			c-0.082,0.18-0.125,0.269-0.125,0.269c-0.09,0.174-0.137,0.26-0.137,0.26c-0.098,0.168-0.149,0.251-0.149,0.251
			c-0.107,0.163-0.162,0.243-0.162,0.243c-0.175,0.236-0.236,0.314-0.236,0.314c-0.193,0.228-0.261,0.302-0.261,0.302
			c-0.212,0.22-0.286,0.293-0.286,0.293c-0.231,0.214-0.312,0.284-0.312,0.284c-0.166,0.14-0.251,0.209-0.251,0.209
			c-0.831,0.648-1.457,0.996-2.214,1.408c-1.194,0.628-3.517,1.8-4.557,2.37c0,0-1.218,0.669-1.218,0.669
			c-0.809,0.458-1.71,0.98-2.493,1.47c-4.016,2.68-19.648,12.651-24.051,15.418c-1.457,0.893-3.082,1.815-4.585,2.618
			c-7.233,3.854-15.007,6.736-22.927,8.818c-3.012,0.816-6.5,1.512-9.538,2.28c-5.019,1.242-11.628,3.076-16.621,4.567
			c-12.376,3.805-25.606,8.001-37.63,12.78c-13.185,5.316-26.165,11.984-38.2,19.549c-6.463,4.078-13.022,8.524-18.751,13.581
			c-9.042,7.885-16.8,17.466-21.623,28.508c-0.856,1.913-1.844,4.62-2.569,6.621c-1.346,3.732-2.861,8.196-4.061,11.976
			c-4.171,13.07-7.504,26.732-10.073,40.213c-2.222,11.526-4.25,23.9-5.434,35.575c-0.485,5.395-1.109,10.966-2.258,16.261
			c-0.851,3.95-1.977,7.917-3.587,11.628c-1.012,2.377-2.394,4.686-3.706,6.906c-3.377,5.649-7.353,11.311-11.333,16.556
			c-1.318,1.757-2.901,3.679-4.454,5.25c-4.707,4.83-10.297,8.794-16.108,12.184c-4.014,2.318-8.247,4.487-12.522,6.281
			c-4.677,1.956-9.622,3.574-14.53,4.845c-5.367,1.387-10.954,2.435-16.447,3.172c-2.587,0.341-5.507,0.669-8.11,0.889
			c-34.369,2.934-91.428,7.492-125.609,11.319c0,0-1.998,0.281-1.998,0.281s-1.863,0.285-1.863,0.285s-1.729,0.289-1.729,0.289
			s-0.814,0.146-0.814,0.146s-0.78,0.147-0.78,0.147s-0.746,0.148-0.746,0.148s-0.713,0.149-0.713,0.149s-0.679,0.15-0.679,0.15
			s-0.645,0.151-0.645,0.151s-0.611,0.152-0.611,0.152s-0.578,0.153-0.578,0.153s-0.276,0.077-0.276,0.077s-0.268,0.077-0.268,0.077
			c-0.859,0.25-1.899,0.615-2.557,0.947c-0.678,0.349-1.145,0.652-1.625,0.999c-0.23,0.174-0.341,0.263-0.341,0.263
			c-0.213,0.178-0.316,0.268-0.316,0.268c-0.197,0.181-0.244,0.227-0.244,0.227c-0.227,0.231-0.27,0.277-0.27,0.277
			c-0.206,0.235-0.245,0.283-0.245,0.283c-0.149,0.191-0.185,0.239-0.185,0.239c-0.136,0.194-0.168,0.243-0.168,0.243
			c-0.122,0.197-0.15,0.247-0.15,0.247c-0.108,0.2-0.133,0.25-0.133,0.25c-0.094,0.203-0.116,0.254-0.116,0.254
			c-0.08,0.206-0.098,0.258-0.098,0.258c-0.066,0.209-0.081,0.261-0.081,0.261c-0.052,0.211-0.063,0.265-0.063,0.265
			c-0.038,0.214-0.046,0.268-0.046,0.268c-0.024,0.217-0.029,0.272-0.029,0.272c-0.01,0.22-0.011,0.276-0.011,0.276
			c0.004,0.223,0.006,0.279,0.006,0.279c0.017,0.226,0.024,0.283,0.024,0.283c0.031,0.229,0.041,0.286,0.041,0.286
			c0.045,0.232,0.058,0.29,0.058,0.29c0.059,0.235,0.076,0.293,0.076,0.293c0.072,0.23,0.092,0.287,0.092,0.287
			c0.085,0.221,0.107,0.275,0.107,0.275c0.097,0.212,0.123,0.264,0.123,0.264c0.109,0.203,0.138,0.252,0.138,0.252
			c0.122,0.193,0.154,0.241,0.154,0.241c0.169,0.229,0.205,0.273,0.205,0.273c0.188,0.215,0.228,0.257,0.228,0.257
			c0.207,0.201,0.25,0.24,0.25,0.24c0.225,0.188,0.272,0.224,0.272,0.224c0.194,0.14,0.244,0.174,0.244,0.174
			c0.206,0.131,0.26,0.162,0.26,0.162c0.219,0.122,0.275,0.151,0.275,0.151c0.231,0.112,0.291,0.139,0.291,0.139
			c0.182,0.078,0.244,0.103,0.244,0.103c0.189,0.073,0.254,0.096,0.254,0.096c1.238,0.447,2.661,0.56,3.82,0.575
			c31.118-0.218,129.518,0.454,161.755-0.286c4.067-0.232,8.269-0.626,12.3-1.216c5.423-0.799,10.883-1.986,16.067-3.783
			c6.026-2.11,11.804-5.057,17.135-8.562c5.072-3.338,9.836-7.248,14.196-11.471c12.116-11.793,24.515-24.972,35.451-37.881
			c7.377-8.825,14.893-18.751,21.495-28.173c0.202,0.018,0.252,0.024,0.252,0.024c0.203,0.029,0.253,0.038,0.253,0.038
			c0.204,0.041,0.255,0.052,0.255,0.052c0.205,0.052,0.256,0.067,0.256,0.067c0.206,0.064,0.258,0.081,0.258,0.081
			c0.207,0.075,0.259,0.096,0.259,0.096c0.305,0.125,0.407,0.179,0.522,0.234c0.21,0.11,0.316,0.168,0.316,0.168
			c0.212,0.124,0.318,0.189,0.318,0.189c0.213,0.137,0.32,0.21,0.32,0.21c0.214,0.151,0.322,0.23,0.322,0.23
			c0.216,0.165,0.324,0.251,0.324,0.251c1.674,1.371,2.643,2.723,3.893,4.354c1.35,1.714,3.005,3.567,4.761,4.674
			c0.201,0.122,0.267,0.161,0.267,0.161c0.198,0.111,0.264,0.146,0.264,0.146c0.196,0.099,0.26,0.13,0.26,0.13
			c0.193,0.088,0.257,0.115,0.257,0.115c0.19,0.076,0.253,0.1,0.253,0.1c0.188,0.065,0.25,0.084,0.25,0.084
			c0.185,0.053,0.246,0.069,0.246,0.069c0.182,0.042,0.243,0.053,0.243,0.053c0.18,0.03,0.239,0.038,0.239,0.038
			c0.236,0.023,0.294,0.026,0.294,0.026c0.231,0.003,0.288,0.002,0.288,0.002c0.227-0.016,0.283-0.022,0.283-0.022
			c0.309-0.048,0.415-0.073,0.504-0.087c0.178-0.023,0.239-0.029,0.239-0.029c0.188-0.014,0.252-0.017,0.252-0.017
			c0.197-0.005,0.265-0.006,0.265-0.006c0.207,0.003,0.278,0.006,0.278,0.006c1.614,0.093,2.951,0.518,4.34,0.979
			c1.892,0.654,3.803,1.506,5.61,2.371c1.884,0.907,3.832,1.992,5.777,2.755c2.845,1.148,6.241,2.008,9.267,1.511
			c0.948-0.15,1.739-0.413,2.426-0.714c0.751-0.334,1.327-0.729,1.891-0.991c1.223-0.603,2.385-1.025,3.566-1.22
			c0.225-0.034,0.299-0.044,0.299-0.044c0.222-0.025,0.295-0.032,0.295-0.032c0.219-0.017,0.291-0.021,0.291-0.021
			c0.215-0.008,0.287-0.01,0.287-0.01c0.212,0,0.283,0.001,0.283,0.001c0.209,0.008,0.278,0.013,0.278,0.013
			c0.206,0.017,0.274,0.024,0.274,0.024c0.203,0.025,0.27,0.035,0.27,0.035c0.2,0.034,0.266,0.046,0.266,0.046
			c0.197,0.042,0.262,0.058,0.262,0.058c0.194,0.051,0.258,0.069,0.258,0.069c0.19,0.059,0.253,0.08,0.253,0.08
			c0.187,0.067,0.249,0.091,0.249,0.091c0.184,0.076,0.245,0.103,0.245,0.103c0.181,0.084,0.241,0.114,0.241,0.114
			c0.178,0.093,0.237,0.125,0.237,0.125c0.233,0.136,0.29,0.172,0.29,0.172c0.171,0.112,0.285,0.187,0.285,0.187
			c2.335,1.518,5.191,1.718,7.742,1.515c1.196-0.065,2.747-0.447,3.849-0.462c0.186-0.001,0.278,0,0.278,0
			c0.182,0.005,0.272,0.01,0.272,0.01c0.178,0.012,0.267,0.02,0.267,0.02c0.175,0.019,0.261,0.03,0.261,0.03
			c0.171,0.025,0.255,0.04,0.255,0.04c0.167,0.032,0.249,0.05,0.249,0.05c0.163,0.039,0.244,0.059,0.244,0.059
			c0.159,0.045,0.238,0.069,0.238,0.069c0.232,0.079,0.308,0.108,0.308,0.108c0.225,0.093,0.298,0.126,0.298,0.126
			c0.217,0.106,0.288,0.143,0.288,0.143c0.209,0.119,0.278,0.161,0.278,0.161c0.202,0.132,0.268,0.179,0.268,0.179
			c0.194,0.146,0.257,0.196,0.257,0.196c0.186,0.159,0.247,0.214,0.247,0.214c0.179,0.172,0.237,0.232,0.237,0.232
			c0.171,0.185,0.227,0.25,0.227,0.25c0.163,0.199,0.217,0.267,0.217,0.267c0.156,0.212,0.206,0.285,0.206,0.285
			c0.148,0.225,0.196,0.303,0.196,0.303c0.094,0.158,0.14,0.239,0.14,0.239c1.175,2.175,1.387,4.297,1.635,6.614
			c0.28,3.137,0.257,6.459,0.161,9.61c-0.332,10.333-2.037,20.786-2.085,31.133c-0.031,3.451,0.061,7.039,0.45,10.467
			c0.127,1.059,0.271,2.229,0.503,3.272c0.298,1.383,0.802,2.762,1.428,3.869c0.132,0.228,0.2,0.34,0.2,0.34
			c0.138,0.22,0.209,0.328,0.209,0.328c0.145,0.212,0.219,0.317,0.219,0.317c0.151,0.205,0.229,0.305,0.229,0.305
			c0.158,0.197,0.238,0.294,0.238,0.294c0.164,0.19,0.248,0.283,0.248,0.283c0.171,0.182,0.258,0.271,0.258,0.271
			c0.177,0.174,0.268,0.26,0.268,0.26c0.184,0.167,0.277,0.248,0.277,0.248c0.19,0.159,0.287,0.237,0.287,0.237
			c0.197,0.152,0.297,0.226,0.297,0.226c0.203,0.144,0.306,0.214,0.306,0.214c0.21,0.137,0.316,0.203,0.316,0.203
			c0.216,0.129,0.326,0.192,0.326,0.192c0.223,0.121,0.336,0.18,0.336,0.18c0.229,0.114,0.345,0.169,0.345,0.169
			c1.985,0.91,3.956,1.155,6.017,1.169c21.001-0.014,95.276,0.027,117.509-0.015c1.647-0.03,3.747-0.099,5.396-0.226
			c2.825-0.228,5.799-0.548,8.471-1.502c0.519-0.193,0.891-0.366,1.192-0.52c0.174-0.093,0.259-0.141,0.259-0.141
			c0.164-0.096,0.243-0.145,0.243-0.145c0.228-0.149,0.3-0.2,0.3-0.2c0.207-0.155,0.272-0.207,0.272-0.207
			c0.215-0.188,0.244-0.215,0.244-0.215c0.216-0.222,0.241-0.251,0.241-0.251c0.185-0.231,0.206-0.26,0.206-0.26
			c0.91-1.392,1.362-2.946,1.43-4.466c0.078-1.669-0.307-3.325-0.838-4.737c-0.091-0.229-0.123-0.305-0.123-0.305
			c-0.098-0.223-0.132-0.296-0.132-0.296c-0.105-0.217-0.141-0.288-0.141-0.288c-0.112-0.211-0.151-0.28-0.151-0.28
			c-0.119-0.204-0.16-0.271-0.16-0.271c-0.126-0.198-0.169-0.263-0.169-0.263c-0.133-0.192-0.179-0.255-0.179-0.255
			c-0.14-0.186-0.188-0.246-0.188-0.246c-0.147-0.179-0.197-0.238-0.197-0.238c-0.207-0.23-0.26-0.286-0.26-0.286
			c-0.219-0.219-0.275-0.273-0.275-0.273c-0.23-0.209-0.289-0.26-0.289-0.26c-0.181-0.15-0.242-0.198-0.242-0.198
			c-0.188-0.143-0.251-0.19-0.251-0.19c-0.195-0.137-0.261-0.182-0.261-0.182c-0.202-0.131-0.27-0.174-0.27-0.174
			c-0.209-0.125-0.279-0.165-0.279-0.165c-0.216-0.118-0.289-0.157-0.289-0.157c-1.743-0.917-3.592-1.178-5.357-1.378
			c-0.895-0.122-2.011-0.318-2.908-0.492c-5.558-1.107-11.378-2.84-16.8-4.515c-6.813-2.127-13.903-3.637-21.027-4.159
			c-6.339-0.46-12.819-0.096-19.138,0.51c-10.279,0.949-20.89,3.424-31.141,4.63c-1.241,0.142-2.759,0.292-4.008,0.359
			c-0.928,0.052-2.122,0.086-2.958-0.079c-0.235-0.045-0.313-0.061-0.313-0.061c-0.232-0.054-0.309-0.074-0.309-0.074
			c-0.229-0.063-0.305-0.086-0.305-0.086c-0.226-0.073-0.301-0.098-0.301-0.098c-0.223-0.082-0.297-0.11-0.297-0.11
			c-0.22-0.091-0.293-0.123-0.293-0.123c-0.217-0.1-0.289-0.135-0.289-0.135c-0.214-0.109-0.285-0.147-0.285-0.147
			c-0.212-0.119-0.282-0.16-0.282-0.16c-0.209-0.128-0.278-0.172-0.278-0.172c-0.206-0.137-0.274-0.184-0.274-0.184
			c-0.203-0.146-0.27-0.196-0.27-0.196c-1.678-1.268-2.848-3.038-3.726-4.714c-0.938-1.886-1.351-3.681-1.728-5.695
			c-0.608-3.493-0.787-7.105-0.837-10.646c-0.028-11.712,1.01-23.564,3.003-35.104c2.307-13.34,6.548-26.459,11.5-39.041l2.5,0.026
			c1.716,0.01,3.817-0.1,5.402-0.48c1.92-0.428,3.658-1.294,4.995-2.435c2.451-2.148,3.953-4.718,5.61-7.409
			c1.696-2.77,3.657-6.56,5.919-8.829c0.184-0.176,0.276-0.261,0.276-0.261c0.185-0.163,0.277-0.242,0.277-0.242
			c0.237-0.189,0.296-0.234,0.296-0.234c0.178-0.13,0.238-0.172,0.238-0.172c0.179-0.121,0.239-0.16,0.239-0.16
			c0.18-0.112,0.24-0.148,0.24-0.148c1.555-0.936,3.42-1.199,5-1.851c0.232-0.1,0.347-0.153,0.347-0.153
			c0.229-0.112,0.343-0.171,0.343-0.171c0.226-0.125,0.282-0.158,0.282-0.158c0.223-0.138,0.279-0.174,0.279-0.174
			c0.22-0.151,0.275-0.191,0.275-0.191c0.197-0.151,0.268-0.208,0.268-0.208c0.211-0.179,0.281-0.241,0.281-0.241
			c0.209-0.194,0.278-0.26,0.278-0.26c0.206-0.208,0.274-0.279,0.274-0.279c2.626-2.898,4.231-6.67,6.69-9.624
			c1.85-2.327,4.336-3.571,6.754-5.047c1.192-0.73,2.462-1.711,3.286-2.676c1.77-2.097,2.677-4.248,3.732-6.641
			c1.325-3.137,2.834-7.195,4.552-10.101c2.964-5.082,7.406-8.583,12.029-11.976l6.151,6.108c2.254,2.313,4.424,4.804,6.241,7.478
			c2.879,4.221,5.097,8.941,6.268,13.924c0.455,1.938,0.753,3.939,0.862,5.926c0.094,1.679,0.038,3.425-0.069,5.103
			c-0.12,1.664-0.531,6.213-0.549,7.805c-0.042,1.732,0.057,3.716,0.632,5.29c0.089,0.235,0.136,0.351,0.136,0.351
			c0.1,0.227,0.126,0.283,0.126,0.283c0.109,0.221,0.137,0.275,0.137,0.275c0.118,0.214,0.149,0.267,0.149,0.267
			c0.128,0.207,0.161,0.258,0.161,0.258c0.138,0.2,0.174,0.249,0.174,0.249c0.148,0.193,0.187,0.24,0.187,0.24
			c0.194,0.225,0.23,0.263,0.23,0.263c0.221,0.226,0.298,0.299,0.298,0.299c0.158,0.143,0.239,0.213,0.239,0.213
			c0.166,0.137,0.252,0.203,0.252,0.203c0.175,0.13,0.264,0.194,0.264,0.194c0.182,0.124,0.275,0.184,0.275,0.184
			c0.19,0.117,0.286,0.174,0.286,0.174c0.197,0.111,0.297,0.165,0.297,0.165c0.203,0.105,0.306,0.155,0.306,0.155
			c1.885,0.871,3.518,1.139,5.475,1.218c1.787,0.06,3.966-0.251,5.531-0.916c0.199-0.085,0.297-0.129,0.297-0.129
			c0.192-0.091,0.287-0.138,0.287-0.138c0.185-0.096,0.276-0.146,0.276-0.146c0.233-0.135,0.308-0.181,0.308-0.181
			c0.221-0.143,0.293-0.192,0.293-0.192c0.21-0.151,0.278-0.203,0.278-0.203c0.199-0.159,0.263-0.214,0.263-0.214
			c0.188-0.167,0.249-0.224,0.249-0.224c0.235-0.234,0.292-0.295,0.292-0.295c0.165-0.184,0.218-0.247,0.218-0.247
			c0.155-0.191,0.205-0.256,0.205-0.256c0.146-0.199,0.193-0.266,0.193-0.266c0.136-0.205,0.18-0.275,0.18-0.275
			c0.128-0.212,0.169-0.284,0.169-0.284c0.119-0.219,0.157-0.293,0.157-0.293c0.111-0.225,0.146-0.301,0.146-0.301
			c1.083-2.475,1.136-4.924,1.198-7.488c0.032-3.178-0.204-6.459-0.622-9.61c-0.502-3.618-1.229-7.264-2.612-10.657
			c-0.583-1.443-1.312-2.889-2.059-4.255c-3.419-6.08-7.389-12.659-11.181-18.51c-2.389-3.602-8.596-12.595-10.689-16.191
			c1.109-3.069,2.315-6.374,3.924-9.208c1.493-2.748,4.219-5.968,6.138-8.464c1.296-1.696,2.569-3.507,3.633-5.357
			c0.833-1.438,1.588-3.005,2.265-4.522l3.058-7.179c0.646-1.466,1.529-3.314,2.386-4.563c0.252-0.368,0.449-0.618,0.593-0.793
			c0.201-0.233,0.269-0.308,0.269-0.308c0.204-0.211,0.273-0.278,0.273-0.278c0.214-0.195,0.288-0.257,0.288-0.257
			c0.221-0.174,0.295-0.229,0.295-0.229c0.223-0.154,0.297-0.202,0.297-0.202c0.224-0.137,0.298-0.18,0.298-0.18
			c0.572-0.317,1.008-0.498,1.526-0.744c0.206-0.102,0.273-0.137,0.273-0.137c0.199-0.108,0.264-0.146,0.264-0.146
			c0.191-0.118,0.254-0.159,0.254-0.159c0.212-0.153,0.242-0.177,0.242-0.177c0.229-0.198,0.257-0.225,0.257-0.225
			c0.213-0.228,0.238-0.259,0.238-0.259c0.167-0.222,0.186-0.25,0.186-0.25c0.128-0.206,0.146-0.237,0.146-0.237
			c0.103-0.192,0.136-0.259,0.136-0.259c0.095-0.208,0.126-0.279,0.126-0.279c0.088-0.223,0.117-0.299,0.117-0.299
			c0.794-2.382,0.891-5.035,1.212-7.48c0.234-2.052,0.617-4.495,1.295-6.344c0.995-2.925,2.979-5.855,4.555-8.479
			c2.734-4.592,4.657-9.751,5.179-15.089c0.379-3.747-0.246-8.226-0.593-11.982c-0.226-2.482-0.166-5.039,0.039-7.522l0.318-3.521
			c5.538,1.43,11.889,3.656,17.633,3.044c2.367-0.24,4.621-0.919,6.445-2.18c0.213-0.151,0.283-0.203,0.283-0.203
			c0.207-0.159,0.275-0.213,0.275-0.213c0.201-0.166,0.267-0.223,0.267-0.223c0.195-0.173,0.259-0.232,0.259-0.232
			c0.189-0.181,0.251-0.242,0.251-0.242c0.183-0.188,0.243-0.253,0.243-0.253c0.182-0.203,0.242-0.272,0.242-0.272
			c0.175-0.211,0.232-0.283,0.232-0.283c1.168-1.486,1.86-3.169,2.316-4.796c0.58-2.121,0.771-4.237,0.694-6.24
			c0.698-1.488,1.177-2.991,1.247-4.498c0.006-0.202,0.007-0.27,0.007-0.27c-0.001-0.201-0.003-0.267-0.003-0.267
			c-0.009-0.199-0.013-0.265-0.013-0.265c-0.017-0.197-0.024-0.263-0.024-0.263c-0.025-0.195-0.034-0.26-0.034-0.26
			c-0.033-0.193-0.045-0.257-0.045-0.257c-0.041-0.191-0.057-0.254-0.057-0.254c-0.05-0.189-0.068-0.251-0.068-0.251
			c-0.059-0.186-0.08-0.248-0.08-0.248c-0.068-0.184-0.092-0.244-0.092-0.244c-0.077-0.181-0.105-0.24-0.105-0.24
			c-0.117-0.236-0.149-0.295-0.149-0.295c-0.134-0.231-0.169-0.288-0.169-0.288c-0.15-0.226-0.19-0.281-0.19-0.281
			c-0.168-0.22-0.212-0.274-0.212-0.274c-0.185-0.214-0.234-0.266-0.234-0.266c-0.972-1.847-2.177-4.811-3.071-6.511
			c-0.841-1.673-1.811-3.328-2.907-4.847l-2.163-2.965c-0.823-1.143-1.744-2.569-2.331-3.805c-0.694-1.409-1.119-2.903-1.367-4.251
			c-0.394-2.064-0.602-4.672-0.948-6.746c-0.316-1.941-0.867-3.978-1.915-5.46c-0.167-0.234-0.224-0.311-0.224-0.311
			c-0.176-0.227-0.236-0.302-0.236-0.302c-1.991-2.381-4.65-3.776-7.091-5.534C621.253,209.101,619.678,207.627,618.249,206.026z"/>
	</g>
</g>
</svg>
