<?xml version="1.0" encoding="utf-8"?>
<!-- Generator: Adobe Illustrator 24.2.1, SVG Export Plug-In . SVG Version: 6.00 Build 0)  -->
<!DOCTYPE svg PUBLIC "-//W3C//DTD SVG 1.1//EN" "http://www.w3.org/Graphics/SVG/1.1/DTD/svg11.dtd" [
	<!ENTITY ns_flows "http://ns.adobe.com/Flows/1.0/">
	<!ENTITY ns_extend "http://ns.adobe.com/Extensibility/1.0/">
	<!ENTITY ns_ai "http://ns.adobe.com/AdobeIllustrator/10.0/">
	<!ENTITY ns_graphs "http://ns.adobe.com/Graphs/1.0/">
	<!ENTITY ns_vars "http://ns.adobe.com/Variables/1.0/">
	<!ENTITY ns_imrep "http://ns.adobe.com/ImageReplacement/1.0/">
	<!ENTITY ns_sfw "http://ns.adobe.com/SaveForWeb/1.0/">
	<!ENTITY ns_custom "http://ns.adobe.com/GenericCustomNamespace/1.0/">
	<!ENTITY ns_adobe_xpath "http://ns.adobe.com/XPath/1.0/">
]>
<svg version="1.1" xmlns:x="&ns_extend;" xmlns:i="&ns_ai;" xmlns:graph="&ns_graphs;"
	 xmlns="http://www.w3.org/2000/svg" xmlns:xlink="http://www.w3.org/1999/xlink" xmlns:a="http://ns.adobe.com/AdobeSVGViewerExtensions/3.0/"
	 x="0px" y="0px" width="750px" height="750px" viewBox="0 0 750 750" enable-background="new 0 0 750 750" xml:space="preserve">
<metadata>
	<sfw  xmlns="&ns_sfw;">
		<slices></slices>
		<sliceSourceBounds  bottomLeftOrigin="true" height="8750" width="7929.938" x="-3957.938" y="-526"></sliceSourceBounds>
	</sfw>
</metadata>
<g id="FILL-BACKGROUND">
	<rect fill="#FFFFFF" width="750" height="750"/>
</g>
<g id="N-TEXT">
</g>
<g id="N-DIMENSIONS">
</g>
<g id="AG-DIAGRAM">
	<g id="POLYLINE_495_">
		<g>
			<g>
				
					<line fill="none" stroke="#FB8604" stroke-width="3.25" stroke-linecap="round" stroke-linejoin="round" x1="83.81" y1="574.079" x2="85.81" y2="574.079"/>
				
					<line fill="none" stroke="#FB8604" stroke-width="3.25" stroke-linecap="round" stroke-linejoin="round" stroke-dasharray="4.0217,7.0381" x1="92.848" y1="574.079" x2="609.14" y2="574.079"/>
				
					<line fill="none" stroke="#FB8604" stroke-width="3.25" stroke-linecap="round" stroke-linejoin="round" x1="612.659" y1="574.079" x2="614.659" y2="574.079"/>
			</g>
		</g>
	</g>
</g>
<g id="AG-DETAIL-DIAGRAM">
</g>
<g id="AG-DETAILS">
	<g id="POLYLINE_624_">
		<path fill="none" stroke="#FB8604" stroke-width="2" stroke-linecap="round" stroke-linejoin="round" stroke-miterlimit="10" d="
			M556.456,574.079c0.571-6.391,2.45-12.678,5.533-18.308"/>
	</g>
	<g id="POLYLINE_623_">
		<path fill="none" stroke="#FB8604" stroke-width="2" stroke-linecap="round" stroke-linejoin="round" stroke-miterlimit="10" d="
			M521.989,432.562c2.667,1.211,5.512,2.084,8.412,2.507c3.034,0.442,6.139,0.426,9.172-0.01"/>
	</g>
	<g id="POLYLINE_594_">
		<path fill="none" stroke="#FB8604" stroke-width="2" stroke-linecap="round" stroke-linejoin="round" stroke-miterlimit="10" d="
			M423.89,479.076l3.674-7.02c1.704-3.135,3.611-6.255,5.798-9.075c1.852-2.41,4.006-4.682,6.17-6.813l10.246-9.795
			c5.158-5.069,10.04-10.579,13.823-16.762c3.284-5.318,5.939-11.085,8.077-16.955c2.723-7.53,4.674-15.459,5.75-23.394
			c1.583-11.695,1.22-23.909-2.81-35.096c-4.699-13.214-14.248-24.353-25.695-32.28"/>
	</g>
	<g id="POLYLINE_497_">
		<path fill="none" stroke="#FB8604" stroke-width="2" stroke-linecap="round" stroke-linejoin="round" stroke-miterlimit="10" d="
			M278.394,545.035c9.885,4.854,20.709,8.164,31.775,8.42c15.654,0.393,31.265-4.809,43.972-13.871
			c21.05-14.978,35.305-42.713,39.552-67.85"/>
	</g>
</g>
<g id="AG-ANIMALS">
	<g id="POLYLINE_724_">
		
			<path fill="none" stroke="#FB8604" stroke-width="2.75" stroke-linecap="round" stroke-linejoin="round" stroke-miterlimit="10" d="
			M585.836,231.33c-2.771-1.257-5.816-2.528-8.261-4.341c-1.942-1.409-3.604-3.211-4.835-5.271
			c-1.331-2.215-2.287-4.658-3.084-7.109c-1.337-4.158-2.255-8.599-3.051-12.893c-0.663-3.957-2.19-12.642-2.803-16.526
			c-0.181-1.256-0.346-2.583-0.397-3.852c-0.049-1.265,0.004-2.703,0.46-3.846c0.046-0.112,0.062-0.148,0.062-0.148
			c0.05-0.108,0.067-0.144,0.067-0.144c0.071-0.139,0.089-0.174,0.089-0.174c0.077-0.134,0.096-0.166,0.096-0.166
			c0.082-0.128,0.104-0.159,0.104-0.159c0.088-0.122,0.111-0.152,0.111-0.152c0.094-0.116,0.118-0.144,0.118-0.144
			c0.112-0.123,0.15-0.162,0.15-0.162c0.118-0.113,0.159-0.15,0.159-0.15c0.126-0.105,0.169-0.139,0.169-0.139
			c0.133-0.098,0.179-0.129,0.179-0.129c0.14-0.09,0.188-0.119,0.188-0.119c0.097-0.056,0.147-0.083,0.147-0.083
			c0.1-0.052,0.151-0.077,0.151-0.077c0.104-0.048,0.156-0.071,0.156-0.071c0.107-0.044,0.161-0.066,0.161-0.066
			c0.109-0.041,0.165-0.06,0.165-0.06c0.112-0.037,0.169-0.055,0.169-0.055c1.553-0.439,3.01-0.248,4.457,0.14
			c3.191,0.902,5.764,3.124,8.079,5.402c1.813,1.783,4.95,5.357,6.722,7.212c1.544,1.624,3.421,3.417,5.072,4.942
			c1.287,1.161,7.493,6.722,8.613,7.783"/>
	</g>
	<g id="POLYLINE_725_">
		
			<path fill="none" stroke="#FB8604" stroke-width="2.75" stroke-linecap="round" stroke-linejoin="round" stroke-miterlimit="10" d="
			M658.076,285.264c-3.283-5.234-7.893-10.954-11.095-16.233c-1.685-2.784-3.115-5.812-4.376-8.81
			c-1.171-2.746-2.54-6.418-4.089-8.94c-0.857-1.424-1.876-2.768-3.051-3.946c-2.691-2.674-6.1-4.626-9.371-6.504
			c-2.45-1.387-5.676-3.104-7.878-4.842l-3.053-2.413"/>
	</g>
	<g id="POLYLINE_726_">
		
			<path fill="none" stroke="#FB8604" stroke-width="2.75" stroke-linecap="round" stroke-linejoin="round" stroke-miterlimit="10" d="
			M587.376,275.185c-0.245,2.938,0.108,5.924,0.955,8.745c0.453,1.489,1.057,2.945,1.846,4.288c0.725,1.263,1.826,2.596,2.843,3.477
			c2.871,2.539,6.51,3.665,10.174,4.452c4.764,1.005,10.839,1.727,15.508,3.076c2.728,0.767,5.393,1.902,7.936,3.146l6.226,3.141
			c6.116,3.045,13.649,5.517,20.22,2.461c2.474-1.177,4.527-2.892,6.181-5.044"/>
	</g>
	<g id="POLYLINE_727_">
		
			<path fill="none" stroke="#FB8604" stroke-width="2.75" stroke-linecap="round" stroke-linejoin="round" stroke-miterlimit="10" d="
			M657.875,285.198c-0.137-0.023-0.15-0.024-0.15-0.024c-0.134-0.002-0.146-0.001-0.146-0.001c-0.132,0.017-0.144,0.02-0.144,0.02
			c-0.141,0.04-0.153,0.044-0.153,0.044c-0.138,0.06-0.15,0.066-0.15,0.066c-0.136,0.079-0.158,0.094-0.158,0.094
			c-0.133,0.098-0.155,0.116-0.155,0.116c-0.131,0.115-0.152,0.135-0.152,0.135c-0.129,0.131-0.171,0.177-0.171,0.177
			c-0.085,0.096-0.127,0.146-0.127,0.146c-0.608,0.748-1.409,2.165-1.919,2.953c-0.337,0.542-0.716,1.253-0.908,1.801
			c-0.563,1.514-0.396,3.048,0.053,4.472c0.421,1.337,1.029,2.618,1.738,3.825c0.683,1.156,1.608,2.451,2.579,3.248
			c0.103,0.082,0.155,0.121,0.155,0.121c0.102,0.075,0.153,0.11,0.153,0.11c0.101,0.067,0.151,0.099,0.151,0.099
			c0.125,0.073,0.149,0.087,0.149,0.087c0.123,0.063,0.147,0.074,0.147,0.074c0.121,0.052,0.145,0.061,0.145,0.061
			c0.142,0.048,0.166,0.055,0.166,0.055c0.138,0.032,0.157,0.035,0.157,0.035c0.131,0.016,0.15,0.017,0.15,0.017
			c0.128,0.002,0.146,0.002,0.146,0.002c0.143-0.014,0.16-0.017,0.16-0.017c0.139-0.03,0.156-0.035,0.156-0.035
			c0.135-0.046,0.151-0.053,0.151-0.053c0.131-0.061,0.147-0.07,0.147-0.07c0.143-0.086,0.158-0.096,0.158-0.096
			c0.138-0.102,0.168-0.127,0.168-0.127c0.118-0.105,0.147-0.133,0.147-0.133c0.114-0.118,0.142-0.149,0.142-0.149
			c0.11-0.13,0.137-0.164,0.137-0.164c0.106-0.141,0.132-0.178,0.132-0.178c0.687-1.026,0.998-2.025,1.337-3.151
			c0.354-1.192,0.589-2.587,0.487-3.788c-0.128-1.661-0.62-3.113-1.221-4.619c-0.594-1.436-1.407-3.059-2.369-4.193
			c-0.121-0.137-0.161-0.18-0.161-0.18c-0.12-0.125-0.16-0.164-0.16-0.164c-0.12-0.112-0.159-0.148-0.159-0.148
			c-0.119-0.099-0.158-0.13-0.158-0.13c-0.137-0.099-0.156-0.112-0.156-0.112c-0.135-0.082-0.154-0.092-0.154-0.092
			c-0.133-0.064-0.152-0.072-0.152-0.072C657.93,285.212,657.912,285.207,657.875,285.198z"/>
	</g>
	<g id="POLYLINE_728_">
		
			<path fill="none" stroke="#FB8604" stroke-width="2.75" stroke-linecap="round" stroke-linejoin="round" stroke-miterlimit="10" d="
			M592.717,238.917c1.056-5.114,2.515-11.777,3.099-16.893c0.547-4.869,1.131-11.374,2.156-16.101
			c0.956-4.529,2.296-9.042,4.321-13.214c1.723-3.508,4.184-7.183,7.689-8.987c3.09-1.618,6.991-1.756,9.892,0.108
			c1.521,0.951,2.605,2.466,3.298,3.96c1.183,2.576,1.603,5.296,1.788,8.087c0.261,4.619-0.274,9.293-1.282,13.799
			c-0.728,3.246-1.759,6.52-2.89,9.649c-2.842,7.401-7.398,18.973-10.563,26.199"/>
	</g>
	<g id="POLYLINE_731_">
		
			<path fill="none" stroke="#FB8604" stroke-width="2.75" stroke-linecap="round" stroke-linejoin="round" stroke-miterlimit="10" d="
			M491.674,385.651c6.898-7.407,14.578-14.232,22.738-20.22"/>
	</g>
	<g id="POLYLINE_732_">
		
			<path fill="none" stroke="#FB8604" stroke-width="2.75" stroke-linecap="round" stroke-linejoin="round" stroke-miterlimit="10" d="
			M535.712,313.529l-1.801,4.012c-1.18,2.559-2.581,5.07-4.49,7.16c-2.352,2.62-6.082,4.986-8.912,7.088
			c-3.402,2.515-6.878,5.536-8.321,9.601c-1.129,3.124-1.253,6.524-0.996,9.807c0.458,5.401,1.95,10.704,3.768,15.793
			c1.355,3.597,3.528,9.081,4.534,12.692c1.444,4.989,2.472,10.395,3.328,15.522c0.826,5.118,1.538,10.726,1.941,15.892
			c0.274,3.693,0.459,7.517,0.277,11.216c-0.15,2.745-0.509,5.563-1.72,8.062c-1.349,2.824-3.68,4.762-5.632,7.093
			c-0.887,1.061-1.653,2.134-2.243,3.353c-0.521,1.054-0.897,2.358-1.013,3.473c-0.232,2.108,0.032,4.204,0.612,6.23
			c0.541,1.857,1.444,3.805,2.727,5.225c0.132,0.142,0.199,0.211,0.199,0.211c0.135,0.135,0.203,0.2,0.203,0.2
			c0.138,0.127,0.207,0.189,0.207,0.189c0.14,0.119,0.211,0.177,0.211,0.177c3.689,2.916,8.987,0.419,12.101-2.036
			c3.578-2.873,6.247-6.858,7.673-11.211c1.908-5.741,1.17-11.93,0.371-17.807c-2.413-15.519-5.013-32.269-5.384-47.927
			c-0.067-4.362-0.058-8.844,0.711-13.148c0.37-2.08,1.111-4.4,2.526-5.952c1.27-1.416,2.693-2.217,4.259-3.136
			c6.94-3.87,13.771-8.395,20.155-13.122c4.389-3.297,8.796-6.82,12.611-10.776c1.798-1.877,3.466-3.952,4.902-6.118
			c1.516-2.228,3.594-6.11,4.937-8.459c2.89-5.036,6.588-9.754,10.239-14.261l6.09-7.295"/>
	</g>
	<g id="POLYLINE_733_">
		
			<path fill="none" stroke="#FB8604" stroke-width="2.75" stroke-linecap="round" stroke-linejoin="round" stroke-miterlimit="10" d="
			M413.018,478.326c-11.648,22.856-23.798,47.11-38.184,68.322c-3.433,4.979-7.17,9.812-11.536,14.011
			c-3.446,3.372-7.173,6.563-11.298,9.076c-2.662,1.615-5.535,2.968-8.565,3.721c-1.165,0.289-2.364,0.489-3.561,0.574
			c-16.748,0.123-217.456,0.031-239.957,0.034c0,0-0.608-0.019-0.608-0.019s-0.587-0.026-0.587-0.026l-0.566-0.033l-0.545-0.041
			c0,0-0.265-0.023-0.265-0.023c-0.466-0.045-1.013-0.104-1.479-0.177c0,0-0.228-0.036-0.228-0.036s-0.223-0.038-0.223-0.038
			l-0.218-0.04l-0.213-0.042c0,0-0.208-0.043-0.208-0.043s-0.202-0.045-0.202-0.045s-0.197-0.047-0.197-0.047l-0.192-0.049
			c-0.512-0.131-1.076-0.327-1.494-0.522c-0.14-0.067-0.208-0.102-0.208-0.102c-0.132-0.07-0.196-0.106-0.196-0.106
			c-0.124-0.073-0.185-0.11-0.185-0.11c-0.117-0.076-0.173-0.114-0.173-0.114c-0.135-0.098-0.161-0.118-0.161-0.118
			c-0.125-0.102-0.15-0.122-0.15-0.122c-0.138-0.126-0.16-0.148-0.16-0.148c-0.124-0.131-0.144-0.154-0.144-0.154
			c-0.111-0.136-0.128-0.159-0.128-0.159c-0.097-0.141-0.112-0.165-0.112-0.165c-0.07-0.121-0.083-0.146-0.083-0.146
			c-0.06-0.125-0.072-0.15-0.072-0.15c-0.051-0.128-0.06-0.154-0.06-0.154c-0.041-0.132-0.048-0.158-0.048-0.158
			c-0.031-0.135-0.036-0.162-0.036-0.162c-0.021-0.138-0.025-0.167-0.025-0.167c-0.012-0.142-0.013-0.171-0.013-0.171
			c-0.002-0.116-0.002-0.145-0.002-0.145c0.003-0.088,0.006-0.147,0.006-0.147c0.009-0.117,0.015-0.176,0.015-0.176
			c0.015-0.117,0.023-0.175,0.023-0.175c0.02-0.116,0.032-0.174,0.032-0.174c0.026-0.115,0.041-0.173,0.041-0.173
			c0.032-0.115,0.049-0.172,0.049-0.172c0.038-0.114,0.058-0.171,0.058-0.171c0.043-0.113,0.066-0.17,0.066-0.17
			c0.049-0.113,0.075-0.169,0.075-0.169c0.055-0.112,0.084-0.168,0.084-0.168c0.061-0.111,0.092-0.167,0.092-0.167
			c0.066-0.111,0.101-0.166,0.101-0.166c0.072-0.11,0.11-0.165,0.11-0.165c0.078-0.109,0.118-0.164,0.118-0.164
			c0.084-0.109,0.127-0.163,0.127-0.163c0.686-0.831,1.406-1.36,2.197-1.879c0.749-0.479,1.553-0.898,2.361-1.269
			c2.516-1.157,5.224-1.936,7.924-2.528c3.602-0.792,7.488-1.359,11.151-1.81c5.084-0.627,11.169-1.078,16.291-1.504
			c7.902-0.674,19.649-1.992,27.549-2.968c13.049-1.63,58.64-8.581,70.621-9.241c7.089-0.484,15.13-0.758,22.262-0.711
			c13.044,0.05,26.851-0.749,39.839-1.962c9.051-0.868,18.479-1.879,27.359-3.746c2.524-0.554,5.112-1.178,7.558-2.007
			c1.546-0.515,3.161-1.17,4.577-1.974c6.13-3.523,11.097-8.879,14.697-14.924c2.258-3.876,3.867-8.136,5.039-12.458
			c1.829-6.864,2.684-14.241,3.455-21.302c0.627-6.426,1.088-13.449,1.187-19.895c0.04-4.093-0.075-8.681-0.255-12.772
			c-0.327-6.98-0.968-15.717-1.616-22.697c-0.582-5.885-1.323-13.168-1.645-19.022c-0.675-12.124-0.445-24.623,0.899-36.693
			c0.848-7.572,2.083-15.241,4.069-22.603c4.022-15.093,10.777-29.438,19.16-42.587c7.94-12.487,17.904-23.89,29.912-32.61
			c5.572-4.071,11.651-7.542,17.924-10.413c6.415-2.927,13.196-5.275,20.122-6.63c4.501-0.885,9.121-1.368,13.71-1.37
			c3.227-0.029,6.664,0.299,9.872,0.685c9.328,1.086,18.868,2.644,28.059,4.572c9.612,1.944,19.248,4.867,28.909,6.574
			c3.844,0.674,7.798,1.234,11.705,1.297c1.179,0.015,2.397-0.028,3.57-0.166c1.508-0.197,3.043-0.529,4.517-0.899
			c4.347-1.107,8.535-2.898,12.363-5.233c3.341-2.05,6.261-4.76,8.942-7.602c4.958-5.295,9.254-11.454,13.386-17.401
			c1.455-2.178,3.035-4.527,4.254-6.855c0,0,0.168-0.328,0.168-0.328s0.153-0.312,0.153-0.312s0.071-0.15,0.071-0.15
			s0.068-0.146,0.068-0.146c0.064-0.142,0.124-0.28,0.124-0.28c0.057-0.134,0.109-0.264,0.109-0.264
			c0.053-0.128,0.081-0.193,0.081-0.193c0.059-0.13,0.09-0.196,0.09-0.196c0.065-0.132,0.099-0.199,0.099-0.199
			c0.071-0.134,0.108-0.201,0.108-0.201c0.077-0.136,0.117-0.204,0.117-0.204c0.041-0.069,0.125-0.207,0.125-0.207
			c0.089-0.139,0.181-0.28,0.181-0.28c0.096-0.142,0.197-0.284,0.197-0.284c0.122-0.177,0.306-0.411,0.441-0.583
			c0.992-1.238,2.151-2.339,3.346-3.377c2.053-1.771,4.308-3.392,6.546-4.913"/>
	</g>
	<g id="POLYLINE_734_">
		
			<path fill="none" stroke="#FB8604" stroke-width="2.75" stroke-linecap="round" stroke-linejoin="round" stroke-miterlimit="10" d="
			M448.287,471.304c0.219,18.949-0.254,38.274-3.074,57.038c-0.681,4.61-1.75,9.526-2.611,14.113
			c-1.107,6.139-2.202,12.532-2.456,18.769c-0.055,2-0.054,4.204,0.427,6.129c0.335,1.264,0.906,2.388,1.676,3.322
			c0.122,0.143,0.184,0.214,0.184,0.214c0.127,0.139,0.192,0.207,0.192,0.207c0.132,0.134,0.199,0.2,0.199,0.2
			c0.137,0.129,0.207,0.193,0.207,0.193c1.775,1.581,3.975,2.203,6.223,2.466c16.002,0.324,114.669,0.056,132.742,0.102
			c1.644-0.05,3.342-0.164,4.964-0.452c1.202-0.215,2.489-0.555,3.494-1.154c0.106-0.066,0.157-0.099,0.157-0.099
			c0.1-0.068,0.149-0.102,0.149-0.102c0.14-0.105,0.185-0.141,0.185-0.141c0.128-0.109,0.169-0.146,0.169-0.146
			c0.117-0.113,0.154-0.151,0.154-0.151c0.122-0.137,0.139-0.156,0.139-0.156c0.109-0.141,0.123-0.162,0.123-0.162
			c1.379-2.073,1.612-4.532,1.399-6.876c-0.014-0.128-0.021-0.191-0.021-0.191c-0.018-0.125-0.028-0.186-0.028-0.186
			c-0.023-0.122-0.035-0.182-0.035-0.182c-0.027-0.119-0.042-0.177-0.042-0.177c-0.032-0.116-0.049-0.172-0.049-0.172
			c-0.036-0.112-0.056-0.168-0.056-0.168c-0.041-0.109-0.062-0.163-0.062-0.163c-0.045-0.106-0.069-0.159-0.069-0.159
			c-0.05-0.103-0.076-0.154-0.076-0.154c-0.055-0.1-0.083-0.149-0.083-0.149c-0.059-0.097-0.09-0.145-0.09-0.145
			c-0.097-0.14-0.131-0.186-0.131-0.186c-0.106-0.134-0.143-0.177-0.143-0.177c-0.115-0.128-0.155-0.169-0.155-0.169
			c-0.124-0.122-0.167-0.161-0.167-0.161c-0.133-0.115-0.179-0.153-0.179-0.153c-0.142-0.109-0.191-0.144-0.191-0.144
			c-0.1-0.069-0.152-0.103-0.152-0.103c-0.105-0.066-0.158-0.098-0.158-0.098c-0.109-0.063-0.165-0.094-0.165-0.094
			c-0.114-0.06-0.172-0.089-0.172-0.089c-0.119-0.057-0.179-0.084-0.179-0.084c-2.015-0.882-4.132-0.698-6.256-0.725
			c-4.527-0.073-9.084-0.727-13.469-1.845c-3.09-0.789-6.186-1.845-9.118-3.1c-1.477-0.618-2.981-1.41-4.474-1.984
			c-1.549-0.602-3.184-1.087-4.808-1.44c-3.267-0.726-6.667-0.898-10.007-0.839c-16.482,0.173-33.927,2.102-50.406,2.021
			c-1.521-0.03-3.154-0.091-4.67-0.245c-0.87-0.092-1.844-0.224-2.651-0.482c-0.137-0.047-0.203-0.072-0.203-0.072
			c-0.131-0.052-0.197-0.08-0.197-0.08c-0.13-0.059-0.195-0.091-0.195-0.091c-0.129-0.066-0.193-0.101-0.193-0.101
			c-0.128-0.073-0.192-0.111-0.192-0.111c-0.127-0.08-0.19-0.121-0.19-0.121c-0.126-0.087-0.189-0.132-0.189-0.132
			c-0.125-0.093-0.187-0.142-0.187-0.142c-0.124-0.1-0.185-0.152-0.185-0.152c-1.077-0.939-1.712-1.93-2.376-3.102
			c-0.698-1.263-1.263-2.66-1.747-4.021c-0.681-1.993-1.295-4.055-1.684-6.124c-0.554-3.056-0.745-6.274-0.839-9.378
			c-0.171-6.816,0.214-14.041,0.706-20.848c1.621-17.855,5.531-61.389,7.658-79.058c1.339-10.509,3.427-21.32,5.381-31.69
			c1.411-8.238,2.323-16.81,2.442-25.171c0.144-11.52-0.857-23.68-7.001-33.725c-2.209-3.596-5.091-6.787-8.231-9.593
			c-3.308-2.904-7.173-5.3-11.47-6.386c-4.221-0.996-8.634-1.115-12.952-0.952c-3.524,0.142-7.182,0.577-10.669,1.115
			c-0.832,0.148-2.348,0.361-3.165,0.579c-2.439,0.585-4.797,1.559-7.035,2.681c-3.011,1.517-5.903,3.386-8.643,5.348
			c-8.031,5.808-15.363,12.868-22.262,19.969"/>
	</g>
	<g id="POLYLINE_735_">
		
			<path fill="none" stroke="#FB8604" stroke-width="2.75" stroke-linecap="round" stroke-linejoin="round" stroke-miterlimit="10" d="
			M366.577,430.004c2.393,7.911,5.222,15.844,9.075,23.171c2.497,4.686,5.454,9.246,9.375,12.87c0.796,0.729,1.646,1.426,2.527,2.05
			c1.307,0.914,2.813,1.785,4.197,2.581c7.193,4.076,15.157,6.894,23.366,7.964c4.958,0.657,10.059,0.642,14.995-0.194
			c4.154-0.697,8.232-1.984,12.047-3.769c4.104-1.928,7.978-4.439,11.598-7.159c4.966-3.737,9.661-8.066,14.034-12.482"/>
	</g>
</g>
<g id="AG-OUTLINE">
	<g id="POLYLINE_204_">
		
			<path fill="none" stroke="#FB8604" stroke-width="3.5" stroke-linecap="round" stroke-linejoin="round" stroke-miterlimit="10" d="
			M615.164,233.575c2.547-6.477,6.24-14.927,7.95-21.591c1.255-4.755,1.998-9.706,1.906-14.631
			c-0.055-2.437-0.312-4.903-0.988-7.252c-0.565-1.975-1.541-4.003-2.978-5.349c-2.213-2.119-5.495-2.677-8.321-2.03
			c-1.913,0.417-3.662,1.362-5.059,2.559c-1.971,1.693-3.397,3.757-4.641,6c-1.631,2.988-2.833,6.23-3.785,9.492
			c-1.087-1.03-7.364-6.656-8.613-7.783c-1.659-1.532-3.525-3.314-5.072-4.942c-1.779-1.863-4.907-5.426-6.722-7.212
			c-2.27-2.238-4.824-4.44-7.931-5.359c-1.443-0.436-3.17-0.606-4.547-0.2c-0.114,0.035-0.171,0.053-0.171,0.053
			c-0.111,0.038-0.166,0.058-0.166,0.058c-0.109,0.042-0.162,0.064-0.162,0.064c-0.106,0.046-0.158,0.069-0.158,0.069
			c-0.103,0.049-0.153,0.075-0.153,0.075c-0.099,0.053-0.148,0.081-0.148,0.081c-0.143,0.086-0.19,0.116-0.19,0.116
			c-0.137,0.094-0.181,0.127-0.181,0.127c-0.129,0.102-0.171,0.137-0.171,0.137c-0.122,0.109-0.161,0.147-0.161,0.147
			c-0.114,0.117-0.14,0.144-0.14,0.144c-0.121,0.141-0.145,0.171-0.145,0.171c-0.09,0.12-0.112,0.15-0.112,0.15
			c-0.085,0.126-0.105,0.158-0.105,0.158c-0.079,0.131-0.098,0.165-0.098,0.165c-0.073,0.137-0.091,0.172-0.091,0.172
			c-0.668,1.43-0.647,2.91-0.596,4.407c0.114,3.235,2.296,14.614,2.808,18.008c0.857,4.846,1.819,9.854,3.282,14.555
			c0.805,2.551,1.771,5.095,3.13,7.407c1.245,2.132,2.942,4,4.941,5.448c2.441,1.811,5.498,3.093,8.261,4.341
			c-0.519,0.638-1.087,1.482-1.397,2.197c-0.759,1.886-1.873,3.65-2.942,5.368c-3.065,4.76-6.647,9.73-10.088,14.232
			c-3.785,4.793-7.89,9.491-12.911,13.021c-2.847,1.934-5.973,3.498-9.19,4.716c-1.996,0.749-4.081,1.36-6.163,1.814
			c-1.371,0.301-2.755,0.551-4.152,0.637c-2.99,0.178-6.057-0.087-9.026-0.461c-4.782-0.634-9.825-1.653-14.53-2.758
			c-5.398-1.291-11.19-2.834-16.618-3.994c-8.259-1.805-16.875-3.34-25.253-4.469c-5.789-0.75-11.781-1.596-17.624-1.354
			c-9.863,0.308-19.593,2.822-28.664,6.636c-5.75,2.44-11.396,5.356-16.629,8.766c-13.937,9.031-25.366,21.621-34.235,35.586
			c-4.461,7.005-8.516,14.433-11.878,22.028c-3.408,7.702-6.203,15.81-8.152,24.006c-1.357,5.672-2.294,11.602-2.995,17.388
			c-1.222,10.132-1.653,20.714-1.409,30.918c0.162,8.57,1.094,18.02,1.951,26.564c1.034,11.548,1.96,23.886,1.871,35.469
			c-0.172,9.529-0.958,19.467-2.276,28.907c-1.037,7.455-2.548,15.001-5.85,21.816c-1.632,3.419-3.798,6.606-6.261,9.48
			c-3.026,3.514-6.649,6.603-10.75,8.785c-1.581,0.806-3.28,1.404-4.97,1.936c-7.86,2.354-16.217,3.422-24.343,4.411
			c-14.073,1.57-28.847,2.669-43.011,2.899c-5.097,0.104-11.276-0.029-16.377,0.147c-7.774,0.195-15.97,0.785-23.69,1.701
			c-17.7,2.291-52.994,7.617-70.554,9.504c-8.332,0.944-19.729,1.898-28.133,2.637c-6.191,0.653-12.6,1.429-18.615,3.091
			c-1.339,0.375-2.759,0.885-4.044,1.432c0,0-0.429,0.188-0.429,0.188s-0.208,0.094-0.208,0.094s-0.205,0.095-0.205,0.095
			s-0.201,0.095-0.201,0.095s-0.197,0.096-0.197,0.096s-0.193,0.096-0.193,0.096s-0.189,0.097-0.189,0.097s-0.185,0.097-0.185,0.097
			s-0.182,0.098-0.182,0.098l-0.178,0.098c0,0-0.174,0.098-0.174,0.098s-0.17,0.099-0.17,0.099s-0.166,0.099-0.166,0.099
			s-0.162,0.1-0.162,0.1s-0.159,0.1-0.159,0.1l-0.155,0.101l-0.151,0.101c0,0-0.147,0.102-0.147,0.102
			c-0.143,0.102-0.283,0.204-0.283,0.204c-0.136,0.103-0.267,0.206-0.267,0.206c-0.128,0.104-0.252,0.208-0.252,0.208
			c-0.402,0.345-0.701,0.66-0.943,0.957c-0.086,0.109-0.127,0.163-0.127,0.163c-0.08,0.109-0.118,0.164-0.118,0.164
			c-0.074,0.11-0.11,0.165-0.11,0.165c-0.068,0.111-0.101,0.166-0.101,0.166c-0.063,0.111-0.092,0.167-0.092,0.167
			c-0.057,0.112-0.084,0.168-0.084,0.168c-0.051,0.112-0.075,0.169-0.075,0.169c-0.045,0.113-0.066,0.17-0.066,0.17
			c-0.039,0.114-0.058,0.171-0.058,0.171c-0.034,0.114-0.049,0.172-0.049,0.172c-0.028,0.115-0.041,0.173-0.041,0.173
			c-0.022,0.116-0.032,0.174-0.032,0.174c-0.016,0.116-0.023,0.175-0.023,0.175c-0.011,0.117-0.015,0.176-0.015,0.176
			c-0.005,0.118-0.006,0.147-0.006,0.147c0.001,0.117,0.002,0.145,0.002,0.145c0.01,0.143,0.013,0.171,0.013,0.171
			c0.02,0.139,0.025,0.167,0.025,0.167c0.03,0.136,0.036,0.162,0.036,0.162c0.039,0.132,0.048,0.158,0.048,0.158
			c0.049,0.129,0.06,0.154,0.06,0.154c0.059,0.125,0.072,0.15,0.072,0.15c0.069,0.122,0.083,0.146,0.083,0.146
			c0.095,0.142,0.112,0.165,0.112,0.165c0.109,0.137,0.128,0.159,0.128,0.159c0.122,0.132,0.144,0.154,0.144,0.154
			c0.136,0.127,0.16,0.148,0.16,0.148c0.124,0.102,0.15,0.122,0.15,0.122c0.106,0.079,0.161,0.118,0.161,0.118
			c0.114,0.076,0.173,0.114,0.173,0.114c0.122,0.074,0.185,0.11,0.185,0.11c0.13,0.071,0.196,0.106,0.196,0.106
			c0.965,0.486,1.91,0.698,2.932,0.889c1.255,0.223,2.616,0.322,3.893,0.373c40.124,0.046,197.572,0.094,240.564-0.016
			c1.197-0.086,2.396-0.286,3.561-0.575c3.03-0.753,5.903-2.106,8.565-3.721c4.124-2.513,7.853-5.704,11.298-9.076
			c1.617-1.615,3.363-3.393,4.833-5.145c2.354-2.763,4.627-5.888,6.703-8.866c14.378-21.197,26.559-45.489,38.184-68.322
			c12.656,2.15,24.438-0.099,35.269-7.022c0.219,18.949-0.254,38.274-3.074,57.038c-0.681,4.61-1.75,9.526-2.611,14.113
			c-1.107,6.139-2.202,12.532-2.456,18.769c-0.055,2-0.054,4.204,0.427,6.129c0.335,1.264,0.906,2.388,1.676,3.322
			c0.122,0.143,0.184,0.214,0.184,0.214c0.127,0.139,0.192,0.207,0.192,0.207c0.132,0.134,0.199,0.2,0.199,0.2
			c0.137,0.129,0.207,0.193,0.207,0.193c1.775,1.581,3.975,2.203,6.223,2.466c16.002,0.324,114.669,0.056,132.742,0.102
			c1.644-0.05,3.342-0.164,4.964-0.452c1.202-0.215,2.489-0.555,3.494-1.154c0.106-0.066,0.157-0.099,0.157-0.099
			c0.1-0.068,0.149-0.102,0.149-0.102c0.14-0.105,0.185-0.141,0.185-0.141c0.128-0.109,0.169-0.146,0.169-0.146
			c0.117-0.113,0.154-0.151,0.154-0.151c0.122-0.137,0.139-0.156,0.139-0.156c0.109-0.141,0.123-0.162,0.123-0.162
			c1.379-2.073,1.612-4.532,1.399-6.876c-0.014-0.128-0.021-0.191-0.021-0.191c-0.018-0.125-0.028-0.186-0.028-0.186
			c-0.023-0.122-0.035-0.182-0.035-0.182c-0.027-0.119-0.042-0.177-0.042-0.177c-0.032-0.116-0.049-0.172-0.049-0.172
			c-0.036-0.112-0.056-0.168-0.056-0.168c-0.041-0.109-0.062-0.163-0.062-0.163c-0.045-0.106-0.069-0.159-0.069-0.159
			c-0.05-0.103-0.076-0.154-0.076-0.154c-0.055-0.1-0.083-0.149-0.083-0.149c-0.059-0.097-0.09-0.145-0.09-0.145
			c-0.097-0.14-0.131-0.186-0.131-0.186c-0.106-0.134-0.143-0.177-0.143-0.177c-0.115-0.128-0.155-0.169-0.155-0.169
			c-0.124-0.122-0.167-0.161-0.167-0.161c-0.133-0.115-0.179-0.153-0.179-0.153c-0.142-0.109-0.191-0.144-0.191-0.144
			c-0.1-0.069-0.152-0.103-0.152-0.103c-0.105-0.066-0.158-0.098-0.158-0.098c-0.109-0.063-0.165-0.094-0.165-0.094
			c-0.114-0.06-0.172-0.089-0.172-0.089c-0.119-0.057-0.179-0.084-0.179-0.084c-2.015-0.882-4.132-0.698-6.256-0.725
			c-4.635-0.075-9.296-0.757-13.779-1.925c-3.125-0.815-6.227-1.894-9.188-3.184c-1.35-0.58-2.722-1.296-4.094-1.82
			c-1.549-0.602-3.184-1.087-4.808-1.44c-2.876-0.63-5.861-0.865-8.803-0.845c-16.899,0.08-34.714,2.113-51.609,2.027
			c-1.521-0.03-3.154-0.091-4.67-0.245c-0.87-0.092-1.844-0.224-2.651-0.482c-0.137-0.047-0.203-0.072-0.203-0.072
			c-0.131-0.052-0.197-0.08-0.197-0.08c-0.13-0.059-0.195-0.091-0.195-0.091c-0.129-0.066-0.193-0.101-0.193-0.101
			c-0.128-0.073-0.192-0.111-0.192-0.111c-0.127-0.08-0.19-0.121-0.19-0.121c-0.126-0.087-0.189-0.132-0.189-0.132
			c-0.125-0.093-0.187-0.142-0.187-0.142c-0.124-0.1-0.185-0.152-0.185-0.152c-1.143-0.999-1.789-2.046-2.485-3.302
			c-0.739-1.386-1.327-2.893-1.83-4.38c-0.551-1.683-1.068-3.442-1.418-5.178c-0.408-2.076-0.622-4.275-0.763-6.387
			c-0.294-4.649-0.206-9.604-0.03-14.266c0.576-14.837,5.261-58.516,6.584-73.931c1.04-11.851,2.828-24.337,5.006-36.033
			c1.449-7.307,2.937-15.128,3.67-22.542c6.898-7.407,14.578-14.232,22.738-20.22c0.909,2.702,3.127,8.215,4.034,10.923
			c0.906,2.667,1.7,5.546,2.33,8.291c1.639,7.204,2.815,14.837,3.599,22.185c0.487,4.916,0.873,10.014,0.688,14.95
			c-0.131,3.495-0.662,7.299-2.671,10.207c-1.306,1.965-3.2,3.674-4.706,5.48c-0.925,1.107-1.722,2.231-2.319,3.515
			c-0.547,1.147-0.898,2.549-0.979,3.753c-0.153,2.024,0.136,4.077,0.723,6.015c0.542,1.775,1.43,3.64,2.66,4.998
			c0.132,0.142,0.199,0.211,0.199,0.211c0.135,0.135,0.203,0.2,0.203,0.2c0.138,0.127,0.207,0.189,0.207,0.189
			c0.14,0.119,0.211,0.177,0.211,0.177c3.995,3.16,9.946-0.007,13.087-2.87c3.581-3.263,6.148-7.642,7.238-12.362
			c0.565-2.409,0.715-4.923,0.638-7.392c-0.065-5.481-3.123-23.223-3.856-28.89c-1.27-10.051-2.36-20.433-2.376-30.568
			c0.018-2.47,0.095-5.063,0.371-7.514c0.172-1.495,0.407-3.019,0.82-4.467c0.366-1.341,1.05-2.819,1.911-3.825
			c1.818-2.141,4.5-3.303,6.839-4.702c6.061-3.523,12.106-7.577,17.74-11.75c4.389-3.297,8.796-6.82,12.611-10.776
			c1.798-1.877,3.466-3.952,4.902-6.118c1.515-2.225,3.595-6.112,4.937-8.459c2.89-5.036,6.588-9.754,10.239-14.261l6.09-7.295
			c5.214,1.564,11.716,2.133,16.996,3.442c3.413,0.79,6.723,2.1,9.859,3.65l6.226,3.141c6.116,3.045,13.649,5.517,20.22,2.461
			c2.474-1.177,4.527-2.892,6.181-5.044c0.139,0.004,0.156,0.003,0.156,0.003c0.135-0.012,0.152-0.014,0.152-0.014
			c0.131-0.027,0.148-0.031,0.148-0.031c0.128-0.041,0.144-0.047,0.144-0.047c0.14-0.062,0.155-0.07,0.155-0.07
			c0.135-0.078,0.15-0.087,0.15-0.087c0.117-0.082,0.146-0.104,0.146-0.104c0.141-0.12,0.169-0.146,0.169-0.146
			c0.135-0.138,0.162-0.167,0.162-0.167c0.104-0.122,0.13-0.154,0.13-0.154c0.101-0.132,0.126-0.166,0.126-0.166
			c0.667-0.972,0.976-1.926,1.31-3.004c0.362-1.189,0.628-2.579,0.552-3.786c-0.088-1.586-0.524-2.96-1.073-4.408
			c-0.596-1.515-1.414-3.206-2.405-4.444c-0.116-0.139-0.155-0.184-0.155-0.184c-0.116-0.129-0.154-0.17-0.154-0.17
			c-0.115-0.118-0.154-0.155-0.154-0.155c-0.115-0.107-0.153-0.14-0.153-0.14c-0.114-0.094-0.151-0.124-0.151-0.124
			c-0.131-0.095-0.15-0.107-0.15-0.107c-0.13-0.079-0.148-0.089-0.148-0.089c-0.128-0.063-0.146-0.071-0.146-0.071
			c-3.283-5.234-7.893-10.954-11.095-16.233c-1.685-2.784-3.115-5.812-4.376-8.81c-1.171-2.746-2.54-6.418-4.089-8.94
			c-0.857-1.424-1.876-2.768-3.051-3.946c-2.691-2.674-6.1-4.626-9.371-6.504c-2.45-1.387-5.676-3.104-7.878-4.842L615.164,233.575z
			"/>
	</g>
</g>
</svg>
