<?xml version="1.0" encoding="utf-8"?>
<!-- Generator: Adobe Illustrator 24.2.1, SVG Export Plug-In . SVG Version: 6.00 Build 0)  -->
<!DOCTYPE svg PUBLIC "-//W3C//DTD SVG 1.1//EN" "http://www.w3.org/Graphics/SVG/1.1/DTD/svg11.dtd" [
	<!ENTITY ns_flows "http://ns.adobe.com/Flows/1.0/">
	<!ENTITY ns_extend "http://ns.adobe.com/Extensibility/1.0/">
	<!ENTITY ns_ai "http://ns.adobe.com/AdobeIllustrator/10.0/">
	<!ENTITY ns_graphs "http://ns.adobe.com/Graphs/1.0/">
	<!ENTITY ns_vars "http://ns.adobe.com/Variables/1.0/">
	<!ENTITY ns_imrep "http://ns.adobe.com/ImageReplacement/1.0/">
	<!ENTITY ns_sfw "http://ns.adobe.com/SaveForWeb/1.0/">
	<!ENTITY ns_custom "http://ns.adobe.com/GenericCustomNamespace/1.0/">
	<!ENTITY ns_adobe_xpath "http://ns.adobe.com/XPath/1.0/">
]>
<svg version="1.1" xmlns:x="&ns_extend;" xmlns:i="&ns_ai;" xmlns:graph="&ns_graphs;"
	 xmlns="http://www.w3.org/2000/svg" xmlns:xlink="http://www.w3.org/1999/xlink" xmlns:a="http://ns.adobe.com/AdobeSVGViewerExtensions/3.0/"
	 x="0px" y="0px" width="750px" height="750px" viewBox="0 0 750 750" enable-background="new 0 0 750 750" xml:space="preserve">
<metadata>
	<sfw  xmlns="&ns_sfw;">
		<slices></slices>
		<sliceSourceBounds  bottomLeftOrigin="true" height="12677.386" width="8058.342" x="-3961.342" y="-5120"></sliceSourceBounds>
	</sfw>
</metadata>
<g id="FILL-BACKGROUND">
	<rect fill="#FFFFFF" width="750" height="750"/>
</g>
<g id="N-TEXT">
</g>
<g id="N-DIMENSIONS">
</g>
<g id="AG-DETAIL-DIAGRAM">
</g>
<g id="AG-DIAGRAM">
	<g id="POLYLINE_715_">
		<g>
			<g>
				
					<line fill="none" stroke="#FB8604" stroke-width="3.25" stroke-linecap="round" stroke-linejoin="round" x1="117.361" y1="494.991" x2="119.361" y2="494.991"/>
				
					<line fill="none" stroke="#FB8604" stroke-width="3.25" stroke-linecap="round" stroke-linejoin="round" stroke-dasharray="3.9814,6.9674" x1="126.328" y1="494.991" x2="582.694" y2="494.991"/>
				
					<line fill="none" stroke="#FB8604" stroke-width="3.25" stroke-linecap="round" stroke-linejoin="round" x1="586.177" y1="494.991" x2="588.177" y2="494.991"/>
			</g>
		</g>
	</g>
</g>
<g id="AG-DETAILS">
	<g id="POLYLINE_579_">
		<path fill="none" stroke="#FB8604" stroke-width="2" stroke-linecap="round" stroke-linejoin="round" stroke-miterlimit="10" d="
			M275.671,277.512c-3.358,4.19-6.83,9.375-7.989,14.482c-0.066,0.331-0.095,0.495-0.095,0.495
			c-0.052,0.326-0.075,0.488-0.075,0.488c-0.038,0.321-0.054,0.48-0.054,0.48c-0.024,0.316-0.032,0.472-0.032,0.472
			c-0.008,0.31-0.009,0.463-0.009,0.463c0.011,0.378,0.015,0.453,0.015,0.453c0.031,0.37,0.04,0.443,0.04,0.443
			c0.052,0.36,0.065,0.431,0.065,0.431c0.074,0.351,0.091,0.42,0.091,0.42c0.097,0.34,0.118,0.407,0.118,0.407
			c0.12,0.329,0.146,0.394,0.146,0.394c0.144,0.318,0.175,0.38,0.175,0.38c0.205,0.366,0.242,0.425,0.242,0.425
			c0.235,0.342,0.277,0.397,0.277,0.397c0.315,0.377,0.363,0.429,0.363,0.429c0.355,0.356,0.409,0.406,0.409,0.406
			c0.335,0.29,0.452,0.384,0.452,0.384c0.365,0.274,0.492,0.363,0.492,0.363c0.26,0.175,0.393,0.26,0.393,0.26
			c4.219,2.57,9.372,3.23,13.494,5.589c0.258,0.157,0.383,0.237,0.383,0.237c0.362,0.246,0.478,0.331,0.478,0.331
			c0.332,0.259,0.385,0.304,0.385,0.304c0.351,0.318,0.398,0.365,0.398,0.365c0.31,0.336,0.351,0.385,0.351,0.385
			c0.266,0.355,0.3,0.407,0.3,0.407c0.206,0.351,0.233,0.402,0.233,0.402c0.165,0.364,0.186,0.417,0.186,0.417
			c0.112,0.325,0.129,0.38,0.129,0.38c0.086,0.337,0.099,0.394,0.099,0.394c0.062,0.348,0.07,0.407,0.07,0.407
			c0.039,0.358,0.048,0.48,0.048,0.48c0.015,0.37,0.017,0.495,0.017,0.495c-0.003,0.253-0.007,0.381-0.007,0.381
			c-0.059,1.363-0.361,2.651-0.613,3.713c-0.611,2.432-1.669,5.96-1.661,8.35c-0.001,0.289,0.002,0.434,0.002,0.434
			c0.011,0.287,0.019,0.429,0.019,0.429c0.023,0.284,0.037,0.425,0.037,0.425c0.035,0.28,0.056,0.42,0.056,0.42
			c0.049,0.277,0.077,0.414,0.077,0.414c0.07,0.301,0.091,0.383,0.091,0.383c0.093,0.325,0.119,0.405,0.119,0.405
			c0.11,0.32,0.14,0.4,0.14,0.4c0.126,0.316,0.16,0.395,0.16,0.395c0.142,0.312,0.217,0.467,0.217,0.467
			c0.159,0.308,0.243,0.46,0.243,0.46c0.176,0.304,0.268,0.454,0.268,0.454c0.192,0.3,0.292,0.449,0.292,0.449
			c0.207,0.296,0.314,0.444,0.314,0.444c2.066,2.759,5.172,5.192,7.598,7.442c2.086,1.891,4.292,4.226,5.556,6.367
			c0.217,0.37,0.323,0.557,0.323,0.557c0.429,0.793,0.594,1.167,0.832,1.745c0.985,2.476,1.229,5.072,1.247,7.452
			c0.007,2.994-0.352,5.877-0.782,8.816c-0.49,3.183-1.543,9.216-1.813,12.356c-0.271,2.813-0.32,6.08,0.332,8.687
			c0.097,0.377,0.149,0.564,0.149,0.564c0.11,0.369,0.169,0.551,0.169,0.551c0.123,0.361,0.187,0.54,0.187,0.54
			c2.331,6.43,8.573,10.342,11.319,16.285c0.135,0.313,0.2,0.471,0.2,0.471c0.124,0.318,0.182,0.478,0.182,0.478
			c0.111,0.324,0.163,0.487,0.163,0.487c0.106,0.358,0.155,0.539,0.155,0.539c0.091,0.365,0.133,0.55,0.133,0.55
			c0.077,0.372,0.111,0.559,0.111,0.559c0.903,5.296-0.727,11.614-1.472,16.853c-0.434,2.919-0.762,6.141-0.417,9.053
			c0.442,3.98,2.209,7.75,4.126,10.895c1.874,3.129,5.428,7.866,7.492,10.906c4.887,7.172,11.041,18.233,10.29,27.07
			c-0.087,0.885-0.208,1.491-0.349,2.085c-1.225,4.979-4.843,8.64-8.281,11.898"/>
	</g>
	<g id="POLYLINE_577_">
		<path fill="none" stroke="#FB8604" stroke-width="2" stroke-linecap="round" stroke-linejoin="round" stroke-miterlimit="10" d="
			M499.964,332.114c-1.364,4.565-2.366,9.325-2.836,14.068c-0.368,3.785-0.407,7.643,0.12,11.415c0.368,2.737,1.2,5.815,2.325,8.168
			c1.085,2.383,2.854,4.707,4.412,6.384c4.598,4.974,10.881,9.083,14.873,14.387c3.62,4.667,4.767,10.131,5.549,15.757
			c0.718,4.964,0.97,11.792,2.607,16.51c0.136,0.366,0.207,0.545,0.207,0.545c0.146,0.351,0.222,0.523,0.222,0.523
			c0.157,0.336,0.238,0.499,0.238,0.499c0.168,0.319,0.223,0.418,0.223,0.418c0.169,0.289,0.227,0.383,0.227,0.383
			c0.239,0.365,0.3,0.453,0.3,0.453c0.254,0.343,0.319,0.425,0.319,0.425c0.268,0.32,0.337,0.397,0.337,0.397
			c0.355,0.369,0.428,0.44,0.428,0.44c0.375,0.335,0.453,0.398,0.453,0.398c0.315,0.243,0.395,0.3,0.395,0.3
			c0.328,0.22,0.411,0.271,0.411,0.271c0.34,0.196,0.426,0.242,0.426,0.242c0.352,0.173,0.441,0.213,0.441,0.213
			c0.363,0.149,0.456,0.183,0.456,0.183c0.375,0.125,0.47,0.154,0.47,0.154c0.288,0.078,0.385,0.101,0.385,0.101
			c0.294,0.063,0.394,0.082,0.394,0.082c0.3,0.049,0.402,0.063,0.402,0.063c0.306,0.034,0.409,0.043,0.409,0.043
			c0.312,0.02,0.417,0.024,0.417,0.024c0.317,0.005,0.424,0.004,0.424,0.004c0.323-0.01,0.431-0.016,0.431-0.016
			c0.328-0.025,0.438-0.036,0.438-0.036c0.332-0.04,0.444-0.056,0.444-0.056c0.337-0.055,0.45-0.076,0.45-0.076
			c0.342-0.07,0.456-0.096,0.456-0.096c0.346-0.085,0.462-0.116,0.462-0.116c0.35-0.101,0.467-0.137,0.467-0.137
			c2.491-0.804,4.4-2.076,6.326-3.47c2.422-1.792,4.761-3.905,6.962-5.964c6.09-5.679,13.242-13.494,20.413-17.697
			c3.961-2.317,8.166-3.218,12.409-4.329c1.042-0.278,2.48-0.742,3.296-1.103c0.379-0.168,0.504-0.226,0.504-0.226
			c0.369-0.181,0.49-0.243,0.49-0.243c0.358-0.195,0.475-0.262,0.475-0.262c0.346-0.21,0.46-0.283,0.46-0.283
			c0.335-0.227,0.444-0.306,0.444-0.306c0.323-0.245,0.428-0.331,0.428-0.331c0.31-0.265,0.412-0.357,0.412-0.357
			c0.298-0.286,0.395-0.385,0.395-0.385c0.305-0.331,0.404-0.446,0.404-0.446c0.291-0.356,0.385-0.478,0.385-0.478
			c1.534-2.088,2.275-4.007,3.148-6.139c1.629-4.163,3.39-9.553,6.267-12.84c0.241-0.273,0.363-0.406,0.363-0.406
			c0.25-0.262,0.379-0.393,0.379-0.393c0.264-0.255,0.398-0.381,0.398-0.381c0.273-0.245,0.412-0.365,0.412-0.365
			c5.386-4.474,12.801-5.262,18.076-9.523c0.284-0.236,0.423-0.356,0.423-0.356c0.275-0.246,0.41-0.372,0.41-0.372
			c0.265-0.257,0.396-0.388,0.396-0.388c0.256-0.268,0.381-0.405,0.381-0.405c0.258-0.294,0.39-0.452,0.39-0.452
			c0.258-0.323,0.384-0.488,0.384-0.488c0.245-0.337,0.365-0.509,0.365-0.509c0.233-0.35,0.346-0.528,0.346-0.528
			c0.221-0.363,0.328-0.547,0.328-0.547c1.525-2.721,2.196-5.331,2.649-8.226c0.406-2.788,0.462-5.647,0.26-8.455
			c-0.382-5.424-1.864-11.334-4.596-15.973c-2.472-4.218-5.386-7.184-8.825-10.307c-3.402-3.04-7.704-6.493-11.29-9.335
			c-10.573-8.206-21.843-15.996-34.349-20.94"/>
	</g>
	<g id="POLYLINE_576_">
		<path fill="none" stroke="#FB8604" stroke-width="2" stroke-linecap="round" stroke-linejoin="round" stroke-miterlimit="10" d="
			M486.831,325.206c-0.746-5.772-1.2-12.513,1.636-17.661c0.214-0.378,0.288-0.503,0.288-0.503c0.234-0.377,0.315-0.502,0.315-0.502
			c2.671-4.018,6.911-6.809,9.645-10.605c0.251-0.361,0.331-0.482,0.331-0.482c0.234-0.367,0.31-0.49,0.31-0.49
			c0.217-0.373,0.286-0.499,0.286-0.499c0.133-0.253,0.198-0.38,0.198-0.38c0.124-0.257,0.183-0.386,0.183-0.386
			c0.113-0.261,0.167-0.392,0.167-0.392c0.102-0.265,0.15-0.399,0.15-0.399c0.091-0.269,0.133-0.405,0.133-0.405
			c0.079-0.274,0.115-0.412,0.115-0.412c0.066-0.279,0.099-0.434,0.099-0.434c0.058-0.313,0.083-0.471,0.083-0.471
			c0.043-0.319,0.061-0.48,0.061-0.48c0.029-0.324,0.039-0.488,0.039-0.488c0.015-0.329,0.019-0.496,0.019-0.496
			c0.002-0.334,0-0.503,0-0.503c-0.072-2.417-0.613-4.442-1.197-6.454c-0.668-2.251-2.051-5.963-2.794-8.203
			c-0.867-2.588-1.658-5.477-1.556-8.02c0.084-3.8,1.68-7.021,2.969-10.404"/>
	</g>
	<g id="POLYLINE_575_">
		<path fill="none" stroke="#FB8604" stroke-width="2" stroke-linecap="round" stroke-linejoin="round" stroke-miterlimit="10" d="
			M638.057,383.167c-0.645,0.945-1.834,2.512-2.463,3.454c-0.798,1.154-1.472,2.422-1.931,3.414
			c-0.892,1.967-1.383,3.503-1.971,5.481c-0.754,2.606-1.398,5.46-1.909,8.126c-1.363,7.253-2.116,14.749-2.087,22.132
			c0.047,5.632,0.532,11.342,2.019,16.79"/>
	</g>
	<g id="POLYLINE_563_">
		<path fill="none" stroke="#FB8604" stroke-width="2" stroke-linecap="round" stroke-linejoin="round" stroke-miterlimit="10" d="
			M635.888,378.161c-2.88,2.17-6.731,4.878-8.995,7.384c-3.444,3.651-6.189,7.987-8.73,12.298
			c-9.073,15.775-17.702,37.623-18.314,55.898"/>
	</g>
	<g id="POLYLINE_562_">
		<path fill="none" stroke="#FB8604" stroke-width="2" stroke-linecap="round" stroke-linejoin="round" stroke-miterlimit="10" d="
			M634.72,367.65l-6.429,2.501c-3.961,1.593-7.896,3.453-11.495,5.758c-5.889,3.742-11.044,8.602-15.768,13.708
			c-7.494,8.173-14.152,17.318-19.75,26.887c-4.869,8.404-9.058,17.339-11.627,26.727"/>
	</g>
</g>
<g id="X-VPRT">
</g>
<g id="AG-ANIMALS">
	<g id="POLYLINE_686_">
		
			<path fill="none" stroke="#FB8604" stroke-width="2.75" stroke-linecap="round" stroke-linejoin="round" stroke-miterlimit="10" d="
			M414.935,494.663c37.28,0.306,86.492,0.565,123.69,0.196c3.122-0.186,6.734-0.637,9.484-1.68c0.256-0.099,0.381-0.15,0.381-0.15
			c0.366-0.156,0.484-0.209,0.484-0.209c0.345-0.164,0.457-0.22,0.457-0.22c0.325-0.172,0.43-0.23,0.43-0.23
			c0.305-0.18,0.403-0.241,0.403-0.241c0.375-0.251,0.465-0.316,0.465-0.316c0.341-0.265,0.422-0.333,0.422-0.333
			c0.38-0.349,0.451-0.421,0.451-0.421c0.329-0.369,0.359-0.407,0.359-0.407c0.256-0.348,0.282-0.387,0.282-0.387
			c0.217-0.363,0.239-0.404,0.239-0.404c0.142-0.292,0.216-0.462,0.216-0.462c0.141-0.34,0.208-0.51,0.208-0.51
			c0.127-0.342,0.187-0.513,0.187-0.513c0.113-0.344,0.167-0.516,0.167-0.516c0.099-0.345,0.146-0.518,0.146-0.518
			c0.085-0.347,0.125-0.521,0.125-0.521c0.071-0.349,0.104-0.524,0.104-0.524c0.057-0.351,0.083-0.526,0.083-0.526
			c0.044-0.352,0.062-0.529,0.062-0.529c0.03-0.354,0.041-0.531,0.041-0.531c0.016-0.356,0.02-0.534,0.02-0.534
			c0.002-0.358-0.001-0.537-0.001-0.537c-0.012-0.359-0.022-0.539-0.022-0.539c-0.026-0.361-0.043-0.542-0.043-0.542
			c-0.04-0.363-0.064-0.545-0.064-0.545c-0.054-0.365-0.085-0.547-0.085-0.547c-0.068-0.366-0.106-0.55-0.106-0.55
			c-0.238-1.122-0.564-2.073-0.842-2.789c-0.151-0.372-0.23-0.554-0.23-0.554c-0.164-0.358-0.248-0.533-0.248-0.533
			c-0.176-0.344-0.267-0.512-0.267-0.512c-0.188-0.33-0.285-0.491-0.285-0.491c-0.201-0.316-0.304-0.47-0.304-0.47
			c-0.213-0.302-0.323-0.449-0.323-0.449c-0.225-0.288-0.341-0.428-0.341-0.428c-0.238-0.274-0.36-0.408-0.36-0.408
			c-0.25-0.26-0.378-0.387-0.378-0.387c-0.262-0.246-0.397-0.366-0.397-0.366c-0.275-0.232-0.415-0.345-0.415-0.345
			c-0.287-0.218-0.434-0.324-0.434-0.324c-0.299-0.204-0.452-0.303-0.452-0.303c-0.312-0.19-0.471-0.282-0.471-0.282
			c-0.324-0.176-0.489-0.261-0.489-0.261c-0.336-0.162-0.508-0.24-0.508-0.24c-0.349-0.148-0.526-0.219-0.526-0.219
			c-0.361-0.134-0.545-0.198-0.545-0.198c-1.056-0.36-1.972-0.516-2.846-0.675c-6.956-1.235-24.331-3.338-31.545-4.295"/>
	</g>
	<g id="POLYLINE_693_">
		
			<path fill="none" stroke="#FB8604" stroke-width="2.75" stroke-linecap="round" stroke-linejoin="round" stroke-miterlimit="10" d="
			M654.788,370.797c0.483-4.214,0.268-8.518-0.421-12.697c-1.501-8.669-5.18-16.838-9.555-24.416
			c-4.119-7.091-9.255-13.617-14.829-19.617c-4.524-4.83-9.51-9.608-14.599-13.843c-6.29-5.106-13.359-9.363-20.559-13.051
			c-10.373-5.297-21.544-9.612-32.586-13.309"/>
	</g>
	<g id="POLYLINE_694_">
		
			<path fill="none" stroke="#FB8604" stroke-width="2.75" stroke-linecap="round" stroke-linejoin="round" stroke-miterlimit="10" d="
			M317.206,491.002c10.972,1.941,22.23,3.392,33.368,3.849c3.277,0.268,44.007,0.094,48.418,0.14
			c5.98-0.01,13.347-0.159,19.303-0.496c5.277-0.298,10.859-0.775,16.096-1.489c7.332-1.105,15.035-2.449,22.433-3.025
			c4.563-0.424,9.256-0.256,13.813-0.756c1.573-0.162,3.506-0.45,4.993-0.79c1.7-0.375,2.931-0.883,4.319-1.144
			c0.374-0.069,0.495-0.089,0.495-0.089c0.351-0.051,0.465-0.064,0.465-0.064c0.329-0.032,0.435-0.04,0.435-0.04
			c0.306-0.014,0.405-0.016,0.405-0.016c0.375,0.009,0.42,0.012,0.42,0.012c0.341,0.036,0.382,0.042,0.382,0.042
			c0.38,0.083,0.415,0.094,0.415,0.094c0.359,0.14,0.389,0.155,0.389,0.155c0.38,0.26,0.391,0.271,0.391,0.271
			c0.345,0.372,0.357,0.382,0.357,0.382c0.356,0.248,0.388,0.265,0.388,0.265c0.343,0.152,0.381,0.165,0.381,0.165
			c0.361,0.107,0.404,0.117,0.404,0.117c0.363,0.071,0.46,0.086,0.46,0.086c0.303,0.036,0.408,0.046,0.408,0.046
			c0.329,0.021,0.443,0.026,0.443,0.026c2.37,0.031,4.297-0.41,6.369-0.833c2.5-0.541,5.42-1.429,7.649-2.482
			c0.377-0.2,0.44-0.238,0.44-0.238c0.319-0.212,0.383-0.259,0.383-0.259c0.323-0.254,0.388-0.309,0.388-0.309
			c0.327-0.296,0.392-0.36,0.392-0.36c0.331-0.338,0.464-0.483,0.464-0.483c0.268-0.307,0.403-0.469,0.403-0.469
			c0.271-0.341,0.408-0.519,0.408-0.519c2.487-3.435,4.002-7.1,5.586-10.949c1.449-3.88,3.181-7.731,5.339-11.269
			c2.209-3.67,4.835-7.154,7.711-10.327c2.934-3.242,6.319-6.305,9.646-9.142c4.748-3.988,9.854-7.684,15.372-10.532
			c5.371-2.754,11.233-4.715,17.019-6.403c6.828-2.002,15.432-3.792,22.423-5.386c6.694-1.551,15.492-3.671,22.083-5.499
			c7.034-1.967,14.064-4.427,20.429-8.052c3.704-2.122,7.193-4.968,9.86-8.254c1.057-1.261,1.996-2.715,2.89-4.093
			c1.678-2.546,3.563-5.18,5.437-7.587"/>
	</g>
	<g id="POLYLINE_695_">
		
			<path fill="none" stroke="#FB8604" stroke-width="2.75" stroke-linecap="round" stroke-linejoin="round" stroke-miterlimit="10" d="
			M647.276,385.298c-0.37-0.221-0.387-0.235-0.387-0.235c-0.337-0.366-0.352-0.386-0.352-0.386c-0.21-0.337-0.236-0.386-0.236-0.386
			c-0.172-0.37-0.195-0.427-0.195-0.427c-0.13-0.357-0.15-0.419-0.15-0.419c-0.096-0.323-0.132-0.457-0.132-0.457
			c-0.067-0.277-0.099-0.42-0.099-0.42c-0.354-1.719-0.388-3.426-0.38-4.851c0.026-1.689,0.135-3.161,0.376-4.513
			c0.102-0.555,0.203-0.949,0.279-1.225c0.114-0.377,0.154-0.498,0.154-0.498c0.129-0.353,0.174-0.466,0.174-0.466
			c0.17-0.38,0.195-0.432,0.195-0.432c0.189-0.348,0.217-0.395,0.217-0.395c0.24-0.355,0.272-0.397,0.272-0.397
			c0.338-0.379,0.374-0.413,0.374-0.413c0.361-0.288,0.382-0.301,0.382-0.301c0.369-0.202,0.404-0.218,0.404-0.218
			c0.363-0.129,0.401-0.14,0.401-0.14c0.346-0.075,0.386-0.081,0.386-0.081c0.361-0.039,0.402-0.041,0.402-0.041
			c0.33-0.006,0.414-0.004,0.414-0.004c0.337,0.021,0.422,0.03,0.422,0.03c0.341,0.046,0.426,0.06,0.426,0.06
			c0.341,0.068,0.427,0.087,0.427,0.087c0.339,0.087,0.423,0.111,0.423,0.111c0.333,0.104,0.416,0.132,0.416,0.132
			c0.325,0.118,0.404,0.149,0.404,0.149c0.313,0.13,0.465,0.198,0.465,0.198c0.294,0.141,0.415,0.202,0.415,0.202
			c0.347,0.19,0.402,0.223,0.402,0.223c0.368,0.238,0.418,0.274,0.418,0.274c0.373,0.298,0.416,0.337,0.416,0.337
			c0.357,0.375,0.393,0.419,0.393,0.419c0.261,0.375,0.29,0.425,0.29,0.425c0.182,0.366,0.205,0.421,0.205,0.421
			c0.121,0.346,0.138,0.406,0.138,0.406c0.082,0.348,0.091,0.398,0.091,0.398c0.052,0.364,0.058,0.418,0.058,0.418
			c0.021,0.275,0.026,0.388,0.026,0.388c0.004,0.348,0.002,0.467,0.002,0.467c-0.018,0.366-0.028,0.49-0.028,0.49
			c-0.025,0.253-0.04,0.381-0.04,0.381c-0.036,0.26-0.056,0.391-0.056,0.391c-0.405,2.392-1.443,4.559-2.637,6.306
			c-0.265,0.374-0.355,0.496-0.355,0.496c-0.276,0.362-0.37,0.48-0.37,0.48c-0.286,0.347-0.382,0.46-0.382,0.46
			c-0.293,0.33-0.391,0.436-0.391,0.436c-0.298,0.309-0.397,0.408-0.397,0.408c-0.3,0.286-0.401,0.377-0.401,0.377
			c-0.301,0.259-0.401,0.341-0.401,0.341c-0.299,0.23-0.399,0.302-0.399,0.302c-0.345,0.229-0.393,0.259-0.393,0.259
			c-0.338,0.188-0.385,0.212-0.385,0.212c-0.374,0.161-0.42,0.177-0.42,0.177c-0.38,0.103-0.402,0.107-0.402,0.107
			c-0.379,0.032-0.4,0.031-0.4,0.031C647.385,385.336,647.367,385.331,647.276,385.298z"/>
	</g>
	<g id="POLYLINE_696_">
		
			<path fill="none" stroke="#FB8604" stroke-width="2.75" stroke-linecap="round" stroke-linejoin="round" stroke-miterlimit="10" d="
			M469.803,305.948c3.869,6.19,8.292,12.625,14,17.202c1.81,1.426,3.242,2.187,5.075,3.202c3.61,1.985,8.155,4.318,11.852,6.14
			c0,0,5.494,2.648,5.494,2.648l0.713,0.331l0.712,0.317c1.344,0.59,2.85,1.16,4.247,1.615c4.604,1.494,9.345,2.135,13.847,1.816
			c10.749-0.826,20.495-6.079,28.619-12.9c4.184-3.556,7.921-7.687,11.107-12.158c2.298-3.192,4.624-7.03,6.014-10.56
			c1.682-4.182,2.362-8.54,1.35-12.65c-1.388-5.106-3.961-9.217-7.158-13.218c-1.812-2.186-4.14-4.774-6.25-6.55
			c-3.786-3.173-7.742-4.987-12.212-6.257c-3.589-0.993-7.337-1.472-11.054-1.615c-3.895-0.144-8.07-0.516-11.929-1.045
			c-5.157-0.712-10.479-1.826-15.491-3.227c-3.158-0.909-6.422-2.009-9.625-2.719c-6.299-1.445-12.816-2.107-19.273-2.19
			c-9.474-0.103-19.021,0.877-28.233,3.117c-4.122,1.003-8.273,2.283-12.24,3.785c-2.89,1.07-5.8,2.436-8.651,3.6
			c-5.15,2.085-10.65,3.849-16.02,5.301c-16.259,4.351-33.218,6.664-50.017,7.471c-17.741,0.952-36.817,0.487-54.598,0.059
			c-18.243-0.285-38.669-0.012-56.903,0.697c-18.175,0.852-37.664,1.256-55.429,5.432c-10.955,2.572-21.926,6.423-30.916,13.364
			c-2.273,1.751-3.652,3.146-5.47,4.973c-1.68,1.708-3.485,3.736-5.03,5.566c-5.841,6.977-10.827,14.78-15.069,22.82
			c-4.918,9.26-8.905,19.227-12.416,29.1c-4.529,12.779-8.422,26.206-11.129,39.495c-2.706,13.682-4.707,27.8-4.042,41.775
			c0.279,5.115,0.908,10.309,2.225,15.268c0.707,2.8,1.761,5.569,2.865,8.234c4.582,11.06,12.066,22.509,23.309,27.196
			c3.969,1.715,8.233,2.713,12.521,3.206c2.004,0.241,4.201,0.354,6.223,0.393c29.777-0.059,106.939,0.141,137.687-0.065
			c3.224-0.131,6.566-0.317,9.751-0.828c2.1-0.309,4.77-0.929,6.639-1.747c0.332-0.149,0.493-0.225,0.493-0.225
			c0.311-0.155,0.462-0.234,0.462-0.234c0.29-0.161,0.43-0.244,0.43-0.244c0.335-0.21,0.399-0.253,0.399-0.253
			c0.368-0.262,0.427-0.307,0.427-0.307c0.332-0.273,0.384-0.319,0.384-0.319c0.342-0.332,0.387-0.38,0.387-0.38
			c0.293-0.346,0.332-0.396,0.332-0.396c0.245-0.36,0.277-0.413,0.277-0.413c0.197-0.375,0.221-0.429,0.221-0.429
			c0.13-0.333,0.148-0.389,0.148-0.389c0.093-0.343,0.106-0.401,0.106-0.401c0.057-0.354,0.063-0.414,0.063-0.414
			c0.021-0.365,0.021-0.426,0.021-0.426c-0.016-0.375-0.021-0.439-0.021-0.439c-0.854-4.898-1.962-9.83-3.421-14.567
			c-0.119-0.355-0.151-0.442-0.151-0.442c-0.135-0.344-0.17-0.428-0.17-0.428c-0.15-0.333-0.19-0.415-0.19-0.415
			c-0.166-0.322-0.21-0.401-0.21-0.401c-0.182-0.311-0.229-0.387-0.229-0.387c-0.249-0.374-0.301-0.447-0.301-0.447
			c-0.272-0.357-0.329-0.427-0.329-0.427c-0.296-0.341-0.357-0.407-0.357-0.407c-0.319-0.324-0.385-0.388-0.385-0.388
			c-0.342-0.308-0.413-0.368-0.413-0.368c-0.366-0.291-0.441-0.348-0.441-0.348c-0.31-0.221-0.389-0.275-0.389-0.275
			c-0.326-0.21-0.409-0.261-0.409-0.261c-0.255-0.15-0.428-0.248-0.428-0.248c-0.357-0.188-0.54-0.279-0.54-0.279
			c-2.021-0.976-4.12-1.383-6.096-1.62c-3.058-0.351-6.067-0.082-8.792,0.722c-1.528,0.447-2.924,1.046-4.123,1.673
			c-1.448,0.783-2.47,1.458-3.793,2.076c-2.305,1.113-4.764,2.034-7.191,2.844c-5.479,1.805-11.296,3.22-16.937,4.42
			c-3.788,0.748-8.06,1.63-11.879,1.531c-0.339-0.02-0.448-0.028-0.448-0.028c-0.313-0.031-0.413-0.043-0.413-0.043
			c-0.379-0.058-0.468-0.074-0.468-0.074c-0.375-0.086-0.414-0.097-0.414-0.097c-0.36-0.12-0.393-0.133-0.393-0.133
			c-0.354-0.177-0.38-0.193-0.38-0.193c-0.375-0.33-0.391-0.351-0.391-0.351c-0.178-0.359-0.184-0.384-0.184-0.384
			c-0.034-0.366-0.033-0.393-0.033-0.393c0.004-0.376,0.002-0.401,0.002-0.401c-0.083-0.374-0.091-0.396-0.091-0.396
			c-0.22-0.368-0.235-0.385-0.235-0.385c-0.374-0.299-0.396-0.311-0.396-0.311c-0.376-0.164-0.404-0.173-0.404-0.173
			c-0.361-0.093-0.426-0.106-0.426-0.106c-0.346-0.05-0.419-0.057-0.419-0.057c-0.307-0.021-0.387-0.024-0.387-0.024
			c-0.335-0.003-0.422-0.002-0.422-0.002c-3.823,0.189-7.094,1.575-10.7,2.538c-2.534,0.685-5.168,1.23-7.765,1.609
			c-3.852,0.561-7.795,0.784-11.686,0.689c-2.422-0.073-5.233-0.2-7.534-0.736c-0.37-0.096-0.457-0.121-0.457-0.121
			c-0.332-0.103-0.41-0.13-0.41-0.13c-0.363-0.139-0.43-0.167-0.43-0.167c-0.362-0.18-0.389-0.196-0.389-0.196
			c-0.369-0.261-0.389-0.278-0.389-0.278c-0.292-0.379-0.301-0.398-0.301-0.398c-0.076-0.378-0.075-0.399-0.075-0.399
			c0.084-0.367,0.094-0.389,0.094-0.389c0.211-0.37,0.229-0.394,0.229-0.394c0.315-0.368,0.365-0.419,0.365-0.419
			c0.36-0.351,0.407-0.399,0.407-0.399c0.316-0.359,0.349-0.4,0.349-0.4c0.234-0.364,0.243-0.382,0.243-0.382
			c0.091-0.37,0.09-0.383,0.09-0.383c-0.303-0.376-0.319-0.383-0.319-0.383c-0.365-0.102-0.388-0.105-0.388-0.105
			c-0.334-0.033-0.391-0.035-0.391-0.035c-0.375-0.001-0.442,0.001-0.442,0.001c-0.362,0.021-0.517,0.034-0.517,0.034
			c-1.748,0.174-3.189,0.553-4.815,0.912c-0.3,0.053-0.454,0.076-0.454,0.076c-0.315,0.041-0.477,0.059-0.477,0.059
			c-0.331,0.03-0.5,0.042-0.5,0.042c-2.181,0.112-3.733-0.094-5.76-0.417c-2.157-0.367-4.406-0.93-6.514-1.527
			c-8.301-2.403-16.578-5.868-24.486-9.346"/>
	</g>
</g>
<g id="AG-OUTLINE">
	<g id="POLYLINE_481_">
		
			<path fill="none" stroke="#FB8604" stroke-width="3.5" stroke-linecap="round" stroke-linejoin="round" stroke-miterlimit="10" d="
			M654.788,370.797c0.483-4.214,0.268-8.518-0.421-12.697c-1.501-8.669-5.18-16.838-9.555-24.416
			c-4.119-7.091-9.255-13.617-14.829-19.617c-4.524-4.83-9.51-9.608-14.599-13.843c-6.29-5.106-13.359-9.363-20.559-13.051
			c-10.373-5.297-21.544-9.612-32.586-13.309c-6.033-6.556-14.111-9.499-22.647-10.321c-2.316-0.238-5.096-0.271-7.438-0.449
			c-5.214-0.367-10.612-1.117-15.727-2.179c-3.122-0.641-6.537-1.524-9.589-2.426c-3.301-1.063-6.716-2.021-10.116-2.679
			c-7.995-1.582-16.281-1.939-24.411-1.53c-8.511,0.429-17.032,1.785-25.216,4.171c-3.692,1.075-7.418,2.389-10.966,3.871
			c-4.049,1.781-8.228,3.517-12.432,4.901c-7.53,2.528-15.556,4.485-23.354,5.999c-8.954,1.751-18.385,2.992-27.487,3.663
			c-20.581,1.591-42.285,1.081-62.931,0.575c-22.299-0.344-46.407,0.127-68.681,1.227c-6.653,0.375-16.666,0.821-23.23,1.585
			c-8.647,0.942-17.466,2.391-25.845,4.747c-8.46,2.394-16.81,5.738-23.972,10.913c-3.29,2.375-5.899,4.95-8.535,7.787
			c-14.544,15.76-23.743,35.656-30.812,55.697c-7.241,20.49-12.734,41.939-14.739,63.614c-0.907,10.75-0.967,21.797,1.639,32.327
			c0.909,3.719,2.343,7.346,3.887,10.842c3.083,7.04,7.66,14.307,13.306,19.334c3.835,3.465,7.792,5.538,12.426,7.093
			c4.968,1.624,10.24,2.271,15.452,2.355c28.376,0.003,105.757,0.033,135.174-0.007c2.555-0.044,5.439-0.147,7.978-0.374
			c3.577-0.307,7.701-0.899,10.892-2.244c0.345-0.154,0.457-0.206,0.457-0.206c0.325-0.16,0.43-0.214,0.43-0.214
			c0.305-0.166,0.404-0.222,0.404-0.222c0.377-0.23,0.468-0.289,0.468-0.289c0.344-0.24,0.426-0.301,0.426-0.301
			c0.159-0.124,3.824,0.506,3.824,0.506c1.954,0.329,6.093,0.948,8.077,1.228c6.099,0.825,12.733,1.533,18.863,1.86
			c3.067,0.168,6.502,0.271,9.573,0.272c11.567-0.079,46.511,0.246,57.551-0.328c37.28,0.306,86.492,0.565,123.69,0.196
			c3.122-0.186,6.734-0.637,9.484-1.68c0.256-0.099,0.381-0.15,0.381-0.15c0.366-0.156,0.484-0.209,0.484-0.209
			c0.345-0.164,0.457-0.22,0.457-0.22c0.325-0.172,0.43-0.23,0.43-0.23c0.305-0.18,0.403-0.241,0.403-0.241
			c0.375-0.251,0.465-0.316,0.465-0.316c0.341-0.265,0.422-0.333,0.422-0.333c0.38-0.349,0.451-0.421,0.451-0.421
			c0.329-0.369,0.359-0.407,0.359-0.407c0.256-0.348,0.282-0.387,0.282-0.387c0.217-0.363,0.239-0.404,0.239-0.404
			c0.142-0.292,0.216-0.462,0.216-0.462c0.141-0.34,0.208-0.51,0.208-0.51c0.127-0.342,0.187-0.513,0.187-0.513
			c0.113-0.344,0.167-0.516,0.167-0.516c0.099-0.345,0.146-0.518,0.146-0.518c0.085-0.347,0.125-0.521,0.125-0.521
			c0.071-0.349,0.104-0.524,0.104-0.524c0.057-0.351,0.083-0.526,0.083-0.526c0.044-0.352,0.062-0.529,0.062-0.529
			c0.03-0.354,0.041-0.531,0.041-0.531c0.016-0.356,0.02-0.534,0.02-0.534c0.002-0.358-0.001-0.537-0.001-0.537
			c-0.012-0.359-0.022-0.539-0.022-0.539c-0.026-0.361-0.043-0.542-0.043-0.542c-0.04-0.363-0.064-0.545-0.064-0.545
			c-0.054-0.365-0.085-0.547-0.085-0.547c-0.068-0.366-0.106-0.55-0.106-0.55c-0.238-1.122-0.564-2.073-0.842-2.789
			c-0.151-0.372-0.23-0.554-0.23-0.554c-0.164-0.358-0.248-0.533-0.248-0.533c-0.176-0.344-0.267-0.512-0.267-0.512
			c-0.188-0.33-0.285-0.491-0.285-0.491c-0.201-0.316-0.304-0.47-0.304-0.47c-0.213-0.302-0.323-0.449-0.323-0.449
			c-0.225-0.288-0.341-0.428-0.341-0.428c-0.238-0.274-0.36-0.408-0.36-0.408c-0.25-0.26-0.378-0.387-0.378-0.387
			c-0.262-0.246-0.397-0.366-0.397-0.366c-0.275-0.232-0.415-0.345-0.415-0.345c-0.287-0.218-0.434-0.324-0.434-0.324
			c-0.299-0.204-0.452-0.303-0.452-0.303c-0.312-0.19-0.471-0.282-0.471-0.282c-0.324-0.176-0.489-0.261-0.489-0.261
			c-0.336-0.162-0.508-0.24-0.508-0.24c-0.349-0.148-0.526-0.219-0.526-0.219c-0.361-0.134-0.545-0.198-0.545-0.198
			c-1.056-0.36-1.972-0.516-2.846-0.675c-6.956-1.235-24.331-3.338-31.545-4.295c2.391-5.165,5.543-10,9.22-14.34
			c2.944-3.507,6.39-6.743,9.836-9.756c6.678-5.8,14.059-11.004,22.331-14.252c7.92-3.161,16.357-5.333,24.67-7.188
			c10.441-2.329,22.499-5.085,32.765-7.986c7.227-2.128,14.48-4.742,20.862-8.809c2.955-1.921,5.757-4.382,7.948-7.079
			c1.055-1.26,1.998-2.716,2.89-4.093c1.678-2.546,3.563-5.18,5.437-7.587c0.379,0.091,0.399,0.093,0.399,0.093
			c0.372-0.01,0.394-0.013,0.394-0.013c0.352-0.077,0.397-0.091,0.397-0.091c0.369-0.141,0.416-0.162,0.416-0.162
			c0.334-0.172,0.383-0.199,0.383-0.199c0.342-0.214,0.392-0.247,0.392-0.247c0.298-0.215,0.398-0.292,0.398-0.292
			c0.3-0.245,0.401-0.332,0.401-0.332c0.301-0.273,0.401-0.368,0.401-0.368c0.299-0.298,0.398-0.401,0.398-0.401
			c0.295-0.32,0.393-0.43,0.393-0.43c0.289-0.339,0.385-0.454,0.385-0.454c0.281-0.355,0.373-0.475,0.373-0.475
			c0.271-0.368,0.359-0.493,0.359-0.493c1.447-2.092,2.343-4.228,2.724-6.431c0.039-0.262,0.056-0.391,0.056-0.391
			c0.028-0.255,0.04-0.381,0.04-0.381c0.024-0.37,0.028-0.49,0.028-0.49c0.002-0.353-0.002-0.467-0.002-0.467
			c-0.021-0.334-0.026-0.388-0.026-0.388c-0.049-0.368-0.058-0.418-0.058-0.418c-0.083-0.371-0.098-0.425-0.098-0.425
			c-0.123-0.36-0.143-0.409-0.143-0.409c-0.183-0.374-0.208-0.418-0.208-0.418C654.819,370.837,654.788,370.797,654.788,370.797z"/>
	</g>
</g>
</svg>
