<?xml version="1.0" encoding="utf-8"?>
<!-- Generator: Adobe Illustrator 24.2.1, SVG Export Plug-In . SVG Version: 6.00 Build 0)  -->
<!DOCTYPE svg PUBLIC "-//W3C//DTD SVG 1.1//EN" "http://www.w3.org/Graphics/SVG/1.1/DTD/svg11.dtd" [
	<!ENTITY ns_flows "http://ns.adobe.com/Flows/1.0/">
	<!ENTITY ns_extend "http://ns.adobe.com/Extensibility/1.0/">
	<!ENTITY ns_ai "http://ns.adobe.com/AdobeIllustrator/10.0/">
	<!ENTITY ns_graphs "http://ns.adobe.com/Graphs/1.0/">
	<!ENTITY ns_vars "http://ns.adobe.com/Variables/1.0/">
	<!ENTITY ns_imrep "http://ns.adobe.com/ImageReplacement/1.0/">
	<!ENTITY ns_sfw "http://ns.adobe.com/SaveForWeb/1.0/">
	<!ENTITY ns_custom "http://ns.adobe.com/GenericCustomNamespace/1.0/">
	<!ENTITY ns_adobe_xpath "http://ns.adobe.com/XPath/1.0/">
]>
<svg version="1.1" xmlns:x="&ns_extend;" xmlns:i="&ns_ai;" xmlns:graph="&ns_graphs;"
	 xmlns="http://www.w3.org/2000/svg" xmlns:xlink="http://www.w3.org/1999/xlink" xmlns:a="http://ns.adobe.com/AdobeSVGViewerExtensions/3.0/"
	 x="0px" y="0px" width="750px" height="750px" viewBox="0 0 750 750" enable-background="new 0 0 750 750" xml:space="preserve">
<metadata>
	<sfw  xmlns="&ns_sfw;">
		<slices></slices>
		<sliceSourceBounds  bottomLeftOrigin="true" height="12677.386" width="8058.342" x="-3961.342" y="-5120"></sliceSourceBounds>
	</sfw>
</metadata>
<g id="FILL-BACKGROUND">
	<rect fill="#FFFFFF" width="750" height="750"/>
</g>
<g id="N-TEXT">
</g>
<g id="N-DIMENSIONS">
</g>
<g id="AG-DETAIL-DIAGRAM">
</g>
<g id="AG-DIAGRAM">
	<g id="POLYLINE_558_">
		<g>
			<g>
				
					<line fill="none" stroke="#FB8604" stroke-width="3.25" stroke-linecap="round" stroke-linejoin="round" x1="114.145" y1="484.427" x2="116.145" y2="484.427"/>
				
					<line fill="none" stroke="#FB8604" stroke-width="3.25" stroke-linecap="round" stroke-linejoin="round" stroke-dasharray="4.0105,7.0184" x1="123.163" y1="484.427" x2="593.896" y2="484.427"/>
				
					<line fill="none" stroke="#FB8604" stroke-width="3.25" stroke-linecap="round" stroke-linejoin="round" x1="597.405" y1="484.427" x2="599.405" y2="484.427"/>
			</g>
		</g>
	</g>
</g>
<g id="AG-DETAILS">
	<g id="POLYLINE_683_">
		<path fill="none" stroke="#FB8604" stroke-width="2" stroke-linecap="round" stroke-linejoin="round" stroke-miterlimit="10" d="
			M667.283,435.892c3.43-1.695,7.036-3.19,10.712-4.263c7.3-2.123,15.703-3.132,23.107-2.868"/>
	</g>
	<g id="POLYLINE_682_">
		<path fill="none" stroke="#FB8604" stroke-width="2" stroke-linecap="round" stroke-linejoin="round" stroke-miterlimit="10" d="
			M667.493,444.547c9.352-0.968,18.916-1.044,28.295-0.452"/>
	</g>
	<g id="POLYLINE_681_">
		<path fill="none" stroke="#FB8604" stroke-width="2" stroke-linecap="round" stroke-linejoin="round" stroke-miterlimit="10" d="
			M667.251,450.297c5.348,0.372,10.718,1.248,15.91,2.576c4.978,1.254,9.994,2.801,14.752,4.735"/>
	</g>
	<g id="POLYLINE_680_">
		<path fill="none" stroke="#FB8604" stroke-width="2" stroke-linecap="round" stroke-linejoin="round" stroke-miterlimit="10" d="
			M612.588,448.65c-11.928-1.209-24.179-1.383-36.153-0.939c-6.396,0.257-13.045,0.719-19.392,1.524
			c-5.571,0.695-11.521,1.784-17.027,2.907"/>
	</g>
	<g id="POLYLINE_679_">
		<path fill="none" stroke="#FB8604" stroke-width="2" stroke-linecap="round" stroke-linejoin="round" stroke-miterlimit="10" d="
			M613.043,454.419c-9.173,1.646-18.579,4.517-27.425,7.461c-9.829,3.325-19.987,7.072-29.358,11.517"/>
	</g>
	<g id="POLYLINE_678_">
		<path fill="none" stroke="#FB8604" stroke-width="2" stroke-linecap="round" stroke-linejoin="round" stroke-miterlimit="10" d="
			M616.22,459.809c-2.821,0.702-5.956,1.492-8.684,2.446c-4.049,1.395-8.169,3.213-12.042,5.045
			c-7.376,3.554-14.722,7.585-21.332,12.432"/>
	</g>
</g>
<g id="X-VPRT">
</g>
<g id="AG-ANIMALS">
	<g id="POLYLINE_906_">
		
			<path fill="none" stroke="#FB8604" stroke-width="2.75" stroke-linecap="round" stroke-linejoin="round" stroke-miterlimit="10" d="
			M565.191,387.021c-2.445-0.373-4.668-0.94-6.499-1.566c-1.584-0.545-2.865-1.127-3.866-1.648
			c-0.488-0.263-0.729-0.399-0.729-0.399c-0.476-0.279-0.71-0.423-0.71-0.423c-0.462-0.296-0.69-0.448-0.69-0.448
			c-0.667-0.473-0.884-0.636-0.884-0.636c-0.634-0.507-0.839-0.683-0.839-0.683c-0.598-0.543-0.79-0.73-0.79-0.73
			c-0.558-0.579-0.648-0.679-0.648-0.679c-0.549-0.647-0.638-0.758-0.638-0.758c-0.346-0.456-0.514-0.689-0.514-0.689
			c-0.324-0.475-0.481-0.718-0.481-0.718c-0.303-0.494-0.45-0.745-0.45-0.745c-0.283-0.511-0.42-0.771-0.42-0.771
			c-0.265-0.528-0.393-0.796-0.393-0.796c-1.42-3.045-2.204-6.268-2.829-8.973c-0.999-4.964-2.676-11.701-3.245-16.657
			c-0.444-3.497-0.46-7.602-0.011-10.804c1.787-13.384,11.714-30.256,23.324-36.226c0.565-0.276,0.754-0.364,0.754-0.364
			c0.568-0.252,0.758-0.332,0.758-0.332c0.57-0.228,0.761-0.3,0.761-0.3c0.572-0.205,0.763-0.269,0.763-0.269
			c0.574-0.181,0.765-0.238,0.765-0.238c0.574-0.158,0.766-0.207,0.766-0.207c0.574-0.135,0.766-0.176,0.766-0.176
			c0.574-0.112,0.765-0.146,0.765-0.146c0.573-0.09,0.764-0.116,0.764-0.116c0.571-0.067,0.762-0.086,0.762-0.086
			c0.569-0.045,0.759-0.056,0.759-0.056c0.567-0.023,0.755-0.026,0.755-0.026c0.563-0.001,0.751,0.003,0.751,0.003
			c0.56,0.021,0.745,0.032,0.745,0.032c0.555,0.043,0.739,0.061,0.739,0.061c0.55,0.064,0.733,0.089,0.733,0.089
			c0.545,0.086,0.725,0.118,0.725,0.118c0.539,0.107,0.717,0.146,0.717,0.146c0.532,0.128,0.708,0.174,0.708,0.174
			c0.525,0.148,0.698,0.201,0.698,0.201c0.517,0.169,0.688,0.229,0.688,0.229c0.509,0.189,0.677,0.256,0.677,0.256
			c0.665,0.283,0.829,0.358,0.829,0.358c0.649,0.316,0.809,0.4,0.809,0.4c0.632,0.35,0.787,0.441,0.787,0.441
			c0.613,0.382,0.764,0.482,0.764,0.482c0.594,0.415,0.74,0.522,0.74,0.522c0.573,0.447,0.714,0.562,0.714,0.562
			c0.551,0.478,0.686,0.602,0.686,0.602c0.657,0.641,0.805,0.795,0.805,0.795c0.576,0.636,0.716,0.8,0.716,0.8
			c0.41,0.504,0.544,0.676,0.544,0.676c0.391,0.526,0.518,0.705,0.518,0.705c0.373,0.548,0.494,0.734,0.494,0.734
			c0.354,0.568,0.469,0.761,0.469,0.761c2.058,3.513,3.148,7.252,3.854,10.76c0.866,4.58,1.079,8.257,1.016,12.659
			c-0.112,5.155-0.833,10.352-2.248,15.313c-1.331,4.692-3.3,9.239-5.698,13.482"/>
	</g>
	<g id="POLYLINE_907_">
		
			<path fill="none" stroke="#FB8604" stroke-width="2.75" stroke-linecap="round" stroke-linejoin="round" stroke-miterlimit="10" d="
			M651.884,476.236c-0.619-0.066-0.823-0.093-0.823-0.093c-0.607-0.094-0.807-0.13-0.807-0.13c-0.594-0.121-0.789-0.165-0.789-0.165
			c-0.579-0.146-0.769-0.199-0.769-0.199c-0.563-0.17-0.748-0.231-0.748-0.231c-0.546-0.194-0.724-0.262-0.724-0.262
			c-0.527-0.216-0.699-0.291-0.699-0.291c-0.672-0.318-0.835-0.402-0.835-0.402c-0.635-0.351-0.789-0.442-0.789-0.442
			c-0.596-0.38-0.74-0.479-0.74-0.479c-0.553-0.408-0.686-0.513-0.686-0.513c-0.629-0.544-0.748-0.656-0.748-0.656
			c-0.556-0.577-0.66-0.695-0.66-0.695c-0.518-0.662-0.581-0.752-0.581-0.752c-0.396-0.642-0.446-0.735-0.446-0.735
			c-0.299-0.659-0.317-0.707-0.317-0.707c-0.197-0.67-0.208-0.718-0.208-0.718c-0.083-0.627-0.085-0.675-0.085-0.675
			c0.023-0.627,0.029-0.675,0.029-0.675c0.153-0.67,0.169-0.717,0.169-0.717c0.296-0.659,0.322-0.706,0.322-0.706
			c0.449-0.644,0.487-0.689,0.487-0.689c0.584-0.598,0.669-0.674,0.669-0.674c0.657-0.522,0.759-0.595,0.759-0.595
			c0.65-0.43,0.765-0.501,0.765-0.501c0.475-0.277,0.721-0.413,0.721-0.413c0.511-0.267,0.775-0.398,0.775-0.398
			c4.522-2.084,9.068-3.169,13.424-3.568c0.655-0.029,0.759-0.031,0.759-0.031c0.587,0.009,0.679,0.014,0.679,0.014
			c0.601,0.064,0.68,0.078,0.68,0.078c0.661,0.174,0.695,0.186,0.695,0.186c0.65,0.337,0.679,0.357,0.679,0.357
			c0.651,0.612,0.675,0.641,0.675,0.641c0.438,0.634,0.483,0.71,0.483,0.71c0.321,0.609,0.384,0.741,0.384,0.741
			c0.241,0.558,0.298,0.705,0.298,0.705c0.219,0.612,0.271,0.771,0.271,0.771c0.192,0.656,0.237,0.825,0.237,0.825
			c0.122,0.516,0.16,0.691,0.16,0.691c0.1,0.532,0.129,0.711,0.129,0.711c0.075,0.543,0.095,0.725,0.095,0.725
			c0.046,0.549,0.057,0.733,0.057,0.733c0.016,0.551,0.015,0.735,0.015,0.735c-0.018,0.548-0.03,0.73-0.03,0.73
			c-0.067,0.63-0.079,0.719-0.079,0.719c-0.113,0.615-0.132,0.702-0.132,0.702c-0.162,0.595-0.189,0.678-0.189,0.678
			c-0.249,0.648-0.285,0.727-0.285,0.727c-0.335,0.63-0.385,0.71-0.385,0.71c-0.441,0.615-0.501,0.688-0.501,0.688
			c-0.592,0.627-0.663,0.692-0.663,0.692c-0.602,0.499-0.682,0.558-0.682,0.558c-0.667,0.445-0.754,0.498-0.754,0.498
			c-0.63,0.345-0.723,0.392-0.723,0.392c-0.669,0.304-0.866,0.384-0.866,0.384c-0.604,0.223-0.81,0.292-0.81,0.292
			c-0.628,0.188-0.841,0.246-0.841,0.246c-0.647,0.154-0.865,0.2-0.865,0.2c-0.662,0.12-0.884,0.154-0.884,0.154
			c-0.672,0.086-0.897,0.109-0.897,0.109c-0.451,0.038-0.678,0.052-0.678,0.052c-0.453,0.021-0.679,0.027-0.679,0.027
			c-0.452,0.004-0.677,0.002-0.677,0.002C652.775,476.294,652.551,476.283,651.884,476.236z"/>
	</g>
	<g id="POLYLINE_908_">
		
			<path fill="none" stroke="#FB8604" stroke-width="2.75" stroke-linecap="round" stroke-linejoin="round" stroke-miterlimit="10" d="
			M652.28,336.397c2.583-7.931,7.862-14.627,13.988-19.412c0.645-0.475,0.86-0.627,0.86-0.627c0.646-0.438,0.862-0.577,0.862-0.577
			c0.645-0.396,0.86-0.52,0.86-0.52c0.641-0.349,0.854-0.457,0.854-0.457c0.634-0.298,0.844-0.388,0.844-0.388
			c0.625-0.243,0.728-0.279,0.728-0.279c0.614-0.19,0.716-0.217,0.716-0.217c0.602-0.134,0.701-0.152,0.701-0.152
			c0.587-0.075,0.683-0.082,0.683-0.082c0.603-0.011,0.676-0.008,0.676-0.008c0.647,0.068,0.718,0.08,0.718,0.08
			c0.623,0.149,0.691,0.17,0.691,0.17c0.664,0.256,0.729,0.286,0.729,0.286c0.634,0.346,0.696,0.385,0.696,0.385
			c0.663,0.479,0.721,0.527,0.721,0.527c0.571,0.519,0.682,0.631,0.682,0.631c0.537,0.601,0.642,0.729,0.642,0.729
			c0.405,0.537,0.504,0.677,0.504,0.677c0.383,0.585,0.476,0.737,0.476,0.737c0.36,0.629,0.447,0.792,0.447,0.792
			c0.337,0.671,0.419,0.844,0.419,0.844c0.238,0.529,0.364,0.828,0.364,0.828c0.244,0.612,0.361,0.926,0.361,0.926
			c0.225,0.641,0.332,0.968,0.332,0.968c1.488,4.842,1.755,9.081,1.675,13.868c-0.195,7.443-1.834,14.822-4.178,21.868
			c-1.92,5.67-4.454,11.975-7.663,16.92c-0.315,0.457-0.47,0.673-0.47,0.673c-0.455,0.603-0.604,0.79-0.604,0.79
			c-0.44,0.525-0.585,0.689-0.585,0.689c-0.575,0.614-0.719,0.758-0.719,0.758c-0.574,0.555-2.377,2.204-2.377,2.204"/>
	</g>
	<g id="POLYLINE_909_">
		
			<path fill="none" stroke="#FB8604" stroke-width="2.75" stroke-linecap="round" stroke-linejoin="round" stroke-miterlimit="10" d="
			M565.308,435.46c9.729,18.551,27.484,35.769,47.502,42.55c8.129,2.715,15.878,3.383,24.005,2.398
			c5.025-0.603,10.614-2.076,15.069-4.172"/>
	</g>
	<g id="POLYLINE_910_">
		
			<path fill="none" stroke="#FB8604" stroke-width="2.75" stroke-linecap="round" stroke-linejoin="round" stroke-miterlimit="10" d="
			M664.349,464.002c0.241-0.594,0.356-0.896,0.356-0.896c1.99-5.552,2.484-10.657,2.74-16.251c0.161-3.22-0.123-7.819-0.163-10.99
			c-0.059-5.149,1.498-13.951,2.104-19.061c0.707-5.752,1.107-11.635,0.668-17.421c-0.61-9.257-3.105-19.164-5.195-28.216
			c-3.304-13.711-7.342-27.964-15.693-39.516c-5.625-7.87-13.084-14.129-21.413-17.888c-6.479-2.949-13.233-4.491-19.672-5.21
			c-6.349-0.715-13.183-0.546-19.348,0.394"/>
	</g>
	<g id="POLYLINE_911_">
		
			<path fill="none" stroke="#FB8604" stroke-width="2.75" stroke-linecap="round" stroke-linejoin="round" stroke-miterlimit="10" d="
			M435.625,370.19c8.761,8.581,16.931,18.078,22.567,29.035c4.262,8.39,6.859,17.635,7.826,26.986
			c0.263,2.546,0.416,5.255,0.448,7.815c0.078,2.381-0.421,15.85-0.477,18.472c-0.065,1.099-0.245,5.835-0.342,6.928
			c-0.162,2-0.364,4.459-0.234,6.048c0.054,0.633,0.078,0.832,0.078,0.832c0.101,0.652,0.118,0.74,0.118,0.74
			c0.158,0.647,0.181,0.721,0.181,0.721c0.282,0.662,0.292,0.676,0.292,0.676c0.645,0.586,0.679,0.605,0.679,0.605
			c0.663,0.256,0.708,0.268,0.708,0.268c0.629,0.111,0.681,0.117,0.681,0.117c0.557,0.034,0.675,0.036,0.675,0.036
			c0.627-0.014,0.759-0.022,0.759-0.022c0.553-0.047,0.697-0.063,0.697-0.063c0.446-0.058,0.755-0.104,0.755-0.104
			c5.358-1.111,10.675-1.94,16.057-2.605c6.237-0.786,12.956-0.686,18.681,0.61c0.669,0.18,0.884,0.244,0.884,0.244
			c0.62,0.204,0.818,0.276,0.818,0.276c0.662,0.268,0.752,0.308,0.752,0.308c0.604,0.296,0.686,0.34,0.686,0.34
			c0.62,0.372,0.693,0.421,0.693,0.421c0.673,0.516,0.734,0.57,0.734,0.57c0.61,0.63,0.659,0.691,0.659,0.691
			c0.436,0.631,0.474,0.697,0.474,0.697c0.295,0.615,0.323,0.686,0.323,0.686c0.203,0.66,0.22,0.736,0.22,0.736
			c0.102,0.625,0.11,0.705,0.11,0.705c0.028,0.661,0.027,0.746,0.027,0.746c-0.04,0.91-0.117,1.643-0.143,1.914
			c-0.075,0.621-0.118,0.922-0.118,0.922c-0.094,0.584-0.146,0.868-0.146,0.868c-0.113,0.548-0.174,0.814-0.174,0.814
			c-0.166,0.637-0.202,0.759-0.202,0.759c-0.19,0.591-0.23,0.705-0.23,0.705c-0.258,0.651-0.303,0.754-0.303,0.754
			c-0.29,0.588-0.342,0.681-0.342,0.681c-0.38,0.607-0.437,0.688-0.437,0.688c-0.573,0.666-0.609,0.7-0.609,0.7
			c-0.671,0.534-0.714,0.563-0.714,0.563c-0.6,0.346-0.698,0.394-0.698,0.394c-0.626,0.267-0.736,0.307-0.736,0.307
			c-0.576,0.183-0.696,0.216-0.696,0.216c-0.626,0.147-0.756,0.173-0.756,0.173c-0.537,0.091-0.676,0.111-0.676,0.111
			c-0.571,0.067-0.718,0.081-0.718,0.081c-0.451,0.034-0.759,0.051-0.759,0.051c-12.576,0.061-47.6,0.002-60.633,0.022
			c-0.611-0.025-0.732-0.036-0.732-0.036c-0.598-0.084-0.716-0.107-0.716-0.107c-0.585-0.144-0.7-0.178-0.7-0.178
			c-0.571-0.203-0.684-0.25-0.684-0.25c-0.668-0.321-0.778-0.381-0.778-0.381c-0.649-0.404-0.756-0.478-0.756-0.478
			c-0.631-0.487-0.734-0.575-0.734-0.575c-0.612-0.57-0.712-0.672-0.712-0.672c-0.593-0.654-0.691-0.769-0.691-0.769
			c-2.792-3.585-4.928-7.136-7.214-10.899c-0.358-0.52-0.484-0.693-0.484-0.693c-0.396-0.52-0.534-0.693-0.534-0.693
			c-0.434-0.52-0.585-0.693-0.585-0.693c-0.472-0.519-0.635-0.693-0.635-0.693c-3.461-3.581-7.736-6.198-11.557-8.307
			c-5.667-3.025-11.117-5.083-17.118-7.062c-4.852-1.629-10.042-2.742-14.777-4.702c-8.084-3.258-15.425-8.344-21.452-14.628"/>
	</g>
	<g id="POLYLINE_912_">
		
			<path fill="none" stroke="#FB8604" stroke-width="2.75" stroke-linecap="round" stroke-linejoin="round" stroke-miterlimit="10" d="
			M501.038,421.383c2.418,7.482,5.231,15.924,8.162,23.182c1.574,3.868,3.452,8.231,5.608,11.728
			c0.409,0.638,0.611,0.938,0.611,0.938c0.396,0.56,0.494,0.692,0.494,0.692c0.48,0.61,0.574,0.722,0.574,0.722
			c0.554,0.605,0.645,0.694,0.645,0.694c0.547,0.519,0.733,0.688,0.733,0.688c0.565,0.497,0.756,0.659,0.756,0.659
			c0.582,0.476,0.779,0.631,0.779,0.631c0.599,0.455,0.802,0.603,0.802,0.603c0.617,0.433,0.825,0.574,0.825,0.574
			c0.634,0.412,0.848,0.546,0.848,0.546c0.651,0.391,0.871,0.517,0.871,0.517c3.259,1.867,6.562,2.864,9.688,3.571
			c0.52,0.146,0.774,0.223,0.774,0.223c0.5,0.163,0.745,0.249,0.745,0.249c0.48,0.18,0.716,0.274,0.716,0.274
			c0.461,0.197,0.686,0.299,0.686,0.299c0.657,0.325,0.869,0.439,0.869,0.439c0.618,0.359,0.718,0.421,0.718,0.421
			c0.584,0.389,0.678,0.456,0.678,0.456c0.638,0.49,0.726,0.563,0.726,0.563c0.592,0.53,0.674,0.608,0.674,0.608
			c0.622,0.654,0.696,0.739,0.696,0.739c0.495,0.614,0.563,0.705,0.563,0.705c0.45,0.654,0.511,0.75,0.511,0.75
			c0.349,0.592,0.404,0.693,0.404,0.693c0.314,0.622,0.364,0.728,0.364,0.728c0.236,0.541,0.324,0.762,0.324,0.762
			c0.167,0.451,0.246,0.681,0.246,0.681c0.225,0.7,0.35,1.202,0.416,1.425c0.145,0.462,0.221,0.688,0.221,0.688
			c0.246,0.654,0.289,0.759,0.289,0.759c0.274,0.614,0.323,0.713,0.323,0.713c0.356,0.667,0.41,0.758,0.41,0.758
			c0.395,0.613,0.454,0.697,0.454,0.697c0.498,0.637,0.563,0.712,0.563,0.712c0.618,0.635,0.691,0.701,0.691,0.701
			c0.602,0.493,0.68,0.55,0.68,0.55c0.651,0.424,0.736,0.473,0.736,0.473c0.611,0.315,0.701,0.356,0.701,0.356
			c0.649,0.262,0.744,0.296,0.744,0.296c0.587,0.182,0.687,0.209,0.687,0.209c0.616,0.142,0.721,0.162,0.721,0.162
			c0.645,0.102,0.755,0.116,0.755,0.116c0.56,0.054,0.674,0.063,0.674,0.063c2.267,0.062,22.085,0.039,23.741,0.003
			c2.215-0.042,5.159-0.269,6.924-0.578c0.756-0.13,1.213-0.232,1.463-0.287c0.663-0.165,0.874-0.223,0.874-0.223
			c0.603-0.183,0.793-0.247,0.793-0.247c0.628-0.237,0.712-0.272,0.712-0.272c0.631-0.297,0.705-0.336,0.705-0.336
			c0.663-0.41,0.722-0.453,0.722-0.453c0.656-0.595,0.677-0.619,0.677-0.619c0.463-0.618,0.53-0.717,0.53-0.717
			c0.369-0.596,0.424-0.695,0.424-0.695c0.297-0.598,0.34-0.698,0.34-0.698c0.225-0.6,0.256-0.7,0.256-0.7
			c0.153-0.602,0.173-0.702,0.173-0.702c0.081-0.604,0.089-0.704,0.089-0.704c0.009-0.606,0.005-0.707,0.005-0.707
			c-0.062-0.607-0.079-0.709-0.079-0.709c-0.134-0.609-0.163-0.711-0.163-0.711c-0.262-0.663-0.277-0.688-0.277-0.688
			c-0.464-0.639-0.51-0.691-0.51-0.691c-0.656-0.616-0.719-0.668-0.719-0.668c-0.553-0.412-0.705-0.515-0.705-0.515
			c-0.659-0.413-0.837-0.517-0.837-0.517c-0.566-0.311-0.765-0.415-0.765-0.415c-6.256-3.078-12.516-3.902-18.738-6.475
			c-0.598-0.263-0.733-0.326-0.733-0.326c-0.587-0.3-0.687-0.357-0.687-0.357c-0.67-0.499-0.68-0.51-0.68-0.51
			c0.012-0.67,0.018-0.678,0.018-0.678c0.643-0.443,0.673-0.456,0.673-0.456c0.669-0.214,0.751-0.233,0.751-0.233
			c0.635-0.124,0.836-0.155,0.836-0.155c1.174-0.154,1.877-0.169,2.494-0.2c4.964-0.363,9.345-1.434,14.106-2.515"/>
	</g>
	<g id="POLYLINE_913_">
		
			<path fill="none" stroke="#FB8604" stroke-width="2.75" stroke-linecap="round" stroke-linejoin="round" stroke-miterlimit="10" d="
			M502.259,466.655c6.394-0.385,13.767-1.494,19.551-3.655"/>
	</g>
	<g id="POLYLINE_914_">
		
			<path fill="none" stroke="#FB8604" stroke-width="2.75" stroke-linecap="round" stroke-linejoin="round" stroke-miterlimit="10" d="
			M559.25,305.661c-5.304-3.863-10.713-7.804-16.648-10.326c-4.292-1.875-8.874-3.15-13.459-4.066
			c-5.483-1.094-11.241-1.778-16.816-2.183c-7.467-0.529-15.141-0.596-22.616-0.211c-7.467,0.396-15.074,1.255-22.381,2.865
			c-6.654,1.456-13.262,3.592-19.589,6.104c-12.461,5.003-29.32,13.237-41.627,18.849c-12.09,5.822-24.26,12.236-35.273,19.92
			c-7.456,5.211-14.556,11.118-20.575,17.959c-8.1,9.204-14.203,20.068-18.93,31.34c-2.835,6.747-5.289,13.978-7.414,20.985
			c-1.972,6.506-4.832,17.307-6.845,23.773c-1.575,4.999-3.704,10.717-6.689,14.771c-0.399,0.531-0.534,0.705-0.534,0.705
			c-0.413,0.51-0.553,0.676-0.553,0.676c-0.573,0.647-0.72,0.804-0.72,0.804c-0.599,0.61-0.753,0.758-0.753,0.758
			c-0.627,0.572-0.787,0.71-0.787,0.71c-0.614,0.5-0.767,0.618-0.767,0.618c-0.624,0.456-0.783,0.566-0.783,0.566
			c-0.648,0.424-0.813,0.526-0.813,0.526c-0.671,0.392-0.842,0.486-0.842,0.486c-0.519,0.273-0.694,0.36-0.694,0.36
			c-0.532,0.254-0.712,0.335-0.712,0.335c-0.546,0.235-0.73,0.31-0.73,0.31c-0.558,0.216-0.747,0.286-0.747,0.286
			c-14.589,5.082-33.53-3.357-46.621-9.614c-11.836-5.674-27.082-14.746-38.836-20.636c-1.996-0.973-4.673-2.169-6.618-2.767
			c-0.513-0.153-0.679-0.199-0.679-0.199c-0.641-0.161-0.795-0.195-0.795-0.195c-0.591-0.111-0.732-0.132-0.732-0.132
			c-0.665-0.066-0.728-0.069-0.728-0.069c-0.644,0.016-0.698,0.022-0.698,0.022c-0.637,0.144-0.68,0.16-0.68,0.16
			c-0.649,0.433-0.677,0.465-0.677,0.465c-0.347,0.666-0.354,0.692-0.354,0.692c-0.107,0.67-0.111,0.731-0.111,0.731
			c-0.004,0.641,0.002,0.776,0.002,0.776c0.041,0.784,0.245,2.217,0.3,2.704c0.056,0.547,0.066,0.679,0.066,0.679
			c0.026,0.628,0.025,0.687,0.025,0.687c-0.061,0.672-0.066,0.696-0.066,0.696c-0.32,0.665-0.334,0.679-0.334,0.679
			c-0.644,0.247-0.693,0.249-0.693,0.249c-0.665-0.076-0.727-0.09-0.727-0.09c-0.606-0.179-0.678-0.205-0.678-0.205
			c-0.531-0.207-0.691-0.275-0.691-0.275c-6.324-3.03-12.828-8.467-19.002-11.51c-0.538-0.249-0.712-0.324-0.712-0.324
			c-0.661-0.263-0.817-0.319-0.817-0.319c-0.66-0.197-0.728-0.214-0.728-0.214c-0.631-0.098-0.688-0.101-0.688-0.101
			c-0.67,0.076-0.687,0.082-0.687,0.082c-0.65,0.362-0.675,0.383-0.675,0.383c-0.449,0.473-0.78,0.885-0.78,0.885
			c-0.667,0.664-0.694,0.682-0.694,0.682c-0.656,0.274-0.674,0.277-0.674,0.277c-0.641,0.026-0.694,0.022-0.694,0.022
			c-0.626-0.098-0.687-0.111-0.687-0.111c-0.641-0.174-0.776-0.217-0.776-0.217c-0.563-0.197-0.709-0.253-0.709-0.253
			c-0.604-0.245-0.917-0.38-0.917-0.38c-4.51-2.027-9.81-5.557-14.34-7.32c-0.652-0.236-0.81-0.289-0.81-0.289
			c-0.617-0.188-0.766-0.228-0.766-0.228c-0.647-0.147-0.716-0.16-0.716-0.16c-0.661-0.086-0.734-0.091-0.734-0.091
			c-0.624,0.003-0.689,0.008-0.689,0.008c-0.622,0.1-0.681,0.114-0.681,0.114c-0.672,0.223-0.725,0.245-0.725,0.245
			c-0.666,0.33-0.766,0.385-0.766,0.385c-0.294,0.173-1.076,0.647-1.076,0.647c-0.608,0.336-0.713,0.388-0.713,0.388
			c-0.662,0.276-0.72,0.295-0.72,0.295c-0.611,0.16-0.676,0.172-0.676,0.172c-0.611,0.07-0.683,0.074-0.683,0.074
			c-0.603-0.01-0.681-0.016-0.681-0.016c-0.656-0.085-0.741-0.1-0.741-0.1c-0.531-0.111-0.713-0.156-0.713-0.156
			c-0.566-0.155-0.761-0.214-0.761-0.214c-0.599-0.196-0.804-0.268-0.804-0.268c-7.2-2.72-13.819-7.52-20.835-10.31
			c-0.581-0.21-0.769-0.273-0.769-0.273c-0.546-0.17-0.722-0.22-0.722-0.22c-0.672-0.162-0.752-0.178-0.752-0.178
			c-0.61-0.091-0.682-0.098-0.682-0.098c-0.67-0.008-0.732-0.002-0.732-0.002c-0.665,0.155-0.686,0.164-0.686,0.164
			c-0.642,0.388-0.675,0.416-0.675,0.416c-0.574,0.618-0.63,0.691-0.63,0.691c-0.164,0.223-0.6,0.838-0.6,0.838
			c-0.505,0.644-0.537,0.68-0.537,0.68c-0.658,0.596-0.699,0.625-0.699,0.625c-0.652,0.35-0.704,0.37-0.704,0.37
			c-0.67,0.184-0.751,0.198-0.751,0.198c-0.599,0.068-0.69,0.073-0.69,0.073c-0.67,0.007-0.77,0.004-0.77,0.004
			c-0.52-0.03-0.736-0.048-0.736-0.048c-0.445-0.048-0.674-0.077-0.674-0.077c-2.378-0.35-4.045-0.841-5.952-1.365l-10.537-3.169
			c-3.327-0.965-7.672-2.014-10.742-2.219c-0.585-0.037-0.874-0.05-0.874-0.05c-0.568-0.014-0.847-0.015-0.847-0.015
			c-0.549,0.01-0.819,0.022-0.819,0.022c-0.659,0.048-0.788,0.061-0.788,0.061c-0.632,0.083-0.755,0.103-0.755,0.103
			c-0.603,0.119-0.72,0.146-0.72,0.146c-0.572,0.157-0.683,0.192-0.683,0.192c-0.67,0.251-0.747,0.284-0.747,0.284
			c-0.669,0.336-0.74,0.378-0.74,0.378c-0.614,0.402-0.679,0.45-0.679,0.45c-0.62,0.518-0.679,0.574-0.679,0.574
			c-0.61,0.652-0.662,0.715-0.662,0.715c-0.492,0.662-0.538,0.732-0.538,0.732c-0.351,0.576-0.433,0.725-0.433,0.725
			c-0.31,0.618-0.383,0.778-0.383,0.778c-0.271,0.658-0.334,0.827-0.334,0.827c-0.177,0.519-0.233,0.695-0.233,0.695
			c-0.155,0.539-0.204,0.723-0.204,0.723c-0.134,0.559-0.175,0.748-0.175,0.748c-0.113,0.577-0.148,0.772-0.148,0.772
			c-0.773,5.073-0.225,9.401,0.588,14.133c1.532,8.405,4.682,16.417,9.696,22.716c7.192,9.291,17.551,13.505,27.681,18.209
			c0.489,0.223,2.238,1.114,2.45,1.243c0.576,0.329,0.711,0.41,0.711,0.41c0.613,0.393,0.723,0.469,0.723,0.469
			c0.648,0.518,0.686,0.554,0.686,0.554c0.486,0.653,0.498,0.686,0.498,0.686c-0.049,0.663-0.056,0.676-0.056,0.676
			c-0.619,0.61-0.685,0.658-0.685,0.658c-0.354,0.243-0.962,0.641-0.962,0.641c-0.658,0.479-0.691,0.507-0.691,0.507
			c-0.594,0.66-0.603,0.676-0.603,0.676c-0.173,0.661-0.172,0.68-0.172,0.68c0.215,0.655,0.242,0.7,0.242,0.7
			c0.496,0.625,0.545,0.676,0.545,0.676c0.568,0.52,0.699,0.627,0.699,0.627c0.576,0.44,0.733,0.553,0.733,0.553
			c0.502,0.343,0.679,0.459,0.679,0.459c3.144,1.965,5.598,3.028,8.688,4.382c3.791,1.606,7.799,3.069,11.723,4.315
			c4.29,1.343,8.877,2.6,13.291,3.183c3.274,0.456,6.909,0.448,9.825,0.137c1.518-0.16,4.928-0.564,6.245-0.557
			c1.998-0.029,3.355,0.08,5.201,0.255c4.963,0.579,10.561,1.227,15.546,1.45c38.81,1.35,94.423,1.58,133.155,1.357l25.922-0.741
			c6.74-0.16,23.724,0.742,30.684,0.968c8.69,0.22,17.707,0.198,26.339-0.809c10.765-1.184,21.463-3.541,31.752-6.917"/>
	</g>
</g>
<g id="AG-OUTLINE">
	<g id="POLYLINE_546_">
		
			<path fill="none" stroke="#FB8604" stroke-width="3.5" stroke-linecap="round" stroke-linejoin="round" stroke-miterlimit="10" d="
			M521.81,463.001c3.541,2.21,7.175,3.353,10.624,4.128c0.52,0.146,0.774,0.223,0.774,0.223c0.5,0.163,0.745,0.249,0.745,0.249
			c0.48,0.18,0.716,0.274,0.716,0.274c0.461,0.197,0.686,0.299,0.686,0.299c0.657,0.325,0.869,0.439,0.869,0.439
			c0.618,0.359,0.718,0.421,0.718,0.421c0.584,0.389,0.678,0.456,0.678,0.456c0.638,0.49,0.726,0.563,0.726,0.563
			c0.592,0.53,0.674,0.608,0.674,0.608c0.622,0.654,0.696,0.739,0.696,0.739c0.495,0.614,0.563,0.705,0.563,0.705
			c0.45,0.654,0.511,0.75,0.511,0.75c0.349,0.592,0.404,0.693,0.404,0.693c0.314,0.622,0.364,0.728,0.364,0.728
			c0.236,0.541,0.324,0.762,0.324,0.762c0.167,0.451,0.246,0.681,0.246,0.681c0.225,0.7,0.35,1.202,0.416,1.425
			c0.145,0.462,0.221,0.688,0.221,0.688c0.246,0.654,0.289,0.759,0.289,0.759c0.274,0.614,0.323,0.713,0.323,0.713
			c0.356,0.667,0.41,0.758,0.41,0.758c0.395,0.613,0.454,0.697,0.454,0.697c0.498,0.637,0.563,0.712,0.563,0.712
			c0.618,0.635,0.691,0.701,0.691,0.701c0.602,0.493,0.68,0.55,0.68,0.55c0.651,0.424,0.736,0.473,0.736,0.473
			c0.611,0.315,0.701,0.356,0.701,0.356c0.649,0.262,0.744,0.296,0.744,0.296c0.587,0.182,0.687,0.209,0.687,0.209
			c0.616,0.142,0.721,0.162,0.721,0.162c0.645,0.102,0.755,0.116,0.755,0.116c0.56,0.054,0.674,0.063,0.674,0.063
			c2.267,0.062,22.085,0.039,23.741,0.003c2.215-0.042,5.159-0.269,6.924-0.578c0.756-0.13,1.213-0.232,1.463-0.287
			c0.663-0.165,0.874-0.223,0.874-0.223c0.603-0.183,0.793-0.247,0.793-0.247c0.628-0.237,0.712-0.272,0.712-0.272
			c0.631-0.297,0.705-0.336,0.705-0.336c0.663-0.41,0.722-0.453,0.722-0.453c0.656-0.595,0.677-0.619,0.677-0.619
			c0.463-0.618,0.53-0.717,0.53-0.717c0.369-0.596,0.424-0.695,0.424-0.695c0.297-0.598,0.34-0.698,0.34-0.698
			c0.225-0.6,0.256-0.7,0.256-0.7c0.153-0.602,0.173-0.702,0.173-0.702c0.081-0.604,0.089-0.704,0.089-0.704
			c0.009-0.606,0.005-0.707,0.005-0.707c-0.062-0.607-0.079-0.709-0.079-0.709c-0.134-0.609-0.163-0.711-0.163-0.711
			c-0.262-0.663-0.277-0.688-0.277-0.688c-0.464-0.639-0.51-0.691-0.51-0.691c-0.656-0.616-0.719-0.668-0.719-0.668
			c-0.553-0.412-0.705-0.515-0.705-0.515c-0.659-0.413-0.837-0.517-0.837-0.517c-0.566-0.311-0.765-0.415-0.765-0.415
			c-6.256-3.078-12.516-3.902-18.738-6.475c-0.598-0.263-0.733-0.326-0.733-0.326c-0.587-0.3-0.687-0.357-0.687-0.357
			c-0.67-0.499-0.68-0.51-0.68-0.51c0.012-0.67,0.018-0.678,0.018-0.678c0.643-0.443,0.673-0.456,0.673-0.456
			c0.669-0.214,0.751-0.233,0.751-0.233c0.635-0.124,0.836-0.155,0.836-0.155c1.174-0.154,1.877-0.169,2.494-0.2
			c4.964-0.363,9.345-1.434,14.106-2.515c12.675,12.158,29.726,21.761,47.535,21.181c6.967-0.151,14.505-1.68,20.745-4.587
			c0.667,0.047,0.891,0.057,0.891,0.057c0.45,0.012,0.675,0.014,0.675,0.014c0.452-0.004,0.678-0.01,0.678-0.01
			c0.453-0.021,0.679-0.035,0.679-0.035c0.451-0.038,0.677-0.061,0.677-0.061c0.672-0.086,0.894-0.12,0.894-0.12
			c0.662-0.12,0.88-0.165,0.88-0.165c0.647-0.154,0.86-0.211,0.86-0.211c0.628-0.188,0.833-0.257,0.833-0.257
			c0.604-0.223,0.801-0.304,0.801-0.304c0.669-0.304,0.762-0.35,0.762-0.35c0.63-0.345,0.718-0.398,0.718-0.398
			c0.667-0.445,0.746-0.504,0.746-0.504c0.602-0.499,0.673-0.565,0.673-0.565c0.592-0.627,0.652-0.7,0.652-0.7
			c0.441-0.615,0.491-0.695,0.491-0.695c0.352-0.668,0.376-0.722,0.376-0.722c0.235-0.611,0.272-0.725,0.272-0.725
			c0.158-0.583,0.185-0.702,0.185-0.702c0.109-0.603,0.126-0.725,0.126-0.725c0.063-0.618,0.071-0.742,0.071-0.742
			c0.02-0.627,0.02-0.753,0.02-0.753c-0.02-0.63-0.027-0.756-0.027-0.756c-0.056-0.627-0.07-0.752-0.07-0.752
			c-0.089-0.619-0.131-0.864-0.131-0.864c-0.096-0.483-0.15-0.721-0.15-0.721c-0.117-0.467,0.04-0.85,0.04-0.85
			c0.264-0.646,0.483-1.313,0.578-1.583c0.612-1.84,1.016-3.627,1.302-5.116c0.963-5.216,1.214-10.343,1.062-15.608
			c-0.09-2.265-0.252-5.961-0.098-8.072c0.187-3.689,1.576-12.726,2.035-16.437c0.629-5.175,1.041-10.483,0.769-15.695
			c-0.322-7.047-1.711-14.202-3.243-21.08l1.803-1.649c0.574-0.555,0.717-0.699,0.717-0.699c0.575-0.614,0.72-0.778,0.72-0.778
			c0.44-0.525,0.589-0.712,0.589-0.712c0.455-0.603,0.609-0.819,0.609-0.819c1.997-2.953,2.963-5.054,4.322-7.97
			c1.367-3.041,2.601-6.245,3.656-9.407c2.344-7.046,3.984-14.425,4.178-21.868c0.134-4.451-0.31-9.497-1.57-13.536
			c-0.212-0.659-0.323-0.982-0.323-0.982c-0.231-0.631-0.351-0.94-0.351-0.94c-0.25-0.603-0.328-0.781-0.328-0.781
			c-0.241-0.524-0.324-0.694-0.324-0.694c-0.342-0.663-0.43-0.823-0.43-0.823c-0.365-0.621-0.459-0.77-0.459-0.77
			c-0.387-0.576-0.487-0.713-0.487-0.713c-0.515-0.653-0.621-0.776-0.621-0.776c-0.605-0.628-0.662-0.681-0.662-0.681
			c-0.641-0.536-0.701-0.58-0.701-0.58c-0.615-0.401-0.678-0.437-0.678-0.437c-0.645-0.314-0.711-0.341-0.711-0.341
			c-0.606-0.204-0.675-0.222-0.675-0.222c-0.63-0.125-0.702-0.135-0.702-0.135c-0.654-0.043-0.729-0.043-0.729-0.043
			c-0.672,0.041-0.77,0.052-0.77,0.052c-0.594,0.101-0.694,0.122-0.694,0.122c-0.607,0.159-0.71,0.19-0.71,0.19
			c-0.619,0.213-0.723,0.253-0.723,0.253c-0.523,0.217-0.734,0.312-0.734,0.312c-0.636,0.311-0.85,0.424-0.85,0.424
			c-0.642,0.361-0.857,0.489-0.857,0.489c-0.646,0.407-0.861,0.549-0.861,0.549c-2.967,2.041-5.312,4.352-7.33,6.632
			c-3.354,3.802-5.859,7.968-7.441,12.261c-0.414,1.156-0.399,1.492-1.044,0.558c-0.277-0.443-0.82-1.301-1.108-1.734
			c-0.905-1.368-1.974-2.857-2.986-4.148c-5.052-6.509-11.735-11.981-18.78-15.346c-6.776-3.269-13.946-4.977-20.788-5.734
			c-6.345-0.704-13.186-0.554-19.348,0.394c-0.435-0.665-0.584-0.881-0.584-0.881c-0.461-0.635-0.619-0.841-0.619-0.841
			c-0.488-0.603-0.655-0.798-0.655-0.798c-0.515-0.569-0.692-0.753-0.692-0.753c-0.657-0.641-0.792-0.764-0.792-0.764
			c-0.551-0.478-0.692-0.594-0.692-0.594c-0.573-0.447-0.719-0.554-0.719-0.554c-0.594-0.415-0.745-0.514-0.745-0.514
			c-0.613-0.382-0.769-0.474-0.769-0.474c-0.632-0.35-0.792-0.433-0.792-0.433c-0.649-0.316-0.813-0.391-0.813-0.391
			c-0.665-0.283-0.833-0.35-0.833-0.35c-0.509-0.189-0.68-0.249-0.68-0.249c-0.517-0.169-0.691-0.222-0.691-0.222
			c-0.525-0.148-0.701-0.194-0.701-0.194c-0.532-0.128-0.71-0.167-0.71-0.167c-0.539-0.107-0.719-0.139-0.719-0.139
			c-0.545-0.086-0.727-0.111-0.727-0.111c-0.55-0.064-0.734-0.082-0.734-0.082c-0.555-0.043-0.741-0.054-0.741-0.054
			c-0.56-0.021-0.747-0.025-0.747-0.025c-0.563,0.001-0.752,0.004-0.752,0.004c-0.567,0.023-0.756,0.034-0.756,0.034
			c-0.569,0.045-0.759,0.063-0.759,0.063c-0.571,0.067-0.762,0.093-0.762,0.093c-0.573,0.09-0.764,0.123-0.764,0.123
			c-0.574,0.112-0.766,0.153-0.766,0.153c-0.574,0.135-0.766,0.184-0.766,0.184c-0.574,0.158-0.766,0.215-0.766,0.215
			c-0.574,0.181-0.765,0.246-0.765,0.246c-0.572,0.205-0.763,0.277-0.763,0.277c-0.57,0.228-0.76,0.308-0.76,0.308
			c-0.568,0.252-0.757,0.34-0.757,0.34c-0.565,0.276-0.861,0.428-0.861,0.428c-0.589,0.319-0.883,0.485-0.883,0.485
			c-0.584,0.347-0.875,0.528-0.875,0.528c-0.579,0.375-0.867,0.569-0.867,0.569c-0.863,0.596-1.444,1.05-1.708,1.254
			c-5.304-3.863-10.713-7.804-16.648-10.326c-4.292-1.875-8.874-3.15-13.459-4.066c-5.483-1.094-11.241-1.778-16.816-2.183
			c-7.467-0.529-15.141-0.596-22.616-0.211c-7.467,0.396-15.074,1.255-22.381,2.865c-6.654,1.456-13.262,3.592-19.589,6.104
			c-12.461,5.003-29.32,13.237-41.627,18.849c-12.09,5.822-24.26,12.236-35.273,19.92c-7.456,5.211-14.556,11.118-20.575,17.959
			c-8.1,9.204-14.203,20.068-18.93,31.34c-2.835,6.747-5.289,13.978-7.414,20.985c-1.972,6.506-4.832,17.307-6.845,23.773
			c-1.575,4.999-3.704,10.717-6.689,14.771c-0.399,0.531-0.534,0.705-0.534,0.705c-0.413,0.51-0.553,0.676-0.553,0.676
			c-0.573,0.647-0.72,0.804-0.72,0.804c-0.599,0.61-0.753,0.758-0.753,0.758c-0.627,0.572-0.787,0.71-0.787,0.71
			c-0.614,0.5-0.767,0.618-0.767,0.618c-0.624,0.456-0.783,0.566-0.783,0.566c-0.648,0.424-0.813,0.526-0.813,0.526
			c-0.671,0.392-0.842,0.486-0.842,0.486c-0.519,0.273-0.694,0.36-0.694,0.36c-0.532,0.254-0.712,0.335-0.712,0.335
			c-0.546,0.235-0.73,0.31-0.73,0.31c-0.558,0.216-0.747,0.286-0.747,0.286c-14.589,5.082-33.53-3.357-46.621-9.614
			c-11.836-5.674-27.082-14.746-38.836-20.636c-1.996-0.973-4.673-2.169-6.618-2.767c-0.513-0.153-0.679-0.199-0.679-0.199
			c-0.641-0.161-0.795-0.195-0.795-0.195c-0.591-0.111-0.732-0.132-0.732-0.132c-0.665-0.066-0.728-0.069-0.728-0.069
			c-0.644,0.016-0.698,0.022-0.698,0.022c-0.637,0.144-0.68,0.16-0.68,0.16c-0.649,0.433-0.677,0.465-0.677,0.465
			c-0.347,0.666-0.354,0.692-0.354,0.692c-0.107,0.67-0.111,0.731-0.111,0.731c-0.004,0.641,0.002,0.776,0.002,0.776
			c0.041,0.784,0.245,2.217,0.3,2.704c0.056,0.547,0.066,0.679,0.066,0.679c0.026,0.628,0.025,0.687,0.025,0.687
			c-0.061,0.672-0.066,0.696-0.066,0.696c-0.32,0.665-0.334,0.679-0.334,0.679c-0.644,0.247-0.693,0.249-0.693,0.249
			c-0.665-0.076-0.727-0.09-0.727-0.09c-0.606-0.179-0.678-0.205-0.678-0.205c-0.531-0.207-0.691-0.275-0.691-0.275
			c-6.324-3.03-12.828-8.467-19.002-11.51c-0.538-0.249-0.712-0.324-0.712-0.324c-0.661-0.263-0.817-0.319-0.817-0.319
			c-0.66-0.197-0.728-0.214-0.728-0.214c-0.631-0.098-0.688-0.101-0.688-0.101c-0.67,0.076-0.687,0.082-0.687,0.082
			c-0.65,0.362-0.675,0.383-0.675,0.383c-0.449,0.473-0.78,0.885-0.78,0.885c-0.667,0.664-0.694,0.682-0.694,0.682
			c-0.656,0.274-0.674,0.277-0.674,0.277c-0.641,0.026-0.694,0.022-0.694,0.022c-0.626-0.098-0.687-0.111-0.687-0.111
			c-0.641-0.174-0.776-0.217-0.776-0.217c-0.563-0.197-0.709-0.253-0.709-0.253c-0.604-0.245-0.917-0.38-0.917-0.38
			c-4.51-2.027-9.81-5.557-14.34-7.32c-0.652-0.236-0.81-0.289-0.81-0.289c-0.617-0.188-0.766-0.228-0.766-0.228
			c-0.647-0.147-0.716-0.16-0.716-0.16c-0.661-0.086-0.734-0.091-0.734-0.091c-0.624,0.003-0.689,0.008-0.689,0.008
			c-0.622,0.1-0.681,0.114-0.681,0.114c-0.672,0.223-0.725,0.245-0.725,0.245c-0.666,0.33-0.766,0.385-0.766,0.385
			c-0.294,0.173-1.076,0.647-1.076,0.647c-0.608,0.336-0.713,0.388-0.713,0.388c-0.662,0.276-0.72,0.295-0.72,0.295
			c-0.611,0.16-0.676,0.172-0.676,0.172c-0.611,0.07-0.683,0.074-0.683,0.074c-0.603-0.01-0.681-0.016-0.681-0.016
			c-0.656-0.085-0.741-0.1-0.741-0.1c-0.531-0.111-0.713-0.156-0.713-0.156c-0.566-0.155-0.761-0.214-0.761-0.214
			c-0.599-0.196-0.804-0.268-0.804-0.268c-7.2-2.72-13.819-7.52-20.835-10.31c-0.581-0.21-0.769-0.273-0.769-0.273
			c-0.546-0.17-0.722-0.22-0.722-0.22c-0.672-0.162-0.752-0.178-0.752-0.178c-0.61-0.091-0.682-0.098-0.682-0.098
			c-0.67-0.008-0.732-0.002-0.732-0.002c-0.665,0.155-0.686,0.164-0.686,0.164c-0.642,0.388-0.675,0.416-0.675,0.416
			c-0.574,0.618-0.63,0.691-0.63,0.691c-0.164,0.223-0.6,0.838-0.6,0.838c-0.505,0.644-0.537,0.68-0.537,0.68
			c-0.658,0.596-0.699,0.625-0.699,0.625c-0.652,0.35-0.704,0.37-0.704,0.37c-0.67,0.184-0.751,0.198-0.751,0.198
			c-0.599,0.068-0.69,0.073-0.69,0.073c-0.67,0.007-0.77,0.004-0.77,0.004c-0.52-0.03-0.736-0.048-0.736-0.048
			c-0.445-0.048-0.674-0.077-0.674-0.077c-2.378-0.35-4.045-0.841-5.952-1.365l-10.537-3.169c-3.327-0.965-7.672-2.014-10.742-2.219
			c-0.585-0.037-0.874-0.05-0.874-0.05c-0.568-0.014-0.847-0.015-0.847-0.015c-0.549,0.01-0.819,0.022-0.819,0.022
			c-0.659,0.048-0.788,0.061-0.788,0.061c-0.632,0.083-0.755,0.103-0.755,0.103c-0.603,0.119-0.72,0.146-0.72,0.146
			c-0.572,0.157-0.683,0.192-0.683,0.192c-0.67,0.251-0.747,0.284-0.747,0.284c-0.669,0.336-0.74,0.378-0.74,0.378
			c-0.614,0.402-0.679,0.45-0.679,0.45c-0.62,0.518-0.679,0.574-0.679,0.574c-0.61,0.652-0.662,0.715-0.662,0.715
			c-0.492,0.662-0.538,0.732-0.538,0.732c-0.351,0.576-0.433,0.725-0.433,0.725c-0.31,0.618-0.383,0.778-0.383,0.778
			c-0.271,0.658-0.334,0.827-0.334,0.827c-0.177,0.519-0.233,0.695-0.233,0.695c-0.155,0.539-0.204,0.723-0.204,0.723
			c-0.134,0.559-0.175,0.748-0.175,0.748c-0.113,0.577-0.148,0.772-0.148,0.772c-0.773,5.073-0.225,9.401,0.588,14.133
			c1.532,8.405,4.682,16.417,9.696,22.716c7.192,9.291,17.551,13.505,27.681,18.209c0.489,0.223,2.238,1.114,2.45,1.243
			c0.576,0.329,0.711,0.41,0.711,0.41c0.613,0.393,0.723,0.469,0.723,0.469c0.648,0.518,0.686,0.554,0.686,0.554
			c0.486,0.653,0.498,0.686,0.498,0.686c-0.049,0.663-0.056,0.676-0.056,0.676c-0.619,0.61-0.685,0.658-0.685,0.658
			c-0.354,0.243-0.962,0.641-0.962,0.641c-0.658,0.479-0.691,0.507-0.691,0.507c-0.594,0.66-0.603,0.676-0.603,0.676
			c-0.173,0.661-0.172,0.68-0.172,0.68c0.215,0.655,0.242,0.7,0.242,0.7c0.496,0.625,0.545,0.676,0.545,0.676
			c0.568,0.52,0.699,0.627,0.699,0.627c0.576,0.44,0.733,0.553,0.733,0.553c0.502,0.343,0.679,0.459,0.679,0.459
			c3.144,1.965,5.598,3.028,8.688,4.382c3.791,1.606,7.799,3.069,11.723,4.315c4.29,1.343,8.877,2.6,13.291,3.183
			c3.274,0.456,6.909,0.448,9.825,0.137c1.518-0.16,4.928-0.564,6.245-0.557c1.998-0.029,3.355,0.08,5.201,0.255
			c4.963,0.579,10.561,1.227,15.546,1.45c38.81,1.35,94.423,1.58,133.155,1.357l25.922-0.741c6.74-0.16,23.724,0.742,30.684,0.968
			c8.69,0.22,17.707,0.198,26.339-0.809c10.765-1.184,21.463-3.541,31.752-6.917c0.806,1.208,1.801,2.625,2.67,3.788
			c0.48,0.609,0.577,0.725,0.577,0.725c0.593,0.654,0.694,0.756,0.694,0.756c0.612,0.57,0.716,0.659,0.716,0.659
			c0.631,0.487,0.737,0.561,0.737,0.561c0.649,0.404,0.759,0.464,0.759,0.464c0.668,0.321,0.781,0.367,0.781,0.367
			c0.571,0.203,0.687,0.238,0.687,0.238c0.585,0.144,0.703,0.166,0.703,0.166c0.598,0.084,0.719,0.095,0.719,0.095
			c12.121,0.034,48.721,0.051,61.245,0.003c0.611-0.038,0.759-0.051,0.759-0.051c0.577-0.063,0.718-0.081,0.718-0.081
			c0.544-0.087,0.676-0.111,0.676-0.111c0.634-0.141,0.756-0.173,0.756-0.173c0.584-0.177,0.696-0.216,0.696-0.216
			c0.636-0.26,0.736-0.307,0.736-0.307c0.654-0.366,0.698-0.394,0.698-0.394c0.641-0.495,0.678-0.529,0.678-0.529
			c0.587-0.655,0.645-0.734,0.645-0.734c0.385-0.596,0.437-0.688,0.437-0.688c0.295-0.579,0.342-0.681,0.342-0.681
			c0.262-0.642,0.303-0.754,0.303-0.754c0.193-0.584,0.23-0.705,0.23-0.705c0.138-0.5,0.202-0.759,0.202-0.759
			c0.119-0.536,0.174-0.814,0.174-0.814c0.1-0.572,0.146-0.868,0.146-0.868c0.082-0.608,0.118-0.922,0.118-0.922
			c0.097-0.994,0.104-1.175,0.134-1.657c0.008-0.594,0.005-0.677,0.005-0.677c-0.061-0.645-0.073-0.723-0.073-0.723
			c-0.135-0.609-0.156-0.682-0.156-0.682c-0.24-0.642-0.271-0.711-0.271-0.711c-0.374-0.661-0.417-0.724-0.417-0.724
			c-0.542-0.663-0.597-0.721-0.597-0.721c-0.611-0.546-0.678-0.597-0.678-0.597c-0.647-0.444-0.724-0.491-0.724-0.491
			c-0.653-0.356-0.74-0.399-0.74-0.399c-0.633-0.282-0.823-0.358-0.823-0.358c-0.595-0.216-0.801-0.284-0.801-0.284
			c-0.644-0.192-0.867-0.252-0.867-0.252c-0.458-0.114-0.694-0.168-0.694-0.168c-0.985-0.209-1.952-0.363-2.529-0.446
			c-0.519-0.073,0.917-0.173,0.917-0.173l1.408-0.117C510.569,465.967,516.945,464.826,521.81,463.001z"/>
	</g>
</g>
</svg>
