<?xml version="1.0" encoding="utf-8"?>
<!-- Generator: Adobe Illustrator 24.2.1, SVG Export Plug-In . SVG Version: 6.00 Build 0)  -->
<!DOCTYPE svg PUBLIC "-//W3C//DTD SVG 1.1//EN" "http://www.w3.org/Graphics/SVG/1.1/DTD/svg11.dtd" [
	<!ENTITY ns_flows "http://ns.adobe.com/Flows/1.0/">
	<!ENTITY ns_extend "http://ns.adobe.com/Extensibility/1.0/">
	<!ENTITY ns_ai "http://ns.adobe.com/AdobeIllustrator/10.0/">
	<!ENTITY ns_graphs "http://ns.adobe.com/Graphs/1.0/">
	<!ENTITY ns_vars "http://ns.adobe.com/Variables/1.0/">
	<!ENTITY ns_imrep "http://ns.adobe.com/ImageReplacement/1.0/">
	<!ENTITY ns_sfw "http://ns.adobe.com/SaveForWeb/1.0/">
	<!ENTITY ns_custom "http://ns.adobe.com/GenericCustomNamespace/1.0/">
	<!ENTITY ns_adobe_xpath "http://ns.adobe.com/XPath/1.0/">
]>
<svg version="1.1" xmlns:x="&ns_extend;" xmlns:i="&ns_ai;" xmlns:graph="&ns_graphs;"
	 xmlns="http://www.w3.org/2000/svg" xmlns:xlink="http://www.w3.org/1999/xlink" xmlns:a="http://ns.adobe.com/AdobeSVGViewerExtensions/3.0/"
	 x="0px" y="0px" width="750px" height="750px" viewBox="0 0 750 750" enable-background="new 0 0 750 750" xml:space="preserve">
<metadata>
	<sfw  xmlns="&ns_sfw;">
		<slices></slices>
		<sliceSourceBounds  bottomLeftOrigin="true" height="12677.386" width="8058.342" x="-3961.342" y="-5120"></sliceSourceBounds>
	</sfw>
</metadata>
<g id="FILL-BACKGROUND">
	<rect fill="#FFFFFF" width="750" height="750"/>
</g>
<g id="N-TEXT">
</g>
<g id="N-DIMENSIONS">
</g>
<g id="AG-DETAIL-DIAGRAM">
</g>
<g id="AG-DIAGRAM">
	<g id="POLYLINE_1091_">
		<g>
			<g>
				
					<line fill="none" stroke="#FB8604" stroke-width="3.25" stroke-linecap="round" stroke-linejoin="round" x1="61.951" y1="484.055" x2="63.951" y2="484.055"/>
				
					<line fill="none" stroke="#FB8604" stroke-width="3.25" stroke-linecap="round" stroke-linejoin="round" stroke-dasharray="4.0233,7.0408" x1="70.992" y1="484.055" x2="620.675" y2="484.055"/>
				
					<line fill="none" stroke="#FB8604" stroke-width="3.25" stroke-linecap="round" stroke-linejoin="round" x1="624.196" y1="484.055" x2="626.196" y2="484.055"/>
			</g>
		</g>
	</g>
</g>
<g id="AG-DETAILS">
	<g id="POLYLINE_574_">
		<path fill="none" stroke="#FB8604" stroke-width="2" stroke-linecap="round" stroke-linejoin="round" stroke-miterlimit="10" d="
			M662.209,403.607l-4.687,1.707c-2.557,0.956-5.078,2.121-7.404,3.553c-4.944,3.054-9.363,7.022-13.521,11.061
			c-5.786,5.708-11.176,12.02-15.823,18.692c-3.538,5.116-6.731,10.561-9.033,16.352"/>
	</g>
	<g id="POLYLINE_573_">
		<path fill="none" stroke="#FB8604" stroke-width="2" stroke-linecap="round" stroke-linejoin="round" stroke-miterlimit="10" d="
			M665.7,407.397l-3.127,2.4c-3.083,2.389-5.285,5.05-7.436,7.987c-2.25,3.089-4.393,6.467-6.318,9.768
			c-3.481,6.003-6.612,12.376-9.083,18.864c-1.795,4.759-3.292,9.703-4.057,14.74"/>
	</g>
	<g id="POLYLINE_571_">
		<path fill="none" stroke="#FB8604" stroke-width="2" stroke-linecap="round" stroke-linejoin="round" stroke-miterlimit="10" d="
			M668.393,411.386c-0.135,0.289-0.503,1.051-0.503,1.051c-0.127,0.279-0.195,0.433-0.195,0.433c-0.945,2.313-1.64,4.75-2.363,7.112
			c-1.136,3.856-2.271,8.221-3.164,12.143c-1.342,6.071-2.539,12.334-2.752,18.558"/>
	</g>
</g>
<g id="X-VPRT">
</g>
<g id="AG-ANIMALS">
	<g id="POLYLINE_1081_">
		
			<path fill="none" stroke="#FB8604" stroke-width="2.75" stroke-linecap="round" stroke-linejoin="round" stroke-miterlimit="10" d="
			M679.785,415.39c-0.364-0.08-0.382-0.086-0.382-0.086c-0.367-0.199-0.383-0.211-0.383-0.211c-0.363-0.365-0.376-0.382-0.376-0.382
			c-0.229-0.364-0.25-0.404-0.25-0.404c-0.151-0.338-0.169-0.383-0.169-0.383c-0.124-0.375-0.138-0.424-0.138-0.424
			c-0.075-0.302-0.097-0.405-0.097-0.405c-0.058-0.319-0.075-0.427-0.075-0.427c-0.042-0.332-0.053-0.445-0.053-0.445
			c-0.026-0.342-0.032-0.458-0.032-0.458c-0.011-0.349-0.012-0.466-0.012-0.466c0.004-0.352,0.007-0.47,0.007-0.47
			c0.018-0.352,0.026-0.469,0.026-0.469c0.031-0.348,0.043-0.464,0.043-0.464c0.044-0.345,0.061-0.459,0.061-0.459
			c0.057-0.336,0.078-0.447,0.078-0.447c0.07-0.326,0.096-0.433,0.096-0.433c0.084-0.315,0.114-0.417,0.114-0.417
			c0.098-0.302,0.133-0.4,0.133-0.4c0.112-0.288,0.152-0.381,0.152-0.381c0.171-0.36,0.194-0.404,0.194-0.404
			c0.219-0.375,0.244-0.414,0.244-0.414c0.247-0.34,0.276-0.375,0.276-0.375c0.341-0.364,0.374-0.394,0.374-0.394
			c0.348-0.277,0.384-0.302,0.384-0.302c0.345-0.202,0.385-0.222,0.385-0.222c0.333-0.139,0.376-0.154,0.376-0.154
			c0.358-0.098,0.405-0.108,0.405-0.108c0.341-0.052,0.392-0.057,0.392-0.057c0.358-0.018,0.41-0.018,0.41-0.018
			c0.369,0.016,0.422,0.02,0.422,0.02c0.321,0.039,0.375,0.048,0.375,0.048c0.323,0.063,0.377,0.075,0.377,0.075
			c0.374,0.102,0.427,0.119,0.427,0.119c0.366,0.132,0.418,0.153,0.418,0.153c0.354,0.161,0.403,0.186,0.403,0.186
			c0.336,0.189,0.383,0.217,0.383,0.217c0.356,0.248,0.399,0.281,0.399,0.281c0.357,0.319,0.394,0.356,0.394,0.356
			c0.302,0.358,0.332,0.4,0.332,0.4c0.225,0.374,0.236,0.396,0.236,0.396c0.145,0.355,0.153,0.38,0.153,0.38
			c0.086,0.353,0.09,0.379,0.09,0.379c0.032,0.34,0.033,0.375,0.033,0.375c-0.015,0.354-0.018,0.39-0.018,0.39
			c-0.058,0.367-0.066,0.404-0.066,0.404c-0.076,0.301-0.099,0.377-0.099,0.377c-0.104,0.306-0.133,0.383-0.133,0.383
			c-0.13,0.31-0.165,0.387-0.165,0.387c-0.153,0.312-0.194,0.389-0.194,0.389c-0.175,0.311-0.221,0.389-0.221,0.389
			c-0.195,0.31-0.246,0.387-0.246,0.387c-0.158,0.23-0.267,0.382-0.267,0.382c-0.228,0.301-0.346,0.449-0.346,0.449
			c-0.244,0.292-0.37,0.435-0.37,0.435c-0.258,0.28-0.389,0.417-0.389,0.417c-0.268,0.266-0.404,0.395-0.404,0.395
			c-0.275,0.249-0.415,0.369-0.415,0.369c-0.28,0.23-0.421,0.339-0.421,0.339c-0.352,0.257-0.423,0.305-0.423,0.305
			c-0.351,0.226-0.42,0.268-0.42,0.268c-0.345,0.191-0.414,0.226-0.414,0.226c-0.337,0.154-0.403,0.181-0.403,0.181
			c-0.356,0.122-0.387,0.131-0.387,0.131c-0.368,0.078-0.398,0.082-0.398,0.082C679.839,415.394,679.812,415.392,679.785,415.39z"/>
	</g>
	<g id="POLYLINE_1080_">
		
			<path fill="none" stroke="#FB8604" stroke-width="2.75" stroke-linecap="round" stroke-linejoin="round" stroke-miterlimit="10" d="
			M610.03,409.032c2.831,1.783,5.856,3.534,8.864,4.999c3.598,1.758,7.474,3.259,11.278,4.508c5.95,1.947,12.12,3.48,18.327,4.327
			c6.023,0.789,12.256,1.016,18.205-0.391c4.749-1.116,9.513-3.569,13.118-6.783"/>
	</g>
	<g id="POLYLINE_1063_">
		
			<path fill="none" stroke="#FB8604" stroke-width="2.75" stroke-linecap="round" stroke-linejoin="round" stroke-miterlimit="10" d="
			M536.135,440.992c-0.686,2.375-1.322,5.077-1.411,7.331c-0.103,1.923,0.059,3.884,0.372,5.781
			c0.393,2.359,0.995,4.737,1.735,7.011c0.668,2.052,1.645,4.477,2.682,6.169c0.204,0.326,0.272,0.43,0.272,0.43
			c0.206,0.303,0.275,0.4,0.275,0.4c0.277,0.368,0.347,0.455,0.347,0.455c0.28,0.326,0.35,0.401,0.35,0.401
			c0.353,0.344,0.388,0.375,0.388,0.375c0.354,0.276,0.39,0.3,0.39,0.3c0.355,0.204,0.391,0.221,0.391,0.221
			c0.348,0.126,0.382,0.135,0.382,0.135c0.344,0.06,0.378,0.063,0.378,0.063c0.342,0.009,0.376,0.007,0.376,0.007
			c0.34-0.03,0.408-0.039,0.408-0.039c0.337-0.056,1.001-0.19,1.001-0.19c0.326-0.055,0.391-0.063,0.391-0.063
			c0.353-0.028,0.385-0.028,0.385-0.028c0.346,0.021,0.377,0.026,0.377,0.026c0.369,0.099,0.384,0.105,0.384,0.105
			c0.361,0.196,0.384,0.212,0.384,0.212c0.333,0.283,0.376,0.327,0.376,0.327c0.303,0.344,0.346,0.398,0.346,0.398
			c0.255,0.348,0.339,0.473,0.339,0.473c0.167,0.26,0.25,0.396,0.25,0.396c0.937,1.567,1.785,3.631,2.672,5.055
			c0.165,0.257,0.249,0.379,0.249,0.379c0.252,0.342,0.294,0.395,0.294,0.395c0.321,0.357,0.342,0.378,0.342,0.378
			c0.365,0.297,0.38,0.306,0.38,0.306c0.361,0.182,0.376,0.188,0.376,0.188c0.371,0.093,0.402,0.097,0.402,0.097
			c0.349,0.018,0.381,0.017,0.381,0.017c0.326-0.028,0.391-0.037,0.391-0.037c0.334-0.062,0.402-0.077,0.402-0.077
			c0.49-0.121,1.064-0.277,1.272-0.324c0.372-0.077,0.447-0.09,0.447-0.09c0.305-0.043,0.382-0.05,0.382-0.05
			c0.335-0.018,0.386-0.019,0.386-0.019c0.36,0.012,0.412,0.016,0.412,0.016c0.368,0.04,0.474,0.056,0.474,0.056
			c0.802,0.118,2.32,0.569,2.896,0.714c0.231,0.057,0.462,0.111,0.462,0.111c0.348,0.073,0.464,0.096,0.464,0.096
			c0.349,0.059,0.466,0.075,0.466,0.075c0.35,0.04,0.467,0.049,0.467,0.049c0.35,0.017,0.409,0.017,0.409,0.017
			c0.35-0.007,0.408-0.01,0.408-0.01c0.349-0.034,0.407-0.041,0.407-0.041c0.328-0.059,0.404-0.076,0.404-0.076
			c0.306-0.081,0.383-0.104,0.383-0.104c0.306-0.105,0.382-0.134,0.382-0.134c0.305-0.127,0.382-0.162,0.382-0.162
			c0.305-0.148,0.381-0.188,0.381-0.188c0.305-0.168,0.382-0.212,0.382-0.212c0.306-0.186,0.459-0.284,0.459-0.284
			c0.307-0.206,0.46-0.314,0.46-0.314c0.619-0.441,1.216-0.937,1.552-1.218l3.255-2.849c1.389-1.179,2.468-1.97,3.716-2.707
			c1.79-1.074,4.648-2.336,6.543-3.245c1.655-0.794,3.597-1.904,4.9-3.003c0.367-0.313,0.548-0.474,0.548-0.474
			c2.85-2.634,4.726-6.301,6.763-9.476c1.194-1.905,2.796-4.124,4.321-5.554c2.141-2.009,4.236-3.196,6.667-4.464l5.638-2.777
			c1.341-0.672,3.16-1.735,4.224-2.545c2.265-1.686,3.918-3.487,5.515-5.346c1.446-1.748,4.134-5.024,5.622-6.667
			c1.621-1.81,5.531-6.109,7.032-7.922"/>
	</g>
	<g id="POLYLINE_1062_">
		
			<path fill="none" stroke="#FB8604" stroke-width="2.75" stroke-linecap="round" stroke-linejoin="round" stroke-miterlimit="10" d="
			M559.134,478.5c0.122,0.338,0.184,0.504,0.184,0.504c0.13,0.323,0.197,0.48,0.197,0.48c0.138,0.307,0.208,0.456,0.208,0.456
			c0.146,0.291,0.221,0.433,0.221,0.433c0.154,0.275,0.233,0.409,0.233,0.409c0.162,0.259,0.245,0.385,0.245,0.385
			c0.257,0.362,0.301,0.42,0.301,0.42c0.271,0.334,0.317,0.387,0.317,0.387c0.333,0.355,0.382,0.403,0.382,0.403
			c0.353,0.318,0.379,0.34,0.379,0.34c0.356,0.244,0.389,0.264,0.389,0.264c0.351,0.183,0.427,0.218,0.427,0.218
			c0.321,0.131,0.406,0.163,0.406,0.163c0.357,0.118,0.451,0.146,0.451,0.146c0.293,0.079,0.394,0.104,0.394,0.104
			c1.276,0.3,2.525,0.379,3.573,0.422c7.044,0.059,20.238,0.003,27.229,0.022c0.346-0.015,0.38-0.018,0.38-0.018
			c0.365-0.054,0.397-0.06,0.397-0.06c0.348-0.092,0.379-0.103,0.379-0.103c0.36-0.145,0.39-0.159,0.39-0.159
			c0.368-0.209,0.395-0.227,0.395-0.227c0.37-0.285,0.396-0.308,0.396-0.308c0.367-0.374,0.414-0.429,0.414-0.429
			c0.27-0.354,0.313-0.417,0.313-0.417c0.208-0.333,0.248-0.404,0.248-0.404c0.193-0.368,0.23-0.445,0.23-0.445
			c0.14-0.309,0.173-0.387,0.173-0.387c0.125-0.317,0.154-0.397,0.154-0.397c0.11-0.325,0.136-0.408,0.136-0.408
			c0.095-0.334,0.117-0.418,0.117-0.418c0.081-0.342,0.099-0.429,0.099-0.429c0.066-0.351,0.081-0.439,0.081-0.439
			c0.051-0.359,0.073-0.541,0.073-0.541c0.1-1.015,0.074-1.725,0.009-2.517c-0.033-0.3-0.047-0.397-0.047-0.397
			c-0.067-0.374-0.088-0.463-0.088-0.463c-0.093-0.344-0.106-0.386-0.106-0.386c-0.132-0.356-0.148-0.394-0.148-0.394
			c-0.18-0.357-0.2-0.391-0.2-0.391c-0.239-0.346-0.262-0.375-0.262-0.375c-0.364-0.371-0.393-0.395-0.393-0.395
			c-0.366-0.256-0.398-0.275-0.398-0.275c-0.343-0.169-0.379-0.184-0.379-0.184c-0.339-0.118-0.378-0.129-0.378-0.129
			c-0.368-0.085-0.41-0.092-0.41-0.092c-2.33-0.237-6.128-0.67-8.478-0.968c-1.678-0.215-3.134-0.58-4.433-1.114
			c-0.368-0.159-0.488-0.214-0.488-0.214c-0.354-0.171-0.469-0.23-0.469-0.23c-0.339-0.183-0.45-0.246-0.45-0.246
			c-0.325-0.195-0.431-0.262-0.431-0.262c-0.31-0.207-0.411-0.277-0.411-0.277c-0.296-0.219-0.392-0.293-0.392-0.293
			c-0.373-0.309-0.463-0.389-0.463-0.389"/>
	</g>
	<g id="POLYLINE_1061_">
		
			<path fill="none" stroke="#FB8604" stroke-width="2.75" stroke-linecap="round" stroke-linejoin="round" stroke-miterlimit="10" d="
			M431.829,450.056c-1.67,5.111-3.3,11.01-2.536,16.276c0.064,0.369,0.087,0.49,0.087,0.49c0.076,0.357,0.103,0.474,0.103,0.474
			c0.087,0.345,0.119,0.458,0.119,0.458c0.099,0.334,0.134,0.443,0.134,0.443c0.111,0.322,0.15,0.427,0.15,0.427
			c0.123,0.31,0.166,0.411,0.166,0.411c0.135,0.298,0.181,0.395,0.181,0.395c0.146,0.286,0.197,0.38,0.197,0.38
			c0.353,0.633,0.754,1.234,0.946,1.512c0.242,0.339,0.366,0.506,0.366,0.506c0.253,0.329,0.383,0.491,0.383,0.491
			c0.264,0.32,0.399,0.477,0.399,0.477c0.275,0.31,0.416,0.462,0.416,0.462c0.287,0.3,0.433,0.448,0.433,0.448
			c0.298,0.291,0.449,0.434,0.449,0.434c2.251,2.068,4.564,3.289,7.132,4.24c3.779,1.371,8.33,2.954,12.168,4.133
			c3.518,1.023,6.831,1.254,10.416,1.444c13.601,0.241,36.345,0.031,49.944,0.094c1.386-0.004,3.31-0.159,4.526-0.43
			c0.319-0.072,0.474-0.11,0.474-0.11c0.301-0.08,0.448-0.123,0.448-0.123c0.284-0.089,0.421-0.135,0.421-0.135
			c0.266-0.097,0.394-0.148,0.394-0.148c0.368-0.16,0.426-0.188,0.426-0.188c0.336-0.175,0.39-0.205,0.39-0.205
			c0.353-0.222,0.401-0.255,0.401-0.255c0.353-0.277,0.394-0.313,0.394-0.313c0.334-0.341,0.367-0.381,0.367-0.381
			c0.267-0.372,0.293-0.416,0.293-0.416c0.165-0.309,0.208-0.398,0.208-0.398c0.163-0.358,0.201-0.448,0.201-0.448
			c0.139-0.362,0.171-0.452,0.171-0.452c0.115-0.365,0.141-0.457,0.141-0.457c0.092-0.368,0.111-0.461,0.111-0.461
			c0.068-0.372,0.082-0.465,0.082-0.465c0.035-0.281,0.044-0.375,0.044-0.375c0.02-0.283,0.025-0.378,0.025-0.378
			c0.006-0.285,0.006-0.381,0.006-0.381c-0.008-0.288-0.013-0.384-0.013-0.384c-0.023-0.29-0.033-0.386-0.033-0.386
			c-0.037-0.292-0.052-0.389-0.052-0.389c-0.051-0.294-0.071-0.392-0.071-0.392c-0.066-0.296-0.09-0.395-0.09-0.395
			c-0.08-0.298-0.109-0.398-0.109-0.398c-0.095-0.294-0.129-0.391-0.129-0.391c-0.149-0.374-0.19-0.465-0.19-0.465
			c-0.175-0.353-0.222-0.438-0.222-0.438c-0.201-0.332-0.255-0.412-0.255-0.412c-0.227-0.311-0.287-0.386-0.287-0.386
			c-0.319-0.36-0.387-0.429-0.387-0.429c-0.358-0.329-0.433-0.391-0.433-0.391c-0.315-0.24-0.396-0.297-0.396-0.297
			c-0.34-0.219-0.429-0.271-0.429-0.271c-0.366-0.198-0.461-0.245-0.461-0.245c-0.292-0.134-0.392-0.177-0.392-0.177
			c-0.308-0.122-0.413-0.16-0.413-0.16c-0.323-0.109-0.433-0.143-0.433-0.143c-0.341-0.097-0.461-0.128-0.461-0.128
			c-2.331-0.536-4.176-0.556-6.34-0.61c-4.049-0.053-8.188,0.377-12.239,0.239c-5.811-0.141-11.717-0.783-17.46-1.669
			c-6.794-1.094-13.614-2.763-19.864-5.695"/>
	</g>
	<g id="POLYLINE_1060_">
		
			<path fill="none" stroke="#FB8604" stroke-width="2.75" stroke-linecap="round" stroke-linejoin="round" stroke-miterlimit="10" d="
			M484.88,469.277l2.872-1.626c2.093-1.206,3.937-2.677,5.24-4.314c2.015-2.566,3.103-5.051,4.391-7.83
			c1.744-3.932,4.154-9.916,6.28-13.582c1.701-3.062,4.801-6.882,6.906-9.701c1.489-2.017,2.976-4.534,3.74-6.715
			c1.289-3.688,1.557-7.039,1.506-10.815c-0.147-5.447-1.217-10.895-3.168-15.984"/>
	</g>
	<g id="POLYLINE_1059_">
		
			<path fill="none" stroke="#FB8604" stroke-width="2.75" stroke-linecap="round" stroke-linejoin="round" stroke-miterlimit="10" d="
			M522.916,476.416c0.338-0.156,0.511-0.232,0.511-0.232c0.35-0.147,0.528-0.218,0.528-0.218c0.36-0.136,0.541-0.201,0.541-0.201
			c0.366-0.123,0.551-0.181,0.551-0.181c0.371-0.108,0.556-0.159,0.556-0.159c0.372-0.092,0.558-0.134,0.558-0.134
			c0.371-0.074,0.556-0.106,0.556-0.106c0.368-0.054,0.459-0.066,0.459-0.066c0.363-0.036,0.453-0.043,0.453-0.043
			c0.356-0.017,0.445-0.019,0.445-0.019c0.348,0.003,0.434,0.006,0.434,0.006c0.335,0.024,0.417,0.033,0.417,0.033
			c0.324,0.044,0.404,0.057,0.404,0.057c0.465,0.087,0.611,0.13,0.789,0.174c1.54,0.445,2.834,0.93,4.125,1.124
			c2.567,0.381,4.716,0.285,7.205,0.053c2.598-0.27,5.442-0.836,7.869-1.706"/>
	</g>
	<g id="POLYLINE_1058_">
		
			<path fill="none" stroke="#FB8604" stroke-width="2.75" stroke-linecap="round" stroke-linejoin="round" stroke-miterlimit="10" d="
			M381.462,475.219c-19.86,2.754-41.89,5.422-61.792,6.752c-27.49,1.8-59.082,1.995-86.716,2.084
			c-18.775-0.172-92.241,0.493-109.594-0.584c-9.678-0.515-19.691-1.379-29.239-3.064c-5.352-0.982-10.92-2.196-16.137-3.744
			c-3.531-1.067-7.573-2.486-10.558-4.415c-0.345-0.231-0.456-0.309-0.456-0.309c-0.322-0.233-0.425-0.31-0.425-0.31
			c-0.299-0.234-0.394-0.312-0.394-0.312c-0.363-0.314-0.449-0.393-0.449-0.393c-0.246-0.237-0.402-0.394-0.402-0.394
			c-0.293-0.309-0.43-0.46-0.43-0.46c-0.318-0.369-0.377-0.442-0.377-0.442c-0.273-0.354-0.323-0.424-0.323-0.424
			c-0.228-0.339-0.27-0.405-0.27-0.405c-0.184-0.324-0.216-0.387-0.216-0.387c-0.162-0.369-0.173-0.399-0.173-0.399
			c-0.104-0.35-0.111-0.378-0.111-0.378c-0.048-0.357-0.049-0.383-0.049-0.383c0.024-0.358,0.029-0.383,0.029-0.383
			c0.113-0.355,0.123-0.377,0.123-0.377c0.235-0.366,0.252-0.386,0.252-0.386c0.373-0.345,0.397-0.363,0.397-0.363
			c0.32-0.206,0.379-0.238,0.379-0.238c0.315-0.155,0.383-0.185,0.383-0.185c0.36-0.14,0.436-0.167,0.436-0.167
			c0.321-0.101,0.405-0.125,0.405-0.125c2.304-0.584,4.262-0.544,6.509-0.58c3.737,0.008,7.804,0.257,11.537,0.528
			c7.461,0.531,15.937,1.569,23.377,2.186c7.652,0.582,15.779,0.747,23.449,0.516c10.305-0.257,21.16-1.51,31.392-2.825
			c13.134-1.514,27.393-2.595,40.608-2.956c23.3-0.416,54.355-1.044,77.589-2.528c8.159-0.573,17.753-1.439,25.852-2.534
			c23.542-3.181,48.583-10.107,71.585-16.133"/>
	</g>
	<g id="POLYLINE_1057_">
		
			<path fill="none" stroke="#FB8604" stroke-width="2.75" stroke-linecap="round" stroke-linejoin="round" stroke-miterlimit="10" d="
			M590.229,372.433c-0.353-0.121-0.44-0.154-0.44-0.154c-0.338-0.142-0.42-0.18-0.42-0.18c-0.323-0.162-0.401-0.205-0.401-0.205
			c-0.308-0.182-0.383-0.229-0.383-0.229c-0.365-0.253-0.436-0.306-0.436-0.306c-0.345-0.279-0.411-0.338-0.411-0.338
			c-0.325-0.305-0.388-0.368-0.388-0.368c-0.305-0.328-0.365-0.396-0.365-0.396c-0.287-0.351-0.343-0.423-0.343-0.423
			c-0.269-0.372-0.322-0.448-0.322-0.448c-0.203-0.312-0.301-0.472-0.301-0.472c-0.19-0.327-0.282-0.494-0.282-0.494
			c-0.178-0.341-0.264-0.514-0.264-0.514c-0.166-0.353-0.246-0.533-0.246-0.533c-1.828-4.285-2.207-9.429-2.909-13.983
			c-0.311-2.08-0.692-4.232-1.243-6.261c-0.89-3.443-2.789-7.134-3.281-10.627c-0.038-0.322-0.049-0.429-0.049-0.429
			c-0.026-0.32-0.032-0.426-0.032-0.426c-0.012-0.317-0.014-0.423-0.014-0.423c0.002-0.315,0.005-0.419,0.005-0.419
			c0.017-0.312,0.026-0.416,0.026-0.416c0.033-0.31,0.047-0.412,0.047-0.412c0.05-0.307,0.07-0.409,0.07-0.409
			c0.068-0.304,0.094-0.405,0.094-0.405c0.086-0.301,0.119-0.401,0.119-0.401c0.106-0.298,0.144-0.397,0.144-0.397
			c0.126-0.295,0.172-0.393,0.172-0.393c0.162-0.321,0.221-0.427,0.221-0.427c0.187-0.317,0.253-0.421,0.253-0.421
			c0.211-0.312,0.285-0.415,0.285-0.415c0.233-0.306,0.314-0.407,0.314-0.407c0.254-0.3,0.343-0.399,0.343-0.399
			c0.274-0.293,0.369-0.39,0.369-0.39c0.294-0.286,0.394-0.38,0.394-0.38c0.312-0.278,0.418-0.369,0.418-0.369
			c0.328-0.27,0.441-0.358,0.441-0.358c0.344-0.26,0.462-0.346,0.462-0.346c0.359-0.251,0.481-0.332,0.481-0.332
			c2.951-1.927,6.332-2.958,9.569-2.872c0.291,0.014,0.436,0.023,0.436,0.023c0.288,0.024,0.431,0.039,0.431,0.039
			c0.285,0.035,0.426,0.055,0.426,0.055c0.281,0.046,0.421,0.071,0.421,0.071c0.277,0.057,0.414,0.088,0.414,0.088
			c0.272,0.068,0.426,0.11,0.426,0.11c0.304,0.092,0.454,0.141,0.454,0.141c0.297,0.106,0.445,0.163,0.445,0.163
			c0.291,0.12,0.435,0.184,0.435,0.184c0.285,0.134,0.427,0.205,0.427,0.205c0.279,0.148,0.418,0.225,0.418,0.225
			c0.274,0.161,0.409,0.244,0.409,0.244c0.268,0.173,0.4,0.263,0.4,0.263c0.262,0.185,0.392,0.281,0.392,0.281
			c0.257,0.197,0.383,0.299,0.383,0.299c0.251,0.209,0.375,0.316,0.375,0.316c0.367,0.333,0.488,0.447,0.488,0.447
			c0.357,0.354,0.474,0.475,0.474,0.475c2.177,2.305,3.624,5.052,4.78,7.597c1.27,2.838,2.3,5.902,3.2,8.878
			c0.948,3.187,1.801,6.531,2.343,9.811c0.399,2.432,0.701,5.3,0.435,7.668c-0.047,0.369-0.065,0.489-0.065,0.489
			c-0.06,0.352-0.083,0.467-0.083,0.467c-0.074,0.336-0.102,0.446-0.102,0.446c-0.089,0.322-0.122,0.427-0.122,0.427
			c-0.106,0.309-0.144,0.41-0.144,0.41c-0.123,0.297-0.167,0.394-0.167,0.394c-0.141,0.286-0.191,0.379-0.191,0.379
			c-0.216,0.367-0.275,0.457-0.275,0.457c-0.25,0.353-0.317,0.44-0.317,0.44c-0.286,0.342-0.362,0.426-0.362,0.426
			c-0.324,0.333-0.41,0.415-0.41,0.415c-0.364,0.327-0.46,0.408-0.46,0.408c-0.302,0.242-0.406,0.323-0.406,0.323
			c-0.328,0.241-0.442,0.322-0.442,0.322c-2.211,1.512-4.565,2.53-6.837,3.308c-2.596,0.855-5.157,1.39-7.63,1.253
			c-0.37-0.03-0.491-0.042-0.491-0.042c-0.36-0.046-0.478-0.064-0.478-0.064c-0.348-0.063-0.463-0.087-0.463-0.087
			C590.555,372.527,590.445,372.497,590.229,372.433z"/>
	</g>
	<g id="POLYLINE_1056_">
		
			<path fill="none" stroke="#FB8604" stroke-width="2.75" stroke-linecap="round" stroke-linejoin="round" stroke-miterlimit="10" d="
			M686.189,407.285c2.149-4.641,2.245-9.942,0.565-14.518c-1.885-5.136-5.22-9.165-8.596-13.314
			c-4.25-5.083-8.994-10.719-13.746-15.301c-4.365-4.258-9.146-8.198-14.162-11.667c-7.906-5.448-16.488-10.071-25.342-13.778
			c-7.281-3.014-14.922-5.492-22.711-6.764"/>
	</g>
	<g id="POLYLINE_1055_">
		
			<path fill="none" stroke="#FB8604" stroke-width="2.75" stroke-linecap="round" stroke-linejoin="round" stroke-miterlimit="10" d="
			M578.115,332.598c-6.386,1.157-13.765,2.836-20.187,3.089c-4.319,0.189-8.703-0.233-12.967-0.916
			c-10.327-1.675-22.945-5.478-33.281-7.092c-7.046-1.131-14.288-1.656-21.417-1.246c-8.278,0.458-16.509,2.197-24.264,5.131
			c-6.664,2.504-13.028,5.918-18.996,9.785c-15.911,10.421-29.831,23.926-41.455,38.942c-4.872,6.365-9.364,13.138-13.099,20.235
			c-4.132,7.831-7.348,16.284-10.043,24.71l-5.082,16.505c-1.54,4.812-3.301,9.77-5.579,14.28c-1.19,2.427-3.5,6.565-4.333,9.045
			c-0.102,0.323-0.133,0.428-0.133,0.428c-0.083,0.308-0.108,0.409-0.108,0.409c-0.064,0.294-0.081,0.389-0.081,0.389
			c-0.053,0.369-0.058,0.414-0.058,0.414c-0.02,0.346-0.02,0.388-0.02,0.388c0.02,0.361,0.025,0.399,0.025,0.399
			c0.077,0.365,0.087,0.4,0.087,0.4c0.154,0.357,0.172,0.387,0.172,0.387c0.282,0.36,0.308,0.385,0.308,0.385
			c0.37,0.277,0.4,0.294,0.4,0.294c0.361,0.176,0.396,0.19,0.396,0.19c0.337,0.119,0.417,0.143,0.417,0.143
			c0.332,0.087,0.419,0.106,0.419,0.106c0.36,0.071,0.453,0.087,0.453,0.087c2.559,0.385,5.406,0.145,7.887,0.496
			c0.303,0.047,0.402,0.064,0.402,0.064c0.29,0.056,0.384,0.076,0.384,0.076c0.365,0.089,0.453,0.113,0.453,0.113
			c0.338,0.107,0.418,0.136,0.418,0.136c0.344,0.144,0.38,0.162,0.38,0.162c0.37,0.21,0.4,0.231,0.4,0.231
			c0.366,0.307,0.384,0.326,0.384,0.326c0.279,0.358,0.293,0.379,0.293,0.379c0.189,0.357,0.209,0.404,0.209,0.404
			c0.125,0.339,0.14,0.389,0.14,0.389c0.093,0.36,0.105,0.413,0.105,0.413c0.094,0.489,0.107,0.654,0.136,0.874
			c0.024,0.244,0.14,1.412,0.168,1.581c0.051,0.33,0.07,0.438,0.07,0.438c0.081,0.371,0.095,0.423,0.095,0.423
			c0.109,0.353,0.127,0.402,0.127,0.402c0.144,0.331,0.168,0.377,0.168,0.377c0.231,0.367,0.247,0.387,0.247,0.387
			c0.355,0.373,0.386,0.399,0.386,0.399c0.341,0.247,0.377,0.27,0.377,0.27c0.353,0.192,0.394,0.212,0.394,0.212
			c0.303,0.13,0.394,0.165,0.394,0.165c0.282,0.097,0.379,0.128,0.379,0.128c0.301,0.084,0.405,0.111,0.405,0.111
			c0.319,0.072,0.428,0.094,0.428,0.094c2.313,0.406,4.172,0.294,6.394,0.217c2.891-0.141,7.217-0.566,9.97-0.208
			c2.126,0.245,3.784,0.808,5.556,1.547c2.071,0.882,4.844,2.148,6.931,2.777c1.765,0.56,3.616,0.969,5.455,1.188
			c4.354,0.478,8.219,0.188,12.443-0.476c4.463-0.748,8.9-1.997,13.03-3.858"/>
	</g>
</g>
<g id="AG-OUTLINE">
	<g id="POLYLINE_480_">
		
			<path fill="none" stroke="#FB8604" stroke-width="3.5" stroke-linecap="round" stroke-linejoin="round" stroke-miterlimit="10" d="
			M680.165,415.384c0.373-0.069,0.403-0.077,0.403-0.077c0.365-0.118,0.427-0.142,0.427-0.142c0.317-0.139,0.381-0.17,0.381-0.17
			c0.326-0.173,0.391-0.211,0.391-0.211c0.331-0.205,0.398-0.249,0.398-0.249c0.267-0.185,0.4-0.283,0.4-0.283
			c0.267-0.206,0.399-0.314,0.399-0.314c0.264-0.225,0.395-0.342,0.395-0.342c0.259-0.241,0.386-0.366,0.386-0.366
			c0.251-0.256,0.375-0.387,0.375-0.387c0.241-0.268,0.359-0.405,0.359-0.405c0.229-0.278,0.34-0.419,0.34-0.419
			c0.214-0.286,0.317-0.43,0.317-0.43c0.244-0.364,0.29-0.437,0.29-0.437c0.219-0.368,0.26-0.442,0.26-0.442
			c0.191-0.369,0.226-0.443,0.226-0.443c0.16-0.367,0.188-0.44,0.188-0.44c0.125-0.363,0.147-0.435,0.147-0.435
			c0.088-0.355,0.095-0.391,0.095-0.391c0.051-0.346,0.055-0.38,0.055-0.38c0.011-0.368,0.01-0.4,0.01-0.4
			c-0.039-0.35-0.044-0.378-0.044-0.378c-0.093-0.352-0.102-0.379-0.102-0.379c-0.098-0.305,0.193-0.739,0.214-0.84
			c0.132-0.362,0.296-0.73,0.338-0.881c0.386-1.097,0.664-2.166,0.826-3.097c1.668-9.286-3.995-16.555-9.48-23.195
			c-4.25-5.083-8.994-10.719-13.746-15.301c-4.365-4.258-9.146-8.198-14.162-11.667c-7.906-5.448-16.488-10.071-25.342-13.778
			c-7.281-3.014-14.922-5.492-22.711-6.764c-0.834-1.347-1.684-2.464-2.534-3.37c-0.35-0.361-0.468-0.477-0.468-0.477
			c-0.36-0.34-0.482-0.45-0.482-0.45c-0.371-0.318-0.496-0.421-0.496-0.421c-0.253-0.199-0.381-0.296-0.381-0.296
			c-0.259-0.188-0.39-0.278-0.39-0.278c-0.264-0.176-0.398-0.26-0.398-0.26c-0.27-0.163-0.406-0.242-0.406-0.242
			c-0.276-0.151-0.415-0.223-0.415-0.223c-0.282-0.137-0.424-0.203-0.424-0.203c-0.288-0.124-0.433-0.183-0.433-0.183
			c-0.294-0.11-0.442-0.162-0.442-0.162c-0.3-0.096-0.451-0.14-0.451-0.14c-0.288-0.077-0.425-0.11-0.425-0.11
			c-0.276-0.061-0.414-0.088-0.414-0.088c-0.28-0.049-0.421-0.071-0.421-0.071c-0.284-0.038-0.426-0.055-0.426-0.055
			c-0.287-0.028-0.431-0.039-0.431-0.039c-0.29-0.017-0.436-0.023-0.436-0.023c-3.484-0.089-6.783,1.088-9.446,2.791
			c-0.366,0.246-0.486,0.329-0.486,0.329c-0.352,0.256-0.466,0.342-0.466,0.342c-0.336,0.265-0.446,0.355-0.446,0.355
			c-0.32,0.274-0.424,0.367-0.424,0.367c-0.303,0.282-0.401,0.377-0.401,0.377c-0.284,0.29-0.376,0.388-0.376,0.388
			c-0.265,0.297-0.349,0.397-0.349,0.397c-0.244,0.303-0.321,0.405-0.321,0.405c-0.222,0.309-0.292,0.413-0.292,0.413
			c-0.199,0.314-0.261,0.42-0.261,0.42c-0.175,0.319-0.229,0.426-0.229,0.426c-0.158,0.341-0.191,0.42-0.191,0.42
			c-2.32,0.876-8.856,1.913-10.928,2.325c-2.86,0.483-5.814,0.889-8.705,1.046c-4.543,0.261-9.155-0.163-13.642-0.884
			c-10.327-1.675-22.945-5.478-33.281-7.092c-7.606-1.222-15.42-1.732-23.108-1.133c-10.309,0.766-20.453,3.589-29.747,8.1
			c-23.952,11.685-47.542,35.208-61.654,57.682c-3.88,6.173-7.233,12.778-9.968,19.537c-3.464,8.275-6.876,20.215-9.548,28.837
			c-23.052,6.041-48.029,12.948-71.584,16.134c-8.098,1.094-17.675,1.96-25.852,2.533c-23.222,1.484-54.295,2.112-77.59,2.528
			c-13.216,0.36-27.473,1.442-40.608,2.956c-9.065,1.148-18.849,2.335-27.969,2.696c-7.703,0.344-15.88,0.303-23.578-0.162
			c-4.949-0.28-11.087-0.96-16.033-1.473c-5.958-0.578-12.947-1.203-18.92-1.408c-2.969-0.064-6.372-0.197-9.231,0.388
			c-0.362,0.087-0.449,0.11-0.449,0.11c-0.333,0.097-0.412,0.122-0.412,0.122c-0.375,0.135-0.445,0.164-0.445,0.164
			c-0.33,0.15-0.392,0.182-0.392,0.182c-0.364,0.217-0.389,0.235-0.389,0.235c-0.374,0.318-0.393,0.338-0.393,0.338
			c-0.26,0.357-0.272,0.379-0.272,0.379c-0.141,0.371-0.147,0.396-0.147,0.396c-0.04,0.353-0.04,0.379-0.04,0.379
			c0.033,0.352,0.038,0.38,0.038,0.38c0.101,0.375,0.111,0.404,0.111,0.404c0.153,0.366,0.184,0.429,0.184,0.429
			c0.176,0.322,0.216,0.387,0.216,0.387c0.221,0.337,0.27,0.405,0.27,0.405c0.266,0.352,0.323,0.424,0.323,0.424
			c0.245,0.293,0.377,0.442,0.377,0.442c0.281,0.305,0.43,0.46,0.43,0.46c0.318,0.315,0.402,0.394,0.402,0.394
			c0.355,0.314,0.449,0.393,0.449,0.393c0.293,0.234,0.394,0.312,0.394,0.312c1.591,1.187,3.403,2.07,4.941,2.729
			c1.881,0.796,3.661,1.422,5.577,2.023c5.063,1.571,10.5,2.772,15.707,3.779c18.04,3.29,36.947,3.801,55.261,3.895
			c47.035-0.224,117.689,0.823,164.025-1.617c22.574-1.203,46.97-4.108,69.404-7.218c0.06,0.361,0.074,0.433,0.074,0.433
			c0.081,0.348,0.1,0.416,0.1,0.416c0.121,0.363,0.133,0.395,0.133,0.395c0.175,0.369,0.191,0.398,0.191,0.398
			c0.25,0.361,0.272,0.387,0.272,0.387c0.375,0.358,0.408,0.384,0.408,0.384c0.356,0.237,0.394,0.259,0.394,0.259
			c0.365,0.184,0.408,0.203,0.408,0.203c0.359,0.141,0.453,0.173,0.453,0.173c0.292,0.091,0.392,0.119,0.392,0.119
			c0.31,0.078,0.417,0.102,0.417,0.102c0.328,0.066,0.44,0.087,0.44,0.087c2.256,0.354,4.033,0.252,6.171,0.175
			c2.891-0.141,7.217-0.566,9.97-0.208c2.126,0.245,3.784,0.808,5.556,1.547c2.071,0.882,4.844,2.148,6.931,2.777
			c1.765,0.56,3.616,0.969,5.455,1.188c4.354,0.478,8.219,0.188,12.443-0.476c4.463-0.748,8.9-1.997,13.03-3.858
			c3.264,1.098,7.192,2.569,10.492,3.317c1.697,0.354,3.48,0.571,5.208,0.722c1.737,0.147,3.689,0.235,5.433,0.271
			c12.336,0.064,34.88,0.004,47.183,0.024c1.543,0.012,3.609-0.126,4.993-0.433c0.319-0.072,0.474-0.11,0.474-0.11
			c0.301-0.08,0.448-0.123,0.448-0.123c0.284-0.089,0.421-0.135,0.421-0.135c0.266-0.097,0.394-0.148,0.394-0.148
			c0.368-0.16,0.426-0.188,0.426-0.188c0.336-0.175,0.39-0.205,0.39-0.205c0.353-0.222,0.401-0.255,0.401-0.255
			c0.353-0.277,0.394-0.313,0.394-0.313c0.334-0.341,0.367-0.381,0.367-0.381c0.267-0.372,0.293-0.416,0.293-0.416
			c0.183-0.346,0.218-0.418,0.218-0.418c0.163-0.361,0.193-0.433,0.193-0.433c0.14-0.364,0.166-0.437,0.166-0.437
			c0.117-0.368,0.138-0.441,0.138-0.441c0.093-0.371,0.11-0.445,0.11-0.445c0.07-0.374,0.082-0.449,0.082-0.449
			c0.039-0.302,0.047-0.378,0.047-0.378c0.024-0.304,0.028-0.38,0.028-0.38c0.008-0.306,0.008-0.383,0.008-0.383
			c-0.007-0.309-0.011-0.386-0.011-0.386c-0.023-0.311-0.031-0.389-0.031-0.389c-0.038-0.313-0.05-0.392-0.05-0.392
			c0.338-0.156,0.511-0.232,0.511-0.232c0.35-0.147,0.528-0.218,0.528-0.218c0.36-0.136,0.541-0.201,0.541-0.201
			c0.366-0.123,0.551-0.181,0.551-0.181c0.371-0.108,0.556-0.159,0.556-0.159c0.372-0.092,0.558-0.134,0.558-0.134
			c0.371-0.074,0.556-0.106,0.556-0.106c0.368-0.054,0.459-0.066,0.459-0.066c0.363-0.036,0.453-0.043,0.453-0.043
			c0.356-0.017,0.445-0.019,0.445-0.019c0.348,0.003,0.434,0.006,0.434,0.006c0.335,0.024,0.417,0.033,0.417,0.033
			c0.324,0.044,0.404,0.057,0.404,0.057c0.465,0.087,0.611,0.13,0.789,0.174c1.54,0.445,2.834,0.93,4.125,1.124
			c2.567,0.381,4.716,0.285,7.205,0.053c2.598-0.27,5.442-0.836,7.869-1.706c0.213,0.434,0.671,1.302,0.819,1.55
			c0.208,0.349,0.278,0.46,0.278,0.46c0.21,0.318,0.281,0.418,0.281,0.418c0.285,0.369,0.321,0.411,0.321,0.411
			c0.364,0.37,0.382,0.386,0.382,0.386c0.36,0.251,0.375,0.259,0.375,0.259c0.365,0.148,0.395,0.157,0.395,0.157
			c0.343,0.059,0.375,0.062,0.375,0.062c0.352,0,0.385-0.002,0.385-0.002c0.328-0.041,0.395-0.052,0.395-0.052
			c0.565-0.111,1.186-0.3,1.541-0.379c0.372-0.077,0.447-0.09,0.447-0.09c0.305-0.043,0.382-0.05,0.382-0.05
			c0.374-0.019,0.422-0.019,0.422-0.019c0.334,0.013,0.382,0.017,0.382,0.017c0.291,0.03,0.389,0.044,0.389,0.044
			c0.838,0.124,1.635,0.369,2.247,0.531c0.122,0.338,0.184,0.504,0.184,0.504c0.13,0.323,0.197,0.48,0.197,0.48
			c0.138,0.307,0.208,0.456,0.208,0.456c0.146,0.291,0.221,0.433,0.221,0.433c0.154,0.275,0.233,0.409,0.233,0.409
			c0.162,0.259,0.245,0.385,0.245,0.385c0.257,0.362,0.301,0.42,0.301,0.42c0.271,0.334,0.317,0.387,0.317,0.387
			c0.333,0.355,0.382,0.403,0.382,0.403c0.353,0.318,0.379,0.34,0.379,0.34c0.356,0.244,0.389,0.264,0.389,0.264
			c0.351,0.183,0.427,0.218,0.427,0.218c0.321,0.131,0.406,0.163,0.406,0.163c0.357,0.118,0.451,0.146,0.451,0.146
			c0.293,0.079,0.394,0.104,0.394,0.104c1.276,0.3,2.525,0.379,3.573,0.422c7.044,0.059,20.238,0.003,27.229,0.022
			c0.346-0.015,0.38-0.018,0.38-0.018c0.365-0.054,0.397-0.06,0.397-0.06c0.348-0.092,0.379-0.103,0.379-0.103
			c0.36-0.145,0.39-0.159,0.39-0.159c0.368-0.209,0.395-0.227,0.395-0.227c0.37-0.285,0.396-0.308,0.396-0.308
			c0.367-0.374,0.414-0.429,0.414-0.429c0.27-0.354,0.313-0.417,0.313-0.417c0.208-0.333,0.248-0.404,0.248-0.404
			c0.193-0.368,0.23-0.445,0.23-0.445c0.14-0.309,0.173-0.387,0.173-0.387c0.125-0.317,0.154-0.397,0.154-0.397
			c0.11-0.325,0.136-0.408,0.136-0.408c0.095-0.334,0.117-0.418,0.117-0.418c0.081-0.342,0.099-0.429,0.099-0.429
			c0.066-0.351,0.081-0.439,0.081-0.439c0.051-0.359,0.073-0.541,0.073-0.541c0.1-1.015,0.074-1.725,0.009-2.517
			c-0.033-0.3-0.047-0.397-0.047-0.397c-0.067-0.374-0.088-0.463-0.088-0.463c-0.093-0.344-0.106-0.386-0.106-0.386
			c-0.132-0.356-0.148-0.394-0.148-0.394c-0.18-0.357-0.2-0.391-0.2-0.391c-0.239-0.346-0.262-0.375-0.262-0.375
			c-0.364-0.371-0.393-0.395-0.393-0.395c-0.366-0.256-0.398-0.275-0.398-0.275c-0.343-0.169-0.379-0.184-0.379-0.184
			c-0.339-0.118-0.378-0.129-0.378-0.129c-0.368-0.085-0.41-0.092-0.41-0.092c-2.33-0.237-6.128-0.67-8.478-0.968
			c-1.678-0.215-3.134-0.58-4.433-1.114c-0.368-0.159-0.488-0.214-0.488-0.214c-0.354-0.171-0.469-0.23-0.469-0.23
			c-0.339-0.183-0.45-0.246-0.45-0.246c-0.325-0.195-0.431-0.262-0.431-0.262c-0.31-0.207-0.411-0.277-0.411-0.277
			c-0.296-0.219-0.392-0.293-0.392-0.293c-0.373-0.309-0.463-0.389-0.463-0.389c-0.17-0.16-0.035-0.348,0.149-0.498
			c0.393-0.293,0.531-0.305,0.906-0.5c0.232-0.113,0.693-0.346,0.922-0.464c1.519-0.774,3.155-1.808,4.279-2.81
			c1.982-1.779,3.129-3.547,4.474-5.632c2.007-3.208,4.435-7.54,7.236-9.969c2.06-1.814,3.976-2.89,6.247-4.075l5.638-2.777
			c1.341-0.672,3.16-1.735,4.224-2.545c2.265-1.686,3.918-3.487,5.515-5.346c1.446-1.748,4.134-5.024,5.622-6.667
			c1.621-1.81,5.531-6.109,7.032-7.922c5.814,1.769,11.833,3.15,17.876,3.824c4.253,0.461,8.6,0.589,12.849,0.029
			C669.429,422.345,675.546,419.624,680.165,415.384z"/>
	</g>
</g>
</svg>
