<?xml version="1.0" encoding="utf-8"?>
<!-- Generator: Adobe Illustrator 24.2.1, SVG Export Plug-In . SVG Version: 6.00 Build 0)  -->
<!DOCTYPE svg PUBLIC "-//W3C//DTD SVG 1.1//EN" "http://www.w3.org/Graphics/SVG/1.1/DTD/svg11.dtd" [
	<!ENTITY ns_flows "http://ns.adobe.com/Flows/1.0/">
	<!ENTITY ns_extend "http://ns.adobe.com/Extensibility/1.0/">
	<!ENTITY ns_ai "http://ns.adobe.com/AdobeIllustrator/10.0/">
	<!ENTITY ns_graphs "http://ns.adobe.com/Graphs/1.0/">
	<!ENTITY ns_vars "http://ns.adobe.com/Variables/1.0/">
	<!ENTITY ns_imrep "http://ns.adobe.com/ImageReplacement/1.0/">
	<!ENTITY ns_sfw "http://ns.adobe.com/SaveForWeb/1.0/">
	<!ENTITY ns_custom "http://ns.adobe.com/GenericCustomNamespace/1.0/">
	<!ENTITY ns_adobe_xpath "http://ns.adobe.com/XPath/1.0/">
]>
<svg version="1.1" xmlns:x="&ns_extend;" xmlns:i="&ns_ai;" xmlns:graph="&ns_graphs;"
	 xmlns="http://www.w3.org/2000/svg" xmlns:xlink="http://www.w3.org/1999/xlink" xmlns:a="http://ns.adobe.com/AdobeSVGViewerExtensions/3.0/"
	 x="0px" y="0px" width="750px" height="750px" viewBox="0 0 750 750" enable-background="new 0 0 750 750" xml:space="preserve">
<metadata>
	<sfw  xmlns="&ns_sfw;">
		<slices></slices>
		<sliceSourceBounds  bottomLeftOrigin="true" height="12677.386" width="8058.342" x="-3961.342" y="-5120"></sliceSourceBounds>
	</sfw>
</metadata>
<g id="FILL-BACKGROUND">
	<rect fill="#FFFFFF" width="750" height="750"/>
</g>
<g id="N-TEXT">
</g>
<g id="N-DIMENSIONS">
</g>
<g id="AG-DETAIL-DIAGRAM">
</g>
<g id="AG-DIAGRAM">
	<g id="POLYLINE_1014_">
		<g>
			<g>
				
					<line fill="none" stroke="#FB8604" stroke-width="3.25" stroke-linecap="round" stroke-linejoin="round" x1="370.005" y1="479.063" x2="372.005" y2="479.063"/>
				
					<line fill="none" stroke="#FB8604" stroke-width="3.25" stroke-linecap="round" stroke-linejoin="round" stroke-dasharray="4.0413,7.0723" x1="379.077" y1="479.063" x2="586.699" y2="479.063"/>
				
					<line fill="none" stroke="#FB8604" stroke-width="3.25" stroke-linecap="round" stroke-linejoin="round" x1="590.235" y1="479.063" x2="592.235" y2="479.063"/>
			</g>
		</g>
	</g>
</g>
<g id="AG-DETAILS">
	<g id="POLYLINE_666_">
		<path fill="none" stroke="#FB8604" stroke-width="2" stroke-linecap="round" stroke-linejoin="round" stroke-miterlimit="10" d="
			M517.385,415.547c9.937,1.222,20.445,1.388,29.845-2.505c5.247-2.182,9.85-5.678,14.178-9.305
			c4.472-3.817,11.42-10.147,16.174-13.434c4.824-3.452,12.177-7.273,17.409-10.193c3.507-2.028,7.111-4.174,9.833-7.223
			c2.012-2.231,3.486-4.904,4.726-7.625l1.481-3.348"/>
	</g>
	<g id="POLYLINE_665_">
		<path fill="none" stroke="#FB8604" stroke-width="2" stroke-linecap="round" stroke-linejoin="round" stroke-miterlimit="10" d="
			M386.984,470.497c9-4.851,17.257-10.019,21.914-19.511c4.065-8.165,6.212-18.199,10.359-26.329
			c2.315-4.615,5.492-8.828,9.403-12.209c4.171-3.585,9.314-6.414,14.892-6.759c2.867-0.171,5.744,0.34,8.53,0.976
			c3.814,0.93,8.597,2.183,12.476,2.576c3.954,0.443,7.981,0.167,11.914-0.358c8.031-1.039,17.583-3.661,25.599-4.845
			c1.901-0.26,3.857-0.454,5.777-0.364c1.493,0.066,2.986,0.311,4.424,0.717c2.066,0.566,4.239,1.562,6.263,2.251"/>
	</g>
	<g id="POLYLINE_653_">
		<path fill="none" stroke="#FB8604" stroke-width="2" stroke-linecap="round" stroke-linejoin="round" stroke-miterlimit="10" d="
			M673.862,330.373c-1.399,1.156-3.223,2.611-4.449,3.916c-2.412,2.53-4.532,5.415-6.543,8.269
			c-2.998,4.313-5.787,8.881-8.186,13.555c-1.827,3.593-3.501,7.366-4.654,11.232"/>
	</g>
	<g id="POLYLINE_652_">
		<path fill="none" stroke="#FB8604" stroke-width="2" stroke-linecap="round" stroke-linejoin="round" stroke-miterlimit="10" d="
			M679.792,340.095c-0.204,5.648,0.104,11.404,0.862,17.003c0.552,4.17,1.305,8.417,2.312,12.502"/>
	</g>
	<g id="POLYLINE_651_">
		<path fill="none" stroke="#FB8604" stroke-width="2" stroke-linecap="round" stroke-linejoin="round" stroke-miterlimit="10" d="
			M677.458,335.986c-1.384,1.908-2.944,4.017-4.004,6.111c-1.557,3.016-2.597,6.318-3.475,9.588
			c-1.129,4.308-1.933,8.78-2.352,13.214c-0.343,3.781-0.43,7.65,0.027,11.425"/>
	</g>
</g>
<g id="X-VPRT">
</g>
<g id="AG-ANIMALS">
	<g id="POLYLINE_1008_">
		
			<path fill="none" stroke="#FB8604" stroke-width="2.75" stroke-linecap="round" stroke-linejoin="round" stroke-miterlimit="10" d="
			M334.751,422.715c-2.029,1.305-4.282,2.581-6.413,3.712c-1.366,0.688-15.756,8.099-16.68,8.515
			c-0.801,0.379-1.66,0.761-2.493,1.062c-0.887,0.318-1.926,0.615-2.834,0.592c-0.099-0.004-0.131-0.006-0.131-0.006
			c-0.096-0.007-0.128-0.01-0.128-0.01c-0.094-0.011-0.125-0.015-0.125-0.015c-0.121-0.02-0.151-0.026-0.151-0.026
			c-0.117-0.026-0.146-0.034-0.146-0.034c-0.113-0.033-0.141-0.041-0.141-0.041c-0.121-0.044-0.151-0.056-0.151-0.056
			c-0.119-0.053-0.149-0.067-0.149-0.067c-0.115-0.06-0.143-0.076-0.143-0.076c-0.11-0.067-0.137-0.085-0.137-0.085
			c-0.106-0.073-0.132-0.092-0.132-0.092c-0.103-0.078-0.153-0.119-0.153-0.119c-0.099-0.084-0.148-0.127-0.148-0.127
			c-0.344-0.31-0.772-0.792-1.022-1.028c-0.096-0.09-0.144-0.134-0.144-0.134c-0.098-0.086-0.148-0.128-0.148-0.128
			c-0.102-0.081-0.128-0.101-0.128-0.101c-0.105-0.076-0.132-0.095-0.132-0.095c-0.109-0.071-0.137-0.088-0.137-0.088
			c-0.113-0.065-0.142-0.08-0.142-0.08c-0.118-0.058-0.148-0.071-0.148-0.071c-0.124-0.05-0.155-0.062-0.155-0.062
			c-0.096-0.032-0.129-0.042-0.129-0.042c-0.103-0.027-0.14-0.036-0.14-0.036c-0.113-0.023-0.152-0.029-0.152-0.029
			c-0.118-0.016-0.158-0.021-0.158-0.021c-0.122-0.01-0.163-0.013-0.163-0.013c-0.683-0.033-1.374,0.126-1.939,0.276
			c-0.715,0.197-1.369,0.436-2.05,0.698c-3.773,1.514-7.852,3.487-11.782,4.534c-6.337,1.779-13.05,1.253-19.495,0.4
			c-7.825-1.137-18.863-3.2-26.675-3.255c-4.671-0.139-11.818,0.369-16.526,0.411c-0.744-0.006-1.67-0.033-2.358-0.163
			c-0.085-0.017-0.126-0.026-0.126-0.026c-0.118-0.028-0.156-0.038-0.156-0.038c-0.108-0.031-0.142-0.042-0.142-0.042
			c-0.097-0.034-0.128-0.046-0.128-0.046c-0.113-0.051-0.139-0.064-0.139-0.064c-0.116-0.071-0.137-0.086-0.137-0.086
			c-0.116-0.114-0.129-0.131-0.129-0.131c-0.056-0.111-0.061-0.131-0.061-0.131c-0.014-0.103-0.013-0.125-0.013-0.125
			c0.018-0.116,0.02-0.126,0.02-0.126c0.043-0.12,0.047-0.131,0.047-0.131c0.053-0.106,0.065-0.128,0.065-0.128
			c0.068-0.112,0.083-0.134,0.083-0.134c0.064-0.093,0.098-0.14,0.098-0.14c0.365-0.487,0.933-1.073,1.239-1.516
			c0.073-0.107,0.09-0.133,0.09-0.133c0.065-0.106,0.081-0.132,0.081-0.132c0.057-0.104,0.07-0.13,0.07-0.13
			c0.048-0.103,0.058-0.128,0.058-0.128c0.041-0.113,0.045-0.126,0.045-0.126c0.03-0.123,0.032-0.135,0.032-0.135
			c0.012-0.12,0.012-0.131,0.012-0.131c-0.005-0.093-0.01-0.124-0.01-0.124c-0.033-0.123-0.045-0.153-0.045-0.153
			c-0.061-0.117-0.08-0.145-0.08-0.145c-0.089-0.111-0.115-0.138-0.115-0.138c-0.116-0.105-0.149-0.131-0.149-0.131
			c-0.105-0.075-0.143-0.099-0.143-0.099c-0.121-0.071-0.163-0.095-0.163-0.095c-0.089-0.046-0.136-0.068-0.136-0.068
			c-0.097-0.044-0.147-0.065-0.147-0.065c-1.114-0.438-2.226-0.56-3.393-0.687c-2.161-0.202-4.443-0.197-6.614-0.138
			c-6.864,0.252-13.79,1.048-20.481,2.62c-4.51,1.075-8.95,2.649-13.17,4.565c-6.188,2.808-13.446,6.844-19.806,9.202
			c-1.169,0.414-2.469,0.883-3.693,0.997c-0.1,0.006-0.132,0.007-0.132,0.007c-0.094,0.002-0.124,0.002-0.124,0.002
			c-0.117-0.004-0.145-0.005-0.145-0.005c-0.107-0.01-0.133-0.014-0.133-0.014c-0.12-0.023-0.143-0.028-0.143-0.028
			c-0.105-0.033-0.124-0.041-0.124-0.041c-0.12-0.065-0.135-0.076-0.135-0.076c-0.11-0.115-0.119-0.129-0.119-0.129
			c-0.05-0.118-0.052-0.126-0.052-0.126c-0.019-0.122-0.019-0.131-0.019-0.131c0-0.107,0.001-0.127,0.001-0.127
			c0.011-0.105,0.014-0.126,0.014-0.126c0.02-0.112,0.025-0.134,0.025-0.134c0.033-0.152,0.073-0.284,0.089-0.339
			c0.039-0.123,0.238-0.752,0.26-0.843c0.028-0.106,0.041-0.159,0.041-0.159c0.024-0.105,0.035-0.157,0.035-0.157
			c0.018-0.103,0.022-0.128,0.022-0.128c0.013-0.1,0.015-0.125,0.015-0.125c0.007-0.122,0.008-0.145,0.008-0.145
			c-0.004-0.117-0.004-0.128-0.004-0.128c-0.017-0.122-0.019-0.133-0.019-0.133c-0.032-0.114-0.036-0.124-0.036-0.124
			c-0.055-0.115-0.06-0.124-0.06-0.124c-0.068-0.095-0.094-0.124-0.094-0.124c-0.123-0.109-0.159-0.135-0.159-0.135
			c-0.116-0.07-0.159-0.091-0.159-0.091c-0.09-0.04-0.137-0.059-0.137-0.059c-0.1-0.035-0.152-0.051-0.152-0.051
			c-0.11-0.03-0.167-0.044-0.167-0.044c-0.868-0.174-1.61-0.105-2.439-0.038c-1.111,0.11-2.272,0.32-3.367,0.544
			c-8.561,1.882-17.334,5.025-25.61,7.934c-10.442,3.784-21.222,7.882-30.961,13.24c-3.661,1.983-11.531,6.63-15.249,8.212
			c-0.895,0.378-1.971,0.798-2.892,0.914c-0.122,0.013-0.161,0.016-0.161,0.016c-0.115,0.007-0.153,0.008-0.153,0.008
			c-0.109,0-0.144-0.001-0.144-0.001c-0.103-0.006-0.136-0.009-0.136-0.009c-0.096-0.013-0.127-0.018-0.127-0.018
			c-0.118-0.027-0.145-0.035-0.145-0.035c-0.106-0.038-0.131-0.049-0.131-0.049c-0.116-0.064-0.137-0.078-0.137-0.078
			c-0.115-0.1-0.132-0.118-0.132-0.118c-0.075-0.103-0.088-0.126-0.088-0.126c-0.052-0.113-0.058-0.129-0.058-0.129
			c-0.034-0.117-0.038-0.134-0.038-0.134c-0.019-0.11-0.022-0.129-0.022-0.129c-0.011-0.118-0.012-0.139-0.012-0.139
			c-0.003-0.105-0.003-0.148-0.003-0.148c0.002-0.088,0.004-0.133,0.004-0.133c0.024-0.426,0.119-0.866,0.188-1.19
			c0.214-0.955,0.605-2.345,0.602-3.277c-0.001-0.105-0.002-0.156-0.002-0.156c-0.005-0.102-0.009-0.152-0.009-0.152
			c-0.013-0.123-0.016-0.147-0.016-0.147c-0.019-0.118-0.024-0.141-0.024-0.141c-0.026-0.113-0.032-0.136-0.032-0.136
			c-0.033-0.108-0.04-0.13-0.04-0.13c-0.049-0.123-0.058-0.143-0.058-0.143c-0.06-0.115-0.071-0.133-0.071-0.133
			c-0.083-0.121-0.094-0.136-0.094-0.136c-0.098-0.111-0.112-0.124-0.112-0.124c-0.113-0.1-0.127-0.112-0.127-0.112
			c-0.109-0.079-0.125-0.09-0.125-0.09c-0.101-0.062-0.136-0.082-0.136-0.082c-0.108-0.057-0.145-0.075-0.145-0.075
			c-0.114-0.052-0.153-0.068-0.153-0.068c-0.829-0.332-1.707-0.4-2.527-0.644c-0.115-0.036-0.152-0.049-0.152-0.049
			c-0.109-0.04-0.144-0.053-0.144-0.053c-0.102-0.043-0.134-0.058-0.134-0.058c-0.109-0.056-0.124-0.064-0.124-0.064
			c-0.113-0.07-0.126-0.079-0.126-0.079c-0.121-0.099-0.132-0.109-0.132-0.109c-0.097-0.112-0.105-0.124-0.105-0.124
			c-0.065-0.114-0.071-0.127-0.071-0.127c-0.038-0.113-0.042-0.127-0.042-0.127c-0.018-0.119-0.019-0.146-0.019-0.146
			c0.001-0.114,0.004-0.143,0.004-0.143c0.017-0.123,0.023-0.154,0.023-0.154c0.023-0.098,0.031-0.131,0.031-0.131
			c0.031-0.103,0.043-0.138,0.043-0.138c0.039-0.108,0.054-0.144,0.054-0.144c0.047-0.112,0.064-0.15,0.064-0.15
			c0.606-1.24,1.444-2.196,2.293-3.241c0.896-1.073,2.778-3.185,3.663-4.27c0.452-0.559,0.998-1.251,1.33-1.86
			c0.054-0.102,0.07-0.136,0.07-0.136c0.046-0.097,0.06-0.129,0.06-0.129c0.049-0.122,0.06-0.151,0.06-0.151
			c0.036-0.113,0.043-0.14,0.043-0.14c0.021-0.103,0.024-0.128,0.024-0.128c0.005-0.116,0.004-0.137,0.004-0.137
			c-0.025-0.119-0.032-0.136-0.032-0.136c-0.082-0.12-0.091-0.129-0.091-0.129c-0.119-0.081-0.131-0.088-0.131-0.088
			c-0.111-0.043-0.126-0.048-0.126-0.048c-0.113-0.028-0.13-0.031-0.13-0.031c-0.108-0.016-0.126-0.019-0.126-0.019
			c-0.097-0.009-0.137-0.011-0.137-0.011c-0.083-0.003-0.126-0.004-0.126-0.004c-1.322,0.012-2.797,0.458-4.079,0.553
			c-0.084,0.005-0.125,0.006-0.125,0.006c-0.118,0.002-0.155,0.002-0.155,0.002c-0.124-0.005-0.14-0.007-0.14-0.007
			c-0.11-0.013-0.124-0.016-0.124-0.016c-0.119-0.03-0.131-0.034-0.131-0.034c-0.116-0.06-0.135-0.075-0.135-0.075
			c-0.078-0.108-0.086-0.129-0.086-0.129c-0.016-0.118-0.015-0.144-0.015-0.144c0.02-0.113,0.028-0.143,0.028-0.143
			c0.034-0.096,0.048-0.129,0.048-0.129c0.051-0.105,0.07-0.142,0.07-0.142c0.067-0.114,0.092-0.154,0.092-0.154
			c0.359-0.541,0.848-1.031,1.213-1.398c0.544-0.536,1.16-1.088,1.739-1.588c2.447-2.099,5.37-4.297,7.965-6.224
			c7.687-5.599,16.899-12.041,24.927-17.134c4.88-3.084,10.352-6.127,15.48-8.802l23.376-11.795
			c2.975-1.565,6.288-3.316,9.119-5.109c1.067-0.691,2.314-1.506,3.18-2.403c0.083-0.09,0.122-0.135,0.122-0.135
			c0.073-0.087,0.107-0.13,0.107-0.13c0.063-0.084,0.092-0.125,0.092-0.125c0.077-0.12,0.1-0.159,0.1-0.159
			c0.057-0.114,0.072-0.15,0.072-0.15c0.036-0.107,0.044-0.141,0.044-0.141c0.014-0.1,0.016-0.132,0.016-0.132
			c-0.014-0.122-0.022-0.151-0.022-0.151c-0.06-0.123-0.065-0.13-0.065-0.13c-0.115-0.124-0.123-0.131-0.123-0.131
			c-0.108-0.078-0.128-0.091-0.128-0.091c-0.106-0.06-0.129-0.072-0.129-0.072c-0.119-0.056-0.144-0.066-0.144-0.066
			c-0.077-0.032-0.13-0.052-0.13-0.052c-0.419-0.157-1.107-0.325-1.425-0.431c-0.112-0.037-0.166-0.056-0.166-0.056
			c-0.105-0.039-0.156-0.059-0.156-0.059c-0.12-0.052-0.143-0.063-0.143-0.063c-0.108-0.056-0.128-0.068-0.128-0.068
			c-0.119-0.079-0.127-0.086-0.127-0.086c-0.122-0.123-0.127-0.13-0.127-0.13c-0.058-0.114-0.066-0.146-0.066-0.146
			c-0.011-0.1-0.009-0.135-0.009-0.135c0.02-0.11,0.032-0.148,0.032-0.148c0.05-0.119,0.072-0.16,0.072-0.16
			c0.051-0.084,0.08-0.128,0.08-0.128c0.065-0.089,0.102-0.134,0.102-0.134c0.08-0.093,0.123-0.14,0.123-0.14
			c0.094-0.097,0.144-0.146,0.144-0.146c0.108-0.101,0.165-0.152,0.165-0.152c0.679-0.58,1.293-0.963,2.027-1.407
			c1.097-0.651,2.314-1.275,3.462-1.833c4.67-2.239,9.689-4.155,14.584-5.846c8.852-2.99,18.033-5.54,27.318-6.717
			c4.211-0.515,8.588-0.703,12.83-0.688c1.479,0.018,6.025,0.095,7.485,0.067c0.628-0.016,1.424-0.051,1.992-0.169
			c0.122-0.027,0.161-0.037,0.161-0.037c0.112-0.03,0.147-0.041,0.147-0.041c0.101-0.034,0.133-0.046,0.133-0.046
			c0.118-0.05,0.146-0.064,0.146-0.064c0.123-0.071,0.144-0.087,0.144-0.087c0.111-0.098,0.126-0.116,0.126-0.116
			c0.071-0.113,0.079-0.133,0.079-0.133c0.027-0.106,0.03-0.129,0.03-0.129c-0.002-0.118-0.006-0.143-0.006-0.143
			c-0.028-0.118-0.031-0.128-0.031-0.128c-0.043-0.115-0.053-0.137-0.053-0.137c-0.053-0.111-0.065-0.134-0.065-0.134
			c-0.065-0.116-0.094-0.164-0.094-0.164c-0.19-0.311-0.568-0.813-0.764-1.092c-0.075-0.108-0.147-0.216-0.147-0.216
			c-0.069-0.108-0.102-0.161-0.102-0.161c-0.063-0.107-0.093-0.16-0.093-0.16c-0.056-0.105-0.069-0.132-0.069-0.132
			c-0.049-0.104-0.06-0.129-0.06-0.129c-0.041-0.102-0.05-0.127-0.05-0.127c-0.035-0.112-0.039-0.124-0.039-0.124
			c-0.026-0.121-0.028-0.133-0.028-0.133c-0.01-0.117-0.01-0.128-0.01-0.128c0.008-0.123,0.01-0.134,0.01-0.134
			c0.024-0.099,0.037-0.133,0.037-0.133c0.048-0.098,0.068-0.13,0.068-0.13c0.097-0.122,0.126-0.151,0.126-0.151
			c0.097-0.084,0.133-0.111,0.133-0.111c0.118-0.078,0.161-0.103,0.161-0.103c0.091-0.048,0.139-0.072,0.139-0.072
			c0.101-0.046,0.154-0.068,0.154-0.068c0.111-0.043,0.169-0.063,0.169-0.063c0.726-0.239,1.339-0.299,2.054-0.369
			c0.971-0.082,2.009-0.089,2.985-0.072c4.35,0.102,8.905,0.685,13.217,1.305c5.515,0.83,11.499,1.965,16.926,3.243
			c3.964,0.9,10.938,2.944,14.921,4.009c1.201,0.307,2.492,0.62,3.718,0.806c0.878,0.13,1.861,0.219,2.66,0.064
			c0.123-0.027,0.163-0.036,0.163-0.036c0.117-0.032,0.155-0.043,0.155-0.043c0.111-0.037,0.147-0.05,0.147-0.05
			c0.104-0.042,0.138-0.057,0.138-0.057c0.098-0.048,0.129-0.065,0.129-0.065c0.121-0.072,0.15-0.092,0.15-0.092
			c0.11-0.082,0.136-0.104,0.136-0.104c0.122-0.116,0.145-0.14,0.145-0.14c0.092-0.112,0.101-0.124,0.101-0.124
			c0.067-0.099,0.083-0.125,0.083-0.125c0.06-0.106,0.074-0.134,0.074-0.134c0.053-0.113,0.065-0.142,0.065-0.142
			c0.047-0.118,0.058-0.149,0.058-0.149c0.171-0.489,0.253-1.067,0.354-1.55c0.035-0.171,0.099-0.425,0.136-0.541
			c0.031-0.097,0.042-0.129,0.042-0.129c0.034-0.095,0.046-0.126,0.046-0.126c0.051-0.123,0.064-0.153,0.064-0.153
			c0.057-0.118,0.073-0.146,0.073-0.146c0.065-0.112,0.082-0.139,0.082-0.139c0.083-0.118,0.092-0.131,0.092-0.131
			c0.104-0.122,0.115-0.133,0.115-0.133c0.117-0.111,0.13-0.121,0.13-0.121c0.118-0.089,0.132-0.099,0.132-0.099
			c0.118-0.072,0.16-0.094,0.16-0.094c0.086-0.042,0.131-0.062,0.131-0.062c0.092-0.037,0.14-0.054,0.14-0.054
			c0.099-0.032,0.149-0.047,0.149-0.047c0.105-0.027,0.158-0.04,0.158-0.04c0.111-0.023,0.167-0.033,0.167-0.033
			c0.116-0.018,0.176-0.026,0.176-0.026c1.151-0.118,2.194,0.075,3.301,0.288c1.767,0.368,3.609,0.924,5.334,1.462
			c7.058,2.24,15.257,5.354,22.571,6.342c11.645,1.606,20.526-2.346,29.917-8.815l30.706-24.205
			c1.477-1.203,3.013-2.512,4.347-3.869c0.876-0.9,1.872-2.012,2.382-3.093c0.043-0.096,0.064-0.144,0.064-0.144
			c0.038-0.094,0.056-0.14,0.056-0.14c0.033-0.091,0.047-0.136,0.047-0.136c0.027-0.089,0.039-0.132,0.039-0.132
			c0.027-0.107,0.031-0.128,0.031-0.128c0.02-0.104,0.023-0.125,0.023-0.125c0.016-0.121,0.019-0.141,0.019-0.141
			c0.022-0.122,0.027-0.143,0.027-0.143c0.026-0.103,0.032-0.124,0.032-0.124c0.034-0.105,0.041-0.126,0.041-0.126
			c0.032-0.085,0.049-0.128,0.049-0.128c0.038-0.086,0.058-0.13,0.058-0.13c0.043-0.088,0.067-0.132,0.067-0.132
			c0.049-0.089,0.075-0.134,0.075-0.134c0.055-0.09,0.084-0.136,0.084-0.136c0.754-1.106,1.664-1.799,2.65-2.548
			c1.339-0.982,2.842-1.873,4.293-2.685c7.511-4.193,15.89-6.71,24.17-8.897c4.136-1.184,8.436-2.453,12.372-4.186
			c0.969-0.413,1.9-0.981,2.875-1.366c1.526-0.607,3.165-1.034,4.763-1.405c5.2-1.17,10.854-1.838,16.16-2.423
			c5.8-0.597,12.313-1.108,18.132-1.27c2.847-0.082,6.045-0.102,8.892-0.031c3.262,0.09,7.075,0.326,10.34,0.349
			c1.39,0.012,3.024-0.004,4.413-0.097c0.832-0.062,1.779-0.145,2.561-0.367c0.095-0.029,0.14-0.044,0.14-0.044
			c0.086-0.03,0.128-0.046,0.128-0.046c0.115-0.048,0.133-0.056,0.133-0.056c0.116-0.059,0.131-0.067,0.131-0.067
			c0.122-0.08,0.135-0.089,0.135-0.089c0.122-0.075,0.137-0.083,0.137-0.083c0.104-0.052,0.134-0.066,0.134-0.066
			c0.096-0.04,0.129-0.052,0.129-0.052c0.102-0.035,0.137-0.046,0.137-0.046c0.109-0.03,0.146-0.04,0.146-0.04
			c0.115-0.026,0.154-0.034,0.154-0.034c0.826-0.146,1.596-0.056,2.329,0.047c0.883,0.136,1.787,0.357,2.647,0.601
			c1.052,0.3,2.233,0.711,3.282,1.034c1.224,0.374,2.597,0.752,3.841,1.052c4.797,1.137,9.759,1.857,14.697,1.815
			c1.003-0.016,2.044-0.063,3.039-0.158c0.865-0.086,1.764-0.212,2.634-0.247c2.616-0.127,5.294,0.103,7.888,0.446
			c1.846,0.237,3.805,0.627,5.639,0.927c1.508,0.235,3.079,0.412,4.603,0.503c3.575,0.209,7.217,0.008,10.702-0.853
			c3.499-0.892,6.797-2.506,9.856-4.401c2.048-1.268,4.072-2.745,5.963-4.241c1.769-1.411,3.507-2.932,5.052-4.587
			c1.209-1.306,2.345-2.723,3.169-4.306c0.173-0.325,0.37-0.788,0.552-1.051c0.485-0.749,1.034-1.332,1.62-1.872
			c1.44-1.312,3.113-2.377,4.797-3.347c3.512-1.995,7.371-3.657,11.118-5.161"/>
	</g>
	<g id="POLYLINE_743_">
		
			<path fill="none" stroke="#FB8604" stroke-width="2.75" stroke-linecap="round" stroke-linejoin="round" stroke-miterlimit="10" d="
			M628.088,291.471l4.388-0.165c1.742-0.043,3.527-0.003,5.254,0.227c1.51,0.196,3.021,0.533,4.481,0.968
			c2.603,0.78,5.188,1.894,7.645,3.054c3.471,1.651,7.044,3.643,10.352,5.612c5.954,3.579,11.98,7.647,17.469,11.903
			c3.176,2.496,6.367,5.157,9.042,8.194c1.654,1.893,3.202,4.072,3.919,6.492c0.496,1.611,0.637,3.329,0.747,5.004"/>
	</g>
	<g id="POLYLINE_741_">
		
			<path fill="none" stroke="#FB8604" stroke-width="2.75" stroke-linecap="round" stroke-linejoin="round" stroke-miterlimit="10" d="
			M606.735,314.418c-1.387-2.158-2.756-4.41-3.838-6.736c-0.918-1.958-1.668-4.038-2.221-6.128
			c-1.019-3.877-1.495-7.938-1.648-11.939c-0.121-3.734,0.045-7.534,0.736-11.21c0.473-2.447,1.171-4.901,2.406-7.081
			c1.11-1.962,2.764-3.65,4.771-4.504c1.989-0.877,4.28-0.798,6.165,0.059c1.226,0.536,2.395,1.428,3.282,2.248
			c1.065,0.984,1.949,2.017,2.821,3.154c2.479,3.29,4.425,6.994,6.063,10.765c1.03,2.402,1.948,4.905,2.581,7.442
			c0.616,2.425,0.966,4.959,1.18,7.451"/>
	</g>
	<g id="POLYLINE_548_">
		
			<path fill="none" stroke="#FB8604" stroke-width="2.75" stroke-linecap="round" stroke-linejoin="round" stroke-miterlimit="10" d="
			M398.41,475.767c0.23,0.454,0.496,0.823,0.761,1.12c0.114,0.124,0.153,0.164,0.153,0.164c1.111,1.117,2.446,1.574,3.893,1.831
			c0.557,0.093,1.134,0.146,1.698,0.168c0.213,0.008,0.461,0.013,0.674,0.013c0,0,16.247,0,16.247,0h41.737l0.374-0.002
			c0.432-0.005,0.966-0.023,1.398-0.051c1.128-0.072,2.422-0.247,3.445-0.64c0.285-0.11,0.502-0.217,0.682-0.319
			c0.12-0.071,0.158-0.095,0.158-0.095c0.112-0.074,0.148-0.099,0.148-0.099c0.105-0.077,0.138-0.104,0.138-0.104
			c0.097-0.081,0.128-0.108,0.128-0.108c0.118-0.112,0.146-0.141,0.146-0.141c0.106-0.118,0.131-0.148,0.131-0.148
			c0.094-0.123,0.115-0.154,0.115-0.154c0.072-0.112,0.081-0.128,0.081-0.128c0.063-0.116,0.071-0.133,0.071-0.133
			c0.686-1.51,0.852-3.07,0.818-4.69c-0.029-1.66-0.355-3.412-1.335-4.702c-0.095-0.123-0.144-0.184-0.144-0.184
			c-0.1-0.118-0.151-0.176-0.151-0.176c-0.105-0.114-0.159-0.169-0.159-0.169c-0.11-0.109-0.166-0.162-0.166-0.162
			c-0.115-0.104-0.173-0.155-0.173-0.155c-0.12-0.1-0.152-0.124-0.152-0.124c-0.867-0.653-1.713-0.988-2.667-1.352
			c-1.266-0.463-2.638-0.827-3.951-1.137c-3.749-0.914-7.691-1.297-11.511-0.609c-1.219,0.209-2.48,0.585-3.687,0.854
			c-1.878,0.43-3.831,0.796-5.748,0.992c-1.03,0.108-2.119,0.153-3.155,0.141c-4.157-0.042-9.153-0.495-13.32-0.836"/>
	</g>
	<g id="POLYLINE_282_">
		
			<path fill="none" stroke="#FB8604" stroke-width="2.75" stroke-linecap="round" stroke-linejoin="round" stroke-miterlimit="10" d="
			M447.888,439.201c2.945-2.02,6.109-3.789,9.369-5.248c2.942-1.309,6.035-2.403,9.188-3.075c1.492-0.317,3.053-0.531,4.573-0.658
			c1.98-0.191,6.611-0.253,8.646-0.318c5.974-0.118,13.782-2.052,19.689-3.103c5.595-1.029,12.06-1.456,17.761-1.814"/>
	</g>
	<g id="POLYLINE_281_">
		
			<path fill="none" stroke="#FB8604" stroke-width="2.75" stroke-linecap="round" stroke-linejoin="round" stroke-miterlimit="10" d="
			M601.296,348.625c1.043,3.517,2.95,6.76,5.363,9.511c1.953,2.206,4.333,4.13,7.138,5.117c2.233,0.802,4.65,0.974,7.001,0.771
			c5.112-0.442,12.058-2.772,17.057-4.086c8.627-2.381,20.115-4.265,28.651-6.942c2.921-0.926,5.852-2.028,8.504-3.579
			c2.802-1.61,5.303-3.741,7.591-6.011l2.839-2.875"/>
	</g>
	<g id="POLYLINE_280_">
		
			<path fill="none" stroke="#FB8604" stroke-width="2.75" stroke-linecap="round" stroke-linejoin="round" stroke-miterlimit="10" d="
			M685.44,340.531c-0.114-0.039-0.152-0.053-0.152-0.053c-0.114-0.047-0.151-0.064-0.151-0.064c-0.113-0.055-0.15-0.075-0.15-0.075
			c-0.112-0.063-0.149-0.086-0.149-0.086c-0.11-0.071-0.147-0.096-0.147-0.096c-0.109-0.078-0.145-0.105-0.145-0.105
			c-0.108-0.085-0.143-0.115-0.143-0.115c-0.106-0.092-0.141-0.123-0.141-0.123c-0.105-0.098-0.139-0.131-0.139-0.131
			c-0.843-0.843-1.407-1.864-1.829-2.856c-0.391-0.966-0.668-1.887-0.676-2.849c0.002-0.1,0.003-0.133,0.003-0.133
			c0.006-0.098,0.008-0.13,0.008-0.13c0.009-0.096,0.013-0.128,0.013-0.128c0.013-0.094,0.018-0.125,0.018-0.125
			c0.023-0.122,0.03-0.152,0.03-0.152c0.03-0.119,0.039-0.148,0.039-0.148c0.037-0.115,0.047-0.144,0.047-0.144
			c0.044-0.112,0.056-0.139,0.056-0.139c0.052-0.108,0.065-0.134,0.065-0.134c0.059-0.104,0.075-0.129,0.075-0.129
			c0.067-0.1,0.085-0.124,0.085-0.124c0.095-0.119,0.115-0.142,0.115-0.142c0.107-0.112,0.129-0.134,0.129-0.134
			c0.12-0.105,0.145-0.126,0.145-0.126c0.105-0.079,0.133-0.098,0.133-0.098c0.114-0.074,0.144-0.092,0.144-0.092
			c0.123-0.07,0.155-0.086,0.155-0.086c0.099-0.049,0.133-0.065,0.133-0.065c0.105-0.046,0.159-0.068,0.159-0.068
			c0.111-0.042,0.168-0.063,0.168-0.063c0.117-0.039,0.177-0.058,0.177-0.058c1.183-0.336,2.309-0.342,3.508-0.25
			c1.155,0.105,2.405,0.361,3.442,0.858c0.12,0.06,0.179,0.091,0.179,0.091c0.115,0.063,0.171,0.095,0.171,0.095
			c0.109,0.066,0.161,0.099,0.161,0.099c0.102,0.068,0.152,0.103,0.152,0.103c0.119,0.089,0.142,0.107,0.142,0.107
			c0.11,0.092,0.131,0.111,0.131,0.111c0.12,0.115,0.139,0.134,0.139,0.134c0.106,0.119,0.123,0.14,0.123,0.14
			c0.091,0.122,0.102,0.139,0.102,0.139c0.072,0.117,0.081,0.134,0.081,0.134c0.06,0.12,0.068,0.138,0.068,0.138
			c0.049,0.123,0.056,0.141,0.056,0.141c0.034,0.108,0.038,0.126,0.038,0.126c0.026,0.11,0.029,0.129,0.029,0.129
			c0.018,0.112,0.021,0.131,0.021,0.131c0.011,0.114,0.012,0.133,0.012,0.133c0.004,0.116,0.003,0.155,0.003,0.155
			c-0.004,0.118-0.007,0.157-0.007,0.157c-0.012,0.119-0.017,0.16-0.017,0.16c-0.019,0.121-0.027,0.162-0.027,0.162
			c-0.026,0.122-0.036,0.163-0.036,0.163c-0.348,1.258-1.107,2.205-1.889,3.128c-0.712,0.812-1.607,1.682-2.528,2.171
			c-0.108,0.055-0.144,0.073-0.144,0.073c-0.108,0.051-0.144,0.067-0.144,0.067c-0.108,0.046-0.143,0.06-0.143,0.06
			c-0.108,0.04-0.143,0.053-0.143,0.053c-0.107,0.035-0.143,0.046-0.143,0.046c-0.107,0.03-0.143,0.039-0.143,0.039
			c-0.107,0.024-0.143,0.031-0.143,0.031c-0.107,0.018-0.142,0.023-0.142,0.023c-0.106,0.012-0.142,0.015-0.142,0.015
			c-0.106,0.006-0.141,0.007-0.141,0.007c-0.106,0-0.141-0.002-0.141-0.002c-0.105-0.007-0.14-0.01-0.14-0.01
			c-0.105-0.014-0.14-0.019-0.14-0.019c-0.104-0.02-0.139-0.028-0.139-0.028C685.475,340.541,685.44,340.531,685.44,340.531z"/>
	</g>
	<g id="POLYLINE_279_">
		
			<path fill="none" stroke="#FB8604" stroke-width="2.75" stroke-linecap="round" stroke-linejoin="round" stroke-miterlimit="10" d="
			M523.22,382.114c-2.403,3.589-4.967,7.392-6.894,11.252c-0.46,0.958-0.952,2.032-1.165,3.065c-0.021,0.114-0.03,0.17-0.03,0.17
			c-0.015,0.108-0.022,0.161-0.022,0.161c-0.059,0.693-0.025,1.314,0.107,1.906c0.028,0.115,0.038,0.153,0.038,0.153
			c0.032,0.112,0.043,0.149,0.043,0.149c0.035,0.109,0.048,0.145,0.048,0.145c0.039,0.106,0.052,0.141,0.052,0.141
			c0.042,0.103,0.057,0.137,0.057,0.137c0.046,0.1,0.062,0.133,0.062,0.133c0.049,0.097,0.067,0.129,0.067,0.129
			c0.053,0.094,0.071,0.125,0.071,0.125c0.076,0.121,0.096,0.151,0.096,0.151c0.082,0.116,0.103,0.145,0.103,0.145
			c0.088,0.111,0.111,0.138,0.111,0.138c0.094,0.106,0.118,0.132,0.118,0.132c0.1,0.101,0.125,0.126,0.125,0.126
			c0.106,0.096,0.133,0.12,0.133,0.12c0.112,0.091,0.14,0.113,0.14,0.113c0.118,0.086,0.148,0.107,0.148,0.107
			c0.123,0.081,0.155,0.101,0.155,0.101c0.097,0.057,0.129,0.076,0.129,0.076c0.1,0.054,0.134,0.072,0.134,0.072
			c0.121,0.06,0.138,0.069,0.138,0.069c0.118,0.067,0.135,0.077,0.135,0.077c0.112,0.078,0.128,0.09,0.128,0.09
			c0.121,0.103,0.136,0.117,0.136,0.117c0.114,0.118,0.127,0.134,0.127,0.134c0.093,0.116,0.106,0.133,0.106,0.133
			c0.075,0.109,0.087,0.127,0.087,0.127c0.059,0.097,0.082,0.138,0.082,0.138c0.044,0.083,0.066,0.126,0.066,0.126
			c0.042,0.088,0.062,0.133,0.062,0.133c0.039,0.093,0.058,0.141,0.058,0.141c0.037,0.098,0.054,0.148,0.054,0.148
			c0.344,1.065,0.362,2.034,0.354,3.116c-0.042,2.39-0.559,4.904-0.874,7.273c-0.427,3.186-0.734,6.46-0.709,9.677
			c0.035,2.022,0.14,4.317,1.044,6.124c0.066,0.122,0.088,0.161,0.088,0.161c0.068,0.116,0.091,0.153,0.091,0.153
			c0.071,0.11,0.095,0.145,0.095,0.145c0.074,0.104,0.099,0.138,0.099,0.138c0.076,0.098,0.102,0.13,0.102,0.13
			c0.106,0.122,0.133,0.151,0.133,0.151c0.11,0.112,0.138,0.139,0.138,0.139c0.115,0.102,0.144,0.127,0.144,0.127
			c0.165,0.129,0.259,0.192,0.301,0.225c0.12,0.098,0.149,0.124,0.149,0.124c0.117,0.11,0.146,0.139,0.146,0.139
			c0.115,0.121,0.143,0.153,0.143,0.153c0.084,0.099,0.112,0.133,0.112,0.133c0.083,0.105,0.11,0.142,0.11,0.142
			c0.081,0.112,0.108,0.151,0.108,0.151c0.684,1.033,1.001,2.03,1.321,3.139c0.441,1.551,0.637,3.177,0.941,4.757
			c0.514,2.516,1.382,5.328,3.255,7.111c0.074,0.084,0.111,0.127,0.111,0.127c0.073,0.089,0.11,0.135,0.11,0.135
			c0.642,0.851,0.97,1.648,1.326,2.603c0.389,1.088,0.684,2.251,0.926,3.381c0.914,4.184,1.001,8.566,2.051,12.723
			c0.3,1.183,0.657,2.379,1.225,3.464c0.155,0.291,0.287,0.497,0.402,0.663c0.069,0.096,0.104,0.143,0.104,0.143
			c0.07,0.09,0.105,0.134,0.105,0.134c0.071,0.084,0.107,0.125,0.107,0.125c0.108,0.116,0.145,0.152,0.145,0.152
			c0.11,0.104,0.129,0.12,0.129,0.12c0.112,0.093,0.131,0.108,0.131,0.108c1.891,1.356,3.631,2.999,5.289,4.627
			c0.554,0.555,1.307,1.347,1.889,1.784c0.627,0.489,1.319,0.911,2.035,1.256c1.448,0.698,3.026,1.114,4.612,1.35
			c1.262,0.188,2.576,0.263,3.852,0.265c2.783-0.049,18.685,0.133,21.13-0.141c1.646-0.153,3.429-0.38,4.919-1.101
			c0.117-0.061,0.174-0.091,0.174-0.091c0.111-0.063,0.164-0.095,0.164-0.095c0.104-0.065,0.155-0.098,0.155-0.098
			c0.098-0.067,0.145-0.101,0.145-0.101c0.091-0.069,0.135-0.104,0.135-0.104c0.105-0.09,0.125-0.108,0.125-0.108
			c0.116-0.111,0.134-0.13,0.134-0.13c0.104-0.115,0.121-0.134,0.121-0.134c0.093-0.118,0.107-0.139,0.107-0.139
			c0.082-0.122,0.094-0.143,0.094-0.143c0.059-0.105,0.07-0.126,0.07-0.126c0.051-0.108,0.06-0.129,0.06-0.129
			c0.043-0.11,0.051-0.133,0.051-0.133c0.035-0.113,0.041-0.136,0.041-0.136c0.602-2.526-0.159-5.041-1.238-7.243
			c-0.481-0.945-1.076-1.756-1.776-2.397c-0.761-0.7-1.657-1.172-2.551-1.427c-1.467-0.383-2.908-0.441-4.405-0.455
			c-1.353,0.001-2.786,0.097-4.132,0.234c-1.341,0.143-2.789,0.348-4.135,0.442c-1.613,0.099-3.417,0.202-4.963-0.231
			c-0.105-0.034-0.14-0.045-0.14-0.045c-0.1-0.036-0.132-0.048-0.132-0.048c-0.095-0.039-0.127-0.052-0.127-0.052
			c-0.124-0.057-0.154-0.072-0.154-0.072c-0.12-0.063-0.149-0.079-0.149-0.079c-0.116-0.069-0.144-0.086-0.144-0.086
			c-0.112-0.074-0.14-0.094-0.14-0.094c-0.108-0.08-0.135-0.101-0.135-0.101c-0.104-0.086-0.13-0.109-0.13-0.109
			c-0.101-0.092-0.125-0.116-0.125-0.116c-0.12-0.124-0.144-0.149-0.144-0.149c-0.092-0.105-0.115-0.132-0.115-0.132
			c-0.088-0.111-0.11-0.14-0.11-0.14c-0.084-0.117-0.105-0.147-0.105-0.147c-0.446-0.652-0.669-1.381-0.823-2.062
			c-0.263-1.161-0.227-2.254-0.065-3.335c0.153-1.021,0.422-2.045,0.736-3.028c0.288-0.898,0.637-1.821,0.999-2.692
			c2.618-6.097,5.869-12.708,8.745-18.693c1.455-3.071,3.391-7.334,4.713-10.461c0.243-0.575,0.531-1.223,0.804-1.785
			c0.443-0.912,1.026-1.988,1.641-2.728c0.101-0.118,0.135-0.156,0.135-0.156c0.1-0.108,0.133-0.142,0.133-0.142
			c0.098-0.097,0.131-0.128,0.131-0.128c0.097-0.087,0.129-0.114,0.129-0.114c0.096-0.076,0.127-0.1,0.127-0.1
			c0.11-0.076,0.125-0.086,0.125-0.086c0.123-0.071,0.139-0.079,0.139-0.079c0.121-0.056,0.136-0.061,0.136-0.061
			c0.119-0.04,0.134-0.044,0.134-0.044c0.117-0.024,0.132-0.026,0.132-0.026c0.115-0.008,0.129-0.008,0.129-0.008
			c0.113,0.008,0.127,0.01,0.127,0.01c0.111,0.024,0.125,0.028,0.125,0.028c0.122,0.046,0.136,0.052,0.136,0.052
			c0.12,0.063,0.147,0.077,0.147,0.077c0.109,0.052,0.137,0.064,0.137,0.064c0.112,0.045,0.141,0.055,0.141,0.055
			c0.115,0.038,0.144,0.046,0.144,0.046c0.118,0.031,0.148,0.037,0.148,0.037c0.121,0.024,0.151,0.029,0.151,0.029
			c0.124,0.016,0.155,0.02,0.155,0.02c0.095,0.008,0.126,0.009,0.126,0.009c0.096,0.003,0.129,0.004,0.129,0.004
			c0.098-0.001,0.131-0.002,0.131-0.002c0.1-0.005,0.133-0.008,0.133-0.008c0.101-0.01,0.136-0.013,0.136-0.013
			c0.103-0.014,0.138-0.019,0.138-0.019c0.105-0.018,0.14-0.025,0.14-0.025c0.708-0.14,1.351-0.452,1.902-0.765
			c1.813-1.026,3.041-2.513,4.222-4.12c1.26-1.737,2.354-3.667,3.385-5.549c0.939-1.623,1.935-3.428,3.208-4.794
			c0.094-0.093,0.125-0.122,0.125-0.122c0.12-0.109,0.149-0.135,0.149-0.135c0.115-0.093,0.143-0.114,0.143-0.114
			c0.109-0.077,0.136-0.094,0.136-0.094c0.116-0.067,0.129-0.074,0.129-0.074c0.122-0.053,0.134-0.058,0.134-0.058
			c0.114-0.031,0.125-0.033,0.125-0.033c0.117-0.008,0.127-0.008,0.127-0.008c0.119,0.015,0.129,0.016,0.129,0.016
			c0.114,0.003,0.125,0.002,0.125,0.002c0.121-0.013,0.132-0.015,0.132-0.015c0.104-0.023,0.127-0.03,0.127-0.03
			c0.121-0.04,0.146-0.049,0.146-0.049c0.101-0.043,0.127-0.054,0.127-0.054c0.105-0.052,0.132-0.067,0.132-0.067
			c0.109-0.062,0.137-0.079,0.137-0.079c0.113-0.072,0.171-0.111,0.171-0.111c0.118-0.084,0.178-0.128,0.178-0.128
			c1.351-1.067,2.278-2.423,3.337-3.742c1.317-1.62,2.838-3.12,4.413-4.491c1.53-1.351,3.277-2.577,4.847-3.879
			c2.38-1.98,4.664-4.207,6.787-6.46c1.882-1.996,3.752-4.109,5.334-6.353c2.871-4.014,5.212-8.459,7.186-12.977"/>
	</g>
	<g id="POLYLINE_278_">
		
			<path fill="none" stroke="#FB8604" stroke-width="2.75" stroke-linecap="round" stroke-linejoin="round" stroke-miterlimit="10" d="
			M339.532,402.205c-4.132,7.599-5.756,14.271-4.505,22.909c0.468,3.2,1.226,6.415,2.334,9.455c0.688,1.832,1.558,3.857,2.827,5.319
			c0.113,0.123,0.151,0.163,0.151,0.163c0.113,0.115,0.151,0.151,0.151,0.151c0.114,0.106,0.152,0.14,0.152,0.14
			c0.114,0.097,0.152,0.128,0.152,0.128c0.114,0.088,0.153,0.115,0.153,0.115c0.115,0.078,0.153,0.103,0.153,0.103
			c0.115,0.069,0.153,0.09,0.153,0.09c0.115,0.059,0.153,0.077,0.153,0.077c0.115,0.049,0.153,0.063,0.153,0.063
			c0.115,0.039,0.153,0.05,0.153,0.05c0.115,0.028,0.153,0.036,0.153,0.036c0.115,0.018,0.153,0.022,0.153,0.022
			c0.115,0.007,0.136,0.007,0.136,0.007c0.107-0.003,0.128-0.004,0.128-0.004c0.107-0.011,0.128-0.014,0.128-0.014
			c0.107-0.018,0.128-0.023,0.128-0.023c0.107-0.026,0.128-0.031,0.128-0.031c0.107-0.032,0.128-0.039,0.128-0.039
			c0.107-0.039,0.149-0.056,0.149-0.056c0.085-0.036,0.128-0.055,0.128-0.055c0.085-0.04,0.128-0.062,0.128-0.062
			c0.661-0.342,1.279-0.861,1.849-1.271c0.213-0.156,0.544-0.374,0.704-0.465c0.133-0.077,0.224-0.123,0.268-0.145
			c0.09-0.044,0.135-0.064,0.135-0.064c0.09-0.04,0.135-0.058,0.135-0.058c0.09-0.035,0.136-0.052,0.136-0.052
			c0.114-0.038,0.136-0.044,0.136-0.044c0.114-0.031,0.137-0.037,0.137-0.037c0.115-0.024,0.138-0.028,0.138-0.028
			c0.115-0.017,0.138-0.019,0.138-0.019c0.116-0.009,0.139-0.01,0.139-0.01c0.116-0.001,0.14,0,0.14,0
			c0.117,0.008,0.14,0.01,0.14,0.01c0.118,0.017,0.141,0.021,0.141,0.021c0.118,0.026,0.142,0.033,0.142,0.033
			c0.095,0.028,0.141,0.044,0.141,0.044c0.093,0.035,0.139,0.055,0.139,0.055c0.093,0.043,0.14,0.066,0.14,0.066
			c0.094,0.05,0.14,0.077,0.14,0.077c0.094,0.057,0.141,0.088,0.141,0.088c0.095,0.064,0.142,0.098,0.142,0.098
			c0.095,0.071,0.143,0.108,0.143,0.108c0.095,0.078,0.143,0.118,0.143,0.118c0.899,0.804,1.438,1.609,2.068,2.55
			c0.854,1.307,1.725,2.925,2.467,4.309c1.051,1.966,3.016,5.836,4.191,7.672c0.7,1.112,1.586,2.409,2.559,3.233
			c0.1,0.082,0.15,0.122,0.15,0.122c0.1,0.076,0.15,0.112,0.15,0.112c0.099,0.069,0.149,0.102,0.149,0.102
			c0.099,0.062,0.148,0.091,0.148,0.091c0.123,0.068,0.148,0.081,0.148,0.081c0.122,0.059,0.147,0.07,0.147,0.07
			c0.122,0.05,0.146,0.06,0.146,0.06c0.121,0.042,0.146,0.05,0.146,0.05c0.121,0.035,0.145,0.041,0.145,0.041
			c0.12,0.027,0.144,0.032,0.144,0.032c0.12,0.02,0.144,0.024,0.144,0.024c0.096,0.011,0.143,0.016,0.143,0.016
			c0.095,0.006,0.143,0.008,0.143,0.008c0.095,0.002,0.142,0.001,0.142,0.001c0.094-0.003,0.141-0.005,0.141-0.005
			c0.094-0.007,0.141-0.011,0.141-0.011c0.093-0.011,0.14-0.017,0.14-0.017c0.463-0.067,0.875-0.208,1.227-0.335
			c0.31-0.117,1.081-0.421,1.372-0.502c0.124-0.035,0.165-0.046,0.165-0.046c0.122-0.03,0.163-0.039,0.163-0.039
			c0.121-0.024,0.161-0.031,0.161-0.031c0.12-0.017,0.16-0.021,0.16-0.021c0.119-0.009,0.138-0.01,0.138-0.01
			c0.118-0.002,0.137-0.001,0.137-0.001c0.116,0.006,0.136,0.008,0.136,0.008c0.115,0.015,0.134,0.018,0.134,0.018
			c0.122,0.026,0.145,0.032,0.145,0.032c0.115,0.035,0.137,0.043,0.137,0.043c0.113,0.044,0.136,0.054,0.136,0.054
			c0.112,0.054,0.135,0.065,0.135,0.065c0.111,0.062,0.134,0.076,0.134,0.076c0.111,0.071,0.155,0.101,0.155,0.101
			c0.088,0.063,0.132,0.097,0.132,0.097c0.087,0.069,0.131,0.106,0.131,0.106c0.087,0.075,0.13,0.114,0.13,0.114
			c1.574,1.514,2.593,3.754,4.265,5.091c0.107,0.083,0.16,0.123,0.16,0.123c0.108,0.078,0.163,0.115,0.163,0.115
			c0.11,0.072,0.167,0.108,0.167,0.108c0.115,0.068,0.172,0.101,0.172,0.101c0.117,0.062,0.175,0.092,0.175,0.092
			c0.118,0.057,0.178,0.084,0.178,0.084c0.12,0.052,0.181,0.076,0.181,0.076c0.122,0.047,0.183,0.069,0.183,0.069
			c0.811,0.28,1.533,0.356,2.357,0.413c1.329,0.084,2.824,0.066,4.11,0.408c1.723,0.43,3.015,1.511,4.202,2.698
			c1.214,1.192,3.238,3.791,4.347,5.134c1.404,1.678,3.069,3.605,5.194,4.236c1.755,0.562,3.619,0.171,5.141-0.602
			c1.665-0.837,3.433-2.068,5.291-2.281c1.758-0.217,3.645,0.249,5.368,0.521c1.398,0.231,2.947,0.45,4.339,0.202
			c1.181-0.186,2.248-0.855,3.069-1.572c1.309-1.138,2.463-2.681,3.572-3.976c0.705-0.829,1.518-1.678,2.334-2.296
			c0.986-0.779,2.489-1.618,3.581-2.267c1.455-0.857,2.877-1.83,4.101-2.999c1.747-1.657,3.179-3.68,4.55-5.651
			c0.864-1.276,3.106-4.679,3.977-5.871c0.384-0.528,0.914-1.22,1.352-1.659c0.112-0.11,0.167-0.161,0.167-0.161
			c0.108-0.096,0.134-0.118,0.134-0.118c0.104-0.083,0.129-0.102,0.129-0.102c0.124-0.086,0.148-0.101,0.148-0.101
			c0.117-0.066,0.14-0.077,0.14-0.077c0.111-0.045,0.132-0.052,0.132-0.052c0.119-0.025,0.124-0.026,0.124-0.026
			c0.122,0,0.128,0,0.128,0c0.115,0.024,0.125,0.027,0.125,0.027c0.118,0.048,0.128,0.053,0.128,0.053
			c0.176,0.097,0.24,0.147,0.334,0.208c0.111,0.068,0.13,0.078,0.13,0.078c0.115,0.055,0.124,0.058,0.124,0.058
			c0.12,0.034,0.125,0.035,0.125,0.035c0.122,0.008,0.128,0.008,0.128,0.008c0.115-0.017,0.133-0.022,0.133-0.022
			c0.116-0.041,0.136-0.049,0.136-0.049c0.122-0.063,0.143-0.076,0.143-0.076c0.106-0.07,0.128-0.085,0.128-0.085
			c0.111-0.085,0.133-0.104,0.133-0.104c0.115-0.1,0.161-0.143,0.161-0.143c0.095-0.092,0.143-0.141,0.143-0.141
			c0.841-0.91,1.427-1.881,2.049-2.924c0.981-1.669,1.902-3.548,2.729-5.303c1.602-3.451,3.067-7.086,4.205-10.717
			c0.93-2.963,1.685-6.09,2.264-9.14c0.767-4.001,1.296-8.118,1.041-12.196c-0.114-1.883-0.394-3.771-0.849-5.602
			c-0.485-1.949-1.178-3.868-1.993-5.702c-2.841-6.324-7.072-11.961-11.666-17.114c-3.616-4.014-7.547-7.854-11.817-11.171
			c-3.289-2.539-6.843-4.821-10.689-6.421c-2.795-1.159-5.781-1.949-8.813-2.078c-8.466-0.34-16.468,3.778-23.226,8.526"/>
	</g>
</g>
<g id="AG-OUTLINE">
	<g id="POLYLINE_534_">
		
			<path fill="none" stroke="#FB8604" stroke-width="3.5" stroke-linecap="round" stroke-linejoin="round" stroke-miterlimit="10" d="
			M685.44,340.531c0.104,0.029,0.138,0.038,0.138,0.038c0.104,0.022,0.139,0.028,0.139,0.028c0.105,0.015,0.14,0.019,0.14,0.019
			c0.105,0.009,0.14,0.01,0.14,0.01c0.106,0.002,0.141,0.002,0.141,0.002c0.106-0.004,0.141-0.007,0.141-0.007
			c0.106-0.011,0.142-0.015,0.142-0.015c0.107-0.017,0.142-0.023,0.142-0.023c0.107-0.023,0.143-0.031,0.143-0.031
			c0.107-0.028,0.143-0.039,0.143-0.039c0.107-0.034,0.143-0.046,0.143-0.046c0.108-0.039,0.143-0.053,0.143-0.053
			c0.108-0.044,0.143-0.06,0.143-0.06c1.058-0.494,1.786-1.208,2.542-2.006c0.751-0.816,1.54-1.83,1.952-2.807
			c0.086-0.206,0.141-0.372,0.178-0.502c0.033-0.124,0.043-0.165,0.043-0.165c0.026-0.122,0.034-0.163,0.034-0.163
			c0.019-0.121,0.024-0.161,0.024-0.161c0.012-0.119,0.015-0.159,0.015-0.159c0.004-0.118,0.004-0.157,0.004-0.157
			c-0.004-0.116-0.005-0.135-0.005-0.135c-0.011-0.114-0.013-0.133-0.013-0.133c-0.018-0.112-0.022-0.131-0.022-0.131
			c-0.026-0.11-0.031-0.129-0.031-0.129c-0.034-0.108-0.04-0.126-0.04-0.126c-0.049-0.123-0.057-0.141-0.057-0.141
			c-0.06-0.12-0.07-0.137-0.07-0.137c-0.072-0.117-0.083-0.133-0.083-0.133c-0.075-0.103-0.092-0.124-0.092-0.124
			c-0.09-0.105-0.109-0.125-0.109-0.125c-0.122-0.121-0.144-0.141-0.144-0.141c-0.022-0.02-0.081-0.867-0.081-0.867
			s-0.034-0.419-0.034-0.419c-0.074-0.827-0.17-1.677-0.339-2.489c-0.204-1.04-0.596-2.204-1.045-3.121
			c-0.669-1.383-1.563-2.657-2.533-3.845c-2.473-2.995-5.489-5.592-8.504-8.026c-5.112-4.068-10.765-7.955-16.31-11.411
			c-5.544-3.398-11.353-6.713-17.416-9.089c-2.088-0.806-4.266-1.474-6.478-1.839c-2.032-0.346-4.133-0.421-6.192-0.367
			l-4.388,0.165c-0.906-4.043-2.481-7.932-4.303-11.643c-1.309-2.622-2.803-5.21-4.575-7.548c-1.331-1.757-3.032-3.593-4.864-4.739
			c-3.213-2.063-6.899-1.696-9.692,0.717c-2.646,2.299-3.837,5.575-4.622,8.87c-0.581,2.528-0.867,5.157-0.986,7.746
			c-0.153,3.614,0.021,7.301,0.5,10.886c-3.753,1.506-7.605,3.165-11.118,5.161c-1.685,0.971-3.356,2.034-4.797,3.347
			c-0.626,0.579-1.215,1.224-1.62,1.872c-0.255,0.392-0.355,0.682-0.552,1.051c-0.825,1.583-1.96,3.001-3.169,4.306
			c-1.546,1.655-3.283,3.176-5.052,4.587c-2.045,1.618-4.223,3.196-6.454,4.542c-2.851,1.722-5.912,3.189-9.141,4.042
			c-3.714,0.953-7.61,1.143-11.424,0.878c-1.353-0.097-2.763-0.261-4.103-0.471c-1.833-0.3-3.794-0.689-5.639-0.927
			c-2.594-0.343-5.272-0.573-7.888-0.446c-0.757,0.032-1.557,0.129-2.31,0.215c-0.873,0.091-1.791,0.149-2.669,0.175
			c-4.634,0.123-9.303-0.483-13.829-1.443c-2.308-0.5-4.673-1.146-6.914-1.894c-1.066-0.358-2.23-0.702-3.328-0.946
			c-0.905-0.198-1.989-0.371-2.859-0.319c-0.18,0.011-0.307,0.027-0.398,0.039c-0.123,0.02-0.163,0.027-0.163,0.027
			c-0.117,0.025-0.154,0.034-0.154,0.034c-0.11,0.029-0.146,0.04-0.146,0.04c-0.104,0.034-0.137,0.046-0.137,0.046
			c-0.097,0.039-0.129,0.052-0.129,0.052c-0.12,0.058-0.134,0.066-0.134,0.066c-0.167,0.099-0.236,0.15-0.271,0.171
			c-0.114,0.059-0.131,0.067-0.131,0.067c-0.093,0.04-0.133,0.056-0.133,0.056c-0.084,0.031-0.128,0.046-0.128,0.046
			c-0.092,0.03-0.14,0.044-0.14,0.044c-0.1,0.028-0.153,0.042-0.153,0.042c-0.109,0.027-0.165,0.04-0.165,0.04
			c-0.058,0.013-0.178,0.038-0.178,0.038c-0.061,0.013-0.194,0.037-0.257,0.048c-0.456,0.079-0.967,0.132-1.43,0.171
			c-1.525,0.121-3.255,0.135-4.792,0.125c-2.64-0.022-6.024-0.183-8.663-0.297c-2.797-0.102-5.925-0.118-8.724-0.065
			c-6.471,0.117-13.528,0.65-19.978,1.315c-4.617,0.505-9.654,1.109-14.196,2.006c-2.264,0.46-4.573,0.975-6.727,1.822
			c-0.741,0.284-1.451,0.698-2.16,1.035c-3.309,1.551-6.891,2.68-10.385,3.737c-3.673,1.093-7.827,2.112-11.472,3.271
			c-4.739,1.5-9.501,3.304-13.912,5.604c-1.599,0.845-3.286,1.79-4.791,2.795c-1.084,0.721-2.306,1.639-3.136,2.579
			c-0.201,0.231-0.337,0.413-0.443,0.568c-0.06,0.092-0.089,0.137-0.089,0.137c-0.055,0.09-0.081,0.135-0.081,0.135
			c-0.049,0.089-0.072,0.133-0.072,0.133c-0.043,0.088-0.064,0.131-0.064,0.131c-0.038,0.086-0.055,0.129-0.055,0.129
			c-0.039,0.106-0.047,0.128-0.047,0.128c-0.032,0.105-0.038,0.126-0.038,0.126c-0.03,0.124-0.034,0.144-0.034,0.144
			c-0.02,0.121-0.022,0.141-0.022,0.141c-0.018,0.122-0.022,0.143-0.022,0.143c-0.022,0.105-0.027,0.126-0.027,0.126
			c-0.029,0.108-0.042,0.152-0.042,0.152c-0.029,0.089-0.045,0.135-0.045,0.135c-0.034,0.092-0.053,0.138-0.053,0.138
			c-0.04,0.094-0.061,0.142-0.061,0.142c-0.626,1.285-1.481,2.166-2.404,3.141c-1.333,1.357-2.871,2.667-4.347,3.869l-30.706,24.205
			c-9.398,6.473-18.274,10.42-29.917,8.815c-7.295-0.983-15.538-4.107-22.571-6.342c-1.723-0.538-3.566-1.094-5.334-1.462
			c-1.021-0.204-2.151-0.392-3.178-0.302c-0.122,0.013-0.182,0.021-0.182,0.021c-0.116,0.018-0.173,0.028-0.173,0.028
			c-0.111,0.023-0.164,0.035-0.164,0.035c-0.105,0.027-0.155,0.042-0.155,0.042c-0.099,0.032-0.146,0.049-0.146,0.049
			c-0.092,0.037-0.137,0.057-0.137,0.057c-0.086,0.042-0.128,0.064-0.128,0.064c-0.118,0.072-0.132,0.081-0.132,0.081
			c-0.118,0.089-0.13,0.1-0.13,0.1c-0.117,0.111-0.128,0.122-0.128,0.122c-0.104,0.122-0.113,0.134-0.113,0.134
			c-0.083,0.118-0.1,0.145-0.1,0.145c-0.065,0.112-0.08,0.14-0.08,0.14c-0.057,0.118-0.071,0.148-0.071,0.148
			c-0.051,0.123-0.063,0.154-0.063,0.154c-0.11,0.301-0.16,0.53-0.212,0.766c-0.067,0.329-0.199,1.069-0.294,1.364
			c-0.029,0.094-0.04,0.125-0.04,0.125c-0.043,0.122-0.055,0.151-0.055,0.151c-0.049,0.116-0.062,0.145-0.062,0.145
			c-0.055,0.11-0.07,0.137-0.07,0.137c-0.071,0.116-0.079,0.129-0.079,0.129c-0.092,0.122-0.113,0.148-0.113,0.148
			c-0.117,0.121-0.142,0.143-0.142,0.143c-0.106,0.086-0.133,0.106-0.133,0.106c-0.117,0.076-0.147,0.094-0.147,0.094
			c-0.095,0.051-0.127,0.067-0.127,0.067c-0.101,0.045-0.136,0.059-0.136,0.059c-0.108,0.04-0.144,0.052-0.144,0.052
			c-0.114,0.034-0.153,0.045-0.153,0.045c-0.12,0.029-0.161,0.038-0.161,0.038c-0.962,0.18-1.817,0.064-2.701-0.056
			c-1.226-0.186-2.515-0.499-3.718-0.806c-4.017-1.073-10.94-3.104-14.921-4.008c-4.379-1.034-9.413-2.022-13.855-2.761
			c-5.488-0.867-11.244-1.706-16.801-1.794c-1.446,0.005-3.018,0.01-4.405,0.409c-0.121,0.04-0.179,0.06-0.179,0.06
			c-0.111,0.043-0.164,0.065-0.164,0.065c-0.101,0.046-0.149,0.069-0.149,0.069c-0.091,0.048-0.134,0.074-0.134,0.074
			c-0.118,0.078-0.154,0.105-0.154,0.105c-0.097,0.084-0.126,0.113-0.126,0.113c-0.097,0.122-0.117,0.153-0.117,0.153
			c-0.048,0.098-0.06,0.132-0.06,0.132c-0.028,0.121-0.029,0.132-0.029,0.132c-0.005,0.112-0.005,0.124-0.005,0.124
			c0.012,0.117,0.014,0.129,0.014,0.129c0.027,0.121,0.031,0.133,0.031,0.133c0.032,0.1,0.041,0.125,0.041,0.125
			c0.041,0.102,0.052,0.128,0.052,0.128c0.049,0.104,0.062,0.13,0.062,0.13c0.056,0.105,0.086,0.158,0.086,0.158
			c0.265,0.458,0.763,1.09,0.984,1.43c0.063,0.098,0.093,0.146,0.093,0.146c0.069,0.118,0.081,0.141,0.081,0.141
			c0.058,0.113,0.068,0.135,0.068,0.135c0.048,0.118,0.052,0.128,0.052,0.128c0.034,0.12,0.036,0.13,0.036,0.13
			c0.012,0.102,0.013,0.125,0.013,0.125c-0.013,0.112-0.018,0.133-0.018,0.133c-0.053,0.12-0.065,0.138-0.065,0.138
			c-0.112,0.121-0.132,0.137-0.132,0.137c-0.113,0.075-0.139,0.089-0.139,0.089c-0.111,0.053-0.141,0.065-0.141,0.065
			c-0.096,0.035-0.129,0.047-0.129,0.047c-0.106,0.032-0.144,0.042-0.144,0.042c-0.591,0.146-1.124,0.168-1.647,0.198
			c-0.779,0.037-2.034,0.026-2.835,0.018c-5.433-0.107-11.337-0.132-16.717,0.472c-9.068,0.993-18.041,3.401-26.699,6.218
			c-5.559,1.854-11.222,3.964-16.51,6.494c-1.826,0.908-3.775,1.86-5.368,3.135c-0.122,0.105-0.179,0.156-0.179,0.156
			c-0.108,0.101-0.158,0.15-0.158,0.15c-0.094,0.097-0.137,0.144-0.137,0.144c-0.08,0.093-0.116,0.138-0.116,0.138
			c-0.065,0.089-0.095,0.132-0.095,0.132c-0.051,0.084-0.073,0.125-0.073,0.125c-0.05,0.119-0.062,0.157-0.062,0.157
			c-0.02,0.11-0.022,0.145-0.022,0.145c0.011,0.1,0.02,0.132,0.02,0.132c0.063,0.121,0.068,0.128,0.068,0.128
			c0.116,0.116,0.125,0.122,0.125,0.122c0.119,0.079,0.139,0.091,0.139,0.091c0.108,0.056,0.131,0.067,0.131,0.067
			c0.12,0.052,0.171,0.073,0.171,0.073c0.453,0.172,1.126,0.331,1.475,0.449c0.113,0.038,0.168,0.058,0.168,0.058
			c0.107,0.04,0.158,0.061,0.158,0.061c0.123,0.054,0.146,0.066,0.146,0.066c0.11,0.059,0.131,0.071,0.131,0.071
			c0.123,0.083,0.131,0.09,0.131,0.09c0.123,0.121,0.129,0.129,0.129,0.129c0.066,0.117,0.076,0.146,0.076,0.146
			c0.021,0.119,0.022,0.151,0.022,0.151c-0.009,0.098-0.016,0.132-0.016,0.132c-0.031,0.105-0.044,0.141-0.044,0.141
			c-0.052,0.112-0.072,0.15-0.072,0.15c-0.072,0.119-0.1,0.159-0.1,0.159c-0.06,0.083-0.092,0.125-0.092,0.125
			c-0.07,0.086-0.107,0.13-0.107,0.13c-0.079,0.089-0.122,0.135-0.122,0.135c-0.87,0.885-1.779,1.474-2.781,2.146
			c-2.954,1.91-6.399,3.722-9.518,5.366l-23.376,11.795c-5.14,2.682-10.595,5.715-15.48,8.802
			c-8.027,5.091-17.241,11.536-24.927,17.133c-2.595,1.927-5.515,4.124-7.965,6.224c-0.972,0.853-2.125,1.85-2.868,2.862
			c-0.083,0.123-0.108,0.163-0.108,0.163c-0.067,0.114-0.087,0.151-0.087,0.151c-0.051,0.105-0.065,0.139-0.065,0.139
			c-0.034,0.096-0.042,0.126-0.042,0.126c-0.02,0.113-0.021,0.139-0.021,0.139c0.016,0.118,0.024,0.139,0.024,0.139
			c0.097,0.122,0.117,0.136,0.117,0.136c0.12,0.055,0.132,0.058,0.132,0.058c0.109,0.024,0.124,0.027,0.124,0.027
			c0.111,0.012,0.128,0.013,0.128,0.013c0.107,0.004,0.144,0.004,0.144,0.004c1.323-0.045,2.809-0.503,4.097-0.558
			c0.137-0.005,0.222-0.003,0.268-0.002c0.123,0.006,0.163,0.009,0.163,0.009c0.113,0.013,0.131,0.015,0.131,0.015
			c0.12,0.023,0.136,0.027,0.136,0.027c0.119,0.038,0.133,0.043,0.133,0.043c0.121,0.065,0.132,0.073,0.132,0.073
			c0.108,0.117,0.114,0.128,0.114,0.128c0.039,0.108,0.043,0.128,0.043,0.128c0.006,0.108,0.005,0.131,0.005,0.131
			c-0.017,0.123-0.023,0.149-0.023,0.149c-0.03,0.109-0.039,0.138-0.039,0.138c-0.044,0.118-0.057,0.149-0.057,0.149
			c-0.042,0.095-0.057,0.127-0.057,0.127c-0.05,0.1-0.068,0.134-0.068,0.134c-0.973,1.696-3.007,3.777-4.27,5.293
			c-1.025,1.219-2.227,2.556-2.961,3.957c-0.057,0.118-0.074,0.156-0.074,0.156c-0.049,0.113-0.064,0.15-0.064,0.15
			c-0.041,0.109-0.054,0.144-0.054,0.144c-0.033,0.104-0.043,0.138-0.043,0.138c-0.025,0.099-0.031,0.131-0.031,0.131
			c-0.016,0.094-0.02,0.124-0.02,0.124c-0.008,0.117-0.008,0.146-0.008,0.146c0.009,0.113,0.011,0.129,0.011,0.129
			c0.029,0.118,0.034,0.132,0.034,0.132c0.056,0.119,0.063,0.132,0.063,0.132c0.088,0.117,0.098,0.128,0.098,0.128
			c0.113,0.103,0.125,0.113,0.125,0.113c0.121,0.082,0.135,0.091,0.135,0.091c0.121,0.065,0.153,0.081,0.153,0.081
			c0.1,0.044,0.134,0.058,0.134,0.058c0.107,0.04,0.144,0.053,0.144,0.053c0.814,0.269,1.745,0.35,2.518,0.631
			c0.121,0.046,0.16,0.062,0.16,0.062c0.116,0.05,0.153,0.068,0.153,0.068c0.11,0.055,0.145,0.075,0.145,0.075
			c0.119,0.071,0.136,0.082,0.136,0.082c0.11,0.078,0.125,0.09,0.125,0.09c0.114,0.099,0.127,0.112,0.127,0.112
			c0.1,0.109,0.112,0.124,0.112,0.124c0.083,0.117,0.094,0.136,0.094,0.136c0.062,0.114,0.071,0.133,0.071,0.133
			c0.051,0.122,0.058,0.143,0.058,0.143c0.034,0.108,0.04,0.13,0.04,0.13c0.027,0.113,0.032,0.136,0.032,0.136
			c0.02,0.117,0.024,0.141,0.024,0.141c0.012,0.097,0.016,0.147,0.016,0.147c0.007,0.101,0.009,0.152,0.009,0.152
			c0.002,0.104,0.002,0.156,0.002,0.156c-0.022,1.105-0.376,2.235-0.602,3.277c-0.06,0.265-0.135,0.666-0.157,0.857
			c-0.018,0.146-0.025,0.239-0.028,0.288c-0.005,0.091-0.006,0.135-0.006,0.135c-0.001,0.087,0,0.129,0,0.129
			c0.006,0.123,0.008,0.143,0.008,0.143c0.014,0.115,0.018,0.133,0.018,0.133c0.028,0.123,0.033,0.14,0.033,0.14
			c0.04,0.111,0.047,0.126,0.047,0.126c0.067,0.118,0.082,0.139,0.082,0.139c0.103,0.111,0.123,0.127,0.123,0.127
			c0.107,0.072,0.13,0.085,0.13,0.085c0.099,0.045,0.125,0.055,0.125,0.055c0.111,0.033,0.14,0.04,0.14,0.04
			c0.122,0.022,0.154,0.026,0.154,0.026c0.099,0.009,0.133,0.011,0.133,0.011c0.106,0.003,0.142,0.003,0.142,0.003
			c0.112-0.003,0.151-0.006,0.151-0.006c1.065-0.101,1.911-0.46,2.838-0.826c3.834-1.59,11.762-6.298,15.504-8.319
			c9.735-5.356,20.52-9.456,30.961-13.24c8.097-2.853,16.696-5.911,25.057-7.816c1.208-0.26,2.484-0.505,3.712-0.64
			c0.81-0.086,1.756-0.149,2.528-0.008c0.12,0.025,0.177,0.039,0.177,0.039c0.11,0.03,0.162,0.046,0.162,0.046
			c0.1,0.035,0.147,0.054,0.147,0.054c0.09,0.04,0.132,0.062,0.132,0.062c0.116,0.07,0.152,0.095,0.152,0.095
			c0.123,0.109,0.15,0.139,0.15,0.139c0.084,0.122,0.089,0.132,0.089,0.132c0.05,0.118,0.053,0.128,0.053,0.128
			c0.028,0.116,0.03,0.127,0.03,0.127c0.013,0.124,0.014,0.135,0.014,0.135c0.001,0.106,0,0.13,0,0.13
			c-0.009,0.122-0.012,0.147-0.012,0.147c-0.014,0.101-0.018,0.126-0.018,0.126c-0.014,0.077-0.025,0.129-0.025,0.129
			c-0.069,0.328-0.259,0.884-0.326,1.106c-0.044,0.149-0.067,0.243-0.079,0.292c-0.024,0.115-0.028,0.137-0.028,0.137
			c-0.016,0.108-0.018,0.129-0.018,0.129c-0.006,0.121-0.006,0.13-0.006,0.13c0.01,0.119,0.011,0.127,0.011,0.127
			c0.037,0.121,0.044,0.137,0.044,0.137c0.082,0.113,0.094,0.125,0.094,0.125c0.122,0.085,0.14,0.094,0.14,0.094
			c0.118,0.046,0.139,0.052,0.139,0.052c0.115,0.026,0.14,0.03,0.14,0.03c0.103,0.013,0.13,0.016,0.13,0.016
			c0.113,0.006,0.142,0.007,0.142,0.007c0.123-0.001,0.154-0.001,0.154-0.001c0.609-0.03,1.084-0.153,1.625-0.291
			c0.715-0.191,1.501-0.459,2.199-0.713c6.348-2.353,13.623-6.397,19.806-9.202c3.904-1.769,8.005-3.259,12.162-4.314
			c7.006-1.752,14.28-2.6,21.489-2.871c2.169-0.058,4.453-0.064,6.614,0.138c1.065,0.107,2.24,0.259,3.236,0.624
			c0.106,0.042,0.158,0.063,0.158,0.063c0.099,0.043,0.147,0.065,0.147,0.065c0.092,0.045,0.136,0.068,0.136,0.068
			c0.084,0.047,0.124,0.071,0.124,0.071c0.113,0.073,0.148,0.098,0.148,0.098c0.097,0.077,0.127,0.103,0.127,0.103
			c0.106,0.107,0.129,0.135,0.129,0.135c0.078,0.113,0.094,0.142,0.094,0.142c0.05,0.119,0.059,0.15,0.059,0.15
			c0.021,0.116,0.021,0.128,0.021,0.128c-0.001,0.117-0.002,0.129-0.002,0.129c-0.02,0.121-0.023,0.134-0.023,0.134
			c-0.033,0.112-0.037,0.125-0.037,0.125c-0.046,0.114-0.057,0.14-0.057,0.14c-0.051,0.104-0.066,0.13-0.066,0.13
			c-0.061,0.105-0.077,0.131-0.077,0.131c-0.051,0.08-0.087,0.133-0.087,0.133c-0.359,0.517-0.816,0.983-1.165,1.424
			c-0.075,0.097-0.111,0.145-0.111,0.145c-0.083,0.117-0.098,0.14-0.098,0.14c-0.07,0.112-0.083,0.134-0.083,0.134
			c-0.06,0.118-0.065,0.128-0.065,0.128c-0.044,0.121-0.047,0.131-0.047,0.131c-0.019,0.104-0.02,0.126-0.02,0.126
			c0.009,0.105,0.013,0.125,0.013,0.125c0.05,0.113,0.061,0.131,0.061,0.131c0.11,0.116,0.129,0.131,0.129,0.131
			c0.112,0.072,0.137,0.086,0.137,0.086c0.11,0.052,0.139,0.064,0.139,0.064c0.095,0.035,0.128,0.046,0.128,0.046
			c0.105,0.032,0.142,0.042,0.142,0.042c0.848,0.202,1.539,0.199,2.351,0.224c4.386-0.002,11.437-0.507,15.793-0.422
			c2.855,0.017,5.859,0.207,8.7,0.509c3.898,0.369,14.984,2.169,18.997,2.761c5.293,0.699,10.736,1.18,16.041,0.35
			c2.428-0.378,4.825-1.093,7.128-1.943c2.443-0.889,5.685-2.384,8.108-3.341c1.048-0.403,2.292-0.849,3.373-0.956
			c0.224-0.021,0.396-0.024,0.533-0.021c0.084,0.003,0.125,0.006,0.125,0.006c0.122,0.01,0.162,0.015,0.162,0.015
			c0.118,0.016,0.156,0.023,0.156,0.023c0.113,0.023,0.15,0.031,0.15,0.031c0.103,0.027,0.136,0.037,0.136,0.037
			c0.096,0.032,0.128,0.044,0.128,0.044c0.124,0.05,0.154,0.064,0.154,0.064c0.118,0.058,0.147,0.073,0.147,0.073
			c0.113,0.065,0.141,0.082,0.141,0.082c0.109,0.071,0.136,0.089,0.136,0.089c0.105,0.076,0.131,0.096,0.131,0.096
			c0.102,0.081,0.152,0.123,0.152,0.123c0.445,0.385,0.874,0.897,1.216,1.205c0.097,0.087,0.146,0.129,0.146,0.129
			c0.1,0.082,0.126,0.102,0.126,0.102c0.103,0.077,0.13,0.096,0.13,0.096c0.107,0.072,0.134,0.089,0.134,0.089
			c0.111,0.066,0.139,0.081,0.139,0.081c0.115,0.059,0.145,0.073,0.145,0.073c0.12,0.051,0.151,0.063,0.151,0.063
			c0.118,0.041,0.146,0.049,0.146,0.049c0.114,0.031,0.143,0.038,0.143,0.038c0.118,0.025,0.148,0.03,0.148,0.03
			c0.122,0.019,0.153,0.023,0.153,0.023c0.094,0.01,0.126,0.013,0.126,0.013c0.701,0.054,1.389-0.091,1.993-0.251
			c0.66-0.179,1.327-0.428,1.959-0.689c1.837-0.701,14.031-7.083,16.058-8.077c2.86-1.468,5.907-3.112,8.606-4.853
			c0.355,3.905,1.19,7.812,2.487,11.514c0.712,1.949,1.603,4.101,2.95,5.659c0.113,0.123,0.151,0.163,0.151,0.163
			c0.113,0.115,0.151,0.151,0.151,0.151c0.114,0.106,0.152,0.14,0.152,0.14c0.114,0.097,0.152,0.128,0.152,0.128
			c0.114,0.088,0.153,0.115,0.153,0.115c0.115,0.078,0.153,0.103,0.153,0.103c0.115,0.069,0.153,0.09,0.153,0.09
			c0.115,0.059,0.153,0.077,0.153,0.077c0.115,0.049,0.153,0.063,0.153,0.063c0.115,0.039,0.153,0.05,0.153,0.05
			c0.115,0.028,0.153,0.036,0.153,0.036c0.115,0.018,0.153,0.022,0.153,0.022c0.115,0.007,0.136,0.007,0.136,0.007
			c0.107-0.003,0.128-0.004,0.128-0.004c0.107-0.011,0.128-0.014,0.128-0.014c0.107-0.018,0.128-0.023,0.128-0.023
			c0.107-0.026,0.128-0.031,0.128-0.031c0.107-0.032,0.128-0.039,0.128-0.039c0.107-0.039,0.149-0.056,0.149-0.056
			c0.085-0.036,0.128-0.055,0.128-0.055c0.085-0.04,0.128-0.062,0.128-0.062c0.661-0.342,1.279-0.861,1.849-1.271
			c0.213-0.156,0.544-0.374,0.704-0.465c0.133-0.077,0.224-0.123,0.268-0.145c0.09-0.044,0.135-0.064,0.135-0.064
			c0.09-0.04,0.135-0.058,0.135-0.058c0.09-0.035,0.136-0.052,0.136-0.052c0.114-0.038,0.136-0.044,0.136-0.044
			c0.114-0.031,0.137-0.037,0.137-0.037c0.115-0.024,0.138-0.028,0.138-0.028c0.115-0.017,0.138-0.019,0.138-0.019
			c0.116-0.009,0.139-0.01,0.139-0.01c0.116-0.001,0.14,0,0.14,0c0.117,0.008,0.14,0.01,0.14,0.01
			c0.118,0.017,0.141,0.021,0.141,0.021c0.118,0.026,0.142,0.033,0.142,0.033c0.095,0.028,0.141,0.044,0.141,0.044
			c0.093,0.035,0.139,0.055,0.139,0.055c0.093,0.043,0.14,0.066,0.14,0.066c0.094,0.05,0.14,0.077,0.14,0.077
			c0.094,0.057,0.141,0.088,0.141,0.088c0.095,0.064,0.142,0.098,0.142,0.098c0.095,0.071,0.143,0.108,0.143,0.108
			c0.095,0.078,0.143,0.118,0.143,0.118c0.899,0.804,1.438,1.609,2.068,2.55c0.854,1.307,1.725,2.925,2.467,4.309
			c1.051,1.966,3.016,5.836,4.191,7.672c0.7,1.112,1.586,2.409,2.559,3.233c0.1,0.082,0.15,0.122,0.15,0.122
			c0.1,0.076,0.15,0.112,0.15,0.112c0.099,0.069,0.149,0.102,0.149,0.102c0.099,0.062,0.148,0.091,0.148,0.091
			c0.123,0.068,0.148,0.081,0.148,0.081c0.122,0.059,0.147,0.07,0.147,0.07c0.122,0.05,0.146,0.06,0.146,0.06
			c0.121,0.042,0.146,0.05,0.146,0.05c0.121,0.035,0.145,0.041,0.145,0.041c0.12,0.027,0.144,0.032,0.144,0.032
			c0.12,0.02,0.144,0.024,0.144,0.024c0.096,0.011,0.143,0.016,0.143,0.016c0.095,0.006,0.143,0.008,0.143,0.008
			c0.095,0.002,0.142,0.001,0.142,0.001c0.094-0.003,0.141-0.005,0.141-0.005c0.094-0.007,0.141-0.011,0.141-0.011
			c0.093-0.011,0.14-0.017,0.14-0.017c0.463-0.067,0.875-0.208,1.227-0.335c0.31-0.117,1.081-0.421,1.372-0.502
			c0.124-0.035,0.165-0.046,0.165-0.046c0.122-0.03,0.163-0.039,0.163-0.039c0.121-0.024,0.161-0.031,0.161-0.031
			c0.12-0.017,0.16-0.021,0.16-0.021c0.119-0.009,0.138-0.01,0.138-0.01c0.118-0.002,0.137-0.001,0.137-0.001
			c0.116,0.006,0.136,0.008,0.136,0.008c0.115,0.015,0.134,0.018,0.134,0.018c0.122,0.026,0.145,0.032,0.145,0.032
			c0.115,0.035,0.137,0.043,0.137,0.043c0.113,0.044,0.136,0.054,0.136,0.054c0.112,0.054,0.135,0.065,0.135,0.065
			c0.111,0.062,0.134,0.076,0.134,0.076c0.111,0.071,0.155,0.101,0.155,0.101c0.088,0.063,0.132,0.097,0.132,0.097
			c0.087,0.069,0.131,0.106,0.131,0.106c0.087,0.075,0.13,0.114,0.13,0.114c1.574,1.514,2.593,3.754,4.265,5.091
			c0.107,0.083,0.16,0.123,0.16,0.123c0.108,0.078,0.163,0.115,0.163,0.115c0.11,0.072,0.167,0.108,0.167,0.108
			c0.115,0.068,0.172,0.101,0.172,0.101c0.117,0.062,0.175,0.092,0.175,0.092c0.118,0.057,0.178,0.084,0.178,0.084
			c0.12,0.052,0.181,0.076,0.181,0.076c0.122,0.047,0.183,0.069,0.183,0.069c0.898,0.31,1.716,0.376,2.633,0.429
			c1.184,0.065,2.544,0.072,3.691,0.357c1.039,0.23,2.03,0.762,2.793,1.353c2.771,2.167,4.745,5.349,7.109,7.907
			c0.669,0.731,1.513,1.543,2.325,2.059c1.065,0.692,2.235,1.046,3.4,1.05c1.189,0.003,2.24-0.32,3.228-0.786
			c0.23,0.454,0.496,0.823,0.761,1.12c0.114,0.124,0.153,0.164,0.153,0.164c1.111,1.117,2.446,1.574,3.893,1.831
			c0.557,0.093,1.134,0.146,1.698,0.168c0.213,0.008,0.461,0.013,0.674,0.013c0,0,16.247,0,16.247,0h41.737l0.374-0.002
			c0.432-0.005,0.966-0.023,1.398-0.051c1.128-0.072,2.422-0.247,3.445-0.64c0.285-0.11,0.502-0.217,0.682-0.319
			c0.12-0.071,0.158-0.095,0.158-0.095c0.112-0.074,0.148-0.099,0.148-0.099c0.105-0.077,0.138-0.104,0.138-0.104
			c0.097-0.081,0.128-0.108,0.128-0.108c0.118-0.112,0.146-0.141,0.146-0.141c0.106-0.118,0.131-0.148,0.131-0.148
			c0.094-0.123,0.115-0.154,0.115-0.154c0.072-0.112,0.081-0.128,0.081-0.128c0.063-0.116,0.071-0.133,0.071-0.133
			c0.686-1.51,0.852-3.07,0.818-4.69c-0.029-1.66-0.355-3.412-1.335-4.702c-0.095-0.123-0.144-0.184-0.144-0.184
			c-0.1-0.118-0.151-0.176-0.151-0.176c-0.105-0.114-0.159-0.169-0.159-0.169c-0.11-0.109-0.166-0.162-0.166-0.162
			c-0.115-0.104-0.173-0.155-0.173-0.155c-0.12-0.1-0.152-0.124-0.152-0.124c-0.867-0.653-1.713-0.988-2.667-1.352
			c-1.266-0.463-2.638-0.827-3.951-1.137c-3.749-0.914-7.691-1.297-11.511-0.609c-1.219,0.209-2.48,0.585-3.687,0.854
			c-1.878,0.43-3.831,0.796-5.748,0.992c-1.03,0.108-2.119,0.153-3.155,0.141c-4.157-0.042-9.153-0.495-13.32-0.836
			c1.64-0.95,3.377-1.994,4.777-3.273c1.922-1.72,3.453-3.883,4.919-5.991c0.864-1.276,3.106-4.679,3.977-5.871
			c0.384-0.528,0.914-1.22,1.352-1.659c0.112-0.11,0.167-0.161,0.167-0.161c0.108-0.096,0.134-0.118,0.134-0.118
			c0.104-0.083,0.129-0.102,0.129-0.102c0.124-0.086,0.148-0.101,0.148-0.101c0.117-0.066,0.14-0.077,0.14-0.077
			c0.111-0.045,0.132-0.052,0.132-0.052c0.119-0.025,0.124-0.026,0.124-0.026c0.122,0,0.128,0,0.128,0
			c0.115,0.024,0.125,0.027,0.125,0.027c0.118,0.048,0.128,0.053,0.128,0.053c0.176,0.097,0.24,0.147,0.334,0.208
			c0.111,0.068,0.13,0.078,0.13,0.078c0.115,0.055,0.124,0.058,0.124,0.058c0.12,0.034,0.125,0.035,0.125,0.035
			c0.122,0.008,0.128,0.008,0.128,0.008c0.121-0.019,0.135-0.023,0.135-0.023c0.122-0.044,0.138-0.051,0.138-0.051
			c0.112-0.058,0.129-0.068,0.129-0.068c0.117-0.077,0.135-0.089,0.135-0.089c0.105-0.08,0.14-0.109,0.14-0.109
			c0.109-0.095,0.145-0.129,0.145-0.129c0.112-0.109,0.15-0.148,0.15-0.148c0.879-0.95,1.416-1.871,2.054-2.93
			c0.909-1.562,1.776-3.285,2.549-4.919c2.945-2.02,6.109-3.789,9.369-5.248c2.942-1.309,6.035-2.403,9.188-3.075
			c1.492-0.317,3.053-0.531,4.573-0.658c1.98-0.191,6.611-0.253,8.646-0.318c5.974-0.118,13.782-2.052,19.689-3.103
			c5.595-1.029,12.06-1.456,17.761-1.814c0.137,1.357,0.406,2.879,1.106,4.015c0.078,0.121,0.098,0.15,0.098,0.15
			c0.081,0.114,0.102,0.142,0.102,0.142c0.084,0.107,0.106,0.133,0.106,0.133c0.087,0.101,0.109,0.125,0.109,0.125
			c0.113,0.117,0.136,0.139,0.136,0.139c0.118,0.107,0.142,0.127,0.142,0.127c0.17,0.136,0.238,0.178,0.289,0.217
			c0.12,0.096,0.15,0.121,0.15,0.121c0.118,0.107,0.147,0.136,0.147,0.136c0.115,0.119,0.143,0.15,0.143,0.15
			c0.085,0.097,0.112,0.13,0.112,0.13c0.083,0.104,0.111,0.139,0.111,0.139c0.082,0.11,0.109,0.148,0.109,0.148
			c0.644,0.948,0.964,1.893,1.269,2.897c0.497,1.659,0.698,3.35,1.02,5.038c0.514,2.516,1.382,5.328,3.255,7.111
			c0.074,0.084,0.111,0.127,0.111,0.127c0.073,0.089,0.11,0.135,0.11,0.135c0.642,0.851,0.97,1.648,1.326,2.603
			c0.389,1.088,0.684,2.251,0.926,3.381c0.914,4.184,1.001,8.566,2.051,12.723c0.3,1.183,0.657,2.379,1.225,3.464
			c0.155,0.291,0.287,0.497,0.402,0.663c0.069,0.096,0.104,0.143,0.104,0.143c0.07,0.09,0.105,0.134,0.105,0.134
			c0.071,0.084,0.107,0.125,0.107,0.125c0.108,0.116,0.145,0.152,0.145,0.152c0.11,0.104,0.129,0.12,0.129,0.12
			c0.112,0.093,0.131,0.108,0.131,0.108c1.891,1.356,3.631,2.999,5.289,4.627c0.554,0.555,1.307,1.347,1.889,1.784
			c0.627,0.489,1.319,0.911,2.035,1.256c1.448,0.698,3.026,1.114,4.612,1.35c1.262,0.188,2.576,0.263,3.852,0.265
			c2.783-0.049,18.685,0.133,21.13-0.141c1.646-0.153,3.429-0.38,4.919-1.101c0.117-0.061,0.174-0.091,0.174-0.091
			c0.111-0.063,0.164-0.095,0.164-0.095c0.104-0.065,0.155-0.098,0.155-0.098c0.098-0.067,0.145-0.101,0.145-0.101
			c0.091-0.069,0.135-0.104,0.135-0.104c0.105-0.09,0.125-0.108,0.125-0.108c0.116-0.111,0.134-0.13,0.134-0.13
			c0.104-0.115,0.121-0.134,0.121-0.134c0.093-0.118,0.107-0.139,0.107-0.139c0.082-0.122,0.094-0.143,0.094-0.143
			c0.059-0.105,0.07-0.126,0.07-0.126c0.051-0.108,0.06-0.129,0.06-0.129c0.043-0.11,0.051-0.133,0.051-0.133
			c0.035-0.113,0.041-0.136,0.041-0.136c0.602-2.526-0.159-5.041-1.238-7.243c-0.481-0.945-1.076-1.756-1.776-2.397
			c-0.761-0.7-1.657-1.172-2.551-1.427c-1.467-0.383-2.908-0.441-4.405-0.455c-1.353,0.001-2.786,0.097-4.132,0.234
			c-1.341,0.143-2.789,0.348-4.135,0.442c-1.613,0.099-3.417,0.202-4.963-0.231c-0.105-0.034-0.14-0.045-0.14-0.045
			c-0.1-0.036-0.132-0.048-0.132-0.048c-0.095-0.039-0.127-0.052-0.127-0.052c-0.124-0.057-0.154-0.072-0.154-0.072
			c-0.12-0.063-0.149-0.079-0.149-0.079c-0.116-0.069-0.144-0.086-0.144-0.086c-0.112-0.074-0.14-0.094-0.14-0.094
			c-0.108-0.08-0.135-0.101-0.135-0.101c-0.104-0.086-0.13-0.109-0.13-0.109c-0.101-0.092-0.125-0.116-0.125-0.116
			c-0.12-0.124-0.144-0.149-0.144-0.149c-0.092-0.105-0.115-0.132-0.115-0.132c-0.088-0.111-0.11-0.14-0.11-0.14
			c-0.084-0.117-0.105-0.147-0.105-0.147c-0.446-0.652-0.669-1.381-0.823-2.062c-0.263-1.161-0.227-2.254-0.065-3.335
			c0.153-1.021,0.422-2.045,0.736-3.028c0.288-0.898,0.637-1.821,0.999-2.692c2.618-6.097,5.869-12.708,8.745-18.693
			c1.455-3.071,3.391-7.334,4.713-10.461c0.243-0.575,0.531-1.223,0.804-1.785c0.443-0.912,1.026-1.988,1.641-2.728
			c0.101-0.118,0.135-0.156,0.135-0.156c0.1-0.108,0.133-0.142,0.133-0.142c0.098-0.097,0.131-0.128,0.131-0.128
			c0.097-0.087,0.129-0.114,0.129-0.114c0.096-0.076,0.127-0.1,0.127-0.1c0.11-0.076,0.125-0.086,0.125-0.086
			c0.123-0.071,0.139-0.079,0.139-0.079c0.121-0.056,0.136-0.061,0.136-0.061c0.119-0.04,0.134-0.044,0.134-0.044
			c0.117-0.024,0.132-0.026,0.132-0.026c0.115-0.008,0.129-0.008,0.129-0.008c0.113,0.008,0.127,0.01,0.127,0.01
			c0.111,0.024,0.125,0.028,0.125,0.028c0.122,0.046,0.136,0.052,0.136,0.052c0.12,0.063,0.147,0.077,0.147,0.077
			c0.109,0.052,0.137,0.064,0.137,0.064c0.112,0.045,0.141,0.055,0.141,0.055c0.115,0.038,0.144,0.046,0.144,0.046
			c0.118,0.031,0.148,0.037,0.148,0.037c0.121,0.024,0.151,0.029,0.151,0.029c0.124,0.016,0.155,0.02,0.155,0.02
			c0.095,0.008,0.126,0.009,0.126,0.009c0.096,0.003,0.129,0.004,0.129,0.004c0.098-0.001,0.131-0.002,0.131-0.002
			c0.1-0.005,0.133-0.008,0.133-0.008c0.101-0.01,0.136-0.013,0.136-0.013c0.103-0.014,0.138-0.019,0.138-0.019
			c0.105-0.018,0.14-0.025,0.14-0.025c0.708-0.14,1.351-0.452,1.902-0.765c1.813-1.026,3.041-2.513,4.222-4.12
			c1.26-1.737,2.354-3.667,3.385-5.549c0.939-1.623,1.935-3.428,3.208-4.794c0.094-0.093,0.125-0.122,0.125-0.122
			c0.12-0.109,0.149-0.135,0.149-0.135c0.115-0.093,0.143-0.114,0.143-0.114c0.109-0.077,0.136-0.094,0.136-0.094
			c0.116-0.067,0.129-0.074,0.129-0.074c0.122-0.053,0.134-0.058,0.134-0.058c0.114-0.031,0.125-0.033,0.125-0.033
			c0.117-0.008,0.127-0.008,0.127-0.008c0.119,0.015,0.129,0.016,0.129,0.016c0.114,0.003,0.125,0.002,0.125,0.002
			c0.121-0.013,0.132-0.015,0.132-0.015c0.104-0.023,0.127-0.03,0.127-0.03c0.121-0.04,0.146-0.049,0.146-0.049
			c0.101-0.043,0.127-0.054,0.127-0.054c0.105-0.052,0.132-0.067,0.132-0.067c0.109-0.062,0.137-0.079,0.137-0.079
			c0.113-0.072,0.171-0.111,0.171-0.111c0.118-0.084,0.178-0.128,0.178-0.128c1.351-1.067,2.278-2.423,3.337-3.742
			c1.317-1.62,2.838-3.12,4.413-4.491c1.53-1.351,3.277-2.577,4.847-3.879c2.38-1.98,4.664-4.207,6.787-6.46
			c1.882-1.996,3.752-4.109,5.334-6.353c2.871-4.014,5.212-8.459,7.186-12.977c1.654-0.102,3.339-0.393,4.959-0.74
			c3.661-0.779,10.461-2.839,14.137-3.787c7.262-1.912,18.04-3.875,25.242-5.968c2.373-0.691,4.809-1.489,7.075-2.475
			c1.791-0.778,3.529-1.723,5.144-2.821c2.075-1.402,3.989-3.107,5.769-4.865L685.44,340.531z"/>
	</g>
</g>
</svg>
