<?xml version="1.0" encoding="utf-8"?>
<!-- Generator: Adobe Illustrator 24.2.1, SVG Export Plug-In . SVG Version: 6.00 Build 0)  -->
<!DOCTYPE svg PUBLIC "-//W3C//DTD SVG 1.1//EN" "http://www.w3.org/Graphics/SVG/1.1/DTD/svg11.dtd" [
	<!ENTITY ns_flows "http://ns.adobe.com/Flows/1.0/">
	<!ENTITY ns_extend "http://ns.adobe.com/Extensibility/1.0/">
	<!ENTITY ns_ai "http://ns.adobe.com/AdobeIllustrator/10.0/">
	<!ENTITY ns_graphs "http://ns.adobe.com/Graphs/1.0/">
	<!ENTITY ns_vars "http://ns.adobe.com/Variables/1.0/">
	<!ENTITY ns_imrep "http://ns.adobe.com/ImageReplacement/1.0/">
	<!ENTITY ns_sfw "http://ns.adobe.com/SaveForWeb/1.0/">
	<!ENTITY ns_custom "http://ns.adobe.com/GenericCustomNamespace/1.0/">
	<!ENTITY ns_adobe_xpath "http://ns.adobe.com/XPath/1.0/">
]>
<svg version="1.1" xmlns:x="&ns_extend;" xmlns:i="&ns_ai;" xmlns:graph="&ns_graphs;"
	 xmlns="http://www.w3.org/2000/svg" xmlns:xlink="http://www.w3.org/1999/xlink" xmlns:a="http://ns.adobe.com/AdobeSVGViewerExtensions/3.0/"
	 x="0px" y="0px" width="750px" height="750px" viewBox="0 0 750 750" enable-background="new 0 0 750 750" xml:space="preserve">
<metadata>
	<sfw  xmlns="&ns_sfw;">
		<slices></slices>
		<sliceSourceBounds  bottomLeftOrigin="true" height="12677.386" width="8058.342" x="-3961.342" y="-5120"></sliceSourceBounds>
	</sfw>
</metadata>
<g id="FILL-BACKGROUND">
	<rect fill="#FFFFFF" width="750" height="750"/>
</g>
<g id="N-TEXT">
</g>
<g id="N-DIMENSIONS">
</g>
<g id="AG-DETAIL-DIAGRAM">
</g>
<g id="AG-DIAGRAM">
	<g id="POLYLINE_554_">
		<g>
			<g>
				
					<line fill="none" stroke="#FB8604" stroke-width="3.25" stroke-linecap="round" stroke-linejoin="round" x1="179.566" y1="551.031" x2="181.566" y2="551.031"/>
				
					<line fill="none" stroke="#FB8604" stroke-width="3.25" stroke-linecap="round" stroke-linejoin="round" stroke-dasharray="3.9779,6.9613" x1="188.528" y1="551.031" x2="513.221" y2="551.031"/>
				
					<line fill="none" stroke="#FB8604" stroke-width="3.25" stroke-linecap="round" stroke-linejoin="round" x1="516.702" y1="551.031" x2="518.702" y2="551.031"/>
			</g>
		</g>
	</g>
</g>
<g id="AG-DETAILS">
</g>
<g id="X-VPRT">
</g>
<g id="AG-ANIMALS">
	<g id="POLYLINE_611_">
		
			<path fill="none" stroke="#FB8604" stroke-width="2.75" stroke-linecap="round" stroke-linejoin="round" stroke-miterlimit="10" d="
			M427.956,473.125c1.821,19.183,4.42,41.122,3.834,60.286c-0.022,2.027,0.057,4.094,0.444,6.088
			c0.29,1.471,0.794,3.061,1.756,4.212c1.829,2.108,4.077,3.838,6.495,5.217c1.366,0.744,2.889,1.126,4.405,1.416
			c3.093,0.561,6.317,0.674,9.457,0.686c3.392-0.035,22.186,0.097,25.204-0.107c1.421-0.077,2.889-0.193,4.292-0.433
			c0.997-0.183,2.103-0.41,2.946-0.96c0.053-0.038,0.071-0.05,0.071-0.05c0.05-0.038,0.066-0.051,0.066-0.051
			c0.062-0.052,0.077-0.065,0.077-0.065c0.043-0.04,0.071-0.067,0.071-0.067c0.055-0.056,0.082-0.084,0.082-0.084
			c0.053-0.059,0.08-0.089,0.08-0.089c0.673-0.823,0.915-1.805,1.104-2.811c0.242-1.42,0.269-2.888,0.236-4.325
			c-0.032-3.682-1.076-7.154-4.882-8.389c-4.367-1.226-9.208-2.151-13.655-3.06c-1.934-0.431-3.913-0.93-5.737-1.712
			c-0.61-0.267-1.228-0.577-1.77-0.965c-0.399-0.294-0.703-0.667-0.961-1.022c-0.965-1.392-1.537-3.014-2.054-4.614
			c-0.761-2.48-1.355-5.081-1.765-7.642c-0.882-5.643-0.842-11.439-0.286-17.115c0.875-9.524,0.956-20.751,1.067-30.349"/>
	</g>
	<g id="POLYLINE_610_">
		
			<path fill="none" stroke="#FB8604" stroke-width="2.75" stroke-linecap="round" stroke-linejoin="round" stroke-miterlimit="10" d="
			M387.773,358.991c-0.681,3.728-1.218,7.609-1.401,11.395c-0.316,6.894,0.238,13.923,1.097,20.763
			c0.36,2.609,0.771,5.335,1.459,7.876c0.272,0.936,0.563,1.956,1.114,2.761c0.045,0.061,0.068,0.09,0.068,0.09
			c0.046,0.055,0.069,0.081,0.069,0.081c0.046,0.049,0.069,0.073,0.069,0.073c0.046,0.044,0.069,0.064,0.069,0.064
			c0.047,0.038,0.07,0.055,0.07,0.055c0.047,0.032,0.07,0.046,0.07,0.046c0.047,0.025,0.071,0.037,0.071,0.037
			c0.047,0.019,0.071,0.027,0.071,0.027c0.064,0.016,0.071,0.018,0.071,0.018c0.064,0.009,0.071,0.009,0.071,0.009
			c0.057,0.002,0.064,0.002,0.064,0.002c0.05-0.003,0.065-0.004,0.065-0.004c0.058-0.008,0.072-0.01,0.072-0.01
			c0.058-0.012,0.073-0.016,0.073-0.016c0.059-0.016,0.073-0.021,0.073-0.021c0.059-0.019,0.088-0.03,0.088-0.03
			c0.059-0.022,0.421-0.17,0.421-0.17c0.061-0.023,0.092-0.034,0.092-0.034c0.062-0.021,0.093-0.03,0.093-0.03
			c0.062-0.017,0.078-0.021,0.078-0.021c0.063-0.014,0.079-0.017,0.079-0.017c0.063-0.01,0.079-0.011,0.079-0.011
			c0.064-0.005,0.08-0.005,0.08-0.005c0.064,0.001,0.072,0.001,0.072,0.001c0.056,0.005,0.065,0.006,0.065,0.006
			c0.057,0.01,0.065,0.012,0.065,0.012c0.057,0.015,0.065,0.018,0.065,0.018c0.057,0.02,0.066,0.024,0.066,0.024
			c0.058,0.026,0.066,0.03,0.066,0.03c0.058,0.032,0.086,0.05,0.086,0.05c0.056,0.039,0.084,0.06,0.084,0.06
			c0.057,0.046,0.085,0.072,0.085,0.072c0.057,0.054,0.086,0.083,0.086,0.083c0.529,0.581,0.809,1.221,1.132,1.904
			c1.453,3.331,2.999,8.939,4.139,12.448c0.489,1.492,1.016,3.071,1.65,4.507c0.332,0.728,0.735,1.578,1.314,2.11
			c0.047,0.042,0.07,0.062,0.07,0.062c0.386,0.331,0.793,0.467,1.227,0.644c1.153,0.437,1.727,1.485,2.268,2.483
			c2.004,3.893,4.382,11.481,5.928,15.662c0.78,2.054,1.547,4.299,2.672,6.189c0.261,0.424,0.586,0.821,0.935,1.095
			c0.372,0.306,0.806,0.487,1.156,0.773c0.058,0.048,0.078,0.064,0.078,0.064c0.058,0.051,0.078,0.069,0.078,0.069
			c0.058,0.056,0.078,0.075,0.078,0.075c0.452,0.463,0.681,0.937,0.943,1.484c0.397,0.862,0.742,1.837,1.052,2.737l2.819,8.757
			c0.723,2.089,1.505,4.232,2.543,6.186c0.593,1.086,1.331,2.282,2.346,2.982c1.596,1.115,3.566,0.494,5.288,0.154
			c0.789-0.161,1.704-0.242,2.471-0.09c1.575,0.286,3.149,1.11,4.695,1.508c1.496,0.421,3.045,0.461,4.577,0.242
			c1.647-0.224,3.285-0.676,4.859-1.204c2.12-0.721,4.21-1.622,6.209-2.629c2.213-1.14,4.507-2.376,6.07-4.369
			c0.987-1.254,1.608-2.756,2.079-4.269c0.36-1.159,0.65-2.427,0.897-3.617c0.679-3.443,1.595-8.966,2.493-12.314
			c0.588-2.264,1.316-4.545,2.249-6.692c0.821-1.891,1.837-3.746,2.939-5.487c2.424-3.828,5.486-7.536,8.365-11.036
			c3.532-4.253,7.539-8.94,11.397-12.89c3.99-4.056,8.244-8.011,13.137-10.959c2.683-1.605,5.612-2.822,8.571-3.817l7.593-2.421
			c6.892-2.245,13.229-5.993,18.988-10.352c6.082-4.611,11.58-10.106,15.62-16.613c4.27-6.689,7.479-15.22,11.422-22.099
			c1.54-2.649,3.255-5.289,5.562-7.337c1.424-1.267,3.075-2.281,4.831-3.017c2.506-1.057,5.234-1.602,7.902-2.073
			c5.136-0.833,12.312-1.778,17.227-3.221c5.9-1.649,13.211-4.578,19.151-6.028c5.696-1.46,12.23-1.457,17.403-4.528
			c2.854-1.674,5.149-4.16,7.102-6.8c3.218-4.414,5.629-9.42,7.438-14.563"/>
	</g>
	<g id="POLYLINE_609_">
		
			<path fill="none" stroke="#FB8604" stroke-width="2.75" stroke-linecap="round" stroke-linejoin="round" stroke-miterlimit="10" d="
			M179.096,479.797c-0.261,5.661,0.291,11.388,1.671,16.885c0.415,1.65,0.927,3.375,1.483,4.983
			c2.693,7.427,8.117,21.178,11.007,28.588c2.014,4.965,4.13,10.369,6.652,15.085c0.569,1.026,1.185,2.124,1.954,3.007
			c0.979,1.069,2.278,1.578,3.62,1.96c1.922,0.515,3.942,0.669,5.926,0.717c9.914-0.018,27.487,0.085,37.408-0.037
			c1.25-0.085,2.518-0.268,3.691-0.724c0.868-0.326,1.761-0.919,2.269-1.658c0.498-0.705,0.68-1.444,0.723-2.268
			c0.025-0.492-0.04-1.035-0.07-1.527c-0.09-1.083-0.236-2.187-0.458-3.251c-0.459-2.272-1.352-4.479-2.758-6.333
			c-0.642-0.844-1.477-1.648-2.443-1.977c-0.463-0.147-0.914-0.194-1.389-0.242c-6.039-0.384-12.163,0.714-18.204,0.489
			c-1.991-0.071-4.021-0.217-5.949-0.749c-2.495-0.707-4.345-2.743-5.813-4.784c-1.646-2.339-2.928-4.944-4.06-7.564
			c-1.998-4.677-3.372-9.657-4.222-14.668c-0.423-2.569-0.714-5.205-0.603-7.811c0.079-1.652,0.318-3.327,0.953-4.863"/>
	</g>
	<g id="POLYLINE_608_">
		
			<path fill="none" stroke="#FB8604" stroke-width="2.75" stroke-linecap="round" stroke-linejoin="round" stroke-miterlimit="10" d="
			M532.074,227.614c-10.472,1.269-20.573,5.117-29.437,10.802c-3.091,1.983-6.096,4.201-8.801,6.688
			c-1.7,1.524-3.495,3.628-5.013,5.345c-1.405,1.576-2.97,3.046-4.763,4.171c-1.711,1.086-3.591,1.927-5.484,2.641
			c-2.582,0.966-5.325,1.711-8.023,2.278c-5.396,1.106-10.982,1.619-16.484,1.245c-4.022-0.278-8.057-1.107-11.958-2.108
			c-3.673-0.958-10.091-2.822-13.741-3.434c-2.318-0.413-4.746-0.646-7.095-0.777c-6.79-0.317-14.821-0.248-21.493-1.469
			c-3.674-0.63-7.479-1.561-11.072-2.555c-8.435-2.335-25.141-8.031-33.638-10.776c-8.952-2.814-18.353-5.319-27.571-7.077
			c-4.969-0.918-10.109-1.744-15.162-1.904c-1.614-0.037-3.264-0.013-4.859,0.255c-1.524,0.239-3.129,0.847-4.587,1.351
			c-3.334,1.184-6.955,1.365-10.46,1.54l-19.271,0.609c-8.182,0.42-16.528,1.156-24.477,3.197
			c-4.523,1.167-8.954,2.841-13.143,4.906c-6.405,3.145-12.366,7.265-17.946,11.693c-6.559,5.347-20.638,17.189-26.904,22.842
			c-8.341,7.602-15.875,16.258-21.989,25.753c-0.898,1.436-1.818,2.967-2.533,4.504c-0.371,0.831-0.782,1.742-0.823,2.646
			c0,0.036,0.001,0.072,0.001,0.072c0.001,0.035,0.003,0.069,0.003,0.069c0.003,0.033,0.006,0.066,0.006,0.066
			c0.009,0.063,0.015,0.093,0.015,0.093c0.013,0.059,0.021,0.087,0.021,0.087c0.018,0.054,0.022,0.067,0.022,0.067
			c0.026,0.061,0.032,0.072,0.032,0.072c0.031,0.056,0.037,0.066,0.037,0.066c0.042,0.061,0.05,0.071,0.05,0.071
			c0.047,0.056,0.056,0.064,0.056,0.064c0.06,0.059,0.069,0.067,0.069,0.067c0.046,0.039,0.065,0.054,0.065,0.054
			c0.058,0.043,0.078,0.057,0.078,0.057c0.06,0.041,0.261,0.17,0.261,0.17c0.059,0.039,0.078,0.053,0.078,0.053
			c0.056,0.041,0.074,0.055,0.074,0.055c0.061,0.051,0.069,0.059,0.069,0.059c0.063,0.064,0.07,0.072,0.07,0.072
			c0.048,0.062,0.054,0.071,0.054,0.071c0.037,0.064,0.04,0.069,0.04,0.069c0.025,0.057,0.03,0.072,0.03,0.072
			c0.019,0.063,0.023,0.079,0.023,0.079c0.01,0.051,0.012,0.068,0.012,0.068c0.006,0.054,0.008,0.072,0.008,0.072
			c0.002,0.057,0.003,0.076,0.003,0.076c-0.001,0.06-0.002,0.08-0.002,0.08c-0.005,0.062-0.007,0.084-0.007,0.084
			c-0.005,0.043-0.009,0.065-0.009,0.065c-0.135,0.756-0.55,1.396-0.947,1.974c-0.581,0.812-1.282,1.548-2.031,2.205
			c-1.303,1.138-2.8,2.067-4.393,2.741c-1.636,0.688-3.392,1.111-5.136,1.418c-4.213,0.753-9.812,0.839-14.071,1.359
			c-1.1,0.144-2.228,0.329-3.295,0.637c-1.025,0.296-2.15,0.769-2.856,1.541c-1.18,1.279-1.141,3.083-0.789,4.666
			c0.36,1.583,1.029,3.09,1.778,4.524c2.795,5.355,7.713,10.732,11.414,15.5c1.004,1.306,1.991,2.68,2.763,4.139
			c0.852,1.556,1.599,3.721,2.225,5.383c0.523,4.091,1.437,8.192,3.073,11.99c2.334,5.395,6.336,10.832,9.253,15.928
			c4.31,7.196,9.347,19.449,12.873,27.174c1.097,2.325,2.304,4.873,3.64,7.059c0.651,1.031,1.383,2.186,2.347,2.925
			c0.046,0.033,0.091,0.064,0.091,0.064c0.045,0.03,0.09,0.058,0.09,0.058c0.045,0.027,0.089,0.053,0.089,0.053
			c0.05,0.027,0.075,0.04,0.075,0.04c0.049,0.024,0.074,0.036,0.074,0.036c0.049,0.022,0.073,0.032,0.073,0.032
			c0.049,0.019,0.073,0.028,0.073,0.028c0.048,0.017,0.072,0.025,0.072,0.025c0.048,0.015,0.072,0.022,0.072,0.022
			c0.047,0.013,0.071,0.019,0.071,0.019c0.047,0.011,0.07,0.016,0.07,0.016c0.269,0.053,0.489,0.05,0.722,0.039l0.431-0.027
			c0.105-0.006,0.265-0.008,0.338-0.004c0.063,0.004,0.084,0.005,0.084,0.005c0.063,0.006,0.084,0.009,0.084,0.009
			c0.063,0.009,0.084,0.013,0.084,0.013c0.063,0.012,0.084,0.017,0.084,0.017c0.063,0.016,0.084,0.022,0.084,0.022
			c0.063,0.02,0.084,0.027,0.084,0.027c0.063,0.024,0.084,0.033,0.084,0.033c0.063,0.029,0.084,0.039,0.084,0.039
			c0.063,0.033,0.084,0.045,0.084,0.045c0.047,0.028,0.07,0.043,0.07,0.043c0.047,0.031,0.07,0.048,0.07,0.048
			c0.047,0.035,0.071,0.053,0.071,0.053c0.047,0.038,0.071,0.057,0.071,0.057c0.446,0.39,0.705,0.783,1,1.241
			c0.336,0.542,0.636,1.129,0.906,1.705c1.358,2.913,2.474,6.603,3.465,9.681c0.714,2.353,1.666,4.85,1.171,7.339
			c-0.188,0.993-0.574,1.947-1.019,2.851c-1.564,3.164-4.971,7.701-6.938,10.681c-2.731,4.105-5.276,8.455-6.822,13.157
			c-0.594,1.901-1.104,3.943-0.852,5.945c0.107,0.792,0.38,1.549,0.863,2.13c0.442,0.546,1.074,0.889,1.685,1.094
			c2.011,0.66,4.354,0.607,6.284,1.522c1.165,0.542,2.001,1.477,2.697,2.516c1.251,1.827,2.096,4.267,3.663,5.843
			c0.524,0.513,1.093,0.851,1.749,1.025c1.038,0.267,2.063,0.17,3.099,0.004c1.927-0.316,4.373-1.173,6.281-1.602
			c1.229-0.259,2.697-0.548,3.861,0.019c1.399,0.723,1.913,2.289,2.933,3.374c0.062,0.062,0.093,0.092,0.093,0.092
			c0.097,0.09,0.111,0.101,0.16,0.141c0.049,0.039,0.066,0.052,0.066,0.052c0.05,0.037,0.067,0.049,0.067,0.049
			c0.051,0.035,0.068,0.046,0.068,0.046c0.052,0.032,0.069,0.043,0.069,0.043c0.053,0.03,0.071,0.039,0.071,0.039
			c0.054,0.027,0.072,0.036,0.072,0.036c0.055,0.025,0.074,0.032,0.074,0.032c0.056,0.022,0.075,0.029,0.075,0.029
			c0.057,0.019,0.077,0.025,0.077,0.025c0.059,0.016,0.078,0.021,0.078,0.021c0.06,0.013,0.08,0.017,0.08,0.017
			c0.061,0.01,0.082,0.013,0.082,0.013c0.045,0.005,0.091,0.009,0.091,0.009c0.046,0.003,0.093,0.004,0.093,0.004
			c0.047,0,0.095-0.001,0.095-0.001c0.048-0.002,0.098-0.006,0.098-0.006c0.05-0.005,0.1-0.01,0.1-0.01
			c0.051-0.007,0.102-0.015,0.102-0.015c0.052-0.009,0.104-0.02,0.104-0.02c0.053-0.012,0.106-0.024,0.106-0.024
			c1.087-0.303,1.921-0.924,2.796-1.571c1.476-1.14,2.886-2.498,4.217-3.805c3.698-3.675,9.429-9.955,13.506-13.043
			c1.861-1.428,3.927-2.611,6.066-3.569c1.875-0.851,4.3-1.768,6.133-2.7c1.274-0.641,2.518-1.391,3.668-2.235
			c2.946-2.178,5.477-4.999,7.932-7.704c2.336-2.613,5.701-6.568,8.195-8.973c0.735-0.704,1.522-1.411,2.35-2.004
			c0.599-0.426,1.311-0.851,1.991-1.015c0.052-0.012,0.104-0.023,0.104-0.023c0.052-0.01,0.103-0.019,0.103-0.019
			c0.051-0.008,0.101-0.014,0.101-0.014c0.05-0.005,0.099-0.009,0.099-0.009c0.133-0.009,0.242-0.006,0.33,0.002
			c0.064,0.006,0.085,0.009,0.085,0.009c0.063,0.009,0.084,0.012,0.084,0.012c0.062,0.011,0.083,0.016,0.083,0.016
			c0.061,0.014,0.082,0.019,0.082,0.019c0.061,0.016,0.081,0.022,0.081,0.022c0.06,0.018,0.08,0.025,0.08,0.025
			c0.867,0.297,1.521,1.015,2.197,1.587c0.539,0.475,1.205,0.944,1.883,1.113c0.728,0.188,1.444,0.101,2.127-0.059
			c0.704-0.173,1.386-0.451,2.034-0.774c2.26-1.151,4.24-2.809,6.019-4.602c2.475-2.527,4.587-5.459,5.981-8.72
			c2.421-5.583,2.663-11.819,2.298-17.814c-0.488-7.728-1.623-15.554-4.369-22.827c-1.159-3.12-2.807-6.175-4.475-9.053
			c-1.044-1.813-2.563-4.312-3.415-6.22c-0.304-0.688-0.581-1.409-0.728-2.148c-0.128-0.635-0.15-1.29-0.123-1.936
			c0.051-0.969,0.13-2.063,0.02-3.02c-0.104-0.981-0.358-1.956-0.655-2.895c-0.605-1.885-1.445-3.738-2.342-5.502
			c-1.352-2.634-2.944-5.22-4.644-7.643c-7.232-10.43-17.684-18.455-29.375-23.302"/>
	</g>
	<g id="POLYLINE_607_">
		
			<path fill="none" stroke="#FB8604" stroke-width="2.75" stroke-linecap="round" stroke-linejoin="round" stroke-miterlimit="10" d="
			M654.014,277.23c-2.412-12.72-15.709-22.404-26.264-28.592c-7.811-4.547-16.241-8.487-24.588-11.951
			c-3.414-1.401-6.973-2.806-10.595-3.552c-6.137-1.298-14.486-0.898-20.735-1.38c-7.415-0.399-15.292-2.531-22.605-3.719"/>
	</g>
	<g id="POLYLINE_603_">
		
			<path fill="none" stroke="#FB8604" stroke-width="2.75" stroke-linecap="round" stroke-linejoin="round" stroke-miterlimit="10" d="
			M651.801,295.984c-0.054,0.026-0.072,0.034-0.072,0.034c-0.055,0.023-0.073,0.03-0.073,0.03c-0.055,0.02-0.073,0.026-0.073,0.026
			c-0.055,0.017-0.074,0.023-0.074,0.023c-0.056,0.015-0.074,0.019-0.074,0.019c-0.056,0.012-0.075,0.015-0.075,0.015
			c-0.056,0.009-0.075,0.012-0.075,0.012c-0.057,0.006-0.075,0.008-0.075,0.008c-0.057,0.004-0.076,0.005-0.076,0.005
			c-0.057,0.001-0.076,0.001-0.076,0.001c-0.057-0.001-0.077-0.002-0.077-0.002c-0.058-0.004-0.077-0.006-0.077-0.006
			c-0.058-0.007-0.077-0.009-0.077-0.009c-0.058-0.009-0.078-0.012-0.078-0.012c-0.058-0.012-0.078-0.016-0.078-0.016
			c-0.059-0.014-0.078-0.019-0.078-0.019c-0.608-0.166-1.088-0.532-1.523-0.916c-0.509-0.461-0.957-0.996-1.365-1.546
			c-1.549-2.143-2.716-4.579-3.472-7.111c-0.305-1.059-0.535-2.155-0.589-3.258c-0.032-0.711,0.009-1.437,0.21-2.123
			c0.293-1.034,1.023-1.852,1.894-2.385c1.202-0.738,2.598-1.092,3.967-1.376c1.046-0.203,2.125-0.338,3.192-0.291
			c0.755,0.036,1.597,0.181,2.216,0.594c0.063,0.044,0.094,0.066,0.094,0.066c0.06,0.046,0.089,0.069,0.089,0.069
			c0.057,0.048,0.084,0.073,0.084,0.073c0.054,0.051,0.08,0.077,0.08,0.077c0.051,0.053,0.076,0.08,0.076,0.08
			c0.049,0.056,0.072,0.084,0.072,0.084c0.046,0.058,0.068,0.088,0.068,0.088c0.043,0.061,0.064,0.092,0.064,0.092
			c0.548,0.861,0.579,1.846,0.575,2.818c-0.037,1.472-0.279,3.02-0.511,4.475c-0.384,2.233-0.871,4.497-1.626,6.635
			c-0.393,1.072-0.863,2.214-1.597,3.092c-0.136,0.158-0.256,0.274-0.362,0.365c-0.049,0.041-0.074,0.061-0.074,0.061
			c-0.05,0.038-0.075,0.057-0.075,0.057c-0.05,0.036-0.076,0.053-0.076,0.053c-0.051,0.033-0.076,0.048-0.076,0.048
			C651.878,295.943,651.852,295.957,651.801,295.984z"/>
	</g>
	<g id="POLYLINE_592_">
		
			<path fill="none" stroke="#FB8604" stroke-width="2.75" stroke-linecap="round" stroke-linejoin="round" stroke-miterlimit="10" d="
			M533.101,257.919c-1.908-2.184-3.604-4.602-4.836-7.234c-0.992-2.125-1.683-4.426-1.794-6.778
			c-0.162-3.512,1.016-6.931,2.445-10.09c1.308-2.827,3.096-6.117,4.596-8.857c1.025-1.742,2.338-3.857,4.454-4.238
			c1.385-0.222,2.679,0.302,3.87,0.914c2.426,1.315,4.494,3.22,6.362,5.231c3.381,3.744,6.329,8.146,7.326,13.163
			c0.755,3.675,0.371,7.482-0.242,11.15"/>
	</g>
	<g id="POLYLINE_591_">
		
			<path fill="none" stroke="#FB8604" stroke-width="2.75" stroke-linecap="round" stroke-linejoin="round" stroke-miterlimit="10" d="
			M289.498,436.168c5.272,0.785,11.37,1.713,16.651,1.966c4.695,0.257,9.492,0.122,14.157-0.484
			c8.241-1.005,18.095-4.215,26.173-6.207c1.48-0.35,3.063-0.706,4.574-0.882c0.813-0.087,1.733-0.155,2.515,0.036
			c0.271,0.07,0.491,0.169,0.682,0.288c0.063,0.041,0.084,0.055,0.084,0.055c0.06,0.042,0.08,0.057,0.08,0.057
			c0.197,0.149,0.305,0.256,0.447,0.399l0.403,0.42c0.374,0.395,0.829,0.702,1.295,0.873c0.708,0.268,1.464,0.38,2.213,0.457
			c3.697,0.297,7.523-0.156,11.204-0.519c7.555-0.909,15.895-1.838,23.326-3.362c3.758-0.791,7.557-1.751,11.086-3.288"/>
	</g>
</g>
<g id="AG-OUTLINE">
	<g id="POLYLINE_565_">
		
			<path fill="none" stroke="#FB8604" stroke-width="3.5" stroke-linecap="round" stroke-linejoin="round" stroke-miterlimit="10" d="
			M549.227,228.037c-2.019-2.358-4.289-4.591-6.978-6.172c-1.064-0.601-2.227-1.129-3.464-1.193
			c-0.74-0.042-1.517,0.175-2.107,0.531c-0.841,0.506-1.413,1.16-1.972,1.899c-0.961,1.278-1.867,3.099-2.633,4.512
			c-10.472,1.269-20.573,5.117-29.437,10.802c-3.091,1.983-6.096,4.201-8.801,6.688c-1.7,1.524-3.495,3.628-5.013,5.345
			c-1.405,1.576-2.97,3.046-4.763,4.171c-1.711,1.086-3.591,1.927-5.484,2.641c-2.582,0.966-5.325,1.711-8.023,2.278
			c-5.396,1.106-10.982,1.619-16.484,1.245c-4.022-0.278-8.057-1.107-11.958-2.108c-3.673-0.958-10.091-2.822-13.741-3.434
			c-2.318-0.413-4.746-0.646-7.095-0.777c-6.79-0.317-14.821-0.248-21.493-1.469c-3.674-0.63-7.479-1.561-11.072-2.555
			c-8.435-2.335-25.141-8.031-33.638-10.776c-8.952-2.814-18.353-5.319-27.571-7.077c-4.969-0.918-10.109-1.744-15.162-1.904
			c-1.614-0.037-3.264-0.013-4.859,0.255c-1.524,0.239-3.129,0.847-4.587,1.351c-3.334,1.184-6.955,1.365-10.46,1.54l-19.271,0.609
			c-8.182,0.42-16.528,1.156-24.477,3.197c-4.523,1.167-8.954,2.841-13.143,4.906c-6.405,3.145-12.366,7.265-17.946,11.693
			c-6.559,5.347-20.638,17.189-26.904,22.842c-8.341,7.602-15.875,16.258-21.989,25.753c-0.898,1.436-1.818,2.967-2.533,4.504
			c-0.371,0.831-0.782,1.742-0.823,2.646c0,0.036,0.001,0.072,0.001,0.072c0.001,0.035,0.003,0.069,0.003,0.069
			c0.003,0.033,0.006,0.066,0.006,0.066c0.009,0.063,0.015,0.093,0.015,0.093c0.013,0.059,0.021,0.087,0.021,0.087
			c0.018,0.054,0.022,0.067,0.022,0.067c0.026,0.061,0.032,0.072,0.032,0.072c0.031,0.056,0.037,0.066,0.037,0.066
			c0.042,0.061,0.05,0.071,0.05,0.071c0.047,0.056,0.056,0.064,0.056,0.064c0.06,0.059,0.069,0.067,0.069,0.067
			c0.046,0.039,0.065,0.054,0.065,0.054c0.058,0.043,0.078,0.057,0.078,0.057c0.06,0.041,0.261,0.17,0.261,0.17
			c0.059,0.039,0.078,0.053,0.078,0.053c0.056,0.041,0.074,0.055,0.074,0.055c0.061,0.051,0.069,0.059,0.069,0.059
			c0.063,0.064,0.07,0.072,0.07,0.072c0.048,0.062,0.054,0.071,0.054,0.071c0.037,0.064,0.04,0.069,0.04,0.069
			c0.025,0.057,0.03,0.072,0.03,0.072c0.019,0.063,0.023,0.079,0.023,0.079c0.01,0.051,0.012,0.068,0.012,0.068
			c0.006,0.054,0.008,0.072,0.008,0.072c0.002,0.057,0.003,0.076,0.003,0.076c-0.001,0.06-0.002,0.08-0.002,0.08
			c-0.005,0.062-0.007,0.084-0.007,0.084c-0.005,0.043-0.009,0.065-0.009,0.065c-0.135,0.756-0.55,1.396-0.947,1.974
			c-0.581,0.812-1.282,1.548-2.031,2.205c-1.303,1.138-2.8,2.067-4.393,2.741c-1.636,0.688-3.392,1.111-5.136,1.418
			c-4.213,0.753-9.812,0.839-14.071,1.359c-1.1,0.144-2.228,0.329-3.295,0.637c-1.025,0.296-2.15,0.769-2.856,1.541
			c-1.18,1.279-1.141,3.083-0.789,4.666c0.36,1.583,1.029,3.09,1.778,4.524c2.795,5.355,7.713,10.732,11.414,15.5
			c1.004,1.306,1.991,2.68,2.763,4.139c0.852,1.556,1.599,3.721,2.225,5.383c0.523,4.091,1.437,8.192,3.073,11.99
			c2.334,5.395,6.336,10.832,9.253,15.928c4.31,7.196,9.347,19.449,12.873,27.174c1.097,2.325,2.304,4.873,3.64,7.059
			c0.651,1.031,1.383,2.186,2.347,2.925c0.046,0.033,0.091,0.064,0.091,0.064c0.045,0.03,0.09,0.058,0.09,0.058
			c0.045,0.027,0.089,0.053,0.089,0.053c0.05,0.027,0.075,0.04,0.075,0.04c0.049,0.024,0.074,0.036,0.074,0.036
			c0.049,0.022,0.073,0.032,0.073,0.032c0.049,0.019,0.073,0.028,0.073,0.028c0.048,0.017,0.072,0.025,0.072,0.025
			c0.048,0.015,0.072,0.022,0.072,0.022c0.047,0.013,0.071,0.019,0.071,0.019c0.047,0.011,0.07,0.016,0.07,0.016
			c0.269,0.053,0.489,0.05,0.722,0.039l0.431-0.027c0.105-0.006,0.265-0.008,0.338-0.004c0.063,0.004,0.084,0.005,0.084,0.005
			c0.063,0.006,0.084,0.009,0.084,0.009c0.063,0.009,0.084,0.013,0.084,0.013c0.063,0.012,0.084,0.017,0.084,0.017
			c0.063,0.016,0.084,0.022,0.084,0.022c0.063,0.02,0.084,0.027,0.084,0.027c0.063,0.024,0.084,0.033,0.084,0.033
			c0.063,0.029,0.084,0.039,0.084,0.039c0.063,0.033,0.084,0.045,0.084,0.045c0.047,0.028,0.07,0.043,0.07,0.043
			c0.047,0.031,0.07,0.048,0.07,0.048c0.047,0.035,0.071,0.053,0.071,0.053c0.047,0.038,0.071,0.057,0.071,0.057
			c0.446,0.39,0.705,0.783,1,1.241c0.336,0.542,0.636,1.129,0.906,1.705c1.358,2.913,2.474,6.603,3.465,9.681
			c0.714,2.353,1.666,4.85,1.171,7.339c-0.188,0.993-0.574,1.947-1.019,2.851c-1.564,3.164-4.971,7.701-6.938,10.681
			c-2.044,3.063-3.987,6.298-5.475,9.668c-0.827,1.883-1.562,3.846-1.982,5.863c-0.513,2.48-0.63,5.802,2.239,6.762
			c-0.261,5.661,0.291,11.388,1.671,16.885c0.415,1.65,0.927,3.375,1.483,4.983c2.693,7.427,8.117,21.178,11.007,28.588
			c2.014,4.965,4.13,10.369,6.652,15.085c0.569,1.026,1.185,2.124,1.954,3.007c0.979,1.069,2.278,1.578,3.62,1.96
			c1.922,0.515,3.942,0.669,5.926,0.717c9.914-0.018,27.487,0.085,37.408-0.037c1.25-0.085,2.518-0.268,3.691-0.724
			c0.868-0.326,1.761-0.919,2.269-1.658c0.498-0.705,0.68-1.444,0.723-2.268c0.025-0.492-0.04-1.035-0.07-1.527
			c-0.09-1.083-0.236-2.187-0.458-3.251c-0.459-2.272-1.352-4.479-2.758-6.333c-0.642-0.844-1.477-1.648-2.443-1.977
			c-0.463-0.147-0.914-0.194-1.389-0.242c-6.039-0.384-12.163,0.714-18.204,0.489c-1.991-0.071-4.021-0.217-5.949-0.749
			c-2.495-0.707-4.345-2.743-5.813-4.784c-1.646-2.339-2.928-4.944-4.06-7.564c-1.998-4.677-3.372-9.657-4.222-14.668
			c-0.423-2.569-0.714-5.205-0.603-7.811c0.079-1.652,0.318-3.327,0.953-4.863c0.048,0.019,0.072,0.028,0.072,0.028
			c0.049,0.017,0.073,0.025,0.073,0.025c0.05,0.014,0.075,0.021,0.075,0.021c0.051,0.012,0.077,0.017,0.077,0.017
			c0.084,0.016,0.105,0.017,0.15,0.022c0.046,0.004,0.092,0.007,0.092,0.007c0.047,0.001,0.094,0.002,0.094,0.002
			c0.048-0.001,0.096-0.003,0.096-0.003c0.049-0.003,0.099-0.008,0.099-0.008c0.05-0.006,0.101-0.013,0.101-0.013
			c0.051-0.008,0.103-0.017,0.103-0.017c0.052-0.01,0.105-0.022,0.105-0.022c1.104-0.288,1.969-0.933,2.849-1.584
			c1.476-1.14,2.886-2.498,4.217-3.805c3.698-3.675,9.429-9.955,13.506-13.043c1.861-1.428,3.927-2.611,6.066-3.569
			c1.875-0.851,4.3-1.768,6.133-2.7c1.274-0.641,2.518-1.391,3.668-2.235c2.946-2.178,5.477-4.999,7.932-7.704
			c2.336-2.613,5.701-6.568,8.195-8.973c0.735-0.704,1.522-1.411,2.35-2.004c0.599-0.426,1.311-0.851,1.991-1.015
			c0.052-0.012,0.104-0.023,0.104-0.023c0.052-0.01,0.103-0.019,0.103-0.019c0.051-0.008,0.101-0.014,0.101-0.014
			c0.05-0.005,0.099-0.009,0.099-0.009c0.133-0.009,0.242-0.006,0.33,0.002c0.064,0.006,0.085,0.009,0.085,0.009
			c0.063,0.009,0.084,0.012,0.084,0.012c0.062,0.011,0.083,0.016,0.083,0.016c0.061,0.014,0.082,0.019,0.082,0.019
			c0.061,0.016,0.081,0.022,0.081,0.022c0.06,0.018,0.08,0.025,0.08,0.025c0.867,0.297,1.521,1.015,2.197,1.587
			c0.608,0.536,1.364,1.053,2.152,1.17c0.886,0.137,1.697-0.041,2.512-0.308c1.043-0.356,2.028-0.893,2.953-1.488
			c1.999-1.305,3.79-2.934,5.39-4.7c1.79-1.988,3.362-4.204,4.531-6.614c5.272,0.785,11.37,1.713,16.651,1.966
			c4.695,0.257,9.492,0.122,14.157-0.484c8.241-1.005,18.095-4.215,26.173-6.207c1.48-0.35,3.063-0.706,4.574-0.882
			c0.813-0.087,1.733-0.155,2.515,0.036c0.271,0.07,0.491,0.169,0.682,0.288c0.063,0.041,0.084,0.055,0.084,0.055
			c0.06,0.042,0.08,0.057,0.08,0.057c0.197,0.149,0.305,0.256,0.447,0.399l0.403,0.42c0.374,0.395,0.829,0.702,1.295,0.873
			c0.708,0.268,1.464,0.38,2.213,0.457c3.697,0.297,7.523-0.156,11.204-0.519c7.555-0.909,15.895-1.838,23.326-3.362
			c3.758-0.791,7.557-1.751,11.086-3.288c0.647,1.142,1.185,2.419,1.681,3.635c2.014,4.971,4.188,12.327,6.387,17.198
			c0.369,0.77,0.794,1.641,1.375,2.256c0.441,0.487,1.014,0.709,1.498,1.086c0.058,0.048,0.078,0.064,0.078,0.064
			c0.058,0.051,0.078,0.069,0.078,0.069c0.058,0.056,0.078,0.075,0.078,0.075c0.452,0.463,0.681,0.937,0.943,1.484
			c0.397,0.862,0.742,1.837,1.052,2.737l2.819,8.757c0.842,2.408,1.723,4.88,3.051,7.068c0.53,0.85,1.212,1.753,2.064,2.241
			c0.772,0.452,1.626,0.548,2.464,0.477c1.821,19.183,4.42,41.122,3.834,60.286c-0.022,2.027,0.057,4.094,0.444,6.088
			c0.29,1.471,0.794,3.061,1.756,4.212c1.829,2.108,4.077,3.838,6.495,5.217c1.366,0.744,2.889,1.126,4.405,1.416
			c3.093,0.561,6.317,0.674,9.457,0.686c3.392-0.035,22.186,0.097,25.204-0.107c1.421-0.077,2.889-0.193,4.292-0.433
			c0.997-0.183,2.103-0.41,2.946-0.96c0.053-0.038,0.071-0.05,0.071-0.05c0.05-0.038,0.066-0.051,0.066-0.051
			c0.062-0.052,0.077-0.065,0.077-0.065c0.043-0.04,0.071-0.067,0.071-0.067c0.055-0.056,0.082-0.084,0.082-0.084
			c0.053-0.059,0.08-0.089,0.08-0.089c0.673-0.823,0.915-1.805,1.104-2.811c0.242-1.42,0.269-2.888,0.236-4.325
			c-0.032-3.682-1.076-7.154-4.882-8.389c-4.367-1.226-9.208-2.151-13.655-3.06c-1.934-0.431-3.913-0.93-5.737-1.712
			c-0.61-0.267-1.228-0.577-1.77-0.965c-0.399-0.294-0.703-0.667-0.961-1.022c-0.965-1.392-1.537-3.014-2.054-4.614
			c-0.761-2.48-1.355-5.081-1.765-7.642c-0.882-5.643-0.842-11.439-0.286-17.115c0.875-9.524,0.956-20.751,1.067-30.349
			c1.83-1.727,2.721-4.145,3.338-6.528c0.683-2.566,1.578-8.127,2.135-10.774c0.677-3.264,1.515-6.564,2.759-9.661
			c1.261-3.161,3.029-6.125,4.991-8.898c2.775-3.914,6.223-7.975,9.304-11.668c3.468-4.077,7.308-8.42,11.153-12.131
			c3.395-3.262,7.024-6.412,11.1-8.796c2.592-1.513,5.409-2.672,8.25-3.629l7.593-2.421c6.892-2.245,13.229-5.993,18.988-10.352
			c6.082-4.611,11.58-10.106,15.62-16.613c4.27-6.689,7.479-15.22,11.422-22.099c1.54-2.649,3.255-5.289,5.562-7.337
			c1.424-1.267,3.075-2.281,4.831-3.017c2.506-1.057,5.234-1.602,7.902-2.073c5.136-0.833,12.312-1.778,17.227-3.221
			c5.9-1.649,13.211-4.578,19.151-6.028c5.696-1.46,12.23-1.457,17.403-4.528c2.854-1.674,5.149-4.16,7.102-6.8
			c3.218-4.414,5.629-9.42,7.438-14.563c0.051-0.027,0.077-0.041,0.077-0.041c0.051-0.03,0.076-0.045,0.076-0.045
			c0.051-0.033,0.076-0.05,0.076-0.05c0.05-0.036,0.075-0.054,0.075-0.054c0.05-0.038,0.075-0.058,0.075-0.058
			c0.049-0.041,0.074-0.062,0.074-0.062c0.464-0.421,0.728-0.842,1.017-1.345c0.332-0.599,0.606-1.246,0.844-1.888
			c0.8-2.199,1.303-4.535,1.7-6.838c0.237-1.493,0.487-3.075,0.513-4.587c0.006-0.885-0.068-1.888-0.536-2.642
			c-0.041-0.063-0.062-0.094-0.062-0.094c-0.043-0.061-0.066-0.09-0.066-0.09c-0.046-0.058-0.07-0.087-0.07-0.087
			c-0.049-0.056-0.073-0.083-0.073-0.083c-0.051-0.053-0.078-0.079-0.078-0.079c-0.054-0.051-0.082-0.075-0.082-0.075
			c-0.057-0.048-0.086-0.072-0.086-0.072c-0.06-0.046-0.09-0.068-0.09-0.068c-0.061-0.042-0.092-0.063-0.092-0.063
			c-0.351-0.224-0.718-0.347-1.081-0.431c-2.412-12.72-15.709-22.404-26.264-28.592c-7.811-4.547-16.241-8.487-24.588-11.951
			c-3.414-1.401-6.973-2.806-10.595-3.552c-6.137-1.298-14.486-0.898-20.735-1.38C564.417,231.357,556.54,229.225,549.227,228.037z"
			/>
	</g>
</g>
</svg>
