<?xml version="1.0" encoding="utf-8"?>
<!-- Generator: Adobe Illustrator 24.2.1, SVG Export Plug-In . SVG Version: 6.00 Build 0)  -->
<!DOCTYPE svg PUBLIC "-//W3C//DTD SVG 1.1//EN" "http://www.w3.org/Graphics/SVG/1.1/DTD/svg11.dtd" [
	<!ENTITY ns_flows "http://ns.adobe.com/Flows/1.0/">
	<!ENTITY ns_extend "http://ns.adobe.com/Extensibility/1.0/">
	<!ENTITY ns_ai "http://ns.adobe.com/AdobeIllustrator/10.0/">
	<!ENTITY ns_graphs "http://ns.adobe.com/Graphs/1.0/">
	<!ENTITY ns_vars "http://ns.adobe.com/Variables/1.0/">
	<!ENTITY ns_imrep "http://ns.adobe.com/ImageReplacement/1.0/">
	<!ENTITY ns_sfw "http://ns.adobe.com/SaveForWeb/1.0/">
	<!ENTITY ns_custom "http://ns.adobe.com/GenericCustomNamespace/1.0/">
	<!ENTITY ns_adobe_xpath "http://ns.adobe.com/XPath/1.0/">
]>
<svg version="1.1" xmlns:x="&ns_extend;" xmlns:i="&ns_ai;" xmlns:graph="&ns_graphs;"
	 xmlns="http://www.w3.org/2000/svg" xmlns:xlink="http://www.w3.org/1999/xlink" xmlns:a="http://ns.adobe.com/AdobeSVGViewerExtensions/3.0/"
	 x="0px" y="0px" width="750px" height="750px" viewBox="0 0 750 750" enable-background="new 0 0 750 750" xml:space="preserve">
<metadata>
	<sfw  xmlns="&ns_sfw;">
		<slices></slices>
		<sliceSourceBounds  bottomLeftOrigin="true" height="14129.292" width="8606.844" x="-3946.844" y="-6120"></sliceSourceBounds>
	</sfw>
</metadata>
<g id="FILL-BACKGROUND">
	<rect fill="#FFFFFF" width="750" height="750"/>
</g>
<g id="N-TEXT">
</g>
<g id="N-DIMENSIONS">
</g>
<g id="AG-DETAIL-DIAGRAM">
</g>
<g id="AG-DIAGRAM">
	<g id="POLYLINE_727_">
		<g>
			<g>
				
					<line fill="none" stroke="#FB8604" stroke-width="3.25" stroke-linecap="round" stroke-linejoin="round" x1="282.717" y1="520.789" x2="284.717" y2="520.789"/>
				
					<line fill="none" stroke="#FB8604" stroke-width="3.25" stroke-linecap="round" stroke-linejoin="round" stroke-dasharray="3.9484,6.9097" x1="291.627" y1="520.789" x2="603.06" y2="520.789"/>
				
					<line fill="none" stroke="#FB8604" stroke-width="3.25" stroke-linecap="round" stroke-linejoin="round" x1="606.514" y1="520.789" x2="608.514" y2="520.789"/>
			</g>
		</g>
	</g>
</g>
<g id="AG-DETAILS">
	<g id="POLYLINE_698_">
		<path fill="none" stroke="#FB8604" stroke-width="2" stroke-linecap="round" stroke-linejoin="round" stroke-miterlimit="10" d="
			M645.106,309.356c-0.653,2.451-1.373,5.106-1.674,7.616c-0.515,4.139-0.532,8.388-0.414,12.552
			c0.302,7.935,1.161,15.978,3.521,23.588"/>
	</g>
	<g id="POLYLINE_697_">
		<path fill="none" stroke="#FB8604" stroke-width="2" stroke-linecap="round" stroke-linejoin="round" stroke-miterlimit="10" d="
			M639.537,306.174l-0.422,0.508c-1.583,1.828-3.443,3.912-4.664,5.98c-2.53,4.215-4.376,8.925-6.11,13.515
			c-3.385,9.259-6.054,18.945-7.721,28.666c-1.159,6.97-1.85,14.12-1.292,21.182"/>
	</g>
	<g id="POLYLINE_696_">
		<path fill="none" stroke="#FB8604" stroke-width="2" stroke-linecap="round" stroke-linejoin="round" stroke-miterlimit="10" d="
			M638.582,299.968l-3.935,1.016c-2.149,0.573-4.282,1.334-6.257,2.361c-4.269,2.232-8.07,5.356-11.651,8.551
			c-5.023,4.566-9.693,9.679-13.707,15.154c-3.047,4.186-5.792,8.677-7.729,13.491"/>
	</g>
</g>
<g id="AG-ANIMALS">
	<g id="POLYLINE_966_">
		
			<path fill="none" stroke="#FB8604" stroke-width="2.75" stroke-linecap="round" stroke-linejoin="round" stroke-miterlimit="10" d="
			M506.115,511.314c1.047,2.91,2.425,6.199,4.816,8.197c0.135,0.106,0.202,0.158,0.202,0.158c0.136,0.099,0.204,0.147,0.204,0.147
			c0.137,0.093,0.206,0.137,0.206,0.137c0.138,0.086,0.208,0.127,0.208,0.127c0.139,0.079,0.209,0.116,0.209,0.116
			c0.14,0.072,0.211,0.106,0.211,0.106c0.142,0.065,0.213,0.095,0.213,0.095c0.143,0.058,0.214,0.085,0.214,0.085
			c0.144,0.051,0.216,0.075,0.216,0.075c0.145,0.044,0.218,0.064,0.218,0.064c0.146,0.037,0.22,0.054,0.22,0.054
			c0.147,0.03,0.221,0.043,0.221,0.043c0.148,0.023,0.223,0.033,0.223,0.033c0.15,0.016,0.225,0.023,0.225,0.023
			c0.151,0.009,0.226,0.012,0.226,0.012c10.162,0.005,41.275,0.001,51.866,0.002c0.154-0.003,0.192-0.004,0.192-0.004
			c0.152-0.01,0.19-0.013,0.19-0.013c0.15-0.017,0.187-0.022,0.187-0.022c0.148-0.024,0.185-0.031,0.185-0.031
			c0.147-0.031,0.183-0.039,0.183-0.039c0.145-0.038,0.181-0.048,0.181-0.048c0.143-0.045,0.179-0.057,0.179-0.057
			c0.141-0.052,0.176-0.065,0.176-0.065c0.174-0.074,0.209-0.09,0.209-0.09c0.171-0.085,0.205-0.103,0.205-0.103
			c0.169-0.095,0.202-0.115,0.202-0.115c0.133-0.084,0.199-0.128,0.199-0.128c0.131-0.092,0.196-0.14,0.196-0.14
			c0.129-0.101,0.193-0.153,0.193-0.153c0.127-0.109,0.189-0.165,0.189-0.165c0.125-0.117,0.186-0.178,0.186-0.178
			c0.122-0.126,0.183-0.191,0.183-0.191c0.12-0.134,0.18-0.203,0.18-0.203c0.118-0.142,0.177-0.216,0.177-0.216
			c0.289-0.369,0.506-0.709,0.647-0.943c0.078-0.138,0.104-0.185,0.104-0.185c0.073-0.144,0.097-0.193,0.097-0.193
			c0.068-0.15,0.09-0.201,0.09-0.201c0.063-0.156,0.083-0.209,0.083-0.209c0.058-0.162,0.076-0.218,0.076-0.218
			c0.052-0.169,0.069-0.226,0.069-0.226c0.342-1.213,0.345-2.489,0.274-3.6c-0.105-1.465-0.346-2.771-0.667-4.179
			c-0.729-3.157-1.953-6.673-4.373-8.828c-0.167-0.144-0.223-0.19-0.223-0.19c-0.17-0.136-0.227-0.181-0.227-0.181
			c-2.75-2.029-6.209-2.163-9.371-1.801c-1.062,0.123-2.155,0.358-3.203,0.565c-1.274,0.24-2.728,0.44-4.019,0.595
			c-5.257,0.61-10.974,0.842-16.272,0.998"/>
	</g>
	<g id="POLYLINE_970_">
		
			<path fill="none" stroke="#FB8604" stroke-width="2.75" stroke-linecap="round" stroke-linejoin="round" stroke-miterlimit="10" d="
			M313.276,515.649c0.358,1.18,0.844,2.399,1.478,3.328c0.098,0.14,0.131,0.186,0.131,0.186c0.134,0.176,0.167,0.218,0.167,0.218
			c0.137,0.163,0.171,0.202,0.171,0.202c0.14,0.151,0.175,0.187,0.175,0.187c0.143,0.138,0.179,0.171,0.179,0.171
			c0.146,0.125,0.183,0.155,0.183,0.155c0.149,0.113,0.187,0.14,0.187,0.14c0.152,0.1,0.191,0.124,0.191,0.124
			c0.155,0.088,0.195,0.108,0.195,0.108c0.158,0.075,0.198,0.093,0.198,0.093c0.162,0.063,0.202,0.077,0.202,0.077
			c0.165,0.05,0.206,0.061,0.206,0.061c0.168,0.038,0.21,0.045,0.21,0.045c0.171,0.025,0.214,0.03,0.214,0.03
			c0.174,0.013,0.218,0.014,0.218,0.014c9.92-0.008,48.864,0.021,59.474-0.01c0.902-0.02,1.878-0.073,2.776-0.166
			c1.686-0.174,3.631-0.543,5.06-1.319c0.175-0.098,0.232-0.131,0.232-0.131c0.166-0.102,0.219-0.137,0.219-0.137
			c0.156-0.106,0.207-0.143,0.207-0.143c0.147-0.111,0.195-0.148,0.195-0.148c0.138-0.115,0.182-0.154,0.182-0.154
			c0.17-0.159,0.211-0.2,0.211-0.2c0.155-0.166,0.191-0.208,0.191-0.208c0.139-0.173,0.172-0.217,0.172-0.217
			c0.096-0.135,0.127-0.181,0.127-0.181c0.09-0.14,0.12-0.188,0.12-0.188c0.085-0.146,0.113-0.195,0.113-0.195
			c0.08-0.151,0.106-0.202,0.106-0.202c0.075-0.156,0.099-0.21,0.099-0.21c0.07-0.162,0.092-0.217,0.092-0.217
			c0.064-0.167,0.085-0.224,0.085-0.224c0.425-1.194,0.5-2.446,0.474-3.566c-0.052-1.574-0.276-2.881-0.603-4.372
			c-0.643-2.799-1.679-5.882-3.765-7.821c-0.141-0.126-0.189-0.167-0.189-0.167c-0.144-0.12-0.192-0.159-0.192-0.159
			c-0.147-0.113-0.196-0.15-0.196-0.15c-0.149-0.107-0.199-0.141-0.199-0.141c-1.64-1.117-3.642-1.435-5.464-1.361
			c-1.556,0.052-2.843,0.37-4.268,0.689c-1.3,0.26-2.748,0.433-4.07,0.573c-6.503,0.63-13.695,0.768-20.236,0.886"/>
	</g>
	<g id="POLYLINE_971_">
		
			<path fill="none" stroke="#FB8604" stroke-width="2.75" stroke-linecap="round" stroke-linejoin="round" stroke-miterlimit="10" d="
			M651.054,292.893c-5.703-14.337-25.749-23.829-39.443-29.088c-13.987-5.221-28.746-9.005-43.667-10.08
			c-7.075-0.427-14.389-0.301-21.157,2.016"/>
	</g>
	<g id="POLYLINE_972_">
		
			<path fill="none" stroke="#FB8604" stroke-width="2.75" stroke-linecap="round" stroke-linejoin="round" stroke-miterlimit="10" d="
			M426.077,384.977c-1.29,3.649-2.407,7.434-2.852,11.288c-0.562,4.671-0.282,9.439,0.298,14.095
			c0.384,2.983,0.916,6.029,1.683,8.939c0.521,1.901,1.167,4.037,2.219,5.667c0.098,0.143,0.131,0.189,0.131,0.189
			c0.132,0.176,0.165,0.218,0.165,0.218c0.134,0.159,0.167,0.196,0.167,0.196c0.169,0.174,0.203,0.206,0.203,0.206
			c0.171,0.147,0.205,0.174,0.205,0.174c0.173,0.119,0.208,0.14,0.208,0.14c0.175,0.09,0.21,0.105,0.21,0.105
			c0.169,0.058,0.184,0.062,0.184,0.062c0.171,0.034,0.185,0.036,0.185,0.036c0.158,0.012,0.186,0.013,0.186,0.013
			c0.173-0.006,0.202-0.008,0.202-0.008c0.173-0.023,0.202-0.028,0.202-0.028c0.145-0.03,0.203-0.044,0.203-0.044
			c0.174-0.047,0.232-0.065,0.232-0.065c0.174-0.056,0.75-0.257,0.75-0.257c0.171-0.056,0.228-0.073,0.228-0.073
			c0.17-0.047,0.226-0.061,0.226-0.061c0.168-0.035,0.196-0.039,0.196-0.039c0.166-0.02,0.193-0.022,0.193-0.022
			c0.164-0.003,0.177-0.002,0.177-0.002c0.175,0.018,0.188,0.021,0.188,0.021c0.172,0.044,0.185,0.048,0.185,0.048
			c0.173,0.075,0.203,0.091,0.203,0.091c0.148,0.095,0.177,0.117,0.177,0.117c0.174,0.149,0.203,0.177,0.203,0.177
			c0.142,0.152,0.171,0.185,0.171,0.185c0.112,0.14,0.14,0.177,0.14,0.177c0.111,0.156,0.139,0.197,0.139,0.197
			c0.816,1.296,1.225,2.61,1.724,4.013c1.459,4.243,2.682,9.234,5.315,12.898c1.574,2.129,3.728,3.32,6.089,4.244
			c2.167,0.847,4.905,1.708,6.687,3.204c0.269,0.225,0.319,0.273,0.443,0.386c1.312,1.245,2.119,2.498,2.988,4.001
			c1.271,2.23,2.483,5.129,3.69,7.397c0.383,0.725,0.951,1.669,1.43,2.281c0.657,0.856,1.408,1.518,2.177,2.063
			c1.754,1.204,3.79,2.18,5.372,3.608c3.366,3.005,6.041,6.82,8.67,10.463c5.69,8.087,12.456,18.813,19.034,26.079
			c1.377,1.465,2.968,3.085,4.72,4.023c0.152,0.076,0.202,0.1,0.202,0.1c0.149,0.068,0.198,0.089,0.198,0.089
			c0.146,0.059,0.194,0.077,0.194,0.077c0.143,0.051,0.19,0.066,0.19,0.066c0.14,0.042,0.186,0.054,0.186,0.054
			c0.136,0.033,0.181,0.043,0.181,0.043c0.174,0.03,0.208,0.035,0.208,0.035c0.169,0.017,0.203,0.02,0.203,0.02
			c0.165,0.006,0.198,0.006,0.198,0.006c0.161-0.004,0.193-0.006,0.193-0.006c0.157-0.013,0.189-0.017,0.189-0.017
			c0.124-0.016,0.185-0.026,0.185-0.026c0.121-0.022,0.181-0.034,0.181-0.034c0.191-0.04,0.341-0.082,0.412-0.101
			c0.13-0.038,0.81-0.238,0.907-0.259c0.168-0.039,0.225-0.051,0.225-0.051c0.169-0.03,0.226-0.039,0.226-0.039
			c0.171-0.019,0.199-0.021,0.199-0.021c0.173-0.006,0.202-0.006,0.202-0.006c0.175,0.008,0.205,0.011,0.205,0.011
			c0.171,0.023,0.213,0.031,0.213,0.031c0.168,0.038,0.21,0.049,0.21,0.049c0.171,0.052,0.214,0.066,0.214,0.066
			c0.174,0.065,0.218,0.082,0.218,0.082c0.495,0.209,0.816,0.405,1.199,0.632c1.384,0.868,3.082,2.024,4.653,2.319
			c0.148,0.029,0.231,0.043,0.231,0.043c0.168,0.026,0.253,0.037,0.253,0.037c0.17,0.019,0.256,0.027,0.256,0.027
			c0.172,0.013,0.258,0.018,0.258,0.018c2.553,0.086,4.874-0.86,7.172-1.815c0.925-0.418,6.237-2.723,7.023-3.121
			c0.718-0.351,1.496-0.812,2.036-1.269c0.171-0.148,0.213-0.186,0.213-0.186c0.163-0.154,0.203-0.194,0.203-0.194
			c0.155-0.161,0.192-0.203,0.192-0.203c0.146-0.169,0.181-0.212,0.181-0.212c0.103-0.132,0.137-0.177,0.137-0.177
			c0.098-0.137,0.13-0.184,0.13-0.184c0.093-0.143,0.122-0.191,0.122-0.191c0.087-0.148,0.115-0.199,0.115-0.199
			c0.085-0.161,0.126-0.244,0.126-0.244c0.078-0.168,0.115-0.254,0.115-0.254c0.631-1.57,0.686-3.062,0.731-4.679
			c0.04-2.282-0.272-7.009-0.374-9.351c-0.276-6.07-0.048-12.318,0.625-18.357c0.214-1.85,0.492-3.824,0.867-5.648
			c0.241-1.153,0.576-2.529,1.036-3.553c0.071-0.152,0.095-0.201,0.095-0.201c0.072-0.14,0.096-0.184,0.096-0.184
			c0.098-0.167,0.122-0.206,0.122-0.206c0.099-0.145,0.124-0.179,0.124-0.179c0.126-0.15,0.152-0.177,0.152-0.177
			c0.154-0.135,0.18-0.153,0.18-0.153c0.157-0.084,0.183-0.093,0.183-0.093c0.16-0.031,0.187-0.032,0.187-0.032
			c0.163,0.024,0.19,0.032,0.19,0.032c0.172,0.084,0.186,0.092,0.186,0.092c0.174,0.135,0.188,0.147,0.188,0.147
			c0.163,0.164,0.19,0.195,0.19,0.195c0.136,0.164,0.164,0.2,0.164,0.2c0.082,0.11,0.137,0.186,0.137,0.186
			c0.583,0.83,1.182,2.079,1.718,2.88c0.1,0.145,0.125,0.179,0.125,0.179c0.123,0.16,0.147,0.19,0.147,0.19
			c0.156,0.17,0.168,0.181,0.168,0.181c0.174,0.139,0.185,0.146,0.185,0.146c0.176,0.07,0.196,0.073,0.196,0.073
			c0.161-0.016,0.18-0.023,0.18-0.023c0.172-0.111,0.19-0.129,0.19-0.129c0.128-0.152,0.146-0.177,0.146-0.177
			c0.106-0.174,0.123-0.207,0.123-0.207c0.068-0.139,0.085-0.176,0.085-0.176c0.595-1.482,0.773-2.959,1.049-4.5l1.399-9.591
			c0.661-4.338,1.704-8.695,3.608-12.667c1.23-2.652,3.255-6.127,4.531-8.76c1.125-2.255,3.072-7.019,4.088-9.38
			c0.668-1.497,1.371-3.08,2.253-4.461c0.168-0.257,0.279-0.409,0.339-0.492c0.112-0.147,0.168-0.218,0.168-0.218
			c0.111-0.134,0.166-0.198,0.166-0.198c0.138-0.149,0.165-0.178,0.165-0.178c0.163-0.156,0.191-0.18,0.191-0.18
			c0.162-0.13,0.189-0.15,0.189-0.15c0.16-0.103,0.186-0.118,0.186-0.118c0.158-0.075,0.184-0.085,0.184-0.085
			c0.156-0.046,0.182-0.051,0.182-0.051c0.176-0.016,0.186-0.016,0.186-0.016c0.173,0.018,0.184,0.02,0.184,0.02
			c0.16,0.043,0.182,0.05,0.182,0.05c0.17,0.07,0.191,0.08,0.191,0.08c0.147,0.078,0.189,0.102,0.189,0.102
			c0.292,0.18,0.493,0.332,0.667,0.453c0.167,0.113,0.208,0.14,0.208,0.14c0.167,0.101,0.209,0.125,0.209,0.125
			c0.168,0.083,0.189,0.093,0.189,0.093c0.17,0.061,0.191,0.067,0.191,0.067c0.171,0.034,0.182,0.035,0.182,0.035
			c0.173,0.003,0.184,0.002,0.184,0.002c0.16-0.028,0.188-0.036,0.188-0.036c0.168-0.063,0.197-0.077,0.197-0.077
			c0.17-0.097,0.199-0.116,0.199-0.116c0.173-0.129,0.202-0.154,0.202-0.154c0.175-0.161,0.204-0.19,0.204-0.19
			c0.147-0.157,0.177-0.19,0.177-0.19c0.119-0.141,0.179-0.215,0.179-0.215c0.12-0.157,0.18-0.239,0.18-0.239
			c0.681-0.968,1.138-1.889,1.638-2.921c2.023-4.299,3.936-9.703,6.14-13.902c1.369-2.631,2.997-5.171,4.836-7.498
			c1.162-1.48,2.508-2.983,3.809-4.346c3.629-3.822,33.112-31.896,37.559-36.231c4.872-4.638,12.374-11.371,17.447-15.873
			c0.994-0.898,2.172-1.996,3.126-2.938c1.866-1.843,3.649-3.849,5.22-5.95c3.514-4.726,6.356-10.017,8.071-15.662"/>
	</g>
	<g id="POLYLINE_973_">
		
			<path fill="none" stroke="#FB8604" stroke-width="2.75" stroke-linecap="round" stroke-linejoin="round" stroke-miterlimit="10" d="
			M651.145,310.937c-0.168,0.059-0.185,0.062-0.185,0.062c-0.171,0.02-0.188,0.02-0.188,0.02c-0.174-0.017-0.191-0.021-0.191-0.021
			c-0.176-0.053-0.194-0.06-0.194-0.06c-0.16-0.077-0.178-0.087-0.178-0.087c-0.162-0.103-0.18-0.116-0.18-0.116
			c-0.145-0.113-0.182-0.144-0.182-0.144c-0.147-0.135-0.184-0.171-0.184-0.171c-0.148-0.155-0.185-0.197-0.185-0.197
			c-0.707-0.831-1.082-1.539-1.558-2.407c-0.651-1.223-1.325-2.738-1.888-4.013c-0.655-1.515-1.306-3.107-1.774-4.69
			c-0.326-1.088-0.609-2.439-0.575-3.477c0.006-0.146,0.01-0.219,0.01-0.219c0.011-0.142,0.018-0.212,0.018-0.212
			c0.017-0.138,0.027-0.206,0.027-0.206c0.023-0.134,0.036-0.2,0.036-0.2c0.037-0.161,0.045-0.193,0.045-0.193
			c0.044-0.156,0.054-0.186,0.054-0.186c0.052-0.15,0.064-0.179,0.064-0.179c0.073-0.171,0.087-0.199,0.087-0.199
			c0.085-0.163,0.1-0.189,0.1-0.189c0.111-0.174,0.126-0.194,0.126-0.194c0.123-0.158,0.139-0.176,0.139-0.176
			c0.154-0.164,0.172-0.182,0.172-0.182c0.17-0.151,0.21-0.182,0.21-0.182c0.165-0.121,0.208-0.15,0.208-0.15
			c0.132-0.083,0.177-0.11,0.177-0.11c0.139-0.076,0.186-0.101,0.186-0.101c0.145-0.069,0.194-0.091,0.194-0.091
			c0.151-0.063,0.202-0.083,0.202-0.083c0.156-0.056,0.209-0.074,0.209-0.074c0.161-0.05,0.215-0.065,0.215-0.065
			c0.165-0.043,0.221-0.056,0.221-0.056c0.169-0.037,0.226-0.048,0.226-0.048c0.173-0.03,0.231-0.04,0.231-0.04
			c1.235-0.179,2.444-0.037,3.515,0.31c0.164,0.057,0.218,0.076,0.218,0.076c0.159,0.061,0.212,0.083,0.212,0.083
			c0.154,0.066,0.205,0.089,0.205,0.089c0.164,0.078,0.244,0.119,0.244,0.119c0.156,0.085,0.195,0.106,0.195,0.106
			c0.15,0.09,0.187,0.113,0.187,0.113c0.144,0.096,0.179,0.12,0.179,0.12c0.172,0.127,0.205,0.154,0.205,0.154
			c0.163,0.136,0.194,0.164,0.194,0.164c0.154,0.145,0.184,0.175,0.184,0.175c0.145,0.155,0.173,0.186,0.173,0.186
			c0.136,0.164,0.163,0.198,0.163,0.198c0.128,0.174,0.153,0.209,0.153,0.209c0.096,0.146,0.12,0.184,0.12,0.184
			c0.091,0.153,0.113,0.192,0.113,0.192c0.085,0.16,0.106,0.201,0.106,0.201c0.08,0.167,0.118,0.252,0.118,0.252
			c0.445,1.046,0.576,2.031,0.659,3.058c0.08,1.116,0.054,2.269-0.021,3.386c-0.196,2.47-0.567,4.984-1.451,7.309
			c-0.137,0.34-0.247,0.568-0.331,0.735c-0.077,0.144-0.116,0.214-0.116,0.214c-0.078,0.133-0.118,0.197-0.118,0.197
			c-0.1,0.15-0.12,0.179-0.12,0.179c-0.122,0.161-0.143,0.185-0.143,0.185c-0.146,0.159-0.167,0.18-0.167,0.18
			C651.34,310.822,651.319,310.837,651.145,310.937z"/>
	</g>
	<g id="POLYLINE_974_">
		
			<path fill="none" stroke="#FB8604" stroke-width="2.75" stroke-linecap="round" stroke-linejoin="round" stroke-miterlimit="10" d="
			M529.362,266.935c-2.611,2.216-5.571,4.739-8.319,6.757c-2.373,1.76-4.989,3.454-7.541,4.951
			c-12.051,6.964-25.583,11.643-39.464,12.99c-11.173,1.074-22.469-0.608-33.403-2.856c-11.172-2.33-25.848-6.091-37.081-6.701
			c-9.636-0.66-19.427,0.116-28.893,1.993c-9.574,1.887-19.068,4.816-28.244,8.116c-10.168,3.685-20.326,8.015-30.008,12.837
			c-8.341,4.181-16.679,8.866-24.311,14.242c-3.494,2.477-6.935,5.17-10.039,8.123c-2.73,2.589-5.276,5.476-7.551,8.473
			c-4.251,5.546-8.284,12.825-12.398,18.475c-5.197,7.11-12.134,14.48-17.054,21.783c-1.87,2.757-3.628,5.688-5.064,8.694
			c-1.273,2.65-2.33,5.462-3.211,8.266c-1.727,5.506-2.869,11.358-3.815,17.048c-0.663,4.012-1.691,11.324-2.643,15.234
			c-0.46,1.886-1.056,3.78-1.958,5.506c-0.817,1.618-2.162,3.307-3.412,4.448c-2.751,2.534-6.092,4.369-9.43,6.01
			c-10.05,4.856-21.561,7.883-32.276,10.965c-4.253,1.276-8.636,2.681-12.573,4.763c-2.254,1.19-4.347,2.713-6.315,4.326
			c-2.928,2.436-6.41,5.559-9.668,7.464c-4.407,2.655-10.66,5.254-15.192,7.706c-3.922,2.045-7.568,4.67-10.935,7.531
			c-4.197,3.528-8.871,7.828-13.647,10.511c-4.024,2.281-8.487,3.791-12.916,5.077c-2.868,0.812-9.917,2.66-12.625,3.607
			c-1.771,0.609-3.811,1.367-5.314,2.405c-0.173,0.125-0.228,0.167-0.228,0.167c-0.161,0.126-0.212,0.169-0.212,0.169
			c-0.148,0.128-0.195,0.17-0.195,0.17c-0.135,0.129-0.178,0.172-0.178,0.172c-0.16,0.174-0.197,0.218-0.197,0.218
			c-0.121,0.155-0.137,0.177-0.137,0.177c-0.104,0.156-0.117,0.179-0.117,0.179c-0.086,0.158-0.098,0.181-0.098,0.181
			c-0.069,0.16-0.077,0.183-0.077,0.183c-0.05,0.162-0.056,0.185-0.056,0.185c-0.033,0.174-0.036,0.191-0.036,0.191
			c-0.014,0.176-0.014,0.193-0.014,0.193c0.004,0.16,0.006,0.178,0.006,0.178c0.019,0.161,0.022,0.179,0.022,0.179
			c0.03,0.144,0.039,0.181,0.039,0.181c0.042,0.145,0.054,0.182,0.054,0.182c0.054,0.146,0.07,0.183,0.07,0.183
			c0.066,0.147,0.084,0.184,0.084,0.184c0.078,0.148,0.098,0.185,0.098,0.185c0.088,0.149,0.112,0.186,0.112,0.186
			c0.099,0.15,0.125,0.187,0.125,0.187c0.109,0.15,0.166,0.226,0.166,0.226c0.12,0.151,0.183,0.227,0.183,0.227
			c0.947,1.087,1.828,1.731,2.916,2.539c1.374,0.988,2.861,1.886,4.368,2.656c6.112,3.159,13.02,4.332,19.849,4.399
			c3.61,0.043,7.278-0.184,10.849-0.724c2.759-0.425,5.543-1.044,8.14-2.083c1.708-0.68,3.369-1.562,4.931-2.528
			c3.548-2.103,22.947-16.542,26.68-19.177c9.624-6.712,19.565-13.727,30.716-17.626c1.93-0.659,3.958-1.221,5.96-1.612
			c2.215-0.467,6.912-0.962,9.201-1.267c5.177-0.67,10.255-2.153,15.118-4.027c4.848-1.86,9.633-4.091,14.176-6.606
			c2.794-1.554,5.616-3.292,8.211-5.161c2.061-1.458,4.211-3.313,5.537-5.416c1.639-2.548,2.366-5.21,2.82-8.115
			c0.501-3.369,0.52-6.839,0.386-10.237"/>
	</g>
	<g id="POLYLINE_975_">
		
			<path fill="none" stroke="#FB8604" stroke-width="2.75" stroke-linecap="round" stroke-linejoin="round" stroke-miterlimit="10" d="
			M533.7,276.025c-2.365-2.975-3.912-6.59-4.589-10.322c-0.571-3.15-0.377-6.947,1.861-9.326c0.163-0.171,0.219-0.227,0.219-0.227
			c2.137-2.113,5.145-2.501,7.898-2.279c2.289,0.188,4.552,0.761,6.717,1.512c2.855,1.001,5.608,2.352,8.155,3.983
			c2.425,1.555,4.835,3.512,6.676,5.704"/>
	</g>
	<g id="POLYLINE_976_">
		
			<path fill="none" stroke="#FB8604" stroke-width="2.75" stroke-linecap="round" stroke-linejoin="round" stroke-miterlimit="10" d="
			M365.654,476.066c9.271-4.522,19.233-8.647,28.891-12.257c6.216-2.313,12.808-4.607,19.222-6.272
			c12.077-3.271,27.677-4.281,40.168-5.687"/>
	</g>
	<g id="POLYLINE_977_">
		
			<path fill="none" stroke="#FB8604" stroke-width="2.75" stroke-linecap="round" stroke-linejoin="round" stroke-miterlimit="10" d="
			M249.125,454.7c2.74,3.265,5.901,6.215,9.224,8.878c2.379,1.911,4.892,3.798,7.513,5.366c1.547,0.913,3.173,1.767,4.902,2.277
			c0.909,0.268,1.775,0.374,2.632,0.401c1.383,0.034,3.1-0.071,4.384,0.363c0.171,0.055,0.228,0.075,0.228,0.075
			c0.172,0.063,0.23,0.085,0.23,0.085c1.563,0.647,2.641,1.567,3.843,2.534c1.974,1.604,4.196,3.893,6.405,5.079
			c0.143,0.07,0.214,0.103,0.214,0.103c0.14,0.062,0.21,0.09,0.21,0.09c0.171,0.065,0.205,0.077,0.205,0.077
			c0.169,0.054,0.205,0.064,0.205,0.064c0.173,0.044,0.207,0.051,0.207,0.051c0.169,0.032,0.202,0.037,0.202,0.037
			c0.165,0.021,0.197,0.025,0.197,0.025c0.129,0.01,0.193,0.014,0.193,0.014c0.126,0.004,0.188,0.005,0.188,0.005
			c0.449-0.002,0.766-0.048,1.158-0.082c0.162-0.011,0.215-0.014,0.215-0.014c0.159-0.004,0.211-0.004,0.211-0.004
			c0.156,0.006,0.182,0.007,0.182,0.007c0.154,0.017,0.179,0.02,0.179,0.02c0.152,0.03,0.177,0.036,0.177,0.036
			c0.176,0.054,0.201,0.064,0.201,0.064c0.174,0.078,0.199,0.091,0.199,0.091c0.151,0.09,0.176,0.108,0.176,0.108
			c0.152,0.114,0.178,0.135,0.178,0.135c0.152,0.136,0.177,0.16,0.177,0.16c0.151,0.157,0.176,0.185,0.176,0.185
			c0.126,0.146,0.176,0.208,0.176,0.208c0.1,0.129,0.15,0.197,0.15,0.197c0.741,1.052,1.134,1.968,1.622,3.092
			c1.208,2.848,2.895,8.368,3.949,11.322c1.604,4.585,3.655,9.137,5.893,13.449c1.04,1.979,2.19,4.269,3.648,5.93
			c0.143,0.156,0.191,0.206,0.191,0.206c0.143,0.145,0.191,0.192,0.191,0.192c0.144,0.134,0.191,0.177,0.191,0.177
			c0.144,0.122,0.192,0.161,0.192,0.161c0.144,0.11,0.192,0.145,0.192,0.145c0.144,0.098,0.192,0.128,0.192,0.128
			c0.168,0.097,0.192,0.11,0.192,0.11c0.168,0.081,0.192,0.092,0.192,0.092c0.168,0.065,0.192,0.073,0.192,0.073
			c0.168,0.047,0.192,0.053,0.192,0.053c0.168,0.029,0.192,0.032,0.192,0.032c0.168,0.01,0.192,0.011,0.192,0.011
			c0.17-0.009,0.189-0.011,0.189-0.011c0.17-0.027,0.189-0.031,0.189-0.031c0.151-0.038,0.189-0.049,0.189-0.049
			c0.152-0.051,0.19-0.065,0.19-0.065c0.152-0.063,0.19-0.08,0.19-0.08c0.153-0.074,0.191-0.093,0.191-0.093
			c0.153-0.083,0.23-0.127,0.23-0.127c0.255-0.152,0.33-0.204,0.467-0.292c0.189-0.129,1.155-0.79,1.299-0.872
			c0.17-0.103,0.255-0.153,0.255-0.153c0.265-0.148,0.305-0.167,0.436-0.232c0.134-0.062,0.178-0.082,0.178-0.082
			c0.135-0.056,0.181-0.074,0.181-0.074c0.137-0.05,0.183-0.066,0.183-0.066c0.139-0.043,0.186-0.057,0.186-0.057
			c0.141-0.036,0.188-0.047,0.188-0.047c0.143-0.028,0.191-0.036,0.191-0.036c0.145-0.019,0.194-0.024,0.194-0.024
			c0.147-0.01,0.197-0.011,0.197-0.011c0.164,0.001,0.197,0.002,0.197,0.002c0.167,0.011,0.2,0.014,0.2,0.014
			c0.135,0.016,0.203,0.026,0.203,0.026c0.137,0.024,0.206,0.037,0.206,0.037c0.138,0.031,0.208,0.048,0.208,0.048
			c0.14,0.037,0.211,0.057,0.211,0.057c0.765,0.233,1.312,0.51,1.909,0.808c1.02,0.532,2.704,1.479,3.731,1.835
			c0.307,0.111,0.541,0.177,0.699,0.219c0.155,0.038,0.232,0.055,0.232,0.055c0.154,0.031,0.231,0.046,0.231,0.046
			c0.153,0.025,0.23,0.035,0.23,0.035c0.152,0.017,0.228,0.024,0.228,0.024c0.152,0.009,0.189,0.011,0.189,0.011
			c0.151,0.002,0.188,0.002,0.188,0.002c0.15-0.005,0.187-0.007,0.187-0.007c0.149-0.012,0.186-0.016,0.186-0.016
			c0.148-0.02,0.185-0.026,0.185-0.026c0.147-0.028,0.184-0.036,0.184-0.036c0.148-0.037,0.185-0.048,0.185-0.048
			c0.147-0.046,0.184-0.058,0.184-0.058c0.146-0.054,0.183-0.068,0.183-0.068c0.145-0.062,0.181-0.078,0.181-0.078
			c0.144-0.069,0.216-0.106,0.216-0.106c0.143-0.077,0.214-0.118,0.214-0.118c0.142-0.085,0.212-0.13,0.212-0.13
			c0.14-0.093,0.21-0.141,0.21-0.141c1.029-0.736,1.771-1.594,2.491-2.434l1.63-1.988c0.255-0.307,0.653-0.752,0.852-0.95
			c0.153-0.151,0.204-0.199,0.204-0.199c0.15-0.137,0.2-0.18,0.2-0.18c0.148-0.122,0.196-0.159,0.196-0.159
			c0.169-0.121,0.193-0.137,0.193-0.137c0.166-0.1,0.189-0.113,0.189-0.113c0.162-0.078,0.185-0.087,0.185-0.087
			c0.171-0.058,0.184-0.061,0.184-0.061c0.168-0.034,0.181-0.036,0.181-0.036c0.153-0.012,0.179-0.013,0.179-0.013
			c0.152,0.005,0.177,0.008,0.177,0.008c0.176,0.025,0.201,0.03,0.201,0.03c0.175,0.042,0.2,0.049,0.2,0.049
			c0.229,0.07,0.303,0.102,0.403,0.139c0.114,0.046,0.653,0.264,0.734,0.29c0.165,0.057,0.221,0.074,0.221,0.074
			c0.171,0.049,0.228,0.063,0.228,0.063c0.147,0.032,0.177,0.038,0.177,0.038c0.151,0.024,0.181,0.027,0.181,0.027
			c0.155,0.014,0.187,0.015,0.187,0.015c0.16,0.003,0.193,0.002,0.193,0.002c0.168-0.01,0.202-0.013,0.202-0.013
			c0.173-0.023,0.208-0.029,0.208-0.029c0.142-0.028,0.178-0.035,0.178-0.035c0.145-0.036,0.182-0.046,0.182-0.046
			c0.148-0.044,0.223-0.068,0.223-0.068c0.152-0.053,0.228-0.082,0.228-0.082c0.155-0.062,0.233-0.095,0.233-0.095
			c0.158-0.071,0.238-0.109,0.238-0.109c2.032-1.04,3.491-2.469,5.041-4.037c2.151-2.246,4.071-4.759,5.741-7.381l2.735-4.376
			c1.114-1.745,2.522-3.595,4.209-4.663c1.689-1.117,3.827-2.098,5.11-3.647c0.136-0.162,0.181-0.218,0.181-0.218
			c0.734-0.943,1.139-1.796,1.549-2.805c0.442-1.103,0.794-2.31,1.104-3.458c1.158-4.364,1.968-9.459,4.049-13.481
			c1.597-3.126,4.094-6.09,5.948-9.064c1.365-2.165,2.459-4.519,3.176-6.977c1.402-4.773,1.856-9.812,1.926-14.771
			c0.039-8.749-1.106-17.61-3.829-25.94c-1.319-3.951-3.088-7.787-5.404-11.255c-2.297-3.455-5.161-6.551-8.416-9.122
			c-11.729-9.199-29.708-13.461-44.438-12.372"/>
	</g>
</g>
<g id="AG-OUTLINE">
	<g id="POLYLINE_464_">
		
			<path fill="none" stroke="#FB8604" stroke-width="3.5" stroke-linecap="round" stroke-linejoin="round" stroke-miterlimit="10" d="
			M546.787,255.741c6.768-2.317,14.082-2.443,21.157-2.016c14.921,1.075,29.68,4.858,43.667,10.08
			c13.688,5.256,33.743,14.753,39.443,29.088c0.16,0.079,0.238,0.12,0.238,0.12c0.152,0.085,0.19,0.107,0.19,0.107
			c0.146,0.091,0.182,0.114,0.182,0.114c0.175,0.121,0.209,0.146,0.209,0.146c0.166,0.129,0.198,0.156,0.198,0.156
			c0.157,0.138,0.188,0.166,0.188,0.166c0.149,0.147,0.178,0.177,0.178,0.177c0.14,0.156,0.167,0.188,0.167,0.188
			c0.132,0.165,0.157,0.199,0.157,0.199c0.124,0.175,0.147,0.211,0.147,0.211c0.093,0.147,0.115,0.184,0.115,0.184
			c0.088,0.153,0.109,0.193,0.109,0.193c0.082,0.16,0.122,0.242,0.122,0.242c0.493,1.077,0.636,2.124,0.722,3.199
			c0.08,1.116,0.054,2.269-0.021,3.386c-0.196,2.47-0.567,4.984-1.451,7.309c-0.137,0.34-0.247,0.568-0.331,0.735
			c-0.077,0.144-0.116,0.214-0.116,0.214c-0.078,0.133-0.118,0.197-0.118,0.197c-0.1,0.15-0.12,0.179-0.12,0.179
			c-0.122,0.161-0.143,0.185-0.143,0.185c-0.146,0.159-0.167,0.18-0.167,0.18c-0.17,0.143-0.192,0.159-0.192,0.159
			c-0.346,0.36-0.347,0.769-0.499,1.133c-0.152,0.459-0.367,1.077-0.535,1.529c-0.426,1.149-0.927,2.345-1.442,3.457
			c-1.662,3.577-3.738,6.995-6.136,10.127c-1.472,1.921-3.131,3.764-4.852,5.466c-1.267,1.345-14.503,13.158-16.177,14.697
			c-7.132,6.681-34.268,32.706-41.156,39.519c-1.591,1.627-3.203,3.384-4.608,5.172c-1.693,2.143-3.216,4.475-4.509,6.88
			c-2.384,4.39-4.343,9.994-6.468,14.519c-0.433,0.903-0.961,1.942-1.516,2.749c-0.121,0.172-0.182,0.254-0.182,0.254
			c-0.12,0.157-0.18,0.231-0.18,0.231c-0.148,0.174-0.178,0.207-0.178,0.207c-0.147,0.153-0.176,0.182-0.176,0.182
			c-0.174,0.156-0.203,0.18-0.203,0.18c-0.172,0.125-0.201,0.143-0.201,0.143c-0.17,0.092-0.198,0.105-0.198,0.105
			c-0.168,0.058-0.196,0.065-0.196,0.065c-0.165,0.023-0.176,0.024-0.176,0.024c-0.173-0.009-0.183-0.01-0.183-0.01
			c-0.16-0.036-0.182-0.042-0.182-0.042c-0.169-0.064-0.19-0.074-0.19-0.074c-0.147-0.074-0.189-0.097-0.189-0.097
			c-0.167-0.101-0.209-0.129-0.209-0.129c-0.167-0.113-0.499-0.348-0.499-0.348c-0.167-0.113-0.208-0.14-0.208-0.14
			c-0.167-0.102-0.209-0.125-0.209-0.125c-0.169-0.084-0.19-0.093-0.19-0.093c-0.17-0.062-0.191-0.068-0.191-0.068
			c-0.172-0.035-0.183-0.036-0.183-0.036c-0.174-0.004-0.185-0.004-0.185-0.004c-0.151,0.024-0.177,0.031-0.177,0.031
			c-0.157,0.054-0.183,0.066-0.183,0.066c-0.159,0.083-0.185,0.1-0.185,0.1c-0.16,0.111-0.187,0.132-0.187,0.132
			c-0.162,0.138-0.189,0.163-0.189,0.163c-0.164,0.163-0.191,0.193-0.191,0.193c-0.138,0.155-0.193,0.221-0.193,0.221
			c-0.111,0.139-0.167,0.211-0.167,0.211c-1.139,1.572-1.857,3.285-2.648,5.027c-1.034,2.402-2.956,7.109-4.088,9.38
			c-1.277,2.633-3.301,6.108-4.531,8.76c-1.904,3.971-2.947,8.33-3.608,12.667l-1.399,9.591c-0.236,1.388-0.472,2.949-0.949,4.259
			c-0.066,0.164-0.083,0.203-0.083,0.203c-0.068,0.146-0.085,0.181-0.085,0.181c-0.087,0.157-0.105,0.186-0.105,0.186
			c-0.126,0.173-0.144,0.193-0.144,0.193c-0.169,0.14-0.189,0.15-0.189,0.15c-0.158,0.043-0.178,0.043-0.178,0.043
			c-0.169-0.04-0.18-0.045-0.18-0.045c-0.171-0.113-0.183-0.123-0.183-0.123c-0.154-0.151-0.178-0.178-0.178-0.178
			c-0.122-0.148-0.146-0.18-0.146-0.18c-0.124-0.172-0.175-0.246-0.175-0.246c-0.5-0.755-1.022-1.806-1.498-2.551
			c-0.11-0.169-0.165-0.25-0.165-0.25c-0.11-0.155-0.164-0.229-0.164-0.229c-0.137-0.172-0.164-0.204-0.164-0.204
			c-0.163-0.175-0.177-0.188-0.177-0.188c-0.175-0.148-0.188-0.158-0.188-0.158c-0.173-0.099-0.186-0.105-0.186-0.105
			c-0.176-0.045-0.203-0.047-0.203-0.047c-0.161,0.016-0.187,0.023-0.187,0.023c-0.158,0.069-0.184,0.085-0.184,0.085
			c-0.155,0.12-0.181,0.145-0.181,0.145c-0.152,0.17-0.177,0.202-0.177,0.202c-0.1,0.141-0.124,0.179-0.124,0.179
			c-0.098,0.163-0.122,0.206-0.122,0.206c-0.073,0.136-0.096,0.184-0.096,0.184c-0.6,1.286-0.838,2.435-1.131,3.754
			c-0.376,1.825-0.653,3.797-0.867,5.648c-0.487,4.343-0.739,8.943-0.745,13.314c-0.022,3.749,0.357,8.961,0.482,12.729
			c5.304-0.156,11.011-0.388,16.272-0.998c1.294-0.156,2.743-0.355,4.019-0.595c1.048-0.207,2.141-0.442,3.203-0.565
			c3.109-0.389,6.602-0.149,9.14,1.63c0.174,0.127,0.231,0.171,0.231,0.171c1.428,1.098,2.407,2.609,3.112,4.072
			c0.739,1.554,1.203,3.053,1.608,4.698c0.608,2.598,1.172,5.587,0.511,8.15c-0.05,0.172-0.067,0.228-0.067,0.228
			c-0.055,0.166-0.074,0.22-0.074,0.22c-0.06,0.159-0.081,0.212-0.081,0.212c-0.065,0.153-0.088,0.203-0.088,0.203
			c-0.071,0.147-0.095,0.195-0.095,0.195c-0.076,0.141-0.102,0.187-0.102,0.187c-0.214,0.365-0.468,0.723-0.616,0.914
			c-0.117,0.148-0.175,0.22-0.175,0.22c-0.119,0.14-0.179,0.207-0.179,0.207c-0.121,0.131-0.182,0.195-0.182,0.195
			c-0.123,0.123-0.185,0.182-0.185,0.182c-0.125,0.114-0.188,0.17-0.188,0.17c-0.127,0.106-0.192,0.157-0.192,0.157
			c-0.13,0.098-0.195,0.144-0.195,0.144c-0.132,0.089-0.198,0.132-0.198,0.132c-0.167,0.1-0.201,0.119-0.201,0.119
			c-0.17,0.09-0.204,0.107-0.204,0.107c-0.173,0.079-0.208,0.094-0.208,0.094c-0.175,0.069-0.211,0.082-0.211,0.082
			c-0.142,0.047-0.178,0.058-0.178,0.058c-0.144,0.04-0.18,0.05-0.18,0.05c-0.146,0.034-0.182,0.041-0.182,0.041
			c-0.148,0.027-0.185,0.032-0.185,0.032c-0.149,0.02-0.187,0.024-0.187,0.024c-0.151,0.013-0.189,0.015-0.189,0.015
			c-9.905,0.013-41.778,0.01-52.172,0.001c-0.151-0.009-0.226-0.016-0.226-0.016c-0.15-0.016-0.224-0.026-0.224-0.026
			c-0.148-0.023-0.222-0.036-0.222-0.036c-0.147-0.03-0.221-0.047-0.221-0.047c-0.146-0.037-0.219-0.057-0.219-0.057
			c-0.145-0.044-0.217-0.068-0.217-0.068c-0.144-0.051-0.216-0.078-0.216-0.078c-0.143-0.058-0.214-0.089-0.214-0.089
			c-0.142-0.065-0.212-0.099-0.212-0.099c-0.14-0.072-0.21-0.109-0.21-0.109c-0.139-0.079-0.209-0.12-0.209-0.12
			c-0.138-0.086-0.207-0.13-0.207-0.13c-0.137-0.093-0.205-0.141-0.205-0.141c-0.136-0.099-0.204-0.151-0.204-0.151
			c-1.311-1.045-2.076-2.192-2.847-3.513c-0.854-1.511-1.528-3.155-2.104-4.791c-0.149,0.013-0.199,0.02-0.199,0.02
			c-0.148,0.023-0.197,0.032-0.197,0.032c-0.517,0.104-0.964,0.271-1.388,0.374c-0.155,0.036-0.207,0.047-0.207,0.047
			c-0.158,0.03-0.211,0.038-0.211,0.038c-0.161,0.022-0.216,0.028-0.216,0.028c-0.166,0.012-0.221,0.014-0.221,0.014
			c-0.17,0.001-0.199,0-0.199,0c-0.174-0.011-0.204-0.014-0.204-0.014c-0.149-0.019-0.179-0.023-0.179-0.023
			c-0.167-0.032-0.212-0.042-0.212-0.042c-0.137-0.035-0.184-0.048-0.184-0.048c-0.14-0.044-0.188-0.06-0.188-0.06
			c-0.143-0.053-0.192-0.072-0.192-0.072c-0.146-0.061-0.196-0.083-0.196-0.083c-0.994-0.46-1.77-1.083-2.512-1.709
			c-0.879-0.759-1.72-1.609-2.509-2.46c-6.556-7.237-13.373-18.032-19.034-26.079c-2.437-3.394-4.952-6.921-7.968-9.826
			c-0.966-0.924-2.027-1.731-3.14-2.419c-1.499-0.924-3.4-1.93-4.547-3.222c-1.157-1.272-1.806-2.574-2.558-4.043
			c-1.595-3.201-3.222-7.332-5.719-9.916c-12.549,1.416-28.053,2.41-40.168,5.687c-6.412,1.664-13.009,3.96-19.222,6.272
			c-9.657,3.61-19.622,7.736-28.891,12.257c-0.438,1.816-0.978,4.203-1.568,5.952c-0.419,1.277-1.025,2.741-1.783,3.768
			c-0.13,0.174-0.174,0.23-0.174,0.23c-0.134,0.166-0.179,0.22-0.179,0.22c-1.348,1.588-3.039,2.36-4.721,3.417
			c-1.891,1.131-3.191,2.746-4.338,4.48c-1.269,1.922-3.031,4.948-4.359,6.814c6.548-0.118,13.729-0.256,20.236-0.886
			c1.325-0.14,2.768-0.313,4.07-0.573c1.289-0.295,2.737-0.622,3.969-0.674c1.994-0.124,3.962,0.207,5.56,1.214
			c0.153,0.099,0.203,0.133,0.203,0.133c0.15,0.105,0.199,0.141,0.199,0.141c0.147,0.112,0.196,0.15,0.196,0.15
			c0.145,0.118,0.192,0.159,0.192,0.159c1.125,0.966,1.895,2.225,2.462,3.428c0.718,1.561,1.117,2.943,1.492,4.56
			c0.541,2.456,0.936,5.278,0.225,7.648c-0.057,0.175-0.076,0.233-0.076,0.233c-0.062,0.17-0.083,0.226-0.083,0.226
			c-0.067,0.165-0.09,0.219-0.09,0.219c-0.072,0.159-0.097,0.211-0.097,0.211c-0.077,0.154-0.104,0.204-0.104,0.204
			c-0.083,0.148-0.111,0.197-0.111,0.197c-0.088,0.143-0.118,0.19-0.118,0.19c-0.093,0.138-0.125,0.183-0.125,0.183
			c-0.133,0.176-0.169,0.219-0.169,0.219c-0.149,0.169-0.188,0.21-0.188,0.21c-0.164,0.162-0.207,0.202-0.207,0.202
			c-0.133,0.117-0.179,0.155-0.179,0.155c-0.143,0.113-0.192,0.149-0.192,0.149c-0.152,0.108-0.204,0.144-0.204,0.144
			c-0.161,0.104-0.216,0.138-0.216,0.138c-1.734,1-3.477,1.26-5.347,1.484c-1.069,0.11-2.207,0.162-3.282,0.174
			c-13.349,0.008-45.215,0-58.88,0.003c-0.176-0.005-0.219-0.008-0.219-0.008c-0.173-0.018-0.215-0.024-0.215-0.024
			c-0.17-0.03-0.212-0.039-0.212-0.039c-0.166-0.043-0.208-0.055-0.208-0.055c-0.163-0.055-0.204-0.071-0.204-0.071
			c-0.16-0.068-0.2-0.086-0.2-0.086c-0.157-0.08-0.196-0.102-0.196-0.102c-0.154-0.093-0.192-0.118-0.192-0.118
			c-0.151-0.105-0.188-0.133-0.188-0.133c-0.148-0.118-0.184-0.149-0.184-0.149c-0.145-0.13-0.181-0.165-0.181-0.165
			c-0.142-0.143-0.177-0.18-0.177-0.18c-0.139-0.156-0.173-0.196-0.173-0.196c-0.135-0.168-0.169-0.212-0.169-0.212
			c-0.84-1.131-1.295-2.388-1.675-3.603c-0.221,0.15-0.413,0.271-0.51,0.33c-0.126,0.075-0.189,0.111-0.189,0.111
			c-0.125,0.068-0.188,0.101-0.188,0.101c-0.156,0.076-0.187,0.09-0.187,0.09c-0.155,0.065-0.186,0.077-0.186,0.077
			c-0.154,0.053-0.185,0.063-0.185,0.063c-0.154,0.04-0.185,0.047-0.185,0.047c-0.154,0.026-0.185,0.029-0.185,0.029
			c-0.169,0.01-0.185,0.01-0.185,0.01c-0.168-0.008-0.192-0.011-0.192-0.011c-0.168-0.027-0.192-0.032-0.192-0.032
			c-0.168-0.045-0.192-0.053-0.192-0.053c-0.168-0.062-0.192-0.073-0.192-0.073c-0.168-0.079-0.192-0.092-0.192-0.092
			c-0.144-0.081-0.192-0.11-0.192-0.11c-0.144-0.094-0.192-0.128-0.192-0.128c-0.144-0.107-0.192-0.145-0.192-0.145
			c-0.144-0.119-0.192-0.161-0.192-0.161c-0.144-0.131-0.191-0.177-0.191-0.177c-0.821-0.814-1.328-1.592-1.886-2.46
			c-0.742-1.178-1.497-2.624-2.143-3.867c-2.065-3.988-3.996-8.2-5.523-12.421c-1.268-3.409-2.919-9.008-4.319-12.349
			c-0.403-0.961-0.951-2.132-1.522-2.952c-0.1-0.14-0.15-0.207-0.15-0.207c-0.1-0.129-0.15-0.191-0.15-0.191
			c-0.151-0.174-0.176-0.202-0.176-0.202c-0.151-0.154-0.177-0.178-0.177-0.178c-0.152-0.133-0.177-0.153-0.177-0.153
			c-0.152-0.111-0.178-0.128-0.178-0.128c-0.175-0.099-0.2-0.112-0.2-0.112c-0.174-0.072-0.199-0.081-0.199-0.081
			c-0.151-0.043-0.176-0.049-0.176-0.049c-0.152-0.028-0.178-0.031-0.178-0.031c-0.154-0.015-0.18-0.016-0.18-0.016
			c-0.13-0.004-0.182-0.004-0.182-0.004c-0.159,0.004-0.212,0.007-0.212,0.007c-0.491,0.038-0.972,0.098-1.32,0.093
			c-0.125-0.002-0.188-0.005-0.188-0.005c-0.128-0.008-0.193-0.014-0.193-0.014c-0.164-0.02-0.197-0.025-0.197-0.025
			c-0.168-0.03-0.202-0.037-0.202-0.037c-0.172-0.042-0.207-0.051-0.207-0.051c-0.171-0.053-0.205-0.064-0.205-0.064
			c-0.136-0.05-0.205-0.077-0.205-0.077c-0.139-0.059-0.21-0.09-0.21-0.09c-0.142-0.067-0.214-0.103-0.214-0.103
			c-1.193-0.634-1.976-1.306-2.927-2.084c-1.894-1.576-4.122-3.754-6.207-4.984c-0.382-0.22-0.634-0.341-0.881-0.45
			c-0.175-0.073-0.233-0.096-0.233-0.096c-0.173-0.065-0.23-0.085-0.23-0.085c-1.468-0.519-2.907-0.405-4.387-0.431
			c-0.893-0.011-1.891-0.132-2.67-0.355c-1.177-0.323-2.309-0.826-3.392-1.383c-2.994-1.566-5.782-3.611-8.435-5.693
			c-3.607-2.838-7.048-5.976-9.999-9.498c-1.388,1.675-2.841,2.811-4.53,4.043c-2.595,1.869-5.417,3.607-8.211,5.161
			c-4.543,2.515-9.328,4.746-14.176,6.606c-4.862,1.873-9.942,3.357-15.118,4.027c-2.33,0.314-6.97,0.8-9.201,1.267
			c-2.002,0.391-4.029,0.953-5.96,1.612c-11.149,3.897-21.096,10.916-30.717,17.626c-3.85,2.734-23.1,17.042-26.679,19.177
			c-1.563,0.966-3.223,1.848-4.931,2.528c-2.597,1.04-5.381,1.658-8.14,2.083c-3.305,0.5-6.704,0.731-10.045,0.73
			c-6.748,0.005-13.627-1.006-19.75-3.96c-1.7-0.81-3.372-1.771-4.916-2.85c-1.027-0.711-2.282-1.692-3.072-2.563
			c-0.135-0.152-0.2-0.228-0.2-0.228c-0.124-0.151-0.183-0.227-0.183-0.227c-0.113-0.151-0.166-0.226-0.166-0.226
			c-0.101-0.15-0.125-0.187-0.125-0.187c-0.091-0.149-0.112-0.186-0.112-0.186c-0.08-0.148-0.098-0.185-0.098-0.185
			c-0.069-0.148-0.084-0.184-0.084-0.184c-0.057-0.147-0.07-0.183-0.07-0.183c-0.045-0.146-0.054-0.182-0.054-0.182
			c-0.032-0.145-0.039-0.181-0.039-0.181c-0.021-0.161-0.022-0.179-0.022-0.179c-0.006-0.16-0.006-0.178-0.006-0.178
			c0.012-0.176,0.014-0.193,0.014-0.193c0.032-0.174,0.036-0.191,0.036-0.191c0.048-0.162,0.056-0.185,0.056-0.185
			c0.066-0.16,0.077-0.183,0.077-0.183c0.084-0.158,0.098-0.181,0.098-0.181c0.102-0.157,0.117-0.179,0.117-0.179
			c0.101-0.133,0.137-0.177,0.137-0.177c0.155-0.175,0.197-0.218,0.197-0.218c0.132-0.129,0.178-0.172,0.178-0.172
			c0.145-0.128,0.195-0.17,0.195-0.17c0.157-0.127,0.212-0.169,0.212-0.169c1.762-1.262,3.574-1.87,5.542-2.571
			c2.675-0.937,9.807-2.809,12.625-3.607c4.43-1.286,8.891-2.795,12.916-5.077c4.767-2.676,9.456-6.988,13.647-10.511
			c3.367-2.861,7.012-5.486,10.935-7.531c4.536-2.455,10.777-5.047,15.192-7.706c3.255-1.902,6.762-5.047,9.668-7.464
			c1.973-1.617,4.059-3.134,6.315-4.326c3.936-2.082,8.316-3.484,12.573-4.763c11.052-3.195,22.828-6.257,33.131-11.386
			c3.037-1.542,6.061-3.266,8.575-5.589c1.496-1.412,2.498-2.724,3.412-4.448c0.902-1.726,1.498-3.618,1.958-5.506
			c0.958-3.879,1.964-11.193,2.643-15.234c0.948-5.692,2.087-11.54,3.815-17.048c1.312-4.225,3.053-8.353,5.273-12.181
			c4.123-7.291,10.519-14.592,15.824-21.098c2.083-2.56,4.221-5.342,6.061-8.077c2.995-4.412,6.717-10.714,9.902-14.973
			c2.325-3.151,4.933-6.193,7.75-8.914c2.951-2.864,6.229-5.487,9.56-7.895c7.899-5.675,16.569-10.56,25.256-14.917
			c9.68-4.82,19.841-9.154,30.008-12.837c9.174-3.298,18.671-6.23,28.244-8.116c10.575-2.105,21.531-2.799,32.269-1.715
			c9.825,0.825,24.017,4.437,33.706,6.424c10.936,2.248,22.229,3.93,33.403,2.855c13.88-1.347,27.413-6.027,39.464-12.99
			c2.55-1.497,5.167-3.19,7.541-4.951c2.745-2.015,5.72-4.547,8.319-6.757c-0.827-3.454-0.925-7.84,1.61-10.557
			c0.163-0.171,0.219-0.227,0.219-0.227c2.267-2.229,5.44-2.536,8.354-2.237C542.025,254.177,544.46,254.858,546.787,255.741z"/>
	</g>
</g>
</svg>
