<?xml version="1.0" encoding="utf-8"?>
<!-- Generator: Adobe Illustrator 24.2.1, SVG Export Plug-In . SVG Version: 6.00 Build 0)  -->
<!DOCTYPE svg PUBLIC "-//W3C//DTD SVG 1.1//EN" "http://www.w3.org/Graphics/SVG/1.1/DTD/svg11.dtd" [
	<!ENTITY ns_flows "http://ns.adobe.com/Flows/1.0/">
	<!ENTITY ns_extend "http://ns.adobe.com/Extensibility/1.0/">
	<!ENTITY ns_ai "http://ns.adobe.com/AdobeIllustrator/10.0/">
	<!ENTITY ns_graphs "http://ns.adobe.com/Graphs/1.0/">
	<!ENTITY ns_vars "http://ns.adobe.com/Variables/1.0/">
	<!ENTITY ns_imrep "http://ns.adobe.com/ImageReplacement/1.0/">
	<!ENTITY ns_sfw "http://ns.adobe.com/SaveForWeb/1.0/">
	<!ENTITY ns_custom "http://ns.adobe.com/GenericCustomNamespace/1.0/">
	<!ENTITY ns_adobe_xpath "http://ns.adobe.com/XPath/1.0/">
]>
<svg version="1.1" xmlns:x="&ns_extend;" xmlns:i="&ns_ai;" xmlns:graph="&ns_graphs;"
	 xmlns="http://www.w3.org/2000/svg" xmlns:xlink="http://www.w3.org/1999/xlink" xmlns:a="http://ns.adobe.com/AdobeSVGViewerExtensions/3.0/"
	 x="0px" y="0px" width="750px" height="750px" viewBox="0 0 750 750" enable-background="new 0 0 750 750" xml:space="preserve">
<metadata>
	<sfw  xmlns="&ns_sfw;">
		<slices></slices>
		<sliceSourceBounds  bottomLeftOrigin="true" height="14129.292" width="8606.844" x="-3946.844" y="-6120"></sliceSourceBounds>
	</sfw>
</metadata>
<g id="FILL-BACKGROUND">
	<rect fill="#FFFFFF" width="750" height="750"/>
</g>
<g id="N-TEXT">
</g>
<g id="N-DIMENSIONS">
</g>
<g id="AG-DETAIL-DIAGRAM">
</g>
<g id="AG-DIAGRAM">
	<g id="POLYLINE_1337_">
		<g>
			<g>
				
					<line fill="none" stroke="#FB8604" stroke-width="3.25" stroke-linecap="round" stroke-linejoin="round" x1="284.875" y1="508.202" x2="286.875" y2="508.202"/>
				
					<line fill="none" stroke="#FB8604" stroke-width="3.25" stroke-linecap="round" stroke-linejoin="round" stroke-dasharray="3.9849,6.9736" x1="293.849" y1="508.202" x2="608.161" y2="508.202"/>
				
					<line fill="none" stroke="#FB8604" stroke-width="3.25" stroke-linecap="round" stroke-linejoin="round" x1="611.648" y1="508.202" x2="613.648" y2="508.202"/>
			</g>
		</g>
	</g>
</g>
<g id="AG-DETAILS">
	<g id="POLYLINE_650_">
		<path fill="none" stroke="#FB8604" stroke-width="2" stroke-linecap="round" stroke-linejoin="round" stroke-miterlimit="10" d="
			M667.156,298.877l-3.966,2.673c-2.156,1.483-4.227,3.153-6.053,5.029c-3.449,3.542-6.32,7.704-8.954,11.875
			c-4.302,6.924-8.005,14.366-10.859,22.004c-2.018,5.464-3.644,11.147-4.383,16.934"/>
	</g>
	<g id="POLYLINE_530_">
		<path fill="none" stroke="#FB8604" stroke-width="2" stroke-linecap="round" stroke-linejoin="round" stroke-miterlimit="10" d="
			M670.803,303.261c-1.689,3.692-3.74,8.222-5.112,12.002c-2.255,6.109-4.314,12.718-6.129,18.975
			c-3.206,11.255-6.104,22.935-7.787,34.524"/>
	</g>
	<g id="POLYLINE_529_">
		<path fill="none" stroke="#FB8604" stroke-width="2" stroke-linecap="round" stroke-linejoin="round" stroke-miterlimit="10" d="
			M675.733,308.593c-2.25,11.671-3.981,23.868-5.176,35.694c-0.653,7.245-1.368,14.844-0.97,22.112"/>
	</g>
</g>
<g id="AG-ANIMALS">
	<g id="POLYLINE_1375_">
		
			<path fill="none" stroke="#FB8604" stroke-width="2.75" stroke-linecap="round" stroke-linejoin="round" stroke-miterlimit="10" d="
			M562.373,304.628c-2.138-1.1-3.51-2.844-4.581-4.844c-1.55-2.978-2.241-6.33-2.594-9.645c-0.302-3.043-0.304-6.143,0.163-9.17
			c0.348-2.153,0.984-4.573,2.335-6.262c0.104-0.125,0.157-0.186,0.157-0.186c0.107-0.119,0.161-0.177,0.161-0.177
			c0.11-0.113,0.166-0.168,0.166-0.168c0.113-0.107,0.17-0.159,0.17-0.159c0.116-0.101,0.175-0.15,0.175-0.15
			c0.119-0.095,0.179-0.141,0.179-0.141c0.122-0.089,0.184-0.132,0.184-0.132c0.125-0.083,0.188-0.124,0.188-0.124
			c0.127-0.078,0.192-0.115,0.192-0.115c0.13-0.072,0.196-0.107,0.196-0.107c1.959-0.995,4.133-0.696,6.104-0.07
			c3.519,1.184,6.619,3.387,9.378,5.829c2.752,2.477,5.189,5.341,7.118,8.505c1.888,3.092,3.256,6.548,3.683,10.16
			c0.159,1.304,0.215,2.638,0.113,3.949c-0.083,1.036-0.282,2.189-0.705,3.081c-0.065,0.131-0.082,0.163-0.082,0.163
			c-0.068,0.123-0.086,0.153-0.086,0.153c-0.071,0.115-0.09,0.142-0.09,0.142c-0.093,0.131-0.113,0.156-0.113,0.156
			c-0.098,0.118-0.118,0.14-0.118,0.14c-0.123,0.124-0.144,0.143-0.144,0.143c-0.129,0.104-0.151,0.12-0.151,0.12
			c-0.112,0.071-0.135,0.084-0.135,0.084c-0.116,0.056-0.14,0.066-0.14,0.066c-0.12,0.041-0.145,0.047-0.145,0.047
			c-0.124,0.025-0.15,0.028-0.15,0.028c-0.13,0.009-0.148,0.009-0.148,0.009c-0.127-0.006-0.145-0.008-0.145-0.008
			c-0.13-0.019-0.149-0.023-0.149-0.023c-0.133-0.032-0.152-0.037-0.152-0.037c-0.116-0.036-0.155-0.05-0.155-0.05
			c-0.118-0.045-0.157-0.062-0.157-0.062c-0.12-0.054-0.16-0.073-0.16-0.073c-1.129-0.57-2.013-1.461-3.078-2.061
			c-0.117-0.063-0.155-0.082-0.155-0.082c-0.115-0.055-0.152-0.072-0.152-0.072c-0.112-0.047-0.149-0.061-0.149-0.061
			c-0.128-0.044-0.146-0.049-0.146-0.049c-0.125-0.033-0.142-0.036-0.142-0.036c-0.121-0.02-0.138-0.022-0.138-0.022
			c-0.134-0.007-0.147-0.007-0.147-0.007c-0.129,0.01-0.141,0.012-0.141,0.012c-0.124,0.026-0.136,0.029-0.136,0.029
			c-0.132,0.045-0.144,0.05-0.144,0.05c-0.128,0.061-0.151,0.074-0.151,0.074c-0.113,0.069-0.135,0.084-0.135,0.084
			c-0.132,0.098-0.154,0.115-0.154,0.115c-0.108,0.092-0.15,0.13-0.15,0.13c-0.31,0.293-0.505,0.524-0.761,0.795
			c-0.087,0.09-0.131,0.135-0.131,0.135c-0.134,0.13-0.179,0.172-0.179,0.172c-0.092,0.082-0.138,0.121-0.138,0.121
			c-0.119,0.094-0.143,0.112-0.143,0.112c-0.123,0.085-0.148,0.102-0.148,0.102c-0.128,0.075-0.154,0.089-0.154,0.089
			c-0.133,0.063-0.16,0.074-0.16,0.074c-0.127,0.046-0.144,0.051-0.144,0.051c-0.12,0.031-0.138,0.035-0.138,0.035
			c-0.124,0.022-0.142,0.025-0.142,0.025c-0.109,0.012-0.146,0.015-0.146,0.015c-0.112,0.005-0.15,0.005-0.15,0.005
			c-0.115-0.002-0.153-0.004-0.153-0.004c-0.117-0.008-0.156-0.012-0.156-0.012c-0.119-0.014-0.159-0.019-0.159-0.019
			c-1.241-0.189-2.407-0.841-3.588-1.11c-0.108-0.022-0.144-0.028-0.144-0.028c-0.105-0.017-0.14-0.022-0.14-0.022
			c-0.102-0.011-0.135-0.014-0.135-0.014c-0.12-0.006-0.144-0.007-0.144-0.007c-0.116,0.001-0.138,0.002-0.138,0.002
			c-0.134,0.011-0.155,0.013-0.155,0.013c-0.129,0.02-0.15,0.024-0.15,0.024c-0.125,0.028-0.145,0.033-0.145,0.033
			c-0.101,0.029-0.141,0.041-0.141,0.041c-0.118,0.041-0.157,0.056-0.157,0.056c-0.447,0.178-0.865,0.44-1.255,0.611
			c-0.189,0.082-0.236,0.097-0.311,0.126C566.128,305.841,564.041,305.442,562.373,304.628z"/>
	</g>
	<g id="POLYLINE_1376_">
		
			<path fill="none" stroke="#FB8604" stroke-width="2.75" stroke-linecap="round" stroke-linejoin="round" stroke-miterlimit="10" d="
			M678.215,301.513c-0.104-0.077-0.156-0.117-0.156-0.117c-1.57-1.292-2.431-3.011-3.195-4.764
			c-0.602-1.498-1.184-3.207-1.311-4.802c-0.004-0.11-0.005-0.164-0.005-0.164c0.001-0.106,0.002-0.158,0.002-0.158
			c0.005-0.102,0.009-0.151,0.009-0.151c0.013-0.121,0.016-0.145,0.016-0.145c0.019-0.115,0.024-0.138,0.024-0.138
			c0.032-0.131,0.038-0.152,0.038-0.152c0.041-0.123,0.049-0.143,0.049-0.143c0.06-0.134,0.07-0.152,0.07-0.152
			c0.074-0.123,0.085-0.14,0.085-0.14c0.102-0.128,0.115-0.143,0.115-0.143c0.121-0.113,0.137-0.127,0.137-0.127
			c0.128-0.092,0.149-0.105,0.149-0.105c0.132-0.073,0.155-0.084,0.155-0.084c0.12-0.053,0.145-0.063,0.145-0.063
			c0.128-0.046,0.155-0.055,0.155-0.055c0.108-0.032,0.136-0.04,0.136-0.04c0.113-0.028,0.171-0.041,0.171-0.041
			c0.118-0.023,0.179-0.034,0.179-0.034c0.123-0.019,0.185-0.027,0.185-0.027c1.186-0.127,2.435,0.016,3.519,0.306
			c0.096,0.03,0.143,0.046,0.143,0.046c0.093,0.034,0.139,0.051,0.139,0.051c0.09,0.037,0.135,0.057,0.135,0.057
			c0.131,0.063,0.174,0.085,0.174,0.085c0.127,0.071,0.148,0.084,0.148,0.084c0.123,0.08,0.144,0.094,0.144,0.094
			c0.12,0.089,0.14,0.105,0.14,0.105c0.117,0.1,0.137,0.117,0.137,0.117c0.115,0.11,0.152,0.149,0.152,0.149
			c0.112,0.124,0.149,0.167,0.149,0.167c0.073,0.091,0.11,0.138,0.11,0.138c0.073,0.098,0.109,0.15,0.109,0.15
			c0.072,0.106,0.107,0.162,0.107,0.162c0.817,1.359,1.229,2.815,1.571,4.31c0.292,1.407,0.497,2.961,0.266,4.376
			c-0.025,0.133-0.039,0.198-0.039,0.198c-0.029,0.127-0.045,0.19-0.045,0.19c-0.034,0.122-0.052,0.181-0.052,0.181
			c-0.039,0.116-0.049,0.144-0.049,0.144c-0.043,0.111-0.054,0.138-0.054,0.138c-0.059,0.131-0.072,0.156-0.072,0.156
			c-0.065,0.122-0.079,0.146-0.079,0.146c-0.073,0.116-0.093,0.144-0.093,0.144c-0.101,0.132-0.122,0.156-0.122,0.156
			c-0.11,0.117-0.133,0.139-0.133,0.139c-0.119,0.103-0.144,0.123-0.144,0.123c-0.127,0.089-0.153,0.106-0.153,0.106
			c-0.107,0.062-0.135,0.076-0.135,0.076c-0.112,0.052-0.141,0.064-0.141,0.064c-0.116,0.044-0.146,0.053-0.146,0.053
			c-0.12,0.035-0.151,0.042-0.151,0.042c-0.124,0.026-0.155,0.031-0.155,0.031c-0.127,0.017-0.159,0.02-0.159,0.02
			c-0.13,0.009-0.163,0.01-0.163,0.01c-0.133,0-0.166-0.001-0.166-0.001c-0.101-0.006-0.135-0.008-0.135-0.008
			c-0.102-0.011-0.136-0.015-0.136-0.015c-0.103-0.015-0.138-0.021-0.138-0.021c-0.104-0.02-0.139-0.028-0.139-0.028
			c-0.105-0.025-0.14-0.034-0.14-0.034c-0.105-0.03-0.14-0.041-0.14-0.041c-0.105-0.035-0.141-0.047-0.141-0.047
			c-0.106-0.04-0.141-0.053-0.141-0.053c-0.106-0.044-0.141-0.06-0.141-0.06c-0.105-0.049-0.14-0.066-0.14-0.066
			c-0.105-0.053-0.14-0.072-0.14-0.072c-0.104-0.058-0.139-0.078-0.139-0.078C678.383,301.632,678.368,301.619,678.215,301.513z"/>
	</g>
	<g id="POLYLINE_1377_">
		
			<path fill="none" stroke="#FB8604" stroke-width="2.75" stroke-linecap="round" stroke-linejoin="round" stroke-miterlimit="10" d="
			M445.551,373.186l-1.475,3.258c-1.341,3.018-2.469,6.184-3.09,9.433c-1.098,5.729-1.044,11.66-0.749,17.464
			c0.237,3.888,0.63,7.865,1.434,11.68c0.401,1.762,0.858,3.695,1.799,5.237c0.068,0.103,0.102,0.153,0.102,0.153
			c0.069,0.096,0.104,0.142,0.104,0.142c0.105,0.131,0.141,0.172,0.141,0.172c0.107,0.116,0.143,0.152,0.143,0.152
			c0.109,0.101,0.145,0.131,0.145,0.131c0.111,0.085,0.148,0.11,0.148,0.11c0.112,0.069,0.15,0.089,0.15,0.089
			c0.131,0.059,0.143,0.064,0.143,0.064c0.121,0.04,0.145,0.046,0.145,0.046c0.122,0.026,0.146,0.03,0.146,0.03
			c0.123,0.015,0.147,0.017,0.147,0.017c0.123,0.005,0.148,0.005,0.148,0.005c0.123-0.004,0.148-0.005,0.148-0.005
			c0.098-0.008,0.148-0.014,0.148-0.014c0.289-0.037,0.474-0.079,0.719-0.123c0.092-0.015,0.137-0.022,0.137-0.022
			c0.134-0.017,0.156-0.02,0.156-0.02c0.13-0.009,0.152-0.009,0.152-0.009c0.126,0.002,0.146,0.004,0.146,0.004
			c0.13,0.018,0.14,0.02,0.14,0.02c0.133,0.039,0.143,0.042,0.143,0.042c0.134,0.068,0.143,0.074,0.143,0.074
			c0.131,0.106,0.154,0.129,0.154,0.129c0.107,0.133,0.128,0.163,0.128,0.163c0.078,0.132,0.097,0.167,0.097,0.167
			c0.054,0.114,0.072,0.154,0.072,0.154c0.051,0.127,0.067,0.171,0.067,0.171c0.351,1.087,0.392,2.043,0.478,3.125
			c0.229,4.232,0.082,9.677,0.539,13.871c0.253,2.272,0.62,4.72,1.678,6.758c0.768,1.463,1.806,2.533,3.047,3.474
			c1.706,1.287,3.845,2.377,5.418,3.834c1.959,1.782,3,4.03,3.913,6.42c1.3,3.391,2.634,9.351,3.588,12.903
			c0.448,1.575,0.94,3.183,1.676,4.65c0.756,1.506,1.641,2.652,2.77,3.791l1.831,1.79c1.574,1.562,2.863,3.416,3.735,5.457
			c0.815,1.887,1.619,4.491,2.456,6.364c0.509,1.161,1.217,2.483,2.071,3.381c0.112,0.116,0.168,0.172,0.168,0.172
			c0.115,0.11,0.173,0.163,0.173,0.163c0.118,0.104,0.177,0.154,0.177,0.154c0.121,0.098,0.177,0.141,0.177,0.141
			c0.113,0.084,0.171,0.124,0.171,0.124c0.116,0.079,0.175,0.117,0.175,0.117c0.119,0.074,0.179,0.11,0.179,0.11
			c0.121,0.069,0.182,0.103,0.182,0.103c1.18,0.617,2.291,0.796,3.559,0.976c1.574,0.2,3.38,0.345,4.896,0.778
			c1.175,0.332,2.305,0.857,3.391,1.409c2.125,1.056,4.442,2.566,6.86,2.661c2.63,0.043,5.113-1.448,7.629-2.006
			c0.742-0.178,1.589-0.3,2.334-0.307c1.08-0.016,2.176,0.131,3.24,0.304c1.882,0.28,4.185,0.903,6.057,0.444
			c0.133-0.037,0.165-0.047,0.165-0.047c0.13-0.042,0.161-0.054,0.161-0.054c0.126-0.048,0.158-0.061,0.158-0.061
			c0.123-0.054,0.154-0.068,0.154-0.068c0.12-0.06,0.15-0.075,0.15-0.075c0.113-0.064,0.139-0.079,0.139-0.079
			c0.125-0.08,0.15-0.096,0.15-0.096c0.098-0.069,0.146-0.104,0.146-0.104c0.095-0.074,0.142-0.112,0.142-0.112
			c0.092-0.079,0.138-0.12,0.138-0.12c0.134-0.127,0.178-0.17,0.178-0.17c0.451-0.456,0.796-0.96,1.083-1.386l0.903-1.388
			c0.247-0.373,0.591-0.836,0.814-1.091c0.172-0.2,0.313-0.341,0.408-0.433c0.095-0.089,0.144-0.133,0.144-0.133
			c0.098-0.085,0.148-0.126,0.148-0.126c0.101-0.08,0.152-0.12,0.152-0.12c0.104-0.076,0.157-0.112,0.157-0.112
			c0.108-0.07,0.162-0.104,0.162-0.104c0.111-0.065,0.139-0.081,0.139-0.081c0.114-0.06,0.143-0.075,0.143-0.075
			c0.118-0.055,0.147-0.068,0.147-0.068c0.121-0.05,0.152-0.062,0.152-0.062c0.124-0.045,0.156-0.055,0.156-0.055
			c0.128-0.039,0.16-0.048,0.16-0.048c0.106-0.027,0.147-0.037,0.147-0.037c0.124-0.026,0.166-0.034,0.166-0.034
			c0.127-0.021,0.17-0.027,0.17-0.027c0.13-0.016,0.174-0.02,0.174-0.02c1.506-0.109,2.8,0.265,4.199,0.639
			c1.94,0.519,4.102,1.413,6.11,1.49c0.119-0.001,0.158-0.002,0.158-0.002c0.115-0.005,0.153-0.008,0.153-0.008
			c0.112-0.01,0.148-0.014,0.148-0.014c0.108-0.014,0.143-0.02,0.143-0.02c0.104-0.019,0.138-0.026,0.138-0.026
			c0.133-0.033,0.165-0.043,0.165-0.043c0.125-0.042,0.156-0.054,0.156-0.054c0.118-0.051,0.147-0.065,0.147-0.065
			c0.111-0.061,0.137-0.077,0.137-0.077c0.117-0.081,0.136-0.096,0.136-0.096c0.125-0.109,0.143-0.126,0.143-0.126
			c0.114-0.124,0.129-0.143,0.129-0.143c0.089-0.117,0.103-0.137,0.103-0.137c0.081-0.127,0.094-0.149,0.094-0.149
			c0.062-0.113,0.074-0.136,0.074-0.136c0.057-0.119,0.079-0.167,0.079-0.167c0.042-0.1,0.062-0.151,0.062-0.151
			c0.039-0.104,0.057-0.157,0.057-0.157c0.498-1.521,0.394-3.289,0.828-4.775c0.033-0.103,0.05-0.153,0.05-0.153
			c0.036-0.099,0.054-0.147,0.054-0.147c0.039-0.094,0.059-0.14,0.059-0.14c0.064-0.133,0.075-0.154,0.075-0.154
			c0.071-0.124,0.083-0.143,0.083-0.143c0.089-0.129,0.1-0.143,0.1-0.143c0.106-0.125,0.118-0.138,0.118-0.138
			c0.129-0.123,0.143-0.135,0.143-0.135c0.126-0.098,0.14-0.108,0.14-0.108c0.134-0.086,0.165-0.104,0.165-0.104
			c0.127-0.066,0.159-0.082,0.159-0.082c0.133-0.058,0.167-0.072,0.167-0.072c0.103-0.038,0.138-0.05,0.138-0.05
			c0.915-0.298,1.931-0.28,2.821-0.53c0.113-0.033,0.151-0.045,0.151-0.045c0.111-0.037,0.148-0.05,0.148-0.05
			c0.108-0.041,0.144-0.056,0.144-0.056c0.105-0.046,0.14-0.063,0.14-0.063c0.102-0.052,0.136-0.07,0.136-0.07
			c0.124-0.073,0.144-0.085,0.144-0.085c0.119-0.081,0.138-0.095,0.138-0.095c0.114-0.088,0.151-0.119,0.151-0.119
			c0.109-0.097,0.144-0.13,0.144-0.13c0.103-0.105,0.136-0.141,0.136-0.141c0.098-0.113,0.129-0.152,0.129-0.152
			c0.092-0.121,0.122-0.162,0.122-0.162c0.087-0.128,0.115-0.172,0.115-0.172c0.055-0.09,0.081-0.136,0.081-0.136
			c0.052-0.093,0.077-0.141,0.077-0.141c0.049-0.097,0.073-0.146,0.073-0.146c0.657-1.469,0.691-2.892,0.604-4.414
			c-0.217-2.908-1.266-5.707-2.334-8.396c-2.147-5.164-4.863-11.113-5.967-16.578c-1.763-8.327-1.737-17.092,0.226-25.381
			c0.834-3.47,2.079-6.921,3.402-10.234c0.414-1.013,4.107-10.003,4.402-10.823c0.473-1.177,3.503-9.584,3.998-10.946
			c0.946-2.406,1.942-5.225,3.475-7.292c0.097-0.121,0.13-0.159,0.13-0.159c0.097-0.112,0.13-0.148,0.13-0.148
			c0.097-0.103,0.129-0.136,0.129-0.136c0.129-0.124,0.161-0.153,0.161-0.153c0.128-0.108,0.161-0.133,0.161-0.133
			c0.128-0.092,0.16-0.113,0.16-0.113c0.128-0.076,0.16-0.092,0.16-0.092c0.127-0.059,0.159-0.071,0.159-0.071
			c0.127-0.041,0.158-0.05,0.158-0.05c0.126-0.024,0.158-0.027,0.158-0.027c0.126-0.005,0.157-0.004,0.157-0.004
			c0.125,0.013,0.143,0.016,0.143,0.016c0.123,0.03,0.141,0.035,0.141,0.035c0.123,0.046,0.141,0.053,0.141,0.053
			c0.123,0.061,0.14,0.07,0.14,0.07c0.122,0.075,0.14,0.086,0.14,0.086c0.122,0.087,0.157,0.114,0.157,0.114
			c0.104,0.086,0.139,0.116,0.139,0.116c0.104,0.095,0.139,0.128,0.139,0.128c0.918,0.916,1.59,2.125,2.43,3.046
			c0.102,0.109,0.136,0.144,0.136,0.144c0.102,0.101,0.136,0.134,0.136,0.134c0.102,0.093,0.137,0.122,0.137,0.122
			c0.103,0.083,0.137,0.109,0.137,0.109c0.12,0.084,0.137,0.095,0.137,0.095c0.12,0.071,0.137,0.08,0.137,0.08
			c0.12,0.057,0.137,0.064,0.137,0.064c0.115,0.04,0.138,0.047,0.138,0.047c0.116,0.026,0.139,0.03,0.139,0.03
			c0.116,0.012,0.139,0.013,0.139,0.013c0.117-0.002,0.14-0.003,0.14-0.003c0.117-0.015,0.141-0.019,0.141-0.019
			c0.118-0.028,0.142-0.035,0.142-0.035c0.119-0.04,0.143-0.049,0.143-0.049c0.12-0.052,0.144-0.064,0.144-0.064
			c0.121-0.064,0.146-0.078,0.146-0.078c0.122-0.075,0.147-0.092,0.147-0.092c0.099-0.068,0.149-0.105,0.149-0.105
			c0.1-0.077,0.151-0.117,0.151-0.117c0.102-0.085,0.153-0.13,0.153-0.13c1.219-1.127,2.442-2.908,3.482-4.187
			c1.112-1.398,2.323-2.77,3.641-3.978c4.872-4.509,12.43-8.63,18.084-12.152c2.11-1.334,4.272-2.722,6.152-4.353
			c1.843-1.555,3.686-3.839,5.315-5.63c0.857-0.926,1.78-1.812,2.781-2.58c1.828-1.4,3.907-2.521,5.968-3.539
			c6.553-3.144,14.542-6.053,21.175-9.045c8.301-3.741,16.589-7.949,23.889-13.428c3.274-2.474,6.347-5.287,8.821-8.575
			c2.989-3.825,5.333-8.765,8.261-12.55c1.627-2.117,3.939-3.844,5.915-5.616c1.335-1.198,2.634-2.641,3.412-4.248
			c0.84-1.716,1.193-3.572,1.344-5.458"/>
	</g>
	<g id="POLYLINE_1378_">
		
			<path fill="none" stroke="#FB8604" stroke-width="2.75" stroke-linecap="round" stroke-linejoin="round" stroke-miterlimit="10" d="
			M679.597,290.379c-1.378-4.103-3.778-8.071-7.547-10.364c-2.316-1.448-5.029-2.113-7.725-2.374
			c-3.359-0.372-8.968-0.171-12.392-0.191c-6.989,0.092-15.342-1.639-22.263-2.776c-4.68-0.744-9.513-1.286-14.254-1.282
			c-13.193,0.053-26.304,2.935-38.715,7.29"/>
	</g>
	<g id="POLYLINE_1379_">
		
			<path fill="none" stroke="#FB8604" stroke-width="2.75" stroke-linecap="round" stroke-linejoin="round" stroke-miterlimit="10" d="
			M503.56,504.449c0.573,0.999,1.334,1.829,2.17,2.429c0.898,0.651,1.951,1.022,2.923,1.191c12.482,0.367,53.974,0.013,67.202,0.132
			c1.473,0.006,3.115-0.224,4.402-0.885c0.13-0.068,0.194-0.103,0.194-0.103c0.126-0.072,0.188-0.109,0.188-0.109
			c0.122-0.076,0.182-0.114,0.182-0.114c0.118-0.079,0.177-0.12,0.177-0.12c0.115-0.083,0.171-0.126,0.171-0.126
			c0.111-0.087,0.165-0.131,0.165-0.131c0.107-0.091,0.159-0.137,0.159-0.137c0.103-0.094,0.153-0.143,0.153-0.143
			c0.099-0.098,0.147-0.148,0.147-0.148c0.095-0.102,0.141-0.154,0.141-0.154c0.091-0.106,0.135-0.16,0.135-0.16
			c0.087-0.11,0.13-0.165,0.13-0.165c0.083-0.113,0.124-0.171,0.124-0.171c0.079-0.117,0.118-0.177,0.118-0.177
			c0.075-0.121,0.112-0.182,0.112-0.182c0.071-0.125,0.106-0.188,0.106-0.188c0.067-0.128,0.1-0.194,0.1-0.194
			c0.604-1.247,0.747-2.475,0.897-3.792c0.227-2.23-0.122-4.717-1.132-6.67c-0.555-1.123-1.305-2.075-2.177-2.793
			c-1.022-0.848-2.235-1.368-3.4-1.647c-1.936-0.435-3.922-0.432-5.892-0.398c-2.12,0.06-4.362,0.257-6.47,0.5
			c-1.94,0.233-3.972,0.541-5.926,0.602c-3.899,0.152-7.892-0.35-11.482-1.937"/>
	</g>
	<g id="POLYLINE_1380_">
		
			<path fill="none" stroke="#FB8604" stroke-width="2.75" stroke-linecap="round" stroke-linejoin="round" stroke-miterlimit="10" d="
			M356.431,362.532c7.398-2.371,15.979-3.337,22.868,0.963c3.539,2.156,6.47,5.197,9.002,8.448c2.998,3.902,5.56,8.186,7.728,12.6
			c1.081,2.253,2.066,4.611,2.705,7.029c0.376,1.447,0.643,2.949,0.619,4.449c-0.013,1.153-0.239,2.297-0.691,3.235
			c-0.426,0.935-1.199,1.752-1.855,2.353c-1.681,1.538-4.154,2.829-5.574,4.594c-0.307,0.388-0.493,0.686-0.673,1.042
			c-0.057,0.118-0.077,0.163-0.077,0.163c-0.459,1.017-0.556,2.137-0.545,3.142c0.016,1.118,0.175,2.264,0.359,3.366
			c0.493,2.894,1.299,6.122,1.312,9.056c0.018,2.292-0.445,4.574-1.119,6.757c-0.945,3.088-2.701,6.997-3.758,10.053
			c-0.887,2.52-1.545,5.194-2.091,7.808c-1.227,5.915-2.268,13.536-4.336,19.199c-0.722,1.958-1.594,4.052-2.966,5.628
			c-0.116,0.127-0.175,0.188-0.175,0.188c-0.118,0.119-0.177,0.176-0.177,0.176c-0.119,0.11-0.179,0.163-0.179,0.163
			c-0.121,0.102-0.181,0.151-0.181,0.151c-0.122,0.093-0.153,0.115-0.153,0.115c-0.123,0.086-0.154,0.106-0.154,0.106
			c-0.125,0.078-0.156,0.097-0.156,0.097c-0.126,0.07-0.158,0.087-0.158,0.087c-0.127,0.062-0.159,0.077-0.159,0.077
			c-0.128,0.054-0.161,0.067-0.161,0.067c-0.13,0.046-0.162,0.056-0.162,0.056c-0.131,0.037-0.164,0.046-0.164,0.046
			c-0.132,0.029-0.165,0.035-0.165,0.035c-0.133,0.02-0.167,0.024-0.167,0.024c-0.12,0.01-0.145,0.012-0.145,0.012
			c-0.097,0.003-0.146,0.004-0.146,0.004c-0.098-0.002-0.147-0.004-0.147-0.004c-0.098-0.006-0.148-0.011-0.148-0.011
			c-0.099-0.011-0.148-0.017-0.148-0.017c-0.099-0.015-0.149-0.023-0.149-0.023c-1.497-0.284-2.776-1.198-4.206-1.508
			c-0.097-0.019-0.146-0.028-0.146-0.028c-0.096-0.015-0.145-0.022-0.145-0.022c-0.096-0.011-0.143-0.016-0.143-0.016
			c-0.095-0.007-0.142-0.009-0.142-0.009c-0.117-0.002-0.141-0.002-0.141-0.002c-0.116,0.004-0.14,0.006-0.14,0.006
			c-0.115,0.011-0.138,0.014-0.138,0.014c-0.114,0.018-0.137,0.022-0.137,0.022c-0.113,0.025-0.135,0.031-0.135,0.031
			c-0.117,0.034-0.146,0.044-0.146,0.044c-0.115,0.043-0.144,0.055-0.144,0.055c-0.114,0.051-0.142,0.065-0.142,0.065
			c-0.112,0.059-0.14,0.075-0.14,0.075c-0.111,0.067-0.138,0.085-0.138,0.085c-0.109,0.075-0.137,0.094-0.137,0.094
			c-0.108,0.082-0.135,0.103-0.135,0.103c-0.133,0.112-0.186,0.159-0.186,0.159c-0.105,0.098-0.157,0.15-0.157,0.15
			c-0.103,0.106-0.155,0.161-0.155,0.161c-0.102,0.114-0.152,0.172-0.152,0.172c-0.942,1.145-1.493,2.341-2.097,3.655
			c-0.859,1.917-1.816,4.579-2.793,6.432c-0.995,2.03-5.165,8.051-6.429,10.041c-0.815,1.194-1.806,2.614-2.812,3.588
			c-0.148,0.14-0.245,0.223-0.296,0.267c-0.096,0.079-0.144,0.117-0.144,0.117c-0.095,0.072-0.141,0.106-0.141,0.106
			c-0.093,0.064-0.139,0.094-0.139,0.094c-0.113,0.069-0.136,0.082-0.136,0.082c-0.133,0.07-0.155,0.08-0.155,0.08
			c-0.129,0.054-0.15,0.062-0.15,0.062c-0.125,0.039-0.145,0.044-0.145,0.044c-0.118,0.022-0.137,0.025-0.137,0.025
			c-0.134,0.009-0.152,0.009-0.152,0.009c-0.13-0.007-0.148-0.009-0.148-0.009c-0.128-0.021-0.146-0.025-0.146-0.025
			c-0.108-0.027-0.144-0.037-0.144-0.037c-0.259-0.081-0.429-0.16-0.649-0.246c-0.113-0.042-0.151-0.056-0.151-0.056
			c-0.116-0.038-0.155-0.05-0.155-0.05c-0.12-0.032-0.14-0.037-0.14-0.037c-0.124-0.025-0.145-0.029-0.145-0.029
			c-0.128-0.017-0.15-0.018-0.15-0.018c-0.134-0.006-0.156-0.006-0.156-0.006c-0.116,0.004-0.139,0.006-0.139,0.006
			c-0.115,0.013-0.138,0.016-0.138,0.016c-0.116,0.021-0.14,0.026-0.14,0.026c-0.096,0.022-0.144,0.035-0.144,0.035
			c-0.099,0.029-0.149,0.044-0.149,0.044c-0.101,0.034-0.153,0.053-0.153,0.053c-2.408,1-4.408,3.098-6.839,3.945
			c-0.118,0.037-0.176,0.054-0.176,0.054c-0.195,0.054-0.318,0.077-0.42,0.096c-0.133,0.021-0.177,0.027-0.177,0.027
			c-0.131,0.015-0.174,0.019-0.174,0.019c-0.129,0.009-0.172,0.011-0.172,0.011c-1.428,0.045-2.798-0.542-4.189-0.254
			c-1.598,0.323-2.936,1.239-4.269,2.069c-1.014,0.668-3.778,2.55-4.794,3.127c-0.921,0.538-2.024,1.109-3.023,1.328
			c-0.127,0.026-0.169,0.034-0.169,0.034c-0.125,0.021-0.166,0.027-0.166,0.027c-0.123,0.015-0.163,0.02-0.163,0.02
			c-0.12,0.01-0.16,0.012-0.16,0.012c-0.118,0.004-0.157,0.004-0.157,0.004c-0.103-0.002-0.153-0.004-0.153-0.004
			c-0.1-0.007-0.15-0.012-0.15-0.012c-0.098-0.012-0.147-0.019-0.147-0.019c-0.096-0.017-0.144-0.026-0.144-0.026
			c-0.095-0.021-0.142-0.033-0.142-0.033c-0.093-0.025-0.139-0.039-0.139-0.039c-0.091-0.03-0.136-0.045-0.136-0.045
			c-0.134-0.051-0.178-0.069-0.178-0.069c-0.131-0.058-0.174-0.079-0.174-0.079c-0.128-0.065-0.17-0.088-0.17-0.088
			c-0.126-0.071-0.167-0.096-0.167-0.096c-0.123-0.077-0.164-0.104-0.164-0.104c-1.009-0.673-1.773-1.609-2.734-2.26
			c-0.122-0.08-0.163-0.105-0.163-0.105c-0.124-0.074-0.166-0.098-0.166-0.098c-0.126-0.069-0.169-0.09-0.169-0.09
			c-0.129-0.062-0.172-0.082-0.172-0.082c-0.091-0.039-0.137-0.057-0.137-0.057c-0.092-0.035-0.139-0.052-0.139-0.052
			c-0.094-0.032-0.141-0.046-0.141-0.046c-0.93-0.273-1.748-0.244-2.631-0.206c-1.27,0.071-2.921,0.28-4.121-0.054
			c-1.704-0.452-2.936-1.65-3.933-2.953c-0.95-1.242-1.807-2.815-2.247-4.235c-0.582-1.829-0.67-3.644-0.277-5.499
			c0.358-1.755,1.126-3.757,1.615-5.482c0.309-1.102,0.596-2.37,0.457-3.489c-0.019-0.134-0.03-0.2-0.03-0.2
			c-0.025-0.131-0.032-0.164-0.032-0.164c-0.032-0.133-0.04-0.166-0.04-0.166c-0.038-0.132-0.048-0.165-0.048-0.165
			c-0.043-0.13-0.055-0.162-0.055-0.162c-0.049-0.127-0.075-0.19-0.075-0.19c-0.056-0.125-0.085-0.187-0.085-0.187
			c-0.062-0.123-0.094-0.184-0.094-0.184c-0.068-0.121-0.104-0.181-0.104-0.181c-0.074-0.119-0.112-0.178-0.112-0.178
			c-0.08-0.117-0.121-0.175-0.121-0.175c-1.015-1.38-2.743-2.589-3.994-3.673c-0.764-0.647-1.54-1.351-2.23-2.075
			c-0.79-0.822-1.514-1.733-2.17-2.665c-1.497-2.107-3.064-4.939-4.428-7.146c-0.478-0.761-1.041-1.632-1.624-2.295
			c-0.115-0.127-0.172-0.187-0.172-0.187c-0.113-0.114-0.168-0.168-0.168-0.168c-0.11-0.101-0.138-0.124-0.138-0.124
			c-0.108-0.089-0.135-0.11-0.135-0.11c-0.133-0.095-0.159-0.112-0.159-0.112c-0.13-0.076-0.156-0.089-0.156-0.089
			c-0.127-0.056-0.152-0.066-0.152-0.066c-0.124-0.036-0.149-0.041-0.149-0.041c-0.121-0.015-0.145-0.016-0.145-0.016
			c-0.118,0.007-0.142,0.01-0.142,0.01c-0.126,0.033-0.137,0.037-0.137,0.037c-0.133,0.061-0.144,0.068-0.144,0.068
			c-0.13,0.086-0.14,0.094-0.14,0.094c-0.127,0.107-0.147,0.126-0.147,0.126c-0.123,0.126-0.144,0.149-0.144,0.149
			c-0.101,0.118-0.141,0.167-0.141,0.167c-0.397,0.51-0.687,1.042-1.014,1.468c-0.091,0.114-0.109,0.135-0.109,0.135
			c-0.109,0.12-0.127,0.139-0.127,0.139c-0.128,0.114-0.137,0.121-0.137,0.121c-0.129,0.084-0.138,0.089-0.138,0.089
			c-0.13,0.049-0.139,0.051-0.139,0.051c-0.125,0.01-0.141,0.009-0.141,0.009c-0.134-0.03-0.151-0.036-0.151-0.036
			c-0.119-0.058-0.136-0.068-0.136-0.068c-0.12-0.087-0.138-0.101-0.138-0.101c-0.122-0.114-0.139-0.133-0.139-0.133
			c-0.106-0.119-0.124-0.14-0.124-0.14c-0.071-0.09-0.107-0.138-0.107-0.138c-0.072-0.1-0.108-0.153-0.108-0.153
			c-0.557-0.847-0.91-1.683-1.321-2.58c-0.988-2.218-1.988-4.756-3.301-6.789c-1.212-1.924-3.069-3.623-4.527-5.356
			c-0.849-1.018-1.577-2.154-2.073-3.387c-0.799-2.004-1.073-4.128-1.338-6.246c-0.208-1.899-0.545-5.651-0.837-7.487
			c-0.208-1.301-0.502-2.809-1.097-3.931c-0.072-0.13-0.097-0.172-0.097-0.172c-0.076-0.123-0.101-0.163-0.101-0.163
			c-0.079-0.115-0.106-0.153-0.106-0.153c-0.082-0.108-0.11-0.142-0.11-0.142c-0.115-0.132-0.145-0.163-0.145-0.163
			c-0.121-0.118-0.152-0.146-0.152-0.146c-0.118-0.097-0.136-0.11-0.136-0.11c-0.126-0.088-0.144-0.1-0.144-0.1
			c-0.131-0.077-0.15-0.088-0.15-0.088c-0.115-0.058-0.154-0.076-0.154-0.076c-0.119-0.05-0.159-0.066-0.159-0.066
			c-0.122-0.043-0.163-0.056-0.163-0.056c-0.125-0.036-0.167-0.047-0.167-0.047c-0.127-0.03-0.17-0.039-0.17-0.039
			c-0.129-0.024-0.173-0.031-0.173-0.031c-0.687-0.105-1.358-0.071-2.023-0.081c-0.215-0.002-0.538-0.02-0.687-0.038
			c-0.123-0.015-0.164-0.021-0.164-0.021c-0.12-0.019-0.16-0.027-0.16-0.027c-0.117-0.025-0.155-0.034-0.155-0.034
			c-0.113-0.03-0.15-0.041-0.15-0.041c-0.109-0.036-0.145-0.05-0.145-0.05c-0.122-0.051-0.14-0.059-0.14-0.059
			c-0.134-0.069-0.15-0.078-0.15-0.078c-0.111-0.07-0.136-0.088-0.136-0.088c-0.124-0.098-0.147-0.118-0.147-0.118
			c-0.115-0.112-0.137-0.136-0.137-0.136c-0.106-0.126-0.127-0.153-0.127-0.153c-0.079-0.111-0.098-0.14-0.098-0.14
			c-0.074-0.12-0.091-0.151-0.091-0.151c-0.068-0.129-0.085-0.162-0.085-0.162c-0.048-0.102-0.063-0.137-0.063-0.137
			c-0.045-0.107-0.059-0.144-0.059-0.144c-0.371-1.02-0.413-1.984-0.433-2.986c-0.007-1.386,0.138-2.811,0.324-4.184
			c0.935-6.691,3.416-14.679,5.172-21.245c1.074-4.062,1.96-8.307,2.469-12.479c0.951-7.663,1.517-16.553,4.263-23.777
			c3.013-8.021,8.863-14.586,15.021-20.381c5.815-5.366,12.14-10.639,18.534-15.3c5.592-4.025,11.546-7.732,17.946-10.328
			c3.362-1.368,6.937-2.457,10.455-3.351c3.768-0.997,13.065-2.837,16.966-3.673c0,0,15.522-3.49,15.522-3.49
			c8.215-1.804,16.932-3.532,25.305-4.325c8.635-0.937,21.661-0.519,30.405-0.519c4.547-0.03,9.258-0.175,13.763-0.791
			c2.904-0.391,5.912-1.066,8.749-1.805l9.04-2.462c3.961-1.021,8.047-1.816,12.144-1.931c8.604-0.234,18.078,2.337,26.56,3.591
			c3.546,0.505,7.207,0.908,10.77,0.35c2.978-0.449,5.814-1.608,8.493-2.951c2.285-1.157,5.469-2.855,7.792-3.826
			c3.102-1.332,6.437-2.496,9.664-3.488c6.962-2.133,14.189-3.71,21.445-4.384"/>
	</g>
	<g id="POLYLINE_1381_">
		
			<path fill="none" stroke="#FB8604" stroke-width="2.75" stroke-linecap="round" stroke-linejoin="round" stroke-miterlimit="10" d="
			M381.472,463.04l6.475-1.187c3.163-0.616,6.348-1.442,9.357-2.6c3.617-1.349,9.059-4.226,12.579-5.938
			c1.42-0.673,2.971-1.391,4.449-1.909c1.048-0.362,2.261-0.719,3.306-0.672c0.131,0.009,0.173,0.013,0.173,0.013
			c0.125,0.016,0.166,0.022,0.166,0.022c0.109,0.02,0.143,0.027,0.143,0.027c0.132,0.033,0.164,0.042,0.164,0.042
			c0.126,0.04,0.157,0.051,0.157,0.051c0.12,0.047,0.149,0.059,0.149,0.059c0.115,0.053,0.143,0.067,0.143,0.067
			c0.11,0.058,0.137,0.073,0.137,0.073c0.131,0.079,0.157,0.096,0.157,0.096c0.101,0.068,0.15,0.103,0.15,0.103
			c0.097,0.072,0.145,0.109,0.145,0.109c0.284,0.226,0.521,0.454,0.762,0.667c0.193,0.167,0.235,0.199,0.315,0.262
			c0.093,0.07,0.14,0.103,0.14,0.103c0.12,0.08,0.145,0.096,0.145,0.096c0.125,0.073,0.151,0.087,0.151,0.087
			c0.131,0.065,0.157,0.077,0.157,0.077c0.109,0.045,0.137,0.056,0.137,0.056c0.114,0.038,0.143,0.047,0.143,0.047
			c0.124,0.032,0.149,0.038,0.149,0.038c0.129,0.025,0.156,0.029,0.156,0.029c0.107,0.014,0.135,0.017,0.135,0.017
			c0.083,0.007,0.139,0.011,0.139,0.011c0.114,0.005,0.172,0.006,0.172,0.006c0.118-0.001,0.178-0.002,0.178-0.002
			c0.122-0.006,0.184-0.01,0.184-0.01c0.964-0.087,1.706-0.333,2.585-0.635c1.355-0.466,4.289-1.812,5.641-2.396
			c4.905-2.201,13.727-4.479,18.94-6.074"/>
	</g>
	<g id="POLYLINE_1382_">
		
			<path fill="none" stroke="#FB8604" stroke-width="2.75" stroke-linecap="round" stroke-linejoin="round" stroke-miterlimit="10" d="
			M328.817,505.807c1.92,0.893,3.969,1.548,6.051,1.936c1.292,0.241,2.632,0.387,3.945,0.437c13.639,0.057,50.053,0.007,64.15,0.018
			c0.92-0.019,1.756-0.142,2.519-0.391c0.349-0.117,0.631-0.244,0.865-0.369c0.132-0.073,0.175-0.098,0.175-0.098
			c0.127-0.078,0.168-0.104,0.168-0.104c0.122-0.082,0.162-0.11,0.162-0.11c0.117-0.087,0.156-0.116,0.156-0.116
			c0.113-0.091,0.149-0.122,0.149-0.122c0.108-0.096,0.143-0.128,0.143-0.128c0.103-0.1,0.137-0.134,0.137-0.134
			c0.098-0.105,0.13-0.14,0.13-0.14c0.094-0.109,0.124-0.146,0.124-0.146c0.089-0.114,0.118-0.152,0.118-0.152
			c0.084-0.118,0.111-0.158,0.111-0.158c0.079-0.122,0.105-0.164,0.105-0.164c0.074-0.127,0.099-0.17,0.099-0.17
			c0.608-1.174,0.832-2.424,0.965-3.626c0.137-1.392,0.093-2.815-0.041-4.206c-0.222-2.243-0.674-4.778-2.029-6.569
			c-0.095-0.121-0.128-0.161-0.128-0.161c-0.098-0.116-0.131-0.154-0.131-0.154c-0.101-0.111-0.135-0.147-0.135-0.147
			c-0.104-0.106-0.139-0.14-0.139-0.14c-0.106-0.1-0.142-0.133-0.142-0.133c-0.109-0.095-0.146-0.126-0.146-0.126
			c-0.112-0.09-0.15-0.119-0.15-0.119c-0.115-0.085-0.153-0.112-0.153-0.112c-0.117-0.08-0.157-0.105-0.157-0.105
			c-0.124-0.075-0.167-0.1-0.167-0.1c-0.089-0.048-0.135-0.072-0.135-0.072c-0.934-0.448-1.754-0.593-2.715-0.754
			c-1.217-0.184-2.49-0.266-3.72-0.308c-2.484-0.096-5.103,0.052-7.585,0.105c-1.735,0.006-3.554-0.121-5.279-0.311
			c-8.051-0.943-16.021-3.206-23.735-5.641"/>
	</g>
	<g id="POLYLINE_1383_">
		
			<path fill="none" stroke="#FB8604" stroke-width="2.75" stroke-linecap="round" stroke-linejoin="round" stroke-miterlimit="10" d="
			M285.383,462.404c-2.18,0.139-4.643,0.107-6.797,0.461c-4.421,0.688-10.93,2.519-15.343,3.323
			c-1.358,0.252-2.801,0.492-4.176,0.603c-0.892,0.071-1.974,0.101-2.785-0.076c-0.095-0.022-0.141-0.033-0.141-0.033
			c-0.134-0.037-0.177-0.051-0.177-0.051c-0.124-0.043-0.164-0.058-0.164-0.058c-0.115-0.049-0.151-0.066-0.151-0.066
			c-0.104-0.054-0.137-0.073-0.137-0.073c-0.121-0.079-0.142-0.095-0.142-0.095c-0.117-0.098-0.135-0.115-0.135-0.115
			c-0.116-0.125-0.132-0.144-0.132-0.144c-0.085-0.115-0.098-0.135-0.098-0.135c-0.072-0.122-0.083-0.142-0.083-0.142
			c-0.062-0.126-0.071-0.148-0.071-0.148c-0.045-0.108-0.062-0.152-0.062-0.152c-0.081-0.219-0.179-0.579-0.218-0.707
			c-0.04-0.128-0.054-0.169-0.054-0.169c-0.045-0.122-0.053-0.142-0.053-0.142c-0.051-0.116-0.06-0.135-0.06-0.135
			c-0.069-0.126-0.08-0.144-0.08-0.144c-0.095-0.13-0.102-0.138-0.102-0.138c-0.131-0.127-0.139-0.133-0.139-0.133
			c-0.133-0.088-0.153-0.099-0.153-0.099c-0.132-0.061-0.155-0.07-0.155-0.07c-0.123-0.041-0.148-0.048-0.148-0.048
			c-0.134-0.032-0.162-0.038-0.162-0.038c-0.115-0.019-0.145-0.024-0.145-0.024c-0.123-0.014-0.154-0.017-0.154-0.017
			c-0.742-0.05-1.342,0.046-2.033,0.152c-2.434,0.428-5.661,1.284-8.097,1.616c-2.402,0.371-4.863,0.361-7.274,0.084
			c-4.197-0.461-8.675-1.654-12.9-1.85c-4.154-0.234-8.289,0.724-12.262,1.847c-4.692,1.353-10.704,3.421-15.503,3.966
			c-5.12,0.666-11.307,0.441-16.427,1.115c-5.294,0.689-10.481,2.284-15.337,4.487c-4.442,2.038-8.732,4.679-11.973,8.388
			c-3.342,3.699-5.782,8.878-8.233,13.193c-0.96,1.638-1.992,3.417-3.342,4.748c-0.128,0.12-0.192,0.177-0.192,0.177
			c-0.128,0.11-0.192,0.163-0.192,0.163c-0.128,0.1-0.191,0.147-0.191,0.147c-0.127,0.089-0.159,0.111-0.159,0.111
			c-0.127,0.08-0.158,0.099-0.158,0.099c-0.126,0.071-0.158,0.088-0.158,0.088c-0.126,0.062-0.157,0.076-0.157,0.076
			c-0.126,0.052-0.159,0.064-0.159,0.064c-0.133,0.044-0.166,0.054-0.166,0.054c-0.133,0.034-0.166,0.041-0.166,0.041
			c-0.132,0.024-0.165,0.029-0.165,0.029c-0.132,0.015-0.165,0.017-0.165,0.017c-0.132,0.006-0.165,0.007-0.165,0.007
			c-0.131-0.002-0.164-0.003-0.164-0.003c-0.131-0.009-0.164-0.012-0.164-0.012c-0.131-0.015-0.197-0.024-0.197-0.024
			c-0.131-0.022-0.196-0.034-0.196-0.034c-0.706-0.143-1.466-0.452-2.096-0.581c-0.132-0.026-0.199-0.038-0.199-0.038
			c-0.133-0.02-0.199-0.028-0.199-0.028c-0.133-0.013-0.174-0.016-0.174-0.016c-0.123-0.006-0.165-0.007-0.165-0.007
			c-0.124,0-0.165,0.001-0.165,0.001c-0.124,0.005-0.166,0.008-0.166,0.008c-0.125,0.011-0.167,0.015-0.167,0.015
			c-0.126,0.016-0.168,0.022-0.168,0.022c-0.126,0.021-0.169,0.029-0.169,0.029c-1.241,0.262-2.181,0.823-3.226,1.418
			c-3.256,1.955-6.65,4.153-10.441,4.831c-1.707,0.321-3.485,0.206-5.103-0.251c-3.288-0.906-6.494-2.791-9.723-3.867
			c-2.495-0.888-5.101-1.113-7.732-1.135c-1.908-0.053-4.348,0.102-6.194-0.395c-0.133-0.04-0.197-0.061-0.197-0.061
			c-0.127-0.044-0.189-0.068-0.189-0.068c-0.121-0.049-0.18-0.074-0.18-0.074c-0.115-0.053-0.143-0.067-0.143-0.067
			c-0.125-0.066-0.156-0.083-0.156-0.083c-0.123-0.074-0.153-0.093-0.153-0.093c-0.116-0.079-0.144-0.1-0.144-0.1
			c-0.109-0.085-0.135-0.107-0.135-0.107c-0.126-0.113-0.151-0.136-0.151-0.136c-0.116-0.121-0.138-0.146-0.138-0.146
			c-0.106-0.128-0.126-0.154-0.126-0.154c-0.078-0.108-0.096-0.135-0.096-0.135c-0.071-0.112-0.088-0.141-0.088-0.141
			c-0.065-0.117-0.08-0.146-0.08-0.146c-0.058-0.121-0.072-0.152-0.072-0.152c-0.052-0.125-0.064-0.157-0.064-0.157
			c-0.046-0.129-0.056-0.162-0.056-0.162c-0.04-0.133-0.049-0.167-0.049-0.167c-0.026-0.102-0.033-0.137-0.033-0.137
			c-0.022-0.105-0.029-0.14-0.029-0.14c-0.175-1.023-0.02-1.924,0.229-2.863c0.31-1.114,0.791-2.189,1.325-3.212
			c1.069-2.026,2.41-3.943,3.815-5.749c0.88-1.137,2.515-3.021,3.195-4.257c0.068-0.129,0.09-0.171,0.09-0.171
			c0.06-0.125,0.079-0.166,0.079-0.166c0.052-0.121,0.068-0.161,0.068-0.161c0.043-0.117,0.056-0.155,0.056-0.155
			c0.039-0.131,0.044-0.15,0.044-0.15c0.028-0.126,0.031-0.144,0.031-0.144c0.016-0.121,0.017-0.138,0.017-0.138
			c0.003-0.131,0.003-0.147,0.003-0.147c-0.013-0.124-0.016-0.139-0.016-0.139c-0.035-0.131-0.04-0.145-0.04-0.145
			c-0.065-0.134-0.073-0.147-0.073-0.147c-0.103-0.132-0.11-0.14-0.11-0.14c-0.127-0.117-0.145-0.131-0.145-0.131
			c-0.131-0.095-0.15-0.108-0.15-0.108c-0.102-0.064-0.145-0.089-0.145-0.089c-0.191-0.111-0.631-0.327-0.742-0.385
			c-0.141-0.074-0.231-0.127-0.275-0.152c-0.13-0.081-0.15-0.095-0.15-0.095c-0.12-0.087-0.14-0.102-0.14-0.102
			c-0.126-0.11-0.143-0.126-0.143-0.126c-0.114-0.129-0.121-0.138-0.121-0.138c-0.084-0.132-0.089-0.142-0.089-0.142
			c-0.052-0.124-0.056-0.135-0.056-0.135c-0.03-0.123-0.032-0.135-0.032-0.135c-0.011-0.108-0.011-0.139-0.011-0.139
			c0.006-0.129,0.009-0.162,0.009-0.162c0.016-0.103,0.023-0.138,0.023-0.138c0.026-0.108,0.036-0.145,0.036-0.145
			c0.036-0.113,0.049-0.152,0.049-0.152c0.045-0.118,0.062-0.159,0.062-0.159c0.055-0.123,0.074-0.165,0.074-0.165
			c0.527-1.042,1.174-1.79,1.882-2.659c1.36-1.608,3.764-4.18,5.115-5.782c1.389-1.682,3.006-3.597,3.66-5.66
			c0.036-0.13,0.052-0.194,0.052-0.194c0.03-0.128,0.043-0.191,0.043-0.191c0.024-0.125,0.035-0.188,0.035-0.188
			c0.019-0.123,0.027-0.185,0.027-0.185c0.014-0.121,0.019-0.182,0.019-0.182c0.009-0.119,0.012-0.179,0.012-0.179
			c0.004-0.117,0.005-0.176,0.005-0.176c0.008-1.044-0.292-1.868-0.564-2.803c-0.043-0.146-0.119-0.445-0.136-0.534
			c-0.026-0.131-0.034-0.174-0.034-0.174c-0.021-0.129-0.026-0.172-0.026-0.172c-0.014-0.128-0.018-0.171-0.018-0.171
			c-0.007-0.127-0.008-0.169-0.008-0.169c0.001-0.126,0.002-0.168,0.002-0.168c0.009-0.125,0.012-0.146,0.012-0.146
			c0.017-0.125,0.021-0.146,0.021-0.146c0.026-0.125,0.031-0.145,0.031-0.145c0.036-0.124,0.042-0.145,0.042-0.145
			c0.046-0.124,0.054-0.145,0.054-0.145c0.046-0.103,0.063-0.137,0.063-0.137c0.073-0.134,0.093-0.168,0.093-0.168
			c0.064-0.101,0.086-0.134,0.086-0.134c0.071-0.101,0.097-0.134,0.097-0.134c0.079-0.101,0.107-0.135,0.107-0.135
			c0.086-0.101,0.116-0.135,0.116-0.135c1.063-1.115,2.267-1.776,3.542-2.545c2.164-1.244,4.963-2.707,6.968-4.152
			c1.456-1.034,2.837-2.325,3.533-3.905c0.852-1.732,0.966-3.974,1.764-5.643c0.058-0.112,0.087-0.167,0.087-0.167
			c0.062-0.108,0.093-0.162,0.093-0.162c0.066-0.105,0.1-0.157,0.1-0.157c0.071-0.102,0.107-0.152,0.107-0.152
			c0.076-0.098,0.115-0.147,0.115-0.147c0.102-0.118,0.123-0.141,0.123-0.141c0.109-0.114,0.131-0.136,0.131-0.136
			c0.116-0.109,0.14-0.13,0.14-0.13c0.11-0.092,0.148-0.123,0.148-0.123c0.117-0.088,0.157-0.117,0.157-0.117
			c0.123-0.084,0.166-0.111,0.166-0.111c1.457-0.871,2.986-1.06,4.577-1.277c4.695-0.512,9.869-0.356,14.497-1.356
			c5.618-1.146,10.742-4.469,15.977-6.655c2.705-1.133,5.571-1.856,8.513-1.911c7.013-0.222,14.197,2.057,21.208,1.218
			c2.606-0.337,5.136-1.22,7.565-2.199c2.192-0.874,4.922-2.127,7.236-2.603c2.217-0.486,4.379-0.154,6.527,0.409l4.237,1.162
			c3.49,0.933,7.186,1.085,10.783,1.142c3.132,0.04,9.332,0.021,12.386,0.264c2.371,0.153,4.824,0.491,7.16,0.93l6.301,1.249
			c2.862,0.5,6.103,1.128,8.909,0.21c2.177-0.748,3.7-2.258,5.149-3.867l1.087-1.243"/>
	</g>
</g>
<g id="AG-OUTLINE">
	<g id="POLYLINE_179_">
		
			<path fill="none" stroke="#FB8604" stroke-width="3.5" stroke-linecap="round" stroke-linejoin="round" stroke-miterlimit="10" d="
			M576.701,280.682c12.411-4.354,25.522-7.237,38.715-7.29c4.74-0.003,9.576,0.538,14.254,1.283
			c6.912,1.135,15.271,2.868,22.263,2.776c3.463,0.024,9.013-0.18,12.392,0.191c2.695,0.261,5.409,0.926,7.725,2.374
			c3.77,2.294,6.169,6.261,7.547,10.364c0.129,0.081,0.15,0.096,0.15,0.096c0.125,0.091,0.146,0.107,0.146,0.107
			c0.122,0.102,0.142,0.12,0.142,0.12c0.119,0.114,0.139,0.134,0.139,0.134c0.117,0.126,0.155,0.171,0.155,0.171
			c0.076,0.093,0.114,0.142,0.114,0.142c0.075,0.101,0.113,0.154,0.113,0.154c0.075,0.11,0.112,0.167,0.112,0.167
			c0.074,0.119,0.111,0.18,0.111,0.18c0.78,1.401,1.169,2.784,1.503,4.313c0.269,1.352,0.453,2.849,0.23,4.203
			c-0.025,0.133-0.039,0.198-0.039,0.198c-0.029,0.127-0.045,0.19-0.045,0.19c-0.034,0.122-0.052,0.181-0.052,0.181
			c-0.039,0.116-0.049,0.144-0.049,0.144c-0.043,0.111-0.054,0.138-0.054,0.138c-0.059,0.131-0.072,0.156-0.072,0.156
			c-0.065,0.122-0.079,0.146-0.079,0.146c-0.077,0.121-0.088,0.137-0.088,0.137c-0.096,0.126-0.108,0.142-0.108,0.142
			c-0.117,0.128-0.131,0.141-0.131,0.141c-0.127,0.113-0.142,0.125-0.142,0.125c-0.12,0.088-0.136,0.098-0.136,0.098
			c-0.127,0.076-0.143,0.085-0.143,0.085c-0.133,0.064-0.15,0.072-0.15,0.072c-0.144,1.918-0.55,3.927-1.436,5.639
			c-0.885,1.718-2.189,3.065-3.612,4.329c-1.902,1.668-4.078,3.345-5.624,5.354c-2.81,3.624-5.083,8.34-7.846,11.996
			c-2.44,3.36-5.49,6.255-8.777,8.778c-7.409,5.658-15.874,9.957-24.349,13.779c-6.636,2.993-14.617,5.898-21.175,9.045
			c-2.06,1.017-4.14,2.139-5.968,3.539c-1.001,0.767-1.926,1.654-2.781,2.58c-1.606,1.771-3.481,4.08-5.315,5.63
			c-1.877,1.629-4.053,3.028-6.152,4.353c-5.826,3.636-13.445,7.75-18.411,12.457c-1.189,1.124-2.295,2.393-3.314,3.673
			c-0.975,1.205-2.365,3.176-3.482,4.187c-0.102,0.088-0.153,0.13-0.153,0.13c-0.101,0.08-0.151,0.117-0.151,0.117
			c-0.124,0.088-0.149,0.105-0.149,0.105c-0.123,0.077-0.147,0.092-0.147,0.092c-0.121,0.066-0.146,0.078-0.146,0.078
			c-0.12,0.054-0.144,0.064-0.144,0.064c-0.119,0.042-0.143,0.049-0.143,0.049c-0.118,0.03-0.142,0.035-0.142,0.035
			c-0.117,0.017-0.141,0.019-0.141,0.019c-0.117,0.004-0.14,0.003-0.14,0.003c-0.116-0.01-0.139-0.013-0.139-0.013
			c-0.116-0.024-0.139-0.03-0.139-0.03c-0.115-0.038-0.138-0.047-0.138-0.047c-0.12-0.055-0.137-0.064-0.137-0.064
			c-0.12-0.069-0.137-0.08-0.137-0.08c-0.103-0.07-0.137-0.095-0.137-0.095c-0.103-0.081-0.137-0.109-0.137-0.109
			c-0.102-0.09-0.137-0.122-0.137-0.122c-0.927-0.902-1.617-2.15-2.461-3.073c-0.104-0.111-0.138-0.147-0.138-0.147
			c-0.104-0.103-0.138-0.137-0.138-0.137c-0.104-0.095-0.139-0.125-0.139-0.125c-0.104-0.086-0.139-0.113-0.139-0.113
			c-0.122-0.087-0.139-0.099-0.139-0.099c-0.122-0.075-0.14-0.084-0.14-0.084c-0.123-0.061-0.14-0.068-0.14-0.068
			c-0.123-0.046-0.141-0.051-0.141-0.051c-0.123-0.03-0.141-0.033-0.141-0.033c-0.125-0.013-0.157-0.014-0.157-0.014
			c-0.126,0.005-0.157,0.009-0.157,0.009c-0.126,0.024-0.158,0.032-0.158,0.032c-0.127,0.041-0.159,0.054-0.159,0.054
			c-0.127,0.059-0.159,0.076-0.159,0.076c-0.128,0.076-0.16,0.097-0.16,0.097c-0.128,0.092-0.16,0.117-0.16,0.117
			c-0.128,0.108-0.161,0.137-0.161,0.137c-0.129,0.124-0.161,0.157-0.161,0.157c-0.097,0.103-0.129,0.139-0.129,0.139
			c-0.829,0.975-1.277,1.91-1.808,2.986c-0.682,1.432-1.329,3.089-1.894,4.577c-0.498,1.369-3.561,9.876-3.998,10.947
			c-0.83,2.18-4.131,10.079-4.973,12.275c-1.1,2.846-2.117,5.816-2.831,8.783c-1.964,8.289-1.989,17.054-0.227,25.381
			c1.095,5.452,3.833,11.437,5.967,16.578c1.056,2.658,2.092,5.423,2.326,8.294c0.113,1.445,0.035,3.078-0.534,4.381
			c3.59,1.587,7.583,2.089,11.482,1.937c1.596-0.055,3.281-0.258,4.865-0.474c2.186-0.272,4.509-0.503,6.709-0.599
			c2.219-0.073,4.541-0.116,6.714,0.369c1.222,0.29,2.311,0.804,3.208,1.494c0.987,0.754,1.722,1.726,2.246,2.708
			c1.142,2.16,1.451,4.398,1.268,6.755c-0.118,1.263-0.319,2.682-0.847,3.812c-0.064,0.132-0.096,0.197-0.096,0.197
			c-0.067,0.128-0.102,0.192-0.102,0.192c-0.071,0.125-0.108,0.186-0.108,0.186c-0.075,0.121-0.114,0.18-0.114,0.18
			c-0.079,0.117-0.12,0.175-0.12,0.175c-0.083,0.113-0.126,0.169-0.126,0.169c-0.087,0.11-0.132,0.163-0.132,0.163
			c-0.091,0.106-0.137,0.158-0.137,0.158c-0.095,0.102-0.143,0.152-0.143,0.152c-0.099,0.098-0.149,0.146-0.149,0.146
			c-0.103,0.094-0.155,0.141-0.155,0.141c-0.107,0.091-0.161,0.135-0.161,0.135c-0.111,0.087-0.167,0.129-0.167,0.129
			c-0.115,0.083-0.173,0.124-0.173,0.124c-0.118,0.079-0.179,0.118-0.179,0.118c-0.122,0.076-0.185,0.112-0.185,0.112
			c-0.126,0.072-0.19,0.107-0.19,0.107c-1.162,0.616-2.316,0.825-3.561,0.921c-14.708-0.013-52.87,0.203-68.046-0.079
			c-2.035-0.285-3.796-1.48-4.862-3.078c-0.213-0.263-0.271-0.599-0.53-0.516c-0.254,0.066-0.611,0.153-0.852,0.195
			c-1.105,0.219-2.188,0.159-3.192-0.131c-1.77-0.491-3.582-1.572-5.218-2.398c-1.085-0.551-2.216-1.077-3.391-1.409
			c-1.52-0.434-3.327-0.579-4.896-0.778c-1.167-0.148-2.553-0.42-3.559-0.976c-0.122-0.068-0.182-0.103-0.182-0.103
			c-0.12-0.072-0.179-0.11-0.179-0.11c-0.117-0.077-0.175-0.117-0.175-0.117c-0.114-0.082-0.171-0.124-0.171-0.124
			c-0.117-0.092-0.177-0.141-0.177-0.141c-0.119-0.102-0.177-0.154-0.177-0.154c-0.116-0.108-0.173-0.163-0.173-0.163
			c-0.113-0.114-0.168-0.172-0.168-0.172c-0.958-1.046-1.504-2.131-2.071-3.381c-0.836-1.87-1.641-4.479-2.456-6.364
			c-0.872-2.041-2.161-3.896-3.735-5.457l-1.831-1.79c-1.095-1.078-2.132-2.477-2.77-3.791c-0.736-1.467-1.227-3.075-1.676-4.65
			c-1.01-3.744-2.323-9.702-3.719-13.248c-0.589-1.532-1.374-3.196-2.346-4.494c-1.719-2.367-4.388-3.622-6.685-5.288
			c-0.972-0.705-1.965-1.652-2.602-2.589c-0.708-1.027-1.105-1.974-1.441-3.091c-5.264,1.611-14.001,3.862-18.94,6.074
			c-1.368,0.591-4.27,1.924-5.641,2.396c-0.756,0.271-1.683,0.549-2.46,0.624c-0.126,0.011-0.187,0.015-0.187,0.015
			c-0.122,0.006-0.182,0.007-0.182,0.007c-0.118,0.001-0.176,0-0.176,0c-0.114-0.005-0.17-0.009-0.17-0.009
			c-0.11-0.01-0.137-0.014-0.137-0.014c-0.133-0.02-0.159-0.024-0.159-0.024c-0.128-0.027-0.153-0.033-0.153-0.033
			c-0.132-0.038-0.161-0.047-0.161-0.047c-0.112-0.041-0.14-0.052-0.14-0.052c-0.134-0.061-0.16-0.074-0.16-0.074
			c-0.128-0.069-0.153-0.084-0.153-0.084c-0.123-0.077-0.147-0.093-0.147-0.093c-0.095-0.066-0.142-0.101-0.142-0.101
			c-0.344-0.26-0.738-0.649-0.983-0.85c-0.093-0.076-0.14-0.114-0.14-0.114c-0.096-0.073-0.145-0.109-0.145-0.109
			c-0.099-0.069-0.15-0.103-0.15-0.103c-0.13-0.08-0.157-0.096-0.157-0.096c-0.109-0.059-0.137-0.073-0.137-0.073
			c-0.114-0.054-0.143-0.067-0.143-0.067c-0.119-0.048-0.149-0.059-0.149-0.059c-0.125-0.041-0.157-0.051-0.157-0.051
			c-0.131-0.034-0.164-0.042-0.164-0.042c-0.103-0.02-0.143-0.027-0.143-0.027c-0.124-0.017-0.166-0.022-0.166-0.022
			c-0.129-0.011-0.173-0.013-0.173-0.013c-1.215-0.029-2.233,0.316-3.306,0.672c-1.476,0.518-3.032,1.238-4.449,1.91
			c-3.797,1.845-9.247,4.755-13.166,6.158c-2.825,1.044-5.815,1.802-8.77,2.38l-6.475,1.187c-0.545,1.997-1.187,4.013-2.031,5.905
			c-0.543,1.208-1.258,2.539-2.133,3.505c-0.115,0.123-0.172,0.183-0.172,0.183c-0.116,0.116-0.175,0.171-0.175,0.171
			c-0.118,0.107-0.177,0.159-0.177,0.159c-0.119,0.099-0.179,0.147-0.179,0.147c-0.121,0.091-0.151,0.112-0.151,0.112
			c-0.122,0.083-0.152,0.103-0.152,0.103c-0.123,0.076-0.154,0.094-0.154,0.094c-0.124,0.068-0.155,0.085-0.155,0.085
			c-0.125,0.061-0.157,0.075-0.157,0.075c-0.127,0.053-0.159,0.065-0.159,0.065c-0.128,0.045-0.16,0.055-0.16,0.055
			c-0.129,0.037-0.162,0.045-0.162,0.045c-0.13,0.028-0.163,0.034-0.163,0.034c-0.132,0.02-0.165,0.023-0.165,0.023
			c-0.12,0.01-0.145,0.012-0.145,0.012c-0.097,0.003-0.146,0.004-0.146,0.004c-0.098-0.002-0.147-0.004-0.147-0.004
			c-0.098-0.006-0.148-0.011-0.148-0.011c-0.099-0.011-0.148-0.017-0.148-0.017c-0.099-0.015-0.149-0.023-0.149-0.023
			c-1.497-0.284-2.776-1.198-4.206-1.508c-0.097-0.019-0.146-0.028-0.146-0.028c-0.096-0.015-0.145-0.022-0.145-0.022
			c-0.096-0.011-0.143-0.016-0.143-0.016c-0.095-0.007-0.142-0.009-0.142-0.009c-0.117-0.002-0.141-0.002-0.141-0.002
			c-0.116,0.004-0.14,0.006-0.14,0.006c-0.115,0.011-0.138,0.014-0.138,0.014c-0.114,0.018-0.137,0.022-0.137,0.022
			c-0.113,0.025-0.135,0.031-0.135,0.031c-0.117,0.034-0.146,0.044-0.146,0.044c-0.115,0.043-0.144,0.055-0.144,0.055
			c-0.114,0.051-0.142,0.065-0.142,0.065c-0.112,0.059-0.14,0.075-0.14,0.075c-0.111,0.067-0.138,0.085-0.138,0.085
			c-0.109,0.075-0.137,0.094-0.137,0.094c-0.108,0.082-0.135,0.103-0.135,0.103c-0.133,0.112-0.186,0.159-0.186,0.159
			c-0.105,0.098-0.157,0.15-0.157,0.15c-0.103,0.106-0.155,0.161-0.155,0.161c-0.102,0.114-0.152,0.172-0.152,0.172
			c-0.782,0.947-1.24,1.855-1.76,2.922c-0.948,1.982-1.907,4.708-2.883,6.677c7.716,2.436,15.684,4.698,23.735,5.641
			c1.726,0.19,3.544,0.318,5.279,0.311c1.961-0.033,4.103-0.16,6.067-0.134c2.38,0.046,4.993,0.082,7.267,0.806
			c0.278,0.097,0.477,0.184,0.639,0.262c0.093,0.047,0.138,0.071,0.138,0.071c0.129,0.074,0.17,0.099,0.17,0.099
			c0.119,0.077,0.158,0.104,0.158,0.104c0.116,0.082,0.154,0.11,0.154,0.11c0.113,0.087,0.151,0.117,0.151,0.117
			c0.111,0.093,0.147,0.124,0.147,0.124c0.108,0.098,0.143,0.131,0.143,0.131c0.105,0.103,0.14,0.138,0.14,0.138
			c0.102,0.108,0.136,0.145,0.136,0.145c0.1,0.113,0.132,0.152,0.132,0.152c0.796,0.955,1.252,2.108,1.561,3.18
			c0.337,1.189,0.507,2.369,0.628,3.589c0.233,2.53,0.233,5.394-0.854,7.7c-0.07,0.131-0.094,0.174-0.094,0.174
			c-0.074,0.127-0.1,0.169-0.1,0.169c-0.079,0.122-0.106,0.163-0.106,0.163c-0.084,0.118-0.113,0.157-0.113,0.157
			c-0.089,0.114-0.119,0.151-0.119,0.151c-0.094,0.109-0.126,0.145-0.126,0.145c-0.098,0.105-0.132,0.139-0.132,0.139
			c-0.103,0.1-0.138,0.133-0.138,0.133c-0.108,0.096-0.145,0.127-0.145,0.127c-0.113,0.091-0.151,0.121-0.151,0.121
			c-0.117,0.087-0.157,0.115-0.157,0.115c-0.122,0.082-0.164,0.109-0.164,0.109c-0.127,0.078-0.17,0.103-0.17,0.103
			c-1.007,0.588-2.206,0.774-3.246,0.825c-11.55,0.034-51.106,0-63.312,0.012c-1.566,0-3.159-0.128-4.702-0.395
			c-2.204-0.38-4.374-1.056-6.401-1.999c-1.474,0.934-3.101,2.02-4.821,2.345c-0.111,0.017-0.147,0.022-0.147,0.022
			c-0.109,0.012-0.145,0.016-0.145,0.016c-0.107,0.008-0.142,0.01-0.142,0.01c-0.105,0.003-0.14,0.003-0.14,0.003
			c-0.103-0.002-0.153-0.004-0.153-0.004c-0.1-0.007-0.15-0.012-0.15-0.012c-0.098-0.012-0.147-0.019-0.147-0.019
			c-0.096-0.017-0.144-0.026-0.144-0.026c-0.095-0.021-0.142-0.033-0.142-0.033c-0.093-0.025-0.139-0.039-0.139-0.039
			c-0.091-0.03-0.136-0.045-0.136-0.045c-0.134-0.051-0.178-0.069-0.178-0.069c-0.131-0.058-0.174-0.079-0.174-0.079
			c-0.128-0.065-0.17-0.088-0.17-0.088c-0.126-0.071-0.167-0.096-0.167-0.096c-0.123-0.077-0.164-0.104-0.164-0.104
			c-1.009-0.673-1.773-1.609-2.734-2.26c-0.122-0.08-0.163-0.105-0.163-0.105c-0.124-0.074-0.166-0.098-0.166-0.098
			c-0.126-0.069-0.169-0.09-0.169-0.09c-0.129-0.062-0.172-0.082-0.172-0.082c-0.091-0.039-0.137-0.057-0.137-0.057
			c-0.092-0.035-0.139-0.052-0.139-0.052c-0.094-0.032-0.141-0.046-0.141-0.046c-0.93-0.273-1.748-0.244-2.631-0.206
			c-1.27,0.071-2.921,0.28-4.121-0.054c-1.704-0.452-2.936-1.65-3.933-2.953c-0.95-1.242-1.807-2.815-2.247-4.235
			c-0.582-1.829-0.67-3.644-0.277-5.499c0.358-1.755,1.126-3.757,1.615-5.482c0.309-1.102,0.596-2.37,0.457-3.489
			c-0.019-0.134-0.03-0.2-0.03-0.2c-0.025-0.131-0.032-0.164-0.032-0.164c-0.032-0.133-0.04-0.166-0.04-0.166
			c-0.038-0.132-0.048-0.165-0.048-0.165c-0.043-0.13-0.055-0.162-0.055-0.162c-0.049-0.127-0.075-0.19-0.075-0.19
			c-0.056-0.125-0.085-0.187-0.085-0.187c-0.062-0.123-0.094-0.184-0.094-0.184c-0.068-0.121-0.104-0.181-0.104-0.181
			c-0.074-0.119-0.112-0.178-0.112-0.178c-0.08-0.117-0.121-0.175-0.121-0.175c-1.015-1.38-2.743-2.589-3.994-3.673
			c-0.764-0.647-1.54-1.351-2.23-2.075c-0.79-0.822-1.514-1.733-2.17-2.665c-1.497-2.107-3.064-4.939-4.428-7.146
			c-0.478-0.761-1.041-1.632-1.624-2.295c-0.115-0.127-0.172-0.187-0.172-0.187c-0.113-0.114-0.168-0.168-0.168-0.168
			c-0.11-0.101-0.138-0.124-0.138-0.124c-0.108-0.089-0.135-0.11-0.135-0.11c-0.133-0.095-0.159-0.112-0.159-0.112
			c-0.13-0.076-0.156-0.089-0.156-0.089c-0.127-0.056-0.152-0.066-0.152-0.066c-0.124-0.036-0.149-0.041-0.149-0.041
			c-0.121-0.015-0.145-0.016-0.145-0.016c-0.118,0.007-0.142,0.01-0.142,0.01c-0.126,0.033-0.137,0.037-0.137,0.037
			c-0.133,0.061-0.144,0.068-0.144,0.068c-0.13,0.086-0.14,0.094-0.14,0.094c-0.127,0.107-0.147,0.126-0.147,0.126
			c-0.123,0.126-0.144,0.149-0.144,0.149c-0.101,0.118-0.141,0.167-0.141,0.167c-0.397,0.51-0.687,1.042-1.014,1.468
			c-0.091,0.114-0.109,0.135-0.109,0.135c-0.109,0.12-0.127,0.139-0.127,0.139c-0.128,0.114-0.137,0.121-0.137,0.121
			c-0.129,0.084-0.138,0.089-0.138,0.089c-0.13,0.049-0.139,0.051-0.139,0.051c-0.134,0.009-0.141,0.009-0.141,0.009
			c-0.133-0.029-0.14-0.031-0.14-0.031c-0.128-0.061-0.135-0.065-0.135-0.065c-0.129-0.092-0.144-0.104-0.144-0.104
			c-0.131-0.123-0.146-0.138-0.146-0.138c-0.103-0.116-0.133-0.152-0.133-0.152c-0.09-0.115-0.12-0.156-0.12-0.156
			c-0.45-0.645-0.669-1.129-0.982-1.771c-2.18,0.139-4.643,0.107-6.797,0.461c-4.421,0.688-10.93,2.519-15.343,3.323
			c-1.358,0.252-2.801,0.492-4.176,0.603c-0.892,0.071-1.974,0.101-2.785-0.076c-0.095-0.022-0.141-0.033-0.141-0.033
			c-0.134-0.037-0.177-0.051-0.177-0.051c-0.124-0.043-0.164-0.058-0.164-0.058c-0.115-0.049-0.151-0.066-0.151-0.066
			c-0.104-0.054-0.137-0.073-0.137-0.073c-0.121-0.079-0.142-0.095-0.142-0.095c-0.117-0.098-0.135-0.115-0.135-0.115
			c-0.116-0.125-0.132-0.144-0.132-0.144c-0.085-0.115-0.098-0.135-0.098-0.135c-0.072-0.122-0.083-0.142-0.083-0.142
			c-0.062-0.126-0.071-0.148-0.071-0.148c-0.045-0.108-0.062-0.152-0.062-0.152c-0.081-0.219-0.179-0.579-0.218-0.707
			c-0.04-0.128-0.054-0.169-0.054-0.169c-0.045-0.122-0.053-0.142-0.053-0.142c-0.051-0.116-0.06-0.135-0.06-0.135
			c-0.069-0.126-0.08-0.144-0.08-0.144c-0.095-0.13-0.102-0.138-0.102-0.138c-0.131-0.127-0.139-0.133-0.139-0.133
			c-0.133-0.088-0.153-0.099-0.153-0.099c-0.132-0.061-0.155-0.07-0.155-0.07c-0.123-0.041-0.148-0.048-0.148-0.048
			c-0.134-0.032-0.162-0.038-0.162-0.038c-0.115-0.019-0.145-0.024-0.145-0.024c-0.123-0.014-0.154-0.017-0.154-0.017
			c-0.742-0.05-1.342,0.046-2.033,0.152c-2.434,0.428-5.661,1.284-8.097,1.616c-2.402,0.371-4.863,0.361-7.274,0.084
			c-4.197-0.461-8.675-1.654-12.9-1.85c-4.154-0.234-8.289,0.724-12.262,1.847c-4.692,1.353-10.704,3.421-15.503,3.966
			c-5.12,0.666-11.307,0.441-16.427,1.115c-5.294,0.689-10.481,2.284-15.337,4.487c-4.442,2.038-8.732,4.679-11.973,8.388
			c-3.342,3.699-5.782,8.878-8.233,13.193c-0.96,1.638-1.992,3.417-3.342,4.748c-0.128,0.12-0.192,0.177-0.192,0.177
			c-0.128,0.11-0.192,0.163-0.192,0.163c-0.128,0.1-0.191,0.147-0.191,0.147c-0.127,0.089-0.159,0.111-0.159,0.111
			c-0.127,0.08-0.158,0.099-0.158,0.099c-0.126,0.071-0.158,0.088-0.158,0.088c-0.126,0.062-0.157,0.076-0.157,0.076
			c-0.126,0.052-0.159,0.064-0.159,0.064c-0.133,0.044-0.166,0.054-0.166,0.054c-0.133,0.034-0.166,0.041-0.166,0.041
			c-0.132,0.024-0.165,0.029-0.165,0.029c-0.132,0.015-0.165,0.017-0.165,0.017c-0.132,0.006-0.165,0.007-0.165,0.007
			c-0.131-0.002-0.164-0.003-0.164-0.003c-0.131-0.009-0.164-0.012-0.164-0.012c-0.131-0.015-0.197-0.024-0.197-0.024
			c-0.131-0.022-0.196-0.034-0.196-0.034c-0.706-0.143-1.466-0.452-2.096-0.581c-0.132-0.026-0.199-0.038-0.199-0.038
			c-0.133-0.02-0.199-0.028-0.199-0.028c-0.133-0.013-0.174-0.016-0.174-0.016c-0.123-0.006-0.165-0.007-0.165-0.007
			c-0.124,0-0.165,0.001-0.165,0.001c-0.124,0.005-0.166,0.008-0.166,0.008c-0.125,0.011-0.167,0.015-0.167,0.015
			c-0.126,0.016-0.168,0.022-0.168,0.022c-0.126,0.021-0.169,0.029-0.169,0.029c-1.241,0.262-2.181,0.823-3.226,1.418
			c-3.256,1.955-6.65,4.153-10.441,4.831c-1.707,0.321-3.485,0.206-5.103-0.251c-3.288-0.906-6.494-2.791-9.723-3.867
			c-2.495-0.888-5.101-1.113-7.732-1.135c-1.908-0.053-4.348,0.102-6.194-0.395c-0.133-0.04-0.197-0.061-0.197-0.061
			c-0.127-0.044-0.189-0.068-0.189-0.068c-0.121-0.049-0.18-0.074-0.18-0.074c-0.115-0.053-0.143-0.067-0.143-0.067
			c-0.125-0.066-0.156-0.083-0.156-0.083c-0.123-0.074-0.153-0.093-0.153-0.093c-0.116-0.079-0.144-0.1-0.144-0.1
			c-0.109-0.085-0.135-0.107-0.135-0.107c-0.126-0.113-0.151-0.136-0.151-0.136c-0.116-0.121-0.138-0.146-0.138-0.146
			c-0.106-0.128-0.126-0.154-0.126-0.154c-0.078-0.108-0.096-0.135-0.096-0.135c-0.071-0.112-0.088-0.141-0.088-0.141
			c-0.065-0.117-0.08-0.146-0.08-0.146c-0.058-0.121-0.072-0.152-0.072-0.152c-0.052-0.125-0.064-0.157-0.064-0.157
			c-0.046-0.129-0.056-0.162-0.056-0.162c-0.04-0.133-0.049-0.167-0.049-0.167c-0.026-0.102-0.033-0.137-0.033-0.137
			c-0.022-0.105-0.029-0.14-0.029-0.14c-0.175-1.023-0.02-1.924,0.229-2.863c0.31-1.114,0.791-2.189,1.325-3.212
			c1.069-2.026,2.41-3.943,3.815-5.749c0.88-1.137,2.515-3.021,3.195-4.257c0.068-0.129,0.09-0.171,0.09-0.171
			c0.06-0.125,0.079-0.166,0.079-0.166c0.052-0.121,0.068-0.161,0.068-0.161c0.043-0.117,0.056-0.155,0.056-0.155
			c0.039-0.131,0.044-0.15,0.044-0.15c0.028-0.126,0.031-0.144,0.031-0.144c0.016-0.121,0.017-0.138,0.017-0.138
			c0.003-0.131,0.003-0.147,0.003-0.147c-0.013-0.124-0.016-0.139-0.016-0.139c-0.035-0.131-0.04-0.145-0.04-0.145
			c-0.065-0.134-0.073-0.147-0.073-0.147c-0.103-0.132-0.11-0.14-0.11-0.14c-0.127-0.117-0.145-0.131-0.145-0.131
			c-0.131-0.095-0.15-0.108-0.15-0.108c-0.102-0.064-0.145-0.089-0.145-0.089c-0.191-0.111-0.631-0.327-0.742-0.385
			c-0.141-0.074-0.231-0.127-0.275-0.152c-0.13-0.081-0.15-0.095-0.15-0.095c-0.12-0.087-0.14-0.102-0.14-0.102
			c-0.126-0.11-0.143-0.126-0.143-0.126c-0.114-0.129-0.121-0.138-0.121-0.138c-0.084-0.132-0.089-0.142-0.089-0.142
			c-0.052-0.124-0.056-0.135-0.056-0.135c-0.03-0.123-0.032-0.135-0.032-0.135c-0.011-0.108-0.011-0.139-0.011-0.139
			c0.006-0.129,0.009-0.162,0.009-0.162c0.016-0.103,0.023-0.138,0.023-0.138c0.026-0.108,0.036-0.145,0.036-0.145
			c0.036-0.113,0.049-0.152,0.049-0.152c0.045-0.118,0.062-0.159,0.062-0.159c0.055-0.123,0.074-0.165,0.074-0.165
			c0.527-1.042,1.174-1.79,1.882-2.659c1.36-1.608,3.764-4.18,5.115-5.782c1.389-1.682,3.006-3.597,3.66-5.66
			c0.036-0.13,0.052-0.194,0.052-0.194c0.03-0.128,0.043-0.191,0.043-0.191c0.024-0.125,0.035-0.188,0.035-0.188
			c0.019-0.123,0.027-0.185,0.027-0.185c0.014-0.121,0.019-0.182,0.019-0.182c0.009-0.119,0.012-0.179,0.012-0.179
			c0.004-0.117,0.005-0.176,0.005-0.176c0.008-1.044-0.292-1.868-0.564-2.803c-0.043-0.146-0.119-0.445-0.136-0.534
			c-0.026-0.131-0.034-0.174-0.034-0.174c-0.021-0.129-0.026-0.172-0.026-0.172c-0.014-0.128-0.018-0.171-0.018-0.171
			c-0.007-0.127-0.008-0.169-0.008-0.169c0.001-0.126,0.002-0.168,0.002-0.168c0.009-0.125,0.012-0.146,0.012-0.146
			c0.017-0.125,0.021-0.146,0.021-0.146c0.026-0.125,0.031-0.145,0.031-0.145c0.036-0.124,0.042-0.145,0.042-0.145
			c0.046-0.124,0.054-0.145,0.054-0.145c0.046-0.103,0.063-0.137,0.063-0.137c0.073-0.134,0.093-0.168,0.093-0.168
			c0.064-0.101,0.086-0.134,0.086-0.134c0.071-0.101,0.097-0.134,0.097-0.134c0.079-0.101,0.107-0.135,0.107-0.135
			c0.086-0.101,0.116-0.135,0.116-0.135c1.063-1.115,2.267-1.776,3.542-2.545c2.164-1.244,4.963-2.707,6.968-4.152
			c1.456-1.034,2.837-2.325,3.533-3.905c0.852-1.732,0.966-3.974,1.764-5.643c0.058-0.112,0.087-0.167,0.087-0.167
			c0.062-0.108,0.093-0.162,0.093-0.162c0.066-0.105,0.1-0.157,0.1-0.157c0.071-0.102,0.107-0.152,0.107-0.152
			c0.076-0.098,0.115-0.147,0.115-0.147c0.102-0.118,0.123-0.141,0.123-0.141c0.109-0.114,0.131-0.136,0.131-0.136
			c0.116-0.109,0.14-0.13,0.14-0.13c0.11-0.092,0.148-0.123,0.148-0.123c0.117-0.088,0.157-0.117,0.157-0.117
			c0.123-0.084,0.166-0.111,0.166-0.111c1.457-0.871,2.986-1.06,4.577-1.277c4.695-0.512,9.869-0.356,14.497-1.356
			c5.618-1.146,10.742-4.469,15.977-6.655c2.705-1.133,5.571-1.856,8.513-1.911c7.013-0.222,14.197,2.057,21.208,1.218
			c2.606-0.337,5.136-1.22,7.565-2.199c2.192-0.874,4.922-2.127,7.236-2.603c2.217-0.486,4.379-0.154,6.527,0.409l4.237,1.162
			c3.49,0.933,7.186,1.085,10.783,1.142c3.132,0.04,9.332,0.021,12.386,0.264c2.371,0.153,4.824,0.491,7.16,0.93l6.301,1.249
			c2.862,0.5,6.103,1.128,8.909,0.21c2.177-0.748,3.7-2.258,5.149-3.867l1.087-1.243c-0.092-0.129-0.109-0.155-0.109-0.155
			c-0.068-0.111-0.085-0.14-0.085-0.14c-0.064-0.119-0.079-0.15-0.079-0.15c-0.059-0.126-0.073-0.159-0.073-0.159
			c-0.402-0.989-0.454-1.917-0.489-2.909c-0.024-1.259,0.09-2.557,0.243-3.807c0.888-6.933,3.44-15.056,5.251-21.844
			c1.074-4.062,1.96-8.307,2.469-12.479c0.951-7.663,1.517-16.553,4.263-23.777c3.013-8.021,8.863-14.586,15.021-20.381
			c5.815-5.366,12.14-10.639,18.534-15.3c5.592-4.025,11.546-7.732,17.946-10.328c3.362-1.368,6.937-2.457,10.455-3.351
			c3.768-0.997,13.065-2.837,16.966-3.673c0,0,15.522-3.49,15.522-3.49c8.215-1.804,16.932-3.532,25.305-4.325
			c8.635-0.937,21.661-0.519,30.405-0.519c4.547-0.03,9.258-0.175,13.763-0.791c2.904-0.391,5.912-1.066,8.749-1.805l9.04-2.462
			c3.961-1.021,8.047-1.816,12.144-1.931c8.604-0.234,18.078,2.337,26.56,3.591c3.546,0.505,7.207,0.908,10.77,0.35
			c2.978-0.449,5.814-1.608,8.493-2.951c2.285-1.157,5.469-2.855,7.792-3.826c3.102-1.332,6.437-2.496,9.664-3.488
			c6.962-2.133,14.189-3.71,21.445-4.384c0.336-2.234,0.924-4.682,2.288-6.494c0.102-0.129,0.154-0.192,0.154-0.192
			c0.105-0.123,0.158-0.183,0.158-0.183c0.108-0.117,0.163-0.174,0.163-0.174c0.111-0.111,0.167-0.165,0.167-0.165
			c0.114-0.105,0.172-0.156,0.172-0.156c0.117-0.099,0.176-0.147,0.176-0.147c0.12-0.093,0.181-0.138,0.181-0.138
			c0.123-0.087,0.185-0.13,0.185-0.13c0.126-0.082,0.189-0.121,0.189-0.121c0.128-0.076,0.193-0.112,0.193-0.112
			c0.131-0.07,0.197-0.104,0.197-0.104c2.202-1.069,4.623-0.575,6.783,0.226C570.27,274.996,573.717,277.693,576.701,280.682z"/>
	</g>
</g>
</svg>
