<?xml version="1.0" encoding="utf-8"?>
<!-- Generator: Adobe Illustrator 24.2.1, SVG Export Plug-In . SVG Version: 6.00 Build 0)  -->
<!DOCTYPE svg PUBLIC "-//W3C//DTD SVG 1.1//EN" "http://www.w3.org/Graphics/SVG/1.1/DTD/svg11.dtd" [
	<!ENTITY ns_extend "http://ns.adobe.com/Extensibility/1.0/">
	<!ENTITY ns_ai "http://ns.adobe.com/AdobeIllustrator/10.0/">
	<!ENTITY ns_graphs "http://ns.adobe.com/Graphs/1.0/">
	<!ENTITY ns_vars "http://ns.adobe.com/Variables/1.0/">
	<!ENTITY ns_imrep "http://ns.adobe.com/ImageReplacement/1.0/">
	<!ENTITY ns_sfw "http://ns.adobe.com/SaveForWeb/1.0/">
	<!ENTITY ns_custom "http://ns.adobe.com/GenericCustomNamespace/1.0/">
	<!ENTITY ns_adobe_xpath "http://ns.adobe.com/XPath/1.0/">
]>
<svg version="1.1" xmlns:x="&ns_extend;" xmlns:i="&ns_ai;" xmlns:graph="&ns_graphs;"
	 xmlns="http://www.w3.org/2000/svg" xmlns:xlink="http://www.w3.org/1999/xlink" x="0px" y="0px" width="750px" height="750px"
	 viewBox="0 0 750 750" style="enable-background:new 0 0 750 750;" xml:space="preserve">
<style type="text/css">
	.st0{fill:#FFFFFF;}
	.st1{fill:#FB8604;}
	.st2{fill:none;stroke:#FB8604;stroke-width:2;stroke-linecap:round;stroke-linejoin:round;stroke-miterlimit:10;}
	.st3{fill:none;stroke:#FB8604;stroke-width:3.25;stroke-linecap:round;stroke-linejoin:round;}
	.st4{fill:none;stroke:#FB8604;stroke-width:3.25;stroke-linecap:round;stroke-linejoin:round;stroke-dasharray:4.0141,7.0246;}
	.st5{fill:none;stroke:#FB8604;stroke-width:3.25;stroke-linecap:round;stroke-linejoin:round;stroke-dasharray:3.7694,6.5965;}
	.st6{fill:none;stroke:#FB8604;stroke-width:3.25;stroke-linecap:round;stroke-linejoin:round;stroke-dasharray:3.5662,6.2408;}
	.st7{fill:none;stroke:#FB8604;stroke-width:3.25;stroke-linecap:round;stroke-linejoin:round;stroke-dasharray:4.1763,7.3085;}
	.st8{fill:none;stroke:#FB8604;stroke-width:3.25;stroke-linecap:round;stroke-linejoin:round;stroke-dasharray:3.8612,6.7571;}
	.st9{fill:none;stroke:#FB8604;stroke-width:3.25;stroke-linecap:round;stroke-linejoin:round;stroke-dasharray:3.9751,6.9564;}
	.st10{fill:none;stroke:#FB8604;stroke-width:3.25;stroke-linecap:round;stroke-linejoin:round;stroke-dasharray:4.3021,7.5288;}
	.st11{fill:none;stroke:#FB8604;stroke-width:3.25;stroke-linecap:round;stroke-linejoin:round;stroke-dasharray:4.0666,7.1166;}
	.st12{fill:none;stroke:#FB8604;stroke-width:3.25;stroke-linecap:round;stroke-linejoin:round;stroke-dasharray:3.9891,6.981;}
	.st13{fill:none;stroke:#FB8604;stroke-width:3.25;stroke-linecap:round;stroke-linejoin:round;stroke-dasharray:4.3022,7.5288;}
	.st14{fill:none;stroke:#FB8604;stroke-width:3.25;stroke-linecap:round;stroke-linejoin:round;stroke-dasharray:4.0058,7.0102;}
	.st15{fill:none;stroke:#FB8604;stroke-width:3.25;stroke-linecap:round;stroke-linejoin:round;stroke-dasharray:3.5784,6.2622;}
	.st16{fill:none;stroke:#FB8604;stroke-width:3.25;stroke-linecap:round;stroke-linejoin:round;stroke-dasharray:4.3282,7.5744;}
	.st17{fill:none;stroke:#FB8604;stroke-width:3.25;stroke-linecap:round;stroke-linejoin:round;stroke-dasharray:3.9841,6.9721;}
	.st18{fill:none;stroke:#FB8604;stroke-width:3.25;stroke-linecap:round;stroke-linejoin:round;stroke-dasharray:3.6766,6.4341;}
	.st19{fill:none;stroke:#FB8604;stroke-width:3.25;stroke-linecap:round;stroke-linejoin:round;stroke-dasharray:3.7926,6.637;}
	.st20{fill:none;stroke:#FB8604;stroke-width:3.25;stroke-linecap:round;stroke-linejoin:round;stroke-dasharray:4.0981,7.1717;}
	.st21{fill:none;stroke:#FB8604;stroke-width:3.25;stroke-linecap:round;stroke-linejoin:round;stroke-dasharray:4.0303,7.0531;}
	.st22{fill:none;stroke:#FB8604;stroke-width:3.25;stroke-linecap:round;stroke-linejoin:round;stroke-dasharray:3.9535,6.9186;}
	.st23{fill:none;stroke:#FB8604;stroke-width:3.25;stroke-linecap:round;stroke-linejoin:round;stroke-dasharray:3.9792,6.9637;}
	.st24{fill:none;stroke:#FB8604;stroke-width:3.25;stroke-linecap:round;stroke-linejoin:round;stroke-dasharray:3.8528,6.7423;}
	.st25{fill:none;stroke:#FB8604;stroke-width:3.25;stroke-linecap:round;stroke-linejoin:round;stroke-dasharray:3.6409,6.3716;}
	.st26{fill:none;stroke:#FB8604;stroke-width:3.25;stroke-linecap:round;stroke-linejoin:round;stroke-dasharray:3.818,6.6815;}
	.st27{fill:none;stroke:#FB8604;stroke-width:3.25;stroke-linecap:round;stroke-linejoin:round;stroke-dasharray:3.9417,6.8981;}
	.st28{fill:none;stroke:#FB8604;stroke-width:3.25;stroke-linecap:round;stroke-linejoin:round;stroke-dasharray:4.0547,7.0957;}
	.st29{fill:none;stroke:#FB8604;stroke-width:3.25;stroke-linecap:round;stroke-linejoin:round;stroke-dasharray:4.3912,7.6846;}
	.st30{fill:none;stroke:#FB8604;stroke-width:3.25;stroke-linecap:round;stroke-linejoin:round;stroke-dasharray:4.0013,7.0023;}
	.st31{fill:none;stroke:#FB8604;stroke-width:3.25;stroke-linecap:round;stroke-linejoin:round;stroke-dasharray:4.0671,7.1174;}
	.st32{fill:none;stroke:#FB8604;stroke-width:3.25;stroke-linecap:round;stroke-linejoin:round;stroke-dasharray:4.0262,7.0458;}
	.st33{fill:none;stroke:#FB8604;stroke-width:3.25;stroke-linecap:round;stroke-linejoin:round;stroke-dasharray:4.0266,7.0465;}
	.st34{fill:none;stroke:#FB8604;stroke-width:3.25;stroke-linecap:round;stroke-linejoin:round;stroke-dasharray:3.797,6.6447;}
	.st35{fill:none;stroke:#FB8604;stroke-width:3.25;stroke-linecap:round;stroke-linejoin:round;stroke-dasharray:3.9746,6.9556;}
	.st36{fill:none;stroke:#FB8604;stroke-width:3.25;stroke-linecap:round;stroke-linejoin:round;stroke-dasharray:4.1097,7.1919;}
	.st37{fill:none;stroke:#FB8604;stroke-width:3.25;stroke-linecap:round;stroke-linejoin:round;stroke-dasharray:3.8239,6.6918;}
	.st38{fill:none;stroke:#FB8604;stroke-width:3.25;stroke-linecap:round;stroke-linejoin:round;stroke-dasharray:3.7648,6.5884;}
	.st39{fill:none;stroke:#FB8604;stroke-width:3.25;stroke-linecap:round;stroke-linejoin:round;stroke-dasharray:4.0208,7.0364;}
	.st40{fill:none;stroke:#FB8604;stroke-width:3.25;stroke-linecap:round;stroke-linejoin:round;stroke-dasharray:3.9442,6.9024;}
	.st41{fill:none;stroke:#FB8604;stroke-width:3.25;stroke-linecap:round;stroke-linejoin:round;stroke-dasharray:3.9752,6.9566;}
	.st42{fill:none;stroke:#FB8604;stroke-width:3.25;stroke-linecap:round;stroke-linejoin:round;stroke-dasharray:3.7278,6.5237;}
	.st43{fill:none;stroke:#FB8604;stroke-width:3.25;stroke-linecap:round;stroke-linejoin:round;stroke-dasharray:4.4991,7.8735;}
	.st44{fill:none;stroke:#FB8604;stroke-width:3.25;stroke-linecap:round;stroke-linejoin:round;stroke-dasharray:4.1345,7.2353;}
	.st45{fill:none;stroke:#FB8604;stroke-width:3.25;stroke-linecap:round;stroke-linejoin:round;stroke-dasharray:3.821,6.6868;}
	.st46{fill:none;stroke:#FB8604;stroke-width:3.25;stroke-linecap:round;stroke-linejoin:round;stroke-dasharray:3.9354,6.8869;}
	.st47{fill:none;stroke:#FB8604;stroke-width:3.25;stroke-linecap:round;stroke-linejoin:round;stroke-dasharray:4.2577,7.451;}
	.st48{fill:none;stroke:#FB8604;stroke-width:3.25;stroke-linecap:round;stroke-linejoin:round;stroke-dasharray:4.0269,7.0472;}
	.st49{fill:none;stroke:#FB8604;stroke-width:3.25;stroke-linecap:round;stroke-linejoin:round;stroke-dasharray:3.9502,6.9128;}
	.st50{fill:none;stroke:#FB8604;stroke-width:3.25;stroke-linecap:round;stroke-linejoin:round;stroke-dasharray:3.9807,6.9662;}
	.st51{fill:none;stroke:#FB8604;stroke-width:3.25;stroke-linecap:round;stroke-linejoin:round;stroke-dasharray:3.7337,6.5339;}
	.st52{fill:none;stroke:#FB8604;stroke-width:3.25;stroke-linecap:round;stroke-linejoin:round;stroke-dasharray:4.5058,7.8852;}
	.st53{fill:none;stroke:#FB8604;stroke-width:3.25;stroke-linecap:round;stroke-linejoin:round;stroke-dasharray:4.1403,7.2456;}
	.st54{fill:none;stroke:#FB8604;stroke-width:3.25;stroke-linecap:round;stroke-linejoin:round;stroke-dasharray:3.8267,6.6967;}
	.st55{fill:none;stroke:#FB8604;stroke-width:3.25;stroke-linecap:round;stroke-linejoin:round;stroke-dasharray:3.9409,6.8967;}
	.st56{fill:none;stroke:#FB8604;stroke-width:3.25;stroke-linecap:round;stroke-linejoin:round;stroke-dasharray:4.2639,7.4619;}
	.st57{fill:none;stroke:#FB8604;stroke-width:3.25;stroke-linecap:round;stroke-linejoin:round;stroke-dasharray:4.0325,7.0569;}
	.st58{fill:none;stroke:#FB8604;stroke-width:3.25;stroke-linecap:round;stroke-linejoin:round;stroke-dasharray:3.9557,6.9224;}
	.st59{fill:none;stroke:#FB8604;stroke-width:3.25;stroke-linecap:round;stroke-linejoin:round;stroke-dasharray:4.0077,7.0134;}
	.st60{fill:none;stroke:#FB8604;stroke-width:3.25;stroke-linecap:round;stroke-linejoin:round;stroke-dasharray:4.2017,7.353;}
	.st61{fill:none;stroke:#FB8604;stroke-width:3.25;stroke-linecap:round;stroke-linejoin:round;stroke-dasharray:4.4376,7.7657;}
	.st62{fill:none;stroke:#FB8604;stroke-width:3.25;stroke-linecap:round;stroke-linejoin:round;stroke-dasharray:3.9152,6.8516;}
	.st63{fill:none;stroke:#FB8604;stroke-width:3.25;stroke-linecap:round;stroke-linejoin:round;stroke-dasharray:3.4926,6.112;}
	.st64{fill:none;stroke:#FB8604;stroke-width:3.25;stroke-linecap:round;stroke-linejoin:round;stroke-dasharray:4.1613,7.2822;}
	.st65{fill:none;stroke:#FB8604;stroke-width:3.25;stroke-linecap:round;stroke-linejoin:round;stroke-dasharray:3.9034,6.8309;}
	.st66{fill:none;stroke:#FB8604;stroke-width:3.25;stroke-linecap:round;stroke-linejoin:round;stroke-dasharray:3.9635,6.9362;}
	.st67{fill:none;stroke:#FB8604;stroke-width:3.25;stroke-linecap:round;stroke-linejoin:round;stroke-dasharray:4.0855,7.1496;}
	.st68{fill:none;stroke:#FB8604;stroke-width:3.25;stroke-linecap:round;stroke-linejoin:round;stroke-dasharray:3.9843,6.9725;}
	.st69{fill:none;stroke:#FB8604;stroke-width:3.25;stroke-linecap:round;stroke-linejoin:round;stroke-dasharray:4.5619,7.9833;}
	.st70{fill:none;stroke:#FB8604;stroke-width:3.25;stroke-linecap:round;stroke-linejoin:round;stroke-dasharray:3.473,6.0778;}
	.st71{fill:none;stroke:#FB8604;stroke-width:3.25;stroke-linecap:round;stroke-linejoin:round;stroke-dasharray:4.2074,7.3629;}
	.st72{fill:none;stroke:#FB8604;stroke-width:3.25;stroke-linecap:round;stroke-linejoin:round;stroke-dasharray:3.7677,6.5934;}
	.st73{fill:none;stroke:#FB8604;stroke-width:3.25;stroke-linecap:round;stroke-linejoin:round;stroke-dasharray:3.8856,6.7997;}
	.st74{fill:none;stroke:#FB8604;stroke-width:3.25;stroke-linecap:round;stroke-linejoin:round;stroke-dasharray:4.2077,7.3634;}
	.st75{fill:none;stroke:#FB8604;stroke-width:3.25;stroke-linecap:round;stroke-linejoin:round;stroke-dasharray:4.0523,7.0915;}
	.st76{fill:none;stroke:#FB8604;stroke-width:3.25;stroke-linecap:round;stroke-linejoin:round;stroke-dasharray:3.9747,6.9557;}
	.st77{fill:none;stroke:#FB8604;stroke-width:3.25;stroke-linecap:round;stroke-linejoin:round;stroke-dasharray:3.9761,6.9582;}
	.st78{fill:none;stroke:#FB8604;stroke-width:3.25;stroke-linecap:round;stroke-linejoin:round;stroke-dasharray:4.1619,7.2833;}
	.st79{fill:none;stroke:#FB8604;stroke-width:3.25;stroke-linecap:round;stroke-linejoin:round;stroke-dasharray:4.3986,7.6975;}
	.st80{fill:none;stroke:#FB8604;stroke-width:3.25;stroke-linecap:round;stroke-linejoin:round;stroke-dasharray:3.8829,6.7951;}
	.st81{fill:none;stroke:#FB8604;stroke-width:3.25;stroke-linecap:round;stroke-linejoin:round;stroke-dasharray:3.4622,6.0588;}
	.st82{fill:none;stroke:#FB8604;stroke-width:3.25;stroke-linecap:round;stroke-linejoin:round;stroke-dasharray:4.127,7.2223;}
	.st83{fill:none;stroke:#FB8604;stroke-width:3.25;stroke-linecap:round;stroke-linejoin:round;stroke-dasharray:3.8697,6.772;}
	.st84{fill:none;stroke:#FB8604;stroke-width:3.25;stroke-linecap:round;stroke-linejoin:round;stroke-dasharray:3.932,6.881;}
	.st85{fill:none;stroke:#FB8604;stroke-width:3.25;stroke-linecap:round;stroke-linejoin:round;stroke-dasharray:4.053,7.0927;}
	.st86{fill:none;stroke:#FB8604;stroke-width:2.75;stroke-linecap:round;stroke-linejoin:round;stroke-miterlimit:10;}
	.st87{fill:none;stroke:#FB8604;stroke-width:3.5;stroke-linecap:round;stroke-linejoin:round;stroke-miterlimit:10;}
</style>
<metadata>
	<sfw  xmlns="&ns_sfw;">
		<slices></slices>
		<sliceSourceBounds  bottomLeftOrigin="true" height="10750" width="4280" x="-2000" y="-3120"></sliceSourceBounds>
	</sfw>
</metadata>
<g id="FILL-BACKGROUND">
	<rect class="st0" width="750" height="750"/>
</g>
<g id="N-TEXT">
</g>
<g id="N-DIMENSIONS">
</g>
<g id="AG-DETAIL-DIAGRAM">
</g>
<g id="AG-DETAILS">
	<g id="POLYLINE_544_">
		<path class="st2" d="M128.09,378.97c9.56,0.08,34.04,0.31,43.24,0.62c8.57,0.11,80.04,3.89,90.44,4.39
			c48.25,2,110.22-0.17,158.61,1.08"/>
	</g>
</g>
<g id="AG-ANIMALS">
	<g id="POLYLINE_631_">
		<path class="st86" d="M292.32,331.4c-1.38,0.1-2.6-0.18-3.85-0.65c-0.75-0.29-1.57-0.66-2.21-1.13c-0.07-0.06-0.11-0.09-0.11-0.09
			c-0.07-0.06-0.1-0.09-0.1-0.09c-0.08-0.07-0.09-0.09-0.09-0.09c-0.07-0.07-0.08-0.09-0.08-0.09c-0.06-0.07-0.07-0.09-0.07-0.09
			c-0.05-0.07-0.06-0.09-0.06-0.09c-0.04-0.08-0.05-0.09-0.05-0.09c-0.03-0.08-0.03-0.09-0.03-0.09c-0.02-0.08-0.02-0.09-0.02-0.09
			c-0.01-0.08-0.01-0.09-0.01-0.09c0.01-0.08,0.01-0.09,0.01-0.09c0.02-0.08,0.02-0.09,0.02-0.09c0.04-0.08,0.04-0.09,0.04-0.09
			c0.05-0.08,0.06-0.09,0.06-0.09c0.06-0.08,0.07-0.09,0.07-0.09c0.08-0.09,0.1-0.11,0.1-0.11c0.07-0.06,0.09-0.08,0.09-0.08
			c0.07-0.06,0.1-0.08,0.1-0.08c1.04-0.71,2.31-1.08,3.48-1.45c0.86-0.24,1.85-0.59,2.74-0.61c0.08,0,0.12,0,0.12,0
			c0.08,0,0.12,0.01,0.12,0.01c0.08,0.01,0.12,0.01,0.12,0.01c0.08,0.01,0.12,0.01,0.12,0.01c0.51,0.08,0.86,0.21,1.32,0.37
			c1.37,0.54,2.91,1.16,4.37,1.39c2.02,0.36,4.11,0.39,6.15,0.14"/>
	</g>
	<g id="POLYLINE_630_">
		<path class="st86" d="M310.01,326.51c-0.78-0.01-1.67-0.11-2.37-0.39c-1.39-0.54-2.61-1.63-3.35-2.83
			c-0.12-0.2-0.2-0.37-0.26-0.52c-0.03-0.07-0.04-0.1-0.04-0.1c-0.02-0.07-0.03-0.1-0.03-0.1c-0.02-0.07-0.03-0.1-0.03-0.1
			c-0.02-0.07-0.02-0.1-0.02-0.1c-0.01-0.07-0.02-0.1-0.02-0.1c-0.01-0.08-0.01-0.1-0.01-0.1c-0.01-0.08-0.01-0.1-0.01-0.1
			c0-0.08,0-0.1,0-0.1c0-0.08,0-0.1,0-0.1c0.01-0.08,0.01-0.09,0.01-0.09c0.01-0.08,0.01-0.09,0.01-0.09
			c0.02-0.08,0.02-0.09,0.02-0.09c0.02-0.08,0.03-0.09,0.03-0.09c0.03-0.08,0.04-0.09,0.04-0.09c0.04-0.08,0.05-0.1,0.05-0.1
			c0.05-0.08,0.06-0.1,0.06-0.1c0.05-0.08,0.06-0.09,0.06-0.09c0.06-0.08,0.07-0.09,0.07-0.09c0.07-0.07,0.08-0.09,0.08-0.09
			c0.09-0.09,0.1-0.1,0.1-0.1c0.08-0.07,0.11-0.1,0.11-0.1c0.07-0.05,0.1-0.08,0.1-0.08c0.07-0.05,0.11-0.08,0.11-0.08
			c0.08-0.05,0.11-0.08,0.11-0.08c0.08-0.05,0.12-0.07,0.12-0.07c0.74-0.41,1.45-0.6,2.26-0.74c0.79-0.12,1.63-0.15,2.41-0.02
			c1.65,0.25,2.68,1.4,3.92,2.33c1.75,1.26,3.81,1.67,5.86,2.12"/>
	</g>
	<g id="POLYLINE_629_">
		<path class="st86" d="M273.85,337.02c-1.43,0.06-2.76-0.22-4.1-0.68c-0.89-0.32-1.85-0.68-2.64-1.2
			c-0.08-0.06-0.13-0.09-0.13-0.09c-0.08-0.06-0.12-0.09-0.12-0.09c-0.07-0.06-0.09-0.08-0.09-0.08c-0.08-0.08-0.1-0.09-0.1-0.09
			c-0.07-0.08-0.09-0.09-0.09-0.09c-0.06-0.08-0.07-0.09-0.07-0.09c-0.06-0.09-0.06-0.09-0.06-0.09c-0.04-0.08-0.04-0.09-0.04-0.09
			c-0.03-0.08-0.03-0.09-0.03-0.09c-0.02-0.08-0.02-0.09-0.02-0.09c0-0.08,0-0.09,0-0.09c0.01-0.08,0.01-0.09,0.01-0.09
			c0.02-0.08,0.02-0.09,0.02-0.09c0.03-0.08,0.04-0.09,0.04-0.09c0.04-0.08,0.05-0.09,0.05-0.09c0.05-0.07,0.06-0.09,0.06-0.09
			c0.06-0.07,0.07-0.09,0.07-0.09c0.07-0.07,0.08-0.09,0.08-0.09c0.07-0.07,0.09-0.09,0.09-0.09c0.67-0.58,1.37-0.87,2.16-1.16
			c0.95-0.34,1.97-0.53,2.98-0.56c2.13-0.09,4.35,0.58,6.4,1.08c2.11,0.54,4.32,0.74,6.49,0.83"/>
	</g>
	<g id="POLYLINE_628_">
		<path class="st86" d="M251.86,344.11c-1.63-0.06-3.05-0.56-4.46-1.29c-0.93-0.5-1.95-1.09-2.66-1.85
			c-0.06-0.07-0.08-0.09-0.08-0.09c-0.05-0.07-0.07-0.09-0.07-0.09c-0.05-0.07-0.07-0.09-0.07-0.09c-0.05-0.07-0.06-0.09-0.06-0.09
			c-0.04-0.07-0.05-0.09-0.05-0.09c-0.04-0.07-0.05-0.09-0.05-0.09c-0.03-0.08-0.04-0.09-0.04-0.09c-0.03-0.08-0.03-0.09-0.03-0.09
			c-0.02-0.08-0.02-0.09-0.02-0.09c-0.01-0.08-0.02-0.09-0.02-0.09c-0.01-0.08-0.01-0.09-0.01-0.09c0-0.08,0-0.09,0-0.09
			c0.01-0.08,0.01-0.09,0.01-0.09c0.02-0.08,0.02-0.09,0.02-0.09c0.02-0.08,0.03-0.09,0.03-0.09c0.03-0.08,0.04-0.1,0.04-0.1
			c0.04-0.08,0.05-0.1,0.05-0.1c0.05-0.08,0.06-0.09,0.06-0.09c0.06-0.08,0.07-0.09,0.07-0.09c0.07-0.08,0.08-0.09,0.08-0.09
			c0.08-0.08,0.09-0.09,0.09-0.09c0.07-0.06,0.1-0.09,0.1-0.09c0.07-0.06,0.11-0.09,0.11-0.09c0.08-0.06,0.12-0.09,0.12-0.09
			c1.1-0.75,2.38-1.13,3.66-1.43c1.38-0.3,2.87-0.48,4.26-0.19c0.97,0.19,1.98,0.64,2.89,0.97c0.61,0.22,1.26,0.4,1.9,0.53
			c2.91,0.58,5.93,0.67,8.89,0.65"/>
	</g>
	<g id="POLYLINE_627_">
		<path class="st86" d="M234.77,349.69c-0.94,0-1.89-0.08-2.8-0.3c-1-0.24-1.97-0.65-2.87-1.14c-1.09-0.61-2.28-1.39-3.06-2.34
			c-0.07-0.09-0.09-0.11-0.09-0.11c-0.06-0.09-0.08-0.11-0.08-0.11c-0.05-0.08-0.07-0.11-0.07-0.11c-0.04-0.08-0.06-0.11-0.06-0.11
			c-0.04-0.08-0.04-0.09-0.04-0.09c-0.03-0.08-0.03-0.09-0.03-0.09c-0.02-0.08-0.02-0.09-0.02-0.09c-0.01-0.07-0.02-0.09-0.02-0.09
			c-0.01-0.08-0.01-0.1-0.01-0.1c0-0.08,0.01-0.09,0.01-0.09c0.02-0.08,0.02-0.09,0.02-0.09c0.03-0.09,0.04-0.09,0.04-0.09
			c0.05-0.08,0.05-0.09,0.05-0.09c0.06-0.09,0.07-0.1,0.07-0.1c0.08-0.08,0.09-0.09,0.09-0.09c0.08-0.07,0.1-0.09,0.1-0.09
			c0.08-0.06,0.11-0.07,0.11-0.07c0.07-0.04,0.09-0.06,0.09-0.06c0.07-0.04,0.1-0.06,0.1-0.06c1.19-0.59,3.21-0.88,4.5-1.21
			c1.14-0.25,2.4-0.48,3.55-0.44c1,0.04,1.82,0.27,2.73,0.57c1.27,0.44,2.97,1.07,4.27,1.34c2.23,0.5,4.58,0.72,6.87,0.86"/>
	</g>
	<g id="POLYLINE_626_">
		<path class="st86" d="M217.14,355.36c-0.9-0.05-1.82-0.16-2.7-0.38c-0.99-0.25-1.94-0.63-2.86-1.06c-1.24-0.59-2.57-1.3-3.58-2.21
			c-0.13-0.12-0.22-0.21-0.28-0.28c-0.05-0.06-0.08-0.09-0.08-0.09c-0.05-0.06-0.07-0.09-0.07-0.09c-0.04-0.06-0.07-0.09-0.07-0.09
			c-0.05-0.08-0.06-0.09-0.06-0.09c-0.04-0.07-0.05-0.09-0.05-0.09c-0.04-0.07-0.04-0.09-0.04-0.09c-0.03-0.07-0.03-0.09-0.03-0.09
			c-0.03-0.09-0.03-0.1-0.03-0.1c-0.02-0.08-0.02-0.1-0.02-0.1c0-0.08,0-0.09,0-0.09c0.01-0.08,0.01-0.09,0.01-0.09
			c0.02-0.08,0.02-0.09,0.02-0.09c0.03-0.09,0.03-0.09,0.03-0.09c0.04-0.08,0.04-0.09,0.04-0.09c0.04-0.07,0.05-0.09,0.05-0.09
			c0.06-0.08,0.07-0.1,0.07-0.1c0.07-0.08,0.08-0.09,0.08-0.09c0.08-0.08,0.09-0.09,0.09-0.09c0.08-0.07,0.1-0.09,0.1-0.09
			c0.07-0.06,0.11-0.09,0.11-0.09c0.08-0.06,0.12-0.08,0.12-0.08c0.33-0.22,0.53-0.33,0.85-0.5c1.06-0.51,2.26-1.28,3.45-1.18
			c0.85,0.07,1.52,0.33,2.27,0.61l2.36,0.96c3.75,1.49,7.84,1.97,11.84,2.24"/>
	</g>
	<g id="POLYLINE_625_">
		<path class="st86" d="M201.41,360.22c-1.65-0.56-3.5-1.34-5.1-2.03c-1.17-0.53-2.5-1.14-3.43-2c-0.09-0.08-0.11-0.11-0.11-0.11
			c-0.08-0.09-0.1-0.11-0.1-0.11c-0.07-0.09-0.08-0.1-0.08-0.1c-0.06-0.08-0.07-0.1-0.07-0.1c-0.05-0.08-0.06-0.1-0.06-0.1
			c-0.05-0.08-0.05-0.1-0.05-0.1c-0.04-0.08-0.05-0.1-0.05-0.1c-0.03-0.08-0.04-0.1-0.04-0.1c-0.03-0.08-0.03-0.1-0.03-0.1
			c-0.02-0.08-0.02-0.1-0.02-0.1c-0.01-0.08-0.02-0.1-0.02-0.1c-0.01-0.08-0.01-0.1-0.01-0.1c0-0.08,0-0.09,0-0.09
			c0-0.08,0.01-0.09,0.01-0.09c0.01-0.08,0.01-0.09,0.01-0.09c0.02-0.08,0.02-0.09,0.02-0.09c0.02-0.08,0.03-0.09,0.03-0.09
			c0.03-0.08,0.03-0.09,0.03-0.09c0.03-0.08,0.04-0.09,0.04-0.09c0.04-0.08,0.05-0.09,0.05-0.09c0.04-0.08,0.05-0.09,0.05-0.09
			c0.05-0.07,0.06-0.09,0.06-0.09c0.06-0.07,0.08-0.1,0.08-0.1c0.05-0.06,0.08-0.09,0.08-0.09c0.06-0.07,0.09-0.09,0.09-0.09
			c0.07-0.07,0.09-0.09,0.09-0.09c0.55-0.49,1.08-0.76,1.69-1.06c0.93-0.45,2.09-0.87,3.05-1.23c0.24-0.09,0.55-0.18,0.74-0.22
			c0.07-0.01,0.1-0.02,0.1-0.02c0.06-0.01,0.1-0.01,0.1-0.01c0.06-0.01,0.1-0.01,0.1-0.01c0.08,0,0.1,0,0.1,0c0.08,0,0.09,0,0.09,0
			c0.08,0.01,0.09,0.01,0.09,0.01c0.08,0.01,0.09,0.01,0.09,0.01c0.08,0.02,0.1,0.02,0.1,0.02c0.08,0.02,0.1,0.02,0.1,0.02
			c0.08,0.03,0.1,0.03,0.1,0.03c0.08,0.03,0.11,0.04,0.11,0.04c0.07,0.03,0.1,0.04,0.1,0.04c0.08,0.04,0.1,0.05,0.1,0.05
			c0.79,0.44,1.59,1.22,2.29,1.78c0.94,0.78,1.98,1.47,3.1,1.97c2.27,1.02,4.75,1.55,7.22,1.76"/>
	</g>
	<g id="POLYLINE_624_">
		<path class="st86" d="M178.9,366.54c-1.2-0.31-2.33-0.88-3.4-1.5c-0.78-0.47-1.71-0.99-2.37-1.6c-0.07-0.07-0.11-0.1-0.11-0.1
			c-0.07-0.07-0.1-0.1-0.1-0.1c-0.06-0.07-0.07-0.09-0.07-0.09c-0.05-0.07-0.07-0.09-0.07-0.09c-0.05-0.07-0.06-0.09-0.06-0.09
			c-0.04-0.07-0.05-0.09-0.05-0.09c-0.04-0.07-0.05-0.09-0.05-0.09c-0.03-0.07-0.04-0.09-0.04-0.09c-0.03-0.08-0.03-0.09-0.03-0.09
			c-0.02-0.08-0.02-0.09-0.02-0.09c-0.01-0.08-0.01-0.09-0.01-0.09c0-0.08,0-0.09,0-0.09c0-0.08,0.01-0.09,0.01-0.09
			c0.01-0.08,0.01-0.09,0.01-0.09c0.02-0.07,0.02-0.09,0.02-0.09c0.03-0.08,0.03-0.11,0.03-0.11c0.03-0.08,0.04-0.11,0.04-0.11
			c0.04-0.09,0.05-0.11,0.05-0.11c0.05-0.09,0.06-0.11,0.06-0.11c0.05-0.09,0.07-0.11,0.07-0.11c0.06-0.09,0.08-0.11,0.08-0.11
			c0.05-0.06,0.09-0.11,0.09-0.11c0.07-0.09,0.11-0.13,0.11-0.13c0.87-0.91,1.97-1.55,3.07-2.13c1.61-0.81,3.7-1.48,5.41-0.7
			c1.45,0.64,2.64,1.7,4.09,2.33c2.37,1.07,4.97,1.58,7.53,1.98"/>
	</g>
	<g id="POLYLINE_623_">
		<path class="st86" d="M155.81,365.41c0.92-0.71,1.95-1.28,3-1.78c1.11-0.52,2.43-1.03,3.63-0.98c1.32,0.08,2.28,0.97,3.28,1.68
			c0.56,0.41,1.17,0.79,1.79,1.11c1.95,1,4.22,1.69,6.31,2.34"/>
	</g>
	<g id="POLYLINE_622_">
		<path class="st86" d="M294.03,427.54c-1.6-0.17-3.22,0.05-4.78,0.41c-1.16,0.29-2.43,0.62-3.5,1.14
			c-0.08,0.04-0.12,0.07-0.12,0.07c-0.07,0.05-0.11,0.07-0.11,0.07c-0.08,0.06-0.1,0.07-0.1,0.07c-0.08,0.06-0.09,0.07-0.09,0.07
			c-0.08,0.07-0.09,0.08-0.09,0.08c-0.08,0.09-0.08,0.09-0.08,0.09c-0.05,0.08-0.06,0.09-0.06,0.09c-0.04,0.08-0.04,0.09-0.04,0.09
			c-0.02,0.08-0.02,0.09-0.02,0.09c-0.01,0.09,0,0.09,0,0.09c0.01,0.08,0.01,0.09,0.01,0.09c0.02,0.09,0.03,0.09,0.03,0.09
			c0.03,0.08,0.04,0.09,0.04,0.09c0.04,0.08,0.05,0.1,0.05,0.1c0.05,0.08,0.07,0.1,0.07,0.1c0.06,0.08,0.08,0.1,0.08,0.1
			c0.07,0.09,0.11,0.12,0.11,0.12c0.65,0.67,1.46,1.21,2.15,1.81c0.86,0.72,1.81,1.67,2.89,1.97c0.06,0.02,0.09,0.02,0.09,0.02
			c0.06,0.01,0.09,0.02,0.09,0.02c0.06,0.01,0.1,0.02,0.1,0.02c0.06,0.01,0.1,0.01,0.1,0.01c0.06,0.01,0.1,0.01,0.1,0.01
			c0.06,0,0.1,0.01,0.1,0.01c0.07,0,0.1,0,0.1,0c0.07,0,0.11,0,0.11,0c0.08-0.01,0.12-0.01,0.12-0.01c0.08-0.01,0.12-0.02,0.12-0.02
			c0.08-0.01,0.13-0.02,0.13-0.02c0.08-0.02,0.13-0.03,0.13-0.03c1.39-0.35,2.61-1.28,3.81-2c0.92-0.57,1.89-1.11,2.92-1.44
			c1.5-0.51,3.24-0.68,4.82-0.85"/>
	</g>
	<g id="POLYLINE_621_">
		<path class="st86" d="M272.49,421.71c-1.32,0.01-2.64,0.23-3.92,0.51c-1.05,0.27-3.33,0.71-4.31,1.09
			c-0.08,0.04-0.12,0.06-0.12,0.06c-0.08,0.04-0.1,0.05-0.1,0.05c-0.07,0.04-0.09,0.05-0.09,0.05c-0.08,0.05-0.09,0.06-0.09,0.06
			c-0.08,0.06-0.09,0.07-0.09,0.07c-0.08,0.09-0.09,0.09-0.09,0.09c-0.06,0.09-0.06,0.09-0.06,0.09c-0.03,0.08-0.03,0.09-0.03,0.09
			c-0.01,0.09-0.01,0.09-0.01,0.09c0.01,0.08,0.01,0.09,0.01,0.09c0.02,0.08,0.02,0.09,0.02,0.09c0.03,0.09,0.04,0.09,0.04,0.09
			c0.04,0.08,0.04,0.09,0.04,0.09c0.05,0.08,0.06,0.1,0.06,0.1c0.06,0.08,0.07,0.1,0.07,0.1c0.77,0.92,1.89,1.59,2.84,2.29
			c0.76,0.53,1.66,1.22,2.54,1.48c0.08,0.02,0.11,0.03,0.11,0.03c0.08,0.02,0.11,0.03,0.11,0.03c0.08,0.02,0.11,0.02,0.11,0.02
			c0.08,0.01,0.11,0.02,0.11,0.02c0.09,0.01,0.11,0.01,0.11,0.01c0.09,0.01,0.11,0.01,0.11,0.01c0.2,0.01,0.33,0,0.47-0.02
			c0.07-0.01,0.11-0.02,0.11-0.02c0.08-0.01,0.11-0.02,0.11-0.02c0.79-0.18,1.38-0.52,2.03-0.88c1.22-0.72,2.73-1.73,4.05-2.19
			c1.78-0.66,3.72-0.82,5.6-0.93"/>
	</g>
	<g id="POLYLINE_620_">
		<path class="st86" d="M252.14,416.02c-1.31,0.1-3.22,0.65-4.52,0.94c-0.61,0.15-1.33,0.34-1.88,0.61
			c-0.08,0.04-0.11,0.05-0.11,0.05c-0.08,0.04-0.1,0.06-0.1,0.06c-0.07,0.04-0.09,0.06-0.09,0.06c-0.09,0.06-0.11,0.07-0.11,0.07
			c-0.09,0.07-0.09,0.08-0.09,0.08c-0.08,0.08-0.09,0.09-0.09,0.09c-0.07,0.08-0.07,0.09-0.07,0.09c-0.05,0.09-0.06,0.1-0.06,0.1
			c-0.03,0.08-0.03,0.09-0.03,0.09c-0.02,0.08-0.02,0.09-0.02,0.09c0,0.09,0,0.1,0,0.1c0.01,0.08,0.01,0.09,0.01,0.09
			c0.02,0.08,0.02,0.09,0.02,0.09c0.03,0.08,0.03,0.09,0.03,0.09c0.04,0.08,0.05,0.09,0.05,0.09c0.05,0.08,0.06,0.1,0.06,0.1
			c0.05,0.07,0.07,0.1,0.07,0.1c0.06,0.07,0.08,0.1,0.08,0.1c0.06,0.07,0.08,0.1,0.08,0.1c0.07,0.07,0.09,0.1,0.09,0.1
			c0.08,0.07,0.1,0.1,0.1,0.1c0.72,0.65,1.59,1.09,2.42,1.39c1.01,0.37,1.97,0.44,3.02,0.29c1.04-0.15,2.33-0.57,3.35-0.79
			c1.31-0.3,2.71-0.46,4.05-0.58l5.32-0.39"/>
	</g>
	<g id="POLYLINE_619_">
		<path class="st86" d="M233,410.1c-1.25-0.37-2.54-0.31-3.81-0.08c-1.09,0.21-2.31,0.6-3.2,1.22c-0.06,0.05-0.09,0.07-0.09,0.07
			c-0.06,0.05-0.09,0.07-0.09,0.07c-0.08,0.07-0.11,0.1-0.11,0.1c-0.07,0.08-0.08,0.09-0.08,0.09c-0.07,0.08-0.08,0.09-0.08,0.09
			c-0.06,0.08-0.07,0.09-0.07,0.09c-0.05,0.08-0.06,0.09-0.06,0.09c-0.04,0.08-0.05,0.1-0.05,0.1c-0.03,0.08-0.04,0.1-0.04,0.1
			c-0.02,0.09-0.02,0.1-0.02,0.1c-0.01,0.07-0.01,0.09-0.01,0.09c0,0.07,0,0.09,0,0.09c0,0.07,0,0.09,0,0.09
			c0.01,0.08,0.01,0.09,0.01,0.09c0.02,0.08,0.02,0.09,0.02,0.09c0.03,0.08,0.03,0.1,0.03,0.1c0.03,0.09,0.04,0.11,0.04,0.11
			c0.04,0.09,0.05,0.11,0.05,0.11c0.05,0.09,0.06,0.11,0.06,0.11c0.04,0.07,0.06,0.09,0.06,0.09c0.05,0.07,0.06,0.09,0.06,0.09
			c0.11,0.15,0.2,0.25,0.29,0.35c0.99,0.99,2.28,1.69,3.63,1.76c0.49,0.02,0.88-0.01,1.34-0.08c1.07-0.15,4.18-0.83,5.28-1.04
			c2.35-0.47,4.78-0.7,7.17-0.79"/>
	</g>
	<g id="POLYLINE_618_">
		<path class="st86" d="M213.29,403.19c-0.76,0.05-1.46,0.27-2.17,0.54c-1.19,0.47-2.49,1.23-3.6,1.86c-0.08,0.05-0.1,0.07-0.1,0.07
			c-0.07,0.05-0.09,0.07-0.09,0.07c-0.08,0.08-0.09,0.08-0.09,0.08c-0.06,0.08-0.07,0.09-0.07,0.09c-0.04,0.08-0.04,0.09-0.04,0.09
			c-0.02,0.09-0.02,0.09-0.02,0.09c-0.01,0.08-0.01,0.09-0.01,0.09c0.01,0.08,0.01,0.09,0.01,0.09c0.02,0.08,0.02,0.09,0.02,0.09
			c0.03,0.08,0.03,0.09,0.03,0.09c0.03,0.07,0.04,0.1,0.04,0.1c0.04,0.08,0.05,0.1,0.05,0.1c0.05,0.08,0.06,0.11,0.06,0.11
			c0.59,0.89,1.44,1.55,2.26,2.07c0.67,0.41,1.47,0.78,2.24,0.83c0.09,0.01,0.13,0.01,0.13,0.01c0.09,0,0.13,0,0.13,0
			c0.09,0,0.13,0,0.13,0c0.08,0,0.13-0.01,0.13-0.01c1.45-0.12,2.62-0.99,3.88-1.55c0.55-0.26,1.04-0.43,1.61-0.58
			c1.83-0.49,3.89-0.54,5.78-0.63"/>
	</g>
	<g id="POLYLINE_617_">
		<path class="st86" d="M200.46,398.39c-1.31,0-2.49,0.29-3.73,0.64c-0.84,0.27-2.61,0.72-3.39,1.09c-0.08,0.04-0.12,0.06-0.12,0.06
			c-0.08,0.04-0.1,0.06-0.1,0.06c-0.07,0.05-0.09,0.06-0.09,0.06c-0.08,0.06-0.1,0.07-0.1,0.07c-0.08,0.07-0.09,0.08-0.09,0.08
			c-0.07,0.09-0.08,0.09-0.08,0.09c-0.05,0.08-0.06,0.09-0.06,0.09c-0.03,0.08-0.04,0.09-0.04,0.09c-0.02,0.08-0.02,0.09-0.02,0.09
			c0,0.08,0,0.09,0,0.09c0.01,0.08,0.01,0.09,0.01,0.09c0.02,0.08,0.03,0.1,0.03,0.1c0.03,0.07,0.03,0.09,0.03,0.09
			c0.04,0.07,0.04,0.09,0.04,0.09c0.04,0.08,0.05,0.09,0.05,0.09c0.05,0.08,0.06,0.09,0.06,0.09c0.05,0.06,0.07,0.1,0.07,0.1
			c0.05,0.07,0.08,0.1,0.08,0.1c0.06,0.07,0.09,0.1,0.09,0.1c0.67,0.67,1.37,1.09,2.17,1.53c0.83,0.43,1.71,0.79,2.63,1
			c0.98,0.24,2.01,0.18,2.86-0.24c0.91-0.43,1.72-1.13,2.61-1.55c1.11-0.51,2.2-0.7,3.38-0.87l1.69-0.21"/>
	</g>
	<g id="POLYLINE_198_">
		<path class="st86" d="M178.96,390.46c-1.04,0.21-2.08,0.58-3.07,0.95c-0.87,0.36-3.35,1.21-4.14,1.66
			c-0.08,0.05-0.1,0.06-0.1,0.06c-0.08,0.05-0.1,0.06-0.1,0.06c-0.09,0.07-0.1,0.08-0.1,0.08c-0.08,0.07-0.09,0.08-0.09,0.08
			c-0.08,0.09-0.08,0.09-0.08,0.09c-0.05,0.08-0.05,0.09-0.05,0.09c-0.03,0.08-0.03,0.09-0.03,0.09c-0.01,0.08-0.01,0.09-0.01,0.09
			c0.01,0.08,0.02,0.09,0.02,0.09c0.03,0.08,0.04,0.09,0.04,0.09c0.06,0.08,0.06,0.09,0.06,0.09c0.07,0.08,0.09,0.09,0.09,0.09
			c0.08,0.07,0.09,0.08,0.09,0.08c0.07,0.05,0.1,0.07,0.1,0.07c0.06,0.04,0.09,0.06,0.09,0.06c1.05,0.63,2.32,0.94,3.5,1.21
			c1.06,0.22,2.15,0.37,3.23,0.38c0.92,0.01,1.86-0.1,2.76-0.26c1.16-0.22,2.71-0.53,3.88-0.61c1.81-0.16,4.28-0.15,6.11-0.16"/>
	</g>
	<g id="POLYLINE_197_">
		<path class="st86" d="M155.32,389.2c0.78,0.74,1.74,1.48,2.76,1.81c1.15,0.37,2.24,0.34,3.39,0.24c2.05-0.19,4.15-0.87,6.13-1.38
			c2.49-0.61,5.09-0.74,7.63-0.63"/>
	</g>
	<g id="POLYLINE_196_">
		<path class="st86" d="M373.3,310.07c1.55-1.28,3.15-2.58,4.84-3.65c1.38-0.88,2.87-1.62,4.38-2.27c3.25-1.38,7.82-2.93,11.06-4.34
			c3.1-1.33,7.65-3.68,10.76-4.93c2.26-0.93,4.63-1.68,7.02-2.18c3.44-0.77,8.02-1.32,11.36-2.42c1.03-0.34,2.04-0.77,2.98-1.32
			c1.41-0.8,2.85-1.95,4.23-2.8c0.65-0.4,1.34-0.76,2.06-1.02c0.73-0.27,1.5-0.44,2.26-0.57c1.25-0.22,2.83-0.35,4.08-0.58
			c0.54-0.1,1.13-0.24,1.63-0.44c0.54-0.2,1.03-0.51,1.42-0.83c0.63-0.51,1.17-1.12,1.78-1.63c0.56-0.48,1.14-0.82,1.78-1.03
			c1.59-0.52,3.41-0.59,5.02-1.01c0.85-0.21,1.78-0.62,2.41-1.17c1.25-1.01,2.17-2.56,3.6-3.27c1.2-0.59,2.69-0.54,3.99-0.65
			c0.54-0.04,1.18-0.12,1.68-0.29c0.08-0.03,0.13-0.04,0.13-0.04c0.08-0.03,0.12-0.05,0.12-0.05c0.08-0.03,0.12-0.05,0.12-0.05
			c0.08-0.04,0.11-0.06,0.11-0.06c0.07-0.04,0.09-0.05,0.09-0.05c0.07-0.04,0.09-0.05,0.09-0.05c0.08-0.06,0.1-0.07,0.1-0.07
			c0.09-0.07,0.11-0.09,0.11-0.09c0.08-0.07,0.1-0.09,0.1-0.09c0.07-0.08,0.1-0.1,0.1-0.1c0.07-0.08,0.09-0.11,0.09-0.11
			c0.06-0.08,0.08-0.11,0.08-0.11c0.59-0.84,0.78-1.89,1.26-2.75c0.07-0.12,0.13-0.21,0.17-0.27c0.06-0.08,0.08-0.11,0.08-0.11
			c0.06-0.08,0.09-0.11,0.09-0.11c0.07-0.08,0.09-0.1,0.09-0.1c0.07-0.07,0.1-0.09,0.1-0.09c0.08-0.07,0.09-0.08,0.09-0.08
			c0.07-0.06,0.09-0.07,0.09-0.07c0.08-0.05,0.11-0.07,0.11-0.07c0.06-0.04,0.1-0.06,0.1-0.06c0.07-0.04,0.1-0.05,0.1-0.05
			c0.07-0.03,0.1-0.05,0.1-0.05c0.07-0.03,0.11-0.05,0.11-0.05c1.27-0.49,2.78-0.37,4-0.9c0.08-0.03,0.11-0.05,0.11-0.05
			c0.07-0.04,0.11-0.06,0.11-0.06c0.07-0.04,0.11-0.06,0.11-0.06c0.07-0.04,0.11-0.07,0.11-0.07c0.1-0.07,0.15-0.1,0.18-0.13
			c0.07-0.06,0.11-0.09,0.11-0.09c0.07-0.06,0.11-0.09,0.11-0.09c0.07-0.07,0.1-0.1,0.1-0.1c0.07-0.07,0.1-0.1,0.1-0.1
			c0.06-0.07,0.09-0.11,0.09-0.11c1.18-1.47,1.55-3.47,2.86-4.82c0.08-0.08,0.11-0.11,0.11-0.11c0.08-0.07,0.12-0.11,0.12-0.11
			c1.09-0.94,2.59-1.3,3.9-1.79c0.79-0.28,1.66-0.67,2.28-1.21c0.08-0.08,0.13-0.11,0.13-0.11c0.08-0.08,0.12-0.12,0.12-0.12
			c0.62-0.65,0.91-1.43,1.14-2.24c0.27-0.93,0.5-2.53,0.67-3.49c0.14-0.77,0.33-1.66,0.71-2.33c0.04-0.07,0.05-0.09,0.05-0.09
			c0.06-0.09,0.08-0.12,0.08-0.12c0.04-0.06,0.07-0.09,0.07-0.09c0.07-0.09,0.09-0.11,0.09-0.11c0.07-0.08,0.1-0.11,0.1-0.11
			c0.08-0.08,0.1-0.1,0.1-0.1c0.08-0.07,0.11-0.1,0.11-0.1c0.08-0.07,0.11-0.09,0.11-0.09c1.01-0.76,2.39-1.02,3.22-1.95
			c0.06-0.06,0.08-0.09,0.08-0.09c1.06-1.26,1.4-2.91,2.13-4.32c0.05-0.08,0.06-0.11,0.06-0.11c0.05-0.07,0.06-0.1,0.06-0.1
			c0.06-0.09,0.07-0.1,0.07-0.1c0.08-0.09,0.09-0.09,0.09-0.09c0.08-0.06,0.09-0.07,0.09-0.07c0.08-0.03,0.09-0.04,0.09-0.04
			c0.09-0.01,0.09-0.01,0.09-0.01c0.08,0.01,0.09,0.01,0.09,0.01c0.08,0.03,0.09,0.04,0.09,0.04c0.08,0.05,0.09,0.06,0.09,0.06
			c0.08,0.07,0.09,0.08,0.09,0.08c0.07,0.07,0.09,0.09,0.09,0.09c0.07,0.08,0.09,0.1,0.09,0.1c0.35,0.47,0.55,0.9,0.78,1.38
			c1.29,2.89,3.21,7.65,4.4,10.59c6.4,16.2,11.13,33.31,14.37,50.42"/>
	</g>
	<g id="POLYLINE_195_">
		<path class="st86" d="M322.93,323.3c-1.39-1.63-3.34-3.5-3.06-5.82c0.23-1.42,1.03-2.49,1.86-3.56c1.28-1.61,3.34-3.6,4.79-5.09
			c1.56-1.61,3.1-3.31,4.3-5.21c1.25-1.95,2.18-4.11,2.71-6.37c1.18-5.05,0.5-10.48-1.74-15.14c-2.55-5.39-6.82-9.73-11.13-13.75
			c-5.84-5.48-13.77-11.4-19.57-16.91c-0.77-0.77-1.55-1.56-2.17-2.46c-0.11-0.17-0.18-0.28-0.23-0.37
			c-0.04-0.08-0.06-0.12-0.06-0.12c-0.03-0.07-0.05-0.11-0.05-0.11c-0.03-0.07-0.04-0.09-0.04-0.09c-0.03-0.09-0.03-0.1-0.03-0.1
			c-0.02-0.08-0.03-0.1-0.03-0.1c-0.01-0.08-0.02-0.09-0.02-0.09c-0.01-0.07-0.01-0.09-0.01-0.09c0-0.08,0-0.09,0-0.09
			c0.01-0.08,0.02-0.09,0.02-0.09c0.03-0.08,0.03-0.09,0.03-0.09c0.05-0.08,0.06-0.09,0.06-0.09c0.08-0.08,0.09-0.09,0.09-0.09
			c0.09-0.06,0.1-0.06,0.1-0.06c0.08-0.04,0.09-0.04,0.09-0.04c0.08-0.03,0.09-0.03,0.09-0.03c0.08-0.02,0.1-0.03,0.1-0.03
			c0.07-0.02,0.1-0.02,0.1-0.02c0.06-0.01,0.1-0.01,0.1-0.01c0.07-0.01,0.1-0.01,0.1-0.01c1.07-0.06,2.05,0.21,3.06,0.5
			c1.6,0.48,3.15,1.15,4.64,1.89c3.43,1.73,6.76,3.93,9.91,6.11c5.89,4.14,12.93,9.63,18.59,14.11
			c6.38,5.14,12.86,10.67,18.43,16.69c4.64,4.88,9.68,12.11,13.66,17.59c1.74,2.28,3.57,4.86,6.16,6.19
			c1.33,0.67,2.77,1.08,4.22,1.38c1.73,0.34,3.52,0.5,5.27,0.31"/>
	</g>
	<g id="POLYLINE_194_">
		<path class="st86" d="M500.16,403.63c-4.91,1.75-10.1,2.7-15.28,3.13c-4.13,0.32-8.34,0.33-12.4-0.58
			c-4.42-0.96-8.99-2.74-13.23-4.34c-8.19-3.17-17.81-7.18-25.85-10.74c-5.7-2.54-12.3-5.59-17.84-8.44
			c-3.38-1.75-6.96-3.66-10.15-5.74c-1.65-1.11-3.49-2.32-4.72-3.87c-0.06-0.08-0.11-0.16-0.11-0.16c-0.05-0.08-0.1-0.15-0.1-0.15
			c-0.05-0.07-0.09-0.15-0.09-0.15c-0.04-0.07-0.06-0.11-0.06-0.11c-0.04-0.08-0.05-0.11-0.05-0.11c-0.03-0.08-0.04-0.09-0.04-0.09
			c-0.03-0.07-0.03-0.09-0.03-0.09c-0.02-0.07-0.03-0.09-0.03-0.09c-0.02-0.07-0.02-0.09-0.02-0.09c-0.01-0.07-0.02-0.09-0.02-0.09
			c-0.01-0.09-0.01-0.1-0.01-0.1c-0.01-0.08-0.01-0.1-0.01-0.1c0-0.08,0-0.1,0-0.1c0.01-0.08,0.01-0.1,0.01-0.1
			c0.01-0.08,0.01-0.1,0.01-0.1c0.02-0.08,0.02-0.09,0.02-0.09c0.02-0.08,0.03-0.09,0.03-0.09c0.03-0.08,0.03-0.09,0.03-0.09
			c0.03-0.07,0.04-0.09,0.04-0.09c0.04-0.07,0.05-0.09,0.05-0.09c0.05-0.09,0.06-0.1,0.06-0.1c0.06-0.08,0.07-0.1,0.07-0.1
			c0.05-0.07,0.08-0.1,0.08-0.1c0.07-0.08,0.1-0.11,0.1-0.11c0.08-0.08,0.11-0.1,0.11-0.1c0.06-0.05,0.09-0.08,0.09-0.08
			c0.65-0.53,1.3-0.8,2.03-1.1c0.79-0.32,1.68-0.61,2.49-0.86c2.78-0.84,5.81-1.48,8.66-2.02c5.77-1.08,12.3-1.92,18.14-2.57
			c14.06-1.56,28.51-2.19,42.49,0.33c17.25,3.02,33.43,10.52,48.55,19.14"/>
	</g>
	<g id="POLYLINE_193_">
		<path class="st86" d="M160.28,385.61c-1.41,0.97-3.2,2.1-4.47,3.17c-1.13,0.93-2.18,1.99-3.12,3.11c-1.42,1.68-2.78,3.64-4,5.48
			c-3.23,4.82-9.56,15.94-12.61,21.1c-3.99,6.68-8.3,13.45-13.34,19.37c-4.33,5.1-9.33,9.77-14.45,14.08
			c-5.61,4.63-11.59,9.39-17.69,13.35c-3.36,2.12-6.91,4.17-10.78,5.18c-1.56,0.37-3.28,0.62-4.87,0.35
			c-0.16-0.03-0.26-0.06-0.34-0.08c-0.07-0.02-0.1-0.03-0.1-0.03c-0.06-0.02-0.1-0.03-0.1-0.03c-0.06-0.02-0.09-0.04-0.09-0.04
			c-0.08-0.04-0.1-0.04-0.1-0.04c-0.08-0.04-0.09-0.05-0.09-0.05c-0.08-0.05-0.09-0.06-0.09-0.06c-0.09-0.07-0.09-0.08-0.09-0.08
			c-0.07-0.08-0.08-0.09-0.08-0.09c-0.05-0.08-0.05-0.09-0.05-0.09c-0.03-0.08-0.03-0.09-0.03-0.09c-0.01-0.08-0.01-0.09-0.01-0.09
			c0.01-0.08,0.01-0.1,0.01-0.1c0.02-0.07,0.03-0.09,0.03-0.09c0.03-0.08,0.04-0.09,0.04-0.09c0.04-0.08,0.05-0.09,0.05-0.09
			c0.06-0.08,0.07-0.1,0.07-0.1c0.05-0.07,0.08-0.1,0.08-0.1c0.05-0.06,0.08-0.09,0.08-0.09c0.06-0.06,0.08-0.09,0.08-0.09
			c0.08-0.08,0.21-0.2,0.23-0.22c0.07-0.07,0.15-0.13,0.15-0.13c0.08-0.07,0.16-0.14,0.16-0.14c0.09-0.07,0.26-0.21,0.26-0.21
			c0.18-0.14,0.42-0.31,0.6-0.45c0,0,2.47-1.76,2.47-1.76c1.09-0.8,2.18-1.64,3.17-2.56c4.03-3.71,7.15-8.35,10.07-12.95
			c5.97-9.59,11.54-19.7,16.09-30.04c2.06-4.73,3.96-9.68,5.42-14.64c1.31-4.48,2.32-9.13,2.98-13.75c0.7-4.77,1.05-9.74,1.1-14.56
			c0.03-3.7-0.09-7.49-0.66-11.15c-1.02-6.68-3.28-13.23-5.57-19.57c-3.44-9.24-7.53-18.72-11.97-27.52
			c-3.03-5.87-6.44-11.71-10.97-16.56c-2.44-2.64-5.32-4.87-8.33-6.83c-1.55-1.01-4.96-3.05-6.47-4.12c0,0-0.13-0.09-0.13-0.09
			s-0.12-0.09-0.12-0.09s-0.12-0.09-0.12-0.09s-0.11-0.09-0.11-0.09l-0.11-0.09c-0.16-0.13-0.36-0.31-0.46-0.41
			c-0.08-0.08-0.1-0.1-0.1-0.1c-0.07-0.08-0.09-0.1-0.09-0.1c-0.06-0.07-0.08-0.1-0.08-0.1c-0.05-0.07-0.07-0.09-0.07-0.09
			c-0.05-0.08-0.06-0.09-0.06-0.09c-0.04-0.08-0.05-0.09-0.05-0.09c-0.03-0.08-0.04-0.09-0.04-0.09c-0.03-0.08-0.03-0.09-0.03-0.09
			c-0.01-0.08-0.02-0.09-0.02-0.09c0-0.08,0-0.09,0-0.09c0.01-0.08,0.01-0.09,0.01-0.09c0.03-0.08,0.03-0.09,0.03-0.09
			c0.05-0.08,0.05-0.09,0.05-0.09c0.08-0.09,0.08-0.09,0.08-0.09c0.09-0.07,0.1-0.08,0.1-0.08c0.07-0.05,0.09-0.06,0.09-0.06
			c0.08-0.04,0.1-0.05,0.1-0.05c0.07-0.03,0.09-0.04,0.09-0.04c0.08-0.03,0.1-0.04,0.1-0.04c0.88-0.29,1.73-0.25,2.61-0.17
			c1.25,0.14,2.5,0.49,3.7,0.88c3.01,1,6.09,2.45,8.96,3.82c6.3,3.05,12.72,6.35,18.59,10.17c4.85,3.14,9.49,6.74,13.68,10.71
			c9.25,8.81,17.19,19.09,23.64,30.11c3.23,5.42,6.75,12.95,10.63,17.92c2.13,2.72,4.78,5.02,7.48,7.16"/>
	</g>
	<g id="POLYLINE_192_">
		<path class="st86" d="M473.66,469.08c-1.73,0.38-3.38,1.1-4.9,2c-1.54,0.92-2.99,2.03-4.22,3.34c-0.77,0.82-1.44,1.76-1.87,2.82
			c-0.44,1.07-0.61,2.24-0.58,3.4c0.03,1.16,0.23,2.32,0.48,3.45c0.78,3.6,3.05,9.31,4.27,12.84c1.06,3.01,2.33,7.73,3.22,10.84
			c0.74,2.48,1.6,4.98,2.8,7.28c0.61,1.14,1.29,2.28,2.18,3.22c0.21,0.21,0.37,0.36,0.51,0.47c0.09,0.07,0.13,0.1,0.13,0.1
			c0.09,0.06,0.13,0.09,0.13,0.09c0.09,0.06,0.13,0.08,0.13,0.08c0.09,0.05,0.13,0.08,0.13,0.08c0.09,0.05,0.13,0.07,0.13,0.07
			c0.09,0.04,0.11,0.05,0.11,0.05c0.09,0.04,0.11,0.04,0.11,0.04c0.09,0.03,0.11,0.04,0.11,0.04c0.09,0.03,0.11,0.03,0.11,0.03
			c0.09,0.02,0.11,0.03,0.11,0.03c0.09,0.02,0.11,0.02,0.11,0.02c0.09,0.01,0.11,0.01,0.11,0.01c0.09,0.01,0.11,0.01,0.11,0.01
			c0.07,0,0.09,0,0.09,0c0.07,0,0.09-0.01,0.09-0.01c0.07-0.01,0.09-0.01,0.09-0.01c0.07-0.01,0.09-0.01,0.09-0.01
			c0.07-0.01,0.09-0.02,0.09-0.02c0.07-0.02,0.09-0.02,0.09-0.02c0.07-0.02,0.09-0.03,0.09-0.03c0.07-0.02,0.09-0.03,0.09-0.03
			c0.07-0.03,0.09-0.04,0.09-0.04c0.07-0.03,0.09-0.04,0.09-0.04c0.81-0.41,1.35-1.04,1.91-1.71c0.81-0.97,2.46-3.46,3.21-4.52
			c1.03-1.5,5.7-7.6,6.87-9.17c2.57-3.48,5.03-7.16,7-11.02c2.52-4.88,4.82-11.47,6.8-16.63c0.81-2.02,1.63-4.15,2.84-5.96
			c0.63-0.92,1.29-1.61,2.1-2.32c0.37-0.32,1.22-1.04,1.56-1.37"/>
	</g>
	<g id="POLYLINE_191_">
		<path class="st86" d="M310.66,432.17c-1.41,0.47-2.73,1.2-3.95,2.05c-0.96,0.69-2,1.52-2.59,2.55c-0.04,0.07-0.05,0.09-0.05,0.09
			c-0.03,0.07-0.04,0.09-0.04,0.09c-0.03,0.07-0.04,0.09-0.04,0.09c-0.03,0.09-0.04,0.11-0.04,0.11c-0.03,0.08-0.03,0.11-0.03,0.11
			c-0.02,0.08-0.02,0.1-0.02,0.1c-0.01,0.08-0.02,0.1-0.02,0.1c-0.01,0.08-0.01,0.1-0.01,0.1c0,0.08,0,0.09,0,0.09
			c0.01,0.08,0.01,0.09,0.01,0.09c0.01,0.08,0.01,0.09,0.01,0.09c0.02,0.08,0.02,0.09,0.02,0.09c0.03,0.09,0.03,0.1,0.03,0.1
			c0.04,0.08,0.04,0.1,0.04,0.1c0.04,0.08,0.05,0.09,0.05,0.09c0.05,0.08,0.07,0.1,0.07,0.1c0.05,0.07,0.07,0.09,0.07,0.09
			c0.06,0.07,0.07,0.09,0.07,0.09c0.06,0.07,0.08,0.09,0.08,0.09c0.07,0.06,0.09,0.09,0.09,0.09c0.07,0.06,0.1,0.08,0.1,0.08
			c0.53,0.43,1.03,0.68,1.6,0.97c0.95,0.49,2.18,1.05,3.08,1.6c1.84,1.07,3.58,2.46,4.65,4.32c1.72,2.96,1.93,6.74,0.54,9.87
			c-0.8,1.85-2.04,3.49-3.41,4.96c-2.17,2.3-4.72,4.27-7.33,6.06c-5.53,3.75-11.62,6.86-17.7,9.61c-2.23,1.06-9.37,3.97-11.37,5.3
			c-0.08,0.06-0.1,0.07-0.1,0.07c-0.09,0.07-0.1,0.08-0.1,0.08c-0.08,0.08-0.09,0.09-0.09,0.09c-0.06,0.08-0.07,0.09-0.07,0.09
			c-0.02,0.09-0.02,0.09-0.02,0.09c0.04,0.09,0.04,0.09,0.04,0.09c0.08,0.06,0.09,0.06,0.09,0.06c0.08,0.03,0.09,0.03,0.09,0.03
			c0.09,0.02,0.11,0.03,0.11,0.03c0.08,0.01,0.1,0.02,0.1,0.02c1.06,0.08,2.06-0.09,3.09-0.22c1.86-0.27,3.8-0.66,5.64-1.08
			c7.32-1.69,14.59-4.1,21.48-7.08c5.01-2.17,9.91-4.8,14.5-7.77c6.67-4.24,13.51-9.77,19.81-14.54c2.6-1.97,7.37-5.1,10.09-6.93"/>
	</g>
	<g id="POLYLINE_190_">
		<path class="st86" d="M618.9,414.93c1.02,1.6,2.15,3.18,3.58,4.44c1.17,1.04,2.71,1.87,4.26,1.8c1.67-0.06,3.19-0.81,4.58-1.68
			c4.11-2.62,7.43-6.83,10.76-10.33c1.44-1.5,3.02-2.91,4.72-4.1c1.94-1.38,4.11-2.53,6.25-3.57c3.31-1.61,10.1-4.43,13.53-5.91
			c2.11-0.94,4.33-1.96,6.31-3.14c1.64-1.01,3.51-2.31,4.2-4.14c0.03-0.09,0.04-0.13,0.04-0.13c0.03-0.09,0.04-0.13,0.04-0.13
			c0.02-0.09,0.03-0.13,0.03-0.13c0.02-0.09,0.03-0.13,0.03-0.13c0.02-0.09,0.02-0.13,0.02-0.13c0.22-1.25-0.33-2.41-0.97-3.39
			c-0.84-1.25-1.94-2.33-3.04-3.35c-4.65-4.18-9.94-7.99-15.09-11.52c-9.19-6.24-19.19-11.97-29.05-17.11
			c-23.23-12.01-48.57-22.87-72.97-32.33c-11.13-4.2-22.68-8.52-34.21-11.41c-7.82-1.97-15.93-3.29-23.97-3.97
			c-10.34-0.88-21.05-0.85-31.43-0.53c-15.46,0.52-32.33,1.89-47.73,3.52c-40.26,4.42-80.91,10.95-119.92,21.99
			c-37.89,10.57-90.21,30.23-128.43,39.03c-5.77,1.27-11.82,2.35-17.73,2.65c0,0-1.48,0.08-1.48,0.08l-5.34,0.21
			c0,0-1.23,0.07-1.23,0.07s-0.6,0.04-0.6,0.04s-0.6,0.05-0.6,0.05s-0.59,0.05-0.59,0.05s-0.59,0.06-0.59,0.06
			c-1.56,0.18-3.16,0.47-4.66,0.91c-1.93,0.57-3.85,1.35-5.6,2.35c-0.46,0.27-0.95,0.57-1.38,0.88c-0.82,0.57-1.65,1.3-2.16,2.11
			c-0.14,0.23-0.24,0.43-0.31,0.62c-0.02,0.06-0.03,0.09-0.03,0.09c-0.02,0.06-0.03,0.09-0.03,0.09c-0.02,0.06-0.02,0.09-0.02,0.09
			c-0.01,0.06-0.02,0.09-0.02,0.09c-0.01,0.06-0.01,0.09-0.01,0.09c-0.01,0.09-0.01,0.12-0.01,0.12c-0.01,0.09-0.01,0.11-0.01,0.11
			c0,0.08,0,0.1,0,0.1c0,0.08,0.01,0.1,0.01,0.1c0.01,0.08,0.01,0.1,0.01,0.1c0.01,0.08,0.02,0.1,0.02,0.1
			c0.02,0.08,0.02,0.1,0.02,0.1c0.02,0.08,0.03,0.1,0.03,0.1c0.03,0.08,0.03,0.1,0.03,0.1c0.03,0.07,0.04,0.1,0.04,0.1
			c0.03,0.07,0.04,0.1,0.04,0.1c0.04,0.07,0.05,0.1,0.05,0.1c0.04,0.07,0.05,0.1,0.05,0.1c0.04,0.07,0.06,0.1,0.06,0.1
			c0.05,0.07,0.06,0.1,0.06,0.1c0.4,0.58,0.97,1.01,1.5,1.35c0.56,0.36,1.17,0.67,1.78,0.93c2.09,0.89,4.33,1.41,6.58,1.7
			c5.04,0.66,11.25,0.23,16.32,0.48c3.94,0.17,7.91,0.8,11.75,1.69c3.43,0.8,7.06,1.88,10.41,2.98
			c10.36,3.42,37.09,13.84,47.4,17.36c23.53,8.43,63.12,18.53,87.52,25.37c8.96,2.61,20.08,5.93,28.79,8.94
			c9.66,3.31,33.3,12.13,42.82,15.38c10.29,3.5,20.97,6.71,31.65,8.74c12.95,2.49,26.36,3.57,39.54,3.79
			c28.92,0.53,61.55-3.4,90.4-6.67c9.18-1.08,21.43-2.47,30.44-4.25c5.67-1.09,11.56-2.47,17.09-4.11
			c18.96-5.43,43.73-18.29,61.76-26.58c4.68-2.19,12.1-5.08,16.99-6.98c1.43-0.58,2.98-1.21,4.34-1.92c1.05-0.54,2.23-1.23,3-2.08
			c0.11-0.12,0.19-0.22,0.24-0.28c0.1-0.13,0.13-0.18,0.17-0.24c0.05-0.08,0.07-0.11,0.07-0.11c0.05-0.08,0.06-0.11,0.06-0.11
			c0.04-0.08,0.06-0.11,0.06-0.11c0.04-0.08,0.05-0.11,0.05-0.11c0.04-0.08,0.05-0.11,0.05-0.11c0.03-0.08,0.04-0.11,0.04-0.11
			c0.03-0.08,0.04-0.11,0.04-0.11c0.03-0.08,0.03-0.11,0.03-0.11c0.02-0.08,0.03-0.11,0.03-0.11c0.02-0.08,0.03-0.11,0.03-0.11
			c0.02-0.08,0.02-0.11,0.02-0.11c0.01-0.08,0.02-0.11,0.02-0.11c0.01-0.08,0.01-0.11,0.01-0.11c0.01-0.08,0.01-0.11,0.01-0.11
			c0-0.08,0-0.11,0-0.11c0-0.08,0-0.11,0-0.11c0-0.08,0-0.11,0-0.11c-0.01-0.08-0.01-0.11-0.01-0.11c-0.01-0.08-0.01-0.11-0.01-0.11
			c-0.01-0.08-0.01-0.11-0.01-0.11c-0.06-0.38-0.19-0.71-0.34-1c-0.03-0.06-0.05-0.09-0.05-0.09c-0.05-0.09-0.07-0.11-0.07-0.11
			c-0.06-0.08-0.07-0.11-0.07-0.11c-0.06-0.08-0.08-0.11-0.08-0.11c-0.06-0.08-0.08-0.11-0.08-0.11c-0.07-0.08-0.09-0.11-0.09-0.11
			c-0.62-0.72-1.46-1.18-2.26-1.51c-0.82-0.33-1.64-0.54-2.5-0.7c-2.2-0.4-4.53-0.48-6.76-0.53c-3.73-0.04-9.43-0.03-13.1-0.22
			c-2.56-0.1-8.84-0.6-11.47-0.8"/>
	</g>
	<g id="POLYLINE_189_">
		<path class="st86" d="M565.88,374.62c-2.53,7.32-3.79,15.08-4.17,22.8c-0.31,6.62,0.05,13.38,1.95,19.76
			c1.85,6.2,4.81,12.12,8.8,17.22c1.82,2.28,3.91,4.4,6.37,5.98c3.2,2.09,6.94,3.19,10.65,3.96"/>
	</g>
	<g id="POLYLINE_161_">
		<path class="st86" d="M527.36,371.72c-1.76,3.81-3.48,7.8-4.25,11.93c-0.63,3.18-0.85,6.48-0.89,9.72
			c-0.04,4.96,0.41,10.02,1.27,14.91c1.48,8.35,4.22,16.64,9.13,23.62c6.22,8.96,15.27,15.57,24.83,20.62"/>
	</g>
</g>
<g id="AG-OUTLINE">
	<g id="POLYLINE_698_">
		<path class="st87" d="M510.23,466.48c17-2,45.25-4.62,61.79-7.46c7.43-1.3,15-3.03,22.2-5.25c17.98-5.37,42.8-18.13,60.01-26.05
			c4.68-2.19,12.1-5.08,16.99-6.98c1.43-0.58,2.98-1.21,4.34-1.92c1.05-0.54,2.23-1.23,3-2.08c0.11-0.12,0.19-0.22,0.24-0.28
			c0.1-0.13,0.13-0.18,0.17-0.24c0.05-0.08,0.07-0.11,0.07-0.11c0.05-0.08,0.06-0.11,0.06-0.11c0.04-0.08,0.06-0.11,0.06-0.11
			c0.04-0.08,0.05-0.11,0.05-0.11c0.04-0.08,0.05-0.11,0.05-0.11c0.03-0.08,0.04-0.11,0.04-0.11c0.03-0.08,0.04-0.11,0.04-0.11
			c0.03-0.08,0.03-0.11,0.03-0.11c0.02-0.08,0.03-0.11,0.03-0.11c0.02-0.08,0.03-0.11,0.03-0.11c0.02-0.08,0.02-0.11,0.02-0.11
			c0.01-0.08,0.02-0.11,0.02-0.11c0.01-0.08,0.01-0.11,0.01-0.11c0.01-0.08,0.01-0.11,0.01-0.11c0-0.08,0-0.11,0-0.11
			c0-0.08,0-0.11,0-0.11c0-0.08,0-0.11,0-0.11c-0.01-0.08-0.01-0.11-0.01-0.11c-0.01-0.08-0.01-0.11-0.01-0.11
			c-0.01-0.08-0.01-0.11-0.01-0.11c-0.06-0.38-0.19-0.71-0.34-1c-0.03-0.06-0.05-0.09-0.05-0.09c-0.05-0.09-0.07-0.11-0.07-0.11
			c-0.06-0.08-0.07-0.11-0.07-0.11c-0.06-0.08-0.08-0.11-0.08-0.11c-0.06-0.08-0.08-0.11-0.08-0.11c-0.07-0.08-0.09-0.11-0.09-0.11
			c-0.62-0.72-1.46-1.18-2.26-1.51c-0.82-0.33-1.64-0.54-2.5-0.7c-2.2-0.4-4.53-0.48-6.76-0.53c-3.73-0.04-9.43-0.03-13.1-0.22
			c-2.56-0.1-8.84-0.6-11.47-0.8c2.09-2.12,4.5-3.96,7.1-5.42c4.7-2.66,11.92-5.49,16.92-7.68c2.11-0.94,4.33-1.96,6.31-3.14
			c1.64-1.01,3.51-2.31,4.2-4.14c0.03-0.09,0.04-0.13,0.04-0.13c0.03-0.09,0.04-0.13,0.04-0.13c0.02-0.09,0.03-0.13,0.03-0.13
			c0.02-0.09,0.03-0.13,0.03-0.13c0.02-0.09,0.02-0.13,0.02-0.13c0.18-0.99-0.16-2-0.62-2.81c-0.49-0.88-1.15-1.66-1.83-2.4
			c-1.66-1.76-3.69-3.4-5.57-4.93c-13.85-10.99-29.5-19.88-45.24-27.86c-26.63-13.26-55.11-25.32-83.12-35.33
			c-10.21-3.58-20.87-6.72-31.57-8.4c-3.53-18.72-8.86-37.37-16.21-54.96c-0.74-1.63-2.3-5.85-3.24-7.29
			c-0.05-0.07-0.07-0.1-0.07-0.1c-0.05-0.07-0.07-0.09-0.07-0.09c-0.07-0.08-0.09-0.1-0.09-0.1c-0.09-0.08-0.09-0.09-0.09-0.09
			c-0.08-0.06-0.09-0.07-0.09-0.07c-0.08-0.04-0.09-0.05-0.09-0.05c-0.08-0.02-0.09-0.03-0.09-0.03c-0.08,0-0.09,0-0.09,0
			c-0.09,0.02-0.09,0.02-0.09,0.02c-0.08,0.04-0.09,0.05-0.09,0.05c-0.08,0.07-0.09,0.08-0.09,0.08c-0.07,0.08-0.08,0.09-0.08,0.09
			c-0.06,0.08-0.07,0.1-0.07,0.1c-0.05,0.08-0.06,0.1-0.06,0.1c-0.74,1.39-1.1,3.1-2.1,4.31c-0.06,0.07-0.09,0.1-0.09,0.1
			c-0.84,0.94-2.05,1.21-3.04,1.85c-0.06,0.04-0.09,0.06-0.09,0.06c-0.09,0.06-0.11,0.08-0.11,0.08c-0.08,0.07-0.11,0.09-0.11,0.09
			c-0.08,0.07-0.11,0.09-0.11,0.09c-0.08,0.07-0.1,0.1-0.1,0.1c-0.07,0.08-0.1,0.11-0.1,0.11c-0.07,0.08-0.09,0.11-0.09,0.11
			c-0.04,0.06-0.07,0.09-0.07,0.09c-0.06,0.08-0.07,0.1-0.07,0.1c-0.48,0.78-0.62,1.6-0.79,2.46c-0.35,1.8-0.47,4.1-1.66,5.56
			c-0.08,0.09-0.11,0.13-0.11,0.13c-0.08,0.08-0.12,0.12-0.12,0.12c-0.08,0.08-0.12,0.12-0.12,0.12c-0.71,0.62-1.48,0.93-2.32,1.24
			c-1.24,0.45-2.8,0.86-3.82,1.72c-0.09,0.07-0.13,0.11-0.13,0.11c-0.08,0.07-0.12,0.11-0.12,0.11c-0.08,0.08-0.11,0.11-0.11,0.11
			c-1.18,1.27-1.59,2.98-2.53,4.38c-0.11,0.16-0.2,0.28-0.27,0.36c-0.06,0.07-0.09,0.11-0.09,0.11c-0.06,0.07-0.1,0.11-0.1,0.11
			c-0.07,0.07-0.1,0.1-0.1,0.1c-0.07,0.06-0.1,0.1-0.1,0.1c-0.07,0.06-0.11,0.09-0.11,0.09c-0.07,0.06-0.11,0.08-0.11,0.08
			c-0.07,0.05-0.11,0.07-0.11,0.07c-0.07,0.04-0.11,0.07-0.11,0.07c-0.07,0.04-0.11,0.06-0.11,0.06c-0.07,0.04-0.11,0.06-0.11,0.06
			c-0.08,0.04-0.11,0.05-0.11,0.05c-1.16,0.5-2.5,0.44-3.66,0.79c-0.15,0.05-0.26,0.09-0.33,0.12c-0.07,0.03-0.11,0.05-0.11,0.05
			c-0.07,0.03-0.1,0.05-0.1,0.05c-0.07,0.03-0.1,0.05-0.1,0.05c-0.06,0.04-0.1,0.06-0.1,0.06c-0.08,0.05-0.09,0.06-0.09,0.06
			c-0.07,0.05-0.09,0.07-0.09,0.07c-0.08,0.07-0.11,0.09-0.11,0.09c-0.07,0.07-0.1,0.09-0.1,0.09c-0.07,0.08-0.09,0.1-0.09,0.1
			c-0.07,0.08-0.09,0.11-0.09,0.11c-0.69,0.95-0.84,2.18-1.49,3.11c-0.06,0.09-0.08,0.11-0.08,0.11c-0.07,0.08-0.09,0.11-0.09,0.11
			c-0.07,0.08-0.09,0.1-0.09,0.1c-0.07,0.07-0.1,0.1-0.1,0.1c-0.08,0.07-0.09,0.08-0.09,0.08c-0.08,0.06-0.1,0.07-0.1,0.07
			c-0.09,0.06-0.1,0.07-0.1,0.07c-0.07,0.04-0.09,0.05-0.09,0.05c-0.07,0.04-0.11,0.06-0.11,0.06c-0.08,0.04-0.12,0.05-0.12,0.05
			c-0.08,0.03-0.12,0.05-0.12,0.05c-0.08,0.03-0.12,0.05-0.12,0.05c-0.6,0.2-1.12,0.25-1.73,0.3c-1.2,0.1-2.71,0.09-3.82,0.57
			c-0.09,0.04-0.13,0.06-0.13,0.06c-1.52,0.75-2.38,2.28-3.64,3.29c-0.85,0.7-1.74,1.01-2.76,1.25c-1.5,0.35-3.21,0.45-4.67,0.93
			c-1.86,0.56-2.8,2.38-4.42,3.24c-0.79,0.41-1.58,0.58-2.44,0.74c-1.15,0.2-2.67,0.34-3.82,0.54c-0.81,0.14-1.62,0.32-2.39,0.62
			c-0.84,0.32-1.64,0.78-2.39,1.27c-1.56,1.03-3.16,2.29-4.86,3.08c-2.06,0.97-4.34,1.45-6.56,1.89c-3.25,0.62-7.67,1.3-10.78,2.37
			c-3.66,1.17-8.32,3.54-11.83,5.18c-4.45,2.12-9.93,3.76-14.4,5.84c-2.84,1.32-5.36,3.25-7.75,5.25c-2.35-1.41-4.02-3.77-5.66-5.91
			c-4.01-5.52-9.01-12.7-13.66-17.59c-5.57-6.01-12.04-11.55-18.43-16.69c-5.09-4.04-11.81-9.25-17.06-13.03
			c-3.43-2.44-7.06-4.9-10.79-6.86c-1.61-0.84-3.3-1.61-5.04-2.15c-0.93-0.28-1.92-0.55-2.9-0.58c-0.16,0-0.27,0-0.35,0.01
			c-0.07,0.01-0.1,0.01-0.1,0.01c-0.07,0.01-0.1,0.01-0.1,0.01c-0.06,0.01-0.09,0.02-0.09,0.02c-0.07,0.02-0.09,0.02-0.09,0.02
			c-0.08,0.02-0.1,0.03-0.1,0.03c-0.08,0.03-0.09,0.03-0.09,0.03c-0.08,0.04-0.09,0.04-0.09,0.04c-0.09,0.06-0.1,0.06-0.1,0.06
			c-0.08,0.08-0.09,0.09-0.09,0.09c-0.05,0.08-0.06,0.09-0.06,0.09c-0.03,0.08-0.03,0.09-0.03,0.09c-0.01,0.08-0.01,0.09-0.01,0.09
			c0,0.08,0,0.1,0,0.1c0.01,0.07,0.01,0.09,0.01,0.09c0.01,0.08,0.02,0.09,0.02,0.09c0.02,0.08,0.03,0.1,0.03,0.1
			c0.03,0.09,0.04,0.1,0.04,0.1c0.03,0.07,0.04,0.11,0.04,0.11c0.03,0.07,0.05,0.11,0.05,0.11c0.04,0.08,0.06,0.12,0.06,0.12
			c0.46,0.79,1.05,1.42,1.66,2.07c2.94,3.09,9.53,8.31,12.86,11.15c3.76,3.18,7.81,6.64,11.21,10.18c2.07,2.16,4.06,4.47,5.66,7.01
			c1.51,2.39,2.7,5.01,3.36,7.76c0.72,2.99,0.83,6.14,0.32,9.17c-0.34,2.02-1,3.99-1.93,5.81c-0.92,1.82-2.13,3.5-3.48,5.02
			c-1.76,2.01-4.11,4.19-5.88,6.19c-1,1.15-2.1,2.49-2.51,3.94c-0.7,2.55,1.46,4.59,2.95,6.35l-3.54,0.85
			c-2.05-0.44-4.3-0.93-5.99-2.21c-0.58-0.44-1.26-1.07-1.87-1.47c-0.63-0.42-1.31-0.68-1.98-0.79c-0.79-0.12-1.57-0.09-2.36,0.03
			c-0.77,0.12-1.65,0.37-2.3,0.76c-0.08,0.05-0.12,0.07-0.12,0.07c-0.08,0.05-0.11,0.08-0.11,0.08c-0.07,0.05-0.11,0.08-0.11,0.08
			c-0.07,0.05-0.1,0.08-0.1,0.08c-0.08,0.07-0.09,0.08-0.09,0.08c-0.09,0.09-0.1,0.1-0.1,0.1c-0.07,0.07-0.08,0.09-0.08,0.09
			c-0.06,0.08-0.07,0.09-0.07,0.09c-0.05,0.08-0.06,0.09-0.06,0.09c-0.05,0.08-0.05,0.1-0.05,0.1c-0.04,0.08-0.05,0.1-0.05,0.1
			c-0.03,0.08-0.03,0.09-0.03,0.09c-0.02,0.08-0.03,0.09-0.03,0.09c-0.02,0.08-0.02,0.09-0.02,0.09c-0.01,0.08-0.01,0.09-0.01,0.09
			c-0.01,0.08-0.01,0.1-0.01,0.1c0,0.08,0,0.1,0,0.1c0,0.08,0,0.1,0,0.1c0.01,0.08,0.01,0.1,0.01,0.1c0.01,0.08,0.02,0.12,0.02,0.12
			c0.01,0.07,0.02,0.1,0.02,0.1c0.02,0.07,0.03,0.1,0.03,0.1c0.02,0.07,0.03,0.1,0.03,0.1c0.02,0.07,0.04,0.1,0.04,0.1
			c0.03,0.07,0.04,0.1,0.04,0.1c0.29,0.69,0.78,1.26,1.25,1.74c0.55,0.54,1.12,0.97,1.73,1.3c0.96,0.51,1.95,0.65,2.99,0.66
			l-5.34,1.42c-2.04,0.25-4.13,0.21-6.15-0.14c-1.45-0.23-3-0.86-4.37-1.39c-0.39-0.15-0.93-0.32-1.32-0.37
			c-0.08-0.01-0.12-0.01-0.12-0.01c-0.08-0.01-0.12-0.01-0.12-0.01c-0.08,0-0.12-0.01-0.12-0.01c-0.08,0-0.12,0-0.12,0
			c-0.95,0.03-1.83,0.35-2.74,0.61c-1.12,0.35-2.36,0.74-3.35,1.36c-0.08,0.06-0.11,0.08-0.11,0.08c-0.08,0.06-0.1,0.08-0.1,0.08
			c-0.07,0.06-0.09,0.08-0.09,0.08c-0.08,0.08-0.09,0.09-0.09,0.09c-0.07,0.08-0.08,0.09-0.08,0.09c-0.06,0.08-0.06,0.09-0.06,0.09
			c-0.04,0.08-0.05,0.09-0.05,0.09c-0.03,0.08-0.03,0.09-0.03,0.09c-0.01,0.08-0.02,0.09-0.02,0.09c0,0.08,0,0.09,0,0.09
			c0.01,0.08,0.01,0.09,0.01,0.09c0.03,0.08,0.03,0.09,0.03,0.09c0.04,0.08,0.04,0.09,0.04,0.09c0.05,0.08,0.06,0.1,0.06,0.1
			c0.06,0.07,0.07,0.09,0.07,0.09c0.06,0.07,0.08,0.09,0.08,0.09c0.07,0.07,0.09,0.09,0.09,0.09c0.06,0.06,0.1,0.09,0.1,0.09
			c0.07,0.06,0.11,0.09,0.11,0.09c0.67,0.49,1.35,0.79,2.1,1.1c1.23,0.5,2.7,0.82,3.99,0.71l-7.5,2.23
			c-2.17-0.09-4.38-0.29-6.49-0.83c-1.95-0.48-4.07-1.11-6.08-1.09c-1.12,0-2.24,0.2-3.29,0.57c-0.67,0.24-1.43,0.58-1.97,1
			c-0.07,0.05-0.09,0.07-0.09,0.07c-0.08,0.07-0.1,0.09-0.1,0.09c-0.08,0.07-0.09,0.09-0.09,0.09c-0.07,0.07-0.08,0.09-0.08,0.09
			c-0.06,0.07-0.07,0.09-0.07,0.09c-0.05,0.08-0.06,0.09-0.06,0.09c-0.04,0.08-0.05,0.09-0.05,0.09c-0.03,0.08-0.04,0.09-0.04,0.09
			c-0.02,0.08-0.02,0.09-0.02,0.09c-0.01,0.08-0.01,0.09-0.01,0.09c0,0.08,0,0.09,0,0.09c0.02,0.08,0.02,0.09,0.02,0.09
			c0.03,0.08,0.03,0.09,0.03,0.09c0.04,0.08,0.04,0.09,0.04,0.09c0.05,0.08,0.06,0.09,0.06,0.09c0.06,0.08,0.07,0.09,0.07,0.09
			c0.07,0.08,0.09,0.09,0.09,0.09c0.08,0.08,0.1,0.09,0.1,0.09c0.05,0.05,0.09,0.08,0.09,0.08c0.08,0.06,0.12,0.09,0.12,0.09
			c0.82,0.57,1.7,0.89,2.62,1.23c1.34,0.48,2.84,0.8,4.25,0.73l-7.22,2.29c-2.96,0.02-5.98-0.07-8.89-0.65
			c-0.64-0.13-1.29-0.31-1.9-0.53c-0.88-0.32-2.07-0.83-2.97-0.98c-1.4-0.27-2.8-0.09-4.17,0.21c-1.26,0.29-2.59,0.7-3.66,1.43
			c-0.08,0.06-0.12,0.09-0.12,0.09c-0.08,0.06-0.11,0.09-0.11,0.09c-0.07,0.06-0.1,0.09-0.1,0.09c-0.08,0.08-0.09,0.09-0.09,0.09
			c-0.07,0.08-0.08,0.09-0.08,0.09c-0.06,0.08-0.07,0.09-0.07,0.09c-0.05,0.08-0.06,0.09-0.06,0.09c-0.04,0.08-0.05,0.1-0.05,0.1
			c-0.04,0.08-0.04,0.1-0.04,0.1c-0.02,0.08-0.03,0.09-0.03,0.09c-0.02,0.08-0.02,0.09-0.02,0.09c-0.01,0.08-0.01,0.09-0.01,0.09
			c0,0.08,0,0.09,0,0.09c0.01,0.08,0.01,0.09,0.01,0.09c0.01,0.08,0.02,0.09,0.02,0.09c0.02,0.08,0.02,0.09,0.02,0.09
			c0.03,0.08,0.03,0.09,0.03,0.09c0.03,0.07,0.04,0.09,0.04,0.09c0.03,0.07,0.05,0.09,0.05,0.09c0.04,0.07,0.05,0.09,0.05,0.09
			c0.04,0.07,0.06,0.09,0.06,0.09c0.05,0.07,0.07,0.09,0.07,0.09c0.05,0.07,0.07,0.09,0.07,0.09c0.73,0.82,1.65,1.33,2.58,1.86
			c1.39,0.76,3.06,1.34,4.62,1.37l-3.64,1.19c-2.28-0.14-4.63-0.36-6.87-0.86c-1.3-0.27-3.01-0.9-4.27-1.34
			c-0.8-0.27-1.76-0.52-2.57-0.56c-1.17-0.06-2.23,0.12-3.36,0.35c-1.37,0.34-3.48,0.66-4.75,1.23c-0.08,0.04-0.11,0.05-0.11,0.05
			c-0.08,0.04-0.1,0.06-0.1,0.06c-0.07,0.04-0.09,0.06-0.09,0.06c-0.09,0.06-0.11,0.07-0.11,0.07c-0.09,0.07-0.09,0.08-0.09,0.08
			c-0.08,0.08-0.09,0.09-0.09,0.09c-0.07,0.09-0.07,0.09-0.07,0.09c-0.05,0.08-0.05,0.09-0.05,0.09c-0.03,0.08-0.04,0.09-0.04,0.09
			c-0.02,0.08-0.02,0.09-0.02,0.09c-0.01,0.08-0.01,0.09-0.01,0.09c0,0.08,0,0.1,0,0.1c0.01,0.07,0.01,0.09,0.01,0.09
			c0.02,0.08,0.02,0.09,0.02,0.09c0.03,0.08,0.03,0.09,0.03,0.09c0.03,0.08,0.04,0.09,0.04,0.09c0.03,0.07,0.05,0.1,0.05,0.1
			c0.05,0.08,0.07,0.11,0.07,0.11c0.06,0.08,0.08,0.11,0.08,0.11c0.36,0.49,0.82,0.89,1.23,1.21c0.58,0.45,1.14,0.81,1.76,1.17
			c0.91,0.51,1.88,0.94,2.88,1.2c0.96,0.25,1.97,0.35,2.96,0.34l-6.02,1.95c-4-0.27-8.09-0.75-11.84-2.24l-2.36-0.96
			c-0.61-0.24-1.36-0.5-1.98-0.58c-0.96-0.15-1.81,0.18-2.61,0.58c-0.51,0.26-1.3,0.63-1.78,0.93c-0.13,0.08-0.21,0.14-0.25,0.17
			c-0.08,0.06-0.11,0.09-0.11,0.09c-0.07,0.06-0.09,0.07-0.09,0.07c-0.08,0.07-0.1,0.09-0.1,0.09c-0.08,0.08-0.09,0.09-0.09,0.09
			c-0.07,0.08-0.08,0.09-0.08,0.09c-0.06,0.08-0.07,0.1-0.07,0.1c-0.05,0.08-0.05,0.09-0.05,0.09c-0.04,0.08-0.04,0.09-0.04,0.09
			c-0.03,0.09-0.03,0.09-0.03,0.09c-0.01,0.08-0.02,0.09-0.02,0.09c0,0.08,0,0.09,0,0.09c0,0.07,0.01,0.09,0.01,0.09
			c0.02,0.08,0.02,0.1,0.02,0.1c0.03,0.09,0.03,0.1,0.03,0.1c0.03,0.07,0.04,0.09,0.04,0.09c0.04,0.07,0.04,0.09,0.04,0.09
			c0.04,0.07,0.05,0.09,0.05,0.09c0.05,0.08,0.07,0.11,0.07,0.11c0.04,0.06,0.07,0.09,0.07,0.09c0.05,0.06,0.08,0.09,0.08,0.09
			c0.51,0.57,1.02,0.91,1.6,1.29c0.67,0.43,1.39,0.81,2.1,1.16c0.99,0.47,2.01,0.9,3.08,1.16c0.88,0.23,1.79,0.33,2.7,0.38
			l-4.92,1.55c-2.47-0.2-4.95-0.73-7.22-1.76c-1.12-0.5-2.16-1.18-3.1-1.97c-0.62-0.5-1.49-1.31-2.16-1.71
			c-0.08-0.04-0.1-0.06-0.1-0.06c-0.08-0.04-0.1-0.05-0.1-0.05c-0.08-0.04-0.1-0.05-0.1-0.05c-0.07-0.03-0.1-0.04-0.1-0.04
			c-0.08-0.03-0.1-0.03-0.1-0.03c-0.08-0.02-0.1-0.03-0.1-0.03c-0.08-0.02-0.1-0.02-0.1-0.02c-0.08-0.01-0.09-0.02-0.09-0.02
			c-0.08-0.01-0.09-0.01-0.09-0.01c-0.08,0-0.09,0-0.09,0c-0.06,0-0.1,0-0.1,0c-0.06,0-0.1,0.01-0.1,0.01
			c-0.06,0.01-0.1,0.01-0.1,0.01c-0.06,0.01-0.1,0.01-0.1,0.01c-0.32,0.06-0.53,0.14-0.78,0.22c-1.51,0.58-3.25,1.14-4.53,2.11
			c-0.08,0.07-0.11,0.09-0.11,0.09c-0.08,0.07-0.1,0.09-0.1,0.09c-0.07,0.07-0.09,0.09-0.09,0.09c-0.07,0.07-0.09,0.09-0.09,0.09
			c-0.05,0.06-0.08,0.09-0.08,0.09c-0.06,0.07-0.07,0.09-0.07,0.09c-0.05,0.07-0.06,0.09-0.06,0.09c-0.05,0.08-0.06,0.09-0.06,0.09
			c-0.04,0.08-0.05,0.09-0.05,0.09c-0.04,0.08-0.04,0.09-0.04,0.09c-0.03,0.08-0.03,0.09-0.03,0.09c-0.02,0.08-0.03,0.09-0.03,0.09
			c-0.02,0.08-0.02,0.09-0.02,0.09c-0.01,0.08-0.01,0.09-0.01,0.09c-0.01,0.08-0.01,0.09-0.01,0.09c0,0.08,0,0.09,0,0.09
			c0.01,0.08,0.01,0.1,0.01,0.1c0.01,0.08,0.02,0.1,0.02,0.1c0.02,0.08,0.02,0.1,0.02,0.1c0.02,0.08,0.03,0.1,0.03,0.1
			c0.03,0.08,0.04,0.1,0.04,0.1c0.04,0.08,0.05,0.1,0.05,0.1c0.04,0.08,0.05,0.1,0.05,0.1c0.05,0.08,0.06,0.1,0.06,0.1
			c0.06,0.08,0.07,0.1,0.07,0.1c0.05,0.06,0.07,0.09,0.07,0.09c0.07,0.09,0.1,0.11,0.1,0.11c0.45,0.47,0.92,0.76,1.4,1.05
			c0.69,0.41,1.45,0.77,2.18,1.09c1.61,0.68,3.45,1.47,5.1,2.03l-8.21,2.42c-2.91-0.46-5.97-1.05-8.56-2.51
			c-1.57-0.89-3.16-2.33-5.05-2.15c-1.3,0.09-2.45,0.55-3.59,1.13c-0.97,0.52-1.99,1.14-2.77,1.91c-0.08,0.09-0.12,0.13-0.12,0.13
			c-0.08,0.09-0.11,0.13-0.11,0.13c-0.07,0.09-0.09,0.11-0.09,0.11c-0.06,0.09-0.08,0.11-0.08,0.11c-0.06,0.09-0.07,0.11-0.07,0.11
			c-0.05,0.09-0.06,0.11-0.06,0.11c-0.04,0.09-0.05,0.11-0.05,0.11c-0.04,0.09-0.04,0.11-0.04,0.11c-0.03,0.08-0.03,0.11-0.03,0.11
			c-0.02,0.08-0.02,0.09-0.02,0.09c-0.01,0.08-0.01,0.09-0.01,0.09c-0.01,0.08-0.01,0.09-0.01,0.09c0,0.08,0,0.09,0,0.09
			c0.01,0.08,0.01,0.09,0.01,0.09c0.02,0.08,0.02,0.09,0.02,0.09c0.02,0.07,0.03,0.09,0.03,0.09c0.03,0.07,0.04,0.09,0.04,0.09
			c0.04,0.07,0.05,0.09,0.05,0.09c0.04,0.07,0.05,0.09,0.05,0.09c0.05,0.07,0.06,0.09,0.06,0.09c0.05,0.07,0.07,0.09,0.07,0.09
			c0.06,0.07,0.07,0.09,0.07,0.09c0.06,0.07,0.1,0.1,0.1,0.1c0.07,0.07,0.11,0.1,0.11,0.1c0.73,0.66,1.54,1.1,2.37,1.6
			c1.07,0.63,2.19,1.19,3.4,1.5c-1.26,0.32-3.81,0.95-5.08,1.25c-2.09-0.66-4.36-1.34-6.31-2.34c-0.62-0.32-1.23-0.7-1.79-1.11
			c-0.96-0.7-2.07-1.64-3.28-1.68c-1.33-0.04-2.49,0.46-3.63,0.98c-1.04,0.5-2.08,1.07-3,1.78c-4.36-4.44-7.87-11.9-10.96-17.31
			c-3.62-6.54-7.86-12.96-12.47-18.84c-4.94-6.29-10.4-12.26-16.48-17.46c-5.12-4.36-10.82-8.15-16.68-11.44
			c-5.17-2.88-10.74-5.67-16.14-8.1c-2.12-0.92-4.34-1.84-6.59-2.4c-1.38-0.33-2.92-0.59-4.3-0.22c-0.09,0.03-0.11,0.03-0.11,0.03
			c-0.08,0.03-0.1,0.04-0.1,0.04c-0.07,0.03-0.09,0.04-0.09,0.04c-0.09,0.04-0.1,0.05-0.1,0.05c-0.08,0.05-0.09,0.05-0.09,0.05
			c-0.08,0.06-0.09,0.07-0.09,0.07c-0.09,0.08-0.09,0.09-0.09,0.09c-0.06,0.08-0.06,0.09-0.06,0.09c-0.04,0.08-0.04,0.09-0.04,0.09
			c-0.02,0.08-0.02,0.09-0.02,0.09c0,0.09,0,0.09,0,0.09c0.01,0.08,0.01,0.09,0.01,0.09c0.02,0.08,0.02,0.09,0.02,0.09
			c0.03,0.09,0.04,0.1,0.04,0.1c0.04,0.08,0.05,0.09,0.05,0.09c0.04,0.07,0.06,0.09,0.06,0.09c0.05,0.07,0.07,0.09,0.07,0.09
			c0.06,0.07,0.08,0.1,0.08,0.1c0.06,0.07,0.09,0.1,0.09,0.1c0.62,0.65,1.32,1.08,2.04,1.57c3.53,2.23,7.6,4.61,10.75,7.32
			c2.1,1.78,4.01,3.83,5.72,5.99c3.72,4.7,6.68,10.07,9.35,15.43c4.04,8.23,7.87,17.11,11.05,25.7c2.29,6.34,4.55,12.89,5.57,19.57
			c0.56,3.66,0.68,7.45,0.66,11.15c-0.05,4.82-0.4,9.79-1.1,14.56c-0.67,4.62-1.67,9.27-2.98,13.75c-1.46,4.96-3.36,9.9-5.42,14.64
			c-4.1,9.34-9.09,18.55-14.38,27.27c-3.37,5.45-6.86,11.11-11.56,15.53c-1.05,0.99-2.22,1.91-3.39,2.76c0,0-2.47,1.76-2.47,1.76
			s-0.21,0.15-0.21,0.15s-0.2,0.15-0.2,0.15c-0.34,0.25-0.78,0.62-1.02,0.88c-0.06,0.06-0.08,0.09-0.08,0.09
			c-0.05,0.06-0.07,0.09-0.07,0.09c-0.06,0.09-0.07,0.1-0.07,0.1c-0.05,0.08-0.06,0.1-0.06,0.1c-0.04,0.08-0.05,0.09-0.05,0.09
			c-0.03,0.08-0.04,0.09-0.04,0.09c-0.02,0.09-0.02,0.1-0.02,0.1c-0.01,0.08-0.01,0.09-0.01,0.09c0.01,0.08,0.01,0.09,0.01,0.09
			c0.03,0.08,0.04,0.09,0.04,0.09c0.06,0.09,0.07,0.09,0.07,0.09c0.08,0.08,0.09,0.09,0.09,0.09c0.08,0.06,0.09,0.07,0.09,0.07
			c0.08,0.05,0.1,0.06,0.1,0.06c0.08,0.04,0.11,0.05,0.11,0.05c0.06,0.02,0.09,0.04,0.09,0.04c0.06,0.02,0.09,0.03,0.09,0.03
			c0.07,0.02,0.1,0.03,0.1,0.03c0.54,0.15,0.99,0.19,1.52,0.2c0.55,0.01,1.12-0.02,1.67-0.08c2.35-0.27,4.61-1.11,6.74-2.11
			c3.36-1.6,6.56-3.68,9.6-5.8c4.74-3.36,9.71-7.27,14.18-10.99c6.21-5.21,12.17-10.93,17.12-17.37
			c9.14-11.71,16.28-26.97,24.67-39.21c1.54-2.19,3.22-4.38,5.25-6.14c0.78,0.74,1.74,1.48,2.76,1.81c1.15,0.37,2.24,0.34,3.39,0.24
			c2.05-0.19,4.15-0.87,6.13-1.38c2.49-0.61,5.09-0.74,7.63-0.63c0.93,0.3,2.8,0.91,3.73,1.23c-1.04,0.21-2.08,0.58-3.07,0.95
			c-0.87,0.36-3.35,1.21-4.14,1.66c-0.08,0.05-0.1,0.06-0.1,0.06c-0.08,0.05-0.1,0.06-0.1,0.06c-0.09,0.07-0.1,0.08-0.1,0.08
			c-0.08,0.07-0.09,0.08-0.09,0.08c-0.08,0.09-0.08,0.09-0.08,0.09c-0.05,0.08-0.05,0.09-0.05,0.09c-0.03,0.08-0.03,0.09-0.03,0.09
			c-0.01,0.08-0.01,0.09-0.01,0.09c0.01,0.08,0.02,0.09,0.02,0.09c0.03,0.08,0.04,0.09,0.04,0.09c0.06,0.08,0.06,0.09,0.06,0.09
			c0.07,0.08,0.09,0.09,0.09,0.09c0.08,0.07,0.09,0.08,0.09,0.08c0.07,0.05,0.1,0.07,0.1,0.07c0.06,0.04,0.09,0.06,0.09,0.06
			c1.05,0.63,2.32,0.94,3.5,1.21c1.06,0.22,2.15,0.37,3.23,0.38c0.92,0.01,1.86-0.1,2.76-0.26c1.16-0.22,2.71-0.53,3.88-0.61
			c1.81-0.16,4.28-0.15,6.11-0.16l9.3,3.51c-1.31,0-2.49,0.29-3.73,0.64c-0.84,0.27-2.61,0.72-3.39,1.09
			c-0.08,0.04-0.12,0.06-0.12,0.06c-0.08,0.04-0.1,0.06-0.1,0.06c-0.07,0.05-0.09,0.06-0.09,0.06c-0.08,0.06-0.1,0.07-0.1,0.07
			c-0.08,0.07-0.09,0.08-0.09,0.08c-0.07,0.09-0.08,0.09-0.08,0.09c-0.05,0.08-0.06,0.09-0.06,0.09c-0.03,0.08-0.04,0.09-0.04,0.09
			c-0.02,0.08-0.02,0.09-0.02,0.09c0,0.08,0,0.09,0,0.09c0.01,0.08,0.01,0.09,0.01,0.09c0.02,0.08,0.03,0.1,0.03,0.1
			c0.03,0.07,0.03,0.09,0.03,0.09c0.04,0.07,0.04,0.09,0.04,0.09c0.04,0.08,0.05,0.09,0.05,0.09c0.05,0.08,0.06,0.09,0.06,0.09
			c0.05,0.06,0.07,0.1,0.07,0.1c0.05,0.07,0.08,0.1,0.08,0.1c0.06,0.07,0.09,0.1,0.09,0.1c0.67,0.67,1.37,1.09,2.17,1.53
			c0.83,0.43,1.71,0.79,2.63,1c0.98,0.24,2.01,0.18,2.86-0.24c0.91-0.43,1.72-1.13,2.61-1.55c1.11-0.51,2.2-0.7,3.38-0.87l1.69-0.21
			l4.82,1.79c-0.76,0.05-1.46,0.27-2.17,0.54c-1.19,0.47-2.49,1.23-3.6,1.86c-0.08,0.05-0.1,0.07-0.1,0.07
			c-0.07,0.05-0.09,0.07-0.09,0.07c-0.08,0.08-0.09,0.08-0.09,0.08c-0.06,0.08-0.07,0.09-0.07,0.09c-0.04,0.08-0.04,0.09-0.04,0.09
			c-0.02,0.09-0.02,0.09-0.02,0.09c-0.01,0.08-0.01,0.09-0.01,0.09c0.01,0.08,0.01,0.09,0.01,0.09c0.02,0.08,0.02,0.09,0.02,0.09
			c0.03,0.08,0.03,0.09,0.03,0.09c0.03,0.07,0.04,0.1,0.04,0.1c0.04,0.08,0.05,0.1,0.05,0.1c0.05,0.08,0.06,0.11,0.06,0.11
			c0.59,0.89,1.44,1.55,2.26,2.07c0.67,0.41,1.47,0.78,2.24,0.83c0.09,0.01,0.13,0.01,0.13,0.01c0.09,0,0.13,0,0.13,0
			c0.09,0,0.13,0,0.13,0c0.08,0,0.13-0.01,0.13-0.01c1.45-0.12,2.62-0.99,3.88-1.55c0.55-0.26,1.04-0.43,1.61-0.58
			c1.83-0.49,3.89-0.54,5.78-0.63l9.01,3.09c-1.09-0.23-2.22-0.18-3.3,0.01c-1.1,0.2-2.34,0.59-3.24,1.2
			c-0.07,0.05-0.1,0.07-0.1,0.07c-0.06,0.05-0.09,0.07-0.09,0.07c-0.09,0.07-0.11,0.1-0.11,0.1c-0.08,0.08-0.09,0.09-0.09,0.09
			c-0.07,0.08-0.08,0.09-0.08,0.09c-0.06,0.08-0.07,0.09-0.07,0.09c-0.05,0.08-0.06,0.09-0.06,0.09c-0.04,0.08-0.05,0.1-0.05,0.1
			c-0.04,0.08-0.04,0.1-0.04,0.1c-0.03,0.08-0.03,0.1-0.03,0.1c-0.02,0.09-0.02,0.1-0.02,0.1c-0.01,0.07-0.01,0.09-0.01,0.09
			c0,0.07,0,0.09,0,0.09c0.01,0.08,0.01,0.09,0.01,0.09c0.01,0.08,0.02,0.09,0.02,0.09c0.02,0.08,0.03,0.1,0.03,0.1
			c0.03,0.08,0.04,0.11,0.04,0.11c0.04,0.09,0.05,0.11,0.05,0.11c0.05,0.09,0.06,0.11,0.06,0.11c0.04,0.07,0.05,0.09,0.05,0.09
			c0.04,0.07,0.06,0.09,0.06,0.09c0.11,0.15,0.2,0.25,0.28,0.35c0.98,1,2.27,1.71,3.62,1.8c0.51,0.03,0.92-0.01,1.4-0.07
			c1.07-0.15,4.18-0.83,5.28-1.04c2.35-0.47,4.78-0.7,7.17-0.79l8.78,2.62c-1.31,0.1-3.22,0.65-4.52,0.94
			c-0.61,0.15-1.33,0.34-1.88,0.61c-0.08,0.04-0.11,0.05-0.11,0.05c-0.08,0.04-0.1,0.06-0.1,0.06c-0.07,0.04-0.09,0.06-0.09,0.06
			c-0.09,0.06-0.11,0.07-0.11,0.07c-0.09,0.07-0.09,0.08-0.09,0.08c-0.08,0.08-0.09,0.09-0.09,0.09c-0.07,0.08-0.07,0.09-0.07,0.09
			c-0.05,0.09-0.06,0.1-0.06,0.1c-0.03,0.08-0.03,0.09-0.03,0.09c-0.02,0.08-0.02,0.09-0.02,0.09c0,0.09,0,0.1,0,0.1
			c0.01,0.08,0.01,0.09,0.01,0.09c0.02,0.08,0.02,0.09,0.02,0.09c0.03,0.08,0.03,0.09,0.03,0.09c0.04,0.08,0.05,0.09,0.05,0.09
			c0.05,0.08,0.06,0.1,0.06,0.1c0.05,0.07,0.07,0.1,0.07,0.1c0.06,0.07,0.08,0.1,0.08,0.1c0.06,0.07,0.08,0.1,0.08,0.1
			c0.07,0.07,0.09,0.1,0.09,0.1c0.08,0.07,0.1,0.1,0.1,0.1c0.72,0.65,1.59,1.09,2.42,1.39c1.01,0.37,1.97,0.44,3.02,0.29
			c1.04-0.15,2.33-0.57,3.35-0.79c1.31-0.3,2.71-0.46,4.05-0.58l5.32-0.39l8.78,2.41c-1.32,0.01-2.64,0.23-3.92,0.51
			c-1.05,0.27-3.33,0.71-4.31,1.09c-0.08,0.04-0.12,0.06-0.12,0.06c-0.08,0.04-0.1,0.05-0.1,0.05c-0.07,0.04-0.09,0.05-0.09,0.05
			c-0.08,0.05-0.09,0.06-0.09,0.06c-0.08,0.06-0.09,0.07-0.09,0.07c-0.08,0.09-0.09,0.09-0.09,0.09c-0.06,0.09-0.06,0.09-0.06,0.09
			c-0.03,0.08-0.03,0.09-0.03,0.09c-0.01,0.09-0.01,0.09-0.01,0.09c0.01,0.08,0.01,0.09,0.01,0.09c0.02,0.08,0.02,0.09,0.02,0.09
			c0.03,0.09,0.04,0.09,0.04,0.09c0.04,0.08,0.04,0.09,0.04,0.09c0.05,0.08,0.06,0.1,0.06,0.1c0.06,0.08,0.07,0.1,0.07,0.1
			c0.77,0.92,1.89,1.59,2.84,2.29c0.76,0.53,1.66,1.22,2.54,1.48c0.08,0.02,0.11,0.03,0.11,0.03c0.08,0.02,0.11,0.03,0.11,0.03
			c0.08,0.02,0.11,0.02,0.11,0.02c0.08,0.01,0.11,0.02,0.11,0.02c0.09,0.01,0.11,0.01,0.11,0.01c0.09,0.01,0.11,0.01,0.11,0.01
			c0.2,0.01,0.33,0,0.47-0.02c0.07-0.01,0.11-0.02,0.11-0.02c0.08-0.01,0.11-0.02,0.11-0.02c0.79-0.18,1.38-0.52,2.03-0.88
			c1.22-0.72,2.73-1.73,4.05-2.19c1.78-0.66,3.72-0.82,5.6-0.93l11.77,3.19c-1.6-0.17-3.22,0.05-4.78,0.41
			c-1.16,0.29-2.43,0.62-3.5,1.14c-0.08,0.04-0.12,0.07-0.12,0.07c-0.07,0.05-0.11,0.07-0.11,0.07c-0.08,0.06-0.1,0.07-0.1,0.07
			c-0.08,0.06-0.09,0.07-0.09,0.07c-0.08,0.07-0.09,0.08-0.09,0.08c-0.08,0.09-0.08,0.09-0.08,0.09c-0.05,0.08-0.06,0.09-0.06,0.09
			c-0.04,0.08-0.04,0.09-0.04,0.09c-0.02,0.08-0.02,0.09-0.02,0.09c-0.01,0.09,0,0.09,0,0.09c0.01,0.08,0.01,0.09,0.01,0.09
			c0.02,0.09,0.03,0.09,0.03,0.09c0.03,0.08,0.04,0.09,0.04,0.09c0.04,0.08,0.05,0.1,0.05,0.1c0.05,0.08,0.07,0.1,0.07,0.1
			c0.06,0.08,0.08,0.1,0.08,0.1c0.07,0.09,0.11,0.12,0.11,0.12c0.65,0.67,1.46,1.21,2.15,1.81c0.86,0.72,1.81,1.67,2.89,1.97
			c0.06,0.02,0.09,0.02,0.09,0.02c0.06,0.01,0.09,0.02,0.09,0.02c0.06,0.01,0.1,0.02,0.1,0.02c0.06,0.01,0.1,0.01,0.1,0.01
			c0.06,0.01,0.1,0.01,0.1,0.01c0.06,0,0.1,0.01,0.1,0.01c0.07,0,0.1,0,0.1,0c0.07,0,0.11,0,0.11,0c0.08-0.01,0.12-0.01,0.12-0.01
			c0.08-0.01,0.12-0.02,0.12-0.02c0.08-0.01,0.13-0.02,0.13-0.02c0.08-0.02,0.13-0.03,0.13-0.03c1.39-0.35,2.61-1.28,3.81-2
			c0.92-0.57,1.89-1.11,2.92-1.44c1.5-0.51,3.24-0.68,4.82-0.85l7.37,2.08c-1.41,0.47-2.73,1.2-3.95,2.05
			c-0.96,0.69-2,1.52-2.59,2.55c-0.04,0.07-0.05,0.09-0.05,0.09c-0.03,0.07-0.04,0.09-0.04,0.09c-0.03,0.07-0.04,0.09-0.04,0.09
			c-0.03,0.09-0.04,0.11-0.04,0.11c-0.03,0.08-0.03,0.11-0.03,0.11c-0.02,0.08-0.02,0.1-0.02,0.1c-0.01,0.08-0.02,0.1-0.02,0.1
			c-0.01,0.08-0.01,0.1-0.01,0.1c0,0.08,0,0.09,0,0.09c0.01,0.08,0.01,0.09,0.01,0.09c0.01,0.08,0.01,0.09,0.01,0.09
			c0.02,0.08,0.02,0.09,0.02,0.09c0.03,0.09,0.03,0.1,0.03,0.1c0.04,0.08,0.04,0.1,0.04,0.1c0.04,0.08,0.05,0.09,0.05,0.09
			c0.05,0.08,0.07,0.1,0.07,0.1c0.05,0.07,0.07,0.09,0.07,0.09c0.06,0.07,0.07,0.09,0.07,0.09c0.06,0.07,0.08,0.09,0.08,0.09
			c0.07,0.06,0.09,0.09,0.09,0.09c0.07,0.06,0.1,0.08,0.1,0.08c0.53,0.43,1.03,0.68,1.6,0.97c0.95,0.49,2.18,1.05,3.08,1.6
			c1.84,1.07,3.58,2.46,4.65,4.32c1.72,2.96,1.93,6.74,0.54,9.87c-0.8,1.85-2.04,3.49-3.41,4.96c-2.17,2.3-4.72,4.27-7.33,6.06
			c-5.53,3.75-11.62,6.86-17.7,9.61c-2.23,1.06-9.37,3.97-11.37,5.3c-0.08,0.06-0.1,0.07-0.1,0.07c-0.09,0.07-0.1,0.08-0.1,0.08
			c-0.08,0.08-0.09,0.09-0.09,0.09c-0.06,0.08-0.07,0.09-0.07,0.09c-0.02,0.09-0.02,0.09-0.02,0.09c0.04,0.09,0.04,0.09,0.04,0.09
			c0.08,0.06,0.09,0.06,0.09,0.06c0.08,0.03,0.09,0.03,0.09,0.03c0.09,0.02,0.11,0.03,0.11,0.03c0.08,0.01,0.1,0.02,0.1,0.02
			c1.06,0.08,2.06-0.09,3.09-0.22c1.86-0.27,3.8-0.66,5.64-1.08c7.32-1.69,14.59-4.1,21.48-7.08c5.01-2.17,9.91-4.8,14.5-7.77
			c6.67-4.24,13.51-9.77,19.81-14.54c2.6-1.97,7.37-5.1,10.09-6.93l35.04,12.64c11.72,3.98,23.87,7.44,36.1,9.37
			c17.52,2.84,35.56,3.25,53.27,2.6c-1.73,0.38-3.38,1.1-4.9,2c-1.54,0.92-2.99,2.03-4.22,3.34c-0.77,0.82-1.44,1.76-1.87,2.82
			c-0.44,1.07-0.61,2.24-0.58,3.4c0.03,1.16,0.23,2.32,0.48,3.45c0.78,3.6,3.05,9.31,4.27,12.84c1.06,3.01,2.33,7.73,3.22,10.84
			c0.74,2.48,1.6,4.98,2.8,7.28c0.61,1.14,1.29,2.28,2.18,3.22c0.21,0.21,0.37,0.36,0.51,0.47c0.09,0.07,0.13,0.1,0.13,0.1
			c0.09,0.06,0.13,0.09,0.13,0.09c0.09,0.06,0.13,0.08,0.13,0.08c0.09,0.05,0.13,0.08,0.13,0.08c0.09,0.05,0.13,0.07,0.13,0.07
			c0.09,0.04,0.11,0.05,0.11,0.05c0.09,0.04,0.11,0.04,0.11,0.04c0.09,0.03,0.11,0.04,0.11,0.04c0.09,0.03,0.11,0.03,0.11,0.03
			c0.09,0.02,0.11,0.03,0.11,0.03c0.09,0.02,0.11,0.02,0.11,0.02c0.09,0.01,0.11,0.01,0.11,0.01c0.09,0.01,0.11,0.01,0.11,0.01
			c0.07,0,0.09,0,0.09,0c0.07,0,0.09-0.01,0.09-0.01c0.07-0.01,0.09-0.01,0.09-0.01c0.07-0.01,0.09-0.01,0.09-0.01
			c0.07-0.01,0.09-0.02,0.09-0.02c0.07-0.02,0.09-0.02,0.09-0.02c0.07-0.02,0.09-0.03,0.09-0.03c0.07-0.02,0.09-0.03,0.09-0.03
			c0.07-0.03,0.09-0.04,0.09-0.04c0.07-0.03,0.09-0.04,0.09-0.04c0.81-0.41,1.35-1.04,1.91-1.71c0.81-0.97,2.46-3.46,3.21-4.52
			c1.03-1.5,5.7-7.6,6.87-9.17c2.57-3.48,5.03-7.16,7-11.02c2.52-4.88,4.82-11.47,6.8-16.63c0.81-2.02,1.63-4.15,2.84-5.96
			c0.63-0.92,1.29-1.61,2.1-2.32C509.04,467.52,509.88,466.8,510.23,466.48z"/>
	</g>
</g>
</svg>
