<?xml version="1.0" encoding="utf-8"?>
<!-- Generator: Adobe Illustrator 24.2.1, SVG Export Plug-In . SVG Version: 6.00 Build 0)  -->
<!DOCTYPE svg PUBLIC "-//W3C//DTD SVG 1.1//EN" "http://www.w3.org/Graphics/SVG/1.1/DTD/svg11.dtd" [
	<!ENTITY ns_extend "http://ns.adobe.com/Extensibility/1.0/">
	<!ENTITY ns_ai "http://ns.adobe.com/AdobeIllustrator/10.0/">
	<!ENTITY ns_graphs "http://ns.adobe.com/Graphs/1.0/">
	<!ENTITY ns_vars "http://ns.adobe.com/Variables/1.0/">
	<!ENTITY ns_imrep "http://ns.adobe.com/ImageReplacement/1.0/">
	<!ENTITY ns_sfw "http://ns.adobe.com/SaveForWeb/1.0/">
	<!ENTITY ns_custom "http://ns.adobe.com/GenericCustomNamespace/1.0/">
	<!ENTITY ns_adobe_xpath "http://ns.adobe.com/XPath/1.0/">
]>
<svg version="1.1" xmlns:x="&ns_extend;" xmlns:i="&ns_ai;" xmlns:graph="&ns_graphs;"
	 xmlns="http://www.w3.org/2000/svg" xmlns:xlink="http://www.w3.org/1999/xlink" x="0px" y="0px" width="750px" height="750px"
	 viewBox="0 0 750 750" style="enable-background:new 0 0 750 750;" xml:space="preserve">
<style type="text/css">
	.st0{fill:#FFFFFF;}
	.st1{fill:#FB8604;}
	.st2{fill:none;stroke:#FB8604;stroke-width:2;stroke-linecap:round;stroke-linejoin:round;stroke-miterlimit:10;}
	.st3{fill:none;stroke:#FB8604;stroke-width:3.25;stroke-linecap:round;stroke-linejoin:round;}
	.st4{fill:none;stroke:#FB8604;stroke-width:3.25;stroke-linecap:round;stroke-linejoin:round;stroke-dasharray:4.0141,7.0246;}
	.st5{fill:none;stroke:#FB8604;stroke-width:3.25;stroke-linecap:round;stroke-linejoin:round;stroke-dasharray:3.7694,6.5965;}
	.st6{fill:none;stroke:#FB8604;stroke-width:3.25;stroke-linecap:round;stroke-linejoin:round;stroke-dasharray:3.5662,6.2408;}
	.st7{fill:none;stroke:#FB8604;stroke-width:3.25;stroke-linecap:round;stroke-linejoin:round;stroke-dasharray:4.1763,7.3085;}
	.st8{fill:none;stroke:#FB8604;stroke-width:3.25;stroke-linecap:round;stroke-linejoin:round;stroke-dasharray:3.8612,6.7571;}
	.st9{fill:none;stroke:#FB8604;stroke-width:3.25;stroke-linecap:round;stroke-linejoin:round;stroke-dasharray:3.9751,6.9564;}
	.st10{fill:none;stroke:#FB8604;stroke-width:3.25;stroke-linecap:round;stroke-linejoin:round;stroke-dasharray:4.3021,7.5288;}
	.st11{fill:none;stroke:#FB8604;stroke-width:3.25;stroke-linecap:round;stroke-linejoin:round;stroke-dasharray:4.0666,7.1166;}
	.st12{fill:none;stroke:#FB8604;stroke-width:3.25;stroke-linecap:round;stroke-linejoin:round;stroke-dasharray:3.9891,6.981;}
	.st13{fill:none;stroke:#FB8604;stroke-width:3.25;stroke-linecap:round;stroke-linejoin:round;stroke-dasharray:4.3022,7.5288;}
	.st14{fill:none;stroke:#FB8604;stroke-width:3.25;stroke-linecap:round;stroke-linejoin:round;stroke-dasharray:4.0058,7.0102;}
	.st15{fill:none;stroke:#FB8604;stroke-width:3.25;stroke-linecap:round;stroke-linejoin:round;stroke-dasharray:3.5784,6.2622;}
	.st16{fill:none;stroke:#FB8604;stroke-width:3.25;stroke-linecap:round;stroke-linejoin:round;stroke-dasharray:4.3282,7.5744;}
	.st17{fill:none;stroke:#FB8604;stroke-width:3.25;stroke-linecap:round;stroke-linejoin:round;stroke-dasharray:3.9841,6.9721;}
	.st18{fill:none;stroke:#FB8604;stroke-width:3.25;stroke-linecap:round;stroke-linejoin:round;stroke-dasharray:3.6766,6.4341;}
	.st19{fill:none;stroke:#FB8604;stroke-width:3.25;stroke-linecap:round;stroke-linejoin:round;stroke-dasharray:3.7926,6.637;}
	.st20{fill:none;stroke:#FB8604;stroke-width:3.25;stroke-linecap:round;stroke-linejoin:round;stroke-dasharray:4.0981,7.1717;}
	.st21{fill:none;stroke:#FB8604;stroke-width:3.25;stroke-linecap:round;stroke-linejoin:round;stroke-dasharray:4.0303,7.0531;}
	.st22{fill:none;stroke:#FB8604;stroke-width:3.25;stroke-linecap:round;stroke-linejoin:round;stroke-dasharray:3.9535,6.9186;}
	.st23{fill:none;stroke:#FB8604;stroke-width:3.25;stroke-linecap:round;stroke-linejoin:round;stroke-dasharray:3.9792,6.9637;}
	.st24{fill:none;stroke:#FB8604;stroke-width:3.25;stroke-linecap:round;stroke-linejoin:round;stroke-dasharray:3.8528,6.7423;}
	.st25{fill:none;stroke:#FB8604;stroke-width:3.25;stroke-linecap:round;stroke-linejoin:round;stroke-dasharray:3.6409,6.3716;}
	.st26{fill:none;stroke:#FB8604;stroke-width:3.25;stroke-linecap:round;stroke-linejoin:round;stroke-dasharray:3.818,6.6815;}
	.st27{fill:none;stroke:#FB8604;stroke-width:3.25;stroke-linecap:round;stroke-linejoin:round;stroke-dasharray:3.9417,6.8981;}
	.st28{fill:none;stroke:#FB8604;stroke-width:3.25;stroke-linecap:round;stroke-linejoin:round;stroke-dasharray:4.0547,7.0957;}
	.st29{fill:none;stroke:#FB8604;stroke-width:3.25;stroke-linecap:round;stroke-linejoin:round;stroke-dasharray:4.3912,7.6846;}
	.st30{fill:none;stroke:#FB8604;stroke-width:3.25;stroke-linecap:round;stroke-linejoin:round;stroke-dasharray:4.0013,7.0023;}
	.st31{fill:none;stroke:#FB8604;stroke-width:3.25;stroke-linecap:round;stroke-linejoin:round;stroke-dasharray:4.0671,7.1174;}
	.st32{fill:none;stroke:#FB8604;stroke-width:3.25;stroke-linecap:round;stroke-linejoin:round;stroke-dasharray:4.0262,7.0458;}
	.st33{fill:none;stroke:#FB8604;stroke-width:3.25;stroke-linecap:round;stroke-linejoin:round;stroke-dasharray:4.0266,7.0465;}
	.st34{fill:none;stroke:#FB8604;stroke-width:3.25;stroke-linecap:round;stroke-linejoin:round;stroke-dasharray:3.797,6.6447;}
	.st35{fill:none;stroke:#FB8604;stroke-width:3.25;stroke-linecap:round;stroke-linejoin:round;stroke-dasharray:3.9746,6.9556;}
	.st36{fill:none;stroke:#FB8604;stroke-width:3.25;stroke-linecap:round;stroke-linejoin:round;stroke-dasharray:4.1097,7.1919;}
	.st37{fill:none;stroke:#FB8604;stroke-width:3.25;stroke-linecap:round;stroke-linejoin:round;stroke-dasharray:3.8239,6.6918;}
	.st38{fill:none;stroke:#FB8604;stroke-width:3.25;stroke-linecap:round;stroke-linejoin:round;stroke-dasharray:3.7648,6.5884;}
	.st39{fill:none;stroke:#FB8604;stroke-width:3.25;stroke-linecap:round;stroke-linejoin:round;stroke-dasharray:4.0208,7.0364;}
	.st40{fill:none;stroke:#FB8604;stroke-width:3.25;stroke-linecap:round;stroke-linejoin:round;stroke-dasharray:3.9442,6.9024;}
	.st41{fill:none;stroke:#FB8604;stroke-width:3.25;stroke-linecap:round;stroke-linejoin:round;stroke-dasharray:3.9752,6.9566;}
	.st42{fill:none;stroke:#FB8604;stroke-width:3.25;stroke-linecap:round;stroke-linejoin:round;stroke-dasharray:3.7278,6.5237;}
	.st43{fill:none;stroke:#FB8604;stroke-width:3.25;stroke-linecap:round;stroke-linejoin:round;stroke-dasharray:4.4991,7.8735;}
	.st44{fill:none;stroke:#FB8604;stroke-width:3.25;stroke-linecap:round;stroke-linejoin:round;stroke-dasharray:4.1345,7.2353;}
	.st45{fill:none;stroke:#FB8604;stroke-width:3.25;stroke-linecap:round;stroke-linejoin:round;stroke-dasharray:3.821,6.6868;}
	.st46{fill:none;stroke:#FB8604;stroke-width:3.25;stroke-linecap:round;stroke-linejoin:round;stroke-dasharray:3.9354,6.8869;}
	.st47{fill:none;stroke:#FB8604;stroke-width:3.25;stroke-linecap:round;stroke-linejoin:round;stroke-dasharray:4.2577,7.451;}
	.st48{fill:none;stroke:#FB8604;stroke-width:3.25;stroke-linecap:round;stroke-linejoin:round;stroke-dasharray:4.0269,7.0472;}
	.st49{fill:none;stroke:#FB8604;stroke-width:3.25;stroke-linecap:round;stroke-linejoin:round;stroke-dasharray:3.9502,6.9128;}
	.st50{fill:none;stroke:#FB8604;stroke-width:3.25;stroke-linecap:round;stroke-linejoin:round;stroke-dasharray:3.9807,6.9662;}
	.st51{fill:none;stroke:#FB8604;stroke-width:3.25;stroke-linecap:round;stroke-linejoin:round;stroke-dasharray:3.7337,6.5339;}
	.st52{fill:none;stroke:#FB8604;stroke-width:3.25;stroke-linecap:round;stroke-linejoin:round;stroke-dasharray:4.5058,7.8852;}
	.st53{fill:none;stroke:#FB8604;stroke-width:3.25;stroke-linecap:round;stroke-linejoin:round;stroke-dasharray:4.1403,7.2456;}
	.st54{fill:none;stroke:#FB8604;stroke-width:3.25;stroke-linecap:round;stroke-linejoin:round;stroke-dasharray:3.8267,6.6967;}
	.st55{fill:none;stroke:#FB8604;stroke-width:3.25;stroke-linecap:round;stroke-linejoin:round;stroke-dasharray:3.9409,6.8967;}
	.st56{fill:none;stroke:#FB8604;stroke-width:3.25;stroke-linecap:round;stroke-linejoin:round;stroke-dasharray:4.2639,7.4619;}
	.st57{fill:none;stroke:#FB8604;stroke-width:3.25;stroke-linecap:round;stroke-linejoin:round;stroke-dasharray:4.0325,7.0569;}
	.st58{fill:none;stroke:#FB8604;stroke-width:3.25;stroke-linecap:round;stroke-linejoin:round;stroke-dasharray:3.9557,6.9224;}
	.st59{fill:none;stroke:#FB8604;stroke-width:3.25;stroke-linecap:round;stroke-linejoin:round;stroke-dasharray:4.0077,7.0134;}
	.st60{fill:none;stroke:#FB8604;stroke-width:3.25;stroke-linecap:round;stroke-linejoin:round;stroke-dasharray:4.2017,7.353;}
	.st61{fill:none;stroke:#FB8604;stroke-width:3.25;stroke-linecap:round;stroke-linejoin:round;stroke-dasharray:4.4376,7.7657;}
	.st62{fill:none;stroke:#FB8604;stroke-width:3.25;stroke-linecap:round;stroke-linejoin:round;stroke-dasharray:3.9152,6.8516;}
	.st63{fill:none;stroke:#FB8604;stroke-width:3.25;stroke-linecap:round;stroke-linejoin:round;stroke-dasharray:3.4926,6.112;}
	.st64{fill:none;stroke:#FB8604;stroke-width:3.25;stroke-linecap:round;stroke-linejoin:round;stroke-dasharray:4.1613,7.2822;}
	.st65{fill:none;stroke:#FB8604;stroke-width:3.25;stroke-linecap:round;stroke-linejoin:round;stroke-dasharray:3.9034,6.8309;}
	.st66{fill:none;stroke:#FB8604;stroke-width:3.25;stroke-linecap:round;stroke-linejoin:round;stroke-dasharray:3.9635,6.9362;}
	.st67{fill:none;stroke:#FB8604;stroke-width:3.25;stroke-linecap:round;stroke-linejoin:round;stroke-dasharray:4.0855,7.1496;}
	.st68{fill:none;stroke:#FB8604;stroke-width:3.25;stroke-linecap:round;stroke-linejoin:round;stroke-dasharray:3.9843,6.9725;}
	.st69{fill:none;stroke:#FB8604;stroke-width:3.25;stroke-linecap:round;stroke-linejoin:round;stroke-dasharray:4.5619,7.9833;}
	.st70{fill:none;stroke:#FB8604;stroke-width:3.25;stroke-linecap:round;stroke-linejoin:round;stroke-dasharray:3.473,6.0778;}
	.st71{fill:none;stroke:#FB8604;stroke-width:3.25;stroke-linecap:round;stroke-linejoin:round;stroke-dasharray:4.2074,7.3629;}
	.st72{fill:none;stroke:#FB8604;stroke-width:3.25;stroke-linecap:round;stroke-linejoin:round;stroke-dasharray:3.7677,6.5934;}
	.st73{fill:none;stroke:#FB8604;stroke-width:3.25;stroke-linecap:round;stroke-linejoin:round;stroke-dasharray:3.8856,6.7997;}
	.st74{fill:none;stroke:#FB8604;stroke-width:3.25;stroke-linecap:round;stroke-linejoin:round;stroke-dasharray:4.2077,7.3634;}
	.st75{fill:none;stroke:#FB8604;stroke-width:3.25;stroke-linecap:round;stroke-linejoin:round;stroke-dasharray:4.0523,7.0915;}
	.st76{fill:none;stroke:#FB8604;stroke-width:3.25;stroke-linecap:round;stroke-linejoin:round;stroke-dasharray:3.9747,6.9557;}
	.st77{fill:none;stroke:#FB8604;stroke-width:3.25;stroke-linecap:round;stroke-linejoin:round;stroke-dasharray:3.9761,6.9582;}
	.st78{fill:none;stroke:#FB8604;stroke-width:3.25;stroke-linecap:round;stroke-linejoin:round;stroke-dasharray:4.1619,7.2833;}
	.st79{fill:none;stroke:#FB8604;stroke-width:3.25;stroke-linecap:round;stroke-linejoin:round;stroke-dasharray:4.3986,7.6975;}
	.st80{fill:none;stroke:#FB8604;stroke-width:3.25;stroke-linecap:round;stroke-linejoin:round;stroke-dasharray:3.8829,6.7951;}
	.st81{fill:none;stroke:#FB8604;stroke-width:3.25;stroke-linecap:round;stroke-linejoin:round;stroke-dasharray:3.4622,6.0588;}
	.st82{fill:none;stroke:#FB8604;stroke-width:3.25;stroke-linecap:round;stroke-linejoin:round;stroke-dasharray:4.127,7.2223;}
	.st83{fill:none;stroke:#FB8604;stroke-width:3.25;stroke-linecap:round;stroke-linejoin:round;stroke-dasharray:3.8697,6.772;}
	.st84{fill:none;stroke:#FB8604;stroke-width:3.25;stroke-linecap:round;stroke-linejoin:round;stroke-dasharray:3.932,6.881;}
	.st85{fill:none;stroke:#FB8604;stroke-width:3.25;stroke-linecap:round;stroke-linejoin:round;stroke-dasharray:4.053,7.0927;}
	.st86{fill:none;stroke:#FB8604;stroke-width:2.75;stroke-linecap:round;stroke-linejoin:round;stroke-miterlimit:10;}
	.st87{fill:none;stroke:#FB8604;stroke-width:3.5;stroke-linecap:round;stroke-linejoin:round;stroke-miterlimit:10;}
</style>
<metadata>
	<sfw  xmlns="&ns_sfw;">
		<slices></slices>
		<sliceSourceBounds  bottomLeftOrigin="true" height="10750" width="4280" x="-2000" y="-3120"></sliceSourceBounds>
	</sfw>
</metadata>
<g id="FILL-BACKGROUND">
	<rect class="st0" width="750" height="750"/>
</g>
<g id="N-TEXT">
</g>
<g id="N-DIMENSIONS">
</g>
<g id="AG-DETAIL-DIAGRAM">
</g>
<g id="AG-DETAILS">
</g>
<g id="AG-ANIMALS">
	<g id="POLYLINE_1342_">
		<path class="st86" d="M222.66,388.75l-0.23-0.72c-0.09-0.27-0.16-0.44-0.19-0.53c-0.11-0.26-0.13-0.3-0.13-0.3
			c-0.13-0.25-0.15-0.29-0.15-0.29c-0.15-0.25-0.18-0.29-0.18-0.29c-0.18-0.24-0.21-0.28-0.21-0.28c-0.21-0.23-0.25-0.27-0.25-0.27
			c-0.25-0.22-0.29-0.25-0.29-0.25c-0.23-0.18-0.28-0.21-0.28-0.21c-0.26-0.17-0.35-0.23-0.35-0.23c-0.19-0.11-0.28-0.16-0.28-0.16
			c-2.28-1.22-5.77-2.07-8.17-2.87c-0.74-0.24-1.87-0.63-2.49-0.93c-0.25-0.12-0.33-0.16-0.33-0.16c-0.25-0.14-0.28-0.16-0.28-0.16
			c-0.23-0.16-0.26-0.18-0.26-0.18c-0.26-0.25-0.26-0.26-0.26-0.26c-0.09-0.25-0.09-0.26-0.09-0.26c0.13-0.26,0.14-0.27,0.14-0.27
			c0.23-0.19,0.28-0.22,0.28-0.22c0.18-0.11,0.28-0.17,0.28-0.17l0.65-0.36c0.22-0.13,0.28-0.17,0.28-0.17
			c0.22-0.14,0.27-0.18,0.27-0.18c0.25-0.19,0.27-0.21,0.27-0.21c0.26-0.26,0.27-0.28,0.27-0.28c0.17-0.25,0.17-0.26,0.17-0.26
			c0.09-0.25,0.1-0.26,0.1-0.26c0.03-0.25,0.03-0.27,0.03-0.27c-0.01-0.25-0.02-0.29-0.02-0.29c-0.05-0.25-0.06-0.28-0.06-0.28
			c-0.08-0.25-0.09-0.29-0.09-0.29c-0.08-0.22-0.11-0.3-0.11-0.3c-0.18-0.43-0.54-1.14-0.67-1.4c-0.1-0.2-0.12-0.27-0.12-0.27
			c-0.1-0.26-0.12-0.29-0.12-0.29c-0.07-0.24-0.08-0.27-0.08-0.27c-0.04-0.25-0.04-0.26-0.04-0.26c0.04-0.25,0.05-0.26,0.05-0.26
			c0.25-0.26,0.26-0.26,0.26-0.26c0.24-0.11,0.27-0.12,0.27-0.12c0.24-0.07,0.3-0.08,0.3-0.08c0.36-0.08,1.26-0.19,1.43-0.21
			c0.16-0.02,0.32-0.05,0.32-0.05c0.24-0.05,0.32-0.06,0.32-0.06c0.23-0.06,0.27-0.07,0.27-0.07c0.25-0.08,0.29-0.09,0.29-0.09
			c0.24-0.1,0.27-0.12,0.27-0.12c0.26-0.15,0.27-0.16,0.27-0.16c0.26-0.23,0.27-0.25,0.27-0.25c0.18-0.25,0.19-0.26,0.19-0.26
			c0.12-0.24,0.14-0.28,0.14-0.28c0.09-0.25,0.1-0.29,0.1-0.29c0.06-0.23,0.08-0.3,0.08-0.3c0.14-0.64,0.19-1.26,0.29-1.81
			c0.05-0.24,0.06-0.32,0.06-0.32c0.06-0.23,0.07-0.27,0.07-0.27c0.08-0.25,0.1-0.29,0.1-0.29c0.1-0.23,0.12-0.27,0.12-0.27
			c0.16-0.25,0.17-0.27,0.17-0.27c0.25-0.25,0.26-0.26,0.26-0.26c0.25-0.17,0.27-0.18,0.27-0.18c0.23-0.11,0.26-0.13,0.26-0.13
			c0.25-0.09,0.29-0.1,0.29-0.1c0.22-0.06,0.27-0.07,0.27-0.07c0.19-0.04,0.28-0.06,0.28-0.06c1.09-0.19,2.38-0.19,3.35-0.38
			c0.2-0.04,0.29-0.06,0.29-0.06c0.24-0.06,0.28-0.08,0.28-0.08c0.22-0.07,0.27-0.09,0.27-0.09c0.25-0.11,0.28-0.13,0.28-0.13
			c0.23-0.13,0.26-0.15,0.26-0.15c0.24-0.17,0.27-0.19,0.27-0.19c0.22-0.19,0.27-0.24,0.27-0.24c0.25-0.26,0.3-0.31,0.3-0.31
			c0.32-0.38,0.74-0.9,0.87-1.04c0.24-0.25,0.29-0.3,0.29-0.3c0.26-0.23,0.28-0.25,0.28-0.25c0.25-0.18,0.28-0.19,0.28-0.19
			c0.25-0.13,0.28-0.14,0.28-0.14c0.24-0.09,0.27-0.1,0.27-0.1c0.23-0.05,0.28-0.06,0.28-0.06c0.25-0.03,0.3-0.04,0.3-0.04
			c0.26-0.01,0.31-0.01,0.31-0.01c0.22,0,0.33,0,0.33,0c0.23,0.01,0.34,0.02,0.34,0.02c1.26,0.11,2.69,0.45,3.72,0.51
			c0.22,0.01,0.27,0.01,0.27,0.01c0.26,0,0.31,0,0.31,0c0.24-0.02,0.29-0.02,0.29-0.02c0.25-0.04,0.27-0.05,0.27-0.05
			c0.25-0.07,0.27-0.08,0.27-0.08c0.25-0.12,0.27-0.13,0.27-0.13c0.26-0.2,0.27-0.22,0.27-0.22c0.2-0.24,0.22-0.27,0.22-0.27
			c0.15-0.24,0.16-0.27,0.16-0.27c0.11-0.23,0.14-0.29,0.14-0.29c0.18-0.44,0.21-0.52,0.34-0.87c0.1-0.24,0.12-0.3,0.12-0.3
			c0.11-0.23,0.14-0.29,0.14-0.29c0.14-0.24,0.15-0.27,0.15-0.27c0.2-0.25,0.21-0.26,0.21-0.26c0.25-0.21,0.26-0.22,0.26-0.22
			c0.26-0.12,0.28-0.13,0.28-0.13c0.24-0.06,0.26-0.07,0.26-0.07c0.24-0.03,0.29-0.04,0.29-0.04c0.24-0.01,0.29-0.01,0.29-0.01
			c0.25,0.01,0.36,0.02,0.36,0.02c0.21,0.02,0.32,0.03,0.32,0.03c0.96,0.12,2.24,0.42,3.1,0.51c0.24,0.02,0.35,0.03,0.35,0.03
			c0.23,0.01,0.29,0.02,0.29,0.02c0.23,0,0.28,0,0.28,0c0.22-0.01,0.27-0.01,0.27-0.01c0.21-0.02,0.26-0.03,0.26-0.03
			c0.25-0.05,0.28-0.05,0.28-0.05c0.24-0.07,0.26-0.08,0.26-0.08c0.25-0.11,0.27-0.12,0.27-0.12c0.24-0.14,0.28-0.17,0.28-0.17
			c0.24-0.19,0.28-0.22,0.28-0.22c0.25-0.25,0.29-0.28,0.29-0.28c0.18-0.21,0.24-0.28,0.24-0.28c0.17-0.22,0.22-0.3,0.22-0.3
			c0.3-0.43,0.54-0.8,0.78-1.18c0.16-0.23,0.21-0.3,0.21-0.3c0.16-0.22,0.22-0.29,0.22-0.29c0.2-0.23,0.23-0.27,0.23-0.27
			c0.24-0.24,0.27-0.27,0.27-0.27c0.24-0.19,0.26-0.2,0.26-0.2c0.25-0.14,0.26-0.15,0.26-0.15c0.25-0.1,0.27-0.1,0.27-0.1
			c0.26-0.06,0.28-0.06,0.28-0.06c0.23-0.03,0.27-0.03,0.27-0.03c0.24-0.01,0.29-0.01,0.29-0.01c0.25,0.01,0.3,0.01,0.3,0.01
			c0.2,0.02,0.3,0.03,0.3,0.03c0.86,0.11,2.01,0.41,2.66,0.53c0.21,0.04,0.31,0.05,0.31,0.05c0.2,0.03,0.3,0.04,0.3,0.04
			c0.24,0.02,0.29,0.02,0.29,0.02c0.23,0,0.28,0,0.28,0c0.22-0.01,0.27-0.02,0.27-0.02c0.25-0.04,0.27-0.05,0.27-0.05
			c0.25-0.08,0.27-0.09,0.27-0.09c0.26-0.14,0.27-0.14,0.27-0.14c0.26-0.2,0.28-0.22,0.28-0.22c0.24-0.26,0.26-0.29,0.26-0.29
			c0.18-0.23,0.22-0.3,0.22-0.3c0.3-0.46,0.42-0.67,0.65-1.05c0.12-0.2,0.17-0.26,0.17-0.26c0.17-0.25,0.22-0.31,0.22-0.31
			c0.21-0.26,0.24-0.28,0.24-0.28c0.23-0.22,0.26-0.25,0.26-0.25c0.25-0.17,0.26-0.18,0.26-0.18c0.26-0.12,0.27-0.13,0.27-0.13
			c0.25-0.07,0.28-0.08,0.28-0.08c0.25-0.04,0.28-0.04,0.28-0.04c0.22-0.01,0.27-0.01,0.27-0.01c0.23,0.01,0.29,0.01,0.29,0.01
			c0.24,0.02,0.3,0.03,0.3,0.03c0.25,0.04,0.37,0.06,0.37,0.06c0.97,0.19,2.11,0.57,3.02,0.82c0.4,0.12,1.05,0.27,1.38,0.33
			c0.2,0.03,0.26,0.04,0.26,0.04c0.26,0.03,0.32,0.04,0.32,0.04c0.25,0.02,0.31,0.02,0.31,0.02c0.24,0,0.3,0,0.3,0
			c0.26-0.02,0.29-0.03,0.29-0.03c0.25-0.04,0.27-0.05,0.27-0.05c0.25-0.08,0.28-0.09,0.28-0.09c0.25-0.11,0.28-0.13,0.28-0.13
			c0.26-0.16,0.28-0.17,0.28-0.17c0.24-0.19,0.28-0.23,0.28-0.23c0.23-0.22,0.26-0.26,0.26-0.26c0.18-0.21,0.25-0.29,0.25-0.29
			c0.4-0.49,0.98-1.42,1.21-1.77c0.21-0.31,0.36-0.51,0.43-0.61c0.15-0.19,0.23-0.29,0.23-0.29c0.21-0.23,0.25-0.28,0.25-0.28
			c0.22-0.22,0.26-0.26,0.26-0.26c0.23-0.2,0.28-0.24,0.28-0.24c0.25-0.19,0.3-0.22,0.3-0.22c0.21-0.13,0.27-0.16,0.27-0.16
			c0.23-0.12,0.29-0.14,0.29-0.14c0.24-0.1,0.29-0.11,0.29-0.11c0.22-0.07,0.26-0.08,0.26-0.08c0.23-0.06,0.27-0.07,0.27-0.07
			c0.24-0.05,0.33-0.06,0.33-0.06c0.2-0.03,0.3-0.04,0.3-0.04c0.2-0.02,0.31-0.03,0.31-0.03c2.69-0.13,5.49,0.7,8.06,1.19
			c0.78,0.15,1.85,0.33,2.52,0.34c0.25,0,0.33,0,0.33,0c0.23-0.01,0.27-0.01,0.27-0.01c0.25-0.03,0.28-0.04,0.28-0.04
			c0.26-0.06,0.29-0.07,0.29-0.07c0.25-0.1,0.26-0.1,0.26-0.1c0.26-0.17,0.28-0.18,0.28-0.18c0.25-0.26,0.26-0.28,0.26-0.28
			c0.16-0.24,0.18-0.28,0.18-0.28c0.19-0.36,0.26-0.53,0.36-0.76c0.11-0.23,0.14-0.28,0.14-0.28c0.14-0.24,0.16-0.26,0.16-0.26
			c0.21-0.25,0.23-0.27,0.23-0.27c0.25-0.2,0.27-0.2,0.27-0.2c0.26-0.12,0.28-0.13,0.28-0.13c0.24-0.07,0.27-0.08,0.27-0.08
			c0.24-0.04,0.3-0.05,0.3-0.05c0.23-0.02,0.29-0.03,0.29-0.03c0.25-0.01,0.32-0.01,0.32-0.01c2.11,0.02,4.31,0.6,6.36,0.51
			c0.22-0.01,0.3-0.02,0.3-0.02c0.22-0.02,0.29-0.03,0.29-0.03c0.21-0.03,0.28-0.04,0.28-0.04c0.2-0.04,0.27-0.06,0.27-0.06
			c0.26-0.07,0.31-0.09,0.31-0.09c0.25-0.1,0.3-0.12,0.3-0.12c0.24-0.11,0.28-0.14,0.28-0.14c0.22-0.13,0.27-0.16,0.27-0.16
			c0.25-0.17,0.29-0.21,0.29-0.21c0.24-0.19,0.32-0.26,0.32-0.26c0.22-0.21,0.3-0.28,0.3-0.28c0.54-0.54,1.07-1.2,1.44-1.59
			c0.21-0.22,0.28-0.29,0.28-0.29c0.26-0.24,0.3-0.27,0.3-0.27c0.23-0.19,0.27-0.22,0.27-0.22c0.25-0.17,0.29-0.19,0.29-0.19
			c0.22-0.12,0.26-0.15,0.26-0.15c0.23-0.11,0.28-0.13,0.28-0.13c0.23-0.08,0.26-0.09,0.26-0.09c0.24-0.07,0.31-0.08,0.31-0.08
			c0.22-0.04,0.29-0.06,0.29-0.06c0.23-0.03,0.3-0.04,0.3-0.04c0.23-0.02,0.31-0.03,0.31-0.03c0.24-0.01,0.32-0.01,0.32-0.01
			c2.92-0.01,5.91,1.01,8.77,0.7c0.26-0.03,0.34-0.05,0.34-0.05c0.25-0.05,0.33-0.06,0.33-0.06c0.24-0.06,0.31-0.08,0.31-0.08
			c0.2-0.06,0.27-0.08,0.27-0.08c0.2-0.07,0.26-0.1,0.26-0.1c0.26-0.11,0.32-0.14,0.32-0.14c0.25-0.12,0.31-0.16,0.31-0.16
			c0.24-0.14,0.3-0.17,0.3-0.17c0.23-0.15,0.35-0.22,0.35-0.22c0.23-0.16,0.34-0.24,0.34-0.24c1.11-0.81,2.17-1.92,3.16-2.62
			c0.22-0.15,0.33-0.22,0.33-0.22c0.22-0.14,0.28-0.17,0.28-0.17c0.23-0.13,0.28-0.16,0.28-0.16c0.23-0.11,0.29-0.14,0.29-0.14
			c0.24-0.1,0.3-0.12,0.3-0.12c0.25-0.08,0.31-0.1,0.31-0.1c0.2-0.05,0.27-0.07,0.27-0.07c0.21-0.04,0.28-0.05,0.28-0.05
			c0.22-0.03,0.29-0.04,0.29-0.04c0.22-0.02,0.3-0.02,0.3-0.02c0.23-0.01,0.3-0.01,0.3-0.01c0.94,0,1.53,0.08,2.33,0.2
			c1.37,0.22,3.36,0.62,4.68,0.6c0.24,0,0.32-0.01,0.32-0.01c0.24-0.01,0.31-0.02,0.31-0.02c0.23-0.02,0.31-0.03,0.31-0.03
			c0.23-0.03,0.3-0.05,0.3-0.05c0.22-0.05,0.3-0.06,0.3-0.06c0.22-0.06,0.29-0.08,0.29-0.08c0.2-0.07,0.27-0.09,0.27-0.09
			c0.2-0.08,0.27-0.11,0.27-0.11c0.26-0.12,0.32-0.15,0.32-0.15c0.25-0.14,0.32-0.18,0.32-0.18c0.25-0.15,0.31-0.19,0.31-0.19
			c0.18-0.12,0.3-0.21,0.3-0.21c0.24-0.18,0.36-0.27,0.36-0.27c1.2-0.96,2.32-2.17,3.3-2.92c0.24-0.18,0.35-0.26,0.35-0.26
			c0.24-0.16,0.3-0.2,0.3-0.2c0.24-0.15,0.31-0.18,0.31-0.18c0.25-0.13,0.31-0.17,0.31-0.17c0.26-0.12,0.32-0.14,0.32-0.14
			c0.2-0.08,0.26-0.1,0.26-0.1c0.2-0.06,0.27-0.08,0.27-0.08c0.21-0.05,0.28-0.07,0.28-0.07c0.22-0.04,0.3-0.05,0.3-0.05
			c0.23-0.03,0.3-0.03,0.3-0.03c0.23-0.01,0.31-0.02,0.31-0.02c0.24,0,0.31,0,0.31,0c0.24,0.01,0.32,0.01,0.32,0.01
			c2.25,0.15,4.41,1.05,6.57,1.3c0.24,0.02,0.32,0.03,0.32,0.03c0.24,0.02,0.32,0.02,0.32,0.02c0.23,0.01,0.31,0.01,0.31,0.01
			c0.23,0,0.31-0.01,0.31-0.01c0.22-0.02,0.3-0.02,0.3-0.02c0.22-0.03,0.29-0.04,0.29-0.04c0.25-0.05,0.29-0.06,0.29-0.06
			c0.26-0.07,0.32-0.09,0.32-0.09c0.25-0.09,0.31-0.11,0.31-0.11c0.24-0.11,0.3-0.14,0.3-0.14c0.24-0.12,0.29-0.16,0.29-0.16
			c0.23-0.14,0.29-0.17,0.29-0.17c0.17-0.11,0.28-0.19,0.28-0.19c0.22-0.16,0.33-0.24,0.33-0.24c1.05-0.83,2.14-1.96,3.01-2.6
			c0.23-0.17,0.34-0.25,0.34-0.25c0.23-0.15,0.29-0.19,0.29-0.19c0.24-0.14,0.3-0.18,0.3-0.18c0.25-0.13,0.31-0.16,0.31-0.16
			c0.25-0.11,0.32-0.14,0.32-0.14c0.19-0.07,0.26-0.1,0.26-0.1c0.2-0.06,0.27-0.08,0.27-0.08c0.21-0.05,0.29-0.07,0.29-0.07
			c0.24-0.04,0.32-0.05,0.32-0.05c0.24-0.03,0.33-0.03,0.33-0.03c0.25-0.01,0.33-0.02,0.33-0.02c0.26,0,0.34,0,0.34,0
			c2.49,0.08,4.75,0.98,7.14,1.23c0.26,0.02,0.34,0.03,0.34,0.03c0.25,0.01,0.34,0.02,0.34,0.02c0.25,0,0.33,0,0.33,0
			c0.24-0.01,0.32-0.01,0.32-0.01c0.23-0.02,0.31-0.03,0.31-0.03c0.23-0.03,0.3-0.05,0.3-0.05c0.26-0.06,0.29-0.07,0.29-0.07
			c0.25-0.08,0.28-0.09,0.28-0.09c0.23-0.09,0.29-0.12,0.29-0.12c0.22-0.11,0.28-0.14,0.28-0.14c0.21-0.13,0.26-0.16,0.26-0.16
			c0.25-0.18,0.3-0.22,0.3-0.22c0.24-0.2,0.29-0.25,0.29-0.25c0.23-0.22,0.33-0.32,0.33-0.32c0.18-0.19,0.27-0.29,0.27-0.29
			c0.63-0.71,1.4-1.79,1.85-2.33c0.17-0.2,0.26-0.3,0.26-0.3c0.18-0.19,0.26-0.29,0.26-0.29c0.23-0.23,0.27-0.27,0.27-0.27
			c0.23-0.21,0.28-0.25,0.28-0.25c0.24-0.19,0.29-0.22,0.29-0.22c0.25-0.17,0.31-0.2,0.31-0.2c0.21-0.11,0.27-0.14,0.27-0.14
			c0.26-0.11,0.29-0.12,0.29-0.12c0.26-0.08,0.29-0.09,0.29-0.09c0.23-0.05,0.3-0.07,0.3-0.07c0.21-0.03,0.28-0.04,0.28-0.04
			c0.21-0.02,0.28-0.03,0.28-0.03c0.22-0.01,0.29-0.01,0.29-0.01c0.22,0,0.3,0,0.3,0c2.13,0.07,4.23,0.79,6.3,0.85
			c0.24,0,0.32,0,0.32,0c0.24-0.01,0.32-0.01,0.32-0.01c0.24-0.02,0.31-0.02,0.31-0.02c0.23-0.03,0.31-0.04,0.31-0.04
			c0.23-0.04,0.3-0.05,0.3-0.05c0.22-0.05,0.3-0.07,0.3-0.07c0.21-0.06,0.28-0.08,0.28-0.08c0.2-0.07,0.27-0.1,0.27-0.1
			c0.2-0.08,0.27-0.11,0.27-0.11c0.2-0.09,0.26-0.13,0.26-0.13c0.26-0.14,0.32-0.18,0.32-0.18c0.25-0.15,0.31-0.19,0.31-0.19
			c0.25-0.17,0.37-0.25,0.37-0.25c0.93-0.67,2.09-1.8,2.73-2.38c0.22-0.19,0.44-0.38,0.44-0.38c0.22-0.18,0.33-0.27,0.33-0.27
			c0.22-0.17,0.33-0.25,0.33-0.25c0.22-0.16,0.28-0.19,0.28-0.19c0.22-0.14,0.28-0.17,0.28-0.17c0.23-0.13,0.28-0.16,0.28-0.16
			c0.23-0.11,0.29-0.13,0.29-0.13c0.23-0.09,0.29-0.11,0.29-0.11c0.23-0.07,0.29-0.08,0.29-0.08c0.22-0.05,0.27-0.05,0.27-0.05
			c0.22-0.03,0.28-0.04,0.28-0.04c0.22-0.01,0.28-0.02,0.28-0.02c0.23,0,0.28,0,0.28,0c0.23,0.01,0.29,0.01,0.29,0.01
			c0.17,0.02,0.29,0.03,0.29,0.03c0.23,0.03,0.35,0.05,0.35,0.05c1.29,0.22,2.81,0.76,3.87,0.92c0.23,0.03,0.34,0.05,0.34,0.05
			c0.23,0.02,0.28,0.03,0.28,0.03c0.22,0.01,0.28,0.01,0.28,0.01c0.22,0,0.27,0,0.27,0c0.22-0.02,0.27-0.02,0.27-0.02
			c0.22-0.03,0.27-0.04,0.27-0.04c0.22-0.04,0.27-0.06,0.27-0.06c0.21-0.06,0.27-0.07,0.27-0.07c0.21-0.07,0.27-0.09,0.27-0.09
			c0.21-0.08,0.32-0.12,0.32-0.12c0.21-0.09,0.31-0.14,0.31-0.14c1.28-0.61,2.49-1.44,3.61-1.91c0.24-0.1,0.37-0.15,0.37-0.15
			c0.25-0.09,0.38-0.14,0.38-0.14c0.26-0.08,0.39-0.12,0.39-0.12c0.2-0.05,0.27-0.07,0.27-0.07c0.2-0.05,0.27-0.06,0.27-0.06
			c0.22-0.04,0.3-0.05,0.3-0.05c0.25-0.04,0.34-0.05,0.34-0.05c2.92-0.3,5.8,0.55,8.64,0.45c0.24-0.01,0.32-0.02,0.32-0.02
			c0.24-0.02,0.31-0.03,0.31-0.03c0.23-0.03,0.3-0.05,0.3-0.05c0.22-0.04,0.29-0.06,0.29-0.06c0.21-0.05,0.28-0.07,0.28-0.07
			c0.23-0.08,0.27-0.09,0.27-0.09c0.25-0.11,0.3-0.13,0.3-0.13c0.22-0.12,0.26-0.14,0.26-0.14c0.25-0.16,0.29-0.19,0.29-0.19
			c0.23-0.18,0.27-0.21,0.27-0.21c0.25-0.23,0.32-0.3,0.32-0.3c0.2-0.22,0.27-0.29,0.27-0.29c0.56-0.66,0.92-1.23,1.38-1.8
			c0.18-0.22,0.24-0.29,0.24-0.29c0.22-0.24,0.25-0.27,0.25-0.27c0.23-0.22,0.27-0.25,0.27-0.25c0.25-0.19,0.29-0.22,0.29-0.22
			c0.23-0.14,0.27-0.16,0.27-0.16c0.25-0.12,0.27-0.13,0.27-0.13c0.22-0.08,0.27-0.09,0.27-0.09c0.26-0.06,0.31-0.07,0.31-0.07
			c0.22-0.04,0.27-0.04,0.27-0.04c0.22-0.02,0.28-0.03,0.28-0.03c0.17-0.01,0.29-0.01,0.29-0.01c0.24,0,0.36,0,0.36,0
			c1.46,0.04,2.89,0.32,4.15,0.3c0.25-0.01,0.38-0.01,0.38-0.01c0.25-0.02,0.31-0.02,0.31-0.02c0.24-0.03,0.31-0.04,0.31-0.04
			c0.24-0.04,0.3-0.06,0.3-0.06c0.23-0.06,0.29-0.07,0.29-0.07c0.23-0.07,0.28-0.09,0.28-0.09c0.26-0.11,0.31-0.13,0.31-0.13
			c0.25-0.13,0.3-0.16,0.3-0.16c0.24-0.15,0.29-0.18,0.29-0.18c0.23-0.16,0.32-0.23,0.32-0.23c0.18-0.14,0.27-0.21,0.27-0.21
			c0.75-0.64,1.44-1.42,1.98-1.93c0.24-0.23,0.33-0.3,0.33-0.3c0.25-0.21,0.33-0.28,0.33-0.28c0.26-0.19,0.3-0.22,0.3-0.22
			c0.22-0.14,0.26-0.17,0.26-0.17c0.22-0.12,0.27-0.14,0.27-0.14c0.23-0.1,0.28-0.12,0.28-0.12c0.24-0.08,0.26-0.08,0.26-0.08
			c0.22-0.05,0.26-0.06,0.26-0.06c0.24-0.03,0.29-0.04,0.29-0.04c0.25-0.01,0.3-0.01,0.3-0.01c0.26,0.01,0.31,0.01,0.31,0.01
			c0.21,0.02,0.31,0.03,0.31,0.03c0.21,0.03,0.32,0.04,0.32,0.04c1.08,0.18,2.2,0.54,3.08,0.67c0.2,0.03,0.29,0.04,0.29,0.04
			c0.24,0.02,0.29,0.02,0.29,0.02c0.23,0,0.28,0,0.28,0c0.22-0.02,0.26-0.02,0.26-0.02c0.25-0.05,0.27-0.05,0.27-0.05
			c0.25-0.08,0.27-0.09,0.27-0.09c0.24-0.12,0.27-0.14,0.27-0.14c0.24-0.17,0.27-0.19,0.27-0.19c0.25-0.23,0.28-0.26,0.28-0.26
			c0.23-0.26,0.28-0.32,0.28-0.32c0.36-0.45,0.5-0.66,0.78-1.04c0.2-0.26,0.25-0.32,0.25-0.32c0.21-0.24,0.26-0.3,0.26-0.3
			c0.25-0.24,0.28-0.27,0.28-0.27c0.24-0.19,0.27-0.21,0.27-0.21c0.26-0.15,0.27-0.16,0.27-0.16c0.26-0.1,0.28-0.11,0.28-0.11
			c0.25-0.06,0.28-0.06,0.28-0.06c0.23-0.03,0.27-0.03,0.27-0.03c0.24,0,0.29,0,0.29,0c0.25,0.02,0.3,0.02,0.3,0.02
			c0.21,0.03,0.31,0.04,0.31,0.04c0.21,0.04,0.32,0.06,0.32,0.06c1.05,0.23,2.23,0.66,3.08,0.82c0.26,0.05,0.31,0.05,0.31,0.05
			c0.25,0.03,0.3,0.03,0.3,0.03c0.24,0.01,0.29,0.01,0.29,0.01c0.25-0.01,0.27-0.01,0.27-0.01c0.26-0.04,0.28-0.05,0.28-0.05
			c0.26-0.08,0.27-0.09,0.27-0.09c0.25-0.13,0.27-0.14,0.27-0.14c0.26-0.2,0.29-0.22,0.29-0.22c0.22-0.23,0.25-0.26,0.25-0.26
			c0.18-0.23,0.2-0.26,0.2-0.26c0.43-0.63,0.8-1.39,1.1-1.88c0.15-0.23,0.2-0.31,0.2-0.31c0.18-0.25,0.21-0.29,0.21-0.29
			c0.2-0.23,0.23-0.26,0.23-0.26c0.24-0.23,0.28-0.26,0.28-0.26c0.25-0.18,0.27-0.19,0.27-0.19c0.24-0.13,0.27-0.14,0.27-0.14
			c0.24-0.09,0.26-0.1,0.26-0.1c0.25-0.07,0.31-0.08,0.31-0.08c0.21-0.04,0.27-0.04,0.27-0.04c0.22-0.02,0.28-0.02,0.28-0.02
			c0.23-0.01,0.29-0.01,0.29-0.01c0.24,0,0.36,0.01,0.36,0.01c1.29,0.07,2.2,0.29,3.39,0.41c0.26,0.02,0.39,0.03,0.39,0.03
			c0.26,0.01,0.38,0.02,0.38,0.02c0.25,0,0.31,0,0.31,0c0.24-0.01,0.3-0.01,0.3-0.01c0.24-0.02,0.3-0.03,0.3-0.03
			c0.23-0.04,0.29-0.05,0.29-0.05c0.22-0.05,0.27-0.07,0.27-0.07c0.25-0.09,0.3-0.1,0.3-0.1c0.23-0.1,0.27-0.12,0.27-0.12
			c0.26-0.15,0.3-0.17,0.3-0.17c0.24-0.17,0.28-0.2,0.28-0.2c0.23-0.19,0.27-0.22,0.27-0.22c0.22-0.21,0.29-0.28,0.29-0.28
			c0.63-0.65,1.04-1.22,1.55-1.79c0.2-0.22,0.27-0.29,0.27-0.29c0.25-0.24,0.28-0.27,0.28-0.27c0.25-0.21,0.29-0.24,0.29-0.24
			c0.23-0.16,0.27-0.19,0.27-0.19c0.24-0.14,0.28-0.16,0.28-0.16c0.25-0.11,0.28-0.12,0.28-0.12c0.25-0.07,0.28-0.08,0.28-0.08
			c0.21-0.04,0.26-0.05,0.26-0.05c0.22-0.02,0.27-0.03,0.27-0.03c0.23-0.01,0.28-0.01,0.28-0.01c0.23,0.01,0.29,0.01,0.29,0.01
			c0.24,0.02,0.3,0.02,0.3,0.02c0.18,0.02,0.31,0.04,0.31,0.04c0.25,0.04,0.38,0.06,0.38,0.06c1.63,0.32,3.34,0.99,4.92,1.2
			c0.26,0.03,0.32,0.03,0.32,0.03c0.25,0.02,0.32,0.02,0.32,0.02c0.24,0,0.29,0,0.29,0c0.22-0.01,0.28-0.01,0.28-0.01
			c0.22-0.02,0.27-0.02,0.27-0.02c0.21-0.03,0.27-0.04,0.27-0.04c0.21-0.04,0.31-0.06,0.31-0.06c0.21-0.05,0.31-0.07,0.31-0.07
			c0.2-0.06,0.3-0.09,0.3-0.09c0.2-0.07,0.3-0.1,0.3-0.1c0.2-0.07,0.29-0.11,0.29-0.11c1.74-0.71,3.19-1.94,4.74-2.65
			c0.22-0.1,0.29-0.13,0.29-0.13c0.22-0.09,0.29-0.11,0.29-0.11c0.22-0.08,0.29-0.1,0.29-0.1c0.22-0.07,0.29-0.09,0.29-0.09
			c0.22-0.05,0.29-0.07,0.29-0.07c0.22-0.04,0.29-0.05,0.29-0.05c0.22-0.03,0.29-0.03,0.29-0.03c0.22-0.01,0.3-0.01,0.3-0.01
			c0.26,0,0.3,0.01,0.3,0.01c0.22,0.02,0.26,0.02,0.26,0.02c0.23,0.03,0.26,0.04,0.26,0.04c0.23,0.05,0.27,0.06,0.27,0.06
			c0.25,0.07,0.29,0.09,0.29,0.09c0.18,0.06,0.27,0.1,0.27,0.1c0.18,0.07,0.27,0.11,0.27,0.11c1.11,0.49,2.17,1.2,3.19,1.62
			c0.19,0.08,0.29,0.11,0.29,0.11c0.19,0.07,0.29,0.1,0.29,0.1c0.24,0.07,0.29,0.08,0.29,0.08c0.24,0.05,0.29,0.06,0.29,0.06
			c0.24,0.04,0.29,0.04,0.29,0.04c0.24,0.02,0.29,0.02,0.29,0.02c0.24,0,0.29-0.01,0.29-0.01c0.25-0.03,0.31-0.04,0.31-0.04
			c0.21-0.04,0.26-0.06,0.26-0.06c0.21-0.06,0.26-0.08,0.26-0.08c0.21-0.08,0.26-0.1,0.26-0.1c0.21-0.09,0.26-0.11,0.26-0.11
			c0.21-0.1,0.31-0.16,0.31-0.16c0.21-0.12,0.31-0.18,0.31-0.18c1.08-0.65,2.15-1.51,3.07-2.06c0.22-0.13,0.32-0.19,0.32-0.19
			c0.22-0.11,0.32-0.17,0.32-0.17c0.22-0.1,0.27-0.12,0.27-0.12c0.22-0.09,0.27-0.11,0.27-0.11c0.22-0.07,0.27-0.09,0.27-0.09
			c0.22-0.06,0.28-0.07,0.28-0.07c0.21-0.04,0.27-0.05,0.27-0.05c0.21-0.02,0.26-0.03,0.26-0.03c0.21-0.01,0.26-0.01,0.26-0.01
			c0.21,0,0.26,0,0.26,0c0.21,0.01,0.26,0.02,0.26,0.02c0.16,0.02,0.26,0.03,0.26,0.03c0.21,0.03,0.32,0.05,0.32,0.05
			c1.19,0.22,2.42,0.72,3.48,0.92c0.21,0.04,0.31,0.05,0.31,0.05c0.26,0.03,0.31,0.03,0.31,0.03c0.25,0.01,0.3,0.02,0.3,0.02
			c0.25,0,0.3-0.01,0.3-0.01c0.25-0.02,0.3-0.03,0.3-0.03c0.25-0.05,0.3-0.06,0.3-0.06c0.25-0.06,0.3-0.08,0.3-0.08
			c0.25-0.08,0.3-0.1,0.3-0.1c0.2-0.08,0.3-0.12,0.3-0.12c0.2-0.09,0.3-0.14,0.3-0.14c1.18-0.59,2.31-1.44,3.39-1.96
			c0.21-0.1,0.31-0.14,0.31-0.14c0.21-0.09,0.32-0.13,0.32-0.13c0.21-0.08,0.27-0.09,0.27-0.09c0.22-0.06,0.27-0.08,0.27-0.08
			c0.22-0.05,0.28-0.06,0.28-0.06c0.25-0.04,0.31-0.05,0.31-0.05c0.2-0.02,0.26-0.03,0.26-0.03c0.2-0.01,0.27-0.02,0.27-0.02
			c0.2,0,0.27,0,0.27,0c0.2,0,0.27,0.01,0.27,0.01c1.61,0.08,3.45,0.72,4.97,1.11c1.5,0.41,3.21,0.66,4.66,0.48
			c1.94-0.17,4.16-0.88,6.07-1.08c0.26-0.02,0.38-0.03,0.38-0.03c0.25-0.01,0.31-0.01,0.31-0.01c0.25,0,0.31,0,0.31,0
			c0.24,0.01,0.3,0.02,0.3,0.02c0.22,0.02,0.26,0.03,0.26,0.03c0.22,0.04,0.26,0.04,0.26,0.04c0.26,0.06,0.34,0.08,0.34,0.08
			c0.25,0.07,0.33,0.1,0.33,0.1c0.24,0.08,0.32,0.11,0.32,0.11c0.74,0.29,1.35,0.62,2,0.94c0.15,0.07,0.3,0.14,0.3,0.14
			c0.23,0.1,0.31,0.13,0.31,0.13c0.23,0.09,0.31,0.12,0.31,0.12c0.23,0.08,0.31,0.1,0.31,0.1c0.24,0.07,0.32,0.08,0.32,0.08
			c0.25,0.05,0.3,0.06,0.3,0.06c0.23,0.03,0.32,0.04,0.32,0.04c0.19,0.01,0.28,0.02,0.28,0.02c0.19,0.01,0.29,0.01,0.29,0.01
			c1.56-0.01,3.29-0.43,4.73-0.49c0.44-0.02,0.79-0.02,1.01-0.01c0.25,0.02,0.38,0.03,0.38,0.03c0.25,0.02,0.38,0.04,0.38,0.04
			c2.58,0.34,5.07,1.54,7.42,2.41c4.02,1.48,9.95,3.2,13.95,4.72c6.51,2.42,13.58,5.5,19.9,8.4c5.7,2.66,11.82,5.59,17.21,8.81
			c3.05,1.78,6.52,4.3,9.4,6.39c2.4,1.73,5.08,3.09,7.85,4.15"/>
	</g>
	<g id="POLYLINE_1341_">
		<path class="st86" d="M225.37,418.83c-0.64,1.28-1.27,2.94-2.03,4.01c-0.14,0.19-0.21,0.29-0.21,0.29
			c-0.15,0.19-0.23,0.29-0.23,0.29c-0.16,0.19-0.25,0.29-0.25,0.29c-0.18,0.19-0.27,0.29-0.27,0.29c-0.19,0.2-0.29,0.29-0.29,0.29
			c-0.21,0.2-0.32,0.29-0.32,0.29c-0.23,0.2-0.34,0.3-0.34,0.3c-2.08,1.71-5.55,3.49-7.85,4.87c-0.5,0.3-1.28,0.8-1.67,1.09
			c-0.26,0.2-0.32,0.25-0.32,0.25c-0.22,0.19-0.27,0.24-0.27,0.24c-0.24,0.25-0.26,0.27-0.26,0.27c-0.18,0.25-0.19,0.27-0.19,0.27
			c-0.09,0.25-0.09,0.27-0.09,0.27c0.05,0.26,0.06,0.27,0.06,0.27c0.25,0.25,0.27,0.26,0.27,0.26c0.25,0.14,0.29,0.16,0.29,0.16
			c0.23,0.1,0.31,0.13,0.31,0.13c0.97,0.34,2.26,0.61,3.04,0.91c0.23,0.09,0.27,0.11,0.27,0.11c0.25,0.12,0.29,0.14,0.29,0.14
			c0.25,0.15,0.27,0.16,0.27,0.16c0.25,0.22,0.26,0.23,0.26,0.23c0.16,0.25,0.16,0.26,0.16,0.26c0.06,0.26,0.06,0.27,0.06,0.27
			c-0.01,0.25-0.01,0.26-0.01,0.26c-0.05,0.25-0.06,0.28-0.06,0.28c-0.09,0.26-0.11,0.29-0.11,0.29c-0.11,0.23-0.14,0.3-0.14,0.3
			c-0.11,0.2-0.18,0.34-0.18,0.34c-0.09,0.16-0.56,0.98-0.62,1.09c-0.1,0.2-0.13,0.26-0.13,0.26c-0.11,0.25-0.12,0.29-0.12,0.29
			c-0.07,0.26-0.08,0.27-0.08,0.27c-0.03,0.26-0.03,0.27-0.03,0.27c0.03,0.25,0.04,0.27,0.04,0.27c0.12,0.25,0.13,0.26,0.13,0.26
			c0.24,0.26,0.26,0.27,0.26,0.27c0.26,0.18,0.28,0.19,0.28,0.19c0.22,0.11,0.27,0.13,0.27,0.13c0.25,0.1,0.3,0.12,0.3,0.12
			c0.22,0.07,0.28,0.09,0.28,0.09c0.18,0.05,0.3,0.08,0.3,0.08c1.45,0.33,2.6,0.36,4.02,0.4c2.85,0.08,6.89-0.31,9.75-0.28
			c0.26,0.01,0.38,0.02,0.38,0.02c0.23,0.02,0.34,0.03,0.34,0.03c0.25,0.03,0.3,0.04,0.3,0.04c0.25,0.05,0.27,0.06,0.27,0.06
			c0.25,0.1,0.27,0.11,0.27,0.11c0.2,0.26,0.2,0.27,0.2,0.27c-0.08,0.25-0.08,0.27-0.08,0.27c-0.17,0.26-0.22,0.32-0.22,0.32
			l-0.31,0.39c-0.18,0.24-0.2,0.27-0.2,0.27c-0.16,0.26-0.17,0.28-0.17,0.28c-0.1,0.26-0.1,0.27-0.1,0.27
			c-0.02,0.25-0.02,0.26-0.02,0.26c0.08,0.24,0.09,0.26,0.09,0.26c0.2,0.25,0.21,0.26,0.21,0.26c0.26,0.2,0.28,0.22,0.28,0.22
			c0.25,0.15,0.3,0.18,0.3,0.18c0.23,0.11,0.29,0.14,0.29,0.14c0.19,0.08,0.26,0.11,0.26,0.11c0.21,0.08,0.28,0.1,0.28,0.1
			c1.84,0.57,3.4,0.71,5.21,0.81c2.02,0.09,4.08-0.04,6.05-0.38l3.59-0.66c0.3-0.05,0.87-0.13,0.98-0.14
			c0.21-0.02,0.26-0.02,0.26-0.02c0.24-0.01,0.29-0.01,0.29-0.01c0.25,0.01,0.27,0.02,0.27,0.02c0.25,0.05,0.26,0.05,0.26,0.05
			c0.26,0.13,0.27,0.14,0.27,0.14c0.15,0.26,0.15,0.27,0.15,0.27c0.02,0.25,0.02,0.27,0.02,0.27c-0.03,0.25-0.04,0.3-0.04,0.3
			c-0.07,0.35-0.16,0.67-0.23,0.97c-0.05,0.23-0.06,0.28-0.06,0.28c-0.04,0.23-0.05,0.28-0.05,0.28c-0.02,0.25-0.02,0.28-0.02,0.28
			c0,0.24,0.01,0.26,0.01,0.26c0.05,0.26,0.05,0.27,0.05,0.27c0.11,0.25,0.13,0.27,0.13,0.27c0.21,0.24,0.24,0.26,0.24,0.26
			c0.25,0.17,0.27,0.18,0.27,0.18c0.24,0.11,0.27,0.13,0.27,0.13c0.24,0.08,0.28,0.1,0.28,0.1c0.23,0.06,0.31,0.08,0.31,0.08
			c0.25,0.05,0.34,0.07,0.34,0.07c2.14,0.3,3.94,0.08,5.99-0.08c3.44-0.29,8.35-1.13,11.77-1c0.22,0.02,0.33,0.03,0.33,0.03
			c0.2,0.02,0.3,0.04,0.3,0.04c0.23,0.04,0.27,0.05,0.27,0.05c0.24,0.06,0.28,0.07,0.28,0.07c0.25,0.1,0.26,0.1,0.26,0.1
			c0.25,0.17,0.26,0.18,0.26,0.18c0.15,0.25,0.15,0.26,0.15,0.26c0,0.26-0.01,0.27-0.01,0.27c-0.09,0.26-0.1,0.28-0.1,0.28
			c-0.14,0.26-0.17,0.31-0.17,0.31c-0.34,0.52-0.78,1.04-1.02,1.4c-0.16,0.25-0.19,0.3-0.19,0.3c-0.13,0.26-0.14,0.28-0.14,0.28
			c-0.08,0.25-0.08,0.26-0.08,0.26c0.02,0.25,0.02,0.26,0.02,0.26c0.22,0.26,0.24,0.27,0.24,0.27c0.25,0.12,0.27,0.12,0.27,0.12
			c0.24,0.07,0.27,0.07,0.27,0.07c0.26,0.05,0.32,0.05,0.32,0.05c0.98,0.11,1.72,0.05,2.55,0c1.14-0.08,2.47-0.25,3.6-0.41
			c3-0.38,9.15-1.58,12.1-1.51c0.24,0.01,0.3,0.02,0.3,0.02c0.22,0.02,0.27,0.03,0.27,0.03c0.24,0.04,0.26,0.05,0.26,0.05
			c0.26,0.08,0.28,0.09,0.28,0.09c0.25,0.16,0.26,0.17,0.26,0.17c0.13,0.25,0.14,0.27,0.14,0.27c-0.02,0.25-0.03,0.27-0.03,0.27
			c-0.1,0.25-0.11,0.27-0.11,0.27c-0.22,0.43-0.41,0.71-0.57,0.98c-0.13,0.23-0.16,0.27-0.16,0.27c-0.12,0.25-0.13,0.27-0.13,0.27
			c-0.09,0.26-0.09,0.28-0.09,0.28c-0.03,0.26-0.03,0.26-0.03,0.26c0.07,0.25,0.08,0.27,0.08,0.27c0.25,0.26,0.27,0.27,0.27,0.27
			c0.24,0.13,0.26,0.14,0.26,0.14c0.24,0.09,0.27,0.1,0.27,0.1c0.21,0.06,0.28,0.07,0.28,0.07c0.2,0.04,0.27,0.06,0.27,0.06
			c1.66,0.25,3,0.14,4.56,0.05c1.96-0.15,4.05-0.43,5.99-0.75c0,0,4.45-0.8,4.45-0.8c0.59-0.1,1.57-0.24,2.11-0.27
			c0.23-0.01,0.34-0.01,0.34-0.01c0.21,0,0.26,0,0.26,0c0.24,0.01,0.28,0.02,0.28,0.02c0.25,0.04,0.27,0.04,0.27,0.04
			c0.25,0.07,0.26,0.08,0.26,0.08c0.25,0.15,0.26,0.16,0.26,0.16c0.16,0.25,0.17,0.26,0.17,0.26c0.04,0.26,0.04,0.27,0.04,0.27
			c-0.01,0.24-0.01,0.28-0.01,0.28c-0.06,0.44-0.07,0.42-0.12,0.73c-0.04,0.24-0.04,0.28-0.04,0.28c-0.02,0.25-0.02,0.27-0.02,0.27
			c0.02,0.25,0.02,0.27,0.02,0.27c0.1,0.26,0.1,0.27,0.1,0.27c0.26,0.24,0.27,0.24,0.27,0.24c0.25,0.11,0.27,0.11,0.27,0.11
			c0.22,0.06,0.27,0.06,0.27,0.06c0.25,0.04,0.31,0.04,0.31,0.04c0.22,0.02,0.28,0.02,0.28,0.02c2.12,0.03,5.28-0.58,7.38-0.78
			c1.82-0.2,3.7-0.31,5.53-0.3c1.41,0.01,3.1,0.07,4.43,0.36c0.26,0.06,0.32,0.08,0.32,0.08c0.23,0.07,0.29,0.09,0.29,0.09
			c0.25,0.09,0.27,0.1,0.27,0.1c0.26,0.14,0.28,0.15,0.28,0.15c0.26,0.25,0.27,0.26,0.27,0.26c0.05,0.26,0.05,0.26,0.05,0.26
			c-0.09,0.26-0.1,0.27-0.1,0.27c-0.26,0.4-0.23,0.34-0.41,0.57c-0.18,0.24-0.2,0.26-0.2,0.26c-0.14,0.26-0.15,0.27-0.15,0.27
			c-0.02,0.26-0.02,0.27-0.02,0.27c0.21,0.26,0.22,0.27,0.22,0.27c0.25,0.13,0.28,0.15,0.28,0.15c0.26,0.09,0.3,0.1,0.3,0.1
			c0.26,0.07,0.35,0.09,0.35,0.09c1,0.2,1.67,0.24,2.58,0.31c3.73,0.24,12.68,0.29,16.34,0.66c0.24,0.04,0.29,0.05,0.29,0.05
			c0.26,0.06,0.3,0.07,0.3,0.07c0.25,0.09,0.27,0.1,0.27,0.1c0.26,0.16,0.26,0.16,0.26,0.16c0.18,0.26,0.18,0.27,0.18,0.27
			c0.04,0.25,0.04,0.26,0.04,0.26c-0.02,0.24-0.02,0.27-0.02,0.27c-0.05,0.25-0.14,0.63-0.14,0.63c-0.04,0.24-0.05,0.27-0.05,0.27
			c-0.01,0.26-0.01,0.27-0.01,0.27c0.1,0.25,0.11,0.26,0.11,0.26c0.25,0.15,0.26,0.15,0.26,0.15c0.25,0.05,0.28,0.05,0.28,0.05
			c0.23,0.01,0.27,0.01,0.27,0.01c0.23-0.01,0.31-0.01,0.31-0.01c1.74-0.18,3.37-0.65,5.04-0.87c1.35-0.2,2.75-0.29,4.11-0.27
			c2.07,0.02,4.16,0.3,6.18,0.76c2.18,0.49,4.59,1.3,6.32,2.57c0.21,0.16,0.29,0.21,0.29,0.21c0.21,0.17,0.28,0.22,0.28,0.22
			c0.2,0.17,0.27,0.23,0.27,0.23c0.2,0.18,0.26,0.24,0.26,0.24c0.25,0.26,0.31,0.32,0.31,0.32c0.18,0.2,0.24,0.27,0.24,0.27
			c0.17,0.21,0.23,0.28,0.23,0.28c0.16,0.22,0.22,0.29,0.22,0.29c0.16,0.23,0.21,0.31,0.21,0.31c0.15,0.24,0.2,0.32,0.2,0.32
			c0.14,0.25,0.18,0.33,0.18,0.33c0.23,0.45,0.3,0.64,0.4,0.89c0.08,0.21,0.12,0.32,0.12,0.32c0.62,1.9,0.73,3.45,0.8,5.35
			c0.08,2.86-0.3,6.38-0.54,9.24c-0.03,0.37-0.07,1.07-0.06,1.36c0,0.24,0.01,0.32,0.01,0.32c0.02,0.24,0.02,0.27,0.02,0.27
			c0.05,0.26,0.05,0.27,0.05,0.27c0.11,0.25,0.11,0.26,0.11,0.26c0.26,0.19,0.26,0.2,0.26,0.2c0.25,0.02,0.27,0.02,0.27,0.02
			c0.24-0.05,0.28-0.06,0.28-0.06c0.23-0.08,0.27-0.09,0.27-0.09c0.21-0.09,0.3-0.13,0.3-0.13c0.18-0.09,0.28-0.14,0.28-0.14
			c2.07-1.14,5.12-3.54,7.08-4.84c3.94-2.63,9.46-5.97,13.13-8.89c2.82-2.19,7.45-6.19,10.24-8.45c2.01-1.64,4.41-3.41,6.61-4.54
			c0.97-0.52,2.08-1.01,3.1-1.44c1.32-0.55,2.8-1.17,4.15-1.51c3.68-0.97,7.59-1.23,11.39-1.46"/>
	</g>
	<g id="POLYLINE_1340_">
		<path class="st86" d="M541.42,455.11c-1.22,1.27-2.72,2.78-4.12,3.71c-1.27,0.87-2.69,1.36-3.94,2.06
			c-0.23,0.13-0.3,0.18-0.3,0.18c-0.22,0.14-0.29,0.19-0.29,0.19c-0.21,0.15-0.28,0.2-0.28,0.2c-0.2,0.16-0.27,0.22-0.27,0.22
			c-0.26,0.23-0.29,0.26-0.29,0.26c-0.21,0.22-0.25,0.27-0.25,0.27c-0.19,0.23-0.22,0.28-0.22,0.28c-0.17,0.25-0.21,0.3-0.21,0.3
			c-0.13,0.21-0.16,0.26-0.16,0.26c-0.13,0.22-0.19,0.34-0.19,0.34c-0.12,0.23-0.18,0.35-0.18,0.35c-1.01,2.27-1.61,4.61-2.74,6.8
			c-1.55,3.16-4.51,6.83-6.54,9.69c-0.48,0.67-1.16,1.71-1.5,2.35c-0.13,0.26-0.18,0.34-0.18,0.34c-0.12,0.24-0.15,0.32-0.15,0.32
			c-0.1,0.23-0.12,0.31-0.12,0.31c-0.08,0.25-0.1,0.29-0.1,0.29c-0.06,0.23-0.06,0.27-0.06,0.27c-0.03,0.25-0.03,0.28-0.03,0.28
			c0.01,0.25,0.01,0.27,0.01,0.27c0.08,0.25,0.08,0.27,0.08,0.27c0.18,0.25,0.2,0.26,0.2,0.26c0.25,0.18,0.27,0.19,0.27,0.19
			c0.26,0.11,0.28,0.11,0.28,0.11c0.25,0.06,0.28,0.07,0.28,0.07c0.25,0.04,0.31,0.05,0.31,0.05c0.25,0.02,0.31,0.02,0.31,0.02
			c0.2,0.01,0.27,0.01,0.27,0.01c1.2-0.02,2.07-0.21,3.11-0.43c1.26-0.29,2.53-0.67,3.75-1.09c3.79-1.3,7.48-3.03,10.97-4.99
			c6-3.39,11.62-7.52,16.56-12.33c4.12-4.01,7.76-8.56,10.91-13.37"/>
	</g>
	<g id="POLYLINE_1339_">
		<path class="st86" d="M640.22,433.29c0.4,0.87,0.9,1.63,1.4,2.25c0.21,0.26,0.32,0.39,0.32,0.39c0.22,0.25,0.34,0.37,0.34,0.37
			c0.24,0.24,0.36,0.36,0.36,0.36c0.25,0.23,0.37,0.35,0.37,0.35c0.62,0.54,1,0.83,1.51,1.16c0.22,0.14,0.3,0.18,0.3,0.18
			c0.23,0.13,0.3,0.17,0.3,0.17c0.23,0.12,0.31,0.16,0.31,0.16c0.23,0.11,0.31,0.14,0.31,0.14c0.24,0.1,0.32,0.13,0.32,0.13
			c0.24,0.09,0.32,0.11,0.32,0.11c0.24,0.07,0.32,0.09,0.32,0.09c0.24,0.06,0.33,0.07,0.33,0.07c0.25,0.04,0.33,0.05,0.33,0.05
			c0.25,0.02,0.29,0.03,0.29,0.03c0.25,0.01,0.29,0.01,0.29,0.01c0.25-0.01,0.29-0.01,0.29-0.01c0.25-0.03,0.29-0.03,0.29-0.03
			c0.26-0.05,0.31-0.06,0.31-0.06c0.26-0.07,0.31-0.08,0.31-0.08c0.26-0.08,0.31-0.1,0.31-0.1c0.26-0.1,0.31-0.12,0.31-0.12
			c0.21-0.09,0.31-0.14,0.31-0.14c0.21-0.11,0.31-0.16,0.31-0.16c0.21-0.12,0.31-0.18,0.31-0.18c0.21-0.13,0.31-0.2,0.31-0.2
			c0.2-0.14,0.31-0.22,0.31-0.22c2.19-1.69,3.54-3.57,5.02-5.64l3.22-4.75c1.07-1.54,2.24-3.08,3.5-4.47
			c1.42-1.57,3.04-3.08,4.64-4.48c2.16-1.86,6.35-5.34,8.32-7.32c1.28-1.26,3.66-3.72,5.02-4.82c0.21-0.19,0.28-0.26,0.28-0.26
			c0.22-0.23,0.25-0.26,0.25-0.26c0.19-0.24,0.22-0.27,0.22-0.27c0.16-0.26,0.17-0.28,0.17-0.28c0.12-0.26,0.12-0.28,0.12-0.28
			c0.07-0.24,0.08-0.27,0.08-0.27c0.04-0.25,0.05-0.28,0.05-0.28c0.02-0.23,0.02-0.26,0.02-0.26c0.01-0.21,0-0.28,0-0.28
			c-0.01-0.22-0.01-0.29-0.01-0.29c-0.02-0.23-0.03-0.3-0.03-0.3c-0.23-1.82-0.83-3.32-1.37-5c-3.48-9.51-7.24-19.77-11.48-28.96
			c-3.19-6.83-6.7-13.72-11.82-19.31c-2.62-2.88-5.69-5.37-8.98-7.45c-6.1-3.84-12.8-6.77-19.73-8.73c-3.92-1.1-8-1.88-12.05-2.26
			c-4.96-0.48-10.09-0.41-15.07-0.12c-2.77,0.14-7.6,0.61-10.43,0.88c-66.98,7.78-159.51,18.51-225.48,29.22
			c-41.15,6.27-100.71,18.87-141.94,26.78c0,0-2.32,0.38-2.32,0.38s-2.22,0.33-2.22,0.33s-1.08,0.15-1.08,0.15s-1.06,0.13-1.06,0.13
			s-1.04,0.12-1.04,0.12s-1.02,0.1-1.02,0.1c-4.09,0.34-9.45,0.57-13.47,0.76c-6.14,0.23-13.56,0.42-19.74,0.12
			c0,0-1.68-0.09-1.68-0.09s-0.8-0.05-0.8-0.05s-0.77-0.06-0.77-0.06s-0.75-0.06-0.75-0.06s-0.72-0.07-0.72-0.07s-0.7-0.07-0.7-0.07
			s-0.69-0.06-0.69-0.06s-0.67-0.04-0.67-0.04s-0.66-0.03-0.66-0.03s-0.65-0.02-0.65-0.02s-0.32-0.01-0.32-0.01
			c-0.68-0.01-1.45,0-2.13,0.04c-0.82,0.04-1.69,0.13-2.5,0.26c0,0-0.26,0.04-0.26,0.04c-0.26,0.05-0.51,0.1-0.51,0.1
			c-0.25,0.05-0.5,0.11-0.5,0.11c-0.24,0.06-0.48,0.12-0.48,0.12c-0.24,0.06-0.47,0.13-0.47,0.13c-0.23,0.07-0.46,0.14-0.46,0.14
			c-0.22,0.08-0.44,0.15-0.44,0.15c-0.22,0.08-0.43,0.16-0.43,0.16c-0.21,0.09-0.31,0.13-0.31,0.13c-0.2,0.09-0.3,0.14-0.3,0.14
			c-0.2,0.1-0.3,0.14-0.3,0.14c-0.19,0.1-0.29,0.15-0.29,0.15c-0.19,0.1-0.28,0.16-0.28,0.16c-0.18,0.11-0.27,0.16-0.27,0.16
			c-0.18,0.11-0.27,0.17-0.27,0.17c-0.26,0.18-0.34,0.24-0.34,0.24c-0.25,0.19-0.33,0.25-0.33,0.25c-0.24,0.19-0.32,0.26-0.32,0.26
			c-0.23,0.2-0.3,0.27-0.3,0.27c-0.22,0.21-0.29,0.28-0.29,0.28c-4.17,4.42-4.23,10.88-3.64,16.45c0.34,3.14,0.92,6.29,1.93,9.28
			c0.64,1.86,1.58,4,2.65,5.52c0.18,0.24,0.24,0.32,0.24,0.32c0.18,0.23,0.24,0.31,0.24,0.31c0.19,0.22,0.25,0.29,0.25,0.29
			c0.19,0.21,0.26,0.28,0.26,0.28c0.2,0.2,0.27,0.27,0.27,0.27c0.21,0.19,0.28,0.25,0.28,0.25c0.21,0.18,0.28,0.24,0.28,0.24
			c0.22,0.17,0.29,0.23,0.29,0.23c0.22,0.16,0.3,0.21,0.3,0.21c0.23,0.15,0.31,0.2,0.31,0.2c0.24,0.14,0.31,0.19,0.31,0.19
			c0.24,0.13,0.32,0.17,0.32,0.17c0.25,0.12,0.33,0.16,0.33,0.16c0.25,0.11,0.34,0.15,0.34,0.15c2.91,1.2,5.77,0.72,8.64,0.26
			c2.41-0.41,4.84-0.96,7.09-1.94c0.62-0.27,1.07-0.53,1.44-0.73c1.57-0.79,3.06-1.27,4.69-1.79c2.66-0.81,5.81-1.6,8.53-2.24
			c4.4-1.08,9.64-1.93,14.13-2.64c2.51-0.37,5.1-0.71,7.63-0.8c1.92-0.08,4.06,0.01,5.89,0.35c2.18,0.38,4.35,1.08,6.43,1.84
			c17.39,6.79,35.92,11.68,54.13,15.71c20.33,4.37,42.45,8.62,63.02,11.59c8.95,1.27,19.7,2.44,28.72,3.17
			c27.83,2.08,70.28,3.41,98.2,4.63c22.65,0.76,46.67,0.57,69.31-0.68c11.35-0.65,24.6-1.56,35.88-2.95
			c3.71-0.46,8.81-1.18,12.57-1.96c5.18-1.04,9.3-2.27,14.16-3.56"/>
	</g>
	<g id="POLYLINE_1338_">
		<path class="st86" d="M213.06,389.93c-2.81,0.18-5.68,0.16-8.48-0.15c-3.15-0.35-6.3-1.06-9.34-1.97
			c-3.84-1.15-7.73-2.68-11.42-4.26c-12.9-5.59-28.68-13.86-41.73-19.08c-6.76-2.74-14.2-5.38-21.14-7.66
			c-6.93-2.24-14.37-4.49-21.48-6.05c-3.11-0.67-6.33-1.26-9.49-1.56c-2.02-0.18-4.27-0.29-6.23,0.04
			c-0.26,0.05-0.38,0.08-0.38,0.08c-0.24,0.06-0.29,0.07-0.29,0.07c-0.22,0.07-0.27,0.08-0.27,0.08c-0.25,0.09-0.29,0.11-0.29,0.11
			c-0.26,0.12-0.28,0.14-0.28,0.14c-0.25,0.16-0.27,0.18-0.27,0.18c-0.25,0.25-0.26,0.26-0.26,0.26c-0.14,0.25-0.14,0.27-0.14,0.27
			c-0.05,0.25-0.06,0.26-0.06,0.26c0,0.25,0.01,0.26,0.01,0.26c0.05,0.24,0.06,0.26,0.06,0.26c0.09,0.24,0.1,0.27,0.1,0.27
			c0.12,0.23,0.14,0.27,0.14,0.27c0.15,0.23,0.18,0.27,0.18,0.27c0.18,0.24,0.21,0.28,0.21,0.28c0.18,0.22,0.23,0.27,0.23,0.27
			c0.21,0.22,0.26,0.28,0.26,0.28c0.23,0.23,0.36,0.34,0.36,0.34c1.38,1.23,2.66,2.05,4.15,3.04c3.2,2.02,7.91,4.95,10.96,7.04
			c3.94,2.6,23.15,16.8,27.37,19.88c4.08,3,8.38,6.25,12.13,9.63c1.45,1.31,2.91,2.72,4.21,4.18c1.6,1.81,2.84,3.52,3.64,5.59
			c1.04,2.65,0.84,5.57,0.03,8.11c-0.99,3.13-2.85,5.91-5,8.33c-1.12,1.27-2.4,2.53-3.63,3.7c-5.9,5.37-18.4,16.01-24.5,21.39
			c-7.49,6.36-15.54,12.59-23.94,17.7c-1.99,1.24-8.75,5.35-10.58,6.61c-1.77,1.19-3.88,2.7-5.21,4.19
			c-0.17,0.2-0.23,0.27-0.23,0.27c-0.16,0.2-0.21,0.26-0.21,0.26c-0.19,0.26-0.23,0.32-0.23,0.32c-0.16,0.25-0.2,0.31-0.2,0.31
			c-0.14,0.24-0.17,0.3-0.17,0.3c-0.11,0.23-0.13,0.29-0.13,0.29c-0.09,0.25-0.1,0.28-0.1,0.28c-0.06,0.24-0.06,0.26-0.06,0.26
			c-0.03,0.24-0.03,0.27-0.03,0.27c0.02,0.26,0.02,0.27,0.02,0.27c0.08,0.26,0.09,0.27,0.09,0.27c0.19,0.26,0.2,0.27,0.2,0.27
			c0.26,0.19,0.27,0.19,0.27,0.19c0.23,0.11,0.26,0.12,0.26,0.12c0.25,0.08,0.29,0.09,0.29,0.09c0.24,0.05,0.29,0.06,0.29,0.06
			c0.22,0.04,0.31,0.05,0.31,0.05c0.19,0.02,0.29,0.03,0.29,0.03c1.77,0.11,3.27-0.08,4.97-0.23c2.77-0.28,6.16-0.67,8.91-1.08
			c7.96-1.17,15.97-2.9,23.54-5.65c5.87-2.1,11.89-4.84,17.51-7.53c9.09-4.49,23.04-11.06,31.68-16.12
			c4.77-2.75,9.51-5.85,13.81-9.29c4.73-3.73,10.79-9.27,16.12-12c3.21-1.66,6.71-2.73,10.23-3.5"/>
	</g>
	<g id="POLYLINE_1337_">
		<path class="st86" d="M590.56,403.66c-0.7,2.72-1.05,5.89-0.39,8.54c0.07,0.25,0.09,0.33,0.09,0.33c0.07,0.24,0.1,0.32,0.1,0.32
			c0.08,0.24,0.11,0.32,0.11,0.32c0.09,0.23,0.12,0.31,0.12,0.31c0.1,0.23,0.13,0.3,0.13,0.3c0.11,0.22,0.15,0.29,0.15,0.29
			c0.12,0.21,0.16,0.28,0.16,0.28c0.13,0.21,0.17,0.27,0.17,0.27c0.18,0.26,0.23,0.32,0.23,0.32c0.2,0.25,0.25,0.31,0.25,0.31
			c0.21,0.24,0.26,0.3,0.26,0.3c0.22,0.23,0.28,0.28,0.28,0.28c0.23,0.22,0.35,0.33,0.35,0.33c0.25,0.21,0.37,0.32,0.37,0.32
			c1.63,1.32,3.7,2.37,5.26,3.67c0.26,0.22,0.38,0.33,0.38,0.33c0.24,0.23,0.36,0.34,0.36,0.34c0.23,0.24,0.29,0.3,0.29,0.3
			c0.22,0.25,0.28,0.32,0.28,0.32c0.17,0.2,0.22,0.27,0.22,0.27c2.23,2.97,2.85,6.89,5.04,9.79c0.17,0.23,0.23,0.3,0.23,0.3
			c1.3,1.61,2.85,2.7,4.45,3.65c1.64,0.96,3.45,1.76,5.21,2.48c2.78,1.1,5.72,2.27,8.62,2.97"/>
	</g>
	<g id="POLYLINE_1336_">
		<path class="st86" d="M592.55,369.37c-6.76,7.59-11.49,17.36-11.93,27.61c-0.37,8.19,2.18,16.23,5.7,23.53
			c3.15,6.48,7,12.72,11.61,18.27c2.21,2.61,4.84,5.38,7.8,7.05c1.49,0.85,3.03,1.32,4.55,1.56c2.05,0.31,4.03,0.2,6.07,0.15
			c5.15-0.2,10.35-0.86,15.42-1.76c7.05-1.27,14.21-2.97,21.07-5.01c4.53-1.39,9.18-2.92,13.41-5.07c1.84-0.94,3.64-2.06,5.26-3.33
			c1.8-1.4,3.47-3.04,4.98-4.75c1.99-2.28,4.07-4.98,5.21-7.72c0.1-0.26,0.13-0.34,0.13-0.34c0.08-0.25,0.11-0.33,0.11-0.33
			c0.07-0.24,0.09-0.32,0.09-0.32c0.05-0.23,0.07-0.31,0.07-0.31c0.04-0.26,0.04-0.29,0.04-0.29c0.02-0.24,0.02-0.28,0.02-0.28
			c0-0.23,0-0.26,0-0.26c-0.03-0.25-0.03-0.28-0.03-0.28c-0.06-0.25-0.07-0.28-0.07-0.28c-0.11-0.25-0.12-0.27-0.12-0.27
			c-0.19-0.25-0.2-0.27-0.2-0.27c-0.26-0.23-0.27-0.24-0.27-0.24c-0.25-0.16-0.29-0.18-0.29-0.18c-0.25-0.12-0.29-0.13-0.29-0.13
			c-0.22-0.08-0.27-0.1-0.27-0.1c-0.24-0.07-0.29-0.08-0.29-0.08c-0.25-0.06-0.36-0.08-0.36-0.08c-0.21-0.04-0.32-0.06-0.32-0.06
			c-1.49-0.22-3.57-0.16-5.03-0.2c-1.66-0.05-4.07-0.18-5.66,0.02"/>
	</g>
	<g id="POLYLINE_1335_">
		<path class="st86" d="M567.24,413.2c-1.63,1.74-3.62,2.93-5.55,3.76c-1.72,0.7-3.31,1.15-4.96,1.18c-0.18,0-0.28,0-0.28,0
			c-0.18-0.01-0.27-0.02-0.27-0.02c-0.18-0.02-0.27-0.03-0.27-0.03c-0.18-0.02-0.27-0.04-0.27-0.04c-0.17-0.03-0.26-0.05-0.26-0.05
			c-0.26-0.06-0.34-0.08-0.34-0.08c-0.25-0.08-0.34-0.1-0.34-0.1c-0.25-0.09-0.33-0.13-0.33-0.13c-0.24-0.11-0.28-0.13-0.28-0.13
			c-0.23-0.13-0.27-0.15-0.27-0.15c-0.23-0.14-0.28-0.17-0.28-0.17c-0.23-0.16-0.27-0.19-0.27-0.19c-0.18-0.14-0.27-0.21-0.27-0.21
			c-0.17-0.15-0.26-0.23-0.26-0.23c-1.27-1.18-2.44-2.86-3.47-4.13c-2.42-3.03-5.33-5.3-8.58-7.31c-5.71-3.5-12.14-5.75-18.67-7.17
			c-3.3-0.7-6.73-1.23-10.1-1.39c-3.07-0.14-6.2,0.07-9.16,0.93c-1.09,0.31-3.34,1.02-4.35,1.14c-0.2,0.02-0.3,0.03-0.3,0.03
			c-0.24,0.02-0.29,0.02-0.29,0.02c-0.24,0-0.28,0-0.28,0c-0.23-0.01-0.27-0.01-0.27-0.01c-0.22-0.03-0.26-0.03-0.26-0.03
			c-0.24-0.05-0.29-0.06-0.29-0.06c-0.23-0.07-0.28-0.09-0.28-0.09c-0.26-0.11-0.28-0.12-0.28-0.12c-0.25-0.14-0.27-0.16-0.27-0.16
			c-0.25-0.2-0.27-0.21-0.27-0.21c-0.23-0.26-0.24-0.27-0.24-0.27c-0.14-0.25-0.15-0.27-0.15-0.27c-0.08-0.26-0.08-0.27-0.08-0.27
			c-0.02-0.25-0.02-0.27-0.02-0.27c0.03-0.26,0.03-0.28,0.03-0.28c0.07-0.25,0.08-0.27,0.08-0.27c0.12-0.25,0.14-0.29,0.14-0.29
			c0.15-0.24,0.17-0.28,0.17-0.28c0.18-0.25,0.22-0.29,0.22-0.29c0.22-0.25,0.26-0.29,0.26-0.29c0.25-0.25,0.34-0.34,0.34-0.34
			c0.19-0.17,0.29-0.25,0.29-0.25c0.21-0.17,0.31-0.26,0.31-0.26c1.41-1.07,2.55-1.63,4.05-2.31c1.59-0.69,3.28-1.24,4.95-1.7
			c4.82-1.28,9.86-1.91,14.84-2.22c10.32-0.63,20.76,0.31,30.91,2.2c3.01,0.56,6.27,1.26,9.24,1.99c1.87,0.47,4.18,1.03,5.86,1.85
			c0.2,0.1,0.29,0.15,0.29,0.15c0.18,0.11,0.27,0.16,0.27,0.16c0.25,0.16,0.29,0.19,0.29,0.19c0.26,0.2,0.29,0.23,0.29,0.23
			c0.25,0.24,0.28,0.27,0.28,0.27c0.2,0.25,0.21,0.27,0.21,0.27c0.15,0.26,0.15,0.28,0.15,0.28c0.1,0.26,0.1,0.28,0.1,0.28
			c0.06,0.24,0.07,0.29,0.07,0.29c0.03,0.25,0.04,0.29,0.04,0.29c0.01,0.25,0.01,0.3,0.01,0.3c0,0.26-0.01,0.34-0.01,0.34
			c-0.03,0.48-0.05,0.56-0.08,0.93"/>
	</g>
</g>
<g id="AG-OUTLINE">
	<g id="POLYLINE_127_">
		<path class="st87" d="M607.08,446.49c3.4,1.43,6.73,1.11,10.2,1c6.71-0.33,13.45-1.42,20.02-2.8c5.8-1.23,11.75-2.74,17.41-4.51
			c3.73-1.19,7.55-2.52,11.07-4.26c2.01-1,3.98-2.19,5.75-3.58c1.94-1.51,3.71-3.28,5.31-5.14c1.85-2.17,3.82-4.76,4.88-7.34
			c0.1-0.26,0.13-0.34,0.13-0.34c0.08-0.25,0.11-0.33,0.11-0.33c0.07-0.24,0.09-0.32,0.09-0.32c0.05-0.23,0.07-0.31,0.07-0.31
			c0.04-0.26,0.04-0.29,0.04-0.29c0.02-0.24,0.02-0.28,0.02-0.28c0-0.23,0-0.26,0-0.26c-0.03-0.25-0.03-0.28-0.03-0.28
			c-0.06-0.25-0.07-0.28-0.07-0.28c-0.11-0.25-0.12-0.27-0.12-0.27c-0.19-0.25-0.2-0.27-0.2-0.27c-0.26-0.23-0.27-0.24-0.27-0.24
			c-0.25-0.16-0.29-0.18-0.29-0.18c-0.25-0.12-0.29-0.13-0.29-0.13c-0.22-0.08-0.27-0.1-0.27-0.1c-0.24-0.07-0.29-0.08-0.29-0.08
			c-0.25-0.06-0.36-0.08-0.36-0.08c-0.21-0.04-0.32-0.06-0.32-0.06c-0.88-0.13-1.43-0.14-2.14-0.16c-1.39-0.01-4.25-0.07-5.63-0.12
			l-0.48-0.01c1.51-1.28,3.19-2.75,4.59-4.13c1.28-1.26,3.66-3.72,5.02-4.82c0.21-0.19,0.28-0.26,0.28-0.26
			c0.22-0.23,0.25-0.26,0.25-0.26c0.19-0.24,0.22-0.27,0.22-0.27c0.16-0.26,0.17-0.28,0.17-0.28c0.12-0.26,0.12-0.28,0.12-0.28
			c0.07-0.24,0.08-0.27,0.08-0.27c0.04-0.25,0.05-0.28,0.05-0.28c0.02-0.23,0.02-0.26,0.02-0.26c0.01-0.21,0-0.28,0-0.28
			c-0.01-0.22-0.01-0.29-0.01-0.29c-0.02-0.23-0.03-0.3-0.03-0.3c-0.18-1.34-0.51-2.33-0.88-3.52c-1.29-3.9-3.7-10.12-5.15-14.04
			c-2.37-6.14-5.1-12.87-7.95-18.79c-1.83-3.79-3.84-7.62-6.18-11.12c-2.45-3.67-5.38-7.07-8.81-9.87c-4.15-3.4-8.92-6.03-13.8-8.25
			c-8.15-3.66-16.98-5.94-25.91-6.36c-2.76-1.06-5.44-2.41-7.85-4.15c-2.89-2.1-6.34-4.61-9.4-6.39
			c-5.39-3.22-11.52-6.15-17.21-8.81c-6.32-2.9-13.39-5.98-19.9-8.4c-4-1.52-9.93-3.24-13.95-4.72c-2.1-0.8-5.16-2.14-7.29-2.39
			c-0.25-0.03-0.38-0.04-0.38-0.04c-0.25-0.02-0.38-0.03-0.38-0.03c-0.25-0.01-0.36-0.01-0.36-0.01c-1.88-0.04-3.83,0.52-5.5,0.51
			c-0.19,0-0.29-0.01-0.29-0.01c-0.19-0.01-0.28-0.02-0.28-0.02c-0.23-0.03-0.28-0.03-0.28-0.03c-0.22-0.04-0.26-0.05-0.26-0.05
			c-0.24-0.06-0.32-0.08-0.32-0.08c-0.24-0.07-0.32-0.1-0.32-0.1c-0.23-0.08-0.31-0.12-0.31-0.12c-0.37-0.15-0.52-0.22-0.69-0.3
			c-0.35-0.17-1.38-0.69-1.68-0.81c-0.24-0.1-0.32-0.13-0.32-0.13c-0.24-0.09-0.32-0.11-0.32-0.11c-0.25-0.07-0.33-0.1-0.33-0.1
			c-0.26-0.06-0.34-0.08-0.34-0.08c-0.22-0.04-0.26-0.04-0.26-0.04c-0.21-0.02-0.26-0.03-0.26-0.03c-0.24-0.01-0.3-0.02-0.3-0.02
			c-0.36-0.01-0.48,0-0.62,0.01c-1.93,0.14-3.96,0.81-5.84,1.04c-1.89,0.28-3.55,0.05-5.27-0.41c-1.3-0.34-3.41-1-4.7-1.09
			c-0.21-0.01-0.27-0.02-0.27-0.02c-0.2-0.01-0.27-0.01-0.27-0.01c-0.2,0-0.27,0-0.27,0c-0.2,0.01-0.27,0.02-0.27,0.02
			c-0.2,0.02-0.26,0.03-0.26,0.03c-0.26,0.04-0.31,0.05-0.31,0.05c-0.22,0.05-0.28,0.06-0.28,0.06c-0.22,0.06-0.27,0.08-0.27,0.08
			c-0.21,0.07-0.27,0.09-0.27,0.09c-0.21,0.08-0.32,0.13-0.32,0.13c-0.21,0.09-0.31,0.14-0.31,0.14c-1.2,0.58-2.3,1.43-3.39,1.96
			c-0.2,0.09-0.3,0.14-0.3,0.14c-0.25,0.1-0.3,0.12-0.3,0.12c-0.25,0.09-0.3,0.1-0.3,0.1c-0.25,0.07-0.3,0.08-0.3,0.08
			c-0.25,0.05-0.3,0.06-0.3,0.06c-0.25,0.03-0.3,0.03-0.3,0.03c-0.25,0.01-0.3,0.01-0.3,0.01c-0.25-0.01-0.3-0.02-0.3-0.02
			c-0.26-0.03-0.31-0.03-0.31-0.03c-0.21-0.03-0.31-0.05-0.31-0.05c-1.13-0.22-2.36-0.7-3.38-0.9c-0.21-0.04-0.32-0.06-0.32-0.06
			c-0.21-0.03-0.26-0.04-0.26-0.04c-0.21-0.02-0.26-0.02-0.26-0.02c-0.21-0.01-0.26-0.01-0.26-0.01c-0.21,0-0.26,0.01-0.26,0.01
			c-0.21,0.02-0.26,0.02-0.26,0.02c-0.21,0.03-0.26,0.04-0.26,0.04c-0.22,0.05-0.28,0.06-0.28,0.06c-0.22,0.07-0.27,0.08-0.27,0.08
			c-0.22,0.08-0.27,0.1-0.27,0.1c-0.22,0.09-0.27,0.12-0.27,0.12c-0.22,0.11-0.32,0.16-0.32,0.16c-0.22,0.12-0.32,0.18-0.32,0.18
			c-0.88,0.53-1.58,1.06-2.34,1.58c-0.33,0.23-0.61,0.4-0.73,0.48c-0.21,0.12-0.31,0.18-0.31,0.18c-0.21,0.11-0.31,0.16-0.31,0.16
			c-0.21,0.1-0.26,0.12-0.26,0.12c-0.21,0.08-0.26,0.1-0.26,0.1c-0.21,0.07-0.26,0.09-0.26,0.09c-0.21,0.05-0.26,0.07-0.26,0.07
			c-0.24,0.04-0.26,0.04-0.26,0.04c-0.24,0.02-0.29,0.02-0.29,0.02c-0.24,0-0.29-0.01-0.29-0.01c-0.24-0.02-0.29-0.03-0.29-0.03
			c-0.24-0.04-0.29-0.05-0.29-0.05c-0.24-0.06-0.29-0.07-0.29-0.07c-0.24-0.07-0.34-0.11-0.34-0.11c-0.19-0.07-0.29-0.11-0.29-0.11
			c-1.09-0.45-1.94-1.02-2.92-1.5c-0.18-0.09-0.27-0.13-0.27-0.13c-0.18-0.08-0.27-0.12-0.27-0.12c-0.18-0.07-0.27-0.1-0.27-0.1
			c-0.22-0.07-0.27-0.08-0.27-0.08c-0.23-0.06-0.27-0.07-0.27-0.07c-0.23-0.04-0.27-0.05-0.27-0.05c-0.23-0.03-0.26-0.03-0.26-0.03
			c-0.22-0.01-0.26-0.01-0.26-0.01c-0.22,0-0.3,0-0.3,0c-0.22,0.02-0.29,0.02-0.29,0.02c-0.22,0.03-0.29,0.04-0.29,0.04
			c-0.22,0.04-0.29,0.06-0.29,0.06c-0.22,0.06-0.29,0.08-0.29,0.08c-0.22,0.07-0.29,0.09-0.29,0.09c-0.22,0.08-0.29,0.11-0.29,0.11
			c-1.58,0.64-2.99,1.78-4.41,2.49c-0.37,0.19-0.66,0.31-0.86,0.39c-0.2,0.07-0.29,0.11-0.29,0.11c-0.2,0.07-0.3,0.1-0.3,0.1
			c-0.2,0.06-0.31,0.08-0.31,0.08c-0.21,0.05-0.31,0.07-0.31,0.07c-0.21,0.04-0.26,0.05-0.26,0.05c-0.21,0.03-0.27,0.03-0.27,0.03
			c-0.22,0.02-0.27,0.02-0.27,0.02c-0.22,0.01-0.28,0.01-0.28,0.01c-0.24,0-0.3-0.01-0.3-0.01c-0.25-0.02-0.32-0.02-0.32-0.02
			c-1.77-0.18-3.63-0.95-5.31-1.25c-0.25-0.04-0.37-0.06-0.37-0.06c-0.24-0.03-0.3-0.03-0.3-0.03c-0.24-0.02-0.3-0.02-0.3-0.02
			c-0.23,0-0.29,0-0.29,0c-0.22,0.01-0.28,0.02-0.28,0.02c-0.22,0.03-0.27,0.04-0.27,0.04c-0.26,0.06-0.29,0.07-0.29,0.07
			c-0.26,0.09-0.28,0.1-0.28,0.1c-0.23,0.11-0.27,0.13-0.27,0.13c-0.24,0.14-0.27,0.17-0.27,0.17c-0.23,0.17-0.26,0.2-0.26,0.2
			c-0.25,0.22-0.32,0.29-0.32,0.29c-0.62,0.61-1.17,1.36-1.61,1.85c-0.21,0.23-0.28,0.3-0.28,0.3c-0.22,0.22-0.29,0.28-0.29,0.28
			c-0.23,0.2-0.27,0.23-0.27,0.23c-0.24,0.18-0.28,0.21-0.28,0.21c-0.25,0.16-0.29,0.18-0.29,0.18c-0.22,0.11-0.26,0.13-0.26,0.13
			c-0.26,0.1-0.28,0.11-0.28,0.11c-0.22,0.06-0.27,0.08-0.27,0.08c-0.22,0.05-0.28,0.06-0.28,0.06c-0.23,0.03-0.29,0.04-0.29,0.04
			c-0.24,0.02-0.3,0.02-0.3,0.02c-0.18,0-0.31,0-0.31,0c-0.25-0.01-0.38-0.01-0.38-0.01c-1.21-0.07-2.53-0.35-3.66-0.43
			c-0.25-0.01-0.37-0.02-0.37-0.02c-0.24,0-0.3,0-0.3,0c-0.23,0.01-0.29,0.01-0.29,0.01c-0.22,0.02-0.28,0.03-0.28,0.03
			c-0.21,0.04-0.27,0.05-0.27,0.05c-0.25,0.07-0.28,0.07-0.28,0.07c-0.24,0.09-0.26,0.1-0.26,0.1c-0.24,0.13-0.26,0.14-0.26,0.14
			c-0.25,0.18-0.29,0.21-0.29,0.21c-0.24,0.23-0.27,0.27-0.27,0.27c-0.2,0.23-0.22,0.27-0.22,0.27c-0.18,0.25-0.23,0.33-0.23,0.33
			c-0.37,0.57-0.71,1.26-0.96,1.67c-0.14,0.22-0.19,0.3-0.19,0.3c-0.17,0.24-0.2,0.28-0.2,0.28c-0.21,0.25-0.24,0.28-0.24,0.28
			c-0.26,0.24-0.27,0.25-0.27,0.25c-0.25,0.16-0.27,0.17-0.27,0.17c-0.25,0.11-0.27,0.11-0.27,0.11c-0.25,0.06-0.27,0.06-0.27,0.06
			c-0.22,0.02-0.27,0.03-0.27,0.03c-0.23,0-0.28,0-0.28,0c-0.24-0.02-0.29-0.02-0.29-0.02c-0.25-0.04-0.36-0.05-0.36-0.05
			c-1.08-0.2-2.14-0.61-3.08-0.81c-0.21-0.05-0.32-0.07-0.32-0.07c-0.21-0.03-0.26-0.04-0.26-0.04c-0.25-0.03-0.3-0.03-0.3-0.03
			c-0.25-0.01-0.29-0.01-0.29-0.01c-0.26,0.01-0.28,0.01-0.28,0.01c-0.24,0.04-0.27,0.04-0.27,0.04c-0.25,0.07-0.27,0.08-0.27,0.08
			c-0.23,0.11-0.27,0.13-0.27,0.13c-0.25,0.16-0.28,0.18-0.28,0.18c-0.26,0.22-0.29,0.25-0.29,0.25c-0.24,0.26-0.29,0.32-0.29,0.32
			c-0.29,0.34-0.67,0.88-0.84,1.1c-0.2,0.26-0.25,0.32-0.25,0.32c-0.2,0.24-0.26,0.3-0.26,0.3c-0.24,0.24-0.27,0.27-0.27,0.27
			c-0.26,0.21-0.29,0.23-0.29,0.23c-0.25,0.14-0.27,0.15-0.27,0.15c-0.25,0.1-0.27,0.1-0.27,0.1c-0.25,0.06-0.27,0.06-0.27,0.06
			c-0.24,0.03-0.28,0.03-0.28,0.03c-0.23,0-0.27,0-0.27,0c-0.24-0.01-0.28-0.02-0.28-0.02c-0.24-0.03-0.34-0.04-0.34-0.04
			c-1.06-0.17-2.24-0.55-3.18-0.68c-0.21-0.03-0.32-0.04-0.32-0.04c-0.21-0.02-0.26-0.02-0.26-0.02c-0.26-0.01-0.31-0.01-0.31-0.01
			c-0.25,0.01-0.3,0.02-0.3,0.02c-0.24,0.03-0.29,0.04-0.29,0.04c-0.24,0.06-0.26,0.06-0.26,0.06c-0.21,0.07-0.26,0.09-0.26,0.09
			c-0.23,0.1-0.28,0.12-0.28,0.12c-0.22,0.12-0.27,0.15-0.27,0.15c-0.22,0.14-0.26,0.17-0.26,0.17c-0.26,0.19-0.34,0.26-0.34,0.26
			c-0.25,0.21-0.33,0.29-0.33,0.29c-0.62,0.57-1.27,1.29-1.71,1.7c-0.25,0.24-0.34,0.31-0.34,0.31c-0.17,0.15-0.26,0.22-0.26,0.22
			c-0.18,0.14-0.27,0.21-0.27,0.21c-0.23,0.16-0.28,0.19-0.28,0.19c-0.24,0.15-0.29,0.17-0.29,0.17c-0.25,0.13-0.3,0.15-0.3,0.15
			c-0.26,0.11-0.31,0.13-0.31,0.13c-0.23,0.07-0.28,0.09-0.28,0.09c-0.23,0.06-0.29,0.07-0.29,0.07c-0.24,0.04-0.3,0.05-0.3,0.05
			c-0.24,0.03-0.31,0.04-0.31,0.04c-0.25,0.02-0.38,0.02-0.38,0.02c-0.25,0.01-0.38,0.01-0.38,0.01c-1.3,0-2.95-0.3-4.15-0.3
			c-0.24,0-0.36,0.01-0.36,0.01c-0.23,0.01-0.29,0.02-0.29,0.02c-0.22,0.03-0.28,0.03-0.28,0.03c-0.21,0.04-0.27,0.05-0.27,0.05
			c-0.26,0.07-0.31,0.08-0.31,0.08c-0.24,0.09-0.28,0.11-0.28,0.11c-0.24,0.12-0.28,0.15-0.28,0.15c-0.22,0.15-0.26,0.17-0.26,0.17
			c-0.25,0.2-0.28,0.23-0.28,0.23c-0.23,0.22-0.29,0.29-0.29,0.29c-0.56,0.61-1.05,1.36-1.44,1.85c-0.19,0.23-0.25,0.31-0.25,0.31
			c-0.2,0.22-0.26,0.29-0.26,0.29c-0.24,0.24-0.28,0.28-0.28,0.28c-0.22,0.19-0.26,0.22-0.26,0.22c-0.24,0.17-0.28,0.2-0.28,0.2
			c-0.25,0.15-0.3,0.18-0.3,0.18c-0.26,0.12-0.29,0.14-0.29,0.14c-0.23,0.09-0.3,0.11-0.3,0.11c-0.21,0.06-0.28,0.08-0.28,0.08
			c-0.22,0.05-0.29,0.06-0.29,0.06c-0.22,0.04-0.3,0.05-0.3,0.05c-0.23,0.03-0.31,0.04-0.31,0.04c-2.92,0.21-5.94-0.69-8.79-0.45
			c-0.26,0.03-0.35,0.04-0.35,0.04c-0.25,0.04-0.34,0.05-0.34,0.05c-0.22,0.04-0.29,0.05-0.29,0.05c-0.2,0.05-0.27,0.06-0.27,0.06
			c-0.2,0.05-0.33,0.09-0.33,0.09c-0.26,0.08-0.38,0.12-0.38,0.12c-0.25,0.09-0.37,0.14-0.37,0.14c-1.47,0.59-2.67,1.48-3.96,2.06
			c-0.21,0.09-0.32,0.13-0.32,0.13c-0.21,0.08-0.26,0.1-0.26,0.1c-0.21,0.07-0.27,0.08-0.27,0.08c-0.21,0.06-0.27,0.07-0.27,0.07
			c-0.22,0.04-0.27,0.05-0.27,0.05c-0.22,0.03-0.28,0.04-0.28,0.04c-0.22,0.02-0.27,0.02-0.27,0.02c-0.22,0-0.28,0-0.28,0
			c-0.22-0.01-0.28-0.01-0.28-0.01c-0.23-0.02-0.34-0.04-0.34-0.04c-0.23-0.03-0.34-0.05-0.34-0.05c-0.74-0.12-2.19-0.54-2.7-0.67
			c-0.24-0.06-0.47-0.11-0.47-0.11c-0.35-0.08-0.59-0.11-0.7-0.13c-0.23-0.03-0.35-0.04-0.35-0.04c-0.23-0.02-0.29-0.02-0.29-0.02
			c-0.23-0.01-0.28-0.01-0.28-0.01c-0.23,0-0.28,0.01-0.28,0.01c-0.22,0.02-0.28,0.02-0.28,0.02c-0.22,0.03-0.27,0.04-0.27,0.04
			c-0.22,0.05-0.27,0.06-0.27,0.06c-0.24,0.07-0.3,0.09-0.3,0.09c-0.23,0.09-0.29,0.12-0.29,0.12c-0.23,0.11-0.29,0.14-0.29,0.14
			c-0.23,0.13-0.28,0.16-0.28,0.16c-0.33,0.21-0.44,0.29-0.56,0.38c-1.23,0.94-2.46,2.27-3.48,3.02c-0.24,0.18-0.36,0.26-0.36,0.26
			c-0.25,0.17-0.31,0.21-0.31,0.21c-0.25,0.15-0.31,0.19-0.31,0.19c-0.26,0.14-0.32,0.17-0.32,0.17c-0.2,0.09-0.26,0.12-0.26,0.12
			c-0.2,0.08-0.27,0.11-0.27,0.11c-0.2,0.07-0.27,0.1-0.27,0.1c-0.21,0.06-0.28,0.08-0.28,0.08c-0.22,0.05-0.3,0.07-0.3,0.07
			c-0.23,0.04-0.3,0.05-0.3,0.05c-0.23,0.03-0.31,0.03-0.31,0.03c-0.24,0.02-0.31,0.02-0.31,0.02c-0.24,0.01-0.32,0.01-0.32,0.01
			c-2.14-0.02-4.11-0.7-6.16-0.83c-0.23-0.01-0.3-0.01-0.3-0.01c-0.22,0-0.3,0-0.3,0c-0.22,0.01-0.29,0.01-0.29,0.01
			c-0.21,0.02-0.29,0.02-0.29,0.02c-0.21,0.03-0.28,0.04-0.28,0.04c-0.2,0.04-0.27,0.05-0.27,0.05c-0.23,0.06-0.26,0.07-0.26,0.07
			c-0.25,0.09-0.28,0.1-0.28,0.1c-0.25,0.11-0.3,0.14-0.3,0.14c-0.21,0.12-0.26,0.15-0.26,0.15c-0.25,0.17-0.3,0.21-0.3,0.21
			c-0.24,0.2-0.29,0.24-0.29,0.24c-0.23,0.21-0.28,0.26-0.28,0.26c-0.22,0.23-0.31,0.33-0.31,0.33c-0.74,0.83-1.53,1.98-2.11,2.63
			c-0.18,0.2-0.27,0.29-0.27,0.29c-0.23,0.23-0.28,0.28-0.28,0.28c-0.24,0.22-0.29,0.26-0.29,0.26c-0.25,0.2-0.3,0.24-0.3,0.24
			c-0.26,0.18-0.31,0.21-0.31,0.21c-0.22,0.12-0.27,0.15-0.27,0.15c-0.25,0.12-0.28,0.13-0.28,0.13c-0.26,0.09-0.29,0.1-0.29,0.1
			c-0.25,0.07-0.29,0.08-0.29,0.08c-0.19,0.04-0.26,0.05-0.26,0.05c-0.23,0.03-0.31,0.04-0.31,0.04c-0.24,0.02-0.32,0.02-0.32,0.02
			c-0.24,0.01-0.32,0.01-0.32,0.01c-0.25-0.01-0.33-0.01-0.33-0.01c-2.53-0.16-4.94-1.14-7.39-1.26c-0.26-0.01-0.35-0.01-0.35-0.01
			c-0.26,0-0.34,0.01-0.34,0.01c-0.25,0.01-0.33,0.02-0.33,0.02c-0.24,0.03-0.32,0.04-0.32,0.04c-0.24,0.04-0.32,0.06-0.32,0.06
			c-0.21,0.05-0.28,0.07-0.28,0.07c-0.2,0.06-0.27,0.08-0.27,0.08c-0.26,0.1-0.32,0.13-0.32,0.13c-0.25,0.12-0.31,0.15-0.31,0.15
			c-0.24,0.13-0.3,0.16-0.3,0.16c-0.24,0.14-0.3,0.18-0.3,0.18c-0.17,0.12-0.29,0.2-0.29,0.2c-0.23,0.17-0.34,0.25-0.34,0.25
			c-0.87,0.68-1.83,1.64-2.46,2.17c-0.22,0.18-0.32,0.27-0.32,0.27c-0.22,0.17-0.33,0.25-0.33,0.25c-0.22,0.16-0.28,0.19-0.28,0.19
			c-0.23,0.15-0.28,0.18-0.28,0.18c-0.23,0.13-0.29,0.16-0.29,0.16c-0.24,0.12-0.3,0.14-0.3,0.14c-0.24,0.1-0.31,0.12-0.31,0.12
			c-0.25,0.08-0.31,0.1-0.31,0.1c-0.2,0.05-0.27,0.07-0.27,0.07c-0.22,0.04-0.29,0.05-0.29,0.05c-0.22,0.03-0.3,0.03-0.3,0.03
			c-0.23,0.01-0.3,0.02-0.3,0.02c-0.23,0-0.31,0-0.31,0c-0.23-0.01-0.31-0.01-0.31-0.01c-2.22-0.16-4.43-1.07-6.56-1.3
			c-0.25-0.02-0.33-0.03-0.33-0.03c-0.24-0.02-0.32-0.02-0.32-0.02c-0.24-0.01-0.32-0.01-0.32-0.01c-0.23,0.01-0.31,0.01-0.31,0.01
			c-0.23,0.02-0.31,0.03-0.31,0.03c-0.23,0.03-0.3,0.04-0.3,0.04c-0.22,0.04-0.29,0.06-0.29,0.06c-0.2,0.05-0.27,0.07-0.27,0.07
			c-0.2,0.07-0.27,0.09-0.27,0.09c-0.26,0.11-0.32,0.14-0.32,0.14c-0.25,0.12-0.32,0.16-0.32,0.16c-0.25,0.14-0.31,0.18-0.31,0.18
			c-0.24,0.15-0.3,0.2-0.3,0.2c-0.24,0.17-0.36,0.25-0.36,0.25c-1.28,0.97-2.41,2.24-3.54,3.1c-0.24,0.18-0.36,0.26-0.36,0.26
			c-0.24,0.16-0.31,0.2-0.31,0.2c-0.25,0.15-0.31,0.19-0.31,0.19c-0.26,0.14-0.32,0.17-0.32,0.17c-0.2,0.09-0.26,0.12-0.26,0.12
			c-0.2,0.08-0.27,0.1-0.27,0.1c-0.2,0.07-0.28,0.09-0.28,0.09c-0.22,0.06-0.29,0.08-0.29,0.08c-0.22,0.05-0.3,0.06-0.3,0.06
			c-0.23,0.03-0.3,0.04-0.3,0.04c-0.23,0.02-0.31,0.03-0.31,0.03c-0.24,0.01-0.31,0.02-0.31,0.02c-1.69,0.04-3.32-0.35-4.92-0.59
			c-0.6-0.1-1.45-0.19-1.95-0.2c-0.23,0-0.31,0-0.31,0c-0.23,0.01-0.3,0.01-0.3,0.01c-0.22,0.01-0.3,0.02-0.3,0.02
			c-0.22,0.02-0.29,0.03-0.29,0.03c-0.22,0.04-0.29,0.05-0.29,0.05c-0.21,0.05-0.28,0.07-0.28,0.07c-0.25,0.07-0.31,0.1-0.31,0.1
			c-0.24,0.09-0.3,0.12-0.3,0.12c-0.23,0.11-0.29,0.13-0.29,0.13c-0.23,0.12-0.29,0.15-0.29,0.15c-0.22,0.13-0.28,0.17-0.28,0.17
			c-0.16,0.11-0.27,0.18-0.27,0.18c-0.22,0.15-0.32,0.23-0.32,0.23c-1.03,0.79-2.1,1.86-2.95,2.47c-0.23,0.16-0.34,0.24-0.34,0.24
			c-0.23,0.15-0.29,0.19-0.29,0.19c-0.24,0.14-0.3,0.17-0.3,0.17c-0.25,0.13-0.31,0.16-0.31,0.16c-0.25,0.12-0.32,0.14-0.32,0.14
			c-0.2,0.08-0.26,0.1-0.26,0.1c-0.2,0.07-0.27,0.09-0.27,0.09c-0.22,0.06-0.3,0.08-0.3,0.08c-0.25,0.05-0.33,0.07-0.33,0.07
			c-0.25,0.04-0.34,0.05-0.34,0.05c-3.01,0.33-5.85-0.69-8.77-0.69c-0.25,0.01-0.33,0.01-0.33,0.01c-0.24,0.02-0.32,0.02-0.32,0.02
			c-0.23,0.03-0.31,0.04-0.31,0.04c-0.22,0.04-0.29,0.05-0.29,0.05c-0.25,0.06-0.28,0.07-0.28,0.07c-0.23,0.07-0.27,0.09-0.27,0.09
			c-0.24,0.1-0.29,0.12-0.29,0.12c-0.22,0.12-0.27,0.14-0.27,0.14c-0.25,0.16-0.3,0.19-0.3,0.19c-0.24,0.18-0.28,0.21-0.28,0.21
			c-0.23,0.2-0.3,0.26-0.3,0.26c-0.22,0.21-0.29,0.28-0.29,0.28c-0.45,0.48-0.92,1.05-1.3,1.45c-0.21,0.22-0.29,0.29-0.29,0.29
			c-0.22,0.21-0.3,0.27-0.3,0.27c-0.24,0.19-0.28,0.22-0.28,0.22c-0.25,0.17-0.3,0.2-0.3,0.2c-0.22,0.13-0.27,0.15-0.27,0.15
			c-0.24,0.11-0.29,0.13-0.29,0.13c-0.25,0.1-0.31,0.11-0.31,0.11c-0.26,0.07-0.32,0.09-0.32,0.09c-0.2,0.04-0.27,0.05-0.27,0.05
			c-0.21,0.03-0.28,0.04-0.28,0.04c-0.22,0.02-0.29,0.03-0.29,0.03c-2.25,0.14-4.34-0.46-6.52-0.49c-0.26,0.01-0.32,0.01-0.32,0.01
			c-0.24,0.02-0.3,0.02-0.3,0.02c-0.25,0.04-0.28,0.04-0.28,0.04c-0.25,0.06-0.28,0.07-0.28,0.07c-0.24,0.1-0.27,0.11-0.27,0.11
			c-0.25,0.16-0.26,0.17-0.26,0.17c-0.24,0.24-0.25,0.26-0.25,0.26c-0.17,0.25-0.19,0.3-0.19,0.3c-0.21,0.4-0.19,0.39-0.34,0.71
			c-0.11,0.24-0.14,0.28-0.14,0.28c-0.14,0.25-0.16,0.27-0.16,0.27c-0.19,0.24-0.21,0.26-0.21,0.26c-0.26,0.22-0.27,0.23-0.27,0.23
			c-0.26,0.14-0.29,0.15-0.29,0.15c-0.24,0.07-0.27,0.08-0.27,0.08c-0.24,0.04-0.27,0.05-0.27,0.05c-0.26,0.02-0.34,0.03-0.34,0.03
			c-0.24,0-0.33,0-0.33,0c-1.04-0.04-1.7-0.18-2.6-0.34c-2.28-0.45-5.51-1.28-7.75-1.2c-0.21,0.01-0.32,0.02-0.32,0.02
			c-0.21,0.02-0.31,0.03-0.31,0.03c-0.2,0.02-0.3,0.04-0.3,0.04c-0.24,0.04-0.29,0.05-0.29,0.05c-0.23,0.05-0.28,0.07-0.28,0.07
			c-0.22,0.07-0.26,0.08-0.26,0.08c-0.21,0.08-0.27,0.1-0.27,0.1c-0.23,0.11-0.29,0.14-0.29,0.14c-0.22,0.13-0.27,0.16-0.27,0.16
			c-0.26,0.18-0.31,0.22-0.31,0.22c-0.24,0.2-0.29,0.24-0.29,0.24c-0.22,0.21-0.27,0.26-0.27,0.26c-0.21,0.23-0.29,0.32-0.29,0.32
			c-0.16,0.19-0.23,0.29-0.23,0.29c-0.25,0.33-0.31,0.42-0.43,0.61c-0.21,0.32-0.9,1.37-1.08,1.59c-0.14,0.18-0.21,0.26-0.21,0.26
			c-0.22,0.24-0.25,0.28-0.25,0.28c-0.23,0.22-0.27,0.25-0.27,0.25c-0.24,0.19-0.26,0.2-0.26,0.2c-0.24,0.14-0.26,0.15-0.26,0.15
			c-0.25,0.11-0.28,0.12-0.28,0.12c-0.26,0.07-0.28,0.08-0.28,0.08c-0.25,0.04-0.28,0.05-0.28,0.05c-0.23,0.02-0.29,0.02-0.29,0.02
			c-0.24,0-0.3,0-0.3,0c-0.25-0.02-0.31-0.02-0.31-0.02c-0.81-0.1-1.26-0.23-1.9-0.4c-0.67-0.19-2.12-0.64-2.76-0.77
			c-0.26-0.05-0.38-0.07-0.38-0.07c-0.25-0.04-0.31-0.04-0.31-0.04c-0.24-0.02-0.3-0.03-0.3-0.03c-0.23-0.01-0.28-0.01-0.28-0.01
			c-0.24,0.01-0.27,0.02-0.27,0.02c-0.25,0.04-0.28,0.05-0.28,0.05c-0.24,0.07-0.26,0.08-0.26,0.08c-0.25,0.12-0.27,0.13-0.27,0.13
			c-0.26,0.19-0.28,0.21-0.28,0.21c-0.25,0.25-0.28,0.28-0.28,0.28c-0.16,0.2-0.21,0.26-0.21,0.26c-0.29,0.4-0.61,0.97-0.74,1.18
			c-0.16,0.26-0.21,0.32-0.21,0.32c-0.17,0.24-0.19,0.27-0.19,0.27c-0.21,0.25-0.23,0.27-0.23,0.27c-0.26,0.23-0.28,0.25-0.28,0.25
			c-0.26,0.16-0.27,0.17-0.27,0.17c-0.25,0.1-0.27,0.1-0.27,0.1c-0.24,0.06-0.26,0.06-0.26,0.06c-0.24,0.03-0.28,0.03-0.28,0.03
			c-0.23,0-0.27,0-0.27,0c-0.24-0.01-0.29-0.02-0.29-0.02c-0.2-0.02-0.3-0.03-0.3-0.03c-0.78-0.11-1.97-0.41-2.55-0.51
			c-0.21-0.04-0.32-0.05-0.32-0.05c-0.21-0.03-0.31-0.04-0.31-0.04c-0.25-0.02-0.3-0.02-0.3-0.02c-0.24-0.01-0.29,0-0.29,0
			c-0.24,0.01-0.28,0.02-0.28,0.02c-0.25,0.04-0.27,0.04-0.27,0.04c-0.25,0.07-0.27,0.07-0.27,0.07c-0.25,0.1-0.26,0.11-0.26,0.11
			c-0.26,0.16-0.29,0.18-0.29,0.18c-0.25,0.21-0.28,0.24-0.28,0.24c-0.24,0.25-0.26,0.28-0.26,0.28c-0.17,0.21-0.22,0.28-0.22,0.28
			c-0.38,0.52-0.79,1.19-1.04,1.55c-0.16,0.23-0.22,0.3-0.22,0.3c-0.2,0.25-0.23,0.28-0.23,0.28c-0.25,0.26-0.28,0.29-0.28,0.29
			c-0.23,0.2-0.27,0.22-0.27,0.22c-0.25,0.17-0.27,0.18-0.27,0.18c-0.26,0.12-0.28,0.13-0.28,0.13c-0.26,0.09-0.28,0.09-0.28,0.09
			c-0.22,0.05-0.27,0.06-0.27,0.06c-0.21,0.03-0.26,0.03-0.26,0.03c-0.22,0.01-0.27,0.02-0.27,0.02c-0.22,0-0.28,0-0.28,0
			c-0.23-0.01-0.35-0.02-0.35-0.02c-1.16-0.09-2.42-0.43-3.45-0.55c-0.22-0.02-0.32-0.03-0.32-0.03c-0.26-0.01-0.31-0.01-0.31-0.01
			c-0.24,0-0.29,0.01-0.29,0.01c-0.25,0.03-0.27,0.03-0.27,0.03c-0.25,0.05-0.27,0.06-0.27,0.06c-0.26,0.1-0.27,0.11-0.27,0.11
			c-0.25,0.18-0.27,0.19-0.27,0.19c-0.22,0.25-0.24,0.28-0.24,0.28c-0.16,0.26-0.17,0.29-0.17,0.29c-0.12,0.26-0.15,0.32-0.15,0.32
			c-0.14,0.35-0.34,0.88-0.44,1.11c-0.11,0.24-0.14,0.29-0.14,0.29c-0.14,0.25-0.16,0.27-0.16,0.27c-0.18,0.24-0.2,0.27-0.2,0.27
			c-0.25,0.23-0.27,0.24-0.27,0.24c-0.26,0.14-0.28,0.15-0.28,0.15c-0.24,0.08-0.26,0.09-0.26,0.09c-0.22,0.05-0.27,0.05-0.27,0.05
			c-0.24,0.02-0.29,0.03-0.29,0.03c-0.26,0.01-0.31,0.01-0.31,0.01c-0.21-0.01-0.32-0.01-0.32-0.01c-1.27-0.09-2.7-0.44-3.83-0.52
			c-0.23-0.01-0.34-0.02-0.34-0.02c-0.22,0-0.27,0-0.27,0c-0.26,0.01-0.31,0.02-0.31,0.02c-0.25,0.03-0.29,0.04-0.29,0.04
			c-0.23,0.05-0.26,0.06-0.26,0.06c-0.24,0.09-0.27,0.1-0.27,0.1c-0.25,0.13-0.28,0.15-0.28,0.15c-0.25,0.18-0.28,0.2-0.28,0.2
			c-0.26,0.23-0.31,0.28-0.31,0.28c-0.24,0.25-0.28,0.31-0.28,0.31c-0.18,0.22-0.63,0.77-0.63,0.77c-0.19,0.22-0.24,0.27-0.24,0.27
			c-0.25,0.26-0.3,0.31-0.3,0.31c-0.25,0.21-0.28,0.24-0.28,0.24c-0.24,0.17-0.27,0.19-0.27,0.19c-0.23,0.13-0.27,0.15-0.27,0.15
			c-0.25,0.11-0.3,0.12-0.3,0.12c-0.23,0.07-0.27,0.09-0.27,0.09c-0.19,0.05-0.29,0.07-0.29,0.07c-0.2,0.04-0.3,0.06-0.3,0.06
			c-1.09,0.18-2.36,0.19-3.25,0.36c-0.24,0.05-0.28,0.06-0.28,0.06c-0.22,0.06-0.27,0.07-0.27,0.07c-0.25,0.09-0.29,0.1-0.29,0.1
			c-0.25,0.12-0.26,0.13-0.26,0.13c-0.25,0.17-0.27,0.18-0.27,0.18c-0.25,0.25-0.26,0.26-0.26,0.26c-0.15,0.23-0.17,0.27-0.17,0.27
			c-0.11,0.23-0.12,0.27-0.12,0.27c-0.08,0.25-0.1,0.29-0.1,0.29c-0.05,0.19-0.07,0.27-0.07,0.27c-0.12,0.58-0.16,0.98-0.23,1.48
			c-0.04,0.25-0.05,0.33-0.05,0.33c-0.05,0.24-0.07,0.32-0.07,0.32c-0.06,0.23-0.07,0.27-0.07,0.27c-0.09,0.25-0.1,0.29-0.1,0.29
			c-0.11,0.23-0.13,0.27-0.13,0.27c-0.17,0.25-0.18,0.27-0.18,0.27c-0.25,0.25-0.26,0.26-0.26,0.26c-0.25,0.16-0.28,0.18-0.28,0.18
			c-0.23,0.11-0.27,0.12-0.27,0.12c-0.25,0.09-0.29,0.1-0.29,0.1c-0.23,0.06-0.3,0.08-0.3,0.08c-0.36,0.07-0.47,0.09-0.64,0.11
			l-0.94,0.13c-0.22,0.03-0.29,0.05-0.29,0.05c-0.2,0.04-0.26,0.05-0.26,0.05c-0.24,0.07-0.26,0.08-0.26,0.08
			c-0.25,0.11-0.26,0.12-0.26,0.12c-0.24,0.25-0.24,0.26-0.24,0.26c-0.04,0.25-0.04,0.27-0.04,0.27c0.04,0.25,0.04,0.28,0.04,0.28
			c0.07,0.24,0.08,0.27,0.08,0.27c0.1,0.26,0.13,0.32,0.13,0.32c0.2,0.42,0.57,1.16,0.66,1.38c0.1,0.22,0.13,0.3,0.13,0.3
			c0.09,0.26,0.11,0.3,0.11,0.3c0.07,0.25,0.08,0.29,0.08,0.29c0.04,0.24,0.05,0.28,0.05,0.28c0.01,0.25,0.01,0.27,0.01,0.27
			c-0.04,0.25-0.04,0.26-0.04,0.26c-0.11,0.26-0.11,0.27-0.11,0.27c-0.18,0.26-0.2,0.28-0.2,0.28c-0.24,0.23-0.26,0.25-0.26,0.25
			c-0.23,0.17-0.28,0.21-0.28,0.21c-0.22,0.14-0.27,0.18-0.27,0.18c-0.22,0.13-0.87,0.5-0.87,0.5c-0.23,0.14-0.28,0.17-0.28,0.17
			c-0.26,0.2-0.26,0.21-0.26,0.21c-0.15,0.25-0.15,0.26-0.15,0.26c0.07,0.25,0.07,0.26,0.07,0.26c0.25,0.26,0.27,0.28,0.27,0.28
			c0.23,0.16,0.26,0.18,0.26,0.18c0.21,0.12,0.28,0.16,0.28,0.16c1.07,0.53,1.79,0.74,2.82,1.09c2.28,0.75,6.26,1.78,8.27,2.92
			c0.19,0.11,0.28,0.17,0.28,0.17c0.26,0.17,0.3,0.2,0.3,0.2c0.23,0.18,0.27,0.21,0.27,0.21c0.25,0.22,0.29,0.26,0.29,0.26
			c0.21,0.23,0.24,0.27,0.24,0.27c0.18,0.24,0.21,0.28,0.21,0.28c0.15,0.25,0.17,0.29,0.17,0.29c0.13,0.25,0.15,0.3,0.15,0.3
			c0.11,0.26,0.14,0.35,0.14,0.35c0.13,0.32,0.33,1,0.38,1.16c-4.97,0.81-10.05,1.46-15.09,1.24c-3.65-0.14-7.31-0.8-10.82-1.77
			c-3.83-1.05-7.7-2.51-11.37-4.04c-13.53-5.73-29.63-14.28-43.27-19.74c-6.76-2.74-14.2-5.38-21.14-7.66
			c-6.93-2.24-14.38-4.49-21.48-6.05c-3.1-0.67-6.33-1.26-9.49-1.56c-2.02-0.18-4.27-0.29-6.23,0.04c-0.26,0.05-0.38,0.08-0.38,0.08
			c-0.24,0.06-0.29,0.07-0.29,0.07c-0.22,0.07-0.27,0.08-0.27,0.08c-0.25,0.09-0.29,0.11-0.29,0.11c-0.26,0.12-0.28,0.14-0.28,0.14
			c-0.25,0.16-0.27,0.18-0.27,0.18c-0.25,0.25-0.26,0.26-0.26,0.26c-0.14,0.25-0.14,0.27-0.14,0.27c-0.05,0.25-0.06,0.26-0.06,0.26
			c0,0.25,0.01,0.26,0.01,0.26c0.05,0.24,0.06,0.26,0.06,0.26c0.09,0.24,0.1,0.27,0.1,0.27c0.12,0.23,0.14,0.27,0.14,0.27
			c0.15,0.23,0.18,0.27,0.18,0.27c0.18,0.24,0.21,0.28,0.21,0.28c0.18,0.22,0.23,0.27,0.23,0.27c0.21,0.22,0.26,0.28,0.26,0.28
			c0.23,0.23,0.36,0.34,0.36,0.34c1.38,1.23,2.66,2.05,4.15,3.04c3.2,2.02,7.91,4.95,10.96,7.04c3.94,2.6,23.15,16.8,27.37,19.88
			c4.08,3,8.38,6.25,12.13,9.63c1.45,1.31,2.91,2.72,4.21,4.18c1.6,1.81,2.84,3.52,3.64,5.59c1.04,2.65,0.84,5.57,0.03,8.11
			c-0.99,3.13-2.85,5.91-5,8.33c-1.12,1.27-2.4,2.53-3.63,3.7c-5.9,5.37-18.4,16.01-24.5,21.39c-7.49,6.36-15.54,12.59-23.94,17.7
			c-1.99,1.24-8.75,5.35-10.58,6.61c-1.77,1.19-3.88,2.7-5.21,4.19c-0.17,0.2-0.23,0.27-0.23,0.27c-0.16,0.2-0.21,0.26-0.21,0.26
			c-0.19,0.26-0.23,0.32-0.23,0.32c-0.16,0.25-0.2,0.31-0.2,0.31c-0.14,0.24-0.17,0.3-0.17,0.3c-0.11,0.23-0.13,0.29-0.13,0.29
			c-0.09,0.25-0.1,0.28-0.1,0.28c-0.06,0.24-0.06,0.26-0.06,0.26c-0.03,0.24-0.03,0.27-0.03,0.27c0.02,0.26,0.02,0.27,0.02,0.27
			c0.08,0.26,0.09,0.27,0.09,0.27c0.19,0.26,0.2,0.27,0.2,0.27c0.26,0.19,0.27,0.19,0.27,0.19c0.23,0.11,0.26,0.12,0.26,0.12
			c0.25,0.08,0.29,0.09,0.29,0.09c0.24,0.05,0.29,0.06,0.29,0.06c0.22,0.04,0.31,0.05,0.31,0.05c0.19,0.02,0.29,0.03,0.29,0.03
			c1.77,0.11,3.27-0.08,4.97-0.23c2.77-0.28,6.16-0.67,8.91-1.08c7.96-1.17,15.97-2.9,23.54-5.65c5.87-2.1,11.89-4.84,17.51-7.53
			c9.09-4.49,23.04-11.06,31.68-16.12c4.77-2.75,9.51-5.85,13.81-9.29c4.97-3.92,11.08-9.58,16.76-12.32
			c2.19-1.07,4.54-1.89,6.89-2.52c2.95-0.81,6.48-1.4,9.52-1.92c1.41-0.23,4.91-0.81,6.29-0.98c4-0.52,8.2-0.85,12.16-0.02
			c-0.64,1.28-1.27,2.94-2.03,4.01c-0.14,0.19-0.21,0.29-0.21,0.29c-0.15,0.19-0.23,0.29-0.23,0.29c-0.16,0.19-0.25,0.29-0.25,0.29
			c-0.18,0.19-0.27,0.29-0.27,0.29c-0.19,0.2-0.29,0.29-0.29,0.29c-0.21,0.2-0.32,0.29-0.32,0.29c-0.23,0.2-0.34,0.3-0.34,0.3
			c-2.08,1.71-5.55,3.49-7.85,4.87c-0.5,0.3-1.28,0.8-1.67,1.09c-0.26,0.2-0.32,0.25-0.32,0.25c-0.22,0.19-0.27,0.24-0.27,0.24
			c-0.24,0.25-0.26,0.27-0.26,0.27c-0.18,0.25-0.19,0.27-0.19,0.27c-0.09,0.25-0.09,0.27-0.09,0.27c0.05,0.26,0.06,0.27,0.06,0.27
			c0.25,0.25,0.27,0.26,0.27,0.26c0.25,0.14,0.29,0.16,0.29,0.16c0.23,0.1,0.31,0.13,0.31,0.13c0.97,0.34,2.26,0.61,3.04,0.91
			c0.23,0.09,0.27,0.11,0.27,0.11c0.25,0.12,0.29,0.14,0.29,0.14c0.25,0.15,0.27,0.16,0.27,0.16c0.25,0.22,0.26,0.23,0.26,0.23
			c0.16,0.25,0.16,0.26,0.16,0.26c0.06,0.26,0.06,0.27,0.06,0.27c-0.01,0.25-0.01,0.26-0.01,0.26c-0.05,0.25-0.06,0.28-0.06,0.28
			c-0.09,0.26-0.11,0.29-0.11,0.29c-0.11,0.23-0.14,0.3-0.14,0.3c-0.11,0.2-0.18,0.34-0.18,0.34c-0.09,0.16-0.56,0.98-0.62,1.09
			c-0.1,0.2-0.13,0.26-0.13,0.26c-0.11,0.25-0.12,0.29-0.12,0.29c-0.07,0.26-0.08,0.27-0.08,0.27c-0.03,0.26-0.03,0.27-0.03,0.27
			c0.03,0.25,0.04,0.27,0.04,0.27c0.12,0.25,0.13,0.26,0.13,0.26c0.24,0.26,0.26,0.27,0.26,0.27c0.26,0.18,0.28,0.19,0.28,0.19
			c0.22,0.11,0.27,0.13,0.27,0.13c0.25,0.1,0.3,0.12,0.3,0.12c0.22,0.07,0.28,0.09,0.28,0.09c0.18,0.05,0.3,0.08,0.3,0.08
			c1.45,0.33,2.6,0.36,4.02,0.4c2.85,0.08,6.89-0.31,9.75-0.28c0.26,0.01,0.38,0.02,0.38,0.02c0.23,0.02,0.34,0.03,0.34,0.03
			c0.25,0.03,0.3,0.04,0.3,0.04c0.25,0.05,0.27,0.06,0.27,0.06c0.25,0.1,0.27,0.11,0.27,0.11c0.2,0.26,0.2,0.27,0.2,0.27
			c-0.08,0.25-0.08,0.27-0.08,0.27c-0.17,0.26-0.22,0.32-0.22,0.32l-0.31,0.39c-0.18,0.24-0.2,0.27-0.2,0.27
			c-0.16,0.26-0.17,0.28-0.17,0.28c-0.1,0.26-0.1,0.27-0.1,0.27c-0.02,0.25-0.02,0.26-0.02,0.26c0.08,0.24,0.09,0.26,0.09,0.26
			c0.2,0.25,0.21,0.26,0.21,0.26c0.26,0.2,0.28,0.22,0.28,0.22c0.25,0.15,0.3,0.18,0.3,0.18c0.23,0.11,0.29,0.14,0.29,0.14
			c0.19,0.08,0.26,0.11,0.26,0.11c0.21,0.08,0.28,0.1,0.28,0.1c1.84,0.57,3.4,0.71,5.21,0.81c2.02,0.09,4.08-0.04,6.05-0.38
			l3.59-0.66c0.3-0.05,0.87-0.13,0.98-0.14c0.21-0.02,0.26-0.02,0.26-0.02c0.24-0.01,0.29-0.01,0.29-0.01
			c0.25,0.01,0.27,0.02,0.27,0.02c0.25,0.05,0.26,0.05,0.26,0.05c0.26,0.13,0.27,0.14,0.27,0.14c0.15,0.26,0.15,0.27,0.15,0.27
			c0.02,0.25,0.02,0.27,0.02,0.27c-0.03,0.25-0.04,0.3-0.04,0.3c-0.07,0.35-0.16,0.67-0.23,0.97c-0.05,0.23-0.06,0.28-0.06,0.28
			c-0.04,0.23-0.05,0.28-0.05,0.28c-0.02,0.25-0.02,0.28-0.02,0.28c0,0.24,0.01,0.26,0.01,0.26c0.05,0.26,0.05,0.27,0.05,0.27
			c0.11,0.25,0.13,0.27,0.13,0.27c0.21,0.24,0.24,0.26,0.24,0.26c0.25,0.17,0.27,0.18,0.27,0.18c0.24,0.11,0.27,0.13,0.27,0.13
			c0.24,0.08,0.28,0.1,0.28,0.1c0.23,0.06,0.31,0.08,0.31,0.08c0.25,0.05,0.34,0.07,0.34,0.07c2.14,0.3,3.94,0.08,5.99-0.08
			c3.44-0.29,8.35-1.13,11.77-1c0.22,0.02,0.33,0.03,0.33,0.03c0.2,0.02,0.3,0.04,0.3,0.04c0.23,0.04,0.27,0.05,0.27,0.05
			c0.24,0.06,0.28,0.07,0.28,0.07c0.25,0.1,0.26,0.1,0.26,0.1c0.25,0.17,0.26,0.18,0.26,0.18c0.15,0.25,0.15,0.26,0.15,0.26
			c0,0.26-0.01,0.27-0.01,0.27c-0.09,0.26-0.1,0.28-0.1,0.28c-0.14,0.26-0.17,0.31-0.17,0.31c-0.34,0.52-0.78,1.04-1.02,1.4
			c-0.16,0.25-0.19,0.3-0.19,0.3c-0.13,0.26-0.14,0.28-0.14,0.28c-0.08,0.25-0.08,0.26-0.08,0.26c0.02,0.25,0.02,0.26,0.02,0.26
			c0.22,0.26,0.24,0.27,0.24,0.27c0.25,0.12,0.27,0.12,0.27,0.12c0.24,0.07,0.27,0.07,0.27,0.07c0.26,0.05,0.32,0.05,0.32,0.05
			c0.98,0.11,1.72,0.05,2.55,0c1.14-0.08,2.47-0.25,3.6-0.41c3-0.38,9.15-1.58,12.1-1.51c0.24,0.01,0.3,0.02,0.3,0.02
			c0.22,0.02,0.27,0.03,0.27,0.03c0.24,0.04,0.26,0.05,0.26,0.05c0.26,0.08,0.28,0.09,0.28,0.09c0.25,0.16,0.26,0.17,0.26,0.17
			c0.13,0.25,0.14,0.27,0.14,0.27c-0.02,0.25-0.03,0.27-0.03,0.27c-0.1,0.25-0.11,0.27-0.11,0.27c-0.22,0.43-0.41,0.71-0.57,0.98
			c-0.13,0.23-0.16,0.27-0.16,0.27c-0.12,0.25-0.13,0.27-0.13,0.27c-0.09,0.26-0.09,0.28-0.09,0.28c-0.03,0.26-0.03,0.26-0.03,0.26
			c0.07,0.25,0.08,0.27,0.08,0.27c0.25,0.26,0.27,0.27,0.27,0.27c0.24,0.13,0.26,0.14,0.26,0.14c0.24,0.09,0.27,0.1,0.27,0.1
			c0.21,0.06,0.28,0.07,0.28,0.07c0.2,0.04,0.27,0.06,0.27,0.06c1.66,0.25,3,0.14,4.56,0.05c1.96-0.15,4.05-0.43,5.99-0.75l4.45-0.8
			c0.59-0.1,1.57-0.24,2.11-0.27c0.23-0.01,0.34-0.01,0.34-0.01c0.21,0,0.26,0,0.26,0c0.24,0.01,0.28,0.02,0.28,0.02
			c0.25,0.04,0.27,0.04,0.27,0.04c0.25,0.07,0.26,0.08,0.26,0.08c0.25,0.15,0.26,0.16,0.26,0.16c0.16,0.25,0.17,0.26,0.17,0.26
			c0.04,0.26,0.04,0.27,0.04,0.27c-0.01,0.24-0.01,0.28-0.01,0.28c-0.06,0.44-0.07,0.42-0.12,0.73c-0.04,0.24-0.04,0.28-0.04,0.28
			c-0.02,0.25-0.02,0.27-0.02,0.27c0.02,0.25,0.02,0.27,0.02,0.27c0.1,0.26,0.1,0.27,0.1,0.27c0.26,0.24,0.27,0.24,0.27,0.24
			c0.25,0.11,0.27,0.11,0.27,0.11c0.22,0.06,0.27,0.06,0.27,0.06c0.25,0.04,0.31,0.04,0.31,0.04c0.22,0.02,0.28,0.02,0.28,0.02
			c2.12,0.03,5.28-0.58,7.38-0.78c1.82-0.2,3.7-0.31,5.53-0.3c1.41,0.01,3.1,0.07,4.43,0.36c0.26,0.06,0.32,0.08,0.32,0.08
			c0.23,0.07,0.29,0.09,0.29,0.09c0.25,0.09,0.27,0.1,0.27,0.1c0.26,0.14,0.28,0.15,0.28,0.15c0.26,0.25,0.27,0.26,0.27,0.26
			c0.05,0.26,0.05,0.26,0.05,0.26c-0.09,0.26-0.1,0.27-0.1,0.27c-0.26,0.4-0.23,0.34-0.41,0.57c-0.18,0.24-0.2,0.26-0.2,0.26
			c-0.14,0.26-0.15,0.27-0.15,0.27c-0.02,0.26-0.02,0.27-0.02,0.27c0.21,0.26,0.22,0.27,0.22,0.27c0.25,0.13,0.28,0.15,0.28,0.15
			c0.26,0.09,0.3,0.1,0.3,0.1c0.26,0.07,0.35,0.09,0.35,0.09c1,0.2,1.67,0.24,2.58,0.31c3.73,0.24,12.68,0.29,16.34,0.66
			c0.24,0.04,0.29,0.05,0.29,0.05c0.26,0.06,0.3,0.07,0.3,0.07c0.25,0.09,0.27,0.1,0.27,0.1c0.26,0.16,0.26,0.16,0.26,0.16
			c0.18,0.26,0.18,0.27,0.18,0.27c0.04,0.25,0.04,0.26,0.04,0.26c-0.02,0.24-0.02,0.27-0.02,0.27c-0.05,0.25-0.14,0.63-0.14,0.63
			c-0.04,0.24-0.05,0.27-0.05,0.27c-0.01,0.26-0.01,0.27-0.01,0.27c0.1,0.25,0.11,0.26,0.11,0.26c0.25,0.15,0.26,0.15,0.26,0.15
			c0.25,0.05,0.28,0.05,0.28,0.05c0.23,0.01,0.27,0.01,0.27,0.01c0.23-0.01,0.31-0.01,0.31-0.01c1.74-0.18,3.37-0.65,5.04-0.87
			c1.35-0.2,2.75-0.29,4.11-0.27c2.07,0.02,4.16,0.3,6.18,0.76c2.18,0.49,4.59,1.3,6.32,2.57c0.21,0.16,0.29,0.21,0.29,0.21
			c0.21,0.17,0.28,0.22,0.28,0.22c0.2,0.17,0.27,0.23,0.27,0.23c0.2,0.18,0.26,0.24,0.26,0.24c0.25,0.26,0.31,0.32,0.31,0.32
			c0.18,0.2,0.24,0.27,0.24,0.27c0.17,0.21,0.23,0.28,0.23,0.28c0.16,0.22,0.22,0.29,0.22,0.29c0.16,0.23,0.21,0.31,0.21,0.31
			c0.15,0.24,0.2,0.32,0.2,0.32c0.14,0.25,0.18,0.33,0.18,0.33c0.23,0.45,0.3,0.64,0.4,0.89c0.08,0.21,0.12,0.32,0.12,0.32
			c0.62,1.9,0.73,3.45,0.8,5.35c0.08,2.86-0.3,6.38-0.54,9.24c-0.03,0.37-0.07,1.07-0.06,1.36c0,0.24,0.01,0.32,0.01,0.32
			c0.02,0.24,0.02,0.27,0.02,0.27c0.05,0.26,0.05,0.27,0.05,0.27c0.11,0.25,0.11,0.26,0.11,0.26c0.26,0.19,0.26,0.2,0.26,0.2
			c0.25,0.02,0.27,0.02,0.27,0.02c0.24-0.05,0.28-0.06,0.28-0.06c0.23-0.08,0.27-0.09,0.27-0.09c0.21-0.09,0.3-0.13,0.3-0.13
			c0.18-0.09,0.28-0.14,0.28-0.14c2.07-1.14,5.12-3.54,7.08-4.84c3.94-2.63,9.46-5.97,13.13-8.89c2.82-2.19,7.45-6.19,10.24-8.45
			c2.01-1.64,4.41-3.41,6.61-4.54c0.97-0.52,2.08-1.01,3.1-1.44c1.32-0.55,2.8-1.17,4.15-1.51c3.68-0.97,7.59-1.23,11.39-1.46
			c13.44,0.52,47.29,2.04,60.2,2.08c15.06,0.2,32.32-0.2,47.39-0.94c-1.22,1.27-2.72,2.78-4.12,3.71c-1.27,0.87-2.69,1.36-3.94,2.06
			c-0.23,0.13-0.3,0.18-0.3,0.18c-0.22,0.14-0.29,0.19-0.29,0.19c-0.21,0.15-0.28,0.2-0.28,0.2c-0.2,0.16-0.27,0.22-0.27,0.22
			c-0.26,0.23-0.29,0.26-0.29,0.26c-0.21,0.22-0.25,0.27-0.25,0.27c-0.19,0.23-0.22,0.28-0.22,0.28c-0.17,0.25-0.21,0.3-0.21,0.3
			c-0.13,0.21-0.16,0.26-0.16,0.26c-0.13,0.22-0.19,0.34-0.19,0.34c-0.12,0.23-0.18,0.35-0.18,0.35c-1.01,2.27-1.61,4.61-2.74,6.8
			c-1.55,3.16-4.51,6.83-6.54,9.69c-0.48,0.67-1.16,1.71-1.5,2.35c-0.13,0.26-0.18,0.34-0.18,0.34c-0.12,0.24-0.15,0.32-0.15,0.32
			c-0.1,0.23-0.12,0.31-0.12,0.31c-0.08,0.25-0.1,0.29-0.1,0.29c-0.06,0.23-0.06,0.27-0.06,0.27c-0.03,0.25-0.03,0.28-0.03,0.28
			c0.01,0.25,0.01,0.27,0.01,0.27c0.08,0.25,0.08,0.27,0.08,0.27c0.18,0.25,0.2,0.26,0.2,0.26c0.25,0.18,0.27,0.19,0.27,0.19
			c0.26,0.11,0.28,0.11,0.28,0.11c0.25,0.06,0.28,0.07,0.28,0.07c0.25,0.04,0.31,0.05,0.31,0.05c0.25,0.02,0.31,0.02,0.31,0.02
			c0.2,0.01,0.27,0.01,0.27,0.01c1.2-0.02,2.07-0.21,3.11-0.43c1.26-0.29,2.53-0.67,3.75-1.09c3.79-1.3,7.48-3.03,10.97-4.99
			c6-3.39,11.62-7.52,16.56-12.33c4.12-4.01,7.76-8.56,10.91-13.37c7.66-0.7,15.98-1.51,23.53-2.85
			C595.44,449.68,601.85,447.91,607.08,446.49z"/>
	</g>
</g>
</svg>
