<?xml version="1.0" encoding="utf-8"?>
<!-- Generator: Adobe Illustrator 24.2.1, SVG Export Plug-In . SVG Version: 6.00 Build 0)  -->
<!DOCTYPE svg PUBLIC "-//W3C//DTD SVG 1.1//EN" "http://www.w3.org/Graphics/SVG/1.1/DTD/svg11.dtd" [
	<!ENTITY ns_extend "http://ns.adobe.com/Extensibility/1.0/">
	<!ENTITY ns_ai "http://ns.adobe.com/AdobeIllustrator/10.0/">
	<!ENTITY ns_graphs "http://ns.adobe.com/Graphs/1.0/">
	<!ENTITY ns_vars "http://ns.adobe.com/Variables/1.0/">
	<!ENTITY ns_imrep "http://ns.adobe.com/ImageReplacement/1.0/">
	<!ENTITY ns_sfw "http://ns.adobe.com/SaveForWeb/1.0/">
	<!ENTITY ns_custom "http://ns.adobe.com/GenericCustomNamespace/1.0/">
	<!ENTITY ns_adobe_xpath "http://ns.adobe.com/XPath/1.0/">
]>
<svg version="1.1" xmlns:x="&ns_extend;" xmlns:i="&ns_ai;" xmlns:graph="&ns_graphs;"
	 xmlns="http://www.w3.org/2000/svg" xmlns:xlink="http://www.w3.org/1999/xlink" x="0px" y="0px" width="750px" height="750px"
	 viewBox="0 0 750 750" style="enable-background:new 0 0 750 750;" xml:space="preserve">
<style type="text/css">
	.st0{fill:#FFFFFF;}
	.st1{fill:#FB8604;}
	.st2{fill:none;stroke:#FB8604;stroke-width:2;stroke-linecap:round;stroke-linejoin:round;stroke-miterlimit:10;}
	.st3{fill:none;stroke:#FB8604;stroke-width:3.25;stroke-linecap:round;stroke-linejoin:round;}
	.st4{fill:none;stroke:#FB8604;stroke-width:3.25;stroke-linecap:round;stroke-linejoin:round;stroke-dasharray:4.0141,7.0246;}
	.st5{fill:none;stroke:#FB8604;stroke-width:3.25;stroke-linecap:round;stroke-linejoin:round;stroke-dasharray:3.7694,6.5965;}
	.st6{fill:none;stroke:#FB8604;stroke-width:3.25;stroke-linecap:round;stroke-linejoin:round;stroke-dasharray:3.5662,6.2408;}
	.st7{fill:none;stroke:#FB8604;stroke-width:3.25;stroke-linecap:round;stroke-linejoin:round;stroke-dasharray:4.1763,7.3085;}
	.st8{fill:none;stroke:#FB8604;stroke-width:3.25;stroke-linecap:round;stroke-linejoin:round;stroke-dasharray:3.8612,6.7571;}
	.st9{fill:none;stroke:#FB8604;stroke-width:3.25;stroke-linecap:round;stroke-linejoin:round;stroke-dasharray:3.9751,6.9564;}
	.st10{fill:none;stroke:#FB8604;stroke-width:3.25;stroke-linecap:round;stroke-linejoin:round;stroke-dasharray:4.3021,7.5288;}
	.st11{fill:none;stroke:#FB8604;stroke-width:3.25;stroke-linecap:round;stroke-linejoin:round;stroke-dasharray:4.0666,7.1166;}
	.st12{fill:none;stroke:#FB8604;stroke-width:3.25;stroke-linecap:round;stroke-linejoin:round;stroke-dasharray:3.9891,6.981;}
	.st13{fill:none;stroke:#FB8604;stroke-width:3.25;stroke-linecap:round;stroke-linejoin:round;stroke-dasharray:4.3022,7.5288;}
	.st14{fill:none;stroke:#FB8604;stroke-width:3.25;stroke-linecap:round;stroke-linejoin:round;stroke-dasharray:4.0058,7.0102;}
	.st15{fill:none;stroke:#FB8604;stroke-width:3.25;stroke-linecap:round;stroke-linejoin:round;stroke-dasharray:3.5784,6.2622;}
	.st16{fill:none;stroke:#FB8604;stroke-width:3.25;stroke-linecap:round;stroke-linejoin:round;stroke-dasharray:4.3282,7.5744;}
	.st17{fill:none;stroke:#FB8604;stroke-width:3.25;stroke-linecap:round;stroke-linejoin:round;stroke-dasharray:3.9841,6.9721;}
	.st18{fill:none;stroke:#FB8604;stroke-width:3.25;stroke-linecap:round;stroke-linejoin:round;stroke-dasharray:3.6766,6.4341;}
	.st19{fill:none;stroke:#FB8604;stroke-width:3.25;stroke-linecap:round;stroke-linejoin:round;stroke-dasharray:3.7926,6.637;}
	.st20{fill:none;stroke:#FB8604;stroke-width:3.25;stroke-linecap:round;stroke-linejoin:round;stroke-dasharray:4.0981,7.1717;}
	.st21{fill:none;stroke:#FB8604;stroke-width:3.25;stroke-linecap:round;stroke-linejoin:round;stroke-dasharray:4.0303,7.0531;}
	.st22{fill:none;stroke:#FB8604;stroke-width:3.25;stroke-linecap:round;stroke-linejoin:round;stroke-dasharray:3.9535,6.9186;}
	.st23{fill:none;stroke:#FB8604;stroke-width:3.25;stroke-linecap:round;stroke-linejoin:round;stroke-dasharray:3.9792,6.9637;}
	.st24{fill:none;stroke:#FB8604;stroke-width:3.25;stroke-linecap:round;stroke-linejoin:round;stroke-dasharray:3.8528,6.7423;}
	.st25{fill:none;stroke:#FB8604;stroke-width:3.25;stroke-linecap:round;stroke-linejoin:round;stroke-dasharray:3.6409,6.3716;}
	.st26{fill:none;stroke:#FB8604;stroke-width:3.25;stroke-linecap:round;stroke-linejoin:round;stroke-dasharray:3.818,6.6815;}
	.st27{fill:none;stroke:#FB8604;stroke-width:3.25;stroke-linecap:round;stroke-linejoin:round;stroke-dasharray:3.9417,6.8981;}
	.st28{fill:none;stroke:#FB8604;stroke-width:3.25;stroke-linecap:round;stroke-linejoin:round;stroke-dasharray:4.0547,7.0957;}
	.st29{fill:none;stroke:#FB8604;stroke-width:3.25;stroke-linecap:round;stroke-linejoin:round;stroke-dasharray:4.3912,7.6846;}
	.st30{fill:none;stroke:#FB8604;stroke-width:3.25;stroke-linecap:round;stroke-linejoin:round;stroke-dasharray:4.0013,7.0023;}
	.st31{fill:none;stroke:#FB8604;stroke-width:3.25;stroke-linecap:round;stroke-linejoin:round;stroke-dasharray:4.0671,7.1174;}
	.st32{fill:none;stroke:#FB8604;stroke-width:3.25;stroke-linecap:round;stroke-linejoin:round;stroke-dasharray:4.0262,7.0458;}
	.st33{fill:none;stroke:#FB8604;stroke-width:3.25;stroke-linecap:round;stroke-linejoin:round;stroke-dasharray:4.0266,7.0465;}
	.st34{fill:none;stroke:#FB8604;stroke-width:3.25;stroke-linecap:round;stroke-linejoin:round;stroke-dasharray:3.797,6.6447;}
	.st35{fill:none;stroke:#FB8604;stroke-width:3.25;stroke-linecap:round;stroke-linejoin:round;stroke-dasharray:3.9746,6.9556;}
	.st36{fill:none;stroke:#FB8604;stroke-width:3.25;stroke-linecap:round;stroke-linejoin:round;stroke-dasharray:4.1097,7.1919;}
	.st37{fill:none;stroke:#FB8604;stroke-width:3.25;stroke-linecap:round;stroke-linejoin:round;stroke-dasharray:3.8239,6.6918;}
	.st38{fill:none;stroke:#FB8604;stroke-width:3.25;stroke-linecap:round;stroke-linejoin:round;stroke-dasharray:3.7648,6.5884;}
	.st39{fill:none;stroke:#FB8604;stroke-width:3.25;stroke-linecap:round;stroke-linejoin:round;stroke-dasharray:4.0208,7.0364;}
	.st40{fill:none;stroke:#FB8604;stroke-width:3.25;stroke-linecap:round;stroke-linejoin:round;stroke-dasharray:3.9442,6.9024;}
	.st41{fill:none;stroke:#FB8604;stroke-width:3.25;stroke-linecap:round;stroke-linejoin:round;stroke-dasharray:3.9752,6.9566;}
	.st42{fill:none;stroke:#FB8604;stroke-width:3.25;stroke-linecap:round;stroke-linejoin:round;stroke-dasharray:3.7278,6.5237;}
	.st43{fill:none;stroke:#FB8604;stroke-width:3.25;stroke-linecap:round;stroke-linejoin:round;stroke-dasharray:4.4991,7.8735;}
	.st44{fill:none;stroke:#FB8604;stroke-width:3.25;stroke-linecap:round;stroke-linejoin:round;stroke-dasharray:4.1345,7.2353;}
	.st45{fill:none;stroke:#FB8604;stroke-width:3.25;stroke-linecap:round;stroke-linejoin:round;stroke-dasharray:3.821,6.6868;}
	.st46{fill:none;stroke:#FB8604;stroke-width:3.25;stroke-linecap:round;stroke-linejoin:round;stroke-dasharray:3.9354,6.8869;}
	.st47{fill:none;stroke:#FB8604;stroke-width:3.25;stroke-linecap:round;stroke-linejoin:round;stroke-dasharray:4.2577,7.451;}
	.st48{fill:none;stroke:#FB8604;stroke-width:3.25;stroke-linecap:round;stroke-linejoin:round;stroke-dasharray:4.0269,7.0472;}
	.st49{fill:none;stroke:#FB8604;stroke-width:3.25;stroke-linecap:round;stroke-linejoin:round;stroke-dasharray:3.9502,6.9128;}
	.st50{fill:none;stroke:#FB8604;stroke-width:3.25;stroke-linecap:round;stroke-linejoin:round;stroke-dasharray:3.9807,6.9662;}
	.st51{fill:none;stroke:#FB8604;stroke-width:3.25;stroke-linecap:round;stroke-linejoin:round;stroke-dasharray:3.7337,6.5339;}
	.st52{fill:none;stroke:#FB8604;stroke-width:3.25;stroke-linecap:round;stroke-linejoin:round;stroke-dasharray:4.5058,7.8852;}
	.st53{fill:none;stroke:#FB8604;stroke-width:3.25;stroke-linecap:round;stroke-linejoin:round;stroke-dasharray:4.1403,7.2456;}
	.st54{fill:none;stroke:#FB8604;stroke-width:3.25;stroke-linecap:round;stroke-linejoin:round;stroke-dasharray:3.8267,6.6967;}
	.st55{fill:none;stroke:#FB8604;stroke-width:3.25;stroke-linecap:round;stroke-linejoin:round;stroke-dasharray:3.9409,6.8967;}
	.st56{fill:none;stroke:#FB8604;stroke-width:3.25;stroke-linecap:round;stroke-linejoin:round;stroke-dasharray:4.2639,7.4619;}
	.st57{fill:none;stroke:#FB8604;stroke-width:3.25;stroke-linecap:round;stroke-linejoin:round;stroke-dasharray:4.0325,7.0569;}
	.st58{fill:none;stroke:#FB8604;stroke-width:3.25;stroke-linecap:round;stroke-linejoin:round;stroke-dasharray:3.9557,6.9224;}
	.st59{fill:none;stroke:#FB8604;stroke-width:3.25;stroke-linecap:round;stroke-linejoin:round;stroke-dasharray:4.0077,7.0134;}
	.st60{fill:none;stroke:#FB8604;stroke-width:3.25;stroke-linecap:round;stroke-linejoin:round;stroke-dasharray:4.2017,7.353;}
	.st61{fill:none;stroke:#FB8604;stroke-width:3.25;stroke-linecap:round;stroke-linejoin:round;stroke-dasharray:4.4376,7.7657;}
	.st62{fill:none;stroke:#FB8604;stroke-width:3.25;stroke-linecap:round;stroke-linejoin:round;stroke-dasharray:3.9152,6.8516;}
	.st63{fill:none;stroke:#FB8604;stroke-width:3.25;stroke-linecap:round;stroke-linejoin:round;stroke-dasharray:3.4926,6.112;}
	.st64{fill:none;stroke:#FB8604;stroke-width:3.25;stroke-linecap:round;stroke-linejoin:round;stroke-dasharray:4.1613,7.2822;}
	.st65{fill:none;stroke:#FB8604;stroke-width:3.25;stroke-linecap:round;stroke-linejoin:round;stroke-dasharray:3.9034,6.8309;}
	.st66{fill:none;stroke:#FB8604;stroke-width:3.25;stroke-linecap:round;stroke-linejoin:round;stroke-dasharray:3.9635,6.9362;}
	.st67{fill:none;stroke:#FB8604;stroke-width:3.25;stroke-linecap:round;stroke-linejoin:round;stroke-dasharray:4.0855,7.1496;}
	.st68{fill:none;stroke:#FB8604;stroke-width:3.25;stroke-linecap:round;stroke-linejoin:round;stroke-dasharray:3.9843,6.9725;}
	.st69{fill:none;stroke:#FB8604;stroke-width:3.25;stroke-linecap:round;stroke-linejoin:round;stroke-dasharray:4.5619,7.9833;}
	.st70{fill:none;stroke:#FB8604;stroke-width:3.25;stroke-linecap:round;stroke-linejoin:round;stroke-dasharray:3.473,6.0778;}
	.st71{fill:none;stroke:#FB8604;stroke-width:3.25;stroke-linecap:round;stroke-linejoin:round;stroke-dasharray:4.2074,7.3629;}
	.st72{fill:none;stroke:#FB8604;stroke-width:3.25;stroke-linecap:round;stroke-linejoin:round;stroke-dasharray:3.7677,6.5934;}
	.st73{fill:none;stroke:#FB8604;stroke-width:3.25;stroke-linecap:round;stroke-linejoin:round;stroke-dasharray:3.8856,6.7997;}
	.st74{fill:none;stroke:#FB8604;stroke-width:3.25;stroke-linecap:round;stroke-linejoin:round;stroke-dasharray:4.2077,7.3634;}
	.st75{fill:none;stroke:#FB8604;stroke-width:3.25;stroke-linecap:round;stroke-linejoin:round;stroke-dasharray:4.0523,7.0915;}
	.st76{fill:none;stroke:#FB8604;stroke-width:3.25;stroke-linecap:round;stroke-linejoin:round;stroke-dasharray:3.9747,6.9557;}
	.st77{fill:none;stroke:#FB8604;stroke-width:3.25;stroke-linecap:round;stroke-linejoin:round;stroke-dasharray:3.9761,6.9582;}
	.st78{fill:none;stroke:#FB8604;stroke-width:3.25;stroke-linecap:round;stroke-linejoin:round;stroke-dasharray:4.1619,7.2833;}
	.st79{fill:none;stroke:#FB8604;stroke-width:3.25;stroke-linecap:round;stroke-linejoin:round;stroke-dasharray:4.3986,7.6975;}
	.st80{fill:none;stroke:#FB8604;stroke-width:3.25;stroke-linecap:round;stroke-linejoin:round;stroke-dasharray:3.8829,6.7951;}
	.st81{fill:none;stroke:#FB8604;stroke-width:3.25;stroke-linecap:round;stroke-linejoin:round;stroke-dasharray:3.4622,6.0588;}
	.st82{fill:none;stroke:#FB8604;stroke-width:3.25;stroke-linecap:round;stroke-linejoin:round;stroke-dasharray:4.127,7.2223;}
	.st83{fill:none;stroke:#FB8604;stroke-width:3.25;stroke-linecap:round;stroke-linejoin:round;stroke-dasharray:3.8697,6.772;}
	.st84{fill:none;stroke:#FB8604;stroke-width:3.25;stroke-linecap:round;stroke-linejoin:round;stroke-dasharray:3.932,6.881;}
	.st85{fill:none;stroke:#FB8604;stroke-width:3.25;stroke-linecap:round;stroke-linejoin:round;stroke-dasharray:4.053,7.0927;}
	.st86{fill:none;stroke:#FB8604;stroke-width:2.75;stroke-linecap:round;stroke-linejoin:round;stroke-miterlimit:10;}
	.st87{fill:none;stroke:#FB8604;stroke-width:3.5;stroke-linecap:round;stroke-linejoin:round;stroke-miterlimit:10;}
</style>
<metadata>
	<sfw  xmlns="&ns_sfw;">
		<slices></slices>
		<sliceSourceBounds  bottomLeftOrigin="true" height="10750" width="4280" x="-2000" y="-3120"></sliceSourceBounds>
	</sfw>
</metadata>
<g id="FILL-BACKGROUND">
	<rect class="st0" width="750" height="750"/>
</g>
<g id="N-TEXT">
</g>
<g id="N-DIMENSIONS">
</g>
<g id="AG-DETAIL-DIAGRAM">
</g>
<g id="AG-DETAILS">
</g>
<g id="AG-ANIMALS">
	<g id="POLYLINE_1283_">
		<path class="st86" d="M445.91,440.24c-1.64,0.42-3.38,0.96-4.98,1.52c-2.49,0.92-9.58,3.55-11.98,4.39
			c-2.79,1.06-5.81,2.28-7.92,4.44c-0.97,0.99-1.62,2.2-1.99,3.44c-0.83,2.82-0.59,5.81-0.08,8.66c0.47,2.75,1.7,5.85,1.39,8.64
			c-0.31,3.05-2.34,5.52-3.48,8.22c-0.05,0.15-0.07,0.19-0.07,0.19c-0.04,0.14-0.06,0.18-0.06,0.18c-0.03,0.13-0.04,0.17-0.04,0.17
			c-0.03,0.14-0.03,0.16-0.03,0.16c-0.01,0.15-0.01,0.16-0.01,0.16c0.01,0.13,0.01,0.15,0.01,0.15c0.04,0.14,0.04,0.16,0.04,0.16
			c0.09,0.15,0.1,0.16,0.1,0.16c0.14,0.11,0.15,0.11,0.15,0.11c0.14,0.06,0.15,0.06,0.15,0.06c0.15,0.03,0.17,0.04,0.17,0.04
			c0.13,0.02,0.15,0.02,0.15,0.02c0.12,0.01,0.16,0.01,0.16,0.01c0.13,0,0.18,0,0.18,0c1.12-0.1,2.01-0.46,2.97-0.83
			c1.13-0.46,2.25-1.02,3.31-1.63c5.02-2.88,9.18-7.12,12.32-11.96c2.62-4.08,5-8.9,7.88-12.8c3.69-5.06,8.06-9.68,12.64-13.94"/>
	</g>
	<g id="POLYLINE_1282_">
		<path class="st86" d="M236.8,400.31c-1.04,0.05-9.76,0.81-11.03,0.92c-3.81,0.29-14.6,0.94-18.23,1.38
			c-1.06,0.13-2.25,0.28-3.27,0.58c-0.14,0.04-0.2,0.07-0.2,0.07c-0.15,0.06-0.17,0.07-0.17,0.07c-0.15,0.07-0.17,0.08-0.17,0.08
			c-0.14,0.1-0.16,0.11-0.16,0.11c-0.1,0.15-0.11,0.15-0.11,0.15c0.01,0.14,0.01,0.15,0.01,0.15c0.1,0.15,0.11,0.15,0.11,0.15
			c0.14,0.12,0.16,0.13,0.16,0.13c0.14,0.09,0.16,0.1,0.16,0.1c0.14,0.08,0.19,0.1,0.19,0.1c0.1,0.05,0.16,0.07,0.16,0.07
			c1.65,0.68,3.32,0.91,5.07,1.1c4.16,0.37,8.7,0.43,12.83,1.05c6.12,0.87,12.19,2.46,17.96,4.65c6.68,2.56,13.12,6.07,18.38,10.96
			c2.45,2.27,4.68,4.83,6.39,7.71c1.34,2.27,2.39,4.82,2.61,7.47c0.41,4.85-2.31,8.99-5.93,11.86c-2.46,1.98-5.35,3.42-8.2,4.76
			c-1.48,0.7-4.7,2.03-6.04,2.87c-0.13,0.09-0.15,0.11-0.15,0.11c-0.14,0.12-0.15,0.13-0.15,0.13c-0.12,0.15-0.13,0.16-0.13,0.16
			c-0.04,0.14-0.04,0.15-0.04,0.15c0.09,0.15,0.1,0.15,0.1,0.15c0.14,0.08,0.15,0.09,0.15,0.09c0.14,0.05,0.16,0.06,0.16,0.06
			c0.11,0.03,0.15,0.04,0.15,0.04c0.13,0.03,0.18,0.03,0.18,0.03c1.51,0.2,2.86,0.05,4.33-0.1c2.22-0.26,4.44-0.71,6.58-1.33
			c4.18-1.19,8.33-2.96,12.28-4.78c6.73-3.14,14.63-7.23,21.43-10.15c4.94-2.14,10.18-4.2,15.31-5.84c3.48-1.1,7.11-2.09,10.71-2.68
			c4.58-0.77,9.34-0.79,13.97-0.64"/>
	</g>
	<g id="POLYLINE_1281_">
		<path class="st86" d="M198.36,394.75c-9.01,7.01-19.93,14.6-29.45,20.95c-10.12,6.65-21.39,13.92-31.96,19.73
			c-7.58,4.15-15.52,7.97-23.76,10.6c-5.26,1.69-10.75,2.85-16.22,3.54c-4.04,0.51-8.16,0.79-12.24,0.75
			c-1.9-0.05-3.96-0.04-5.82-0.45c-0.15-0.04-0.22-0.06-0.22-0.06c-0.14-0.04-0.17-0.05-0.17-0.05c-0.12-0.05-0.15-0.06-0.15-0.06
			c-0.14-0.06-0.17-0.07-0.17-0.07c-0.15-0.08-0.17-0.09-0.17-0.09c-0.14-0.1-0.15-0.11-0.15-0.11c-0.14-0.15-0.14-0.15-0.14-0.15
			c-0.07-0.14-0.08-0.15-0.08-0.15c-0.03-0.14-0.03-0.15-0.03-0.15c0.01-0.14,0.01-0.16,0.01-0.16c0.03-0.13,0.04-0.15,0.04-0.15
			c0.06-0.14,0.07-0.16,0.07-0.16c0.08-0.15,0.1-0.17,0.1-0.17c0.09-0.13,0.11-0.15,0.11-0.15c0.1-0.13,0.15-0.19,0.15-0.19
			c0.1-0.11,0.15-0.17,0.15-0.17c1.63-1.71,5.76-4.51,7.64-5.99c3.24-2.44,6.33-5.2,9.06-8.21c5.75-6.18,12.04-15.66,17.13-22.45
			c3.89-5.16,8.2-10.2,12.79-14.76c4.1-4.15,9.47-8.51,13.98-12.27c1.78-1.54,3.63-3.17,5.18-4.95c0.92-1.05,1.89-2.37,2.41-3.62
			c0.9-2,0.88-4.28-0.09-6.13c-1.05-1.99-2.6-3.31-4.22-4.71l-4.72-3.87c-5.43-4.58-10.46-9.74-14.69-15.45
			c-5.25-7-10.45-17.54-14.86-25.15c-2.48-4.3-5.28-8.51-8.62-12.19c-5.24-5.86-12.36-11.54-17.61-17.4
			c-1.01-1.13-2.07-2.36-2.86-3.64c-0.12-0.21-0.19-0.34-0.23-0.41c-0.06-0.13-0.1-0.19-0.1-0.19c-0.06-0.12-0.08-0.18-0.08-0.18
			c-0.06-0.15-0.07-0.17-0.07-0.17c-0.04-0.14-0.05-0.16-0.05-0.16c-0.03-0.13-0.04-0.15-0.04-0.15c-0.02-0.14-0.02-0.17-0.02-0.17
			c0-0.13,0-0.15,0-0.15c0.02-0.14,0.03-0.15,0.03-0.15c0.06-0.15,0.07-0.15,0.07-0.15c0.11-0.14,0.12-0.15,0.12-0.15
			c0.14-0.1,0.15-0.11,0.15-0.11c0.14-0.07,0.15-0.07,0.15-0.07c0.15-0.05,0.17-0.06,0.17-0.06c0.14-0.03,0.16-0.04,0.16-0.04
			c0.13-0.02,0.15-0.02,0.15-0.02c0.11-0.01,0.16-0.02,0.16-0.02c0.12-0.01,0.17-0.01,0.17-0.01c1.64-0.01,3.17,0.34,4.75,0.67
			c3.38,0.77,6.83,1.87,10.11,3.01c11.75,4.19,23.17,9.73,33.76,16.33c4.19,2.63,8.44,5.59,12.32,8.65
			c6.51,5.08,15.54,13.2,22.18,18.04c9.41,6.97,20.3,12.05,31.81,14.31"/>
	</g>
	<g id="POLYLINE_1280_">
		<path class="st86" d="M347.59,333.28l-4.16-2.14c-5.4-2.74-11.24-4.83-16.99-6.71c-7.55-2.44-15.44-4.61-23.19-6.33
			c-14.1-3.24-33.45-4.72-47.95-6.3c-4.21-0.52-8.87-1.11-13-2c-2.09-0.48-4.43-1.01-6.27-2.1c-0.15-0.09-0.19-0.13-0.19-0.13
			c-0.13-0.09-0.18-0.13-0.18-0.13c-0.12-0.09-0.16-0.13-0.16-0.13c-0.14-0.12-0.18-0.16-0.18-0.16c-0.12-0.12-0.15-0.15-0.15-0.15
			c-0.13-0.15-0.14-0.16-0.14-0.16c-0.1-0.14-0.1-0.16-0.1-0.16c-0.07-0.15-0.07-0.15-0.07-0.15c-0.03-0.15-0.04-0.15-0.04-0.15
			c0.01-0.15,0.01-0.15,0.01-0.15c0.09-0.15,0.1-0.16,0.1-0.16c0.14-0.1,0.16-0.1,0.16-0.1c0.13-0.05,0.15-0.06,0.15-0.06
			c0.14-0.04,0.16-0.04,0.16-0.04c0.12-0.02,0.16-0.03,0.16-0.03c0.13-0.01,0.18-0.02,0.18-0.02c0.15-0.01,0.2-0.01,0.2-0.01
			c0.05,0,0.16,0,0.16,0c0.11,0,0.23,0,0.23,0c0.12,0,0.25,0.01,0.25,0.01c0.13,0.01,0.26,0.01,0.26,0.01
			c0.14,0.01,0.42,0.03,0.42,0.03c0.74,0.06,1.64,0.19,2.38,0.29c15.4,2.52,36.94,3.85,52.3,6.46c4.38,0.72,9.21,1.64,13.51,2.66
			c3.66,0.87,8.62,2.25,12.28,3.08c3.99,0.91,8.11,1.57,12.19,1.81c7.56,0.44,15.23-0.05,22.67-1.49c4.63-0.94,9.29-2.24,13.43-4.56
			c3.36-1.87,6.28-4.58,8.25-7.89c1.74-2.9,2.86-6.14,3.57-9.43c0.8-3.73,1.1-7.58,0.87-11.39c-0.17-2.92-0.7-5.85-1.64-8.62
			c-1.15-3.44-2.9-6.68-4.89-9.71c-1.67-2.65-4.81-6.67-6.58-9.28c-0.38-0.55-0.88-1.32-1.17-1.88c-0.07-0.14-0.09-0.18-0.09-0.18
			c-0.06-0.13-0.08-0.17-0.08-0.17c-0.05-0.12-0.06-0.15-0.06-0.15c-0.04-0.14-0.05-0.15-0.05-0.15c-0.03-0.15-0.03-0.16-0.03-0.16
			c0-0.14,0.01-0.15,0.01-0.15c0.12-0.15,0.12-0.15,0.12-0.15c0.15-0.03,0.15-0.03,0.15-0.03c0.13,0.01,0.15,0.01,0.15,0.01
			c0.14,0.03,0.16,0.04,0.16,0.04c0.14,0.04,0.19,0.06,0.19,0.06c0.1,0.04,0.15,0.06,0.15,0.06c1.28,0.55,2.25,1.24,3.36,2.01
			c1.57,1.12,3.1,2.38,4.54,3.67c6.17,5.53,11.36,12.26,16.11,19.03c6.96,10,14.99,22.72,23.4,31.43
			c5.12,5.39,10.97,10.14,17.19,14.21"/>
	</g>
	<g id="POLYLINE_1279_">
		<path class="st86" d="M589.81,378.5c-2.29,3.91-3.54,8.37-4.59,12.75c-0.38,1.66-0.87,3.61-1.11,5.29
			c-0.21,1.46-0.26,3.04,0.22,4.33c0.04,0.12,0.07,0.18,0.07,0.18c0.05,0.12,0.07,0.17,0.07,0.17c0.05,0.12,0.08,0.17,0.08,0.17
			c0.06,0.11,0.09,0.17,0.09,0.17c0.06,0.11,0.09,0.17,0.09,0.17c0.07,0.11,0.1,0.16,0.1,0.16c0.07,0.11,0.12,0.18,0.12,0.18
			c0.11,0.14,0.16,0.21,0.16,0.21c0.11,0.14,0.17,0.21,0.17,0.21c0.12,0.14,0.19,0.2,0.19,0.2c0.13,0.13,0.2,0.2,0.2,0.2
			c0.14,0.13,0.21,0.2,0.21,0.2c1.01,0.89,2.02,1.4,3.17,1.92c1.4,0.61,2.9,1.07,4.37,1.45c3.76,0.96,7.78,1.57,11.64,2.06
			c10.69,1.28,21.97,0.89,31.87-3.69c4.4-2.01,8.52-4.71,12.01-8.06c2.54-2.45,4.77-5.3,6.24-8.53c0.82-1.8,1.35-3.73,1.67-5.67
			c0.51-2.88,0.57-7.27,0.73-10.21c0.13-2.27,0.38-4.58,1.01-6.77c1.03-3.68,3.33-7.34,5.24-10.63c0.22-0.38,0.53-1,0.67-1.34
			c0.05-0.12,0.07-0.17,0.07-0.17c0.05-0.14,0.06-0.18,0.06-0.18c0.04-0.12,0.05-0.16,0.05-0.16c0.03-0.11,0.04-0.15,0.04-0.15
			c0.03-0.14,0.04-0.18,0.04-0.18c0.02-0.13,0.02-0.15,0.02-0.15c0-0.14,0-0.16,0-0.16c-0.01-0.14-0.01-0.15-0.01-0.15
			c-0.03-0.14-0.04-0.16-0.04-0.16c-0.05-0.14-0.06-0.15-0.06-0.15c-0.09-0.14-0.09-0.15-0.09-0.15c-0.12-0.15-0.14-0.16-0.14-0.16
			c-0.14-0.13-0.16-0.14-0.16-0.14c-0.15-0.11-0.17-0.12-0.17-0.12c-0.13-0.08-0.15-0.1-0.15-0.1c-0.11-0.06-0.17-0.1-0.17-0.1
			c-0.12-0.06-0.19-0.09-0.19-0.09c-1.03-0.47-2.01-0.7-3.09-0.96c-4.62-1.03-14.01-2.06-18.8-2.74c-6.72-0.95-13.52-2.25-19.93-4.5
			c-7.92-2.72-17.71-7.84-25.63-10.57c-4.83-1.68-9.93-2.63-15.01-3.18c-21.04-2-49.83-2.64-71.16-3.47
			c-30.26-0.68-66.02-1.52-96.09,0.22c-11.58,0.62-24.3,1.83-35.84,3.19c-5.64,0.53-72.4,10.1-79.9,11.13
			c-19.06,2.39-39.49,4.64-58.65,4.93c-10.69,0.23-26.83-0.79-37.5-0.35c-3.49,0.18-7.04,0.51-10.42,1.47
			c-1.21,0.35-2.42,0.8-3.55,1.37c-1.41,0.71-2.73,1.68-3.75,2.7c-2.45,2.46-3.8,5.45-4.63,8.71c-0.84,3.4-1.06,6.95-0.94,10.44
			c0.27,6.35,1.68,12.75,4.59,18.42c1.47,2.8,3.54,5.79,6.39,7.19c1.8,0.9,3.74,0.78,5.6,0.38c2.19-0.47,4.67-1.33,6.87-1.8
			c1.81-0.4,3.68-0.61,5.53-0.67c4.47-0.14,8.98,0.51,13.33,1.55c6.27,1.48,12.33,4.02,18.13,6.81
			c9.94,4.91,21.14,10.67,31.47,14.45c12.84,4.79,26.6,8.58,39.93,11.76c30.45,7.12,61.76,11.71,93.01,12.89
			c7.18,0.28,15.36,0.33,22.56,0.22c14.47-0.43,45.7-1.1,60.02-1.08c15.78-0.24,32.17-0.77,47.78-3.16"/>
	</g>
	<g id="POLYLINE_1278_">
		<path class="st86" d="M655.33,387.94c2.96-1.79,5.55-4.16,7.84-6.75c2.86-3.25,5.32-6.91,7.31-10.76
			c1.04-2.03,1.99-4.16,2.65-6.34c0.47-1.57,0.85-3.43,0.52-4.99c-0.03-0.11-0.04-0.16-0.04-0.16c-0.03-0.11-0.04-0.16-0.04-0.16
			c-0.03-0.1-0.05-0.16-0.05-0.16c-0.04-0.1-0.05-0.15-0.05-0.15c-0.06-0.15-0.08-0.19-0.08-0.19c-0.07-0.14-0.09-0.19-0.09-0.19
			c-0.07-0.14-0.1-0.18-0.1-0.18c-0.08-0.13-0.11-0.17-0.11-0.17c-0.09-0.12-0.12-0.16-0.12-0.16c-0.11-0.13-0.14-0.16-0.14-0.16
			c-0.14-0.15-0.17-0.17-0.17-0.17c-0.12-0.11-0.15-0.14-0.15-0.14c-0.13-0.1-0.16-0.13-0.16-0.13c-0.13-0.1-0.17-0.12-0.17-0.12
			c-0.14-0.09-0.17-0.12-0.17-0.12c-1.17-0.71-2.34-0.95-3.64-1.13c-1.66-0.23-3.52-0.18-5.05,0.24"/>
	</g>
	<g id="POLYLINE_1277_">
		<path class="st86" d="M601.47,351.34l-1.52,1.17c-0.64,0.5-1.36,1.17-1.83,1.75c-0.69,0.84-1.18,1.8-1.51,2.71
			c-0.92,2.61-1.16,5.37-1.12,8.12c0.12,4.33,1.15,9.08,3.98,12.43c3.24,3.87,8.04,5.86,12.78,7.21"/>
	</g>
	<g id="POLYLINE_1276_">
		<path class="st86" d="M564.63,344.1c-3.81,3-7.15,6.6-10.03,10.5c-3.02,4.1-5.56,8.59-7.46,13.32
			c-2.73,6.82-4.19,14.54-2.04,21.72c1.8,6.19,6.1,11.32,11.04,15.3c3.88,3.15,8.21,5.86,12.59,8.26c3.51,1.9,7.2,3.67,10.9,5.18
			c2.31,0.92,4.7,1.85,7.13,2.42c1.69,0.4,3.45,0.5,5.18,0.42c4.1-0.21,8.28-0.87,12.3-1.72c3.71-0.82,7.43-1.85,10.91-3.4
			c4.42-1.95,8.33-4.94,11.99-8.06"/>
	</g>
	<g id="POLYLINE_1275_">
		<path class="st86" d="M563.9,422.53c-3.79,0.68-7.59,1.62-11.18,3.04c-6,2.4-11.74,5.68-16.94,9.5c-2.08,1.56-4.11,3.26-5.88,5.17
			c-1.19,1.3-2.3,2.73-3.08,4.32c-0.99,2.02-1.18,4.11-1.13,6.28c0.06,2.19,0.27,4.86-0.16,7.01c-0.37,1.94-1.19,3.73-2.06,5.48
			c-0.65,1.33-1.75,3.26-2.2,4.62c-0.03,0.11-0.05,0.17-0.05,0.17c-0.03,0.11-0.04,0.16-0.04,0.16c-0.02,0.13-0.03,0.15-0.03,0.15
			c-0.02,0.14-0.02,0.16-0.02,0.16c0,0.13,0,0.15,0,0.15c0.01,0.14,0.02,0.16,0.02,0.16c0.04,0.15,0.05,0.16,0.05,0.16
			c0.09,0.14,0.09,0.15,0.09,0.15c0.14,0.12,0.15,0.13,0.15,0.13c0.15,0.07,0.16,0.08,0.16,0.08c0.14,0.04,0.16,0.05,0.16,0.05
			c0.15,0.02,0.16,0.03,0.16,0.03c0.12,0.01,0.16,0.01,0.16,0.01c0.12,0,0.16,0,0.16,0c0.12,0,0.17-0.01,0.17-0.01
			c0.13-0.01,0.18-0.02,0.18-0.02c0.96-0.12,1.67-0.38,2.52-0.67c1.02-0.36,2.11-0.83,3.1-1.28c3.13-1.42,6.22-3.1,9.18-4.86
			c5.88-3.52,11.57-7.51,16.65-12.13c2.95-2.7,5.67-5.75,8.16-8.88c2.56-3.19,6.29-8.48,9.24-11.22c2.64-2.5,5.8-4.41,9.01-6.08
			c2.34-1.17,5.23-2.33,7.65-3.32"/>
	</g>
</g>
<g id="AG-OUTLINE">
	<g id="POLYLINE_128_">
		<path class="st87" d="M627.14,408.02c7.03-1.43,13.73-4.54,19.32-9.04c3.68-3,6.96-6.66,8.87-11.05c2.96-1.79,5.55-4.16,7.84-6.75
			c2.86-3.25,5.32-6.91,7.31-10.76c1.04-2.03,1.99-4.16,2.65-6.34c0.47-1.57,0.85-3.43,0.52-4.99c-0.03-0.11-0.04-0.16-0.04-0.16
			c-0.03-0.11-0.04-0.16-0.04-0.16c-0.03-0.1-0.05-0.16-0.05-0.16c-0.04-0.1-0.05-0.15-0.05-0.15c-0.06-0.15-0.08-0.19-0.08-0.19
			c-0.07-0.14-0.09-0.19-0.09-0.19c-0.07-0.14-0.1-0.18-0.1-0.18c-0.08-0.13-0.11-0.17-0.11-0.17c-0.09-0.12-0.12-0.16-0.12-0.16
			c-0.11-0.13-0.14-0.16-0.14-0.16c-0.14-0.15-0.17-0.17-0.17-0.17c-0.12-0.11-0.15-0.14-0.15-0.14c-0.13-0.1-0.16-0.13-0.16-0.13
			c-0.13-0.1-0.17-0.12-0.17-0.12c-0.14-0.09-0.17-0.12-0.17-0.12c-1.17-0.71-2.34-0.95-3.64-1.13c-1.66-0.23-3.52-0.18-5.05,0.24
			c0.42-0.72,0.99-1.72,1.26-2.44c0.04-0.12,0.06-0.16,0.06-0.16c0.04-0.12,0.05-0.15,0.05-0.15c0.04-0.15,0.05-0.18,0.05-0.18
			c0.02-0.14,0.03-0.16,0.03-0.16c0.01-0.13,0.01-0.15,0.01-0.15c0-0.14,0-0.16,0-0.16c-0.02-0.13-0.02-0.15-0.02-0.15
			c-0.04-0.14-0.04-0.15-0.04-0.15c-0.07-0.15-0.07-0.16-0.07-0.16c-0.09-0.14-0.1-0.15-0.1-0.15c-0.13-0.15-0.15-0.16-0.15-0.16
			c-0.14-0.12-0.17-0.14-0.17-0.14c-0.14-0.09-0.16-0.11-0.16-0.11c-0.1-0.06-0.16-0.1-0.16-0.1c-0.12-0.06-0.18-0.09-0.18-0.09
			c-0.13-0.06-0.19-0.09-0.19-0.09c-1.02-0.45-1.96-0.68-3.03-0.93c-4.62-1.03-14.01-2.06-18.8-2.74
			c-7.59-1.06-15.25-2.61-22.41-5.41c-9.7-3.65-20.42-9.76-30.66-11.7c-5.01-1.03-10.5-1.47-15.6-1.85
			c-46.19-2.68-97.1-4.26-143.35-3.22c-6.59-4.31-12.75-9.39-18.09-15.18c-7.91-8.4-15.87-20.93-22.5-30.47
			c-4.75-6.77-9.94-13.49-16.11-19.03c-1.44-1.29-2.96-2.55-4.54-3.67c-1.01-0.71-2.26-1.55-3.36-2.01
			c-0.1-0.04-0.15-0.06-0.15-0.06c-0.14-0.05-0.17-0.05-0.17-0.05c-0.15-0.03-0.17-0.04-0.17-0.04c-0.14-0.01-0.15-0.01-0.15-0.01
			c-0.15,0.02-0.15,0.02-0.15,0.02c-0.14,0.15-0.14,0.16-0.14,0.16c-0.01,0.14-0.01,0.15-0.01,0.15c0.03,0.14,0.03,0.16,0.03,0.16
			c0.04,0.12,0.05,0.15,0.05,0.15c0.04,0.11,0.06,0.15,0.06,0.15c0.31,0.66,0.61,1.13,0.98,1.69c1.9,2.85,5.1,6.94,6.94,9.81
			c1.98,3.03,3.74,6.27,4.89,9.71c0.94,2.78,1.47,5.7,1.64,8.62c0.23,3.94-0.09,7.92-0.96,11.77c-0.74,3.25-1.88,6.46-3.65,9.31
			c-2.13,3.48-5.3,6.22-8.91,8.08c-4.24,2.19-8.94,3.42-13.61,4.3c-7.12,1.28-14.44,1.72-21.67,1.3c-4.09-0.24-8.21-0.9-12.19-1.81
			c-3.66-0.82-8.63-2.2-12.28-3.08c-4.3-1.02-9.14-1.94-13.51-2.66c-15.38-2.61-36.9-3.94-52.3-6.46c-1.15-0.16-2.53-0.36-3.65-0.34
			c-0.1,0-0.15,0.01-0.15,0.01c-0.14,0.01-0.19,0.01-0.19,0.01c-0.13,0.02-0.17,0.02-0.17,0.02c-0.14,0.03-0.15,0.03-0.15,0.03
			c-0.13,0.04-0.15,0.04-0.15,0.04c-0.14,0.06-0.15,0.07-0.15,0.07c-0.15,0.13-0.15,0.14-0.15,0.14c-0.05,0.14-0.05,0.15-0.05,0.15
			c0.01,0.14,0.01,0.15,0.01,0.15c0.04,0.14,0.05,0.15,0.05,0.15c0.07,0.14,0.08,0.15,0.08,0.15c0.1,0.14,0.12,0.16,0.12,0.16
			c0.12,0.13,0.15,0.16,0.15,0.16c0.13,0.12,0.16,0.15,0.16,0.15c0.11,0.09,0.15,0.12,0.15,0.12c0.12,0.09,0.17,0.13,0.17,0.13
			c0.13,0.09,0.18,0.13,0.18,0.13c0.91,0.59,1.75,0.88,2.67,1.2c0.96,0.32,2,0.59,2.99,0.82c4.38,1.01,9.28,1.62,13.76,2.17
			c14.59,1.59,33.8,3.06,47.95,6.3c7.75,1.71,15.64,3.88,23.19,6.33c5.75,1.88,11.59,3.97,16.99,6.71l4.16,2.14
			c-36.6,5.12-78.15,12.23-114.98,11.95c-6.58-0.08-24.25-0.73-30.54-0.37c-2.52,0.12-5.13,0.35-7.61,0.81
			c-11.51-2.25-22.4-7.34-31.81-14.31c-6.63-4.83-15.69-12.97-22.18-18.04c-3.89-3.06-8.13-6.02-12.32-8.65
			c-10.15-6.33-21.08-11.69-32.31-15.81c-3.39-1.23-6.97-2.41-10.47-3.28c-1.76-0.42-3.65-0.85-5.45-0.93c-0.19,0-0.31,0-0.38,0
			c-0.12,0.01-0.17,0.01-0.17,0.01c-0.11,0.01-0.16,0.02-0.16,0.02c-0.13,0.02-0.15,0.02-0.15,0.02c-0.14,0.03-0.16,0.04-0.16,0.04
			c-0.13,0.04-0.15,0.05-0.15,0.05c-0.14,0.06-0.15,0.07-0.15,0.07c-0.15,0.1-0.15,0.11-0.15,0.11c-0.13,0.14-0.13,0.15-0.13,0.15
			c-0.07,0.14-0.07,0.15-0.07,0.15c-0.03,0.13-0.03,0.15-0.03,0.15c0,0.13,0,0.15,0,0.15c0.02,0.14,0.02,0.17,0.02,0.17
			c0.03,0.13,0.03,0.15,0.03,0.15c0.04,0.14,0.05,0.16,0.05,0.16c0.05,0.14,0.08,0.2,0.08,0.2c0.05,0.12,0.08,0.18,0.08,0.18
			c0.06,0.13,0.1,0.19,0.1,0.19c0.76,1.39,1.73,2.49,2.74,3.66c5.33,6.04,12.59,11.79,17.96,17.79c3.34,3.68,6.14,7.9,8.62,12.19
			c4.42,7.63,9.59,18.13,14.86,25.15c4.22,5.71,9.26,10.87,14.69,15.45l4.72,3.87c1.5,1.26,3.17,2.79,4.09,4.46
			c1.97,3.56,0.38,7.04-2.01,9.79c-1.59,1.86-3.51,3.56-5.36,5.15c-4.53,3.78-9.86,8.11-13.98,12.27c-4.59,4.56-8.9,9.6-12.79,14.76
			c-5.11,6.81-11.36,16.25-17.13,22.45c-2.73,3-5.82,5.76-9.06,8.21c-1.83,1.43-6.02,4.31-7.59,5.93c-0.1,0.11-0.15,0.17-0.15,0.17
			c-0.09,0.11-0.13,0.16-0.13,0.16c-0.1,0.13-0.12,0.16-0.12,0.16c-0.08,0.13-0.1,0.15-0.1,0.15c-0.08,0.14-0.09,0.17-0.09,0.17
			c-0.05,0.13-0.06,0.16-0.06,0.16c-0.03,0.15-0.03,0.17-0.03,0.17c0.01,0.14,0.01,0.15,0.01,0.15c0.05,0.14,0.05,0.15,0.05,0.15
			c0.1,0.15,0.11,0.16,0.11,0.16c0.15,0.13,0.16,0.14,0.16,0.14c0.14,0.09,0.17,0.11,0.17,0.11c0.13,0.06,0.16,0.08,0.16,0.08
			c0.15,0.06,0.18,0.07,0.18,0.07c0.1,0.03,0.16,0.05,0.16,0.05c0.76,0.23,1.4,0.28,2.15,0.36c1.06,0.09,2.22,0.14,3.28,0.16
			c3.69,0.07,7.43-0.14,11.09-0.53c5.66-0.61,11.34-1.71,16.79-3.36c8.69-2.64,17.04-6.64,25-10.99
			c10.56-5.8,21.87-13.09,31.96-19.73c9.51-6.34,20.44-13.94,29.45-20.95c1.99-0.57,4.15-1.17,6.2-1.43c2.27-0.3,4.6-0.33,6.88-0.19
			c8.84,0.56,17.39,3.46,25.36,7.18c-1.04,0.05-9.76,0.81-11.03,0.92c-3.81,0.29-14.6,0.94-18.23,1.38
			c-1.06,0.13-2.25,0.28-3.27,0.58c-0.14,0.04-0.2,0.07-0.2,0.07c-0.15,0.06-0.17,0.07-0.17,0.07c-0.15,0.07-0.17,0.08-0.17,0.08
			c-0.14,0.1-0.16,0.11-0.16,0.11c-0.1,0.15-0.11,0.15-0.11,0.15c0.01,0.14,0.01,0.15,0.01,0.15c0.1,0.15,0.11,0.15,0.11,0.15
			c0.14,0.12,0.16,0.13,0.16,0.13c0.14,0.09,0.16,0.1,0.16,0.1c0.14,0.08,0.19,0.1,0.19,0.1c0.1,0.05,0.16,0.07,0.16,0.07
			c1.65,0.68,3.32,0.91,5.07,1.1c4.16,0.37,8.7,0.43,12.83,1.05c6.12,0.87,12.19,2.46,17.96,4.65c6.68,2.56,13.12,6.07,18.38,10.96
			c2.45,2.27,4.68,4.83,6.39,7.71c1.34,2.27,2.39,4.82,2.61,7.47c0.41,4.85-2.31,8.99-5.93,11.86c-2.46,1.98-5.35,3.42-8.2,4.76
			c-1.48,0.7-4.7,2.03-6.04,2.87c-0.13,0.09-0.15,0.11-0.15,0.11c-0.14,0.12-0.15,0.13-0.15,0.13c-0.12,0.15-0.13,0.16-0.13,0.16
			c-0.04,0.14-0.04,0.15-0.04,0.15c0.09,0.15,0.1,0.15,0.1,0.15c0.14,0.08,0.15,0.09,0.15,0.09c0.14,0.05,0.16,0.06,0.16,0.06
			c0.11,0.03,0.15,0.04,0.15,0.04c0.13,0.03,0.18,0.03,0.18,0.03c1.51,0.2,2.86,0.05,4.33-0.1c2.22-0.26,4.44-0.71,6.58-1.33
			c4.18-1.19,8.33-2.96,12.28-4.78c6.73-3.14,14.63-7.23,21.43-10.15c4.94-2.14,10.18-4.2,15.31-5.84c3.48-1.1,7.11-2.09,10.71-2.68
			c4.58-0.77,9.34-0.79,13.97-0.64c20.9,3.96,42.46,6.78,63.7,7.94c16.07,0.99,33.88,0.6,50.03,0.07c-1.64,0.42-3.38,0.96-4.98,1.52
			c-2.49,0.92-9.58,3.55-11.98,4.39c-2.79,1.06-5.81,2.28-7.92,4.44c-0.97,0.99-1.62,2.2-1.99,3.44c-0.83,2.82-0.59,5.81-0.08,8.66
			c0.47,2.75,1.7,5.85,1.39,8.64c-0.31,3.05-2.34,5.52-3.48,8.22c-0.05,0.15-0.07,0.19-0.07,0.19c-0.04,0.14-0.06,0.18-0.06,0.18
			c-0.03,0.13-0.04,0.17-0.04,0.17c-0.03,0.14-0.03,0.16-0.03,0.16c-0.01,0.15-0.01,0.16-0.01,0.16c0.01,0.13,0.01,0.15,0.01,0.15
			c0.04,0.14,0.04,0.16,0.04,0.16c0.09,0.15,0.1,0.16,0.1,0.16c0.14,0.11,0.15,0.11,0.15,0.11c0.14,0.06,0.15,0.06,0.15,0.06
			c0.15,0.03,0.17,0.04,0.17,0.04c0.13,0.02,0.15,0.02,0.15,0.02c0.12,0.01,0.16,0.01,0.16,0.01c0.13,0,0.18,0,0.18,0
			c1.12-0.1,2.01-0.46,2.97-0.83c1.13-0.46,2.25-1.02,3.31-1.63c5.02-2.88,9.18-7.12,12.32-11.96c2.62-4.08,5-8.9,7.88-12.8
			c3.69-5.06,8.06-9.68,12.64-13.94c24.46-0.38,52.99,0.26,77.05-3.46c-1.67,1.36-3.29,2.84-4.69,4.48
			c-1.13,1.31-2.23,2.92-2.8,4.45c-0.68,1.79-0.79,3.54-0.76,5.41c0.06,2.19,0.27,4.86-0.16,7.01c-0.37,1.94-1.19,3.73-2.06,5.48
			c-0.65,1.33-1.75,3.26-2.2,4.62c-0.03,0.11-0.05,0.17-0.05,0.17c-0.03,0.11-0.04,0.16-0.04,0.16c-0.02,0.13-0.03,0.15-0.03,0.15
			c-0.02,0.14-0.02,0.16-0.02,0.16c0,0.13,0,0.15,0,0.15c0.01,0.14,0.02,0.16,0.02,0.16c0.04,0.15,0.05,0.16,0.05,0.16
			c0.09,0.14,0.09,0.15,0.09,0.15c0.14,0.12,0.15,0.13,0.15,0.13c0.15,0.07,0.16,0.08,0.16,0.08c0.14,0.04,0.16,0.05,0.16,0.05
			c0.15,0.02,0.16,0.03,0.16,0.03c0.12,0.01,0.16,0.01,0.16,0.01c0.12,0,0.16,0,0.16,0c0.12,0,0.17-0.01,0.17-0.01
			c0.13-0.01,0.18-0.02,0.18-0.02c0.96-0.12,1.67-0.38,2.52-0.67c1.02-0.36,2.11-0.83,3.1-1.28c3.13-1.42,6.22-3.1,9.18-4.86
			c5.88-3.52,11.57-7.51,16.65-12.13c2.95-2.7,5.67-5.75,8.16-8.88c2.56-3.19,6.29-8.48,9.24-11.22c2.64-2.5,5.8-4.41,9.01-6.08
			c2.34-1.17,5.23-2.33,7.65-3.32c1.92,0.3,3.89,0.2,5.82,0.03c3.9-0.35,7.9-1.01,11.72-1.91c3.92-0.93,7.84-2.14,11.42-4.01
			C620.72,413.28,624.02,410.68,627.14,408.02z"/>
	</g>
</g>
</svg>
