<?xml version="1.0" encoding="utf-8"?>
<!-- Generator: Adobe Illustrator 24.2.1, SVG Export Plug-In . SVG Version: 6.00 Build 0)  -->
<!DOCTYPE svg PUBLIC "-//W3C//DTD SVG 1.1//EN" "http://www.w3.org/Graphics/SVG/1.1/DTD/svg11.dtd" [
	<!ENTITY ns_extend "http://ns.adobe.com/Extensibility/1.0/">
	<!ENTITY ns_ai "http://ns.adobe.com/AdobeIllustrator/10.0/">
	<!ENTITY ns_graphs "http://ns.adobe.com/Graphs/1.0/">
	<!ENTITY ns_vars "http://ns.adobe.com/Variables/1.0/">
	<!ENTITY ns_imrep "http://ns.adobe.com/ImageReplacement/1.0/">
	<!ENTITY ns_sfw "http://ns.adobe.com/SaveForWeb/1.0/">
	<!ENTITY ns_custom "http://ns.adobe.com/GenericCustomNamespace/1.0/">
	<!ENTITY ns_adobe_xpath "http://ns.adobe.com/XPath/1.0/">
]>
<svg version="1.1" xmlns:x="&ns_extend;" xmlns:i="&ns_ai;" xmlns:graph="&ns_graphs;"
	 xmlns="http://www.w3.org/2000/svg" xmlns:xlink="http://www.w3.org/1999/xlink" x="0px" y="0px" width="750px" height="750px"
	 viewBox="0 0 750 750" style="enable-background:new 0 0 750 750;" xml:space="preserve">
<style type="text/css">
	.st0{fill:#FFFFFF;}
	.st1{fill:#FB8604;}
	.st2{fill:none;stroke:#FB8604;stroke-width:2;stroke-linecap:round;stroke-linejoin:round;stroke-miterlimit:10;}
	.st3{fill:none;stroke:#FB8604;stroke-width:3.25;stroke-linecap:round;stroke-linejoin:round;}
	.st4{fill:none;stroke:#FB8604;stroke-width:3.25;stroke-linecap:round;stroke-linejoin:round;stroke-dasharray:4.0141,7.0246;}
	.st5{fill:none;stroke:#FB8604;stroke-width:3.25;stroke-linecap:round;stroke-linejoin:round;stroke-dasharray:3.7694,6.5965;}
	.st6{fill:none;stroke:#FB8604;stroke-width:3.25;stroke-linecap:round;stroke-linejoin:round;stroke-dasharray:3.5662,6.2408;}
	.st7{fill:none;stroke:#FB8604;stroke-width:3.25;stroke-linecap:round;stroke-linejoin:round;stroke-dasharray:4.1763,7.3085;}
	.st8{fill:none;stroke:#FB8604;stroke-width:3.25;stroke-linecap:round;stroke-linejoin:round;stroke-dasharray:3.8612,6.7571;}
	.st9{fill:none;stroke:#FB8604;stroke-width:3.25;stroke-linecap:round;stroke-linejoin:round;stroke-dasharray:3.9751,6.9564;}
	.st10{fill:none;stroke:#FB8604;stroke-width:3.25;stroke-linecap:round;stroke-linejoin:round;stroke-dasharray:4.3021,7.5288;}
	.st11{fill:none;stroke:#FB8604;stroke-width:3.25;stroke-linecap:round;stroke-linejoin:round;stroke-dasharray:4.0666,7.1166;}
	.st12{fill:none;stroke:#FB8604;stroke-width:3.25;stroke-linecap:round;stroke-linejoin:round;stroke-dasharray:3.9891,6.981;}
	.st13{fill:none;stroke:#FB8604;stroke-width:3.25;stroke-linecap:round;stroke-linejoin:round;stroke-dasharray:4.3022,7.5288;}
	.st14{fill:none;stroke:#FB8604;stroke-width:3.25;stroke-linecap:round;stroke-linejoin:round;stroke-dasharray:4.0058,7.0102;}
	.st15{fill:none;stroke:#FB8604;stroke-width:3.25;stroke-linecap:round;stroke-linejoin:round;stroke-dasharray:3.5784,6.2622;}
	.st16{fill:none;stroke:#FB8604;stroke-width:3.25;stroke-linecap:round;stroke-linejoin:round;stroke-dasharray:4.3282,7.5744;}
	.st17{fill:none;stroke:#FB8604;stroke-width:3.25;stroke-linecap:round;stroke-linejoin:round;stroke-dasharray:3.9841,6.9721;}
	.st18{fill:none;stroke:#FB8604;stroke-width:3.25;stroke-linecap:round;stroke-linejoin:round;stroke-dasharray:3.6766,6.4341;}
	.st19{fill:none;stroke:#FB8604;stroke-width:3.25;stroke-linecap:round;stroke-linejoin:round;stroke-dasharray:3.7926,6.637;}
	.st20{fill:none;stroke:#FB8604;stroke-width:3.25;stroke-linecap:round;stroke-linejoin:round;stroke-dasharray:4.0981,7.1717;}
	.st21{fill:none;stroke:#FB8604;stroke-width:3.25;stroke-linecap:round;stroke-linejoin:round;stroke-dasharray:4.0303,7.0531;}
	.st22{fill:none;stroke:#FB8604;stroke-width:3.25;stroke-linecap:round;stroke-linejoin:round;stroke-dasharray:3.9535,6.9186;}
	.st23{fill:none;stroke:#FB8604;stroke-width:3.25;stroke-linecap:round;stroke-linejoin:round;stroke-dasharray:3.9792,6.9637;}
	.st24{fill:none;stroke:#FB8604;stroke-width:3.25;stroke-linecap:round;stroke-linejoin:round;stroke-dasharray:3.8528,6.7423;}
	.st25{fill:none;stroke:#FB8604;stroke-width:3.25;stroke-linecap:round;stroke-linejoin:round;stroke-dasharray:3.6409,6.3716;}
	.st26{fill:none;stroke:#FB8604;stroke-width:3.25;stroke-linecap:round;stroke-linejoin:round;stroke-dasharray:3.818,6.6815;}
	.st27{fill:none;stroke:#FB8604;stroke-width:3.25;stroke-linecap:round;stroke-linejoin:round;stroke-dasharray:3.9417,6.8981;}
	.st28{fill:none;stroke:#FB8604;stroke-width:3.25;stroke-linecap:round;stroke-linejoin:round;stroke-dasharray:4.0547,7.0957;}
	.st29{fill:none;stroke:#FB8604;stroke-width:3.25;stroke-linecap:round;stroke-linejoin:round;stroke-dasharray:4.3912,7.6846;}
	.st30{fill:none;stroke:#FB8604;stroke-width:3.25;stroke-linecap:round;stroke-linejoin:round;stroke-dasharray:4.0013,7.0023;}
	.st31{fill:none;stroke:#FB8604;stroke-width:3.25;stroke-linecap:round;stroke-linejoin:round;stroke-dasharray:4.0671,7.1174;}
	.st32{fill:none;stroke:#FB8604;stroke-width:3.25;stroke-linecap:round;stroke-linejoin:round;stroke-dasharray:4.0262,7.0458;}
	.st33{fill:none;stroke:#FB8604;stroke-width:3.25;stroke-linecap:round;stroke-linejoin:round;stroke-dasharray:4.0266,7.0465;}
	.st34{fill:none;stroke:#FB8604;stroke-width:3.25;stroke-linecap:round;stroke-linejoin:round;stroke-dasharray:3.797,6.6447;}
	.st35{fill:none;stroke:#FB8604;stroke-width:3.25;stroke-linecap:round;stroke-linejoin:round;stroke-dasharray:3.9746,6.9556;}
	.st36{fill:none;stroke:#FB8604;stroke-width:3.25;stroke-linecap:round;stroke-linejoin:round;stroke-dasharray:4.1097,7.1919;}
	.st37{fill:none;stroke:#FB8604;stroke-width:3.25;stroke-linecap:round;stroke-linejoin:round;stroke-dasharray:3.8239,6.6918;}
	.st38{fill:none;stroke:#FB8604;stroke-width:3.25;stroke-linecap:round;stroke-linejoin:round;stroke-dasharray:3.7648,6.5884;}
	.st39{fill:none;stroke:#FB8604;stroke-width:3.25;stroke-linecap:round;stroke-linejoin:round;stroke-dasharray:4.0208,7.0364;}
	.st40{fill:none;stroke:#FB8604;stroke-width:3.25;stroke-linecap:round;stroke-linejoin:round;stroke-dasharray:3.9442,6.9024;}
	.st41{fill:none;stroke:#FB8604;stroke-width:3.25;stroke-linecap:round;stroke-linejoin:round;stroke-dasharray:3.9752,6.9566;}
	.st42{fill:none;stroke:#FB8604;stroke-width:3.25;stroke-linecap:round;stroke-linejoin:round;stroke-dasharray:3.7278,6.5237;}
	.st43{fill:none;stroke:#FB8604;stroke-width:3.25;stroke-linecap:round;stroke-linejoin:round;stroke-dasharray:4.4991,7.8735;}
	.st44{fill:none;stroke:#FB8604;stroke-width:3.25;stroke-linecap:round;stroke-linejoin:round;stroke-dasharray:4.1345,7.2353;}
	.st45{fill:none;stroke:#FB8604;stroke-width:3.25;stroke-linecap:round;stroke-linejoin:round;stroke-dasharray:3.821,6.6868;}
	.st46{fill:none;stroke:#FB8604;stroke-width:3.25;stroke-linecap:round;stroke-linejoin:round;stroke-dasharray:3.9354,6.8869;}
	.st47{fill:none;stroke:#FB8604;stroke-width:3.25;stroke-linecap:round;stroke-linejoin:round;stroke-dasharray:4.2577,7.451;}
	.st48{fill:none;stroke:#FB8604;stroke-width:3.25;stroke-linecap:round;stroke-linejoin:round;stroke-dasharray:4.0269,7.0472;}
	.st49{fill:none;stroke:#FB8604;stroke-width:3.25;stroke-linecap:round;stroke-linejoin:round;stroke-dasharray:3.9502,6.9128;}
	.st50{fill:none;stroke:#FB8604;stroke-width:3.25;stroke-linecap:round;stroke-linejoin:round;stroke-dasharray:3.9807,6.9662;}
	.st51{fill:none;stroke:#FB8604;stroke-width:3.25;stroke-linecap:round;stroke-linejoin:round;stroke-dasharray:3.7337,6.5339;}
	.st52{fill:none;stroke:#FB8604;stroke-width:3.25;stroke-linecap:round;stroke-linejoin:round;stroke-dasharray:4.5058,7.8852;}
	.st53{fill:none;stroke:#FB8604;stroke-width:3.25;stroke-linecap:round;stroke-linejoin:round;stroke-dasharray:4.1403,7.2456;}
	.st54{fill:none;stroke:#FB8604;stroke-width:3.25;stroke-linecap:round;stroke-linejoin:round;stroke-dasharray:3.8267,6.6967;}
	.st55{fill:none;stroke:#FB8604;stroke-width:3.25;stroke-linecap:round;stroke-linejoin:round;stroke-dasharray:3.9409,6.8967;}
	.st56{fill:none;stroke:#FB8604;stroke-width:3.25;stroke-linecap:round;stroke-linejoin:round;stroke-dasharray:4.2639,7.4619;}
	.st57{fill:none;stroke:#FB8604;stroke-width:3.25;stroke-linecap:round;stroke-linejoin:round;stroke-dasharray:4.0325,7.0569;}
	.st58{fill:none;stroke:#FB8604;stroke-width:3.25;stroke-linecap:round;stroke-linejoin:round;stroke-dasharray:3.9557,6.9224;}
	.st59{fill:none;stroke:#FB8604;stroke-width:3.25;stroke-linecap:round;stroke-linejoin:round;stroke-dasharray:4.0077,7.0134;}
	.st60{fill:none;stroke:#FB8604;stroke-width:3.25;stroke-linecap:round;stroke-linejoin:round;stroke-dasharray:4.2017,7.353;}
	.st61{fill:none;stroke:#FB8604;stroke-width:3.25;stroke-linecap:round;stroke-linejoin:round;stroke-dasharray:4.4376,7.7657;}
	.st62{fill:none;stroke:#FB8604;stroke-width:3.25;stroke-linecap:round;stroke-linejoin:round;stroke-dasharray:3.9152,6.8516;}
	.st63{fill:none;stroke:#FB8604;stroke-width:3.25;stroke-linecap:round;stroke-linejoin:round;stroke-dasharray:3.4926,6.112;}
	.st64{fill:none;stroke:#FB8604;stroke-width:3.25;stroke-linecap:round;stroke-linejoin:round;stroke-dasharray:4.1613,7.2822;}
	.st65{fill:none;stroke:#FB8604;stroke-width:3.25;stroke-linecap:round;stroke-linejoin:round;stroke-dasharray:3.9034,6.8309;}
	.st66{fill:none;stroke:#FB8604;stroke-width:3.25;stroke-linecap:round;stroke-linejoin:round;stroke-dasharray:3.9635,6.9362;}
	.st67{fill:none;stroke:#FB8604;stroke-width:3.25;stroke-linecap:round;stroke-linejoin:round;stroke-dasharray:4.0855,7.1496;}
	.st68{fill:none;stroke:#FB8604;stroke-width:3.25;stroke-linecap:round;stroke-linejoin:round;stroke-dasharray:3.9843,6.9725;}
	.st69{fill:none;stroke:#FB8604;stroke-width:3.25;stroke-linecap:round;stroke-linejoin:round;stroke-dasharray:4.5619,7.9833;}
	.st70{fill:none;stroke:#FB8604;stroke-width:3.25;stroke-linecap:round;stroke-linejoin:round;stroke-dasharray:3.473,6.0778;}
	.st71{fill:none;stroke:#FB8604;stroke-width:3.25;stroke-linecap:round;stroke-linejoin:round;stroke-dasharray:4.2074,7.3629;}
	.st72{fill:none;stroke:#FB8604;stroke-width:3.25;stroke-linecap:round;stroke-linejoin:round;stroke-dasharray:3.7677,6.5934;}
	.st73{fill:none;stroke:#FB8604;stroke-width:3.25;stroke-linecap:round;stroke-linejoin:round;stroke-dasharray:3.8856,6.7997;}
	.st74{fill:none;stroke:#FB8604;stroke-width:3.25;stroke-linecap:round;stroke-linejoin:round;stroke-dasharray:4.2077,7.3634;}
	.st75{fill:none;stroke:#FB8604;stroke-width:3.25;stroke-linecap:round;stroke-linejoin:round;stroke-dasharray:4.0523,7.0915;}
	.st76{fill:none;stroke:#FB8604;stroke-width:3.25;stroke-linecap:round;stroke-linejoin:round;stroke-dasharray:3.9747,6.9557;}
	.st77{fill:none;stroke:#FB8604;stroke-width:3.25;stroke-linecap:round;stroke-linejoin:round;stroke-dasharray:3.9761,6.9582;}
	.st78{fill:none;stroke:#FB8604;stroke-width:3.25;stroke-linecap:round;stroke-linejoin:round;stroke-dasharray:4.1619,7.2833;}
	.st79{fill:none;stroke:#FB8604;stroke-width:3.25;stroke-linecap:round;stroke-linejoin:round;stroke-dasharray:4.3986,7.6975;}
	.st80{fill:none;stroke:#FB8604;stroke-width:3.25;stroke-linecap:round;stroke-linejoin:round;stroke-dasharray:3.8829,6.7951;}
	.st81{fill:none;stroke:#FB8604;stroke-width:3.25;stroke-linecap:round;stroke-linejoin:round;stroke-dasharray:3.4622,6.0588;}
	.st82{fill:none;stroke:#FB8604;stroke-width:3.25;stroke-linecap:round;stroke-linejoin:round;stroke-dasharray:4.127,7.2223;}
	.st83{fill:none;stroke:#FB8604;stroke-width:3.25;stroke-linecap:round;stroke-linejoin:round;stroke-dasharray:3.8697,6.772;}
	.st84{fill:none;stroke:#FB8604;stroke-width:3.25;stroke-linecap:round;stroke-linejoin:round;stroke-dasharray:3.932,6.881;}
	.st85{fill:none;stroke:#FB8604;stroke-width:3.25;stroke-linecap:round;stroke-linejoin:round;stroke-dasharray:4.053,7.0927;}
	.st86{fill:none;stroke:#FB8604;stroke-width:2.75;stroke-linecap:round;stroke-linejoin:round;stroke-miterlimit:10;}
	.st87{fill:none;stroke:#FB8604;stroke-width:3.5;stroke-linecap:round;stroke-linejoin:round;stroke-miterlimit:10;}
</style>
<metadata>
	<sfw  xmlns="&ns_sfw;">
		<slices></slices>
		<sliceSourceBounds  bottomLeftOrigin="true" height="10750" width="4280" x="-2000" y="-3120"></sliceSourceBounds>
	</sfw>
</metadata>
<g id="FILL-BACKGROUND">
	<rect class="st0" width="750" height="750"/>
</g>
<g id="N-TEXT">
</g>
<g id="N-DIMENSIONS">
</g>
<g id="AG-DETAIL-DIAGRAM">
</g>
<g id="AG-DETAILS">
	<g id="POLYLINE_643_">
		<path class="st2" d="M480.11,370.51c3.68,0.97,7.9,2.22,11.66,2.66c3.09,0.37,6.28,0.34,9.39,0.17c5.15-0.3,12.14-1.06,17.27-0.85
			c5.29,0.14,10.7,0.87,15.91,1.77l18.75,3.45c3.72,0.61,7.68,1.17,11.44,1.46c4.06,0.32,8.43,0.31,12.51,0.18
			c2.9-0.1,10.22-0.42,13.03-0.42c9.06,0.09,26.88,0.36,35.85,0.29"/>
	</g>
	<g id="POLYLINE_644_">
		<path class="st2" d="M460.74,368.66c3.01-0.22,6.1-0.3,9.11-0.06c2.55,0.2,5.13,0.67,7.62,1.26"/>
	</g>
	<g id="POLYLINE_645_">
		<path class="st2" d="M434.32,372.26c4.8-0.59,17.39-2.68,22.14-3.19"/>
	</g>
	<g id="POLYLINE_646_">
		<path class="st2" d="M409.19,375.41c5.36-0.84,16.17-2.07,21.67-2.72"/>
	</g>
	<g id="POLYLINE_647_">
		<path class="st2" d="M385.19,378.61c6.15-0.5,15.1-1.88,21.28-2.79"/>
	</g>
	<g id="POLYLINE_648_">
		<path class="st2" d="M357.56,378.39c7.99,0.48,17.03,1.01,24.98,0.42"/>
	</g>
	<g id="POLYLINE_649_">
		<path class="st2" d="M332.7,377.63c7.02-0.11,14.65,0.17,21.67,0.57"/>
	</g>
	<g id="POLYLINE_650_">
		<path class="st2" d="M306.23,380.23l9.01-1.35c4.98-0.7,10.22-1.08,15.25-1.21"/>
	</g>
	<g id="POLYLINE_651_">
		<path class="st2" d="M280.43,382.57c7.63-0.22,15.52-0.77,23.06-1.92"/>
	</g>
	<g id="POLYLINE_652_">
		<path class="st2" d="M256.66,382.91c5.35-0.02,16.11-0.16,21.45-0.27"/>
	</g>
	<g id="POLYLINE_653_">
		<path class="st2" d="M233.29,383.46c5.73-0.28,14.58-0.46,20.37-0.53"/>
	</g>
	<g id="POLYLINE_654_">
		<path class="st2" d="M215.94,384.07c4.02-0.04,10.43-0.31,14.49-0.49"/>
	</g>
	<g id="POLYLINE_655_">
		<path class="st2" d="M198.44,383.59c3.59,0.14,11.25,0.51,14.74,0.5"/>
	</g>
	<g id="POLYLINE_656_">
		<path class="st2" d="M179.75,384.23c4.96-0.79,10.08-0.88,15.09-0.76"/>
	</g>
	<g id="POLYLINE_657_">
		<path class="st2" d="M165.9,372.14c1.16,2.25,2.4,4.64,2.46,7.22c0.06,1.4-0.3,3.01-0.06,4.38c0.02,0.07,0.02,0.11,0.02,0.11
			c0.02,0.07,0.03,0.11,0.03,0.11c0.02,0.07,0.03,0.1,0.03,0.1c0.02,0.07,0.04,0.1,0.04,0.1c0.04,0.1,0.05,0.11,0.05,0.11
			c0.05,0.09,0.05,0.11,0.05,0.11c0.05,0.09,0.06,0.1,0.06,0.1c0.07,0.1,0.08,0.11,0.08,0.11c0.08,0.09,0.09,0.1,0.09,0.1
			c0.09,0.09,0.11,0.1,0.11,0.1c0.09,0.07,0.11,0.09,0.11,0.09c0.08,0.06,0.1,0.07,0.1,0.07c0.09,0.05,0.11,0.06,0.11,0.06
			c0.1,0.05,0.11,0.06,0.11,0.06c0.08,0.03,0.1,0.04,0.1,0.04c0.06,0.02,0.11,0.04,0.11,0.04c0.09,0.03,0.13,0.04,0.13,0.04
			c0.09,0.03,0.14,0.04,0.14,0.04c0.7,0.17,1.31,0.16,2.01,0.13c0.93-0.04,1.92-0.17,2.84-0.31l2.99-0.48"/>
	</g>
	<g id="POLYLINE_658_">
		<path class="st2" d="M489.19,333.73c-2.22,3.34-4.44,6.86-6.05,10.54c-1.76,3.95-2.93,8.19-3.78,12.42
			c-0.83,4.16-1.51,8.56-1.86,12.79c-0.1,1.59-0.27,3.36-0.04,4.93c0.02,0.1,0.03,0.13,0.03,0.13c0.02,0.09,0.03,0.12,0.03,0.12
			c0.03,0.08,0.03,0.1,0.03,0.1c0.04,0.08,0.05,0.1,0.05,0.1c0.06,0.09,0.08,0.1,0.08,0.1c0.09,0.05,0.1,0.05,0.1,0.05
			c0.09-0.01,0.11-0.01,0.11-0.01c0.09-0.05,0.1-0.06,0.1-0.06c0.1-0.09,0.11-0.1,0.11-0.1c0.07-0.09,0.09-0.1,0.09-0.1
			c0.06-0.08,0.08-0.1,0.08-0.1c0.52-0.79,0.85-1.62,1.21-2.48c2.58-6.57,5.25-15.58,8.01-22.04c1.14-2.66,2.41-5.33,4.12-7.68
			c1.45-2.01,3.27-3.78,5.1-5.45"/>
	</g>
	<g id="POLYLINE_659_">
		<path class="st2" d="M463.95,331.66c-1.73,2.99-3.5,6.1-4.69,9.34c-2.09,5.62-2.68,11.69-2.96,17.65
			c-0.14,3.83-0.14,7.74,0.27,11.55c0.19,1.53,0.39,3.19,1.02,4.61c0.04,0.09,0.06,0.13,0.06,0.13c0.04,0.08,0.07,0.12,0.07,0.12
			c0.04,0.08,0.07,0.11,0.07,0.11c0.05,0.07,0.07,0.1,0.07,0.1c0.07,0.09,0.08,0.1,0.08,0.1c0.08,0.09,0.09,0.1,0.09,0.1
			c0.09,0.09,0.1,0.1,0.1,0.1c0.09,0.07,0.11,0.08,0.11,0.08c0.1,0.06,0.11,0.06,0.11,0.06c0.1,0.04,0.11,0.04,0.11,0.04
			c0.1,0.02,0.11,0.03,0.11,0.03c0.1,0.01,0.11,0.01,0.11,0.01c0.1-0.01,0.11-0.01,0.11-0.01c0.09-0.02,0.11-0.02,0.11-0.02
			c0.09-0.03,0.1-0.04,0.1-0.04c0.09-0.05,0.1-0.06,0.1-0.06c0.1-0.07,0.11-0.08,0.11-0.08c0.09-0.09,0.11-0.1,0.11-0.1
			c0.08-0.09,0.09-0.11,0.09-0.11c0.06-0.08,0.07-0.1,0.07-0.1c0.06-0.09,0.07-0.11,0.07-0.11c0.05-0.1,0.07-0.12,0.07-0.12
			c0.04-0.08,0.05-0.1,0.05-0.1c0.28-0.61,0.39-1.13,0.52-1.74c0.18-0.91,0.3-1.96,0.4-2.89c0.29-2.98,0.69-8.04,1.2-10.93
			c0.58-3.56,1.44-7.24,2.45-10.7c1.03-3.48,2.26-7,3.83-10.27c1.15-2.41,2.62-4.74,4.11-6.95"/>
	</g>
	<g id="POLYLINE_660_">
		<path class="st2" d="M432.8,334.62c-1.05,3.88-2.08,7.94-2.51,11.94c-0.54,4.77-0.5,9.75-0.33,14.55c0.2,4.56,0.5,9.34,1.25,13.85
			c0.19,1.03,0.39,2.12,0.76,3.1c0.05,0.13,0.09,0.21,0.11,0.26c0.04,0.08,0.05,0.11,0.05,0.11c0.04,0.07,0.06,0.1,0.06,0.1
			c0.06,0.09,0.07,0.12,0.07,0.12c0.06,0.08,0.08,0.1,0.08,0.1c0.08,0.08,0.1,0.1,0.1,0.1c0.1,0.07,0.1,0.08,0.1,0.08
			c0.1,0.04,0.1,0.04,0.1,0.04c0.1,0.01,0.1,0.01,0.1,0.01c0.1-0.01,0.1-0.02,0.1-0.02c0.1-0.04,0.11-0.05,0.11-0.05
			c0.1-0.07,0.11-0.08,0.11-0.08c0.1-0.1,0.1-0.1,0.1-0.1c0.07-0.09,0.08-0.11,0.08-0.11c0.06-0.09,0.07-0.11,0.07-0.11
			c0.04-0.07,0.06-0.1,0.06-0.1c0.04-0.08,0.06-0.11,0.06-0.11c0.3-0.66,0.4-1.24,0.52-1.91c0.16-0.98,0.24-2.08,0.31-3.08
			c0.24-4.61,0.51-11.03,1.21-15.54c1.13-8.03,3.08-16.26,5.15-24.1"/>
	</g>
	<g id="POLYLINE_661_">
		<path class="st2" d="M409.01,337.91c-1.16,2.77-2.3,5.64-2.92,8.58c-0.96,4.49-1.19,9.13-1.2,13.71
			c0.04,5.27,0.4,10.61,1.61,15.75c0.25,1.02,0.53,2.08,0.87,3.08c0.25,0.72,0.56,1.58,0.95,2.21c0.06,0.09,0.08,0.12,0.08,0.12
			c0.07,0.09,0.08,0.1,0.08,0.1c0.09,0.1,0.1,0.11,0.1,0.11c0.1,0.07,0.1,0.07,0.1,0.07c0.09,0.02,0.1,0.02,0.1,0.02
			c0.1-0.04,0.1-0.04,0.1-0.04c0.07-0.1,0.08-0.11,0.08-0.11c0.04-0.09,0.05-0.1,0.05-0.1c0.03-0.09,0.03-0.11,0.03-0.11
			c0.03-0.12,0.04-0.17,0.05-0.22c0.16-0.94,0.14-1.93,0.14-2.88c-0.1-5.28-0.39-11.41-0.02-16.65c0.48-8.36,2.26-16.66,5.32-24.46"
			/>
	</g>
	<g id="POLYLINE_662_">
		<path class="st2" d="M384.47,341.8c-1.18,3.92-2.36,8.09-2.8,12.15c-0.55,4.6-0.45,9.37-0.2,13.99c0.22,3.62,0.55,7.46,1.1,11.04
			c0.22,1.27,0.43,2.7,0.9,3.88c0.04,0.09,0.06,0.12,0.06,0.12c0.04,0.08,0.06,0.11,0.06,0.11c0.06,0.09,0.07,0.11,0.07,0.11
			c0.09,0.09,0.1,0.11,0.1,0.11c0.1,0.05,0.1,0.05,0.1,0.05c0.1-0.01,0.1-0.01,0.1-0.01c0.09-0.06,0.1-0.07,0.1-0.07
			c0.08-0.09,0.09-0.1,0.09-0.1c0.06-0.1,0.07-0.11,0.07-0.11c0.05-0.09,0.06-0.12,0.06-0.12c0.03-0.07,0.04-0.1,0.04-0.1
			c0.31-0.8,0.44-1.58,0.59-2.41c0.79-4.69,0.88-10.8,1.13-15.58c0.14-2.59,0.37-5.29,0.79-7.85c0.92-5.61,2.69-11.11,4.78-16.38"/>
	</g>
	<g id="POLYLINE_663_">
		<path class="st2" d="M361.28,345.76c-0.86,1.29-2.13,2.77-2.94,4.1c-0.61,0.99-1.1,2.06-1.48,3.16c-0.47,1.38-0.79,2.83-1.04,4.26
			c-0.44,2.55-0.73,5.26-0.94,7.84c-0.41,5.29-0.62,10.89-0.45,16.19c0.07,1.38,0.11,2.86,0.38,4.21c0.03,0.15,0.06,0.23,0.07,0.28
			c0.02,0.08,0.04,0.12,0.04,0.12c0.02,0.07,0.04,0.1,0.04,0.1c0.04,0.09,0.05,0.11,0.05,0.11c0.05,0.09,0.07,0.1,0.07,0.1
			c0.1,0.07,0.1,0.07,0.1,0.07c0.1-0.01,0.11-0.01,0.11-0.01c0.09-0.07,0.1-0.08,0.1-0.08c0.07-0.09,0.08-0.11,0.08-0.11
			c0.05-0.08,0.06-0.1,0.06-0.1c0.04-0.08,0.06-0.1,0.06-0.1c0.3-0.62,0.46-1.22,0.65-1.87c0.62-2.09,2.65-11.94,3.17-14.23
			c0.99-4.34,2.17-8.81,3.75-12.97c1.62-4.29,3.67-8.47,5.95-12.45"/>
	</g>
	<g id="POLYLINE_664_">
		<path class="st2" d="M332.25,350.94l-1.44,3.6c-0.68,1.78-1.2,3.64-1.44,5.53c-0.4,3.06-0.22,6.19,0.04,9.26
			c0.31,3.41,0.81,7.03,1.44,10.4c0.29,1.41,0.56,2.94,1.06,4.29c0.04,0.09,0.05,0.11,0.05,0.11c0.05,0.1,0.06,0.12,0.06,0.12
			c0.05,0.09,0.06,0.11,0.06,0.11c0.1,0.09,0.1,0.09,0.1,0.09c0.1-0.04,0.1-0.05,0.1-0.05c0.05-0.09,0.05-0.11,0.05-0.11
			c0.03-0.09,0.03-0.1,0.03-0.1c0.02-0.08,0.03-0.13,0.03-0.13c0.13-0.74,0.15-1.58,0.19-2.33c0.14-4.5,0.16-10.35,0.82-14.76
			c0.36-2.58,0.93-5.18,1.65-7.69c0.85-3.02,2.19-6.49,3.33-9.43"/>
	</g>
	<g id="POLYLINE_665_">
		<path class="st2" d="M303.72,356.08c-0.65,2.63-1.35,5.44-1.55,8.13c-0.26,3.11-0.03,6.28,0.3,9.38c0.35,3.13,0.84,6.43,1.5,9.51
			c0.25,1.08,0.5,2.28,0.92,3.3c0.04,0.09,0.05,0.11,0.05,0.11c0.04,0.08,0.05,0.1,0.05,0.1c0.05,0.09,0.06,0.11,0.06,0.11
			c0.06,0.09,0.07,0.1,0.07,0.1c0.09,0.09,0.1,0.1,0.1,0.1c0.1,0.02,0.11,0.02,0.11,0.02c0.09-0.07,0.1-0.08,0.1-0.08
			c0.06-0.09,0.06-0.1,0.06-0.1c0.04-0.09,0.05-0.1,0.05-0.1c0.03-0.08,0.04-0.1,0.04-0.1c0.15-0.5,0.19-0.91,0.26-1.41
			c0.3-2.52,0.59-9.09,0.82-11.66c0.44-5.93,1.87-12.64,3.1-18.49"/>
	</g>
	<g id="POLYLINE_666_">
		<path class="st2" d="M275.86,360.91c0.09,6.04,0.85,12.26,1.7,18.24c0.26,1.79,0.57,3.78,0.95,5.54c0.15,0.65,0.32,1.42,0.56,2.03
			c0.03,0.08,0.04,0.11,0.04,0.11c0.04,0.09,0.05,0.12,0.05,0.12c0.05,0.1,0.06,0.11,0.06,0.11c0.07,0.1,0.08,0.11,0.08,0.11
			c0.09,0.06,0.1,0.07,0.1,0.07c0.1-0.01,0.11-0.02,0.11-0.02c0.1-0.1,0.1-0.11,0.1-0.11c0.05-0.1,0.06-0.11,0.06-0.11
			c0.04-0.09,0.05-0.11,0.05-0.11c0.02-0.06,0.04-0.1,0.04-0.1c0.38-1.27,0.48-2.61,0.64-3.92c0.59-7.17,1.71-15.98,2.34-23.14"/>
	</g>
	<g id="POLYLINE_667_">
		<path class="st2" d="M254.22,364.44l-0.77,2.49c-0.48,1.6-0.83,3.26-0.93,4.93c-0.17,2.56,0.14,5.15,0.52,7.67
			c0.38,2.39,0.89,4.92,1.5,7.26c0.31,1.13,0.63,2.36,1.14,3.41c0.05,0.1,0.07,0.12,0.07,0.12c0.05,0.08,0.06,0.1,0.06,0.1
			c0.07,0.1,0.09,0.11,0.09,0.11c0.09,0.08,0.1,0.09,0.1,0.09c0.1,0.02,0.11,0.02,0.11,0.02c0.1-0.07,0.1-0.09,0.1-0.09
			c0.05-0.09,0.06-0.11,0.06-0.11c0.03-0.09,0.04-0.11,0.04-0.11c0.02-0.08,0.03-0.1,0.03-0.1c0.12-0.51,0.14-0.94,0.18-1.44
			c0.16-3.09,0.11-7.53,0.3-10.6c0.19-3.55,0.84-7.1,1.83-10.51l1.23-4.14"/>
	</g>
	<g id="POLYLINE_668_">
		<path class="st2" d="M235.19,367.35c-1.24,1.24-2.69,2.59-3.63,4.07c-0.72,1.1-1.23,2.35-1.49,3.64
			c-0.24,1.19-0.28,2.43-0.23,3.64c0.06,1.52,0.26,3.07,0.54,4.56c0.23,1.25,0.53,2.54,0.91,3.75c0.2,0.64,0.45,1.37,0.77,1.95
			c0.05,0.09,0.07,0.11,0.07,0.11c0.07,0.1,0.08,0.12,0.08,0.12c0.07,0.09,0.09,0.11,0.09,0.11c0.09,0.08,0.11,0.09,0.11,0.09
			c0.1,0.03,0.11,0.04,0.11,0.04c0.1-0.04,0.11-0.05,0.11-0.05c0.07-0.09,0.08-0.11,0.08-0.11c0.04-0.09,0.05-0.11,0.05-0.11
			c0.03-0.09,0.04-0.11,0.04-0.11c0.03-0.09,0.04-0.13,0.04-0.13c0.3-1.32,0.42-5.05,0.55-6.44c0.16-1.95,0.36-3.95,0.85-5.85
			c0.38-1.48,0.95-2.92,1.69-4.25c1.12-2.05,2.83-4,4.34-5.78"/>
	</g>
	<g id="POLYLINE_669_">
		<path class="st2" d="M213.07,370.47c-0.24,1.48-0.52,3.2-0.56,4.68c-0.07,1.88,0.08,3.85,0.27,5.72c0.2,1.93,0.47,3.98,0.84,5.88
			c0.16,0.79,0.34,1.67,0.62,2.42c0.04,0.09,0.06,0.14,0.06,0.14c0.04,0.08,0.05,0.1,0.05,0.1c0.05,0.09,0.06,0.1,0.06,0.1
			c0.07,0.1,0.08,0.11,0.08,0.11c0.09,0.08,0.1,0.09,0.1,0.09c0.09,0.02,0.1,0.01,0.1,0.01c0.09-0.05,0.1-0.06,0.1-0.06
			c0.08-0.1,0.08-0.11,0.08-0.11c0.05-0.1,0.06-0.11,0.06-0.11c0.03-0.07,0.04-0.1,0.04-0.1c0.03-0.07,0.04-0.11,0.04-0.11
			c0.62-1.99,1.03-6.34,1.37-8.44c0.46-3.27,1.48-7.78,2.1-11.05"/>
	</g>
	<g id="POLYLINE_670_">
		<path class="st2" d="M194.9,372.66c-0.34,1.55-0.62,3.15-0.66,4.74c-0.05,1.73,0.15,3.48,0.44,5.18c0.25,1.41,0.57,2.88,0.97,4.25
			c0.22,0.75,0.49,1.59,0.86,2.28c0.05,0.08,0.07,0.12,0.07,0.12c0.05,0.08,0.07,0.11,0.07,0.11c0.07,0.1,0.08,0.11,0.08,0.11
			c0.08,0.09,0.09,0.11,0.09,0.11c0.1,0.09,0.11,0.1,0.11,0.1c0.1,0.05,0.11,0.05,0.11,0.05c0.09,0.01,0.1,0.01,0.1,0.01
			c0.1-0.04,0.11-0.04,0.11-0.04c0.09-0.08,0.1-0.09,0.1-0.09c0.06-0.09,0.07-0.1,0.07-0.1c0.05-0.09,0.06-0.11,0.06-0.11
			c0.04-0.09,0.05-0.11,0.05-0.11c0.03-0.08,0.05-0.12,0.05-0.12c0.23-0.64,0.33-1.23,0.44-1.89c0.18-1.12,0.3-2.38,0.4-3.51
			c0.29-3.77,0.61-7.73,0.41-11.51"/>
	</g>
	<g id="POLYLINE_671_">
		<path class="st2" d="M177.72,373.91c-0.2,1.43-0.37,2.94-0.4,4.39c-0.04,1.69,0.05,3.43,0.17,5.11c0.1,1.28,0.24,2.66,0.42,3.93
			c0.09,0.6,0.21,1.34,0.4,1.89c0.04,0.09,0.04,0.11,0.04,0.11c0.04,0.09,0.05,0.1,0.05,0.1c0.06,0.09,0.07,0.1,0.07,0.1
			c0.09,0.06,0.1,0.06,0.1,0.06c0.09-0.04,0.1-0.05,0.1-0.05c0.07-0.1,0.08-0.11,0.08-0.11c0.04-0.09,0.05-0.1,0.05-0.1
			c0.04-0.09,0.05-0.12,0.05-0.12c0.33-1,0.45-1.99,0.62-3.01c0.51-3.83,1.18-8.57,1.52-12.41"/>
	</g>
</g>
<g id="AG-ANIMALS">
	<g id="POLYLINE_682_">
		<path class="st86" d="M169.35,396.03c-0.68,0.06-5.68,0.27-6.49,0.31c-0.6,0.03-1.82,0.12-2.42,0.17
			c-3.29,0.27-8.49,0.92-11.72,0.94c-1.72,0.03-3.48-0.01-5.17-0.32c-1.09-0.2-2.17-0.53-3.13-1.08c-1.22-0.69-2.15-1.7-2.8-2.84
			c-1.12-1.97-1.62-4.25-1.87-6.49c-0.2-1.96-0.16-3.95,0.15-5.9c0.23-1.41,0.6-2.81,1.23-4.1c0.42-0.89,1.09-1.85,1.8-2.46
			c0.93-0.81,1.96-1.29,3.08-1.61c1.52-0.43,3.12-0.52,4.69-0.53c2.88,0,6.4,0.24,9.28,0.26c3.14,0.04,6.77-0.09,9.92-0.26"/>
	</g>
	<g id="POLYLINE_372_">
		<path class="st86" d="M480.07,425.17c-6.63,4.05-13.78,7.63-20.87,10.8c-7.62,3.3-16.28,6.23-24.16,8.89
			c-11.73,3.93-25.37,8-37.34,11.27c-0.94,0.28-2.33,0.65-3.24,1.06c-0.09,0.05-0.11,0.05-0.11,0.05c-0.1,0.06-0.11,0.06-0.11,0.06
			c-0.09,0.1-0.09,0.1-0.09,0.1c0.09,0.08,0.11,0.08,0.11,0.08c0.09,0.02,0.1,0.02,0.1,0.02c0.07,0.01,0.1,0.01,0.1,0.01
			c0.68,0.02,1.32-0.05,1.99-0.12c3.34-0.38,6.97-0.98,10.29-1.57c13.6-2.48,27.09-6.39,40.01-11.28
			c14.42-5.55,28.82-12.04,41.84-20.42"/>
	</g>
	<g id="POLYLINE_371_">
		<path class="st86" d="M257.61,363.9c-0.55-0.28-0.93-0.57-1.37-0.92c-0.33-0.27-1.25-1.01-1.54-1.29c-0.08-0.08-0.11-0.1-0.11-0.1
			c-0.07-0.08-0.1-0.1-0.1-0.1c-0.07-0.08-0.09-0.1-0.09-0.1c-0.07-0.1-0.08-0.11-0.08-0.11c-0.06-0.1-0.06-0.11-0.06-0.11
			c-0.04-0.1-0.04-0.1-0.04-0.1c-0.02-0.1-0.02-0.1-0.02-0.1c0-0.1,0-0.1,0-0.1c0.03-0.1,0.03-0.1,0.03-0.1
			c0.06-0.1,0.07-0.11,0.07-0.11c0.1-0.09,0.11-0.1,0.11-0.1c0.09-0.06,0.1-0.07,0.1-0.07c0.09-0.05,0.12-0.07,0.12-0.07
			c0.07-0.03,0.1-0.05,0.1-0.05c1.42-0.58,3.31-0.8,4.78-1.21c1.01-0.25,2.13-0.66,2.88-1.35c0.59-0.53,1.01-1.07,1.51-1.61
			c0.38-0.41,0.85-0.85,1.24-1.17c1.84-1.5,4-2.78,6.31-3.36c0.87-0.21,1.71-0.27,2.57-0.17c1.51,0.14,3.14,0.9,4.64,0.86
			c0.09,0,0.13-0.01,0.13-0.01c0.09-0.01,0.13-0.01,0.13-0.01c0.09-0.01,0.13-0.02,0.13-0.02c0.09-0.01,0.13-0.02,0.13-0.02
			c0.09-0.02,0.13-0.03,0.13-0.03c0.09-0.02,0.13-0.04,0.13-0.04c0.09-0.03,0.13-0.04,0.13-0.04c1.69-0.61,2.99-2.05,4.56-2.83
			c1.33-0.71,2.76-0.72,4.19-0.59c1.7,0.16,3.65,0.5,5.35,0.31c1.6-0.16,3.04-0.76,4.47-1.43c2.13-1,4.42-2.38,6.73-2.84
			c2.35-0.47,4.69,0.37,7,0.67c0.9,0.12,1.93,0.14,2.79-0.04c2.19-0.45,4.13-1.89,6.01-3.02c1.61-0.98,3.46-2.12,5.39-2.02
			c1.34,0.04,2.77,0.59,4.04,0.96c0.72,0.22,1.56,0.41,2.3,0.42c0.86,0.01,1.6-0.2,2.36-0.48c2.08-0.81,4.21-2.15,6.36-2.74
			c1.14-0.34,2.35-0.49,3.54-0.54c2.22-0.11,5.33,0.19,7.56,0.24c1.15,0.02,2.46,0,3.53-0.35c1.18-0.39,1.93-1.29,2.76-2.11
			c0.5-0.51,1.14-1.02,1.72-1.31c1.31-0.67,2.62-0.95,4.03-1.19c4.14-0.67,9.98-0.57,14.22-0.67c2.57-0.07,5.31-0.13,7.83-0.59
			c1.06-0.19,2.22-0.5,3.17-0.98c0.71-0.36,1.22-0.78,1.75-1.27c0.59-0.56,1.38-1.39,2.06-1.78c1.17-0.69,2.43-0.71,3.71-0.72
			c1.73,0.01,4.3,0.27,6.04,0.31c1.51,0.05,3.05-0.04,4.53-0.36c2.26-0.45,4.85-1.52,7.03-2.31c1.94-0.72,4.01-1.3,6.03-1.77
			c4.18-0.96,9.53-1.95,13.5-3.47c2.13-0.8,4.22-1.8,6.18-2.96c1.57-0.94,3.1-2.01,4.44-3.27c1.04-0.96,2.14-2.27,3.22-3.18
			c0.77-0.66,1.78-1.19,2.51-1.87c0.1-0.09,0.15-0.14,0.15-0.14c0.36-0.36,0.61-0.7,0.82-1.08c0.45-0.86,0.65-1.72,0.84-2.64
			c0.26-1.35,0.51-3.36,0.79-4.7c0.21-1.06,0.53-2.11,0.97-3.09c0.53-1.21,1.37-2.56,1.9-3.77c0.45-0.98,0.73-2.28,1-3.32
			c0.19-0.71,0.48-1.53,0.87-2.11c0.7-1.04,1.7-1.8,2.55-2.69c1-1,1.72-2.14,2.32-3.37l1.28-2.62c0.33-0.65,0.77-1.45,1.23-1.97
			c0.07-0.08,0.1-0.11,0.1-0.11c0.07-0.07,0.1-0.1,0.1-0.1c0.09-0.08,0.1-0.09,0.1-0.09c0.09-0.07,0.11-0.09,0.11-0.09
			c0.09-0.06,0.11-0.08,0.11-0.08c0.09-0.06,0.11-0.07,0.11-0.07c0.09-0.05,0.11-0.06,0.11-0.06c0.09-0.04,0.1-0.04,0.1-0.04
			c0.1-0.03,0.12-0.04,0.12-0.04c0.08-0.02,0.1-0.02,0.1-0.02c0.09-0.01,0.1-0.02,0.1-0.02c0.09-0.01,0.1-0.01,0.1-0.01
			c0.09,0,0.1,0,0.1,0c0.09,0,0.11,0.01,0.11,0.01c0.09,0.01,0.11,0.01,0.11,0.01c0.09,0.02,0.11,0.02,0.11,0.02
			c0.09,0.02,0.11,0.03,0.11,0.03c0.09,0.03,0.13,0.04,0.13,0.04c0.07,0.03,0.11,0.04,0.11,0.04c0.08,0.03,0.11,0.05,0.11,0.05
			c0.08,0.04,0.11,0.05,0.11,0.05c0.08,0.04,0.11,0.06,0.11,0.06c1.1,0.64,1.82,1.51,2.61,2.43c1.04,1.25,2.06,2.67,2.98,4.01
			c3.9,5.74,7.21,11.98,10.13,18.26c2.11,4.57,4.1,9.4,5.73,14.17c0.99,2.94,1.94,6.03,2.54,9.08c0.7,3.39,0.8,7.03,0.8,10.49"/>
	</g>
	<g id="POLYLINE_370_">
		<path class="st86" d="M199.89,372.11c-1.55-0.66-3.21-1.42-4.85-1.82c-1.15-0.3-3-0.67-4.16-0.94c-0.66-0.16-1.5-0.36-2.09-0.63
			c-0.1-0.05-0.13-0.06-0.13-0.06c-0.1-0.05-0.11-0.06-0.11-0.06c-0.09-0.06-0.1-0.07-0.1-0.07c-0.1-0.1-0.11-0.1-0.11-0.1
			c-0.05-0.1-0.05-0.1-0.05-0.1c0-0.1,0-0.1,0-0.1c0.04-0.1,0.04-0.1,0.04-0.1c0.08-0.1,0.08-0.1,0.08-0.1
			c0.09-0.07,0.1-0.08,0.1-0.08c0.09-0.06,0.11-0.07,0.11-0.07c0.09-0.05,0.1-0.06,0.1-0.06c0.1-0.05,0.14-0.06,0.14-0.06
			c0.09-0.04,0.13-0.05,0.13-0.05c1.12-0.4,2.25-0.46,3.42-0.5c1.6-0.05,4.04,0.08,5.58-0.28c0.09-0.03,0.14-0.04,0.14-0.04
			c0.09-0.03,0.13-0.04,0.13-0.04c0.08-0.03,0.13-0.05,0.13-0.05c0.1-0.04,0.12-0.05,0.12-0.05c0.09-0.04,0.11-0.05,0.11-0.05
			c0.08-0.05,0.1-0.06,0.1-0.06c0.09-0.06,0.11-0.07,0.11-0.07c0.09-0.08,0.1-0.09,0.1-0.09c0.09-0.1,0.1-0.11,0.1-0.11
			c0.07-0.09,0.08-0.1,0.08-0.1c0.05-0.08,0.07-0.11,0.07-0.11c0.05-0.08,0.06-0.11,0.06-0.11c0.08-0.17,0.16-0.35,0.22-0.48
			c0.04-0.08,0.06-0.11,0.06-0.11c0.05-0.09,0.06-0.1,0.06-0.1c0.07-0.09,0.08-0.1,0.08-0.1c0.09-0.1,0.1-0.1,0.1-0.1
			c0.1-0.07,0.11-0.08,0.11-0.08c0.1-0.05,0.11-0.06,0.11-0.06c0.09-0.04,0.11-0.04,0.11-0.04c0.09-0.03,0.1-0.03,0.1-0.03
			c0.08-0.02,0.11-0.02,0.11-0.02c0.07-0.01,0.1-0.02,0.1-0.02c1.39-0.15,2.94,0.28,4.29,0.06c0.08-0.01,0.12-0.02,0.12-0.02
			c0.08-0.02,0.11-0.03,0.11-0.03c0.09-0.03,0.11-0.03,0.11-0.03c0.09-0.03,0.1-0.04,0.1-0.04c0.1-0.04,0.11-0.05,0.11-0.05
			c0.09-0.05,0.1-0.06,0.1-0.06c0.09-0.06,0.1-0.07,0.1-0.07c0.09-0.07,0.1-0.08,0.1-0.08c0.09-0.09,0.1-0.11,0.1-0.11
			c0.07-0.09,0.08-0.1,0.08-0.1c0.05-0.09,0.06-0.1,0.06-0.1c0.05-0.09,0.05-0.11,0.05-0.11c0.04-0.08,0.05-0.11,0.05-0.11
			c0.03-0.09,0.04-0.12,0.04-0.12c0.03-0.09,0.03-0.12,0.03-0.12c0.2-0.9,0.06-1.89,0.04-2.78c-0.04-0.85,0.02-1.77,0.33-2.51
			c0.04-0.08,0.05-0.11,0.05-0.11c0.04-0.08,0.05-0.11,0.05-0.11c0.04-0.08,0.06-0.1,0.06-0.1c0.04-0.08,0.06-0.1,0.06-0.1
			c0.06-0.1,0.08-0.12,0.08-0.12c0.07-0.09,0.08-0.12,0.08-0.12c0.07-0.09,0.09-0.11,0.09-0.11c0.08-0.09,0.09-0.11,0.09-0.11
			c0.08-0.08,0.1-0.1,0.1-0.1c0.08-0.08,0.11-0.09,0.11-0.09c0.09-0.07,0.11-0.09,0.11-0.09c0.09-0.07,0.12-0.08,0.12-0.08
			c0.1-0.06,0.12-0.08,0.12-0.08c0.08-0.04,0.1-0.06,0.1-0.06c0.08-0.04,0.11-0.05,0.11-0.05c0.08-0.04,0.11-0.05,0.11-0.05
			c0.09-0.03,0.11-0.04,0.11-0.04c0.62-0.21,1.27-0.21,1.86-0.17c0.59,0.05,1.19,0.16,1.77,0.29c1.91,0.46,3.78,1.2,5.58,1.97
			c5.17,2.24,10.22,5,14.4,8.82"/>
	</g>
	<g id="POLYLINE_368_">
		<path class="st86" d="M209.35,400.68c-1.01,0.63-2.16,1.49-3.12,2.19c-0.74,0.56-1.57,1.2-2.19,1.88c-0.07,0.08-0.09,0.1-0.09,0.1
			c-0.08,0.1-0.1,0.12-0.1,0.12c-0.07,0.09-0.08,0.12-0.08,0.12c-0.06,0.1-0.06,0.11-0.06,0.11c-0.04,0.09-0.05,0.1-0.05,0.1
			c-0.03,0.09-0.03,0.1-0.03,0.1c0,0.09,0,0.1,0,0.1c0.03,0.09,0.04,0.1,0.04,0.1c0.09,0.1,0.1,0.1,0.1,0.1
			c0.09,0.05,0.1,0.06,0.1,0.06c0.1,0.04,0.11,0.04,0.11,0.04c0.1,0.03,0.12,0.04,0.12,0.04c0.08,0.02,0.11,0.02,0.11,0.02
			c1.12,0.17,2.38,0.11,3.5,0.21c1.26,0.08,2.53,0.29,3.76,0.56c3.79,0.84,8.12,2.54,11.8,3.78c0.95,0.33,2.25,0.69,3.1,1.19
			c0.07,0.04,0.1,0.06,0.1,0.06c0.1,0.06,0.13,0.08,0.13,0.08c0.09,0.06,0.12,0.09,0.12,0.09c0.09,0.07,0.12,0.09,0.12,0.09
			c0.08,0.07,0.11,0.09,0.11,0.09c0.08,0.07,0.1,0.1,0.1,0.1c0.07,0.08,0.1,0.1,0.1,0.1c0.07,0.08,0.09,0.11,0.09,0.11
			c0.06,0.08,0.08,0.11,0.08,0.11c0.06,0.09,0.07,0.12,0.07,0.12c0.05,0.09,0.07,0.12,0.07,0.12c0.04,0.1,0.06,0.13,0.06,0.13
			c0.03,0.07,0.04,0.1,0.04,0.1c0.02,0.07,0.03,0.1,0.03,0.1c0.02,0.07,0.03,0.11,0.03,0.11c0.02,0.07,0.02,0.11,0.02,0.11
			c0.01,0.08,0.02,0.12,0.02,0.12c0.01,0.08,0.02,0.13,0.02,0.13c0.01,0.09,0.01,0.13,0.01,0.13c0.07,1.66-0.62,3.25-0.69,4.87
			c0,0.07,0,0.1,0,0.1c0.01,0.1,0.01,0.11,0.01,0.11c0.01,0.09,0.01,0.11,0.01,0.11c0.02,0.1,0.03,0.11,0.03,0.11
			c0.03,0.1,0.04,0.11,0.04,0.11c0.05,0.09,0.06,0.1,0.06,0.1c0.09,0.1,0.1,0.11,0.1,0.11c0.1,0.07,0.11,0.07,0.11,0.07
			c0.1,0.04,0.11,0.04,0.11,0.04c0.1,0.02,0.11,0.03,0.11,0.03c0.09,0.01,0.1,0.01,0.1,0.01c0.1,0.01,0.11,0.01,0.11,0.01
			c0.07,0,0.11,0,0.11,0c0.1-0.01,0.13-0.01,0.13-0.01c0.74-0.1,1.32-0.34,1.99-0.57c1.98-0.77,4.35-1.61,6.37-2.2
			c2.84-0.87,9.64-2.64,12.47-3.53c1.54-0.47,3.69-1.34,5.2-1.94"/>
	</g>
	<g id="POLYLINE_367_">
		<path class="st86" d="M282.97,417.26c1.34,2.26,2.79,4.53,4.55,6.49c1.25,1.4,2.68,2.65,4.25,3.67c3.87,2.47,8.42,3.67,12.88,4.59
			c3.14,0.62,6.48,1.06,9.67,1.38c4.66,0.47,9.43,0.64,14.11,0.34"/>
	</g>
	<g id="POLYLINE_366_">
		<path class="st86" d="M559.1,388.21c3.71-0.72,7.71-1.43,11.46-1.84c4.84-0.55,10.13-0.77,15.01-0.89
			c3.66-0.06,7.95-0.13,11.59,0.06c0.77,0.05,1.68,0.1,2.43,0.25c0.09,0.02,0.11,0.03,0.11,0.03c0.1,0.03,0.12,0.04,0.12,0.04
			c0.09,0.04,0.11,0.05,0.11,0.05c0.1,0.08,0.1,0.09,0.1,0.09c-0.02,0.1-0.02,0.11-0.02,0.11c-0.1,0.08-0.11,0.09-0.11,0.09
			c-0.08,0.05-0.1,0.05-0.1,0.05c-0.09,0.04-0.13,0.06-0.13,0.06c-0.11,0.05-0.24,0.09-0.27,0.1c-0.05,0.02-0.17,0.05-0.22,0.07
			c-0.08,0.02-0.17,0.05-0.25,0.07c-0.26,0.07-0.63,0.17-0.89,0.23c-3.23,0.76-7.19,1.57-10.33,2.46
			c-4.91,1.37-9.79,3.32-14.44,5.42c-15.34,7.06-31.66,15.63-47.61,21.04c-5.87,2-12.21,3.66-18.26,5.02
			c-9.66,2.18-19.69,3.75-29.54,4.7c-8.06,0.8-17.04,1.28-25.15,1.57c-32.4,1.13-70.35,0.29-102.87-0.29
			c-3.38,0.01-6.91,0.04-10.26,0.56c-1.55,0.25-3.1,0.61-4.53,1.26c-1.19,0.53-2.28,1.27-3.28,2.11c-1.77,1.44-6.19,5.98-7.86,7.57
			c-5.13,4.96-11.19,10.56-16.6,15.2c-4.04,3.44-8.42,7.01-12.83,9.95c-2.54,1.67-5.21,3.23-8.07,4.27
			c-0.79,0.28-1.61,0.53-2.43,0.68c-0.28,0.05-0.61,0.1-0.89,0.13c-0.23,0.02-0.5,0.03-0.68,0.03c-0.06,0-0.13,0-0.13,0
			c-0.06,0-0.13,0-0.13,0c-0.06,0-0.12-0.01-0.12-0.01c-0.06,0-0.12-0.01-0.12-0.01c-0.09-0.01-0.14-0.01-0.14-0.01
			c-0.09-0.01-0.13-0.02-0.13-0.02c-0.09-0.01-0.13-0.02-0.13-0.02c-0.08-0.02-0.12-0.02-0.12-0.02c-0.08-0.02-0.12-0.03-0.12-0.03
			c-0.08-0.02-0.11-0.03-0.11-0.03c-0.07-0.02-0.11-0.03-0.11-0.03c-0.07-0.02-0.1-0.04-0.1-0.04c-0.1-0.04-0.11-0.05-0.11-0.05
			c-0.09-0.05-0.11-0.05-0.11-0.05c-0.1-0.06-0.11-0.07-0.11-0.07c-0.1-0.07-0.11-0.08-0.11-0.08c-0.1-0.09-0.11-0.1-0.11-0.1
			c-0.08-0.1-0.09-0.11-0.09-0.11c-0.05-0.1-0.06-0.1-0.06-0.1c-0.04-0.1-0.04-0.1-0.04-0.1c-0.02-0.1-0.02-0.1-0.02-0.1
			c-0.01-0.09-0.01-0.1-0.01-0.1c0-0.09,0-0.11,0-0.11c0.01-0.1,0.02-0.12,0.02-0.12c0.02-0.09,0.02-0.1,0.02-0.1
			c0.03-0.09,0.03-0.11,0.03-0.11c0.03-0.07,0.04-0.11,0.04-0.11c0.03-0.08,0.05-0.12,0.05-0.12c0.04-0.08,0.06-0.12,0.06-0.12
			c0.29-0.54,0.58-0.91,0.91-1.35c1.59-2.03,3.31-4.15,4.38-6.51c1.81-3.94,2.63-8.3,2.71-12.61c0.02-2.57-0.22-5.19-1.08-7.63
			c-0.6-1.72-1.55-3.31-2.74-4.68c-1.33-1.55-2.95-2.85-4.61-4.03c-3.15-2.26-7.8-4.83-11.01-7.02c-0.88-0.62-1.9-1.33-2.54-2.17
			c-0.05-0.07-0.07-0.1-0.07-0.1c-0.06-0.1-0.08-0.13-0.08-0.13c-0.05-0.1-0.06-0.11-0.06-0.11c-0.05-0.09-0.05-0.11-0.05-0.11
			c-0.04-0.09-0.04-0.1-0.04-0.1c-0.03-0.09-0.03-0.1-0.03-0.1c-0.02-0.1-0.02-0.11-0.02-0.11c-0.01-0.09-0.01-0.11-0.01-0.11
			c0-0.09,0-0.1,0-0.1c0.02-0.1,0.02-0.1,0.02-0.1c0.04-0.1,0.04-0.11,0.04-0.11c0.06-0.1,0.07-0.1,0.07-0.1
			c0.09-0.09,0.1-0.1,0.1-0.1c0.09-0.07,0.1-0.08,0.1-0.08c0.09-0.05,0.11-0.06,0.11-0.06c0.08-0.04,0.11-0.05,0.11-0.05
			c0.09-0.03,0.12-0.05,0.12-0.05c0.09-0.03,0.13-0.04,0.13-0.04c0.66-0.18,1.19-0.2,1.82-0.25c1.07-0.06,2.98-0.08,4.04-0.17
			c2.73-0.19,5.88-0.96,8.56-1.55"/>
	</g>
	<g id="POLYLINE_365_">
		<path class="st86" d="M306.51,421.74c-14.13-2.64-35.74-6.81-49.62-9.92c-3.61-0.81-64.16-15.11-66.01-15.3
			c-3.55-0.7-7.31-1.39-10.91-1.73c-2.38-0.21-4.83-0.34-7.19,0.08c-1.54,0.27-3.02,0.84-4.34,1.68c-1.56,0.98-2.93,2.26-4.19,3.6
			c-1.44,1.55-2.82,3.3-4.09,4.99c-1.8,2.27-16.24,23.49-18.24,26.35c-6.25,8.83-13.01,17.72-20.61,25.42
			c-6.87,7.03-14.63,13.4-22.68,19.03c-4.31,3.01-8.93,6.01-13.54,8.53c-2.73,1.48-5.6,2.91-8.54,3.91
			c-1.22,0.41-2.49,0.76-3.77,0.91c-0.96,0.11-2.04,0.1-2.91-0.18c-0.1-0.03-0.13-0.04-0.13-0.04c-0.09-0.04-0.12-0.05-0.12-0.05
			c-0.09-0.04-0.11-0.05-0.11-0.05c-0.08-0.04-0.11-0.05-0.11-0.05c-0.1-0.06-0.12-0.07-0.12-0.07c-0.09-0.06-0.11-0.08-0.11-0.08
			c-0.1-0.08-0.11-0.09-0.11-0.09c-0.09-0.09-0.1-0.1-0.1-0.1c-0.08-0.1-0.08-0.11-0.08-0.11c-0.05-0.09-0.06-0.1-0.06-0.1
			c-0.04-0.1-0.04-0.11-0.04-0.11c-0.02-0.09-0.02-0.1-0.02-0.1c-0.01-0.1-0.01-0.11-0.01-0.11c0-0.1,0.01-0.11,0.01-0.11
			c0.02-0.1,0.02-0.12,0.02-0.12c0.03-0.1,0.04-0.12,0.04-0.12c0.03-0.08,0.04-0.1,0.04-0.1c0.04-0.08,0.05-0.1,0.05-0.1
			c0.05-0.09,0.06-0.11,0.06-0.11c0.06-0.09,0.07-0.11,0.07-0.11c0.07-0.09,0.1-0.13,0.1-0.13c0.08-0.09,0.11-0.14,0.11-0.14
			c0.08-0.09,0.13-0.14,0.13-0.14c0.51-0.53,1.01-0.91,1.58-1.33c1.04-0.78,3.7-2.49,4.82-3.25c2.51-1.66,4.93-3.55,7.09-5.64
			c5.06-4.86,9.26-10.9,13.33-16.61c5.68-8.1,11.52-17.06,16.6-25.55c4.04-6.63,9.88-17.8,13.55-24.74
			c0.36-0.66,2.08-3.71,2.36-4.32c0.33-0.67,0.6-1.43,0.68-2.11c0.15-1.15-0.11-2.15-0.4-3.23c-0.71-2.5-1.68-5.21-1.15-7.83
			c0.29-1.6,1.01-3.32,1.54-4.86c0.31-0.91,0.63-1.95,0.64-2.91c0.01-1.33-0.58-2.56-1-3.76c-0.23-0.63-0.42-1.31-0.5-1.94
			c-0.11-0.76-0.11-1.55-0.07-2.32c0.1-1.73,0.48-4.02,0.65-5.75c0.12-1.23,0.15-2.48-0.07-3.7c-0.41-2.44-1.67-4.65-2.82-6.81
			c-2.45-4.47-5.79-9.72-8.54-14.04c-3.85-5.99-8.36-12.72-12.52-18.5c-9.38-13.1-20.21-25.52-33.5-34.78
			c-1.06-0.73-4.55-3.06-5.52-3.79c-0.54-0.4-1.22-0.95-1.62-1.41c-0.06-0.08-0.1-0.11-0.1-0.11c-0.06-0.07-0.09-0.11-0.09-0.11
			c-0.06-0.09-0.08-0.11-0.08-0.11c-0.06-0.09-0.07-0.11-0.07-0.11c-0.05-0.09-0.06-0.1-0.06-0.1c-0.04-0.08-0.04-0.1-0.04-0.1
			c-0.03-0.1-0.04-0.11-0.04-0.11c-0.02-0.1-0.02-0.11-0.02-0.11c-0.01-0.09-0.01-0.1-0.01-0.1c0.01-0.1,0.01-0.11,0.01-0.11
			c0.02-0.09,0.02-0.1,0.02-0.1c0.04-0.1,0.04-0.1,0.04-0.1c0.06-0.09,0.06-0.1,0.06-0.1c0.08-0.1,0.09-0.11,0.09-0.11
			c0.09-0.08,0.1-0.1,0.1-0.1c0.09-0.07,0.1-0.08,0.1-0.08c0.1-0.06,0.12-0.07,0.12-0.07c0.09-0.05,0.11-0.06,0.11-0.06
			c0.08-0.04,0.12-0.06,0.12-0.06c0.08-0.04,0.13-0.05,0.13-0.05c0.09-0.03,0.13-0.05,0.13-0.05c0.09-0.03,0.14-0.05,0.14-0.05
			c0.9-0.26,1.74-0.26,2.61-0.23c0.96,0.05,1.92,0.19,2.86,0.37c4.49,0.92,8.81,2.67,12.92,4.68c9.45,4.72,17.98,11.25,25.85,18.25
			c16.8,14.97,31.76,34.49,45.55,52.28c2.41,2.98,4.95,6.07,7.75,8.69c1.31,1.2,2.72,2.34,4.35,3.07c1.4,0.64,2.94,0.92,4.47,1.02
			c4.01,0.28,8.22,0.09,12.24-0.16c22.2-1.65,48.67-5.93,70.77-9.26l150.54-25.88c19.34-2.86,39.97-5.87,59.48-6.87
			c7.36-0.3,14.92-0.39,22.11,1.39c2.27,0.57,4.5,1.33,6.63,2.29c4.26,1.9,8.24,4.52,12.04,7.2c9.57,6.97,20.34,14.93,30.53,20.83
			c4.72,2.75,9.68,5.37,14.76,7.4c4.08,1.63,8.39,2.83,12.72,3.55c4.88,0.83,10.09,1.09,15.03,1.29c16.83,0.81,46.6,0.49,63.75,0.37
			c6.47-0.02,30.31,0.45,36.52,0c1.01-0.06,4.36-0.33,5.31-0.35c0.51-0.01,1.18-0.01,1.65,0.07c0.07,0.01,0.11,0.02,0.11,0.02
			c0.07,0.02,0.1,0.02,0.1,0.02c0.1,0.03,0.11,0.03,0.11,0.03c0.09,0.03,0.1,0.04,0.1,0.04c0.09,0.04,0.1,0.05,0.1,0.05
			c0.1,0.06,0.11,0.07,0.11,0.07c0.1,0.09,0.1,0.1,0.1,0.1c0.06,0.1,0.06,0.1,0.06,0.1c0.03,0.1,0.04,0.1,0.04,0.1
			c0.01,0.1,0.01,0.1,0.01,0.1c0,0.1,0,0.11,0,0.11c-0.02,0.1-0.02,0.11-0.02,0.11c-0.03,0.09-0.03,0.11-0.03,0.11
			c-0.04,0.09-0.05,0.1-0.05,0.1c-0.06,0.1-0.07,0.11-0.07,0.11c-0.07,0.09-0.08,0.1-0.08,0.1c-0.09,0.09-0.1,0.1-0.1,0.1
			c-0.09,0.07-0.1,0.08-0.1,0.08c-0.09,0.06-0.1,0.06-0.1,0.06c-0.09,0.05-0.11,0.06-0.11,0.06c-0.08,0.04-0.11,0.05-0.11,0.05
			c-0.09,0.03-0.12,0.04-0.12,0.04c-0.09,0.03-0.13,0.04-0.13,0.04c-0.1,0.03-0.13,0.04-0.13,0.04c-0.12,0.03-0.25,0.05-0.29,0.06
			c-0.3,0.05-0.52,0.08-0.78,0.11c-0.76,0.08-1.68,0.13-2.44,0.17c-10.57,0.39-77.56,1.97-86.66,2.59
			c-4.64,0.27-9.81,0.65-14.4,1.28c-3.88,0.52-7.78,1.33-11.46,2.67c-3.52,1.28-8.6,3.44-12.15,4.6
			c-12.38,4.1-25.61,7.31-38.35,10.11"/>
	</g>
	<g id="POLYLINE_301_">
		<path class="st86" d="M477.74,417.12c-1.18,0.88-2.48,1.49-3.83,1.71c-1.4,0.22-2.65,0.09-3.99-0.18
			c-3.11-0.66-6.01-2.11-8.76-3.67c-3.98-2.33-9.25-5.5-13.35-7.44c-4.31-2.09-9.06-4.01-13.55-5.68
			c-8.83-3.21-18.02-6.1-27.28-7.74c-2.47-0.42-5.15-0.77-7.64-1.01c-2.16-0.21-8.44-0.69-10.52-1.04
			c-1.03-0.17-2.23-0.37-3.15-0.81c-0.1-0.05-0.13-0.07-0.13-0.07c-0.09-0.05-0.12-0.07-0.12-0.07c-0.08-0.05-0.11-0.07-0.11-0.07
			c-0.1-0.07-0.11-0.08-0.11-0.08c-0.09-0.09-0.1-0.1-0.1-0.1c-0.07-0.09-0.08-0.1-0.08-0.1c-0.06-0.09-0.06-0.11-0.06-0.11
			c-0.04-0.1-0.04-0.11-0.04-0.11c-0.02-0.09-0.02-0.1-0.02-0.1c0-0.1,0-0.1,0-0.1c0.01-0.1,0.01-0.11,0.01-0.11
			c0.03-0.1,0.03-0.11,0.03-0.11c0.03-0.08,0.04-0.1,0.04-0.1c0.04-0.09,0.05-0.1,0.05-0.1c0.05-0.09,0.06-0.1,0.06-0.1
			c0.06-0.09,0.08-0.11,0.08-0.11c0.07-0.09,0.09-0.11,0.09-0.11c0.08-0.09,0.11-0.12,0.11-0.12c0.07-0.07,0.11-0.11,0.11-0.11
			c0.08-0.07,0.12-0.11,0.12-0.11c0.09-0.07,0.13-0.11,0.13-0.11c1.06-0.8,2.23-1.21,3.47-1.57c1.92-0.53,3.94-0.79,5.93-0.95
			c7.25-0.53,14.63,0.15,21.82,1.08c12.34,1.69,24.96,4.36,37,7.54c6,1.64,12.34,3.45,18.08,5.83c2.9,1.21,5.71,2.74,8.04,4.88
			c0.78,0.73,1.85,1.56,2.36,2.47c0.05,0.08,0.06,0.11,0.06,0.11c0.04,0.08,0.06,0.11,0.06,0.11c0.04,0.08,0.05,0.11,0.05,0.11
			c0.04,0.09,0.05,0.11,0.05,0.11c0.03,0.09,0.04,0.12,0.04,0.12c0.03,0.09,0.04,0.12,0.04,0.12c0.02,0.09,0.03,0.12,0.03,0.12
			c0.02,0.09,0.03,0.12,0.03,0.12c0.02,0.09,0.02,0.12,0.02,0.12c0.01,0.1,0.01,0.13,0.01,0.13c0.01,0.1,0.01,0.13,0.01,0.13
			c0,0.1,0,0.13,0,0.13c0,0.07,0,0.1,0,0.1c-0.03,0.62-0.23,1.17-0.46,1.69c-0.27,0.59-0.61,1.15-0.98,1.69
			C480.38,414.78,479.14,416.07,477.74,417.12z"/>
	</g>
	<g id="POLYLINE_300_">
		<path class="st86" d="M506.95,365.67c-1.75,2.93-3.3,6.04-4.23,9.34c-1.09,3.76-1.41,7.72-1.45,11.62
			c-0.02,2.89,0.13,5.88,0.48,8.74c0.22,1.51,0.41,3.22,1.01,4.61c0.1,0.23,0.21,0.4,0.3,0.54c0.07,0.1,0.09,0.13,0.09,0.13
			c0.07,0.09,0.09,0.12,0.09,0.12c0.07,0.09,0.1,0.12,0.1,0.12c0.08,0.08,0.11,0.11,0.11,0.11c0.08,0.08,0.11,0.11,0.11,0.11
			c0.09,0.08,0.12,0.1,0.12,0.1c0.09,0.07,0.12,0.09,0.12,0.09c0.1,0.07,0.13,0.09,0.13,0.09c0.07,0.04,0.1,0.06,0.1,0.06
			c0.07,0.04,0.11,0.06,0.11,0.06c0.07,0.04,0.11,0.06,0.11,0.06c0.08,0.04,0.11,0.05,0.11,0.05c0.08,0.03,0.12,0.05,0.12,0.05
			c0.68,0.26,1.24,0.31,1.93,0.36c0.69,0.03,1.4,0,2.09-0.07c1.52-0.17,3.12-0.48,4.51-1.14"/>
	</g>
	<g id="POLYLINE_299_">
		<path class="st86" d="M490.34,359.23l-2.09,1.28c-1.28,0.81-2.51,1.8-3.35,2.99c-0.89,1.22-1.47,2.64-1.93,4.07
			c-1.3,4.21-1.73,8.68-2.02,13.07c-0.24,4.77-0.34,9.69,0.13,14.45c0.38,3.63,1.17,7.32,2.99,10.52c1.85,3.25,4.78,5.89,8.24,7.34
			c1.64,0.69,3.4,1.12,5.17,1.25c3.25,0.24,6.52-0.35,9.67-1.14c3.38-0.84,9.86-3.03,13.25-4.09c3.05-1.02,6.29-2.18,9.23-3.49"/>
	</g>
</g>
<g id="AG-OUTLINE">
	<g id="POLYLINE_701_">
		<path class="st87" d="M559.1,388.21c4.98-1.78,10.67-4.47,15.85-5.57c7.93-1.71,16.39-2.09,24.49-2.52
			c20.55-0.79,62.27-1.81,83.07-2.41c0.91-0.06,1.98-0.11,2.86-0.31c0.1-0.03,0.13-0.04,0.13-0.04c0.09-0.03,0.12-0.04,0.12-0.04
			c0.09-0.03,0.12-0.04,0.12-0.04c0.08-0.04,0.11-0.05,0.11-0.05c0.09-0.05,0.1-0.05,0.1-0.05c0.09-0.06,0.1-0.06,0.1-0.06
			c0.09-0.07,0.1-0.08,0.1-0.08c0.1-0.1,0.11-0.11,0.11-0.11c0.07-0.1,0.08-0.11,0.08-0.11c0.06-0.1,0.06-0.11,0.06-0.11
			c0.04-0.1,0.04-0.1,0.04-0.1c0.03-0.1,0.03-0.11,0.03-0.11c0.01-0.1,0.01-0.11,0.01-0.11c0-0.1,0-0.11,0-0.11
			c-0.02-0.09-0.02-0.1-0.02-0.1c-0.04-0.1-0.04-0.1-0.04-0.1c-0.07-0.09-0.07-0.1-0.07-0.1c-0.1-0.09-0.11-0.09-0.11-0.09
			c-0.09-0.05-0.1-0.06-0.1-0.06c-0.09-0.04-0.11-0.05-0.11-0.05c-0.09-0.03-0.1-0.04-0.1-0.04c-0.08-0.02-0.11-0.03-0.11-0.03
			c-0.07-0.02-0.11-0.02-0.11-0.02c-0.72-0.13-1.29-0.09-1.97-0.08c-0.74,0.02-4.25,0.29-5.06,0.34c-6.05,0.45-29.97-0.01-36.52,0
			c-18.92,0.12-48.66,0.48-67.23-0.53c-2.39-0.12-5.11-0.31-7.49-0.57c-4.14-0.46-8.3-1.27-12.28-2.52
			c-5.07-1.58-9.96-3.89-14.63-6.4c-6.99-3.77-13.88-8.24-20.39-12.78l-15.44-11.13c-3.87-2.7-7.93-5.3-12.3-7.12
			c0-3.47-0.1-7.09-0.8-10.49c-0.6-3.05-1.54-6.13-2.54-9.08c-1.63-4.77-3.62-9.59-5.73-14.17c-2.93-6.28-6.23-12.52-10.13-18.26
			c-0.92-1.34-1.95-2.76-2.98-4.01c-0.74-0.88-1.64-1.89-2.61-2.43c-0.08-0.04-0.11-0.06-0.11-0.06c-0.08-0.04-0.11-0.05-0.11-0.05
			c-0.08-0.03-0.11-0.05-0.11-0.05c-0.07-0.03-0.11-0.04-0.11-0.04c-0.09-0.03-0.11-0.03-0.11-0.03c-0.09-0.02-0.11-0.03-0.11-0.03
			c-0.09-0.02-0.11-0.02-0.11-0.02c-0.09-0.01-0.11-0.01-0.11-0.01c-0.09-0.01-0.11-0.01-0.11-0.01c-0.09,0-0.11,0-0.11,0
			c-0.09,0.01-0.1,0.01-0.1,0.01c-0.09,0.01-0.1,0.02-0.1,0.02c-0.08,0.02-0.1,0.02-0.1,0.02c-0.08,0.03-0.1,0.03-0.1,0.03
			c-0.1,0.04-0.12,0.05-0.12,0.05c-0.09,0.05-0.11,0.06-0.11,0.06c-0.09,0.05-0.11,0.07-0.11,0.07c-0.09,0.06-0.11,0.08-0.11,0.08
			c-0.09,0.07-0.11,0.08-0.11,0.08c-0.09,0.08-0.12,0.11-0.12,0.11c-0.07,0.07-0.1,0.1-0.1,0.1c-0.07,0.07-0.1,0.11-0.1,0.11
			c-0.55,0.65-0.85,1.25-1.23,1.97l-1.28,2.62c-0.61,1.25-1.37,2.41-2.32,3.37c-0.81,0.85-1.91,1.72-2.55,2.69
			c-0.45,0.7-0.66,1.35-0.87,2.11c-0.29,1.09-0.6,2.49-1.08,3.49c-0.52,1.14-1.32,2.45-1.83,3.6c-0.4,0.89-0.71,1.84-0.91,2.8
			c-0.32,1.46-0.56,3.52-0.85,4.99c-0.17,0.85-0.4,1.78-0.79,2.55c-0.23,0.44-0.49,0.78-0.77,1.08c-0.1,0.1-0.15,0.15-0.15,0.15
			c-0.81,0.77-1.78,1.25-2.61,1.96c-1.08,0.91-2.18,2.22-3.22,3.18c-1.34,1.25-2.87,2.33-4.44,3.27c-1.96,1.17-4.05,2.16-6.18,2.96
			c-3.95,1.52-9.35,2.52-13.5,3.47c-2.02,0.47-4.09,1.05-6.03,1.77c-2.18,0.8-4.76,1.86-7.03,2.31c-2.9,0.66-6.2,0.26-9.15,0.09
			c-1.43-0.06-3.02-0.14-4.38,0.32c-1.17,0.41-1.97,1.33-2.82,2.13c-0.48,0.46-1.08,0.93-1.62,1.2c-1.07,0.56-2.15,0.83-3.31,1.05
			c-2.53,0.46-5.27,0.52-7.83,0.59c-4.15,0.1-9.91,0.01-13.98,0.64c-1.37,0.21-2.89,0.54-4.11,1.15c-0.77,0.38-1.31,0.85-1.87,1.4
			c-0.81,0.84-1.72,1.81-2.83,2.13c-0.98,0.3-1.87,0.32-2.85,0.34c-0.98,0.02-4.09-0.18-5.12-0.22c-1.69-0.07-3.41-0.09-5.08,0.18
			c-1.1,0.18-2.17,0.52-3.19,0.94c-1.28,0.52-2.99,1.46-4.27,1.99c-0.82,0.35-1.79,0.64-2.65,0.64c-0.86,0.01-1.61-0.18-2.42-0.42
			c-1.25-0.38-2.74-0.93-4.04-0.96c-2.03-0.07-3.74,1.03-5.39,2.02c-1.83,1.11-3.89,2.6-6.01,3.02c-0.98,0.18-1.84,0.15-2.79,0.04
			c-2.26-0.3-4.72-1.14-7-0.67c-2.21,0.44-4.37,1.71-6.38,2.67c-1.51,0.73-3.15,1.44-4.82,1.6c-1.59,0.18-3.48-0.11-5.07-0.28
			c-1.42-0.15-3-0.19-4.28,0.46c-1.7,0.78-3,2.27-4.71,2.91c-0.09,0.03-0.13,0.04-0.13,0.04c-0.09,0.03-0.13,0.04-0.13,0.04
			c-0.09,0.02-0.14,0.03-0.14,0.03c-0.09,0.02-0.13,0.03-0.13,0.03c-0.09,0.01-0.13,0.02-0.13,0.02c-0.09,0.01-0.13,0.01-0.13,0.01
			c-0.09,0.01-0.13,0.01-0.13,0.01c-1.34,0.04-2.56-0.48-3.83-0.72c-0.67-0.14-1.43-0.22-2.11-0.17c-1.32,0.1-2.5,0.51-3.68,1.06
			c-1.53,0.72-2.97,1.66-4.25,2.77c-1.03,0.85-1.78,2.05-2.81,2.81c-0.8,0.57-1.61,0.81-2.51,1.05c-1.33,0.36-3.22,0.64-4.51,1.1
			c-0.12,0.05-0.19,0.08-0.23,0.1c-0.07,0.03-0.1,0.05-0.1,0.05c-0.09,0.05-0.11,0.06-0.11,0.06c-0.1,0.06-0.11,0.07-0.11,0.07
			c-0.09,0.07-0.1,0.08-0.1,0.08c-0.08,0.09-0.09,0.1-0.09,0.1c-0.05,0.1-0.05,0.1-0.05,0.1c-0.02,0.1-0.02,0.1-0.02,0.1
			c0.01,0.1,0.01,0.1,0.01,0.1c0.03,0.1,0.04,0.11,0.04,0.11c0.05,0.1,0.06,0.11,0.06,0.11c0.07,0.1,0.08,0.11,0.08,0.11
			c0.07,0.09,0.09,0.11,0.09,0.11c0.07,0.08,0.09,0.1,0.09,0.1c0.34,0.34,1.05,0.89,1.41,1.2c0.48,0.41,1.11,0.88,1.64,1.13
			l-26.07,3.99c-4.18-3.81-9.24-6.58-14.4-8.82c-1.8-0.77-3.68-1.52-5.58-1.97c-1.1-0.25-2.36-0.46-3.45-0.18
			c-0.08,0.02-0.1,0.03-0.1,0.03c-0.1,0.03-0.13,0.04-0.13,0.04c-0.09,0.03-0.11,0.04-0.11,0.04c-0.08,0.04-0.11,0.05-0.11,0.05
			c-0.08,0.04-0.11,0.05-0.11,0.05c-0.08,0.04-0.1,0.06-0.1,0.06c-0.1,0.06-0.12,0.08-0.12,0.08c-0.09,0.07-0.12,0.08-0.12,0.08
			c-0.09,0.07-0.11,0.09-0.11,0.09c-0.08,0.08-0.1,0.1-0.1,0.1c-0.08,0.08-0.1,0.1-0.1,0.1c-0.07,0.09-0.09,0.11-0.09,0.11
			c-0.07,0.09-0.09,0.11-0.09,0.11c-0.07,0.09-0.08,0.12-0.08,0.12c-0.06,0.1-0.08,0.12-0.08,0.12c-0.04,0.08-0.06,0.1-0.06,0.1
			c-0.04,0.08-0.05,0.11-0.05,0.11c-0.79,1.67-0.16,3.54-0.41,5.26c-0.02,0.1-0.03,0.13-0.03,0.13c-0.02,0.1-0.03,0.13-0.03,0.13
			c-0.03,0.09-0.04,0.12-0.04,0.12c-0.03,0.09-0.04,0.12-0.04,0.12c-0.04,0.1-0.05,0.11-0.05,0.11c-0.05,0.09-0.06,0.1-0.06,0.1
			c-0.07,0.1-0.07,0.11-0.07,0.11c-0.08,0.1-0.1,0.11-0.1,0.11c-0.1,0.09-0.11,0.1-0.11,0.1c-0.1,0.07-0.11,0.08-0.11,0.08
			c-0.09,0.05-0.1,0.06-0.1,0.06c-0.09,0.04-0.11,0.05-0.11,0.05c-0.08,0.03-0.1,0.04-0.1,0.04c-0.07,0.02-0.11,0.03-0.11,0.03
			c-0.07,0.02-0.11,0.03-0.11,0.03c-0.08,0.02-0.12,0.02-0.12,0.02c-0.08,0.01-0.12,0.02-0.12,0.02c-1.36,0.19-2.85-0.21-4.18-0.08
			c-0.07,0.01-0.1,0.02-0.1,0.02c-0.1,0.02-0.11,0.02-0.11,0.02c-0.09,0.02-0.11,0.03-0.11,0.03c-0.1,0.03-0.11,0.04-0.11,0.04
			c-0.1,0.05-0.11,0.06-0.11,0.06c-0.09,0.06-0.1,0.07-0.1,0.07c-0.1,0.09-0.11,0.1-0.11,0.1c-0.07,0.09-0.08,0.1-0.08,0.1
			c-0.07,0.1-0.07,0.11-0.07,0.11c-0.04,0.08-0.06,0.1-0.06,0.1c-0.09,0.17-0.16,0.34-0.22,0.47c-0.04,0.08-0.06,0.11-0.06,0.11
			c-0.06,0.1-0.07,0.11-0.07,0.11c-0.07,0.09-0.07,0.11-0.07,0.11c-0.07,0.09-0.09,0.1-0.09,0.1c-0.1,0.09-0.11,0.11-0.11,0.11
			c-0.09,0.07-0.1,0.08-0.1,0.08c-0.1,0.06-0.11,0.07-0.11,0.07c-0.09,0.05-0.11,0.06-0.11,0.06c-0.14,0.06-0.16,0.07-0.22,0.09
			c-0.09,0.03-0.13,0.04-0.13,0.04c-0.09,0.03-0.14,0.04-0.14,0.04c-1.58,0.38-4,0.23-5.63,0.29c-1.13,0.04-2.36,0.11-3.42,0.5
			c-0.09,0.04-0.13,0.05-0.13,0.05c-0.08,0.04-0.12,0.06-0.12,0.06c-0.09,0.05-0.11,0.06-0.11,0.06c-0.09,0.06-0.11,0.07-0.11,0.07
			c-0.1,0.07-0.1,0.08-0.1,0.08c-0.09,0.1-0.09,0.11-0.09,0.11c-0.04,0.1-0.05,0.1-0.05,0.1c0,0.1,0,0.1,0,0.1
			c0.04,0.1,0.05,0.11,0.05,0.11c0.09,0.1,0.1,0.1,0.1,0.1c0.1,0.07,0.11,0.08,0.11,0.08c0.08,0.05,0.11,0.06,0.11,0.06
			c0.76,0.36,1.44,0.49,2.22,0.69c1.16,0.27,3,0.65,4.16,0.94c1.64,0.39,3.3,1.15,4.85,1.82c-8.52,0.92-17.56,1.97-26.12,1.79
			c-1.57-0.05-3.19-0.11-4.73-0.47c-0.99-0.23-1.95-0.61-2.83-1.11c-1.47-0.83-2.76-1.95-3.98-3.1c-2.58-2.49-4.98-5.41-7.23-8.19
			c-13.83-17.83-28.73-37.28-45.55-52.28c-7.87-7-16.4-13.53-25.85-18.25c-4.11-2.01-8.42-3.76-12.92-4.68
			c-1.72-0.32-3.67-0.61-5.38-0.17c-0.1,0.03-0.15,0.04-0.15,0.04c-0.09,0.03-0.14,0.05-0.14,0.05c-0.09,0.03-0.13,0.05-0.13,0.05
			c-0.08,0.04-0.12,0.05-0.12,0.05c-0.1,0.05-0.11,0.06-0.11,0.06c-0.09,0.05-0.11,0.06-0.11,0.06c-0.1,0.06-0.11,0.08-0.11,0.08
			c-0.1,0.08-0.11,0.09-0.11,0.09c-0.09,0.1-0.11,0.11-0.11,0.11c-0.07,0.1-0.07,0.1-0.07,0.1c-0.05,0.1-0.05,0.1-0.05,0.1
			c-0.03,0.1-0.03,0.11-0.03,0.11c-0.02,0.1-0.02,0.1-0.02,0.1c0,0.09,0,0.11,0,0.11c0.01,0.09,0.02,0.11,0.02,0.11
			c0.03,0.1,0.03,0.11,0.03,0.11c0.04,0.1,0.05,0.12,0.05,0.12c0.04,0.09,0.05,0.1,0.05,0.1c0.05,0.09,0.06,0.11,0.06,0.11
			c0.05,0.07,0.07,0.11,0.07,0.11c0.05,0.07,0.08,0.11,0.08,0.11c0.06,0.07,0.09,0.11,0.09,0.11c0.48,0.54,0.89,0.85,1.41,1.26
			c1.11,0.86,4.57,3.15,5.77,3.98c13.29,9.26,24.12,21.68,33.5,34.78c4.17,5.78,8.67,12.51,12.52,18.5
			c2.76,4.33,6.09,9.57,8.54,14.04c1.15,2.16,2.41,4.37,2.82,6.81c0.21,1.22,0.19,2.47,0.07,3.7c-0.17,1.85-0.59,4.2-0.66,6.06
			c-0.02,0.67-0.01,1.35,0.08,2.02c0.1,0.68,0.29,1.33,0.5,1.94c0.42,1.16,1.06,2.64,0.99,3.85c-0.03,1-0.32,1.89-0.64,2.82
			c-0.54,1.54-1.26,3.26-1.54,4.86c-0.53,2.64,0.44,5.32,1.15,7.83c0.28,1.01,0.55,2.21,0.4,3.23c-0.12,0.86-0.41,1.55-0.76,2.27
			c-0.21,0.45-2,3.65-2.28,4.15c-3.72,7.02-9.51,18.09-13.55,24.74c-5.08,8.49-10.92,17.45-16.6,25.55
			c-4.21,5.89-8.52,12.11-13.82,17.07c-1.3,1.21-2.72,2.4-4.15,3.46c-1.48,1.11-4.04,2.76-5.6,3.8c-1.13,0.77-2.41,1.6-3.35,2.59
			c-0.08,0.09-0.12,0.14-0.12,0.14c-0.07,0.09-0.09,0.11-0.09,0.11c-0.06,0.09-0.08,0.11-0.08,0.11c-0.06,0.09-0.07,0.11-0.07,0.11
			c-0.05,0.09-0.06,0.11-0.06,0.11c-0.04,0.08-0.05,0.1-0.05,0.1c-0.03,0.08-0.04,0.1-0.04,0.1c-0.03,0.1-0.03,0.12-0.03,0.12
			c-0.02,0.1-0.02,0.12-0.02,0.12c0,0.1,0,0.11,0,0.11c0.01,0.09,0.01,0.1,0.01,0.1c0.02,0.09,0.03,0.1,0.03,0.1
			c0.04,0.1,0.05,0.11,0.05,0.11c0.06,0.09,0.06,0.1,0.06,0.1c0.08,0.1,0.09,0.11,0.09,0.11c0.1,0.09,0.11,0.1,0.11,0.1
			c0.08,0.06,0.1,0.08,0.1,0.08c0.09,0.06,0.11,0.08,0.11,0.08c0.1,0.06,0.13,0.07,0.13,0.07c0.08,0.04,0.11,0.05,0.11,0.05
			c0.09,0.04,0.12,0.05,0.12,0.05c0.09,0.04,0.12,0.05,0.12,0.05c1.02,0.34,2.01,0.31,3.01,0.21c1.28-0.15,2.55-0.5,3.77-0.91
			c2.95-1.01,5.81-2.43,8.54-3.91c4.61-2.52,9.23-5.53,13.54-8.53c8.05-5.64,15.81-12,22.68-19.03c7.6-7.7,14.37-16.59,20.61-25.42
			c3.13-4.45,16.43-24.24,19.55-28.07c1.31-1.65,2.71-3.31,4.25-4.75c1.32-1.22,2.79-2.33,4.45-3.04c2.48-1.06,5.24-1.14,7.9-1
			c9.95,0.69,21.5,3.86,31.27,6.05c-1.01,0.63-2.16,1.49-3.12,2.19c-0.74,0.56-1.57,1.2-2.19,1.88c-0.07,0.08-0.09,0.1-0.09,0.1
			c-0.08,0.1-0.1,0.12-0.1,0.12c-0.07,0.09-0.08,0.12-0.08,0.12c-0.06,0.1-0.06,0.11-0.06,0.11c-0.04,0.09-0.05,0.1-0.05,0.1
			c-0.03,0.09-0.03,0.1-0.03,0.1c0,0.09,0,0.1,0,0.1c0.03,0.09,0.04,0.1,0.04,0.1c0.09,0.1,0.1,0.1,0.1,0.1
			c0.09,0.05,0.1,0.06,0.1,0.06c0.1,0.04,0.11,0.04,0.11,0.04c0.1,0.03,0.12,0.04,0.12,0.04c0.08,0.02,0.11,0.02,0.11,0.02
			c1.12,0.17,2.38,0.11,3.5,0.21c1.26,0.08,2.53,0.29,3.76,0.56c3.79,0.84,8.12,2.54,11.8,3.78c0.95,0.33,2.25,0.69,3.1,1.19
			c0.07,0.04,0.1,0.06,0.1,0.06c0.1,0.06,0.13,0.08,0.13,0.08c0.09,0.06,0.12,0.09,0.12,0.09c0.09,0.07,0.12,0.09,0.12,0.09
			c0.08,0.07,0.11,0.09,0.11,0.09c0.08,0.07,0.1,0.1,0.1,0.1c0.07,0.08,0.1,0.1,0.1,0.1c0.07,0.08,0.09,0.11,0.09,0.11
			c0.06,0.08,0.08,0.11,0.08,0.11c0.06,0.09,0.07,0.12,0.07,0.12c0.05,0.09,0.07,0.12,0.07,0.12c0.04,0.1,0.06,0.13,0.06,0.13
			c0.03,0.07,0.04,0.1,0.04,0.1c0.02,0.07,0.03,0.1,0.03,0.1c0.02,0.07,0.03,0.11,0.03,0.11c0.02,0.07,0.02,0.11,0.02,0.11
			c0.01,0.08,0.02,0.12,0.02,0.12c0.01,0.08,0.02,0.13,0.02,0.13c0.01,0.09,0.01,0.13,0.01,0.13c0.07,1.66-0.62,3.25-0.69,4.87
			c0,0.07,0,0.1,0,0.1c0.01,0.1,0.01,0.11,0.01,0.11c0.01,0.09,0.01,0.11,0.01,0.11c0.02,0.1,0.03,0.11,0.03,0.11
			c0.03,0.1,0.04,0.11,0.04,0.11c0.05,0.09,0.06,0.1,0.06,0.1c0.09,0.1,0.1,0.11,0.1,0.11c0.1,0.07,0.11,0.07,0.11,0.07
			c0.1,0.04,0.11,0.04,0.11,0.04c0.1,0.02,0.11,0.03,0.11,0.03c0.09,0.01,0.1,0.01,0.1,0.01c0.1,0.01,0.11,0.01,0.11,0.01
			c0.07,0,0.11,0,0.11,0c0.1-0.01,0.13-0.01,0.13-0.01c0.74-0.1,1.32-0.34,1.99-0.57c1.98-0.77,4.35-1.61,6.37-2.2
			c2.84-0.87,9.64-2.64,12.47-3.53c1.54-0.47,3.69-1.34,5.2-1.94c6.71,1.48,20.52,4.42,27.2,5.74c-2.69,0.59-5.82,1.36-8.56,1.55
			c-0.83,0.07-2.75,0.12-3.61,0.15c-0.71,0.03-1.57,0.07-2.22,0.26c-0.1,0.03-0.13,0.04-0.13,0.04c-0.09,0.03-0.12,0.04-0.12,0.04
			c-0.1,0.04-0.11,0.05-0.11,0.05c-0.1,0.05-0.11,0.06-0.11,0.06c-0.09,0.07-0.1,0.07-0.1,0.07c-0.1,0.1-0.1,0.1-0.1,0.1
			c-0.07,0.1-0.07,0.1-0.07,0.1c-0.04,0.1-0.04,0.1-0.04,0.1c-0.02,0.1-0.02,0.11-0.02,0.11c-0.01,0.1-0.01,0.11-0.01,0.11
			c0.01,0.09,0.01,0.11,0.01,0.11c0.02,0.1,0.02,0.11,0.02,0.11c0.03,0.09,0.03,0.1,0.03,0.1c0.04,0.09,0.04,0.1,0.04,0.1
			c0.04,0.09,0.05,0.11,0.05,0.11c0.04,0.08,0.06,0.11,0.06,0.11c0.06,0.1,0.08,0.13,0.08,0.13c0.05,0.07,0.07,0.1,0.07,0.1
			c0.73,0.92,1.62,1.51,2.54,2.17c3.22,2.19,7.86,4.76,11.01,7.02c1.66,1.18,3.27,2.49,4.61,4.03c1.19,1.37,2.14,2.96,2.74,4.68
			c0.86,2.44,1.1,5.06,1.08,7.63c-0.08,4.41-0.93,8.87-2.84,12.87c-1.06,2.25-2.73,4.3-4.25,6.25c-0.32,0.42-0.7,0.95-0.91,1.35
			c-0.04,0.08-0.06,0.12-0.06,0.12c-0.03,0.08-0.05,0.12-0.05,0.12c-0.04,0.09-0.04,0.11-0.04,0.11c-0.03,0.09-0.03,0.11-0.03,0.11
			c-0.02,0.09-0.02,0.1-0.02,0.1c-0.02,0.1-0.02,0.12-0.02,0.12c0,0.1,0,0.11,0,0.11c0.01,0.09,0.01,0.1,0.01,0.1
			c0.02,0.1,0.02,0.1,0.02,0.1c0.03,0.1,0.04,0.1,0.04,0.1c0.05,0.09,0.06,0.1,0.06,0.1c0.07,0.09,0.08,0.1,0.08,0.1
			c0.09,0.09,0.1,0.1,0.1,0.1c0.1,0.07,0.11,0.08,0.11,0.08c0.1,0.06,0.11,0.07,0.11,0.07c0.09,0.05,0.11,0.05,0.11,0.05
			c0.1,0.04,0.13,0.06,0.13,0.06c0.07,0.03,0.1,0.04,0.1,0.04c0.07,0.02,0.11,0.03,0.11,0.03c0.08,0.02,0.11,0.03,0.11,0.03
			c0.84,0.2,1.59,0.13,2.4,0.02c0.87-0.14,1.72-0.38,2.55-0.67c4.48-1.62,8.49-4.38,12.29-7.19c10.89-8.27,21.24-18.18,30.98-27.79
			c1.02-0.99,2.1-2,3.25-2.84c1.61-1.19,3.45-1.93,5.4-2.34c3.23-0.69,6.61-0.77,9.9-0.82c28.39,0.4,63.46,1.26,91.77,0.63
			c12.85-0.29,27.51-0.76,40.26-2.15c-6.63,4.05-13.78,7.63-20.87,10.8c-7.62,3.3-16.28,6.23-24.16,8.89
			c-11.73,3.93-25.37,8-37.34,11.27c-0.94,0.28-2.33,0.65-3.24,1.06c-0.09,0.05-0.11,0.05-0.11,0.05c-0.1,0.06-0.11,0.06-0.11,0.06
			c-0.09,0.1-0.09,0.1-0.09,0.1c0.09,0.08,0.11,0.08,0.11,0.08c0.09,0.02,0.1,0.02,0.1,0.02c0.07,0.01,0.1,0.01,0.1,0.01
			c0.68,0.02,1.32-0.05,1.99-0.12c3.34-0.38,6.97-0.98,10.29-1.57c13.6-2.48,27.09-6.39,40.01-11.28
			c14.42-5.55,28.82-12.04,41.84-20.42c7.23-1,14.79-2.47,21.9-4.15c6.67-1.58,13.43-3.56,19.84-5.97
			c15.13-5.63,31.14-14.13,45.92-20.69c3.94-1.68,8.08-3.21,12.22-4.32c2.9-0.8,6.92-1.61,9.86-2.32c0.41-0.11,0.93-0.24,1.3-0.39
			c0.09-0.04,0.11-0.05,0.11-0.05c0.09-0.05,0.1-0.05,0.1-0.05c0.1-0.07,0.1-0.07,0.1-0.07c0.05-0.1,0.05-0.1,0.05-0.1
			c-0.08-0.1-0.1-0.1-0.1-0.1c-0.08-0.04-0.1-0.05-0.1-0.05c-0.09-0.03-0.11-0.04-0.11-0.04c-0.08-0.02-0.11-0.03-0.11-0.03
			c-0.82-0.17-1.63-0.2-2.46-0.26c-3.63-0.18-7.93-0.12-11.59-0.06c-4.88,0.13-10.16,0.34-15.01,0.89
			C566.81,386.78,562.8,387.49,559.1,388.21z"/>
	</g>
</g>
</svg>
