<?xml version="1.0" encoding="utf-8"?>
<!-- Generator: Adobe Illustrator 24.2.1, SVG Export Plug-In . SVG Version: 6.00 Build 0)  -->
<!DOCTYPE svg PUBLIC "-//W3C//DTD SVG 1.1//EN" "http://www.w3.org/Graphics/SVG/1.1/DTD/svg11.dtd" [
	<!ENTITY ns_extend "http://ns.adobe.com/Extensibility/1.0/">
	<!ENTITY ns_ai "http://ns.adobe.com/AdobeIllustrator/10.0/">
	<!ENTITY ns_graphs "http://ns.adobe.com/Graphs/1.0/">
	<!ENTITY ns_vars "http://ns.adobe.com/Variables/1.0/">
	<!ENTITY ns_imrep "http://ns.adobe.com/ImageReplacement/1.0/">
	<!ENTITY ns_sfw "http://ns.adobe.com/SaveForWeb/1.0/">
	<!ENTITY ns_custom "http://ns.adobe.com/GenericCustomNamespace/1.0/">
	<!ENTITY ns_adobe_xpath "http://ns.adobe.com/XPath/1.0/">
]>
<svg version="1.1" xmlns:x="&ns_extend;" xmlns:i="&ns_ai;" xmlns:graph="&ns_graphs;"
	 xmlns="http://www.w3.org/2000/svg" xmlns:xlink="http://www.w3.org/1999/xlink" x="0px" y="0px" width="750px" height="750px"
	 viewBox="0 0 750 750" style="enable-background:new 0 0 750 750;" xml:space="preserve">
<style type="text/css">
	.st0{fill:#FFFFFF;}
	.st1{fill:#FB8604;}
	.st2{fill:none;stroke:#FB8604;stroke-width:2;stroke-linecap:round;stroke-linejoin:round;stroke-miterlimit:10;}
	.st3{fill:none;stroke:#FB8604;stroke-width:3;stroke-linecap:round;stroke-linejoin:round;}
	.st4{fill:none;stroke:#FB8604;stroke-width:3;stroke-linecap:round;stroke-linejoin:round;stroke-dasharray:3.0816,5.136;}
	.st5{fill:none;stroke:#FB8604;stroke-width:3;stroke-linecap:round;stroke-linejoin:round;stroke-dasharray:2.8336,4.7226;}
	.st6{fill:none;stroke:#FB8604;stroke-width:3;stroke-linecap:round;stroke-linejoin:round;stroke-dasharray:2.8854,4.8089;}
	.st7{fill:none;stroke:#FB8604;stroke-width:3;stroke-linecap:round;stroke-linejoin:round;stroke-dasharray:2.9774,4.9624;}
	.st8{fill:none;stroke:#FB8604;stroke-width:3;stroke-linecap:round;stroke-linejoin:round;stroke-dasharray:3.0539,5.0899;}
	.st9{fill:none;stroke:#FB8604;stroke-width:3;stroke-linecap:round;stroke-linejoin:round;stroke-dasharray:2.7986,4.6644;}
	.st10{fill:none;stroke:#FB8604;stroke-width:3;stroke-linecap:round;stroke-linejoin:round;stroke-dasharray:3.232,5.3866;}
	.st11{fill:none;stroke:#FB8604;stroke-width:3;stroke-linecap:round;stroke-linejoin:round;stroke-dasharray:2.9227,4.8712;}
	.st12{fill:none;stroke:#FB8604;stroke-width:3;stroke-linecap:round;stroke-linejoin:round;stroke-dasharray:3.0911,5.1519;}
	.st13{fill:none;stroke:#FB8604;stroke-width:3;stroke-linecap:round;stroke-linejoin:round;stroke-dasharray:3.065,5.1084;}
	.st14{fill:none;stroke:#FB8604;stroke-width:3;stroke-linecap:round;stroke-linejoin:round;stroke-dasharray:2.9467,4.9112;}
	.st15{fill:none;stroke:#FB8604;stroke-width:3;stroke-linecap:round;stroke-linejoin:round;stroke-dasharray:3.0754,5.1257;}
	.st16{fill:none;stroke:#FB8604;stroke-width:3;stroke-linecap:round;stroke-linejoin:round;stroke-dasharray:3.0721,5.1201;}
	.st17{fill:none;stroke:#FB8604;stroke-width:3;stroke-linecap:round;stroke-linejoin:round;stroke-dasharray:3.0591,5.0985;}
	.st18{fill:none;stroke:#FB8604;stroke-width:3;stroke-linecap:round;stroke-linejoin:round;stroke-dasharray:3.0038,5.0064;}
	.st19{fill:none;stroke:#FB8604;stroke-width:3;stroke-linecap:round;stroke-linejoin:round;stroke-dasharray:3.0841,5.1402;}
	.st20{fill:none;stroke:#FB8604;stroke-width:3;stroke-linecap:round;stroke-linejoin:round;stroke-dasharray:2.9205,4.8674;}
	.st21{fill:none;stroke:#FB8604;stroke-width:3;stroke-linecap:round;stroke-linejoin:round;stroke-dasharray:3.0209,5.0348;}
	.st22{fill:none;stroke:#FB8604;stroke-width:3;stroke-linecap:round;stroke-linejoin:round;stroke-dasharray:3.115,5.1917;}
	.st23{fill:none;stroke:#FB8604;stroke-width:3;stroke-linecap:round;stroke-linejoin:round;stroke-dasharray:3.0039,5.0066;}
	.st24{fill:none;stroke:#FB8604;stroke-width:3;stroke-linecap:round;stroke-linejoin:round;stroke-dasharray:3.0618,5.103;}
	.st25{fill:none;stroke:#FB8604;stroke-width:3;stroke-linecap:round;stroke-linejoin:round;stroke-dasharray:2.9617,4.9362;}
	.st26{fill:none;stroke:#FB8604;stroke-width:3;stroke-linecap:round;stroke-linejoin:round;stroke-dasharray:2.7234,4.5389;}
	.st27{fill:none;stroke:#FB8604;stroke-width:3;stroke-linecap:round;stroke-linejoin:round;stroke-dasharray:3.1619,5.2699;}
	.st28{fill:none;stroke:#FB8604;stroke-width:3;stroke-linecap:round;stroke-linejoin:round;stroke-dasharray:2.7553,4.5921;}
	.st29{fill:none;stroke:#FB8604;stroke-width:3;stroke-linecap:round;stroke-linejoin:round;stroke-dasharray:2.992,4.9867;}
	.st30{fill:none;stroke:#FB8604;stroke-width:3;stroke-linecap:round;stroke-linejoin:round;stroke-dasharray:3.1348,5.2247;}
	.st31{fill:none;stroke:#FB8604;stroke-width:3;stroke-linecap:round;stroke-linejoin:round;stroke-dasharray:2.7139,4.5232;}
	.st32{fill:none;stroke:#FB8604;stroke-width:3;stroke-linecap:round;stroke-linejoin:round;stroke-dasharray:3.399,5.6651;}
	.st33{fill:none;stroke:#FB8604;stroke-width:3;stroke-linecap:round;stroke-linejoin:round;stroke-dasharray:3.2635,5.4391;}
	.st34{fill:none;stroke:#FB8604;stroke-width:3;stroke-linecap:round;stroke-linejoin:round;stroke-dasharray:3.0007,5.0011;}
	.st35{fill:none;stroke:#FB8604;stroke-width:3;stroke-linecap:round;stroke-linejoin:round;stroke-dasharray:2.9937,4.9895;}
	.st36{fill:none;stroke:#FB8604;stroke-width:3;stroke-linecap:round;stroke-linejoin:round;stroke-dasharray:3.2259,5.3765;}
	.st37{fill:none;stroke:#FB8604;stroke-width:3;stroke-linecap:round;stroke-linejoin:round;stroke-dasharray:3.0317,5.0528;}
	.st38{fill:none;stroke:#FB8604;stroke-width:3;stroke-linecap:round;stroke-linejoin:round;stroke-dasharray:2.8675,4.7792;}
	.st39{fill:none;stroke:#FB8604;stroke-width:3;stroke-linecap:round;stroke-linejoin:round;stroke-dasharray:3.2805,5.4675;}
	.st40{fill:none;stroke:#FB8604;stroke-width:3;stroke-linecap:round;stroke-linejoin:round;stroke-dasharray:3.0446,5.0744;}
	.st41{fill:none;stroke:#FB8604;stroke-width:3;stroke-linecap:round;stroke-linejoin:round;stroke-dasharray:3.0031,5.0051;}
	.st42{fill:none;stroke:#FB8604;stroke-width:3;stroke-linecap:round;stroke-linejoin:round;stroke-dasharray:2.9954,4.9923;}
	.st43{fill:none;stroke:#FB8604;stroke-width:3;stroke-linecap:round;stroke-linejoin:round;stroke-dasharray:3.0342,5.057;}
	.st44{fill:none;stroke:#FB8604;stroke-width:3;stroke-linecap:round;stroke-linejoin:round;stroke-dasharray:2.9833,4.9722;}
	.st45{fill:none;stroke:#FB8604;stroke-width:3;stroke-linecap:round;stroke-linejoin:round;stroke-dasharray:2.9758,4.9597;}
	.st46{fill:none;stroke:#FB8604;stroke-width:3;stroke-linecap:round;stroke-linejoin:round;stroke-dasharray:3.2049,5.3415;}
	.st47{fill:none;stroke:#FB8604;stroke-width:3;stroke-linecap:round;stroke-linejoin:round;stroke-dasharray:3.0128,5.0214;}
	.st48{fill:none;stroke:#FB8604;stroke-width:3;stroke-linecap:round;stroke-linejoin:round;stroke-dasharray:3.1465,5.2441;}
	.st49{fill:none;stroke:#FB8604;stroke-width:3;stroke-linecap:round;stroke-linejoin:round;stroke-dasharray:3.2602,5.4337;}
	.st50{fill:none;stroke:#FB8604;stroke-width:3;stroke-linecap:round;stroke-linejoin:round;stroke-dasharray:3.0265,5.0442;}
	.st51{fill:none;stroke:#FB8604;stroke-width:3;stroke-linecap:round;stroke-linejoin:round;stroke-dasharray:2.9846,4.9744;}
	.st52{fill:none;stroke:#FB8604;stroke-width:3;stroke-linecap:round;stroke-linejoin:round;stroke-dasharray:2.9779,4.9632;}
	.st53{fill:none;stroke:#FB8604;stroke-width:3;stroke-linecap:round;stroke-linejoin:round;stroke-dasharray:3.0165,5.0275;}
	.st54{fill:none;stroke:#FB8604;stroke-width:3;stroke-linecap:round;stroke-linejoin:round;stroke-dasharray:2.9927,4.9879;}
	.st55{fill:none;stroke:#FB8604;stroke-width:3;stroke-linecap:round;stroke-linejoin:round;stroke-dasharray:2.965,4.9416;}
	.st56{fill:none;stroke:#FB8604;stroke-width:3;stroke-linecap:round;stroke-linejoin:round;stroke-dasharray:2.788,4.6466;}
	.st57{fill:none;stroke:#FB8604;stroke-width:3;stroke-linecap:round;stroke-linejoin:round;stroke-dasharray:2.9526,4.921;}
	.st58{fill:none;stroke:#FB8604;stroke-width:3;stroke-linecap:round;stroke-linejoin:round;stroke-dasharray:3.0849,5.1415;}
	.st59{fill:none;stroke:#FB8604;stroke-width:3;stroke-linecap:round;stroke-linejoin:round;stroke-dasharray:3.1922,5.3204;}
	.st60{fill:none;stroke:#FB8604;stroke-width:3;stroke-linecap:round;stroke-linejoin:round;stroke-dasharray:3.0152,5.0254;}
	.st61{fill:none;stroke:#FB8604;stroke-width:3;stroke-linecap:round;stroke-linejoin:round;stroke-dasharray:3.0143,5.0238;}
	.st62{fill:none;stroke:#FB8604;stroke-width:3;stroke-linecap:round;stroke-linejoin:round;stroke-dasharray:3.0334,5.0557;}
	.st63{fill:none;stroke:#FB8604;stroke-width:3;stroke-linecap:round;stroke-linejoin:round;stroke-dasharray:2.9757,4.9595;}
	.st64{fill:none;stroke:#FB8604;stroke-width:2.75;stroke-linecap:round;stroke-linejoin:round;stroke-miterlimit:10;}
	.st65{fill:none;stroke:#FB8604;stroke-width:3.5;stroke-linecap:round;stroke-linejoin:round;stroke-miterlimit:10;}
</style>
<metadata>
	<sfw  xmlns="&ns_sfw;">
		<slices></slices>
		<sliceSourceBounds  bottomLeftOrigin="true" height="8750" width="4280" x="-2000" y="-1120"></sliceSourceBounds>
	</sfw>
</metadata>
<g id="FILL-BACKGROUND">
	<rect class="st0" width="750" height="750"/>
</g>
<g id="N-TEXT">
</g>
<g id="N-DIMENSIONS">
</g>
<g id="AG-DETAIL-DIAGRAM">
</g>
<g id="AG-DETAILS">
</g>
<g id="AG-ANIMALS">
	<g id="POLYLINE_236_">
		<path class="st64" d="M567.06,342.4c0.23,2.16,0.26,4.42,0.23,6.59c-0.09,3.38-0.38,9.42-0.13,12.72
			c0.02,1.02,0.03,2.18-0.49,3.07c-0.04,0.07-0.06,0.11-0.06,0.11c-0.05,0.07-0.07,0.1-0.07,0.1c-0.05,0.07-0.07,0.1-0.07,0.1
			c-0.05,0.07-0.08,0.1-0.08,0.1c-0.06,0.06-0.08,0.1-0.08,0.1c-0.06,0.06-0.09,0.09-0.09,0.09c-0.49,0.46-0.99,0.72-1.57,0.99
			c-0.76,0.36-2,0.83-2.74,1.22c-0.97,0.48-1.97,1.17-2.45,2.12c-0.37,0.71-0.46,1.37-0.49,2.13c-0.02,0.77,0.09,1.55,0.28,2.29
			c0.27,1.05,0.7,2.08,1.26,3.01c0.59,0.97,1.35,1.84,2.28,2.38c1.41,0.86,3.22,0.97,4.79,1.31c0.78,0.16,1.54,0.42,2.24,0.78
			c1.23,0.65,2.59,1.68,3.75,2.45c0.86,0.57,1.78,1.11,2.73,1.52c1.27,0.55,2.64,0.88,4.01,1.08c1.85,0.28,3.77,0.35,5.64,0.35
			c2.87,0.03,10.5-0.55,13.46-0.72c2.31-0.16,5.04-0.36,7.33-0.64c2.06-0.25,4.24-0.6,6.26-1.05c3.59-0.78,9.46-2.52,13.05-3.51
			c3.53-0.97,7.5-1.85,11.1-2.51c4.34-0.8,11.82-1.99,16.06-3.05c2.77-0.66,6.71-2.08,9.41-2.97c8.26-2.71,18.02-3.8,26.46-5.79
			c2.04-0.49,4.19-1.02,6.14-1.78c0.41-0.16,0.84-0.34,1.24-0.54c0.58-0.29,1.2-0.65,1.62-1.08c0.05-0.05,0.07-0.07,0.07-0.07
			c0.04-0.05,0.06-0.07,0.06-0.07c0.04-0.05,0.06-0.07,0.06-0.07c0.04-0.05,0.06-0.07,0.06-0.07c0.04-0.05,0.05-0.07,0.05-0.07
			c0.03-0.05,0.05-0.07,0.05-0.07c0.03-0.05,0.04-0.08,0.04-0.08c0.03-0.05,0.04-0.08,0.04-0.08c0.03-0.05,0.04-0.08,0.04-0.08
			c0.02-0.05,0.03-0.08,0.03-0.08c0.02-0.05,0.03-0.08,0.03-0.08c0.02-0.05,0.03-0.08,0.03-0.08c0.02-0.05,0.02-0.08,0.02-0.08
			c0.01-0.05,0.02-0.08,0.02-0.08c0.01-0.05,0.02-0.08,0.02-0.08c0.01-0.05,0.01-0.08,0.01-0.08c0.01-0.05,0.01-0.08,0.01-0.08
			c0.01-0.05,0.01-0.08,0.01-0.08c0-0.05,0-0.08,0-0.08c0.03-0.71-0.28-1.38-0.62-1.93c-0.1-0.16-0.19-0.28-0.26-0.36
			c-0.05-0.06-0.07-0.08-0.07-0.08c-0.05-0.05-0.07-0.08-0.07-0.08c-0.05-0.05-0.08-0.07-0.08-0.07c-0.05-0.05-0.08-0.07-0.08-0.07
			c-0.05-0.04-0.08-0.07-0.08-0.07c-0.06-0.04-0.08-0.06-0.08-0.06c-0.06-0.04-0.07-0.05-0.07-0.05c-0.06-0.04-0.07-0.05-0.07-0.05
			c-0.06-0.03-0.08-0.04-0.08-0.04c-0.06-0.03-0.08-0.04-0.08-0.04c-0.06-0.03-0.08-0.04-0.08-0.04c-0.07-0.03-0.08-0.03-0.08-0.03
			c-0.07-0.02-0.09-0.03-0.09-0.03c-0.07-0.02-0.09-0.03-0.09-0.03c-0.82-0.19-1.65,0.02-2.44,0.2c-2.28,0.58-4.71,1.31-7.06,1.5
			c-5.67,0.52-11.88-0.16-17.57-0.33c-5.34-0.2-12.82,0.11-18.15-0.18c-4.31-0.22-8.92-0.88-13.19-1.57"/>
	</g>
	<g id="POLYLINE_235_">
		<path class="st64" d="M554.26,379.42c-5.5-4.36-24.14,2.04-30.35,4.59c-3.75,1.53-7.5,3.28-10.93,5.45
			c-1.83,1.18-3.64,2.5-5.08,4.15c-0.57,0.67-1.07,1.4-1.41,2.19c-0.32,0.75-0.51,1.56-0.59,2.37c-0.17,1.64-0.01,3.56-0.19,5.2
			c-0.14,1.48-0.59,2.92-1.14,4.3c-0.6,1.54-1.56,3.56-2.11,5.12c-0.27,0.79-0.55,1.71-0.48,2.54c0.01,0.06,0.01,0.09,0.01,0.09
			c0.01,0.06,0.01,0.09,0.01,0.09c0.01,0.06,0.02,0.08,0.02,0.08c0.01,0.06,0.02,0.08,0.02,0.08c0.01,0.05,0.02,0.08,0.02,0.08
			c0.02,0.05,0.03,0.08,0.03,0.08c0.02,0.05,0.03,0.08,0.03,0.08c0.02,0.05,0.03,0.07,0.03,0.07c0.02,0.05,0.04,0.07,0.04,0.07
			c0.04,0.07,0.06,0.09,0.06,0.09c0.05,0.07,0.06,0.09,0.06,0.09c0.05,0.06,0.07,0.09,0.07,0.09c0.06,0.06,0.07,0.08,0.07,0.08
			c0.06,0.06,0.08,0.08,0.08,0.08c0.06,0.06,0.09,0.07,0.09,0.07c0.07,0.05,0.09,0.07,0.09,0.07c0.05,0.03,0.07,0.05,0.07,0.05
			c0.05,0.03,0.08,0.05,0.08,0.05c0.05,0.03,0.08,0.05,0.08,0.05c0.58,0.31,1.1,0.4,1.71,0.48c0.72,0.09,1.47,0.09,2.2,0.07
			c2.63-0.06,7.38-0.83,10.04-1.17c4.02-0.58,8.22-1.22,12.09-2.46c1.92-0.62,3.81-1.4,5.54-2.44c2.01-1.21,3.82-2.78,5.51-4.4
			l3.75-3.68c1.36-1.31,2.83-2.6,4.37-3.69c2.1-1.53,5.45-3.43,7.7-4.78c1.14-0.7,2.32-1.44,3.34-2.32c0.74-0.64,1.47-1.4,1.76-2.29
			c0.02-0.05,0.02-0.08,0.02-0.08c0.01-0.05,0.02-0.08,0.02-0.08c0.01-0.05,0.02-0.08,0.02-0.08c0.01-0.05,0.01-0.08,0.01-0.08
			c0.01-0.05,0.01-0.08,0.01-0.08c0-0.05,0.01-0.08,0.01-0.08c0-0.05,0-0.08,0-0.08c0-0.05,0-0.08,0-0.08c0-0.05,0-0.08,0-0.08
			c0-0.05-0.01-0.08-0.01-0.08c-0.01-0.05-0.01-0.08-0.01-0.08c-0.01-0.05-0.02-0.08-0.02-0.08c-0.01-0.05-0.02-0.08-0.02-0.08
			c-0.02-0.05-0.02-0.08-0.02-0.08c-0.02-0.07-0.03-0.08-0.03-0.08c-0.02-0.06-0.04-0.08-0.04-0.08c-0.03-0.06-0.04-0.08-0.04-0.08
			c-0.03-0.06-0.04-0.08-0.04-0.08c-0.03-0.05-0.05-0.08-0.05-0.08c-0.04-0.05-0.05-0.08-0.05-0.08c-0.47-0.67-1.17-1.19-1.76-1.72
			c-0.67-0.59-1.33-1.25-1.75-2C556.2,383.06,555.88,380.73,554.26,379.42z"/>
	</g>
	<g id="POLYLINE_234_">
		<path class="st64" d="M560.97,388.98c4.79-0.8,11.66-2.04,16.38-3.01"/>
	</g>
	<g id="POLYLINE_233_">
		<path class="st64" d="M548.36,377.94c-2.09-1.72-4.09-3.62-5.63-5.86c-1.28-1.83-2.21-3.91-2.74-6.08
			c-0.7-2.85-0.84-5.82-0.69-8.74c0.2-3.45,0.82-6.91,1.89-10.2c0.64-1.94,1.46-3.85,2.58-5.56c0.84-1.29,1.94-2.53,3.21-3.39
			c2.8-1.9,6.4-1.95,9.64-1.49"/>
	</g>
	<g id="POLYLINE_232_">
		<path class="st64" d="M649.3,359.94c0.2-0.37,0.42-0.71,0.66-0.96c0.05-0.05,0.07-0.08,0.07-0.08c0.05-0.05,0.08-0.07,0.08-0.07
			c0.07-0.06,0.08-0.07,0.08-0.07c0.07-0.05,0.08-0.06,0.08-0.06c0.07-0.05,0.08-0.06,0.08-0.06c0.07-0.04,0.08-0.05,0.08-0.05
			c0.07-0.03,0.08-0.04,0.08-0.04c0.07-0.03,0.09-0.03,0.09-0.03c0.06-0.02,0.07-0.02,0.07-0.02c0.07-0.01,0.07-0.01,0.07-0.01
			c0.07-0.01,0.07-0.01,0.07-0.01c0.07,0,0.08,0,0.08,0c0.06,0.01,0.07,0.01,0.07,0.01c0.06,0.01,0.07,0.02,0.07,0.02
			c0.06,0.02,0.08,0.02,0.08,0.02c0.06,0.02,0.08,0.03,0.08,0.03c0.06,0.03,0.08,0.04,0.08,0.04c0.06,0.04,0.08,0.04,0.08,0.04
			c0.06,0.04,0.08,0.05,0.08,0.05c0.06,0.04,0.08,0.06,0.08,0.06c0.05,0.04,0.08,0.06,0.08,0.06c0.06,0.05,0.09,0.08,0.09,0.08
			c0.06,0.06,0.09,0.09,0.09,0.09c0.06,0.06,0.09,0.09,0.09,0.09c0.33,0.36,0.56,0.7,0.76,1.08"/>
	</g>
	<g id="POLYLINE_231_">
		<path class="st64" d="M654.57,360.2c0.21-0.39,0.45-0.73,0.7-1c0.05-0.05,0.08-0.08,0.08-0.08c0.05-0.05,0.08-0.08,0.08-0.08
			c0.06-0.05,0.08-0.07,0.08-0.07c0.07-0.05,0.09-0.06,0.09-0.06c0.06-0.04,0.07-0.05,0.07-0.05c0.06-0.04,0.07-0.04,0.07-0.04
			c0.06-0.03,0.07-0.04,0.07-0.04c0.06-0.03,0.07-0.03,0.07-0.03c0.06-0.02,0.08-0.03,0.08-0.03c0.07-0.02,0.08-0.02,0.08-0.02
			c0.07-0.01,0.08-0.01,0.08-0.01c0.07,0,0.08-0.01,0.08-0.01c0.07,0,0.08,0,0.08,0c0.07,0.01,0.08,0.01,0.08,0.01
			c0.06,0.01,0.08,0.02,0.08,0.02c0.06,0.02,0.08,0.02,0.08,0.02c0.06,0.02,0.08,0.03,0.08,0.03c0.06,0.03,0.08,0.04,0.08,0.04
			c0.06,0.03,0.08,0.04,0.08,0.04c0.06,0.04,0.08,0.05,0.08,0.05c0.06,0.04,0.08,0.05,0.08,0.05c0.05,0.03,0.08,0.06,0.08,0.06
			c0.06,0.05,0.09,0.08,0.09,0.08c0.06,0.05,0.09,0.08,0.09,0.08c0.06,0.06,0.09,0.09,0.09,0.09c0.29,0.3,0.51,0.61,0.68,0.9"/>
	</g>
	<g id="POLYLINE_230_">
		<path class="st64" d="M661,360.21c0.2-0.39,0.43-0.75,0.67-1.02c0.05-0.06,0.08-0.08,0.08-0.08c0.05-0.05,0.08-0.08,0.08-0.08
			c0.07-0.06,0.08-0.07,0.08-0.07c0.07-0.06,0.08-0.07,0.08-0.07c0.07-0.05,0.08-0.06,0.08-0.06c0.06-0.04,0.07-0.04,0.07-0.04
			c0.06-0.03,0.07-0.04,0.07-0.04c0.06-0.03,0.07-0.03,0.07-0.03c0.06-0.02,0.07-0.03,0.07-0.03c0.07-0.02,0.08-0.02,0.08-0.02
			c0.07-0.01,0.08-0.01,0.08-0.01c0.07,0,0.08-0.01,0.08-0.01c0.07,0,0.08,0,0.08,0c0.06,0.01,0.07,0.01,0.07,0.01
			c0.06,0.01,0.07,0.02,0.07,0.02c0.06,0.02,0.08,0.02,0.08,0.02c0.06,0.02,0.08,0.03,0.08,0.03c0.06,0.03,0.08,0.04,0.08,0.04
			c0.06,0.03,0.08,0.04,0.08,0.04c0.06,0.04,0.08,0.05,0.08,0.05c0.06,0.04,0.08,0.05,0.08,0.05c0.05,0.03,0.08,0.06,0.08,0.06
			c0.06,0.05,0.09,0.08,0.09,0.08c0.06,0.05,0.09,0.08,0.09,0.08c0.34,0.32,0.59,0.67,0.79,1"/>
	</g>
	<g id="POLYLINE_214_">
		<path class="st64" d="M666.72,360.21c0.18-0.31,0.4-0.64,0.59-0.86c0.05-0.05,0.07-0.08,0.07-0.08c0.05-0.05,0.08-0.08,0.08-0.08
			c0.05-0.05,0.08-0.07,0.08-0.07c0.05-0.05,0.08-0.07,0.08-0.07c0.07-0.05,0.08-0.06,0.08-0.06c0.07-0.05,0.08-0.06,0.08-0.06
			c0.06-0.03,0.07-0.04,0.07-0.04c0.06-0.03,0.07-0.04,0.07-0.04c0.06-0.03,0.08-0.03,0.08-0.03c0.06-0.02,0.08-0.03,0.08-0.03
			c0.06-0.02,0.08-0.02,0.08-0.02c0.06-0.01,0.08-0.02,0.08-0.02c0.07-0.01,0.08-0.01,0.08-0.01c0.07,0,0.09,0,0.09,0
			c0.06,0,0.08,0,0.08,0c0.06,0,0.08,0.01,0.08,0.01c0.06,0.01,0.08,0.01,0.08,0.01c0.06,0.01,0.08,0.02,0.08,0.02
			c0.06,0.02,0.08,0.02,0.08,0.02c0.06,0.02,0.08,0.03,0.08,0.03c0.06,0.02,0.08,0.03,0.08,0.03c0.06,0.02,0.08,0.03,0.08,0.03
			c0.7,0.31,1.25,0.83,1.69,1.4"/>
	</g>
	<g id="POLYLINE_213_">
		<path class="st64" d="M673.34,360.43c0.2-0.33,0.45-0.68,0.67-0.9c0.05-0.06,0.08-0.08,0.08-0.08c0.06-0.05,0.08-0.08,0.08-0.08
			c0.06-0.05,0.09-0.08,0.09-0.08c0.06-0.05,0.09-0.07,0.09-0.07c0.06-0.04,0.08-0.05,0.08-0.05c0.06-0.04,0.08-0.05,0.08-0.05
			c0.06-0.04,0.08-0.05,0.08-0.05c0.06-0.03,0.08-0.04,0.08-0.04c0.07-0.03,0.08-0.03,0.08-0.03c0.07-0.02,0.08-0.03,0.08-0.03
			c0.07-0.02,0.08-0.02,0.08-0.02c0.07-0.01,0.09-0.02,0.09-0.02c0.07-0.01,0.09-0.01,0.09-0.01c0.07,0,0.08,0,0.08,0
			c0.06,0,0.08,0,0.08,0c0.06,0.01,0.08,0.01,0.08,0.01c0.06,0.01,0.08,0.01,0.08,0.01c0.06,0.01,0.09,0.02,0.09,0.02
			c0.06,0.02,0.09,0.02,0.09,0.02c0.06,0.02,0.09,0.03,0.09,0.03c0.07,0.02,0.09,0.03,0.09,0.03c0.07,0.03,0.09,0.04,0.09,0.04
			c0.07,0.03,0.09,0.04,0.09,0.04c0.71,0.37,1.27,0.94,1.69,1.54"/>
	</g>
	<g id="POLYLINE_212_">
		<path class="st64" d="M679.11,360.72c0.25-0.37,0.53-0.7,0.81-0.94c0.06-0.05,0.09-0.08,0.09-0.08c0.06-0.05,0.09-0.07,0.09-0.07
			c0.06-0.05,0.1-0.07,0.1-0.07c0.07-0.04,0.08-0.05,0.08-0.05c0.07-0.04,0.08-0.05,0.08-0.05c0.07-0.04,0.08-0.04,0.08-0.04
			c0.07-0.03,0.09-0.04,0.09-0.04c0.07-0.03,0.09-0.03,0.09-0.03c0.07-0.02,0.09-0.03,0.09-0.03c0.07-0.02,0.09-0.02,0.09-0.02
			c0.07-0.01,0.09-0.02,0.09-0.02c0.05-0.01,0.07-0.01,0.07-0.01c0.05,0,0.07,0,0.07,0c0.06,0,0.08,0,0.08,0
			c0.06,0,0.08,0.01,0.08,0.01c0.06,0.01,0.08,0.01,0.08,0.01c0.06,0.01,0.08,0.01,0.08,0.01c0.06,0.01,0.08,0.02,0.08,0.02
			c0.06,0.02,0.08,0.02,0.08,0.02c0.06,0.02,0.08,0.03,0.08,0.03c0.06,0.02,0.08,0.03,0.08,0.03c0.06,0.02,0.08,0.03,0.08,0.03
			c0.65,0.3,1.18,0.86,1.54,1.38"/>
	</g>
	<g id="POLYLINE_211_">
		<path class="st64" d="M686.56,360.67c0.12-0.37,0.3-0.82,0.49-1.15c0.04-0.07,0.06-0.1,0.06-0.1c0.04-0.07,0.07-0.1,0.07-0.1
			c0.05-0.06,0.07-0.09,0.07-0.09c0.05-0.06,0.06-0.07,0.06-0.07c0.06-0.07,0.08-0.08,0.08-0.08c0.07-0.06,0.08-0.08,0.08-0.08
			c0.07-0.06,0.08-0.07,0.08-0.07c0.06-0.04,0.07-0.05,0.07-0.05c0.06-0.04,0.08-0.05,0.08-0.05c0.06-0.03,0.08-0.04,0.08-0.04
			c0.06-0.03,0.08-0.03,0.08-0.03c0.07-0.02,0.07-0.02,0.07-0.02c0.07-0.01,0.08-0.02,0.08-0.02c0.07-0.01,0.08-0.01,0.08-0.01
			c0.07-0.01,0.09-0.01,0.09-0.01c0.06,0,0.08,0,0.08,0c0.06,0,0.08,0.01,0.08,0.01c0.06,0.01,0.08,0.01,0.08,0.01
			c0.06,0.01,0.09,0.02,0.09,0.02c0.07,0.01,0.09,0.02,0.09,0.02c0.07,0.02,0.09,0.02,0.09,0.02c0.07,0.02,0.09,0.03,0.09,0.03
			c0.72,0.25,1.33,0.75,1.82,1.25"/>
	</g>
	<g id="POLYLINE_210_">
		<path class="st64" d="M691.82,359.77c0.07-0.25,0.16-0.48,0.24-0.65c0.08-0.16,0.15-0.29,0.21-0.38c0.04-0.06,0.06-0.09,0.06-0.09
			c0.04-0.06,0.06-0.08,0.06-0.08c0.04-0.05,0.06-0.08,0.06-0.08c0.05-0.06,0.06-0.07,0.06-0.07c0.07-0.07,0.08-0.08,0.08-0.08
			c0.07-0.06,0.08-0.07,0.08-0.07c0.07-0.05,0.08-0.06,0.08-0.06c0.07-0.04,0.08-0.04,0.08-0.04c0.07-0.03,0.07-0.03,0.07-0.03
			c0.07-0.02,0.07-0.02,0.07-0.02c0.07-0.01,0.07-0.01,0.07-0.01c0.07,0,0.07,0,0.07,0c0.06,0.01,0.07,0.01,0.07,0.01
			c0.07,0.02,0.08,0.02,0.08,0.02c0.07,0.03,0.08,0.03,0.08,0.03c0.07,0.03,0.08,0.04,0.08,0.04c0.07,0.04,0.08,0.05,0.08,0.05
			c0.06,0.04,0.08,0.06,0.08,0.06c0.07,0.05,0.09,0.07,0.09,0.07c0.07,0.06,0.09,0.08,0.09,0.08c0.07,0.06,0.09,0.08,0.09,0.08
			c0.21,0.21,0.32,0.36,0.47,0.55"/>
	</g>
	<g id="POLYLINE_209_">
		<path class="st64" d="M646.94,356.18c0.13,0.4,0.33,0.92,0.53,1.26c0.04,0.06,0.05,0.09,0.05,0.09c0.05,0.07,0.06,0.08,0.06,0.08
			c0.05,0.06,0.06,0.07,0.06,0.07c0.06,0.06,0.07,0.07,0.07,0.07c0.07,0.06,0.07,0.06,0.07,0.06c0.07,0.04,0.08,0.05,0.08,0.05
			c0.07,0.03,0.07,0.03,0.07,0.03c0.07,0.01,0.07,0.01,0.07,0.01c0.07-0.01,0.08-0.01,0.08-0.01c0.07-0.03,0.07-0.03,0.07-0.03
			c0.07-0.04,0.07-0.04,0.07-0.04c0.07-0.05,0.08-0.06,0.08-0.06c0.06-0.06,0.07-0.07,0.07-0.07c0.06-0.07,0.07-0.08,0.07-0.08
			c0.05-0.06,0.06-0.08,0.06-0.08c0.39-0.59,0.6-1.18,0.79-1.84"/>
	</g>
	<g id="POLYLINE_208_">
		<path class="st64" d="M652.15,355.18c0.2,0.66,0.44,1.41,0.8,1.99c0.04,0.06,0.05,0.07,0.05,0.07c0.05,0.07,0.06,0.08,0.06,0.08
			c0.05,0.06,0.06,0.08,0.06,0.08c0.06,0.07,0.07,0.07,0.07,0.07c0.07,0.06,0.08,0.06,0.08,0.06c0.07,0.04,0.07,0.04,0.07,0.04
			c0.07,0.03,0.07,0.03,0.07,0.03c0.07,0.01,0.07,0.01,0.07,0.01c0.07,0,0.08,0,0.08,0c0.07-0.02,0.07-0.02,0.07-0.02
			c0.07-0.03,0.07-0.03,0.07-0.03c0.07-0.04,0.07-0.05,0.07-0.05c0.07-0.05,0.07-0.06,0.07-0.06c0.07-0.07,0.08-0.08,0.08-0.08
			c0.06-0.07,0.07-0.09,0.07-0.09c0.04-0.06,0.06-0.08,0.06-0.08c0.5-0.74,0.77-1.6,1-2.43"/>
	</g>
	<g id="POLYLINE_207_">
		<path class="st64" d="M657.66,354.55c0.22,0.99,0.47,2.09,0.93,2.99c0.04,0.08,0.07,0.12,0.09,0.15c0.04,0.07,0.06,0.09,0.06,0.09
			c0.04,0.06,0.06,0.08,0.06,0.08c0.06,0.07,0.07,0.08,0.07,0.08c0.07,0.07,0.08,0.07,0.08,0.07c0.07,0.05,0.08,0.06,0.08,0.06
			c0.07,0.03,0.08,0.04,0.08,0.04c0.07,0.02,0.08,0.02,0.08,0.02c0.07,0,0.07,0,0.07,0c0.07-0.02,0.08-0.02,0.08-0.02
			c0.07-0.03,0.08-0.04,0.08-0.04c0.07-0.04,0.08-0.05,0.08-0.05c0.07-0.06,0.08-0.07,0.08-0.07c0.07-0.07,0.08-0.09,0.08-0.09
			c0.05-0.06,0.07-0.08,0.07-0.08c0.36-0.5,0.53-0.95,0.73-1.47c0.24-0.63,0.44-1.3,0.6-1.95"/>
	</g>
	<g id="POLYLINE_206_">
		<path class="st64" d="M663.82,354.27c0.12,0.86,0.26,1.82,0.6,2.61c0.03,0.07,0.04,0.09,0.04,0.09c0.03,0.07,0.05,0.09,0.05,0.09
			c0.04,0.06,0.05,0.08,0.05,0.08c0.04,0.06,0.05,0.07,0.05,0.07c0.06,0.07,0.07,0.08,0.07,0.08c0.07,0.07,0.08,0.07,0.08,0.07
			c0.07,0.05,0.08,0.05,0.08,0.05c0.07,0.03,0.07,0.03,0.07,0.03c0.07,0.02,0.08,0.02,0.08,0.02c0.07,0,0.08,0,0.08,0
			c0.06-0.01,0.07-0.01,0.07-0.01c0.07-0.02,0.07-0.02,0.07-0.02c0.07-0.03,0.08-0.04,0.08-0.04c0.07-0.04,0.08-0.05,0.08-0.05
			c0.07-0.05,0.09-0.06,0.09-0.06c0.06-0.05,0.08-0.07,0.08-0.07c0.06-0.06,0.08-0.08,0.08-0.08c0.06-0.06,0.08-0.08,0.08-0.08
			c0.41-0.46,0.65-0.87,0.94-1.36c0.26-0.47,0.5-0.96,0.71-1.45"/>
	</g>
	<g id="POLYLINE_204_">
		<path class="st64" d="M669.59,354.25c0.39,1.11,0.9,2.42,1.67,3.28c0.07,0.07,0.09,0.09,0.09,0.09c0.07,0.06,0.09,0.08,0.09,0.08
			c0.07,0.05,0.08,0.06,0.08,0.06c0.07,0.05,0.08,0.05,0.08,0.05c0.07,0.04,0.08,0.05,0.08,0.05c0.07,0.03,0.08,0.04,0.08,0.04
			c0.07,0.02,0.08,0.03,0.08,0.03c0.07,0.02,0.08,0.02,0.08,0.02c0.07,0.01,0.08,0.01,0.08,0.01c0.06,0,0.08,0,0.08,0
			c0.06-0.01,0.07-0.01,0.07-0.01c0.06-0.02,0.07-0.02,0.07-0.02c0.06-0.03,0.07-0.03,0.07-0.03c0.06-0.03,0.07-0.04,0.07-0.04
			c0.06-0.04,0.07-0.05,0.07-0.05c0.07-0.06,0.08-0.06,0.08-0.06c0.07-0.06,0.09-0.08,0.09-0.08c0.06-0.06,0.08-0.08,0.08-0.08
			c0.37-0.44,0.59-0.91,0.79-1.37c0.26-0.61,0.48-1.26,0.66-1.89"/>
	</g>
	<g id="POLYLINE_203_">
		<path class="st64" d="M676.81,354.32c0.11,0.73,0.26,1.55,0.56,2.22c0.03,0.06,0.04,0.08,0.04,0.08c0.03,0.06,0.04,0.08,0.04,0.08
			c0.03,0.06,0.04,0.07,0.04,0.07c0.05,0.07,0.06,0.08,0.06,0.08c0.05,0.07,0.06,0.07,0.06,0.07c0.07,0.07,0.08,0.07,0.08,0.07
			c0.07,0.05,0.07,0.05,0.07,0.05c0.07,0.03,0.08,0.04,0.08,0.04c0.06,0.02,0.07,0.02,0.07,0.02c0.06,0,0.07,0,0.07,0
			c0.07-0.01,0.08-0.01,0.08-0.01c0.07-0.02,0.08-0.02,0.08-0.02c0.07-0.03,0.08-0.04,0.08-0.04c0.06-0.04,0.07-0.04,0.07-0.04
			c0.05-0.04,0.07-0.05,0.07-0.05c0.06-0.04,0.07-0.06,0.07-0.06c0.06-0.05,0.08-0.07,0.08-0.07c0.06-0.05,0.08-0.07,0.08-0.07
			c0.38-0.39,0.61-0.76,0.86-1.19c0.24-0.41,0.46-0.84,0.65-1.28"/>
	</g>
	<g id="POLYLINE_202_">
		<path class="st64" d="M682.26,354.2c0.16,0.72,0.38,1.54,0.75,2.16c0.04,0.07,0.06,0.09,0.06,0.09c0.04,0.06,0.06,0.09,0.06,0.09
			c0.04,0.06,0.06,0.08,0.06,0.08c0.05,0.06,0.06,0.08,0.06,0.08c0.06,0.07,0.08,0.09,0.08,0.09c0.07,0.06,0.07,0.07,0.07,0.07
			c0.07,0.05,0.08,0.06,0.08,0.06c0.07,0.05,0.08,0.05,0.08,0.05c0.06,0.03,0.07,0.04,0.07,0.04c0.07,0.03,0.08,0.03,0.08,0.03
			c0.07,0.02,0.08,0.02,0.08,0.02c0.06,0.01,0.07,0.01,0.07,0.01c0.07,0.01,0.08,0.01,0.08,0.01c0.07,0,0.08,0,0.08,0
			c0.07-0.01,0.08-0.01,0.08-0.01c0.06-0.01,0.07-0.01,0.07-0.01c0.06-0.02,0.07-0.02,0.07-0.02c0.06-0.02,0.08-0.02,0.08-0.02
			c0.06-0.02,0.09-0.03,0.09-0.03c0.05-0.02,0.08-0.03,0.08-0.03c0.05-0.02,0.08-0.04,0.08-0.04c0.05-0.03,0.08-0.04,0.08-0.04
			c0.53-0.31,0.95-0.75,1.31-1.16c0.34-0.4,0.66-0.83,0.94-1.27"/>
	</g>
	<g id="POLYLINE_201_">
		<path class="st64" d="M688.83,354.93c0.09,0.6,0.26,1.28,0.54,1.8c0.03,0.06,0.04,0.08,0.04,0.08c0.03,0.05,0.04,0.07,0.04,0.07
			c0.05,0.07,0.06,0.08,0.06,0.08c0.05,0.06,0.06,0.08,0.06,0.08c0.06,0.07,0.07,0.08,0.07,0.08c0.07,0.07,0.08,0.07,0.08,0.07
			c0.07,0.05,0.07,0.05,0.07,0.05c0.07,0.04,0.08,0.04,0.08,0.04c0.06,0.02,0.07,0.03,0.07,0.03c0.07,0.01,0.07,0.02,0.07,0.02
			c0.07,0.01,0.07,0.01,0.07,0.01c0.07,0,0.07,0,0.07,0c0.07-0.01,0.08-0.01,0.08-0.01c0.07-0.02,0.08-0.02,0.08-0.02
			c0.06-0.02,0.08-0.03,0.08-0.03c0.06-0.03,0.08-0.04,0.08-0.04c0.06-0.03,0.08-0.04,0.08-0.04c0.06-0.04,0.08-0.05,0.08-0.05
			c0.06-0.04,0.08-0.06,0.08-0.06c0.06-0.05,0.1-0.07,0.1-0.07c0.06-0.05,0.1-0.08,0.1-0.08c0.41-0.36,0.69-0.72,0.96-1.1"/>
	</g>
	<g id="POLYLINE_200_">
		<path class="st64" d="M617.16,363.9c3.46-0.48,7.02-1.12,10.4-2.01c4.42-1.17,10.37-3.33,14.78-4.54
			c4.21-1.18,8.59-2.1,12.95-2.57c9.25-1.01,19.38-0.17,28.67-0.61c1.49-0.02,2.99,0.21,4.41,0.64l3.19,0.95
			c1.76,0.5,3.61,0.87,5.44,0.62c2.65-0.33,5.22-1.86,6.52-4.23c0.63-1.14,0.91-2.6,0.29-3.76c-0.44-0.83-1.12-1.41-1.85-1.9
			c-0.86-0.57-1.82-1-2.79-1.34c-2.36-0.83-4.9-1.08-7.38-1.14c-1.53-0.03-4.9-0.05-6.32-0.14c-1.31-0.08-2.77-0.25-4.08-0.44
			c-2.31-0.34-8.16-1.39-10.41-1.69c-2.39-0.34-5.13-0.61-7.54-0.79c-9.47-0.69-22.33-0.91-31.58-2.69
			c-8.17-1.53-18.97-4.23-27.16-5.9c-11.13-2.3-23.03-4.53-34.31-5.89c-7.74-0.93-15.72-1.4-23.52-1.4
			c-13.69-0.03-42.12,1.91-56.05,2.58c-18.74,0.67-73.74,2.56-91.36,3.54c-15.76,0.87-52.49,3.12-67.67,3.48
			c-9.81,0.25-20.71,0.36-30.49-0.11c-7.67-0.36-15.51-1.12-23.04-2.6c-6.97-1.26-15.42-3.73-22.43-4.61
			c-2.94-0.35-5.91-0.3-8.79,0.38c-4.94,1.16-9.98,3.77-14.76,5.42c-10.32,3.66-22.94,6.4-33.04,10.62
			c-3.15,1.33-7.92,3.53-11.09,4.54c-2.08,0.68-4.24,1.21-6.4,1.52c-6.98,0.96-14.14,0.37-21.1-0.45c-4.78-0.6-9.9-1.48-14.62-2.43
			c-2.73-0.55-9.36-2.08-12.04-2.42c-1.53-0.2-3.09-0.33-4.62-0.16c-0.69,0.08-1.41,0.25-2.05,0.52c-0.73,0.3-1.37,0.77-1.85,1.33
			c-0.68,0.79-1.07,1.66-1.39,2.63c-0.38,1.21-0.57,2.49-0.67,3.75c-0.25,3.54,0.12,7.14,0.61,10.64c1.06,6.9,2.53,13.86,5.1,20.37
			c0.89,2.19,1.93,4.36,3.27,6.31c0.9,1.31,1.96,2.54,3.23,3.51c1.38,1.07,3.05,1.78,4.78,2.01c2.86,0.36,5.75-0.33,8.52-0.99
			c3.36-0.87,8.37-2.2,11.7-2.83c3.68-0.71,7.49-1.21,11.23-1.52c5.12-0.4,10.34-0.58,15.44,0.11c1.89,0.27,3.78,0.72,5.49,1.59
			c1.09,0.54,2.14,1.25,3.12,1.96c1.5,1.09,3.25,2.38,4.82,3.35c5.87,3.65,12.32,6.74,18.67,9.46c3.64,1.54,7.47,3,11.25,4.18
			c3.3,1.03,6.72,1.89,10.16,2.25c4.12,0.5,9.06,0.15,13.22-0.03c3.89-0.17,7.98-0.03,11.87,0.25c12.87,0.92,29.63,3.21,42.5,3.57
			c17.76,0.67,38.36-1.73,56.13-3.28"/>
	</g>
	<g id="POLYLINE_199_">
		<path class="st64" d="M400.76,404.37c-7.49,0.13-14.98,1.39-22.19,3.38c-7.19,2.03-14.4,4.95-19.95,10.08
			c-2.69,2.5-5.07,5.5-6.19,9.04c-0.59,1.88-0.81,4.35,0.7,5.83c0.88,0.84,1.95,1.18,3.09,1.42c1.59,0.3,3.23,0.3,4.85,0.18
			c4.29-0.34,8.51-1.46,12.55-2.88c6.32-2.24,12.44-5.39,18.29-8.66l12.46-7.17c3.65-2.03,7.45-3.98,11.4-5.34
			c2.97-1.03,6.13-1.78,9.22-2.38c2.42-0.49,5.04-0.85,7.5-1.09l48.91-4.46c7.52-0.8,17-1.94,24.45-3.08"/>
	</g>
	<g id="POLYLINE_198_">
		<path class="st64" d="M193.27,392.03c-3.08,0.9-6.16,2.19-9.08,3.51c-2.98,1.41-9.87,4.37-12.62,5.97
			c-1.19,0.69-2.37,1.47-3.37,2.42c-0.73,0.69-1.38,1.52-1.75,2.45c-0.66,1.67-0.36,3.53,0.2,5.18c0.83,2.39,2.19,4.58,3.58,6.67
			c2,3.02,4.54,6.22,6.83,9.05c1.35,1.61,4.37,5.47,5.83,6.91c1.58,1.62,3.44,3.05,5.62,3.75c1.76,0.57,3.65,0.68,5.49,0.58
			c2.75-0.16,5.48-0.81,8.12-1.61c5.34-1.64,10.55-4.03,15.58-6.47l19.22-9.82c5.05-2.44,10.32-4.71,15.81-5.91
			c4.89-1,10.18-1.17,15.17-1.38"/>
	</g>
	<g id="POLYLINE_197_">
		<path class="st64" d="M194.2,345.92c-6.15-0.88-11.78-3.89-17.15-6.86c-2.04-1.16-4.28-2.61-5.13-4.89
			c-0.5-1.32-0.54-2.68-0.48-4.07c0.13-2.18,0.6-4.37,1.09-6.49c0.33-1.33,1.46-5.78,1.73-7.04c0.33-1.48,0.96-4.91,1.25-6.44
			c0.73-3.57,1.83-7.13,3.74-10.25c1.08-1.73,2.48-3.4,4.37-4.25c1.69-0.75,3.61-0.71,5.4-0.39c2.46,0.45,4.85,1.38,7.17,2.32
			c10.56,4.54,23.76,10.06,33.81,15.51c7.62,4.1,15.11,9,22.15,14.04"/>
	</g>
	<g id="POLYLINE_196_">
		<path class="st64" d="M145.17,395.21c-8.77,3.31-19.16,6.78-28.1,9.61c-7.44,2.31-15.54,4.77-23.11,6.5
			c-3.28,0.71-6.65,1.46-10.02,1.39c-1.55-0.04-3.12-0.32-4.54-0.97c-1.31-0.59-2.45-1.49-3.43-2.53c-1.52-1.57-3.04-3.84-4.32-5.62
			c-1.18-1.61-2.42-3.41-4.08-4.56c-0.82-0.55-1.68-0.84-2.62-1.08c-1.37-0.33-2.89-0.63-4.07-1.42c-0.82-0.53-1.54-1.23-2.16-1.96
			c-0.89-1.04-1.65-2.2-2.3-3.4c-1.22-2.29-2.16-4.78-2.49-7.37c-0.26-1.97-0.05-4.17,0.03-6.15c0.05-1.34,0-2.7-0.32-4
			c-0.55-2.27-1.92-4.85-2.89-6.97c-0.74-1.65-1.5-3.39-1.47-5.23c0.03-1.95,0.77-3.89,0.83-5.84c0.09-2.34-0.45-4.93-0.63-7.25
			c-0.13-1.76-0.16-3.6,0.47-5.27c0.97-2.48,3.33-4.15,5.27-5.83c1.08-0.92,2.17-1.91,3.01-3.05c1.08-1.43,2.07-3.54,2.9-5.12
			c0.85-1.61,1.92-3.26,3.43-4.29c1.2-0.84,2.6-1.36,4.02-1.69c2.11-0.48,4.31-0.57,6.47-0.43c3.62,0.23,7.18,1.17,10.6,2.35
			c4.37,1.51,10.13,4.02,14.49,5.59c6.58,2.39,16.83,5.36,23.36,7.84c5.2,1.95,10.59,4.52,15.58,6.96"/>
	</g>
</g>
<g id="AG-OUTLINE">
	<g id="POLYLINE_11_">
		<path class="st65" d="M252.14,327.1c3.53-0.01,7.1,0.69,10.55,1.42c5.6,1.26,14.3,3.32,19.87,4.17c4.12,0.68,8.52,1.15,12.69,1.47
			c9.47,0.72,19.87,0.77,29.38,0.64c8.2-0.11,21.16-0.68,29.44-1.07c38.48-2.51,97.93-4.87,136.75-6.1
			c14.15-0.69,42.32-2.61,56.05-2.58c7.8,0,15.78,0.47,23.52,1.4c11.28,1.37,23.17,3.59,34.31,5.89c8.21,1.68,18.97,4.38,27.16,5.9
			c9.23,1.78,22.15,1.99,31.58,2.69c2.41,0.18,5.15,0.45,7.54,0.79c2.33,0.31,8.08,1.35,10.41,1.69c1.29,0.19,2.77,0.36,4.08,0.44
			c1.75,0.11,4.64,0.11,6.32,0.14c2.49,0.06,5.02,0.31,7.38,1.14c0.97,0.34,1.93,0.77,2.79,1.34c0.74,0.49,1.46,1.14,1.85,1.9
			c0.6,1.16,0.35,2.5-0.2,3.6c-1.25,2.44-3.81,4.01-6.48,4.38c-1.76,0.27-3.55-0.06-5.25-0.52c-0.28,0.4-0.62,0.8-0.93,1.07
			c-0.06,0.06-0.1,0.08-0.1,0.08c-0.06,0.05-0.1,0.08-0.1,0.08c-0.06,0.05-0.08,0.06-0.08,0.06c-0.06,0.04-0.08,0.05-0.08,0.05
			c-0.06,0.04-0.08,0.05-0.08,0.05c-0.06,0.03-0.08,0.04-0.08,0.04c-0.06,0.03-0.08,0.03-0.08,0.03c-0.07,0.02-0.08,0.02-0.08,0.02
			c-0.07,0.02-0.08,0.02-0.08,0.02c-0.07,0.01-0.08,0.01-0.08,0.01c-0.07,0-0.07,0-0.07,0c-0.06-0.01-0.07-0.01-0.07-0.01
			c-0.07-0.02-0.07-0.02-0.07-0.02c-0.07-0.03-0.08-0.04-0.08-0.04c-0.07-0.04-0.07-0.05-0.07-0.05c-0.07-0.05-0.07-0.06-0.07-0.06
			c-0.07-0.07-0.08-0.08-0.08-0.08c-0.05-0.06-0.06-0.07-0.06-0.07c-0.05-0.06-0.06-0.08-0.06-0.08c-0.04-0.07-0.06-0.09-0.06-0.09
			c-0.35-0.62-0.48-1.23-0.59-1.9c-0.62-0.18-1.3-0.37-1.94-0.5c-0.58,0.92-1.35,1.9-2.27,2.44c-0.05,0.03-0.08,0.04-0.08,0.04
			c-0.05,0.02-0.08,0.04-0.08,0.04c-0.05,0.02-0.08,0.03-0.08,0.03c-0.06,0.02-0.08,0.03-0.08,0.03c-0.06,0.02-0.07,0.02-0.07,0.02
			c-0.06,0.02-0.07,0.02-0.07,0.02c-0.06,0.01-0.07,0.01-0.07,0.01c-0.07,0.01-0.08,0.01-0.08,0.01c-0.07,0-0.08,0-0.08,0
			c-0.07-0.01-0.08-0.01-0.08-0.01c-0.06-0.01-0.07-0.01-0.07-0.01c-0.07-0.02-0.08-0.02-0.08-0.02c-0.07-0.03-0.08-0.03-0.08-0.03
			c-0.06-0.03-0.07-0.04-0.07-0.04c-0.07-0.05-0.08-0.05-0.08-0.05c-0.07-0.05-0.08-0.06-0.08-0.06c-0.07-0.06-0.08-0.08-0.08-0.08
			c-0.06-0.07-0.08-0.09-0.08-0.09c-0.05-0.06-0.06-0.08-0.06-0.08c-0.04-0.06-0.06-0.08-0.06-0.08c-0.04-0.06-0.06-0.09-0.06-0.09
			c-0.43-0.72-0.6-1.44-0.79-2.23l-2.16,0.08c-0.36,0.81-0.82,1.69-1.4,2.35c-0.06,0.06-0.08,0.08-0.08,0.08
			c-0.06,0.06-0.08,0.08-0.08,0.08c-0.06,0.05-0.08,0.07-0.08,0.07c-0.06,0.05-0.07,0.06-0.07,0.06c-0.06,0.05-0.07,0.05-0.07,0.05
			c-0.06,0.04-0.07,0.05-0.07,0.05c-0.07,0.04-0.08,0.04-0.08,0.04c-0.07,0.03-0.08,0.03-0.08,0.03c-0.07,0.01-0.08,0.02-0.08,0.02
			c-0.07,0-0.07,0-0.07,0c-0.07-0.01-0.08-0.01-0.08-0.01c-0.07-0.03-0.08-0.03-0.08-0.03c-0.07-0.04-0.07-0.05-0.07-0.05
			c-0.07-0.06-0.08-0.07-0.08-0.07c-0.06-0.07-0.07-0.08-0.07-0.08c-0.04-0.06-0.05-0.07-0.05-0.07c-0.05-0.07-0.06-0.09-0.06-0.09
			c-0.03-0.06-0.04-0.08-0.04-0.08c-0.03-0.06-0.04-0.08-0.04-0.08c-0.33-0.74-0.44-1.46-0.57-2.24l-2.69-0.02
			c-0.29,0.99-0.66,2.1-1.22,2.96c-0.07,0.11-0.13,0.18-0.17,0.23c-0.06,0.07-0.08,0.09-0.08,0.09c-0.06,0.06-0.08,0.08-0.08,0.08
			c-0.07,0.06-0.08,0.07-0.08,0.07c-0.07,0.06-0.08,0.06-0.08,0.06c-0.06,0.04-0.07,0.05-0.07,0.05c-0.06,0.03-0.07,0.04-0.07,0.04
			c-0.06,0.03-0.07,0.03-0.07,0.03c-0.06,0.02-0.07,0.02-0.07,0.02c-0.06,0.01-0.07,0.01-0.07,0.01c-0.06,0-0.08,0-0.08,0
			c-0.07-0.01-0.08-0.01-0.08-0.01c-0.07-0.02-0.08-0.02-0.08-0.02c-0.07-0.02-0.08-0.03-0.08-0.03c-0.07-0.03-0.08-0.04-0.08-0.04
			c-0.07-0.04-0.08-0.05-0.08-0.05c-0.07-0.05-0.08-0.05-0.08-0.05c-0.07-0.05-0.09-0.07-0.09-0.07c-0.07-0.06-0.09-0.08-0.09-0.08
			c-0.07-0.07-0.09-0.09-0.09-0.09c-0.42-0.48-0.66-0.95-0.92-1.47c-0.28-0.58-0.52-1.18-0.73-1.79l-2.25-0.01
			c-0.41,0.95-0.92,1.97-1.59,2.75c-0.06,0.07-0.08,0.09-0.08,0.09c-0.06,0.06-0.08,0.08-0.08,0.08c-0.06,0.06-0.08,0.07-0.08,0.07
			c-0.06,0.05-0.08,0.06-0.08,0.06c-0.07,0.05-0.08,0.05-0.08,0.05c-0.07,0.04-0.08,0.04-0.08,0.04c-0.07,0.03-0.08,0.03-0.08,0.03
			c-0.07,0.02-0.07,0.02-0.07,0.02c-0.06,0.01-0.07,0.01-0.07,0.01c-0.07,0-0.08,0-0.08,0c-0.07-0.02-0.08-0.02-0.08-0.02
			c-0.07-0.03-0.07-0.03-0.07-0.03c-0.07-0.05-0.08-0.06-0.08-0.06c-0.07-0.07-0.07-0.07-0.07-0.07c-0.06-0.07-0.07-0.08-0.07-0.08
			c-0.04-0.06-0.06-0.08-0.06-0.08c-0.04-0.06-0.05-0.08-0.05-0.08c-0.03-0.07-0.05-0.09-0.05-0.09c-0.4-0.87-0.5-1.76-0.64-2.68
			c-0.69,0.01-2.09,0.06-2.78,0.08c-0.28,1.06-0.62,2.23-1.17,3.17c-0.05,0.08-0.08,0.13-0.1,0.15c-0.05,0.07-0.07,0.09-0.07,0.09
			c-0.05,0.06-0.07,0.08-0.07,0.08c-0.06,0.06-0.07,0.07-0.07,0.07c-0.07,0.06-0.08,0.07-0.08,0.07c-0.07,0.05-0.08,0.05-0.08,0.05
			c-0.07,0.04-0.08,0.04-0.08,0.04c-0.07,0.02-0.08,0.02-0.08,0.02c-0.07,0.01-0.07,0.01-0.07,0.01c-0.07-0.01-0.08-0.01-0.08-0.01
			c-0.07-0.03-0.08-0.03-0.08-0.03c-0.07-0.05-0.08-0.05-0.08-0.05c-0.07-0.06-0.08-0.07-0.08-0.07c-0.06-0.07-0.07-0.08-0.07-0.08
			c-0.04-0.06-0.06-0.08-0.06-0.08c-0.04-0.06-0.06-0.09-0.06-0.09c-0.28-0.46-0.41-0.86-0.56-1.33c-0.19-0.59-0.34-1.22-0.47-1.83
			c-0.77,0.06-1.83,0.16-2.59,0.24c-0.21,0.78-0.5,1.63-0.92,2.31c-0.04,0.06-0.06,0.08-0.06,0.08c-0.04,0.06-0.06,0.08-0.06,0.08
			c-0.04,0.06-0.06,0.07-0.06,0.07c-0.06,0.07-0.07,0.08-0.07,0.08c-0.07,0.06-0.07,0.07-0.07,0.07c-0.07,0.05-0.07,0.06-0.07,0.06
			c-0.07,0.04-0.07,0.04-0.07,0.04c-0.07,0.03-0.07,0.03-0.07,0.03c-0.07,0.01-0.07,0.01-0.07,0.01c-0.07,0-0.08,0-0.08,0
			c-0.07-0.02-0.07-0.02-0.07-0.02c-0.07-0.03-0.07-0.03-0.07-0.03c-0.07-0.04-0.07-0.05-0.07-0.05c-0.07-0.06-0.08-0.07-0.08-0.07
			c-0.06-0.07-0.08-0.08-0.08-0.08c-0.05-0.06-0.06-0.08-0.06-0.08c-0.45-0.66-0.66-1.38-0.89-2.12c-0.89,0.14-1.95,0.32-2.84,0.49
			c-0.16,0.59-0.4,1.22-0.72,1.73c-0.05,0.07-0.07,0.1-0.07,0.1c-0.05,0.06-0.06,0.08-0.06,0.08c-0.06,0.07-0.07,0.08-0.07,0.08
			c-0.06,0.06-0.07,0.07-0.07,0.07c-0.07,0.06-0.07,0.06-0.07,0.06c-0.07,0.04-0.07,0.05-0.07,0.05c-0.07,0.03-0.07,0.03-0.07,0.03
			c-0.07,0.01-0.07,0.01-0.07,0.01c-0.07,0-0.07-0.01-0.07-0.01c-0.07-0.02-0.07-0.02-0.07-0.02c-0.07-0.04-0.08-0.04-0.08-0.04
			c-0.07-0.05-0.08-0.06-0.08-0.06c-0.06-0.06-0.07-0.07-0.07-0.07c-0.06-0.07-0.07-0.08-0.07-0.08c-0.04-0.05-0.06-0.08-0.06-0.08
			c-0.04-0.06-0.05-0.09-0.05-0.09c-0.25-0.44-0.38-0.81-0.53-1.26c-2.82,0.63-5.81,1.49-8.57,2.35c3.5,0.57,7.4,1.13,10.93,1.41
			c0.2-0.37,0.42-0.71,0.66-0.96c0.05-0.05,0.07-0.08,0.07-0.08c0.05-0.05,0.08-0.07,0.08-0.07c0.07-0.06,0.08-0.07,0.08-0.07
			c0.07-0.05,0.08-0.06,0.08-0.06c0.07-0.05,0.08-0.06,0.08-0.06c0.07-0.04,0.08-0.05,0.08-0.05c0.07-0.03,0.08-0.04,0.08-0.04
			c0.07-0.03,0.09-0.03,0.09-0.03c0.06-0.02,0.07-0.02,0.07-0.02c0.07-0.01,0.07-0.01,0.07-0.01c0.07-0.01,0.07-0.01,0.07-0.01
			c0.07,0,0.08,0,0.08,0c0.06,0.01,0.07,0.01,0.07,0.01c0.06,0.01,0.07,0.02,0.07,0.02c0.06,0.02,0.08,0.02,0.08,0.02
			c0.06,0.02,0.08,0.03,0.08,0.03c0.06,0.03,0.08,0.04,0.08,0.04c0.06,0.04,0.08,0.04,0.08,0.04c0.06,0.04,0.08,0.05,0.08,0.05
			c0.06,0.04,0.08,0.06,0.08,0.06c0.05,0.04,0.08,0.06,0.08,0.06c0.06,0.05,0.09,0.08,0.09,0.08c0.06,0.06,0.09,0.09,0.09,0.09
			c0.06,0.06,0.09,0.09,0.09,0.09c0.33,0.36,0.56,0.7,0.76,1.08c0.48,0.02,1.45,0.05,1.94,0.06c0.21-0.39,0.45-0.73,0.7-1
			c0.05-0.05,0.08-0.08,0.08-0.08c0.05-0.05,0.08-0.08,0.08-0.08c0.06-0.05,0.08-0.07,0.08-0.07c0.07-0.05,0.09-0.06,0.09-0.06
			c0.06-0.04,0.07-0.05,0.07-0.05c0.06-0.04,0.07-0.04,0.07-0.04c0.06-0.03,0.07-0.04,0.07-0.04c0.06-0.03,0.07-0.03,0.07-0.03
			c0.06-0.02,0.08-0.03,0.08-0.03c0.07-0.02,0.08-0.02,0.08-0.02c0.07-0.01,0.08-0.01,0.08-0.01c0.07,0,0.08-0.01,0.08-0.01
			c0.07,0,0.08,0,0.08,0c0.07,0.01,0.08,0.01,0.08,0.01c0.06,0.01,0.08,0.02,0.08,0.02c0.06,0.02,0.08,0.02,0.08,0.02
			c0.06,0.02,0.08,0.03,0.08,0.03c0.06,0.03,0.08,0.04,0.08,0.04c0.06,0.03,0.08,0.04,0.08,0.04c0.06,0.04,0.08,0.05,0.08,0.05
			c0.06,0.04,0.08,0.05,0.08,0.05c0.05,0.03,0.08,0.06,0.08,0.06c0.06,0.05,0.09,0.08,0.09,0.08c0.06,0.05,0.09,0.08,0.09,0.08
			c0.06,0.06,0.09,0.09,0.09,0.09c0.25,0.26,0.45,0.53,0.6,0.77c0.04,0.07,0.08,0.13,0.08,0.13c0.04,0.06,3.08,0.05,3.08,0.05
			c0.2-0.39,0.43-0.75,0.67-1.02c0.05-0.06,0.08-0.08,0.08-0.08c0.05-0.05,0.08-0.08,0.08-0.08c0.07-0.06,0.08-0.07,0.08-0.07
			c0.07-0.06,0.08-0.07,0.08-0.07c0.07-0.05,0.08-0.06,0.08-0.06c0.06-0.04,0.07-0.04,0.07-0.04c0.06-0.03,0.07-0.04,0.07-0.04
			c0.06-0.03,0.07-0.03,0.07-0.03c0.06-0.02,0.07-0.03,0.07-0.03c0.07-0.02,0.08-0.02,0.08-0.02c0.07-0.01,0.08-0.01,0.08-0.01
			c0.07,0,0.08-0.01,0.08-0.01c0.07,0,0.08,0,0.08,0c0.06,0.01,0.07,0.01,0.07,0.01c0.06,0.01,0.07,0.02,0.07,0.02
			c0.06,0.02,0.08,0.02,0.08,0.02c0.06,0.02,0.08,0.03,0.08,0.03c0.06,0.03,0.08,0.04,0.08,0.04c0.06,0.03,0.08,0.04,0.08,0.04
			c0.06,0.04,0.08,0.05,0.08,0.05c0.06,0.04,0.08,0.05,0.08,0.05c0.05,0.03,0.08,0.06,0.08,0.06c0.06,0.05,0.09,0.08,0.09,0.08
			c0.06,0.05,0.09,0.08,0.09,0.08c0.3,0.28,0.53,0.59,0.71,0.87c0.04,0.07,0.08,0.13,0.08,0.13c0.04,0.06,2.37,0.08,2.37,0.08
			c0.18-0.31,0.4-0.64,0.59-0.86c0.05-0.05,0.07-0.08,0.07-0.08c0.05-0.05,0.08-0.08,0.08-0.08c0.05-0.05,0.08-0.07,0.08-0.07
			c0.05-0.05,0.08-0.07,0.08-0.07c0.07-0.05,0.08-0.06,0.08-0.06c0.07-0.05,0.08-0.06,0.08-0.06c0.06-0.03,0.07-0.04,0.07-0.04
			c0.06-0.03,0.07-0.04,0.07-0.04c0.06-0.03,0.08-0.03,0.08-0.03c0.06-0.02,0.08-0.03,0.08-0.03c0.06-0.02,0.08-0.02,0.08-0.02
			c0.06-0.01,0.08-0.02,0.08-0.02c0.07-0.01,0.08-0.01,0.08-0.01c0.07,0,0.09,0,0.09,0c0.06,0,0.08,0,0.08,0
			c0.06,0,0.08,0.01,0.08,0.01c0.06,0.01,0.08,0.01,0.08,0.01c0.06,0.01,0.08,0.02,0.08,0.02c0.06,0.02,0.08,0.02,0.08,0.02
			c0.06,0.02,0.08,0.03,0.08,0.03c0.06,0.02,0.08,0.03,0.08,0.03c0.06,0.02,0.08,0.03,0.08,0.03c0.37,0.16,0.67,0.37,0.93,0.6
			c0.27,0.23,0.5,0.48,0.7,0.72c0.03,0.04,0.06,0.07,0.06,0.07c0.03,0.04,2.58,0.16,2.58,0.16c0.2-0.33,0.45-0.68,0.67-0.9
			c0.05-0.06,0.08-0.08,0.08-0.08c0.06-0.05,0.08-0.08,0.08-0.08c0.06-0.05,0.09-0.08,0.09-0.08c0.06-0.05,0.09-0.07,0.09-0.07
			c0.06-0.04,0.08-0.05,0.08-0.05c0.06-0.04,0.08-0.05,0.08-0.05c0.06-0.04,0.08-0.05,0.08-0.05c0.06-0.03,0.08-0.04,0.08-0.04
			c0.07-0.03,0.08-0.03,0.08-0.03c0.07-0.02,0.08-0.03,0.08-0.03c0.07-0.02,0.08-0.02,0.08-0.02c0.07-0.01,0.09-0.02,0.09-0.02
			c0.07-0.01,0.09-0.01,0.09-0.01c0.07,0,0.08,0,0.08,0c0.06,0,0.08,0,0.08,0c0.06,0.01,0.08,0.01,0.08,0.01
			c0.06,0.01,0.08,0.01,0.08,0.01c0.06,0.01,0.09,0.02,0.09,0.02c0.06,0.02,0.09,0.02,0.09,0.02c0.06,0.02,0.09,0.03,0.09,0.03
			c0.07,0.02,0.09,0.03,0.09,0.03c0.07,0.03,0.09,0.04,0.09,0.04c0.07,0.03,0.09,0.04,0.09,0.04c0.71,0.37,1.27,0.94,1.69,1.54
			l1.49,0.07c0.25-0.37,0.53-0.7,0.81-0.94c0.06-0.05,0.09-0.08,0.09-0.08c0.06-0.05,0.09-0.07,0.09-0.07
			c0.06-0.05,0.1-0.07,0.1-0.07c0.07-0.04,0.08-0.05,0.08-0.05c0.07-0.04,0.08-0.05,0.08-0.05c0.07-0.04,0.08-0.04,0.08-0.04
			c0.07-0.03,0.09-0.04,0.09-0.04c0.07-0.03,0.09-0.03,0.09-0.03c0.07-0.02,0.09-0.03,0.09-0.03c0.07-0.02,0.09-0.02,0.09-0.02
			c0.07-0.01,0.09-0.02,0.09-0.02c0.05-0.01,0.07-0.01,0.07-0.01c0.05,0,0.07,0,0.07,0c0.06,0,0.08,0,0.08,0
			c0.06,0,0.08,0.01,0.08,0.01c0.06,0.01,0.08,0.01,0.08,0.01c0.06,0.01,0.08,0.01,0.08,0.01c0.06,0.01,0.08,0.02,0.08,0.02
			c0.06,0.02,0.08,0.02,0.08,0.02c0.06,0.02,0.08,0.03,0.08,0.03c0.06,0.02,0.08,0.03,0.08,0.03c0.06,0.02,0.08,0.03,0.08,0.03
			c0.65,0.3,1.18,0.86,1.54,1.38c1.05-0.01,2.23-0.05,3.28-0.13c0.12-0.37,0.3-0.82,0.49-1.15c0.04-0.07,0.06-0.1,0.06-0.1
			c0.04-0.07,0.07-0.1,0.07-0.1c0.05-0.06,0.07-0.09,0.07-0.09c0.05-0.06,0.06-0.07,0.06-0.07c0.06-0.07,0.08-0.08,0.08-0.08
			c0.07-0.06,0.08-0.08,0.08-0.08c0.07-0.06,0.08-0.07,0.08-0.07c0.06-0.04,0.07-0.05,0.07-0.05c0.06-0.04,0.08-0.05,0.08-0.05
			c0.06-0.03,0.08-0.04,0.08-0.04c0.06-0.03,0.08-0.03,0.08-0.03c0.07-0.02,0.07-0.02,0.07-0.02c0.07-0.01,0.08-0.02,0.08-0.02
			c0.07-0.01,0.08-0.01,0.08-0.01c0.07-0.01,0.09-0.01,0.09-0.01c0.06,0,0.08,0,0.08,0c0.06,0,0.08,0.01,0.08,0.01
			c0.06,0.01,0.08,0.01,0.08,0.01c0.06,0.01,0.09,0.02,0.09,0.02c0.07,0.01,0.09,0.02,0.09,0.02c0.07,0.02,0.09,0.02,0.09,0.02
			c0.07,0.02,0.09,0.03,0.09,0.03c0.72,0.25,1.33,0.75,1.82,1.25c0.3-0.07,0.91-0.22,1.21-0.3c0.07-0.25,0.16-0.48,0.24-0.65
			c0.08-0.16,0.15-0.29,0.21-0.38c0.04-0.06,0.06-0.09,0.06-0.09c0.04-0.06,0.06-0.08,0.06-0.08c0.04-0.05,0.06-0.08,0.06-0.08
			c0.05-0.06,0.06-0.07,0.06-0.07c0.07-0.07,0.08-0.08,0.08-0.08c0.07-0.06,0.08-0.07,0.08-0.07c0.07-0.05,0.08-0.06,0.08-0.06
			c0.07-0.04,0.08-0.04,0.08-0.04c0.07-0.03,0.07-0.03,0.07-0.03c0.07-0.02,0.07-0.02,0.07-0.02c0.07-0.01,0.07-0.01,0.07-0.01
			c0.07,0,0.07,0,0.07,0c0.06,0.01,0.07,0.01,0.07,0.01c0.07,0.02,0.08,0.02,0.08,0.02c0.07,0.03,0.08,0.03,0.08,0.03
			c0.07,0.03,0.08,0.04,0.08,0.04c0.07,0.04,0.08,0.05,0.08,0.05c0.06,0.04,0.08,0.06,0.08,0.06c0.07,0.05,0.09,0.07,0.09,0.07
			c0.07,0.06,0.09,0.08,0.09,0.08c0.07,0.06,0.09,0.08,0.09,0.08c0.21,0.21,0.32,0.36,0.47,0.55c0.69-0.16,1.52-0.34,2.2-0.25
			c0.07,0.01,0.1,0.02,0.1,0.02c0.06,0.01,0.08,0.02,0.08,0.02c0.06,0.01,0.07,0.02,0.07,0.02c0.05,0.01,0.07,0.02,0.07,0.02
			c0.07,0.02,0.09,0.03,0.09,0.03c0.07,0.02,0.08,0.03,0.08,0.03c0.07,0.03,0.08,0.03,0.08,0.03c0.06,0.03,0.08,0.04,0.08,0.04
			c0.06,0.03,0.08,0.04,0.08,0.04c0.06,0.04,0.07,0.04,0.07,0.04c0.06,0.04,0.09,0.06,0.09,0.06c0.06,0.04,0.08,0.06,0.08,0.06
			c0.05,0.04,0.08,0.07,0.08,0.07c0.05,0.05,0.08,0.07,0.08,0.07c0.05,0.05,0.08,0.07,0.08,0.07c0.05,0.05,0.07,0.08,0.07,0.08
			c0.05,0.05,0.07,0.08,0.07,0.08c0.52,0.68,0.9,1.47,0.88,2.29c0,0.05,0,0.08,0,0.08c0,0.05-0.01,0.08-0.01,0.08
			c-0.01,0.05-0.01,0.08-0.01,0.08c-0.01,0.05-0.01,0.08-0.01,0.08c-0.01,0.05-0.02,0.08-0.02,0.08c-0.01,0.05-0.02,0.08-0.02,0.08
			c-0.01,0.05-0.02,0.08-0.02,0.08c-0.02,0.05-0.03,0.08-0.03,0.08c-0.02,0.05-0.03,0.08-0.03,0.08c-0.02,0.05-0.03,0.08-0.03,0.08
			c-0.02,0.05-0.04,0.08-0.04,0.08c-0.03,0.05-0.04,0.08-0.04,0.08c-0.03,0.05-0.04,0.08-0.04,0.08c-0.03,0.05-0.05,0.07-0.05,0.07
			c-0.03,0.05-0.05,0.07-0.05,0.07c-0.04,0.05-0.06,0.07-0.06,0.07c-0.04,0.05-0.06,0.07-0.06,0.07c-0.04,0.05-0.06,0.07-0.06,0.07
			c-0.42,0.45-0.92,0.75-1.42,1.02c-0.54,0.29-1.11,0.53-1.68,0.75c-1.3,0.49-2.72,0.9-4.06,1.25c-5.9,1.51-13.93,2.78-19.94,4.03
			c-2.47,0.51-5.07,1.17-7.48,1.92c-3.02,0.94-7.31,2.55-10.37,3.27c-6.15,1.49-14.3,2.59-20.5,3.92
			c-4.94,1.02-11.4,3.01-16.29,4.31c-4.86,1.33-9.86,2.03-14.88,2.37c-5.85,0.31-12.88,1.11-18.72,0.79
			c-1.85-0.12-3.72-0.37-5.48-0.95c-4.7,0.97-11.61,2.22-16.38,3.01c0.02,0.05,0.02,0.08,0.02,0.08c0.01,0.05,0.02,0.08,0.02,0.08
			c0.01,0.05,0.02,0.08,0.02,0.08c0.01,0.05,0.01,0.08,0.01,0.08c0.01,0.05,0.01,0.08,0.01,0.08c0,0.05,0.01,0.08,0.01,0.08
			c0,0.05,0,0.08,0,0.08c0,0.05,0,0.08,0,0.08c0,0.05-0.01,0.08-0.01,0.08c-0.01,0.05-0.01,0.08-0.01,0.08
			c-0.01,0.05-0.01,0.08-0.01,0.08c-0.01,0.05-0.02,0.08-0.02,0.08c-0.01,0.05-0.02,0.08-0.02,0.08c-0.01,0.05-0.02,0.08-0.02,0.08
			c-0.32,0.98-1.07,1.69-1.77,2.32c-1.02,0.87-2.2,1.61-3.34,2.32c-2.27,1.36-5.59,3.25-7.7,4.78c-1.54,1.09-3.01,2.39-4.37,3.69
			l-3.75,3.68c-1.69,1.62-3.5,3.19-5.51,4.4c-1.73,1.04-3.62,1.82-5.54,2.44c-3.86,1.24-8.07,1.88-12.09,2.46
			c-2.68,0.34-7.38,1.1-10.04,1.17c-0.73,0.02-1.48,0.01-2.2-0.07c-0.56-0.06-1.22-0.21-1.68-0.47c-0.05-0.03-0.08-0.05-0.08-0.05
			c-0.05-0.03-0.08-0.05-0.08-0.05c-0.05-0.03-0.07-0.05-0.07-0.05c-0.07-0.05-0.09-0.07-0.09-0.07c-0.07-0.05-0.09-0.07-0.09-0.07
			c-0.06-0.06-0.08-0.08-0.08-0.08c-0.06-0.06-0.08-0.08-0.08-0.08c-0.05-0.06-0.07-0.08-0.07-0.08c-0.05-0.07-0.06-0.09-0.06-0.09
			c-0.04-0.07-0.06-0.09-0.06-0.09c-0.03-0.05-0.04-0.07-0.04-0.07c-0.02-0.05-0.03-0.07-0.03-0.07c-0.02-0.05-0.03-0.08-0.03-0.08
			c-0.02-0.05-0.03-0.08-0.03-0.08c-0.02-0.05-0.02-0.08-0.02-0.08c-0.01-0.05-0.02-0.08-0.02-0.08c-0.01-0.06-0.02-0.08-0.02-0.08
			c-0.01-0.06-0.01-0.09-0.01-0.09c-0.01-0.06-0.01-0.09-0.01-0.09c-0.05-0.64,0.07-1.16,0.22-1.75c0.23-0.82,0.56-1.65,0.89-2.43
			c0.9-2.15,2.07-4.53,2.48-6.82c0.31-1.62,0.21-3.47,0.25-5.12c-7.44,1.14-16.93,2.28-24.45,3.08l-48.91,4.46
			c-2.46,0.24-5.07,0.6-7.5,1.09c-3.09,0.6-6.25,1.35-9.22,2.38c-3.96,1.35-7.76,3.3-11.4,5.34l-12.46,7.17
			c-5.85,3.27-11.97,6.42-18.29,8.66c-3.96,1.4-8.1,2.5-12.29,2.86c-1.7,0.13-3.43,0.16-5.1-0.16c-1.08-0.21-2.28-0.63-3.07-1.39
			c-0.84-0.8-1.16-1.96-1.17-3.03c-0.02-1.35,0.34-2.66,0.83-3.9c0.88-2.18,2.23-4.15,3.78-5.9c2.26-2.54,4.99-4.67,7.9-6.41
			c-12.72,1.11-30.53,3-43.12,3.3c-8.34,0.25-17.04-0.05-25.36-0.76c-3.09-0.29-25.64-2.52-28.1-2.68
			c-4.99,0.21-10.27,0.38-15.17,1.38c-5.5,1.2-10.76,3.46-15.81,5.91l-19.22,9.82c-5.23,2.53-10.64,5.02-16.22,6.66
			c-2.52,0.73-5.13,1.31-7.75,1.43c-1.75,0.08-3.54-0.05-5.22-0.59c-2.18-0.69-4.04-2.12-5.62-3.75c-1.44-1.42-4.49-5.31-5.83-6.91
			c-2.29-2.83-4.83-6.03-6.83-9.05c-1.42-2.15-2.83-4.4-3.64-6.86c-0.52-1.6-0.77-3.39-0.14-4.99c0.38-0.95,1.02-1.75,1.75-2.45
			c1-0.95,2.18-1.73,3.37-2.42c2.72-1.59,9.69-4.58,12.62-5.97c2.92-1.32,6-2.61,9.08-3.51c-1.84-1.03-3.92-1.56-6-1.85
			c-2.41-0.35-4.93-0.45-7.37-0.46c-8.19,0.04-16.44,1.03-24.39,3.01c-2.92,0.73-7.41,2.01-10.33,2.49
			c-8.77,3.31-19.16,6.78-28.1,9.61c-7.44,2.31-15.54,4.77-23.11,6.5c-3.28,0.71-6.65,1.46-10.02,1.39
			c-1.55-0.04-3.12-0.32-4.54-0.97c-1.31-0.59-2.45-1.49-3.43-2.53c-1.52-1.57-3.04-3.84-4.32-5.62c-1.18-1.61-2.42-3.41-4.08-4.56
			c-0.82-0.55-1.68-0.84-2.62-1.08c-1.37-0.33-2.89-0.63-4.07-1.42c-0.82-0.53-1.54-1.23-2.16-1.96c-0.89-1.04-1.65-2.2-2.3-3.4
			c-1.22-2.29-2.16-4.78-2.49-7.37c-0.26-1.97-0.05-4.17,0.03-6.15c0.05-1.34,0-2.7-0.32-4c-0.55-2.27-1.92-4.85-2.89-6.97
			c-0.74-1.65-1.5-3.39-1.47-5.23c0.03-1.95,0.77-3.89,0.83-5.84c0.09-2.34-0.45-4.93-0.63-7.25c-0.13-1.76-0.16-3.6,0.47-5.27
			c0.97-2.48,3.33-4.15,5.27-5.83c1.08-0.92,2.17-1.91,3.01-3.05c1.08-1.43,2.07-3.54,2.9-5.12c0.85-1.61,1.92-3.26,3.43-4.29
			c1.2-0.84,2.6-1.36,4.02-1.69c2.11-0.48,4.31-0.57,6.47-0.43c3.62,0.23,7.18,1.17,10.6,2.35c4.37,1.51,10.13,4.02,14.49,5.59
			c6.58,2.39,16.83,5.36,23.36,7.84c5.2,1.95,10.59,4.52,15.58,6.96c6.89,1.52,14.57,3.06,21.54,3.91
			c5.29,0.65,10.74,1.09,16.07,0.9c2.89-0.11,5.8-0.44,8.61-1.15c3.04-0.75,6.03-1.94,8.9-3.18c-6.15-0.88-11.78-3.89-17.15-6.86
			c-2.04-1.16-4.28-2.61-5.13-4.89c-0.5-1.32-0.54-2.68-0.48-4.07c0.13-2.18,0.6-4.37,1.09-6.49c0.33-1.33,1.46-5.78,1.73-7.04
			c0.33-1.48,0.96-4.91,1.25-6.44c0.73-3.57,1.83-7.13,3.74-10.25c1.08-1.73,2.48-3.4,4.37-4.25c1.69-0.75,3.61-0.71,5.4-0.39
			c2.46,0.45,4.85,1.38,7.17,2.32c10.56,4.54,23.76,10.06,33.81,15.51C237.61,317.17,245.1,322.07,252.14,327.1z"/>
	</g>
</g>
</svg>
