<?xml version="1.0" encoding="utf-8"?>
<!-- Generator: Adobe Illustrator 24.2.1, SVG Export Plug-In . SVG Version: 6.00 Build 0)  -->
<!DOCTYPE svg PUBLIC "-//W3C//DTD SVG 1.1//EN" "http://www.w3.org/Graphics/SVG/1.1/DTD/svg11.dtd" [
	<!ENTITY ns_extend "http://ns.adobe.com/Extensibility/1.0/">
	<!ENTITY ns_ai "http://ns.adobe.com/AdobeIllustrator/10.0/">
	<!ENTITY ns_graphs "http://ns.adobe.com/Graphs/1.0/">
	<!ENTITY ns_vars "http://ns.adobe.com/Variables/1.0/">
	<!ENTITY ns_imrep "http://ns.adobe.com/ImageReplacement/1.0/">
	<!ENTITY ns_sfw "http://ns.adobe.com/SaveForWeb/1.0/">
	<!ENTITY ns_custom "http://ns.adobe.com/GenericCustomNamespace/1.0/">
	<!ENTITY ns_adobe_xpath "http://ns.adobe.com/XPath/1.0/">
]>
<svg version="1.1" xmlns:x="&ns_extend;" xmlns:i="&ns_ai;" xmlns:graph="&ns_graphs;"
	 xmlns="http://www.w3.org/2000/svg" xmlns:xlink="http://www.w3.org/1999/xlink" x="0px" y="0px" width="750px" height="750px"
	 viewBox="0 0 750 750" style="enable-background:new 0 0 750 750;" xml:space="preserve">
<style type="text/css">
	.st0{fill:#FFFFFF;}
	.st1{fill:#FB8604;}
	.st2{fill:none;stroke:#FB8604;stroke-width:2;stroke-linecap:round;stroke-linejoin:round;stroke-miterlimit:10;}
	.st3{fill:none;stroke:#FB8604;stroke-width:3;stroke-linecap:round;stroke-linejoin:round;}
	.st4{fill:none;stroke:#FB8604;stroke-width:3;stroke-linecap:round;stroke-linejoin:round;stroke-dasharray:3.0816,5.136;}
	.st5{fill:none;stroke:#FB8604;stroke-width:3;stroke-linecap:round;stroke-linejoin:round;stroke-dasharray:2.8336,4.7226;}
	.st6{fill:none;stroke:#FB8604;stroke-width:3;stroke-linecap:round;stroke-linejoin:round;stroke-dasharray:2.8854,4.8089;}
	.st7{fill:none;stroke:#FB8604;stroke-width:3;stroke-linecap:round;stroke-linejoin:round;stroke-dasharray:2.9774,4.9624;}
	.st8{fill:none;stroke:#FB8604;stroke-width:3;stroke-linecap:round;stroke-linejoin:round;stroke-dasharray:3.0539,5.0899;}
	.st9{fill:none;stroke:#FB8604;stroke-width:3;stroke-linecap:round;stroke-linejoin:round;stroke-dasharray:2.7986,4.6644;}
	.st10{fill:none;stroke:#FB8604;stroke-width:3;stroke-linecap:round;stroke-linejoin:round;stroke-dasharray:3.232,5.3866;}
	.st11{fill:none;stroke:#FB8604;stroke-width:3;stroke-linecap:round;stroke-linejoin:round;stroke-dasharray:2.9227,4.8712;}
	.st12{fill:none;stroke:#FB8604;stroke-width:3;stroke-linecap:round;stroke-linejoin:round;stroke-dasharray:3.0911,5.1519;}
	.st13{fill:none;stroke:#FB8604;stroke-width:3;stroke-linecap:round;stroke-linejoin:round;stroke-dasharray:3.065,5.1084;}
	.st14{fill:none;stroke:#FB8604;stroke-width:3;stroke-linecap:round;stroke-linejoin:round;stroke-dasharray:2.9467,4.9112;}
	.st15{fill:none;stroke:#FB8604;stroke-width:3;stroke-linecap:round;stroke-linejoin:round;stroke-dasharray:3.0754,5.1257;}
	.st16{fill:none;stroke:#FB8604;stroke-width:3;stroke-linecap:round;stroke-linejoin:round;stroke-dasharray:3.0721,5.1201;}
	.st17{fill:none;stroke:#FB8604;stroke-width:3;stroke-linecap:round;stroke-linejoin:round;stroke-dasharray:3.0591,5.0985;}
	.st18{fill:none;stroke:#FB8604;stroke-width:3;stroke-linecap:round;stroke-linejoin:round;stroke-dasharray:3.0038,5.0064;}
	.st19{fill:none;stroke:#FB8604;stroke-width:3;stroke-linecap:round;stroke-linejoin:round;stroke-dasharray:3.0841,5.1402;}
	.st20{fill:none;stroke:#FB8604;stroke-width:3;stroke-linecap:round;stroke-linejoin:round;stroke-dasharray:2.9205,4.8674;}
	.st21{fill:none;stroke:#FB8604;stroke-width:3;stroke-linecap:round;stroke-linejoin:round;stroke-dasharray:3.0209,5.0348;}
	.st22{fill:none;stroke:#FB8604;stroke-width:3;stroke-linecap:round;stroke-linejoin:round;stroke-dasharray:3.115,5.1917;}
	.st23{fill:none;stroke:#FB8604;stroke-width:3;stroke-linecap:round;stroke-linejoin:round;stroke-dasharray:3.0039,5.0066;}
	.st24{fill:none;stroke:#FB8604;stroke-width:3;stroke-linecap:round;stroke-linejoin:round;stroke-dasharray:3.0618,5.103;}
	.st25{fill:none;stroke:#FB8604;stroke-width:3;stroke-linecap:round;stroke-linejoin:round;stroke-dasharray:2.9617,4.9362;}
	.st26{fill:none;stroke:#FB8604;stroke-width:3;stroke-linecap:round;stroke-linejoin:round;stroke-dasharray:2.7234,4.5389;}
	.st27{fill:none;stroke:#FB8604;stroke-width:3;stroke-linecap:round;stroke-linejoin:round;stroke-dasharray:3.1619,5.2699;}
	.st28{fill:none;stroke:#FB8604;stroke-width:3;stroke-linecap:round;stroke-linejoin:round;stroke-dasharray:2.7553,4.5921;}
	.st29{fill:none;stroke:#FB8604;stroke-width:3;stroke-linecap:round;stroke-linejoin:round;stroke-dasharray:2.992,4.9867;}
	.st30{fill:none;stroke:#FB8604;stroke-width:3;stroke-linecap:round;stroke-linejoin:round;stroke-dasharray:3.1348,5.2247;}
	.st31{fill:none;stroke:#FB8604;stroke-width:3;stroke-linecap:round;stroke-linejoin:round;stroke-dasharray:2.7139,4.5232;}
	.st32{fill:none;stroke:#FB8604;stroke-width:3;stroke-linecap:round;stroke-linejoin:round;stroke-dasharray:3.399,5.6651;}
	.st33{fill:none;stroke:#FB8604;stroke-width:3;stroke-linecap:round;stroke-linejoin:round;stroke-dasharray:3.2635,5.4391;}
	.st34{fill:none;stroke:#FB8604;stroke-width:3;stroke-linecap:round;stroke-linejoin:round;stroke-dasharray:3.0007,5.0011;}
	.st35{fill:none;stroke:#FB8604;stroke-width:3;stroke-linecap:round;stroke-linejoin:round;stroke-dasharray:2.9937,4.9895;}
	.st36{fill:none;stroke:#FB8604;stroke-width:3;stroke-linecap:round;stroke-linejoin:round;stroke-dasharray:3.2259,5.3765;}
	.st37{fill:none;stroke:#FB8604;stroke-width:3;stroke-linecap:round;stroke-linejoin:round;stroke-dasharray:3.0317,5.0528;}
	.st38{fill:none;stroke:#FB8604;stroke-width:3;stroke-linecap:round;stroke-linejoin:round;stroke-dasharray:2.8675,4.7792;}
	.st39{fill:none;stroke:#FB8604;stroke-width:3;stroke-linecap:round;stroke-linejoin:round;stroke-dasharray:3.2805,5.4675;}
	.st40{fill:none;stroke:#FB8604;stroke-width:3;stroke-linecap:round;stroke-linejoin:round;stroke-dasharray:3.0446,5.0744;}
	.st41{fill:none;stroke:#FB8604;stroke-width:3;stroke-linecap:round;stroke-linejoin:round;stroke-dasharray:3.0031,5.0051;}
	.st42{fill:none;stroke:#FB8604;stroke-width:3;stroke-linecap:round;stroke-linejoin:round;stroke-dasharray:2.9954,4.9923;}
	.st43{fill:none;stroke:#FB8604;stroke-width:3;stroke-linecap:round;stroke-linejoin:round;stroke-dasharray:3.0342,5.057;}
	.st44{fill:none;stroke:#FB8604;stroke-width:3;stroke-linecap:round;stroke-linejoin:round;stroke-dasharray:2.9833,4.9722;}
	.st45{fill:none;stroke:#FB8604;stroke-width:3;stroke-linecap:round;stroke-linejoin:round;stroke-dasharray:2.9758,4.9597;}
	.st46{fill:none;stroke:#FB8604;stroke-width:3;stroke-linecap:round;stroke-linejoin:round;stroke-dasharray:3.2049,5.3415;}
	.st47{fill:none;stroke:#FB8604;stroke-width:3;stroke-linecap:round;stroke-linejoin:round;stroke-dasharray:3.0128,5.0214;}
	.st48{fill:none;stroke:#FB8604;stroke-width:3;stroke-linecap:round;stroke-linejoin:round;stroke-dasharray:3.1465,5.2441;}
	.st49{fill:none;stroke:#FB8604;stroke-width:3;stroke-linecap:round;stroke-linejoin:round;stroke-dasharray:3.2602,5.4337;}
	.st50{fill:none;stroke:#FB8604;stroke-width:3;stroke-linecap:round;stroke-linejoin:round;stroke-dasharray:3.0265,5.0442;}
	.st51{fill:none;stroke:#FB8604;stroke-width:3;stroke-linecap:round;stroke-linejoin:round;stroke-dasharray:2.9846,4.9744;}
	.st52{fill:none;stroke:#FB8604;stroke-width:3;stroke-linecap:round;stroke-linejoin:round;stroke-dasharray:2.9779,4.9632;}
	.st53{fill:none;stroke:#FB8604;stroke-width:3;stroke-linecap:round;stroke-linejoin:round;stroke-dasharray:3.0165,5.0275;}
	.st54{fill:none;stroke:#FB8604;stroke-width:3;stroke-linecap:round;stroke-linejoin:round;stroke-dasharray:2.9927,4.9879;}
	.st55{fill:none;stroke:#FB8604;stroke-width:3;stroke-linecap:round;stroke-linejoin:round;stroke-dasharray:2.965,4.9416;}
	.st56{fill:none;stroke:#FB8604;stroke-width:3;stroke-linecap:round;stroke-linejoin:round;stroke-dasharray:2.788,4.6466;}
	.st57{fill:none;stroke:#FB8604;stroke-width:3;stroke-linecap:round;stroke-linejoin:round;stroke-dasharray:2.9526,4.921;}
	.st58{fill:none;stroke:#FB8604;stroke-width:3;stroke-linecap:round;stroke-linejoin:round;stroke-dasharray:3.0849,5.1415;}
	.st59{fill:none;stroke:#FB8604;stroke-width:3;stroke-linecap:round;stroke-linejoin:round;stroke-dasharray:3.1922,5.3204;}
	.st60{fill:none;stroke:#FB8604;stroke-width:3;stroke-linecap:round;stroke-linejoin:round;stroke-dasharray:3.0152,5.0254;}
	.st61{fill:none;stroke:#FB8604;stroke-width:3;stroke-linecap:round;stroke-linejoin:round;stroke-dasharray:3.0143,5.0238;}
	.st62{fill:none;stroke:#FB8604;stroke-width:3;stroke-linecap:round;stroke-linejoin:round;stroke-dasharray:3.0334,5.0557;}
	.st63{fill:none;stroke:#FB8604;stroke-width:3;stroke-linecap:round;stroke-linejoin:round;stroke-dasharray:2.9757,4.9595;}
	.st64{fill:none;stroke:#FB8604;stroke-width:2.75;stroke-linecap:round;stroke-linejoin:round;stroke-miterlimit:10;}
	.st65{fill:none;stroke:#FB8604;stroke-width:3.5;stroke-linecap:round;stroke-linejoin:round;stroke-miterlimit:10;}
</style>
<metadata>
	<sfw  xmlns="&ns_sfw;">
		<slices></slices>
		<sliceSourceBounds  bottomLeftOrigin="true" height="8750" width="4280" x="-2000" y="-1120"></sliceSourceBounds>
	</sfw>
</metadata>
<g id="FILL-BACKGROUND">
	<rect class="st0" width="750" height="750"/>
</g>
<g id="N-TEXT">
</g>
<g id="N-DIMENSIONS">
</g>
<g id="AG-DETAIL-DIAGRAM">
</g>
<g id="AG-DETAILS">
	<g id="POLYLINE_342_">
		<path class="st2" d="M428.94,384.93c1.2-6.14,2.05-12.61,2.56-18.84c0.69-7.85,1.08-21.23,1.72-29.1
			c0.41-5.03,1.06-10.17,2.2-15.08c2.35-10.48,7.2-21.67,9.35-32.2c2.12-10.4,2.05-21.21,1.51-31.77"/>
	</g>
	<g id="POLYLINE_343_">
		<path class="st2" d="M426.81,257.93c-0.1,5.55-0.18,12.17-0.87,17.62c-0.84,7.13-2.49,15.07-3.93,22.14
			c-3.23,15.67-9.1,39.87-10.93,55.52c-0.9,7.57-1.17,15.3-0.67,22.9"/>
	</g>
	<g id="POLYLINE_344_">
		<path class="st2" d="M386.56,363.68c0.86-15.53-0.13-33.76,1.95-49.18c0.69-5.41,2.53-13.83,3.64-19.25
			c0.67-3.4,1.31-6.97,1.53-10.43c0.48-7.04-1.07-14.07-2.84-20.85"/>
	</g>
	<g id="POLYLINE_345_">
		<path class="st2" d="M366.57,273.81c0.3,4.75,0.79,10.57,0.53,15.28c-0.25,6.97-3.1,24.68-4,31.82
			c-0.8,6.62-1.45,13.59-1.52,20.25c-0.06,5.26,0.29,10.85,0.77,16.1c0.89,9.39,2.62,22.17,2.38,31.48
			c-0.09,5.33-0.94,11.53-1.36,16.86c-0.19,2.66-0.32,5.8,0.2,8.35c0.07,0.34,0.11,0.5,0.11,0.5c0.08,0.32,0.13,0.48,0.13,0.48
			c0.1,0.31,0.15,0.47,0.15,0.47c0.11,0.3,0.16,0.45,0.16,0.45c0.15,0.36,0.18,0.43,0.18,0.43c0.17,0.34,0.2,0.41,0.2,0.41
			c0.19,0.33,0.22,0.39,0.22,0.39c0.25,0.37,0.29,0.43,0.29,0.43c0.28,0.36,0.34,0.43,0.34,0.43c0.31,0.33,0.38,0.4,0.38,0.4
			c0.34,0.31,0.41,0.36,0.41,0.36c0.37,0.28,0.44,0.33,0.44,0.33c0.31,0.2,0.39,0.25,0.39,0.25c0.32,0.18,0.4,0.22,0.4,0.22
			c0.33,0.16,0.42,0.2,0.42,0.2c0.34,0.14,0.43,0.17,0.43,0.17c0.35,0.12,0.44,0.15,0.44,0.15c0.36,0.1,0.45,0.12,0.45,0.12
			c0.37,0.08,0.46,0.1,0.46,0.1c0.37,0.06,0.47,0.07,0.47,0.07c0.28,0.03,0.38,0.04,0.38,0.04c0.28,0.02,0.38,0.02,0.38,0.02
			c0.28,0.01,0.38,0.01,0.38,0.01c0.28-0.01,0.38-0.01,0.38-0.01c0.28-0.02,0.38-0.03,0.38-0.03c0.28-0.03,0.38-0.04,0.38-0.04
			c0.28-0.05,0.37-0.06,0.37-0.06c0.37-0.08,0.46-0.1,0.46-0.1c0.36-0.1,0.46-0.13,0.46-0.13c0.36-0.12,0.45-0.16,0.45-0.16
			c0.35-0.15,0.44-0.18,0.44-0.18c0.34-0.17,0.42-0.21,0.42-0.21c0.33-0.19,0.41-0.24,0.41-0.24c0.32-0.21,0.39-0.27,0.39-0.27
			c0.3-0.24,0.38-0.3,0.38-0.3c0.33-0.3,0.38-0.35,0.38-0.35c0.31-0.32,0.36-0.38,0.36-0.38c0.29-0.35,0.34-0.41,0.34-0.41
			c0.23-0.31,0.32-0.44,0.32-0.44c0.17-0.26,0.26-0.4,0.26-0.4c0.17-0.28,0.25-0.42,0.25-0.42c0.16-0.29,0.23-0.44,0.23-0.44
			c0.15-0.3,0.22-0.46,0.22-0.46c1.42-3.23,1.83-6.26,2.28-9.61c0.64-5.61,1.03-12.41,2.14-17.94l2.01-10.21"/>
	</g>
	<g id="POLYLINE_346_">
		<path class="st2" d="M488.35,264.34c-3.65,6.51-7.29,13.45-10.22,20.3c-2.87,6.64-5.36,13.73-7.3,20.69
			c-4.84,17.68-7.77,36.08-8.95,54.37c-0.67,12.11-0.78,29.17,7.39,38.86c0.33,0.36,0.5,0.54,0.5,0.54c0.34,0.34,0.51,0.5,0.51,0.5
			c0.35,0.32,0.44,0.39,0.44,0.39c0.36,0.29,0.45,0.37,0.45,0.37c0.36,0.27,0.46,0.34,0.46,0.34c0.37,0.25,0.47,0.31,0.47,0.31
			c0.28,0.17,0.38,0.23,0.38,0.23c0.29,0.16,0.39,0.21,0.39,0.21c0.29,0.14,0.39,0.19,0.39,0.19c0.3,0.13,0.4,0.17,0.4,0.17
			c0.3,0.11,0.4,0.14,0.4,0.14c0.31,0.09,0.41,0.12,0.41,0.12c0.31,0.08,0.41,0.1,0.41,0.1c0.34,0.07,0.42,0.08,0.42,0.08
			c0.34,0.05,0.43,0.06,0.43,0.06c0.34,0.03,0.43,0.04,0.43,0.04c0.34,0.01,0.43,0.01,0.43,0.01c0.35,0,0.43-0.01,0.43-0.01
			c0.35-0.02,0.43-0.03,0.43-0.03c0.34-0.04,0.43-0.05,0.43-0.05c0.34-0.05,0.43-0.07,0.43-0.07c0.34-0.07,0.42-0.09,0.42-0.09
			c0.33-0.09,0.42-0.11,0.42-0.11c0.33-0.1,0.41-0.13,0.41-0.13c0.32-0.12,0.4-0.15,0.4-0.15c0.32-0.13,0.39-0.16,0.39-0.16
			c0.31-0.14,0.38-0.18,0.38-0.18c0.37-0.2,0.45-0.24,0.45-0.24c0.36-0.22,0.43-0.27,0.43-0.27c0.34-0.24,0.41-0.29,0.41-0.29
			c0.32-0.26,0.38-0.31,0.38-0.31c0.36-0.34,0.42-0.39,0.42-0.39c0.33-0.36,0.38-0.42,0.38-0.42c0.25-0.32,0.29-0.39,0.29-0.39
			c0.22-0.34,0.26-0.41,0.26-0.41c0.19-0.36,0.23-0.43,0.23-0.43c0.16-0.36,0.18-0.42,0.18-0.42c0.12-0.33,0.13-0.39,0.13-0.39
			c0.1-0.34,0.11-0.4,0.11-0.4c0.06-0.29,0.09-0.41,0.09-0.41c0.06-0.36,0.07-0.49,0.07-0.49c0.03-0.25,0.04-0.38,0.04-0.38
			c0.01-0.26,0.02-0.39,0.02-0.39c0.04-2.47-0.53-4.56-1.09-6.72c-0.67-2.45-2.09-7-2.64-9.43c-0.78-3.2-1.24-6.51-1.44-9.8
			c-0.39-6.59,0.23-13.27,1.37-19.76c1.7-9.59,4.61-19.15,7.72-28.37c1.73-4.93,10.75-29.86,12.08-34.3l5.39-17.74"/>
	</g>
	<g id="POLYLINE_347_">
		<path class="st2" d="M322.12,308.01c-0.47,4.33-1.24,10.11-1.18,14.41c0,3.55,0.44,7.2,0.99,10.7c1.66,10.12,4,21.65,3.61,31.88
			c-0.19,6.75-1.68,14.3-2.43,21.02c-0.38,3.76-0.69,8.06,0.59,11.6c0.14,0.36,0.18,0.45,0.18,0.45c0.16,0.35,0.2,0.44,0.2,0.44
			c0.17,0.34,0.22,0.42,0.22,0.42c0.19,0.33,0.24,0.41,0.24,0.41c0.19,0.3,0.26,0.39,0.26,0.39c0.2,0.28,0.27,0.38,0.27,0.38
			c0.29,0.36,0.37,0.45,0.37,0.45c0.31,0.34,0.39,0.43,0.39,0.43c0.33,0.32,0.42,0.4,0.42,0.4c0.35,0.3,0.44,0.37,0.44,0.37
			c0.37,0.28,0.46,0.35,0.46,0.35c0.29,0.2,0.38,0.26,0.38,0.26c0.29,0.18,0.39,0.24,0.39,0.24c0.3,0.17,0.4,0.22,0.4,0.22
			c0.31,0.16,0.41,0.21,0.41,0.21c0.31,0.14,0.42,0.19,0.42,0.19c0.32,0.13,0.42,0.17,0.42,0.17c0.32,0.11,0.43,0.15,0.43,0.15
			c0.33,0.1,0.43,0.13,0.43,0.13c0.33,0.09,0.44,0.11,0.44,0.11c0.33,0.07,0.44,0.09,0.44,0.09c0.33,0.06,0.44,0.07,0.44,0.07
			c0.33,0.04,0.44,0.05,0.44,0.05c0.33,0.03,0.44,0.03,0.44,0.03c0.33,0.01,0.44,0.01,0.44,0.01c0.33-0.01,0.44-0.01,0.44-0.01
			c0.33-0.02,0.43-0.03,0.43-0.03c0.32-0.04,0.43-0.05,0.43-0.05c0.32-0.05,0.42-0.07,0.42-0.07c0.31-0.07,0.42-0.1,0.42-0.1
			c0.31-0.09,0.41-0.12,0.41-0.12c0.3-0.1,0.4-0.14,0.4-0.14c0.29-0.12,0.39-0.16,0.39-0.16c0.29-0.14,0.38-0.19,0.38-0.19
			c0.34-0.19,0.4-0.23,0.4-0.23c0.36-0.24,0.41-0.28,0.41-0.28c0.34-0.26,0.4-0.31,0.4-0.31c0.33-0.29,0.38-0.34,0.38-0.34
			c0.36-0.37,0.47-0.48,0.47-0.48c0.3-0.35,0.39-0.46,0.39-0.46c0.28-0.37,0.37-0.5,0.37-0.5c0.18-0.26,0.27-0.4,0.27-0.4
			c0.17-0.27,0.25-0.41,0.25-0.41c1.21-2.1,1.77-4.05,2.27-6.13c0.46-2.02,0.76-4.15,0.96-6.21c1.03-10.56-0.61-21.71-1.08-32.27
			c-0.69-13.43,1.45-32.02,2.43-45.55c0.22-3.34,0.38-6.95,0.32-10.28c-0.03-2.98-0.37-7.8-0.54-10.82"/>
	</g>
	<g id="POLYLINE_348_">
		<path class="st2" d="M285,332.83c0.91,2.33,2.4,5.94,3.12,8.28c0.6,1.89,1.09,3.86,1.44,5.8c0.44,2.4,0.71,4.97,0.9,7.4
			c0.68,8.55,0.59,22.06,0.71,30.76c0.06,2.91,0.12,7.09,0.37,9.97c0.16,1.93,0.47,4.24,1.07,5.95c0.11,0.3,0.14,0.39,0.14,0.39
			c0.11,0.28,0.15,0.38,0.15,0.38c0.16,0.36,0.21,0.45,0.21,0.45c0.18,0.34,0.22,0.42,0.22,0.42c0.19,0.32,0.24,0.39,0.24,0.39
			c0.26,0.36,0.31,0.43,0.31,0.43c0.28,0.33,0.34,0.39,0.34,0.39c0.37,0.35,0.44,0.41,0.44,0.41c0.34,0.26,0.41,0.3,0.41,0.3
			c0.37,0.22,0.42,0.25,0.42,0.25c0.33,0.16,0.39,0.19,0.39,0.19c0.35,0.14,0.41,0.16,0.41,0.16c0.36,0.11,0.42,0.13,0.42,0.13
			c0.37,0.08,0.43,0.1,0.43,0.1c0.32,0.05,0.38,0.06,0.38,0.06c0.32,0.03,0.38,0.04,0.38,0.04c0.32,0.01,0.39,0.01,0.39,0.01
			c0.33-0.01,0.39-0.01,0.39-0.01c0.33-0.03,0.39-0.03,0.39-0.03c0.33-0.05,0.39-0.06,0.39-0.06c0.33-0.07,0.39-0.08,0.39-0.08
			c0.32-0.08,0.39-0.1,0.39-0.1c0.32-0.1,0.38-0.13,0.38-0.13c0.31-0.12,0.37-0.15,0.37-0.15c0.37-0.17,0.43-0.21,0.43-0.21
			c0.35-0.2,0.41-0.24,0.41-0.24c0.34-0.23,0.4-0.27,0.4-0.27c0.33-0.26,0.38-0.3,0.38-0.3c0.33-0.31,0.37-0.35,0.37-0.35
			c0.32-0.35,0.39-0.44,0.39-0.44c0.22-0.29,0.29-0.39,0.29-0.39c0.21-0.31,0.28-0.41,0.28-0.41c0.2-0.33,0.26-0.44,0.26-0.44
			c0.18-0.35,0.24-0.47,0.24-0.47c0.78-1.63,1.16-3.27,1.44-4.74c0.37-1.96,0.56-3.84,0.73-5.8c0.45-6.66,2.31-28.68,2.38-34.95
			c0.08-3.53,0.03-7.19-0.33-10.7c-0.68-7.28-2.72-14.43-5.06-21.34"/>
	</g>
	<g id="POLYLINE_349_">
		<path class="st2" d="M254.77,335.47c0.43,4.23,1.35,9.06,1.36,13.31c0.14,5.81-1.15,16-1.67,21.9
			c-0.45,4.92-0.88,10.21-0.84,15.14c0.03,3.23,0.25,6.99,1.21,9.97c0.12,0.36,0.16,0.47,0.16,0.47c0.13,0.34,0.18,0.45,0.18,0.45
			c0.14,0.33,0.19,0.43,0.19,0.43c0.15,0.31,0.2,0.41,0.2,0.41c0.16,0.29,0.22,0.39,0.22,0.39c0.21,0.33,0.26,0.42,0.26,0.42
			c0.22,0.31,0.28,0.38,0.28,0.38c0.3,0.35,0.36,0.42,0.36,0.42c0.31,0.32,0.38,0.38,0.38,0.38c0.33,0.28,0.4,0.33,0.4,0.33
			c0.35,0.25,0.42,0.29,0.42,0.29c0.36,0.21,0.43,0.25,0.43,0.25c0.37,0.18,0.44,0.21,0.44,0.21c0.3,0.12,0.38,0.14,0.38,0.14
			c0.31,0.09,0.39,0.12,0.39,0.12c0.31,0.07,0.39,0.09,0.39,0.09c0.32,0.05,0.4,0.06,0.4,0.06c0.32,0.03,0.4,0.04,0.4,0.04
			c0.32,0.01,0.4,0.01,0.4,0.01c0.32-0.01,0.41-0.01,0.41-0.01c0.32-0.03,0.41-0.04,0.41-0.04c0.32-0.05,0.41-0.06,0.41-0.06
			c0.32-0.07,0.4-0.09,0.4-0.09c0.32-0.09,0.4-0.11,0.4-0.11c0.32-0.11,0.4-0.13,0.4-0.13c0.32-0.12,0.39-0.16,0.39-0.16
			c0.31-0.14,0.39-0.18,0.39-0.18c0.31-0.16,0.38-0.2,0.38-0.2c0.3-0.18,0.37-0.22,0.37-0.22c0.26-0.17,0.38-0.25,0.38-0.25
			c0.34-0.25,0.45-0.34,0.45-0.34c0.32-0.27,0.43-0.37,0.43-0.37c0.31-0.3,0.42-0.4,0.42-0.4c0.3-0.32,0.4-0.43,0.4-0.43
			c0.29-0.34,0.39-0.46,0.39-0.46c2.31-2.95,3.38-6.14,4.38-9.42c1.22-4.22,2.04-8.77,2.75-13.12c2.09-13.44,2.9-27.37,0.1-40.76"/>
	</g>
</g>
<g id="AG-ANIMALS">
	<g id="POLYLINE_237_">
		<path class="st64" d="M270.61,334.64c-4.56-0.52-9.16-1.33-13.5-2.85c-1.86-0.65-3.71-1.44-5.45-2.36
			c-1.82-0.92-4.17-2.49-5.58-3.61c-3.76-2.97-6.83-6.48-9.57-10.38c-2.96-4.26-5.42-8.9-7.19-13.78
			c-3.53-9.74-3.61-18.86,1.13-28.22c2.36-4.67,5.56-8.91,9.05-12.8c6.36-6.99,13.85-13.03,21.99-17.82
			c3.81-2.23,7.9-4.16,12.02-5.77c5.81-2.32,12.92-4.34,18.87-6.33l7.02-2.5c1.61-0.56,3.75-1.16,5.27-1.4
			c2.19-0.37,4.35-0.35,6.24-0.05c2.8,0.46,4.84,1.3,7.2,2.34c3.53,1.55,7.74,4.05,11.3,5.44c0.37,0.13,0.48,0.17,0.48,0.17
			c0.34,0.1,0.45,0.13,0.45,0.13c0.37,0.08,0.41,0.09,0.41,0.09c0.33,0.05,0.38,0.05,0.38,0.05c0.34,0.01,0.38,0.01,0.38,0.01
			c0.36-0.06,0.39-0.07,0.39-0.07c0.37-0.22,0.39-0.24,0.39-0.24c0.2-0.37,0.21-0.39,0.21-0.39c0.07-0.36,0.07-0.39,0.07-0.39
			c0.01-0.33,0.01-0.39,0.01-0.39c-0.02-0.33-0.03-0.4-0.03-0.4c-0.04-0.36-0.06-0.52-0.06-0.52c-0.21-1.31-0.62-2.95-0.74-3.93
			c-0.04-0.34-0.06-0.5-0.06-0.5c-0.03-0.32-0.03-0.4-0.03-0.4c-0.01-0.31-0.01-0.39-0.01-0.39c0.02-0.37,0.02-0.44,0.02-0.44
			c0.06-0.37,0.06-0.4,0.06-0.4c0.11-0.36,0.12-0.39,0.12-0.39c0.2-0.36,0.22-0.38,0.22-0.38c0.37-0.34,0.4-0.36,0.4-0.36
			c0.37-0.16,0.41-0.18,0.41-0.18c0.35-0.08,0.4-0.09,0.4-0.09c0.35-0.03,0.4-0.04,0.4-0.04c0.32,0,0.38,0,0.38,0
			c0.29,0.01,0.41,0.02,0.41,0.02c3.49,0.38,6.8,1.86,10.13,2.59c0.37,0.08,0.49,0.1,0.49,0.1c0.35,0.06,0.46,0.07,0.46,0.07
			c0.32,0.04,0.42,0.05,0.42,0.05c0.34,0.02,0.38,0.02,0.38,0.02c0.34-0.02,0.38-0.02,0.38-0.02c0.35-0.08,0.39-0.09,0.39-0.09
			c0.37-0.24,0.39-0.27,0.39-0.27c0.15-0.36,0.16-0.39,0.16-0.39c0-0.37,0-0.41,0-0.41c-0.07-0.36-0.08-0.4-0.08-0.4
			c-0.09-0.31-0.12-0.4-0.12-0.4c-0.11-0.29-0.15-0.39-0.15-0.39c-0.13-0.31-0.18-0.41-0.18-0.41c-1.22-2.62-3.33-5.5-4.63-8
			c-0.15-0.29-0.19-0.39-0.19-0.39c-0.16-0.36-0.2-0.44-0.2-0.44c-0.13-0.36-0.14-0.4-0.14-0.4c-0.09-0.37-0.09-0.4-0.09-0.4
			c0.02-0.36,0.03-0.38,0.03-0.38c0.36-0.27,0.39-0.28,0.39-0.28c0.36,0,0.4,0,0.4,0c0.36,0.07,0.41,0.08,0.41,0.08
			c0.31,0.09,0.42,0.12,0.42,0.12c2.45,0.84,6.23,2.99,8.54,4.12c1.6,0.8,3.81,1.89,5.39,2.35c0.25,0.07,0.38,0.1,0.38,0.1
			c0.35,0.07,0.41,0.08,0.41,0.08c0.37,0.05,0.41,0.05,0.41,0.05c0.36-0.01,0.4-0.01,0.4-0.01c0.35-0.1,0.38-0.12,0.38-0.12
			c0.32-0.37,0.33-0.4,0.33-0.4c0.07-0.36,0.07-0.39,0.07-0.39c-0.01-0.36-0.02-0.4-0.02-0.4c-0.05-0.33-0.07-0.42-0.07-0.42
			c-0.09-0.36-0.11-0.46-0.11-0.46c-0.72-2.41-2.12-4.92-2.91-7.22c-0.1-0.31-0.13-0.41-0.13-0.41c-0.08-0.29-0.11-0.39-0.11-0.39
			c-0.08-0.36-0.1-0.45-0.1-0.45c-0.05-0.36-0.05-0.4-0.05-0.4c0-0.35,0-0.38,0-0.38c0.09-0.37,0.1-0.39,0.1-0.39
			c0.35-0.33,0.38-0.34,0.38-0.34c0.35-0.07,0.4-0.08,0.4-0.08c0.34,0.01,0.4,0.01,0.4,0.01c0.34,0.05,0.4,0.06,0.4,0.06
			c0.31,0.07,0.38,0.09,0.38,0.09c0.27,0.08,0.41,0.12,0.41,0.12c2.38,0.81,4.08,1.79,6.17,2.85c2.52,1.31,6.72,3.74,9.29,4.68
			c0.26,0.09,0.38,0.13,0.38,0.13c0.35,0.1,0.4,0.11,0.4,0.11c0.35,0.07,0.4,0.07,0.4,0.07c0.37,0.01,0.4,0,0.4,0
			c0.36-0.17,0.37-0.19,0.37-0.19c0.11-0.37,0.11-0.4,0.11-0.4c-0.04-0.36-0.05-0.4-0.05-0.4c-0.1-0.35-0.13-0.44-0.13-0.44
			c-0.14-0.36-0.18-0.45-0.18-0.45c-1.35-2.95-3.32-5.57-4.73-8.4c-0.15-0.31-0.19-0.41-0.19-0.41c-0.13-0.29-0.16-0.38-0.16-0.38
			c-0.13-0.35-0.14-0.4-0.14-0.4c-0.1-0.35-0.1-0.39-0.1-0.39c-0.04-0.36-0.04-0.39-0.04-0.39c0.12-0.37,0.13-0.39,0.13-0.39
			c0.35-0.17,0.38-0.18,0.38-0.18c0.35-0.01,0.39,0,0.39,0c0.35,0.05,0.39,0.06,0.39,0.06c0.3,0.07,0.4,0.1,0.4,0.1
			c3.99,1.32,7.86,3.9,11.75,5.19c0.35,0.11,0.47,0.14,0.47,0.14c0.33,0.08,0.38,0.09,0.38,0.09c0.34,0.06,0.39,0.06,0.39,0.06
			c0.34,0.01,0.38,0.01,0.38,0.01c0.34-0.06,0.37-0.07,0.37-0.07c0.37-0.32,0.38-0.34,0.38-0.34c0.09-0.36,0.09-0.39,0.09-0.39
			c-0.01-0.36-0.01-0.39-0.01-0.39c-0.05-0.31-0.06-0.38-0.06-0.38c-0.07-0.3-0.09-0.38-0.09-0.38c-0.07-0.24-0.12-0.41-0.12-0.41
			c-0.6-1.79-1.48-3.48-2.05-5.1c-0.1-0.31-0.13-0.39-0.13-0.39c-0.1-0.36-0.12-0.43-0.12-0.43c-0.06-0.35-0.07-0.38-0.07-0.38
			c-0.01-0.37,0-0.39,0-0.39c0.16-0.36,0.17-0.37,0.17-0.37c0.35-0.14,0.39-0.14,0.39-0.14c0.33,0.02,0.38,0.03,0.38,0.03
			c0.36,0.08,0.41,0.1,0.41,0.1c0.29,0.1,0.42,0.14,0.42,0.14c0.26,0.1,0.39,0.16,0.39,0.16c3.07,1.38,6.88,3.99,9.74,5.71
			c1.87,1.14,4.36,2.69,6.27,3.48c0.28,0.11,0.41,0.16,0.41,0.16c0.32,0.11,0.38,0.13,0.38,0.13c0.35,0.09,0.4,0.1,0.4,0.1
			c0.35,0.05,0.39,0.05,0.39,0.05c0.36-0.03,0.39-0.04,0.39-0.04c0.36-0.32,0.37-0.33,0.37-0.33c0.08-0.36,0.08-0.39,0.08-0.39
			c-0.01-0.36-0.02-0.4-0.02-0.4c-0.05-0.31-0.06-0.39-0.06-0.39c-0.07-0.31-0.09-0.38-0.09-0.38c-0.09-0.33-0.15-0.5-0.15-0.5
			c-0.43-1.31-1.07-2.77-1.54-3.97c-0.14-0.36-0.27-0.72-0.27-0.72c-0.12-0.34-0.17-0.5-0.17-0.5c-0.09-0.31-0.11-0.39-0.11-0.39
			c-0.09-0.36-0.1-0.42-0.1-0.42c-0.05-0.37-0.05-0.4-0.05-0.4c0.02-0.37,0.03-0.39,0.03-0.39c0.36-0.36,0.39-0.37,0.39-0.37
			c0.36,0.01,0.4,0.01,0.4,0.01c0.37,0.09,0.42,0.11,0.42,0.11c0.32,0.12,0.38,0.14,0.38,0.14c0.36,0.16,0.48,0.21,0.48,0.21
			c2.72,1.36,6.21,3.92,8.74,5.57c1.74,1.15,4.1,2.7,5.85,3.48c0.27,0.11,0.4,0.17,0.4,0.17c0.37,0.13,0.43,0.15,0.43,0.15
			c0.33,0.09,0.39,0.1,0.39,0.1c0.34,0.05,0.39,0.06,0.39,0.06c0.36-0.02,0.4-0.03,0.4-0.03c0.37-0.24,0.38-0.26,0.38-0.26
			c0.15-0.35,0.16-0.37,0.16-0.37c0.05-0.35,0.05-0.38,0.05-0.38c0-0.34-0.01-0.41-0.01-0.41c-0.03-0.35-0.04-0.42-0.04-0.42
			c-0.03-0.22-0.06-0.38-0.06-0.38c-0.21-1.18-0.7-2.86-0.88-3.73c-0.07-0.32-0.09-0.48-0.09-0.48c-0.05-0.3-0.06-0.38-0.06-0.38
			c-0.04-0.35-0.04-0.42-0.04-0.42c-0.01-0.35-0.01-0.38-0.01-0.38c0.04-0.35,0.04-0.38,0.04-0.38c0.15-0.37,0.16-0.39,0.16-0.39
			c0.34-0.23,0.38-0.24,0.38-0.24c0.37-0.03,0.42-0.02,0.42-0.02c0.35,0.06,0.41,0.07,0.41,0.07c0.35,0.1,0.41,0.12,0.41,0.12
			c0.32,0.12,0.45,0.17,0.45,0.17c0.28,0.12,0.42,0.19,0.42,0.19c2.34,1.16,4.03,2.38,6.08,3.75c2.84,1.9,7.25,5.15,10.23,6.56
			c0.29,0.13,0.44,0.19,0.44,0.19c0.34,0.13,0.41,0.16,0.41,0.16c0.32,0.1,0.38,0.12,0.38,0.12c0.34,0.08,0.4,0.09,0.4,0.09
			c0.35,0.03,0.39,0.03,0.39,0.03c0.37-0.06,0.39-0.07,0.39-0.07c0.36-0.29,0.38-0.3,0.38-0.3c0.17-0.37,0.18-0.39,0.18-0.39
			c0.07-0.34,0.08-0.39,0.08-0.39c0.02-0.33,0.03-0.39,0.03-0.39c0-0.36-0.01-0.49-0.01-0.49c-0.06-1.01-0.34-2.58-0.42-3.33
			c-0.03-0.26-0.04-0.39-0.04-0.39c-0.02-0.37-0.02-0.43-0.02-0.43c0-0.34,0.01-0.39,0.01-0.39c0.04-0.35,0.05-0.37,0.05-0.37
			c0.11-0.36,0.12-0.39,0.12-0.39c0.28-0.36,0.3-0.38,0.3-0.38c0.35-0.17,0.38-0.18,0.38-0.18c0.34-0.04,0.37-0.04,0.37-0.04
			c0.35,0.02,0.39,0.03,0.39,0.03c0.35,0.07,0.39,0.08,0.39,0.08c0.28,0.08,0.38,0.12,0.38,0.12c0.3,0.11,0.41,0.16,0.41,0.16
			c0.32,0.14,0.44,0.19,0.44,0.19c0.34,0.17,0.46,0.23,0.46,0.23c3.02,1.69,5.12,3.55,7.57,5.71c3.52,3.18,6.86,6.81,9.97,10.4
			c1.93,2.22,9.5,11.44,11.45,13.3c0.33,0.32,0.43,0.41,0.43,0.41c0.3,0.27,0.4,0.35,0.4,0.35c0.36,0.28,0.4,0.31,0.4,0.31
			c0.35,0.23,0.38,0.24,0.38,0.24c0.35,0.13,0.37,0.14,0.37,0.14c0.36-0.11,0.38-0.13,0.38-0.13c0.12-0.36,0.13-0.38,0.13-0.38
			c0.01-0.37,0.01-0.4,0.01-0.4c-0.02-0.3-0.03-0.38-0.03-0.38c-0.13-1.06-0.26-1.56-0.46-2.46c-0.54-2.28-1.55-5.84-1.83-8.1
			c-0.03-0.31-0.04-0.4-0.04-0.4c-0.02-0.28-0.02-0.38-0.02-0.38c-0.01-0.34,0-0.43,0-0.43c0.03-0.37,0.04-0.41,0.04-0.41
			c0.09-0.36,0.1-0.39,0.1-0.39c0.25-0.36,0.27-0.37,0.27-0.37c0.35-0.14,0.38-0.14,0.38-0.14c0.37,0.02,0.4,0.03,0.4,0.03
			c0.36,0.11,0.39,0.13,0.39,0.13c0.36,0.17,0.4,0.19,0.4,0.19c0.32,0.18,0.4,0.24,0.4,0.24c0.34,0.23,0.42,0.29,0.42,0.29
			c1.6,1.22,2.6,2.33,3.79,3.67c1.31,1.5,2.57,3.16,3.71,4.79c1.86,2.66,3.57,5.63,5.11,8.49c0.93,1.72,4.07,7.96,5.09,9.5
			c0.23,0.35,0.29,0.42,0.29,0.42c0.26,0.34,0.29,0.37,0.29,0.37c0.37,0.36,0.39,0.37,0.39,0.37c0.37,0.09,0.38,0.08,0.38,0.08
			c0.26-0.36,0.27-0.38,0.27-0.38c0.1-0.37,0.11-0.43,0.11-0.43c0.04-0.25,0.06-0.38,0.06-0.38c0.21-2,0.13-4.48,0.31-6.42
			c0.04-0.36,0.06-0.54,0.06-0.54c0.05-0.34,0.07-0.5,0.07-0.5c0.06-0.31,0.07-0.38,0.07-0.38c0.09-0.35,0.11-0.41,0.11-0.41
			c0.13-0.35,0.14-0.38,0.14-0.38c0.22-0.37,0.24-0.39,0.24-0.39c0.35-0.23,0.38-0.23,0.38-0.23c0.37,0.01,0.4,0.01,0.4,0.01
			c0.36,0.14,0.39,0.16,0.39,0.16c0.36,0.24,0.4,0.26,0.4,0.26c0.32,0.26,0.39,0.33,0.39,0.33c0.3,0.29,0.38,0.37,0.38,0.37
			c1.44,1.57,2.22,2.82,3.3,4.47c1.61,2.53,3.26,5.51,4.67,8.17c1.54,2.92,3.07,6.01,4.27,9.09c0.95,2.41,1.73,4.97,2.37,7.48"/>
	</g>
	<g id="POLYLINE_195_">
		<path class="st64" d="M254.83,411.41c-3.7,1.71-6.88,4.19-9.49,6.82c-2.39,2.46-4.36,5.07-5.43,8c-0.09,0.27-0.13,0.4-0.13,0.4
			c-0.08,0.27-0.12,0.4-0.12,0.4c-0.08,0.3-0.1,0.4-0.1,0.4c-0.06,0.29-0.08,0.39-0.08,0.39c-0.05,0.29-0.06,0.39-0.06,0.39
			c-0.04,0.29-0.05,0.39-0.05,0.39c-0.08,0.76-0.07,1.32-0.05,1.89c0.16,2.58,0.86,4.77,1.07,7.21c0.23,2.52-0.14,4.62-0.57,6.94
			c-0.85,4.2-2.2,9.36-1.89,13.55c0.16,2.89,1.22,5.57,2.34,7.86c1.4,2.83,3.47,6.01,5.01,8.74c1.45,2.49,2.65,5.27,3.37,7.87
			c1.38,4.78,2.08,10.59,4.74,14.78c3.84,6.01,10.68,9.33,17.1,10.86c11.03,2.56,22.97-0.54,34.12-0.25
			c6.24,0.09,13.47,0.84,19.71,0.89c3.54,0.04,7.16-0.16,10.67-0.58c7.96-0.94,15.89-2.87,23.51-5.35
			c12.2-3.99,23.94-9.7,34.56-16.9"/>
	</g>
	<g id="POLYLINE_194_">
		<path class="st64" d="M225.46,403.74c-5.46,0.59-12.13,1.31-17.56,1.67c-6.15,0.43-14.1,0.63-20.31,0.74
			c-17.97,0.24-39.47-0.15-57.45-0.88c-8.62-0.42-17.88-0.95-26.37-2.34c-3.47-0.57-7.04-1.31-10.4-2.38
			c-2.56-0.81-5.4-1.98-7.59-3.42c-0.36-0.24-0.53-0.37-0.53-0.37c-0.34-0.25-0.5-0.37-0.5-0.37c-0.32-0.25-0.47-0.38-0.47-0.38
			c-0.29-0.26-0.43-0.39-0.43-0.39c-0.33-0.33-0.39-0.39-0.39-0.39c-0.3-0.33-0.36-0.4-0.36-0.4c-0.27-0.33-0.31-0.4-0.31-0.4
			c-0.23-0.34-0.27-0.4-0.27-0.4c-0.19-0.34-0.23-0.41-0.23-0.41c-0.16-0.34-0.18-0.41-0.18-0.41c-0.12-0.34-0.13-0.38-0.13-0.38
			c-0.08-0.35-0.09-0.38-0.09-0.38c-0.04-0.35-0.05-0.38-0.05-0.38c0-0.35,0-0.38,0-0.38c0.04-0.35,0.04-0.38,0.04-0.38
			c0.08-0.35,0.09-0.38,0.09-0.38c0.12-0.35,0.14-0.4,0.14-0.4c0.16-0.33,0.18-0.38,0.18-0.38c0.19-0.33,0.23-0.38,0.23-0.38
			c0.2-0.29,0.27-0.38,0.27-0.38c0.23-0.29,0.3-0.38,0.3-0.38c0.25-0.29,0.34-0.39,0.34-0.39c1.05-1.11,1.92-1.77,2.91-2.57
			c2.69-2.07,6.65-4.88,8.76-7.37c0.57-0.65,0.98-1.21,1.28-1.65c0.19-0.29,0.28-0.43,0.28-0.43c0.17-0.29,0.26-0.43,0.26-0.43
			c0.16-0.29,0.24-0.44,0.24-0.44c2.82-5.39,1.67-11.7,3.49-17.17c0.1-0.26,0.15-0.39,0.15-0.39c0.11-0.25,0.16-0.38,0.16-0.38
			c0.17-0.37,0.24-0.49,0.24-0.49c0.19-0.34,0.25-0.45,0.25-0.45c0.19-0.31,0.25-0.41,0.25-0.41c0.2-0.29,0.27-0.39,0.27-0.39
			c0.22-0.28,0.29-0.38,0.29-0.38c0.31-0.37,0.39-0.46,0.39-0.46c0.33-0.35,0.42-0.44,0.42-0.44c0.35-0.34,0.53-0.5,0.53-0.5
			c2.23-1.98,4.92-3.33,7.4-4.82c0.73-0.44,1.82-1.14,2.4-1.59c0.36-0.28,0.51-0.4,0.51-0.4c0.29-0.25,0.43-0.37,0.43-0.37
			c0.28-0.25,0.41-0.38,0.41-0.38c0.26-0.26,0.38-0.39,0.38-0.39c0.24-0.27,0.36-0.4,0.36-0.4c0.23-0.27,0.34-0.41,0.34-0.41
			c0.26-0.35,0.31-0.43,0.31-0.43c0.24-0.36,0.28-0.44,0.28-0.44c0.18-0.3,0.22-0.38,0.22-0.38c0.16-0.31,0.2-0.38,0.2-0.38
			c0.15-0.31,0.18-0.39,0.18-0.39c0.13-0.32,0.16-0.4,0.16-0.4c0.11-0.33,0.14-0.41,0.14-0.41c0.1-0.34,0.12-0.42,0.12-0.42
			c0.08-0.35,0.1-0.43,0.1-0.43c0.07-0.35,0.08-0.44,0.08-0.44c0.05-0.36,0.06-0.45,0.06-0.45c0.03-0.37,0.04-0.47,0.04-0.47
			c0.01-0.28,0.02-0.38,0.02-0.38c0.04-1.99-0.41-3.69-0.99-5.38c-0.59-1.7-1.36-3.41-2.14-5.03c-2.92-6.09-7.3-12.95-9.31-19.41
			c-1.04-3.36-1.05-6.58-0.66-9.84c0.41-3.24,1.03-7.46,0.74-10.6c-0.27-4.03-1.48-9.27-2.23-13.25c-0.43-2.33-0.92-5.24-0.77-7.46
			c0.02-0.27,0.03-0.4,0.03-0.4c0.03-0.26,0.05-0.38,0.05-0.38c0.06-0.37,0.09-0.48,0.09-0.48c0.08-0.35,0.1-0.4,0.1-0.4
			c0.1-0.33,0.12-0.38,0.12-0.38c0.14-0.36,0.16-0.4,0.16-0.4c0.19-0.37,0.22-0.42,0.22-0.42c0.22-0.34,0.25-0.38,0.25-0.38
			c0.31-0.37,0.34-0.41,0.34-0.41c0.35-0.32,0.39-0.35,0.39-0.35c0.35-0.24,0.39-0.26,0.39-0.26c0.34-0.17,0.38-0.19,0.38-0.19
			c0.36-0.14,0.4-0.15,0.4-0.15c0.33-0.09,0.38-0.1,0.38-0.1c0.35-0.06,0.4-0.07,0.4-0.07c0.36-0.04,0.41-0.04,0.41-0.04
			c0.32-0.01,0.38-0.01,0.38-0.01c0.28,0.01,0.39,0.02,0.39,0.02c0.34,0.03,0.45,0.05,0.45,0.05c0.35,0.05,0.46,0.08,0.46,0.08
			c0.36,0.08,0.48,0.1,0.48,0.1c2.67,0.72,4.62,1.91,6.85,3.2c3.16,1.9,8.81,5.68,11.96,7.54c8.74,5.23,20.8,10.61,29.8,15.45
			c13.13,6.91,27.07,18.13,39.04,26.98c5.26,3.82,10.87,7.77,16.49,11.01c3.24,1.86,6.64,3.59,10.18,4.82
			c2.28,0.79,4.66,1.37,7.04,1.75c2.65,0.44,5.81,0.66,8.5,0.84"/>
	</g>
	<g id="POLYLINE_193_">
		<path class="st64" d="M509.08,500.93c18.79-2.52,37.09-8.38,54.26-16.36c14.3-6.55,28.14-14.5,40.77-23.88"/>
	</g>
	<g id="POLYLINE_192_">
		<path class="st64" d="M482.83,494.39c-7.05,0.2-18.03,1.07-25.03,0.85c-4.34-0.08-10.69-0.78-15.02-0.76
			c-3.11,0-6.41,0.34-9.03,1.53c-0.36,0.17-0.48,0.22-0.48,0.22c-0.35,0.18-0.46,0.24-0.46,0.24c-0.34,0.19-0.45,0.26-0.45,0.26
			c-0.33,0.2-0.44,0.27-0.44,0.27c-2.64,1.7-4.56,4.13-6.12,6.52c-1.73,2.69-3.19,5.69-4.52,8.59c-2.7,5.94-4.78,12.22-5.85,18.66
			c-1.28,7.54-1.03,15.39-0.61,23c0,0,0.93,15.5,0.93,15.5s0.07,1.01,0.07,1.01l0.04,0.49c0.09,1.1,0.29,2.53,0.54,3.47
			c0.1,0.37,0.13,0.46,0.13,0.46c0.11,0.35,0.14,0.44,0.14,0.44c0.13,0.33,0.16,0.41,0.16,0.41c0.14,0.31,0.18,0.38,0.18,0.38
			c0.19,0.36,0.23,0.42,0.23,0.42c0.24,0.35,0.26,0.38,0.26,0.38c0.32,0.36,0.34,0.39,0.34,0.39c0.36,0.31,0.39,0.33,0.39,0.33
			c0.37,0.23,0.4,0.25,0.4,0.25c0.34,0.15,0.38,0.16,0.38,0.16c0.37,0.11,0.41,0.12,0.41,0.12c0.35,0.07,0.43,0.08,0.43,0.08
			c0.33,0.04,0.42,0.04,0.42,0.04c0.35,0.01,0.44,0.01,0.44,0.01c0.36-0.01,0.45-0.02,0.45-0.02c0.28-0.03,0.38-0.04,0.38-0.04
			c0.29-0.04,0.39-0.06,0.39-0.06c2.07-0.35,3.96-1.23,5.6-2.11c1.7-0.92,3.48-2.12,4.96-3.32c4.15-3.32,7.9-7.91,12.38-10.74
			c2.74-1.74,5.24-2.59,8.13-3.53c4.56-1.42,10.64-3.04,14.52-5.65c2.11-1.4,3.49-2.72,5.1-4.36c2.04-2.07,4.47-5.09,6.68-6.9
			c0.29-0.23,0.39-0.31,0.39-0.31c0.29-0.22,0.39-0.28,0.39-0.28c0.29-0.2,0.39-0.26,0.39-0.26c0.29-0.18,0.39-0.23,0.39-0.23
			c0.29-0.15,0.39-0.2,0.39-0.2c0.34-0.15,0.39-0.17,0.39-0.17c0.35-0.12,0.4-0.14,0.4-0.14c0.35-0.09,0.42-0.11,0.42-0.11
			c0.35-0.07,0.42-0.08,0.42-0.08c0.35-0.04,0.42-0.05,0.42-0.05c0.35-0.02,0.42-0.02,0.42-0.02c0.28,0,0.42,0,0.42,0
			c1.15,0.04,2.7,0.33,3.58,0.4c0.29,0.02,0.43,0.03,0.43,0.03c0.29,0.01,0.43,0.02,0.43,0.02c0.36,0,0.43,0,0.43,0
			c0.36-0.02,0.43-0.03,0.43-0.03c0.36-0.04,0.43-0.05,0.43-0.05c0.36-0.07,0.43-0.08,0.43-0.08c0.36-0.1,0.43-0.12,0.43-0.12
			c0.36-0.13,0.43-0.16,0.43-0.16c0.35-0.16,0.41-0.19,0.41-0.19c0.35-0.19,0.4-0.22,0.4-0.22c0.35-0.22,0.46-0.3,0.46-0.3
			c0.35-0.25,0.46-0.34,0.46-0.34c0.34-0.28,0.46-0.38,0.46-0.38c0.34-0.32,0.46-0.43,0.46-0.43c2.02-2.03,3.33-4.19,4.61-6.35
			c1.83-3.14,3.63-6.98,5.17-10.29c1.08-2.39,2.73-5.98,3.74-8.39c0.95-2.29,1.95-5.07,2.24-7.3c0.04-0.32,0.06-0.47,0.06-0.47
			c0.03-0.31,0.04-0.46,0.04-0.46c0.01-0.3,0.02-0.45,0.02-0.45c0-0.3,0-0.44,0-0.44c-0.02-0.36-0.03-0.43-0.03-0.43
			c-0.04-0.35-0.05-0.42-0.05-0.42c-0.06-0.34-0.07-0.41-0.07-0.41c-0.08-0.33-0.09-0.4-0.09-0.4c-0.1-0.32-0.12-0.39-0.12-0.39
			c-0.12-0.31-0.14-0.37-0.14-0.37c-0.17-0.36-0.2-0.42-0.2-0.42c-0.2-0.34-0.24-0.4-0.24-0.4c-0.23-0.33-0.28-0.38-0.28-0.38
			c-0.32-0.36-0.36-0.41-0.36-0.41c-0.36-0.34-0.42-0.39-0.42-0.39c-0.35-0.27-0.41-0.32-0.41-0.32c-0.32-0.21-0.39-0.25-0.39-0.25
			c-0.35-0.2-0.42-0.24-0.42-0.24c-0.3-0.15-0.37-0.19-0.37-0.19c-0.32-0.14-0.4-0.17-0.4-0.17"/>
	</g>
	<g id="POLYLINE_191_">
		<path class="st64" d="M560.11,391.98c-0.53,5.29-0.23,10.67,0.61,15.91c1,6.17,2.76,12.28,5.11,18.07
			c3.08,7.39,7.31,15.45,13.71,20.22c5.94,4.47,13.06,5.09,20.11,4.2c5.47-0.73,11.45-2.45,15.99-5.49c3.3-2.19,5.44-5.5,8.32-7.77
			c0.33-0.25,0.5-0.38,0.5-0.38c3.2-2.3,7.5-3.61,11.06-5.06c2.78-1.09,6.06-2.54,8.36-4.21c3.35-2.43,5.48-5.35,7.63-8.66
			c1.04-1.63,3.4-5.48,4.5-7c1.46-2.07,4.38-5.77,5.43-7.94c0.16-0.35,0.2-0.44,0.2-0.44c0.15-0.36,0.19-0.45,0.19-0.45
			c0.13-0.36,0.16-0.45,0.16-0.45c0.11-0.36,0.13-0.44,0.13-0.44c0.08-0.36,0.1-0.44,0.1-0.44c0.06-0.36,0.07-0.45,0.07-0.45
			c0.04-0.36,0.04-0.45,0.04-0.45c0.01-0.37,0.01-0.46,0.01-0.46c-0.01-0.28-0.01-0.38-0.01-0.38c-0.02-0.29-0.03-0.38-0.03-0.38
			c-0.03-0.29-0.05-0.39-0.05-0.39c-0.05-0.3-0.07-0.4-0.07-0.4c-0.06-0.31-0.09-0.41-0.09-0.41c-0.71-2.81-1.92-4.95-3.33-7.28
			c-1.67-2.67-3.64-5.2-5.76-7.53c-2.36-2.59-5.05-4.99-7.76-7.2c-5.02-4.08-13.09-9.91-17.95-14.13
			c-6.66-5.6-12.41-12.36-17.66-19.28c-6.34-8.48-15.03-20.83-22.13-28.41c-4.82-5.21-10.21-10.02-15.92-14.23
			c-6.81-5.04-14.23-9.4-21.76-13.27c-9.29-4.76-19.11-8.99-28.88-12.63c-28.68-10.55-59.25-17.45-89.94-16.61
			c-19.86,0.57-39.79,4.53-57.91,12.82c-5.35,2.45-10.63,5.32-15.57,8.5c-8.25,5.29-16.1,11.68-23.47,18.14
			c-9.73,8.42-22.09,20.89-32.64,28.22c-4.57,3.16-9.65,5.65-15.03,7.05c-7.28,1.95-15.63,2.08-23.11,2.58l-34.52,1.4
			c-3.65,0.2-7.53,0.48-11.13,1.09c-2.35,0.4-5.03,1.03-7.14,1.99c-0.37,0.17-0.55,0.26-0.55,0.26c-0.35,0.18-0.52,0.27-0.52,0.27
			c-0.33,0.19-0.49,0.29-0.49,0.29c-0.31,0.2-0.47,0.3-0.47,0.3c-0.37,0.26-0.44,0.32-0.44,0.32c-0.34,0.27-0.41,0.33-0.41,0.33
			c-0.32,0.29-0.38,0.35-0.38,0.35c-0.35,0.36-0.41,0.43-0.41,0.43c-0.26,0.32-0.31,0.38-0.31,0.38c-0.24,0.33-0.28,0.4-0.28,0.4
			c-0.2,0.33-0.24,0.39-0.24,0.39c-0.16,0.32-0.19,0.39-0.19,0.39c-0.14,0.33-0.17,0.4-0.17,0.4c-0.12,0.34-0.15,0.41-0.15,0.41
			c-0.1,0.35-0.12,0.43-0.12,0.43c-0.08,0.36-0.11,0.51-0.11,0.51c-0.05,0.3-0.08,0.45-0.08,0.45c-0.04,0.31-0.06,0.46-0.06,0.46
			c-0.03,0.32-0.04,0.48-0.04,0.48c-0.09,2.29,0.23,4.03,0.59,6.07c0.32,1.71,1.2,5.71,1.48,7.39c0.37,2.12,0.65,4.32,0.66,6.47
			c0.01,2.01-0.24,4.04-0.62,6c-0.49,2.7-1.68,6.55-2.44,9.22c-0.62,2.17-1.35,4.93-1.41,7.01c-0.01,0.3-0.01,0.45-0.01,0.45
			c0,0.3,0.01,0.44,0.01,0.44c0.02,0.29,0.03,0.43,0.03,0.43c0.03,0.28,0.04,0.42,0.04,0.42c0.05,0.35,0.06,0.41,0.06,0.41
			c0.06,0.31,0.09,0.41,0.09,0.41c0.08,0.3,0.11,0.4,0.11,0.4c0.1,0.3,0.13,0.39,0.13,0.39c0.11,0.29,0.15,0.38,0.15,0.38
			c0.13,0.28,0.17,0.37,0.17,0.37c0.19,0.36,0.24,0.45,0.24,0.45c0.21,0.35,0.27,0.44,0.27,0.44c0.24,0.34,0.3,0.43,0.3,0.43
			c0.26,0.33,0.33,0.41,0.33,0.41c0.28,0.32,0.35,0.4,0.35,0.4c0.3,0.31,0.38,0.39,0.38,0.39c0.46,0.44,0.64,0.58,0.83,0.74
			c1.55,1.24,3.03,2.02,4.61,2.77c1.72,0.8,3.57,1.49,5.37,2.1c6.37,2.2,16.52,4.43,23.18,6.09c8.92,2.2,18.03,4.88,26.59,8.21
			c7.28,2.82,14.46,6.19,21.29,9.98c21.98,12.32,43.77,30.7,65.41,43.62c8.99,5.38,18.63,9.9,28.52,13.37
			c16.73,5.84,34.91,9.66,52.22,13.42"/>
	</g>
	<g id="POLYLINE_190_">
		<path class="st64" d="M521.95,362.17c-2.97-0.39-6.45-0.81-9.33-0.25c-0.33,0.07-0.45,0.09-0.45,0.09
			c-0.33,0.08-0.44,0.11-0.44,0.11c-0.32,0.09-0.43,0.13-0.43,0.13c-0.32,0.11-0.42,0.14-0.42,0.14c-0.31,0.12-0.41,0.16-0.41,0.16
			c-0.3,0.13-0.4,0.18-0.4,0.18c-0.3,0.15-0.39,0.2-0.39,0.2c-0.29,0.16-0.38,0.22-0.38,0.22c-0.28,0.18-0.37,0.24-0.37,0.24
			c-0.36,0.26-0.45,0.33-0.45,0.33c-0.35,0.29-0.43,0.37-0.43,0.37c-0.32,0.32-0.38,0.37-0.38,0.37c-0.3,0.34-0.4,0.46-0.4,0.46
			c-0.29,0.37-0.38,0.5-0.38,0.5c-0.18,0.26-0.27,0.4-0.27,0.4c-0.17,0.28-0.26,0.42-0.26,0.42c-0.16,0.29-0.24,0.44-0.24,0.44
			c-0.15,0.3-0.23,0.45-0.23,0.45c-0.85,1.83-1.2,3.26-1.53,4.96c-0.24,1.34-0.37,2.73-0.42,4.08c-0.1,3.09,0.22,6.23,0.99,9.23
			c0.53,2.16,1.62,4.68,2.65,6.36c1.9,3.24,4.95,6.47,7.29,9.29c1.52,1.82,3.3,4.26,4.3,6.16c1.18,2.17,2.12,4.55,2.94,6.89
			c2.67,7.7,4.67,16.36,8.71,23.49c3.32,6.04,8.22,10.69,13.85,14.34c5.06,3.29,10.64,5.81,16.36,7.72
			c6.89,2.27,14.13,3.8,21.38,4.13c3.97,0.17,7.97-0.09,11.89-0.74c9.21-1.55,18.09-5.07,26.66-8.68
			c11.28-4.92,22.61-10.57,32.95-17.26c4.97-3.29,10.22-7.04,13.68-11.92c1.94-2.74,3.16-5.74,3.87-8.82
			c0.12-0.56,0.18-0.97,0.21-1.26c0.03-0.27,0.04-0.41,0.04-0.41c0.02-0.27,0.02-0.4,0.02-0.4c0-0.32,0-0.39,0-0.39
			c-0.02-0.31-0.02-0.37-0.02-0.37c-0.04-0.36-0.05-0.42-0.05-0.42c-0.07-0.34-0.08-0.4-0.08-0.4c-0.1-0.33-0.12-0.38-0.12-0.38
			c-0.16-0.35-0.18-0.4-0.18-0.4c-0.23-0.37-0.25-0.39-0.25-0.39c-0.33-0.37-0.35-0.39-0.35-0.39c-0.34-0.27-0.38-0.29-0.38-0.29
			c-0.37-0.21-0.4-0.23-0.4-0.23c-0.37-0.16-0.41-0.17-0.41-0.17c-0.31-0.1-0.41-0.13-0.41-0.13c-0.29-0.07-0.39-0.09-0.39-0.09
			c-0.3-0.06-0.41-0.07-0.41-0.07c-0.32-0.04-0.43-0.06-0.43-0.06c-0.33-0.03-0.45-0.04-0.45-0.04c-2.24-0.12-4.37,0.28-6.27,0.76
			c-2.24,0.59-4.27,1.36-6.06,2.36"/>
	</g>
	<g id="POLYLINE_189_">
		<path class="st64" d="M512.55,455.22c-1.15,0.71-2.6,1.47-3.68,1.88c-0.36,0.13-0.49,0.18-0.49,0.18
			c-0.37,0.12-0.49,0.16-0.49,0.16c-0.37,0.1-0.49,0.13-0.49,0.13c-0.37,0.08-0.5,0.11-0.5,0.11c-0.25,0.05-0.37,0.07-0.37,0.07
			c-0.25,0.03-0.38,0.05-0.38,0.05c-0.25,0.02-0.38,0.03-0.38,0.03c-0.25,0.01-0.38,0.02-0.38,0.02c-0.25,0-0.38,0-0.38,0
			c-0.37-0.02-0.45-0.03-0.45-0.03c-0.33-0.04-0.41-0.05-0.41-0.05c-0.33-0.05-0.41-0.07-0.41-0.07c-0.33-0.07-0.49-0.11-0.49-0.11
			c-0.33-0.09-0.5-0.13-0.5-0.13c-2.29-0.67-5.54-2.39-7.47-3.18c-1.68-0.72-3.44-1.36-5.2-1.86c-8.87-2.49-18.25-3.37-27.42-4.07
			c-4.02-0.3-14.18-0.65-18.18-0.99c-2.96-0.24-6.5-0.73-9.12-1.71c-1.05-0.38-1.89-0.8-2.58-1.21c-0.26-0.16-0.39-0.24-0.39-0.24
			c-0.25-0.17-0.38-0.25-0.38-0.25c-0.36-0.27-0.48-0.36-0.48-0.36c-0.34-0.28-0.44-0.36-0.44-0.36c-0.3-0.27-0.4-0.36-0.4-0.36
			c-0.29-0.29-0.38-0.38-0.38-0.38c-0.27-0.3-0.36-0.4-0.36-0.4c-1.45-1.7-2.29-3.3-3.2-5.07c-1.04-2.11-2.38-4.95-3.54-6.94
			c-2.31-4.07-5.28-7.03-8.53-9.9c-4.14-3.66-10.32-8.24-14.11-12.18c-2.4-2.44-4.16-4.95-5.43-7.69
			c-1.69-3.56-2.71-7.53-4.02-11.17c-0.62-1.76-1.6-4.09-2.4-5.56c-1.09-2.02-1.99-3.33-3.24-5.1c-1.46-2.02-5.21-6.8-6.35-8.88
			c-0.19-0.35-0.25-0.46-0.25-0.46c-0.17-0.34-0.22-0.45-0.22-0.45c-0.15-0.33-0.19-0.43-0.19-0.43c-0.12-0.31-0.16-0.42-0.16-0.42
			c-0.11-0.35-0.12-0.4-0.12-0.4c-0.08-0.34-0.09-0.38-0.09-0.38c-0.05-0.37-0.05-0.41-0.05-0.41c0-0.35,0-0.39,0-0.39
			c0.05-0.35,0.06-0.37,0.06-0.37c0.12-0.36,0.14-0.39,0.14-0.39c0.2-0.36,0.22-0.38,0.22-0.38c0.31-0.36,0.33-0.38,0.33-0.38
			c0.37-0.3,0.41-0.33,0.41-0.33c0.36-0.22,0.41-0.24,0.41-0.24c0.34-0.16,0.4-0.19,0.4-0.19c0.37-0.14,0.43-0.16,0.43-0.16
			c0.33-0.1,0.4-0.12,0.4-0.12c0.28-0.07,0.42-0.1,0.42-0.1c0.29-0.06,0.44-0.08,0.44-0.08c0.3-0.04,0.46-0.06,0.46-0.06
			c0.31-0.03,0.47-0.04,0.47-0.04c0.32-0.02,0.49-0.02,0.49-0.02c0.33-0.01,0.5-0.01,0.5-0.01c0.34,0.01,0.51,0.01,0.51,0.01
			c0.35,0.02,0.52,0.03,0.52,0.03c3.58,0.33,6.36,1.64,9.33,3.13c5.45,2.87,13.02,7.84,18.46,10.69
			c9.45,5.19,28.96,12.76,39.11,17.06c9.96,4.23,20.05,8.82,29.01,14.93c4.81,3.19,10.98,8,15.72,11.31
			c1.65,1.14,3.65,2.44,5.38,3.34c1.74,0.9,2.73,1.3,4.42,1.89c1.63,0.57,4.15,1.25,5.67,1.85c0.5,0.2,0.82,0.35,0.98,0.42
			c0.31,0.15,0.47,0.23,0.47,0.23c0.3,0.16,0.45,0.25,0.45,0.25c0.36,0.22,0.44,0.27,0.44,0.27c0.35,0.24,0.42,0.29,0.42,0.29
			c0.33,0.26,0.39,0.31,0.39,0.31c0.35,0.31,0.46,0.41,0.46,0.41c0.33,0.33,0.43,0.45,0.43,0.45c0.31,0.36,0.41,0.48,0.41,0.48
			c0.19,0.25,0.29,0.38,0.29,0.38c0.18,0.26,0.28,0.39,0.28,0.39c0.18,0.27,0.26,0.41,0.26,0.41c1.23,2.01,1.91,4.15,2.39,6.12"/>
	</g>
</g>
<g id="AG-OUTLINE">
	<g id="POLYLINE_161_">
		<path class="st65" d="M655.06,413.21c1.82-1.02,3.75-1.72,5.51-2.21c2.05-0.57,4.01-0.9,5.88-0.93c0.36,0,0.48,0,0.48,0
			c0.35,0.01,0.46,0.02,0.46,0.02c0.34,0.03,0.45,0.04,0.45,0.04c0.32,0.04,0.43,0.06,0.43,0.06c0.31,0.05,0.41,0.07,0.41,0.07
			c0.29,0.07,0.39,0.09,0.39,0.09c0.36,0.11,0.41,0.13,0.41,0.13c0.33,0.14,0.37,0.15,0.37,0.15c0.34,0.18,0.37,0.2,0.37,0.2
			c0.36,0.26,0.38,0.28,0.38,0.28c0.34,0.36,0.36,0.38,0.36,0.38c0.24,0.36,0.26,0.38,0.26,0.38c0.18,0.37,0.2,0.42,0.2,0.42
			c0.11,0.32,0.12,0.38,0.12,0.38c0.08,0.34,0.09,0.4,0.09,0.4c0.05,0.36,0.06,0.42,0.06,0.42c0.02,0.37,0.03,0.44,0.03,0.44
			c0,0.26,0,0.39,0,0.39c-0.01,0.26-0.02,0.4-0.02,0.4c-0.02,0.27-0.04,0.41-0.04,0.41c-0.22,1.72-0.65,2.99-1.14,4.4
			c-0.71,2-1.81,4.09-2.94,5.67c-1.93,2.7-4.01,4.68-6.49,6.73c-2.68,2.19-5.67,4.22-8.58,6.08c-7.77,4.92-16.28,9.34-24.61,13.25
			c-7.65,3.53-15.75,6.96-23.8,9.44c-12.64,9.38-26.47,17.33-40.77,23.88c-17.16,7.98-35.47,13.84-54.26,16.36
			c0.16,0.37,0.18,0.42,0.18,0.42c0.12,0.33,0.14,0.43,0.14,0.43c0.08,0.3,0.1,0.4,0.1,0.4c0.06,0.31,0.08,0.41,0.08,0.41
			c0.04,0.32,0.05,0.42,0.05,0.42c0.03,0.32,0.03,0.43,0.03,0.43c0.01,0.33,0.01,0.44,0.01,0.44c-0.01,0.34-0.01,0.46-0.01,0.46
			c-0.02,0.35-0.03,0.47-0.03,0.47c-0.04,0.36-0.05,0.48-0.05,0.48c-0.33,2.38-1,4.18-1.78,6.22c-0.88,2.31-3.17,7.25-4.21,9.57
			c-2.52,5.31-5.26,11.54-9.09,15.93c-0.34,0.37-0.46,0.48-0.46,0.48c-0.34,0.34-0.46,0.45-0.46,0.45
			c-0.34,0.31-0.46,0.41-0.46,0.41c-0.34,0.28-0.46,0.36-0.46,0.36c-0.35,0.24-0.46,0.32-0.46,0.32c-0.35,0.21-0.4,0.24-0.4,0.24
			c-0.35,0.18-0.41,0.21-0.41,0.21c-0.3,0.13-0.37,0.16-0.37,0.16c-0.36,0.12-0.43,0.14-0.43,0.14c-0.36,0.09-0.43,0.11-0.43,0.11
			c-0.36,0.06-0.43,0.07-0.43,0.07c-0.36,0.04-0.43,0.04-0.43,0.04c-0.36,0.02-0.43,0.02-0.43,0.02c-0.29,0-0.43-0.01-0.43-0.01
			c-0.89-0.03-2.4-0.27-3.02-0.34c-0.29-0.03-0.57-0.06-0.57-0.06c-0.28-0.02-0.43-0.03-0.43-0.03c-0.28-0.01-0.43-0.02-0.43-0.02
			c-0.35,0-0.42,0-0.42,0c-0.35,0.02-0.42,0.03-0.42,0.03c-0.35,0.04-0.42,0.06-0.42,0.06c-0.35,0.07-0.42,0.09-0.42,0.09
			c-0.33,0.09-0.38,0.11-0.38,0.11c-0.35,0.13-0.4,0.15-0.4,0.15c-0.3,0.13-0.39,0.18-0.39,0.18c-0.29,0.15-0.39,0.21-0.39,0.21
			c-0.29,0.18-0.39,0.24-0.39,0.24c-0.29,0.2-0.39,0.26-0.39,0.26c-0.29,0.22-0.39,0.29-0.39,0.29c-2.59,2.07-4.7,4.84-6.98,7.14
			c-1.49,1.57-3.46,3.32-5.1,4.36c-4.38,2.84-9.68,4.11-14.52,5.65c-2.73,0.85-5.9,2.06-8.13,3.53c-4.5,2.89-7.83,6.99-11.89,10.35
			c-2.98,2.45-6.59,4.73-10.24,5.66c-0.3,0.07-0.4,0.09-0.4,0.09c-0.3,0.06-0.4,0.07-0.4,0.07c-0.29,0.04-0.39,0.06-0.39,0.06
			c-0.28,0.03-0.38,0.04-0.38,0.04c-0.37,0.02-0.45,0.02-0.45,0.02c-0.35-0.01-0.44-0.01-0.44-0.01c-0.34-0.03-0.42-0.04-0.42-0.04
			c-0.36-0.06-0.4-0.07-0.4-0.07c-0.34-0.09-0.37-0.11-0.37-0.11c-0.35-0.14-0.38-0.16-0.38-0.16c-0.35-0.2-0.38-0.22-0.38-0.22
			c-0.37-0.29-0.4-0.31-0.4-0.31c-0.33-0.35-0.35-0.38-0.35-0.38c-0.25-0.34-0.29-0.4-0.29-0.4c-0.2-0.34-0.24-0.42-0.24-0.42
			c-0.14-0.3-0.18-0.38-0.18-0.38c-0.13-0.32-0.16-0.41-0.16-0.41c-0.12-0.34-0.15-0.43-0.15-0.43c-0.4-1.36-0.51-2.31-0.65-3.55
			c-0.13-0.92-1-16.12-1.09-17.47c-0.36-6.45-0.59-13.14,0.13-19.56c0.53-4.74,1.62-9.46,3.13-13.98c1.23-3.7,2.8-7.39,4.51-10.9
			c2.13-4.32,4.8-9.11,8.68-11.89c0.32-0.23,0.43-0.3,0.43-0.3c0.33-0.21,0.44-0.28,0.44-0.28c0.34-0.2,0.45-0.27,0.45-0.27
			c0.34-0.19,0.46-0.25,0.46-0.25c0.35-0.18,0.47-0.23,0.47-0.23c0.36-0.16,0.48-0.21,0.48-0.21c-13.33-2.84-27.86-6.07-40.93-9.81
			c-10.62,7.21-22.36,12.92-34.56,16.9c-7.62,2.48-15.54,4.41-23.51,5.35c-3.51,0.42-7.13,0.62-10.67,0.58
			c-5.6-0.04-12.4-0.68-18-0.85c-5.8-0.28-13.59,0.52-19.44,0.98c-5.45,0.37-11.04,0.49-16.39-0.77
			c-6.83-1.62-13.43-5.11-17.1-10.86c-2.71-4.41-3.22-9.37-4.57-14.18c-0.67-2.57-1.69-5.09-2.87-7.26
			c-2.46-4.63-6.17-9.58-7.49-14.62c-1.49-5.73,0.31-11.25,1.36-16.74c0.48-2.37,0.83-5.09,0.53-7.34c-0.28-2.58-1.2-5.65-1.03-8.12
			c0.02-0.29,0.03-0.38,0.03-0.38c0.03-0.29,0.04-0.38,0.04-0.38c0.04-0.29,0.06-0.39,0.06-0.39c0.05-0.29,0.07-0.39,0.07-0.39
			c0.07-0.3,0.09-0.39,0.09-0.39c0.09-0.33,0.13-0.46,0.13-0.46c0.08-0.27,0.13-0.4,0.13-0.4c1.05-3,3.04-5.53,4.96-7.6
			c2.99-3.15,6.38-5.67,10-7.35c-9.23-2.94-19.97-5.29-29.38-7.67c-5.46,0.59-12.13,1.31-17.56,1.67
			c-6.15,0.43-14.1,0.63-20.31,0.74c-17.97,0.24-39.47-0.15-57.45-0.88c-8.62-0.42-17.88-0.95-26.37-2.34
			c-3.47-0.57-7.04-1.31-10.4-2.38c-2.56-0.81-5.4-1.98-7.59-3.42c-0.36-0.24-0.53-0.37-0.53-0.37c-0.34-0.25-0.5-0.37-0.5-0.37
			c-0.32-0.25-0.47-0.38-0.47-0.38c-0.29-0.26-0.43-0.39-0.43-0.39c-0.33-0.33-0.39-0.39-0.39-0.39c-0.3-0.33-0.36-0.4-0.36-0.4
			c-0.27-0.33-0.31-0.4-0.31-0.4c-0.23-0.34-0.27-0.4-0.27-0.4c-0.19-0.34-0.23-0.41-0.23-0.41c-0.16-0.34-0.18-0.41-0.18-0.41
			c-0.12-0.34-0.13-0.38-0.13-0.38c-0.08-0.35-0.09-0.38-0.09-0.38c-0.04-0.35-0.05-0.38-0.05-0.38c0-0.35,0-0.38,0-0.38
			c0.04-0.35,0.04-0.38,0.04-0.38c0.08-0.35,0.09-0.38,0.09-0.38c0.12-0.35,0.14-0.4,0.14-0.4c0.16-0.33,0.18-0.38,0.18-0.38
			c0.19-0.33,0.23-0.38,0.23-0.38c0.2-0.29,0.27-0.38,0.27-0.38c0.23-0.29,0.3-0.38,0.3-0.38c0.25-0.29,0.34-0.39,0.34-0.39
			c1.05-1.11,1.92-1.77,2.91-2.57c2.69-2.07,6.65-4.88,8.76-7.37c0.57-0.65,0.98-1.21,1.28-1.65c0.19-0.29,0.28-0.43,0.28-0.43
			c0.17-0.29,0.26-0.43,0.26-0.43c0.16-0.29,0.24-0.44,0.24-0.44c2.82-5.39,1.67-11.7,3.49-17.17c0.1-0.26,0.15-0.39,0.15-0.39
			c0.11-0.25,0.16-0.38,0.16-0.38c0.17-0.37,0.24-0.49,0.24-0.49c0.19-0.34,0.25-0.45,0.25-0.45c0.19-0.31,0.25-0.41,0.25-0.41
			c0.2-0.29,0.27-0.39,0.27-0.39c0.22-0.28,0.29-0.38,0.29-0.38c0.31-0.37,0.39-0.46,0.39-0.46c0.33-0.35,0.42-0.44,0.42-0.44
			c0.35-0.34,0.53-0.5,0.53-0.5c2.23-1.98,4.92-3.33,7.4-4.82c0.73-0.44,1.82-1.14,2.4-1.59c0.36-0.28,0.51-0.4,0.51-0.4
			c0.29-0.25,0.43-0.37,0.43-0.37c0.28-0.25,0.41-0.38,0.41-0.38c0.26-0.26,0.38-0.39,0.38-0.39c0.24-0.27,0.36-0.4,0.36-0.4
			c0.23-0.27,0.34-0.41,0.34-0.41c0.26-0.35,0.31-0.43,0.31-0.43c0.24-0.36,0.28-0.44,0.28-0.44c0.18-0.3,0.22-0.38,0.22-0.38
			c0.16-0.31,0.2-0.38,0.2-0.38c0.15-0.31,0.18-0.39,0.18-0.39c0.13-0.32,0.16-0.4,0.16-0.4c0.11-0.33,0.14-0.41,0.14-0.41
			c0.1-0.34,0.12-0.42,0.12-0.42c0.08-0.35,0.1-0.43,0.1-0.43c0.07-0.35,0.08-0.44,0.08-0.44c0.05-0.36,0.06-0.45,0.06-0.45
			c0.03-0.37,0.04-0.47,0.04-0.47c0.01-0.28,0.02-0.38,0.02-0.38c0.04-1.99-0.41-3.69-0.99-5.38c-0.59-1.7-1.36-3.41-2.14-5.03
			c-2.92-6.09-7.3-12.95-9.31-19.41c-1.04-3.36-1.05-6.58-0.66-9.84c0.41-3.24,1.03-7.46,0.74-10.6c-0.27-4.03-1.48-9.27-2.23-13.25
			c-0.43-2.33-0.92-5.24-0.77-7.46c0.02-0.27,0.03-0.4,0.03-0.4c0.03-0.26,0.05-0.38,0.05-0.38c0.06-0.37,0.09-0.48,0.09-0.48
			c0.08-0.35,0.1-0.4,0.1-0.4c0.1-0.33,0.12-0.38,0.12-0.38c0.14-0.36,0.16-0.4,0.16-0.4c0.19-0.37,0.22-0.42,0.22-0.42
			c0.22-0.34,0.25-0.38,0.25-0.38c0.31-0.37,0.34-0.41,0.34-0.41c0.35-0.32,0.39-0.35,0.39-0.35c0.35-0.24,0.39-0.26,0.39-0.26
			c0.34-0.17,0.38-0.19,0.38-0.19c0.36-0.14,0.4-0.15,0.4-0.15c0.33-0.09,0.38-0.1,0.38-0.1c0.35-0.06,0.4-0.07,0.4-0.07
			c0.36-0.04,0.41-0.04,0.41-0.04c0.32-0.01,0.38-0.01,0.38-0.01c0.28,0.01,0.39,0.02,0.39,0.02c0.34,0.03,0.45,0.05,0.45,0.05
			c0.35,0.05,0.46,0.08,0.46,0.08c0.36,0.08,0.48,0.1,0.48,0.1c2.67,0.72,4.62,1.91,6.85,3.2c3.16,1.9,8.81,5.68,11.96,7.54
			c8.74,5.23,20.8,10.61,29.8,15.45c13.13,6.91,27.07,18.13,39.04,26.98c5.26,3.82,10.87,7.77,16.49,11.01
			c3.24,1.86,6.64,3.59,10.18,4.82c2.28,0.79,4.66,1.37,7.04,1.75c2.65,0.44,5.81,0.66,8.5,0.84l24.41-1l7.7-0.45
			c-4.56-0.52-9.16-1.33-13.5-2.85c-1.86-0.65-3.71-1.44-5.45-2.36c-1.82-0.92-4.17-2.49-5.58-3.61c-3.76-2.97-6.83-6.48-9.57-10.38
			c-2.96-4.26-5.42-8.9-7.19-13.78c-3.53-9.74-3.61-18.86,1.13-28.22c2.36-4.67,5.56-8.91,9.05-12.8
			c6.36-6.99,13.85-13.03,21.99-17.82c3.81-2.23,7.9-4.16,12.02-5.77c5.81-2.32,12.92-4.34,18.87-6.33l7.02-2.5
			c1.61-0.56,3.75-1.16,5.27-1.4c2.19-0.37,4.35-0.35,6.24-0.05c2.8,0.46,4.84,1.3,7.2,2.34c3.53,1.55,7.74,4.05,11.3,5.44
			c0.37,0.13,0.48,0.17,0.48,0.17c0.34,0.1,0.45,0.13,0.45,0.13c0.37,0.08,0.41,0.09,0.41,0.09c0.33,0.05,0.38,0.05,0.38,0.05
			c0.34,0.01,0.38,0.01,0.38,0.01c0.36-0.06,0.39-0.07,0.39-0.07c0.37-0.22,0.39-0.24,0.39-0.24c0.2-0.37,0.21-0.39,0.21-0.39
			c0.07-0.36,0.07-0.39,0.07-0.39c0.01-0.33,0.01-0.39,0.01-0.39c-0.02-0.33-0.03-0.4-0.03-0.4c-0.04-0.36-0.06-0.52-0.06-0.52
			c-0.21-1.31-0.62-2.95-0.74-3.93c-0.04-0.34-0.06-0.5-0.06-0.5c-0.03-0.32-0.03-0.4-0.03-0.4c-0.01-0.31-0.01-0.39-0.01-0.39
			c0.02-0.37,0.02-0.44,0.02-0.44c0.06-0.37,0.06-0.4,0.06-0.4c0.11-0.36,0.12-0.39,0.12-0.39c0.2-0.36,0.22-0.38,0.22-0.38
			c0.37-0.34,0.4-0.36,0.4-0.36c0.37-0.16,0.41-0.18,0.41-0.18c0.35-0.08,0.4-0.09,0.4-0.09c0.35-0.03,0.4-0.04,0.4-0.04
			c0.32,0,0.38,0,0.38,0c0.29,0.01,0.41,0.02,0.41,0.02c3.49,0.38,6.8,1.86,10.13,2.59c0.37,0.08,0.49,0.1,0.49,0.1
			c0.35,0.06,0.46,0.07,0.46,0.07c0.32,0.04,0.42,0.05,0.42,0.05c0.34,0.02,0.38,0.02,0.38,0.02c0.34-0.02,0.38-0.02,0.38-0.02
			c0.35-0.08,0.39-0.09,0.39-0.09c0.37-0.24,0.39-0.27,0.39-0.27c0.15-0.36,0.16-0.39,0.16-0.39c0-0.37,0-0.41,0-0.41
			c-0.07-0.36-0.08-0.4-0.08-0.4c-0.09-0.31-0.12-0.4-0.12-0.4c-0.11-0.29-0.15-0.39-0.15-0.39c-0.13-0.31-0.18-0.41-0.18-0.41
			c-1.22-2.62-3.33-5.5-4.63-8c-0.15-0.29-0.19-0.39-0.19-0.39c-0.16-0.36-0.2-0.44-0.2-0.44c-0.13-0.36-0.14-0.4-0.14-0.4
			c-0.09-0.37-0.09-0.4-0.09-0.4c0.02-0.36,0.03-0.38,0.03-0.38c0.36-0.27,0.39-0.28,0.39-0.28c0.36,0,0.4,0,0.4,0
			c0.36,0.07,0.41,0.08,0.41,0.08c0.31,0.09,0.42,0.12,0.42,0.12c2.45,0.84,6.23,2.99,8.54,4.12c1.6,0.8,3.81,1.89,5.39,2.35
			c0.25,0.07,0.38,0.1,0.38,0.1c0.35,0.07,0.41,0.08,0.41,0.08c0.37,0.05,0.41,0.05,0.41,0.05c0.36-0.01,0.4-0.01,0.4-0.01
			c0.35-0.1,0.38-0.12,0.38-0.12c0.32-0.37,0.33-0.4,0.33-0.4c0.07-0.36,0.07-0.39,0.07-0.39c-0.01-0.36-0.02-0.4-0.02-0.4
			c-0.05-0.33-0.07-0.42-0.07-0.42c-0.09-0.36-0.11-0.46-0.11-0.46c-0.72-2.41-2.12-4.92-2.91-7.22c-0.1-0.31-0.13-0.41-0.13-0.41
			c-0.08-0.29-0.11-0.39-0.11-0.39c-0.08-0.36-0.1-0.45-0.1-0.45c-0.05-0.36-0.05-0.4-0.05-0.4c0-0.35,0-0.38,0-0.38
			c0.09-0.37,0.1-0.39,0.1-0.39c0.35-0.33,0.38-0.34,0.38-0.34c0.35-0.07,0.4-0.08,0.4-0.08c0.34,0.01,0.4,0.01,0.4,0.01
			c0.34,0.05,0.4,0.06,0.4,0.06c0.31,0.07,0.38,0.09,0.38,0.09c0.27,0.08,0.41,0.12,0.41,0.12c2.38,0.81,4.08,1.79,6.17,2.85
			c2.52,1.31,6.72,3.74,9.29,4.68c0.26,0.09,0.38,0.13,0.38,0.13c0.35,0.1,0.4,0.11,0.4,0.11c0.35,0.07,0.4,0.07,0.4,0.07
			c0.37,0.01,0.4,0,0.4,0c0.36-0.17,0.37-0.19,0.37-0.19c0.11-0.37,0.11-0.4,0.11-0.4c-0.04-0.36-0.05-0.4-0.05-0.4
			c-0.1-0.35-0.13-0.44-0.13-0.44c-0.14-0.36-0.18-0.45-0.18-0.45c-1.35-2.95-3.32-5.57-4.73-8.4c-0.15-0.31-0.19-0.41-0.19-0.41
			c-0.13-0.29-0.16-0.38-0.16-0.38c-0.13-0.35-0.14-0.4-0.14-0.4c-0.1-0.35-0.1-0.39-0.1-0.39c-0.04-0.36-0.04-0.39-0.04-0.39
			c0.12-0.37,0.13-0.39,0.13-0.39c0.35-0.17,0.38-0.18,0.38-0.18c0.35-0.01,0.39,0,0.39,0c0.35,0.05,0.39,0.06,0.39,0.06
			c0.3,0.07,0.4,0.1,0.4,0.1c3.99,1.32,7.86,3.9,11.75,5.19c0.35,0.11,0.47,0.14,0.47,0.14c0.33,0.08,0.38,0.09,0.38,0.09
			c0.34,0.06,0.39,0.06,0.39,0.06c0.34,0.01,0.38,0.01,0.38,0.01c0.34-0.06,0.37-0.07,0.37-0.07c0.37-0.32,0.38-0.34,0.38-0.34
			c0.09-0.36,0.09-0.39,0.09-0.39c-0.01-0.36-0.01-0.39-0.01-0.39c-0.05-0.31-0.06-0.38-0.06-0.38c-0.07-0.3-0.09-0.38-0.09-0.38
			c-0.07-0.24-0.12-0.41-0.12-0.41c-0.6-1.79-1.48-3.48-2.05-5.1c-0.1-0.31-0.13-0.39-0.13-0.39c-0.1-0.36-0.12-0.43-0.12-0.43
			c-0.06-0.35-0.07-0.38-0.07-0.38c-0.01-0.37,0-0.39,0-0.39c0.16-0.36,0.17-0.37,0.17-0.37c0.35-0.14,0.39-0.14,0.39-0.14
			c0.33,0.02,0.38,0.03,0.38,0.03c0.36,0.08,0.41,0.1,0.41,0.1c0.29,0.1,0.42,0.14,0.42,0.14c0.26,0.1,0.39,0.16,0.39,0.16
			c3.07,1.38,6.88,3.99,9.74,5.71c1.87,1.14,4.36,2.69,6.27,3.48c0.28,0.11,0.41,0.16,0.41,0.16c0.32,0.11,0.38,0.13,0.38,0.13
			c0.35,0.09,0.4,0.1,0.4,0.1c0.35,0.05,0.39,0.05,0.39,0.05c0.36-0.03,0.39-0.04,0.39-0.04c0.36-0.32,0.37-0.33,0.37-0.33
			c0.08-0.36,0.08-0.39,0.08-0.39c-0.01-0.36-0.02-0.4-0.02-0.4c-0.05-0.31-0.06-0.39-0.06-0.39c-0.07-0.31-0.09-0.38-0.09-0.38
			c-0.09-0.33-0.15-0.5-0.15-0.5c-0.43-1.31-1.07-2.77-1.54-3.97c-0.14-0.36-0.27-0.72-0.27-0.72c-0.12-0.34-0.17-0.5-0.17-0.5
			c-0.09-0.31-0.11-0.39-0.11-0.39c-0.09-0.36-0.1-0.42-0.1-0.42c-0.05-0.37-0.05-0.4-0.05-0.4c0.02-0.37,0.03-0.39,0.03-0.39
			c0.36-0.36,0.39-0.37,0.39-0.37c0.36,0.01,0.4,0.01,0.4,0.01c0.37,0.09,0.42,0.11,0.42,0.11c0.32,0.12,0.38,0.14,0.38,0.14
			c0.36,0.16,0.48,0.21,0.48,0.21c2.72,1.36,6.21,3.92,8.74,5.57c1.74,1.15,4.1,2.7,5.85,3.48c0.27,0.11,0.4,0.17,0.4,0.17
			c0.37,0.13,0.43,0.15,0.43,0.15c0.33,0.09,0.39,0.1,0.39,0.1c0.34,0.05,0.39,0.06,0.39,0.06c0.36-0.02,0.4-0.03,0.4-0.03
			c0.37-0.24,0.38-0.26,0.38-0.26c0.15-0.35,0.16-0.37,0.16-0.37c0.05-0.35,0.05-0.38,0.05-0.38c0-0.34-0.01-0.41-0.01-0.41
			c-0.03-0.35-0.04-0.42-0.04-0.42c-0.03-0.22-0.06-0.38-0.06-0.38c-0.21-1.18-0.7-2.86-0.88-3.73c-0.07-0.32-0.09-0.48-0.09-0.48
			c-0.05-0.3-0.06-0.38-0.06-0.38c-0.04-0.35-0.04-0.42-0.04-0.42c-0.01-0.35-0.01-0.38-0.01-0.38c0.04-0.35,0.04-0.38,0.04-0.38
			c0.15-0.37,0.16-0.39,0.16-0.39c0.34-0.23,0.38-0.24,0.38-0.24c0.37-0.03,0.42-0.02,0.42-0.02c0.35,0.06,0.41,0.07,0.41,0.07
			c0.35,0.1,0.41,0.12,0.41,0.12c0.32,0.12,0.45,0.17,0.45,0.17c0.28,0.12,0.42,0.19,0.42,0.19c2.34,1.16,4.03,2.38,6.08,3.75
			c2.84,1.9,7.25,5.15,10.23,6.56c0.29,0.13,0.44,0.19,0.44,0.19c0.34,0.13,0.41,0.16,0.41,0.16c0.32,0.1,0.38,0.12,0.38,0.12
			c0.34,0.08,0.4,0.09,0.4,0.09c0.35,0.03,0.39,0.03,0.39,0.03c0.37-0.06,0.39-0.07,0.39-0.07c0.36-0.29,0.38-0.3,0.38-0.3
			c0.17-0.37,0.18-0.39,0.18-0.39c0.07-0.34,0.08-0.39,0.08-0.39c0.02-0.33,0.03-0.39,0.03-0.39c0-0.36-0.01-0.49-0.01-0.49
			c-0.06-1.01-0.34-2.58-0.42-3.33c-0.03-0.26-0.04-0.39-0.04-0.39c-0.02-0.37-0.02-0.43-0.02-0.43c0-0.34,0.01-0.39,0.01-0.39
			c0.04-0.35,0.05-0.37,0.05-0.37c0.11-0.36,0.12-0.39,0.12-0.39c0.28-0.36,0.3-0.38,0.3-0.38c0.35-0.17,0.38-0.18,0.38-0.18
			c0.34-0.04,0.37-0.04,0.37-0.04c0.35,0.02,0.39,0.03,0.39,0.03c0.35,0.07,0.39,0.08,0.39,0.08c0.28,0.08,0.38,0.12,0.38,0.12
			c0.3,0.11,0.41,0.16,0.41,0.16c0.32,0.14,0.44,0.19,0.44,0.19c0.34,0.17,0.46,0.23,0.46,0.23c3.02,1.69,5.12,3.55,7.57,5.71
			c3.52,3.18,6.86,6.81,9.97,10.4c1.93,2.22,9.5,11.44,11.45,13.3c0.33,0.32,0.43,0.41,0.43,0.41c0.3,0.27,0.4,0.35,0.4,0.35
			c0.36,0.28,0.4,0.31,0.4,0.31c0.35,0.23,0.38,0.24,0.38,0.24c0.35,0.13,0.37,0.14,0.37,0.14c0.36-0.11,0.38-0.13,0.38-0.13
			c0.12-0.36,0.13-0.38,0.13-0.38c0.01-0.37,0.01-0.4,0.01-0.4c-0.02-0.3-0.03-0.38-0.03-0.38c-0.13-1.06-0.26-1.56-0.46-2.46
			c-0.54-2.28-1.55-5.84-1.83-8.1c-0.03-0.31-0.04-0.4-0.04-0.4c-0.02-0.28-0.02-0.38-0.02-0.38c-0.01-0.34,0-0.43,0-0.43
			c0.03-0.37,0.04-0.41,0.04-0.41c0.09-0.36,0.1-0.39,0.1-0.39c0.25-0.36,0.27-0.37,0.27-0.37c0.35-0.14,0.38-0.14,0.38-0.14
			c0.37,0.02,0.4,0.03,0.4,0.03c0.36,0.11,0.39,0.13,0.39,0.13c0.36,0.17,0.4,0.19,0.4,0.19c0.32,0.18,0.4,0.24,0.4,0.24
			c0.34,0.23,0.42,0.29,0.42,0.29c1.6,1.22,2.6,2.33,3.79,3.67c1.31,1.5,2.57,3.16,3.71,4.79c1.86,2.66,3.57,5.63,5.11,8.49
			c0.93,1.72,4.07,7.96,5.09,9.5c0.23,0.35,0.29,0.42,0.29,0.42c0.26,0.34,0.29,0.37,0.29,0.37c0.37,0.36,0.39,0.37,0.39,0.37
			c0.37,0.09,0.38,0.08,0.38,0.08c0.26-0.36,0.27-0.38,0.27-0.38c0.1-0.37,0.11-0.43,0.11-0.43c0.04-0.25,0.06-0.38,0.06-0.38
			c0.21-2,0.13-4.48,0.31-6.42c0.04-0.36,0.06-0.54,0.06-0.54c0.05-0.34,0.07-0.5,0.07-0.5c0.06-0.31,0.07-0.38,0.07-0.38
			c0.09-0.35,0.11-0.41,0.11-0.41c0.13-0.35,0.14-0.38,0.14-0.38c0.22-0.37,0.24-0.39,0.24-0.39c0.35-0.23,0.38-0.23,0.38-0.23
			c0.37,0.01,0.4,0.01,0.4,0.01c0.36,0.14,0.39,0.16,0.39,0.16c0.36,0.24,0.4,0.26,0.4,0.26c0.32,0.26,0.39,0.33,0.39,0.33
			c0.3,0.29,0.38,0.37,0.38,0.37c1.44,1.57,2.22,2.82,3.3,4.47c1.61,2.53,3.26,5.51,4.67,8.17c1.54,2.92,3.07,6.01,4.27,9.09
			c0.95,2.41,1.73,4.97,2.37,7.48c12.52,4.36,25.15,9.62,36.89,15.77c9.69,5.07,19.07,10.99,27.32,18.2
			c4.17,3.63,8.16,7.68,11.76,11.87c5.3,6.07,14.14,18.43,19.06,24.98c5,6.58,10.43,13.05,16.69,18.45
			c5.21,4.62,13.47,10.55,18.91,14.96c2.72,2.22,5.4,4.61,7.76,7.2c2.12,2.33,4.09,4.86,5.76,7.53c1.32,2.11,2.65,4.68,3.25,6.97
			c0.08,0.32,0.1,0.42,0.1,0.42c0.06,0.31,0.08,0.41,0.08,0.41c0.05,0.3,0.06,0.4,0.06,0.4c0.03,0.29,0.04,0.39,0.04,0.39
			c0.02,0.29,0.03,0.38,0.03,0.38c0.01,0.28,0.01,0.37,0.01,0.37c-0.01,0.37-0.02,0.46-0.02,0.46c-0.04,0.36-0.05,0.45-0.05,0.45
			c-0.06,0.36-0.08,0.45-0.08,0.45c-0.08,0.36-0.11,0.44-0.11,0.44c-0.11,0.36-0.14,0.44-0.14,0.44c-0.13,0.36-0.16,0.45-0.16,0.45
			c-0.15,0.36-0.19,0.45-0.19,0.45c-1.3,2.74-3.92,5.87-5.6,8.29C655.77,412.16,655.29,412.86,655.06,413.21z"/>
	</g>
</g>
</svg>
