<?xml version="1.0" encoding="utf-8"?>
<!-- Generator: Adobe Illustrator 24.2.1, SVG Export Plug-In . SVG Version: 6.00 Build 0)  -->
<!DOCTYPE svg PUBLIC "-//W3C//DTD SVG 1.1//EN" "http://www.w3.org/Graphics/SVG/1.1/DTD/svg11.dtd" [
	<!ENTITY ns_extend "http://ns.adobe.com/Extensibility/1.0/">
	<!ENTITY ns_ai "http://ns.adobe.com/AdobeIllustrator/10.0/">
	<!ENTITY ns_graphs "http://ns.adobe.com/Graphs/1.0/">
	<!ENTITY ns_vars "http://ns.adobe.com/Variables/1.0/">
	<!ENTITY ns_imrep "http://ns.adobe.com/ImageReplacement/1.0/">
	<!ENTITY ns_sfw "http://ns.adobe.com/SaveForWeb/1.0/">
	<!ENTITY ns_custom "http://ns.adobe.com/GenericCustomNamespace/1.0/">
	<!ENTITY ns_adobe_xpath "http://ns.adobe.com/XPath/1.0/">
]>
<svg version="1.1" xmlns:x="&ns_extend;" xmlns:i="&ns_ai;" xmlns:graph="&ns_graphs;"
	 xmlns="http://www.w3.org/2000/svg" xmlns:xlink="http://www.w3.org/1999/xlink" x="0px" y="0px" width="750px" height="750px"
	 viewBox="0 0 750 750" style="enable-background:new 0 0 750 750;" xml:space="preserve">
<style type="text/css">
	.st0{fill:#FFFFFF;}
	.st1{fill:#FB8604;}
	.st2{fill:none;stroke:#FB8604;stroke-width:2;stroke-linecap:round;stroke-linejoin:round;stroke-miterlimit:10;}
	.st3{fill:none;stroke:#FB8604;stroke-width:3;stroke-linecap:round;stroke-linejoin:round;}
	.st4{fill:none;stroke:#FB8604;stroke-width:3;stroke-linecap:round;stroke-linejoin:round;stroke-dasharray:3.0088,5.0147;}
	.st5{fill:none;stroke:#FB8604;stroke-width:3;stroke-linecap:round;stroke-linejoin:round;stroke-dasharray:3.029,5.0484;}
	.st6{fill:none;stroke:#FB8604;stroke-width:3;stroke-linecap:round;stroke-linejoin:round;stroke-dasharray:2.8812,4.802;}
	.st7{fill:none;stroke:#FB8604;stroke-width:3;stroke-linecap:round;stroke-linejoin:round;stroke-dasharray:2.911,4.8516;}
	.st8{fill:none;stroke:#FB8604;stroke-width:3;stroke-linecap:round;stroke-linejoin:round;stroke-dasharray:2.9596,4.9327;}
	.st9{fill:none;stroke:#FB8604;stroke-width:3;stroke-linecap:round;stroke-linejoin:round;stroke-dasharray:3.1805,5.3008;}
	.st10{fill:none;stroke:#FB8604;stroke-width:3;stroke-linecap:round;stroke-linejoin:round;stroke-dasharray:2.9609,4.9348;}
	.st11{fill:none;stroke:#FB8604;stroke-width:3;stroke-linecap:round;stroke-linejoin:round;stroke-dasharray:3.0426,5.071;}
	.st12{fill:none;stroke:#FB8604;stroke-width:3;stroke-linecap:round;stroke-linejoin:round;stroke-dasharray:3.0043,5.0071;}
	.st13{fill:none;stroke:#FB8604;stroke-width:3;stroke-linecap:round;stroke-linejoin:round;stroke-dasharray:2.9724,4.954;}
	.st14{fill:none;stroke:#FB8604;stroke-width:3;stroke-linecap:round;stroke-linejoin:round;stroke-dasharray:2.9927,4.9878;}
	.st15{fill:none;stroke:#FB8604;stroke-width:3;stroke-linecap:round;stroke-linejoin:round;stroke-dasharray:3.0562,5.0937;}
	.st16{fill:none;stroke:#FB8604;stroke-width:3;stroke-linecap:round;stroke-linejoin:round;stroke-dasharray:2.6349,4.3916;}
	.st17{fill:none;stroke:#FB8604;stroke-width:3;stroke-linecap:round;stroke-linejoin:round;stroke-dasharray:2.7969,4.6614;}
	.st18{fill:none;stroke:#FB8604;stroke-width:3;stroke-linecap:round;stroke-linejoin:round;stroke-dasharray:2.9278,4.8796;}
	.st19{fill:none;stroke:#FB8604;stroke-width:3;stroke-linecap:round;stroke-linejoin:round;stroke-dasharray:3.0247,5.0412;}
	.st20{fill:none;stroke:#FB8604;stroke-width:3;stroke-linecap:round;stroke-linejoin:round;stroke-dasharray:3.108,5.18;}
	.st21{fill:none;stroke:#FB8604;stroke-width:3;stroke-linecap:round;stroke-linejoin:round;stroke-dasharray:2.857,4.7617;}
	.st22{fill:none;stroke:#FB8604;stroke-width:3;stroke-linecap:round;stroke-linejoin:round;stroke-dasharray:2.963,4.9383;}
	.st23{fill:none;stroke:#FB8604;stroke-width:3;stroke-linecap:round;stroke-linejoin:round;stroke-dasharray:2.9905,4.9841;}
	.st24{fill:none;stroke:#FB8604;stroke-width:2.75;stroke-linecap:round;stroke-linejoin:round;stroke-miterlimit:10;}
	.st25{fill:none;stroke:#FB8604;stroke-width:3.5;stroke-linecap:round;stroke-linejoin:round;stroke-miterlimit:10;}
</style>
<metadata>
	<sfw  xmlns="&ns_sfw;">
		<slices></slices>
		<sliceSourceBounds  bottomLeftOrigin="true" height="8109.25" width="3932" x="-2000" y="-1120"></sliceSourceBounds>
	</sfw>
</metadata>
<g id="FILL-BACKGROUND">
	<rect class="st0" width="750" height="750"/>
</g>
<g id="N-TEXT">
</g>
<g id="N-DIMENSIONS">
</g>
<g id="AG-DETAIL-DIAGRAM">
</g>
<g id="AG-DETAILS">
</g>
<g id="AG-ANIMALS">
	<g id="POLYLINE_313_">
		<path class="st24" d="M146.17,368.47c-3.69-0.27-7.41-0.92-10.83-2.38c-2.04-0.86-3.95-2.05-5.66-3.46
			c-1.85-1.52-3.54-3.29-5.1-5.09c-2.8-3.11-15.92-20.67-18.76-24.31c-3.86-4.94-8.23-10.38-12.41-15.04
			c-3.06-3.36-6.26-6.84-9.87-9.61c-0.79-0.59-1.63-1.17-2.53-1.6c-0.61-0.29-1.33-0.54-2-0.45c-0.03,0-0.06,0.01-0.06,0.01
			c-0.03,0.01-0.06,0.01-0.06,0.01c-0.03,0.01-0.06,0.01-0.06,0.01c-0.03,0.01-0.06,0.02-0.06,0.02c-0.03,0.01-0.06,0.02-0.06,0.02
			c-0.05,0.02-0.08,0.03-0.08,0.03c-0.05,0.02-0.08,0.04-0.08,0.04c-0.05,0.03-0.07,0.04-0.07,0.04c-0.04,0.03-0.06,0.04-0.06,0.04
			c-0.04,0.03-0.06,0.04-0.06,0.04c-0.04,0.03-0.06,0.04-0.06,0.04c-0.04,0.03-0.06,0.05-0.06,0.05c-0.05,0.05-0.07,0.07-0.07,0.07
			c-0.03,0.04-0.05,0.06-0.05,0.06c-0.03,0.04-0.05,0.06-0.05,0.06c-0.03,0.04-0.05,0.06-0.05,0.06c-0.03,0.04-0.05,0.07-0.05,0.07
			c-0.03,0.05-0.04,0.07-0.04,0.07c-0.03,0.05-0.04,0.07-0.04,0.07c-0.13,0.23-0.2,0.42-0.27,0.64c-0.11,0.38-0.18,0.77-0.22,1.16
			c-0.09,0.98-0.04,1.98,0.07,2.95c0.72,5.98,3.06,11.67,5.58,17.1c5.95,12.46,14.07,25.62,18.93,38.55
			c1.36,3.62,2.56,7.38,3.19,11.2c0.45,2.71,0.56,5.5,0.07,8.21c-0.46,2.67-1.49,5.22-2.79,7.58c-2.58,4.72-7.32,10.6-10.37,15.07
			c-1.78,2.59-3.53,5.35-4.91,8.18c-0.93,1.9-1.71,3.93-2.32,5.96c-1.68,5.57-2.34,11.68-3,17.45c-0.14,1.54-0.26,3.16-0.11,4.71
			c0.04,0.38,0.1,0.78,0.2,1.14c0.03,0.13,0.07,0.27,0.12,0.4c0,0,0.02,0.06,0.02,0.06s0.02,0.06,0.02,0.06s0.02,0.06,0.02,0.06
			s0.02,0.06,0.02,0.06s0.03,0.06,0.03,0.06c0.01,0.03,0.03,0.06,0.03,0.06c0.01,0.03,0.03,0.06,0.03,0.06
			c0.01,0.03,0.03,0.06,0.03,0.06c0.03,0.05,0.04,0.08,0.04,0.08c0.03,0.05,0.04,0.08,0.04,0.08c0.03,0.05,0.05,0.08,0.05,0.08
			c0.03,0.05,0.05,0.07,0.05,0.07c0.03,0.05,0.05,0.07,0.05,0.07c0.03,0.05,0.05,0.07,0.05,0.07c0.04,0.04,0.05,0.07,0.05,0.07
			c0.04,0.04,0.05,0.06,0.05,0.06c0.04,0.04,0.06,0.06,0.06,0.06c0.04,0.04,0.06,0.06,0.06,0.06c0.04,0.04,0.06,0.05,0.06,0.05
			c0.04,0.03,0.06,0.05,0.06,0.05c0.04,0.03,0.06,0.05,0.06,0.05c0.04,0.03,0.07,0.05,0.07,0.05c0.04,0.03,0.07,0.04,0.07,0.04
			c0.05,0.03,0.07,0.04,0.07,0.04c0.05,0.02,0.07,0.04,0.07,0.04c0.05,0.02,0.07,0.03,0.07,0.03c0.05,0.02,0.07,0.03,0.07,0.03
			c0.05,0.02,0.08,0.03,0.08,0.03c0.05,0.02,0.08,0.03,0.08,0.03c0.05,0.02,0.08,0.02,0.08,0.02c0.73,0.19,1.44,0.08,2.16-0.1
			c1.02-0.27,1.99-0.71,2.93-1.2c2.19-1.16,4.25-2.63,6.19-4.15c3.54-2.78,6.97-6.11,10.14-9.3c4.99-5.28,11.58-11.66,16.1-17.27
			c2.42-3.01,4.48-6.35,6.07-9.87c0,0,2.9-6.48,2.9-6.48c0.78-1.65,1.61-3.33,2.72-4.79c0.78-1.04,1.78-1.92,2.95-2.5
			c1.21-0.61,2.57-0.91,3.9-1.11c1.39-0.21,2.81-0.35,4.21-0.23"/>
	</g>
	<g id="POLYLINE_312_">
		<path class="st24" d="M119.36,372.8c17.84-2.22,35.88-5.86,53.25-10.47"/>
	</g>
	<g id="POLYLINE_311_">
		<path class="st24" d="M158.9,393.99c-13.23-0.74-26.37-3.6-38.87-7.95"/>
	</g>
	<g id="POLYLINE_310_">
		<path class="st24" d="M250.57,405.98c-5.74-1.26-11.7-1.53-17.55-1.25c-4.46,0.26-9.02,0.71-13.36,1.78
			c-3.09,0.78-6.11,1.95-8.76,3.74c-2.31,1.54-4.3,3.53-6,5.71c-2.63,3.36-4.69,7.18-6.5,11.04c-4.21,8.93-8.05,21.32-11.91,30.43
			c-0.66,1.51-1.38,3.1-2.22,4.51c-0.46,0.76-1.01,1.59-1.71,2.11c-0.15,0.11-0.29,0.19-0.41,0.24c-0.04,0.02-0.06,0.02-0.06,0.02
			c-0.04,0.01-0.06,0.02-0.06,0.02c-0.04,0.01-0.06,0.02-0.06,0.02c-0.04,0.01-0.06,0.02-0.06,0.02c-0.04,0.01-0.06,0.01-0.06,0.01
			c-0.04,0.01-0.06,0.01-0.06,0.01c-0.04,0.01-0.06,0.01-0.06,0.01c-0.04,0-0.06,0.01-0.06,0.01c-0.04,0-0.05,0-0.05,0
			c-0.05,0-0.07,0-0.07,0c-0.05,0-0.07,0-0.07,0c-0.05,0-0.07-0.01-0.07-0.01c-0.05-0.01-0.07-0.01-0.07-0.01
			c-0.05-0.01-0.07-0.02-0.07-0.02c-0.05-0.01-0.07-0.02-0.07-0.02c-0.05-0.02-0.07-0.02-0.07-0.02c-0.05-0.02-0.07-0.03-0.07-0.03
			c-0.05-0.02-0.07-0.03-0.07-0.03c-0.05-0.03-0.07-0.04-0.07-0.04c-0.05-0.03-0.06-0.04-0.06-0.04c-0.05-0.03-0.06-0.04-0.06-0.04
			c-0.05-0.04-0.06-0.05-0.06-0.05c-0.05-0.04-0.06-0.05-0.06-0.05c-0.55-0.5-0.83-1.12-1.12-1.77c-0.48-1.08-1.22-3.37-1.63-4.5
			c-0.83-2.35-1.96-4.65-3.14-6.84l-4.97-8.92c-3.02-5.72-5.84-11.68-7.39-17.98c-1.07-4.3-1.23-9.66-1.77-14.06
			c-0.48-4.04-1.88-8.78-2.16-12.85c-0.05-1.26-0.03-2.72,0.75-3.77c0.04-0.05,0.06-0.07,0.06-0.07c0.04-0.05,0.06-0.07,0.06-0.07
			c0.04-0.05,0.06-0.07,0.06-0.07c0.04-0.04,0.06-0.07,0.06-0.07c0.04-0.04,0.07-0.06,0.07-0.06c0.05-0.04,0.07-0.06,0.07-0.06
			c0.05-0.04,0.07-0.06,0.07-0.06c0.05-0.04,0.07-0.06,0.07-0.06c0.05-0.04,0.08-0.05,0.08-0.05c0.05-0.03,0.08-0.05,0.08-0.05
			c0.58-0.35,1.2-0.45,1.85-0.49c0.98-0.05,1.99,0.07,2.96,0.21c3.41,0.57,8.13,1.8,11.54,2.47c7.7,1.54,15.85,2.95,23.66,3.7
			c1.25,0.12,4.02,0.29,5.25,0.53c0.94,0.17,1.98,0.48,2.66,1.15c0.54,0.53,0.82,1.12,1.06,1.8c0.26,0.79,0.39,1.63,0.46,2.46"/>
	</g>
	<g id="POLYLINE_309_">
		<path class="st24" d="M280.73,411.08c4.84,0.63,12.25,1.56,17.06,1.97c5.24,0.42,17.03,1.24,22.07,1.88
			c5.63,0.66,11.84,1.68,17.43,2.71"/>
	</g>
	<g id="POLYLINE_308_">
		<path class="st24" d="M363.5,417.53l-3.13,0.5c-1.68,0.25-3.41,0.42-5.11,0.42c-1.54,0.01-3.13-0.15-4.66-0.37
			c-2.76-0.39-7.03-1.24-9.77-1.21c-0.78,0.01-1.57,0.08-2.33,0.28c-0.52,0.14-1.1,0.37-1.5,0.7c-0.05,0.04-0.07,0.06-0.07,0.06
			c-0.05,0.04-0.07,0.06-0.07,0.06c-0.04,0.04-0.06,0.06-0.06,0.06c-0.04,0.04-0.06,0.06-0.06,0.06c-0.04,0.04-0.06,0.06-0.06,0.06
			c-0.04,0.04-0.05,0.07-0.05,0.07c-0.03,0.05-0.05,0.07-0.05,0.07c-0.03,0.05-0.05,0.07-0.05,0.07c-0.03,0.05-0.04,0.07-0.04,0.07
			c-0.03,0.05-0.04,0.07-0.04,0.07c-0.02,0.05-0.04,0.07-0.04,0.07c-0.02,0.05-0.03,0.08-0.03,0.08c-0.02,0.05-0.03,0.08-0.03,0.08
			c-0.02,0.05-0.02,0.08-0.02,0.08c-0.01,0.05-0.02,0.08-0.02,0.08c-0.02,0.08-0.02,0.1-0.02,0.14c-0.01,0.05-0.01,0.07-0.01,0.07
			c0,0.04,0,0.07,0,0.07c0,0.05,0,0.07,0,0.07c0,0.05,0,0.07,0,0.07c0.04,0.7,0.33,1.26,0.64,1.85c0.5,0.93,1.59,2.48,2.18,3.39
			c0.88,1.32,1.74,2.72,2.42,4.15c0.78,1.62,1.43,3.37,1.99,5.09c1.67,5.09,2.88,11.11,5,16.03c0.96,2.2,2.18,4.32,3.62,6.25
			c1.51,2.04,3.29,3.91,5.21,5.57c1.45,1.23,3.06,2.41,4.95,2.81c2.88,0.62,5.6-1.16,7.69-2.95c2-1.74,3.73-3.8,5.28-5.95
			c2.33-3.25,4.3-6.81,6.04-10.4c3.18-6.63,5.68-13.67,7.05-20.91"/>
	</g>
	<g id="POLYLINE_307_">
		<path class="st24" d="M479.85,374.87c-0.11,1.85,0.01,3.74,0.55,5.52c0.26,0.85,0.66,1.72,1.19,2.43
			c0.51,0.67,1.06,1.14,1.74,1.55c1.91,1.1,4.18,1.32,6.34,1.36c3.27,0.02,6.59-0.46,9.81-1l12.69-2.39
			c26-3.98,74.23-8.1,99.98-12.52c9.34-1.43,21.74-4.41,31.08-5.87c4.27-0.65,8.68-0.98,13-0.99c5.51-0.09,13.29,0.39,18.66-0.62
			c1.9-0.37,3.97-1.01,5.27-2.51c0.7-0.8,1.09-1.7,1.23-2.72c0.12-0.9,0.03-1.81-0.21-2.68c-0.58-2.06-1.86-3.87-3.35-5.39
			c-2.11-2.1-4.76-3.71-7.66-4.41c-2.04-0.49-4.17-0.48-6.24-0.21c-2.98,0.4-5.94,1.32-8.78,2.28c0,0-8.45,2.98-8.45,2.98
			c-16.62,5.59-34.51,7.74-51.86,9.89c-14.99,1.75-30.49,2.72-45.57,2.14c-16.25-0.58-33.09-3.01-49.14-5.65l-42.26-7.54
			c-8.89-1.5-18.21-2.63-27.2-3.19c-24.73-1.56-58.55-1.51-83.57-1.67c-24.87,0.14-58.71,0.4-83.34,1.91
			c-5.97,0.2-12.19,0.25-17.84-1.95c-5.85-2.22-11.4-6.48-16.48-10.11c-2.67-1.94-5.91-4.15-8.26-6.45
			c-1.47-1.42-2.79-3.03-3.81-4.8c-2.58-4.47-3.86-9.98-7.03-14.11c-0.95-1.22-2.05-2.36-3.33-3.24c-0.74-0.5-1.65-1-2.54-0.97
			c-0.04,0-0.06,0-0.06,0c-0.04,0-0.06,0.01-0.06,0.01c-0.04,0.01-0.06,0.01-0.06,0.01c-0.04,0.01-0.06,0.01-0.06,0.01
			c-0.04,0.01-0.06,0.01-0.06,0.01c-0.04,0.01-0.06,0.02-0.06,0.02c-0.04,0.01-0.06,0.02-0.06,0.02c-0.04,0.01-0.06,0.02-0.06,0.02
			c-0.04,0.01-0.05,0.02-0.05,0.02c-0.05,0.03-0.07,0.04-0.07,0.04c-0.04,0.02-0.06,0.03-0.06,0.03c-0.04,0.02-0.06,0.04-0.06,0.04
			c-0.04,0.03-0.06,0.04-0.06,0.04c-0.04,0.03-0.06,0.04-0.06,0.04c-0.05,0.05-0.07,0.06-0.07,0.06c-0.05,0.05-0.07,0.07-0.07,0.07
			c-0.05,0.05-0.07,0.07-0.07,0.07c-0.03,0.04-0.05,0.06-0.05,0.06c-0.03,0.04-0.05,0.06-0.05,0.06c-0.27,0.39-0.4,0.76-0.53,1.18
			c-0.17,0.58-0.29,1.21-0.38,1.8c-0.42,2.69-0.75,5.58-1.66,8.14c-1.47,4.3-4.49,8.92-6.67,12.9c-1.23,2.26-2.41,4.61-3.01,7.13
			c-0.53,2.09-0.67,4.53-1.06,6.65c-0.17,0.89-0.42,1.78-0.84,2.59c-0.85,1.64-2.48,2.67-4.02,3.59c-2.06,1.19-4.63,2.54-6.44,4.06
			c-1.49,1.23-2.81,2.67-3.93,4.24c-0.7,0.99-1.34,2.03-1.79,3.16c-0.25,0.64-0.47,1.37-0.42,2.06c0,0.05,0.01,0.08,0.01,0.08
			c0.01,0.05,0.01,0.08,0.01,0.08c0.01,0.05,0.01,0.08,0.01,0.08c0.01,0.05,0.02,0.07,0.02,0.07c0.01,0.05,0.02,0.06,0.02,0.06
			c0.01,0.04,0.02,0.06,0.02,0.06c0.01,0.04,0.02,0.06,0.02,0.06c0.02,0.04,0.02,0.06,0.02,0.06c0.02,0.05,0.03,0.07,0.03,0.07
			c0.03,0.05,0.03,0.06,0.03,0.06c0.03,0.05,0.04,0.06,0.04,0.06c0.03,0.05,0.04,0.06,0.04,0.06c0.03,0.05,0.04,0.06,0.04,0.06
			c0.04,0.04,0.05,0.06,0.05,0.06c0.05,0.05,0.06,0.06,0.06,0.06c0.05,0.05,0.06,0.06,0.06,0.06c0.04,0.04,0.05,0.05,0.05,0.05
			c0.07,0.05,0.09,0.07,0.12,0.09c0.05,0.03,0.08,0.05,0.08,0.05c0.5,0.3,1.03,0.39,1.58,0.45c0.69,0.06,1.4,0.03,2.09-0.02
			c4.08-0.37,8.17-1.54,12.11-2.64c7.33-2.2,21.71-6.82,28.98-8.45c6.3-1.48,13.05-2.68,19.46-3.59"/>
	</g>
	<g id="POLYLINE_306_">
		<path class="st24" d="M410.48,364.2c-4.78,5.35-10.75,9.59-17.09,12.89c-4.11,2.1-8.49,3.87-13.05,4.65
			c-3.1,0.53-6.29,0.58-9.42,0.26c-8.08-0.85-16.48-3.76-24.65-3.74c-3.12,0.01-6.29,0.6-9.09,2.02c-0.79,0.41-1.56,0.88-2.22,1.47
			c-0.57,0.5-1.07,1.12-1.28,1.8c-0.02,0.05-0.02,0.08-0.02,0.08c-0.01,0.05-0.02,0.08-0.02,0.08c-0.01,0.05-0.02,0.08-0.02,0.08
			c-0.01,0.05-0.01,0.08-0.01,0.08c-0.01,0.05-0.01,0.08-0.01,0.08c0,0.05-0.01,0.08-0.01,0.08c0,0.05,0,0.07,0,0.07
			c0,0.05,0,0.07,0,0.07c0,0.05,0,0.07,0,0.07c0,0.05,0.01,0.07,0.01,0.07c0.01,0.05,0.01,0.07,0.01,0.07
			c0.01,0.05,0.01,0.07,0.01,0.07c0.01,0.05,0.01,0.07,0.01,0.07c0.01,0.05,0.02,0.07,0.02,0.07c0.13,0.52,0.45,0.98,0.78,1.33
			c0.43,0.46,0.85,0.77,1.34,1.11c1.15,0.77,2.43,1.38,3.69,1.94c3.03,1.32,7.56,2.84,10.61,4.11c2.88,1.22,5.81,2.58,8.12,4.73
			c0.85,0.8,1.58,1.73,2.11,2.76c0.75,1.44,1.17,3.05,1.46,4.64c0.42,2.14,0.56,4.68,1.31,6.73c0.37,1,0.96,1.93,1.71,2.69
			c0.96,0.99,2.16,1.72,3.37,2.36c2.59,1.35,5.45,2.45,8.2,3.45c5.31,1.89,10.92,3.53,16.38,4.94c7.53,1.91,15.27,3.68,23.08,3.65
			c4.2,0,8.41-0.53,12.48-1.56c4.03-1.01,7.96-2.53,11.74-4.25c8.71-4,17.09-9.24,25.1-14.5c9.37-6.21,23.13-16.33,33.05-21.27
			c5.05-2.54,10.44-4.51,15.88-6.03"/>
	</g>
	<g id="POLYLINE_305_">
		<path class="st24" d="M284.82,404.26c-0.54-0.62-1.19-1.14-1.89-1.58c-0.86-0.53-1.79-0.95-2.76-1.23
			c-1.66-0.51-3.42-0.54-5.13-0.32c-2.23,0.27-5.35,1.14-7.56,1.66c-1.09,0.25-2.41,0.51-3.52,0.7c-3.65,0.6-9.14,1.38-12.66,2.29
			c-3.16,0.78-6.39,1.84-9.45,2.95c-2.93,1.08-5.96,2.29-8.78,3.64c-0.64,0.31-1.39,0.66-1.92,1.1c-0.06,0.05-0.1,0.09-0.12,0.1
			c-0.05,0.05-0.07,0.07-0.07,0.07c-0.05,0.05-0.07,0.07-0.07,0.07c-0.05,0.05-0.06,0.07-0.06,0.07c-0.03,0.04-0.04,0.06-0.04,0.06
			c-0.03,0.04-0.04,0.06-0.04,0.06c-0.02,0.04-0.04,0.06-0.04,0.06c-0.02,0.04-0.03,0.06-0.03,0.06c-0.02,0.04-0.03,0.06-0.03,0.06
			c-0.02,0.04-0.03,0.06-0.03,0.06c-0.02,0.04-0.03,0.06-0.03,0.06c-0.02,0.04-0.02,0.06-0.02,0.06c-0.01,0.04-0.02,0.06-0.02,0.06
			c-0.01,0.04-0.02,0.07-0.02,0.07c-0.01,0.04-0.01,0.07-0.01,0.07c-0.01,0.05-0.01,0.07-0.01,0.07c-0.01,0.05-0.01,0.07-0.01,0.07
			c0,0.05,0,0.07,0,0.07c0,0.05,0,0.07,0,0.07c0,0.05,0,0.08,0,0.08c0,0.05,0,0.08,0,0.08c0.03,0.43,0.15,0.74,0.29,1.11
			c0.17,0.42,0.39,0.83,0.62,1.22c0.69,1.17,1.55,2.26,2.46,3.27c1.92,2.09,4.17,4.13,7.01,4.79c1.75,0.41,3.57,0.24,5.31-0.11
			c3.26-0.66,6.75-2.04,9.87-3.2c7.7-2.93,15.71-6.02,22.97-9.93c1.57-0.87,3.17-1.81,4.57-2.95c0.84-0.71,1.82-1.59,2-2.71
			c0.01-0.05,0.01-0.07,0.01-0.07c0-0.05,0.01-0.07,0.01-0.07c0-0.05,0-0.07,0-0.07c0-0.05,0-0.07,0-0.07c0-0.05,0-0.07,0-0.07
			C285.6,405.33,285.23,404.75,284.82,404.26z"/>
	</g>
</g>
<g id="AG-OUTLINE">
	<g id="POLYLINE_42_">
		<path class="st25" d="M146.15,368.47c-3.68-0.27-7.4-0.92-10.81-2.38c-2.04-0.86-3.95-2.05-5.66-3.45
			c-1.85-1.52-3.54-3.29-5.1-5.09c-2.8-3.11-15.92-20.67-18.76-24.31c-3.86-4.94-8.23-10.38-12.41-15.04
			c-3.06-3.36-6.26-6.84-9.87-9.61c-0.79-0.59-1.63-1.17-2.53-1.6c-0.61-0.29-1.33-0.54-2-0.45c-0.03,0-0.06,0.01-0.06,0.01
			c-0.03,0.01-0.06,0.01-0.06,0.01c-0.03,0.01-0.06,0.01-0.06,0.01c-0.03,0.01-0.06,0.02-0.06,0.02c-0.03,0.01-0.06,0.02-0.06,0.02
			c-0.05,0.02-0.08,0.03-0.08,0.03c-0.05,0.02-0.08,0.04-0.08,0.04c-0.05,0.03-0.07,0.04-0.07,0.04c-0.04,0.03-0.06,0.04-0.06,0.04
			c-0.04,0.03-0.06,0.04-0.06,0.04c-0.04,0.03-0.06,0.04-0.06,0.04c-0.04,0.03-0.06,0.05-0.06,0.05c-0.05,0.05-0.07,0.07-0.07,0.07
			c-0.03,0.04-0.05,0.06-0.05,0.06c-0.03,0.04-0.05,0.06-0.05,0.06c-0.03,0.04-0.05,0.06-0.05,0.06c-0.03,0.04-0.05,0.07-0.05,0.07
			c-0.03,0.05-0.04,0.07-0.04,0.07c-0.03,0.05-0.04,0.07-0.04,0.07c-0.13,0.23-0.2,0.42-0.27,0.64c-0.11,0.38-0.18,0.77-0.22,1.16
			c-0.09,0.98-0.04,1.98,0.07,2.95c0.72,5.98,3.06,11.67,5.58,17.1c5.95,12.46,14.07,25.62,18.93,38.55
			c1.36,3.62,2.56,7.38,3.19,11.2c0.45,2.71,0.56,5.5,0.07,8.21c-0.46,2.67-1.49,5.22-2.79,7.58c-2.58,4.72-7.32,10.6-10.37,15.07
			c-1.78,2.59-3.53,5.35-4.91,8.18c-0.93,1.9-1.71,3.93-2.32,5.96c-1.68,5.57-2.34,11.68-3,17.45c-0.14,1.54-0.26,3.16-0.11,4.71
			c0.04,0.38,0.1,0.78,0.2,1.14c0.03,0.13,0.07,0.27,0.12,0.4c0,0,0.02,0.06,0.02,0.06s0.02,0.06,0.02,0.06s0.02,0.06,0.02,0.06
			s0.02,0.06,0.02,0.06s0.03,0.06,0.03,0.06c0.01,0.03,0.03,0.06,0.03,0.06c0.01,0.03,0.03,0.06,0.03,0.06
			c0.01,0.03,0.03,0.06,0.03,0.06c0.03,0.05,0.04,0.08,0.04,0.08c0.03,0.05,0.04,0.08,0.04,0.08c0.03,0.05,0.05,0.08,0.05,0.08
			c0.03,0.05,0.05,0.07,0.05,0.07c0.03,0.05,0.05,0.07,0.05,0.07c0.03,0.05,0.05,0.07,0.05,0.07c0.04,0.04,0.05,0.07,0.05,0.07
			c0.04,0.04,0.05,0.06,0.05,0.06c0.04,0.04,0.06,0.06,0.06,0.06c0.04,0.04,0.06,0.06,0.06,0.06c0.04,0.04,0.06,0.05,0.06,0.05
			c0.04,0.03,0.06,0.05,0.06,0.05c0.04,0.03,0.06,0.05,0.06,0.05c0.04,0.03,0.07,0.05,0.07,0.05c0.04,0.03,0.07,0.04,0.07,0.04
			c0.05,0.03,0.07,0.04,0.07,0.04c0.05,0.02,0.07,0.04,0.07,0.04c0.05,0.02,0.07,0.03,0.07,0.03c0.05,0.02,0.07,0.03,0.07,0.03
			c0.05,0.02,0.08,0.03,0.08,0.03c0.05,0.02,0.08,0.03,0.08,0.03c0.05,0.02,0.08,0.02,0.08,0.02c0.73,0.19,1.44,0.08,2.16-0.1
			c1.02-0.27,1.99-0.71,2.93-1.2c2.19-1.16,4.25-2.63,6.19-4.15c3.54-2.78,6.97-6.11,10.14-9.3c4.99-5.28,11.58-11.66,16.1-17.27
			c2.42-3.01,4.48-6.35,6.07-9.87c0,0,2.9-6.48,2.9-6.48c0.78-1.65,1.61-3.33,2.72-4.79c0.78-1.04,1.78-1.92,2.95-2.5
			c1.21-0.61,2.57-0.91,3.9-1.11c1.39-0.21,2.81-0.35,4.21-0.23c4.89,0.86,10.06,1.42,15.01,1.72c-0.25,0.56-0.34,1.13-0.39,1.73
			c-0.06,0.81-0.01,1.64,0.07,2.44c0.21,2.14,1.11,6.19,1.52,8.35c0.33,1.73,0.6,3.58,0.78,5.33c0.37,3.97,0.68,8.97,1.71,12.8
			c1.58,6.08,4.31,11.86,7.24,17.4l4.97,8.92c1.19,2.19,2.31,4.49,3.14,6.84c0.41,1.15,1.15,3.42,1.63,4.5
			c0.26,0.58,0.58,1.22,1.01,1.66c0.04,0.04,0.06,0.05,0.06,0.05c0.04,0.04,0.06,0.05,0.06,0.05c0.05,0.04,0.06,0.05,0.06,0.05
			c0.05,0.04,0.06,0.05,0.06,0.05c0.05,0.03,0.06,0.04,0.06,0.04c0.05,0.03,0.06,0.04,0.06,0.04c0.05,0.03,0.07,0.04,0.07,0.04
			c0.05,0.02,0.07,0.03,0.07,0.03c0.05,0.02,0.07,0.03,0.07,0.03c0.05,0.02,0.07,0.02,0.07,0.02c0.05,0.01,0.07,0.02,0.07,0.02
			c0.05,0.01,0.07,0.02,0.07,0.02c0.05,0.01,0.07,0.01,0.07,0.01c0.05,0.01,0.07,0.01,0.07,0.01c0.05,0,0.07,0,0.07,0
			c0.05,0,0.07,0,0.07,0c0.04,0,0.05,0,0.05,0c0.04,0,0.06-0.01,0.06-0.01c0.04-0.01,0.06-0.01,0.06-0.01
			c0.04-0.01,0.06-0.01,0.06-0.01c0.04-0.01,0.06-0.01,0.06-0.01c0.04-0.01,0.06-0.02,0.06-0.02c0.04-0.01,0.06-0.02,0.06-0.02
			c0.04-0.01,0.06-0.02,0.06-0.02c0.8-0.35,1.29-1.06,1.76-1.72c0.66-0.98,1.21-2.07,1.72-3.13c4.61-10.13,8.39-23.32,13.23-33.32
			c3.03-6.23,6.77-12.6,12.8-16.34c4.71-2.92,10.28-3.98,15.71-4.6c7.72-0.85,15.64-0.88,23.26,0.78c-4.9,1.3-9.78,3.06-14.45,5.03
			c-1.08,0.46-2.35,1.03-3.4,1.55c-0.52,0.26-1.14,0.57-1.57,0.93c-0.06,0.05-0.1,0.09-0.12,0.1c-0.05,0.05-0.07,0.07-0.07,0.07
			c-0.05,0.05-0.07,0.07-0.07,0.07c-0.05,0.05-0.06,0.07-0.06,0.07c-0.03,0.04-0.04,0.06-0.04,0.06c-0.03,0.04-0.04,0.06-0.04,0.06
			c-0.02,0.04-0.04,0.06-0.04,0.06c-0.02,0.04-0.03,0.06-0.03,0.06c-0.02,0.04-0.03,0.06-0.03,0.06c-0.02,0.04-0.03,0.06-0.03,0.06
			c-0.02,0.04-0.03,0.06-0.03,0.06c-0.02,0.04-0.02,0.06-0.02,0.06c-0.01,0.04-0.02,0.06-0.02,0.06c-0.01,0.04-0.02,0.07-0.02,0.07
			c-0.01,0.04-0.01,0.07-0.01,0.07c-0.01,0.05-0.01,0.07-0.01,0.07c-0.01,0.05-0.01,0.07-0.01,0.07c0,0.05,0,0.07,0,0.07
			c0,0.05,0,0.07,0,0.07c0,0.05,0,0.08,0,0.08c0,0.05,0,0.08,0,0.08c0.09,0.85,0.5,1.61,0.91,2.33c0.69,1.17,1.55,2.26,2.46,3.27
			c1.92,2.09,4.17,4.13,7.01,4.79c1.3,0.3,2.65,0.29,3.97,0.11c1.67-0.22,3.34-0.68,4.95-1.18c5.28-1.76,11.09-4.08,16.26-6.15
			c4.93-2.07,10.06-4.28,14.67-7c4.84,0.63,12.25,1.56,17.06,1.97c5.24,0.42,17.03,1.24,22.07,1.88c5.63,0.66,11.84,1.68,17.43,2.71
			c-0.16,0.1-0.28,0.19-0.37,0.27c-0.04,0.04-0.07,0.06-0.07,0.06c-0.04,0.04-0.06,0.06-0.06,0.06c-0.04,0.04-0.06,0.06-0.06,0.06
			c-0.04,0.04-0.06,0.06-0.06,0.06c-0.04,0.04-0.05,0.06-0.05,0.06c-0.03,0.04-0.05,0.07-0.05,0.07c-0.03,0.04-0.05,0.07-0.05,0.07
			c-0.03,0.05-0.04,0.07-0.04,0.07c-0.03,0.05-0.04,0.07-0.04,0.07c-0.02,0.05-0.03,0.07-0.03,0.07c-0.02,0.05-0.03,0.07-0.03,0.07
			c-0.02,0.05-0.03,0.07-0.03,0.07c-0.02,0.05-0.02,0.08-0.02,0.08c-0.01,0.05-0.02,0.08-0.02,0.08c-0.01,0.05-0.02,0.08-0.02,0.08
			c-0.01,0.05-0.01,0.08-0.01,0.08c-0.01,0.05-0.01,0.07-0.01,0.07c0,0.04,0,0.07,0,0.07c0,0.05,0,0.07,0,0.07c0,0.05,0,0.07,0,0.07
			c0.04,0.7,0.33,1.26,0.64,1.85c0.5,0.93,1.59,2.48,2.18,3.39c0.88,1.32,1.74,2.72,2.42,4.15c0.78,1.62,1.43,3.37,1.99,5.09
			c1.67,5.09,2.88,11.11,5,16.03c0.96,2.2,2.18,4.32,3.62,6.25c1.51,2.04,3.29,3.91,5.21,5.57c1.45,1.23,3.06,2.41,4.95,2.81
			c2.88,0.62,5.6-1.16,7.69-2.95c2-1.74,3.73-3.8,5.28-5.95c2.33-3.25,4.3-6.81,6.04-10.4c3.18-6.63,5.68-13.67,7.05-20.91
			c10.18,2.73,20.7,5.5,31.33,4.67c3.51-0.27,7.03-0.92,10.41-1.89c3.68-1.06,7.3-2.53,10.77-4.15c8.39-3.95,16.52-9.02,24.26-14.11
			c8.01-5.33,21.65-15.11,29.93-19.63c4.6-2.55,9.52-4.68,14.51-6.31c3.42-0.64,7.51-1.26,10.96-1.72
			c19.42-2.47,68-7.47,86.87-10.51c4.39-0.67,10.41-1.7,14.78-2.54c4.9-0.97,16.28-3.41,21.09-4.09c4.27-0.65,8.68-0.98,13-0.99
			c5.51-0.09,13.29,0.39,18.66-0.62c1.9-0.37,3.97-1.01,5.27-2.51c0.7-0.8,1.09-1.7,1.23-2.72c0.12-0.9,0.03-1.81-0.21-2.68
			c-0.58-2.06-1.86-3.87-3.35-5.39c-2.11-2.1-4.76-3.71-7.66-4.41c-2.04-0.49-4.17-0.48-6.24-0.21c-2.98,0.4-5.94,1.32-8.78,2.28
			c0,0-8.45,2.98-8.45,2.98c-16.62,5.59-34.51,7.74-51.86,9.89c-14.99,1.75-30.49,2.72-45.57,2.14
			c-16.25-0.58-33.09-3.01-49.14-5.65l-42.26-7.54c-8.89-1.5-18.21-2.63-27.2-3.19c-24.73-1.56-58.55-1.51-83.57-1.67
			c-24.87,0.14-58.71,0.4-83.34,1.91c-5.97,0.2-12.19,0.25-17.84-1.95c-5.85-2.22-11.4-6.48-16.48-10.11
			c-2.67-1.94-5.91-4.15-8.26-6.45c-1.47-1.42-2.79-3.03-3.81-4.8c-2.58-4.47-3.86-9.98-7.03-14.11c-0.95-1.22-2.05-2.36-3.33-3.24
			c-0.74-0.5-1.65-1-2.54-0.97c-0.04,0-0.06,0-0.06,0c-0.04,0-0.06,0.01-0.06,0.01c-0.04,0.01-0.06,0.01-0.06,0.01
			c-0.04,0.01-0.06,0.01-0.06,0.01c-0.04,0.01-0.06,0.01-0.06,0.01c-0.04,0.01-0.06,0.02-0.06,0.02c-0.04,0.01-0.06,0.02-0.06,0.02
			c-0.04,0.01-0.06,0.02-0.06,0.02c-0.04,0.01-0.05,0.02-0.05,0.02c-0.05,0.03-0.07,0.04-0.07,0.04c-0.04,0.02-0.06,0.03-0.06,0.03
			c-0.04,0.02-0.06,0.04-0.06,0.04c-0.04,0.03-0.06,0.04-0.06,0.04c-0.04,0.03-0.06,0.04-0.06,0.04c-0.05,0.05-0.07,0.06-0.07,0.06
			c-0.05,0.05-0.07,0.07-0.07,0.07c-0.05,0.05-0.07,0.07-0.07,0.07c-0.03,0.04-0.05,0.06-0.05,0.06c-0.03,0.04-0.05,0.06-0.05,0.06
			c-0.27,0.39-0.4,0.76-0.53,1.18c-0.17,0.58-0.29,1.21-0.38,1.8c-0.42,2.69-0.75,5.58-1.66,8.14c-1.47,4.3-4.49,8.92-6.67,12.9
			c-1.23,2.26-2.41,4.61-3.01,7.13c-0.53,2.09-0.67,4.53-1.06,6.65c-0.17,0.89-0.42,1.78-0.84,2.59c-0.85,1.64-2.48,2.67-4.02,3.59
			c-2.06,1.19-4.63,2.54-6.44,4.06c-1.47,1.22-2.77,2.64-3.89,4.18c-0.7,0.98-1.34,2.02-1.8,3.13c-0.27,0.67-0.51,1.42-0.46,2.14
			c0,0.05,0.01,0.08,0.01,0.08c0.01,0.05,0.01,0.08,0.01,0.08c0.01,0.05,0.01,0.08,0.01,0.08
			C164.38,364.63,154.58,366.73,146.15,368.47z"/>
	</g>
</g>
</svg>
