<?xml version="1.0" encoding="utf-8"?>
<!-- Generator: Adobe Illustrator 24.2.1, SVG Export Plug-In . SVG Version: 6.00 Build 0)  -->
<!DOCTYPE svg PUBLIC "-//W3C//DTD SVG 1.1//EN" "http://www.w3.org/Graphics/SVG/1.1/DTD/svg11.dtd" [
	<!ENTITY ns_extend "http://ns.adobe.com/Extensibility/1.0/">
	<!ENTITY ns_ai "http://ns.adobe.com/AdobeIllustrator/10.0/">
	<!ENTITY ns_graphs "http://ns.adobe.com/Graphs/1.0/">
	<!ENTITY ns_vars "http://ns.adobe.com/Variables/1.0/">
	<!ENTITY ns_imrep "http://ns.adobe.com/ImageReplacement/1.0/">
	<!ENTITY ns_sfw "http://ns.adobe.com/SaveForWeb/1.0/">
	<!ENTITY ns_custom "http://ns.adobe.com/GenericCustomNamespace/1.0/">
	<!ENTITY ns_adobe_xpath "http://ns.adobe.com/XPath/1.0/">
]>
<svg version="1.1" xmlns:x="&ns_extend;" xmlns:i="&ns_ai;" xmlns:graph="&ns_graphs;"
	 xmlns="http://www.w3.org/2000/svg" xmlns:xlink="http://www.w3.org/1999/xlink" x="0px" y="0px" width="750px" height="750px"
	 viewBox="0 0 750 750" style="enable-background:new 0 0 750 750;" xml:space="preserve">
<style type="text/css">
	.st0{fill:#FFFFFF;}
	.st1{fill:#FB8604;}
	.st2{fill:none;stroke:#FB8604;stroke-width:2;stroke-linecap:round;stroke-linejoin:round;stroke-miterlimit:10;}
	.st3{fill:none;stroke:#FB8604;stroke-width:3;stroke-linecap:round;stroke-linejoin:round;}
	.st4{fill:none;stroke:#FB8604;stroke-width:3;stroke-linecap:round;stroke-linejoin:round;stroke-dasharray:3.0088,5.0147;}
	.st5{fill:none;stroke:#FB8604;stroke-width:3;stroke-linecap:round;stroke-linejoin:round;stroke-dasharray:3.029,5.0484;}
	.st6{fill:none;stroke:#FB8604;stroke-width:3;stroke-linecap:round;stroke-linejoin:round;stroke-dasharray:2.8812,4.802;}
	.st7{fill:none;stroke:#FB8604;stroke-width:3;stroke-linecap:round;stroke-linejoin:round;stroke-dasharray:2.911,4.8516;}
	.st8{fill:none;stroke:#FB8604;stroke-width:3;stroke-linecap:round;stroke-linejoin:round;stroke-dasharray:2.9596,4.9327;}
	.st9{fill:none;stroke:#FB8604;stroke-width:3;stroke-linecap:round;stroke-linejoin:round;stroke-dasharray:3.1805,5.3008;}
	.st10{fill:none;stroke:#FB8604;stroke-width:3;stroke-linecap:round;stroke-linejoin:round;stroke-dasharray:2.9609,4.9348;}
	.st11{fill:none;stroke:#FB8604;stroke-width:3;stroke-linecap:round;stroke-linejoin:round;stroke-dasharray:3.0426,5.071;}
	.st12{fill:none;stroke:#FB8604;stroke-width:3;stroke-linecap:round;stroke-linejoin:round;stroke-dasharray:3.0043,5.0071;}
	.st13{fill:none;stroke:#FB8604;stroke-width:3;stroke-linecap:round;stroke-linejoin:round;stroke-dasharray:2.9724,4.954;}
	.st14{fill:none;stroke:#FB8604;stroke-width:3;stroke-linecap:round;stroke-linejoin:round;stroke-dasharray:2.9927,4.9878;}
	.st15{fill:none;stroke:#FB8604;stroke-width:3;stroke-linecap:round;stroke-linejoin:round;stroke-dasharray:3.0562,5.0937;}
	.st16{fill:none;stroke:#FB8604;stroke-width:3;stroke-linecap:round;stroke-linejoin:round;stroke-dasharray:2.6349,4.3916;}
	.st17{fill:none;stroke:#FB8604;stroke-width:3;stroke-linecap:round;stroke-linejoin:round;stroke-dasharray:2.7969,4.6614;}
	.st18{fill:none;stroke:#FB8604;stroke-width:3;stroke-linecap:round;stroke-linejoin:round;stroke-dasharray:2.9278,4.8796;}
	.st19{fill:none;stroke:#FB8604;stroke-width:3;stroke-linecap:round;stroke-linejoin:round;stroke-dasharray:3.0247,5.0412;}
	.st20{fill:none;stroke:#FB8604;stroke-width:3;stroke-linecap:round;stroke-linejoin:round;stroke-dasharray:3.108,5.18;}
	.st21{fill:none;stroke:#FB8604;stroke-width:3;stroke-linecap:round;stroke-linejoin:round;stroke-dasharray:2.857,4.7617;}
	.st22{fill:none;stroke:#FB8604;stroke-width:3;stroke-linecap:round;stroke-linejoin:round;stroke-dasharray:2.963,4.9383;}
	.st23{fill:none;stroke:#FB8604;stroke-width:3;stroke-linecap:round;stroke-linejoin:round;stroke-dasharray:2.9905,4.9841;}
	.st24{fill:none;stroke:#FB8604;stroke-width:2.75;stroke-linecap:round;stroke-linejoin:round;stroke-miterlimit:10;}
	.st25{fill:none;stroke:#FB8604;stroke-width:3.5;stroke-linecap:round;stroke-linejoin:round;stroke-miterlimit:10;}
</style>
<metadata>
	<sfw  xmlns="&ns_sfw;">
		<slices></slices>
		<sliceSourceBounds  bottomLeftOrigin="true" height="8109.25" width="3932" x="-2000" y="-1120"></sliceSourceBounds>
	</sfw>
</metadata>
<g id="FILL-BACKGROUND">
	<rect class="st0" width="750" height="750"/>
</g>
<g id="N-TEXT">
</g>
<g id="N-DIMENSIONS">
</g>
<g id="AG-DETAIL-DIAGRAM">
</g>
<g id="AG-DETAILS">
</g>
<g id="AG-ANIMALS">
	<g id="POLYLINE_337_">
		<path class="st24" d="M433.19,297.31c0,0.1-0.01,0.12-0.01,0.12c-0.06,0.1-0.07,0.12-0.07,0.12c-0.1,0.1-0.12,0.12-0.12,0.12
			c-0.1,0.07-0.13,0.09-0.13,0.09c-0.1,0.06-0.13,0.07-0.13,0.07c-0.09,0.04-0.12,0.06-0.12,0.06c-1.36,0.57-2.8,0.79-4.23,1.07
			c-17.18,2.67-48.12,6.28-65.02,9.21c-1.44,0.21-3.11,0.48-4.48,0.03c-0.09-0.03-0.13-0.05-0.13-0.05
			c-0.09-0.03-0.13-0.05-0.13-0.05c-0.09-0.04-0.13-0.06-0.13-0.06c-0.08-0.04-0.13-0.06-0.13-0.06c-0.08-0.04-0.12-0.06-0.12-0.06
			c-0.08-0.05-0.12-0.07-0.12-0.07c-0.1-0.06-0.13-0.08-0.13-0.08c-0.09-0.06-0.12-0.08-0.12-0.08c-0.09-0.07-0.12-0.09-0.12-0.09
			c-0.09-0.07-0.12-0.09-0.12-0.09c-0.11-0.1-0.14-0.12-0.14-0.12c-0.11-0.1-0.16-0.16-0.16-0.16c-0.25-0.26-0.38-0.43-0.53-0.65
			c-0.06-0.1-0.08-0.13-0.08-0.13c-0.06-0.1-0.08-0.13-0.08-0.13c-0.06-0.1-0.07-0.13-0.07-0.13c-0.05-0.1-0.07-0.13-0.07-0.13
			c-0.05-0.1-0.06-0.14-0.06-0.14c-0.04-0.1-0.06-0.14-0.06-0.14c-0.04-0.1-0.05-0.14-0.05-0.14c-0.03-0.11-0.05-0.14-0.05-0.14
			c-0.03-0.11-0.04-0.14-0.04-0.14c-0.03-0.11-0.03-0.14-0.03-0.14c-0.02-0.11-0.03-0.14-0.03-0.14c-0.02-0.11-0.02-0.14-0.02-0.14
			c-0.01-0.11-0.01-0.14-0.01-0.14c0-0.11-0.01-0.14-0.01-0.14c0-0.11,0-0.14,0-0.14c0.01-0.11,0.01-0.14,0.01-0.14
			c0.01-0.11,0.02-0.14,0.02-0.14c0.02-0.11,0.03-0.14,0.03-0.14c0.02-0.11,0.03-0.14,0.03-0.14c0.03-0.1,0.04-0.14,0.04-0.14
			c0.04-0.11,0.06-0.15,0.06-0.15c0.05-0.11,0.07-0.15,0.07-0.15c0.06-0.11,0.07-0.15,0.07-0.15c0.06-0.11,0.08-0.15,0.08-0.15
			c0.61-1,1.57-1.85,2.04-2.89c0.04-0.09,0.06-0.13,0.06-0.13c0.04-0.09,0.05-0.13,0.05-0.13c0.03-0.09,0.05-0.14,0.05-0.14
			c0.03-0.09,0.04-0.14,0.04-0.14c0.02-0.09,0.04-0.14,0.04-0.14c0.02-0.1,0.03-0.14,0.03-0.14c0.02-0.1,0.02-0.15,0.02-0.15
			c0.01-0.1,0.02-0.15,0.02-0.15c0.01-0.1,0.01-0.15,0.01-0.15c0-0.1,0-0.16,0-0.16c0-0.11-0.01-0.16-0.01-0.16
			c-0.01-0.11-0.01-0.16-0.01-0.16c-0.01-0.11-0.02-0.14-0.02-0.14c-0.23-1.3-0.85-2.33-1.46-3.45c-1.01-1.81-2.62-4.06-3.05-6.09
			c-0.02-0.11-0.03-0.15-0.03-0.15c-0.02-0.11-0.02-0.15-0.02-0.15c-0.01-0.11-0.01-0.15-0.01-0.15c-0.01-0.11-0.01-0.14-0.01-0.14
			c0-0.11,0-0.14,0-0.14c0-0.1,0.01-0.14,0.01-0.14c0.01-0.1,0.01-0.14,0.01-0.14c0.02-0.11,0.02-0.13,0.02-0.13
			c0.02-0.1,0.03-0.13,0.03-0.13c0.03-0.1,0.03-0.13,0.03-0.13c0.03-0.1,0.04-0.12,0.04-0.12c0.04-0.1,0.05-0.12,0.05-0.12
			c0.04-0.1,0.05-0.12,0.05-0.12c0.05-0.09,0.06-0.12,0.06-0.12c0.07-0.11,0.08-0.14,0.08-0.14c0.07-0.11,0.09-0.13,0.09-0.13
			c0.08-0.11,0.1-0.13,0.1-0.13c0.09-0.1,0.13-0.15,0.13-0.15c0.08-0.08,0.12-0.12,0.12-0.12c0.08-0.08,0.12-0.12,0.12-0.12
			c0.09-0.08,0.13-0.11,0.13-0.11c0.09-0.07,0.14-0.11,0.14-0.11c0.1-0.07,0.15-0.11,0.15-0.11c0.73-0.5,1.37-0.76,2.17-1.04
			c0.92-0.31,1.9-0.53,2.86-0.71c3.68-0.66,7.49-0.76,11.22-0.55c11.93,0.6,26.13,5.11,37.71,8.1c2.31,0.58,5.79,1.44,8.09,1.92
			c2.81,0.61,9.21,1.77,12.05,2.4c0.93,0.22,1.97,0.45,2.84,0.83c0.11,0.05,0.13,0.06,0.13,0.06c0.09,0.05,0.12,0.06,0.12,0.06
			c0.1,0.06,0.12,0.07,0.12,0.07c0.11,0.09,0.12,0.1,0.12,0.1C433.15,297.22,433.16,297.23,433.19,297.31z"/>
	</g>
	<g id="POLYLINE_336_">
		<path class="st24" d="M592.89,349.81c-1.66,2.76-3.04,5.72-4.03,8.79c-1.04,3.22-1.66,6.59-1.95,9.96
			c-0.6,7.27,0.12,15.4,5.13,21.1c6.21,7.07,19.58,8.74,28.56,9.17c5.43,0.21,10.96,0.16,16.34-0.65
			c5.43-0.84,10.95-2.81,16.17-4.52c7.52-2.6,15.34-5.37,22.4-9.06c1.47-0.79,2.96-1.65,4.29-2.67c1.15-0.88,2.34-2.02,2.71-3.39
			c0.03-0.11,0.04-0.15,0.04-0.15c0.02-0.11,0.03-0.15,0.03-0.15c0.02-0.11,0.02-0.15,0.02-0.15c0.01-0.11,0.01-0.15,0.01-0.15
			c0-0.11,0-0.15,0-0.15c0-0.11,0-0.14,0-0.14c-0.01-0.11-0.01-0.14-0.01-0.14c-0.01-0.11-0.02-0.14-0.02-0.14
			c-0.02-0.11-0.02-0.14-0.02-0.14c-0.02-0.11-0.03-0.14-0.03-0.14c-0.03-0.1-0.04-0.14-0.04-0.14c-0.03-0.1-0.04-0.14-0.04-0.14
			c-0.04-0.1-0.05-0.14-0.05-0.14c-0.04-0.1-0.06-0.13-0.06-0.13c-0.05-0.1-0.06-0.13-0.06-0.13c-0.05-0.1-0.07-0.13-0.07-0.13
			c-0.06-0.1-0.08-0.13-0.08-0.13c-0.06-0.1-0.09-0.13-0.09-0.13c-0.07-0.1-0.09-0.13-0.09-0.13c-0.98-1.29-2.44-2.11-3.92-2.48
			c-0.99-0.23-1.95-0.14-2.85,0.03c-1.25,0.25-2.93,0.7-4.19,0.92c-1.87,0.35-3.9,0.56-5.79,0.73c-7.46,0.61-15.11,0.64-22.59,0.33"
			/>
	</g>
	<g id="POLYLINE_335_">
		<path class="st24" d="M356.22,305.28c-22.27,3.78-45.37,8.77-67.06,15.06c-25.28,7.27-65.7,20.48-91.08,26.66
			c-3.81,0.92-8.04,1.85-11.89,2.48c-4.69,0.77-9.5,1.1-14.24,0.87c-6.92-0.3-14.36-1.9-21.28-2.25c-2.94-0.14-5.93-0.11-8.82,0.49
			c-2.17,0.44-4.4,1.31-6.15,2.66c-1.5,1.15-2.55,2.51-3.47,4.1c-4.14,7.33-4.02,18.86-1.21,26.65c2.72,7.51,8.32,11.71,16,13.36
			c4.99,1.07,10.19,1.09,15.24,0.49c2.76-0.29,5.99-1.09,8.71-1.7c2.95-0.67,5.98-1.11,9-1.2c4.2-0.14,8.54,0.16,12.72,0.57
			c5.18,0.53,10.51,1.33,15.63,2.3c8.29,1.59,16.62,3.66,24.57,6.51c8.47,2.99,17.7,7.98,25.73,12.07
			c6.68,3.38,13.73,6.4,20.92,8.52c18.45,5.4,37.97,7.71,57.07,9.48"/>
	</g>
	<g id="POLYLINE_334_">
		<path class="st24" d="M624.08,374.21c0.09,1.46,0.33,2.92,0.79,4.31c0.37,1.15,1.04,2.45,1.89,3.27c0.1,0.09,0.15,0.14,0.15,0.14
			c0.1,0.09,0.15,0.13,0.15,0.13c0.1,0.09,0.15,0.13,0.15,0.13c0.11,0.08,0.16,0.12,0.16,0.12c1.11,0.81,2.48,1.09,3.76,1.1
			c1.57,0,3.08-0.39,4.5-1.04c2.89-1.33,4.86-3.91,6.62-6.46c1.17-1.71,2.85-4.31,4.13-5.9c1.32-1.66,2.81-3.24,4.42-4.63
			c2-1.72,4.24-3.18,6.64-4.29c2.09-0.97,4.33-1.62,6.57-2.14c2.1-0.49,4.93-1.02,7-1.61c1.22-0.35,2.58-0.83,3.57-1.58
			c0.11-0.08,0.14-0.11,0.14-0.11c0.1-0.09,0.13-0.12,0.13-0.12c0.1-0.09,0.13-0.12,0.13-0.12c0.09-0.09,0.12-0.12,0.12-0.12
			c0.09-0.09,0.11-0.12,0.11-0.12c0.08-0.09,0.11-0.13,0.11-0.13c0.08-0.1,0.1-0.13,0.1-0.13c0.07-0.1,0.1-0.13,0.1-0.13
			c0.07-0.1,0.09-0.13,0.09-0.13c0.06-0.1,0.08-0.14,0.08-0.14c0.06-0.1,0.08-0.14,0.08-0.14c0.05-0.1,0.07-0.14,0.07-0.14
			c0.05-0.11,0.06-0.14,0.06-0.14c0.04-0.11,0.06-0.14,0.06-0.14c0.04-0.11,0.05-0.14,0.05-0.14c0.04-0.11,0.05-0.14,0.05-0.14
			c0.03-0.11,0.04-0.15,0.04-0.15c0.03-0.11,0.03-0.15,0.03-0.15c0.02-0.11,0.03-0.15,0.03-0.15c0.02-0.11,0.02-0.15,0.02-0.15
			c0.01-0.11,0.02-0.15,0.02-0.15c0.01-0.11,0.01-0.15,0.01-0.15c0.01-0.11,0.01-0.15,0.01-0.15c0-0.11,0-0.15,0-0.15
			c0-0.11,0-0.15,0-0.15c-0.01-0.11-0.01-0.15-0.01-0.15c-0.01-0.11-0.02-0.15-0.02-0.15c-0.02-0.11-0.02-0.15-0.02-0.15
			c-0.02-0.11-0.03-0.15-0.03-0.15c-0.02-0.11-0.03-0.15-0.03-0.15c-0.03-0.11-0.04-0.14-0.04-0.14c-0.27-1-0.92-1.83-1.57-2.48
			c-0.79-0.77-1.5-1.28-2.35-1.85c-1.66-1.09-3.5-2.08-5.27-2.98c-12.21-6.05-25.66-10.12-38.73-13.9
			c-19.38-5.2-51.93-14.24-71.32-19.16c-8.98-2.21-19.78-4.52-28.89-6.18c-31.1-5.59-63.18-8.42-94.77-7.61"/>
	</g>
	<g id="POLYLINE_333_">
		<path class="st24" d="M208.77,344.26c-1.39-0.58-3.09-1.71-4.4-2.46l-1.36-0.75c-0.27-0.15-0.48-0.29-0.65-0.41
			c-0.08-0.06-0.12-0.09-0.12-0.09c-0.11-0.09-0.13-0.11-0.13-0.11c-0.1-0.1-0.12-0.11-0.12-0.11c-0.09-0.1-0.1-0.12-0.1-0.12
			c-0.08-0.1-0.09-0.12-0.09-0.12c-0.07-0.11-0.07-0.13-0.07-0.13c-0.05-0.11-0.05-0.12-0.05-0.12c-0.03-0.11-0.04-0.12-0.04-0.12
			c-0.02-0.11-0.02-0.12-0.02-0.12c-0.01-0.11-0.01-0.12-0.01-0.12c0-0.1,0-0.12,0-0.12c0.01-0.1,0.01-0.12,0.01-0.12
			c0.02-0.11,0.02-0.12,0.02-0.12c0.03-0.11,0.03-0.13,0.03-0.13c0.03-0.09,0.04-0.13,0.04-0.13c0.03-0.08,0.04-0.11,0.04-0.11
			c0.03-0.08,0.05-0.12,0.05-0.12c0.58-1.15,1.4-1.93,2.24-2.8c1.25-1.24,2.76-2.58,4.08-3.75c1.61-1.39,3.3-2.75,5.16-3.8
			c1.33-0.75,2.81-1.34,4.32-1.51c2.08-0.25,4.17,0.17,6.14,0.82c2.09,0.68,4.22,1.76,6.34,2.36c1.35,0.4,2.77,0.61,4.18,0.7
			c3.11,0.2,7.56-0.04,10.7-0.1c1.25-0.02,2.56,0.01,3.8,0.13c1.18,0.1,3.08,0.42,4.27,0.6"/>
	</g>
	<g id="POLYLINE_332_">
		<path class="st24" d="M177.04,393.14c-3.5,2.19-7.15,4.32-10.92,6.01c-7.79,3.5-16.73,5.99-24.96,8.33
			c-11.04,2.99-52.22,14.5-60.21,6.59c-0.09-0.09-0.11-0.12-0.11-0.12c-0.08-0.09-0.11-0.12-0.11-0.12c-0.08-0.09-0.1-0.13-0.1-0.13
			c-0.07-0.1-0.1-0.13-0.1-0.13c-0.07-0.1-0.09-0.13-0.09-0.13c-0.06-0.1-0.09-0.13-0.09-0.13c-0.06-0.1-0.08-0.13-0.08-0.13
			c-0.06-0.1-0.07-0.14-0.07-0.14c-0.05-0.1-0.07-0.14-0.07-0.14c-0.05-0.11-0.06-0.14-0.06-0.14c-0.04-0.11-0.06-0.14-0.06-0.14
			c-0.04-0.11-0.05-0.15-0.05-0.15c-0.03-0.11-0.04-0.15-0.04-0.15c-0.03-0.11-0.04-0.15-0.04-0.15c-0.02-0.11-0.03-0.15-0.03-0.15
			c-0.28-1.57,0.44-2.91,1.15-4.22c0.85-1.5,1.98-3.19,2.73-4.73c0.83-1.62,1.32-3.4,1.62-5.19c0.43-2.48,0.66-5.43,1.2-7.88
			c0.31-1.41,0.73-2.81,1.33-4.13c1.19-2.69,3.54-5.89,5.16-8.37c1.2-1.87,2.37-3.83,2.92-6c0.35-1.37,0.35-2.81,0.16-4.12
			c-0.58-3.88-2.66-7.84-3.62-11.62c-0.5-1.93-0.78-3.96-0.96-5.94c-0.3-3.43-0.37-8.23-0.85-11.62c-0.32-2.45-0.99-5.22-1.14-7.69
			c-0.06-1.11,0.01-2.36,0.43-3.34c0.05-0.11,0.06-0.14,0.06-0.14c0.05-0.1,0.07-0.14,0.07-0.14c0.05-0.1,0.07-0.13,0.07-0.13
			c0.06-0.1,0.08-0.13,0.08-0.13c0.06-0.1,0.08-0.13,0.08-0.13c0.06-0.09,0.09-0.12,0.09-0.12c0.07-0.09,0.09-0.12,0.09-0.12
			c0.07-0.09,0.1-0.12,0.1-0.12c0.09-0.11,0.13-0.14,0.13-0.14c0.1-0.1,0.14-0.14,0.14-0.14c0.11-0.1,0.14-0.13,0.14-0.13
			c0.74-0.65,1.58-1,2.42-1.26c0.81-0.25,1.66-0.41,2.49-0.51c2.51-0.3,5.09-0.18,7.6,0.05c12.32,1.22,24.16,5.56,35.43,10.51
			c4.83,2.15,20.39,9.35,25.03,11.17c2,0.8,4.14,1.58,6.21,2.15c1.99,0.56,4.09,0.95,6.13,1.25c2.39,0.35,4.97,0.66,7.37,0.76"/>
	</g>
	<g id="POLYLINE_331_">
		<path class="st24" d="M237.4,404.07c-4,0.48-7.85,1.95-11.58,3.42c-2.58,1.06-5.33,2.38-6.98,4.71c-0.88,1.24-1.32,2.58-1.55,4
			c-0.21,1.34-0.2,2.73,0.03,4.07c0.27,1.63,0.92,3.37,1.92,4.63c0.97,1.25,2.27,2.11,3.64,2.68c2.28,0.93,4.79,1.12,7.23,1.01
			c5.96-0.32,12.78-2.62,18.63-3.77c3.78-0.81,7.7-1.11,11.56-1.07c2.6,0.02,7.73,0.28,10.25,0.03c1.42-0.13,2.84-0.44,4.2-0.84
			l2.46-0.75"/>
	</g>
	<g id="POLYLINE_330_">
		<path class="st24" d="M395.79,435.14c27.17,0.12,57.61-0.1,84.72-1.54c17.41-0.98,35.42-2.6,52.59-5.67
			c22.36-3.93,44.57-10.64,65.91-18.34"/>
	</g>
	<g id="POLYLINE_329_">
		<path class="st24" d="M379.86,425.6c-4.47-0.61-9.07-0.97-13.58-0.7c-6.12,0.36-12.22,1.66-18.11,3.31
			c-3.51,1.01-7.13,2.2-10.47,3.68c-1.54,0.7-3.18,1.51-4.45,2.63c-0.29,0.26-0.51,0.49-0.67,0.69c-0.08,0.09-0.11,0.14-0.11,0.14
			c-0.07,0.09-0.1,0.14-0.1,0.14c-0.07,0.1-0.1,0.14-0.1,0.14c-0.06,0.1-0.09,0.14-0.09,0.14c-0.05,0.1-0.08,0.15-0.08,0.15
			c-0.05,0.1-0.07,0.15-0.07,0.15c-0.04,0.1-0.06,0.15-0.06,0.15c-0.04,0.1-0.05,0.12-0.05,0.12c-0.03,0.1-0.04,0.13-0.04,0.13
			c-0.03,0.09-0.03,0.13-0.03,0.13c-0.02,0.08-0.03,0.11-0.03,0.11c-0.01,0.08-0.02,0.11-0.02,0.11c-0.01,0.08-0.02,0.12-0.02,0.12
			c-0.01,0.08-0.01,0.12-0.01,0.12c0,0.08-0.01,0.12-0.01,0.12c0,0.08,0,0.12,0,0.12c0,0.08,0,0.12,0,0.12
			c0.01,0.08,0.01,0.12,0.01,0.12c0.01,0.08,0.01,0.12,0.01,0.12c0.01,0.08,0.02,0.12,0.02,0.12c0.02,0.08,0.02,0.12,0.02,0.12
			c0.02,0.08,0.03,0.12,0.03,0.12c0.02,0.08,0.03,0.12,0.03,0.12c0.03,0.08,0.04,0.12,0.04,0.12c0.03,0.08,0.04,0.12,0.04,0.12
			c0.03,0.08,0.05,0.12,0.05,0.12c0.04,0.08,0.05,0.11,0.05,0.11c0.04,0.08,0.06,0.11,0.06,0.11c0.06,0.11,0.09,0.15,0.09,0.15
			c0.07,0.11,0.09,0.15,0.09,0.15c0.08,0.11,0.1,0.15,0.1,0.15c0.08,0.11,0.11,0.15,0.11,0.15c0.09,0.11,0.12,0.14,0.12,0.14
			c0.1,0.11,0.13,0.14,0.13,0.14c0.1,0.11,0.14,0.14,0.14,0.14c1.38,1.28,3.08,1.73,4.84,2.08c2.36,0.43,4.82,0.51,7.22,0.51
			c6.96-0.07,14.13-0.99,21.02-2c3.36-0.51,12.88-2.12,16.16-2.44c2.31-0.24,6.65-0.56,8.88-0.98c1.96-0.37,4.2-0.94,5.56-2.44
			c0.08-0.1,0.11-0.13,0.11-0.13c0.08-0.1,0.11-0.13,0.11-0.13c0.08-0.1,0.1-0.13,0.1-0.13c0.07-0.1,0.09-0.13,0.09-0.13
			c0.07-0.1,0.09-0.14,0.09-0.14c0.06-0.1,0.08-0.14,0.08-0.14c0.06-0.1,0.08-0.14,0.08-0.14c0.05-0.1,0.07-0.14,0.07-0.14
			c0.05-0.1,0.06-0.14,0.06-0.14c0.04-0.11,0.06-0.14,0.06-0.14c0.04-0.11,0.05-0.14,0.05-0.14c0.03-0.11,0.04-0.14,0.04-0.14
			c0.03-0.11,0.04-0.14,0.04-0.14c0.02-0.11,0.03-0.14,0.03-0.14c0.02-0.1,0.02-0.14,0.02-0.14c0.01-0.1,0.01-0.14,0.01-0.14
			c0.01-0.1,0.01-0.14,0.01-0.14c0-0.1,0-0.14,0-0.14c-0.01-0.1-0.01-0.14-0.01-0.14c-0.01-0.1-0.02-0.13-0.02-0.13
			c-0.02-0.1-0.02-0.13-0.02-0.13c-0.02-0.1-0.03-0.13-0.03-0.13c-0.03-0.1-0.04-0.13-0.04-0.13c-0.03-0.09-0.05-0.13-0.05-0.13
			c-0.04-0.09-0.05-0.12-0.05-0.12c-0.05-0.09-0.06-0.12-0.06-0.12c-0.06-0.1-0.08-0.13-0.08-0.13c-0.07-0.1-0.09-0.13-0.09-0.13
			c-0.07-0.09-0.1-0.12-0.1-0.12c-0.08-0.09-0.11-0.12-0.11-0.12c-0.09-0.09-0.12-0.12-0.12-0.12c-0.09-0.08-0.13-0.11-0.13-0.11
			c-0.1-0.08-0.13-0.11-0.13-0.11c-0.11-0.08-0.14-0.1-0.14-0.1c-1.31-0.89-2.88-1.22-4.34-1.34"/>
	</g>
	<g id="POLYLINE_328_">
		<path class="st24" d="M548.62,413.96c-2.76,1.04-5.65,1.99-8.51,2.75c-2.12,0.56-4.33,1.03-6.51,1.24c0,0-3.24,0.3-3.24,0.3
			c-1.25,0.13-2.53,0.33-3.75,0.63c-1.83,0.45-4.86,1.52-6.68,2.1c-1.52,0.48-3.11,0.94-4.68,1.19c-1.29,0.21-2.74,0.27-3.95-0.06
			c-1.94-0.53-3.34-1.88-4.57-3.36c-1.48-1.83-3.24-4.46-4.63-6.38c-0.73-1.07-1.48-2.2-2.06-3.37c-0.41-0.84-0.8-1.83-0.85-2.72
			c-0.01-0.1-0.01-0.14-0.01-0.14c0-0.1,0-0.13,0-0.13c0-0.1,0-0.13,0-0.13c0.01-0.1,0.01-0.13,0.01-0.13
			c0.01-0.1,0.01-0.13,0.01-0.13c0.01-0.1,0.02-0.13,0.02-0.13c0.02-0.09,0.02-0.13,0.02-0.13c0.02-0.09,0.03-0.12,0.03-0.12
			c0.03-0.09,0.04-0.12,0.04-0.12c0.03-0.09,0.04-0.12,0.04-0.12c0.04-0.1,0.06-0.14,0.06-0.14c0.05-0.1,0.06-0.13,0.06-0.13
			c0.05-0.1,0.07-0.13,0.07-0.13c0.06-0.1,0.08-0.13,0.08-0.13c0.06-0.09,0.09-0.12,0.09-0.12c0.07-0.09,0.09-0.12,0.09-0.12
			c0.08-0.09,0.1-0.12,0.1-0.12c0.08-0.09,0.11-0.12,0.11-0.12c0.09-0.09,0.12-0.11,0.12-0.11c0.09-0.08,0.12-0.11,0.12-0.11
			c0.65-0.57,1.46-0.94,2.17-1.23c0.81-0.32,1.67-0.57,2.52-0.78c2.77-0.67,5.86-1.02,8.69-1.36c12.35-1.44,25-2.04,37.35-0.44
			c2.24,0.3,4.54,0.69,6.71,1.29c1.4,0.4,2.98,0.93,4.12,1.79c0.11,0.09,0.15,0.12,0.15,0.12c0.1,0.09,0.14,0.12,0.14,0.12
			c0.1,0.09,0.13,0.12,0.13,0.12c0.09,0.09,0.12,0.12,0.12,0.12c0.08,0.09,0.11,0.13,0.11,0.13c0.07,0.09,0.09,0.12,0.09,0.12
			c0.07,0.11,0.09,0.14,0.09,0.14c0.05,0.09,0.06,0.12,0.06,0.12c0.04,0.09,0.06,0.12,0.06,0.12c0.04,0.09,0.05,0.12,0.05,0.12
			c0.03,0.09,0.04,0.12,0.04,0.12c0.03,0.09,0.04,0.12,0.04,0.12c0.02,0.09,0.03,0.12,0.03,0.12c0.02,0.09,0.03,0.12,0.03,0.12
			c0.02,0.09,0.02,0.12,0.02,0.12c0.01,0.09,0.01,0.12,0.01,0.12c0.09,0.9-0.17,1.8-0.23,2.67"/>
	</g>
	<g id="POLYLINE_327_">
		<path class="st24" d="M580.12,335.93c-3.47,1.67-6.96,3.58-9.64,6.39c-1.86,1.91-3.34,4.17-4.56,6.53
			c-1.41,2.74-2.5,5.66-3.3,8.63c-1.27,4.72-1.88,9.68-1.41,14.56c0.32,3.29,1.18,6.53,2.46,9.57c2.37,5.62,6.13,10.57,10.36,14.93
			c4.15,4.24,8.82,8.12,14.18,10.72c3.06,1.47,6.42,2.46,9.83,2.38c2.74-0.03,5.46-0.64,8.06-1.45c1.96-0.55,8.27-2.97,10.27-3.66
			c4.38-1.63,8.9-3.41,13-5.67"/>
	</g>
</g>
<g id="AG-OUTLINE">
	<g id="POLYLINE_34_">
		<path class="st25" d="M183.69,349.84c-2.41-0.1-4.98-0.41-7.37-0.76c-2.04-0.3-4.14-0.69-6.13-1.25
			c-2.07-0.57-4.21-1.36-6.21-2.15c-4.57-1.78-20.31-9.06-25.03-11.17c-11.27-4.95-23.11-9.28-35.43-10.51
			c-2.51-0.23-5.09-0.35-7.6-0.05c-1.68,0.21-3.6,0.65-4.88,1.74c-0.11,0.1-0.15,0.13-0.15,0.13c-0.1,0.1-0.14,0.14-0.14,0.14
			c-0.1,0.11-0.13,0.14-0.13,0.14c-0.08,0.09-0.1,0.12-0.1,0.12c-0.07,0.09-0.09,0.12-0.09,0.12c-0.07,0.09-0.09,0.12-0.09,0.12
			c-0.06,0.09-0.08,0.13-0.08,0.13c-0.06,0.1-0.08,0.13-0.08,0.13c-0.05,0.1-0.07,0.13-0.07,0.13c-0.05,0.1-0.07,0.14-0.07,0.14
			c-0.5,1.1-0.55,2.2-0.51,3.33c0.12,2.54,0.82,5.36,1.15,7.88c0.48,3.39,0.55,8.2,0.85,11.62c0.18,1.99,0.46,4.01,0.96,5.94
			c0.96,3.78,3.04,7.74,3.62,11.62c0.2,1.41,0.17,2.82-0.16,4.12c-0.55,2.17-1.72,4.13-2.92,6c-1.58,2.4-3.86,5.54-5.05,8.11
			c-0.55,1.16-0.97,2.4-1.27,3.65c-0.64,2.54-0.88,5.56-1.29,8.15c-0.3,1.94-0.8,3.89-1.69,5.65c-0.75,1.55-1.88,3.24-2.73,4.73
			c-0.69,1.22-1.4,2.7-1.17,4.1c0.02,0.11,0.03,0.15,0.03,0.15c0.02,0.11,0.03,0.15,0.03,0.15c0.03,0.11,0.04,0.15,0.04,0.15
			c0.03,0.11,0.05,0.15,0.05,0.15c0.04,0.11,0.05,0.14,0.05,0.14c0.04,0.11,0.06,0.14,0.06,0.14c0.05,0.11,0.06,0.14,0.06,0.14
			c0.05,0.1,0.07,0.14,0.07,0.14c0.06,0.1,0.08,0.14,0.08,0.14c0.06,0.1,0.08,0.13,0.08,0.13c0.06,0.1,0.09,0.13,0.09,0.13
			c0.07,0.1,0.09,0.13,0.09,0.13c0.07,0.1,0.1,0.13,0.1,0.13c0.08,0.09,0.1,0.13,0.1,0.13c0.08,0.09,0.11,0.12,0.11,0.12
			c7.76,8.09,49.3-3.52,60.3-6.5c8.23-2.35,17.16-4.83,24.96-8.33c3.77-1.69,7.43-3.82,10.92-6.01c3.61-0.35,7.36-0.25,10.98-0.02
			c4.94,0.33,10.03,0.96,14.92,1.75c11.71,1.94,23.45,4.7,34.47,9.2c-4,0.48-7.85,1.95-11.58,3.42c-2.58,1.06-5.33,2.38-6.98,4.71
			c-0.88,1.24-1.32,2.58-1.55,4c-0.21,1.34-0.2,2.73,0.03,4.07c0.27,1.63,0.92,3.37,1.92,4.63c0.97,1.25,2.27,2.11,3.64,2.68
			c2.28,0.93,4.79,1.12,7.23,1.01c5.96-0.32,12.78-2.62,18.63-3.77c3.78-0.81,7.7-1.11,11.56-1.07c2.6,0.02,7.73,0.28,10.25,0.03
			c1.42-0.13,2.84-0.44,4.2-0.84l2.46-0.75c6.6,2.12,13.66,3.75,20.48,5.07c12.58,2.41,26.14,3.99,38.92,5.14
			c-1.45,0.73-3.07,1.63-4.09,2.87c-0.08,0.1-0.1,0.14-0.1,0.14c-0.07,0.1-0.1,0.14-0.1,0.14c-0.07,0.1-0.09,0.14-0.09,0.14
			c-0.06,0.1-0.08,0.14-0.08,0.14c-0.06,0.1-0.08,0.14-0.08,0.14c-0.05,0.11-0.07,0.14-0.07,0.14c-0.05,0.11-0.06,0.14-0.06,0.14
			c-0.04,0.11-0.05,0.14-0.05,0.14c-0.03,0.11-0.04,0.14-0.04,0.14c-0.03,0.11-0.04,0.15-0.04,0.15c-0.02,0.08-0.02,0.11-0.02,0.11
			c-0.01,0.08-0.02,0.12-0.02,0.12c-0.01,0.08-0.01,0.12-0.01,0.12c-0.01,0.08-0.01,0.12-0.01,0.12c0,0.08,0,0.12,0,0.12
			c0,0.08,0,0.12,0,0.12c0,0.08,0.01,0.12,0.01,0.12c0.01,0.08,0.01,0.12,0.01,0.12c0.01,0.08,0.02,0.12,0.02,0.12
			c0.01,0.08,0.02,0.12,0.02,0.12c0.02,0.08,0.03,0.12,0.03,0.12c0.02,0.08,0.03,0.12,0.03,0.12c0.02,0.08,0.04,0.12,0.04,0.12
			c0.03,0.08,0.04,0.12,0.04,0.12c0.03,0.08,0.05,0.12,0.05,0.12c0.03,0.08,0.05,0.11,0.05,0.11c0.04,0.08,0.06,0.11,0.06,0.11
			c0.06,0.11,0.08,0.15,0.08,0.15c0.07,0.11,0.09,0.15,0.09,0.15c0.08,0.11,0.1,0.15,0.1,0.15c0.08,0.11,0.11,0.15,0.11,0.15
			c0.09,0.11,0.12,0.14,0.12,0.14c0.1,0.11,0.13,0.14,0.13,0.14c0.1,0.11,0.14,0.14,0.14,0.14c0.77,0.73,1.57,1.13,2.47,1.48
			c0.84,0.31,1.72,0.52,2.6,0.67c2.3,0.4,4.7,0.48,7.03,0.47c6.96-0.07,14.13-0.99,21.02-2c3.36-0.51,12.88-2.12,16.16-2.44
			c2.51-0.26,6.86-0.56,9.28-1.06c1.49-0.3,3.14-0.76,4.36-1.65c27.17,0.12,57.61-0.1,84.72-1.54c17.41-0.98,35.42-2.6,52.59-5.67
			c22.36-3.93,44.57-10.64,65.91-18.34c3.33-0.2,6.58-1.18,9.71-2.28c6.66-2.47,14.45-5.03,20.64-8.46
			c3.28-0.12,6.61-0.42,9.82-1.09c4.57-0.94,9.48-2.65,13.92-4.11c7.68-2.66,15.65-5.47,22.84-9.3c1.38-0.76,2.76-1.58,4-2.55
			c1.1-0.86,2.21-1.96,2.56-3.28c0.03-0.11,0.04-0.15,0.04-0.15c0.02-0.11,0.03-0.15,0.03-0.15c0.02-0.11,0.02-0.15,0.02-0.15
			c0.01-0.11,0.01-0.15,0.01-0.15c0-0.11,0-0.15,0-0.15c0-0.11,0-0.14,0-0.14c-0.01-0.11-0.01-0.14-0.01-0.14
			c-0.01-0.11-0.02-0.14-0.02-0.14c-0.02-0.11-0.02-0.14-0.02-0.14c-0.02-0.11-0.03-0.14-0.03-0.14c-0.03-0.1-0.04-0.14-0.04-0.14
			c-0.03-0.1-0.04-0.14-0.04-0.14c-0.04-0.1-0.05-0.14-0.05-0.14c-0.04-0.1-0.06-0.13-0.06-0.13c-0.05-0.1-0.06-0.13-0.06-0.13
			c-0.05-0.1-0.07-0.13-0.07-0.13c-0.06-0.1-0.08-0.13-0.08-0.13c-0.06-0.1-0.09-0.13-0.09-0.13c-0.07-0.1-0.09-0.13-0.09-0.13
			c-0.98-1.29-2.44-2.11-3.92-2.48c-0.99-0.23-1.95-0.14-2.85,0.03c-1.25,0.25-2.93,0.7-4.19,0.92c-1.87,0.35-3.9,0.56-5.79,0.73
			c-7.46,0.61-15.11,0.64-22.59,0.33l2.11-3.11c1.79-2.6,3.88-5.04,6.31-7.08c2.31-1.95,4.92-3.55,7.73-4.67
			c3.57-1.44,7.66-2.02,11.38-2.95c1.52-0.4,3.22-0.89,4.47-1.83c0.11-0.08,0.14-0.11,0.14-0.11c0.1-0.09,0.13-0.12,0.13-0.12
			c0.1-0.09,0.13-0.12,0.13-0.12c0.09-0.09,0.12-0.12,0.12-0.12c0.09-0.09,0.11-0.12,0.11-0.12c0.08-0.09,0.11-0.13,0.11-0.13
			c0.08-0.1,0.1-0.13,0.1-0.13c0.07-0.1,0.1-0.13,0.1-0.13c0.07-0.1,0.09-0.13,0.09-0.13c0.06-0.1,0.08-0.14,0.08-0.14
			c0.06-0.1,0.08-0.14,0.08-0.14c0.05-0.1,0.07-0.14,0.07-0.14c0.05-0.11,0.06-0.14,0.06-0.14c0.04-0.11,0.06-0.14,0.06-0.14
			c0.04-0.11,0.05-0.14,0.05-0.14c0.04-0.11,0.05-0.14,0.05-0.14c0.03-0.11,0.04-0.15,0.04-0.15c0.03-0.11,0.03-0.15,0.03-0.15
			c0.02-0.11,0.03-0.15,0.03-0.15c0.02-0.11,0.02-0.15,0.02-0.15c0.01-0.11,0.02-0.15,0.02-0.15c0.01-0.11,0.01-0.15,0.01-0.15
			c0.01-0.11,0.01-0.15,0.01-0.15c0-0.11,0-0.15,0-0.15c0-0.11,0-0.15,0-0.15c-0.01-0.11-0.01-0.15-0.01-0.15
			c-0.01-0.11-0.02-0.15-0.02-0.15c-0.02-0.11-0.02-0.15-0.02-0.15c-0.02-0.11-0.03-0.15-0.03-0.15c-0.02-0.11-0.03-0.15-0.03-0.15
			c-0.03-0.11-0.04-0.14-0.04-0.14c-0.27-1-0.92-1.83-1.57-2.48c-0.79-0.77-1.5-1.28-2.35-1.85c-1.66-1.09-3.5-2.08-5.27-2.98
			c-12.21-6.05-25.66-10.12-38.73-13.9c-19.38-5.2-51.93-14.24-71.32-19.16c-8.98-2.21-19.78-4.52-28.89-6.18
			c-31.1-5.59-63.18-8.42-94.77-7.61c-0.05-0.11-0.06-0.12-0.06-0.12c-0.11-0.11-0.12-0.12-0.12-0.12c-0.1-0.07-0.12-0.09-0.12-0.09
			c-0.11-0.06-0.13-0.07-0.13-0.07c-0.07-0.04-0.13-0.06-0.13-0.06c-0.95-0.42-1.9-0.61-2.9-0.85c-2.85-0.63-9.23-1.79-12.05-2.4
			c-2.29-0.48-5.8-1.34-8.09-1.92c-11.07-2.86-24.84-7.18-36.18-8c-4.24-0.33-8.56-0.3-12.75,0.45c-1.71,0.33-3.58,0.75-5.02,1.74
			c-0.1,0.07-0.15,0.11-0.15,0.11c-0.09,0.07-0.14,0.11-0.14,0.11c-0.09,0.08-0.13,0.11-0.13,0.11c-0.08,0.08-0.12,0.12-0.12,0.12
			c-0.08,0.08-0.12,0.12-0.12,0.12c-0.09,0.1-0.11,0.12-0.11,0.12c-0.08,0.11-0.1,0.13-0.1,0.13c-0.08,0.11-0.09,0.13-0.09,0.13
			c-0.07,0.11-0.08,0.14-0.08,0.14c-0.05,0.09-0.06,0.12-0.06,0.12c-0.04,0.09-0.06,0.12-0.06,0.12c-0.04,0.1-0.05,0.12-0.05,0.12
			c-0.03,0.1-0.04,0.12-0.04,0.12c-0.03,0.1-0.04,0.13-0.04,0.13c-0.02,0.1-0.03,0.13-0.03,0.13c-0.02,0.11-0.02,0.13-0.02,0.13
			c-0.01,0.09-0.01,0.13-0.01,0.13c-0.01,0.1-0.01,0.14-0.01,0.14c0,0.11,0,0.14,0,0.14c0,0.11,0.01,0.14,0.01,0.14
			c0.01,0.11,0.01,0.15,0.01,0.15c0.01,0.11,0.02,0.15,0.02,0.15c0.16,0.96,0.5,1.68,0.91,2.5c0.43,0.86,1.67,2.92,2.17,3.78
			c0.57,1.01,1.22,2.18,1.44,3.31c0.02,0.11,0.02,0.15,0.02,0.15c0.01,0.11,0.02,0.14,0.02,0.14c0.01,0.11,0.01,0.16,0.01,0.16
			c0,0.11,0.01,0.16,0.01,0.16c0,0.1,0,0.16,0,0.16c-0.01,0.1-0.01,0.15-0.01,0.15c-0.01,0.1-0.02,0.15-0.02,0.15
			c-0.01,0.1-0.02,0.15-0.02,0.15c-0.02,0.1-0.03,0.14-0.03,0.14c-0.02,0.09-0.04,0.14-0.04,0.14c-0.03,0.09-0.04,0.14-0.04,0.14
			c-0.03,0.09-0.05,0.14-0.05,0.14c-0.03,0.09-0.05,0.13-0.05,0.13c-0.47,1.13-1.37,1.91-2,2.88c-0.07,0.11-0.09,0.15-0.09,0.15
			c-0.06,0.11-0.08,0.15-0.08,0.15c-0.06,0.11-0.07,0.15-0.07,0.15c-0.05,0.11-0.07,0.15-0.07,0.15c-0.04,0.11-0.06,0.15-0.06,0.15
			c-0.03,0.09-0.04,0.11-0.04,0.11c-0.02,0.09-0.03,0.12-0.03,0.12c-0.02,0.09-0.02,0.12-0.02,0.12c-0.02,0.09-0.02,0.12-0.02,0.12
			c-0.01,0.09-0.01,0.12-0.01,0.12c-0.01,0.09-0.01,0.12-0.01,0.12c0,0.09,0,0.14,0,0.14c0,0.1,0.01,0.14,0.01,0.14
			c0.01,0.1,0.01,0.14,0.01,0.14c0.01,0.1,0.02,0.14,0.02,0.14c0.02,0.1,0.03,0.14,0.03,0.14c-14.83,2.77-31.3,5.85-45.96,9.52
			c-17.75,4.31-39.62,11.17-57.2,16.56c-1.38-0.21-3.31-0.54-4.69-0.64c-1.1-0.09-2.28-0.11-3.38-0.09
			c-3.18,0.06-7.58,0.31-10.7,0.1c-1.41-0.09-2.82-0.3-4.18-0.7c-2.11-0.61-4.25-1.69-6.34-2.36c-1.84-0.6-3.78-1.01-5.72-0.86
			c-1.69,0.12-3.29,0.73-4.75,1.55c-1.85,1.04-3.55,2.41-5.16,3.8c-1.32,1.17-2.83,2.51-4.08,3.75c-0.81,0.81-1.74,1.78-2.23,2.76
			c-0.04,0.08-0.05,0.12-0.05,0.12c-0.03,0.08-0.05,0.12-0.05,0.12c-0.04,0.11-0.05,0.15-0.05,0.15c-0.03,0.11-0.04,0.13-0.04,0.13
			c-0.02,0.11-0.03,0.12-0.03,0.12c-0.01,0.1-0.01,0.12-0.01,0.12c0,0.1,0,0.12,0,0.12c0.01,0.11,0.01,0.13,0.01,0.13
			c0.02,0.11,0.02,0.12,0.02,0.12c0.03,0.11,0.04,0.12,0.04,0.12c0.05,0.11,0.06,0.13,0.06,0.13c0.06,0.11,0.07,0.13,0.07,0.13
			c0.08,0.1,0.09,0.12,0.09,0.12c0.09,0.1,0.1,0.12,0.1,0.12c0.1,0.1,0.12,0.11,0.12,0.11c0.09,0.08,0.13,0.11,0.13,0.11
			c0.08,0.06,0.12,0.09,0.12,0.09c0.24,0.18,0.48,0.31,0.65,0.41c0,0,1.36,0.75,1.36,0.75c1.32,0.76,3.01,1.89,4.4,2.46
			C200.71,346.36,191.92,348.74,183.69,349.84z"/>
	</g>
</g>
</svg>
