<?xml version="1.0" encoding="utf-8"?>
<!-- Generator: Adobe Illustrator 24.2.1, SVG Export Plug-In . SVG Version: 6.00 Build 0)  -->
<!DOCTYPE svg PUBLIC "-//W3C//DTD SVG 1.1//EN" "http://www.w3.org/Graphics/SVG/1.1/DTD/svg11.dtd" [
	<!ENTITY ns_extend "http://ns.adobe.com/Extensibility/1.0/">
	<!ENTITY ns_ai "http://ns.adobe.com/AdobeIllustrator/10.0/">
	<!ENTITY ns_graphs "http://ns.adobe.com/Graphs/1.0/">
	<!ENTITY ns_vars "http://ns.adobe.com/Variables/1.0/">
	<!ENTITY ns_imrep "http://ns.adobe.com/ImageReplacement/1.0/">
	<!ENTITY ns_sfw "http://ns.adobe.com/SaveForWeb/1.0/">
	<!ENTITY ns_custom "http://ns.adobe.com/GenericCustomNamespace/1.0/">
	<!ENTITY ns_adobe_xpath "http://ns.adobe.com/XPath/1.0/">
]>
<svg version="1.1" xmlns:x="&ns_extend;" xmlns:i="&ns_ai;" xmlns:graph="&ns_graphs;"
	 xmlns="http://www.w3.org/2000/svg" xmlns:xlink="http://www.w3.org/1999/xlink" x="0px" y="0px" width="750px" height="750px"
	 viewBox="0 0 750 750" style="enable-background:new 0 0 750 750;" xml:space="preserve">
<style type="text/css">
	.st0{fill:#FFFFFF;}
	.st1{fill:#FB8604;}
	.st2{fill:none;stroke:#FB8604;stroke-width:2;stroke-linecap:round;stroke-linejoin:round;stroke-miterlimit:10;}
	.st3{fill:none;stroke:#FB8604;stroke-width:3;stroke-linecap:round;stroke-linejoin:round;}
	.st4{fill:none;stroke:#FB8604;stroke-width:3;stroke-linecap:round;stroke-linejoin:round;stroke-dasharray:2.8454,4.7423;}
	.st5{fill:none;stroke:#FB8604;stroke-width:3;stroke-linecap:round;stroke-linejoin:round;stroke-dasharray:3.0358,5.0597;}
	.st6{fill:none;stroke:#FB8604;stroke-width:3;stroke-linecap:round;stroke-linejoin:round;stroke-dasharray:3.0623,5.1039;}
	.st7{fill:none;stroke:#FB8604;stroke-width:3;stroke-linecap:round;stroke-linejoin:round;stroke-dasharray:2.7205,4.5341;}
	.st8{fill:none;stroke:#FB8604;stroke-width:3;stroke-linecap:round;stroke-linejoin:round;stroke-dasharray:2.98,4.9666;}
	.st9{fill:none;stroke:#FB8604;stroke-width:3;stroke-linecap:round;stroke-linejoin:round;stroke-dasharray:3.1616,5.2694;}
	.st10{fill:none;stroke:#FB8604;stroke-width:3;stroke-linecap:round;stroke-linejoin:round;stroke-dasharray:2.9622,4.937;}
	.st11{fill:none;stroke:#FB8604;stroke-width:3;stroke-linecap:round;stroke-linejoin:round;stroke-dasharray:3.1524,5.254;}
	.st12{fill:none;stroke:#FB8604;stroke-width:3;stroke-linecap:round;stroke-linejoin:round;stroke-dasharray:2.9926,4.9876;}
	.st13{fill:none;stroke:#FB8604;stroke-width:3;stroke-linecap:round;stroke-linejoin:round;stroke-dasharray:2.9819,4.9699;}
	.st14{fill:none;stroke:#FB8604;stroke-width:3;stroke-linecap:round;stroke-linejoin:round;stroke-dasharray:3.2543,5.4238;}
	.st15{fill:none;stroke:#FB8604;stroke-width:3;stroke-linecap:round;stroke-linejoin:round;stroke-dasharray:3.1883,5.3139;}
	.st16{fill:none;stroke:#FB8604;stroke-width:3;stroke-linecap:round;stroke-linejoin:round;stroke-dasharray:3.1996,5.3327;}
	.st17{fill:none;stroke:#FB8604;stroke-width:3;stroke-linecap:round;stroke-linejoin:round;stroke-dasharray:3.0002,5.0003;}
	.st18{fill:none;stroke:#FB8604;stroke-width:3;stroke-linecap:round;stroke-linejoin:round;stroke-dasharray:3.0484,5.0807;}
	.st19{fill:none;stroke:#FB8604;stroke-width:3;stroke-linecap:round;stroke-linejoin:round;stroke-dasharray:2.9243,4.8739;}
	.st20{fill:none;stroke:#FB8604;stroke-width:3;stroke-linecap:round;stroke-linejoin:round;stroke-dasharray:2.6889,4.4815;}
	.st21{fill:none;stroke:#FB8604;stroke-width:3;stroke-linecap:round;stroke-linejoin:round;stroke-dasharray:3.2554,5.4256;}
	.st22{fill:none;stroke:#FB8604;stroke-width:3;stroke-linecap:round;stroke-linejoin:round;stroke-dasharray:2.7653,4.6089;}
	.st23{fill:none;stroke:#FB8604;stroke-width:3;stroke-linecap:round;stroke-linejoin:round;stroke-dasharray:2.9223,4.8704;}
	.st24{fill:none;stroke:#FB8604;stroke-width:3;stroke-linecap:round;stroke-linejoin:round;stroke-dasharray:2.9057,4.8429;}
	.st25{fill:none;stroke:#FB8604;stroke-width:3;stroke-linecap:round;stroke-linejoin:round;stroke-dasharray:3.0065,5.0108;}
	.st26{fill:none;stroke:#FB8604;stroke-width:3;stroke-linecap:round;stroke-linejoin:round;stroke-dasharray:2.9079,4.8465;}
	.st27{fill:none;stroke:#FB8604;stroke-width:3;stroke-linecap:round;stroke-linejoin:round;stroke-dasharray:3.0937,5.1562;}
	.st28{fill:none;stroke:#FB8604;stroke-width:3;stroke-linecap:round;stroke-linejoin:round;stroke-dasharray:3.0661,5.1101;}
	.st29{fill:none;stroke:#FB8604;stroke-width:3;stroke-linecap:round;stroke-linejoin:round;stroke-dasharray:3.1776,5.2959;}
	.st30{fill:none;stroke:#FB8604;stroke-width:3;stroke-linecap:round;stroke-linejoin:round;stroke-dasharray:2.9906,4.9843;}
	.st31{fill:none;stroke:#FB8604;stroke-width:3;stroke-linecap:round;stroke-linejoin:round;stroke-dasharray:3.05,5.0833;}
	.st32{fill:none;stroke:#FB8604;stroke-width:3;stroke-linecap:round;stroke-linejoin:round;stroke-dasharray:2.9927,4.9878;}
	.st33{fill:none;stroke:#FB8604;stroke-width:3;stroke-linecap:round;stroke-linejoin:round;stroke-dasharray:3.0562,5.0937;}
	.st34{fill:none;stroke:#FB8604;stroke-width:3;stroke-linecap:round;stroke-linejoin:round;stroke-dasharray:2.6349,4.3916;}
	.st35{fill:none;stroke:#FB8604;stroke-width:3;stroke-linecap:round;stroke-linejoin:round;stroke-dasharray:2.7969,4.6614;}
	.st36{fill:none;stroke:#FB8604;stroke-width:3;stroke-linecap:round;stroke-linejoin:round;stroke-dasharray:2.9278,4.8796;}
	.st37{fill:none;stroke:#FB8604;stroke-width:3;stroke-linecap:round;stroke-linejoin:round;stroke-dasharray:3.0246,5.041;}
	.st38{fill:none;stroke:#FB8604;stroke-width:3;stroke-linecap:round;stroke-linejoin:round;stroke-dasharray:3.1079,5.1799;}
	.st39{fill:none;stroke:#FB8604;stroke-width:3;stroke-linecap:round;stroke-linejoin:round;stroke-dasharray:2.857,4.7617;}
	.st40{fill:none;stroke:#FB8604;stroke-width:3;stroke-linecap:round;stroke-linejoin:round;stroke-dasharray:2.963,4.9383;}
	.st41{fill:none;stroke:#FB8604;stroke-width:3;stroke-linecap:round;stroke-linejoin:round;stroke-dasharray:2.9904,4.984;}
	.st42{fill:none;stroke:#FB8604;stroke-width:3;stroke-linecap:round;stroke-linejoin:round;stroke-dasharray:2.9956,4.9927;}
	.st43{fill:none;stroke:#FB8604;stroke-width:3;stroke-linecap:round;stroke-linejoin:round;stroke-dasharray:3.0812,5.1353;}
	.st44{fill:none;stroke:#FB8604;stroke-width:3;stroke-linecap:round;stroke-linejoin:round;stroke-dasharray:2.9058,4.8431;}
	.st45{fill:none;stroke:#FB8604;stroke-width:3;stroke-linecap:round;stroke-linejoin:round;stroke-dasharray:3.0726,5.121;}
	.st46{fill:none;stroke:#FB8604;stroke-width:3;stroke-linecap:round;stroke-linejoin:round;stroke-dasharray:2.9521,4.9202;}
	.st47{fill:none;stroke:#FB8604;stroke-width:3;stroke-linecap:round;stroke-linejoin:round;stroke-dasharray:2.8199,4.6998;}
	.st48{fill:none;stroke:#FB8604;stroke-width:3;stroke-linecap:round;stroke-linejoin:round;stroke-dasharray:2.9034,4.8389;}
	.st49{fill:none;stroke:#FB8604;stroke-width:3;stroke-linecap:round;stroke-linejoin:round;stroke-dasharray:3.1354,5.2257;}
	.st50{fill:none;stroke:#FB8604;stroke-width:3;stroke-linecap:round;stroke-linejoin:round;stroke-dasharray:2.9869,4.9781;}
	.st51{fill:none;stroke:#FB8604;stroke-width:3;stroke-linecap:round;stroke-linejoin:round;stroke-dasharray:3.0079,5.0131;}
	.st52{fill:none;stroke:#FB8604;stroke-width:3;stroke-linecap:round;stroke-linejoin:round;stroke-dasharray:2.9878,4.9796;}
	.st53{fill:none;stroke:#FB8604;stroke-width:3;stroke-linecap:round;stroke-linejoin:round;stroke-dasharray:2.9976,4.996;}
	.st54{fill:none;stroke:#FB8604;stroke-width:3;stroke-linecap:round;stroke-linejoin:round;stroke-dasharray:2.8211,4.7018;}
	.st55{fill:none;stroke:#FB8604;stroke-width:3;stroke-linecap:round;stroke-linejoin:round;stroke-dasharray:2.9864,4.9773;}
	.st56{fill:none;stroke:#FB8604;stroke-width:3;stroke-linecap:round;stroke-linejoin:round;stroke-dasharray:3.1189,5.1981;}
	.st57{fill:none;stroke:#FB8604;stroke-width:3;stroke-linecap:round;stroke-linejoin:round;stroke-dasharray:3.2283,5.3806;}
	.st58{fill:none;stroke:#FB8604;stroke-width:3;stroke-linecap:round;stroke-linejoin:round;stroke-dasharray:3.0483,5.0805;}
	.st59{fill:none;stroke:#FB8604;stroke-width:3;stroke-linecap:round;stroke-linejoin:round;stroke-dasharray:2.9847,4.9744;}
	.st60{fill:none;stroke:#FB8604;stroke-width:3;stroke-linecap:round;stroke-linejoin:round;stroke-dasharray:3.0077,5.0129;}
	.st61{fill:none;stroke:#FB8604;stroke-width:2.75;stroke-linecap:round;stroke-linejoin:round;stroke-miterlimit:10;}
	.st62{fill:none;stroke:#FB8604;stroke-width:3.5;stroke-linecap:round;stroke-linejoin:round;stroke-miterlimit:10;}
	
		.st63{fill:none;stroke:#FB8604;stroke-width:3;stroke-linecap:round;stroke-linejoin:round;stroke-miterlimit:10;stroke-dasharray:3,5;}
</style>
<metadata>
	<sfw  xmlns="&ns_sfw;">
		<slices></slices>
		<sliceSourceBounds  bottomLeftOrigin="true" height="8099.71" width="4072" x="-2000" y="-1120"></sliceSourceBounds>
	</sfw>
</metadata>
<g id="FILL-BACKGROUND">
	<rect class="st0" width="750" height="750"/>
</g>
<g id="N-TEXT">
</g>
<g id="N-DIMENSIONS">
</g>
<g id="AG-DETAIL-DIAGRAM">
</g>
<g id="AG-DETAILS">
	<g id="POLYLINE_143_">
		<path class="st2" d="M506.65,391.56c-0.1-0.21-0.12-0.25-0.12-0.25c-0.12-0.2-0.14-0.24-0.14-0.24c-0.13-0.19-0.16-0.22-0.16-0.22
			c-0.18-0.21-0.21-0.24-0.21-0.24c-0.2-0.19-0.23-0.23-0.23-0.23c-0.22-0.18-0.25-0.21-0.25-0.21c-0.19-0.13-0.23-0.16-0.23-0.16
			c-0.2-0.12-0.24-0.14-0.24-0.14c-0.21-0.11-0.25-0.13-0.25-0.13c-0.17-0.07-0.22-0.09-0.22-0.09c-0.18-0.07-0.22-0.08-0.22-0.08
			c-0.18-0.05-0.23-0.07-0.23-0.07c-0.19-0.04-0.23-0.05-0.23-0.05c-0.19-0.03-0.24-0.04-0.24-0.04c-0.19-0.02-0.24-0.03-0.24-0.03
			c-0.19-0.01-0.24-0.01-0.24-0.01c-0.19,0-0.24,0-0.24,0c-0.19,0.01-0.24,0.02-0.24,0.02c-0.19,0.03-0.24,0.03-0.24,0.03
			c-0.19,0.04-0.24,0.05-0.24,0.05c-0.19,0.05-0.24,0.07-0.24,0.07c-0.19,0.07-0.23,0.08-0.23,0.08c-0.18,0.08-0.23,0.1-0.23,0.1
			c-0.2,0.11-0.25,0.14-0.25,0.14c-0.2,0.13-0.25,0.16-0.25,0.16c-0.2,0.15-0.25,0.18-0.25,0.18c-0.19,0.16-0.24,0.2-0.24,0.2
			c-0.18,0.18-0.23,0.22-0.23,0.22c-0.18,0.19-0.22,0.24-0.22,0.24c-0.17,0.2-0.21,0.25-0.21,0.25c-0.16,0.21-0.2,0.27-0.2,0.27
			c-0.11,0.17-0.15,0.22-0.15,0.22c-0.11,0.17-0.14,0.23-0.14,0.23c-0.1,0.18-0.13,0.24-0.13,0.24c-0.09,0.18-0.13,0.24-0.13,0.24
			c-0.09,0.18-0.12,0.25-0.12,0.25c-0.08,0.19-0.11,0.25-0.11,0.25c-0.07,0.19-0.1,0.25-0.1,0.25c-0.07,0.19-0.09,0.25-0.09,0.25
			c-0.06,0.19-0.08,0.25-0.08,0.25c-0.05,0.19-0.07,0.25-0.07,0.25c-0.04,0.19-0.06,0.25-0.06,0.25c-0.04,0.19-0.05,0.25-0.05,0.25
			c-0.03,0.19-0.03,0.25-0.03,0.25c-0.02,0.19-0.02,0.25-0.02,0.25c-0.01,0.18-0.01,0.24-0.01,0.24c0,0.18,0,0.24,0,0.24
			c0.01,0.18,0.01,0.23,0.01,0.23c0.02,0.17,0.03,0.23,0.03,0.23c0.03,0.17,0.04,0.22,0.04,0.22c0.05,0.21,0.06,0.24,0.06,0.24
			c0.07,0.2,0.08,0.23,0.08,0.23c0.1,0.21,0.11,0.23,0.11,0.23c0.12,0.21,0.14,0.23,0.14,0.23c0.16,0.21,0.19,0.25,0.19,0.25
			c0.18,0.19,0.22,0.22,0.22,0.22c0.21,0.17,0.24,0.2,0.24,0.2c0.19,0.13,0.23,0.15,0.23,0.15c0.2,0.11,0.24,0.13,0.24,0.13
			c0.21,0.1,0.26,0.11,0.26,0.11c0.18,0.07,0.22,0.08,0.22,0.08c0.18,0.06,0.23,0.07,0.23,0.07c0.19,0.05,0.24,0.06,0.24,0.06
			c0.19,0.04,0.24,0.04,0.24,0.04c0.2,0.02,0.25,0.03,0.25,0.03c0.2,0.01,0.25,0.02,0.25,0.02c0.2,0,0.25,0,0.25,0
			c0.2-0.01,0.25-0.01,0.25-0.01c0.2-0.02,0.26-0.02,0.26-0.02c0.2-0.03,0.26-0.04,0.26-0.04c0.2-0.04,0.25-0.05,0.25-0.05
			c0.2-0.05,0.25-0.06,0.25-0.06c0.2-0.06,0.25-0.08,0.25-0.08c0.2-0.07,0.24-0.09,0.24-0.09c0.19-0.08,0.24-0.1,0.24-0.1
			c0.19-0.09,0.23-0.12,0.23-0.12c0.19-0.11,0.24-0.14,0.24-0.14c0.19-0.13,0.24-0.16,0.24-0.16c0.18-0.14,0.23-0.17,0.23-0.17
			c0.17-0.15,0.22-0.19,0.22-0.19c0.21-0.2,0.25-0.24,0.25-0.24c0.19-0.21,0.23-0.26,0.23-0.26c0.15-0.18,0.18-0.22,0.18-0.22
			c0.14-0.19,0.17-0.23,0.17-0.23c0.13-0.19,0.16-0.24,0.16-0.24c0.12-0.2,0.15-0.25,0.15-0.25c0.11-0.2,0.13-0.26,0.13-0.26
			c0.1-0.21,0.12-0.26,0.12-0.26c0.09-0.21,0.11-0.27,0.11-0.27c0.08-0.21,0.09-0.27,0.09-0.27c0.05-0.16,0.07-0.22,0.07-0.22
			c0.04-0.16,0.06-0.22,0.06-0.22c0.04-0.16,0.05-0.22,0.05-0.22c0.03-0.16,0.04-0.22,0.04-0.22c0.02-0.16,0.03-0.22,0.03-0.22
			c0.01-0.16,0.02-0.22,0.02-0.22c0.01-0.22,0.01-0.27,0.01-0.27c-0.01-0.21-0.01-0.27-0.01-0.27c-0.02-0.21-0.02-0.26-0.02-0.26
			c-0.03-0.2-0.04-0.26-0.04-0.26c-0.05-0.2-0.06-0.25-0.06-0.25C506.74,391.8,506.73,391.75,506.65,391.56z"/>
	</g>
	<g id="POLYLINE_144_">
		<path class="st2" d="M527.37,376.85c-0.11-0.21-0.12-0.23-0.12-0.23c-0.13-0.2-0.15-0.23-0.15-0.23c-0.16-0.2-0.2-0.24-0.2-0.24
			c-0.18-0.19-0.23-0.24-0.23-0.24c-0.2-0.18-0.25-0.23-0.25-0.23c-0.16-0.13-0.22-0.17-0.22-0.17c-0.17-0.13-0.23-0.17-0.23-0.17
			c-0.18-0.12-0.24-0.16-0.24-0.16c-0.19-0.11-0.26-0.15-0.26-0.15c-0.2-0.11-0.27-0.14-0.27-0.14c-0.21-0.1-0.28-0.13-0.28-0.13
			c-1.33-0.6-2.69-0.89-4-0.85c-0.21,0.01-0.28,0.02-0.28,0.02c-0.21,0.02-0.28,0.03-0.28,0.03c-0.2,0.03-0.27,0.05-0.27,0.05
			c-0.19,0.04-0.26,0.06-0.26,0.06c-0.21,0.06-0.24,0.07-0.24,0.07c-0.2,0.08-0.23,0.09-0.23,0.09c-0.21,0.1-0.25,0.12-0.25,0.12
			c-0.2,0.12-0.24,0.14-0.24,0.14c-0.22,0.16-0.25,0.19-0.25,0.19c-0.19,0.18-0.22,0.22-0.22,0.22c-0.17,0.2-0.19,0.24-0.19,0.24
			c-0.12,0.18-0.15,0.22-0.15,0.22c-0.11,0.19-0.13,0.23-0.13,0.23c-0.09,0.2-0.11,0.24-0.11,0.24c-0.07,0.21-0.09,0.25-0.09,0.25
			c-0.05,0.17-0.06,0.22-0.06,0.22c-0.04,0.18-0.04,0.22-0.04,0.22c-0.03,0.18-0.03,0.23-0.03,0.23c-0.02,0.18-0.02,0.23-0.02,0.23
			c-0.01,0.19-0.01,0.23-0.01,0.23c0.01,0.19,0.01,0.24,0.01,0.24c0.02,0.19,0.02,0.24,0.02,0.24c0.03,0.19,0.03,0.24,0.03,0.24
			c0.04,0.19,0.05,0.24,0.05,0.24c0.05,0.19,0.06,0.23,0.06,0.23c0.05,0.18,0.07,0.23,0.07,0.23c0.06,0.18,0.08,0.23,0.08,0.23
			c0.07,0.18,0.09,0.22,0.09,0.22c0.08,0.17,0.11,0.22,0.11,0.22c0.12,0.21,0.15,0.26,0.15,0.26c0.12,0.18,0.15,0.23,0.15,0.23
			c0.13,0.18,0.16,0.22,0.16,0.22c0.18,0.21,0.21,0.25,0.21,0.25c0.19,0.2,0.23,0.24,0.23,0.24c0.2,0.19,0.25,0.22,0.25,0.22
			c0.22,0.17,0.26,0.21,0.26,0.21c0.18,0.13,0.23,0.16,0.23,0.16c0.19,0.12,0.24,0.15,0.24,0.15c0.19,0.11,0.24,0.14,0.24,0.14
			c0.2,0.1,0.25,0.13,0.25,0.13c0.21,0.09,0.26,0.11,0.26,0.11c0.21,0.08,0.26,0.1,0.26,0.1c0.21,0.07,0.27,0.09,0.27,0.09
			c0.16,0.05,0.22,0.06,0.22,0.06c0.16,0.04,0.22,0.05,0.22,0.05c0.17,0.03,0.22,0.04,0.22,0.04c0.17,0.03,0.22,0.03,0.22,0.03
			c0.17,0.02,0.22,0.03,0.22,0.03c0.17,0.01,0.22,0.02,0.22,0.02c0.17,0.01,0.22,0.01,0.22,0.01c0.17,0,0.22,0,0.22,0
			c0.17-0.01,0.22-0.01,0.22-0.01c0.17-0.02,0.22-0.02,0.22-0.02c0.17-0.02,0.22-0.03,0.22-0.03c0.16-0.03,0.22-0.04,0.22-0.04
			c0.16-0.04,0.22-0.05,0.22-0.05c0.22-0.06,0.27-0.08,0.27-0.08c0.2-0.07,0.25-0.09,0.25-0.09c0.19-0.08,0.24-0.11,0.24-0.11
			c0.19-0.09,0.24-0.12,0.24-0.12c0.18-0.1,0.23-0.13,0.23-0.13c0.18-0.11,0.22-0.14,0.22-0.14c0.21-0.15,0.26-0.19,0.26-0.19
			c0.2-0.17,0.24-0.2,0.24-0.2c0.19-0.18,0.23-0.22,0.23-0.22c0.18-0.19,0.22-0.23,0.22-0.23c0.17-0.2,0.2-0.24,0.2-0.24
			c0.15-0.21,0.18-0.25,0.18-0.25c0.14-0.21,0.16-0.26,0.16-0.26c0.1-0.17,0.12-0.22,0.12-0.22c0.09-0.18,0.11-0.22,0.11-0.22
			c0.07-0.18,0.09-0.22,0.09-0.22c0.06-0.18,0.08-0.23,0.08-0.23c0.05-0.18,0.06-0.23,0.06-0.23c0.03-0.18,0.04-0.23,0.04-0.23
			c0.02-0.18,0.02-0.23,0.02-0.23c0-0.18,0-0.23,0-0.23c-0.01-0.21-0.02-0.23-0.02-0.23c-0.03-0.2-0.04-0.23-0.04-0.23
			c-0.05-0.2-0.06-0.22-0.06-0.22C527.42,376.95,527.41,376.93,527.37,376.85z"/>
	</g>
	<g id="POLYLINE_145_">
		<path class="st2" d="M556.02,377.35c-0.13-0.2-0.14-0.22-0.14-0.22c-0.17-0.2-0.19-0.22-0.19-0.22c-0.2-0.19-0.22-0.2-0.22-0.2
			c-0.19-0.14-0.23-0.17-0.23-0.17c-0.18-0.11-0.23-0.14-0.23-0.14c-0.2-0.1-0.25-0.13-0.25-0.13c-0.21-0.09-0.26-0.11-0.26-0.11
			c-0.16-0.06-0.22-0.08-0.22-0.08c-0.17-0.05-0.23-0.07-0.23-0.07c-0.18-0.05-0.24-0.06-0.24-0.06c-0.18-0.04-0.24-0.05-0.24-0.05
			c-0.18-0.03-0.25-0.05-0.25-0.05c-0.19-0.03-0.25-0.04-0.25-0.04c-0.19-0.02-0.25-0.03-0.25-0.03c-0.19-0.01-0.26-0.02-0.26-0.02
			c-0.19-0.01-0.26-0.01-0.26-0.01c-0.19,0-0.26,0-0.26,0c-0.19,0.01-0.26,0.01-0.26,0.01c-0.19,0.01-0.26,0.02-0.26,0.02
			c-0.19,0.02-0.25,0.03-0.25,0.03c-0.19,0.03-0.25,0.04-0.25,0.04c-0.19,0.03-0.25,0.05-0.25,0.05c-0.18,0.04-0.24,0.06-0.24,0.06
			c-0.18,0.05-0.24,0.07-0.24,0.07c-0.17,0.06-0.23,0.08-0.23,0.08c-0.17,0.06-0.22,0.09-0.22,0.09c-0.21,0.1-0.26,0.12-0.26,0.12
			c-0.2,0.11-0.25,0.14-0.25,0.14c-0.19,0.12-0.23,0.15-0.23,0.15c-0.19,0.15-0.22,0.18-0.22,0.18c-0.2,0.19-0.23,0.23-0.23,0.23
			c-0.18,0.21-0.21,0.25-0.21,0.25c-0.13,0.19-0.16,0.23-0.16,0.23c-0.11,0.2-0.14,0.24-0.14,0.24c-0.1,0.21-0.12,0.25-0.12,0.25
			c-0.08,0.21-0.1,0.26-0.1,0.26c-0.05,0.17-0.07,0.22-0.07,0.22c-0.04,0.18-0.05,0.22-0.05,0.22c-0.03,0.18-0.04,0.23-0.04,0.23
			c-0.02,0.18-0.03,0.23-0.03,0.23c-0.01,0.18-0.02,0.23-0.02,0.23c-0.01,0.18-0.01,0.23-0.01,0.23c0,0.18,0.01,0.23,0.01,0.23
			c0.01,0.18,0.02,0.23,0.02,0.23c0.02,0.18,0.03,0.23,0.03,0.23c0.03,0.18,0.04,0.22,0.04,0.22c0.04,0.18,0.05,0.22,0.05,0.22
			c0.05,0.17,0.06,0.22,0.06,0.22c0.07,0.21,0.09,0.25,0.09,0.25c0.09,0.2,0.1,0.24,0.1,0.24c0.1,0.2,0.12,0.23,0.12,0.23
			c0.11,0.19,0.13,0.22,0.13,0.22c0.14,0.2,0.16,0.23,0.16,0.23c0.18,0.21,0.21,0.24,0.21,0.24c0.2,0.19,0.23,0.22,0.23,0.22
			c0.21,0.17,0.24,0.2,0.24,0.2c0.19,0.13,0.23,0.15,0.23,0.15c0.2,0.12,0.24,0.14,0.24,0.14c0.21,0.1,0.25,0.12,0.25,0.12
			c0.18,0.07,0.22,0.08,0.22,0.08c0.19,0.06,0.23,0.07,0.23,0.07c0.19,0.05,0.23,0.05,0.23,0.05c0.2,0.03,0.24,0.04,0.24,0.04
			c0.2,0.02,0.24,0.02,0.24,0.02c0.2,0,0.24,0,0.24,0c0.21-0.01,0.25-0.01,0.25-0.01c0.21-0.02,0.25-0.03,0.25-0.03
			c0.21-0.04,0.25-0.05,0.25-0.05c0.21-0.05,0.25-0.07,0.25-0.07c0.21-0.07,0.25-0.08,0.25-0.08c0.21-0.08,0.25-0.1,0.25-0.1
			c0.17-0.08,0.22-0.11,0.22-0.11c0.19-0.11,0.24-0.13,0.24-0.13c0.19-0.12,0.24-0.15,0.24-0.15c0.19-0.13,0.23-0.17,0.23-0.17
			c0.18-0.14,0.23-0.18,0.23-0.18c0.18-0.15,0.22-0.19,0.22-0.19c0.13-0.12,0.22-0.2,0.22-0.2c0.17-0.17,0.25-0.26,0.25-0.26
			c0.16-0.18,0.24-0.27,0.24-0.27c0.15-0.19,0.22-0.28,0.22-0.28c0.14-0.19,0.21-0.29,0.21-0.29c0.13-0.2,0.16-0.25,0.16-0.25
			c0.12-0.2,0.15-0.25,0.15-0.25c0.11-0.2,0.13-0.26,0.13-0.26c0.09-0.21,0.12-0.26,0.12-0.26c0.08-0.21,0.1-0.26,0.1-0.26
			c0.07-0.21,0.08-0.26,0.08-0.26c0.05-0.2,0.07-0.25,0.07-0.25c0.04-0.2,0.05-0.25,0.05-0.25c0.02-0.2,0.03-0.25,0.03-0.25
			c0.01-0.19,0.01-0.22,0.01-0.22c-0.01-0.21-0.01-0.24-0.01-0.24c-0.03-0.21-0.04-0.23-0.04-0.23c-0.05-0.2-0.06-0.22-0.06-0.22
			C556.07,377.45,556.06,377.43,556.02,377.35z"/>
	</g>
	<g id="POLYLINE_146_">
		<path class="st2" d="M552.74,404.21c-0.12-0.2-0.15-0.23-0.15-0.23c-0.13-0.18-0.16-0.22-0.16-0.22c-0.17-0.21-0.2-0.24-0.2-0.24
			c-0.19-0.19-0.22-0.22-0.22-0.22c-0.2-0.17-0.23-0.2-0.23-0.2c-0.21-0.15-0.24-0.18-0.24-0.18c-0.18-0.11-0.22-0.14-0.22-0.14
			c-0.19-0.1-0.22-0.12-0.22-0.12c-0.19-0.09-0.23-0.1-0.23-0.1c-0.2-0.07-0.23-0.09-0.23-0.09c-0.2-0.06-0.24-0.07-0.24-0.07
			c-0.2-0.04-0.24-0.05-0.24-0.05c-0.2-0.03-0.24-0.03-0.24-0.03c-0.21-0.01-0.25-0.01-0.25-0.01c-0.21,0-0.25,0.01-0.25,0.01
			c-0.21,0.02-0.25,0.03-0.25,0.03c-0.21,0.04-0.25,0.04-0.25,0.04c-0.2,0.05-0.24,0.07-0.24,0.07c-0.2,0.07-0.24,0.09-0.24,0.09
			c-0.2,0.09-0.24,0.11-0.24,0.11c-0.2,0.11-0.25,0.14-0.25,0.14c-0.18,0.12-0.23,0.15-0.23,0.15c-0.18,0.13-0.22,0.17-0.22,0.17
			c-0.22,0.19-0.26,0.23-0.26,0.23c-0.21,0.21-0.25,0.25-0.25,0.25c-0.16,0.18-0.2,0.23-0.2,0.23c-0.15,0.19-0.19,0.24-0.19,0.24
			c-0.14,0.2-0.18,0.25-0.18,0.25c-0.14,0.21-0.17,0.26-0.17,0.26c-0.1,0.16-0.13,0.22-0.13,0.22c-0.09,0.17-0.12,0.22-0.12,0.22
			c-0.08,0.17-0.11,0.23-0.11,0.23c-0.08,0.17-0.1,0.23-0.1,0.23c-0.07,0.18-0.09,0.23-0.09,0.23c-0.06,0.18-0.08,0.24-0.08,0.24
			c-0.06,0.18-0.08,0.24-0.08,0.24c-0.05,0.18-0.07,0.24-0.07,0.24c-0.04,0.18-0.06,0.24-0.06,0.24c-0.03,0.18-0.04,0.24-0.04,0.24
			c-0.03,0.18-0.03,0.24-0.03,0.24c-0.02,0.18-0.02,0.24-0.02,0.24c-0.01,0.18-0.01,0.24-0.01,0.24c0,0.18,0,0.24,0,0.24
			c0.01,0.17,0.01,0.23,0.01,0.23c0.02,0.17,0.03,0.23,0.03,0.23c0.03,0.17,0.04,0.22,0.04,0.22c0.04,0.16,0.05,0.22,0.05,0.22
			c0.07,0.21,0.08,0.24,0.08,0.24c0.08,0.21,0.09,0.23,0.09,0.23c0.1,0.19,0.11,0.22,0.11,0.22c0.12,0.2,0.15,0.25,0.15,0.25
			c0.16,0.21,0.2,0.25,0.2,0.25c0.18,0.2,0.22,0.23,0.22,0.23c0.2,0.18,0.24,0.22,0.24,0.22c0.17,0.13,0.22,0.17,0.22,0.17
			c0.18,0.12,0.23,0.15,0.23,0.15c0.19,0.11,0.24,0.14,0.24,0.14c0.2,0.1,0.25,0.13,0.25,0.13c0.21,0.09,0.26,0.11,0.26,0.11
			c0.22,0.08,0.27,0.1,0.27,0.1c0.16,0.05,0.22,0.07,0.22,0.07c0.17,0.05,0.22,0.06,0.22,0.06c0.17,0.04,0.23,0.05,0.23,0.05
			c0.17,0.03,0.23,0.04,0.23,0.04c0.17,0.02,0.23,0.03,0.23,0.03c0.17,0.02,0.23,0.02,0.23,0.02c0.17,0.01,0.23,0.01,0.23,0.01
			c0.17,0,0.23,0,0.23,0c0.17-0.01,0.22-0.01,0.22-0.01c0.17-0.01,0.22-0.02,0.22-0.02c0.16-0.02,0.22-0.03,0.22-0.03
			c0.21-0.04,0.27-0.05,0.27-0.05c0.21-0.06,0.26-0.07,0.26-0.07c0.2-0.07,0.25-0.09,0.25-0.09c0.19-0.08,0.24-0.11,0.24-0.11
			c0.18-0.1,0.23-0.12,0.23-0.12c0.22-0.14,0.24-0.16,0.24-0.16c0.2-0.16,0.22-0.18,0.22-0.18c0.19-0.18,0.22-0.22,0.22-0.22
			c0.17-0.2,0.2-0.25,0.2-0.25c0.12-0.18,0.15-0.22,0.15-0.22c0.11-0.19,0.14-0.23,0.14-0.23c0.1-0.2,0.12-0.25,0.12-0.25
			c0.09-0.2,0.11-0.26,0.11-0.26c0.08-0.21,0.09-0.27,0.09-0.27c0.05-0.16,0.06-0.22,0.06-0.22c0.04-0.17,0.06-0.22,0.06-0.22
			c0.04-0.17,0.05-0.23,0.05-0.23c0.03-0.17,0.04-0.23,0.04-0.23c0.02-0.17,0.03-0.23,0.03-0.23c0.02-0.18,0.02-0.24,0.02-0.24
			c0.01-0.18,0.01-0.24,0.01-0.24c0-0.18,0-0.24,0-0.24c0-0.18-0.01-0.24-0.01-0.24c-0.01-0.18-0.02-0.24-0.02-0.24
			c-0.02-0.18-0.02-0.24-0.02-0.24c-0.02-0.18-0.03-0.23-0.03-0.23c-0.03-0.17-0.04-0.23-0.04-0.23c-0.04-0.17-0.05-0.23-0.05-0.23
			c-0.04-0.17-0.06-0.23-0.06-0.23c-0.05-0.17-0.07-0.22-0.07-0.22c-0.06-0.16-0.07-0.22-0.07-0.22c-0.08-0.21-0.1-0.26-0.1-0.26
			c-0.09-0.2-0.12-0.25-0.12-0.25C552.8,404.3,552.77,404.25,552.74,404.21z"/>
	</g>
	<g id="POLYLINE_147_">
		<path class="st2" d="M582.78,366.65c-0.21-0.21-0.24-0.24-0.24-0.24c-0.19-0.16-0.22-0.18-0.22-0.18
			c-0.19-0.14-0.23-0.16-0.23-0.16c-0.2-0.11-0.23-0.13-0.23-0.13c-0.2-0.09-0.23-0.11-0.23-0.11c-0.2-0.07-0.24-0.08-0.24-0.08
			c-0.21-0.05-0.24-0.06-0.24-0.06c-0.21-0.03-0.24-0.03-0.24-0.03c-0.21-0.01-0.24-0.01-0.24-0.01c-0.21,0.01-0.25,0.01-0.25,0.01
			c-0.21,0.03-0.24,0.04-0.24,0.04c-0.21,0.05-0.24,0.06-0.24,0.06c-0.21,0.07-0.24,0.08-0.24,0.08c-0.21,0.09-0.24,0.1-0.24,0.1
			c-0.2,0.11-0.24,0.13-0.24,0.13c-0.2,0.13-0.23,0.15-0.23,0.15c-0.2,0.14-0.23,0.17-0.23,0.17c-0.19,0.16-0.22,0.19-0.22,0.19
			c-0.2,0.19-0.24,0.23-0.24,0.23c-0.16,0.18-0.2,0.22-0.2,0.22c-0.16,0.19-0.2,0.24-0.2,0.24c-0.15,0.2-0.19,0.25-0.19,0.25
			c-0.14,0.21-0.18,0.27-0.18,0.27c-0.1,0.17-0.14,0.22-0.14,0.22c-0.37,0.64-0.61,1.22-0.78,1.79c-0.06,0.2-0.07,0.26-0.07,0.26
			c-0.05,0.2-0.06,0.27-0.06,0.27c-0.04,0.2-0.05,0.27-0.05,0.27c-0.03,0.2-0.04,0.27-0.04,0.27c-0.03,0.2-0.03,0.27-0.03,0.27
			c-0.02,0.2-0.02,0.27-0.02,0.27c-0.01,0.2-0.01,0.27-0.01,0.27c0,0.2,0,0.27,0,0.27c0.01,0.2,0.01,0.26,0.01,0.26
			c0.02,0.2,0.03,0.26,0.03,0.26c0.03,0.19,0.04,0.26,0.04,0.26c0.04,0.19,0.05,0.25,0.05,0.25c0.05,0.19,0.07,0.25,0.07,0.25
			c0.06,0.18,0.08,0.24,0.08,0.24c0.07,0.18,0.09,0.24,0.09,0.24c0.08,0.17,0.11,0.23,0.11,0.23c0.09,0.17,0.12,0.22,0.12,0.22
			c0.13,0.21,0.17,0.26,0.17,0.26c0.15,0.19,0.19,0.24,0.19,0.24c0.16,0.18,0.21,0.23,0.21,0.23c0.18,0.17,0.22,0.22,0.22,0.22
			c0.19,0.16,0.24,0.2,0.24,0.2c0.2,0.15,0.25,0.19,0.25,0.19c0.21,0.14,0.27,0.18,0.27,0.18c0.16,0.1,0.22,0.13,0.22,0.13
			c0.17,0.09,0.23,0.12,0.23,0.12c0.17,0.08,0.23,0.11,0.23,0.11c0.18,0.08,0.24,0.1,0.24,0.1c0.18,0.07,0.24,0.09,0.24,0.09
			c0.18,0.06,0.24,0.08,0.24,0.08c0.18,0.05,0.25,0.07,0.25,0.07c0.19,0.05,0.25,0.06,0.25,0.06c0.19,0.04,0.25,0.05,0.25,0.05
			c0.19,0.03,0.25,0.04,0.25,0.04c0.18,0.02,0.25,0.02,0.25,0.02c0.18,0.01,0.24,0.01,0.24,0.01c0.18,0,0.24,0,0.24,0
			c0.18-0.01,0.24-0.01,0.24-0.01c0.18-0.02,0.23-0.02,0.23-0.02c0.17-0.03,0.23-0.04,0.23-0.04c0.17-0.04,0.22-0.05,0.22-0.05
			c0.21-0.06,0.27-0.08,0.27-0.08c0.2-0.08,0.23-0.09,0.23-0.09c0.19-0.1,0.22-0.11,0.22-0.11c0.21-0.13,0.23-0.14,0.23-0.14
			c0.21-0.16,0.23-0.18,0.23-0.18c0.2-0.2,0.22-0.23,0.22-0.23c0.15-0.2,0.17-0.22,0.17-0.22c0.12-0.19,0.14-0.22,0.14-0.22
			c0.11-0.2,0.12-0.23,0.12-0.23c0.08-0.19,0.09-0.22,0.09-0.22c0.07-0.19,0.09-0.26,0.09-0.26c0.06-0.2,0.08-0.27,0.08-0.27
			c0.05-0.21,0.06-0.29,0.06-0.29c0.03-0.15,0.04-0.22,0.04-0.22c0.26-1.87-0.14-3.73-0.82-5.31c-0.1-0.22-0.13-0.29-0.13-0.29
			c-0.1-0.21-0.14-0.27-0.14-0.27c-0.11-0.2-0.15-0.26-0.15-0.26c-0.11-0.19-0.15-0.25-0.15-0.25c-0.12-0.18-0.16-0.23-0.16-0.23
			C582.99,366.9,582.95,366.85,582.78,366.65z"/>
	</g>
</g>
<g id="AG-ANIMALS">
	<g id="POLYLINE_151_">
		<path class="st61" d="M584.33,434.9c-1.54,1.75-3.17,2.89-5,4.19c-2.24,1.53-4.64,2.94-7.04,4.21c-4.14,2.18-8.49,4.1-12.98,5.42
			c-3.74,1.1-7.66,1.76-11.56,1.97c-4.61,0.26-9.32-0.06-13.91-0.57c-5.79-0.67-11.76-1.71-17.41-3.11c-3.61-0.91-7.28-2-10.72-3.43
			c-2.56-1.08-5.35-2.49-7.29-4.42c-0.2-0.21-0.3-0.32-0.3-0.32c-0.19-0.21-0.27-0.32-0.27-0.32c-0.17-0.21-0.21-0.27-0.21-0.27
			c-0.15-0.21-0.19-0.27-0.19-0.27c-0.14-0.21-0.17-0.27-0.17-0.27c-0.12-0.21-0.15-0.27-0.15-0.27c-0.1-0.21-0.13-0.27-0.13-0.27
			c-0.09-0.21-0.11-0.26-0.11-0.26c-0.07-0.21-0.09-0.26-0.09-0.26c-0.05-0.21-0.07-0.26-0.07-0.26c-0.04-0.21-0.04-0.26-0.04-0.26
			c-0.02-0.21-0.02-0.26-0.02-0.26c0-0.21,0-0.26,0-0.26c0.01-0.21,0.02-0.26,0.02-0.26c0.03-0.2,0.04-0.23,0.04-0.23
			c0.05-0.2,0.06-0.23,0.06-0.23c0.07-0.2,0.08-0.23,0.08-0.23c0.08-0.2,0.11-0.26,0.11-0.26c0.09-0.17,0.12-0.23,0.12-0.23
			c0.1-0.17,0.13-0.23,0.13-0.23c0.11-0.17,0.15-0.22,0.15-0.22c0.13-0.17,0.17-0.22,0.17-0.22c0.14-0.16,0.19-0.22,0.19-0.22
			c0.15-0.16,0.2-0.22,0.2-0.22c0.16-0.16,0.22-0.21,0.22-0.21c0.18-0.16,0.24-0.21,0.24-0.21c0.19-0.16,0.25-0.21,0.25-0.21
			c2.14-1.62,4.39-2.41,6.8-3.16c3.22-0.95,6.62-1.51,9.95-1.93c7.19-0.88,15.03-1.11,22.29-1.29c10.35,0,28.44-0.91,38.56,0.28
			c2.04,0.27,4.35,0.66,6.16,1.53c0.18,0.09,0.27,0.14,0.27,0.14c0.17,0.09,0.25,0.14,0.25,0.14c0.16,0.1,0.24,0.15,0.24,0.15
			c0.15,0.1,0.22,0.15,0.22,0.15c0.21,0.16,0.27,0.21,0.27,0.21c0.19,0.16,0.25,0.22,0.25,0.22c0.17,0.17,0.23,0.22,0.23,0.22
			c0.16,0.17,0.2,0.23,0.2,0.23c0.14,0.17,0.18,0.23,0.18,0.23c0.12,0.18,0.16,0.23,0.16,0.23c0.11,0.18,0.15,0.24,0.15,0.24
			c0.1,0.18,0.13,0.24,0.13,0.24c0.08,0.18,0.11,0.24,0.11,0.24c0.07,0.18,0.1,0.24,0.1,0.24c0.06,0.18,0.08,0.24,0.08,0.24
			c0.05,0.18,0.07,0.24,0.07,0.24c0.04,0.18,0.05,0.24,0.05,0.24c0.04,0.21,0.05,0.26,0.05,0.26c0.03,0.2,0.03,0.25,0.03,0.25
			c0.01,0.2,0.01,0.25,0.01,0.25c0,0.2-0.01,0.25-0.01,0.25c-0.02,0.2-0.03,0.25-0.03,0.25c-0.04,0.21-0.05,0.26-0.05,0.26
			c-0.06,0.21-0.07,0.26-0.07,0.26c-0.08,0.21-0.1,0.27-0.1,0.27c-0.07,0.16-0.1,0.22-0.1,0.22c-0.09,0.17-0.12,0.22-0.12,0.22
			c-0.1,0.17-0.14,0.23-0.14,0.23c-0.11,0.17-0.16,0.23-0.16,0.23c-0.13,0.18-0.18,0.24-0.18,0.24
			C584.38,434.84,584.33,434.9,584.33,434.9z"/>
	</g>
	<g id="POLYLINE_134_">
		<path class="st61" d="M655.83,405.16c-0.27,0.14-0.94,0.51-1.06,0.59c-0.21,0.14-0.26,0.17-0.26,0.17
			c-0.2,0.14-0.25,0.18-0.25,0.18c-0.19,0.15-0.24,0.19-0.24,0.19c-0.2,0.18-0.22,0.21-0.22,0.21c-0.18,0.2-0.19,0.22-0.19,0.22
			c-0.15,0.21-0.17,0.23-0.17,0.23c-0.11,0.2-0.12,0.22-0.12,0.22c-0.08,0.21-0.09,0.24-0.09,0.24c-0.05,0.19-0.05,0.22-0.05,0.22
			c-0.03,0.21-0.03,0.23-0.03,0.23c0,0.22,0,0.26,0,0.26c0.02,0.2,0.03,0.24,0.03,0.24c0.04,0.21,0.05,0.25,0.05,0.25
			c0.06,0.21,0.07,0.26,0.07,0.26c0.06,0.17,0.08,0.22,0.08,0.22c0.07,0.17,0.09,0.22,0.09,0.22c0.08,0.18,0.11,0.22,0.11,0.22
			c0.14,0.26,0.19,0.34,0.25,0.44c0.11,0.17,0.17,0.26,0.17,0.26c0.12,0.17,0.19,0.26,0.19,0.26c0.13,0.17,0.2,0.25,0.2,0.25
			c0.14,0.17,0.22,0.25,0.22,0.25c0.15,0.16,0.23,0.24,0.23,0.24c0.16,0.15,0.24,0.23,0.24,0.23c0.17,0.15,0.25,0.22,0.25,0.22
			c0.17,0.14,0.26,0.21,0.26,0.21c0.18,0.13,0.27,0.2,0.27,0.2c0.18,0.12,0.28,0.18,0.28,0.18c0.19,0.11,0.24,0.14,0.24,0.14
			c0.19,0.1,0.24,0.13,0.24,0.13c0.19,0.09,0.25,0.11,0.25,0.11c0.21,0.09,0.26,0.11,0.26,0.11c0.21,0.07,0.27,0.09,0.27,0.09
			c0.21,0.06,0.27,0.08,0.27,0.08c0.16,0.04,0.22,0.05,0.22,0.05c0.16,0.03,0.22,0.04,0.22,0.04c0.16,0.02,0.22,0.03,0.22,0.03
			c0.16,0.02,0.22,0.02,0.22,0.02c0.17,0.01,0.22,0.01,0.22,0.01c0.17,0,0.22,0,0.22,0c0.17,0,0.22,0,0.22,0
			c0.17-0.01,0.22-0.01,0.22-0.01c0.17-0.02,0.22-0.02,0.22-0.02c0.17-0.02,0.22-0.03,0.22-0.03c0.17-0.03,0.22-0.04,0.22-0.04
			c0.68-0.13,1.24-0.35,1.76-0.6c0.22-0.11,0.32-0.17,0.32-0.17c0.21-0.12,0.32-0.18,0.32-0.18c0.21-0.13,0.31-0.2,0.31-0.2
			c0.21-0.14,0.31-0.21,0.31-0.21c0.2-0.15,0.31-0.23,0.31-0.23c1.11-0.9,1.79-1.71,2.62-2.72c1.32-1.65,2.94-3.95,4.57-5.23
			c0.19-0.15,0.26-0.2,0.26-0.2c0.2-0.14,0.26-0.19,0.26-0.19c0.21-0.14,0.31-0.2,0.31-0.2c0.21-0.13,0.32-0.19,0.32-0.19
			c1.47-0.84,3.05-1.19,4.53-1.8c0.16-0.07,0.23-0.1,0.23-0.1c0.21-0.11,0.25-0.13,0.25-0.13c0.19-0.12,0.23-0.14,0.23-0.14
			c0.21-0.15,0.22-0.16,0.22-0.16c0.21-0.2,0.22-0.22,0.22-0.22c0.15-0.2,0.16-0.22,0.16-0.22c0.11-0.21,0.11-0.22,0.11-0.22
			c0.07-0.2,0.07-0.22,0.07-0.22c0.04-0.2,0.04-0.22,0.04-0.22c0.02-0.21,0.02-0.23,0.02-0.23c0-0.2,0-0.24,0-0.24
			c-0.02-0.19-0.02-0.23-0.02-0.23c-0.03-0.2-0.04-0.25-0.04-0.25c-0.04-0.21-0.06-0.26-0.06-0.26c-0.06-0.22-0.07-0.28-0.07-0.28
			c-0.44-1.43-1.11-2.56-1.83-3.72c-0.84-1.31-1.81-2.57-2.83-3.75c-4.97-5.77-11.99-9.26-18.8-12.41
			c-12.38-5.44-42.57-18.75-54.5-24.23c-6.11-2.66-12.66-5.33-18.97-7.39c-5.1-1.66-10.58-3.09-15.82-4.2
			c-6.77-1.45-14.5-2.63-21.38-3.6c-11.82-1.66-24.5-3.11-36.4-3.84c-13.71-0.9-28.23-1.01-41.98-0.64
			c-57.85,1.63-135.11,11.01-193.15,15.54c-3.77,0.26-11.71,0.78-15.56,0.87c-3.41,0.09-6.96,0.13-10.36-0.27
			c-2.16-0.25-4.32-0.72-6.4-1.36c-3.74-1.16-8.1-2.84-12-2.38c-4.36,0.5-8.78,3.39-10.5,7.25c-0.07,0.18-0.11,0.27-0.11,0.27
			c-0.41,1.08-0.55,2.13-0.51,3.13c0.01,0.22,0.02,0.29,0.02,0.29c0.02,0.21,0.03,0.29,0.03,0.29c0.03,0.21,0.04,0.28,0.04,0.28
			c0.04,0.21,0.05,0.28,0.05,0.28c0.04,0.21,0.06,0.28,0.06,0.28c0.05,0.2,0.07,0.27,0.07,0.27c0.06,0.2,0.08,0.27,0.08,0.27
			c0.07,0.2,0.09,0.26,0.09,0.26c0.07,0.19,0.1,0.26,0.1,0.26c0.08,0.19,0.11,0.25,0.11,0.25c0.09,0.18,0.12,0.24,0.12,0.24
			c0.1,0.18,0.13,0.24,0.13,0.24c0.1,0.17,0.14,0.23,0.14,0.23c0.11,0.17,0.15,0.22,0.15,0.22c0.16,0.21,0.2,0.27,0.2,0.27
			c0.17,0.2,0.21,0.25,0.21,0.25c0.18,0.19,0.22,0.24,0.22,0.24c0.19,0.18,0.23,0.22,0.23,0.22c0.2,0.17,0.25,0.21,0.25,0.21
			c0.21,0.16,0.26,0.19,0.26,0.19c0.16,0.11,0.22,0.14,0.22,0.14c0.2,0.12,0.27,0.16,0.27,0.16c0.21,0.11,0.29,0.14,0.29,0.14
			c0.15,0.06,0.22,0.09,0.22,0.09c0.15,0.06,0.23,0.09,0.23,0.09c0.15,0.05,0.23,0.08,0.23,0.08c0.16,0.05,0.24,0.07,0.24,0.07
			c1.31,0.35,2.66,0.32,3.82,0.22c1.57-0.14,2.93-0.4,4.43-0.71c5.56-1.23,13.08-2.52,18.33-4.64"/>
	</g>
	<g id="POLYLINE_133_">
		<path class="st61" d="M422.98,448.53c0.06,0.16,0.08,0.24,0.08,0.24c0.05,0.17,0.08,0.25,0.08,0.25c0.05,0.17,0.07,0.26,0.07,0.26
			c0.32,1.44,0.29,2.56,0.22,3.91c-0.1,1.51-0.35,3.06-0.65,4.55c-1.62,7.91-5.85,19.5-8.31,27.29c-1.76,5.43-3.9,14.31-5.45,19.87
			c-0.6,2.08-1.3,4.26-2.1,6.27c-0.88,2.21-1.95,4.38-3.26,6.37c-1.17,1.79-2.55,3.46-4.06,4.97c-1.91,1.91-4.05,3.62-6.42,4.92
			c-1.69,0.92-3.7,1.72-5.57,1.74c-0.16,0-0.24,0-0.24,0c-0.16-0.01-0.24-0.01-0.24-0.01c-0.16-0.01-0.23-0.02-0.23-0.02
			c-0.15-0.02-0.23-0.03-0.23-0.03c-0.15-0.02-0.23-0.04-0.23-0.04c-0.15-0.03-0.22-0.04-0.22-0.04c-0.15-0.03-0.22-0.05-0.22-0.05
			c-0.15-0.04-0.22-0.06-0.22-0.06c-0.22-0.07-0.29-0.09-0.29-0.09c-0.21-0.08-0.28-0.11-0.28-0.11c-0.21-0.09-0.28-0.12-0.28-0.12
			c-0.21-0.1-0.27-0.13-0.27-0.13c-0.2-0.11-0.27-0.15-0.27-0.15c-0.2-0.12-0.27-0.16-0.27-0.16c-1.52-0.97-2.5-2.09-3.64-3.36
			c-2.55-3.02-5.69-6.78-8.09-9.9c-4.17-5.42-8.11-11.15-10.98-17.38c-2.91-6.4-4.77-13.39-4.83-20.44
			c-0.08-6.73,1.8-14.52,7.36-18.73c2.01-1.51,4.13-2.34,6.48-3.06c4.78-1.38,10.98-2.36,15.77-3.7c5.87-1.58,15.27-4.36,21.11-5.58
			c2.14-0.45,4.39-0.84,6.57-1.02c1.91-0.16,4.09-0.16,5.8,0.41c0.16,0.06,0.24,0.08,0.24,0.08c0.16,0.06,0.23,0.09,0.23,0.09
			c0.15,0.07,0.23,0.1,0.23,0.1c0.15,0.07,0.22,0.11,0.22,0.11c0.21,0.12,0.28,0.16,0.28,0.16c0.2,0.13,0.27,0.17,0.27,0.17
			c0.19,0.14,0.26,0.18,0.26,0.18c0.18,0.15,0.24,0.2,0.24,0.2c0.17,0.16,0.23,0.22,0.23,0.22c0.16,0.17,0.21,0.23,0.21,0.23
			c0.15,0.18,0.2,0.25,0.2,0.25c0.14,0.2,0.18,0.26,0.18,0.26c0.13,0.21,0.17,0.28,0.17,0.28c0.08,0.15,0.12,0.22,0.12,0.22
			c0.07,0.15,0.11,0.23,0.11,0.23C422.91,448.37,422.95,448.45,422.98,448.53z"/>
	</g>
	<g id="POLYLINE_132_">
		<path class="st61" d="M219.68,362.38c-3.03,0.35-7.23,0.87-10.23,1c-3.28,0.18-6.85,0.16-10.14,0.09
			c-11.65-0.27-24.33-1.26-35.94-2.55c-3-0.26-6.42-0.51-9.24,0.66c-0.2,0.09-0.3,0.13-0.3,0.13c-0.2,0.09-0.3,0.14-0.3,0.14
			c-0.2,0.1-0.29,0.15-0.29,0.15c-0.19,0.11-0.29,0.17-0.29,0.17c-0.19,0.12-0.28,0.18-0.28,0.18c-0.19,0.12-0.28,0.19-0.28,0.19
			c-0.18,0.13-0.27,0.2-0.27,0.2c-0.2,0.16-0.3,0.24-0.3,0.24c-0.21,0.18-0.31,0.27-0.31,0.27c-0.2,0.19-0.3,0.29-0.3,0.29
			c-0.2,0.2-0.3,0.31-0.3,0.31c-1.22,1.31-1.92,2.58-2.67,4.08c-0.74,1.55-1.32,3.19-1.78,4.85c-1.7,6.28-2.04,12.92-1.37,19.38
			c0.75,6.56,2.73,13.7,7.48,18.46c2.8,2.75,6.21,4.21,9.92,5.01c4.87,1.02,9.96,0.83,14.84-0.04c3.96-0.71,8.68-2.06,12.64-2.77
			c3.06-0.56,6.21-0.88,9.32-0.95c9.29-0.18,18.63,0.95,27.73,2.76c4.39,0.9,8.85,2.02,13.09,3.49c4.82,1.63,10.95,4.41,15.76,6.06
			c7.79,2.78,17.33,3.74,25.37,5.6c2.49,0.58,5.04,1.28,7.4,2.28c1.98,0.83,3.86,1.92,5.65,3.1c1.54,1.02,3.81,2.65,5.41,3.49
			c1.33,0.72,2.69,1.19,3.99,1.51c1.25,0.3,2.55,0.49,3.83,0.63c0,0,0.85,0.09,0.85,0.09s0.89,0.08,0.89,0.08s25.16,1.82,25.16,1.82
			c7.57,0.66,18.96,1.73,26.41,2.68c8.78,1.08,22.33,3.19,31.16,4.59"/>
	</g>
	<g id="POLYLINE_131_">
		<path class="st61" d="M243.15,419.21c-5.33-0.15-10.66,1.02-15.79,2.35c-1.49,0.4-3.51,0.92-4.97,1.37
			c-1.14,0.35-2.5,0.82-3.48,1.38c-0.17,0.1-0.22,0.13-0.22,0.13c-0.21,0.14-0.26,0.17-0.26,0.17c-0.2,0.14-0.24,0.18-0.24,0.18
			c-0.18,0.15-0.22,0.18-0.22,0.18c-0.2,0.19-0.24,0.23-0.24,0.23c-0.17,0.2-0.19,0.22-0.19,0.22c-0.14,0.21-0.16,0.23-0.16,0.23
			c-0.12,0.21-0.13,0.24-0.13,0.24c-0.08,0.2-0.09,0.22-0.09,0.22c-0.05,0.2-0.06,0.23-0.06,0.23c-0.03,0.22-0.03,0.24-0.03,0.24
			c-0.01,0.19-0.01,0.22-0.01,0.22c0.01,0.2,0.01,0.23,0.01,0.23c0.03,0.21,0.04,0.27,0.04,0.27c0.04,0.18,0.05,0.25,0.05,0.25
			c0.05,0.19,0.07,0.25,0.07,0.25c0.06,0.19,0.08,0.26,0.08,0.26c0.44,1.17,0.95,1.98,1.55,2.99c0.91,1.51,2.09,3.42,2.85,5
			c1.52,3.11,2.47,6.53,3.31,9.88c1.18,4.85,2.67,12.08,4.29,16.72c1.04,3.04,2.39,6.04,3.98,8.83c1.27,2.22,2.73,4.4,4.36,6.37
			c1.48,1.77,3.25,3.55,5.05,4.64c0.21,0.12,0.31,0.18,0.31,0.18c0.21,0.11,0.31,0.16,0.31,0.16c0.21,0.1,0.31,0.15,0.31,0.15
			c0.21,0.09,0.31,0.13,0.31,0.13c0.21,0.08,0.31,0.12,0.31,0.12c0.21,0.07,0.32,0.1,0.32,0.1c0.21,0.06,0.32,0.09,0.32,0.09
			c0.21,0.05,0.32,0.07,0.32,0.07c0.78,0.15,1.43,0.15,2.1,0.07c1.79-0.22,3.44-1.03,4.83-1.83c1.67-0.99,3.04-2.03,4.5-3.24
			c3.25-2.71,6.33-5.85,9.18-8.97c6.02-6.66,11.62-13.87,16.44-21.45c3.05-4.81,5.8-9.98,8.23-15.13"/>
	</g>
	<g id="POLYLINE_130_">
		<path class="st61" d="M178.55,415.35c-15.64,6.54-30.48,15.39-44.72,24.55c-5.91,3.78-11.91,8.22-17.88,11.87
			c-6.91,4.22-14.26,7.95-21.84,10.8c-2.14,0.8-4.37,1.55-6.59,2.07c-1.64,0.38-3.6,0.7-5.18,0.49c-0.15-0.02-0.22-0.04-0.22-0.04
			c-0.21-0.04-0.28-0.06-0.28-0.06c-0.23-0.06-0.43-0.12-0.53-0.15c-0.19-0.06-0.25-0.09-0.25-0.09c-0.19-0.07-0.25-0.09-0.25-0.09
			c-0.18-0.07-0.24-0.1-0.24-0.1c-0.17-0.08-0.23-0.11-0.23-0.11c-0.17-0.09-0.23-0.12-0.23-0.12c-0.16-0.09-0.22-0.12-0.22-0.12
			c-0.21-0.13-0.26-0.16-0.26-0.16c-0.2-0.14-0.25-0.18-0.25-0.18c-0.19-0.15-0.24-0.19-0.24-0.19c-0.19-0.16-0.23-0.2-0.23-0.2
			c-0.18-0.17-0.22-0.21-0.22-0.21c-0.17-0.18-0.21-0.22-0.21-0.22c-0.16-0.19-0.2-0.23-0.2-0.23c-0.15-0.2-0.19-0.25-0.19-0.25
			c-0.14-0.21-0.18-0.26-0.18-0.26c-0.13-0.21-0.17-0.27-0.17-0.27c-0.09-0.17-0.12-0.22-0.12-0.22c-0.09-0.17-0.12-0.23-0.12-0.23
			c-0.89-1.86-0.99-3.93-0.93-5.82c0.1-2.35,0.53-4.69,1.09-6.97c0.96-3.94,2.33-7.82,4.03-11.49c3.3-7.18,7.86-13.94,12.5-20.32
			c2.22-3.02,4.98-6.52,7.39-9.38c1.84-2.2,3.69-4.55,5.26-6.95c1.39-2.1,2.83-4.65,3.58-6.98c0.9-2.8,1.01-5.72,0.57-8.44
			c-0.58-3.46-1.98-6.37-3.72-9.32c-1.34-2.24-2.92-4.46-4.51-6.53c-1.3-1.7-2.87-3.53-4.19-5.22c-4.29-5.52-7.92-11.63-10.5-18.14
			c-2.54-6.46-3.94-13.35-4.57-20.25c-0.24-2.51-0.45-5.23-0.48-7.76c-0.01-1.7,0.03-3.63,0.39-5.24c0.05-0.19,0.06-0.25,0.06-0.25
			c0.05-0.18,0.07-0.23,0.07-0.23c0.06-0.16,0.07-0.22,0.07-0.22c0.08-0.21,0.1-0.26,0.1-0.26c0.09-0.2,0.11-0.25,0.11-0.25
			c0.1-0.19,0.12-0.24,0.12-0.24c0.11-0.18,0.14-0.23,0.14-0.23c0.12-0.17,0.15-0.22,0.15-0.22c0.16-0.21,0.19-0.25,0.19-0.25
			c0.17-0.2,0.21-0.23,0.21-0.23c0.19-0.18,0.23-0.22,0.23-0.22c0.2-0.17,0.24-0.2,0.24-0.2c0.22-0.16,0.26-0.19,0.26-0.19
			c0.18-0.12,0.23-0.15,0.23-0.15c0.19-0.11,0.24-0.14,0.24-0.14c0.2-0.1,0.25-0.13,0.25-0.13c0.21-0.1,0.26-0.12,0.26-0.12
			c0.16-0.07,0.22-0.09,0.22-0.09c4.14-1.46,8.31,0.17,11.91,1.99c3.25,1.66,6.43,3.88,9.42,5.98c6.91,4.85,13.58,10.58,20.17,15.84
			c5.55,4.34,11.48,8.47,17.57,12c8.43,4.95,17.49,9.27,26.6,12.84c3.78,1.45,7.78,2.91,11.72,3.85c3.79,0.91,7.75,1.45,11.64,1.63"
			/>
	</g>
	<g id="POLYLINE_108_">
		<path class="st61" d="M607.96,389.58c-1.47,2.21-2.69,4.72-2.81,7.34c0,0.21,0,0.32,0,0.32c0,0.21,0.01,0.31,0.01,0.31
			c0.07,1.4,0.43,2.63,0.62,3.9c0.16,0.99,0.21,2.02,0.11,2.9c-0.29,2.7-1.3,5.62-1.74,8.28c-0.28,1.61-0.39,3.28-0.19,4.73
			c0.28,2.23,1.16,4.29,2.47,5.88c0.18,0.21,0.24,0.29,0.24,0.29c0.19,0.21,0.25,0.28,0.25,0.28c0.2,0.2,0.27,0.27,0.27,0.27
			c0.21,0.2,0.28,0.26,0.28,0.26c1.69,1.54,3.66,2.31,5.7,2.79c1.7,0.39,3.47,0.56,5.22,0.61c4.74,0.12,9.55-0.56,14.2-1.41
			c11.19-2.04,21.97-6.08,32.14-11.1c2.87-1.43,5.84-3.04,8.54-4.76c1.77-1.14,3.8-2.54,5.18-4.06c0.15-0.18,0.23-0.26,0.23-0.26
			c0.14-0.17,0.21-0.26,0.21-0.26c0.13-0.17,0.19-0.26,0.19-0.26c0.14-0.21,0.17-0.25,0.17-0.25c0.12-0.21,0.14-0.25,0.14-0.25
			c0.1-0.21,0.12-0.25,0.12-0.25c0.09-0.21,0.1-0.26,0.1-0.26c0.07-0.21,0.08-0.25,0.08-0.25c0.05-0.21,0.05-0.25,0.05-0.25
			c0.02-0.2,0.03-0.24,0.03-0.24c0-0.2,0-0.24,0-0.24c-0.02-0.21-0.02-0.23-0.02-0.23c-0.04-0.21-0.05-0.23-0.05-0.23
			c-0.06-0.18-0.07-0.22-0.07-0.22c-0.09-0.22-0.11-0.25-0.11-0.25c-0.12-0.21-0.14-0.24-0.14-0.24c-0.14-0.19-0.17-0.23-0.17-0.23
			c-0.16-0.19-0.2-0.22-0.2-0.22c-0.18-0.18-0.22-0.21-0.22-0.21c-0.2-0.17-0.24-0.2-0.24-0.2c-0.17-0.13-0.22-0.16-0.22-0.16
			c-0.18-0.12-0.23-0.14-0.23-0.14c-0.19-0.11-0.24-0.13-0.24-0.13c-0.19-0.1-0.24-0.12-0.24-0.12c-0.2-0.09-0.25-0.11-0.25-0.11
			c-0.2-0.08-0.25-0.09-0.25-0.09c-0.2-0.06-0.25-0.08-0.25-0.08c-0.2-0.05-0.25-0.06-0.25-0.06"/>
	</g>
	<g id="POLYLINE_107_">
		<path class="st61" d="M597.86,374.02c-2.75,1.59-5.54,3.53-7.55,6c-1.2,1.48-1.93,2.89-2.71,4.54c-0.81,1.73-2,4.49-2.92,6.1
			c-0.73,1.31-1.63,2.66-2.5,3.88c-1.42,2.05-3.32,4.47-4.52,6.62c-0.86,1.48-1.67,3.26-1.98,4.9c-1.27,6.36,4.23,12.92,8.1,17.43
			c2.49,2.84,5.24,5.53,8.38,7.64c3.55,2.38,7.61,4.07,11.84,4.73c4.85,0.79,9.75-0.34,14.4-1.66c7.82-2.28,15.59-5.26,22.43-9.74"
			/>
	</g>
	<g id="POLYLINE_106_">
		<path class="st61" d="M423.31,454.46c7.56,0.82,56.04,5.3,63.54,5.92c2.64,0.2,6.23,0.41,8.88,0.5
			c6.31,0.23,12.84,0.15,19.13-0.36c13.75-1.1,27.61-3.73,40.98-7.07c9.28-2.35,18.76-5.18,27.73-8.5
			c7.05-2.59,14.35-5.77,21.14-8.99"/>
	</g>
	<g id="POLYLINE_105_">
		<path class="st61" d="M375.55,339.99c-11.13-3.61-27.92-9.19-38.76-13.25l-43.78-16.79c-0.46-0.18-1.18-0.46-1.63-0.66
			c-0.98-0.41-2.17-0.99-2.95-1.53c-0.2-0.14-0.26-0.18-0.26-0.18c-0.19-0.14-0.25-0.19-0.25-0.19c-0.18-0.14-0.23-0.19-0.23-0.19
			c-0.16-0.15-0.22-0.2-0.22-0.2c-0.2-0.2-0.25-0.26-0.25-0.26c-0.18-0.21-0.23-0.27-0.23-0.27c-0.12-0.16-0.16-0.22-0.16-0.22
			c-0.11-0.17-0.15-0.23-0.15-0.23c-0.1-0.18-0.13-0.24-0.13-0.24c-0.09-0.18-0.11-0.24-0.11-0.24c-0.07-0.19-0.09-0.22-0.09-0.22
			c-0.05-0.16-0.07-0.23-0.07-0.23c-0.05-0.2-0.07-0.27-0.07-0.27c-0.04-0.2-0.05-0.27-0.05-0.27c-0.03-0.21-0.03-0.28-0.03-0.28
			c-0.14-1.68,0.34-3.57,0.58-5.17c0.14-0.89,0.26-2.07,0.23-2.86c-0.01-0.52-0.07-0.96-0.13-1.31c-0.03-0.17-0.05-0.26-0.05-0.26
			c-0.04-0.17-0.06-0.25-0.06-0.25c-0.05-0.17-0.07-0.25-0.07-0.25c-0.05-0.16-0.08-0.25-0.08-0.25c-0.06-0.16-0.09-0.24-0.09-0.24
			c-0.88-2.13-2.47-3.64-3.89-5.32c-0.31-0.36-0.77-0.94-0.98-1.26c-0.12-0.18-0.16-0.24-0.16-0.24c-0.11-0.18-0.15-0.24-0.15-0.24
			c-0.1-0.18-0.13-0.24-0.13-0.24c-0.09-0.18-0.11-0.24-0.11-0.24c-0.08-0.21-0.1-0.24-0.1-0.24c-0.07-0.21-0.08-0.23-0.08-0.23
			c-0.05-0.2-0.06-0.23-0.06-0.23c-0.03-0.18-0.03-0.23-0.03-0.23c-0.01-0.18-0.01-0.23-0.01-0.23c0-0.18,0-0.23,0-0.23
			c0.02-0.18,0.02-0.23,0.02-0.23c0.03-0.18,0.04-0.23,0.04-0.23c0.04-0.18,0.05-0.23,0.05-0.23c0.05-0.18,0.07-0.28,0.07-0.28
			c0.05-0.19,0.11-0.37,0.11-0.37l0.39-1.16c0.1-0.3,0.15-0.52,0.18-0.61c0.05-0.21,0.07-0.32,0.07-0.32
			c0.03-0.16,0.04-0.22,0.04-0.22c0.03-0.16,0.03-0.22,0.03-0.22c0.02-0.17,0.02-0.22,0.02-0.22c0.01-0.17,0.01-0.23,0.01-0.23
			c0-0.17,0-0.23,0-0.23c0-0.18-0.01-0.24-0.01-0.24c-0.01-0.18-0.02-0.24-0.02-0.24c-0.02-0.19-0.03-0.25-0.03-0.25
			c-0.04-0.19-0.05-0.25-0.05-0.25c-0.05-0.19-0.06-0.26-0.06-0.26c-0.06-0.19-0.08-0.26-0.08-0.26c-0.07-0.19-0.09-0.26-0.09-0.26
			c-0.08-0.2-0.11-0.26-0.11-0.26c-0.47-1.06-1.03-1.88-1.63-2.7c-0.79-1.07-1.72-2.15-2.61-3.14c-1.23-1.37-5.42-5.74-6.6-7.1
			c-1.03-1.18-2.22-2.61-2.93-3.94c-0.1-0.19-0.13-0.25-0.13-0.25c-0.09-0.18-0.11-0.24-0.11-0.24c-0.08-0.18-0.1-0.24-0.1-0.24
			c-0.06-0.17-0.08-0.23-0.08-0.23c-0.05-0.17-0.07-0.22-0.07-0.22c-0.04-0.16-0.05-0.22-0.05-0.22c-0.04-0.2-0.04-0.23-0.04-0.23
			c-0.02-0.2-0.02-0.23-0.02-0.23c0-0.19,0-0.22,0-0.22c0.01-0.21,0.02-0.24,0.02-0.24c0.03-0.21,0.04-0.23,0.04-0.23
			c0.05-0.2,0.05-0.23,0.05-0.23c0.05-0.17,0.07-0.22,0.07-0.22c0.08-0.19,0.1-0.24,0.1-0.24c0.09-0.19,0.12-0.23,0.12-0.23
			c0.11-0.18,0.13-0.23,0.13-0.23c0.12-0.18,0.15-0.23,0.15-0.23c0.13-0.18,0.2-0.27,0.2-0.27c0.3-0.4,1.04-1.25,1.22-1.47
			c0.24-0.29,0.4-0.51,0.47-0.6c0.23-0.32,0.27-0.38,0.37-0.54c0.1-0.17,0.14-0.23,0.14-0.23c0.1-0.18,0.13-0.24,0.13-0.24
			c0.09-0.18,0.12-0.24,0.12-0.24c0.09-0.19,0.12-0.25,0.12-0.25c0.08-0.2,0.11-0.28,0.11-0.28c0.4-1.09,0.53-2.12,0.66-3.13
			c0,0,0.24-2.35,0.24-2.35c0.03-0.32,0.12-0.93,0.17-1.18c0.04-0.2,0.06-0.27,0.06-0.27c0.05-0.19,0.06-0.25,0.06-0.25
			c0.05-0.18,0.07-0.23,0.07-0.23c0.06-0.17,0.08-0.22,0.08-0.22c0.09-0.2,0.1-0.22,0.1-0.22c0.11-0.2,0.13-0.22,0.13-0.22
			c0.16-0.2,0.18-0.22,0.18-0.22c0.2-0.17,0.22-0.18,0.22-0.18c0.2-0.09,0.22-0.1,0.22-0.1c0.19-0.05,0.22-0.05,0.22-0.05
			c0.21-0.01,0.24-0.01,0.24-0.01c0.2,0.01,0.23,0.02,0.23,0.02c0.22,0.04,0.25,0.04,0.25,0.04c0.16,0.04,0.23,0.06,0.23,0.06
			c0.2,0.06,0.27,0.09,0.27,0.09c1.54,0.57,2.95,1.5,4.35,2.25c0.64,0.35,1.56,0.8,2.13,1.01c0.25,0.1,0.42,0.15,0.51,0.18
			c0.16,0.05,0.25,0.07,0.25,0.07c0.16,0.04,0.24,0.06,0.24,0.06c0.16,0.03,0.24,0.05,0.24,0.05c0.19,0.03,0.23,0.04,0.23,0.04
			c0.19,0.02,0.23,0.02,0.23,0.02c0.18,0.01,0.22,0.01,0.22,0.01c0.21-0.01,0.25-0.01,0.25-0.01c0.2-0.03,0.22-0.03,0.22-0.03
			c0.21-0.05,0.23-0.06,0.23-0.06c0.2-0.07,0.23-0.08,0.23-0.08c0.19-0.09,0.22-0.1,0.22-0.1c0.19-0.1,0.23-0.13,0.23-0.13
			c0.18-0.12,0.22-0.15,0.22-0.15c0.21-0.17,0.26-0.2,0.26-0.2c0.21-0.19,0.25-0.23,0.25-0.23c0.2-0.2,0.28-0.28,0.28-0.28
			c0.54-0.6,1.19-1.45,1.59-1.86c0.2-0.2,0.24-0.24,0.24-0.24c0.2-0.19,0.25-0.22,0.25-0.22c0.21-0.17,0.25-0.2,0.25-0.2
			c0.18-0.12,0.22-0.15,0.22-0.15c0.21-0.11,0.23-0.13,0.23-0.13c0.21-0.09,0.24-0.1,0.24-0.1c0.2-0.06,0.22-0.07,0.22-0.07
			c0.2-0.04,0.23-0.05,0.23-0.05c0.21-0.02,0.25-0.03,0.25-0.03c0.18-0.01,0.22-0.01,0.22-0.01c0.19,0.01,0.23,0.01,0.23,0.01
			c0.19,0.02,0.23,0.03,0.23,0.03c0.16,0.02,0.24,0.04,0.24,0.04c0.16,0.03,0.24,0.05,0.24,0.05c0.17,0.04,0.25,0.06,0.25,0.06
			c1.85,0.55,3.64,1.68,5.31,2.53c0.92,0.48,2.06,1.01,2.93,1.23c0.17,0.04,0.25,0.06,0.25,0.06c0.17,0.03,0.25,0.05,0.25,0.05
			c0.2,0.03,0.24,0.04,0.24,0.04c0.2,0.02,0.24,0.02,0.24,0.02c0.19,0.01,0.23,0.01,0.23,0.01c0.19-0.01,0.22-0.01,0.22-0.01
			c0.2-0.02,0.22-0.02,0.22-0.02c0.19-0.03,0.24-0.05,0.24-0.05c0.21-0.06,0.26-0.07,0.26-0.07c0.2-0.07,0.25-0.09,0.25-0.09
			c0.2-0.09,0.25-0.11,0.25-0.11c0.19-0.1,0.24-0.13,0.24-0.13c0.19-0.11,0.23-0.14,0.23-0.14c0.18-0.12,0.27-0.18,0.27-0.18
			c0.55-0.39,1.31-1.08,1.66-1.38c0.26-0.22,0.44-0.36,0.53-0.42c0.18-0.13,0.27-0.2,0.27-0.2c0.19-0.12,0.23-0.15,0.23-0.15
			c0.19-0.11,0.24-0.14,0.24-0.14c0.19-0.1,0.24-0.12,0.24-0.12c0.2-0.09,0.25-0.11,0.25-0.11c0.21-0.07,0.26-0.09,0.26-0.09
			c0.21-0.06,0.27-0.07,0.27-0.07c0.2-0.04,0.24-0.04,0.24-0.04c0.21-0.02,0.24-0.03,0.24-0.03c0.21-0.01,0.29-0.01,0.29-0.01
			c0.15,0,0.22,0,0.22,0c0.15,0.01,0.22,0.01,0.22,0.01c0.15,0.01,0.23,0.02,0.23,0.02c1.13,0.15,2,0.46,2.95,0.8
			c1.63,0.6,3.76,1.56,5.42,1.79c0.15,0.02,0.22,0.03,0.22,0.03c0.15,0.01,0.22,0.02,0.22,0.02c0.19,0.01,0.24,0.01,0.24,0.01
			c0.17,0,0.22,0,0.22,0c0.16-0.01,0.22-0.01,0.22-0.01c0.21-0.02,0.27-0.03,0.27-0.03c0.21-0.03,0.26-0.04,0.26-0.04
			c0.21-0.04,0.26-0.05,0.26-0.05c0.2-0.05,0.3-0.08,0.3-0.08c0.2-0.06,0.3-0.09,0.3-0.09c1.02-0.34,2.12-0.92,2.97-1.17
			c0.2-0.06,0.3-0.09,0.3-0.09c0.2-0.05,0.31-0.07,0.31-0.07c0.21-0.04,0.26-0.05,0.26-0.05c0.21-0.03,0.27-0.04,0.27-0.04
			c0.16-0.02,0.22-0.02,0.22-0.02c0.18-0.01,0.25-0.01,0.25-0.01c0.21,0,0.28,0,0.28,0c0.21,0.01,0.28,0.01,0.28,0.01
			c2.6,0.23,5.05,1.48,7.57,1.79c0.22,0.02,0.29,0.03,0.29,0.03c0.21,0.01,0.28,0.02,0.28,0.02c0.21,0.01,0.28,0.01,0.28,0.01
			c0.2,0,0.27-0.01,0.27-0.01c0.2-0.02,0.26-0.02,0.26-0.02c0.21-0.03,0.26-0.04,0.26-0.04c0.2-0.04,0.25-0.05,0.25-0.05
			c0.2-0.05,0.25-0.06,0.25-0.06c0.19-0.06,0.24-0.08,0.24-0.08c0.19-0.07,0.28-0.11,0.28-0.11c0.18-0.08,0.28-0.12,0.28-0.12
			c0.86-0.4,1.79-0.99,2.49-1.29c0.19-0.08,0.28-0.11,0.28-0.11c0.19-0.07,0.24-0.08,0.24-0.08c0.19-0.06,0.24-0.07,0.24-0.07
			c0.2-0.05,0.25-0.06,0.25-0.06c0.2-0.04,0.26-0.05,0.26-0.05c0.21-0.03,0.26-0.03,0.26-0.03c0.16-0.01,0.22-0.02,0.22-0.02
			c0.17,0,0.22,0,0.22,0c0.21,0.01,0.29,0.01,0.29,0.01c0.16,0.01,0.24,0.02,0.24,0.02c0.17,0.02,0.25,0.03,0.25,0.03
			c3.17,0.6,6.06,2.6,9.08,3.42c0.35,0.09,0.61,0.14,0.79,0.18c0.17,0.03,0.25,0.04,0.25,0.04c0.17,0.02,0.25,0.03,0.25,0.03
			c0.16,0.01,0.24,0.01,0.24,0.01c0.2,0,0.24,0,0.24,0c0.19-0.01,0.23-0.01,0.23-0.01c0.17-0.02,0.22-0.02,0.22-0.02
			c0.16-0.03,0.22-0.04,0.22-0.04c0.21-0.05,0.26-0.06,0.26-0.06c0.2-0.06,0.26-0.08,0.26-0.08c0.2-0.08,0.25-0.1,0.25-0.1
			c0.19-0.09,0.24-0.11,0.24-0.11c0.19-0.1,0.28-0.15,0.28-0.15c0.19-0.11,0.28-0.16,0.28-0.16c0.63-0.39,1.45-1.04,2-1.37
			c0.19-0.12,0.29-0.17,0.29-0.17c0.2-0.11,0.25-0.13,0.25-0.13c0.2-0.1,0.26-0.12,0.26-0.12c0.21-0.09,0.26-0.11,0.26-0.11
			c0.16-0.06,0.22-0.08,0.22-0.08c0.17-0.05,0.22-0.07,0.22-0.07c0.17-0.05,0.23-0.06,0.23-0.06c0.18-0.04,0.24-0.05,0.24-0.05
			c0.18-0.03,0.25-0.03,0.25-0.03c0.19-0.02,0.24-0.02,0.24-0.02c0.21-0.01,0.26-0.01,0.26-0.01c1.53,0.02,2.76,0.45,4.12,0.92
			c1.78,0.64,4.67,1.94,6.44,2.69c1.83,0.74,3.91,1.58,5.87,1.69c0.17,0.01,0.22,0.01,0.22,0.01c0.16,0,0.22,0,0.22,0
			c0.2-0.01,0.27-0.02,0.27-0.02c0.2-0.02,0.26-0.03,0.26-0.03c0.19-0.03,0.25-0.04,0.25-0.04c0.19-0.04,0.25-0.05,0.25-0.05
			c0.18-0.05,0.24-0.06,0.24-0.06c0.18-0.05,0.23-0.07,0.23-0.07c0.17-0.06,0.23-0.08,0.23-0.08c0.26-0.1,0.33-0.13,0.44-0.18
			c0.21-0.1,0.32-0.15,0.32-0.15c0.33-0.17,0.59-0.32,0.71-0.39c0.21-0.13,1.2-0.73,1.35-0.81c0.19-0.1,0.29-0.16,0.29-0.16
			c0.19-0.1,0.29-0.14,0.29-0.14c0.19-0.09,0.24-0.11,0.24-0.11c0.2-0.08,0.25-0.09,0.25-0.09c0.2-0.06,0.25-0.08,0.25-0.08
			c0.2-0.05,0.26-0.06,0.26-0.06c0.21-0.04,0.26-0.04,0.26-0.04c0.21-0.02,0.27-0.03,0.27-0.03c0.18,0,0.22,0,0.22,0
			c0.18,0.01,0.22,0.01,0.22,0.01c0.19,0.02,0.26,0.03,0.26,0.03c0.15,0.02,0.23,0.04,0.23,0.04c0.16,0.03,0.23,0.05,0.23,0.05
			c0.16,0.04,0.24,0.06,0.24,0.06c3.4,1,6.4,3.61,9.8,4.36c0.18,0.04,0.27,0.05,0.27,0.05c2.45,0.45,4.68-0.6,7.04-0.76
			c0.2-0.01,0.26-0.01,0.26-0.01c0.2,0,0.26,0,0.26,0c0.2,0.01,0.26,0.01,0.26,0.01c0.2,0.02,0.26,0.02,0.26,0.02
			c0.2,0.03,0.26,0.04,0.26,0.04c0.2,0.04,0.26,0.05,0.26,0.05c0.2,0.05,0.26,0.06,0.26,0.06c0.15,0.04,0.23,0.07,0.23,0.07
			c0.15,0.05,0.23,0.08,0.23,0.08c0.15,0.06,0.23,0.09,0.23,0.09c3.15,1.42,5.48,4.54,8.64,5.77c0.17,0.06,0.25,0.09,0.25,0.09
			c0.17,0.05,0.25,0.08,0.25,0.08c0.17,0.05,0.25,0.07,0.25,0.07c0.15,0.04,0.23,0.05,0.23,0.05c0.16,0.03,0.23,0.04,0.23,0.04
			c0.16,0.02,0.23,0.03,0.23,0.03c2.83,0.35,5.58-1.05,8.32-0.82c0.15,0.02,0.22,0.02,0.22,0.02c0.15,0.02,0.22,0.03,0.22,0.03
			c0.15,0.03,0.22,0.04,0.22,0.04c0.15,0.03,0.22,0.05,0.22,0.05c0.15,0.04,0.23,0.06,0.23,0.06c0.15,0.05,0.23,0.07,0.23,0.07
			c0.15,0.06,0.23,0.08,0.23,0.08c0.15,0.06,0.22,0.09,0.22,0.09c2.73,1.25,4.61,3.81,7.26,5.04c0.15,0.07,0.22,0.1,0.22,0.1
			c0.15,0.06,0.22,0.09,0.22,0.09c0.15,0.05,0.23,0.08,0.23,0.08c0.15,0.05,0.23,0.07,0.23,0.07c0.15,0.04,0.23,0.06,0.23,0.06
			c0.22,0.04,0.28,0.05,0.28,0.05c0.21,0.03,0.28,0.04,0.28,0.04c0.21,0.02,0.28,0.02,0.28,0.02c0.21,0.01,0.28,0.01,0.28,0.01
			c0.21,0,0.29-0.01,0.29-0.01c0.21-0.01,0.29-0.02,0.29-0.02c1.79-0.15,3.47-0.84,5.19-1.04c0.2-0.02,0.27-0.02,0.27-0.02
			c0.2-0.01,0.26-0.01,0.26-0.01c0.2,0,0.26,0,0.26,0c0.19,0.01,0.26,0.01,0.26,0.01c0.19,0.02,0.25,0.03,0.25,0.03
			c0.19,0.03,0.25,0.04,0.25,0.04c0.21,0.05,0.24,0.06,0.24,0.06c0.21,0.07,0.24,0.08,0.24,0.08c0.21,0.08,0.24,0.1,0.24,0.1
			c0.18,0.09,0.24,0.12,0.24,0.12c0.18,0.1,0.23,0.13,0.23,0.13c0.17,0.11,0.23,0.15,0.23,0.15c0.17,0.12,0.23,0.16,0.23,0.16
			c0.17,0.13,0.22,0.18,0.22,0.18c0.25,0.21,0.33,0.29,0.44,0.39c1.23,1.19,2.19,2.6,3.41,3.69c0.17,0.15,0.23,0.2,0.23,0.2
			c0.17,0.14,0.23,0.18,0.23,0.18c0.18,0.13,0.24,0.17,0.24,0.17c0.18,0.12,0.24,0.16,0.24,0.16c0.19,0.11,0.25,0.14,0.25,0.14
			c0.19,0.09,0.25,0.12,0.25,0.12c0.19,0.08,0.23,0.09,0.23,0.09c0.2,0.07,0.23,0.08,0.23,0.08c0.2,0.05,0.23,0.06,0.23,0.06
			c0.17,0.04,0.24,0.05,0.24,0.05c0.21,0.03,0.28,0.04,0.28,0.04c0.21,0.02,0.28,0.02,0.28,0.02c0.22,0.01,0.29,0.01,0.29,0.01
			c1.95-0.04,3.77-0.83,5.61-1.11c0.21-0.03,0.29-0.04,0.29-0.04c0.21-0.02,0.28-0.03,0.28-0.03c0.21-0.01,0.27-0.01,0.27-0.01
			c0.2,0,0.27,0,0.27,0c0.2,0.01,0.26,0.01,0.26,0.01c0.19,0.02,0.22,0.03,0.22,0.03c0.19,0.03,0.22,0.04,0.22,0.04
			c0.21,0.05,0.24,0.06,0.24,0.06c0.2,0.07,0.23,0.08,0.23,0.08c0.2,0.09,0.22,0.1,0.22,0.1c0.21,0.12,0.24,0.14,0.24,0.14
			c0.2,0.14,0.23,0.16,0.23,0.16c0.2,0.16,0.24,0.21,0.24,0.21c0.19,0.18,0.23,0.23,0.23,0.23c0.18,0.2,0.23,0.25,0.23,0.25
			c0.13,0.16,0.17,0.22,0.17,0.22c0.41,0.54,0.56,0.8,0.86,1.29c0.5,0.84,1.22,2.16,1.79,2.89c0.14,0.17,0.18,0.23,0.18,0.23
			c0.14,0.17,0.19,0.22,0.19,0.22c0.19,0.21,0.24,0.26,0.24,0.26c0.2,0.19,0.25,0.24,0.25,0.24c0.21,0.17,0.27,0.21,0.27,0.21
			c0.19,0.13,0.22,0.15,0.22,0.15c0.2,0.12,0.23,0.13,0.23,0.13c0.18,0.09,0.22,0.1,0.22,0.1c0.19,0.08,0.23,0.09,0.23,0.09
			c0.2,0.06,0.23,0.07,0.23,0.07c0.17,0.04,0.24,0.06,0.24,0.06c0.21,0.04,0.28,0.05,0.28,0.05c0.14,0.02,0.22,0.03,0.22,0.03
			c0.15,0.01,0.22,0.02,0.22,0.02c2.29,0.13,4.58-0.74,6.79-0.6c0.14,0.01,0.22,0.02,0.22,0.02c0.21,0.03,0.28,0.04,0.28,0.04
			c0.21,0.04,0.27,0.05,0.27,0.05c0.2,0.05,0.23,0.06,0.23,0.06c0.19,0.06,0.22,0.08,0.22,0.08c0.21,0.09,0.24,0.1,0.24,0.1
			c0.2,0.1,0.22,0.12,0.22,0.12c0.22,0.13,0.27,0.17,0.27,0.17c0.21,0.15,0.26,0.19,0.26,0.19c0.2,0.17,0.25,0.21,0.25,0.21
			c0.19,0.19,0.24,0.23,0.24,0.23c1.09,1.18,1.79,2.65,2.77,3.83c0.18,0.22,0.23,0.27,0.23,0.27c0.19,0.2,0.24,0.25,0.24,0.25
			c0.2,0.19,0.25,0.24,0.25,0.24c0.21,0.18,0.26,0.22,0.26,0.22c0.21,0.16,0.27,0.2,0.27,0.2c0.17,0.11,0.23,0.14,0.23,0.14
			c0.21,0.11,0.23,0.13,0.23,0.13c0.18,0.08,0.22,0.1,0.22,0.1c0.21,0.08,0.24,0.09,0.24,0.09c0.22,0.06,0.29,0.08,0.29,0.08
			c0.15,0.03,0.22,0.05,0.22,0.05c0.15,0.03,0.23,0.04,0.23,0.04c0.16,0.02,0.23,0.03,0.23,0.03c2.42,0.23,4.88-0.6,7.21-0.34
			c0.16,0.02,0.24,0.03,0.24,0.03c0.15,0.03,0.23,0.04,0.23,0.04c0.15,0.03,0.22,0.05,0.22,0.05c0.18,0.05,0.22,0.06,0.22,0.06
			c0.21,0.07,0.25,0.09,0.25,0.09c0.2,0.09,0.24,0.1,0.24,0.1c0.2,0.1,0.23,0.12,0.23,0.12c0.19,0.12,0.22,0.14,0.22,0.14
			c0.21,0.16,0.24,0.18,0.24,0.18c0.2,0.18,0.22,0.21,0.22,0.21c0.18,0.2,0.21,0.23,0.21,0.23c0.15,0.19,0.2,0.25,0.2,0.25
			c0.14,0.2,0.18,0.27,0.18,0.27c0.09,0.14,0.13,0.22,0.13,0.22c1.19,2.16,1.46,4.66,2.39,6.83c0.1,0.21,0.13,0.28,0.13,0.28
			c0.1,0.2,0.14,0.26,0.14,0.26c0.13,0.21,0.15,0.24,0.15,0.24c0.14,0.19,0.16,0.22,0.16,0.22c0.19,0.21,0.21,0.24,0.21,0.24
			c0.2,0.18,0.22,0.19,0.22,0.19c0.2,0.12,0.22,0.13,0.22,0.13c0.21,0.09,0.23,0.1,0.23,0.1c0.2,0.06,0.23,0.06,0.23,0.06
			c0.21,0.03,0.24,0.03,0.24,0.03c0.18,0.01,0.22,0.01,0.22,0.01c0.18,0,0.23,0,0.23,0c0.19-0.01,0.24-0.02,0.24-0.02
			c0.19-0.02,0.29-0.04,0.29-0.04c0.59-0.09,1.32-0.28,1.82-0.38c0.2-0.04,0.3-0.05,0.3-0.05c0.2-0.03,0.25-0.03,0.25-0.03
			c0.2-0.02,0.25-0.02,0.25-0.02c0.2-0.01,0.24-0.01,0.24-0.01c0.19,0.01,0.24,0.01,0.24,0.01c0.21,0.02,0.23,0.03,0.23,0.03
			c0.2,0.04,0.23,0.05,0.23,0.05c0.2,0.06,0.22,0.07,0.22,0.07c0.21,0.09,0.23,0.1,0.23,0.1c0.2,0.12,0.22,0.14,0.22,0.14
			c0.19,0.15,0.22,0.18,0.22,0.18c0.18,0.18,0.21,0.22,0.21,0.22c0.17,0.21,0.19,0.25,0.19,0.25c0.13,0.2,0.16,0.24,0.16,0.24
			c0.1,0.17,0.12,0.22,0.12,0.22c0.1,0.19,0.14,0.28,0.14,0.28c0.09,0.2,0.14,0.3,0.14,0.3c1.05,2.57,1.46,6.54,1.98,9.27
			c0.2,1.08,0.48,2.44,0.86,3.42c0.08,0.19,0.12,0.28,0.12,0.28c0.1,0.21,0.12,0.26,0.12,0.26c0.11,0.2,0.13,0.23,0.13,0.23
			c0.13,0.21,0.16,0.24,0.16,0.24c0.17,0.22,0.2,0.24,0.2,0.24c0.21,0.2,0.24,0.22,0.24,0.22c0.2,0.14,0.23,0.16,0.23,0.16
			c0.21,0.11,0.24,0.12,0.24,0.12c0.21,0.09,0.24,0.1,0.24,0.1c0.19,0.06,0.25,0.08,0.25,0.08c0.19,0.05,0.26,0.06,0.26,0.06
			c0.2,0.04,0.88,0.16,0.88,0.16c0.21,0.04,0.28,0.06,0.28,0.06c0.21,0.05,0.28,0.07,0.28,0.07c0.21,0.07,0.24,0.08,0.24,0.08
			c0.21,0.08,0.24,0.1,0.24,0.1c0.21,0.1,0.24,0.12,0.24,0.12c0.2,0.12,0.24,0.15,0.24,0.15c0.2,0.15,0.23,0.17,0.23,0.17
			c0.2,0.17,0.23,0.2,0.23,0.2c0.2,0.19,0.26,0.26,0.26,0.26c0.13,0.14,0.19,0.22,0.19,0.22c0.13,0.16,0.19,0.24,0.19,0.24
			c1.08,1.48,1.63,2.82,2.31,4.42c0.88,2.12,2.16,6,2.92,8.21c0.65,1.9,1.42,3.87,2.29,5.68c0.85,1.8,2.41,4.54,3.31,6.33"/>
	</g>
</g>
<g id="AG-OUTLINE">
	<g id="POLYLINE_651_">
		<path class="st62" d="M178.55,415.35c-15.64,6.54-30.48,15.39-44.72,24.55c-5.91,3.78-11.91,8.22-17.88,11.87
			c-6.91,4.22-14.26,7.95-21.84,10.8c-2.14,0.8-4.37,1.55-6.59,2.07c-1.64,0.38-3.6,0.7-5.18,0.49c-0.15-0.02-0.22-0.04-0.22-0.04
			c-0.21-0.04-0.28-0.06-0.28-0.06c-0.23-0.06-0.43-0.12-0.53-0.15c-0.19-0.06-0.25-0.09-0.25-0.09c-0.19-0.07-0.25-0.09-0.25-0.09
			c-0.18-0.07-0.24-0.1-0.24-0.1c-0.17-0.08-0.23-0.11-0.23-0.11c-0.17-0.09-0.23-0.12-0.23-0.12c-0.16-0.09-0.22-0.12-0.22-0.12
			c-0.21-0.13-0.26-0.16-0.26-0.16c-0.2-0.14-0.25-0.18-0.25-0.18c-0.19-0.15-0.24-0.19-0.24-0.19c-0.19-0.16-0.23-0.2-0.23-0.2
			c-0.18-0.17-0.22-0.21-0.22-0.21c-0.17-0.18-0.21-0.22-0.21-0.22c-0.16-0.19-0.2-0.23-0.2-0.23c-0.15-0.2-0.19-0.25-0.19-0.25
			c-0.14-0.21-0.18-0.26-0.18-0.26c-0.13-0.21-0.17-0.27-0.17-0.27c-0.09-0.17-0.12-0.22-0.12-0.22c-0.09-0.17-0.12-0.23-0.12-0.23
			c-0.89-1.86-0.99-3.93-0.93-5.82c0.1-2.35,0.53-4.69,1.09-6.97c0.96-3.94,2.33-7.82,4.03-11.49c3.3-7.18,7.86-13.94,12.5-20.32
			c2.22-3.02,4.98-6.52,7.39-9.38c1.84-2.2,3.69-4.55,5.26-6.95c1.39-2.1,2.83-4.65,3.58-6.98c0.9-2.8,1.01-5.72,0.57-8.44
			c-0.58-3.46-1.98-6.37-3.72-9.32c-1.34-2.24-2.92-4.46-4.51-6.53c-1.3-1.7-2.87-3.53-4.19-5.22c-4.29-5.52-7.92-11.63-10.5-18.14
			c-2.54-6.46-3.94-13.35-4.57-20.25c-0.24-2.51-0.45-5.23-0.48-7.76c-0.01-1.7,0.03-3.63,0.39-5.24c0.05-0.19,0.06-0.25,0.06-0.25
			c0.05-0.18,0.07-0.23,0.07-0.23c0.06-0.16,0.07-0.22,0.07-0.22c0.08-0.21,0.1-0.26,0.1-0.26c0.09-0.2,0.11-0.25,0.11-0.25
			c0.1-0.19,0.12-0.24,0.12-0.24c0.11-0.18,0.14-0.23,0.14-0.23c0.12-0.17,0.15-0.22,0.15-0.22c0.16-0.21,0.19-0.25,0.19-0.25
			c0.17-0.2,0.21-0.23,0.21-0.23c0.19-0.18,0.23-0.22,0.23-0.22c0.2-0.17,0.24-0.2,0.24-0.2c0.22-0.16,0.26-0.19,0.26-0.19
			c0.18-0.12,0.23-0.15,0.23-0.15c0.19-0.11,0.24-0.14,0.24-0.14c0.2-0.1,0.25-0.13,0.25-0.13c0.21-0.1,0.26-0.12,0.26-0.12
			c0.16-0.07,0.22-0.09,0.22-0.09c4.14-1.46,8.31,0.17,11.91,1.99c3.25,1.66,6.43,3.88,9.42,5.98c6.91,4.85,13.58,10.58,20.17,15.84
			c5.55,4.34,11.48,8.47,17.57,12c8.43,4.95,17.49,9.27,26.6,12.84c3.78,1.45,7.78,2.91,11.72,3.85c3.79,0.91,7.75,1.45,11.64,1.63
			c4.17,0.14,8.69,0.24,12.86,0.06c3.38-0.11,7.81-0.65,11.2-1.05c-0.18-0.1-0.23-0.12-0.23-0.12c-0.19-0.11-0.24-0.15-0.24-0.15
			c-0.21-0.15-0.26-0.19-0.26-0.19c-0.2-0.16-0.25-0.2-0.25-0.2c-0.19-0.17-0.24-0.22-0.24-0.22c-0.18-0.19-0.23-0.23-0.23-0.23
			c-0.17-0.2-0.21-0.25-0.21-0.25c-0.16-0.21-0.2-0.26-0.2-0.26c-0.11-0.16-0.15-0.22-0.15-0.22c-0.11-0.17-0.14-0.23-0.14-0.23
			c-0.1-0.17-0.13-0.23-0.13-0.23c-0.09-0.18-0.12-0.24-0.12-0.24c-0.09-0.18-0.11-0.25-0.11-0.25c-0.08-0.19-0.11-0.25-0.11-0.25
			c-0.07-0.19-0.1-0.26-0.1-0.26c-0.07-0.2-0.09-0.26-0.09-0.26c-0.06-0.2-0.08-0.27-0.08-0.27c-0.05-0.2-0.07-0.27-0.07-0.27
			c-0.04-0.21-0.06-0.28-0.06-0.28c-0.04-0.21-0.05-0.28-0.05-0.28c-0.03-0.21-0.03-0.28-0.03-0.28c-0.13-1.22,0.05-2.37,0.41-3.38
			c0.07-0.18,0.1-0.27,0.1-0.27c0.76-1.89,2.14-3.38,3.57-4.5c1.91-1.48,4.08-2.44,6.25-2.82c4.48-0.73,8.61,1.03,12.75,2.28
			c3.15,0.99,6.45,1.5,9.75,1.63c3.31,0.15,7.05,0.01,10.37-0.12c22.64-1.02,92.21-8.17,115.77-10.26
			c-11.13-3.61-27.92-9.19-38.76-13.25l-43.78-16.79c-0.46-0.18-1.18-0.46-1.63-0.66c-0.98-0.41-2.17-0.99-2.95-1.53
			c-0.2-0.14-0.26-0.18-0.26-0.18c-0.19-0.14-0.25-0.19-0.25-0.19c-0.18-0.14-0.23-0.19-0.23-0.19c-0.16-0.15-0.22-0.2-0.22-0.2
			c-0.2-0.2-0.25-0.26-0.25-0.26c-0.18-0.21-0.23-0.27-0.23-0.27c-0.12-0.16-0.16-0.22-0.16-0.22c-0.11-0.17-0.15-0.23-0.15-0.23
			c-0.1-0.18-0.13-0.24-0.13-0.24c-0.09-0.18-0.11-0.24-0.11-0.24c-0.07-0.19-0.09-0.22-0.09-0.22c-0.05-0.16-0.07-0.23-0.07-0.23
			c-0.05-0.2-0.07-0.27-0.07-0.27c-0.04-0.2-0.05-0.27-0.05-0.27c-0.03-0.21-0.03-0.28-0.03-0.28c-0.14-1.68,0.34-3.57,0.58-5.17
			c0.14-0.89,0.26-2.07,0.23-2.86c-0.01-0.52-0.07-0.96-0.13-1.31c-0.03-0.17-0.05-0.26-0.05-0.26c-0.04-0.17-0.06-0.25-0.06-0.25
			c-0.05-0.17-0.07-0.25-0.07-0.25c-0.05-0.16-0.08-0.25-0.08-0.25c-0.06-0.16-0.09-0.24-0.09-0.24c-0.88-2.13-2.47-3.64-3.89-5.32
			c-0.31-0.36-0.77-0.94-0.98-1.26c-0.12-0.18-0.16-0.24-0.16-0.24c-0.11-0.18-0.15-0.24-0.15-0.24c-0.1-0.18-0.13-0.24-0.13-0.24
			c-0.09-0.18-0.11-0.24-0.11-0.24c-0.08-0.21-0.1-0.24-0.1-0.24c-0.07-0.21-0.08-0.23-0.08-0.23c-0.05-0.2-0.06-0.23-0.06-0.23
			c-0.03-0.18-0.03-0.23-0.03-0.23c-0.01-0.18-0.01-0.23-0.01-0.23c0-0.18,0-0.23,0-0.23c0.02-0.18,0.02-0.23,0.02-0.23
			c0.03-0.18,0.04-0.23,0.04-0.23c0.04-0.18,0.05-0.23,0.05-0.23c0.05-0.18,0.07-0.28,0.07-0.28c0.05-0.19,0.11-0.37,0.11-0.37
			l0.39-1.16c0.1-0.3,0.15-0.52,0.18-0.61c0.05-0.21,0.07-0.32,0.07-0.32c0.03-0.16,0.04-0.22,0.04-0.22
			c0.03-0.16,0.03-0.22,0.03-0.22c0.02-0.17,0.02-0.22,0.02-0.22c0.01-0.17,0.01-0.23,0.01-0.23c0-0.17,0-0.23,0-0.23
			c0-0.18-0.01-0.24-0.01-0.24c-0.01-0.18-0.02-0.24-0.02-0.24c-0.02-0.19-0.03-0.25-0.03-0.25c-0.04-0.19-0.05-0.25-0.05-0.25
			c-0.05-0.19-0.06-0.26-0.06-0.26c-0.06-0.19-0.08-0.26-0.08-0.26c-0.07-0.19-0.09-0.26-0.09-0.26c-0.08-0.2-0.11-0.26-0.11-0.26
			c-0.47-1.06-1.03-1.88-1.63-2.7c-0.79-1.07-1.72-2.15-2.61-3.14c-1.23-1.37-5.42-5.74-6.6-7.1c-1.03-1.18-2.22-2.61-2.93-3.94
			c-0.1-0.19-0.13-0.25-0.13-0.25c-0.09-0.18-0.11-0.24-0.11-0.24c-0.08-0.18-0.1-0.24-0.1-0.24c-0.06-0.17-0.08-0.23-0.08-0.23
			c-0.05-0.17-0.07-0.22-0.07-0.22c-0.04-0.16-0.05-0.22-0.05-0.22c-0.04-0.2-0.04-0.23-0.04-0.23c-0.02-0.2-0.02-0.23-0.02-0.23
			c0-0.19,0-0.22,0-0.22c0.01-0.21,0.02-0.24,0.02-0.24c0.03-0.21,0.04-0.23,0.04-0.23c0.05-0.2,0.05-0.23,0.05-0.23
			c0.05-0.17,0.07-0.22,0.07-0.22c0.08-0.19,0.1-0.24,0.1-0.24c0.09-0.19,0.12-0.23,0.12-0.23c0.11-0.18,0.13-0.23,0.13-0.23
			c0.12-0.18,0.15-0.23,0.15-0.23c0.13-0.18,0.2-0.27,0.2-0.27c0.3-0.4,1.04-1.25,1.22-1.47c0.24-0.29,0.4-0.51,0.47-0.6
			c0.23-0.32,0.27-0.38,0.37-0.54c0.1-0.17,0.14-0.23,0.14-0.23c0.1-0.18,0.13-0.24,0.13-0.24c0.09-0.18,0.12-0.24,0.12-0.24
			c0.09-0.19,0.12-0.25,0.12-0.25c0.08-0.2,0.11-0.28,0.11-0.28c0.4-1.09,0.53-2.12,0.66-3.13c0,0,0.24-2.35,0.24-2.35
			c0.03-0.32,0.12-0.93,0.17-1.18c0.04-0.2,0.06-0.27,0.06-0.27c0.05-0.19,0.06-0.25,0.06-0.25c0.05-0.18,0.07-0.23,0.07-0.23
			c0.06-0.17,0.08-0.22,0.08-0.22c0.09-0.2,0.1-0.22,0.1-0.22c0.11-0.2,0.13-0.22,0.13-0.22c0.16-0.2,0.18-0.22,0.18-0.22
			c0.2-0.17,0.22-0.18,0.22-0.18c0.2-0.09,0.22-0.1,0.22-0.1c0.19-0.05,0.22-0.05,0.22-0.05c0.21-0.01,0.24-0.01,0.24-0.01
			c0.2,0.01,0.23,0.02,0.23,0.02c0.22,0.04,0.25,0.04,0.25,0.04c0.16,0.04,0.23,0.06,0.23,0.06c0.2,0.06,0.27,0.09,0.27,0.09
			c1.54,0.57,2.95,1.5,4.35,2.25c0.64,0.35,1.56,0.8,2.13,1.01c0.25,0.1,0.42,0.15,0.51,0.18c0.16,0.05,0.25,0.07,0.25,0.07
			c0.16,0.04,0.24,0.06,0.24,0.06c0.16,0.03,0.24,0.05,0.24,0.05c0.19,0.03,0.23,0.04,0.23,0.04c0.19,0.02,0.23,0.02,0.23,0.02
			c0.18,0.01,0.22,0.01,0.22,0.01c0.21-0.01,0.25-0.01,0.25-0.01c0.2-0.03,0.22-0.03,0.22-0.03c0.21-0.05,0.23-0.06,0.23-0.06
			c0.2-0.07,0.23-0.08,0.23-0.08c0.19-0.09,0.22-0.1,0.22-0.1c0.19-0.1,0.23-0.13,0.23-0.13c0.18-0.12,0.22-0.15,0.22-0.15
			c0.21-0.17,0.26-0.2,0.26-0.2c0.21-0.19,0.25-0.23,0.25-0.23c0.2-0.2,0.28-0.28,0.28-0.28c0.54-0.6,1.19-1.45,1.59-1.86
			c0.2-0.2,0.24-0.24,0.24-0.24c0.2-0.19,0.25-0.22,0.25-0.22c0.21-0.17,0.25-0.2,0.25-0.2c0.18-0.12,0.22-0.15,0.22-0.15
			c0.21-0.11,0.23-0.13,0.23-0.13c0.21-0.09,0.24-0.1,0.24-0.1c0.2-0.06,0.22-0.07,0.22-0.07c0.2-0.04,0.23-0.05,0.23-0.05
			c0.21-0.02,0.25-0.03,0.25-0.03c0.18-0.01,0.22-0.01,0.22-0.01c0.19,0.01,0.23,0.01,0.23,0.01c0.19,0.02,0.23,0.03,0.23,0.03
			c0.16,0.02,0.24,0.04,0.24,0.04c0.16,0.03,0.24,0.05,0.24,0.05c0.17,0.04,0.25,0.06,0.25,0.06c1.85,0.55,3.64,1.68,5.31,2.53
			c0.92,0.48,2.06,1.01,2.93,1.23c0.17,0.04,0.25,0.06,0.25,0.06c0.17,0.03,0.25,0.05,0.25,0.05c0.2,0.03,0.24,0.04,0.24,0.04
			c0.2,0.02,0.24,0.02,0.24,0.02c0.19,0.01,0.23,0.01,0.23,0.01c0.19-0.01,0.22-0.01,0.22-0.01c0.2-0.02,0.22-0.02,0.22-0.02
			c0.19-0.03,0.24-0.05,0.24-0.05c0.21-0.06,0.26-0.07,0.26-0.07c0.2-0.07,0.25-0.09,0.25-0.09c0.2-0.09,0.25-0.11,0.25-0.11
			c0.19-0.1,0.24-0.13,0.24-0.13c0.19-0.11,0.23-0.14,0.23-0.14c0.18-0.12,0.27-0.18,0.27-0.18c0.55-0.39,1.31-1.08,1.66-1.38
			c0.26-0.22,0.44-0.36,0.53-0.42c0.18-0.13,0.27-0.2,0.27-0.2c0.19-0.12,0.23-0.15,0.23-0.15c0.19-0.11,0.24-0.14,0.24-0.14
			c0.19-0.1,0.24-0.12,0.24-0.12c0.2-0.09,0.25-0.11,0.25-0.11c0.21-0.07,0.26-0.09,0.26-0.09c0.21-0.06,0.27-0.07,0.27-0.07
			c0.2-0.04,0.24-0.04,0.24-0.04c0.21-0.02,0.24-0.03,0.24-0.03c0.21-0.01,0.29-0.01,0.29-0.01c0.15,0,0.22,0,0.22,0
			c0.15,0.01,0.22,0.01,0.22,0.01c0.15,0.01,0.23,0.02,0.23,0.02c1.13,0.15,2,0.46,2.95,0.8c1.63,0.6,3.76,1.56,5.42,1.79
			c0.15,0.02,0.22,0.03,0.22,0.03c0.15,0.01,0.22,0.02,0.22,0.02c0.19,0.01,0.24,0.01,0.24,0.01c0.17,0,0.22,0,0.22,0
			c0.16-0.01,0.22-0.01,0.22-0.01c0.21-0.02,0.27-0.03,0.27-0.03c0.21-0.03,0.26-0.04,0.26-0.04c0.21-0.04,0.26-0.05,0.26-0.05
			c0.2-0.05,0.3-0.08,0.3-0.08c0.2-0.06,0.3-0.09,0.3-0.09c1.02-0.34,2.12-0.92,2.97-1.17c0.2-0.06,0.3-0.09,0.3-0.09
			c0.2-0.05,0.31-0.07,0.31-0.07c0.21-0.04,0.26-0.05,0.26-0.05c0.21-0.03,0.27-0.04,0.27-0.04c0.16-0.02,0.22-0.02,0.22-0.02
			c0.18-0.01,0.25-0.01,0.25-0.01c0.21,0,0.28,0,0.28,0c0.21,0.01,0.28,0.01,0.28,0.01c2.6,0.23,5.05,1.48,7.57,1.79
			c0.22,0.02,0.29,0.03,0.29,0.03c0.21,0.01,0.28,0.02,0.28,0.02c0.21,0.01,0.28,0.01,0.28,0.01c0.2,0,0.27-0.01,0.27-0.01
			c0.2-0.02,0.26-0.02,0.26-0.02c0.21-0.03,0.26-0.04,0.26-0.04c0.2-0.04,0.25-0.05,0.25-0.05c0.2-0.05,0.25-0.06,0.25-0.06
			c0.19-0.06,0.24-0.08,0.24-0.08c0.19-0.07,0.28-0.11,0.28-0.11c0.18-0.08,0.28-0.12,0.28-0.12c0.86-0.4,1.79-0.99,2.49-1.29
			c0.19-0.08,0.28-0.11,0.28-0.11c0.19-0.07,0.24-0.08,0.24-0.08c0.19-0.06,0.24-0.07,0.24-0.07c0.2-0.05,0.25-0.06,0.25-0.06
			c0.2-0.04,0.26-0.05,0.26-0.05c0.21-0.03,0.26-0.03,0.26-0.03c0.16-0.01,0.22-0.02,0.22-0.02c0.17,0,0.22,0,0.22,0
			c0.21,0.01,0.29,0.01,0.29,0.01c0.16,0.01,0.24,0.02,0.24,0.02c0.17,0.02,0.25,0.03,0.25,0.03c3.17,0.6,6.06,2.6,9.08,3.42
			c0.35,0.09,0.61,0.14,0.79,0.18c0.17,0.03,0.25,0.04,0.25,0.04c0.17,0.02,0.25,0.03,0.25,0.03c0.16,0.01,0.24,0.01,0.24,0.01
			c0.2,0,0.24,0,0.24,0c0.19-0.01,0.23-0.01,0.23-0.01c0.17-0.02,0.22-0.02,0.22-0.02c0.16-0.03,0.22-0.04,0.22-0.04
			c0.21-0.05,0.26-0.06,0.26-0.06c0.2-0.06,0.26-0.08,0.26-0.08c0.2-0.08,0.25-0.1,0.25-0.1c0.19-0.09,0.24-0.11,0.24-0.11
			c0.19-0.1,0.28-0.15,0.28-0.15c0.19-0.11,0.28-0.16,0.28-0.16c0.63-0.39,1.45-1.04,2-1.37c0.19-0.12,0.29-0.17,0.29-0.17
			c0.2-0.11,0.25-0.13,0.25-0.13c0.2-0.1,0.26-0.12,0.26-0.12c0.21-0.09,0.26-0.11,0.26-0.11c0.16-0.06,0.22-0.08,0.22-0.08
			c0.17-0.05,0.22-0.07,0.22-0.07c0.17-0.05,0.23-0.06,0.23-0.06c0.18-0.04,0.24-0.05,0.24-0.05c0.18-0.03,0.25-0.03,0.25-0.03
			c0.19-0.02,0.24-0.02,0.24-0.02c0.21-0.01,0.26-0.01,0.26-0.01c1.53,0.02,2.76,0.45,4.12,0.92c1.78,0.64,4.67,1.94,6.44,2.69
			c1.83,0.74,3.91,1.58,5.87,1.69c0.17,0.01,0.22,0.01,0.22,0.01c0.16,0,0.22,0,0.22,0c0.2-0.01,0.27-0.02,0.27-0.02
			c0.2-0.02,0.26-0.03,0.26-0.03c0.19-0.03,0.25-0.04,0.25-0.04c0.19-0.04,0.25-0.05,0.25-0.05c0.18-0.05,0.24-0.06,0.24-0.06
			c0.18-0.05,0.23-0.07,0.23-0.07c0.17-0.06,0.23-0.08,0.23-0.08c0.26-0.1,0.33-0.13,0.44-0.18c0.21-0.1,0.32-0.15,0.32-0.15
			c0.33-0.17,0.59-0.32,0.71-0.39c0.21-0.13,1.2-0.73,1.35-0.81c0.19-0.1,0.29-0.16,0.29-0.16c0.19-0.1,0.29-0.14,0.29-0.14
			c0.19-0.09,0.24-0.11,0.24-0.11c0.2-0.08,0.25-0.09,0.25-0.09c0.2-0.06,0.25-0.08,0.25-0.08c0.2-0.05,0.26-0.06,0.26-0.06
			c0.21-0.04,0.26-0.04,0.26-0.04c0.21-0.02,0.27-0.03,0.27-0.03c0.18,0,0.22,0,0.22,0c0.18,0.01,0.22,0.01,0.22,0.01
			c0.19,0.02,0.26,0.03,0.26,0.03c0.15,0.02,0.23,0.04,0.23,0.04c0.16,0.03,0.23,0.05,0.23,0.05c0.16,0.04,0.24,0.06,0.24,0.06
			c3.4,1,6.4,3.61,9.8,4.36c0.18,0.04,0.27,0.05,0.27,0.05c2.45,0.45,4.68-0.6,7.04-0.76c0.2-0.01,0.26-0.01,0.26-0.01
			c0.2,0,0.26,0,0.26,0c0.2,0.01,0.26,0.01,0.26,0.01c0.2,0.02,0.26,0.02,0.26,0.02c0.2,0.03,0.26,0.04,0.26,0.04
			c0.2,0.04,0.26,0.05,0.26,0.05c0.2,0.05,0.26,0.06,0.26,0.06c0.15,0.04,0.23,0.07,0.23,0.07c0.15,0.05,0.23,0.08,0.23,0.08
			c0.15,0.06,0.23,0.09,0.23,0.09c3.15,1.42,5.48,4.54,8.64,5.77c0.17,0.06,0.25,0.09,0.25,0.09c0.17,0.05,0.25,0.08,0.25,0.08
			c0.17,0.05,0.25,0.07,0.25,0.07c0.15,0.04,0.23,0.05,0.23,0.05c0.16,0.03,0.23,0.04,0.23,0.04c0.16,0.02,0.23,0.03,0.23,0.03
			c2.83,0.35,5.58-1.05,8.32-0.82c0.15,0.02,0.22,0.02,0.22,0.02c0.15,0.02,0.22,0.03,0.22,0.03c0.15,0.03,0.22,0.04,0.22,0.04
			c0.15,0.03,0.22,0.05,0.22,0.05c0.15,0.04,0.23,0.06,0.23,0.06c0.15,0.05,0.23,0.07,0.23,0.07c0.15,0.06,0.23,0.08,0.23,0.08
			c0.15,0.06,0.22,0.09,0.22,0.09c2.73,1.25,4.61,3.81,7.26,5.04c0.15,0.07,0.22,0.1,0.22,0.1c0.15,0.06,0.22,0.09,0.22,0.09
			c0.15,0.05,0.23,0.08,0.23,0.08c0.15,0.05,0.23,0.07,0.23,0.07c0.15,0.04,0.23,0.06,0.23,0.06c0.22,0.04,0.28,0.05,0.28,0.05
			c0.21,0.03,0.28,0.04,0.28,0.04c0.21,0.02,0.28,0.02,0.28,0.02c0.21,0.01,0.28,0.01,0.28,0.01c0.21,0,0.29-0.01,0.29-0.01
			c0.21-0.01,0.29-0.02,0.29-0.02c1.79-0.15,3.47-0.84,5.19-1.04c0.2-0.02,0.27-0.02,0.27-0.02c0.2-0.01,0.26-0.01,0.26-0.01
			c0.2,0,0.26,0,0.26,0c0.19,0.01,0.26,0.01,0.26,0.01c0.19,0.02,0.25,0.03,0.25,0.03c0.19,0.03,0.25,0.04,0.25,0.04
			c0.21,0.05,0.24,0.06,0.24,0.06c0.21,0.07,0.24,0.08,0.24,0.08c0.21,0.08,0.24,0.1,0.24,0.1c0.18,0.09,0.24,0.12,0.24,0.12
			c0.18,0.1,0.23,0.13,0.23,0.13c0.17,0.11,0.23,0.15,0.23,0.15c0.17,0.12,0.23,0.16,0.23,0.16c0.17,0.13,0.22,0.18,0.22,0.18
			c0.25,0.21,0.33,0.29,0.44,0.39c1.23,1.19,2.19,2.6,3.41,3.69c0.17,0.15,0.23,0.2,0.23,0.2c0.17,0.14,0.23,0.18,0.23,0.18
			c0.18,0.13,0.24,0.17,0.24,0.17c0.18,0.12,0.24,0.16,0.24,0.16c0.19,0.11,0.25,0.14,0.25,0.14c0.19,0.09,0.25,0.12,0.25,0.12
			c0.19,0.08,0.23,0.09,0.23,0.09c0.2,0.07,0.23,0.08,0.23,0.08c0.2,0.05,0.23,0.06,0.23,0.06c0.17,0.04,0.24,0.05,0.24,0.05
			c0.21,0.03,0.28,0.04,0.28,0.04c0.21,0.02,0.28,0.02,0.28,0.02c0.22,0.01,0.29,0.01,0.29,0.01c1.95-0.04,3.77-0.83,5.61-1.11
			c0.21-0.03,0.29-0.04,0.29-0.04c0.21-0.02,0.28-0.03,0.28-0.03c0.21-0.01,0.27-0.01,0.27-0.01c0.2,0,0.27,0,0.27,0
			c0.2,0.01,0.26,0.01,0.26,0.01c0.19,0.02,0.22,0.03,0.22,0.03c0.19,0.03,0.22,0.04,0.22,0.04c0.21,0.05,0.24,0.06,0.24,0.06
			c0.2,0.07,0.23,0.08,0.23,0.08c0.2,0.09,0.22,0.1,0.22,0.1c0.21,0.12,0.24,0.14,0.24,0.14c0.2,0.14,0.23,0.16,0.23,0.16
			c0.2,0.16,0.24,0.21,0.24,0.21c0.19,0.18,0.23,0.23,0.23,0.23c0.18,0.2,0.23,0.25,0.23,0.25c0.13,0.16,0.17,0.22,0.17,0.22
			c0.41,0.54,0.56,0.8,0.86,1.29c0.5,0.84,1.22,2.16,1.79,2.89c0.14,0.17,0.18,0.23,0.18,0.23c0.14,0.17,0.19,0.22,0.19,0.22
			c0.19,0.21,0.24,0.26,0.24,0.26c0.2,0.19,0.25,0.24,0.25,0.24c0.21,0.17,0.27,0.21,0.27,0.21c0.19,0.13,0.22,0.15,0.22,0.15
			c0.2,0.12,0.23,0.13,0.23,0.13c0.18,0.09,0.22,0.1,0.22,0.1c0.19,0.08,0.23,0.09,0.23,0.09c0.2,0.06,0.23,0.07,0.23,0.07
			c0.17,0.04,0.24,0.06,0.24,0.06c0.21,0.04,0.28,0.05,0.28,0.05c0.14,0.02,0.22,0.03,0.22,0.03c0.15,0.01,0.22,0.02,0.22,0.02
			c2.29,0.13,4.58-0.74,6.79-0.6c0.14,0.01,0.22,0.02,0.22,0.02c0.21,0.03,0.28,0.04,0.28,0.04c0.21,0.04,0.27,0.05,0.27,0.05
			c0.2,0.05,0.23,0.06,0.23,0.06c0.19,0.06,0.22,0.08,0.22,0.08c0.21,0.09,0.24,0.1,0.24,0.1c0.2,0.1,0.22,0.12,0.22,0.12
			c0.22,0.13,0.27,0.17,0.27,0.17c0.21,0.15,0.26,0.19,0.26,0.19c0.2,0.17,0.25,0.21,0.25,0.21c0.19,0.19,0.24,0.23,0.24,0.23
			c1.09,1.18,1.79,2.65,2.77,3.83c0.18,0.22,0.23,0.27,0.23,0.27c0.19,0.2,0.24,0.25,0.24,0.25c0.2,0.19,0.25,0.24,0.25,0.24
			c0.21,0.18,0.26,0.22,0.26,0.22c0.21,0.16,0.27,0.2,0.27,0.2c0.17,0.11,0.23,0.14,0.23,0.14c0.21,0.11,0.23,0.13,0.23,0.13
			c0.18,0.08,0.22,0.1,0.22,0.1c0.21,0.08,0.24,0.09,0.24,0.09c0.22,0.06,0.29,0.08,0.29,0.08c0.15,0.03,0.22,0.05,0.22,0.05
			c0.15,0.03,0.23,0.04,0.23,0.04c0.16,0.02,0.23,0.03,0.23,0.03c2.42,0.23,4.88-0.6,7.21-0.34c0.16,0.02,0.24,0.03,0.24,0.03
			c0.15,0.03,0.23,0.04,0.23,0.04c0.15,0.03,0.22,0.05,0.22,0.05c0.18,0.05,0.22,0.06,0.22,0.06c0.21,0.07,0.25,0.09,0.25,0.09
			c0.2,0.09,0.24,0.1,0.24,0.1c0.2,0.1,0.23,0.12,0.23,0.12c0.19,0.12,0.22,0.14,0.22,0.14c0.21,0.16,0.24,0.18,0.24,0.18
			c0.2,0.18,0.22,0.21,0.22,0.21c0.18,0.2,0.21,0.23,0.21,0.23c0.15,0.19,0.2,0.25,0.2,0.25c0.14,0.2,0.18,0.27,0.18,0.27
			c0.09,0.14,0.13,0.22,0.13,0.22c1.19,2.16,1.46,4.66,2.39,6.83c0.1,0.21,0.13,0.28,0.13,0.28c0.1,0.2,0.14,0.26,0.14,0.26
			c0.13,0.21,0.15,0.24,0.15,0.24c0.14,0.19,0.16,0.22,0.16,0.22c0.19,0.21,0.21,0.24,0.21,0.24c0.2,0.18,0.22,0.19,0.22,0.19
			c0.2,0.12,0.22,0.13,0.22,0.13c0.21,0.09,0.23,0.1,0.23,0.1c0.2,0.06,0.23,0.06,0.23,0.06c0.21,0.03,0.24,0.03,0.24,0.03
			c0.18,0.01,0.22,0.01,0.22,0.01c0.18,0,0.23,0,0.23,0c0.19-0.01,0.24-0.02,0.24-0.02c0.19-0.02,0.29-0.04,0.29-0.04
			c0.59-0.09,1.32-0.28,1.82-0.38c0.2-0.04,0.3-0.05,0.3-0.05c0.2-0.03,0.25-0.03,0.25-0.03c0.2-0.02,0.25-0.02,0.25-0.02
			c0.2-0.01,0.24-0.01,0.24-0.01c0.19,0.01,0.24,0.01,0.24,0.01c0.21,0.02,0.23,0.03,0.23,0.03c0.2,0.04,0.23,0.05,0.23,0.05
			c0.2,0.06,0.22,0.07,0.22,0.07c0.21,0.09,0.23,0.1,0.23,0.1c0.2,0.12,0.22,0.14,0.22,0.14c0.19,0.15,0.22,0.18,0.22,0.18
			c0.18,0.18,0.21,0.22,0.21,0.22c0.17,0.21,0.19,0.25,0.19,0.25c0.13,0.2,0.16,0.24,0.16,0.24c0.1,0.17,0.12,0.22,0.12,0.22
			c0.1,0.19,0.14,0.28,0.14,0.28c0.09,0.2,0.14,0.3,0.14,0.3c1.05,2.57,1.46,6.54,1.98,9.27c0.2,1.08,0.48,2.44,0.86,3.42
			c0.08,0.19,0.12,0.28,0.12,0.28c0.1,0.21,0.12,0.26,0.12,0.26c0.11,0.2,0.13,0.23,0.13,0.23c0.13,0.21,0.16,0.24,0.16,0.24
			c0.17,0.22,0.2,0.24,0.2,0.24c0.21,0.2,0.24,0.22,0.24,0.22c0.2,0.14,0.23,0.16,0.23,0.16c0.21,0.11,0.24,0.12,0.24,0.12
			c0.21,0.09,0.24,0.1,0.24,0.1c0.19,0.06,0.25,0.08,0.25,0.08c0.19,0.05,0.26,0.06,0.26,0.06c0.2,0.04,0.88,0.16,0.88,0.16
			c0.21,0.04,0.28,0.06,0.28,0.06c0.21,0.05,0.28,0.07,0.28,0.07c0.21,0.07,0.24,0.08,0.24,0.08c0.21,0.08,0.24,0.1,0.24,0.1
			c0.21,0.1,0.24,0.12,0.24,0.12c0.2,0.12,0.24,0.15,0.24,0.15c0.2,0.15,0.23,0.17,0.23,0.17c0.2,0.17,0.23,0.2,0.23,0.2
			c0.2,0.19,0.26,0.26,0.26,0.26c0.13,0.14,0.19,0.22,0.19,0.22c0.13,0.16,0.19,0.24,0.19,0.24c1.08,1.48,1.63,2.82,2.31,4.42
			c0.88,2.12,2.16,6,2.92,8.21c0.65,1.9,1.42,3.87,2.29,5.68c0.85,1.8,2.41,4.54,3.31,6.33c11.12,1.01,23.99,2.71,35.04,4.44
			c10.86,1.73,21.83,4.17,32.16,7.97c4.54,1.63,9.81,3.83,14.25,5.76c5.57,2.55,55.71,24.54,59.74,26.75
			c3.14,1.6,6.25,3.4,9.03,5.59c2.22,1.74,4.23,3.78,5.94,6.02c1.26,1.65,2.56,3.64,3.19,5.56c0.06,0.18,0.07,0.24,0.07,0.24
			c0.06,0.22,0.07,0.27,0.07,0.27c0.04,0.21,0.05,0.26,0.05,0.26c0.03,0.2,0.03,0.24,0.03,0.24c0.02,0.19,0.02,0.23,0.02,0.23
			c0,0.2,0,0.22,0,0.22c-0.02,0.21-0.02,0.23-0.02,0.23c-0.05,0.22-0.05,0.23-0.05,0.23c-0.07,0.2-0.08,0.22-0.08,0.22
			c-0.11,0.2-0.12,0.22-0.12,0.22c-0.15,0.2-0.17,0.22-0.17,0.22c-0.21,0.2-0.23,0.21-0.23,0.21c-0.2,0.15-0.24,0.17-0.24,0.17
			c-0.21,0.12-0.25,0.14-0.25,0.14c0.18,0.1,0.23,0.11,0.23,0.11c0.2,0.06,0.25,0.08,0.25,0.08c0.2,0.08,0.25,0.1,0.25,0.1
			c0.2,0.09,0.25,0.11,0.25,0.11c0.19,0.1,0.24,0.12,0.24,0.12c0.19,0.11,0.24,0.14,0.24,0.14c0.18,0.12,0.23,0.15,0.23,0.15
			c0.22,0.16,0.26,0.19,0.26,0.19c0.2,0.17,0.24,0.2,0.24,0.2c0.22,0.22,0.25,0.25,0.25,0.25c0.16,0.19,0.19,0.23,0.19,0.23
			c0.13,0.19,0.15,0.22,0.15,0.22c0.11,0.21,0.13,0.25,0.13,0.25c0.07,0.18,0.09,0.22,0.09,0.22c0.06,0.2,0.06,0.22,0.06,0.22
			c0.04,0.21,0.04,0.23,0.04,0.23c0.01,0.19,0.01,0.23,0.01,0.23c-0.01,0.2-0.01,0.24-0.01,0.24c-0.03,0.2-0.04,0.24-0.04,0.24
			c-0.05,0.21-0.06,0.25-0.06,0.25c-0.07,0.21-0.09,0.25-0.09,0.25c-0.09,0.21-0.11,0.26-0.11,0.26c-0.11,0.21-0.13,0.25-0.13,0.25
			c-0.12,0.21-0.15,0.25-0.15,0.25c-0.11,0.17-0.17,0.26-0.17,0.26c-0.13,0.17-0.19,0.26-0.19,0.26c-0.14,0.17-0.22,0.26-0.22,0.26
			c-1.33,1.49-2.59,2.37-4.14,3.45c-1.93,1.31-4.09,2.56-6.14,3.68c-8.71,4.65-17.96,8.51-27.5,11.11
			c-6.84,4.48-14.61,7.46-22.43,9.74c-4.43,1.25-9.06,2.36-13.68,1.76c-6.8,3.22-14.09,6.4-21.14,8.99
			c-8.98,3.32-18.45,6.15-27.73,8.5c-13.37,3.34-27.23,5.98-40.98,7.07c-6.29,0.5-12.83,0.58-19.13,0.36
			c-2.63-0.1-6.25-0.3-8.88-0.5c-7.55-0.63-55.93-5.09-63.54-5.92c-0.24,2.09-0.71,4.23-1.21,6.27c-1.73,6.97-5.67,17.96-7.82,24.91
			c-2.06,6.39-4.07,15.62-6.11,22.04c-0.7,2.16-1.53,4.35-2.54,6.39c-2.16,4.44-5.4,8.34-9.33,11.34c-1.37,1.04-2.85,1.98-4.42,2.69
			c-1.38,0.62-2.87,1.08-4.28,1.1c-0.16,0-0.24,0-0.24,0c-0.16-0.01-0.24-0.01-0.24-0.01c-0.16-0.01-0.23-0.02-0.23-0.02
			c-0.15-0.02-0.23-0.03-0.23-0.03c-0.15-0.02-0.23-0.04-0.23-0.04c-0.15-0.03-0.22-0.04-0.22-0.04c-0.15-0.03-0.22-0.05-0.22-0.05
			c-0.15-0.04-0.22-0.06-0.22-0.06c-0.22-0.07-0.29-0.09-0.29-0.09c-0.21-0.08-0.28-0.11-0.28-0.11c-0.21-0.09-0.28-0.12-0.28-0.12
			c-0.21-0.1-0.27-0.13-0.27-0.13c-0.2-0.11-0.27-0.15-0.27-0.15c-0.2-0.12-0.27-0.16-0.27-0.16c-1.41-0.89-2.32-1.9-3.37-3.06
			c-3.11-3.65-6.62-7.88-9.5-11.7c-3.54-4.72-6.88-9.71-9.44-15.03c-2.23-4.67-3.86-9.68-4.68-14.8
			c-0.84-5.38-0.84-11.01,0.82-16.23c0.55-1.76,1.47-3.73,2.47-5.22c1.42-2.13,3.17-3.73,5.22-4.88c1.5-0.84,3.13-1.45,4.77-1.95
			c2.64-0.82,7.91-1.84,10.65-2.45c3.28-0.74,7.65-1.91,10.91-2.83c-8.88-1.4-22.34-3.5-31.16-4.59
			c-7.43-0.95-18.88-2.02-26.41-2.68l-25.16-1.82l-0.89-0.08l-0.85-0.09c-1.03-0.11-2.1-0.26-3.11-0.47
			c-1.29-0.26-2.67-0.69-3.73-1.18c-1.17-0.54-2.08-1.1-3.12-1.78c-2.13-1.43-4.73-3.27-7.01-4.41c-2.44,5.15-5.18,10.32-8.23,15.13
			c-4.82,7.58-10.42,14.79-16.44,21.45c-2.86,3.12-5.94,6.26-9.18,8.97c-2.65,2.15-5.79,4.5-9.14,5.04c-0.71,0.1-1.28,0.1-1.86,0.02
			c-0.22-0.03-0.32-0.05-0.32-0.05c-0.21-0.04-0.32-0.07-0.32-0.07c-0.21-0.05-0.32-0.08-0.32-0.08c-0.21-0.06-0.32-0.1-0.32-0.1
			c-0.21-0.07-0.31-0.11-0.31-0.11c-0.21-0.08-0.31-0.13-0.31-0.13c-0.21-0.09-0.31-0.14-0.31-0.14c-0.21-0.1-0.31-0.16-0.31-0.16
			c-0.21-0.11-0.31-0.17-0.31-0.17c-1.93-1.14-3.47-2.77-4.78-4.26c-1.64-1.91-3.11-4.04-4.39-6.21c-1.59-2.72-2.96-5.63-4.03-8.59
			c-1.82-4.95-3.33-12.38-4.58-17.56c-0.8-3.19-1.71-6.45-3.11-9.44c-0.51-1.1-1.15-2.24-1.76-3.29c-0.78-1.32-2.03-3.24-2.63-4.6
			c-0.09-0.21-0.11-0.27-0.11-0.27c-0.08-0.2-0.1-0.27-0.1-0.27c-0.07-0.2-0.08-0.26-0.08-0.26c-0.05-0.19-0.07-0.25-0.07-0.25
			c-0.04-0.18-0.05-0.25-0.05-0.25c-0.03-0.21-0.03-0.24-0.03-0.24c-0.01-0.2-0.01-0.23-0.01-0.23c0-0.2,0-0.22,0-0.22
			c0.02-0.19,0.03-0.22,0.03-0.22c0.05-0.21,0.05-0.23,0.05-0.23c0.07-0.2,0.08-0.23,0.08-0.23c0.1-0.2,0.11-0.22,0.11-0.22
			c0.13-0.21,0.15-0.23,0.15-0.23c0.16-0.2,0.2-0.24,0.2-0.24c0.19-0.19,0.23-0.23,0.23-0.23c0.17-0.15,0.22-0.18,0.22-0.18
			c0.19-0.14,0.24-0.18,0.24-0.18c0.21-0.14,0.26-0.17,0.26-0.17c1.17-0.71,2.2-1.04,3.42-1.44c1.59-0.5,3.69-1.04,5.31-1.47
			c5.14-1.33,10.46-2.5,15.79-2.35c-6.9-2.65-14.19-4.37-21.47-5.57c-6.98-1.13-14.13-1.86-21.21-1.8c-3.16,0.03-6.38,0.27-9.49,0.8
			C187.31,413.21,182.21,414.62,178.55,415.35z"/>
	</g>
</g>
</svg>
