<?xml version="1.0" encoding="utf-8"?>
<!-- Generator: Adobe Illustrator 24.2.1, SVG Export Plug-In . SVG Version: 6.00 Build 0)  -->
<!DOCTYPE svg PUBLIC "-//W3C//DTD SVG 1.1//EN" "http://www.w3.org/Graphics/SVG/1.1/DTD/svg11.dtd" [
	<!ENTITY ns_extend "http://ns.adobe.com/Extensibility/1.0/">
	<!ENTITY ns_ai "http://ns.adobe.com/AdobeIllustrator/10.0/">
	<!ENTITY ns_graphs "http://ns.adobe.com/Graphs/1.0/">
	<!ENTITY ns_vars "http://ns.adobe.com/Variables/1.0/">
	<!ENTITY ns_imrep "http://ns.adobe.com/ImageReplacement/1.0/">
	<!ENTITY ns_sfw "http://ns.adobe.com/SaveForWeb/1.0/">
	<!ENTITY ns_custom "http://ns.adobe.com/GenericCustomNamespace/1.0/">
	<!ENTITY ns_adobe_xpath "http://ns.adobe.com/XPath/1.0/">
]>
<svg version="1.1" xmlns:x="&ns_extend;" xmlns:i="&ns_ai;" xmlns:graph="&ns_graphs;"
	 xmlns="http://www.w3.org/2000/svg" xmlns:xlink="http://www.w3.org/1999/xlink" x="0px" y="0px" width="750px" height="750px"
	 viewBox="0 0 750 750" style="enable-background:new 0 0 750 750;" xml:space="preserve">
<style type="text/css">
	.st0{fill:#FFFFFF;}
	.st1{fill:#FB8604;}
	.st2{fill:none;stroke:#FB8604;stroke-width:2;stroke-linecap:round;stroke-linejoin:round;stroke-miterlimit:10;}
	.st3{fill:none;stroke:#FB8604;stroke-width:3;stroke-linecap:round;stroke-linejoin:round;}
	.st4{fill:none;stroke:#FB8604;stroke-width:3;stroke-linecap:round;stroke-linejoin:round;stroke-dasharray:2.8454,4.7423;}
	.st5{fill:none;stroke:#FB8604;stroke-width:3;stroke-linecap:round;stroke-linejoin:round;stroke-dasharray:3.0358,5.0597;}
	.st6{fill:none;stroke:#FB8604;stroke-width:3;stroke-linecap:round;stroke-linejoin:round;stroke-dasharray:3.0623,5.1039;}
	.st7{fill:none;stroke:#FB8604;stroke-width:3;stroke-linecap:round;stroke-linejoin:round;stroke-dasharray:2.7205,4.5341;}
	.st8{fill:none;stroke:#FB8604;stroke-width:3;stroke-linecap:round;stroke-linejoin:round;stroke-dasharray:2.98,4.9666;}
	.st9{fill:none;stroke:#FB8604;stroke-width:3;stroke-linecap:round;stroke-linejoin:round;stroke-dasharray:3.1616,5.2694;}
	.st10{fill:none;stroke:#FB8604;stroke-width:3;stroke-linecap:round;stroke-linejoin:round;stroke-dasharray:2.9622,4.937;}
	.st11{fill:none;stroke:#FB8604;stroke-width:3;stroke-linecap:round;stroke-linejoin:round;stroke-dasharray:3.1524,5.254;}
	.st12{fill:none;stroke:#FB8604;stroke-width:3;stroke-linecap:round;stroke-linejoin:round;stroke-dasharray:2.9926,4.9876;}
	.st13{fill:none;stroke:#FB8604;stroke-width:3;stroke-linecap:round;stroke-linejoin:round;stroke-dasharray:2.9819,4.9699;}
	.st14{fill:none;stroke:#FB8604;stroke-width:3;stroke-linecap:round;stroke-linejoin:round;stroke-dasharray:3.2543,5.4238;}
	.st15{fill:none;stroke:#FB8604;stroke-width:3;stroke-linecap:round;stroke-linejoin:round;stroke-dasharray:3.1883,5.3139;}
	.st16{fill:none;stroke:#FB8604;stroke-width:3;stroke-linecap:round;stroke-linejoin:round;stroke-dasharray:3.1996,5.3327;}
	.st17{fill:none;stroke:#FB8604;stroke-width:3;stroke-linecap:round;stroke-linejoin:round;stroke-dasharray:3.0002,5.0003;}
	.st18{fill:none;stroke:#FB8604;stroke-width:3;stroke-linecap:round;stroke-linejoin:round;stroke-dasharray:3.0484,5.0807;}
	.st19{fill:none;stroke:#FB8604;stroke-width:3;stroke-linecap:round;stroke-linejoin:round;stroke-dasharray:2.9243,4.8739;}
	.st20{fill:none;stroke:#FB8604;stroke-width:3;stroke-linecap:round;stroke-linejoin:round;stroke-dasharray:2.6889,4.4815;}
	.st21{fill:none;stroke:#FB8604;stroke-width:3;stroke-linecap:round;stroke-linejoin:round;stroke-dasharray:3.2554,5.4256;}
	.st22{fill:none;stroke:#FB8604;stroke-width:3;stroke-linecap:round;stroke-linejoin:round;stroke-dasharray:2.7653,4.6089;}
	.st23{fill:none;stroke:#FB8604;stroke-width:3;stroke-linecap:round;stroke-linejoin:round;stroke-dasharray:2.9223,4.8704;}
	.st24{fill:none;stroke:#FB8604;stroke-width:3;stroke-linecap:round;stroke-linejoin:round;stroke-dasharray:2.9057,4.8429;}
	.st25{fill:none;stroke:#FB8604;stroke-width:3;stroke-linecap:round;stroke-linejoin:round;stroke-dasharray:3.0065,5.0108;}
	.st26{fill:none;stroke:#FB8604;stroke-width:3;stroke-linecap:round;stroke-linejoin:round;stroke-dasharray:2.9079,4.8465;}
	.st27{fill:none;stroke:#FB8604;stroke-width:3;stroke-linecap:round;stroke-linejoin:round;stroke-dasharray:3.0937,5.1562;}
	.st28{fill:none;stroke:#FB8604;stroke-width:3;stroke-linecap:round;stroke-linejoin:round;stroke-dasharray:3.0661,5.1101;}
	.st29{fill:none;stroke:#FB8604;stroke-width:3;stroke-linecap:round;stroke-linejoin:round;stroke-dasharray:3.1776,5.2959;}
	.st30{fill:none;stroke:#FB8604;stroke-width:3;stroke-linecap:round;stroke-linejoin:round;stroke-dasharray:2.9906,4.9843;}
	.st31{fill:none;stroke:#FB8604;stroke-width:3;stroke-linecap:round;stroke-linejoin:round;stroke-dasharray:3.05,5.0833;}
	.st32{fill:none;stroke:#FB8604;stroke-width:3;stroke-linecap:round;stroke-linejoin:round;stroke-dasharray:2.9927,4.9878;}
	.st33{fill:none;stroke:#FB8604;stroke-width:3;stroke-linecap:round;stroke-linejoin:round;stroke-dasharray:3.0562,5.0937;}
	.st34{fill:none;stroke:#FB8604;stroke-width:3;stroke-linecap:round;stroke-linejoin:round;stroke-dasharray:2.6349,4.3916;}
	.st35{fill:none;stroke:#FB8604;stroke-width:3;stroke-linecap:round;stroke-linejoin:round;stroke-dasharray:2.7969,4.6614;}
	.st36{fill:none;stroke:#FB8604;stroke-width:3;stroke-linecap:round;stroke-linejoin:round;stroke-dasharray:2.9278,4.8796;}
	.st37{fill:none;stroke:#FB8604;stroke-width:3;stroke-linecap:round;stroke-linejoin:round;stroke-dasharray:3.0246,5.041;}
	.st38{fill:none;stroke:#FB8604;stroke-width:3;stroke-linecap:round;stroke-linejoin:round;stroke-dasharray:3.1079,5.1799;}
	.st39{fill:none;stroke:#FB8604;stroke-width:3;stroke-linecap:round;stroke-linejoin:round;stroke-dasharray:2.857,4.7617;}
	.st40{fill:none;stroke:#FB8604;stroke-width:3;stroke-linecap:round;stroke-linejoin:round;stroke-dasharray:2.963,4.9383;}
	.st41{fill:none;stroke:#FB8604;stroke-width:3;stroke-linecap:round;stroke-linejoin:round;stroke-dasharray:2.9904,4.984;}
	.st42{fill:none;stroke:#FB8604;stroke-width:3;stroke-linecap:round;stroke-linejoin:round;stroke-dasharray:2.9956,4.9927;}
	.st43{fill:none;stroke:#FB8604;stroke-width:3;stroke-linecap:round;stroke-linejoin:round;stroke-dasharray:3.0812,5.1353;}
	.st44{fill:none;stroke:#FB8604;stroke-width:3;stroke-linecap:round;stroke-linejoin:round;stroke-dasharray:2.9058,4.8431;}
	.st45{fill:none;stroke:#FB8604;stroke-width:3;stroke-linecap:round;stroke-linejoin:round;stroke-dasharray:3.0726,5.121;}
	.st46{fill:none;stroke:#FB8604;stroke-width:3;stroke-linecap:round;stroke-linejoin:round;stroke-dasharray:2.9521,4.9202;}
	.st47{fill:none;stroke:#FB8604;stroke-width:3;stroke-linecap:round;stroke-linejoin:round;stroke-dasharray:2.8199,4.6998;}
	.st48{fill:none;stroke:#FB8604;stroke-width:3;stroke-linecap:round;stroke-linejoin:round;stroke-dasharray:2.9034,4.8389;}
	.st49{fill:none;stroke:#FB8604;stroke-width:3;stroke-linecap:round;stroke-linejoin:round;stroke-dasharray:3.1354,5.2257;}
	.st50{fill:none;stroke:#FB8604;stroke-width:3;stroke-linecap:round;stroke-linejoin:round;stroke-dasharray:2.9869,4.9781;}
	.st51{fill:none;stroke:#FB8604;stroke-width:3;stroke-linecap:round;stroke-linejoin:round;stroke-dasharray:3.0079,5.0131;}
	.st52{fill:none;stroke:#FB8604;stroke-width:3;stroke-linecap:round;stroke-linejoin:round;stroke-dasharray:2.9878,4.9796;}
	.st53{fill:none;stroke:#FB8604;stroke-width:3;stroke-linecap:round;stroke-linejoin:round;stroke-dasharray:2.9976,4.996;}
	.st54{fill:none;stroke:#FB8604;stroke-width:3;stroke-linecap:round;stroke-linejoin:round;stroke-dasharray:2.8211,4.7018;}
	.st55{fill:none;stroke:#FB8604;stroke-width:3;stroke-linecap:round;stroke-linejoin:round;stroke-dasharray:2.9864,4.9773;}
	.st56{fill:none;stroke:#FB8604;stroke-width:3;stroke-linecap:round;stroke-linejoin:round;stroke-dasharray:3.1189,5.1981;}
	.st57{fill:none;stroke:#FB8604;stroke-width:3;stroke-linecap:round;stroke-linejoin:round;stroke-dasharray:3.2283,5.3806;}
	.st58{fill:none;stroke:#FB8604;stroke-width:3;stroke-linecap:round;stroke-linejoin:round;stroke-dasharray:3.0483,5.0805;}
	.st59{fill:none;stroke:#FB8604;stroke-width:3;stroke-linecap:round;stroke-linejoin:round;stroke-dasharray:2.9847,4.9744;}
	.st60{fill:none;stroke:#FB8604;stroke-width:3;stroke-linecap:round;stroke-linejoin:round;stroke-dasharray:3.0077,5.0129;}
	.st61{fill:none;stroke:#FB8604;stroke-width:2.75;stroke-linecap:round;stroke-linejoin:round;stroke-miterlimit:10;}
	.st62{fill:none;stroke:#FB8604;stroke-width:3.5;stroke-linecap:round;stroke-linejoin:round;stroke-miterlimit:10;}
	
		.st63{fill:none;stroke:#FB8604;stroke-width:3;stroke-linecap:round;stroke-linejoin:round;stroke-miterlimit:10;stroke-dasharray:3,5;}
</style>
<metadata>
	<sfw  xmlns="&ns_sfw;">
		<slices></slices>
		<sliceSourceBounds  bottomLeftOrigin="true" height="8099.71" width="4072" x="-2000" y="-1120"></sliceSourceBounds>
	</sfw>
</metadata>
<g id="FILL-BACKGROUND">
	<rect class="st0" width="750" height="750"/>
</g>
<g id="N-TEXT">
</g>
<g id="N-DIMENSIONS">
</g>
<g id="AG-DETAIL-DIAGRAM">
</g>
<g id="AG-DETAILS">
	<g id="POLYLINE_497_">
		<path class="st2" d="M184.44,365.37c-1.16,1.68-2.63,3.98-3.35,5.68c-1.52,3.49-1.97,6.78-2.24,10.21
			c-0.32,5.12-0.04,10.63,1.83,15.11c0.15,0.33,0.22,0.49,0.22,0.49c0.24,0.47,0.32,0.62,0.32,0.62c0.25,0.45,0.34,0.59,0.34,0.59
			c0.27,0.42,0.37,0.55,0.37,0.55c0.34,0.45,0.39,0.51,0.39,0.51c0.42,0.47,0.48,0.53,0.48,0.53c0.45,0.42,0.51,0.47,0.51,0.47
			c0.39,0.31,0.49,0.37,0.49,0.37c0.38,0.25,0.48,0.31,0.48,0.31c0.4,0.22,0.5,0.27,0.5,0.27c0.41,0.18,0.52,0.23,0.52,0.23
			c0.43,0.15,0.54,0.19,0.54,0.19c0.44,0.12,0.55,0.15,0.55,0.15c0.45,0.09,0.56,0.11,0.56,0.11c0.46,0.06,0.57,0.08,0.57,0.08
			c0.46,0.04,0.58,0.04,0.58,0.04c0.47,0.01,0.59,0.01,0.59,0.01c0.47-0.02,0.59-0.03,0.59-0.03c0.47-0.04,0.59-0.06,0.59-0.06
			c0.47-0.07,0.59-0.09,0.59-0.09c0.47-0.09,0.58-0.12,0.58-0.12c0.46-0.12,0.58-0.15,0.58-0.15c0.46-0.14,0.57-0.18,0.57-0.18
			c0.45-0.17,0.56-0.21,0.56-0.21c0.44-0.19,0.55-0.24,0.55-0.24c0.43-0.21,0.53-0.26,0.53-0.26c0.41-0.23,0.51-0.29,0.51-0.29
			c0.4-0.25,0.49-0.31,0.49-0.31c0.47-0.34,0.56-0.41,0.56-0.41c0.44-0.37,0.53-0.44,0.53-0.44c0.41-0.39,0.49-0.47,0.49-0.47
			c0.37-0.42,0.44-0.5,0.44-0.5c0.3-0.39,0.37-0.49,0.37-0.49c0.27-0.41,0.33-0.51,0.33-0.51c0.24-0.42,0.29-0.53,0.29-0.53
			c0.21-0.44,0.26-0.55,0.26-0.55c0.19-0.45,0.23-0.57,0.23-0.57c1.55-4.32,1.01-9,2.15-13.28c0.13-0.45,0.2-0.68,0.2-0.68
			c0.15-0.44,0.22-0.66,0.22-0.66c0.16-0.43,0.25-0.64,0.25-0.64c0.18-0.42,0.27-0.63,0.27-0.63c0.19-0.41,0.29-0.61,0.29-0.61
			c1.84-3.57,4.25-5.97,6.77-8.69"/>
	</g>
	<g id="POLYLINE_496_">
		<path class="st2" d="M221.52,370.12l-0.31,2.03c-0.59,3.82-0.01,7.33,0.79,10.91c1.04,4.52,2.79,9.59,5.18,13.3
			c0.22,0.33,0.33,0.5,0.33,0.5c0.34,0.48,0.45,0.63,0.45,0.63c0.35,0.45,0.47,0.6,0.47,0.6c0.36,0.43,0.48,0.57,0.48,0.57
			c0.37,0.4,0.5,0.53,0.5,0.53c0.38,0.37,0.51,0.49,0.51,0.49c0.4,0.34,0.53,0.44,0.53,0.44c0.47,0.35,0.54,0.4,0.54,0.4
			c0.42,0.27,0.49,0.31,0.49,0.31c0.45,0.24,0.56,0.3,0.56,0.3c0.47,0.21,0.59,0.26,0.59,0.26c0.36,0.13,0.48,0.17,0.48,0.17
			c0.37,0.11,0.49,0.14,0.49,0.14c0.37,0.08,0.5,0.1,0.5,0.1c0.38,0.06,0.5,0.07,0.5,0.07c0.38,0.04,0.51,0.04,0.51,0.04
			c0.38,0.01,0.51,0.02,0.51,0.02c0.39-0.01,0.52-0.01,0.52-0.01c0.39-0.03,0.52-0.04,0.52-0.04c0.39-0.05,0.52-0.07,0.52-0.07
			c0.39-0.07,0.52-0.09,0.52-0.09c0.39-0.09,0.52-0.12,0.52-0.12c0.39-0.11,0.52-0.14,0.52-0.14c0.39-0.12,0.51-0.17,0.51-0.17
			c0.38-0.14,0.51-0.19,0.51-0.19c0.38-0.16,0.51-0.21,0.51-0.21c0.38-0.17,0.5-0.23,0.5-0.23c0.37-0.19,0.5-0.26,0.5-0.26
			c0.37-0.2,0.49-0.28,0.49-0.28c0.36-0.22,0.48-0.29,0.48-0.29c0.47-0.31,0.59-0.39,0.59-0.39c0.35-0.25,0.58-0.42,0.58-0.42
			c0.45-0.36,0.67-0.54,0.67-0.54c0.43-0.38,0.64-0.58,0.64-0.58c0.41-0.4,0.61-0.61,0.61-0.61c0.39-0.42,0.58-0.64,0.58-0.64
			c0.37-0.44,0.46-0.56,0.46-0.56c0.35-0.46,0.43-0.57,0.43-0.57c0.27-0.39,0.36-0.52,0.36-0.52c0.25-0.4,0.34-0.53,0.34-0.53
			c3.08-5.2,3.35-10.94,4.6-16.62c0.95-4.56,3.08-8.23,5.05-12.22"/>
	</g>
	<g id="POLYLINE_495_">
		<path class="st2" d="M275.57,361.6c-0.26,2.95-0.58,6.63-0.27,9.4c0.39,4.12,1.66,8.15,3.07,12.02c1.41,3.8,3.11,7.63,5.03,11.2
			c1.56,2.91,3.75,6.35,5.85,8.49c0.47,0.47,0.63,0.62,0.63,0.62c0.47,0.42,0.63,0.55,0.63,0.55c0.47,0.36,0.55,0.42,0.55,0.42
			c0.47,0.31,0.55,0.36,0.55,0.36c0.47,0.26,0.54,0.3,0.54,0.3c0.46,0.21,0.54,0.24,0.54,0.24c0.46,0.15,0.53,0.17,0.53,0.17
			c0.45,0.09,0.53,0.1,0.53,0.1c0.45,0.03,0.51,0.02,0.51,0.02c0.47-0.04,0.53-0.05,0.53-0.05c0.47-0.11,0.52-0.12,0.52-0.12
			c0.46-0.17,0.51-0.19,0.51-0.19c0.45-0.23,0.5-0.26,0.5-0.26c0.44-0.29,0.49-0.33,0.49-0.33c0.43-0.34,0.48-0.39,0.48-0.39
			c0.42-0.39,0.53-0.5,0.53-0.5c0.41-0.45,0.51-0.57,0.51-0.57c0.3-0.37,0.4-0.5,0.4-0.5c0.29-0.4,0.39-0.54,0.39-0.54
			c2.2-3.3,3.32-6.66,4.29-10.14c1.43-5.23,1.89-10.69,1.67-16.1c-0.1-2.72-0.44-7.73-0.28-10.35c0.16-3.06,0.52-5.23,1.05-8.05
			l1.09-5.27"/>
	</g>
	<g id="POLYLINE_494_">
		<path class="st2" d="M323.46,346.37c1.76,4.16,3.51,9.21,5.38,13.32c2.09,4.54,4.9,10.21,6.38,14.93
			c1.36,4.21,2.07,8.28,2.1,12.43c0.07,4.97-0.7,11.59-0.63,16.56c0.02,3.51,0.49,7.48,1.76,10.66c0.19,0.48,0.29,0.71,0.29,0.71
			c0.21,0.47,0.32,0.7,0.32,0.7c0.23,0.46,0.35,0.69,0.35,0.69c0.25,0.46,0.38,0.69,0.38,0.69c1.88,3.19,4.46,5.68,7.04,7.62
			c2.93,2.16,5.95,3.71,9.07,4.49c0.37,0.09,0.56,0.13,0.56,0.13c0.37,0.07,0.55,0.1,0.55,0.1c0.36,0.05,0.54,0.08,0.54,0.08
			c0.35,0.04,0.53,0.05,0.53,0.05c0.34,0.02,0.51,0.03,0.51,0.03c0.42,0,0.5,0,0.5,0c0.4-0.02,0.48-0.02,0.48-0.02
			c0.46-0.05,0.54-0.06,0.54-0.06c0.44-0.08,0.52-0.1,0.52-0.1c0.42-0.12,0.49-0.14,0.49-0.14c0.46-0.18,0.52-0.2,0.52-0.2
			c0.43-0.22,0.48-0.26,0.48-0.26c0.44-0.3,0.49-0.35,0.49-0.35c0.44-0.41,0.49-0.46,0.49-0.46c0.39-0.47,0.43-0.53,0.43-0.53
			c0.31-0.47,0.34-0.54,0.34-0.54c0.24-0.45,0.27-0.52,0.27-0.52c0.18-0.42,0.21-0.49,0.21-0.49c0.16-0.44,0.21-0.6,0.21-0.6
			c0.14-0.47,0.18-0.63,0.18-0.63c0.08-0.33,0.12-0.5,0.12-0.5c0.47-2.28,0.45-4.59,0.38-6.53c-0.1-2.44-0.4-5.07-0.72-7.49
			c-1.75-12.08-4-26.01-4.32-38.14c-0.39-12.54,0.4-25.25,2.19-37.66"/>
	</g>
	<g id="POLYLINE_493_">
		<path class="st2" d="M384.64,329.72l0.18,5.47c0.14,3.12,0.48,6.29,1.26,9.32c1.37,5.55,5.2,12.16,7.65,17.29
			c2.46,5.06,4.55,10.59,5.07,16.03c0.72,6.47,0.1,13.65,1.03,20.1c0.31,2.38,1.12,5.44,1.99,7.36c2.18,4.94,5.71,8.96,9.82,11.76
			c0.46,0.3,0.62,0.39,0.62,0.39c0.46,0.27,0.62,0.36,0.62,0.36c0.46,0.25,0.61,0.33,0.61,0.33c0.46,0.22,0.61,0.29,0.61,0.29
			c0.45,0.2,0.6,0.26,0.6,0.26c0.45,0.17,0.59,0.22,0.59,0.22c0.44,0.14,0.58,0.18,0.58,0.18c0.43,0.11,0.57,0.14,0.57,0.14
			c0.42,0.08,0.49,0.09,0.49,0.09c0.41,0.05,0.48,0.06,0.48,0.06c0.47,0.02,0.53,0.02,0.53,0.02c0.45-0.02,0.51-0.02,0.51-0.02
			c0.43-0.06,0.5-0.07,0.5-0.07c0.47-0.11,0.53-0.13,0.53-0.13c0.45-0.17,0.5-0.19,0.5-0.19c0.47-0.25,0.52-0.28,0.52-0.28
			c0.44-0.31,0.49-0.35,0.49-0.35c0.46-0.42,0.5-0.46,0.5-0.46c0.38-0.44,0.42-0.49,0.42-0.49c0.28-0.38,0.35-0.49,0.35-0.49
			c0.29-0.48,0.36-0.6,0.36-0.6c0.2-0.39,0.27-0.52,0.27-0.52c0.19-0.41,0.25-0.55,0.25-0.55c0.18-0.43,0.23-0.58,0.23-0.58
			c1.25-3.53,1.47-6.68,1.65-10.16c0.18-4.83-0.19-9.79-0.73-14.6c-0.74-6.46-2.31-16.39-2.19-22.81
			c0.01-7.16,2.02-15.34,3.39-22.36c0.95-4.88,1.35-9.98,1.48-14.95l0.12-7.18"/>
	</g>
	<g id="POLYLINE_492_">
		<path class="st2" d="M456.88,318.65c-0.89,5.03-1.66,10.36-2.06,15.44c-0.48,5.78-0.54,11.81-0.3,17.61
			c0.55,12.2,2.22,24.54,5.3,36.37"/>
	</g>
	<g id="POLYLINE_491_">
		<path class="st2" d="M479.14,382.79c-0.77-6.82-1.15-13.83-0.02-20.62c0.67-4.17,1.91-8.33,3.25-12.33
			c1.57-4.62,5.02-13.8,6.11-18.43c1.16-4.43,1.81-10.11,2.37-14.68"/>
	</g>
	<g id="POLYLINE_490_">
		<path class="st2" d="M515.75,318.97c-2.19,7.04-4.36,14.34-5.26,21.67c-1.47,11.33-0.27,23.61,0.02,35.01
			c0.04,1.87,0.07,4.43-0.12,6.19c-0.05,0.42-0.08,0.61-0.08,0.61c-0.06,0.37-0.1,0.55-0.1,0.55c-0.07,0.33-0.11,0.49-0.11,0.49
			c-0.12,0.45-0.16,0.59-0.16,0.59c-0.3,0.94-0.62,1.64-0.81,2.22"/>
	</g>
	<g id="POLYLINE_489_">
		<path class="st2" d="M522.23,390.61c1.94-2.82,4.68-6.77,6.41-9.65c1.7-2.8,3.3-5.77,4.64-8.76c3.56-7.78,6.93-19.99,9.93-28.05
			c0.69-1.84,1.71-4.29,2.59-5.84c1.21-2.3,3.38-4.73,4.74-6.35"/>
	</g>
	<g id="POLYLINE_488_">
		<path class="st2" d="M381.73,306.62c3.65,1.59,7.14,3.66,10.43,5.89c2.06,1.41,4.34,3.13,6.17,4.75c2.35,2.09,3.72,3.67,5.48,5.76
			"/>
	</g>
	<g id="POLYLINE_487_">
		<path class="st2" d="M386.62,292.93c2.9,1.51,5.87,3.18,8.59,4.99c2.96,1.96,5.87,4.22,8.56,6.54
			c5.21,4.53,10.14,9.57,14.33,15.06"/>
	</g>
	<g id="POLYLINE_486_">
		<path class="st2" d="M377.23,319.32c5.1,0.9,10.46,2.85,14.75,5.55"/>
	</g>
	<g id="POLYLINE_485_">
		<path class="st2" d="M395.22,279.44c6.53,3.36,12.77,7.44,18.29,12.29c8.07,7.1,14.86,15.68,20.06,25.07"/>
	</g>
	<g id="POLYLINE_484_">
		<path class="st2" d="M407.85,269.85c10.09,7.32,19.23,16.15,26.78,26.08c4.7,6.2,8.83,12.98,12.3,19.94"/>
	</g>
	<g id="POLYLINE_483_">
		<path class="st2" d="M424.18,262.58c3.57,3.51,7.24,7.33,10.46,11.14c3.52,4.15,6.89,8.69,9.94,13.2
			c5.89,8.76,11.24,18.1,15.5,27.76"/>
	</g>
	<g id="POLYLINE_482_">
		<path class="st2" d="M438.66,255.17c3.38,4.15,7.18,8.99,10.22,13.36c3.57,5.11,7.09,10.7,10.25,16.07
			c5.26,8.95,10.26,18.34,14.44,27.84"/>
	</g>
	<g id="POLYLINE_481_">
		<path class="st2" d="M453.34,252.26c6.41,8.75,12.51,18.29,17.88,27.72c6.01,10.54,12.06,21.93,17.03,32.99"/>
	</g>
	<g id="POLYLINE_480_">
		<path class="st2" d="M488.85,280.63c7.57,10.35,13.45,21.95,17.66,34.06"/>
	</g>
</g>
<g id="AG-ANIMALS">
	<g id="POLYLINE_163_">
		<path class="st61" d="M533.62,416.26c-0.11,0.36-0.14,0.48-0.14,0.48c-0.11,0.46-0.14,0.57-0.14,0.57
			c-0.07,0.33-0.1,0.55-0.1,0.55c-0.07,0.42-0.23,1.6-0.23,1.6c-0.07,0.46-0.09,0.55-0.09,0.55c-0.1,0.44-0.12,0.52-0.12,0.52
			c-0.15,0.46-0.17,0.5-0.17,0.5c-0.21,0.45-0.24,0.49-0.24,0.49c-0.32,0.47-0.35,0.51-0.35,0.51c-0.44,0.48-0.49,0.52-0.49,0.52
			c-0.44,0.37-0.49,0.41-0.49,0.41c-0.45,0.32-0.58,0.4-0.58,0.4c-0.38,0.23-0.52,0.31-0.52,0.31c-0.42,0.23-0.57,0.31-0.57,0.31
			c-3.36,1.63-6.32,2.31-9.71,3.08c-4.35,0.92-8.84,1.52-13.27,1.88c-10.51,0.8-24.81,0.6-33.52-5.71c-0.41-0.31-0.65-0.5-0.65-0.5
			c-0.48-0.4-0.71-0.6-0.71-0.6c-0.45-0.41-0.67-0.63-0.67-0.63c-0.43-0.43-0.64-0.65-0.64-0.65c-0.41-0.45-0.61-0.67-0.61-0.67
			c-0.39-0.46-0.59-0.7-0.59-0.7c-1.67-2.1-2.62-3.73-3.86-5.94c-0.89-1.64-3.4-6.38-4.32-7.9c-1.41-2.41-3.38-5.52-4.35-8.07
			c-0.17-0.48-0.25-0.71-0.25-0.71c-0.14-0.47-0.18-0.58-0.18-0.58c-0.12-0.46-0.14-0.58-0.14-0.58c-0.09-0.45-0.11-0.57-0.11-0.57
			c-0.06-0.45-0.07-0.56-0.07-0.56c-0.02-0.44-0.03-0.55-0.03-0.55c0.01-0.43,0.01-0.48,0.01-0.48c0.05-0.47,0.06-0.53,0.06-0.53
			c0.1-0.46,0.11-0.52,0.11-0.52c0.14-0.45,0.16-0.5,0.16-0.5c0.19-0.44,0.21-0.49,0.21-0.49c0.24-0.43,0.28-0.49,0.28-0.49
			c0.3-0.43,0.35-0.49,0.35-0.49c0.41-0.48,0.46-0.54,0.46-0.54c0.47-0.46,0.59-0.58,0.59-0.58c0.4-0.33,0.53-0.44,0.53-0.44
			c0.43-0.32,0.58-0.43,0.58-0.43c3.01-2.01,6.15-2.97,9.23-3.83c3.15-0.83,6.47-1.42,9.71-1.8c4.54-0.53,9.19-0.67,13.74-0.19
			c4.94,0.49,9.99,1.82,14.77,3.16c5.46,1.58,12.61,3.53,17.88,5.53c3.52,1.32,7.68,3.17,10.43,5.34c0.33,0.27,0.49,0.4,0.49,0.4
			c0.46,0.41,0.61,0.55,0.61,0.55c0.42,0.42,0.55,0.56,0.55,0.56c0.38,0.43,0.43,0.51,0.43,0.51c0.33,0.44,0.39,0.52,0.39,0.52
			c0.29,0.45,0.34,0.53,0.34,0.53c0.25,0.46,0.28,0.54,0.28,0.54c0.2,0.47,0.23,0.55,0.23,0.55c0.15,0.47,0.16,0.52,0.16,0.52
			c0.1,0.46,0.11,0.52,0.11,0.52c0.07,0.47,0.08,0.59,0.08,0.59c0.02,0.48,0.03,0.6,0.03,0.6c-0.01,0.36-0.01,0.48-0.01,0.48
			c-0.03,0.37-0.04,0.49-0.04,0.49c-0.05,0.37-0.07,0.49-0.07,0.49c-0.07,0.37-0.09,0.49-0.09,0.49c-0.08,0.37-0.11,0.5-0.11,0.5
			c-0.78,2.98-2.26,5.48-3.56,8.16c-0.21,0.44-0.41,0.88-0.41,0.88c-0.19,0.42-0.27,0.63-0.27,0.63
			C533.83,415.67,533.76,415.87,533.62,416.26z"/>
	</g>
	<g id="POLYLINE_162_">
		<path class="st61" d="M585.23,376.25c-0.75,1.13-1.72,2.51-2.13,3.24c-0.24,0.43-0.36,0.65-0.36,0.65
			c-0.23,0.46-0.29,0.58-0.29,0.58c-0.17,0.37-0.22,0.5-0.22,0.5c-0.16,0.4-0.21,0.54-0.21,0.54c-0.15,0.43-0.2,0.58-0.2,0.58
			c-0.74,2.37-0.97,4.2-1.23,6.34c-0.26,2.38-0.38,4.92-0.39,7.31c0,4.14,0.3,8.36,1.05,12.44c0.57,3.12,1.54,6.63,2.93,9.4
			c0.24,0.47,0.36,0.7,0.36,0.7c0.25,0.45,0.38,0.67,0.38,0.67c0.41,0.69,0.76,1.17,1,1.5c0.35,0.46,0.47,0.61,0.47,0.61
			c0.37,0.44,0.49,0.58,0.49,0.58c0.38,0.42,0.51,0.55,0.51,0.55c0.4,0.4,0.53,0.53,0.53,0.53c0.41,0.38,0.55,0.5,0.55,0.5
			c0.42,0.36,0.56,0.47,0.56,0.47c0.43,0.34,0.58,0.45,0.58,0.45c0.44,0.32,0.59,0.42,0.59,0.42c0.45,0.3,0.61,0.4,0.61,0.4
			c0.46,0.28,0.62,0.37,0.62,0.37c4.1,2.3,8.11,3.04,12.46,3.62c4.15,0.52,8.48,0.78,12.66,0.76c6.66-0.07,13.45-0.65,19.83-2.67
			c5.45-1.73,10.57-4.43,15.45-7.38c4.58-2.83,9.44-6.07,13.19-9.89c0.44-0.48,0.65-0.71,0.65-0.71c0.38-0.46,0.47-0.57,0.47-0.57
			c0.33-0.44,0.41-0.55,0.41-0.55c0.28-0.43,0.33-0.52,0.33-0.52c0.25-0.45,0.29-0.54,0.29-0.54c0.19-0.43,0.22-0.52,0.22-0.52
			c0.14-0.42,0.16-0.5,0.16-0.5c0.1-0.41,0.11-0.49,0.11-0.49c0.07-0.48,0.08-0.55,0.08-0.55c0.07-0.77,0.07-1.46,0.09-1.88
			c0.02-0.32,0.03-0.49,0.03-0.49"/>
	</g>
	<g id="POLYLINE_161_">
		<path class="st61" d="M549.76,369.31c-3.09,0.6-5.94,1.86-8.38,3.15c-2.9,1.56-5.42,3.28-7.54,5.3c-0.45,0.46-0.56,0.57-0.56,0.57
			c-0.41,0.45-0.5,0.56-0.5,0.56c-0.35,0.44-0.44,0.55-0.44,0.55c-0.3,0.43-0.37,0.54-0.37,0.54c-0.27,0.47-0.3,0.52-0.3,0.52
			c-0.2,0.45-0.22,0.5-0.22,0.5c-0.13,0.46-0.14,0.49-0.14,0.49c-0.05,0.46-0.05,0.48-0.05,0.48c0.03,0.46,0.04,0.48,0.04,0.48
			c0.12,0.43,0.13,0.48,0.13,0.48c0.21,0.44,0.23,0.48,0.23,0.48c0.32,0.46,0.35,0.5,0.35,0.5c0.39,0.45,0.47,0.53,0.47,0.53
			c0.42,0.4,0.51,0.48,0.51,0.48c0.37,0.32,0.57,0.47,0.57,0.47l2.2,1.73c4.08,3.32,7.38,7.52,9.92,11.58
			c3.43,5.52,7.04,12.68,10.81,17.95c6.36,9.12,14.83,16.33,24.88,20.62c5.28,2.23,11.01,3.49,16.75,3.42
			c5.85-0.05,11.67-1.3,17.18-3.26c6.17-2.21,12.03-5.35,17.37-9.12"/>
	</g>
	<g id="POLYLINE_160_">
		<path class="st61" d="M502.7,449.81c-4.19,0.17-14.15,1.18-18.46,1.58c-2.99,0.3-10.34,0.66-13.43,0.82
			c-3.95,0.25-8.44,0.92-11.85,2.51c-0.47,0.22-0.63,0.3-0.63,0.3c-0.46,0.24-0.62,0.32-0.62,0.32c-0.46,0.26-0.61,0.35-0.61,0.35
			c-0.45,0.28-0.6,0.37-0.6,0.37c-0.44,0.3-0.58,0.4-0.58,0.4c-0.45,0.33-0.6,0.45-0.6,0.45c-0.44,0.36-0.59,0.48-0.59,0.48
			c-0.43,0.38-0.57,0.5-0.57,0.5c-2.53,2.33-4.35,5.04-5.81,7.69c-1.58,2.94-2.57,5.36-3.58,8.39c-0.98,3.03-1.93,6.83-2.04,9.79
			c-0.01,0.37-0.01,0.56-0.01,0.56c0.01,0.36,0.01,0.54,0.01,0.54c0.02,0.35,0.03,0.52,0.03,0.52c0.05,0.41,0.06,0.49,0.06,0.49
			c0.08,0.47,0.1,0.54,0.1,0.54c0.11,0.44,0.13,0.51,0.13,0.51c0.17,0.48,0.19,0.54,0.19,0.54c0.21,0.43,0.24,0.49,0.24,0.49
			c0.31,0.47,0.33,0.49,0.33,0.49c0.45,0.47,0.47,0.49,0.47,0.49c0.46,0.33,0.5,0.35,0.5,0.35c0.46,0.23,0.51,0.25,0.51,0.25
			c0.47,0.16,0.51,0.18,0.51,0.18c0.4,0.1,0.51,0.12,0.51,0.12c0.43,0.07,0.55,0.08,0.55,0.08c0.46,0.04,0.58,0.05,0.58,0.05
			c0.37,0.01,0.49,0.01,0.49,0.01c1.79,0,3.53-0.33,4.99-0.65c1.62-0.36,3.44-0.87,5.04-1.35c5.35-1.65,12.12-3.96,17.42-5.82
			c13.72-4.96,32.49-12.42,41.91-23.78c0.36-0.47,0.54-0.71,0.54-0.71c0.32-0.46,0.4-0.58,0.4-0.58c0.28-0.45,0.35-0.56,0.35-0.56
			c0.24-0.44,0.3-0.55,0.3-0.55c0.2-0.42,0.25-0.53,0.25-0.53c0.16-0.41,0.2-0.51,0.2-0.51c0.13-0.44,0.14-0.49,0.14-0.49
			c0.08-0.47,0.09-0.51,0.09-0.51c0.02-0.44,0.02-0.49,0.02-0.49c-0.06-0.46-0.06-0.5-0.06-0.5c-0.16-0.46-0.17-0.49-0.17-0.49
			c-0.29-0.46-0.32-0.49-0.32-0.49c-0.47-0.46-0.51-0.48-0.51-0.48c-0.45-0.3-0.49-0.33-0.49-0.33c-0.43-0.22-0.52-0.27-0.52-0.27
			c-0.39-0.16-0.49-0.2-0.49-0.2c-0.42-0.14-0.53-0.18-0.53-0.18c-0.45-0.13-0.57-0.16-0.57-0.16c-2.15-0.51-3.78-0.59-5.82-0.68
			C507.7,449.6,505.1,449.69,502.7,449.81z"/>
	</g>
	<g id="POLYLINE_159_">
		<path class="st61" d="M519.39,454.76c12.85-0.48,26.01-1.3,38.66-3.72c12.1-2.25,24.1-6.32,35.64-10.56"/>
	</g>
	<g id="POLYLINE_158_">
		<path class="st61" d="M330.09,447.84c-0.03,0.44-0.04,0.49-0.04,0.49c-0.16,0.47-0.18,0.52-0.18,0.52
			c-0.28,0.45-0.32,0.5-0.32,0.5c-0.45,0.48-0.49,0.52-0.49,0.52c-0.46,0.37-0.52,0.41-0.52,0.41c-0.36,0.24-0.48,0.32-0.48,0.32
			c-0.4,0.23-0.54,0.31-0.54,0.31c-0.44,0.23-0.59,0.3-0.59,0.3c-2.97,1.37-5.42,1.97-8.39,2.8c-5.43,1.41-12.43,3.09-17.61,5.12
			c-2.38,0.91-9.24,3.67-11.54,4.41c-2.3,0.79-5.25,1.53-7.38,1.83c-3.51,0.5-6.42,0.45-9.84,0.2c-4.67-0.37-9.47-1.24-14.05-2.2
			c-2.41-0.61-15.13-3.25-17.17-4.04c-0.46-0.18-0.61-0.24-0.61-0.24c-0.43-0.2-0.5-0.23-0.5-0.23c-0.47-0.25-0.53-0.29-0.53-0.29
			c-0.43-0.28-0.49-0.32-0.49-0.32c-0.45-0.36-0.51-0.41-0.51-0.41c-0.46-0.46-0.5-0.52-0.5-0.52c-0.36-0.47-0.4-0.53-0.4-0.53
			c-0.28-0.46-0.31-0.53-0.31-0.53c-0.23-0.48-0.27-0.58-0.27-0.58c-0.17-0.44-0.21-0.55-0.21-0.55c-0.14-0.47-0.18-0.59-0.18-0.59
			c-0.09-0.37-0.12-0.5-0.12-0.5c-0.52-2.55-0.5-4.53-0.49-6.97c0.04-2.69,0.35-7.6,0.44-10.32c0.2-4.06-0.27-8.84,0.59-12.78
			c0.12-0.47,0.15-0.58,0.15-0.58c0.14-0.46,0.17-0.57,0.17-0.57c0.16-0.44,0.2-0.55,0.2-0.55c0.18-0.43,0.23-0.53,0.23-0.53
			c0.21-0.41,0.26-0.51,0.26-0.51c0.23-0.4,0.3-0.49,0.3-0.49c0.33-0.48,0.4-0.57,0.4-0.57c0.38-0.45,0.45-0.54,0.45-0.54
			c0.42-0.43,0.51-0.51,0.51-0.51c0.47-0.4,0.59-0.49,0.59-0.49c0.38-0.28,0.52-0.37,0.52-0.37c0.41-0.27,0.55-0.35,0.55-0.35
			c0.44-0.25,0.59-0.33,0.59-0.33c3.82-1.97,8.07-2.53,11.92-2.82c4.55-0.29,9.49-0.02,13.78,0.95c3.63,0.83,6.45,2.01,9.69,3.51
			c3.14,1.49,8.76,4.3,11.89,5.76c8.35,3.83,24.01,10.49,31.83,14.89c1.9,1.06,4.28,2.5,5.94,3.78c0.43,0.34,0.63,0.51,0.63,0.51
			c0.39,0.33,0.57,0.5,0.57,0.5c0.43,0.41,0.51,0.49,0.51,0.49c0.37,0.4,0.44,0.48,0.44,0.48c0.37,0.47,0.43,0.55,0.43,0.55
			c0.29,0.45,0.33,0.53,0.33,0.53c0.2,0.44,0.22,0.51,0.22,0.51C330.07,447.64,330.08,447.71,330.09,447.84z"/>
	</g>
	<g id="POLYLINE_157_">
		<path class="st61" d="M628.3,408.49c-0.25,0.54-0.4,0.91-0.47,1.08c-0.14,0.36-0.21,0.55-0.21,0.55
			c-0.12,0.37-0.18,0.55-0.18,0.55c-0.13,0.47-0.15,0.56-0.15,0.56c-0.1,0.48-0.12,0.58-0.12,0.58c-0.06,0.39-0.07,0.49-0.07,0.49
			c-0.04,0.4-0.04,0.51-0.04,0.51c-0.01,0.42-0.01,0.52-0.01,0.52c0.01,0.43,0.02,0.54,0.02,0.54c0.04,0.45,0.06,0.56,0.06,0.56
			c0.05,0.35,0.08,0.49,0.08,0.49c0.09,0.43,0.12,0.58,0.12,0.58c0.11,0.44,0.16,0.59,0.16,0.59c0.14,0.45,0.19,0.6,0.19,0.6
			c0.16,0.45,0.22,0.6,0.22,0.6c0.19,0.45,0.26,0.59,0.26,0.59c0.21,0.44,0.29,0.58,0.29,0.58c0.24,0.42,0.32,0.56,0.32,0.56
			c0.26,0.41,0.35,0.54,0.35,0.54c0.33,0.45,0.38,0.51,0.38,0.51c0.41,0.47,0.46,0.53,0.46,0.53c0.44,0.43,0.49,0.48,0.49,0.48
			c0.47,0.37,0.53,0.41,0.53,0.41c0.43,0.27,0.5,0.31,0.5,0.31c0.45,0.22,0.52,0.24,0.52,0.24c0.48,0.15,0.54,0.17,0.54,0.17
			c0.47,0.09,0.52,0.09,0.52,0.09c0.45,0.03,0.49,0.03,0.49,0.03c0.46-0.02,0.55-0.03,0.55-0.03c0.47-0.07,0.57-0.08,0.57-0.08
			c0.39-0.08,0.48-0.11,0.48-0.11c0.39-0.11,0.49-0.14,0.49-0.14c0.4-0.14,0.5-0.17,0.5-0.17c0.4-0.16,0.6-0.25,0.6-0.25
			c0.41-0.19,0.61-0.28,0.61-0.28c0.41-0.21,0.61-0.32,0.61-0.32c1.67-0.91,3.12-1.98,4.27-2.83l4.04-3.11
			c2.36-1.81,4.89-3.25,7.5-4.39c3.48-1.53,8.39-3.44,11.44-5.53c0.4-0.28,0.6-0.43,0.6-0.43c0.46-0.36,0.55-0.43,0.55-0.43
			c0.42-0.37,0.5-0.44,0.5-0.44c0.45-0.45,0.52-0.53,0.52-0.53c0.38-0.46,0.43-0.54,0.43-0.54c0.3-0.47,0.33-0.52,0.33-0.52
			c0.23-0.47,0.25-0.52,0.25-0.52c0.16-0.48,0.18-0.53,0.18-0.53c0.1-0.43,0.1-0.48,0.1-0.48c0.05-0.43,0.06-0.49,0.06-0.49
			c0.01-0.43,0.01-0.49,0.01-0.49c-0.03-0.44-0.04-0.54-0.04-0.54c-0.06-0.44-0.08-0.54-0.08-0.54c-0.1-0.43-0.12-0.54-0.12-0.54
			c-0.12-0.43-0.16-0.54-0.16-0.54c-0.15-0.43-0.19-0.53-0.19-0.53c-0.17-0.42-0.26-0.63-0.26-0.63c-0.19-0.41-0.29-0.61-0.29-0.61
			c-0.25-0.48-0.38-0.71-0.38-0.71c-0.27-0.46-0.34-0.57-0.34-0.57c-0.29-0.45-0.37-0.56-0.37-0.56c-0.32-0.44-0.4-0.55-0.4-0.55
			c-0.35-0.43-0.44-0.54-0.44-0.54c-0.38-0.42-0.48-0.53-0.48-0.53c-0.42-0.42-0.53-0.52-0.53-0.52c-0.46-0.41-0.58-0.51-0.58-0.51
			c-0.37-0.31-0.5-0.41-0.5-0.41c-2.31-1.77-4.59-2.83-6.9-3.89c-6.21-2.88-25.81-9.29-32.51-11.69
			c-8.59-3.13-17.09-6.94-24.92-11.68c-9.41-5.6-22.53-15.61-31.7-21.84c-6.89-4.67-14.11-9.2-21.6-12.82
			c-23.99-11.75-47.51-13.35-73.72-11.59c-14.67,0.96-30.6,3.09-45.16,5.31c-15.74,2.59-36.97,5.9-52.47,9.03
			c-9.09,1.84-18.51,4.12-27.38,6.8c-17.59,5.34-39.88,14.02-57.5,19.26c-19,5.7-38.83,9.65-58.56,11.66
			c-9.44,0.87-19.21,1.52-28.66,0.46c-3.26-0.38-6.56-0.99-9.73-1.83c-5.88-1.45-12.37-4.56-18.36-5.19
			c-0.47-0.04-0.63-0.05-0.63-0.05c-0.46-0.02-0.62-0.02-0.62-0.02c-0.46,0-0.61,0-0.61,0c-0.45,0.02-0.59,0.03-0.59,0.03
			c-0.44,0.04-0.58,0.06-0.58,0.06c-0.43,0.06-0.57,0.09-0.57,0.09c-0.42,0.09-0.56,0.12-0.56,0.12c-0.41,0.11-0.55,0.15-0.55,0.15
			c-0.4,0.13-0.53,0.18-0.53,0.18c-0.39,0.16-0.52,0.22-0.52,0.22c-0.42,0.21-0.48,0.24-0.48,0.24c-0.47,0.28-0.54,0.32-0.54,0.32
			c-0.46,0.31-0.58,0.41-0.58,0.41c-0.38,0.3-0.5,0.4-0.5,0.4c-0.36,0.33-0.48,0.44-0.48,0.44c-0.35,0.36-0.47,0.48-0.47,0.48
			c-0.34,0.38-0.45,0.52-0.45,0.52c-0.33,0.41-0.43,0.55-0.43,0.55c-0.31,0.44-0.41,0.58-0.41,0.58
			c-6.78,10.13-6.69,33.51-1.09,43.93c0.26,0.46,0.35,0.61,0.35,0.61c0.27,0.43,0.36,0.57,0.36,0.57c0.28,0.41,0.37,0.54,0.37,0.54
			c0.29,0.38,0.39,0.5,0.39,0.5c0.4,0.46,0.5,0.57,0.5,0.57c0.43,0.42,0.5,0.48,0.5,0.48c0.41,0.34,0.48,0.39,0.48,0.39
			c0.42,0.3,0.49,0.35,0.49,0.35c0.44,0.26,0.51,0.3,0.51,0.3c0.45,0.23,0.52,0.26,0.52,0.26c0.46,0.19,0.54,0.22,0.54,0.22
			c0.47,0.16,0.55,0.19,0.55,0.19c0.32,0.09,0.49,0.13,0.49,0.13c0.33,0.07,0.5,0.11,0.5,0.11c0.34,0.06,0.51,0.09,0.51,0.09
			c0.34,0.05,0.52,0.07,0.52,0.07c1.73,0.17,3.05,0.06,4.5-0.05c1.8-0.15,4.24-0.48,6.04-0.72c11.6-1.78,25.88-4.18,37.5-4.67
			c12.11-0.6,24.45,0.1,36.19,3.28"/>
	</g>
	<g id="POLYLINE_156_">
		<path class="st61" d="M330.09,447.84c8.56,2.97,17.49,5.12,26.5,6.16c4.27,0.51,8.93,0.81,13.23,0.98
			c3.42,0.14,8.76,0.17,12.22,0.18c18.04-0.21,58.74-0.5,76.45-0.23"/>
	</g>
	<g id="POLYLINE_155_">
		<path class="st61" d="M186.7,415.25c-7.44,1.81-14.77,4.39-21.59,7.89c-2.48,1.25-5.01,2.81-7.44,4.15
			c-3.36,1.84-7.08,3.67-10.57,5.26c-9.22,4.16-19.17,8.07-28.78,11.25c-2.78,0.89-5.87,1.82-8.71,2.48
			c-2.13,0.5-4.73,0.98-6.81,1.04c-0.92,0.02-1.57-0.02-2.04-0.05c-0.43-0.04-0.64-0.06-0.64-0.06c-0.42-0.05-0.62-0.08-0.62-0.08
			c-0.4-0.07-0.6-0.11-0.6-0.11c-0.39-0.08-0.58-0.13-0.58-0.13c-0.38-0.1-0.57-0.15-0.57-0.15c-0.37-0.11-0.55-0.17-0.55-0.17
			c-0.35-0.13-0.53-0.2-0.53-0.2c-0.34-0.14-0.51-0.22-0.51-0.22c-0.33-0.16-0.49-0.24-0.49-0.24c-0.47-0.26-0.55-0.31-0.55-0.31
			c-0.45-0.29-0.52-0.34-0.52-0.34c-0.43-0.31-0.5-0.37-0.5-0.37c-0.47-0.4-0.54-0.46-0.54-0.46c-0.44-0.43-0.5-0.5-0.5-0.5
			c-0.41-0.47-0.47-0.53-0.47-0.53c-0.28-0.35-0.38-0.5-0.38-0.5c-0.31-0.45-0.41-0.61-0.41-0.61c-0.28-0.47-0.37-0.63-0.37-0.63
			c-0.25-0.48-0.32-0.63-0.32-0.63c-0.14-0.32-0.21-0.48-0.21-0.48c-0.13-0.32-0.19-0.48-0.19-0.48c-0.11-0.32-0.16-0.48-0.16-0.48
			c-0.1-0.32-0.14-0.49-0.14-0.49c-0.08-0.33-0.11-0.49-0.11-0.49c-0.06-0.33-0.09-0.49-0.09-0.49c-0.05-0.33-0.06-0.49-0.06-0.49
			c-0.03-0.33-0.04-0.5-0.04-0.5c-0.01-0.33-0.02-0.5-0.02-0.5c0-0.33,0.01-0.5,0.01-0.5c0.02-0.34,0.03-0.5,0.03-0.5
			c0.04-0.34,0.06-0.51,0.06-0.51c0.05-0.34,0.08-0.51,0.08-0.51c0.07-0.34,0.11-0.51,0.11-0.51c0.09-0.34,0.13-0.51,0.13-0.51
			c0.1-0.34,0.16-0.52,0.16-0.52c0.12-0.35,0.18-0.52,0.18-0.52c0.14-0.35,0.21-0.52,0.21-0.52c1.76-3.97,3.95-7.53,6.21-11.19
			c3.28-5.16,6.94-10.53,10.02-15.81c1.95-3.43,4.45-7.5,5.27-11.2c0.1-0.47,0.12-0.62,0.12-0.62c0.07-0.45,0.09-0.6,0.09-0.6
			c0.04-0.43,0.05-0.58,0.05-0.58c0.02-0.42,0.02-0.55,0.02-0.55c-0.02-0.47-0.02-0.53-0.02-0.53c-0.05-0.45-0.06-0.51-0.06-0.51
			c-0.08-0.43-0.09-0.48-0.09-0.48c-0.13-0.46-0.15-0.52-0.15-0.52c-0.15-0.41-0.2-0.54-0.2-0.54c-0.17-0.38-0.23-0.52-0.23-0.52
			c-0.21-0.41-0.28-0.55-0.28-0.55c-1.87-3.32-3.85-5.6-6.13-8.34c-1.93-2.22-3.96-4.48-5.64-6.9c-2.17-3.06-4.03-6.39-5.46-9.86
			c-2.45-6.02-3.82-12.5-4.21-18.98c-0.14-2.81-0.24-6.17,0.28-8.83c0.08-0.4,0.11-0.53,0.11-0.53c0.1-0.38,0.13-0.51,0.13-0.51
			c0.11-0.37,0.14-0.49,0.14-0.49c0.16-0.47,0.2-0.58,0.2-0.58c0.18-0.44,0.22-0.55,0.22-0.55c0.2-0.42,0.25-0.52,0.25-0.52
			c0.22-0.39,0.27-0.48,0.27-0.48c0.29-0.45,0.36-0.54,0.36-0.54c0.32-0.41,0.39-0.49,0.39-0.49c0.42-0.45,0.5-0.52,0.5-0.52
			c0.46-0.39,0.54-0.45,0.54-0.45c0.42-0.29,0.5-0.34,0.5-0.34c0.44-0.25,0.54-0.29,0.54-0.29c0.47-0.21,0.57-0.25,0.57-0.25
			c0.4-0.14,0.5-0.17,0.5-0.17c0.42-0.12,0.52-0.14,0.52-0.14c0.44-0.09,0.55-0.11,0.55-0.11c0.45-0.06,0.57-0.08,0.57-0.08
			c0.47-0.04,0.59-0.05,0.59-0.05c4.7-0.13,9.14,0.88,13.54,2.37c1.43,0.49,2.92,1.08,4.32,1.67c3.11,1.36,8.85,3.76,12.02,5.04
			c7.74,3.16,16.78,6.27,24.35,9.75c3.56,1.63,7.27,3.52,10.65,5.5c2.97,1.73,6.25,3.98,9.2,5.75c5.16,3.13,10.91,6.23,16.36,8.83"
			/>
	</g>
	<g id="POLYLINE_142_">
		<path class="st61" d="M252.77,366.39c-3.93-1.02-9.47-3.16-13.34-4.56c-2.55-0.95-6.51-2.15-9.14-2.93
			c-1.23-0.38-2.87-0.97-3.72-1.39c-0.36-0.17-0.54-0.26-0.54-0.26c-0.34-0.18-0.51-0.28-0.51-0.28c-0.48-0.29-0.55-0.34-0.55-0.34
			c-0.44-0.31-0.51-0.37-0.51-0.37c-0.45-0.39-0.51-0.45-0.51-0.45c-0.39-0.42-0.44-0.48-0.44-0.48c-0.32-0.45-0.34-0.49-0.34-0.49
			c-0.24-0.45-0.25-0.48-0.25-0.48c-0.18-0.47-0.2-0.55-0.2-0.55c-0.11-0.46-0.12-0.54-0.12-0.54c-0.05-0.4-0.06-0.49-0.06-0.49
			c-0.02-0.42-0.02-0.5-0.02-0.5c0.01-0.43,0.02-0.52,0.02-0.52c0.05-0.45,0.06-0.54,0.06-0.54c0.08-0.46,0.1-0.55,0.1-0.55
			c0.11-0.47,0.16-0.66,0.16-0.66c0.11-0.39,0.17-0.58,0.17-0.58c0.14-0.39,0.21-0.59,0.21-0.59c0.16-0.4,0.24-0.6,0.24-0.6
			c0.18-0.41,0.27-0.61,0.27-0.61c1.44-3.05,3.45-5.54,5.38-7.7c2.07-2.3,4.46-4.51,6.8-6.54c5.33-4.53,20.36-16.55,25.96-20.88
			c2.07-1.55,4.3-3.1,6.52-4.44c3.07-1.85,6.1-3.24,9.12-4.11c5.13-1.47,10.37-1.56,15.27-0.83c2.93,0.45,5.86,1.22,8.61,2.33
			c2.74,1.1,5.38,2.6,7.9,4.15c12.1,7.81,32.65,19.17,44.84,26.85"/>
	</g>
	<g id="POLYLINE_141_">
		<path class="st61" d="M367.92,333.06c0.24-0.26,0.95-1.01,0.95-1.01c0.35-0.38,0.46-0.51,0.46-0.51c0.38-0.47,0.43-0.54,0.43-0.54
			c0.29-0.43,0.34-0.5,0.34-0.5c0.25-0.46,0.29-0.54,0.29-0.54c0.19-0.46,0.21-0.5,0.21-0.5c0.13-0.45,0.15-0.49,0.15-0.49
			c0.08-0.43,0.09-0.48,0.09-0.48c0.04-0.42,0.05-0.49,0.05-0.49c0.01-0.35,0.01-0.5,0.01-0.5c-0.03-1.79-0.44-3.72-0.53-5.33
			c-0.02-0.47-0.03-0.63-0.03-0.63c0-0.45,0-0.53,0-0.53c0.03-0.44,0.04-0.51,0.04-0.51c0.06-0.41,0.07-0.48,0.07-0.48
			c0.11-0.45,0.12-0.48,0.12-0.48c0.19-0.47,0.21-0.5,0.21-0.5c0.32-0.48,0.33-0.5,0.33-0.5c0.44-0.43,0.48-0.46,0.48-0.46
			c0.46-0.32,0.5-0.35,0.5-0.35c0.45-0.25,0.56-0.31,0.56-0.31c0.43-0.21,1.75-0.8,1.75-0.8c0.43-0.21,0.53-0.26,0.53-0.26
			c0.45-0.25,0.5-0.28,0.5-0.28c0.45-0.32,0.49-0.35,0.49-0.35c0.47-0.47,0.48-0.49,0.48-0.49c0.29-0.47,0.3-0.49,0.3-0.49
			c0.16-0.45,0.17-0.48,0.17-0.48c0.09-0.48,0.09-0.55,0.09-0.55c0.02-0.44,0.02-0.52,0.02-0.52c-0.02-0.47-0.02-0.55-0.02-0.55
			c-0.04-0.41-0.06-0.58-0.06-0.58c-0.22-1.61-0.65-3.1-0.89-4.55c-0.05-0.33-0.07-0.49-0.07-0.49c-0.05-0.47-0.06-0.54-0.06-0.54
			c-0.02-0.44-0.02-0.51-0.02-0.51c0.02-0.47,0.03-0.5,0.03-0.5c0.09-0.45,0.1-0.48,0.1-0.48c0.21-0.47,0.22-0.49,0.22-0.49
			c0.42-0.47,0.46-0.5,0.46-0.5c0.44-0.3,0.48-0.32,0.48-0.32c0.65-0.34,0.96-0.46,1.38-0.65c0.41-0.2,0.5-0.24,0.5-0.24
			c0.47-0.27,0.51-0.3,0.51-0.3c0.46-0.36,0.49-0.39,0.49-0.39c0.38-0.47,0.4-0.49,0.4-0.49c0.22-0.46,0.24-0.5,0.24-0.5
			c0.12-0.42,0.14-0.49,0.14-0.49c0.08-0.47,0.09-0.55,0.09-0.55c0.04-0.42,0.04-0.5,0.04-0.5c0.01-0.35,0.02-0.53,0.02-0.53
			c0.01-1.67-0.27-3.95-0.27-5.26c0-0.37,0.01-0.55,0.01-0.55c0.02-0.44,0.03-0.52,0.03-0.52c0.05-0.41,0.06-0.49,0.06-0.49
			c0.09-0.46,0.11-0.53,0.11-0.53c0.16-0.48,0.18-0.51,0.18-0.51c0.27-0.46,0.29-0.49,0.29-0.49c0.47-0.45,0.5-0.47,0.5-0.47
			c0.46-0.25,0.51-0.28,0.51-0.28c0.44-0.16,0.5-0.18,0.5-0.18c0.42-0.11,0.54-0.13,0.54-0.13c0.99-0.19,1.81-0.24,2.64-0.36
			c0.39-0.06,0.52-0.09,0.52-0.09c0.43-0.1,0.49-0.11,0.49-0.11c0.46-0.15,0.52-0.17,0.52-0.17c0.47-0.22,0.5-0.24,0.5-0.24
			c0.47-0.35,0.49-0.37,0.49-0.37c0.37-0.47,0.38-0.5,0.38-0.5c0.22-0.47,0.24-0.51,0.24-0.51c0.14-0.46,0.16-0.54,0.16-0.54
			c0.1-0.47,0.11-0.55,0.11-0.55c0.05-0.33,0.07-0.5,0.07-0.5c0.15-1.53,0.07-3.09,0.14-4.44c0.02-0.36,0.04-0.54,0.04-0.54
			c0.03-0.35,0.05-0.52,0.05-0.52c0.06-0.41,0.08-0.49,0.08-0.49c0.1-0.46,0.12-0.54,0.12-0.54c0.15-0.45,0.17-0.49,0.17-0.49
			c0.24-0.46,0.26-0.49,0.26-0.49c0.4-0.47,0.42-0.49,0.42-0.49c0.44-0.32,0.49-0.34,0.49-0.34c0.46-0.22,0.51-0.24,0.51-0.24
			c0.45-0.15,0.5-0.16,0.5-0.16c0.41-0.1,0.53-0.13,0.53-0.13c0.37-0.07,0.62-0.11,0.62-0.11c0.27-0.04,1.55-0.23,1.73-0.27
			c0.47-0.1,0.58-0.13,0.58-0.13c0.43-0.13,0.48-0.14,0.48-0.14c0.44-0.18,0.48-0.21,0.48-0.21c0.47-0.32,0.48-0.34,0.48-0.34
			c0.37-0.47,0.38-0.49,0.38-0.49c0.21-0.46,0.22-0.51,0.22-0.51c0.13-0.47,0.14-0.52,0.14-0.52c0.07-0.39,0.09-0.51,0.09-0.51
			c0.12-0.93,0.14-1.67,0.23-2.43c0.07-0.47,0.09-0.59,0.09-0.59c0.1-0.45,0.11-0.5,0.11-0.5c0.16-0.47,0.18-0.52,0.18-0.52
			c0.25-0.46,0.26-0.48,0.26-0.48c0.43-0.46,0.45-0.48,0.45-0.48c0.46-0.29,0.49-0.3,0.49-0.3c0.47-0.19,0.55-0.22,0.55-0.22
			c0.46-0.13,0.54-0.14,0.54-0.14c0.41-0.08,0.58-0.11,0.58-0.11c1.92-0.26,4.09-0.21,5.64-0.47c0.47-0.08,0.57-0.1,0.57-0.1
			c0.45-0.11,0.54-0.13,0.54-0.13c0.43-0.13,0.52-0.16,0.52-0.16c0.41-0.16,0.49-0.2,0.49-0.2c0.45-0.24,0.49-0.26,0.49-0.26
			c0.46-0.33,0.48-0.36,0.48-0.36c0.45-0.47,0.5-0.53,0.5-0.53c0.3-0.42,0.34-0.48,0.34-0.48c0.26-0.46,0.3-0.53,0.3-0.53
			c0.2-0.42,0.26-0.56,0.26-0.56c0.5-1.22,0.81-2.53,1.13-3.47c0.13-0.38,0.18-0.5,0.18-0.5c0.2-0.45,0.22-0.51,0.22-0.51
			c0.28-0.47,0.3-0.49,0.3-0.49c0.47-0.44,0.49-0.45,0.49-0.45c0.47-0.16,0.49-0.17,0.49-0.17c0.46-0.01,0.49-0.01,0.49-0.01
			c0.46,0.07,0.51,0.08,0.51,0.08c0.44,0.11,0.55,0.15,0.55,0.15c0.93,0.3,1.68,0.63,2.44,0.89c0.38,0.12,0.5,0.16,0.5,0.16
			c0.37,0.1,0.5,0.13,0.5,0.13c0.43,0.08,0.49,0.09,0.49,0.09c0.48,0.04,0.54,0.04,0.54,0.04c0.46-0.03,0.49-0.03,0.49-0.03
			c0.45-0.11,0.48-0.12,0.48-0.12c0.45-0.21,0.48-0.23,0.48-0.23c0.45-0.32,0.51-0.37,0.51-0.37c0.48-0.47,0.53-0.52,0.53-0.52
			c0.35-0.43,0.45-0.55,0.45-0.55c0.81-1.1,1.19-1.81,1.82-2.78c0.2-0.3,0.39-0.59,0.39-0.59c0.3-0.42,0.41-0.56,0.41-0.56
			c0.37-0.46,0.43-0.52,0.43-0.52c0.45-0.46,0.51-0.52,0.51-0.52c0.45-0.37,0.48-0.39,0.48-0.39c0.45-0.27,0.48-0.29,0.48-0.29
			c0.46-0.19,0.49-0.2,0.49-0.2c0.46-0.11,0.53-0.13,0.53-0.13c0.41-0.05,0.48-0.05,0.48-0.05c0.43-0.01,0.5-0.01,0.5-0.01
			c0.44,0.02,0.58,0.04,0.58,0.04c0.44,0.05,0.59,0.07,0.59,0.07c0.45,0.07,0.75,0.13,0.75,0.13c0.31,0.06,1.81,0.37,2.03,0.4
			c0.41,0.06,0.54,0.08,0.54,0.08c0.45,0.04,0.52,0.05,0.52,0.05c0.43,0,0.48,0,0.48,0c0.47-0.06,0.5-0.07,0.5-0.07
			c0.47-0.17,0.49-0.18,0.49-0.18c0.48-0.37,0.49-0.39,0.49-0.39c0.32-0.45,0.34-0.49,0.34-0.49c0.21-0.44,0.24-0.49,0.24-0.49
			c0.16-0.43,0.2-0.55,0.2-0.55c0.26-0.84,0.34-1.21,0.53-1.9c0.13-0.46,0.17-0.57,0.17-0.57c0.15-0.43,0.17-0.48,0.17-0.48
			c0.21-0.47,0.23-0.52,0.23-0.52c0.32-0.47,0.34-0.48,0.34-0.48c0.47-0.32,0.49-0.33,0.49-0.33c0.45-0.08,0.48-0.08,0.48-0.08
			c0.47,0.05,0.5,0.05,0.5,0.05c0.45,0.12,0.51,0.14,0.51,0.14c0.45,0.17,0.59,0.22,0.59,0.22c1.1,0.48,2.56,1.3,3.35,1.66
			c0.44,0.2,0.59,0.26,0.59,0.26c0.43,0.17,0.5,0.2,0.5,0.2c0.42,0.14,0.49,0.16,0.49,0.16c0.47,0.11,0.54,0.12,0.54,0.12
			c0.47,0.04,0.5,0.04,0.5,0.04c0.46-0.05,0.49-0.05,0.49-0.05c0.48-0.17,0.5-0.18,0.5-0.18c0.45-0.28,0.49-0.31,0.49-0.31
			c0.48-0.43,0.54-0.5,0.54-0.5c0.38-0.42,0.86-0.99,0.86-0.99c0.42-0.47,0.48-0.53,0.48-0.53c0.47-0.39,0.5-0.41,0.5-0.41
			c0.47-0.22,0.49-0.23,0.49-0.23c0.45-0.04,0.48-0.04,0.48-0.04c0.46,0.11,0.49,0.12,0.49,0.12c0.43,0.2,0.49,0.23,0.49,0.23
			c0.46,0.29,0.52,0.33,0.52,0.33c0.48,0.36,0.62,0.48,0.62,0.48c1.33,1.12,2.46,2.32,3.59,3.32c0.46,0.4,0.61,0.52,0.61,0.52
			c0.45,0.36,0.6,0.47,0.6,0.47c0.45,0.31,0.52,0.35,0.52,0.35c0.44,0.25,0.51,0.29,0.51,0.29c0.46,0.2,0.5,0.21,0.5,0.21
			c0.45,0.11,0.48,0.12,0.48,0.12c0.47,0.02,0.5,0.02,0.5,0.02c0.48-0.08,0.52-0.09,0.52-0.09c0.46-0.17,0.51-0.19,0.51-0.19
			c0.44-0.24,0.49-0.27,0.49-0.27c0.47-0.32,0.56-0.39,0.56-0.39c0.34-0.26,1.16-0.94,1.16-0.94c0.41-0.32,0.49-0.38,0.49-0.38
			c0.45-0.3,0.49-0.33,0.49-0.33c0.45-0.23,0.49-0.25,0.49-0.25c0.45-0.13,0.48-0.14,0.48-0.14c0.46-0.03,0.49-0.03,0.49-0.03
			c0.47,0.07,0.5,0.08,0.5,0.08c0.47,0.17,0.51,0.18,0.51,0.18c0.42,0.22,0.48,0.26,0.48,0.26c0.46,0.32,0.52,0.37,0.52,0.37
			c0.46,0.4,0.53,0.46,0.53,0.46c0.4,0.4,0.54,0.54,0.54,0.54c0.41,0.46,0.55,0.62,0.55,0.62c1.95,2.4,3.13,4.54,4.5,6.92
			c2.67,4.72,6.08,11.77,9.47,15.87c0.33,0.38,0.44,0.51,0.44,0.51c0.44,0.47,0.55,0.58,0.55,0.58c0.44,0.42,0.55,0.52,0.55,0.52
			c0.44,0.36,0.54,0.45,0.54,0.45c0.43,0.31,0.49,0.34,0.49,0.34c0.43,0.25,0.49,0.28,0.49,0.28c0.43,0.19,0.48,0.21,0.48,0.21
			c0.43,0.13,0.48,0.15,0.48,0.15c0.47,0.07,0.5,0.08,0.5,0.08c0.43,0,0.49,0,0.49,0c0.43-0.06,0.49-0.07,0.49-0.07
			c0.42-0.1,0.48-0.12,0.48-0.12c0.42-0.15,0.48-0.17,0.48-0.17c0.42-0.18,0.54-0.23,0.54-0.23c0.83-0.41,1.57-0.86,2.09-1.14
			c0.45-0.24,0.56-0.3,0.56-0.3c0.44-0.21,0.55-0.26,0.55-0.26c0.44-0.16,0.49-0.18,0.49-0.18c0.43-0.11,0.48-0.12,0.48-0.12
			c0.47-0.04,0.5-0.04,0.5-0.04c0.47,0.05,0.5,0.06,0.5,0.06c0.47,0.15,0.51,0.16,0.51,0.16c0.46,0.24,0.5,0.26,0.5,0.26
			c0.46,0.33,0.53,0.38,0.53,0.38c0.42,0.38,0.49,0.45,0.49,0.45c0.41,0.45,0.48,0.53,0.48,0.53c0.27,0.34,0.41,0.52,0.41,0.52
			c0.27,0.37,0.41,0.57,0.41,0.57c1.1,1.65,1.57,2.58,2.36,4.05c3.04,6.36,10.55,19.53,14.09,25.84c2.19,4.04,4.38,8.35,6.15,12.59"
			/>
	</g>
</g>
<g id="AG-OUTLINE">
	<g id="POLYLINE_467_">
		<path class="st62" d="M186.7,415.25c-7.44,1.81-14.77,4.39-21.59,7.89c-2.48,1.25-5.01,2.81-7.44,4.15
			c-3.36,1.84-7.08,3.67-10.57,5.26c-9.22,4.16-19.17,8.07-28.78,11.25c-2.78,0.89-5.87,1.82-8.71,2.48
			c-2.13,0.5-4.73,0.98-6.81,1.04c-0.92,0.02-1.57-0.02-2.04-0.05c-0.43-0.04-0.64-0.06-0.64-0.06c-0.42-0.05-0.62-0.08-0.62-0.08
			c-0.4-0.07-0.6-0.11-0.6-0.11c-0.39-0.08-0.58-0.13-0.58-0.13c-0.38-0.1-0.57-0.15-0.57-0.15c-0.37-0.11-0.55-0.17-0.55-0.17
			c-0.35-0.13-0.53-0.2-0.53-0.2c-0.34-0.14-0.51-0.22-0.51-0.22c-0.33-0.16-0.49-0.24-0.49-0.24c-0.47-0.26-0.55-0.31-0.55-0.31
			c-0.45-0.29-0.52-0.34-0.52-0.34c-0.43-0.31-0.5-0.37-0.5-0.37c-0.47-0.4-0.54-0.46-0.54-0.46c-0.44-0.43-0.5-0.5-0.5-0.5
			c-0.41-0.47-0.47-0.53-0.47-0.53c-0.28-0.35-0.38-0.5-0.38-0.5c-0.31-0.45-0.41-0.61-0.41-0.61c-0.28-0.47-0.37-0.63-0.37-0.63
			c-0.25-0.48-0.32-0.63-0.32-0.63c-0.14-0.32-0.21-0.48-0.21-0.48c-0.13-0.32-0.19-0.48-0.19-0.48c-0.11-0.32-0.16-0.48-0.16-0.48
			c-0.1-0.32-0.14-0.49-0.14-0.49c-0.08-0.33-0.11-0.49-0.11-0.49c-0.06-0.33-0.09-0.49-0.09-0.49c-0.05-0.33-0.06-0.49-0.06-0.49
			c-0.03-0.33-0.04-0.5-0.04-0.5c-0.01-0.33-0.02-0.5-0.02-0.5c0-0.33,0.01-0.5,0.01-0.5c0.02-0.34,0.03-0.5,0.03-0.5
			c0.04-0.34,0.06-0.51,0.06-0.51c0.05-0.34,0.08-0.51,0.08-0.51c0.07-0.34,0.11-0.51,0.11-0.51c0.09-0.34,0.13-0.51,0.13-0.51
			c0.1-0.34,0.16-0.52,0.16-0.52c0.12-0.35,0.18-0.52,0.18-0.52c0.14-0.35,0.21-0.52,0.21-0.52c1.76-3.97,3.95-7.53,6.21-11.19
			c3.28-5.16,6.94-10.53,10.02-15.81c1.95-3.43,4.45-7.5,5.27-11.2c0.1-0.47,0.12-0.62,0.12-0.62c0.07-0.45,0.09-0.6,0.09-0.6
			c0.04-0.43,0.05-0.58,0.05-0.58c0.02-0.42,0.02-0.55,0.02-0.55c-0.02-0.47-0.02-0.53-0.02-0.53c-0.05-0.45-0.06-0.51-0.06-0.51
			c-0.08-0.43-0.09-0.48-0.09-0.48c-0.13-0.46-0.15-0.52-0.15-0.52c-0.15-0.41-0.2-0.54-0.2-0.54c-0.17-0.38-0.23-0.52-0.23-0.52
			c-0.21-0.41-0.28-0.55-0.28-0.55c-1.87-3.32-3.85-5.6-6.13-8.34c-1.93-2.22-3.96-4.48-5.64-6.9c-2.17-3.06-4.03-6.39-5.46-9.86
			c-2.45-6.02-3.82-12.5-4.21-18.98c-0.14-2.81-0.24-6.17,0.28-8.83c0.08-0.4,0.11-0.53,0.11-0.53c0.1-0.38,0.13-0.51,0.13-0.51
			c0.11-0.37,0.14-0.49,0.14-0.49c0.16-0.47,0.2-0.58,0.2-0.58c0.18-0.44,0.22-0.55,0.22-0.55c0.2-0.42,0.25-0.52,0.25-0.52
			c0.22-0.39,0.27-0.48,0.27-0.48c0.29-0.45,0.36-0.54,0.36-0.54c0.32-0.41,0.39-0.49,0.39-0.49c0.42-0.45,0.5-0.52,0.5-0.52
			c0.46-0.39,0.54-0.45,0.54-0.45c0.42-0.29,0.5-0.34,0.5-0.34c0.44-0.25,0.54-0.29,0.54-0.29c0.47-0.21,0.57-0.25,0.57-0.25
			c0.4-0.14,0.5-0.17,0.5-0.17c0.42-0.12,0.52-0.14,0.52-0.14c0.44-0.09,0.55-0.11,0.55-0.11c0.45-0.06,0.57-0.08,0.57-0.08
			c0.47-0.04,0.59-0.05,0.59-0.05c4.7-0.13,9.14,0.88,13.54,2.37c1.43,0.49,2.92,1.08,4.32,1.67c3.11,1.36,8.85,3.76,12.02,5.04
			c7.74,3.16,16.78,6.27,24.35,9.75c3.56,1.63,7.27,3.52,10.65,5.5c2.7,1.57,5.63,3.57,8.3,5.2c5.5,3.38,11.44,6.6,17.27,9.38
			c4.43,1.45,9.08,2.5,13.7,3.04c4.94,0.59,10.05,0.66,15.03,0.51c11.78-0.4,23.87-1.92,35.49-3.91c-3.93-1.02-9.47-3.16-13.34-4.56
			c-2.55-0.95-6.51-2.15-9.14-2.93c-1.23-0.38-2.87-0.97-3.72-1.39c-0.36-0.17-0.54-0.26-0.54-0.26c-0.34-0.18-0.51-0.28-0.51-0.28
			c-0.48-0.29-0.55-0.34-0.55-0.34c-0.44-0.31-0.51-0.37-0.51-0.37c-0.45-0.39-0.51-0.45-0.51-0.45c-0.39-0.42-0.44-0.48-0.44-0.48
			c-0.32-0.45-0.34-0.49-0.34-0.49c-0.24-0.45-0.25-0.48-0.25-0.48c-0.18-0.47-0.2-0.55-0.2-0.55c-0.11-0.46-0.12-0.54-0.12-0.54
			c-0.05-0.4-0.06-0.49-0.06-0.49c-0.02-0.42-0.02-0.5-0.02-0.5c0.01-0.43,0.02-0.52,0.02-0.52c0.05-0.45,0.06-0.54,0.06-0.54
			c0.08-0.46,0.1-0.55,0.1-0.55c0.11-0.47,0.16-0.66,0.16-0.66c0.11-0.39,0.17-0.58,0.17-0.58c0.14-0.39,0.21-0.59,0.21-0.59
			c0.16-0.4,0.24-0.6,0.24-0.6c0.18-0.41,0.27-0.61,0.27-0.61c1.44-3.05,3.45-5.54,5.38-7.7c2.07-2.3,4.46-4.51,6.8-6.54
			c5.33-4.53,20.36-16.55,25.96-20.88c2.07-1.55,4.3-3.1,6.52-4.44c3.07-1.85,6.1-3.24,9.12-4.11c5.13-1.47,10.37-1.56,15.27-0.83
			c2.93,0.45,5.86,1.22,8.61,2.33c2.74,1.1,5.38,2.6,7.9,4.15c12.1,7.81,32.65,19.17,44.84,26.85c4.27-1.15,9.49-2.45,13.8-3.4
			c0.24-0.26,0.95-1.01,0.95-1.01c0.35-0.38,0.46-0.51,0.46-0.51c0.38-0.47,0.43-0.54,0.43-0.54c0.29-0.43,0.34-0.5,0.34-0.5
			c0.25-0.46,0.29-0.54,0.29-0.54c0.19-0.46,0.21-0.5,0.21-0.5c0.13-0.45,0.15-0.49,0.15-0.49c0.08-0.43,0.09-0.48,0.09-0.48
			c0.04-0.42,0.05-0.49,0.05-0.49c0.01-0.35,0.01-0.5,0.01-0.5c-0.03-1.79-0.44-3.72-0.53-5.33c-0.02-0.47-0.03-0.63-0.03-0.63
			c0-0.45,0-0.53,0-0.53c0.03-0.44,0.04-0.51,0.04-0.51c0.06-0.41,0.07-0.48,0.07-0.48c0.11-0.45,0.12-0.48,0.12-0.48
			c0.19-0.47,0.21-0.5,0.21-0.5c0.32-0.48,0.33-0.5,0.33-0.5c0.44-0.43,0.48-0.46,0.48-0.46c0.46-0.32,0.5-0.35,0.5-0.35
			c0.45-0.25,0.56-0.31,0.56-0.31c0.43-0.21,1.75-0.8,1.75-0.8c0.43-0.21,0.53-0.26,0.53-0.26c0.45-0.25,0.5-0.28,0.5-0.28
			c0.45-0.32,0.49-0.35,0.49-0.35c0.47-0.47,0.48-0.49,0.48-0.49c0.29-0.47,0.3-0.49,0.3-0.49c0.16-0.45,0.17-0.48,0.17-0.48
			c0.09-0.48,0.09-0.55,0.09-0.55c0.02-0.44,0.02-0.52,0.02-0.52c-0.02-0.47-0.02-0.55-0.02-0.55c-0.04-0.41-0.06-0.58-0.06-0.58
			c-0.22-1.61-0.65-3.1-0.89-4.55c-0.05-0.33-0.07-0.49-0.07-0.49c-0.05-0.47-0.06-0.54-0.06-0.54c-0.02-0.44-0.02-0.51-0.02-0.51
			c0.02-0.47,0.03-0.5,0.03-0.5c0.09-0.45,0.1-0.48,0.1-0.48c0.21-0.47,0.22-0.49,0.22-0.49c0.42-0.47,0.46-0.5,0.46-0.5
			c0.44-0.3,0.48-0.32,0.48-0.32c0.65-0.34,0.96-0.46,1.38-0.65c0.41-0.2,0.5-0.24,0.5-0.24c0.47-0.27,0.51-0.3,0.51-0.3
			c0.46-0.36,0.49-0.39,0.49-0.39c0.38-0.47,0.4-0.49,0.4-0.49c0.22-0.46,0.24-0.5,0.24-0.5c0.12-0.42,0.14-0.49,0.14-0.49
			c0.08-0.47,0.09-0.55,0.09-0.55c0.04-0.42,0.04-0.5,0.04-0.5c0.01-0.35,0.02-0.53,0.02-0.53c0.01-1.67-0.27-3.95-0.27-5.26
			c0-0.37,0.01-0.55,0.01-0.55c0.02-0.44,0.03-0.52,0.03-0.52c0.05-0.41,0.06-0.49,0.06-0.49c0.09-0.46,0.11-0.53,0.11-0.53
			c0.16-0.48,0.18-0.51,0.18-0.51c0.27-0.46,0.29-0.49,0.29-0.49c0.47-0.45,0.5-0.47,0.5-0.47c0.46-0.25,0.51-0.28,0.51-0.28
			c0.44-0.16,0.5-0.18,0.5-0.18c0.42-0.11,0.54-0.13,0.54-0.13c0.99-0.19,1.81-0.24,2.64-0.36c0.39-0.06,0.52-0.09,0.52-0.09
			c0.43-0.1,0.49-0.11,0.49-0.11c0.46-0.15,0.52-0.17,0.52-0.17c0.47-0.22,0.5-0.24,0.5-0.24c0.47-0.35,0.49-0.37,0.49-0.37
			c0.37-0.47,0.38-0.5,0.38-0.5c0.22-0.47,0.24-0.51,0.24-0.51c0.14-0.46,0.16-0.54,0.16-0.54c0.1-0.47,0.11-0.55,0.11-0.55
			c0.05-0.33,0.07-0.5,0.07-0.5c0.15-1.53,0.07-3.09,0.14-4.44c0.02-0.36,0.04-0.54,0.04-0.54c0.03-0.35,0.05-0.52,0.05-0.52
			c0.06-0.41,0.08-0.49,0.08-0.49c0.1-0.46,0.12-0.54,0.12-0.54c0.15-0.45,0.17-0.49,0.17-0.49c0.24-0.46,0.26-0.49,0.26-0.49
			c0.4-0.47,0.42-0.49,0.42-0.49c0.44-0.32,0.49-0.34,0.49-0.34c0.46-0.22,0.51-0.24,0.51-0.24c0.45-0.15,0.5-0.16,0.5-0.16
			c0.41-0.1,0.53-0.13,0.53-0.13c0.37-0.07,0.62-0.11,0.62-0.11c0.27-0.04,1.55-0.23,1.73-0.27c0.47-0.1,0.58-0.13,0.58-0.13
			c0.43-0.13,0.48-0.14,0.48-0.14c0.44-0.18,0.48-0.21,0.48-0.21c0.47-0.32,0.48-0.34,0.48-0.34c0.37-0.47,0.38-0.49,0.38-0.49
			c0.21-0.46,0.22-0.51,0.22-0.51c0.13-0.47,0.14-0.52,0.14-0.52c0.07-0.39,0.09-0.51,0.09-0.51c0.12-0.93,0.14-1.67,0.23-2.43
			c0.07-0.47,0.09-0.59,0.09-0.59c0.1-0.45,0.11-0.5,0.11-0.5c0.16-0.47,0.18-0.52,0.18-0.52c0.25-0.46,0.26-0.48,0.26-0.48
			c0.43-0.46,0.45-0.48,0.45-0.48c0.46-0.29,0.49-0.3,0.49-0.3c0.47-0.19,0.55-0.22,0.55-0.22c0.46-0.13,0.54-0.14,0.54-0.14
			c0.41-0.08,0.58-0.11,0.58-0.11c1.92-0.26,4.09-0.21,5.64-0.47c0.47-0.08,0.57-0.1,0.57-0.1c0.45-0.11,0.54-0.13,0.54-0.13
			c0.43-0.13,0.52-0.16,0.52-0.16c0.41-0.16,0.49-0.2,0.49-0.2c0.45-0.24,0.49-0.26,0.49-0.26c0.46-0.33,0.48-0.36,0.48-0.36
			c0.45-0.47,0.5-0.53,0.5-0.53c0.3-0.42,0.34-0.48,0.34-0.48c0.26-0.46,0.3-0.53,0.3-0.53c0.2-0.42,0.26-0.56,0.26-0.56
			c0.5-1.22,0.81-2.53,1.13-3.47c0.13-0.38,0.18-0.5,0.18-0.5c0.2-0.45,0.22-0.51,0.22-0.51c0.28-0.47,0.3-0.49,0.3-0.49
			c0.47-0.44,0.49-0.45,0.49-0.45c0.47-0.16,0.49-0.17,0.49-0.17c0.46-0.01,0.49-0.01,0.49-0.01c0.46,0.07,0.51,0.08,0.51,0.08
			c0.44,0.11,0.55,0.15,0.55,0.15c0.93,0.3,1.68,0.63,2.44,0.89c0.38,0.12,0.5,0.16,0.5,0.16c0.37,0.1,0.5,0.13,0.5,0.13
			c0.43,0.08,0.49,0.09,0.49,0.09c0.48,0.04,0.54,0.04,0.54,0.04c0.46-0.03,0.49-0.03,0.49-0.03c0.45-0.11,0.48-0.12,0.48-0.12
			c0.45-0.21,0.48-0.23,0.48-0.23c0.45-0.32,0.51-0.37,0.51-0.37c0.48-0.47,0.53-0.52,0.53-0.52c0.35-0.43,0.45-0.55,0.45-0.55
			c0.81-1.1,1.19-1.81,1.82-2.78c0.2-0.3,0.39-0.59,0.39-0.59c0.3-0.42,0.41-0.56,0.41-0.56c0.37-0.46,0.43-0.52,0.43-0.52
			c0.45-0.46,0.51-0.52,0.51-0.52c0.45-0.37,0.48-0.39,0.48-0.39c0.45-0.27,0.48-0.29,0.48-0.29c0.46-0.19,0.49-0.2,0.49-0.2
			c0.46-0.11,0.53-0.13,0.53-0.13c0.41-0.05,0.48-0.05,0.48-0.05c0.43-0.01,0.5-0.01,0.5-0.01c0.44,0.02,0.58,0.04,0.58,0.04
			c0.44,0.05,0.59,0.07,0.59,0.07c0.45,0.07,0.75,0.13,0.75,0.13c0.31,0.06,1.81,0.37,2.03,0.4c0.41,0.06,0.54,0.08,0.54,0.08
			c0.45,0.04,0.52,0.05,0.52,0.05c0.43,0,0.48,0,0.48,0c0.47-0.06,0.5-0.07,0.5-0.07c0.47-0.17,0.49-0.18,0.49-0.18
			c0.48-0.37,0.49-0.39,0.49-0.39c0.32-0.45,0.34-0.49,0.34-0.49c0.21-0.44,0.24-0.49,0.24-0.49c0.16-0.43,0.2-0.55,0.2-0.55
			c0.26-0.84,0.34-1.21,0.53-1.9c0.13-0.46,0.17-0.57,0.17-0.57c0.15-0.43,0.17-0.48,0.17-0.48c0.21-0.47,0.23-0.52,0.23-0.52
			c0.32-0.47,0.34-0.48,0.34-0.48c0.47-0.32,0.49-0.33,0.49-0.33c0.45-0.08,0.48-0.08,0.48-0.08c0.47,0.05,0.5,0.05,0.5,0.05
			c0.45,0.12,0.51,0.14,0.51,0.14c0.45,0.17,0.59,0.22,0.59,0.22c1.1,0.48,2.56,1.3,3.35,1.66c0.44,0.2,0.59,0.26,0.59,0.26
			c0.43,0.17,0.5,0.2,0.5,0.2c0.42,0.14,0.49,0.16,0.49,0.16c0.47,0.11,0.54,0.12,0.54,0.12c0.47,0.04,0.5,0.04,0.5,0.04
			c0.46-0.05,0.49-0.05,0.49-0.05c0.48-0.17,0.5-0.18,0.5-0.18c0.45-0.28,0.49-0.31,0.49-0.31c0.48-0.43,0.54-0.5,0.54-0.5
			c0.38-0.42,0.86-0.99,0.86-0.99c0.42-0.47,0.48-0.53,0.48-0.53c0.47-0.39,0.5-0.41,0.5-0.41c0.47-0.22,0.49-0.23,0.49-0.23
			c0.45-0.04,0.48-0.04,0.48-0.04c0.46,0.11,0.49,0.12,0.49,0.12c0.43,0.2,0.49,0.23,0.49,0.23c0.46,0.29,0.52,0.33,0.52,0.33
			c0.48,0.36,0.62,0.48,0.62,0.48c1.33,1.12,2.46,2.32,3.59,3.32c0.46,0.4,0.61,0.52,0.61,0.52c0.45,0.36,0.6,0.47,0.6,0.47
			c0.45,0.31,0.52,0.35,0.52,0.35c0.44,0.25,0.51,0.29,0.51,0.29c0.46,0.2,0.5,0.21,0.5,0.21c0.45,0.11,0.48,0.12,0.48,0.12
			c0.47,0.02,0.5,0.02,0.5,0.02c0.48-0.08,0.52-0.09,0.52-0.09c0.46-0.17,0.51-0.19,0.51-0.19c0.44-0.24,0.49-0.27,0.49-0.27
			c0.47-0.32,0.56-0.39,0.56-0.39c0.34-0.26,1.16-0.94,1.16-0.94c0.41-0.32,0.49-0.38,0.49-0.38c0.45-0.3,0.49-0.33,0.49-0.33
			c0.45-0.23,0.49-0.25,0.49-0.25c0.45-0.13,0.48-0.14,0.48-0.14c0.46-0.03,0.49-0.03,0.49-0.03c0.47,0.07,0.5,0.08,0.5,0.08
			c0.47,0.17,0.51,0.18,0.51,0.18c0.42,0.22,0.48,0.26,0.48,0.26c0.46,0.32,0.52,0.37,0.52,0.37c0.46,0.4,0.53,0.46,0.53,0.46
			c0.4,0.4,0.54,0.54,0.54,0.54c0.41,0.46,0.55,0.62,0.55,0.62c1.95,2.4,3.13,4.54,4.5,6.92c2.67,4.72,6.08,11.77,9.47,15.87
			c0.33,0.38,0.44,0.51,0.44,0.51c0.44,0.47,0.55,0.58,0.55,0.58c0.44,0.42,0.55,0.52,0.55,0.52c0.44,0.36,0.54,0.45,0.54,0.45
			c0.43,0.31,0.49,0.34,0.49,0.34c0.43,0.25,0.49,0.28,0.49,0.28c0.43,0.19,0.48,0.21,0.48,0.21c0.43,0.13,0.48,0.15,0.48,0.15
			c0.47,0.07,0.5,0.08,0.5,0.08c0.43,0,0.49,0,0.49,0c0.43-0.06,0.49-0.07,0.49-0.07c0.42-0.1,0.48-0.12,0.48-0.12
			c0.42-0.15,0.48-0.17,0.48-0.17c0.42-0.18,0.54-0.23,0.54-0.23c0.83-0.41,1.57-0.86,2.09-1.14c0.45-0.24,0.56-0.3,0.56-0.3
			c0.44-0.21,0.55-0.26,0.55-0.26c0.44-0.16,0.49-0.18,0.49-0.18c0.43-0.11,0.48-0.12,0.48-0.12c0.47-0.04,0.5-0.04,0.5-0.04
			c0.47,0.05,0.5,0.06,0.5,0.06c0.47,0.15,0.51,0.16,0.51,0.16c0.46,0.24,0.5,0.26,0.5,0.26c0.46,0.33,0.53,0.38,0.53,0.38
			c0.42,0.38,0.49,0.45,0.49,0.45c0.41,0.45,0.48,0.53,0.48,0.53c0.27,0.34,0.41,0.52,0.41,0.52c0.27,0.37,0.41,0.57,0.41,0.57
			c1.1,1.65,1.57,2.58,2.36,4.05c3.04,6.36,10.55,19.53,14.09,25.84c2.19,4.04,4.38,8.35,6.15,12.59c7.8,1.96,15.51,4.82,22.73,8.35
			c7.44,3.62,14.66,8.13,21.5,12.77c10.73,7.3,24.12,17.75,35.41,23.99c6.72,3.76,13.98,6.88,21.2,9.53
			c6.84,2.46,26.21,8.78,32.51,11.69c2.24,0.99,4.77,2.29,6.5,3.58c0.4,0.3,0.53,0.41,0.53,0.41c0.37,0.31,0.49,0.41,0.49,0.41
			c0.46,0.41,0.57,0.51,0.57,0.51c0.42,0.42,0.52,0.52,0.52,0.52c0.38,0.42,0.47,0.53,0.47,0.53c0.35,0.43,0.43,0.54,0.43,0.54
			c0.32,0.44,0.4,0.55,0.4,0.55c0.29,0.45,0.37,0.56,0.37,0.56c0.27,0.46,0.4,0.69,0.4,0.69c0.25,0.48,0.35,0.68,0.35,0.68
			c0.19,0.41,0.28,0.62,0.28,0.62c0.17,0.42,0.21,0.53,0.21,0.53c0.15,0.43,0.18,0.53,0.18,0.53c0.12,0.43,0.15,0.54,0.15,0.54
			c0.1,0.43,0.12,0.54,0.12,0.54c0.06,0.44,0.07,0.54,0.07,0.54c0.03,0.44,0.03,0.49,0.03,0.49c-0.01,0.43-0.02,0.49-0.02,0.49
			c-0.05,0.43-0.06,0.49-0.06,0.49c-0.1,0.43-0.11,0.48-0.11,0.48c-0.16,0.48-0.18,0.53-0.18,0.53c-0.23,0.47-0.25,0.52-0.25,0.52
			c-0.2,0.47-0.21,0.64-0.21,0.64c-0.03,0.61-0.06,1.65-0.08,1.89c-0.05,0.47-0.06,0.55-0.06,0.55c-0.08,0.48-0.1,0.56-0.1,0.56
			c-0.11,0.41-0.14,0.49-0.14,0.49c-0.15,0.42-0.19,0.51-0.19,0.51c-0.21,0.44-0.26,0.53-0.26,0.53c-0.28,0.47-0.35,0.58-0.35,0.58
			c-0.3,0.43-0.38,0.54-0.38,0.54c-0.35,0.45-0.45,0.56-0.45,0.56c-1.88,2.17-3.49,3.44-5.53,5.05c-2.44,1.88-5.07,3.65-7.69,5.28
			c-6.21,3.82-12.83,7.27-19.99,8.89c-11.08,7.8-25.25,13.52-38.99,12.18c-11.55,4.24-23.53,8.31-35.64,10.56
			c-12.64,2.41-25.81,3.24-38.66,3.72c-0.16,0.48-0.2,0.56-0.2,0.56c-0.18,0.41-0.22,0.5-0.22,0.5c-0.22,0.43-0.27,0.51-0.27,0.51
			c-0.26,0.44-0.37,0.62-0.37,0.62c-0.24,0.36-0.36,0.54-0.36,0.54c-0.26,0.37-0.4,0.55-0.4,0.55c-1.74,2.29-3.93,4.23-5.71,5.72
			c-1.52,1.25-3.16,2.47-4.8,3.57c-9.7,6.47-20.75,10.87-31.67,14.83c-4.83,1.7-12.52,4.32-17.42,5.82
			c-2.89,0.86-6.33,1.82-9.25,1.98c-0.39,0.01-0.52,0.02-0.52,0.02c-0.38,0-0.5,0-0.5,0c-0.36-0.02-0.48-0.02-0.48-0.02
			c-0.46-0.05-0.57-0.06-0.57-0.06c-0.43-0.08-0.53-0.1-0.53-0.1c-0.44-0.12-0.49-0.14-0.49-0.14c-0.45-0.17-0.5-0.19-0.5-0.19
			c-0.45-0.24-0.49-0.27-0.49-0.27c-0.47-0.36-0.49-0.39-0.49-0.39c-0.41-0.46-0.45-0.52-0.45-0.52c-0.28-0.45-0.31-0.51-0.31-0.51
			c-0.2-0.44-0.22-0.51-0.22-0.51c-0.14-0.41-0.16-0.49-0.16-0.49c-0.11-0.44-0.12-0.52-0.12-0.52c-0.08-0.47-0.09-0.55-0.09-0.55
			c-0.04-0.33-0.05-0.5-0.05-0.5c-0.02-0.35-0.03-0.52-0.03-0.52c-0.01-0.36,0-0.54,0-0.54c0.03-1.91,0.39-3.77,0.7-5.24
			c0.42-1.88,0.79-3.19,1.35-4.93c1.83-5.62,4.77-11.56,8.83-15.55c0.42-0.4,0.56-0.53,0.56-0.53c0.43-0.38,0.57-0.5,0.57-0.5
			c0.44-0.36,0.59-0.48,0.59-0.48c0.45-0.34,0.6-0.45,0.6-0.45c0.47-0.32,0.62-0.42,0.62-0.42c1.27-0.77,0.82-0.51,1.61-0.93
			c-17.16-0.61-58.42-0.06-76.12,0.07c-9.83,0.01-20.04-0.24-29.75-1.75c-7.53-1.16-15.01-3.09-22.2-5.58
			c-0.03,0.44-0.04,0.49-0.04,0.49c-0.16,0.47-0.18,0.52-0.18,0.52c-0.28,0.45-0.32,0.5-0.32,0.5c-0.45,0.48-0.49,0.52-0.49,0.52
			c-0.46,0.37-0.52,0.41-0.52,0.41c-0.36,0.24-0.48,0.32-0.48,0.32c-0.4,0.23-0.54,0.31-0.54,0.31c-0.44,0.23-0.59,0.3-0.59,0.3
			c-2.97,1.37-5.42,1.97-8.39,2.8c-5.43,1.41-12.43,3.09-17.61,5.12c-2.38,0.91-9.24,3.67-11.54,4.41c-2.3,0.79-5.25,1.53-7.38,1.83
			c-3.51,0.5-6.42,0.45-9.84,0.2c-4.67-0.37-9.47-1.24-14.05-2.2c-2.41-0.61-15.13-3.25-17.17-4.04c-0.46-0.18-0.61-0.24-0.61-0.24
			c-0.43-0.2-0.5-0.23-0.5-0.23c-0.47-0.25-0.53-0.29-0.53-0.29c-0.43-0.28-0.49-0.32-0.49-0.32c-0.45-0.36-0.51-0.41-0.51-0.41
			c-0.46-0.46-0.5-0.52-0.5-0.52c-0.36-0.47-0.4-0.53-0.4-0.53c-0.28-0.46-0.31-0.53-0.31-0.53c-0.23-0.48-0.27-0.58-0.27-0.58
			c-0.17-0.44-0.21-0.55-0.21-0.55c-0.14-0.47-0.18-0.59-0.18-0.59c-0.09-0.37-0.12-0.5-0.12-0.5c-0.52-2.55-0.5-4.53-0.49-6.97
			c0.04-2.69,0.35-7.6,0.44-10.32c0.2-4.06-0.27-8.84,0.59-12.78c0.12-0.47,0.15-0.58,0.15-0.58c0.14-0.46,0.17-0.57,0.17-0.57
			c0.16-0.44,0.2-0.55,0.2-0.55c0.18-0.43,0.23-0.53,0.23-0.53c0.21-0.41,0.26-0.51,0.26-0.51c0.23-0.4,0.3-0.49,0.3-0.49
			c0.33-0.48,0.4-0.57,0.4-0.57c0.38-0.45,0.45-0.54,0.45-0.54c0.42-0.43,0.51-0.51,0.51-0.51c0.46-0.39,0.54-0.45,0.54-0.45
			c0.42-0.31,0.5-0.37,0.5-0.37c0.45-0.29,0.63-0.4,0.63-0.4c0.38-0.22,0.58-0.33,0.58-0.33c0.4-0.21,0.61-0.31,0.61-0.31
			c0.42-0.19,0.64-0.29,0.64-0.29c0.44-0.18,0.67-0.27,0.67-0.27c3.81-1.4,7.35-1.82,11.3-2.02c-11.74-3.18-24.08-3.88-36.19-3.28
			C208.46,411.87,196.99,413.62,186.7,415.25z"/>
	</g>
</g>
</svg>
