<?xml version="1.0" encoding="utf-8"?>
<!-- Generator: Adobe Illustrator 24.2.1, SVG Export Plug-In . SVG Version: 6.00 Build 0)  -->
<!DOCTYPE svg PUBLIC "-//W3C//DTD SVG 1.1//EN" "http://www.w3.org/Graphics/SVG/1.1/DTD/svg11.dtd" [
	<!ENTITY ns_extend "http://ns.adobe.com/Extensibility/1.0/">
	<!ENTITY ns_ai "http://ns.adobe.com/AdobeIllustrator/10.0/">
	<!ENTITY ns_graphs "http://ns.adobe.com/Graphs/1.0/">
	<!ENTITY ns_vars "http://ns.adobe.com/Variables/1.0/">
	<!ENTITY ns_imrep "http://ns.adobe.com/ImageReplacement/1.0/">
	<!ENTITY ns_sfw "http://ns.adobe.com/SaveForWeb/1.0/">
	<!ENTITY ns_custom "http://ns.adobe.com/GenericCustomNamespace/1.0/">
	<!ENTITY ns_adobe_xpath "http://ns.adobe.com/XPath/1.0/">
]>
<svg version="1.1" xmlns:x="&ns_extend;" xmlns:i="&ns_ai;" xmlns:graph="&ns_graphs;"
	 xmlns="http://www.w3.org/2000/svg" xmlns:xlink="http://www.w3.org/1999/xlink" x="0px" y="0px" width="750px" height="750px"
	 viewBox="0 0 750 750" style="enable-background:new 0 0 750 750;" xml:space="preserve">
<style type="text/css">
	.st0{fill:#FFFFFF;}
	.st1{fill:#FB8604;}
	.st2{fill:none;stroke:#FB8604;stroke-width:2;stroke-linecap:round;stroke-linejoin:round;stroke-miterlimit:10;}
	.st3{fill:none;stroke:#FB8604;stroke-width:3;stroke-linecap:round;stroke-linejoin:round;}
	.st4{fill:none;stroke:#FB8604;stroke-width:3;stroke-linecap:round;stroke-linejoin:round;stroke-dasharray:2.8454,4.7423;}
	.st5{fill:none;stroke:#FB8604;stroke-width:3;stroke-linecap:round;stroke-linejoin:round;stroke-dasharray:3.0358,5.0597;}
	.st6{fill:none;stroke:#FB8604;stroke-width:3;stroke-linecap:round;stroke-linejoin:round;stroke-dasharray:3.0623,5.1039;}
	.st7{fill:none;stroke:#FB8604;stroke-width:3;stroke-linecap:round;stroke-linejoin:round;stroke-dasharray:2.7205,4.5341;}
	.st8{fill:none;stroke:#FB8604;stroke-width:3;stroke-linecap:round;stroke-linejoin:round;stroke-dasharray:2.98,4.9666;}
	.st9{fill:none;stroke:#FB8604;stroke-width:3;stroke-linecap:round;stroke-linejoin:round;stroke-dasharray:3.1616,5.2694;}
	.st10{fill:none;stroke:#FB8604;stroke-width:3;stroke-linecap:round;stroke-linejoin:round;stroke-dasharray:2.9622,4.937;}
	.st11{fill:none;stroke:#FB8604;stroke-width:3;stroke-linecap:round;stroke-linejoin:round;stroke-dasharray:3.1524,5.254;}
	.st12{fill:none;stroke:#FB8604;stroke-width:3;stroke-linecap:round;stroke-linejoin:round;stroke-dasharray:2.9926,4.9876;}
	.st13{fill:none;stroke:#FB8604;stroke-width:3;stroke-linecap:round;stroke-linejoin:round;stroke-dasharray:2.9819,4.9699;}
	.st14{fill:none;stroke:#FB8604;stroke-width:3;stroke-linecap:round;stroke-linejoin:round;stroke-dasharray:3.2543,5.4238;}
	.st15{fill:none;stroke:#FB8604;stroke-width:3;stroke-linecap:round;stroke-linejoin:round;stroke-dasharray:3.1883,5.3139;}
	.st16{fill:none;stroke:#FB8604;stroke-width:3;stroke-linecap:round;stroke-linejoin:round;stroke-dasharray:3.1996,5.3327;}
	.st17{fill:none;stroke:#FB8604;stroke-width:3;stroke-linecap:round;stroke-linejoin:round;stroke-dasharray:3.0002,5.0003;}
	.st18{fill:none;stroke:#FB8604;stroke-width:3;stroke-linecap:round;stroke-linejoin:round;stroke-dasharray:3.0484,5.0807;}
	.st19{fill:none;stroke:#FB8604;stroke-width:3;stroke-linecap:round;stroke-linejoin:round;stroke-dasharray:2.9243,4.8739;}
	.st20{fill:none;stroke:#FB8604;stroke-width:3;stroke-linecap:round;stroke-linejoin:round;stroke-dasharray:2.6889,4.4815;}
	.st21{fill:none;stroke:#FB8604;stroke-width:3;stroke-linecap:round;stroke-linejoin:round;stroke-dasharray:3.2554,5.4256;}
	.st22{fill:none;stroke:#FB8604;stroke-width:3;stroke-linecap:round;stroke-linejoin:round;stroke-dasharray:2.7653,4.6089;}
	.st23{fill:none;stroke:#FB8604;stroke-width:3;stroke-linecap:round;stroke-linejoin:round;stroke-dasharray:2.9223,4.8704;}
	.st24{fill:none;stroke:#FB8604;stroke-width:3;stroke-linecap:round;stroke-linejoin:round;stroke-dasharray:2.9057,4.8429;}
	.st25{fill:none;stroke:#FB8604;stroke-width:3;stroke-linecap:round;stroke-linejoin:round;stroke-dasharray:3.0065,5.0108;}
	.st26{fill:none;stroke:#FB8604;stroke-width:3;stroke-linecap:round;stroke-linejoin:round;stroke-dasharray:2.9079,4.8465;}
	.st27{fill:none;stroke:#FB8604;stroke-width:3;stroke-linecap:round;stroke-linejoin:round;stroke-dasharray:3.0937,5.1562;}
	.st28{fill:none;stroke:#FB8604;stroke-width:3;stroke-linecap:round;stroke-linejoin:round;stroke-dasharray:3.0661,5.1101;}
	.st29{fill:none;stroke:#FB8604;stroke-width:3;stroke-linecap:round;stroke-linejoin:round;stroke-dasharray:3.1776,5.2959;}
	.st30{fill:none;stroke:#FB8604;stroke-width:3;stroke-linecap:round;stroke-linejoin:round;stroke-dasharray:2.9906,4.9843;}
	.st31{fill:none;stroke:#FB8604;stroke-width:3;stroke-linecap:round;stroke-linejoin:round;stroke-dasharray:3.05,5.0833;}
	.st32{fill:none;stroke:#FB8604;stroke-width:3;stroke-linecap:round;stroke-linejoin:round;stroke-dasharray:2.9927,4.9878;}
	.st33{fill:none;stroke:#FB8604;stroke-width:3;stroke-linecap:round;stroke-linejoin:round;stroke-dasharray:3.0562,5.0937;}
	.st34{fill:none;stroke:#FB8604;stroke-width:3;stroke-linecap:round;stroke-linejoin:round;stroke-dasharray:2.6349,4.3916;}
	.st35{fill:none;stroke:#FB8604;stroke-width:3;stroke-linecap:round;stroke-linejoin:round;stroke-dasharray:2.7969,4.6614;}
	.st36{fill:none;stroke:#FB8604;stroke-width:3;stroke-linecap:round;stroke-linejoin:round;stroke-dasharray:2.9278,4.8796;}
	.st37{fill:none;stroke:#FB8604;stroke-width:3;stroke-linecap:round;stroke-linejoin:round;stroke-dasharray:3.0246,5.041;}
	.st38{fill:none;stroke:#FB8604;stroke-width:3;stroke-linecap:round;stroke-linejoin:round;stroke-dasharray:3.1079,5.1799;}
	.st39{fill:none;stroke:#FB8604;stroke-width:3;stroke-linecap:round;stroke-linejoin:round;stroke-dasharray:2.857,4.7617;}
	.st40{fill:none;stroke:#FB8604;stroke-width:3;stroke-linecap:round;stroke-linejoin:round;stroke-dasharray:2.963,4.9383;}
	.st41{fill:none;stroke:#FB8604;stroke-width:3;stroke-linecap:round;stroke-linejoin:round;stroke-dasharray:2.9904,4.984;}
	.st42{fill:none;stroke:#FB8604;stroke-width:3;stroke-linecap:round;stroke-linejoin:round;stroke-dasharray:2.9956,4.9927;}
	.st43{fill:none;stroke:#FB8604;stroke-width:3;stroke-linecap:round;stroke-linejoin:round;stroke-dasharray:3.0812,5.1353;}
	.st44{fill:none;stroke:#FB8604;stroke-width:3;stroke-linecap:round;stroke-linejoin:round;stroke-dasharray:2.9058,4.8431;}
	.st45{fill:none;stroke:#FB8604;stroke-width:3;stroke-linecap:round;stroke-linejoin:round;stroke-dasharray:3.0726,5.121;}
	.st46{fill:none;stroke:#FB8604;stroke-width:3;stroke-linecap:round;stroke-linejoin:round;stroke-dasharray:2.9521,4.9202;}
	.st47{fill:none;stroke:#FB8604;stroke-width:3;stroke-linecap:round;stroke-linejoin:round;stroke-dasharray:2.8199,4.6998;}
	.st48{fill:none;stroke:#FB8604;stroke-width:3;stroke-linecap:round;stroke-linejoin:round;stroke-dasharray:2.9034,4.8389;}
	.st49{fill:none;stroke:#FB8604;stroke-width:3;stroke-linecap:round;stroke-linejoin:round;stroke-dasharray:3.1354,5.2257;}
	.st50{fill:none;stroke:#FB8604;stroke-width:3;stroke-linecap:round;stroke-linejoin:round;stroke-dasharray:2.9869,4.9781;}
	.st51{fill:none;stroke:#FB8604;stroke-width:3;stroke-linecap:round;stroke-linejoin:round;stroke-dasharray:3.0079,5.0131;}
	.st52{fill:none;stroke:#FB8604;stroke-width:3;stroke-linecap:round;stroke-linejoin:round;stroke-dasharray:2.9878,4.9796;}
	.st53{fill:none;stroke:#FB8604;stroke-width:3;stroke-linecap:round;stroke-linejoin:round;stroke-dasharray:2.9976,4.996;}
	.st54{fill:none;stroke:#FB8604;stroke-width:3;stroke-linecap:round;stroke-linejoin:round;stroke-dasharray:2.8211,4.7018;}
	.st55{fill:none;stroke:#FB8604;stroke-width:3;stroke-linecap:round;stroke-linejoin:round;stroke-dasharray:2.9864,4.9773;}
	.st56{fill:none;stroke:#FB8604;stroke-width:3;stroke-linecap:round;stroke-linejoin:round;stroke-dasharray:3.1189,5.1981;}
	.st57{fill:none;stroke:#FB8604;stroke-width:3;stroke-linecap:round;stroke-linejoin:round;stroke-dasharray:3.2283,5.3806;}
	.st58{fill:none;stroke:#FB8604;stroke-width:3;stroke-linecap:round;stroke-linejoin:round;stroke-dasharray:3.0483,5.0805;}
	.st59{fill:none;stroke:#FB8604;stroke-width:3;stroke-linecap:round;stroke-linejoin:round;stroke-dasharray:2.9847,4.9744;}
	.st60{fill:none;stroke:#FB8604;stroke-width:3;stroke-linecap:round;stroke-linejoin:round;stroke-dasharray:3.0077,5.0129;}
	.st61{fill:none;stroke:#FB8604;stroke-width:2.75;stroke-linecap:round;stroke-linejoin:round;stroke-miterlimit:10;}
	.st62{fill:none;stroke:#FB8604;stroke-width:3.5;stroke-linecap:round;stroke-linejoin:round;stroke-miterlimit:10;}
	
		.st63{fill:none;stroke:#FB8604;stroke-width:3;stroke-linecap:round;stroke-linejoin:round;stroke-miterlimit:10;stroke-dasharray:3,5;}
</style>
<metadata>
	<sfw  xmlns="&ns_sfw;">
		<slices></slices>
		<sliceSourceBounds  bottomLeftOrigin="true" height="8099.71" width="4072" x="-2000" y="-1120"></sliceSourceBounds>
	</sfw>
</metadata>
<g id="FILL-BACKGROUND">
	<rect class="st0" width="750" height="750"/>
</g>
<g id="N-TEXT">
</g>
<g id="N-DIMENSIONS">
</g>
<g id="AG-DETAIL-DIAGRAM">
</g>
<g id="AG-DETAILS">
	<g id="POLYLINE_119_">
		<path class="st2" d="M559.59,341.61c-0.08-0.11-0.12-0.17-0.12-0.17c-0.08-0.11-0.13-0.16-0.13-0.16
			c-0.09-0.11-0.14-0.16-0.14-0.16c-0.14-0.15-0.19-0.2-0.19-0.2c-0.15-0.14-0.21-0.19-0.21-0.19c-0.11-0.09-0.16-0.14-0.16-0.14
			c-0.11-0.09-0.17-0.13-0.17-0.13c-0.12-0.08-0.18-0.12-0.18-0.12c-0.12-0.08-0.18-0.12-0.18-0.12c-0.12-0.07-0.19-0.11-0.19-0.11
			c-0.13-0.07-0.19-0.1-0.19-0.1c-0.13-0.07-0.2-0.1-0.2-0.1c-1.76-0.82-3.77-0.85-5.46-0.27c-0.14,0.05-0.22,0.08-0.22,0.08
			c-0.14,0.06-0.21,0.09-0.21,0.09c-0.14,0.06-0.21,0.1-0.21,0.1c-0.14,0.07-0.21,0.1-0.21,0.1c-0.13,0.07-0.2,0.11-0.2,0.11
			c-0.13,0.08-0.2,0.12-0.2,0.12c-0.13,0.08-0.19,0.12-0.19,0.12c-0.12,0.09-0.18,0.13-0.18,0.13c-0.12,0.09-0.18,0.14-0.18,0.14
			c-0.12,0.09-0.17,0.14-0.17,0.14c-1.35,1.17-2.17,2.8-2.36,4.42c-0.01,0.14-0.02,0.21-0.02,0.21c-0.01,0.14-0.01,0.21-0.01,0.21
			c0,0.14,0,0.21,0,0.21c0,0.14,0,0.21,0,0.21c0.01,0.14,0.01,0.21,0.01,0.21c0.01,0.14,0.02,0.21,0.02,0.21
			c0.02,0.14,0.03,0.2,0.03,0.2c0.02,0.13,0.04,0.2,0.04,0.2c0.03,0.13,0.05,0.2,0.05,0.2c0.03,0.13,0.05,0.2,0.05,0.2
			c0.04,0.13,0.06,0.19,0.06,0.19c0.05,0.13,0.07,0.19,0.07,0.19c0.05,0.12,0.08,0.19,0.08,0.19c0.06,0.12,0.09,0.18,0.09,0.18
			c0.07,0.12,0.1,0.18,0.1,0.18c0.09,0.15,0.11,0.18,0.11,0.18c0.08,0.12,0.13,0.18,0.13,0.18c0.09,0.11,0.14,0.17,0.14,0.17
			c0.1,0.11,0.14,0.17,0.14,0.17c0.1,0.11,0.15,0.16,0.15,0.16c0.11,0.1,0.16,0.15,0.16,0.15c0.11,0.1,0.17,0.15,0.17,0.15
			c0.12,0.1,0.18,0.14,0.18,0.14c0.12,0.09,0.19,0.14,0.19,0.14c0.13,0.09,0.19,0.13,0.19,0.13c0.13,0.08,0.2,0.12,0.2,0.12
			c0.14,0.08,0.21,0.12,0.21,0.12c1.85,0.98,3.95,1.21,5.87,0.69c0.16-0.05,0.23-0.07,0.23-0.07c0.15-0.05,0.23-0.08,0.23-0.08
			c0.15-0.06,0.22-0.09,0.22-0.09c0.15-0.06,0.22-0.1,0.22-0.1c0.14-0.07,0.21-0.11,0.21-0.11c0.14-0.08,0.21-0.12,0.21-0.12
			c0.13-0.08,0.2-0.12,0.2-0.12c0.12-0.08,0.19-0.13,0.19-0.13c0.12-0.09,0.18-0.14,0.18-0.14c0.12-0.09,0.17-0.14,0.17-0.14
			c0.11-0.1,0.17-0.15,0.17-0.15c0.11-0.1,0.16-0.16,0.16-0.16c0.1-0.11,0.16-0.16,0.16-0.16c0.1-0.11,0.15-0.17,0.15-0.17
			c0.1-0.12,0.14-0.18,0.14-0.18c0.09-0.12,0.14-0.18,0.14-0.18c0.09-0.12,0.13-0.19,0.13-0.19c0.08-0.13,0.12-0.19,0.12-0.19
			c0.79-1.29,1.11-2.76,1.02-4.12c-0.01-0.15-0.02-0.22-0.02-0.22c-0.02-0.14-0.03-0.22-0.03-0.22c-0.02-0.14-0.04-0.21-0.04-0.21
			c-0.03-0.14-0.04-0.21-0.04-0.21c-0.03-0.14-0.05-0.21-0.05-0.21c-0.04-0.14-0.06-0.2-0.06-0.2c-0.04-0.13-0.07-0.2-0.07-0.2
			c-0.05-0.13-0.08-0.2-0.08-0.2c-0.05-0.13-0.08-0.19-0.08-0.19c-0.06-0.13-0.09-0.19-0.09-0.19c-0.07-0.12-0.1-0.18-0.1-0.18
			C559.67,341.73,559.63,341.67,559.59,341.61z"/>
	</g>
	<g id="POLYLINE_120_">
		<path class="st2" d="M519.54,338.21c-0.1-0.13-0.11-0.16-0.11-0.16c-0.12-0.15-0.15-0.17-0.15-0.17
			c-0.14-0.14-0.16-0.16-0.16-0.16c-0.15-0.13-0.17-0.16-0.17-0.16c-0.13-0.11-0.18-0.15-0.18-0.15c-0.11-0.08-0.16-0.12-0.16-0.12
			c-0.11-0.07-0.17-0.11-0.17-0.11c-0.12-0.07-0.18-0.1-0.18-0.1c-0.12-0.07-0.19-0.1-0.19-0.1c-0.13-0.06-0.19-0.09-0.19-0.09
			c-0.13-0.06-0.2-0.08-0.2-0.08c-0.14-0.05-0.2-0.08-0.2-0.08c-0.14-0.05-0.21-0.07-0.21-0.07c-0.14-0.04-0.21-0.06-0.21-0.06
			c-1.95-0.52-4.04-0.23-5.72,0.66c-0.14,0.08-0.22,0.12-0.22,0.12c-0.14,0.08-0.21,0.13-0.21,0.13c-0.14,0.09-0.21,0.14-0.21,0.14
			c-0.13,0.1-0.2,0.14-0.2,0.14c-0.13,0.1-0.19,0.15-0.19,0.15c-0.13,0.1-0.19,0.16-0.19,0.16c-0.12,0.11-0.18,0.17-0.18,0.17
			c-0.12,0.11-0.18,0.17-0.18,0.17c-1.4,1.44-2.16,3.34-2.22,5.19c0,0.15,0,0.22,0,0.22c0,0.15,0.01,0.22,0.01,0.22
			c0.01,0.14,0.01,0.22,0.01,0.22c0.01,0.14,0.02,0.21,0.02,0.21c0.02,0.14,0.03,0.21,0.03,0.21c0.02,0.14,0.04,0.21,0.04,0.21
			c0.03,0.14,0.05,0.2,0.05,0.2c0.04,0.13,0.06,0.2,0.06,0.2c0.04,0.13,0.06,0.19,0.06,0.19c0.05,0.13,0.07,0.19,0.07,0.19
			c0.05,0.12,0.08,0.18,0.08,0.18c0.07,0.15,0.09,0.18,0.09,0.18c0.08,0.14,0.1,0.17,0.1,0.17c0.09,0.14,0.11,0.16,0.11,0.16
			c0.11,0.15,0.13,0.18,0.13,0.18c0.12,0.14,0.14,0.17,0.14,0.17c0.13,0.14,0.15,0.16,0.15,0.16c0.12,0.11,0.16,0.15,0.16,0.15
			c0.15,0.12,0.2,0.16,0.2,0.16c0.1,0.07,0.16,0.11,0.16,0.11c0.11,0.07,0.16,0.1,0.16,0.1c0.11,0.07,0.17,0.1,0.17,0.1
			c0.12,0.06,0.18,0.09,0.18,0.09c0.12,0.06,0.18,0.08,0.18,0.08c0.12,0.05,0.19,0.08,0.19,0.08c0.13,0.05,0.19,0.07,0.19,0.07
			c0.13,0.04,0.2,0.06,0.2,0.06c0.13,0.04,0.2,0.06,0.2,0.06c0.14,0.03,0.2,0.05,0.2,0.05c2.1,0.44,4.3-0.13,5.92-1.27
			c1.89-1.37,3.1-3.5,3.35-5.65c0.01-0.15,0.02-0.22,0.02-0.22c0.01-0.14,0.01-0.22,0.01-0.22c0-0.14,0-0.21,0-0.21
			c0-0.14-0.01-0.21-0.01-0.21c-0.01-0.14-0.02-0.21-0.02-0.21c-0.02-0.14-0.02-0.2-0.02-0.2c-0.02-0.13-0.03-0.2-0.03-0.2
			c-0.03-0.13-0.04-0.2-0.04-0.2c-0.03-0.13-0.05-0.19-0.05-0.19c-0.04-0.13-0.05-0.16-0.05-0.16c-0.06-0.15-0.07-0.18-0.07-0.18
			c-0.06-0.15-0.08-0.18-0.08-0.18c-0.07-0.14-0.09-0.17-0.09-0.17C519.64,338.37,519.63,338.34,519.54,338.21z"/>
	</g>
	<g id="POLYLINE_121_">
		<path class="st2" d="M480.25,338.12c-0.12-0.15-0.17-0.19-0.17-0.19c-0.13-0.14-0.18-0.18-0.18-0.18
			c-0.14-0.13-0.19-0.17-0.19-0.17c-0.15-0.12-0.2-0.16-0.2-0.16c-0.1-0.07-0.16-0.11-0.16-0.11c-0.11-0.07-0.16-0.1-0.16-0.1
			c-0.11-0.07-0.17-0.1-0.17-0.1c-0.11-0.06-0.17-0.09-0.17-0.09c-0.12-0.06-0.18-0.08-0.18-0.08c-0.12-0.05-0.18-0.08-0.18-0.08
			c-0.12-0.05-0.18-0.07-0.18-0.07c-0.12-0.04-0.19-0.07-0.19-0.07c-0.13-0.04-0.19-0.06-0.19-0.06c-0.13-0.04-0.19-0.05-0.19-0.05
			c-1.96-0.48-4.03,0.03-5.55,1.09c-1.78,1.28-2.93,3.25-3.24,5.25c-0.02,0.14-0.03,0.22-0.03,0.22c-0.01,0.14-0.02,0.21-0.02,0.21
			c-0.01,0.14-0.01,0.21-0.01,0.21c0,0.14,0,0.21,0,0.21c0,0.14,0.01,0.21,0.01,0.21c0.01,0.14,0.02,0.21,0.02,0.21
			c0.02,0.14,0.02,0.2,0.02,0.2c0.02,0.13,0.03,0.2,0.03,0.2c0.03,0.13,0.04,0.2,0.04,0.2c0.03,0.13,0.05,0.19,0.05,0.19
			c0.04,0.13,0.05,0.16,0.05,0.16c0.06,0.15,0.07,0.18,0.07,0.18c0.06,0.15,0.08,0.18,0.08,0.18c0.07,0.14,0.09,0.17,0.09,0.17
			c0.08,0.14,0.1,0.17,0.1,0.17c0.09,0.14,0.11,0.16,0.11,0.16c0.1,0.13,0.12,0.16,0.12,0.16c0.11,0.13,0.14,0.16,0.14,0.16
			c0.15,0.15,0.17,0.17,0.17,0.17c0.13,0.12,0.16,0.14,0.16,0.14c0.11,0.09,0.17,0.13,0.17,0.13c0.12,0.09,0.18,0.13,0.18,0.13
			c0.12,0.08,0.18,0.12,0.18,0.12c0.13,0.08,0.19,0.11,0.19,0.11c0.13,0.07,0.2,0.11,0.2,0.11c0.14,0.07,0.21,0.1,0.21,0.1
			c0.14,0.06,0.21,0.09,0.21,0.09c0.15,0.06,0.22,0.08,0.22,0.08c0.15,0.05,0.23,0.08,0.23,0.08c1.92,0.6,3.99,0.48,5.77-0.25
			c0.15-0.07,0.23-0.1,0.23-0.1c0.15-0.07,0.22-0.11,0.22-0.11c0.15-0.08,0.22-0.12,0.22-0.12c0.14-0.08,0.21-0.13,0.21-0.13
			c0.14-0.09,0.21-0.13,0.21-0.13c0.13-0.09,0.2-0.14,0.2-0.14c0.13-0.1,0.19-0.15,0.19-0.15c0.12-0.1,0.17-0.15,0.17-0.15
			c0.11-0.1,0.17-0.16,0.17-0.16c0.11-0.11,0.16-0.16,0.16-0.16c0.1-0.11,0.15-0.17,0.15-0.17c0.1-0.12,0.14-0.17,0.14-0.17
			c0.09-0.12,0.14-0.18,0.14-0.18c0.09-0.12,0.13-0.18,0.13-0.18c0.08-0.13,0.12-0.19,0.12-0.19c0.08-0.13,0.12-0.19,0.12-0.19
			c0.07-0.13,0.11-0.2,0.11-0.2c0.07-0.13,0.1-0.2,0.1-0.2c0.67-1.41,0.82-2.95,0.53-4.33c-0.03-0.14-0.05-0.21-0.05-0.21
			c-0.04-0.14-0.05-0.2-0.05-0.2c-0.04-0.13-0.06-0.2-0.06-0.2c-0.05-0.13-0.07-0.19-0.07-0.19c-0.05-0.13-0.08-0.19-0.08-0.19
			c-0.05-0.12-0.08-0.19-0.08-0.19c-0.06-0.12-0.09-0.18-0.09-0.18c-0.06-0.12-0.1-0.18-0.1-0.18c-0.07-0.11-0.1-0.17-0.1-0.17
			c-0.07-0.11-0.11-0.16-0.11-0.16C480.33,338.22,480.29,338.17,480.25,338.12z"/>
	</g>
	<g id="POLYLINE_122_">
		<path class="st2" d="M452.47,340.48c-0.1-0.14-0.14-0.18-0.14-0.18c-0.11-0.13-0.15-0.18-0.15-0.18
			c-0.12-0.12-0.16-0.17-0.16-0.17c-0.12-0.12-0.16-0.16-0.16-0.16c-0.13-0.11-0.17-0.15-0.17-0.15c-0.14-0.1-0.18-0.14-0.18-0.14
			c-0.14-0.1-0.19-0.13-0.19-0.13c-0.15-0.09-0.2-0.12-0.2-0.12c-0.15-0.08-0.2-0.11-0.2-0.11c-0.1-0.05-0.16-0.07-0.16-0.07
			c-0.11-0.05-0.16-0.07-0.16-0.07c-0.11-0.04-0.16-0.06-0.16-0.06c-0.11-0.04-0.17-0.06-0.17-0.06c-0.11-0.03-0.17-0.05-0.17-0.05
			c-0.12-0.03-0.17-0.04-0.17-0.04c-0.12-0.03-0.18-0.04-0.18-0.04c-1.62-0.31-3.28,0.16-4.53,0.99c-1.32,0.88-2.3,2.11-2.99,3.34
			c-0.5,0.89-0.89,1.92-1.04,2.86c-0.02,0.15-0.03,0.23-0.03,0.23c-0.02,0.15-0.02,0.23-0.02,0.23c-0.01,0.15-0.01,0.23-0.01,0.23
			c0,0.15,0,0.22,0,0.22c0,0.15,0.01,0.22,0.01,0.22c0.01,0.14,0.02,0.21,0.02,0.21c0.02,0.14,0.02,0.17,0.02,0.17
			c0.02,0.14,0.03,0.17,0.03,0.17c0.03,0.13,0.04,0.17,0.04,0.17c0.04,0.13,0.04,0.16,0.04,0.16c0.04,0.13,0.05,0.16,0.05,0.16
			c0.06,0.15,0.07,0.18,0.07,0.18c0.07,0.15,0.09,0.18,0.09,0.18c0.08,0.14,0.1,0.17,0.1,0.17c0.09,0.13,0.11,0.16,0.11,0.16
			c0.12,0.15,0.14,0.17,0.14,0.17c0.13,0.14,0.15,0.16,0.15,0.16c0.14,0.13,0.16,0.15,0.16,0.15c0.15,0.12,0.18,0.14,0.18,0.14
			c0.13,0.1,0.16,0.12,0.16,0.12c0.14,0.09,0.2,0.13,0.2,0.13c0.12,0.07,0.18,0.1,0.18,0.1c0.12,0.06,0.19,0.09,0.19,0.09
			c0.13,0.06,0.19,0.09,0.19,0.09c0.13,0.05,0.2,0.08,0.2,0.08c0.14,0.05,0.21,0.07,0.21,0.07c0.14,0.04,0.21,0.06,0.21,0.06
			c0.15,0.04,0.22,0.06,0.22,0.06c1.92,0.43,3.96,0.11,5.62-0.74c0.15-0.08,0.22-0.12,0.22-0.12c0.14-0.08,0.21-0.13,0.21-0.13
			c0.14-0.09,0.21-0.13,0.21-0.13c0.13-0.09,0.2-0.14,0.2-0.14c0.13-0.1,0.19-0.15,0.19-0.15c0.12-0.1,0.18-0.15,0.18-0.15
			c0.12-0.1,0.18-0.16,0.18-0.16c0.11-0.11,0.17-0.16,0.17-0.16c0.11-0.11,0.16-0.17,0.16-0.17c0.1-0.12,0.16-0.17,0.16-0.17
			c0.1-0.12,0.15-0.18,0.15-0.18c1.21-1.54,1.71-3.48,1.49-5.27c-0.02-0.14-0.03-0.21-0.03-0.21c-0.02-0.14-0.04-0.2-0.04-0.2
			c-0.03-0.13-0.04-0.2-0.04-0.2c-0.03-0.13-0.05-0.2-0.05-0.2c-0.04-0.13-0.06-0.19-0.06-0.19c-0.04-0.13-0.07-0.19-0.07-0.19
			c-0.05-0.12-0.07-0.18-0.07-0.18c-0.05-0.12-0.08-0.18-0.08-0.18c-0.06-0.12-0.09-0.17-0.09-0.17c-0.06-0.11-0.09-0.17-0.09-0.17
			C452.54,340.58,452.51,340.53,452.47,340.48z"/>
	</g>
	<g id="POLYLINE_123_">
		<path class="st2" d="M427.16,340.76c-0.1-0.12-0.14-0.16-0.14-0.16c-0.14-0.15-0.18-0.18-0.18-0.18
			c-0.14-0.13-0.18-0.17-0.18-0.17c-0.15-0.12-0.19-0.15-0.19-0.15c-0.15-0.11-0.19-0.14-0.19-0.14c-0.12-0.08-0.16-0.1-0.16-0.1
			c-0.12-0.07-0.16-0.09-0.16-0.09c-0.12-0.06-0.16-0.08-0.16-0.08c-0.13-0.05-0.17-0.07-0.17-0.07c-0.13-0.05-0.17-0.06-0.17-0.06
			c-0.13-0.04-0.17-0.05-0.17-0.05c-0.13-0.03-0.17-0.04-0.17-0.04c-0.13-0.03-0.18-0.03-0.18-0.03c-0.13-0.02-0.18-0.02-0.18-0.02
			c-0.13-0.01-0.18-0.01-0.18-0.01c-0.14,0-0.18,0-0.18,0c-0.14,0-0.18,0.01-0.18,0.01c-0.14,0.01-0.18,0.02-0.18,0.02
			c-0.14,0.02-0.18,0.03-0.18,0.03c-0.14,0.03-0.18,0.04-0.18,0.04c-0.14,0.03-0.18,0.05-0.18,0.05c-0.14,0.04-0.18,0.06-0.18,0.06
			c-0.14,0.05-0.18,0.07-0.18,0.07c-0.14,0.06-0.18,0.08-0.18,0.08c-0.14,0.07-0.18,0.09-0.18,0.09c-0.14,0.07-0.18,0.1-0.18,0.1
			c-0.14,0.08-0.18,0.11-0.18,0.11c-0.13,0.09-0.18,0.12-0.18,0.12c-0.13,0.1-0.18,0.13-0.18,0.13c-0.13,0.1-0.18,0.14-0.18,0.14
			c-0.13,0.11-0.17,0.15-0.17,0.15c-0.13,0.12-0.19,0.18-0.19,0.18c-0.12,0.12-0.18,0.19-0.18,0.19c-0.12,0.13-0.18,0.2-0.18,0.2
			c-1.23,1.45-1.93,3.01-2.45,4.79c-0.41,1.48-0.62,3.16-0.24,4.6c0.03,0.12,0.05,0.16,0.05,0.16c0.04,0.12,0.05,0.16,0.05,0.16
			c0.06,0.15,0.07,0.19,0.07,0.19c0.06,0.15,0.08,0.18,0.08,0.18c0.07,0.14,0.09,0.18,0.09,0.18c0.08,0.14,0.1,0.17,0.1,0.17
			c0.08,0.13,0.1,0.16,0.1,0.16c0.11,0.14,0.13,0.17,0.13,0.17c0.12,0.14,0.15,0.17,0.15,0.17c0.13,0.13,0.16,0.16,0.16,0.16
			c0.14,0.12,0.17,0.14,0.17,0.14c0.15,0.11,0.18,0.13,0.18,0.13c0.13,0.09,0.16,0.11,0.16,0.11c0.14,0.08,0.17,0.1,0.17,0.1
			c0.14,0.07,0.2,0.1,0.2,0.1c0.12,0.05,0.18,0.08,0.18,0.08c0.12,0.05,0.18,0.07,0.18,0.07c0.13,0.04,0.19,0.06,0.19,0.06
			c0.13,0.04,0.19,0.06,0.19,0.06c0.13,0.03,0.2,0.05,0.2,0.05c0.13,0.03,0.2,0.04,0.2,0.04c0.14,0.02,0.21,0.03,0.21,0.03
			c0.14,0.02,0.21,0.02,0.21,0.02c0.14,0.01,0.21,0.02,0.21,0.02c0.14,0.01,0.21,0.01,0.21,0.01c0.14,0,0.22,0,0.22,0
			c1.12-0.02,2.16-0.33,3.02-0.78c0.13-0.07,0.2-0.11,0.2-0.11c0.13-0.08,0.2-0.12,0.2-0.12c0.13-0.08,0.19-0.12,0.19-0.12
			c0.12-0.09,0.19-0.13,0.19-0.13c0.12-0.09,0.18-0.14,0.18-0.14c0.12-0.1,0.17-0.14,0.17-0.14c0.11-0.1,0.17-0.15,0.17-0.15
			c0.11-0.1,0.16-0.16,0.16-0.16c0.1-0.11,0.16-0.16,0.16-0.16c0.11-0.12,0.16-0.19,0.16-0.19c0.11-0.13,0.16-0.2,0.16-0.2
			c0.1-0.14,0.15-0.21,0.15-0.21c0.09-0.14,0.14-0.22,0.14-0.22c0.09-0.15,0.13-0.22,0.13-0.22c0.78-1.43,1-3.02,0.94-4.54
			c-0.05-1.34-0.42-2.88-1.04-4c-0.08-0.14-0.12-0.2-0.12-0.2c-0.08-0.13-0.12-0.19-0.12-0.19c-0.08-0.12-0.13-0.19-0.13-0.19
			C427.29,340.93,427.25,340.87,427.16,340.76z"/>
	</g>
	<g id="POLYLINE_124_">
		<path class="st2" d="M400.33,348.32c-0.08-0.14-0.1-0.19-0.1-0.19c-0.08-0.14-0.11-0.18-0.11-0.18c-0.09-0.13-0.12-0.18-0.12-0.18
			c-0.09-0.13-0.12-0.17-0.12-0.17c-0.1-0.13-0.13-0.17-0.13-0.17c-0.1-0.12-0.13-0.16-0.13-0.16c-0.14-0.15-0.18-0.19-0.18-0.19
			c-0.15-0.14-0.18-0.18-0.18-0.18c-0.15-0.14-0.19-0.17-0.19-0.17c-0.12-0.1-0.16-0.13-0.16-0.13c-0.12-0.09-0.16-0.12-0.16-0.12
			c-0.13-0.08-0.17-0.11-0.17-0.11c-0.13-0.08-0.17-0.1-0.17-0.1c-0.13-0.07-0.18-0.09-0.18-0.09c-0.13-0.06-0.18-0.08-0.18-0.08
			c-0.14-0.06-0.18-0.08-0.18-0.08c-0.14-0.05-0.18-0.07-0.18-0.07c-0.14-0.04-0.19-0.06-0.19-0.06c-0.14-0.04-0.19-0.05-0.19-0.05
			c-0.14-0.03-0.19-0.04-0.19-0.04c-0.14-0.02-0.19-0.03-0.19-0.03c-0.14-0.01-0.19-0.02-0.19-0.02c-0.15-0.01-0.19-0.01-0.19-0.01
			c-0.15,0-0.19,0-0.19,0c-0.15,0.01-0.19,0.02-0.19,0.02c-0.15,0.02-0.19,0.03-0.19,0.03c-0.15,0.03-0.19,0.04-0.19,0.04
			c-0.15,0.04-0.19,0.05-0.19,0.05c-0.14,0.05-0.19,0.06-0.19,0.06c-0.14,0.05-0.19,0.07-0.19,0.07c-0.14,0.06-0.19,0.09-0.19,0.09
			c-0.11,0.05-0.16,0.09-0.16,0.09c-0.12,0.07-0.17,0.1-0.17,0.1c-0.11,0.07-0.17,0.11-0.17,0.11c-0.11,0.08-0.17,0.12-0.17,0.12
			c-0.11,0.09-0.17,0.13-0.17,0.13c-0.11,0.09-0.16,0.14-0.16,0.14c-0.11,0.1-0.16,0.15-0.16,0.15c-1.4,1.39-2.23,3.24-2.45,5.04
			c-0.01,0.15-0.02,0.23-0.02,0.23c-0.01,0.15-0.01,0.22-0.01,0.22c0,0.15,0,0.22,0,0.22c0,0.15,0.01,0.22,0.01,0.22
			c0.01,0.14,0.01,0.21,0.01,0.21c0.02,0.14,0.02,0.21,0.02,0.21c0.02,0.14,0.03,0.2,0.03,0.2c0.03,0.13,0.04,0.17,0.04,0.17
			c0.03,0.13,0.04,0.16,0.04,0.16c0.04,0.13,0.05,0.16,0.05,0.16c0.04,0.12,0.06,0.16,0.06,0.16c0.06,0.15,0.08,0.18,0.08,0.18
			c0.07,0.14,0.08,0.17,0.08,0.17c0.09,0.15,0.1,0.17,0.1,0.17c0.1,0.14,0.11,0.17,0.11,0.17c0.11,0.14,0.12,0.16,0.12,0.16
			c0.14,0.15,0.18,0.19,0.18,0.19c0.13,0.12,0.17,0.16,0.17,0.16c0.13,0.11,0.18,0.15,0.18,0.15c0.14,0.11,0.19,0.14,0.19,0.14
			c0.15,0.1,0.2,0.13,0.2,0.13c0.1,0.06,0.16,0.09,0.16,0.09c0.11,0.06,0.16,0.08,0.16,0.08c0.11,0.05,0.17,0.08,0.17,0.08
			c0.11,0.05,0.17,0.07,0.17,0.07c0.12,0.05,0.17,0.07,0.17,0.07c0.12,0.04,0.18,0.06,0.18,0.06c1.17,0.37,2.38,0.36,3.43,0.06
			c0.12-0.04,0.18-0.06,0.18-0.06c0.12-0.04,0.18-0.06,0.18-0.06c0.12-0.04,0.18-0.07,0.18-0.07c0.12-0.05,0.17-0.07,0.17-0.07
			c0.11-0.05,0.17-0.08,0.17-0.08c0.11-0.06,0.16-0.09,0.16-0.09c0.11-0.06,0.16-0.09,0.16-0.09c0.15-0.1,0.21-0.13,0.21-0.13
			c0.15-0.11,0.2-0.15,0.2-0.15c0.14-0.12,0.19-0.16,0.19-0.16c0.14-0.13,0.18-0.17,0.18-0.17c0.13-0.13,0.17-0.18,0.17-0.18
			c0.12-0.14,0.16-0.19,0.16-0.19c0.11-0.15,0.15-0.2,0.15-0.2c0.11-0.15,0.14-0.21,0.14-0.21c0.07-0.11,0.1-0.16,0.1-0.16
			c0.06-0.11,0.09-0.16,0.09-0.16c0.92-1.76,0.93-3.89,0.17-5.58C400.36,348.37,400.33,348.32,400.33,348.32z"/>
	</g>
</g>
<g id="AG-ANIMALS">
	<g id="POLYLINE_150_">
		<path class="st61" d="M598.39,382.4c-2.16,2.79-3.83,5.95-5.03,9.26c-1.23,3.41-1.99,7.01-2.13,10.63
			c-0.22,5.15,0.95,10.99,4.9,14.55c2.74,2.49,6.25,3.4,9.8,3.87c4.89,0.61,9.91,0.3,14.79-0.25c5.36-0.53,16.26-2.82,21.67-3.83
			c4.96-0.98,9.94-2.31,14.58-4.34c5.95-2.62,11.49-6.21,16.51-10.33c2.22-1.86,4.41-3.88,6.28-6.1c1.26-1.51,2.56-3.3,3.1-5.14
			c0.04-0.15,0.05-0.19,0.05-0.19c0.03-0.14,0.04-0.19,0.04-0.19c0.03-0.14,0.03-0.18,0.03-0.18c0.02-0.14,0.02-0.18,0.02-0.18
			c0.01-0.13,0.02-0.18,0.02-0.18c0.01-0.13,0.01-0.17,0.01-0.17c0-0.13,0-0.17,0-0.17c-0.01-0.12-0.01-0.16-0.01-0.16
			c-0.01-0.12-0.02-0.16-0.02-0.16c-0.03-0.15-0.04-0.19-0.04-0.19c-0.04-0.15-0.05-0.18-0.05-0.18c-0.05-0.15-0.06-0.17-0.06-0.17
			c-0.07-0.15-0.08-0.17-0.08-0.17c-0.08-0.14-0.09-0.16-0.09-0.16c-0.09-0.13-0.11-0.16-0.11-0.16c-0.12-0.15-0.14-0.17-0.14-0.17
			c-0.14-0.14-0.16-0.16-0.16-0.16c-0.15-0.13-0.2-0.17-0.2-0.17c-0.14-0.11-0.19-0.14-0.19-0.14c-0.15-0.1-0.21-0.13-0.21-0.13
			c-0.11-0.06-0.16-0.1-0.16-0.1c-1.25-0.65-2.4-0.91-3.7-1.2c-1.46-0.29-2.97-0.44-4.46-0.35"/>
	</g>
	<g id="POLYLINE_149_">
		<path class="st61" d="M387.14,312.92c-0.53-0.15-1.35-0.4-1.89-0.57l-4.81-1.61c-1.76-0.56-6-1.83-7.66-2.46
			c-1.06-0.4-2.37-0.92-3.26-1.53c-0.11-0.08-0.16-0.12-0.16-0.12c-0.15-0.12-0.2-0.16-0.2-0.16c-0.15-0.14-0.17-0.16-0.17-0.16
			c-0.13-0.14-0.15-0.16-0.15-0.16c-0.11-0.14-0.12-0.16-0.12-0.16c-0.08-0.14-0.09-0.16-0.09-0.16c-0.06-0.15-0.07-0.16-0.07-0.16
			c-0.03-0.15-0.03-0.16-0.03-0.16c-0.01-0.15,0-0.17,0-0.17c0.02-0.15,0.02-0.17,0.02-0.17c0.05-0.15,0.05-0.17,0.05-0.17
			c0.07-0.15,0.08-0.17,0.08-0.17c0.09-0.14,0.11-0.17,0.11-0.17c0.11-0.14,0.13-0.17,0.13-0.17c0.13-0.14,0.16-0.17,0.16-0.17
			c0.15-0.15,0.18-0.17,0.18-0.17c0.13-0.12,0.2-0.18,0.2-0.18c1.34-1.08,2.94-1.83,4.44-2.64c8.28-4.2,18.15-8.81,25.72-14.13
			c7.97-5.54,15.07-12.46,20.68-20.4c1.43-2.04,2.8-4.25,3.96-6.46c1.14-2.08,2.56-5.31,4.09-7.08c0.15-0.15,0.19-0.2,0.19-0.2
			c0.15-0.14,0.2-0.19,0.2-0.19c0.15-0.13,0.2-0.17,0.2-0.17c0.15-0.11,0.18-0.13,0.18-0.13c0.15-0.1,0.18-0.11,0.18-0.11
			c0.15-0.09,0.18-0.1,0.18-0.1c0.13-0.06,0.16-0.07,0.16-0.07c0.13-0.05,0.16-0.06,0.16-0.06c0.13-0.04,0.16-0.05,0.16-0.05
			c0.13-0.03,0.16-0.03,0.16-0.03c0.13-0.02,0.16-0.02,0.16-0.02c0.13-0.01,0.16-0.01,0.16-0.01c0.14,0,0.16,0,0.16,0
			c0.14,0.01,0.17,0.01,0.17,0.01c0.14,0.02,0.17,0.02,0.17,0.02c0.14,0.03,0.17,0.04,0.17,0.04c0.14,0.04,0.17,0.05,0.17,0.05
			c0.14,0.05,0.2,0.07,0.2,0.07c0.12,0.04,0.18,0.07,0.18,0.07c0.12,0.05,0.18,0.08,0.18,0.08c0.12,0.06,0.18,0.09,0.18,0.09
			c0.12,0.06,0.18,0.1,0.18,0.1c1.72,1.04,2.84,2.38,4.07,3.82c1.59,1.91,3.16,4.12,4.58,6.17l10.78,16.02
			c3.98,5.68,8.18,11.44,13.59,15.85c3.39,2.84,7.81,5.41,11.62,7.68"/>
	</g>
	<g id="POLYLINE_148_">
		<path class="st61" d="M189.08,406.22c-2.85,0.53-5.7,1.26-8.33,2.51c-0.71,0.34-1.44,0.73-2.12,1.12
			c-8.7,5.03-27.42,17.64-36.03,23.3c-12.6,8.08-25.83,15.83-40.02,20.76c-2.42,0.82-4.94,1.57-7.45,2.04
			c-1.71,0.3-3.68,0.55-5.35,0.17c-0.15-0.04-0.23-0.06-0.23-0.06c-0.14-0.04-0.21-0.07-0.21-0.07c-0.14-0.05-0.17-0.06-0.17-0.06
			c-0.13-0.05-0.16-0.07-0.16-0.07c-0.15-0.07-0.18-0.09-0.18-0.09c-0.14-0.08-0.17-0.1-0.17-0.1c-0.13-0.09-0.16-0.11-0.16-0.11
			c-0.14-0.11-0.17-0.13-0.17-0.13c-0.15-0.15-0.17-0.17-0.17-0.17c-0.11-0.13-0.13-0.16-0.13-0.16c-0.09-0.14-0.11-0.17-0.11-0.17
			c-0.08-0.15-0.09-0.18-0.09-0.18c-0.05-0.14-0.06-0.16-0.06-0.16c-0.04-0.14-0.05-0.17-0.05-0.17c-0.03-0.15-0.03-0.18-0.03-0.18
			c-0.01-0.12-0.02-0.16-0.02-0.16c-0.01-0.13-0.01-0.16-0.01-0.16c0-0.13,0-0.16,0-0.16c0.01-0.13,0.01-0.17,0.01-0.17
			c0.02-0.14,0.02-0.17,0.02-0.17c0.02-0.11,0.03-0.18,0.03-0.18c0.03-0.15,0.05-0.22,0.05-0.22c0.04-0.15,0.06-0.23,0.06-0.23
			c0.41-1.29,1.06-2.36,1.74-3.5c2.25-3.56,4.95-7.2,6.89-10.94c3.01-5.7,5.81-12.82,9.1-18.36c5.15-8.87,13.66-18.53,20.12-26.56
			c1.48-1.88,3.05-3.87,4.29-5.91c1.04-1.69,1.92-3.67,2.04-5.55c0.15-2.36-0.65-4.37-1.68-6.36c-0.67-1.27-1.47-2.54-2.27-3.74
			c-1.82-2.8-9.96-13.65-12.05-16.53c-3.09-4.35-6.23-8.88-8.59-13.67c-1.29-2.63-2.31-5.45-3.13-8.25l-2.11-7.51
			c-1.46-5.29-4.93-12.96-7.05-18.1c-0.71-1.75-1.45-3.64-1.99-5.44c-0.33-1.09-0.66-2.39-0.7-3.49c0-0.15,0-0.23,0-0.23
			c0-0.15,0-0.22,0-0.22c0.01-0.14,0.01-0.21,0.01-0.21c0.01-0.13,0.02-0.2,0.02-0.2c0.02-0.13,0.03-0.19,0.03-0.19
			c0.03-0.15,0.04-0.18,0.04-0.18c0.04-0.14,0.05-0.17,0.05-0.17c0.04-0.13,0.05-0.16,0.05-0.16c0.06-0.15,0.07-0.17,0.07-0.17
			c0.07-0.14,0.08-0.16,0.08-0.16c0.1-0.15,0.11-0.17,0.11-0.17c0.12-0.15,0.14-0.16,0.14-0.16c0.14-0.13,0.16-0.14,0.16-0.14
			c0.14-0.09,0.16-0.1,0.16-0.1c0.15-0.07,0.17-0.08,0.17-0.08c0.14-0.05,0.16-0.06,0.16-0.06c0.14-0.04,0.17-0.04,0.17-0.04
			c0.13-0.02,0.16-0.03,0.16-0.03c0.14-0.01,0.17-0.01,0.17-0.01c0.15,0,0.18,0,0.18,0c0.13,0.01,0.16,0.01,0.16,0.01
			c0.13,0.01,0.16,0.02,0.16,0.02c0.14,0.02,0.2,0.03,0.2,0.03c0.14,0.03,0.21,0.04,0.21,0.04c0.15,0.04,0.22,0.06,0.22,0.06
			c1.74,0.52,3.24,1.46,4.77,2.39c1.45,0.81,18.71,12.88,20.57,14.13c7.82,5.51,16.01,11.48,23.19,17.78
			c5.66,4.89,13.1,12.65,18.63,17.73c1.58,1.43,3.28,2.88,4.99,4.15c1.96,1.44,4.08,2.72,6.26,3.8c2.65,1.33,6.03,2.58,8.81,3.63"/>
	</g>
	<g id="POLYLINE_140_">
		<path class="st61" d="M217.66,407.33c-1.35,0.51-2.56,1.44-3.47,2.4c-0.87,0.93-1.6,1.99-2,3.09c-0.04,0.11-0.05,0.16-0.05,0.16
			c-0.03,0.11-0.05,0.16-0.05,0.16c-0.03,0.1-0.04,0.16-0.04,0.16c-0.03,0.15-0.03,0.18-0.03,0.18c-0.02,0.15-0.02,0.17-0.02,0.17
			c-0.01,0.14-0.01,0.17-0.01,0.17c0,0.14,0,0.16,0,0.16c0.02,0.15,0.02,0.17,0.02,0.17c0.03,0.14,0.04,0.16,0.04,0.16
			c0.06,0.15,0.06,0.16,0.06,0.16c0.08,0.15,0.09,0.16,0.09,0.16c0.12,0.14,0.13,0.16,0.13,0.16c0.15,0.13,0.17,0.14,0.17,0.14
			c0.15,0.09,0.17,0.1,0.17,0.1c0.14,0.07,0.17,0.08,0.17,0.08c0.15,0.06,0.19,0.07,0.19,0.07c0.12,0.04,0.17,0.05,0.17,0.05
			c0.13,0.03,0.18,0.05,0.18,0.05c1.72,0.35,3.79,0.34,5.49,0.73c3.1,0.64,5.78,2.28,8.4,3.96c2.52,1.65,6.22,4.27,8.85,5.62
			c2.76,1.48,6.65,3.02,9.47,4.4c2.18,1.05,4.27,2.33,6.19,3.8c2.8,2.13,5.45,4.67,7.95,7.15c4.08,4.12,9.1,9.24,12.94,13.55
			c1.42,1.6,5.1,5.97,6.56,7.39c1.21,1.21,2.66,2.41,4.15,3.07c1.5,0.69,3.18,0.85,4.68,0.49c1.2-0.29,2.11-0.75,3.12-1.35
			c1.17-0.7,2.31-1.56,3.38-2.4l4.42-3.57c2.55-2.03,5.35-3.8,8.34-5.1c4.4-1.94,9.22-2.93,14.02-2.99"/>
	</g>
	<g id="POLYLINE_139_">
		<path class="st61" d="M450.19,467.04c24.27-0.27,48.71-3.83,72.5-8.47c28.69-5.66,57.32-13.78,84.61-24.32"/>
	</g>
	<g id="POLYLINE_138_">
		<path class="st61" d="M611.24,374.14c-3.57,6.57-4.92,14.35-3.7,21.73c0.38,2.24,1,4.47,1.98,6.52c0.87,1.84,2.18,3.71,3.79,4.87
			c2.21,1.64,4.87,1.83,7.47,1.7c2.84-0.14,6.47-0.83,9.32-0.93c3.23-0.14,6.6,0.61,9.82,0.68c1.96,0.05,3.95-0.22,5.82-0.78
			c4.95-1.51,9.45-4.29,13.6-7.34c5.99-4.5,11.48-9.98,14.98-16.66c0.79-1.53,1.49-3.14,1.97-4.8c0.37-1.26,0.63-2.68,0.51-3.91
			c-0.02-0.14-0.02-0.19-0.02-0.19c-0.02-0.14-0.03-0.19-0.03-0.19c-0.03-0.14-0.04-0.18-0.04-0.18c-0.03-0.13-0.04-0.18-0.04-0.18
			c-0.04-0.13-0.05-0.17-0.05-0.17c-0.05-0.14-0.06-0.18-0.06-0.18c-0.05-0.14-0.07-0.17-0.07-0.17c-0.06-0.14-0.08-0.17-0.08-0.17
			c-0.07-0.13-0.09-0.16-0.09-0.16c-0.07-0.13-0.09-0.16-0.09-0.16c-0.1-0.15-0.12-0.18-0.12-0.18c-0.11-0.15-0.14-0.18-0.14-0.18
			c-0.12-0.15-0.15-0.17-0.15-0.17c-0.13-0.14-0.19-0.2-0.19-0.2c-0.12-0.11-0.18-0.17-0.18-0.17c-0.12-0.11-0.19-0.16-0.19-0.16
			c-0.94-0.76-1.96-1.3-2.99-1.87c-13.89-7.29-49.54-26.6-63.22-32.95c-15.77-7.4-32.38-14.19-48.87-19.83
			c-17.53-5.97-35.77-10.79-54.14-13.27c-15.41-2.13-31.18-2.77-46.72-2.1c-15.61,0.64-31.58,2.71-46.97,5.41
			c-20.85,3.68-42.63,9.04-63.04,14.75c-22.36,6.23-51.41,16.02-73.66,22.76c-16.11,4.81-38.96,10.75-55.37,14.86
			c-2.49,0.6-5.79,1.39-8.27,1.85c-2.91,0.56-5.93,1-8.9,1.14c-3.27,0.17-6.58-0.07-9.79-0.74c-5.62-1.11-11.44-3.27-17.24-3.09
			c-3.51,0.1-6.95,1.27-9.89,3.18c-4.99,3.24-8.5,8.42-8.92,14.35c-0.23,3.28,0.4,6.58,1.42,9.68c1.36,4.07,3.43,7.92,6.03,11.33
			c1.89,2.45,4.12,4.78,6.8,6.32c1.74,1.01,3.69,1.65,5.68,1.95c1.46,0.23,2.97,0.29,4.44,0.29c7.69-0.09,16.6-0.89,24.27-0.47
			c8.38,0.4,16.71,2.07,24.72,4.56c7.48,2.32,14.88,5.51,21.94,8.9c0,0,30.26,15.14,30.26,15.14c13.22,6.39,27.09,12.2,41.21,16.24
			c14.45,4.16,29.81,6.66,44.7,8.72c16.58,2.02,39.2,5.06,55.68,6.47"/>
	</g>
	<g id="POLYLINE_137_">
		<path class="st61" d="M442.69,461.57c-1.69,0.03-3.4,0.26-5.05,0.63c-2.25,0.46-9.98,2.87-12.32,3.55
			c-4.57,1.43-10.3,3.12-14.69,4.93c-0.94,0.39-2.05,0.89-2.87,1.44c-0.13,0.09-0.2,0.14-0.2,0.14c-0.12,0.09-0.18,0.14-0.18,0.14
			c-0.12,0.1-0.17,0.15-0.17,0.15c-0.11,0.1-0.16,0.15-0.16,0.15c-0.1,0.1-0.15,0.16-0.15,0.16c-0.1,0.11-0.14,0.16-0.14,0.16
			c-0.09,0.11-0.14,0.17-0.14,0.17c-0.09,0.12-0.13,0.18-0.13,0.18c-0.08,0.12-0.12,0.18-0.12,0.18c-0.08,0.13-0.12,0.19-0.12,0.19
			c-0.07,0.13-0.11,0.2-0.11,0.2c-0.38,0.75-0.57,1.35-0.81,2.11c-0.78,2.61-1.86,7.54-2.52,10.25c-0.47,1.86-1.02,3.92-1.61,5.75
			c-0.53,1.7-1.71,4.76-2.34,6.46c-0.51,1.42-1.12,3-1.3,4.48c-0.01,0.14-0.02,0.2-0.02,0.2c-0.01,0.13-0.01,0.19-0.01,0.19
			c0,0.15,0,0.18,0,0.18c0.01,0.14,0.01,0.17,0.01,0.17c0.02,0.14,0.02,0.16,0.02,0.16c0.03,0.15,0.04,0.18,0.04,0.18
			c0.05,0.14,0.06,0.16,0.06,0.16c0.07,0.14,0.08,0.16,0.08,0.16c0.11,0.14,0.12,0.16,0.12,0.16c0.14,0.13,0.16,0.14,0.16,0.14
			c0.15,0.09,0.17,0.1,0.17,0.1c0.15,0.06,0.17,0.07,0.17,0.07c0.14,0.04,0.16,0.05,0.16,0.05c0.15,0.03,0.18,0.03,0.18,0.03
			c0.13,0.02,0.16,0.02,0.16,0.02c0.14,0.01,0.17,0.01,0.17,0.01c0.12,0,0.18,0,0.18,0c0.12,0,0.19-0.01,0.19-0.01
			c0.13-0.01,0.2-0.02,0.2-0.02c1-0.12,1.75-0.38,2.65-0.7c1.07-0.39,2.15-0.88,3.17-1.38c8.66-4.3,16.62-10.67,24.25-16.57
			c5.08-4.01,11-8.53,15.59-13.06c1.16-1.15,2.33-2.4,3.32-3.69c0.76-0.99,1.55-2.2,1.93-3.33c0.04-0.14,0.06-0.19,0.06-0.19
			c0.04-0.14,0.05-0.18,0.05-0.18c0.03-0.13,0.04-0.18,0.04-0.18c0.03-0.13,0.03-0.18,0.03-0.18c0.02-0.13,0.02-0.17,0.02-0.17
			c0.01-0.13,0.02-0.17,0.02-0.17c0.01-0.12,0.01-0.17,0.01-0.17c0-0.12,0-0.16,0-0.16c-0.01-0.12-0.01-0.16-0.01-0.16
			c-0.02-0.15-0.03-0.19-0.03-0.19c-0.03-0.15-0.04-0.19-0.04-0.19c-0.04-0.14-0.05-0.16-0.05-0.16c-0.05-0.14-0.06-0.16-0.06-0.16
			c-0.07-0.15-0.08-0.17-0.08-0.17c-0.09-0.15-0.1-0.16-0.1-0.16c-0.11-0.15-0.12-0.16-0.12-0.16c-0.14-0.15-0.15-0.17-0.15-0.17
			c-0.14-0.13-0.17-0.16-0.17-0.16c-0.15-0.12-0.19-0.15-0.19-0.15c-0.12-0.09-0.17-0.12-0.17-0.12c-0.13-0.08-0.18-0.11-0.18-0.11
			c-0.14-0.08-0.19-0.1-0.19-0.1c-0.15-0.07-0.2-0.1-0.2-0.1c-1.08-0.5-2.1-0.69-3.17-0.84
			C444.81,461.6,443.74,461.55,442.69,461.57z"/>
	</g>
	<g id="POLYLINE_136_">
		<path class="st61" d="M576.53,347.06c-1.63,1.95-3.85,4.19-5.25,6.3c-0.99,1.45-1.78,3.05-2.37,4.7
			c-0.84,2.34-1.34,4.82-1.72,7.27c-0.65,4.32-0.93,8.85-1.05,13.22c-0.16,6.62,0.06,13.37,0.64,19.96
			c0.39,4.09,0.87,8.3,1.86,12.29c0.42,1.64,0.98,3.3,1.86,4.74c0.98,1.63,2.36,2.78,3.93,3.55c1.8,0.88,3.75,1.36,5.68,1.82
			c4.6,1.04,9.94,1.91,14.07,4.26c2.62,1.48,5.14,3.86,7.4,5.84c1.58,1.35,3.42,2.82,5.48,3.2c1.43,0.27,2.73,0.1,4.08-0.24
			c1.54-0.39,3.02-1.04,4.46-1.71c4.87-2.36,11.47-5.86,16.58-7.47c3.92-1.31,9.25-2.64,12.78-4.76c2.62-1.53,4.88-3.65,6.97-5.84"
			/>
	</g>
	<g id="POLYLINE_135_">
		<path class="st61" d="M564.48,437.56c-2.5,1.43-5.25,2.48-8.01,3.3c-3.58,1.05-7.32,1.76-11.03,2.17c-2.1,0.23-4.51,0.3-6.51-0.2
			c-3.19-0.77-5.68-2.67-8.26-4.54c-2.83-2.12-6.67-5.02-9.62-6.88c-2.53-1.63-5.3-3.12-8-4.45c-2.46-1.2-10.89-5.08-13.12-6.37
			c-0.73-0.41-1.62-0.96-2.22-1.46c-0.12-0.1-0.16-0.13-0.16-0.13c-0.14-0.13-0.18-0.17-0.18-0.17c-0.12-0.13-0.15-0.16-0.15-0.16
			c-0.11-0.13-0.13-0.16-0.13-0.16c-0.11-0.15-0.13-0.19-0.13-0.19c-0.08-0.15-0.09-0.18-0.09-0.18c-0.05-0.15-0.06-0.16-0.06-0.16
			c-0.03-0.15-0.03-0.16-0.03-0.16c0-0.15,0-0.16,0-0.16c0.03-0.15,0.03-0.16,0.03-0.16c0.06-0.15,0.07-0.16,0.07-0.16
			c0.09-0.14,0.1-0.16,0.1-0.16c0.13-0.15,0.15-0.17,0.15-0.17c0.14-0.13,0.16-0.15,0.16-0.15c0.15-0.11,0.17-0.13,0.17-0.13
			c0.14-0.09,0.19-0.12,0.19-0.12c0.1-0.06,0.16-0.09,0.16-0.09c0.98-0.5,1.82-0.69,2.82-0.91c1.23-0.25,2.53-0.41,3.78-0.52
			c7.96-0.6,16.5-0.02,24.48,0.43c14.77,1,29.8,2.75,44.19,6.27"/>
	</g>
</g>
<g id="AG-OUTLINE">
	<g id="POLYLINE_650_">
		<path class="st62" d="M189.08,406.22c-2.85,0.53-5.7,1.26-8.33,2.51c-0.71,0.34-1.44,0.73-2.12,1.12
			c-8.7,5.03-27.42,17.64-36.03,23.3c-12.6,8.08-25.83,15.83-40.02,20.76c-2.42,0.82-4.94,1.57-7.45,2.04
			c-1.71,0.3-3.68,0.55-5.35,0.17c-0.15-0.04-0.23-0.06-0.23-0.06c-0.14-0.04-0.21-0.07-0.21-0.07c-0.14-0.05-0.17-0.06-0.17-0.06
			c-0.13-0.05-0.16-0.07-0.16-0.07c-0.15-0.07-0.18-0.09-0.18-0.09c-0.14-0.08-0.17-0.1-0.17-0.1c-0.13-0.09-0.16-0.11-0.16-0.11
			c-0.14-0.11-0.17-0.13-0.17-0.13c-0.15-0.15-0.17-0.17-0.17-0.17c-0.11-0.13-0.13-0.16-0.13-0.16c-0.09-0.14-0.11-0.17-0.11-0.17
			c-0.08-0.15-0.09-0.18-0.09-0.18c-0.05-0.14-0.06-0.16-0.06-0.16c-0.04-0.14-0.05-0.17-0.05-0.17c-0.03-0.15-0.03-0.18-0.03-0.18
			c-0.01-0.12-0.02-0.16-0.02-0.16c-0.01-0.13-0.01-0.16-0.01-0.16c0-0.13,0-0.16,0-0.16c0.01-0.13,0.01-0.17,0.01-0.17
			c0.02-0.14,0.02-0.17,0.02-0.17c0.02-0.11,0.03-0.18,0.03-0.18c0.03-0.15,0.05-0.22,0.05-0.22c0.04-0.15,0.06-0.23,0.06-0.23
			c0.41-1.29,1.06-2.36,1.74-3.5c2.25-3.56,4.95-7.2,6.89-10.94c3.01-5.7,5.81-12.82,9.1-18.36c5.15-8.87,13.66-18.53,20.12-26.56
			c1.48-1.88,3.05-3.87,4.29-5.91c1.04-1.69,1.92-3.67,2.04-5.55c0.15-2.36-0.65-4.37-1.68-6.36c-0.67-1.27-1.47-2.54-2.27-3.74
			c-1.82-2.8-9.96-13.65-12.05-16.53c-3.09-4.35-6.23-8.88-8.59-13.67c-1.29-2.63-2.31-5.45-3.13-8.25l-2.11-7.51
			c-1.46-5.29-4.93-12.96-7.05-18.1c-0.71-1.75-1.45-3.64-1.99-5.44c-0.33-1.09-0.66-2.39-0.7-3.49c0-0.15,0-0.23,0-0.23
			c0-0.15,0-0.22,0-0.22c0.01-0.14,0.01-0.21,0.01-0.21c0.01-0.13,0.02-0.2,0.02-0.2c0.02-0.13,0.03-0.19,0.03-0.19
			c0.03-0.15,0.04-0.18,0.04-0.18c0.04-0.14,0.05-0.17,0.05-0.17c0.04-0.13,0.05-0.16,0.05-0.16c0.06-0.15,0.07-0.17,0.07-0.17
			c0.07-0.14,0.08-0.16,0.08-0.16c0.1-0.15,0.11-0.17,0.11-0.17c0.12-0.15,0.14-0.16,0.14-0.16c0.14-0.13,0.16-0.14,0.16-0.14
			c0.14-0.09,0.16-0.1,0.16-0.1c0.15-0.07,0.17-0.08,0.17-0.08c0.14-0.05,0.16-0.06,0.16-0.06c0.14-0.04,0.17-0.04,0.17-0.04
			c0.13-0.02,0.16-0.03,0.16-0.03c0.14-0.01,0.17-0.01,0.17-0.01c0.15,0,0.18,0,0.18,0c0.13,0.01,0.16,0.01,0.16,0.01
			c0.13,0.01,0.16,0.02,0.16,0.02c0.14,0.02,0.2,0.03,0.2,0.03c0.14,0.03,0.21,0.04,0.21,0.04c0.15,0.04,0.22,0.06,0.22,0.06
			c1.74,0.52,3.24,1.46,4.77,2.39c1.45,0.81,18.71,12.88,20.57,14.13c7.82,5.51,16.01,11.48,23.19,17.78
			c5.66,4.89,13.1,12.65,18.63,17.73c1.58,1.43,3.28,2.88,4.99,4.15c1.96,1.44,4.08,2.72,6.26,3.8c2.65,1.33,6.03,2.58,8.81,3.63
			c3.47,0.66,8.45,2.12,11.92,2.71c1.75,0.31,3.56,0.5,5.34,0.55c2.6,0.08,5.26-0.12,7.84-0.47c2.28-0.31,4.73-0.78,6.99-1.26
			c18.68-4.42,42.58-10.77,60.96-16.17c17.52-5.3,44.73-14.26,62.27-19.47c15.5-4.56,33.46-9.38,49.2-12.93
			c-0.53-0.15-1.35-0.4-1.89-0.57l-4.81-1.61c-1.76-0.56-6-1.83-7.66-2.46c-1.06-0.4-2.37-0.92-3.26-1.53
			c-0.11-0.08-0.16-0.12-0.16-0.12c-0.15-0.12-0.2-0.16-0.2-0.16c-0.15-0.14-0.17-0.16-0.17-0.16c-0.13-0.14-0.15-0.16-0.15-0.16
			c-0.11-0.14-0.12-0.16-0.12-0.16c-0.08-0.14-0.09-0.16-0.09-0.16c-0.06-0.15-0.07-0.16-0.07-0.16c-0.03-0.15-0.03-0.16-0.03-0.16
			c-0.01-0.15,0-0.17,0-0.17c0.02-0.15,0.02-0.17,0.02-0.17c0.05-0.15,0.05-0.17,0.05-0.17c0.07-0.15,0.08-0.17,0.08-0.17
			c0.09-0.14,0.11-0.17,0.11-0.17c0.11-0.14,0.13-0.17,0.13-0.17c0.13-0.14,0.16-0.17,0.16-0.17c0.15-0.15,0.18-0.17,0.18-0.17
			c0.13-0.12,0.2-0.18,0.2-0.18c1.34-1.08,2.94-1.83,4.44-2.64c8.28-4.2,18.15-8.81,25.72-14.13c7.97-5.54,15.07-12.46,20.68-20.4
			c1.43-2.04,2.8-4.25,3.96-6.46c1.14-2.08,2.56-5.31,4.09-7.08c0.15-0.15,0.19-0.2,0.19-0.2c0.15-0.14,0.2-0.19,0.2-0.19
			c0.15-0.13,0.2-0.17,0.2-0.17c0.15-0.11,0.18-0.13,0.18-0.13c0.15-0.1,0.18-0.11,0.18-0.11c0.15-0.09,0.18-0.1,0.18-0.1
			c0.13-0.06,0.16-0.07,0.16-0.07c0.13-0.05,0.16-0.06,0.16-0.06c0.13-0.04,0.16-0.05,0.16-0.05c0.13-0.03,0.16-0.03,0.16-0.03
			c0.13-0.02,0.16-0.02,0.16-0.02c0.13-0.01,0.16-0.01,0.16-0.01c0.14,0,0.16,0,0.16,0c0.14,0.01,0.17,0.01,0.17,0.01
			c0.14,0.02,0.17,0.02,0.17,0.02c0.14,0.03,0.17,0.04,0.17,0.04c0.14,0.04,0.17,0.05,0.17,0.05c0.14,0.05,0.2,0.07,0.2,0.07
			c0.12,0.04,0.18,0.07,0.18,0.07c0.12,0.05,0.18,0.08,0.18,0.08c0.12,0.06,0.18,0.09,0.18,0.09c0.12,0.06,0.18,0.1,0.18,0.1
			c1.72,1.04,2.84,2.38,4.07,3.82c1.59,1.91,3.16,4.12,4.58,6.17l10.78,16.02c3.98,5.68,8.18,11.44,13.59,15.85
			c3.39,2.84,7.81,5.41,11.62,7.68c17.41,0.36,34.98,2.55,51.94,6.48c26.19,6.15,51.76,15.89,76.22,27.01
			c14.52,6.41,50.32,25.97,64.85,33.52c1.34,0.75,4.22,2.16,5.45,3.2c0.13,0.11,0.19,0.16,0.19,0.16c0.12,0.11,0.18,0.17,0.18,0.17
			c0.11,0.11,0.16,0.17,0.16,0.17c0.13,0.14,0.15,0.17,0.15,0.17c0.12,0.15,0.14,0.18,0.14,0.18c0.11,0.15,0.13,0.18,0.13,0.18
			c0.08,0.13,0.1,0.16,0.1,0.16c0.07,0.13,0.09,0.16,0.09,0.16c0.06,0.13,0.08,0.17,0.08,0.17c0.06,0.14,0.07,0.17,0.07,0.17
			c0.05,0.14,0.06,0.18,0.06,0.18c0.04,0.12,0.05,0.16,0.05,0.16c0.03,0.13,0.04,0.18,0.04,0.18c0.03,0.14,0.04,0.18,0.04,0.18
			c0.02,0.14,0.03,0.19,0.03,0.19c0.21,1.77-0.22,3.32-0.73,4.93c-0.67,2-1.62,3.94-2.69,5.75c1.49-0.09,3,0.06,4.46,0.35
			c1.22,0.25,2.67,0.64,3.7,1.2c0.11,0.06,0.16,0.1,0.16,0.1c0.11,0.07,0.16,0.1,0.16,0.1c0.15,0.1,0.2,0.14,0.2,0.14
			c0.14,0.11,0.16,0.13,0.16,0.13c0.15,0.14,0.17,0.16,0.17,0.16c0.13,0.14,0.15,0.16,0.15,0.16c0.12,0.15,0.13,0.17,0.13,0.17
			c0.09,0.14,0.1,0.16,0.1,0.16c0.08,0.14,0.09,0.17,0.09,0.17c0.06,0.15,0.07,0.18,0.07,0.18c0.05,0.14,0.05,0.18,0.05,0.18
			c0.03,0.15,0.04,0.19,0.04,0.19c0.02,0.15,0.03,0.19,0.03,0.19c0.01,0.12,0.01,0.16,0.01,0.16c0,0.12,0,0.17,0,0.17
			c0,0.13-0.01,0.17-0.01,0.17c-0.01,0.13-0.01,0.17-0.01,0.17c-0.02,0.13-0.02,0.18-0.02,0.18c-0.02,0.14-0.03,0.18-0.03,0.18
			c-0.03,0.14-0.04,0.19-0.04,0.19c-0.21,0.89-0.62,1.7-1.01,2.39c-0.53,0.91-1.08,1.67-1.72,2.48c-1.6,1.98-3.47,3.8-5.38,5.48
			c-6.71,5.78-14.42,10.62-22.87,13.38c-2.09,2.18-4.35,4.3-6.97,5.84c-3.52,2.12-8.88,3.46-12.78,4.76
			c-5.06,1.6-11.62,5.07-16.44,7.41c-2.24,1.05-4.85,2.15-7.29,2.14c-0.19,0-0.38-0.01-0.43-0.01c-0.14-0.01-0.22-0.02-0.22-0.02
			c-0.21-0.01-0.37-0.05-0.43-0.05c-4.29,1.57-12.61,4.65-16.89,6.12c-9.67,3.34-20.01,6.54-29.87,9.25
			c-19.24,5.26-39.33,9.57-59.03,12.69c-16.87,2.62-34.32,4.57-51.4,4.71c-0.58,1.18-1.23,2.04-1.96,2.97
			c-0.9,1.11-1.94,2.21-2.95,3.22c-4.58,4.52-10.51,9.05-15.59,13.06c-7.51,5.81-15.34,12.07-23.83,16.36
			c-1.78,0.87-3.66,1.76-5.61,2.19c-0.29,0.06-0.49,0.09-0.64,0.1c-0.13,0.01-0.2,0.02-0.2,0.02c-0.13,0.01-0.19,0.01-0.19,0.01
			c-0.12,0-0.18,0-0.18,0c-0.14-0.01-0.17-0.01-0.17-0.01c-0.14-0.01-0.16-0.02-0.16-0.02c-0.15-0.03-0.18-0.03-0.18-0.03
			c-0.14-0.04-0.16-0.05-0.16-0.05c-0.15-0.06-0.17-0.07-0.17-0.07c-0.15-0.09-0.17-0.1-0.17-0.1c-0.14-0.12-0.16-0.14-0.16-0.14
			c-0.11-0.14-0.12-0.16-0.12-0.16c-0.07-0.14-0.08-0.16-0.08-0.16c-0.05-0.14-0.06-0.16-0.06-0.16c-0.04-0.15-0.04-0.18-0.04-0.18
			c-0.02-0.13-0.02-0.16-0.02-0.16c-0.01-0.14-0.01-0.17-0.01-0.17c0-0.15,0-0.18,0-0.18c0-0.13,0.01-0.19,0.01-0.19
			c0.01-0.13,0.02-0.2,0.02-0.2c0.11-0.9,0.32-1.58,0.58-2.41c0.94-2.84,2.4-6.31,3.26-9.17c1.39-4.4,2.49-10.06,3.69-14.52
			c0.23-0.81,0.48-1.66,0.81-2.43c0.1-0.23,0.17-0.37,0.21-0.45c0.07-0.14,0.11-0.21,0.11-0.21c0.08-0.13,0.11-0.2,0.11-0.2
			c0.08-0.13,0.12-0.19,0.12-0.19c0.08-0.12,0.13-0.18,0.13-0.18c0.09-0.11,0.13-0.17,0.13-0.17c0.09-0.11,0.14-0.16,0.14-0.16
			c0.1-0.11,0.15-0.16,0.15-0.16c0.1-0.1,0.16-0.15,0.16-0.15c0.11-0.1,0.17-0.15,0.17-0.15c0.12-0.1,0.18-0.14,0.18-0.14
			c0.13-0.09,0.19-0.14,0.19-0.14c0.96-0.65,1.84-1.01,2.86-1.46c4.35-1.78,9.4-3.3,13.91-4.7c-14.64-1.25-40.99-4.61-55.68-6.47
			c-15.84-2.18-32.12-4.86-47.43-9.52c-4.81,0.06-9.62,1.05-14.02,2.99c-2.99,1.31-5.79,3.07-8.34,5.1c0,0-4.42,3.57-4.42,3.57
			c-1.95,1.5-4.09,3.17-6.51,3.76c-1.61,0.39-3.27,0.15-4.68-0.49c-1.67-0.77-2.91-1.85-4.15-3.07c-1.46-1.41-5.17-5.82-6.56-7.39
			c-3.82-4.3-8.86-9.43-12.94-13.55c-2.5-2.48-5.14-5.02-7.95-7.15c-1.92-1.47-4.01-2.75-6.19-3.8c-2.82-1.38-6.71-2.92-9.47-4.4
			c-2.62-1.35-6.36-3.99-8.85-5.62c-2.5-1.6-5.18-3.23-8.09-3.89c-1.81-0.45-3.94-0.43-5.75-0.78c-0.13-0.03-0.18-0.04-0.18-0.04
			c-0.13-0.04-0.17-0.05-0.17-0.05c-0.12-0.04-0.16-0.05-0.16-0.05c-0.15-0.06-0.16-0.07-0.16-0.07c-0.15-0.08-0.16-0.09-0.16-0.09
			c-0.14-0.1-0.16-0.11-0.16-0.11c-0.15-0.14-0.16-0.15-0.16-0.15c-0.11-0.15-0.12-0.16-0.12-0.16c-0.08-0.15-0.08-0.17-0.08-0.17
			c-0.04-0.14-0.05-0.16-0.05-0.16c-0.03-0.15-0.03-0.17-0.03-0.17c-0.01-0.16-0.01-0.18-0.01-0.18c0-0.14,0-0.16,0-0.16
			c0.01-0.14,0.02-0.17,0.02-0.17c0.02-0.15,0.03-0.2,0.03-0.2c0.03-0.15,0.05-0.21,0.05-0.21c0.03-0.11,0.05-0.16,0.05-0.16
			c0.03-0.11,0.05-0.16,0.05-0.16c0.45-1.22,1.19-2.22,2-3.09c1.04-1.09,2.17-1.9,3.47-2.4c-4.1-0.74-8.36-1.22-12.52-1.39
			C200.21,405.72,194.05,406,189.08,406.22z"/>
	</g>
</g>
</svg>
