<?xml version="1.0" encoding="utf-8"?>
<!-- Generator: Adobe Illustrator 24.2.3, SVG Export Plug-In . SVG Version: 6.00 Build 0)  -->
<!DOCTYPE svg PUBLIC "-//W3C//DTD SVG 1.1//EN" "http://www.w3.org/Graphics/SVG/1.1/DTD/svg11.dtd" [
	<!ENTITY ns_extend "http://ns.adobe.com/Extensibility/1.0/">
	<!ENTITY ns_ai "http://ns.adobe.com/AdobeIllustrator/10.0/">
	<!ENTITY ns_graphs "http://ns.adobe.com/Graphs/1.0/">
	<!ENTITY ns_vars "http://ns.adobe.com/Variables/1.0/">
	<!ENTITY ns_imrep "http://ns.adobe.com/ImageReplacement/1.0/">
	<!ENTITY ns_sfw "http://ns.adobe.com/SaveForWeb/1.0/">
	<!ENTITY ns_custom "http://ns.adobe.com/GenericCustomNamespace/1.0/">
	<!ENTITY ns_adobe_xpath "http://ns.adobe.com/XPath/1.0/">
]>
<svg version="1.1" xmlns:x="&ns_extend;" xmlns:i="&ns_ai;" xmlns:graph="&ns_graphs;"
	 xmlns="http://www.w3.org/2000/svg" xmlns:xlink="http://www.w3.org/1999/xlink" x="0px" y="0px" width="750px" height="750px"
	 viewBox="0 0 750 750" style="enable-background:new 0 0 750 750;" xml:space="preserve">
<style type="text/css">
	.st0{fill:#FFFFFF;}
	.st1{fill:#FB8604;}
	.st2{fill:none;stroke:#FB8604;stroke-width:2.5;stroke-linecap:round;stroke-linejoin:round;}
	.st3{fill:none;stroke:#FB8604;stroke-width:2.5;stroke-linecap:round;stroke-linejoin:round;stroke-dasharray:2.71,4.5167;}
	.st4{fill:none;stroke:#FB8604;stroke-width:3.25;stroke-linecap:round;stroke-linejoin:round;}
	.st5{fill:none;stroke:#FB8604;stroke-width:3.25;stroke-linecap:round;stroke-linejoin:round;stroke-dasharray:3.994,6.9895;}
	.st6{fill:none;stroke:#FB8604;stroke-width:3.25;stroke-linecap:round;stroke-linejoin:round;stroke-dasharray:3.9916,6.9853;}
	.st7{fill:none;stroke:#FB8604;stroke-width:3.25;stroke-linecap:round;stroke-linejoin:round;stroke-dasharray:3.9958,6.9926;}
	.st8{fill:none;stroke:#FB8604;stroke-width:3.25;stroke-linecap:round;stroke-linejoin:round;stroke-dasharray:3.9832,6.9706;}
	.st9{fill:none;stroke:#FB8604;stroke-width:3.25;stroke-linecap:round;stroke-linejoin:round;stroke-dasharray:5.0508,8.8389;}
	.st10{fill:none;stroke:#FB8604;stroke-width:3.25;stroke-linecap:round;stroke-linejoin:round;stroke-dasharray:4.2171,7.3799;}
	.st11{fill:none;stroke:#FB8604;stroke-width:3.25;stroke-linecap:round;stroke-linejoin:round;stroke-dasharray:2.0366,3.5641;}
	.st12{fill:none;stroke:#FB8604;stroke-width:3.25;stroke-linecap:round;stroke-linejoin:round;stroke-dasharray:3.44,6.02;}
	.st13{fill:none;stroke:#FB8604;stroke-width:3.25;stroke-linecap:round;stroke-linejoin:round;stroke-dasharray:4.0593,7.1037;}
	.st14{fill:none;stroke:#FB8604;stroke-width:3.25;stroke-linecap:round;stroke-linejoin:round;stroke-dasharray:3.6692,6.4212;}
	.st15{fill:none;stroke:#FB8604;stroke-width:3.25;stroke-linecap:round;stroke-linejoin:round;stroke-dasharray:4.1106,7.1935;}
	.st16{fill:none;stroke:#FB8604;stroke-width:3.25;stroke-linecap:round;stroke-linejoin:round;stroke-dasharray:4.0483,7.0846;}
	.st17{fill:none;stroke:#FB8604;stroke-width:3.25;stroke-linecap:round;stroke-linejoin:round;stroke-dasharray:4.0408,7.0715;}
	.st18{fill:none;stroke:#FB8604;stroke-width:3.25;stroke-linecap:round;stroke-linejoin:round;stroke-dasharray:3.9312,6.8795;}
	.st19{fill:none;stroke:#FB8604;stroke-width:3.25;stroke-linecap:round;stroke-linejoin:round;stroke-dasharray:4.0993,7.1737;}
	.st20{fill:none;stroke:#FB8604;stroke-width:3.25;stroke-linecap:round;stroke-linejoin:round;stroke-dasharray:4.1339,7.2344;}
	.st21{fill:none;stroke:#FB8604;stroke-width:2;stroke-linecap:round;stroke-linejoin:round;stroke-miterlimit:10;}
	.st22{fill:none;stroke:#FB8604;stroke-width:2.75;stroke-linecap:round;stroke-linejoin:round;stroke-miterlimit:10;}
	.st23{fill:none;stroke:#FB8604;stroke-width:3.5;stroke-linecap:round;stroke-linejoin:round;stroke-miterlimit:10;}
</style>
<metadata>
	<sfw  xmlns="&ns_sfw;">
		<slices></slices>
		<sliceSourceBounds  bottomLeftOrigin="true" height="2641.04" width="4107" x="-2000" y="-11.04"></sliceSourceBounds>
	</sfw>
</metadata>
<g id="FILL-BACKGROUND">
	<rect class="st0" width="750" height="750"/>
</g>
<g id="AG-GUIDES">
</g>
<g id="N-TEXT">
</g>
<g id="N-DIMENSIONS">
</g>
<g id="AG-DIAGRAM">
	<g id="POLYLINE_23_">
		<g>
			<g>
				<line class="st4" x1="125.36" y1="589.28" x2="127.36" y2="589.28"/>
				<line class="st5" x1="134.35" y1="589.28" x2="493.31" y2="589.28"/>
				<line class="st4" x1="496.81" y1="589.28" x2="498.81" y2="589.28"/>
			</g>
		</g>
	</g>
</g>
<g id="AG-DETAIL-DIAGRAM">
</g>
<g id="AG-DETAILS">
	<g id="POLYLINE_121_">
		<path class="st21" d="M431.67,546.35c2.51,1.21,5.26,2,8.06,2.08c3.36,0.09,6.71-0.83,9.69-2.36"/>
	</g>
	<g id="POLYLINE_116_">
		<path class="st21" d="M387.7,530.11c1.3,0.98,2.77,1.73,4.28,2.31c1.6,0.61,3.29,1.06,5,1.25c0.95,0.1,1.92,0.09,2.87-0.06
			c1.06-0.17,2.11-0.53,3.12-0.9"/>
	</g>
	<g id="POLYLINE_115_">
		<path class="st21" d="M204.4,535.34c3.47-0.32,6.91-1.33,9.99-2.96c1.84-0.98,3.51-2.28,5.02-3.72"/>
	</g>
	<g id="POLYLINE_114_">
		<path class="st21" d="M141,529.56c1.66-0.44,3.39-0.66,5.11-0.74c1.82-0.09,3.64,0.07,5.41,0.5"/>
	</g>
</g>
<g id="AG-ANIMALS">
	<g id="POLYLINE_21_">
		<path class="st22" d="M446.81,572.68c1.72-1,3.56-1.85,5.48-2.42c3.06-0.9,6.28-1.29,9.47-1.14"/>
	</g>
	<g id="POLYLINE_20_">
		<path class="st22" d="M387.42,573.44c3.33-1.18,6.82-1.98,10.3-2.48c3.14-0.46,6.38-0.77,9.56-0.78"/>
	</g>
	<g id="POLYLINE_19_">
		<path class="st22" d="M406.25,407.69c-1.57,19.61-2.9,41.05-6.56,60.33c-0.72,3.63-1.49,7.36-2.71,10.85
			c-0.65,1.72-1.22,3.49-1.46,5.32c-0.15,1.15-0.17,2.34,0.08,3.48c0.06,0.27,0.14,0.53,0.23,0.78c0.13,0.35,0.28,0.71,0.38,1.08
			c0.5,1.62,0.63,3.35,0.57,5.04c-0.09,2.29-0.57,4.61-1.04,6.85c-1.16,5.35-2.76,11.34-4.27,16.6c-1.55,5.38-3.78,12.19-5.61,17.5
			c-0.85,2.47-1.73,5.15-2.36,7.69c-0.35,1.45-0.68,2.96-0.71,4.46c0,0.37,0.02,0.75,0.11,1.11c0.06,0.22,0.14,0.44,0.28,0.62
			l0.01,0.01c0.01,0.01,0.02,0.03,0.02,0.03c1.04,1.11,2.23,2.27,3.33,3.3c0.24,0.26,0.43,0.55,0.61,0.86c0.56,1,0.92,2.1,1.25,3.19
			c0.42,1.48,0.81,3.04,1.07,4.56c0.45,2.8,0.27,5.71-0.63,8.4c-0.19,0.58-0.42,1.17-0.67,1.72c-0.28,0.59-0.55,1.2-0.74,1.83
			c-0.35,1.14-0.45,2.38-0.16,3.54c0.27,1.11,0.89,2.1,1.68,2.92c0.27,0.29,0.58,0.56,0.89,0.81c1.67,1.27,3.77,2.92,5.37,4.25
			c0.72,0.59,1.67,1.42,2.37,2.04c0.19,0.17,0.39,0.33,0.6,0.47c0.7,0.49,1.5,0.86,2.31,1.13c1.25,0.42,2.57,0.63,3.89,0.74
			c1.49,0.16,10.45,0.06,12.12,0.09c0.92,0,1.89-0.15,2.65-0.69c0.62-0.42,1.03-1.09,1.22-1.81c0.11-0.39,0.17-0.87,0.22-1.28
			c0.1-0.77,0.16-1.56,0.1-2.34c-0.04-0.47-0.12-0.95-0.31-1.39c-0.21-0.46-0.56-0.86-0.94-1.19c-0.73-0.64-1.55-1-2.39-1.44
			c-1.35-0.73-2.64-1.64-3.87-2.55c-0.82-0.62-1.74-1.31-2.49-2c-1.11-1.01-2.13-2.16-2.91-3.46c-0.26-0.43-0.5-0.88-0.7-1.34
			c-0.67-1.57-2.64-5.72-3.11-7.29c-0.62-1.93-1.25-3.98-1.63-5.97c-0.39-2.1-0.54-4.29-0.59-6.43c-0.07-4.2,0.25-8.6,0.66-12.78
			c0.71-7.09,1.99-14.33,3.67-21.26c1.09-4.61,2.45-9.29,4.53-13.56c0.54-1.11,1.15-2.25,1.8-3.3c0.54-0.86,1.14-1.77,1.63-2.67
			c1.25-2.26,2.23-4.7,2.92-7.19c0.34-1.22,0.63-2.51,0.86-3.76c0.15-0.86,0.29-1.81,0.48-2.67c0.41-1.86,0.96-3.8,1.49-5.62
			c3-10.08,7.8-22.91,11.43-32.85"/>
	</g>
	<g id="POLYLINE_18_">
		<path class="st22" d="M224.13,577.26c5.73-2.54,11.94-4.05,18.21-4.26"/>
	</g>
	<g id="POLYLINE_17_">
		<path class="st22" d="M142.78,578.64c5.44-2.17,11.33-4.18,16.93-5.9"/>
	</g>
	<g id="POLYLINE_16_">
		<path class="st22" d="M548.47,178.08c-2.17,1.21-6.89,4.04-9.06,5.26c-3.01,1.72-12.82,6.82-16.03,8.52
			c-3.86,2.07-7.78,4.38-11.38,6.86c-17.41,12.47-56.02,41.64-73.21,53.49c-1.03,0.68-2.1,1.34-3.21,1.87
			c-1.26,0.61-2.61,1.05-3.97,1.37c-3.93,0.9-11.33,1.6-15.36,2.25c-3.16,0.49-6.45,1.1-9.54,1.92c-4.43,1.16-8.92,2.78-13.17,4.48
			c-6.91,2.75-16.51,7.3-23.48,9.87c-4.31,1.6-8.81,2.96-13.32,3.87c-7.92,1.61-16.09,2-24.15,1.81
			c-11.69-0.3-23.55-1.97-34.99-4.38c-13.07-2.77-31.73-7.59-44.86-8.77c-5.27-0.51-10.65-0.54-15.92,0.04
			c-3.65,0.39-7.39,1.06-10.97,1.87c-5.01,1.08-25.15,6.8-30.43,8.21c-8.34,2.43-16.93,5.48-23.34,11.56
			c-2.94,2.8-5.36,6.14-7.43,9.62c-2.33,3.92-4.35,8.26-6.19,12.44c-0.68,1.58-4.47,10.38-5.12,11.79
			c-0.72,1.62-5.51,11.72-6.36,13.51c-7.67,16.58-8.6,26.05-7.13,44.06l1.67,18.15c0.44,5.57,0.77,11.36,0.53,16.93
			c-0.15,3.67-0.59,7.5-1.15,11.13c-1.43,9.74-4.49,20.74-3.9,30.63c0.64,11.52,6.78,22.06,9.92,32.97
			c0.53,1.88,0.98,3.84,1.23,5.78c0.28,2.09,0.35,4.25,0.32,6.35c-0.06,4.18-0.47,8.84-0.28,13.02c0.13,3.19,0.6,6.4,1.47,9.48
			c0.92,3.31,2.32,6.51,3.93,9.54c2.11,3.99,4.66,7.9,7.28,11.57c4.17,5.72,8.72,11.35,13.85,16.24c0.68,0.62,1.43,1.3,2.17,1.86
			c0.42,0.31,0.86,0.63,1.33,0.85c0,0,0.05,0.02,0.05,0.02l0.05,0.02c0,0,0.05,0.02,0.05,0.02l0.05,0.02c0,0,0.05,0.02,0.05,0.02
			s0.05,0.02,0.05,0.02l0.05,0.01c0,0,0.04,0.01,0.04,0.01l0.04,0.01l0.04,0.01l0.04,0.01l0.04,0l0.04,0l0.04,0c0,0,0.03,0,0.03,0
			s0.03,0,0.03,0l0.03,0c0,0,0.02-0.01,0.02-0.01l0.02-0.01c0,0,0.02-0.01,0.02-0.01l0.02-0.01c0,0,0.02-0.01,0.02-0.01l0.02-0.01
			l0.02-0.01c0,0,0.02-0.01,0.02-0.01s0.02-0.02,0.02-0.02l0.02-0.02c0,0,0.01-0.02,0.01-0.02l0.01-0.02c0,0,0.01-0.02,0.01-0.02
			s0.01-0.02,0.01-0.02s0.01-0.02,0.01-0.02l0.01-0.02l0.01-0.03l0.01-0.03l0.01-0.03l0.01-0.03c0,0,0.01-0.03,0.01-0.03l0.01-0.03
			c0,0,0-0.03,0-0.03s0-0.03,0-0.03l0-0.03l0-0.04l0-0.04l0-0.04c0,0,0-0.04,0-0.04l0-0.04c-0.02-0.29-0.08-0.58-0.15-0.86
			c-0.15-0.57-0.36-1.17-0.56-1.72c-0.51-1.47-3.71-8.69-4.38-10.28c-1.72-4.04-3.44-8.35-4.76-12.54
			c-4.81-14.97-4.26-31.17-1.01-46.41c0.63-2.92,2.08-9.03,2.52-11.89c0.31-1.91,0.54-3.91,0.65-5.84
			c0.47-7.75-1.09-20.89-1.61-28.75c-0.35-5.71-0.68-11.62,0.09-17.3c0.59-4.68,2.34-9.73,3.42-14.32
			c0.97-4.09,1.09-8.35,0.78-12.52c-0.4-5.43-1.44-10.96-2.57-16.28l-7.45-31.72c-2.79-13.27-5.57-27.75-0.05-40.69
			c2.36-5.59,5.92-10.64,10.17-14.95"/>
	</g>
	<g id="POLYLINE_15_">
		<path class="st22" d="M544.07,225.88c0.06,7.76,3.26,14.72,9.9,18.96c4.55,2.97,10.49,3.82,15.72,4.93
			c2.26,0.48,4.55,1.18,6.72,1.98c5.43,2.05,17.1,6.55,22.44,8.31c1.35,0.47,4.12,1.28,5.47,1.76c0.77,0.28,1.54,0.62,2.2,1.11
			c0.4,0.3,0.76,0.66,1.06,1.06c0.38,0.52,0.67,1.1,0.92,1.69c0.93,2.16,1.55,4.8,3.39,6.39c0.6,0.51,1.32,0.86,2.07,1.08
			c1.28,0.37,2.65,0.41,3.97,0.33c2.08-0.14,4.15-0.62,6.13-1.25c1.32-0.43,2.65-0.95,3.87-1.6c0.85-0.46,1.66-1,2.36-1.67
			c0.61-0.59,1.12-1.28,1.46-2.05c0.44-0.96,0.64-2.03,0.8-3.07c0.13-0.87,0.34-2.59,0.52-3.42c0.17-0.82,0.57-2.22,0.79-3.05
			c0.4-1.52,0.63-3.11,0.39-4.68c-0.22-1.51-0.73-2.98-1.34-4.37c-0.96-2.16-2.19-4.22-3.5-6.18c-3.14-4.72-7.91-9.93-11.62-14.26
			c-3.32-3.85-6.56-8.16-9.46-12.34c-5-7.18-13.59-20.93-19.36-27.26c-3.54-3.96-7.57-7.55-12.08-10.37
			c-3.9-2.42-8.27-4.35-12.9-4.63"/>
	</g>
	<g id="POLYLINE_14_">
		<path class="st22" d="M566.31,160.16c0.05-0.05,0.16-0.15,0.22-0.2c0.73-0.66,1.6-1.38,2.16-2.19c0.81-1.13,1.26-2.5,1.7-3.81
			c0.43-1.3,1.24-4.18,1.78-5.39c0.16-0.37,0.33-0.74,0.55-1.08c0.14-0.22,0.32-0.44,0.55-0.57c0.24-0.14,0.53-0.14,0.77-0.04
			c0.42,0.19,0.71,0.56,0.95,0.94c0.47,0.77,0.73,1.66,0.93,2.53c0.52,2.31,0.68,4.76,0.82,7.11c0.17,3.63,0.11,7.34-0.28,10.96
			c-0.3,2.78-0.8,5.6-1.63,8.28"/>
	</g>
	<g id="POLYLINE_13_">
		<path class="st22" d="M552.64,188.35c-1.18-1.37-2.14-2.93-2.88-4.58c-0.66-1.49-1.14-3.09-1.26-4.73
			c-0.14-1.71,0.26-3.44,0.98-4.99c0.51-1.11,1.17-2.19,1.83-3.22c1.11-1.68,2.53-3.81,3.53-5.55c1.81-3.1,3.19-6.47,4.22-9.91
			c0.85-2.7,1.98-7.24,3.12-9.78c0.19-0.38,0.39-0.77,0.69-1.08l0.02-0.02l0.02-0.02c0,0,0.02-0.02,0.02-0.02l0.02-0.02
			c0,0,0.02-0.01,0.02-0.01l0.02-0.01l0.02-0.01l0.02-0.01l0.02-0.01l0.02-0.01c0,0,0.02-0.01,0.02-0.01s0.02-0.01,0.02-0.01
			l0.02-0.01l0.02-0.01l0.02-0.01l0.02-0.01c0,0,0.02-0.01,0.02-0.01l0.02-0.01l0.02-0.01l0.02,0c0,0,0.02,0,0.02,0l0.02,0l0.02,0
			l0.02,0l0.02,0c0,0,0.02,0,0.02,0l0.02,0c0,0,0.02,0,0.02,0s0.02,0,0.02,0l0.02,0l0.02,0l0.02,0l0.02,0.01l0.02,0.01l0.02,0.01
			c0,0,0.02,0.01,0.02,0.01s0.02,0.01,0.02,0.01l0.02,0.01c0,0,0.02,0.01,0.02,0.01s0.02,0.01,0.02,0.01s0.02,0.01,0.02,0.01
			s0.02,0.01,0.02,0.01l0.02,0.01l0.02,0.01c0,0,0.02,0.01,0.02,0.01l0.02,0.02l0.02,0.02c0,0,0.02,0.02,0.02,0.02l0.02,0.02
			l0.02,0.02l0.02,0.02c0,0,0.02,0.02,0.02,0.02l0.02,0.02c0.25,0.29,0.43,0.65,0.58,1c0.36,0.85,0.6,1.77,0.81,2.67
			c0.51,2.29,0.81,4.68,0.98,7.02c0.16,2.37,0.18,4.81-0.07,7.18c-0.26,2.76-1.06,5.89-1.72,8.6c-0.21,0.91-0.41,1.85-0.48,2.78
			c-0.05,0.65-0.01,1.31,0.12,1.95c0.19,1.03,0.68,2.22,1.04,3.2"/>
	</g>
	<g id="POLYLINE_12_">
		<path class="st22" d="M626.99,249.8c-0.32-0.26-0.7-0.62-1.06-0.83c-0.24-0.14-0.53-0.23-0.78-0.12
			c-0.01,0.01-0.03,0.01-0.03,0.01c-0.01,0.01-0.03,0.01-0.03,0.01c-0.37,0.19-0.59,0.57-0.78,0.91c-0.3,0.58-0.51,1.22-0.67,1.86
			c-0.25,1.01-0.41,2.06-0.45,3.1c-0.02,0.84,0.04,1.69,0.29,2.5c0.2,0.63,0.52,1.23,1,1.69c0.5,0.5,1.16,0.83,1.85,1
			c0.8,0.19,1.7,0.16,2.4-0.32c0.38-0.26,0.67-0.63,0.89-1.02c0.35-0.63,0.55-1.34,0.65-2.05"/>
	</g>
	<g id="POLYLINE_11_">
		<path class="st22" d="M190.88,451.3c-1.36,5.92-2.92,12.93-4.58,18.73c-0.47,1.48-0.83,3.01-0.82,4.56c0,1.22,0.22,2.46,0.67,3.6
			c0.24,0.62,0.55,1.22,0.92,1.78c0.26,0.41,0.57,0.8,0.83,1.21c0.78,1.21,1.42,2.54,2,3.85c1.5,3.48,2.64,7.24,3.66,10.89
			c2.67,9.84,9.14,31.89,11.32,41.49c0.58,2.58,1.15,5.34,1.5,7.96c0.51,4.48,0.87,9.54,1.04,14.05c0.04,1.02,0.18,2.05,0.5,3.02
			c0.21,0.65,0.51,1.27,0.91,1.82c0.46,0.66,1.06,1.22,1.75,1.65c0.33,0.21,0.68,0.39,1.03,0.54c1.09,0.42,2.32,0.89,3.38,1.35
			c1.56,0.68,3.13,1.44,4.59,2.33c1.1,0.69,2.08,1.58,2.84,2.63c0.67,0.93,1.17,1.98,1.46,3.08c0.27,1.03,0.34,2.12,0.24,3.18
			c-0.04,0.46-0.12,0.92-0.21,1.37c-0.14,0.6-0.31,1.21-0.41,1.81c-0.25,1.43-0.26,2.95,0.2,4.34c0.15,0.46,0.37,0.9,0.7,1.25
			c0.37,0.41,0.86,0.72,1.37,0.93c0.6,0.25,1.25,0.39,1.9,0.47c0.46,0.06,0.94,0.08,1.41,0.08c5.33-0.03,15.04,0.05,20.38-0.02
			c0.95-0.06,1.94-0.18,2.81-0.59c0.5-0.24,0.96-0.62,1.18-1.13c0.21-0.47,0.19-1,0.11-1.5c-0.16-0.97-0.58-1.87-1.1-2.69
			c-0.72-1.11-1.64-2.1-2.6-3.01c-2.78-2.57-5.72-5.57-8.44-8.2c-1.85-1.71-3.88-3.29-6-4.66c-0.8-0.49-1.59-1.05-2.25-1.71
			c-1.74-1.71-2.99-3.87-4-6.07c-0.57-1.27-1.09-2.62-1.53-3.94c-3.55-11.01-7.64-23.91-10.27-35.16
			c-1.79-7.78-3.08-15.87-3.73-23.83c-0.29-3.95-0.37-8.01,0.67-11.86c0.23-0.84,0.52-1.71,0.87-2.51c0.24-0.55,0.54-1.12,0.77-1.68
			c0.49-1.19,0.81-2.46,1.03-3.73c0.24-1.4,0.34-2.86,0.35-4.28c0.01-1.06-0.06-2.16-0.03-3.22c0.05-2.05,0.31-4.13,0.72-6.14
			c0.36-1.76,0.84-3.54,1.39-5.24c4.85-13.96,9.76-31.08,14.35-45.12c0.81-2.41,2.04-6.09,2.93-8.5c0.74-2.01,1.6-4.15,2.31-6.15
			c1.61-4.54,3.14-9.52,4.44-14.15"/>
	</g>
	<g id="POLYLINE_6_">
		<path class="st22" d="M142.28,476.51c0.2,16.49,0.5,34.3-1.05,50.66c-0.45,4.79-0.95,9.98-1.82,14.7
			c-0.28,1.51-0.74,3.2-1.18,4.68c-0.61,2.08-1.34,4.23-2.15,6.23c-0.14,0.33-0.24,0.67-0.32,1.02c-0.14,0.67-0.15,1.36-0.01,2.03
			c0.29,1.42,1.15,2.65,2.14,3.67c0.33,0.34,0.7,0.66,1.02,1.01c0.48,0.51,0.94,1.05,1.35,1.62c1.15,1.59,1.98,3.39,2.56,5.26
			c0.76,2.51,1.23,5.17,0.93,7.8c-0.14,1.2-0.46,2.39-0.98,3.49c-0.41,0.87-0.96,1.57-1.33,2.48c-0.46,1.06-0.71,2.26-0.46,3.41
			c0.1,0.47,0.28,0.92,0.52,1.33c0.24,0.42,0.56,0.79,0.87,1.16c0.7,0.79,1.51,1.51,2.49,1.92c0.46,0.19,0.95,0.3,1.44,0.3
			c4.89-0.02,14.16,0.04,19.06-0.02c0.5-0.03,1.01-0.11,1.5-0.26c0.63-0.19,1.23-0.52,1.69-1c0.59-0.63,0.93-1.48,0.96-2.33
			c0.04-1.1-0.46-2.15-1.11-3.01c-0.74-0.98-6.34-6.74-7.13-7.7c-0.55-0.66-1.05-1.37-1.48-2.11c-1.31-2.22-2.16-4.7-2.76-7.2
			c-0.74-2.96-0.94-6.05-0.98-9.09c-0.05-5.61,0.45-11.37,1.07-16.94"/>
	</g>
	<g id="POLYLINE_5_">
		<path class="st22" d="M245.25,381.57c3.4-0.18,8.13-0.57,11.46-0.35c3,0.15,6.04,0.67,8.97,1.35c3.2,0.73,6.98,1.81,10.14,2.74
			c12.81,3.93,32.62,10.53,45.56,13.17c13.1,2.84,26.93,4.51,40.28,5.71c19.96,1.62,45.24,3.87,65.2,4.58"/>
	</g>
	<g id="POLYLINE_4_">
		<path class="st22" d="M171.33,476.85c2.85-5.66,6.03-11.27,10.04-16.19c1.61-1.98,3.45-3.85,5.32-5.58c0,0,5.69-5.15,5.69-5.15
			c1.98-1.84,3.94-3.83,5.65-5.92c2.37-2.9,4.48-6.18,6.44-9.37c2.74-4.55,7.51-12.88,10.49-17.11c1.89-2.73,4.07-5.47,6.25-7.99
			c5.72-6.54,12.97-13.63,18.39-20.41c3.1-3.84,6.13-7.88,8.49-12.23c1.2-2.21,2.65-5.3,4.16-7.28c0.76-1.02,1.68-1.92,2.71-2.68
			c1.82-1.34,3.94-2.48,5.74-3.85c1.42-1.06,2.72-2.3,3.78-3.73c1.58-2.13,2.67-4.59,3.52-7.08c1.35-4.03,2.07-8.27,2.32-12.51
			c0.22-4.05,0.01-8.18-0.9-12.14"/>
	</g>
	<g id="POLYLINE_3_">
		<path class="st22" d="M419.04,346.62c-0.51,9.97-0.8,20.27-0.07,30.23c0.41,5.05,1.02,10.17,2.58,15.01
			c2.75,8.44,5.8,18.07,8.04,26.64c0.9,3.71,1.48,7.54,1.77,11.34c0.2,2.62,0.26,5.33,0.2,7.96c-0.1,3.2-0.37,6.61-0.43,9.82
			c-0.14,5.25-0.04,10.65,0.32,15.89c0.54,7.02,1.26,14.18,0.37,21.2c-0.16,1.07-0.35,2.18-0.42,3.26
			c-0.11,1.58-0.08,3.18,0.18,4.75c0.17,1.04,0.45,2.07,0.83,3.06c0.25,0.66,0.61,1.29,0.86,1.96c0.52,1.39,0.82,2.87,1.01,4.33
			c0.24,1.91,0.31,3.89,0.29,5.82c0,0.93-0.06,2.19-0.1,3.14c-0.74,10.56-2.42,30.91-3.26,41.37c-0.08,1.12-0.08,2.25,0.14,3.35
			c0.2,0.99,0.61,1.98,1.39,2.65c0.3,0.26,0.65,0.46,1.02,0.6c0.31,0.12,0.64,0.18,0.96,0.27c0.81,0.23,1.59,0.56,2.33,0.95
			c2.37,1.26,4.32,3.2,6.16,5.13c0.8,0.84,1.61,1.74,2.32,2.66c0.34,0.45,0.69,0.92,0.95,1.43c0.42,0.91,0.42,1.94,0.36,2.92
			c-0.12,1.75-0.58,3.46-1.02,5.15c-0.3,1.24-0.51,2.53-0.56,3.8c-0.1,2.51,0.54,5.36,2.68,6.9c0.71,0.51,1.54,0.82,2.39,0.97
			c0.4,0.07,0.81,0.11,1.21,0.12c0.06,0.01,0.19,0,0.26,0c0,0,9.37,0,9.37,0s9,0,9,0s0.23,0,0.23,0s0.23,0,0.23,0
			c0.5-0.02,1.02-0.05,1.51-0.13c0.55-0.09,1.1-0.23,1.58-0.51c0.32-0.18,0.6-0.43,0.78-0.76c0.17-0.34,0.28-0.73,0.37-1.1
			c0.2-0.83,0.28-1.69,0.27-2.54c0.05-2.19-1.6-3.88-3.17-5.18c-1.28-1.08-2.68-2.07-4.16-2.86c-1.3-0.64-2.39-1.64-3.24-2.81
			c-0.72-0.96-1.2-2.08-1.89-3.06c-0.9-1.3-1.96-2.49-3.1-3.57c-0.57-0.55-1.24-1.08-1.78-1.66c-0.57-0.6-1.09-1.26-1.56-1.94
			c-2.14-3.13-3.51-6.79-4.75-10.35c-1.39-4.11-2.69-8.34-3.24-12.65c-0.61-5.76-0.36-11.83-0.16-17.61
			c0.21-4.17,0.41-9.64,0.89-13.77c0.08-0.59,0.16-1.24,0.3-1.82c0,0,1.54-5.79,1.54-5.79c0.03-0.1,0.06-0.24,0.08-0.35
			c0.17-0.74,0.31-1.68,0.43-2.43c1.57-11.17,2.37-23.77,3.92-34.94c0.81-5.78,1.84-11.78,3.16-17.47c1.15-4.92,2.8-10.28,4.01-15.2
			c0.99-3.97,1.96-8.18,2.51-12.22c0.45-2.97,1.06-5.99,1.94-8.87c0.38-1.18,0.74-2.41,1.36-3.48c1.13-2.01,2.82-3.63,4.67-4.98
			c1.22-0.9,2.58-1.67,3.89-2.42c1.25-0.73,2.49-1.55,3.66-2.4c2.16-1.58,4.19-3.36,6.06-5.28c1.15-1.19,2.3-2.42,3.26-3.77
			c2.01-2.82,3.35-6.08,4.14-9.44c0.65-2.62,0.91-5.61,1.1-8.3c0.4-5.52,0.61-11.5,0.63-17.03c0-2.74-0.03-5.98,0.07-8.71
			c0.13-3.58,0.4-7.27,1.07-10.79c0.41-2.27,1.11-4.49,2.07-6.6c2.08-4.61,5.01-8.84,8.01-12.89c4.29-5.94,8.4-12.54,12.09-18.88
			c5.87-10.15,12.05-21.83,17.27-32.33c0.93-1.77,2-3.5,3.2-5.09c2.14-2.84,4.78-5.34,7.81-7.21c2.92-1.81,6.19-3.04,9.55-3.72"/>
	</g>
</g>
<g id="AG-OUTLINE">
	<g id="POLYLINE_7_">
		<path class="st23" d="M556.77,246.36c3.84,1.75,8.78,2.54,12.91,3.41c2.26,0.48,4.55,1.18,6.72,1.98
			c5.43,2.05,17.1,6.55,22.44,8.31c1.35,0.47,4.12,1.28,5.47,1.76c0.77,0.28,1.54,0.62,2.2,1.11c0.4,0.3,0.76,0.66,1.06,1.06
			c0.38,0.52,0.67,1.1,0.92,1.69c0.93,2.16,1.55,4.8,3.39,6.39c0.6,0.51,1.32,0.86,2.07,1.08c1.28,0.37,2.65,0.41,3.97,0.33
			c2.08-0.14,4.15-0.62,6.13-1.25c1.32-0.43,2.65-0.95,3.87-1.6c0.85-0.46,1.66-1,2.36-1.67c0.61-0.59,1.12-1.28,1.46-2.05
			c0.44-0.96,0.64-2.03,0.8-3.07c0.13-0.87,0.34-2.59,0.52-3.42c0.17-0.82,0.57-2.22,0.79-3.05c0.4-1.52,0.63-3.11,0.39-4.68
			c-0.22-1.51-0.73-2.98-1.34-4.37c-0.96-2.16-2.19-4.22-3.5-6.18c-3.14-4.72-7.91-9.93-11.62-14.26
			c-3.32-3.85-6.56-8.16-9.46-12.34c-1.94-2.83-12.16-18.12-13.96-20.51c-1.81-2.48-3.8-5.02-5.88-7.29
			c-3.96-4.33-8.52-8.21-13.67-11.05c0.83-2.68,1.32-5.49,1.63-8.28c0.39-3.62,0.45-7.32,0.28-10.96c-0.14-2.44-0.31-4.97-0.87-7.35
			c-0.21-0.82-0.46-1.65-0.92-2.37c-0.23-0.35-0.53-0.72-0.93-0.88c-0.25-0.11-0.55-0.08-0.77,0.06c-0.22,0.14-0.38,0.34-0.52,0.56
			c-0.22,0.34-0.39,0.71-0.55,1.08c-0.52,1.2-1.36,4.11-1.78,5.39c-0.44,1.31-0.89,2.68-1.7,3.81c-0.56,0.81-1.43,1.53-2.16,2.19
			c-0.05,0.05-0.16,0.15-0.22,0.2c0.08-2.43-0.04-4.93-0.32-7.35c-0.21-1.83-0.51-3.71-0.98-5.49c-0.17-0.63-0.37-1.28-0.64-1.88
			c-0.14-0.31-0.3-0.62-0.53-0.87l-0.02-0.02l-0.02-0.02l-0.02-0.02l-0.02-0.02l-0.02-0.02l-0.02-0.02l-0.02-0.02l-0.02-0.01
			c0,0-0.02-0.01-0.02-0.01l-0.02-0.01c0,0-0.02-0.01-0.02-0.01s-0.02-0.01-0.02-0.01l-0.02-0.01l-0.02-0.01l-0.02-0.01l-0.02-0.01
			c0,0-0.02-0.01-0.02-0.01s-0.02-0.01-0.02-0.01s-0.02-0.01-0.02-0.01l-0.02-0.01l-0.02-0.01c0,0-0.02,0-0.02,0l-0.02,0l-0.02,0
			l-0.02,0l-0.02,0l-0.02,0l-0.02,0l-0.02,0l-0.02,0l-0.02,0c0,0-0.02,0-0.02,0l-0.02,0l-0.02,0l-0.02,0.01l-0.02,0.01l-0.02,0.01
			l-0.02,0.01l-0.02,0.01c0,0-0.02,0.01-0.02,0.01l-0.02,0.01l-0.02,0.01l-0.02,0.01c0,0-0.02,0.01-0.02,0.01l-0.02,0.01l-0.02,0.01
			l-0.02,0.01l-0.02,0.01l-0.02,0.01l-0.02,0.02l-0.02,0.02l-0.02,0.02c0,0-0.02,0.02-0.02,0.02c-0.3,0.3-0.5,0.7-0.69,1.08
			c-1.14,2.52-2.28,7.1-3.12,9.78c-1.04,3.44-2.42,6.8-4.22,9.91c-1.1,1.93-2.63,4.16-3.84,6.04c-0.6,0.95-1.19,1.95-1.63,2.98
			c-0.52,1.18-0.86,2.46-0.89,3.76c-2.17,1.21-6.89,4.04-9.06,5.26c-3.01,1.72-12.82,6.82-16.03,8.52
			c-3.86,2.07-7.78,4.38-11.38,6.86c-17.41,12.47-56.02,41.64-73.21,53.49c-1.03,0.68-2.1,1.34-3.21,1.87
			c-1.26,0.61-2.61,1.05-3.97,1.37c-3.93,0.9-11.33,1.6-15.36,2.25c-3.16,0.49-6.45,1.1-9.54,1.92c-4.43,1.16-8.92,2.78-13.17,4.48
			c-6.91,2.75-16.51,7.3-23.48,9.87c-4.31,1.6-8.81,2.96-13.32,3.87c-7.92,1.61-16.09,2-24.15,1.81
			c-11.69-0.3-23.55-1.97-34.99-4.38c-13.07-2.77-31.73-7.59-44.86-8.77c-5.27-0.51-10.65-0.54-15.92,0.04
			c-3.65,0.39-7.39,1.06-10.97,1.87c-5.01,1.08-25.15,6.8-30.43,8.21c-8.34,2.43-16.93,5.48-23.34,11.56
			c-2.94,2.8-5.36,6.14-7.43,9.62c-2.33,3.92-4.35,8.26-6.19,12.44c-0.68,1.58-4.47,10.38-5.12,11.79
			c-0.72,1.62-5.51,11.72-6.36,13.51c-7.67,16.58-8.6,26.05-7.13,44.06l1.67,18.15c0.44,5.56,0.77,11.37,0.53,16.93
			c-0.17,4.16-0.7,8.44-1.38,12.55c-1.39,8.74-4.02,19.07-3.73,27.94c0.15,7.39,2.71,14.5,5.34,21.33
			c0.28,21.51,0.63,43.98-2.84,65.23c-0.28,1.56-0.76,3.29-1.21,4.82c-0.61,2.08-1.34,4.23-2.15,6.23
			c-0.14,0.33-0.24,0.67-0.32,1.02c-0.14,0.67-0.15,1.36-0.01,2.03c0.29,1.42,1.15,2.65,2.14,3.67c0.33,0.34,0.7,0.66,1.02,1.01
			c0.48,0.51,0.94,1.05,1.35,1.62c1.15,1.59,1.98,3.39,2.56,5.26c0.77,2.52,1.23,5.19,0.93,7.83c-0.14,1.18-0.45,2.34-0.95,3.42
			c-0.38,0.83-0.94,1.57-1.3,2.41c-0.49,1.08-0.76,2.3-0.52,3.48c0.1,0.49,0.28,0.95,0.53,1.38c0.24,0.42,0.56,0.79,0.87,1.16
			c0.7,0.79,1.51,1.51,2.49,1.92c0.44,0.18,0.92,0.29,1.4,0.3c4.9-0.02,14.18,0.04,19.1-0.02c0.47-0.03,0.95-0.1,1.41-0.23
			c0.65-0.18,1.27-0.51,1.74-1c0.6-0.62,0.94-1.47,0.99-2.32c0.05-1.08-0.42-2.11-1.05-2.97c-0.65-0.91-6.31-6.73-7.07-7.64
			c-0.63-0.73-1.19-1.54-1.67-2.37c-1.29-2.23-2.13-4.71-2.72-7.21c-0.72-2.92-0.91-5.96-0.95-8.96
			c-0.05-5.61,0.45-11.37,1.07-16.94c4.49,6.98,9.67,13.62,15.41,19.62c1.45,1.47,2.98,2.99,4.64,4.22
			c0.39,0.28,0.79,0.55,1.24,0.73c0,0,0.04,0.01,0.04,0.01l0.04,0.01c0,0,0.04,0.01,0.04,0.01l0.03,0.01l0.03,0.01l0.03,0.01
			c0,0,0.03,0.01,0.03,0.01l0.03,0.01l0.03,0.01c0,0,0.03,0,0.03,0l0.03,0c0,0,0.03,0,0.03,0s0.03,0,0.03,0l0.03,0
			c0,0,0.03,0,0.03,0s0.02,0,0.02,0l0.03,0c0,0,0.02-0.01,0.02-0.01l0.02-0.01c0,0,0.02-0.01,0.02-0.01l0.02-0.01
			c0,0,0.02-0.01,0.02-0.01l0.02-0.01l0.02-0.01c0,0,0.02-0.01,0.02-0.01s0.02-0.02,0.02-0.02l0.02-0.02c0,0,0.01-0.02,0.01-0.02
			l0.01-0.02c0,0,0.01-0.02,0.01-0.02s0.01-0.02,0.01-0.02s0.01-0.02,0.01-0.02l0.01-0.02l0.01-0.03l0.01-0.03l0.01-0.03l0.01-0.03
			c0,0,0.01-0.03,0.01-0.03l0.01-0.03c0,0,0-0.03,0-0.03s0-0.03,0-0.03l0-0.03l0-0.04l0-0.04l0-0.04c0,0,0-0.04,0-0.04l0-0.04
			c-0.02-0.29-0.08-0.58-0.15-0.86c-0.15-0.57-0.36-1.17-0.56-1.72c-0.51-1.47-3.71-8.69-4.38-10.28
			c-1.72-4.04-3.44-8.35-4.76-12.54c-3.31-10.35-4.12-21.41-3.16-32.21c0.29-3.26,0.75-6.66,1.32-9.89
			c0.5-3.08,2.23-10.61,2.9-13.73c0.36-1.79,0.67-3.71,0.87-5.52c2.75-5.46,5.81-10.88,9.62-15.67c1.77-2.25,3.83-4.35,5.94-6.28
			l3.99-3.59c-1.36,5.92-2.92,12.93-4.58,18.73c-0.47,1.48-0.83,3.01-0.82,4.56c0,1.22,0.22,2.46,0.67,3.6
			c0.24,0.62,0.55,1.22,0.92,1.78c0.26,0.41,0.57,0.8,0.83,1.21c0.78,1.21,1.42,2.54,2,3.85c1.5,3.48,2.64,7.24,3.66,10.89
			c1.92,7.01,8.52,30.15,10.18,36.75c0.91,3.62,1.82,7.54,2.42,11.21c0.15,0.93,0.29,1.97,0.38,2.9c0.34,3.46,0.67,7.76,0.83,11.23
			c0.05,1.39,0.06,2.88,0.49,4.22c0.21,0.7,0.52,1.37,0.94,1.98c0.47,0.68,1.08,1.26,1.78,1.71c0.33,0.21,0.68,0.39,1.03,0.54
			c1.09,0.42,2.32,0.89,3.38,1.35c1.43,0.62,2.88,1.32,4.22,2.11c1.21,0.71,2.31,1.64,3.14,2.77c0.72,0.98,1.26,2.1,1.54,3.27
			c0.29,1.16,0.32,2.38,0.16,3.56c-0.14,1.04-0.5,2.05-0.63,3.1c-0.19,1.33-0.16,2.73,0.29,4.01c0.15,0.46,0.39,0.89,0.73,1.24
			c0.38,0.4,0.86,0.69,1.36,0.89c0.59,0.24,1.22,0.37,1.86,0.45c0.46,0.06,0.94,0.08,1.41,0.08c5.33-0.03,15.04,0.05,20.38-0.02
			c0.95-0.06,1.94-0.18,2.81-0.59c0.5-0.24,0.96-0.62,1.18-1.13c0.21-0.47,0.19-1,0.11-1.5c-0.16-0.97-0.58-1.87-1.1-2.69
			c-0.72-1.11-1.64-2.1-2.6-3.01c-2.76-2.55-5.68-5.53-8.37-8.14c-1.88-1.75-3.94-3.35-6.09-4.74c-2.96-1.71-4.83-4.72-6.22-7.76
			c-1.08-2.28-2.23-6.13-3.04-8.56c-2.88-9.27-6.54-20.86-8.71-30.29c-1.81-7.85-3.13-16.05-3.79-24.08
			c-0.28-3.84-0.37-7.8,0.59-11.56c0.24-0.95,0.56-1.91,0.95-2.81c0.24-0.55,0.54-1.12,0.77-1.68c0.49-1.19,0.81-2.46,1.03-3.73
			c0.24-1.4,0.34-2.86,0.35-4.28c0.01-1.06-0.06-2.16-0.03-3.22c0.05-2.05,0.31-4.13,0.72-6.14c0.36-1.76,0.84-3.54,1.39-5.24
			c4.85-13.96,9.76-31.08,14.35-45.12c0.81-2.41,2.04-6.09,2.93-8.5c0.74-2.01,1.6-4.15,2.31-6.15c1.61-4.54,3.14-9.52,4.44-14.15
			c0.59-0.81,1.27-1.78,1.82-2.6c3.16-0.17,7.83-0.54,10.92-0.38c2.54,0.1,5.1,0.45,7.59,0.96c2.86,0.57,6.14,1.46,8.97,2.25
			c12.4,3.63,32.23,10.37,44.68,13.18c27.86,6.57,60.26,7.68,88.83,10.1c-1.57,19.61-2.9,41.05-6.56,60.33
			c-0.72,3.63-1.49,7.36-2.71,10.85c-0.65,1.72-1.22,3.49-1.46,5.32c-0.15,1.15-0.17,2.34,0.08,3.48c0.06,0.27,0.14,0.53,0.23,0.78
			c0.12,0.32,0.25,0.64,0.35,0.96c0.5,1.57,0.65,3.23,0.61,4.87c-0.03,1.55-0.28,3.15-0.56,4.68c-1.09,5.76-2.83,12.15-4.4,17.81
			c-1.69,5.91-3.95,12.92-5.96,18.74c-0.91,2.64-1.84,5.48-2.48,8.2c-0.29,1.29-0.57,2.63-0.58,3.95c0,0.37,0.02,0.75,0.11,1.11
			c0.06,0.22,0.14,0.44,0.28,0.62l0.01,0.01c0.01,0.01,0.02,0.03,0.02,0.03c1.04,1.11,2.23,2.27,3.33,3.3
			c0.26,0.28,0.47,0.61,0.65,0.94c0.73,1.36,1.16,2.87,1.55,4.35c0.35,1.39,0.7,2.84,0.85,4.26c0.29,2.56,0.03,5.19-0.81,7.63
			c-0.18,0.52-0.39,1.05-0.61,1.55c-0.28,0.6-0.56,1.22-0.75,1.87c-0.33,1.12-0.44,2.33-0.16,3.47c0.26,1.1,0.87,2.1,1.65,2.91
			c0.3,0.31,0.63,0.61,0.97,0.89c1.66,1.26,3.74,2.9,5.33,4.21c0.72,0.59,1.67,1.42,2.37,2.04c0.19,0.17,0.39,0.33,0.6,0.47
			c0.7,0.49,1.5,0.86,2.31,1.13c1.25,0.42,2.57,0.63,3.89,0.74c1.49,0.16,10.45,0.06,12.12,0.09c0.91,0,1.86-0.15,2.62-0.67
			c0.62-0.42,1.04-1.08,1.24-1.79c0.12-0.41,0.18-0.9,0.24-1.32c0.09-0.75,0.15-1.52,0.11-2.28c-0.03-0.49-0.11-1-0.32-1.45
			c-0.21-0.46-0.56-0.86-0.94-1.19c-0.73-0.64-1.55-1-2.39-1.44c-1.35-0.73-2.64-1.64-3.87-2.55c-0.79-0.6-1.69-1.28-2.42-1.94
			c-1.11-1-2.12-2.13-2.91-3.4c-0.29-0.46-0.55-0.96-0.77-1.46c-0.67-1.57-2.64-5.72-3.11-7.29c-0.62-1.93-1.25-3.98-1.63-5.97
			c-0.39-2.1-0.54-4.29-0.59-6.43c-0.06-3.92,0.21-8.03,0.57-11.94c0.7-7.39,2.01-14.89,3.75-22.1c1.09-4.61,2.45-9.29,4.53-13.56
			c0.54-1.11,1.15-2.25,1.8-3.3c0.54-0.86,1.14-1.77,1.63-2.67c1.25-2.26,2.23-4.7,2.92-7.19c0.34-1.22,0.63-2.51,0.86-3.76
			c0.15-0.86,0.29-1.81,0.48-2.67c0.41-1.86,0.96-3.8,1.49-5.62c3-10.08,7.8-22.91,11.43-32.85c-0.28,6.36-0.21,13.1,0.24,19.45
			c0.48,5.77,0.98,11.69,0.65,17.48c-0.06,1.09-0.17,2.24-0.31,3.33c-0.09,0.67-0.22,1.41-0.3,2.07c-0.17,1.44-0.23,2.92-0.12,4.37
			c0.12,1.58,0.44,3.15,1.02,4.62c0.25,0.66,0.61,1.3,0.86,1.96c0.42,1.1,0.69,2.27,0.88,3.44c0.32,2.01,0.42,4.09,0.43,6.13
			c0,1.18-0.05,2.55-0.11,3.73c-0.8,11.32-2.41,30.38-3.28,41.55c-0.07,1.21-0.05,2.44,0.26,3.62c0.2,0.73,0.53,1.44,1.06,1.99
			c0.36,0.37,0.81,0.66,1.3,0.83c0.19,0.07,0.39,0.12,0.58,0.16c0.26,0.06,0.52,0.14,0.77,0.22c0.82,0.27,1.6,0.64,2.34,1.07
			c2.48,1.44,4.49,3.58,6.44,5.66c0.81,0.9,1.63,1.84,2.29,2.86c0.28,0.42,0.46,0.86,0.54,1.36c0.19,1.07,0.09,2.17-0.06,3.24
			c-0.32,2.23-1.12,4.27-1.35,6.52c-0.22,2.01-0.1,4.13,0.81,5.96c0.33,0.66,0.77,1.28,1.33,1.78c0.51,0.46,1.11,0.81,1.75,1.04
			c0.58,0.21,1.19,0.33,1.8,0.38c0.25,0.02,0.51,0.03,0.76,0.03c0,0,9.37,0,9.37,0c0.68-0.01,9.8,0.04,10.2-0.05
			c0.64-0.06,1.29-0.15,1.89-0.38c0.54-0.2,1.06-0.55,1.29-1.09c0.35-0.87,0.52-1.81,0.57-2.74c0.02-0.57,0.05-1.16-0.07-1.73
			c-0.41-1.91-1.95-3.3-3.39-4.49c-1.06-0.87-2.2-1.68-3.39-2.35c-0.42-0.24-0.88-0.45-1.29-0.72c-1.11-0.72-2.03-1.72-2.76-2.82
			c-0.41-0.61-0.73-1.29-1.13-1.92c-0.5-0.8-1.07-1.57-1.68-2.28c-0.68-0.79-1.43-1.56-2.19-2.27c-0.51-0.47-1.07-0.93-1.54-1.45
			c-1.05-1.13-1.91-2.44-2.66-3.78c-1.73-3.11-2.93-6.54-4.06-9.91c-1.21-3.75-2.33-7.62-2.77-11.54
			c-0.54-5.63-0.31-11.56-0.12-17.21c0.21-4.13,0.41-9.67,0.89-13.77c0.08-0.59,0.16-1.24,0.3-1.82c0,0,1.54-5.79,1.54-5.79
			c0.03-0.1,0.06-0.24,0.08-0.35c0.17-0.74,0.31-1.68,0.43-2.43c1.57-11.17,2.37-23.77,3.92-34.94c0.81-5.78,1.84-11.78,3.16-17.47
			c1.15-4.92,2.8-10.28,4.01-15.2c0.99-3.97,1.96-8.18,2.51-12.22c0.45-2.97,1.06-5.99,1.94-8.87c0.38-1.18,0.74-2.41,1.36-3.48
			c1.13-2.01,2.82-3.63,4.67-4.98c1.22-0.9,2.58-1.67,3.89-2.42c1.25-0.73,2.49-1.55,3.66-2.4c2.16-1.58,4.19-3.36,6.06-5.28
			c1.15-1.19,2.3-2.42,3.26-3.77c2.01-2.82,3.35-6.08,4.14-9.44c0.65-2.62,0.91-5.61,1.1-8.3c0.4-5.52,0.61-11.5,0.63-17.03
			c0-2.74-0.03-5.98,0.07-8.71c0.13-3.58,0.4-7.27,1.07-10.79c0.41-2.27,1.11-4.49,2.07-6.6c2.08-4.61,5.01-8.84,8.01-12.89
			c4.29-5.94,8.4-12.54,12.09-18.88c5.87-10.15,12.05-21.83,17.27-32.33c0.93-1.77,2-3.5,3.2-5.09c2.14-2.84,4.78-5.34,7.81-7.21
			C550.14,248.27,553.41,247.04,556.77,246.36z"/>
	</g>
</g>
</svg>
