<?xml version="1.0" encoding="utf-8"?>
<!-- Generator: Adobe Illustrator 24.2.3, SVG Export Plug-In . SVG Version: 6.00 Build 0)  -->
<!DOCTYPE svg PUBLIC "-//W3C//DTD SVG 1.1//EN" "http://www.w3.org/Graphics/SVG/1.1/DTD/svg11.dtd" [
	<!ENTITY ns_extend "http://ns.adobe.com/Extensibility/1.0/">
	<!ENTITY ns_ai "http://ns.adobe.com/AdobeIllustrator/10.0/">
	<!ENTITY ns_graphs "http://ns.adobe.com/Graphs/1.0/">
	<!ENTITY ns_vars "http://ns.adobe.com/Variables/1.0/">
	<!ENTITY ns_imrep "http://ns.adobe.com/ImageReplacement/1.0/">
	<!ENTITY ns_sfw "http://ns.adobe.com/SaveForWeb/1.0/">
	<!ENTITY ns_custom "http://ns.adobe.com/GenericCustomNamespace/1.0/">
	<!ENTITY ns_adobe_xpath "http://ns.adobe.com/XPath/1.0/">
]>
<svg version="1.1" xmlns:x="&ns_extend;" xmlns:i="&ns_ai;" xmlns:graph="&ns_graphs;"
	 xmlns="http://www.w3.org/2000/svg" xmlns:xlink="http://www.w3.org/1999/xlink" x="0px" y="0px" width="750px" height="750px"
	 viewBox="0 0 750 750" style="enable-background:new 0 0 750 750;" xml:space="preserve">
<style type="text/css">
	.st0{fill:#FFFFFF;}
	.st1{fill:#FB8604;}
	.st2{fill:none;stroke:#FB8604;stroke-width:3.25;stroke-linecap:round;stroke-linejoin:round;}
	.st3{fill:none;stroke:#FB8604;stroke-width:3.25;stroke-linecap:round;stroke-linejoin:round;stroke-dasharray:3.9479,6.9088;}
	.st4{fill:none;stroke:#FB8604;stroke-width:3.25;stroke-linecap:round;stroke-linejoin:round;stroke-dasharray:3.9916,6.9853;}
	.st5{fill:none;stroke:#FB8604;stroke-width:3.25;stroke-linecap:round;stroke-linejoin:round;stroke-dasharray:3.9975,6.9957;}
	.st6{fill:none;stroke:#FB8604;stroke-width:3.25;stroke-linecap:round;stroke-linejoin:round;stroke-dasharray:4.0028,7.0048;}
	.st7{fill:none;stroke:#FB8604;stroke-width:3.25;stroke-linecap:round;stroke-linejoin:round;stroke-dasharray:5.0508,8.8389;}
	.st8{fill:none;stroke:#FB8604;stroke-width:3.25;stroke-linecap:round;stroke-linejoin:round;stroke-dasharray:4.2172,7.38;}
	.st9{fill:none;stroke:#FB8604;stroke-width:3.25;stroke-linecap:round;stroke-linejoin:round;stroke-dasharray:2.0366,3.5641;}
	.st10{fill:none;stroke:#FB8604;stroke-width:3.25;stroke-linecap:round;stroke-linejoin:round;stroke-dasharray:3.44,6.02;}
	.st11{fill:none;stroke:#FB8604;stroke-width:3.25;stroke-linecap:round;stroke-linejoin:round;stroke-dasharray:4.0593,7.1037;}
	.st12{fill:none;stroke:#FB8604;stroke-width:3.25;stroke-linecap:round;stroke-linejoin:round;stroke-dasharray:3.6692,6.4212;}
	.st13{fill:none;stroke:#FB8604;stroke-width:3.25;stroke-linecap:round;stroke-linejoin:round;stroke-dasharray:4.1106,7.1935;}
	.st14{fill:none;stroke:#FB8604;stroke-width:3.25;stroke-linecap:round;stroke-linejoin:round;stroke-dasharray:4.0483,7.0846;}
	.st15{fill:none;stroke:#FB8604;stroke-width:3.25;stroke-linecap:round;stroke-linejoin:round;stroke-dasharray:4.0409,7.0715;}
	.st16{fill:none;stroke:#FB8604;stroke-width:3.25;stroke-linecap:round;stroke-linejoin:round;stroke-dasharray:3.9312,6.8795;}
	.st17{fill:none;stroke:#FB8604;stroke-width:3.25;stroke-linecap:round;stroke-linejoin:round;stroke-dasharray:4.0993,7.1737;}
	.st18{fill:none;stroke:#FB8604;stroke-width:3.25;stroke-linecap:round;stroke-linejoin:round;stroke-dasharray:4.1339,7.2344;}
	
		.st19{fill:none;stroke:#FB8604;stroke-width:2.5;stroke-linecap:round;stroke-linejoin:round;stroke-miterlimit:10;stroke-dasharray:3,5;}
	.st20{fill:none;stroke:#FB8604;stroke-width:2;stroke-linecap:round;stroke-linejoin:round;stroke-miterlimit:10;}
	.st21{fill:none;stroke:#FB8604;stroke-width:2.75;stroke-linecap:round;stroke-linejoin:round;stroke-miterlimit:10;}
	.st22{fill:none;stroke:#FB8604;stroke-width:3.5;stroke-linecap:round;stroke-linejoin:round;stroke-miterlimit:10;}
</style>
<metadata>
	<sfw  xmlns="&ns_sfw;">
		<slices></slices>
		<sliceSourceBounds  bottomLeftOrigin="true" height="2701.05" width="4084" x="-2000" y="386.14"></sliceSourceBounds>
	</sfw>
</metadata>
<g id="FILL-BACKGROUND">
	<rect class="st0" width="750" height="750"/>
</g>
<g id="N-TEXT">
</g>
<g id="N-DIMENSIONS">
</g>
<g id="AG-DIAGRAM">
	<g id="POLYLINE_19_">
		<g>
			<g>
				<line class="st2" x1="170.46" y1="610.65" x2="172.46" y2="610.65"/>
				<line class="st3" x1="179.36" y1="610.65" x2="534.18" y2="610.65"/>
				<line class="st2" x1="537.63" y1="610.65" x2="539.63" y2="610.65"/>
			</g>
		</g>
	</g>
</g>
<g id="AG-DETAIL-DIAGRAM">
</g>
<g id="AG-GUIDES">
</g>
<g id="AG-DETAILS">
	<g id="POLYLINE_57_">
		<path class="st20" d="M630.97,313.76c-0.3-0.71-0.61-1.45-0.78-2.2c-0.13-0.54-0.18-1.11-0.15-1.66c0.06-1.14,0.4-2.24,0.82-3.29
			c0.54-1.31,1.24-2.58,2.12-3.7c0.35-0.44,0.74-0.86,1.17-1.21c0.41-0.33,0.87-0.61,1.33-0.86c0.47-0.25,1.09-0.57,1.53-0.87
			c0.33-0.23,0.64-0.5,0.91-0.79c0.66-0.7,1.19-1.52,1.65-2.37c0.59-1.11,1.06-2.31,1.34-3.54"/>
	</g>
	<g id="POLYLINE_56_">
		<path class="st20" d="M607.32,308.83c2.68,2.28,6.24,3.82,9.81,3.33c2.4-0.31,4.76-1.51,6.17-3.52c0.84-1.19,1.27-2.62,1.56-4.04
			c0.6-3.02,0.53-6.37,1.19-9.38c0.37-1.76,1.28-3.47,1.91-5.14c0.36-0.96,0.58-2,0.48-3.03c-0.18-1.7-0.94-3.28-1.67-4.8
			c-1.39-2.82-3.17-6.03-3.78-9.13c-0.75-3.43-0.7-7.5-1.33-10.96c-0.21-1.18-0.51-2.37-0.91-3.5c-0.6-1.69-1.42-3.33-2.27-4.91
			c-2.46-4.56-5.72-9.4-6.18-14.68c-0.39-3.71,0.29-7.98,0.7-11.68c0.14-1.31,0.25-2.73,0.26-4.04c0.01-1.48-0.09-3.03-0.24-4.51
			c-0.43-3.9-1.14-8.7-0.89-12.6c0.1-1.72,0.31-3.46,0.83-5.11c0.42-1.3,1.06-2.63,2.19-3.45c1.13-0.82,2.62-1.01,3.96-0.66
			c0.94,0.24,1.82,0.72,2.52,1.4c0.61,0.58,1.11,1.28,1.55,2c0.98,1.62,1.96,3.93,2.98,5.53c0.42,0.67,0.91,1.31,1.46,1.88
			c0.81,0.83,1.83,1.62,2.71,2.37c1.05,0.9,2.06,1.96,2.41,3.34c0.28,1.08,0.24,2.23,0.12,3.34c-0.31,2.76-1.25,5.72-1.79,8.44
			c-0.23,1.15-0.38,2.33-0.33,3.51c0.04,1.42,0.44,2.94,0.76,4.32c0.48,2.1,0.71,4.59,1.1,6.71"/>
	</g>
</g>
<g id="AG-ANIMALS">
	<g id="POLYLINE_2_">
		<path class="st21" d="M599.67,170.78c0-0.82,0.06-1.66,0.21-2.47c0.2-1.12,0.54-2.23,0.93-3.29c0.87-2.31,1.95-4.61,3.14-6.77
			c0.37-0.64,0.77-1.29,1.27-1.83c0.27-0.28,0.6-0.57,0.99-0.61c0.27-0.03,0.52,0.1,0.71,0.26c0.22,0.19,0.39,0.42,0.55,0.66
			c0.31,0.48,0.55,1.02,0.77,1.54c0.41,1,0.75,2.11,1.07,3.15c1.04,3.55,1.84,7.29,1.35,11"/>
	</g>
	<g id="POLYLINE_3_">
		<path class="st21" d="M468.12,596.96c-0.51,3.25-0.73,6.62,0.02,9.84c0.27,1.09,0.66,2.22,1.46,3.03
			c0.36,0.36,0.83,0.63,1.33,0.75c0.19,0.04,0.38,0.06,0.57,0.07c5.52,0,29.67,0,35.66,0c1.66-0.01,3.37-0.07,4.98-0.5
			c0.72-0.2,1.45-0.5,1.94-1.09c0.56-0.65,0.81-1.51,0.91-2.35c0.09-0.75,0.09-1.52-0.06-2.27c-0.22-1.16-0.63-2.29-1.06-3.38
			c-0.85-2.1-1.94-4.21-3.02-6.2"/>
	</g>
	<g id="POLYLINE_4_">
		<path class="st21" d="M462.36,520.12c0.51,0.95,1.68,2.53,2.3,3.43l1.64,2.48c0.39,0.56,0.79,1.13,1.27,1.62
			c0.24,0.24,0.53,0.49,0.86,0.57c0.01,0,0.03,0,0.03,0c0.01,0,0.03,0,0.03,0c0.01,0,0.03,0,0.03,0c0.01,0,0.03,0,0.03,0
			c0.01,0,0.03,0,0.03,0c0.01,0,0.02,0,0.02,0c0.01,0,0.02,0,0.02,0c0.01,0,0.02,0,0.02,0c0.01,0,0.02,0,0.02,0
			c0.01,0,0.02,0,0.02,0c0.01,0,0.02-0.01,0.02-0.01c0.01,0,0.02-0.01,0.02-0.01c0.01,0,0.02-0.01,0.02-0.01
			c0.01,0,0.02-0.01,0.02-0.01c0.01-0.01,0.02-0.01,0.02-0.01c0.01-0.01,0.02-0.01,0.02-0.01c0.01-0.01,0.02-0.01,0.02-0.01
			c0.01-0.01,0.02-0.01,0.02-0.01c0.17-0.12,0.26-0.28,0.36-0.45c0.14-0.26,0.25-0.55,0.35-0.84c0.13-0.37,0.34-1.06,0.5-1.41
			c0.07-0.15,0.15-0.31,0.25-0.43c0.01-0.01,0.02-0.02,0.02-0.02c0.01-0.01,0.02-0.02,0.02-0.02c0.01-0.01,0.02-0.02,0.02-0.02
			c0.01-0.01,0.02-0.02,0.02-0.02c0.01-0.01,0.02-0.01,0.02-0.01c0.01-0.01,0.02-0.01,0.02-0.01c0.01,0,0.01-0.01,0.01-0.01
			c0.01,0,0.01-0.01,0.01-0.01c0.01,0,0.01,0,0.01,0c0.01,0,0.01,0,0.01,0c0.01,0,0.01,0,0.01,0c0.01,0,0.01,0,0.01,0
			c0.01,0,0.02,0,0.02,0c0.01,0,0.02,0,0.02,0c0.01,0,0.02,0,0.02,0s0.01,0,0.01,0l0.01,0l0.01,0l0.01,0.01c0,0,0.02,0.01,0.02,0.01
			l0.02,0.01l0.02,0.01l0.02,0.01c0,0,0.02,0.01,0.02,0.01l0.02,0.01c0,0,0.02,0.01,0.02,0.01l0.02,0.01c0,0,0.02,0.01,0.02,0.01
			s0.02,0.01,0.02,0.01l0.02,0.02l0.02,0.02l0.02,0.02l0.02,0.02l0.02,0.02c0.22,0.25,0.37,0.56,0.52,0.86
			c0.97,2.07,1.87,4.92,2.75,7.04c0.37,0.9,0.77,1.85,1.28,2.68c0.18,0.28,0.37,0.56,0.61,0.79l0.02,0.02l0.02,0.02l0.02,0.02
			l0.02,0.02c0,0,0.02,0.02,0.02,0.02l0.02,0.02l0.02,0.02l0.02,0.01l0.02,0.01c0,0,0.02,0.01,0.02,0.01
			c0.48,0.28,0.98-0.09,1.39-0.31c0.26-0.14,0.58-0.27,0.86-0.14l0.02,0.01l0.02,0.01l0.02,0.01l0.02,0.01l0.02,0.01
			c0,0,0.02,0.02,0.02,0.02l0.02,0.02c0,0,0.02,0.02,0.02,0.02l0.02,0.02l0.02,0.02l0.02,0.02l0.02,0.02c0,0,0.02,0.02,0.02,0.02
			s0.02,0.02,0.02,0.02s0.02,0.02,0.02,0.02c0.34,0.36,0.58,0.8,0.8,1.24c1.29,2.7,2.3,6.26,3.47,9.02
			c0.41,0.97,0.84,1.95,1.41,2.84c0.29,0.45,0.61,0.89,1.03,1.22c0,0,0.03,0.02,0.03,0.02c0.26,0.19,0.57,0.32,0.89,0.35
			c0.36,0.04,0.73-0.05,1.07-0.18c1.03-0.42,1.87-1.23,2.82-1.78"/>
	</g>
	<g id="POLYLINE_5_">
		<path class="st21" d="M463.06,456.21c0.06,5.78,0.03,27.4,0.35,32.76c0.26,5.09,0.91,13.35,0.61,18.35
			c-0.17,4.16-0.82,8.42-1.6,12.51c-2.08,10.67-5.58,23.97-5.64,34.79c-0.05,5.95,0.93,11.92,2.23,17.71
			c1.13,4.75,2.95,12.88,3.84,17.63c0.25,1.18,0.53,2.53,0.88,3.68c0.12,0.4,0.26,0.82,0.43,1.2c0.09,0.18,0.18,0.36,0.31,0.52
			c0,0,0.01,0.01,0.01,0.01l0.01,0.01c0.01,0.01,0.03,0.03,0.03,0.03c0.01,0.01,0.03,0.02,0.03,0.02c0.01,0.01,0.03,0.02,0.03,0.02
			c0.01,0.01,0.03,0.02,0.03,0.02c0.01,0.01,0.03,0.02,0.03,0.02c0.01,0.01,0.03,0.02,0.03,0.02c0.01,0.01,0.03,0.01,0.03,0.01
			c0.01,0.01,0.03,0.01,0.03,0.01c0.01,0,0.03,0.01,0.03,0.01c0.01,0,0.03,0.01,0.03,0.01c0.01,0,0.03,0,0.03,0
			c0.01,0,0.03,0,0.03,0c0.01,0,0.03,0,0.03,0c0.01,0,0.03,0,0.03,0c0.01,0,0.03-0.01,0.03-0.01c0.01,0,0.03-0.01,0.03-0.01
			c0.01,0,0.02-0.01,0.02-0.01c0.01,0,0.02-0.01,0.02-0.01c0.01-0.01,0.02-0.01,0.02-0.01c0.01-0.01,0.02-0.01,0.02-0.01
			c0.16-0.1,0.26-0.22,0.37-0.36c0.23-0.27,0.48-0.67,0.8-0.82c0.01-0.01,0.02-0.01,0.02-0.01c0.01,0,0.02-0.01,0.02-0.01
			c0.01,0,0.02-0.01,0.02-0.01c0.01,0,0.02-0.01,0.02-0.01c0.01,0,0.02,0,0.02,0c0.01,0,0.02,0,0.02,0c0.01,0,0.02,0,0.02,0
			c0.01,0,0.02,0,0.02,0c0.01,0,0.02,0,0.02,0c0.01,0,0.02,0,0.02,0c0.01,0,0.02,0,0.02,0c0.01,0,0.02,0,0.02,0
			c0.01,0,0.02,0,0.02,0c0.01,0,0.02,0,0.02,0s0.02,0,0.02,0l0.02,0l0.02,0.01l0.02,0.01l0.02,0.01l0.02,0.01l0.02,0.01l0.02,0.01
			l0.02,0.01c0,0,0.02,0.01,0.02,0.01l0.02,0.01l0.02,0.01l0.02,0.01l0.02,0.01l0.02,0.01l0.02,0.01l0.02,0.01
			c0,0,0.02,0.02,0.02,0.02c0.22,0.21,0.38,0.47,0.54,0.73c0.88,1.58,1.78,4.07,2.59,5.69c0.39,0.78,0.8,1.56,1.34,2.25
			c0.28,0.34,0.59,0.68,0.98,0.89c1.04,0.56,2.17-0.15,3.04-0.72l1.19-0.81c0.71-0.46,1.47-0.94,2.33-0.98
			c0.71-0.03,1.39,0.22,2.03,0.5c1.34,0.61,2.73,1.54,4.26,1.46c0.86-0.04,1.68-0.37,2.44-0.74c2.18-1.09,4.34-2.96,6.56-3.96
			c0.56-0.25,1.16-0.44,1.78-0.49c0.6-0.05,1.21,0.02,1.79,0.18c1.68,0.46,3.42,1.56,5.03,2.19c1.38,0.56,2.85,0.94,4.34,1.12
			c0.79,0.09,1.6,0.14,2.39,0.01c0.33-0.06,0.67-0.15,0.94-0.36c0.01-0.01,0.03-0.02,0.03-0.02c0.01-0.01,0.02-0.02,0.02-0.02
			c0.01-0.01,0.02-0.02,0.02-0.02c0.01-0.01,0.02-0.02,0.02-0.02c0.01-0.01,0.02-0.02,0.02-0.02c0.01-0.01,0.02-0.02,0.02-0.02
			c0.01-0.01,0.02-0.03,0.02-0.03c0.01-0.01,0.02-0.03,0.02-0.03c0.01-0.01,0.02-0.03,0.02-0.03c0.01-0.01,0.01-0.03,0.01-0.03
			c0.01-0.01,0.01-0.03,0.01-0.03c0.01-0.01,0.01-0.03,0.01-0.03s0.01-0.01,0.01-0.01l0.01-0.01c0,0,0-0.01,0-0.01s0-0.02,0-0.02
			l0-0.02l0-0.02l0-0.02c0,0,0-0.02,0-0.02l0-0.02c0,0,0-0.02,0-0.02s0-0.02,0-0.02l0-0.02l0-0.02l0-0.02c0,0,0-0.02,0-0.02
			s0-0.02,0-0.02l0-0.02l0-0.02c0,0,0-0.02,0-0.02l0-0.02c0,0,0-0.02,0-0.02c-0.02-0.21-0.11-0.41-0.2-0.6
			c-0.23-0.45-0.55-0.87-0.86-1.28c-0.56-0.73-1.39-1.65-1.81-2.46c-0.08-0.16-0.15-0.33-0.17-0.51c0,0,0-0.02,0-0.02l0-0.02
			c0,0,0-0.02,0-0.02l0-0.02l0-0.02l0-0.01l0-0.01l0-0.01l0-0.01c0-0.01,0-0.03,0-0.03c0-0.01,0-0.03,0-0.03c0-0.01,0-0.03,0-0.03
			c0-0.01,0.01-0.03,0.01-0.03c0-0.01,0.01-0.03,0.01-0.03c0-0.01,0.01-0.03,0.01-0.03c0-0.01,0.01-0.02,0.01-0.02
			c0.01-0.01,0.01-0.02,0.01-0.02c0.01-0.01,0.01-0.02,0.01-0.02c0.01-0.01,0.01-0.02,0.01-0.02c0.01-0.01,0.02-0.02,0.02-0.02
			c0.01-0.01,0.02-0.02,0.02-0.02c0.01-0.01,0.02-0.02,0.02-0.02c0.01-0.01,0.02-0.02,0.02-0.02c0.01-0.01,0.02-0.02,0.02-0.02
			c0.01-0.01,0.02-0.02,0.02-0.02c0.01-0.01,0.02-0.02,0.02-0.02c0.01-0.01,0.02-0.02,0.02-0.02c0.17-0.12,0.35-0.18,0.55-0.24
			c0.88-0.22,2.07-0.24,2.97-0.38c0.39-0.06,0.79-0.13,1.17-0.27c0.22-0.09,0.46-0.21,0.63-0.39l0.02-0.02c0,0,0.02-0.02,0.02-0.02
			l0.01-0.02l0.01-0.02l0.01-0.02l0.01-0.02l0.01-0.02c0,0,0.01-0.02,0.01-0.02l0.01-0.02l0.01-0.02l0.01-0.02
			c0,0,0.01-0.02,0.01-0.02l0.01-0.02l0.01-0.02l0.01-0.02l0.01-0.02l0.01-0.02l0.01-0.02l0.01-0.02l0.01-0.02l0.01-0.02l0.01-0.02
			l0.01-0.02c0,0,0.01-0.02,0.01-0.02l0.01-0.02l0-0.02l0-0.02l0-0.02c0,0,0-0.02,0-0.02c0.04-0.3-0.01-0.6-0.09-0.88
			c-0.14-0.5-0.37-0.96-0.62-1.41c-0.56-0.97-1.26-1.88-1.98-2.74c-1.1-1.3-2.32-2.55-3.58-3.7c-1.11-1.01-2.78-2.35-3.68-3.53
			c-1.45-1.86-2.13-4.2-2.83-6.41c-0.86-2.94-1.88-6.75-2.92-9.6c-0.55-1.51-1.21-3.05-1.9-4.5c0,0-3.29-6.66-3.29-6.66
			c-1.19-2.5-2.24-5.12-2.89-7.81c-0.76-3.1-1.02-6.33-1.08-9.51c-0.16-8.55,1.43-17.58,2.89-26c0.71-4.24,1.12-8.92,1.41-13.22
			l1.58-27.56c0.5-7.12,3.54-44.55,4.22-52.4c0.16-1.61,0.37-3.42,0.65-5.02c0.2-1.14,0.47-2.34,0.79-3.45
			c0.31-1.13,1.06-3.16,1.45-4.29"/>
	</g>
	<g id="POLYLINE_6_">
		<path class="st21" d="M255.98,389.82c7.88-0.74,15.93-0.81,23.73,0.6c11.46,2.06,23.02,7.97,33.98,11.71
			c6.03,2.11,12.4,3.92,18.65,5.22c5.44,1.13,11.14,1.92,16.68,2.35c11.11,0.98,33.48,0.74,44.84,0.9
			c2.57-0.01,31.96,1.19,35.39,1.32"/>
	</g>
	<g id="POLYLINE_7_">
		<path class="st21" d="M191.68,571.62c-0.39,0.12-1.57,0.37-1.99,0.46c-2.51,0.57-3.63,1.58-3.94,4.19
			c-0.31,2.6,0.02,5.74-0.17,8.34c-0.05,0.73-0.14,1.48-0.36,2.18c-0.13,0.4-0.3,0.8-0.58,1.13c0,0-0.03,0.03-0.03,0.03l-0.03,0.03
			l-0.03,0.03l-0.03,0.03l-0.03,0.03c0,0-0.03,0.03-0.03,0.03l-0.03,0.03l-0.03,0.03l-0.03,0.02c0,0-0.03,0.02-0.03,0.02l-0.03,0.02
			l-0.03,0.02l-0.03,0.02l-0.03,0.02l-0.03,0.02l-0.03,0.02l-0.03,0.02l-0.03,0.02l-0.03,0.02c0,0-0.03,0.02-0.03,0.02l-0.03,0.02
			l-0.04,0.02l-0.04,0.02l-0.04,0.02l-0.04,0.02c0,0-0.04,0.01-0.04,0.01l-0.04,0.01l-0.04,0.01l-0.04,0.01l-0.04,0.01
			c0,0-0.04,0.01-0.04,0.01s-0.04,0.01-0.04,0.01s-0.05,0.01-0.05,0.01s-0.05,0.01-0.05,0.01l-0.05,0.01c0,0-0.05,0.01-0.05,0.01
			c-0.61,0.07-1.23-0.04-1.82-0.19c-1.37-0.37-2.7-1-3.98-1.62c-2.5-1.2-5.7-3.08-8.33-3.89c-0.72-0.21-1.48-0.38-2.23-0.29
			l-0.05,0.01l-0.05,0.01c-0.42,0.07-0.81,0.25-1.14,0.51c-0.5,0.39-0.86,0.93-1.18,1.46c-0.2,0.32-0.47,0.81-0.7,1.11
			c-0.14,0.18-0.31,0.38-0.52,0.46c-0.01,0-0.02,0.01-0.02,0.01c-0.01,0-0.02,0.01-0.02,0.01c-0.01,0-0.02,0.01-0.02,0.01
			l-0.02,0.01c0,0-0.02,0.01-0.02,0.01l-0.02,0l-0.02,0l-0.02,0l-0.03,0c0,0-0.03,0-0.03,0s-0.03,0-0.03,0l-0.03,0l-0.03,0l-0.03,0
			l-0.03,0l-0.03,0l-0.03,0l-0.03-0.01l-0.03-0.01c0,0-0.03-0.01-0.03-0.01s-0.03-0.01-0.03-0.01l-0.03-0.01
			c0,0-0.03-0.01-0.03-0.01s-0.03-0.01-0.03-0.01l-0.03-0.01l-0.03-0.01c0,0-0.03-0.01-0.03-0.01l-0.03-0.01l-0.03-0.02
			c0,0-0.03-0.02-0.03-0.02l-0.03-0.02c-0.26-0.15-0.49-0.35-0.7-0.57c-0.4-0.4-0.76-0.86-1.1-1.32c-2.04-2.81-5.23-8.54-7.13-11.48
			c-2.68-4.38-6.94-9.4-10.19-13.42c-3.09-3.88-5.94-8.16-7.1-13.05c-0.57-2.35-0.77-4.79-0.79-7.2
			c-0.08-7.88,2.24-18.84,3.44-26.68c0.44-2.94,0.81-6.01,0.9-8.98c0.08-2.66-0.06-5.39-0.33-8.04c-0.32-3.18-1.03-8.1-1.25-11.26
			c-0.17-2.28-0.21-4.68-0.12-6.97c0.55-12.17,3.7-24.79,6.43-36.65c0.97-4.41,1.7-8.97,1.32-13.49c-0.23-3.05-0.97-6.08-1.83-9.01
			c-1.9-6.38-4.82-13.75-6-20.3c-0.62-3.28-0.8-6.65-0.53-9.98c0.4-6.02,2.61-13.75,4-19.65c0.84-3.56,1.48-7.34,1.93-10.97
			c0.7-5.51,1.38-15.65,2.21-21.11c0.72-4.87,1.87-9.77,3.28-14.49c1.25-4.06,2.53-8.3,4.4-12.12c2.46-5.05,5.84-9.64,9.37-13.99
			c3.5-4.27,7.36-8.37,11.47-12.06c3.07-2.74,6.38-5.36,9.91-7.49c4.21-2.55,8.89-4.33,13.6-5.73l8.37-2.41
			c3.94-1.15,7.87-2.71,11.58-4.46c6.39-2.98,13.73-6.94,20.56-8.55c3.49-0.83,7.11-1.15,10.69-1.12c2.9,0.02,5.98,0.27,8.87,0.58
			c23.58,3,70.6,10.84,93.85,13.12c4.2,0.4,8.8,0.74,13.02,0.81c5.17,0.1,10.44-0.17,15.55-0.95c12.64-1.96,24.76-6.76,35.8-13.13"
			/>
	</g>
	<g id="POLYLINE_8_">
		<path class="st21" d="M200.03,601.54c-0.08,2.12-0.23,7.05,1.91,8.15c0.23,0.12,0.5,0.19,0.75,0.26c1.23,0.32,2.54,0.44,3.8,0.54
			c1.72,0.13,3.71,0.16,5.45,0.16c11.36-0.07,31.72,0.15,43.02-0.09c1.55-0.12,3.12-0.34,4.59-0.89c0.55-0.2,1.1-0.48,1.47-0.95
			c0.29-0.34,0.46-0.78,0.51-1.22c0.06-0.51-0.01-1.03-0.14-1.52c-0.12-0.49-0.34-1.01-0.53-1.48c-1.4-3.3-3.34-6.91-5-10.11"/>
	</g>
	<g id="POLYLINE_9_">
		<path class="st21" d="M194.09,522.73c0.18-1.12,0.62-2.2,1.14-3.21c0.59-1.12,1.31-2.19,2.2-3.11c0.33-0.34,0.69-0.66,1.09-0.92
			c0.27-0.17,0.57-0.32,0.88-0.39c0.33-0.07,0.67-0.04,0.99,0.04c0,0,0.45,0.11,0.45,0.11c0.26,0.06,0.57,0.1,0.8-0.05
			c0.06-0.04,0.12-0.09,0.16-0.13l0.02-0.02l0.02-0.02l0.02-0.02l0.01-0.02c0,0,0.01-0.02,0.01-0.02c0.28-0.37,0.42-0.82,0.56-1.26
			c0.69-2.36,1.06-5.6,1.72-7.97c0.15-0.54,0.33-1.09,0.58-1.6c0.15-0.28,0.33-0.56,0.59-0.75c0.24-0.18,0.53-0.27,0.82-0.33
			c0.45-0.08,0.96-0.14,1.31-0.46l0.02-0.02l0.02-0.02l0.02-0.02c0,0,0.02-0.02,0.02-0.02s0.02-0.02,0.02-0.02l0.02-0.02
			c0.29-0.32,0.48-0.72,0.65-1.12c0.58-1.48,0.85-3.11,1.13-4.67l1.27-8.4c0.38-2.28,0.84-4.64,1.5-6.85
			c0.67-2.28,1.55-4.54,2.6-6.67c1.34-2.73,3.01-5.34,4.78-7.81c2.29-3.21,4.85-6.29,7.71-9.01"/>
	</g>
	<g id="POLYLINE_10_">
		<path class="st21" d="M268.51,321.3c2.47,10.35,3.88,21.18,2.19,31.77c-1.25,8.07-4.21,15.82-7.64,23.2
			c-3.35,7.16-7.51,14.44-11.59,21.22c-3.45,5.72-9.23,14.88-12.22,20.76c-1.88,3.63-3.56,7.45-4.87,11.33
			c-2.65,7.73-4.64,17.84-6.53,25.83c0,0-5.34,21.36-5.34,21.36c-1.99,8.54-3.43,17.32-3.71,26.09c-0.25,7.46,0.2,15.04,1.8,22.34
			c0.74,3.36,1.77,6.74,2.95,9.98c1.82,5.09,5.46,13.08,7.43,18.13l3.11,8.23c0.98,2.47,2.04,4.98,3.42,7.26
			c1,1.65,2.21,3.22,3.68,4.47c2.21,1.9,5.06,3.33,7.38,5.08c1.49,1.11,2.84,2.44,3.87,3.99c1.22,1.82,1.98,3.92,2.52,6.03
			c0.47,1.87,0.77,3.8,0.88,5.72c0.07,1.42,0.06,2.86-0.16,4.27c-0.1,0.65-0.25,1.31-0.5,1.93c-0.16,0.4-0.37,0.8-0.66,1.12
			l-0.03,0.03l-0.03,0.03l-0.03,0.03l-0.03,0.03l-0.03,0.03c0,0-0.03,0.03-0.03,0.03l-0.03,0.03c0,0-0.03,0.03-0.03,0.03l-0.03,0.02
			c0,0-0.03,0.02-0.03,0.02l-0.03,0.02c0,0-0.03,0.02-0.03,0.02l-0.03,0.02l-0.03,0.02l-0.03,0.02l-0.03,0.02l-0.03,0.02l-0.03,0.02
			c0,0-0.03,0.02-0.03,0.02c-0.37,0.17-0.79,0.18-1.18,0.13c-0.71-0.11-1.38-0.41-2.03-0.7c-1.21-0.55-2.62-1.38-3.95-1.54
			c-0.4-0.05-0.81-0.01-1.19,0.13c-1.12,0.42-1.94,1.46-2.81,2.23c-0.35,0.31-0.73,0.61-1.18,0.77c-0.4,0.15-0.82,0.12-1.22-0.02
			c-0.51-0.17-0.98-0.47-1.42-0.77c-1.26-0.86-2.5-2.05-3.98-2.53c-0.39-0.12-0.8-0.18-1.2-0.13c-0.98,0.1-1.86,0.63-2.68,1.16
			c-0.94,0.61-2.05,1.49-3.12,1.83c-0.37,0.12-0.76,0.16-1.14,0.1c-1.01-0.16-1.94-0.85-2.81-1.36c-0.73-0.44-1.54-0.85-2.42-0.84
			c-0.47,0-0.93,0.12-1.37,0.27c-1.12,0.4-2.39,1.23-3.43,1.82c-0.56,0.32-1.15,0.63-1.76,0.83c-0.4,0.13-0.82,0.22-1.23,0.19
			c-0.71-0.05-1.36-0.39-1.95-0.76c-0.75-0.46-1.6-1.08-2.47-1.29c-0.47-0.12-0.97-0.11-1.45-0.03c-0.97,0.15-2.05,0.58-2.98,0.88
			c-1.01,0.32-2.11,0.63-3.17,0.35c-0.72-0.2-1.36-0.64-1.88-1.17c-0.8-0.82-1.37-1.83-1.8-2.89c-1.52-3.69-0.71-7.83-1.37-11.67
			c-0.53-3.3-2.35-7.38-3.51-10.53c-1.01-2.68-1.87-5.48-2.33-8.31c-1.13-6.84-0.64-13.89,0.71-20.66
			c0.91-4.43,2.26-10.13,2.65-14.58c0.3-3.08,0.26-6.22-0.08-9.3c-1.03-9.56-4.78-21.54-6.74-30.97c-1.97-9.35-3-19.07-1.75-28.59
			c0.56-4.48,1.75-8.96,3.09-13.27c2.02-6.47,5.01-14.37,5.92-21.04c0.48-3.48,0.49-7.04,0.02-10.53c-0.7-5.25-2.43-10.34-4.47-15.2
			c-3.82-9.05-10.42-21.04-14.75-29.9c-3.44-6.97-6.67-14.29-9.07-21.68c-3.28-9.86-5.48-20.43-7.39-30.64"/>
	</g>
	<g id="POLYLINE_11_">
		<path class="st21" d="M420.43,511.32l0.07,0.86c0.05,0.56,0.14,1.13,0.34,1.66c0.25,0.66,0.77,1.37,1.15,1.97
			c0.49,0.75,0.94,1.54,1.25,2.38c0.31,0.82,0.47,1.69,0.61,2.55c0,0,0.37,2.61,0.37,2.61c0.07,0.42,0.15,0.86,0.27,1.27
			c0.07,0.21,0.16,0.44,0.3,0.61c0.01,0.01,0.02,0.02,0.02,0.02c0.01,0.01,0.02,0.02,0.02,0.02c0.01,0.01,0.02,0.02,0.02,0.02
			c0.01,0.01,0.02,0.02,0.02,0.02c0.01,0.01,0.02,0.02,0.02,0.02c0.01,0.01,0.02,0.02,0.02,0.02c0.01,0.01,0.02,0.01,0.02,0.01
			c0.01,0.01,0.02,0.01,0.02,0.01c0.01,0.01,0.02,0.01,0.02,0.01c0.01,0.01,0.02,0.01,0.02,0.01c0.01,0,0.02,0.01,0.02,0.01
			c0.01,0,0.02,0.01,0.02,0.01c0.01,0,0.02,0.01,0.02,0.01c0.01,0,0.02,0,0.02,0c0.01,0,0.02,0,0.02,0c0.01,0,0.02,0,0.02,0
			c0.01,0,0.03,0,0.03,0c0.01,0,0.03,0,0.03,0c0.01,0,0.03,0,0.03,0c0.01,0,0.03,0,0.03,0c0.01,0,0.03,0,0.03,0
			c0.01,0,0.03-0.01,0.03-0.01c0.01,0,0.03-0.01,0.03-0.01c0.01,0,0.03-0.01,0.03-0.01c0.15-0.05,0.28-0.13,0.4-0.22
			c0.58-0.42,1.4-1.31,1.92-1.81c0.55-0.53,1.14-1.06,1.81-1.44c0.37-0.21,0.78-0.38,1.21-0.42c0.46-0.05,0.92,0.05,1.35,0.22
			c1.21,0.5,2.3,1.58,3.3,2.41c0.3,0.25,0.62,0.51,0.95,0.7c0.17,0.1,0.35,0.18,0.55,0.21l0.02,0c0,0,0.02,0,0.02,0
			c0.3,0.04,0.57-0.11,0.77-0.32c0.23-0.23,0.4-0.51,0.57-0.78c0.4-0.68,0.84-1.51,1.41-2.06c1.15-1.14,2.72-1.7,4.22-2.23"/>
	</g>
	<g id="POLYLINE_12_">
		<path class="st21" d="M404.2,605.33c0,1.81,0.32,4.09,2.14,4.96c0.4,0.19,0.84,0.29,1.27,0.33c10.41,0.05,35.67,0.03,46.35,0.01
			c0.84-0.03,1.69-0.11,2.51-0.32c0.43-0.12,0.86-0.28,1.22-0.54c0.28-0.2,0.51-0.5,0.61-0.82c0.12-0.39,0.08-0.81,0-1.2
			c-0.12-0.54-0.33-1.06-0.58-1.55c-0.39-0.79-0.88-1.54-1.38-2.26"/>
	</g>
	<g id="POLYLINE_13_">
		<path class="st21" d="M419.06,349.35c-0.28,10.74-0.38,21.93,0.49,32.63c0.44,4.95,1.03,9.99,2.45,14.77
			c0.4,1.31,0.88,2.59,1.51,3.81c0.37,0.72,0.92,1.49,1.33,2.19c1.05,1.73,2.05,3.56,2.89,5.41c1.5,3.27,2.61,6.76,3.13,10.32
			c0.53,3.8,0.46,7.77,0.29,11.6c-0.27,5.4-0.95,11.19-1.71,16.56c-1.14,7.97-2.66,16.53-4.37,24.39
			c-1.48,6.9-3.54,13.96-4.27,20.98c-0.26,2.47-0.4,5.01-0.16,7.49c0.07,0.77,0.22,1.55,0.35,2.31c0.1,0.67,0.18,1.36,0.22,2.03
			c0.13,2.29-0.11,4.61-0.64,6.84c-0.46,1.96-1.14,3.91-1.95,5.76c-2.09,4.79-3.83,10.24-5.44,15.21
			c-2.82,9.07-5.95,19.77-8.18,28.99c-1.75,7.29-3.44,15.29-4.55,22.7c-0.59,4.07-1.14,8.31-1.12,12.43
			c0.02,1.35,0.09,2.72,0.35,4.04c0.16,0.77,0.37,1.55,0.75,2.25c0.17,0.31,0.38,0.61,0.63,0.85c1.13,0.98,2.37,1.92,3.62,2.74
			c0.69,0.44,1.41,0.86,2.15,1.21c0.28,0.14,0.58,0.24,0.89,0.28c0.35,0.05,0.71,0.03,1.05-0.05c0.49-0.11,0.94-0.34,1.36-0.61
			c0.62-0.4,1.16-0.92,1.66-1.46c0.42-0.45,0.79-0.96,1.22-1.41c0.51-0.54,1.09-1.04,1.77-1.37c0.43-0.21,0.9-0.34,1.37-0.34
			c0.49-0.01,0.97,0.12,1.4,0.34c0.34,0.16,0.64,0.39,0.94,0.62c0.26,0.19,0.53,0.37,0.81,0.53c1.03,0.59,2.22,0.91,3.4,0.85
			c0.43-0.02,0.87-0.09,1.29-0.19c0.35-0.09,0.7-0.21,1.05-0.27c1.07-0.22,2.18-0.24,3.27-0.19c1.89,0.09,3.81,0.41,5.66,0.79
			c2.11,0.46,4.27,0.95,6.44,0.97c0.91,0,1.86-0.06,2.7-0.45c0.19-0.09,0.37-0.2,0.53-0.33c0.15-0.13,0.27-0.27,0.43-0.38
			c0.37-0.29,0.83-0.46,1.29-0.53c0.96-0.15,1.93,0.05,2.85,0.33c0.75,0.23,1.48,0.56,2.2,0.86c0.71,0.29,1.46,0.56,2.21,0.72
			c0.62,0.13,1.26,0.21,1.89,0.08c0.29-0.06,0.59-0.19,0.82-0.37c0.22-0.17,0.37-0.39,0.53-0.61c0.36-0.51,0.63-1.09,0.82-1.68
			c0.22-0.65,0.36-1.34,0.45-2.03c0.05-0.34,0.08-0.69,0.06-1.04c-0.06-1.12-0.49-2.19-1.02-3.17c-0.78-1.43-1.82-2.72-2.9-3.93
			c-0.63-0.74-1.25-1.51-1.76-2.34c-0.28-0.46-0.53-0.93-0.68-1.45c-0.11-0.38-0.17-0.81-0.03-1.2c0.05-0.16,0.15-0.29,0.25-0.41
			c0.08-0.09,0.19-0.16,0.26-0.24c0.34-0.35,0.38-0.86,0.33-1.32c-0.05-0.48-0.2-0.96-0.36-1.42c-0.33-0.89-0.79-1.77-1.26-2.61
			c-1.18-2.09-2.65-4-3.7-6.17c-1.2-2.39-2.08-4.96-2.48-7.6c-0.2-1.23-0.25-2.49-0.28-3.73c-0.04-0.98-0.12-2.02-0.23-3
			c-0.26-2.31-0.72-4.62-1.4-6.85c-0.41-1.39-0.99-2.76-1.42-4.15c-0.91-2.92-1.41-5.97-1.5-9.03c-0.07-3.12,0.13-6.29,0.8-9.35
			c0.32-1.5,0.86-3.01,1.42-4.43c0.96-2.6,1.86-5.46,2.64-8.12c8.57-29.49,18.94-63.89,29.07-92.79c0,0,0.81-2.24,0.81-2.24
			s0.69-1.85,0.69-1.85s0.08-0.21,0.08-0.21c0.21-0.53,0.45-1.09,0.7-1.6c1.1-2.28,2.64-4.36,4.51-6.06
			c1.34-1.23,2.87-2.25,4.46-3.14c2.49-1.41,5.18-2.59,7.85-3.61c1.77-0.67,3.78-1.36,5.59-1.91c2.36-0.68,4.78-1.48,7.05-2.43
			c3.23-1.34,6.37-3.01,9.24-5c1.15-0.79,2.33-1.68,3.36-2.63c1.17-1.07,2.25-2.28,3.21-3.55c1.98-2.61,3.54-5.55,4.8-8.57
			c1.17-2.8,1.7-4.68,2.58-7.42c1.85-5.93,3.64-12.44,5.07-18.5c1.74-7.69,3.57-15.59,6.92-22.76"/>
	</g>
	<g id="POLYLINE_14_">
		<path class="st21" d="M574.94,175.9c-2.04,1.15-4.16,2.32-6.46,2.84c-1.64,0.4-4.07,0.48-5.77,0.63
			c-1.16,0.11-2.34,0.26-3.44,0.66c-0.49,0.18-0.96,0.42-1.4,0.69c-1.08,0.67-2.16,1.64-3.26,2.28c-0.55,0.33-1.15,0.61-1.76,0.81
			c-0.77,0.25-1.58,0.38-2.38,0.47c-4.17,0.44-8.81-0.16-12.9,0.88c-3.17,0.78-6.25,2.93-9.09,4.49c-1.41,0.77-2.89,1.43-4.43,1.88
			c-2.97,0.9-6.87,1.36-9.92,1.97c-1.44,0.3-2.9,0.65-4.26,1.22c-0.94,0.39-1.82,0.92-2.65,1.5c-1.21,0.86-2.54,2.04-3.75,2.9
			c-1.01,0.72-2.12,1.29-3.29,1.69c-1.98,0.69-4.79,1.23-6.8,1.85c-1.59,0.48-3.17,1.1-4.58,1.99c-3.97,2.5-7.06,6.68-10.92,9.33
			c-1.41,0.98-2.99,1.69-4.6,2.25c-1.67,0.59-3.85,1.15-5.53,1.71c-1.11,0.38-2.22,0.82-3.21,1.45c-1.75,1.1-3.18,2.86-4.6,4.33
			c-1.08,1.14-2.27,2.2-3.62,3.02c-3.12,1.87-7.15,2.97-10.55,4.24c-1.3,0.49-2.64,1.03-3.85,1.73c-1.67,0.94-3.15,2.44-4.54,3.73
			c-1.23,1.15-2.62,2.16-4.14,2.89c-2.97,1.47-6.71,2.59-9.77,3.85c-0.82,0.34-1.69,0.73-2.46,1.17c-0.72,0.41-1.39,0.92-1.93,1.55
			c-0.77,0.88-1.18,1.73-1.8,2.66c-0.47,0.93-1.12,1.94-1.38,2.95c-0.14,0.52-0.18,1.07-0.09,1.6c0.14,0.8,0.53,1.54,0.95,2.24
			c1.3,2.07,3.3,4.33,4.71,6.32c1.11,1.53,2.14,3.16,2.93,4.88c0.66,1.45,1.15,2.99,1.53,4.54c1.99,8.33,1.09,17.6,4.85,25.49
			c3.08,6.53,8.3,12.22,11.67,18.58c2.68,4.83,4.12,10.52,5.61,15.81c0.53,1.77,1.06,3.74,1.95,5.37c0.23,0.41,0.51,0.82,0.87,1.12
			l0.03,0.02l0.03,0.02l0.03,0.02l0.03,0.02c0,0,0.03,0.02,0.03,0.02l0.03,0.02c0,0,0.03,0.02,0.03,0.02l0.03,0.02l0.03,0.02
			l0.03,0.02l0.03,0.02c0,0,0.03,0.02,0.03,0.02s0.03,0.01,0.03,0.01s0.03,0.01,0.03,0.01l0.03,0.01c0,0,0.03,0.01,0.03,0.01
			l0.03,0.01c0,0,0.03,0.01,0.03,0.01l0.03,0.01l0.02,0.01l0.02,0.01l0.02,0l0.02,0l0.02,0l0.02,0l0.02,0c0,0,0.02,0,0.02,0l0.02,0
			c0.33,0.03,0.66-0.06,0.96-0.21c0.43-0.22,0.8-0.54,1.13-0.88c0.72-0.76,1.3-1.66,1.79-2.58c0.7-1.32,1.23-2.73,1.6-4.17
			c0.52-2.03,0.7-4.18,0.8-6.27c0.09-2.23,0.09-5.03,0.46-7.22c0.14-0.82,0.35-1.64,0.69-2.4c0.4-0.93,0.97-1.79,1.57-2.6
			c0.73-0.97,1.82-2.34,2.45-3.35c0.55-0.86,1.03-1.79,1.41-2.74c0.61-1.52,0.96-3.15,1.19-4.77c0.37-2.62,0.49-5.43,0.57-8.07
			c0.13-3.48,0.03-8.37,0.59-11.77c0.11-0.6,0.25-1.21,0.53-1.75l0.02-0.04c0,0,0.02-0.04,0.02-0.04l0.02-0.04
			c0,0,0.02-0.04,0.02-0.04s0.02-0.04,0.02-0.04l0.02-0.03l0.02-0.03l0.02-0.03l0.02-0.03c0,0,0.03-0.03,0.03-0.03
			s0.03-0.03,0.03-0.03l0.03-0.03l0.03-0.03c0,0,0.03-0.02,0.03-0.02s0.03-0.02,0.03-0.02l0.03-0.02l0.03-0.02
			c0,0,0.02-0.02,0.02-0.02l0.02-0.01l0.02-0.01c0,0,0.02-0.01,0.02-0.01s0.02-0.01,0.02-0.01l0.02-0.01c0,0,0.02-0.01,0.02-0.01
			l0.02-0.01c0,0,0.02-0.01,0.02-0.01s0.02-0.01,0.02-0.01s0.02-0.01,0.02-0.01s0.02-0.01,0.02-0.01s0.02-0.01,0.02-0.01
			s0.02-0.01,0.02-0.01s0.02-0.01,0.02-0.01l0.02,0l0.02,0l0.02,0l0.02,0l0.03,0l0.03,0l0.03,0c0,0,0.03,0,0.03,0l0.03,0l0.03,0
			l0.03,0l0.03,0c0,0,0.03,0,0.03,0l0.03,0l0.03,0l0.03,0l0.03,0.01l0.03,0.01c0,0,0.03,0.01,0.03,0.01l0.03,0.01l0.03,0.01
			c0,0,0.03,0.01,0.03,0.01l0.03,0.01c0.57,0.2,1.02,0.62,1.44,1.04c0.95,0.99,1.71,2.15,2.4,3.33c1.36,2.37,2.44,4.93,3.23,7.54
			c0.61,2.05,1.04,4.19,1.34,6.3c0.99,6.72,0.75,14.09,3,20.57c2.38,6.92,8.41,12.84,13.01,18.36c1.7,2.04,3.29,4.24,4.52,6.6
			c1.77,3.34,3.24,7.21,5.13,10.48c2.38,4.16,5.53,7.89,9.08,11.1c1.38,1.21,2.84,2.39,4.48,3.22c0.71,0.34,1.47,0.65,2.27,0.63
			c0,0,0.04,0,0.04,0l0.04,0l0.04,0c0,0,0.04,0,0.04,0l0.04,0c0,0,0.04-0.01,0.04-0.01l0.04-0.01l0.04-0.01l0.04-0.01l0.04-0.01
			c0,0,0.04-0.01,0.04-0.01l0.04-0.01c0,0,0.04-0.01,0.04-0.01l0.04-0.01l0.04-0.01l0.04-0.01c0,0,0.03-0.01,0.03-0.01l0.03-0.01
			l0.03-0.02l0.03-0.02l0.03-0.02l0.03-0.02c0,0,0.03-0.02,0.03-0.02s0.03-0.02,0.03-0.02s0.03-0.02,0.03-0.02l0.03-0.02l0.03-0.02
			l0.03-0.02l0.03-0.02l0.03-0.02l0.03-0.02c0,0,0.03-0.02,0.03-0.02l0.03-0.02l0.03-0.02l0.02-0.03l0.02-0.03l0.02-0.03
			c0,0,0.02-0.03,0.02-0.03l0.02-0.03l0.02-0.03c0,0,0.02-0.03,0.02-0.03c0.23-0.3,0.38-0.65,0.49-1.01
			c0.21-0.65,0.31-1.34,0.38-2.02c0.29-2.92,0.13-6.39,0.63-9.29c0.19-1.09,0.48-2.19,1.02-3.15c0.82-1.47,2.2-2.51,3.62-3.36
			c1.8-1.08,3.91-2.11,5.28-3.74c0.76-0.89,1.29-1.97,1.7-3.06c0.86-2.24,1.23-4.77,2.01-7.04c0.2-0.51,0.41-1.05,0.82-1.43
			l0.02-0.02l0.02-0.02l0.02-0.02l0.02-0.02l0.02-0.01l0.02-0.01l0.02-0.01l0.02-0.01c0,0,0.02-0.01,0.02-0.01l0.02-0.01
			c0,0,0.02-0.01,0.02-0.01l0.02-0.01c0,0,0.02-0.01,0.02-0.01c0.01,0,0.02-0.01,0.03-0.01c0,0,0.02-0.01,0.02-0.01l0.02-0.01
			l0.02-0.01c0.51-0.2,1.07,0.06,1.5,0.34c0.55,0.37,1.02,0.86,1.44,1.37c0.6,0.74,1.11,1.55,1.54,2.4
			c1.26,2.44,1.57,5.54,2.01,8.22c0.2,1.19,0.47,2.41,0.83,3.57c0.51,1.56,1.19,3.09,2.03,4.5c0.3,0.5,0.63,0.99,1.01,1.43
			c0.2,0.23,0.44,0.47,0.72,0.59c0.01,0,0.02,0.01,0.02,0.01c0.01,0,0.02,0.01,0.02,0.01c0.01,0,0.02,0.01,0.02,0.01
			c0.01,0,0.02,0.01,0.02,0.01c0.01,0,0.02,0,0.02,0c0.01,0,0.02,0,0.02,0c0.01,0,0.02,0,0.02,0c0.01,0,0.02,0,0.02,0
			c0.01,0,0.02,0,0.02,0c0.01,0,0.02,0,0.02,0c0.01,0,0.02,0,0.02,0c0.01,0,0.02,0,0.02,0c0.01,0,0.02-0.01,0.02-0.01
			c0.01,0,0.02-0.01,0.02-0.01c0.01,0,0.02-0.01,0.02-0.01c0.01-0.01,0.02-0.01,0.02-0.01c0.01-0.01,0.02-0.02,0.02-0.02
			c0.01-0.01,0.02-0.02,0.02-0.02c0.01-0.01,0.02-0.02,0.02-0.02c0.01-0.01,0.02-0.02,0.02-0.02c0.01-0.01,0.02-0.02,0.02-0.02
			c0.01-0.01,0.02-0.03,0.02-0.03c0.01-0.01,0.02-0.03,0.02-0.03l0.01-0.01l0.01-0.02l0.01-0.02c0,0,0.01-0.02,0.01-0.02
			s0.01-0.02,0.01-0.02l0.01-0.02c0.07-0.17,0.11-0.35,0.14-0.53c0.08-0.49,0.1-1.03,0.12-1.53c0.08-3.49-0.11-7.21,1.07-10.53
			c0.66-1.84,1.74-3.52,2.88-5.1c1.53-2.09,3.33-4.36,4.45-6.68c1.56-3.09,2-6.6,2.28-10.02c0.22-2.45,0.28-6.75,0.76-9.14
			c0.1-0.44,0.22-0.88,0.45-1.27l0.02-0.03l0.02-0.03l0.02-0.03l0.02-0.02l0.02-0.02l0.02-0.02l0.02-0.02c0,0,0.02-0.02,0.02-0.02
			s0.02-0.02,0.02-0.02l0.02-0.02l0.02-0.02c0.23-0.23,0.57-0.31,0.87-0.23c0.28,0.07,0.54,0.22,0.77,0.4
			c0.59,0.48,1.02,1.13,1.35,1.81c0.51,1.06,0.84,2.22,1.12,3.37c0.91,3.82,1.62,8.28,2.97,11.97c0.56,1.58,1.24,3.17,2,4.67
			c0.56,1.09,1.17,2.2,1.89,3.2c0.25,0.35,0.52,0.7,0.83,1c0.16,0.16,0.34,0.31,0.54,0.42c0,0,0.02,0.01,0.02,0.01l0.02,0.01
			l0.02,0.01l0.02,0.01l0.02,0.01c0,0,0.02,0.01,0.02,0.01l0.02,0.01l0.02,0.01l0.02,0c0,0,0.02,0,0.02,0l0.02,0l0.02,0l0.02,0
			l0.02,0c0,0,0.02,0,0.02,0l0.02,0l0.01,0l0.01,0l0.01,0l0.01,0c0.01,0,0.03,0,0.03,0c0.01,0,0.03-0.01,0.03-0.01
			c0.01,0,0.03-0.01,0.03-0.01c0.01,0,0.03-0.01,0.03-0.01c0.01-0.01,0.03-0.01,0.03-0.01c0.01-0.01,0.02-0.01,0.02-0.01
			c0.01-0.01,0.03-0.02,0.03-0.02c0.01-0.01,0.02-0.02,0.02-0.02c0.01-0.01,0.02-0.02,0.02-0.02c0.01-0.01,0.02-0.02,0.02-0.02
			c0.01-0.01,0.02-0.03,0.02-0.03c0.01-0.01,0.02-0.03,0.02-0.03l0.01-0.02l0.01-0.02l0.01-0.02c0,0,0.01-0.02,0.01-0.02l0.01-0.02
			l0.01-0.02c0,0,0.01-0.02,0.01-0.02l0.01-0.02l0.01-0.02c0.17-0.41,0.2-0.87,0.23-1.31c0.14-3.6-0.28-7.64,0.38-11.19
			c0.23-1.27,0.63-2.51,1.14-3.69c0.6-1.43,1.64-3.27,2.29-4.68c0.51-1.12,0.93-2.3,1.05-3.53c0.13-1.26-0.06-2.54-0.33-3.77
			c-0.65-2.95-1.93-6.05-2.27-9.06c-0.07-0.68-0.09-1.38-0.01-2.07c0.08-0.74,0.26-1.48,0.51-2.18c0.56-1.65,1.77-3.67,2.54-5.24
			c0.55-1.11,1.05-2.28,1.38-3.48c0.46-1.72,0.57-3.52,0.54-5.29c-0.1-4.67-1.43-10.65-2.22-15.28c-0.92-5.34-1.23-10.84-0.38-16.21
			c0.55-3.95,2.39-10.07,3.4-13.98c0.9-3.58,1.64-7.28,1.57-10.98c-0.01-4.22-0.98-8.84-0.44-13.04c0.5-3.87,2.79-7.33,3.07-11.25
			c0.13-1.71-0.24-3.42-0.83-5.02c-1.52-4.09-4.46-8.21-6.76-11.92c-0.97-1.56-1.9-3.19-2.57-4.91c-0.49-1.26-0.84-2.58-1.02-3.91
			c-0.3-2.21-0.23-4.47-0.07-6.69c0.14-1.83,0.35-3.76,0.68-5.57c0.22-1.18,0.47-2.39,0.87-3.52c0.14-0.38,0.3-0.77,0.5-1.12
			c0.11-0.19,0.24-0.38,0.41-0.54l0.02-0.02l0.02-0.02l0.02-0.02l0.02-0.01l0.02-0.01l0.02-0.01l0.02-0.01c0,0,0.02-0.01,0.02-0.01
			s0.02-0.01,0.02-0.01s0.02-0.01,0.02-0.01l0.02-0.01c0,0,0.02-0.01,0.02-0.01c0.38-0.21,0.8,0,1.1,0.25
			c0.41,0.35,0.74,0.79,1.04,1.24c2.45,3.76,4.16,8.83,6.43,12.7c0.53,0.84,1.17,1.72,2.1,2.13c0.46,0.2,0.97,0.22,1.46,0.15
			c0.92-0.13,2.05-0.59,2.93-0.89c1.11-0.39,2.26-0.73,3.42-0.92c2.84-0.46,5.76-0.37,8.61-0.05c3.69,0.47,7.47,1.31,10.62,3.38
			c1.34,0.88,2.53,1.98,3.59,3.17c1.24,1.39,2.34,2.93,3.22,4.57c1.27,2.31,2.06,4.87,2.69,7.42c0.81,3.33,1.7,7.79,2.93,10.93
			c0.9,2.38,2.1,4.67,3.53,6.79c0.66,0.97,1.39,1.95,2.13,2.86c1.05,1.29,2.71,3.06,3.73,4.36c0.94,1.2,1.81,2.51,2.21,4
			c0.41,1.46,0.24,3.01-0.13,4.46c-0.68,2.63-2.21,5.67-3.29,8.18c-2.07,4.75-3.65,9.88-3.48,15.11c0.1,3.39,1.17,7.03,1.97,10.31
			c0.34,1.38,0.66,2.88,0.85,4.29c0.14,1.08,0.22,2.22,0.25,3.32c0.08,2.73-0.04,6.45,0.33,9.16c0.28,2.2,0.89,4.37,1.57,6.48
			c0.88,2.64,2.54,7.23,3.19,9.87c0.57,2.24,0.99,4.55,1.08,6.87c0.08,2.26-0.13,4.59-1.04,6.68c-1.15,2.73-3.83,4.65-6.03,6.52
			c-0.81,0.7-1.62,1.44-2.25,2.31c-0.71,0.96-1.23,2.29-1.71,3.38c-0.33,0.73-0.71,1.46-1.28,2.03c-0.43,0.44-0.97,0.76-1.55,0.98
			c-0.78,0.3-1.62,0.46-2.45,0.55c-1.27,0.14-2.6,0.14-3.88,0.09c-2.03-0.11-4.21-0.2-6.21-0.53c-1.19-0.21-2.38-0.58-3.37-1.3
			c-0.8-0.57-1.42-1.36-1.89-2.21c-0.59-1.05-1.02-2.21-1.41-3.35c-0.86-2.6-1.76-6.3-2.73-8.85c-0.42-1.13-0.93-2.25-1.55-3.29
			c-0.73-1.24-1.62-2.42-2.55-3.53c-1.13-1.35-2.84-3.24-3.83-4.67c-0.51-0.72-0.96-1.5-1.37-2.28c-0.64-1.22-1.5-3.24-2.11-4.48
			c-0.4-0.81-0.85-1.62-1.42-2.32c-0.37-0.46-0.81-0.86-1.3-1.19c-0.78-0.52-1.69-0.85-2.58-1.13c-1.25-0.38-2.94-0.85-4.14-1.32
			c-1.39-0.53-2.81-1.19-4.14-1.86"/>
	</g>
	<g id="POLYLINE_17_">
		<path class="st21" d="M619.45,293.01c-1.07,0.35-2.28,0.6-3.05,1.5c-0.46,0.52-0.72,1.17-0.9,1.83c-0.32,1.2-0.4,2.46-0.33,3.7
			c0.07,1.16,0.28,2.33,0.74,3.4c0.32,0.72,0.78,1.41,1.47,1.83c0.85,0.53,1.92,0.61,2.88,0.34c0.68-0.19,1.32-0.57,1.76-1.13
			c0.6-0.76,0.82-1.75,0.83-2.7c0.03-1.48-0.45-2.96-1.32-4.15"/>
	</g>
</g>
<g id="AG-OUTLINE">
	<g id="POLYLINE_1_">
		<path class="st22" d="M468.12,596.96c-0.51,3.25-0.73,6.62,0.02,9.84c0.27,1.09,0.66,2.22,1.46,3.03
			c0.36,0.36,0.83,0.63,1.33,0.75c0.19,0.04,0.38,0.06,0.57,0.07c5.52,0,29.67,0,35.66,0c1.66-0.01,3.37-0.07,4.98-0.5
			c0.72-0.2,1.45-0.5,1.94-1.09c0.56-0.65,0.81-1.51,0.91-2.35c0.09-0.75,0.09-1.52-0.06-2.27c-0.22-1.16-0.63-2.29-1.06-3.38
			c-0.85-2.1-1.94-4.21-3.02-6.2c0.47-0.06,0.95-0.12,1.4-0.26c0.29-0.09,0.6-0.22,0.81-0.44l0.02-0.02l0.02-0.02
			c0,0,0.02-0.02,0.02-0.02l0.01-0.02l0.01-0.02l0.01-0.02l0.01-0.02l0.01-0.02c0,0,0.01-0.02,0.01-0.02l0.01-0.02l0.01-0.02
			l0.01-0.02c0,0,0.01-0.02,0.01-0.02l0.01-0.02l0.01-0.02l0.01-0.02l0.01-0.02l0.01-0.02l0.01-0.02l0.01-0.02l0.01-0.02l0.01-0.02
			l0.01-0.02l0.01-0.02c0,0,0.01-0.02,0.01-0.02l0.01-0.02l0-0.02l0-0.02l0-0.02c0,0,0-0.02,0-0.02c0.04-0.3-0.01-0.6-0.09-0.88
			c-0.14-0.5-0.37-0.96-0.62-1.41c-0.56-0.97-1.26-1.88-1.98-2.74c-1.1-1.3-2.32-2.55-3.58-3.7c-1.11-1.01-2.78-2.35-3.68-3.53
			c-1.45-1.86-2.13-4.2-2.83-6.41c-0.86-2.94-1.88-6.75-2.92-9.6c-0.58-1.62-1.32-3.29-2.07-4.84c-1.32-2.7-3.58-7.02-4.63-9.77
			c-0.78-1.98-1.4-4.06-1.78-6.16c-0.61-3.36-0.75-6.83-0.69-10.24c0.11-5.39,0.79-10.89,1.65-16.22c0.42-2.51,1.49-8.55,1.77-11.02
			c0.38-2.9,0.66-6.52,0.87-9.45l1.58-27.56c0.5-7.12,3.54-44.55,4.22-52.4c0.16-1.61,0.37-3.42,0.65-5.02
			c0.2-1.14,0.47-2.34,0.79-3.45c0.31-1.13,1.06-3.16,1.45-4.29c3.88-1.34,7.65-3.09,11.1-5.31c1.81-1.18,3.61-2.44,5.17-3.95
			c1.86-1.79,3.43-3.87,4.76-6.08c3.53-5.83,5.3-12.73,7.25-19.2c1.1-3.84,2.31-8.46,3.23-12.35c1.74-7.7,3.56-15.58,6.92-22.76
			c0.84,1.23,1.46,2.61,1.85,4.05c0.85,3.12,0.94,6.69,2.05,9.75c0.6,1.67,1.36,3.31,2.36,4.78c0.2,0.29,0.42,0.58,0.67,0.83
			c0.16,0.16,0.35,0.33,0.56,0.42c0.01,0,0.02,0.01,0.02,0.01c0.01,0,0.02,0.01,0.02,0.01c0.01,0,0.02,0.01,0.02,0.01
			c0.01,0,0.02,0.01,0.02,0.01c0.01,0,0.02,0,0.02,0c0.01,0,0.02,0,0.02,0c0.01,0,0.02,0,0.02,0c0.01,0,0.02,0,0.02,0
			c0.01,0,0.02,0,0.02,0c0.01,0,0.02,0,0.02,0c0.01,0,0.02,0,0.02,0c0.01,0,0.02,0,0.02,0c0.01,0,0.02-0.01,0.02-0.01
			c0.01,0,0.02-0.01,0.02-0.01c0.01,0,0.02-0.01,0.02-0.01c0.01-0.01,0.02-0.01,0.02-0.01c0.01-0.01,0.02-0.02,0.02-0.02
			c0.01-0.01,0.02-0.02,0.02-0.02c0.01-0.01,0.02-0.02,0.02-0.02c0.01-0.01,0.02-0.02,0.02-0.02c0.01-0.01,0.02-0.02,0.02-0.02
			c0.01-0.01,0.02-0.03,0.02-0.03c0.01-0.01,0.02-0.03,0.02-0.03l0.01-0.01l0.01-0.02l0.01-0.02c0,0,0.01-0.02,0.01-0.02
			s0.01-0.02,0.01-0.02l0.01-0.02c0.07-0.17,0.11-0.35,0.14-0.53c0.08-0.49,0.1-1.03,0.12-1.53c0.08-3.49-0.11-7.21,1.07-10.53
			c0.66-1.84,1.74-3.52,2.88-5.1c1.53-2.09,3.33-4.36,4.45-6.68c1.56-3.09,2-6.6,2.28-10.02c0.22-2.45,0.28-6.75,0.76-9.14
			c0.1-0.44,0.22-0.88,0.45-1.27l0.02-0.03l0.02-0.03l0.02-0.03l0.02-0.02l0.02-0.02l0.02-0.02l0.02-0.02c0,0,0.02-0.02,0.02-0.02
			s0.02-0.02,0.02-0.02l0.02-0.02l0.02-0.02c0.23-0.23,0.57-0.31,0.87-0.23c0.28,0.07,0.54,0.22,0.77,0.4
			c0.59,0.48,1.02,1.13,1.35,1.81c0.51,1.06,0.84,2.22,1.12,3.37c0.91,3.82,1.62,8.28,2.97,11.97c0.56,1.58,1.24,3.17,2,4.67
			c0.56,1.09,1.17,2.2,1.89,3.2c0.25,0.35,0.52,0.7,0.83,1c0.16,0.16,0.34,0.31,0.54,0.42c0,0,0.02,0.01,0.02,0.01l0.02,0.01
			l0.02,0.01l0.02,0.01l0.02,0.01c0,0,0.02,0.01,0.02,0.01l0.02,0.01l0.02,0.01l0.02,0c0,0,0.02,0,0.02,0l0.02,0l0.02,0l0.02,0
			l0.02,0c0,0,0.02,0,0.02,0l0.02,0l0.01,0l0.01,0l0.01,0l0.01,0c0.01,0,0.03,0,0.03,0c0.01,0,0.03-0.01,0.03-0.01
			c0.01,0,0.03-0.01,0.03-0.01c0.01,0,0.03-0.01,0.03-0.01c0.01-0.01,0.03-0.01,0.03-0.01c0.01-0.01,0.02-0.01,0.02-0.01
			c0.01-0.01,0.03-0.02,0.03-0.02c0.01-0.01,0.02-0.02,0.02-0.02c0.01-0.01,0.02-0.02,0.02-0.02c0.01-0.01,0.02-0.02,0.02-0.02
			c0.01-0.01,0.02-0.03,0.02-0.03c0.01-0.01,0.02-0.03,0.02-0.03l0.01-0.02l0.01-0.02l0.01-0.02c0,0,0.01-0.02,0.01-0.02l0.01-0.02
			l0.01-0.02c0,0,0.01-0.02,0.01-0.02l0.01-0.02l0.01-0.02c0.13-0.31,0.17-0.66,0.21-1c0.05-0.57,0.06-1.2,0.06-1.78
			c-0.02-2.32-0.12-5.43,0.08-7.71c0.11-1.37,0.35-2.75,0.78-4.06c0.53-1.71,1.59-3.68,2.41-5.29c0.6-1.19,1.16-2.43,1.42-3.74
			c0.26-1.22,0.18-2.49-0.03-3.72c-0.41-2.32-1.37-4.98-1.94-7.27c-0.48-1.93-0.81-3.98-0.3-5.93c0.5-2.09,1.89-4.3,2.84-6.22
			c0.64-1.28,1.2-2.62,1.51-4.02c0.61-2.78,0.44-5.68,0.12-8.49c1.33,0.66,2.75,1.32,4.14,1.86c1.2,0.47,2.89,0.95,4.14,1.32
			c0.89,0.28,1.79,0.61,2.58,1.13c0.49,0.32,0.93,0.73,1.3,1.19c0.57,0.7,1.01,1.51,1.42,2.32c0.62,1.25,1.47,3.26,2.11,4.48
			c0.4,0.78,0.86,1.56,1.37,2.28c0.98,1.42,2.71,3.33,3.83,4.67c1.11,1.33,2.16,2.75,2.97,4.29c0.9,1.7,1.53,3.58,2.09,5.42
			c0.87,2.79,1.68,6.48,3.04,9.06c0.38,0.72,0.84,1.41,1.44,1.97c0.62,0.59,1.38,1.03,2.18,1.32c2.05,0.73,4.37,0.74,6.53,0.92
			c1.59,0.09,3.24,0.16,4.83,0.03c0.86-0.07,1.73-0.2,2.55-0.46c0.63-0.2,1.25-0.49,1.75-0.94c1.04-0.91,1.52-2.37,2.08-3.6
			c0.33-0.74,0.7-1.47,1.19-2.11c0.62-0.82,1.38-1.52,2.16-2.19c2.19-1.86,4.86-3.77,6.02-6.5c0.9-2.06,1.12-4.36,1.05-6.6
			c-0.08-2.2-0.45-4.4-0.97-6.53c-0.66-2.85-2.37-7.5-3.3-10.31c-0.68-2.11-1.3-4.28-1.57-6.48c-0.37-2.7-0.25-6.41-0.33-9.16
			c-0.04-1.09-0.11-2.23-0.25-3.32c-0.19-1.41-0.51-2.91-0.85-4.29c-0.8-3.29-1.86-6.9-1.97-10.28c-0.18-5.24,1.41-10.38,3.48-15.14
			c1.09-2.51,2.62-5.54,3.29-8.18c0.38-1.47,0.55-3.06,0.11-4.54c-0.45-1.57-1.4-2.93-2.41-4.19c-0.94-1.18-2.57-2.92-3.52-4.09
			c-0.74-0.91-1.47-1.88-2.13-2.86c-1.42-2.11-2.62-4.4-3.53-6.79c-1.22-3.15-2.12-7.64-2.93-10.93c-0.7-2.85-1.62-5.7-3.14-8.23
			c-1.47-2.46-3.37-4.73-5.67-6.45c-1.48-1.1-3.16-1.91-4.9-2.49c0.49-3.7-0.31-7.45-1.35-11c-0.48-1.54-0.96-3.23-1.79-4.62
			c-0.29-0.45-0.73-1.06-1.33-0.98c-0.41,0.07-0.72,0.35-0.99,0.64c-0.49,0.54-0.88,1.17-1.25,1.8c-1.19,2.16-2.28,4.46-3.14,6.77
			c-0.39,1.07-0.73,2.17-0.93,3.29c-0.14,0.81-0.2,1.64-0.21,2.47c-1.64,0.01-3.3,0.14-4.9,0.48c-1.47,0.31-3,0.94-4.43,1.4
			c-0.77,0.23-1.62,0.43-2.4,0.14c-0.9-0.34-1.52-1.14-2.04-1.92c-0.36-0.55-0.7-1.17-1-1.76c-0.87-1.69-2.65-5.67-3.5-7.41
			c-0.72-1.43-1.46-2.92-2.4-4.21c-0.26-0.34-0.54-0.68-0.9-0.92c-0.27-0.19-0.63-0.29-0.92-0.12l-0.02,0.01
			c0,0-0.02,0.01-0.02,0.01s-0.02,0.01-0.02,0.01l-0.02,0.01c0,0-0.02,0.01-0.02,0.01s-0.02,0.01-0.02,0.01s-0.02,0.01-0.02,0.01
			l-0.02,0.01l-0.02,0.01l-0.02,0.02l-0.02,0.02l-0.02,0.02c-0.38,0.37-0.59,0.86-0.79,1.34c-0.64,1.7-0.95,3.53-1.22,5.31
			c-0.32,2.29-0.53,4.68-0.57,6.99c-0.03,1.89,0.1,3.81,0.57,5.65c-2.04,1.15-4.16,2.32-6.46,2.84c-1.64,0.4-4.07,0.48-5.77,0.63
			c-1.16,0.11-2.34,0.26-3.44,0.66c-0.49,0.18-0.96,0.42-1.4,0.69c-1.08,0.67-2.16,1.64-3.26,2.28c-0.55,0.33-1.15,0.61-1.76,0.81
			c-0.77,0.25-1.58,0.38-2.38,0.47c-4.17,0.44-8.81-0.16-12.9,0.88c-3.17,0.78-6.25,2.93-9.09,4.49c-1.41,0.77-2.89,1.43-4.43,1.88
			c-2.97,0.9-6.87,1.36-9.92,1.97c-1.44,0.3-2.9,0.65-4.26,1.22c-0.94,0.39-1.82,0.92-2.65,1.5c-1.21,0.86-2.54,2.04-3.75,2.9
			c-1.01,0.72-2.12,1.29-3.29,1.69c-1.98,0.69-4.79,1.23-6.8,1.85c-1.59,0.48-3.17,1.1-4.58,1.99c-3.97,2.5-7.06,6.68-10.92,9.33
			c-1.41,0.98-2.99,1.69-4.6,2.25c-1.67,0.59-3.85,1.15-5.53,1.71c-1.11,0.38-2.22,0.82-3.21,1.45c-1.75,1.1-3.18,2.86-4.6,4.33
			c-1.08,1.14-2.27,2.2-3.62,3.02c-3.12,1.87-7.15,2.97-10.55,4.24c-1.3,0.49-2.64,1.03-3.85,1.73c-1.67,0.94-3.15,2.44-4.54,3.73
			c-1.23,1.15-2.62,2.16-4.14,2.89c-2.97,1.47-6.71,2.59-9.77,3.85c-0.82,0.34-1.69,0.73-2.46,1.17c-0.72,0.41-1.39,0.92-1.93,1.55
			c-0.77,0.88-1.18,1.73-1.8,2.66c-0.52,1.04-1.27,2.16-1.46,3.33c-0.12,0.68-0.04,1.39,0.21,2.03
			c-11.04,6.37-23.17,11.17-35.8,13.13c-5.11,0.78-10.38,1.05-15.55,0.95c-4.21-0.07-8.81-0.41-13.02-0.81
			c-23.1-2.26-70.42-10.13-93.85-13.12c-2.88-0.31-5.98-0.56-8.87-0.58c-3.58-0.03-7.2,0.29-10.69,1.12
			c-6.83,1.6-14.21,5.6-20.56,8.55c-3.7,1.75-7.65,3.31-11.58,4.46c0,0-8.37,2.41-8.37,2.41c-4.71,1.41-9.39,3.18-13.6,5.73
			c-3.53,2.13-6.84,4.74-9.91,7.49c-4.11,3.69-7.96,7.8-11.47,12.06c-3.53,4.35-6.91,8.94-9.37,13.99
			c-1.86,3.82-3.15,8.06-4.4,12.12c-1.41,4.72-2.56,9.62-3.28,14.49c-0.84,5.48-1.5,15.61-2.21,21.11
			c-0.44,3.63-1.09,7.41-1.93,10.97c-1.49,6.3-3.76,14.16-4.06,20.58c-0.19,3.19,0.06,6.41,0.68,9.54
			c1.21,6.34,4.06,13.62,5.91,19.81c0.86,2.93,1.61,5.96,1.83,9.01c0.38,4.52-0.35,9.08-1.32,13.49
			c-2.73,11.87-5.88,24.47-6.43,36.65c-0.09,2.29-0.06,4.69,0.12,6.97c0.22,3.15,0.93,8.1,1.25,11.26c0.27,2.64,0.41,5.38,0.33,8.04
			c-0.08,2.97-0.46,6.04-0.9,8.98c-1.21,7.9-3.52,18.77-3.44,26.68c0.02,2.41,0.21,4.85,0.79,7.2c1.16,4.89,4.01,9.17,7.1,13.05
			c3.27,4.04,7.5,9.03,10.19,13.42c1.91,2.95,5.09,8.66,7.13,11.48c0.34,0.45,0.7,0.92,1.1,1.32c0.21,0.21,0.44,0.41,0.7,0.57
			l0.03,0.02c0,0,0.03,0.02,0.03,0.02l0.03,0.02l0.03,0.01l0.03,0.01c0,0,0.03,0.01,0.03,0.01l0.03,0.01l0.03,0.01l0.03,0.01
			c0,0,0.03,0.01,0.03,0.01l0.03,0.01c0,0,0.03,0.01,0.03,0.01s0.03,0.01,0.03,0.01s0.03,0.01,0.03,0.01l0.03,0l0.03,0l0.03,0
			l0.03,0l0.03,0l0.03,0l0.03,0l0.03,0c0,0,0.03,0,0.03,0l0.02,0l0.02,0l0.02,0l0.02-0.01l0.02-0.01c0.01,0,0.02-0.01,0.02-0.01
			c0.01,0,0.02-0.01,0.02-0.01c0.01,0,0.02-0.01,0.02-0.01c0.23-0.1,0.38-0.28,0.52-0.46c0.22-0.29,0.5-0.79,0.7-1.11
			c0.33-0.53,0.69-1.07,1.18-1.46c0.33-0.26,0.72-0.44,1.14-0.51c0,0,0.05-0.01,0.05-0.01l0.05-0.01c0.75-0.09,1.51,0.08,2.23,0.29
			c2.63,0.81,5.85,2.69,8.33,3.89c1.28,0.62,2.6,1.25,3.98,1.62c0.59,0.15,1.21,0.27,1.82,0.19c0,0,0.05-0.01,0.05-0.01
			s0.05-0.01,0.05-0.01l0.05-0.01l0.05-0.01c0,0,0.04-0.01,0.04-0.01s0.04-0.01,0.04-0.01l0.04-0.01l0.04-0.01l0.04-0.01l0.04-0.01
			l0.04-0.01c0,0,0.04-0.02,0.04-0.02l0.04-0.02l0.04-0.02l0.04-0.02l0.03-0.02c0,0,0.03-0.02,0.03-0.02s0.03-0.02,0.03-0.02
			l0.03-0.02l0.03-0.02l0.03-0.02l0.03-0.02l0.03-0.02l0.03-0.02c0,0,0.03-0.02,0.03-0.02l0.03-0.02l0.03-0.02l0.03-0.02l0.03-0.03
			l0.03-0.03l0.03-0.03c0,0,0.03-0.03,0.03-0.03l0.03-0.03l0.03-0.03c0,0,0.03-0.03,0.03-0.03l0.03-0.03
			c0.27-0.33,0.45-0.73,0.58-1.13c0.22-0.7,0.31-1.45,0.36-2.18c0.19-2.61-0.14-5.75,0.17-8.34c0.1-0.75,0.26-1.53,0.64-2.19
			c0.29-0.5,0.72-0.92,1.21-1.22c0.64-0.39,1.36-0.6,2.08-0.77c0.42-0.1,1.59-0.34,1.99-0.46c0.76,2.91,2.37,6.83,3.45,9.67
			c0.57,1.55,1.13,3.17,1.46,4.79c0.21,1.02,0.33,2.09,0.39,3.13c0.14,2.35,0,4.88,0.48,7.19c0.23,1.11,0.61,2.21,1.15,3.21
			c0.38,0.7,0.84,1.37,1.42,1.93c-0.08,2.12-0.23,7.05,1.91,8.15c0.23,0.12,0.5,0.19,0.75,0.26c1.23,0.32,2.54,0.44,3.8,0.54
			c1.72,0.13,3.71,0.16,5.45,0.16c11.36-0.07,31.72,0.15,43.02-0.09c1.55-0.12,3.12-0.34,4.59-0.89c0.55-0.2,1.1-0.48,1.47-0.95
			c0.29-0.34,0.46-0.78,0.51-1.22c0.06-0.51-0.01-1.03-0.14-1.52c-0.12-0.49-0.34-1.01-0.53-1.48c-1.4-3.3-3.34-6.91-5-10.11
			c-0.09-1.91-0.36-3.83-0.81-5.69c-0.4-1.64-0.93-3.27-1.69-4.78c-0.9-1.83-2.21-3.44-3.77-4.76c-2.82-2.43-6.48-3.98-9.16-6.59
			c-3.05-3.03-4.78-7.11-6.36-11.04l-3.11-8.23c-1.97-5.05-5.61-13.05-7.43-18.13c-1.18-3.24-2.21-6.61-2.95-9.98
			c-2.24-10.35-2.28-21.11-1.1-31.6c1.19-11.49,5.56-26.89,8.35-38.2c2.13-9.01,4.18-19.84,7.46-28.44
			c4.01-10.72,12.56-23.34,18.39-33.25l2.26-3.9c7.88-0.74,15.93-0.81,23.73,0.6c11.46,2.06,23.02,7.97,33.98,11.71
			c6.03,2.11,12.4,3.92,18.65,5.22c5.44,1.13,11.14,1.92,16.68,2.35c11.11,0.98,33.48,0.74,44.84,0.9
			c2.57-0.01,31.96,1.19,35.39,1.32c0.78,2.26,1.37,4.63,1.68,7c0.28,2.21,0.35,4.49,0.35,6.71c-0.04,6.95-0.87,14.13-1.83,21.01
			c-1.33,9.32-3.12,19.12-5.24,28.29c-1.16,4.85-2.45,9.99-3.12,14.92c-0.41,3.02-0.69,6.11-0.47,9.15
			c0.06,0.92,0.22,1.85,0.39,2.76c0.13,0.8,0.21,1.65,0.25,2.46c0.12,2.83-0.34,5.66-1.16,8.36c-0.5,1.68-1.21,3.33-1.9,4.94
			c-1.84,4.44-3.51,9.55-4.98,14.14c-2.83,9.07-5.94,19.78-8.18,28.99c-1.76,7.29-3.44,15.29-4.55,22.7
			c-0.55,3.72-1.05,7.65-1.11,11.41c-0.02,1.72,0.03,3.48,0.37,5.17c0.18,0.86,0.44,1.74,0.94,2.48c0.14,0.21,0.31,0.41,0.5,0.58
			c0.97,0.82,2.01,1.63,3.05,2.34c0,1.81,0.32,4.09,2.14,4.96c0.4,0.19,0.84,0.29,1.27,0.33c10.41,0.05,35.67,0.03,46.35,0.01
			c0.84-0.03,1.69-0.11,2.51-0.32c0.43-0.12,0.86-0.28,1.22-0.54c0.28-0.2,0.51-0.5,0.61-0.82c0.12-0.39,0.08-0.81,0-1.2
			c-0.12-0.54-0.33-1.06-0.58-1.55c-0.39-0.79-0.88-1.54-1.38-2.26c0.38-0.78,0.61-1.62,0.75-2.48c0.07-0.46,0.15-0.94,0.14-1.41
			c-0.04-1.16-0.48-2.26-1.02-3.26c-0.55-1-1.23-1.94-1.95-2.82c-0.59-0.72-1.25-1.43-1.81-2.16c-0.48-0.63-0.94-1.29-1.29-2
			c-0.19-0.39-0.35-0.81-0.39-1.24c-0.02-0.25,0-0.52,0.1-0.75c0.07-0.15,0.16-0.28,0.26-0.38c0.11-0.1,0.23-0.19,0.31-0.29
			c0.18-0.23,0.24-0.51,0.26-0.79c0.02-0.63-0.17-1.25-0.38-1.84c-0.9-2.38-2.44-4.48-3.77-6.63c-1.1-1.83-2.05-3.8-2.72-5.83
			c-0.54-1.63-0.91-3.32-1.09-5.02c-0.08-0.72-0.11-1.47-0.13-2.2c-0.03-0.84-0.09-1.75-0.16-2.59c-0.24-2.6-0.73-5.2-1.48-7.69
			c-0.33-1.14-0.79-2.28-1.18-3.39c-0.46-1.37-0.84-2.79-1.12-4.21c-0.68-3.4-0.77-6.92-0.49-10.37c0.15-1.85,0.43-3.71,0.9-5.5
			c0.28-1.12,0.71-2.24,1.12-3.32c0.65-1.76,1.32-3.75,1.88-5.54c5.78-19.61,13.7-46.63,19.99-65.99c0.06,5.78,0.03,27.4,0.35,32.76
			c0.17,3.31,0.71,11.5,0.69,14.63c0.01,2.53-0.11,5.13-0.36,7.65c-0.87,8.14-3.23,17.27-4.78,25.34
			c-1.07,5.57-2.02,11.31-2.16,16.99c-0.1,4.1,0.27,8.26,0.95,12.31c0.63,4.1,2.43,11.36,3.35,15.47c0.62,2.69,1.64,8.28,2.28,10.95
			c0.21,0.82,0.42,1.7,0.76,2.48c0.09,0.2,0.19,0.4,0.34,0.57c0,0,0.01,0.01,0.01,0.01l0.01,0.01c0.01,0.01,0.03,0.03,0.03,0.03
			c0.01,0.01,0.03,0.02,0.03,0.02c0.01,0.01,0.03,0.02,0.03,0.02c0.01,0.01,0.03,0.02,0.03,0.02c0.01,0.01,0.03,0.02,0.03,0.02
			c0.01,0.01,0.03,0.02,0.03,0.02c0.01,0.01,0.03,0.01,0.03,0.01c0.01,0.01,0.03,0.01,0.03,0.01c0.01,0,0.03,0.01,0.03,0.01
			c0.01,0,0.03,0.01,0.03,0.01c0.01,0,0.03,0,0.03,0c0.01,0,0.03,0,0.03,0c0.01,0,0.03,0,0.03,0c0.01,0,0.03,0,0.03,0
			c0.01,0,0.03-0.01,0.03-0.01c0.01,0,0.03-0.01,0.03-0.01c0.01,0,0.02-0.01,0.02-0.01c0.01,0,0.02-0.01,0.02-0.01
			c0.01-0.01,0.02-0.01,0.02-0.01c0.01-0.01,0.02-0.01,0.02-0.01c0.16-0.1,0.26-0.22,0.37-0.36c0.23-0.27,0.48-0.67,0.8-0.82
			c0.01-0.01,0.02-0.01,0.02-0.01c0.01,0,0.02-0.01,0.02-0.01c0.01,0,0.02-0.01,0.02-0.01c0.01,0,0.02-0.01,0.02-0.01
			c0.01,0,0.02,0,0.02,0c0.01,0,0.02,0,0.02,0c0.01,0,0.02,0,0.02,0c0.01,0,0.02,0,0.02,0c0.01,0,0.02,0,0.02,0
			c0.01,0,0.02,0,0.02,0c0.01,0,0.02,0,0.02,0c0.01,0,0.02,0,0.02,0c0.01,0,0.02,0,0.02,0c0.01,0,0.02,0,0.02,0
			c0.01,0,0.02,0,0.02,0c0.01,0,0.02,0.01,0.02,0.01c0.01,0,0.02,0.01,0.02,0.01c0.01,0,0.02,0.01,0.02,0.01
			c0.01,0.01,0.02,0.01,0.02,0.01c0.29,0.15,0.48,0.46,0.65,0.72C467.54,595.64,467.83,596.32,468.12,596.96z"/>
	</g>
</g>
</svg>
