<?xml version="1.0" encoding="utf-8"?>
<!-- Generator: Adobe Illustrator 24.2.3, SVG Export Plug-In . SVG Version: 6.00 Build 0)  -->
<!DOCTYPE svg PUBLIC "-//W3C//DTD SVG 1.1//EN" "http://www.w3.org/Graphics/SVG/1.1/DTD/svg11.dtd" [
	<!ENTITY ns_extend "http://ns.adobe.com/Extensibility/1.0/">
	<!ENTITY ns_ai "http://ns.adobe.com/AdobeIllustrator/10.0/">
	<!ENTITY ns_graphs "http://ns.adobe.com/Graphs/1.0/">
	<!ENTITY ns_vars "http://ns.adobe.com/Variables/1.0/">
	<!ENTITY ns_imrep "http://ns.adobe.com/ImageReplacement/1.0/">
	<!ENTITY ns_sfw "http://ns.adobe.com/SaveForWeb/1.0/">
	<!ENTITY ns_custom "http://ns.adobe.com/GenericCustomNamespace/1.0/">
	<!ENTITY ns_adobe_xpath "http://ns.adobe.com/XPath/1.0/">
]>
<svg version="1.1" xmlns:x="&ns_extend;" xmlns:i="&ns_ai;" xmlns:graph="&ns_graphs;"
	 xmlns="http://www.w3.org/2000/svg" xmlns:xlink="http://www.w3.org/1999/xlink" x="0px" y="0px" width="750px" height="750px"
	 viewBox="0 0 750 750" style="enable-background:new 0 0 750 750;" xml:space="preserve">
<style type="text/css">
	.st0{fill:#FFFFFF;}
	.st1{fill:#FB8604;}
	.st2{fill:none;stroke:#FB8604;stroke-width:2.5;stroke-linecap:round;stroke-linejoin:round;}
	.st3{fill:none;stroke:#FB8604;stroke-width:2.5;stroke-linecap:round;stroke-linejoin:round;stroke-dasharray:2.9234,4.8724;}
	.st4{fill:none;stroke:#FB8604;stroke-width:2;stroke-linecap:round;stroke-linejoin:round;stroke-miterlimit:10;}
	.st5{fill:none;stroke:#FB8604;stroke-width:3.25;stroke-linecap:round;stroke-linejoin:round;}
	.st6{fill:none;stroke:#FB8604;stroke-width:3.25;stroke-linecap:round;stroke-linejoin:round;stroke-dasharray:3.8969,6.8195;}
	.st7{fill:none;stroke:#FB8604;stroke-width:3.25;stroke-linecap:round;stroke-linejoin:round;stroke-dasharray:2.0256,3.5449;}
	.st8{fill:none;stroke:#FB8604;stroke-width:3.25;stroke-linecap:round;stroke-linejoin:round;stroke-dasharray:4.0642,7.1123;}
	.st9{fill:none;stroke:#FB8604;stroke-width:3.25;stroke-linecap:round;stroke-linejoin:round;stroke-dasharray:2.6412,4.6221;}
	.st10{fill:none;stroke:#FB8604;stroke-width:3.25;stroke-linecap:round;stroke-linejoin:round;stroke-dasharray:4.2649,7.4637;}
	.st11{fill:none;stroke:#FB8604;stroke-width:3.25;stroke-linecap:round;stroke-linejoin:round;stroke-dasharray:3.7987,6.6478;}
	.st12{fill:none;stroke:#FB8604;stroke-width:3.25;stroke-linecap:round;stroke-linejoin:round;stroke-dasharray:4.5101,7.8927;}
	.st13{fill:none;stroke:#FB8604;stroke-width:3.25;stroke-linecap:round;stroke-linejoin:round;stroke-dasharray:4.2581,7.4516;}
	.st14{fill:none;stroke:#FB8604;stroke-width:3.25;stroke-linecap:round;stroke-linejoin:round;stroke-dasharray:3.9973,6.9953;}
	.st15{fill:none;stroke:#FB8604;stroke-width:3.25;stroke-linecap:round;stroke-linejoin:round;stroke-dasharray:4.0341,7.0598;}
	.st16{fill:none;stroke:#FB8604;stroke-width:3.25;stroke-linecap:round;stroke-linejoin:round;stroke-dasharray:4.2466,7.4315;}
	.st17{fill:none;stroke:#FB8604;stroke-width:3.25;stroke-linecap:round;stroke-linejoin:round;stroke-dasharray:2.3466,4.1066;}
	.st18{fill:none;stroke:#FB8604;stroke-width:3.25;stroke-linecap:round;stroke-linejoin:round;stroke-dasharray:4.0788,7.138;}
	.st19{fill:none;stroke:#FB8604;stroke-width:3.25;stroke-linecap:round;stroke-linejoin:round;stroke-dasharray:4.0391,7.0684;}
	.st20{fill:none;stroke:#FB8604;stroke-width:3.25;stroke-linecap:round;stroke-linejoin:round;stroke-dasharray:3.9832,6.9705;}
	.st21{fill:none;stroke:#FB8604;stroke-width:3.25;stroke-linecap:round;stroke-linejoin:round;stroke-dasharray:4.0178,7.0311;}
	.st22{fill:none;stroke:#FB8604;stroke-width:3.25;stroke-linecap:round;stroke-linejoin:round;stroke-dasharray:3.9927,6.9872;}
	.st23{fill:none;stroke:#FB8604;stroke-width:3.25;stroke-linecap:round;stroke-linejoin:round;stroke-dasharray:3.9963,6.9936;}
	.st24{fill:none;stroke:#FB8604;stroke-width:3.25;stroke-linecap:round;stroke-linejoin:round;stroke-dasharray:3.9769,6.9596;}
	.st25{fill:none;stroke:#FB8604;stroke-width:3.25;stroke-linecap:round;stroke-linejoin:round;stroke-dasharray:4.0239,7.0418;}
	.st26{fill:none;stroke:#FB8604;stroke-width:3.25;stroke-linecap:round;stroke-linejoin:round;stroke-dasharray:4.0188,7.0328;}
	.st27{fill:none;stroke:#FB8604;stroke-width:3.25;stroke-linecap:round;stroke-linejoin:round;stroke-dasharray:4.017,7.0298;}
	.st28{fill:none;stroke:#FB8604;stroke-width:3.25;stroke-linecap:round;stroke-linejoin:round;stroke-dasharray:3.9602,6.9304;}
	.st29{fill:none;stroke:#FB8604;stroke-width:3.25;stroke-linecap:round;stroke-linejoin:round;stroke-dasharray:3.9819,6.9684;}
	.st30{fill:none;stroke:#FB8604;stroke-width:3.25;stroke-linecap:round;stroke-linejoin:round;stroke-dasharray:3.9951,6.9915;}
	.st31{fill:none;stroke:#FB8604;stroke-width:3.25;stroke-linecap:round;stroke-linejoin:round;stroke-dasharray:3.9272,6.8726;}
	.st32{fill:none;stroke:#FB8604;stroke-width:3.25;stroke-linecap:round;stroke-linejoin:round;stroke-dasharray:4.0386,7.0676;}
	.st33{fill:none;stroke:#FB8604;stroke-width:3.25;stroke-linecap:round;stroke-linejoin:round;stroke-dasharray:4.4586,7.8025;}
	.st34{fill:none;stroke:#FB8604;stroke-width:3.25;stroke-linecap:round;stroke-linejoin:round;stroke-dasharray:3.9764,6.9586;}
	.st35{fill:none;stroke:#FB8604;stroke-width:3.25;stroke-linecap:round;stroke-linejoin:round;stroke-dasharray:4.0122,7.0214;}
	.st36{fill:none;stroke:#FB8604;stroke-width:3.25;stroke-linecap:round;stroke-linejoin:round;stroke-dasharray:3.3488,5.8604;}
	.st37{fill:none;stroke:#FB8604;stroke-width:3.25;stroke-linecap:round;stroke-linejoin:round;stroke-dasharray:3.9982,6.9968;}
	.st38{fill:none;stroke:#FB8604;stroke-width:3.25;stroke-linecap:round;stroke-linejoin:round;stroke-dasharray:4.0036,7.0064;}
	.st39{fill:none;stroke:#FB8604;stroke-width:3.25;stroke-linecap:round;stroke-linejoin:round;stroke-dasharray:4.0114,7.02;}
	.st40{fill:none;stroke:#FB8604;stroke-width:2.75;stroke-linecap:round;stroke-linejoin:round;stroke-miterlimit:10;}
	.st41{fill:none;stroke:#FB8604;stroke-width:3.5;stroke-linecap:round;stroke-linejoin:round;stroke-miterlimit:10;}
</style>
<metadata>
	<sfw  xmlns="&ns_sfw;">
		<slices></slices>
		<sliceSourceBounds  bottomLeftOrigin="true" height="4903.96" width="7839.71" x="-3953.71" y="2880"></sliceSourceBounds>
	</sfw>
</metadata>
<g id="FILL-BACKGROUND">
	<rect x="0" class="st0" width="750" height="750"/>
</g>
<g id="N-TEXT">
</g>
<g id="N-DIMENSIONS">
</g>
<g id="AG-DETAIL-DIAGRAM">
</g>
<g id="AG-DIAGRAM">
	<g id="POLYLINE_1_">
		<g>
			<g>
				<line class="st5" x1="198.96" y1="457.23" x2="200.96" y2="457.23"/>
				<line class="st19" x1="208.03" y1="457.23" x2="582.15" y2="457.23"/>
				<line class="st5" x1="585.68" y1="457.23" x2="587.68" y2="457.23"/>
			</g>
		</g>
	</g>
</g>
<g id="AG-DETAILS">
	<g id="POLYLINE_796_">
		<path class="st4" d="M527.82,228.61c-3.65,4.29-7.61,8.44-12.06,11.9c-2.96,2.29-6.19,4.32-9.75,5.54
			c-1.23,0.42-2.5,0.74-3.79,0.91c-0.6,0.09-1.23,0.11-1.83,0.18c-0.71,0.07-1.43,0.19-2.12,0.34c-1.89,0.41-3.72,1.12-5.39,2.1
			c-3.56,2.07-6.33,5.27-8.46,8.75c-1.31,2.1-2.28,4.42-3.57,6.54c-2.53,4.28-5.76,8.16-9.5,11.43c-2.04,1.79-4.25,3.42-6.54,4.87
			c-2.8,1.74-5.84,3.24-8.54,5.14c-2.15,1.49-4.22,3.15-5.97,5.09c-1.5,1.67-2.84,3.75-3.37,5.85c-0.48,2.03-0.52,4.26-0.48,6.31
			c0.13,3.84,0.88,7.67,1.97,11.35c1.74,6.41,5.36,10.38,12.33,9.65c1.37-0.17,2.81-0.41,4.19-0.48c2.11-0.13,4.24-0.06,6.33,0.24
			c2.59,0.37,5.14,1.09,7.53,2.15c1,0.46,2,0.93,3.07,1.21c1.88,0.54,3.85,0.73,5.8,0.7c5.13-0.11,10.14-1.61,14.9-3.44"/>
	</g>
	<g id="POLYLINE_795_">
		<path class="st4" d="M436.21,199.88c3.65,3.1,8.14,6.82,8.17,11.99c0.02,3.44-1.67,7.6-2.61,10.88c-1.08,3.62-1.93,7.51-1,11.25
			c0.86,3.51,2.91,6.67,5.55,9.11c3.02,2.79,7.33,4.91,11.49,3.78c2.11-0.55,4-1.74,5.68-3.09c5.09-4.13,8.78-10.22,13.13-15.06
			c1.11-1.21,2.35-2.37,3.75-3.22c1.47-0.9,3.13-1.38,4.74-1.49c5.22-0.29,10.69,1.68,15.92,0.99c2.62-0.37,4.82-1.5,6.94-2.98"/>
	</g>
	<g id="POLYLINE_794_">
		<path class="st4" d="M269.34,428.66c-2.38-1.71-4.63-3.67-6.5-5.94c-1.34-1.65-2.61-3.68-2.91-5.75
			c-0.42-2.78,1.27-5.05,2.83-7.07c2.05-2.59,4.53-5.39,5.74-8.48c0.69-1.69,0.98-3.53,1.06-5.34c0.18-3.4-0.43-7.91-0.73-11.32
			c-0.17-2.06-0.29-4.18-0.05-6.24c0.18-1.7,0.76-3.59,1.84-4.87c1.83-2.2,4.44-3.22,7.11-3.93c4.42-1.09,9.05-1.17,13.57-0.91"/>
	</g>
	<g id="POLYLINE_793_">
		<path class="st4" d="M214.12,417.08c3.9-0.37,7.74-1.47,11.22-3.27c3.39-1.76,6.47-4.28,8.4-7.62c2.54-4.28,3.2-9.86,1.1-14.44
			c-1.1-2.46-2.8-4.62-4.62-6.59c-1.86-2.07-6.98-6.75-9.04-8.73c-3.61-3.36-7.43-6.79-11.49-9.59"/>
	</g>
	<g id="POLYLINE_792_">
		<path class="st4" d="M271.8,301.27c-1.3-1.6-2.72-3.15-4.24-4.53c-1.91-1.75-4.07-3.32-6.22-4.75c-3.11-2.06-6.39-4.01-9.87-5.38
			c-3.07-1.17-6.74-2.13-9.89-0.8c-2.11,0.94-3.48,2.74-4.59,4.66c-2.81,5.04-4.27,12.19-5.83,17.74c-0.78,2.78-1.62,5.67-2.89,8.26
			c-1.19,2.47-3.06,4.93-5.68,5.78c-1.58,0.53-3.05,0.51-4.62,0.29c-1.51-0.22-3-0.67-4.43-1.21c-2.72-1.05-5.3-2.49-7.7-4.15
			c-2.48-1.73-4.82-3.72-6.83-5.98c-1.57-1.76-2.96-3.73-3.95-5.88c-1.28-2.69-1.93-5.83-2.64-8.71c-0.36-1.39-0.82-2.99-1.66-4.13
			c-0.08-0.11-0.11-0.15-0.11-0.15c-0.09-0.11-0.12-0.14-0.12-0.14c-0.09-0.1-0.12-0.14-0.12-0.14c-0.09-0.1-0.13-0.13-0.13-0.13
			c-0.1-0.09-0.13-0.12-0.13-0.12c-0.1-0.09-0.16-0.14-0.16-0.14c-0.11-0.09-0.16-0.13-0.16-0.13c-0.11-0.08-0.17-0.12-0.17-0.12
			c-0.12-0.08-0.18-0.11-0.18-0.11c-0.12-0.07-0.18-0.11-0.18-0.11c-1.21-0.66-2.44-0.84-3.76-0.93c-1.68-0.09-3.39,0.09-5.05,0.33"
			/>
	</g>
	<g id="POLYLINE_679_">
		<path class="st4" d="M186.03,271.21c0.47,0.29,1.81,1.27,2.28,1.6c0.58,0.41,1.37,0.89,1.93,1.14c1.2,0.58,2.58,0.71,3.76,0.2
			c0.11-0.05,0.17-0.07,0.17-0.07c1.05-0.49,1.86-1.19,2.62-1.88c0.87-0.81,1.73-1.76,2.52-2.65c1.89-2.17,4.72-5.73,6.83-7.62
			c1.18-1.06,2.59-2.15,4.15-2.46c0.12-0.02,0.18-0.03,0.18-0.03c0.12-0.02,0.18-0.02,0.18-0.02c0.12-0.01,0.18-0.01,0.18-0.01
			c0.12-0.01,0.18-0.01,0.18-0.01c0.12,0,0.18,0,0.18,0c0.12,0,0.18,0.01,0.18,0.01c0.12,0.01,0.18,0.02,0.18,0.02
			c0.12,0.01,0.18,0.02,0.18,0.02c0.12,0.02,0.18,0.03,0.18,0.03c0.12,0.02,0.18,0.04,0.18,0.04c1.04,0.23,1.94,0.76,2.71,1.28
			c0.97,0.68,1.77,1.39,2.63,2.18c3.32,3.1,6.75,6.9,11.19,8.29c2.36,0.76,4.91,0.97,7.36,0.56c1.82-0.3,3.79-1.08,5.11-2.29
			c1.01-0.91,1.66-2.06,1.89-3.29c0.38-2.09-0.08-4.11-0.63-6.11c-1.14-3.99-3.03-8.15-4.17-12.13c-0.86-2.99-1.46-6.5-0.11-9.39
			c1.32-3.06,4.63-5.33,7.91-4.64c2.31,0.49,3.88,2.17,5.27,3.89c1.71,2.19,3.1,4.7,4.41,7.14c1.87,3.53,4.44,8.88,6.56,12.2
			c0.73,1.13,1.52,2.26,2.43,3.26c3.16,3.59,7.43,4.11,10.73,0.54c1.41-1.54,2.25-3.39,3.02-5.29c2.12-5.38,3.26-11.72,6.31-16.69
			c0.58-0.92,1.28-1.84,2.05-2.6c1.22-1.2,2.63-2.08,4.11-2.64c2.02-0.75,4.26-0.96,6.18-0.12c0.13,0.06,0.21,0.1,0.25,0.12
			c0.12,0.07,0.16,0.09,0.16,0.09c0.12,0.07,0.16,0.09,0.16,0.09c0.12,0.07,0.16,0.1,0.16,0.1c0.11,0.08,0.15,0.11,0.15,0.11
			c0.11,0.08,0.15,0.11,0.15,0.11c0.11,0.09,0.14,0.12,0.14,0.12c0.1,0.09,0.14,0.12,0.14,0.12c0.1,0.1,0.13,0.13,0.13,0.13
			c0.1,0.1,0.13,0.13,0.13,0.13c0.09,0.1,0.12,0.14,0.12,0.14c0.13,0.16,0.16,0.21,0.22,0.28c0.08,0.12,0.12,0.18,0.12,0.18
			c0.82,1.3,1.04,2.69,1.17,4.15c0.15,2.03,0,4.13-0.18,6.16c-0.52,6.24-2.09,13.81-0.58,19.96c0.49,1.98,1.32,3.87,2.46,5.56
			c1.45,2.12,3.3,3.81,5.42,5.11c2.63,1.61,5.62,2.62,8.67,3.06c2.82,0.39,5.77,0.28,8.49-0.63c2.61-0.85,4.98-2.62,6.44-4.86
			c1.79-2.7,2.76-5.89,3.7-8.96c0.85-2.82,1.77-6.37,3.13-8.97c0.67-1.29,1.64-2.57,2.88-3.23c2.46-1.39,5.6-0.61,7.48,1.25
			c1.03,1,1.63,2.12,2.11,3.37c0.46,1.23,0.73,2.53,0.89,3.84c0.27,2.31,0.19,4.67-0.12,6.97c-0.33,2.37-0.9,4.73-1.8,6.95"/>
	</g>
	<g id="POLYLINE_678_">
		<path class="st4" d="M349.23,275.09c-2.2,3.75-3.53,8-3.98,12.31c-0.4,3.98,0,8.15,1.79,11.77c2.71,5.55,8.33,9.09,14.1,10.85
			c4.15,1.23,8.75,1.57,12.87,0.02c2.88-1.08,5.34-3.11,7.19-5.54c3.29-4.32,4.87-10.07,3.71-15.43c-0.84-4-3.23-7.92-5.12-11.51
			c-0.91-1.8-2.01-3.83-2.03-5.86c0-0.11,0-0.16,0-0.16c0.01-0.11,0.01-0.16,0.01-0.16c0.01-0.11,0.02-0.16,0.02-0.16
			c0.01-0.11,0.02-0.16,0.02-0.16c0.02-0.1,0.03-0.16,0.03-0.16c0.02-0.1,0.04-0.15,0.04-0.15c0.03-0.1,0.04-0.15,0.04-0.15
			c0.03-0.1,0.05-0.14,0.05-0.14c0.03-0.09,0.05-0.13,0.05-0.13c0.04-0.09,0.06-0.13,0.06-0.13c0.04-0.09,0.06-0.13,0.06-0.13
			c0.04-0.09,0.07-0.13,0.07-0.13c0.05-0.08,0.07-0.13,0.07-0.13c0.05-0.08,0.08-0.13,0.08-0.13c0.08-0.12,0.11-0.17,0.11-0.17
			c0.09-0.12,0.12-0.16,0.12-0.16c0.67-0.85,1.4-1.38,2.22-1.95c1.02-0.7,2.7-1.69,3.76-2.35c2.62-1.62,5.28-3.71,6.47-6.57
			c0.8-1.84,1.11-3.74,1.28-5.72c0.41-4.67-0.41-11.54-0.73-16.25c-0.16-2.5-0.27-5.09-0.03-7.59c0.16-1.61,0.48-3.25,1.16-4.71
			c2.22-4.88,7.65-6.51,12.58-6.7c5.46-0.21,13.8,0.96,17.1,5.75c1.95,2.85,1.2,6.32,0.21,9.33c-1.48,4.49-4.69,10.2-6.78,14.48
			c-1.27,2.66-2.58,5.41-3.13,8.32c-0.26,1.45-0.27,2.95-0.04,4.41c0.31,2.16,1.24,4.42,1.53,6.59c0.2,1.51,0.06,3.05-0.25,4.54
			c-0.51,2.48-1.47,4.89-2.47,7.21"/>
	</g>
	<g id="POLYLINE_669_">
		<path class="st4" d="M312.55,334.84c-3.2-0.57-6.44-1.85-8.79-4.09c-2.71-2.55-4.44-5.95-6.08-9.24c-1.44-3.03-2.7-6.23-3.08-9.58
			c-0.13-1.19-0.12-2.42,0.11-3.6c0.25-1.38,0.96-2.75,1.84-3.71c1.96-2.14,4.56-3.23,7.27-4.02c5.05-1.37,10.42-1.47,15.57-0.63
			c7.43,1.22,14.28,4.89,19.99,9.72c3.11,2.66,6.13,5.57,8.32,9.05c3.93,6.45,1.48,10.14-4.91,12.9c-4.78,2-9.96,2.95-15.09,3.49
			C322.67,335.62,317.53,335.73,312.55,334.84z"/>
	</g>
	<g id="POLYLINE_668_">
		<path class="st4" d="M256.19,199.22c0.44,6.12,0.73,14.98,6.44,18.63c1.46,0.91,2.98,1.33,4.64,1.58
			c1.71,0.24,3.45,0.24,5.17,0.09c3.88-0.35,7.71-1.41,11.26-3.02c2.28-1.06,4.51-2.36,6.3-4.14c1.53-1.5,2.43-3.4,2.93-5.41
			c0.65-2.52,0.92-5.57,2.91-7.42c0.86-0.81,1.67-1.28,2.67-1.8c1.15-0.58,2.38-1.05,3.59-1.47c3.85-1.33,8.2-2.36,11.99-3.86
			c1.5-0.6,3-1.3,4.3-2.27c1.45-1.05,2.52-2.58,3.08-4.17c0.62-1.73,0.78-3.48,0.86-5.29l0.07-3.87"/>
	</g>
	<g id="POLYLINE_667_">
		<path class="st4" d="M399.75,318.48c2.91-0.59,5.91-1.06,8.88-0.77c2.58,0.23,5.16,1.16,7.23,2.66c2.31,1.65,4.21,3.84,5.71,6.24
			c1.93,3.11,3.22,6.66,3.55,10.32c0.37,3.61-0.52,7.21-1.7,10.6c-0.77,2.23-2.3,6.05-2.8,8.3c-0.31,1.32-0.48,2.87-0.12,4.16
			c0.03,0.12,0.05,0.18,0.05,0.18c0.04,0.12,0.06,0.17,0.06,0.17c0.04,0.11,0.06,0.17,0.06,0.17c0.05,0.11,0.07,0.17,0.07,0.17
			c0.05,0.11,0.08,0.17,0.08,0.17c0.06,0.11,0.09,0.17,0.09,0.17c0.06,0.11,0.1,0.17,0.1,0.17c0.07,0.11,0.1,0.17,0.1,0.17
			c0.07,0.11,0.11,0.16,0.11,0.16c1.15,1.57,2.68,2.4,4.32,3.23c3.92,1.87,8.82,3.21,12.78,4.97c2.94,1.26,5.68,3.01,7.87,5.36
			c3.31,3.46,5.44,8.08,7.54,12.34"/>
	</g>
</g>
<g id="AG-ANIMALS">
	<g id="POLYLINE_75_">
		<path class="st40" d="M188.72,336.11c-4.55,10.23-9.52,21.51-12.79,32.13c-2.97,9.42-5.07,19.28-6.71,29.02
			c-2.74,16.44-4.52,33.86-5.84,50.48c-1.39,18.95-2.58,40.63-2.83,59.6c-0.08,21.95,0.85,46.25,13.38,65.08
			c10.89,16.3,29.11,27.64,48.62,29.86c10.26,1.12,20.94,0,30.45-4.13c3.37-1.49,6.59-3.41,9.35-5.86c2.6-2.31,4.78-5.12,6.34-8.23
			c2.68-5.32,3.53-11.49,2.64-17.37c-1.13-7.38-4.8-14.46-10.49-19.35c-7.93-6.85-19.73-7.71-28.2-1.33
			c-3.14,2.36-5.74,5.47-7.45,9.01c-1.08,2.26-1.79,4.73-1.81,7.24c-0.02,1.53,0.24,3.06,0.78,4.5c0.85,2.26,2.31,4.3,4.03,5.95
			c2.97,2.84,7.81,5.58,11.93,4.06c0.12-0.05,0.16-0.07,0.16-0.07c0.12-0.05,0.15-0.07,0.15-0.07c0.11-0.06,0.14-0.08,0.14-0.08
			c0.1-0.06,0.14-0.08,0.14-0.08c0.1-0.06,0.13-0.08,0.13-0.08c0.12-0.09,0.14-0.11,0.14-0.11c0.11-0.1,0.13-0.12,0.13-0.12
			c0.11-0.12,0.12-0.13,0.12-0.13c0.09-0.12,0.1-0.14,0.1-0.14c0.06-0.11,0.07-0.13,0.07-0.13c0.05-0.12,0.05-0.13,0.05-0.13
			c0.03-0.12,0.03-0.13,0.03-0.13c0.01-0.12,0.01-0.13,0.01-0.13c-0.01-0.12-0.01-0.13-0.01-0.13c-0.02-0.11-0.03-0.13-0.03-0.13
			c-0.04-0.11-0.05-0.13-0.05-0.13c-0.05-0.11-0.06-0.13-0.06-0.13c-0.07-0.11-0.08-0.13-0.08-0.13c-0.08-0.11-0.11-0.15-0.11-0.15
			c-0.09-0.12-0.13-0.16-0.13-0.16c-0.11-0.12-0.14-0.16-0.14-0.16c-0.96-0.95-2.13-1.74-3.14-2.59c-1.18-0.97-2.38-2.14-3.18-3.43
			c-2.25-3.62-2.59-9.12,0.7-12.09c1.6-1.36,3.49-1.84,5.47-2.06c3.16-0.28,6.41,0.28,9.31,1.58c5.03,2.23,7.02,6.71,7.33,11.91
			c0.16,2.59-0.02,5.24-0.79,7.73c-0.75,2.51-2.3,4.94-4.23,6.58c-2.44,2.1-5.37,3.28-8.4,4.2c-5.37,1.55-11.03,2.05-16.6,2
			c-8.09-0.13-16.57-1.39-23.4-6.01c-7.77-5.24-12.4-13.9-15.54-22.51c-3.29-9.28-4.94-19.17-4.86-29.02
			c0.14-16.98,6.23-34.53,10.5-50.85c4.08-14.85,6.67-34.21,9.63-49.39c0.61-2.95,1.29-6.04,2.17-8.92
			c0.64-2.09,1.44-4.18,2.43-6.13c1.18-2.38,3.22-5.37,4.6-7.66"/>
	</g>
	<g id="POLYLINE_76_">
		<path class="st40" d="M271.8,301.27c4.56,8.02,9.03,16.44,12.62,24.95c2.5,5.9,4.54,12.07,5.56,18.41c1.4,8.21,1.65,16.69,1.29,25
			c-0.57,14.81-4.24,29.57-10.96,42.79c-5.89,11.28-14.42,21.02-23.82,29.52"/>
	</g>
	<g id="POLYLINE_77_">
		<path class="st40" d="M522.11,276.29c-5-4.4-7.96-9.11-7.08-15.99c0.6-4.73,2.89-9.65,6.81-12.44c4.22-2.97,9.77-3.54,14.56-1.78
			c2.81,1.06,5.11,2.88,7.07,5.09c2.09,2.38,3.72,5.16,4.92,8.08"/>
	</g>
	<g id="POLYLINE_78_">
		<path class="st40" d="M579.38,242.82c2.28-0.8,4.68-1.42,7.11-1.49c3.3-0.1,6.58,0.73,9.6,2.04c3.56,1.58,7.36,4.2,8.45,8.09
			c0.55,2,0.46,3.89,0.12,5.87c-0.44,2.38-1.29,4.69-2.32,6.88"/>
	</g>
	<g id="POLYLINE_79_">
		<path class="st40" d="M595.76,368.53c-0.94-0.1-1.8-0.46-2.52-0.94c-1.19-0.83-1.9-1.76-2.59-2.91c-0.62-1.05-1.09-2.19-1.45-3.36
			c-0.73-2.31-1.04-5.1,0.19-7.27c0.07-0.12,0.11-0.19,0.11-0.19c0.08-0.12,0.12-0.18,0.12-0.18c0.08-0.12,0.12-0.18,0.12-0.18
			c0.09-0.12,0.13-0.18,0.13-0.18c0.09-0.12,0.14-0.17,0.14-0.17c0.1-0.11,0.15-0.17,0.15-0.17c0.1-0.11,0.15-0.17,0.15-0.17
			c0.11-0.11,0.16-0.16,0.16-0.16c1.59-1.48,3.49-2.18,5.49-2.74c2.29-0.59,4.68-0.83,7.03-0.64c1.79,0.14,3.71,0.66,5.01,1.82
			c1.75,1.51,2.44,3.95,2.14,6.1c-0.34,2.3-1.63,4.1-3.14,5.71c-1.64,1.72-3.57,3.18-5.69,4.27
			C599.61,368.04,597.63,368.72,595.76,368.53z"/>
	</g>
	<g id="POLYLINE_80_">
		<path class="st40" d="M262.92,435.76c3.56,1.53,7.28,2.93,11.16,3.34c1.22,0.11,2.48,0.08,3.7,0.22c2.92,0.29,5.84,0.92,8.63,1.83
			c1.93,0.65,3.97,1.77,5.31,3.24c0.89,0.94,1.48,2.03,1.93,3.1c0.92,2.19,1.09,4.65,0.33,6.79c-0.04,0.1-0.06,0.15-0.06,0.15
			c-0.04,0.1-0.07,0.15-0.07,0.15c-0.05,0.1-0.07,0.14-0.07,0.14c-0.05,0.09-0.08,0.14-0.08,0.14c-0.05,0.09-0.08,0.14-0.08,0.14
			c-0.06,0.09-0.09,0.13-0.09,0.13c-0.06,0.09-0.09,0.13-0.09,0.13c-0.1,0.12-0.13,0.16-0.13,0.16c-0.1,0.12-0.14,0.16-0.14,0.16
			c-0.11,0.11-0.14,0.15-0.14,0.15c-0.11,0.11-0.15,0.14-0.15,0.14c-0.12,0.1-0.16,0.14-0.16,0.14c-0.08,0.07-0.13,0.1-0.13,0.1
			c-0.09,0.06-0.13,0.09-0.13,0.09c-0.09,0.06-0.14,0.09-0.14,0.09c-0.09,0.06-0.14,0.08-0.14,0.08c-1.17,0.66-2.33,0.81-3.61,0.85
			c-11.16-0.07-30.92,0.15-42.1-0.09c-1.64-0.13-3.32-0.35-4.85-0.99c-0.41-0.17-0.72-0.35-0.99-0.53c-0.1-0.07-0.14-0.1-0.14-0.1
			c-0.09-0.07-0.13-0.1-0.13-0.1c-0.09-0.07-0.13-0.1-0.13-0.1c-0.12-0.11-0.16-0.14-0.16-0.14c-0.11-0.11-0.15-0.15-0.15-0.15
			c-0.1-0.11-0.14-0.15-0.14-0.15c-0.09-0.12-0.12-0.16-0.12-0.16c-1.45-2.19-2.24-4.73-2.92-7.24c0,0-0.16-0.63-0.16-0.63
			s-0.04-0.16-0.04-0.16c-0.11-0.43-0.26-0.86-0.42-1.28c-0.47-1.2-1.12-2.32-1.88-3.36c-1.02-1.4-2.24-2.68-3.53-3.84
			c-1.09-0.99-2.37-1.95-3.5-2.88c-2.91-2.42-5.71-5.1-8.14-8c-0.58-0.71-1.27-1.53-1.78-2.29c-0.53-0.8-1-1.66-1.39-2.53
			c-1.94-4.35-2.6-9.16-2.92-13.88c-0.22-3.87-0.33-7.87-0.08-11.73c0.17-2.54,0.47-5.12,1.18-7.57c1.23-3.95,0.55-8.2-0.46-12.12
			c-1.2-4.52-3.03-8.91-5.33-12.98c-2.64-4.68-5.82-9.14-9.18-13.34c-1.48-1.91-3.44-4.04-4.88-5.98c-2.06-2.74-3.9-5.68-5.47-8.73
			c-3.24-6.27-5.47-13.11-6.92-20.01c-1.41-6.72-2.15-13.66-1.79-20.53c0.4-8.2,2.33-16.34,5.71-23.83
			c3.13-6.9,7.43-13.31,11.97-19.35c5.17-6.85,11.2-13.63,17.09-19.89c6.47-6.82,13.4-13.69,20.81-19.48
			c10.67-8.46,22.54-15.6,34.96-21.17c13.37-5.96,27.55-10.38,41.88-13.36c12.87-2.63,26.17-3.91,39.3-3.29
			c13.64,0.81,27.38,2.83,40.48,6.78c5.01,1.55,10.05,3.45,14.75,5.8c1.81,0.87,3.68,1.99,5.46,2.92c3.04,1.61,6.29,3.15,9.47,4.48
			c6.32,2.62,12.97,4.63,19.73,5.73c2.97,0.52,6.13,0.7,9.12,1.06c3.47,0.43,7.04,1.07,10.45,1.87c6.56,1.53,13.05,3.7,19.27,6.28
			c9.58,4.17,20.3,9.18,30.06,12.91c14.58,5.75,30.37,8.58,45.62,11.93c7.52,1.79,15.05,4.08,22.08,7.29
			c3.97,1.85,7.94,3.95,11.4,6.64c8.46,6.62,13.93,16.31,17.74,26.2c2.45,6.49,5.21,13.69,7.16,20.35c0.37,1.43,0.83,2.91,0.96,4.38
			c0.13,1.41,0.01,2.86-0.1,4.27c-0.63,6.72-2.21,14.15-3.54,20.8c-0.74,3.35-1.59,7.71-2.56,10.94c0,0-0.08,0.27-0.08,0.27
			c-0.02,0.09-0.16,0.46-0.16,0.48c-0.05,0.22-0.07,0.23-0.1,0.38c-0.03,0.11-0.06,0.28-0.09,0.4c-0.52,2.66-0.27,5.41,0.08,8.07
			c0.17,1.52,0.59,3.21,0.75,4.74c0.13,1.22,0.19,2.48,0.1,3.7"/>
	</g>
	<g id="POLYLINE_81_">
		<path class="st40" d="M594.37,368.18c-5.17,0.76-10.65,0.49-15.43-1.77c-4.33-2.07-8.23-5.04-11.87-8.14
			c-1.74-1.46-3.44-3.18-5.23-4.57c-1.77-1.38-3.69-2.6-5.67-3.66c-3.45-1.84-7.18-3.24-10.93-4.31c-3.21-0.92-6.71-1.57-9.95-2.4
			c-6.15-1.56-12.36-3.43-18.13-6.09c-11.19-5.02-18.51-15.51-20.92-27.38c-0.66-3.11-0.95-6.36-1.07-9.53
			c-0.48-13.27,0.44-28.88,1.01-42.22"/>
	</g>
	<g id="POLYLINE_82_">
		<path class="st40" d="M411.48,278.16c-4.9,12.71-9.33,25.91-11.58,39.36c-0.42,2.57-0.77,5.34-0.98,7.93
			c-0.17,2.19-0.27,5.06-0.42,7.27c-0.29,4.45-0.74,9.24-1.3,13.66c-0.61,4.79-1.44,9.83-2.45,14.55c-0.46,2.04-0.95,4.21-1.21,6.27
			c-0.36,2.74-0.46,5.54-0.25,8.3c0.31,4.15,1.35,8.26,3.06,12.06c0.78,1.8,1.83,3.55,2.78,5.26c1.44,2.63,2.74,5.44,3.81,8.24
			c1.7,4.46,2.91,9.16,3.59,13.88c0.71,5.48,1.04,11.14,0.97,16.66c-0.05,2.18-0.19,4.41-0.6,6.56c-0.11,0.58-0.28,1.18-0.4,1.76
			c-0.16,0.75-0.28,1.52-0.36,2.28c-0.23,2.2-0.07,4.45,0.44,6.6c0.3,1.23,0.7,2.6,1.3,3.68c1.52,2.71,4.47,3.94,7.34,4.43
			c1.19,0.2,2.43,0.3,3.64,0.32c5.32-0.04,26.69,0.16,31.67-0.16c2.11-0.13,4.28-0.32,6.35-0.74c1.3-0.26,2.72-0.65,3.83-1.33
			c0.12-0.08,0.18-0.12,0.18-0.12c0.11-0.08,0.16-0.12,0.16-0.12c0.1-0.08,0.13-0.1,0.13-0.1c0.12-0.1,0.14-0.13,0.14-0.13
			c0.11-0.11,0.15-0.15,0.15-0.15c0.08-0.09,0.13-0.14,0.13-0.14c0.08-0.09,0.12-0.14,0.12-0.14c0.08-0.1,0.12-0.15,0.12-0.15
			c0.08-0.1,0.11-0.15,0.11-0.15c0.07-0.11,0.11-0.16,0.11-0.16c1.12-1.8,1.25-3.93,1.22-5.97c-0.08-1.93-0.3-3.9-0.8-5.77
			c-0.44-1.63-1.26-3.32-2.34-4.55c-1.2-1.4-2.77-2.38-4.4-2.97c-0.97-0.35-2.02-0.56-3-0.87c-1.92-0.61-3.99-1.46-5.5-2.79
			c-0.58-0.51-1.02-1.06-1.33-1.62c-0.06-0.11-0.08-0.16-0.08-0.16c-0.05-0.11-0.08-0.16-0.08-0.16c-0.05-0.11-0.07-0.16-0.07-0.16
			c-0.4-1.01-0.54-1.98-0.67-3.03c-0.23-2.07-0.24-4.28-0.2-6.37c0.17-5.7,0.46-11.52,1.93-17.06c0.85-3.26,2.07-6.47,3.67-9.44
			c1.16-2.23,2.74-4.35,4.14-6.44c2.9-4.37,5.5-9.09,7.66-13.87c0.99-2.11,1.8-4.5,2.87-6.57c1.02-1.95,2.29-3.79,3.76-5.43
			c1.83-2.04,3.99-3.79,6.33-5.23c1.07-0.66,2.22-1.27,3.36-1.81c1.47-0.68,3.06-1.32,4.51-2.04c9.82-4.85,18.9-11.35,27.65-17.89"
			/>
	</g>
	<g id="POLYLINE_83_">
		<path class="st40" d="M291.18,355.21c7.14-0.75,14.24-2.51,20.76-5.54c1.85-0.86,3.76-1.87,5.5-2.92c1.37-0.84,2.77-1.79,4.2-2.54
			c2.92-1.57,6.04-2.78,9.22-3.68c6.4-1.8,13.13-2.43,19.77-2.44c15.53,0.03,31.74,1.22,47.19,2.75"/>
	</g>
	<g id="POLYLINE_92_">
		<path class="st40" d="M289.87,383.19c2.63,10.43,5.45,21.5,6.8,32.16c0.21,1.82,0.37,3.72,0.37,5.55
			c-0.01,0.95-0.1,1.98-0.12,2.92c-0.03,1.47,0.02,3.01,0.16,4.48c0.26,2.76,0.83,5.52,1.68,8.15c0.97,2.97,2.44,6.08,3.7,8.93
			c0.8,1.71,1.75,3.72,2.63,5.38c0.47,0.85,1,1.93,1.57,2.69c1.81,2.4,4.64,3.33,7.47,3.65c0.85,0.1,1.72,0.14,2.57,0.14
			c3.85-0.08,22.73,0.22,26.21-0.24c1.53-0.16,3.08-0.42,4.56-0.87c1.37-0.42,2.7-1.04,3.67-1.97c0.23-0.23,0.28-0.3,0.41-0.45
			c0.08-0.1,0.1-0.13,0.1-0.13c0.07-0.1,0.1-0.14,0.1-0.14c0.07-0.1,0.09-0.14,0.09-0.14c0.07-0.11,0.09-0.14,0.09-0.14
			c0.06-0.11,0.08-0.14,0.08-0.14c0.06-0.11,0.08-0.15,0.08-0.15c0.05-0.11,0.07-0.15,0.07-0.15c0.05-0.11,0.07-0.15,0.07-0.15
			c0.05-0.11,0.06-0.15,0.06-0.15c1.01-3.02,1.02-6.33,0.04-9.35c-0.94-2.93-2.63-5.58-4.56-7.95c-1.83-2.3-3.93-4.02-5.68-6.36
			c-1.48-1.94-2.71-4.11-3.58-6.4c-0.52-1.39-1.02-2.98-1.13-4.42c-0.3-3.66,0.63-7.31,1.76-10.76c1.08-3.3,2.73-6.8,4.16-9.98
			c3.46-7.78,6.83-16.1,9.74-24.11c3.83-11.17,4.89-23.16,5.23-34.89"/>
	</g>
	<g id="POLYLINE_93_">
		<path class="st40" d="M461.78,373.28c0.52,12.65,1.86,25.49,4.58,37.87c2.39,10.11,6.16,24.64,8.39,34.72
			c0.26,1.16,0.61,2.33,1.06,3.42c0.44,1.11,1.14,2.36,1.84,3.28c0.97,1.31,2.21,2.34,3.51,3.07c2.13,1.18,4.54,1.6,6.94,1.6
			c3.1-0.08,27.49,0.22,29.93-0.23c2.3-0.27,4.61-0.77,6.71-1.76c2.5-1.15,4.6-3.13,5.66-5.57c0.39-0.85,0.65-1.77,0.86-2.68
			c0.33-1.45,0.51-2.95,0.47-4.43c-0.04-2.16-0.66-4.49-1.67-6.31c-1.04-1.96-2.5-3.53-4.13-4.99c-2.48-2.27-5.16-4.4-8.01-6.18
			c-1.2-0.75-2.48-1.46-3.75-2.08c-2.08-0.97-4.39-1.99-6.04-3.58c-0.26-0.25-0.44-0.47-0.59-0.66c-0.06-0.09-0.1-0.13-0.1-0.13
			c-0.06-0.09-0.09-0.13-0.09-0.13c-0.05-0.09-0.08-0.13-0.08-0.13c-0.05-0.09-0.07-0.13-0.07-0.13c-0.04-0.09-0.07-0.13-0.07-0.13
			c-0.04-0.09-0.06-0.13-0.06-0.13c-0.03-0.09-0.05-0.13-0.05-0.13c-0.03-0.09-0.04-0.13-0.04-0.13c-0.03-0.11-0.04-0.13-0.04-0.13
			c-0.02-0.11-0.03-0.13-0.03-0.13c-0.02-0.11-0.02-0.13-0.02-0.13c-0.01-0.11-0.01-0.13-0.01-0.13c0-0.11-0.01-0.13-0.01-0.13
			c0-0.11,0-0.13,0-0.13c0.01-0.09,0.01-0.13,0.01-0.13c0.13-1.09,0.46-2.05,0.78-3.08c2.44-7.36,6.05-14.54,8.48-21.91
			c1.92-5.72,3.43-11.76,4.43-17.71c1.5-11.17,5.45-21.9,10.76-31.8"/>
	</g>
</g>
<g id="AG-OUTLINE">
	<g id="POLYLINE_15_">
		<path class="st41" d="M579.38,242.82c-5.91-2.81-12.27-4.95-18.58-6.65c-4.96-1.37-11.45-2.63-16.56-3.7
			c-8.26-1.78-17-3.81-25.03-6.32c-3.66-1.17-7.69-2.67-11.27-4.1c-7.09-2.84-15.52-6.53-22.48-9.72
			c-5.53-2.53-11.28-4.77-17.1-6.53c-5.35-1.62-10.89-2.88-16.43-3.63c-2.41-0.34-4.93-0.51-7.34-0.79c-2.8-0.34-5.64-0.86-8.39-1.5
			c-7.32-1.71-14.44-4.45-21.16-7.8c-3.11-1.51-6.19-3.41-9.32-4.87c-4.8-2.29-9.93-4.15-15.03-5.64c-9.31-2.71-19-4.38-28.63-5.46
			c-13.86-1.66-28.05-1.2-41.82,1.02c-10.52,1.68-21.02,4.34-31.15,7.65c-17.49,5.66-34.25,13.98-49.05,24.91
			c-11.42,8.31-21.53,18.63-30.97,29.09c-8.2,9.25-16.21,19.05-21.91,30.08c-3.09,6.05-5.24,12.59-6.33,19.29
			c-1.07,6.54-1.12,13.25-0.35,19.82c1.21,9.72,3.75,19.39,8.24,28.13c-4.55,10.23-9.52,21.51-12.79,32.13
			c-2.97,9.42-5.07,19.28-6.71,29.02c-2.74,16.44-4.52,33.86-5.84,50.48c-1.39,18.95-2.58,40.63-2.83,59.6
			c-0.08,21.95,0.85,46.25,13.38,65.08c10.89,16.3,29.11,27.64,48.62,29.86c10.26,1.12,20.94,0,30.45-4.13
			c3.37-1.49,6.59-3.41,9.35-5.86c2.6-2.31,4.78-5.12,6.34-8.23c2.68-5.32,3.53-11.49,2.64-17.37c-1.13-7.38-4.8-14.46-10.49-19.35
			c-7.93-6.85-19.73-7.71-28.2-1.33c-3.14,2.36-5.74,5.47-7.45,9.01c-1.08,2.26-1.79,4.73-1.81,7.24c-0.02,1.53,0.24,3.06,0.78,4.5
			c0.85,2.26,2.31,4.3,4.03,5.95c2.97,2.84,7.81,5.58,11.93,4.06c0.12-0.05,0.16-0.07,0.16-0.07c0.12-0.05,0.15-0.07,0.15-0.07
			c0.11-0.06,0.14-0.08,0.14-0.08c0.1-0.06,0.14-0.08,0.14-0.08c0.1-0.06,0.13-0.08,0.13-0.08c0.12-0.09,0.14-0.11,0.14-0.11
			c0.11-0.1,0.13-0.12,0.13-0.12c0.11-0.12,0.12-0.13,0.12-0.13c0.09-0.12,0.1-0.14,0.1-0.14c0.06-0.11,0.07-0.13,0.07-0.13
			c0.05-0.12,0.05-0.13,0.05-0.13c0.03-0.12,0.03-0.13,0.03-0.13c0.01-0.12,0.01-0.13,0.01-0.13c-0.01-0.12-0.01-0.13-0.01-0.13
			c-0.02-0.11-0.03-0.13-0.03-0.13c-0.04-0.11-0.05-0.13-0.05-0.13c-0.05-0.11-0.06-0.13-0.06-0.13c-0.07-0.11-0.08-0.13-0.08-0.13
			c-0.08-0.11-0.11-0.15-0.11-0.15c-0.09-0.12-0.13-0.16-0.13-0.16c-0.11-0.12-0.14-0.16-0.14-0.16c-0.96-0.95-2.13-1.74-3.14-2.59
			c-1.18-0.97-2.38-2.14-3.18-3.43c-2.25-3.62-2.59-9.12,0.7-12.09c1.6-1.36,3.49-1.84,5.47-2.06c3.16-0.28,6.41,0.28,9.31,1.58
			c5.03,2.23,7.02,6.71,7.33,11.91c0.16,2.59-0.02,5.24-0.79,7.73c-0.75,2.51-2.3,4.94-4.23,6.58c-2.44,2.1-5.37,3.28-8.4,4.2
			c-5.37,1.55-11.03,2.05-16.6,2c-8.09-0.13-16.57-1.39-23.4-6.01c-7.77-5.24-12.4-13.9-15.54-22.51
			c-3.29-9.28-4.94-19.17-4.86-29.02c0.14-16.98,6.23-34.53,10.5-50.85c4.08-14.85,6.67-34.21,9.63-49.39
			c0.61-2.95,1.29-6.04,2.17-8.92c0.64-2.09,1.44-4.18,2.43-6.13c1.18-2.38,3.22-5.37,4.6-7.66c0.17,3.17,0.51,6.39,1.21,9.49
			c0.52,2.28,1.25,4.54,2.36,6.61c0.69,1.32,1.65,2.53,2.58,3.64c1.79,2.13,3.81,4.18,5.88,6.04c2.81,2.59,5.97,4.59,8.42,7.56
			c1.31,1.56,2.43,3.32,3.03,5.28c0.76,2.88,1.53,5.86,3.17,8.39c0.08,0.12,0.11,0.16,0.11,0.16c0.09,0.12,0.13,0.16,0.13,0.16
			c0.1,0.11,0.14,0.15,0.14,0.15c0.11,0.11,0.15,0.15,0.15,0.15c0.12,0.11,0.16,0.14,0.16,0.14c0.09,0.07,0.13,0.1,0.13,0.1
			c0.09,0.07,0.14,0.1,0.14,0.1c1.35,0.9,2.8,1.18,4.35,1.42c1.1,0.15,2.27,0.22,3.38,0.25c10.19,0.03,29.87,0,40.01,0.01
			c1.3,0.01,2.83-0.21,3.92-0.86c0.09-0.06,0.14-0.08,0.14-0.08c0.09-0.06,0.14-0.09,0.14-0.09c0.09-0.06,0.13-0.09,0.13-0.09
			c0.08-0.06,0.13-0.1,0.13-0.1c0.12-0.1,0.16-0.14,0.16-0.14c0.12-0.11,0.15-0.14,0.15-0.14c0.11-0.11,0.14-0.15,0.14-0.15
			c0.1-0.12,0.14-0.16,0.14-0.16c0.1-0.12,0.13-0.16,0.13-0.16c0.06-0.08,0.09-0.13,0.09-0.13c0.06-0.09,0.09-0.13,0.09-0.13
			c0.05-0.09,0.08-0.14,0.08-0.14c0.05-0.09,0.08-0.14,0.08-0.14c0.05-0.1,0.07-0.14,0.07-0.14c0.05-0.1,0.07-0.15,0.07-0.15
			c1.29-3.34,0.17-7.28-2.01-9.85c-1.42-1.6-3.1-2.53-5.01-3.27c-2.93-1.03-6.02-1.69-9.11-2c-1.22-0.14-2.48-0.11-3.7-0.22
			c-3.88-0.41-7.6-1.81-11.16-3.34c6.38-6.53,12.17-13.8,16.57-21.82c1.83-3.31,3.41-6.89,4.78-10.42
			c2.53-6.53,4.44-13.42,5.6-20.33c2.63,10.43,5.45,21.5,6.8,32.16c0.21,1.82,0.37,3.72,0.37,5.55c-0.01,0.95-0.1,1.98-0.12,2.92
			c-0.03,1.47,0.02,3.01,0.16,4.48c0.26,2.76,0.83,5.52,1.68,8.15c0.97,2.97,2.44,6.08,3.7,8.93c0.8,1.71,1.75,3.72,2.63,5.38
			c0.47,0.85,1,1.93,1.57,2.69c1.81,2.4,4.64,3.33,7.47,3.65c0.85,0.1,1.72,0.14,2.57,0.14c3.85-0.08,22.73,0.22,26.21-0.24
			c1.53-0.16,3.08-0.42,4.56-0.87c1.37-0.42,2.7-1.04,3.67-1.97c0.23-0.23,0.28-0.3,0.41-0.45c0.08-0.1,0.1-0.13,0.1-0.13
			c0.07-0.1,0.1-0.14,0.1-0.14c0.07-0.1,0.09-0.14,0.09-0.14c0.07-0.11,0.09-0.14,0.09-0.14c0.06-0.11,0.08-0.14,0.08-0.14
			c0.06-0.11,0.08-0.15,0.08-0.15c0.05-0.11,0.07-0.15,0.07-0.15c0.05-0.11,0.07-0.15,0.07-0.15c0.05-0.11,0.06-0.15,0.06-0.15
			c1.01-3.02,1.02-6.33,0.04-9.35c-0.94-2.93-2.63-5.58-4.56-7.95c-1.83-2.3-3.93-4.02-5.68-6.36c-1.48-1.94-2.71-4.11-3.58-6.4
			c-0.52-1.39-1.02-2.98-1.13-4.42c-0.3-3.66,0.63-7.31,1.76-10.76c1.08-3.3,2.73-6.8,4.16-9.98c3.46-7.78,6.83-16.1,9.74-24.11
			c3.83-11.17,4.89-23.16,5.23-34.89c12.81,0.3,26.75,1.4,39.54,2.65c-0.64,6.41-1.63,13.16-2.95,19.47
			c-0.49,2.21-1.06,4.66-1.34,6.88c-0.83,6.13-0.25,12.49,1.95,18.29c0.53,1.4,1.15,2.8,1.84,4.12c0.54,1.04,1.23,2.19,1.79,3.22
			c1,1.83,1.97,3.81,2.79,5.73c2,4.66,3.47,9.6,4.32,14.61c0.82,4.94,1.1,10.09,1.25,15.1c0.04,3.21,0,6.52-0.57,9.69
			c-0.22,1.16-0.57,2.31-0.71,3.49c-0.34,2.38-0.23,4.83,0.31,7.17c0.28,1.17,0.65,2.47,1.16,3.53c1.4,2.83,4.37,4.2,7.27,4.72
			c1.18,0.22,2.39,0.33,3.59,0.36c4.44,0.01,26.38,0.09,30.47-0.08c2.51-0.12,5.13-0.29,7.6-0.77c1.38-0.27,2.89-0.65,4.07-1.38
			c0.12-0.08,0.18-0.12,0.18-0.12c0.11-0.08,0.16-0.12,0.16-0.12c0.1-0.08,0.13-0.1,0.13-0.1c0.12-0.1,0.14-0.13,0.14-0.13
			c0.11-0.11,0.15-0.15,0.15-0.15c0.08-0.09,0.13-0.14,0.13-0.14c0.08-0.09,0.12-0.14,0.12-0.14c0.08-0.1,0.12-0.15,0.12-0.15
			c0.08-0.1,0.11-0.15,0.11-0.15c0.07-0.11,0.11-0.16,0.11-0.16c1.12-1.8,1.25-3.93,1.22-5.97c-0.08-1.93-0.3-3.9-0.8-5.77
			c-0.44-1.63-1.26-3.32-2.34-4.55c-1.2-1.4-2.77-2.38-4.4-2.97c-0.97-0.35-2.02-0.56-3-0.87c-1.92-0.61-3.99-1.46-5.5-2.79
			c-0.58-0.51-1.02-1.06-1.33-1.62c-0.06-0.11-0.08-0.16-0.08-0.16c-0.05-0.11-0.08-0.16-0.08-0.16c-0.05-0.11-0.07-0.16-0.07-0.16
			c-0.4-1.01-0.54-1.98-0.67-3.03c-0.23-2.07-0.24-4.28-0.2-6.37c0.17-5.96,0.49-12.05,2.13-17.81c0.87-3.12,2.08-6.18,3.64-9.02
			c1.23-2.31,2.89-4.45,4.31-6.64c2.59-3.96,4.92-8.17,6.91-12.46c0.52,12.65,1.86,25.49,4.58,37.87
			c2.39,10.11,6.16,24.64,8.39,34.72c0.26,1.16,0.61,2.33,1.06,3.42c0.44,1.11,1.14,2.36,1.84,3.28c0.97,1.31,2.21,2.34,3.51,3.07
			c2.13,1.18,4.54,1.6,6.94,1.6c3.1-0.08,27.49,0.22,29.93-0.23c2.3-0.27,4.61-0.77,6.71-1.76c2.5-1.15,4.6-3.13,5.66-5.57
			c0.39-0.85,0.65-1.77,0.86-2.68c0.33-1.45,0.51-2.95,0.47-4.43c-0.04-2.16-0.66-4.49-1.67-6.31c-1.04-1.96-2.5-3.53-4.13-4.99
			c-2.48-2.27-5.16-4.4-8.01-6.18c-1.2-0.75-2.48-1.46-3.75-2.08c-2.08-0.97-4.39-1.99-6.04-3.58c-0.26-0.25-0.44-0.47-0.59-0.66
			c-0.06-0.09-0.1-0.13-0.1-0.13c-0.06-0.09-0.09-0.13-0.09-0.13c-0.05-0.09-0.08-0.13-0.08-0.13c-0.05-0.09-0.07-0.13-0.07-0.13
			c-0.04-0.09-0.07-0.13-0.07-0.13c-0.04-0.09-0.06-0.13-0.06-0.13c-0.03-0.09-0.05-0.13-0.05-0.13c-0.03-0.09-0.04-0.13-0.04-0.13
			c-0.03-0.11-0.04-0.13-0.04-0.13c-0.02-0.11-0.03-0.13-0.03-0.13c-0.02-0.11-0.02-0.13-0.02-0.13c-0.01-0.11-0.01-0.13-0.01-0.13
			c0-0.11-0.01-0.13-0.01-0.13c0-0.11,0-0.13,0-0.13c0.01-0.09,0.01-0.13,0.01-0.13c0.13-1.09,0.46-2.05,0.78-3.08
			c2.44-7.36,6.05-14.54,8.48-21.91c1.92-5.72,3.43-11.76,4.43-17.71c1.5-11.17,5.45-21.9,10.76-31.8c4.2,1.21,8.78,2.11,13,3.2
			c3.29,0.89,6.59,2.04,9.68,3.49c2.64,1.24,5.19,2.73,7.51,4.5c1.9,1.44,3.69,3.25,5.51,4.79c3.88,3.28,8.01,6.46,12.69,8.5
			c4.59,1.93,9.74,2.12,14.62,1.41c0.48,0.19,0.97,0.3,1.4,0.35c1.84,0.18,3.53-0.41,5.09-1.13c1.84-0.87,3.53-2.06,5.04-3.41
			c1.36-1.23,2.73-2.79,3.52-4.43c0.89-1.8,1.05-3.84,0.43-5.64c0.09-1.22,0.04-2.48-0.1-3.7c-0.14-1.21-0.43-2.58-0.62-3.8
			c-0.37-2.49-0.65-5.04-0.43-7.55c0.07-0.87,0.28-1.91,0.56-2.72c0.31-0.98,0.6-2.12,0.85-3.12c1.55-6.58,3.09-14.29,4.25-20.95
			c0.54-3.33,1.08-6.79,1.21-10.16c0.05-1.22-0.02-2.46-0.3-3.64c-0.49-2.28-1.26-4.66-1.97-6.87c-1.69-5.12-3.96-11.21-5.89-16.26
			c-1.43-3.73-3.12-7.46-5.08-10.94c1.02-2.19,1.88-4.5,2.32-6.88c0.35-1.89,0.4-4.06-0.12-5.87c-0.57-2.08-1.91-3.74-3.45-5.05
			c-1.49-1.26-3.21-2.26-5-3.05c-3.01-1.31-6.3-2.14-9.6-2.04C584.06,241.4,581.67,242.02,579.38,242.82z"/>
	</g>
</g>
</svg>
