<?xml version="1.0" encoding="utf-8"?>
<!-- Generator: Adobe Illustrator 25.2.1, SVG Export Plug-In . SVG Version: 6.00 Build 0)  -->
<!DOCTYPE svg PUBLIC "-//W3C//DTD SVG 1.1//EN" "http://www.w3.org/Graphics/SVG/1.1/DTD/svg11.dtd" [
	<!ENTITY ns_extend "http://ns.adobe.com/Extensibility/1.0/">
	<!ENTITY ns_ai "http://ns.adobe.com/AdobeIllustrator/10.0/">
	<!ENTITY ns_graphs "http://ns.adobe.com/Graphs/1.0/">
	<!ENTITY ns_vars "http://ns.adobe.com/Variables/1.0/">
	<!ENTITY ns_imrep "http://ns.adobe.com/ImageReplacement/1.0/">
	<!ENTITY ns_sfw "http://ns.adobe.com/SaveForWeb/1.0/">
	<!ENTITY ns_custom "http://ns.adobe.com/GenericCustomNamespace/1.0/">
	<!ENTITY ns_adobe_xpath "http://ns.adobe.com/XPath/1.0/">
]>
<svg version="1.1" xmlns:x="&ns_extend;" xmlns:i="&ns_ai;" xmlns:graph="&ns_graphs;"
	 xmlns="http://www.w3.org/2000/svg" xmlns:xlink="http://www.w3.org/1999/xlink" x="0px" y="0px" width="750px" height="750px"
	 viewBox="0 0 750 750" enable-background="new 0 0 750 750" xml:space="preserve">
<metadata>
	<sfw  xmlns="&ns_sfw;">
		<slices></slices>
		<sliceSourceBounds  bottomLeftOrigin="true" height="12757.679" width="14247.625" x="-7111.093" y="-4713.29">
			</sliceSourceBounds>
	</sfw>
</metadata>
<g id="FILL-BACKGROUND">
	<rect fill="#FFFFFF" width="750" height="750"/>
</g>
<g id="N-DIMENSIONS">
</g>
<g id="N-TEXT">
</g>
<g id="AG-DIAGRAM">
	<g>
		<g>
			
				<line fill="none" stroke="#FB8604" stroke-width="3.25" stroke-linecap="round" stroke-linejoin="round" x1="110.16" y1="616.08" x2="112.16" y2="616.08"/>
			
				<line fill="none" stroke="#FB8604" stroke-width="3.25" stroke-linecap="round" stroke-linejoin="round" stroke-dasharray="4.0026,7.0045" x1="119.165" y1="616.08" x2="632.998" y2="616.08"/>
			
				<line fill="none" stroke="#FB8604" stroke-width="3.25" stroke-linecap="round" stroke-linejoin="round" x1="636.5" y1="616.08" x2="638.5" y2="616.08"/>
		</g>
	</g>
</g>
<g id="AG-DETAILS">
	<g id="POLYLINE_1773_">
		<path fill="none" stroke="#FB8604" stroke-width="2" stroke-linecap="round" stroke-linejoin="round" stroke-miterlimit="10" d="
			M599.405,275.984c4.641,5.562,7.954,12.009,9.48,19.106c0.364,1.694,0.63,3.408,0.802,5.132"/>
	</g>
	<g id="POLYLINE_1772_">
		<path fill="none" stroke="#FB8604" stroke-width="2" stroke-linecap="round" stroke-linejoin="round" stroke-miterlimit="10" d="
			M590.887,276.451c-0.146,8.25,0.503,16.463,2.114,24.56c0.46,2.313,1.005,4.605,1.598,6.888"/>
	</g>
	<g id="POLYLINE_1771_">
		<path fill="none" stroke="#FB8604" stroke-width="2" stroke-linecap="round" stroke-linejoin="round" stroke-miterlimit="10" d="
			M594.336,275.436c1.954,4.028,3.653,8.168,5.022,12.433c1.432,4.462,2.51,9.041,3.239,13.67c0.412,2.61,0.693,5.234,0.902,7.868"
			/>
	</g>
</g>
<g id="AG-PEOPLE">
</g>
<g id="AG-DETAIL">
</g>
<g id="AG-ANIMALS">
	<g id="POLYLINE_1487_">
		
			<path fill="none" stroke="#FB8604" stroke-width="2.75" stroke-linecap="round" stroke-linejoin="round" stroke-miterlimit="10" d="
			M348.876,478.444c-2.91,0.989-5.706,2.493-7.792,4.791c-2.1,2.313-3.404,5.201-4.635,8.036
			c-2.483,5.721-4.971,11.429-7.629,17.072c-2.552,5.418-5.292,10.749-7.977,16.101c-2.761,5.504-5.577,10.982-8.175,16.565
			c-1.298,2.789-2.555,5.601-3.732,8.443c-0.951,2.295-2.271,4.78-2.264,7.328c0.007,2.506,1.634,4.641,1.942,7.093
			c0.306,2.435-0.6,4.903,0.18,7.298c0.908,2.787,3.32,4.935,5.483,6.788c2.346,2.009,4.82,3.859,7.271,5.736
			c2.297,1.759,4.615,3.495,6.772,5.425c2.267,2.029,4.168,4.323,6.15,6.619c1.859,2.154,3.962,4.152,6.871,4.623
			c2.687,0.435,5.46-0.079,8.14-0.299c2.666-0.219,5.436-0.112,7.767,1.35c2.411,1.513,3.762,4.05,3.894,6.874
			c0.081,1.734-0.217,3.637-1.179,5.113c-0.954,1.465-2.557,2.107-4.231,2.351c-2.691,0.392-5.484,0.192-8.197,0.256
			c-5.545,0.131-10.945,0.164-16.303-1.473c-5.364-1.639-10.155-4.517-14.657-7.808c-4.704-3.439-9.272-7.108-13.322-11.309
			c-4.041-4.192-7.301-9.09-11.5-13.13c-2.101-2.021-4.469-3.724-6.697-5.597c-2.171-1.825-3.947-3.941-5.782-6.091
			c-1.844-2.161-3.986-4.075-5.718-6.329c-2.007-2.611-2.455-5.161-1.573-8.33c0.738-2.654,1.831-5.18,2.436-7.876
			c0.565-2.517,0.862-5.086,1.055-7.656c0.461-6.121,0.768-12.282,0.723-18.422c-0.042-5.816-0.544-11.603-1.531-17.336
			c-0.482-2.8-1.087-5.57-1.732-8.336"/>
	</g>
	<g id="POLYLINE_1485_">
		
			<path fill="none" stroke="#FB8604" stroke-width="2.75" stroke-linecap="round" stroke-linejoin="round" stroke-miterlimit="10" d="
			M556.356,423.137c-1.907,6.97-4.311,13.734-7.632,20.164c-3.359,6.502-7.414,12.618-11.623,18.595
			c-4.316,6.129-8.807,12.137-12.979,18.366c-4.031,6.018-7.628,12.272-10.621,18.872c-3.229,7.119-6.005,14.453-8.912,21.706
			c-2.573,6.422-4.632,13.02-7.105,19.476c-2.648,6.914-6.236,13.424-8.811,20.371c-2.252,6.076-4.013,12.625-3.421,19.159
			c0.29,3.194,0.883,6.314,0.742,9.534c-0.122,2.803-0.578,5.936,0.631,8.584c1.339,2.933,4.515,4.469,7.622,4.435
			c1.804-0.02,3.64-0.414,5.435-0.082c1.596,0.295,2.978,1.262,3.951,2.543c2.101,2.764,2.064,7.302-0.554,9.765
			c-2.53,2.38-6.948,1.042-10.053,1.076c-3.211,0.035-6.465,0.722-9.672,0.32c-3.41-0.427-5.617-2.727-7.344-5.562
			c-1.799-2.954-3.441-6.288-4.285-9.653c-0.793-3.161-0.306-6.465-1.076-9.615c-0.422-1.723-1.373-2.988-2.555-4.273
			c-1.313-1.426-2.402-2.837-2.935-4.735c-0.859-3.065-0.508-6.413,0.049-9.499c0.643-3.561,1.7-7.03,2.491-10.559
			c0.791-3.53,1.17-7.112,1.311-10.723c0.27-6.908,0.089-13.782,0.735-20.677c0.382-4.078,0.813-8.155,1.113-12.24
			c0.263-3.59,0.413-7.188,0.725-10.774c0.3-3.448,0.743-6.891,1.608-10.247c0.887-3.439,1.866-6.808,2.569-10.292
			c0.647-3.209,1.516-6.661,0.679-9.919c-0.759-2.956-2.78-5.469-4.297-8.058c-3.373-5.754-4.805-12.398-5.413-18.984
			c-0.305-3.302-0.356-6.616-0.176-9.927"/>
	</g>
	<g id="POLYLINE_1470_">
		
			<path fill="none" stroke="#FB8604" stroke-width="2.75" stroke-linecap="round" stroke-linejoin="round" stroke-miterlimit="10" d="
			M476.706,481.531c-5.77-2.14-12.076-3.295-18.233-3.167c-7.377,0.153-14.773,0.969-22.131,1.491
			c-5.92,0.42-11.854,0.767-17.786,0.952c-6.687,0.209-13.38,0.327-20.069,0.071c-6.53-0.249-13.055-0.758-19.519-1.739
			c-6.615-1.003-13.242-2.454-19.967-2.334c-6.143,0.11-11.82,2.133-17.656,3.838c-6.516,1.903-13.019,3.822-19.625,5.397
			c-6.655,1.587-13.384,2.712-20.126,3.849c-6.563,1.107-13.141,2.158-19.607,3.758c-6.076,1.503-11.993,3.53-17.652,6.211
			c-5.621,2.664-10.963,5.902-15.976,9.581c-5.399,3.963-10.436,8.403-15.912,12.263c-5.379,3.792-11.114,7.053-17.09,9.809
			c-5.844,2.695-11.919,4.901-18.117,6.633c-6.512,1.819-13.185,2.848-19.751,4.43c-6.072,1.464-12.163,3.575-17.012,7.644
			c-4.036,3.387-6.898,7.851-7.246,13.186c-0.202,3.095,0.222,6.182,0.32,9.273c0.103,3.25-0.133,6.483-0.468,9.714
			c-0.321,3.098-0.811,6.211-0.858,9.331c-0.035,2.354,0.141,5.281,2.039,6.957c2.096,1.85,5.332,1.827,7.773,3.061
			c2.584,1.306,4.155,4.057,4.264,6.926c0.131,3.463-2.444,5.224-5.472,6.115c-2.591,0.763-5.338,1.189-8.033,1.33
			c-2.74,0.143-5.479-0.098-8.164-0.652c-2.841-0.587-6.626-1.468-7.903-4.422c-1.18-2.729-0.589-5.948-1.305-8.808
			c-0.691-2.76-2.087-5.267-2.923-7.977c-1.94-6.287-0.161-12.943,0.232-19.323c0.43-6.985,0.09-14.004-0.093-20.992
			c-0.162-6.194-0.526-12.611,0.812-18.705c1.444-6.573,5.668-11.594,10.518-16.04c4.92-4.511,10.263-8.532,15.343-12.856
			c4.79-4.078,9.263-8.517,13.281-13.362c4.1-4.945,7.808-10.238,10.896-15.876c3.118-5.693,5.511-11.722,7.06-18.028
			c1.605-6.531,2.206-13.173,2.721-19.859c0.462-5.991,1.228-11.885,3.703-17.42c2.335-5.223,5.722-9.808,9.5-14.071
			c4.209-4.748,9.527-9.807,10.851-16.278c1.182-5.772-1.038-11.877-2.454-17.407c-1.659-6.48-3.377-12.957-4.877-19.476
			c-1.537-6.685-2.997-13.381-4.085-20.157c-1.086-6.763-1.854-13.571-2.274-20.408c-0.404-6.585-0.493-13.212-0.175-19.803
			c0.326-6.765,0.986-13.501,2.06-20.189c1.053-6.554,2.504-13.032,4.264-19.432c1.752-6.372,3.928-12.622,6.362-18.762
			c2.395-6.041,5.149-11.947,8.156-17.707c3.129-5.993,6.594-11.78,10.238-17.472c3.559-5.558,7.294-11.01,10.943-16.51
			c3.822-5.76,7.626-11.533,11.465-17.282c3.61-5.406,7.317-10.741,11.2-15.955c2.09-2.806,4.187-5.607,6.319-8.382
			c1.946-2.533,3.938-5.055,6.411-7.102c2.086-1.726,4.453-3.062,6.98-4.026c2.24-0.854,5.5-2.046,7.929-1.291
			c4.716,1.465-4.049,12.562-5.48,14.35c-4.052,5.064-8.984,9.321-12.604,14.738c-3.774,5.647-6.628,11.864-9.641,17.931
			c-2.718,5.474-5.638,10.816-8.598,16.162c-3.399,6.142-6.917,12.234-10.121,18.483c-3.039,5.929-5.908,11.926-8.401,18.107
			c-2.436,6.041-4.451,12.262-6.162,18.545c-1.771,6.502-3.228,13.076-4.496,19.694c-1.27,6.628-2.298,13.303-2.968,20.019
			c-0.645,6.461-0.931,12.964-0.732,19.456c0.204,6.66,0.899,13.283,1.89,19.869c0.97,6.445,2.266,12.855,3.739,19.203
			c1.388,5.982,2.966,12.141,6.176,17.442c3.017,4.984,7.48,8.118,13.085,9.592c5.897,1.551,12.149,1.662,18.21,1.698
			c7.336,0.044,14.672-0.306,22.003-0.542c4.518-0.145,9.035-0.198,13.555-0.207c8.195-0.017,16.39-0.034,24.585-0.05
			c9.039-0.018,18.077-0.037,27.116-0.056c4.254-0.009,8.516-0.06,12.768,0.09c7.648,0.27,15.295,0.586,22.944,0.81
			c6.229,0.182,12.474,0.178,18.688-0.335c5.932-0.49,11.932-1.484,17.365-4.019c5.183-2.419,9.575-6.471,15.245-7.802
			c6.142-1.442,12.534-0.341,18.763-0.643c6.201-0.301,11.808-2.149,17.176-5.232c2.788-1.601,5.571-3.27,8.223-5.089
			c1.204-0.825,2.321-1.753,3.486-2.63c1.344-1.012,2.681-1.581,4.306-1.969c1.912-0.458,3.45-1.254,4.705-2.813
			c0.878-1.09,1.551-2.334,2.166-3.586c1.463-2.978,2.708-6.064,3.906-9.156c2.272-5.861,4.413-11.731,7.088-17.425
			c2.711-5.771,5.653-11.531,7.173-17.76c1.359-5.57,1.169-11.353,1.244-17.043"/>
	</g>
	<g id="POLYLINE_1469_">
		
			<path fill="none" stroke="#FB8604" stroke-width="2.75" stroke-linecap="round" stroke-linejoin="round" stroke-miterlimit="10" d="
			M516.59,492.766c4.257,4.078,7.229,8.9,9.634,14.249c2.703,6.014,5.08,12.079,8.36,17.819c3.283,5.745,6.977,11.245,10.23,17.008
			c3.176,5.626,5.944,11.47,8.424,17.433c2.86,6.877,5.497,13.85,8.224,20.781c2.028,5.154,4.357,9.849,8.7,13.441
			c2.662,2.202,5.374,4.2,7.159,7.233c1.545,2.625,2.515,5.539,3.752,8.311c1.081,2.422,2.411,5.036,4.927,6.22
			c2.405,1.132,5.245,1.013,7.833,0.894c3.24-0.149,6.429-0.133,9.67-0.121c2.433,0.009,4.956-0.206,7.07-1.522
			c2.394-1.49,4.04-4.071,3.624-6.949c-0.38-2.627-2.132-4.84-4.492-5.996c-2.802-1.373-5.729-0.91-8.729-0.851
			c-2.763,0.054-5.606-0.626-7.747-2.463c-2.427-2.083-3.045-5.339-3.998-8.23c-0.807-2.446-2.105-4.603-3.574-6.706
			c-1.718-2.459-3.393-4.884-4.692-7.597c-1.393-2.911-2.466-5.959-3.497-9.013c-2.113-6.263-4.005-12.616-5.535-19.047
			c-1.54-6.471-2.449-13.078-4.105-19.522c-1.609-6.261-3.864-12.332-5.608-18.554c-1.767-6.303-2.903-12.757-3.417-19.283
			c-0.538-6.835-0.273-13.665-0.027-20.506c0.229-6.359,0.438-12.729,0.912-19.075c0.495-6.619,1.481-13.19,1.966-19.809
			c0.484-6.604,0.207-13.212-0.409-19.797c-0.63-6.729-1.598-13.429-2.124-20.168c-0.464-5.949-0.324-11.851,1.281-17.63
			c1.727-6.218,4.337-12.138,5.954-18.396c1.628-6.299,2.676-12.736,4.461-18.996c1.686-5.915,4.318-11.436,6.856-17.019
			c2.604-5.73,5.053-11.68,8.946-16.689c1.595-2.052,3.443-3.922,5.588-5.4c2.551-1.757,5.464-2.871,8.193-4.307
			c4.642-2.443,8.058-6.3,9.988-11.182c0.925-2.339,1.453-4.847,1.384-7.368c-0.039-1.434-0.269-2.854-0.402-4.28
			c-0.141-1.519-0.05-3.017,0.029-4.536c0.065-1.235,0.127-2.528-0.135-3.746c-0.333-1.552-1.203-2.133-2.742-2.313
			c-0.822-0.096-1.648-0.136-2.419-0.467c-0.723-0.31-1.355-0.8-2.039-1.183c-1.065-0.595-2.215-1.026-3.395-1.329
			c-1.27-0.326-2.576-0.502-3.884-0.577c-0.81-0.046-1.622-0.052-2.433-0.026c-0.796,0.025-1.682,0.229-2.467,0.152
			c-1.311-0.129-2.225-1.619-3.169-2.408c-1.126-0.94-2.377-1.708-3.714-2.31c-4.965-2.236-10.563-1.709-15.833-1.199
			c-3.457,0.335-6.939,0.551-10.39,0.924c-2.744,0.297-5.307,1.504-8.043,1.894c-5.568,0.794-10.419-2.239-14.094-6.162
			c-3.971-4.239-7.162-9.292-12.516-11.965c-2.282-1.139-5.193-2.164-7.766-1.613c-3.238,0.693-3.991,4.549-4.388,7.349
			c-0.852,6.007-0.611,12.112,1.054,17.96c0.866,3.043,2.021,5.994,2.971,9.011c0.847,2.689,1.701,5.281,3.029,7.783
			c2.779,5.236,6.865,10.372,11.883,13.618c4.485,2.901,9.186,2.76,14.216,1.572"/>
	</g>
</g>
<g id="AG-OUTLINE">
	<g id="POLYLINE_1277_">
		
			<path fill="none" stroke="#FB8604" stroke-width="3.5" stroke-linecap="round" stroke-linejoin="round" stroke-miterlimit="10" d="
			M522.19,279.917c-0.072,5.406,0.122,10.922-1.055,16.233c-1.081,4.876-3.089,9.475-5.203,13.977
			c-2.427,5.167-4.807,10.312-6.832,15.653c-2.101,5.542-4.03,11.278-6.83,16.52c-1.437,2.69-3.224,4.644-6.27,5.378
			c-1.476,0.356-2.748,0.809-3.998,1.698c-1.05,0.747-2.025,1.595-3.07,2.35c-2.276,1.644-4.712,3.069-7.11,4.525
			c-2.364,1.436-4.793,2.794-7.35,3.857c-4.857,2.02-10.039,2.606-15.262,2.565c-5.304-0.041-10.793-0.642-15.983,0.774
			c-4.92,1.342-8.885,4.733-13.347,7.042c-4.544,2.351-9.591,3.549-14.64,4.189c-5.456,0.692-10.982,0.884-16.478,0.847
			c-5.857-0.039-11.71-0.303-17.562-0.51c-6.118-0.216-12.227-0.461-18.349-0.504c-4.032-0.029-8.065,0.014-12.097,0.022
			c-8.472,0.017-16.945,0.035-25.417,0.052c-6.805,0.014-13.611,0.028-20.416,0.042c-3.702,0.008-7.405,0.019-11.106,0.138
			c-6.468,0.207-12.937,0.491-19.407,0.586c-5.549,0.081-11.148,0.07-16.67-0.551c-4.892-0.55-10.036-1.666-14.052-4.674
			c-3.886-2.91-6.328-7.315-8.058-11.76c-2.079-5.344-3.285-10.988-4.479-16.581c-1.19-5.573-2.27-11.175-3.039-16.823
			c-0.783-5.743-1.343-11.509-1.523-17.304c-0.176-5.693,0.018-11.394,0.5-17.068c0.501-5.892,1.313-11.752,2.302-17.581
			c0.956-5.635,2.092-11.25,3.409-16.812c1.368-5.779,2.94-11.508,4.799-17.15c1.772-5.378,3.85-10.642,6.161-15.81
			c2.346-5.245,4.947-10.383,7.668-15.442c3.068-5.703,6.272-11.336,9.407-17.002c2.383-4.305,4.712-8.622,6.901-13.029
			c2.712-5.461,5.294-11.023,8.472-16.237c3.046-4.999,6.908-9.085,10.871-13.355c3.542-3.816,6.991-8.135,9.143-12.91
			c0.761-1.687,1.889-4.667-0.714-5.248c-2.212-0.494-4.889,0.38-6.949,1.105c-4.841,1.704-8.738,4.755-11.98,8.701
			c-3.635,4.424-7.024,9.089-10.381,13.725c-3.205,4.425-6.322,8.9-9.351,13.448c-3.512,5.271-7.003,10.556-10.505,15.835
			c-3.74,5.638-7.481,11.276-11.221,16.914c-2.77,4.175-5.38,8.47-7.827,12.842c-2.798,4.999-5.431,10.1-7.775,15.329
			c-2.348,5.239-4.524,10.555-6.395,15.984c-1.922,5.576-3.573,11.23-4.967,16.961c-1.347,5.537-2.395,11.154-3.18,16.798
			c-0.79,5.681-1.315,11.401-1.543,17.133c-0.24,6.027-0.176,12.056,0.141,18.078c0.304,5.784,0.878,11.56,1.689,17.295
			c0.812,5.739,1.853,11.448,3.084,17.112c1.342,6.175,2.878,12.299,4.396,18.432c1.34,5.411,2.929,10.776,4.108,16.225
			c0.505,2.332,0.879,4.72,0.767,7.113c-0.126,2.687-0.991,5.198-2.305,7.532c-2.781,4.941-6.973,8.869-10.596,13.168
			c-3.2,3.797-5.99,7.975-7.961,12.546c-2.06,4.778-2.906,9.87-3.339,15.027c-0.495,5.893-0.848,11.772-1.961,17.592
			c-1.06,5.543-2.676,10.976-4.968,16.137c-2.282,5.139-5.127,9.997-8.325,14.616c-3.086,4.458-6.532,8.682-10.277,12.603
			c-3.811,3.991-7.95,7.583-12.211,11.079c-4.632,3.801-9.408,7.506-13.677,11.721c-4.067,4.015-7.339,8.591-8.564,14.256
			c-1.142,5.28-0.986,10.819-0.857,16.19c0.149,6.213,0.432,12.432,0.335,18.648c-0.043,2.776-0.184,5.551-0.474,8.313
			c-0.299,2.843-0.727,5.682-0.806,8.544c-0.075,2.741,0.221,5.467,1.143,8.06c0.843,2.373,2.005,4.628,2.63,7.076
			c0.627,2.458,0.386,5.011,0.899,7.48c0.633,3.05,3.094,4.403,5.877,5.226c4.721,1.397,9.705,1.617,14.55,0.819
			c2.378-0.392,4.995-0.851,7.067-2.149c2.308-1.446,2.886-4.008,2.264-6.536c-0.656-2.664-2.385-4.64-4.922-5.652
			c-2.234-0.891-5.104-1.033-6.937-2.716c-1.628-1.494-1.93-3.949-1.974-6.037c-0.057-2.681,0.333-5.362,0.621-8.021
			c0.304-2.812,0.62-5.625,0.706-8.454c0.085-2.791-0.127-5.552-0.29-8.335c-0.27-4.584,0.196-8.861,2.817-12.746
			c2.972-4.405,7.513-7.521,12.347-9.578c5.225-2.223,10.823-3.313,16.361-4.436c5.686-1.152,11.318-2.424,16.85-4.192
			c5.42-1.731,10.715-3.842,15.837-6.318c5.069-2.451,9.968-5.291,14.576-8.529c4.788-3.363,9.243-7.16,13.888-10.712
			c4.461-3.413,9.111-6.545,14.059-9.213c4.161-2.243,8.483-4.153,12.936-5.738c1.482,6.364,2.617,12.777,3.042,19.305
			c0.438,6.716,0.148,13.44-0.213,20.151c-0.165,3.071-0.334,6.15-0.777,9.196c-0.426,2.931-1.232,5.709-2.199,8.501
			c-0.99,2.858-1.977,5.873-0.541,8.761c1.484,2.983,4.255,5.183,6.412,7.655c2.058,2.359,3.972,4.765,6.378,6.789
			c2.434,2.047,5.021,3.901,7.272,6.159c4.528,4.543,8.117,9.907,12.736,14.379c4.598,4.452,9.75,8.509,15.112,12.001
			c4.955,3.227,10.449,5.666,16.336,6.508c2.937,0.42,5.9,0.409,8.859,0.339c3.285-0.078,6.672,0.112,9.938-0.251
			c1.822-0.203,3.63-0.804,4.674-2.407c1.032-1.584,1.31-3.658,1.152-5.509c-0.26-3.037-1.989-5.644-4.752-6.965
			c-5.514-2.636-11.891,1.372-17.345-1.278c-3.11-1.511-5.093-4.693-7.336-7.187c-2.191-2.435-4.684-4.558-7.265-6.567
			c-2.649-2.061-5.363-4.04-7.976-6.146c-2.461-1.983-5.135-4.06-6.804-6.793c-1.67-2.735-0.875-5.32-0.967-8.312
			c-0.084-2.766-1.992-5.102-1.999-7.864c-0.007-2.753,1.495-5.518,2.537-7.986c1.25-2.96,2.558-5.899,3.94-8.799
			c3.298-6.92,6.789-13.746,10.226-20.598c2.777-5.536,5.508-11.091,8.08-16.727c1.453-3.184,2.843-6.394,4.224-9.609
			c1.229-2.863,2.398-5.81,4.225-8.357c3.781-5.273,10.465-7.294,16.669-7.783c7.079-0.558,14.124,0.895,21.079,2.006
			c6.254,1,12.565,1.578,18.891,1.871c6.489,0.301,12.997,0.288,19.489,0.085c6.351-0.198,12.706-0.49,19.045-0.941
			c7.397-0.525,14.807-1.249,22.217-1.545c6.224-0.249,12.453,0.768,18.35,2.757c0.189,0.064,0.959,0.21,1.062,0.375
			c0.108,0.172-0.093,0.892-0.12,1.1c-0.099,0.76-0.228,1.516-0.371,2.269c-0.308,1.61-0.619,3.224-0.963,4.826
			c-0.696,3.242-1.814,6.376-2.504,9.619c-1.346,6.335-1.416,12.851-1.902,19.284c-0.512,6.77-1.402,13.511-1.65,20.299
			c-0.243,6.648,0.176,13.327-0.867,19.927c-0.998,6.314-3.545,12.398-3.666,18.845c-0.061,3.261,0.686,6.202,2.911,8.655
			c1.078,1.188,2.206,2.307,2.774,3.842c0.478,1.29,0.623,2.686,0.7,4.052c0.187,3.323,0.399,6.37,1.645,9.504
			c1.123,2.825,2.499,5.706,4.287,8.174c1.873,2.585,4.204,4.021,7.392,4.182c2.993,0.151,5.975-0.411,8.968-0.409
			c2.951,0.002,7.049,1.2,9.542-0.897c2.453-2.063,2.86-6.14,1.431-8.874c-0.649-1.242-1.653-2.325-2.889-2.997
			c-1.478-0.804-3.133-0.789-4.765-0.675c-3.028,0.211-5.825,0.181-8.228-1.916c-1.975-1.723-2.561-4.123-2.595-6.644
			c-0.041-3.003,0.323-5.945,0.002-8.946c-0.321-3.001-0.819-5.939-0.667-8.968c0.151-3.02,0.73-6.007,1.513-8.923
			c1.768-6.581,4.673-12.74,7.501-18.912c2.766-6.037,4.901-12.214,7.124-18.467c2.417-6.799,5.214-13.465,7.897-20.161
			c2.25-5.614,4.615-11.176,7.386-16.555c4.049,3.879,6.992,8.446,9.311,13.53c2.628,5.763,4.846,11.66,7.931,17.208
			c3.105,5.583,6.649,10.908,9.88,16.418c3.113,5.308,5.865,10.833,8.305,16.48c2.788,6.451,5.267,13.035,7.84,19.573
			c1.927,4.897,3.623,10.215,7.019,14.331c1.995,2.417,4.628,4.141,6.946,6.216c2.369,2.12,3.916,4.697,5.173,7.584
			c1.155,2.653,2.08,5.472,3.626,7.935c1.406,2.239,3.348,3.56,5.962,3.973c2.894,0.457,5.871,0.073,8.777-0.032
			c2.872-0.104,5.765,0.234,8.629-0.046c4.916-0.482,9.772-4.534,7.827-9.874c-0.879-2.414-2.879-4.169-5.288-4.978
			c-2.896-0.973-5.868-0.223-8.838-0.387c-2.552-0.141-5.241-1.099-7.029-2.984c-2.064-2.176-2.594-5.248-3.528-7.986
			c-1.74-5.098-5.74-9.004-8.076-13.818c-2.672-5.506-4.432-11.509-6.176-17.36c-1.76-5.908-3.25-11.863-4.431-17.913
			c-1.278-6.545-2.638-12.971-4.606-19.349c-1.839-5.959-3.873-11.849-5.172-17.958c-1.277-6.008-1.971-12.139-2.151-18.277
			c-0.18-6.14,0.114-12.291,0.375-18.424c0.286-6.716,0.497-13.441,1.143-20.135c0.598-6.201,1.526-12.378,1.797-18.607
			c0.277-6.378-0.159-12.773-0.809-19.116c-0.654-6.38-1.589-12.747-1.999-19.15c-0.37-5.767-0.052-11.425,1.574-16.992
			c1.75-5.994,4.221-11.73,5.778-17.788c1.561-6.074,2.596-12.273,4.272-18.319c1.64-5.916,4.209-11.421,6.741-16.994
			c2.454-5.402,4.748-10.97,8.162-15.86c1.427-2.044,3.064-3.958,4.975-5.566c2.186-1.84,4.713-3.074,7.271-4.304
			c2.478-1.191,4.952-2.411,7.013-4.263c1.778-1.597,3.236-3.536,4.373-5.633c1.1-2.029,1.923-4.22,2.325-6.496
			c0.48-2.719,0.056-5.316-0.167-8.032c-0.216-2.62,0.466-5.328-0.068-7.921c-0.293-1.425-1.032-2.132-2.478-2.333
			c-0.819-0.114-1.659-0.116-2.445-0.4c-0.692-0.25-1.29-0.69-1.916-1.065c-2.044-1.224-4.381-1.828-6.738-2.053
			c-1.578-0.151-3.168-0.137-4.747-0.018c-0.693,0.052-1.294,0.145-1.92-0.219c-0.61-0.355-1.06-0.977-1.571-1.456
			c-3.928-3.687-9.06-4.732-14.282-4.578c-3.093,0.091-6.172,0.428-9.25,0.726c-1.575,0.153-3.15,0.33-4.729,0.443
			c-1.311,0.094-2.618,0.122-3.904,0.418c-2.551,0.585-4.987,1.567-7.62,1.76c-2.683,0.197-5.288-0.557-7.617-1.867
			c-4.927-2.772-7.897-7.698-11.736-11.666c-1.834-1.895-3.899-3.58-6.274-4.751c-2.19-1.08-4.873-2.003-7.344-1.633
			c-3.28,0.491-4.196,4.046-4.646,6.859c-0.463,2.898-0.646,5.872-0.554,8.804c0.194,6.155,2.156,11.755,4.107,17.526
			c0.815,2.41,1.446,4.835,2.516,7.154C519.239,275.512,520.631,277.768,522.19,279.917z"/>
	</g>
</g>
</svg>
