<?xml version="1.0" encoding="utf-8"?>
<!-- Generator: Adobe Illustrator 25.2.1, SVG Export Plug-In . SVG Version: 6.00 Build 0)  -->
<!DOCTYPE svg PUBLIC "-//W3C//DTD SVG 1.1//EN" "http://www.w3.org/Graphics/SVG/1.1/DTD/svg11.dtd" [
	<!ENTITY ns_extend "http://ns.adobe.com/Extensibility/1.0/">
	<!ENTITY ns_ai "http://ns.adobe.com/AdobeIllustrator/10.0/">
	<!ENTITY ns_graphs "http://ns.adobe.com/Graphs/1.0/">
	<!ENTITY ns_vars "http://ns.adobe.com/Variables/1.0/">
	<!ENTITY ns_imrep "http://ns.adobe.com/ImageReplacement/1.0/">
	<!ENTITY ns_sfw "http://ns.adobe.com/SaveForWeb/1.0/">
	<!ENTITY ns_custom "http://ns.adobe.com/GenericCustomNamespace/1.0/">
	<!ENTITY ns_adobe_xpath "http://ns.adobe.com/XPath/1.0/">
]>
<svg version="1.1" xmlns:x="&ns_extend;" xmlns:i="&ns_ai;" xmlns:graph="&ns_graphs;"
	 xmlns="http://www.w3.org/2000/svg" xmlns:xlink="http://www.w3.org/1999/xlink" x="0px" y="0px" width="750px" height="750px"
	 viewBox="0 0 750 750" enable-background="new 0 0 750 750" xml:space="preserve">
<metadata>
	<sfw  xmlns="&ns_sfw;">
		<slices></slices>
		<sliceSourceBounds  bottomLeftOrigin="true" height="12757.679" width="14247.625" x="-7111.093" y="-4713.29">
			</sliceSourceBounds>
	</sfw>
</metadata>
<g id="FILL-BACKGROUND">
	<rect fill="#FFFFFF" width="750" height="750"/>
</g>
<g id="N-DIMENSIONS">
</g>
<g id="N-TEXT">
</g>
<g id="AG-DIAGRAM">
	<g>
		<g>
			
				<line fill="none" stroke="#FB8604" stroke-width="3.25" stroke-linecap="round" stroke-linejoin="round" x1="258.5" y1="555.139" x2="260.5" y2="555.139"/>
			
				<line fill="none" stroke="#FB8604" stroke-width="3.25" stroke-linecap="round" stroke-linejoin="round" stroke-dasharray="3.9461,6.9057" x1="267.406" y1="555.139" x2="600.359" y2="555.139"/>
			
				<line fill="none" stroke="#FB8604" stroke-width="3.25" stroke-linecap="round" stroke-linejoin="round" x1="603.812" y1="555.139" x2="605.812" y2="555.139"/>
		</g>
	</g>
</g>
<g id="AG-DETAILS">
	<g id="POLYLINE_1827_">
		<path fill="none" stroke="#FB8604" stroke-width="2" stroke-linecap="round" stroke-linejoin="round" stroke-miterlimit="10" d="
			M309.315,529.257c1.841-1.332,3.793-3.227,3.883-5.651c0.057-1.534-0.562-3.02-1.306-4.33c-1.083-1.908-2.53-3.572-3.946-5.236
			c-1.426-1.675-2.948-3.377-3.582-5.533c-0.615-2.094-0.326-4.31-0.566-6.452c-0.236-2.108-1.284-3.672-2.963-4.952
			c-1.747-1.331-3.727-2.333-5.565-3.527c-1.703-1.106-3.293-2.348-4.784-3.726c-1.636-1.512-3.167-3.13-4.671-4.771
			c-1.632-1.782-3.213-3.902-5.129-5.404c-0.239-0.187-0.952-0.733-0.971-0.07"/>
	</g>
	<g id="POLYLINE_1826_">
		<path fill="none" stroke="#FB8604" stroke-width="2" stroke-linecap="round" stroke-linejoin="round" stroke-miterlimit="10" d="
			M133.424,428.336c-0.411-1.349,0.114-3.01,0.435-4.329c0.455-1.869,0.981-3.72,1.405-5.596c0.826-3.655,1.152-7.418-0.131-11.018
			c-1.137-3.192-3.36-5.824-5.945-7.957c-1.406-1.16-2.947-2.126-4.412-3.205c-1.069-0.787-2.925-2.061-2.287-3.619
			c0.643-1.569,2.795-2.478,4.24-3.072c1.505-0.619,3.09-1.077,4.699-1.331c3.432-0.541,6.81,0.068,9.91,1.608
			c5.344,2.655,11.474,7.519,12.367,13.807c0.493,3.472-0.82,6.904-2.476,9.894c-1.653,2.985-3.763,5.726-6.089,8.217
			c-0.615,0.659-1.25,1.296-1.896,1.923"/>
	</g>
	<g id="POLYLINE_1825_">
		<path fill="none" stroke="#FB8604" stroke-width="2" stroke-linecap="round" stroke-linejoin="round" stroke-miterlimit="10" d="
			M604.811,341.252c3.7,2.369,7.215,5.005,10.328,8.117c3.101,3.1,5.708,6.626,7.807,10.474c2.189,4.012,3.868,8.283,5.311,12.613
			c1.399,4.199,2.567,8.468,3.719,12.74c1.438,5.331,2.82,10.68,4.347,15.986c0.167,0.579,0.334,1.158,0.5,1.738"/>
	</g>
	<g id="POLYLINE_1824_">
		<path fill="none" stroke="#FB8604" stroke-width="2" stroke-linecap="round" stroke-linejoin="round" stroke-miterlimit="10" d="
			M501.528,541.891c1.9-2.286,3.568-5.539,2.771-8.583c-0.708-2.702-2.924-5.209-4.458-7.47c-0.762-1.123-1.548-2.228-2.388-3.295"
			/>
	</g>
	<g id="POLYLINE_1823_">
		<path fill="none" stroke="#FB8604" stroke-width="2" stroke-linecap="round" stroke-linejoin="round" stroke-miterlimit="10" d="
			M555.203,354.833c1.331,3.16,2.65,6.297,4.913,8.923c2.296,2.665,5.139,4.793,7.753,7.126c2.732,2.438,5.315,5.073,7.298,8.169
			c1.97,3.075,3.337,6.531,5.543,9.456c2.029,2.69,4.912,4.552,7.384,6.794c1.621,1.47,5.937,5.302,2.59,7.252
			c-1.539,0.897-2.4-0.391-2.94-1.719c-0.608-1.495-0.998-3.073-1.873-4.447c-2.01-3.154-5.788-4.387-7.932-7.418
			c-1.931-2.731-3.543-5.62-5.949-7.99c-0.314-0.309-1.268-1.406-1.792-1.182c-0.51,0.218-0.168,1.345-0.078,1.747
			c0.367,1.631,0.979,3.22,1.603,4.768c1.301,3.229,2.95,6.38,4.697,9.388c0.767,1.321,1.651,2.543,2.729,3.63
			c1.174,1.185,2.561,2.297,2.736,4.063c0.097,0.978-0.02,1.966,0.364,2.9c0.291,0.709,0.817,1.294,1.355,1.827
			c0.568,0.563,1.193,1.06,1.787,1.593c0.557,0.5,1.256,1.208,0.06,1.22c-1.527,0.016-3.402-0.687-4.118-2.108
			c-0.613-1.216-0.517-2.666-0.741-3.975c-0.231-1.353-0.755-2.647-1.567-3.757c-1.08-1.478-2.634-2.392-4.061-3.488
			c-3.03-2.327-3.281-5.983-4.592-9.322c-0.682-1.738-1.554-3.406-2.706-4.881c-1.05-1.345-2.383-2.522-3.113-4.092
			c-0.677-1.457-0.773-3.103-1.026-4.666c-0.284-1.75-0.881-3.297-1.936-4.738c-1.974-2.698-4.705-4.741-6.808-7.337
			c-1.993-2.461-3.32-5.178-4.11-8.243c-0.431-1.671-0.794-3.392-1.492-4.979"/>
	</g>
	<g id="POLYLINE_1822_">
		<path fill="none" stroke="#FB8604" stroke-width="2" stroke-linecap="round" stroke-linejoin="round" stroke-miterlimit="10" d="
			M577.943,366.96c1.67,1.818,3.003,3.84,4.854,5.501c1.863,1.672,3.877,3.174,5.667,4.928c1.674,1.641,3.092,3.516,4.686,5.231
			c1.833,1.971,3.97,3.363,6.476,4.328c2.315,0.892,4.718,1.585,7.092,2.298c0.789,0.237,2.103,0.807,2.937,0.602
			c1.118-0.275-0.443-1.779-0.828-2.17c-1.429-1.448-3.11-2.652-4.85-3.697c-1.08-0.648-2.198-1.227-3.296-1.842
			c-0.299-0.167-1.314-0.587-0.843-0.865c0.304-0.179,1.24,0.09,1.552,0.142c2.109,0.35,4.244,0.919,6.216,1.747
			c2.389,1.004,4.259,2.805,6.531,4.008c2.134,1.13,4.541,1.628,6.674,2.744c0.344,0.18,1.077,0.511,1.028,0.993
			c-0.05,0.483-0.881,0.743-1.249,0.87c-1.117,0.383-2.327,0.487-3.496,0.35c-1.07-0.125-2.305-0.553-3.322-0.013
			c-1.029,0.546-1.558,1.715-2.502,2.372c-1.731,1.206-3.991-0.173-5.522-1.092c-4.484-2.693-8.965-5.476-13.292-8.416
			c-4.125-2.803-8.068-6.007-11.61-9.523c-1.65-1.638-2.892-3.446-4.218-5.339c-1.397-1.994-3.175-3.383-5.191-4.701
			c-0.547-0.357-1.122-0.695-1.639-1.095c-0.206-0.159-1.062-0.884-0.276-0.877"/>
	</g>
	<g id="POLYLINE_1821_">
		<path fill="none" stroke="#FB8604" stroke-width="2" stroke-linecap="round" stroke-linejoin="round" stroke-miterlimit="10" d="
			M530.711,529.812c-1.399-0.141-2.574,0.958-3.74,1.562c-1.348,0.698-2.844,1.014-4.304,1.383c-1.064,0.269-2.61,0.501-3.296,1.446
			c-0.715,0.983,0.14,2.31,0.785,3.092c1.958,2.373,4.41,1.667,6.945,0.725c1.318-0.49,2.652-0.899,3.991-1.331
			c1.063-0.342,2.521-0.746,3.173-1.742C535.432,533.162,532.57,529.812,530.711,529.812z"/>
	</g>
	<g id="POLYLINE_1820_">
		<path fill="none" stroke="#FB8604" stroke-width="2" stroke-linecap="round" stroke-linejoin="round" stroke-miterlimit="10" d="
			M77.291,422.947c6.033-1.316,12.538-1.662,18.561-0.115c2.863,0.735,5.638,1.949,7.944,3.821c2.524,2.048,4.371,4.815,5.715,7.75
			c1.639,3.577,2.566,7.431,3.1,11.316"/>
	</g>
	<g id="POLYLINE_1819_">
		<path fill="none" stroke="#FB8604" stroke-width="2" stroke-linecap="round" stroke-linejoin="round" stroke-miterlimit="10" d="
			M177.348,380.689c-1.019-1.521-2.359-3.027-4.018-3.858c-1.773-0.888-3.523-0.327-5.139,0.643
			c-1.793,1.077-3.406,2.43-5.171,3.553c-1.6,1.018-3.299,1.886-5.067,2.574c-1.44,0.56-3.161,1.203-4.734,1.054
			c-2.486-0.235-0.938-3.129-0.222-4.399c1.908-3.385,4.501-6.566,7.33-9.222c3.029-2.844,6.583-4.869,10.421-6.419"/>
	</g>
	<g id="POLYLINE_1818_">
		<path fill="none" stroke="#FB8604" stroke-width="2" stroke-linecap="round" stroke-linejoin="round" stroke-miterlimit="10" d="
			M177.348,380.689c1.028,1.577,1.073,3.159-0.155,4.65c-1.206,1.466-3.042,2.42-4.908,2.687c-2.17,0.31-4.335-0.234-6.488-0.437
			c-1.662-0.157-3.293-0.016-4.935,0.26c-1.92,0.322-3.835,0.804-5.788,0.882c-1.823,0.072-3.467-0.423-5.134-1.135
			c-1.778-0.76-3.523-1.59-5.424-2c-1.888-0.407-3.808-0.354-5.723-0.217c-1.079,0.077-5.523,0.937-6.044-0.443
			c-0.265-0.703,0.567-1.699,0.949-2.201c0.665-0.874,1.434-1.673,2.229-2.43c0.383-0.364,0.775-0.718,1.18-1.057"/>
	</g>
	<g id="POLYLINE_1817_">
		<path fill="none" stroke="#FB8604" stroke-width="2" stroke-linecap="round" stroke-linejoin="round" stroke-miterlimit="10" d="
			M635.974,310.635c0.803-2.193,2.316-3.87,4.788-3.492c2.08,0.318,3.987,1.59,5.389,3.112c3.299,3.584,4.917,8.84,9.649,10.981
			c2.234,1.011,4.831,1.025,7.21,0.62"/>
	</g>
	<g id="POLYLINE_1816_">
		<path fill="none" stroke="#FB8604" stroke-width="2" stroke-linecap="round" stroke-linejoin="round" stroke-miterlimit="10" d="
			M635.974,310.635c-0.492,1.184,0.115,1.671,1.302,1.485c1.12-0.175,2.014-0.949,3.103-1.158c2.396-0.458,4.298,3.064,5.112,4.803
			c1.068,2.284,1.851,4.522,3.771,6.258c1.729,1.565,3.939,2.712,6.215,3.226c2.677,0.604,5.227,0.005,7.385-1.693"/>
	</g>
	<g id="POLYLINE_1815_">
		<path fill="none" stroke="#FB8604" stroke-width="2" stroke-linecap="round" stroke-linejoin="round" stroke-miterlimit="10" d="
			M555.792,299.472c1.145,0.228,2.772,1.009,3.258,2.146c0.593,1.387-2.365,1.684-3.203,2.049c-1.585,0.691-2.603,2.185-3.889,3.279
			c-1.221,1.039-2.601,1.926-4.091,2.527c-2.492,1.005-5.409,0.503-6.466-2.325c-0.581-1.554,1.153-1.579,2.247-1.587
			c1.399-0.01,2.884,0.133,4.217-0.385C550.793,304.039,552.206,298.868,555.792,299.472z"/>
	</g>
	<g id="POLYLINE_1814_">
		<path fill="none" stroke="#FB8604" stroke-width="2" stroke-linecap="round" stroke-linejoin="round" stroke-miterlimit="10" d="
			M395.036,460.692c1.602-0.357,3.004-2.068,4.075-3.213c1.205-1.289,2.336-2.66,3.335-4.116c1.733-2.525,2.989-5.343,3.383-8.396
			c0.415-3.22-0.031-6.527-0.95-9.624c-1.119-3.769-3.158-7.063-4.961-10.524c-1.667-3.199-2.54-6.397-2.912-9.977
			c-0.406-3.907-0.885-7.686-2.019-11.46c-1.187-3.951-2.707-7.798-3.758-11.791c-1.069-4.063-1.606-8.269-1.561-12.47
			c0.046-4.261,0.884-8.28,1.832-12.41c0.689-3.001,0.844-5.943-0.655-8.736c-0.956-1.782-2.44-3.786-4.306-4.697
			c-1.884-0.92-2.745,0.863-3.135,2.448c-0.914,3.713-0.773,7.719-1.062,11.507c-0.296,3.889-1.105,7.613-2.183,11.352
			c-1.018,3.532-1.99,6.994-1.864,10.706c0.127,3.756,0.978,7.471,2.002,11.073c1.149,4.041,2.47,8.053,3.945,11.987
			c1.369,3.652,2.991,7.174,4.899,10.576c2.055,3.665,4.315,7.305,5.821,11.244c1.277,3.339,1.644,6.79,1.29,10.34
			c-0.404,4.056-1.49,8.005-2.044,12.038C394.094,457.367,393.432,460.859,395.036,460.692z"/>
	</g>
	<g id="POLYLINE_1813_">
		<path fill="none" stroke="#FB8604" stroke-width="2" stroke-linecap="round" stroke-linejoin="round" stroke-miterlimit="10" d="
			M498.705,293.247c1.217,6.304,2.377,12.63,2.91,19.035c0.532,6.401,0.162,12.792,0.219,19.204
			c0.027,3.064,0.167,6.122,0.561,9.163c0.407,3.143,1.021,6.262,1.27,9.424c0.221,2.808,0.101,5.623-0.752,8.324
			c-0.781,2.47-2.036,4.763-3.404,6.95c-1.699,2.716-3.601,5.298-5.331,7.994c-1.674,2.608-3.156,5.338-4.528,8.115
			c-2.819,5.708-5.471,11.576-7.826,17.491c-2.141,5.376-3.545,10.851-3.182,16.675c0.169,2.704,0.552,5.49,0.026,8.179
			c-0.618,3.159-2.831,5.53-4.887,7.87c-2.002,2.28-3.679,4.568-4.532,7.525c-0.902,3.126-1.122,6.446-1.498,9.664
			c-0.344,2.945-0.767,5.884-1.37,8.789c-0.278,1.339-0.583,2.687-1.04,3.978c-0.332,0.938-1.143,2.971-2.145,1.427
			c-0.727-1.121-1.03-2.599-1.329-3.885c-0.327-1.409-0.572-2.839-0.748-4.275c-0.332-2.712-0.376-5.473,0.099-8.171
			c1.092-6.198,4.908-11.47,8.066-16.762c2.895-4.851,5.561-10.183,5.773-15.937c0.221-6.005-1.796-11.904-2.634-17.802
			c-0.837-5.895-1.131-11.873-1.172-17.823c-0.046-6.689,0.161-13.4-0.228-20.082c-0.321-5.519-0.793-11.627-3.814-16.424
			c-2.843-4.514-7.812-7.316-9.924-12.344c-2.197-5.232-1.809-11.142-3.864-16.409c-1.006-2.579-2.692-4.436-5.388-5.238
			c-2.503-0.745-5.345-0.812-7.593-2.266c-2.244-1.452-3.196-4.233-3.805-6.703"/>
	</g>
	<g id="POLYLINE_1812_">
		<path fill="none" stroke="#FB8604" stroke-width="2" stroke-linecap="round" stroke-linejoin="round" stroke-miterlimit="10" d="
			M478.366,297.347c1.656,7.058,3.37,13.906,6.298,20.561c1.3,2.954,2.683,5.932,3.316,9.116c0.687,3.454,0.347,6.989-0.058,10.456
			c-0.396,3.387-0.978,6.869-0.756,10.289c0.123,1.893,0.595,3.879,2.118,5.142c1.415,1.173,3.265,1.679,4.896,2.462
			c7.621,3.66,0.17,14.186-3.741,17.981c-2.703,2.622-6.365,4.215-8.259,7.611c-1.693,3.036-2.167,6.724-2.815,10.089
			c-0.15,0.78-0.28,1.573-0.494,2.339c-0.048,0.172-0.191,0.937-0.45,0.943c-0.328,0.009-0.466-0.771-0.525-0.982
			c-0.417-1.511-0.562-3.137-0.611-4.699c-0.103-3.294,0.889-6.299,1.573-9.479c1.417-6.591-2.215-12.962-2.292-19.543
			c-0.042-3.654,0.552-7.281,0.528-10.934c-0.025-3.808-1.123-7.333-2.254-10.93c-1.025-3.261-2.019-6.574-1.711-10.032
			c0.295-3.321,1.437-6.493,2.027-9.761c1.093-6.052,0.203-14.091-6.334-16.659c-1.656-0.65-3.439-0.945-5.21-1.026"/>
	</g>
	<g id="POLYLINE_1811_">
		<path fill="none" stroke="#FB8604" stroke-width="2" stroke-linecap="round" stroke-linejoin="round" stroke-miterlimit="10" d="
			M384.514,468.088c0.852-0.087,1.398-1.865,1.669-2.523c0.412-1.004,0.761-2.034,1.076-3.072c0.597-1.968,1.071-3.989,1.228-6.044
			c0.275-3.58-0.698-6.849-2.286-10.029c-2.123-4.251-4.433-8.235-5.912-12.778c-1.449-4.453-2.386-9.095-4.175-13.434
			c-1.598-3.874-4.055-7.484-7.15-10.323c-1.165-1.068-3.672-3.216-4.471-0.662c-0.614,1.961-0.253,4.362-0.029,6.363
			c0.537,4.79,1.421,9.594,2.372,14.316c0.892,4.43,2.425,8.322,5.092,11.986c2.707,3.719,5.995,7.028,8.469,10.915
			c2.48,3.897,2.842,8.105,3.345,12.58C383.8,465.91,383.829,467.896,384.514,468.088z"/>
	</g>
	<g id="POLYLINE_1810_">
		<path fill="none" stroke="#FB8604" stroke-width="2" stroke-linecap="round" stroke-linejoin="round" stroke-miterlimit="10" d="
			M326.76,381.38c1.157,2.054,2.365,4.604,4.369,5.963c2.179,1.477,4.083-0.592,5.703-1.952c1.711-1.436,3.295-2.301,5.47-1.473
			c1.898,0.722,3.572,1.728,5.635,1.935c1.881,0.189,3.776-0.2,5.223-1.474c1.763-1.552,2.644-3.922,3.212-6.138
			c1.104-4.305,1.656-9.343,0.882-13.755c-0.767-4.375-3.545-8.086-7.288-10.422c-1.878-1.172-4.196-2.097-6.445-1.682
			c-2.278,0.42-3.617,2.338-5.34,3.686c-2.18,1.705-4.674,1.002-6.614-0.764c-2.151-1.959-2.641-4.426-3.587-7.032
			c-0.822-2.265-2.64-3.108-4.983-2.644c-2.172,0.43-3.4,2.03-3.717,4.16c-0.342,2.303,0.095,4.697,0.51,6.963
			c0.435,2.378,0.906,4.744,1.28,7.133c0.408,2.604,0.74,5.237,1.398,7.794c0.581,2.256,1.49,4.396,2.55,6.465
			C325.578,379.232,326.168,380.306,326.76,381.38z"/>
	</g>
	<g id="POLYLINE_1809_">
		<path fill="none" stroke="#FB8604" stroke-width="2" stroke-linecap="round" stroke-linejoin="round" stroke-miterlimit="10" d="
			M294.11,396.553c3.781-3.098,9.124-3.139,13.665-2.023c5.052,1.242,9.416,4.119,13.192,7.625
			c3.998,3.712,7.515,7.901,11.553,11.576c4.474,4.073,9.218,7.856,13.853,11.743c3.86,3.237,7.575,6.679,11.155,10.222
			c3.94,3.899,7.748,7.932,11.279,12.207c3.429,4.151,6.937,8.537,9.283,13.411c1.941,4.031,3.19,8.973,1.481,13.304
			c-1.005,2.546-3.059,4.739-5.525,5.926c-1.181,0.568-2.696,0.987-3.915,0.297c-1.099-0.622-1.715-1.924-2.223-3.02
			c-1.06-2.285-1.94-4.708-3.989-6.315c-1.676-1.314-3.864-2.039-5.936-2.451c-0.741-0.147-3.084-0.739-3.603,0.114
			c-0.504,0.829,1.377,2.318,1.882,2.813c1.921,1.885,4.247,3.759,5.297,6.31c0.837,2.035,0.649,4.428-0.015,6.489
			c-0.32,0.993-0.875,2.213-2.047,2.346c-1.21,0.137-2.496-0.684-3.401-1.402c-2.012-1.596-3.038-3.991-4.576-5.983
			c-1.655-2.143-3.818-3.919-6.29-5.038c-2.141-0.969-4.292-1.181-6.606-1.348c-0.999-0.072-2.035-0.181-2.944-0.634
			c-1.126-0.561-1.848-1.637-2.474-2.688c-1.081-1.813-2.235-4.836-4.829-4.508c-1.808,0.229-4.508,1.852-4.229,3.957
			c0.302,2.281,3.216,3.874,5.004,4.902c2.362,1.358,4.881,2.374,7.312,3.594c0.325,0.163,1.289,0.504,1.405,0.879
			c0.172,0.554-1.029,0.463-1.382,0.461c-1.045-0.006-2.094-0.128-3.125-0.287c-1.265-0.196-2.507-0.522-3.772-0.714
			c-0.877-0.133-2.196-0.333-2.672,0.637c-0.47,0.958-0.029,2.363,0.344,3.282c0.474,1.172,1.249,2.173,2.294,2.893
			c1.912,1.319,4.322,1.653,6.536,2.15c2.215,0.497,4.19,1.345,6.052,2.652c1.011,0.71,2.05,1.464,2.945,2.319
			c1.359,1.298-0.747,0.987-1.592,0.828c-5.176-0.976-9.972-3.738-15.323-3.58c-2.232,0.066-4.74,0.435-6.906-0.305
			c-2.73-0.933-2.37-4.078-3.123-6.375c-0.761-2.321-1.5-4.183-0.54-6.579c0.745-1.858,2.65-4.479,0.508-6.092
			c-1.906-1.435-5.105-1.58-7.204-0.505c-1.165,0.597-2.066,1.603-3.242,2.177c-1.072,0.523-2.139,0.368-3.282,0.218
			c-1.084-0.142-2.221-0.283-2.795,0.846c-0.577,1.133-0.535,2.622-0.677,3.858c-0.117,1.016-0.256,2.878-1.682,2.701
			c-1.096-0.136-2.178-1.116-2.692-2.046c-1.326-2.398,0.82-6.041-1.284-8.003c-1.666-1.553-4.312-1.771-6.301-2.749
			c-2.581-1.27-2.906-3.696-1.799-6.202c0.974-2.206,2.788-3.617,5.091-4.224c2.263-0.596,4.631-0.567,6.928-0.969
			c2.532-0.443,4.681-1.676,6.925-2.861c4.688-2.475,9.987-3.282,15.229-3.547c4.792-0.242,9.161,0.852,13.456,2.955
			c4.715,2.308,9.038,5.552,14.049,7.222c2.221,0.74,4.484,1.019,6.818,0.938c2.404-0.083,4.83-0.457,7.234-0.209
			c5.247,0.543,7.689,5.45,10.356,9.345c0.366,0.535,1.628,2.692,2.302,1.655c0.595-0.915,0.262-2.685,0.149-3.706
			c-0.251-2.257-0.786-4.563-1.863-6.578c-2.712-5.078-8.362-6.336-13.48-7.652c-4.5-1.157-8.579-2.658-12.217-5.637
			c-4.081-3.341-7.419-7.642-9.78-12.349c-2.116-4.217-3.474-8.58-6.68-12.153c-1.865-2.079-3.989-3.919-6.053-5.793
			c-1.874-1.701-3.793-3.357-5.785-4.918c-1.824-1.429-3.712-2.868-5.821-3.856c-2.507-1.174-4.991-1.173-7.631-0.461
			c-2.411,0.65-4.732,1.599-7.17,2.156c-1.865,0.426-4.051,0.766-5.852-0.07c-2.09-0.97-2.939-3.522-2.94-5.68
			C290.415,401.158,291.917,398.385,294.11,396.553z"/>
	</g>
	<g id="POLYLINE_1808_">
		<path fill="none" stroke="#FB8604" stroke-width="2" stroke-linecap="round" stroke-linejoin="round" stroke-miterlimit="10" d="
			M425.91,297.656c-2.134,2.747-4.61,5.342-7.59,7.176c-2.781,1.712-5.908,2.431-9.153,2.478c-4.34,0.061-8.638-0.858-12.906-1.517
			c-4.185-0.645-8.356-0.885-12.581-0.52c-3.691,0.319-7.336,0.989-10.954,1.769c-5.232,1.127-10.461,2.269-15.696,3.381
			c-9.266,1.968-18.597,3.664-27.891,5.492c-7.274,1.43-14.481,3.04-21.411,5.729c-4.105,1.593-8.031,3.559-11.974,5.51
			c-3.606,1.785-7.254,3.621-11.143,4.712c-3.151,0.884-6.963,1.348-9.661-0.924c-2.534-2.133-3.814-6.298-3.411-9.563
			c0.55-4.449,5.351-4.912,8.986-4.931c4.266-0.023,8.511,0.477,12.78,0.288c8.512-0.377,16.391-3.076,24.341-5.906
			c7.782-2.77,15.513-5.605,22.712-9.706c1.762-1.003,3.492-2.053,5.212-3.126"/>
	</g>
	<g id="POLYLINE_1807_">
		<path fill="none" stroke="#FB8604" stroke-width="2" stroke-linecap="round" stroke-linejoin="round" stroke-miterlimit="10" d="
			M497.174,426.852c0.307,1.204,0.793,2.407,1.479,3.447c0.283,0.429,0.812,1.295,1.432,1.141c0.573-0.142,0.787-1.118,0.921-1.597
			c0.807-2.885,0.91-5.93,1.817-8.797c0.991-3.133,3.221-5.28,4.912-8c1.448-2.328,2.313-5.009,2.811-7.692
			c0.482-2.594,0.553-5.226,0.533-7.858c-0.032-4.117-0.089-8.235-0.134-12.352c-0.061-5.587-0.292-11.295,1.757-16.604
			c1.041-2.697,2.518-5.296,2.83-8.218c0.337-3.158-0.926-6.236-2.784-8.74c-0.308-0.416-0.965-1.461-1.54-1.503
			c-0.655-0.048-0.558,0.934-0.546,1.389c0.04,1.565,0.312,3.128,0.467,4.684c0.294,2.956,0.088,5.837-0.822,8.673
			c-0.96,2.989-2.264,5.778-2.877,8.876c-0.622,3.141-0.986,6.354-2.112,9.371c-1.118,2.995-2.895,5.748-5.184,7.983
			c-2.512,2.453-5.993,4.026-7.793,7.154c-1.254,2.179-1.646,5.183-1.14,7.645c0.038,0.184,0.093,0.688,0.31,0.758
			c0.302,0.098,0.465-0.339,0.59-0.569c0.404-0.743,0.673-1.588,0.983-2.372c0.588-1.487,1.188-3.02,2.114-4.334
			c1.805-2.562,4.719-3.296,7.229-4.919c2.716-1.757,4.066-4.443,4.907-7.483c0.388-1.402,0.519-2.974,1.088-4.309
			c0.349,0.41,0.182,1.482,0.18,2.001c-0.003,0.76-0.019,1.521-0.042,2.281c-0.055,1.807-0.102,3.615-0.188,5.421
			c-0.145,3.058-0.371,6.106-1.131,9.081c-0.756,2.96-1.888,5.838-3.301,8.545c-1.503,2.878-3.367,5.54-4.985,8.351
			C497.434,420.942,496.419,423.813,497.174,426.852z"/>
	</g>
	<g id="POLYLINE_1806_">
		<path fill="none" stroke="#FB8604" stroke-width="2" stroke-linecap="round" stroke-linejoin="round" stroke-miterlimit="10" d="
			M558.42,391.439c-1.378,0.123,1.198,3.364,1.584,3.896c1.22,1.681,2.474,3.344,3.577,5.105c1.84,2.939,2.555,5.925,3.197,9.293
			c0.361,1.894,0.95,3.535,2.419,4.85c1.407,1.26,3.127,2.133,4.772,3.033c1.557,0.853,3.136,1.695,4.536,2.797
			c1.345,1.058,2.441,2.364,3.507,3.693c2.311,2.88,4.618,5.526,8.323,6.533c0.958,0.26,3.317,0.955,4.137,0.11
			c1.078-1.11-1.893-3.774-2.575-4.481c-2.768-2.87-5.617-5.774-8.562-8.465c-2.915-2.663-6.706-4.039-9.63-6.662
			c-3.256-2.92-2.922-6.992-4.137-10.844c-1.253-3.97-4.811-6.421-8.458-8.027C560.296,391.912,559.325,391.431,558.42,391.439z"/>
	</g>
	<g id="POLYLINE_1805_">
		<path fill="none" stroke="#FB8604" stroke-width="2" stroke-linecap="round" stroke-linejoin="round" stroke-miterlimit="10" d="
			M564.431,437.405c-0.766,0.156-1.577-0.346-2.203-0.728c-1.135-0.694-2.164-1.573-3.107-2.507
			c-1.105-1.094-2.125-2.311-2.901-3.663c-1.683-2.931-1.589-6.172-1.613-9.442c-0.024-3.309-0.866-6.325-2.726-9.087
			c-1.663-2.469-3.88-4.451-6.241-6.236c-2.589-1.958-5.362-3.743-7.645-6.072c-2.124-2.167-3.507-4.794-4.294-7.713
			c-1.807-6.7-0.401-13.461-0.536-20.26c-0.064-3.216-0.613-6.39-1.811-9.383c-0.652-1.629-1.451-3.204-2.363-4.703
			c-0.799-1.314-1.75-2.96-3.057-3.827c-2.763-1.834-2.029,6.34-1.931,7.524c0.307,3.693,0.86,7.364,1.441,11.021
			c1.197,7.536,2.68,15.025,3.944,22.55c1.249,7.439,2.038,14.959,2.762,22.465c0.17,1.76,0.321,3.524,0.425,5.29
			c0.084,1.43,0.435,3.406-0.04,4.798c-0.354,1.039-0.923-0.092-1.191-0.617c-0.386-0.758-0.696-1.557-0.996-2.352
			c-0.625-1.659-1.167-3.351-1.67-5.05c-1.001-3.385-1.803-6.821-2.336-10.312c-0.548-3.586-0.845-7.204-1.381-10.792
			c-1.138-7.618-2.708-15.166-3.803-22.792c-1.018-7.086-1.732-14.345-1.044-21.497c0.673-6.998,3.389-13.493,5.612-20.097
			c2.348-6.976,3.674-14.19,5.717-21.245c0.171-0.589,0.326-1.626,0.744-2.09c0.659-0.73,0.686,0.967,0.727,1.456
			c0.149,1.785,0.133,3.588,0.118,5.377c-0.033,3.721-0.201,7.435-0.366,11.152c-0.167,3.776-0.439,7.568-0.279,11.349
			c0.154,3.649,0.839,7.212,1.794,10.731c1.924,7.092,4.649,13.941,6.459,21.068c0.84,3.307,1.437,6.643,1.835,10.03
			c0.432,3.676,0.746,7.422,1.889,10.963c2.089,6.468,7.483,10.798,10.916,16.469c1.807,2.985,2.707,6.368,3.716,9.677
			c1.083,3.552,2.368,6.992,3.733,10.444C563.152,430.375,566.214,436.805,564.431,437.405z"/>
	</g>
	<g id="POLYLINE_1804_">
		<path fill="none" stroke="#FB8604" stroke-width="2" stroke-linecap="round" stroke-linejoin="round" stroke-miterlimit="10" d="
			M478.786,472.693c0.594,0.118,1.336-0.569,1.781-0.888c0.742-0.532,1.466-1.091,2.198-1.638c1.192-0.89,2.404-1.76,3.684-2.522
			c3.005-1.788,6.222-2.465,9.682-1.861c3.119,0.545,6.013,1.927,9.116,2.521c3.063,0.587,6.235,0.403,9.335,0.495
			c1.696,0.05,3.395,0.162,5.081,0.355c0.608,0.07,3.882,0.217,4.009,1.086c0.128,0.873-3.236,1.576-3.795,1.726
			c-1.532,0.409-3.086,0.751-4.652,1c-3.115,0.495-6.27,0.416-9.411,0.567c-2.805,0.134-6.222,0.036-8.847,1.194
			c-2.025,0.894,0.062,2.171,1.195,2.714c1.399,0.67,2.911,1.056,4.461,1.107c2.855,0.094,5.557-0.943,8.372-1.205
			c3.081-0.287,6.111,0.621,9.179,0.727c2.492,0.086,4.981-0.391,7.281-1.351c2.778-1.159,5.466-3.087,6.794-5.863
			c1.467-3.067,0.83-6.986-1.24-9.632c-3.93-5.025-12.158-3.771-17.677-3.269c-3.612,0.328-7.216,0.762-10.832,1.04
			c-3.294,0.253-6.572,0.153-9.867,0.28c-2.8,0.108-5.518,0.709-7.861,2.312c-2.697,1.845-4.844,4.612-6.543,7.37
			C479.77,469.704,478.222,471.829,478.786,472.693z"/>
	</g>
	<g id="POLYLINE_1803_">
		<path fill="none" stroke="#FB8604" stroke-width="2" stroke-linecap="round" stroke-linejoin="round" stroke-miterlimit="10" d="
			M486.28,491.857c2.309,0.821,4.674,1.463,7.028,2.14c2.078,0.598,4.102,1.376,6.191,1.932c1.593,0.424,3.226,0.673,4.877,0.619
			c2.047-0.067,4.02-0.64,6.027-0.985c1.818-0.312,4.267-0.552,4.775,1.724c0.362,1.622-0.06,3.963-1.382,5.079
			c-1.717,1.448-4.44,0.397-6.277-0.273c-2.154-0.785-4.272-1.625-6.487-2.227c-4.119-1.119-8.66-1.113-12.366-3.431
			c-0.418-0.262-0.825-0.542-1.223-0.834"/>
	</g>
	<g id="POLYLINE_1802_">
		<path fill="none" stroke="#FB8604" stroke-width="2" stroke-linecap="round" stroke-linejoin="round" stroke-miterlimit="10" d="
			M460.632,427.247c-1.228-0.058-1.648-3.473-1.819-4.411c-0.296-1.635-0.468-3.294-0.546-4.953
			c-0.178-3.807,0.229-7.605,0.528-11.394c0.146-1.851,1.292-8.992-2.143-8.31c-1.117,0.222-3.315,2.263-4.428,1.431
			c-0.72-0.538-0.653-1.938-0.681-2.725c-0.032-0.911-0.017-1.822-0.03-2.733c-0.025-1.695-0.149-3.396-0.803-4.981
			c-0.72-1.744-1.977-3.162-3.446-4.318c-2.714-2.134-6.414-3.328-8.439-6.246c-1.918-2.765-2.026-6.396-2.26-9.635
			c-0.273-3.787-0.589-7.549-1.206-11.298c-0.601-3.651-1.413-7.295-1.782-10.981c-0.075-0.746-0.512-4.011,1.06-3.24
			c1.4,0.687,2.477,2.61,3.152,3.967c1.647,3.314,0.933,6.836,1.078,10.37c0.139,3.385,1.02,6.694,2.146,9.873
			c1.191,3.362,2.603,6.693,4.479,9.734c1.632,2.645,3.781,5.759,6.789,6.947c1.838,0.726,4.07,0.654,5.353-1.008
			c1.123-1.455,1.502-3.345,2.163-5.022c0.23-0.583,0.589-1.646,1.394-1.402c0.708,0.214,1.237,1.202,1.589,1.789
			c0.829,1.381,1.455,2.904,1.915,4.445c0.801,2.687,0.966,5.487,0.597,8.261c-0.454,3.411-1.692,6.636-2.379,9.996
			c-0.714,3.492-0.37,7.05-0.256,10.582c0.114,3.539-0.039,7.105-0.541,10.613C461.959,423.708,461.812,426.717,460.632,427.247z"/>
	</g>
	<g id="POLYLINE_1801_">
		<path fill="none" stroke="#FB8604" stroke-width="2" stroke-linecap="round" stroke-linejoin="round" stroke-miterlimit="10" d="
			M305.639,341.123c2.92-2.999,6.494-5.058,10.522-6.166c4.397-1.21,8.99-1.546,13.427-2.597c4.497-1.065,8.894-2.478,13.285-3.906
			c4.618-1.501,9.225-3.053,13.915-4.32c4.542-1.227,9.141-2.126,13.809-2.711c5.297-0.665,10.638-1.024,15.954-1.504
			c4.065-0.367,8.108-0.858,12.141-1.489c5.344-0.837,10.675-1.748,16.01-2.646c3.958-0.666,8.069-1.54,12.097-1.458
			c0.593,0.012,2.293,0.004,1.784,0.983c-0.431,0.83-1.761,1.432-2.538,1.86c-1.755,0.965-3.642,1.748-5.58,2.259
			c-3.756,0.988-7.493,0.243-11.303,0.36c-4.352,0.133-8.6,1.399-12.798,2.437c-4.273,1.056-8.519,1.724-12.923,1.888
			c-4.608,0.171-9.235,0.088-13.825,0.591c-4.533,0.497-9.023,1.514-13.282,3.153c-4.347,1.673-8.339,4.107-12.594,5.983
			c-4.043,1.782-8.332,2.814-12.677,3.548c-4.454,0.752-9.034,1.026-13.346,2.455c-3.761,1.246-7.074,3.34-10.3,5.596
			c-1.991,1.391-3.98,3.067-6.176,4.143c-0.297,0.145-0.927,0.518-1.184,0.146c-0.192-0.277,0.125-0.904,0.235-1.165
			c0.442-1.049,1.085-2.027,1.725-2.964c0.543-0.794,1.119-1.566,1.723-2.314c0.297-0.368,0.601-0.73,0.913-1.085
			C304.81,342.016,305.428,341.123,305.639,341.123z"/>
	</g>
	<g id="POLYLINE_1800_">
		<path fill="none" stroke="#FB8604" stroke-width="2" stroke-linecap="round" stroke-linejoin="round" stroke-miterlimit="10" d="
			M215.532,337.712c3.884-1.328,7.914-2.164,12.036-1.943c4.157,0.223,8.262,1.459,11.938,3.395
			c1.895,0.998,4.307,2.328,5.212,4.371c1.274,2.877-2.619,5.245-4.602,6.492c-4.116,2.59-8.61,4.563-12.571,7.403
			c-4.005,2.871-6.268,6.714-8.091,11.181c-1.939,4.754-3.989,9.255-7.027,13.428c-1.479,2.031-3.078,3.986-4.816,5.802
			c-1.362,1.422-2.957,3.182-4.82,3.931c-2.574,1.035-1.732-3.351-1.528-4.685c0.412-2.693,0.981-5.362,1.47-8.041
			c0.791-4.333,1.486-8.862,1.013-13.273c-0.482-4.499-2.815-7.975-6.031-11.026c-0.872-0.827-1.775-1.62-2.669-2.423"/>
	</g>
	<g id="POLYLINE_1799_">
		<path fill="none" stroke="#FB8604" stroke-width="2" stroke-linecap="round" stroke-linejoin="round" stroke-miterlimit="10" d="
			M607.841,336.316c7.912,0.921,15.693,2.817,23.027,5.956c7.647,3.273,14.659,7.913,20.835,13.47
			c3.599,3.238,6.883,6.79,9.915,10.561"/>
	</g>
	<g id="POLYLINE_1798_">
		<path fill="none" stroke="#FB8604" stroke-width="2" stroke-linecap="round" stroke-linejoin="round" stroke-miterlimit="10" d="
			M604.461,337.187c4.701,1.702,9.267,3.742,13.627,6.195c4.291,2.413,8.377,5.188,12.183,8.311
			c3.755,3.081,7.23,6.505,10.365,10.215c3.047,3.606,5.765,7.489,8.097,11.594c2.146,3.778,3.947,7.748,5.417,11.836
			c0.183,0.509,0.358,1.022,0.534,1.534"/>
	</g>
	<g id="POLYLINE_1797_">
		<path fill="none" stroke="#FB8604" stroke-width="2" stroke-linecap="round" stroke-linejoin="round" stroke-miterlimit="10" d="
			M578.633,334.755c-4.734,0.807-9.396,1.921-13.947,3.464c-4.495,1.524-8.87,3.421-13.029,5.71
			c-4.084,2.248-7.968,4.867-11.525,7.883c-3.421,2.9-6.512,6.171-9.225,9.742c-2.64,3.474-4.935,7.195-6.934,11.073
			c-0.249,0.484-0.491,0.971-0.734,1.458"/>
	</g>
	<g id="POLYLINE_1796_">
		<path fill="none" stroke="#FB8604" stroke-width="2" stroke-linecap="round" stroke-linejoin="round" stroke-miterlimit="10" d="
			M575.109,333.097c-8.091,0.632-16.125,1.575-24.127,2.935c-7.709,1.31-15.387,3.002-22.913,5.127
			c-4.441,1.254-8.838,2.617-13.216,4.076"/>
	</g>
	<g id="POLYLINE_1795_">
		<path fill="none" stroke="#FB8604" stroke-width="2" stroke-linecap="round" stroke-linejoin="round" stroke-miterlimit="10" d="
			M572.76,338.342c-3.475,2.143-6.809,4.499-9.957,7.1c-3.174,2.623-6.164,5.465-8.932,8.514c-2.804,3.09-5.378,6.395-7.651,9.895
			c-2.212,3.405-4.139,6.992-5.71,10.737c-1.622,3.865-2.796,7.889-3.635,11.993c-0.113,0.555-0.217,1.111-0.322,1.667"/>
	</g>
	<g id="POLYLINE_1794_">
		<path fill="none" stroke="#FB8604" stroke-width="2" stroke-linecap="round" stroke-linejoin="round" stroke-miterlimit="10" d="
			M614.329,263.257c-3.887,2.199-6.591,5.712-8.391,9.745c-1.865,4.18-2.231,8.778-3.931,13c-0.894,2.223-2.116,4.396-3.619,6.266
			c-0.487,0.606-1.763,2.115-1.878,0.503c-0.072-1,0.166-2.068,0.341-3.046c0.857-4.786,2.27-9.546,2.22-14.449
			c-0.046-4.564-1.9-8.791-2.251-13.303c-0.044-0.571-0.059-1.143-0.047-1.715"/>
	</g>
	<g id="POLYLINE_1793_">
		<path fill="none" stroke="#FB8604" stroke-width="2" stroke-linecap="round" stroke-linejoin="round" stroke-miterlimit="10" d="
			M588.686,263.727c1.247-0.627,2.676-0.656,3.871,0.11c0.519,0.332,1.191,0.888,1.181,1.568c-0.011,0.722-0.777,1.243-1.31,1.602
			c-1.383,0.931-2.914,1.729-4.405,2.469c-0.508,0.252-1.326,0.748-1.921,0.608c-0.693-0.164-0.553-0.969-0.453-1.513
			C585.992,266.702,586.962,264.659,588.686,263.727z"/>
	</g>
	<g id="POLYLINE_1792_">
		<path fill="none" stroke="#FB8604" stroke-width="2" stroke-linecap="round" stroke-linejoin="round" stroke-miterlimit="10" d="
			M613.321,267.14c0.476-0.278,1.188-0.485,1.716-0.218c0.711,0.36,0.784,1.426,0.969,2.093c0.189,0.681,0.436,1.308,0.922,1.834
			c0.565,0.61,1.37,0.941,1.935,1.535c1.138,1.195-1.769,1.625-2.548,1.491c-1.483-0.255-2.289-1.823-2.886-3.048
			C612.947,269.836,612.108,267.945,613.321,267.14z"/>
	</g>
</g>
<g id="AG-PEOPLE">
</g>
<g id="AG-DETAIL">
</g>
<g id="AG-ANIMALS">
	<g id="POLYLINE_1486_">
		
			<path fill="none" stroke="#FB8604" stroke-width="2.75" stroke-linecap="round" stroke-linejoin="round" stroke-miterlimit="10" d="
			M543.626,298.258c-4.816-0.709-9.405-3.335-13.766-5.339c-3.898-1.791-7.967-3.64-12.358-3.391
			c-4.75,0.27-9.287,2.162-13.95,2.994c-4.94,0.882-9.966,1.196-14.896,2.137c-4.801,0.916-9.43,2.519-14.146,3.769
			c-4.709,1.248-9.495,1.902-14.364,2.032c-4.965,0.133-9.936-0.203-14.878-0.651c-4.399-0.399-8.784-0.898-13.17-1.418
			c-7.078-0.839-14.156-1.677-21.234-2.516c-4.103-0.486-8.211-0.917-12.331-1.235c-5.3-0.409-10.601-0.675-15.917-0.747
			c-4.865-0.066-9.742,0.108-14.589,0.523c-5.074,0.435-10.123,1.168-15.13,2.092c-5.042,0.93-10.045,2.066-15.02,3.302
			c-4.951,1.231-9.865,2.601-14.788,3.936c-5.242,1.422-10.471,2.901-15.742,4.21c-4.967,1.234-9.973,2.274-15.006,3.202
			c-5.319,0.98-10.656,1.868-15.973,2.86c-4.89,0.913-9.738,2.025-14.537,3.329c-4.734,1.286-9.411,2.81-14.01,4.517
			c-4.745,1.762-9.415,3.725-13.991,5.887c-4.584,2.165-9.084,4.512-13.467,7.061c-4.538,2.638-8.966,5.461-13.267,8.471
			c-4.495,3.147-8.804,6.543-13.161,9.877c-3.776,2.89-7.746,5.619-12.048,7.669c-4.557,2.172-9.489,3.276-14.312,4.681
			c-4.756,1.385-9.316,3.338-13.755,5.524c-4.609,2.27-9.136,4.709-13.79,6.887c-4.894,2.29-9.943,4.237-14.949,6.265
			c-4.217,1.709-8.39,3.505-12.425,5.614c-4.1,2.142-8.065,4.544-11.849,7.205c-4.207,2.959-8.199,6.246-11.827,9.895
			c-3.365,3.384-6.382,7.103-8.921,11.146c-2.588,4.122-4.669,8.56-6.276,13.152c-1.498,4.28-2.626,8.751-2.945,13.286
			c-0.322,4.576,0.188,9.601,3.085,13.347c2.82,3.644,7.553,5.343,12.005,5.809c4.223,0.442,8.571-0.201,12.299-2.297
			c3.991-2.244,7.05-5.798,9.787-9.397c2.998-3.941,5.729-8.112,9.135-11.724c3.259-3.456,7.032-6.381,11.055-8.895
			c4.337-2.711,8.947-4.934,13.605-7.03c4.582-2.062,9.227-3.995,13.85-5.964c5.136-2.188,10.277-4.348,15.444-6.461
			c4.513-1.846,9.095-3.557,13.709-5.13c4.829-1.646,9.712-3.148,14.674-4.34c5.199-1.249,10.446-2.045,15.732-2.813
			c4.404-0.64,8.771-1.586,12.909-3.255c4.329-1.745,8.233-4.268,11.988-7.012c3.895-2.847,7.873-6.363,12.387-8.2
			c1.119-0.455,2.516-0.886,3.688-0.377c1.054,0.458,1.551,1.569,1.869,2.604c0.565,1.84,0.708,3.81,0.848,5.72
			c0.386,5.258,0.84,10.462,1.93,15.631c1.006,4.774,2.476,9.44,4.258,13.979c1.925,4.904,4.223,9.639,6.482,14.394
			c2.08,4.38,4.221,8.756,5.699,13.386c1.486,4.656,1.996,9.367,1.888,14.242c-0.111,5.013-0.63,10.057-0.116,15.063
			c0.448,4.367,1.876,8.532,3.851,12.437c2.127,4.205,4.783,8.12,7.556,11.921c3.291,4.513,6.66,8.979,9.784,13.611
			c2.779,4.12,5.34,8.39,7.554,12.841c2.276,4.576,4.126,9.348,6.362,13.942c1.981,4.068,4.295,8.312,7.865,11.211
			c3.231,2.623,7.191,3.231,11.235,3.379c5.167,0.19,10.356,0.336,15.526,0.345c4.263,0.007,8.741-0.201,12.725-1.869
			c4.063-1.701,7.102-5.148,8.422-9.337c1.44-4.568,0.393-9.304-2.163-13.273c-2.77-4.302-6.91-7.291-11.585-9.239
			c-4.657-1.94-9.67-2.882-14.298-4.883c-4.394-1.901-8.336-5.436-9.233-10.332c-0.826-4.51,2.054-9.264,6.377-10.762
			c4.322-1.498,9.123-0.045,13.53,0.187c4.556,0.239,9.072-0.503,13.514-1.439c5.314-1.12,10.606-2.187,15.992-2.903
			c5.245-0.697,10.517-1.112,15.792-1.502c4.864-0.36,9.736-0.653,14.609-0.862c5.566-0.239,11.134-0.361,16.701-0.567
			c4.787-0.177,9.618-0.64,14.232-1.985c4.666-1.361,9.035-3.578,13.529-5.395c4.388-1.773,9.011-3.098,13.786-2.66
			c4.316,0.396,8.426,1.915,12.337,3.709"/>
	</g>
	<g id="POLYLINE_1268_">
		
			<path fill="none" stroke="#FB8604" stroke-width="2.75" stroke-linecap="round" stroke-linejoin="round" stroke-miterlimit="10" d="
			M645.084,359.454c2.76-2.514,5.246-5.31,7.365-8.386c2.168-3.145,3.674-6.579,5.316-10.007c3.477-7.261,5.281-14.905,5.408-22.955
			c0.131-8.363-1.146-16.663-1.949-24.965c-0.372-3.854-0.624-7.756-0.409-11.628c0.192-3.452,0.917-6.729,1.951-10.019
			c1.247-3.97,2.327-7.868,2.272-12.072c-0.042-3.245-0.664-6.46-1.732-9.52c-1.123-3.22-3.018-8.106-6.845-8.759
			c-3.251-0.555-6.63,1.782-9.125,3.559c-6.733,4.797-12.457,11.026-19.519,15.356c-2.897,1.776-6.001,2.968-9.407,3.215
			c-3.718,0.27-7.475-0.298-11.123-0.965c-4.025-0.736-8.086-1.459-12.069-2.396c-3.795-0.893-7.581-2.145-10.894-4.243
			c-6.812-4.315-9.203-12.732-15.762-17.366c-2.991-2.113-6.617-3.144-10.169-1.875c-1.651,0.589-3.357,1.618-4.25,3.178
			c-0.764,1.333-0.748,2.911-0.477,4.381c0.666,3.602,2.524,6.861,3.042,10.508c0.547,3.849-0.121,7.701-0.318,11.548
			c-0.202,3.93,0.374,7.869,0.047,11.794c-0.148,1.777-0.511,3.561-1.364,5.143c-0.966,1.791-2.438,3.244-3.811,4.719
			c-1.24,1.332-2.43,2.687-3.462,4.19c-1.122,1.635-2,3.439-3.157,5.045c-1.986,2.757-3.849,5.44-5.143,8.607
			c-1.361,3.334-2.118,6.917-2.001,10.525c0.123,3.812,1.15,7.518,2.035,11.205c1.803,7.512,3.729,14.913,8.735,21.014
			c4.881,5.948,11.706,10.252,18.483,13.725c7.194,3.687,14.831,6.58,22.661,8.592c7.827,2.012,15.957,3.103,24.041,2.47
			c7.649-0.598,15.077-2.811,21.757-6.59C638.74,364.488,642.003,362.081,645.084,359.454z"/>
	</g>
	<g id="POLYLINE_170_">
		
			<path fill="none" stroke="#FB8604" stroke-width="2.75" stroke-linecap="round" stroke-linejoin="round" stroke-miterlimit="10" d="
			M473.89,442.189c-0.192,6.728,0.199,13.484,1.627,20.076c0.703,3.246,1.657,6.438,2.896,9.52c1.279,3.18,2.818,6.248,4.159,9.401
			c2.722,6.4,4.275,13.211,6.494,19.787c2.226,6.596,5.277,12.871,7.644,19.414c1.036,2.864,1.878,5.783,2.45,8.775
			c0.635,3.321,1.009,6.688,1.705,9.997c1.214,5.776,3.841,13.031,9.896,15.254c2.851,1.047,5.992,0.96,8.983,0.971
			c3.613,0.013,7.229,0.062,10.841-0.017c3.27-0.072,6.602-0.11,9.837-0.639c2.8-0.458,5.563-1.453,7.401-3.729
			c3.534-4.377,3.08-10.374-0.337-14.618c-2.289-2.843-5.357-4.557-8.483-6.304c-2.873-1.606-5.611-3.418-7.09-6.477
			c-2.693-5.565-2.12-12.63-0.983-18.513c1.278-6.613,4.292-12.48,6.801-18.667c2.437-6.01,3.82-12.309,7.383-17.823
			c3.193-4.941,7.474-9.026,12.617-11.886c5.773-3.21,12.175-5.046,18.219-7.65c6.307-2.718,12.305-6.133,17.919-10.085
			c5.546-3.905,10.75-8.323,15.498-13.168c4.824-4.923,9.168-10.326,12.771-16.208c3.51-5.73,6.402-11.844,8.733-18.144
			c2.402-6.494,3.949-13.129,5.722-19.804c0.736-2.771,1.648-5.522,3.111-8.003"/>
	</g>
</g>
<g id="AG-OUTLINE">
	<g id="POLYLINE_169_">
		
			<path fill="none" stroke="#FB8604" stroke-width="3.5" stroke-linecap="round" stroke-linejoin="round" stroke-miterlimit="10" d="
			M645.084,359.454c2.685-2.445,5.115-5.158,7.193-8.139c2.112-3.029,3.544-6.302,5.165-9.593c3.429-6.962,5.398-14.327,5.69-22.091
			c0.314-8.367-0.88-16.73-1.755-25.03c-0.711-6.744-1.216-13.742,0.57-20.366c1.009-3.745,2.458-7.331,2.906-11.211
			c0.398-3.449,0.141-6.947-0.703-10.311c-0.843-3.359-2.144-7.1-4.527-9.682c-2.506-2.716-5.733-2.115-8.712-0.566
			c-3.353,1.743-6.347,4.246-9.246,6.644c-3.186,2.636-6.282,5.385-9.55,7.921c-2.865,2.224-5.941,4.347-9.431,5.45
			c-3.385,1.07-6.995,0.978-10.483,0.577c-4.371-0.503-8.689-1.478-13.004-2.312c-3.442-0.666-6.875-1.426-10.146-2.716
			c-3.788-1.494-7.148-3.673-9.721-6.866c-2.354-2.922-4.18-6.233-6.651-9.067c-2.302-2.641-5.208-5.122-8.688-5.968
			c-3.265-0.794-7.421,0.176-9.512,2.97c-1.929,2.578-0.627,6.084,0.325,8.783c1.263,3.578,2.213,6.941,2.108,10.775
			c-0.102,3.718-0.672,7.388-0.55,11.116c0.123,3.748,0.604,7.787-0.544,11.429c-1.165,3.697-4.461,6.111-6.8,9.034
			c-1.059,1.324-1.968,2.755-2.842,4.205c-0.564,0.935-1.089,1.908-1.756,2.775c-0.266,0.346-0.588,0.949-0.97,1.016
			c-0.369,0.065-0.976-0.186-1.338-0.276c-7.265-1.804-13.462-6.789-20.841-8.178c-3.344-0.63-6.645,0.016-9.888,0.875
			c-3.677,0.975-7.325,1.879-11.102,2.379c-4.106,0.544-8.254,0.933-12.316,1.763c-4.131,0.844-8.163,2.142-12.215,3.293
			c-7.175,2.039-14.473,2.609-21.907,2.311c-7.516-0.301-15.003-1.201-22.466-2.1c-8.739-1.054-17.472-2.2-26.234-3.056
			c-8.178-0.799-16.373-1.373-24.594-1.355c-7.927,0.017-15.807,0.667-23.633,1.923c-8.128,1.304-16.13,3.238-24.094,5.297
			c-7.758,2.006-15.441,4.305-23.209,6.274c-7.819,1.982-15.704,3.496-23.641,4.917c-8.246,1.476-16.474,2.92-24.556,5.16
			c-7.607,2.108-15.068,4.768-22.312,7.903c-7.424,3.213-14.637,6.929-21.559,11.115c-7.151,4.324-13.84,9.221-20.476,14.285
			c-5.789,4.418-11.629,8.924-18.527,11.481c-3.628,1.345-7.409,2.214-11.115,3.31c-3.622,1.071-7.131,2.451-10.559,4.032
			c-7.468,3.445-14.612,7.534-22.208,10.708c-7.258,3.032-14.668,5.707-21.664,9.33c-6.839,3.542-13.339,7.797-19.192,12.811
			c-5.581,4.78-10.541,10.262-14.338,16.573c-3.736,6.209-6.52,13.166-7.921,20.283c-1.342,6.815-1.643,15.598,4.252,20.478
			c5.131,4.247,13.342,5.067,19.506,2.902c7.312-2.567,11.78-9.483,16.183-15.415c2.093-2.82,4.196-5.602,6.688-8.089
			c2.882-2.877,6.13-5.364,9.563-7.546c6.824-4.338,14.324-7.477,21.734-10.652c7.619-3.264,15.224-6.589,22.94-9.619
			c7.604-2.986,15.286-5.793,23.173-7.943c3.911-1.066,7.864-1.967,11.86-2.653c3.98-0.683,8.004-1.093,11.967-1.879
			c3.457-0.686,6.846-1.684,10.071-3.115c3.553-1.577,6.797-3.688,9.95-5.943c3.196-2.285,6.286-4.748,9.616-6.842
			c1.399-0.879,2.881-1.762,4.483-2.215c2.208-0.625,3.748,0.249,4.458,2.376c1.118,3.351,0.981,7.189,1.264,10.664
			c0.315,3.867,0.874,7.717,1.712,11.506c1.647,7.443,4.392,14.582,7.62,21.474c3.446,7.358,7.577,14.684,9.525,22.63
			c1.886,7.691,0.519,15.482,0.743,23.281c0.205,7.134,2.647,13.516,6.303,19.576c4.212,6.983,9.439,13.304,14.078,19.998
			c4.304,6.211,7.974,12.744,11.04,19.649c1.706,3.842,3.321,7.743,5.336,11.438c1.749,3.209,3.835,6.422,6.777,8.665
			c2.491,1.899,5.437,2.675,8.516,2.951c4.255,0.382,8.58,0.288,12.846,0.385c6.463,0.148,13.806,0.7,19.615-2.692
			c6.38-3.726,8.815-11.871,6.035-18.587c-3.21-7.751-10.517-11.691-18.118-14.099c-7.214-2.286-16.348-4.255-18.489-12.797
			c-0.852-3.401,0.311-6.874,2.823-9.298c2.699-2.606,6.294-2.936,9.863-2.648c3.738,0.301,7.378,0.913,11.143,0.689
			c3.831-0.228,7.58-1.022,11.326-1.812c8.135-1.715,16.272-2.875,24.554-3.606c8.148-0.72,16.338-1.158,24.512-1.46
			c7.922-0.293,16.076,0.027,23.863-1.709c7.567-1.687,14.192-6.008,21.67-7.949c3.556-0.923,7.132-1.076,10.742-0.381
			c1.801,0.347,3.567,0.861,5.293,1.48c0.845,0.303,1.681,0.632,2.507,0.983c0.425,0.181,0.848,0.367,1.269,0.557
			c0.686,0.31,0.735,0.412,1.001,1.101c2.861,7.392,4.54,15.178,7.425,22.566c2.883,7.384,6.533,14.579,8.16,22.388
			c1.499,7.198,1.667,14.935,5.866,21.261c2.426,3.656,5.722,5.531,10.052,5.91c4.14,0.362,8.382,0.146,12.531,0.154
			c3.655,0.007,7.341-0.067,10.982-0.415c3.321-0.318,6.88-1.058,9.187-3.679c2.124-2.413,3.127-5.921,2.634-9.103
			c-0.566-3.65-3.042-6.725-5.91-8.905c-2.748-2.089-6.027-3.337-8.779-5.416c-3.291-2.485-4.707-6.191-5.204-10.17
			c-0.926-7.401,0.677-15.112,3.421-21.974c1.482-3.707,3.291-7.279,4.669-11.029c1.353-3.68,2.367-7.489,3.98-11.071
			c2.871-6.373,7.494-12.021,13.417-15.779c6.527-4.141,14.128-6.113,21.142-9.231c7.394-3.286,14.351-7.527,20.754-12.467
			c6.352-4.9,12.265-10.458,17.362-16.661c5.088-6.192,9.287-13.017,12.616-20.306c3.261-7.14,5.783-14.601,7.631-22.227
			c0.856-3.534,1.592-7.138,3.006-10.503c0.305-0.726,0.642-1.439,1.017-2.132c0.427-0.789,1.058-1.154,1.77-1.68
			C642.459,361.637,643.783,360.56,645.084,359.454z"/>
	</g>
</g>
</svg>
