<?xml version="1.0" encoding="utf-8"?>
<!-- Generator: Adobe Illustrator 25.2.1, SVG Export Plug-In . SVG Version: 6.00 Build 0)  -->
<!DOCTYPE svg PUBLIC "-//W3C//DTD SVG 1.1//EN" "http://www.w3.org/Graphics/SVG/1.1/DTD/svg11.dtd" [
	<!ENTITY ns_extend "http://ns.adobe.com/Extensibility/1.0/">
	<!ENTITY ns_ai "http://ns.adobe.com/AdobeIllustrator/10.0/">
	<!ENTITY ns_graphs "http://ns.adobe.com/Graphs/1.0/">
	<!ENTITY ns_vars "http://ns.adobe.com/Variables/1.0/">
	<!ENTITY ns_imrep "http://ns.adobe.com/ImageReplacement/1.0/">
	<!ENTITY ns_sfw "http://ns.adobe.com/SaveForWeb/1.0/">
	<!ENTITY ns_custom "http://ns.adobe.com/GenericCustomNamespace/1.0/">
	<!ENTITY ns_adobe_xpath "http://ns.adobe.com/XPath/1.0/">
]>
<svg version="1.1" xmlns:x="&ns_extend;" xmlns:i="&ns_ai;" xmlns:graph="&ns_graphs;"
	 xmlns="http://www.w3.org/2000/svg" xmlns:xlink="http://www.w3.org/1999/xlink" x="0px" y="0px" width="750px" height="750px"
	 viewBox="0 0 750 750" enable-background="new 0 0 750 750" xml:space="preserve">
<metadata>
	<sfw  xmlns="&ns_sfw;">
		<slices></slices>
		<sliceSourceBounds  bottomLeftOrigin="true" height="12757.679" width="14247.625" x="-7111.093" y="-4713.29">
			</sliceSourceBounds>
	</sfw>
</metadata>
<g id="FILL-BACKGROUND">
	<rect fill="#FFFFFF" width="750" height="750"/>
</g>
<g id="N-DIMENSIONS">
</g>
<g id="N-TEXT">
</g>
<g id="AG-DIAGRAM">
	<g>
		<g>
			
				<line fill="none" stroke="#FB8604" stroke-width="3.25" stroke-linecap="round" stroke-linejoin="round" x1="112.5" y1="604.295" x2="114.5" y2="604.295"/>
			
				<line fill="none" stroke="#FB8604" stroke-width="3.25" stroke-linecap="round" stroke-linejoin="round" stroke-dasharray="4.0376,7.0658" x1="121.566" y1="604.295" x2="662.096" y2="604.295"/>
			
				<line fill="none" stroke="#FB8604" stroke-width="3.25" stroke-linecap="round" stroke-linejoin="round" x1="665.629" y1="604.295" x2="667.629" y2="604.295"/>
		</g>
	</g>
</g>
<g id="AG-DETAILS">
	<g id="POLYLINE_1765_">
		<path fill="none" stroke="#FB8604" stroke-width="2" stroke-linecap="round" stroke-linejoin="round" stroke-miterlimit="10" d="
			M188.518,416.199c0.572,2.072,0.131,4.364-0.911,6.215c-1.452,2.581-3.957,3.868-6.673,4.745
			c-0.781,0.252-1.571,0.473-2.358,0.708c-0.431,0.128-1.575,0.294-1.783,0.737c-0.387,0.823,2.75,1.414,3.326,1.539
			c2.946,0.641,6.056,0.956,9.061,0.598c5.83-0.695,10.653-4.624,10.836-10.783c0.092-3.075-1.109-6.073-3.406-8.142
			c-2.309-2.08-5.471-3.193-8.465-3.842c-1.088-0.236-7.133-1.459-7.156,0.481c-0.013,1.028,1.871,2.11,2.599,2.661
			c1.266,0.959,2.661,1.875,3.746,3.048C187.882,414.756,188.288,415.423,188.518,416.199z"/>
	</g>
	<g id="POLYLINE_1764_">
		<path fill="none" stroke="#FB8604" stroke-width="2" stroke-linecap="round" stroke-linejoin="round" stroke-miterlimit="10" d="
			M614.076,330.376c-1.726,7.335-2.069,14.865-0.708,22.293c0.376,2.053,0.887,4.072,1.481,6.071"/>
	</g>
	<g id="POLYLINE_1763_">
		<path fill="none" stroke="#FB8604" stroke-width="2" stroke-linecap="round" stroke-linejoin="round" stroke-miterlimit="10" d="
			M609.874,327.792c-5.761,5.351-9.745,12.24-10.802,20.081c-0.257,1.909-0.355,3.839-0.312,5.765"/>
	</g>
	<g id="POLYLINE_1762_">
		<path fill="none" stroke="#FB8604" stroke-width="2" stroke-linecap="round" stroke-linejoin="round" stroke-miterlimit="10" d="
			M609.969,331.465c-1.182,4.304-1.956,8.696-2.167,13.158c-0.196,4.139,0.095,8.296,0.809,12.376
			c0.402,2.296,0.949,4.559,1.604,6.795"/>
	</g>
	<g id="POLYLINE_1761_">
		<path fill="none" stroke="#FB8604" stroke-width="2" stroke-linecap="round" stroke-linejoin="round" stroke-miterlimit="10" d="
			M622.227,340.392c2.363,2.68,3.999,6.023,4.338,9.603c0.092,0.969,0.094,1.945,0.026,2.916"/>
	</g>
	<g id="POLYLINE_1760_">
		<path fill="none" stroke="#FB8604" stroke-width="2" stroke-linecap="round" stroke-linejoin="round" stroke-miterlimit="10" d="
			M623.037,337.678c2.383,1.871,4.397,4.17,5.917,6.791"/>
	</g>
	<g id="POLYLINE_1759_">
		<path fill="none" stroke="#FB8604" stroke-width="2" stroke-linecap="round" stroke-linejoin="round" stroke-miterlimit="10" d="
			M200.36,159.58c-2.971,1.544-6.161,2.644-9.51,2.94c-1.79,0.159-3.587,0.122-5.382,0.102c-0.964-0.01-3.411-0.358-3.572,1.032
			c-0.151,1.304,1.199,2.805,1.955,3.737c0.991,1.221,2.093,2.384,3.317,3.374c2.921,2.364,6.432,2.88,9.819,1.151
			c4.013-2.048,4.89-6.227,3.998-10.347"/>
	</g>
	<g id="POLYLINE_1758_">
		<path fill="none" stroke="#FB8604" stroke-width="2" stroke-linecap="round" stroke-linejoin="round" stroke-miterlimit="10" d="
			M193.806,145.703c1.309,3.811,0.425,8.949-3.19,11.223c-3.305,2.078-7.861,1.408-11.348,0.187c-2.257-0.79-4.314-2.07-5.38-4.297
			c-0.932-1.946-1.134-4.204-0.924-6.332c0.473-4.784,3.316-9.777,8.67-9.623c4.657,0.134,9.348,3.296,11.507,7.336
			C193.401,144.682,193.625,145.184,193.806,145.703z"/>
	</g>
	<g id="POLYLINE_1757_">
		<path fill="none" stroke="#FB8604" stroke-width="2" stroke-linecap="round" stroke-linejoin="round" stroke-miterlimit="10" d="
			M183.429,183.485c2.913-0.959,5.829-1.889,8.573-3.278c2.523-1.278,4.999-2.757,7.808-3.309c1.358-0.267,2.748-0.347,4.13-0.343"
			/>
	</g>
	<g id="POLYLINE_1756_">
		<path fill="none" stroke="#FB8604" stroke-width="2" stroke-linecap="round" stroke-linejoin="round" stroke-miterlimit="10" d="
			M183.153,189.37c1.636,4.485,6.439,9.722,11.701,8.685c5.181-1.021,8.452-6.835,9.388-11.633c0.636-3.259,0.447-6.644-0.3-9.867"
			/>
	</g>
	<g id="POLYLINE_1755_">
		<path fill="none" stroke="#FB8604" stroke-width="2" stroke-linecap="round" stroke-linejoin="round" stroke-miterlimit="10" d="
			M354.35,431.543c-2.028-2.051-4.944-2.606-7.729-2.607c-3.121-0.002-6.305,0.55-9.301,1.405c-2.633,0.751-5.31,1.82-7.42,3.608
			c-2.831,2.399-3.526,5.801-2.588,9.311c1.433,5.364,5.776,10.418,10.972,12.436c2.224,0.864,4.7,1.113,6.897,0.024
			c3.148-1.56,5.439-4.844,7.686-7.439c1.965-2.269,3.773-4.79,4.121-7.851c0.262-2.301-0.144-4.748-1.195-6.817
			C355.411,432.862,354.936,432.153,354.35,431.543z"/>
	</g>
	<g id="POLYLINE_1754_">
		<path fill="none" stroke="#FB8604" stroke-width="2" stroke-linecap="round" stroke-linejoin="round" stroke-miterlimit="10" d="
			M356.963,409.041c-1.489,3.606-4.954,6.196-8.49,7.614c-3.494,1.401-7.184,1.546-10.742,0.321
			c-4.021-1.384-7.855-3.757-11.447-6.003c-3.466-2.168-6.817-4.742-9.382-7.952c-2.061-2.58-3.547-5.74-2.286-9.026
			c1.509-3.93,5.463-6.82,9.145-8.546c3.39-1.589,7.144-2.257,10.869-1.809c3.858,0.464,7.5,2.038,10.731,4.157
			c3.498,2.294,6.654,5.243,9.024,8.7c2.018,2.945,3.625,6.566,3.178,10.214C357.533,406.953,357.214,409.041,356.963,409.041z"/>
	</g>
	<g id="POLYLINE_1753_">
		<path fill="none" stroke="#FB8604" stroke-width="2" stroke-linecap="round" stroke-linejoin="round" stroke-miterlimit="10" d="
			M304.49,389.018c-1.308,1.71-4.306-0.093-5.636-0.901c-2.192-1.332-4.223-3.026-5.853-5.01c-0.885-1.077-1.661-2.238-2.52-3.334
			c-0.838-1.07-1.785-2.045-2.647-3.095c-0.635-0.774-1.509-1.784-1.531-2.847c-0.026-1.276,1.416-1.964,2.42-2.356
			c5.084-1.984,10.257-0.921,15.413,0.021c2.811,0.514,5.678,0.621,8.485,1.138c0.964,0.177,2.125,0.379,2.912,1.006
			c1.006,0.802,0.496,1.896-0.161,2.754c-1.968,2.573-5.002,3.196-7.655,4.732c-2.573,1.489-2.363,3.785-2.757,6.387
			C304.881,388.04,304.77,388.555,304.49,389.018z"/>
	</g>
	<g id="POLYLINE_1752_">
		<path fill="none" stroke="#FB8604" stroke-width="2" stroke-linecap="round" stroke-linejoin="round" stroke-miterlimit="10" d="
			M280.037,385.986c-0.878-4.927-5.206-10.689-10.705-8.244c-5.958,2.649-9.124,9.249-12.123,14.614
			c-1.448,2.59-2.794,5.435-1.558,8.371c1.141,2.71,3.481,4.834,5.401,6.982c1.849,2.068,4.641,6.539,7.96,5.586
			c3.157-0.907,5.479-4.559,6.787-7.381c1.451-3.131,1.951-6.54,2.812-9.854c0.717-2.76,1.68-5.536,1.593-8.426
			C280.187,387.082,280.132,386.531,280.037,385.986z"/>
	</g>
	<g id="POLYLINE_1751_">
		<path fill="none" stroke="#FB8604" stroke-width="2" stroke-linecap="round" stroke-linejoin="round" stroke-miterlimit="10" d="
			M353.987,372.749c-4.52,3.328-11.612,0.784-16.342-0.769c-2.489-0.817-4.936-1.724-7.191-3.075
			c-1.244-0.745-2.448-1.585-3.545-2.535c-0.898-0.778-2.029-1.793-2.303-3.008c-0.574-2.552,3.851-3.791,5.623-4.39
			c2.858-0.966,5.777-1.702,8.76-2.158c3.129-0.478,6.327-0.851,9.492-0.955c2.568-0.084,5.881-0.091,7.921,1.743
			c1.863,1.676,1.695,4.656,1.421,6.929c-0.284,2.351-0.959,4.805-2.388,6.73C355.02,371.82,354.54,372.325,353.987,372.749z"/>
	</g>
	<g id="POLYLINE_1750_">
		<path fill="none" stroke="#FB8604" stroke-width="2" stroke-linecap="round" stroke-linejoin="round" stroke-miterlimit="10" d="
			M314.241,362.257c-3.193,4.013-10.292,3.176-14.194,0.788c-2.297-1.406-4.122-3.45-6.288-5.036
			c-2.375-1.739-5.081-2.816-7.733-4.048c-1.029-0.478-2.751-1.099-3.297-2.172c-0.614-1.206,1.262-2.031,2.11-2.421
			c2.547-1.17,5.406-1.787,8.199-1.9c2.915-0.117,5.803,0.349,8.704,0.554c2.637,0.187,5.353-0.007,7.94,0.63
			c2.584,0.637,4.408,2.344,5.319,4.836c0.835,2.282,0.996,5.013,0.072,7.295C314.861,361.309,314.587,361.809,314.241,362.257z"/>
	</g>
	<g id="POLYLINE_1749_">
		<path fill="none" stroke="#FB8604" stroke-width="2" stroke-linecap="round" stroke-linejoin="round" stroke-miterlimit="10" d="
			M215.058,529.191c-0.192,1.849-2.601,3.376-3.984,4.322c-1.59,1.088-3.312,2.06-5.125,2.722c-1.5,0.548-3.235,0.933-4.784,0.35
			c-1.751-0.659-2.931-2.333-3.9-3.847c-1.069-1.67-2.061-3.413-2.943-5.189c-0.473-0.954-2.071-3.642-0.965-4.545
			c1.038-0.849,3.623,0.34,4.713,0.694c1.988,0.647,3.97,1.32,6.003,1.815c2.186,0.532,4.408,0.889,6.609,1.343
			C211.839,527.096,215.131,527.523,215.058,529.191z"/>
	</g>
	<g id="POLYLINE_1748_">
		<path fill="none" stroke="#FB8604" stroke-width="2" stroke-linecap="round" stroke-linejoin="round" stroke-miterlimit="10" d="
			M209.075,519.561c-1.194,1.772-3.619-0.575-4.613-1.451c-1.698-1.496-3.266-3.133-4.999-4.59
			c-1.597-1.342-3.282-2.332-5.308-2.872c-2.447-0.652-4.692-1.298-6.734-2.883c-1.501-1.165-3.743-3.442-1.803-5.205
			c1.453-1.32,3.885-1.816,5.789-1.597c2.14,0.246,3.853,1.578,5.431,2.947c1.693,1.469,3.387,2.795,5.315,3.945
			c3.785,2.259,8.077,4.662,7.485,9.761C209.561,518.282,209.421,518.977,209.075,519.561z"/>
	</g>
	<g id="POLYLINE_1747_">
		<path fill="none" stroke="#FB8604" stroke-width="2" stroke-linecap="round" stroke-linejoin="round" stroke-miterlimit="10" d="
			M204.87,500.741c-0.387,0.963,1.48,2.614,2.05,3.189c1.134,1.145,2.406,2.209,3.822,2.986c2.171,1.192,4.927,1.224,6.839,2.874
			c1.141,0.984,1.957,2.299,3.142,3.236c1.079,0.854,2.386,1.077,3.727,1.134c1.294,0.055,2.59,0.005,3.879,0.155
			c1.255,0.146,2.475,0.486,3.716,0.711c1.228,0.223,2.799,0.449,3.762-0.544c0.719-0.742,0.9-1.941,0.927-2.93
			c0.021-0.76-0.015-2.559-1.059-2.676c-0.91-0.102-1.932,0.996-2.808,1.225c-2.185,0.571-4.374-0.951-6.479-1.316
			c-1.179-0.205-2.398-0.276-3.547-0.632c-1.188-0.368-2.084-1.118-2.971-1.967c-0.954-0.914-1.862-1.809-3.152-2.216
			c-1.096-0.346-2.259-0.434-3.38-0.668c-2.468-0.513-4.693-1.717-7.087-2.456C205.916,500.744,205.178,500.437,204.87,500.741z"/>
	</g>
	<g id="POLYLINE_1746_">
		<path fill="none" stroke="#FB8604" stroke-width="2" stroke-linecap="round" stroke-linejoin="round" stroke-miterlimit="10" d="
			M231.268,497.539c-0.176,1.038-3.052,0.642-3.834,0.564c-1.329-0.133-2.658-0.388-3.929-0.802
			c-1.532-0.499-2.847-1.318-4.078-2.349c-1.184-0.992-2.286-2.037-3.825-2.427c-1.68-0.426-3.451-0.3-5.13-0.737
			c-1.757-0.457-2.93-1.635-4.015-3.032c-1.15-1.479-2.258-3.405-4.142-4.014c-1.644-0.531-3.465-0.194-5.16-0.269
			c-3.214-0.143-6.023-1.944-7.653-4.74c-0.329-0.563-0.857-1.533-0.506-2.213c0.293-0.569,1.058-0.637,1.625-0.665
			c1.68-0.085,3.405,0.295,5.063,0.496c2.947,0.356,6.066,0.377,8.886,1.404c3.315,1.207,5.712,4.026,8.943,5.416
			c3.009,1.295,6.886,1.484,8.969,4.314c1.035,1.406,1.744,3.015,2.919,4.325c1.227,1.367,2.821,2.309,4.329,3.325
			C230.177,496.435,231.195,496.942,231.268,497.539z"/>
	</g>
	<g id="POLYLINE_1745_">
		<path fill="none" stroke="#FB8604" stroke-width="2" stroke-linecap="round" stroke-linejoin="round" stroke-miterlimit="10" d="
			M252.933,488.668c-0.489,0.416-1.508,0.186-2.102,0.131c-0.688-0.063-1.375-0.15-2.061-0.242c-1.828-0.246-3.653-0.518-5.48-0.767
			c-2.864-0.391-5.929-0.302-8.701-1.179c-2.851-0.902-4.877-3.307-6.629-5.608c-1.845-2.422-3.635-4.92-5.232-7.514
			c-1.629-2.646-2.852-5.469-4.229-8.247c-1.148-2.314-2.557-4.974-4.977-6.165c-2.604-1.282-5.907-0.63-8.669-0.418
			c-2.327,0.179-5.025,0.426-7.197-0.623c-1.141-0.551-1.945-1.508-2.278-2.73c-0.271-0.993-0.49-2.794,0.369-3.585
			c0.466-0.43,1.138-0.302,1.715-0.264c0.907,0.059,1.795,0.016,2.661-0.294c0.554-0.198,1.403-0.566,0.781-1.173
			c-0.44-0.431-1.25-0.65-1.791-0.899c-2.469-1.136-5.045-3.444-5.793-6.145c-0.267-0.965-0.496-2.532,0.635-3.033
			c1.185-0.525,2.813,0.161,3.944,0.596c5.562,2.143,10.41,5.578,14.899,9.432c2.486,2.135,4.943,4.312,7.358,6.527
			c2.015,1.847,3.957,3.827,5.434,6.141c1.614,2.528,2.666,5.357,4.057,8.004c1.28,2.437,2.92,4.641,4.863,6.59
			c4.183,4.196,9.51,6.47,14.728,9.088c0.693,0.348,1.384,0.701,2.059,1.081C251.701,487.602,252.908,488.111,252.933,488.668z"/>
	</g>
	<g id="POLYLINE_1744_">
		<path fill="none" stroke="#FB8604" stroke-width="2" stroke-linecap="round" stroke-linejoin="round" stroke-miterlimit="10" d="
			M260.311,478.849c-0.721,0.518-1.858,0.073-2.599-0.196c-1.092-0.397-2.138-0.933-3.137-1.523c-1.842-1.089-3.441-2.464-4.9-4.023
			c-3.186-3.405-6.632-6.813-9.136-10.776c-2.114-3.344-3.5-7.236-3.425-11.225c0.042-2.237,0.34-4.452-0.168-6.663
			c-0.389-1.694-1.226-3.991-3.131-4.422c-2.061-0.467-4.376,0.533-6.471,0.531c-0.989-0.001-5.931-0.205-4.815-2.191
			c0.92-1.637,3.541-2.591,5.211-3.24c2.162-0.84,4.505-1.393,6.837-1.257c1.987,0.116,3.965,0.786,5.373,2.242
			c1.593,1.647,2.282,4.002,2.623,6.215c0.634,4.108-0.298,8.33,0.67,12.395c1.063,4.464,3.906,8.347,7.462,11.165
			c3.775,2.991,7.496,5.923,9.39,10.531C260.348,477.023,260.896,478.269,260.311,478.849z"/>
	</g>
	<g id="POLYLINE_1743_">
		<path fill="none" stroke="#FB8604" stroke-width="2" stroke-linecap="round" stroke-linejoin="round" stroke-miterlimit="10" d="
			M239.168,403.055c1.393-1.042,3.459-0.339,4.883,0.311c1.905,0.87,3.768,2.215,4.803,4.076c0.817,1.469,1.018,3.154,0.993,4.81
			c-0.037,2.424-0.361,4.855-0.57,7.267c-0.199,2.295-0.068,9.364-3.848,8.623c-2.345-0.46-4.596-2.714-5.504-4.848
			c-0.865-2.032-0.653-4.256-0.72-6.406c-0.067-2.138-0.531-4.235-0.835-6.346c-0.288-2.002-0.686-4.421,0.055-6.369
			C238.589,403.743,238.817,403.362,239.168,403.055z"/>
	</g>
	<g id="POLYLINE_1742_">
		<path fill="none" stroke="#FB8604" stroke-width="2" stroke-linecap="round" stroke-linejoin="round" stroke-miterlimit="10" d="
			M233.034,375.588c1.339-0.81,3.05-1.194,4.596-0.86c2.065,0.446,3.015,2.35,3.384,4.284c0.733,3.847-0.618,7.55-0.673,11.38
			c-0.02,1.436,0.49,3.503-0.181,4.852c-0.722,1.45-2.976-0.108-3.832-0.666c-3.08-2.008-5.404-4.578-6.219-8.235
			C229.303,382.729,229.555,377.776,233.034,375.588z"/>
	</g>
	<g id="POLYLINE_1741_">
		<path fill="none" stroke="#FB8604" stroke-width="2" stroke-linecap="round" stroke-linejoin="round" stroke-miterlimit="10" d="
			M257.383,370.229c-0.551,1.097-0.95,2.303-1.679,3.303c-1.012,1.389-2.626,1.792-4.292,1.612
			c-1.441-0.156-3.208-0.755-3.928-2.129c-0.668-1.275-0.192-2.836,0.404-4.046c1.303-2.647,3.652-4.876,6.504-5.727
			c2.766-0.825,5.774-0.544,8.618-0.512c2.685,0.031,5.347-0.215,8.026-0.342c2.223-0.105,5.639-0.392,7.267,1.508
			c1.323,1.544,0.832,4.353-0.212,5.922c-1.652,2.484-4.814,0.266-6.689-0.816c-3.734-2.154-9.282-5.062-12.722-0.825
			C258.171,368.807,257.748,369.506,257.383,370.229z"/>
	</g>
	<g id="POLYLINE_1740_">
		<path fill="none" stroke="#FB8604" stroke-width="2" stroke-linecap="round" stroke-linejoin="round" stroke-miterlimit="10" d="
			M271.076,469.478c-0.797,0.6-3.267-1.218-4.003-1.664c-1.138-0.689-2.245-1.434-3.311-2.229c-2.133-1.591-4.127-3.434-5.284-5.874
			c-2.3-4.851-1.763-10.512-4.14-15.378c-1.327-2.716-3.184-5.153-4.472-7.884c-0.2-0.424-0.736-1.373-0.119-1.655
			c0.415-0.189,1.159,0.208,1.527,0.376c1.179,0.539,2.299,1.304,3.255,2.178c2.471,2.258,2.943,5.231,3.531,8.349
			c0.502,2.659,1.463,5.194,2.531,7.671c1.166,2.706,2.312,5.507,3.958,7.965c1.627,2.43,3.749,4.452,5.616,6.688
			C270.489,468.41,271.053,468.943,271.076,469.478z"/>
	</g>
	<g id="POLYLINE_1739_">
		<path fill="none" stroke="#FB8604" stroke-width="2" stroke-linecap="round" stroke-linejoin="round" stroke-miterlimit="10" d="
			M272.723,457.302c-1.179,0.514-3.32-1.046-4.22-1.652c-1.433-0.966-2.751-2.158-3.5-3.742c-1.289-2.723-0.837-5.953-1.37-8.855
			c-0.53-2.889-1.536-5.713-2.87-8.328c-1.255-2.461-2.905-4.442-4.713-6.506c-2.006-2.289-3.137-5.31-2.504-8.378
			c0.916-4.445,5.598-0.533,7.116,1.415c2.077,2.665,2.112,5.964,2.935,9.101c0.791,3.014,2.042,5.913,2.556,8.998
			c0.462,2.775,0.404,5.603,1.336,8.291c1.05,3.03,3.177,5.381,4.799,8.093C272.504,456.097,273.083,456.89,272.723,457.302z"/>
	</g>
	<g id="POLYLINE_1738_">
		<path fill="none" stroke="#FB8604" stroke-width="2" stroke-linecap="round" stroke-linejoin="round" stroke-miterlimit="10" d="
			M314.25,423.614c-0.441,1.055-2.145,1.292-3.127,1.431c-0.937,0.132-1.893,0.166-2.838,0.107
			c-2.068-0.129-3.914-0.847-5.742-1.779c-1.164-0.594-2.331-1.294-3.62-1.58c-1.511-0.336-2.94,0.166-4.366,0.616
			c-2.205,0.697-4.298,1.074-6.561,0.438c-1.928-0.542-4.701-1.762-5.38-3.816c-0.711-2.153,2.319-3.522,3.858-4.142
			c4.482-1.803,9.892-2.492,14.433-0.561c2.497,1.062,4.767,2.646,7.068,4.062c1.906,1.174,4.366,2.277,5.829,4.029
			C314.075,422.742,314.379,423.169,314.25,423.614z"/>
	</g>
	<g id="POLYLINE_1737_">
		<path fill="none" stroke="#FB8604" stroke-width="2" stroke-linecap="round" stroke-linejoin="round" stroke-miterlimit="10" d="
			M295.338,405.461c-0.311,1.075,2.508,0.313,3.003,0.161c0.886-0.271,1.751-0.631,2.557-1.089c1.837-1.042,3.333-2.797,2.861-5.035
			c-0.574-2.722-3.619-3.696-6.095-3.307c-1.122,0.176-2.326,0.598-3.217,1.322c-1.14,0.925-0.384,1.634,0.611,2.251
			c0.832,0.515,2.734,1.258,2.638,2.483C297.592,403.597,295.911,404.351,295.338,405.461z"/>
	</g>
	<g id="POLYLINE_1736_">
		<path fill="none" stroke="#FB8604" stroke-width="2" stroke-linecap="round" stroke-linejoin="round" stroke-miterlimit="10" d="
			M271.158,431.403c-1.482,0.498-1.257,2.948-1.097,4.185c0.186,1.44,0.601,2.958,1.435,4.162c0.989,1.426,2.561,2.129,3.958,3.068
			c1.505,1.012,2.639,2.386,3.648,3.875c1.056,1.56,1.938,3.223,2.907,4.836c0.249,0.414,1.056,1.949,1.283,0.834
			c0.147-0.725-0.051-1.648-0.15-2.37c-0.502-3.645-1.392-7.494-2.969-10.833c-0.948-2.007-2.333-3.656-4.035-5.065
			c-0.798-0.66-1.626-1.303-2.503-1.855C272.96,431.816,272.004,431.202,271.158,431.403z"/>
	</g>
	<g id="POLYLINE_1735_">
		<path fill="none" stroke="#FB8604" stroke-width="2" stroke-linecap="round" stroke-linejoin="round" stroke-miterlimit="10" d="
			M395.521,365.796c-1.737,0.474-1.779,3.342-1.896,4.761c-0.191,2.297-0.208,4.65-0.754,6.901c-1.132,4.66-5.43,6.313-9.317,8.252
			c-1.863,0.929-3.636,2.016-5.2,3.397c-1.832,1.618-3.87,3.903-3.951,6.496c-0.074,2.379,1.687,4.397,3.206,6.032
			c1.478,1.59,3.071,3.072,4.473,4.731c2.843,3.366,4.321,7.551,3.825,11.973c-0.238,2.122-0.916,4.182-2.008,6.018
			c-1.132,1.905-2.631,3.553-3.945,5.33c-1.11,1.501-2.078,3.115-2.528,4.944c-0.534,2.171-0.469,4.449-0.5,6.668
			c-0.027,1.868-0.028,3.842-0.716,5.609c-0.781,2.006-2.596,3.216-4.399,4.239c-3.683,2.089-7.108,4.149-10.068,7.226
			c-1.362,1.416-2.761,3.019-3.518,4.856c-0.283,0.687-0.544,1.562-0.146,2.257c0.518,0.903,1.782,1.051,2.721,1.084
			c3.876,0.136,7.968-1.5,11.355-3.225c3.779-1.924,7.268-4.51,9.476-8.191c1.129-1.882,1.967-4.208,3.693-5.645
			c1.552-1.292,3.668-1.235,5.568-1.453c1.903-0.218,3.621-0.819,5.028-2.171c1.47-1.411,2.396-3.306,3.022-5.222
			c1.412-4.319,1.573-9.06,1.338-13.563c-0.229-4.377-1.056-8.712-2.92-12.703c-1.804-3.864-4.665-7.078-6.616-10.852
			c-1.966-3.803-1.809-7.599,0.147-11.388c2.063-3.997,5.302-7.116,8.332-10.366c1.365-1.464,2.743-3.041,3.589-4.873
			c1.248-2.701,0.52-5.326-1.333-7.534C400.269,367.941,397.699,365.321,395.521,365.796z"/>
	</g>
	<g id="POLYLINE_1734_">
		<path fill="none" stroke="#FB8604" stroke-width="2" stroke-linecap="round" stroke-linejoin="round" stroke-miterlimit="10" d="
			M433.724,461.528c-2.245,1.506-5.259,1.551-7.848,1.877c-2.524,0.317-5.104,0.751-7.11,2.439
			c-4.431,3.73-4.863,10.305-6.962,15.321c-0.433,1.035-1.069,2.556-2.259,2.905c-1.232,0.361-2.443-0.788-3.199-1.613
			c-1.7-1.855-3.018-4.414-3.326-6.93c-0.734-5.996,4.866-10.282,9.155-13.416c2.541-1.857,5.172-3.591,7.675-5.5
			c2.232-1.703,4.468-3.594,5.963-6.004c3.218-5.188,1.315-12.042,0.752-17.693c-0.299-2.997-0.525-6.065-0.176-9.067
			c0.261-2.241,0.958-5.378,3.644-5.733c2.539-0.336,5.259,1.279,7.198,2.736c2.019,1.517,3.877,3.48,4.73,5.9
			c1.712,4.859-0.872,10.209-2.425,14.744c-0.903,2.637-1.557,5.3-1.943,8.06c-0.41,2.934-0.534,6.059-1.608,8.851
			C435.511,459.635,434.807,460.75,433.724,461.528z"/>
	</g>
	<g id="POLYLINE_1733_">
		<path fill="none" stroke="#FB8604" stroke-width="2" stroke-linecap="round" stroke-linejoin="round" stroke-miterlimit="10" d="
			M450.003,396.71c-0.501,3.346-1.058,7.467-3.505,10.027c-2.138,2.237-5.374,1.68-7.854,0.35c-3.258-1.747-5.01-4.747-4.329-8.424
			c0.665-3.595,2.799-6.764,4.776-9.76c0.996-1.509,2.028-3.007,2.819-4.638c0.784-1.618,1.209-3.341,1.629-5.08
			c0.834-3.455,1.935-6.551,4.281-9.286c2.039-2.377,4.674-4.786,7.591-6.001c0.536-0.223,1.354-0.567,1.927-0.295
			c0.693,0.329,0.567,1.304,0.471,1.923c-0.262,1.693-0.954,3.343-1.585,4.925c-1.55,3.89-3.288,7.724-4.292,11.803
			c-0.961,3.904-1.188,7.91-1.609,11.894C450.232,395.003,450.117,395.856,450.003,396.71z"/>
	</g>
	<g id="POLYLINE_1732_">
		<path fill="none" stroke="#FB8604" stroke-width="2" stroke-linecap="round" stroke-linejoin="round" stroke-miterlimit="10" d="
			M421.858,369.803c-0.704,0.76,0.134,2.156,0.496,2.899c0.474,0.971,1.001,1.916,1.474,2.887c0.803,1.646,1.397,3.328,1.161,5.185
			c-0.262,2.069-1.239,3.996-1.801,5.99c-0.583,2.066-0.956,4.21-1.166,6.345c-0.083,0.847-0.304,1.986-0.064,2.816
			c0.321,1.107,1.151-0.951,1.348-1.379c0.949-2.065,1.793-4.178,2.788-6.222c0.911-1.871,2.01-3.608,3.152-5.345
			c1.122-1.708,2.49-3.568,2.43-5.709c-0.114-4.066-4.843-7.538-8.681-7.695C422.599,369.556,422.196,369.573,421.858,369.803z"/>
	</g>
	<g id="POLYLINE_1731_">
		<path fill="none" stroke="#FB8604" stroke-width="2" stroke-linecap="round" stroke-linejoin="round" stroke-miterlimit="10" d="
			M456.081,471.035c-1.947,1.447-10.385,4.402-10.137-0.371c0.11-2.112,1.371-4.208,2.357-6.02c1.385-2.542,2.822-5.06,3.921-7.744
			c2.086-5.098,2.698-10.586,3.481-15.993c0.714-4.931,2.126-9.907,1.933-14.918c-0.099-2.563-0.762-5.032-1.134-7.558
			c-0.28-1.902-0.485-4.251,0.929-5.784c2.528-2.739,9.581-2.775,11.536,0.687c1.008,1.785,0.651,4.075,0.092,5.941
			c-0.681,2.272-1.845,4.344-3.207,6.273c-1.517,2.149-3.564,4.309-4.061,6.979c-0.389,2.092,0.245,4.242,0.777,6.249
			c0.637,2.404,1.327,4.799,1.091,7.312c-0.256,2.729-1.34,5.291-2.269,7.841c-0.885,2.428-1.53,4.839-1.815,7.411
			c-0.26,2.347-0.356,4.84-1.369,7.017C457.716,469.412,457.003,470.323,456.081,471.035z"/>
	</g>
	<g id="POLYLINE_1730_">
		<path fill="none" stroke="#FB8604" stroke-width="2" stroke-linecap="round" stroke-linejoin="round" stroke-miterlimit="10" d="
			M478.583,434.14c-1.59,1.29-3.224,2.774-5.1,3.641c-0.776,0.359-1.699,0.563-1.84-0.538c-0.13-1.018,0.269-2.165,0.589-3.117
			c0.583-1.734,1.377-3.429,2.425-4.933c1.22-1.751,2.813-3.192,4.176-4.826c1.488-1.785,3.049-3.97,3.047-6.395
			c-0.002-2.002-0.998-3.869-2.007-5.538c-1.113-1.84-2.398-3.589-3.332-5.533c-0.809-1.685-1.13-3.467-1.433-5.297
			c-0.285-1.721-0.621-3.431-1.399-5.006c-0.94-1.904-2.464-3.391-3.827-4.988c-0.565-0.662-1.398-1.516-1.493-2.428
			c-0.096-0.93,0.857-1.314,1.609-1.509c1.76-0.455,3.923-0.32,5.535,0.556c3.7,2.009,3.908,7.375,4.934,10.94
			c1.276,4.433,3.495,8.362,5.806,12.32c1.891,3.24,3.768,6.792,2.622,10.634c-1.204,4.035-4.695,7.207-7.773,9.879
			C480.286,432.726,479.435,433.433,478.583,434.14z"/>
	</g>
	<g id="POLYLINE_1729_">
		<path fill="none" stroke="#FB8604" stroke-width="2" stroke-linecap="round" stroke-linejoin="round" stroke-miterlimit="10" d="
			M572.552,566.408c1.084,0.666,2.824-0.857,3.68-1.387c1.255-0.777,2.524-1.461,4.019-1.592c1.642-0.144,3.248,0.309,4.885,0.299
			c1.756-0.01,3.231-0.847,4.384-2.124c2.075-2.299,2.696-5.205,1.841-8.134c-0.735-2.518-2.169-5.035-1.61-7.742
			c0.287-1.391,1.08-2.605,1.865-3.765c0.562-0.83,2.26-2.629,1.938-3.763c-0.373-1.312-3.107-0.738-4.004-0.532
			c-1.604,0.368-3.23,1.07-4.281,2.383c-3.426,4.282,0.516,10.034-1.612,14.698c-0.566,1.241-1.451,2.386-2.639,3.085
			c-1.303,0.767-2.852,0.868-4.314,1.083c-1.577,0.232-3.227,0.646-4.056,2.139c-0.609,1.099-0.831,2.51-0.711,3.752
			C571.991,565.372,572.105,566.016,572.552,566.408z"/>
	</g>
	<g id="POLYLINE_1728_">
		<path fill="none" stroke="#FB8604" stroke-width="2" stroke-linecap="round" stroke-linejoin="round" stroke-miterlimit="10" d="
			M543.127,541.92c1.765-0.144,3.473-0.664,4.26-2.367c0.649-1.405,0.778-3.215,2.438-3.811c2.475-0.888,5.559,0.36,8.07,0.51
			c2.6,0.155,5.131-0.54,7.303-1.973c2.723-1.797,4.315-4.411,6.162-6.999c1.859-2.605,4.515-4.557,7.803-4.743
			c1.276-0.072,2.658,0.222,2.948,1.653c0.257,1.267-0.185,2.681-0.586,3.871c-1.884,5.595-5.726,10.112-11.045,12.723
			c-3.052,1.498-6.363,2.396-9.602,3.384c-3.136,0.957-6.171,2.13-9.187,3.415c-0.724,0.308-1.445,0.623-2.167,0.935"/>
	</g>
	<g id="POLYLINE_1727_">
		<path fill="none" stroke="#FB8604" stroke-width="2" stroke-linecap="round" stroke-linejoin="round" stroke-miterlimit="10" d="
			M527.561,520.25c1.288,2.978,3.872,5.634,7.129,6.322c3.383,0.714,6.795-1.111,9.912-2.157c3.278-1.1,6.621-2.057,9.787-3.463
			c3.022-1.343,5.784-3.199,8.813-4.526c3.42-1.498,7.034-1.866,10.737-1.733"/>
	</g>
	<g id="POLYLINE_1726_">
		<path fill="none" stroke="#FB8604" stroke-width="2" stroke-linecap="round" stroke-linejoin="round" stroke-miterlimit="10" d="
			M570.766,510.844c-3.778-1.399-7.97-1.95-11.98-1.488c-1.977,0.228-3.918,0.744-5.692,1.661c-1.769,0.915-3.362,2.14-5.163,2.996
			c-1.526,0.725-3.165,1.148-4.802,1.534c-2.359,0.556-4.627,1.218-6.933,1.963c-1.537,0.496-3.11,0.887-4.726,0.999
			c-1.88,0.131-4.388,0.014-3.871,2.666c0.384,1.971,2.429,3.291,4.088,4.124c1.44,0.723,2.993,1.205,4.606,1.318
			c0.384,0.027,0.769,0.033,1.154,0.022"/>
	</g>
	<g id="POLYLINE_1725_">
		<path fill="none" stroke="#FB8604" stroke-width="2" stroke-linecap="round" stroke-linejoin="round" stroke-miterlimit="10" d="
			M560.525,501.28c-1.069,0.944-2.873,1.197-4.237,1.215c-1.733,0.023-3.411-0.43-5.101-0.742c-3.358-0.62-6.778-0.424-10.168-0.272
			c-3.385,0.151-7.042,0.039-10.175,1.524c-3.301,1.565-5.657,5.132-9.707,4.12c-1.641-0.41-3.197-1.111-4.824-1.573
			c-0.806-0.229-1.626-0.402-2.438-0.606c-0.441-0.111-1.736-0.285-1.251-0.891c0.35-0.437,1.45-0.614,1.957-0.77
			c0.978-0.3,1.963-0.577,2.941-0.877c1.405-0.431,2.783-0.933,4.08-1.63c1.508-0.81,2.832-1.887,4.262-2.817
			c1.424-0.927,2.981-1.624,4.58-2.188c3.112-1.097,6.47-1.813,9.776-1.881c3.324-0.068,6.569,0.706,9.716,1.712
			c1.742,0.557,3.468,1.163,5.18,1.803c1.588,0.593,3.308,1.196,4.702,2.181C560.345,499.964,561.134,500.621,560.525,501.28z"/>
	</g>
	<g id="POLYLINE_1724_">
		<path fill="none" stroke="#FB8604" stroke-width="2" stroke-linecap="round" stroke-linejoin="round" stroke-miterlimit="10" d="
			M402.609,515.432c2.681,0.601,5.454,0.999,7.966,2.169c2.713,1.264,4.653,3.57,7.172,5.121c1.14,0.702,2.461,1.203,3.795,0.79
			c1.77-0.548,2.872-1.611,4.86-1.107c1.423,0.361,2.672,1.209,3.875,2.018c0.995,0.669,2.567,2.148,3.859,2.076
			c1.252-0.071,1.235-2.334,1.373-3.205c0.202-1.281,0.491-2.512,1.333-3.534c0.971-1.177,2.492-1.994,3.016-3.496
			c0.363-1.039,0.236-2.215-0.062-3.254c-0.671-2.335-2.447-4.738-5.111-4.539c-1.31,0.098-2.551,0.597-3.829,0.863
			c-1.462,0.304-2.961,0.298-4.432,0.059c-3.098-0.505-5.962-1.909-8.862-3.038c-3.076-1.197-6.287-1.885-9.492-2.639
			c-0.638-0.15-1.273-0.307-1.907-0.471"/>
	</g>
	<g id="POLYLINE_1723_">
		<path fill="none" stroke="#FB8604" stroke-width="2" stroke-linecap="round" stroke-linejoin="round" stroke-miterlimit="10" d="
			M413.292,492.905c1.213,0.797,3.292,0.895,4.703,1.186c2.024,0.418,4.05,0.828,6.068,1.277c3.182,0.709,6.409,1.512,9.148,3.356
			c1.377,0.927,2.544,2.241,4.048,2.964c1.594,0.766,3.109,0.052,4.471-0.876c1.459-0.993,2.767-2.201,4.41-2.897
			c1.605-0.681,3.361-0.887,5.069-1.157c1.868-0.295,3.731-0.598,5.582-0.989c0.842-0.178,1.682-0.366,2.514-0.587
			c0.682-0.181,1.864-0.351,2.387-0.845c0.672-0.635-0.715-0.755-1.185-0.828c-0.816-0.127-1.641-0.2-2.464-0.269
			c-1.598-0.133-3.208-0.2-4.808-0.077c-2.691,0.206-5.1,1.069-7.389,2.482c-1.499,0.925-3.053,2.022-4.837,2.283
			c-1.886,0.276-3.757-0.544-5.452-1.272c-3.208-1.378-6.312-2.438-9.767-3.016c-3.474-0.582-7.037-0.976-10.562-0.992
			C414.936,492.647,413.358,492.529,413.292,492.905z"/>
	</g>
	<g id="POLYLINE_1722_">
		<path fill="none" stroke="#FB8604" stroke-width="2" stroke-linecap="round" stroke-linejoin="round" stroke-miterlimit="10" d="
			M488.316,401.933c1.246,0.633,2.646,0.275,3.944,0.029c1.634-0.31,3.226-0.343,4.847,0.086c3.618,0.959,6.571,3.524,9.409,5.836
			c5.586,4.552,11.766,7.913,18.522,10.419c0.658,0.244,3.59,1.594,4.105,0.817c0.594-0.895-2.497-3.329-3.1-3.863
			c-2.611-2.313-5.459-4.364-8.484-6.099c-3.029-1.738-6.333-3.065-9.156-5.145c-2.705-1.993-4.862-4.611-7.81-6.29
			c-2.88-1.64-6.33-2.432-9.64-2.295c-1.318,0.054-2.905,0.234-3.96,1.114c-1.203,1.002-0.913,2.574-0.21,3.791
			C487.155,400.977,487.662,401.566,488.316,401.933z"/>
	</g>
	<g id="POLYLINE_1721_">
		<path fill="none" stroke="#FB8604" stroke-width="2" stroke-linecap="round" stroke-linejoin="round" stroke-miterlimit="10" d="
			M489.989,487.199c-1.127,1.288-2.959-0.438-3.852-1.205c-1.461-1.255-2.873-2.558-4.369-3.774
			c-2.606-2.117-5.604-4.129-7.36-7.069c-1.772-2.967-2.076-6.689-1.948-10.07c0.064-1.704,0.19-3.401-0.095-5.093
			c-0.284-1.685-0.934-3.276-1.401-4.913c-0.359-1.255-0.866-3.227,1.061-3.169c1.454,0.044,2.964,0.85,4.186,1.592
			c2.72,1.651,5.162,4.244,4.799,7.646c-0.364,3.406-3.489,6.759-1.797,10.21c0.775,1.58,2.032,2.893,3.045,4.317
			c1.055,1.484,1.918,3.15,3.181,4.475c1.167,1.225,2.445,1.645,4.029,1.092c1.107-0.386,2.62-1.393,3.839-0.88
			c1.539,0.648,2.023,3.559,1.651,4.985c-0.531,2.038-2.301-0.166-3.481-0.017C490.65,485.431,490.394,486.624,489.989,487.199z"/>
	</g>
	<g id="POLYLINE_1720_">
		<path fill="none" stroke="#FB8604" stroke-width="2" stroke-linecap="round" stroke-linejoin="round" stroke-miterlimit="10" d="
			M520.003,489.206c0.977,2.14-7.66,3.935-8.919,4.204c-1.567,0.335-3.171,0.637-4.78,0.595c-1.709-0.045-3.385-0.486-5.007-0.999
			c-1.826-0.578-3.777-1.241-5.386-2.302c-0.766-0.505-1.396-1.181-0.229-1.611c0.829-0.305,1.765-0.377,2.637-0.476
			c1.937-0.22,3.883-0.34,5.812-0.63c1.92-0.288,3.819-0.731,5.752-0.926c1.665-0.168,3.331-0.094,4.979,0.187
			C516.299,487.493,519.13,487.839,520.003,489.206z"/>
	</g>
	<g id="POLYLINE_1719_">
		<path fill="none" stroke="#FB8604" stroke-width="2" stroke-linecap="round" stroke-linejoin="round" stroke-miterlimit="10" d="
			M524.529,484.816c2.744,0.717,5.482,1.525,8.302,1.887c2.82,0.361,5.573,0.012,8.393-0.118c2.11-0.097,4.281,0.008,6.192,1
			c2.682,1.393,4.612,4.088,7.519,5.073c2.205,0.747,4.537-0.078,6.533-1.052"/>
	</g>
	<g id="POLYLINE_1718_">
		<path fill="none" stroke="#FB8604" stroke-width="2" stroke-linecap="round" stroke-linejoin="round" stroke-miterlimit="10" d="
			M524.529,484.816c4.459-1.254,8.932-2.505,13.12-4.521c4.22-2.031,8.413-4.741,13.246-4.885c3.064-0.092,5.63,1.234,7.614,3.541"
			/>
	</g>
	<g id="POLYLINE_1717_">
		<path fill="none" stroke="#FB8604" stroke-width="2" stroke-linecap="round" stroke-linejoin="round" stroke-miterlimit="10" d="
			M539.714,462.333c-0.202,4.518-6.938,2.582-9.57,1.863c-4.216-1.152-8.334-2.7-12.464-4.118c-0.871-0.299-1.743-0.592-2.612-0.896
			c-0.699-0.245-2.182-0.516-2.638-1.148c0.782-0.348,2.197-0.012,3.036,0.039c1.155,0.07,2.31,0.143,3.467,0.178
			c2.082,0.063,4.175,0.046,6.247-0.188c2.023-0.228,3.932-0.76,5.848-1.435c1.835-0.646,4.284-1.824,6.068-0.476
			C538.812,457.451,539.756,460.244,539.714,462.333z"/>
	</g>
	<g id="POLYLINE_1716_">
		<path fill="none" stroke="#FB8604" stroke-width="2" stroke-linecap="round" stroke-linejoin="round" stroke-miterlimit="10" d="
			M494.061,445.927c-0.83,0.569-2.539-0.382-3.286-0.784c-1.138-0.615-2.214-1.448-2.759-2.654
			c-0.944-2.087-0.085-4.497,0.848-6.424c1.374-2.839,3.25-5.402,4.814-8.134c0.717-1.253,1.357-2.543,1.907-3.877
			c0.611-1.482,1.142-3.057,2.078-4.376c3.086-4.347,10.807-0.63,11.127,4.084c0.179,2.636-1.465,5.201-3.421,6.828
			c-0.986,0.82-2.141,1.475-3.393,1.78c-1.626,0.395-3.292,0.146-4.941,0.135c-1.689-0.012-3.227,0.41-4.318,1.775
			c-0.757,0.947-1.199,2.131-1.349,3.327c-0.315,2.503,0.775,4.52,2.035,6.587C493.663,444.619,494.298,445.388,494.061,445.927z"/>
	</g>
	<g id="POLYLINE_1715_">
		<path fill="none" stroke="#FB8604" stroke-width="2" stroke-linecap="round" stroke-linejoin="round" stroke-miterlimit="10" d="
			M509.017,338.569c-0.203-1.368-1.543-2.865-2.893-3.188c-1.587-0.379-2.558,1.311-3.121,2.521
			c-1.521,3.272-2.172,6.942-3.319,10.353c-1.259,3.742-2.859,7.35-4.202,11.06c-1.215,3.358-2.016,6.812-1.613,10.403
			c0.342,3.049,1.438,5.994,2.893,8.681c0.689,1.272,1.777,3.587,3.268,4.036c1.582,0.476,1.646-2.92,1.693-3.801
			c0.359-6.766-2.731-13.39-0.984-20.129c0.819-3.161,2.566-6.007,3.229-9.216c0.334-1.616,0.42-3.312,1.103-4.837
			c0.751-1.678,2.287-2.641,3.339-4.091C508.792,339.833,509.084,339.237,509.017,338.569z"/>
	</g>
	<g id="POLYLINE_1714_">
		<path fill="none" stroke="#FB8604" stroke-width="2" stroke-linecap="round" stroke-linejoin="round" stroke-miterlimit="10" d="
			M547.467,422.864c-0.845,0.478-2.99-1.601-3.611-2.107c-1.065-0.868-2.09-1.787-3.071-2.75c-2.031-1.995-3.751-4.219-5.246-6.639
			c-1.671-2.703-3.236-5.323-5.684-7.411c-2.205-1.881-4.736-3.316-7.238-4.757c-1.524-0.877-3.062-1.734-4.558-2.659
			c-1.187-0.734-2.602-1.51-3.476-2.626c-1.266-1.616,1.319-1.952,2.444-2.031c1.376-0.097,2.765,0.038,4.08,0.461
			c2.828,0.91,5.017,3.032,7.013,5.145c2.266,2.399,4.427,4.894,6.519,7.446c2.154,2.628,4.216,5.323,6.251,8.043
			c1.969,2.631,4.051,5.228,5.785,8.023C546.973,421.482,547.582,422.259,547.467,422.864z"/>
	</g>
	<g id="POLYLINE_1713_">
		<path fill="none" stroke="#FB8604" stroke-width="2" stroke-linecap="round" stroke-linejoin="round" stroke-miterlimit="10" d="
			M544.961,377.03c-0.196,0.714,1.235,1.996,1.615,2.493c0.687,0.899,1.327,1.85,1.767,2.897c0.865,2.061,0.386,4.061,0.356,6.205
			c-0.039,2.709,3.237-0.28,3.924-1.181c1.716-2.252,1.274-5.157-0.612-7.144c-1.02-1.074-2.335-1.873-3.671-2.492
			C547.587,377.461,545.793,376.501,544.961,377.03z"/>
	</g>
	<g id="POLYLINE_1712_">
		<path fill="none" stroke="#FB8604" stroke-width="2" stroke-linecap="round" stroke-linejoin="round" stroke-miterlimit="10" d="
			M580.28,316.249c0.632-0.299,0.121,2.602,0.024,3.039c-0.262,1.179-0.62,2.343-1.086,3.458c-0.452,1.081-1.008,2.165-1.815,3.027
			c-0.993,1.06-2.302,1.593-3.637,2.08c-1.23,0.449-2.419,0.901-3.275,1.942c-0.881,1.071-1.407,2.387-2.171,3.537
			c-1.428,2.147-3.49,3.61-5.776,4.732c-2.359,1.158-4.88,2.14-7.426,2.8c-0.224,0.058-1.519,0.469-1.536,0.092
			c-0.016-0.345,1.23-0.953,1.489-1.114c1.377-0.856,2.782-1.668,4.17-2.505c2.095-1.264,4.275-2.574,6.002-4.332
			c1.898-1.933,2.356-4.174,3.176-6.65c0.772-2.329,2.409-3.908,4.774-4.617c0.977-0.293,2.004-0.423,2.953-0.811
			c1.366-0.558,2.208-1.648,2.966-2.872C579.477,317.465,579.783,316.745,580.28,316.249z"/>
	</g>
	<g id="POLYLINE_1711_">
		<path fill="none" stroke="#FB8604" stroke-width="2" stroke-linecap="round" stroke-linejoin="round" stroke-miterlimit="10" d="
			M599.188,325.666c-0.453,0.724-1.385,1.291-2.042,1.83c-0.727,0.597-1.459,1.189-2.17,1.805c-1.315,1.139-2.57,2.344-3.648,3.714
			c-2.156,2.741-3.544,6.501-6.89,8.032c-1.6,0.732-3.35,1.077-5.022,1.599c-1.578,0.492-2.978,1.188-4.334,2.136
			c-2.665,1.864-5.033,3.636-8.396,3.82c-3.185,0.173-6.918-0.341-9.845-1.669c-0.813-0.369-1.286-0.871-0.146-1.068
			c0.723-0.125,1.475-0.129,2.206-0.145c1.92-0.04,3.841,0.026,5.761,0.036c1.437,0.007,2.919-0.009,4.31-0.414
			c1.457-0.425,2.624-1.348,3.767-2.311c1.361-1.147,2.696-2.281,4.362-2.962c1.589-0.649,3.301-0.958,4.869-1.659
			c2.945-1.317,4.464-4.563,6.812-6.647c2.421-2.148,5.275-3.92,8.17-5.349C597.264,326.261,599.016,325.298,599.188,325.666z"/>
	</g>
	<g id="POLYLINE_1710_">
		<path fill="none" stroke="#FB8604" stroke-width="2" stroke-linecap="round" stroke-linejoin="round" stroke-miterlimit="10" d="
			M577.696,362.032c0.305-1.386-5.278-2.297-6.196-2.47c-1.993-0.376-4.073-0.534-5.969,0.333c-1.381,0.632-2.542,1.684-3.552,2.8
			c-0.412,0.455-2.288,2.513-0.646,2.322c1.348-0.157,2.709-0.834,3.987-1.246c1.166-0.375,2.354-0.653,3.584-0.668
			c1.399-0.018,2.782,0.265,4.182,0.232c0.814-0.02,1.625-0.129,2.418-0.312C576.154,362.873,577.338,362.682,577.696,362.032z"/>
	</g>
	<g id="POLYLINE_1709_">
		<path fill="none" stroke="#FB8604" stroke-width="2" stroke-linecap="round" stroke-linejoin="round" stroke-miterlimit="10" d="
			M225.577,362.186c-5.217-0.1-10.432,0.024-15.649-0.066c-2.128-0.037-12.36,0.28-9.213,4.498c1.721,2.307,4.452,2.128,6.934,1.323
			c1.982-0.643,3.861-1.341,5.948-1.556c2.558-0.263,5.144-0.104,7.71-0.244c2.523-0.138,5.036-0.493,7.516-0.967
			c1.087-0.208,2.173-0.443,3.239-0.74c0.499-0.139,2.927-0.744,2.168-1.39c-0.646-0.55-2.213-0.483-3.028-0.56
			c-1.261-0.119-2.527-0.183-3.792-0.236C226.799,362.223,226.188,362.205,225.577,362.186z"/>
	</g>
	<g id="POLYLINE_1708_">
		<path fill="none" stroke="#FB8604" stroke-width="2" stroke-linecap="round" stroke-linejoin="round" stroke-miterlimit="10" d="
			M218.931,419.944c0.139-2.561-2.576-5.571-4.911-6.3c-2.537-0.792-4.137,1.961-4.869,3.967c-0.912,2.499-0.62,5.166-1.267,7.716
			c-0.123,0.487-0.593,1.403-0.418,1.903c0.207,0.592,0.876,0.213,1.281,0.011c1.307-0.651,2.499-1.587,3.711-2.391
			c1.259-0.834,2.576-1.538,3.897-2.266C217.424,421.997,218.78,421.294,218.931,419.944z"/>
	</g>
	<g id="POLYLINE_1707_">
		<path fill="none" stroke="#FB8604" stroke-width="2" stroke-linecap="round" stroke-linejoin="round" stroke-miterlimit="10" d="
			M190.881,544.16c-1.445-0.443-2.813-1.149-4.278-1.524c-0.566-0.145-1.237-0.276-1.084,0.51c0.122,0.626,0.753,1.299,1.168,1.755
			c1.121,1.231,2.477,1.883,4.087,2.216c1.353,0.279,2.658,0.473,3.652,1.523c1.021,1.079,1.598,2.62,2.823,3.504
			c1.169,0.844,2.465,0.268,3.536-0.474c0.775-0.537,1.484-1.198,2.073-1.935c0.274-0.343,0.993-1.178,0.822-1.694
			c-0.297-0.896-3.037-0.115-3.782-0.101c-1.68,0.033-2.825-0.792-4.086-1.817c-0.71-0.577-1.394-1.042-2.282-1.304
			C193.33,544.76,190.881,544.309,190.881,544.16z"/>
	</g>
	<g id="POLYLINE_1706_">
		<path fill="none" stroke="#FB8604" stroke-width="2" stroke-linecap="round" stroke-linejoin="round" stroke-miterlimit="10" d="
			M160.305,542.053c-2.047,0.341-3.976,0.548-5.901,1.363c-0.962,0.407-2.101,0.986-3.147,0.55c-1.06-0.442-1.679-1.576-2.773-1.977
			c-0.823-0.301-1.806-0.067-2.484,0.471c-1.019,0.81-0.274,1.686,0.575,2.253c1.773,1.184,3.856,1.548,5.924,1.129
			c2.546-0.516,5.034-1.474,7.553-2.128"/>
	</g>
	<g id="POLYLINE_1705_">
		<path fill="none" stroke="#FB8604" stroke-width="2" stroke-linecap="round" stroke-linejoin="round" stroke-miterlimit="10" d="
			M322.981,462.135c-1.638,4.027-7.15,5.441-11.072,4.691c-3.703-0.708-7.466-2.896-10.327-5.3
			c-1.686-1.416-3.241-3.372-1.691-5.444c1.298-1.734,3.527-2.786,5.475-3.595c3.81-1.583,9.098-3.289,12.939-0.97
			c2.988,1.803,5.48,5.848,4.982,9.425C323.232,461.35,323.131,461.751,322.981,462.135z"/>
	</g>
	<g id="POLYLINE_1704_">
		<path fill="none" stroke="#FB8604" stroke-width="2" stroke-linecap="round" stroke-linejoin="round" stroke-miterlimit="10" d="
			M369.787,484.876c-1.427-1.058-1.27-4.062-3.448-4.064c-1.916-0.001-3.827,1.397-5.589,2.025
			c-1.325,0.472-4.019,1.467-5.311,0.417c-1.366-1.111,0.412-3.813,1.122-4.807c1.091-1.529,2.511-2.559,4.134-3.461
			c1.767-0.983,3.313-2.238,5.031-3.287c2.001-1.222,4.103-1.267,6.15-0.037c1.763,1.06,3.175,2.779,3.771,4.757
			c0.542,1.797,0.361,3.75-0.58,5.384c-0.823,1.43-2.517,3.188-4.295,3.296C370.426,485.119,370.085,485.064,369.787,484.876z"/>
	</g>
	<g id="POLYLINE_1703_">
		<path fill="none" stroke="#FB8604" stroke-width="2" stroke-linecap="round" stroke-linejoin="round" stroke-miterlimit="10" d="
			M199.781,204.746c-1.574-1.097-4.205,0.008-5.81,0.536c-2.231,0.735-4.429,1.522-6.721,2.052c-2.209,0.511-4.616,0.837-6.665,1.87
			c-1.919,0.968-2.817,2.647-2.851,4.753c-0.066,4.047,2.315,8.71,6.453,9.768c4.366,1.117,9.341-0.923,12.118-4.327
			c1.678-2.057,2.827-4.573,3.608-7.097c0.591-1.909,1.209-4.268,0.65-6.259C200.421,205.533,200.187,205.096,199.781,204.746z"/>
	</g>
	<g id="POLYLINE_1702_">
		<path fill="none" stroke="#FB8604" stroke-width="2" stroke-linecap="round" stroke-linejoin="round" stroke-miterlimit="10" d="
			M164.675,504.39c-0.086,2.735-4.608,2.288-6.496,2.342c-1.655,0.047-3.311,0.123-4.966,0.134c-1.11,0.008-2.548,0.071-3.51-0.561
			c-0.985-0.647-0.78-1.875-0.317-2.793c0.771-1.526,1.669-0.77,2.62,0.11c2.063,1.908,4.191,0.922,6.381-0.294
			c1.261-0.699,2.995-1.996,4.518-1.75C164.145,501.778,164.661,503.286,164.675,504.39z"/>
	</g>
	<g id="POLYLINE_1701_">
		<path fill="none" stroke="#FB8604" stroke-width="2" stroke-linecap="round" stroke-linejoin="round" stroke-miterlimit="10" d="
			M340.816,472.88c2.26-1.218,5.028-3.099,5.039-5.967c0.007-1.796-1.05-3.859-2.541-4.866c-3.581-2.418-7.191,3.644-8.467,6.134
			c-1.789,3.491-3.188,7.836-0.104,11.042c1.401,1.457,3.263,2.549,5.143,3.263c1.187,0.451,3.972,1.382,4.668-0.286
			c0.445-1.067-0.204-2.606-0.929-3.385c-0.809-0.87-1.99-0.892-3.062-1.211c-0.941-0.28-1.941-0.885-2.38-1.805
			c-0.467-0.978,0.299-1.607,1.086-2.084C339.77,473.41,340.3,473.153,340.816,472.88z"/>
	</g>
	<g id="POLYLINE_1700_">
		<path fill="none" stroke="#FB8604" stroke-width="2" stroke-linecap="round" stroke-linejoin="round" stroke-miterlimit="10" d="
			M416.02,544.02c-1.316-1.936-4.086-1.512-6.095-1.907c-1.818-0.357-3.718-1.539-5.48-0.369c-0.604,0.401-1.839,1.464-1.592,2.322
			c0.26,0.902,2.02,0.909,2.745,0.989c2.499,0.275,4.815,0.715,7.229,1.426c0.885,0.261,2.615,1.042,3.461,0.42
			C417.114,546.292,416.426,544.686,416.02,544.02z"/>
	</g>
	<g id="POLYLINE_1699_">
		<path fill="none" stroke="#FB8604" stroke-width="2" stroke-linecap="round" stroke-linejoin="round" stroke-miterlimit="10" d="
			M431.564,544.81c-1.587-0.751-2.961-1.842-4.299-2.964c-1.447-1.215-3.247-2.464-4.033-4.247c-0.497-1.128-0.336-4.53,1.578-4.493
			c1.536,0.03,2.885,2.941,3.624,3.972c1.247,1.737,2.754,3.285,3.879,5.109"/>
	</g>
	<g id="POLYLINE_1698_">
		<path fill="none" stroke="#FB8604" stroke-width="2" stroke-linecap="round" stroke-linejoin="round" stroke-miterlimit="10" d="
			M546.371,357.661c-0.466,1.174-2.252,1.329-3.26,1.785c-1.098,0.496-1.967,1.315-2.787,2.181c-0.785,0.829-1.68,2.128-2.866,2.404
			c-1.09,0.254-2.063-0.65-2.687-1.434c-1.468-1.844-1.58-3.853,0.427-5.301c1.879-1.356,4.305-2.647,6.57-3.201
			c1.171-0.286,2.473-0.314,3.434,0.517C545.98,355.286,546.668,356.614,546.371,357.661z"/>
	</g>
</g>
<g id="AG-PEOPLE">
</g>
<g id="AG-DETAIL">
</g>
<g id="AG-ANIMALS">
	<g id="POLYLINE_1301_">
		
			<path fill="none" stroke="#FB8604" stroke-width="2.75" stroke-linecap="round" stroke-linejoin="round" stroke-miterlimit="10" d="
			M170.679,523.608c-3.208,2.849-6,6.257-7.852,10.145c-2.07,4.345-2.832,9.162-3.172,13.923c-0.347,4.85-0.215,9.832-1.454,14.572
			c-1.169,4.472-4.279,7.85-6.137,11.999c-1.536,3.429-2.995,9.127-0.375,12.415c1.452,1.822,4.113,1.991,6.248,2.302
			c2.026,0.295,4.044,0.635,5.894,1.555c2.189,1.088,4.244,2.938,4.793,5.411c0.442,1.991-0.197,4.162-1.368,5.794
			c-2.93,4.084-8.891,3.056-13.215,2.916c-4.337-0.141-9.319,1.083-13.47-0.61c-4.67-1.906-7.099-7.803-8.339-12.321
			c-1.435-5.228-1.546-10.735-1.122-16.109c0.378-4.782,1.088-9.545,1.977-14.257c1.266-6.707,2.532-13.415,3.797-20.122
			c0.897-4.752,1.721-9.52,2.539-14.286c0.921-5.372,1.805-10.755,2.426-16.171c0.639-5.579,0.806-11.155,1.036-16.762
			c0.192-4.657,0.666-9.83,3.513-13.714c2.882-3.932,7.651-6.148,12.019-7.995c4.543-1.921,9.361-3.508,13.51-6.237
			c2.009-1.322,3.82-2.95,5.131-4.982c1.195-1.851,1.984-3.942,2.652-6.031c0.787-2.458,1.42-4.96,2.064-7.458"/>
	</g>
	<g id="POLYLINE_1300_">
		
			<path fill="none" stroke="#FB8604" stroke-width="2.75" stroke-linecap="round" stroke-linejoin="round" stroke-miterlimit="10" d="
			M547.133,323.264c-4.739,0.23-9.648-0.109-13.948-2.293c-3.646-1.852-6.489-4.961-8.745-8.315
			c-2.478-3.685-4.38-7.789-5.692-12.028c-1.392-4.495-1.838-9.033-1.902-13.715c-0.063-4.626-0.733-9.469,0.097-14.063
			c0.438-2.421,1.664-4.349,4.344-3.292c2.224,0.877,4.182,2.598,5.87,4.253c3.334,3.27,5.597,7.303,8.336,11.039
			c1.281,1.748,2.728,3.43,4.577,4.597c1.958,1.236,4.252,1.733,6.542,1.831c4.222,0.18,8.201-1.077,12.198-2.266
			c3.953-1.176,7.881-1.841,12.015-1.616c4.509,0.245,8.979,1.351,13.122,3.137c3.533,1.523,6.849,3.564,9.735,6.114
			c3.573,3.155,6.411,7.058,10.13,10.058c3.439,2.774,7.351,4.416,11.262,6.374c1.92,0.961,3.694,2.144,5.043,3.842
			c1.214,1.528,2.076,3.312,2.687,5.157c1.164,3.514,1.429,7.296,1.053,10.965c-0.385,3.756-1.438,7.451-3.073,10.855
			c-1.577,3.282-3.717,6.338-6.449,8.762c-2.857,2.535-6.245,4.049-9.957,4.869c-4.444,0.982-9.035,1.152-13.447,2.291
			c-3.818,0.986-7.19,2.921-10.213,5.426c-3.622,3.001-6.738,6.59-9.807,10.138c-3.052,3.529-5.969,7.186-8.678,10.985
			c-2.69,3.773-5.172,7.703-7.322,11.81c-2.068,3.951-3.819,8.072-5.117,12.341c-1.318,4.336-2.132,8.81-2.395,13.335
			c-0.274,4.719,0.005,9.462,0.636,14.142c0.61,4.523,1.549,9.007,2.702,13.422c1.281,4.909,2.751,9.763,4.18,14.63
			c1.332,4.537,2.707,9.06,3.849,13.65c1.175,4.722,2.002,9.53,3.302,14.221c1.133,4.089,2.717,7.963,4.949,11.58
			c2.307,3.74,5.104,7.151,8.009,10.438c3.303,3.739,6.758,7.339,10.024,11.111c2.998,3.461,5.765,7.126,8.376,10.886
			c2.544,3.662,4.954,7.427,7.235,11.258c2.673,4.489,5.23,9.059,8.086,13.436c2.506,3.84,5.273,7.521,8.361,10.913
			c2.863,3.146,6.153,6.37,10.173,7.965c4.112,1.631,8.563,1.107,12.876,1.35c4.346,0.245,9.02,1.334,12.243,4.448
			c2.806,2.711,4.23,6.987,3.829,10.851c-0.222,2.136-1.14,4.06-3.065,5.161c-1.885,1.077-4.174,1.332-6.307,1.436
			c-4.69,0.227-9.393-0.303-14.087-0.29c-4.69,0.014-9.429,0.358-14.102-0.181c-4.257-0.491-8.082-1.916-11.466-4.562
			c-3.752-2.934-6.844-6.617-10.243-9.931c-3.453-3.365-7.118-6.503-10.585-9.853c-3.391-3.277-6.332-6.988-9.772-10.212
			c-3.398-3.184-7.408-5.601-11.302-8.116c-3.791-2.448-7.346-5.15-10.686-8.188c-3.679-3.346-7.114-6.948-10.563-10.527
			c-3.206-3.326-6.327-6.745-9.38-10.212c-3.319-3.769-6.545-7.62-9.903-11.355c-3.008-3.346-6.192-6.556-9.709-9.37
			c-3.714-2.972-7.699-5.558-11.759-8.027c-3.916-2.381-7.905-4.683-12.04-6.665c-3.98-1.908-8.131-3.559-12.452-4.504
			c-4.684-1.025-9.298-2.095-14.071-2.643c-4.638-0.532-9.291-0.862-13.947-1.183c-5.304-0.366-10.607-0.713-15.914-1.038
			c-4.558-0.279-9.12-0.513-13.687-0.537c-4.731-0.025-9.449,0.222-14.131,0.92c-4.605,0.687-9.292,1.558-13.75,2.904
			c-2.173,0.656-4.316,1.275-6.588,1.475c-2.413,0.213-4.841,0.055-7.229-0.326c-4.8-0.765-9.413-2.368-14.122-3.528
			c-4.457-1.098-9.014-1.809-13.571-2.334c-4.859-0.56-9.731-1.002-14.589-1.576c-4.017-0.474-8.028-0.98-12.027-1.584
			c-6.55-0.989-13.1-1.979-19.65-2.968c-4.327-0.654-8.651-1.3-12.987-1.888c-4.463-0.605-8.953-1.149-13.462-1.203
			c-4.298-0.052-8.645,0.349-12.777,1.577c-3.609,1.073-6.948,2.814-9.657,5.453c-3.154,3.073-5.458,6.913-7.89,10.548
			c-2.513,3.755-5.421,7.235-7.83,11.06c-2.504,3.975-4.189,8.668-8.123,11.519c-3.464,2.511-7.978,3.713-10.775,7.096
			c-1.599,1.934-2.549,4.341-3.643,6.572c-0.955,1.949-2.174,3.683-3.43,5.446c-1.194,1.677-2.377,3.403-2.931,5.412
			c-0.414,1.5-0.501,3.076-0.404,4.624c0.284,4.522,1.953,8.922,3.849,12.991c2.075,4.453,4.429,8.759,6.418,13.254
			c1.801,4.071,3.695,8.296,7.221,11.186c1.542,1.264,3.291,2.073,5.271,2.336c2.066,0.275,4.161,0.097,6.238,0.171
			c4.436,0.158,8.466,2.114,11,5.849c1.206,1.778,2.006,4,1.494,6.156c-0.444,1.866-1.776,3.49-3.349,4.54
			c-3.614,2.413-8.89,1.719-13.007,1.734c-5.034,0.019-10.079,0.11-15.113-0.033c-4.156-0.118-8.4-0.541-11.917-2.957
			c-3.755-2.581-6.32-6.602-8.514-10.507c-2.52-4.484-4.859-9.068-7.324-13.581c-2.212-4.05-4.482-8.075-6.772-12.082
			c-2.37-4.148-4.831-8.238-7.463-12.225c-2.723-4.126-5.603-8.224-7.502-12.815c-1.61-3.892-2.297-8.047-2.08-12.253
			c0.228-4.415,1.454-8.661,3.317-12.654c2.036-4.366,4.7-8.403,7.172-12.526c2.245-3.745,4.49-7.665,5.662-11.9
			c1.18-4.269,1.09-8.796,0.738-13.173c-0.38-4.708-1.093-9.392-1.918-14.041c-0.828-4.666-1.732-9.324-2.738-13.955
			c-1.08-4.972-2.116-9.963-3.337-14.904c-1.149-4.65-2.795-9.154-4.215-13.724c-1.371-4.413-2.478-8.875-2.749-13.503
			c-0.263-4.512,0.107-9.028,0.508-13.52c0.448-5.016,0.878-10.008,1.096-15.04c0.208-4.808,0.363-9.687,1.677-14.348
			c0.625-2.219,1.535-4.322,2.745-6.284c1.09-1.769,2.401-3.469,3.151-5.424c0.577-1.504,0.532-2.846,0.072-4.364
			c-0.604-1.994-1.202-3.99-1.826-5.978c-1.681-5.353-3.397-10.697-5.044-16.061c-1.38-4.492-2.662-9.021-3.793-13.583
			c-1.144-4.61-2.145-9.251-2.888-13.943c-0.757-4.779-1.269-9.597-1.544-14.428c-0.275-4.839-0.322-9.698-0.119-14.541
			c0.211-5.021,0.656-10.026,1.335-15.005c0.661-4.848,1.563-9.658,2.598-14.439c1.03-4.759,2.265-9.473,3.59-14.158
			c1.421-5.023,3.021-9.995,4.572-14.979c1.34-4.307,2.596-8.644,3.546-13.055c0.984-4.572,1.62-9.218,1.731-13.897
			c0.107-4.496-0.242-9.02-1.19-13.42c-0.903-4.192-2.379-8.2-4.449-11.956c-2.116-3.84-4.622-7.527-5.979-11.733
			c-0.718-2.223-1.11-4.663-0.42-6.944c0.671-2.221,2.336-4.222,4.411-5.266c4.292-2.16,9.268,1.162,12.483,3.891
			c3.219,2.733,5.736,6.175,7.74,9.872c2.249,4.149,3.949,8.608,5.241,13.141c1.256,4.407,2.108,8.927,2.626,13.478
			c0.531,4.668,0.714,9.376,0.605,14.072c-0.108,4.657-0.481,9.31-1.095,13.927c-0.644,4.844-1.474,9.662-2.49,14.442
			c-1.006,4.739-2.151,9.443-3.311,14.146c-1.18,4.787-2.418,9.563-3.364,14.403c-0.875,4.481-1.552,9.005-1.78,13.569
			c-0.236,4.711,0.013,9.443,0.665,14.113c0.661,4.733,1.722,9.408,3.139,13.971c1.466,4.72,3.305,9.321,5.491,13.754
			c2.021,4.099,4.33,8.051,6.869,11.85c2.491,3.727,5.163,7.378,8.142,10.732c2.708,3.049,5.765,5.911,9.406,7.813
			c3.85,2.011,8.18,2.566,12.471,2.664c4.841,0.111,9.684-0.287,14.522-0.001c4.426,0.261,8.835,0.953,13.173,1.859
			c5.162,1.077,10.312,2.253,15.511,3.14c4.534,0.773,9.106,1.35,13.681,1.818c5.85,0.598,11.706,1.144,17.558,1.716
			c4.286,0.419,8.556,0.929,12.818,1.555c4.32,0.635,8.608,1.439,12.904,2.22c5.496,0.999,10.987,2.027,16.488,2.996
			c4.528,0.797,9.071,1.523,13.626,2.148c3.91,0.536,7.825,1.039,11.745,1.497c6.609,0.772,13.218,1.545,19.827,2.317
			c4.086,0.478,8.182,0.903,12.26,1.438c4.661,0.612,9.328,1.215,13.968,1.978c5.222,0.859,10.438,1.784,15.677,2.536
			c4.425,0.635,8.896,1.076,13.371,1.045c4.412-0.03,8.82-0.507,13.127-1.468c4.33-0.966,8.561-2.415,12.547-4.368
			c3.961-1.94,7.707-4.395,10.883-7.469c3.139-3.038,5.497-6.663,7.337-10.608c2.156-4.623,3.724-9.519,5.461-14.307
			c1.491-4.113,3.415-7.93,5.572-11.728c2.258-3.977,4.363-8,5.374-12.497c0.788-3.505,0.892-7.094,0.876-10.673"/>
	</g>
	<g id="POLYLINE_1297_">
		
			<path fill="none" stroke="#FB8604" stroke-width="2.75" stroke-linecap="round" stroke-linejoin="round" stroke-miterlimit="10" d="
			M470.333,490.92c-4.055,2.293-7.688,5.233-10.971,8.527c-3.74,3.752-7.14,7.862-10.645,11.83
			c-3.033,3.434-6.042,6.906-8.544,10.755c-2.512,3.863-4.264,8.084-5.647,12.465c-1.457,4.618-2.419,9.419-4.193,13.932
			c-0.808,2.054-1.832,4.039-3.219,5.765c-1.594,1.984-3.67,3.486-5.59,5.13c-1.829,1.566-3.462,3.343-4.054,5.73
			c-0.478,1.927-0.412,3.957-0.308,5.924c0.137,2.598,0.258,5.168,0.273,7.769c0.012,1.986,0.017,4.427,2.064,5.427
			c2.001,0.977,4.437,0.857,6.566,1.422c2.051,0.545,3.863,1.682,5.27,3.27c3.049,3.44,3.822,8.448,0.492,11.967
			c-3.576,3.78-8.493,3.907-13.323,3.877c-3.447-0.022-6.894-0.043-10.341-0.065c-2.083-0.013-4.198,0.025-6.254-0.353
			c-4.83-0.887-7.102-5.201-8.031-9.645c-0.421-2.016-0.557-4.077-0.603-6.133c-0.072-3.229-0.143-6.458-0.215-9.688
			c-0.098-4.414-0.045-8.784,0.628-13.157c0.746-4.853,2.031-9.597,3.172-14.366c1.195-4.997,2.162-10.032,2.915-15.115
			c0.724-4.882,1.136-9.803,1.813-14.691c0.635-4.589,1.575-9.079,3.058-13.472c1.473-4.361,2.881-8.702,2.48-13.369
			c-0.181-2.106-0.676-4.181-1.352-6.18"/>
	</g>
</g>
<g id="AG-OUTLINE">
	<g id="POLYLINE_1272_">
		
			<path fill="none" stroke="#FB8604" stroke-width="3.5" stroke-linecap="round" stroke-linejoin="round" stroke-miterlimit="10" d="
			M187.831,138.946c-2.094-1.314-4.037-2.822-6.418-3.6c-3.056-0.998-6.026-0.195-8.161,2.202
			c-3.726,4.184-2.001,9.776,0.203,14.248c2.285,4.636,5.293,8.835,7.068,13.724c1.697,4.676,2.557,9.629,2.821,14.588
			c0.279,5.24-0.142,10.496-1.067,15.656c-0.904,5.042-2.254,10.006-3.776,14.894c-1.803,5.793-3.647,11.573-5.295,17.413
			c-1.486,5.267-2.793,10.59-3.879,15.953c-1.094,5.4-1.987,10.846-2.556,16.327c-0.584,5.628-0.875,11.277-0.848,16.935
			c0.027,5.605,0.37,11.206,1.036,16.771c0.639,5.338,1.597,10.631,2.804,15.869c1.256,5.447,2.773,10.828,4.376,16.181
			c1.737,5.802,3.62,11.564,5.435,17.343c0.67,2.134,1.456,4.277,1.954,6.455c0.406,1.776-0.277,3.511-1.13,5.045
			c-1.298,2.333-2.941,4.435-4,6.903c-1.044,2.432-1.658,5.023-2.044,7.635c-0.808,5.465-0.691,11.019-1.093,16.519
			c-0.405,5.548-1.143,11.076-1.311,16.64c-0.144,4.76,0.269,9.437,1.445,14.057c0.658,2.586,1.476,5.125,2.3,7.661
			c0.311,0.958,0.623,1.917,0.934,2.875c0.089,0.275,0.264,0.613,0.293,0.901c0.031,0.309-0.021,0.168-0.055,0.388
			c-0.053,0.335-0.207,0.217,0.074,0.557c0.187,0.226,0.286,0.196,0.429,0.466c0.306,0.576,0.423,1.368,0.609,2.003
			c0.695,2.376,1.265,4.772,1.808,7.186c0.436,1.939,0.872,3.879,1.307,5.818c0.209,0.93,0.708,2.129,0.664,3.086
			c-0.036,0.783-0.431,1.677-0.629,2.438c-0.144,0.555-0.292,1.108-0.445,1.661c-0.359,1.303-0.738,2.602-1.167,3.884
			c-0.72,2.149-1.586,4.283-2.927,6.126c-2.787,3.832-7.263,6.008-11.517,7.798c-4.776,2.01-9.822,3.701-14.165,6.593
			c-2.227,1.483-4.225,3.335-5.501,5.714c-1.103,2.057-1.684,4.352-2.033,6.647c-0.836,5.494-0.581,11.114-0.992,16.647
			c-0.391,5.265-1.088,10.517-1.951,15.725c-1.006,6.066-2.068,12.121-3.143,18.174c-1.033,5.818-2.188,11.617-3.283,17.424
			c-0.913,4.839-1.836,9.673-2.434,14.564c-0.672,5.491-1.022,11.093-0.195,16.588c0.752,4.996,2.504,10.586,6.134,14.278
			c3.665,3.728,8.876,2.896,13.621,2.74c2.569-0.084,5.127,0.14,7.695,0.16c2.174,0.018,4.528-0.098,6.445-1.239
			c1.918-1.141,3.158-3.316,3.436-5.504c0.287-2.256-0.706-4.336-2.361-5.844c-1.668-1.521-3.776-2.397-5.963-2.85
			c-2.341-0.485-4.981-0.428-7.162-1.499c-4.17-2.047-3.006-8.511-1.802-11.995c1.529-4.428,4.938-7.881,6.4-12.331
			c1.538-4.68,1.467-9.744,1.753-14.605c0.306-5.221,1.007-10.544,3.31-15.302c1.858-3.839,4.618-7.207,7.797-10.029
			c-0.677,3.31-0.846,6.736-0.401,10.089c0.496,3.736,1.855,7.244,3.638,10.546c2.063,3.821,4.616,7.344,6.955,10.995
			c2.233,3.486,4.362,7.039,6.401,10.642c2.213,3.911,4.435,7.821,6.593,11.763c2.246,4.104,4.405,8.255,6.647,12.361
			c1.85,3.388,3.857,6.795,6.59,9.555c2.829,2.857,6.209,4.369,10.148,4.874c3.771,0.483,7.643,0.381,11.436,0.367
			c4.79-0.018,9.594,0.08,14.382-0.065c3.783-0.115,7.689-1.206,9.525-4.839c1.871-3.704-0.528-7.774-3.358-10.207
			c-3.083-2.651-6.626-3.233-10.562-3.217c-1.813,0.007-3.664,0.063-5.441-0.358c-1.74-0.413-3.269-1.348-4.592-2.532
			c-2.949-2.638-4.731-6.22-6.307-9.781c-1.856-4.195-3.924-8.253-5.958-12.363c-1.825-3.688-3.453-7.533-4.291-11.577
			c-0.641-3.09-0.832-6.442,0.466-9.395c0.852-1.94,2.19-3.639,3.411-5.354c1.006-1.413,1.868-2.882,2.623-4.443
			c0.969-2.002,1.849-4.118,3.223-5.888c1.161-1.496,2.703-2.593,4.325-3.54c3.761-2.195,7.562-3.744,10.155-7.433
			c2.31-3.285,3.922-7.002,6.226-10.305c2.426-3.479,5.014-6.829,7.369-10.358c2.076-3.111,4.118-6.297,6.818-8.915
			c2.411-2.338,5.327-3.976,8.497-5.052c3.577-1.214,7.369-1.757,11.134-1.897c4.083-0.152,8.163,0.19,12.215,0.66
			c3.49,0.405,6.975,0.888,10.449,1.412c5.669,0.856,11.338,1.713,17.007,2.569c3.902,0.589,7.8,1.217,11.707,1.768
			c4.073,0.574,8.161,1.089,12.252,1.515c4.674,0.487,9.359,0.919,14.019,1.535c4.14,0.547,8.259,1.258,12.307,2.295
			c4.237,1.086,8.407,2.473,12.726,3.216c4.132,0.711,8.298,0.688,12.343-0.481c4.107-1.187,8.197-2.158,12.404-2.94
			c0.499-0.093,1.178-0.322,1.69-0.296c0.416,0.021,0.229-0.1,0.436,0.286c0.112,0.209,0.159,0.5,0.227,0.727
			c0.278,0.931,0.513,1.876,0.694,2.831c0.33,1.747,0.462,3.524,0.363,5.3c-0.21,3.763-1.493,7.293-2.686,10.831
			c-1.313,3.893-2.162,7.907-2.755,11.969c-0.639,4.383-1.038,8.801-1.603,13.194c-0.547,4.251-1.269,8.485-2.144,12.681
			c-0.9,4.317-2.043,8.579-3.036,12.875c-0.887,3.841-1.591,7.74-1.833,11.68c-0.285,4.644-0.016,9.327,0.083,13.972
			c0.081,3.765,0.003,7.594,1.043,11.249c1.101,3.869,3.323,7.317,7.507,8.136c1.786,0.35,3.627,0.366,5.44,0.377
			c2.853,0.018,5.706,0.036,8.56,0.054c3.875,0.024,8.141,0.474,11.815-1.002c4.074-1.637,7.298-5.401,6.299-9.964
			c-0.804-3.67-3.695-6.866-7.283-7.984c-1.675-0.522-3.434-0.642-5.147-0.984c-2.16-0.432-3.535-1.37-3.862-3.611
			c-0.288-1.971-0.093-3.998-0.171-5.983c-0.083-2.107-0.3-4.211-0.306-6.321c-0.004-1.601,0.112-3.243,0.672-4.757
			c0.74-2.002,2.306-3.531,3.903-4.883c1.902-1.611,3.933-3.11,5.496-5.072c1.141-1.432,2.035-3.043,2.763-4.719
			c1.655-3.807,2.547-7.92,3.693-11.895c1.115-3.868,2.36-7.722,4.164-11.331c1.845-3.693,4.284-7.047,6.898-10.229
			c2.998-3.65,6.208-7.132,9.334-10.673c2.559-2.899,5.122-5.79,8.014-8.367c1.487-1.325,3.044-2.57,4.676-3.711
			c0.805-0.563,1.629-1.101,2.47-1.61c0.319-0.193,0.813-0.613,1.178-0.674c0.425-0.071,1.139,0.21,1.578,0.296
			c3.897,0.764,7.865,1.59,11.631,2.866c3.949,1.339,7.75,3.101,11.423,5.067c3.716,1.99,7.36,4.133,10.925,6.381
			c3.5,2.206,6.92,4.545,10.101,7.196c3.131,2.61,5.994,5.525,8.721,8.55c3.198,3.548,6.287,7.196,9.416,10.804
			c2.726,3.142,5.563,6.188,8.406,9.224c2.846,3.038,5.741,6.048,8.726,8.951c3.023,2.94,6.141,5.785,9.537,8.291
			c3.441,2.539,7.162,4.663,10.671,7.103c3.142,2.185,5.898,4.705,8.485,7.521c2.933,3.192,5.871,6.31,9.056,9.254
			c3.124,2.887,6.322,5.698,9.312,8.727c3.046,3.086,5.944,6.409,9.441,9.005c3.012,2.236,6.421,3.508,10.128,4.024
			c4.405,0.614,8.91,0.356,13.341,0.29c4.058-0.06,8.097,0.209,12.152,0.303c3.649,0.085,8.899,0.282,11.442-2.867
			c2.162-2.678,1.635-6.942,0.532-9.94c-1.358-3.69-4.223-6.289-7.865-7.672c-3.908-1.484-8.018-1.478-12.133-1.538
			c-3.764-0.055-7.363-0.538-10.629-2.539c-3.38-2.071-6.21-5.001-8.789-7.977c-2.699-3.115-5.154-6.438-7.392-9.898
			c-2.602-4.023-4.969-8.197-7.41-12.319c-1.982-3.347-4.053-6.643-6.218-9.874c-2.281-3.403-4.682-6.731-7.248-9.926
			c-2.705-3.368-5.619-6.547-8.527-9.739c-2.896-3.179-5.818-6.332-8.463-9.727c-2.526-3.243-4.801-6.721-6.445-10.499
			c-1.451-3.335-2.415-6.874-3.199-10.419c-0.989-4.47-1.934-8.947-3.124-13.369c-1.213-4.509-2.584-8.977-3.896-13.457
			c-1.205-4.117-2.437-8.22-3.497-12.377c-1.032-4.047-1.872-8.147-2.453-12.283c-0.593-4.217-0.885-8.485-0.763-12.743
			c0.116-4.075,0.657-8.128,1.639-12.086c0.953-3.841,2.295-7.577,3.918-11.184c1.695-3.765,3.7-7.385,5.913-10.869
			c2.286-3.599,4.784-7.052,7.418-10.403c2.618-3.332,5.391-6.54,8.233-9.681c2.641-2.918,5.451-5.755,8.704-7.994
			c2.952-2.032,6.188-3.315,9.697-4.013c3.979-0.792,8.053-1.032,12.005-1.966c3.422-0.808,6.554-2.237,9.23-4.539
			c2.658-2.287,4.77-5.175,6.359-8.289c1.737-3.403,2.877-7.121,3.344-10.912c0.468-3.804,0.257-7.738-0.916-11.402
			c-1.165-3.641-3.303-6.7-6.673-8.604c-3.426-1.936-7.113-3.226-10.379-5.475c-3.284-2.261-5.902-5.182-8.62-8.067
			c-2.638-2.8-5.438-5.317-8.749-7.299c-3.25-1.946-6.803-3.398-10.473-4.328c-3.673-0.931-7.495-1.347-11.28-1.079
			c-4.095,0.291-7.887,1.668-11.815,2.746c-3.219,0.883-6.575,1.414-9.911,0.965c-4.394-0.591-7.364-3.309-9.841-6.789
			c-2.404-3.379-4.497-6.965-7.401-9.961c-1.877-1.936-7.946-7.929-10.121-3.706c-0.861,1.671-0.921,3.784-0.981,5.627
			c-0.066,2.015,0.003,4.029,0.07,6.043c0.14,4.228,0.366,8.489,0.153,12.717c-0.196,3.874-0.939,7.647-2.4,11.25
			c-1.555,3.834-3.805,7.31-5.752,10.946c-1.941,3.625-3.324,7.454-4.722,11.31c-1.466,4.041-2.832,8.133-4.717,12.005
			c-1.706,3.504-3.868,6.736-6.64,9.487c-2.784,2.763-6.028,5.029-9.474,6.889c-3.524,1.902-7.282,3.378-11.135,4.463
			c-3.859,1.087-7.831,1.774-11.829,2.075c-3.822,0.287-7.663,0.217-11.479-0.123c-3.775-0.337-7.523-0.894-11.262-1.509
			c-4.81-0.792-9.615-1.623-14.437-2.337c-3.689-0.546-7.387-1.077-11.092-1.51c-4.776-0.558-9.552-1.116-14.328-1.675
			c-5.76-0.673-11.52-1.346-17.279-2.02c-3.593-0.42-7.178-0.903-10.765-1.373c-4.085-0.536-8.156-1.193-12.217-1.884
			c-4.13-0.702-8.248-1.475-12.37-2.224c-4.556-0.828-9.107-1.703-13.672-2.484c-4.209-0.72-8.443-1.341-12.685-1.832
			c-4.59-0.532-9.195-0.937-13.794-1.386c-4.197-0.41-8.401-0.776-12.588-1.273c-4.418-0.524-8.825-1.127-13.196-1.96
			c-4.412-0.841-8.791-1.853-13.194-2.737c-4.131-0.829-8.313-1.489-12.522-1.747c-4.375-0.268-8.754,0.02-13.132,0.009
			c-3.945-0.01-7.983-0.254-11.713-1.648c-3.329-1.245-6.238-3.39-8.801-5.818c-2.867-2.717-5.346-5.827-7.694-8.993
			c-2.386-3.217-4.617-6.55-6.65-10.001c-2.181-3.701-4.132-7.538-5.813-11.491c-1.712-4.026-3.142-8.172-4.27-12.399
			c-1.113-4.172-1.933-8.426-2.408-12.719c-0.463-4.188-0.59-8.411-0.336-12.617c0.237-3.927,0.789-7.832,1.526-11.695
			c0.78-4.086,1.753-8.121,2.749-12.158c1.086-4.406,2.201-8.807,3.205-13.233c0.984-4.338,1.873-8.699,2.591-13.09
			c0.697-4.259,1.254-8.542,1.586-12.846c0.16-2.078,0.273-4.159,0.327-6.243c0.056-2.166-0.061-4.345,0.097-6.502
			c0.16-2.183-0.008-4.387-0.434-6.532c-0.388-1.956-0.551-3.957-0.874-5.928c-0.661-4.028-1.608-8.01-2.883-11.888
			c-1.324-4.027-2.984-7.993-5.135-11.652c-0.464-0.789-1.06-1.542-1.465-2.356c-0.446-0.898-0.788-1.784-1.373-2.616
			c-0.583-0.829-1.268-1.583-2.026-2.256c-0.39-0.346-0.799-0.671-1.225-0.971C188.869,139.574,188.177,138.946,187.831,138.946z"/>
	</g>
</g>
</svg>
