<?xml version="1.0" encoding="utf-8"?>
<!-- Generator: Adobe Illustrator 25.2.1, SVG Export Plug-In . SVG Version: 6.00 Build 0)  -->
<!DOCTYPE svg PUBLIC "-//W3C//DTD SVG 1.1//EN" "http://www.w3.org/Graphics/SVG/1.1/DTD/svg11.dtd" [
	<!ENTITY ns_extend "http://ns.adobe.com/Extensibility/1.0/">
	<!ENTITY ns_ai "http://ns.adobe.com/AdobeIllustrator/10.0/">
	<!ENTITY ns_graphs "http://ns.adobe.com/Graphs/1.0/">
	<!ENTITY ns_vars "http://ns.adobe.com/Variables/1.0/">
	<!ENTITY ns_imrep "http://ns.adobe.com/ImageReplacement/1.0/">
	<!ENTITY ns_sfw "http://ns.adobe.com/SaveForWeb/1.0/">
	<!ENTITY ns_custom "http://ns.adobe.com/GenericCustomNamespace/1.0/">
	<!ENTITY ns_adobe_xpath "http://ns.adobe.com/XPath/1.0/">
]>
<svg version="1.1" xmlns:x="&ns_extend;" xmlns:i="&ns_ai;" xmlns:graph="&ns_graphs;"
	 xmlns="http://www.w3.org/2000/svg" xmlns:xlink="http://www.w3.org/1999/xlink" x="0px" y="0px" width="750px" height="750px"
	 viewBox="0 0 750 750" enable-background="new 0 0 750 750" xml:space="preserve">
<metadata>
	<sfw  xmlns="&ns_sfw;">
		<slices></slices>
		<sliceSourceBounds  bottomLeftOrigin="true" height="9956.004" width="12861.98" x="-7334.191" y="-2001.004">
			</sliceSourceBounds>
	</sfw>
</metadata>
<g id="FILL-BACKGROUND">
	<rect fill="#FFFFFF" width="750" height="750"/>
</g>
<g id="N-TEXT">
</g>
<g id="AG-DIAGRAM">
	<g>
		<g>
			
				<line fill="none" stroke="#FB8604" stroke-width="3.25" stroke-linecap="round" stroke-linejoin="round" x1="237.5" y1="576.5" x2="239.5" y2="576.5"/>
			
				<line fill="none" stroke="#FB8604" stroke-width="3.25" stroke-linecap="round" stroke-linejoin="round" stroke-dasharray="4.0397,7.0695" x1="246.57" y1="576.5" x2="642.965" y2="576.5"/>
			
				<line fill="none" stroke="#FB8604" stroke-width="3.25" stroke-linecap="round" stroke-linejoin="round" x1="646.5" y1="576.5" x2="648.5" y2="576.5"/>
		</g>
	</g>
</g>
<g id="AG-DETAILS">
	<g id="POLYLINE_1923_">
		<path fill="none" stroke="#FB8604" stroke-width="2" stroke-linecap="round" stroke-linejoin="round" stroke-miterlimit="10" d="
			M604.382,327.794c5.969-0.437,11.875-0.351,17.75,0.892c5.976,1.265,11.805,3.355,17.31,5.991
			c3.219,1.541,6.314,3.308,9.266,5.314"/>
	</g>
	<g id="POLYLINE_1922_">
		<path fill="none" stroke="#FB8604" stroke-width="2" stroke-linecap="round" stroke-linejoin="round" stroke-miterlimit="10" d="
			M604.778,330.373c10.183,2.5,19.073,7.37,26.962,14.273c2.153,1.884,4.175,3.902,6.059,6.055"/>
	</g>
	<g id="POLYLINE_1921_">
		<path fill="none" stroke="#FB8604" stroke-width="2" stroke-linecap="round" stroke-linejoin="round" stroke-miterlimit="10" d="
			M602.993,333.248c1.988,1.664,3.993,3.304,5.504,5.436c1.565,2.207,2.582,4.762,3.362,7.339c1.357,4.484,2.047,9.214,2.047,13.898
			c0,2.563-0.223,5.137-0.799,7.637"/>
	</g>
	<g id="POLYLINE_1920_">
		<path fill="none" stroke="#FB8604" stroke-width="2" stroke-linecap="round" stroke-linejoin="round" stroke-miterlimit="10" d="
			M583.26,334.934c-5.817,7.297-9.291,16.292-9.147,25.671c0.037,2.432,0.293,4.857,0.718,7.251"/>
	</g>
	<g id="POLYLINE_1919_">
		<path fill="none" stroke="#FB8604" stroke-width="2" stroke-linecap="round" stroke-linejoin="round" stroke-miterlimit="10" d="
			M578.798,332.058c-5.587,3.431-10.594,7.491-13.503,13.502c-2.486,5.139-3.64,10.947-3.89,16.624
			c-0.145,3.288,0.035,6.598,0.634,9.837"/>
	</g>
	<g id="POLYLINE_1918_">
		<path fill="none" stroke="#FB8604" stroke-width="2" stroke-linecap="round" stroke-linejoin="round" stroke-miterlimit="10" d="
			M578.103,328.29c-3.871,0.835-7.592,1.584-10.909,3.886c-2.807,1.949-5.207,4.489-7.388,7.101
			c-4.226,5.062-7.789,10.777-10.383,16.843c-1.444,3.376-2.597,6.908-3.152,10.546"/>
	</g>
</g>
<g id="AG-ANIMALS">
	<g id="POLYLINE_159_">
		
			<path fill="none" stroke="#FB8604" stroke-width="2.75" stroke-linecap="round" stroke-linejoin="round" stroke-miterlimit="10" d="
			M488.791,472.551c-2.095,9.187-4.164,18.38-6.24,27.571c-1.755,7.771-3.654,15.534-5.003,23.389
			c-0.643,3.745-1.214,7.549-1.129,11.359c0.084,3.744,0.996,7.385,1.321,11.104c0.676,7.739-0.072,15.719,2.051,23.283
			c0.486,1.73,1.12,3.57,2.306,4.956c1.208,1.413,2.914,1.825,4.706,1.954c4.129,0.298,8.332,0.104,12.465-0.006
			c3.537-0.094,7.373,0.082,10.82-0.845c3.945-1.062,5.39-4.601,5.789-8.36c0.166-1.565,0.186-3.215-0.197-4.752
			c-0.579-2.321-2.399-3.824-4.13-5.322c-2.527-2.186-5.459-4.379-8.986-3.841c-1.209,0.184-3.439,1.281-4.459,0.254
			c-1.166-1.174-0.683-4.393-0.707-5.891c-0.062-3.896-0.1-7.715,1.071-11.478c1.337-4.297,3.483-8.357,5.365-12.428
			c1.676-3.624,3.119-7.34,4.495-11.086c2.872-7.823,5.35-15.786,8.629-23.455c0.923-2.16,1.851-4.317,2.777-6.475"/>
	</g>
	<g id="POLYLINE_151_">
		
			<path fill="none" stroke="#FB8604" stroke-width="2.75" stroke-linecap="round" stroke-linejoin="round" stroke-miterlimit="10" d="
			M288.041,416.217c3.405,5.224,5.801,10.972,7.087,17.073c1.242,5.894,1.766,12.305,0.182,18.186
			c-1.484,5.511-5.3,9.521-9.955,12.616c-5.25,3.49-11.105,6.183-16.886,8.66c-3.051,1.307-6.142,2.531-9.285,3.6
			c-2.834,0.964-6.002,1.428-8.662,2.823c-5.036,2.641-4.097,10.707-3.648,15.38c0.642,6.673,2.2,13.196,4.024,19.633
			c1.829,6.452,3.912,12.84,5.845,19.262c1.95,6.478,3.854,12.976,6.499,19.214c2.576,6.077,5.887,11.769,9.376,17.359
			c1.666,2.668,3.191,4.868,6.455,5.515c3.119,0.619,6.414,0.513,9.576,0.611c3.295,0.102,6.601,0.276,9.898,0.153
			c2.37-0.089,4.907-0.251,7.121-1.182c4.702-1.976,4.586-7.958,3.938-12.216c-0.374-2.457-0.849-5.198-2.207-7.332
			c-1.338-2.103-3.514-2.556-5.856-2.361c-4.65,0.386-10.896,3.791-14.421-0.807c-1.709-2.23-2.788-5.002-3.848-7.579
			c-1.248-3.034-2.367-6.119-3.446-9.216c-2.06-5.911-4.636-12.128-5.412-18.377c-0.33-2.652-0.086-5.403,2.08-7.218
			c1.959-1.642,4.674-2.236,7.124-2.692c6.375-1.186,12.908-1.336,19.241-2.785c6.218-1.423,12-4.166,18.096-5.978
			c3.075-0.914,6.2-1.624,9.327-2.328"/>
	</g>
	<g id="POLYLINE_150_">
		
			<path fill="none" stroke="#FB8604" stroke-width="2.75" stroke-linecap="round" stroke-linejoin="round" stroke-miterlimit="10" d="
			M382.799,477.485c4.104,1.404,8.25,2.766,12.597,3.14c4.43,0.382,8.674-0.504,12.852-1.925c4.794-1.631,9.433-3.696,14.299-5.116
			c4.152-1.212,8.413-1.809,12.738-1.822c4.654-0.014,9.313,0.569,13.846,1.612c4.412,1.015,8.625,2.939,13.097,3.661
			c8.761,1.414,16.78-4.218,25.424-4.485c4.211-0.13,8.102,1.409,12.156,2.282c3.769,0.812,7.589,0.543,11.364-0.09
			c1.155-0.194,2.303-0.422,3.452-0.65"/>
	</g>
	<g id="POLYLINE_149_">
		
			<path fill="none" stroke="#FB8604" stroke-width="2.75" stroke-linecap="round" stroke-linejoin="round" stroke-miterlimit="10" d="
			M561.152,329.974c-4.858,0.329-9.709,0.542-14.435,1.815c-4.849,1.306-9.451,3.458-14.061,5.414
			c-8.619,3.658-17.189,7.003-26.697,6.912c-4.926-0.048-9.8-0.761-14.672-1.418c-5.357-0.722-10.701-1.418-16.084-1.916
			c-10.399-0.963-20.841-1.381-31.276-1.695c-11.116-0.334-22.249-0.207-33.368-0.243c-8.993-0.029-17.984-0.448-26.882-1.814
			c-10.37-1.592-20.712-3.629-31.234-3.832c-9.735-0.188-19.464,1.268-28.882,3.665c-9.433,2.4-18.802,5.717-27.237,10.628
			c-4.371,2.545-8.464,5.527-12.771,8.174c-3.937,2.419-8.092,4.366-12.445,5.909c-9.864,3.496-20.197,5.622-30.296,8.3
			c-9.89,2.623-19.28,6.431-28.857,9.981c-9.293,3.445-18.815,5.666-28.709,6.393c-9.988,0.733-20.12,0.297-30.003-1.327
			c-9.306-1.528-18.74-4.142-26.847-9.091c-3.342-2.04-6.5-4.527-8.894-7.65c-2.829-3.689-4.142-8.32-7.058-11.929
			c-5.617-6.951-16.394-5.926-24.056-3.888c-2.22,0.591-4.428,1.317-6.5,2.316c-1.329,0.64-4.323,2.002-3.95,3.872
			c0.376,1.887,3.649,2.878,5.209,3.486c2.436,0.949,4.94,1.718,7.409,2.572c4.413,1.526,8.815,3.369,12.302,6.562
			c3.758,3.442,6.41,7.938,9.832,11.695c6.286,6.901,14.578,11.555,23.081,15.193c9.147,3.913,18.811,6.673,28.623,8.294
			c9.489,1.568,19.148,1.837,28.725,1.018c10.399-0.889,20.654-2.926,30.769-5.455c10.789-2.697,21.484-5.784,32.207-8.725
			c3.88-1.064,7.825-2.049,11.815-2.596c1.766-0.242,3.792-0.522,5.514,0.105c2.221,0.809,2.889,3.202,3.439,5.278
			c1.14,4.303,2.127,8.6,4.802,12.258c2.875,3.932,6.897,6.998,10.847,9.781c8.293,5.842,17.147,10.901,24.669,17.771
			c6.417,5.861,11.93,12.866,15.425,20.862c3.621,8.286,4.686,17.462,3.439,26.399c-0.608,4.36-1.746,8.68-3.542,12.705
			c-1.87,4.19-4.698,7.869-6.549,12.059c-3.645,8.248,2.251,16.199,5.771,23.4c2.215,4.531,4.003,9.332,6.854,13.523
			c2.282,3.354,5.332,5.996,8.542,8.434c3.993,3.032,8.072,5.904,11.655,9.429c3.486,3.43,6.589,7.413,10.559,10.314
			c2.977,2.175,6.437,3.461,10.133,3.52c5.009,0.08,10.11-0.105,15.119-0.246c3.347-0.094,8.948,0.166,11.432-2.592
			c1.243-1.38,1.282-3.404,1.31-5.157c0.034-2.173,0.009-4.363-0.228-6.526c-0.234-2.131-0.607-4.765-2.244-6.311
			c-1.266-1.196-3.063-1.415-4.73-1.369c-4.552,0.127-9.066,2.026-13.648,1.316c-4.658-0.722-8.555-4.502-12.226-7.186
			c-3.704-2.708-7.464-5.396-10.674-8.698c-3.059-3.146-5.447-6.834-5.628-11.325c-0.185-4.604,1.46-9.019,2.711-13.373
			c1.429-4.972,2.496-9.523,5.89-13.597c3.168-3.804,6.844-7.151,9.923-11.036c3.301-4.166,5.923-8.829,8.651-13.375
			c2.4-3.999,5.082-7.355,8.275-10.743c5.422-5.754,7.643-14.236,7.553-22.014"/>
	</g>
	<g id="POLYLINE_122_">
		
			<path fill="none" stroke="#FB8604" stroke-width="2.75" stroke-linecap="round" stroke-linejoin="round" stroke-miterlimit="10" d="
			M506.959,389.714c-3.85,8.292-6.098,17.317-7.296,26.358c-1.177,8.881-1.395,18.055,0.789,26.801
			c2.256,9.033,6.604,17.557,11.049,25.683c4.628,8.462,9.841,16.527,15.322,24.455c6.05,8.751,12.318,17.357,18.483,26.027
			c5.06,7.115,10.191,14.18,15.471,21.133c5.522,7.272,11.943,13.837,17.1,21.374c2.719,3.973,5.325,8.478,8.96,11.701
			c2.851,2.528,6.328,2.996,10.009,3.131c4.651,0.17,9.307-0.092,13.958-0.114c2.382-0.011,4.771,0.072,7.153-0.021
			c2.259-0.088,4.806-0.359,6.474-2.059c2.303-2.346,2.85-6.643,1.617-9.622c-0.862-2.085-2.573-3.811-4.08-5.447
			c-1.307-1.42-2.771-2.843-4.589-3.581c-3.994-1.623-7.935,1.251-11.964,0.855c-3.958-0.389-6.45-4.536-8.364-7.588
			c-5.018-8.002-8.491-16.804-12.86-25.148c-4.378-8.36-9.896-16.101-14.721-24.205c-4.25-7.138-9.218-15.315-9.853-23.799
			c-0.291-3.88,0.97-7.189,2.889-10.504c1.115-1.926,2.405-3.837,2.953-6.02c0.443-1.764,0.453-3.607,0.94-5.363
			c0.985-3.55,3.736-6.464,6.313-8.966c3.098-3.006,6.542-5.688,10.162-8.037c3.745-2.431,7.735-4.573,11.073-7.575
			c3.069-2.76,5.566-6.182,7.507-9.814c1.717-3.214,2.943-6.625,3.499-10.23c0.609-3.953,0.659-7.977,1.868-11.821
			c1.39-4.418,3.728-8.525,5.815-12.637c1.953-3.847,3.683-7.769,4.965-11.894c2.753-8.855,3.543-18.041,5.258-27.11
			c0.82-4.334,2.101-8.551,3.523-12.72"/>
	</g>
	<g id="POLYLINE_69_">
		
			<path fill="none" stroke="#FB8604" stroke-width="2.75" stroke-linecap="round" stroke-linejoin="round" stroke-miterlimit="10" d="
			M559.105,325.041c2.704,7.378,6.557,14.024,13.386,18.272c3.122,1.942,6.477,3.557,9.784,5.155
			c2.765,1.336,5.642,2.597,8.693,3.095c6.208,1.012,11.506-2.475,16.754-5.256c3.236-1.715,6.837-2.69,9.984-4.564
			c3.354-1.998,5.728-5.246,8.185-8.197c2.19-2.63,4.501-4.93,7.428-6.739c2.924-1.806,5.813-3.473,8.462-5.678
			c2.912-2.423,5.624-5.092,8.337-7.732c2.279-2.217,4.542-4.511,6.314-7.166c1.958-2.933,2.994-6.272,4.181-9.56
			c1.009-2.794,2.286-5.37,3.867-7.886c1.965-3.127,4.033-6.2,5.369-9.665c1.158-3.004,1.81-6.214,2.048-9.421
			c0.401-5.386-0.181-13.194-6.629-14.646c-3.125-0.704-6.416,0.304-9.311,1.45c-3.178,1.257-6.236,2.855-9.224,4.507
			c-7.193,3.976-14.245,8.24-21.598,11.919c-3.015,1.508-6.126,2.935-9.401,3.778c-3.525,0.906-7.053,0.85-10.622,0.258
			c-3.456-0.574-6.876-1.393-10.388-1.548c-3.598-0.158-7.146,0.521-10.683,1.084c-3.002,0.478-6.082,0.918-9.093,0.259
			c-3.392-0.743-6.323-2.741-9.026-4.834c-5.933-4.595-11.301-9.916-17.648-13.968c-5.367-3.427-11.138-4.945-17.484-5.11
			c-2.475-0.064-6.621-0.695-8.737,1.008c-2.381,1.916-1.143,6.471-0.503,8.99c1.916,7.538,5.542,14.611,8.623,21.714
			c1.335,3.078,2.533,6.215,3.519,9.423c1.146,3.732,2.104,7.56,3.605,11.172c1.324,3.187,3.167,6.174,5.656,8.586
			c2.656,2.573,5.871,4.09,9.25,5.46c1.528,0.62,3.195,1.164,4.572,2.093C558.135,322.209,558.573,323.562,559.105,325.041z"/>
	</g>
	<g id="POLYLINE_67_">
		
			<path fill="none" stroke="#FB8604" stroke-width="2.75" stroke-linecap="round" stroke-linejoin="round" stroke-miterlimit="10" d="
			M571.6,326.528c-1.301,4.14-0.12,8.47,3.008,11.493c2.805,2.711,6.585,3.085,10.165,1.905c1.996-0.658,3.95-1.539,6.074-1.685
			c2.369-0.162,4.72,0.531,7.012,1.025c4.244,0.913,7.875,0.434,11.517-1.991c2.138-1.424,3.265-3.282,3.471-5.854
			c0.182-2.263-0.155-4.683-1.124-6.748"/>
	</g>
</g>
<g id="AG-OUTLINE">
	<g id="POLYLINE_716_">
		
			<path fill="none" stroke="#FB8604" stroke-width="3.5" stroke-linecap="round" stroke-linejoin="round" stroke-miterlimit="10" d="
			M330.286,496.23c-4.577,1.029-9.127,2.121-13.545,3.718c-4.526,1.637-8.993,3.446-13.691,4.545
			c-4.883,1.142-9.928,1.559-14.897,2.154c-3.571,0.428-7.733,0.801-10.842,2.778c-3.735,2.376-3.244,6.844-2.377,10.621
			c1.095,4.773,2.798,9.442,4.377,14.071c1.524,4.466,3.111,8.941,5.053,13.245c1.492,3.306,3.265,7.42,7.454,7.43
			c3.792,0.009,7.393-1.79,11.199-1.624c3.942,0.172,5.31,3.623,6.076,6.997c0.738,3.248,1.221,6.776,0.465,10.069
			c-0.927,4.036-4.206,5.391-7.979,5.843c-4.374,0.524-8.844,0.198-13.231,0.06c-4.171-0.131-10.454,0.633-13.513-2.878
			c-1.539-1.765-2.699-3.983-3.917-5.968c-1.243-2.025-2.436-4.083-3.568-6.172c-2.192-4.045-4.112-8.219-5.725-12.528
			c-3.58-9.567-6.187-19.513-9.174-29.276c-2.781-9.093-5.398-18.382-5.799-27.94c-0.146-3.478-0.362-8.54,2.404-11.173
			c1.514-1.442,3.697-1.906,5.641-2.467c2.259-0.652,4.492-1.357,6.701-2.164c4.53-1.654,8.972-3.568,13.319-5.654
			c4.102-1.969,8.232-4.05,11.932-6.718c3.212-2.316,6.062-5.204,7.671-8.872c1.748-3.986,2.094-8.502,1.89-12.803
			c-0.202-4.275-0.967-8.548-2.208-12.643c-0.669-2.209-1.495-4.369-2.477-6.458c-0.967-2.057-2.082-4.823-3.736-6.398
			c-1.502-1.43-3.277-2.586-4.784-4.032c-1.515-1.454-2.926-3.035-4.062-4.805c-2.376-3.7-3.1-7.935-4.323-12.081
			c-0.633-2.148-1.561-4.107-3.915-4.606c-1.733-0.368-3.61-0.088-5.338,0.171c-3.906,0.585-7.76,1.554-11.565,2.598
			c-10.543,2.892-21.059,5.909-31.66,8.583c-9.478,2.391-19.099,4.346-28.833,5.316c-9.354,0.933-18.791,0.903-28.109-0.388
			c-9.369-1.298-18.591-3.73-27.423-7.103c-8.294-3.168-16.672-7.234-23.377-13.147c-3.655-3.223-6.557-7.062-9.555-10.875
			c-2.988-3.801-6.339-6.815-10.747-8.86c-4.302-1.996-8.918-3.147-13.312-4.903c-1.478-0.591-4.44-1.532-4.841-3.304
			c-0.4-1.768,2.295-3.081,3.55-3.717c4.01-2.032,8.614-3.174,13.057-3.722c3.949-0.487,8.121-0.421,11.9,0.946
			c4.231,1.53,6.728,4.718,8.725,8.623c1.884,3.684,3.747,7.238,6.737,10.162c6.156,6.019,14.64,9.483,22.809,11.751
			c9.134,2.535,18.667,3.673,28.128,3.902c9.508,0.23,19.132-0.463,28.391-2.715c9.392-2.284,18.239-6.216,27.299-9.498
			c9.866-3.574,20.095-5.95,30.243-8.564c8.585-2.212,17.207-4.569,24.947-9.014c4.112-2.361,7.953-5.154,11.971-7.664
			c4.073-2.545,8.325-4.73,12.76-6.574c8.724-3.628,17.928-6.217,27.24-7.799c9.165-1.557,18.365-1.888,27.615-0.965
			c9.898,0.988,19.628,3.206,29.523,4.206c9.58,0.968,19.2,0.894,28.816,0.925c10.179,0.033,20.349,0.035,30.522,0.402
			c10.085,0.364,20.18,0.934,30.215,2.019c9.498,1.027,19.079,3.265,28.678,2.757c9.458-0.5,18.104-4.521,26.69-8.164
			c3.927-1.667,7.87-3.369,12.03-4.371c4.385-1.056,8.879-1.237,13.361-1.541c-0.672-1.452-1.299-2.921-1.858-4.42
			c-0.501-1.344-0.847-2.857-1.964-3.843c-2.206-1.948-5.645-2.623-8.271-3.851c-6.176-2.89-10.146-8.14-12.431-14.432
			c-2.278-6.274-3.79-12.723-6.456-18.869c-2.862-6.597-6.117-13.126-8.161-20.041c-0.793-2.681-1.838-6.167-1.029-8.954
			c0.773-2.663,3.755-2.719,6.059-2.742c5.987-0.06,11.959,0.34,17.429,2.987c5.665,2.741,10.5,6.993,15.279,11.014
			c4.88,4.106,10.191,9.541,16.873,10.203c5.93,0.588,11.756-1.799,17.701-1.622c6.495,0.193,12.763,2.833,19.301,1.754
			c6.154-1.016,11.929-4.302,17.318-7.282c6.5-3.595,12.877-7.443,19.492-10.824c4.65-2.377,11.401-5.981,16.643-3.359
			c5.17,2.585,5.236,9.95,4.742,14.885c-0.644,6.435-3.231,11.705-6.638,17.098c-1.562,2.474-3.022,4.94-4.08,7.677
			c-1.089,2.818-1.909,5.752-3.263,8.462c-2.81,5.625-8.011,9.98-12.534,14.188c-2.191,2.039-4.447,4.039-6.928,5.723
			c-2.732,1.854-5.762,3.247-8.297,5.388c-1.272,1.075-3.025,2.554-3.774,4.063c-0.783,1.577-1.179,3.527-1.673,5.214
			c-0.913,3.117-1.628,6.276-2.166,9.478c-1.164,6.92-1.958,13.887-3.686,20.702c-1.705,6.726-4.483,12.831-7.611,18.994
			c-2.74,5.399-4.996,10.51-5.639,16.581c-0.323,3.047-0.592,6.106-1.482,9.052c-0.792,2.622-1.957,5.131-3.337,7.493
			c-3.147,5.385-7.422,9.501-12.675,12.82c-5.778,3.65-11.467,7.304-16.271,12.227c-1.882,1.929-3.784,4.073-4.861,6.576
			c-1.064,2.471-0.845,5.209-1.718,7.724c-1.037,2.986-3.14,5.494-4.381,8.397c-1.126,2.634-1.444,5.383-1.09,8.224
			c0.791,6.351,3.907,12.362,6.947,17.898c3.498,6.369,7.449,12.479,11.31,18.63c3.545,5.649,6.736,11.361,9.606,17.384
			c2.986,6.269,5.911,12.625,9.639,18.498c1.582,2.492,3.458,5.538,6.247,6.802c2.567,1.163,5.383,0.157,7.971-0.397
			c3.091-0.661,5.772-0.53,8.306,1.507c2.321,1.866,5.003,4.645,6.223,7.393c1.04,2.344,0.872,5.217-0.101,7.556
			c-1.367,3.289-4.395,4.154-7.715,4.307c-3.068,0.141-6.148,0.004-9.219,0.057c-3.827,0.065-7.661,0.209-11.489,0.106
			c-2.726-0.073-5.636-0.184-8.121-1.432c-2.92-1.466-4.998-4.271-6.888-6.845c-2.026-2.76-3.876-5.644-5.845-8.443
			c-2.057-2.924-4.374-5.606-6.722-8.296c-4.308-4.937-8.356-10.093-12.234-15.374c-4.098-5.58-8.194-11.156-12.213-16.793
			c-4.467-6.267-8.971-12.509-13.399-18.803c-4.171-5.928-8.353-11.842-12.287-17.931c-3.562,8.304-6.724,16.649-9.72,25.173
			c-1.31,3.726-2.62,7.453-4.117,11.109c-1.644,4.014-3.57,7.9-5.354,11.852c-1.566,3.471-2.836,7.013-3.109,10.837
			c-0.148,2.075-0.065,4.161-0.032,6.239c0.023,1.449-0.427,4.521,0.722,5.625c1.06,1.018,3.343-0.125,4.588-0.298
			c1.754-0.244,3.391,0.18,4.935,1.022c1.517,0.827,2.861,1.934,4.157,3.066c1.68,1.467,3.353,2.913,3.895,5.178
			c0.734,3.069,0.28,7.12-1.293,9.872c-1.832,3.206-5.609,3.58-8.936,3.773c-4.39,0.255-8.797,0.31-13.194,0.341
			c-3.168,0.022-7.849,0.637-10.161-2.031c-2.254-2.601-2.879-6.701-3.329-10.002c-0.567-4.169-0.629-8.389-0.767-12.587
			c-0.132-3.992-0.538-7.841-1.135-11.789c-0.53-3.5-0.567-6.959-0.188-10.477c0.789-7.326,2.529-14.539,4.15-21.715
			c2.208-9.776,4.407-19.554,6.624-29.327c0.438-1.93,0.88-3.86,1.32-5.79c-6.527-0.171-12.696,2.836-18.978,4.17
			c-5.537,1.177-10.123-0.217-15.397-1.891c-6.078-1.929-12.443-3.052-18.829-3.066c-5.981-0.014-11.666,1.195-17.282,3.208
			c-6.101,2.187-12.256,5.258-18.82,5.701c-2.765,0.186-5.535-0.105-8.24-0.681c-1.334-0.284-2.654-0.636-3.96-1.029
			c-0.751-0.226-1.499-0.463-2.243-0.711c-0.432-0.144-1.872-0.911-2.253-0.749c-0.523,0.222-1.224,2.046-1.512,2.528
			c-0.418,0.699-0.833,1.401-1.255,2.097c-0.929,1.532-1.88,3.053-2.883,4.538c-1.842,2.728-3.905,5.269-6.132,7.691
			c-2.353,2.559-4.878,4.991-7.037,7.723c-2.173,2.749-3.384,5.785-4.288,9.138c-1.603,5.949-4.475,12.346-3.599,18.632
			c0.836,6,5.783,10.485,10.267,14.083c2.846,2.284,5.837,4.39,8.777,6.549c2.442,1.793,4.907,3.822,7.848,4.72
			c2.9,0.885,5.977,0.378,8.901-0.117c2.772-0.47,5.907-1.324,8.719-0.65c3.195,0.766,4.05,3.989,4.432,6.882
			c0.372,2.818,0.459,5.79,0.242,8.623c-0.208,2.721-1.454,4.455-4.119,5.252c-2.814,0.841-5.87,0.924-8.783,1
			c-3.403,0.088-6.81-0.009-10.213,0.104c-2.797,0.093-5.612,0.359-8.362-0.307c-6.18-1.496-10.326-6.488-14.545-10.871
			c-2.199-2.285-4.447-4.503-6.921-6.491c-2.766-2.221-5.689-4.24-8.474-6.437c-4.862-3.837-8.199-8.29-10.831-13.892
			c-1.484-3.159-2.886-6.352-4.492-9.453c-1.595-3.08-3.298-6.141-4.525-9.394c-0.908-2.407-1.575-5.002-1.249-7.59
			c0.323-2.561,1.524-4.915,2.788-7.127C327.154,501.914,328.921,499.184,330.286,496.23z"/>
	</g>
</g>
<g id="N-DIMENSIONS" display="none">
</g>
</svg>
