<?xml version="1.0" encoding="utf-8"?>
<!-- Generator: Adobe Illustrator 25.2.1, SVG Export Plug-In . SVG Version: 6.00 Build 0)  -->
<!DOCTYPE svg PUBLIC "-//W3C//DTD SVG 1.1//EN" "http://www.w3.org/Graphics/SVG/1.1/DTD/svg11.dtd" [
	<!ENTITY ns_extend "http://ns.adobe.com/Extensibility/1.0/">
	<!ENTITY ns_ai "http://ns.adobe.com/AdobeIllustrator/10.0/">
	<!ENTITY ns_graphs "http://ns.adobe.com/Graphs/1.0/">
	<!ENTITY ns_vars "http://ns.adobe.com/Variables/1.0/">
	<!ENTITY ns_imrep "http://ns.adobe.com/ImageReplacement/1.0/">
	<!ENTITY ns_sfw "http://ns.adobe.com/SaveForWeb/1.0/">
	<!ENTITY ns_custom "http://ns.adobe.com/GenericCustomNamespace/1.0/">
	<!ENTITY ns_adobe_xpath "http://ns.adobe.com/XPath/1.0/">
]>
<svg version="1.1" xmlns:x="&ns_extend;" xmlns:i="&ns_ai;" xmlns:graph="&ns_graphs;"
	 xmlns="http://www.w3.org/2000/svg" xmlns:xlink="http://www.w3.org/1999/xlink" x="0px" y="0px" width="750px" height="750px"
	 viewBox="0 0 750 750" enable-background="new 0 0 750 750" xml:space="preserve">
<metadata>
	<sfw  xmlns="&ns_sfw;">
		<slices></slices>
		<sliceSourceBounds  bottomLeftOrigin="true" height="9956.004" width="12861.98" x="-7334.191" y="-2001.004">
			</sliceSourceBounds>
	</sfw>
</metadata>
<g id="FILL-BACKGROUND">
	<rect fill="#FFFFFF" width="750" height="750"/>
</g>
<g id="N-TEXT">
</g>
<g id="AG-DIAGRAM">
	<g>
		<g>
			
				<line fill="none" stroke="#FB8604" stroke-width="3.25" stroke-linecap="round" stroke-linejoin="round" x1="189.5" y1="606.5" x2="191.5" y2="606.5"/>
			
				<line fill="none" stroke="#FB8604" stroke-width="3.25" stroke-linecap="round" stroke-linejoin="round" stroke-dasharray="4.042,7.0735" x1="198.573" y1="606.5" x2="572.963" y2="606.5"/>
			
				<line fill="none" stroke="#FB8604" stroke-width="3.25" stroke-linecap="round" stroke-linejoin="round" x1="576.5" y1="606.5" x2="578.5" y2="606.5"/>
		</g>
	</g>
</g>
<g id="AG-DETAILS">
	<g id="POLYLINE_2011_">
		<path fill="none" stroke="#FB8604" stroke-width="2" stroke-linecap="round" stroke-linejoin="round" stroke-miterlimit="10" d="
			M487.652,309.865c-1.893-2.031-0.919-5.365,0.463-7.421c1.654-2.462,4.28-3.547,7.128-2.607c2.422,0.799,5.323,2.965,5.607,5.685
			c0.283,2.707-2.808,4.249-4.969,4.942C493.463,311.241,489.696,311.819,487.652,309.865z"/>
	</g>
	<g id="POLYLINE_2010_">
		<path fill="none" stroke="#FB8604" stroke-width="2" stroke-linecap="round" stroke-linejoin="round" stroke-miterlimit="10" d="
			M506.732,295.199c-1.857-2.45-1.539-6.066-0.884-8.881c0.737-3.169,2.247-6.717,5.023-8.618c3.339-2.286,6.436-0.473,7.61,3.006
			c1.036,3.072,1.024,6.653,0.145,9.759c-0.583,2.062-1.633,4.013-3.434,5.255C512.728,297.418,508.772,297.748,506.732,295.199z"/>
	</g>
	<g id="POLYLINE_2009_">
		<path fill="none" stroke="#FB8604" stroke-width="2" stroke-linecap="round" stroke-linejoin="round" stroke-miterlimit="10" d="
			M470.698,499.254c2.929,1.682,9.095,3.012,11.229-0.589c1.166-1.967-0.379-3.488-1.881-4.67c-2.039-1.604-4.033-3.177-5.88-5.008
			c-2.026-2.008-3.989-4.079-6.033-6.069"/>
	</g>
	<g id="POLYLINE_2008_">
		<path fill="none" stroke="#FB8604" stroke-width="2" stroke-linecap="round" stroke-linejoin="round" stroke-miterlimit="10" d="
			M480.352,527.085c-1.438-1.392-2.033-3.446-0.718-5.143c1.104-1.424,3.036-2.101,4.716-2.542c4.008-1.051,8.66-1.133,12.642,0.084
			c3.119,0.953,7.046,4.106,5.422,7.833c-1.471,3.375-6.517,3.529-9.615,3.44C488.733,530.64,483.489,529.952,480.352,527.085z"/>
	</g>
	<g id="POLYLINE_2007_">
		<path fill="none" stroke="#FB8604" stroke-width="2" stroke-linecap="round" stroke-linejoin="round" stroke-miterlimit="10" d="
			M484.089,510.269c-3.369-3.407,2.577-5.994,5.155-7.024c2.159-0.863,4.378-1.574,6.596-2.266c2.3-0.718,4.63-1.57,7.024-1.918
			c1.67-0.243,3.608-0.193,4.098,1.749c0.515,2.041-0.495,4.484-1.645,6.139c-2.027,2.92-5.485,4.158-8.862,4.679
			c-2.134,0.329-4.312,0.399-6.468,0.304C487.986,511.844,485.639,511.678,484.089,510.269z"/>
	</g>
	<g id="POLYLINE_2006_">
		<path fill="none" stroke="#FB8604" stroke-width="2" stroke-linecap="round" stroke-linejoin="round" stroke-miterlimit="10" d="
			M484.462,490.371c-1.931-0.797-3.795-1.847-5.388-3.205c-1.084-0.925-3.331-2.99-2.311-4.623c0.901-1.443,3.626-1.509,5.099-1.602
			c2.494-0.157,5.012-0.034,7.496,0.21c2.796,0.274,5.595,0.721,8.304,1.476c2.064,0.575,4.444,1.316,6.014,2.858
			c1.189,1.168,1.58,2.847,0.618,4.287c-1.021,1.527-3.005,2.141-4.719,2.462C494.637,493.157,489.072,492.268,484.462,490.371z"/>
	</g>
	<g id="POLYLINE_2005_">
		<path fill="none" stroke="#FB8604" stroke-width="2" stroke-linecap="round" stroke-linejoin="round" stroke-miterlimit="10" d="
			M512.502,329.767c-3.011-1.53-3.517-5.621-1.952-8.364c1.793-3.142,5.64-4.84,9.116-5.14c2.664-0.23,6.747,0.265,7.404,3.449
			c0.706,3.422-2.301,6.696-4.939,8.359C519.463,329.752,515.544,331.147,512.502,329.767z"/>
	</g>
	<g id="POLYLINE_2004_">
		<path fill="none" stroke="#FB8604" stroke-width="2" stroke-linecap="round" stroke-linejoin="round" stroke-miterlimit="10" d="
			M516.654,375.093c-1.83-1.459-1.682-3.925-0.513-5.759c1.511-2.371,4.411-3.844,7.061-4.598c1.369-0.39,3.16-0.806,4.512-0.164
			c1.258,0.597,1.509,2.031,1.599,3.287c0.144,2.023,0.024,4.323-1.374,5.927C525.567,376.509,519.581,377.181,516.654,375.093z"/>
	</g>
	<g id="POLYLINE_2003_">
		<path fill="none" stroke="#FB8604" stroke-width="2" stroke-linecap="round" stroke-linejoin="round" stroke-miterlimit="10" d="
			M498.546,360.561c-2.242-3.661-0.194-11.902,4.968-11.6c3.277,0.192,7.267,3.147,8.152,6.341c0.675,2.437-1.046,4.452-3.035,5.613
			C505.878,362.523,500.658,363.778,498.546,360.561z"/>
	</g>
	<g id="POLYLINE_2002_">
		<path fill="none" stroke="#FB8604" stroke-width="2" stroke-linecap="round" stroke-linejoin="round" stroke-miterlimit="10" d="
			M491.857,350.296c-1.927,0.085-3.386-1.94-4.306-3.384c-1.331-2.088-2.251-4.457-2.851-6.852
			c-1.053-4.207-1.039-8.724,1.357-12.477c1.833-2.87,6.968-7.176,9.975-3.429c2.547,3.174,2.009,8.843,1.597,12.561
			c-0.323,2.91-0.873,5.844-1.868,8.605C495.127,347.074,494.03,350.025,491.857,350.296z"/>
	</g>
	<g id="POLYLINE_2001_">
		<path fill="none" stroke="#FB8604" stroke-width="2" stroke-linecap="round" stroke-linejoin="round" stroke-miterlimit="10" d="
			M532.537,406.681c-1.665-2.548-3.411-9.637,2.032-8.333c2.295,0.55,3.802,2.469,4.378,4.685c0.471,1.813,0.822,5.459-1.111,6.61
			C535.872,410.814,533.479,408.08,532.537,406.681z"/>
	</g>
	<g id="POLYLINE_2000_">
		<path fill="none" stroke="#FB8604" stroke-width="2" stroke-linecap="round" stroke-linejoin="round" stroke-miterlimit="10" d="
			M529.999,389.151c-0.23-3.064,4.833-5.206,7.1-5.99c2.355-0.815,5.211-1.203,7.389,0.293c2.713,1.862,3.204,5.539,0.721,7.731
			c-1.993,1.759-4.845,2.19-7.411,1.968C535.39,392.945,530.404,392.046,529.999,389.151z"/>
	</g>
	<g id="POLYLINE_1999_">
		<path fill="none" stroke="#FB8604" stroke-width="2" stroke-linecap="round" stroke-linejoin="round" stroke-miterlimit="10" d="
			M513.506,402.991c-1.485-1.233-2.499-3.145-2.101-5.113c0.59-2.919,3.964-4.073,6.599-4.19c3.381-0.151,6.6,1.437,7.564,4.841
			c0.87,3.072-0.579,5.692-3.7,6.333C519.092,405.433,515.738,404.734,513.506,402.991z"/>
	</g>
	<g id="POLYLINE_1998_">
		<path fill="none" stroke="#FB8604" stroke-width="2" stroke-linecap="round" stroke-linejoin="round" stroke-miterlimit="10" d="
			M499.09,397.224c-3.069-0.837-3.164-5.747-2.749-8.318c0.477-2.95,2.069-5.616,4.213-7.668c2.537-2.429,7.332-4.675,7.98,0.441
			c0.357,2.817-0.544,5.806-1.759,8.322C505.543,392.551,502.503,397.948,499.09,397.224z"/>
	</g>
	<g id="POLYLINE_1997_">
		<path fill="none" stroke="#FB8604" stroke-width="2" stroke-linecap="round" stroke-linejoin="round" stroke-miterlimit="10" d="
			M467.214,417.508c-3.949-1.814-4.222-7.563-3.283-11.182c1.398-5.392,6.04-9.765,10.943-12.114
			c1.882-0.901,4.361-1.831,6.463-1.182c2.023,0.625,2.685,2.75,2.793,4.663c0.263,4.673-1.859,9.615-4.609,13.287
			C477.069,414.252,471.828,419.441,467.214,417.508z"/>
	</g>
	<g id="POLYLINE_1996_">
		<path fill="none" stroke="#FB8604" stroke-width="2" stroke-linecap="round" stroke-linejoin="round" stroke-miterlimit="10" d="
			M477.248,426.158c-3.497-2.227-0.967-5.664,1.776-7.064c3.22-1.644,7.15-2.369,10.749-2.194c2.682,0.13,6.647,1.218,5.967,4.721
			c-0.625,3.218-4.569,4.583-7.344,5.214C484.974,427.613,480.41,428.027,477.248,426.158z"/>
	</g>
	<g id="POLYLINE_1995_">
		<path fill="none" stroke="#FB8604" stroke-width="2" stroke-linecap="round" stroke-linejoin="round" stroke-miterlimit="10" d="
			M481.284,439.652c1.488-2.147-3.864-5.472-5.198-6.276c-2.291-1.382-5.539-2.883-8.275-2.033
			c-2.278,0.708-2.931,3.264-1.485,5.086c1.547,1.949,4.505,2.787,6.819,3.337C475.151,440.244,479.59,441.357,481.284,439.652z"/>
	</g>
	<g id="POLYLINE_1994_">
		<path fill="none" stroke="#FB8604" stroke-width="2" stroke-linecap="round" stroke-linejoin="round" stroke-miterlimit="10" d="
			M503.438,477.748c-2.705,0.784-5.688,0.621-8.359-0.231c-2.913-0.929-6.453-3.446-3.245-6.299
			c2.437-2.168,6.129-2.942,9.281-3.286c2.508-0.273,6.724-0.636,8.712,1.324c1.624,1.601,0.002,4.044-1.213,5.326
			C507.209,476.062,505.39,477.159,503.438,477.748z"/>
	</g>
	<g id="POLYLINE_1993_">
		<path fill="none" stroke="#FB8604" stroke-width="2" stroke-linecap="round" stroke-linejoin="round" stroke-miterlimit="10" d="
			M469.62,459.064c-2.86-4.054,6.768-5.74,8.87-5.997c4.482-0.546,9.191-0.45,13.601,0.57c3.114,0.72,9.709,3.382,7.953,7.773
			c-0.784,1.96-3.404,2.022-5.201,2.002c-2.639-0.028-5.269-0.466-7.878-0.823c-3.349-0.458-6.707-0.811-10.061-1.232
			C474.683,461.079,471.179,460.88,469.62,459.064z"/>
	</g>
	<g id="POLYLINE_1992_">
		<path fill="none" stroke="#FB8604" stroke-width="2" stroke-linecap="round" stroke-linejoin="round" stroke-miterlimit="10" d="
			M509.967,421.594c0.011-2.03,2.782-3.373,4.312-4.12c1.821-0.889,3.756-1.555,5.714-2.07c3.213-0.844,6.745-1.424,10.063-0.886
			c2.225,0.361,4.44,1.478,5.194,3.742c0.889,2.671-0.751,5.301-3.109,6.527c-3.109,1.617-7.077,1.68-10.482,1.445
			c-2.167-0.15-4.339-0.482-6.43-1.08C513.594,424.686,510.124,423.723,509.967,421.594z"/>
	</g>
	<g id="POLYLINE_1991_">
		<path fill="none" stroke="#FB8604" stroke-width="2" stroke-linecap="round" stroke-linejoin="round" stroke-miterlimit="10" d="
			M492.591,438.41c-1.272-0.563-2.786-1.562-2.751-3.13c0.036-1.621,1.662-2.809,2.889-3.599c3.23-2.08,7.165-3.276,10.94-3.881
			c3.739-0.6,9.931-0.961,11.464,3.521c1.664,4.862-4.354,7.07-7.944,7.801C502.619,440.051,496.969,440.296,492.591,438.41z"/>
	</g>
	<g id="POLYLINE_1818_">
		<path fill="none" stroke="#FB8604" stroke-width="2" stroke-linecap="round" stroke-linejoin="round" stroke-miterlimit="10" d="
			M478.771,344.005c-2.026-2.063-4.818-0.567-6.509,1.198c-1.835,1.916-2.985,4.411-3.843,6.893
			c-1.455,4.212-2.222,8.807-2.062,13.267c0.08,2.24,0.297,5.083,1.87,6.825c1.786,1.978,4.547,0.993,6.329-0.479
			c3.644-3.01,5.099-8.226,5.835-12.707c0.404-2.458,0.591-4.964,0.483-7.454C480.767,349.077,480.509,345.928,478.771,344.005z"/>
	</g>
	<g id="POLYLINE_1817_">
		<path fill="none" stroke="#FB8604" stroke-width="2" stroke-linecap="round" stroke-linejoin="round" stroke-miterlimit="10" d="
			M473.075,312.964c-3.334-2.224-6.996,4.996-8.036,7.121c-1.914,3.911-3.541,8.43-3.679,12.826
			c-0.045,1.416,0.015,3.485,1.443,4.259c1.819,0.987,4.259-0.517,5.685-1.59c3.445-2.592,5.487-6.486,6.292-10.666
			c0.432-2.244,0.562-4.575,0.3-6.848C474.886,316.371,474.513,314.088,473.075,312.964z"/>
	</g>
	<g id="POLYLINE_1816_">
		<path fill="none" stroke="#FB8604" stroke-width="2" stroke-linecap="round" stroke-linejoin="round" stroke-miterlimit="10" d="
			M349.085,262.204c-1.338,1.266-5.781,4.124-4.769,6.497c0.499,1.169,2.167,1.746,3.263,2.129c1.644,0.576,3.368,0.927,5.084,1.206
			c3.305,0.539,6.686,0.796,10.034,0.721c2.441-0.054,5.904-0.043,7.242-2.507c1.205-2.219,1.412-5.462,0.655-7.852"/>
	</g>
	<g id="POLYLINE_1815_">
		<path fill="none" stroke="#FB8604" stroke-width="2" stroke-linecap="round" stroke-linejoin="round" stroke-miterlimit="10" d="
			M390.744,264.751c-2.226,0.004-4.656,0.355-6.528,1.645c-2.615,1.802-3.227,5.359-2.063,8.2c1.412,3.448,5.488,5.997,9.11,6.477
			c3.643,0.482,4.795-2.346,6.381-5.027c1.753-2.961,3.964-5.636,5.523-8.714"/>
	</g>
	<g id="POLYLINE_1814_">
		<path fill="none" stroke="#FB8604" stroke-width="2" stroke-linecap="round" stroke-linejoin="round" stroke-miterlimit="10" d="
			M426.245,276.366c-2.764-1.969-6.37-3.312-9.801-2.648c-3.269,0.633-8.125,4.813-6.92,8.675c0.978,3.132,6.413,3.25,9.002,3.401
			c3.214,0.188,7.157,0.3,10.147-1.148C432.939,282.581,428.55,278.032,426.245,276.366z"/>
	</g>
	<g id="POLYLINE_1813_">
		<path fill="none" stroke="#FB8604" stroke-width="2" stroke-linecap="round" stroke-linejoin="round" stroke-miterlimit="10" d="
			M419.438,297.565c-3.221-1.659-6.954-1.536-10.049,0.35c-2.644,1.612-5.728,4.732-5.551,8.091
			c0.222,4.214,4.986,5.513,8.454,5.231c2.443-0.198,4.876-0.861,7.167-1.716c1.756-0.655,3.945-1.466,5.164-2.975
			C427.215,303.342,421.946,298.897,419.438,297.565z"/>
	</g>
	<g id="POLYLINE_1812_">
		<path fill="none" stroke="#FB8604" stroke-width="2" stroke-linecap="round" stroke-linejoin="round" stroke-miterlimit="10" d="
			M427.859,328.232c-1.707-4.131-3.56-10.283-0.061-14.016c2.737-2.919,7.072-2.382,10.309-0.679
			c2.989,1.573,5.854,4.556,5.295,8.188c-0.561,3.649-3.645,6.88-6.549,8.918c-1.44,1.011-3.422,2.226-5.263,1.909
			C429.54,332.201,428.568,329.945,427.859,328.232z"/>
	</g>
	<g id="POLYLINE_1811_">
		<path fill="none" stroke="#FB8604" stroke-width="2" stroke-linecap="round" stroke-linejoin="round" stroke-miterlimit="10" d="
			M459.283,298.586c-1.757-3.27-1.11-8.02,1.615-10.591c1.299-1.226,3.024-1.858,4.77-2.096c3.723-0.507,7.641,0.594,10.88,2.402
			c1.852,1.033,3.581,2.343,5.022,3.902c1.447,1.565,3.293,4.047,2.463,6.31c-1.31,3.574-7.64,4.167-10.813,4.395
			C468.674,303.235,461.85,303.145,459.283,298.586z"/>
	</g>
	<g id="POLYLINE_1810_">
		<path fill="none" stroke="#FB8604" stroke-width="2" stroke-linecap="round" stroke-linejoin="round" stroke-miterlimit="10" d="
			M364.168,300.01c-2.622-1.115-14.082-6.778-10.375-10.974c1.858-2.104,5.639-2.563,8.233-2.901c3.069-0.4,6.186-0.465,9.274-0.293
			c5.371,0.299,11.882,1.173,16.247,4.621c6.078,4.8-4.198,9.177-8.079,10.373c-4.466,1.376-9.041,1.399-13.475-0.124
			C365.376,300.5,364.768,300.264,364.168,300.01z"/>
	</g>
	<g id="POLYLINE_1809_">
		<path fill="none" stroke="#FB8604" stroke-width="2" stroke-linecap="round" stroke-linejoin="round" stroke-miterlimit="10" d="
			M310.06,271.39c-2.666-0.565-5.677-1.776-7.453-3.914c-2.232-2.687,1.095-4.213,3.485-4.453c2.572-0.258,5.154,0.415,7.472,1.498
			c1.555,0.726,6.92,3.556,4.916,5.842c-1.081,1.233-3.382,1.352-4.885,1.372C313.307,271.739,310.06,271.641,310.06,271.39z"/>
	</g>
	<g id="POLYLINE_1808_">
		<path fill="none" stroke="#FB8604" stroke-width="2" stroke-linecap="round" stroke-linejoin="round" stroke-miterlimit="10" d="
			M303.784,287.046c-1.976-3.34,1.576-6.888,4.489-8.019c2.389-0.928,5.123-1.13,7.648-0.763c2.411,0.35,5.776,1.501,5.318,4.519
			c-0.569,3.748-4.787,6.144-8.211,6.737C310.054,290.035,305.62,289.795,303.784,287.046z"/>
	</g>
	<g id="POLYLINE_1807_">
		<path fill="none" stroke="#FB8604" stroke-width="2" stroke-linecap="round" stroke-linejoin="round" stroke-miterlimit="10" d="
			M272.322,351.424c-2.279-0.364-3.362-3.127-3.87-5.081c-0.449-1.729-1.011-4.673,0.779-5.857c2.893-1.915,9.886,0.698,9.578,4.561
			C278.588,347.816,275.378,351.769,272.322,351.424z"/>
	</g>
	<g id="POLYLINE_1806_">
		<path fill="none" stroke="#FB8604" stroke-width="2" stroke-linecap="round" stroke-linejoin="round" stroke-miterlimit="10" d="
			M289.047,393.671c-2.889,0.547-4.985-2.485-5.879-4.826c-0.915-2.393-0.924-5.114,1.141-6.907
			c2.397-2.081,7.508-3.148,10.28-1.336c2.226,1.455,1.398,4.529,0.53,6.551C294.032,389.687,291.924,393.02,289.047,393.671z"/>
	</g>
	<g id="POLYLINE_1805_">
		<path fill="none" stroke="#FB8604" stroke-width="2" stroke-linecap="round" stroke-linejoin="round" stroke-miterlimit="10" d="
			M272.038,398.328c1.754-2.28-3.693-6.997-5.214-8.322c-2.385-2.079-5.094-3.878-8.105-4.905c-1.718-0.586-3.802-1.094-5.569-0.494
			c-1.868,0.634-2.214,2.513-1.959,4.283c0.655,4.559,5.753,6.095,9.503,7.509c2.057,0.776,4.158,1.479,6.304,1.966
			C268.333,398.667,270.883,399.4,272.038,398.328z"/>
	</g>
	<g id="POLYLINE_1804_">
		<path fill="none" stroke="#FB8604" stroke-width="2" stroke-linecap="round" stroke-linejoin="round" stroke-miterlimit="10" d="
			M209.642,313.564c-2.023-2.649-2.039-6.817-1.471-9.949c0.321-1.768,0.923-3.904,2.53-4.916c1.449-0.912,3.25-0.537,4.745,0.053
			c3.361,1.326,6.479,3.854,8.881,6.515c1.122,1.243,2.49,2.852,2.685,4.575c0.207,1.833-1.44,2.802-2.932,3.389
			c-2.437,0.958-5.178,1.428-7.758,1.81C214.045,315.378,211.243,315.55,209.642,313.564z"/>
	</g>
	<g id="POLYLINE_1803_">
		<path fill="none" stroke="#FB8604" stroke-width="2" stroke-linecap="round" stroke-linejoin="round" stroke-miterlimit="10" d="
			M219.331,339.303c-4.186-2.002-7.726-5.255-9.899-9.372c-1.115-2.112-3.327-7.32,0.787-7.477
			c3.829-0.146,8.458,2.114,11.581,4.129c3.645,2.351,6.848,6.246,7.48,10.659C230.152,343.341,222.41,340.763,219.331,339.303z"/>
	</g>
	<g id="POLYLINE_1802_">
		<path fill="none" stroke="#FB8604" stroke-width="2" stroke-linecap="round" stroke-linejoin="round" stroke-miterlimit="10" d="
			M230.868,376.698c-4.737-2.728-7.81-8-8.751-13.301c-0.382-2.152-0.595-4.899,1.521-6.227c2.409-1.511,6.058-1.146,8.729-0.852
			c5.561,0.613,11.672,2.314,16.096,5.874c3.8,3.058,6.602,9.08,2.63,13.227c-4.268,4.456-12.658,4.329-18.001,2.313
			C232.325,377.445,231.581,377.101,230.868,376.698z"/>
	</g>
	<g id="POLYLINE_1801_">
		<path fill="none" stroke="#FB8604" stroke-width="2" stroke-linecap="round" stroke-linejoin="round" stroke-miterlimit="10" d="
			M264.899,372.853c-5.862-2.02-10.424-10.295-7.421-16.196c2.02-3.969,5.622-1.075,7.951,0.928
			c2.976,2.559,6.114,5.505,7.949,9.032c0.752,1.446,1.347,3.257,0.267,4.694C271.792,373.779,267.521,373.738,264.899,372.853z"/>
	</g>
	<g id="POLYLINE_1800_">
		<path fill="none" stroke="#FB8604" stroke-width="2" stroke-linecap="round" stroke-linejoin="round" stroke-miterlimit="10" d="
			M269.139,437.376c-0.152-3.177,5.682-3.188,7.699-2.876c2.549,0.394,4.992,1.608,6.968,3.247c2.095,1.737,5.165,6.13,0.731,7.083
			c-2.571,0.553-5.503-0.517-7.839-1.498C274.328,442.334,269.565,440.304,269.139,437.376z"/>
	</g>
	<g id="POLYLINE_1799_">
		<path fill="none" stroke="#FB8604" stroke-width="2" stroke-linecap="round" stroke-linejoin="round" stroke-miterlimit="10" d="
			M233.733,414.394c-2.671-1.935-2.791-5.293-0.867-7.832c2.155-2.843,5.698-3.799,9.069-2.924c3.034,0.788,5.823,2.462,8.434,4.144
			c3.322,2.14,6.616,4.273,10.121,6.104c3.658,1.912,7.492,3.649,10.892,6.012c1.35,0.938,3.49,2.351,3.58,4.192
			c0.066,1.35-1.132,2.307-2.281,2.743c-2.28,0.864-4.85,0.075-7.006-0.786c-3.623-1.448-6.903-3.61-10.306-5.488
			c-2.755-1.521-5.566-2.554-8.678-3.054c-3.402-0.547-6.924-0.767-10.221-1.836C235.507,415.358,234.573,414.963,233.733,414.394z"
			/>
	</g>
	<g id="POLYLINE_1798_">
		<path fill="none" stroke="#FB8604" stroke-width="2" stroke-linecap="round" stroke-linejoin="round" stroke-miterlimit="10" d="
			M245.318,326.427c-1.799-1.747-5.89-4.593-8.027-1.791c-1.863,2.443-1.243,6.637-0.367,9.368c1.13,3.523,3.62,6.83,6.91,8.584
			c1.605,0.855,3.648,1.38,5.004-0.15c0.92-1.038,1.215-2.563,1.299-3.906C250.411,334.143,248.411,329.481,245.318,326.427z"/>
	</g>
	<g id="POLYLINE_1797_">
		<path fill="none" stroke="#FB8604" stroke-width="2" stroke-linecap="round" stroke-linejoin="round" stroke-miterlimit="10" d="
			M239.561,278.028c-5.646-2.945-13.451,2.957-16.102,7.599c-0.866,1.516-1.758,3.742-0.715,5.395
			c0.78,1.235,2.396,1.604,3.75,1.752c3.625,0.397,7.603-0.538,10.84-2.156c1.982-0.991,3.914-2.395,4.787-4.507
			C243.297,283.267,242.325,279.568,239.561,278.028z"/>
	</g>
	<g id="POLYLINE_1796_">
		<path fill="none" stroke="#FB8604" stroke-width="2" stroke-linecap="round" stroke-linejoin="round" stroke-miterlimit="10" d="
			M261.82,295.328c-2.93-3.957-10.33-0.257-13.77,1.25c-2.598,1.138-10.064,4.227-8.053,8.147c1.07,2.086,3.716,3.357,5.734,4.284
			c1.794,0.824,3.668,1.516,5.592,1.966c4.13,0.966,8.601,0.493,10.569-3.831C263.417,303.794,263.981,298.539,261.82,295.328z"/>
	</g>
	<g id="POLYLINE_1795_">
		<path fill="none" stroke="#FB8604" stroke-width="2" stroke-linecap="round" stroke-linejoin="round" stroke-miterlimit="10" d="
			M264.678,274.789c-0.253-1.682-2.665-2.207-4.057-2.38c-1.913-0.238-4.485-0.009-5.593,1.81c-1.04,1.707,0.008,4.341,1.426,5.529
			c1.352,1.133,3.113,0.206,4.408-0.572C262.218,278.361,264.817,276.659,264.678,274.789z"/>
	</g>
	<g id="POLYLINE_1794_">
		<path fill="none" stroke="#FB8604" stroke-width="2" stroke-linecap="round" stroke-linejoin="round" stroke-miterlimit="10" d="
			M253.001,257.6c-3.242-1.208-12.441-1.274-11.861,4.012c0.542,4.941,8.515,3.016,11.391,1.735
			c1.176-0.524,3.038-1.421,3.117-2.926C255.723,258.989,254.138,258.041,253.001,257.6z"/>
	</g>
	<g id="POLYLINE_1793_">
		<path fill="none" stroke="#FB8604" stroke-width="2" stroke-linecap="round" stroke-linejoin="round" stroke-miterlimit="10" d="
			M231.794,263.205c-3.613-1.829-8.095,0.111-10.878,2.6c-1.394,1.247-4.479,4.602-2.441,6.507c1.713,1.601,5.363,1.074,7.427,0.748
			c2.57-0.406,5.664-1.162,7.601-3.025C235.831,267.795,234.262,264.551,231.794,263.205z"/>
	</g>
	<g id="POLYLINE_1792_">
		<path fill="none" stroke="#FB8604" stroke-width="2" stroke-linecap="round" stroke-linejoin="round" stroke-miterlimit="10" d="
			M209.934,272.173c-3.45-3.918-8.371,3.018-9.593,5.816c-0.827,1.895-1.242,4.267,0.873,5.42c2.69,1.467,7.165,0.639,9.093-1.746
			C212.364,279.121,211.913,274.652,209.934,272.173z"/>
	</g>
	<g id="POLYLINE_1791_">
		<path fill="none" stroke="#FB8604" stroke-width="2" stroke-linecap="round" stroke-linejoin="round" stroke-miterlimit="10" d="
			M218.616,399.465c-2.31-0.919-8.562-3.356-6.827-6.875c1.444-2.929,5.726-3.161,8.512-2.813c3.222,0.402,6.593,1.571,9.167,3.591
			c2.308,1.811,4.446,6.309,0.567,7.806C226.601,402.498,221.805,400.723,218.616,399.465z"/>
	</g>
	<g id="POLYLINE_1790_">
		<path fill="none" stroke="#FB8604" stroke-width="2" stroke-linecap="round" stroke-linejoin="round" stroke-miterlimit="10" d="
			M192.986,369.563c-1.43-4.006,4.304-5.914,7.231-5.667c3.652,0.307,7.267,2.093,10.191,4.229c1.885,1.377,6.335,5.233,2.413,6.969
			c-2.919,1.292-6.867,0.566-9.849-0.097C199.778,374.289,194.414,372.956,192.986,369.563z"/>
	</g>
	<g id="POLYLINE_1789_">
		<path fill="none" stroke="#FB8604" stroke-width="2" stroke-linecap="round" stroke-linejoin="round" stroke-miterlimit="10" d="
			M187.576,346.639c-3.988-2.9-1.632-9.476,1.623-11.909c3.433-2.566,8.998-2.904,11.396,1.133c0.695,1.17,1.11,2.485,1.462,3.792
			c0.325,1.208,1.011,2.851,0.527,4.101c-0.869,2.244-4.861,3.136-6.969,3.563C193.099,347.828,189.824,348.169,187.576,346.639z"/>
	</g>
	<g id="POLYLINE_1788_">
		<path fill="none" stroke="#FB8604" stroke-width="2" stroke-linecap="round" stroke-linejoin="round" stroke-miterlimit="10" d="
			M175.473,326.847c-2.609,0.341-3.596-2.897-3.195-4.942c0.555-2.828,2.865-5.239,4.716-7.302c2.316-2.581,4.771-5.064,6.741-7.931
			c2.228-3.243,3.773-6.85,5.564-10.336c1.047-2.038,3.329-6.748,6.253-6.154c2.52,0.512,3.117,4.88,3.337,7.004
			c0.548,5.304-0.988,11.394-5.392,14.786c-1.543,1.188-3.384,1.172-5.06,2.021c-1.743,0.883-3.011,2.582-4.214,4.07
			c-2.172,2.689-4.229,6.052-7.13,8.038C176.599,326.441,176.068,326.737,175.473,326.847z"/>
	</g>
	<g id="POLYLINE_1787_">
		<path fill="none" stroke="#FB8604" stroke-width="2" stroke-linecap="round" stroke-linejoin="round" stroke-miterlimit="10" d="
			M153.724,376.757c4.75-0.777,10.079-3.715,12.321-8.079c1.214-2.363,1.782-5.828,0.155-8.106c-1.491-2.086-4.305-3.201-6.686-3.92
			c-2.188-0.661-4.556-1.04-6.838-0.72"/>
	</g>
	<g id="POLYLINE_1786_">
		<path fill="none" stroke="#FB8604" stroke-width="2" stroke-linecap="round" stroke-linejoin="round" stroke-miterlimit="10" d="
			M155.441,408.662c4.737-0.197,9.44-0.881,14.173-1.173c4.438-0.273,9.544-0.462,12.28-4.545c2.64-3.941,1.677-8.89-1.286-12.358
			c-2.993-3.504-6.535-3.807-10.807-3.279c-5.125,0.634-10.293,0.506-15.43,0.979"/>
	</g>
	<g id="POLYLINE_1785_">
		<path fill="none" stroke="#FB8604" stroke-width="2" stroke-linecap="round" stroke-linejoin="round" stroke-miterlimit="10" d="
			M156.129,427.969c3.982-2.135,8.987-3.523,13.473-2.376c2.1,0.537,4.044,1.536,6.079,2.26c2.036,0.724,4.157,1.173,6.289,1.5
			c2.531,0.389,5.08,0.581,7.634,0.733"/>
	</g>
	<g id="POLYLINE_1784_">
		<path fill="none" stroke="#FB8604" stroke-width="2" stroke-linecap="round" stroke-linejoin="round" stroke-miterlimit="10" d="
			M155.737,455.881c3.306-2.191,6.849-3.927,10.905-3.022c4.108,0.917,7.804,3.619,12.099,3.678
			c1.844,0.025,3.643-0.413,5.434-0.795"/>
	</g>
	<g id="POLYLINE_1783_">
		<path fill="none" stroke="#FB8604" stroke-width="2" stroke-linecap="round" stroke-linejoin="round" stroke-miterlimit="10" d="
			M154.274,472.762c8.093,1.826,16.162,3.727,24.23,5.658"/>
	</g>
	<g id="POLYLINE_1782_">
		<path fill="none" stroke="#FB8604" stroke-width="2" stroke-linecap="round" stroke-linejoin="round" stroke-miterlimit="10" d="
			M150.212,499.223c8.097,0.299,16.196-0.151,24.215-1.326"/>
	</g>
	<g id="POLYLINE_1781_">
		<path fill="none" stroke="#FB8604" stroke-width="2" stroke-linecap="round" stroke-linejoin="round" stroke-miterlimit="10" d="
			M148.448,510.937c6.308,1.901,12.804,2.361,19.319,1.39c1.675-0.25,3.337-0.59,4.972-1.03"/>
	</g>
	<g id="POLYLINE_1780_">
		<path fill="none" stroke="#FB8604" stroke-width="2" stroke-linecap="round" stroke-linejoin="round" stroke-miterlimit="10" d="
			M208.461,426.742c3.032,0.785,6.163,1,9.223,0.233c3.094-0.776,6.765-2.429,8.718-5.066c3.778-5.101-6.166-7.194-9.443-7.341
			c-2.685-0.12-5.479,0.192-7.967,1.256"/>
	</g>
	<g id="POLYLINE_1779_">
		<path fill="none" stroke="#FB8604" stroke-width="2" stroke-linecap="round" stroke-linejoin="round" stroke-miterlimit="10" d="
			M255.581,452.458c-7.988-0.798-16.009-2.521-23.489-5.472c-2.988-1.178-6.916-2.664-8.792-5.422
			c-2.087-3.069,1.525-5.194,4.115-5.988c5.369-1.645,11.041-0.421,16.154,1.507c7.753,2.924,14.901,7.25,22.467,10.604
			c1.588,0.704,3.404,1.316,4.835,2.327c1.93,1.363-0.638,1.996-1.894,2.235c-3.372,0.641-6.921,0.596-10.336,0.426
			C257.618,452.624,256.599,452.546,255.581,452.458z"/>
	</g>
	<g id="POLYLINE_1778_">
		<path fill="none" stroke="#FB8604" stroke-width="2" stroke-linecap="round" stroke-linejoin="round" stroke-miterlimit="10" d="
			M263.127,466.554c-1.258-1.845,0.128-4.161,1.557-5.456c2.474-2.244,6.264-2.36,9.03-0.552c1.775,1.161,3.499,3.675,2.305,5.812
			c-1.079,1.931-3.974,2.244-5.975,2.29C267.841,468.698,264.564,468.441,263.127,466.554z"/>
	</g>
	<g id="POLYLINE_1777_">
		<path fill="none" stroke="#FB8604" stroke-width="2" stroke-linecap="round" stroke-linejoin="round" stroke-miterlimit="10" d="
			M220.838,469.544c-0.731-2.136,0.983-4.689,2.402-6.145c1.144-1.173,2.558-2.071,4.115-2.583c3.696-1.217,8.013-0.53,11.655,0.514
			c1.283,0.368,10.201,3.415,6.997,5.607c-1.381,0.945-3.439,1.18-5.043,1.455c-2.308,0.396-4.639,0.647-6.961,0.935
			c-2.731,0.339-5.451,0.731-8.178,1.098C224.481,470.605,221.531,471.241,220.838,469.544z"/>
	</g>
	<g id="POLYLINE_1776_">
		<path fill="none" stroke="#FB8604" stroke-width="2" stroke-linecap="round" stroke-linejoin="round" stroke-miterlimit="10" d="
			M251.167,498.164c-0.838-1.789,2.368-3.574,3.583-4.234c1.721-0.935,3.844-1.83,5.719-0.83c1.476,0.788,4.732,4.051,2.628,5.778
			c-1.402,1.151-3.976,1.124-5.704,1.08C255.579,499.912,252.29,499.815,251.167,498.164z"/>
	</g>
	<g id="POLYLINE_1775_">
		<path fill="none" stroke="#FB8604" stroke-width="2" stroke-linecap="round" stroke-linejoin="round" stroke-miterlimit="10" d="
			M230.236,482.929c-2.46-4.029,6.301-5.994,8.594-6.452c4.624-0.924,9.536-1.305,14.235-0.825c1.543,0.158,4.435,0.333,5.269,1.94
			c0.801,1.542-0.715,3.946-1.523,5.215c-2.763,4.333-7.364,5.585-12.229,5.301c-2.844-0.166-5.69-0.729-8.387-1.645
			c-1.17-0.397-2.325-0.863-3.408-1.461c-0.467-0.258-0.927-0.537-1.351-0.862C231.254,483.999,230.355,482.929,230.236,482.929z"/>
	</g>
	<g id="POLYLINE_1774_">
		<path fill="none" stroke="#FB8604" stroke-width="2" stroke-linecap="round" stroke-linejoin="round" stroke-miterlimit="10" d="
			M217.421,502.151c-2.319-0.85-1.515-4.362-0.76-6.034c1.021-2.259,3.059-3.757,5.501-4.135c1.847-0.286,4.945-0.122,6.167,1.57
			c1.617,2.238-2.221,4.987-3.756,6.058C222.727,500.899,219.789,502.772,217.421,502.151z"/>
	</g>
	<g id="POLYLINE_1773_">
		<path fill="none" stroke="#FB8604" stroke-width="2" stroke-linecap="round" stroke-linejoin="round" stroke-miterlimit="10" d="
			M227.246,518.099c-3.744-3.654,2.52-8.424,5.731-9.493c3.827-1.274,8.243-1.488,12.195-0.697c2.71,0.542,6.344,2.228,3.879,5.355
			c-2.313,2.934-6.654,4.336-10.128,5.215C235.709,519.292,230.076,520.589,227.246,518.099z"/>
	</g>
	<g id="POLYLINE_1772_">
		<path fill="none" stroke="#FB8604" stroke-width="2" stroke-linecap="round" stroke-linejoin="round" stroke-miterlimit="10" d="
			M271.25,265.69c-1.897-0.961-5.92-3.933-4.481-6.548c1.328-2.412,6.124-2.524,8.518-2.6c3.3-0.104,7.4-0.052,10.356,1.624
			c3.335,1.891,0.294,4.945-1.842,6.34C280.154,266.89,275.247,267.671,271.25,265.69z"/>
	</g>
	<g id="POLYLINE_1771_">
		<path fill="none" stroke="#FB8604" stroke-width="2" stroke-linecap="round" stroke-linejoin="round" stroke-miterlimit="10" d="
			M278.797,299.72c-4.272-1.503-5.058-6.772-2.889-10.338c1.821-2.994,5.23-5.312,8.515-6.414c2.008-0.673,4.227-0.81,6.122,0.275
			c2.483,1.422,4.159,4.444,4.246,7.276c0.117,3.792-2.898,6.363-6.04,7.87C285.825,299.794,281.987,300.787,278.797,299.72z"/>
	</g>
	<g id="POLYLINE_1770_">
		<path fill="none" stroke="#FB8604" stroke-width="2" stroke-linecap="round" stroke-linejoin="round" stroke-miterlimit="10" d="
			M299.023,342.901c-2.625-2.037-6.976-3.625-9.857-1.186c-2.815,2.383-2.959,6.86-2.288,10.179
			c0.784,3.884,2.982,8.242,6.596,10.212c4.8,2.615,8.836-2.625,9.95-6.842C304.633,350.679,302.687,345.806,299.023,342.901z"/>
	</g>
	<g id="POLYLINE_1769_">
		<path fill="none" stroke="#FB8604" stroke-width="2" stroke-linecap="round" stroke-linejoin="round" stroke-miterlimit="10" d="
			M274.675,332.507c-3.64-0.455-4.221-5.945-3.846-8.836c0.46-3.54,2.558-6.692,5.231-8.981c2.194-1.879,6.019-4.253,8.853-2.335
			c1.296,0.877,2.104,2.421,2.461,3.914c0.629,2.634-0.881,4.739-2.29,6.814c-1.411,2.078-2.922,4.113-4.652,5.939
			C279.03,330.502,276.939,332.673,274.675,332.507z"/>
	</g>
	<g id="POLYLINE_1768_">
		<path fill="none" stroke="#FB8604" stroke-width="2" stroke-linecap="round" stroke-linejoin="round" stroke-miterlimit="10" d="
			M334.066,310.76c-2.977,1.19-6.442,1.138-9.478,0.191c-4.64-1.448-10.039-6.73-7.272-11.948c2.234-4.214,8.762-5.237,13.048-5.556
			c3.537-0.263,10.917-0.481,11.574,4.351c0.325,2.393-0.834,5.06-1.913,7.13C338.707,307.456,336.755,309.67,334.066,310.76z"/>
	</g>
	<g id="POLYLINE_1767_">
		<path fill="none" stroke="#FB8604" stroke-width="2" stroke-linecap="round" stroke-linejoin="round" stroke-miterlimit="10" d="
			M344.361,329.178c-2.492-1.319-4.372-3.762-4.529-6.642c-0.146-2.667,1.339-5.035,3.279-6.742
			c3.279-2.886,8.956-4.852,12.804-1.891c2.581,1.986,3.678,5.751,3.527,8.904c-0.163,3.412-2.083,6.038-5.368,7.094
			C350.978,330.895,347.264,330.671,344.361,329.178z"/>
	</g>
	<g id="POLYLINE_1766_">
		<path fill="none" stroke="#FB8604" stroke-width="2" stroke-linecap="round" stroke-linejoin="round" stroke-miterlimit="10" d="
			M312.543,337.264c-3.211,1.793-7.135-1.778-8.741-4.323c-1.722-2.729-2.259-6.612,0.476-8.871
			c2.168-1.791,6.188-2.805,8.891-1.805c2.659,0.984,2.776,4.351,2.643,6.761C315.665,331.717,315.031,335.724,312.543,337.264z"/>
	</g>
	<g id="POLYLINE_1765_">
		<path fill="none" stroke="#FB8604" stroke-width="2" stroke-linecap="round" stroke-linejoin="round" stroke-miterlimit="10" d="
			M363.217,370.462c-1.665-2.04-4.113-2.931-6.59-1.704c-2.268,1.124-3.902,3.417-5.148,5.546
			c-2.38,4.069-4.913,10.424-2.897,15.105c1.556,3.612,6.103,4.208,9.517,3.412c4.163-0.97,7.061-3.963,7.961-8.134
			C367.051,380.092,366.203,374.218,363.217,370.462z"/>
	</g>
	<g id="POLYLINE_1764_">
		<path fill="none" stroke="#FB8604" stroke-width="2" stroke-linecap="round" stroke-linejoin="round" stroke-miterlimit="10" d="
			M349.548,365.763c-4.071,3.931-11.15,5.197-16.082,2.137c-5.281-3.276-6.303-10.7-4.926-16.276
			c1.43-5.79,5.784-11.294,11.256-13.765c5.913-2.67,12.362,0.016,14.162,6.324c1.771,6.204,0.896,14.361-2.833,19.705
			C350.904,364.204,349.946,365.763,349.548,365.763z"/>
	</g>
	<g id="POLYLINE_1763_">
		<path fill="none" stroke="#FB8604" stroke-width="2" stroke-linecap="round" stroke-linejoin="round" stroke-miterlimit="10" d="
			M367.773,356.793c-3.611-0.878-3.844-5.684-3.29-8.655c0.628-3.36,2.699-7.191,5.96-8.646c3.793-1.692,8.35,1.604,9.935,4.965
			c1.65,3.497-0.549,6.64-3.204,8.828C374.784,355.255,371.023,357.482,367.773,356.793z"/>
	</g>
	<g id="POLYLINE_1762_">
		<path fill="none" stroke="#FB8604" stroke-width="2" stroke-linecap="round" stroke-linejoin="round" stroke-miterlimit="10" d="
			M394.969,363.912c-2.76-4.222-8.903-1.682-11.988,0.816c-3.25,2.631-5.783,6.456-6.904,10.489
			c-1.253,4.509,0.219,9.11,4.774,10.973c5.989,2.45,10.528-2.196,12.786-7.294C395.44,374.824,397.545,368.098,394.969,363.912z"/>
	</g>
	<g id="POLYLINE_1761_">
		<path fill="none" stroke="#FB8604" stroke-width="2" stroke-linecap="round" stroke-linejoin="round" stroke-miterlimit="10" d="
			M424.586,340.418c-1.643-4.572-8.205-6.374-12.057-3.34c-4.415,3.477-6.025,10.623-6.485,15.903
			c-0.431,4.945,0.081,11.062,3.491,14.985c2.988,3.438,7.811,3.037,10.83-0.184c2.023-2.158,3.101-5.105,3.851-7.919
			c1.456-5.463,1.999-11.649,0.943-17.233C425.017,341.88,424.837,341.138,424.586,340.418z"/>
	</g>
	<g id="POLYLINE_1760_">
		<path fill="none" stroke="#FB8604" stroke-width="2" stroke-linecap="round" stroke-linejoin="round" stroke-miterlimit="10" d="
			M390.271,317.351c-2.398-5.478-9.625-6.21-14.71-4.533c-2.98,0.982-5.106,3.051-5.274,6.308c-0.087,1.685,0.283,3.387,0.867,4.96
			c1.776,4.785,5.784,8.724,10.391,10.831c1.784,0.816,4.172,1.682,6.003,0.54c1.597-0.996,2.325-3.092,2.822-4.813
			C391.553,326.533,391.97,321.379,390.271,317.351z"/>
	</g>
	<g id="POLYLINE_1759_">
		<path fill="none" stroke="#FB8604" stroke-width="2" stroke-linecap="round" stroke-linejoin="round" stroke-miterlimit="10" d="
			M629.716,285.126c-4.949,1.158-9.547,2.656-13.597,5.825c-4.825,3.774-8.825,8.758-11.908,14.025
			c-1.533,2.619-2.845,5.378-3.781,8.268"/>
	</g>
	<g id="POLYLINE_1758_">
		<path fill="none" stroke="#FB8604" stroke-width="2" stroke-linecap="round" stroke-linejoin="round" stroke-miterlimit="10" d="
			M626.171,282.048c-7.508-0.071-14.594,0.605-21.505,3.729c-6.836,3.09-13.134,7.518-18.639,12.592
			c-3.203,2.953-6.162,6.192-8.66,9.767"/>
	</g>
	<g id="POLYLINE_1757_">
		<path fill="none" stroke="#FB8604" stroke-width="2" stroke-linecap="round" stroke-linejoin="round" stroke-miterlimit="10" d="
			M623.679,278.238c-4.989-0.041-9.948-0.111-14.878,0.781c-4.73,0.856-9.323,2.376-13.795,4.113
			c-9.284,3.606-18.234,8.284-26.448,13.92c-4.434,3.043-8.633,6.407-12.443,10.205"/>
	</g>
</g>
<g id="AG-ANIMALS">
	<g id="POLYLINE_265_">
		
			<path fill="none" stroke="#FB8604" stroke-width="2.75" stroke-linecap="round" stroke-linejoin="round" stroke-miterlimit="10" d="
			M168.396,332.948c-0.98,4.84-1.763,9.661-1.221,14.611c0.518,4.733,2.011,9.339,3.778,13.74c1.789,4.456,3.869,9.119,6.871,12.904
			c1.564,1.971,3.905,2.978,5.475,4.916c1.604,1.981,2.78,4.34,4.039,6.543c2.232,3.905,4.31,7.703,8.261,10.08
			c4.215,2.536,6.835,6.196,9.388,10.334c2.272,3.683,4.44,7.007,3.856,11.489c-0.349,2.681-1.075,5.387-0.624,8.104
			c0.446,2.69,2.176,4.87,3.809,6.962c1.435,1.838,3.465,3.975,3.334,6.466c-0.098,1.855-1.207,3.464-1.569,5.259
			c-0.456,2.263,0.501,4.49,1.117,6.627c0.521,1.807,0.807,3.602,0.643,5.481c-0.333,3.818-1.85,7.464-1.87,11.321
			c-0.024,4.563,2.166,8.877,1.675,13.464c-0.516,4.827-2.568,9.322-2.977,14.199c-0.417,4.975-0.103,10.011,0.286,14.978
			c0.904,11.533,1.834,23.094,3.378,34.563c1.47,10.92,3.676,21.715,6.838,32.274c1.558,5.203,3.293,10.362,5.334,15.396
			c1.745,4.304,3.729,10.389,8.384,12.317c3.911,1.62,8.614,1.445,12.761,1.453c6.144,0.012,12.289-0.058,18.433-0.118
			c3.95-0.039,9.338-0.043,9.351-5.229c0.006-2.337-0.659-4.654-1.24-6.9c-0.606-2.343-1.038-4.929-2.17-7.094
			c-2.531-4.843-8.608-3.027-12.943-4.352c-2.374-0.726-2.446-3.131-2.951-5.22c-0.622-2.576-1.48-5.097-2.273-7.623
			c-2.789-8.884-6.128-18.246-4.111-27.652c1.083-5.053,3.541-9.602,5.879-14.159c2.359-4.598,4.268-9.124,5.727-14.085
			c1.238-4.209,2.711-7.997,5.056-11.722c2.711-4.309,5.074-8.418,6.772-13.236c1.718-4.875,3.496-9.49,6.272-13.877
			c2.509-3.967,5.188-7.879,6.484-12.442c1.27-4.471,1.256-9.534,3.655-13.618c1.232-2.097,2.831-3.94,3.921-6.127
			c1.134-2.276,1.802-4.763,2.373-7.231c1.292-5.576,2.066-11.268,3.083-16.896c0.87-4.818,2.222-9.43,3.798-14.059
			c1.486-4.363,2.658-8.578,2.586-13.224c-0.081-5.131-1.192-10.249-2.87-15.084c-1.691-4.875-4.054-9.511-7.035-13.724"/>
	</g>
	<g id="POLYLINE_264_">
		
			<path fill="none" stroke="#FB8604" stroke-width="2.75" stroke-linecap="round" stroke-linejoin="round" stroke-miterlimit="10" d="
			M554.838,282.446c10.973,3.822,21.96,6.495,33.503,7.871c6.139,0.732,12.262,1.44,18.349,2.529
			c6.088,1.09,12.361,2.686,18.575,2.85c2.385,0.063,4.985-0.132,6.997-1.539c2.048-1.432,3.21-3.782,4.161-6.019"/>
	</g>
	<g id="POLYLINE_263_">
		
			<path fill="none" stroke="#FB8604" stroke-width="2.75" stroke-linecap="round" stroke-linejoin="round" stroke-miterlimit="10" d="
			M614.812,276.604c0.309,2.281,0.803,4.631,2.085,6.584c1.453,2.213,3.843,3.466,6.319,4.217c4.54,1.377,10.11,1.714,14.683,0.389
			c3.397-0.984,4.639-3.175,5.03-6.595"/>
	</g>
	<g id="POLYLINE_262_">
		
			<path fill="none" stroke="#FB8604" stroke-width="2.75" stroke-linecap="round" stroke-linejoin="round" stroke-miterlimit="10" d="
			M597.126,182.64c4.6-3.423,9.642-6.08,14.686-8.778c2.232-1.194,4.491-2.369,6.843-3.311c1.606-0.643,3.922-1.642,5.65-1.042
			c3.757,1.304,0.491,9.764-0.288,12.157c-1.7,5.221-3.879,10.291-5.343,15.588c-1.242,4.493-1.568,8.787,1.035,12.868
			c2.886,4.525,6.933,8.228,10.056,12.591c3.106,4.339,5.184,9.212,6.372,14.405c1.142,4.99,0.956,10.226,2.355,15.149
			c1.266,4.454,4.15,8.177,6.298,12.218c0.891,1.677,1.72,3.453,2.051,5.337c0.504,2.868-0.436,5.635-1.825,8.112
			c-0.632,1.128-1.352,2.203-2.086,3.266"/>
	</g>
	<g id="POLYLINE_261_">
		
			<path fill="none" stroke="#FB8604" stroke-width="2.75" stroke-linecap="round" stroke-linejoin="round" stroke-miterlimit="10" d="
			M191.973,392.85c-0.189,8.498-0.319,16.997-1.007,25.473c-0.668,8.232-2.003,16.36-3.73,24.431
			c-1.877,8.77-4.194,17.45-6.368,26.149c-1.94,7.763-3.845,15.525-5.41,23.375c-1.56,7.827-2.439,15.702-3.087,23.648
			c-0.692,8.497-0.954,17.276-3.393,25.504c-1.007,3.396-2.409,6.743-4.404,9.683c-1.513,2.23-3.997,5.29-7.039,4.865
			c-2.939-0.411-4.859-3.741-6.033-6.129c-1.481-3.012-2.438-6.283-3.109-9.563c-1.559-7.619-1.365-15.496-0.638-23.201
			c0.823-8.723,2.387-17.358,3.806-25.997c1.334-8.129,2.572-16.247,3.363-24.451c0.772-8.017,1.165-16.073,1.272-24.126
			c0.109-8.206-0.031-16.427-0.37-24.627c-0.322-7.781-0.723-15.554-1.135-23.33c-0.583-10.99-1.165-21.98-1.748-32.97
			c-0.37-6.979-0.651-13.978-0.701-20.968c-0.059-8.202,0.182-16.463,1.734-24.539c1.44-7.493,4.18-14.704,8.453-21.048
			c4.201-6.238,9.722-11.483,15.885-15.759c6.403-4.442,13.454-7.914,20.636-10.899c7.899-3.283,16.04-5.956,24.275-8.258
			c7.85-2.195,15.831-4.047,23.873-5.385c8.015-1.334,16.109-2.053,24.238-1.895c8.181,0.159,16.33,1.175,24.396,2.505
			c8.865,1.461,17.703,3.078,26.575,4.502c7.859,1.262,15.763,2.123,23.725,2.31c8.488,0.199,16.986-0.129,25.469,0.292
			c8.252,0.409,16.379,1.676,24.465,3.333c9.067,1.858,18.065,4.08,27.084,6.151c7.101,1.63,14.24,2.978,21.531,3.327
			c4.156,0.198,8.36,0.195,12.445,1.082c3.835,0.833,7.502,2.308,11.256,3.427c6.597,1.966,13.011,2.265,19.599,0.134
			c6.976-2.256,13.336-6.37,18.807-11.192c5.76-5.077,10.632-11.109,14.624-17.658c4.327-7.098,7.366-14.769,10.46-22.455
			c3.031-7.529,6.176-15.109,11.25-21.531c4.902-6.203,11.212-11.109,17.647-15.618c6.86-4.807,13.873-9.422,20.867-14.031
			c3.656-2.409,13.766-9.914,15.649-1.906c0.734,3.12,0.01,6.534-0.371,9.647c-0.411,3.349-0.707,6.748-0.095,10.093
			c1.196,6.532,5.196,12.305,9.647,17.075"/>
	</g>
	<g id="POLYLINE_224_">
		
			<path fill="none" stroke="#FB8604" stroke-width="2.75" stroke-linecap="round" stroke-linejoin="round" stroke-miterlimit="10" d="
			M558.944,399.178c-3.574,8.013-7.185,15.906-11.422,23.594c-4.566,8.286-9.336,16.516-13.114,25.203
			c-3.491,8.028-5.53,16.365-6.365,25.069c-0.818,8.532-0.845,17.14-1.046,25.702c-0.224,9.532-0.266,19.089-0.912,28.606
			c-0.616,9.076-2.202,18.059-2.77,27.134c-0.254,4.054-0.26,8.137,0.158,12.181c0.323,3.125,0.79,6.701,2.506,9.423
			c2.505,3.974,7.496,3.271,11.528,3.669c3.187,0.315,6.203,1.385,7.957,4.242c2.669,4.347,2.691,11.105,1.244,15.861
			c-1.185,3.893-4.151,5.819-8.08,6.214c-4.315,0.434-8.765,0.297-13.099,0.242c-1.875-0.024-3.744-0.12-5.612-0.285"/>
	</g>
	<g id="POLYLINE_223_">
		
			<path fill="none" stroke="#FB8604" stroke-width="2.75" stroke-linecap="round" stroke-linejoin="round" stroke-miterlimit="10" d="
			M459.198,371.15c-1.962,10.167-2.995,20.21-2.188,30.561c0.824,10.574,2.885,20.999,4.899,31.396
			c0.984,5.079,1.972,10.149,2.656,15.279c0.73,5.474,1.182,10.98,1.702,16.476c0.985,10.408,2.007,20.797,3.844,31.096
			c1.89,10.6,4.317,21.131,5.709,31.814c1.396,10.718,1.21,21.536,2.054,32.296c0.816,10.398,2.393,20.883,5.147,30.954
			c1.136,4.155,2.402,9.107,5.433,12.331c2.843,3.024,7.46,2.743,11.278,2.902c5.158,0.215,10.325,0.339,15.485,0.112
			c4.399-0.194,9.848-0.301,13.761-2.586c3.663-2.138,3.787-6.491,3.385-10.277c-0.397-3.741-1.209-8.983-4.013-11.78
			c-1.616-1.612-3.841-1.791-6.014-1.814c-2.243-0.023-5.325,0.474-7.31-0.831c-1.704-1.12-1.919-3.464-1.988-5.319
			c-0.093-2.489,0.089-5.002,0.172-7.488c0.343-10.273,0.413-20.523,0.168-30.8c-0.271-11.419-0.68-22.849-0.637-34.273
			c0.04-10.7,0.243-21.446,1.727-32.06c1.415-10.113,4.358-19.706,9.756-28.43c5.458-8.82,12.521-16.523,19.445-24.196
			c7.415-8.216,15.008-16.336,21.439-25.369c6.071-8.528,10.694-17.72,13.595-27.789c2.979-10.34,4.34-21.008,5.903-31.625
			c1.441-9.789,4.051-19.039,8.378-27.96c2.021-4.167,4.322-8.189,6.89-12.042"/>
	</g>
	<g id="POLYLINE_222_">
		
			<path fill="none" stroke="#FB8604" stroke-width="2.75" stroke-linecap="round" stroke-linejoin="round" stroke-miterlimit="10" d="
			M306.641,397.237c3.199,3.037,6.655,5.919,10.749,7.664c4.129,1.76,8.549,1.838,12.971,1.84c5.227,0.002,10.251,0.2,15.351,1.466
			c5.385,1.337,10.613,3.266,16.047,4.411c5.353,1.128,10.777,1.07,16.219,1.082c5.316,0.012,10.557,0.275,15.798,1.221
			c5.593,1.009,11.101,2.426,16.645,3.668c4.982,1.115,9.86,1.613,14.945,1.926c5.655,0.348,10.875,2.045,16.259,3.694
			c5.039,1.543,10.125,2.691,15.327,3.533c1.341,0.217,2.684,0.42,4.027,0.628"/>
	</g>
</g>
<g id="AG-OUTLINE">
	<g id="POLYLINE_47_">
		
			<path fill="none" stroke="#FB8604" stroke-width="3.5" stroke-linecap="round" stroke-linejoin="round" stroke-miterlimit="10" d="
			M642.93,281.2c2.979-4.317,5.19-8.823,3.125-14.034c-1.79-4.516-5.035-8.294-6.844-12.798c-1.775-4.418-1.683-9.229-2.42-13.867
			c-0.806-5.074-2.337-10.092-4.92-14.554c-2.793-4.825-6.722-8.807-10.188-13.13c-3.022-3.769-4.606-7.507-3.746-12.384
			c0.963-5.457,3.246-10.727,5.106-15.914c0.804-2.242,1.561-4.512,2.144-6.823c0.496-1.967,1.151-4.442,0.597-6.452
			c-1.191-4.318-8.593-0.118-10.837,0.996c-4.994,2.479-10.031,5.11-14.688,8.185c-1.068,0.705-2.105,1.449-3.132,2.213
			c0.331-2.798,0.858-6.153-0.524-8.771c-1.535-2.908-4.734-2.091-7.208-1.008c-2.966,1.299-5.711,3.118-8.399,4.908
			c-4.214,2.806-8.41,5.638-12.615,8.457c-5.992,4.017-12.039,7.989-17.496,12.728c-5.972,5.187-10.676,11.253-14.206,18.33
			c-3.627,7.273-6.21,15.009-9.48,22.441c-3.024,6.872-6.801,13.436-11.442,19.346c-4.598,5.856-10.06,11.067-16.299,15.149
			c-5.314,3.477-11.339,6.274-17.695,7.063c-7.327,0.909-14.088-1.772-20.947-3.926c-7.213-2.266-14.677-1.732-22.106-2.555
			c-7.28-0.806-14.422-2.599-21.55-4.223c-8.694-1.98-17.365-4.134-26.132-5.774c-7.665-1.434-15.379-2.281-23.174-2.504
			c-8.159-0.234-16.325,0.069-24.483-0.235c-7.794-0.29-15.51-1.335-23.202-2.57c-8.187-1.314-16.339-2.831-24.521-4.173
			c-7.817-1.282-15.703-2.27-23.628-2.474c-7.717-0.199-15.447,0.366-23.069,1.582c-8.052,1.284-16.012,3.07-23.886,5.184
			c-7.699,2.067-15.316,4.492-22.741,7.397c-7.163,2.802-14.21,6.036-20.745,10.111c-6.049,3.772-11.629,8.351-16.156,13.881
			c-4.871,5.951-8.346,12.89-10.349,20.307c-1.91,7.075-2.584,14.44-2.768,21.746c-0.193,7.655,0.023,15.327,0.376,22.975
			c0.397,8.603,0.902,17.203,1.353,25.803c0.466,8.879,0.967,17.756,1.397,26.637c0.367,7.585,0.644,15.182,0.741,22.776
			c0.105,8.185,0.032,16.369-0.431,24.544c-0.449,7.916-1.215,15.819-2.343,23.668c-1.224,8.522-2.768,16.995-4.101,25.5
			c-1.159,7.399-2.065,14.901-2.081,22.4c-0.014,6.788,0.763,13.723,3.238,20.088c1.103,2.837,2.674,6.294,5.419,7.914
			c2.645,1.562,5.261-0.143,7.083-2.163c4.361-4.833,6.346-11.683,7.445-17.956c1.386-7.905,1.637-15.99,2.339-23.971
			c0.693-7.87,1.936-15.673,3.613-23.393c1.812-8.344,3.931-16.611,5.995-24.895c1.909-7.666,3.903-15.317,5.488-23.058
			c1.627-7.947,2.742-15.97,3.321-24.062c0.548-7.659,0.628-15.342,0.816-23.016c2.329,2.631,5.76,3.749,8.126,6.361
			c2.8,3.092,5.036,6.869,7.06,10.498c1.628,2.918,2.052,5.532,1.54,8.83c-0.326,2.095-0.763,4.21-0.577,6.341
			c0.209,2.395,1.37,4.382,2.772,6.276c2.192,2.962,5.377,5.823,4.063,9.798c-0.514,1.557-1.309,3.026-1.295,4.705
			c0.016,1.931,0.826,3.794,1.335,5.626c1.716,6.181-1.789,11.838-1.249,18.015c0.359,4.102,2.089,8.019,1.582,12.188
			c-0.492,4.048-2.173,7.854-2.726,11.903c-1.208,8.839,0.147,18.036,0.898,26.86c0.777,9.139,1.617,18.263,2.91,27.346
			c1.294,9.09,3.162,18.094,5.673,26.927c2.409,8.474,5.093,17.251,9.29,25.035c0.996,1.848,2.157,3.693,3.997,4.804
			c1.316,0.795,2.836,1.203,4.338,1.472c3.775,0.677,7.694,0.608,11.514,0.594c5.389-0.019,10.779-0.078,16.168-0.117
			c2.739-0.02,7.345,0.319,9.063-2.285c1.113-1.687,0.706-4.104,0.361-5.972c-0.416-2.252-1.059-4.465-1.636-6.679
			c-0.963-3.695-2.091-6.785-6.211-7.623c-2.085-0.424-4.226-0.423-6.332-0.68c-1.748-0.213-3.34-0.567-4.018-2.356
			c-0.747-1.973-1.003-4.194-1.613-6.225c-0.733-2.441-1.519-4.866-2.283-7.297c-2.272-7.236-4.65-14.838-3.681-22.51
			c1.045-8.274,5.958-15.138,9.247-22.602c1.701-3.86,2.605-7.96,3.95-11.944c1.151-3.411,2.949-6.4,4.869-9.425
			c2.157-3.399,4.023-6.778,5.395-10.575c1.471-4.072,2.748-8.212,4.872-12.008c2.111-3.773,4.761-7.235,6.646-11.136
			c1.619-3.352,2.293-6.949,2.981-10.581c0.337-1.777,0.667-3.581,1.313-5.277c0.708-1.859,1.898-3.423,3.019-5.045
			c2.386-3.45,3.588-7.253,4.478-11.317c1.9-8.672,2.631-17.588,5.348-26.072c1.217-3.8,2.773-7.525,3.481-11.469
			c3.787,3.595,8.002,7.019,13.098,8.51c5.767,1.687,11.949,0.727,17.861,1.13c6.603,0.451,12.856,2.707,19.176,4.492
			c6.446,1.821,12.74,2.313,19.407,2.328c6.729,0.015,13.262,0.344,19.879,1.658c6.733,1.337,13.352,3.293,20.135,4.372
			c6.23,0.991,12.447,0.692,18.577,2.403c6.665,1.86,13.097,4.035,19.933,5.234c1.74,0.305,3.485,0.573,5.23,0.844
			c0.825,0.128,0.839-0.004,1.124,0.593c0.364,0.761,0.377,1.935,0.538,2.758c0.692,3.549,1.422,7.093,2.024,10.659
			c1.138,6.742,1.773,13.519,2.421,20.321c0.672,7.051,1.272,14.115,2.186,21.14c0.875,6.721,2.1,13.352,3.348,20.011
			c1.33,7.095,2.793,14.18,3.853,21.322c0.992,6.685,1.413,13.398,1.689,20.145c0.293,7.167,0.57,14.32,1.392,21.451
			c0.771,6.695,1.864,13.372,3.385,19.939c0.722,3.118,1.534,6.226,2.584,9.251c0.911,2.625,1.998,5.404,3.903,7.479
			c1.635,1.781,3.769,2.405,6.11,2.66c3.279,0.358,6.619,0.398,9.915,0.48c3.518,0.087,7.037,0.106,10.553-0.041
			c1.645-0.069,3.314-0.336,4.955-0.345c1.45-0.007,2.926,0.221,4.38,0.262c3.664,0.104,7.339-0.009,11.003-0.066
			c2.473-0.039,5.163-0.056,7.425-1.189c4.506-2.258,4.989-8.478,4.779-12.914c-0.2-4.236-1.254-9.153-5.409-11.212
			c-5.118-2.536-12.989,0.652-16.304-5.139c-2.588-4.52-2.633-10.657-2.649-15.714c-0.022-7.256,1.052-14.456,1.904-21.646
			c0.785-6.616,1.241-13.255,1.482-19.912c0.279-7.673,0.364-15.358,0.544-23.034c0.143-6.096,0.24-12.198,0.643-18.283
			c0.44-6.645,1.295-13.247,3.176-19.652c1.893-6.444,4.741-12.55,7.802-18.51c3.194-6.221,6.685-12.282,10.023-18.426
			c3.562-6.555,6.602-13.299,9.639-20.108c1.194-2.676,3.463-4.878,5.209-7.23c1.983-2.67,3.866-5.411,5.62-8.237
			c3.283-5.291,5.956-10.913,7.981-16.8c2.175-6.321,3.659-12.85,4.838-19.422c1.211-6.749,1.992-13.565,3.109-20.329
			c1.056-6.394,2.7-12.623,5.156-18.627c2.402-5.873,5.327-11.551,8.783-16.875c0.491-0.756,0.547-1.171,1.425-1.149
			c0.844,0.021,1.753,0.263,2.593,0.4c1.368,0.223,2.731,0.466,4.095,0.711c3.804,0.681,7.603,1.42,11.419,2.029
			c4.739,0.756,11.332,2.032,15.008-1.988c0.735-0.804,1.321-1.732,1.828-2.693c0.272-0.516,0.461-1.111,0.766-1.603
			c0.462-0.745,1.035-0.674,1.903-0.94c1.281-0.392,2.577-0.987,3.43-2.057c0.558-0.7,0.875-1.544,1.082-2.407
			C642.643,283.113,642.939,281.2,642.93,281.2z"/>
	</g>
</g>
<g id="N-DIMENSIONS" display="none">
</g>
</svg>
