<?xml version="1.0" encoding="utf-8"?>
<!-- Generator: Adobe Illustrator 25.2.1, SVG Export Plug-In . SVG Version: 6.00 Build 0)  -->
<!DOCTYPE svg PUBLIC "-//W3C//DTD SVG 1.1//EN" "http://www.w3.org/Graphics/SVG/1.1/DTD/svg11.dtd" [
	<!ENTITY ns_extend "http://ns.adobe.com/Extensibility/1.0/">
	<!ENTITY ns_ai "http://ns.adobe.com/AdobeIllustrator/10.0/">
	<!ENTITY ns_graphs "http://ns.adobe.com/Graphs/1.0/">
	<!ENTITY ns_vars "http://ns.adobe.com/Variables/1.0/">
	<!ENTITY ns_imrep "http://ns.adobe.com/ImageReplacement/1.0/">
	<!ENTITY ns_sfw "http://ns.adobe.com/SaveForWeb/1.0/">
	<!ENTITY ns_custom "http://ns.adobe.com/GenericCustomNamespace/1.0/">
	<!ENTITY ns_adobe_xpath "http://ns.adobe.com/XPath/1.0/">
]>
<svg version="1.1" xmlns:x="&ns_extend;" xmlns:i="&ns_ai;" xmlns:graph="&ns_graphs;"
	 xmlns="http://www.w3.org/2000/svg" xmlns:xlink="http://www.w3.org/1999/xlink" x="0px" y="0px" width="750px" height="750px"
	 viewBox="0 0 750 750" enable-background="new 0 0 750 750" xml:space="preserve">
<metadata>
	<sfw  xmlns="&ns_sfw;">
		<slices></slices>
		<sliceSourceBounds  bottomLeftOrigin="true" height="9956.004" width="12861.98" x="-7334.191" y="-2001.004">
			</sliceSourceBounds>
	</sfw>
</metadata>
<g id="FILL-BACKGROUND">
	<rect x="0" fill="#FFFFFF" width="750" height="750"/>
</g>
<g id="N-TEXT">
</g>
<g id="AG-DIAGRAM">
	<g>
		<g>
			
				<line fill="none" stroke="#FB8604" stroke-width="3.25" stroke-linecap="round" stroke-linejoin="round" x1="221.5" y1="577.5" x2="223.5" y2="577.5"/>
			
				<line fill="none" stroke="#FB8604" stroke-width="3.25" stroke-linecap="round" stroke-linejoin="round" stroke-dasharray="4.051,7.0893" x1="230.589" y1="577.5" x2="616.956" y2="577.5"/>
			
				<line fill="none" stroke="#FB8604" stroke-width="3.25" stroke-linecap="round" stroke-linejoin="round" x1="620.5" y1="577.5" x2="622.5" y2="577.5"/>
		</g>
	</g>
</g>
<g id="AG-DETAILS">
	<g id="POLYLINE_444_">
		<path fill="none" stroke="#FB8604" stroke-width="2" stroke-linecap="round" stroke-linejoin="round" stroke-miterlimit="10" d="
			M630.412,414.944c3.958,2.171,7.911,4.335,11.443,7.174c3.261,2.621,6.117,5.69,8.737,8.942
			c5.604,6.954,10.284,14.75,13.922,22.902c2.06,4.615,3.766,9.394,4.885,14.326"/>
	</g>
	<g id="POLYLINE_437_">
		<path fill="none" stroke="#FB8604" stroke-width="2" stroke-linecap="round" stroke-linejoin="round" stroke-miterlimit="10" d="
			M630.647,410.002c7.417,0.404,14.733,1.508,21.795,3.868c6.92,2.313,13.492,5.668,19.573,9.686
			c3.582,2.367,6.971,4.999,10.171,7.861"/>
	</g>
	<g id="POLYLINE_436_">
		<path fill="none" stroke="#FB8604" stroke-width="2" stroke-linecap="round" stroke-linejoin="round" stroke-miterlimit="10" d="
			M627.98,403.412c8.172-0.945,16.315-1.477,24.544-1.082c8.694,0.417,17.361,1.5,25.908,3.134c4.647,0.888,9.248,1.98,13.796,3.283
			"/>
	</g>
	<g id="POLYLINE_411_">
		<path fill="none" stroke="#FB8604" stroke-width="2" stroke-linecap="round" stroke-linejoin="round" stroke-miterlimit="10" d="
			M593.15,404.903c-7.518,0.154-14.909-0.331-22.2-2.275c-7.492-1.997-14.74-5.027-21.545-8.728
			c-3.983-2.166-7.792-4.612-11.402-7.354"/>
	</g>
	<g id="POLYLINE_404_">
		<path fill="none" stroke="#FB8604" stroke-width="2" stroke-linecap="round" stroke-linejoin="round" stroke-miterlimit="10" d="
			M596.601,412.198c-5.364,5.642-10.216,11.678-14.142,18.418c-3.807,6.536-6.87,13.525-9.245,20.704
			c-1.263,3.818-2.304,7.698-3.128,11.634"/>
	</g>
	<g id="POLYLINE_403_">
		<path fill="none" stroke="#FB8604" stroke-width="2" stroke-linecap="round" stroke-linejoin="round" stroke-miterlimit="10" d="
			M593.699,408.041c-8.256,2.192-15.93,5.024-23.318,9.353c-7.372,4.319-14.36,9.369-20.794,14.991
			c-3.615,3.158-7.046,6.527-10.172,10.173"/>
	</g>
	<g id="POLYLINE_402_">
		<path fill="none" stroke="#FB8604" stroke-width="2" stroke-linecap="round" stroke-linejoin="round" stroke-miterlimit="10" d="
			M552.634,377.715c-0.916,1.396-2.872,4.799-0.842,6.108c1.705,1.099,4.471,0.161,6.144-0.602
			c4.721-2.151,7.94-6.554,10.152-11.097c2.19-4.497,3.941-9.377,7.079-13.339c2.988-3.772,7.259-5.753,11.488-7.811
			c1.981-0.964,4.732-2.07,5.103-4.528c0.333-2.206-0.884-4.902-2.372-6.465"/>
	</g>
	<g id="POLYLINE_401_">
		<path fill="none" stroke="#FB8604" stroke-width="2" stroke-linecap="round" stroke-linejoin="round" stroke-miterlimit="10" d="
			M622.78,341.154c-0.395,2.041-0.965,4.513,0.204,6.413c1.657,2.694,5.89,3.48,8.527,4.813c3.362,1.699,5.353,4.46,7.15,7.678
			c1.833,3.283,3.728,6.41,6.229,9.24c2.426,2.746,5.133,4.982,8.333,6.769"/>
	</g>
	<g id="POLYLINE_400_">
		<path fill="none" stroke="#FB8604" stroke-width="2" stroke-linecap="round" stroke-linejoin="round" stroke-miterlimit="10" d="
			M586.117,413.423c-5.124-0.775-10.317-2.387-13.69-6.585c-3.284-4.087-4.832-9.865-4.281-15.054
			c0.599-5.646,4.402-9.452,8.493-12.999c2.297-1.992,4.61-3.946,6.642-6.216c2.146-2.397,4.06-4.991,6.107-7.471
			c3.634-4.403,7.899-7.927,13.31-9.908c4.904-1.795,10.504-2.45,15.514-0.697c5.997,2.098,9.758,6.894,12.968,12.118
			c3.434,5.588,8.846,9.201,12.86,14.293c3.378,4.286,5.112,9.599,5.044,15.053c-0.078,6.28-2.851,11.321-8.302,14.569
			c-1.073,0.639-2.19,1.193-3.317,1.73"/>
	</g>
</g>
<g id="AG-ANIMALS">
	<g id="POLYLINE_254_">
		
			<path fill="none" stroke="#FB8604" stroke-width="2.75" stroke-linecap="round" stroke-linejoin="round" stroke-miterlimit="10" d="
			M505.064,522.958c0.722,5.489,2.855,10.94,6.185,15.37c1.035,1.377,2.197,2.691,3.544,3.771c1.135,0.911,2.457,1.574,3.44,2.668
			c2.134,2.374,3.234,5.832,4.556,8.673c1.495,3.214,3.326,6.243,5.038,9.342c1.558,2.82,2.512,5.921,4.074,8.725
			c2.867,5.145,9.233,5.243,14.462,5.376c7.442,0.189,14.966,0.516,22.41,0.221c5.65-0.224,12.992-0.785,14.785-7.254
			c1.557-5.62,0.238-13.856-5.862-16.129c-2.858-1.065-5.923-0.698-8.897-0.569c-3.127,0.136-6.104-0.234-8.852-1.831
			c-5.54-3.221-7.51-9.274-7.776-15.342c-0.294-6.697,0.818-13.517,2.327-20.023c0.387-1.667,0.83-3.316,1.306-4.96"/>
	</g>
	<g id="POLYLINE_247_">
		
			<path fill="none" stroke="#FB8604" stroke-width="2.75" stroke-linecap="round" stroke-linejoin="round" stroke-miterlimit="10" d="
			M440.391,489.291c-4.256,3.509-8.422,7.688-9.21,13.399c-0.867,6.276,1.478,12.714,3.304,18.613
			c0.91,2.939,1.657,6.078,3.173,8.781c1.407,2.509,3.689,4.289,5.497,6.483c2.11,2.561,2.928,5.681,3.837,8.806
			c0.909,3.126,1.962,6.165,3.318,9.128c2.779,6.071,6.16,12.397,10.552,17.469c4.591,5.302,12.119,4.972,18.571,5.203
			c7.2,0.258,14.446,0.389,21.64-0.105c2.509-0.172,6.122-0.155,8.014-2.125c2.261-2.356,0.985-6.855,0.137-9.554
			c-0.849-2.703-2.008-5.866-4.303-7.692c-2.265-1.803-5.233-1.523-7.918-1.116c-2.38,0.361-7.326,2.12-8.972-0.448
			c-0.772-1.204-0.882-2.913-1.145-4.286c-0.369-1.925-0.783-3.841-1.168-5.763c-1.175-5.86-2.992-13.1,0.536-18.499
			c1.737-2.658,4.341-4.8,7.025-6.461c1.87-1.157,4.473-2.607,6.746-2.16c2.534,0.498,3.12,4.475,5.961,3.961
			c2.631-0.476,5.113-2.957,7.118-4.565c2.081-1.669,4.819-4.655,7.559-5.237c2.674-0.567,2.342,4.41,4.861,5.043
			c2.763,0.695,6.296-1.107,8.768-2.123c3.151-1.295,6.26-2.718,9.484-3.828c2.492-0.858,5.012-1.4,7.651-1.409
			c3.634-0.012,7.056,0.868,10.159-1.576c2.757-2.171,4.815-5.106,7.532-7.333c2.466-2.021,5.32-3.497,8.058-5.103
			c2.511-1.472,4.954-3.072,6.997-5.164c1.962-2.009,3.583-4.334,5.098-6.69c1.911-2.97,3.733-6.029,5.907-8.819
			c2.268-2.912,4.974-5.409,7.654-7.931c4.724-4.446,8.777-9.126,12.081-14.729c1.735-2.943,3.269-5.991,4.719-9.083"/>
	</g>
	<g id="POLYLINE_246_">
		
			<path fill="none" stroke="#FB8604" stroke-width="2.75" stroke-linecap="round" stroke-linejoin="round" stroke-miterlimit="10" d="
			M547.722,344.693c-4.788,1.501-9.56,3.309-13.308,6.767c-3.839,3.542-6.692,8.106-11.496,10.493
			c-4.246,2.109-9.136,2.765-13.793,3.292c-6.253,0.707-12.526,1.249-18.798,1.749c-11.626,0.927-23.331,1.387-34.991,0.984
			c-13.098-0.452-26.169-1.641-39.237-2.592c-11.463-0.834-22.935-1.222-34.426-1.33c-11.711-0.11-23.446,0.133-35.144,0.698
			c-11.972,0.578-23.954,1.277-35.868,2.627c-12.718,1.441-25.4,3.219-38.137,4.487c-5.706,0.568-11.445,0.963-17.181,1.006
			c-5.575,0.042-11.312-0.173-16.719-1.65c-10.938-2.989-17.243-12.573-22.671-21.836c-6.143-10.482-11.511-21.4-17.463-31.989
			c-5.921-10.534-12.953-20.209-20.164-29.879c-3.493-4.685-7.028-9.338-10.125-14.301c-2.768-4.436-5.378-9.211-6.528-14.355
			c-1.137-5.084,0-9.366,2.38-13.863c1.927-3.642,4.265-7.35,3.01-11.603c-1.336-4.53-4.702-8.164-6.327-12.585
			c-1.672-4.547-1.456-9.483-2.771-14.11c-1.381-4.86-5.097-8.382-8.571-11.843c-3.772-3.758-7.3-8.178-12.115-10.653
			c-8.483-4.361-19.22-0.702-26.468,4.498c-4.377,3.14-8.035,7.307-10.316,12.206c-2.087,4.484-2.822,9.381-2.878,14.292
			c-0.066,5.813,0.697,11.64,1.71,17.354c1.008,5.685,2.451,11.386,2.968,17.148c0.151,1.681,0.575,5.152-1.758,5.381
			c-2.456,0.241-5.284-1.894-7.501-2.736c-2.531-0.961-4.564-0.665-4.835,2.381c-0.197,2.21,0.355,4.536,0.933,6.651
			c2.952,10.808,9.069,20.781,15.433,29.886c7.01,10.028,14.85,19.431,22.276,29.146c1.052,1.376,9.019,11.091,5.667,12.205
			c-2.488,0.827-5.374-0.921-7.946-0.12c-2.396,0.746-2.023,3.651-1.574,5.613c1.128,4.929,3.793,9.589,6.392,13.868
			c3.056,5.031,6.513,9.829,10.319,14.32c7.222,8.524,15.96,14.982,25.629,20.48c5.145,2.925,10.409,5.727,15.052,9.429
			c4.591,3.661,8.585,7.992,12.749,12.113c1.837,1.818,3.739,3.573,5.78,5.161c2.359,1.835,4.918,3.456,7.094,5.516
			c3.86,3.654,3.946,8.01,3.402,12.997c-0.596,5.468-1.329,10.894-0.455,16.375c0.852,5.347,2.752,10.495,4.845,15.465
			c4.462,10.592,9.806,20.698,13.27,31.695c1.875,5.95,3.531,11.983,5.731,17.825c1.94,5.152,4.369,10.1,7.182,14.83
			c5.854,9.839,13.319,18.713,21.671,26.522c4.293,4.014,8.781,7.821,13.552,11.258c4.389,3.161,9.065,6.17,14.219,7.911
			c5.373,1.815,11.099,2.167,16.716,2.53c6.052,0.391,12.121,0.609,18.185,0.674c5.821,0.062,11.658-0.025,17.461-0.512
			c4.587-0.385,10.183-0.697,14.226-3.168c4.949-3.024,1.075-9.435-1.644-12.727c-3.029-3.668-7.628-4.754-12.071-5.743
			c-5.588-1.244-11.213-2.324-16.602-4.306c-2.647-0.974-5.235-2.125-7.726-3.448c-1.908-1.013-4.525-2.227-5.861-3.997
			c-1.691-2.241,3.778-1.777,4.845-1.832c1.093-0.057,2.501-0.056,3.466-0.65c0.968-0.596,1.027-1.622,1.22-2.642
			c0.834-4.403,7.606-5.633,11.265-4.084c2.335,0.988,2.792,3.349,3.629,5.483c0.894,2.279,2.358,2.518,4.537,1.712
			c2.445-0.905,4.688-2.35,6.975-3.58c1.585-0.853,3.793-2.286,5.649-1.583c1.019,0.386,1.793,1.192,2.868,1.487
			c1.08,0.296,2.255,0.238,3.358,0.135c2.686-0.25,5.336-0.959,7.915-1.724c5.484-1.628,10.867-3.722,16.076-6.083
			c4.995-2.264,10.041-5.104,15.483-6.144c5.277-1.008,10.456,0.41,15.699,0.937c1.807,0.181,3.715,0.299,5.49-0.172
			c2.069-0.548,3.35-2.295,5.27-3.054c2.176-0.861,3.722,1.923,5.091,3.133c2.093,1.851,3.079-0.603,3.785-2.428"/>
	</g>
	<g id="POLYLINE_120_">
		
			<path fill="none" stroke="#FB8604" stroke-width="2.75" stroke-linecap="round" stroke-linejoin="round" stroke-miterlimit="10" d="
			M599.707,421.461c2.447,3.445,6.062,6.354,10.319,7.055c4.338,0.714,8.751-0.8,12.233-3.358c2.148-1.578,4.005-3.557,5.453-5.795"
			/>
	</g>
	<g id="POLYLINE_119_">
		
			<path fill="none" stroke="#FB8604" stroke-width="2.75" stroke-linecap="round" stroke-linejoin="round" stroke-miterlimit="10" d="
			M595.535,396.745c-3.198,1.004-6.286,2.447-7.989,5.494c-1.316,2.354-1.822,5.177-1.791,7.853
			c0.088,7.389,5.601,13.862,13.48,11.516c2.769-0.824,5.328-2.289,7.733-3.861c2.573-1.682,5.071-3.836,8.343-3.089
			c3.874,0.885,7.167,3.446,11.034,4.421c4.49,1.131,8.356-0.24,10.33-4.616c2.565-5.687,1.491-11.968-2.883-16.435
			c-0.661-0.675-1.366-1.307-2.093-1.91"/>
	</g>
	<g id="POLYLINE_118_">
		
			<path fill="none" stroke="#FB8604" stroke-width="2.75" stroke-linecap="round" stroke-linejoin="round" stroke-miterlimit="10" d="
			M530.569,404.208c0.159,4.055,0.619,8.097,2.718,11.662c1.762,2.993,4.324,5.487,6.901,7.774c3.237,2.874,6.649,5.59,10.07,8.242
			c2.697,2.091,5.517,4.022,8.656,5.392c7.044,3.075,15.181,4.051,22.795,4.45c7.574,0.397,15.014-1.759,22.532-0.409
			c8.105,1.455,15.94,3.678,24.238,3.775c6.815,0.079,14.359-0.898,19.783-5.396c6.386-5.296,9.101-13.911,12.166-21.311
			c2.769-6.685,4.898-13.698,4.661-21.017c-0.102-3.146-0.69-6.324-2.312-9.061c-1.875-3.164-4.766-5.497-7.111-8.282
			c-4.45-5.285-3.433-11.764-2.128-18.046c1.727-8.319,4.389-16.391,6.684-24.561c1.408-5.011,5.085-16.481-3.168-17.677
			c-3.201-0.464-6.19,1.191-8.632,3.084c-3.282,2.545-6.106,5.661-8.989,8.633c-2.602,2.682-5.188,5.452-8.287,7.574
			c-1.42,0.972-2.981,1.852-4.671,2.247c-1.99,0.465-3.743-0.142-5.618-0.777c-3.055-1.034-6.178-0.958-9.36-0.701
			c-4.082,0.33-8.082,0.669-12.181,0.447c-4.283-0.232-8.484-0.289-12.771-0.175c-3.463,0.092-6.804-0.183-9.67-2.326
			c-3.235-2.418-5.629-5.828-8.395-8.731c-2.299-2.413-4.853-4.608-7.851-6.107c-2.16-1.08-4.555-1.874-6.977-2.028
			c-4.203-0.267-6.782,1.933-7.361,6.062c-1.033,7.366,1.226,15.184,2.082,22.452c0.214,1.818,0.402,3.667,0.304,5.5
			c-0.09,1.696-0.572,3.261-0.919,4.91c-0.743,3.535,1.908,6.369,3.798,9.081c0.994,1.425,2.309,3.083,2.529,4.856
			c0.189,1.522-0.748,2.713-1.447,3.972"/>
	</g>
</g>
<g id="AG-OUTLINE">
	<g id="POLYLINE_17_">
		
			<path fill="none" stroke="#FB8604" stroke-width="3.5" stroke-linecap="round" stroke-linejoin="round" stroke-miterlimit="10" d="
			M619.632,444.38c6.127,0.844,12.47,1.148,18.561-0.138c6.72-1.418,11.857-5.131,15.438-10.979
			c1.688-2.756,2.999-5.717,4.236-8.697c1.525-3.673,3.167-7.325,4.49-11.078c2.033-5.765,3.274-12.219,2.571-18.34
			c-0.307-2.67-1.079-5.234-2.561-7.492c-1.783-2.717-4.273-4.839-6.395-7.272c-4.954-5.678-3.672-12.759-2.194-19.544
			c1.654-7.591,4.013-15.007,6.168-22.464c0.888-3.074,1.758-6.199,2.147-9.382c0.323-2.645,0.357-5.795-1.76-7.757
			c-4.74-4.392-11.364,0.861-14.892,4.162c-5.01,4.687-9.284,10.579-15.19,14.216c-2.298,1.415-4.797,2.301-7.47,1.539
			c-1.419-0.404-2.763-1.012-4.221-1.283c-1.608-0.299-3.266-0.282-4.894-0.21c-3.467,0.154-6.91,0.665-10.383,0.697
			c-3.461,0.032-6.908-0.362-10.367-0.409c-3.345-0.045-6.723,0.367-10.058,0.037c-3.316-0.328-5.859-1.865-8.198-4.18
			c-4.549-4.501-8.11-9.912-13.981-12.869c-3.766-1.897-10.748-3.941-13.394,0.698c-1.281,2.247-1.249,5.196-1.159,7.697
			c0.129,3.562,0.674,7.091,1.192,10.612c0.071,0.484,0.66,2.331,0.404,2.748c-0.202,0.329-1.977,0.633-2.382,0.772
			c-1.329,0.456-2.646,0.952-3.93,1.524c-2.918,1.301-5.564,3.014-7.833,5.276c-2.394,2.385-4.436,5.12-7.032,7.301
			c-2.258,1.896-4.894,3.126-7.712,3.939c-6.765,1.952-14.053,2.2-21.027,2.849c-7.223,0.672-14.461,1.19-21.709,1.491
			c-7.489,0.31-14.978,0.338-22.469,0.071c-7.318-0.26-14.614-0.863-21.915-1.395c-8.01-0.583-16.017-1.174-24.033-1.674
			c-6.964-0.434-13.954-0.678-20.931-0.744c-7.903-0.075-15.798-0.061-23.699,0.107c-7.832,0.167-15.656,0.477-23.48,0.879
			c-7.415,0.38-14.821,0.948-22.214,1.618c-7.18,0.651-14.332,1.588-21.489,2.445c-7.935,0.951-15.864,1.972-23.817,2.762
			c-7.095,0.704-14.27,1.155-21.401,0.895c-6.595-0.24-13.484-1.092-19.182-4.676c-5.779-3.636-9.801-9.487-13.352-15.179
			c-3.736-5.989-7.014-12.244-10.358-18.455c-3.823-7.099-7.549-14.257-11.629-21.213c-3.557-6.066-7.506-11.9-11.678-17.56
			c-4.619-6.267-9.479-12.378-13.844-18.829c-3.688-5.451-7.386-11.363-8.889-17.851c-0.709-3.061-0.798-6.221,0.179-9.232
			c0.993-3.061,2.789-5.759,4.157-8.651c0.946-2,1.662-4.133,1.33-6.37c-0.363-2.443-1.655-4.674-2.881-6.773
			c-1.568-2.686-3.233-5.353-4.144-8.351c-0.95-3.124-1.178-6.395-1.686-9.604c-0.37-2.34-0.924-4.63-2.072-6.72
			c-1.658-3.017-4.158-5.455-6.575-7.862c-4.621-4.604-9.056-10.421-15.536-12.425c-5.403-1.671-11.42-0.457-16.521,1.662
			c-5.967,2.478-11.334,6.577-15.019,11.911c-3.666,5.306-5.17,11.49-5.319,17.868c-0.161,6.877,0.895,13.728,2.147,20.469
			c0.739,3.981,1.567,7.955,2.171,11.96c0.272,1.803,1.46,7.081-0.819,8.039c-1.3,0.546-3.111-0.425-4.277-0.937
			c-1.539-0.675-3.052-1.493-4.667-1.982c-3.806-1.153-4.26,2.345-3.878,5.363c0.797,6.288,3.699,12.457,6.568,18.036
			c3.312,6.438,7.279,12.513,11.511,18.379c4.59,6.362,9.462,12.504,14.302,18.675c4.108,5.237,8.962,10.492,11.954,16.475
			c0.507,1.014,1.503,2.937,0.071,3.581c-1.257,0.565-3.342-0.027-4.629-0.151c-1.368-0.132-3.198-0.386-4.382,0.493
			c-1.276,0.947-1.129,2.847-0.902,4.248c0.989,6.118,4.733,12.023,8.023,17.142c3.82,5.946,8.174,11.625,13.119,16.682
			c4.979,5.092,10.661,9.368,16.731,13.073c6.117,3.733,12.671,6.841,18.414,11.16c5.625,4.229,10.267,9.532,15.338,14.373
			c2.669,2.548,5.58,4.708,8.527,6.917c2.551,1.912,5.266,4.078,6.245,7.242c0.818,2.641,0.507,5.559,0.212,8.259
			c-0.404,3.701-0.931,7.395-0.895,11.126c0.062,6.47,2.058,12.716,4.443,18.669c2.795,6.977,6.217,13.683,9.225,20.566
			c2.948,6.746,5.069,13.761,7.237,20.784c2.039,6.604,4.244,13.101,7.381,19.278c3.241,6.381,7.206,12.392,11.649,17.997
			c4.412,5.565,9.311,10.737,14.541,15.538c5.287,4.854,10.92,9.432,17.011,13.247c5.845,3.661,11.861,5.815,18.718,6.601
			c7.357,0.844,14.83,1.072,22.229,1.226c7.341,0.152,14.724,0.134,22.039-0.568c3.256-0.312,6.557-0.729,9.699-1.674
			c2.383-0.717,5.325-1.903,5.739-4.686c0.456-3.073-1.886-6.596-3.662-8.929c-1.682-2.208-3.884-3.693-6.484-4.629
			c-6.394-2.302-13.309-2.922-19.796-4.969c-3.293-1.04-6.5-2.35-9.58-3.912c-1.372-0.696-2.725-1.441-4.018-2.276
			c-0.92-0.594-2.925-1.64-3.159-2.802c-0.337-1.673,6.679-1.216,7.911-1.582c1.518-0.451,1.728-1.48,1.997-2.897
			c0.311-1.64,1.035-2.669,2.542-3.456c2.076-1.084,4.726-1.493,7.04-1.134c3.915,0.607,4.123,3.494,5.557,6.513
			c1.288,2.714,4.114,1.321,6.173,0.31c2.803-1.375,5.458-3.377,8.463-4.297c1.303-0.399,2.181-0.157,3.313,0.541
			c1.279,0.789,2.42,1.134,3.924,1.118c3.323-0.036,6.688-1.03,9.842-1.993c7.363-2.249,14.347-5.405,21.334-8.6
			c5.502-2.516,10.758-4.266,16.871-3.63c5.527,0.575,12.02,2.946,16.968-0.624c0.885-0.638,1.979-1.745,3.177-1.662
			c1.172,0.081,2.112,1.27,2.856,2.049c0.703,0.736,1.92,2.476,3.141,1.964c1.031-0.432,1.534-2.174,1.898-3.113
			c1.077,3.464,1.964,7.148,4.311,10.012c2.425,2.96,5.205,5.129,6.579,8.824c1.487,3.998,2.343,8.164,4.034,12.099
			c1.705,3.968,3.763,7.794,6.007,11.482c2.121,3.487,4.512,7.765,8.028,10.022c3.291,2.112,7.665,2.218,11.44,2.441
			c8.832,0.521,17.823,0.744,26.651,0.048c3.185-0.251,7.696-0.471,8.385-4.373c0.702-3.977-1.111-8.971-3.108-12.362
			c-1.919-3.257-4.811-4.284-8.49-3.904c-2.042,0.211-4.047,0.676-6.085,0.911c-1.822,0.21-3.78,0.308-4.672-1.579
			c-0.805-1.701-0.917-3.87-1.284-5.696c-0.473-2.351-0.985-4.693-1.405-7.054c-0.665-3.74-1.386-7.828-0.498-11.592
			c0.968-4.101,4.186-7.192,7.542-9.513c2.108-1.458,5.546-3.666,8.225-2.804c1.841,0.592,2.452,2.747,4.044,3.696
			c0.431,0.257,0.457,0.107,0.672,0.515c0.161,0.306,0.136,0.889,0.199,1.236c0.139,0.763,0.307,1.521,0.501,2.272
			c0.889,3.453,2.3,6.806,4.228,9.808c0.977,1.52,2.089,2.97,3.364,4.253c1.443,1.452,3.344,2.341,4.734,3.825
			c2.643,2.822,3.792,7.126,5.495,10.517c1.978,3.938,4.476,7.613,6.211,11.673c1.399,3.273,2.515,6.862,6.016,8.437
			c3.128,1.407,6.838,1.491,10.205,1.588c4.879,0.14,9.765,0.191,14.646,0.263c4.205,0.062,8.452,0.146,12.632-0.388
			c3.412-0.436,7.208-1.323,9.166-4.436c1.973-3.138,1.906-7.569,1.12-11.056c-0.841-3.734-3.019-6.774-6.81-7.819
			c-3.67-1.012-7.48,0.01-11.208-0.317c-4.004-0.351-7.704-2.532-10.079-5.761c-4.451-6.051-3.691-14.854-2.767-21.85
			c0.566-4.288,1.402-8.56,2.54-12.733c0.094-0.345,0.206-1.299,0.445-1.571c0.242-0.275,0.513-0.191,0.951-0.2
			c0.643-0.014,1.288-0.066,1.915-0.219c2.007-0.489,3.59-1.98,4.994-3.417c2.857-2.923,5.484-5.738,8.986-7.898
			c3.437-2.12,7.135-3.877,10.206-6.541c6.014-5.216,8.9-13.059,14.161-18.935c3.007-3.358,6.502-6.227,9.648-9.447
			c2.728-2.792,5.081-5.894,7.158-9.195C615.977,451.836,617.869,448.138,619.632,444.38z"/>
	</g>
</g>
<g id="N-DIMENSIONS" display="none">
</g>
</svg>
