<?xml version="1.0" encoding="utf-8"?>
<!-- Generator: Adobe Illustrator 25.2.1, SVG Export Plug-In . SVG Version: 6.00 Build 0)  -->
<!DOCTYPE svg PUBLIC "-//W3C//DTD SVG 1.1//EN" "http://www.w3.org/Graphics/SVG/1.1/DTD/svg11.dtd" [
	<!ENTITY ns_extend "http://ns.adobe.com/Extensibility/1.0/">
	<!ENTITY ns_ai "http://ns.adobe.com/AdobeIllustrator/10.0/">
	<!ENTITY ns_graphs "http://ns.adobe.com/Graphs/1.0/">
	<!ENTITY ns_vars "http://ns.adobe.com/Variables/1.0/">
	<!ENTITY ns_imrep "http://ns.adobe.com/ImageReplacement/1.0/">
	<!ENTITY ns_sfw "http://ns.adobe.com/SaveForWeb/1.0/">
	<!ENTITY ns_custom "http://ns.adobe.com/GenericCustomNamespace/1.0/">
	<!ENTITY ns_adobe_xpath "http://ns.adobe.com/XPath/1.0/">
]>
<svg version="1.1" xmlns:x="&ns_extend;" xmlns:i="&ns_ai;" xmlns:graph="&ns_graphs;"
	 xmlns="http://www.w3.org/2000/svg" xmlns:xlink="http://www.w3.org/1999/xlink" x="0px" y="0px" width="750px" height="750px"
	 viewBox="0 0 750 750" enable-background="new 0 0 750 750" xml:space="preserve">
<metadata>
	<sfw  xmlns="&ns_sfw;">
		<slices></slices>
		<sliceSourceBounds  bottomLeftOrigin="true" height="12757.679" width="14247.625" x="-7111.093" y="-4713.29">
			</sliceSourceBounds>
	</sfw>
</metadata>
<g id="FILL-BACKGROUND">
	<rect fill="#FFFFFF" width="750" height="750"/>
</g>
<g id="N-DIMENSIONS">
</g>
<g id="N-TEXT">
</g>
<g id="AG-DIAGRAM">
	<g>
		<g>
			
				<line fill="none" stroke="#FB8604" stroke-width="3.25" stroke-linecap="round" stroke-linejoin="round" x1="275.5" y1="581.483" x2="277.5" y2="581.483"/>
			
				<line fill="none" stroke="#FB8604" stroke-width="3.25" stroke-linecap="round" stroke-linejoin="round" stroke-dasharray="4.0356,7.0623" x1="284.562" y1="581.483" x2="613.969" y2="581.483"/>
			
				<line fill="none" stroke="#FB8604" stroke-width="3.25" stroke-linecap="round" stroke-linejoin="round" x1="617.5" y1="581.483" x2="619.5" y2="581.483"/>
		</g>
	</g>
</g>
<g id="AG-DETAILS">
	<g id="POLYLINE_1656_">
		<path fill="none" stroke="#FB8604" stroke-width="2" stroke-linecap="round" stroke-linejoin="round" stroke-miterlimit="10" d="
			M573.815,317.705c-4.484-0.23-8.968-0.141-13.431,0.377c-4.531,0.525-9.01,1.47-13.371,2.806
			c-2.466,0.756-4.882,1.648-7.268,2.625"/>
	</g>
	<g id="POLYLINE_1655_">
		<path fill="none" stroke="#FB8604" stroke-width="2" stroke-linecap="round" stroke-linejoin="round" stroke-miterlimit="10" d="
			M574.032,315.744c-5.225-0.627-10.481-0.869-15.74-0.62c-5.499,0.26-10.974,1.036-16.337,2.273
			c-3.003,0.693-5.963,1.543-8.889,2.51"/>
	</g>
	<g id="POLYLINE_1648_">
		<path fill="none" stroke="#FB8604" stroke-width="2" stroke-linecap="round" stroke-linejoin="round" stroke-miterlimit="10" d="
			M574.115,314.142c-6.4-2.005-12.862-3.794-19.43-5.166c-6.528-1.364-13.109-2.429-19.74-3.145
			c-3.579-0.387-7.167-0.658-10.761-0.865"/>
	</g>
	<g id="POLYLINE_1647_">
		<path fill="none" stroke="#FB8604" stroke-width="2" stroke-linecap="round" stroke-linejoin="round" stroke-miterlimit="10" d="
			M619.069,321.417c5.21-0.712,10.453-1.059,15.712-0.916c5.18,0.14,10.349,0.733,15.429,1.757c2.898,0.584,5.756,1.317,8.592,2.149
			"/>
	</g>
	<g id="POLYLINE_1646_">
		<path fill="none" stroke="#FB8604" stroke-width="2" stroke-linecap="round" stroke-linejoin="round" stroke-miterlimit="10" d="
			M618.82,326.025c3.863,0.635,7.655,1.634,11.299,3.069c3.83,1.507,7.46,3.486,10.814,5.871c1.992,1.417,3.865,2.98,5.662,4.636"/>
	</g>
	<g id="POLYLINE_1471_">
		<path fill="none" stroke="#FB8604" stroke-width="2" stroke-linecap="round" stroke-linejoin="round" stroke-miterlimit="10" d="
			M618.783,323.969c5.606-0.802,11.295-0.862,16.893,0.05c5.543,0.903,10.895,2.758,15.727,5.633
			c2.651,1.578,5.109,3.43,7.441,5.445"/>
	</g>
</g>
<g id="AG-PEOPLE">
</g>
<g id="AG-DETAIL">
</g>
<g id="AG-ANIMALS">
	<g id="POLYLINE_1453_">
		
			<path fill="none" stroke="#FB8604" stroke-width="2.75" stroke-linecap="round" stroke-linejoin="round" stroke-miterlimit="10" d="
			M443.766,462.318c2.368-2.391,5.091-4.519,8.554-4.861c3.837-0.379,7.715,0.695,11.536,0.932
			c4.018,0.249,8.073,0.052,12.074,0.556c3.507,0.442,7.546,0.498,10.687,2.32c1.798,1.043,3.199,2.843,4.604,4.341
			c1.396,1.488,2.709,3.051,3.951,4.669c2.525,3.291,4.802,6.815,6.983,10.342c2.106,3.405,4.018,6.946,5.499,10.67
			c1.645,4.136,2.729,8.477,3.932,12.754c1.064,3.779,2.354,7.468,4.068,11.004c1.811,3.736,3.912,7.318,6.333,10.681
			c2.181,3.031,3.686,6.41,4.704,9.992c1.123,3.95,1.952,7.896,3.698,11.638c1.545,3.312,3.466,6.424,5.391,9.525
			c2.303,3.711,4.659,7.396,6.861,11.169c1.978,3.389,3.818,7.831,7.183,10.123c3.311,2.255,7.744,2.33,11.602,2.212
			c4.103-0.125,8.188-0.692,12.299-0.561c3.841,0.123,7.843,0.804,11.61-0.278c4.168-1.198,7.73-4.913,8.331-9.273
			c0.482-3.5-0.904-7.333-3.443-9.773c-2.752-2.645-6.696-3.008-10.331-2.921c-3.774,0.09-7.831,0.965-11.546-0.039
			c-4.534-1.225-7.413-5.469-9.341-9.482c-1.645-3.423-2.797-7.075-3.759-10.742c-1.026-3.908-1.785-7.881-2.328-11.884
			c-0.548-4.045-0.879-8.113-1.167-12.183c-0.316-4.463-0.613-8.922-0.785-13.393c-0.151-3.94-0.176-7.89-0.035-11.831
			c0.146-4.075,0.481-8.141,1.059-12.178c0.55-3.841,1.341-7.657,2.423-11.384c1.085-3.739,2.482-7.398,4.34-10.824
			c1.976-3.645,4.518-6.893,7.595-9.671c3.263-2.945,6.929-5.42,10.49-7.981c3.182-2.288,6.238-4.719,9.03-7.476
			c2.79-2.756,5.327-5.77,7.572-8.986c2.259-3.237,4.223-6.686,5.84-10.287c1.656-3.686,2.908-7.525,3.942-11.429
			c1.117-4.221,2.005-8.501,2.999-12.752c0.898-3.837,1.888-7.666,3.23-11.375c1.394-3.852,3.202-7.524,5.438-10.958
			c2.237-3.437,4.861-6.595,7.737-9.513"/>
	</g>
	<g id="POLYLINE_1432_">
		
			<path fill="none" stroke="#FB8604" stroke-width="2.75" stroke-linecap="round" stroke-linejoin="round" stroke-miterlimit="10" d="
			M477.053,459.108c1.845,0.315,3.71,0.839,5.274,1.903c1.603,1.09,2.678,2.712,3.394,4.49c1.263,3.135,1.59,6.629,1.71,9.977
			c0.282,7.869-0.647,15.708-2.033,23.441c-1.413,7.888-3.127,15.726-3.894,23.714c-0.713,7.425-0.656,14.822-0.221,22.26
			c0.3,5.135,0.601,10.269,0.901,15.404c0.201,3.439,0.5,6.91,1.292,10.27c0.82,3.479,2.295,7.3,5.629,9.078
			c2.887,1.54,6.41,1.531,9.597,1.582c4.447,0.071,8.906,0.254,13.354,0.165c3.428-0.069,7.704-0.155,10.525-2.376
			c3.153-2.483,2.419-7.226,0.881-10.411c-1.341-2.775-3.455-5.147-5.816-7.099c-1.267-1.048-2.628-1.946-4.028-2.804
			c-1.748-1.071-3.594-2.115-4.768-3.852c-2.345-3.468-1.625-8.18-0.919-12.051c0.726-3.978,1.684-7.921,2.555-11.869
			c0.869-3.94,1.742-7.871,2.805-11.764c0.517-1.893,1.073-3.774,1.646-5.65"/>
	</g>
	<g id="POLYLINE_1431_">
		
			<path fill="none" stroke="#FB8604" stroke-width="2.75" stroke-linecap="round" stroke-linejoin="round" stroke-miterlimit="10" d="
			M342.879,501.218c-5.131,6.251-9.203,13.6-11.056,21.513c-1.666,7.112-1.279,14.574,2.309,21.057
			c3.667,6.624,9.77,10.969,16.729,13.612c3.967,1.506,8.072,2.661,12.122,3.919c3.571,1.109,7.081,2.444,10.619,3.657
			c3.837,1.315,7.689,2.601,11.446,4.133c3.93,1.602,7.665,3.563,11.431,5.51c3.328,1.72,6.673,3.432,10.228,4.641
			c3.394,1.154,6.933,1.75,10.502,2.013c7.919,0.585,15.911-0.031,23.846,0.048c7.685,0.077,15.876,0.544,23.347-1.613
			c3.573-1.032,6.706-3.012,8.682-6.223c1.731-2.813,2.965-6.722,1.798-9.972c-1.348-3.756-6.058-5.153-9.389-6.531
			c-3.485-1.443-6.934-3.746-10.747-4.184c-3.793-0.435-7.528,1.135-10.982,2.484c-3.663,1.43-7.283,2.864-11.274,2.913
			c-7.761,0.096-14.839-4.167-21.097-8.308c-3.342-2.211-6.732-4.436-9.871-6.931c-2.4-1.907-5.784-4.695-5.348-8.135
			c0.425-3.355,3.683-6.166,5.971-8.367c2.902-2.791,5.807-5.519,8.224-8.758c4.855-6.505,7.607-14.178,10.595-21.643
			c2.864-7.155,6.181-13.915,11.089-19.909c2.752-3.36,5.587-6.651,8.354-9.999c1.187-1.437,2.737-2.793,3.688-4.379
			c0.995-1.659,2.043-3.286,3.146-4.875c2.146-3.092,4.456-6.161,7.36-8.584c3.039-2.535,6.348-4.753,9.512-7.126
			c6.525-4.894,12.83-10.053,18.447-15.986c5.439-5.745,10.191-12.13,14.006-19.066c1.836-3.339,3.413-6.799,4.823-10.337"/>
	</g>
	<g id="POLYLINE_1430_">
		
			<path fill="none" stroke="#FB8604" stroke-width="2.75" stroke-linecap="round" stroke-linejoin="round" stroke-miterlimit="10" d="
			M294.83,464.499c2.03,5.949,3.788,12.078,3.979,18.403c0.084,2.786-0.143,5.59-0.81,8.301c-0.748,3.041-2.042,5.9-3.348,8.732
			c-2.389,5.178-4.976,10.461-4.449,16.32c0.508,5.648,2.987,11.006,5.215,16.145c2.662,6.139,5.584,12.15,8.591,18.125
			c3.059,6.079,6.343,12.045,9.556,18.043c1.26,2.352,2.434,4.809,3.934,7.023c2.091,3.086,4.866,4.762,8.516,5.324
			c2.672,0.412,5.396,0.382,8.092,0.345c3.331-0.046,6.654-0.067,9.984-0.015c5.919,0.093,12.45,0.684,18.101-1.461
			c3.104-1.178,5.521-3.461,6.75-6.567c0.831-2.098,1.196-4.603,0.381-6.764c-0.495-1.313-1.369-2.506-2.109-3.686"/>
	</g>
	<g id="POLYLINE_1429_">
		
			<path fill="none" stroke="#FB8604" stroke-width="2.75" stroke-linecap="round" stroke-linejoin="round" stroke-miterlimit="10" d="
			M533.54,312.071c-6.614,0.006-12.941,3.036-19.149,4.932c-6.173,1.886-12.617,2.615-19.05,2.024
			c-6.562-0.603-12.84-2.573-19.076-4.6c-6.786-2.206-13.569-4.378-20.571-5.805c-6.507-1.326-13.158-2.08-19.804-1.751
			c-6.341,0.314-12.491,1.777-18.569,3.536c-6.792,1.966-13.569,4.14-20.591,5.133c-6.883,0.974-13.856,0.967-20.78,1.444
			c-6.964,0.48-13.854,1.606-20.639,3.237c-6.618,1.591-13.161,3.572-19.58,5.838c-6.765,2.388-13.454,4.979-20.207,7.399
			c-6.633,2.376-13.36,4.59-20.361,5.578c-6.86,0.968-13.837,0.649-20.659-0.464c-6.673-1.089-13.19-2.927-19.599-5.054
			c-6.179-2.051-12.229-4.454-18.274-6.862c-6.92-2.757-13.889-5.418-20.742-8.34c-6.621-2.823-13.18-5.776-19.446-9.33
			c-6.392-3.625-12.395-7.883-18.457-12.022c-5.589-3.816-11.209-7.589-17.27-10.63c-6.182-3.102-12.755-5.44-19.553-6.746
			c-6.833-1.313-13.888-1.598-20.794-0.706c-6.704,0.866-13.55,2.896-18.953,7.098c-5.221,4.061-8.348,10.079-9.886,16.42
			c-1.408,5.805-1.584,11.929-0.701,17.828c1.003,6.7,3.548,13.127,7.659,18.532c3.967,5.215,9.229,9.328,15.025,12.336
			c3.021,1.568,6.241,2.911,9.597,3.551c3.272,0.624,7.106,0.559,9.349-2.272c2.05-2.587,2.397-6.263,2.197-9.449
			c-0.187-2.99-0.917-5.949-2.053-8.717c-1.308-3.187-3.166-6.099-4.925-9.047c-1.035-1.735-4.168-6.047-1.057-7.301
			c1.614-0.651,3.593-0.455,5.284-0.272c1.607,0.175,3.201,0.472,4.776,0.832c3.346,0.763,6.64,1.799,9.825,3.076
			c6.161,2.471,11.759,6.002,16.854,10.238c5.174,4.302,9.794,9.287,15.299,13.186c5.317,3.765,11.393,5.909,17.585,7.767
			c6.505,1.953,13.15,3.506,19.468,6.038c6.742,2.702,12.894,6.613,19.102,10.333c2.72,1.63,5.478,3.204,8.307,4.638
			c3.172,1.608,6.455,2.935,9.745,4.277c2.704,1.103,5.439,2.262,7.849,3.933c3.171,2.198,4.933,5.259,5.578,9.04
			c1.135,6.651,0,13.46,1.296,20.115c1.221,6.27,3.947,12.098,7.047,17.639c3.418,6.108,7.288,11.951,10.797,18.006
			c3.364,5.804,6.371,11.811,9.398,17.794"/>
	</g>
	<g id="POLYLINE_1357_">
		
			<path fill="none" stroke="#FB8604" stroke-width="2.75" stroke-linecap="round" stroke-linejoin="round" stroke-miterlimit="10" d="
			M622.626,353.212c2.958-2.938,6.378-5.447,8.815-8.869c2.625-3.685,4.33-7.94,6.175-12.043c1.643-3.654,3.554-7.203,4.896-10.985
			c1.288-3.629,1.724-7.346,1.726-11.181c0.002-4.206-0.298-8.406-0.18-12.613c0.111-3.947,0.619-7.824,1.628-11.644
			c1.078-4.082,2.382-8.099,3.405-12.197c1.019-4.082,1.847-8.209,2.488-12.367c0.653-4.241,1.15-8.514,1.499-12.791
			c0.315-3.856,0.314-7.873-1.313-11.465c-0.831-1.833-2.071-3.71-3.812-4.786c-1.395-0.862-3.005-0.908-4.554-0.478
			c-3.72,1.03-6.931,3.887-9.895,6.232c-3.111,2.461-6.081,5.12-8.588,8.206c-2.681,3.299-4.635,7.075-7.076,10.539
			c-2.199,3.12-4.994,6.164-9.065,6.322c-3.793,0.147-7.519-1.365-11.132-2.291c-3.582-0.918-7.048-1.19-10.717-0.714
			c-2.018,0.262-4.19,0.7-6.211,0.26c-2.082-0.453-3.389-2.133-4.278-3.966c-1.717-3.538-2.457-7.588-3.534-11.343
			c-1.133-3.952-2.358-7.909-4.132-11.627c-1.37-2.871-3.095-5.602-5.365-7.85c-2.193-2.172-4.882-3.856-7.805-4.854
			c-1.404-0.48-3.006-0.859-4.475-0.45c-2.002,0.558-3.298,2.437-4.251,4.164c-0.937,1.699-1.656,3.507-2.443,5.278
			c-0.884,1.99-1.835,3.949-2.737,5.931c-1.566,3.438-2.713,7.019-3.353,10.746c-0.649,3.779-0.811,7.618-0.552,11.441
			c0.265,3.907,0.618,7.69-0.387,11.524c-0.521,1.989-1.218,3.959-1.396,6.019c-0.144,1.671,0.048,3.35,0.353,4.993
			c0.377,2.028,0.944,4.022,1.179,6.074c0.214,1.864,0.169,3.745-0.103,5.6c-0.581,3.963-1.952,7.789-2.729,11.718
			c-0.78,3.941-1.274,7.949-1.337,11.969c-0.061,3.885,0.288,7.789,1.209,11.568c0.886,3.639,2.313,7.142,4.314,10.312
			c2.074,3.286,4.755,6.169,7.845,8.522c3.218,2.449,6.83,4.241,10.612,5.64c3.892,1.44,7.891,2.584,11.618,4.438
			c3.688,1.834,7.117,4.145,10.826,5.941c3.428,1.659,7.029,2.762,10.858,2.851c3.9,0.09,7.785-0.659,11.516-1.744
			c3.943-1.147,7.801-2.67,11.481-4.49C616.809,357.188,619.799,355.32,622.626,353.212z"/>
	</g>
	<g id="POLYLINE_1341_">
		
			<path fill="none" stroke="#FB8604" stroke-width="2.75" stroke-linecap="round" stroke-linejoin="round" stroke-miterlimit="10" d="
			M529.496,312.475c-0.15,0.082-0.18,0.097-0.18,0.097"/>
	</g>
</g>
<g id="AG-OUTLINE">
	<g id="POLYLINE_1340_">
		
			<path fill="none" stroke="#FB8604" stroke-width="3.5" stroke-linecap="round" stroke-linejoin="round" stroke-miterlimit="10" d="
			M622.626,353.212c2.062-2.049,4.337-3.876,6.37-5.952c2.039-2.081,3.628-4.521,4.97-7.097c1.454-2.791,2.661-5.704,3.966-8.566
			c1.153-2.529,2.413-5.008,3.51-7.562c1.074-2.501,1.965-5.092,2.389-7.788c0.403-2.56,0.436-5.158,0.388-7.743
			c-0.106-5.689-0.473-11.387,0.318-17.047c0.778-5.573,2.773-10.896,4.184-16.323c1.463-5.627,2.557-11.332,3.324-17.095
			c0.393-2.956,0.714-5.92,0.978-8.89c0.236-2.653,0.373-5.348-0.05-7.99c-0.754-4.696-4.041-10.986-9.702-9.329
			c-2.565,0.751-4.825,2.417-6.933,4.003c-2.288,1.721-4.547,3.498-6.669,5.422c-1.9,1.723-3.673,3.581-5.254,5.603
			c-1.831,2.342-3.334,4.901-4.919,7.409c-1.395,2.206-2.867,4.446-4.8,6.226c-2.067,1.903-4.493,2.767-7.28,2.575
			c-5.244-0.362-10.082-2.88-15.348-3.226c-2.619-0.172-5.149,0.308-7.743,0.569c-3.053,0.308-5.586-0.16-7.291-2.93
			c-1.267-2.058-1.913-4.467-2.554-6.775c-0.841-3.027-1.65-6.066-2.589-9.065c-1.506-4.808-3.323-9.674-6.411-13.713
			c-2.557-3.345-6.035-5.957-10.052-7.278c-2.225-0.732-4.514-0.888-6.357,0.797c-2.051,1.876-3.104,4.735-4.189,7.224
			c-2.17,4.976-4.749,9.735-6.002,15.055c-1.284,5.452-1.321,10.893-0.92,16.447c0.182,2.531,0.309,5.084-0.186,7.589
			c-0.518,2.62-1.595,5.129-1.783,7.812c-0.179,2.562,0.418,5.075,0.954,7.561c0.563,2.613,0.892,5.195,0.62,7.869
			c-0.277,2.721-1.091,5.335-1.773,7.973c-0.695,2.689-1.261,5.417-1.678,8.163c-0.216,1.424-0.39,2.855-0.517,4.29
			c-0.051,0.58,0.062,0.605-0.486,0.647c-0.331,0.026-0.665,0.024-0.996,0.048c-0.509,0.037-1.016,0.092-1.522,0.162
			c-2.504,0.345-4.963,1.026-7.365,1.799c-5.45,1.754-10.774,3.818-16.468,4.652c-5.337,0.782-10.752,0.608-16.055-0.346
			c-5.95-1.072-11.673-3.065-17.408-4.929c-5.448-1.771-10.93-3.402-16.533-4.615c-5.567-1.205-11.253-1.986-16.955-2.047
			c-5.547-0.06-11.003,0.66-16.389,1.967c-5.674,1.378-11.218,3.23-16.861,4.722c-5.393,1.426-10.834,2.336-16.4,2.727
			c-6.023,0.423-12.07,0.503-18.081,1.095c-5.825,0.574-11.591,1.66-17.276,3.034c-5.679,1.373-11.28,3.077-16.813,4.947
			c-6.037,2.04-11.996,4.289-17.969,6.51c-5.195,1.932-10.4,3.857-15.752,5.315c-5.694,1.552-11.507,2.487-17.418,2.499
			c-5.665,0.012-11.31-0.715-16.845-1.89c-5.743-1.219-11.369-2.92-16.917-4.826c-5.013-1.722-9.948-3.652-14.871-5.613
			c-6.102-2.431-12.225-4.814-18.302-7.307c-5.678-2.33-11.328-4.729-16.824-7.466c-5.238-2.609-10.28-5.556-15.157-8.788
			c-5.019-3.326-9.907-6.848-14.94-10.152c-5.008-3.288-10.146-6.378-15.623-8.827c-5.349-2.391-10.964-4.195-16.729-5.258
			c-5.748-1.06-11.64-1.384-17.467-0.904c-5.811,0.478-11.669,1.739-16.909,4.363c-5.183,2.596-9.315,6.587-11.944,11.768
			c-2.319,4.569-3.51,9.674-3.889,14.766c-0.392,5.27,0.056,10.644,1.442,15.748c1.497,5.513,4.144,10.68,7.831,15.05
			c3.537,4.192,7.918,7.582,12.709,10.227c2.576,1.422,5.286,2.651,8.108,3.499c2.716,0.816,5.815,1.418,8.6,0.603
			c5.866-1.717,6.059-9.511,5.208-14.437c-0.924-5.35-3.595-9.926-6.353-14.515c-0.686-1.141-1.384-2.283-1.955-3.488
			c-0.432-0.911-1.046-2.194-0.639-3.216c0.525-1.318,2.447-1.456,3.644-1.497c1.443-0.05,2.893,0.106,4.318,0.324
			c5.564,0.851,11.079,2.645,16.173,5.022c5.085,2.373,9.751,5.496,14.043,9.101c4.443,3.731,8.497,7.917,13.067,11.498
			c4.145,3.247,8.711,5.606,13.661,7.372c5.64,2.011,11.471,3.442,17.206,5.146c5.469,1.625,10.735,3.669,15.766,6.372
			c5.197,2.792,10.143,6.022,15.271,8.934c5.016,2.848,10.235,5.006,15.536,7.247c2.36,0.998,4.727,2.068,6.824,3.558
			c2.695,1.915,4.415,4.483,5.163,7.71c1.305,5.631,0.44,11.531,0.956,17.245c0.471,5.219,2.031,10.246,4.191,15.003
			c2.305,5.078,5.218,9.844,8.127,14.59c3.147,5.134,6.274,10.264,9.129,15.569c1.367,2.54,2.703,5.099,4.008,7.672
			c0.781,1.54,1.68,3.066,2.355,4.655c0.556,1.309,0.936,2.74,1.351,4.1c1.638,5.371,2.831,10.981,2.64,16.624
			c-0.197,5.827-2.391,10.916-4.797,16.13c-2.116,4.588-4.199,9.324-3.843,14.488c0.348,5.053,2.382,9.869,4.347,14.473
			c2.305,5.4,4.742,10.745,7.361,16.001c2.564,5.145,5.232,10.23,7.947,15.296c1.849,3.45,3.698,6.9,5.546,10.351
			c1.194,2.229,2.425,4.526,4.317,6.25c4.149,3.78,10.79,3.126,15.981,3.055c5.987-0.082,11.991,0.288,17.972,0.015
			c5.57-0.255,11.765-1.312,14.678-6.693c0.923-1.706,1.485-3.665,1.452-5.614c-0.041-2.392-1.326-4.221-2.554-6.179
			c4.685,1.626,9.397,3.188,14.057,4.884c4.441,1.616,8.679,3.591,12.872,5.759c4.299,2.222,8.577,4.572,13.202,6.06
			c4.191,1.348,8.597,1.83,12.981,1.962c4.853,0.147,9.708-0.107,14.561-0.144c5.034-0.038,10.069,0.162,15.102,0.065
			c4.445-0.086,9.008-0.313,13.344-1.364c4.39-1.064,8.164-3.375,10.296-7.466c1.976-3.79,2.779-8.979-0.958-11.961
			c-1.712-1.366-3.8-2.185-5.805-3.014c-2.259-0.935-4.455-1.97-6.676-2.99c-2.306-1.059-4.688-1.939-7.268-1.819
			c-2.183,0.102-4.308,0.739-6.352,1.473c-4.387,1.575-8.629,3.735-13.368,3.96c-4.69,0.223-9.242-1.257-13.4-3.316
			c-4.343-2.151-8.345-4.904-12.337-7.634c-3.514-2.403-7.664-4.856-10.119-8.434c-1.2-1.749-1.553-3.661-0.688-5.641
			c0.807-1.848,2.231-3.409,3.617-4.843c3.392-3.508,7.106-6.619,10.047-10.547c2.692-3.595,4.78-7.572,6.573-11.679
			c1.997-4.575,3.691-9.277,5.656-13.866c1.866-4.361,3.988-8.611,6.76-12.475c2.912-4.06,6.275-7.785,9.467-11.621
			c2.729-3.279,5.397-6.996,9.142-9.202c3.974-2.34,8.435-1.36,12.754-0.822c4.732,0.59,9.508,0.292,14.248,0.742
			c2.214,0.21,4.499,0.59,6.49,1.631c2.128,1.113,3.518,2.999,4.378,5.206c1.497,3.844,1.676,8.17,1.691,12.246
			c0.018,4.907-0.379,9.8-1.06,14.658c-0.718,5.12-1.738,10.195-2.683,15.277c-0.833,4.478-1.618,8.961-2.102,13.493
			c-0.52,4.87-0.763,9.773-0.721,14.671c0.041,4.809,0.413,9.616,0.693,14.415c0.295,5.043,0.433,10.131,1.026,15.152
			c0.5,4.231,1.295,9.223,4.356,12.441c2.947,3.098,7.625,3.137,11.604,3.2c5.213,0.083,10.489,0.402,15.699,0.079
			c4.183-0.259,9.75-1.158,10.403-6.188c0.553-4.258-1.816-8.34-4.627-11.34c-1.323-1.412-2.81-2.668-4.401-3.766
			c-1.984-1.37-4.333-2.384-6.009-4.155c-3.471-3.667-2.438-9.494-1.554-13.971c1.033-5.23,2.264-10.428,3.413-15.634
			c0.947-4.293,2.135-8.533,3.418-12.736c1.283,2.79,2.741,5.488,4.315,8.124c1.597,2.675,3.609,5.064,5.039,7.841
			c2.812,5.461,3.323,11.698,5.826,17.279c2.73,6.086,6.626,11.674,10.132,17.323c1.671,2.693,3.246,5.443,4.835,8.184
			c1.474,2.543,3.079,5.144,5.786,6.526c2.743,1.4,5.977,1.626,9.005,1.622c3.243-0.005,6.468-0.369,9.703-0.531
			c3.244-0.162,6.436,0.127,9.675,0.232c2.982,0.096,6.043-0.136,8.675-1.671c5.603-3.268,7.402-10.063,4.127-15.603
			c-3.595-6.081-10.725-5.393-16.816-5c-2.902,0.187-5.941,0.356-8.632-0.949c-3.408-1.653-5.679-4.987-7.332-8.282
			c-2.693-5.368-4.255-11.373-5.384-17.246c-1.237-6.437-1.775-12.953-2.237-19.483c-0.462-6.531-0.852-13.068-0.809-19.619
			c0.041-6.316,0.463-12.64,1.536-18.87c1.019-5.918,2.579-11.803,5.119-17.261c2.804-6.024,6.92-10.871,12.165-14.912
			c5.211-4.015,10.791-7.5,15.555-12.073c4.48-4.299,8.33-9.256,11.395-14.655c3.132-5.517,5.266-11.442,6.838-17.573
			c1.609-6.276,2.765-12.665,4.586-18.887c1.834-6.264,4.506-12.149,8.327-17.459c0.932-1.295,1.918-2.55,2.951-3.765
			c0.52-0.612,1.053-1.214,1.597-1.805C621.171,354.721,622.273,353.212,622.626,353.212z"/>
	</g>
</g>
</svg>
