<?xml version="1.0" encoding="utf-8"?>
<!-- Generator: Adobe Illustrator 25.2.1, SVG Export Plug-In . SVG Version: 6.00 Build 0)  -->
<!DOCTYPE svg PUBLIC "-//W3C//DTD SVG 1.1//EN" "http://www.w3.org/Graphics/SVG/1.1/DTD/svg11.dtd" [
	<!ENTITY ns_extend "http://ns.adobe.com/Extensibility/1.0/">
	<!ENTITY ns_ai "http://ns.adobe.com/AdobeIllustrator/10.0/">
	<!ENTITY ns_graphs "http://ns.adobe.com/Graphs/1.0/">
	<!ENTITY ns_vars "http://ns.adobe.com/Variables/1.0/">
	<!ENTITY ns_imrep "http://ns.adobe.com/ImageReplacement/1.0/">
	<!ENTITY ns_sfw "http://ns.adobe.com/SaveForWeb/1.0/">
	<!ENTITY ns_custom "http://ns.adobe.com/GenericCustomNamespace/1.0/">
	<!ENTITY ns_adobe_xpath "http://ns.adobe.com/XPath/1.0/">
]>
<svg version="1.1" xmlns:x="&ns_extend;" xmlns:i="&ns_ai;" xmlns:graph="&ns_graphs;"
	 xmlns="http://www.w3.org/2000/svg" xmlns:xlink="http://www.w3.org/1999/xlink" x="0px" y="0px" width="750px" height="750px"
	 viewBox="0 0 750 750" enable-background="new 0 0 750 750" xml:space="preserve">
<metadata>
	<sfw  xmlns="&ns_sfw;">
		<slices></slices>
		<sliceSourceBounds  bottomLeftOrigin="true" height="15952.342" width="6089.956" x="-3966.956" y="-6814"></sliceSourceBounds>
	</sfw>
</metadata>
<g id="FILL-BACKGROUND">
	<rect y="0" fill="#FFFFFF" width="750" height="750"/>
</g>
<g id="N-DIMENSIONS">
</g>
<g id="N-TEXT">
</g>
<g id="_x32_D_x24_AG-GUIDES">
</g>
<g id="_x32_D_x24_AG-DIAGRAM">
	<g id="POLYLINE_3643_">
		<g>
			<g>
				
					<line fill="none" stroke="#FB8604" stroke-width="3.25" stroke-linecap="round" stroke-linejoin="round" x1="122.733" y1="561.274" x2="124.733" y2="561.274"/>
				
					<line fill="none" stroke="#FB8604" stroke-width="3.25" stroke-linecap="round" stroke-linejoin="round" stroke-dasharray="3.9856,6.9748" x1="131.708" y1="561.274" x2="577.599" y2="561.274"/>
				
					<line fill="none" stroke="#FB8604" stroke-width="3.25" stroke-linecap="round" stroke-linejoin="round" x1="581.086" y1="561.274" x2="583.086" y2="561.274"/>
			</g>
		</g>
	</g>
</g>
<g id="_x32_D_x24_AG-DETAILS">
	<g id="POLYLINE_695_">
		<path fill="none" stroke="#FB8604" stroke-width="2" stroke-linecap="round" stroke-linejoin="round" stroke-miterlimit="10" d="
			M589.943,300.614c10.929,8.467,20.235,19.299,26.035,31.907c7.267,15.845,9.489,34.25,7.387,51.489"/>
	</g>
	<g id="POLYLINE_694_">
		<path fill="none" stroke="#FB8604" stroke-width="2" stroke-linecap="round" stroke-linejoin="round" stroke-miterlimit="10" d="
			M590.259,296.357c18.89,3.929,37.17,12.416,51.207,25.812c8.731,8.356,15.441,18.685,20.365,29.68"/>
	</g>
	<g id="POLYLINE_692_">
		<path fill="none" stroke="#FB8604" stroke-width="2" stroke-linecap="round" stroke-linejoin="round" stroke-miterlimit="10" d="
			M592.406,292.461c15.899-1.37,32.39,0.794,46.795,7.891c16.727,8.204,31.541,22.778,41.443,38.462"/>
	</g>
	<g id="POLYLINE_691_">
		<path fill="none" stroke="#FB8604" stroke-width="2" stroke-linecap="round" stroke-linejoin="round" stroke-miterlimit="10" d="
			M558.851,299.91c-11.204,7.394-20.696,17.425-27.41,29.053c-3.351,5.83-5.98,12.149-7.404,18.733
			c-0.825,3.814-1.227,7.748-1.288,11.647"/>
	</g>
	<g id="POLYLINE_314_">
		<path fill="none" stroke="#FB8604" stroke-width="2" stroke-linecap="round" stroke-linejoin="round" stroke-miterlimit="10" d="
			M554.684,295.357c-14.868,2.927-29.34,8.632-41.73,17.427c-5.9,4.215-11.327,9.221-15.75,14.979
			c-2.364,3.061-4.429,6.44-6.288,9.828l-8.696,16.429"/>
	</g>
	<g id="POLYLINE_107_">
		<path fill="none" stroke="#FB8604" stroke-width="2" stroke-linecap="round" stroke-linejoin="round" stroke-miterlimit="10" d="
			M557.615,292.06c-19.373-4.378-39.771-4.738-59.21-0.556c-11.073,2.387-21.861,6.374-31.911,11.591"/>
	</g>
</g>
<g id="_x32_D_x24_AG-ANIMALS">
	<g id="POLYLINE_2375_">
		
			<path fill="none" stroke="#FB8604" stroke-width="2.75" stroke-linecap="round" stroke-linejoin="round" stroke-miterlimit="10" d="
			M481.892,377.275c-5.883,4.811-10.106,25.436-11.877,33.342c-2.183,11.1-5.978,29.376-7.869,40.417
			c-0.357,2.25-0.741,4.882-0.964,7.138c-0.261,2.627-0.413,5.342-0.305,7.981c0.133,3.323,0.703,6.649,1.669,9.832
			c1.027,3.424,2.547,6.761,4.173,9.941c1.052,2.017,3.719,7.021,4.654,8.997c1.444,2.987,2.877,6.383,4.111,9.473l4.217,11.023
			c0.831,1.712,1.885,3.822,2.591,5.573c1.488,3.652,2.732,7.564,3.799,11.362c1.093,3.91,2.311,9.645,4.025,13.269
			c1.018,2.212,2.331,4.315,3.744,6.295c1.101,1.549,2.311,3.061,3.79,4.268c1.998,1.669,4.442,2.674,6.934,3.35
			c3.724,1.007,7.626,1.457,11.47,1.685c1.626,0.097,3.711,0.142,5.348,0.162c1.618-0.011,17.046,0.085,18.219-0.006
			c1.346-0.05,2.742-0.155,4.073-0.362c1.252-0.194,2.531-0.493,3.751-0.831c1.238-0.357,2.497-0.767,3.601-1.445
			c0.841-0.519,1.562-1.238,2.061-2.094c0.192-0.332,0.373-0.681,0.475-1.053c0.122-0.438,0.136-0.901,0.104-1.353
			c-0.04-0.588-0.158-1.185-0.286-1.76c-0.554-2.452-1.458-4.85-2.86-6.947c-1.929-2.93-4.636-5.284-7.582-7.153
			c-4.354-2.12-8.218-5.313-10.991-9.294c-1.539-2.205-2.714-4.674-3.519-7.238c-0.622-1.981-1.037-4.052-1.243-6.117
			c-0.271-2.441-0.147-6.268-0.149-8.749c-0.011-2.077-0.142-4.186-0.594-6.217c-0.718-3.347-2.238-7.11-3.065-10.434
			c-1.134-4.542-1.346-9.369-0.312-13.95c1.239-5.466,4.323-10.317,7.768-14.661c7.162-9.046,16.456-16.208,26.029-22.535
			l16.014-10.251c9.212-6.077,18.301-13.1,23.352-23.17c1.741-3.323,4.087-9.011,5.753-12.384c1.245-2.559,2.744-5.113,4.283-7.505
			c3.727-5.78,8.531-12.226,10.881-18.697c0.539-1.473,0.987-3.025,1.288-4.564c0.234-1.125,0.805-5.216,0.991-6.409
			c0.624-4.191,2.308-13.79,3.073-18.04"/>
	</g>
	<g id="POLYLINE_2374_">
		
			<path fill="none" stroke="#FB8604" stroke-width="2.75" stroke-linecap="round" stroke-linejoin="round" stroke-miterlimit="10" d="
			M517.769,321.902c8.924,12.277,20.693,22.619,34.357,29.303c5.83,2.826,12.05,5.025,18.49,5.893
			c3.842,0.521,7.768,0.527,11.617,0.073c4.243-0.432,10.439-1.994,14.656-2.888c3.506-0.767,6.961-1.935,10.109-3.675
			c4.241-2.313,8.055-5.395,11.604-8.652c5.076-4.69,9.866-10.051,14.314-15.338c4.816-5.082,9.78-10.573,11.736-17.454
			c1.079-3.716,0.992-8.595,1.181-12.456c0.074-1.464,0.206-2.971,0.427-4.417c0.371-2.655,1.542-7.537,2.061-10.217
			c0.47-2.413,0.775-4.944,0.916-7.398c0.438-7.683-0.555-15.447-1.926-22.996c-0.584-3.071-1.155-6.448-2.3-9.36
			c-0.743-1.921-1.769-3.749-3.086-5.336c-1.197-1.497-2.906-2.85-4.371-4.083c-0.767-0.672-1.545-1.373-2.097-2.239
			c-0.215-0.344-0.39-0.72-0.47-1.119c-0.068-0.33-0.067-0.675,0.005-1.004c0.056-0.257,0.153-0.507,0.265-0.745
			c0.309-0.642,0.893-1.528,1.247-2.151c0.412-0.718,0.798-1.47,1.082-2.249c0.235-0.641,0.401-1.316,0.514-1.989
			c0.348-2.156,0.22-4.395,0.083-6.565c-0.236-3.223-0.859-6.532-2.61-9.301c-1.007-1.595-2.351-2.994-3.94-4.016
			c-0.991-0.629-2.104-1.117-3.282-1.229c-0.466-0.044-0.94-0.024-1.399,0.072c-0.621,0.128-1.215,0.377-1.786,0.648
			c-0.828,0.403-1.95,1.014-2.812,1.29c-0.733,0.241-1.505,0.375-2.273,0.434c-2.675,0.211-5.572-0.488-8.248-0.341
			c-0.964,0.056-1.938,0.239-2.811,0.664c-1.117,0.537-2.049,1.402-2.815,2.366c-1.006,1.247-1.746,2.768-2.433,4.21
			c-0.277,0.538-0.56,1.091-0.958,1.551c-0.228,0.264-0.503,0.501-0.83,0.632c-0.366,0.147-0.771,0.149-1.155,0.09
			c-0.691-0.109-1.355-0.386-1.994-0.663c-1.456-0.669-3.034-1.348-4.555-1.818c-1.575-0.502-3.238-0.872-4.871-1.135
			c-3.18-0.507-6.443-0.738-9.657-0.486c-1.155,0.091-2.345,0.254-3.479,0.49c-1.722,0.355-4.029,1.045-5.749,1.45
			c-2.123,0.494-4.333,0.793-6.511,0.557c-1.61-0.171-3.194-0.659-4.592-1.481c-0.912-0.536-1.755-1.213-2.416-2.043
			c-0.426-0.534-0.77-1.14-0.992-1.787c-0.423-1.199-0.544-2.65-0.914-3.863c-0.333-1.143-0.972-2.196-1.844-3.008
			c-0.642-0.606-1.432-1.052-2.281-1.293c-1.465-0.421-3.022-0.334-4.521-0.181l-2.995,0.369c-2.291,0.272-4.799,0.316-6.987,1.099
			c-1.165,0.415-2.244,1.067-3.2,1.848c-1.351,1.105-2.485,2.467-3.418,3.938c-1.344,2.121-2.27,4.51-2.739,6.975
			c-0.305,1.594-0.429,3.241-0.401,4.864c0.015,1.809,0.372,4.506,0.556,6.322c0.187,1.987,0.26,4.032-0.202,5.988
			c-1.717,7.027-7.959,11.906-11.465,17.976c-2.441,4.231-3.647,9.06-4.535,13.827l-1.167,6.828
			c-0.457,2.436-0.992,4.916-1.988,7.194c-0.655,1.496-1.531,2.922-2.717,4.056c-1.077,1.034-2.392,1.795-3.741,2.418
			c-2.168,1.008-5.172,1.917-7.402,2.806c-6.894,2.669-14.894,7.261-21.913,9.588c-7.758,2.634-15.956,3.948-24.126,4.352
			c-8.698,0.458-19.323-0.42-28.056-0.528c-4.781-0.062-9.778,0.182-14.54,0.606c-13.304,1.169-29.899,4.145-43.243,4.178
			c-9.115,0.087-18.312-1.154-27.242-2.909l-23.339-5.06c-5.857-1.155-11.891-2.033-17.857-2.269
			c-10.985-0.473-22.146,0.69-32.989,2.411c-31.048,5.002-60.742,16.566-86.982,33.899c-5.062,4.087-10.662,8.374-16.016,12.061
			c-4.402,3.109-11.478,7.312-16.162,10.116c-4.75,2.927-9.368,6.309-12.806,10.755c-2.473,3.174-4.37,6.789-5.902,10.499
			c-1.815,4.412-3.114,9.066-3.842,13.781c-0.717,5.094-1.9,14.882-2.417,19.992c-0.192,2.271-0.318,4.625-0.176,6.901
			c0.221,4.018,1.56,8.976,2.177,12.95c1.431,8.583,2.636,30.559,3.401,39.464c0.715,7.779,1.501,15.868,3.335,23.462
			c1.075,4.421,2.571,8.78,4.55,12.879c1.093,2.281,2.402,4.597,3.728,6.753c1.947,3.168,5.044,7.668,6.875,10.879
			c2.989,5.176,4.967,10.928,6.632,16.649c1.106,3.742,2.181,8.333,3.886,11.83c1.306,2.704,3.155,5.175,5.498,7.065
			c1.994,1.624,4.328,2.806,6.732,3.695c3.006,1.11,6.204,1.825,9.353,2.397c7.471,1.319,15.222,1.908,22.805,1.99
			c14.199-0.087,62.155,0.285,75.489-0.146c2.457-0.128,4.967-0.43,7.386-0.879c1.929-0.403,4.473-0.823,6.356-1.326
			c0.752-0.205,1.505-0.459,2.208-0.796c1.443-0.677,2.699-1.76,3.525-3.128c0.455-0.738,0.786-1.552,1.039-2.38
			c0.476-1.512,0.885-3.946,1.241-5.505c0.305-1.318,0.693-2.656,1.433-3.802c0.422-0.658,0.964-1.241,1.583-1.717
			c0.627-0.488,1.342-0.869,2.056-1.212l2.417-1.107c1.726-0.812,3.449-1.782,4.71-3.243c0.556-0.648,1.011-1.388,1.417-2.137
			c1.426-2.687,2.581-5.88,3.669-8.729c0.858-2.836,2.274-7.664,3.28-10.388c0.779-2.182,1.753-4.499,2.7-6.619l4.702-10.179
			c1.788-4.021,3.437-8.199,4.361-12.51c1.391-6.459,1.223-13.196,0.156-19.691c-0.608-3.673-1.504-7.359-2.616-10.911
			c-1.299-4.113-2.959-8.178-5.128-11.912c-1.4-2.405-3.036-4.702-4.938-6.738c-2.351-2.559-6.089-5.299-8.801-7.496
			c-1.82-1.487-3.613-3.1-5.193-4.839c-2.62-2.848-5.904-7.633-8.292-10.732c-1.12-1.436-2.312-2.899-3.615-4.171
			c-0.849-0.826-1.769-1.603-2.793-2.202c-1.209-0.715-2.634-1.151-4.045-0.953c-1.461,0.204-2.778,0.958-3.998,1.749
			c-2.653,1.762-5.441,4.28-8.283,5.732c-0.901,0.465-1.857,0.845-2.843,1.085c-1.287,0.319-2.628,0.43-3.952,0.42
			c-3.88-0.026-7.984-1.118-11.868-1.04c-3.314,0.06-6.51,1.212-9.419,2.738c-2.934,1.508-7.141,4.385-9.948,6.169
			c-4.084,2.66-9.001,4.812-13.173,7.326c-2.085,1.28-4.109,2.752-5.677,4.648c-0.812,0.981-1.49,2.083-1.969,3.264
			c-0.665,1.633-0.989,3.395-1.088,5.151c-0.135,2.493,0.17,5.013,0.775,7.431c0.632,2.499,1.594,4.938,2.92,7.151
			c1.705,2.913,4.478,5.381,6.697,7.895c1.842,2.062,3.437,4.379,4.76,6.806c0.782,1.439,1.508,2.964,2.064,4.505
			c0.34,0.953,0.635,1.946,0.778,2.95c0.108,0.827,0.152,1.74-0.23,2.502l-0.017,0.031l-0.017,0.031l-0.018,0.03l-0.018,0.03
			l-0.019,0.03l-0.019,0.029l-0.019,0.029l-0.02,0.028l-0.02,0.028l-0.021,0.027l-0.021,0.027l-0.022,0.026l-0.022,0.026
			l-0.023,0.025l-0.023,0.025l-0.024,0.024l-0.025,0.024l-0.025,0.024l-0.026,0.023l-0.026,0.023l-0.027,0.022l-0.027,0.022
			l-0.028,0.021l-0.028,0.021l-0.029,0.02l-0.029,0.02l-0.03,0.019l-0.03,0.019l-0.031,0.018l-0.031,0.018l-0.032,0.017
			l-0.032,0.017l-0.033,0.016c-0.756,0.348-1.625,0.296-2.429,0.177c-0.976-0.156-1.935-0.466-2.854-0.824
			c-1.374-0.542-2.707-1.23-3.972-1.99c-1.944-1.178-3.797-2.554-5.395-4.176c-1.29-1.312-2.407-2.812-3.303-4.418
			c-1.897-3.306-2.924-7.621-4.143-11.217c-1.428-4.176-3.436-8.244-5.521-12.129c-3.048-5.568-7.833-13.76-10.271-19.503
			c-1.738-3.994-3.214-8.17-4.241-12.404c-3.422-13.892-1.611-28.719,3.453-41.985"/>
	</g>
	<g id="POLYLINE_2373_">
		
			<path fill="none" stroke="#FB8604" stroke-width="2.75" stroke-linecap="round" stroke-linejoin="round" stroke-miterlimit="10" d="
			M473.612,499.857c-3.419-1.136-7.023-2.108-10.544-2.87c-6.032-1.313-14.158-2.415-20.335-3.325
			c-9.097-1.305-18.469-2.196-27.623-1.039c-3.449,0.422-6.923,1.214-10.249,2.213c-9.803,3.049-21.073,7.532-30.998,10.075
			c-6.012,1.577-12.209,2.755-18.41,3.239c-7.695,0.687-17.238,0.194-24.945,0.74c-5.358,0.404-10.781,1.215-15.951,2.705"/>
	</g>
	<g id="POLYLINE_2372_">
		
			<path fill="none" stroke="#FB8604" stroke-width="2.75" stroke-linecap="round" stroke-linejoin="round" stroke-miterlimit="10" d="
			M564.998,305.791c2.565,1.995,5.647,3.487,8.923,3.713c3.294,0.207,6.553-0.908,9.35-2.589"/>
	</g>
	<g id="POLYLINE_2371_">
		
			<path fill="none" stroke="#FB8604" stroke-width="2.75" stroke-linecap="round" stroke-linejoin="round" stroke-miterlimit="10" d="
			M548.391,289.029c-0.774,2.6-0.973,5.399-0.412,8.062c0.618,2.896,2.12,5.704,4.523,7.495c2.856,2.097,6.648,2.284,10.028,1.672
			l3.769-0.698c4.635-0.768,9.479-0.851,14.019,0.488c2.001,0.567,4.278,1.342,6.324,1.633c1.984,0.306,4.017,0.346,6.009,0.093
			c3.499-0.445,6.901-1.802,9.689-3.972c1.898-1.493,3.568-3.488,4.068-5.903c0.45-2.269-0.12-4.618-1.012-6.71"/>
	</g>
</g>
<g id="_x32_D_x24_AG-OUTLINE">
	<g id="POLYLINE_87_">
		
			<path fill="none" stroke="#FB8604" stroke-width="3.5" stroke-linecap="round" stroke-linejoin="round" stroke-miterlimit="10" d="
			M622.515,338.166c3.531-3.569,7.159-7.696,10.402-11.547c4.816-5.082,9.78-10.573,11.736-17.454
			c1.079-3.716,0.992-8.595,1.181-12.456c0.074-1.464,0.206-2.971,0.427-4.417c0.371-2.655,1.542-7.537,2.061-10.217
			c0.47-2.413,0.775-4.944,0.916-7.398c0.438-7.683-0.555-15.447-1.926-22.996c-0.584-3.071-1.155-6.448-2.3-9.36
			c-0.743-1.921-1.769-3.749-3.086-5.336c-1.197-1.497-2.906-2.85-4.371-4.083c-0.767-0.672-1.545-1.373-2.097-2.239
			c-0.215-0.344-0.39-0.72-0.47-1.119c-0.068-0.33-0.067-0.675,0.005-1.004c0.056-0.257,0.153-0.507,0.265-0.745
			c0.309-0.642,0.893-1.528,1.247-2.151c0.412-0.718,0.798-1.47,1.082-2.249c0.235-0.641,0.401-1.316,0.514-1.989
			c0.348-2.156,0.22-4.395,0.083-6.565c-0.236-3.223-0.859-6.532-2.61-9.301c-1.007-1.595-2.351-2.994-3.94-4.016
			c-0.991-0.629-2.104-1.117-3.282-1.229c-0.466-0.044-0.94-0.024-1.399,0.072c-0.621,0.128-1.215,0.377-1.786,0.648
			c-0.828,0.403-1.95,1.014-2.812,1.29c-0.733,0.241-1.505,0.375-2.273,0.434c-2.675,0.211-5.572-0.488-8.248-0.341
			c-0.964,0.056-1.938,0.239-2.811,0.664c-1.117,0.537-2.049,1.402-2.815,2.366c-1.006,1.247-1.746,2.768-2.433,4.21
			c-0.277,0.538-0.56,1.091-0.958,1.551c-0.228,0.264-0.503,0.501-0.83,0.632c-0.366,0.147-0.771,0.149-1.155,0.09
			c-0.691-0.109-1.355-0.386-1.994-0.663c-1.456-0.669-3.034-1.348-4.555-1.818c-1.575-0.502-3.238-0.872-4.871-1.135
			c-3.18-0.507-6.443-0.738-9.657-0.486c-1.155,0.091-2.345,0.254-3.479,0.49c-1.722,0.355-4.029,1.045-5.749,1.45
			c-2.123,0.494-4.333,0.793-6.511,0.557c-1.61-0.171-3.194-0.659-4.592-1.481c-0.912-0.536-1.755-1.213-2.416-2.043
			c-0.426-0.534-0.77-1.14-0.992-1.787c-0.423-1.199-0.544-2.65-0.914-3.863c-0.333-1.143-0.972-2.196-1.844-3.008
			c-0.642-0.606-1.432-1.052-2.281-1.293c-1.465-0.421-3.022-0.334-4.521-0.181l-2.995,0.369c-2.291,0.272-4.799,0.316-6.987,1.099
			c-1.165,0.415-2.244,1.067-3.2,1.848c-1.351,1.105-2.485,2.467-3.418,3.938c-1.344,2.121-2.27,4.51-2.739,6.975
			c-0.305,1.594-0.429,3.241-0.401,4.864c0.015,1.809,0.372,4.506,0.556,6.322c0.187,1.987,0.26,4.032-0.202,5.988
			c-1.717,7.027-7.959,11.906-11.465,17.976c-2.441,4.231-3.647,9.06-4.535,13.827l-1.167,6.828
			c-0.457,2.436-0.992,4.916-1.988,7.194c-0.655,1.496-1.531,2.922-2.717,4.056c-1.077,1.034-2.392,1.795-3.741,2.418
			c-2.168,1.008-5.172,1.917-7.402,2.806c-6.894,2.669-14.894,7.261-21.913,9.588c-7.758,2.634-15.956,3.948-24.126,4.352
			c-8.698,0.458-19.323-0.42-28.056-0.528c-4.781-0.062-9.778,0.182-14.54,0.606c-13.304,1.169-29.899,4.145-43.243,4.178
			c-9.115,0.087-18.312-1.154-27.242-2.909l-23.339-5.06c-5.857-1.155-11.891-2.033-17.857-2.269
			c-10.985-0.473-22.146,0.69-32.989,2.411c-31.048,5.002-60.742,16.566-86.982,33.899c-5.062,4.087-10.662,8.374-16.016,12.061
			c-4.402,3.109-11.478,7.312-16.162,10.116c-4.75,2.927-9.368,6.309-12.806,10.755c-2.473,3.174-4.37,6.789-5.902,10.499
			c-1.815,4.412-3.114,9.066-3.842,13.781c-0.717,5.094-1.9,14.882-2.417,19.992c-0.192,2.271-0.318,4.625-0.176,6.901
			c0.221,4.018,1.56,8.976,2.177,12.95c1.431,8.583,2.636,30.559,3.401,39.464c0.715,7.779,1.501,15.868,3.335,23.462
			c1.075,4.421,2.571,8.78,4.55,12.879c1.093,2.281,2.402,4.597,3.728,6.753c1.947,3.168,5.044,7.668,6.875,10.879
			c2.989,5.176,4.967,10.928,6.632,16.649c1.106,3.742,2.181,8.333,3.886,11.83c1.306,2.704,3.155,5.175,5.498,7.065
			c1.994,1.624,4.328,2.806,6.732,3.695c3.006,1.11,6.204,1.825,9.353,2.397c7.471,1.319,15.222,1.908,22.805,1.99
			c14.199-0.087,62.155,0.285,75.489-0.146c2.457-0.128,4.967-0.43,7.386-0.879c1.929-0.403,4.473-0.823,6.356-1.326
			c0.752-0.205,1.505-0.459,2.208-0.796c1.443-0.677,2.699-1.76,3.525-3.128c0.455-0.738,0.786-1.552,1.039-2.38
			c0.476-1.512,0.885-3.946,1.241-5.505c0.305-1.318,0.693-2.656,1.433-3.802c0.422-0.658,0.964-1.241,1.583-1.717
			c0.627-0.488,1.342-0.869,2.056-1.212l2.417-1.107c1.726-0.812,3.449-1.782,4.71-3.243c0.556-0.648,1.011-1.388,1.417-2.137
			c1.426-2.687,2.581-5.88,3.669-8.729c1.298-4.322,2.865-9.719,4.612-13.838c5.169-1.49,10.592-2.3,15.951-2.705
			c7.707-0.545,17.255-0.054,24.946-0.74c6.201-0.483,12.398-1.662,18.41-3.239c9.915-2.54,21.205-7.03,30.998-10.075
			c3.325-0.999,6.8-1.792,10.249-2.213c9.15-1.158,18.532-0.265,27.623,1.039c6.147,0.91,14.293,2.007,20.335,3.325
			c3.518,0.761,7.127,1.734,10.544,2.87c1.877,4.341,4.388,11.086,6.088,15.562c0.831,1.712,1.885,3.822,2.591,5.573
			c1.488,3.652,2.732,7.564,3.799,11.362c1.093,3.91,2.311,9.645,4.025,13.269c1.018,2.212,2.331,4.315,3.744,6.295
			c1.101,1.549,2.311,3.061,3.79,4.268c1.998,1.669,4.442,2.674,6.934,3.35c3.724,1.007,7.626,1.457,11.47,1.685
			c1.626,0.097,3.711,0.142,5.348,0.162c1.618-0.011,17.046,0.085,18.219-0.006c1.346-0.05,2.742-0.155,4.073-0.362
			c1.252-0.194,2.531-0.493,3.751-0.831c1.238-0.357,2.497-0.767,3.601-1.445c0.841-0.519,1.562-1.238,2.061-2.094
			c0.192-0.332,0.373-0.681,0.475-1.053c0.122-0.438,0.136-0.901,0.104-1.353c-0.04-0.588-0.158-1.185-0.286-1.76
			c-0.554-2.452-1.458-4.85-2.86-6.947c-1.929-2.93-4.636-5.284-7.582-7.153c-4.354-2.12-8.218-5.313-10.991-9.294
			c-1.539-2.205-2.714-4.674-3.519-7.238c-0.622-1.981-1.037-4.052-1.243-6.117c-0.271-2.441-0.147-6.268-0.149-8.749
			c-0.011-2.077-0.142-4.186-0.594-6.217c-0.718-3.347-2.238-7.11-3.065-10.434c-1.134-4.542-1.346-9.369-0.312-13.95
			c1.239-5.466,4.323-10.317,7.768-14.661c7.162-9.046,16.456-16.208,26.029-22.535l16.014-10.251
			c9.212-6.077,18.301-13.1,23.352-23.17c1.741-3.323,4.087-9.011,5.753-12.384c1.245-2.559,2.744-5.113,4.283-7.505
			c3.727-5.78,8.531-12.226,10.881-18.697c0.539-1.473,0.987-3.025,1.288-4.564c0.234-1.125,0.805-5.216,0.991-6.409
			C620.066,352.014,621.749,342.416,622.515,338.166z"/>
	</g>
</g>
</svg>
