<?xml version="1.0" encoding="utf-8"?>
<!-- Generator: Adobe Illustrator 25.2.1, SVG Export Plug-In . SVG Version: 6.00 Build 0)  -->
<!DOCTYPE svg PUBLIC "-//W3C//DTD SVG 1.1//EN" "http://www.w3.org/Graphics/SVG/1.1/DTD/svg11.dtd" [
	<!ENTITY ns_extend "http://ns.adobe.com/Extensibility/1.0/">
	<!ENTITY ns_ai "http://ns.adobe.com/AdobeIllustrator/10.0/">
	<!ENTITY ns_graphs "http://ns.adobe.com/Graphs/1.0/">
	<!ENTITY ns_vars "http://ns.adobe.com/Variables/1.0/">
	<!ENTITY ns_imrep "http://ns.adobe.com/ImageReplacement/1.0/">
	<!ENTITY ns_sfw "http://ns.adobe.com/SaveForWeb/1.0/">
	<!ENTITY ns_custom "http://ns.adobe.com/GenericCustomNamespace/1.0/">
	<!ENTITY ns_adobe_xpath "http://ns.adobe.com/XPath/1.0/">
]>
<svg version="1.1" xmlns:x="&ns_extend;" xmlns:i="&ns_ai;" xmlns:graph="&ns_graphs;"
	 xmlns="http://www.w3.org/2000/svg" xmlns:xlink="http://www.w3.org/1999/xlink" x="0px" y="0px" width="750px" height="750px"
	 viewBox="0 0 750 750" enable-background="new 0 0 750 750" xml:space="preserve">
<metadata>
	<sfw  xmlns="&ns_sfw;">
		<slices></slices>
		<sliceSourceBounds  bottomLeftOrigin="true" height="15952.342" width="6089.956" x="-3966.956" y="-6814"></sliceSourceBounds>
	</sfw>
</metadata>
<g id="FILL-BACKGROUND">
	<rect y="0" fill="#FFFFFF" width="750" height="750"/>
</g>
<g id="N-DIMENSIONS">
</g>
<g id="N-TEXT">
</g>
<g id="_x32_D_x24_AG-GUIDES">
</g>
<g id="_x32_D_x24_AG-DIAGRAM">
	<g id="POLYLINE_3655_">
		<g>
			<g>
				
					<line fill="none" stroke="#FB8604" stroke-width="3.25" stroke-linecap="round" stroke-linejoin="round" x1="141.987" y1="566.604" x2="143.987" y2="566.604"/>
				
					<line fill="none" stroke="#FB8604" stroke-width="3.25" stroke-linecap="round" stroke-linejoin="round" stroke-dasharray="4.0182,7.0318" x1="151.019" y1="566.604" x2="633.701" y2="566.604"/>
				
					<line fill="none" stroke="#FB8604" stroke-width="3.25" stroke-linecap="round" stroke-linejoin="round" x1="637.217" y1="566.604" x2="639.217" y2="566.604"/>
			</g>
		</g>
	</g>
</g>
<g id="_x32_D_x24_AG-DETAILS">
	<g id="POLYLINE_710_">
		<path fill="none" stroke="#FB8604" stroke-width="2" stroke-linecap="round" stroke-linejoin="round" stroke-miterlimit="10" d="
			M596.332,333.803c-12.659,3.763-25.067,10.799-33.181,21.41c-6.762,8.88-9.731,20.113-10.388,31.122"/>
	</g>
	<g id="POLYLINE_709_">
		<path fill="none" stroke="#FB8604" stroke-width="2" stroke-linecap="round" stroke-linejoin="round" stroke-miterlimit="10" d="
			M630.243,332.181c18.677-2.145,37.481,0.474,54.648,8.216"/>
	</g>
	<g id="POLYLINE_708_">
		<path fill="none" stroke="#FB8604" stroke-width="2" stroke-linecap="round" stroke-linejoin="round" stroke-miterlimit="10" d="
			M625.388,338.529c7.932,9.506,13.678,21.914,13.894,34.427c0.115,5.825-1.269,11.604-3.437,16.984"/>
	</g>
	<g id="POLYLINE_707_">
		<path fill="none" stroke="#FB8604" stroke-width="2" stroke-linecap="round" stroke-linejoin="round" stroke-miterlimit="10" d="
			M598.5,339.899c-7.792,11.694-11.79,24.892-11.328,38.963"/>
	</g>
	<g id="POLYLINE_706_">
		<path fill="none" stroke="#FB8604" stroke-width="2" stroke-linecap="round" stroke-linejoin="round" stroke-miterlimit="10" d="
			M626.501,334.439c15.253,7.372,29.019,18.79,37.916,33.308c4.182,6.803,7.029,14.401,8.803,22.171"/>
	</g>
	<g id="POLYLINE_705_">
		<path fill="none" stroke="#FB8604" stroke-width="2" stroke-linecap="round" stroke-linejoin="round" stroke-miterlimit="10" d="
			M599.145,336.13c-10.767,4.935-20.581,12.258-27.847,21.656c-4.355,5.64-7.696,12.068-10.112,18.762"/>
	</g>
</g>
<g id="_x32_D_x24_AG-ANIMALS">
	<g id="POLYLINE_2408_">
		
			<path fill="none" stroke="#FB8604" stroke-width="2.75" stroke-linecap="round" stroke-linejoin="round" stroke-miterlimit="10" d="
			M503.361,470.081c11.577,23.059,26.275,47.199,39.929,69.136c2.034,3.155,4.573,7.206,6.729,10.248
			c1.883,2.669,3.888,5.392,6.091,7.802c1.741,1.904,3.66,3.691,5.83,5.095c1.41,0.916,2.937,1.67,4.52,2.234
			c1.893,0.679,3.9,1.103,5.889,1.387c2.628,0.374,5.399,0.511,8.053,0.575c4.618,0.009,24.219,0.149,28.56-0.053
			c1.456-0.101,2.938-0.295,4.302-0.84c0.772-0.308,1.498-0.739,2.127-1.283c1.285-1.111,2.201-2.604,2.803-4.182
			c0.627-1.656,0.921-3.444,0.851-5.214c-0.11-2.601-0.963-5.169-2.407-7.333c-0.859-1.286-1.958-2.425-3.262-3.263
			c-1.568-1.017-3.383-1.597-5.204-1.961c-5.457-1.065-11.67-0.561-17.002-2.274c-1.544-0.507-3.021-1.233-4.378-2.127
			c-2.125-1.401-4.001-3.191-5.746-5.033c-2.046-2.185-3.826-4.673-4.966-7.453c-0.854-2.058-1.349-4.285-1.785-6.464
			c-0.428-2.322-1.701-9.313-2.143-11.462c-0.221-1.341-5.112-23.188-5.563-25.241c-0.487-2.335-1.099-5.151-1.422-7.495
			c-0.19-1.395-0.315-2.829-0.218-4.236c0.073-1.122,0.299-2.24,0.603-3.321c0.961-3.224,2.832-8.129,3.85-11.337
			c2.253-6.858,4.661-15.335,6.556-22.322"/>
	</g>
	<g id="POLYLINE_2407_">
		
			<path fill="none" stroke="#FB8604" stroke-width="2.75" stroke-linecap="round" stroke-linejoin="round" stroke-miterlimit="10" d="
			M286.487,473.686c27.647,12.611,85.745,20.685,112.474,4.128"/>
	</g>
	<g id="POLYLINE_2388_">
		
			<path fill="none" stroke="#FB8604" stroke-width="2.75" stroke-linecap="round" stroke-linejoin="round" stroke-miterlimit="10" d="
			M455.167,392.091c-13.898,9.565-29.118,20.051-42.012,30.87c-3.749,3.23-7.602,6.58-10.714,10.438
			c-0.986,1.263-1.889,2.64-2.365,4.182c-0.287,0.916-0.404,1.882-0.414,2.839c-0.009,0.651,0.031,1.364,0.078,2.015
			c0.195,2.183,0.419,5.102,0.494,7.273c0.273,8.426,0.208,17.039-0.856,25.41c-0.838,6.604-2.879,13.102-5.129,19.35
			c-4.933,13.693-12.811,32.529-15.855,46.585c-0.652,3.095-1.197,6.28-1.217,9.449c-0.015,2.558,0.399,5.191,1.696,7.43
			c1.726,3.008,4.627,5.209,7.814,6.494c1.994,0.817,4.128,1.299,6.259,1.592c3.067,0.426,6.325,0.521,9.423,0.567
			c2.119-0.038,20.259,0.112,21.857-0.06c0.564-0.053,1.133-0.147,1.664-0.35c0.652-0.243,1.22-0.678,1.668-1.207
			c0.819-0.974,1.377-2.147,1.848-3.321c0.716-1.85,1.203-3.814,1.342-5.795c0.09-1.353-0.02-2.736-0.44-4.03
			c-0.411-1.29-1.134-2.472-2.04-3.473c-2.013-2.233-5.248-3.999-7.743-5.654c-0.677-0.458-1.38-0.922-1.969-1.492
			c-0.259-0.256-0.494-0.545-0.646-0.878c-0.127-0.275-0.193-0.576-0.202-0.878c-0.019-0.749,0.233-1.476,0.507-2.163
			c0.83-1.967,2.04-3.904,3.133-5.738c5.689-9.081,13.424-21.098,18.834-30.324c1.949-3.193,4.157-6.725,6.365-9.735
			c2.464-3.373,5.235-6.596,8.401-9.33c4.206-3.662,9.212-6.404,14.574-7.943c4.138-1.203,8.514-1.745,12.794-2.169
			c5.409-0.456,15.462-1.164,20.658-1.911c3.689-0.511,7.451-1.239,11.068-2.125c7.725-1.887,15.36-4.627,22.609-7.894
			c8.482-3.831,16.755-8.545,24.313-13.979c6.715-4.829,13.048-10.293,18.783-16.254c5.596-5.833,10.703-12.253,14.834-19.211
			c4.954-8.282,8.211-17.541,10.91-26.77l4.221-15.122"/>
	</g>
	<g id="POLYLINE_2387_">
		
			<path fill="none" stroke="#FB8604" stroke-width="2.75" stroke-linecap="round" stroke-linejoin="round" stroke-miterlimit="10" d="
			M172.398,446.081c-5.121,7.394-10.836,15.284-15.013,23.23c-0.697,1.355-1.376,2.774-1.948,4.186
			c-0.363,0.912-0.733,1.843-0.964,2.797c-0.535,2.051-0.342,4.205,0.01,6.27c0.278,1.608,0.694,3.474,1.075,5.07
			c1.895,8.053,4.79,17.873,7.152,25.866c3.208,10.351,6.565,21.16,10.979,31.059c1.465,3.228,3.102,6.478,5.056,9.44
			c2.219,3.393,5.068,6.461,8.622,8.469c3.116,1.797,6.665,2.703,10.205,3.195c4.826,0.686,9.891,0.88,14.765,0.927
			c1.013,0.005,18.249,0.042,18.645-0.028c0.914-0.06,1.867-0.219,2.631-0.756c0.936-0.653,1.43-1.744,1.748-2.807
			c0.394-1.333,0.586-2.744,0.716-4.126c0.189-2.162,0.199-4.37,0.034-6.534c-0.124-1.493-0.314-3.013-0.731-4.455
			c-0.267-0.91-0.643-1.799-1.188-2.579c-0.469-0.676-1.065-1.264-1.734-1.742c-1.164-0.833-2.52-1.365-3.883-1.776
			c-4.234-1.223-9.872-1.804-14.149-2.879c-2.376-0.611-4.953-1.358-6.569-3.329c-0.559-0.68-0.961-1.482-1.22-2.321
			c-0.226-0.726-0.355-1.491-0.451-2.244c-0.122-1.118-0.292-2.607-0.51-3.704c-0.665-3.339-1.679-7.055-2.188-10.42
			c-0.585-3.644-0.847-7.413-0.78-11.102"/>
	</g>
	<g id="POLYLINE_2386_">
		
			<path fill="none" stroke="#FB8604" stroke-width="2.75" stroke-linecap="round" stroke-linejoin="round" stroke-miterlimit="10" d="
			M534.847,338.461c5.43,6.255,11.23,12.541,17.451,18.016c4.185,3.659,8.687,7.083,13.669,9.586c2.157,1.08,4.45,1.99,6.769,2.654
			c2.527,0.732,5.198,1.189,7.806,1.525c5.934,0.756,11.998,0.904,17.959,0.404c4.834-0.417,9.7-1.257,14.313-2.784
			c3.046-1.008,6.033-2.335,8.829-3.906c2.559-1.423,5.1-3.172,7.47-4.896c3.249-2.366,6.411-4.971,8.915-8.136
			c2.914-3.667,5.183-7.909,6.363-12.453c0.593-2.273,0.829-4.654,0.95-6.996c0.105-2.42,0.198-6.721,0.473-9.022
			c0.221-1.985,0.64-4.036,1.103-5.98c0.583-2.364,1.644-6.281,1.998-8.61c0.213-1.406,0.31-2.847,0.222-4.267
			c-0.092-1.584-0.42-3.164-0.896-4.676c-0.878-2.823-2.763-6.572-3.849-9.339c-0.661-1.672-1.248-3.404-1.549-5.181
			c-0.301-1.733-0.333-3.518-0.192-5.269c0.115-1.437,0.348-2.938,0.612-4.356c1.557-8.363,5.708-21.939,7.093-30.327
			c0.227-1.514,0.412-3.068,0.338-4.601c-0.074-1.483-0.456-3.04-1.505-4.143c-0.471-0.502-1.057-0.888-1.684-1.167
			c-0.937-0.427-1.985-0.607-3.01-0.498c-1.297,0.132-2.527,0.641-3.66,1.265c-1.383,0.767-2.691,1.76-3.933,2.738
			c-1.427,1.094-11.421,9.836-13.01,11.211c-2.979,2.517-8.254,6.92-11.325,9.355c-0.459,0.36-0.978,0.748-1.48,1.047
			c-0.239,0.138-0.495,0.261-0.765,0.323c-0.227,0.053-0.462,0.058-0.693,0.042c-0.67-0.056-1.532-0.195-2.148-0.27
			c-0.924-0.112-1.927-0.192-2.857-0.234c-2.84-0.123-5.843,0.023-8.682,0.202c-2.086,0.151-4.499,0.356-6.567,0.663
			c-1.4,0.197-3.024,0.559-4.394,0.852c-0.731,0.142-1.519,0.281-2.234,0.002c-0.364-0.139-0.688-0.367-0.981-0.621
			c-0.832-0.739-1.523-1.67-2.202-2.547c-3.233-4.315-7.983-11.08-11.485-15.055c-0.96-1.099-1.986-2.198-3.074-3.172
			c-1.147-1.025-2.414-1.949-3.826-2.574c-2.251-0.989-4.884-1.245-7.236-0.468c-1.809,0.592-3.344,1.855-4.422,3.409
			c-1.239,1.76-1.947,3.836-2.476,5.906c-1.647,6.408-2.053,16.232-2.704,22.872c-0.46,4.243-0.971,8.602-2.166,12.706
			c-0.578,2.055-1.379,4.077-2.628,5.821c-1.353,1.925-3.118,3.549-4.945,5.018c-2.959,2.354-6.216,4.378-9.529,6.194
			c-13.954,7.556-29.543,11.868-45.266,13.65c-9.91,1.157-20.141,1.237-30.106,0.774c-37.009-1.713-99.231-13.925-136.448-19.657
			c-7.382-1.125-16.663-2.497-24.075-3.187c-6.661-0.638-13.512-0.921-20.19-0.414c-12.378,0.899-26.735,4.015-39.149,4.278
			c-3.214,0.048-6.484-0.147-9.641-0.784c-2.509-0.505-4.987-1.304-7.277-2.455c-1.997-1.001-3.872-2.283-5.538-3.772
			c-1.973-1.745-3.65-3.821-5.202-5.939l-4.388-6.162c-1.528-2.069-3.179-4.099-5.052-5.864c-1.45-1.375-3.073-2.599-4.798-3.609
			c-4.466-2.648-10.713-4.706-15.354-7.046c-2.348-1.182-4.641-2.564-6.573-4.361c-1.898-1.761-3.391-3.935-4.502-6.267
			c-1.607-3.378-2.478-7.075-2.973-10.768c-0.817-6.213-0.602-12.609-0.16-18.846c0.45-6.554,1.463-14.566,1.583-21.118
			c0.026-2.21-0.075-4.47-0.424-6.654c-0.491-3.153-1.542-6.263-3.38-8.892c-1.002-1.416-2.14-2.785-3.541-3.823
			c-0.678-0.49-1.443-0.898-2.277-1.03c-0.59-0.094-1.205-0.028-1.757,0.199c-0.716,0.288-1.307,0.811-1.825,1.371
			c-1.105,1.215-2.535,3.345-3.518,4.702c-1.621,2.257-3.41,4.48-5.338,6.481c-3.278,3.478-10.589,9.366-14.29,12.556
			c-4.016,3.456-8.045,7.114-11.486,11.15c-3.637,4.251-6.738,9.035-8.769,14.262c-2.261,5.719-3.139,11.925-2.976,18.056
			c0.135,5.523,1.015,11.08,2.544,16.388c5.568,19.127,16.923,26.475,34.986,32.58c6.726,2.306,17.513,5.437,23.811,8.465
			c2.431,1.172,4.775,2.602,6.797,4.398c1.481,1.314,2.79,2.845,3.819,4.538c1.009,1.649,1.754,3.464,2.323,5.308
			c0.705,2.268,1.221,4.635,1.189,7.02c-0.02,2.795-0.778,5.544-1.878,8.098c-1.845,4.335-6.452,11.354-8.86,15.479
			c-1.951,3.361-3.847,6.863-5.165,10.525c-1.429,3.941-2.189,8.133-2.668,12.288c-0.391,3.522-0.856,9.014-1.518,12.403
			c-0.663,3.565-1.598,8.074-1.932,11.632c-0.273,2.763-0.323,5.596-0.111,8.364c0.467,5.842,1.841,11.671,3.45,17.298
			c1.284,4.291,2.707,8.711,4.642,12.755c0.587,1.189,1.258,2.361,2.101,3.388c1.009,1.238,2.377,2.342,3.444,3.529
			c2.402,2.72,4.869,6.128,7.444,8.685c1.707,1.73,3.579,3.345,5.642,4.638c4.234,2.639,9.118,4.05,13.95,5.142
			c2.608,0.584,7.219,1.445,9.682,2.174c0.757,0.228,1.516,0.469,2.227,0.814c0.561,0.274,1.116,0.616,1.499,1.119
			c0.16,0.211,0.281,0.451,0.351,0.706c0.089,0.32,0.097,0.658,0.061,0.987c-0.09,0.767-0.377,1.501-0.682,2.206
			c-0.294,0.692-0.708,1.456-1.059,2.124c-2.274,4.253-7.038,11.643-9.179,15.925c-0.966,1.919-1.881,3.942-2.085,6.104
			c-0.126,1.302,0.033,2.622,0.359,3.885c0.834,3.25,2.747,6.107,4.851,8.675c2.922,3.535,6.423,6.712,9.904,9.692
			c4.726,4.005,9.882,7.928,14.953,11.486c6.468,4.534,13.366,8.8,20.479,12.246c3.541,1.729,7.407,3.38,11.089,4.793
			c1.975,0.765,5.947,2.132,7.805,3.086c1.038,0.527,2.011,1.212,2.778,2.094c1.168,1.337,1.923,2.993,2.676,4.584
			c1.331,2.857,2.727,6.282,4.714,8.755c1.015,1.267,2.247,2.367,3.613,3.244c4.152,2.656,9.224,3.272,14.054,3.402
			c1.26,0.009,3.276,0.05,4.539,0.01c0.519-0.024,1.065-0.051,1.574-0.165c0.459-0.099,0.91-0.272,1.285-0.559
			c0.355-0.269,0.634-0.628,0.85-1.016c0.524-0.961,0.763-2.053,0.943-3.124c0.357-2.264,0.373-4.624,0.326-6.913
			c-0.101-3.511-0.444-7.084-1.153-10.526c-0.567-2.725-1.386-5.437-2.706-7.898c-1.575-2.98-3.898-5.511-6.484-7.647
			c-1.347-1.123-2.875-2.22-4.322-3.217c-4.99-3.35-13.629-8.631-18.521-12.022c-4.215-2.921-8.508-6.007-12.207-9.569
			c-0.937-0.917-1.855-1.897-2.639-2.95c-0.48-0.651-0.924-1.346-1.229-2.098c-0.296-0.726-0.444-1.53-0.31-2.31
			c0.131-0.801,0.545-1.53,1.058-2.148c0.76-0.912,1.718-1.649,2.686-2.327c2.353-1.69,11.961-6.878,14.589-8.419
			c6.162-3.593,12.485-7.431,18.127-11.789c2.961-2.297,5.801-4.834,8.172-7.744c1.854-2.263,3.425-4.774,4.647-7.432
			c1.893-4.117,3.043-8.57,3.95-12.996c1.647-8.421,2.252-17.218,0.577-25.682c-0.847-4.258-2.456-8.358-4.366-12.245
			c-4.437-8.928-10.617-18.287-15.924-26.754"/>
	</g>
	<g id="POLYLINE_2385_">
		
			<path fill="none" stroke="#FB8604" stroke-width="2.75" stroke-linecap="round" stroke-linejoin="round" stroke-miterlimit="10" d="
			M599.168,347.344c3.986,2.451,8.636,4.1,13.361,3.899c4.702-0.22,9.079-2.509,12.64-5.48"/>
	</g>
	<g id="POLYLINE_2384_">
		
			<path fill="none" stroke="#FB8604" stroke-width="2.75" stroke-linecap="round" stroke-linejoin="round" stroke-miterlimit="10" d="
			M575.074,335.138c4.605,6.86,12.154,12.441,20.672,12.491c2.761,0.025,5.553-0.549,8.002-1.848c2.03-1.054,4.188-2.6,6.347-3.378
			c1.068-0.391,2.21-0.658,3.354-0.582c0.769,0.051,1.519,0.279,2.234,0.559c2.797,1.158,5.77,2.785,8.781,3.283
			c2.796,0.504,5.707-0.116,8.215-1.4c2.804-1.436,5.24-3.752,6.456-6.691"/>
	</g>
	<g id="POLYLINE_2383_">
		
			<path fill="none" stroke="#FB8604" stroke-width="2.75" stroke-linecap="round" stroke-linejoin="round" stroke-miterlimit="10" d="
			M625.169,345.763c-7.135,6.709-18.108,7.375-26.001,1.58c1.848-0.32,3.628-0.995,5.254-1.925c2.695-1.496,5.524-3.614,8.733-3.611
			c0.652,0.008,1.3,0.147,1.918,0.351c1.006,0.321,3.372,1.452,4.368,1.879C621.269,344.825,623.18,345.537,625.169,345.763z"/>
	</g>
	<g id="POLYLINE_2382_">
		
			<path fill="none" stroke="#FB8604" stroke-width="2.75" stroke-linecap="round" stroke-linejoin="round" stroke-miterlimit="10" d="
			M625.169,345.763c-7.135,6.709-18.108,7.375-26.001,1.58c1.848-0.32,3.628-0.995,5.254-1.925c2.695-1.496,5.524-3.614,8.733-3.611
			c0.652,0.008,1.3,0.147,1.918,0.351c1.006,0.321,3.372,1.452,4.368,1.879C621.269,344.825,623.18,345.537,625.169,345.763z"/>
	</g>
</g>
<g id="_x32_D_x24_AG-OUTLINE">
	<g id="POLYLINE_101_">
		
			<path fill="none" stroke="#FB8604" stroke-width="3.5" stroke-linecap="round" stroke-linejoin="round" stroke-miterlimit="10" d="
			M609.707,368.782c3.742-0.98,7.408-2.405,10.823-4.219c3.263-1.718,6.403-3.884,9.365-6.08c3.316-2.451,6.468-5.225,8.91-8.568
			c2.623-3.553,4.663-7.596,5.699-11.9c0.512-2.13,0.723-4.355,0.838-6.54c0.105-2.42,0.198-6.721,0.473-9.022
			c0.221-1.985,0.64-4.036,1.103-5.98c0.583-2.364,1.644-6.281,1.998-8.61c0.213-1.406,0.31-2.847,0.222-4.267
			c-0.092-1.584-0.42-3.164-0.896-4.676c-0.878-2.823-2.763-6.572-3.849-9.339c-0.661-1.672-1.248-3.404-1.549-5.181
			c-0.301-1.733-0.333-3.518-0.192-5.269c0.115-1.437,0.348-2.938,0.612-4.356c1.557-8.363,5.708-21.939,7.093-30.327
			c0.227-1.514,0.412-3.068,0.338-4.601c-0.074-1.483-0.456-3.04-1.505-4.143c-0.471-0.502-1.057-0.888-1.684-1.167
			c-0.937-0.427-1.985-0.607-3.01-0.498c-1.297,0.132-2.527,0.641-3.66,1.265c-1.383,0.767-2.691,1.76-3.933,2.738
			c-1.427,1.094-11.421,9.836-13.01,11.211c-2.979,2.517-8.254,6.92-11.325,9.355c-0.459,0.36-0.978,0.748-1.48,1.047
			c-0.239,0.138-0.495,0.261-0.765,0.323c-0.227,0.053-0.462,0.058-0.693,0.042c-0.67-0.056-1.532-0.195-2.148-0.27
			c-0.924-0.112-1.927-0.192-2.857-0.234c-2.84-0.123-5.843,0.023-8.682,0.202c-2.086,0.151-4.499,0.356-6.567,0.663
			c-1.4,0.197-3.024,0.559-4.394,0.852c-0.731,0.142-1.519,0.281-2.234,0.002c-0.364-0.139-0.688-0.367-0.981-0.621
			c-0.832-0.739-1.523-1.67-2.202-2.547c-3.233-4.315-7.983-11.08-11.485-15.055c-0.96-1.099-1.986-2.198-3.074-3.172
			c-1.147-1.025-2.414-1.949-3.826-2.574c-2.251-0.989-4.884-1.245-7.236-0.468c-1.809,0.592-3.344,1.855-4.422,3.409
			c-1.239,1.76-1.947,3.836-2.476,5.906c-1.647,6.408-2.053,16.232-2.704,22.872c-0.46,4.243-0.971,8.602-2.166,12.706
			c-0.578,2.055-1.379,4.077-2.628,5.821c-1.353,1.925-3.118,3.549-4.945,5.018c-2.959,2.354-6.216,4.378-9.529,6.194
			c-13.954,7.556-29.543,11.868-45.266,13.65c-9.91,1.157-20.141,1.237-30.106,0.774c-37.009-1.713-99.231-13.925-136.448-19.657
			c-7.382-1.125-16.663-2.497-24.075-3.187c-6.661-0.638-13.512-0.921-20.19-0.414c-12.378,0.899-26.735,4.015-39.149,4.278
			c-3.214,0.048-6.484-0.147-9.641-0.784c-2.509-0.505-4.987-1.304-7.277-2.455c-1.997-1.001-3.872-2.283-5.538-3.772
			c-1.973-1.745-3.65-3.821-5.202-5.939l-4.388-6.162c-1.528-2.069-3.179-4.099-5.052-5.864c-1.45-1.375-3.073-2.599-4.798-3.609
			c-4.466-2.648-10.713-4.706-15.354-7.046c-2.348-1.182-4.641-2.564-6.573-4.361c-1.898-1.761-3.391-3.935-4.502-6.267
			c-1.607-3.378-2.478-7.075-2.973-10.768c-0.817-6.213-0.602-12.609-0.16-18.846c0.45-6.554,1.463-14.566,1.583-21.118
			c0.026-2.21-0.075-4.47-0.424-6.654c-0.491-3.153-1.542-6.263-3.38-8.892c-1.002-1.416-2.14-2.785-3.541-3.823
			c-0.678-0.49-1.443-0.898-2.277-1.03c-0.59-0.094-1.205-0.028-1.757,0.199c-0.716,0.288-1.307,0.811-1.825,1.371
			c-1.105,1.215-2.535,3.345-3.518,4.702c-1.621,2.257-3.41,4.48-5.338,6.481c-3.278,3.478-10.589,9.366-14.29,12.556
			c-4.016,3.456-8.045,7.114-11.486,11.15c-3.637,4.251-6.738,9.035-8.769,14.262c-2.261,5.719-3.139,11.925-2.976,18.056
			c0.135,5.523,1.015,11.08,2.544,16.388c5.568,19.127,16.923,26.475,34.986,32.58c6.726,2.306,17.513,5.437,23.811,8.465
			c2.431,1.172,4.775,2.602,6.797,4.398c1.481,1.314,2.79,2.845,3.819,4.538c1.009,1.649,1.754,3.464,2.323,5.308
			c0.705,2.268,1.221,4.635,1.189,7.02c-0.02,2.795-0.778,5.544-1.878,8.098c-1.845,4.335-6.452,11.354-8.86,15.479
			c-1.951,3.361-3.847,6.863-5.165,10.525c-1.429,3.941-2.189,8.133-2.668,12.288c-0.384,3.503-0.861,9.028-1.518,12.403
			c-0.983,5.219-2.2,10.934-2.175,16.237c-0.031,3.882,0.5,7.794,1.25,11.597c0.975,4.896,2.362,9.894,3.959,14.625
			c1.132,3.21,2.291,6.557,4.052,9.481c0.448,0.724,0.963,1.419,1.539,2.047c0.903,0.982,2.075,1.987,2.968,2.979
			c1.546,1.716,3.523,4.332,5.043,6.069c-5.121,7.394-10.836,15.284-15.013,23.23c-0.697,1.355-1.376,2.774-1.948,4.186
			c-0.363,0.912-0.733,1.843-0.964,2.797c-0.535,2.051-0.342,4.205,0.01,6.27c0.278,1.608,0.694,3.474,1.075,5.07
			c1.895,8.053,4.79,17.873,7.152,25.866c3.208,10.351,6.565,21.16,10.979,31.059c1.465,3.228,3.102,6.478,5.056,9.44
			c2.219,3.393,5.068,6.461,8.622,8.469c3.116,1.797,6.665,2.703,10.205,3.195c4.826,0.686,9.891,0.88,14.765,0.927
			c1.013,0.005,18.249,0.042,18.645-0.028c0.914-0.06,1.867-0.219,2.631-0.756c0.936-0.653,1.43-1.744,1.748-2.807
			c0.394-1.333,0.586-2.744,0.716-4.126c0.189-2.162,0.199-4.37,0.034-6.534c-0.124-1.493-0.314-3.013-0.731-4.455
			c-0.267-0.91-0.643-1.799-1.188-2.579c-0.469-0.676-1.065-1.264-1.734-1.742c-1.164-0.833-2.52-1.365-3.883-1.776
			c-4.234-1.223-9.872-1.804-14.149-2.879c-2.376-0.611-4.953-1.358-6.569-3.329c-0.559-0.68-0.961-1.482-1.22-2.321
			c-0.226-0.726-0.355-1.491-0.451-2.244c-0.122-1.118-0.292-2.607-0.51-3.704c-0.665-3.339-1.679-7.055-2.188-10.42
			c-0.585-3.644-0.847-7.413-0.78-11.102c4.454,4.674,9.627,8.88,14.723,12.835c6.786,5.185,13.986,10.181,21.426,14.382
			c4.129,2.318,8.567,4.51,12.922,6.363c3.079,1.349,7.444,2.916,10.606,4.132c1.59,0.634,3.22,1.332,4.481,2.521
			c0.916,0.853,1.6,1.928,2.184,3.027c1.224,2.321,2.423,5.35,3.676,7.654c0.765,1.418,1.641,2.808,2.74,3.993
			c1.378,1.503,3.078,2.702,4.923,3.562c3.358,1.568,7.107,2.094,10.779,2.271c1.56,0.092,3.62,0.062,5.185,0.07
			c0.519-0.013,1.119-0.015,1.637-0.081c0.603-0.07,1.218-0.212,1.731-0.55c0.452-0.294,0.795-0.73,1.045-1.203
			c0.306-0.579,0.506-1.214,0.662-1.848c0.215-0.886,0.341-1.82,0.429-2.727c0.264-2.994,0.165-6.078-0.063-9.072
			c-0.232-2.761-0.621-5.575-1.278-8.266c-0.528-2.157-1.247-4.298-2.279-6.269c-1.413-2.737-3.455-5.116-5.763-7.139
			c-1.924-1.696-4.106-3.228-6.235-4.658c-9.497-6.23-20.739-12.659-29.101-20.339c-1.269-1.204-2.511-2.483-3.505-3.928
			c-0.532-0.788-1.004-1.648-1.187-2.59c-0.129-0.655-0.089-1.345,0.137-1.975c0.272-0.773,0.779-1.443,1.346-2.026
			c0.671-0.687,1.452-1.28,2.237-1.83c2.304-1.664,10.476-6.028,13.035-7.526c5.814-3.328,11.851-6.967,17.282-10.885
			c27.647,12.611,85.745,20.685,112.474,4.128c-0.958,5.661-2.781,11.257-4.715,16.654c-4.933,13.693-12.811,32.529-15.855,46.585
			c-0.652,3.095-1.197,6.28-1.217,9.449c-0.015,2.558,0.399,5.191,1.696,7.43c1.726,3.008,4.627,5.209,7.814,6.494
			c1.994,0.817,4.128,1.299,6.259,1.592c3.067,0.426,6.325,0.521,9.423,0.567c2.119-0.038,20.259,0.112,21.857-0.06
			c0.564-0.053,1.133-0.147,1.664-0.35c0.652-0.243,1.22-0.678,1.668-1.207c0.819-0.974,1.377-2.147,1.848-3.321
			c0.716-1.85,1.203-3.814,1.342-5.795c0.09-1.353-0.02-2.736-0.44-4.03c-0.411-1.29-1.134-2.472-2.04-3.473
			c-2.013-2.233-5.248-3.999-7.743-5.654c-0.677-0.458-1.38-0.922-1.969-1.492c-0.259-0.256-0.494-0.545-0.646-0.878
			c-0.127-0.275-0.193-0.576-0.202-0.878c-0.018-0.639,0.169-1.266,0.388-1.859c0.654-1.691,1.662-3.351,2.575-4.918
			c3.638-5.999,10.283-16.208,13.927-22.174c3.465-5.673,8.049-13.71,11.949-19.009c2.464-3.373,5.235-6.596,8.401-9.33
			c4.206-3.662,9.212-6.404,14.574-7.943c4.058-1.181,8.347-1.723,12.544-2.145l14.759-1.228c2.011-0.196,4.547-0.476,6.539-0.762
			c11.577,23.059,26.275,47.199,39.929,69.136c2.034,3.155,4.573,7.206,6.729,10.248c1.883,2.669,3.888,5.392,6.091,7.802
			c1.741,1.904,3.66,3.691,5.83,5.095c1.41,0.916,2.937,1.67,4.52,2.234c1.893,0.679,3.9,1.103,5.889,1.387
			c2.628,0.374,5.399,0.511,8.053,0.575c4.618,0.009,24.219,0.149,28.56-0.053c1.456-0.101,2.938-0.295,4.302-0.84
			c0.772-0.308,1.498-0.739,2.127-1.283c1.285-1.111,2.201-2.604,2.803-4.182c0.627-1.656,0.921-3.444,0.851-5.214
			c-0.11-2.601-0.963-5.169-2.407-7.333c-0.859-1.286-1.958-2.425-3.262-3.263c-1.568-1.017-3.383-1.597-5.204-1.961
			c-5.457-1.065-11.67-0.561-17.002-2.274c-1.544-0.507-3.021-1.233-4.378-2.127c-2.125-1.401-4.001-3.191-5.746-5.033
			c-2.046-2.185-3.826-4.673-4.966-7.453c-0.854-2.058-1.349-4.285-1.785-6.464c-0.428-2.322-1.701-9.313-2.143-11.462
			c-0.221-1.341-5.112-23.188-5.563-25.241c-0.487-2.335-1.099-5.151-1.422-7.495c-0.19-1.395-0.315-2.829-0.218-4.236
			c0.073-1.122,0.299-2.24,0.603-3.321c0.961-3.224,2.832-8.129,3.85-11.337c2.253-6.858,4.661-15.335,6.556-22.322
			c8.013-7.713,15.22-16.46,20.477-26.293c3.943-7.381,6.701-15.457,9.052-23.469L609.707,368.782z"/>
	</g>
</g>
</svg>
