<?xml version="1.0" encoding="utf-8"?>
<!-- Generator: Adobe Illustrator 25.2.1, SVG Export Plug-In . SVG Version: 6.00 Build 0)  -->
<!DOCTYPE svg PUBLIC "-//W3C//DTD SVG 1.1//EN" "http://www.w3.org/Graphics/SVG/1.1/DTD/svg11.dtd" [
	<!ENTITY ns_extend "http://ns.adobe.com/Extensibility/1.0/">
	<!ENTITY ns_ai "http://ns.adobe.com/AdobeIllustrator/10.0/">
	<!ENTITY ns_graphs "http://ns.adobe.com/Graphs/1.0/">
	<!ENTITY ns_vars "http://ns.adobe.com/Variables/1.0/">
	<!ENTITY ns_imrep "http://ns.adobe.com/ImageReplacement/1.0/">
	<!ENTITY ns_sfw "http://ns.adobe.com/SaveForWeb/1.0/">
	<!ENTITY ns_custom "http://ns.adobe.com/GenericCustomNamespace/1.0/">
	<!ENTITY ns_adobe_xpath "http://ns.adobe.com/XPath/1.0/">
]>
<svg version="1.1" xmlns:x="&ns_extend;" xmlns:i="&ns_ai;" xmlns:graph="&ns_graphs;"
	 xmlns="http://www.w3.org/2000/svg" xmlns:xlink="http://www.w3.org/1999/xlink" x="0px" y="0px" width="750px" height="750px"
	 viewBox="0 0 750 750" enable-background="new 0 0 750 750" xml:space="preserve">
<metadata>
	<sfw  xmlns="&ns_sfw;">
		<slices></slices>
		<sliceSourceBounds  bottomLeftOrigin="true" height="15952.342" width="6089.956" x="-3966.956" y="-6814"></sliceSourceBounds>
	</sfw>
</metadata>
<g id="FILL-BACKGROUND">
	<rect y="0" fill="#FFFFFF" width="750" height="750"/>
</g>
<g id="N-DIMENSIONS">
</g>
<g id="N-TEXT">
</g>
<g id="_x32_D_x24_AG-GUIDES">
</g>
<g id="_x32_D_x24_AG-DIAGRAM">
	<g id="POLYLINE_3644_">
		<g>
			<g>
				
					<line fill="none" stroke="#FB8604" stroke-width="3.25" stroke-linecap="round" stroke-linejoin="round" x1="133.892" y1="589.879" x2="135.892" y2="589.879"/>
				
					<line fill="none" stroke="#FB8604" stroke-width="3.25" stroke-linecap="round" stroke-linejoin="round" stroke-dasharray="3.9692,6.9461" x1="142.838" y1="589.879" x2="619.64" y2="589.879"/>
				
					<line fill="none" stroke="#FB8604" stroke-width="3.25" stroke-linecap="round" stroke-linejoin="round" x1="623.113" y1="589.879" x2="625.113" y2="589.879"/>
			</g>
		</g>
	</g>
</g>
<g id="_x32_D_x24_AG-DETAILS">
	<g id="POLYLINE_690_">
		<path fill="none" stroke="#FB8604" stroke-width="2" stroke-linecap="round" stroke-linejoin="round" stroke-miterlimit="10" d="
			M632.046,248.674c4.871-1.748,10.009-2.924,15.171-3.344c8.33-0.67,16.792,0.531,24.695,3.208"/>
	</g>
	<g id="POLYLINE_689_">
		<path fill="none" stroke="#FB8604" stroke-width="2" stroke-linecap="round" stroke-linejoin="round" stroke-miterlimit="10" d="
			M633.818,254.506c5.939,1.982,11.61,4.921,16.453,8.909c6.703,5.536,11.794,12.909,15.143,20.901"/>
	</g>
	<g id="POLYLINE_688_">
		<path fill="none" stroke="#FB8604" stroke-width="2" stroke-linecap="round" stroke-linejoin="round" stroke-miterlimit="10" d="
			M632.499,250.186c4.839-0.441,9.954-0.389,14.811-0.234c4.168,0.168,8.402,0.571,12.442,1.643c1.759,0.467,3.502,1.07,5.159,1.822
			c2.642,1.197,5.141,2.765,7.46,4.501"/>
	</g>
	<g id="POLYLINE_687_">
		<path fill="none" stroke="#FB8604" stroke-width="2" stroke-linecap="round" stroke-linejoin="round" stroke-miterlimit="10" d="
			M613.752,250.007c-2.442-0.732-5.114-1.407-7.6-1.968c-4.895-1.009-16.036-3.319-20.811-4.346
			c-7.214-1.415-14.918-2.543-22.052-0.177c-4.579,1.543-8.571,4.47-12.072,7.743"/>
	</g>
	<g id="POLYLINE_662_">
		<path fill="none" stroke="#FB8604" stroke-width="2" stroke-linecap="round" stroke-linejoin="round" stroke-miterlimit="10" d="
			M617.26,253.058c-7.791,6.064-14.397,13.805-18.686,22.726c-2.742,5.719-4.494,11.909-5.387,18.181"/>
	</g>
	<g id="POLYLINE_313_">
		<path fill="none" stroke="#FB8604" stroke-width="2" stroke-linecap="round" stroke-linejoin="round" stroke-miterlimit="10" d="
			M612.715,251.375c-11.873-0.231-23.909,1.802-34.808,6.597c-10.542,4.656-19.847,11.914-27.479,20.506"/>
	</g>
</g>
<g id="_x32_D_x24_AG-ANIMALS">
	<g id="POLYLINE_2381_">
		
			<path fill="none" stroke="#FB8604" stroke-width="2.75" stroke-linecap="round" stroke-linejoin="round" stroke-miterlimit="10" d="
			M605.477,248.912c-1.038,2.657-1.76,5.541-1.426,8.409c0.267,2.218,1.228,4.436,2.964,5.89c2.023,1.686,4.813,2.107,7.369,1.85
			c3.545-0.368,6.938-2.146,9.253-4.856c0.616-0.73,1.133-1.551,1.566-2.401c0.539-1.029,1.118-2.613,1.553-3.7
			c0.312-0.751,0.649-1.516,1.072-2.211c0.189-0.3,0.393-0.605,0.67-0.831c0.095-0.074,0.209-0.142,0.333-0.137l0.005,0l0.005,0
			l0.005,0l0.005,0.001l0.005,0.001l0.005,0.001l0.005,0.001l0.005,0.001l0.005,0.001l0.005,0.001l0.005,0.001l0.005,0.001
			l0.005,0.001l0.005,0.001l0.005,0.002l0.005,0.002l0.005,0.002l0.005,0.002l0.005,0.002l0.005,0.002l0.005,0.002
			c0.103,0.048,0.173,0.145,0.228,0.241c0.086,0.158,0.139,0.333,0.184,0.506c0.094,0.378,0.145,0.78,0.185,1.168
			c0.135,1.6,0.271,3.342,0.645,4.9c0.315,1.358,0.793,2.689,1.454,3.918c0.61,0.142,1.278,0.107,1.832-0.203
			c0.596-0.326,1.015-0.897,1.307-1.498c0.313-0.649,0.503-1.356,0.632-2.063c0.18-1.002,0.217-2.034,0.117-3.047
			c-0.19-1.962-0.912-3.854-1.976-5.507c-0.65-2.346-1.959-4.491-3.667-6.218c-0.373-0.376-0.776-0.741-1.187-1.076
			c-0.542-0.44-1.319-1.02-1.79-1.527c-0.33-0.348-0.61-0.75-0.789-1.197c-0.449-1.109-0.481-2.493-0.625-3.672
			c-0.133-1.07-0.288-2.22-0.969-3.096c-0.306-0.386-0.717-0.676-1.154-0.897c-0.697-0.349-1.466-0.546-2.226-0.706
			c-2.79-0.512-5.726-1.073-8.566-1.126c-1.417-0.031-3.084,0.136-4.475-0.176c-2.307-0.472-3.654-2.671-4.543-4.675l-0.777-1.779
			c-0.442-0.992-0.968-1.969-1.702-2.777c-1.863-2.058-4.479-3.232-7.049-4.152c-2.575-0.903-5.285-1.462-8.013-1.577
			c-2.518-0.111-5.058,0.17-7.511,0.742l-2.747,0.7c-0.561,0.133-1.15,0.254-1.723,0.319c-6.382,1.109-12.954,1.904-19.431,1.324
			c-0.215-0.009-0.51-0.027-0.724-0.045c-1.21-0.146-3.342-0.197-4.582-0.252c-1.486-0.082-3.004-0.211-4.46-0.523
			c-0.893-0.194-1.785-0.457-2.607-0.86c-1.805-0.871-3.071-2.484-4.053-4.185c-1.241-2.2-2.52-4.718-4.003-6.759
			c-0.74-1.044-1.558-2.06-2.418-3.008c-0.752-0.826-1.56-1.631-2.441-2.319c-1.034-0.801-2.217-1.499-3.535-1.665
			c-0.684-0.088-1.384,0.003-2.032,0.235c-1.146,0.409-2.146,1.169-2.957,2.065c-0.555,0.618-1.029,1.317-1.374,2.073
			c-0.316,0.692-0.523,1.435-0.638,2.186c-0.185,1.205-0.144,2.445-0.041,3.656c0.095,1.061,0.362,3.188,0.436,4.245
			c0.072,1,0.095,2.038,0.074,3.04c-0.049,3.895-0.937,7.954-1.726,11.763c-0.367,1.927-0.651,3.915-0.611,5.88
			c0.013,0.675,0.066,1.403,0.133,2.075c0.265,2.753,0.933,6.038,0.225,8.75c-0.337,1.309-0.98,2.525-1.691,3.668
			c-1.179,1.887-2.716,3.819-3.722,5.806c-0.614,1.21-1.056,2.512-1.379,3.828c-0.572,2.228-0.883,5.513-1.182,7.814
			c-0.236,1.847-0.612,3.87-0.996,5.695l-2.115,9.315c-0.444,2.101-0.839,4.306-1.05,6.441c-0.155,1.415-0.193,3.238-0.221,4.673
			c-0.049,1.331-0.204,2.706-0.844,3.896c-0.637,1.207-1.623,2.2-2.717,3c-1.792,1.305-3.909,2.125-6.079,2.535
			c-3.174,0.584-6.463,0.535-9.674,0.34c-4.723-0.349-10.577-1.065-15.286-1.682c-5.191-0.734-10.432-1.788-15.41-3.446
			c-1.204-0.407-2.434-0.862-3.552-1.471c-0.77-0.416-1.496-0.933-2.087-1.583c-0.341-0.349-0.715-0.85-1.141-1.093
			c-0.234-0.132-0.505-0.176-0.77-0.191l-0.68-0.032c-4.281-0.357-10.696-1.664-14.983-2.117c-0.404-0.054-0.815-0.121-1.205-0.241
			c-0.407-0.13-0.85-0.328-1.26-0.446c-1.402-0.421-3.137-0.649-4.488-1.216c-0.158-0.073-0.314-0.157-0.441-0.276
			c-0.143-0.131-0.252-0.305-0.404-0.427c-0.184-0.149-0.4-0.253-0.617-0.344c-0.503-0.206-1.046-0.342-1.576-0.458
			c-2.027-0.439-4.201-0.56-6.27-0.657c-2.005-0.141-4.33-0.562-6.337-0.631c-0.64-0.022-1.284-0.005-1.904,0.175
			c-0.213,0.053-0.436,0.069-0.652,0.018c-0.282-0.056-0.801-0.269-1.08-0.366c-0.318-0.114-0.664-0.216-0.991-0.301
			c-1.058-0.268-2.149-0.45-3.239-0.52c-0.553-0.025-1.127-0.048-1.664,0.109c-0.394,0.12-0.75,0.345-1.095,0.565
			c-0.633,0.401-1.296,0.916-2.021,1.132c-0.276,0.081-0.56,0.077-0.834-0.01c-0.51-0.168-0.977-0.466-1.513-0.597
			c-1.961-0.484-4.024-0.236-5.984,0.135c-1.718,0.346-4.18,0.951-5.906,1.071c-1.877,0.158-4.421,0.004-6.321-0.04
			c-0.741-0.014-1.589-0.001-2.33,0.03l-4.035,0.22c-1.642,0.07-3.318,0.073-4.942-0.198c-1.891-0.305-4.073-1.169-5.92-1.679
			c-0.706-0.195-1.443-0.363-2.169-0.464c-1.177-0.167-2.647-0.201-3.838-0.286c-1.257-0.092-2.538-0.26-3.703-0.764
			c-0.511-0.22-1.001-0.516-1.47-0.815c-0.385-0.255-2.116-1.342-2.467-1.608c-0.4-0.277-0.865-0.69-1.233-1.007
			c-0.371-0.312-0.773-0.61-1.237-0.768c-0.522-0.176-1.117-0.196-1.625,0.034c-0.557,0.26-0.917,0.821-1.293,1.284
			c-0.208,0.255-0.431,0.517-0.73,0.667c-0.182,0.091-0.389,0.122-0.59,0.118c-0.623-0.023-1.246-0.298-1.838-0.474
			c-0.552-0.172-1.135-0.265-1.709-0.324c-0.666-0.066-1.531-0.122-2.177-0.271c-0.46-0.1-0.916-0.263-1.353-0.438
			c-0.787-0.309-1.886-0.844-2.703-1.015c-0.414-0.092-0.851-0.13-1.268-0.033c-0.361,0.08-0.682,0.278-0.968,0.508
			c-0.679,0.546-1.242,1.293-1.996,1.744c-0.605,0.365-1.308,0.537-2.008,0.596c-1.546,0.128-3.223-0.21-4.77-0.172
			c-1.338,0.026-2.725,0.394-4.054,0.521c-2.005,0.2-4.236-0.303-6.216-0.61c-1.124-0.173-2.28-0.3-3.417-0.24
			c-1,0.044-2.11,0.218-3.103,0.37c-0.994,0.16-2.438,0.384-3.409,0.585c-2.393,0.491-4.842,1.17-6.837,2.634
			c-0.939,0.685-1.726,1.571-2.309,2.576c-0.66,1.095-1.288,2.469-2.341,3.241c-0.655,0.487-1.438,0.781-2.233,0.944
			c-1.174,0.241-2.394,0.207-3.575,0.028c-1.672-0.245-3.513-0.814-5.212-0.762c-1.763,0.053-3.474,0.819-5.126,1.366
			c-0.379,0.129-2.171,0.682-2.589,0.812c-0.866,0.279-1.737,0.611-2.548,1.022c-1.115,0.542-2.361,1.316-3.574,1.579
			c-0.535,0.12-1.094,0.13-1.636,0.05c-0.709-0.102-1.397-0.344-2.054-0.626c-1.077-0.462-2.533-1.27-3.605-1.745
			c-0.766-0.343-1.568-0.643-2.386-0.833c-0.877-0.206-1.923-0.321-2.797-0.537c-0.58-0.147-1.171-0.356-1.615-0.771
			c-0.472-0.445-0.694-1.082-0.861-1.694c-0.287-1.073-0.419-2.278-0.936-3.274c-1.127-2.173-3.606-3.23-5.617-4.417
			c-0.62-0.362-1.243-0.752-1.811-1.19c-0.638-0.489-1.247-1.055-1.813-1.626c-1.645-1.649-3.183-3.647-5.261-4.772
			c-1.703-0.929-3.882-1.408-5.714-2.027c-1.161-0.38-2.29-0.893-3.323-1.545c-1.473-0.912-3.09-2.223-4.521-3.201
			c-0.849-0.587-2.962-1.997-3.751-2.624c-0.726-0.557-1.442-1.183-2.096-1.823c-2.854-2.773-5.44-6.7-8.06-9.687
			c-1.345-1.555-2.857-2.999-4.504-4.231l-3.302-2.452c-1.327-1.022-2.633-2.131-3.647-3.474c-2.28-3-3.242-7.068-4.383-10.607
			c-0.872-2.78-2.003-5.509-3.463-8.032c-0.775-1.347-1.658-2.662-2.612-3.889c-1.28-1.636-2.939-3.554-3.833-5.43
			c-0.648-1.31-1.027-2.751-1.155-4.205c-0.11-1.27-0.041-2.57,0.276-3.807c0.318-1.236,0.912-2.445,1.893-3.286
			c1.514-1.277,3.587-1.639,5.468-2.061c1.83-0.373,3.801-0.864,5.629-0.243c0.74,0.258,1.401,0.716,1.951,1.271
			c0.653,0.663,1.163,1.47,1.475,2.347c0.524,1.434,0.516,3.115,1.224,4.485c0.325,0.619,0.787,1.16,1.309,1.623
			c0.823,0.729,1.791,1.287,2.772,1.774c1.094,0.545,3.557,1.547,4.708,2.038c0.712,0.3,4.593,2.017,5.261,2.245
			c0.548,0.198,1.121,0.374,1.707,0.4c0.417,0.019,0.852-0.059,1.2-0.3c0.299-0.204,0.528-0.498,0.702-0.812
			c0.235-0.429,0.378-0.908,0.432-1.393c0.141-1.161-0.382-2.269-0.433-3.408c-0.038-0.988,0.508-1.871,1.038-2.663
			c0.344-0.517,0.88-1.236,1.179-1.765c0.278-0.473,0.535-0.986,0.744-1.492c0.945-2.255,1.122-4.784,0.695-7.179
			c-0.39-2.227-1.239-4.37-2.376-6.319c-0.895-1.573-2.16-3.119-3.327-4.504c-0.52-0.645-1.019-1.328-1.38-2.076
			c-0.376-0.742-0.601-1.802-0.817-2.608c-0.157-0.563-0.346-1.13-0.671-1.62c-0.337-0.508-0.801-0.921-1.291-1.277
			c-0.741-0.54-1.689-1.037-2.46-1.537c-0.572-0.367-1.116-0.797-1.623-1.249c-1.859-1.667-3.557-3.859-5.953-4.776
			c-1.956-0.782-4.105-0.952-6.193-0.876c-1.701,0.045-4.037,0.429-5.741,0.591c-0.847,0.073-1.715,0.1-2.56,0.001
			c-0.607-0.069-1.21-0.217-1.791-0.4c-1.218-0.387-2.705-1.043-3.94-1.371c-1.273-0.353-2.592-0.573-3.912-0.63
			c-1.622-0.07-3.266,0.109-4.819,0.59c-2.606,0.806-4.953,2.47-6.505,4.722l-1.081,1.561c-0.364,0.509-0.758,1.006-1.207,1.442
			c-0.345,0.335-0.738,0.634-1.136,0.904c-1.256,0.868-2.803,1.569-3.554,2.969c-0.623,1.137-0.845,2.548-1.179,3.791
			c-0.224,0.875-0.556,1.729-1.006,2.513c-0.939,1.663-2.474,3.369-3.622,4.9c-1.02,1.332-1.936,2.769-2.548,4.335
			c-1.256,3.145-1.577,6.582-1.703,9.939c-0.103,2.725,0.028,6.245-0.404,8.926c-0.13,0.81-0.323,1.627-0.584,2.405
			c-0.402,1.209-1.132,2.837-1.509,4.053c-1.145,3.632-1.43,7.603-0.462,11.307c1.405,5.426,5.57,10.18,8.82,14.622
			c1.18,1.595,2.375,3.348,3.352,5.074c1.296,2.273,2.424,4.748,3.426,7.165c1.973,4.77,3.886,10.361,7.232,14.366
			c2.197,2.689,5.406,4.646,7.998,6.914c1.876,1.615,4.428,4.077,6.266,5.733c1.643,1.505,4.22,3.496,5.926,4.89
			c2.835,2.313,5.578,4.866,7.526,7.992c0.921,1.465,1.925,3.296,3.097,4.548c1.417,1.525,3.305,2.514,5.225,3.259
			c1.739,0.686,4.089,1.319,5.87,1.924c0.62,0.222,1.243,0.475,1.814,0.804c0.466,0.269,0.907,0.596,1.26,1.004
			c0.253,0.291,0.453,0.628,0.598,0.985c0.613,1.562,0.484,3.374,0.866,4.991c0.233,1.079,0.797,2.058,1.555,2.854
			c1.404,1.505,3.594,2.643,5.341,3.712c2.005,1.209,3.876,2.682,5.599,4.264c1.467,1.352,2.949,2.78,4.061,4.446
			c1.116,1.667,1.884,3.584,2.166,5.574c0.209,1.528,0.117,3.156-0.593,4.55c-0.619,1.211-1.638,2.163-2.655,3.04
			c-1.263,1.056-2.713,2.211-3.748,3.474c-1.046,1.244-1.904,2.651-2.594,4.121c-0.871,1.852-1.501,3.839-2.005,5.819
			c-0.475,1.906-0.906,3.937-1.2,5.878c-0.412,2.788-0.552,5.674,0.065,8.443c0.139,0.623,0.322,1.258,0.539,1.858
			c0.193,0.578,0.863,2.058,1.11,2.647c0.385,0.912,0.726,1.863,0.856,2.848c0.211,1.516,0.037,3.063-0.237,4.56
			c-0.126,0.717-0.543,2.554-0.707,3.292c-0.194,0.83-0.481,2.269-0.72,3.071c-0.362,1.293-0.868,2.573-1.678,3.654
			c-0.873,1.173-2.098,2.183-3.025,3.311c-0.409,0.499-0.777,1.045-1.005,1.652c-0.294,0.786-0.342,1.642-0.312,2.474
			c0.049,1.333,0.317,2.815,0.318,4.15c0.001,0.629-0.066,1.265-0.194,1.881c-0.78,3.651-3.499,6.627-5.395,9.738
			c-0.603,0.971-1.148,2.005-1.575,3.066c-0.706,1.731-1.176,3.578-1.564,5.404l-0.958,4.786c-0.906,4.27-2.301,8.508-4.613,12.234
			c-3.007,4.873-7.897,9.261-11.905,13.336c-3.573,3.645-7.085,7.511-9.962,11.736c-2.966,4.337-5.282,9.22-6.099,14.443
			c-0.855,5.209-0.563,10.633-0.273,15.883c0.52,9.03,1.22,18.453,3.558,27.211l2.841,10.526c1.477,5.754,3.16,14.426,4.636,20.181
			c0.958,3.746,2.251,8.031,3.409,11.727c0.803,2.971,1.498,6.29,2.668,9.13c0.623,1.53,1.468,2.998,2.343,4.397
			c0.667,1.064,1.412,2.105,2.336,2.962c0.771,0.723,1.67,1.314,2.625,1.765c1.519,0.719,3.184,1.103,4.848,1.293
			c1.682,0.199,3.52,0.233,5.217,0.255c5.409-0.032,12.123,0.089,17.468-0.336c1.385-0.114,2.831-0.262,4.191-0.549
			c1.244-0.261,2.674-0.674,3.937-0.82c1.46-0.226,3.277-0.215,4.502-1.146c0.754-0.574,1.254-1.417,1.639-2.269
			c0.633-1.443,0.966-3.019,0.983-4.594c0.014-1.191-0.148-2.387-0.419-3.546c-0.278-1.175-0.672-2.335-1.205-3.42
			c-0.746-1.525-1.805-2.889-2.92-4.161c-0.959-1.091-1.971-2.183-3.163-3.025c-0.731-0.516-1.541-0.929-2.387-1.221
			c-0.579-0.2-1.184-0.348-1.79-0.44c-0.904-0.144-2.257-0.177-3.183-0.227c-0.957-0.053-1.923-0.179-2.851-0.418
			c-1.164-0.306-2.365-0.758-3.179-1.683c-0.53-0.594-0.879-1.328-1.196-2.052c-0.486-1.129-0.965-2.516-1.382-3.676
			c-0.99-2.742-2.308-6.289-3.195-9.054c-1.313-4.129-2.702-8.647-4.608-12.538l-1.516-3.046c-0.426-0.897-0.833-1.825-1.083-2.787
			c-0.163-0.634-0.259-1.297-0.198-1.951c0.042-0.452,0.164-0.9,0.372-1.304c0.51-0.972,1.45-1.771,2.076-2.663
			c0.727-0.978,0.968-2.184,1.032-3.378c0.082-1.316-0.063-2.921,0.092-4.23c0.085-0.728,0.3-1.458,0.799-2.013
			c0.73-0.823,1.807-1.222,2.845-1.5c1.997-0.516,4.479-0.666,6.515-0.995c1.815-0.271,3.608-0.773,5.287-1.517
			c1.91-0.835,3.696-1.972,5.383-3.191l4.965-3.704c4.836-3.5,10.246-6.744,15.447-9.69c6.14-3.445,15.228-8.146,20.926-12.032
			c1.843-1.246,3.694-2.616,5.403-4.04c2.447-2.042,4.876-4.442,7.092-6.741c4.659-4.853,9.785-10.642,15.227-14.561
			c3.805-2.766,8.071-4.928,12.503-6.494c9.251-3.252,19.373-4.026,29.016-2.261c2.775,0.509,5.575,1.247,8.237,2.182
			c2.812,0.982,5.656,2.285,8.331,3.597c4.302,2.146,10.494,5.462,14.96,7.121c3.205,1.222,6.587,2.099,9.964,2.686
			c4.803,0.838,9.778,1.14,14.65,1.198c8.8,0.115,18.107-0.673,26.87-1.59c6.791-0.741,23.385-2.745,30.116-3.114
			c8.524-0.503,20.17-0.667,28.723-0.733"/>
	</g>
	<g id="POLYLINE_2380_">
		
			<path fill="none" stroke="#FB8604" stroke-width="2.75" stroke-linecap="round" stroke-linejoin="round" stroke-miterlimit="10" d="
			M353.58,452.985c-1.731,6.375-3.959,12.705-7.058,18.55c-1.517,2.9-3.44,5.881-5.272,8.605
			c-3.799,5.673-8.406,12.541-12.62,17.827c-3.592,4.677-12.109,14.584-16.036,19.205c-1.189,1.442-2.548,3.104-3.632,4.617
			c-1.239,1.735-2.404,3.575-3.106,5.6c-0.631,1.843-0.859,3.845-0.539,5.773c0.221,1.338,0.712,2.626,1.384,3.8
			c0.609,1.069,1.37,2.077,2.145,3.031c2.86,3.387,10.548,11.794,13.566,15.219c2.319,2.488,4.735,5.153,7.369,7.296
			c0.798,0.63,1.681,1.161,2.623,1.547c2.976,1.222,6.26,1.429,9.444,1.4c1.709-0.006,3.797-0.101,5.483,0.098
			c1.135,0.116,2.27,0.344,3.366,0.661c2.522,0.727,4.905,1.924,7.062,3.413c1.413,0.986,2.772,2.091,3.881,3.417
			c0.615,0.741,1.138,1.571,1.506,2.462c0.595,1.449,0.845,3.035,0.801,4.597c-0.044,1.417-0.358,2.842-0.999,4.112
			c-0.442,0.881-1.065,1.66-1.895,2.201c-0.385,0.259-0.812,0.473-1.234,0.664c-0.935,0.41-2.308,1.047-3.261,1.359
			c-1.706,0.557-3.486,0.984-5.277,1.137c-3.683,0.318-8.294,0.269-12.009,0.305c-4.373-0.034-9.588-0.029-13.935-0.34
			c-1.423-0.113-2.901-0.25-4.292-0.577c-0.759-0.182-1.516-0.433-2.187-0.838c-1.048-0.623-1.896-1.702-2.761-2.542
			c-1.179-1.2-2.563-2.22-3.972-3.135l-5.436-3.474c-2.977-2.035-6.763-4.462-9.51-6.708c-2.42-1.867-11.407-10.502-13.845-12.735
			c-2.802-2.569-5.945-5.393-8.902-7.751c-1.758-1.413-3.811-2.934-5.401-4.512c-1.455-1.414-2.785-3.029-4.021-4.637
			c-1.926-2.525-3.775-5.275-5.416-7.996c-1.027-1.729-2.015-3.534-2.725-5.418c-0.571-1.511-0.948-3.114-0.954-4.734
			c-0.023-2.066,0.514-4.107,1.316-6c1.27-3.012,3.206-5.779,5.123-8.413c1.729-2.42,4.001-5.143,5.171-7.884
			c0.181-0.442,0.333-0.907,0.422-1.377c0.096-0.499,0.124-1.013,0.124-1.52c-0.009-0.834-0.064-1.877,0.093-2.689
			c0.23-1.305,0.784-2.847,1.042-4.147c0.261-1.259,0.391-2.555,0.383-3.841c0.001-1.546-0.293-3.17-0.306-4.715
			c-0.034-1.827,0.192-3.67,0.537-5.461"/>
	</g>
	<g id="POLYLINE_2379_">
		
			<path fill="none" stroke="#FB8604" stroke-width="2.75" stroke-linecap="round" stroke-linejoin="round" stroke-miterlimit="10" d="
			M480.005,375.865c-3.896,11.264-5.145,23.321-5.419,35.182c-0.252,12.374,0.716,25.208,2.03,37.517
			c0.647,5.712,2.04,17.157,2.786,22.85c0.075,0.701,0.106,1.443,0.125,2.145c0.061,2.611-0.061,5.72,0.603,8.244
			c0.407,1.587,1.114,3.094,1.925,4.512c1.484,2.607,3.523,5.224,4.743,7.973c2.05,4.604,1.766,10.168,1.961,15.109
			c0.092,3.342,0.592,6.697,1.44,9.929c1.411,5.455,3.975,12.156,5.177,17.654c1.172,5.078,2.441,12.011,3.888,16.98
			c0.734,2.593,2.566,7.844,3.367,10.437c0.776,2.461,1.707,6.073,2.357,8.585c0.559,3.292,1.407,6.707,3.545,9.355
			c0.992,1.229,2.215,2.274,3.474,3.22c1.364,1.008,2.821,1.945,4.344,2.694c1.146,0.56,2.362,1.003,3.613,1.257
			c0.879,0.181,1.797,0.271,2.693,0.322c4.051,0.15,22.799,0.068,26.807,0.039c1.565-0.054,3.25-0.075,4.792-0.342
			c0.662-0.119,1.331-0.288,1.92-0.623c0.519-0.289,0.928-0.735,1.258-1.222c0.379-0.547,0.705-1.139,0.973-1.748
			c0.371-0.844,0.636-1.744,0.736-2.661c0.124-1.12,0.017-2.266-0.3-3.347c-0.283-0.965-0.723-1.886-1.229-2.753
			c-0.785-1.362-1.774-2.613-2.897-3.712c-1.655-1.611-3.491-3.181-5.579-4.197c-1.267-0.606-2.649-0.954-4.034-1.163
			c-1.257-0.215-3.385-0.374-4.646-0.591c-0.259-0.05-0.523-0.116-0.771-0.209c-0.383-0.142-0.744-0.361-1.019-0.666
			c-0.076-0.084-0.148-0.175-0.211-0.268c-0.558-0.846-1.139-1.778-1.63-2.664c-1.555-2.725-2.549-5.728-3.27-8.771
			c-0.654-2.924-1.947-8.459-2.469-11.373c-0.277-1.602-0.487-3.272-0.532-4.898c-0.093-2.412,0.175-5.606,0.311-8.024
			c0.106-1.79,0.148-3.847,0.141-5.642l-0.164-10.127c-0.01-3.427,0.118-6.929,0.68-10.311c0.84-5.303,2.941-11.84,4.16-17.087
			c0.725-3.121,1.294-6.348,1.494-9.548c0.181-2.704,0.032-5.862,0.191-8.568c0.095-1.546,0.289-3.115,0.777-4.59
			c0.331-1.001,0.812-1.962,1.469-2.79c1.02-1.281,2.386-2.246,3.747-3.134l3.385-2.136c5.756-3.719,11.22-8.053,15.975-12.994
			c2.327-2.404,4.559-5.073,6.614-7.717c1.713-2.118,10.064-13.856,11.825-16.275c2.233-3.095,7.672-9.685,10.135-12.737
			c3.237-4.099,6.348-8.437,8.469-13.231c3.794-8.618,4.554-18.236,4.534-27.551c-0.066-6.712-0.527-16.668,0.137-23.251
			c0.173-1.839,0.435-3.806,0.781-5.619c0.401-2.231,1.725-7.516,2.256-9.784c0.863-3.791,1.52-7.708,1.289-11.607
			c-0.15-2.689-0.551-5.75,0.151-8.376c0.704-2.92,2.62-6.114,4-8.779c1.005-1.947,1.932-3.987,2.395-6.138
			c0.506-2.361,0.454-4.814,0.268-7.209"/>
	</g>
	<g id="POLYLINE_2378_">
		
			<path fill="none" stroke="#FB8604" stroke-width="2.75" stroke-linecap="round" stroke-linejoin="round" stroke-miterlimit="10" d="
			M548.986,290.319c8.801,8.147,19.053,13.777,31.372,12.718c3.525-0.284,7.03-1.08,10.414-2.088
			c3.932-1.169,7.785-2.737,11.342-4.788c5.296-3.028,9.974-7.084,14.188-11.473c1.771-1.847,3.673-3.993,5.318-5.954
			c0.186-0.218,0.386-0.444,0.586-0.649c0.569-0.593,1.365-1.281,1.93-1.875c0.542-0.568,1.044-1.189,1.496-1.831
			c2.205-3.121,3.87-7.832,5.437-11.316l0.563-1.382"/>
	</g>
	<g id="POLYLINE_2377_">
		
			<path fill="none" stroke="#FB8604" stroke-width="2.75" stroke-linecap="round" stroke-linejoin="round" stroke-miterlimit="10" d="
			M576.165,426.658c-3.182,6.601-6.608,13.471-10.541,19.65c-1.466,2.334-3.432,4.941-5.137,7.13
			c-1.201,1.596-2.266,3.327-2.972,5.201c-0.528,1.383-0.867,2.848-1.077,4.311c-0.239,1.657-0.331,3.404-0.377,5.078
			c-0.118,3.92,0.253,13.762,0.333,17.803c0.051,4.074,0.05,12.887,0.366,16.874c0.854,11.042,2.033,25.22,2.614,36.28
			c0.161,2.398,0.53,4.821,1.242,7.119c0.796,2.678,2.015,5.24,3.487,7.611c1.198,1.973,3.648,5.486,4.797,7.477
			c0.647,1.081,1.257,2.422,1.789,3.57c0.174,0.351,0.348,0.709,0.585,1.022c0.17,0.226,0.393,0.421,0.664,0.513
			c0.154,0.054,0.319,0.08,0.481,0.091c0.794,0.029,1.737-0.081,2.53-0.043c1.853,0.04,3.686,0.473,5.446,1.03
			c3.647,1.157,7.153,2.959,9.926,5.628c1.762,1.691,3.263,3.755,3.885,6.145c0.216,0.816,0.347,1.66,0.401,2.502
			c0.06,0.992-0.018,2.007-0.34,2.952c-0.276,0.812-0.722,1.564-1.258,2.232c-0.515,0.635-1.118,1.212-1.802,1.662
			c-1.044,0.69-2.295,0.97-3.52,1.128c-2.105,0.271-4.602,0.247-6.734,0.281c-1.054-0.017-15.921,0.061-16.488-0.072
			c-2.509-0.178-4.951-0.925-7.3-1.787"/>
	</g>
	<g id="POLYLINE_2376_">
		
			<path fill="none" stroke="#FB8604" stroke-width="2.75" stroke-linecap="round" stroke-linejoin="round" stroke-miterlimit="10" d="
			M630.399,258.619c-0.69,0.373-1.464,0.626-2.254,0.63c-1.127-0.002-2.21-0.48-3.094-1.157"/>
	</g>
</g>
<g id="_x32_D_x24_AG-OUTLINE">
	<g id="POLYLINE_100_">
		
			<path fill="none" stroke="#FB8604" stroke-width="3.5" stroke-linecap="round" stroke-linejoin="round" stroke-miterlimit="10" d="
			M269.82,478.433c-3.483,2.649-7.385,5.02-11.193,7.18c-8.83,4.906-20.311,10.917-28.388,16.836l-4.965,3.704
			c-2.547,1.858-5.345,3.466-8.42,4.249c-1.967,0.522-4.433,0.728-6.456,1.011c-1.172,0.175-2.372,0.378-3.476,0.823
			c-0.602,0.247-1.186,0.581-1.629,1.065c-0.21,0.228-0.385,0.49-0.513,0.772c-0.177,0.389-0.271,0.812-0.327,1.234
			c-0.163,1.276-0.025,2.864-0.093,4.149c-0.053,1.21-0.275,2.467-1.001,3.466c-0.631,0.919-1.591,1.724-2.113,2.717
			c-0.208,0.404-0.33,0.852-0.372,1.304c-0.061,0.655,0.035,1.317,0.198,1.951c0.25,0.962,0.657,1.891,1.083,2.787l1.516,3.046
			c1.904,3.888,3.293,8.405,4.608,12.538c0.909,2.856,2.63,7.447,3.64,10.3c0.334,0.915,0.71,1.955,1.115,2.828
			c0.292,0.631,0.632,1.256,1.116,1.761c0.622,0.662,1.463,1.064,2.313,1.35c0.818,0.273,1.674,0.448,2.529,0.55
			c1.088,0.13,2.528,0.132,3.619,0.239c1.586,0.146,3.148,0.646,4.488,1.513c1.085,0.699,2.021,1.619,2.89,2.567
			c0.915,1.014,1.838,2.082,2.593,3.221c0.959,1.424,1.635,3.031,2.059,4.692c0.35,1.37,0.551,2.793,0.499,4.208
			c-0.053,1.471-0.384,2.937-0.975,4.286c-0.365,0.81-0.833,1.606-1.525,2.179c-0.835,0.694-1.942,0.894-2.99,1.033
			c-0.819,0.109-2.111,0.242-2.901,0.412c-0.748,0.149-1.917,0.468-2.662,0.612c-1.673,0.351-3.456,0.501-5.162,0.619
			c-3.944,0.302-10.09,0.235-14.097,0.274c-2.352-0.018-5.032,0.022-7.365-0.234c-1.685-0.176-3.376-0.537-4.925-1.24
			c-1.07-0.484-2.074-1.14-2.919-1.959c-1.016-0.973-1.808-2.17-2.536-3.366c-0.693-1.138-1.369-2.338-1.891-3.565
			c-1.202-2.775-2.019-6.51-2.801-9.445c-1.159-3.7-2.451-7.978-3.409-11.727c-1.476-5.756-3.159-14.425-4.636-20.181l-2.841-10.526
			c-2.337-8.754-3.041-18.179-3.558-27.211c-0.29-5.253-0.582-10.673,0.273-15.883c0.817-5.223,3.133-10.106,6.099-14.443
			c2.876-4.224,6.389-8.091,9.962-11.736c4.011-4.076,8.891-8.455,11.905-13.336c2.312-3.725,3.708-7.964,4.613-12.234l0.958-4.786
			c0.389-1.827,0.858-3.672,1.564-5.404c0.427-1.061,0.972-2.094,1.575-3.066c1.898-3.113,4.615-6.086,5.396-9.738
			c0.129-0.616,0.196-1.252,0.194-1.881c0-1.334-0.268-2.818-0.318-4.15c-0.03-0.832,0.018-1.688,0.312-2.474
			c0.227-0.607,0.596-1.153,1.005-1.652c0.927-1.128,2.152-2.138,3.025-3.311c0.81-1.081,1.316-2.361,1.678-3.654
			c0.239-0.795,0.531-2.247,0.72-3.071c0.153-0.747,0.588-2.561,0.707-3.292c0.274-1.497,0.448-3.044,0.237-4.56
			c-0.13-0.985-0.471-1.937-0.856-2.848c-0.249-0.57-0.906-2.068-1.11-2.647c-0.217-0.599-0.4-1.236-0.539-1.858
			c-0.617-2.768-0.478-5.655-0.065-8.443c0.294-1.94,0.726-3.974,1.2-5.878c0.504-1.98,1.135-3.968,2.005-5.819
			c0.723-1.54,1.631-3.011,2.746-4.299c1.002-1.196,2.413-2.289,3.596-3.296c1.031-0.89,2.065-1.856,2.681-3.091
			c0.686-1.384,0.774-2.989,0.567-4.499c-0.283-1.989-1.05-3.906-2.166-5.574c-1.112-1.666-2.593-3.094-4.061-4.446
			c-1.723-1.582-3.593-3.055-5.599-4.264c-1.751-1.072-3.933-2.204-5.341-3.712c-0.425-0.454-0.8-0.962-1.081-1.519
			c-0.23-0.451-0.389-0.94-0.496-1.434c-0.359-1.602-0.239-3.396-0.862-4.936c-0.348-0.861-1.047-1.494-1.841-1.946
			c-0.571-0.329-1.194-0.583-1.814-0.804c-1.782-0.603-4.125-1.234-5.87-1.924c-1.92-0.745-3.809-1.734-5.225-3.259
			c-1.179-1.256-2.18-3.095-3.097-4.548c-1.949-3.126-4.691-5.678-7.526-7.992c-1.699-1.391-4.366-3.459-5.926-4.89
			c-1.838-1.643-4.406-4.144-6.266-5.733c-2.594-2.271-5.8-4.227-7.998-6.914c-3.344-4.004-5.256-9.583-7.232-14.366
			c-1.003-2.421-2.13-4.89-3.426-7.165c-0.976-1.726-2.173-3.474-3.352-5.074c-3.252-4.457-7.411-9.187-8.82-14.622
			c-0.968-3.704-0.684-7.676,0.462-11.307c0.374-1.215,1.109-2.845,1.509-4.053c0.262-0.777,0.454-1.595,0.584-2.405
			c0.429-2.677,0.298-6.21,0.404-8.926c0.129-3.432,0.461-6.951,1.789-10.151c0.697-1.721,1.78-3.27,2.923-4.722
			c0.997-1.275,2.369-2.891,3.161-4.302c0.45-0.783,0.783-1.638,1.006-2.513c0.337-1.235,0.552-2.656,1.179-3.791
			c0.751-1.399,2.299-2.104,3.554-2.969c0.398-0.268,0.791-0.57,1.136-0.904c0.449-0.435,0.843-0.934,1.207-1.442l1.081-1.561
			c1.552-2.251,3.899-3.916,6.505-4.722c1.553-0.482,3.197-0.66,4.819-0.59c1.32,0.056,2.639,0.277,3.912,0.63
			c1.232,0.327,2.723,0.984,3.94,1.371c0.582,0.184,1.185,0.332,1.791,0.4c0.846,0.099,1.713,0.072,2.56-0.001
			c1.708-0.161,4.035-0.544,5.741-0.591c2.088-0.076,4.238,0.094,6.193,0.876c2.395,0.915,4.096,3.112,5.953,4.777
			c0.506,0.452,1.052,0.882,1.623,1.249c0.843,0.547,1.855,1.066,2.652,1.681c0.427,0.329,0.826,0.71,1.12,1.165
			c0.312,0.483,0.497,1.038,0.65,1.588c0.218,0.81,0.44,1.862,0.817,2.608c0.361,0.748,0.86,1.431,1.38,2.076
			c1.173,1.39,2.429,2.929,3.327,4.504c1.138,1.949,1.987,4.092,2.376,6.319c0.427,2.395,0.249,4.924-0.695,7.179
			c-0.462,1.164-1.203,2.239-1.924,3.258c-0.531,0.791-1.076,1.675-1.038,2.663c0.05,1.123,0.563,2.225,0.438,3.362
			c-0.052,0.516-0.203,1.026-0.459,1.478c-0.171,0.299-0.394,0.577-0.68,0.773c-0.324,0.223-0.723,0.308-1.111,0.302
			c-0.571-0.008-1.13-0.17-1.666-0.356c-0.755-0.247-4.576-1.952-5.391-2.292c-1.018-0.431-3.478-1.444-4.434-1.905
			c-1.016-0.488-2.022-1.043-2.888-1.77c-0.519-0.437-0.988-0.944-1.337-1.528c-0.806-1.341-0.801-3.046-1.282-4.503
			c-0.282-0.893-0.766-1.721-1.401-2.409c-0.568-0.614-1.264-1.125-2.055-1.409c-1.575-0.56-3.29-0.254-4.886,0.063
			c-1.28,0.292-2.836,0.558-4.063,1.016c-0.717,0.26-1.417,0.596-2.019,1.068c-0.995,0.774-1.627,1.925-1.98,3.119
			c-0.328,1.11-0.442,2.283-0.403,3.437c0.046,1.264,0.274,2.532,0.704,3.723c0.587,1.638,1.582,3.102,2.645,4.467
			c1.057,1.332,2.504,3.109,3.393,4.535c1.129,1.75,2.103,3.62,2.914,5.538c1.711,3.915,2.498,8.478,4.422,12.303
			c0.515,1.01,1.132,1.986,1.871,2.848c0.929,1.09,2.053,2.029,3.185,2.901l3.302,2.452c1.808,1.349,3.438,2.955,4.89,4.678
			c2.442,2.86,4.975,6.622,7.675,9.24c0.654,0.64,1.37,1.266,2.096,1.823c0.776,0.616,2.901,2.038,3.751,2.624
			c1.431,0.978,3.048,2.288,4.521,3.201c1.034,0.652,2.162,1.165,3.323,1.545c1.875,0.633,4.089,1.112,5.823,2.087
			c2.021,1.133,3.538,3.094,5.152,4.712c0.566,0.57,1.175,1.137,1.813,1.626c0.568,0.437,1.193,0.829,1.811,1.19
			c2.014,1.19,4.488,2.243,5.617,4.417c0.516,0.995,0.648,2.201,0.936,3.274c0.168,0.611,0.39,1.248,0.861,1.694
			c0.444,0.416,1.036,0.624,1.615,0.771c0.874,0.217,1.921,0.331,2.797,0.537c0.818,0.189,1.62,0.49,2.386,0.833
			c1.073,0.476,2.527,1.282,3.605,1.745c0.657,0.281,1.344,0.523,2.054,0.626c0.542,0.079,1.101,0.07,1.636-0.05
			c1.209-0.262,2.469-1.036,3.574-1.579c0.812-0.411,1.683-0.743,2.548-1.022c0.429-0.134,2.2-0.679,2.589-0.812
			c1.654-0.548,3.362-1.313,5.126-1.366c1.698-0.052,3.542,0.518,5.212,0.762c1.181,0.18,2.401,0.214,3.575-0.028
			c0.795-0.164,1.578-0.457,2.233-0.944c1.051-0.77,1.685-2.149,2.341-3.241c0.583-1.005,1.37-1.891,2.309-2.576
			c1.995-1.464,4.444-2.143,6.837-2.634c0.967-0.201,2.424-0.427,3.409-0.585c1.076-0.165,2.253-0.35,3.34-0.38
			c1.058-0.036,2.136,0.089,3.181,0.249c1.99,0.307,4.207,0.81,6.216,0.61c1.329-0.127,2.716-0.495,4.054-0.521
			c1.547-0.038,3.224,0.3,4.77,0.172c0.699-0.059,1.403-0.231,2.008-0.596c0.754-0.451,1.317-1.198,1.996-1.744
			c0.285-0.229,0.607-0.427,0.968-0.508c0.389-0.091,0.797-0.063,1.186,0.016c0.853,0.163,1.976,0.711,2.785,1.032
			c0.437,0.175,0.893,0.338,1.353,0.438c0.644,0.148,1.514,0.205,2.177,0.271c0.575,0.059,1.157,0.151,1.709,0.324
			c0.592,0.176,1.214,0.451,1.838,0.474c0.202,0.005,0.409-0.027,0.59-0.118c0.298-0.15,0.522-0.412,0.73-0.667
			c0.376-0.464,0.735-1.024,1.293-1.284c0.508-0.23,1.104-0.21,1.625-0.034c0.464,0.158,0.866,0.455,1.237,0.768
			c0.37,0.321,0.84,0.732,1.233,1.007c0.347,0.257,2.067,1.35,2.467,1.608c0.47,0.299,0.958,0.595,1.47,0.815
			c1.165,0.504,2.447,0.672,3.703,0.764c1.193,0.085,2.659,0.118,3.838,0.286c0.726,0.101,1.463,0.269,2.169,0.464
			c1.79,0.494,3.931,1.333,5.759,1.651c1.675,0.299,3.408,0.299,5.103,0.226l4.035-0.22c0.742-0.031,1.589-0.045,2.33-0.03
			c1.911,0.044,4.436,0.198,6.321,0.04c1.717-0.119,4.201-0.728,5.906-1.071c1.96-0.371,4.023-0.619,5.984-0.135
			c0.537,0.131,1.002,0.429,1.513,0.597c0.285,0.091,0.572,0.09,0.858,0.004c0.752-0.233,1.433-0.775,2.096-1.188
			c0.314-0.197,0.64-0.394,0.997-0.502c0.537-0.157,1.111-0.135,1.664-0.109c1.09,0.069,2.181,0.252,3.239,0.52
			c0.327,0.085,0.673,0.187,0.991,0.301c0.267,0.096,0.801,0.309,1.08,0.366c0.215,0.051,0.439,0.035,0.652-0.018
			c0.205-0.047,0.423-0.109,0.625-0.133c0.418-0.055,0.857-0.054,1.279-0.042c2.004,0.069,4.333,0.49,6.337,0.631
			c2.071,0.097,4.242,0.218,6.27,0.657c0.531,0.116,1.073,0.252,1.576,0.458c0.217,0.091,0.433,0.196,0.617,0.344
			c0.152,0.122,0.261,0.296,0.404,0.427c0.128,0.119,0.284,0.203,0.441,0.276c1.351,0.566,3.088,0.795,4.488,1.216
			c0.411,0.118,0.853,0.317,1.26,0.446c0.39,0.12,0.801,0.187,1.205,0.241c4.293,0.454,10.697,1.76,14.983,2.117l0.68,0.032
			c0.265,0.015,0.536,0.059,0.77,0.192c0.424,0.242,0.802,0.746,1.141,1.093c0.592,0.65,1.316,1.167,2.087,1.583
			c1.119,0.609,2.347,1.064,3.552,1.471c4.978,1.659,10.219,2.713,15.411,3.446c4.715,0.617,10.559,1.333,15.286,1.682
			c3.211,0.195,6.5,0.244,9.674-0.34c2.17-0.41,4.288-1.229,6.079-2.535c1.094-0.8,2.081-1.793,2.717-3
			c0.639-1.19,0.795-2.565,0.844-3.896c0.028-1.442,0.066-3.253,0.221-4.673c0.21-2.135,0.606-4.342,1.05-6.441l2.115-9.315
			c0.386-1.832,0.759-3.846,0.996-5.696c0.305-2.323,0.609-5.576,1.182-7.814c0.323-1.316,0.765-2.618,1.379-3.828
			c1.005-1.986,2.544-3.92,3.722-5.806c0.711-1.142,1.354-2.358,1.691-3.668c0.708-2.704,0.041-6.01-0.225-8.75
			c-0.066-0.672-0.119-1.4-0.133-2.075c-0.04-1.965,0.244-3.953,0.611-5.88c0.79-3.817,1.676-7.863,1.726-11.763
			c0.021-1.002-0.003-2.04-0.074-3.04c-0.079-1.052-0.339-3.187-0.436-4.245c-0.103-1.212-0.144-2.451,0.041-3.656
			c0.115-0.751,0.321-1.494,0.638-2.186c0.345-0.756,0.819-1.455,1.374-2.073c0.812-0.897,1.811-1.657,2.957-2.065
			c0.648-0.231,1.348-0.323,2.032-0.235c1.364,0.173,2.583,0.912,3.644,1.751c1.824,1.485,3.379,3.337,4.75,5.24
			c1.481,2.038,2.765,4.562,4.003,6.759c0.981,1.7,2.249,3.315,4.053,4.185c0.822,0.404,1.714,0.667,2.607,0.86
			c1.455,0.312,2.975,0.442,4.46,0.523c1.25,0.056,3.362,0.105,4.582,0.252c0.213,0.018,0.509,0.036,0.724,0.045
			c6.477,0.58,13.049-0.215,19.431-1.324c0.573-0.065,1.162-0.186,1.723-0.319l2.747-0.7c2.453-0.572,4.992-0.853,7.511-0.742
			c2.728,0.115,5.438,0.674,8.013,1.577c2.57,0.92,5.186,2.094,7.049,4.152c0.734,0.808,1.26,1.786,1.702,2.777l0.777,1.779
			c0.888,2.003,2.236,4.203,4.543,4.675c1.388,0.312,3.059,0.145,4.475,0.176c2.839,0.053,5.778,0.614,8.566,1.126
			c0.784,0.166,1.578,0.369,2.292,0.74c0.422,0.221,0.816,0.511,1.109,0.89c0.662,0.874,0.816,2.009,0.948,3.068
			c0.146,1.184,0.176,2.56,0.625,3.672c0.179,0.447,0.459,0.848,0.789,1.197c0.468,0.505,1.25,1.089,1.79,1.527
			c0.411,0.335,0.814,0.7,1.187,1.076c1.708,1.726,3.017,3.872,3.667,6.218c1.064,1.653,1.786,3.545,1.976,5.507
			c0.1,1.013,0.063,2.045-0.117,3.047c-0.129,0.707-0.319,1.414-0.632,2.063c-0.292,0.601-0.711,1.172-1.307,1.498
			c-0.554,0.31-1.223,0.345-1.832,0.203l-0.563,1.382c-1.446,3.235-3.131,7.825-5.059,10.76c-0.491,0.749-1.039,1.476-1.643,2.138
			c-0.74,0.822-1.718,1.613-2.455,2.437c-2.015,2.379-4.149,4.819-6.338,7.04c0.186,2.395,0.238,4.849-0.268,7.209
			c-0.463,2.151-1.39,4.191-2.395,6.138c-1.383,2.672-3.292,5.851-4,8.779c-0.702,2.62-0.3,5.697-0.151,8.376
			c0.231,3.898-0.426,7.816-1.289,11.607c-0.541,2.307-1.851,7.535-2.256,9.784c-0.345,1.813-0.608,3.78-0.781,5.619
			c-0.662,6.545-0.204,16.591-0.137,23.251c0.02,9.315-0.74,18.933-4.534,27.551c-2.121,4.794-5.233,9.132-8.469,13.231
			c-1.573,1.953-7.248,8.878-8.643,10.752c-1.744,2.263-4.799,6.558-6.486,8.921c-3.182,6.601-6.608,13.471-10.541,19.65
			c-1.466,2.334-3.432,4.941-5.137,7.13c-1.201,1.596-2.266,3.327-2.972,5.201c-0.528,1.383-0.867,2.848-1.077,4.311
			c-0.239,1.657-0.331,3.404-0.377,5.078c-0.118,3.92,0.253,13.762,0.333,17.803c0.051,4.074,0.05,12.887,0.366,16.874
			c0.854,11.042,2.033,25.22,2.614,36.28c0.161,2.398,0.53,4.821,1.242,7.119c0.796,2.678,2.015,5.24,3.487,7.611
			c1.198,1.973,3.648,5.486,4.797,7.477c0.647,1.081,1.257,2.422,1.789,3.57c0.174,0.351,0.348,0.709,0.585,1.022
			c0.17,0.226,0.393,0.421,0.664,0.513c0.154,0.054,0.319,0.08,0.481,0.091c0.794,0.029,1.737-0.081,2.53-0.043
			c1.853,0.04,3.686,0.473,5.446,1.03c3.647,1.157,7.153,2.959,9.926,5.628c1.762,1.691,3.263,3.755,3.885,6.145
			c0.216,0.816,0.347,1.66,0.401,2.502c0.06,0.992-0.018,2.007-0.34,2.952c-0.276,0.812-0.722,1.564-1.258,2.232
			c-0.515,0.635-1.118,1.212-1.802,1.662c-1.044,0.69-2.295,0.97-3.52,1.128c-2.105,0.271-4.602,0.247-6.734,0.281
			c-1.054-0.017-15.921,0.061-16.488-0.072c-2.509-0.178-4.951-0.925-7.3-1.787c-0.229,0.287-0.499,0.546-0.807,0.747
			c-0.403,0.265-0.862,0.439-1.326,0.564c-1.788,0.448-3.732,0.446-5.568,0.512c-3.987,0.029-22.773,0.111-26.807-0.038
			c-0.897-0.051-1.813-0.14-2.693-0.322c-1.251-0.255-2.467-0.698-3.613-1.257c-1.523-0.749-2.98-1.686-4.344-2.694
			c-1.259-0.947-2.481-1.991-3.474-3.22c-2.138-2.649-2.986-6.063-3.544-9.355c-0.656-2.536-1.584-6.133-2.357-8.585
			c-0.803-2.601-2.634-7.851-3.367-10.437c-1.443-4.951-2.718-11.913-3.888-16.98c-1.202-5.494-3.767-12.203-5.178-17.654
			c-0.848-3.232-1.347-6.588-1.44-9.929c-0.197-4.952,0.09-10.498-1.961-15.109c-1.149-2.597-3.07-5.126-4.507-7.568
			c-0.87-1.473-1.645-3.034-2.1-4.689c-0.733-2.593-0.603-5.789-0.664-8.473c-0.016-0.587-0.042-1.27-0.096-1.852
			c-0.01-0.097-0.034-0.344-0.045-0.437c0,0-1.681-13.293-1.681-13.293c-10.177,0.109-22.73,0.199-32.816,1.039
			c-11.412,0.983-28.036,3.292-39.411,3.996c-9.809,0.582-19.875,0.81-29.562-1.061c-2.864-0.567-5.74-1.358-8.47-2.395
			c-4.454-1.656-9.594-4.428-13.865-6.569c-1.731,6.375-3.959,12.705-7.058,18.55c-1.517,2.9-3.44,5.881-5.272,8.605
			c-3.799,5.673-8.406,12.541-12.62,17.827c-3.592,4.677-12.109,14.584-16.036,19.205c-1.189,1.442-2.548,3.104-3.632,4.617
			c-1.239,1.735-2.404,3.575-3.106,5.6c-0.631,1.843-0.859,3.845-0.539,5.773c0.221,1.338,0.712,2.626,1.384,3.8
			c0.609,1.069,1.37,2.077,2.145,3.031c2.86,3.387,10.548,11.794,13.566,15.219c2.319,2.488,4.735,5.153,7.369,7.296
			c0.798,0.63,1.681,1.161,2.623,1.547c2.976,1.222,6.26,1.429,9.444,1.4c1.709-0.006,3.797-0.101,5.483,0.098
			c1.135,0.116,2.27,0.344,3.366,0.661c2.522,0.727,4.905,1.924,7.062,3.413c1.413,0.986,2.772,2.091,3.881,3.417
			c0.615,0.741,1.138,1.571,1.506,2.462c0.595,1.449,0.845,3.035,0.801,4.597c-0.044,1.417-0.358,2.842-0.999,4.112
			c-0.442,0.881-1.065,1.66-1.895,2.201c-0.385,0.259-0.812,0.473-1.234,0.664c-0.935,0.41-2.308,1.047-3.261,1.359
			c-1.706,0.557-3.486,0.984-5.277,1.137c-3.683,0.318-8.294,0.269-12.009,0.305c-4.373-0.034-9.588-0.029-13.935-0.34
			c-1.423-0.113-2.901-0.25-4.292-0.577c-0.759-0.182-1.516-0.433-2.187-0.838c-1.048-0.623-1.896-1.702-2.761-2.542
			c-1.179-1.2-2.563-2.22-3.972-3.135l-5.436-3.474c-2.977-2.035-6.763-4.462-9.51-6.708c-2.42-1.867-11.407-10.502-13.845-12.735
			c-2.802-2.569-5.945-5.393-8.902-7.751c-1.758-1.413-3.811-2.934-5.401-4.512c-1.455-1.414-2.785-3.029-4.021-4.637
			c-1.926-2.525-3.775-5.275-5.416-7.996c-1.027-1.729-2.015-3.534-2.725-5.418c-0.571-1.511-0.948-3.114-0.954-4.734
			c-0.023-2.066,0.514-4.107,1.316-6c1.27-3.012,3.206-5.779,5.123-8.413c1.729-2.42,4.001-5.143,5.171-7.884
			c0.181-0.442,0.333-0.907,0.422-1.377c0.096-0.499,0.124-1.013,0.124-1.52c-0.009-0.834-0.064-1.877,0.093-2.689
			c0.23-1.305,0.784-2.847,1.042-4.147c0.261-1.259,0.391-2.555,0.383-3.841c0.001-1.546-0.293-3.17-0.306-4.715
			C269.25,482.068,269.476,480.225,269.82,478.433z"/>
	</g>
</g>
</svg>
