<?xml version="1.0" encoding="utf-8"?>
<!-- Generator: Adobe Illustrator 25.3.1, SVG Export Plug-In . SVG Version: 6.00 Build 0)  -->
<!DOCTYPE svg PUBLIC "-//W3C//DTD SVG 1.1//EN" "http://www.w3.org/Graphics/SVG/1.1/DTD/svg11.dtd" [
	<!ENTITY ns_flows "http://ns.adobe.com/Flows/1.0/">
	<!ENTITY ns_extend "http://ns.adobe.com/Extensibility/1.0/">
	<!ENTITY ns_ai "http://ns.adobe.com/AdobeIllustrator/10.0/">
	<!ENTITY ns_graphs "http://ns.adobe.com/Graphs/1.0/">
	<!ENTITY ns_vars "http://ns.adobe.com/Variables/1.0/">
	<!ENTITY ns_imrep "http://ns.adobe.com/ImageReplacement/1.0/">
	<!ENTITY ns_sfw "http://ns.adobe.com/SaveForWeb/1.0/">
	<!ENTITY ns_custom "http://ns.adobe.com/GenericCustomNamespace/1.0/">
	<!ENTITY ns_adobe_xpath "http://ns.adobe.com/XPath/1.0/">
]>
<svg version="1.1" xmlns:x="&ns_extend;" xmlns:i="&ns_ai;" xmlns:graph="&ns_graphs;"
	 xmlns="http://www.w3.org/2000/svg" xmlns:xlink="http://www.w3.org/1999/xlink" xmlns:a="http://ns.adobe.com/AdobeSVGViewerExtensions/3.0/"
	 x="0px" y="0px" width="750px" height="750px" viewBox="0 0 750 750" enable-background="new 0 0 750 750" xml:space="preserve">
<metadata>
	<sfw  xmlns="&ns_sfw;">
		<slices></slices>
		<sliceSourceBounds  bottomLeftOrigin="true" height="2750" width="2540.801" x="-2000" y="686"></sliceSourceBounds>
	</sfw>
</metadata>
<g id="FILL-BACKGROUND">
	<rect fill="#FFFFFF" width="750" height="750"/>
</g>
<g id="N-TEXT">
</g>
<g id="_x32_D_x24_AG-DIAGRAM">
	<g id="POLYLINE_5_">
		<g>
			<g>
				
					<line fill="none" stroke="#C346FF" stroke-width="3.25" stroke-linecap="round" stroke-linejoin="round" x1="123.596" y1="649.562" x2="125.596" y2="649.562"/>
				
					<line fill="none" stroke="#C346FF" stroke-width="3.25" stroke-linecap="round" stroke-linejoin="round" stroke-dasharray="3.9995,6.9991" x1="132.595" y1="649.562" x2="635.029" y2="649.562"/>
				
					<line fill="none" stroke="#C346FF" stroke-width="3.25" stroke-linecap="round" stroke-linejoin="round" x1="638.529" y1="649.562" x2="640.529" y2="649.562"/>
			</g>
		</g>
	</g>
</g>
<g id="_x32_D_x24_AG-POP-CULTURE">
	<g id="POLYLINE_152_">
		
			<path fill="none" stroke="#C346FF" stroke-width="2.75" stroke-linecap="round" stroke-linejoin="round" stroke-miterlimit="10" d="
			M206.163,141.967c2.333-0.049,4.762-0.103,6.995-0.838c1.394-0.435,2.975-0.978,4.415-1.181c1.087-0.169,2.204-0.184,3.3-0.114
			c4.477,0.321,10.144,1.778,14.591,2.441c4.866,0.842,11.75,0.979,16.724,1.215c2.345,0.143,4.764,0.307,7.045,0.888
			c1.478,0.378,2.902,0.991,4.249,1.7c1.32,0.708,3.131,1.716,4.502,2.271c1.934,0.827,4.661,1.722,6.669,2.413"/>
	</g>
	<g id="POLYLINE_151_">
		
			<path fill="none" stroke="#C346FF" stroke-width="2.75" stroke-linecap="round" stroke-linejoin="round" stroke-miterlimit="10" d="
			M207.651,160.714c-3.756-1.155-7.118-3.348-10.135-5.825c-1.227-1.028-2.465-2.11-3.446-3.381c-0.649-0.843-1.184-1.8-1.415-2.846
			c-0.502-2.268,0.421-4.813,2.312-6.179c0.911-0.665,2.022-0.995,3.128-1.148c1.441-0.197,2.917-0.128,4.359,0.028
			c5.451,0.641,13.372,3.085,18.756,4.418c7.957,1.977,16.221,3.514,24.35,4.581c6.85,0.867,13.891,1.453,20.788,0.918
			c2.202-0.137,6.213-0.64,8.365-0.515c0.35,0.029,0.707,0.076,1.036,0.204c0.168,0.067,0.333,0.158,0.453,0.296
			c0.111,0.126,0.164,0.297,0.146,0.463c-0.023,0.226-0.139,0.431-0.265,0.616c-0.214,0.306-0.481,0.575-0.754,0.828
			c-0.527,0.482-1.125,0.924-1.711,1.33c-1.763,1.203-3.664,2.239-5.589,3.157c-3.72,1.772-7.715,3.008-11.808,3.524"/>
	</g>
	<g id="POLYLINE_150_">
		
			<path fill="none" stroke="#C346FF" stroke-width="2.75" stroke-linecap="round" stroke-linejoin="round" stroke-miterlimit="10" d="
			M212.445,148.785c0.207-0.997,0.637-1.941,1.148-2.817c0.326-0.612,0.603-1.315,0.857-1.961"/>
	</g>
	<g id="POLYLINE_149_">
		
			<path fill="none" stroke="#C346FF" stroke-width="2.75" stroke-linecap="round" stroke-linejoin="round" stroke-miterlimit="10" d="
			M215.162,163.55c-0.396,0.97-1.103,1.813-1.98,2.384c-0.44,0.281-0.938,0.499-1.463,0.541c-0.37,0.03-0.748-0.041-1.078-0.213
			c-0.322-0.164-0.594-0.413-0.825-0.688c-0.343-0.409-0.616-0.879-0.856-1.354c-1.156-2.396-1.754-5.052-2.321-7.639
			c-0.287-1.397-0.571-2.844-0.621-4.271c-0.022-0.759,0.022-1.535,0.244-2.266c0.141-0.464,0.362-0.909,0.67-1.285
			c0.45-0.55,1.051-0.965,1.695-1.257c0.416-0.187,0.858-0.326,1.31-0.392c0.308-0.043,0.628-0.054,0.932,0.017
			c0.542,0.119,0.939,0.524,1.22,0.982c0.83,1.402,1.357,3.609,1.879,5.16c0.308,0.952,0.68,1.914,1.335,2.684
			c0.145,0.163,0.314,0.419,0.517,0.503c0.071,0.028,0.153,0.025,0.221-0.009l0.007-0.004l0.007-0.004l0.007-0.004l0.007-0.004
			l0.007-0.004l0.007-0.005l0.008-0.005l0.008-0.005c0.125-0.09,0.218-0.218,0.304-0.343c0.437-0.685,0.731-1.477,1.031-2.229
			c0.63-1.591,1.322-3.966,2.289-5.37c0.633-0.925,1.495-1.711,2.299-2.486"/>
	</g>
	<g id="POLYLINE_148_">
		
			<path fill="none" stroke="#C346FF" stroke-width="2.75" stroke-linecap="round" stroke-linejoin="round" stroke-miterlimit="10" d="
			M211.662,141.522c0.623-4.968,1.699-15.985,2.64-20.733c0.305-1.57,0.67-3.18,1.174-4.697c0.552-1.654,1.282-3.284,2.383-4.65
			c0.895-1.119,2.069-2.009,3.377-2.593c1.45-0.653,3.045-0.952,4.629-1.008c2.487-0.088,4.977,0.42,7.39,0.971
			c2.819,0.67,6.969,1.819,9.8,2.192c2.041,0.299,4.763,0.271,6.842,0.299c1.246,0.034,2.528,0.101,3.724,0.479
			c1.271,0.392,2.439,1.176,3.176,2.295c0.479,0.711,0.772,1.533,0.961,2.365c0.272,1.203,0.361,2.472,0.422,3.703
			c0.087,2.218,0.137,5.327,0.373,7.521c0.226,2.5,0.96,7.544,1.233,10.056c0.23,2.01,0.324,4.886,0.397,6.932"/>
	</g>
	<g id="POLYLINE_147_">
		
			<path fill="none" stroke="#C346FF" stroke-width="2.75" stroke-linecap="round" stroke-linejoin="round" stroke-miterlimit="10" d="
			M221.977,181.337c3.617,4.381,8.618,7.661,14.147,9.03c1.075,0.263,2.187,0.454,3.29,0.543c0.977,0.078,1.977,0.06,2.931-0.184
			c1.472-0.36,2.742-1.276,3.77-2.364c1.082-1.135,2.013-2.437,2.869-3.749c1.237-1.915,2.371-3.988,3.377-6.033
			c0.749-1.526,1.45-3.117,1.913-4.755c1.111-3.978,1.293-8.758,1.977-12.823c0.13-0.802,0.301-1.636,0.516-2.419
			c0.202-0.759,0.631-2.037,0.776-2.814c0.276-1.422,0.273-2.895,0.18-4.336"/>
	</g>
	<g id="POLYLINE_146_">
		
			<path fill="none" stroke="#C346FF" stroke-width="2.75" stroke-linecap="round" stroke-linejoin="round" stroke-miterlimit="10" d="
			M210.884,182.438c-1.998-0.338-4.167-0.385-6.023,0.538c-1.452,0.738-2.567,1.984-3.592,3.222c-0.68,0.854-2.06,2.582-2.738,3.429
			c-0.497,0.65-0.99,1.328-1.339,2.07c-0.232,0.494-0.396,1.03-0.406,1.579c-0.013,0.525,0.095,1.049,0.224,1.555
			c0.257,0.966,0.616,2.105,0.736,3.093c0.263,1.968-0.119,4.155-0.217,6.128c-0.034,0.726-0.06,1.474,0.088,2.189
			c0.068,0.306,0.175,0.616,0.382,0.856l0.013,0.015l0.014,0.015l0.014,0.015l0.014,0.014l0.014,0.014l0.015,0.014l0.015,0.013
			l0.015,0.013l0.015,0.013l0.016,0.013l0.016,0.012l0.016,0.012l0.016,0.011l0.016,0.011l0.016,0.011l0.016,0.01l0.017,0.01
			l0.017,0.01l0.017,0.01l0.017,0.009l0.018,0.009c0.361,0.178,0.781,0.168,1.17,0.117c1.09-0.166,2.13-0.639,3.134-1.077
			c2.271-1.008,4.73-2.457,7.279-2.427c1.408,0.012,2.794,0.395,4.108,0.877c1.92,0.729,3.767,1.749,5.27,3.162"/>
	</g>
	<g id="POLYLINE_145_">
		
			<path fill="none" stroke="#C346FF" stroke-width="2.75" stroke-linecap="round" stroke-linejoin="round" stroke-miterlimit="10" d="
			M251.682,210.647c0.004-0.87,0.113-1.749,0.328-2.592c0.148-0.56,0.343-1.119,0.657-1.609c0.165-0.252,0.368-0.489,0.628-0.647
			c0.167-0.102,0.358-0.165,0.553-0.187c0.378-0.043,0.759,0.047,1.112,0.179c1.573,0.63,2.874,1.971,4.123,3.081
			c0.678,0.587,1.406,1.234,2.321,1.38c0.37,0.054,0.787,0.022,1.084-0.227c0.234-0.192,0.316-0.505,0.32-0.797
			c0.003-0.646-0.216-1.273-0.443-1.871c-2.185-5.217-6.862-10.097-10.402-14.458c-0.368-0.43-4.172-5.366-4.631-5.954"/>
	</g>
	<g id="POLYLINE_144_">
		
			<path fill="none" stroke="#C346FF" stroke-width="2.75" stroke-linecap="round" stroke-linejoin="round" stroke-miterlimit="10" d="
			M179.008,376.91c-0.098-0.194-0.806-1.717-0.917-1.952c-0.277-0.56-0.572-1.142-0.955-1.639c-0.223-0.289-0.483-0.559-0.793-0.756
			c-0.429-0.275-0.944-0.383-1.449-0.381c-0.79,0.004-1.568,0.214-2.317,0.447c-1.423,0.457-2.892,1.086-4.266,1.678
			c-3.065,1.361-6.315,2.935-9.272,4.512c-0.611,0.335-1.243,0.682-1.726,1.194c-0.423,0.444-0.709,1-0.93,1.568
			c-0.358,0.924-0.598,1.923-0.814,2.89c-0.947,4.591-1.436,9.436-1.815,14.106c-0.063,1.07-0.088,2.165,0.077,3.227
			c0.149,0.983,0.487,1.942,1.002,2.794c1.02,1.669,2.522,2.992,4.04,4.2c3.221,2.492,6.839,4.526,10.474,6.347
			c1.545,0.749,3.152,1.477,4.817,1.911c0.923,0.235,1.889,0.387,2.842,0.286c0.661-0.068,1.309-0.281,1.871-0.639
			c0.649-0.408,1.182-0.985,1.597-1.626c0.806-1.253,1.203-2.726,1.403-4.19c0.418-2.949,0.091-7.618,0.043-10.632
			c-0.022-1.219-0.005-2.673,0.046-3.891c0.113-2.583,0.472-7.132,0.348-9.658c-0.047-1.084-0.157-2.182-0.411-3.238
			c-0.479-2.116-1.696-4.236-2.694-6.151L179.008,376.91z"/>
	</g>
	<g id="POLYLINE_143_">
		
			<path fill="none" stroke="#C346FF" stroke-width="2.75" stroke-linecap="round" stroke-linejoin="round" stroke-miterlimit="10" d="
			M178.115,375.008l0.606-1.314c0.39-0.86,0.71-1.766,0.857-2.701c0.236-1.504,0.131-3.066,0.032-4.579
			c-0.179-2.253-0.576-6.198-0.582-8.409c-0.025-1.94,0.113-3.955,0.306-5.887l0.939-8.193c0.773-7.202,0.577-19.385,0.712-26.752
			c0.185-10.371,1.137-21.862,2.175-32.208c0.546-5.193,2.775-23.231,2.984-28.113c0.319-5.481,0.261-11.222,0-16.704"/>
	</g>
	<g id="POLYLINE_142_">
		
			<path fill="none" stroke="#C346FF" stroke-width="2.75" stroke-linecap="round" stroke-linejoin="round" stroke-miterlimit="10" d="
			M155.402,385.284c-1.157-0.101-2.32-0.309-3.418-0.694c-0.728-0.259-1.443-0.598-2.041-1.094c-0.337-0.28-0.633-0.617-0.841-1.004
			c-0.231-0.427-0.363-0.901-0.429-1.38c-0.166-1.257,0.028-2.567,0.203-3.815c0.878-4.985,1.297-10.209,1.456-15.26
			c0.746-24.271-2.1-52.01-1.511-76.297c0.262-15.309,1.385-30.872,3.673-46.015c0.743-4.905,1.708-10.392,2.715-15.25
			c0.486-2.297,1.089-5.089,1.784-7.344c0.678-2.221,1.521-4.44,2.745-6.423c0.855-1.394,1.935-2.664,3.201-3.702
			c1.685-1.396,3.652-2.43,5.671-3.255c3.059-1.251,6.385-2.081,9.59-2.869c1.08-0.325,8.74-1.943,9.567-2.228
			c2.654-0.681,6.93-1.907,9.556-2.677"/>
	</g>
	<g id="POLYLINE_141_">
		
			<path fill="none" stroke="#C346FF" stroke-width="2.75" stroke-linecap="round" stroke-linejoin="round" stroke-miterlimit="10" d="
			M153.805,397.875l-10.325-2.312c-1.089-0.274-2.269-0.505-3.158-1.235c-0.789-0.633-1.286-1.576-1.475-2.56
			c-0.186-0.946-0.12-1.928,0.085-2.865c0.262-1.18,0.738-2.316,1.403-3.325c0.418-0.627,0.912-1.226,1.554-1.635
			c0.748-0.482,1.632-0.705,2.505-0.827c1.699-0.223,3.449-0.127,5.153,0.003"/>
	</g>
	<g id="POLYLINE_140_">
		
			<path fill="none" stroke="#C346FF" stroke-width="2.75" stroke-linecap="round" stroke-linejoin="round" stroke-miterlimit="10" d="
			M182.092,407.371c1.21,0.129,2.455,0.25,3.67,0.125c0.491-0.057,0.993-0.161,1.42-0.421c0.31-0.186,0.55-0.467,0.739-0.771
			c0.346-0.547,0.61-1.15,0.793-1.77c0.355-1.188,0.388-2.467,0.115-3.675c-0.157-0.685-0.399-1.364-0.783-1.956
			c-0.227-0.345-0.538-0.627-0.873-0.864c-1.51-1.012-3.491-1.741-5.168-2.458"/>
	</g>
	<g id="POLYLINE_139_">
		
			<path fill="none" stroke="#C346FF" stroke-width="2.75" stroke-linecap="round" stroke-linejoin="round" stroke-miterlimit="10" d="
			M187.804,406.478c2.822,0.734,5.651,1.622,8.273,2.909c3.346,1.626,6.429,3.798,9.156,6.324c3.457,3.212,6.388,6.99,8.996,10.91
			c5.136,7.799,9.012,16.523,10.825,25.706c0.926,4.598,1.346,9.337,1.42,14.023c0.175,9.279-1.085,23.548-1.416,32.896
			c-0.902,18.867,1.444,39.259,0.255,58.114c-0.399,5.484-1.08,11.066-2.902,16.279c-2.906,8.225-9.33,13.423-18.035,14.371
			c-4.269,0.461-8.703-0.14-12.596-1.988c-1.321-0.629-2.581-1.408-3.704-2.347c-0.954-0.798-1.81-1.726-2.552-2.723
			c-1.805-2.418-2.96-5.265-3.753-8.161c-1.981-7.308-2.613-16.483-3.412-24.05c-0.497-4.827-1.291-10.194-2.14-14.97
			c-1.691-9.78-4.875-23.07-6.099-32.881c-0.788-6.064-1-12.376-0.999-18.49l0.268-20.5l-0.173-18.642
			c0.021-3.761,0.098-7.812,0.454-11.548c0.257-2.566,0.654-5.162,1.425-7.628c0.777-2.487,2.096-4.781,3.586-6.906"/>
	</g>
	<g id="POLYLINE_138_">
		
			<path fill="none" stroke="#C346FF" stroke-width="2.75" stroke-linecap="round" stroke-linejoin="round" stroke-miterlimit="10" d="
			M168.772,414.859c-1.158,1.754-2.176,3.631-2.946,5.588c-0.74,1.865-1.265,3.841-1.647,5.809
			c-0.413,2.129-0.667,4.362-0.829,6.526c-0.589,6.925-0.166,22.002-0.155,29.114l-0.277,20.601
			c0.012,5.845,0.202,11.887,0.876,17.688c0.868,8.137,3.613,20.674,5.224,28.847c1.07,5.468,2.162,11.756,2.834,17.256
			c0.564,4.596,1.219,12.499,1.829,17.071c0.689,5.015,1.525,10.13,3.348,14.873c1.641,4.255,4.326,8.176,8.002,10.918
			c5.803,4.338,13.397,5.846,20.513,4.958c3.275-0.41,6.508-1.348,9.449-2.854c2.858-1.452,5.446-3.442,7.579-5.836
			c1.861-2.076,3.386-4.454,4.559-6.981c1.577-3.392,2.561-7.053,3.236-10.723c1.558-8.671,1.551-17.788,1.454-26.581
			c-0.101-4.425-0.882-29.154-0.781-32.86c0.023-4.015,0.204-9.214,0.407-13.249c0.581-11.861,2.097-26.748,0.572-38.449
			c-0.607-4.848-1.684-9.693-3.243-14.324c-2.092-6.19-4.995-12.133-8.469-17.663c-4.598-7.215-10.261-14.021-17.576-18.6
			c-4.298-2.689-9.143-4.417-14.039-5.656"/>
	</g>
	<g id="POLYLINE_137_">
		
			<path fill="none" stroke="#C346FF" stroke-width="2.75" stroke-linecap="round" stroke-linejoin="round" stroke-miterlimit="10" d="
			M182.342,388.326c2.812,0.617,5.736,0.782,8.605,0.556c1.789-0.158,3.605-0.417,5.308-1.004c0.734-0.262,1.457-0.663,1.899-1.324
			c0.286-0.415,0.47-0.894,0.622-1.371c0.811-2.775,1.302-5.683,1.704-8.543c0.499-3.362,0.925-10.567,1.195-14.058
			c0.36-4.63,0.985-9.806,1.674-14.403c0.818-5.695,3.48-20.626,3.772-26.171c0.056-1.07,0.085-2.183-0.025-3.25
			c-0.088-0.812-0.24-1.658-0.719-2.339c-0.248-0.354-0.579-0.645-0.933-0.89c-0.363-0.251-0.753-0.471-1.158-0.645
			c-0.944-0.411-1.992-0.568-3.016-0.486c-1.065,0.08-2.099,0.402-3.08,0.811c-1.697,0.717-3.292,1.699-4.741,2.834
			c-1.198,0.947-2.32,2.026-3.187,3.29c-1.27,1.836-1.999,3.993-2.538,6.143c-1.682,7.265-2.312,16.213-3.211,23.655
			c-0.363,2.949-0.879,5.953-1.649,8.822c-0.807,3.039-1.903,6.06-3.144,8.947"/>
	</g>
	<g id="POLYLINE_136_">
		
			<path fill="none" stroke="#C346FF" stroke-width="2.75" stroke-linecap="round" stroke-linejoin="round" stroke-miterlimit="10" d="
			M206.951,317.815l13.14-25.479l17.201-31.81c3.594-6.887,7.148-14.28,9.984-21.502c4.058-10.217,7.32-21.099,9.997-31.765"/>
	</g>
	<g id="POLYLINE_135_">
		
			<path fill="none" stroke="#C346FF" stroke-width="2.75" stroke-linecap="round" stroke-linejoin="round" stroke-miterlimit="10" d="
			M251.682,210.647c-2.014,6.64-4.326,13.566-7.109,19.913c-1.763,4.071-4.137,9.042-6.1,13.031
			c-9.422,18.666-26.574,52.32-36.469,70.789"/>
	</g>
	<g id="POLYLINE_134_">
		
			<path fill="none" stroke="#C346FF" stroke-width="2.75" stroke-linecap="round" stroke-linejoin="round" stroke-miterlimit="10" d="
			M212.531,166.275c0.337,2.466,0.365,4.986,0.201,7.468c-0.167,2.488-0.512,5.007-1.324,7.373c-0.24,0.697-0.535,1.39-0.875,2.044
			c-0.488,0.954-1.237,2.121-1.764,3.058c-0.575,1.033-1.118,2.177-1.029,3.389c0.043,0.629,0.232,1.242,0.482,1.819
			c0.433,0.993,1.051,1.921,1.668,2.808c2.982,3.964,6.517,9.618,9.35,13.702c1.58,2.218,4.182,5.562,5.432,7.931
			c0.75,1.379,1.363,2.846,1.773,4.363c0.867,3.256,0.881,6.69,0.76,10.037c-0.129,3.512-0.758,9.389-0.999,12.927
			c-0.198,2.943-0.238,6.106-0.185,9.058c0.074,2.245,0.4,12.923,0.505,14.924"/>
	</g>
	<g id="POLYLINE_133_">
		
			<path fill="none" stroke="#C346FF" stroke-width="2.75" stroke-linecap="round" stroke-linejoin="round" stroke-miterlimit="10" d="
			M227.921,277.791c0.387,1.467,0.894,2.923,1.584,4.276c0.635,1.244,1.443,2.414,2.345,3.479c1.292,1.534,2.843,2.938,4.352,4.26
			c2.017,1.737,4.546,3.902,6.402,5.765c3.656,3.632,7.863,9.201,11.276,13.098c0.706,0.787,1.464,1.613,2.249,2.321
			c0.496,0.443,1.02,0.879,1.614,1.186c0.383,0.197,0.822,0.326,1.254,0.251c0.659-0.117,1.165-0.61,1.616-1.071
			c2.71-3.009,5.132-6.346,7.202-9.825c1.615-2.769,3.04-5.719,3.763-8.857c0.658-2.831,0.745-5.791,0.316-8.664
			c-0.404-2.782-1.299-5.49-2.423-8.06l-2.49-5.518c-1.014-2.322-1.909-4.756-2.556-7.206c-0.748-2.821-1.243-5.798-1.623-8.691
			c-0.953-7.613-1.264-15.472-1.16-23.14l0.153-5.133c0.023-1.566-0.029-3.195-0.674-4.648c-0.336-0.775-0.828-1.476-1.37-2.121
			c-1.258-1.497-3.119-3.099-4.517-4.472"/>
	</g>
	<g id="POLYLINE_132_">
		
			<path fill="none" stroke="#C346FF" stroke-width="2.75" stroke-linecap="round" stroke-linejoin="round" stroke-miterlimit="10" d="
			M251.682,210.647c-0.854-1.509-1.447-3.172-1.957-4.824c-1.407-5.038-3.68-11.195-4.956-16.262"/>
	</g>
	<g id="POLYLINE_131_">
		
			<path fill="none" stroke="#C346FF" stroke-width="2.75" stroke-linecap="round" stroke-linejoin="round" stroke-miterlimit="10" d="
			M183.455,282.159c1.922,4.431,4.021,9.384,5.659,13.915c1.148,3.233,3.232,9.611,4.547,12.684c0.974,2.326,2.26,4.72,3.492,6.925"
			/>
	</g>
	<g id="POLYLINE_130_">
		
			<path fill="none" stroke="#C346FF" stroke-width="2.75" stroke-linecap="round" stroke-linejoin="round" stroke-miterlimit="10" d="
			M184.326,625.11c-1.217-1.506-2.543-3.655-3.712-5.204c-0.795-1.044-1.701-2.037-2.821-2.739
			c-1.153-0.736-2.489-1.145-3.834-1.348c-3.1-0.436-6.292-0.147-9.385,0.227c-2.074,0.279-4.219,0.663-6.242,1.197
			c-1.32,0.352-2.651,0.777-3.89,1.359c-1.02,0.479-1.995,1.079-2.836,1.831c-0.824,0.734-1.516,1.62-2.045,2.587
			c-0.678,1.237-1.134,2.597-1.487,3.959c-0.568,2.206-0.871,4.565-1.109,6.831c-0.241,2.443-0.44,4.976-0.331,7.43
			c0.068,1.344,0.211,2.71,0.618,3.998c0.232,0.722,0.564,1.423,1.042,2.016c0.395,0.492,0.89,0.903,1.444,1.204
			c0.763,0.417,1.62,0.635,2.472,0.778c1.555,0.253,3.196,0.282,4.77,0.313l32.544,0.015c0.477-0.019,1.15,0.014,1.618-0.037
			c0.485-0.039,0.983-0.122,1.414-0.362c0.495-0.27,0.843-0.739,1.092-1.234c0.417-0.843,0.659-1.774,0.871-2.687
			c0.394-1.798,0.626-3.648,0.671-5.488c0.027-1.473-0.094-2.994-0.694-4.357c-0.6-1.353-1.642-2.458-2.74-3.427
			c-1.158-1.016-2.873-2.353-4.024-3.376C186.522,627.525,185.342,626.366,184.326,625.11z"/>
	</g>
	<g id="POLYLINE_129_">
		
			<path fill="none" stroke="#C346FF" stroke-width="2.75" stroke-linecap="round" stroke-linejoin="round" stroke-miterlimit="10" d="
			M181.875,410.921c1.721,0.142,3.442,0.59,4.925,1.493c2.581,1.559,4.365,4.134,5.87,6.686c1.556,2.689,2.847,5.611,3.981,8.504
			c1.798,4.605,3.365,9.617,4.714,14.376c3.512,12.771,6.621,25.948,7.923,39.144c0.694,7.467,0.847,15.104-0.451,22.514
			c-0.665,3.742-1.706,7.475-3.382,10.897c-1.391,2.826-3.243,5.499-5.733,7.463c-2.548,2.007-5.751,3.173-8.996,3.235
			c-3.5,0.071-6.964-0.978-10.038-2.608c-1.799-0.964-3.475-2.203-4.824-3.742c-1.9-2.142-3.16-4.779-4.042-7.484"/>
	</g>
	<g id="POLYLINE_128_">
		
			<path fill="none" stroke="#C346FF" stroke-width="2.75" stroke-linecap="round" stroke-linejoin="round" stroke-miterlimit="10" d="
			M172.941,419.907c-0.855,3.085-1.305,6.319-1.495,9.512c-0.437,6.269-0.41,13.262-0.338,19.567
			c0.191,12.897,0.98,29.143,1.718,42.074c0.357,5.085,0.719,10.525,1.846,15.496c0.509,2.214,1.141,4.436,2.138,6.484
			c0.788,1.62,1.839,3.138,3.218,4.311c1.039,0.89,2.241,1.59,3.481,2.161c1.331,0.606,2.738,1.078,4.171,1.372
			c1.615,0.331,3.304,0.413,4.927,0.091c1.803-0.353,3.503-1.191,4.911-2.366c1.794-1.509,3.139-3.495,4.195-5.571
			c6.18-12.557,4.099-30.969,1.738-44.423c-1.979-10.788-4.684-21.775-7.968-32.241c-1.789-5.427-3.726-10.982-6.676-15.901
			c-0.66-1.069-1.403-2.125-2.249-3.056c-0.645-0.713-1.386-1.361-2.25-1.794c-1.141-0.583-2.449-0.713-3.713-0.732"/>
	</g>
	<g id="POLYLINE_127_">
		
			<path fill="none" stroke="#C346FF" stroke-width="2.75" stroke-linecap="round" stroke-linejoin="round" stroke-miterlimit="10" d="
			M147.45,630.014c-1.366-0.75-2.759-1.541-3.871-2.649c-0.603-0.606-1.117-1.332-1.351-2.162c-0.188-0.661-0.201-1.361-0.132-2.041
			c0.113-1.085,0.419-2.164,0.734-3.205l1.393-4.301c2.054-6.234,2.391-12.928,2.57-19.445c0.229-10.004-0.221-23.881,1.687-33.59
			c1.42-8.059,4.458-16.416,6.45-24.346c1.591-6.416,3.437-16.083,5.036-22.493c1.124-4.588,2.542-9.392,4.035-13.873"/>
	</g>
	<g id="POLYLINE_126_">
		
			<path fill="none" stroke="#C346FF" stroke-width="2.75" stroke-linecap="round" stroke-linejoin="round" stroke-miterlimit="10" d="
			M172.175,479.301c3.062-8.164,6.044-16.833,8.222-25.269c1.33-5.174,2.711-10.845,3.533-16.115
			c1.121-7.13,1.467-14.515,1.3-21.728"/>
	</g>
	<g id="POLYLINE_125_">
		
			<path fill="none" stroke="#C346FF" stroke-width="2.75" stroke-linecap="round" stroke-linejoin="round" stroke-miterlimit="10" d="
			M185.024,411.574c-0.08-1.263-0.203-2.767-0.33-4.026"/>
	</g>
	<g id="POLYLINE_124_">
		
			<path fill="none" stroke="#C346FF" stroke-width="2.75" stroke-linecap="round" stroke-linejoin="round" stroke-miterlimit="10" d="
			M184.326,625.11c1.693-1.479,3.427-3.101,4.225-5.257c0.557-1.494,0.715-3.125,0.842-4.704c0.194-3.027,0.381-6.838,0.95-9.79
			c0.729-4.045,1.909-8.181,3.096-12.116"/>
	</g>
	<g id="POLYLINE_123_">
		
			<path fill="none" stroke="#C346FF" stroke-width="2.75" stroke-linecap="round" stroke-linejoin="round" stroke-miterlimit="10" d="
			M195.299,587.324c1.078-3.367,4.73-14.665,5.639-17.847c1.265-4.226,3.033-10.99,4.14-15.312
			c5.724-24.321,14.392-61.153,21.409-84.773"/>
	</g>
	<g id="POLYLINE_122_">
		
			<path fill="none" stroke="#C346FF" stroke-width="2.75" stroke-linecap="round" stroke-linejoin="round" stroke-miterlimit="10" d="
			M231.403,452.547c3.467-11.443,8.162-27.259,12.164-38.425"/>
	</g>
	<g id="POLYLINE_121_">
		
			<path fill="none" stroke="#C346FF" stroke-width="2.75" stroke-linecap="round" stroke-linejoin="round" stroke-miterlimit="10" d="
			M204.62,340.024c2.815,0.252,11.529,0.941,14.103,1.279c3.735,0.436,7.753,1.081,11.44,1.828
			c10.913,2.151,31.351,8.364,42.31,11.406c2.714,0.71,5.754,1.606,8.523,2.014c0.396,0.047,0.805,0.083,1.202,0.025
			c0.292-0.042,0.579-0.154,0.797-0.355c0.301-0.276,0.477-0.659,0.621-1.034c0.222-0.596,0.358-1.231,0.46-1.858
			c0.118-0.757,0.186-1.537,0.174-2.304c-0.019-0.579-0.046-1.206-0.384-1.699c-0.146-0.211-0.347-0.378-0.559-0.519
			c-0.336-0.222-0.712-0.391-1.084-0.542c-0.707-0.283-1.496-0.522-2.227-0.741c-10.688-2.996-35.354-10.321-45.862-12.712
			c-9.152-2.171-18.653-3.538-28.042-4.056"/>
	</g>
	<g id="POLYLINE_120_">
		
			<path fill="none" stroke="#C346FF" stroke-width="2.75" stroke-linecap="round" stroke-linejoin="round" stroke-miterlimit="10" d="
			M206.989,323.751c9.411,0.837,23.086,1.747,32.58,2.268c5.557,0.252,28.076,1.014,33.167,1.429
			c1.254,0.111,2.632,0.219,3.865,0.453c0.639,0.125,1.298,0.304,1.809,0.728c0.427,0.342,0.712,0.828,0.891,1.339
			c0.248,0.711,0.353,1.474,0.435,2.22c0.071,0.761,0.132,1.545,0.079,2.308c-0.014,0.132-0.036,0.266-0.088,0.389
			c-0.127,0.319-0.467,0.441-0.776,0.513c-0.824,0.175-1.703,0.19-2.543,0.221c-7.548,0.222-37.791-1.34-45.831-1.605"/>
	</g>
	<g id="POLYLINE_119_">
		
			<path fill="none" stroke="#C346FF" stroke-width="2.75" stroke-linecap="round" stroke-linejoin="round" stroke-miterlimit="10" d="
			M277.309,328.072l0.776-2.539c0.485-1.64,0.86-3.343,0.934-5.056c0.141-2.612-0.57-6.553-0.871-9.174
			c-0.226-1.986-0.37-4.018-0.216-6.014c0.101-1.355,0.371-2.707,0.737-4.014c1.035-3.731,3.041-7.7,3.765-11.515
			c0.673-3.4,0.161-6.91-0.495-10.273l-1.258-6.085c-1.845-8.607-1.027-19.063-0.851-27.858c0.166-8.538-0.227-17.201-1.475-25.652
			c-0.235-1.475-0.505-3.078-0.872-4.524c-0.299-1.171-0.692-2.339-1.283-3.397c-1.512-2.746-4.313-4.426-6.92-6.003
			c-2.1-1.22-5.7-3.201-7.657-4.556c-2.131-1.424-4.835-3.585-6.879-5.173"/>
	</g>
	<g id="POLYLINE_118_">
		
			<path fill="none" stroke="#C346FF" stroke-width="2.75" stroke-linecap="round" stroke-linejoin="round" stroke-miterlimit="10" d="
			M278.951,321.405c1.817,5.38,3.752,11.175,6.318,16.232c2.301,4.76,8.046,13.565,10.85,18.174
			c1.555,2.617,3.157,5.368,4.323,8.179c0.831,2.022,1.439,4.19,1.38,6.393c-0.044,2.78-1.247,5.367-2.524,7.781
			c-1.812,3.417-3.975,7.051-4.514,10.935c-0.548,3.551-0.114,7.185,0.616,10.679c0.752,3.493,1.743,7.014,3.131,10.31
			c0.515,1.195,1.093,2.4,1.821,3.481c0.487,0.72,1.065,1.395,1.779,1.901c1.083,0.771,2.412,1.102,3.714,1.273
			c2.05,0.254,4.384-0.021,5.896-1.559c1.203-1.234,1.842-2.893,2.338-4.513c0.774-2.644,1.205-5.564,1.664-8.281
			c1.431-8.83,1.288-17.887,0.53-26.776c-0.352-4.078-0.986-8.364-1.715-12.397c-2.237-11.08-6.084-34.615-9.244-45.211
			c-1.204-4.19-2.807-8.327-4.83-12.192c-1.609-3.184-3.975-6.989-5.133-10.376c-0.522-1.552-0.818-3.19-0.962-4.819
			c-0.287-3.505-0.066-7.529-0.598-11.016c-0.728-5.574-3.381-11.086-5.393-16.285c-0.791-2.095-1.612-4.253-1.864-6.491
			c-0.234-1.846,0.064-4.603,0.149-6.476c0.207-5.272,0.119-10.766-0.293-16.025c-0.294-3.482-0.755-7.024-1.909-10.337
			c-1.445-4.25-4.308-7.887-7.689-10.784"/>
	</g>
	<g id="POLYLINE_117_">
		
			<path fill="none" stroke="#C346FF" stroke-width="2.75" stroke-linecap="round" stroke-linejoin="round" stroke-miterlimit="10" d="
			M227.975,576.455l0.204,9.636c0.244,8.945,3.55,42.716,4.371,52.2c0.061,0.394,0.147,0.804,0.389,1.131
			c0.183,0.25,0.454,0.419,0.738,0.534c0.397,0.16,0.822,0.246,1.244,0.31c2.03,0.271,4.114,0.105,6.136-0.16
			c2.856-0.407,5.712-1.127,8.309-2.406c3.115-1.51,6.041-3.871,8.989-5.668c2.222-1.388,4.653-2.471,7.118-3.35
			c2.188-0.779,7.464-2.508,9.503-3.424c1.027-0.449,2.056-0.953,2.99-1.575c0.646-0.434,1.263-0.935,1.753-1.544
			c0.432-0.536,0.75-1.166,0.933-1.829c0.246-0.885,0.27-1.82,0.206-2.732c-0.258-2.956-1.251-6.23-1.757-9.152
			c-1.294-7.206-1.62-14.755-1.799-22.068c-0.296-16.088,0.612-33.859,1.642-49.95c2.459-30.253,5.326-69.186,6.437-99.383
			c0.148-11.451,1.479-45.235,0.977-56.108c-0.19-4.621-0.796-9.311-1.734-13.839l-2.34-10.515"/>
	</g>
	<g id="POLYLINE_116_">
		
			<path fill="none" stroke="#C346FF" stroke-width="2.75" stroke-linecap="round" stroke-linejoin="round" stroke-miterlimit="10" d="
			M280.582,347.7c-0.518-3.029-1.505-9.188-1.97-12.238"/>
	</g>
	<g id="POLYLINE_115_">
		
			<path fill="none" stroke="#C346FF" stroke-width="2.75" stroke-linecap="round" stroke-linejoin="round" stroke-miterlimit="10" d="
			M234.007,640.071c-0.291,1.243-0.539,2.524-0.608,3.8c-0.038,0.758-0.016,1.531,0.166,2.27c0.128,0.518,0.347,1.022,0.689,1.436
			c0.324,0.397,0.753,0.699,1.218,0.91c0.574,0.262,1.201,0.406,1.819,0.518c1.407,0.254,2.904,0.364,4.333,0.432
			c0.992,0.045,2.787,0.084,3.804,0.097c0,0,46.676,0.02,46.676,0.02c1.761-0.023,3.938-0.006,5.689-0.145
			c1.141-0.1,2.329-0.26,3.332-0.848c0.389-0.232,0.732-0.541,0.999-0.906c0.344-0.466,0.571-1.012,0.731-1.566
			c0.286-1.009,0.392-2.068,0.397-3.114c-0.006-1.546-0.237-3.128-0.908-4.533c-0.496-1.03-1.255-1.928-2.164-2.619
			c-3.233-2.483-7.697-2.16-11.374-3.551c-1.539-0.56-2.887-1.539-4.086-2.638c-2.137-1.97-4.094-4.314-5.956-6.546"/>
	</g>
	<g id="POLYLINE_114_">
		
			<path fill="none" stroke="#C346FF" stroke-width="2.75" stroke-linecap="round" stroke-linejoin="round" stroke-miterlimit="10" d="
			M509.647,248.372c-0.33,2.24-0.783,4.522-1.446,6.688c-0.383,1.189-0.847,2.385-1.599,3.394c-0.404,0.539-0.907,1.005-1.477,1.364
			c-0.774,0.492-1.653,0.804-2.537,1.037c-1.446,0.374-2.962,0.557-4.451,0.652c-1.987,0.117-4.024,0.059-6.001-0.176
			c-2.193-0.266-4.387-0.756-6.413-1.652c-2.317-1.013-4.422-2.589-5.88-4.67c-1.691-2.411-2.515-5.406-2.557-8.335
			c-0.003-0.971,0.085-1.958,0.366-2.891c0.263-0.912,0.829-1.853,1.289-2.682c0.395-0.707,0.702-1.468,0.867-2.262
			c0.428-1.958,0.395-4.662,0.484-6.672c0.076-1.76,0.366-6.3,0.357-7.989c-0.004-0.384-0.013-0.784-0.073-1.163
			c-0.042-0.266-0.114-0.531-0.238-0.772c-0.12-0.235-0.288-0.446-0.484-0.622c-0.32-0.293-0.881-0.596-1.249-0.83
			c-0.924-0.582-1.724-1.349-2.409-2.196c-1.145-1.418-1.947-3.108-2.338-4.887c-0.272-1.213-0.397-2.464-0.398-3.706
			c0.004-1.122,0.101-2.258,0.382-3.347c0.23-0.855,0.578-1.764,1.331-2.289c0.442-0.31,0.992-0.431,1.526-0.413
			c0.858,0.02,1.707,0.353,2.333,0.944c0.636,0.586,1.014,1.391,1.272,2.204c0.397,1.23,0.62,2.708,0.851,3.985
			c0.098,0.527,0.199,1.096,0.363,1.606c0.096,0.287,0.221,0.585,0.462,0.781c0.229,0.186,0.53,0.247,0.815,0.296
			c0.439,0.069,0.917,0.058,1.311-0.168c0.289-0.162,0.491-0.443,0.619-0.743c0.188-0.434,0.286-0.911,0.377-1.374
			c0.197-1.029,0.336-2.348,0.821-3.283c0.138-0.259,0.323-0.498,0.564-0.668c0.734-0.507,1.746-0.456,2.598-0.538
			c0.466-0.043,0.947-0.103,1.367-0.324c0.418-0.22,0.732-0.595,0.959-1.003c0.296-0.533,0.477-1.127,0.629-1.714
			c0.442-1.769,0.68-3.793,1.308-5.511c0.371-1.011,0.906-2.053,1.86-2.621c0.592-0.349,1.292-0.464,1.972-0.473
			c1.185-0.009,2.362,0.261,3.5,0.566c2.953,0.851,6.19,2.08,9.195,2.714c0.981,0.213,2,0.386,2.997,0.504
			c1.176,0.143,3.469,0.261,4.671,0.334c1.077,0.088,2.199,0.158,3.23,0.504c0.379,0.133,0.754,0.32,1.021,0.627
			c0.253,0.285,0.387,0.654,0.456,1.024c0.063,0.326,0.082,0.67,0.094,1.001c0.023,3.185-0.013,10.098-0.053,13.214
			c-0.095,3.328-0.068,6.884-0.662,10.163c-0.215,1.149-0.534,2.301-0.968,3.387c-0.394,0.991-0.903,1.963-1.435,2.887
			c-1.008,1.743-2.965,4.694-3.941,6.449c-0.776,1.358-1.743,3.481-2.419,4.908c-0.655,1.34-1.361,2.709-2.332,3.85
			c-0.708,0.843-1.601,1.537-2.623,1.956c-1.458,0.61-3.066,0.771-4.634,0.736c-2.102-0.06-4.199-0.46-6.212-1.058
			c-3.197-0.967-6.315-2.593-8.467-5.205c-1.338-1.613-2.334-3.492-3.195-5.394c-1.226-2.774-2.155-5.722-2.474-8.746"/>
	</g>
	<g id="POLYLINE_113_">
		
			<path fill="none" stroke="#C346FF" stroke-width="2.75" stroke-linecap="round" stroke-linejoin="round" stroke-miterlimit="10" d="
			M477.064,203.982c0.182-2.361,0.497-4.767,1.078-7.064c0.741-2.948,1.862-5.839,3.196-8.567c1.488-2.971,3.221-5.895,5.57-8.27
			c1.277-1.28,2.763-2.358,4.384-3.162c2.411-1.195,5.071-1.837,7.731-2.17c4.206-0.497,8.549-0.237,12.603,1.029
			c2.591,0.822,5.048,2.109,7.158,3.826c2.438,1.975,4.416,4.583,5.379,7.589c1.217,3.686,1.091,7.677,0.882,11.506
			c-0.345,6.724-1.119,13.553-2.822,20.076"/>
	</g>
	<g id="POLYLINE_112_">
		
			<path fill="none" stroke="#C346FF" stroke-width="2.75" stroke-linecap="round" stroke-linejoin="round" stroke-miterlimit="10" d="
			M506.112,360.575c-0.643-1.69-1.285-3.454-2.233-5c-0.18-0.276-0.373-0.554-0.631-0.763c-0.247-0.204-0.563-0.301-0.879-0.325
			c-0.823-0.06-2.021,0.148-2.853,0.237c-3.899,0.511-13.32,1.546-17.044,2.284c-0.777,0.153-1.596,0.327-2.353,0.559
			c-0.455,0.142-0.915,0.312-1.302,0.597c-0.268,0.196-0.491,0.451-0.658,0.738c-0.256,0.439-0.405,0.936-0.525,1.427
			c-0.226,0.951-0.342,1.956-0.427,2.929c-0.155,1.924-0.173,3.897-0.074,5.825c0.083,1.387,0.209,2.809,0.556,4.158
			c0.238,0.911,0.637,1.886,1.503,2.36c0.437,0.246,0.936,0.359,1.429,0.421c1.366,0.157,2.799,0.025,4.167-0.08
			c3.248-0.322,7.512-0.741,10.736-1.185c3.586-0.507,7.472-1.201,11.013-1.966c0.472-0.116,0.972-0.219,1.401-0.453
			c0.134-0.076,0.259-0.173,0.353-0.296c0.091-0.118,0.15-0.258,0.189-0.401c0.166-0.702,0.086-1.492,0.013-2.205
			C508.102,366.408,507.135,363.44,506.112,360.575z"/>
	</g>
	<g id="POLYLINE_111_">
		
			<path fill="none" stroke="#C346FF" stroke-width="2.75" stroke-linecap="round" stroke-linejoin="round" stroke-miterlimit="10" d="
			M478.247,374.661c-5.843,0.446-12.392,0.827-18.235,0.856c-2.949-0.006-6.059-0.015-8.982-0.406
			c-0.614-0.091-1.241-0.198-1.831-0.391c-0.356-0.118-0.708-0.272-1.009-0.499c-0.49-0.359-0.761-0.902-0.884-1.486
			c-0.18-0.859-0.128-1.752-0.051-2.62c0.318-3.021,1.085-6.473,1.697-9.462c0.056-0.243,0.122-0.491,0.241-0.713
			c0.17-0.324,0.463-0.562,0.768-0.756c0.424-0.267,0.89-0.47,1.366-0.627"/>
	</g>
	<g id="POLYLINE_110_">
		
			<path fill="none" stroke="#C346FF" stroke-width="2.75" stroke-linecap="round" stroke-linejoin="round" stroke-miterlimit="10" d="
			M504.104,355.949c5.027-0.939,10.588-2.049,15.529-3.325c3.744-0.975,7.513-2.149,11.02-3.798
			c0.462-0.224,2.239-1.085,2.672-1.277c0.466-0.204,0.945-0.412,1.443-0.52c0.22-0.045,0.452-0.073,0.672-0.016
			c0.16,0.041,0.303,0.133,0.419,0.249c0.104,0.103,0.193,0.224,0.274,0.346c0.236,0.361,0.46,0.794,0.661,1.177
			c1.16,2.31,2.27,4.85,3.232,7.25c0.318,0.838,0.623,1.706,0.771,2.592c0.091,0.555,0.113,1.133-0.023,1.683
			c-0.118,0.489-0.366,0.942-0.697,1.319c-0.814,0.913-1.954,1.453-3.057,1.935c-2.757,1.137-5.742,1.977-8.614,2.773
			c-6.411,1.72-13.302,3.193-19.831,4.382"/>
	</g>
	<g id="POLYLINE_109_">
		
			<path fill="none" stroke="#C346FF" stroke-width="2.75" stroke-linecap="round" stroke-linejoin="round" stroke-miterlimit="10" d="
			M479.248,240.502l-2.644,0.392c-0.925,0.153-1.87,0.362-2.766,0.638c-1.762,0.549-3.693,1.213-5.548,1.23
			c-1.385,0.032-2.928-0.191-4.314-0.185c-0.54,0.005-1.09,0.044-1.612,0.188c-0.332,0.092-0.653,0.234-0.933,0.437
			c-0.311,0.224-0.571,0.513-0.786,0.828c-0.659,0.988-0.97,2.168-1.282,3.301c-1.014,4.019-2.227,8.23-3.721,12.09
			c-1.201,3.225-3.873,8.647-5.346,11.811c-1.85,4.027-3.52,8.235-4.386,12.593c-0.667,3.313-0.868,6.739-0.492,10.101
			c0.441,3.991,1.703,7.901,3.041,11.673c1.664,4.577,4.495,11.547,5.585,16.196c1.427,5.687,1.838,11.62,1.654,17.469
			c-0.135,4.127-0.565,8.312-1.702,12.292c-0.294,1.03-0.67,2.109-1.07,3.103c-0.437,1.104-1.259,2.918-1.646,4.033
			c-0.196,0.594-0.423,1.284-0.329,1.912c0.038,0.243,0.157,0.473,0.348,0.63c0.242,0.203,0.553,0.304,0.858,0.368
			c0.46,0.095,0.94,0.111,1.409,0.115c1.685-0.005,12.696-0.775,14.605-0.876c2.84-0.219,6.734-0.594,9.569-0.912"/>
	</g>
	<g id="POLYLINE_108_">
		
			<path fill="none" stroke="#C346FF" stroke-width="2.75" stroke-linecap="round" stroke-linejoin="round" stroke-miterlimit="10" d="
			M533.585,347.435l-0.505-0.747c-0.754-1.131-2.221-3.464-2.984-4.515c-0.559-0.83-2.006-2.645-2.633-3.476
			c-1.572-2.058-3.05-4.252-3.961-6.69c-1.359-3.689-1.506-7.71-1.432-11.603c0.048-1.628,0.141-3.486,0.279-5.108
			c0.128-1.469,0.398-2.95,0.981-4.312c1.079-2.47,3.07-5.158,4.289-7.559c1.485-2.761,2.425-5.8,2.902-8.893
			c0.543-3.48,0.594-7.064,0.19-10.562c-0.473-4.519-2.256-9.529-3.62-13.862c-0.682-2.114-1.168-4.718-1.575-6.915
			c-0.264-1.261-0.559-2.559-1.218-3.68c-1.007-1.721-2.845-2.713-4.651-3.41c-1.746-0.676-3.79-1.313-5.28-2.469
			c-1.93-1.502-3.16-3.732-3.963-6.005"/>
	</g>
	<g id="POLYLINE_107_">
		
			<path fill="none" stroke="#C346FF" stroke-width="2.75" stroke-linecap="round" stroke-linejoin="round" stroke-miterlimit="10" d="
			M466.576,242.709c-0.071-0.574-0.228-1.183-0.13-1.762c0.054-0.339,0.203-0.658,0.412-0.929c0.185-0.243,0.408-0.462,0.634-0.666
			c0.739-0.663,1.726-1.34,2.448-2.024c0.384-0.367,0.756-0.773,0.968-1.267c0.289-0.67,0.179-1.449,0.131-2.155
			c-0.026-0.429-0.028-0.878,0.141-1.281c0.253-0.58,0.784-0.976,1.273-1.349c0.733-0.547,1.635-1.097,2.176-1.845
			c0.811-1.113,0.367-2.697,0.228-3.957c-0.078-0.656-0.126-1.34,0.058-1.983c0.427-1.451,1.693-2.432,2.863-3.292"/>
	</g>
	<g id="POLYLINE_106_">
		
			<path fill="none" stroke="#C346FF" stroke-width="2.75" stroke-linecap="round" stroke-linejoin="round" stroke-miterlimit="10" d="
			M418.464,401.253c-0.415-0.541-0.893-1.265-1.362-1.752c-0.235-0.251-0.492-0.491-0.792-0.662
			c-0.409-0.238-0.891-0.311-1.359-0.298c-0.627,0.017-1.255,0.148-1.865,0.288c-1.294,0.31-2.617,0.746-3.868,1.2
			c-1.039,0.388-2.092,0.813-3.044,1.387c-0.508,0.311-0.997,0.679-1.352,1.163c-0.647,0.866-0.7,2.003-0.641,3.043
			c0.104,2.009,0.781,4.256,1.311,6.197c0.182,0.704,0.375,1.432,0.421,2.16c0.046,1.421-0.286,2.987-0.486,4.393l-7.355,42.038
			c-0.125,0.85-0.328,1.991-0.4,2.837c-0.066,0.774-0.129,1.582,0.088,2.338c0.094,0.315,0.261,0.611,0.501,0.838
			c0.333,0.318,0.765,0.508,1.188,0.675c1.532,0.571,3.159,0.914,4.775,1.144c0.823,0.103,1.671,0.172,2.495,0.047
			c0.356-0.057,0.717-0.148,1.025-0.344c0.5-0.315,0.787-0.863,0.997-1.399c0.23-0.595,0.385-1.24,0.527-1.862
			c0.082-0.28,0.213-1.085,0.285-1.376c0,0,4.776-25.738,4.776-25.738c0.583-3.04,5.39-25.806,5.694-28.265
			c0.142-1.034,0.225-2.097,0.176-3.14c-0.051-1.01-0.148-2.046-0.524-2.993C419.405,402.488,418.897,401.843,418.464,401.253z"/>
	</g>
	<g id="POLYLINE_105_">
		
			<path fill="none" stroke="#C346FF" stroke-width="2.75" stroke-linecap="round" stroke-linejoin="round" stroke-miterlimit="10" d="
			M404.441,424.188c-2.282-1.282-4.587-3.026-5.427-5.611c-0.267-0.813-0.37-1.675-0.38-2.529c-0.037-1.875,0.329-3.937,0.539-5.8
			c0.393-3.071,0.056-7.379-0.04-10.498c-0.123-2.567,0.063-8.631,0.104-11.27c0.009-0.807,0.015-4.275,0.055-5.057
			c0.069-1.802,0.205-3.648,0.714-5.386c0.715-2.582,2.628-5.347,3.966-7.648c2.002-3.425,3.791-7.063,5.267-10.743
			c2.721-6.532,6.458-19.695,8.609-26.592c1.359-4.312,2.865-8.858,4.829-12.931l2.205-4.489c0.852-1.765,1.503-3.642,1.934-5.553
			c0.932-3.882,1.311-10.41,1.723-14.432c0.321-3.223,0.882-6.535,1.667-9.677c0.536-2.209,1.717-6.403,2.023-8.576
			c0.356-2.242,0.362-5.012,0.511-7.286c0.152-2.371,0.441-4.797,0.945-7.119c0.586-2.689,1.451-5.369,2.418-7.943
			c0.534-1.408,1.137-2.884,1.761-4.254c0.533-1.156,1.13-2.316,1.874-3.352c0.943-1.32,2.163-2.457,3.577-3.257
			c2.131-1.177,4.643-1.351,7.031-1.367c3.481,0.016,7.02,0.473,10.457,0.994"/>
	</g>
	<g id="POLYLINE_104_">
		
			<path fill="none" stroke="#C346FF" stroke-width="2.75" stroke-linecap="round" stroke-linejoin="round" stroke-miterlimit="10" d="
			M418.464,401.253c0.144-1.593,0.242-3.232,0.144-4.83c-0.066-1.031-0.223-2.07-0.581-3.043c-0.129-0.355-0.29-0.709-0.462-1.046
			c-0.719-1.384-1.774-3.054-2.466-4.449c-0.755-1.491-1.251-3.113-1.541-4.756c-0.169-0.998-0.328-2.033-0.128-3.038
			c0.131-0.693,0.395-1.36,0.694-1.996c0.642-1.351,1.51-2.722,2.299-3.995l17.108-26.274c2.293-3.669,4.652-7.468,6.215-11.513
			c1.028-2.644,1.677-5.46,2.176-8.248c0.617-3.762,1.4-8.972,2.236-12.642c0.898-4.062,2.123-8.307,3.46-12.248"/>
	</g>
	<g id="POLYLINE_103_">
		
			<path fill="none" stroke="#C346FF" stroke-width="2.75" stroke-linecap="round" stroke-linejoin="round" stroke-miterlimit="10" d="
			M412.115,308.773c-0.447,0.092-0.918,0.055-1.346-0.103c-0.553-0.201-1.029-0.572-1.437-0.989c-0.764-0.8-1.453-1.793-1.502-2.934
			c-0.044-0.916,0.352-1.791,0.863-2.531c0.628-0.887,1.492-1.709,2.545-2.045c0.395-0.123,0.823-0.15,1.226-0.05
			c0.642,0.154,1.2,0.545,1.685,0.98c0.777,0.716,1.428,1.575,2.002,2.459c0.141,0.236,0.263,0.492,0.297,0.767
			c0.037,0.284-0.027,0.572-0.137,0.834c-0.152,0.363-0.374,0.697-0.611,1.009c-0.534,0.691-1.176,1.304-1.891,1.807
			C413.294,308.333,412.731,308.646,412.115,308.773z"/>
	</g>
	<g id="POLYLINE_102_">
		
			<path fill="none" stroke="#C346FF" stroke-width="2.75" stroke-linecap="round" stroke-linejoin="round" stroke-miterlimit="10" d="
			M415.801,303.04c1.213-0.047,2.569-0.214,3.437-1.155c0.776-0.842,1.249-1.98,1.932-2.892c0.58-0.815,1.391-1.429,2.228-1.959
			c0.979-0.615,2.274-1.331,3.108-2.124c0.984-0.899,1.779-2.036,2.525-3.135"/>
	</g>
	<g id="POLYLINE_101_">
		
			<path fill="none" stroke="#C346FF" stroke-width="2.75" stroke-linecap="round" stroke-linejoin="round" stroke-miterlimit="10" d="
			M412.678,300.183c0.12-0.993,0.296-2.048,0.931-2.854c0.29-0.367,0.679-0.643,1.071-0.892c0.695-0.438,1.508-0.848,2.06-1.468
			c0.605-0.667,0.9-1.673,1.231-2.495c0.238-0.587,0.512-1.191,0.993-1.62c0.451-0.397,1.034-0.602,1.6-0.779
			c0.93-0.292,2.002-0.499,2.713-1.213c0.931-0.952,1.217-2.386,1.901-3.495c0.263-0.43,0.636-0.784,1.051-1.066
			c0.762-0.508,1.642-0.918,2.337-1.522c1.333-1.126,2.419-2.534,3.409-3.962"/>
	</g>
	<g id="POLYLINE_100_">
		
			<path fill="none" stroke="#C346FF" stroke-width="2.75" stroke-linecap="round" stroke-linejoin="round" stroke-miterlimit="10" d="
			M408.616,306.82c-0.428,0.313-1.007,0.75-1.424,1.075c-4.049,3.252-8.357,6.574-11.629,10.631
			c-1.788,2.193-3.303,4.649-4.222,7.335c-2.289,6.56-1.059,13.611,2.56,19.443c0.968,1.579,2.082,3.094,3.283,4.505
			c1.043,1.217,2.169,2.39,3.402,3.416c0.559,0.458,1.153,0.905,1.791,1.248c0.322,0.169,0.664,0.323,1.027,0.375l0.028,0.003
			l0.028,0.003l0.027,0.002l0.027,0.002l0.026,0.001l0.026,0.001l0.026,0l0.025-0.001l0.025-0.001l0.025-0.002l0.024-0.002
			l0.024-0.003l0.023-0.003l0.023-0.004l0.023-0.005l0.022-0.005l0.022-0.006l0.021-0.006l0.021-0.007l0.021-0.008l0.02-0.008
			l0.02-0.009l0.019-0.009l0.019-0.01l0.019-0.011l0.018-0.011l0.018-0.012l0.015-0.011l0.015-0.012l0.015-0.012l0.014-0.012
			l0.014-0.013l0.014-0.013l0.013-0.014l0.013-0.014l0.013-0.015l0.012-0.015l0.012-0.016l0.012-0.016l0.011-0.017l0.011-0.017
			l0.011-0.018l0.011-0.018l0.01-0.018l0.01-0.019l0.01-0.019l0.009-0.02l0.009-0.02l0.009-0.021l0.009-0.021l0.008-0.021
			c0.104-0.285,0.124-0.596,0.13-0.897c0.004-0.786-0.118-1.602-0.23-2.38c-0.449-3.033-1.157-6.305-0.611-9.359
			c0.247-1.388,0.739-2.732,1.346-4.001c0.907-1.912,2.292-4.027,3.172-5.951c0.51-1.099,0.877-2.272,1.078-3.467
			c0.421-2.375,0.306-5.22,0.334-7.635c0.017-1.247,0.094-2.539,0.294-3.769c0.273-1.741,0.759-3.483,1.301-5.158l1-2.954"/>
	</g>
	<g id="POLYLINE_99_">
		
			<path fill="none" stroke="#C346FF" stroke-width="2.75" stroke-linecap="round" stroke-linejoin="round" stroke-miterlimit="10" d="
			M448.095,374.147c-1.238,5.936-2.315,12.719-3.148,18.736c-0.558,4.229-1.178,8.773-1.394,13.027
			c-0.024,0.715-0.055,1.466,0.017,2.177c0.038,0.353,0.104,0.71,0.249,1.036c0.111,0.251,0.276,0.48,0.484,0.66
			c0.303,0.264,0.678,0.433,1.057,0.558c0.549,0.179,1.13,0.277,1.702,0.35c1.893,0.255,8.112,0.353,10.112,0.448
			c7.044,0.338,14.284,0.961,21.26,2.01c4.125,0.648,8.353,1.437,12.278,2.891c1.361,0.477,3.651,1.499,5.046,1.738
			c0.4,0.063,0.822,0.067,1.207-0.074c0.403-0.143,0.738-0.427,1.022-0.74c0.59-0.664,1.072-1.446,1.541-2.199l1.942-3.308
			c0.194-0.303,0.397-0.656,0.701-0.861c0.139-0.09,0.3-0.117,0.457-0.06c0.147,0.052,0.275,0.149,0.39,0.252
			c0.286,0.263,0.518,0.587,0.736,0.907c0.995,1.485,1.82,3.389,2.919,4.803c0.36,0.449,0.776,0.885,1.313,1.116
			c0.278,0.119,0.586,0.166,0.886,0.134c0.371-0.038,0.723-0.186,1.045-0.368c0.443-0.251,0.854-0.567,1.247-0.89
			c1.759-1.487,3.67-3.452,5.513-4.831c4.313-3.31,10.5-5.267,15.511-7.296c2.002-0.789,6.614-2.919,8.638-3.825
			c2.306-0.999,4.697-1.953,7.165-2.458c1.505-0.314,3.416-0.464,4.959-0.607c0.527-0.057,1.097-0.116,1.612-0.236
			c0.401-0.099,0.84-0.225,1.108-0.561c0.227-0.287,0.253-0.674,0.225-1.026c-0.106-1.1-0.532-2.158-0.915-3.186
			c-4.308-10.376-9.043-21.791-14.369-31.665"/>
	</g>
	<g id="POLYLINE_98_">
		
			<path fill="none" stroke="#C346FF" stroke-width="2.75" stroke-linecap="round" stroke-linejoin="round" stroke-miterlimit="10" d="
			M434.888,444.512c-0.152-0.488-0.052-1.053,0.048-1.543c0.299-1.302,0.838-2.549,1.429-3.744c0.281-0.544,0.571-1.103,0.928-1.603
			c0.238-0.331,0.53-0.633,0.891-0.829c0.686-0.366,1.496-0.432,2.258-0.487c2.243-0.107,4.516,0.161,6.735,0.473
			c5.218,0.774,10.483,2.127,15.532,3.648c4.431,1.361,9.004,2.897,13.263,4.729c1.152,0.519,2.366,1.045,3.411,1.761
			c0.226,0.163,0.449,0.345,0.613,0.573c0.224,0.304,0.269,0.672,0.225,1.041c-0.081,0.691-0.325,1.484-0.483,2.162
			c-0.442,1.63-0.904,3.307-1.71,4.8c-0.256,0.447-0.561,0.904-1.025,1.154c-0.68,0.364-1.462,0.046-2.092-0.278
			c-0.646-0.325-2.13-1.31-2.769-1.71c-1.183-0.745-2.437-1.457-3.698-2.06c-4.038-1.9-8.457-3.156-12.765-4.296
			c-3.919-0.999-8.115-1.912-12.11-2.537c-1.19-0.18-2.475-0.352-3.676-0.426c-0.888-0.064-2.003-0.041-2.891-0.03
			c-0.494-0.008-1.011,0.002-1.48-0.172C435.227,445.031,434.986,444.816,434.888,444.512z"/>
	</g>
	<g id="POLYLINE_97_">
		
			<path fill="none" stroke="#C346FF" stroke-width="2.75" stroke-linecap="round" stroke-linejoin="round" stroke-miterlimit="10" d="
			M435.875,445.238c-3.859,17.299-8.178,39.33-13.781,55.95c-0.998,2.956-2.172,6.115-3.371,8.996
			c-1.336,3.309-4.986,10.898-6.544,14.236c-1.231,2.757-2.631,5.645-3.299,8.598c-0.336,1.545-0.427,3.255,0.347,4.687
			c0.464,0.876,1.193,1.586,1.992,2.16c1.164,0.831,2.492,1.433,3.817,1.96c1.956,0.764,4.019,1.381,6.054,1.897
			c2.159,0.539,4.387,0.996,6.597,1.267c1.151,0.125,2.339,0.25,3.494,0.114c0.42-0.055,0.842-0.162,1.214-0.369
			c0.332-0.182,0.617-0.442,0.855-0.735c0.665-0.843,1.088-1.857,1.484-2.847c2.024-5.404,3.067-11.782,4.865-17.262
			c0.873-2.701,1.999-5.358,3.542-7.747c1.809-2.855,4.541-6.102,6.362-8.948c1.439-2.213,2.601-4.655,3.651-7.074
			c1.284-3.02,3.684-9.023,5.172-11.853c1.869-3.765,6.317-10.984,8.493-14.691c2.694-4.553,6.215-12.156,8.566-16.982"/>
	</g>
	<g id="POLYLINE_96_">
		
			<path fill="none" stroke="#C346FF" stroke-width="2.75" stroke-linecap="round" stroke-linejoin="round" stroke-miterlimit="10" d="
			M408.822,533.304c-1.446,1.661-2.494,3.64-3.364,5.652c-0.842,1.964-1.541,4.064-2.153,6.11
			c-2.603,9.325-6.071,24.105-8.189,33.522c-0.886,3.915-1.874,9.869-2.697,13.822c-0.205,0.917-0.451,1.872-0.742,2.766
			c-0.981,3.108-3.003,6.125-4.328,9.086c-0.518,1.162-0.909,2.402-1.187,3.643c-0.459,1.933-0.8,5.38-1.069,7.35
			c-0.337,2.378-0.783,4.88-1.326,7.218c-0.301,1.28-0.649,2.583-1.132,3.807c-0.377,0.967-0.872,1.896-1.444,2.761
			c-0.844,1.289-1.791,2.661-2.368,4.091c-0.939,2.29-1.39,4.773-1.751,7.211c-0.229,1.737-0.458,3.52-0.386,5.276
			c0.032,0.583,0.102,1.175,0.294,1.728c0.136,0.393,0.35,0.767,0.664,1.043c0.429,0.38,0.988,0.568,1.538,0.695
			c1.342,0.288,2.763,0.326,4.131,0.389c3.956,0.102,18.871,0.116,22.81,0.048c0.534-0.03,1.083-0.071,1.603-0.205
			c0.371-0.096,0.734-0.253,1.021-0.512c0.299-0.266,0.505-0.622,0.645-0.994c0.248-0.664,0.332-1.386,0.409-2.086
			c0.206-1.964,0.197-4.006,0.124-5.979c-0.211-3.838-0.539-9.385-0.515-13.141c0.005-6.564,0.417-13.245,1.54-19.715
			c0.964-5.666,2.602-11.259,4.724-16.597c4.426-11.127,11.508-23.551,15.894-34.696c0.877-2.249,2.106-5.098,2.7-7.429
			c0.546-2.073,0.637-4.238,0.191-6.34"/>
	</g>
	<g id="POLYLINE_95_">
		
			<path fill="none" stroke="#C346FF" stroke-width="2.75" stroke-linecap="round" stroke-linejoin="round" stroke-miterlimit="10" d="
			M480.142,447.758c1.978-3.366,5.993-10.049,7.749-13.412c2.495-4.702,6.367-12.233,9.148-16.672"/>
	</g>
	<g id="POLYLINE_94_">
		
			<path fill="none" stroke="#C346FF" stroke-width="2.75" stroke-linecap="round" stroke-linejoin="round" stroke-miterlimit="10" d="
			M444.039,409.501c-0.802,5.283-3.558,15.651-4.847,20.959l-1.541,6.738"/>
	</g>
	<g id="POLYLINE_93_">
		
			<path fill="none" stroke="#C346FF" stroke-width="2.75" stroke-linecap="round" stroke-linejoin="round" stroke-miterlimit="10" d="
			M431.429,465.624c-2.352-0.291-4.741-0.673-6.995-1.42c-1.31-0.446-2.62-1.029-3.64-1.986c-0.412-0.39-0.786-0.843-0.986-1.379
			c-0.273-0.718-0.19-1.509-0.034-2.244c0.204-1.01,0.945-3.159,1.26-4.176c0.635-1.987,1.239-4.121,1.718-6.15
			c1.309-5.469,2.429-13.612,3.598-19.141c0.202-0.921,0.434-1.89,0.723-2.788c0.261-0.786,0.561-1.587,1.077-2.244
			c0.209-0.262,0.462-0.493,0.754-0.661c0.275-0.16,0.582-0.264,0.892-0.331c1.212-0.244,2.471-0.181,3.693-0.056
			c2.391,0.267,4.82,0.84,7.154,1.418"/>
	</g>
	<g id="POLYLINE_92_">
		
			<path fill="none" stroke="#C346FF" stroke-width="2.75" stroke-linecap="round" stroke-linejoin="round" stroke-miterlimit="10" d="
			M558.779,540.505c-0.393,0.304-0.751,0.68-0.939,1.146c-0.161,0.389-0.184,0.824-0.119,1.237c0.069,0.452,0.226,0.89,0.404,1.31
			c0.668,1.586,3.481,6.242,4.346,7.813c4.834,8.58,8.975,20.451,12.668,29.651c1.642,4.064,3.51,8.174,5.741,11.948
			c0.67,1.166,1.741,2.814,2.36,4.004c0.234,0.458,0.444,0.94,0.6,1.431c0.376,1.15,0.43,2.382,0.43,3.583
			c-0.014,1.842-0.106,4.436,0.082,6.245c0.138,1.669,0.817,4.676,1.135,6.35c1.491,7.506,0.305,16.453,0.422,24.065
			c0.027,1.276,0.089,2.607,0.264,3.871c0.23,1.572,0.574,3.194,1.457,4.541c0.279,0.414,0.623,0.792,1.038,1.074
			c0.351,0.24,0.752,0.403,1.163,0.508c0.59,0.151,1.214,0.202,1.821,0.236c0.933,0.087,22.24,0.035,23.65,0.041
			c0.378-0.01,0.792-0.053,1.081-0.322c0.208-0.189,0.342-0.444,0.454-0.698c0.232-0.545,0.384-1.132,0.517-1.709
			c0.522-2.437,0.697-4.998,0.19-7.451c-0.354-1.714-1.088-3.341-2.089-4.774c-1.55-2.279-3.719-4.308-4.935-6.804
			c-0.439-0.911-0.738-1.893-0.952-2.88c-0.701-3.343-1.033-9.291-1.397-12.732c-0.252-2.372-0.555-4.902-1.062-7.227
			c-0.538-2.641-1.647-5.907-2.427-8.503c-1.052-3.439-2.171-11.548-2.838-15.169c-1.772-9.997-4.25-20.429-6.981-30.209
			c-1.33-4.587-3.106-11.226-4.733-15.647c-0.209-0.519-0.457-1.051-0.883-1.429c-0.337-0.303-0.781-0.461-1.227-0.51
			c-0.645-0.072-1.301,0.022-1.934,0.145"/>
	</g>
	<g id="POLYLINE_91_">
		
			<path fill="none" stroke="#C346FF" stroke-width="2.75" stroke-linecap="round" stroke-linejoin="round" stroke-miterlimit="10" d="
			M562.155,420.588c-0.087-1.13-0.373-2.476-0.577-3.597c-0.101-0.487-0.21-0.992-0.479-1.418c-0.099-0.158-0.222-0.305-0.379-0.409
			c-0.25-0.167-0.554-0.227-0.851-0.244c-0.674-0.032-1.353,0.105-2.008,0.25c-1.8,0.424-3.747,1.109-5.501,1.716
			c-9.878,3.565-23.647,9.234-33.379,13.3c-0.947,0.419-2.066,0.865-2.97,1.367c-0.188,0.109-0.379,0.229-0.541,0.375
			c-0.263,0.237-0.474,0.541-0.563,0.886c-0.118,0.451-0.057,0.928,0.052,1.375c0.342,1.275,0.948,2.478,1.616,3.61
			c0.444,0.718,0.953,1.469,1.733,1.85c0.376,0.183,0.801,0.25,1.217,0.231c0.683-0.032,1.352-0.232,2-0.439
			c4.581-1.609,23.418-9.865,28.242-11.846c0.726-0.304,10.245-4.097,10.626-4.311c0.311-0.146,0.625-0.303,0.908-0.498
			c0.202-0.14,0.391-0.307,0.534-0.508C562.187,421.793,562.194,421.162,562.155,420.588z"/>
	</g>
	<g id="POLYLINE_90_">
		
			<path fill="none" stroke="#C346FF" stroke-width="2.75" stroke-linecap="round" stroke-linejoin="round" stroke-miterlimit="10" d="
			M559.752,414.915c-0.731-4.41-1.782-8.851-3.253-13.076l-1.651-4.677"/>
	</g>
	<g id="POLYLINE_89_">
		
			<path fill="none" stroke="#C346FF" stroke-width="2.75" stroke-linecap="round" stroke-linejoin="round" stroke-miterlimit="10" d="
			M508.718,417.758l2.581,6.372c1.144,2.677,2.572,5.462,3.943,8.037"/>
	</g>
	<g id="POLYLINE_88_">
		
			<path fill="none" stroke="#C346FF" stroke-width="2.75" stroke-linecap="round" stroke-linejoin="round" stroke-miterlimit="10" d="
			M519.458,439.882c7.229,13.333,16.205,28.396,20.597,42.899c1.422,4.64,3.964,13.375,5.638,17.793
			c2.92,7.952,7.958,20.319,9.942,28.428l1.599,6.571c0.513,1.962,1.056,3.993,1.945,5.821c0.489,0.995,1.102,1.957,1.945,2.69
			c1,0.883,2.321,1.304,3.631,1.428c1.237,0.12,2.496,0.019,3.723-0.159c2.219-0.329,4.538-0.959,6.709-1.534
			c2.179-0.601,4.418-1.262,6.5-2.146c1.108-0.482,2.222-1.025,3.157-1.801c0.377-0.317,0.719-0.686,0.974-1.109
			c0.223-0.367,0.378-0.775,0.468-1.194c0.282-1.388,0.016-2.848-0.258-4.218c-1.331-6.127-5.754-16.467-7.929-22.446
			c-2.874-7.637-4.915-15.773-6.615-23.749c-2.682-12.724-5.304-26.894-7.237-39.759l-3.269-24.409"/>
	</g>
	<g id="POLYLINE_87_">
		
			<path fill="none" stroke="#C346FF" stroke-width="2.75" stroke-linecap="round" stroke-linejoin="round" stroke-miterlimit="10" d="
			M564.021,445.865c2.387-0.341,4.812-1.054,6.734-2.56c0.748-0.598,1.415-1.343,1.763-2.246c0.39-1,0.383-2.102,0.293-3.156
			c-0.529-4.674-2.197-10.898-3.223-15.535c-0.867-3.423-1.917-8.732-3.166-11.992c-0.162-0.368-0.366-0.728-0.661-1.007
			c-0.651-0.62-1.612-0.699-2.469-0.68c-1.549,0.053-3.109,0.399-4.619,0.732"/>
	</g>
	<g id="POLYLINE_86_">
		
			<path fill="none" stroke="#C346FF" stroke-width="2.75" stroke-linecap="round" stroke-linejoin="round" stroke-miterlimit="10" d="
			M525.881,306.443c3.735,13.079,7.75,28.787,10.762,42.053"/>
	</g>
	<g id="POLYLINE_85_">
		
			<path fill="none" stroke="#C346FF" stroke-width="2.75" stroke-linecap="round" stroke-linejoin="round" stroke-miterlimit="10" d="
			M541.992,363.406c6.05,7.656,12.513,16.326,18.015,24.359c2.438,3.632,5.051,7.468,7.027,11.367
			c0.7,1.424,1.361,2.909,1.665,4.474c0.164,0.853,0.18,1.733,0.11,2.597c-0.069,0.849-0.242,2.167-0.301,3.015
			c-0.14,1.755-0.277,4.919-0.471,6.657"/>
	</g>
	<g id="POLYLINE_84_">
		
			<path fill="none" stroke="#C346FF" stroke-width="2.75" stroke-linecap="round" stroke-linejoin="round" stroke-miterlimit="10" d="
			M570.664,443.376c2.464-0.097,5.295-0.642,6.756-2.836c0.877-1.299,1.152-2.892,1.327-4.421c0.367-3.16,0.054-6.838,0.186-10.015
			c0.058-0.963,0.165-1.945,0.455-2.87c0.216-0.682,0.556-1.353,1.118-1.812c0.465-0.385,1.048-0.592,1.631-0.719
			c0.875-0.184,1.815-0.283,2.704-0.378c0.959-0.085,1.94-0.135,2.899-0.029c1.283,0.148,2.547,0.554,3.666,1.198
			c0.473,0.284,0.849,0.711,1.082,1.21c0.227,0.469,0.36,0.985,0.467,1.493c0.102,0.46,0.19,1.068,0.266,1.538
			c0,0,0.087,0.589,0.087,0.589l6.57,49.54c0.328,2.774,0.851,6.076,0.912,8.863c0.001,0.465-0.009,0.944-0.101,1.401
			c-0.049,0.236-0.126,0.473-0.272,0.669c-0.156,0.213-0.388,0.358-0.627,0.463c-0.387,0.168-0.799,0.284-1.208,0.387
			c-1.512,0.374-3.093,0.443-4.641,0.297c-0.807-0.082-1.634-0.181-2.415-0.409c-0.346-0.106-0.679-0.275-0.931-0.539
			c-0.288-0.298-0.48-0.675-0.64-1.054c-0.338-0.825-0.537-1.732-0.723-2.603c-1.432-7.444-2.571-19.588-4.005-27.042
			c-0.23-1.132-0.501-2.293-0.89-3.38c-0.26-0.729-0.589-1.445-0.999-2.102c-0.499-0.814-1.325-1.788-1.88-2.568
			c-0.274-0.386-0.54-0.801-0.764-1.219c-0.29-0.559-0.63-1.304-0.952-1.844c-0.822-1.4-1.888-2.658-2.981-3.852"/>
	</g>
	<g id="POLYLINE_83_">
		
			<path fill="none" stroke="#C346FF" stroke-width="2.75" stroke-linecap="round" stroke-linejoin="round" stroke-miterlimit="10" d="
			M589.758,420.754l-0.137-1.447c-0.103-0.988-0.279-1.985-0.603-2.926c-0.549-1.615-1.782-3.761-2.554-5.301
			c-0.748-1.481-1.434-3.032-1.862-4.638c-0.621-2.242-0.946-4.907-1.537-7.158c-0.858-3.523-3.172-6.729-5.049-9.781
			c-1.414-2.311-2.668-4.805-3.784-7.273c-1.413-2.958-7.74-19.109-9.104-22.445c-1.502-3.6-3.205-7.488-4.954-10.948
			c-1.563-3.133-4.329-7.993-6.068-11.11c-0.757-1.395-1.541-2.857-2.149-4.319c-0.474-1.12-0.881-2.358-1.222-3.528
			c-2.28-8.152-4.687-16.715-5.493-25.151c-0.33-2.936-0.229-7.497-0.22-10.499c-0.005-1.937-0.088-4.043-0.24-5.971
			c-0.336-4.437-1.012-9.408-1.685-13.82c-0.271-1.699-0.568-3.568-0.987-5.233c-0.338-1.336-0.771-2.673-1.44-3.883
			c-0.499-0.908-1.155-1.731-1.923-2.426c-0.893-0.813-1.931-1.467-3.001-2.022c-1.975-1.005-4.083-1.788-6.215-2.386
			c-2.35-0.647-4.797-1.069-7.24-1.056"/>
	</g>
</g>
<g id="_x32_D_x24_AG-OUTLINE">
	<g id="POLYLINE_334_">
		
			<path fill="none" stroke="#C346FF" stroke-width="3.5" stroke-linecap="round" stroke-linejoin="round" stroke-miterlimit="10" d="
			M278.764,623.09c1.773,2.126,3.642,4.36,5.65,6.264c1.068,1.001,2.229,1.94,3.559,2.568c2.397,1.132,5.369,1.367,7.922,1.993
			c1.808,0.435,3.599,1.181,4.956,2.484c0.695,0.664,1.258,1.471,1.634,2.355c0.452,1.067,0.666,2.226,0.741,3.378
			c0.052,0.853,0.026,1.719-0.087,2.565c-0.096,0.699-0.245,1.4-0.514,2.055c-0.19,0.459-0.449,0.897-0.797,1.254
			c-0.324,0.337-0.722,0.598-1.148,0.787c-0.698,0.308-1.46,0.456-2.215,0.55c-1.364,0.168-2.983,0.165-4.365,0.196
			c-5.933-0.096-49.568,0.26-54.342-0.22c-1.291-0.125-2.703-0.26-3.931-0.686c-0.6-0.217-1.17-0.557-1.576-1.057
			c-0.619-0.754-0.819-1.756-0.862-2.708c-0.059-1.615,0.252-3.231,0.615-4.798c-0.43-0.127-0.872-0.331-1.12-0.723
			c-0.158-0.244-0.239-0.529-0.295-0.811c-0.9-9.803-4.123-43.101-4.413-52.445l-0.204-9.636c-1.044,2.681-2.432,5.248-4.202,7.521
			c-2.037,2.629-4.575,4.879-7.451,6.552c-6.8,3.967-15.337,4.815-22.884,2.715c-1.187,3.937-2.366,8.07-3.096,12.116
			c-0.568,2.942-0.757,6.778-0.95,9.79c-0.128,1.58-0.285,3.21-0.842,4.704c-0.797,2.156-2.532,3.778-4.225,5.257
			c1.799,2.243,4.21,4.2,6.437,6.015c1.103,0.916,2.22,1.875,3.043,3.059c0.66,0.919,1.064,2.004,1.237,3.119
			c0.16,0.986,0.172,2.004,0.129,3c-0.058,1.271-0.208,2.559-0.428,3.812c-0.166,0.92-0.373,1.859-0.665,2.747
			c-0.158,0.472-0.342,0.945-0.601,1.371c-0.244,0.405-0.581,0.766-1.01,0.975c-0.655,0.32-1.41,0.331-2.125,0.349
			c-3.71-0.017-31.943,0.055-34.879-0.046c-0.982-0.037-2.016-0.094-2.987-0.236c-0.96-0.143-1.931-0.367-2.785-0.844
			c-0.72-0.398-1.328-0.988-1.76-1.687c-0.526-0.846-0.817-1.818-1.003-2.79c-0.304-1.629-0.351-3.317-0.319-4.97
			c0.086-2.975,0.387-6.029,0.839-8.97c-1.366-0.75-2.759-1.541-3.871-2.649c-0.603-0.606-1.117-1.332-1.351-2.162
			c-0.188-0.661-0.201-1.361-0.132-2.041c0.113-1.085,0.419-2.164,0.734-3.205l1.393-4.301c2.054-6.234,2.391-12.928,2.57-19.445
			c0.229-10.004-0.221-23.881,1.687-33.59c1.42-8.059,4.458-16.416,6.45-24.346c1.591-6.416,3.437-16.083,5.036-22.493
			c1.124-4.588,2.542-9.392,4.035-13.873c-0.833-6.365-1.081-12.993-1.085-19.413l0.277-20.601
			c-0.011-7.216-0.434-22.128,0.155-29.114c0.162-2.164,0.416-4.396,0.829-6.526c0.383-1.968,0.907-3.944,1.647-5.809
			c0.771-1.957,1.788-3.834,2.946-5.588c-3.28-1.674-6.554-3.533-9.498-5.752c-1.59-1.226-3.165-2.567-4.281-4.254
			c-0.545-0.835-0.929-1.779-1.11-2.76c-0.261-1.383-0.181-2.821-0.077-4.217l-10.325-2.312c-1.089-0.274-2.269-0.505-3.158-1.235
			c-0.789-0.633-1.286-1.576-1.475-2.56c-0.186-0.946-0.12-1.928,0.085-2.865c0.262-1.18,0.738-2.316,1.403-3.325
			c0.418-0.627,0.912-1.226,1.554-1.635c0.748-0.482,1.632-0.705,2.505-0.827c1.699-0.223,3.449-0.127,5.153,0.003
			c-0.687-0.738-0.91-1.764-0.934-2.745c-0.018-0.591,0.031-1.226,0.095-1.816c0.185-1.601,0.628-3.999,0.823-5.598
			c1.421-12.282,0.927-25.378,0.558-37.741c-0.428-10.485-1.41-31.537-1.33-41.752c-0.004-8.595,0.254-17.695,0.811-26.271
			c0.861-13.264,2.507-26.746,5.05-39.794c0.98-4.749,1.867-9.813,3.842-14.269c1.061-2.393,2.569-4.628,4.639-6.26
			c1.762-1.421,3.814-2.458,5.912-3.285c2.936-1.156,6.126-1.958,9.188-2.708c0.799-0.248,8.947-2.001,9.567-2.228
			c2.617-0.695,6.957-1.896,9.556-2.677l-0.28-1.005c-0.174-0.659-0.323-1.35-0.235-2.034c0.176-1.252,0.977-2.326,1.72-3.31
			c0.677-0.846,2.059-2.577,2.738-3.429c1.025-1.237,2.14-2.484,3.592-3.222c1.855-0.923,4.024-0.876,6.023-0.538
			c1.051-2.349,1.505-4.93,1.752-7.478c0.261-2.881,0.286-5.815-0.106-8.685c-0.436,0.178-0.924,0.264-1.389,0.165
			c-0.392-0.08-0.749-0.288-1.038-0.561c-0.441-0.417-0.766-0.942-1.05-1.474c-0.606-1.163-1.03-2.437-1.402-3.692
			c-3.756-1.155-7.118-3.348-10.135-5.825c-1.605-1.357-3.267-2.785-4.276-4.661c-0.38-0.72-0.636-1.512-0.701-2.325
			c-0.098-1.204,0.175-2.435,0.751-3.495c0.437-0.805,1.061-1.513,1.822-2.025c0.669-0.455,1.442-0.74,2.229-0.913
			c1.099-0.24,2.239-0.282,3.361-0.241c1.825,0.072,3.673,0.377,5.462,0.739c1.811-0.046,3.726-0.069,5.5-0.445
			c0.623-4.968,1.699-15.985,2.64-20.733c0.305-1.57,0.67-3.18,1.174-4.697c0.552-1.654,1.282-3.284,2.383-4.65
			c0.895-1.119,2.069-2.009,3.377-2.593c1.45-0.653,3.045-0.952,4.629-1.008c2.487-0.088,4.977,0.42,7.39,0.971
			c2.819,0.67,6.969,1.819,9.8,2.192c2.041,0.299,4.763,0.271,6.842,0.299c1.246,0.034,2.528,0.101,3.724,0.479
			c1.271,0.392,2.439,1.176,3.176,2.295c0.479,0.711,0.772,1.533,0.961,2.365c0.272,1.203,0.361,2.472,0.422,3.703
			c0.087,2.218,0.137,5.327,0.373,7.521c0.226,2.5,0.96,7.544,1.233,10.056c0.23,2.01,0.324,4.886,0.397,6.932
			c1.994,0.612,4.129,1.896,5.982,2.854c2.569,1.308,5.754,2.308,8.488,3.254c0.336,0.025,0.677,0.066,0.997,0.172
			c0.18,0.061,0.359,0.144,0.498,0.276c0.144,0.133,0.222,0.324,0.2,0.52c-0.015,0.16-0.081,0.311-0.159,0.449
			c-0.127,0.221-0.293,0.419-0.466,0.606c-0.971,1.004-2.17,1.783-3.345,2.525c-1.962,1.205-4.04,2.265-6.161,3.161
			c-3.188,1.344-6.563,2.278-9.996,2.714c-0.263,1.605-0.76,5.9-0.973,7.572c-0.209,1.519-0.454,3.137-0.849,4.615
			c-0.295,1.126-0.696,2.243-1.158,3.312c-0.826,1.885-1.81,3.784-2.825,5.574c-0.924,1.608-1.941,3.228-3.083,4.69
			c1.998,2.604,5.284,6.856,7.413,9.291c2.055,1.596,4.74,3.743,6.879,5.173c1.942,1.347,5.578,3.349,7.657,4.556
			c2.014,1.214,4.092,2.476,5.673,4.242c0.781,0.88,1.396,1.905,1.835,2.995c3.381,2.897,6.244,6.534,7.689,10.784
			c1.154,3.312,1.615,6.855,1.909,10.337c0.412,5.258,0.5,10.754,0.293,16.025c-0.086,1.888-0.383,4.62-0.149,6.476
			c0.252,2.237,1.073,4.396,1.864,6.491c1.446,3.708,3.376,8.073,4.455,11.831c0.508,1.791,0.867,3.643,1.068,5.493
			c0.443,3.671,0.109,7.804,0.643,11.467c0.24,1.655,0.696,3.285,1.353,4.823c1.354,3.178,3.615,6.886,5.131,10.002
			c1.948,3.861,3.423,8.006,4.58,12.17c2.844,9.872,6.847,33.716,8.93,44.113c0.903,4.951,1.6,10.111,1.932,15.129
			c0.591,8.522,0.514,17.185-1.003,25.612c-0.481,2.669-0.902,5.51-1.861,8.057c-0.46,1.192-1.057,2.375-1.988,3.27
			c-1.491,1.428-3.712,1.695-5.686,1.472c-1.289-0.158-2.607-0.47-3.699-1.201c-0.724-0.484-1.316-1.143-1.811-1.855
			c-0.617-0.886-1.123-1.873-1.576-2.853c-1.454-3.222-2.466-6.692-3.262-10.132c-0.821-3.652-1.375-7.453-0.882-11.19
			c0.149-1.129,0.399-2.257,0.752-3.34c0.563-1.738,1.394-3.435,2.239-5.052c1.512-2.922,3.523-6.078,3.992-9.379
			c0.403-2.645-0.253-5.324-1.265-7.762c-1.164-2.809-2.769-5.566-4.323-8.179c-2.839-4.667-8.525-13.375-10.85-18.174
			c-2.564-5.05-4.504-10.859-6.318-16.232c-0.216,2.249-0.98,4.513-1.641,6.667c0.44,0.129,0.863,0.335,1.203,0.646
			c0.329,0.295,0.565,0.681,0.727,1.09c0.349,0.905,0.452,1.893,0.539,2.853c0.041,0.556,0.072,1.136,0.047,1.693
			c-0.007,0.124-0.019,0.25-0.048,0.371c-0.035,0.155-0.108,0.305-0.229,0.411c-0.255,0.217-0.618,0.271-0.938,0.327
			c0.466,3.055,1.452,9.205,1.97,12.238c0.848,0.27,1.729,0.538,2.509,0.973c0.354,0.202,0.698,0.461,0.885,0.832
			c0.191,0.375,0.238,0.803,0.264,1.218c0.047,0.992-0.05,1.996-0.226,2.972c-0.132,0.677-0.297,1.367-0.615,1.983
			c-0.121,0.227-0.272,0.445-0.476,0.604c-0.185,0.147-0.41,0.236-0.641,0.28l2.34,10.515c0.817,3.989,1.411,8.108,1.645,12.172
			c0.202,3.196,0.247,7.022,0.233,10.245c-0.271,27.651-1.542,62.268-3.276,89.834c-2.219,36.009-7.106,77.169-5.727,113.177
			c0.255,5.259,0.654,10.735,1.602,15.92c0.454,2.543,1.279,5.569,1.649,8.124c0.105,0.78,0.17,1.581,0.124,2.368
			c-0.047,0.837-0.233,1.678-0.628,2.421C279.887,622.021,279.358,622.603,278.764,623.09z"/>
	</g>
	<g id="POLYLINE_335_">
		
			<path fill="none" stroke="#C346FF" stroke-width="3.5" stroke-linecap="round" stroke-linejoin="round" stroke-miterlimit="10" d="
			M183.455,282.159c-1.192,11.354-2.258,23.619-2.47,35.014c-0.136,7.41,0.064,19.497-0.712,26.752l-0.939,8.193
			c-0.193,1.933-0.33,3.946-0.306,5.887c0.022,2.479,0.386,5.977,0.587,8.476c0.054,0.775,0.103,1.644,0.105,2.419
			c1.242-2.887,2.337-5.909,3.144-8.947c0.77-2.869,1.287-5.874,1.649-8.822c0.878-7.314,1.521-16.069,3.104-23.215
			c0.371-1.559,0.834-3.129,1.51-4.585c0.751-1.649,1.857-3.127,3.202-4.339c1.442-1.312,3.082-2.432,4.823-3.308
			c-1.234-2.208-2.517-4.597-3.492-6.925c-1.304-3.045-3.413-9.492-4.547-12.684C187.477,291.547,185.375,286.587,183.455,282.159z"
			/>
	</g>
	<g id="POLYLINE_336_">
		
			<path fill="none" stroke="#C346FF" stroke-width="3.5" stroke-linecap="round" stroke-linejoin="round" stroke-miterlimit="10" d="
			M195.299,587.324c2.941,0.803,6.048,1.014,9.076,0.686c2.89-0.313,5.745-1.138,8.3-2.534c3.79-2.033,6.797-5.369,8.645-9.234
			c1.693-3.512,2.544-7.39,3.164-11.22c1.198-7.883,1.225-16.065,1.149-24.025c-0.183-11.254-1.033-26.043-0.718-37.247
			c0.186-9.957,1.471-24.401,1.571-34.359c-6.984,23.494-15.72,60.594-21.409,84.773c-1.114,4.348-2.87,11.067-4.14,15.312
			C200.045,572.608,196.354,584.031,195.299,587.324z"/>
	</g>
	<g id="POLYLINE_337_">
		
			<path fill="none" stroke="#C346FF" stroke-width="3.5" stroke-linecap="round" stroke-linejoin="round" stroke-miterlimit="10" d="
			M172.175,479.301c3.062-8.164,6.044-16.833,8.222-25.269c1.33-5.174,2.711-10.845,3.533-16.115
			c1.121-7.13,1.467-14.515,1.3-21.728c-0.575-0.425-1.223-0.76-1.911-0.959c-0.879-0.261-1.81-0.325-2.724-0.342
			c-0.636,1.073-1.621,1.988-2.846,2.315c-1.001,0.273-2.064,0.184-3.068-0.027c-0.604,0.869-1.22,1.81-1.739,2.73
			c-0.855,3.085-1.305,6.319-1.495,9.512C170.496,445.448,171.51,463.219,172.175,479.301z"/>
	</g>
	<g id="POLYLINE_338_">
		
			<path fill="none" stroke="#C346FF" stroke-width="3.5" stroke-linecap="round" stroke-linejoin="round" stroke-miterlimit="10" d="
			M412.115,308.773l-1,2.954c-0.542,1.676-1.028,3.417-1.301,5.158c-0.201,1.23-0.277,2.523-0.294,3.769
			c-0.03,2.431,0.087,5.254-0.334,7.635c-0.201,1.195-0.567,2.368-1.078,3.467c-0.879,1.922-2.265,4.039-3.172,5.951
			c-0.607,1.269-1.099,2.613-1.346,4.001c-0.546,3.051,0.161,6.33,0.611,9.359c0.112,0.777,0.234,1.593,0.23,2.38
			c-0.006,0.301-0.026,0.612-0.13,0.897l-0.008,0.021l-0.009,0.021l-0.009,0.021l-0.009,0.02l-0.009,0.02l-0.01,0.019l-0.01,0.019
			l-0.01,0.018l-0.011,0.018l-0.011,0.018l-0.011,0.017l-0.011,0.017l-0.012,0.016l-0.012,0.016l-0.012,0.015l-0.013,0.015
			l-0.013,0.014l-0.013,0.014l-0.014,0.013l-0.014,0.013l-0.014,0.012l-0.015,0.012l-0.015,0.012l-0.015,0.011l-0.018,0.012
			l-0.018,0.011l-0.019,0.011l-0.019,0.01l-0.019,0.009l-0.02,0.009l-0.02,0.008l-0.021,0.008l-0.021,0.007l-0.021,0.006
			l-0.022,0.006l-0.022,0.005l-0.023,0.005l-0.023,0.004l-0.023,0.003l-0.024,0.003l-0.024,0.002l-0.025,0.002l-0.025,0.001
			l-0.025,0.001l-0.026,0l-0.026-0.001l-0.026-0.001l-0.027-0.002l-0.027-0.002l-0.028-0.003l-0.028-0.003
			c-0.363-0.052-0.704-0.207-1.027-0.375c-0.638-0.342-1.232-0.789-1.791-1.248c-1.233-1.026-2.359-2.199-3.402-3.416
			c-1.201-1.411-2.315-2.925-3.283-4.505c-3.619-5.831-4.848-12.884-2.559-19.443c0.919-2.686,2.434-5.143,4.222-7.335
			c3.269-4.055,7.583-7.385,11.629-10.631c0.417-0.326,0.997-0.763,1.424-1.075c-0.474-0.664-0.815-1.458-0.788-2.285
			c0.018-0.778,0.342-1.516,0.759-2.161c0.54-0.818,1.257-1.548,2.136-1.995c0.351-0.175,0.735-0.298,1.129-0.316
			c0.28-0.013,0.561,0.032,0.826,0.12c0.12-0.993,0.296-2.048,0.931-2.854c0.29-0.367,0.679-0.643,1.071-0.892
			c0.695-0.438,1.508-0.848,2.06-1.468c0.605-0.667,0.9-1.673,1.231-2.495c0.238-0.587,0.512-1.191,0.993-1.62
			c0.451-0.397,1.034-0.602,1.6-0.779c0.93-0.292,2.002-0.499,2.713-1.213c0.931-0.952,1.217-2.386,1.901-3.495
			c0.263-0.43,0.636-0.784,1.051-1.066c0.762-0.508,1.642-0.918,2.337-1.522c1.333-1.126,2.419-2.534,3.409-3.962
			c0.525-2.388,0.597-5.197,0.703-7.648c0.09-1.705,0.235-3.522,0.478-5.209c0.713-5.056,2.432-9.944,4.458-14.612
			c0.687-1.542,1.453-3.093,2.511-4.417c0.993-1.237,2.239-2.299,3.671-2.992c1.931-0.908,4.114-1.085,6.221-1.117
			c3.592-0.017,7.239,0.456,10.786,0.992c0.295-0.379,0.674-0.698,1.116-0.89c0.931-0.396,1.978-0.362,2.97-0.323l1.686,0.11
			c-0.071-0.574-0.228-1.183-0.13-1.762c0.054-0.339,0.203-0.658,0.412-0.929c0.185-0.243,0.408-0.462,0.634-0.666
			c0.739-0.663,1.726-1.34,2.448-2.024c0.384-0.367,0.756-0.773,0.968-1.267c0.289-0.67,0.179-1.449,0.131-2.155
			c-0.026-0.429-0.028-0.878,0.141-1.281c0.253-0.58,0.784-0.976,1.273-1.349c0.733-0.547,1.635-1.097,2.176-1.845
			c0.811-1.113,0.367-2.697,0.228-3.957c-0.078-0.656-0.126-1.34,0.058-1.983c0.427-1.451,1.693-2.432,2.863-3.292
			c-1.734-1.427-3.011-3.393-3.669-5.536c-0.391-1.29-0.585-2.642-0.638-3.987c-0.044-1.255,0.027-2.528,0.304-3.755
			c0.41-1.779,1.23-3.196,3.288-2.94c0.182-2.361,0.497-4.767,1.078-7.064c0.741-2.948,1.862-5.839,3.196-8.567
			c1.488-2.971,3.221-5.895,5.57-8.27c1.277-1.28,2.763-2.358,4.384-3.162c2.411-1.195,5.071-1.837,7.731-2.17
			c4.206-0.497,8.549-0.237,12.603,1.029c2.591,0.822,5.048,2.109,7.158,3.826c2.438,1.975,4.416,4.583,5.379,7.589
			c1.217,3.686,1.091,7.677,0.882,11.506c-0.345,6.724-1.119,13.553-2.822,20.076c-0.13,3.806-0.238,7.79-1.86,11.305
			c-1.452,3.174-4.025,6.522-5.615,9.627c-1.361,2.562-2.42,5.712-4.347,7.922c0.803,2.273,2.034,4.503,3.963,6.005
			c1.486,1.154,3.539,1.795,5.28,2.469c0.917,0.359,1.831,0.776,2.646,1.333c2.443-0.013,4.889,0.409,7.24,1.056
			c2.133,0.599,4.24,1.381,6.215,2.386c1.07,0.555,2.108,1.208,3.001,2.022c0.768,0.695,1.424,1.518,1.923,2.426
			c0.669,1.209,1.102,2.547,1.44,3.883c0.419,1.664,0.718,3.533,0.987,5.233c0.672,4.417,1.349,9.379,1.685,13.82
			c0.151,1.926,0.235,4.037,0.24,5.971c-0.01,3-0.11,7.545,0.22,10.499c0.805,8.431,3.215,17.008,5.493,25.151
			c0.34,1.163,0.749,2.41,1.222,3.528c0.608,1.46,1.394,2.931,2.149,4.319c1.713,3.052,4.502,7.988,6.068,11.11
			c1.746,3.451,3.461,7.374,4.954,10.948c1.406,3.444,7.661,19.416,9.104,22.445c1.116,2.467,2.37,4.962,3.784,7.273
			c1.88,3.058,4.189,6.254,5.049,9.781c0.591,2.251,0.915,4.915,1.537,7.158c0.429,1.605,1.114,3.157,1.862,4.638
			c0.777,1.55,2.001,3.678,2.554,5.301c0.324,0.941,0.5,1.938,0.603,2.926l0.137,1.447c0.435,0.152,0.872,0.332,1.284,0.539
			c0.317,0.161,0.624,0.349,0.877,0.601c0.467,0.458,0.722,1.08,0.893,1.701c0.757,3.293,6.975,52.137,7.452,55.289
			c0.211,1.917,0.533,4.172,0.525,6.096c-0.007,0.395-0.025,0.802-0.109,1.189c-0.046,0.205-0.114,0.411-0.232,0.587
			c-0.243,0.366-0.676,0.53-1.074,0.667c-1.078,0.355-2.217,0.536-3.349,0.586c-1.164,0.042-2.347-0.051-3.495-0.244
			c-0.483-0.092-0.986-0.173-1.429-0.395c-0.631-0.306-0.969-0.961-1.211-1.587c-0.661-1.845-0.93-3.931-1.257-5.861
			c-0.876-5.617-2.273-17.531-3.3-23.077c-0.218-1.132-0.472-2.312-0.823-3.41c-0.381-1.227-0.951-2.402-1.727-3.429
			c-0.633-0.852-1.52-1.915-2.025-2.853c-0.415-0.782-0.819-1.706-1.312-2.445c-0.775-1.206-1.72-2.317-2.688-3.372
			c-1.598,1.565-3.948,1.944-6.097,2.04c-1.909,1.456-4.293,2.153-6.643,2.488c1.981,13.429,4.662,28.023,7.462,41.291
			c1.701,7.977,3.741,16.11,6.615,23.749c1.492,3.977,5.415,13.909,6.643,17.804c0.511,1.594,1.015,3.291,1.345,4.931
			c0.633-0.123,1.289-0.217,1.934-0.145c0.446,0.049,0.89,0.207,1.227,0.51c0.426,0.378,0.674,0.91,0.883,1.429
			c1.62,4.399,3.413,11.09,4.733,15.647c2.73,9.777,5.209,20.213,6.981,30.208c0.677,3.677,1.779,11.697,2.838,15.169
			c0.782,2.603,1.887,5.855,2.427,8.503c0.507,2.323,0.81,4.859,1.062,7.227c0.371,3.486,0.693,9.379,1.397,12.732
			c0.222,1.023,0.536,2.038,1,2.977c1.264,2.523,3.477,4.57,5.024,6.908c0.975,1.44,1.67,3.076,1.995,4.786
			c0.461,2.448,0.269,4.992-0.273,7.412c-0.135,0.552-0.285,1.115-0.522,1.633c-0.111,0.234-0.247,0.467-0.45,0.634
			c-0.314,0.262-0.744,0.281-1.135,0.29c-1.297-0.011-22.807,0.045-23.556-0.043c-0.632-0.036-1.282-0.09-1.895-0.256
			c-0.396-0.107-0.78-0.271-1.117-0.507c-0.402-0.279-0.737-0.65-1.01-1.054c-0.466-0.693-0.77-1.486-1-2.286
			c-0.359-1.272-0.531-2.605-0.628-3.92c-0.493-8.402,1.14-17.955-0.516-26.27c-0.321-1.693-0.994-4.668-1.135-6.35
			c-0.188-1.8-0.096-4.416-0.082-6.245c0.001-1.23-0.058-2.491-0.457-3.665c-0.171-0.518-0.402-1.025-0.656-1.508
			c-0.596-1.114-1.646-2.749-2.277-3.845c-2.23-3.772-4.099-7.885-5.741-11.948c-3.709-9.238-7.82-21.04-12.668-29.651
			c-0.884-1.605-3.667-6.206-4.346-7.813c-0.178-0.42-0.334-0.858-0.404-1.31c-0.065-0.419-0.041-0.86,0.126-1.253
			c0.19-0.459,0.544-0.829,0.932-1.13c-0.561-1.351-0.988-2.825-1.365-4.239c-0.896-3.474-1.896-8.114-2.965-11.518
			c-1.714-5.883-6.578-18.282-8.755-24.174c-1.678-4.427-4.227-13.19-5.638-17.793c-4.379-14.473-13.386-29.601-20.597-42.899
			c-0.452,0.013-0.911-0.085-1.304-0.314c-0.768-0.45-1.258-1.237-1.705-1.983c-0.587-1.025-1.12-2.108-1.45-3.246
			c-0.12-0.441-0.202-0.906-0.127-1.362c0.048-0.297,0.179-0.579,0.37-0.811c-1.372-2.576-2.798-5.357-3.943-8.037l-2.581-6.372
			c-0.915,0.023-1.614-0.692-2.131-1.368c-1.172-1.551-1.995-3.596-3.161-5.149c-0.213-0.265-0.484-0.595-0.813-0.709
			c-0.156-0.053-0.317-0.02-0.453,0.07c-0.301,0.209-0.497,0.551-0.692,0.855l-1.942,3.308c-0.47,0.754-0.952,1.538-1.544,2.203
			c-0.266,0.291-0.574,0.557-0.943,0.707c-2.763,4.407-6.67,12-9.148,16.672c-1.741,3.337-5.798,10.092-7.749,13.412
			c0.078,0.192,0.1,0.402,0.091,0.608c-0.007,0.174-0.035,0.352-0.067,0.524c-0.182,0.881-0.436,1.855-0.677,2.722
			c-0.354,1.223-0.745,2.475-1.317,3.614c-0.21,0.404-0.445,0.81-0.773,1.13c-0.23,0.225-0.522,0.395-0.844,0.44
			c-0.399,0.058-0.801-0.054-1.168-0.203c-2.369,4.862-5.858,12.4-8.566,16.982c-2.201,3.753-6.605,10.891-8.493,14.691
			c-1.476,2.804-3.905,8.871-5.172,11.853c-0.987,2.274-2.076,4.579-3.398,6.677c-1.593,2.566-4.155,5.712-5.868,8.213
			c-1.318,1.904-2.447,3.969-3.295,6.125c-2.615,6.474-3.543,14.237-6.135,20.696c0.231,1.131,0.332,2.298,0.268,3.451
			c-0.057,1.083-0.259,2.164-0.544,3.21c-0.803,2.823-2.202,6.037-3.299,8.768c-4.251,10.473-11.053,22.53-15.21,33.036
			c-2.122,5.338-3.76,10.931-4.724,16.597c-1.123,6.469-1.535,13.153-1.54,19.715c-0.033,3.783,0.317,9.343,0.515,13.141
			c0.08,2.207,0.085,4.474-0.207,6.665c-0.082,0.559-0.19,1.127-0.429,1.642c-0.155,0.332-0.378,0.639-0.674,0.859
			c-0.313,0.235-0.691,0.365-1.07,0.447c-0.778,0.162-1.601,0.173-2.393,0.192c-6.133-0.057-16.978,0.137-22.983-0.129
			c-0.934-0.058-1.908-0.117-2.825-0.302c-0.516-0.108-1.038-0.259-1.478-0.558c-0.316-0.213-0.568-0.514-0.735-0.856
			c-0.267-0.545-0.369-1.157-0.423-1.757c-0.105-1.348,0.026-2.731,0.169-4.072c0.357-2.938,0.829-5.991,1.945-8.745
			c0.581-1.426,1.519-2.808,2.368-4.091c0.605-0.915,1.121-1.901,1.509-2.928c0.449-1.172,0.779-2.42,1.067-3.641
			c0.544-2.337,0.989-4.842,1.326-7.218c0.265-1.988,0.624-5.464,1.069-7.35c0.278-1.242,0.669-2.48,1.187-3.643
			c1.326-2.964,3.347-5.979,4.328-9.086c0.292-0.895,0.537-1.848,0.742-2.766c0.826-3.965,1.81-9.9,2.697-13.822
			c2.117-9.418,5.586-24.198,8.188-33.522c0.612-2.046,1.311-4.147,2.153-6.11c0.87-2.012,1.918-3.991,3.364-5.652
			c0.634-3.059,2.087-6.042,3.357-8.884c2.842-6.03,6.694-13.946,8.85-20.183c4.42-12.284,7.508-25.867,10.4-38.613
			c-2.352-0.291-4.741-0.673-6.995-1.42c-1.31-0.446-2.62-1.029-3.64-1.986c-0.412-0.39-0.786-0.843-0.986-1.379
			c-0.273-0.718-0.19-1.509-0.034-2.244c0.204-1.01,0.945-3.159,1.26-4.176c0.635-1.987,1.239-4.121,1.718-6.15
			c1.309-5.469,2.429-13.612,3.598-19.141c0.202-0.921,0.434-1.89,0.723-2.788c0.261-0.786,0.561-1.587,1.077-2.244
			c0.209-0.262,0.462-0.493,0.754-0.661c0.275-0.16,0.582-0.264,0.892-0.331c1.212-0.244,2.471-0.181,3.693-0.056
			c2.391,0.267,4.82,0.84,7.154,1.418l1.739-6.86c0.616-2.552,1.215-5.515,1.657-8.105c-0.316-0.419-0.424-0.951-0.474-1.463
			c-0.118-1.664,0.067-3.428,0.194-5.09c0.947-9.525,2.437-19.416,4.337-28.8c-0.689-0.563-0.866-1.5-0.902-2.345
			c-0.049-1.742,0.3-3.523,0.582-5.237c0.299-1.662,0.862-4.486,1.237-6.15c0.047-0.171,0.107-0.342,0.194-0.497
			c0.172-0.313,0.458-0.544,0.755-0.733c0.424-0.267,0.89-0.47,1.366-0.627c0.543-1.497,1.547-3.637,2.07-5.138
			c0.609-1.707,1.068-3.509,1.404-5.289c0.676-3.6,0.91-7.337,0.934-10.997c0.023-3.935-0.237-7.936-0.94-11.809
			c-1.265-7.53-4.774-14.942-7.176-22.15c-1.337,3.942-2.562,8.185-3.46,12.248c-0.833,3.655-1.624,8.903-2.236,12.642
			c-0.5,2.788-1.149,5.604-2.176,8.248c-1.562,4.044-3.924,7.845-6.215,11.513l-17.108,26.274c-0.79,1.278-1.656,2.643-2.299,3.995
			c-0.299,0.636-0.563,1.303-0.694,1.996c-0.2,1.005-0.04,2.04,0.128,3.038c0.29,1.643,0.786,3.265,1.541,4.756
			c0.692,1.395,1.748,3.065,2.466,4.449c0.172,0.336,0.332,0.691,0.462,1.046c0.358,0.973,0.515,2.013,0.581,3.043
			c0.098,1.598,0,3.238-0.144,4.83c0.435,0.593,0.94,1.235,1.211,1.921c0.377,0.947,0.474,1.983,0.524,2.993
			c0.048,1.043-0.034,2.106-0.176,3.14c-0.288,2.379-5.137,25.354-5.693,28.265c-0.355,1.625-4.987,27.605-5.41,28.464
			c-0.187,0.583-0.411,1.186-0.84,1.637c-0.287,0.304-0.681,0.48-1.086,0.566c-0.636,0.14-1.298,0.136-1.945,0.09
			c-1.69-0.148-3.378-0.506-4.995-1.014c-0.499-0.169-1.011-0.346-1.458-0.629c-0.303-0.192-0.562-0.461-0.715-0.788
			c-0.153-0.32-0.218-0.676-0.249-1.027c-0.095-1.455,0.231-3.022,0.441-4.46l6.369-36.222c-2.282-1.282-4.587-3.026-5.427-5.611
			c-0.267-0.813-0.37-1.675-0.38-2.529c-0.037-1.875,0.329-3.937,0.539-5.8c0.393-3.071,0.056-7.379-0.04-10.498
			c-0.123-2.567,0.063-8.631,0.104-11.27c0.009-0.807,0.015-4.275,0.055-5.057c0.069-1.802,0.205-3.648,0.714-5.386
			c0.715-2.582,2.628-5.347,3.966-7.648c2.002-3.425,3.791-7.063,5.267-10.743c2.721-6.532,6.458-19.695,8.609-26.592
			c1.359-4.312,2.865-8.858,4.829-12.931l2.205-4.489c1.84-3.719,2.511-7.896,2.919-11.989c0.291-3.047,0.749-8.92,1.228-11.87
			c-0.746,1.1-1.541,2.236-2.525,3.135c-0.831,0.791-2.134,1.512-3.108,2.124c-0.837,0.53-1.648,1.144-2.228,1.959
			c-0.683,0.912-1.156,2.05-1.932,2.892c-0.868,0.941-2.223,1.108-3.437,1.155c0.252,0.362,0.53,0.735,0.626,1.173
			c0.057,0.259,0.029,0.53-0.054,0.78c-0.106,0.321-0.281,0.619-0.47,0.898c-0.279,0.407-0.606,0.785-0.955,1.132
			c-0.466,0.461-0.982,0.881-1.544,1.218C413.003,308.478,412.572,308.68,412.115,308.773z"/>
	</g>
	<g id="POLYLINE_339_">
		
			<path fill="none" stroke="#C346FF" stroke-width="3.5" stroke-linecap="round" stroke-linejoin="round" stroke-miterlimit="10" d="
			M536.643,348.496c-3.013-13.267-7.028-28.974-10.762-42.053l-1.321,2.173c-0.653,1.108-1.275,2.269-1.642,3.507
			c-0.402,1.312-0.545,2.706-0.642,4.07c-0.243,3.698-0.395,7.49,0.104,11.172c0.276,2.037,0.78,4.065,1.663,5.928
			c1.241,2.71,3.276,5.217,5.09,7.57c1.26,1.62,2.814,4.092,3.946,5.824l0.505,0.747c0.456-0.19,0.925-0.384,1.418-0.445
			c0.215-0.024,0.442-0.007,0.634,0.101c0.122,0.067,0.225,0.165,0.315,0.27C536.226,347.698,536.434,348.116,536.643,348.496z"/>
	</g>
	<g id="POLYLINE_340_">
		
			<path fill="none" stroke="#C346FF" stroke-width="3.5" stroke-linecap="round" stroke-linejoin="round" stroke-miterlimit="10" d="
			M568.038,415.874c0.194-1.727,0.332-4.907,0.471-6.657c0.06-0.845,0.232-2.167,0.301-3.015c0.072-0.892,0.052-1.801-0.126-2.68
			c-0.313-1.534-0.961-2.992-1.65-4.391c-1.975-3.897-4.591-7.738-7.027-11.367c-5.498-8.028-11.971-16.712-18.015-24.359
			c4.451,8.626,8.645,18.663,12.414,27.64c0.361,0.887,0.778,1.904,1.073,2.809c0.211,0.668,0.422,1.362,0.421,2.068
			c-0.005,0.277-0.071,0.566-0.255,0.781c-0.202,0.24-0.503,0.366-0.797,0.457c1.43,3.963,2.917,8.149,3.826,12.259
			c1.537-0.339,3.123-0.691,4.7-0.733c0.818-0.009,1.724,0.075,2.355,0.651c0.273,0.248,0.473,0.566,0.63,0.897
			c0.123,0.259,0.227,0.539,0.321,0.809C567.197,412.565,567.641,414.314,568.038,415.874z"/>
	</g>
</g>
</svg>
