<?xml version="1.0" encoding="utf-8"?>
<!-- Generator: Adobe Illustrator 25.3.1, SVG Export Plug-In . SVG Version: 6.00 Build 0)  -->
<!DOCTYPE svg PUBLIC "-//W3C//DTD SVG 1.1//EN" "http://www.w3.org/Graphics/SVG/1.1/DTD/svg11.dtd" [
	<!ENTITY ns_flows "http://ns.adobe.com/Flows/1.0/">
	<!ENTITY ns_extend "http://ns.adobe.com/Extensibility/1.0/">
	<!ENTITY ns_ai "http://ns.adobe.com/AdobeIllustrator/10.0/">
	<!ENTITY ns_graphs "http://ns.adobe.com/Graphs/1.0/">
	<!ENTITY ns_vars "http://ns.adobe.com/Variables/1.0/">
	<!ENTITY ns_imrep "http://ns.adobe.com/ImageReplacement/1.0/">
	<!ENTITY ns_sfw "http://ns.adobe.com/SaveForWeb/1.0/">
	<!ENTITY ns_custom "http://ns.adobe.com/GenericCustomNamespace/1.0/">
	<!ENTITY ns_adobe_xpath "http://ns.adobe.com/XPath/1.0/">
]>
<svg version="1.1" xmlns:x="&ns_extend;" xmlns:i="&ns_ai;" xmlns:graph="&ns_graphs;"
	 xmlns="http://www.w3.org/2000/svg" xmlns:xlink="http://www.w3.org/1999/xlink" xmlns:a="http://ns.adobe.com/AdobeSVGViewerExtensions/3.0/"
	 x="0px" y="0px" width="750px" height="750px" viewBox="0 0 750 750" enable-background="new 0 0 750 750" xml:space="preserve">
<metadata>
	<sfw  xmlns="&ns_sfw;">
		<slices></slices>
		<sliceSourceBounds  bottomLeftOrigin="true" height="14742" width="12680.835" x="-6277.062" y="-6776"></sliceSourceBounds>
	</sfw>
</metadata>
<g id="FILL-BACKGROUND">
	<rect fill="#FFFFFF" width="750" height="750"/>
</g>
<g id="N-DIMENSIONS">
</g>
<g id="N-TEXT">
</g>
<g id="AG-DIAGRAM">
	<g>
		<g>
			
				<line fill="none" stroke="#FB8604" stroke-width="3.25" stroke-linecap="round" stroke-linejoin="round" x1="140.083" y1="609.984" x2="142.083" y2="609.984"/>
			
				<line fill="none" stroke="#FB8604" stroke-width="3.25" stroke-linecap="round" stroke-linejoin="round" stroke-dasharray="4.0378,7.0661" x1="149.149" y1="609.984" x2="545.357" y2="609.984"/>
			
				<line fill="none" stroke="#FB8604" stroke-width="3.25" stroke-linecap="round" stroke-linejoin="round" x1="548.89" y1="609.984" x2="550.89" y2="609.984"/>
		</g>
	</g>
</g>
<g id="AG-DETAIL">
</g>
<g id="AG-HUMANS">
</g>
<g id="AG-PEOPLE">
</g>
<g id="AG-DETAILS">
</g>
<g id="AG-ANIMALS">
	<g id="POLYLINE_1264_">
		
			<path fill="none" stroke="#FB8604" stroke-width="2.75" stroke-linecap="round" stroke-linejoin="round" stroke-miterlimit="10" d="
			M536.959,275.487c-2.603-3.014-4.963-6.382-6.024-10.271c-1.082-3.97-0.534-8.116,0.576-12.018
			c1.325-4.66,3.548-8.777,5.983-12.931c2.427-4.14,3.953-8.681,5.574-13.176c1.722-4.776,3.31-9.678,5.627-14.209
			c0.68-1.331,1.459-2.86,2.619-3.849c1.491-1.271,2.86-0.293,3.863,1.053c2.564,3.438,3.934,7.934,5.503,11.882
			c1.958,4.924,3.945,9.757,6.474,14.421c1.726,3.184,3.411,6.352,3.958,9.974c0.602,3.986,0.344,8.276-0.726,12.159
			c-0.325,1.18-0.761,2.32-1.222,3.453"/>
	</g>
	<g id="POLYLINE_1263_">
		
			<path fill="none" stroke="#FB8604" stroke-width="2.75" stroke-linecap="round" stroke-linejoin="round" stroke-miterlimit="10" d="
			M652.603,304.815c-1.755-0.038-2.524-2.368-2.988-3.755c-0.878-2.624-1.63-5.395-2.089-8.126
			c-0.419-2.492-0.642-6.051,1.138-8.149c2.508-2.957,7.856,0.197,10.237,1.91c2.461,1.77,4.053,3.902,3.01,7.033
			c-0.722,2.167-1.983,4.202-3.312,6.042c-1.198,1.659-2.614,3.458-4.409,4.51C653.705,304.565,653.177,304.805,652.603,304.815z"/>
	</g>
	<g id="POLYLINE_1262_">
		
			<path fill="none" stroke="#FB8604" stroke-width="2.75" stroke-linecap="round" stroke-linejoin="round" stroke-miterlimit="10" d="
			M652.603,304.815c-0.761,3.06-1.717,5.223-4.629,6.742c-3.487,1.819-7.608,2.667-11.502,2.943
			c-3.724,0.264-7.287-0.388-10.825-1.515c-4.442-1.415-8.82-3.016-13.292-4.337c-4.059-1.199-8.276-2.361-12.53-2.509
			c-2.132-0.074-4.386,0.124-6.308,1.125c-1.321,0.688-2.545,1.811-3.09,3.225c-0.704,1.827,0.174,3.314,1.625,4.433
			c3.217,2.48,7.551,3.703,11.271,5.176c8.734,3.459,17.275,7.308,26.134,10.453c1.144,0.406,2.287,0.812,3.431,1.218"/>
	</g>
	<g id="POLYLINE_1261_">
		
			<path fill="none" stroke="#FB8604" stroke-width="2.75" stroke-linecap="round" stroke-linejoin="round" stroke-miterlimit="10" d="
			M626.013,313.101c3.486,1.967,6.922,4.638,8.957,8.156c1.866,3.226,1.916,7.182,3.974,10.308c2.204,3.348,4.81,5.609,4.748,9.906
			c-0.021,1.496-0.259,3.064-0.862,4.443c-0.966,2.209-2.556,2.251-4.148,0.64c-3.287-3.328-5.371-8.559-5.734-13.16
			c-0.043-0.541-0.061-1.082-0.061-1.625"/>
	</g>
	<g id="POLYLINE_1260_">
		
			<path fill="none" stroke="#FB8604" stroke-width="2.75" stroke-linecap="round" stroke-linejoin="round" stroke-miterlimit="10" d="
			M275.809,457.998c3.897,0.349,7.809,0.357,11.718,0.441c3.149,0.067,6.346,0.264,9.482-0.138c1.753-0.224,3.394-0.694,4.877-1.671
			c1.626-1.07,2.955-2.235,5.004-2.259c2.141-0.025,4.299,0.732,6.295,1.414c3.408,1.165,6.765,2.594,10.285,3.402
			c2.785,0.639,5.645,0.406,8.435,0.917c2.467,0.452,3.692,1.993,5.348,3.699c0.753,0.776,1.585,1.612,2.744,1.264
			c1.074-0.322,1.905-1.314,3.089-1.297c1.053,0.015,1.991,0.793,2.768,1.43c1.439,1.18,2.751,2.508,4.192,3.688
			c2.574,2.108,5.505,3.776,8.625,4.933c1.036,0.384,2.123,0.746,3.226,0.876c1.637,0.192,2.129-0.478,1.424-1.96
			c-0.343-0.722-1.915-2.84-0.17-2.628c1.34,0.163,2.771,1.003,3.951,1.596c2.945,1.48,5.949,3.142,8.529,5.208
			c1.668,1.336,3.003,3.02,4.882,4.092c0.758,0.433,1.832,0.985,2.694,0.542c1.258-0.647,1.198-2.575,2.189-3.487
			c1.768-1.627,6.058,2.29,7.37,3.146c1.653,1.079,3.433,2.134,5.47,2.115c1.848-0.017,3.619-1.11,5.407-0.308
			c2.549,1.144,4.953,2.119,7.702,2.782c1.65,0.398,3.315,0.728,4.987,1.017"/>
	</g>
	<g id="POLYLINE_1259_">
		
			<path fill="none" stroke="#FB8604" stroke-width="2.75" stroke-linecap="round" stroke-linejoin="round" stroke-miterlimit="10" d="
			M561.714,224.577c0.822-3.399,2.319-6.528,4.097-9.525c1.206-2.032,2.668-4.95,4.834-6.188c4.104-2.345,3.961,13.308,4.082,14.785
			c0.207,2.536,1.004,4.485,2.266,6.678"/>
	</g>
	<g id="POLYLINE_1252_">
		
			<path fill="none" stroke="#FB8604" stroke-width="2.75" stroke-linecap="round" stroke-linejoin="round" stroke-miterlimit="10" d="
			M652.477,283.738c-2.724-2.059-5.188-3.294-8.554-3.981c-4.259-0.87-8.531-1.551-12.683-2.872
			c-5.159-1.642-11.461-4.101-13.169-9.791c-1.035-3.449-1.009-7.08-2.187-10.519c-1.184-3.455-2.718-6.982-4.906-9.927
			c-4.482-6.032-12.088-8.755-18.912-11.162c-4.429-1.562-8.915-2.956-13.337-4.539c-4.195-1.502-8.363-3.1-12.803-3.707
			c-1.084-0.148-2.173-0.236-3.264-0.304"/>
	</g>
	<g id="POLYLINE_1251_">
		
			<path fill="none" stroke="#FB8604" stroke-width="2.75" stroke-linecap="round" stroke-linejoin="round" stroke-miterlimit="10" d="
			M633.86,337.966c-4.764,1.521-9.828,2.584-14.818,1.628c-5.111-0.979-9.741-3.536-15.004-3.809
			c-2.743-0.142-5.498,0.057-8.233-0.246c-2.576-0.286-5.031-1.232-7.603-1.507c-5.642-0.602-3.105,6.357-2.942,9.469
			c0.096,1.819-0.912,2.879-1.698,4.398c-0.85,1.642-1.094,3.622-1.088,5.451c0.003,1.011,0.192,2.035,0.107,3.045
			c-0.089,1.057-0.74,1.767-1.283,2.634c-1.194,1.908-1.823,4.145-2.503,6.272c-1.05,3.286-2.008,6.63-3.322,9.825
			c-0.697,1.694-1.499,3.53-3.004,4.67c-1.476,1.118-3.064,1.695-4.26,3.177c-1.718,2.129-2.914,4.691-4.038,7.168
			c-1.335,2.941-2.53,5.945-3.893,8.874c-0.927,1.993-1.904,4.124-3.481,5.699c-1.398,1.395-2.353,2.406-2.819,4.361
			c-0.467,1.96-0.699,4.108-1.74,5.881c-1.928,3.281-6.265,3.825-8.052,7.27c-0.842,1.623-1.33,3.497-1.54,5.308
			c-0.199,1.713,0.01,3.387-0.579,5.046c-0.729,2.052-1.979,3.936-3.172,5.741c-1.78,2.693-3.726,5.28-5.741,7.801
			c-3.782,4.734-7.838,9.757-12.746,13.376c-3.562,2.627-7.988,3.435-12.093,4.887c-6.813,2.41-13.733,4.623-20.45,7.291
			c-5.662,2.249-10.364,5.447-13.545,10.746c-3.364,5.603-5.077,11.982-7.564,17.98c-2.456,5.921-5.936,11.27-8.845,16.962
			c-2.79,5.46-4.608,11.135-5.857,17.126c-1.295,6.209-2.225,12.67-5.414,18.253c-1.267,2.218-2.73,4.352-3.622,6.761
			c-0.856,2.311-1.118,4.791-1.17,7.241c-0.061,2.906,0.186,5.813,0.522,8.696c0.306,2.624,0.511,5.393,1.354,7.913
			c1.536,4.59,5.928,4.184,9.811,5.544c2.867,1.004,5.037,3.216,6.616,5.753c2.366,3.802,4.895,9.546,0.578,12.893
			c-2.751,2.133-6.505,2.115-9.813,2.159c-3.838,0.05-7.678,0.097-11.516,0.104c-2.719,0.005-5.549,0.107-8.237-0.379
			c-2.711-0.49-4.806-1.893-6.524-4.023c-3.705-4.593-5.654-10.203-6.601-15.953c-1.079-6.554-1.628-13.205-2.155-19.823
			c-0.51-6.405-1.096-12.879-0.966-19.31c0.137-6.795,0.371-13.578,0.001-20.37c-0.171-3.144-0.52-6.258-0.949-9.376
			c-0.417-3.033-0.993-6.116-0.971-9.188c0.011-1.586,0.283-3.066,0.825-4.554c0.527-1.448,1.213-2.857,1.376-4.407
			c0.228-2.161-0.297-4.341-0.375-6.497c-0.089-2.456,0.405-4.856,1.013-7.225c0.644-2.508,1.436-5.003,1.504-7.612
			c0.076-2.915-0.362-5.85-0.581-8.751c-0.454-6.02-0.886-12.309,0.754-18.195c0.765-2.747,1.961-5.359,2.657-8.127
			c0.54-2.146,0.645-4.347,0.615-6.553c-0.036-2.717-0.271-5.481,0.086-8.188c0.371-2.813,1.508-5.432,2.477-8.075
			c2.155-5.881,3.163-12.139,4.158-18.299"/>
	</g>
	<g id="POLYLINE_1250_">
		
			<path fill="none" stroke="#FB8604" stroke-width="2.75" stroke-linecap="round" stroke-linejoin="round" stroke-miterlimit="10" d="
			M460.929,511.843c-0.193,6.472-0.411,12.942-0.809,19.405c-0.395,6.412-1.041,12.749-2.027,19.096
			c-0.283,1.818-0.644,3.685-0.417,5.531c0.189,1.536,0.815,2.977,1.492,4.354c0.976,1.984,2.08,3.916,2.626,6.075
			c0.644,2.549,0.62,5.2,1.113,7.774c0.373,1.943,1.03,3.777,2.464,5.196c1.248,1.234,2.177,2.269,2.496,4.046
			c0.359,2.001,0.348,4.068,0.978,6.018c0.445,1.379,1.217,2.608,2.089,3.755c1.423,1.871,3.089,3.527,4.224,5.604
			c1.033,1.892,1.795,3.913,3.103,5.646c1.747,2.314,4.178,3.821,6.977,4.533c5.667,1.442,11.799,0.859,17.58,0.917
			c4.045,0.04,8.604,0.744,12.478-0.809c1.334-0.535,2.645-1.403,3.213-2.779c0.581-1.406,0.296-3.052-0.052-4.482
			c-0.653-2.684-1.619-5.443-2.766-7.955c-0.662-1.45-1.513-2.849-2.771-3.86c-3.57-2.868-8.662-1.784-12.686-3.469
			c-1.695-0.709-2.769-2.126-3.776-3.599c-1.417-2.073-2.945-4.13-3.894-6.474c-1.619-3.999-0.744-8.343-0.359-12.493
			c0.524-5.648-0.834-11.208-0.556-16.85c0.306-6.206,2.426-12.241,3.913-18.224c1.497-6.022,2.134-12.091,2.756-18.251
			c0.63-6.246,1.407-12.454,2.648-18.613c1.284-6.373,2.897-12.669,4.535-18.957c0.731-2.807,1.507-5.602,2.272-8.4"/>
	</g>
	<g id="POLYLINE_1249_">
		
			<path fill="none" stroke="#FB8604" stroke-width="2.75" stroke-linecap="round" stroke-linejoin="round" stroke-miterlimit="10" d="
			M250.267,491.682c-2.517,6.764-4.732,13.645-7.312,20.382c-2.179,5.69-4.964,10.966-8.829,15.694
			c-4.17,5.101-9.161,9.607-12.733,15.178c-3.233,5.043-4.506,10.846-4.552,16.783c-0.046,6.013,0.592,12.61,3.194,18.109
			c1.784,3.771,4.793,5.909,8.747,7.056c5.095,1.478,10.876,1.953,15.019,5.622c2.942,2.605,4.763,6.79,4.837,10.707
			c0.092,4.846-3.684,6.851-7.862,7.734c-6.31,1.333-13.109,1.125-19.481,0.391c-1.353-0.156-2.703-0.357-4.028-0.675"/>
	</g>
	<g id="POLYLINE_1248_">
		
			<path fill="none" stroke="#FB8604" stroke-width="2.75" stroke-linecap="round" stroke-linejoin="round" stroke-miterlimit="10" d="
			M542.164,229.613c-6.168,2.11-11.623,5.723-16.891,9.487c-5.495,3.926-10.873,8.112-15.383,13.168
			c-4.417,4.951-8.336,10.251-13.158,14.841c-4.558,4.339-9.542,8.366-15.043,11.453c-2.898,1.626-5.967,2.891-9.002,4.231
			c-1.975,0.872-4.053,1.761-5.71,3.181c-1.504,1.29-2.49,3.031-3.705,4.57c-1.616,2.049-3.685,3.65-5.856,5.074
			c-5.18,3.398-11.002,6.041-16.88,7.972c-5.541,1.821-11.204,2.676-17.016,1.967c-3.175-0.387-6.286-1.227-9.467-1.546
			c-2.59-0.259-5.1,0.117-7.578,0.874c-6.442,1.968-12.258,5.55-18.688,7.531c-6.178,1.903-12.771,2.608-19.188,3.157
			c-7.229,0.619-14.47,0.87-21.718,1.137c-6.629,0.244-13.27,0.491-19.904,0.382c-7.042-0.116-13.972-0.992-20.955-1.824
			c-6.629-0.79-13.268-1.21-19.944-0.885c-6.351,0.31-12.469,1.389-18.601,3.033c-6.378,1.711-12.711,3.202-19.318,3.676
			c-5.265,0.378-11.246,0.544-16.194-1.582c-3.428-1.472-5.981-4.706-9.823-5.12c-2.35-0.253-4.715-0.018-7.042-0.52
			c-2.514-0.543-4.896-1.604-7.228-2.659c-2.945-1.332-5.861-2.694-9.016-3.461c-2.901-0.705-5.907-0.843-8.797-1.592
			c-4.242-1.101-7.732-3.597-9.965-7.359c-2.026-3.414-3.832-7.406-7.81-8.878c-1.888-0.699-4.007-0.819-5.801-1.767
			c-1.698-0.896-2.274-2.638-2.579-4.412c-0.507-2.948-0.665-5.856-1.519-8.744c-0.584-1.974-1.976-4.123-1.279-6.219
			c0.72-2.167,2.312-4.113,3.669-5.904c2.097-2.768,4.377-5.405,6.363-8.256c1.786-2.564,2.889-5.23,3.796-8.201
			c0.562-1.842,1.154-3.576,2.255-5.164c0.595-0.858,1.553-1.926-0.123-1.905c-1.162,0.014-2.311,0.291-3.472,0.343
			c-0.633,0.029-1.653,0.144-1.731-0.671c-0.092-0.952,1.326-2.431,1.764-3.167c0.451-0.756,1.228-2.092,0.622-2.971
			c-0.584-0.847-2.173-0.605-3.04-0.614c-1.952-0.02-3.287-0.356-3.829-2.47c-0.279-1.087-0.341-2.553-1.391-3.22
			c-0.945-0.6-2.283-0.447-3.349-0.443c-1.745,0.007-3.064-0.68-4.721-1.063c-0.706-0.163-1.435-0.264-2.16-0.276
			c-1.519-0.025-2.268,0.603-3.602,1.133c-0.973,0.386-1.855-0.022-2.763-0.401c-1.214-0.507-2.404-0.988-3.749-0.949
			c-1.255,0.036-2.434,0.465-3.234,1.459c-0.626,0.778-0.987,1.835-1.939,2.295c-1.977,0.957-4.436-0.285-6.512,0.541
			c-1.805,0.718-2.772,2.511-3.522,4.188c-0.509,1.139-0.917,2.341-1.518,3.437c-0.721,1.314-1.204,1.104-1.953-0.03
			c-0.779-1.178-1.326-1.107-2.026,0.17c-0.692,1.264-1.178,2.653-1.733,3.978c-0.58,1.382-1.852,5.357-3.92,4.754
			c-1.977-0.576-3.641-4.615-5.103-1.166c-1.084,2.557-1.487,5.401-2.293,8.052c-0.749,2.461-1.639,4.986-3.007,7.181
			c-0.44,0.707-1.197,1.999-2.157,2.008c-1.167,0.011-1.74-1.875-2.179-2.71c-0.14-0.265-0.355-0.916-0.722-0.807
			c-0.28,0.084-0.334,0.92-0.372,1.166c-0.188,1.209-0.195,2.455-0.214,3.675c-0.052,3.475,0.135,6.948,0.28,10.419
			c0.062,1.489,0.139,2.977,0.121,4.468c-0.012,0.991,0.081,2.412-0.396,3.315c-1.182,2.24-4.165-4.044-4.863-2.669
			c-0.292,0.575,0.13,2.013,0.224,2.563c0.323,1.88,0.718,3.749,1.081,5.622c0.414,2.137,0.789,4.305,1.716,6.291
			c0.975,2.089,2.517,3.769,4.034,5.478c0.584,0.658,1.757,1.622,2.019,2.525c0.367,1.266-1.914,0.636-2.611,0.553
			c-0.714-0.086-2.276-0.452-2.736,0.306c-0.424,0.698,0.375,1.81,0.752,2.38c1.355,2.049,3.202,3.802,5,5.456
			c2.58,2.373,5.31,4.573,7.914,6.919c0.631,0.569,2.46,1.87,2.594,2.799c0.138,0.959-1.331,0.53-1.955,0.414
			c-1.309-0.244-2.599-0.619-3.922-0.783c-0.899-0.112-2.012-0.152-1.452,1.042c0.489,1.043,1.524,1.978,2.309,2.791
			c1.286,1.332,2.618,2.619,3.933,3.922c0.903,0.895,1.791,1.806,2.586,2.801c0.811,1.015,1.515,2.122,2.535,2.946
			c1.558,1.258,3.53,1.973,5.354,2.741c2.707,1.141,5.688,2.132,8.157,3.762c0.905,0.598,1.855,1.351,1.021,2.399
			c-0.663,0.833-2.298,1.511-1.166,2.662c1.313,1.335,3.997,1.758,5.719,2.089c3.139,0.605,6.344,0.708,9.527,0.89
			c2.004,0.115,4.196,0.133,6.098,0.868c1.241,0.48,1.783,1.245,1.709,2.57c-0.057,1.006-0.538,2.41,0.401,3.16
			c1.517,1.211,5.048,0.408,6.683,0.203c3.126-0.391,6.273-1.092,9.429-1.161c0.587-0.013,1.79-0.119,2.142,0.442
			c0.528,0.842-0.969,2.34-1.305,3.031c-0.633,1.3,0.498,1.434,1.585,1.43c1.386-0.005,2.78-0.2,4.157-0.333
			c2.318-0.224,4.739-0.504,7.051-0.065c1.774,0.337,4.929,1.847,4.303,4.165c-0.521,1.929-4.267,2.467-5.736,3.097
			c-1.907,0.817-3.282,2.143-4.201,4.006c-1.222,2.476-1.827,5.212-2.982,7.722c-0.378,0.821-2.868,4.685-1.616,5.68
			c0.682,0.542,1.841,0.145,2.607,0.528c1.006,0.501,0.662,1.748,0.427,2.63c-0.783,2.927-2.132,5.668-2.817,8.63
			c-0.506,2.19-0.846,4.526-0.672,6.779c0.051,0.665,0.125,2.287,1.098,2.005c0.91-0.264,1.848-2.324,2.319-3.001
			c0.204-0.293,0.753-1.307,1.2-1.202c0.444,0.105,0.428,1.088,0.451,1.43c0.077,1.112,0.011,2.238-0.041,3.349
			c-0.163,3.469-0.442,6.944-0.355,10.42c0.082,3.254,0.545,6.48,0.67,9.729c0.09,2.335-0.329,4.48-0.918,6.737
			c-0.806,3.087-1.451,6.158-1.803,9.333c-0.16,1.437-0.287,2.882-0.315,4.328c-0.01,0.503-0.201,2.438,0.292,2.748
			c0.686,0.432,1.357-1.703,1.952-1.946c0.979-0.4,1.103,1.642,1.183,2.311c0.34,2.826,0.246,5.803-0.158,8.617
			c-0.14,0.979-0.354,1.939-0.671,2.876c-0.332,0.981-0.924,1.995-0.699,3.062c0.318,1.506,1.338,2.796,1.64,4.337
			c0.414,2.111,0.036,4.291-0.043,6.413c-0.025,0.672-0.208,1.921,0.738,1.56c0.874-0.334,1.483-1.861,2.545-1.801
			c1.557,0.088,1.381,3.96,1.35,5.043c-0.048,1.683-0.172,3.646-1.037,5.138c-0.613,1.057-1.598,1.817-2.182,2.905
			c-0.331,0.616-0.574,1.279-0.79,1.943c-0.63,1.937-1.309,4.288-1.1,6.354c0.179,1.761,1.372,0.228,1.964-0.509
			c0.381-0.474,0.769-1.178,1.266-1.56c0.513-0.395,0.588-0.304,0.613,0.332c0.042,1.09-0.476,2.346-0.782,3.363
			c-0.431,1.435-0.92,2.854-1.455,4.254c-1.177,3.077-2.725,5.961-4.142,8.929c-1.208,2.53-1.955,5.162-2.483,7.908
			c-1.298,6.748-2.231,13.596-3.121,20.408c-0.88,6.741-1.555,13.511-1.806,20.306c-0.258,6.997-0.373,14.09,0.766,21.023
			c1.062,6.461,3.231,12.778,5.374,18.947c1.452,4.181,3.232,8.001,7.041,10.477c3.846,2.5,8.375,2.675,12.839,2.888
			c5.805,0.277,12.274,0.637,17.89-1.14c1.745-0.552,3.503-1.45,4.166-3.282c0.653-1.804,0.173-3.864-0.34-5.638
			c-0.855-2.956-1.996-5.519-4.518-7.375c-3.536-2.602-8.052-4.017-10.472-7.901c-1.298-2.082-1.991-4.492-2.706-6.819
			c-1.001-3.261-1.895-6.557-2.542-9.908c-1.186-6.145-1.154-12.208,0.78-18.198c1.964-6.083,5.187-11.758,8.875-16.951
			c3.71-5.224,8.008-9.96,12.568-14.449c5.163-5.081,10.57-9.917,15.872-14.852c4.674-4.35,9.167-8.93,12.988-14.058
			c4.071-5.464,7.478-11.385,11.498-16.885c3.68-5.034,7.819-9.707,12.072-14.258"/>
	</g>
</g>
<g id="AG-OUTLINE">
	<g id="POLYLINE_1247_">
		
			<path fill="none" stroke="#FB8604" stroke-width="3.5" stroke-linecap="round" stroke-linejoin="round" stroke-miterlimit="10" d="
			M576.993,230.328c-1.03-1.791-1.872-3.477-2.147-5.541c-0.481-3.607-0.227-7.273-0.758-10.882c-0.189-1.281-0.678-5.514-2.68-5.34
			c-2.042,0.178-4.005,3.908-4.878,5.307c-2.086,3.342-3.884,6.857-4.814,10.705c-0.202,0-1.115-2.813-1.223-3.087
			c-0.325-0.82-0.648-1.641-0.982-2.457c-0.767-1.872-1.535-3.746-2.409-5.572c-0.755-1.578-2.577-5.88-5.002-4.942
			c-2.204,0.853-3.549,4.559-4.389,6.433c-1.685,3.757-3.024,7.659-4.417,11.53c-0.288,0.8-0.524,2.397-1.093,3.037
			c-0.43,0.483-1.722,0.703-2.364,0.965c-1.764,0.719-3.479,1.557-5.143,2.485c-3.416,1.906-6.651,4.142-9.825,6.423
			c-6.364,4.572-12.285,9.524-17.288,15.581c-5.23,6.332-10.546,12.366-16.993,17.508c-2.868,2.287-5.884,4.411-9.093,6.192
			c-3.274,1.817-6.766,3.154-10.156,4.728c-1.956,0.908-3.89,1.924-5.346,3.548c-1.909,2.13-3.257,4.562-5.488,6.415
			c-5.663,4.705-12.982,7.925-19.921,10.213c-6.833,2.253-13.486,2.714-20.548,1.448c-3.478-0.623-6.911-1.467-10.455-0.89
			c-3.568,0.582-6.991,2.082-10.285,3.513c-3.704,1.609-7.34,3.453-11.199,4.675c-3.692,1.17-7.544,1.818-11.372,2.356
			c-7.647,1.073-15.387,1.5-23.098,1.785c-8.68,0.32-17.376,0.746-26.064,0.641c-8.252-0.1-16.348-1.298-24.537-2.174
			c-8.05-0.861-16.2-0.945-24.237,0.096c-7.689,0.996-14.972,3.757-22.593,5.083c-6.968,1.213-14.733,2.003-21.678,0.251
			c-2.423-0.611-4.503-1.76-6.533-3.201c-1.733-1.23-3.349-2.431-5.503-2.726c-2.634-0.36-5.286-0.034-7.893-0.68
			c-3.342-0.827-6.447-2.442-9.575-3.833c-3.43-1.526-6.902-2.43-10.609-2.968c-3.015-0.438-5.93-1-8.615-2.506
			c-2.088-1.171-3.827-2.732-5.133-4.739c-1.645-2.53-2.833-5.385-4.977-7.563c-1.344-1.365-2.947-2.154-4.78-2.652
			c-2.492-0.676-5.37-0.941-6.455-3.67c-0.966-2.432-0.813-5.209-1.302-7.75c-0.331-1.716-0.813-3.404-1.4-5.049
			c-0.375-1.052-0.956-2.142-0.85-3.294c0.246-2.697,2.771-5.392,4.321-7.419c2.411-3.153,5.119-6.15,7.152-9.574
			c1.783-3.001,2.276-6.389,3.695-9.528c0.397-0.877,0.925-1.637,1.469-2.429c0.224-0.325,0.784-0.921,0.475-1.302
			c-0.247-0.306-1.167-0.113-1.525-0.082c-1.181,0.103-2.448,0.428-3.644,0.305c-1.735-0.179-0.581-1.707-0.002-2.604
			c0.644-0.997,1.958-2.549,1.575-3.846c-0.388-1.315-2.442-0.957-3.46-0.978c-0.801-0.016-1.748-0.012-2.443-0.463
			c-1.148-0.744-1.151-2.431-1.495-3.608c-0.892-3.042-4.246-1.629-6.565-2.293c-1.91-0.547-3.599-1.321-5.654-1.064
			c-1.374,0.172-2.443,1.45-3.838,1.235c-1.287-0.198-2.421-1.025-3.691-1.325c-1.484-0.35-3.296-0.227-4.464,0.858
			c-0.888,0.825-1.211,2.214-2.371,2.747c-1.199,0.551-2.828,0.183-4.086,0.17c-1.323-0.014-2.586,0.228-3.626,1.102
			c-1.959,1.645-2.557,4.412-3.651,6.593c-0.182,0.364-0.402,0.962-0.762,1.164c-0.663,0.371-0.942-0.32-1.274-0.819
			c-0.262-0.393-0.594-1.158-1.167-1.045c-0.547,0.108-0.925,1.118-1.14,1.556c-0.785,1.601-1.365,3.297-2.107,4.918
			c-0.481,1.049-1.117,2.682-2.181,3.264c-2.484,1.359-4.458-5.16-6.218-1.12c-1.327,3.048-1.735,6.487-2.81,9.634
			c-0.536,1.568-1.145,3.124-1.913,4.595c-0.509,0.975-1.167,2.32-2.162,2.868c-1.375,0.757-2.092-1.111-2.582-2.098
			c-0.183-0.369-0.51-1.417-0.995-1.124c-0.275,0.166-0.293,1.046-0.331,1.35c-0.429,3.368-0.19,6.877-0.048,10.258
			c0.096,2.299,0.237,4.601,0.268,6.903c0.018,1.315,0.149,2.949-0.31,4.216c-0.622,1.717-2.017-0.072-2.699-0.842
			c-0.608-0.686-2.353-3.099-2.266-0.873c0.05,1.286,0.378,2.579,0.622,3.839c0.421,2.17,0.783,4.362,1.288,6.514
			c0.478,2.037,1.232,3.943,2.45,5.653c1.075,1.509,2.393,2.829,3.601,4.228c0.501,0.58,2.03,2.105,0.555,2.277
			c-1.295,0.151-2.622-0.51-3.926-0.307c-1.515,0.236-0.795,1.673-0.249,2.554c3.657,5.899,10.297,9.311,14.878,14.358
			c0.344,0.379,1.225,1.187,0.602,1.606c-0.283,0.19-0.967-0.002-1.293-0.052c-1.508-0.231-2.975-0.708-4.493-0.88
			c-0.36-0.041-1.173-0.207-1.444,0.116c-0.425,0.506,0.34,1.366,0.636,1.754c0.869,1.141,1.918,2.152,2.932,3.162
			c1.493,1.487,3.05,2.927,4.461,4.495c1.052,1.17,1.867,2.571,3.022,3.643c1.962,1.823,4.798,2.683,7.209,3.699
			c1.786,0.753,3.596,1.469,5.319,2.36c0.808,0.418,2.53,1.176,2.751,2.156c0.318,1.415-2.271,1.791-1.903,3.16
			c0.253,0.942,1.894,1.446,2.719,1.738c2.969,1.049,6.165,1.367,9.287,1.565c3.036,0.193,6.392,0.016,9.333,0.943
			c1.357,0.428,2.171,1.143,2.107,2.622c-0.055,1.281-0.64,2.901,0.91,3.501c0.905,0.35,2.057,0.277,3.005,0.235
			c1.814-0.08,3.619-0.342,5.415-0.597c2.066-0.292,4.135-0.646,6.217-0.804c0.695-0.053,2.4-0.306,2.972,0.255
			c0.925,0.905-1.14,2.641-1.344,3.533c-0.321,1.4,1.861,1.078,2.754,1.019c3.23-0.213,6.531-0.893,9.769-0.426
			c1.864,0.269,5.921,2.026,4.611,4.58c-0.484,0.944-1.766,1.349-2.7,1.691c-1.308,0.48-2.669,0.864-3.897,1.536
			c-2.579,1.412-3.563,4.118-4.466,6.741c-0.58,1.684-1.177,3.341-1.934,4.955c-0.553,1.179-1.234,2.366-1.594,3.627
			c-0.877,3.072,3.845,0.748,3.421,3.865c-0.226,1.662-1.01,3.312-1.567,4.871c-0.587,1.642-1.151,3.283-1.524,4.99
			c-0.501,2.296-1.121,5.331-0.414,7.667c0.568,1.876,1.823-0.112,2.392-0.95c0.557-0.82,2.166-3.845,2.466-1.379
			c0.434,3.572-0.259,7.362-0.359,10.941c-0.106,3.808,0.282,7.559,0.566,11.35c0.227,3.029-0.122,5.603-0.888,8.536
			c-0.958,3.668-1.638,7.346-1.933,11.13c-0.101,1.299-0.213,2.638-0.086,3.94c0.209,2.158,1.066,0.42,1.813-0.441
			c1.213-1.397,1.477,1.015,1.586,1.948c0.198,1.692,0.2,3.414,0.132,5.113c-0.063,1.573-0.182,3.165-0.515,4.707
			c-0.265,1.227-0.882,2.354-1.136,3.572c-0.381,1.826,1.272,3.649,1.626,5.451c0.469,2.391-0.202,4.789-0.053,7.184
			c0.113,1.817,1.361,0.227,2.103-0.369c1.458-1.171,2.099-0.215,2.371,1.357c0.347,2.003,0.243,4.201-0.171,6.185
			c-0.489,2.348-2.439,3.679-3.31,5.839c-0.873,2.165-1.632,4.884-1.467,7.243c0.164,2.329,2.018-0.467,2.6-1.195
			c0.191-0.238,0.831-1.254,1.172-1.041c0.265,0.165,0.02,1.069-0.026,1.329c-0.624,3.48-2.043,6.96-3.504,10.161
			c-1.507,3.302-3.41,6.431-4.417,9.94c-1.108,3.86-1.59,7.923-2.211,11.881c-1.248,7.966-2.367,15.968-3.039,24.005
			c-0.681,8.149-1.04,16.46-0.347,24.619c0.679,7.991,3.194,15.567,5.735,23.126c1.724,5.128,3.888,9.6,8.917,12.103
			c2.009,1,4.185,1.397,6.406,1.623c3.929,0.399,7.92,0.524,11.868,0.469c3.419-0.048,6.683-0.433,10.033-1.055
			c1.414-0.263,3.255,0.401,4.72,0.565c1.977,0.221,3.963,0.359,5.951,0.431c3.687,0.132,7.412,0.065,11.07-0.455
			c2.339-0.332,4.824-0.799,6.89-2.013c4.682-2.75,3.463-8.999,1.312-13.031c-2.65-4.967-7.631-6.895-12.846-8.155
			c-4.873-1.178-10.06-2.039-12.928-6.611c-3.57-5.694-4.197-13.513-4.112-20.065c0.087-6.724,1.859-12.982,5.865-18.433
			c4.528-6.16,10.423-11.206,14.642-17.611c4.282-6.5,6.588-14.012,9.118-21.302c0.635-1.831,1.296-3.652,1.957-5.473
			c0.609-1.677,1.048-3.697,2.017-5.179c1.034-1.581,2.336-3.027,3.426-4.577c0.99-1.408,1.939-2.844,2.883-4.283
			c4.548-6.928,9.197-13.631,14.705-19.845c0.766-0.864,1.54-1.721,2.319-2.574c0.539-0.59,1.329-1.906,2.019-2.171
			c0.555-0.213,1.832,0.136,2.444,0.172c0.772,0.046,1.545,0.083,2.318,0.105c4.229,0.125,8.488,0.287,12.72,0.235
			c2.443-0.03,5.131-0.113,7.382-1.186c1.602-0.763,2.856-2.152,4.561-2.707c1.845-0.601,3.911-0.071,5.706,0.44
			c3.683,1.048,7.197,2.614,10.876,3.678c3.168,0.917,6.298,0.836,9.533,1.267c2.389,0.318,3.821,1.524,5.395,3.222
			c0.782,0.845,1.758,2.146,3.059,1.889c1.181-0.233,2.032-1.377,3.297-1.357c1.131,0.017,2.141,0.9,2.963,1.594
			c1.507,1.272,2.904,2.667,4.453,3.891c2.655,2.1,5.72,3.77,8.935,4.836c1.014,0.336,2.434,0.867,3.513,0.626
			c1.679-0.376,0.107-2.417-0.312-3.292c-0.26-0.543-0.645-1.177,0.122-1.355c0.546-0.127,1.365,0.307,1.869,0.505
			c1.605,0.629,3.142,1.449,4.647,2.285c2.661,1.477,5.39,3.041,7.602,5.158c1.405,1.345,3.345,3.54,5.462,3.672
			c1.609,0.1,1.917-1.777,2.538-2.885c0.826-1.473,1.975-1.252,3.32-0.557c4.11,2.124,7.159,5.895,12.128,4.779
			c1.238-0.278,2.194-0.526,3.384,0.02c0.937,0.43,1.799,0.948,2.766,1.315c3.158,1.196,6.536,1.878,9.855,2.452
			c-0.615,2.342-1.286,4.703-1.471,7.127c-0.171,2.243,0.247,4.446,0.364,6.679c0.146,2.783-1.115,4.885-1.821,7.521
			c-0.982,3.668-0.084,7.684,0.421,11.356c0.75,5.46,1.209,10.888,1.288,16.401c0.082,5.707-0.298,11.412-0.197,17.115
			c0.099,5.634,0.546,11.273,0.993,16.889c0.454,5.702,0.96,11.411,1.762,17.076c0.724,5.119,1.836,9.885,4.36,14.438
			c1.471,2.653,3.306,5.559,6.087,7.013c3.109,1.626,6.938,1.342,10.323,1.37c5.472,0.046,11.122,0.279,16.575-0.28
			c2.659-0.273,5.325-1.077,7.034-3.278c2.544-3.276,0.108-8.268-1.735-11.33c-1.342-2.229-3.142-4.29-5.497-5.476
			c-2.898-1.459-6.794-1.008-9.314-3.176c-1.084-0.933-1.636-2.307-2-3.656c-0.665-2.469-0.899-5.089-1.184-7.623
			c-0.516-4.592-0.961-9.534,0.249-14.057c1.098-4.106,3.972-7.393,5.63-11.256c2.155-5.021,2.881-10.652,4.021-15.955
			c1.133-5.272,2.722-10.327,5.106-15.174c1.119-2.276,2.358-4.488,3.608-6.694c-0.193,6.472-0.411,12.942-0.809,19.405
			c-0.397,6.454-1.054,12.83-2.046,19.219c-0.276,1.779-0.62,3.603-0.398,5.408c0.191,1.553,0.828,3.007,1.514,4.398
			c0.992,2.01,2.099,3.967,2.635,6.16c0.617,2.526,0.597,5.148,1.091,7.694c0.38,1.953,1.053,3.776,2.502,5.192
			c1.266,1.238,2.156,2.307,2.464,4.09c0.345,1.995,0.344,4.056,0.985,5.994c0.462,1.399,1.262,2.643,2.155,3.804
			c1.436,1.866,3.083,3.528,4.205,5.617c1.008,1.876,1.774,3.866,3.076,5.572c1.773,2.324,4.237,3.813,7.062,4.51
			c5.65,1.393,11.731,0.829,17.487,0.886c4.056,0.04,8.64,0.752,12.516-0.838c1.366-0.56,2.689-1.48,3.208-2.922
			c0.517-1.434,0.194-3.09-0.171-4.523c-0.689-2.702-1.644-5.507-2.845-8.025c-0.685-1.437-1.578-2.801-2.875-3.759
			c-3.618-2.671-8.583-1.598-12.546-3.328c-1.839-0.803-2.917-2.441-4.008-4.039c-1.338-1.96-2.749-3.91-3.623-6.134
			c-1.58-4.021-0.654-8.396-0.283-12.553c0.511-5.722-0.914-11.37-0.551-17.089c0.397-6.262,2.562-12.335,4.037-18.389
			c1.48-6.075,2.06-12.225,2.686-18.433c0.613-6.076,1.406-12.115,2.625-18.102c1.324-6.503,2.979-12.927,4.652-19.346
			c0.324-1.243,0.662-2.481,1.001-3.719c0.287-1.049,0.574-2.098,0.86-3.147c0.215-0.788,0.125-0.831,0.894-1.098
			c2.807-0.977,5.76-1.669,8.495-2.831c3.964-1.684,7.085-4.998,9.961-8.095c4.167-4.488,8.067-9.288,11.51-14.356
			c1.298-1.91,2.637-3.899,3.505-6.05c0.593-1.47,0.609-2.902,0.668-4.466c0.124-3.302,1.243-7.069,4.022-9.07
			c1.566-1.127,3.385-1.883,4.729-3.307c0.91-0.965,1.443-2.148,1.809-3.409c0.56-1.924,0.594-4.225,1.669-5.97
			c0.929-1.508,2.538-2.467,3.501-4c3.006-4.781,4.623-10.357,7.179-15.376c0.941-1.847,1.976-3.766,3.449-5.255
			c1.417-1.433,3.463-1.906,4.714-3.542c1.114-1.457,1.776-3.272,2.407-4.973c1.139-3.068,2.045-6.219,3.062-9.328
			c0.618-1.889,1.237-3.827,2.327-5.506c0.582-0.896,1.116-1.568,1.154-2.662c0.034-0.976-0.122-1.953-0.117-2.93
			c0.009-1.726,0.24-3.581,1-5.148c0.731-1.506,1.839-2.568,1.797-4.354c-0.063-2.651-2.737-9.699,2.122-9.737
			c2.248-0.018,4.485,0.879,6.668,1.293c2.564,0.486,5.166,0.443,7.764,0.458c2.052,0.012,4.098,0.109,6.105,0.562
			c2.794,0.63,5.452,1.742,8.191,2.564c4.412,1.325,8.777,1.34,13.27,0.346c1.316-0.291,2.612-0.819,3.929-1.067
			c0.633-0.119,0.371-0.22,0.68,0.245c0.172,0.26,0.243,0.68,0.358,0.974c0.25,0.636,0.529,1.261,0.829,1.876
			c0.907,1.856,1.982,3.753,3.428,5.25c1.557,1.611,3.181,1.736,4.188-0.504c0.626-1.393,0.868-2.991,0.89-4.508
			c0.062-4.346-2.608-6.598-4.807-9.996c-2.053-3.172-2.087-7.181-4.033-10.419c-2.054-3.417-5.413-6.022-8.838-7.955
			c6.334,1.937,12.74,1.829,19.035-0.319c1.995-0.681,4.211-1.584,5.627-3.217c0.654-0.754,1.077-1.651,1.372-2.598
			c0.167-0.536,0.196-1.795,0.549-2.124c0.28-0.26,1.332-0.396,1.751-0.658c2.11-1.323,3.74-3.57,5.079-5.619
			c1.129-1.727,2.27-3.652,2.729-5.69c0.935-4.159-3.721-6.883-6.923-8.267c-0.672-0.29-1.363-0.543-2.072-0.722
			c-1.191-0.3-2.047-1.223-3.082-1.882c-1.92-1.221-4.049-1.824-6.265-2.272c-6.344-1.281-12.774-2.303-18.614-5.258
			c-3.471-1.757-6.305-4.08-7.29-7.974c-0.727-2.875-0.781-5.853-1.634-8.71c-0.867-2.906-2.102-5.784-3.568-8.436
			c-2.409-4.356-6.004-7.392-10.404-9.642c-6.685-3.42-14.019-5.478-21.1-7.889C579.793,231.345,578.395,230.829,576.993,230.328z"
			/>
	</g>
</g>
</svg>
