<?xml version="1.0" encoding="utf-8"?>
<!-- Generator: Adobe Illustrator 25.3.1, SVG Export Plug-In . SVG Version: 6.00 Build 0)  -->
<!DOCTYPE svg PUBLIC "-//W3C//DTD SVG 1.1//EN" "http://www.w3.org/Graphics/SVG/1.1/DTD/svg11.dtd" [
	<!ENTITY ns_extend "http://ns.adobe.com/Extensibility/1.0/">
	<!ENTITY ns_ai "http://ns.adobe.com/AdobeIllustrator/10.0/">
	<!ENTITY ns_graphs "http://ns.adobe.com/Graphs/1.0/">
	<!ENTITY ns_vars "http://ns.adobe.com/Variables/1.0/">
	<!ENTITY ns_imrep "http://ns.adobe.com/ImageReplacement/1.0/">
	<!ENTITY ns_sfw "http://ns.adobe.com/SaveForWeb/1.0/">
	<!ENTITY ns_custom "http://ns.adobe.com/GenericCustomNamespace/1.0/">
	<!ENTITY ns_adobe_xpath "http://ns.adobe.com/XPath/1.0/">
]>
<svg version="1.1" xmlns:x="&ns_extend;" xmlns:i="&ns_ai;" xmlns:graph="&ns_graphs;"
	 xmlns="http://www.w3.org/2000/svg" xmlns:xlink="http://www.w3.org/1999/xlink" x="0px" y="0px" width="750px" height="750px"
	 viewBox="0 0 750 750" enable-background="new 0 0 750 750" xml:space="preserve">
<metadata>
	<sfw  xmlns="&ns_sfw;">
		<slices></slices>
		<sliceSourceBounds  bottomLeftOrigin="true" height="12496.359" width="14430.097" x="-7224.097" y="-4175"></sliceSourceBounds>
	</sfw>
</metadata>
<g id="FILL-BACKGROUND">
	<rect fill="#FFFFFF" width="750" height="750"/>
</g>
<g id="N-DIMENSIONS">
</g>
<g id="N-TEXT">
</g>
<g id="AG-DIAGRAM">
	<g>
		<g>
			
				<line fill="none" stroke="#FB8604" stroke-width="3.5" stroke-linecap="round" stroke-linejoin="round" x1="138.919" y1="606.034" x2="140.919" y2="606.034"/>
			
				<line fill="none" stroke="#FB8604" stroke-width="3.5" stroke-linecap="round" stroke-linejoin="round" stroke-dasharray="4.0025,7.0043" x1="147.924" y1="606.034" x2="551.671" y2="606.034"/>
			
				<line fill="none" stroke="#FB8604" stroke-width="3.5" stroke-linecap="round" stroke-linejoin="round" x1="555.173" y1="606.034" x2="557.173" y2="606.034"/>
		</g>
	</g>
</g>
<g id="AG-GUIDES">
</g>
<g id="AG-PEOPLE">
</g>
<g id="AG-DETAIL">
	<g id="POLYLINE_934_">
		<path fill="none" stroke="#FB8604" stroke-width="2" stroke-linecap="round" stroke-linejoin="round" stroke-miterlimit="10" d="
			M280.279,439.05c4.905-4.03,12.834-9.636,19.066-5.038c2.847,2.1,4.657,5.198,6.897,7.864c0.999,1.189,1.989,2.131,2.843,0.377
			c0.594-1.22,0.977-2.82,2.204-3.59c2.231-1.399,5.707,1.413,7.416,2.665c2.865,2.1,5.518,4.486,8.138,6.879
			c1.615,1.475,3.22,2.962,4.851,4.42c1.076,0.962,2.577,2.765,3.996,3.177c1.356,0.394,0.26-2.387,0.163-3.114
			c-0.217-1.627,0.413-2.417,2.133-2.205c3.015,0.372,5.988,1.922,8.741,3.109c3.214,1.385,6.478,3.032,9.901,3.844
			c1.168,0.277,2.979,0.627,3.144-0.992c0.075-0.736-0.178-1.53-0.387-2.228c-0.203-0.678-0.764-1.592-0.736-2.303
			c0.036-0.919,0.737-0.127,1.194,0.279c0.581,0.515,1.127,1.073,1.674,1.623c1.475,1.481,2.925,2.986,4.426,4.441
			c1.199,1.162,2.424,2.307,3.738,3.339c1.066,0.836,2.617,2.159,4.084,1.967c1.409-0.184,2.003-1.818,2.418-2.973
			c0.597-1.664,1.016-3.387,1.662-5.034c0.896-2.282,2.427-5.613,4.965-6.36c2.63-0.775,4.581,2.473,5.754,4.299
			c1.032,1.606,1.947,3.284,2.928,4.92c0.399,0.665,1.563,3.081,2.557,2.559c0.956-0.502,1.155-4.001,1.323-4.833
			c0.246-1.223,0.514-2.479,1.032-3.622c1.244-2.747,3.807-2.383,6.232-1.469c2.991,1.127,5.731,2.853,8.994,3.055
			c1.59,0.099,3.178-0.101,4.768-0.097"/>
	</g>
	<g id="POLYLINE_933_">
		<path fill="none" stroke="#FB8604" stroke-width="2" stroke-linecap="round" stroke-linejoin="round" stroke-miterlimit="10" d="
			M565.611,211.993c8.357,1.325,16.169,4.433,22.804,9.762c2.044,1.641,3.936,3.472,5.617,5.484"/>
	</g>
	<g id="POLYLINE_932_">
		<path fill="none" stroke="#FB8604" stroke-width="2" stroke-linecap="round" stroke-linejoin="round" stroke-miterlimit="10" d="
			M416.942,504.36c0.351-5.164,1.807-10.246,4.008-14.918c2.153-4.571,5.112-8.888,9.053-12.099
			c3.653-2.977,8.272-4.993,13.025-5.13c1.833-0.053,3.803,0.189,5.372,1.211c2.026,1.321,2.578,3.582,2.724,5.857
			c0.095,1.473,0.034,2.951-0.009,4.425c-0.035,1.183-0.254,2.694,0.132,3.843c0.752,2.237,4.167-1.62,4.97-2.372
			c2.203-2.065,4.497-4.641,7.329-5.845c2.788-1.186,4.34,1.024,5.534,3.292c0.518,0.983,1.158,3.118,2.248,3.653
			c1.005,0.494,1.754-0.863,2.152-1.591c1.398-2.557,2.118-5.553,2.807-8.363c1.437-5.868,2.286-11.851,2.862-17.858
			c0.629-6.547,0.862-13.361,2.788-19.697c1.672-5.501,5.038-10.213,7.681-15.259c2.691-5.138,4.315-10.543,5.216-16.265
			c0.598-3.798,1.104-7.611,1.69-11.411c0.383-2.483,0.839-5.011,1.696-7.381c1.166-3.224,3.397-5.318,7.019-4.527
			c1.823,0.398,3.529,1.269,5.121,2.217c1.354,0.806,2.644,1.721,4.017,2.496c0.853,0.481,2.2,1.317,3.198,0.778
			c1.746-0.943,1.186-4.68,0.972-6.26c-0.73-5.382-3.19-9.898-6.453-14.155c-1.762-2.298-3.678-4.57-4.853-7.243
			c-1.038-2.36-1.423-4.935-1.731-7.476c-0.362-2.977-0.656-5.978-1.453-8.879c-0.828-3.017-2.112-5.898-3.464-8.713
			c-2.674-5.57-5.421-10.977-7.219-16.908c-1.833-6.046-3.471-12.246-7.208-17.45c-3.285-4.575-7.654-8.351-12.33-11.447
			c-2.491-1.65-5.1-3.094-7.798-4.376"/>
	</g>
	<g id="POLYLINE_930_">
		<path fill="none" stroke="#FB8604" stroke-width="2" stroke-linecap="round" stroke-linejoin="round" stroke-miterlimit="10" d="
			M169.158,597.369c2.241-3.209,4.749-6.064,7.983-8.306c3.011-2.087,6.334-3.757,9.773-5.014c1.928-0.705,3.91-1.277,5.931-1.643"
			/>
	</g>
	<g id="POLYLINE_924_">
		<path fill="none" stroke="#FB8604" stroke-width="2" stroke-linecap="round" stroke-linejoin="round" stroke-miterlimit="10" d="
			M137.614,469.789c1.595,0.25,3.624,0.406,4.822,1.641c1.307,1.348,1.011,3.669,0.857,5.383c-0.404,4.485-0.842,8.42,0.906,12.691
			c2.073,5.064,4.952,9.645,6.587,14.907c1.576,5.07,2.571,10.319,3.285,15.574c0.802,5.904,1.203,11.854,1.273,17.81"/>
	</g>
	<g id="POLYLINE_923_">
		<path fill="none" stroke="#FB8604" stroke-width="2" stroke-linecap="round" stroke-linejoin="round" stroke-miterlimit="10" d="
			M560.64,212.637c6.101,4.436,12.782,8.655,17.983,14.176c4.88,5.181,8.271,11.559,10.991,18.088
			c2.762,6.632,5.102,13.932,4.767,21.203c-0.341,7.396-3.538,14.481-6.866,20.976c-2.823,5.508-6.346,10.518-11.339,14.252
			c-2.951,2.206-6.077,4.151-9.368,5.808c-3.054,1.537-6.734,2.721-9.313,5.047c-5.302,4.783-0.069,12.661-2.019,18.46
			c-1.969,5.854-13.015-2.953-15.252-4.872c-5.338-4.577-8.805-10.125-11.621-16.504c-1.323-2.999-2.554-6.123-4.69-8.657
			c-2.286-2.711-5.312-4.681-8.096-6.829c-1.518-1.172-2.968-2.418-4.381-3.713"/>
	</g>
</g>
<g id="AG-ANIMALS">
	<g id="POLYLINE_911_">
		
			<path fill="none" stroke="#FB8604" stroke-width="2.75" stroke-linecap="round" stroke-linejoin="round" stroke-miterlimit="10" d="
			M161.579,525.601c-1.059,2.751-2.037,5.552-3.236,8.247c-0.596,1.339-1.945,4.813-3.884,3.737
			c-1.006-0.558-1.722-1.859-2.393-2.739c-0.515-0.676-1.242-1.839-2.166-1.99c-1.795-0.294-2.886,3.657-3.333,4.847
			c-0.967,2.578-1.721,5.499-3.238,7.832c-1.557,2.393-3.044,0.613-4.525-0.862c-0.536-0.534-1.334-1.441-2.194-1.265
			c-0.896,0.184-1.417,1.464-1.745,2.198c-1.148,2.567-1.771,5.367-2.609,8.042c-0.364,1.161-1.509,5.383-2.905,2.794
			c-1.222-2.266-1.703-5.043-2.409-7.49c-0.32-1.108-0.584-2.393-1.172-3.402c-0.695-1.191-1.116,0.003-1.347,0.816
			c-0.741,2.604-0.994,5.369-1.452,8.03c-0.136,0.792-0.799,6.119-2.216,5.018c-0.815-0.633-1.163-2.237-1.459-3.152
			c-0.393-1.212-0.721-2.445-1.028-3.681c-1.399-5.62-2.416-11.357-3.297-17.079c-0.877-5.697-1.8-11.532-1.271-17.309
			c0.454-4.956,2.224-9.616,4.664-13.922c2.753-4.857,6.379-9.046,9.698-13.507c3.145-4.228,5.672-8.809,7.411-13.789
			c1.94-5.557,3.218-11.341,4.377-17.103c1.191-5.919,2.22-11.87,3.392-17.792c1.173-5.93,2.847-11.74,4.12-17.646
			c1.168-5.42,1.71-10.915,1.845-16.453c0.146-6.016,0.018-12.037,0.226-18.052c0.211-6.09,0.635-12.186,1.78-18.181
			c1.029-5.388,2.726-10.618,4.936-15.635c2.28-5.174,5.067-10.128,8.149-14.865c3.403-5.231,7.076-10.29,10.786-15.307
			c3.125-4.225,6.562-8.277,11.325-10.696c4.621-2.347,9.846-3.337,14.879-4.387c5.857-1.222,11.746-2.344,17.454-4.164
			c5.797-1.848,11.406-4.243,17.099-6.38c5.2-1.952,10.584-3.709,16.169-4.018c5.835-0.323,11.652,0.762,17.404,1.589
			c5.49,0.79,10.963,1.158,16.51,1.1c6.294-0.065,12.581-0.485,18.866-0.808c5.767-0.297,11.528-0.61,17.306-0.508
			c5.836,0.103,11.661,0.579,17.452,1.292c6.5,0.801,12.961,1.908,19.43,2.924c5.427,0.853,10.856,1.661,16.343,2.024
			c5.581,0.369,11.173,0.216,16.746-0.216c6.336-0.491,12.665-1.07,18.997-1.605c6.252-0.528,12.507-1.024,18.757-1.584
			c5.097-0.457,10.509-0.84,15.359-2.597c2.404-0.871,4.167-2.413,6.075-4.053c1.812-1.558,3.851-2.666,6.024-3.634
			c5.06-2.255,10.715-3.855,15.028-7.473c1.914-1.605,3.518-3.687,5.93-4.564c2.267-0.824,4.548-1.362,6.729-2.435
			c4.188-2.061,8.779-4.81,11.593-8.624"/>
	</g>
	<g id="POLYLINE_757_">
		
			<path fill="none" stroke="#FB8604" stroke-width="2.75" stroke-linecap="round" stroke-linejoin="round" stroke-miterlimit="10" d="
			M632.696,293.561c-4.854,7.506-11.934,14.125-20.744,16.426c-9.62,2.512-20.203,1.451-29.966,0.47
			c-5.741-0.576-11.462-1.356-17.142-2.371"/>
	</g>
	<g id="POLYLINE_756_">
		
			<path fill="none" stroke="#FB8604" stroke-width="2.75" stroke-linecap="round" stroke-linejoin="round" stroke-miterlimit="10" d="
			M588.989,363.108c0.272-2.486,0.287-4.992-0.193-7.454c-0.551-2.827-1.71-5.496-2.261-8.318c-0.434-2.221-0.326-4.54,0.086-6.757
			c0.111-0.595,0.397-2.77,1.27-2.748c0.901,0.023,1.478,2.723,2.348,1.298c0.929-1.523,0.501-4.36,0.143-6.043
			c-0.5-2.352-1.806-4.291-3.228-6.188c-1.677-2.236-3.457-4.611-3.468-7.539c-0.013-3.261,2.709-1.905,4.328-0.565
			c1.053,0.872,1.947,1.901,2.86,2.914c0.742,0.823,2.092,2.428,2.118,0.385c0.038-2.961-0.984-6.202-1.969-8.959
			c-0.24-0.671-0.501-1.335-0.785-1.988"/>
	</g>
	<g id="POLYLINE_755_">
		
			<path fill="none" stroke="#FB8604" stroke-width="2.75" stroke-linecap="round" stroke-linejoin="round" stroke-miterlimit="10" d="
			M619.88,286.456c-1.208-3.724-2.656-8.835,2.012-10.645c3.5-1.356,8.142-1.51,11.628-0.066c4.159,1.723,5.088,6.233,4.28,10.303
			c-0.778,3.921-3.197,7.598-7.404,8.16c-4.463,0.597-8.235-1.893-9.883-5.983C620.279,287.645,620.074,287.052,619.88,286.456z"/>
	</g>
	<g id="POLYLINE_754_">
		
			<path fill="none" stroke="#FB8604" stroke-width="2.75" stroke-linecap="round" stroke-linejoin="round" stroke-miterlimit="10" d="
			M556.39,220.845c-0.353,3.3-0.997,6.625-2.293,9.695c-1.134,2.686-2.859,4.82-4.95,6.829c-2.417,2.322-4.686,4.567-5.95,7.733
			c-1.47,3.68-2.098,7.669-3.097,11.49c-1.894,7.243-5.106,13.884-9.819,19.722c-1.033,1.279-2.131,2.521-3.353,3.624
			c-0.787,0.711-2.43,2.304-3.648,1.897c-1.114-0.372-1.047-2.32-1.093-3.253c-0.04-0.797,0.225-3.984-1.286-2.768
			c-1.36,1.094-2.305,2.976-3.231,4.426c-1.196,1.874-2.365,3.766-3.545,5.65c-1.791,2.857-3.53,5.994-5.925,8.398
			c-1.079,1.083-2.073,1.434-2.46-0.345c-0.361-1.66-0.344-3.386-0.666-5.056c-0.288-1.497-0.811-2.901-2.087-3.82
			c-1.166-0.839-2.628-1.143-3.789-1.984c-2.486-1.802-1.991-6.151-2.03-8.823c-0.058-3.967-0.726-7.79-1.4-11.689
			c-1.114-6.439-1.218-12.841,1.662-18.855c3.338-6.972,9.704-11.685,14.623-17.441c2.484-2.907,4.203-6.346,7.063-8.942
			c2.64-2.397,5.733-4.321,8.869-5.994c5.418-2.889,11.957-5.681,18.239-4.891c2.899,0.364,5.579,1.53,8.116,2.933
			c2.573,1.423,6.391,4.442,9.567,3.535c1.364-0.39,2.419-1.503,3.418-2.448c1.218-1.151,2.439-2.207,3.961-2.941
			c1.721-0.83,3.584-1.322,5.409-1.864c1.943-0.577,3.823-1.286,5.722-1.993c2.515-0.936,5.079-1.665,7.781-1.651
			c3.26,0.017,6.512,0.873,9.526,2.069c5.504,2.184,10.38,5.763,13.39,10.932c1.565,2.687,7.063,14.691,0.146,14.266
			c-3.549-0.218-6.825-2.19-10.091-3.398c-2.444-0.904-6.185-1.818-8.595-0.223c-1.303,0.863-0.358,1.98,0.398,2.871
			c1.221,1.441,2.538,2.812,3.258,4.594c1.276,3.158,0.786,6.878,0.634,10.186c-0.136,2.96-0.218,6.065,1.154,8.78
			c1.218,2.41,3.305,4.24,5.489,5.761c6.415,4.471,13.714,7.531,20.184,11.933c3.25,2.211,6.386,4.588,9.555,6.911"/>
	</g>
	<g id="POLYLINE_753_">
		
			<path fill="none" stroke="#FB8604" stroke-width="2.75" stroke-linecap="round" stroke-linejoin="round" stroke-miterlimit="10" d="
			M156.241,396.284c0.224,6.385,0.363,12.78,1.155,19.127c0.772,6.183,2.206,12.221,4.234,18.111
			c2.109,6.129,4.626,12.111,6.775,18.226c1.614,4.593,3.561,9.907,2.471,14.837c-0.559,2.528-1.864,4.816-2.968,7.131
			c-1.179,2.471-2.136,5.015-2.878,7.65c-0.424,1.506-3.702,15.4-1.148,15.082c1.265-0.157,4.421-5.809,5.079-5.157
			c0.427,0.424-0.345,2.765-0.455,3.239c-0.368,1.581-0.796,3.15-1.201,4.722c-1.595,6.203-3.125,12.415-4.358,18.703
			c-1.191,6.075-2.521,12.407-2.486,18.624c0.005,0.959-0.084,2.397,0.489,3.198c0.782,1.095,1.709-0.333,2.669-0.012
			c1.684,0.563,0.86,5.896,0.769,7.203c-0.454,6.535-1.446,13.024-1.911,19.559c-0.413,5.801-0.48,11.767,0.839,17.466
			c0.658,2.844,1.744,5.524,3.087,8.109c1.395,2.686,2.693,5.479,4.225,8.087c2.675,4.551,7.653,5.066,12.484,5.469
			c6.193,0.517,12.549,0.567,18.717-0.261c2.272-0.305,4.611-0.716,6.73-1.626c3.295-1.416,4.144-4.108,3.817-7.445
			c-0.241-2.457-0.487-5.256-1.942-7.34c-1.378-1.974-3.777-2.85-6.013-3.452c-2.753-0.741-5.601-0.978-8.373-1.616
			c-2.039-0.47-3.559-1.443-4.493-3.371c-2.317-4.782-2.295-10.979-2.333-16.164c-0.045-6.186,0.552-12.35,1.564-18.448
			c1.063-6.409,2.335-12.832,4.519-18.966c1.84-5.168,4.38-9.957,7.904-14.173c3.987-4.77,8.829-8.708,13.417-12.869
			c5.043-4.573,10.067-9.175,15.045-13.819c4.39-4.096,8.631-8.412,12.356-13.129c3.871-4.901,6.857-10.349,10.044-15.699
			c1.355-2.275,2.817-4.644,4.794-6.436c2.323-2.104,5.308-2.391,8.137-3.428c4.754-1.743,7.721-6.431,12.504-8.126
			c4.958-1.757,10.206,1.17,13.84,4.389c2.362,2.092,4.276,4.581,6.047,7.179c1.543,2.265,2.943,4.751,4.83,6.759
			c1.835,1.952,3.457,1.982,5.485,0.29c1.478-1.234,3.232-3.512,5.406-2.58c1.499,0.643,2.652,2.129,3.698,3.33
			c1.025,1.177,2.026,2.376,3.061,3.544c2.155,2.434,4.503,4.694,6.977,6.802c2.22,1.892,4.544,3.723,7.068,5.196
			c1.491,0.871,5.147,2.926,5.247-0.19c0.037-1.166-0.288-2.31-0.427-3.458c-0.219-1.814,1.019-0.345,1.628,0.362
			c2.046,2.376,3.931,4.884,6.004,7.239c3.94,4.477,8.412,8.531,13.359,11.872c1.169,0.79,2.368,1.549,3.629,2.186
			c0.747,0.377,2.067,1.151,2.953,0.935c1.63-0.398-0.468-5.203-0.629-6.332c-0.187-1.313-0.182-5.592,1.976-3.531
			c1.91,1.824,3.133,4.581,4.349,6.89c1.36,2.581,2.666,5.188,4.34,7.585c1.729,2.476,3.723,4.77,5.787,6.971
			c2.034,2.169,4.153,4.297,6.495,6.136c1.082,0.85,4.66,3.772,5.323,1.121c0.326-1.302,0.049-2.841-0.06-4.151
			c-0.082-0.991-0.487-2.79,0.076-3.688c1.032-1.646,4.868,2.165,5.717,2.876c2.003,1.677,3.97,3.484,6.261,4.77
			c2.466,1.385,5.173,1.815,7.886,2.462"/>
	</g>
	<g id="POLYLINE_752_">
		
			<path fill="none" stroke="#FB8604" stroke-width="2.75" stroke-linecap="round" stroke-linejoin="round" stroke-miterlimit="10" d="
			M411.28,386.111c-1.328,5.754-2.039,11.647-2.032,17.556c0.007,5.472,0.63,10.968,2.553,16.118c1.913,5.123,4.71,9.851,5.31,15.38
			c0.643,5.923-0.213,11.975-0.643,17.881c-0.209,2.873-0.337,5.754-0.28,8.634c0.045,2.285-0.073,5.291,0.993,7.402
			c1.267,2.509,3.564-2.167,4.207-3.135c0.403-0.607,1.301-2.208,1.745-0.888c0.328,0.975,0.101,2.386,0.032,3.382
			c-0.416,5.965-1.568,11.891-2.806,17.731c-1.331,6.279-2.628,12.548-3.516,18.909c-0.844,6.049-1.359,12.153-1.449,18.261
			c-0.046,3.072,0.008,6.147,0.194,9.214c0.147,2.419,0.19,5.141,1.03,7.446c0.481,1.318,1.118,1.066,1.746-0.013
			c0.777-1.336,1.324-2.832,1.943-4.242c1.081-2.464,2.254-4.891,3.657-7.191c0.621-1.018,1.285-2.232,2.22-2.999
			c1.109-0.909,1.274,0.382,1.31,1.324c0.107,2.82-0.338,5.721-0.576,8.522c-0.482,5.674-0.895,11.555-0.197,17.228
			c0.07,0.568,0.176,2.55,0.961,2.294c0.733-0.239,1.528-2.693,1.81-3.262c1.222-2.46,2.638-4.786,4.388-6.91
			c1.867-2.264,3.977-4.368,6.298-6.168c0.883-0.685,4.168-3.444,5.275-2.055c0.568,0.713,0.157,2.167,0,2.967
			c-0.277,1.411-0.673,2.799-1.037,4.189c-0.766,2.927-1.551,5.846-2.08,8.828c-0.505,2.843-0.841,5.725-0.965,8.611
			c-0.094,2.19-0.429,5.284,0.62,7.32c1.256,2.438,4.06-2.932,4.687-3.829c0.393-0.562,1.463-2.458,2.293-1.733
			c0.675,0.59,0.589,2.439,0.636,3.236c0.182,3.081,0.078,6.176,0.128,9.261c0.04,2.482-0.061,5.268,0.842,7.622
			c0.304,0.793,0.978,2.044,1.951,1.333c0.855-0.625,1.315-2.277,1.729-3.181c0.985-2.153,2.2-4.371,4.226-5.716
			c4.605-3.056,5.82,4.858,6.361,7.786c0.953,5.153,1.338,10.4,3.847,15.1c2.108,3.949,5.586,5.503,9.836,6.236
			c5.993,1.033,12.211,1.163,18.278,1.302c6.012,0.138,12.08,0.151,18.069-0.451c2.093-0.211,4.285-0.448,6.249-1.255
			c2.911-1.196,3.783-3.807,3.368-6.76c-0.534-3.798-2.605-7.545-5.633-9.911c-3.15-2.461-7.165-3.418-11.098-3.51
			c-4.351-0.102-9.366,1.009-13.389-1.197c-4.581-2.512-7.258-8.162-9.342-12.711c-2.361-5.155-4.096-10.697-4.443-16.381
			c-0.351-5.758,0.672-11.492,0.423-17.247c-0.256-5.922-1.44-11.758-1.62-17.694c-0.184-6.092,0.247-12.197,0.79-18.261
			c0.56-6.247,1.333-12.473,2.25-18.677c0.45-3.046,0.956-6.084,1.549-9.105c0.564-2.874,1.412-5.69,1.909-8.576
			c1.034-6.009,0.98-12.175,1.815-18.217c0.749-5.417,2.176-10.639,4.665-15.525c2.618-5.14,6.278-9.572,9.436-14.369
			c2.931-4.453,5.03-9.243,6.283-14.428c1.251-5.174,1.761-10.51,1.614-15.827"/>
	</g>
	<g id="POLYLINE_751_">
		
			<path fill="none" stroke="#FB8604" stroke-width="2.75" stroke-linecap="round" stroke-linejoin="round" stroke-miterlimit="10" d="
			M484.312,471.087c2.014-1.257,4.038-2.496,5.822-4.073c0.828-0.731,1.584-1.527,2.31-2.358c0.247-0.283,2.173-2.857,2.578-2.412
			c0.366,0.402-0.461,2.644-0.545,3.094c-0.133,0.715-0.41,1.754-0.123,2.46c0.816,2.003,4.229-1.036,5.011-1.743
			c1.669-1.508,3.075-3.283,4.392-5.099c0.905-1.248,1.783-2.516,2.677-3.772c0.624-0.875,1.294-2.051,2.203-2.638
			c1.995-1.289,1.007,3.927,2.45,4.108c1.321,0.166,3.199-3.482,3.798-4.388c1.003-1.518,6.367-11.338,8.891-8.135
			c1.168,1.482,1.488,3.786,1.892,5.567c0.209,0.922,0.766,6.035,2.138,6.321c1.448,0.302,2.657-3.952,2.99-4.908
			c0.86-2.472,1.551-5.007,2.172-7.548c0.657-2.687,1.25-5.389,1.925-8.072c0.481-1.91,0.92-4.005,1.895-5.74
			c2.496-4.442,5.228,5.763,5.534,7.303c0.543,2.724,0.726,5.495,0.976,8.256c0.035,0.389,0.068,2.591,0.556,2.515
			c0.413-0.064,0.813-2.425,0.919-2.843c0.683-2.685,1.285-5.414,2.191-8.036c0.445-1.289,1.376-4.258,2.932-2.311
			c0.962,1.204,1.825,4.035,3.672,4.16c1.968,0.133,3.287-2.472,3.994-3.98c2.034-4.337,2.293-9.324,2.809-14.014
			c0.179-1.628,0.107-4.433,1.242-5.752c1.422-1.652,3.263,2.246,4.982,1.038c0.801-0.563,1.147-1.817,1.465-2.698
			c0.419-1.157,0.752-2.35,1.234-3.484c0.337-0.792,0.805-1.982,1.851-1.715c1.145,0.292,1.777,1.669,2.778,2.214
			c1.895,1.03,2.307-2.739,2.521-3.965c0.462-2.648,0.683-5.333,1.092-7.989c0.395-2.559,1.108-5.063,1.46-7.627
			c0.295-2.15,0.094-4.232-0.301-6.356c-0.801-4.301-1.956-8.577-1.473-12.99c0.346-3.152,1.55-6.274,3.847-8.526
			c0.483-0.473,1.266-1.255,2.006-1.252c0.926,0.004,1.007,1.055,1.07,1.775c0.09,1.036-0.003,2.08,0.071,3.116
			c0.082,1.147,0.495,1.406,1.31,0.488c1.487-1.675,2.577-3.93,3.462-5.969"/>
	</g>
</g>
<g id="AG-OUTLINE">
	<g id="POLYLINE_54_">
		
			<path fill="none" stroke="#FB8604" stroke-width="3.5" stroke-linecap="round" stroke-linejoin="round" stroke-miterlimit="10" d="
			M635.246,276.703c-3.467-2.541-6.89-5.163-10.481-7.53c-3.752-2.473-7.73-4.584-11.649-6.775
			c-5.278-2.95-12.523-6.219-13.971-12.757c-0.795-3.588-0.115-7.358-0.104-10.985c0.011-3.54-0.799-6.331-3.124-9.039
			c-0.757-0.882-2.918-2.618-1.561-3.796c0.943-0.819,2.617-0.945,3.806-0.957c3.95-0.039,7.486,2.21,11.106,3.478
			c1.58,0.553,3.45,1.181,5.148,0.911c1.839-0.293,2.275-1.91,2.224-3.587c-0.085-2.811-1.12-5.673-2.268-8.204
			c-2.696-5.945-7.464-10.213-13.391-12.847c-3.22-1.431-6.738-2.465-10.277-2.586c-2.945-0.1-5.715,0.677-8.451,1.703
			c-2.126,0.797-4.24,1.539-6.416,2.185c-1.836,0.545-3.706,1.08-5.377,2.042c-3.025,1.742-5.091,5.9-9.071,4.904
			c-3.69-0.924-6.782-3.61-10.268-5.069c-2.741-1.147-5.666-1.672-8.634-1.402c-7.178,0.653-14.427,4.357-20.229,8.451
			c-3.353,2.366-5.75,5.219-8.052,8.582c-2.452,3.584-5.639,6.558-8.661,9.652c-5.021,5.14-9.327,10.754-10.335,18.058
			c-0.519,3.765-0.124,7.531,0.529,11.253c0.2,1.139,0.404,2.278,0.599,3.418c0.086,0.505,0.27,1.032,0.095,1.482
			c-0.128,0.329-0.543,0.696-0.776,0.963c-1.178,1.348-2.624,2.464-4.073,3.506c-2.989,2.149-6.279,4.112-9.772,5.318
			c-1.616,0.558-3.398,0.835-4.889,1.705c-1.532,0.895-2.728,2.302-4.044,3.469c-2.825,2.504-6.2,4.035-9.652,5.471
			c-3.699,1.538-7.779,2.862-10.993,5.33c-1.463,1.123-2.726,2.493-4.28,3.5c-1.301,0.843-2.742,1.394-4.225,1.821
			c-3.795,1.09-7.785,1.528-11.702,1.923c-9.666,0.975-19.367,1.659-29.047,2.477c-7.75,0.655-15.525,1.511-23.314,1.333
			c-8.7-0.199-17.27-1.681-25.845-3.028c-8.387-1.318-16.768-2.635-25.252-3.146c-8.775-0.528-17.496-0.076-26.261,0.375
			c-8.535,0.439-17.124,1.082-25.666,0.424c-8.143-0.627-16.217-2.851-24.424-2.443c-8.551,0.425-16.622,4.123-24.5,7.152
			c-3.811,1.465-7.616,2.915-11.547,4.032c-3.839,1.091-7.742,1.899-11.646,2.713c-7.615,1.588-16.082,2.718-22.304,7.79
			c-2.876,2.345-5.195,5.31-7.373,8.292c-2.695,3.689-5.415,7.367-7.992,11.14c-4.716,6.906-9.008,14.138-12.053,21.949
			c-3.033,7.778-4.482,15.932-5.061,24.238c-0.61,8.75-0.282,17.52-0.595,26.279c-0.31,8.678-2.304,16.902-4.372,25.294
			c-2.027,8.227-3.287,16.624-4.973,24.922c-1.608,7.915-3.329,16.055-7.06,23.285c-3.696,7.163-9.548,12.828-13.681,19.707
			c-3.936,6.551-5.839,13.456-5.429,21.115c0.443,8.276,2.05,16.633,3.794,24.722c0.452,2.097,0.934,4.192,1.536,6.252
			c0.286,0.978,0.885,4.152,2.073,4.452c1.592,0.402,2.503-8.689,2.656-9.601c0.166-0.992,0.334-1.988,0.563-2.969
			c0.113-0.485,0.231-1.501,0.624-1.849c0.972-0.861,1.841,2.97,2.026,3.608c0.558,1.926,1.046,3.878,1.698,5.776
			c0.264,0.77,1.046,3.577,2.198,2.502c1.03-0.961,1.368-3.11,1.753-4.404c0.622-2.089,1.186-4.215,1.976-6.249
			c0.39-1.005,1.122-3.257,2.544-3.014c1.4,0.239,2.385,2.126,3.455,2.916c2.803,2.07,4.42-4.234,5.066-5.984
			c0.561-1.52,2.484-9.237,5.17-7.007c1.336,1.109,1.99,2.874,3.336,3.97c1.314,1.07,2.347-0.023,3.091-1.206
			c1.99-3.166,3.06-7.05,4.393-10.507c-0.456,2.97-0.889,5.952-1.06,8.954c-0.07,1.221-0.625,6.103,1.576,5.582
			c1.323-0.313,1.961-0.667,2.279,0.997c0.24,1.26,0.177,2.594,0.125,3.87c-0.119,2.944-0.465,5.874-0.771,8.803
			c-0.68,6.495-1.526,13.006-1.5,19.548c0.023,5.855,0.801,11.674,3.314,17.015c1.31,2.785,2.834,5.482,4.228,8.227
			c1.242,2.445,2.668,4.562,5.303,5.604c2.232,0.883,4.711,1.145,7.08,1.372c2.994,0.286,6.005,0.41,9.011,0.421
			c5.51,0.02,11.602-0.029,16.829-1.996c3.115-1.172,4.628-3.41,4.459-6.723c-0.123-2.403-0.388-5.151-1.462-7.338
			c-2.371-4.828-9.575-5.003-14.115-5.85c-2.727-0.509-4.674-1.765-5.698-4.422c-0.886-2.302-1.257-4.806-1.525-7.246
			c-0.68-6.175-0.547-12.464,0.078-18.637c0.632-6.247,1.706-12.501,3.176-18.605c1.427-5.922,3.344-11.84,6.5-17.086
			c2.789-4.635,6.563-8.596,10.558-12.206c5.159-4.662,10.318-9.315,15.439-14.019c4.532-4.163,9.103-8.279,13.32-12.769
			c3.934-4.189,7.474-8.678,10.481-13.58c1.713-2.792,3.311-5.652,4.997-8.46c1.416-2.357,2.968-4.872,5.135-6.617
			c2.397-1.929,5.491-2.101,8.243-3.249c2.477-1.033,4.48-2.916,6.546-4.575c1.717-1.379,3.558-2.752,5.682-3.428
			c2.273-0.724,4.695-0.441,6.906,0.365c5.589,2.038,9.603,6.764,12.843,11.545c1.55,2.287,2.967,4.858,4.951,6.812
			c1.933,1.904,3.566,1.41,5.478-0.242c1.52-1.313,3.229-3.353,5.4-2.207c1.409,0.744,2.495,2.124,3.525,3.308
			c1.154,1.327,2.277,2.68,3.458,3.983c3.996,4.411,8.688,8.722,13.904,11.651c1.645,0.924,4.91,2.539,4.892-0.593
			c-0.007-1.182-0.402-2.32-0.456-3.492c-0.076-1.669,1.399,0.289,1.854,0.828c3.915,4.629,7.579,9.336,12.132,13.378
			c2.272,2.017,4.665,3.917,7.19,5.608c1.158,0.775,2.346,1.52,3.595,2.14c0.71,0.353,2.13,1.172,2.962,0.848
			c0.989-0.384,0.345-1.971,0.141-2.698c-0.347-1.24-0.755-2.468-0.922-3.75c-0.182-1.397-0.088-5.448,2.06-3.323
			c1.892,1.871,3.114,4.6,4.34,6.929c1.341,2.547,2.634,5.115,4.285,7.48c3.358,4.809,7.611,9.417,12.218,13.057
			c1.048,0.828,4.615,3.787,5.364,1.274c0.376-1.259,0.079-2.847-0.027-4.124c-0.084-1.017-0.506-2.872,0.059-3.803
			c0.998-1.645,4.667,1.979,5.497,2.672c2.101,1.755,4.156,3.667,6.564,5.003c1.235,0.685,2.551,1.183,3.917,1.539
			c0.909,0.237,3.635,0.399,3.874,1.125c0.187,0.568-0.126,1.724-0.165,2.364c-0.053,0.854-0.099,1.708-0.138,2.563
			c-0.068,1.514-0.109,3.03-0.122,4.546c-0.027,3.156,0.034,6.314,0.255,9.462c0.102,1.452,0.237,2.908,0.47,4.346
			c0.12,0.738,0.255,2.645,0.961,3.091c1.224,0.773,3.44-5.612,3.733-6.265c1.126-2.505,2.391-5.001,3.94-7.274
			c0.338-0.496,1.58-2.601,2.392-2.049c0.606,0.411,0.366,2.184,0.344,2.829c-0.109,3.149-0.508,6.29-0.748,9.43
			c-0.234,3.064-0.334,6.143-0.31,9.216c0.011,1.439,0.047,2.878,0.149,4.313c0.068,0.955,0.013,2.622,0.537,3.482
			c0.668,1.097,1.316-0.734,1.626-1.357c0.647-1.3,1.269-2.61,1.988-3.872c1.491-2.621,3.362-4.986,5.465-7.143
			c1.897-1.946,3.991-3.882,6.374-5.222c0.658-0.37,1.901-1.134,2.656-0.647c0.818,0.527,0.431,2.089,0.294,2.862
			c-0.543,3.058-1.542,6.034-2.27,9.051c-0.687,2.845-1.208,5.722-1.535,8.631c-0.324,2.882-0.536,5.832-0.297,8.729
			c0.079,0.951,0.134,2.227,0.677,3.055c0.748,1.14,1.675,0.051,2.261-0.676c0.99-1.227,1.766-2.613,2.705-3.878
			c0.536-0.722,1.531-2.147,2.143-0.768c0.488,1.102,0.412,2.615,0.455,3.791c0.06,1.658,0.046,3.319,0.055,4.977
			c0.017,2.94-0.074,5.942,0.37,8.857c0.244,1.601,1.475,5.359,3.099,2.498c1.322-2.328,2.034-4.866,3.942-6.84
			c1.244-1.287,3.413-2.805,5.009-1.195c1.468,1.48,1.929,4.049,2.353,5.997c0.653,3.005,1.004,6.063,1.576,9.082
			c0.777,4.095,2.226,9.085,5.764,11.682c4.016,2.948,10.111,2.931,14.844,3.249c6.333,0.425,12.697,0.59,19.043,0.473
			c3.127-0.058,6.261-0.175,9.373-0.499c2.203-0.23,4.585-0.482,6.597-1.484c4.758-2.369,2.793-8.854,0.662-12.427
			c-2.112-3.541-5.545-5.858-9.511-6.857c-4.887-1.231-9.855-0.014-14.777-0.685c-4.931-0.672-8.008-4.615-10.355-8.688
			c-2.891-5.015-5.189-10.486-6.377-16.164c-1.269-6.067-0.639-12.13-0.337-18.259c0.292-5.934-0.863-11.739-1.344-17.631
			c-0.488-5.988-0.284-12,0.151-17.985c0.466-6.42,1.155-12.83,2.038-19.206c0.459-3.316,0.946-6.629,1.521-9.927
			c0.251-1.44,0.331-3.288,0.886-4.643c0.422-1.029,2.396-1.786,3.377-2.467c2.38-1.65,4.217-3.655,6.124-5.809
			c0.152-0.171,0.892-1.186,1.192-1.055c0.318,0.139-0.014,1.14-0.066,1.394c-0.241,1.174-0.638,2.42-0.596,3.633
			c0.113,3.203,4.462-0.483,5.365-1.327c1.882-1.762,3.41-3.848,4.897-5.943c0.929-1.309,1.823-2.652,2.813-3.915
			c0.559-0.713,1.843-2.544,2.47-1.009c0.343,0.84,0.14,3.21,1.051,3.65c0.842,0.407,1.903-1.287,2.316-1.837
			c1.852-2.468,3.367-5.174,5.2-7.658c0.873-1.183,3.117-4.621,4.937-3.43c1.741,1.14,2.076,4.824,2.486,6.631
			c0.2,0.884,1.073,7.068,2.839,5.327c0.794-0.783,1.242-2.101,1.643-3.125c0.519-1.326,0.956-2.685,1.363-4.049
			c0.972-3.257,1.72-6.573,2.504-9.879c0.61-2.573,1.14-5.221,2.117-7.686c0.291-0.734,0.756-2.074,1.625-2.298
			c1.035-0.266,1.835,1.154,2.235,1.87c2.8,5.016,2.531,10.912,3.329,16.41c0.061,0.423,0.046,1.142,0.506,0.808
			c0.314-0.229,0.448-1.292,0.548-1.667c0.469-1.748,0.882-3.51,1.338-5.261c0.327-1.256,0.672-2.511,1.093-3.739
			c0.298-0.871,0.634-2.157,1.344-2.802c1.457-1.323,3.284,3.466,4.324,4.21c2.091,1.494,4.025-1.729,4.796-3.283
			c2.467-4.97,2.46-10.794,3.175-16.178c0.142-1.072,0.27-2.234,0.686-3.243c0.507-1.229,1.214-1.227,2.255-0.58
			c0.864,0.538,2.05,1.699,3.099,0.932c0.9-0.659,1.272-2.193,1.622-3.207c0.452-1.307,0.803-3.102,1.708-4.196
			c0.855-1.034,1.752-0.222,2.535,0.488c0.741,0.673,1.871,2.176,2.821,1.03c0.693-0.836,0.872-2.305,1.066-3.351
			c0.567-3.06,0.779-6.174,1.303-9.241c0.492-2.877,1.414-5.734,1.478-8.668c0.116-5.289-2.161-10.34-2.046-15.664
			c0.08-3.706,1.175-7.465,3.824-10.168c0.516-0.526,1.482-1.535,2.317-1.39c0.985,0.17,0.908,1.749,0.931,2.504
			c0.016,0.53-0.307,3.078,0.292,3.451c0.706,0.439,1.872-1.67,2.167-2.134c0.792-1.246,1.55-2.569,2.132-3.928
			c0.488-1.139,0.414-2.612,0.412-3.844c-0.004-2.293-0.407-4.512-1.031-6.714c-0.645-2.275-1.539-4.52-1.803-6.885
			c-0.235-2.101-0.063-4.338,0.443-6.389c0.18-0.727,0.503-2.327,1.477-1.71c0.681,0.432,1.332,2.429,2.029,0.931
			c0.732-1.573,0.454-3.913,0.143-5.583c-0.901-4.841-5.546-7.727-6.569-12.46c-0.376-1.741-0.267-4.533,2.2-3.428
			c2.12,0.949,3.629,2.95,5.162,4.603c0.738,0.796,1.698,1.715,1.754,0.068c0.038-1.122-0.206-2.285-0.422-3.38
			c-0.517-2.616-1.266-5.204-2.331-7.651c9.426,0.506,19.82,0.924,28.354-3.785c4.052-2.236,7.519-5.473,10.502-8.982
			c0.701-0.824,1.375-1.67,2.019-2.538c0.566-0.763,1.086-1.826,1.816-2.393c0.958-0.744,1.883-1.229,2.639-2.218
			c0.594-0.776,1.066-1.644,1.439-2.546C638.545,284.964,638.858,279.37,635.246,276.703z"/>
	</g>
</g>
</svg>
