<?xml version="1.0" encoding="utf-8"?>
<!-- Generator: Adobe Illustrator 25.3.1, SVG Export Plug-In . SVG Version: 6.00 Build 0)  -->
<!DOCTYPE svg PUBLIC "-//W3C//DTD SVG 1.1//EN" "http://www.w3.org/Graphics/SVG/1.1/DTD/svg11.dtd" [
	<!ENTITY ns_flows "http://ns.adobe.com/Flows/1.0/">
	<!ENTITY ns_extend "http://ns.adobe.com/Extensibility/1.0/">
	<!ENTITY ns_ai "http://ns.adobe.com/AdobeIllustrator/10.0/">
	<!ENTITY ns_graphs "http://ns.adobe.com/Graphs/1.0/">
	<!ENTITY ns_vars "http://ns.adobe.com/Variables/1.0/">
	<!ENTITY ns_imrep "http://ns.adobe.com/ImageReplacement/1.0/">
	<!ENTITY ns_sfw "http://ns.adobe.com/SaveForWeb/1.0/">
	<!ENTITY ns_custom "http://ns.adobe.com/GenericCustomNamespace/1.0/">
	<!ENTITY ns_adobe_xpath "http://ns.adobe.com/XPath/1.0/">
]>
<svg version="1.1" xmlns:x="&ns_extend;" xmlns:i="&ns_ai;" xmlns:graph="&ns_graphs;"
	 xmlns="http://www.w3.org/2000/svg" xmlns:xlink="http://www.w3.org/1999/xlink" xmlns:a="http://ns.adobe.com/AdobeSVGViewerExtensions/3.0/"
	 x="0px" y="0px" width="750px" height="750px" viewBox="0 0 750 750" enable-background="new 0 0 750 750" xml:space="preserve">
<metadata>
	<sfw  xmlns="&ns_sfw;">
		<slices></slices>
		<sliceSourceBounds  bottomLeftOrigin="true" height="14742" width="12680.835" x="-6277.062" y="-6776"></sliceSourceBounds>
	</sfw>
</metadata>
<g id="FILL-BACKGROUND">
	<rect fill="#FFFFFF" width="750" height="750"/>
</g>
<g id="N-DIMENSIONS">
</g>
<g id="N-TEXT">
</g>
<g id="AG-DIAGRAM">
	<g>
		<g>
			
				<line fill="none" stroke="#FB8604" stroke-width="3.25" stroke-linecap="round" stroke-linejoin="round" x1="130.214" y1="595.984" x2="132.214" y2="595.984"/>
			
				<line fill="none" stroke="#FB8604" stroke-width="3.25" stroke-linecap="round" stroke-linejoin="round" stroke-dasharray="3.9517,6.9155" x1="139.13" y1="595.984" x2="537.756" y2="595.984"/>
			
				<line fill="none" stroke="#FB8604" stroke-width="3.25" stroke-linecap="round" stroke-linejoin="round" x1="541.214" y1="595.984" x2="543.214" y2="595.984"/>
		</g>
	</g>
</g>
<g id="AG-DETAIL">
</g>
<g id="AG-HUMANS">
</g>
<g id="AG-PEOPLE">
</g>
<g id="AG-DETAILS">
</g>
<g id="AG-ANIMALS">
	<g id="POLYLINE_1173_">
		
			<path fill="none" stroke="#FB8604" stroke-width="2.75" stroke-linecap="round" stroke-linejoin="round" stroke-miterlimit="10" d="
			M265.367,355.559c3.987,7.437,7.461,15.118,10.618,22.941c3.302,8.182,6.648,16.392,8.768,24.977c2,8.1,2.692,16.424,2.079,24.745
			c-0.609,8.268-2.365,16.545-5.619,24.187c-3.475,8.161-8.746,15.342-14.638,21.917c-5.798,6.47-12.068,12.565-19.063,17.738
			c-6.955,5.143-14.623,8.807-22.316,12.684c-3.456,1.742-7.024,3.556-9.961,6.112c-2.065,1.797-3.683,3.983-5.041,6.349
			c-2.188,3.813-4.156,7.796-6.081,11.746c-1.695,3.477-3.302,7.044-4.034,10.865c-1.407,7.353,1.615,14.766,4.743,21.291
			c2.468,5.148,5.873,10.753,11.466,12.936c4.007,1.564,8.447,0.092,12.417,1.938c1.663,0.774,3.16,1.843,4.667,2.877
			c1.589,1.091,3.254,2.13,4.715,3.395c2.343,2.029,4.323,5.781,2.744,8.845c-1.456,2.824-5.866,3.492-8.666,3.934
			c-4.091,0.646-8.282,0.782-12.415,0.622c-4.065-0.157-8.161-0.588-12.111-1.588c-2.287-0.579-4.623-1.351-6.528-2.787
			c-2.044-1.541-3.21-3.792-4.374-6.014c-1.885-3.597-3.927-7.084-5.999-10.576c-5.126-8.639-10.137-17.32-15.09-26.059
			c-3.898-6.878-8.205-13.822-10.681-21.371c-0.787-2.401-1.395-5.017-0.719-7.52c0.642-2.377,2.294-4.364,3.874-6.182
			c5.588-6.431,12.55-11.762,17.143-19.014c2.283-3.604,4.648-7.139,7.038-10.674"/>
	</g>
	<g id="POLYLINE_1165_">
		
			<path fill="none" stroke="#FB8604" stroke-width="2.75" stroke-linecap="round" stroke-linejoin="round" stroke-miterlimit="10" d="
			M203.737,482.24c-4.601,2.163-10.026,3.263-14.389,0.06c-3.078-2.26-5.27-5.592-7.349-8.73c-2.643-3.99-5-8.158-7.021-12.497
			c-3.968-8.516-7.051-17.686-8.209-27.038c-0.544-4.392-0.623-8.872,0.104-13.248c0.782-4.703,2.556-9.156,4.191-13.609
			c3.284-8.944,5.529-18.281,6.188-27.813c0.081-1.169,0.109-2.339,0.144-3.51"/>
	</g>
	<g id="POLYLINE_1164_">
		
			<path fill="none" stroke="#FB8604" stroke-width="2.75" stroke-linecap="round" stroke-linejoin="round" stroke-miterlimit="10" d="
			M655.216,333.763c-2.678-2.948-11.289-4.906-10.77,1.239c0.166,1.961,0.644,3.981,1.168,5.872c0.248,0.896,0.549,1.815,1.07,2.594
			c2.772,4.145,8.188,0.532,9.457-2.978C656.921,338.333,656.8,335.533,655.216,333.763z"/>
	</g>
	<g id="POLYLINE_1163_">
		
			<path fill="none" stroke="#FB8604" stroke-width="2.75" stroke-linecap="round" stroke-linejoin="round" stroke-miterlimit="10" d="
			M183.477,475.756c-1.414,3.173-3.281,6.452-5.967,8.728c-1.978,1.676-4.445,2.581-5.734,4.959
			c-1.291,2.382-1.733,5.296-3.745,7.243c-1.155,1.117-2.659,1.756-3.866,2.8c-1.081,0.935-1.643,2.191-2.241,3.457
			c-1.239,2.622-2.717,4.647-5.049,6.387c-3.153,2.353-5.982,4.569-8.239,7.825c-1.252,1.806-2.3,3.758-3.599,5.529
			c-0.319,0.435-0.764,1.246-1.279,0.823c-0.501-0.412,0.018-1.707-0.9-1.778c-1.024-0.08-2.691,2.396-3.198,3.023
			c-1.307,1.616-2.518,3.343-3.997,4.812c-1.193,1.186-2.576,2.211-4.012,3.08c-1.389,0.841-2.527,1.127-4.132,1.166
			c-1.717,0.042-3.416,0.906-4.822,1.838c-1.399,0.927-2.566,2.084-3.253,3.635c-0.661,1.493-0.939,3.127-2.033,4.399
			c-1.073,1.247-2.556,2.077-3.865,3.038c-1.121,0.822-1.98,1.831-2.951,2.819c-0.95,0.968-2.082,1.675-3.18,2.463
			c-3.254,2.334-5.431,5.775-7.886,8.871c-0.509,0.642-2.644,3.85-3.691,3.642c-0.96-0.19-0.219-3.206-0.124-3.747
			c0.775-4.401,1.91-8.814,2.164-13.292c0.052-0.923,0.309-3.675-1.24-2.956c-0.808,0.375-1.501,1.324-2.118,1.935
			c-0.516,0.51-1.208,1.241-1.055,0.046c0.255-1.997,1.331-4.129,1.99-6.003c0.777-2.209,1.559-4.415,2.239-6.656
			c1.275-4.201,2.022-8.459,2.432-12.828c0.309-3.3,0.341-6.928,1.784-9.986c1.347-2.854,3.905-4.849,5.961-7.162
			c2.731-3.073,4.733-6.718,7.747-9.551c3.136-2.949,6.979-5.037,10.052-8.063c2.06-2.029,3.432-4.349,4.323-7.096
			c1.27-3.914,1.565-8.177,3.341-11.922c1.439-3.032,4.018-5.345,5.447-8.377c1.019-2.162,1.168-4.514,1.119-6.876
			c-0.086-4.16-0.783-8.369-0.119-12.515c0.614-3.831,2.691-7.104,4.526-10.447c1.085-1.978,2.012-3.999,2.034-6.289
			c0.026-2.755-0.976-5.438-0.611-8.2c0.457-3.458,2.069-6.661,2.583-10.125c1.268-8.546-1.083-17.479,1.537-25.849
			c1.414-4.514,4.087-8.525,6.127-12.764c1.932-4.014,3.205-8.271,4.878-12.39c2.761-6.794,7.419-12.271,13.321-16.582
			c7.609-5.558,16.535-7.629,25.202-10.907c8.842-3.344,16.528-8.889,24.873-13.226c8.313-4.32,17.325-6.985,26.513-8.677
			c9.365-1.724,18.891-2.618,28.398-3.078c10.001-0.484,20.008-0.651,30.02-0.633c9.656,0.018,19.32,0.193,28.968,0.599
			c9.936,0.419,19.777,1.346,29.674,2.273c3.91,0.366,7.906,0.611,11.794-0.089c4.36-0.785,8.468-2.57,12.829-3.359
			c9.282-1.679,19.153,0.225,28.449,0.885c8.791,0.624,17.975,0.92,26.577-1.316c8.681-2.257,15.84-7.974,24.269-10.868
			c4.221-1.449,8.588-2.483,12.717-4.193c4.194-1.737,7.835-4.422,11.745-6.68c2.787-1.609,5.666-2.717,8.873-3.092
			c4.458-0.521,9.019-0.144,13.492-0.104c4.671,0.042,9.364-0.03,14.012-0.531c3.819-0.412,7.821-1.044,11.256-2.855
			c2.689-1.418,4.784-3.57,6.589-5.982c3.105-4.147,5.835-8.594,8.735-12.885c5.105-7.554,11.267-14.07,17.715-20.475
			c1.616-1.605,5.684-7.171,7.94-3.684c1.829,2.827,2.179,6.823,2.44,10.073c0.645,8.043-2.24,16.489,0.414,24.301
			c2.859,8.414,9.792,13.578,15.799,19.64c3.096,3.124,5.519,6.781,7.865,10.48c2.218,3.498,4.14,6.976,5.586,10.863
			c1.069,2.875,2.186,5.778,4.422,7.96c2.722,2.655,6.363,4.224,9.714,5.905c3.931,1.972,7.788,4.072,11.467,6.488
			c3.554,2.334,6.517,5.093,9.548,8.058"/>
	</g>
	<g id="POLYLINE_1107_">
		
			<path fill="none" stroke="#FB8604" stroke-width="2.75" stroke-linecap="round" stroke-linejoin="round" stroke-miterlimit="10" d="
			M650.541,345.231c-1.569,1.513-3.036,2.831-5.064,3.682c-2.599,1.09-5.431,1.683-8.213,2.068
			c-6.353,0.879-12.667,0.367-18.517-2.376c-6.061-2.841-11.303-7.153-17.127-10.421c-3.486-1.956-7.808-4.221-11.971-3.72
			c-4.031,0.486-6.125,4.753-5.026,8.452c0.675,2.272,2.42,4.122,4.109,5.706c2.841,2.664,5.931,5.085,8.903,7.598
			c2.282,1.929,4.584,3.831,7.105,5.445c2.86,1.83,5.925,3.312,8.818,5.087c3.165,1.941,9.391,7.122,3.707,10.208
			c-2.412,1.31-5.338,1.043-7.887,0.34c-5.831-1.607-10.795-5.381-15.492-9.038c-4.677-3.641-9.651-8.447-15.53-10.014
			c-1.501-0.4-3.389-0.675-4.794,0.148c-1.92,1.124-1.739,4.141-1.998,6.012c-0.485,3.507-2.35,6.313-5.093,8.508
			c-4.11,3.29-9.471,4.254-13.704,7.297c-4.376,3.146-5.861,9.023-8.197,13.598c-3.013,5.902-6.97,11.358-11.261,16.391
			c-4.314,5.061-9.167,10.04-14.953,13.412c-5.518,3.215-11.879,4.665-16.957,8.663c-5.16,4.062-9.22,9.333-14.316,13.471
			c-1.971,1.6-4.083,2.939-6.474,3.811c-2.545,0.928-5.292,1.294-7.771,2.401c-4.143,1.849-5.373,6.355-6.234,10.442
			c-1.557,7.392-2.624,14.921-3.854,22.373c-1.059,6.415-1.607,12.809-1.279,19.308c0.349,6.919,1.375,13.816,1.178,20.757
			c-0.191,6.73-1.718,13.549-0.779,20.276c0.885,6.348,4.293,11.926,6.946,17.642c2.113,4.553,4.03,10.618,9.933,10.845
			c2.854,0.11,5.696-0.41,8.555-0.215c2.332,0.159,4.537,0.809,6.633,1.839c4.033,1.982,8.453,5.347,10.424,9.514
			c0.757,1.6,0.865,3.331,1.205,5.045c0.201,1.014,0.646,2.289,0.273,3.317c-0.361,0.996-1.427,1.437-2.368,1.722
			c-2.684,0.813-5.655,0.83-8.433,0.96c-3.443,0.162-6.893,0.219-10.34,0.194c-3.52-0.026-7.042-0.136-10.553-0.399
			c-3.035-0.227-6.202-0.488-9.122-1.402c-3.769-1.181-5.18-4.198-6.611-7.666c-2.521-6.112-5.594-11.642-9.383-17.065
			c-3.773-5.401-8.444-10.747-10.833-16.974c-2.134-5.56-1.171-11.579-2.094-17.354c-1.061-6.64-4.671-12.539-6.98-18.773
			c-2.517-6.799-2.773-13.93-3.261-21.085c-0.477-6.995-1.967-13.787-3.204-20.671c-0.612-3.406-0.817-6.741-0.901-10.195
			c-0.065-2.704-0.517-5.255-1.431-7.802c-2.12-5.908-5.393-11.489-9.176-16.476"/>
	</g>
	<g id="POLYLINE_1106_">
		
			<path fill="none" stroke="#FB8604" stroke-width="2.75" stroke-linecap="round" stroke-linejoin="round" stroke-miterlimit="10" d="
			M475.968,595.704c-5.262,0.232-10.556-0.352-15.829-0.273c-5.488,0.082-11.194,0.674-16.645-0.182
			c-3.657-0.574-6.302-2.4-7.662-5.965c-0.874-2.292-1.278-4.728-1.937-7.084c-0.6-2.144-1.515-3.972-2.632-5.887
			c-1.799-3.087-2.364-5.949-2.607-9.517c-0.347-5.082-0.724-9.859-2.913-14.528c-2.1-4.481-5.506-8.529-6.546-13.447
			c-1.006-4.753-0.41-9.944-0.042-14.741c0.893-11.628,2.636-23.747,1.197-35.396c-0.924-7.484-4.029-14.528-11.551-17.216
			c-5.067-1.811-10.593-2.064-15.839-3.112c-5.408-1.08-10.802-2.743-15.714-5.278c-2.05-1.058-4.031-2.279-5.772-3.8
			c-1.886-1.648-3.433-3.639-5.294-5.311c-2.662-2.391-5.856-3.432-9.342-4.021c-5.491-0.928-11.099-1.001-16.636-1.499
			c-5.378-0.484-10.599-1.531-15.78-3.046c-5.42-1.585-10.741-3.486-16.294-4.577c-4.674-0.918-9.122-1.05-13.844-0.563
			c-3.147,0.325-6.295,0.649-9.442,0.974"/>
	</g>
	<g id="POLYLINE_1105_">
		
			<path fill="none" stroke="#FB8604" stroke-width="2.75" stroke-linecap="round" stroke-linejoin="round" stroke-miterlimit="10" d="
			M586.72,251.729c2.943-3.539,6.273-6.942,9.679-10.036c1.453-1.319,4.872-4.247,6.886-2.37c0.927,0.864,0.695,2.465,0.511,3.593
			c-0.342,2.095-1.058,4.138-1.766,6.132c-1.608,4.525-3.52,9.001-4.46,13.73c-0.886,4.457-0.734,9-0.19,13.488"/>
	</g>
	<g id="POLYLINE_1104_">
		
			<path fill="none" stroke="#FB8604" stroke-width="2.75" stroke-linecap="round" stroke-linejoin="round" stroke-miterlimit="10" d="
			M606.526,341.161c3.616,4.612,7.08,9.287,10.294,14.19c2.714,4.142,5.506,8.339,7.071,13.076c1.43,4.328,2.373,9.511,1.707,14.072
			c-0.109,0.745-0.294,2.174-1.245,2.304c-0.823,0.113-1.64-0.863-2.063-1.438c-1.045-1.417-1.438-3.223-1.531-4.953
			c-0.118-2.213,0.35-4.245-0.856-6.258c-0.877-1.463-2.203-2.719-3.673-3.575"/>
	</g>
	<g id="POLYLINE_1015_">
		
			<path fill="none" stroke="#FB8604" stroke-width="2.75" stroke-linecap="round" stroke-linejoin="round" stroke-miterlimit="10" d="
			M211.965,594.936c-7.782,1.332-16.236,1.12-23.946-0.582c-4.731-1.045-8.531-2.732-10.992-7.023
			c-1.76-3.067-3.313-6.243-5.119-9.287c-2.823-4.757-5.646-9.514-8.469-14.271c-4.044-6.814-7.908-13.758-11.752-20.687
			c-2.061-3.715-4.083-7.468-5.794-11.36c-1.205-2.74-2.429-5.663-2.709-8.672c-0.039-0.422-0.057-0.845-0.047-1.269"/>
	</g>
</g>
<g id="AG-OUTLINE">
	<g id="POLYLINE_959_">
		
			<path fill="none" stroke="#FB8604" stroke-width="3.5" stroke-linecap="round" stroke-linejoin="round" stroke-miterlimit="10" d="
			M597.381,276.265c-0.484-3.999-0.666-8.037-0.064-12.035c0.707-4.694,2.508-9.144,4.128-13.578
			c0.817-2.236,1.66-4.485,2.172-6.814c0.243-1.105,0.527-2.435,0.21-3.549c-0.874-3.07-4.809-0.758-6.334,0.464
			c-1.933,1.548-3.61,3.412-5.344,5.172c-1.86,1.889-3.732,3.764-5.429,5.804c0.623-7.328,1.779-15.846-1.387-22.809
			c-0.578-1.27-1.49-2.667-3.052-2.066c-1.227,0.472-2.232,1.625-3.143,2.527c-3.418,3.383-6.873,6.739-10.132,10.277
			c-6.448,7.001-11.537,14.96-16.83,22.835c-1.639,2.438-3.383,4.873-5.687,6.731c-2.547,2.054-5.614,3.147-8.787,3.814
			c-8.662,1.822-17.698,1.309-26.485,1.194c-3.233-0.042-6.533,0.012-9.662,0.918c-3.687,1.067-6.902,3.333-10.119,5.345
			c-3.335,2.085-6.753,3.784-10.487,5.03c-3.99,1.331-8.086,2.352-11.989,3.935c-7.904,3.206-14.734,8.409-23.204,10.239
			c-8.45,1.825-17.261,1.449-25.824,0.84c-8.804-0.625-18.049-2.345-26.857-0.923c-4.213,0.68-8.17,2.327-12.325,3.239
			c-3.635,0.797-7.338,0.753-11.031,0.473c-9.051-0.684-18.035-1.784-27.11-2.217c-9.232-0.441-18.473-0.712-27.716-0.774
			c-9.454-0.064-18.908-0.038-28.358,0.281c-9.224,0.312-18.454,0.875-27.606,2.101c-8.823,1.182-17.637,2.946-25.988,6.091
			c-8.601,3.238-16.154,8.321-24.167,12.719c-3.784,2.077-7.688,3.811-11.76,5.244c-4.22,1.486-8.536,2.714-12.684,4.399
			c-7.021,2.853-13.556,7.406-18.333,13.328c-4.806,5.957-6.356,13.309-9.478,20.135c-1.888,4.129-4.416,7.975-6.066,12.209
			c-1.381,3.542-1.804,7.24-1.853,11.02c-0.058,4.494,0.256,8.996,0.008,13.488c-0.214,3.881-1.399,7.306-2.417,11.02
			c-0.714,2.604-0.487,4.836-0.101,7.49c0.288,1.982,0.397,3.913-0.247,5.836c-1.149,3.43-3.483,6.345-4.871,9.678
			c-1.306,3.136-1.556,6.399-1.428,9.767c0.137,3.605,0.757,7.353,0.12,10.941c-0.372,2.097-1.398,3.913-2.633,5.625
			c-1.989,2.758-3.824,5.179-4.781,8.481c-1.122,3.869-1.533,7.989-3.319,11.644c-3.035,6.211-10.02,8.832-14.537,13.717
			c-2.737,2.96-4.739,6.501-7.543,9.407c-1.899,1.968-4.008,3.865-5.103,6.431c-1.312,3.076-1.334,6.64-1.649,9.913
			c-0.402,4.179-1.118,8.262-2.328,12.285c-1.24,4.12-2.988,8.092-4.133,12.235c-0.136,0.492-0.547,1.448,0.146,1.311
			c0.625-0.123,1.427-1.399,1.875-1.819c0.379-0.355,1.136-1.202,1.735-0.916c0.573,0.274,0.51,1.508,0.517,2.012
			c0.054,3.922-0.98,7.929-1.705,11.758c-0.309,1.635-0.738,3.318-0.807,4.988c-0.017,0.409-0.116,1.208,0.375,1.358
			c0.588,0.18,1.511-1.017,1.853-1.382c2.765-2.955,4.803-6.54,7.691-9.385c1.175-1.158,2.556-2.01,3.875-2.99
			c0.981-0.729,1.744-1.614,2.59-2.493c1.867-1.941,4.697-2.968,6.156-5.287c1.209-1.922,1.324-4.192,2.964-5.873
			c1.092-1.119,2.482-1.986,3.911-2.608c2.127-0.926,4.343-0.431,6.403-1.594c3.009-1.698,5.145-3.99,7.262-6.657
			c1.031-1.298,2.028-2.717,3.277-3.822c0.487-0.43,1.087-1.013,1.381-0.347c0.151,0.342,0.049,1.027,0.099,1.412
			c0.456,3.556,2.044,7.005,3.562,10.214c1.663,3.515,3.509,6.95,5.426,10.332c4.836,8.532,9.638,17.078,14.643,25.512
			c2.481,4.181,5.046,8.323,7.389,12.583c1.491,2.712,2.672,5.854,4.859,8.115c1.551,1.604,3.602,2.57,5.698,3.253
			c3.931,1.28,8.127,1.812,12.238,2.07c4.325,0.271,8.703,0.209,13.005-0.344c1.16-0.149,2.091-0.247,3.254-0.094
			c1.117,0.147,2.237,0.263,3.36,0.352c1.947,0.156,3.901,0.233,5.855,0.235c4.163,0.003,8.431-0.239,12.485-1.24
			c3.13-0.773,6.451-2.195,6.315-5.948c-0.132-3.635-2.623-5.974-5.399-7.909c-2.729-1.903-5.534-4.225-8.761-5.239
			c-2.608-0.819-5.36-0.373-8.037-0.656c-1.631-0.173-3.158-0.699-4.575-1.521c-6.282-3.648-9.564-11.023-12.074-17.499
			c-1.41-3.638-2.677-7.473-2.78-11.408c-0.091-3.473,0.796-6.89,2.062-10.1c1.761-4.467,4.108-8.701,6.298-12.965
			c1.485-2.892,2.966-5.833,5.113-8.302c2.288-2.632,5.233-4.523,8.26-6.2c3.932-2.178,8.024-4.058,12.031-6.09
			c7.723-3.916,14.822-8.727,21.308-14.469c6.856-6.07,13.304-12.875,18.699-20.284c5.091-6.991,8.849-14.754,11.001-23.135
			c0.247-0.962,0.068-1.461,1.057-1.587c1.447-0.184,2.906-0.3,4.357-0.449c2.385-0.246,4.769-0.525,7.159-0.73
			c3.774-0.324,7.564,0.137,11.266,0.872c8.561,1.7,16.636,5.215,25.245,6.739c8.519,1.507,17.411,0.764,25.82,2.871
			c2.492,0.624,4.733,1.666,6.671,3.374c2.817,2.483,5.008,5.436,8.194,7.503c7.419,4.813,16.273,6.692,24.874,8.056
			c6.296,0.998,12.96,1.944,17.055,7.364c4.355,5.763,4.666,13.769,4.635,20.697c-0.041,9.21-1.086,18.392-1.717,27.571
			c-0.293,4.255-0.729,8.724-0.04,12.961c0.641,3.938,2.863,7.231,4.795,10.637c1.772,3.124,3.33,6.379,4.009,9.927
			c0.775,4.049,0.52,8.209,1.228,12.261c0.474,2.712,1.859,4.803,3.172,7.19c1.785,3.243,2.139,6.962,3.286,10.433
			c0.918,2.778,2.449,5.142,5.328,6.172c3.317,1.187,7.123,1.054,10.591,1.001c8.624-0.133,17.24-0.268,25.855,0.164
			c4.598,0.231,9.205,0.245,13.807,0.142c3.912-0.088,8.146,0.006,11.959-0.985c1.12-0.291,2.466-0.754,2.813-1.987
			c0.369-1.313-0.303-2.928-0.506-4.218c-0.316-2.009-0.73-3.779-1.882-5.476c-3.509-5.172-9.884-9.434-16.195-9.865
			c-3.26-0.222-6.572,0.592-9.81,0.107c-3.294-0.493-5.082-3.269-6.467-6.02c-2.016-4.002-3.927-8.104-5.823-12.165
			c-1.64-3.512-3.026-7.168-3.437-11.047c-0.469-4.428,0.102-8.902,0.478-13.313c0.35-4.107,0.519-8.175,0.3-12.295
			c-0.468-8.786-1.705-17.448-0.828-26.253c0.92-9.237,2.809-18.436,4.423-27.57c0.553-3.13,1.159-6.452,2.743-9.252
			c1.235-2.183,3.197-3.461,5.564-4.22c3.247-1.041,6.571-1.614,9.532-3.396c3.305-1.99,6.079-4.786,8.784-7.501
			c3.071-3.083,6.071-6.359,9.611-8.922c3.316-2.4,7.129-3.796,10.861-5.397c7.875-3.379,14.079-9.011,19.637-15.432
			c5.762-6.656,10.394-13.895,14.049-21.891c1.274-2.787,2.533-5.766,4.88-7.839c2.588-2.287,6.066-3.42,9.158-4.813
			c4.298-1.935,8.86-5.002,10.218-9.8c0.634-2.24,0.074-5.416,1.614-7.317c1.438-1.776,4.348-1.213,6.236-0.606
			c3.536,1.136,6.648,3.467,9.565,5.694c3.538,2.701,6.949,5.587,10.628,8.097c4.345,2.965,10.325,6.559,15.866,5.483
			c1.597-0.31,3.385-1.117,4.154-2.631c1.268-2.495-1.195-5.08-3.009-6.51c1.305,0.759,2.471,1.827,3.338,3.063
			c1.289,1.837,1.196,3.597,1.173,5.718c-0.016,1.494,0.14,3.018,0.689,4.418c0.47,1.2,2.726,4.615,3.834,2.118
			c0.732-1.65,0.522-3.981,0.419-5.719c-0.162-2.734-0.582-5.476-1.303-8.119c-1.339-4.91-3.993-9.128-6.703-13.379
			c-3.435-5.389-7.212-10.491-11.153-15.516c0.464,0,1.496,0.981,1.875,1.229c0.815,0.535,1.629,1.071,2.446,1.604
			c1.169,0.762,2.338,1.524,3.532,2.246c2.165,1.311,4.415,2.499,6.789,3.386c5.216,1.951,10.841,2.108,16.309,1.322
			c3.978-0.572,8.42-1.471,11.507-4.232c0.485-0.434,0.988-1.211,1.557-1.486c0.393-0.191,1.026-0.147,1.464-0.301
			c1.294-0.454,2.356-1.4,3.133-2.513c0.785-1.125,1.295-2.435,1.424-3.802c0.259-2.746-0.953-5.096-3.401-6.404
			c-1.981-1.058-3.37-2.803-5.032-4.323c-2.001-1.829-4.246-3.378-6.528-4.833c-5.103-3.255-10.619-5.64-15.857-8.633
			c-3.157-1.804-5.691-4.007-7.281-7.315c-1.227-2.554-1.974-5.307-3.194-7.865c-1.118-2.344-2.504-4.547-3.892-6.738
			c-3.033-4.79-6.258-9.111-10.439-12.952C599.749,278.459,598.559,277.369,597.381,276.265z"/>
	</g>
</g>
</svg>
