<?xml version="1.0" encoding="utf-8"?>
<!-- Generator: Adobe Illustrator 25.3.1, SVG Export Plug-In . SVG Version: 6.00 Build 0)  -->
<!DOCTYPE svg PUBLIC "-//W3C//DTD SVG 1.1//EN" "http://www.w3.org/Graphics/SVG/1.1/DTD/svg11.dtd" [
	<!ENTITY ns_flows "http://ns.adobe.com/Flows/1.0/">
	<!ENTITY ns_extend "http://ns.adobe.com/Extensibility/1.0/">
	<!ENTITY ns_ai "http://ns.adobe.com/AdobeIllustrator/10.0/">
	<!ENTITY ns_graphs "http://ns.adobe.com/Graphs/1.0/">
	<!ENTITY ns_vars "http://ns.adobe.com/Variables/1.0/">
	<!ENTITY ns_imrep "http://ns.adobe.com/ImageReplacement/1.0/">
	<!ENTITY ns_sfw "http://ns.adobe.com/SaveForWeb/1.0/">
	<!ENTITY ns_custom "http://ns.adobe.com/GenericCustomNamespace/1.0/">
	<!ENTITY ns_adobe_xpath "http://ns.adobe.com/XPath/1.0/">
]>
<svg version="1.1" xmlns:x="&ns_extend;" xmlns:i="&ns_ai;" xmlns:graph="&ns_graphs;"
	 xmlns="http://www.w3.org/2000/svg" xmlns:xlink="http://www.w3.org/1999/xlink" xmlns:a="http://ns.adobe.com/AdobeSVGViewerExtensions/3.0/"
	 x="0px" y="0px" width="750px" height="750px" viewBox="0 0 750 750" enable-background="new 0 0 750 750" xml:space="preserve">
<metadata>
	<sfw  xmlns="&ns_sfw;">
		<slices></slices>
		<sliceSourceBounds  bottomLeftOrigin="true" height="14742" width="12680.835" x="-6277.062" y="-6776"></sliceSourceBounds>
	</sfw>
</metadata>
<g id="FILL-BACKGROUND">
	<rect fill="#FFFFFF" width="750" height="750"/>
</g>
<g id="N-DIMENSIONS">
</g>
<g id="N-TEXT">
</g>
<g id="AG-DIAGRAM">
	<g>
		<g>
			
				<line fill="none" stroke="#FB8604" stroke-width="3.25" stroke-linecap="round" stroke-linejoin="round" x1="104.032" y1="602.984" x2="106.032" y2="602.984"/>
			
				<line fill="none" stroke="#FB8604" stroke-width="3.25" stroke-linecap="round" stroke-linejoin="round" stroke-dasharray="4.0388,7.0679" x1="113.1" y1="602.984" x2="531.622" y2="602.984"/>
			
				<line fill="none" stroke="#FB8604" stroke-width="3.25" stroke-linecap="round" stroke-linejoin="round" x1="535.156" y1="602.984" x2="537.156" y2="602.984"/>
		</g>
	</g>
</g>
<g id="AG-DETAIL">
</g>
<g id="AG-HUMANS">
</g>
<g id="AG-PEOPLE">
</g>
<g id="AG-DETAILS">
</g>
<g id="AG-ANIMALS">
	<g id="POLYLINE_1123_">
		
			<path fill="none" stroke="#FB8604" stroke-width="2.75" stroke-linecap="round" stroke-linejoin="round" stroke-miterlimit="10" d="
			M140.665,498.698c-0.691-1.426-1.454-3.238-0.86-4.81c0.605-1.6,2.384-2.621,3.782-3.43c5.481-3.171,11.164-5.938,16.48-9.396
			c4.919-3.199,9.37-6.941,13.317-11.286c4.175-4.597,7.913-9.614,11.427-14.727c3.491-5.08,6.722-10.366,9.455-15.894
			c0.296-0.6,0.584-1.203,0.871-1.807"/>
	</g>
	<g id="POLYLINE_1122_">
		
			<path fill="none" stroke="#FB8604" stroke-width="2.75" stroke-linecap="round" stroke-linejoin="round" stroke-miterlimit="10" d="
			M154.562,602.84c0.698,0.024,1.395-0.004,2.091-0.051"/>
	</g>
	<g id="POLYLINE_1121_">
		
			<path fill="none" stroke="#FB8604" stroke-width="2.75" stroke-linecap="round" stroke-linejoin="round" stroke-miterlimit="10" d="
			M170.05,602.606c3.663,0.386,7.615,0.081,11.162-0.902c2.542-0.705,4.698-2.015,3.495-4.941c-1.389-3.379-4.514-6.424-7.925-7.703
			c-2.779-1.041-5.87-0.878-8.615-1.974c-2.753-1.099-4.03-3.603-4.932-6.243c-1.338-3.919-1.768-7.969-2.144-12.075
			c-0.429-4.671-0.726-9.353-1.035-14.033c-0.276-4.181-0.576-8.373-0.722-12.561c-0.133-3.823,0.592-7.666,1.75-11.3
			c0.302-0.948,0.643-1.885,1.036-2.8"/>
	</g>
	<g id="POLYLINE_1120_">
		
			<path fill="none" stroke="#FB8604" stroke-width="2.75" stroke-linecap="round" stroke-linejoin="round" stroke-miterlimit="10" d="
			M437.913,455.63c0.338,6.741,0.652,13.482,0.807,20.23c0.166,7.224,0.173,14.441,0.118,21.667
			c-0.052,6.85-0.339,13.703-0.554,20.549c-0.215,6.84-0.289,13.674-0.424,20.516c-0.103,5.237,0.005,11.196-2.133,16.087
			c-1.387,3.172-3.998,5.508-3.487,9.211c0.156,1.133,0.514,2.254,1.066,3.257c1.087,1.974,2.993,2.512,4.686,3.796
			c1.419,1.076,2.122,2.695,2.635,4.347c0.907,2.919,1.294,6.01,1.585,9.045c0.308,3.213,0.47,6.448,0.484,9.676
			c0.008,1.948-0.602,5.253,0.963,6.848c1.562,1.592,4.423,1.751,6.509,1.844c3.139,0.14,6.303-0.118,9.422-0.465
			c1.661-0.185,3.315-0.409,4.971-0.635"/>
	</g>
	<g id="POLYLINE_1119_">
		
			<path fill="none" stroke="#FB8604" stroke-width="2.75" stroke-linecap="round" stroke-linejoin="round" stroke-miterlimit="10" d="
			M547.859,215.264c-2.389,2.477-4.122,5.606-5.164,8.877c-0.63,1.975-1.229,4.586,0.472,6.208c1.312,1.251,3.335,1.747,5.017,2.27
			c2.053,0.639,4.155,1.217,6.106,2.138c1.33,0.628,2.585,1.429,3.418,2.672c0.74,1.104,1.072,2.443,1.863,3.511
			c1.795,2.423,5.697,1.859,8.132,3.419c1.513,0.969,2.476,2.535,3.269,4.105c0.549,1.087,1.004,2.215,1.513,3.32
			c0.209,0.453,0.514,1.364,0.955,1.638c1.23,0.764,2.525-3.376,2.832-4.092c0.92-2.145,1.784-4.318,2.48-6.548
			c1.117-3.579,1.851-7.345,1.328-11.096c-0.558-4.001-2.341-7.619-4.13-11.191c-1.292-2.58-2.586-5.138-2.839-8.053
			c-0.071-0.817-0.077-1.64-0.044-2.459"/>
	</g>
	<g id="POLYLINE_1118_">
		
			<path fill="none" stroke="#FB8604" stroke-width="2.75" stroke-linecap="round" stroke-linejoin="round" stroke-miterlimit="10" d="
			M196.494,418.534c-2.911,5.365-6.562,10.042-11.36,13.851c-5.1,4.049-11.05,7.11-17.364,8.734
			c-6.581,1.692-13.514,1.898-20.253,1.239c-7.05-0.689-14.104-2.246-20.661-4.958c-6.401-2.647-12.23-6.475-17.234-11.261
			c-3.676-3.516-8.052-7.965-9.458-13.005c-1.291-4.63,3.719-5.724,7.185-6.223c6.02-0.867,12.333-0.511,18.303,0.559
			c6.438,1.154,12.672,2.899,19.258,1.794c6.046-1.015,11.869-3.544,17.248-6.415c4.648-2.48,10.089-5.411,13.294-9.746
			c2.888-3.906,2.498-8.967,2.52-13.573c0.014-2.962,0.082-5.94,0.632-8.86c0.575-3.049,1.715-5.953,3.019-8.757
			c1.434-3.084,3.141-6.082,4.291-9.291c0.934-2.606,1.229-5.42,2.396-7.945c2.115-4.576,6.818-7.681,10.893-10.338
			c5.956-3.884,12.308-7.175,18.722-10.23c6.414-3.054,13.008-5.504,19.818-7.522c6.421-1.903,12.975-3.445,19.659-4.023
			c7.132-0.617,14.233-0.486,21.291-1.837c6.81-1.304,13.508-2.498,20.443-2.899c7.477-0.432,14.962-0.43,22.449-0.419
			c7.602,0.011,15.202,0.103,22.804,0.177c6.869,0.066,13.734,0.13,20.603,0.026c7.247-0.109,14.486-0.386,21.707-1.033
			c6.634-0.594,13.195-1.704,19.711-3.069c7.519-1.575,14.906-3.007,22.549-3.814c6.453-0.681,12.398-2.235,18.268-5.033
			c5.995-2.858,11.651-6.446,16.957-10.431c5.372-4.035,10.31-8.604,14.909-13.496c4.956-5.272,9.533-10.874,14.25-16.356
			c4.407-5.122,8.956-10.256,14.333-14.39c5.193-3.993,11.466-6.525,16.305-10.978c4.891-4.5,7.82-10.676,12.529-15.35
			c4.495-4.462,10.157-7.42,16.247-9.06c6.445-1.735,13.333-2.45,19.999-2.143c2.782,0.128,5.58,0.455,8.146,1.597
			c2.522,1.123,4.84,2.201,7.515,2.954c3.16,0.888,6.402,1.679,9.228,3.413c2.282,1.401,4.084,3.327,5.545,5.554
			c1.363,2.077,2.365,4.468,4.007,6.35c1.173,1.344,2.826,1.922,4.142,3.077c3.151,2.765,1.053,7.788,2.433,11.32
			c1.418,3.631,6.012,4.794,9.405,5.501c5.274,1.099,10.564,0.74,15.607,2.841"/>
	</g>
	<g id="POLYLINE_1117_">
		
			<path fill="none" stroke="#FB8604" stroke-width="2.75" stroke-linecap="round" stroke-linejoin="round" stroke-miterlimit="10" d="
			M604.403,292.478c1.785,2.274,5.022,3.092,7.821,3.317"/>
	</g>
	<g id="POLYLINE_1116_">
		
			<path fill="none" stroke="#FB8604" stroke-width="2.75" stroke-linecap="round" stroke-linejoin="round" stroke-miterlimit="10" d="
			M600.357,290.659c0.43,0.162,0.835,0.375,1.207,0.646"/>
	</g>
	<g id="POLYLINE_1115_">
		
			<line fill="none" stroke="#FB8604" stroke-width="2.75" stroke-linecap="round" stroke-linejoin="round" stroke-miterlimit="10" x1="593" y1="283.904" x2="593.585" y2="284.505"/>
	</g>
	<g id="POLYLINE_1114_">
		
			<line fill="none" stroke="#FB8604" stroke-width="2.75" stroke-linecap="round" stroke-linejoin="round" stroke-miterlimit="10" x1="596.225" y1="287.275" x2="597.215" y2="288.165"/>
	</g>
	<g id="POLYLINE_1113_">
		
			<path fill="none" stroke="#FB8604" stroke-width="2.75" stroke-linecap="round" stroke-linejoin="round" stroke-miterlimit="10" d="
			M586.324,278.269c-0.875-0.175-1.591-0.721-1.897-1.572"/>
	</g>
	<g id="POLYLINE_1112_">
		
			<path fill="none" stroke="#FB8604" stroke-width="2.75" stroke-linecap="round" stroke-linejoin="round" stroke-miterlimit="10" d="
			M617.723,295.131c1.951,2.834,4.146,5.628,7.229,7.283c2.329,1.25,4.94,1.718,7.56,1.812c4.564,0.164,9.394-0.47,13.756-1.836
			c1.017-0.318,2.161-0.708,2.967-1.437c1.377-1.245,0.94-3.384-0.362-4.552"/>
	</g>
	<g id="POLYLINE_1111_">
		
			<path fill="none" stroke="#FB8604" stroke-width="2.75" stroke-linecap="round" stroke-linejoin="round" stroke-miterlimit="10" d="
			M587.121,274.397c5.038,1.729,10.095,3.433,14.943,5.654c3.639,1.667,7.152,3.715,9.858,6.713
			c1.674,1.855,2.968,4.002,4.312,6.098"/>
	</g>
	<g id="POLYLINE_1110_">
		
			<path fill="none" stroke="#FB8604" stroke-width="2.75" stroke-linecap="round" stroke-linejoin="round" stroke-miterlimit="10" d="
			M612.251,295.701c0.317-0.464,1.13-0.459,1.617-0.642c0.625-0.235,1.063-0.584,1.492-1.097c0.674-0.808,1.922-2.281,2.434-0.384
			c0.249,0.926-0.185,2.057-0.444,2.94c-0.433,1.475-0.756,2.12-2.383,1.574C614.266,297.858,611.86,296.697,612.251,295.701z"/>
	</g>
	<g id="POLYLINE_1109_">
		
			<path fill="none" stroke="#FB8604" stroke-width="2.75" stroke-linecap="round" stroke-linejoin="round" stroke-miterlimit="10" d="
			M601.564,291.304c0.217-0.379,0.882-0.322,1.254-0.484c0.387-0.169,0.738-0.708,1.082-0.814c0.654-0.202,0.784,0.747,0.832,1.346
			C604.908,293.577,601.466,292.558,601.564,291.304z"/>
	</g>
	<g id="POLYLINE_1108_">
		
			<path fill="none" stroke="#FB8604" stroke-width="2.75" stroke-linecap="round" stroke-linejoin="round" stroke-miterlimit="10" d="
			M596.96,288.303c0.407-0.315,1.029-0.203,1.508-0.34c0.59-0.168,1.407-1.011,1.974-0.98c0.697,0.039,0.402,2.35,0.253,3.01
			C600.235,292.038,595.766,289.54,596.96,288.303z"/>
	</g>
	<g id="POLYLINE_1098_">
		
			<path fill="none" stroke="#FB8604" stroke-width="2.75" stroke-linecap="round" stroke-linejoin="round" stroke-miterlimit="10" d="
			M593.352,285.044c-0.029-0.939,1.826-1.327,2.444-1.681c0.47-0.269,0.929-0.978,1.208-0.497c0.255,0.438-0.062,1.68-0.076,2.161
			c-0.023,0.799,0.352,2.292-0.777,2.235c-0.555-0.028-1.208-0.506-1.639-0.821C594.399,286.357,593.221,285.044,593.352,285.044z"
			/>
	</g>
	<g id="POLYLINE_1077_">
		
			<path fill="none" stroke="#FB8604" stroke-width="2.75" stroke-linecap="round" stroke-linejoin="round" stroke-miterlimit="10" d="
			M589.529,282.028c-1.133-0.216-2.243-0.925-2.967-1.818c-0.649-0.801-1.009-1.873,0.297-2.029c0.854-0.102,1.74,0.065,2.605-0.009
			c0.984-0.085,1.987-0.396,2.978-0.358c1.128,0.044,1.622,1.032,1.497,2.106"/>
	</g>
	<g id="POLYLINE_1075_">
		
			<path fill="none" stroke="#FB8604" stroke-width="2.75" stroke-linecap="round" stroke-linejoin="round" stroke-miterlimit="10" d="
			M589.529,282.028c-0.146-0.891,4.995-2.946,5.412-1.665c0.346,1.062-1.135,3.538-2.211,3.55
			C591.828,283.923,589.786,282.968,589.529,282.028z"/>
	</g>
	<g id="POLYLINE_1027_">
		
			<path fill="none" stroke="#FB8604" stroke-width="2.75" stroke-linecap="round" stroke-linejoin="round" stroke-miterlimit="10" d="
			M584.119,280.626c2.123,3.919,4.496,6.953,8.349,9.235c5.271,3.122,11.289,5.238,17.094,7.129c3.179,1.035,6.331,1.673,9.663,1.94
			"/>
	</g>
	<g id="POLYLINE_1026_">
		
			<path fill="none" stroke="#FB8604" stroke-width="2.75" stroke-linecap="round" stroke-linejoin="round" stroke-miterlimit="10" d="
			M597.839,272.605c7.918,3.868,16.503,6.323,23.151,12.366c2.92,2.655,5.266,6.002,8.371,8.434
			c1.946,1.524,4.167,1.956,6.584,2.042c4.062,0.144,7.908-0.602,11.91,0.406"/>
	</g>
	<g id="POLYLINE_1025_">
		
			<path fill="none" stroke="#FB8604" stroke-width="2.75" stroke-linecap="round" stroke-linejoin="round" stroke-miterlimit="10" d="
			M647.093,260.088c-0.38,3.565-1.703,7.999-4.659,10.313c-1.523,1.192-3.38,1.895-5.124,2.685
			c-2.367,1.073-4.653,2.351-7.117,3.197c-4.707,1.617-10.056,1.499-14.905,0.626c-2.259-0.406-4.436-1.079-6.502-2.08
			c-1.735-0.84-3.428-1.838-5.317-2.299c-3.923-0.956-7.978,0.732-11.808,1.377c-1.838,0.31-4.916-0.125-6.427,1.178
			c-1.485,1.281-1.125,4.472-1.115,6.174c0.017,3.111,0.189,6.603,1.933,9.303c1.684,2.608,4.626,4.147,7.343,5.443
			c4.659,2.223,9.827,4.334,14.928,5.249c3.046,0.546,6.686,0.212,9.449-1.266c0.86-0.46,1.542-1.122,2.194-1.836"/>
	</g>
	<g id="POLYLINE_1024_">
		
			<path fill="none" stroke="#FB8604" stroke-width="2.75" stroke-linecap="round" stroke-linejoin="round" stroke-miterlimit="10" d="
			M637.392,245.701c1.76-2.078,7.242,0.545,8.911,1.438c2.259,1.21,3.625,3.088,3.657,5.664c0.024,1.94-0.456,6.235-2.547,7.174
			c-2.04,0.916-4.878-2.304-5.944-3.687c-1.437-1.863-2.65-3.994-3.557-6.162C637.416,248.94,636.5,246.869,637.392,245.701z"/>
	</g>
	<g id="POLYLINE_1023_">
		
			<path fill="none" stroke="#FB8604" stroke-width="2.75" stroke-linecap="round" stroke-linejoin="round" stroke-miterlimit="10" d="
			M451.971,391.935c-0.321,6.602-0.707,13.205-0.838,19.814c-0.146,7.309-0.027,14.62,0.02,21.93
			c0.038,5.972,0.251,12.02-0.406,17.966c-0.346,3.128-1.006,6.208-1.261,9.348c-0.27,3.325-0.319,6.668-0.355,10.002
			c-0.069,6.391,0.069,12.785,0.188,19.174c0.122,6.522,0.377,13.066-0.06,19.582c-0.442,6.585-1.74,13.051-2.811,19.552
			c-1.055,6.41-1.964,12.864-1.785,19.377c0.138,5.05,0.597,10.786,3.044,15.322c0.901,1.67,2.237,3.047,3.174,4.692
			c0.773,1.357,1.213,2.846,1.52,4.371c1.221,6.058,0.774,12.264,1.333,18.383c0.212,2.318,0.904,4.286,2.712,5.872
			c1.789,1.57,4.036,2.69,6.221,3.584c4.152,1.698,8.441,2.206,12.87,1.56c2.704-0.395,5.377-1.136,8.106-1.333
			c2.303-0.166,3.833,0.926,5.943,1.512c2.153,0.597,5.274,0.191,6.924-1.417c2.013-1.963,0.559-5.114-0.892-6.935
			c-2.747-3.447-6.999-5.267-11.022-6.744c-3.838-1.409-9.687-2.979-10.829-7.532c-0.573-2.286-0.798-4.77-0.768-7.122
			c0.026-2.068,0.67-4.023,0.829-6.072c0.266-3.426-0.693-6.553-2.405-9.439c-0.795-1.339-0.702-2.807-0.508-4.296
			c0.437-3.36,1.368-6.686,2.112-9.984c1.441-6.395,2.27-12.922,3.25-19.398c0.962-6.362,1.876-12.739,3.073-19.062
			c1.254-6.623,2.768-13.179,4.544-19.682c1.724-6.315,3.621-12.593,5.715-18.795c2.03-6.014,4.223-12.007,6.942-17.747
			c2.561-5.406,5.793-10.156,9.931-14.48c4.557-4.761,9.007-9.576,13.073-14.77c3.853-4.922,7.478-10.082,10.298-15.674
			c2.719-5.391,4.549-11.122,5.885-16.999c1.457-6.409,2.525-12.903,4.076-19.292c1.375-5.665,3.261-11.148,5.504-16.526
			c1.703-4.084,3.407-8.168,5.11-12.252c0.98-2.349,1.929-4.722,3.17-6.95c0.887-1.592,1.933-3.076,3.234-4.357
			c2.126-2.094,4.727-3.624,6.881-5.685c2.214-2.118,4.477-5.072,4.15-8.323c-0.292-2.914-1.024-5.471-0.076-8.354
			c1.234-3.752,4.898-4.92,8.508-4.971c5.648-0.081,9.994,2.564,14.624,5.455c5.385,3.362,10.974,5.494,17.422,5.124
			c3.245-0.186,6.856-0.927,9.296-3.25c2.074-1.974,3.082-4.863,3.521-7.626"/>
	</g>
	<g id="POLYLINE_1022_">
		
			<path fill="none" stroke="#FB8604" stroke-width="2.75" stroke-linecap="round" stroke-linejoin="round" stroke-miterlimit="10" d="
			M203.281,362.879c-2.598,5.241-4.802,10.655-6.27,16.327c-1.427,5.514-2.094,11.162-2.151,16.853
			c-0.068,6.801,0.689,13.539,1.405,20.291c0.634,5.98,0.798,11.893-0.397,17.821c-1.276,6.331-3.544,12.475-6.135,18.376
			c-2.506,5.709-5.356,11.409-8.993,16.491c-3.469,4.847-7.933,8.701-12.704,12.221c-5.482,4.044-11.224,7.717-17.002,11.32
			c-2.708,1.688-5.458,3.316-8.225,4.906c-2.819,1.619-5.837,2.98-8.519,4.823c-2.082,1.431-3.421,3.354-4.177,5.756
			c-1.218,3.868-0.529,6.904,0.489,10.706c1.685,6.286,1.959,12.983,2.354,19.448c0.421,6.881,0.557,13.782,0.796,20.671
			c0.222,6.395,0.295,12.817,0.976,19.185c0.296,2.766,0.678,5.561,1.654,8.18c0.683,1.835,1.598,3.562,1.987,5.494
			c0.497,2.467,0.451,5.044,1.146,7.473c0.631,2.202,2.12,3.175,4.34,3.494c2.989,0.429,6.076,0.223,9.081,0.159
			c3.502-0.075,6.992-0.098,10.495-0.068c2.652,0.022,5.369,0.094,7.988-0.397c1.321-0.248,2.868-0.662,3.574-1.916
			c0.983-1.748,0.322-4.361-0.677-5.922c-1.066-1.664-2.792-2.85-4.402-3.93c-1.4-0.939-2.852-1.815-4.189-2.845
			c-1.228-0.947-2.335-2.039-3.564-2.985c-1.866-1.437-4.616-2.723-5.701-4.943c-1.098-2.247-0.965-5.421-1.22-7.821
			c-0.332-3.117-0.578-6.248-0.7-9.38c-0.245-6.289-0.005-12.672,1.102-18.876c0.989-5.541,2.997-10.57,6.149-15.236
			c3.485-5.16,7.734-9.96,12.594-13.866c5.177-4.161,11.067-6.187,17.316-8.161c5.878-1.857,11.338-4.577,16.726-7.543
			c5.997-3.301,11.896-6.77,17.697-10.404c5.444-3.41,10.733-7.088,15.577-11.317c2.445-2.135,4.781-4.396,7.258-6.494
			c2.504-2.122,5.158-4.1,7.246-6.658c3.8-4.655,5.524-10.616,8.88-15.561c1.615-2.38,3.597-4.457,5.542-6.564
			c2.029-2.197,3.705-4.562,5.452-6.982c2.732-3.784,6.189-6.833,10.404-8.872c4.702-2.274,9.881-2.982,15.06-2.875
			c5.805,0.12,11.627,1.138,17.188,2.79c6.229,1.851,12.018,4.751,17.933,7.393c5.566,2.486,11.332,4.431,17.34,5.508
			c6.044,1.083,12.177,1.512,18.295,1.942c7.128,0.501,14.284,0.852,21.379,1.735c6.512,0.81,12.939,2.117,19.234,3.973
			c6.427,1.895,12.728,4.191,18.969,6.622c5.943,2.314,11.816,4.795,17.628,7.418"/>
	</g>
</g>
<g id="AG-OUTLINE">
	<g id="POLYLINE_1014_">
		
			<path fill="none" stroke="#FB8604" stroke-width="3.5" stroke-linecap="round" stroke-linejoin="round" stroke-miterlimit="10" d="
			M647.093,260.088c1.824-0.442,2.442-3.633,2.695-5.179c0.2-1.22,0.274-2.516,0-3.732c-0.867-3.845-6.282-5.758-9.77-6.093
			c-0.411-0.04-0.881,0.042-1.274-0.031c-0.731-0.136-1.496-0.606-2.21-0.844c-0.972-0.323-1.962-0.571-2.975-0.726
			c-3.236-0.494-6.511-0.506-9.736-1.124c-3.582-0.687-8.633-1.829-10.083-5.724c-1.469-3.945,0.878-9.078-3.192-11.821
			c-1.424-0.96-2.746-1.641-3.798-3.043c-1.765-2.352-2.907-5.113-4.73-7.435c-4.233-5.388-10.591-6.117-16.663-8.249
			c-2.459-0.863-4.628-2.346-7.184-2.958c-3.243-0.776-6.696-0.792-10.011-0.688c-7.054,0.222-14.358,1.271-20.892,4.046
			c-6.223,2.644-11.153,6.958-15.144,12.361c-2.197,2.974-4.229,6.107-6.771,8.808c-2.199,2.337-4.823,4.158-7.547,5.829
			c-3.028,1.857-6.133,3.596-9.016,5.679c-2.736,1.977-5.243,4.252-7.624,6.641c-5.358,5.376-10.109,11.326-15.049,17.076
			c-4.78,5.564-9.734,10.995-15.225,15.871c-5.267,4.677-11.003,8.842-17.08,12.405c-5.73,3.359-11.854,6.3-18.402,7.622
			c-3.795,0.766-7.666,1.018-11.507,1.456c-3.212,0.366-6.392,0.954-9.554,1.617c-7.716,1.616-15.415,3.328-23.251,4.268
			c-7.561,0.908-15.188,1.283-22.799,1.446c-6.87,0.147-13.738,0.123-20.609,0.056c-8.159-0.079-16.318-0.195-24.478-0.207
			c-8.028-0.012-16.058-0.054-24.076,0.416c-7.345,0.43-14.404,1.796-21.622,3.124c-7.384,1.359-14.902,0.986-22.339,1.833
			c-7.217,0.821-14.284,2.767-21.19,4.962c-6.893,2.191-13.463,5.027-19.933,8.25c-6.679,3.326-13.413,6.915-19.326,11.499
			c-1.979,1.534-3.949,3.223-5.363,5.313c-1.354,1.999-1.946,4.262-2.519,6.58c-1.674,6.77-5.945,12.496-7.769,19.22
			c-1.745,6.433-0.307,13.07-1.51,19.532c-0.754,4.052-3.428,6.829-6.633,9.223c-5.491,4.103-11.775,7.389-18.206,9.741
			c-6.189,2.264-12.322,3.077-18.848,1.976c-6.86-1.158-13.416-2.693-20.426-2.607c-3.04,0.037-6.156,0.242-9.104,1.026
			c-1.614,0.43-3.598,1.125-4.239,2.829c-0.55,1.462,0.079,3.161,0.694,4.505c1.389,3.036,3.564,5.735,5.791,8.195
			c4.791,5.294,10.516,9.727,16.935,12.871c6.664,3.264,13.949,5.173,21.286,6.147c7.198,0.955,14.647,0.983,21.754-0.638
			c6.657-1.519,12.93-4.618,18.301-8.82c4.917-3.847,8.655-8.59,11.621-14.056c0.499,5.706,0.367,11.316-0.899,16.921
			c-0.628,2.778-2.077,5.264-3.448,7.748c-1.483,2.687-3.055,5.323-4.714,7.905c-3.304,5.141-6.899,10.111-10.766,14.843
			c-3.636,4.45-7.629,8.584-12.219,12.058c-4.683,3.545-9.823,6.434-14.973,9.233c-2.523,1.371-5.262,2.609-7.599,4.299
			c-1.415,1.024-2.472,2.317-2.229,4.155c0.096,0.726,0.339,1.433,0.616,2.108c0.112,0.272,0.415,0.729,0.331,0.934
			c-0.193,0.469-2.106,1.15-2.562,1.399c-1.758,0.96-3.614,1.873-5.102,3.239c-1.955,1.794-2.933,4.399-3.349,6.969
			c-0.618,3.816,0.847,7.11,1.586,10.814c1.175,5.892,1.529,11.981,1.849,17.969c0.372,6.954,0.541,13.919,0.782,20.878
			c0.207,5.969,0.292,11.956,0.92,17.901c0.279,2.646,0.622,5.332,1.495,7.858c0.645,1.866,1.619,3.611,2.069,5.544
			c0.796,3.421-0.105,9.864,4.275,11.143c2.323,0.678,4.958,0.529,7.347,0.498c2.533-0.033,5.064-0.145,7.596-0.173
			c3.094-0.035,6.188,0.095,9.282,0.023c1.253-0.029,2.522-0.211,3.768-0.145c1.183,0.062,2.35,0.109,3.536,0.059
			c2.479-0.106,11.533-0.322,11.02-4.605c-0.316-2.633-2.716-5.266-4.657-6.881c-3.106-2.584-6.672-2.828-10.504-3.633
			c-4.451-0.935-5.987-4.356-7.211-8.318c-1.744-5.642-1.808-11.971-2.228-17.821c-0.463-6.438-0.957-12.911-1.168-19.362
			c-0.172-5.278,0.956-11.632,4.15-15.91c3.665-4.91,7.98-9.535,13.002-13.08c4.977-3.513,10.682-5.073,16.39-6.951
			c5.758-1.895,11.119-4.709,16.408-7.636c5.596-3.098,11.108-6.341,16.528-9.736c5.206-3.261,10.295-6.734,14.974-10.724
			c2.382-2.031,4.659-4.177,6.997-6.258c2.307-2.053,4.829-3.874,6.992-6.086c4.077-4.171,6.011-9.771,8.837-14.762
			c2.739-4.839,6.968-8.331,10.223-12.768c2.865-3.906,5.454-7.614,9.569-10.306c4.037-2.641,8.66-4.081,13.451-4.486
			c5.318-0.449,10.719,0.117,15.935,1.175c5.568,1.13,10.92,2.993,16.096,5.32c5.736,2.58,11.375,5.376,17.409,7.21
			c5.568,1.692,11.332,2.542,17.114,3.096c7.092,0.679,14.215,1.071,21.322,1.57c5.7,0.401,11.393,1.045,17.008,2.115
			c6.033,1.149,11.937,2.839,17.753,4.8c3.034,1.023,6.047,2.116,9.041,3.249c1.301,0.492,2.599,0.991,3.891,1.506
			c0.965,0.385,1.929,0.773,2.893,1.159c0.566,0.227,2.119,0.529,2.502,1.002c0.226,0.279,0.141,0.94,0.161,1.335
			c0.058,1.155,0.116,2.31,0.174,3.465c0.067,1.342,0.126,2.684,0.182,4.026c0.133,3.232,0.258,6.464,0.347,9.697
			c0.174,6.354,0.239,12.709,0.191,19.065c-0.046,5.99-0.182,11.976-0.369,17.963c-0.218,6.963-0.453,13.921-0.55,20.886
			c-0.085,6.066,0.105,12.292-0.98,18.285c-0.322,1.775-0.791,3.519-1.608,5.133c-0.84,1.659-2.082,3.119-2.758,4.861
			c-0.857,2.207-0.415,4.83,0.715,6.865c1.027,1.848,2.752,2.442,4.406,3.58c1.35,0.929,2.115,2.289,2.655,3.795
			c1.893,5.28,2.098,11.345,2.265,16.896c0.074,2.466-0.262,5.072,0.13,7.51c0.366,2.279,2.471,3.086,4.516,3.453
			c2.55,0.458,5.202,0.373,7.776,0.221c1.51-0.089,3.018-0.225,4.521-0.392c1.519-0.169,3.352-0.7,4.872-0.622
			c0.902,0.046,1.911,0.524,2.815,0.71c1.04,0.214,2.095,0.358,3.156,0.42c2.444,0.145,4.866-0.206,7.264-0.641
			c2.224-0.403,4.513-1.01,6.791-1.009c2.183,0.002,3.808,1.415,5.901,1.716c2.093,0.301,5.186-0.194,6.5-2.019
			c1.449-2.014,0.066-4.821-1.272-6.501c-2.566-3.221-6.503-5.066-10.272-6.469c-3.746-1.395-10.046-2.897-11.436-7.288
			c-0.635-2.006-0.804-4.262-0.89-6.35c-0.092-2.224,0.364-4.209,0.694-6.393c0.448-2.967-0.007-6.542-1.5-9.178
			c-0.773-1.364-1.469-2.344-1.434-3.957c0.049-2.226,0.642-4.435,1.129-6.595c1.343-5.959,2.484-11.902,3.397-17.941
			c1.055-6.975,2.067-13.959,3.231-20.917c1.008-6.033,2.219-12.046,3.72-17.977c1.626-6.426,3.465-12.784,5.423-19.117
			c1.853-5.994,3.928-11.929,6.277-17.748c2.094-5.187,4.459-10.369,7.789-14.892c3.713-5.043,8.469-9.248,12.573-13.965
			c3.986-4.581,7.767-9.374,11.111-14.447c3.171-4.811,5.832-9.918,7.73-15.366c2.068-5.933,3.217-12.115,4.462-18.258
			c1.196-5.903,2.38-11.814,4.242-17.551c2.081-6.411,4.86-12.578,7.452-18.792c1.822-4.367,3.377-9.199,6.478-12.861
			c3.161-3.734,7.85-5.766,10.56-9.951c0.55-0.849,1.034-1.765,1.313-2.742c0.55-1.924-0.114-3.758-0.33-5.675
			c-0.26-2.311-0.005-4.929,1.301-6.914c2.077-3.158,6.648-3.42,10.048-3.052c5.576,0.604,9.806,4.007,14.513,6.72
			c5.197,2.995,11.055,4.375,17.042,3.564c2.828-0.383,5.783-1.307,7.779-3.456c1.82-1.96,2.728-4.645,3.141-7.239
			c2.928,3.019,6.592,4.474,10.763,4.712c3.771,0.215,7.606-0.244,11.291-1.032c1.934-0.414,5.152-0.882,6.451-2.668
			c0.819-1.127,0.378-2.693-0.431-3.706c-0.918-1.149-2.623-1.282-3.998-1.462c-3.293-0.431-6.615,0.294-9.923,0.086
			c-2.199-0.138-4.181-0.626-5.95-2.011c-2.865-2.244-5.056-5.31-7.696-7.809c-2.848-2.696-6.024-4.891-9.536-6.634
			c-3.743-1.858-7.712-3.191-11.48-4.987c-0.94-0.448-1.873-0.913-2.809-1.371c2.418-0.44,4.709-0.51,7.028,0.367
			c2.127,0.804,4.049,2.056,6.192,2.828c2.083,0.751,4.268,1.184,6.464,1.433c4.492,0.511,9.173,0.402,13.437-1.23
			c2.33-0.891,4.526-2.099,6.799-3.12c1.54-0.692,3.144-1.339,4.507-2.356C645.342,268.231,646.705,263.728,647.093,260.088z"/>
	</g>
</g>
</svg>
