<?xml version="1.0" encoding="utf-8"?>
<!-- Generator: Adobe Illustrator 25.3.1, SVG Export Plug-In . SVG Version: 6.00 Build 0)  -->
<!DOCTYPE svg PUBLIC "-//W3C//DTD SVG 1.1//EN" "http://www.w3.org/Graphics/SVG/1.1/DTD/svg11.dtd" [
	<!ENTITY ns_extend "http://ns.adobe.com/Extensibility/1.0/">
	<!ENTITY ns_ai "http://ns.adobe.com/AdobeIllustrator/10.0/">
	<!ENTITY ns_graphs "http://ns.adobe.com/Graphs/1.0/">
	<!ENTITY ns_vars "http://ns.adobe.com/Variables/1.0/">
	<!ENTITY ns_imrep "http://ns.adobe.com/ImageReplacement/1.0/">
	<!ENTITY ns_sfw "http://ns.adobe.com/SaveForWeb/1.0/">
	<!ENTITY ns_custom "http://ns.adobe.com/GenericCustomNamespace/1.0/">
	<!ENTITY ns_adobe_xpath "http://ns.adobe.com/XPath/1.0/">
]>
<svg version="1.1" xmlns:x="&ns_extend;" xmlns:i="&ns_ai;" xmlns:graph="&ns_graphs;"
	 xmlns="http://www.w3.org/2000/svg" xmlns:xlink="http://www.w3.org/1999/xlink" x="0px" y="0px" width="750px" height="750px"
	 viewBox="0 0 750 750" enable-background="new 0 0 750 750" xml:space="preserve">
<metadata>
	<sfw  xmlns="&ns_sfw;">
		<slices></slices>
		<sliceSourceBounds  bottomLeftOrigin="true" height="12496.359" width="14430.097" x="-7224.097" y="-4175"></sliceSourceBounds>
	</sfw>
</metadata>
<g id="FILL-BACKGROUND">
	<rect fill="#FFFFFF" width="750" height="750"/>
</g>
<g id="N-DIMENSIONS">
</g>
<g id="N-TEXT">
</g>
<g id="AG-DIAGRAM">
	<g>
		<g>
			
				<line fill="none" stroke="#FB8604" stroke-width="3.5" stroke-linecap="round" stroke-linejoin="round" x1="125.391" y1="603.664" x2="127.391" y2="603.664"/>
			
				<line fill="none" stroke="#FB8604" stroke-width="3.5" stroke-linecap="round" stroke-linejoin="round" stroke-dasharray="3.9964,6.9936" x1="134.384" y1="603.664" x2="526.526" y2="603.664"/>
			
				<line fill="none" stroke="#FB8604" stroke-width="3.5" stroke-linecap="round" stroke-linejoin="round" x1="530.023" y1="603.664" x2="532.023" y2="603.664"/>
		</g>
	</g>
</g>
<g id="AG-GUIDES">
</g>
<g id="AG-PEOPLE">
</g>
<g id="AG-DETAIL">
	<g id="POLYLINE_910_">
		<path fill="none" stroke="#FB8604" stroke-width="2" stroke-linecap="round" stroke-linejoin="round" stroke-miterlimit="10" d="
			M182.262,453.031c4.003-0.489,7.974-1.223,11.745-2.694c3.393-1.324,6.504-3.214,9.431-5.368c3.173-2.334,6.128-4.945,9.017-7.617
			c2.611-2.414,5.211-4.875,7.15-7.882c3.862-5.992,5.271-13.51,6.519-20.415c0.715-3.957,1.32-7.933,1.845-11.92
			c0.493-3.739,0.535-7.933,1.862-11.512c1.348-3.637,4.632-3.61,7.877-2.786c3.828,0.972,7.464,2.765,10.931,4.62
			c3.066,1.64,6.194,3.385,8.742,5.784c2.556,2.408,4.03,5.333,4.705,8.755c0.725,3.675,0.806,7.519,2.106,11.065
			c1.384,3.777,4.349,5.941,8.072,7.221c7.148,2.458,14.848,2.028,22.144,3.749c3.566,0.841,6.681,2.457,9.413,4.928
			c2.801,2.534,5.172,5.506,7.988,8.026c2.869,2.568,6.216,4.515,10.083,2.655c3.89-1.871,5.886-5.712,8.199-9.115
			c1.061-1.561,2.381-3.273,4.346-3.653c1.418-0.274,2.912,0.14,4.234,0.633c3.833,1.431,7.298,3.89,10.753,6.036
			c6.637,4.124,13.658,6.91,21.266,8.664c8.697,2.005,17.567,3.309,26.354,4.839c3.318,0.578,6.594,1.501,9.926,1.963
			c3.475,0.482,5.614-1.138,7.633-3.843c4.689-6.285,8.623-13.456,11.889-20.572c2.995-6.527,5.315-13.389,5.966-20.573
			c0.707-7.8-0.514-15.713,0.616-23.474c1.025-7.037,5.155-12.664,8.409-18.803c2.921-5.512,4.949-12.709,1.775-18.586
			c-1.826-3.382-5.466-4.896-7.725-7.862c-2.674-3.513,0.065-8.375-0.993-12.352c-0.908-3.413-3.455-6.221-6.013-8.542"/>
	</g>
	<g id="POLYLINE_909_">
		<path fill="none" stroke="#FB8604" stroke-width="2" stroke-linecap="round" stroke-linejoin="round" stroke-miterlimit="10" d="
			M197.863,309.447c-0.486-6.042,0.787-13.338,4.289-18.403c1.926-2.786,4.859-4.643,7.07-7.181c2.228-2.557,4.05-5.475,5.687-8.435
			c1.762-3.186,3.285-6.499,4.549-9.913"/>
	</g>
	<g id="POLYLINE_908_">
		<path fill="none" stroke="#FB8604" stroke-width="2" stroke-linecap="round" stroke-linejoin="round" stroke-miterlimit="10" d="
			M439.671,304.158c1.204,3.227,2.679,6.718,5.423,8.944c2.482,2.014,5.581,1.988,8.61,1.738c3.172-0.262,6.444-0.792,9.6-0.101
			c3.231,0.708,5.975,2.655,8.927,4.041c2.351,1.104,4.802,1.684,7.278,0.611c2.694-1.168,4.799-3.583,6.155-6.132
			c1.471-2.765,2-5.781,1.637-8.881c-0.206-1.76-0.638-3.48-1.022-5.207c-0.291-1.31-1.021-3.511,0.168-4.567
			c1.087-0.965,3.059-0.56,4.321-0.271c1.623,0.371,3.196,0.985,4.683,1.73c3.376,1.692,6.371,4.187,8.556,7.273
			c0.372,0.525,0.719,1.068,1.042,1.625"/>
	</g>
	<g id="POLYLINE_907_">
		<path fill="none" stroke="#FB8604" stroke-width="2" stroke-linecap="round" stroke-linejoin="round" stroke-miterlimit="10" d="
			M578.154,247.068c1.45,1.875,2.705,3.991,3.368,6.278c1.05,3.624-0.361,6.542-3.377,8.662c-2.073,1.458-4.43,2.442-6.728,3.479
			c-1.794,0.809-4.692,1.848-5.222,4.007c-0.585,2.381,1.739,5.113,2.974,6.986c1.293,1.96,2.604,3.906,3.555,6.062
			c1.659,3.763,2.334,7.914,1.995,12.01c-0.226,2.732-0.772,5.413-0.611,8.166c0.173,2.951,0.86,5.85,1.769,8.653"/>
	</g>
</g>
<g id="AG-ANIMALS">
	<g id="POLYLINE_898_">
		
			<path fill="none" stroke="#FB8604" stroke-width="2.75" stroke-linecap="round" stroke-linejoin="round" stroke-miterlimit="10" d="
			M617.89,278.755c-4.146,0.858-7.538-4.97-9.088-8.07c-1.77-3.543-3.242-8.81,1.102-11.082c3.49-1.825,8.513-1.201,11.832,0.71
			c3.428,1.973,3.602,5.529,2.666,9.013C623.525,272.585,621.531,277.83,617.89,278.755z"/>
	</g>
	<g id="POLYLINE_118_">
		
			<path fill="none" stroke="#FB8604" stroke-width="2.75" stroke-linecap="round" stroke-linejoin="round" stroke-miterlimit="10" d="
			M531.911,226.065c0.723,3.224,1.51,6.445,2.001,9.715c0.44,2.93,0.415,5.893,0.751,8.832c0.633,5.531,3.245,10.375,5.944,15.153
			c3.434,6.079,7.04,12.097,9.687,18.576c2.341,5.731,4.022,11.74,4.755,17.894c0.753,6.316,0.553,12.938-1.235,19.074
			c-1.851,6.355-5.932,12.229-12.971,13.029c-5.926,0.673-12.103-1.382-17.353-3.959c-5.665-2.782-11.239-6.7-14.859-11.957
			c-3.471-5.041-4.379-10.935-6.076-16.682c-0.83-2.812-2.067-5.302-3.916-7.578c-1.944-2.394-4.277-4.477-6.014-7.037
			c-3.33-4.906-2.784-11.101-3.712-16.702c-1.112-6.706-4.196-12.871-4.238-19.775c-0.031-5.147,1.301-10.294,4.536-14.369
			c4.131-5.205,10.555-9.001,16.727-11.273c5.875-2.163,12.197-2.766,18.421-2.704c6.076,0.061,12.182,0.746,18.09,2.181
			c5.997,1.456,11.766,3.784,17.141,6.81c5.634,3.173,12.239,7.173,14.412,13.626c0.995,2.954,1.452,6.139,4.115,8.123
			c2.438,1.816,5.607,2.62,8.516,3.308c6.566,1.555,13.29,2.581,19.75,4.563c2.689,0.825,5.441,1.847,7.712,3.549"/>
	</g>
	<g id="POLYLINE_114_">
		
			<path fill="none" stroke="#FB8604" stroke-width="2.75" stroke-linecap="round" stroke-linejoin="round" stroke-miterlimit="10" d="
			M620.454,277.069c-0.054,5.367-1.543,10.463-4.597,14.895c-3.298,4.786-7.899,8.791-13.015,11.534
			c-2.412,1.294-4.975,2.284-7.666,2.81c-2.989,0.584-6.029,0.595-9.055,0.822c-2.666,0.2-5.011,0.799-7.297,2.242
			c-2.346,1.481-4.493,3.242-7.106,4.255c-4.817,1.866-10.467,1.614-15.469,0.751c-0.694-0.12-1.385-0.257-2.073-0.409"/>
	</g>
	<g id="POLYLINE_111_">
		
			<path fill="none" stroke="#FB8604" stroke-width="2.75" stroke-linecap="round" stroke-linejoin="round" stroke-miterlimit="10" d="
			M484.694,243.401c-4.18,2.713-8.311,5.512-11.796,9.106c-3.617,3.73-6.355,8.161-8.903,12.661
			c-5.525,9.755-10.447,19.773-16.79,29.049c-5.397,7.893-11.674,16.17-20.086,21.045c-3.785,2.194-7.946,3.567-12.149,4.712
			c-6.381,1.739-12.777,3.42-19.166,5.13c-10.26,2.746-20.523,5.478-31.03,7.122c-10.227,1.601-20.525,2.393-30.832,3.267
			c-11.657,0.988-23.329,1.869-34.976,2.971c-13.723,1.299-27.444,2.626-41.166,3.939c-3.995,0.382-7.995,0.838-12.006,1.014
			c-2.152,0.094-4.416,0.206-6.523-0.334c-2.304-0.59-4.091-2.12-5.54-3.961c-3.171-4.028-4.989-9.093-6.467-13.945
			c-1.702-5.587-2.945-11.303-4.305-16.98c-1.241-5.178-2.678-10.364-3.422-15.643c-0.743-5.275-0.766-10.605-0.628-15.92
			c0.299-11.439,1.455-22.843,2.729-34.208c1.235-11.018,3.208-21.891,4.835-32.85c0.809-5.45,1.428-10.922,1.692-16.428
			c0.127-2.653,0.193-5.313,0.076-7.967c-0.098-2.223-0.188-4.69-1.091-6.758c-2.416-5.535-8.373,3.759-9.698,5.93
			c-2.845,4.664-5.176,9.65-7.395,14.636c-4.5,10.113-8.294,20.581-11.086,31.296c-2.738,10.508-4.322,21.209-4.613,32.067
			c-0.294,10.963,0.598,21.93,1.806,32.818c1.259,11.35,2.565,22.749,4.662,33.98c0.969,5.189,2.081,10.364,3.74,15.381
			c1.585,4.795,3.71,9.672,3.784,14.801c0.145,10.001-6.568,17.948-13.371,24.465c-6.666,6.386-15.47,13.143-16.56,22.991
			c-0.532,4.804,0.42,9.653,1.3,14.358c1.024,5.479,2.004,10.93,2.377,16.5c0.74,11.07-0.04,22.183-1.104,33.205
			c-0.495,5.129-0.851,10.438-2.166,15.437c-1.203,4.574-3.699,8.413-6.828,11.915c-3.536,3.956-7.576,7.406-11.639,10.802
			c-3.757,3.141-8.43,6.525-8.985,11.776c-0.554,5.237,1.763,10.735,3.269,15.64c1.508,4.909,2.609,9.907,3.327,14.992
			c1.563,11.073,1.455,22.28,2.552,33.393c0.465,4.708,0.832,10.401,3.661,14.398c2.796,3.95,8.064,4.174,12.465,4.284
			c5.475,0.136,11.001,0.33,16.477,0.13c3.96-0.144,10.199-0.541,10.538-5.672c0.266-4.027-2.032-8.347-4.476-11.395
			c-1.774-2.212-4.035-3.889-6.545-5.176c-2.242-1.15-4.846-1.961-6.681-3.762c-3.341-3.279-3.711-9.207-4.097-13.586
			c-0.476-5.403-0.564-10.896-0.266-16.311c0.258-4.687,0.908-9.457,2.749-13.811c2.097-4.96,5.89-8.589,10.234-11.629
			c4.552-3.185,9.447-5.843,14.035-8.975c4.444-3.034,8.475-6.527,12.128-10.479c7.049-7.627,12.764-16.394,18.227-25.19
			c3.165-5.096,6.259-10.247,9.587-15.24c2.821-4.232,5.804-8.526,9.611-11.942c3.297-2.958,7.164-4.699,11.593-4.944
			c4.732-0.262,9.559,0.691,14.161,1.69c5.922,1.286,11.825,2.691,17.785,3.791c5.059,0.934,10.161,1.495,15.276,2.015
			c11.012,1.12,22.18,1.883,32.751,5.406c10.451,3.483,20.064,9.009,30.382,12.83c9.92,3.673,20.255,5.907,30.565,8.16"/>
	</g>
	<g id="POLYLINE_110_">
		
			<path fill="none" stroke="#FB8604" stroke-width="2.75" stroke-linecap="round" stroke-linejoin="round" stroke-miterlimit="10" d="
			M199.584,519.08c2.756,10.908,4.85,21.915,6.33,33.068c0.711,5.356,1.305,10.729,1.809,16.109
			c0.533,5.693,0.781,11.417,1.417,17.098c0.529,4.721,1.52,9.467,3.993,13.588c1.17,1.95,2.681,3.865,4.982,4.441
			c2.266,0.568,4.802,0.413,7.119,0.477c5.466,0.152,11.029,0.258,16.448-0.591c2.29-0.359,4.755-0.862,6.686-2.214
			c2.448-1.713,3.09-4.559,2.793-7.398c-0.418-3.997-2.302-8.268-5.724-10.559c-3.5-2.343-8.02-1.764-11.749-3.54
			c-4.486-2.137-5.53-7.698-6.147-12.162c-0.778-5.637-0.848-11.374-1.005-17.054c-0.126-4.539-0.086-9.191,0.979-13.63
			c1.233-5.14,4.162-9.302,7.893-12.948c3.876-3.788,8.256-7.024,12.43-10.466c4.19-3.456,8.13-7.174,11.846-11.134
			c7.513-8.004,14.094-16.864,19.85-26.203c2.785-4.518,4.991-9.667,8.435-13.731c3.629-4.282,8.899-5.179,13.795-7.342
			c2.137-0.944,4.179-2.142,5.839-3.805"/>
	</g>
	<g id="POLYLINE_109_">
		
			<path fill="none" stroke="#FB8604" stroke-width="2.75" stroke-linecap="round" stroke-linejoin="round" stroke-miterlimit="10" d="
			M390.839,402.408c1.462,8.866,4.062,17.679,7.891,25.819c1.983,4.215,4.46,7.815,7.447,11.369c1.404,1.67,2.763,3.372,3.483,5.465
			c0.659,1.917,0.821,3.983,0.874,5.996c0.125,4.691-0.339,9.386-0.476,14.073c-0.134,4.564,0.043,9.105,0.553,13.643
			c1.131,10.062,3.332,20.016,5.199,29.957c1.599,8.518,2.439,17.166,2.876,25.817c0.486,9.623,0.793,19.275,0.992,28.907
			c0.101,4.867,0.051,9.726-0.047,14.593c-0.091,4.496-0.284,9.027,0.185,13.509c0.205,1.963,0.517,3.992,1.316,5.812
			c1.04,2.37,2.977,3.759,5.4,4.513c4.141,1.287,8.734,1.5,13.037,1.68c4.374,0.184,8.789,0.156,13.144-0.331
			c3.437-0.384,8.679-0.899,10.035-4.711c1.254-3.524-0.501-8.107-2.156-11.204c-0.933-1.747-2.113-3.496-3.703-4.711
			c-1.557-1.19-3.448-1.424-5.191-2.21c-3.539-1.595-3.956-6.429-4.25-9.828c-0.391-4.522-0.221-9.091,0.119-13.61
			c0.702-9.322,2.609-18.469,3.843-27.722c1.172-8.795,1.235-17.662,0.911-26.517c-0.18-4.937-0.487-9.892-0.418-14.835
			c0.053-3.759,0.34-7.619,1.616-11.185c3.05-8.52,12.435-11.788,19.345-16.468c7.02-4.755,12.409-11.418,17.031-18.443
			c4.974-7.558,9.419-15.577,12.668-24.034c3.228-8.401,5.105-17.28,6.308-26.181c1.196-8.848,1.402-18.042,4.427-26.528
			c1.525-4.279,3.599-8.343,5.483-12.469c1.965-4.303,3.632-8.726,5.218-13.18c1.529-4.292,2.898-8.64,4.316-12.969"/>
	</g>
	<g id="POLYLINE_108_">
		
			<path fill="none" stroke="#FB8604" stroke-width="2.75" stroke-linecap="round" stroke-linejoin="round" stroke-miterlimit="10" d="
			M455.662,602.801c7.422,1.035,15.199,1.289,22.642,0.32c3.006-0.391,7.244-0.928,8.839-3.908c1.47-2.745,0.388-6.547-0.698-9.232
			c-1.196-2.958-3.096-6.083-5.946-7.7c-3.045-1.729-6.893-1.398-8.027-5.377c-0.924-3.243-0.571-6.91-0.26-10.215
			c0.336-3.567,0.859-7.124,1.467-10.654c1.095-6.352,2.233-12.694,3.379-19.037c2.023-11.194,4.045-22.388,6.068-33.583
			c1.207-6.68,2.478-13.352,3.576-20.051c1.255-7.657,1.647-15.403,2.753-23.075c0.463-3.208,1.087-6.417,2.172-9.478
			c1.156-3.262,2.845-6.299,4.454-9.352c3.394-6.441,5.537-12.942,6.556-20.155c0.279-1.977,0.544-3.956,0.803-5.936"/>
	</g>
</g>
<g id="AG-OUTLINE">
	<g id="POLYLINE_106_">
		
			<path fill="none" stroke="#FB8604" stroke-width="3.5" stroke-linecap="round" stroke-linejoin="round" stroke-miterlimit="10" d="
			M484.694,243.401c-3.417,2.218-6.811,4.477-9.839,7.219c-3.021,2.736-5.541,5.903-7.741,9.326
			c-4.713,7.333-8.357,15.296-12.741,22.821c-4.497,7.72-9.381,15.286-15.262,22.037c-2.68,3.077-5.585,6.018-8.888,8.43
			c-3.407,2.489-7.224,4.252-11.226,5.552c-3.895,1.265-7.898,2.224-11.851,3.287c-5.141,1.383-10.279,2.777-15.424,4.148
			c-8.406,2.239-16.854,4.31-25.436,5.759c-7.458,1.259-14.983,2.042-22.516,2.681c-12.296,1.043-24.592,2.085-36.888,3.128
			c-6.372,0.54-12.735,1.138-19.1,1.747c-11.707,1.12-23.415,2.241-35.122,3.361c-3.09,0.296-6.193,0.581-9.3,0.582
			c-3.746,0.001-6.717-0.9-9.214-3.842c-5.12-6.032-7.177-14.687-8.977-22.201c-1.317-5.498-2.635-10.996-3.952-16.494
			c-0.915-3.823-1.695-7.656-2.052-11.576c-0.799-8.781-0.169-17.707,0.487-26.477c0.679-9.07,1.656-18.114,2.792-27.138
			c1.144-9.095,2.828-18.096,4.174-27.16c1.235-8.313,2.249-17.05,1.489-25.454c-0.156-1.728-0.313-3.839-1.28-5.343
			c-1.162-1.808-3.071-0.937-4.41,0.181c-3.147,2.628-5.238,6.661-7.147,10.217c-4.171,7.768-7.622,15.973-10.662,24.242
			c-3.012,8.193-5.554,16.576-7.356,25.122c-1.857,8.805-2.808,17.737-2.932,26.733c-0.124,8.897,0.496,17.786,1.404,26.631
			c0.946,9.21,2.029,18.42,3.365,27.582c1.267,8.691,2.673,17.491,5.418,25.857c1.299,3.96,2.945,7.905,3.587,12.046
			c0.576,3.716,0.097,7.474-1.165,11.004c-2.873,8.034-9.15,13.707-15.148,19.453c-5.26,5.038-11.443,10.434-13.035,17.882
			c-1.657,7.755,1.03,15.998,2.281,23.619c1.385,8.433,1.556,17.029,1.195,25.553c-0.387,9.112-1.112,18.283-2.42,27.313
			c-0.519,3.585-1.305,7.135-3.011,10.36c-1.907,3.604-4.712,6.709-7.596,9.557c-3.144,3.105-6.527,5.932-9.914,8.763
			c-3.047,2.547-6.551,5.318-7.624,9.325c-0.986,3.682,0.162,7.74,1.188,11.285c1.248,4.315,2.707,8.557,3.691,12.945
			c1.855,8.275,2.431,16.712,2.931,25.154c0.291,4.906,0.49,9.827,0.919,14.724c0.353,4.026,0.733,8.188,1.983,12.052
			c1.238,3.828,3.616,6.49,7.582,7.421c3.704,0.869,7.633,0.694,11.41,0.741c4.556,0.057,9.183,0.322,13.734-0.046
			c3.331-0.269,7.918-1.006,8.511-5.007c0.472-3.187-1.038-6.639-2.616-9.318c-2.174-3.691-5.301-6.34-9.134-8.196
			c-1.833-0.888-3.852-1.62-5.43-2.948c-1.431-1.204-2.284-2.836-2.872-4.583c-1.286-3.823-1.64-7.982-1.88-11.986
			c-0.491-8.182-0.74-17.028,1.716-24.941c1.199-3.865,3.208-7.323,6.122-10.154c2.986-2.902,6.539-5.124,10.056-7.315
			c0.202,0,1.335,5.376,1.44,5.817c0.426,1.796,0.82,3.599,1.208,5.403c0.777,3.625,1.462,7.271,2.074,10.927
			c1.28,7.654,2.249,15.363,3.042,23.082c0.789,7.679,0.977,15.455,2.063,23.096c0.443,3.119,1.164,6.202,2.457,9.086
			c1.276,2.845,3.169,6.228,6.458,6.959c3.306,0.735,7.06,0.464,10.429,0.506c3.886,0.049,7.798-0.006,11.659-0.486
			c3.083-0.383,6.804-0.946,9.043-3.308c2.341-2.468,2.031-6.271,1.172-9.31c-0.815-2.883-2.387-5.703-4.84-7.496
			c-2.43-1.777-5.465-2.038-8.326-2.624c-2.973-0.609-5.696-1.69-7.318-4.425c-1.673-2.821-2.254-6.272-2.665-9.481
			c-0.498-3.888-0.639-7.817-0.784-11.731c-0.134-3.644-0.273-7.301-0.114-10.946c0.132-3.036,0.487-6.091,1.383-9.005
			c1.076-3.499,3.013-6.556,5.445-9.266c4.971-5.539,11.249-9.777,16.872-14.603c5.516-4.735,10.541-10.048,15.191-15.629
			c4.861-5.835,9.317-12.013,13.336-18.457c2.093-3.358,4.026-6.802,6.004-10.228c1.915-3.319,4.144-6.494,7.615-8.332
			c3.017-1.597,6.39-2.393,9.499-3.784c1.414-0.633,2.786-1.375,4.029-2.303c0.232-0.173,0.597-0.619,0.867-0.696
			c0.4-0.114,1.187,0.162,1.597,0.219c0.966,0.132,1.934,0.253,2.903,0.369c7.763,0.926,15.579,1.415,23.319,2.541
			c7.334,1.067,14.397,2.935,21.258,5.748c7.227,2.963,14.182,6.554,21.434,9.461c6.787,2.721,13.84,4.753,20.944,6.459
			c1.668,0.401,3.339,0.795,5.015,1.161c1.296,0.283,2.592,0.567,3.888,0.85c0.864,0.189,2.575,0.222,3.318,0.725
			c0.491,0.333,0.391,1.596,0.477,2.236c0.116,0.868,0.243,1.734,0.374,2.6c0.282,1.853,0.592,3.702,0.925,5.546
			c1.415,7.847,3.095,15.651,4.33,23.53c1.16,7.401,1.807,14.879,2.147,22.36c0.393,8.643,0.607,17.295,0.892,25.943
			c0.234,7.099,0.002,14.182-0.091,21.28c-0.048,3.668-0.055,7.407,0.603,11.028c0.698,3.843,2.459,6.763,6.339,7.982
			c3.32,1.043,6.936,1.309,10.39,1.546c3.747,0.257,7.514,0.323,11.267,0.162c1.821-0.078,3.642-0.212,5.449-0.447
			c0.805-0.104,1.626-0.316,2.429-0.274c0.844,0.044,1.699,0.22,2.542,0.306c3.848,0.393,7.722,0.535,11.589,0.49
			c3.512-0.041,7.078-0.225,10.532-0.903c3.258-0.64,6.692-1.919,7.085-5.669c0.318-3.027-0.781-6.261-2.15-8.913
			c-1.471-2.848-3.574-5.444-6.656-6.577c-1.543-0.568-3.296-0.819-4.649-1.814c-1.444-1.063-1.934-2.832-2.17-4.531
			c-0.458-3.286-0.134-6.688,0.223-9.967c0.711-6.524,1.94-12.999,3.106-19.454c1.551-8.585,3.102-17.169,4.653-25.754
			c1.807-10,3.614-19.999,5.42-29.999c1.069-5.915,1.997-11.837,2.624-17.818c0.727-6.931,1.031-14.095,3.236-20.764
			c2.145-6.487,6.262-12.106,8.564-18.542c1.203-3.363,1.933-6.84,2.485-10.361c0.289-1.84,0.532-3.687,0.773-5.533
			c0.233-1.785,0.814-3.362,1.339-5.08c2.175-7.121,3.545-14.457,4.496-21.834c0.954-7.395,1.272-14.997,3.315-22.205
			c2.009-7.088,5.796-13.529,8.55-20.332c2.807-6.934,5.067-14.067,7.394-21.172c4.134,1.472,8.717,2.501,13.119,1.837
			c4.573-0.689,8.071-3.674,10.246-7.657c0.605-1.108,1.11-2.269,1.538-3.456c0.213-0.591,0.406-1.188,0.583-1.79
			c0.085-0.29,0.126-0.649,0.255-0.921c0.256-0.537,0.049-0.404,0.68-0.344c2.382,0.224,4.688,0.786,7.101,0.87
			c4.625,0.16,9.14-0.504,13.12-2.993c2.152-1.346,4.126-3.07,6.529-3.969c1.822-0.682,3.795-0.829,5.721-0.936
			c4.937-0.273,9.635-0.681,14.169-2.825c8.283-3.916,16.005-11.448,18.269-20.534c0.236-0.945,0.417-1.904,0.548-2.869
			c0.154-1.14-0.095-2.942,0.392-3.911c0.523-1.039,1.461-1.943,2.019-3.005c0.63-1.2,1.148-2.462,1.554-3.755
			c0.644-2.055,1.162-4.441,0.464-6.551c-0.716-2.164-2.718-3.426-4.769-4.155c-1.129-0.401-2.311-0.658-3.501-0.787
			c-0.581-0.063-1.228,0.014-1.796-0.092c-0.699-0.131-1.329-0.74-1.975-1.114c-2.042-1.18-4.291-1.985-6.543-2.659
			c-5.542-1.659-11.288-2.686-16.937-3.903c-4.146-0.893-9.915-1.792-12.596-5.464c-1.532-2.098-1.838-4.807-2.736-7.186
			c-1.041-2.76-2.985-4.992-5.199-6.894c-7.684-6.602-17.781-11.079-27.627-13.226c-9.709-2.117-20.434-2.789-30.181-0.557
			c-5.191,1.189-10.049,3.473-14.469,6.423c-4.323,2.885-8.21,6.597-10.082,11.542C485.259,238.051,484.799,240.726,484.694,243.401
			z"/>
	</g>
</g>
</svg>
