<?xml version="1.0" encoding="utf-8"?>
<!-- Generator: Adobe Illustrator 25.3.1, SVG Export Plug-In . SVG Version: 6.00 Build 0)  -->
<!DOCTYPE svg PUBLIC "-//W3C//DTD SVG 1.1//EN" "http://www.w3.org/Graphics/SVG/1.1/DTD/svg11.dtd" [
	<!ENTITY ns_flows "http://ns.adobe.com/Flows/1.0/">
	<!ENTITY ns_extend "http://ns.adobe.com/Extensibility/1.0/">
	<!ENTITY ns_ai "http://ns.adobe.com/AdobeIllustrator/10.0/">
	<!ENTITY ns_graphs "http://ns.adobe.com/Graphs/1.0/">
	<!ENTITY ns_vars "http://ns.adobe.com/Variables/1.0/">
	<!ENTITY ns_imrep "http://ns.adobe.com/ImageReplacement/1.0/">
	<!ENTITY ns_sfw "http://ns.adobe.com/SaveForWeb/1.0/">
	<!ENTITY ns_custom "http://ns.adobe.com/GenericCustomNamespace/1.0/">
	<!ENTITY ns_adobe_xpath "http://ns.adobe.com/XPath/1.0/">
]>
<svg version="1.1" xmlns:x="&ns_extend;" xmlns:i="&ns_ai;" xmlns:graph="&ns_graphs;"
	 xmlns="http://www.w3.org/2000/svg" xmlns:xlink="http://www.w3.org/1999/xlink" xmlns:a="http://ns.adobe.com/AdobeSVGViewerExtensions/3.0/"
	 x="0px" y="0px" width="750px" height="750px" viewBox="0 0 750 750" enable-background="new 0 0 750 750" xml:space="preserve">
<metadata>
	<sfw  xmlns="&ns_sfw;">
		<slices></slices>
		<sliceSourceBounds  bottomLeftOrigin="true" height="14742" width="12680.835" x="-6277.062" y="-6776"></sliceSourceBounds>
	</sfw>
</metadata>
<g id="FILL-BACKGROUND">
	<rect fill="#FFFFFF" width="750" height="750"/>
</g>
<g id="N-DIMENSIONS">
</g>
<g id="N-TEXT">
</g>
<g id="AG-DIAGRAM">
	<g>
		<g>
			
				<line fill="none" stroke="#FB8604" stroke-width="3.25" stroke-linecap="round" stroke-linejoin="round" x1="119.446" y1="611.42" x2="121.446" y2="611.42"/>
			
				<line fill="none" stroke="#FB8604" stroke-width="3.25" stroke-linecap="round" stroke-linejoin="round" stroke-dasharray="4.0309,7.0541" x1="128.5" y1="611.42" x2="601.628" y2="611.42"/>
			
				<line fill="none" stroke="#FB8604" stroke-width="3.25" stroke-linecap="round" stroke-linejoin="round" x1="605.155" y1="611.42" x2="607.155" y2="611.42"/>
		</g>
	</g>
</g>
<g id="AG-DETAIL">
	<g id="POLYLINE_1498_">
		<path fill="none" stroke="#FB8604" stroke-width="2" stroke-linecap="round" stroke-linejoin="round" stroke-miterlimit="10" d="
			M551.8,441.416c-1.39-2.523-2.259-6.03-1.643-8.898c0.246-1.145,0.967-1.915,1.47-2.931c0.455-0.919,0.391-1.858,0.142-2.831
			c-0.571-2.229-1.842-4.316-3.171-6.163c-1.826-2.537-4.247-4.508-6.228-6.904c-0.754-0.912-1.451-1.918-1.826-3.052
			c-1.142-3.462,1.635-6.962,4.5-8.619c4.628-2.677,8.564,1.004,13.184,1.433c1.229,0.114,2.991,0.066,3.794-1.018
			c1.186-1.603-0.848-4.487-1.411-5.939c-0.261-0.673-0.664-1.609-0.05-2.19c0.698-0.661,2.365-0.545,3.223-0.69
			c2.136-0.362,3.583-1.495,4.382-3.564c1.218-3.152,1.014-7.097-0.268-10.194c-1.935-4.679-6.57-7.143-9.768-10.821
			c-1.295-1.49-2.307-3.239-2.377-5.261c-0.073-2.104,0.65-4.203,1.352-6.154c1.277-3.546,3.137-7.431,2.287-11.307
			c-0.655-2.991-3.278-4.488-4.716-7.023c-1.595-2.813-0.082-6.158,1.828-8.388c1.527-1.783,3.71-3.179,4.784-5.324
			c0.909-1.817,0.295-3.608-0.671-5.244c-1.634-2.765-3.915-5.118-5.883-7.638c-1.191-1.526-2.608-3.277-3.056-5.222
			c-0.549-2.384,1.313-4.142,2.522-5.954c0.96-1.44,1.461-2.987,1.422-4.716c-0.057-2.571-0.854-5.059-1.012-7.62
			c-0.167-2.703,0.98-4.433,3.641-5.211c2.174-0.636,4.518-0.669,6.763-0.698c3.177-0.04,6.355,0.01,9.532-0.072
			c7.406-0.191,14.835-0.556,22.243-0.294c6.83,0.241,13.58,1.362,20.393,1.839c3.341,0.234,6.685,0.364,10.033,0.458"/>
	</g>
</g>
<g id="AG-HUMANS">
</g>
<g id="AG-PEOPLE">
</g>
<g id="AG-DETAILS">
</g>
<g id="AG-ANIMALS">
	<g id="POLYLINE_3744_">
		
			<path fill="none" stroke="#FB8604" stroke-width="2.75" stroke-linecap="round" stroke-linejoin="round" stroke-miterlimit="10" d="
			M639.933,226.411c-1.02-1.55-2.775-2.226-4.504-2.63c-2.344-0.547-4.938-0.998-7.353-0.704c-2.819,0.343-5.192,2.12-6.574,4.581
			c-1.559,2.777-1.59,5.778,1.227,7.771c2.868,2.029,6.185,3.659,9.248,5.377c1.661,0.931,5.304,3.353,7.191,1.861
			c1.678-1.326,1.642-4.986,1.818-6.804c0.231-2.391,0.38-4.918-0.183-7.278C640.623,227.822,640.359,227.073,639.933,226.411z"/>
	</g>
	<g id="POLYLINE_3743_">
		
			<path fill="none" stroke="#FB8604" stroke-width="2.75" stroke-linecap="round" stroke-linejoin="round" stroke-miterlimit="10" d="
			M638.476,243.023c0.195,2.371,0.022,4.881-1.025,7.055c-1.163,2.416-3.371,4.128-5.581,5.535
			c-3.833,2.441-8.054,4.485-12.463,5.631c-4.85,1.26-9.894,1.184-14.844,0.664c-8.658-0.91-18.191-4.218-26.718-0.871
			c-1.477,0.58-3.222,1.485-3.729,3.105c-0.441,1.409,0.216,2.919,0.996,4.08c1.374,2.043,3.472,3.506,5.738,4.404
			c3.975,1.575,8.435,1.768,12.652,2.011c5.116,0.295,10.311,0.502,15.431,0.197c1.2-0.072,2.392-0.212,3.587-0.342"/>
	</g>
	<g id="POLYLINE_3742_">
		
			<path fill="none" stroke="#FB8604" stroke-width="2.75" stroke-linecap="round" stroke-linejoin="round" stroke-miterlimit="10" d="
			M612.521,274.491c3.447,0.869,7.494,1.792,10.289,4.135c1.451,1.217,2.702,2.411,4.641,2.797c1.547,0.308,3.296,0.073,3.534-1.766
			c0.32-2.466-1.18-5.428-2.497-7.369c-1.589-2.344-3.89-3.911-6.35-5.249c-4.583-2.493-9.744-4.49-14.983-4.902"/>
	</g>
	<g id="POLYLINE_3741_">
		
			<path fill="none" stroke="#FB8604" stroke-width="2.75" stroke-linecap="round" stroke-linejoin="round" stroke-miterlimit="10" d="
			M628.354,281.54c-0.371,1.636-0.563,3.142-1.74,4.447c-1.03,1.142-2.397,1.997-3.729,2.739c-3.363,1.873-7.181,3.218-11.006,3.707
			c-3.721,0.476-7.167-0.451-10.794-1.152c-3.309-0.64-6.401-0.382-9.668,0.408c-4.194,1.014-8.281,2.456-12.623,2.689
			c-0.941,0.051-2.116-0.073-3.041,0.188c-0.928,0.263-0.508,0.644,0.125,1.106c1.625,1.185,3.478,2.033,5.115,3.207
			c0.491,0.352,1.2,0.785,1.465,1.343c0.453,0.954-0.501,1.262-1.062,1.881c-1.043,1.15,0.279,2.326,1.187,3.101
			c2.85,2.434,6.358,3.71,9.548,5.584c0.448,0.263,1.401,0.704,1.001,1.293c-0.248,0.366-1.391,0.481-1.786,0.567
			c-0.91,0.2-3.164,0.365-3.834,1.232c-0.977,1.263,1.887,2.672,2.23,3.724c0.419,1.284-2.23,1.43-2.286,2.912
			c-0.056,1.498,1.276,3.268,1.984,4.494c0.426,0.737,2.206,3.141,1.416,4.025c-0.705,0.789-3.772-0.4-3.628,0.814
			c0.056,0.469,0.9,1.111,1.24,1.432c0.785,0.741,1.626,1.422,2.459,2.108c2.482,2.045,5.926,4.509,4.035,8.242
			c-1.305,2.577-4.548,1.083-6.616,2.231c-2.72,1.51,1.797,6.956-2.586,7.169c-0.882,0.043-3.924-0.694-4.188,0.533
			c-0.228,1.064,1.328,2.692,1.723,3.621c0.809,1.903-0.884,1.95-2.345,2.231c-1.545,0.298-1.943,1.005-1.448,2.489
			c0.767,2.298,1.981,4.306,2.286,6.744c0.188,1.5,0.261,3.495-0.589,4.827c-1.511,2.369-5.993,0.141-8.082,0.04
			c-2.13-0.103-1.287,1.54-0.543,2.77c1.161,1.919,2.529,3.707,3.639,5.659c1.115,1.96,2.254,4.304,0.755,6.381
			c-0.799,1.108-2.159,1.849-2.758,3.088c-0.506,1.047,0.067,2.031,0.65,2.909c0.676,1.019,2.797,2.958,0.976,3.816
			c-1.061,0.5-2.286,0.577-3.292,1.217c-2.587,1.648-0.28,5.804,0.649,7.77c0.954,2.017,2.04,3.975,2.917,6.027
			c0.364,0.851,1.112,2.36,0.771,3.316c-0.844,2.369-5.672-0.634-6.025,2.515c-0.237,2.12,2.688,7.406-0.353,8.401
			c-2.48,0.811-7.399-1.009-7.739,2.845c-0.142,1.613,0.27,3.276,0.484,4.861c0.161,1.194,0.611,3.37-0.865,3.881
			c-1.459,0.505-3.776-0.48-5.15-0.815c-1.205-0.293-2.8-0.758-4.01-0.27c-2.545,1.028-1.331,6.537-1.194,8.367
			c0.075,1.007,0.457,3.196-0.539,3.87c-1.038,0.703-3.06-0.888-3.669,0.532c-0.555,1.293,0.368,3.786,0.613,5.011
			c0.168,0.842,0.896,3.193-0.178,3.649c-0.965,0.41-2.552-0.575-3.582-0.698c-1.684-0.201-2.805,0.647-3.788,1.95
			c-0.992,1.316-1.656,2.848-2.637,4.169c-0.462,0.622-0.979,1.244-1.815,1.022c-0.586-0.155-1.045-0.869-1.648-0.917
			c-1.251-0.099-1.498,2.864-1.658,3.737c-0.346,1.892-0.577,3.862-1.202,5.691c-0.689,2.016-1.592,2.081-3.449,1.577
			c-1.861-0.506-2.74,0.661-3.377,2.323c-1.257,3.276-1.456,7.047-1.487,10.517c-0.042,4.674,0.599,9.318,1.008,13.965
			c0.801,9.108-0.005,18.435,2.088,27.402c0.996,4.268,2.676,8.369,3.413,12.698c0.714,4.193,0.055,8.369-0.415,12.551
			c-0.396,3.52-0.485,6.941,0.484,10.377c1.169,4.148,3.323,7.933,4.901,11.926c1.86,4.707,3.193,10.333,8.783,11.515
			c6.868,1.452,14.758-0.546,20.999,3.42c4.229,2.688,7.208,8.254,7.406,13.217c0.11,2.75-1.442,4.481-3.923,5.384
			c-3.683,1.341-7.847,1.614-11.726,1.887c-9.282,0.654-18.844,0.726-28.108-0.21c-3.242-0.327-6.658-0.811-9.596-2.31
			c-1.401-0.715-2.629-1.677-3.833-2.679c-1.761-1.465-3.587-2.776-5.533-3.987c-1.261-0.785-2.708-1.564-2.968-3.172
			c-0.233-1.439,0.291-3.016,0.507-4.414c0.166-1.072,0.382-2.404-0.237-3.369c-0.946-1.472-3.274-1.366-4.106-2.925
			c-1.073-2.012,1.788-5.991-1.928-5.74c-2.732,0.185-5.408,1.062-7.725-0.954c-1.757-1.529-1.869-3.549-2.615-5.617
			c-1.262-3.5-5.709-2.797-8.678-3.307c-2.718-0.467-4.123-2.025-4.593-4.656c-0.571-3.195-0.179-7.158-2.346-9.848
			c-1.626-2.019-4.268-2.957-5.732-5.135c-1.474-2.193-1.063-5.123-0.826-7.591c0.396-4.134,0.721-8.309-0.577-12.331
			c-0.533-1.652-1.835-5.186-4.117-4.585c-1.409,0.371-2.642,2.454-4.193,2.193c-1.153-0.193-1.708-1.719-1.986-2.714
			c-0.36-1.29-0.388-2.633,0.018-3.914c0.992-3.13,3.204-5.868,4.527-8.879c1.079-2.456,2.482-5.785,1.449-8.477
			c-0.736-1.919-2.497-3.226-3.184-5.182c-0.848-2.415-0.513-5.197-0.055-7.645c1.056-5.65,3.254-10.706,0.959-16.309
			c-1.447-3.535-4.35-6.145-5.918-9.58c-1.626-3.563,1.013-5.802,2.919-8.514c1.449-2.062,1.441-3.962,0.343-6.156
			c-0.835-1.669-1.846-3.223-2.563-4.953c-0.879-2.121-1.507-4.335-2.354-6.467"/>
	</g>
	<g id="POLYLINE_3697_">
		
			<path fill="none" stroke="#FB8604" stroke-width="2.75" stroke-linecap="round" stroke-linejoin="round" stroke-miterlimit="10" d="
			M275.335,460.616c2.51-3.467,4.815-7.052,7.375-10.488c1.716-2.303,3.323-4.784,4.077-7.586
			c1.496-5.567-1.311-11.657,0.844-17.053c0.994-2.489,2.975-4.411,4.083-6.835c1.06-2.316,0.974-4.923,0.762-7.404
			c-0.345-4.035-0.823-8.018-0.672-12.079c0.067-1.789,0.234-3.583,0.612-5.336c0.395-1.829,1.013-3.607,1.268-5.466
			c0.86-6.286-1.902-13.407-5.203-18.623c-0.509-0.804-1.056-1.583-1.651-2.325"/>
	</g>
	<g id="POLYLINE_3696_">
		
			<path fill="none" stroke="#FB8604" stroke-width="2.75" stroke-linecap="round" stroke-linejoin="round" stroke-miterlimit="10" d="
			M189.634,385.057c-0.706,1.422-1.548,2.699-1.655,4.332c-0.064,0.97,0.084,1.95,0.27,2.899c0.908,4.617,2.868,8.98,4.305,13.442
			c0.734,2.278,1.259,4.544,0.995,6.939c-0.489,4.44-2.362,8.625-3.162,13.008c-0.262,1.437-0.347,2.804,0.144,4.209
			c0.504,1.442,1.058,2.786,1.375,4.289c0.83,3.939,1.217,8.384,0.243,12.338c-0.522,2.118-1.688,3.682-3.157,5.254
			c-0.962,1.03-1.873,2.02-2.111,3.461c-0.169,1.022-0.045,2.083,0.108,3.098c0.905,5.981,2.982,13.046-0.82,18.494
			c-1.843,2.641-4.746,4.524-6.166,7.461c-1.095,2.265-1.129,4.873-1.061,7.334c0.092,3.326,0.472,6.858-0.617,10.073
			c-0.772,2.281-2.325,4.212-4.043,5.859c-1.325,1.27-2.95,2.319-4.046,3.811c-1.135,1.545-1.282,3.507-1.744,5.308
			c-0.489,1.909-1.375,3.639-2.611,5.174c-3.699,4.589-10.384,5.486-12.81,11.126c-1.774,4.124-3.383,8.165-5.737,12.015
			c-2.45,4.007-5.595,7.516-8.122,11.468c-1.304,2.04-2.404,4.191-3.523,6.336c-0.79,1.513-1.532,3.186-2.644,4.499
			c-1.665,1.964-2.183-0.963-2.741-2.243c-0.831-1.907-1.95-1.579-3.324-0.358c-2.284,2.031-4.174,4.932-7.135,6.071
			c-1.295,0.498-2.999,0.678-4.142-0.277c-0.85-0.71-1.028-1.85-1.085-2.895c-0.172-3.161,0.166-5.858-1.066-8.86
			c-1.696-4.133-4.342-7.817-5.85-12.036c-2.886-8.076-2.025-17.902,0.34-26.004c1.213-4.156,3.14-8.029,5.021-11.912
			c1.913-3.948,3.929-7.98,4.413-12.399c0.467-4.264-0.363-8.548,0.066-12.811c0.424-4.208,2.412-8.031,4.145-11.82
			c1.895-4.142,3.391-8.343,4.161-12.844c0.78-4.556,1.049-9.17,1.331-13.776c0.599-9.774,1.107-19.484,3.879-28.94
			c1.326-4.523,3.095-8.917,5.318-13.074c2.302-4.303,5.192-8.224,7.917-12.259c2.425-3.591,4.775-7.418,5.742-11.691
			c1.024-4.526,0.414-9.223,0.348-13.809c-0.055-3.846,0.293-7.683,1.866-11.229c1.744-3.93,4.491-7.348,7.285-10.575
			c3.027-3.495,6.325-6.793,9.05-10.539c2.483-3.413,4.318-7.353,7.282-10.4c5.698-5.856,14.609-6.498,20.699-11.694
			c1.87-1.595,3.385-3.286,5.793-4.017c3.936-1.194,8.237-1.034,12.284-1.599c3.18-0.444,6.209-1.197,8.822-3.125
			c2.682-1.979,4.806-5.01,8.457-4.896c2.768,0.086,5.696,1.4,8.245-0.229c2.239-1.43,3.581-3.155,6.473-2.27
			c3.381,1.034,6.18,3.417,9.504,4.595c2.604,0.923,4.618,0.089,7.049-0.862c2.629-1.028,5.333-1.031,8.118-0.793
			c5.264,0.45,10.505,1.117,15.774,1.553c4.171,0.345,8.415,0.689,12.434,1.931c3.153,0.974,6.255,2.746,9.638,2.717
			c3.359-0.029,6.396-1.894,9.491-2.949c1.32-0.45,2.766-0.843,4.132-0.365c1.603,0.561,2.707,1.993,4.053,2.959
			c4.062,2.915,9.044,1.842,13.631,1.105c2.782-0.447,5.96-1.197,8.746-0.34c2.641,0.812,4.083,3.578,6.738,4.271
			c3.146,0.822,6.813-0.468,9.87-1.121c4.308-0.919,8.835-2.159,13.279-1.882c2.331,0.145,4.375,1.406,6.654,1.621
			c2.468,0.232,4.407-2.169,6.596-2.982c2.762-1.025,5.812-0.246,8.595,0.254c2.263,0.407,4.978,1.088,7.233,0.209
			c2.678-1.044,3.637-4.603,6.45-5.258c1.677-0.39,3.611,0.285,5.221,0.657c1.475,0.341,2.962,0.638,4.481,0.666
			c6.391,0.118,13.626-3.917,17.205-9.15c1.724-2.52,2.751-5.414,5.382-7.168c2.919-1.947,6.59-2.775,9.969-3.505
			c4.186-0.905,8.714-1.128,12.736-2.652c3.255-1.234,4.136-3.89,4.636-7.07c0.502-3.199,0.929-6.23,2.997-8.828
			c2.647-3.326,6.419-5.647,9.497-8.543c2.341-2.203,4.689-4.701,5.987-7.69c1.158-2.666,1.139-5.58,1.214-8.435"/>
	</g>
	<g id="POLYLINE_3695_">
		
			<path fill="none" stroke="#FB8604" stroke-width="2.75" stroke-linecap="round" stroke-linejoin="round" stroke-miterlimit="10" d="
			M547.96,197.264c1.686,0.524,2.942,1.209,3.992,2.68c1.587,2.223,2.659,4.898,3.435,7.502c0.666,2.236,1.027,4.568,0.793,6.9
			c-0.221,2.206-1.047,4.316-1.161,6.535c-0.261,5.067,4.961,7.667,7.011,11.765c1.438,2.874,0.73,6.11-0.186,9.036
			c-1.045,3.338-2.325,6.594-3.355,9.938c-0.307,0.998-1.483,6.958-3.115,6.851c-1.112-0.073-1.489-2.622-2.54-0.929
			c-0.701,1.129-0.956,2.622-2.058,3.478c-1.344,1.043-3.148,0.34-4.416-0.475c-1.712-1.101-2.957-2.755-4.277-4.269
			c-0.662-0.759-1.56-1.969-2.644-2.059c-1.058-0.087-2.016,0.902-2.98,1.227c-2.019,0.68-4.356-0.229-6.186-1.082
			c-2.831-1.32-5.424-3.172-7.752-5.241c-3.755-3.338-7.081-7.988-11.991-9.71c-2.44-0.856-5.064-0.937-7.62-1.07
			c-3.107-0.162-6.783,0.074-9.789-0.842c-2.928-0.892-4.795-3.182-4.113-6.315c1.042-4.79,5.142-8.921,8.536-12.185
			c2.313-2.225,4.781-4.29,7.345-6.221c2.23-1.68,4.396-3.5,6.696-5.076c2.501-1.714,5.191-3.15,7.826-4.645
			c3.676-2.086,7.341-4.194,11.029-6.259c5.395-3.02,11.201-6.082,17.48-6.532c3.04-0.218,6.07,0.147,9.074,0.583
			c3.732,0.541,7.474,0.926,11.211,1.42c5.788,0.764,11.12,2.466,15.743,6.124c1.934,1.53,3.705,3.309,5.109,5.343
			c1.671,2.42,2.498,5.205,3.653,7.878c1.48,3.425,4.014,6.009,7.36,7.661c5.373,2.653,11.596,2.372,17.425,2.624
			c3.134,0.136,6.122,0.775,9.172,1.462"/>
	</g>
	<g id="POLYLINE_1246_">
		
			<path fill="none" stroke="#FB8604" stroke-width="2.75" stroke-linecap="round" stroke-linejoin="round" stroke-miterlimit="10" d="
			M162.315,525.118c-0.335,3.205-0.571,6.443-1.655,9.504c-0.894,2.526-2.363,4.779-3.485,7.201
			c-0.874,1.886-1.463,3.672,0.589,4.947c0.943,0.586,1.967,0.984,1.734,2.274c-0.216,1.196-1.019,2.338-1.509,3.429
			c-0.936,2.084-1.513,4.321-1.79,6.587c-0.168,1.368-0.645,4.435,0.771,5.277c1.024,0.609,1.78,0.163,2.114,1.597
			c0.192,0.823,0.171,1.72,0.156,2.557c-0.056,3.067-0.559,6.135-0.373,9.205c0.039,0.645,0.095,1.32,0.287,1.941
			c0.154,0.497,0.367,0.985,0.85,1.235c0.474,0.246,1.082,0.074,1.545,0.358c1.628,0.998,0.899,5.461,0.854,6.932
			c-0.075,2.485-0.424,5.124,1.335,7.132c1.392,1.589,3.167,2.823,4.414,4.546c1.244,1.719,0.799,3.742,1.664,5.561
			c0.722,1.518,2.265,2.579,3.711,3.343c4.403,2.325,9.62,2.54,14.49,2.564c3.534,0.017,7.068-0.13,10.602-0.173
			c3.254-0.04,6.502,0.158,9.755,0.156c4.041-0.003,8.303-0.473,9.386-5.133c0.594-2.559,0.36-5.493-0.617-7.934
			c-1.28-3.195-4.165-6.092-7.019-7.91c-3.03-1.931-6.601-1.594-9.874-2.817c-3.652-1.365-6.199-4.878-7.686-8.343
			c-2.09-4.87-1.965-10.233-1.126-15.375c1.004-6.151,2.666-12.257,4.815-18.105c2.128-5.791,4.829-11.353,8.265-16.485
			c3.66-5.467,8.082-10.373,12.597-15.139c5.283-5.576,10.655-11.069,15.982-16.602c3.957-4.11,7.915-8.231,12.3-11.893
			c2.605-2.176,5.292-4.259,7.854-6.486c2.466-2.143,4.536-4.548,6.721-6.963c1.089-1.204,2.496-2.807,4.297-2.459
			c2.051,0.396,3.266,2.196,5.108,0.239c3.204-3.405,4.316-8.427,8.001-11.426c2.038-1.658,5.315-3.231,8.041-2.674
			c2.265,0.463,2.81,2.733,3.46,4.62c0.213,0.617,0.468,1.668,1.054,2.029c0.888,0.548,2.078-0.535,2.805-0.949
			c2.104-1.198,3.543-0.316,5.06,1.304c2.119,2.263,3.961,4.725,6.247,6.835c1.566,1.445,3.284,2.906,5.235,3.809
			c2.098,0.971,3.534,0.479,4.224-1.749c0.392-1.267,0.561-4.95,2.563-4.783c2.07,0.172,4.26,2.777,5.581,4.111
			c4.302,4.347,7.96,9.673,12.854,13.39c0.729,0.554,1.936,1.506,2.939,1.148c0.867-0.309,1.13-1.466,1.277-2.262
			c0.327-1.765-0.241-3.556,0.029-5.281c0.342-2.18,4.109,0.054,5.176,0.616c2.519,1.329,4.916,2.914,7.2,4.613
			c2.218,1.649,4.175,3.681,6.459,5.229c0.698,0.473,1.55,0.988,2.017,0.009c0.469-0.981,0.319-2.522,0.365-3.558
			c0.062-1.421-0.021-5.393,1.788-5.881c1.803-0.486,4.803,3.693,5.709,4.648c3.633,3.827,7.995,7.685,13.102,9.377
			c0.781,0.259,1.933,0.662,2.723,0.254c0.968-0.501,0.701-1.924,0.621-2.814c-0.144-1.596-0.575-5.641,2.079-5.233
			c0.923,0.142,1.816,0.76,2.589,1.256c1.457,0.934,2.857,1.962,4.28,2.948c2.472,1.713,5.034,3.279,7.685,4.699
			c2.758,1.478,5.592,2.842,8.522,3.944c1.574,0.592,3.803,1.581,5.575,1.289c2.428-0.4-0.426-4.193-1.026-5.166
			c-0.193-0.312-1.536-2.105-1.109-2.512c0.438-0.419,2.389,0.808,2.798,1.02c5.704,2.956,11.159,5.938,17.711,6.303
			c2.954,0.164,5.907-0.223,8.855-0.064c1.923,0.103,3.497,0.913,5.288,1.54c4.019,1.408,8.855,1.145,12.969,0.312"/>
	</g>
	<g id="POLYLINE_1099_">
		
			<path fill="none" stroke="#FB8604" stroke-width="2.75" stroke-linecap="round" stroke-linejoin="round" stroke-miterlimit="10" d="
			M213.95,610.637c0.774,0.454,1.622,0.585,2.504,0.61c1.974,0.055,3.958,0.047,5.933,0.063c2.171,0.018,4.593,0.08,6.63-0.813
			c3.879-1.702,3.846-7.307,2.959-10.812c-0.934-3.691-3.889-6.849-6.919-8.988c-3.326-2.348-7.311-1.83-10.917-3.391
			c-4.212-1.823-6.931-6.469-8.119-10.715c-1.81-6.474-0.318-13.447,1.235-19.813c1.683-6.896,3.996-13.681,7.2-20.025
			c3.114-6.166,7.181-11.628,11.656-16.862c5.228-6.115,10.541-12.154,15.13-18.775c4.698-6.778,8.688-14.042,12.837-21.16
			c0.733-1.258,1.487-2.502,2.237-3.75"/>
	</g>
</g>
<g id="AG-OUTLINE">
	<g id="POLYLINE_1001_">
		
			<path fill="none" stroke="#FB8604" stroke-width="3.5" stroke-linecap="round" stroke-linejoin="round" stroke-miterlimit="10" d="
			M639.933,226.411c-1.49-2.263-4.496-2.697-6.949-3.078c-1.481-0.23-2.991-0.418-4.492-0.297c-0.882,0.071-1.642,0.368-2.508,0.173
			c-2.354-0.53-4.691-1.053-7.104-1.23c-2.434-0.178-4.88-0.179-7.318-0.296c-3.693-0.177-7.46-0.584-10.867-2.113
			c-2.319-1.04-4.461-2.561-6.039-4.569c-2.21-2.813-2.872-6.44-4.546-9.546c-3.256-6.04-9.708-10.414-16.246-12.13
			c-4.611-1.21-9.411-1.395-14.112-2.077c-4.463-0.647-8.971-1.44-13.483-0.809c-4.294,0.6-8.346,2.421-12.171,4.387
			c-4.878,2.508-9.599,5.342-14.367,8.048c-3.553,2.016-7.324,3.897-10.443,6.566c-3.253,2.784-6.867,5.115-10.066,7.996
			c-3.26,2.936-6.472,6.196-8.673,10.024c-0.911,1.585-1.754,3.437-1.711,5.311c0.055,2.377,1.808,3.879,3.901,4.602
			c0.559,0.193,1.038,0.16,1.199,0.647c0.301,0.912-0.056,2.638-0.144,3.637c-0.106,1.202-0.31,2.399-0.696,3.545
			c-2.514,7.456-10.428,11.021-15.332,16.567c-1.979,2.238-2.781,4.775-3.244,7.687c-0.55,3.455-0.802,7.058-4.43,8.635
			c-3.709,1.613-8.085,1.798-12.01,2.593c-3.685,0.747-7.694,1.563-10.921,3.595c-2.573,1.619-3.653,4.219-5.222,6.706
			c-1.889,2.994-4.691,5.258-7.769,6.957c-2.894,1.597-6.194,2.803-9.535,2.819c-1.516,0.007-3.01-0.262-4.483-0.597
			c-1.658-0.377-3.603-1.079-5.339-0.766c-2.905,0.524-3.901,4.184-6.576,5.27c-2.302,0.934-5.107,0.209-7.422-0.207
			c-2.785-0.5-5.813-1.253-8.565-0.194c-2.207,0.849-4.159,3.263-6.682,2.922c-2.313-0.313-4.355-1.507-6.738-1.611
			c-4.691-0.204-9.451,1.135-13.996,2.105c-2.905,0.62-6.649,1.89-9.582,0.68c-2.494-1.029-3.854-3.593-6.615-4.188
			c-5.931-1.278-11.946,2.336-17.921,1.087c-1.597-0.334-3.061-1.039-4.338-2.05c-1.353-1.07-2.59-2.571-4.403-2.808
			c-1.507-0.197-3.091,0.447-4.47,0.984c-2.971,1.158-6.009,2.778-9.298,2.484c-3.562-0.318-6.786-2.248-10.226-3.106
			c-4.695-1.17-9.594-1.394-14.397-1.792c-4.7-0.389-9.394-1.198-14.104-1.383c-1.426-0.056-2.879-0.031-4.279,0.275
			c-1.472,0.323-2.803,1.034-4.221,1.517c-2.243,0.764-4.254,0.33-6.338-0.649c-2.912-1.369-5.797-3.75-9.063-4.215
			c-2.856-0.407-4.194,2.341-6.637,3.128c-2.878,0.927-5.908-0.937-8.831-0.225c-3.258,0.793-5.367,4.166-8.223,5.774
			c-3.056,1.72-6.72,2.096-10.147,2.427c-3.452,0.334-7.486,0.249-10.7,1.767c-2.355,1.113-3.929,3.313-6.079,4.733
			c-3.763,2.485-8.213,3.843-12.241,5.828c-3.426,1.688-6.405,3.756-8.702,6.841c-2.702,3.628-4.783,7.626-7.715,11.099
			c-5.365,6.355-12.543,12.465-14.975,20.721c-2.587,8.784,1.086,18.1-2.692,26.702c-1.975,4.496-5.001,8.465-7.756,12.496
			c-2.706,3.959-5.115,8.076-7.001,12.493c-3.686,8.634-5.408,17.84-6.103,27.165c-0.715,9.59-0.379,19.72-3.224,29.01
			c-1.374,4.487-3.66,8.58-5.388,12.924c-1.509,3.793-1.84,7.441-1.672,11.492c0.185,4.447,0.211,8.62-1.316,12.861
			c-1.635,4.543-4.097,8.74-6.016,13.161c-3.436,7.914-4.831,16.828-3.873,25.416c0.492,4.411,2.053,8.254,4.122,12.142
			c1.682,3.161,3.762,6.427,4.174,10.062c0.252,2.218-0.947,6.474,1.28,8.058c2.304,1.639,5.348-0.341,7.071-1.897
			c1.469-1.327,2.715-2.894,4.224-4.176c0.481-0.408,1.2-1.071,1.894-0.956c0.783,0.13,1.12,1.139,1.376,1.777
			c0.271,0.677,0.49,1.945,1.069,2.453c0.73,0.64,1.378-0.273,1.812-0.86c1.15-1.556,1.975-3.377,2.866-5.086
			c4.3-8.242,10.788-14.978,14.679-23.465c1.205-2.627,1.865-5.741,3.701-8.033c1.969-2.457,5.228-3.512,7.761-5.239
			c0,3.393-0.72,7.28-2.004,10.418c-1.116,2.73-3.031,5.188-3.823,8.041c-0.391,1.409-0.08,2.324,1.163,3.124
			c1.133,0.729,2.217,1.135,1.753,2.677c-0.435,1.445-1.318,2.749-1.861,4.158c-0.451,1.17-0.784,2.386-1.033,3.614
			c-0.339,1.671-1.182,5.402,0.106,6.889c0.465,0.537,1.097,0.354,1.671,0.648c0.54,0.277,0.704,0.794,0.82,1.359
			c0.232,1.135,0.15,2.364,0.095,3.508c-0.144,3.044-0.719,6.261-0.218,9.3c0.232,1.407,0.633,1.872,1.965,2.201
			c1.239,0.307,1.363,1.418,1.459,2.552c0.27,3.158-0.713,6.675,0.197,9.748c0.76,2.568,3.646,4.101,5.253,6.104
			c0.562,0.7,1.011,1.446,1.231,2.327c0.319,1.278,0.185,2.623,0.83,3.816c0.924,1.71,2.832,2.831,4.552,3.6
			c6.087,2.721,13.233,2.137,19.725,2.016c4.179-0.078,8.329-0.042,12.507,0.052c1.55,0.035,3.112,0.052,4.656-0.109
			c0.818-0.086,1.937-0.555,2.692-0.464c0.845,0.102,1.612,0.535,2.525,0.553c1.977,0.04,3.959,0.049,5.937,0.063
			c2.302,0.016,5.047,0.098,7.112-1.122c3.423-2.024,3.207-7.622,2.229-10.952c-1.082-3.683-4.256-6.964-7.423-8.96
			c-3.626-2.284-8.236-1.428-11.807-3.797c-3.961-2.628-6.336-7.523-7.088-12.098c-1.147-6.977,0.755-14.365,2.623-21.057
			c1.979-7.087,4.659-14.01,8.368-20.38c4.01-6.887,9.344-12.769,14.499-18.799c4.823-5.641,9.391-11.468,13.339-17.762
			c2.044-3.258,3.976-6.581,5.913-9.903c1.33-2.282,2.661-4.565,3.991-6.847c0.762-1.307,1.446-2.742,2.463-3.857
			c1.72-1.885,3.442-4.795,5.848-5.918c2.169-1.013,4.035,1.903,5.983,0.747c1.16-0.689,2.009-2.206,2.715-3.313
			c0.993-1.557,1.863-3.187,2.81-4.771c1.147-1.917,2.478-3.632,4.38-4.849c2.788-1.784,7.784-3.511,9.58,0.423
			c0.471,1.031,0.713,2.148,1.155,3.189c0.548,1.289,1.213,1.526,2.428,0.869c1.097-0.593,2.198-1.591,3.539-1.28
			c1.06,0.246,1.913,1.147,2.631,1.914c2.537,2.711,4.727,5.625,7.596,8.021c1.498,1.251,3.85,3.288,5.981,3.169
			c2.365-0.132,2.411-3.952,2.98-5.563c1.088-3.079,4.02-0.463,5.525,0.894c2.966,2.675,5.549,5.774,8.228,8.727
			c2.139,2.357,4.304,5.011,6.98,6.786c1.016,0.674,2.327,1.288,3.125,0.014c0.434-0.694,0.549-1.62,0.623-2.425
			c0.119-1.285-0.066-2.527-0.093-3.809c-0.033-1.562,0.833-1.716,2.199-1.298c6.229,1.907,11.118,6.968,16.152,10.8
			c0.596,0.453,1.666,1.4,2.34,0.693c0.775-0.813,0.503-3.339,0.549-4.288c0.074-1.521,0.263-6.594,2.874-5.245
			c1.066,0.551,1.941,1.608,2.752,2.463c1.444,1.521,2.863,3.073,4.394,4.508c2.463,2.31,5.256,4.348,8.283,5.856
			c1.433,0.714,5.422,2.716,5.691-0.084c0.156-1.621-1.261-6.861,1.754-6.778c1.094,0.03,2.247,0.895,3.131,1.476
			c1.592,1.047,3.128,2.179,4.704,3.25c3.126,2.123,6.411,4,9.804,5.663c2.961,1.451,6.105,2.952,9.354,3.616
			c0.709,0.145,1.841,0.42,2.49,0.005c0.948-0.606,0.126-2.006-0.265-2.751c-0.682-1.302-1.625-2.474-2.25-3.803
			c-0.796-1.693,1.11-0.691,1.937-0.283c3.45,1.704,6.751,3.687,10.375,5.022c3.313,1.221,6.782,1.686,10.301,1.678
			c2.753-0.006,5.718-0.542,8.428,0.145c2.271,0.576,4.241,1.694,6.603,1.988c2.949,0.368,6.012,0.255,8.939-0.247
			c0.996-0.171,0.812-0.018,1.213,0.845c0.12,0.258,0.259,0.506,0.407,0.748c0.566,0.922,1.316,1.715,1.9,2.624
			c1.109,1.727,1.105,3.613,0.636,5.559c-0.695,2.884-2.061,5.625-3.497,8.202c-0.988,1.774-2.337,3.599-2.698,5.654
			c-0.195,1.11-0.064,2.267,0.279,3.336c0.285,0.891,0.81,2.188,1.827,2.42c1.324,0.302,2.616-1.368,3.681-1.922
			c4.67-2.428,5.684,9.372,5.657,11.419c-0.062,4.782-2.275,10.782,1.915,14.425c1.739,1.512,3.936,2.548,5.009,4.693
			c1.301,2.602,1.109,5.73,1.577,8.527c0.349,2.088,1.201,3.894,3.395,4.554c2.53,0.761,5.357,0.264,7.82,1.255
			c2.386,0.96,2.227,3.705,3.11,5.734c0.796,1.831,2.411,3.201,4.41,3.5c1.986,0.297,4.183-0.864,6.075-0.307
			c2.044,0.602-0.277,4.555,1.018,6.079c0.972,1.144,2.782,1.182,3.717,2.379c0.635,0.813,0.566,1.924,0.457,2.894
			c-0.253,2.244-1.52,5.118,0.456,6.933c1.146,1.052,2.651,1.735,3.935,2.601c1.554,1.049,2.948,2.266,4.412,3.431
			c1.806,1.438,3.751,2.468,5.972,3.099c7.234,2.054,15.275,1.717,22.722,1.739c7.333,0.022,15.221,0.074,22.348-1.858
			c1.887-0.511,4.02-1.313,4.858-3.242c0.737-1.696,0.359-3.777-0.109-5.498c-1.209-4.451-3.86-8.822-8.091-10.939
			c-5.744-2.872-12.564-1.681-18.713-2.562c-1.415-0.203-2.85-0.544-4.073-1.314c-1.784-1.123-2.811-3.034-3.643-4.906
			c-1.58-3.556-2.868-7.228-4.477-10.778c-1.323-2.919-2.624-5.889-3.145-9.074c-1.09-6.657,1.566-13.302,0.562-19.984
			c-0.566-3.768-1.929-7.363-2.934-11.023c-0.975-3.55-1.52-7.154-1.794-10.823c-0.598-8.002-0.592-16.003-1.355-23.999
			c-0.591-6.198-1.328-13.373,1.012-19.324c0.485-1.233,1.231-2.595,2.742-2.387c1.2,0.166,2.476,1.114,3.425-0.091
			c0.748-0.949,0.972-2.481,1.207-3.631c0.351-1.718,0.562-3.468,0.985-5.17c0.128-0.515,0.248-1.381,0.671-1.742
			c0.545-0.465,0.965-0.066,1.487,0.255c1.207,0.742,1.853,0.459,2.681-0.698c1.358-1.897,2.571-5.641,5.278-6.019
			c1.035-0.144,2.076,0.224,3.057,0.492c1.341,0.367,2.194,0.347,2.107-1.283c-0.076-1.439-0.506-2.866-0.772-4.274
			c-0.152-0.805-0.674-2.637,0.047-3.271c0.847-0.745,2.31,0.399,3.28-0.061c0.811-0.385,0.776-1.535,0.779-2.315
			c0.01-2.725-1.038-5.989-0.079-8.654c1.016-2.825,5.291-1.039,7.269-0.56c0.986,0.239,2.573,0.771,3.482,0.109
			c0.952-0.692,0.635-2.375,0.51-3.374c-0.246-1.973-1.646-6.331,0.885-7.406c1.942-0.825,6.072,0.643,7.378-1.328
			c0.612-0.924,0.224-2.366,0.017-3.37c-0.279-1.35-0.845-2.862-0.718-4.267c0.221-2.456,3.487-1.307,5.079-1.789
			c2.302-0.697-0.065-4.694-0.657-5.906c-1.353-2.771-3.138-5.628-3.776-8.685c-0.589-2.82,1.339-3.541,3.603-4.272
			c1.282-0.414,1.87-0.907,1.074-2.206c-0.566-0.925-1.338-1.725-1.823-2.701c-1.23-2.474,1.745-3.669,2.849-5.508
			c0.996-1.659,0.332-3.468-0.463-5.054c-0.846-1.687-1.937-3.24-2.978-4.808c-0.66-0.995-1.946-2.433-2.066-3.673
			c-0.193-2.001,5.599-0.129,6.408-0.021c2.322,0.31,3.451-0.821,3.717-3.054c0.158-1.323,0.035-2.686-0.254-3.982
			c-0.456-2.048-1.639-3.82-2.177-5.828c-0.911-3.398,5.029-1.142,4.018-4.098c-0.346-1.011-1.051-1.869-1.502-2.83
			c-0.806-1.717,0.535-1.743,1.962-1.671c1.089,0.054,2.864,0.421,3.631-0.616c0.756-1.022,0.132-2.768,0.022-3.884
			c-0.126-1.281-0.014-2.394,1.373-2.797c1.023-0.297,2.138-0.238,3.185-0.375c2.685-0.352,3.795-2.511,3.188-5.14
			c-0.278-1.204-1.118-2.038-2.017-2.825c-1.384-1.211-2.857-2.318-4.231-3.54c-0.457-0.406-2.425-1.928-1.554-2.449
			c0.852-0.51,2.957,0.705,3.528-0.505c0.411-0.872-0.886-2.662-1.287-3.362c-0.716-1.249-1.566-2.506-2.026-3.883
			c-0.527-1.576,0.182-2.103,1.446-2.877c1.473-0.902-0.06-1.933-0.863-2.811c-0.96-1.05-1.378-1.943,0.214-2.543
			c1.07-0.403,2.232-0.541,3.338-0.805c1.329-0.318,1.922-0.784,0.452-1.681c-1.482-0.906-3.109-1.571-4.638-2.395
			c-2.108-1.136-4.861-2.472-6.259-4.521c-1.151-1.688,0.763-1.666,1.189-2.977c0.345-1.061-1.471-2.047-2.21-2.535
			c-1.45-0.958-3.036-1.726-4.442-2.748c-1.699-1.236,0.485-1.199,1.56-1.25c3.795-0.183,7.303-0.979,10.964-1.967
			c3.026-0.817,6.134-1.723,9.3-1.612c3.09,0.108,6.044,1.152,9.095,1.552c5.908,0.774,12.351-1.244,17.308-4.429
			c2.267-1.457,3.542-3.084,4.074-5.726c0.175-0.87,0.238-0.61,1.059-0.76c0.585-0.107,1.112-0.353,1.431-0.875
			c0.51-0.835,0.334-2.001,0.147-2.911c-0.734-3.577-2.872-6.81-5.833-8.918c-5.033-3.583-11.69-6.169-17.854-6.654
			c4.926,0.326,9.797,0.01,14.504-1.564c4.584-1.533,9.501-3.885,13.134-7.117c1.626-1.447,2.817-3.2,3.352-5.323
			c0.36-1.428,0.448-2.918,0.379-4.385c-0.035-0.741-0.009-0.557,0.49-0.967c0.417-0.342,0.697-0.704,0.924-1.195
			c0.24-0.52,0.377-1.092,0.494-1.65c0.518-2.466,0.747-5.079,0.744-7.598C641.172,230.365,641.032,228.113,639.933,226.411z"/>
	</g>
</g>
</svg>
