<?xml version="1.0" encoding="utf-8"?>
<!-- Generator: Adobe Illustrator 25.3.1, SVG Export Plug-In . SVG Version: 6.00 Build 0)  -->
<!DOCTYPE svg PUBLIC "-//W3C//DTD SVG 1.1//EN" "http://www.w3.org/Graphics/SVG/1.1/DTD/svg11.dtd" [
	<!ENTITY ns_flows "http://ns.adobe.com/Flows/1.0/">
	<!ENTITY ns_extend "http://ns.adobe.com/Extensibility/1.0/">
	<!ENTITY ns_ai "http://ns.adobe.com/AdobeIllustrator/10.0/">
	<!ENTITY ns_graphs "http://ns.adobe.com/Graphs/1.0/">
	<!ENTITY ns_vars "http://ns.adobe.com/Variables/1.0/">
	<!ENTITY ns_imrep "http://ns.adobe.com/ImageReplacement/1.0/">
	<!ENTITY ns_sfw "http://ns.adobe.com/SaveForWeb/1.0/">
	<!ENTITY ns_custom "http://ns.adobe.com/GenericCustomNamespace/1.0/">
	<!ENTITY ns_adobe_xpath "http://ns.adobe.com/XPath/1.0/">
]>
<svg version="1.1" xmlns:x="&ns_extend;" xmlns:i="&ns_ai;" xmlns:graph="&ns_graphs;"
	 xmlns="http://www.w3.org/2000/svg" xmlns:xlink="http://www.w3.org/1999/xlink" xmlns:a="http://ns.adobe.com/AdobeSVGViewerExtensions/3.0/"
	 x="0px" y="0px" width="750px" height="750px" viewBox="0 0 750 750" enable-background="new 0 0 750 750" xml:space="preserve">
<metadata>
	<sfw  xmlns="&ns_sfw;">
		<slices></slices>
		<sliceSourceBounds  bottomLeftOrigin="true" height="14742" width="12680.835" x="-6277.062" y="-6776"></sliceSourceBounds>
	</sfw>
</metadata>
<g id="FILL-BACKGROUND">
	<rect fill="#FFFFFF" width="750" height="750"/>
</g>
<g id="N-DIMENSIONS">
</g>
<g id="N-TEXT">
</g>
<g id="AG-DIAGRAM">
	<g>
		<g>
			
				<line fill="none" stroke="#FB8604" stroke-width="3.25" stroke-linecap="round" stroke-linejoin="round" x1="155.319" y1="592.397" x2="157.319" y2="592.397"/>
			
				<line fill="none" stroke="#FB8604" stroke-width="3.25" stroke-linecap="round" stroke-linejoin="round" stroke-dasharray="3.9584,6.9272" x1="164.246" y1="592.397" x2="574.434" y2="592.397"/>
			
				<line fill="none" stroke="#FB8604" stroke-width="3.25" stroke-linecap="round" stroke-linejoin="round" x1="577.898" y1="592.397" x2="579.898" y2="592.397"/>
		</g>
	</g>
</g>
<g id="AG-DETAIL">
</g>
<g id="AG-HUMANS">
</g>
<g id="AG-PEOPLE">
</g>
<g id="AG-DETAILS">
</g>
<g id="AG-ANIMALS">
	<g id="POLYLINE_1134_">
		
			<path fill="none" stroke="#FB8604" stroke-width="2.75" stroke-linecap="round" stroke-linejoin="round" stroke-miterlimit="10" d="
			M551.572,279.043c-5.533,1.207-6.171,6.345-6.806,11.107c-0.889,6.662-6.035,11.966-7.867,18.373
			c-0.911,3.187-0.78,6.535-1.597,9.732c-0.607,2.374-1.538,4.464-0.646,6.893c1.04,2.834,3.222,5.186,5.07,7.507
			c1.193,1.498,2.543,3.151,2.841,5.111c0.361,2.371-0.248,4.334,1.435,6.332c0.951,1.129,2.22,2.025,3.578,2.597
			c1.322,0.557,2.715,0.714,4.138,0.592c1.693-0.146,3.34-0.614,5.016-0.873c1.546-0.238,3.136-0.345,4.647-0.774
			c2.77-0.787,4.158-2.989,5.171-5.506c1.173-2.916,2.244-5.179,4.36-7.534c3.039-3.383,6.855-6.315,7.344-11.113
			c0.325-3.188-0.449-6.331-1.319-9.371c-0.516-1.803-1.03-3.568-1.265-5.432c-0.245-1.952-0.475-3.887-1.013-5.787
			c-0.842-2.972-2.656-5.526-4.045-8.256c-1.296-2.546-2.062-4.776-2.572-7.535c-0.331-1.788-0.944-3.525-1.568-5.228"/>
	</g>
	<g id="POLYLINE_1133_">
		
			<path fill="none" stroke="#FB8604" stroke-width="2.75" stroke-linecap="round" stroke-linejoin="round" stroke-miterlimit="10" d="
			M658.261,291.025c-1.399,0.447-3.06-0.211-4.255-0.966c-1.55-0.979-2.021-2.653-2.366-4.344c-0.596-2.927-0.91-5.977-1.133-8.953
			c-0.11-1.471-0.134-3.091,0.764-4.346c1.906-2.664,6.36-3.218,9.331-3.206c1.384,0.006,3.489-0.004,4.193,1.441
			c0.643,1.319,0.296,3.253,0.085,4.613c-0.442,2.855-1.2,5.687-2.145,8.414c-0.745,2.15-1.568,4.837-3.21,6.503
			C659.162,290.547,658.752,290.858,658.261,291.025z"/>
	</g>
	<g id="POLYLINE_1132_">
		
			<path fill="none" stroke="#FB8604" stroke-width="2.75" stroke-linecap="round" stroke-linejoin="round" stroke-miterlimit="10" d="
			M454.813,380.207c0.022,2.888-0.102,5.55-0.815,8.353c-0.855,3.36-1.748,6.688-1.815,10.177c-0.05,2.582,0.152,5.275,0.95,7.745
			c0.538,1.666,1.88,3.025,2.03,4.8c0.235,2.776-0.713,5.747-1.157,8.452c-0.579,3.53-0.745,7.11-0.599,10.682
			c0.129,3.169,0.383,6.451,1.198,9.528c0.214,0.808,0.55,2.304,1.651,2.039c0.669-0.16,1.681-1.772,2.331-1.586
			c1.239,0.354-0.582,6.092-0.79,6.784c-0.87,2.907-1.803,5.668-1.89,8.735c-0.043,1.523,0.081,3.102,0.708,4.51
			c0.663,1.487,2.735,3.127,1.952,4.846c-0.729,1.6-1.957,2.819-2.542,4.52c-0.613,1.781-0.955,3.716-0.991,5.599
			c-0.015,0.766-0.128,2.426,0.645,2.875c0.874,0.506,2.078-1.013,2.607-1.558c0.242-0.249,1.087-1.439,1.517-1.497
			c0.558-0.075,0.254,0.716,0.159,1.129c-0.349,1.506-0.868,2.969-1.195,4.482c-0.415,1.919-0.285,3.692-0.05,5.631
			c0.369,3.049,0.033,6.099,0.725,9.124c0.391,1.709,1.267,3.222,1.767,4.895c0.815,2.726,1.072,5.704,2.234,8.318
			c0.728,1.637,1.295,0.986,2.202-0.103c0.398,0.537-0.485,2.752-0.546,3.585c-0.101,1.371,0.277,1.952,1.498,2.547
			c1.983,0.966,2.333,2.879,2.29,4.905c-0.036,1.656-0.261,3.307-0.447,4.951c-0.12,1.059-0.688,3.014-0.228,4.059
			c0.472,1.074,1.726-0.717,2.321-1.11c1.264-0.835,1.646,0.516,1.832,1.591c0.546,3.16,0.103,6.476-0.389,9.61
			c-0.385,2.45-0.056,4.328,0.689,6.682c0.311,0.983,0.604,1.958,0.745,2.981c0.059,0.428-0.029,1.62,0.538,1.708
			c0.493,0.077,0.968-0.792,1.517-0.776c1.826,0.054,1.671,5.788,1.831,6.818c0.195,1.252,0.97,1.643,1.713,2.57
			c0.525,0.655,0.865,1.461,1.173,2.234c1.517,3.807,2.419,7.908,3.536,11.84c0.947,3.332,1.886,6.684,2.997,9.966
			c0.611,1.805,1.326,3.662,2.553,5.15c2.176,2.64,5.647,3.402,8.893,3.755c3.734,0.406,7.521,0.353,11.271,0.382
			c3.684,0.028,7.402,0.111,11.073-0.269c3.429-0.355,7.817-1.196,8.566-5.23c0.625-3.37-0.732-9.016-4.144-10.389
			c-2.319-0.933-5.052-0.68-7.487-0.949c-2.231-0.247-4.131-0.965-5.777-2.565c-4.417-4.295-6.942-10.366-8.18-16.307
			c-1.517-7.282-1.327-14.777-1.248-22.173c0.081-7.544,0.363-15.114,1.15-22.621c0.765-7.287,1.815-14.673,4.627-21.492
			c1.34-3.25,3.323-6.129,5.01-9.198c0.442-0.804,1.047-2.153,2.156-1.886c0.907,0.218,1.787,1.938,2.758,1.73
			c0.927-0.199,1.048-2.296,1.157-3.042c0.222-1.525,0.209-3.286,0.769-4.747c0.607-1.582,1.413,0.14,2.463-0.461
			c0.732-0.419,1.161-1.696,1.453-2.452c1.011-2.619,1.16-5.437,2.079-8.08c0.359-1.033,0.804-2.4,1.703-3.083
			c0.988-0.751,1.762-0.021,2.799,0.042c1.178,0.072,1.728-1.221,2.165-2.131c0.671-1.395,1.085-2.841,2.339-3.834
			c1.6-1.266,3.498-2.127,4.882-3.664c2.439-2.707,1.124-6.207,2.246-9.356c0.953-2.671,2.655-5.122,3.848-7.701"/>
	</g>
	<g id="POLYLINE_1131_">
		
			<path fill="none" stroke="#FB8604" stroke-width="2.75" stroke-linecap="round" stroke-linejoin="round" stroke-miterlimit="10" d="
			M238.685,376.296c-2.279,2.77-4.326,5.74-5.887,8.978c-1.685,3.495-2.759,7.238-3.885,10.939
			c-1.024,3.366-2.061,6.745-3.567,9.934c-1.352,2.862-3.153,5.349-5.209,7.742c-1.914,2.227-3.976,4.417-5.344,7.042
			c-1.522,2.922-2.093,6.178-3.288,9.223c-1.213,3.092-3.247,5.76-5.136,8.46c-0.966,1.38-1.969,2.75-2.801,4.217
			c-0.356,0.629-1.127,1.705-0.199,2.039c0.599,0.215,1.154-0.152,1.577,0.492c0.282,0.429,0.206,1.13,0.163,1.607
			c-0.079,0.872-0.304,1.749-0.601,2.571c-0.569,1.581-1.429,2.957-1.836,4.607c-0.525,2.126-0.68,4.056-0.215,6.19
			c0.229,1.05-0.017,2.04,0.073,3.092c0.151,1.768,1.451,0.193,2.381,0.924c0.601,0.473,0.479,1.815,0.462,2.504
			c-0.039,1.594-0.366,3.17-0.404,4.762c-0.047,1.973,1.812,3.354,2.432,5.174c0.379,1.112,0.48,2.318,0.025,3.421
			c-0.471,1.141-1.324,2.032-1.578,3.274c-0.405,1.983-0.205,4.275,0.203,6.24c0.144,0.695,0.338,1.38,0.653,2.018
			c0.375,0.76,1.19,1.48,1.303,2.322c0.2,1.492-2.882,4.874-0.007,5.359c0.707,0.119,3.358-0.374,3.168,0.566
			c-0.191,0.942-2.328,2.14-3.014,2.679c-2.051,1.61-4.207,3.205-5.716,5.368c-2.727,3.908-2.439,9.084-2.99,13.602
			c-0.83,6.802-4.03,12.952-5.343,19.646c-1.457,7.43-0.897,14.904-1.235,22.415c-0.19,4.239-0.554,8.472-0.851,12.704
			c-0.168,2.4-0.499,4.91-0.068,7.298c0.712,3.947,4.517,6.64,8.2,7.557c3.238,0.806,6.688,0.875,10.007,0.936
			c3.701,0.068,7.445,0.044,11.135-0.28c3.042-0.267,6-0.99,7.971-3.49c1.429-1.813,2.09-4.247,1.532-6.514
			c-1.298-5.272-8.03-6.024-12.124-7.997c-2.06-0.992-3.165-2.503-3.286-4.767c-0.186-3.502,0.551-7.166,0.917-10.631
			c0.769-7.275,2.161-14.038,6.174-20.29c3.873-6.034,9.185-11.008,15.282-14.748c6.431-3.946,13.516-6.731,20.162-10.287
			c6.483-3.47,12.733-7.363,18.959-11.27c4.052-2.542,8.095-5.1,12.157-7.627c2.873-1.788,5.764-3.642,8.882-4.98
			c3.183-1.365,6.52-2.411,9.749-3.668c2.983-1.162,3.895,1.418,6.158,2.736c1.211,0.705,1.208-1.075,1.438-1.9
			c0.332-1.19,1.054-2.607,2.284-3.086c1.125-0.438,1.901,0.425,2.611,1.182c0.57,0.607,1.773,2.143,2.765,1.766
			c0.78-0.296,0.761-2.261,1.418-2.959c0.874-0.929,1.988-1.154,2.794-0.058c1.415,1.922,1.923,4.882,4.001,6.311
			c1.041,0.716,2.045,0.171,2.475-0.94c0.136-0.353,0.149-1.138,0.522-1.342c0.47-0.257,1.192,0.376,1.528,0.627
			c2.522,1.884,4.524,4.368,7.108,6.194c1.631,1.153,3.969,2.964,6.088,3.116c1.456,0.104,1.058-1.34,0.802-2.3
			c-0.19-0.713-1.245-3.129,0.337-2.141c2.777,1.734,4.888,4.417,7.708,6.139c0.645,0.394,1.643,1.07,2.431,0.893
			c1.273-0.286,0.885-2.424,0.902-3.366c0.031-1.78,0.99-0.613,1.707,0.201c1.054,1.197,2.087,2.413,3.291,3.465
			c0.516,0.451,1.572,1.513,2.298,1.35c0.996-0.225,0.535-2.393,0.731-3.141c0.979-3.741,10.68,6.723,13.061,5.109
			c0.857-0.581,1.215-2.3,2.38-2.347c1.065-0.043,2.222,1.374,3.046,1.913c1.325,0.866,2.761,1.074,4.305,0.796
			c2.11-0.38,4.08-1.941,6.121-0.719c2.161,1.294,4.37,3.748,7.003,4.095c2.513,0.331,3.022-3.367,5.702-1.849
			c1.589,0.9,2.733,2.414,4.326,3.304c2.366,1.322,5.309,2.373,7.945,2.993c4.342,1.021-0.814-2.951-0.028-3.707
			c0.471-0.453,3.573,1.485,3.899,1.65c0.987,0.498,2.005,1.05,3.091,1.305c1.206,0.282,2.021-0.005,2.82-0.939
			c0.742-0.868,1.299-1.893,2.584-1.386c2.231,0.879,3.798,3.201,5.78,4.512c1.026,0.679,2.211,1.434,2.654-0.081
			c0.437-1.496,1.355-1.122,2.571-0.52c1.448,0.716,2.795,1.639,4.152,2.509c0.356,0.229,3.024,2.314,3.571,1.971
			c0.591-0.371-1.186-2.357-1.205-2.865c-0.025-0.657,0.521-0.173,0.931,0.089c0.58,0.37,1.126,0.799,1.677,1.21
			c1.545,1.151,4.382,4.039,6.597,3.231c1.372-0.501,1.954-1.114,3.334-0.222c1.283,0.829,2.334,2.067,3.394,3.144"/>
	</g>
	<g id="POLYLINE_1130_">
		
			<path fill="none" stroke="#FB8604" stroke-width="2.75" stroke-linecap="round" stroke-linejoin="round" stroke-miterlimit="10" d="
			M660.927,269.214c-2.621-1.634-5.06-2.676-8.101-3.291c-4.043-0.818-8.194-1.19-12.313-1.335
			c-3.938-0.139-7.96,0.224-11.872-0.351c-1.84-0.27-3.542-0.859-4.924-2.13c-2.361-2.171-3.909-5.109-6.223-7.358
			c-2.636-2.562-5.726-4.403-9.198-5.574c-3.931-1.325-8.077-1.972-12.172-2.552c-4.39-0.621-8.8-1.092-13.24-1.047
			c-8.13,0.083-16.152,2.059-23.43,5.683c-3.297,1.642-6.514,3.624-9.182,6.184c-2.71,2.601-4.546,5.82-6.544,8.962
			c-2.283,3.592-5.338,6.409-8.427,9.292c-3.094,2.888-5.999,5.951-8.721,9.191c-2.786,3.316-5.406,6.789-8.422,9.905
			c-2.742,2.832-6.125,4.669-9.067,7.233c-2.261,1.971-3.721,4.678-5.864,6.772c-2.653,2.592-5.803,4.723-9.01,6.562
			c-3.197,1.833-6.73,3.06-9.716,5.25c-2.563,1.88-4.595,4.569-7.371,6.129c-2.244,1.261-4.909,1.738-7.403,2.222
			c-4.195,0.813-8.451,1.356-12.558,2.567c-3.84,1.131-7.36,3.127-11.21,4.2c-3.925,1.094-8.073,0.902-12.084,1.455
			c-3.966,0.547-7.739,1.914-11.608,2.887c-3.683,0.927-7.384,0.891-11.127,1.362c-3.704,0.466-7.309,1.624-11.005,2.2
			c-4.209,0.656-8.557,1.119-12.813,0.682c-3.637-0.374-7.145-1.502-10.778-1.902c-4.151-0.457-8.366-0.075-12.519,0.153
			c-4.075,0.224-8.19-0.002-12.249,0.446c-4.07,0.45-7.993,1.733-12.042,2.319c-3.803,0.55-7.52,0.137-11.31-0.304
			c-4.242-0.493-8.413-0.617-12.681-0.439c-4.198,0.175-8.388,0.453-12.589,0.527c-4.645,0.082-9.299,0.06-13.938,0.34
			c-4.256,0.257-8.406,0.954-12.584,1.775c-2.017,0.396-4.03,0.835-6.081,1.01c-1.951,0.167-3.912,0.148-5.865,0.28
			c-8.714,0.59-17.329,2.617-26.061,2.853c-4.139,0.112-8.274-0.274-12.407,0.117c-4.184,0.397-8.314,1.251-12.522,1.393
			c-4.053,0.136-7.858,0.313-11.805,1.313c-3.013,0.764-6.106,1.727-9.253,1.535c-3.513-0.215-6.757-1.759-10.165-2.491
			c-4.045-0.869-8.189-0.776-12.276-0.296c-3.386,0.397-6.848,0.999-10.263,0.582c-3.835-0.468-7.315-2.294-11.004-3.321
			c-3.904-1.087-7.985-1.381-11.977-1.994c-4.296-0.66-8.527-1.676-12.793-2.497c-4.239-0.816-8.324-1.098-12.634-1.148
			c-4.084-0.048-8.03-0.935-12.002-1.803c-3.606-0.788-7.252-1.402-10.956-1.224c-0.97,0.047-2.117,0.07-3.04,0.445
			c-1.76,0.715,0.884,2.161,1.515,2.884c1.927,2.21-0.143,4.593-0.876,6.819c-0.479,1.456,0.412,1.926,1.156,3.037
			c0.718,1.071,0.738,2.393,0.704,3.638c-0.052,1.916-0.342,3.816-0.466,5.728c-0.067,1.043-0.322,2.828,0.514,3.631
			c0.483,0.464,1.2,0.367,1.768,0.642c0.696,0.337,0.881,0.934,0.999,1.661c0.271,1.666,0.099,3.387,0.263,5.065
			c0.247,2.527,1.234,4.279,3.593,5.33c1.356,0.604,3.337,1.001,1.747,2.591c-0.748,0.748-3.239,2.298-1.234,2.966
			c1.108,0.369,2.377,0.254,3.452,0.716c1.702,0.731-0.987,2.207-1.463,3.073c-1.157,2.104,5.47,3.046,6.605,3.722
			c1.567,0.934-0.505,2.199,0.889,3.04c1.282,0.774,2.962,0.695,4.172,1.648c1.22,0.962,1.55,2.402,3.154,2.941
			c1.281,0.43,2.712,0.484,4.046,0.577c0.936,0.065,4.164-0.213,4.942,0.657c0.787,0.88-2.169,2.582-2.735,3.096
			c-0.479,0.435-1.144,0.983-0.538,1.564c0.338,0.324,1.02,0.387,1.465,0.467c1.868,0.338,3.799,0.319,5.686,0.453
			c0.555,0.04,2.744,0.019,2.415,0.921c-0.425,1.164-3.267,1.411-3.271,2.86c-0.006,2.07,5.38,0.837,6.363,0.577
			c1.989-0.527,6.966-2.591,5.95,1.511c-0.547,2.21-2.207,3.844-3.275,5.79c-0.77,1.403,0.053,1.649,1.356,1.538
			c1.461-0.124,2.914-0.491,4.387-0.469c1.674,0.025,2.06,0.794,2.128,2.341c0.065,1.476,0.454,2.334,2.039,2.552
			c2.676,0.369,5.486-0.654,8.076-1.125c0.714-0.13,2.153-0.508,2.816-0.047c0.981,0.681-0.106,2.394-0.548,3.147
			c-0.446,0.759-2.272,2.543-1.194,3.207c0.619,0.381,1.874,0.183,2.563,0.114c3.507-0.352,6.463-2.076,9.825-2.882
			c3.478-0.834,1.625,3.379,0.981,5.025c-0.514,1.316-0.226,2.055,1.201,2.406c1.066,0.263,2.203,0.276,3.292,0.286
			c2.036,0.019,4.068-0.149,6.103-0.151c1.024-0.001,2.224-0.021,3.197,0.369c1.452,0.583,1.204,1.847,1.181,3.14
			c-0.028,1.588,0.905,1.929,2.375,1.91c1.307-0.017,2.589-0.163,3.899-0.076c1.905,0.127,3.793,0.451,5.697,0.599
			c4.007,0.311,8.028,0.152,12.033-0.107"/>
	</g>
	<g id="POLYLINE_1129_">
		
			<path fill="none" stroke="#FB8604" stroke-width="2.75" stroke-linecap="round" stroke-linejoin="round" stroke-miterlimit="10" d="
			M277.082,501.819c-8.363,7.597-17.267,14.937-26.912,20.858c-4.593,2.819-9.702,5.061-13.569,8.911
			c-3.58,3.564-5.431,8.366-6.569,13.204c-1.163,4.945-1.856,10.288-1.48,15.369c0.294,3.97,1.708,7.539,3.986,10.782
			c1.192,1.698,2.551,3.295,4.103,4.675c1.518,1.35,3.256,2.469,4.304,4.26c0.77,1.317,1.219,2.892,1.15,4.423
			c-0.142,3.13-2.901,5.46-5.537,6.746c-2.56,1.25-5.157,1.181-7.942,0.89c-1.424-0.149-2.847-0.318-4.27-0.477"/>
	</g>
	<g id="POLYLINE_1128_">
		
			<path fill="none" stroke="#FB8604" stroke-width="2.75" stroke-linecap="round" stroke-linejoin="round" stroke-miterlimit="10" d="
			M510.736,506.038c-2.061,10.541-3.279,21.048-3.648,31.786c-0.182,5.289-0.666,10.754-0.081,16.029
			c0.524,4.724,2.18,9.778,4.684,13.824c3.678,5.943,11.714,5.087,17.646,6.941c4.54,1.419,7.688,4.206,8.03,9.13
			c0.225,3.24-0.274,7.459-4.043,8.219c-2.742,0.553-6.161,0.637-8.881-0.137c-0.381-0.108-0.755-0.24-1.12-0.396"/>
	</g>
	<g id="POLYLINE_1127_">
		
			<path fill="none" stroke="#FB8604" stroke-width="2.75" stroke-linecap="round" stroke-linejoin="round" stroke-miterlimit="10" d="
			M634.069,306.99c4.507-1.332,9.015-2.915,13.121-5.232c1.899-1.072,3.662-2.387,5.434-3.652c1.384-0.989,2.875-1.984,3.903-3.366
			c0.823-1.107,1.308-2.415,1.734-3.714"/>
	</g>
	<g id="POLYLINE_1126_">
		
			<path fill="none" stroke="#FB8604" stroke-width="2.75" stroke-linecap="round" stroke-linejoin="round" stroke-miterlimit="10" d="
			M634.307,306.922c-3.491,1.04-7.329,0.567-10.91,0.509c-3.534-0.057-7.265-0.021-10.617,1.234c-1.98,0.742-5.042,2.213-5.37,4.554
			c-0.474,3.379,4.485,3.376,6.69,3.367c4.471-0.018,9.002-0.573,13.408-1.302c2.181-0.361,4.365-0.784,6.483-1.427
			c1.609-0.489,3.071-1.288,4.64-1.874c1.224-0.458,2.474-0.555,3.773-0.559c1.589-0.006,3.488-0.052,5.007,0.516
			c2.232,0.836,4.118,1.861,6.62,1.678c1.414-0.103,2.634-0.668,1.778-2.199c-0.688-1.231-1.91-2.274-3.012-3.128
			c-1.149-0.891-2.459-1.557-3.576-2.489c-1.081-0.901-1.997-2.074-3.442-2.395c-0.582-0.13-1.194-0.11-1.782-0.035"/>
	</g>
	<g id="POLYLINE_1125_">
		
			<path fill="none" stroke="#FB8604" stroke-width="2.75" stroke-linecap="round" stroke-linejoin="round" stroke-miterlimit="10" d="
			M651.272,313.387c-1.636,5.179-6.85,7.34-11.522,9.052c-3.867,1.417-7.845,2.62-11.88,3.456
			c-4.079,0.845-8.089,0.638-12.217,0.854c-3.902,0.204-7.813,0.874-11.506,2.171c-2.2,0.772-4.654,1.791-6.261,3.567
			c-2.052,2.266-1.879,5.378-1.182,8.16c0.71,2.836,2.355,5.756,0.699,8.586c-0.784,1.34-2.308,1.716-3.073,3.072
			c-0.504,0.893-0.835,1.902-1.07,2.896c-0.522,2.211-0.077,3.875,0.712,5.928c0.578,1.505,0.121,2.342-1.422,2.871
			c-1.039,0.356-2.891,0.217-2.87,1.677c0.033,2.31,2.816,5.3,0.818,7.498c-1.069,1.176-6.664,1.276-4.733,3.682
			c0.393,0.49,1.065,0.774,1.368,1.329c0.288,0.528,0.212,1.233,0.128,1.802c-0.165,1.119-0.613,2.53-1.611,3.17
			c-0.983,0.63-2.513,0.143-3.222,1.2c-0.497,0.742-0.431,1.869-0.345,2.723c0.079,0.789,0.243,1.596,0.556,2.325
			c0.532,1.238,1.657,2.063,2.195,3.296c1.22,2.799-1.794,2.899-3.635,3.804c-0.914,0.449-2.227,1.24-2.029,2.443
			c0.22,1.335,1.905,1.569,2.988,1.766c1.051,0.191,3.185,0.262,2.393,1.833c-0.595,1.18-1.828,1.89-2.387,3.123
			c-0.608,1.341-0.616,2.87-1.166,4.232c-0.442,1.095-1.258,1.906-2.222,2.556c-1.179,0.795-2.673,1.302-3.24,2.725
			c-0.749,1.878,0.973,1.62,1.682,2.871c0.715,1.262-0.085,3.388-0.624,4.596c-0.282,0.632-0.619,1.248-1.053,1.788
			c-0.727,0.905-2.091,1.547-2.061,2.839c0.064,2.719,3.006,4.712,1.556,7.532c-0.951,1.85-2.736,2.908-3.935,4.542
			c-0.693,0.945-0.84,2.078-0.866,3.218c-0.03,1.311,0.412,3.11-0.497,4.227c-0.813,0.998-2.248,1.349-3.255,2.088
			c-1.016,0.747-1.499,1.837-1.757,3.041c-0.182,0.849-0.256,1.732-0.169,2.598c0.11,1.088,0.455,2.074,0.168,3.168
			c-0.523,1.994-2.225,4.07-3.938,5.125c-2.143,1.318-4.995,1.072-6.871,2.893c-1.311,1.272-1.757,3.262-1.935,5.012
			c-0.247,2.422,0.385,5.086-0.394,7.435c-0.448,1.35-1.601,2.182-2.511,3.207c-0.764,0.861-1.265,1.806-1.726,2.851
			c-0.372,0.842-1.245,3.946-2.373,2.188c-0.378-0.589-0.574-1.362-0.673-2.046c-0.079-0.54,0.124-1.357-0.075-1.826
			c-0.505-1.19-2.298,0.943-2.659,1.561c-0.736,1.261-1.006,2.782-1.539,4.131c-1.041,2.635-2.515,5.776-4.912,7.486
			c-1.126,0.803-2.354,0.934-3.677,1.153c-1.628,0.271-1.739,1.018-1.99,2.502c-0.461,2.727-3.336,3.182-5.594,3.827
			c-2.591,0.741-5.016,2.302-7.703,2.614c-4.001,0.465-8.118,0.364-12.14,0.52"/>
	</g>
</g>
<g id="AG-OUTLINE">
	<g id="POLYLINE_744_">
		
			<path fill="none" stroke="#FB8604" stroke-width="3.5" stroke-linecap="round" stroke-linejoin="round" stroke-miterlimit="10" d="
			M658.261,291.025c2.801-0.976,4.03-5.931,4.824-8.399c1.023-3.183,2.091-6.728,2.033-10.104c-0.018-1.028-0.159-2.164-1.119-2.745
			c-0.979-0.593-2.076-0.267-3.094-0.578c-0.825-0.251-1.661-1.056-2.447-1.465c-0.484-0.252-0.981-0.478-1.49-0.676
			c-1.486-0.577-3.056-0.93-4.618-1.229c-4.223-0.809-8.551-1.17-12.846-1.271c-3.861-0.091-7.897,0.31-11.71-0.466
			c-1.778-0.362-3.28-1.127-4.534-2.435c-2.666-2.78-4.525-6.057-7.578-8.515c-6.378-5.135-15.263-6.069-23.116-6.991
			c-8.606-1.01-17.161-0.694-25.45,1.99c-7.187,2.328-14.657,6.024-19.366,12.126c-2.54,3.291-4.294,7.096-7.088,10.204
			c-3.06,3.405-6.656,6.291-9.807,9.614c-5.876,6.198-10.498,13.882-17.546,18.867c-1.549,1.096-3.2,2.104-4.59,3.407
			c-1.107,1.038-1.988,2.279-2.912,3.475c-2.232,2.888-4.937,5.194-7.946,7.244c-3.525,2.402-7.387,3.975-11.082,6.054
			c-3.127,1.76-5.418,4.402-8.186,6.613c-1.787,1.427-3.911,2.103-6.11,2.629c-4.306,1.03-8.726,1.498-13.029,2.542
			c-4.177,1.014-7.933,2.914-11.965,4.326c-3.996,1.4-8.198,1.328-12.359,1.786c-4.095,0.45-7.97,1.727-11.931,2.796
			c-3.877,1.046-7.711,1.127-11.677,1.562c-3.824,0.42-7.546,1.644-11.351,2.239c-4.306,0.674-8.758,1.144-13.109,0.66
			c-3.791-0.422-7.448-1.624-11.254-1.946c-4.232-0.359-8.496,0.067-12.723,0.276c-4.321,0.214-8.691-0.074-12.977,0.623
			c-4.111,0.669-8.112,1.973-12.278,2.31c-4.077,0.33-8.112-0.443-12.156-0.83c-4.333-0.415-8.672-0.199-13.009,0.02
			c-9.197,0.463-18.52,0.013-27.674,1.073c-4.406,0.51-8.692,1.69-13.081,2.279c-3.979,0.534-8.04,0.436-12.039,0.873
			c-4.713,0.515-9.403,1.204-14.106,1.799c-4.583,0.58-9.085,0.633-13.696,0.544c-4.313-0.083-8.505,0.486-12.768,1.069
			c-4.204,0.575-8.442,0.326-12.641,0.84c-3.883,0.476-7.557,1.999-11.445,2.435c-2.801,0.314-5.426-0.285-8.099-1.101
			c-4.38-1.338-8.597-2.156-13.204-1.931c-3.99,0.195-7.935,1.095-11.938,1.038c-3.67-0.053-7.008-1.395-10.425-2.605
			c-3.843-1.361-7.789-1.9-11.811-2.451c-8.62-1.181-17.074-3.939-25.815-4.022c-4.264-0.041-8.27-0.477-12.44-1.388
			c-4.054-0.886-8.096-1.773-12.271-1.675c-1.122,0.026-2.335,0.052-3.42,0.384c-2.121,0.65,0.289,1.955,1.069,2.775
			c2.196,2.305,0.049,4.655-0.711,7.057c-0.487,1.539,0.628,2.026,1.32,3.226c0.668,1.159,0.598,2.629,0.534,3.921
			c-0.097,1.974-0.412,3.932-0.481,5.908c-0.042,1.208-0.147,2.762,1.178,3.272c0.649,0.25,1.332,0.184,1.778,0.806
			c0.353,0.493,0.383,1.218,0.433,1.801c0.152,1.775,0.016,3.568,0.308,5.332c0.229,1.384,0.723,2.674,1.883,3.538
			c0.962,0.718,2.113,1.005,3.169,1.542c1.966,1-0.274,2.251-1.207,3.19c-0.516,0.52-1.065,1.066-0.267,1.56
			c0.399,0.247,1.04,0.3,1.494,0.384c0.898,0.165,3.791,0.249,2.649,1.706c-0.725,0.925-2.942,2.163-1.346,3.299
			c1.275,0.908,3.168,1.165,4.609,1.633c0.569,0.185,1.247,0.37,1.742,0.718c0.726,0.51,0.582,0.873,0.354,1.619
			c-0.256,0.84-0.123,1.115,0.717,1.486c0.793,0.35,1.664,0.508,2.477,0.807c1.623,0.598,1.999,1.836,3.198,2.901
			c2.233,1.984,6.515,1.159,9.205,1.631c0.637,0.112,1.471,0.214,1.199,0.997c-0.231,0.666-1.469,1.345-1.989,1.754
			c-1.114,0.878-2.545,2.074-0.412,2.612c1.61,0.406,3.351,0.388,4.998,0.485c0.506,0.03,3.399-0.109,3.681,0.626
			c0.337,0.877-2.927,2.055-3.248,2.928c-0.49,1.335,2.063,1.457,2.898,1.443c2.727-0.044,5.249-1.672,7.942-1.635
			c2.657,0.036,1.192,3.481,0.411,4.839c-0.766,1.332-2.056,2.555-2.558,4.018c-0.507,1.476,1.419,1.077,2.321,0.964
			c1.393-0.175,3.109-0.642,4.531-0.316c1.679,0.384,1.056,2.089,1.343,3.342c0.525,2.29,4.321,1.488,5.908,1.205
			c1.768-0.316,3.516-0.849,5.308-1.026c1.097-0.108,2.242-0.018,1.948,1.384c-0.248,1.181-1.083,2.276-1.744,3.254
			c-0.336,0.498-1.032,1.236-0.464,1.767c0.32,0.299,1.037,0.255,1.454,0.262c3.452,0.054,6.663-1.413,9.839-2.55
			c0.745-0.267,2.165-0.9,2.903-0.362c0.967,0.705,0.324,2.58-0.01,3.465c-0.357,0.944-1.572,2.616-0.547,3.491
			c0.67,0.571,1.963,0.61,2.8,0.67c3.327,0.236,6.797-0.56,10.085,0.063c1.475,0.28,2.067,1.031,2.031,2.514
			c-0.036,1.498-0.117,2.601,1.707,2.737c1.371,0.102,2.752-0.156,4.13-0.09c1.914,0.091,3.809,0.43,5.717,0.592
			c4.128,0.349,8.273,0.19,12.4-0.077c-0.51,0.784-1.131,1.622-1.438,2.52c-0.521,1.525,1.044,0.597,1.763,1.278
			c1.026,0.97-0.041,3.815-0.493,4.889c-1.421,3.379-2.691,6.511-1.862,10.25c0.218,0.984,0.068,1.875,0.08,2.872
			c0.021,1.725,0.782,0.782,1.931,1.013c1.776,0.358,0.696,5.365,0.597,6.379c-0.11,1.124-0.162,1.986,0.465,2.97
			c0.515,0.808,1.112,1.557,1.533,2.423c0.862,1.775,0.871,3.515-0.141,5.209c-1.774,2.971-1.76,7.623-0.134,10.728
			c0.369,0.704,1.12,1.376,1.227,2.173c0.122,0.907-0.624,1.902-0.914,2.733c-0.305,0.873-0.653,2.049,0.401,2.512
			c1.003,0.44,2.59-0.344,3.457,0.189c0.838,0.515-1.154,1.866-1.617,2.24c-1.288,1.037-2.624,2.016-3.879,3.093
			c-1.366,1.173-2.649,2.478-3.554,4.047c-2.311,4.008-1.944,9.089-2.551,13.519c-0.865,6.313-3.83,12.057-5.122,18.272
			c-1.395,6.712-1.112,13.401-1.264,20.207c-0.08,3.572-0.357,7.132-0.607,10.695c-0.241,3.436-0.708,6.963-0.576,10.415
			c0.137,3.584,2.176,6.371,5.289,8.093c1.988,1.1,4.255,1.502,6.489,1.746c3.445,0.375,6.923,0.404,10.384,0.376
			c3.242-0.026,6.574-0.034,9.774-0.61c2.704-0.487,5.698,0.646,8.483,0.547c3.293-0.118,6.708-1.868,8.673-4.527
			c1.53-2.069,1.504-4.645,0.486-6.925c-0.828-1.853-2.344-3.088-3.871-4.354c-2.091-1.734-3.885-3.766-5.388-6.03
			c-3.065-4.62-3.864-9.629-3.544-15.109c0.372-6.361,1.451-13.123,4.484-18.802c3.239-6.064,9.231-9.146,14.97-12.44
			c6.207-3.562,11.906-7.9,17.515-12.323c2.725-2.149,5.399-4.364,8.015-6.645c1.18-1.029,2.304-2.239,3.554-3.178
			c1.336-1.004,2.879-1.811,4.292-2.7c5.88-3.699,11.781-8.08,18.338-10.507c1.727-0.639,3.484-1.195,5.211-1.836
			c1.137-0.422,2.237-1.037,3.406-1.359c1.154-0.317,2.036,0.024,2.96,0.75c0.76,0.597,1.895,2.308,2.887,2.432
			c0.889,0.111,0.915-1.569,1.098-2.197c0.334-1.147,1.041-2.48,2.207-2.969c2.18-0.915,3.023,2.663,4.96,2.912
			c1.225,0.158,0.983-1.427,1.382-2.232c0.4-0.807,1.487-1.831,2.482-1.498c0.959,0.321,1.523,1.999,1.922,2.786
			c0.526,1.038,1.069,2.083,1.76,3.024c0.535,0.73,1.35,1.789,2.387,1.548c1.338-0.311,0.889-1.618,1.557-2.374
			c1.051-1.19,5.269,3.638,5.966,4.273c2.116,1.927,4.52,3.658,7.138,4.839c0.546,0.246,1.163,0.533,1.767,0.589
			c1.364,0.125,1.15-1.074,0.908-2.047c-0.139-0.56-1.141-2.729-0.169-2.646c0.999,0.086,2.802,2.2,3.457,2.766
			c1.796,1.551,3.751,3.479,6.025,4.321c3.411,1.263,1.059-4.251,2.424-4.199c0.347,0.013,0.87,0.771,1.092,1.019
			c0.574,0.64,1.121,1.305,1.706,1.936c0.742,0.799,1.519,1.589,2.385,2.255c0.612,0.471,1.727,1.372,2.188,0.351
			c0.42-0.93-0.193-2.218,0.382-3.114c1.041-1.62,4.836,1.381,5.712,1.988c1.365,0.947,2.665,1.991,4.058,2.897
			c0.77,0.501,1.848,1.245,2.806,0.879c1.056-0.404,1.24-1.811,2.167-2.351c1.053-0.614,2.258,0.765,3.03,1.33
			c1.248,0.913,2.521,1.442,4.107,1.301c1.826-0.162,3.636-1.482,5.415-1.392c0.92,0.047,1.793,0.763,2.514,1.267
			c1.255,0.877,2.476,1.82,3.82,2.56c0.783,0.431,1.717,0.924,2.636,0.864c1.097-0.071,1.703-0.977,2.451-1.654
			c1.755-1.588,3.624,0.313,5.014,1.51c1.406,1.21,2.659,1.89,4.392,2.577c1.577,0.624,3.156,1.272,4.783,1.757
			c0.503,0.15,1.982,0.719,2.458,0.344c0.73-0.574-0.919-2.318-1.255-2.818c-0.207-0.308-0.697-0.822-0.273-1.031
			c0.249-0.123,0.929,0.28,1.177,0.388c1.942,0.846,4.569,2.988,6.863,2.704c2.232-0.276,2.312-3.722,4.912-2.061
			c1.895,1.211,3.342,3.02,5.247,4.232c0.929,0.591,2.058,1.286,2.483-0.074c0.44-1.406,1.034-1.353,2.344-0.746
			c2.552,1.184,4.669,3.171,7.21,4.352c1.674,0.778,0.286-1.243-0.063-1.88c-0.116-0.212-0.605-0.903-0.388-1.081
			c0.205-0.168,0.959,0.447,1.158,0.582c2.024,1.37,4.199,3.845,6.694,4.384c1.253,0.271,1.962-0.743,3.126-0.841
			c1.132-0.095,2.142,0.912,2.909,1.619c0.574,0.53,1.383,1.141,1.794,1.788c0.389,0.613,0.145,1.395,0.06,2.154
			c-0.162,1.444-0.412,2.921-0.415,4.379c-0.007,3.303,2.366-1.604,3.661-0.267c0.552,0.569,0.593,1.795,0.665,2.551
			c0.156,1.636,0.11,3.301-0.016,4.937c-0.188,2.427-1.042,4.933-0.645,7.373c0.343,2.112,1.334,4.057,1.607,6.188
			c0.052,0.408-0.019,1.471,0.519,1.555c0.481,0.075,0.95-0.768,1.478-0.77c1.004-0.004,1.231,1.632,1.38,2.393
			c0.423,2.167-0.112,4.738,1.589,6.357c1.619,1.541,2.219,3.909,2.84,5.982c2.005,6.696,3.459,13.719,6.04,20.228
			c0.989,2.495,2.41,4.644,4.869,5.862c4.822,2.387,11.089,1.815,16.293,1.874c3.402,0.039,6.816,0.098,10.214-0.109
			c1.442-0.088,2.892-0.442,4.322-0.505c0.591-0.026,1.083,0.224,1.674,0.379c1.935,0.505,3.978,0.393,5.956,0.326
			c2.139-0.072,4.585-0.189,5.77-2.272c1.568-2.757,1.397-7.077,0.131-9.948c-1.331-3.019-4.391-4.536-7.395-5.444
			c-3.099-0.937-6.333-1.319-9.49-2.004c-1.619-0.351-3.289-0.759-4.737-1.598c-1.337-0.775-2.35-1.922-3.161-3.222
			c-1.791-2.871-2.977-6.204-3.854-9.457c-1.739-6.448-1.022-13.369-0.795-19.964c0.243-7.077,0.686-14.166,1.69-21.18
			c0.236-1.646,0.504-3.289,0.795-4.926c0.147-0.826,0.297-1.652,0.458-2.475c0.181-0.924,0.167-2.592,0.661-3.382
			c0.364-0.582,1.415-0.349,2.186-0.374c0.812-0.027,1.627-0.042,2.438-0.095c0.787-0.051,1.571-0.134,2.33-0.356
			c1.243-0.364,2.391-1.008,3.598-1.469c1.444-0.551,2.934-0.919,4.41-1.367c1.707-0.518,3.41-1.2,3.782-3.143
			c0.184-0.961,0.064-2.036,1.111-2.481c0.948-0.403,2.088-0.288,3.077-0.6c1.94-0.614,3.278-2.334,4.316-3.999
			c1.537-2.465,2.201-5.14,3.343-7.761c0.381-0.874,1.267-2.232,2.282-2.476c1.103-0.265,0.639,1.421,0.76,2.195
			c0.101,0.647,0.592,2.912,1.588,2.542c0.864-0.32,1.392-2.662,1.745-3.399c0.898-1.876,2.726-2.975,3.672-4.761
			c0.877-1.655,0.583-3.846,0.573-5.621c-0.009-1.751,0.079-3.548,0.67-5.214c1.587-4.472,6.75-3.361,9.68-6.334
			c1.063-1.079,2.149-2.527,2.511-4.034c0.382-1.592-0.365-3.256-0.155-4.899c0.297-2.324,1.362-3.574,3.397-4.689
			c0.74-0.405,1.622-0.837,2.019-1.623c0.538-1.065,0.206-2.546,0.222-3.68c0.013-0.918,0.071-1.886,0.478-2.724
			c0.517-1.066,1.535-1.775,2.349-2.595c0.955-0.961,2.087-2.234,2.371-3.602c0.467-2.245-1.631-4.118-1.92-6.253
			c-0.224-1.653,1.939-2.742,2.698-4.104c0.551-0.99,0.957-2.1,1.144-3.219c0.117-0.705,0.226-1.597-0.179-2.23
			c-0.592-0.926-1.965-0.782-1.82-2.143c0.236-2.227,2.957-2.799,4.379-4.121c1.95-1.812,1.425-4.516,2.747-6.631
			c0.546-0.873,1.429-1.483,1.963-2.357c0.759-1.242-0.195-1.616-1.32-1.843c-1.536-0.309-5.672-1.134-3.325-3.457
			c1.276-1.263,3.084-1.26,4.553-2.121c2.196-1.287-0.462-3.848-1.272-5.084c-0.738-1.125-1.035-2.583-1.04-3.922
			c-0.003-0.915,0.1-2.041,1.021-2.484c0.919-0.442,1.982-0.132,2.823-0.835c1.335-1.114,2.091-4.114,0.714-5.368
			c-0.594-0.541-1.823-1.452-1.103-2.343c0.536-0.663,2.145-0.817,2.856-1.017c2.381-0.667,3.186-2.19,2.561-4.558
			c-0.316-1.197-0.899-2.329-1.15-3.541c-0.31-1.5,0.708-1.636,1.942-1.929c0.85-0.201,2.149-0.5,2.511-1.411
			c0.392-0.987-0.521-2.235-0.839-3.127c-0.538-1.509-0.466-3.053-0.091-4.589c0.194-0.793,0.452-1.58,0.802-2.318
			c0.611-1.287,1.418-1.599,2.44-2.462c1.738-1.467,1.847-3.915,1.292-5.945c-0.845-3.085-2.334-6.465-1.232-9.695
			c1.041-3.051,4.326-4.575,7.13-5.606c3.146-1.156,6.468-1.837,9.8-2.165c3.282-0.323,6.576-0.078,9.857-0.344
			c6.54-0.53,13.265-2.717,19.278-5.263c2.073-0.878,4.207-1.872,5.827-3.477c1.195-1.185,1.782-2.586,2.632-3.976
			c0.299-0.49,0.152-0.398,0.742-0.35c0.339,0.028,0.674,0.093,1.015,0.115c0.731,0.047,1.535,0.053,2.239-0.17
			c2.626-0.831-0.58-3.7-1.652-4.619c-1.42-1.216-3.12-2.041-4.52-3.277c-1.525-1.346-2.756-2.456-4.934-2.177
			c2.957-1.381,5.581-3.106,8.242-4.99c1.772-1.255,3.694-2.51,4.806-4.432C657.574,293.033,657.932,292.026,658.261,291.025z"/>
	</g>
</g>
</svg>
