<?xml version="1.0" encoding="utf-8"?>
<!-- Generator: Adobe Illustrator 25.3.1, SVG Export Plug-In . SVG Version: 6.00 Build 0)  -->
<!DOCTYPE svg PUBLIC "-//W3C//DTD SVG 1.1//EN" "http://www.w3.org/Graphics/SVG/1.1/DTD/svg11.dtd" [
	<!ENTITY ns_extend "http://ns.adobe.com/Extensibility/1.0/">
	<!ENTITY ns_ai "http://ns.adobe.com/AdobeIllustrator/10.0/">
	<!ENTITY ns_graphs "http://ns.adobe.com/Graphs/1.0/">
	<!ENTITY ns_vars "http://ns.adobe.com/Variables/1.0/">
	<!ENTITY ns_imrep "http://ns.adobe.com/ImageReplacement/1.0/">
	<!ENTITY ns_sfw "http://ns.adobe.com/SaveForWeb/1.0/">
	<!ENTITY ns_custom "http://ns.adobe.com/GenericCustomNamespace/1.0/">
	<!ENTITY ns_adobe_xpath "http://ns.adobe.com/XPath/1.0/">
]>
<svg version="1.1" xmlns:x="&ns_extend;" xmlns:i="&ns_ai;" xmlns:graph="&ns_graphs;"
	 xmlns="http://www.w3.org/2000/svg" xmlns:xlink="http://www.w3.org/1999/xlink" x="0px" y="0px" width="750px" height="750px"
	 viewBox="0 0 750 750" enable-background="new 0 0 750 750" xml:space="preserve">
<metadata>
	<sfw  xmlns="&ns_sfw;">
		<slices></slices>
		<sliceSourceBounds  bottomLeftOrigin="true" height="12496.359" width="14430.097" x="-7224.097" y="-4175"></sliceSourceBounds>
	</sfw>
</metadata>
<g id="FILL-BACKGROUND">
	<rect fill="#FFFFFF" width="750" height="750"/>
</g>
<g id="N-DIMENSIONS">
</g>
<g id="N-TEXT">
</g>
<g id="AG-DIAGRAM">
	<g>
		<g>
			
				<line fill="none" stroke="#FB8604" stroke-width="3.5" stroke-linecap="round" stroke-linejoin="round" x1="107.152" y1="594.896" x2="109.152" y2="594.896"/>
			
				<line fill="none" stroke="#FB8604" stroke-width="3.5" stroke-linecap="round" stroke-linejoin="round" stroke-dasharray="4.0093,7.0163" x1="116.168" y1="594.896" x2="531.632" y2="594.896"/>
			
				<line fill="none" stroke="#FB8604" stroke-width="3.5" stroke-linecap="round" stroke-linejoin="round" x1="535.14" y1="594.896" x2="537.14" y2="594.896"/>
		</g>
	</g>
</g>
<g id="AG-GUIDES">
</g>
<g id="AG-PEOPLE">
</g>
<g id="AG-DETAIL">
	<g id="POLYLINE_1365_">
		<path fill="none" stroke="#FB8604" stroke-width="2" stroke-linecap="round" stroke-linejoin="round" stroke-miterlimit="10" d="
			M551.107,240.659c-4.536,0.273-9.483,0.572-13.255,3.419c-4.359,3.29-5.936,9.273-6.708,14.422
			c-1.579,10.532,0.333,20.866,2.728,31.103c1.246,5.327,2.567,10.645,3.289,16.076c0.761,5.725,0.862,11.53,1.127,17.292
			c0.432,9.388,1.609,18.713,7.903,26.124c5.947,7.002,14.689,12.015,23.549,14.243c1.29,0.325,2.594,0.594,3.905,0.821"/>
	</g>
	<g id="POLYLINE_1040_">
		<path fill="none" stroke="#FB8604" stroke-width="2" stroke-linecap="round" stroke-linejoin="round" stroke-miterlimit="10" d="
			M430.197,518.964c3.424,0.78,6.705,1.074,8.729,4.331c1.933,3.111,2.804,6.817,4.241,10.162c1.407,3.275,3.304,6.631,6.777,8.023
			c3.431,1.375,7.391,0.941,10.908,0.13c3.835-0.885,7.508-2.379,10.996-4.185"/>
	</g>
	<g id="POLYLINE_856_">
		<path fill="none" stroke="#FB8604" stroke-width="2" stroke-linecap="round" stroke-linejoin="round" stroke-miterlimit="10" d="
			M484.793,470.786c1.807-7.249,3.696-14.618,7.133-21.296c3.231-6.28,8.835-11.099,10.757-18.059
			c1.982-7.178,1.295-15.077,1.436-22.436c0.068-3.559,0.203-7.195,1.004-10.676c0.914-3.972,3.121-6.917,6.216-9.531
			c2.828-2.389,5.695-4.636,8.096-7.477c2.406-2.846,4.448-6.019,6.052-9.382c2.86-5.995,4.399-12.84,2.72-19.392
			c-1.802-7.033-6.544-13.127-11.931-17.836c-2.636-2.305-5.517-4.291-8.593-5.961c-3.413-1.853-7.007-3.349-10.422-5.198
			c-6.387-3.458-11.79-8.326-16.638-13.689c-5.014-5.547-9.484-11.646-13.181-18.148c-0.914-1.608-1.774-3.246-2.586-4.908"/>
	</g>
</g>
<g id="AG-ANIMALS">
	<g id="POLYLINE_935_">
		
			<path fill="none" stroke="#FB8604" stroke-width="2.75" stroke-linecap="round" stroke-linejoin="round" stroke-miterlimit="10" d="
			M541.381,248.819c-1.788,2.897-3.267,5.9-3.845,9.285c-0.483,2.83-0.445,5.748-0.115,8.593c0.764,6.588,3.221,13.007,7.172,18.345
			c2.252,3.043,5.25,6.247,9.061,7.186c3.174,0.782,6.141-0.644,8.005-3.252c4.072-5.695,1.891-13.263,0.687-19.507
			c-0.576-2.988-1.389-6.328-0.703-9.357c0.873-3.857,5.292-4.843,6.61-8.368c0.304-0.813,0.487-1.672,0.702-2.511"/>
	</g>
	<g id="POLYLINE_782_">
		
			<path fill="none" stroke="#FB8604" stroke-width="2.75" stroke-linecap="round" stroke-linejoin="round" stroke-miterlimit="10" d="
			M621.93,278.923c-2.216-1.452-5.93-0.845-6.916,1.871c-0.875,2.41-0.295,5.953,0.363,8.341c0.829,3.012,4.527,3.393,7.182,3.463
			c1.299,0.034,2.853,0.038,4.041-0.57c1.483-0.759,1.829-2.518,1.649-4.047C627.83,284.433,624.757,280.895,621.93,278.923z"/>
	</g>
	<g id="POLYLINE_781_">
		
			<path fill="none" stroke="#FB8604" stroke-width="2.75" stroke-linecap="round" stroke-linejoin="round" stroke-miterlimit="10" d="
			M213.627,306.856c-0.178-3.604-2.591-7.484-6.294-8.296c-3.366-0.739-6.946,0.991-9.66,2.822c-2.333,1.574-4.24,3.626-6.386,5.426
			c-2.848,2.388-5.846,2.994-9.44,3.407c-3.327,0.382-6.267,1.041-8.777,3.403c-2.576,2.424-4.463,5.484-7.095,7.858
			c-2.709,2.442-6.092,3.882-9.116,5.864c-3.224,2.112-5.407,4.843-6.798,8.414c-2.29,5.878-2.857,12.38-3.74,18.576
			c-0.209,1.466-1.588,7.418,0.937,7.421c1.284,0.002,2.665-1.15,3.642-1.869c1.249-0.919,2.432-1.93,3.589-2.962
			c5.019-4.476,9.557-9.48,14.698-13.82c4.835-4.081,10.308-7.172,15.767-10.32c5.759-3.321,11.604-6.559,17.029-10.415
			c4.382-3.115,9.58-7.073,11.228-12.457C213.513,308.92,213.666,307.89,213.627,306.856z"/>
	</g>
	<g id="POLYLINE_780_">
		
			<path fill="none" stroke="#FB8604" stroke-width="2.75" stroke-linecap="round" stroke-linejoin="round" stroke-miterlimit="10" d="
			M617.026,278.676c-1.551-1.021-2.511-2.684-4.021-3.722c-0.708-0.487-1.602-0.619-2.198-1.272
			c-0.554-0.607-0.841-1.474-1.11-2.234c-1.217-3.452-1.965-7.025-3.694-10.283c-3.521-6.631-9.483-10.754-16.551-12.834
			c-3.492-1.028-7.106-1.762-10.455-3.224c-3.505-1.53-6.217-4.225-9.534-6.051c-3.907-2.151-7.601-0.428-11.516,0.656
			c-3.351,0.928-6.774,1.047-10.231,0.892c-7.711-0.345-15.583-1.367-23.15,0.735c-3.698,1.027-7.128,2.859-9.609,5.841
			c-2.295,2.758-3.757,6.064-5.574,9.129c-1.002,1.689-2.151,3.473-3.936,4.416c-1.629,0.862-3.521,0.939-5.325,0.95
			c-3.597,0.023-7.181,0.021-10.569,1.422c-1.854,0.766-3.446,1.923-4.564,3.604c-1.015,1.527-1.639,3.267-2.558,4.848
			c-2.022,3.478-5.689,3.587-8.885,5.437c-3.619,2.095-5.076,6.474-8.06,9.259c-2.69,2.51-6.361,3.191-9.908,3.485
			c-3.731,0.309-7.491,0.112-11.216,0.491c-3.51,0.357-6.935,1.459-8.076,5.142c-0.549,1.77-0.638,3.652-1.205,5.416
			c-0.541,1.681-1.551,2.375-3.302,2.232c-1.555-0.127-3.114-0.683-4.687-0.511c-1.767,0.193-2.799,1.615-4.259,2.436
			c-1.51,0.849-3.016,0.197-4.444-0.524c-1.734-0.877-3.389-1.934-5.239-2.564c-3.423-1.166-7.349-0.214-10.003,2.224
			c-1.383,1.271-1.699,3.021-2.836,4.417c-1.031,1.265-2.863,0.967-4.292,0.744c-3.259-0.509-6.611-1.532-9.816-0.215
			c-3.612,1.484-5.473,5.561-9.225,6.765c-3.5,1.123-7.642-0.597-10.987-1.584c-7.445-2.197-15.052-2.557-22.728-3.381
			c-8.605-0.923-17.154-2.443-25.706-3.751c-7.543-1.154-15.076-2.272-22.661-3.117c-7.959-0.886-15.964-1.472-23.971-1.644
			c-7.623-0.164-15.252,0.104-22.84,0.862c-7.884,0.788-15.718,2.053-23.462,3.724c-3.801,0.82-7.572,1.762-11.333,2.749"/>
	</g>
	<g id="POLYLINE_776_">
		
			<path fill="none" stroke="#FB8604" stroke-width="2.75" stroke-linecap="round" stroke-linejoin="round" stroke-miterlimit="10" d="
			M156.384,355.193c-1.13,5.535-1.536,11.164-1.272,16.805c0.255,5.456,1.034,10.874,2.045,16.238
			c1.193,6.33,2.723,12.596,4.144,18.877c1.125,4.969,2.143,10.082,1.8,15.202c-0.382,5.694-2.515,11.076-4.009,16.532
			c-1.361,4.97-1.875,9.788-1.086,14.897c0.862,5.583,2.292,11.024,2.822,16.665c0.483,5.137,0.549,10.352-0.077,15.48
			c-0.579,4.744-1.764,9.529-4.074,13.744c-2.655,4.842-8.074,8.035-9.532,13.515c-1.406,5.286-0.546,11.016-0.881,16.418
			c-0.302,4.855-1.689,9.351-3.616,13.793c-2.299,5.298-4.896,10.422-6.703,15.923c-1.681,5.115-2.944,10.392-3.687,15.727
			c-0.65,4.672-1.643,10.896,0.947,15.169c2.767,4.564,9.472,4.557,14.168,4.62c5.825,0.078,11.728-0.123,17.539-0.546
			c4.761-0.346,10.579-0.911,14.15-4.448c4.1-4.061,3.909-11.501,0.513-15.92c-3.72-4.84-9.803-3.788-15.101-4.763
			c-6.25-1.151-1.749-7.964,0.221-11.119c3.232-5.177,6.604-10.268,9.832-15.448c3.096-4.969,5.577-10.108,8.188-15.333
			c2.552-5.105,6.29-9.397,9.838-13.824c3.376-4.212,6.471-8.598,8.956-13.402c2.477-4.788,4.456-9.807,6.378-14.837
			c2.239-5.861,4.407-11.753,6.917-17.505c2.288-5.243,4.816-10.398,7.667-15.36c2.781-4.84,5.792-9.787,9.765-13.756
			c4.198-4.195,9.621-6.589,15.448-7.439c4.834-0.706,9.766-0.354,14.499,0.814c5.341,1.318,10.412,3.534,15.345,5.93
			c5.635,2.738,11.079,5.863,16.565,8.882c4.84,2.663,9.696,5.297,14.669,7.705c4.994,2.417,10.106,4.592,15.353,6.401
			c5.378,1.855,10.886,3.297,16.442,4.506c5.088,1.107,10.201,1.989,15.339,2.817c7.281,1.174,14.563,2.341,21.842,3.522
			c5.993,0.973,11.978,2.001,17.967,3.003c5,0.837,10.057,1.568,15.134,1.642c5.331,0.078,10.484-0.922,15.676-2.009"/>
	</g>
	<g id="POLYLINE_765_">
		
			<path fill="none" stroke="#FB8604" stroke-width="2.75" stroke-linecap="round" stroke-linejoin="round" stroke-miterlimit="10" d="
			M415.46,394.802c0.569,9.486,1.419,19.024,1.121,28.536c-0.138,4.402-0.692,8.792-0.555,13.201
			c0.137,4.419,1.06,8.738,2.262,12.979c2.545,8.985,6.129,17.632,8.771,26.584c2.462,8.34,3.114,16.821,3.131,25.483
			c0.019,10.105-0.167,20.234,0.251,30.334c0.185,4.453,0.532,8.894,1.23,13.298c0.777,4.899,1.967,9.721,2.951,14.581
			c0.822,4.06,1.313,8.18,1.711,12.301c0.268,2.772,0.52,5.546,0.803,8.317c0.215,2.103,0.34,4.333,1.034,6.347
			c1.495,4.341,6.235,5.637,10.279,6.461c4.318,0.879,8.745,1.239,13.143,1.383c4.473,0.146,8.966,0.044,13.422-0.399
			c4.025-0.4,8.252-0.96,11.993-2.577c3.829-1.655,5.72-4.726,5.115-8.851c-0.296-2.017-0.948-3.986-1.586-5.916
			c-0.638-1.929-1.367-3.909-2.654-5.51c-3.146-3.916-8.454-2.347-12.417-4.661c-3.659-2.137-4.087-7.378-4.295-11.159
			c-0.477-8.691,0.502-17.638,1.571-26.256c1.219-9.832,2.311-19.698,3.862-29.485c1.449-9.144,3.224-18.441,7.153-26.888
			c3.891-8.365,9.942-14.783,16.381-21.236c6.105-6.119,11.331-12.725,14.342-20.913c3.092-8.409,4.619-17.442,5.646-26.314
			c0.568-4.906,0.568-10.571,2.633-15.148c1.924-4.265,5.712-5.855,10.067-6.57c9.115-1.496,19.8,0.585,27.531-5.551
			c3.465-2.75,6.252-6.275,9.337-9.42c3.256-3.319,6.932-5.683,10.964-7.946c3.687-2.069,6.869-4.438,9.375-7.89"/>
	</g>
	<g id="POLYLINE_764_">
		
			<path fill="none" stroke="#FB8604" stroke-width="2.75" stroke-linecap="round" stroke-linejoin="round" stroke-miterlimit="10" d="
			M164.241,594.298c6.609,1.085,13.571,0.41,20.223,0.168c5.478-0.199,12.103-0.305,16.805-3.516
			c5.489-3.749,5.734-12.409,1.71-17.322c-2.048-2.502-5.013-3.445-8.113-3.843c-1.729-0.222-3.474-0.295-5.208-0.459
			c-1.286-0.122-2.782-0.25-3.844-1.066c-2.224-1.709-0.527-5.196,0.377-7.187c1.339-2.946,2.867-5.805,4.226-8.742
			c2.797-6.044,5.406-12.212,7.402-18.572c1.854-5.908,2.803-11.884,5.568-17.484c2.95-5.976,6.312-11.747,8.552-18.048
			c2.018-5.677,3.252-11.635,4.241-17.567c1.18-7.081,2.246-14.192,3.762-21.212c0.323-1.494,0.674-2.98,1.028-4.467"/>
	</g>
	<g id="POLYLINE_763_">
		
			<path fill="none" stroke="#FB8604" stroke-width="2.75" stroke-linecap="round" stroke-linejoin="round" stroke-miterlimit="10" d="
			M422.922,475.067c0.692,9.698-0.201,19.508-0.716,29.197c-0.523,9.864-1.226,19.779-0.778,29.659
			c0.433,9.546,3.145,18.65,4.305,28.088c0.588,4.786,0.86,9.619,0.803,14.441c-0.049,4.153-1.314,9.72,1.78,13.112
			c2.8,3.071,7.924,3.837,11.835,4.385c4.749,0.665,9.577,0.809,14.365,0.656c1.173-0.038,2.345-0.1,3.516-0.174"/>
	</g>
	<g id="POLYLINE_762_">
		
			<path fill="none" stroke="#FB8604" stroke-width="2.75" stroke-linecap="round" stroke-linejoin="round" stroke-miterlimit="10" d="
			M557.787,348.222c3.645-1.825,7.736-3.008,11.842-2.709c3.169,0.23,6.234,1.249,9.19,2.359c7.125,2.675,14.425,5.972,22.215,5.558
			c3.256-0.173,6.462-0.983,9.42-2.353"/>
	</g>
	<g id="POLYLINE_761_">
		
			<path fill="none" stroke="#FB8604" stroke-width="2.75" stroke-linecap="round" stroke-linejoin="round" stroke-miterlimit="10" d="
			M628.291,288.927c2.166,2.596,4.877,4.479,6.66,7.423c1.39,2.295,2.475,4.808,3.193,7.393c0.572,2.06,0.969,4.295,0.56,6.422
			c-0.522,2.714-2.34,4.97-3.791,7.246c-1.342,2.106-2.412,4.352-3.626,6.529c-1.214,2.178-2.346,4.354-3.338,6.644
			c-2.097,4.843-4.074,9.828-6.966,14.269c-2.197,3.374-7.458,9.301-11.739,5.392c-3.218-2.938-4.051-8.522-4.419-12.636
			c-0.46-5.155,0.267-10.259,1.207-15.319c0.992-5.339,2.167-10.622,3.583-15.864c0.736-2.723,1.55-5.426,2.253-8.157
			c0.573-2.228,1.093-4.558,0.891-6.871c-0.394-4.524-3.148-8.655-2.376-13.301c0.221-1.329,0.668-2.606,1.15-3.86"/>
	</g>
</g>
<g id="AG-OUTLINE">
	<g id="POLYLINE_19_">
		
			<path fill="none" stroke="#FB8604" stroke-width="3.5" stroke-linecap="round" stroke-linejoin="round" stroke-miterlimit="10" d="
			M617.026,278.676c-1.552-1.021-2.512-2.686-4.023-3.723c-0.671-0.461-1.528-0.593-2.115-1.181
			c-0.643-0.644-0.954-1.637-1.244-2.476c-1.199-3.475-1.974-7.054-3.738-10.312c-3.571-6.596-9.536-10.631-16.595-12.693
			c-3.531-1.032-7.193-1.775-10.562-3.293c-3.506-1.58-6.219-4.363-9.608-6.114c-3.867-1.998-7.642-0.124-11.476,0.905
			c-3.328,0.893-6.742,0.963-10.165,0.807c-7.773-0.355-15.727-1.378-23.334,0.857c-3.704,1.088-7.063,3.014-9.485,6.066
			c-2.222,2.8-3.657,6.094-5.504,9.132c-1.035,1.703-2.249,3.432-4.125,4.267c-1.618,0.72-3.44,0.754-5.18,0.759
			c-3.697,0.01-7.44,0.064-10.867,1.659c-1.811,0.843-3.256,2.095-4.294,3.804c-0.96,1.58-1.577,3.349-2.581,4.903
			c-2.098,3.247-6.066,3.26-9.066,5.24c-3.083,2.034-4.517,5.8-7.024,8.413c-2.627,2.738-6.171,3.623-9.837,3.978
			c-3.782,0.366-7.592,0.174-11.375,0.503c-3.367,0.293-7.06,1.152-8.37,4.665c-0.957,2.566-0.439,8.3-4.298,8.194
			c-1.559-0.043-3.07-0.595-4.635-0.56c-1.796,0.04-2.872,1.231-4.265,2.184c-3.026,2.069-6.654-1.452-9.462-2.571
			c-3.502-1.396-7.449-0.714-10.349,1.718c-1.466,1.23-1.917,2.787-2.907,4.338c-0.937,1.467-2.548,1.357-4.092,1.151
			c-3.291-0.44-6.643-1.598-9.914-0.409c-3.742,1.361-5.589,5.442-9.299,6.805c-3.375,1.24-7.381-0.352-10.639-1.313
			c-7.617-2.248-15.309-2.714-23.169-3.542c-8.539-0.899-17.023-2.416-25.506-3.714c-7.655-1.171-15.299-2.313-22.997-3.169
			c-7.936-0.883-15.915-1.462-23.899-1.645c-7.657-0.175-15.323,0.097-22.945,0.859c-7.879,0.788-15.71,2.05-23.449,3.721
			c-3.806,0.822-7.58,1.764-11.346,2.751c1.075-4.007-0.738-8.854-4.639-10.639c-3.888-1.779-8.509,0.578-11.649,2.851
			c-2.953,2.138-5.264,5.241-8.55,6.9c-3.701,1.868-8.097,1.03-11.911,2.554c-3.857,1.541-6.155,5.478-8.838,8.429
			c-3.197,3.517-7.378,5.25-11.232,7.863c-7.131,4.834-8.25,13.729-9.408,21.617c-0.313,2.132-0.64,4.263-0.925,6.399
			c-0.208,1.557-0.567,3.401-0.163,4.947c0.919,3.518,6.945-2.258,8.192-3.356c0.749-0.66,1.481-1.338,2.217-2.013
			c-1.161,5.687-1.547,11.464-1.251,17.258c0.281,5.487,1.078,10.951,2.132,16.34c1.237,6.325,2.765,12.586,4.161,18.877
			c1.145,5.158,2.13,10.456,1.579,15.757c-0.597,5.743-2.848,11.157-4.255,16.721c-1.269,5.017-1.432,9.825-0.523,14.914
			c1.023,5.721,2.327,11.317,2.751,17.132c0.379,5.204,0.328,10.488-0.501,15.649c-0.791,4.926-2.303,9.925-5.197,14.045
			c-1.551,2.207-3.58,3.989-5.302,6.05c-1.901,2.276-2.935,4.785-3.3,7.711c-0.699,5.606,0.082,11.296-0.707,16.901
			c-0.657,4.667-2.478,9.034-4.435,13.286c-2.492,5.413-4.883,10.795-6.544,16.532c-1.541,5.321-2.679,10.797-3.153,16.321
			c-0.414,4.815-0.765,11.41,4.139,14.145c4.42,2.466,10.527,2.062,15.415,1.941c3.253-0.081,6.506-0.195,9.757-0.325
			c1.376-0.055,2.721-0.182,4.085-0.004c1.416,0.184,2.842,0.272,4.268,0.319c5.897,0.192,11.866-0.082,17.752-0.43
			c4.927-0.292,10.891-0.686,14.839-4.007c4.501-3.785,4.621-11.254,1.469-15.912c-3.53-5.218-9.718-4.38-15.16-5.239
			c-1.181-0.186-2.54-0.519-3.23-1.596c-0.638-0.996-0.457-2.278-0.175-3.357c0.653-2.499,1.998-4.835,3.134-7.135
			c2.605-5.273,5.024-10.641,7.144-16.128c2.112-5.464,3.488-10.997,5.015-16.636c1.527-5.639,4.451-10.714,7.111-15.875
			c2.516-4.883,4.646-9.919,6.099-15.225c1.479-5.402,2.406-10.925,3.325-16.443c1.008-6.046,1.946-12.107,3.282-18.092
			c0.312-1.397,0.476-3.007,1.167-4.264c0.72-1.307,1.453-2.607,2.215-3.89c1.427-2.401,2.935-4.759,4.579-7.017
			c3.528-4.848,7.825-8.866,13.55-10.921c4.848-1.74,10.121-2.195,15.226-1.639c5.215,0.568,10.24,2.256,15.048,4.297
			c5.057,2.147,9.922,4.718,14.732,7.364c5.606,3.085,11.183,6.235,16.867,9.174c5.238,2.708,10.573,5.237,16.072,7.373
			c5.349,2.078,10.832,3.756,16.405,5.117c5.03,1.229,10.121,2.294,15.233,3.118c7.728,1.246,15.457,2.493,23.185,3.739
			c5.358,0.864,10.71,1.769,16.063,2.665c5.535,0.926,11.061,1.928,16.665,2.347c5.353,0.4,10.547-0.068,15.805-1.08
			c0.752,10.535-0.293,21.231-0.851,31.755c-0.529,9.962-1.236,20.02-0.465,29.986c0.792,10.225,3.864,20.073,4.63,30.31
			c0.374,5.005,0.236,9.951,0.107,14.958c-0.059,2.299,0.035,4.766,1.375,6.731c1.358,1.992,3.678,3.022,5.9,3.734
			c4.312,1.381,8.94,1.814,13.441,2.021c2.627,0.12,5.261,0.124,7.89,0.029c2.496-0.09,4.929-0.026,7.426,0.038
			c4.895,0.125,9.818-0.041,14.679-0.654c4.12-0.52,9.123-1.175,12.502-3.807c3.67-2.859,2.819-7.344,1.634-11.23
			c-0.667-2.188-1.33-4.461-2.516-6.435c-1.462-2.434-3.605-3.583-6.352-4.069c-2.298-0.407-4.799-0.537-6.86-1.744
			c-1.986-1.163-2.947-3.261-3.503-5.407c-1.174-4.534-0.962-9.447-0.735-14.083c0.525-10.693,1.907-21.282,3.263-31.894
			c1.291-10.102,2.488-20.272,5.016-30.157c2.398-9.378,6.441-18.018,12.804-25.373c6.603-7.631,14.61-13.827,19.446-22.881
			c4.632-8.674,6.458-18.749,7.836-28.387c0.722-5.049,0.949-10.205,1.92-15.212c0.555-2.864,1.696-5.826,3.972-7.76
			c1.57-1.334,3.542-2.013,5.524-2.464c9.866-2.247,21.412,0.694,29.776-6.251c3.729-3.096,6.696-6.998,10.192-10.339
			c3.561-3.403,7.807-5.461,11.966-7.999c2.189-1.336,4.141-2.94,5.794-4.907c0.302-0.36,0.595-0.728,0.879-1.102
			c0.512-0.675,0.637-0.491,1.442-0.274c1.055,0.285,2.12,0.533,3.195,0.733c3.883,0.723,7.849,0.725,11.688-0.249
			c0.918-0.233,1.824-0.517,2.71-0.851c0.408-0.153,0.812-0.317,1.211-0.491c0.627-0.272,0.835-0.109,1.469,0.031
			c2.195,0.487,4.393-0.769,5.998-2.149c3.452-2.97,5.59-7.429,7.477-11.483c2.16-4.642,4.012-9.364,6.508-13.843
			c1.118-2.006,2.102-4.08,3.318-6.032c1.328-2.134,3.008-4.192,3.793-6.612c1.361-4.197-0.516-9.202-2.39-12.941
			c-1.388-2.77-3.188-4.984-5.457-7.076c-0.514-0.474-1.03-0.945-1.514-1.449c-0.742-0.773-0.69-1.168-0.871-2.194
			c-0.185-1.049-0.613-2.034-1.139-2.955c-1.151-2.018-2.77-3.925-4.613-5.345C620.762,278.003,618.966,277.808,617.026,278.676z"/>
	</g>
</g>
</svg>
