<?xml version="1.0" encoding="utf-8"?>
<!-- Generator: Adobe Illustrator 25.3.1, SVG Export Plug-In . SVG Version: 6.00 Build 0)  -->
<!DOCTYPE svg PUBLIC "-//W3C//DTD SVG 1.1//EN" "http://www.w3.org/Graphics/SVG/1.1/DTD/svg11.dtd" [
	<!ENTITY ns_extend "http://ns.adobe.com/Extensibility/1.0/">
	<!ENTITY ns_ai "http://ns.adobe.com/AdobeIllustrator/10.0/">
	<!ENTITY ns_graphs "http://ns.adobe.com/Graphs/1.0/">
	<!ENTITY ns_vars "http://ns.adobe.com/Variables/1.0/">
	<!ENTITY ns_imrep "http://ns.adobe.com/ImageReplacement/1.0/">
	<!ENTITY ns_sfw "http://ns.adobe.com/SaveForWeb/1.0/">
	<!ENTITY ns_custom "http://ns.adobe.com/GenericCustomNamespace/1.0/">
	<!ENTITY ns_adobe_xpath "http://ns.adobe.com/XPath/1.0/">
]>
<svg version="1.1" xmlns:x="&ns_extend;" xmlns:i="&ns_ai;" xmlns:graph="&ns_graphs;"
	 xmlns="http://www.w3.org/2000/svg" xmlns:xlink="http://www.w3.org/1999/xlink" x="0px" y="0px" width="750px" height="750px"
	 viewBox="0 0 750 750" enable-background="new 0 0 750 750" xml:space="preserve">
<metadata>
	<sfw  xmlns="&ns_sfw;">
		<slices></slices>
		<sliceSourceBounds  bottomLeftOrigin="true" height="10008.137" width="5753.954" x="-2154.954" y="-1314"></sliceSourceBounds>
	</sfw>
</metadata>
<g id="FILL-BACKGROUND">
	<rect fill="#FFFFFF" width="750" height="750"/>
</g>
<g id="N-DIMENSIONS">
</g>
<g id="N-TEXT">
</g>
<g id="_x32_D_x24_AG-GUIDES">
</g>
<g id="_x32_D_x24_AG-DIAGRAM">
	<g id="POLYLINE_618_">
		<g>
			<g>
				
					<line fill="none" stroke="#FB8604" stroke-width="3.25" stroke-linecap="round" stroke-linejoin="round" x1="151.797" y1="606.692" x2="153.797" y2="606.692"/>
				
					<line fill="none" stroke="#FB8604" stroke-width="3.25" stroke-linecap="round" stroke-linejoin="round" stroke-dasharray="4.0556,7.0973" x1="160.894" y1="606.692" x2="547.695" y2="606.692"/>
				
					<line fill="none" stroke="#FB8604" stroke-width="3.25" stroke-linecap="round" stroke-linejoin="round" x1="551.243" y1="606.692" x2="553.243" y2="606.692"/>
			</g>
		</g>
	</g>
</g>
<g id="_x32_D_x24_AG-DETAILS-DIAGRAM">
</g>
<g id="_x32_D_x24_AG-DETAILS">
	<g id="POLYLINE_826_">
		<path fill="none" stroke="#FB8604" stroke-width="2" stroke-linecap="round" stroke-linejoin="round" stroke-miterlimit="10" d="
			M446.534,252.616c0.489,3.471,1.461,6.913,3.04,10.05c1.048,2.054,2.386,4.013,4.171,5.496c2.745,2.321,6.837,3.153,10.179,4.257
			c2.487,0.792,4.735,1.877,6.822,3.452c2.624,1.936,5.554,4.725,8.116,6.745c2.29,1.821,4.767,3.474,7.467,4.623
			c3.825,1.62,8.018,2.309,12.158,2.321c3.79-0.01,7.632-0.589,11.159-2.008c2.065-0.838,4.031-1.996,5.617-3.574
			c2.539-2.505,4.025-5.849,5.221-9.158c1.049-3.086,2.6-7.919,3.922-10.867c1.125-2.499,2.556-4.963,4.007-7.287
			c1.832-2.926,4.804-7.312,6.398-10.3c1.267-2.335,2.343-4.817,2.87-7.431c0.815-4.027,0.578-8.507-1.656-12.057
			c-1.603-2.52-4.193-4.206-6.851-5.452"/>
	</g>
</g>
<g id="_x32_D_x24_AG-ANIMALS">
	<g id="POLYLINE_90_">
		
			<path fill="none" stroke="#FB8604" stroke-width="2.75" stroke-linecap="round" stroke-linejoin="round" stroke-miterlimit="10" d="
			M318.052,320.853c14.428,5.069,29.681,8.664,44.725,11.366c6.885,1.206,13.951,2.074,20.949,1.919
			c6.418-0.121,12.847-1.077,19.1-2.493c5.014-1.151,10.025-2.608,14.808-4.507c3.452-1.389,6.871-3.048,9.808-5.358
			c1.483-1.164,2.836-2.512,3.999-3.996c1.917-2.455,3.403-5.246,4.691-8.073c2.757-6.116,4.479-12.707,5.047-19.392l1.251-15.8
			c0.465-4.528,1.009-10.006,1.747-14.466c0.308-1.522,0.692-3.06,1.201-4.527c0.514-1.498,1.344-3.285,1.914-4.766
			c1.148-2.978,2.084-6.099,2.794-9.211c1.88-8.198,2.011-16.748,1.082-25.083c-0.441-3.801-1.115-7.669-2.209-11.338
			c-0.754-2.642-2.084-5.575-3.188-8.1c-0.473-1.128-0.878-2.316-0.929-3.548c-0.025-0.637,0.044-1.294,0.307-1.88
			c0.197-0.443,0.531-0.838,0.977-1.044c0.535-0.253,1.153-0.242,1.725-0.143c1.272,0.226,2.44,0.848,3.469,1.612
			c1.928,1.447,3.527,3.32,5.045,5.179c2.919,3.635,5.536,7.606,7.848,11.654c2.418,4.387,7.42,13.213,9.955,17.497
			c2.892,5.105,5.426,10.52,6.876,16.223"/>
	</g>
	<g id="POLYLINE_91_">
		
			<path fill="none" stroke="#FB8604" stroke-width="2.75" stroke-linecap="round" stroke-linejoin="round" stroke-miterlimit="10" d="
			M472.886,224.12c4.514-2.226,9.216-4.255,14.101-5.509c4.405-1.14,8.991-1.624,13.534-1.704c3.69-0.037,7.444,0.116,11.048,0.966
			c1.915,0.46,3.782,1.189,5.528,2.096c1.18,0.601,2.709,1.506,3.958,1.905c0.861,0.289,1.771,0.442,2.679,0.455
			c1.335,0.021,2.672-0.219,3.968-0.522c2.53-0.605,5.212-1.537,7.673-2.392c9.273-3.347,20.589-7.536,29.748-11.154"/>
	</g>
	<g id="POLYLINE_92_">
		
			<path fill="none" stroke="#FB8604" stroke-width="2.75" stroke-linecap="round" stroke-linejoin="round" stroke-miterlimit="10" d="
			M534.128,289.784c0.781,4.621,2.561,10.646,3.835,15.203c1.525,5.571,2.249,11.374,2.476,17.138
			c0.249,6.395-0.076,12.864-0.985,19.2c-1.129,7.901-3.772,18.397-4.486,26.333c-0.692,6.058,0.046,13.61,0.43,19.71
			c0.333,5.743,0.243,11.605-0.943,17.25c-1.213,5.93-3.585,11.601-6.333,16.973c-3.022,5.857-6.63,11.526-10.53,16.836
			c-3.926,5.34-8.302,10.462-13.089,15.05l-8.914,8.314c-2.721,2.633-5.301,5.511-7.128,8.848
			c-3.446,6.385-4.466,13.834-5.445,20.934c-1.014,10.006-4.912,38.879-6.313,49.248c-1.192,10.011-2.114,20.355-0.86,30.394
			c0.519,3.812,1.23,7.724,2.783,11.264c0.648,1.427,1.499,2.789,2.647,3.869c1.107,1.054,2.477,1.79,3.863,2.409
			c1.829,0.814,4.197,1.652,5.793,2.865c2.233,1.611,3.978,3.931,4.761,6.582c0.375,1.258,0.57,2.58,0.506,3.893
			c-0.054,1.032-0.284,2.097-0.901,2.946c-0.54,0.758-1.389,1.245-2.29,1.439c-0.818,0.189-1.698,0.2-2.535,0.209
			c0,0-20.711-0.002-20.711-0.002c-0.352-0.01-0.782-0.011-1.134-0.039c-0.817-0.054-1.643-0.175-2.414-0.459
			c-0.701-0.255-1.353-0.657-1.878-1.189c-0.754-0.758-1.267-1.721-1.668-2.703c-0.678-1.691-1.075-3.504-1.411-5.29
			c-1.178-7.03-1.847-15.047-3.62-21.948c-1.611-6.575-4.526-13.575-5.874-20.217c-0.361-1.833-0.597-3.756-0.755-5.617
			c-0.2-1.028-1.659-33.219-1.786-35.014c-0.924-14.809-2.34-30.414-4.713-45.047c-1.641-10.043-3.782-20.255-6.859-29.963"/>
	</g>
	<g id="POLYLINE_93_">
		
			<path fill="none" stroke="#FB8604" stroke-width="2.75" stroke-linecap="round" stroke-linejoin="round" stroke-miterlimit="10" d="
			M578.348,262.389c0.696,0.924,0.719,2.192,0.568,3.294c-0.43,3.083-2.641,5.459-4.909,7.416c-2.46,2.116-5.214,3.921-8.147,5.31
			c-5.891,2.766-13.327,4.126-19.513,6.102c-7.343,2.319-14.215,6.048-20.558,10.378c-3.731,2.513-7.971,6.155-12.372,7.292
			c-2.62,0.694-5.388,0.646-8.054,0.26c-4.397-0.655-8.674-2.135-12.794-3.773"/>
	</g>
	<g id="POLYLINE_94_">
		
			<path fill="none" stroke="#FB8604" stroke-width="2.75" stroke-linecap="round" stroke-linejoin="round" stroke-miterlimit="10" d="
			M575.8,217.279c0.411,4.177,0.222,8.487-1.062,12.506c-1.409,4.361-4.037,8.295-7.332,11.46c-2.28,2.176-4.914,3.981-7.697,5.452
			c-4.117,2.208-9.27,3.726-13.573,5.531c-2.841,1.184-5.667,2.606-8.282,4.229c-1.694,1.061-3.365,2.227-4.828,3.596
			c-1.342,1.273-2.567,2.806-3.001,4.64c-0.28,1.175-0.129,2.467,0.526,3.494c0.505,0.806,1.276,1.412,2.105,1.858
			c1.324,0.707,2.806,1.09,4.273,1.374c2.546,0.474,5.167,0.619,7.752,0.533c6.955-0.186,13.624-2.659,19.794-5.72"/>
	</g>
	<g id="POLYLINE_95_">
		
			<path fill="none" stroke="#FB8604" stroke-width="2.75" stroke-linecap="round" stroke-linejoin="round" stroke-miterlimit="10" d="
			M566.162,207.505c-0.925,0.473-1.677,1.29-1.924,2.315c-0.24,0.947-0.075,1.948,0.245,2.856c0.596,1.65,1.661,3.138,3.03,4.234
			c0.899,0.709,1.947,1.226,3.046,1.541c0.758,0.215,1.549,0.341,2.339,0.326c0.54-0.012,1.089-0.092,1.588-0.307
			c0.46-0.195,0.865-0.519,1.15-0.93c0.355-0.506,0.539-1.113,0.638-1.719c0.195-1.286,0.089-2.611-0.17-3.88
			c-0.232-1.072-0.586-2.145-1.224-3.048c-0.49-0.697-1.17-1.259-1.95-1.603c-1.058-0.469-2.238-0.603-3.386-0.574
			C568.383,206.759,567.202,206.971,566.162,207.505z"/>
	</g>
	<g id="POLYLINE_96_">
		
			<path fill="none" stroke="#FB8604" stroke-width="2.75" stroke-linecap="round" stroke-linejoin="round" stroke-miterlimit="10" d="
			M444.003,466.148c-8.078,1.317-16.394,1.263-24.539,0.669c-11.041-0.824-22.265-2.459-33.115-4.643
			c-13.28-2.811-26.937-5.825-39.681-10.54c-17.813-6.65-35.173-17.375-51.83-26.496c-2.808-1.44-5.731-2.834-8.824-3.528
			c-2.425-0.55-5.059-0.532-7.337,0.554c-1.908,0.888-3.515,2.317-4.928,3.855c-2.353,2.582-4.308,5.62-6.168,8.57l-11.46,18.948
			c-3.02,4.855-9.214,14.569-12.341,19.363c-5.92,9.175-30.612,44.479-35.162,53.433c-1.799,3.415-3.319,7.028-4.338,10.755
			c-2.724,9.922-2.466,20.484-0.366,30.499c0.605,2.868,1.368,5.841,2.316,8.613c0.534,1.542,1.132,3.1,1.918,4.532
			c0.462,0.837,1.006,1.642,1.659,2.341c0.565,0.608,1.218,1.137,1.909,1.596c3.643,2.361,8.516,4.069,12.488,5.835
			c1.313,0.588,2.649,1.229,3.856,2.013c0.866,0.563,1.686,1.227,2.32,2.049c0.672,0.86,1.137,1.872,1.422,2.923
			c0.319,1.195,0.466,2.448,0.528,3.681c0.031,0.947-0.006,1.929-0.362,2.818c-0.185,0.462-0.479,0.88-0.864,1.198
			c-0.556,0.464-1.246,0.739-1.938,0.929c-1.904,0.493-3.934,0.52-5.891,0.563c0,0-20.072,0.012-20.072,0.012
			s-0.702-0.004-0.702-0.004c-0.292,0.008-0.605-0.026-0.895-0.047c-0.55-0.055-1.099-0.183-1.594-0.437
			c-0.848-0.43-1.499-1.156-2.045-1.919c-0.968-1.373-1.7-2.921-2.353-4.464c-2.497-5.776-4.54-16.541-6.08-22.764
			c-2.472-10.609-8.682-29.508-10.603-40.151c-0.377-2.314-0.604-4.69-0.468-7.034c0.225-4.252,1.779-8.32,3.79-12.033
			c2.101-3.955,5.249-8.083,7.155-12.14c1.646-3.393,2.556-7.116,2.816-10.872c0.348-4.66,0.023-9.47-0.38-14.12
			c-2.046-21.473-7.174-51.382-9.985-72.902c-0.673-5.494-1.24-11.363-1.408-16.896c-0.212-6.814,0.158-13.739,1.518-20.429
			c1.136-5.608,2.99-11.109,5.551-16.228c5.305-10.588,13.419-19.567,22.257-27.343"/>
	</g>
	<g id="POLYLINE_97_">
		
			<path fill="none" stroke="#FB8604" stroke-width="2.75" stroke-linecap="round" stroke-linejoin="round" stroke-miterlimit="10" d="
			M211.541,329.288c-0.701-0.411-1.212-1.087-1.542-1.82c-0.494-1.099-0.673-2.315-0.742-3.51
			c-0.173-4.345,0.879-8.763,2.153-12.893c0.959-2.983,2.143-5.944,3.758-8.636c1.307-2.194,2.914-4.219,4.704-6.039
			c2.823-2.869,6.09-5.343,9.382-7.647c4.302-2.985,8.87-5.72,13.536-8.097c6.141-3.101,12.638-5.734,19.404-7.086
			c8.315-1.653,17.09-1.406,25.179,1.223c4.587,1.481,8.896,3.825,12.654,6.841c5.181,4.14,9.371,9.435,13.027,14.933
			c3.067,4.733,5.823,9.847,6.957,15.418c0.399,2.113,0.552,4.383-0.236,6.426c-0.571,1.502-1.742,2.711-3.175,3.418
			c-1.648,0.829-3.515,1.108-5.337,1.24c-3.214,0.205-6.49-0.091-9.677-0.513c-5.052-0.694-10.231-1.858-15.156-3.182
			c-8.255-2.209-18.276-5.774-26.829-5.922c-12.037-0.27-23.398,6.96-33.79,12.218c-3.097,1.522-6.297,3.112-9.672,3.896
			C214.644,329.868,212.923,330.078,211.541,329.288z"/>
	</g>
	<g id="POLYLINE_98_">
		
			<path fill="none" stroke="#FB8604" stroke-width="2.75" stroke-linecap="round" stroke-linejoin="round" stroke-miterlimit="10" d="
			M509.579,448.262c-6.724,26.023-13.344,53.067-16.627,79.756c-1.285,10.155-1.647,21.742-2.016,32.011
			c-0.114,6.554-0.651,14.035,0.239,20.505c0.305,1.975,0.865,3.974,2.06,5.605c1.493,2.052,3.783,3.323,6.01,4.436
			c3.102,1.524,7.05,2.953,9.91,4.901c0.878,0.599,1.721,1.28,2.4,2.104c1.201,1.447,1.813,3.423,1.452,5.287
			c-0.125,0.639-0.379,1.26-0.783,1.774c-0.396,0.51-0.928,0.904-1.507,1.183c-1.818,0.847-4.029,0.81-6.001,0.862l-18.217,0.008"/>
	</g>
	<g id="POLYLINE_99_">
		
			<path fill="none" stroke="#FB8604" stroke-width="2.75" stroke-linecap="round" stroke-linejoin="round" stroke-miterlimit="10" d="
			M250.86,461.91c-9.179,21.153-19.066,43.381-24.939,65.671c-1.567,6.095-2.781,12.558-3.698,18.786
			c-0.937,6.574-1.597,13.369-1.474,20.012c0.065,2.777,0.246,5.608,0.783,8.338c0.372,1.858,0.938,3.704,1.872,5.36
			c1.189,2.151,3.056,3.844,5.102,5.168c2.574,1.744,6.814,3.546,9.62,4.939c1.927,0.964,3.888,1.99,5.597,3.311
			c0.902,0.706,1.752,1.52,2.337,2.514c0.994,1.654,1.146,3.707,0.663,5.551c-0.248,0.961-0.646,1.9-1.259,2.687
			c-0.558,0.723-1.306,1.296-2.143,1.659c-1.615,0.688-3.422,0.731-5.152,0.776l-17.865,0.01"/>
	</g>
	<g id="POLYLINE_100_">
		
			<path fill="none" stroke="#FB8604" stroke-width="2.75" stroke-linecap="round" stroke-linejoin="round" stroke-miterlimit="10" d="
			M529.949,265.088c4.519-1.089,9.19-2.036,13.828-2.411c3.002-0.234,6.06-0.214,9.021,0.376c3.833,0.741,7.959,2.673,11.835,3.2
			c2.049,0.284,4.134-0.016,6.099-0.621c2.457-0.742,4.835-1.845,7.126-2.994c1.226-0.634,2.68-1.35,3.858-2.06
			c0.467-0.286,0.943-0.595,1.351-0.962c0.281-0.254,0.541-0.545,0.7-0.892c0.358-0.757,0.032-1.627-0.436-2.261
			c-1.417-1.872-3.812-2.663-6.061-2.95c-1.727-0.212-3.502-0.159-5.21,0.179c-1.265,0.25-2.728,0.738-3.979,1.057
			c-1.091,0.283-2.228,0.499-3.35,0.614c-6.159,0.614-12.247-1.368-17.988-3.385"/>
	</g>
</g>
<g id="_x32_D_x24_AG-OUTLINE">
	<g id="POLYLINE_43_">
		
			<path fill="none" stroke="#FB8604" stroke-width="3.5" stroke-linecap="round" stroke-linejoin="round" stroke-miterlimit="10" d="
			M492.052,606.661l12.664,0.024c1.225-0.025,2.535-0.041,3.745-0.223c0.773-0.115,1.549-0.298,2.255-0.639
			c0.6-0.288,1.149-0.701,1.549-1.237c0.396-0.524,0.64-1.152,0.756-1.796c0.329-1.843-0.281-3.783-1.467-5.211
			c-0.678-0.823-1.521-1.505-2.4-2.104c-2.855-1.945-6.813-3.378-9.91-4.901c-2.271-1.134-4.613-2.438-6.1-4.561
			c-1.135-1.609-1.673-3.555-1.971-5.48c-0.89-6.457-0.36-13.976-0.239-20.505c0.374-10.268,0.73-21.844,2.016-32.011
			c3.282-26.682,9.904-53.745,16.627-79.756c5.553-6.143,10.516-12.921,14.811-19.999c3.515-5.865,6.68-12.072,8.755-18.602
			c1.071-3.391,1.784-6.928,2.131-10.467c0.394-3.889,0.338-7.924,0.123-11.826c-0.388-6.141-1.122-13.64-0.43-19.71
			c0.712-7.921,3.358-18.441,4.486-26.333c0.909-6.336,1.234-12.805,0.985-19.2c-0.227-5.763-0.951-11.567-2.476-17.138
			c-1.28-4.579-3.05-10.563-3.835-15.203c4.168-2.28,8.601-4.205,13.154-5.565c5.89-1.798,13.006-3.188,18.577-5.81
			c3.181-1.51,6.156-3.499,8.768-5.861c1.499-1.371,2.927-2.918,3.716-4.816c0.435-1.059,0.693-2.21,0.64-3.358
			c-0.038-0.698-0.201-1.422-0.636-1.985c1.541-0.838,3.424-1.649,4.751-2.801c0.269-0.247,0.517-0.53,0.67-0.865
			c0.413-0.888-0.081-1.877-0.671-2.557c-1.901-2.127-4.927-2.721-7.662-2.778c-1.715-0.032-3.435,0.24-5.078,0.724
			c-2.044,0.608-4.209,1.188-6.344,1.312c-5.93,0.39-11.743-1.505-17.269-3.448l1.364-0.54c2.99-1.156,7.334-2.625,10.163-4.016
			c2.147-1.032,4.229-2.252,6.146-3.669c4.722-3.48,8.501-8.365,10.321-13.968c1.285-4.018,1.473-8.329,1.062-12.506
			c0.558-1.034,0.604-2.258,0.557-3.408c-0.055-0.996-0.225-1.999-0.519-2.953c-0.23-0.738-0.545-1.462-1.004-2.088
			c-0.456-0.627-1.067-1.141-1.767-1.476c-0.788-0.381-1.663-0.556-2.532-0.619c-1.105-0.074-2.23,0.025-3.293,0.338
			c-0.78,0.233-1.54,0.602-2.118,1.186c-9.941,3.904-21.837,8.356-31.917,11.904c-1.742,0.582-3.619,1.189-5.399,1.617
			c-1.367,0.324-2.779,0.583-4.189,0.544c-0.87-0.022-1.739-0.175-2.564-0.452c-1.245-0.396-2.789-1.307-3.958-1.905
			c-1.747-0.907-3.613-1.636-5.528-2.096c-3.603-0.85-7.358-1.004-11.048-0.966c-4.543,0.08-9.129,0.564-13.534,1.704
			c-4.885,1.254-9.587,3.283-14.101,5.509l-3.413-5.855l-5.26-9.408c-2.313-4.049-4.929-8.018-7.848-11.654
			c-1.518-1.86-3.117-3.731-5.045-5.179c-1.029-0.765-2.197-1.387-3.469-1.612c-0.572-0.099-1.19-0.109-1.725,0.143
			c-0.446,0.206-0.779,0.601-0.977,1.044c-0.263,0.586-0.332,1.243-0.307,1.88c0.051,1.232,0.456,2.42,0.929,3.548
			c1.118,2.538,2.424,5.458,3.188,8.1c1.094,3.669,1.768,7.537,2.209,11.338c0.929,8.336,0.798,16.885-1.082,25.083
			c-0.711,3.12-1.659,6.269-2.812,9.255c-0.522,1.333-1.437,3.371-1.897,4.722c-0.509,1.467-0.893,3.006-1.201,4.527
			c-0.737,4.449-1.284,9.95-1.747,14.466l-1.251,15.8c-0.568,6.686-2.29,13.276-5.047,19.392c-1.288,2.827-2.774,5.619-4.691,8.073
			c-1.163,1.484-2.516,2.832-3.999,3.996c-2.937,2.309-6.356,3.969-9.808,5.358c-4.783,1.899-9.795,3.357-14.808,4.507
			c-6.254,1.416-12.682,2.372-19.1,2.493c-6.997,0.155-14.066-0.712-20.949-1.919c-15.043-2.703-30.296-6.297-44.725-11.366
			c1.319-1.122,2.029-2.773,2.213-4.473c0.275-2.542-0.308-5.098-1.057-7.514c-2.092-6.422-5.832-12.209-9.892-17.555
			c-2.968-3.862-6.34-7.492-10.242-10.426c-3.401-2.572-7.225-4.601-11.268-5.957c-8.386-2.824-17.536-3.061-26.165-1.254
			c-5.778,1.213-11.378,3.371-16.697,5.91c-6.33,3.053-12.428,6.719-18.092,10.881c-2.924,2.168-5.798,4.525-8.22,7.253
			c-1.675,1.881-3.132,3.974-4.303,6.204c-1.122,2.123-2.018,4.404-2.771,6.682c-0.91,2.79-1.64,5.69-2.047,8.599
			c-0.21,1.57-0.342,3.183-0.254,4.768c0.059,0.992,0.194,1.998,0.52,2.94c-8.688,7.643-16.669,16.446-21.982,26.799
			c-2.522,4.929-4.393,10.215-5.582,15.622c-1.559,7.053-1.987,14.372-1.762,21.579c0.138,4.616,0.574,9.624,1.091,14.221
			c2.33,18.953,7.206,48.044,9.377,66.918c0.781,6.981,1.684,14.354,1.393,21.374c-0.159,3.868-0.876,7.751-2.458,11.3
			c-1.626,3.832-4.538,7.821-6.64,11.41c-1.655,2.835-3.124,5.841-3.978,9.02c-0.711,2.586-0.937,5.298-0.75,7.971
			c0.329,4.771,1.639,9.557,2.855,14.169c0.427,1.609,7.311,25.931,7.43,26.714c0.952,3.613,3.329,14.267,4.264,17.906
			c0.757,2.903,1.674,5.868,2.885,8.617c0.596,1.332,1.264,2.673,2.123,3.858c0.467,0.636,1.009,1.241,1.687,1.658
			c0.822,0.518,1.819,0.637,2.773,0.642c9.155,0,24.684-0.009,33.726,0.004c1.262-0.018,2.917,0.013,4.157-0.117
			c1.111-0.107,2.243-0.304,3.247-0.815c0.688-0.348,1.302-0.845,1.783-1.448c0.539-0.671,0.918-1.462,1.176-2.281
			c0.457-1.448,0.555-3.035,0.129-4.502c-0.394-1.415-1.307-2.611-2.412-3.556c-1.834-1.573-4.031-2.71-6.179-3.791
			c-2.83-1.421-7.032-3.192-9.62-4.939c-2.046-1.324-3.913-3.016-5.102-5.168c-0.935-1.656-1.5-3.502-1.872-5.36
			c-0.537-2.729-0.718-5.56-0.783-8.338c-0.124-6.642,0.536-13.439,1.473-20.012c0.918-6.227,2.131-12.69,3.699-18.786
			c5.866-22.272,15.769-44.548,24.939-65.671c3.658-5.651,13.129-21.35,16.721-27.32c1.936-3.061,3.953-6.208,6.434-8.857
			c1.347-1.424,2.872-2.737,4.662-3.568c2.279-1.086,4.911-1.105,7.337-0.554c3.094,0.694,6.016,2.088,8.824,3.528
			c16.017,8.774,32.807,19.086,49.825,25.73c13.344,5.183,27.706,8.342,41.686,11.306c10.847,2.183,22.077,3.82,33.115,4.643
			c8.143,0.594,16.461,0.649,24.539-0.669c2.505,14.507,4.003,29.863,4.995,44.558c0.386,5.369,1.618,37.889,2.456,42.367
			c0.423,2.818,1.198,5.656,2.033,8.38c2.025,6.333,4.405,13.246,5.447,19.795c1.052,5.637,1.554,12.695,2.86,18.28
			c0.338,1.334,0.747,2.681,1.4,3.897c0.501,0.934,1.193,1.796,2.117,2.338c0.775,0.463,1.667,0.702,2.558,0.815
			c0.618,0.081,1.268,0.102,1.892,0.11C470.909,606.68,491.458,606.725,492.052,606.661z"/>
	</g>
</g>
</svg>
