<?xml version="1.0" encoding="utf-8"?>
<!-- Generator: Adobe Illustrator 25.3.1, SVG Export Plug-In . SVG Version: 6.00 Build 0)  -->
<!DOCTYPE svg PUBLIC "-//W3C//DTD SVG 1.1//EN" "http://www.w3.org/Graphics/SVG/1.1/DTD/svg11.dtd" [
	<!ENTITY ns_extend "http://ns.adobe.com/Extensibility/1.0/">
	<!ENTITY ns_ai "http://ns.adobe.com/AdobeIllustrator/10.0/">
	<!ENTITY ns_graphs "http://ns.adobe.com/Graphs/1.0/">
	<!ENTITY ns_vars "http://ns.adobe.com/Variables/1.0/">
	<!ENTITY ns_imrep "http://ns.adobe.com/ImageReplacement/1.0/">
	<!ENTITY ns_sfw "http://ns.adobe.com/SaveForWeb/1.0/">
	<!ENTITY ns_custom "http://ns.adobe.com/GenericCustomNamespace/1.0/">
	<!ENTITY ns_adobe_xpath "http://ns.adobe.com/XPath/1.0/">
]>
<svg version="1.1" xmlns:x="&ns_extend;" xmlns:i="&ns_ai;" xmlns:graph="&ns_graphs;"
	 xmlns="http://www.w3.org/2000/svg" xmlns:xlink="http://www.w3.org/1999/xlink" x="0px" y="0px" width="750px" height="750px"
	 viewBox="0 0 750 750" enable-background="new 0 0 750 750" xml:space="preserve">
<metadata>
	<sfw  xmlns="&ns_sfw;">
		<slices></slices>
		<sliceSourceBounds  bottomLeftOrigin="true" height="10392.341" width="5655" x="-2000" y="-1314"></sliceSourceBounds>
	</sfw>
</metadata>
<g id="FILL-BACKGROUND">
	<rect fill="#FFFFFF" width="750" height="750"/>
</g>
<g id="N-DIMENSIONS">
</g>
<g id="N-TEXT">
</g>
<g id="_x32_D_x24_AG-DIAGRAM">
	<g id="POLYLINE_687_">
		<g>
			<g>
				
					<line fill="none" stroke="#FB8604" stroke-width="3.25" stroke-linecap="round" stroke-linejoin="round" x1="91.488" y1="588.878" x2="93.488" y2="588.878"/>
				
					<line fill="none" stroke="#FB8604" stroke-width="3.25" stroke-linecap="round" stroke-linejoin="round" stroke-dasharray="4.0099,7.0173" x1="100.505" y1="588.878" x2="560.141" y2="588.878"/>
				
					<line fill="none" stroke="#FB8604" stroke-width="3.25" stroke-linecap="round" stroke-linejoin="round" x1="563.65" y1="588.878" x2="565.65" y2="588.878"/>
			</g>
		</g>
	</g>
</g>
<g id="_x32_D_x24_AG-DETAILS-DIAGRAM">
</g>
<g id="_x32_D_x24_AG-DETAILS">
</g>
<g id="_x32_D_x24_AG-ANIMALS">
	<g id="POLYLINE_124_">
		
			<path fill="none" stroke="#FB8604" stroke-width="2.75" stroke-linecap="round" stroke-linejoin="round" stroke-miterlimit="10" d="
			M563.245,329.554c-0.74,0.579-1.358,1.306-1.904,2.066c-1.959,2.758-4.834,8.938-6.464,11.991
			c-2.623,5.033-5.158,10.604-7.34,15.85c-1.606,3.835-4.733,12.042-6.34,15.87c-0.996,2.316-2.037,4.71-3.475,6.791
			c-0.31,0.429-0.743,0.984-0.982,1.443c-0.162,0.307-0.285,0.638-0.362,0.976c-0.187,0.889-0.141,1.963-0.244,2.864
			c-0.19,2.089-0.63,4.234-1.104,6.279c-1.035,4.329-2.493,9.159-3.799,13.425c-1.511,4.703-3.343,10.697-5.174,15.247
			c-0.544,1.322-1.162,2.647-2.072,3.761l-1.29,1.586c-3.251,4.071-5.801,8.697-7.821,13.49c-1.21,2.904-2.403,5.896-3.097,8.971
			c-0.179,0.837-0.302,1.707-0.36,2.56c-0.142,3.345-0.054,9.564-0.188,12.888l-0.928,22.678c-0.37,8.298,0.403,20.277,0.856,28.668
			c0.176,4.756,0.156,9.792-0.107,14.544c-0.22,4.505-1.002,11.732-1.479,16.295c-0.116,1.256-0.222,2.544,0.014,3.791
			c0.793,4.135,3.784,8.729,5.721,12.444c0.609,1.101,1.278,2.199,2.154,3.109c0.677,0.709,1.487,1.293,2.37,1.718
			c1.206,0.583,2.531,0.894,3.854,1.074c2.467,0.328,5.975,0.229,8.462,0.407c2.131,0.146,4.284,0.489,6.323,1.132
			c1.058,0.344,2.131,0.745,3.019,1.431c0.762,0.583,1.346,1.372,1.794,2.214c1.11,2.156,1.759,4.54,2.332,6.886
			c0.303,1.375,0.667,2.885,0.517,4.295c-0.066,0.548-0.263,1.1-0.664,1.492c-0.287,0.286-0.654,0.48-1.033,0.615
			c-0.557,0.197-1.154,0.287-1.741,0.343c-0.97,0.104-2.214,0.09-3.2,0.115c0,0-31.66,0.011-31.66,0.011
			c-0.371-0.019-1.161-0.002-1.532-0.025c-0.264-0.015-0.641-0.021-0.906-0.045c-0.634-0.052-1.292-0.119-1.871-0.399
			c-0.301-0.146-0.566-0.361-0.792-0.607c-1.118-1.318-2.129-3.049-3.056-4.517c-1.47-2.417-2.96-5.092-4.24-7.615
			c-1.463-2.861-3.785-7.796-5.534-10.441c-0.675-1.025-1.405-2.045-2.321-2.869c-0.593-0.532-1.301-0.93-2.046-1.206
			c-0.627-0.25-1.363-0.396-1.903-0.824c-0.347-0.279-0.571-0.681-0.733-1.089c-0.522-1.383-0.715-2.982-1-4.427
			c-0.842-4.884-1.421-9.946-1.496-14.905c-0.039-3.465-0.044-11.132-0.203-14.405c-0.299-6.316-0.679-13.335-1.493-19.597
			c-0.124-0.888-0.322-1.959-0.504-2.846c-1.042-4.899-2.477-11.045-3.733-15.893c-1.404-5.354-3.043-11.407-4.78-16.633
			c-0.781-2.321-1.636-4.737-2.697-6.942c-0.698-1.444-1.51-2.868-2.515-4.122c-0.821-1.054-1.918-1.984-2.83-2.956
			c-0.478-0.517-0.923-1.081-1.215-1.725c-0.278-0.601-0.408-1.262-0.443-1.92c-0.086-2.151,0.452-4.297,0.962-6.372
			c1.224-4.591,2.707-9.474,3.114-14.217c0.121-1.323,0.008-2.657-0.303-3.948c-0.732-3.214-1.626-6.487-2.963-9.506
			c-1.241-2.859-3.125-6.083-4.287-8.975c-1.093-2.651-1.871-5.466-2.094-8.331"/>
	</g>
	<g id="POLYLINE_123_">
		
			<path fill="none" stroke="#FB8604" stroke-width="2.75" stroke-linecap="round" stroke-linejoin="round" stroke-miterlimit="10" d="
			M521.382,283.491c0.403,2.057,0.936,4.124,1.777,6.049c0.636,1.448,1.462,2.84,2.581,3.969c1.142,1.161,2.607,1.947,4.069,2.63
			c2.436,1.107,5.242,2.243,7.321,3.941c1.32,1.048,2.445,2.339,3.449,3.688c1.482,1.998,2.773,4.245,3.962,6.43
			c1.823,3.316,4.313,8.73,6.672,11.617c1.203,1.504,2.686,2.777,4.314,3.802c4.476,2.815,9.434,4.87,14.558,6.156
			c3.122,0.787,6.349,1.367,9.569,1.511c2.032,0.08,4.106-0.001,6.082-0.515c1.333-0.35,2.639-0.928,3.662-1.87
			c2.317-2.116,3.133-5.624,4.168-8.474c0.494-1.405,1.119-2.785,2.014-3.982c1.233-1.724,3.229-3.365,4.804-4.786"/>
	</g>
	<g id="POLYLINE_122_">
		
			<path fill="none" stroke="#FB8604" stroke-width="2.75" stroke-linecap="round" stroke-linejoin="round" stroke-miterlimit="10" d="
			M570.622,231.462c-0.396,1.653-0.908,3.32-1.848,4.752c-1.264,1.961-3.242,3.343-5.318,4.341
			c-1.362,0.634-2.822,1.164-4.335,1.232c-0.612,0.017-1.261-0.053-1.788-0.39c-0.588-0.377-0.862-1.068-0.994-1.727
			c-0.107-0.532-0.141-1.086-0.154-1.627c-0.027-1.414,0.123-3.376,0.128-4.792c0.044-1.975-0.258-3.954-0.749-5.864
			c-0.359-1.492-1.068-3.747-1.243-5.247c-0.094-0.753-0.112-1.531,0.073-2.273c0.402-1.638,1.638-2.897,2.887-3.957
			c2.142-1.757,4.461-3.537,7.228-4.117c1.092-0.224,2.224-0.256,3.334-0.197c3.134,0.176,7.896,1.253,11.024,1.786
			c0.046,0.008,0.188,0.03,0.236,0.037c1.83,0.231,3.885,0.512,5.667,0.914c2.672,0.591,5.361,1.396,7.935,2.324
			c3.819,1.386,7.596,3.106,10.802,5.637c2.155,1.681,4.036,3.738,5.778,5.836c2.925,3.558,6.913,9.058,10.029,12.399
			c3.086,3.383,6.713,6.297,10.63,8.663c1.061,0.628,2.173,1.232,3.342,1.633c0.876,0.318,1.913,0.458,2.826,0.633
			c1.838,0.344,3.576,1.149,5.26,1.937c4.27,1.956,8.127,4.913,11.868,7.721"/>
	</g>
	<g id="POLYLINE_121_">
		
			<path fill="none" stroke="#FB8604" stroke-width="2.75" stroke-linecap="round" stroke-linejoin="round" stroke-miterlimit="10" d="
			M654.18,271.54c-0.463,3.971-1.625,7.84-3.5,11.374c-1.497,2.847-3.341,5.555-5.617,7.838c-0.783,0.782-1.636,1.512-2.539,2.151
			c-1.368,0.99-3.444,2.105-4.891,3.001c-1.424,0.877-2.781,1.914-3.818,3.238c-1.728,2.165-2.971,4.861-4.745,6.993
			c-0.961,1.18-2.155,2.167-3.477,2.918c-1.603,0.92-3.373,1.547-5.151,2.035c-2.64,0.717-5.465,1.167-8.169,1.583
			c-6.206,0.917-12.609,1.453-18.835,0.437c-2.201-0.361-4.389-0.937-6.467-1.749c-3.494-1.353-6.779-3.301-9.907-5.348
			c-4.637-3.201-14.285-9.611-19.042-12.699c-1.133-0.771-2.869-1.966-3.964-2.765"/>
	</g>
	<g id="POLYLINE_120_">
		
			<path fill="none" stroke="#FB8604" stroke-width="2.75" stroke-linecap="round" stroke-linejoin="round" stroke-miterlimit="10" d="
			M460.724,447.397c-9.231,0.366-18.657,0.052-27.79-1.39c-13.496-2.169-26.938-5.638-39.851-10.113
			c-6.194-2.148-14.472-5.672-20.582-8.211c-4.425-1.843-9.151-3.543-13.806-4.689l-12.692-3.026
			c-7.264-1.92-14.565-4.208-21.305-7.559c-4.422-2.201-8.658-4.951-12.668-7.828c-6.09-4.384-14.47-10.978-20.517-15.458
			c-2.49-1.802-5.12-3.748-7.886-5.091c-1.388-0.663-2.882-1.198-4.433-1.259c-2.082-0.088-4.075,0.804-5.741,1.993
			c-2.033,1.462-3.745,3.349-5.216,5.365c-5.23,7.646-17.246,22.997-23.034,30.554c-3.607,4.557-10.809,13.882-14.555,18.129
			c-1.474,1.695-3.097,3.452-4.736,4.989c-1.225,1.163-2.839,2.484-4.139,3.574c-1.1,0.932-2.157,2.001-3.138,3.058
			c-2.93,3.236-6.783,7.493-9.902,10.439c-8.274,7.956-19.519,16.773-28.453,24.102c-1.19,1.002-2.568,2.119-3.673,3.195
			c-2.194,2.078-3.789,4.737-5.335,7.31c-2.677,4.443-5.429,10.555-7.988,15.075c-2.8,4.976-7.007,10.706-10.364,15.374
			c-4.445,6.297-7.919,13.406-11.268,20.333c-1.347,2.881-2.886,6.158-4.007,9.133c-0.466,1.255-0.918,2.577-1.184,3.892
			l-0.296,1.614c-0.152,0.759-0.432,1.725-0.496,2.489c-0.027,0.329-0.018,0.666,0.069,0.986c0.341,1.272,1.667,1.877,2.841,2.175
			c1.598,0.414,3.441,0.617,4.979,1.235c0.967,0.377,1.872,0.928,2.629,1.64c1.361,1.286,2.365,2.911,3.3,4.519
			c1.096,1.94,2.155,3.951,2.814,6.087c0.376,1.237,0.556,2.58,0.212,3.845c-0.427,1.558-1.535,2.907-2.912,3.732
			c-0.612,0.366-1.285,0.633-1.975,0.81c-0.851,0.218-1.743,0.311-2.618,0.368c-1.187,0.152-26.331,0.075-28.214,0.081
			c-0.73-0.021-1.487-0.126-2.123-0.509c-1.247-0.756-1.81-2.251-2.25-3.572c-0.801-2.584-1.178-5.301-1.343-7.996
			c-0.262-4.915,0.455-9.901,2.094-14.543c0.625-1.937,0.525-4.191,1.152-6.129c3.235-9.611,11.395-30.2,14.117-39.774
			c0.476-1.683,0.914-3.459,1.127-5.197c0.172-1.443,0.323-3.329,0.652-4.727c0.192-0.859,0.488-1.707,0.844-2.511
			c0.633-1.436,1.499-3.092,1.912-4.605c0.432-1.491,0.546-3.42,0.699-4.969c0.084-0.774,0.205-1.576,0.604-2.258
			c0.109-0.188,0.239-0.366,0.381-0.532c0.616-0.667,1.349-1.387,1.947-2.073c0.613-0.693,1.274-1.554,2.032-2.066
			c0.826-0.582,2.282-1.379,3.134-1.935c0.661-0.428,1.296-0.918,1.872-1.455c1.967-1.939,5.324-5.18,7.12-7.218
			c0.491-0.441,8.178-10.973,8.827-11.805c3.121-4.269,6.955-9.493,9.733-13.949c1.843-2.93,3.545-6.014,4.765-9.26
			c0.67-1.766,1.202-3.633,1.631-5.472c1.565-7.143,4.368-18.053,5.178-25.246c1.743-17.777,1.015-44.138,1.166-62.192"/>
	</g>
	<g id="POLYLINE_119_">
		
			<path fill="none" stroke="#FB8604" stroke-width="2.75" stroke-linecap="round" stroke-linejoin="round" stroke-miterlimit="10" d="
			M645.468,264.194c-0.077,0.374-0.03,0.764,0.082,1.127c0.212,0.682,0.605,1.325,0.959,1.941c0.66,1.124,1.449,2.212,2.516,2.981
			c0.8,0.583,1.743,0.951,2.705,1.163c0.755,0.162,1.538,0.235,2.307,0.152c0.498-0.055,0.997-0.19,1.418-0.469
			c0.887-0.572,1.243-1.645,1.608-2.582c0.332-0.875,0.654-1.783,0.814-2.707c0.09-0.519,0.126-1.06,0.007-1.578
			c-0.226-1.026-1.075-1.768-1.958-2.26c-2.146-1.199-4.767-1.075-7.067-0.419c-0.959,0.288-1.926,0.687-2.658,1.39
			C645.849,263.277,645.564,263.708,645.468,264.194z"/>
	</g>
	<g id="POLYLINE_118_">
		
			<path fill="none" stroke="#FB8604" stroke-width="2.75" stroke-linecap="round" stroke-linejoin="round" stroke-miterlimit="10" d="
			M561.512,212.918c-1.076,0.047-2.169,0.142-3.213,0.419c-0.674,0.177-1.329,0.446-1.945,0.772c-0.858,0.453-1.7,1.017-2.495,1.573
			c-2.101,1.533-13.735,10.056-15.643,11.551c-0.275,0.233-0.551,0.482-0.758,0.779c-0.19,0.27-0.313,0.583-0.42,0.893l-0.351,1.077
			c-0.226,0.67-0.528,1.328-0.998,1.863c-0.946,1.095-2.298,1.725-3.626,2.232c-1.214,0.46-2.607,0.922-3.789,1.447
			c-1.1,0.488-2.182,1.064-3.176,1.743c-0.622,0.428-1.225,0.904-1.744,1.453c-0.474,0.499-0.877,1.077-1.247,1.656
			c-1.563,2.563-3.314,5.17-5.374,7.354c-0.823,0.871-1.714,1.71-2.705,2.388c-0.781,0.534-1.634,0.97-2.518,1.307
			c-1.741,0.695-3.867,0.935-5.639,1.529c-1.405,0.472-2.651,1.328-3.73,2.333c-1.323,1.23-2.505,2.676-3.64,4.078
			c-2.068,2.609-5.957,7.961-8.205,10.285c-0.952,0.988-2.008,1.9-3.189,2.603c-1.669,0.996-3.543,1.626-5.406,2.15
			c-1.793,0.481-3.998,1.075-5.808,1.45c-2.655,0.564-5.542,0.558-7.988,1.859c-1.133,0.546-2.307,1.432-3.491,1.867
			c-0.516,0.186-1.067,0.264-1.614,0.281c-0.785,0.025-1.678,0.017-2.44,0.182c-0.587,0.116-1.152,0.339-1.684,0.61
			c-2.107,1.123-4.265,2.703-6.411,3.749c-0.371,0.178-0.759,0.338-1.159,0.435c-0.831,0.203-1.73,0.148-2.579,0.121
			c-6.394-0.307-13.253-0.834-19.509,0.746c-3.944,1.054-12.875,3.249-16.648,4.392c-1.354,0.426-2.734,0.93-4.009,1.551
			c-1.084,0.507-2.169,1.243-3.243,1.769c-0.55,0.262-1.136,0.457-1.731,0.585c-1.398,0.296-2.85,0.32-4.274,0.282
			c-2.94-0.097-6.052-0.519-8.967-0.941c-6.795-1.018-16.975-2.94-23.783-3.728c-3.312-0.399-7.329-0.509-10.684-0.605
			c-1.753-0.075-3.576-0.283-5.309-0.551c-4.672-0.687-22.527-4.467-27.168-5.035c-2.417-0.237-5.344-0.547-7.716-0.963
			c-3.15-0.469-17.706-3.665-21.086-4.357c-5.062-0.975-10.346-1.923-15.49-2.133c-4.738-0.274-10.153,0.276-14.903,0.46
			c-3.761,0.105-8.858-0.078-12.611,0.03c-3.331,0.084-6.772,0.377-10.073,0.83c-4.243,0.588-8.546,1.469-12.634,2.755
			c-4.874,1.52-11.701,4.402-16.617,5.735c-3.058,0.886-9.632,2.371-12.674,3.282c-0.904,0.272-1.846,0.591-2.717,0.96
			c-1.783,0.737-3.409,1.832-4.937,2.997c-3.989,3.131-13.143,10.219-17.002,13.476c-1.22,1.043-2.489,2.16-3.605,3.31
			c-1.808,1.893-4.694,5.6-6.37,7.624c-0.734,0.935-1.492,1.915-2.124,2.916c-0.564,0.864-1.183,2.085-1.648,3.022
			c-0.77,1.546-1.753,3.059-2.733,4.483c-1.545,2.229-3.683,5.116-5.332,7.29c-2.285,3.092-5.311,6.442-7.281,9.737
			c-1.388,2.358-2.417,4.947-3.269,7.542c-0.619,1.945-1.183,3.954-1.392,5.99c-0.167,1.73-0.095,3.493,0.117,5.216
			c0.086,0.569,0.156,1.168,0.356,1.71c0.123,0.319,0.339,0.553,0.662,0.678c0.645,0.242,1.467,0.216,2.153,0.225
			c2.462-0.02,5.273-0.318,7.734-0.558c2.409-0.263,4.971-0.576,7.343-1.066c1.606-0.333,3.223-0.763,4.73-1.419
			c1.085-0.466,2.14-1.055,3.135-1.691c2.084-1.393,6.235-4.23,8.248-5.689c1.898-1.374,3.723-2.92,5.163-4.779
			c2.088-2.754,3.437-6.047,4.812-9.196l7.512-18.478c1.442-3.342,3.035-6.88,4.786-10.068"/>
	</g>
</g>
<g id="_x32_D_x24_AG-OUTLINE">
	<g id="POLYLINE_464_">
		
			<path fill="none" stroke="#FB8604" stroke-width="3.5" stroke-linecap="round" stroke-linejoin="round" stroke-miterlimit="10" d="
			M654.18,271.54c0.62-0.082,1.232-0.326,1.676-0.776c0.611-0.603,0.899-1.474,1.207-2.256c0.354-0.933,0.696-1.9,0.843-2.89
			c0.089-0.596,0.083-1.225-0.146-1.79c-0.253-0.641-0.758-1.147-1.314-1.538c-0.944-0.658-2.068-1.039-3.207-1.176
			c-3.747-2.811-7.596-5.764-11.868-7.721c-1.621-0.757-3.288-1.532-5.048-1.894c-0.944-0.196-2.014-0.322-2.923-0.637
			c-1.081-0.356-2.113-0.893-3.097-1.46c-4.06-2.397-7.808-5.39-10.989-8.874c-3.108-3.33-7.115-8.854-10.029-12.399
			c-1.743-2.097-3.623-4.155-5.778-5.836c-3.205-2.53-6.983-4.251-10.802-5.637c-2.573-0.927-5.263-1.733-7.935-2.324
			c-1.781-0.416-3.852-0.671-5.667-0.914c-0.049-0.007-0.189-0.029-0.236-0.037c-2.738-0.483-7.41-1.455-10.12-1.717
			c-0.892-0.085-1.808-0.123-2.703-0.069c-1.599,0.079-3.132,0.558-4.533,1.324c-1.076,0.047-2.169,0.142-3.213,0.419
			c-0.674,0.177-1.329,0.446-1.945,0.772c-0.858,0.453-1.7,1.017-2.495,1.573c-2.101,1.533-13.735,10.056-15.643,11.551
			c-0.275,0.233-0.551,0.482-0.758,0.779c-0.19,0.27-0.313,0.583-0.42,0.893l-0.351,1.077c-0.226,0.67-0.528,1.328-0.998,1.863
			c-0.946,1.095-2.298,1.725-3.626,2.232c-1.214,0.46-2.607,0.922-3.789,1.447c-1.1,0.488-2.182,1.064-3.176,1.743
			c-0.622,0.428-1.225,0.904-1.744,1.453c-0.474,0.499-0.877,1.077-1.247,1.656c-1.563,2.563-3.314,5.17-5.374,7.354
			c-0.823,0.871-1.714,1.71-2.705,2.388c-0.781,0.534-1.634,0.97-2.518,1.307c-1.741,0.695-3.867,0.935-5.639,1.529
			c-1.405,0.472-2.651,1.328-3.73,2.333c-1.323,1.23-2.505,2.676-3.64,4.078c-2.068,2.609-5.957,7.961-8.205,10.285
			c-0.952,0.988-2.008,1.9-3.189,2.603c-1.669,0.996-3.543,1.626-5.406,2.15c-1.793,0.481-3.998,1.075-5.808,1.45
			c-2.655,0.564-5.542,0.558-7.988,1.859c-1.133,0.546-2.307,1.432-3.491,1.867c-0.516,0.186-1.067,0.264-1.614,0.281
			c-0.785,0.025-1.678,0.017-2.44,0.182c-0.587,0.116-1.152,0.339-1.684,0.61c-2.107,1.123-4.265,2.703-6.411,3.749
			c-0.371,0.178-0.759,0.338-1.159,0.435c-0.831,0.203-1.73,0.148-2.579,0.121c-6.394-0.307-13.253-0.834-19.509,0.746
			c-3.944,1.054-12.875,3.249-16.648,4.392c-1.354,0.426-2.734,0.93-4.009,1.551c-1.084,0.507-2.169,1.243-3.243,1.769
			c-0.55,0.262-1.136,0.457-1.731,0.585c-1.398,0.296-2.85,0.32-4.274,0.282c-2.94-0.097-6.052-0.519-8.967-0.941
			c-6.795-1.018-16.975-2.94-23.783-3.728c-3.312-0.399-7.329-0.509-10.684-0.605c-1.753-0.075-3.576-0.283-5.309-0.551
			c-4.672-0.687-22.527-4.467-27.168-5.035c-2.417-0.237-5.344-0.547-7.716-0.963c-3.15-0.469-17.706-3.665-21.086-4.357
			c-5.062-0.975-10.346-1.923-15.49-2.133c-4.738-0.274-10.153,0.276-14.903,0.46c-3.761,0.105-8.858-0.078-12.611,0.03
			c-3.331,0.084-6.772,0.377-10.073,0.83c-4.243,0.588-8.546,1.469-12.634,2.755c-4.874,1.52-11.701,4.402-16.617,5.735
			c-3.058,0.886-9.632,2.371-12.674,3.282c-0.904,0.272-1.846,0.591-2.717,0.96c-1.783,0.737-3.409,1.832-4.937,2.997
			c-5.485,4.378-14.724,11.24-19.805,15.987c-0.708,0.686-1.437,1.444-2.074,2.195c-1.455,1.753-4.308,5.217-5.672,6.959
			c-0.724,0.938-1.428,1.931-2.021,2.957c-0.56,0.954-1.137,2.223-1.674,3.191c-1.086,1.958-2.479,3.905-3.783,5.729
			c-1.646,2.281-3.959,5.351-5.69,7.566c-1.156,1.523-3.242,4-4.278,5.56c-1.387,1.977-2.472,4.175-3.353,6.42
			c-1.065,2.788-2.027,5.684-2.39,8.657c-0.124,1.102-0.13,2.235-0.078,3.341c0.057,1.065,0.152,2.155,0.374,3.199
			c0.084,0.368,0.184,0.769,0.48,1.026c0.176,0.154,0.4,0.24,0.625,0.294c0.879,0.189,1.815,0.131,2.709,0.118
			c4.047-0.184,8.283-0.626,12.285-1.247c1.827-0.309,3.693-0.684,5.444-1.296c1.25-0.437,2.463-1.018,3.599-1.697
			c2.8-1.77,7.015-4.715,9.686-6.659c2.36-1.75,4.489-3.869,5.94-6.443c-0.148,18.209,0.574,44.346-1.166,62.192
			c-0.805,7.147-3.61,18.106-5.178,25.246c-0.43,1.841-0.96,3.706-1.631,5.472c-1.221,3.246-2.922,6.329-4.765,9.26
			c-2.77,4.444-6.617,9.691-9.733,13.949c-0.649,0.842-8.328,11.342-8.827,11.805c-1.687,1.922-5.287,5.409-7.12,7.218
			c-0.576,0.537-1.211,1.028-1.872,1.455c-0.885,0.58-2.344,1.363-3.2,1.983c-0.751,0.53-1.368,1.345-1.966,2.018
			c-0.599,0.687-1.33,1.406-1.947,2.073c-0.141,0.165-0.272,0.343-0.381,0.532c-0.399,0.682-0.519,1.484-0.604,2.258
			c-0.155,1.558-0.267,3.473-0.699,4.969c-0.412,1.509-1.28,3.171-1.912,4.605c-0.356,0.804-0.652,1.653-0.844,2.511
			c-0.328,1.393-0.481,3.295-0.652,4.727c-0.213,1.739-0.652,3.51-1.127,5.197c-3.47,11.691-10.043,27.982-14.066,39.606
			c-0.254,0.796-0.42,1.632-0.531,2.46c-0.166,1.182-0.287,2.719-0.671,3.838c-1.597,4.519-2.317,9.366-2.114,14.153
			c0.136,2.722,0.502,5.464,1.269,8.084c0.265,0.861,0.572,1.73,1.037,2.505c0.308,0.51,0.702,0.981,1.206,1.306
			c0.609,0.401,1.347,0.535,2.065,0.565c2.114,0.006,26.859,0.08,28.371-0.074c0.875-0.057,1.767-0.15,2.618-0.368
			c0.69-0.177,1.363-0.444,1.975-0.81c1.36-0.815,2.449-2.132,2.893-3.663c0.348-1.216,0.209-2.516-0.136-3.717
			c-0.601-2.064-1.606-4.008-2.643-5.883c-0.998-1.748-2.057-3.526-3.528-4.921c-0.758-0.712-1.662-1.263-2.629-1.64
			c-1.494-0.602-3.3-0.815-4.858-1.204c-1.219-0.297-2.622-0.899-2.967-2.228c-0.087-0.33-0.091-0.677-0.06-1.014
			c0.069-0.745,0.344-1.706,0.491-2.44l0.296-1.614c0.266-1.316,0.715-2.633,1.183-3.892c1.119-2.971,2.654-6.244,4.007-9.133
			c3.351-6.929,6.822-14.034,11.268-20.333c3.375-4.69,7.554-10.383,10.364-15.374c2.561-4.523,5.31-10.628,7.988-15.075
			c1.546-2.572,3.141-5.232,5.335-7.31c1.102-1.073,2.489-2.204,3.673-3.195c7.944-6.553,21.196-16.995,28.453-24.102
			c3.13-2.959,6.999-7.232,9.902-10.44c0.978-1.053,2.039-2.127,3.138-3.058c1.31-1.101,2.911-2.409,4.139-3.574
			c1.638-1.537,3.261-3.293,4.735-4.989c3.707-4.202,10.991-13.623,14.555-18.129c5.82-7.6,17.739-22.82,23.034-30.554
			c1.471-2.017,3.182-3.904,5.216-5.365c1.666-1.189,3.659-2.081,5.741-1.993c1.55,0.061,3.044,0.595,4.433,1.259
			c2.764,1.342,5.399,3.29,7.886,5.091c6.052,4.484,14.419,11.069,20.517,15.458c4.009,2.877,8.246,5.627,12.668,7.828
			c6.739,3.351,14.043,5.64,21.305,7.559l12.692,3.026c4.655,1.146,9.377,2.845,13.806,4.689c6.155,2.554,14.365,6.053,20.582,8.211
			c12.913,4.475,26.355,7.944,39.851,10.113c9.132,1.442,18.56,1.756,27.79,1.39c-0.294,1.234-0.562,2.511-0.688,3.774
			c-0.075,0.796-0.103,1.611,0.026,2.402c0.12,0.757,0.433,1.478,0.884,2.097c0.961,1.314,2.349,2.334,3.366,3.601
			c1.848,2.248,3.055,4.959,4.096,7.655c2.401,6.423,4.299,13.599,6.058,20.24c1.433,5.715,3.117,12.431,4.159,18.224
			c0.601,3.965,0.891,8.833,1.189,12.844c0.479,6.483,0.569,15.132,0.585,21.672c0.102,5.855,0.844,11.788,1.993,17.526
			c0.184,0.795,0.351,1.627,0.763,2.339c0.153,0.256,0.356,0.485,0.604,0.653c0.564,0.372,1.273,0.518,1.892,0.773
			c1.022,0.385,1.88,1.015,2.6,1.832c0.96,1.072,1.752,2.319,2.485,3.555c2.721,4.769,5.321,10.761,8.215,15.496
			c1.111,1.834,2.29,3.84,3.609,5.529c0.21,0.251,0.447,0.489,0.725,0.665c0.35,0.224,0.757,0.345,1.163,0.419
			c0.828,0.151,1.725,0.149,2.564,0.173c5.285-0.008,28.926,0.046,33.72-0.022c0.737-0.024,1.545-0.039,2.276-0.129
			c0.688-0.087,1.395-0.223,2.001-0.576c0.42-0.243,0.756-0.624,0.931-1.078c0.241-0.616,0.249-1.295,0.207-1.946
			c-0.118-1.49-0.494-2.974-0.861-4.419c-0.427-1.597-0.922-3.216-1.593-4.729c-0.414-0.922-0.917-1.828-1.632-2.552
			c-0.923-0.953-2.18-1.476-3.419-1.884c-2.093-0.682-4.307-1.038-6.5-1.189c-2.484-0.178-5.999-0.079-8.462-0.407
			c-1.736-0.235-3.491-0.705-4.949-1.708c-1.058-0.718-1.905-1.709-2.592-2.779c-0.69-1.021-3.071-5.569-3.712-6.695
			c-1.092-2.041-2.111-4.179-2.688-6.429c-0.218-0.853-0.323-1.742-0.298-2.623c0.2-3.584,1.101-10.609,1.333-14.167
			c0.496-6.104,0.612-12.453,0.379-18.573c-0.455-8.438-1.226-20.329-0.856-28.668l0.928-22.678
			c0.134-3.317,0.047-9.546,0.188-12.888c0.058-0.854,0.181-1.723,0.36-2.56c0.694-3.074,1.887-6.067,3.097-8.971
			c2.02-4.792,4.57-9.418,7.821-13.49l1.29-1.586c0.91-1.113,1.528-2.438,2.072-3.76c1.826-4.535,3.666-10.549,5.174-15.247
			c1.307-4.269,2.764-9.092,3.799-13.425c0.474-2.045,0.915-4.189,1.104-6.279c0.103-0.902,0.057-1.974,0.244-2.864
			c0.077-0.339,0.199-0.669,0.362-0.976c0.244-0.475,0.677-1.01,0.982-1.443c1.438-2.081,2.479-4.474,3.475-6.791
			c1.602-3.816,4.739-12.044,6.34-15.87c2.184-5.249,4.716-10.815,7.34-15.85c1.281-2.474,3.464-6.859,4.782-9.263
			c0.512-0.919,1.069-1.872,1.682-2.727c0.546-0.76,1.165-1.487,1.904-2.066c4.286,1.709,8.827,2.888,13.403,3.476
			c2.964,0.347,6.031,0.485,8.952-0.226c1.35-0.34,2.679-0.904,3.725-1.841c2.37-2.112,3.197-5.658,4.239-8.539
			c0.494-1.405,1.119-2.785,2.014-3.982c1.233-1.724,3.229-3.365,4.804-4.786c4.819,0.022,9.709-0.606,14.457-1.393
			c3.947-0.696,8.069-1.458,11.489-3.664c1.133-0.737,2.132-1.677,2.964-2.74c1.686-2.117,2.916-4.752,4.628-6.85
			c1.019-1.266,2.337-2.258,3.712-3.107c1.456-0.899,3.51-2.005,4.891-3.001c0.903-0.639,1.757-1.369,2.539-2.151
			c2.275-2.283,4.12-4.991,5.617-7.838C652.555,279.381,653.717,275.509,654.18,271.54z"/>
	</g>
</g>
</svg>
