<?xml version="1.0" encoding="utf-8"?>
<!-- Generator: Adobe Illustrator 25.3.1, SVG Export Plug-In . SVG Version: 6.00 Build 0)  -->
<!DOCTYPE svg PUBLIC "-//W3C//DTD SVG 1.1//EN" "http://www.w3.org/Graphics/SVG/1.1/DTD/svg11.dtd" [
	<!ENTITY ns_extend "http://ns.adobe.com/Extensibility/1.0/">
	<!ENTITY ns_ai "http://ns.adobe.com/AdobeIllustrator/10.0/">
	<!ENTITY ns_graphs "http://ns.adobe.com/Graphs/1.0/">
	<!ENTITY ns_vars "http://ns.adobe.com/Variables/1.0/">
	<!ENTITY ns_imrep "http://ns.adobe.com/ImageReplacement/1.0/">
	<!ENTITY ns_sfw "http://ns.adobe.com/SaveForWeb/1.0/">
	<!ENTITY ns_custom "http://ns.adobe.com/GenericCustomNamespace/1.0/">
	<!ENTITY ns_adobe_xpath "http://ns.adobe.com/XPath/1.0/">
]>
<svg version="1.1" xmlns:x="&ns_extend;" xmlns:i="&ns_ai;" xmlns:graph="&ns_graphs;"
	 xmlns="http://www.w3.org/2000/svg" xmlns:xlink="http://www.w3.org/1999/xlink" x="0px" y="0px" width="750px" height="750px"
	 viewBox="0 0 750 750" enable-background="new 0 0 750 750" xml:space="preserve">
<metadata>
	<sfw  xmlns="&ns_sfw;">
		<slices></slices>
		<sliceSourceBounds  bottomLeftOrigin="true" height="10392.341" width="5655" x="-2000" y="-1314"></sliceSourceBounds>
	</sfw>
</metadata>
<g id="FILL-BACKGROUND">
	<rect fill="#FFFFFF" width="750" height="750"/>
</g>
<g id="N-DIMENSIONS">
</g>
<g id="N-TEXT">
</g>
<g id="_x32_D_x24_AG-DIAGRAM">
	<g id="POLYLINE_681_">
		<g>
			<g>
				
					<line fill="none" stroke="#FB8604" stroke-width="3.25" stroke-linecap="round" stroke-linejoin="round" x1="117.022" y1="584.118" x2="119.022" y2="584.118"/>
				
					<line fill="none" stroke="#FB8604" stroke-width="3.25" stroke-linecap="round" stroke-linejoin="round" stroke-dasharray="3.9888,6.9804" x1="126.002" y1="584.118" x2="561.28" y2="584.118"/>
				
					<line fill="none" stroke="#FB8604" stroke-width="3.25" stroke-linecap="round" stroke-linejoin="round" x1="564.77" y1="584.118" x2="566.77" y2="584.118"/>
			</g>
		</g>
	</g>
</g>
<g id="_x32_D_x24_AG-DETAILS-DIAGRAM">
</g>
<g id="_x32_D_x24_AG-DETAILS">
	<g id="POLYLINE_942_">
		<path fill="none" stroke="#FB8604" stroke-width="2" stroke-linecap="round" stroke-linejoin="round" stroke-miterlimit="10" d="
			M144.351,568.399c1.836,0.331,3.724,0.596,5.593,0.502c0.813-0.034,1.755-0.208,2.559-0.356c0.412-0.076,1.279-0.159,1.702-0.206
			c0.924-0.102,1.866-0.346,2.602-0.939c0.606-0.457,1.058-1.167,1.478-1.79c0.609-0.904,1.335-1.742,2.144-2.472
			c1.586-1.434,3.432-2.577,5.304-3.598c2.907-1.57,6.073-2.9,9.158-4.082"/>
	</g>
	<g id="POLYLINE_941_">
		<path fill="none" stroke="#FB8604" stroke-width="2" stroke-linecap="round" stroke-linejoin="round" stroke-miterlimit="10" d="
			M526.039,235.56c2.62-1.082,5.527-1.413,8.33-1.022c2.872,0.348,5.977,1.609,8.685,2.613c1.45,0.518,2.957,0.991,4.464,1.299
			c1.485,0.31,3.045,0.475,4.559,0.578c4.217,0.263,9.463,0.272,13.651,0.727c2.312,0.245,4.639,0.675,6.82,1.494
			c2.402,0.886,4.611,2.27,6.689,3.749c3.189,2.285,6.31,4.904,9.242,7.51c1.091,0.995,2.184,2.055,2.911,3.355
			c0.591,1.042,0.892,2.233,0.959,3.424c0.08,1.336-0.059,2.692-0.281,4.009c-0.343,1.972-0.901,3.926-1.605,5.798
			c-1.178,3.246-3.467,6.95-5.165,9.973c-1.16,2.103-2.247,4.326-3.176,6.541c-0.56,1.359-1.111,2.78-1.468,4.207
			c-0.159,0.647-0.273,1.314-0.307,1.98c-0.056,0.832,0.068,1.954,0.129,2.791c0.101,1.375,0.041,2.775-0.234,4.128
			c-0.328,1.65-0.94,3.24-1.716,4.729c-0.737,1.417-1.65,2.778-2.585,4.072c-2.585,3.58-7.459,9.183-10.322,12.633"/>
	</g>
	<g id="POLYLINE_940_">
		<path fill="none" stroke="#FB8604" stroke-width="2" stroke-linecap="round" stroke-linejoin="round" stroke-miterlimit="10" d="
			M120.416,537.621c-1.707,0.482-3.4,1.19-4.75,2.366c-1.029,0.889-1.794,2.083-2.13,3.403c-0.361,1.373-0.3,2.821-0.09,4.214
			c0.163,1.075,0.444,2.14,0.883,3.136c0.403,0.924,0.952,1.788,1.574,2.58c0.555,0.708,1.271,1.461,1.454,2.369
			c0.147,0.674,0.014,1.376-0.226,2.012c-0.347,0.912-0.886,1.748-1.454,2.537"/>
	</g>
	<g id="POLYLINE_939_">
		<path fill="none" stroke="#FB8604" stroke-width="2" stroke-linecap="round" stroke-linejoin="round" stroke-miterlimit="10" d="
			M438.782,354.49c0.048,4.993-0.095,10.388,0.579,15.323c0.498,3.767,1.665,7.459,4.04,10.477c1.614,2.104,3.613,3.922,5.65,5.608
			c2.331,1.917,7.709,5.923,10.105,7.821c3.784,2.989,7.879,6.585,11.45,9.849c8.068,7.502,16.115,15.538,23.037,24.115
			c5.025,6.344,9.792,13.271,11.735,21.237c1.505,6.184,1.402,12.709,0.304,18.952c-0.582,2.993-1.359,6.05-2.993,8.658"/>
	</g>
	<g id="POLYLINE_938_">
		<path fill="none" stroke="#FB8604" stroke-width="2" stroke-linecap="round" stroke-linejoin="round" stroke-miterlimit="10" d="
			M496.218,499.327c1.014-0.909,2.037-1.886,2.747-3.058c0.74-1.192,1.185-2.551,1.428-3.927"/>
	</g>
	<g id="POLYLINE_937_">
		<path fill="none" stroke="#FB8604" stroke-width="2" stroke-linecap="round" stroke-linejoin="round" stroke-miterlimit="10" d="
			M442.818,492.099c0.216,1.202,0.575,2.396,1.185,3.46c0.491,0.866,1.161,1.626,1.935,2.25c1.088,0.884,2.448,1.575,3.45,2.564
			c1.517,1.436,2.721,3.363,4.131,4.899c1.379,1.512,2.947,2.891,4.596,4.101c1.188,0.874,2.471,1.661,3.874,2.138
			c2.425,0.823,5.024,1.206,7.55,1.584c2.839,0.375,5.765,0.689,8.631,0.542c1.355-0.083,2.732-0.322,3.953-0.941
			c1.004-0.5,1.847-1.269,2.605-2.085c3.464-3.927,7.612-7.76,11.491-11.284"/>
	</g>
</g>
<g id="_x32_D_x24_AG-ANIMALS">
	<g id="POLYLINE_126_">
		
			<path fill="none" stroke="#FB8604" stroke-width="2.75" stroke-linecap="round" stroke-linejoin="round" stroke-miterlimit="10" d="
			M153.237,535.849c-1.512,2.468-3.037,5.074-4.232,7.709c-0.733,1.629-1.371,3.334-1.709,5.092c-0.469,2.239-0.254,4.72-0.106,6.99
			c0.057,1.105,0.064,2.239-0.131,3.331c-0.285,1.626-1.082,3.641-1.603,5.219c-1.338,3.844-1.725,7.959-1.748,12.009
			c0.008,1.563,0.038,3.22,0.235,4.772c0.076,0.519,0.142,1.068,0.324,1.563c0.145,0.414,0.402,0.801,0.784,1.03
			c0.292,0.181,0.628,0.282,0.963,0.351c0.578,0.12,1.198,0.147,1.788,0.174c0.119,0.021,0.998,0.013,1.16,0.024
			c0,0,35.521,0.005,35.521,0.005c0.078,0.005,0.239-0.006,0.317-0.004c0.383-0.013,0.776-0.032,1.15-0.125
			c0.76-0.171,1.359-0.678,1.794-1.307c0.678-0.986,1.112-2.126,1.462-3.264c0.448-1.52,0.699-3.12,0.604-4.706
			c-0.076-1.234-0.384-2.477-1.036-3.537c-0.674-1.097-1.68-1.951-2.749-2.648c-1.917-1.235-4.101-2.048-6.254-2.772
			c-1.376-0.51-3.591-1.067-4.882-1.732c-0.528-0.264-1.066-0.6-1.355-1.133c-0.277-0.512-0.274-1.118-0.219-1.683
			c0.062-0.604,0.201-1.214,0.353-1.802c0.414-1.545,2.12-6.793,2.613-8.337c0.931-2.783,2.063-5.559,3.402-8.169
			c0.942-1.812,2-3.61,3.352-5.148c0.809-0.925,1.748-1.781,2.684-2.577c7.154-5.951,17.638-13.648,24.289-20.062
			c0.84-0.864,1.617-1.827,2.306-2.816c2.181-3.209,7.608-11.875,9.759-15.205c4.29-6.87,8.602-14.299,12.228-21.543
			c3.71-7.469,10.679-22.318,13.991-30.023c1.143-2.865,2.067-5.869,2.525-8.925c1.912-12.312-3.971-24.181-10.669-34.13"/>
	</g>
	<g id="POLYLINE_127_">
		
			<path fill="none" stroke="#FB8604" stroke-width="2.75" stroke-linecap="round" stroke-linejoin="round" stroke-miterlimit="10" d="
			M524.7,323.525c5.884,3.961,12.779,7.565,20.086,6.752c4.152-0.458,7.978-2.373,11.529-4.476l7.131-4.419
			c2.31-1.383,4.742-2.649,7.348-3.368c3.379-0.968,6.965-1.083,10.436-0.615c3.428,0.428,7.359,1.665,10.785,2.1
			c1.504,0.194,3.045,0.262,4.557,0.141c2.501-0.201,4.987-0.837,7.395-1.522l6.765-2.028c1.993-0.575,4.093-1.057,6.145-1.358
			l5.501-0.76c2.359-0.358,4.723-0.9,6.929-1.825c3.856-1.62,7.335-4.082,10.456-6.844c3.407-3.044,6.436-6.579,8.749-10.527
			c2.273-3.856,3.862-8.108,4.934-12.446"/>
	</g>
	<g id="POLYLINE_128_">
		
			<path fill="none" stroke="#FB8604" stroke-width="2.75" stroke-linecap="round" stroke-linejoin="round" stroke-miterlimit="10" d="
			M486.615,282.419c-2.1,3.674-4.274,7.587-5.958,11.46c-1.123,2.596-2.106,5.403-2.894,8.122c-0.593,1.846-1.947,5.135-2.54,6.975
			c-0.488,1.516-0.926,3.233-1.582,4.674c-1.955,4.27-5.184,9.049-7.21,13.281c-2.172,4.513-4.055,9.757-5.805,14.456
			c-0.622,1.671-1.297,4.116-1.955,5.777c-0.147,0.343-0.316,0.686-0.554,0.975c-0.192,0.235-0.431,0.432-0.685,0.596
			c-0.739,0.466-1.592,0.784-2.397,1.116c-3.621,1.402-7.507,2.757-11.249,3.797c-1.764,0.458-3.59,0.904-5.425,0.832
			c-1.189-0.046-2.356-0.361-3.474-0.751l-2.465-0.889c-3.051-1.089-6.286-1.639-9.519-1.765c-2.863-0.114-5.774,0.013-8.582,0.608
			c-2.923,0.573-5.696,2.167-8.308,3.545c-1.086,0.553-2.217,1.07-3.371,1.463c-1.569,0.535-3.228,0.893-4.863,1.161
			c-4.242,0.668-8.672,0.855-12.964,0.899c-6.028,0.093-13.422-1.105-19.446-1.886c-14.115-1.802-31.168-2.857-45.438-3.784
			c-12.751-0.573-35.682-2.253-48.201-1.916c-14.846,0.233-29.343,4.607-43.381,9.087c-9.167,3.047-18.662,6.222-27.351,10.47
			c-4.01,1.968-7.907,4.398-11.548,6.983c-5.803,4.173-11.884,8.522-16.76,13.767c-5.254,5.554-9.28,12.207-12.812,18.954
			c-1.583,3.063-3.151,6.367-4.486,9.545c-0.801,1.917-1.528,3.916-2.013,5.938c-1.075,4.467-1.186,9.189-1.273,13.765l0.049,29.898
			c-0.272,13.144-0.829,26.695-5.425,39.149c-2.142,5.865-5.217,11.434-9.132,16.303c-3.102,3.895-6.795,7.39-11.105,9.916
			c-1.549,0.921-3.182,1.752-4.895,2.318c-3.049,1.003-6.437,1.473-9.607,1.965c-5.272,0.744-10.703,1.232-16.028,1.209
			c-3.791,0.019-9.675-0.469-13.417-0.03c-1.435,0.188-3.014,0.561-3.943,1.762c-0.712,0.912-0.815,2.145-0.626,3.253
			c0.383,2.147,1.538,4.16,2.819,5.899c2.119,2.819,4.993,5.084,8.266,6.412c4.022,1.606,8.453,1.9,12.737,2.13
			c6.088,0.135,13.197,0.64,19.232,0.204c4.357-0.319,8.766-1.158,12.69-3.145c3.065-1.55,5.796-3.718,8.227-6.13
			c3.549-3.532,6.558-7.652,9.307-11.826c3.116-4.772,6.049-9.828,8.347-15.048c1.364-3.137,2.55-6.417,3.078-9.807
			c0.984-5.779-0.489-13.843-0.984-19.665c-1.014-10.627-1.238-22.37-1.26-33.06"/>
	</g>
	<g id="POLYLINE_129_">
		
			<path fill="none" stroke="#FB8604" stroke-width="2.75" stroke-linecap="round" stroke-linejoin="round" stroke-miterlimit="10" d="
			M650.419,269.06c-1.407-1.048-3.031-1.794-4.639-2.478c-6.224-2.553-12.934-5.197-19.348-7.217
			c-3.312-1.069-8.326-2.162-11.732-3.021c-2.148-0.546-4.28-1.288-6.266-2.275c-1.5-0.708-3.617-1.983-5.067-2.814
			c-1.037-0.596-3.057-1.617-4.12-2.167c-2.285-1.206-4.632-2.772-6.792-4.202c-3.099-2.112-12.041-8.343-15.037-10.199
			c-1.109-0.676-2.265-1.349-3.45-1.879c-1.082-0.49-2.226-0.87-3.377-1.162c-3.304-0.803-6.848-1.3-10.219-1.751
			c-2.573-0.306-5.261-0.628-7.851-0.571c-2.003,0.037-4.104,0.354-6.084,0.672c-2.849,0.468-6.03,1.068-8.855,1.675
			c-2.865,0.639-5.837,1.309-8.544,2.456c-1.598,0.658-3.148,1.673-4.84,2.087c-3.71,0.912-7.978,1.58-11.61,2.761
			c-2.008,0.632-3.974,1.519-5.608,2.865c-3.235,2.72-5.564,6.365-7.673,9.984c-3.467,6.101-6.31,12.655-8.731,19.236
			c-1.046,2.307-2.419,4.916-3.092,7.356c-0.855,2.938-1.19,6.105-1.516,9.142c-1.054,10.492-1.412,22.967-5.011,32.892
			c-2.656,7.766-7.439,15.477-9.717,23.378c-0.849,3.114-1.464,6.618-0.217,9.706c0.931,2.319,3.074,3.893,5.327,4.811
			c1.763,0.722,3.66,1.111,5.56,1.208c1.936,0.094,3.901-0.116,5.749-0.713c1.529-0.488,2.966-1.279,4.174-2.338
			c2.196-1.913,3.724-4.469,5.112-6.997l2.73-5.167c1.434-2.626,3.026-5.246,5.206-7.325c1.839-1.752,4.062-3.067,6.318-4.207
			c3.071-1.578,7.031-3.071,9.848-5.068c1.024-0.728,1.979-1.581,2.719-2.602c0.628-0.862,1.081-1.847,1.403-2.86
			c1.291-4.155,0.797-9.122,1.286-13.402c0.162-1.411,0.43-2.838,1.009-4.143c0.603-1.38,1.519-2.607,2.519-3.725
			c1.662-1.849,3.859-3.794,5.075-5.987c1.101-1.954,1.668-4.172,1.965-6.382c0.4-3.077,0.294-6.227-0.1-9.299"/>
	</g>
	<g id="POLYLINE_130_">
		
			<path fill="none" stroke="#FB8604" stroke-width="2.75" stroke-linecap="round" stroke-linejoin="round" stroke-miterlimit="10" d="
			M447.675,516.72c-5.267,0.947-10.706,0.691-15.972-0.131c-4.299-0.668-8.72-1.754-12.911-2.928
			c-4.522-1.073-58.404-19.016-64.261-20.878c-21.693-6.749-48.637-15.055-70.502-20.455c-3.137-0.757-6.635-1.62-9.81-2.109
			c-2.411-0.382-4.887-0.515-7.321-0.308c-4.651,0.389-9.279,1.473-13.704,2.941c-4.505,1.498-9.547,4.015-13.953,5.796
			c-2.618,1.046-5.979,2.232-8.431,3.575"/>
	</g>
	<g id="POLYLINE_131_">
		
			<path fill="none" stroke="#FB8604" stroke-width="2.75" stroke-linecap="round" stroke-linejoin="round" stroke-miterlimit="10" d="
			M512.987,493.603c-0.437,4.449-1.342,14.148-1.662,18.525c-0.189,2.593-0.555,10.634-0.926,13.058
			c-0.237,1.721-0.632,3.443-1.235,5.074c-1.167,3.217-3.599,6.966-5.165,10.014c-1.308,2.423-2.038,5.541-2.828,8.17
			c-1.037,3.361-2.627,7.231-2.648,10.772c-0.014,1.506,0.394,3.029,1.279,4.258c1.029,1.459,2.597,2.468,4.27,3.041
			c1.318,0.462,2.727,0.635,4.115,0.705l3.06,0.122c1.487,0.084,3.02,0.233,4.391,0.853c0.903,0.403,1.688,1.052,2.263,1.856
			c0.875,1.209,1.404,2.637,1.8,4.066c0.579,2.154,0.863,4.402,0.952,6.628c0.013,0.819,0.069,1.676-0.157,2.472
			c-0.062,0.193-0.154,0.381-0.298,0.525c-0.38,0.37-0.972,0.354-1.467,0.373l-29.828-0.021"/>
	</g>
	<g id="POLYLINE_132_">
		
			<path fill="none" stroke="#FB8604" stroke-width="2.75" stroke-linecap="round" stroke-linejoin="round" stroke-miterlimit="10" d="
			M533.476,434.718c-3.772,7.285-7.845,14.87-12.553,21.582c-2.344,3.317-4.953,6.525-8.081,9.135l-2.798,2.292
			c-2.419,2.046-4.733,4.313-6.398,7.029c-1.16,1.879-1.947,3.983-2.41,6.138c-0.672,2.925-0.674,6.371-0.717,9.373
			c-0.065,2.497-0.443,5.004-1.25,7.372c-1.637,4.872-5.652,11.047-8.155,15.572c-1.741,3.172-3.507,6.541-3.726,10.219
			c-0.098,1.646,0.227,3.289,0.695,4.86c0.458,1.524,1.105,3.441,1.321,4.996c0.165,1.093,0.18,2.215,0.096,3.316
			c-0.291,3.49-1.384,6.894-2.49,10.198c-1.119,3.314-3.474,9.512-4.485,12.836c-0.253,0.844-0.5,1.731-0.662,2.598
			c-0.236,1.285-0.357,2.793,0.552,3.852c0.553,0.655,1.35,1.038,2.115,1.39c1.551,0.695,3.377,1.383,4.696,2.474
			c0.796,0.633,1.462,1.426,1.949,2.319c0.908,1.66,1.378,3.532,1.63,5.397c0.174,1.453,0.266,2.95-0.009,4.396
			c-0.086,0.402-0.232,0.807-0.516,1.113c-0.282,0.307-0.673,0.486-1.068,0.599c-0.71,0.198-1.469,0.245-2.202,0.286
			c-5.922,0.115-18.637,0.01-24.468-0.074c-3.133-0.102-6.83-0.092-9.929-0.507c-0.68-0.104-1.373-0.24-2.014-0.495
			c-0.489-0.193-0.954-0.471-1.321-0.851c-0.436-0.445-0.731-1.008-0.961-1.581c-1.132-3.125-1.753-6.785-2.304-10.068
			c-0.375-2.434-0.695-4.995-0.806-7.456c-0.178-2.456,0.09-5.743,0.184-8.218c0.113-2.807-0.01-7.866,0.005-10.683
			c-0.017-4.056,0.495-11.569,0.699-15.675c0.133-3.308,0.246-6.772-0.167-10.057c-0.271-2.259-0.812-4.499-1.602-6.633
			l-1.076-2.847c-0.657-1.747-1.04-3.6-1.195-5.458c-0.254-3.246-0.52-7.155-1.061-10.342c-0.281-1.644-0.869-4.584-1.029-6.2
			c-0.163-1.445-0.229-2.929-0.195-4.383c0.187-6.799,2.298-13.41,4.759-19.697"/>
	</g>
	<g id="POLYLINE_140_">
		
			<path fill="none" stroke="#FB8604" stroke-width="2.75" stroke-linecap="round" stroke-linejoin="round" stroke-miterlimit="10" d="
			M649.389,269.151c-1.79,0.272-3.501,0.991-5.031,1.947c-0.67,0.429-1.319,0.92-1.822,1.542c-0.404,0.493-0.692,1.073-0.915,1.668
			c-0.555,1.428-0.83,3.045-0.327,4.528c0.376,1.128,1.052,2.141,1.836,3.026c1.387,1.565,3.306,2.744,5.412,2.957
			c1.72,0.18,3.201-0.934,4.41-2.025c1.627-1.51,3.22-3.303,4.29-5.255c0.388-0.739,0.688-1.538,0.782-2.371
			c0.073-0.636,0.017-1.286-0.157-1.902c-0.157-0.568-0.447-1.093-0.787-1.572c-0.257-0.369-0.535-0.734-0.877-1.027
			c-0.708-0.612-1.607-0.956-2.497-1.21C652.307,269.073,650.826,268.947,649.389,269.151z"/>
	</g>
	<g id="POLYLINE_141_">
		
			<path fill="none" stroke="#FB8604" stroke-width="2.75" stroke-linecap="round" stroke-linejoin="round" stroke-miterlimit="10" d="
			M583.021,317.68c-4.608,12.056-10.433,25.953-13.782,38.354c-0.645,2.525-0.976,5.144-0.987,7.75
			c-0.004,9.715-0.001,19.825-2.164,29.325c-0.771,3.531-1.772,7.112-2.936,10.533c-0.902,2.668-2.167,5.8-2.949,8.493
			c-0.933,3.102-1.188,6.378-1.172,9.604c-0.025,5.689,0.855,11.902,0.36,17.579c-0.28,3.245-1.105,6.449-2.348,9.456
			c-3.476,8.383-9.688,15.297-15.82,21.847c-4.324,4.511-8.841,9.19-13.781,13.029c-9.406,7.353-20.134,13.486-30.529,19.329"/>
	</g>
</g>
<g id="_x32_D_x24_AG-OUTLINE">
	<g id="POLYLINE_814_">
		
			<path fill="none" stroke="#FB8604" stroke-width="3.5" stroke-linecap="round" stroke-linejoin="round" stroke-miterlimit="10" d="
			M653.446,282.33c1.278-1.252,2.472-2.631,3.426-4.148c0.626-1.018,1.127-2.16,1.177-3.369c0.029-0.77-0.116-1.553-0.45-2.25
			c-0.329-0.658-0.872-1.447-1.43-1.925c-0.586-0.498-1.305-0.812-2.03-1.051c-1.196-0.386-2.464-0.568-3.721-0.527
			c-1.407-1.048-3.031-1.794-4.639-2.478c-6.224-2.553-12.934-5.197-19.348-7.217c-3.312-1.069-8.326-2.162-11.732-3.021
			c-2.148-0.546-4.28-1.288-6.266-2.275c-1.5-0.708-3.617-1.983-5.067-2.814c-1.037-0.596-3.057-1.617-4.12-2.167
			c-2.285-1.206-4.632-2.772-6.792-4.202c-3.099-2.112-12.041-8.343-15.037-10.199c-1.109-0.676-2.265-1.349-3.45-1.879
			c-1.082-0.49-2.226-0.87-3.377-1.162c-3.304-0.803-6.848-1.3-10.219-1.751c-2.573-0.306-5.261-0.628-7.851-0.571
			c-2.003,0.037-4.104,0.354-6.084,0.672c-2.849,0.468-6.03,1.068-8.855,1.675c-2.865,0.639-5.837,1.309-8.544,2.456
			c-1.598,0.658-3.148,1.673-4.84,2.087c-3.71,0.912-7.978,1.58-11.61,2.761c-2.008,0.632-3.974,1.519-5.608,2.865
			c-3.235,2.72-5.564,6.365-7.673,9.984c-3.467,6.101-6.31,12.655-8.731,19.236c-0.826,1.843-2.036,4.173-2.681,6.074
			c-0.601,1.704-1.001,3.501-1.284,5.284c-2.1,3.674-4.274,7.587-5.958,11.46c-1.123,2.596-2.106,5.403-2.894,8.122
			c-0.593,1.846-1.947,5.135-2.54,6.975c-0.488,1.516-0.926,3.233-1.582,4.674c-1.955,4.27-5.184,9.049-7.21,13.281
			c-2.172,4.513-4.055,9.757-5.805,14.456c-0.622,1.671-1.297,4.116-1.955,5.777c-0.147,0.343-0.316,0.686-0.554,0.975
			c-0.192,0.235-0.431,0.432-0.685,0.596c-0.62,0.396-1.335,0.678-2.012,0.961c-3.582,1.417-7.444,2.751-11.146,3.818
			c-1.866,0.502-3.793,1.006-5.739,0.971c-1.249-0.023-2.475-0.347-3.649-0.757l-2.465-0.889c-3.051-1.089-6.286-1.639-9.519-1.765
			c-2.863-0.114-5.774,0.013-8.582,0.608c-2.923,0.573-5.696,2.167-8.308,3.545c-1.086,0.553-2.217,1.07-3.371,1.463
			c-1.569,0.535-3.228,0.893-4.863,1.161c-4.242,0.668-8.672,0.855-12.964,0.899c-6.028,0.093-13.422-1.105-19.446-1.886
			c-14.115-1.802-31.168-2.857-45.438-3.784c-12.751-0.573-35.682-2.253-48.201-1.916c-14.846,0.233-29.343,4.607-43.381,9.087
			c-9.167,3.047-18.662,6.222-27.351,10.47c-4.01,1.968-7.907,4.398-11.548,6.983c-5.803,4.173-11.884,8.522-16.76,13.767
			c-5.254,5.554-9.28,12.207-12.812,18.954c-1.583,3.063-3.151,6.367-4.486,9.545c-0.801,1.917-1.528,3.916-2.013,5.938
			c-1.075,4.467-1.186,9.189-1.273,13.765l0.049,29.898c-0.196,9.47-0.548,19.204-2.435,28.505
			c-1.824,9.008-5.262,17.819-10.789,25.213c-3.777,5.144-8.499,9.713-14.214,12.639c-1.745,0.931-3.654,1.54-5.558,2.053
			l-3.224,0.611c-6.978,1.201-14.156,1.947-21.24,1.826c-2.621-0.02-8.332-0.333-10.868-0.136c-0.866,0.057-1.748,0.15-2.593,0.356
			c-1.129,0.269-2.278,0.835-2.869,1.879c-0.901,1.607-0.361,3.59,0.308,5.184c1.36,3.107,3.631,5.791,6.362,7.786
			c1.518,1.102,3.206,1.987,4.98,2.598c3.768,1.285,7.832,1.564,11.783,1.772c2.966,0.106,9.186,0.305,12.113,0.367
			c6.27,0.079,12.79-0.199,18.614-2.744c3.302-1.449,6.243-3.641,8.84-6.123c3.814-3.653,7.01-7.989,9.936-12.37
			c-1.724,3.156-3.447,6.451-4.075,10.026c-0.387,2.118-0.176,4.485-0.04,6.626c0.057,1.105,0.064,2.239-0.131,3.331
			c-0.285,1.626-1.082,3.641-1.603,5.219c-1.513,4.369-1.825,9.067-1.729,13.66c0.048,1.248,0.103,2.552,0.314,3.784
			c0.071,0.386,0.156,0.78,0.323,1.137c0.176,0.392,0.487,0.719,0.878,0.899c0.882,0.398,1.967,0.388,2.922,0.431
			c0,0,0.797,0.013,0.797,0.013l35.521,0.005c0.073-0.009,0.243,0.003,0.317-0.004c0.451-0.012,0.915-0.042,1.348-0.18
			c0.826-0.246,1.427-0.925,1.853-1.646c0.612-1.043,1.03-2.197,1.343-3.362c0.532-2.063,0.732-4.301,0.07-6.358
			c-0.336-1.052-0.955-2.002-1.755-2.761c-1.26-1.207-2.829-2.046-4.414-2.746c-2.484-1.123-5.48-1.832-7.999-2.871
			c-0.438-0.196-0.877-0.417-1.244-0.731c-0.283-0.24-0.506-0.555-0.612-0.913c-0.186-0.638-0.095-1.319,0.012-1.963
			c0.147-0.819,0.389-1.662,0.631-2.458c0.834-2.542,2.326-7.59,3.318-10.024c0.887-2.26,1.911-4.527,3.108-6.64
			c1.072-1.913,2.391-3.709,4.017-5.188c4.628-4.055,14.491-11.551,19.158-15.52c2.054-1.721,4.495-3.728,6.373-5.641
			c0.924-0.949,1.763-2.014,2.509-3.107c5.987-9.231,13.057-20.129,18.295-29.781c2.443-1.339,5.825-2.534,8.431-3.575
			c4.411-1.783,9.447-4.297,13.953-5.796c4.425-1.468,9.052-2.552,13.704-2.941c2.434-0.208,4.91-0.075,7.321,0.308
			c3.169,0.488,6.681,1.353,9.81,2.109c21.806,5.382,48.901,13.73,70.502,20.455c6.143,1.951,59.576,19.76,64.261,20.879
			c4.193,1.175,8.61,2.26,12.911,2.928c5.266,0.823,10.705,1.079,15.972,0.131c0.695,3.83,0.579,7.857,0.419,11.734
			c-0.216,4.165-0.704,11.623-0.699,15.675c-0.03,2.818,0.129,7.884-0.005,10.683c-0.114,2.499-0.328,5.754-0.184,8.218
			c0.13,2.803,0.512,5.69,0.968,8.457c0.381,2.251,0.845,4.607,1.43,6.814c0.231,0.84,0.472,1.712,0.821,2.512
			c0.201,0.454,0.453,0.894,0.792,1.259c0.286,0.311,0.636,0.562,1.014,0.75c0.931,0.456,1.98,0.613,3,0.741
			c2.883,0.314,6.4,0.341,9.311,0.425c5.697,0.1,18.566,0.162,24.36,0.093l29.828,0.034c0.496-0.018,1.088-0.003,1.467-0.373
			c0.153-0.152,0.247-0.353,0.308-0.557c0.213-0.787,0.161-1.632,0.147-2.439c-0.088-2.227-0.373-4.474-0.952-6.628
			c-0.397-1.429-0.926-2.857-1.8-4.066c-0.575-0.803-1.36-1.453-2.263-1.855c-1.371-0.621-2.905-0.77-4.391-0.854l-3.06-0.122
			c-1.389-0.07-2.798-0.243-4.115-0.705c-1.673-0.574-3.242-1.582-4.27-3.041c-0.885-1.23-1.294-2.752-1.279-4.258
			c0.019-3.533,1.613-7.425,2.648-10.772c0.792-2.636,1.519-5.744,2.828-8.17c1.57-3.056,3.995-6.791,5.165-10.014
			c0.603-1.631,0.998-3.353,1.235-5.074c0.371-2.401,0.74-10.525,0.927-13.058c0.318-4.351,1.228-14.106,1.662-18.525
			c5.675-3.545,11.438-7.374,16.567-11.671c4.849-4.071,9.427-8.94,13.764-13.554c4.585-5.018,9.079-10.309,12.223-16.373
			c2.251-4.301,3.712-9.055,3.939-13.919c0.409-7.815-1.352-16.011,0.177-23.76c0.599-2.943,1.878-6.126,2.891-8.958
			c1.29-3.588,2.418-7.368,3.276-11.083c2.403-9.864,2.439-20.393,2.428-30.501c0.011-2.606,0.342-5.225,0.987-7.75
			c3.35-12.404,9.178-26.306,13.782-38.354c3.672,0.671,7.787,1.965,11.535,2.015c3.195,0.082,6.358-0.711,9.41-1.578l6.765-2.028
			c1.993-0.575,4.093-1.057,6.145-1.358l5.501-0.76c2.359-0.358,4.723-0.9,6.929-1.825c3.856-1.62,7.335-4.082,10.456-6.844
			c3.407-3.044,6.436-6.579,8.749-10.527C650.784,290.92,652.374,286.667,653.446,282.33z"/>
	</g>
</g>
</svg>
