<?xml version="1.0" encoding="utf-8"?>
<!-- Generator: Adobe Illustrator 25.3.1, SVG Export Plug-In . SVG Version: 6.00 Build 0)  -->
<!DOCTYPE svg PUBLIC "-//W3C//DTD SVG 1.1//EN" "http://www.w3.org/Graphics/SVG/1.1/DTD/svg11.dtd" [
	<!ENTITY ns_extend "http://ns.adobe.com/Extensibility/1.0/">
	<!ENTITY ns_ai "http://ns.adobe.com/AdobeIllustrator/10.0/">
	<!ENTITY ns_graphs "http://ns.adobe.com/Graphs/1.0/">
	<!ENTITY ns_vars "http://ns.adobe.com/Variables/1.0/">
	<!ENTITY ns_imrep "http://ns.adobe.com/ImageReplacement/1.0/">
	<!ENTITY ns_sfw "http://ns.adobe.com/SaveForWeb/1.0/">
	<!ENTITY ns_custom "http://ns.adobe.com/GenericCustomNamespace/1.0/">
	<!ENTITY ns_adobe_xpath "http://ns.adobe.com/XPath/1.0/">
]>
<svg version="1.1" xmlns:x="&ns_extend;" xmlns:i="&ns_ai;" xmlns:graph="&ns_graphs;"
	 xmlns="http://www.w3.org/2000/svg" xmlns:xlink="http://www.w3.org/1999/xlink" x="0px" y="0px" width="750px" height="750px"
	 viewBox="0 0 750 750" enable-background="new 0 0 750 750" xml:space="preserve">
<metadata>
	<sfw  xmlns="&ns_sfw;">
		<slices></slices>
		<sliceSourceBounds  bottomLeftOrigin="true" height="10392.341" width="5655" x="-2000" y="-1314"></sliceSourceBounds>
	</sfw>
</metadata>
<g id="FILL-BACKGROUND">
	<rect fill="#FFFFFF" width="750" height="750"/>
</g>
<g id="N-DIMENSIONS">
</g>
<g id="N-TEXT">
</g>
<g id="_x32_D_x24_AG-DIAGRAM">
	<g id="POLYLINE_689_">
		<g>
			<g>
				
					<line fill="none" stroke="#FB8604" stroke-width="3.25" stroke-linecap="round" stroke-linejoin="round" x1="104.584" y1="591.529" x2="106.584" y2="591.529"/>
				
					<line fill="none" stroke="#FB8604" stroke-width="3.25" stroke-linecap="round" stroke-linejoin="round" stroke-dasharray="3.9917,6.9855" x1="113.57" y1="591.529" x2="516.234" y2="591.529"/>
				
					<line fill="none" stroke="#FB8604" stroke-width="3.25" stroke-linecap="round" stroke-linejoin="round" x1="519.727" y1="591.529" x2="521.727" y2="591.529"/>
			</g>
		</g>
	</g>
</g>
<g id="_x32_D_x24_AG-DETAILS-DIAGRAM">
</g>
<g id="_x32_D_x24_AG-DETAILS">
	<g id="POLYLINE_902_">
		<path fill="none" stroke="#FB8604" stroke-width="2" stroke-linecap="round" stroke-linejoin="round" stroke-miterlimit="10" d="
			M486.695,443.982c-1.979,0.598-4.045,0.935-6.108,1.047c-1.776,0.086-3.589,0.014-5.32-0.423
			c-1.138-0.296-2.279-0.765-3.125-1.605c-0.651-0.645-1.065-1.492-1.316-2.366c-0.251-0.865-0.367-1.777-0.446-2.673
			c-0.147-1.843-0.176-4.195-0.421-6.021c-0.374-2.953-1.468-5.775-2.684-8.474l-3.04-6.46c-1.457-3.232-2.741-6.647-2.971-10.215
			c-0.109-1.839,0.107-3.744,0.933-5.41c1.09-2.238,3.251-3.67,5.302-4.949c2.887-1.8,6.374-3.499,8.303-6.406
			c0.979-1.5,1.501-3.252,1.921-4.978c0.437-1.772,0.846-4.144,1.541-5.815c0.402-0.991,0.963-1.943,1.771-2.656
			c0.985-0.876,2.247-1.406,3.541-1.617c1.961-0.319,4.052,0.079,5.712,1.184c1.551,1.017,2.58,2.645,3.281,4.329
			c0.913,2.209,1.373,4.593,1.667,6.957c0.601,4.816,0.368,9.998,0.099,14.845c-0.071,1.755-0.014,3.554,0.528,5.239
			c0.469,1.488,1.21,2.891,2.059,4.196c1.143,1.736,2.521,3.346,4.105,4.696"/>
	</g>
	<g id="POLYLINE_901_">
		<path fill="none" stroke="#FB8604" stroke-width="2" stroke-linecap="round" stroke-linejoin="round" stroke-miterlimit="10" d="
			M442.279,396.071l-0.018,0.003l-0.018,0.002l-0.018,0.002l-0.018,0.001l-0.018,0.001l-0.018,0.001l-0.018,0l-0.018,0l-0.018,0
			l-0.018-0.001l-0.018-0.001l-0.018-0.001l-0.018-0.002l-0.018-0.002l-0.018-0.002l-0.018-0.003l-0.018-0.003l-0.018-0.003
			l-0.018-0.004l-0.018-0.004c-0.265-0.063-0.495-0.223-0.692-0.406c-0.338-0.319-0.596-0.714-0.817-1.121
			c-0.481-0.908-0.787-1.908-0.956-2.919c-0.146-0.903-0.174-1.838,0.022-2.735c0.297-1.368,1.124-2.757,2.475-3.286
			c0.705-0.273,1.514-0.184,2.106,0.298c0.44,0.35,0.729,0.858,0.894,1.39c0.256,0.839,0.246,1.737,0.172,2.603
			c-0.137,1.386-0.475,2.764-1.024,4.044c-0.222,0.502-0.48,1-0.822,1.432c-0.197,0.245-0.425,0.478-0.709,0.619l-0.02,0.009
			l-0.02,0.009l-0.02,0.009l-0.02,0.008l-0.02,0.008l-0.02,0.007l-0.02,0.007l-0.02,0.006l-0.02,0.006l-0.02,0.006l-0.02,0.005
			l-0.02,0.005l-0.02,0.004l-0.02,0.004C442.299,396.068,442.279,396.071,442.279,396.071z"/>
	</g>
	<g id="POLYLINE_900_">
		<path fill="none" stroke="#FB8604" stroke-width="2" stroke-linecap="round" stroke-linejoin="round" stroke-miterlimit="10" d="
			M358.428,325.304c-0.674-0.454-1.516-0.509-2.305-0.504c-0.94,0.014-2.001,0.061-2.928-0.088c-1.345-0.203-3.129-0.861-4.44-1.264
			c-1.646-0.486-3.483-0.989-5.152-0.336c-1.3,0.535-2.3,1.656-2.879,2.918c-0.396,0.891-0.622,1.939-0.285,2.883
			c0.262,0.719,0.814,1.283,1.365,1.793c0.713,0.643,1.58,1.344,2.126,2.131c0.282,0.4,0.484,0.853,0.622,1.321
			c0.407,1.361,0.393,2.964,0.796,4.326c0.186,0.628,0.493,1.243,0.994,1.678c0.559,0.49,1.274,0.764,1.991,0.925
			c1.201,0.262,2.454,0.237,3.666,0.071c2.945-0.413,5.927-1.76,7.549-4.355c1.326-2.066,1.615-4.653,1.177-7.035
			c-0.196-1.062-0.523-2.116-1.062-3.057C359.348,326.17,358.953,325.655,358.428,325.304z"/>
	</g>
	<g id="POLYLINE_899_">
		<path fill="none" stroke="#FB8604" stroke-width="2" stroke-linecap="round" stroke-linejoin="round" stroke-miterlimit="10" d="
			M330.981,307.954c0.8,1.784,1.739,3.682,3.457,4.744c0.721,0.446,1.557,0.671,2.388,0.799c2.224,0.325,4.651,0.113,6.874,0.447
			c2.332,0.308,4.759,1.568,6.897,2.51c1.41,0.619,2.882,1.173,4.391,1.491c1.799,0.382,3.657,0.503,5.492,0.426
			c2.557-0.132,5.209-0.585,7.46-1.863c0.993-0.572,1.844-1.384,2.472-2.342c0.845-1.269,1.327-2.772,1.789-4.215"/>
	</g>
	<g id="POLYLINE_898_">
		<path fill="none" stroke="#FB8604" stroke-width="2" stroke-linecap="round" stroke-linejoin="round" stroke-miterlimit="10" d="
			M277.869,363.608c-0.303,0.482-0.706,0.901-1.176,1.221c-0.917,0.623-2.018,0.914-3.079,1.188
			c-2.916,0.666-6.095,1.62-9.091,1.656c-0.757-0.001-1.529-0.067-2.249-0.312c-0.493-0.168-0.962-0.434-1.314-0.822
			c-0.485-0.532-0.744-1.234-0.86-1.936c-0.119-0.739-0.091-1.499,0.052-2.232c0.134-0.673,0.365-1.337,0.736-1.917
			c0.223-0.351,0.512-0.662,0.852-0.902c0.419-0.3,0.904-0.5,1.387-0.67c0.87-0.299,1.882-0.586,2.617-1.152
			c0.737-0.558,1.264-1.346,1.759-2.116c0.686-1.069,1.467-2.554,2.348-3.463c0.382-0.399,0.832-0.753,1.356-0.941
			c1.296-0.456,2.715,0.032,3.83,0.732c1.17,0.745,2.148,1.797,2.808,3.016c0.606,1.129,0.935,2.4,1.033,3.674
			C278.993,360.317,278.763,362.146,277.869,363.608z"/>
	</g>
	<g id="POLYLINE_897_">
		<path fill="none" stroke="#FB8604" stroke-width="2" stroke-linecap="round" stroke-linejoin="round" stroke-miterlimit="10" d="
			M300.181,362.128c-3.068,0.501-6.273,0.371-9.256-0.533c-1.126-0.353-2.231-0.833-3.196-1.519
			c-0.885-0.627-1.628-1.442-2.263-2.317c-1.174-1.654-2.267-3.693-3.579-5.244c-1.061-1.351-2.427-2.758-3.135-4.337
			c-0.217-0.498-0.363-1.042-0.323-1.588c0.028-0.418,0.176-0.822,0.384-1.183c0.318-0.552,0.76-1.027,1.221-1.462
			c1.644-1.512,3.828-2.836,5.548-4.259c1.421-1.127,2.709-2.664,3.866-4.063c0.719-0.839,1.466-1.717,2.408-2.313
			c0.469-0.297,0.996-0.509,1.545-0.595c1.211-0.187,2.441,0.105,3.579,0.509c1.92,0.702,3.696,1.781,5.371,2.94
			c2.031,1.42,3.959,3.055,5.471,5.03c1.366,1.77,2.347,3.842,2.813,6.031c0.449,2.086,0.496,4.282,0.007,6.365
			C309.508,358.638,304.999,361.316,300.181,362.128z"/>
	</g>
	<g id="POLYLINE_896_">
		<path fill="none" stroke="#FB8604" stroke-width="2" stroke-linecap="round" stroke-linejoin="round" stroke-miterlimit="10" d="
			M251.707,360.548c-2.009-0.245-3.638-1.937-4.044-3.884c-0.414-1.879,0.38-3.82,1.572-5.258c0.806-0.951,1.866-1.802,3.128-1.997
			c0.779-0.114,1.569,0.121,2.241,0.509c1.107,0.644,1.986,1.617,2.758,2.624c0.472,0.636,0.944,1.294,1.263,2.023
			c0.188,0.437,0.311,0.913,0.283,1.391c-0.049,0.93-0.656,1.712-1.304,2.333c-0.908,0.852-2.009,1.501-3.183,1.912
			C253.555,360.496,252.623,360.662,251.707,360.548z"/>
	</g>
	<g id="POLYLINE_895_">
		<path fill="none" stroke="#FB8604" stroke-width="2" stroke-linecap="round" stroke-linejoin="round" stroke-miterlimit="10" d="
			M321.9,351.762c-0.604-0.244-1.066-0.744-1.409-1.284c-0.489-0.789-0.784-1.715-0.789-2.646c0-0.476,0.104-0.957,0.337-1.375
			c0.229-0.417,0.575-0.763,0.968-1.029c0.566-0.383,1.22-0.621,1.881-0.78c0.701-0.166,1.429-0.246,2.149-0.206
			c0.713,0.048,1.484,0.2,2.013,0.716c0.468,0.466,0.561,1.176,0.488,1.807c-0.203,1.558-1.159,2.989-2.374,3.955
			C324.266,351.617,323.034,352.197,321.9,351.762z"/>
	</g>
	<g id="POLYLINE_894_">
		<path fill="none" stroke="#FB8604" stroke-width="2" stroke-linecap="round" stroke-linejoin="round" stroke-miterlimit="10" d="
			M355.367,357.389c-1.267-0.151-2.734-0.576-3.308-1.833c-0.26-0.558-0.32-1.189-0.29-1.798c0.051-0.9,0.291-1.795,0.709-2.594
			c0.367-0.689,0.902-1.344,1.647-1.635c0.786-0.298,1.653-0.19,2.464-0.066l1.46,0.253c0.769,0.121,1.568,0.211,2.338,0.054
			c0.885-0.176,1.765-0.717,2.556-1.136c0.567-0.29,1.204-0.6,1.856-0.465c0.361,0.077,0.677,0.293,0.94,0.546
			c0.444,0.433,0.764,0.982,0.99,1.556c0.323,0.837,0.451,1.766,0.269,2.65c-0.113,0.555-0.371,1.076-0.735,1.508
			c-0.979,1.146-2.419,1.776-3.825,2.231C360.174,357.347,357.725,357.641,355.367,357.389z"/>
	</g>
	<g id="POLYLINE_893_">
		<path fill="none" stroke="#FB8604" stroke-width="2" stroke-linecap="round" stroke-linejoin="round" stroke-miterlimit="10" d="
			M330.094,360.844c-0.35-0.115-0.73-0.072-1.083,0.007c-1.533,0.371-2.97,1.352-4.594,1.274c-0.73-0.047-1.416-0.349-2.06-0.678
			c-0.923-0.471-1.98-1.144-3.017-1.299c-0.593-0.1-1.208-0.022-1.766,0.197c-1.207,0.475-2.212,1.36-3.061,2.323
			c-0.929,1.085-1.713,2.34-2.08,3.731c-0.164,0.65-0.226,1.35-0.029,2c0.189,0.637,0.62,1.179,1.14,1.583
			c0.779,0.604,1.726,0.957,2.676,1.188c1.502,0.354,3.071,0.413,4.606,0.278c2.638-0.25,5.266-1.1,7.426-2.658
			c1.038-0.761,1.972-1.714,2.543-2.879c0.375-0.766,0.571-1.622,0.567-2.475c-0.005-0.534-0.085-1.075-0.294-1.568
			C330.883,361.426,330.564,361,330.094,360.844z"/>
	</g>
	<g id="POLYLINE_892_">
		<path fill="none" stroke="#FB8604" stroke-width="2" stroke-linecap="round" stroke-linejoin="round" stroke-miterlimit="10" d="
			M260.424,314.387c-0.24,2.815-0.134,5.975,1.748,8.251c0.765,0.915,1.765,1.613,2.832,2.133c1.738,0.84,3.674,1.243,5.599,1.294
			c1.25,0.032,2.514-0.099,3.731-0.385c2.138-0.484,4.563-1.562,6.603-2.397c2.099-0.848,4.303-1.683,6.598-1.666
			c3.785,0.033,7.517,1.964,11.024,3.199c3.063,1.094,6.293,1.889,9.559,1.918c1.919,0.009,3.881-0.281,5.617-1.133
			c2.035-0.978,3.807-2.808,4.106-5.118c0.235-1.805-0.264-3.626-0.978-5.272c-0.644-1.452-1.492-2.832-2.545-4.024
			c-0.846-0.957-1.84-1.787-2.899-2.499"/>
	</g>
	<g id="POLYLINE_891_">
		<path fill="none" stroke="#FB8604" stroke-width="2" stroke-linecap="round" stroke-linejoin="round" stroke-miterlimit="10" d="
			M239.17,333.103c-2.068-0.571-3.455-2.724-3.431-4.824c0.004-1.974,1.388-3.614,2.897-4.739c1.318-0.981,2.833-1.696,4.403-2.171
			c1.537-0.46,3.161-0.691,4.766-0.582c1.569,0.111,3.144,0.497,4.525,1.264c0.621,0.356,1.227,0.796,1.613,1.41
			c0.144,0.234,0.247,0.5,0.263,0.776c0.019,0.283-0.052,0.565-0.172,0.82c-0.217,0.458-0.562,0.844-0.921,1.196
			c-0.633,0.613-1.384,1.162-2.098,1.679c-1.095,0.775-2.473,1.743-3.6,2.465c-1.65,1.042-3.379,2.05-5.27,2.581
			C241.183,333.241,240.146,333.366,239.17,333.103z"/>
	</g>
	<g id="POLYLINE_890_">
		<path fill="none" stroke="#FB8604" stroke-width="2" stroke-linecap="round" stroke-linejoin="round" stroke-miterlimit="10" d="
			M243.612,368.742c-0.064,0.771-0.465,1.469-0.929,2.07c-0.959,1.21-2.238,2.139-3.57,2.902c-1.238,0.695-2.574,1.251-3.956,1.582
			c-0.992,0.233-2.028,0.358-3.043,0.222c-0.826-0.11-1.621-0.406-2.341-0.821c-1.219-0.679-2.444-1.89-3.496-2.806
			c-0.755-0.654-1.558-1.289-2.478-1.693c-1.103-0.488-2.319-0.67-3.511-0.793c-1.762-0.176-3.855-0.244-5.528-0.824
			c-1.034-0.348-2-0.904-2.837-1.602c-1.591-1.33-2.801-3.265-2.865-5.378c-0.044-1.944,0.888-3.743,1.798-5.406
			c1.141-2.03,2.78-4.581,3.471-6.795c0.453-1.404,0.632-2.896,0.728-4.363c0.187-2.802,0.065-5.942,1.366-8.504
			c0.534-1.059,1.291-1.997,2.154-2.806c1.197-1.115,2.613-2.01,4.142-2.595c1.491-0.561,3.158-0.859,4.722-0.443
			c1.294,0.347,2.405,1.199,3.229,2.238c1.226,1.558,1.945,3.511,2.061,5.487c0.102,1.554-0.196,3.247-0.077,4.801
			c0.059,0.768,0.241,1.534,0.588,2.225c0.825,1.619,2.343,3.072,3.524,4.441c0.99,1.16,2.03,2.411,2.348,3.941
			c0.185,0.932,0.066,1.896-0.103,2.822c-0.212,1.159-0.58,2.547-0.487,3.725c0.042,0.639,0.239,1.265,0.57,1.813
			c0.656,1.112,1.868,2.217,2.752,3.157C242.698,366.269,243.705,367.392,243.612,368.742z"/>
	</g>
	<g id="POLYLINE_889_">
		<path fill="none" stroke="#FB8604" stroke-width="2" stroke-linecap="round" stroke-linejoin="round" stroke-miterlimit="10" d="
			M192.204,349.282c1.314,0.051,2.748-0.088,4.032,0.23c0.562,0.136,1.114,0.372,1.543,0.768c0.45,0.406,0.716,0.97,0.877,1.546
			c0.293,1.073,0.322,2.209,0.321,3.315c-0.023,2.593-0.38,5.834-0.327,8.422c0.023,1.158,0.105,2.333,0.377,3.461
			c0.31,1.304,0.94,2.534,1.846,3.524c1.047,1.157,2.407,1.987,3.821,2.62c3.623,1.605,7.84,2.174,11.469,3.764
			c3.276,1.4,6.163,3.811,7.922,6.928c0.932,1.659,1.506,3.547,1.482,5.46c-0.014,1.48-0.397,2.936-0.879,4.326
			c-0.824,2.399-2.226,5.063-2.91,7.507c-0.351,1.271-0.519,2.666-0.017,3.92c0.432,1.124,1.212,2.075,1.99,2.977
			c1.443,1.639,3.087,3.325,3.834,5.42c0.889,2.556,0.642,5.343,0.401,7.99c-0.253,2.4-0.724,5.759-0.687,8.17
			c0.015,0.991,0.103,2.001,0.345,2.964c0.472,1.931,1.557,3.649,2.769,5.2c1.074,1.374,2.603,3.12,3.389,4.665
			c1.147,2.12,1.773,4.807,2.408,7.129"/>
	</g>
	<g id="POLYLINE_888_">
		<path fill="none" stroke="#FB8604" stroke-width="2" stroke-linecap="round" stroke-linejoin="round" stroke-miterlimit="10" d="
			M470.784,471.29c-0.335-0.071-0.616-0.294-0.828-0.555c-0.377-0.468-0.595-1.044-0.743-1.62c-0.213-0.871-0.272-1.79-0.131-2.677
			c0.101-0.635,0.338-1.267,0.786-1.74c0.791-0.852,2.067-1.073,3.169-0.831c0.519,0.113,1.027,0.33,1.428,0.684
			c0.345,0.302,0.594,0.715,0.678,1.167c0.109,0.558-0.016,1.133-0.208,1.66c-0.323,0.865-0.828,1.662-1.426,2.363
			c-0.485,0.554-1.04,1.078-1.715,1.391C471.482,471.274,471.127,471.363,470.784,471.29z"/>
	</g>
	<g id="POLYLINE_887_">
		<path fill="none" stroke="#FB8604" stroke-width="2" stroke-linecap="round" stroke-linejoin="round" stroke-miterlimit="10" d="
			M491.225,334.444c-0.357-0.793-0.408-1.691-0.345-2.547c0.094-1.074,0.389-2.161,1.002-3.059c0.294-0.422,0.676-0.799,1.149-1.015
			c0.456-0.209,0.972-0.257,1.467-0.205c1.191,0.14,2.31,0.76,3.126,1.629c0.467,0.508,0.841,1.143,0.889,1.844
			c0.068,0.964-0.413,1.877-1.02,2.595c-0.545,0.638-1.219,1.171-1.961,1.561c-0.582,0.303-1.222,0.52-1.88,0.559
			c-0.506,0.03-1.03-0.055-1.475-0.307C491.754,335.264,491.425,334.881,491.225,334.444z"/>
	</g>
	<g id="POLYLINE_886_">
		<path fill="none" stroke="#FB8604" stroke-width="2" stroke-linecap="round" stroke-linejoin="round" stroke-miterlimit="10" d="
			M519.212,348.437c-0.576-1.244-1.383-2.404-2.435-3.29c-0.576-0.476-1.245-0.881-1.99-1.009c-0.464-0.08-0.953-0.025-1.377,0.184
			c-0.919,0.462-1.506,1.374-1.957,2.266c-0.703,1.448-1.082,3.044-1.287,4.635c-0.233,1.908-0.2,3.867,0.194,5.751
			c0.3,1.42,0.791,2.813,1.498,4.083c0.47,0.831,1.035,1.631,1.764,2.255c0.51,0.43,1.141,0.799,1.828,0.775
			c0.618-0.022,1.169-0.375,1.599-0.798c0.99-1.002,1.584-2.326,2.075-3.628c0.246-0.674,0.458-1.376,0.626-2.073
			C520.468,354.585,520.507,351.291,519.212,348.437z"/>
	</g>
	<g id="POLYLINE_885_">
		<path fill="none" stroke="#FB8604" stroke-width="2" stroke-linecap="round" stroke-linejoin="round" stroke-miterlimit="10" d="
			M522.673,281.478c-0.413-0.626-0.561-1.391-0.583-2.132c-0.022-1.164,0.25-2.35,0.838-3.36c0.621-1.06,1.792-1.98,3.08-1.792
			c0.839,0.13,1.52,0.741,1.97,1.432c0.416,0.643,0.665,1.396,0.71,2.161c0.04,0.7-0.095,1.406-0.348,2.057
			c-0.434,1.092-1.213,2.126-2.323,2.585c-0.585,0.236-1.249,0.279-1.858,0.11C523.559,282.377,523.017,281.998,522.673,281.478z"/>
	</g>
	<g id="POLYLINE_884_">
		<path fill="none" stroke="#FB8604" stroke-width="2" stroke-linecap="round" stroke-linejoin="round" stroke-miterlimit="10" d="
			M517.557,297.578c-0.546-0.857-1.54-1.296-2.496-1.524c-1.011-0.233-2.069-0.249-3.093-0.091
			c-0.984,0.156-1.959,0.479-2.785,1.045c-1.609,1.088-2.275,3.148-2.124,5.024c0.088,1.1,0.429,2.216,1.142,3.075
			c0.521,0.626,1.255,1.065,2.05,1.234c0.796,0.174,1.635,0.092,2.404-0.167c1.564-0.532,2.814-1.728,3.765-3.047
			c0.79-1.131,1.437-2.436,1.526-3.832C517.977,298.704,517.876,298.087,517.557,297.578z"/>
	</g>
	<g id="POLYLINE_883_">
		<path fill="none" stroke="#FB8604" stroke-width="2" stroke-linecap="round" stroke-linejoin="round" stroke-miterlimit="10" d="
			M445.739,319.115c-1.733-0.012-3.483-0.822-4.528-2.219c-0.439-0.592-0.726-1.303-0.783-2.04
			c-0.117-1.555,0.561-3.071,1.498-4.279c1.02-1.305,2.433-2.315,4.029-2.778c1.788-0.515,3.754-0.5,5.511,0.132
			c0.751,0.282,1.487,0.698,1.978,1.346c0.384,0.506,0.559,1.147,0.553,1.778c-0.004,0.729-0.208,1.446-0.492,2.113
			c-0.431,0.998-1.048,1.914-1.757,2.736C450.23,317.633,448.115,319.1,445.739,319.115z"/>
	</g>
	<g id="POLYLINE_882_">
		<path fill="none" stroke="#FB8604" stroke-width="2" stroke-linecap="round" stroke-linejoin="round" stroke-miterlimit="10" d="
			M415.269,318.627c-1.084-1.107-2.463-1.93-3.947-2.37c-1.519-0.453-3.226-0.429-4.647,0.323c-1.079,0.565-1.977,1.435-2.694,2.411
			c-0.782,1.076-1.366,2.307-1.65,3.609c-0.303,1.385-0.227,2.929,0.568,4.143c1.878,2.895,7.09,4.1,10.236,2.953
			c0.983-0.36,1.842-1.028,2.453-1.875c0.828-1.14,1.251-2.535,1.397-3.926c0.099-0.951,0.051-1.931-0.24-2.846
			C416.462,320.137,415.933,319.31,415.269,318.627z"/>
	</g>
	<g id="POLYLINE_881_">
		<path fill="none" stroke="#FB8604" stroke-width="2" stroke-linecap="round" stroke-linejoin="round" stroke-miterlimit="10" d="
			M385.53,311.098c0.695,1.156,1.635,2.154,2.659,3.025c0.751,0.628,1.548,1.233,2.395,1.726c0.678,0.389,1.424,0.679,2.201,0.787
			c0.838,0.121,1.697,0.036,2.516-0.167c1.034-0.257,2.055-0.672,3.031-1.098c2.294-1.015,5.057-2.497,7.371-3.461
			c1.505-0.612,3.082-1.199,4.723-1.249c1.015-0.029,2.029,0.191,2.958,0.595c1.51,0.636,3.061,1.888,4.41,2.813
			c1.279,0.876,2.623,1.718,4.092,2.235c0.939,0.329,1.946,0.515,2.941,0.413c1.375-0.139,2.636-0.823,3.699-1.676
			c1.477-1.196,2.652-2.738,3.576-4.391c2.379-4.283,2.926-9.449,1.933-14.212"/>
	</g>
	<g id="POLYLINE_880_">
		<path fill="none" stroke="#FB8604" stroke-width="2" stroke-linecap="round" stroke-linejoin="round" stroke-miterlimit="10" d="
			M464.631,365.917c-1.27-0.226-2.25-1.221-2.862-2.308c-1.327-2.387-1.314-5.297-0.629-7.882c0.452-1.725,1.156-3.395,2.043-4.94
			c0.68-1.17,1.474-2.301,2.442-3.251c0.491-0.475,1.035-0.916,1.657-1.21c0.406-0.19,0.856-0.312,1.306-0.272
			c0.813,0.069,1.485,0.625,1.981,1.238c0.641,0.798,1.086,1.741,1.444,2.694c0.455,1.238,0.769,2.54,0.928,3.85
			c0.208,1.718,0.106,3.491-0.421,5.146c-0.527,1.674-1.479,3.203-2.686,4.471c-0.83,0.864-1.79,1.635-2.895,2.116
			C466.219,365.879,465.413,366.056,464.631,365.917z"/>
	</g>
	<g id="POLYLINE_879_">
		<path fill="none" stroke="#FB8604" stroke-width="2" stroke-linecap="round" stroke-linejoin="round" stroke-miterlimit="10" d="
			M394.671,352.876l-1.987-0.134c-0.957-0.08-1.934-0.195-2.854-0.478c-0.755-0.229-1.478-0.576-2.127-1.025
			c-1.355-0.944-2.453-2.235-3.292-3.65c-0.937-1.6-1.548-3.431-1.54-5.297c-0.002-1.383,0.395-2.745,1.021-3.971
			c0.718-1.405,1.719-2.673,2.905-3.713c0.762-0.661,1.611-1.243,2.549-1.623c0.662-0.267,1.386-0.424,2.101-0.34
			c1.725,0.198,3.226,1.604,4.613,2.539c1.446,1.053,3.087,1.803,4.756,2.429c1.957,0.772,4.312,1.507,6.039,2.716
			c0.784,0.549,1.491,1.258,1.871,2.149c0.385,0.891,0.466,1.89,0.363,2.849c-0.131,1.202-0.538,2.367-1.13,3.418
			c-0.627,1.106-1.475,2.105-2.532,2.82c-1.042,0.705-2.264,1.108-3.497,1.317C399.581,353.285,397.037,353.035,394.671,352.876z"/>
	</g>
	<g id="POLYLINE_878_">
		<path fill="none" stroke="#FB8604" stroke-width="2" stroke-linecap="round" stroke-linejoin="round" stroke-miterlimit="10" d="
			M418.682,383.224c-0.548,0.684-1.341,1.141-2.175,1.384c-1.21,0.351-2.549,0.282-3.699-0.242
			c-0.671-0.306-1.262-0.767-1.793-1.274c-1.278-1.216-2.336-2.865-3.572-4.12c-0.391-0.394-0.826-0.752-1.313-1.02
			c-0.692-0.389-1.519-0.636-2.273-0.882c-0.762-0.25-1.526-0.551-2.207-0.979c-1.128-0.709-2.069-1.689-2.9-2.722
			c-1.115-1.408-2.038-2.98-2.716-4.643c-0.591-1.472-1.01-3.048-0.999-4.643c0.01-1.176,0.274-2.355,0.798-3.41
			c0.835-1.707,2.36-3.049,4.152-3.678c1.641-0.58,3.444-0.608,5.141-0.274c1.982,0.403,3.926,1.322,5.282,2.853
			c1.835,2.103,2.197,5.116,2.852,7.732c0.338,1.432,0.821,2.85,1.623,4.092c1.108,1.791,2.71,3.381,3.684,5.258
			c0.671,1.312,1.071,2.801,0.957,4.281C419.456,381.755,419.2,382.578,418.682,383.224z"/>
	</g>
	<g id="POLYLINE_877_">
		<path fill="none" stroke="#FB8604" stroke-width="2" stroke-linecap="round" stroke-linejoin="round" stroke-miterlimit="10" d="
			M403.203,400.653c-0.876-1.226-2.14-2.171-3.559-2.675c-1.316-0.459-2.898-0.603-4.118,0.184
			c-0.811,0.522-1.292,1.418-1.523,2.333c-0.225,0.872-0.286,1.787-0.255,2.685c0.045,1.116,0.242,2.237,0.624,3.287
			c0.412,1.116,1.062,2.215,2.093,2.857c1.467,0.894,3.354,0.769,4.896,0.132c1.325-0.547,2.515-1.557,2.964-2.953
			C404.967,404.537,404.367,402.307,403.203,400.653z"/>
	</g>
	<g id="POLYLINE_876_">
		<path fill="none" stroke="#FB8604" stroke-width="2" stroke-linecap="round" stroke-linejoin="round" stroke-miterlimit="10" d="
			M388.821,383.833c-0.779,0.124-1.58,0.152-2.362,0.042c-1.552-0.23-3.039-0.862-4.493-1.429c-1.219-0.505-2.437-1.079-3.523-1.834
			c-0.663-0.467-1.294-1.011-1.747-1.69c-0.311-0.466-0.525-1.007-0.564-1.569c-0.06-0.883,0.244-1.749,0.652-2.519
			c0.973-1.772,2.488-3.212,4.163-4.321c1.502-0.976,3.272-1.715,5.095-1.544c2.384,0.208,4.357,1.806,5.915,3.513
			c0.964,1.065,1.838,2.238,2.484,3.525c0.406,0.821,0.731,1.705,0.801,2.624c0.042,0.556-0.023,1.128-0.245,1.642
			c-0.267,0.622-0.732,1.14-1.254,1.562C392.349,382.931,390.556,383.543,388.821,383.833z"/>
	</g>
	<g id="POLYLINE_875_">
		<path fill="none" stroke="#FB8604" stroke-width="2" stroke-linecap="round" stroke-linejoin="round" stroke-miterlimit="10" d="
			M349.49,431.336l0.711-2.495c1.359-4.588,3.397-6.016,8.038-6.69c3.582-0.52,8.455-0.473,12.046-0.958
			c1.617-0.214,3.243-0.552,4.747-1.197c2.714-1.103,5.056-3.258,7.797-4.299c1.459-0.562,3.044-0.727,4.597-0.628
			c2.472,0.156,4.905,0.837,7.168,1.83c2.078,0.926,4.064,2.143,5.687,3.748c0.865,0.858,1.614,1.848,2.137,2.952
			c0.566,1.182,0.883,2.48,0.953,3.788c0.11,2.059-0.366,4.141-1.3,5.976c-0.606,1.243-1.591,2.403-2.463,3.472
			c-0.38,0.474-0.795,0.967-1.029,1.532c-0.074,0.193-0.12,0.406-0.076,0.611l0.003,0.013l0.003,0.013l0.003,0.013l0.004,0.013
			l0.004,0.013l0.004,0.013l0.004,0.013l0.005,0.013l0.005,0.013l0.005,0.013l0.005,0.013l0.005,0.012l0.006,0.012l0.006,0.012
			l0.006,0.012c0.092,0.177,0.244,0.316,0.402,0.435c0.332,0.243,0.717,0.42,1.09,0.59c0.884,0.394,1.965,0.802,2.758,1.352
			c0.338,0.234,0.654,0.512,0.885,0.854c0.404,0.592,0.534,1.328,0.519,2.034c-0.036,1.294-0.459,2.548-0.933,3.741"/>
	</g>
	<g id="POLYLINE_874_">
		<path fill="none" stroke="#FB8604" stroke-width="2" stroke-linecap="round" stroke-linejoin="round" stroke-miterlimit="10" d="
			M334.994,392.602c-1.471,0.778-3.136,1.136-4.785,1.275c-2.154,0.168-4.347-0.049-6.426-0.64
			c-2.437-0.693-4.747-1.998-6.407-3.934c-1.11-1.295-1.917-2.915-1.998-4.639c-0.083-1.982,0.743-3.965,2.106-5.39
			c0.602-0.618,1.333-1.135,2.166-1.382c1.812-0.523,3.888,0.177,5.722,0.302c1.552,0.163,3.103-0.128,4.605-0.501
			c1.435-0.333,2.972-0.808,4.455-0.78c0.613,0.015,1.237,0.141,1.769,0.457c0.664,0.391,1.163,1.01,1.54,1.673
			c0.601,1.073,0.932,2.283,1.123,3.492c0.341,2.365,0.24,4.911-0.872,7.07C337.332,390.882,336.265,391.933,334.994,392.602z"/>
	</g>
	<g id="POLYLINE_873_">
		<path fill="none" stroke="#FB8604" stroke-width="2" stroke-linecap="round" stroke-linejoin="round" stroke-miterlimit="10" d="
			M244.018,422.505c-1.022,0.237-2.132,0.239-3.101-0.201c-0.784-0.346-1.444-0.927-1.998-1.573
			c-0.667-0.783-1.212-1.676-1.615-2.622c-0.512-1.236-0.852-2.663-0.418-3.971c0.329-0.956,1.045-1.715,1.758-2.405
			c1.083-1.023,2.423-2.159,3.219-3.422c1.18-1.843,1.678-4.346,2.284-6.431c0.403-1.349,0.847-2.755,1.776-3.843
			c0.594-0.685,1.39-1.193,2.261-1.445c0.993-0.29,2.109-0.249,3.031,0.243c0.707,0.376,1.25,1.001,1.652,1.683
			c0.924,1.604,1.276,3.47,1.511,5.286c0.362,3.069,0.288,6.245-0.6,9.222c-0.392,1.303-0.957,2.567-1.717,3.697
			c-0.818,1.215-1.846,2.29-2.99,3.202C247.579,421.099,245.876,422.069,244.018,422.505z"/>
	</g>
</g>
<g id="_x32_D_x24_AG-ANIMALS">
	<g id="POLYLINE_133_">
		
			<path fill="none" stroke="#FB8604" stroke-width="2.75" stroke-linecap="round" stroke-linejoin="round" stroke-miterlimit="10" d="
			M587.813,271.091c-6.036,0.897-12.102,2.509-17.366,5.678c-2.729,1.639-5.187,3.732-7.29,6.119
			c-1.031,1.111-3.031,3.736-4.024,4.987c-1.724,2.212-3.47,4.613-4.965,6.971c-2.905,4.572-5.396,9.788-7.729,14.686
			c-2.487,5.336-7.122,15.667-9.447,21.023c-1.349,3.18-2.782,6.587-3.843,9.854c-1.415,4.22-2.18,8.666-2.46,13.103
			c-0.295,3.724-0.041,7.746-0.858,11.408c-0.904,4.133-2.612,8.162-4.294,12.035c-3.736,8.341-8.038,16.877-12.682,24.745
			c-1.84,3.087-3.885,6.156-6.096,8.986c-2.197,2.843-5.492,6.463-7.609,9.354c-2.943,3.998-5.603,8.33-7.935,12.711
			c-1.644,3.132-3.185,6.402-4.152,9.812c-0.517,1.799-0.854,3.673-1.043,5.535c-1.274,19.766-2.417,51.225-4.353,70.703
			c-0.652,7.633-2.613,21.143-2.178,28.758c0.18,3.957,0.819,7.931,1.699,11.791c0.63,2.626,1.281,5.619,2.272,8.148
			c0.673,1.694,1.546,3.412,3.038,4.523c1.004,0.737,2.245,1.081,3.471,1.204c2.269,0.235,4.852-0.212,7.116-0.476
			c1.223-0.13,2.501-0.225,3.69,0.152c0.921,0.286,1.72,0.883,2.344,1.609c1.181,1.388,1.928,3.097,2.613,4.77
			c1.013,2.6,1.828,5.314,2.278,8.07c0.106,0.751,0.216,1.526,0.117,2.284c-0.039,0.267-0.116,0.534-0.258,0.765
			c-0.125,0.204-0.302,0.374-0.504,0.5c-0.291,0.182-0.625,0.287-0.958,0.363c-1.202,0.256-2.529,0.234-3.757,0.262
			c-5.673-0.066-30.452,0.167-35.639-0.128c-0.741-0.07-1.507-0.153-2.198-0.444c-0.474-0.197-0.884-0.543-1.145-0.986
			c-0.36-0.601-0.489-1.31-0.542-2.001c-0.057-0.781-0.012-1.583,0.057-2.362c0.167-1.967,0.82-5.431,1.047-7.4
			c0.403-3.009,0.443-6.119-0.352-9.069c-0.251-0.91-0.553-1.834-1.062-2.635c-0.255-0.391-0.602-0.756-1.066-0.88
			c-0.317-0.088-0.656-0.063-0.975,0.002c-0.722,0.145-1.66,0.559-2.348,0.8c-0.623,0.214-1.274,0.449-1.941,0.419
			c-0.259-0.015-0.52-0.096-0.725-0.259c-0.411-0.331-0.577-0.865-0.69-1.362c-0.159-0.748-0.195-1.532-0.212-2.295
			c-0.075-3.941,1.109-15.934,1.383-20.037c0.417-5.885,0.924-13.28,1.028-19.141c0.161-6.499-0.009-14.35-0.211-20.881
			c-0.363-9.371-0.865-19.131-2.398-28.389l-1.461-8.454c-0.483-2.788-0.608-6.192-0.789-9.028
			c-0.076-0.972-0.179-1.965-0.413-2.913c-0.246-1.012-0.694-1.97-1.248-2.849c-0.516-0.838-1.251-1.744-1.751-2.591
			c-0.236-0.403-0.426-0.84-0.514-1.3c-0.089-0.449-0.087-0.914-0.042-1.369c0.228-1.884,1.188-5.11,1.615-6.989
			c0.707-3.024,1.369-6.159,1.612-9.257c0.101-1.351,0.122-2.734-0.168-4.064c-0.367-1.731-1.175-3.342-2.073-4.854
			c-2.105-3.471-4.812-6.771-7.376-9.917"/>
	</g>
	<g id="POLYLINE_134_">
		
			<path fill="none" stroke="#FB8604" stroke-width="2.75" stroke-linecap="round" stroke-linejoin="round" stroke-miterlimit="10" d="
			M449.447,441.452c-5.271,2.212-10.73,4.236-16.351,5.323c-4.809,0.95-9.943,1.196-14.841,1.413
			c-6.815,0.209-13.895,0.274-20.673-0.451c-3.3-0.357-6.671-1.063-9.884-1.899c-7.393-1.972-15.284-3.854-22.261-6.992
			c-14.588-6.788-32.777-15.587-47.615-21.515c-6.607-2.655-13.539-5.247-20.41-7.121c-4.024-1.082-8.186-1.977-12.349-2.274
			c-3.869-0.286-7.845,0.052-11.48,1.472c-5.725,2.209-10.255,6.605-14.686,10.706c-4.932,4.671-9.648,9.753-13.699,15.211
			c-4.054,5.273-8.915,14.239-12.347,19.996c-2.891,4.81-6.074,9.569-9.598,13.932c-12.021,14.843-29.113,28.452-42.359,42.203
			c-6.252,6.594-12.26,13.726-16.001,22.082c-2.53,5.647-4.05,11.752-5.277,17.8c-1.221,6.427-2.32,13.071-2.446,19.621
			c0.012,0.891,0.105,1.839,0.636,2.585c0.478,0.675,1.186,1.147,1.905,1.535c2.31,1.234,5.017,1.596,7.55,2.129
			c1.702,0.387,3.497,0.967,4.67,2.333c1.141,1.353,1.518,3.209,1.676,4.93c0.118,1.553,0.06,3.136-0.281,4.658
			c-0.143,0.602-0.344,1.243-0.844,1.644c-0.576,0.454-1.338,0.555-2.045,0.637c-3.306,0.262-27.268,0.031-31.105,0.081
			c-0.989-0.03-2.136-0.01-3.117-0.162c-0.594-0.094-1.235-0.234-1.667-0.683c-0.454-0.488-0.488-1.203-0.46-1.836
			c0.095-1.539,0.518-3.177,0.828-4.689c1.717-7.687,4.907-19.22,5.669-26.927c0.476-4.617,0.196-9.588-0.004-14.225
			c-0.207-3.618-0.52-7.381-1.23-10.934c-0.512-2.755-1.462-5.783-1.864-8.556c-0.101-0.821-0.121-1.672,0.105-2.475
			c0.419-1.479,1.549-2.618,2.57-3.714c3.766-3.784,7.797-7.916,11.179-11.983c5.422-6.53,10.545-13.466,14.896-20.76
			c1.328-2.258,2.548-4.628,3.557-7.045c1.286-3.053,2.714-7.585,3.783-10.788c3.434-9.979,8.206-20.628,9.332-31.17
			c0.367-3.536,0.255-7.148-0.135-10.679c-0.644-5.845-2.367-13.535-3.043-19.376c-0.781-6.611-1.046-13.436-0.815-20.087
			c0.206-5.063,0.642-10.215,1.947-15.123c0.894-3.421,2.302-6.725,3.949-9.849c4.076-7.84,9.905-14.68,16.43-20.594
			c5.78-5.214,12.155-9.923,19.207-13.269c6.915-3.344,15.024-5.596,22.381-7.827c18.887-5.71,38.956-7.951,58.582-9.409
			c16.828-1.136,34.521-1.94,51.362-1.059c7.848,0.346,18.254,1.56,26.102,2.424c2.04,0.219,4.411,0.391,6.477,0.405
			c2.831,0.029,5.686-0.329,8.408-1.112c6.597-1.969,27.86-10.077,34.403-11.994c2.627-0.829,5.252-1.404,7.887-2.027
			c1.71-0.423,3.443-0.981,5.081-1.629c3.55-1.42,7.039-3.23,10.377-5.087c1.563-0.888,3.256-1.887,4.739-2.914
			c0,0,0.511-0.359,0.511-0.359s0.475-0.345,0.475-0.345s0.442-0.331,0.442-0.331s0.413-0.319,0.413-0.319s0.387-0.307,0.387-0.307
			s2.007-1.637,2.007-1.637c1.087-0.892,2.837-1.904,4.046-2.655c1.016-0.64,2.032-1.345,2.961-2.105
			c1.792-1.463,3.379-3.186,4.836-4.979c2.46-3.031,4.617-6.446,6.566-9.827l7.83-13.892c4.408-7.52,9.097-15.153,14.718-21.832
			c3.9-4.664,8.966-8.869,13.603-12.803l0.756-0.669"/>
	</g>
	<g id="POLYLINE_135_">
		
			<path fill="none" stroke="#FB8604" stroke-width="2.75" stroke-linecap="round" stroke-linejoin="round" stroke-miterlimit="10" d="
			M640.802,237.344c-0.09,1.529-0.097,3.928-0.377,5.396c-0.299,1.474-1.035,3.33-1.417,4.786c-0.653,2.33-1.277,5.276-2.419,7.399
			c-2.412,4.496-5.64,8.669-9.775,11.705c-1.275,0.925-2.732,1.632-4.297,1.878c-3.189,0.506-6.764,0.089-9.825,1.267
			c-0.585,0.238-1.148,0.556-1.601,1.001c-0.641,0.617-1.09,1.555-1.545,2.31c-0.493,0.845-1.115,1.627-1.896,2.223
			c-0.983,0.765-2.165,1.252-3.383,1.49c-2.334,0.434-4.833,0.128-7.141-0.347c-1.591-0.348-3.184-0.826-4.608-1.632
			c-1.38-0.742-2.849-2.17-4.044-3.184c-2.063-1.762-4.408-3.227-6.793-4.511c-4.309-2.329-10.662-5.221-15.146-7.325"/>
	</g>
	<g id="POLYLINE_136_">
		
			<path fill="none" stroke="#FB8604" stroke-width="2.75" stroke-linecap="round" stroke-linejoin="round" stroke-miterlimit="10" d="
			M552.363,193.775c0.505,1.446,0.845,2.982,1.104,4.491c0.253,1.477,0.551,3.751,0.921,5.154c0.255,0.995,0.62,2.006,1.005,2.958
			c0.616,1.508,1.472,3.367,1.834,4.932c0.299,1.25,0.39,2.554,0.353,3.836c-0.055,1.867-0.349,3.774-0.664,5.614
			c-1.066,6.016-2.792,13.475-3.111,19.549c-0.125,2.021-0.136,4.14-0.022,6.162c0.084,1.678,0.471,5.685,0.491,7.343
			c0.004,0.648-0.001,1.319-0.163,1.951c-0.109,0.42-0.31,0.84-0.672,1.098c-0.401,0.289-0.914,0.345-1.394,0.374
			c-0.808,0.019-1.667,0.129-2.454-0.107c-0.756-0.211-1.375-0.751-1.802-1.397c-0.306-0.453-0.544-0.966-0.757-1.469
			c-0.895-2.135-1.541-4.878-2.593-6.94c-0.467-0.902-1.108-1.713-1.875-2.379c-0.959-0.827-2.088-1.562-2.908-2.537
			c-1.526-1.728-2.606-3.826-3.247-6.034c-0.494-1.559-0.77-3.454-1.574-4.891c-0.495-0.878-1.241-1.59-2.071-2.152
			c-0.839-0.571-1.758-1.044-2.692-1.438c-1.447-0.595-3.021-1.09-4.6-0.847c-0.62,0.085-1.343,0.266-1.965,0.339
			c-0.527,0.065-1.071,0.073-1.601,0.042c-1.223-0.076-2.445-0.346-3.568-0.841c-0.974-0.43-1.88-1.061-2.515-1.925
			c-1.001-1.328-1.163-3.038-1.054-4.649c0.15-2.271,0.72-4.551,1.292-6.749c0.593-2.187,1.3-4.387,2.378-6.388
			c1.205-2.288,3.98-5.628,5.528-7.738c1.723-2.241,3.518-4.55,5.711-6.353c1.723-1.422,3.696-2.537,5.753-3.399
			c3.067-1.341,6.407-1.947,9.715-2.331c5.574-0.665,11.28-0.708,16.833,0.176c2.522,0.393,5.115,0.934,7.573,1.624
			c1.395,0.403,2.836,0.852,4.162,1.447c2.932,1.29,6.654,3.971,9.389,5.68c3.114,2.115,6.905,4.49,9.847,6.816
			c0.695,0.557,1.414,1.144,2.022,1.798c0.372,0.403,0.727,0.842,0.934,1.355c0.129,0.315,0.178,0.658,0.187,0.997
			c0.032,1.17,0.008,2.432,0.396,3.547c0.234,0.688,0.639,1.312,1.146,1.83c0.754,0.771,1.694,1.337,2.652,1.819
			c1.83,0.903,3.886,1.617,5.811,2.297c3.825,1.291,7.781,2.623,11.753,3.372c1.03,0.193,2.809,0.421,3.819,0.683
			c0.605,0.156,1.206,0.384,1.781,0.625c2.159,0.96,6.793,3.002,8.985,3.965c0.987,0.454,2.238,1.044,3.197,1.543"/>
	</g>
	<g id="POLYLINE_137_">
		
			<path fill="none" stroke="#FB8604" stroke-width="2.75" stroke-linecap="round" stroke-linejoin="round" stroke-miterlimit="10" d="
			M636.171,226.524c-0.828,0.09-1.598,0.497-2.058,1.204c-0.343,0.52-0.535,1.138-0.735,1.724c-0.297,0.914-0.585,1.855-0.685,2.814
			c-0.05,0.502-0.036,1.023,0.143,1.5c0.166,0.452,0.474,0.839,0.83,1.158c0.463,0.415,1.002,0.746,1.542,1.05
			c0.912,0.503,1.884,0.944,2.865,1.292c0.825,0.286,1.718,0.533,2.557,0.157c0.906-0.394,1.665-1.11,2.153-1.964
			c0.537-0.965,0.739-2.08,0.81-3.171c0.039-0.663,0.029-1.337-0.08-1.993c-0.069-0.4-0.173-0.804-0.387-1.153
			c-0.193-0.319-0.484-0.564-0.796-0.763c-1.056-0.641-2.204-1.152-3.385-1.515C638.05,226.603,637.105,226.424,636.171,226.524z"/>
	</g>
	<g id="POLYLINE_138_">
		
			<path fill="none" stroke="#FB8604" stroke-width="2.75" stroke-linecap="round" stroke-linejoin="round" stroke-miterlimit="10" d="
			M207.474,334.626c-8.312,4.018-16.966,8.31-24.692,13.353c-4.412,2.891-8.643,6.2-12.028,10.27
			c-4.412,5.22-8.03,11.133-10.812,17.372c-1.458,3.234-2.764,6.621-3.728,10.034c-1.477,5.129-2.37,10.716-3.086,16.01
			c-0.853,6.539-1.913,14.87-3.092,21.308c-2.305,13.186-6.446,26.123-11.979,38.305c-2.559,5.614-5.459,11.24-8.76,16.455
			c-2.591,4.101-5.58,8.068-8.715,11.769c-2.066,2.448-7.239,8.036-8.94,10.628c-1.429,2.122-2.543,4.519-2.865,7.076
			c-0.175,1.396-0.127,2.828,0.1,4.216c0.077,0.399,0.175,0.81,0.402,1.153c0.131,0.197,0.326,0.357,0.56,0.409
			c0.225,0.052,0.461,0.017,0.679-0.048c0.436-0.135,0.834-0.379,1.211-0.632c2.085-1.488,3.992-3.563,5.8-5.379
			c8.454-8.943,17.441-18.62,25.111-28.232c3.835-4.861,7.557-10.007,10.145-15.655c1.066-2.306,1.979-4.762,2.738-7.186
			c2.52-8.587,6.616-24.275,8.762-32.926c0.973-3.727,3.699-16.737,4.578-20.605c1.585-6.942,3.618-13.979,6.145-20.634
			c2.861-7.583,6.431-15.094,10.312-22.208"/>
	</g>
</g>
<g id="_x32_D_x24_AG-OUTLINE">
	<g id="POLYLINE_84_">
		
			<path fill="none" stroke="#FB8604" stroke-width="3.5" stroke-linecap="round" stroke-linejoin="round" stroke-miterlimit="10" d="
			M640.802,237.344c0.828-0.411,1.524-1.084,1.981-1.886c0.553-0.995,0.752-2.148,0.815-3.273c0.034-0.711,0.016-1.435-0.132-2.133
			c-0.091-0.423-0.245-0.847-0.536-1.175c-0.46-0.513-1.216-0.85-1.827-1.162c-1.105-0.528-2.274-0.971-3.491-1.149
			c-0.654-0.092-1.335-0.117-1.976,0.065c-0.958-0.499-2.212-1.091-3.197-1.543c-2.202-0.967-6.816-3.001-8.985-3.965
			c-0.578-0.242-1.176-0.469-1.781-0.625c-1.001-0.264-2.787-0.486-3.819-0.683c-4.392-0.841-8.743-2.336-12.962-3.798
			c-1.634-0.596-3.372-1.227-4.913-2.031c-0.846-0.446-1.67-0.972-2.341-1.659c-0.508-0.518-0.912-1.142-1.146-1.83
			c-0.387-1.114-0.366-2.38-0.396-3.547c-0.01-0.32-0.051-0.643-0.166-0.943c-0.142-0.381-0.375-0.724-0.63-1.039
			c-0.525-0.639-1.168-1.201-1.803-1.73c-1.518-1.254-3.394-2.538-5.019-3.669c-3.491-2.37-8.141-5.429-11.731-7.659
			c-0.812-0.486-1.673-0.974-2.528-1.376c-2.459-1.156-5.15-1.852-7.79-2.462c-3.304-0.732-6.73-1.253-10.11-1.434
			c-4.794-0.237-9.657,0.096-14.389,0.882c-4.116,0.687-8.23,2.238-11.586,4.747c-2.18,1.63-3.958,3.771-5.627,5.903
			c-1.887,2.581-4.9,6.105-6.376,8.9c-1.18,2.257-1.912,4.751-2.54,7.21l-0.756,0.669c-4.645,3.941-9.698,8.133-13.603,12.803
			c-5.621,6.677-10.312,14.313-14.718,21.832l-7.83,13.892c-1.951,3.383-4.105,6.795-6.566,9.827
			c-1.457,1.792-3.044,3.516-4.836,4.979c-0.929,0.76-1.945,1.465-2.961,2.105c-1.21,0.751-2.953,1.759-4.046,2.655
			c-1.459,1.192-3.223,2.66-4.786,3.673c-2.618,1.733-5.546,3.324-8.34,4.764c-2.386,1.208-4.878,2.393-7.393,3.304
			c-2.151,0.815-4.941,1.439-7.197,1.955c-7.29,1.641-28.563,9.786-35.919,12.28c-2.323,0.796-4.712,1.507-7.15,1.824
			c-2.875,0.388-5.843,0.286-8.728,0.049c-9.223-0.912-20.204-2.319-29.427-2.68c-13.192-0.623-26.941-0.226-40.125,0.48
			c-16.22,0.981-33.132,2.326-49.096,5.33c-9.893,1.828-19.891,4.716-29.472,7.764c-4.669,1.508-9.402,3.239-13.783,5.462
			c-4.078,2.05-7.969,4.611-11.592,7.383c-8.312,4.018-16.966,8.31-24.692,13.353c-4.412,2.891-8.643,6.2-12.028,10.27
			c-4.412,5.22-8.03,11.133-10.812,17.372c-1.458,3.234-2.764,6.621-3.728,10.034c-1.477,5.129-2.37,10.716-3.086,16.01
			c-0.853,6.539-1.913,14.87-3.092,21.308c-2.305,13.186-6.446,26.123-11.979,38.305c-2.559,5.614-5.459,11.24-8.76,16.455
			c-2.591,4.101-5.58,8.068-8.715,11.769c-2.226,2.65-7.438,8.2-9.227,11.066c-1.449,2.251-2.512,4.82-2.66,7.516
			c-0.059,1.168-0.002,2.359,0.216,3.508c0.108,0.477,0.268,1.06,0.72,1.312c0.322,0.173,0.707,0.103,1.035-0.02
			c0.775-0.304,1.442-0.842,2.084-1.361c1.065-0.883,2.146-1.945,3.131-2.921c5.53-5.636,12.022-12.785,17.296-18.682
			c4.139-4.708,8.537-9.861,12.269-14.885c3.735-4.987,7.018-10.415,9.107-16.307c0.596-1.62,1.148-3.426,1.634-5.084
			c2.065-7.534,6.292-23.204,8.099-30.719c1.749-7.114,4.2-19.672,6.091-26.73c2.931-11.169,7.325-22.013,12.652-32.249
			c-1.051,2.467-1.903,5.044-2.5,7.657c-0.911,3.945-1.322,8.087-1.537,12.128c-0.323,6.583-0.134,13.345,0.534,19.903
			c0.488,5.155,1.984,12.6,2.795,17.761c0.758,4.968,1.126,10.067,0.486,15.069c-0.769,6.053-2.654,11.984-4.678,17.722
			c-0.697,1.891-3.973,10.759-4.549,12.525c-0.929,2.759-2.271,7.018-3.344,9.709c-1.099,2.8-2.471,5.534-3.997,8.124
			c-4.35,7.294-9.474,14.231-14.895,20.76c-3.348,4.06-7.471,8.233-11.179,11.983c-1.021,1.096-2.151,2.235-2.57,3.714
			c-0.226,0.803-0.206,1.654-0.105,2.475c0.402,2.773,1.352,5.802,1.864,8.556c0.71,3.552,1.024,7.319,1.23,10.934
			c0.2,4.637,0.479,9.604,0.004,14.225c-0.754,7.678-3.971,19.318-5.669,26.927c-0.219,1.097-0.57,2.533-0.72,3.655
			c-0.066,0.501-0.135,1.029-0.11,1.537c0.017,0.492,0.136,1.012,0.497,1.368c0.21,0.208,0.478,0.348,0.755,0.444
			c0.383,0.135,0.799,0.198,1.202,0.246c2.739,0.26,29.571,0.126,32.549,0.124c0.892-0.047,1.81-0.064,2.666-0.339
			c0.375-0.124,0.734-0.328,0.984-0.638c0.189-0.23,0.318-0.504,0.416-0.783c0.146-0.426,0.24-0.881,0.313-1.326
			c0.26-1.675,0.264-3.399,0.002-5.074c-0.212-1.262-0.582-2.548-1.365-3.582c-0.534-0.701-1.261-1.236-2.047-1.623
			c-1.867-0.904-4.077-1.142-6.085-1.583c-1.402-0.317-2.807-0.733-4.094-1.381c-0.687-0.353-1.359-0.776-1.87-1.363
			c-0.496-0.562-0.724-1.281-0.793-2.018c-0.064-0.509-0.042-1.075-0.038-1.59c0.066-2.33,0.305-4.872,0.571-7.192
			c0.691-5.611,1.693-11.382,3.014-16.878c1.187-4.876,2.687-9.759,4.92-14.264c2.646-5.416,6.306-10.322,10.207-14.894
			c10.931-12.673,26.499-25.285,38.084-37.351c3.155-3.249,6.439-6.838,9.28-10.361c2.872-3.564,5.586-7.465,8.011-11.345
			c4.478-7.123,9.335-16.705,14.507-23.347c5.162-6.798,11.259-12.955,17.665-18.58c3.615-3.154,7.656-6.055,12.355-7.293
			c3.283-0.897,6.746-0.99,10.121-0.683c4.24,0.387,8.471,1.356,12.566,2.501c7.92,2.213,16.035,5.464,23.642,8.592
			c12.823,5.228,31.49,14.341,44.188,20.13c6.739,2.902,14.307,4.725,21.388,6.61c2.851,0.76,5.934,1.397,8.865,1.776
			c6.47,0.789,13.178,0.784,19.686,0.639c5.773-0.194,11.88-0.442,17.553-1.621c5.372-1.117,10.597-3.058,15.644-5.181
			c-0.331,1.366-0.805,2.954-0.986,4.34c-0.05,0.414-0.07,0.838-0.022,1.253c0.076,0.768,0.447,1.465,0.875,2.095
			c0.773,1.129,1.686,2.29,2.218,3.559c0.355,0.808,0.566,1.677,0.693,2.549c0.237,1.511,0.323,4.298,0.429,5.848
			c0.103,1.61,0.29,3.328,0.546,4.922l1.461,8.454c1.533,9.257,2.035,19.016,2.398,28.389c0.201,6.568,0.371,14.366,0.211,20.881
			c-0.103,5.847-0.612,13.259-1.028,19.141c-0.28,4.182-1.453,16.031-1.383,20.037c0.017,0.763,0.052,1.547,0.212,2.295
			c0.114,0.497,0.279,1.031,0.69,1.362c0.218,0.174,0.499,0.253,0.775,0.262c0.651,0.014,1.284-0.212,1.891-0.422
			c0.7-0.248,1.725-0.694,2.45-0.819c0.309-0.053,0.635-0.062,0.936,0.036c0.621,0.205,0.998,0.795,1.283,1.349
			c0.514,1.036,0.821,2.174,1.048,3.304c0.408,2.075,0.457,4.219,0.259,6.321c-0.211,2.564-0.922,6.171-1.195,8.738
			c-0.079,0.795-0.134,1.616-0.094,2.415c0.055,1.075,0.299,2.299,1.249,2.942c0.348,0.238,0.755,0.377,1.163,0.473
			c1.449,0.315,3.005,0.293,4.483,0.334c1.938-0.015,33.297,0.057,34.04-0.017c0.69-0.028,1.414-0.06,2.094-0.181
			c0.559-0.104,1.156-0.262,1.557-0.69c0.258-0.276,0.385-0.648,0.434-1.018c0.087-0.691-0.003-1.397-0.095-2.083
			c-0.542-3.38-1.599-6.768-3.01-9.885c-0.727-1.52-1.567-3.094-2.966-4.097c-0.551-0.391-1.189-0.656-1.852-0.784
			c-1.027-0.201-2.091-0.117-3.124-0.007c-2.364,0.261-5.049,0.762-7.429,0.439c-1.12-0.147-2.241-0.492-3.158-1.167
			c-1.598-1.195-2.486-3.071-3.179-4.893c-0.892-2.438-1.539-5.243-2.13-7.779c-0.833-3.665-1.457-7.433-1.667-11.186
			c-0.139-2.348-0.124-4.758,0.006-7.107c0.157-3.842,1.749-18.124,2.14-22.256c1.928-19.356,3.083-50.989,4.349-70.67
			c0.193-1.912,0.541-3.836,1.079-5.681c0.968-3.367,2.494-6.603,4.12-9.699c2.333-4.381,4.992-8.713,7.935-12.711
			c2.198-3.008,5.793-6.937,8.041-9.913c2.429-3.163,4.663-6.667,6.66-10.12c4.214-7.338,8.234-15.324,11.686-23.052
			c1.738-4.007,3.511-8.174,4.383-12.471c0.713-3.524,0.483-7.405,0.769-10.973c0.287-4.623,1.119-9.252,2.636-13.634
			c1.023-3.064,2.401-6.351,3.667-9.322c2.33-5.382,6.963-15.689,9.447-21.022c2.329-4.881,4.823-10.114,7.729-14.686
			c1.488-2.377,3.258-4.751,4.966-6.971c0,0,2.265-2.888,2.265-2.888s0.415-0.515,0.415-0.515c0.382-0.457,0.939-1.138,1.343-1.584
			c2.209-2.51,4.815-4.693,7.711-6.369c5.168-3.004,11.068-4.556,16.945-5.428c0.154,0.124,0.463,0.379,0.614,0.506
			c1.219,1.026,2.696,2.472,4.09,3.223c1.345,0.761,2.844,1.23,4.345,1.573c1.349,0.304,2.74,0.511,4.121,0.586
			c1.055,0.053,2.13,0.034,3.171-0.159c1.23-0.226,2.427-0.7,3.427-1.459c0.812-0.604,1.458-1.405,1.965-2.275
			c0.464-0.762,0.903-1.69,1.545-2.31c0.453-0.445,1.016-0.764,1.601-1.001c3.059-1.178,6.637-0.762,9.825-1.267
			c1.565-0.247,3.022-0.953,4.297-1.878c4.135-3.035,7.362-7.208,9.775-11.705c1.15-2.113,1.764-5.089,2.419-7.399
			c0.383-1.459,1.115-3.308,1.417-4.786C640.718,241.255,640.701,238.856,640.802,237.344z"/>
	</g>
</g>
</svg>
