<?xml version="1.0" encoding="utf-8"?>
<!-- Generator: Adobe Illustrator 25.3.1, SVG Export Plug-In . SVG Version: 6.00 Build 0)  -->
<!DOCTYPE svg PUBLIC "-//W3C//DTD SVG 1.1//EN" "http://www.w3.org/Graphics/SVG/1.1/DTD/svg11.dtd" [
	<!ENTITY ns_extend "http://ns.adobe.com/Extensibility/1.0/">
	<!ENTITY ns_ai "http://ns.adobe.com/AdobeIllustrator/10.0/">
	<!ENTITY ns_graphs "http://ns.adobe.com/Graphs/1.0/">
	<!ENTITY ns_vars "http://ns.adobe.com/Variables/1.0/">
	<!ENTITY ns_imrep "http://ns.adobe.com/ImageReplacement/1.0/">
	<!ENTITY ns_sfw "http://ns.adobe.com/SaveForWeb/1.0/">
	<!ENTITY ns_custom "http://ns.adobe.com/GenericCustomNamespace/1.0/">
	<!ENTITY ns_adobe_xpath "http://ns.adobe.com/XPath/1.0/">
]>
<svg version="1.1" xmlns:x="&ns_extend;" xmlns:i="&ns_ai;" xmlns:graph="&ns_graphs;"
	 xmlns="http://www.w3.org/2000/svg" xmlns:xlink="http://www.w3.org/1999/xlink" x="0px" y="0px" width="750px" height="750px"
	 viewBox="0 0 750 750" enable-background="new 0 0 750 750" xml:space="preserve">
<metadata>
	<sfw  xmlns="&ns_sfw;">
		<slices></slices>
		<sliceSourceBounds  bottomLeftOrigin="true" height="10253.718" width="5559" x="-2000" y="-1364"></sliceSourceBounds>
	</sfw>
</metadata>
<g id="FILL-BACKGROUND">
	<rect fill="#FFFFFF" width="750" height="750"/>
</g>
<g id="N-DIMENSIONS">
</g>
<g id="N-TEXT">
</g>
<g id="_x32_D_x24_AG-DIAGRAM">
	<g id="POLYLINE_713_">
		<g>
			<g>
				
					<line fill="none" stroke="#FB8604" stroke-width="3.25" stroke-linecap="round" stroke-linejoin="round" x1="107.137" y1="584.371" x2="109.137" y2="584.371"/>
				
					<line fill="none" stroke="#FB8604" stroke-width="3.25" stroke-linecap="round" stroke-linejoin="round" stroke-dasharray="3.958,6.9265" x1="116.063" y1="584.371" x2="515.327" y2="584.371"/>
				
					<line fill="none" stroke="#FB8604" stroke-width="3.25" stroke-linecap="round" stroke-linejoin="round" x1="518.79" y1="584.371" x2="520.79" y2="584.371"/>
			</g>
		</g>
	</g>
</g>
<g id="_x32_D_x24_AG-DETAILS-DIAGRAM">
</g>
<g id="_x32_D_x24_AG-DETAILS">
	<g id="POLYLINE_963_">
		<path fill="none" stroke="#FB8604" stroke-width="2" stroke-linecap="round" stroke-linejoin="round" stroke-miterlimit="10" d="
			M437.283,511.491c0.819-5.037,1.721-10.324,4.423-14.737c1.992-3.311,4.812-6.107,7.584-8.769
			c3.366-3.146,9.375-8.579,12.422-11.853c2.415-2.534,4.751-5.336,6.838-8.148c8.34-11.125,15.544-25.812,22.397-37.944
			c3.463-6.093,7.453-11.99,11.989-17.339c5.32-6.312,11.215-12.293,17.581-17.554"/>
	</g>
	<g id="POLYLINE_962_">
		<path fill="none" stroke="#FB8604" stroke-width="2" stroke-linecap="round" stroke-linejoin="round" stroke-miterlimit="10" d="
			M160.685,514.565c5.51-2.361,11.414-3.954,17.279-5.16l13.179-2.518c3.865-0.802,7.74-1.872,11.268-3.673
			c5.375-2.671,9.795-6.899,13.849-11.252c4.952-5.444,10.431-11.764,16.158-16.341c7.765-6.369,16.75-11.156,26.088-14.783"/>
	</g>
	<g id="POLYLINE_961_">
		<path fill="none" stroke="#FB8604" stroke-width="2" stroke-linecap="round" stroke-linejoin="round" stroke-miterlimit="10" d="
			M568.911,291.354c0.187-3.589,1.068-8.105,1.682-11.661c0.691-3.429,1.718-7.006,4.169-9.613c1.236-1.303,2.797-2.257,4.398-3.045
			c3.383-1.65,7.424-2.798,10.778-4.511c1.589-0.797,3.079-1.809,4.445-2.945c2.288-1.877,4.628-4.442,6.876-6.365
			c1.511-1.29,3.192-2.447,5.096-3.064c1.79-0.593,3.698-0.786,5.574-0.863c2.705-0.103,6.487,0.038,9.194-0.042"/>
	</g>
	<g id="POLYLINE_960_">
		<path fill="none" stroke="#FB8604" stroke-width="2" stroke-linecap="round" stroke-linejoin="round" stroke-miterlimit="10" d="
			M611.727,232.537c3.558,6.586,11.668,20.556,15.396,27.197c1.291,2.326,3.524,6.764,4.84,9.068l1.326,2.235
			c0.698,1.193,1.303,2.467,1.723,3.784c0.802,2.519,1.121,5.187,1.301,7.817c0.127,2.08,0.137,4.207-0.06,6.284
			c-0.137,1.347-0.347,2.715-0.821,3.989"/>
	</g>
	<g id="POLYLINE_139_">
		<path fill="none" stroke="#FB8604" stroke-width="2" stroke-linecap="round" stroke-linejoin="round" stroke-miterlimit="10" d="
			M563.319,287.664c-1.052,4.295-1.917,8.72-1.991,13.153c-0.016,1.199,0.037,2.45,0.162,3.642c0.148,1.42,0.46,3.247,0.593,4.665
			c0.116,1.207,0.178,2.442-0.021,3.643c-0.163,1.015-0.528,1.994-0.949,2.928c-1.018,2.222-2.578,4.877-3.578,7.102
			c-1.062,2.321-1.953,4.827-2.722,7.261c-1.304,4.255-2.78,9.776-4.429,13.889c-0.889,2.277-1.917,4.691-3.004,6.879
			c-0.795,1.663-2.371,4.316-3.281,5.921c-0.539,0.977-1.068,1.985-1.388,3.057c-0.253,0.846-0.354,1.737-0.398,2.617
			c-0.037,0.959-0.064,2.219-0.188,3.152c-0.083,0.642-0.228,1.295-0.405,1.917c-0.414,1.441-1.019,2.835-1.737,4.15
			c-0.625,1.128-1.331,2.233-2.19,3.198c-0.906,1.015-2.074,1.92-3.462,2.089c-1.172,0.143-2.589-0.204-3.753-0.355
			c-1.231-0.174-2.501-0.204-3.72,0.07c-1.354,0.296-2.655,0.84-3.895,1.449c-1.692,0.847-3.347,1.858-4.893,2.948
			c-0.876,0.645-1.923,1.457-1.894,2.655c0.016,0.684,0.318,1.323,0.622,1.923c1.014,1.902,2.414,3.817,3.107,5.872
			c0.531,1.537,0.663,3.186,0.61,4.803c-0.069,2.029-0.365,4.118-0.671,6.124c-0.63,3.996-1.555,8.045-2.777,11.902
			c-1.134,3.741-3.509,8.99-5.025,12.624c-2.275,5.5-4.105,11.266-5.454,17.061"/>
	</g>
</g>
<g id="_x32_D_x24_AG-ANIMALS">
	<g id="POLYLINE_74_">
		
			<path fill="none" stroke="#FB8604" stroke-width="2.75" stroke-linecap="round" stroke-linejoin="round" stroke-miterlimit="10" d="
			M591.196,295.296c-3.132,6.148-6.313,12.525-8.323,19.14l-1.233,4.457c-0.512,1.759-1.195,3.497-2.061,5.112
			c-1.61,3.006-3.765,5.774-5.889,8.432c-7.148,8.763-16.395,18.969-22.027,28.702c-2.727,4.634-5.045,9.606-6.913,14.646
			c-2.105,5.646-3.559,11.595-4.059,17.606c-0.354,3.724-0.557,8.746-1.283,12.298c-0.372,1.852-0.967,3.663-1.782,5.367
			c-1.764,3.681-4.359,6.926-7.023,9.993c-5.723,6.467-12.203,12.689-18.68,18.403c-4.189,3.621-9.375,7.634-12.726,12.007
			c-2.413,3.059-4.431,6.526-6.272,9.955c-2.757,5.193-5.299,10.794-7.584,16.21c-4.01,9.667-7.876,19.854-10.669,29.935
			c-1.617,5.914-2.948,12.016-3.41,18.139c-0.563,7.016,0.076,14.155,1.193,21.09c0.689,3.993,1.835,12,2.8,15.863
			c0.297,1.178,0.631,2.382,1.166,3.477c0.337,0.684,0.774,1.337,1.369,1.823c0.626,0.519,1.405,0.815,2.188,1.004
			c1.516,0.372,3.957,0.555,5.515,0.781c1.962,0.275,3.949,0.701,5.727,1.603c1.027,0.526,1.992,1.235,2.656,2.192
			c1.157,1.702,1.269,3.864,1.271,5.861c-0.027,0.757,0.005,1.791-0.109,2.535c-0.053,0.323-0.159,0.645-0.36,0.907
			c-0.491,0.631-1.362,0.838-2.108,0.996c-1.557,0.293-3.233,0.356-4.816,0.428c-7.162,0.153-15.285,0.208-22.443-0.058
			c-2.801-0.147-5.69-0.378-8.44-0.939c-1.478-0.31-2.967-0.712-4.328-1.379c-0.914-0.449-1.758-1.059-2.437-1.82
			c-0.8-0.89-1.389-1.954-1.865-3.047c-1.748-4.228-2.511-8.989-3.421-13.458c-7.436-38.212-10.443-77.673-10.866-116.568"/>
	</g>
	<g id="POLYLINE_75_">
		
			<path fill="none" stroke="#FB8604" stroke-width="2.75" stroke-linecap="round" stroke-linejoin="round" stroke-miterlimit="10" d="
			M556.871,276.019c1.548,4.008,3.291,8.102,6.173,11.348c1.317,1.474,2.949,2.655,4.74,3.486
			c5.537,2.471,11.513,4.135,17.585,4.443c5.035,0.275,10.996-0.388,16.045-0.533c3.479-0.11,7.282,0.361,10.738,0.797
			c12.387,1.391,24.746-1.832,34.363-9.891c1.331-1.114,2.619-2.328,3.791-3.608c1.037-1.097,2.285-2.784,3.217-3.988
			c1.33-1.704,2.466-3.583,3.315-5.572"/>
	</g>
	<g id="POLYLINE_76_">
		
			<path fill="none" stroke="#FB8604" stroke-width="2.75" stroke-linecap="round" stroke-linejoin="round" stroke-miterlimit="10" d="
			M282.761,413.841c-2.676,8.365-5.647,17.03-9.247,25.026c-2.06,4.534-4.379,9.059-7.274,13.119
			c-1.154,1.623-2.458,3.213-3.801,4.685c-5.445,5.862-13.097,13.372-17.855,19.713c-7.167,9.555-15.121,22.232-23.075,31.109
			c-6.696,7.743-15.709,15.857-23.309,22.787c-3.882,3.49-8.363,7.44-12.567,10.529c-6.665,4.95-14.546,10.01-19.603,16.665
			c-1.488,1.949-2.782,4.111-3.412,6.498c-0.316,1.219-0.482,2.511-0.254,3.759c0.126,0.687,0.414,1.36,0.913,1.86
			c0.439,0.449,1.002,0.758,1.57,1.013c1.804,0.767,3.917,1.374,5.603,2.386c0.655,0.39,1.285,0.848,1.779,1.434
			c1.227,1.456,1.354,3.466,1.398,5.29c0.016,1.035,0.073,2.138-0.103,3.161c-0.051,0.266-0.121,0.534-0.253,0.772
			c-0.128,0.24-0.334,0.395-0.592,0.48c-0.791,0.239-1.818,0.202-2.648,0.232c-6.152-0.036-26.803,0.124-32.588-0.098
			c-1.142-0.065-2.317-0.149-3.442-0.361c-0.845-0.16-1.691-0.393-2.451-0.802c-0.623-0.332-1.182-0.792-1.603-1.361
			c-0.494-0.661-0.798-1.446-0.987-2.244c-0.258-1.102-0.335-2.255-0.356-3.385c-0.036-2.428,0.247-5.511,0.439-7.96
			c0.413-4.469,0.871-10.57,1.607-14.919c0.137-0.781,0.299-1.577,0.533-2.334c0.585-2.015,1.865-3.63,3.314-5.102
			c3.645-3.632,8.524-7.668,12.099-11.361c3.489-3.548,6.656-7.52,9.392-11.675c1.923-2.97,3.838-6.053,5.189-9.332
			c0.889-2.162,1.525-4.438,1.941-6.737c0.975-5.41,0.893-11.021,0.618-16.493c-0.641-11.382-2.447-23.186-4.443-34.415
			c-2.075-11.481-6.72-32.807-8.434-44.282c-0.465-3.108-0.883-6.617-1.072-9.758c-0.222-3.649-0.204-7.402,0.202-11.039
			c0.345-3.183,1.042-6.383,1.894-9.467c1.191-4.266,2.518-8.773,4.197-12.878c1.015-2.461,2.181-4.912,3.678-7.119
			c1.124-1.666,2.489-3.193,3.845-4.669c2.838-3.068,6.391-6.417,9.376-9.327"/>
	</g>
	<g id="POLYLINE_77_">
		
			<path fill="none" stroke="#FB8604" stroke-width="2.75" stroke-linecap="round" stroke-linejoin="round" stroke-miterlimit="10" d="
			M229.36,317.033c3.567-0.4,18.214-2.272,21.499-2.449c5.03-0.379,10.953-0.413,16.024-0.419l91.805,1.809
			c4.006-0.046,8.292-0.041,12.262-0.537c1.154-0.158,2.322-0.371,3.415-0.783c0.513-0.193,1.016-0.441,1.49-0.718
			c1.942-1.149,6.577-4.34,8.525-5.63c1.146-0.721,2.438-1.644,3.749-1.994c0.577-0.149,1.184-0.116,1.765-0.006
			c1.561,0.321,3.262,0.804,4.865,0.777c1.182-0.001,2.365-0.217,3.505-0.521c1.736-0.467,3.432-1.164,5.046-1.953
			c2.024-1.004,4.613-2.431,6.758-3.082c2.227-0.7,4.57-1.064,6.898-1.198l2.409-0.081c2.538-0.099,4.997-0.895,7.344-1.815
			c4.344-1.705,12.298-5.638,16.617-7.66c3.178-1.541,7.134-3.108,10.392-4.489c4.934-2.185,10.995-7.238,15.425-10.355
			c1.463-1.035,3.04-2.142,4.595-3.02c0.774-0.435,1.587-0.831,2.441-1.079c0.481-0.141,0.981-0.233,1.48-0.275
			c0.552-0.052,1.246-0.035,1.794-0.118c1.22-0.169,2.241-0.945,3.132-1.749c0.726-0.659,1.43-1.421,2.08-2.156
			c3.052-3.509,7.11-8.906,10.228-12.344c4.044-4.579,12.949-11.825,17.562-15.972c3.14-2.818,7.128-6.462,10.072-9.444
			c3.973-4.005,9.171-9.804,13.562-13.218c3.687-2.863,7.775-5.4,12.318-6.621c3.25-0.828,6.657-1.051,9.999-1.188
			c7.312-0.198,14.664,0.728,21.818,2.193c2.174,0.464,4.401,1.071,6.497,1.81c1.93,0.686,4.458,1.722,6.448,2.173
			c1.584,0.405,3.564,0.679,5.149,1.088c0.555,0.154,1.101,0.367,1.609,0.64c1.384,0.747,2.576,1.834,3.732,2.888
			c2.108,2.004,4.269,4.134,6.144,6.359c0.241,0.312,0.475,0.646,0.599,1.023c0.126,0.374,0.128,0.778,0.132,1.169l-0.014,1.201
			c-0.002,0.852,0.057,1.703,0.555,2.427c0.256,0.392,0.583,0.757,0.9,1.102c1.804,1.889,3.784,3.871,5.779,5.555
			c1.661,1.41,3.491,2.655,5.488,3.537c3.89,1.748,9.926,2.88,14.079,3.962c1.578,0.41,3.247,0.891,4.775,1.454
			c1.458,0.51,5.306,2.248,6.777,2.877l4.757,1.955c1.412,0.606,2.851,1.258,4.148,2.084c0.797,0.51,1.557,1.112,2.125,1.876"/>
	</g>
	<g id="POLYLINE_78_">
		
			<path fill="none" stroke="#FB8604" stroke-width="2.75" stroke-linecap="round" stroke-linejoin="round" stroke-miterlimit="10" d="
			M211.763,318.011c-10.316-0.664-20.464-3.466-30.096-7.124c-6.901-2.718-13.806-5.907-19.566-10.652
			c-2.449-2.05-4.606-4.523-6.005-7.412c-1.424-2.895-2.023-6.163-1.87-9.378c0.242-5.109,2.084-10.387,5.97-13.856
			c2.405-2.154,5.551-3.337,8.73-3.716c6.193-0.745,12.63,1.378,17.218,5.592c2.761,2.491,5.01,5.526,6.904,8.713
			c2.364,4.008,4.235,8.356,5.634,12.792c0.787,2.393,1.447,5.564,2.011,8.039c0.454,1.975,1.015,3.971,1.9,5.801
			c1.05,2.196,2.537,4.175,4.109,6.022c2.307,2.68,4.925,5.171,7.647,7.427c1.662,1.343,3.373,2.722,5.34,3.595
			c1.709,0.759,3.581,1.079,5.428,1.289c2.027,0.201,4.11,0.359,6.134,0.059c0.375-0.07,0.764-0.151,1.086-0.365l0.014-0.01
			l0.013-0.01l0.013-0.01l0.013-0.01l0.012-0.01l0.012-0.01l0.011-0.011l0.011-0.011l0.011-0.011l0.01-0.011l0.01-0.011l0.009-0.011
			l0.009-0.011l0.009-0.011l0.008-0.011l0.008-0.012l0.007-0.012l0.007-0.012l0.007-0.012l0.006-0.012l0.006-0.012l0.005-0.012
			l0.005-0.012l0.004-0.012l0.004-0.012l0.003-0.01l0.003-0.01l0.002-0.01l0.002-0.01l0.002-0.01l0.001-0.01l0.001-0.01l0.001-0.01
			l0.001-0.01l0-0.01l0-0.011l0-0.011l0-0.011l-0.001-0.011l-0.001-0.011l-0.001-0.011l-0.001-0.011l-0.001-0.011l-0.002-0.011
			l-0.002-0.011l-0.002-0.011l-0.002-0.011l-0.003-0.011c-0.049-0.193-0.166-0.361-0.284-0.519
			c-0.843-1.036-2.006-1.943-2.651-3.131c-0.367-0.644-0.512-1.394-0.479-2.13c0.103-1.872,0.914-3.736,1.331-5.549
			c0.335-1.357,0.536-2.766,0.446-4.165c-0.216-3.085-1.545-6.134-2.583-9.019c-0.193-0.554-0.397-1.141-0.513-1.715
			c-0.043-0.222-0.077-0.452-0.059-0.679l0.002-0.022l0.002-0.022l0.003-0.021l0.003-0.021l0.004-0.02l0.004-0.02l0.004-0.02
			l0.005-0.019l0.005-0.019l0.005-0.018l0.006-0.018l0.006-0.017l0.007-0.017l0.007-0.016l0.007-0.016l0.008-0.016l0.008-0.015
			l0.009-0.015l0.009-0.014l0.009-0.014l0.01-0.013l0.01-0.013l0.011-0.012l0.011-0.012l0.012-0.011l0.012-0.011l0.012-0.01
			c0.217-0.165,0.545-0.135,0.803-0.116c0.394,0.032,0.819,0.14,1.215,0.096c0.073-0.011,0.146-0.03,0.21-0.068l0.005-0.003
			l0.005-0.003l0.005-0.003l0.005-0.004l0.011-0.009l0.011-0.009l0.011-0.009l0.01-0.01l0.01-0.01l0.009-0.011l0.009-0.011
			l0.008-0.012l0.008-0.012l0.007-0.012l0.007-0.013l0.007-0.013l0.006-0.014l0.006-0.014l0.005-0.015l0.005-0.015l0.004-0.015
			l0.004-0.016l0.004-0.016l0.003-0.017l0.003-0.017l0.002-0.017l0.002-0.018l0.002-0.018l0.001-0.019l0.001-0.019l0-0.019v-0.02
			l0-0.02c-0.029-0.472-0.226-0.923-0.401-1.357c-1.374-3.063-3.209-6.167-4.085-9.424c-0.886-3.1-0.678-6.64-0.588-9.837
			c0.037-1.925-0.007-3.901-0.582-5.754c-0.744-2.473-2.582-4.561-4.067-6.621c-0.241-0.362-0.521-0.739-0.619-1.169l-0.003-0.015
			l-0.002-0.015l-0.002-0.015l-0.002-0.014l-0.001-0.014l-0.001-0.014l-0.001-0.014l0-0.014l0-0.014l0-0.013l0.001-0.013
			l0.001-0.013l0.001-0.013l0.002-0.013l0.002-0.012l0.002-0.012l0.003-0.012l0.003-0.012l0.003-0.012l0.004-0.011l0.004-0.011
			l0.005-0.011l0.005-0.011l0.005-0.011l0.006-0.01l0.006-0.01l0.006-0.01l0.007-0.01l0.007-0.01l0.007-0.009l0.004-0.005
			l0.004-0.005l0.005-0.005l0.005-0.005l0.005-0.005l0.005-0.005c0.196-0.176,0.532-0.209,0.784-0.248
			c0.443-0.062,0.989-0.079,1.4-0.264c0.09-0.043,0.175-0.098,0.241-0.173l0.011-0.013l0.01-0.013l0.01-0.013l0.01-0.014
			l0.009-0.014l0.009-0.014l0.008-0.015l0.008-0.015l0.007-0.015l0.007-0.015l0.007-0.016l0.006-0.016l0.006-0.016l0.005-0.017
			l0.005-0.017l0.005-0.017l0.004-0.017l0.004-0.018l0.003-0.018l0.003-0.018l0.002-0.019l0.002-0.019l0.002-0.019l0.001-0.019
			l0.001-0.02l0-0.02l0-0.02l0-0.02l-0.001-0.021c-0.016-0.305-0.128-0.596-0.251-0.873c-0.603-1.264-1.518-2.399-2.368-3.505
			c-1.444-1.782-4.163-5.083-5.486-6.888c-1.275-1.717-4.192-5.775-5.531-7.358c-0.352-0.598-0.679-1.39-1.058-1.971
			c-0.298-0.465-0.673-0.882-1.093-1.239c-0.632-0.54-1.37-0.972-2.093-1.377c-1.827-1.025-4.427-2.142-6.231-3.211
			c-0.301-0.191-0.618-0.386-0.855-0.657l-0.011-0.014l-0.011-0.014l-0.01-0.014l-0.01-0.014l-0.009-0.013l-0.009-0.013
			l-0.008-0.013l-0.008-0.013l-0.007-0.013l-0.007-0.013l-0.006-0.013l-0.006-0.013l-0.005-0.013l-0.004-0.012l-0.004-0.012
			l-0.003-0.012l-0.003-0.012l-0.002-0.012l-0.002-0.012l-0.001-0.012l0-0.012l0-0.011l0.001-0.011l0.001-0.011l0.002-0.011
			l0.003-0.011l0.003-0.011l0.002-0.005l0.002-0.005l0.002-0.005l0.002-0.005l0.002-0.005l0.003-0.005l0.003-0.005l0.003-0.005
			l0.003-0.005l0.003-0.005l0.003-0.005l0.003-0.005l0.004-0.005l0.004-0.005l0.004-0.005l0.004-0.005l0.004-0.005l0.004-0.005
			l0.004-0.005c0.042-0.046,0.095-0.083,0.148-0.114c0.277-0.159,0.752-0.287,1.056-0.394c0.247-0.087,0.501-0.18,0.719-0.327
			c0.107-0.074,0.208-0.166,0.263-0.285l0.003-0.008l0.01-0.024l0.008-0.025l0.007-0.025l0.006-0.026l0.004-0.026l0.003-0.026
			l0.002-0.027l0-0.027l-0.001-0.028l-0.002-0.028l-0.004-0.029l-0.005-0.029l-0.006-0.03l-0.007-0.03l-0.009-0.03l-0.01-0.031
			l-0.011-0.031l-0.012-0.032l-0.014-0.032l-0.015-0.033l-0.016-0.033l-0.017-0.033l-0.019-0.034l-0.02-0.034l-0.021-0.035
			l-0.022-0.035l-0.023-0.035c-0.403-0.571-0.963-1.017-1.512-1.442c-2.295-1.691-4.913-2.997-7.496-4.188
			c-4.439-1.96-9.11-3.664-13.948-4.261c-2.651-0.323-5.431-0.102-8.08,0.194c-0.47,0.031-1.012,0.107-1.469-0.019l-0.015-0.005
			l-0.014-0.005l-0.014-0.005l-0.014-0.005l-0.013-0.006l-0.013-0.006l-0.013-0.006l-0.012-0.006l-0.012-0.006l-0.012-0.007
			l-0.011-0.007l-0.011-0.007l-0.011-0.007l-0.01-0.008l-0.01-0.008l-0.01-0.008l-0.009-0.008l-0.009-0.008l-0.009-0.009
			l-0.008-0.009l-0.008-0.009l-0.007-0.009l-0.007-0.01l-0.007-0.01l-0.006-0.01l-0.006-0.01l-0.006-0.01l-0.005-0.011l-0.005-0.011
			l-0.005-0.011l-0.004-0.011l-0.004-0.012l-0.004-0.012l-0.003-0.012l-0.003-0.012l-0.002-0.013
			c-0.044-0.313,0.165-0.765,0.255-1.069c0.136-0.438,0.3-0.956,0.052-1.384l-0.015-0.024l-0.016-0.024l-0.017-0.024l-0.018-0.023
			l-0.019-0.023l-0.02-0.022l-0.021-0.022l-0.022-0.022l-0.023-0.021l-0.024-0.021l-0.025-0.021l-0.026-0.02l-0.027-0.02
			l-0.027-0.02l-0.028-0.019l-0.029-0.019l-0.03-0.019l-0.031-0.018l-0.032-0.018l-0.033-0.018l-0.034-0.017l-0.034-0.017
			c-0.832-0.369-1.792-0.394-2.69-0.401c-2.491,0.039-4.972,0.53-7.371,1.178c-3.573,1.007-7.106,2.432-10.098,4.662
			c-2.337,1.733-4.263,4.049-6.044,6.334c-0.199,0.234-0.398,0.495-0.646,0.679l-0.011,0.008l-0.011,0.007l-0.011,0.007
			l-0.011,0.006l-0.01,0.006l-0.01,0.005l-0.01,0.005l-0.01,0.004l-0.01,0.004l-0.01,0.004l-0.009,0.003l-0.009,0.003l-0.009,0.002
			l-0.009,0.002l-0.009,0.001l-0.008,0.001l-0.008,0l-0.008,0l-0.008-0.001l-0.008-0.001l-0.007-0.002l-0.007-0.002l-0.007-0.003
			l-0.007-0.003l-0.007-0.004l-0.007-0.004l-0.006-0.005l-0.006-0.005l-0.006-0.006l-0.006-0.006l-0.006-0.007l-0.005-0.007
			l-0.005-0.008l-0.005-0.008l-0.005-0.009l-0.005-0.009l-0.005-0.01l-0.004-0.01l-0.003-0.007l-0.003-0.008l-0.003-0.008
			c-0.043-0.141-0.046-0.294-0.051-0.44c-0.004-1.045,0.137-2.205-0.016-3.242c-0.063-0.388-0.158-0.804-0.436-1.098l-0.023-0.022
			l-0.023-0.021l-0.024-0.02l-0.024-0.019l-0.025-0.019l-0.026-0.018l-0.026-0.017l-0.027-0.016l-0.027-0.015l-0.028-0.014
			l-0.028-0.013l-0.029-0.012l-0.03-0.011l-0.03-0.011l-0.031-0.01l-0.031-0.009l-0.032-0.008l-0.032-0.007l-0.033-0.006
			l-0.033-0.005l-0.034-0.005l-0.035-0.004l-0.035-0.003l-0.036-0.002l-0.036-0.001l-0.037,0l-0.037,0.001l-0.038,0.001
			l-0.038,0.002l-0.039,0.003l-0.039,0.004l-0.04,0.005l-0.04,0.005c-0.733,0.119-1.4,0.491-2.027,0.872
			c-1.587,1.006-2.999,2.292-4.332,3.609c-2.788,2.808-5.295,5.965-7.371,9.335c-1.942,3.108-3.498,6.971-4.917,10.359
			c-0.242,0.546-0.497,1.117-0.807,1.627c-0.124,0.199-0.259,0.397-0.431,0.557L118,252.04l-0.017,0.015l-0.017,0.014l-0.017,0.013
			l-0.017,0.013l-0.017,0.012l-0.017,0.012l-0.017,0.011l-0.017,0.01l-0.016,0.01l-0.016,0.009l-0.016,0.009l-0.016,0.008
			l-0.016,0.007l-0.016,0.007l-0.016,0.006l-0.016,0.006l-0.016,0.005l-0.016,0.004l-0.016,0.004l-0.016,0.003l-0.016,0.002
			l-0.016,0.002l-0.016,0.001l-0.016,0.001l-0.016,0l-0.016-0.001l-0.016-0.001l-0.016-0.002l-0.016-0.003l-0.016-0.003
			l-0.016-0.004l-0.016-0.005l-0.016-0.005l-0.016-0.006l-0.016-0.007l-0.016-0.007l-0.016-0.008l-0.016-0.009l-0.016-0.009
			l-0.016-0.01l-0.016-0.011l-0.016-0.011l-0.016-0.012l-0.016-0.013c-0.128-0.105-0.228-0.24-0.32-0.376
			c-0.518-0.817-0.935-1.983-1.345-2.863c-0.193-0.414-0.395-0.842-0.662-1.214c-0.102-0.138-0.216-0.275-0.359-0.372l-0.012-0.008
			l-0.012-0.007l-0.012-0.007l-0.012-0.007l-0.012-0.006l-0.012-0.006l-0.012-0.006l-0.012-0.005l-0.012-0.005l-0.012-0.005
			l-0.012-0.004l-0.012-0.004l-0.012-0.004l-0.012-0.003l-0.012-0.003l-0.022-0.005l-0.022-0.004l-0.022-0.003l-0.022-0.001
			l-0.022,0l-0.022,0.001l-0.022,0.002l-0.022,0.003l-0.022,0.005l-0.022,0.006l-0.022,0.007l-0.022,0.008l-0.022,0.009l-0.022,0.01
			l-0.022,0.011l-0.022,0.013l-0.022,0.014l-0.022,0.015l-0.022,0.016l-0.022,0.017l-0.022,0.018l-0.022,0.019l-0.022,0.02
			l-0.022,0.021l-0.022,0.022l-0.022,0.024l-0.022,0.025l-0.022,0.026l-0.022,0.027l-0.022,0.028l-0.022,0.029
			c-0.255,0.345-0.429,0.748-0.584,1.145c-0.321,0.846-0.547,1.752-0.74,2.635c-0.927,4.605-1.212,9.388-0.844,14.071
			c0.205,2.593,0.827,5.157,1.728,7.594c0.244,0.685,0.858,2.207,1.019,2.911c0.035,0.158,0.064,0.324,0.054,0.487l-0.001,0.015
			l-0.001,0.015l-0.002,0.015l-0.002,0.014l-0.002,0.014l-0.002,0.014l-0.003,0.014l-0.003,0.013l-0.003,0.013l-0.004,0.013
			l-0.004,0.012l-0.004,0.012l-0.004,0.012l-0.005,0.012l-0.005,0.011l-0.005,0.011l-0.005,0.011l-0.006,0.01l-0.006,0.01
			l-0.006,0.01l-0.007,0.01l-0.007,0.009l-0.007,0.009l-0.008,0.009l-0.008,0.009l-0.008,0.008l-0.008,0.008l-0.009,0.008
			l-0.009,0.007l-0.009,0.007l-0.01,0.007l-0.01,0.007l-0.01,0.006l-0.011,0.006l-0.011,0.006l-0.011,0.006l-0.012,0.005
			l-0.012,0.005l-0.012,0.005l-0.013,0.004l-0.013,0.004l-0.013,0.004l-0.014,0.004l-0.014,0.003l-0.014,0.003l-0.015,0.003
			l-0.012,0.002c-0.425,0.047-0.94-0.128-1.351-0.239c-1.24-0.359-2.553-0.882-3.857-0.882c-0.312,0.008-0.632,0.056-0.912,0.2
			l-0.031,0.016l-0.03,0.017l-0.03,0.018l-0.029,0.018l-0.029,0.019l-0.028,0.02l-0.028,0.02l-0.027,0.021l-0.027,0.022
			l-0.026,0.022l-0.026,0.023l-0.025,0.024l-0.025,0.024l-0.024,0.025l-0.024,0.026l-0.023,0.026l-0.023,0.027l-0.022,0.028
			l-0.022,0.028l-0.021,0.029l-0.021,0.03l-0.02,0.03l-0.02,0.031l-0.019,0.031l-0.019,0.032l-0.018,0.033l-0.018,0.033
			l-0.018,0.034l-0.017,0.035c-0.322,0.693-0.336,1.484-0.294,2.234c0.129,1.753,0.647,3.466,1.248,5.109
			c1.083,2.883,2.545,5.639,4.306,8.165c1.925,2.803,4.717,5.531,7.111,7.953c0.433,0.455,0.892,0.934,1.256,1.446
			c0.122,0.176,0.24,0.362,0.313,0.565l0.007,0.021l0.007,0.02l0.006,0.02l0.006,0.02l0.005,0.02l0.005,0.019l0.004,0.019
			l0.004,0.019l0.003,0.019l0.002,0.019l0.002,0.018l0.001,0.018l0.001,0.018l0,0.018l0,0.017l-0.001,0.017l-0.001,0.017
			l-0.002,0.017l-0.002,0.016l-0.003,0.016l-0.003,0.016l-0.004,0.016l-0.005,0.015l-0.005,0.015l-0.006,0.015l-0.006,0.015
			l-0.007,0.014l-0.007,0.014l-0.008,0.014l-0.009,0.014l-0.009,0.014l-0.01,0.013l-0.01,0.013l-0.011,0.013l-0.012,0.013
			l-0.012,0.012l-0.013,0.012l-0.013,0.012l-0.014,0.012l-0.015,0.011l-0.015,0.011l-0.016,0.011l-0.012,0.008l-0.012,0.007
			l-0.012,0.007c-0.453,0.241-1.154,0.253-1.665,0.289c-1.208,0.07-2.747,0.009-3.903,0.373c-0.243,0.083-0.485,0.194-0.671,0.374
			l-0.013,0.013l-0.013,0.013l-0.012,0.013l-0.012,0.013l-0.012,0.014l-0.02,0.024l-0.019,0.024l-0.018,0.025l-0.017,0.025
			l-0.016,0.026l-0.015,0.026l-0.014,0.027l-0.013,0.027l-0.013,0.028l-0.012,0.028l-0.011,0.029l-0.01,0.029l-0.009,0.03
			l-0.008,0.03l-0.007,0.031l-0.006,0.031l-0.006,0.032l-0.005,0.032l-0.004,0.032l-0.003,0.033l-0.002,0.033l-0.001,0.034
			l-0.001,0.034l0,0.035l0.001,0.035l0.002,0.035l0.003,0.036l0.003,0.036l0.004,0.037l0.005,0.037l0.006,0.038l0.007,0.038
			c0.132,0.661,0.491,1.255,0.859,1.81c1.382,1.976,3.199,3.642,5.015,5.213c3.033,2.555,6.343,4.871,9.899,6.639
			c1.653,0.853,3.723,1.65,5.37,2.514c0.183,0.107,0.371,0.219,0.519,0.373l0.009,0.01l0.009,0.01l0.009,0.01l0.008,0.01l0.008,0.01
			l0.007,0.01l0.007,0.01l0.007,0.01l0.006,0.01l0.006,0.01l0.005,0.01l0.005,0.01l0.005,0.01l0.004,0.01l0.004,0.01l0.003,0.01
			l0.003,0.01l0.003,0.01l0.002,0.01l0.002,0.01l0.001,0.009l0.001,0.009l0.001,0.009l0,0.009l0,0.009l-0.001,0.009l-0.001,0.009
			l-0.002,0.009l-0.002,0.009l-0.002,0.009l-0.003,0.009l-0.003,0.009l-0.004,0.009l-0.004,0.009l-0.005,0.009l-0.005,0.009
			l-0.006,0.009l-0.006,0.009l-0.006,0.009l-0.007,0.009l-0.007,0.009l-0.008,0.009l-0.008,0.009l-0.009,0.009l-0.009,0.009
			l-0.01,0.009l-0.01,0.009c-0.11,0.09-0.242,0.149-0.372,0.204c-0.919,0.358-2.093,0.589-2.989,1.004
			c-0.34,0.163-0.707,0.351-0.907,0.686l-0.007,0.012l-0.006,0.012l-0.006,0.012l-0.006,0.012l-0.011,0.025l-0.01,0.026
			l-0.009,0.026l-0.008,0.026l-0.007,0.026l-0.006,0.027l-0.005,0.027l-0.004,0.027l-0.003,0.027l-0.002,0.028l-0.001,0.028l0,0.028
			l0.001,0.028l0.002,0.029l0.003,0.029l0.004,0.029l0.005,0.029l0.006,0.03l0.007,0.03l0.008,0.03l0.009,0.03l0.01,0.031
			l0.011,0.031l0.012,0.031l0.013,0.031l0.014,0.032l0.015,0.032l0.016,0.032l0.017,0.032l0.018,0.032l0.019,0.033
			c0.283,0.465,0.695,0.839,1.106,1.19c2.145,1.724,4.692,3.031,7.103,4.343c3.287,1.699,10.769,5.492,13.879,7.277
			c2.528,1.434,8.417,4.938,10.928,6.188c2.42,1.239,5.501,2.48,8.041,3.503"/>
	</g>
	<g id="POLYLINE_79_">
		
			<path fill="none" stroke="#FB8604" stroke-width="2.75" stroke-linecap="round" stroke-linejoin="round" stroke-miterlimit="10" d="
			M434.796,476.368c-11.797-1.669-30.715-3.715-42.546-5.195c-7.096-0.89-17.229-2.822-24.329-4.183
			c-1.382-0.243-3.037-0.491-4.43-0.652c-3.557-0.403-7.964-0.651-11.36-1.749c-3.082-0.955-5.95-2.594-8.718-4.226
			c-8.875-5.501-18.67-11.478-28.13-15.792c-7.557-3.539-15.54-6.402-23.615-8.494c-3.65-0.904-7.407-1.613-11.174-1.706
			c-1.788-0.028-3.632,0.038-5.324,0.672"/>
	</g>
	<g id="POLYLINE_80_">
		
			<path fill="none" stroke="#FB8604" stroke-width="2.75" stroke-linecap="round" stroke-linejoin="round" stroke-miterlimit="10" d="
			M544.036,217.339c-0.719,2.98-1.262,6.139-0.507,9.166c0.325,1.361,0.864,2.677,1.472,3.934c0.648,1.337,1.436,2.7,2.209,3.971
			c1.992,3.158,5.502,8.648,7.436,11.846c1.618,2.524,3.365,5.058,5.627,7.05c1.594,1.393,3.458,2.515,5.491,3.127
			c1.385,0.405,2.905,0.588,4.3,0.135c0.832-0.271,1.568-0.791,2.156-1.433c1.055-1.155,1.712-2.616,2.248-4.069
			c0.984-2.75,1.571-5.66,2.004-8.544c0.713-4.993,0.979-10.106,0.57-15.137c-0.329-4.077-1.203-8.139-2.364-12.057"/>
	</g>
	<g id="POLYLINE_81_">
		
			<path fill="none" stroke="#FB8604" stroke-width="2.75" stroke-linecap="round" stroke-linejoin="round" stroke-miterlimit="10" d="
			M655.138,272.798l-0.046,0.001h-0.046L655,272.798l-0.046-0.002l-0.045-0.003l-0.045-0.004l-0.045-0.005l-0.045-0.006
			l-0.044-0.007l-0.044-0.008l-0.044-0.009l-0.044-0.01l-0.044-0.011l-0.043-0.011l-0.043-0.012l-0.043-0.013l-0.043-0.014
			l-0.043-0.015l-0.042-0.016l-0.042-0.017l-0.042-0.018l-0.042-0.019l-0.041-0.019l-0.041-0.02l-0.041-0.021l-0.041-0.022
			l-0.041-0.023l-0.04-0.024c-0.828-0.51-1.367-1.369-1.79-2.223c-1.022-2.174-1.448-4.596-1.616-6.979
			c-0.084-1.475-0.066-2.984,0.238-4.435c0.122-0.523,0.243-1.083,0.618-1.489c0.458-0.515,1.106-0.816,1.751-1.027
			c1.287-0.405,2.659-0.491,4-0.444c1.092,0.037,2.361,0.199,3.449,0.323c0.556,0.073,1.13,0.152,1.669,0.311
			c0.564,0.162,1.155,0.454,1.402,1.019c0.147,0.321,0.187,0.68,0.188,1.03c-0.01,0.898-0.234,1.796-0.448,2.664
			c-0.401,1.54-0.909,3.091-1.477,4.578c-0.463,1.194-0.985,2.398-1.653,3.494c-0.691,1.11-1.565,2.227-2.71,2.891
			C656.816,272.598,655.972,272.773,655.138,272.798z"/>
	</g>
</g>
<g id="_x32_D_x24_AG-OUTLINE">
	<g id="POLYLINE_130_">
		
			<path fill="none" stroke="#FB8604" stroke-width="3.5" stroke-linecap="round" stroke-linejoin="round" stroke-miterlimit="10" d="
			M211.763,318.011c-2.232-2.048-4.392-4.263-6.262-6.647c-1.554-1.972-2.897-4.144-3.725-6.524
			c-0.767-2.081-1.368-5.176-1.877-7.365c-0.408-1.751-0.907-3.597-1.471-5.303c-1.317-3.994-3.025-7.925-5.129-11.568
			c-1.709-2.943-3.715-5.759-6.128-8.168c-1.595-1.589-3.392-2.999-5.378-4.066c-3.288-1.778-7.047-2.702-10.785-2.639
			c-3.973,0.065-8.06,1.29-11.009,4.037c-3.428,3.167-5.206,7.786-5.676,12.361c-0.273,2.674-0.081,5.417,0.71,7.992
			c0.8,2.64,2.225,5.076,4.033,7.152c2.226,2.556,4.982,4.619,7.833,6.427c4.312,2.706,9.007,4.897,13.73,6.781
			C190.575,314.356,201.076,317.317,211.763,318.011z"/>
	</g>
	<g id="POLYLINE_23_">
		
			<path fill="none" stroke="#FB8604" stroke-width="3.5" stroke-linecap="round" stroke-linejoin="round" stroke-miterlimit="10" d="
			M656.838,272.503c0.866-0.294,1.59-0.889,2.195-1.561c0.877-0.961,1.538-2.103,2.088-3.277c0.718-1.551,1.302-3.198,1.807-4.829
			c0.393-1.355,0.83-2.747,0.904-4.163c0.009-0.36-0.019-0.731-0.152-1.068c-0.175-0.463-0.574-0.771-1.022-0.952
			c-0.852-0.346-1.842-0.419-2.748-0.535c-0.568-0.764-1.328-1.365-2.125-1.876c-1.297-0.826-2.737-1.478-4.148-2.084l-4.757-1.955
			c-1.498-0.641-5.3-2.359-6.777-2.878c-1.528-0.563-3.198-1.044-4.775-1.454c-4.287-1.125-10.319-2.225-14.307-4.066
			c-2.094-0.952-3.988-2.315-5.717-3.823c-1.907-1.667-3.85-3.591-5.577-5.446c-0.266-0.303-0.533-0.623-0.738-0.971
			c-0.418-0.679-0.461-1.5-0.462-2.276l0.014-1.201c-0.006-0.391-0.006-0.794-0.132-1.169c-0.125-0.378-0.358-0.711-0.599-1.023
			c-1.874-2.225-4.035-4.356-6.144-6.359c-1.157-1.054-2.347-2.141-3.732-2.888c-0.551-0.296-1.144-0.52-1.748-0.678
			c-1.538-0.377-3.478-0.661-5.009-1.05c-1.983-0.449-4.52-1.49-6.448-2.173c-2.096-0.739-4.323-1.346-6.497-1.81
			c-7.399-1.512-15.007-2.458-22.568-2.166c-3.185,0.165-6.434,0.398-9.523,1.235c-4.581,1.297-8.694,3.9-12.402,6.831
			c-4.203,3.323-9.396,9.108-13.203,12.934c-2.936,2.974-6.94,6.633-10.072,9.444c-4.677,4.202-13.494,11.372-17.562,15.972
			c-3.112,3.431-7.18,8.839-10.228,12.344c-0.652,0.736-1.354,1.496-2.08,2.156c-0.891,0.804-1.911,1.58-3.132,1.749
			c-0.548,0.083-1.242,0.066-1.794,0.118c-0.499,0.042-0.999,0.134-1.48,0.275c-0.854,0.248-1.667,0.644-2.441,1.079
			c-1.554,0.877-3.136,1.987-4.595,3.02c-4.47,3.146-10.475,8.159-15.425,10.355c-3.262,1.383-7.21,2.946-10.392,4.489
			c-4.356,2.037-12.232,5.937-16.617,7.66c-2.347,0.921-4.806,1.716-7.344,1.815l-2.409,0.081c-2.328,0.134-4.671,0.498-6.898,1.198
			c-2.137,0.647-4.746,2.083-6.758,3.082c-1.614,0.789-3.309,1.486-5.046,1.953c-1.14,0.303-2.322,0.519-3.505,0.521
			c-1.601,0.027-3.305-0.457-4.865-0.777c-0.601-0.114-1.231-0.143-1.826,0.022c-1.303,0.372-2.546,1.259-3.689,1.979
			c-2.037,1.352-6.603,4.501-8.655,5.704c-0.458,0.26-0.946,0.493-1.441,0.673c-1.165,0.426-2.409,0.636-3.636,0.791
			c-3.864,0.451-8.066,0.457-11.959,0.498l-91.805-1.809c-5.084,0.006-10.984,0.04-16.024,0.419
			c-3.217,0.17-18.033,2.061-21.499,2.449c0.482-2.038,1.297-4.095,1.51-6.189c0.451-3.812-1.277-7.534-2.528-11.045
			c-0.193-0.554-0.397-1.141-0.513-1.715c-0.043-0.222-0.077-0.452-0.059-0.679l0.002-0.022l0.002-0.022l0.003-0.021l0.003-0.021
			l0.004-0.02l0.004-0.02l0.004-0.02l0.005-0.019l0.005-0.019l0.005-0.018l0.006-0.018l0.006-0.017l0.007-0.017l0.007-0.016
			l0.007-0.016l0.008-0.016l0.008-0.015l0.009-0.015l0.009-0.014l0.009-0.014l0.01-0.013l0.01-0.013l0.011-0.012l0.011-0.012
			l0.012-0.011l0.012-0.011l0.012-0.01c0.217-0.165,0.545-0.135,0.803-0.116c0.394,0.032,0.819,0.14,1.215,0.096
			c0.073-0.011,0.146-0.03,0.21-0.068l0.005-0.003l0.005-0.003l0.005-0.003l0.005-0.004l0.011-0.009l0.011-0.009l0.011-0.009
			l0.01-0.01l0.01-0.01l0.009-0.011l0.009-0.011l0.008-0.012l0.008-0.012l0.007-0.012l0.007-0.013l0.007-0.013l0.006-0.014
			l0.006-0.014l0.005-0.015l0.005-0.015l0.004-0.015l0.004-0.016l0.004-0.016l0.003-0.017l0.003-0.017l0.002-0.017l0.002-0.018
			l0.002-0.018l0.001-0.019l0.001-0.019l0-0.019v-0.02l0-0.02c-0.029-0.472-0.226-0.923-0.401-1.357
			c-1.374-3.063-3.209-6.167-4.085-9.424c-0.886-3.1-0.678-6.64-0.588-9.837c0.037-1.925-0.007-3.901-0.582-5.754
			c-0.744-2.473-2.582-4.561-4.067-6.621c-0.241-0.362-0.521-0.739-0.619-1.169l-0.003-0.015l-0.002-0.015l-0.002-0.015
			l-0.002-0.014l-0.001-0.014l-0.001-0.014l-0.001-0.014l0-0.014l0-0.014l0-0.013l0.001-0.013l0.001-0.013l0.001-0.013l0.002-0.013
			l0.002-0.012l0.002-0.012l0.003-0.012l0.003-0.012l0.003-0.012l0.004-0.011l0.004-0.011l0.005-0.011l0.005-0.011l0.005-0.011
			l0.006-0.01l0.006-0.01l0.006-0.01l0.007-0.01l0.007-0.01l0.007-0.009l0.004-0.005l0.004-0.005l0.005-0.005l0.005-0.005
			l0.005-0.005l0.005-0.005c0.196-0.176,0.532-0.209,0.784-0.248c0.443-0.062,0.989-0.079,1.4-0.264
			c0.09-0.043,0.175-0.098,0.241-0.173l0.011-0.013l0.01-0.013l0.01-0.013l0.01-0.014l0.009-0.014l0.009-0.014l0.008-0.015
			l0.008-0.015l0.007-0.015l0.007-0.015l0.007-0.016l0.006-0.016l0.006-0.016l0.005-0.017l0.005-0.017l0.005-0.017l0.004-0.017
			l0.004-0.018l0.003-0.018l0.003-0.018l0.002-0.019l0.002-0.019l0.002-0.019l0.001-0.019l0.001-0.02l0-0.02l0-0.02l0-0.02
			l-0.001-0.021c-0.016-0.305-0.128-0.596-0.251-0.873c-0.603-1.264-1.518-2.399-2.368-3.505c-1.444-1.782-4.163-5.083-5.486-6.888
			c-1.275-1.717-4.192-5.775-5.531-7.358c-0.352-0.598-0.679-1.39-1.058-1.971c-0.298-0.465-0.673-0.882-1.093-1.239
			c-0.632-0.54-1.37-0.972-2.093-1.377c-1.827-1.025-4.427-2.142-6.231-3.211c-0.301-0.191-0.618-0.386-0.855-0.657l-0.011-0.014
			l-0.011-0.014l-0.01-0.014l-0.01-0.014l-0.009-0.013l-0.009-0.013l-0.008-0.013l-0.008-0.013l-0.007-0.013l-0.007-0.013
			l-0.006-0.013l-0.006-0.013l-0.005-0.013l-0.004-0.012l-0.004-0.012l-0.003-0.012l-0.003-0.012l-0.002-0.012l-0.002-0.012
			l-0.001-0.012l0-0.012l0-0.011l0.001-0.011l0.001-0.011l0.002-0.011l0.003-0.011l0.003-0.011l0.002-0.005l0.002-0.005l0.002-0.005
			l0.002-0.005l0.002-0.005l0.003-0.005l0.003-0.005l0.003-0.005l0.003-0.005l0.003-0.005l0.003-0.005l0.003-0.005l0.004-0.005
			l0.004-0.005l0.004-0.005l0.004-0.005l0.004-0.005l0.004-0.005l0.004-0.005c0.042-0.046,0.095-0.083,0.148-0.114
			c0.277-0.159,0.752-0.287,1.056-0.394c0.247-0.087,0.501-0.18,0.719-0.327c0.107-0.074,0.208-0.166,0.263-0.285l0.003-0.008
			l0.01-0.024l0.008-0.025l0.007-0.025l0.006-0.026l0.004-0.026l0.003-0.026l0.002-0.027l0-0.027l-0.001-0.028l-0.002-0.028
			l-0.004-0.029l-0.005-0.029l-0.006-0.03l-0.007-0.03l-0.009-0.03l-0.01-0.031l-0.011-0.031l-0.012-0.032l-0.014-0.032
			l-0.015-0.033l-0.016-0.033l-0.017-0.033l-0.019-0.034l-0.02-0.034l-0.021-0.035l-0.022-0.035l-0.023-0.035
			c-0.403-0.571-0.963-1.017-1.512-1.442c-2.295-1.691-4.913-2.997-7.496-4.188c-4.439-1.96-9.11-3.664-13.948-4.261
			c-2.651-0.323-5.431-0.102-8.08,0.194c-0.47,0.031-1.012,0.107-1.469-0.019l-0.015-0.005l-0.014-0.005l-0.014-0.005l-0.014-0.005
			l-0.013-0.006l-0.013-0.006l-0.013-0.006l-0.012-0.006l-0.012-0.006l-0.012-0.007l-0.011-0.007l-0.011-0.007l-0.011-0.007
			l-0.01-0.008l-0.01-0.008l-0.01-0.008l-0.009-0.008l-0.009-0.008l-0.009-0.009l-0.008-0.009l-0.008-0.009l-0.007-0.009
			l-0.007-0.01l-0.007-0.01l-0.006-0.01l-0.006-0.01l-0.006-0.01l-0.005-0.011l-0.005-0.011l-0.005-0.011l-0.004-0.011l-0.004-0.012
			l-0.004-0.012l-0.003-0.012l-0.003-0.012l-0.002-0.013c-0.044-0.313,0.165-0.765,0.255-1.069c0.136-0.438,0.3-0.956,0.052-1.384
			l-0.015-0.024l-0.016-0.024l-0.017-0.024l-0.018-0.023l-0.019-0.023l-0.02-0.022l-0.021-0.022l-0.022-0.022l-0.023-0.021
			l-0.024-0.021l-0.025-0.021l-0.026-0.02l-0.027-0.02l-0.027-0.02l-0.028-0.019l-0.029-0.019l-0.03-0.019l-0.031-0.018
			l-0.032-0.018l-0.033-0.018l-0.034-0.017l-0.034-0.017c-0.832-0.369-1.792-0.394-2.69-0.401c-2.491,0.039-4.972,0.53-7.371,1.178
			c-3.573,1.007-7.106,2.432-10.098,4.662c-2.337,1.733-4.263,4.049-6.044,6.334c-0.199,0.234-0.398,0.495-0.646,0.679l-0.011,0.008
			l-0.011,0.007l-0.011,0.007l-0.011,0.006l-0.01,0.006l-0.01,0.005l-0.01,0.005l-0.01,0.004l-0.01,0.004l-0.01,0.004l-0.009,0.003
			l-0.009,0.003l-0.009,0.002l-0.009,0.002l-0.009,0.001l-0.008,0.001l-0.008,0l-0.008,0l-0.008-0.001l-0.008-0.001l-0.007-0.002
			l-0.007-0.002l-0.007-0.003l-0.007-0.003l-0.007-0.004l-0.007-0.004l-0.006-0.005l-0.006-0.005l-0.006-0.006l-0.006-0.006
			l-0.006-0.007l-0.005-0.007l-0.005-0.008l-0.005-0.008l-0.005-0.009l-0.005-0.009l-0.005-0.01l-0.004-0.01l-0.003-0.007
			l-0.003-0.008l-0.003-0.008c-0.043-0.141-0.046-0.294-0.051-0.44c-0.004-1.045,0.137-2.205-0.016-3.242
			c-0.063-0.388-0.158-0.804-0.436-1.098l-0.023-0.022l-0.023-0.021l-0.024-0.02l-0.024-0.019l-0.025-0.019l-0.026-0.018
			l-0.026-0.017l-0.027-0.016l-0.027-0.015l-0.028-0.014l-0.028-0.013l-0.029-0.012l-0.03-0.011l-0.03-0.011l-0.031-0.01
			l-0.031-0.009l-0.032-0.008l-0.032-0.007l-0.033-0.006l-0.033-0.005l-0.034-0.005l-0.035-0.004l-0.035-0.003l-0.036-0.002
			l-0.036-0.001l-0.037,0l-0.037,0.001l-0.038,0.001l-0.038,0.002l-0.039,0.003l-0.039,0.004l-0.04,0.005l-0.04,0.005
			c-0.733,0.119-1.4,0.491-2.027,0.872c-1.587,1.006-2.999,2.292-4.332,3.609c-2.788,2.808-5.295,5.965-7.371,9.335
			c-1.942,3.108-3.498,6.971-4.917,10.359c-0.242,0.546-0.497,1.117-0.807,1.627c-0.124,0.199-0.259,0.397-0.431,0.557L118,252.04
			l-0.017,0.015l-0.017,0.014l-0.017,0.013l-0.017,0.013l-0.017,0.012l-0.017,0.012l-0.017,0.011l-0.017,0.01l-0.016,0.01
			l-0.016,0.009l-0.016,0.009l-0.016,0.008l-0.016,0.007l-0.016,0.007l-0.016,0.006l-0.016,0.006l-0.016,0.005l-0.016,0.004
			l-0.016,0.004l-0.016,0.003l-0.016,0.002l-0.016,0.002l-0.016,0.001l-0.016,0.001l-0.016,0l-0.016-0.001l-0.016-0.001
			l-0.016-0.002l-0.016-0.003l-0.016-0.003l-0.016-0.004l-0.016-0.005l-0.016-0.005l-0.016-0.006l-0.016-0.007l-0.016-0.007
			l-0.016-0.008l-0.016-0.009l-0.016-0.009l-0.016-0.01l-0.016-0.011l-0.016-0.011l-0.016-0.012l-0.016-0.013
			c-0.128-0.105-0.228-0.24-0.32-0.376c-0.518-0.817-0.935-1.983-1.345-2.863c-0.193-0.414-0.395-0.842-0.662-1.214
			c-0.102-0.138-0.216-0.275-0.359-0.372l-0.012-0.008l-0.012-0.007l-0.012-0.007l-0.012-0.007l-0.012-0.006l-0.012-0.006
			l-0.012-0.006l-0.012-0.005l-0.012-0.005l-0.012-0.005l-0.012-0.004l-0.012-0.004l-0.012-0.004l-0.012-0.003l-0.012-0.003
			l-0.022-0.005l-0.022-0.004l-0.022-0.003l-0.022-0.001l-0.022,0l-0.022,0.001l-0.022,0.002l-0.022,0.003l-0.022,0.005
			l-0.022,0.006l-0.022,0.007l-0.022,0.008l-0.022,0.009l-0.022,0.01l-0.022,0.011l-0.022,0.013l-0.022,0.014l-0.022,0.015
			l-0.022,0.016l-0.022,0.017l-0.022,0.018l-0.022,0.019l-0.022,0.02l-0.022,0.021l-0.022,0.022l-0.022,0.024l-0.022,0.025
			l-0.022,0.026l-0.022,0.027l-0.022,0.028l-0.022,0.029c-0.255,0.345-0.429,0.748-0.584,1.145c-0.321,0.846-0.547,1.752-0.74,2.635
			c-0.927,4.605-1.212,9.388-0.844,14.071c0.205,2.593,0.827,5.157,1.728,7.594c0.244,0.685,0.858,2.207,1.019,2.911
			c0.035,0.158,0.064,0.324,0.054,0.487l-0.001,0.015l-0.001,0.015l-0.002,0.015l-0.002,0.014l-0.002,0.014l-0.002,0.014
			l-0.003,0.014l-0.003,0.013l-0.003,0.013l-0.004,0.013l-0.004,0.012l-0.004,0.012l-0.004,0.012l-0.005,0.012l-0.005,0.011
			l-0.005,0.011l-0.005,0.011l-0.006,0.01l-0.006,0.01l-0.006,0.01l-0.007,0.01l-0.007,0.009l-0.007,0.009l-0.008,0.009
			l-0.008,0.009l-0.008,0.008l-0.008,0.008l-0.009,0.008l-0.009,0.007l-0.009,0.007l-0.01,0.007l-0.01,0.007l-0.01,0.006
			l-0.011,0.006l-0.011,0.006l-0.011,0.006l-0.012,0.005l-0.012,0.005l-0.012,0.005l-0.013,0.004l-0.013,0.004l-0.013,0.004
			l-0.014,0.004l-0.014,0.003l-0.014,0.003l-0.015,0.003l-0.012,0.002c-0.425,0.047-0.94-0.128-1.351-0.239
			c-1.24-0.359-2.553-0.882-3.857-0.882c-0.312,0.008-0.632,0.056-0.912,0.2l-0.031,0.016l-0.03,0.017l-0.03,0.018l-0.029,0.018
			l-0.029,0.019l-0.028,0.02l-0.028,0.02l-0.027,0.021l-0.027,0.022l-0.026,0.022l-0.026,0.023l-0.025,0.024l-0.025,0.024
			l-0.024,0.025l-0.024,0.026l-0.023,0.026l-0.023,0.027l-0.022,0.028l-0.022,0.028l-0.021,0.029l-0.021,0.03l-0.02,0.03
			l-0.02,0.031l-0.019,0.031l-0.019,0.032l-0.018,0.033l-0.018,0.033l-0.018,0.034l-0.017,0.035
			c-0.322,0.693-0.336,1.484-0.294,2.234c0.129,1.753,0.647,3.466,1.248,5.109c1.083,2.883,2.545,5.639,4.306,8.165
			c1.925,2.803,4.717,5.531,7.111,7.953c0.433,0.455,0.892,0.934,1.256,1.446c0.122,0.176,0.24,0.362,0.313,0.565l0.007,0.021
			l0.007,0.02l0.006,0.02l0.006,0.02l0.005,0.02l0.005,0.019l0.004,0.019l0.004,0.019l0.003,0.019l0.002,0.019l0.002,0.018
			l0.001,0.018l0.001,0.018l0,0.018l0,0.017l-0.001,0.017l-0.001,0.017l-0.002,0.017l-0.002,0.016l-0.003,0.016l-0.003,0.016
			l-0.004,0.016l-0.005,0.015l-0.005,0.015l-0.006,0.015l-0.006,0.015l-0.007,0.014l-0.007,0.014l-0.008,0.014l-0.009,0.014
			l-0.009,0.014l-0.01,0.013l-0.01,0.013l-0.011,0.013l-0.012,0.013l-0.012,0.012l-0.013,0.012l-0.013,0.012l-0.014,0.012
			l-0.015,0.011l-0.015,0.011l-0.016,0.011l-0.012,0.008l-0.012,0.007l-0.012,0.007c-0.453,0.241-1.154,0.253-1.665,0.289
			c-1.208,0.07-2.747,0.009-3.903,0.373c-0.243,0.083-0.485,0.194-0.671,0.374l-0.013,0.013l-0.013,0.013l-0.012,0.013l-0.012,0.013
			l-0.012,0.014l-0.02,0.024l-0.019,0.024l-0.018,0.025l-0.017,0.025l-0.016,0.026l-0.015,0.026l-0.014,0.027l-0.013,0.027
			l-0.013,0.028l-0.012,0.028l-0.011,0.029l-0.01,0.029l-0.009,0.03l-0.008,0.03l-0.007,0.031l-0.006,0.031l-0.006,0.032
			l-0.005,0.032l-0.004,0.032l-0.003,0.033l-0.002,0.033l-0.001,0.034l-0.001,0.034l0,0.035l0.001,0.035l0.002,0.035l0.003,0.036
			l0.003,0.036l0.004,0.037l0.005,0.037l0.006,0.038l0.007,0.038c0.132,0.661,0.491,1.255,0.859,1.81
			c1.382,1.976,3.199,3.642,5.015,5.213c3.033,2.555,6.343,4.871,9.899,6.639c1.653,0.853,3.723,1.65,5.37,2.514
			c0.183,0.107,0.371,0.219,0.519,0.373l0.009,0.01l0.009,0.01l0.009,0.01l0.008,0.01l0.008,0.01l0.007,0.01l0.007,0.01l0.007,0.01
			l0.006,0.01l0.006,0.01l0.005,0.01l0.005,0.01l0.005,0.01l0.004,0.01l0.004,0.01l0.003,0.01l0.003,0.01l0.003,0.01l0.002,0.01
			l0.002,0.01l0.001,0.009l0.001,0.009l0.001,0.009l0,0.009l0,0.009l-0.001,0.009l-0.001,0.009l-0.002,0.009l-0.002,0.009
			l-0.002,0.009l-0.003,0.009l-0.003,0.009l-0.004,0.009l-0.004,0.009l-0.005,0.009l-0.005,0.009l-0.006,0.009l-0.006,0.009
			l-0.006,0.009l-0.007,0.009l-0.007,0.009l-0.008,0.009l-0.008,0.009l-0.009,0.009l-0.009,0.009l-0.01,0.009l-0.01,0.009
			c-0.11,0.09-0.242,0.149-0.372,0.204c-0.919,0.358-2.093,0.589-2.989,1.004c-0.34,0.163-0.707,0.351-0.907,0.686l-0.007,0.012
			l-0.006,0.012l-0.006,0.012l-0.006,0.012l-0.011,0.025l-0.01,0.026l-0.009,0.026l-0.008,0.026l-0.007,0.026l-0.006,0.027
			l-0.005,0.027l-0.004,0.027l-0.003,0.027l-0.002,0.028l-0.001,0.028l0,0.028l0.001,0.028l0.002,0.029l0.003,0.029l0.004,0.029
			l0.005,0.029l0.006,0.03l0.007,0.03l0.008,0.03l0.009,0.03l0.01,0.031l0.011,0.031l0.012,0.031l0.013,0.031l0.014,0.032
			l0.015,0.032l0.016,0.032l0.017,0.032l0.018,0.032l0.019,0.033c0.283,0.465,0.695,0.839,1.106,1.19
			c2.145,1.724,4.692,3.031,7.103,4.343c3.287,1.699,10.769,5.492,13.879,7.277c2.528,1.434,8.417,4.938,10.928,6.188
			c2.42,1.239,5.501,2.48,8.041,3.503c-3.027,2.866-6.537,6.336-9.376,9.327c-1.717,1.869-3.403,3.797-4.688,5.989
			c-2.349,3.972-3.924,8.409-5.313,12.794c-1.286,4.288-2.636,8.677-3.312,13.097c-0.802,5.115-0.781,10.379-0.337,15.528
			c0.366,4.249,1.095,8.936,1.819,13.153c2.869,16.082,7.906,38.176,10.039,54.233c1.096,8.024,2.019,16.329,2.106,24.43
			c0.042,6.103-0.472,12.379-2.91,18.041c-1.185,2.779-2.803,5.449-4.417,7.999c-2.882,4.501-6.245,8.789-9.994,12.601
			c-3.371,3.461-8.057,7.44-11.541,10.801c-0.772,0.766-1.551,1.575-2.208,2.443c-0.682,0.892-1.231,1.893-1.58,2.961
			c-0.354,1.05-0.55,2.183-0.728,3.275c-0.339,2.141-0.602,4.664-0.827,6.825c-0.367,4.719-1.191,11.215-1.093,15.912
			c0.075,1.63,0.239,3.35,1.11,4.77c0.46,0.744,1.141,1.338,1.919,1.731c1.013,0.517,2.149,0.743,3.268,0.895
			c1.374,0.187,2.855,0.235,4.243,0.279c3.475,0.078,27.599,0.034,30.873,0.035c0.69-0.033,1.467-0.006,2.151-0.117
			c0.242-0.039,0.49-0.088,0.707-0.206c0.327-0.171,0.476-0.53,0.568-0.868c0.183-0.709,0.184-1.467,0.19-2.195
			c-0.023-1.216-0.012-2.485-0.209-3.686c-0.164-0.999-0.507-1.996-1.151-2.791c-0.524-0.648-1.214-1.143-1.929-1.56
			c-1.731-1.018-3.905-1.617-5.733-2.435c-0.628-0.298-1.237-0.691-1.647-1.264c-0.691-0.969-0.775-2.227-0.692-3.379
			c0.293-3.256,2.02-6.184,3.997-8.712c5.033-6.45,12.81-11.505,19.35-16.339c4.204-3.091,8.671-7.021,12.567-10.529
			c7.638-6.958,16.596-15.036,23.309-22.787c7.897-8.812,15.863-21.471,22.971-30.974c4.175-5.645,11.622-13.107,16.493-18.276
			c1.196-1.266,2.626-2.817,3.702-4.183c4.52-5.688,7.689-12.355,10.496-19.017c1.588-0.598,3.317-0.687,4.998-0.678
			c3.443,0.047,6.878,0.633,10.226,1.403c9.232,2.244,18.313,5.603,26.864,9.735c8.677,4.087,17.964,9.797,26.155,14.859
			c2.769,1.632,5.635,3.271,8.718,4.226c3.385,1.096,7.818,1.348,11.36,1.749c1.393,0.161,3.048,0.409,4.43,0.652
			c7.133,1.367,17.203,3.288,24.329,4.183c11.831,1.481,30.75,3.526,42.546,5.195c1.382,30.837,4.878,62.143,11.071,92.386
			c0.453,2.047,0.949,4.203,1.602,6.193c0.409,1.233,0.885,2.47,1.543,3.593c0.58,0.996,1.336,1.905,2.274,2.582
			c1.131,0.823,2.467,1.321,3.803,1.704c2.112,0.592,4.339,0.896,6.519,1.11c4.351,0.437,9.849,0.412,14.258,0.434
			c4.799-0.048,10.67,0.107,15.426-0.352c0.699-0.083,1.423-0.183,2.096-0.395c0.526-0.167,1.067-0.423,1.37-0.905
			c0.196-0.309,0.275-0.676,0.315-1.036c0.066-0.643,0.057-1.638,0.076-2.293c0.003-1.791-0.096-3.674-0.929-5.296
			c-0.349-0.672-0.853-1.258-1.434-1.741c-1.774-1.443-4.058-2.069-6.272-2.46c-2.111-0.391-4.83-0.469-6.902-1.037
			c-0.738-0.209-1.455-0.547-2.016-1.078c-0.776-0.726-1.249-1.711-1.616-2.694c-0.374-1.008-0.651-2.114-0.896-3.163
			c-0.816-3.494-2.01-11.495-2.627-15.135c-0.846-5.349-1.467-10.893-1.396-16.31c0.034-4.703,0.583-9.459,1.502-14.069
			c1.688-8.482,4.41-16.895,7.366-25.014c3.757-10.084,7.968-20.465,12.998-29.981c1.796-3.337,3.76-6.732,6.093-9.727
			c1.824-2.37,3.96-4.524,6.203-6.498c7.351-6.171,15.14-13.151,21.699-20.11c3.202-3.415,6.449-6.971,8.978-10.922
			c0.933-1.471,1.766-3.029,2.398-4.654c1.896-4.764,1.886-11.045,2.394-16.112c0.5-6.012,1.954-11.96,4.059-17.606
			c1.868-5.04,4.186-10.012,6.913-14.646c5.612-9.707,14.91-19.983,22.027-28.702c2.124-2.659,4.279-5.425,5.889-8.432
			c0.866-1.616,1.549-3.353,2.061-5.112l1.233-4.457c2.009-6.613,5.192-12.993,8.323-19.14c3.302-0.12,8.629-0.594,11.902-0.537
			c2.849,0.011,6.212,0.457,9.055,0.803c12.387,1.391,24.746-1.832,34.363-9.891c1.331-1.114,2.619-2.328,3.791-3.608
			c1.037-1.097,2.285-2.784,3.217-3.988C654.853,276.371,655.989,274.492,656.838,272.503z"/>
	</g>
</g>
</svg>
