<?xml version="1.0" encoding="utf-8"?>
<!-- Generator: Adobe Illustrator 25.3.1, SVG Export Plug-In . SVG Version: 6.00 Build 0)  -->
<!DOCTYPE svg PUBLIC "-//W3C//DTD SVG 1.1//EN" "http://www.w3.org/Graphics/SVG/1.1/DTD/svg11.dtd" [
	<!ENTITY ns_extend "http://ns.adobe.com/Extensibility/1.0/">
	<!ENTITY ns_ai "http://ns.adobe.com/AdobeIllustrator/10.0/">
	<!ENTITY ns_graphs "http://ns.adobe.com/Graphs/1.0/">
	<!ENTITY ns_vars "http://ns.adobe.com/Variables/1.0/">
	<!ENTITY ns_imrep "http://ns.adobe.com/ImageReplacement/1.0/">
	<!ENTITY ns_sfw "http://ns.adobe.com/SaveForWeb/1.0/">
	<!ENTITY ns_custom "http://ns.adobe.com/GenericCustomNamespace/1.0/">
	<!ENTITY ns_adobe_xpath "http://ns.adobe.com/XPath/1.0/">
]>
<svg version="1.1" xmlns:x="&ns_extend;" xmlns:i="&ns_ai;" xmlns:graph="&ns_graphs;"
	 xmlns="http://www.w3.org/2000/svg" xmlns:xlink="http://www.w3.org/1999/xlink" x="0px" y="0px" width="750px" height="750px"
	 viewBox="0 0 750 750" enable-background="new 0 0 750 750" xml:space="preserve">
<metadata>
	<sfw  xmlns="&ns_sfw;">
		<slices></slices>
		<sliceSourceBounds  bottomLeftOrigin="true" height="10380.179" width="6859.54" x="-3380.54" y="-1314"></sliceSourceBounds>
	</sfw>
</metadata>
<g id="FILL-BACKGROUND">
	<rect fill="#FFFFFF" width="750" height="750"/>
</g>
<g id="N-DIMENSIONS">
</g>
<g id="N-TEXT">
</g>
<g id="_x32_D_x24_AG-DIAGRAM">
	<g id="POLYLINE_690_">
		<g>
			<g>
				
					<line fill="none" stroke="#FB8604" stroke-width="3.25" stroke-linecap="round" stroke-linejoin="round" x1="142.025" y1="607.837" x2="144.025" y2="607.837"/>
				
					<line fill="none" stroke="#FB8604" stroke-width="3.25" stroke-linecap="round" stroke-linejoin="round" stroke-dasharray="4.0168,7.0294" x1="151.054" y1="607.837" x2="545.2" y2="607.837"/>
				
					<line fill="none" stroke="#FB8604" stroke-width="3.25" stroke-linecap="round" stroke-linejoin="round" x1="548.715" y1="607.837" x2="550.715" y2="607.837"/>
			</g>
		</g>
	</g>
</g>
<g id="_x32_D_x24_AG-DETAILS-DIAGRAM">
</g>
<g id="_x32_D_x24_AG-DETAILS">
</g>
<g id="_x32_D_x24_AG-ANIMALS">
	<g id="POLYLINE_99_">
		
			<path fill="none" stroke="#FB8604" stroke-width="2.75" stroke-linecap="round" stroke-linejoin="round" stroke-miterlimit="10" d="
			M274.584,420.633c-3.634,4.841-7.274,9.993-10.379,15.186c-2.102,3.546-4.066,7.23-5.514,11.091
			c-0.931,2.486-1.632,5.086-1.941,7.725c-0.213,1.779-0.259,3.868-0.402,5.661c-0.158,1.956-0.448,3.93-0.955,5.826
			c-1.161,4.333-3.265,8.457-5.3,12.439c-4.967,9.501-11.238,20.18-16.815,29.382c-3.053,4.968-6.395,10.235-9.888,14.888
			c-5.426,7.313-12.314,13.924-17.42,21.481c-3.241,4.752-5.763,10.005-7.703,15.413c-1.731,4.871-3.055,9.936-3.655,15.076
			c-0.438,3.935-0.499,7.985,0.376,11.866c0.524,2.271,1.461,4.526,3.135,6.192c1.619,1.679,3.812,2.342,5.958,3.067
			c1.304,0.475,2.743,0.922,3.696,1.986c0.623,0.705,0.857,1.663,0.906,2.583c0.067,1.488-0.149,2.988-0.506,4.43
			c-0.147,0.555-0.32,1.124-0.576,1.639c-0.136,0.27-0.303,0.531-0.535,0.728c-0.195,0.168-0.434,0.283-0.681,0.355
			c-0.423,0.124-0.873,0.148-1.31,0.171c-0.275,0.034-0.565-0.002-0.83,0.018c0,0-11.559,0.003-11.559,0.003"/>
	</g>
	<g id="POLYLINE_98_">
		
			<path fill="none" stroke="#FB8604" stroke-width="2.75" stroke-linecap="round" stroke-linejoin="round" stroke-miterlimit="10" d="
			M464.414,243.786c-5.805,16.024-13.392,38.482-20.247,53.804c-1.767,3.828-3.739,7.644-6.234,11.053
			c-1.378,1.877-2.973,3.618-4.795,5.074c-2.154,1.738-4.629,3.089-7.132,4.255c-5.086,2.356-10.94,4.351-16.262,6.164
			c-6.492,2.132-14.183,4.528-20.77,6.328c-3.655,0.96-7.407,1.813-11.196,1.902c-1.566,0.043-3.17-0.06-4.723-0.272
			c-4.721-0.709-10.9-2.199-15.612-2.826c-8.253-1.214-16.922-1.638-25.259-1.838c-10.99-0.231-22.674-0.027-33.646,0.6
			c-23.473,1.255-46.912,5.481-69.337,12.536c-4.88,1.452-16.603,5.564-21.505,6.551c-1.339,0.253-2.723,0.372-4.083,0.236
			c-1.785-0.17-3.516-0.744-5.182-1.383c-4.666-1.835-9.244-4.203-13.593-6.692c-6.812-3.961-13.442-8.539-18.73-14.434
			c-4.14-4.576-7.34-9.991-9.569-15.735c-1.952-5.002-3.313-10.282-4.018-15.606c-0.804-6.065-0.677-12.328,0.893-18.263
			c1.612-6.247,4.777-12.008,8.536-17.214c4.873-6.766,10.818-12.825,17.119-18.268l7.134-6.065c1.51-1.352,3.32-2.89,4.314-4.658
			c0.152-0.3,0.287-0.622,0.289-0.963c0-0.171-0.045-0.344-0.152-0.48c-0.084-0.11-0.212-0.183-0.348-0.208
			c-0.493-0.083-1.094,0.197-1.539,0.394c-2.359,1.168-4.555,2.824-6.695,4.35c-4.505,3.314-8.929,6.969-13.012,10.792
			c-7.895,7.477-14.879,16.121-20.012,25.728c-2.064,3.91-3.742,8.087-5.002,12.325c-0.762,2.573-1.453,5.242-1.82,7.902
			c-0.837,5.657-0.032,11.449,1.646,16.881c4.775,15.441,15.962,27.858,27.306,38.942c3.313,3.33,9.531,8.741,12.958,12.003
			c0.633,0.592,1.299,1.281,1.863,1.942c0.45,0.543,0.896,1.124,1.13,1.797c0.278,0.787,0.242,1.65,0.107,2.462
			c-0.303,1.716-0.958,3.369-1.604,4.98c-3.167,7.43-8.576,18.051-11.184,25.665c-0.831,2.429-1.525,4.969-1.845,7.521
			c-0.335,2.589-0.266,5.233,0.083,7.817c0.297,2.278,0.819,4.617,1.359,6.847c1.968,8.291,8.003,26.342,10.525,34.589
			c1.296,4.25,2.393,8.64,2.895,13.059c0.779,6.662,0.564,13.573,0.277,20.265c-0.419,8.522-1.196,18.044-2.132,26.522
			c-0.534,4.543-1.122,9.609-2.083,14.067c-0.503,2.346-1.177,4.701-2.052,6.936c-1.523,3.952-6.002,12.988-7.812,16.916
			c-1.083,2.395-2.193,4.882-2.958,7.397c-0.455,1.512-0.786,3.086-0.798,4.67c-0.041,2.938,1.137,5.96,1.925,8.759
			c1.113,3.649,1.563,7.518,1.762,11.318c0.384,7.197,0.384,15.658,2.43,22.575c0.356,1.198,0.744,2.42,1.324,3.53
			c0.277,0.531,0.657,1.063,1.246,1.266c0.365,0.135,0.759,0.176,1.145,0.202c1.951,0.065,12.795,0.028,14.657,0.019
			c0.942-0.036,1.936-0.053,2.805-0.461c0.345-0.167,0.649-0.421,0.862-0.74c0.286-0.423,0.425-0.927,0.507-1.425
			c0.228-1.551,0.039-3.15-0.369-4.656c-0.283-0.978-0.673-1.961-1.346-2.739c-0.565-0.656-1.328-1.103-2.107-1.462
			c-0.919-0.428-2.044-0.858-2.816-1.539c-0.668-0.569-1.17-1.312-1.568-2.088c-1.022-2.039-1.494-4.329-1.909-6.557
			c-0.673-3.803-1.001-7.705-0.829-11.566c0.317-9.396,3.93-18.295,7.803-26.733c8.835-18.88,23.514-45.057,30.981-64.392
			c5.549-13.814,9.903-29.744,18.086-42.297c2.831-4.352,6.188-8.434,10.197-11.751c3.479-2.892,7.479-5.176,11.736-6.707
			c7.072-2.559,14.735-3.102,22.193-2.565c9.768,0.738,19.491,3.113,28.879,5.837c16.285,4.649,33.586,12.172,49.202,18.841
			c9.133,3.776,18.621,7.734,28.39,9.47c14.134,2.451,28.653,0.475,42.635-2.08"/>
	</g>
	<g id="POLYLINE_97_">
		
			<path fill="none" stroke="#FB8604" stroke-width="2.75" stroke-linecap="round" stroke-linejoin="round" stroke-miterlimit="10" d="
			M518.498,365.405c0.234,14.43,0.58,30.378-0.64,44.697c-0.425,4.634-1.036,9.361-2.3,13.847c-0.922,3.253-2.178,6.457-3.764,9.443
			c-1.761,3.342-4.24,6.946-5.848,10.365c-3.927,8.264-5.963,17.36-6.521,26.469c-0.465,8.438-1.007,18.552-2.197,26.82
			c-2.105,16.168-6.509,38.625-8.079,54.769c-0.542,5.838-0.657,11.81,0.078,17.636c0.604,4.779,1.561,9.569,2.927,14.19
			c0.526,1.679,1.052,3.429,2.062,4.89c0.566,0.817,1.337,1.476,2.201,1.962c2.096,1.213,4.719,1.798,6.43,3.601
			c2.403,2.533,1.96,6.355,1.457,9.527c-0.196,1.039-0.388,2.126-0.765,3.116c-0.084,0.202-0.185,0.403-0.331,0.567
			c-0.136,0.155-0.319,0.262-0.515,0.321c-0.271,0.083-0.56,0.114-0.842,0.134c-1.508,0.097-13.84,0.064-15.633,0.077"/>
	</g>
	<g id="POLYLINE_96_">
		
			<path fill="none" stroke="#FB8604" stroke-width="2.75" stroke-linecap="round" stroke-linejoin="round" stroke-miterlimit="10" d="
			M591.305,230.37c-1.462,4.096-3.123,8.204-5.449,11.893c-1.136,1.831-2.451,3.583-4.018,5.068
			c-4.547,4.264-10.548,6.586-16.217,8.958l-17.203,6.626c-3.433,1.39-6.997,2.873-9.688,5.495
			c-1.774,1.714-3.037,3.899-3.879,6.205c-0.968,2.647-1.523,5.478-1.978,8.255c-0.97,5.952-2.025,18.377-2.68,24.514
			c-0.735,6.813-1.736,14.707-2.864,21.451c-1.731,10.458-4.118,21.192-7.182,31.344c-4.429,14.617-10.54,29.27-16.763,43.216
			c-4.072,8.995-23.391,49.789-26.513,58.035c-0.744,1.987-1.364,4.041-1.751,6.126c-0.531,2.802-0.724,5.74-0.846,8.588
			c-0.49,24.87,0.058,60.84,0.541,85.753c0.177,4.808,0.325,10.531,0.949,15.279c0.292,2.148,0.677,4.335,1.468,6.362
			c0.482,1.235,1.151,2.405,2.025,3.405c1.133,1.314,2.567,2.341,4.036,3.248c1.996,1.24,4.612,2.523,6.18,4.3
			c1.669,1.895,2.453,4.421,2.687,6.899c0.115,1.372,0.096,2.784-0.254,4.123c-0.153,0.555-0.395,1.112-0.827,1.506
			c-0.374,0.346-0.866,0.533-1.359,0.635c-0.546,0.115-1.123,0.145-1.679,0.165c-1.645,0.045-15.246,0.004-16.613,0.011
			c-1.175-0.026-2.399-0.032-3.533-0.375c-0.781-0.242-1.517-0.652-2.123-1.201c-0.646-0.596-1.108-1.364-1.491-2.147
			c-0.787-1.639-1.3-3.437-1.764-5.191c-1.021-3.98-1.756-8.363-2.416-12.423c-3.471-23.22-7.164-51.901-11.646-74.838
			c-1.528-8.035-3.507-17.71-5.366-25.67c-1.037-4.346-2.176-8.999-3.632-13.227c-0.682-1.974-1.513-3.946-2.74-5.649
			c-0.43-0.655-0.773-1.378-0.919-2.152c-0.315-1.7,0.043-3.451,0.356-5.126c1.08-5.29,2.558-11.013,2.513-16.418
			c-0.021-3.891-0.767-7.782-1.83-11.514c-0.725-2.503-1.559-5.049-2.643-7.421c-3.71-8.196-10.565-14.464-17.746-19.649
			c-9.835-7.021-20.906-12.532-31.909-17.472"/>
	</g>
	<g id="POLYLINE_95_">
		
			<path fill="none" stroke="#FB8604" stroke-width="2.75" stroke-linecap="round" stroke-linejoin="round" stroke-miterlimit="10" d="
			M492.436,250.421c-2.889,2.603-5.953,5.175-9.515,6.801c-1.336,0.588-2.777,1.028-4.249,1.01
			c-1.073-0.009-2.143-0.305-3.059-0.866c-1.082-0.653-1.944-1.613-2.69-2.621c-0.91-1.254-1.928-2.882-2.838-4.136
			c-1.469-2.069-3.102-4.097-4.839-5.947c-2.376-2.54-5.475-5.271-6.821-8.53c-0.962-2.296-1.228-5.012-1.614-7.46
			c-1.273-8.868-6.451-43.142-7.455-51.399c-0.171-1.651-0.404-3.487-0.429-5.146c-0.001-0.616-0.012-1.255,0.158-1.852
			c0.047-0.154,0.114-0.306,0.22-0.428c0.128-0.149,0.317-0.225,0.508-0.251c0.38-0.057,0.764,0.041,1.113,0.188
			c0.639,0.276,1.204,0.704,1.734,1.15c1.874,1.632,3.459,3.651,4.973,5.613c2.661,3.526,5.127,7.315,7.206,11.215
			c1.456,2.724,2.994,5.846,4.954,8.23c1.565,1.957,3.476,3.642,5.582,4.996c3.106,1.914,6.386,3.688,9.84,4.883
			c2.918,1.01,5.96,1.387,9.007,0.766c2.915-0.592,6.448-1.809,9.341-2.533c5.043-1.32,10.246-2.433,15.461-2.722
			c9.151-0.464,18.545,1.984,26.049,7.302c2.1,1.455,4.746,3.598,7.241,4.346c1.676,0.536,3.455,0.693,5.206,0.723
			c3.425,0.045,7.025-0.39,10.426-0.769l12.203-1.608"/>
	</g>
	<g id="POLYLINE_94_">
		
			<path fill="none" stroke="#FB8604" stroke-width="2.75" stroke-linecap="round" stroke-linejoin="round" stroke-miterlimit="10" d="
			M580.152,211.377c-1.115,0.745-2.01,1.821-2.504,3.07c-0.571,1.415-0.66,2.985-0.477,4.487c0.593,4.5,3.332,8.885,7.484,10.881
			c1.512,0.71,3.202,1.139,4.879,1.001c0.867-0.076,1.738-0.327,2.451-0.837c0.709-0.504,1.21-1.249,1.564-2.034
			c1.208-2.756,1.337-7.144,1.763-10.117c0.176-1.854,0.413-3.849-0.349-5.606c-0.791-1.821-2.817-2.505-4.642-2.778
			c-1.983-0.285-4.025-0.163-5.98,0.258C582.872,210.03,581.41,210.534,580.152,211.377z"/>
	</g>
	<g id="POLYLINE_93_">
		
			<path fill="none" stroke="#FB8604" stroke-width="2.75" stroke-linecap="round" stroke-linejoin="round" stroke-miterlimit="10" d="
			M482.231,204.687c1.922-6.109,3.874-12.632,5.27-18.877c0.739-3.344,1.339-6.779,1.568-10.198
			c0.336-5.013,0.158-10.16-0.392-15.156c-0.022-0.382-0.119-1.045,0.012-1.387l0.003-0.005l0.003-0.005l0.003-0.005l0.003-0.005
			l0.003-0.005l0.003-0.005l0.003-0.005l0.003-0.004l0.003-0.004l0.003-0.004l0.003-0.004l0.003-0.004l0.003-0.004l0.003-0.004
			l0.003-0.003l0.003-0.003l0.003-0.003l0.004-0.003l0.004-0.003l0.004-0.003l0.004-0.003l0.004-0.003l0.004-0.002l0.004-0.002
			l0.004-0.002l0.004-0.002l0.004-0.002l0.004-0.002l0.004-0.002l0.004-0.002l0.004-0.001l0.004-0.001l0.004-0.001l0.004-0.001
			l0.005-0.001l0.005-0.001l0.005-0.001l0.005,0l0.005,0l0.005,0l0.005,0l0.005,0l0.005,0l0.005,0l0.005,0l0.005,0.001l0.005,0.001
			l0.005,0.001l0.005,0.001l0.005,0.001l0.006,0.001l0.006,0.001l0.006,0.002l0.006,0.002c0.188,0.066,0.338,0.211,0.481,0.345
			c0.847,0.878,1.469,1.965,2.089,3.008c7.05,12.768,11.277,27.006,14.743,41.11"/>
	</g>
</g>
<g id="_x32_D_x24_AG-OUTLINE">
	<g id="POLYLINE_20_">
		
			<path fill="none" stroke="#FB8604" stroke-width="3.5" stroke-linecap="round" stroke-linejoin="round" stroke-miterlimit="10" d="
			M518.498,365.405c0.234,14.43,0.58,30.378-0.64,44.697c-0.425,4.634-1.036,9.361-2.3,13.847c-0.922,3.253-2.178,6.457-3.764,9.443
			c-1.761,3.342-4.24,6.946-5.848,10.365c-3.927,8.264-5.963,17.36-6.521,26.469c-0.465,8.438-1.007,18.552-2.197,26.82
			c-2.105,16.168-6.509,38.625-8.079,54.769c-0.542,5.838-0.657,11.81,0.078,17.636c0.573,4.557,1.479,9.128,2.737,13.546
			c0.556,1.835,1.09,3.754,2.143,5.376c0.492,0.747,1.143,1.387,1.897,1.869c2.052,1.32,4.675,1.861,6.51,3.526
			c2.636,2.366,2.347,6.206,1.865,9.401c-0.199,1.16-0.409,2.364-0.803,3.476c-0.086,0.22-0.186,0.44-0.336,0.624
			c-0.133,0.165-0.316,0.285-0.518,0.349c-0.266,0.087-0.55,0.119-0.828,0.141c-1.336,0.096-11.763,0.048-13.335,0.059l-0.518,0.011
			c-2.382,0.015-15.807,0.034-17.86-0.032c-0.594-0.034-1.201-0.081-1.782-0.209c-0.936-0.198-1.825-0.635-2.549-1.262
			c-0.549-0.483-0.97-1.095-1.32-1.733c-0.631-1.164-1.074-2.447-1.464-3.71c-1.874-6.403-2.826-13.64-3.862-20.243
			c-4.543-32.375-9.431-67.671-17.256-99.319c-0.811-3.124-1.723-6.532-2.855-9.559c-0.599-1.631-1.365-3.235-2.378-4.652
			c-0.666-0.989-1.024-2.081-1.038-3.276c-0.05-2.689,1.298-7.547,1.785-10.222l0.268-1.397c-15.096,2.76-30.882,4.85-46.034,1.395
			c-13.276-3.122-28.144-10.288-40.8-15.508c-11.808-4.955-24.26-9.599-36.592-13.037c-12.848-3.47-26.386-6.483-39.721-4.433
			c-4.656,6.223-9.236,12.742-12.87,19.619c-2.124,4.073-3.98,8.382-4.755,12.934c-0.554,3.173-0.401,6.511-0.901,9.691
			c-0.446,3.142-1.489,6.191-2.764,9.087c-5.601,12.111-13.166,24.501-20.016,35.979c-3.053,4.968-6.395,10.234-9.888,14.887
			c-2.86,3.84-6.699,8.21-9.871,11.848c-4.185,4.854-8.249,10.001-11.188,15.716c-2.256,4.324-4.07,8.916-5.452,13.591
			c-1.241,4.226-2.156,8.594-2.467,12.993c-0.233,3.536-0.136,7.164,0.812,10.597c0.585,2.086,1.591,4.113,3.215,5.583
			c1.545,1.46,3.675,2.095,5.643,2.766c1.312,0.479,2.765,0.928,3.715,2.008c0.591,0.681,0.824,1.595,0.881,2.478
			c0.079,1.387-0.109,2.787-0.41,4.139c-0.171,0.716-0.372,1.447-0.714,2.103c-0.182,0.348-0.441,0.668-0.797,0.847
			c-0.311,0.161-0.662,0.227-1.007,0.268c-2.915,0.182-6.263,0.012-9.186-0.051c-2.509,0.235-14.047,0.096-16.651,0.099
			c-0.479-0.027-0.975-0.063-1.421-0.255c-0.439-0.184-0.758-0.562-0.994-0.964c-0.59-1.022-0.969-2.168-1.322-3.29
			c-2.189-7.063-2.2-15.713-2.578-23.076c-0.2-3.803-0.65-7.668-1.763-11.318c-0.788-2.804-1.964-5.817-1.925-8.759
			c0.012-1.584,0.343-3.158,0.798-4.67c0.765-2.515,1.876-5.004,2.958-7.397c1.852-3.996,6.286-12.978,7.812-16.916
			c0.874-2.236,1.549-4.589,2.052-6.936c0.96-4.453,1.55-9.525,2.083-14.067c0.936-8.477,1.713-18.001,2.132-26.522
			c0.287-6.692,0.502-13.602-0.277-20.265c-0.502-4.417-1.599-8.811-2.895-13.058c-2.602-8.345-8.56-26.468-10.525-34.589
			c-0.54-2.254-1.062-4.561-1.359-6.847c-0.349-2.585-0.419-5.227-0.083-7.817c0.321-2.552,1.014-5.088,1.845-7.52
			c2.566-7.588,8.051-18.22,11.184-25.665c0.663-1.66,1.341-3.357,1.627-5.127c0.118-0.782,0.132-1.608-0.145-2.36
			c-0.263-0.721-0.759-1.334-1.25-1.913c-0.658-0.751-1.432-1.513-2.164-2.196c-4.266-4.008-10.626-9.567-14.674-13.698
			c-10.522-10.524-20.7-22.369-25.153-36.832c-1.678-5.433-2.483-11.225-1.646-16.881c0.368-2.659,1.057-5.33,1.82-7.902
			c1.261-4.238,2.938-8.415,5.002-12.325c5.132-9.607,12.117-18.251,20.011-25.728c4.083-3.822,8.507-7.479,13.012-10.792
			c2.14-1.522,4.335-3.181,6.695-4.35c0.421-0.189,0.863-0.386,1.33-0.41c0.107-0.003,0.217,0.009,0.318,0.047
			c0.18,0.065,0.307,0.231,0.357,0.412c0.108,0.412-0.073,0.843-0.256,1.208c-0.992,1.767-2.807,3.31-4.314,4.658l-7.134,6.065
			c-6.299,5.446-12.247,11.501-17.119,18.268c-3.758,5.206-6.925,10.966-8.536,17.214c-1.569,5.935-1.697,12.198-0.893,18.263
			c0.706,5.324,2.064,10.603,4.017,15.606c2.23,5.745,5.428,11.16,9.569,15.735c5.289,5.894,11.917,10.473,18.73,14.434
			c4.352,2.488,8.926,4.857,13.593,6.692c1.668,0.638,3.396,1.214,5.182,1.383c1.361,0.135,2.742,0.017,4.083-0.236
			c4.828-0.978,16.597-5.077,21.505-6.551c22.425-7.055,45.863-11.281,69.337-12.535c10.971-0.627,22.658-0.831,33.646-0.6
			c8.334,0.199,17.007,0.624,25.259,1.838c4.728,0.63,10.895,2.117,15.612,2.826c1.549,0.212,3.159,0.315,4.723,0.272
			c3.786-0.09,7.547-0.941,11.196-1.902c6.588-1.799,14.281-4.196,20.77-6.328c5.3-1.815,11.173-3.806,16.262-6.164
			c2.499-1.165,4.979-2.517,7.132-4.255c1.82-1.455,3.418-3.197,4.795-5.074c3.277-4.471,5.647-9.616,7.84-14.684
			c5.908-13.826,13.465-35.887,18.641-50.172l-2.092-2.165c-1.606-1.703-3.153-3.556-4.008-5.761
			c-0.515-1.316-0.796-2.735-1.037-4.124c-1.697-11.689-6.715-44.457-8.07-55.801c-0.15-1.646-0.374-3.39-0.238-5.041
			c0.049-0.387,0.109-0.847,0.411-1.117c0.365-0.297,0.978-0.205,1.388-0.052c0.525,0.194,0.999,0.51,1.443,0.847
			c0.771,0.594,1.48,1.302,2.145,2.013c3.355,3.71,6.235,7.915,8.81,12.195c1.726,2.86,3.275,6.305,5.101,9.104
			c1.324,2.039,2.942,3.907,4.828,5.445c2.675,2.166,6.026,3.895,9.136,5.359c1.922-6.109,3.874-12.632,5.27-18.877
			c0.739-3.344,1.339-6.779,1.568-10.198c0.336-5.013,0.158-10.16-0.392-15.156c-0.022-0.382-0.119-1.045,0.012-1.387l0.003-0.005
			l0.003-0.005l0.003-0.005l0.003-0.005l0.003-0.005l0.003-0.005l0.003-0.005l0.003-0.004l0.003-0.004l0.003-0.004l0.003-0.004
			l0.003-0.004l0.003-0.004l0.003-0.004l0.003-0.003l0.003-0.003l0.003-0.003l0.004-0.003l0.004-0.003l0.004-0.003l0.004-0.003
			l0.004-0.003l0.004-0.002l0.004-0.002l0.004-0.002l0.004-0.002l0.004-0.002l0.004-0.002l0.004-0.002l0.004-0.002l0.004-0.001
			l0.004-0.001l0.004-0.001l0.004-0.001l0.005-0.001l0.005-0.001l0.005-0.001l0.005,0l0.005,0l0.005,0l0.005,0l0.005,0l0.005,0
			l0.005,0l0.005,0l0.005,0.001l0.005,0.001l0.005,0.001l0.005,0.001l0.005,0.001l0.006,0.001l0.006,0.001l0.006,0.002l0.006,0.002
			c0.188,0.066,0.338,0.211,0.481,0.345c0.847,0.878,1.469,1.965,2.089,3.008c7.05,12.768,11.277,27.006,14.743,41.11
			c5.092-1.212,10.346-2.167,15.596-2.108c7.189,0.126,14.429,1.98,20.63,5.658c1.932,1.124,4.312,2.938,6.176,4.191
			c1.062,0.705,2.192,1.345,3.402,1.76c1.611,0.563,3.334,0.757,5.033,0.809c3.571,0.093,7.341-0.362,10.89-0.759l12.203-1.608
			c1.327-0.887,2.876-1.401,4.429-1.726c1.917-0.384,3.914-0.487,5.852-0.191c1.453,0.242,3.012,0.702,3.986,1.878
			c0.812,0.988,1.036,2.31,1.065,3.556c0.024,0.962-0.069,1.976-0.171,2.934c-0.247,1.834-0.611,5.993-1.023,7.75
			c-0.403,1.853-1.117,3.967-2.984,4.792c-1.462,4.096-3.123,8.204-5.449,11.893c-1.136,1.831-2.451,3.583-4.018,5.068
			c-4.547,4.264-10.548,6.586-16.217,8.958l-17.203,6.626c-3.14,1.27-6.374,2.615-8.972,4.839c-1.455,1.242-2.654,2.777-3.539,4.471
			c-0.985,1.87-1.624,3.918-2.119,5.966c-1.885,8.114-2.64,20.819-3.594,29.193C528.138,326.948,524.698,346.702,518.498,365.405z"
			/>
	</g>
</g>
</svg>
