<?xml version="1.0" encoding="utf-8"?>
<!-- Generator: Adobe Illustrator 25.3.1, SVG Export Plug-In . SVG Version: 6.00 Build 0)  -->
<!DOCTYPE svg PUBLIC "-//W3C//DTD SVG 1.1//EN" "http://www.w3.org/Graphics/SVG/1.1/DTD/svg11.dtd" [
	<!ENTITY ns_extend "http://ns.adobe.com/Extensibility/1.0/">
	<!ENTITY ns_ai "http://ns.adobe.com/AdobeIllustrator/10.0/">
	<!ENTITY ns_graphs "http://ns.adobe.com/Graphs/1.0/">
	<!ENTITY ns_vars "http://ns.adobe.com/Variables/1.0/">
	<!ENTITY ns_imrep "http://ns.adobe.com/ImageReplacement/1.0/">
	<!ENTITY ns_sfw "http://ns.adobe.com/SaveForWeb/1.0/">
	<!ENTITY ns_custom "http://ns.adobe.com/GenericCustomNamespace/1.0/">
	<!ENTITY ns_adobe_xpath "http://ns.adobe.com/XPath/1.0/">
]>
<svg version="1.1" xmlns:x="&ns_extend;" xmlns:i="&ns_ai;" xmlns:graph="&ns_graphs;"
	 xmlns="http://www.w3.org/2000/svg" xmlns:xlink="http://www.w3.org/1999/xlink" x="0px" y="0px" width="750px" height="750px"
	 viewBox="0 0 750 750" enable-background="new 0 0 750 750" xml:space="preserve">
<metadata>
	<sfw  xmlns="&ns_sfw;">
		<slices></slices>
		<sliceSourceBounds  bottomLeftOrigin="true" height="10380.179" width="6859.54" x="-3380.54" y="-1314"></sliceSourceBounds>
	</sfw>
</metadata>
<g id="FILL-BACKGROUND">
	<rect fill="#FFFFFF" width="750" height="750"/>
</g>
<g id="N-DIMENSIONS">
</g>
<g id="N-TEXT">
</g>
<g id="_x32_D_x24_AG-DIAGRAM">
	<g id="POLYLINE_694_">
		<g>
			<g>
				
					<line fill="none" stroke="#FB8604" stroke-width="3.25" stroke-linecap="round" stroke-linejoin="round" x1="108.051" y1="610.728" x2="110.051" y2="610.728"/>
				
					<line fill="none" stroke="#FB8604" stroke-width="3.25" stroke-linecap="round" stroke-linejoin="round" stroke-dasharray="4.015,7.0263" x1="117.077" y1="610.728" x2="555.215" y2="610.728"/>
				
					<line fill="none" stroke="#FB8604" stroke-width="3.25" stroke-linecap="round" stroke-linejoin="round" x1="558.728" y1="610.728" x2="560.728" y2="610.728"/>
			</g>
		</g>
	</g>
</g>
<g id="_x32_D_x24_AG-DETAILS-DIAGRAM">
</g>
<g id="_x32_D_x24_AG-DETAILS">
	<g id="POLYLINE_1038_">
		<path fill="none" stroke="#FB8604" stroke-width="2" stroke-linecap="round" stroke-linejoin="round" stroke-miterlimit="10" d="
			M509.039,246.063c3.069,9.06,8.039,17.441,13.255,25.416c3.514,5.361,7.292,10.754,12.319,14.81
			c2.906,2.363,6.231,4.231,9.764,5.473c5.068,1.778,10.497,2.552,15.861,2.367c3.251-0.129,6.531-0.627,9.605-1.714
			c2.268-0.805,4.447-1.958,6.238-3.58c4.612-4.145,6.412-10.666,8.53-16.29c0.579-1.528,1.23-3.083,2.014-4.517
			c1.159-2.181,3.097-4.85,4.503-6.908c1.184-1.76,2.291-3.619,3.079-5.591c0.95-2.361,1.55-4.868,1.848-7.393
			c0.551-4.813,0.045-9.914-2.344-14.2c-2.708-4.887-7.247-8.434-11.895-11.376c-6.134-3.858-12.918-6.859-20.079-8.132"/>
	</g>
	<g id="POLYLINE_1037_">
		<path fill="none" stroke="#FB8604" stroke-width="2" stroke-linecap="round" stroke-linejoin="round" stroke-miterlimit="10" d="
			M456.308,459.647c1.408-0.183,2.972-0.549,4.392-0.359c1.791,0.206,3.346,1.236,4.814,2.212c3.935,2.687,8.147,6.234,13.197,5.962
			c3.152-0.123,6.29-1.504,8.356-3.913c1.107-1.274,1.807-2.849,2.241-4.469c0.726-2.676,0.936-6.072,1.307-8.834
			c0.305-2.302,0.782-4.62,1.744-6.745c1.802-4.039,4.908-7.758,7.077-11.596c1.003-1.753,1.885-3.608,2.515-5.528
			c0.913-2.778,1.388-5.708,1.593-8.62c0.344-5.146-0.106-10.365-1.232-15.396c-0.56-2.482-1.327-4.95-2.327-7.292
			c-1.052-2.524-2.598-5.334-3.526-7.905c-0.512-1.437-0.855-2.961-0.803-4.494c0.061-1.819,0.627-3.587,1.274-5.274
			c1.458-3.702,3.555-7.571,4.582-11.427c1.414-5.117,0.796-10.555-0.491-15.634c-1.698-6.542-4.352-12.953-7.01-19.157
			c-3.272-7.28-6.941-14.655-12.489-20.49c-2.102-2.182-4.578-4.045-7.374-5.238c-5.432-2.365-11.528-2.358-17.346-2.094"/>
	</g>
	<g id="POLYLINE_1036_">
		<path fill="none" stroke="#FB8604" stroke-width="2" stroke-linecap="round" stroke-linejoin="round" stroke-miterlimit="10" d="
			M146.193,542.924c4.709,0.524,9.707,0.553,14.093-1.462c2.444-1.127,4.547-2.881,6.521-4.684l3.917-3.691
			c1.721-1.6,3.577-3.122,5.642-4.256c2.926-1.651,6.24-2.679,9.439-3.665"/>
	</g>
</g>
<g id="_x32_D_x24_AG-ANIMALS">
	<g id="POLYLINE_126_">
		
			<path fill="none" stroke="#FB8604" stroke-width="2.75" stroke-linecap="round" stroke-linejoin="round" stroke-miterlimit="10" d="
			M264.563,433.887c8.758-0.487,18.281-0.838,27-0.376c16.389,0.835,32.996,3.198,49.095,6.355
			c9.127,1.845,18.675,4.115,27.545,6.93c9.712,3.037,22.261,8.212,31.83,11.912c7.124,2.701,14.542,5.069,22.033,6.487
			c11.695,2.28,23.799,2.911,35.696,2.953"/>
	</g>
	<g id="POLYLINE_127_">
		
			<path fill="none" stroke="#FB8604" stroke-width="2.75" stroke-linecap="round" stroke-linejoin="round" stroke-miterlimit="10" d="
			M191.18,365.209c-2.852-2.031-4.989-5.098-5.69-8.547c-0.313-1.517-0.332-3.097-0.068-4.623c0.315-1.827,1.021-3.576,1.886-5.209
			c1.69-3.152,3.995-5.959,6.593-8.405c2.24-2.109,4.772-3.919,7.471-5.395c5.843-3.236,13.302-5.422,19.411-8.101
			c7.559-3.252,17.008-8.693,24.554-11.974c6.322-2.788,13.06-4.687,19.897-5.673c10.817-1.547,22.042-1.686,32.954-1.646
			c19.485,0.204,40.932,1.363,60.378,2.913c8.127,0.707,25.402,2.581,33.29,2.873c3.887,0.144,7.874,0.12,11.743-0.307
			c6.584-0.618,13.337-3.362,19.661-5.163c2.325-0.649,4.75-1.193,7.146-1.499c2.652-0.346,5.462-0.401,8.137-0.392l9.221,0.147
			c2.692-0.01,5.448-0.079,8.091-0.626c1.634-0.337,3.239-0.917,4.618-1.871c3.585-2.471,5.509-6.719,8.144-10.059
			c4.561-5.834,11.727-12.043,16.494-17.706c3.874-4.461,9.223-11.574,13.018-16.107c1.372-1.634,2.9-3.342,4.448-4.813l2.967-2.782
			c1.173-1.122,2.298-2.335,3.188-3.697c2.035-3.143,3.252-6.775,3.938-10.439"/>
	</g>
	<g id="POLYLINE_128_">
		
			<path fill="none" stroke="#FB8604" stroke-width="2.75" stroke-linecap="round" stroke-linejoin="round" stroke-miterlimit="10" d="
			M167.028,554.913c-1.741,4.263-3.09,8.801-4.118,13.287c-0.437,1.957-3.093,13.154-3.386,14.885
			c-0.158,0.886-0.329,1.815-0.329,2.718c0.003,0.516,0.078,1.054,0.363,1.495c0.178,0.281,0.428,0.51,0.693,0.708
			c0.625,0.457,1.335,0.827,2.023,1.18c1.659,0.825,3.413,1.53,5.185,2.072c1.709,0.512,3.619,0.99,5.176,1.877
			c1.218,0.698,2.307,1.625,3.247,2.664c0.695,0.78,1.333,1.639,1.749,2.603c0.641,1.497,0.637,3.174,0.698,4.775
			c0.024,1.268,0.005,2.577-0.207,3.83c-0.114,0.651-0.279,1.307-0.586,1.896c-0.207,0.398-0.501,0.755-0.871,1.014
			c-0.367,0.26-0.795,0.425-1.23,0.534c-1.059,0.26-2.195,0.253-3.28,0.274c-2.118-0.025-25.705,0.072-27.108-0.061
			c-0.734-0.054-1.484-0.134-2.184-0.374c-0.545-0.184-1.046-0.5-1.436-0.925c-0.552-0.594-0.894-1.35-1.175-2.101
			c-0.612-1.596-0.969-3.254-0.791-4.968c0.191-2.267,0.943-4.628,1.263-6.878c0.484-2.831,0.506-9.523,0.637-12.482
			c0.526-12.841,2.303-25.875,4.554-38.521c1.37-7.425,3.212-16.089,4.996-23.421c0.488-1.892,1.004-4.076,1.646-5.924
			c0.511-1.509,1.182-2.991,2.15-4.264c1.209-1.665,5.432-5.816,6.823-7.355c3.124-3.349,6.317-7.018,9.125-10.635
			c5.653-7.232,10.311-15.323,13.548-23.919c2.05-5.369,3.761-10.994,5.062-16.591c0.878-3.84,1.61-7.832,1.825-11.771
			c0.164-2.952,0.002-5.961-0.721-8.836c-1.002-4.152-3.38-8.758-5.002-12.644c-1.972-4.62-3.611-9.471-4.19-14.479
			c-0.472-3.823-0.437-7.718-0.058-11.547c0.468-4.736,1.51-9.446,3.165-13.911c1.873-5.252,5.355-10.725,7.812-15.719
			c2.74-5.469,4.919-11.286,6.553-17.179"/>
	</g>
	<g id="POLYLINE_129_">
		
			<path fill="none" stroke="#FB8604" stroke-width="2.75" stroke-linecap="round" stroke-linejoin="round" stroke-miterlimit="10" d="
			M282.293,375.233c-0.551,9.537-1.829,19.16-4.52,28.342c-3.798,12.991-10.262,25.191-16.9,36.931
			c-6.526,11.379-13.573,23.073-21.365,33.629c-6.379,8.65-13.589,16.914-21.35,24.352c-2.888,2.755-6.159,5.676-9.268,8.179
			c-3.608,2.946-9.366,6.956-13.145,9.706c-2.892,2.137-5.773,4.445-8.281,7.025c-3.235,3.299-6.089,7.056-8.683,10.873
			c-4.395,6.538-8.517,13.455-11.755,20.642"/>
	</g>
	<g id="POLYLINE_130_">
		
			<path fill="none" stroke="#FB8604" stroke-width="2.75" stroke-linecap="round" stroke-linejoin="round" stroke-miterlimit="10" d="
			M609.935,241.333c-1.258-0.769-2.615-1.577-3.694-2.575c-0.961-0.866-1.766-1.909-2.504-2.968
			c-1.743-2.517-3.414-5.466-5.379-7.813c-1.14-1.368-2.443-2.62-3.871-3.685c-4.63-3.405-10.235-5.197-15.705-6.76
			c-7.444-1.988-15.16-3.417-22.891-3.276l-6.174,0.205c-2.138,0.037-4.322-0.038-6.391-0.623c-2.957-0.831-5.578-2.611-7.716-4.787
			c-4.475-4.483-6.897-11.16-9.658-16.754c-1.164-2.36-2.461-4.726-4.161-6.745c-1.287-1.543-2.813-2.899-4.531-3.945
			c-2.052-1.248-4.35-2.091-6.709-2.528c-1.356-0.24-2.76-0.351-4.126-0.134c-0.829,0.136-1.66,0.409-2.326,0.934
			c-0.663,0.518-1.097,1.278-1.341,2.075c-0.418,1.385-0.397,2.863-0.284,4.292c0.403,4.226,1.693,8.507,2.851,12.584
			c1.407,4.745,3.19,10.473,4.174,15.292c0.899,4.168,1.583,11.442,2.09,15.732c0.479,3.606,1.046,7.3,2.518,10.653
			c0.901,2.045,2.215,3.952,4.007,5.312c1.962,1.494,4.334,2.373,6.727,2.893c3.012,0.638,6.14,0.739,9.193,0.36"/>
	</g>
	<g id="POLYLINE_131_">
		
			<path fill="none" stroke="#FB8604" stroke-width="2.75" stroke-linecap="round" stroke-linejoin="round" stroke-miterlimit="10" d="
			M585.223,295.046c6.821-0.432,13.572-2.108,19.961-4.502c4.974-1.856,9.642-4.608,13.486-8.288c2.399-2.28,4.581-4.862,6.14-7.793
			c0.932-1.755,1.593-3.671,1.826-5.648c0.252-2.064,0.038-4.177-0.562-6.165c-1.118-3.757-3.672-7.237-5.791-10.496
			c-0.82-1.261-1.84-3.135-2.604-4.441"/>
	</g>
	<g id="POLYLINE_132_">
		
			<path fill="none" stroke="#FB8604" stroke-width="2.75" stroke-linecap="round" stroke-linejoin="round" stroke-miterlimit="10" d="
			M453.657,417.998c-0.748,6.429-1.354,13.12-1.316,19.587c0.031,4.598,0.41,9.277,1.623,13.726
			c0.957,3.537,2.664,8.877,3.224,12.364c0.672,3.822,0.852,7.777,0.804,11.653c-0.06,7.068-1.297,18.992-1.905,26.194
			c-1.09,11.316-2.454,26.405-4.251,37.489c-1.116,7.661-3.715,17.338-4.32,24.947c-0.109,1.691-0.14,3.417,0.127,5.095
			c0.188,1.167,0.569,2.365,1.42,3.222c0.641,0.657,1.48,1.079,2.326,1.411c1.933,0.777,4.143,1.084,6.078,1.85
			c1.404,0.577,2.286,1.817,2.971,3.117c1.219,2.345,2.079,4.908,2.843,7.432c1.64,5.358,2.513,11.904,4.335,17.209
			c0.67,1.861,1.484,3.744,2.846,5.209c0.574,0.612,1.269,1.115,2.043,1.441c1.707,0.713,3.617,0.728,5.439,0.773
			c0,0,32.266,0.01,32.266,0.01s1.175-0.003,1.175-0.003c0.54-0.03,1.16-0.001,1.697-0.068c0.649-0.061,1.317-0.171,1.89-0.498
			c0.593-0.333,0.998-0.912,1.254-1.53c0.397-0.954,0.576-1.993,0.69-3.015c0.245-2.527,0.09-5.138-0.723-7.556
			c-0.494-1.473-1.246-2.858-2.112-4.144c-0.697-1.039-1.484-2.037-2.411-2.881c-0.783-0.715-1.677-1.319-2.649-1.746
			c-2.108-0.935-5.249-1.252-7.521-1.669c-2.655-0.471-5.325-1.119-7.827-2.134c-1.527-0.633-3.043-1.41-4.232-2.579
			c-1.022-0.992-1.754-2.242-2.355-3.523c-2.414-5.589-6.641-14.17-8.373-19.935c-0.39-1.291-0.762-2.632-0.922-3.973
			c-0.209-1.663-0.01-3.357,0.282-4.999c3.807-18.24,14.667-52.818,19.018-71.118c1.277-5.537,2.535-13.27,3.778-18.817
			c0.676-2.932,1.462-5.944,2.665-8.711c1.786-4.255,4.783-7.866,7.951-11.166c5.925-6.187,15.097-14.892,20.068-21.727
			c3.007-4.052,5.472-8.548,7.071-13.341c3.447-10.108,4.443-25.823,5.901-36.463c1.222-8.963,2.958-18.078,6.992-26.245
			c2.55-5.248,6.008-10.041,9.817-14.443c5.182-5.987,11.177-11.486,17.207-16.611l24.879-20.642"/>
	</g>
	<g id="POLYLINE_133_">
		
			<path fill="none" stroke="#FB8604" stroke-width="2.75" stroke-linecap="round" stroke-linejoin="round" stroke-miterlimit="10" d="
			M617.561,249.041c0.276-1.083,0.063-2.235-0.295-3.274c-0.361-1.01-0.918-1.962-1.67-2.731c-0.932-0.945-2.154-1.62-3.464-1.85
			c-0.741-0.127-1.523-0.103-2.233,0.159c-0.849,0.313-1.546,0.939-2.096,1.644c-0.553,0.71-0.985,1.517-1.336,2.344
			c-0.229,0.552-0.429,1.134-0.451,1.736c-0.016,0.412,0.071,0.832,0.279,1.19c0.218,0.382,0.554,0.683,0.913,0.931
			c1.187,0.79,2.591,1.193,3.975,1.48c1.39,0.257,2.839,0.421,4.24,0.162c0.521-0.107,1.041-0.299,1.446-0.653
			C617.211,249.885,617.445,249.476,617.561,249.041z"/>
	</g>
</g>
<g id="_x32_D_x24_AG-OUTLINE">
	<g id="POLYLINE_23_">
		
			<path fill="none" stroke="#FB8604" stroke-width="3.5" stroke-linecap="round" stroke-linejoin="round" stroke-miterlimit="10" d="
			M512.667,236.109c-0.684,3.655-1.897,7.276-3.921,10.414c-0.893,1.371-2.024,2.594-3.204,3.722l-2.967,2.782
			c-5.592,5.448-11.217,13.611-16.311,19.564c-4.115,5.06-10.748,11.214-15.15,16.068c-1.432,1.593-2.816,3.319-4.018,5.093
			c-1.464,2.113-2.958,4.61-4.78,6.418c-1.199,1.208-2.64,2.191-4.242,2.78c-1.941,0.717-4.029,0.987-6.084,1.134
			c-4.788,0.32-10.963-0.109-15.768-0.013c-2.202,0.038-4.47,0.166-6.648,0.497c-2.371,0.352-4.774,0.932-7.075,1.6
			c-6.033,1.787-12.603,4.356-18.901,4.947c-3.869,0.427-7.857,0.451-11.743,0.307c-7.956-0.29-25.202-2.175-33.29-2.873
			c-19.47-1.547-40.881-2.71-60.378-2.913c-10.917-0.039-22.136,0.099-32.954,1.646c-6.837,0.986-13.574,2.884-19.897,5.673
			c-7.543,3.278-16.999,8.725-24.554,11.974c-5.864,2.572-13.106,4.739-18.76,7.749c-2.839,1.493-5.516,3.333-7.871,5.514
			c-2.704,2.5-5.098,5.386-6.843,8.637c-0.838,1.583-1.528,3.276-1.856,5.043c-0.285,1.53-0.287,3.118,0.01,4.647
			c0.671,3.505,2.827,6.631,5.719,8.689c-0.842,1.603-3.008,5.611-3.895,7.248c-3.218,6.014-5.253,12.657-6.038,19.43
			c-0.474,4.039-0.578,8.155-0.124,12.201c0.538,5.18,2.207,10.2,4.247,14.969c1.553,3.706,3.941,8.464,4.909,12.277
			c0.629,2.376,0.893,4.858,0.872,7.314c-0.021,3.323-0.486,6.699-1.101,9.963c-0.948,4.916-2.289,9.873-3.839,14.633
			c-2.375,7.3-5.485,14.466-9.56,20.983c-5.509,8.964-12.957,17.094-20.276,24.633c-1.005,1.076-1.983,2.216-2.674,3.523
			c-1.12,2.111-1.717,4.494-2.331,6.791c-4.938,20.061-8.734,40.787-9.904,61.432c-0.267,4.244-0.132,11.037-0.805,15.227
			c-0.366,2.283-1.136,4.69-1.234,7.011c-0.078,1.514,0.292,3.014,0.826,4.421c0.325,0.873,0.739,1.758,1.459,2.375
			c0.465,0.406,1.047,0.654,1.644,0.793c1.015,0.241,2.092,0.259,3.131,0.286c2.269-0.052,26.419,0.135,27.94-0.094
			c0.645-0.073,1.302-0.194,1.885-0.492c0.648-0.32,1.118-0.901,1.383-1.565c0.308-0.745,0.447-1.553,0.537-2.35
			c0.149-1.416,0.119-2.876,0.051-4.296c-0.056-1.02-0.138-2.066-0.468-3.039c-0.268-0.802-0.71-1.54-1.216-2.213
			c-1.316-1.714-3.016-3.186-5.008-4.053c-1.53-0.669-3.353-1.081-4.936-1.613c-1.84-0.625-3.667-1.394-5.366-2.34
			c-0.852-0.501-1.792-1.002-2.01-2.054c-0.196-0.977-0.002-1.99,0.146-2.961c0.357-2.255,2.954-13.032,3.486-15.445
			c1.029-4.485,2.376-9.026,4.118-13.287c3.243-7.197,7.368-14.118,11.77-20.663c2.601-3.826,5.459-7.586,8.705-10.889
			c2.498-2.564,5.367-4.863,8.244-6.988c4.852-3.521,11.169-7.9,15.645-11.775c5.956-5.065,11.659-10.758,16.866-16.588
			c14.486-16.19,25.798-35.193,36.305-54.122c8.758-0.487,18.281-0.838,27-0.376c16.389,0.835,32.996,3.198,49.095,6.355
			c9.127,1.845,18.675,4.115,27.545,6.93c9.712,3.037,22.261,8.212,31.83,11.912c7.124,2.701,14.542,5.069,22.033,6.487
			c11.695,2.28,23.799,2.911,35.696,2.953c0.376,4.365,0.245,8.94-0.01,13.316c-1.283,17.012-3.079,37.035-5.36,53.923
			c-0.791,5.734-2.536,14.425-3.688,20.186c-0.387,2.085-0.803,4.403-1.021,6.501c-0.25,2.512-0.444,5.106,0.078,7.596
			c0.231,1.054,0.693,2.095,1.521,2.814c0.752,0.666,1.7,1.065,2.637,1.398c1.471,0.516,3.196,0.885,4.688,1.339
			c0.357,0.113,0.72,0.243,1.056,0.406c1.369,0.631,2.224,1.953,2.89,3.251c1.266,2.52,2.16,5.261,2.944,7.964
			c1.488,5.097,2.381,11.428,4.115,16.451c0.685,1.897,1.517,3.824,2.931,5.297c0.556,0.573,1.222,1.042,1.958,1.353
			c1.707,0.713,3.617,0.728,5.439,0.773c0,0,32.266,0.01,32.266,0.01s1.175-0.003,1.175-0.003c0.54-0.03,1.16-0.001,1.697-0.068
			c0.649-0.061,1.317-0.171,1.89-0.498c0.593-0.333,0.998-0.912,1.254-1.53c0.397-0.954,0.576-1.993,0.69-3.015
			c0.245-2.527,0.09-5.138-0.723-7.556c-0.494-1.473-1.246-2.858-2.112-4.144c-0.697-1.039-1.484-2.037-2.411-2.881
			c-0.783-0.715-1.677-1.319-2.649-1.746c-2.108-0.935-5.249-1.252-7.521-1.669c-2.655-0.471-5.325-1.119-7.827-2.134
			c-1.527-0.633-3.043-1.41-4.232-2.579c-1.022-0.992-1.754-2.242-2.355-3.523c-2.414-5.589-6.641-14.17-8.373-19.935
			c-0.39-1.291-0.762-2.632-0.922-3.973c-0.209-1.663-0.01-3.357,0.282-4.999c3.807-18.24,14.667-52.818,19.018-71.118
			c1.277-5.537,2.535-13.27,3.778-18.817c0.676-2.932,1.462-5.944,2.665-8.711c1.786-4.255,4.783-7.866,7.951-11.166
			c5.925-6.187,15.097-14.892,20.068-21.727c3.007-4.052,5.472-8.548,7.071-13.341c3.447-10.108,4.443-25.823,5.901-36.463
			c1.222-8.963,2.958-18.078,6.992-26.245c2.55-5.248,6.008-10.041,9.817-14.443c5.182-5.987,11.177-11.486,17.207-16.611
			l24.879-20.642c3.105-1.088,6.181-2.408,8.989-4.13c2.95-1.802,5.654-4.038,8.011-6.565c2.887-3.142,5.473-6.865,6.147-11.161
			c0.374-2.343,0.138-4.769-0.595-7.021c-1.157-3.608-3.632-7.003-5.687-10.158c-0.82-1.261-1.84-3.135-2.604-4.441
			c-0.142-1.989-1.135-4.002-2.711-5.24c-1.382-1.076-3.317-1.728-5.032-1.14c-1.258-0.769-2.615-1.577-3.694-2.575
			c-0.961-0.866-1.766-1.909-2.504-2.968c-1.743-2.517-3.414-5.466-5.379-7.813c-1.14-1.368-2.443-2.62-3.871-3.685
			c-4.621-3.399-10.227-5.195-15.687-6.755c-7.446-1.987-15.177-3.425-22.909-3.281l-6.174,0.205
			c-2.138,0.037-4.322-0.038-6.391-0.623c-2.957-0.831-5.578-2.611-7.716-4.787c-4.475-4.483-6.897-11.16-9.658-16.754
			c-1.164-2.36-2.461-4.726-4.161-6.745c-1.287-1.543-2.813-2.899-4.531-3.945c-2.052-1.248-4.35-2.091-6.709-2.528
			c-1.356-0.24-2.76-0.351-4.126-0.134c-0.829,0.136-1.66,0.409-2.326,0.934c-0.663,0.518-1.097,1.278-1.341,2.075
			c-0.418,1.385-0.397,2.863-0.284,4.292c0.403,4.226,1.693,8.507,2.851,12.584c1.407,4.745,3.19,10.473,4.174,15.292
			c0.899,4.168,1.583,11.442,2.09,15.732C511.858,231.918,512.184,234.086,512.667,236.109z"/>
	</g>
</g>
</svg>
