<?xml version="1.0" encoding="utf-8"?>
<!-- Generator: Adobe Illustrator 25.3.1, SVG Export Plug-In . SVG Version: 6.00 Build 0)  -->
<!DOCTYPE svg PUBLIC "-//W3C//DTD SVG 1.1//EN" "http://www.w3.org/Graphics/SVG/1.1/DTD/svg11.dtd" [
	<!ENTITY ns_extend "http://ns.adobe.com/Extensibility/1.0/">
	<!ENTITY ns_ai "http://ns.adobe.com/AdobeIllustrator/10.0/">
	<!ENTITY ns_graphs "http://ns.adobe.com/Graphs/1.0/">
	<!ENTITY ns_vars "http://ns.adobe.com/Variables/1.0/">
	<!ENTITY ns_imrep "http://ns.adobe.com/ImageReplacement/1.0/">
	<!ENTITY ns_sfw "http://ns.adobe.com/SaveForWeb/1.0/">
	<!ENTITY ns_custom "http://ns.adobe.com/GenericCustomNamespace/1.0/">
	<!ENTITY ns_adobe_xpath "http://ns.adobe.com/XPath/1.0/">
]>
<svg version="1.1" xmlns:x="&ns_extend;" xmlns:i="&ns_ai;" xmlns:graph="&ns_graphs;"
	 xmlns="http://www.w3.org/2000/svg" xmlns:xlink="http://www.w3.org/1999/xlink" x="0px" y="0px" width="750px" height="750px"
	 viewBox="0 0 750 750" enable-background="new 0 0 750 750" xml:space="preserve">
<metadata>
	<sfw  xmlns="&ns_sfw;">
		<slices></slices>
		<sliceSourceBounds  bottomLeftOrigin="true" height="10380.179" width="6859.54" x="-3380.54" y="-1314"></sliceSourceBounds>
	</sfw>
</metadata>
<g id="FILL-BACKGROUND">
	<rect fill="#FFFFFF" width="750" height="750"/>
</g>
<g id="N-DIMENSIONS">
</g>
<g id="N-TEXT">
</g>
<g id="_x32_D_x24_AG-DIAGRAM">
	<g id="POLYLINE_689_">
		<g>
			<g>
				
					<line fill="none" stroke="#FB8604" stroke-width="3.25" stroke-linecap="round" stroke-linejoin="round" x1="111.094" y1="597.312" x2="113.094" y2="597.312"/>
				
					<line fill="none" stroke="#FB8604" stroke-width="3.25" stroke-linecap="round" stroke-linejoin="round" stroke-dasharray="4.0255,7.0446" x1="120.139" y1="597.312" x2="548.348" y2="597.312"/>
				
					<line fill="none" stroke="#FB8604" stroke-width="3.25" stroke-linecap="round" stroke-linejoin="round" x1="551.87" y1="597.312" x2="553.87" y2="597.312"/>
			</g>
		</g>
	</g>
</g>
<g id="_x32_D_x24_AG-DETAILS-DIAGRAM">
</g>
<g id="_x32_D_x24_AG-DETAILS">
	<g id="POLYLINE_1089_">
		<path fill="none" stroke="#FB8604" stroke-width="2" stroke-linecap="round" stroke-linejoin="round" stroke-miterlimit="10" d="
			M437.719,448.704c3.783,0.421,7.729,0.856,11.244,2.393c2.104,0.91,4.036,2.258,5.518,4.016c1.783,2.114,2.962,4.678,3.835,7.285
			c1.307,3.983,1.925,8.189,2.113,12.369c0.249,6.408-0.449,13.006-3.127,18.893c-1.891,4.232-4.77,7.965-7.806,11.435"/>
	</g>
	<g id="POLYLINE_1088_">
		<path fill="none" stroke="#FB8604" stroke-width="2" stroke-linecap="round" stroke-linejoin="round" stroke-miterlimit="10" d="
			M200.403,358.395c2.576-2.722,5.306-5.437,8.581-7.31c1.751-0.979,3.755-1.721,5.789-1.498c1.164,0.127,2.267,0.593,3.264,1.193
			c1.761,1.07,3.286,2.535,4.746,3.978c4.18,4.237,8.389,9.019,13.767,11.736c5.214,2.639,11.236,3.455,17.018,2.889
			c7.449-0.755,15.222-4.021,19.324-10.565c2.588-4.174,3.564-9.129,4.011-13.96c0.595-6.087,0.101-13.965,0.062-20.11
			c-0.002-2.025,0.055-4.152,0.343-6.158c0.19-1.352,0.49-2.715,0.879-4.024c0.583-1.988,1.629-4.467,2.378-6.396
			c0.178-0.474,0.443-1.198,0.601-1.673"/>
	</g>
	<g id="POLYLINE_148_">
		<path fill="none" stroke="#FB8604" stroke-width="2" stroke-linecap="round" stroke-linejoin="round" stroke-miterlimit="10" d="
			M325.354,304.475c-3.337,4.033-6.445,8.361-8.879,13.003c-1.985,3.772-3.54,7.799-4.546,11.943
			c-1.49,6.108-1.805,12.489-1.261,18.742c0.559,6.209,1.964,12.411,4.524,18.111c2.38,5.271,5.895,10.223,10.822,13.378
			c5.442,3.491,12.101,4.725,18.494,4.284c6.237-0.448,12.439-2.439,17.561-6.066c4.705-3.31,8.373-8.284,11.966-12.72
			c1.315-1.603,2.709-3.228,4.272-4.595c1.08-0.94,2.28-1.777,3.614-2.312c1.568-0.645,3.307-0.751,4.977-0.549
			c2.449,0.293,4.832,1.119,7.138,1.964c6.198,2.321,12.698,5.365,19.435,5.271c5.152-0.082,10.14-1.919,14.557-4.485
			c3.222-1.882,6.218-4.202,8.893-6.801c2.47-2.411,4.723-5.103,6.536-8.045c1.394-2.252,2.463-4.723,3.36-7.21
			c0.878-2.437,1.871-5.629,3.175-7.86c0.707-1.223,1.603-2.348,2.689-3.256c2.612-2.141,5.887-3.281,9.046-4.355
			c2.943-0.968,7.97-2.413,10.763-3.589c2.107-0.86,4.161-1.943,5.896-3.431c1.277-1.09,2.384-2.4,3.186-3.878
			c0.794-1.452,1.291-3.065,1.5-4.705c0.468-3.852-0.486-7.725-1.461-11.429c-0.901-3.326-2.541-8.35-2.953-11.725
			c-0.437-2.938-0.254-6.727-0.193-9.713"/>
	</g>
</g>
<g id="_x32_D_x24_AG-ANIMALS">
	<g id="POLYLINE_76_">
		
			<path fill="none" stroke="#FB8604" stroke-width="2.75" stroke-linecap="round" stroke-linejoin="round" stroke-miterlimit="10" d="
			M437.541,362.845c-4.809,11.624-8.486,23.899-9.64,36.462c-0.763,8.264-0.346,16.696,1.441,24.807
			c2.568,11.884,8.507,23.954,12.507,35.411c1.548,4.47,2.771,9.131,3.684,13.772c2.771,14.753,4.145,30.071,4.631,45.068
			c0.094,3.864,0.066,8.219-0.101,12.079c-0.126,3.187-0.659,10.231-0.765,13.407c-0.07,2.207-0.029,4.467,0.359,6.646
			c0.486,2.955,1.759,6.404,2.671,9.236c1.361,4.049,2.239,8.166,2.695,12.418l1.053,10.004c0.333,2.647,0.69,5.41,1.461,7.969
			c0.586,1.971,1.546,3.928,3.204,5.21c1.464,1.156,3.329,1.648,5.158,1.833c1.958,0.287,18.318,0.084,20.674,0.141
			c1.734-0.022,3.542-0.04,5.261-0.285c1.3-0.19,2.626-0.496,3.751-1.202c2.999-1.92,2.99-6.253,2.37-9.379
			c-0.554-2.819-1.887-5.583-4.165-7.402c-3.227-2.543-7.682-3.08-11.525-4.192c-1.163-0.342-2.359-0.838-3.12-1.825
			c-0.627-0.794-0.966-1.775-1.21-2.746c-0.527-2.2-0.667-4.528-0.788-6.782c-0.424-13.077,0.288-28.416,0.708-41.536
			c0.662-14.542,1.458-31.315,3.247-45.72c1.534-11.994,3.761-24.214,9.154-35.138c2.073-4.208,4.643-8.232,7.548-11.915
			c4.369-5.639,11.709-12.603,16.563-17.842c3.54-3.784,6.974-7.88,9.811-12.225c6.82-10.315,10.945-22.169,13.341-34.246
			c1.692-8.552,3.725-20.021,5.987-28.32c1.989-7.405,4.449-14.852,7.494-21.889c1.858-4.267,3.991-8.547,6.494-12.473
			c1.739-2.715,3.7-5.351,5.985-7.634c1.514-1.002,3.108-1.946,4.838-2.523c1.046-0.343,2.172-0.535,3.267-0.343
			c1.513,0.253,2.745,1.259,3.887,2.219l2.288,2.02c1.239,1.072,2.591,2.055,4.11,2.688c3.229,1.351,6.822,1.443,10.273,1.338
			c5.019-0.193,10.088-1.042,14.954-2.271c3.777-0.975,7.606-2.175,11.182-3.736c7.569-3.258,14.205-8.42,19.808-14.417
			c5.305-5.014,8.958-11.604,11.093-18.544"/>
	</g>
	<g id="POLYLINE_77_">
		
			<path fill="none" stroke="#FB8604" stroke-width="2.75" stroke-linecap="round" stroke-linejoin="round" stroke-miterlimit="10" d="
			M161.529,596.724c7.246,0.532,15.317,0.599,22.599,0.585c0.926-0.018,1.941-0.007,2.862-0.102
			c0.703-0.072,1.426-0.191,2.049-0.542c0.645-0.361,1.117-0.961,1.488-1.588c0.706-1.221,1.078-2.63,1.125-4.037
			c0.139-3.767-2.557-7.09-5.729-8.833c-2.5-1.375-5.632-1.827-8.377-2.498c-1.703-0.44-3.475-1.052-4.707-2.365
			c-1.528-1.622-1.675-3.99-1.898-6.098c-0.648-8.953-0.954-18.314-0.586-27.283c0.239-5.305,0.778-10.706,1.908-15.898
			c0.974-4.525,2.414-9.001,4.27-13.242c3.242-7.368,7.745-14.441,14.193-19.395"/>
	</g>
	<g id="POLYLINE_78_">
		
			<path fill="none" stroke="#FB8604" stroke-width="2.75" stroke-linecap="round" stroke-linejoin="round" stroke-miterlimit="10" d="
			M210.147,362.973c-4.647,7.5-8.852,15.574-12.163,23.754c-3.11,7.634-5.542,15.755-7.437,23.775
			c-2.099,9.252-4.475,20.963-7.625,29.796c-3.222,9.398-7.506,18.511-13,26.799c-6.334,9.718-14.978,18.569-23.011,26.921
			c-3.737,4.035-7.618,8.337-9.209,13.719c-0.939,3.162-1.101,6.523-1.177,9.803c-0.043,4.526-0.013,11.538-0.31,15.938
			c-0.536,9.026-1.676,18.51-3.208,27.424c-0.767,4.509-2.75,13.642-3.453,18.166c-0.25,1.666-0.463,3.401-0.515,5.085
			c-0.066,2.221,0.145,4.485,0.874,6.594c0.766,2.238,2.227,4.339,4.373,5.431c1.412,0.732,3.018,0.99,4.591,1.079
			c3.256,0.116,13.115,0.036,16.314,0.039c1.691-0.032,3.448-0.093,5.122-0.344c1.739-0.262,3.588-0.766,4.786-2.138
			c0.929-1.041,1.299-2.468,1.281-3.841c-0.007-1.028-0.223-2.062-0.66-2.995c-0.417-0.896-1.04-1.695-1.793-2.333
			c-1.327-1.121-2.998-1.748-4.612-2.336c-1.852-0.662-4.441-1.39-6.128-2.368c-1.161-0.664-2.205-1.622-2.727-2.875
			c-0.638-1.487-0.529-3.156-0.314-4.723c1.048-6.236,3.977-20.613,4.967-26.721c0.426-2.451,2.238-13.722,2.738-15.956
			c0.63-3.044,1.449-6.117,2.586-9.013c1.387-3.554,3.294-6.933,5.692-9.903c2.519-3.139,5.572-5.845,8.881-8.126l16.013-8.36
			c7.759-4.173,15.531-8.739,22.489-14.154c4.632-3.589,8.972-7.634,12.842-12.034c7.794-8.763,16.201-21.596,23.371-30.928
			c4.525-5.876,9.419-11.653,15.076-16.473c5.485-4.672,11.756-8.467,18.457-11.119c9.235-3.658,19.391-5.179,29.271-3.953
			c13.542,1.612,28.119,9.359,40.584,14.645c11.267,4.889,23.233,8.346,35.269,10.727c14.729,2.942,30.084,4.638,45.059,5.718"/>
	</g>
	<g id="POLYLINE_79_">
		
			<path fill="none" stroke="#FB8604" stroke-width="2.75" stroke-linecap="round" stroke-linejoin="round" stroke-miterlimit="10" d="
			M647.311,243.758c-1.137-0.72-2.391-1.297-3.632-1.812c-3.86-1.591-12.169-4.067-16.224-5.41
			c-8.415-2.831-16.956-6.022-24.131-11.369c-2.172-1.602-6.509-4.854-8.683-6.264c-2.098-1.387-4.351-2.702-6.595-3.839
			c-4.014-2.026-8.276-3.716-12.545-5.123c-4.583-1.498-9.349-2.714-14.115-3.458c-4.277-0.662-8.669-0.935-12.979-0.45
			c-4.125,0.45-8.189,1.599-11.912,3.435c-4.907,2.39-9.167,5.949-12.905,9.892c-4.583,4.81-11.652,13.77-15.982,18.935
			c-5.503,5.98-11.111,12.685-16.05,19.121c-4.882,6.329-11.678,16.056-17.222,21.568c-9.077,9.212-20.597,15.814-32.746,20.089
			c-10.773,3.801-22.198,5.731-33.547,6.763c-13.027,1.163-26.531,1.193-39.595,0.733c-19.138-0.708-43.615-2.788-62.676-2.18
			c-13.844,0.376-27.754,2.135-41.263,5.186c-10.5,2.417-21.012,5.521-30.762,10.159c-6.545,3.145-12.747,7.233-17.634,12.651
			c-2.989,3.268-5.466,7.027-7.7,10.84c-3.326,5.513-9.129,17.505-12.171,23.25c-6.173,11.638-12.906,23.369-20.93,33.833
			c-5.751,7.462-12.497,14.533-21.073,18.701c-4.902,2.42-10.294,3.808-15.731,4.287c-7.726,0.691-15.567-0.275-23.2-1.464
			l-15.837-2.725c-3.279-0.506-6.69-0.971-10.012-0.874c-1.476,0.057-2.991,0.196-4.379,0.733c-0.697,0.278-1.381,0.689-1.797,1.331
			c-0.344,0.522-0.443,1.173-0.352,1.785c0.141,0.969,0.638,1.847,1.211,2.625c1.104,1.468,2.547,2.661,4.039,3.719
			c2.671,1.868,5.653,3.335,8.653,4.594c4.55,1.88,9.349,3.346,14.112,4.577c5.37,1.372,10.908,2.466,16.403,3.193
			c5.742,0.752,11.633,1.118,17.414,0.645c4-0.323,8.017-1.066,11.863-2.214c4.351-1.294,8.6-3.119,12.635-5.187
			c7.652-3.897,14.847-9.175,19.662-16.389"/>
	</g>
	<g id="POLYLINE_80_">
		
			<path fill="none" stroke="#FB8604" stroke-width="2.75" stroke-linecap="round" stroke-linejoin="round" stroke-miterlimit="10" d="
			M516.229,409.307c-9.99,19.688-17.988,40.804-20.648,62.828c-0.585,4.559-0.994,9.663-1.278,14.264
			c-0.567,10.175-1.083,22.539-1.215,32.679c-0.111,14.759-0.21,30.085,1.765,44.726c0.409,2.675,0.883,5.421,1.737,7.994
			c0.437,1.276,1.006,2.546,1.924,3.552c1.508,1.666,3.789,2.26,5.889,2.808c2.392,0.612,5.766,1.279,8.034,2.171
			c1.172,0.448,2.318,1.019,3.28,1.834c0.863,0.721,1.577,1.62,2.112,2.608c0.663,1.219,1.067,2.57,1.341,3.925
			c0.277,1.444,0.522,2.945,0.29,4.412c-0.108,0.653-0.337,1.297-0.731,1.834c-0.369,0.51-0.878,0.91-1.439,1.189
			c-0.757,0.376-1.603,0.542-2.433,0.666c-6.134,0.772-23.601,0.376-30.004,0.514"/>
	</g>
	<g id="POLYLINE_81_">
		
			<path fill="none" stroke="#FB8604" stroke-width="2.75" stroke-linecap="round" stroke-linejoin="round" stroke-miterlimit="10" d="
			M649.175,260.993c-1.041,0.494-2.241,0.544-3.363,0.352c-2.286-0.41-4.357-1.641-6.107-3.133
			c-1.923-1.674-3.565-3.812-4.191-6.319c-0.623-2.464-0.272-5.359,1.533-7.255c1.649-1.724,4.244-1.832,6.475-1.59
			c1.956,0.237,4.009,0.693,5.881,1.308c0.961,0.338,1.905,0.809,2.621,1.548c0.627,0.638,1.043,1.461,1.273,2.321
			C654.317,251.99,652.984,259.156,649.175,260.993z"/>
	</g>
	<g id="POLYLINE_82_">
		
			<path fill="none" stroke="#FB8604" stroke-width="2.75" stroke-linecap="round" stroke-linejoin="round" stroke-miterlimit="10" d="
			M552.628,234.923c0.753,3.933,1.419,7.955,0.763,11.951c-0.797,4.862-2.943,10.029-4.228,14.777
			c-1.052,3.621-1.591,7.414-1.784,11.176c-0.287,5.286-0.304,11.556-1.804,16.628c-1.415,5.078-4.062,10.569-5.712,15.575
			c-0.678,2.025-1.247,4.156-1.635,6.256c-0.546,2.842-0.962,6.512-1.622,9.325c-0.447,1.882-1.052,3.783-2.181,5.376
			c-0.707,1.005-1.656,1.836-2.744,2.408c-1.789,0.948-3.836,1.311-5.844,1.362c-4.024,0.061-8.094-1.027-11.516-3.153
			c-3.948-2.454-6.623-6.471-8.301-10.733c-1.74-4.395-2.664-9.121-3.32-13.788c-0.998-7.491-1.169-15.183-0.32-22.697
			c0.831-7.059,2.569-14.2,6.39-20.272c4.52-7.291,11.586-12.542,18.812-16.943"/>
	</g>
</g>
<g id="_x32_D_x24_AG-OUTLINE">
	<g id="POLYLINE_26_">
		
			<path fill="none" stroke="#FB8604" stroke-width="3.5" stroke-linecap="round" stroke-linejoin="round" stroke-miterlimit="10" d="
			M188.923,417.645c-4.816,7.214-12.009,12.492-19.662,16.389c-4.037,2.068-8.284,3.894-12.635,5.187
			c-3.847,1.147-7.862,1.891-11.863,2.214c-5.781,0.474-11.671,0.108-17.414-0.645c-5.495-0.727-11.033-1.822-16.403-3.193
			c-4.763-1.23-9.563-2.696-14.112-4.577c-3.001-1.259-5.982-2.725-8.653-4.594c-1.492-1.057-2.934-2.25-4.039-3.719
			c-0.574-0.778-1.07-1.657-1.211-2.625c-0.092-0.623,0.012-1.286,0.37-1.812c0.418-0.627,1.092-1.029,1.78-1.304
			c1.388-0.537,2.903-0.676,4.379-0.733c3.321-0.097,6.733,0.367,10.012,0.874l15.837,2.725c7.641,1.185,15.469,2.157,23.2,1.464
			c5.247-0.464,10.453-1.769,15.215-4.038c6.527-3.073,12.109-7.863,16.866-13.233c4.689-5.278,8.901-11.227,12.733-17.156
			c4.999-7.778,9.76-16.308,14.028-24.514c4.985-9.416,10.687-22.39,17.494-30.516c5.645-6.827,13.303-11.677,21.338-15.234
			c8.14-3.609,16.843-6.248,25.486-8.364c13.783-3.311,28.073-5.287,42.239-5.79c24.609-0.928,52.876,2.323,77.489,2.396
			c23.842-0.004,48.692-1.5,70.482-12.045c7.667-3.718,14.905-8.524,21.058-14.436c3.548-3.377,6.713-7.244,9.698-11.119
			c2.831-3.858,9.928-13.184,12.991-17.014c3.689-4.595,7.996-9.593,11.981-13.937c5.018-5.928,10.701-13.334,15.982-18.935
			c3.552-3.742,7.566-7.145,12.169-9.52c3.789-1.978,7.953-3.241,12.195-3.754c4.456-0.555,9.005-0.29,13.432,0.397
			c4.766,0.744,9.532,1.961,14.115,3.458c4.269,1.406,8.531,3.097,12.545,5.123c2.242,1.137,4.498,2.452,6.595,3.839
			c2.227,1.423,6.525,4.698,8.683,6.264c7.174,5.347,15.716,8.539,24.131,11.369c4.107,1.361,12.326,3.807,16.224,5.41
			c1.242,0.515,2.495,1.091,3.632,1.812c1.959,0.482,4.17,1.084,5.309,2.898c0.49,0.765,0.746,1.657,0.88,2.549
			c0.197,1.338,0.155,2.714-0.029,4.051c-0.278,1.912-0.841,3.824-1.882,5.466c-0.602,0.936-1.396,1.79-2.414,2.271
			c-2.135,6.94-5.788,13.53-11.093,18.544c-5.409,5.782-11.767,10.8-19.014,14.063c-3.374,1.54-6.992,2.737-10.567,3.719
			c-5.156,1.395-10.534,2.368-15.873,2.622c-3.565,0.137-7.279,0.093-10.632-1.263c-1.571-0.634-2.968-1.639-4.241-2.743
			l-2.288-2.02c-1.142-0.959-2.374-1.966-3.887-2.219c-1.095-0.192-2.221,0-3.267,0.343c-1.729,0.577-3.324,1.521-4.838,2.523
			c-2.449,2.449-4.524,5.294-6.358,8.225c-2.336,3.751-4.358,7.831-6.121,11.882c-3.044,7.035-5.505,14.486-7.494,21.889
			c-2.256,8.267-4.312,19.834-5.987,28.32c-1.874,9.336-4.717,18.583-9.131,27.045c-3.231,6.3-7.397,12.149-12.155,17.386
			c-9.99,19.688-17.988,40.804-20.648,62.828c-0.585,4.559-0.994,9.663-1.278,14.264c-0.567,10.175-1.083,22.539-1.215,32.679
			c-0.111,14.759-0.21,30.085,1.765,44.726c0.409,2.675,0.883,5.421,1.737,7.994c0.437,1.276,1.006,2.546,1.924,3.552
			c1.508,1.666,3.789,2.26,5.889,2.808c2.355,0.614,5.792,1.277,8.034,2.171c1.197,0.457,2.367,1.044,3.342,1.887
			c1.703,1.433,2.7,3.525,3.208,5.659c0.276,1.17,0.495,2.377,0.556,3.58c0.035,0.823-0.014,1.668-0.281,2.453
			c-0.216,0.644-0.602,1.234-1.124,1.672c-0.554,0.47-1.235,0.77-1.933,0.953c-1.249,0.324-2.586,0.417-3.871,0.508
			c-11.928,0.457-31.151,0.191-43.076,0.271c-1.951-0.016-3.974-0.054-5.856-0.624c-1.058-0.32-2.067-0.832-2.907-1.554
			c-0.904-0.769-1.604-1.759-2.12-2.823c-0.531-1.091-0.888-2.274-1.181-3.448c-0.537-2.16-0.842-4.496-1.116-6.706l-1.053-10.004
			c-0.415-3.796-1.156-7.616-2.324-11.253c-1.21-3.916-2.975-8.281-3.305-12.382c-0.225-2.448-0.1-5.038,0.038-7.493
			c0.466-6.831,0.954-14.984,0.752-21.779c-0.237-10.163-1.098-20.815-2.316-30.908c-0.848-6.693-1.884-13.764-3.504-20.311
			c-2.389-9.982-7.418-20.697-10.921-30.328c-14.976-1.081-30.328-2.776-45.059-5.718c-12.036-2.381-24.002-5.839-35.269-10.727
			c-12.522-5.313-27.013-13.02-40.583-14.645c-9.611-1.193-19.487,0.214-28.515,3.66c-6.72,2.562-13.025,6.27-18.557,10.862
			c-5.403,4.483-10.115,9.866-14.449,15.372c-5.994,7.605-14.019,19.508-20.055,27.08c-3.802,4.794-7.978,9.461-12.579,13.504
			c-8.26,7.343-17.939,13.135-27.651,18.344c-6.448,4.954-10.951,12.028-14.193,19.395c-1.855,4.241-3.295,8.716-4.27,13.242
			c-1.129,5.192-1.669,10.593-1.908,15.898c-0.369,8.967-0.062,18.331,0.586,27.283c0.223,2.107,0.37,4.476,1.898,6.098
			c1.233,1.313,3.004,1.925,4.707,2.365c2.748,0.67,5.874,1.122,8.377,2.498c3.173,1.745,5.867,5.065,5.729,8.833
			c-0.047,1.407-0.419,2.816-1.125,4.037c-0.371,0.627-0.843,1.227-1.488,1.588c-0.659,0.37-1.426,0.484-2.169,0.553
			c-1.206,0.112-3.15,0.083-4.38,0.094c-6.776,0.002-14.209-0.098-20.961-0.588c-1.416,0.325-2.903,0.442-4.352,0.515
			c-3.579,0.112-14.443,0.098-18.016,0.034c-1.8-0.08-3.657-0.362-5.232-1.29c-3.669-2.171-4.865-6.752-4.901-10.765
			c-0.044-5.861,2.281-14.89,3.315-20.707c1.915-10.107,3.251-20.765,3.87-31.032c0.293-4.428,0.273-11.468,0.31-15.939
			c0.072-3.1,0.221-6.268,1.027-9.275c0.543-2.03,1.424-3.971,2.521-5.76c1.157-1.894,2.564-3.677,4.01-5.357
			c5.997-6.738,13.494-13.87,19.123-20.941c3.88-4.775,7.461-9.909,10.494-15.263c3.721-6.541,6.78-13.531,9.222-20.646
			C185.435,433.142,187.317,425.076,188.923,417.645z"/>
	</g>
</g>
</svg>
