<?xml version="1.0" encoding="utf-8"?>
<!-- Generator: Adobe Illustrator 25.3.1, SVG Export Plug-In . SVG Version: 6.00 Build 0)  -->
<!DOCTYPE svg PUBLIC "-//W3C//DTD SVG 1.1//EN" "http://www.w3.org/Graphics/SVG/1.1/DTD/svg11.dtd" [
	<!ENTITY ns_extend "http://ns.adobe.com/Extensibility/1.0/">
	<!ENTITY ns_ai "http://ns.adobe.com/AdobeIllustrator/10.0/">
	<!ENTITY ns_graphs "http://ns.adobe.com/Graphs/1.0/">
	<!ENTITY ns_vars "http://ns.adobe.com/Variables/1.0/">
	<!ENTITY ns_imrep "http://ns.adobe.com/ImageReplacement/1.0/">
	<!ENTITY ns_sfw "http://ns.adobe.com/SaveForWeb/1.0/">
	<!ENTITY ns_custom "http://ns.adobe.com/GenericCustomNamespace/1.0/">
	<!ENTITY ns_adobe_xpath "http://ns.adobe.com/XPath/1.0/">
]>
<svg version="1.1" xmlns:x="&ns_extend;" xmlns:i="&ns_ai;" xmlns:graph="&ns_graphs;"
	 xmlns="http://www.w3.org/2000/svg" xmlns:xlink="http://www.w3.org/1999/xlink" x="0px" y="0px" width="750px" height="750px"
	 viewBox="0 0 750 750" enable-background="new 0 0 750 750" xml:space="preserve">
<metadata>
	<sfw  xmlns="&ns_sfw;">
		<slices></slices>
		<sliceSourceBounds  bottomLeftOrigin="true" height="10380.179" width="6859.54" x="-3380.54" y="-1314"></sliceSourceBounds>
	</sfw>
</metadata>
<g id="FILL-BACKGROUND">
	<rect fill="#FFFFFF" width="750" height="750"/>
</g>
<g id="N-DIMENSIONS">
</g>
<g id="N-TEXT">
</g>
<g id="_x32_D_x24_AG-DIAGRAM">
	<g id="POLYLINE_696_">
		<g>
			<g>
				
					<line fill="none" stroke="#FB8604" stroke-width="3.25" stroke-linecap="round" stroke-linejoin="round" x1="148.767" y1="595.699" x2="150.767" y2="595.699"/>
				
					<line fill="none" stroke="#FB8604" stroke-width="3.25" stroke-linecap="round" stroke-linejoin="round" stroke-dasharray="3.992,6.986" x1="157.753" y1="595.699" x2="560.445" y2="595.699"/>
				
					<line fill="none" stroke="#FB8604" stroke-width="3.25" stroke-linecap="round" stroke-linejoin="round" x1="563.938" y1="595.699" x2="565.938" y2="595.699"/>
			</g>
		</g>
	</g>
</g>
<g id="_x32_D_x24_AG-DETAILS-DIAGRAM">
</g>
<g id="_x32_D_x24_AG-DETAILS">
</g>
<g id="_x32_D_x24_AG-ANIMALS">
	<g id="POLYLINE_1087_">
		
			<path fill="none" stroke="#FB8604" stroke-width="2.75" stroke-linecap="round" stroke-linejoin="round" stroke-miterlimit="10" d="
			M638.997,331.317l0.131,1.455c0.244,4.522,0.989,10.612,0.602,15.071c-0.368,4.411-1.419,8.785-2.988,12.92
			c-1.806,4.638-4.531,9.048-8.376,12.264c-0.754,0.593-1.556,1.212-2.487,1.49c-0.183,0.046-0.381,0.078-0.564,0.021l-0.009-0.003
			l-0.008-0.003l-0.008-0.003l-0.008-0.003l-0.008-0.003l-0.008-0.004l-0.008-0.004l-0.008-0.004l-0.008-0.004l-0.008-0.004
			l-0.007-0.004l-0.007-0.004l-0.007-0.004l-0.007-0.005l-0.007-0.005l-0.007-0.005l-0.007-0.005l-0.007-0.005l-0.006-0.005
			l-0.006-0.005l-0.006-0.006l-0.006-0.006l-0.006-0.006l-0.006-0.006l-0.006-0.006l-0.006-0.006l-0.006-0.006l-0.006-0.006
			l-0.005-0.007l-0.005-0.007l-0.005-0.007l-0.005-0.007l-0.005-0.007l-0.005-0.007l-0.005-0.007
			c-0.062-0.098-0.09-0.214-0.104-0.328c-0.05-0.636,0.151-1.272,0.306-1.883l0.701-2.43c0.496-1.907,1.035-4.034,0.879-6.012
			c-0.038-0.277-0.081-0.592-0.268-0.812l-0.006-0.006l-0.006-0.006l-0.006-0.006l-0.006-0.006l-0.006-0.006l-0.006-0.005
			l-0.006-0.005l-0.006-0.005l-0.006-0.005l-0.006-0.005l-0.006-0.005l-0.007-0.004l-0.007-0.004l-0.007-0.004l-0.007-0.004
			l-0.007-0.004l-0.007-0.004l-0.007-0.003l-0.007-0.003l-0.007-0.003l-0.007-0.003l-0.007-0.003l-0.007-0.003l-0.007-0.002
			l-0.007-0.002l-0.007-0.002l-0.008-0.002l-0.008-0.002l-0.008-0.001l-0.008-0.001l-0.008-0.001l-0.008-0.001l-0.008-0.001
			l-0.008-0.001l-0.008,0l-0.008,0l-0.008,0l-0.008,0l-0.008,0l-0.008,0l-0.008,0.001l-0.009,0.001l-0.009,0.001l-0.009,0.001
			l-0.009,0.001l-0.009,0.002l-0.009,0.002l-0.009,0.002l-0.009,0.002l-0.009,0.002l-0.009,0.003
			c-0.395,0.134-0.74,0.603-0.99,0.927c-0.917,1.275-1.661,2.723-2.362,4.127c-0.828,1.711-1.615,3.51-2.187,5.324
			c-0.508,1.552-0.836,3.425-1.123,5.04c-0.1,0.513-0.222,1.034-0.401,1.525c-0.184,0.495-0.403,0.996-0.751,1.399
			c-0.103,0.112-0.22,0.223-0.369,0.267l-0.007,0.002l-0.007,0.002l-0.007,0.001l-0.007,0.001l-0.006,0.001l-0.006,0.001
			l-0.006,0.001l-0.006,0.001l-0.006,0.001l-0.006,0.001l-0.006,0l-0.006,0l-0.006,0h-0.006l-0.006,0l-0.006,0l-0.006,0
			l-0.006-0.001l-0.006-0.001l-0.006-0.001l-0.006-0.001l-0.006-0.001l-0.006-0.001l-0.006-0.001l-0.006-0.001l-0.006-0.002
			l-0.006-0.002l-0.006-0.002l-0.006-0.002l-0.006-0.002l-0.006-0.002l-0.006-0.003l-0.006-0.003l-0.006-0.003l-0.006-0.003
			l-0.006-0.003l-0.006-0.003l-0.006-0.003l-0.006-0.004l-0.006-0.004l-0.006-0.004l-0.005-0.004l-0.005-0.004l-0.005-0.004
			l-0.005-0.004l-0.005-0.005l-0.005-0.005l-0.005-0.005l-0.005-0.005l-0.005-0.005c-0.097-0.099-0.148-0.234-0.193-0.363
			c-0.323-1.081-0.271-2.378-0.634-3.447c-0.072-0.183-0.175-0.382-0.365-0.464l-0.006-0.003l-0.006-0.002l-0.006-0.002
			l-0.006-0.002l-0.006-0.002l-0.006-0.002l-0.006-0.002l-0.006-0.002l-0.006-0.002l-0.006-0.001l-0.006-0.001l-0.006-0.001
			l-0.006-0.001l-0.007-0.001l-0.007-0.001l-0.007-0.001l-0.007-0.001l-0.007-0.001l-0.007,0c-0.174-0.007-0.328,0.097-0.45,0.211
			c-0.212,0.203-0.364,0.462-0.492,0.723c-0.361,0.761-0.508,1.614-0.65,2.439l-0.382,2.505c-0.162,0.967-0.366,1.949-0.732,2.862
			c-0.157,0.378-0.337,0.759-0.615,1.063c-0.134,0.143-0.303,0.271-0.502,0.294c-0.159,0.019-0.315-0.04-0.447-0.125
			c-0.45-0.312-0.725-0.814-0.969-1.291c-0.361-0.738-0.605-1.54-0.77-2.344c-0.07-0.31-0.151-0.864-0.276-1.155l-0.003-0.005
			l-0.003-0.005l-0.003-0.005l-0.003-0.005l-0.003-0.004l-0.003-0.004l-0.003-0.004l-0.003-0.004l-0.003-0.004l-0.003-0.003
			l-0.003-0.003l-0.003-0.003l-0.003-0.003l-0.003-0.002l-0.003-0.002l-0.003-0.002l-0.003-0.002l-0.003-0.001l-0.003-0.001
			l-0.003-0.001l-0.003-0.001l-0.003,0h-0.003l-0.003,0l-0.003,0.001l-0.003,0.001l-0.003,0.001l-0.003,0.001l-0.003,0.002
			l-0.003,0.002l-0.003,0.002l-0.003,0.003l-0.003,0.003l-0.003,0.003l-0.003,0.003l-0.003,0.004l-0.003,0.004l-0.003,0.004
			l-0.003,0.005l-0.003,0.005l-0.003,0.005l-0.003,0.005l-0.004,0.006l-0.004,0.006c-0.458,1.066-2.149,13.372-2.437,14.8
			c-0.366,1.969-0.657,4.216-1.328,6.099c-0.091,0.218-0.185,0.447-0.351,0.619l-0.008,0.007l-0.008,0.007l-0.008,0.007
			l-0.008,0.006l-0.008,0.006l-0.008,0.006l-0.008,0.006l-0.008,0.005l-0.007,0.005l-0.008,0.005l-0.007,0.005l-0.007,0.004
			l-0.007,0.004l-0.007,0.004l-0.007,0.003l-0.007,0.003l-0.007,0.003l-0.007,0.003l-0.007,0.002l-0.007,0.002l-0.007,0.002
			l-0.007,0.002l-0.007,0.001l-0.007,0.001l-0.007,0.001l-0.007,0.001l-0.007,0l-0.007,0l-0.007,0l-0.007,0l-0.007-0.001
			l-0.007-0.001l-0.007-0.001l-0.007-0.001l-0.007-0.001l-0.007-0.002l-0.007-0.002l-0.007-0.002l-0.007-0.002l-0.007-0.003
			l-0.007-0.003l-0.007-0.003l-0.007-0.003l-0.007-0.004l-0.007-0.004l-0.007-0.004l-0.007-0.004l-0.007-0.004l-0.007-0.005
			l-0.007-0.005l-0.007-0.005l-0.007-0.005l-0.007-0.005l-0.007-0.006l-0.007-0.006c-0.088-0.077-0.154-0.176-0.213-0.276
			c-0.376-0.683-0.703-1.834-0.976-2.572c-0.298-0.801-0.611-1.625-1.132-2.31c-0.244-0.315-0.549-0.603-0.928-0.743
			c-0.535-0.198-1.124-0.096-1.65,0.08c-1.93,0.699-3.588,2.232-5.288,3.343c-1.976,1.318-4.23,2.183-6.501,2.842
			c-5.612,1.558-11.486,2.451-17.296,2.808c-3.55,0.17-7.23,0.168-10.61-1.062c-4.884-1.784-8.514-5.78-11.775-9.671
			c-3-3.663-5.809-7.59-8.25-11.649c-1.052-1.827-2.286-3.881-2.823-5.919"/>
	</g>
	<g id="POLYLINE_1086_">
		
			<path fill="none" stroke="#FB8604" stroke-width="2.75" stroke-linecap="round" stroke-linejoin="round" stroke-miterlimit="10" d="
			M638.695,322.757c-1.037-1.338-2.478-2.336-4.068-2.905c-2.427-0.864-5.068-0.899-7.617-0.882
			c-1.526,0.038-3.195,0.095-4.712,0.252c-0.835,0.094-1.677,0.245-2.464,0.543c-1.178,0.442-2.22,1.205-3.079,2.116
			c-0.98,1.044-1.732,2.317-2.102,3.704c-0.471,1.767-0.378,3.671,0.195,5.403c0.537,1.628,1.538,3.084,2.781,4.256
			c0.914,0.858,1.972,1.582,3.142,2.043c1.215,0.484,2.534,0.657,3.832,0.731c2.184,0.093,4.434,0.19,6.59-0.228
			c1.306-0.245,2.548-0.808,3.58-1.647c1.132-0.9,2.081-2.055,2.997-3.168c0.898-1.121,1.77-2.312,2.275-3.668
			C640.918,327.068,640.14,324.575,638.695,322.757z"/>
	</g>
	<g id="POLYLINE_1052_">
		
			<path fill="none" stroke="#FB8604" stroke-width="2.75" stroke-linecap="round" stroke-linejoin="round" stroke-miterlimit="10" d="
			M492.965,292.268c-1.694,1.223-2.898,3.001-3.931,4.79c-1.967,3.505-3.32,7.371-4.46,11.214c-1.385,4.773-2.456,9.713-2.63,14.691
			c-0.306,7.205,1.225,16.002,1.684,23.205c0.356,5.229,0.425,10.567-0.576,15.732c-0.916,4.987-3.071,10.715-4.18,15.664
			c-0.702,3.126-0.986,6.406-0.307,9.561c0.691,3.374,2.252,6.53,4.222,9.337c2.598,3.69,5.9,6.868,9.451,9.634
			c1.907,1.444,3.893,2.895,6.101,3.843c0.467,0.183,0.958,0.36,1.465,0.356l0.026-0.001l0.025-0.001l0.025-0.002l0.024-0.002
			l0.024-0.003l0.024-0.003l0.023-0.004l0.023-0.004l0.022-0.005l0.022-0.005l0.021-0.006l0.021-0.006l0.021-0.007l0.02-0.007
			l0.02-0.008l0.019-0.008l0.019-0.008l0.018-0.009l0.018-0.009l0.017-0.01l0.017-0.01l0.016-0.011l0.016-0.011l0.016-0.012
			l0.015-0.012l0.015-0.013l0.014-0.013l0.014-0.014l0.013-0.014l0.013-0.015l0.012-0.015l0.012-0.016l0.011-0.016l0.011-0.017
			l0.01-0.017l0.01-0.018l0.009-0.018l0.009-0.019l0.008-0.019l0.008-0.02l0.007-0.021l0.007-0.021l0.006-0.022
			c0.117-0.523-0.101-1.193-0.239-1.704c-0.199-0.704-0.557-1.654-0.656-2.376c-0.017-0.146-0.027-0.298,0.003-0.443l0.003-0.012
			l0.003-0.012l0.003-0.011l0.003-0.011l0.003-0.011l0.004-0.011l0.004-0.011l0.004-0.01l0.004-0.01l0.004-0.01l0.005-0.01
			l0.005-0.01l0.005-0.009l0.005-0.009l0.005-0.009l0.006-0.009l0.006-0.008l0.006-0.008l0.006-0.008l0.006-0.008l0.007-0.007
			l0.007-0.007l0.007-0.007l0.007-0.007l0.008-0.006l0.008-0.006l0.008-0.006l0.008-0.006l0.008-0.005l0.009-0.005l0.016-0.009
			l0.017-0.008l0.017-0.007l0.018-0.006l0.019-0.006l0.02-0.005l0.02-0.004l0.021-0.003l0.022-0.002l0.022-0.002l0.023-0.001
			l0.024,0l0.024,0.001l0.025,0.001l0.026,0.002l0.026,0.003l0.027,0.003l0.028,0.004l0.028,0.005l0.029,0.005
			c0.366,0.078,0.713,0.242,1.048,0.404c2.584,1.35,5.684,3.569,8.323,4.801c1.139,0.52,2.445,1.103,3.72,1.02l0.046-0.005
			l0.045-0.005l0.045-0.006l0.044-0.007l0.044-0.008l0.043-0.009l0.043-0.009l0.042-0.01l0.042-0.011l0.041-0.012l0.041-0.013
			l0.04-0.014c0.447-0.153,0.808-0.488,1.068-0.876c0.696-1.06,0.898-2.457,1.186-3.673c0.106-0.412,0.191-0.857,0.433-1.214
			l0.009-0.012l0.009-0.012l0.009-0.011l0.009-0.011l0.01-0.011l0.01-0.01l0.01-0.01l0.01-0.01l0.01-0.009l0.01-0.009l0.01-0.009
			l0.01-0.008l0.01-0.008l0.01-0.008l0.011-0.007l0.011-0.007l0.011-0.006l0.011-0.006l0.011-0.006l0.011-0.005l0.011-0.005
			l0.01-0.004l0.01-0.004l0.01-0.003l0.01-0.003l0.01-0.003l0.01-0.002l0.01-0.002l0.01-0.002l0.011-0.001l0.011-0.001l0.011-0.001
			l0.011-0.001l0.011,0l0.011,0l0.011,0l0.011,0l0.011,0.001l0.011,0.001l0.011,0.001l0.011,0.002l0.012,0.002l0.012,0.002
			l0.012,0.002l0.012,0.003l0.012,0.003l0.012,0.003c0.153,0.042,0.292,0.128,0.423,0.217c0.665,0.484,1.312,1.204,1.97,1.696
			c0.491,0.368,1.063,0.732,1.699,0.701l0.028-0.002l0.028-0.003l0.028-0.003l0.028-0.004l0.028-0.004l0.028-0.005l0.028-0.005
			l0.028-0.006l0.028-0.006l0.028-0.007c0.934-0.261,1.662-1.195,2.243-1.928c1.141-1.473,2.122-3.252,3.492-4.53
			c0.32-0.286,0.676-0.547,1.079-0.701c0.736-0.286,1.55-0.091,2.25,0.21c0.865,0.354,1.73,0.987,2.621,1.279
			c0.198,0.058,0.409,0.096,0.615,0.063l0.019-0.003l0.018-0.004l0.018-0.004l0.018-0.004l0.018-0.005l0.018-0.005l0.018-0.005
			l0.018-0.006l0.018-0.006l0.017-0.007l0.017-0.007l0.017-0.007l0.017-0.008l0.017-0.008l0.017-0.008l0.017-0.009l0.016-0.009
			l0.016-0.01l0.016-0.01l0.016-0.01l0.016-0.011l0.016-0.011l0.016-0.011l0.016-0.012c0.243-0.186,0.407-0.456,0.538-0.729
			c0.297-0.642,0.447-1.353,0.58-2.044c0.328-1.802,0.609-4.842,0.938-6.639c0.462-2.73,1.419-6.278,2.028-8.997
			c0.631-2.794,0.941-5.695,0.647-8.554c-0.339-3.662-1.565-7.206-2.915-10.605c-1.954-4.815-4.796-11.354-6.321-16.242
			c-1.115-3.48-2.019-7.118-2.682-10.711c-1.123-6.173-1.652-12.536-1.147-18.801c0.258-4.08,1.57-9.053,2.511-13.05
			c0.577-2.719,1.182-5.637,0.312-8.357c-0.8-2.406-2.802-4.203-4.966-5.408c-2.176-1.202-4.623-1.912-7.097-2.12
			c-3.398-0.315-7.481,0.463-10.863,0.896c-1.183,0.144-2.415,0.244-3.607,0.243c-1.326,0.006-3.506-0.1-4.81,0.015
			C495.736,290.964,494.21,291.372,492.965,292.268z"/>
	</g>
	<g id="POLYLINE_1051_">
		
			<path fill="none" stroke="#FB8604" stroke-width="2.75" stroke-linecap="round" stroke-linejoin="round" stroke-miterlimit="10" d="
			M528.433,296.794c1.05,0.547,2.168,1.178,3.383,1.177c0.469,0.004,0.935-0.1,1.374-0.26c1.367-0.512,2.718-1.462,4.032-2.091
			c0.779-0.381,1.604-0.703,2.463-0.844c1.417-0.24,3.057-0.042,4.488,0.031c1.354,0.068,2.783,0.02,4.007-0.627
			c2.33-1.216,3.794-3.656,6.095-4.906c1.253-0.677,2.777-0.428,4.133-0.304c0.911,0.082,1.87,0.06,2.682-0.411
			c1.198-0.67,2.18-1.833,3.317-2.59c0.691-0.48,1.496-0.803,2.34-0.86c2.126-0.164,4.269,0.661,6.376,0.787
			c0.89,0.065,1.822-0.156,2.688-0.344c0.621-0.129,1.283-0.199,1.894,0.011c0.615,0.211,1.144,0.619,1.648,1.02
			c0.977,0.77,1.999,1.851,3.175,2.303c1.286,0.493,2.445-0.45,3.704-0.428c0.581,0.013,1.09,0.346,1.527,0.702
			c0.91,0.742,1.743,1.785,2.77,2.375c0.342,0.195,0.724,0.332,1.119,0.355c1.162,0.067,2.364-0.598,3.421-1.004
			c0.802-0.32,1.646-0.574,2.509-0.357c1.076,0.25,2.039,0.911,3.122,1.141c0.715,0.165,1.465,0.096,2.165-0.106
			c0.909-0.264,1.767-0.727,2.477-1.354c0.438-0.393,0.828-0.86,1.049-1.41c0.341-0.845,0.192-1.795,0.206-2.682
			c0.008-0.463,0.069-0.936,0.275-1.356c0.206-0.423,0.536-0.773,0.881-1.087c0.975-0.879,2.27-1.629,3.186-2.573
			c0.405-0.417,0.758-0.907,0.909-1.475c0.374-1.409-0.209-3.071-0.457-4.463c-0.299-1.446-0.356-2.78,0.024-4.217
			c0.323-1.353,1.025-2.957,1.407-4.297c0.102-0.373,0.188-0.758,0.213-1.144c0.02-0.304-0.003-0.616-0.103-0.906
			c-0.125-0.371-0.356-0.696-0.607-0.992c-0.569-0.657-1.261-1.294-1.638-2.09c-0.355-0.725-0.465-1.543-0.527-2.34
			c-0.113-1.507,0.009-3.5-0.117-5.006c-0.052-0.601-0.138-1.212-0.343-1.782c-0.286-0.848-0.956-1.468-1.684-1.952
			c-0.687-0.471-1.522-0.931-2.013-1.616c-0.272-0.373-0.441-0.813-0.567-1.254c-0.313-1.104-0.393-2.406-0.77-3.492
			c-0.233-0.692-0.618-1.249-1.233-1.653c-1.324-0.904-3.187-1.115-4.196-2.455c-0.703-0.939-0.98-2.188-1.463-3.239
			c-0.161-0.344-0.351-0.684-0.619-0.956c-0.517-0.532-1.336-0.761-2.008-1.029c-0.396-0.157-0.79-0.342-1.13-0.601
			c-0.392-0.298-0.714-0.683-1.016-1.07c-0.629-0.783-1.262-1.904-2.256-2.239c-0.621-0.197-1.357-0.082-1.996-0.044
			c-0.463,0.027-0.954,0.036-1.383-0.166c-0.315-0.15-0.569-0.402-0.789-0.669c-0.466-0.57-0.897-1.377-1.372-1.94
			c-0.302-0.371-0.682-0.68-1.123-0.87c-0.745-0.336-1.754-0.456-2.545-0.653c-0.673-0.159-1.334-0.4-1.923-0.766
			c-1.156-0.7-2.22-1.761-3.362-2.481c-0.452-0.281-0.945-0.526-1.478-0.601c-0.84-0.121-1.716,0.228-2.51,0.459
			c-0.508,0.146-1.05,0.277-1.578,0.172c-0.593-0.125-1.086-0.515-1.544-0.892c-0.709-0.581-1.413-1.336-2.325-1.574
			c-0.874-0.208-1.846,0.112-2.705,0.282c-0.69,0.144-1.416,0.232-2.11,0.062c-1.426-0.344-2.677-1.406-4.048-1.891
			c-0.573-0.206-1.15-0.237-1.734-0.056c-1.255,0.382-2.402,1.336-3.781,1.194c-1.538-0.121-2.971-0.953-4.525-0.954
			c-0.723,0.003-1.406,0.292-2.04,0.616c-1.043,0.54-2.168,1.242-3.387,1.145c-2.13-0.18-4.118-1.543-6.26-1.68
			c-1.255-0.098-2.454,0.414-3.544,0.984c-1.273,0.645-2.674,1.626-4.148,1.624c-1.37,0.019-2.717-0.623-4.091-0.451
			c-0.63,0.083-1.218,0.358-1.766,0.67c-1.366,0.799-2.751,1.932-4.219,2.542c-1.411,0.619-3.222,0.767-4.738,0.986
			c-0.78,0.132-1.77,0.262-2.358,0.834c-0.373,0.378-0.508,0.955-0.674,1.444c-0.112,0.332-0.249,0.666-0.48,0.933
			c-0.176,0.207-0.407,0.361-0.655,0.467c-1.079,0.437-2.495,0.455-3.642,0.622c-0.633,0.091-1.287,0.189-1.865,0.478
			c-0.252,0.129-0.485,0.313-0.626,0.563c-0.383,0.7-0.231,1.598-0.248,2.364c-0.004,0.48-0.032,0.986-0.267,1.416
			c-0.157,0.286-0.415,0.504-0.691,0.672c-1.204,0.7-2.766,0.849-3.972,1.547c-0.294,0.172-0.572,0.386-0.776,0.662
			c-0.446,0.611-0.529,1.397-0.581,2.131c-0.049,0.717-0.033,1.651-0.246,2.337c-0.078,0.251-0.197,0.493-0.375,0.688
			c-0.505,0.549-1.31,0.776-1.979,1.059c-0.554,0.229-1.131,0.508-1.486,1.011c-0.182,0.258-0.3,0.558-0.383,0.861
			c-0.246,0.892-0.251,2.19-0.319,3.116c-0.073,0.978-0.197,2.015-0.796,2.827c-0.651,0.951-1.782,1.565-2.277,2.619
			c-0.23,0.512-0.211,1.092-0.136,1.636c0.213,1.562,0.985,3.146,0.823,4.746c-0.096,0.789-0.504,1.52-0.869,2.214
			c-0.286,0.549-0.566,1.131-0.613,1.757c-0.037,0.495,0.059,0.991,0.184,1.468c0.327,1.194,0.884,2.466,1.061,3.696
			c0.339,1.934-0.623,3.842-1.254,5.618c-0.26,0.741-0.5,1.513-0.522,2.304c-0.061,1.611,1.16,2.906,1.989,4.17
			c0.294,0.448,0.575,0.925,0.708,1.449c0.17,0.664,0.043,1.359-0.125,2.011c-0.234,0.904-0.593,1.926-0.454,2.867
			c0.248,1.656,1.449,3.081,2.629,4.2"/>
	</g>
	<g id="POLYLINE_1050_">
		
			<path fill="none" stroke="#FB8604" stroke-width="2.75" stroke-linecap="round" stroke-linejoin="round" stroke-miterlimit="10" d="
			M602.953,291.536c-0.711,2.997-0.996,6.325,0.39,9.175c0.778,1.586,2.009,2.91,3.359,4.03c4.421,3.639,10.259,5.399,15.501,7.502
			c1.843,0.744,3.689,1.613,5.382,2.658c2.248,1.366,4.386,3.06,6.407,4.741"/>
	</g>
	<g id="POLYLINE_1043_">
		
			<path fill="none" stroke="#FB8604" stroke-width="2.75" stroke-linecap="round" stroke-linejoin="round" stroke-miterlimit="10" d="
			M482.133,330.538c-2.049,4.773-4.344,9.557-7.36,13.798c-4.868,6.855-11.055,12.745-17.591,17.994
			c-8.267,6.547-17.592,12.152-27.959,14.53c-6.121,1.452-12.494,1.875-18.771,1.767c-12.258-0.111-32.972-3.144-45.335-4.436
			c-16.799-1.761-34.038-2.474-50.919-2.234c-14.395,0.257-29.054,1.046-43.224,3.702c-17.727,3.307-34.808,10.019-50.731,18.39
			c-12.914,6.589-30.063,18.549-42.28,26.652c-7.018,4.581-14.359,9.128-21.976,12.644c-5.122,2.355-10.519,4.314-16.078,5.323
			c-4.14,0.778-8.425,0.861-12.625,0.714c-5.974-0.243-13.071-0.746-18.984-0.229c-5.028,0.402-10.05,1.43-14.897,2.81
			c-2.849,0.844-5.76,1.766-8.402,3.141c-0.567,0.315-1.151,0.645-1.601,1.12l-0.024,0.027l-0.023,0.027l-0.022,0.026l-0.021,0.026
			l-0.02,0.026l-0.019,0.026l-0.018,0.026l-0.017,0.025l-0.016,0.025l-0.014,0.025l-0.013,0.025l-0.012,0.025l-0.011,0.025
			l-0.01,0.024l-0.009,0.024l-0.008,0.024l-0.007,0.024l-0.006,0.024l-0.005,0.023l-0.004,0.023l-0.003,0.023l-0.001,0.023l0,0.023
			l0.001,0.022l0.002,0.022l0.003,0.022l0.004,0.022l0.005,0.022l0.003,0.01l0.003,0.01l0.003,0.01l0.003,0.009l0.004,0.009
			l0.004,0.009l0.004,0.009l0.004,0.009l0.005,0.009l0.005,0.009l0.005,0.009l0.005,0.009l0.005,0.009l0.006,0.009l0.006,0.009
			c0.286,0.406,1.153,0.726,1.599,0.971c0.948,0.476,1.933,1.141,2.091,2.274c0.092,0.579,0.031,1.174-0.065,1.749
			c-0.259,1.552-0.923,3.222-1.174,4.775c-0.051,0.377-0.087,0.772,0.018,1.143l0.007,0.021l0.007,0.021l0.007,0.021l0.008,0.021
			l0.008,0.02l0.008,0.02l0.009,0.02l0.009,0.019l0.009,0.019l0.01,0.019l0.01,0.018l0.01,0.018l0.011,0.018l0.011,0.017
			l0.011,0.017l0.012,0.017l0.012,0.016l0.013,0.016l0.013,0.016l0.013,0.015l0.014,0.015l0.014,0.015l0.014,0.014l0.015,0.014
			l0.015,0.014l0.016,0.013l0.015,0.012l0.015,0.012l0.016,0.011l0.016,0.011l0.016,0.011l0.017,0.01l0.017,0.01l0.017,0.01
			l0.018,0.01l0.018,0.009l0.018,0.009l0.018,0.009l0.019,0.008l0.019,0.008c0.239,0.098,0.502,0.123,0.759,0.128
			c0.629,0.005,1.269-0.112,1.886-0.228c1.057-0.195,2.511-0.585,3.58-0.566c0.218,0.007,0.44,0.032,0.644,0.111l0.019,0.008
			l0.019,0.008l0.018,0.008l0.018,0.008l0.018,0.009l0.017,0.009l0.017,0.009l0.017,0.01l0.016,0.01l0.016,0.01l0.016,0.01
			l0.015,0.011l0.015,0.011l0.015,0.011l0.014,0.012l0.014,0.012l0.014,0.012l0.013,0.013l0.011,0.011l0.011,0.011l0.011,0.012
			l0.01,0.012l0.01,0.012l0.01,0.012l0.01,0.013l0.009,0.013l0.009,0.013l0.009,0.013l0.009,0.013l0.008,0.014l0.008,0.014
			l0.008,0.014l0.008,0.014l0.007,0.015l0.007,0.015l0.007,0.015l0.007,0.015c0.086,0.203,0.105,0.429,0.104,0.648
			c-0.028,0.994-0.371,2.028-0.459,3.016c-0.044,0.526-0.056,1.117,0.273,1.561l0.012,0.016l0.012,0.015l0.013,0.015l0.013,0.015
			l0.013,0.015l0.013,0.014l0.014,0.014l0.014,0.014l0.014,0.014l0.015,0.014l0.015,0.013l0.025,0.021l0.026,0.021l0.027,0.02
			l0.028,0.02l0.028,0.019l0.029,0.019l0.03,0.018l0.031,0.017l0.031,0.017l0.032,0.016l0.033,0.016l0.034,0.015l0.034,0.015
			l0.035,0.014l0.036,0.014l0.037,0.013l0.037,0.013c0.438,0.139,0.907,0.161,1.364,0.157c2.362-0.078,5.201-0.84,7.533-1.282
			c1.189-0.226,2.424-0.456,3.636-0.489c0.498-0.008,1.011,0.011,1.489,0.165l0.038,0.013l0.037,0.013l0.036,0.014l0.036,0.015
			l0.035,0.015l0.034,0.016l0.033,0.016l0.033,0.017l0.032,0.017l0.031,0.018l0.03,0.018l0.03,0.019l0.029,0.02l0.028,0.02
			l0.027,0.021l0.027,0.021l0.026,0.022l0.025,0.022l0.024,0.023l0.016,0.016l0.015,0.016l0.015,0.016l0.015,0.017l0.014,0.017
			l0.014,0.017l0.014,0.017l0.013,0.018l0.013,0.018l0.012,0.018l0.012,0.018l0.012,0.019l0.011,0.019l0.011,0.019l0.011,0.019
			l0.01,0.02l0.01,0.02c0.319,0.681,0.134,1.556-0.007,2.266c-0.207,1.012-0.629,2.217-0.652,3.253c0,0.211,0.02,0.426,0.092,0.626
			l0.007,0.019l0.007,0.019l0.008,0.019l0.008,0.018l0.008,0.018l0.009,0.018l0.009,0.018l0.009,0.017l0.01,0.017l0.01,0.017
			l0.01,0.017l0.011,0.016l0.011,0.016l0.011,0.016l0.012,0.015l0.012,0.015l0.012,0.015l0.013,0.015l0.013,0.014l0.013,0.014
			l0.014,0.014l0.014,0.013l0.021,0.019l0.022,0.018l0.022,0.018l0.023,0.017l0.024,0.017l0.025,0.016l0.025,0.015l0.026,0.015
			l0.027,0.014l0.027,0.014l0.028,0.013l0.029,0.013l0.029,0.012l0.03,0.011l0.031,0.011l0.031,0.01l0.032,0.01l0.033,0.009
			l0.033,0.009l0.034,0.008l0.035,0.008c0.412,0.085,0.842,0.062,1.258,0.021c2.19-0.263,5.059-1.246,7.214-1.739
			c0.993-0.232,2.025-0.452,3.045-0.506c0.53-0.024,1.076-0.01,1.583,0.157l0.039,0.013l0.038,0.014l0.038,0.015l0.037,0.015
			l0.036,0.016l0.036,0.016l0.035,0.017l0.035,0.018l0.034,0.018l0.033,0.019l0.033,0.019l0.032,0.02l0.031,0.021l0.031,0.021
			l0.03,0.022c0.553,0.414,0.728,1.136,0.8,1.789c0.134,1.174-0.076,2.447,0.079,3.618c0.035,0.212,0.087,0.427,0.195,0.615
			l0.009,0.016l0.01,0.015l0.01,0.015l0.01,0.015l0.01,0.015l0.01,0.014l0.011,0.014l0.011,0.014l0.011,0.013l0.011,0.013
			l0.012,0.013l0.012,0.012l0.012,0.012l0.012,0.012l0.013,0.012l0.013,0.011l0.013,0.011l0.013,0.011l0.014,0.01l0.014,0.01
			l0.014,0.01l0.014,0.009l0.015,0.009l0.015,0.009l0.015,0.008l0.015,0.008l0.016,0.008l0.021,0.009l0.022,0.009l0.022,0.008
			l0.022,0.008l0.023,0.007l0.023,0.006l0.024,0.006l0.024,0.005l0.025,0.005l0.025,0.004l0.026,0.004l0.026,0.003l0.026,0.003
			l0.027,0.002l0.027,0.001l0.028,0.001l0.028,0l0.029,0c0.298-0.006,0.593-0.082,0.876-0.171c1.49-0.488,3.761-1.868,5.169-2.601
			c0.826-0.43,1.684-0.874,2.576-1.152c0.318-0.094,0.649-0.172,0.982-0.164l0.03,0.001l0.029,0.002l0.029,0.002l0.029,0.003
			l0.028,0.003l0.028,0.004l0.027,0.004l0.027,0.005l0.026,0.006l0.026,0.006l0.026,0.007l0.025,0.007l0.025,0.008l0.024,0.009
			l0.024,0.009l0.023,0.01l0.023,0.01l0.022,0.011l0.022,0.012l0.022,0.012l0.016,0.01l0.016,0.01l0.015,0.01l0.015,0.011
			l0.015,0.011l0.015,0.011l0.014,0.012l0.014,0.012l0.014,0.012l0.014,0.013l0.013,0.013l0.013,0.013l0.013,0.014l0.013,0.014
			l0.012,0.014l0.012,0.015l0.012,0.015l0.012,0.015l0.011,0.016l0.011,0.016l0.011,0.016l0.011,0.017
			c0.137,0.216,0.204,0.47,0.248,0.72c0.089,0.537,0.076,1.1,0.064,1.642c-0.016,0.916-0.126,1.973,0.068,2.871
			c0.044,0.184,0.106,0.366,0.208,0.526l0.011,0.017l0.011,0.016l0.011,0.016l0.011,0.016l0.012,0.015l0.012,0.015l0.012,0.015
			l0.012,0.014l0.013,0.014l0.013,0.014l0.013,0.013l0.013,0.013l0.014,0.013l0.014,0.012l0.014,0.012l0.014,0.012l0.015,0.011
			l0.015,0.011l0.015,0.011l0.015,0.01l0.016,0.01l0.016,0.01l0.023,0.013l0.023,0.012l0.024,0.011l0.024,0.011l0.025,0.01
			l0.025,0.009l0.026,0.009l0.026,0.008l0.027,0.008l0.027,0.007l0.028,0.006l0.028,0.006l0.029,0.005l0.029,0.004l0.03,0.004
			l0.03,0.003l0.031,0.003l0.031,0.002l0.031,0.001l0.032,0.001l0.032,0c0.349-0.004,0.694-0.093,1.025-0.198
			c1.794-0.618,3.826-1.887,5.514-2.773c0.926-0.486,1.887-0.987,2.885-1.307c0.386-0.119,0.79-0.217,1.196-0.205l0.034,0.002
			l0.033,0.002l0.033,0.003l0.033,0.003l0.032,0.004l0.032,0.005l0.031,0.005l0.031,0.006l0.03,0.007l0.03,0.007l0.029,0.008
			l0.029,0.008l0.028,0.009l0.028,0.01l0.028,0.01l0.027,0.011l0.027,0.012l0.026,0.012l0.017,0.009l0.017,0.009l0.016,0.009
			l0.016,0.009l0.016,0.01l0.016,0.01l0.016,0.01l0.015,0.011l0.015,0.011l0.015,0.011l0.015,0.011l0.015,0.012l0.014,0.012
			c0.184,0.156,0.31,0.37,0.401,0.591c0.194,0.483,0.257,1.013,0.311,1.528l0.107,1.268c0.057,0.477,0.089,1.001,0.352,1.417
			l0.009,0.013l0.009,0.012l0.009,0.012l0.009,0.012l0.009,0.011l0.01,0.011l0.01,0.011l0.01,0.011l0.01,0.01l0.01,0.01l0.01,0.01
			l0.011,0.009l0.011,0.009l0.011,0.009l0.011,0.009l0.011,0.008l0.011,0.008l0.012,0.008l0.012,0.007l0.012,0.007l0.012,0.007
			l0.012,0.006l0.012,0.006l0.013,0.006l0.013,0.005l0.017,0.007l0.018,0.006l0.018,0.006l0.018,0.005l0.018,0.005l0.019,0.004
			l0.019,0.003l0.019,0.003l0.02,0.002l0.02,0.002l0.02,0.001l0.021,0.001l0.021,0l0.021,0l0.021-0.001l0.022-0.001l0.022-0.002
			l0.022-0.002l0.023-0.003l0.023-0.003l0.023-0.004c0.809-0.17,1.667-0.841,2.342-1.313c1.267-0.918,2.811-2.221,4.207-2.905
			c0.313-0.146,0.645-0.276,0.993-0.303l0.026-0.002l0.026-0.001l0.026-0.001l0.026,0l0.025,0l0.025,0.001l0.025,0.001l0.025,0.002
			l0.024,0.002l0.024,0.003l0.024,0.004l0.024,0.004l0.023,0.005l0.023,0.005l0.023,0.006l0.02,0.005l0.019,0.006l0.019,0.006
			l0.019,0.007l0.019,0.007l0.019,0.008l0.018,0.008l0.018,0.008l0.018,0.009l0.018,0.009l0.018,0.01l0.017,0.01l0.017,0.01
			l0.017,0.011l0.017,0.011l0.017,0.012l0.017,0.012l0.016,0.012l0.016,0.013l0.016,0.013l0.016,0.013l0.016,0.014l0.016,0.014
			l0.015,0.014c0.182,0.175,0.309,0.401,0.412,0.629c0.494,1.182,0.613,2.58,1.049,3.782c0.258,0.723,0.656,1.502,1.407,1.804
			l0.042,0.016l0.043,0.015l0.043,0.014l0.044,0.013l0.045,0.012l0.045,0.011l0.046,0.01l0.046,0.01l0.047,0.009l0.048,0.008
			l0.048,0.007l0.049,0.006l0.049,0.005l0.05,0.004l0.051,0.003c0.716,0.033,1.425-0.158,2.099-0.384
			c1.651-0.579,3.218-1.463,4.731-2.334l5.043-3.037c0.865-0.501,1.788-1.032,2.706-1.424c0.379-0.157,0.773-0.306,1.181-0.365
			l0.039-0.005l0.038-0.004l0.038-0.003l0.037-0.002l0.036-0.002l0.035-0.001l0.035,0l0.034,0.001l0.033,0.002l0.033,0.003
			l0.032,0.004l0.031,0.004l0.03,0.005l0.015,0.003l0.015,0.003l0.015,0.004l0.015,0.004l0.015,0.004l0.014,0.004l0.014,0.004
			l0.014,0.005l0.014,0.005l0.014,0.005l0.013,0.005l0.013,0.006l0.013,0.006l0.013,0.006l0.013,0.006l0.013,0.007l0.012,0.007
			l0.012,0.007l0.012,0.007l0.012,0.007l0.012,0.008l0.011,0.008l0.011,0.008l0.011,0.008l0.011,0.008l0.011,0.009l0.011,0.009
			l0.01,0.009l0.01,0.009l0.01,0.009l0.01,0.01l0.01,0.01l0.01,0.01c0.123,0.129,0.2,0.295,0.254,0.463
			c0.172,0.546,0.188,1.333,0.248,1.905c0.069,0.671,0.172,1.367,0.518,1.958c0.195,0.333,0.476,0.611,0.793,0.827
			c1.078,0.709,2.416,0.867,3.679,0.911c2.373,0.03,4.771-0.403,6.975-1.288"/>
	</g>
	<g id="POLYLINE_1042_">
		
			<path fill="none" stroke="#FB8604" stroke-width="2.75" stroke-linecap="round" stroke-linejoin="round" stroke-miterlimit="10" d="
			M206.55,437.829l-0.905,5.044c-0.659,3.455-1.567,6.92-3.072,10.109c-1.398,3.038-3.358,5.807-5.473,8.386l-5.757,6.825
			c-0.753,0.941-1.532,1.921-2.124,2.972c-0.204,0.375-0.396,0.769-0.48,1.19l-0.006,0.035l-0.006,0.035l-0.005,0.034l-0.004,0.034
			l-0.003,0.033l-0.003,0.033l-0.002,0.033l-0.001,0.032l0,0.032l0,0.031l0.001,0.031l0.002,0.03l0.003,0.03l0.003,0.03l0.004,0.029
			l0.005,0.029l0.006,0.028l0.007,0.028l0.007,0.027l0.008,0.027l0.009,0.026l0.01,0.026l0.011,0.025l0.011,0.025l0.012,0.025
			l0.013,0.024l0.014,0.024l0.015,0.023l0.016,0.023c0.107,0.149,0.261,0.256,0.422,0.341c0.699,0.359,1.573,0.424,2.265,0.798
			c0.233,0.128,0.452,0.328,0.502,0.601l0.005,0.026l0.004,0.027l0.003,0.027l0.002,0.028l0.001,0.028l0,0.029l0,0.029l-0.001,0.03
			l-0.002,0.03l-0.003,0.031l-0.004,0.031l-0.005,0.032l-0.005,0.032l-0.006,0.033l-0.007,0.033l-0.008,0.033l-0.009,0.034
			c-0.123,0.449-0.367,0.858-0.614,1.248c-1.527,2.264-4.016,4.774-5.728,6.904c-0.764,0.941-1.535,1.925-2.131,2.983
			c-0.275,0.501-0.529,1.034-0.613,1.605l-0.005,0.041c-0.04,0.319-0.003,0.648,0.116,0.947c0.164,0.419,0.466,0.769,0.786,1.079
			c0.588,0.592,1.463,1.125,1.711,1.96l0.008,0.031l0.008,0.031l0.007,0.032l0.006,0.032l0.006,0.032l0.005,0.032l0.004,0.033
			l0.004,0.033l0.003,0.033l0.002,0.033l0.002,0.034l0.001,0.034l0,0.034l0,0.034l-0.001,0.034
			c-0.017,0.457-0.177,0.896-0.369,1.307c-0.445,0.924-1.081,1.771-1.705,2.582c-2.229,2.813-4.989,5.842-6.935,8.854
			c-1.214,1.847-2.231,3.838-3.046,5.891c-0.871,2.242-1.599,4.586-1.791,6.994c-0.035,0.711-0.061,1.483,0.238,2.144l0.012,0.023
			l0.012,0.023l0.012,0.022l0.012,0.022l0.013,0.021l0.013,0.02l0.013,0.02l0.014,0.019l0.014,0.019l0.014,0.018l0.014,0.018
			l0.015,0.017l0.015,0.017l0.015,0.016l0.015,0.016l0.016,0.015l0.016,0.014l0.016,0.014l0.016,0.013l0.017,0.013l0.017,0.012
			l0.017,0.012l0.018,0.011l0.018,0.01c0.335,0.18,0.762,0.08,1.123,0.055c0.313-0.028,0.686-0.027,0.906,0.235l0.016,0.019
			l0.016,0.02l0.015,0.021l0.015,0.022l0.014,0.023l0.014,0.023l0.014,0.024l0.013,0.025l0.013,0.026l0.012,0.027l0.012,0.028
			l0.012,0.028l0.011,0.029l0.011,0.03l0.011,0.031c0.155,0.492,0.163,1.02,0.164,1.531c-0.109,3.499-1.133,8.182-1.547,11.667
			c-0.242,2.15-0.597,4.463,0.329,6.502c0.339,0.763,0.732,1.611,0.841,2.442c0.238,1.796-0.013,3.665-0.207,5.456l-0.896,6.627
			c-0.199,1.673-0.396,3.417-0.319,5.102c0.047,1.112,0.236,2.234,0.5,3.314c1.58,5.487,1.852,11.464,2.24,17.137
			c0.073,2.942,0.199,5.968,0.87,8.841c0.31,1.265,0.734,2.544,1.524,3.595c0.416,0.552,0.956,1.016,1.586,1.307
			c0.725,0.34,1.529,0.472,2.32,0.543c1.301,0.165,28.323,0.066,30.036,0.064c1.094-0.04,2.27-0.171,3.043-1.036
			c0.773-0.865,1.154-2.005,1.448-3.107c0.69-2.782,0.667-5.703,0.321-8.534c-0.211-1.55-0.491-3.123-1.097-4.572
			c-0.34-0.795-0.851-1.544-1.582-2.025c-1.476-0.969-3.636-0.97-5.341-1.215c-1.187-0.164-2.623-0.329-3.297-1.457
			c-0.456-0.769-0.559-1.687-0.667-2.559c-0.238-2.275-0.169-4.6,0.144-6.865c0.194-1.454,0.538-2.916,1.26-4.205
			c1.563-2.787,4.129-4.851,6.641-6.75c1.705-1.185,3.499-2.629,5.296-3.672c0.815-0.446,1.754-0.781,2.513-1.325
			c0.522-0.365,0.987-0.812,1.403-1.293c1.126-1.286,2.104-2.92,3.294-4.15c0.176-0.168,0.363-0.338,0.59-0.434l0.013-0.005
			l0.013-0.005l0.013-0.005l0.013-0.004l0.013-0.004l0.013-0.003l0.012-0.003l0.012-0.003l0.012-0.003l0.012-0.002l0.012-0.002
			l0.012-0.002l0.012-0.001l0.012-0.001l0.012-0.001l0.012,0l0.011,0l0.011,0l0.011,0.001l0.011,0.001l0.011,0.002l0.011,0.002
			l0.011,0.002l0.011,0.003l0.011,0.003l0.01,0.003l0.01,0.004l0.01,0.004l0.01,0.004l0.01,0.005l0.01,0.005l0.01,0.005l0.01,0.006
			l0.01,0.006l0.006,0.004l0.006,0.004l0.006,0.004l0.006,0.005l0.006,0.005l0.006,0.005c0.201,0.19,0.281,0.502,0.365,0.758
			c0.131,0.399,0.259,1.154,0.571,1.43l0.006,0.005l0.006,0.005l0.006,0.005l0.006,0.004l0.006,0.004l0.006,0.004l0.006,0.004
			l0.006,0.004l0.006,0.004l0.006,0.003l0.006,0.003l0.007,0.003l0.007,0.003l0.007,0.003l0.007,0.003l0.007,0.003l0.007,0.002
			l0.007,0.002l0.007,0.002l0.007,0.002l0.007,0.002l0.007,0.002l0.007,0.001l0.007,0.001l0.007,0.001l0.007,0.001l0.007,0.001
			l0.007,0l0.007,0l0.007,0l0.008,0l0.008,0l0.016-0.001l0.016-0.002l0.016-0.002l0.016-0.003l0.017-0.004l0.017-0.005l0.017-0.005
			l0.017-0.006l0.018-0.007l0.018-0.008l0.018-0.008l0.018-0.009l0.018-0.01l0.019-0.01l0.019-0.011l0.019-0.012l0.019-0.012
			l0.019-0.013c0.237-0.167,0.434-0.39,0.62-0.61c0.499-0.605,0.952-1.3,1.379-1.958c0.863-1.327,2.352-3.875,3.349-5.067
			c0.19-0.222,0.391-0.447,0.632-0.615l0.02-0.013l0.02-0.013l0.02-0.012l0.019-0.011l0.019-0.011l0.019-0.01l0.019-0.009
			l0.018-0.008l0.018-0.008l0.018-0.007l0.018-0.006l0.018-0.006l0.017-0.005l0.017-0.004l0.017-0.003l0.017-0.003l0.016-0.002
			l0.016-0.001l0.007,0l0.007,0h0.007l0.007,0l0.007,0l0.007,0l0.007,0.001l0.007,0.001l0.007,0.001l0.007,0.001l0.007,0.001
			l0.007,0.001l0.007,0.001l0.006,0.001l0.006,0.002l0.006,0.002l0.006,0.002l0.006,0.002l0.006,0.002l0.006,0.002l0.006,0.002
			l0.006,0.003l0.006,0.003l0.006,0.003l0.006,0.003l0.006,0.003l0.006,0.003l0.006,0.003c0.224,0.138,0.327,0.423,0.426,0.655
			l0.174,0.456c0.078,0.184,0.148,0.39,0.303,0.523l0.005,0.004l0.005,0.003l0.005,0.003l0.005,0.003l0.005,0.003l0.005,0.003
			l0.005,0.003l0.005,0.003l0.005,0.003l0.005,0.003l0.005,0.002l0.005,0.002l0.01,0.004l0.011,0.004l0.011,0.003l0.011,0.003
			l0.011,0.002l0.011,0.002l0.011,0.001l0.011,0.001l0.011,0l0.012,0l0.012-0.001l0.012-0.001l0.012-0.002l0.012-0.002l0.012-0.003
			l0.012-0.003l0.012-0.004l0.012-0.004l0.013-0.005l0.013-0.005l0.013-0.006l0.013-0.006l0.013-0.007l0.013-0.007l0.013-0.008
			l0.013-0.008l0.013-0.009l0.014-0.009l0.014-0.01c0.201-0.148,0.359-0.349,0.51-0.546c1.037-1.455,1.981-3.362,2.984-4.841
			c0.5-0.739,1.032-1.488,1.723-2.062c0.464-0.387,1.009-0.669,1.571-0.884c0.699-0.267,1.491-0.52,2.065-1.013
			c0.594-0.491,0.999-1.169,1.36-1.839c1.052-1.952,1.823-4.6,2.901-6.539c0.158-0.26,0.33-0.525,0.569-0.718l0.015-0.012
			l0.015-0.011l0.015-0.011l0.015-0.01l0.015-0.01l0.015-0.009c0.339-0.216,0.741-0.03,1.096,0.041
			c0.349,0.081,0.718,0.037,1.03-0.143l0.031-0.017l0.031-0.018c0.349-0.214,0.646-0.51,0.924-0.809
			c1.039-1.157,1.901-2.521,2.739-3.828c1.587-2.474,3.378-5.773,5.153-8.102c0.265-0.326,0.54-0.659,0.882-0.907l0.025-0.017
			l0.025-0.016l0.025-0.016l0.024-0.015l0.024-0.014l0.024-0.013c0.119-0.063,0.255-0.099,0.391-0.089
			c0.212,0.015,0.409,0.129,0.605,0.202c0.221,0.089,0.47,0.111,0.699,0.041l0.028-0.008l0.028-0.009l0.028-0.01l0.029-0.011
			l0.029-0.012l0.03-0.012c0.386-0.171,0.727-0.438,1.051-0.705c1.86-1.581,4.569-4.904,6.239-6.747
			c1.127-1.235,2.284-2.575,3.609-3.596c0.274-0.202,0.563-0.396,0.885-0.515c0.208-0.076,0.431-0.114,0.652-0.097
			c0.306,0.02,0.622,0.153,0.915,0.24c0.249,0.075,0.513,0.113,0.772,0.076c0.591-0.093,1.128-0.397,1.646-0.683
			c2.205-1.278,4.482-3.039,7.061-3.432c0.761-0.113,1.542-0.072,2.297,0.065c1.489,0.255,3.107,0.98,4.511,1.533
			c0.59,0.228,1.206,0.458,1.832,0.563c0.301,0.048,0.613,0.064,0.913,0.002c0.336-0.067,0.648-0.222,0.942-0.394
			c0.44-0.258,0.913-0.59,1.415-0.702c0.398-0.098,0.819-0.061,1.208,0.057c0.504,0.15,0.983,0.392,1.441,0.647
			c2.087,1.168,4.262,3.056,6.409,4.117c0.441,0.202,0.911,0.394,1.403,0.393l0.026-0.001l0.026-0.001
			c0.461-0.018,0.844-0.316,1.153-0.634c0.356-0.349,0.73-0.849,1.28-0.831l0.02,0.001l0.02,0.001l0.02,0.002l0.02,0.002l0.02,0.002
			l0.021,0.003c0.674,0.123,1.332,0.674,1.861,1.093c1.452,1.193,2.819,2.664,4.408,3.678c0.394,0.242,0.814,0.462,1.267,0.564
			c0.951,0.231,1.896-0.233,2.777-0.533c0.549-0.186,1.133-0.306,1.714-0.25c0.977,0.09,1.852,0.605,2.657,1.131
			c3.974,2.739,7.313,6.897,11.179,9.774c0.579,0.403,1.188,0.807,1.879,0.984l0.04,0.009l0.039,0.008l0.039,0.007l0.038,0.006
			c0.424,0.074,0.854-0.04,1.231-0.234c0.363-0.177,0.741-0.44,1.152-0.486c0.221-0.026,0.447,0.02,0.647,0.115
			c0.329,0.156,0.611,0.399,0.875,0.646c0.686,0.659,1.286,1.439,1.861,2.194c1.082,1.415,2.784,3.999,3.995,5.278
			c0.225,0.23,0.462,0.461,0.744,0.62l0.022,0.012l0.022,0.011l0.021,0.01l0.021,0.01l0.021,0.009l0.021,0.008l0.02,0.008
			l0.02,0.007l0.02,0.006l0.02,0.006l0.02,0.005l0.019,0.004l0.019,0.004l0.019,0.003l0.019,0.002l0.018,0.002l0.018,0.001l0.018,0
			l0.008,0l0.008,0l0.008,0l0.008-0.001l0.008-0.001l0.008-0.001l0.008-0.001l0.008-0.001l0.008-0.001l0.008-0.001l0.008-0.002
			l0.008-0.002l0.008-0.002l0.008-0.002l0.007-0.002l0.007-0.002l0.007-0.003l0.007-0.003l0.007-0.003l0.007-0.003
			c0.247-0.11,0.377-0.371,0.504-0.595l0.215-0.41c0.185-0.336,0.412-0.736,0.822-0.813l0.022-0.003l0.022-0.003l0.022-0.002
			l0.023-0.002l0.023-0.001l0.023,0l0.023,0l0.024,0.001l0.024,0.001l0.024,0.002l0.025,0.003l0.025,0.003l0.025,0.004l0.025,0.004
			l0.026,0.005l0.026,0.006l0.026,0.006c0.31,0.078,0.596,0.235,0.867,0.401c1.503,0.975,3.188,2.711,4.533,3.913
			c0.755,0.675,1.536,1.378,2.395,1.918c0.299,0.182,0.616,0.353,0.96,0.43l0.027,0.006l0.027,0.005
			c0.763,0.15,1.264-0.5,1.81-0.907c0.387-0.299,0.846-0.463,1.337-0.393l0.04,0.005l0.041,0.006
			c0.528,0.092,1.022,0.329,1.493,0.578c2.268,1.235,5.754,4.223,7.841,5.804c1.067,0.806,2.177,1.639,3.355,2.275
			c0.439,0.229,0.899,0.445,1.389,0.537l0.041,0.007l0.04,0.006l0.04,0.005l0.039,0.004l0.039,0.003l0.038,0.003l0.038,0.002
			l0.037,0.001l0.037,0l0.036-0.001l0.036-0.002l0.035-0.003l0.034-0.004l0.034-0.005l0.033-0.006l0.033-0.007l0.032-0.008
			l0.032-0.008l0.031-0.009l0.03-0.01l0.03-0.011c0.218-0.087,0.389-0.262,0.512-0.458c0.241-0.388,0.352-0.844,0.451-1.286
			c0.094-0.383,0.167-1.063,0.367-1.388l0.005-0.007l0.005-0.006l0.005-0.006l0.005-0.006l0.005-0.006l0.005-0.006l0.005-0.005
			l0.005-0.005l0.005-0.005l0.005-0.005l0.005-0.005l0.005-0.004l0.005-0.004l0.005-0.004l0.005-0.004l0.005-0.004l0.006-0.003
			l0.006-0.003l0.006-0.003l0.006-0.003l0.006-0.003l0.006-0.002l0.006-0.002l0.006-0.002l0.006-0.002l0.009-0.002l0.009-0.001
			l0.009-0.001l0.009,0l0.01,0l0.01,0.001l0.01,0.001l0.01,0.002l0.01,0.002l0.01,0.003l0.01,0.003l0.01,0.003l0.011,0.004
			l0.011,0.004l0.011,0.005l0.011,0.005l0.011,0.006l0.011,0.006l0.011,0.007l0.012,0.007l0.012,0.007l0.012,0.008l0.012,0.008
			c0.354,0.28,0.601,0.684,0.861,1.047l1.297,1.964c0.562,0.81,1.143,1.645,1.907,2.278c0.279,0.223,0.598,0.421,0.958,0.476
			c0.708,0.104,1.347-0.328,1.902-0.713c0.984-0.702,2.095-1.665,3.393-1.389c0.483,0.096,0.937,0.31,1.362,0.554
			c1.835,1.097,3.394,2.787,5.049,4.124c0.653,0.51,1.423,1.14,2.256,1.279l0.027,0.003l0.027,0.003l0.027,0.002l0.027,0.002
			l0.026,0.001l0.026,0.001l0.026,0l0.026,0l0.026-0.001l0.026-0.001c0.482-0.031,0.865-0.375,1.168-0.723
			c0.462-0.529,0.852-1.198,1.377-1.67c0.264-0.238,0.59-0.428,0.95-0.461l0.029-0.003l0.03-0.002l0.03-0.001l0.03-0.001l0.03,0
			l0.031,0l0.031,0.001l0.031,0.002c0.37,0.024,0.725,0.153,1.059,0.307c1.683,0.835,3.361,2.376,4.863,3.508
			c0.974,0.737,1.982,1.482,3.103,1.977c0.529,0.227,1.101,0.401,1.682,0.377c0.954-0.038,1.778-0.61,2.476-1.215
			c1.111-0.96,2.125-2.207,3.459-2.869c0.398-0.195,0.83-0.331,1.272-0.376c0.537-0.055,1.081,0.017,1.603,0.147
			c1.728,0.454,3.286,1.414,4.791,2.35c1.588,1.003,4.167,2.835,5.84,3.613c0.422,0.195,0.863,0.37,1.321,0.46
			c0.354,0.071,0.726,0.072,1.075-0.029c0.416-0.117,0.784-0.362,1.121-0.626c0.582-0.454,1.197-1.058,1.978-1.085
			c0.359-0.018,0.719,0.055,1.062,0.156c1.368,0.426,2.916,1.394,4.2,2.037c1.399,0.708,2.894,1.396,4.491,1.403
			c1.334,0.016,2.63-0.441,3.78-1.091c1.585-0.9,2.98-2.123,4.306-3.364"/>
	</g>
	<g id="POLYLINE_1041_">
		
			<path fill="none" stroke="#FB8604" stroke-width="2.75" stroke-linecap="round" stroke-linejoin="round" stroke-miterlimit="10" d="
			M562.175,406.262c1.472,3.153,2.281,6.593,2.773,10.026c0.275,2.009,0.533,4.128,0.602,6.154c0.01,0.64,0.019,1.302-0.111,1.931
			c-0.037,0.16-0.084,0.323-0.172,0.463l-0.007,0.01l-0.007,0.01l-0.007,0.01l-0.007,0.01l-0.007,0.009l-0.007,0.009l-0.007,0.009
			l-0.007,0.008l-0.008,0.008l-0.008,0.008l-0.008,0.008l-0.008,0.007l-0.008,0.007l-0.008,0.007l-0.008,0.006l-0.008,0.006
			l-0.008,0.006l-0.008,0.006l-0.008,0.005l-0.009,0.005l-0.009,0.005l-0.009,0.004l-0.009,0.004l-0.009,0.004l-0.009,0.004
			l-0.009,0.003l-0.009,0.003l-0.009,0.003l-0.009,0.002l-0.01,0.002l-0.01,0.002l-0.01,0.001l-0.01,0.001l-0.01,0.001l-0.01,0.001
			l-0.01,0l-0.01,0l-0.01,0l-0.01-0.001l-0.011-0.001l-0.011-0.001l-0.011-0.002l-0.011-0.002l-0.011-0.002l-0.009-0.002
			l-0.009-0.002l-0.01-0.003l-0.01-0.003l-0.01-0.003l-0.01-0.003c-0.378-0.155-0.714-0.565-0.984-0.866
			c-0.53-0.605-1.204-1.571-1.77-2.14c-0.083-0.079-0.169-0.158-0.27-0.212l-0.012-0.006l-0.012-0.006l-0.012-0.005l-0.012-0.005
			l-0.012-0.004l-0.011-0.004l-0.011-0.003l-0.011-0.003l-0.011-0.002l-0.01-0.001l-0.01-0.001l-0.01,0l-0.01,0l-0.01,0.001
			l-0.009,0.001l-0.009,0.002l-0.009,0.002l-0.009,0.003l-0.008,0.003l-0.008,0.004l-0.008,0.005l-0.008,0.005l-0.008,0.006
			l-0.008,0.006l-0.007,0.007l-0.007,0.007l-0.007,0.008l-0.007,0.008l-0.007,0.009l-0.006,0.009l-0.006,0.01l-0.006,0.01
			l-0.006,0.011l-0.006,0.011l-0.005,0.012l-0.005,0.012l-0.005,0.013l-0.005,0.013l-0.005,0.014l-0.004,0.014l-0.004,0.015
			l-0.004,0.015l-0.004,0.016c-0.048,0.214-0.046,0.438-0.043,0.656c0.008,1.025,0.757,6.076,0.883,7.184
			c0.636,5.295,0.733,10.722,0.285,16.036c-0.095,0.942-0.199,1.927-0.423,2.847c-0.057,0.217-0.119,0.439-0.221,0.639l-0.01,0.019
			l-0.01,0.018l-0.01,0.017l-0.01,0.016l-0.01,0.016l-0.01,0.015l-0.01,0.014l-0.01,0.013l-0.01,0.012l-0.01,0.011l-0.01,0.011
			l-0.01,0.01l-0.01,0.009l-0.01,0.008l-0.01,0.007l-0.01,0.006l-0.01,0.006l-0.011,0.005l-0.01,0.004l-0.011,0.003l-0.011,0.002
			l-0.011,0.001l-0.011,0l-0.011,0l-0.011-0.001l-0.011-0.002l-0.011-0.003l-0.011-0.004l-0.011-0.005l-0.011-0.006l-0.011-0.007
			l-0.011-0.008l-0.011-0.009l-0.011-0.01l-0.011-0.01c-0.134-0.147-0.207-0.343-0.288-0.522c-0.154-0.335-0.348-0.982-0.612-1.222
			l-0.004-0.003l-0.004-0.003l-0.004-0.003l-0.004-0.003l-0.004-0.003l-0.004-0.003l-0.004-0.003l-0.004-0.003l-0.004-0.002
			l-0.004-0.002l-0.004-0.002l-0.004-0.002l-0.004-0.002l-0.004-0.002l-0.004-0.002l-0.004-0.001l-0.004-0.001l-0.004-0.001
			l-0.004-0.001l-0.004-0.001l-0.004-0.001l-0.004-0.001l-0.004,0l-0.004,0l-0.005,0l-0.004,0l-0.004,0l-0.004,0l-0.004,0.001
			l-0.004,0.001l-0.005,0.001l-0.004,0.001l-0.004,0.001l-0.005,0.001l-0.004,0.001l-0.005,0.002l-0.004,0.002l-0.005,0.002
			l-0.004,0.002l-0.005,0.002l-0.015,0.009l-0.015,0.01l-0.015,0.012l-0.015,0.014l-0.015,0.016l-0.015,0.017l-0.015,0.019
			l-0.015,0.021l-0.015,0.023l-0.015,0.024l-0.015,0.026l-0.015,0.027l-0.015,0.029l-0.015,0.031
			c-0.544,1.369-0.768,3.404-1.026,4.882c-0.537,3.53-1.444,11.15-2.232,14.525c-0.129,0.517-0.258,1.055-0.491,1.537l-0.018,0.034
			l-0.018,0.032l-0.018,0.031l-0.018,0.029l-0.018,0.028l-0.018,0.026l-0.018,0.024l-0.018,0.023l-0.018,0.021l-0.018,0.019
			l-0.018,0.018l-0.018,0.016l-0.018,0.014l-0.018,0.012l-0.018,0.011l-0.018,0.009l-0.006,0.003l-0.006,0.002l-0.006,0.002
			l-0.006,0.002l-0.006,0.002l-0.006,0.002l-0.006,0.001l-0.006,0.001l-0.006,0.001l-0.006,0.001l-0.006,0.001l-0.006,0l-0.006,0
			l-0.006,0l-0.006,0l-0.006,0l-0.006-0.001l-0.006-0.001l-0.006-0.001l-0.006-0.001l-0.006-0.001l-0.006-0.002l-0.006-0.002
			l-0.006-0.002l-0.006-0.002l-0.006-0.002l-0.006-0.003l-0.006-0.003l-0.006-0.003l-0.006-0.003l-0.006-0.003l-0.006-0.004
			l-0.006-0.004l-0.006-0.004l-0.006-0.004l-0.006-0.004l-0.006-0.004l-0.006-0.005c-0.104-0.08-0.177-0.192-0.245-0.302
			c-0.349-0.57-0.567-1.489-0.905-2.044l-0.008-0.01l-0.008-0.009l-0.008-0.008l-0.008-0.008l-0.008-0.007l-0.007-0.006
			l-0.007-0.005l-0.007-0.005l-0.007-0.004l-0.007-0.003l-0.007-0.003l-0.007-0.002l-0.007-0.001l-0.007-0.001l-0.007,0
			l-0.007,0.001l-0.007,0.001l-0.007,0.002l-0.006,0.003l-0.006,0.003l-0.006,0.004l-0.006,0.005l-0.006,0.005l-0.006,0.006
			l-0.006,0.007l-0.006,0.007l-0.006,0.008l-0.006,0.009l-0.006,0.009l-0.006,0.01l-0.006,0.011l-0.006,0.011l-0.006,0.012
			l-0.006,0.012l-0.006,0.013l-0.006,0.014c-0.251,0.785-0.454,3.529-0.581,4.38c-0.323,2.548-0.777,5.133-1.647,7.555
			c-0.734,2.015-1.756,3.939-3.044,5.655c-0.59,0.773-1.239,1.526-2.004,2.132c-0.346,0.264-0.722,0.522-1.153,0.617l-0.022,0.004
			l-0.021,0.004l-0.021,0.003l-0.021,0.003l-0.021,0.002l-0.021,0.002l-0.021,0.001l-0.02,0.001l-0.02,0.001l-0.02,0l-0.02,0
			l-0.019-0.001l-0.019-0.001l-0.019-0.002l-0.019-0.002l-0.018-0.003l-0.018-0.003l-0.018-0.004l-0.018-0.004l-0.018-0.004
			l-0.017-0.005l-0.017-0.005l-0.017-0.006l-0.017-0.006l-0.016-0.007l-0.016-0.007l-0.016-0.008l-0.016-0.008l-0.015-0.009
			l-0.015-0.009l-0.015-0.01l-0.015-0.01l-0.014-0.011l-0.014-0.011l-0.014-0.012l-0.014-0.012l-0.013-0.013l-0.013-0.013
			l-0.013-0.014l-0.013-0.014l-0.012-0.015l-0.012-0.015l-0.012-0.016l-0.008-0.011l-0.008-0.012
			c-0.208-0.33-0.24-0.738-0.267-1.118c-0.06-1.206,0.162-2.526,0.228-3.73c0.003-0.144,0.01-0.294-0.019-0.436l-0.002-0.008
			l-0.003-0.01l-0.003-0.009l-0.003-0.009l-0.003-0.008l-0.003-0.008l-0.003-0.008l-0.003-0.007l-0.004-0.007l-0.004-0.006
			l-0.004-0.006l-0.004-0.005l-0.004-0.005l-0.004-0.004l-0.005-0.004l-0.005-0.004l-0.005-0.003l-0.005-0.003l-0.005-0.002
			l-0.005-0.002l-0.005-0.001l-0.005-0.001l-0.006,0l-0.006,0l-0.006,0l-0.006,0.001l-0.006,0.001l-0.006,0.002l-0.006,0.002
			l-0.007,0.003l-0.007,0.003l-0.007,0.003l-0.007,0.004l-0.007,0.004l-0.007,0.005l-0.007,0.005l-0.007,0.005l-0.008,0.006
			l-0.008,0.006l-0.008,0.007l-0.008,0.007l-0.008,0.007c-0.145,0.143-0.252,0.325-0.357,0.497c-0.735,1.285-1.378,2.86-1.973,4.222
			c-1.401,3.221-3.85,10.039-5.638,12.964c-0.24,0.364-0.493,0.741-0.851,0.999l-0.018,0.012l-0.018,0.011l-0.018,0.011l-0.017,0.01
			l-0.017,0.01l-0.017,0.009l-0.017,0.009l-0.017,0.008l-0.017,0.008l-0.017,0.007l-0.017,0.006l-0.017,0.006l-0.017,0.005
			l-0.017,0.005l-0.017,0.004l-0.016,0.004l-0.016,0.003l-0.016,0.003l-0.016,0.002l-0.016,0.001l-0.016,0.001l-0.016,0l-0.016,0
			l-0.016-0.001l-0.016-0.001l-0.016-0.002l-0.016-0.003l-0.016-0.003l-0.015-0.004l-0.015-0.004l-0.015-0.005l-0.015-0.006
			l-0.015-0.006l-0.015-0.007l-0.015-0.007l-0.015-0.008c-0.197-0.118-0.317-0.327-0.425-0.523
			c-0.304-0.581-0.485-1.301-0.735-1.907c-0.04-0.091-0.082-0.186-0.146-0.263l-0.004-0.004l-0.005-0.006l-0.005-0.005l-0.005-0.005
			l-0.005-0.005l-0.005-0.004l-0.005-0.004l-0.005-0.004l-0.005-0.003l-0.005-0.003l-0.005-0.003l-0.005-0.002l-0.005-0.002
			l-0.005-0.002l-0.005-0.001l-0.005-0.001l-0.005-0.001l-0.005,0l-0.005,0l-0.005,0l-0.005,0l-0.005,0.001l-0.005,0.001
			l-0.005,0.001l-0.005,0.002l-0.005,0.002l-0.005,0.002l-0.005,0.003l-0.005,0.003l-0.005,0.003l-0.005,0.003l-0.005,0.004
			l-0.005,0.004l-0.005,0.004l-0.005,0.005l-0.005,0.005l-0.005,0.005l-0.005,0.005l-0.005,0.006l-0.005,0.006l-0.005,0.006
			l-0.005,0.007l-0.005,0.007c-0.122,0.177-0.188,0.391-0.261,0.592c-0.462,1.436-0.938,2.965-1.599,4.32
			c-0.96,2.007-2.307,3.819-3.79,5.468c-1.084,1.184-2.256,2.322-3.59,3.223c-0.514,0.329-1.061,0.669-1.677,0.752l-0.025,0.002
			l-0.024,0.002l-0.024,0.001l-0.024,0.001l-0.023,0l-0.023,0l-0.023-0.001l-0.022-0.001l-0.022-0.002l-0.022-0.002l-0.021-0.003
			l-0.021-0.003l-0.021-0.004l-0.02-0.004l-0.02-0.005l-0.02-0.005l-0.019-0.006l-0.019-0.006l-0.019-0.007l-0.018-0.007
			l-0.018-0.008l-0.018-0.008l-0.017-0.009l-0.017-0.009l-0.016-0.01l-0.016-0.01l-0.016-0.011l-0.015-0.011l-0.015-0.012
			c-0.099-0.083-0.167-0.198-0.214-0.317c-0.228-0.629-0.137-1.396-0.136-2.054c-0.001-0.159,0.005-0.325-0.035-0.479l-0.002-0.008
			l-0.003-0.008l-0.003-0.007l-0.003-0.007l-0.003-0.007l-0.003-0.007l-0.003-0.006l-0.003-0.006l-0.003-0.006l-0.003-0.005
			l-0.003-0.005l-0.004-0.005l-0.004-0.005l-0.004-0.004l-0.004-0.004l-0.004-0.004l-0.004-0.003l-0.004-0.003l-0.004-0.003
			l-0.004-0.003l-0.004-0.002l-0.005-0.002l-0.005-0.002l-0.005-0.002l-0.005-0.001l-0.005-0.001l-0.005-0.001l-0.005,0l-0.005,0
			l-0.005,0l-0.005,0l-0.005,0.001l-0.006,0.001l-0.006,0.001l-0.006,0.001l-0.006,0.002l-0.006,0.002l-0.006,0.002l-0.006,0.003
			l-0.006,0.003l-0.006,0.003l-0.006,0.003l-0.006,0.004l-0.006,0.004l-0.007,0.004l-0.007,0.004l-0.007,0.005l-0.007,0.005
			l-0.007,0.005c-0.291,0.251-0.501,0.657-0.697,0.987c-1.926,3.524-4.178,10.1-5.684,13.893c-0.725,1.788-1.458,3.734-2.442,5.395
			c-0.178,0.284-0.368,0.572-0.614,0.802l-0.021,0.019l-0.021,0.018l-0.021,0.017l-0.02,0.016l-0.02,0.015l-0.02,0.015l-0.02,0.014
			l-0.02,0.013l-0.02,0.012l-0.02,0.011l-0.019,0.01l-0.019,0.009l-0.019,0.008l-0.019,0.008l-0.019,0.007l-0.019,0.006
			l-0.018,0.005l-0.018,0.004l-0.018,0.003l-0.018,0.002l-0.018,0.001l-0.018,0l-0.017-0.001l-0.017-0.002l-0.017-0.003
			l-0.017-0.004l-0.017-0.005l-0.017-0.005l-0.016-0.007l-0.016-0.007l-0.016-0.008l-0.007-0.004l-0.007-0.004l-0.007-0.004
			l-0.007-0.005l-0.007-0.005l-0.007-0.005l-0.007-0.005l-0.007-0.005l-0.007-0.005c-0.081-0.067-0.141-0.156-0.193-0.246
			c-0.318-0.595-0.461-1.407-0.641-2.056c-0.063-0.212-0.112-0.443-0.234-0.63l-0.004-0.005l-0.004-0.005l-0.004-0.005l-0.004-0.004
			l-0.004-0.004l-0.004-0.004l-0.004-0.004l-0.007-0.007l-0.007-0.006l-0.007-0.005l-0.007-0.005l-0.007-0.004l-0.007-0.003
			l-0.007-0.003l-0.007-0.002l-0.007-0.001l-0.007-0.001l-0.007,0l-0.007,0l-0.007,0.001l-0.007,0.002l-0.007,0.002l-0.007,0.003
			l-0.007,0.004l-0.007,0.004l-0.007,0.005l-0.007,0.005l-0.007,0.006l-0.007,0.007l-0.008,0.007l-0.008,0.008l-0.008,0.008
			l-0.008,0.009l-0.008,0.01l-0.008,0.01l-0.008,0.011l-0.008,0.011l-0.008,0.012l-0.008,0.012l-0.008,0.013
			c-0.172,0.321-0.253,0.694-0.342,1.045c-0.566,2.565-0.856,5.473-1.149,8.09c-0.596,5.625-0.846,11.382-0.346,17.022
			c0.161,2.282,0.365,4.647,0.897,6.874c0.327,1.349,0.81,2.687,1.624,3.823c0.835,1.19,1.999,2.103,3.204,2.896
			c1.514,0.954,4.891,3.197,6.404,4.214c1.282,0.871,2.996,1.736,4.257,2.638c0.617,0.455,1.177,1.005,1.573,1.665
			c0.942,1.62,1.093,3.617,1.233,5.45c0.135,2.916,0.262,5.916-0.092,8.82c-0.14,1.005-0.332,2.039-0.839,2.931
			c-0.971,1.753-3.052,2.221-4.893,2.446c-3.575,0.495-20.922,0.193-24.838,0.278c-2.878-0.029-6.398,0.046-9.241-0.317
			c-1.554-0.204-3.16-0.521-4.484-1.404c-1.209-0.789-2.023-2.042-2.563-3.358c-1.014-2.461-1.824-6.1-2.538-8.688
			c-0.595-2.205-1.417-4.601-2.192-6.755c-0.281-0.771-0.877-1.959-1.192-2.722c-0.239-0.549-0.422-1.213-0.629-1.775
			c-0.073-0.175-0.167-0.432-0.339-0.529l-0.004-0.002l-0.004-0.002l-0.004-0.002l-0.004-0.002l-0.004-0.002l-0.004-0.001
			l-0.004-0.001l-0.004-0.001l-0.004-0.001l-0.004-0.001l-0.004-0.001l-0.004-0.001l-0.004-0.001l-0.004-0.001l-0.004-0.001
			l-0.004-0.001l-0.004-0.001l-0.004,0l-0.004,0l-0.004,0l-0.004,0l-0.004,0l-0.004,0h-0.004l-0.004,0l-0.004,0l-0.004,0l-0.004,0
			l-0.004,0l-0.004,0.001l-0.004,0.001l-0.004,0.001l-0.004,0.001l-0.004,0.001l-0.004,0.001l-0.004,0.001l-0.004,0.001
			l-0.004,0.001c-0.252,0.094-0.523,0.522-0.701,0.729c-0.159,0.189-0.356,0.458-0.6,0.531l-0.01,0.002l-0.01,0.002l-0.01,0.002
			l-0.01,0.001l-0.01,0.001l-0.01,0.001l-0.01,0l-0.01,0l-0.01,0l-0.01-0.001l-0.01-0.001l-0.01-0.002l-0.01-0.002l-0.01-0.002
			l-0.01-0.003l-0.01-0.003l-0.01-0.003l-0.01-0.004l-0.01-0.004l-0.01-0.004l-0.01-0.005l-0.01-0.005l-0.01-0.005l-0.01-0.006
			l-0.01-0.006l-0.01-0.006l-0.01-0.007l-0.01-0.007l-0.01-0.007l-0.01-0.008l-0.01-0.008l-0.01-0.008l-0.01-0.009l-0.01-0.009
			l-0.01-0.009l-0.01-0.01c-0.231-0.251-0.351-0.583-0.47-0.898c-0.834-2.645-1.257-5.736-2.024-8.399
			c-0.429-1.503-0.851-3.069-1.598-4.449c-0.139-0.235-0.29-0.477-0.511-0.643l-0.011-0.008l-0.011-0.008l-0.011-0.007l-0.011-0.007
			l-0.011-0.007l-0.011-0.006l-0.011-0.006l-0.011-0.006l-0.011-0.005l-0.011-0.005l-0.011-0.005l-0.011-0.004l-0.011-0.004
			l-0.011-0.004l-0.011-0.003l-0.011-0.003l-0.011-0.003l-0.011-0.002l-0.011-0.002l-0.011-0.001l-0.011-0.001l-0.011-0.001
			l-0.011,0l-0.011,0l-0.011,0l-0.01,0.001l-0.01,0.001l-0.01,0.001l-0.01,0.002l-0.01,0.002l-0.01,0.002l-0.01,0.003
			c-0.202,0.066-0.337,0.27-0.459,0.433c-0.169,0.222-0.385,0.634-0.652,0.729l-0.011,0.003l-0.011,0.003l-0.011,0.002l-0.011,0.002
			l-0.011,0.001l-0.011,0.001l-0.011,0.001l-0.011,0l-0.011,0l-0.011-0.001l-0.011-0.001l-0.011-0.001l-0.011-0.002l-0.011-0.002
			l-0.011-0.003l-0.011-0.003l-0.011-0.003l-0.011-0.004l-0.011-0.004l-0.011-0.005l-0.011-0.005l-0.011-0.005l-0.011-0.006
			l-0.011-0.006l-0.011-0.007l-0.012-0.007l-0.012-0.007l-0.012-0.008l-0.012-0.008l-0.012-0.008l-0.012-0.009l-0.012-0.009
			l-0.012-0.01c-0.166-0.142-0.289-0.329-0.401-0.514c-0.557-0.978-0.92-2.098-1.294-3.158c-1.135-3.367-2.632-8.573-4.102-11.749
			c-0.172-0.337-0.336-0.698-0.604-0.971l-0.009-0.009l-0.009-0.008l-0.009-0.008l-0.009-0.007l-0.009-0.007l-0.009-0.007
			l-0.009-0.006l-0.009-0.006l-0.009-0.005l-0.009-0.005l-0.009-0.005l-0.009-0.004l-0.008-0.004l-0.008-0.003l-0.008-0.003
			l-0.008-0.002l-0.008-0.002l-0.008-0.002l-0.008-0.001l-0.008-0.001l-0.008,0l-0.008,0l-0.008,0.001l-0.007,0.001l-0.007,0.001
			l-0.007,0.002l-0.007,0.002l-0.007,0.003l-0.007,0.003l-0.007,0.004l-0.007,0.004l-0.007,0.005l-0.007,0.005l-0.007,0.005
			l-0.006,0.006l-0.006,0.006l-0.006,0.007l-0.006,0.007l-0.006,0.008l-0.003,0.004l-0.003,0.004
			c-0.193,0.33-0.229,1.137-0.305,1.539c-0.048,0.266-0.085,0.605-0.243,0.828l-0.004,0.005l-0.004,0.005l-0.004,0.004l-0.004,0.004
			l-0.004,0.004l-0.004,0.004l-0.004,0.004l-0.004,0.004l-0.004,0.004l-0.004,0.003l-0.004,0.003l-0.004,0.003l-0.004,0.003
			l-0.011,0.007l-0.011,0.006l-0.011,0.005l-0.012,0.004l-0.012,0.003l-0.012,0.003l-0.012,0.002l-0.012,0.001h-0.013l-0.013-0.001
			l-0.013-0.002l-0.013-0.003l-0.014-0.003l-0.014-0.004l-0.014-0.005l-0.014-0.006l-0.014-0.007l-0.015-0.008l-0.015-0.008
			l-0.015-0.009l-0.015-0.01l-0.015-0.011l-0.016-0.012l-0.016-0.012l-0.016-0.013l-0.016-0.014l-0.016-0.015l-0.017-0.016
			c-0.196-0.191-0.35-0.426-0.497-0.656c-0.747-1.228-1.357-2.646-1.949-3.957c-2.059-4.903-5.01-11.849-7.512-16.488
			c-1.357-2.701-2.298-5.609-2.966-8.552c-0.784-3.448-1.308-7.026-1.467-10.559"/>
	</g>
</g>
<g id="_x32_D_x24_AG-OUTLINE">
	<g id="POLYLINE_24_">
		
			<path fill="none" stroke="#FB8604" stroke-width="3.5" stroke-linecap="round" stroke-linejoin="round" stroke-miterlimit="10" d="
			M190.76,477.61c-2.203,0.885-4.602,1.318-6.975,1.288c-1.263-0.044-2.601-0.203-3.679-0.911c-0.318-0.216-0.599-0.494-0.793-0.827
			c-0.345-0.591-0.449-1.287-0.518-1.958c-0.063-0.588-0.074-1.377-0.259-1.937c-0.054-0.156-0.129-0.31-0.244-0.431l-0.01-0.01
			l-0.01-0.01l-0.01-0.01l-0.01-0.009l-0.01-0.009l-0.01-0.009l-0.011-0.009l-0.011-0.009l-0.011-0.008l-0.011-0.008l-0.011-0.008
			l-0.011-0.008l-0.012-0.008l-0.012-0.007l-0.012-0.007l-0.012-0.007l-0.012-0.007l-0.013-0.007l-0.013-0.006l-0.013-0.006
			l-0.013-0.006l-0.013-0.006l-0.013-0.005l-0.014-0.005l-0.014-0.005l-0.014-0.005l-0.014-0.004l-0.014-0.004l-0.015-0.004
			l-0.015-0.004l-0.015-0.004l-0.015-0.003l-0.015-0.003l-0.03-0.005l-0.031-0.004l-0.032-0.004l-0.033-0.003l-0.033-0.002
			l-0.034-0.001l-0.035,0l-0.035,0.001l-0.036,0.002l-0.037,0.002l-0.038,0.003l-0.038,0.004l-0.039,0.005
			c-0.408,0.059-0.802,0.207-1.181,0.365c-0.918,0.392-1.842,0.923-2.706,1.424l-5.043,3.037c-1.556,0.894-3.162,1.803-4.866,2.379
			c-0.632,0.203-1.295,0.37-1.964,0.338l-0.051-0.003l-0.05-0.004l-0.049-0.005l-0.049-0.006l-0.048-0.007l-0.048-0.008
			l-0.047-0.009l-0.046-0.01l-0.046-0.01l-0.045-0.011l-0.045-0.012l-0.044-0.013l-0.043-0.014l-0.043-0.015l-0.042-0.016
			c-0.752-0.303-1.149-1.081-1.407-1.804c-0.437-1.202-0.556-2.6-1.049-3.782c-0.103-0.229-0.23-0.454-0.412-0.629l-0.015-0.014
			l-0.016-0.014l-0.016-0.014l-0.016-0.013l-0.016-0.013l-0.016-0.013l-0.016-0.012l-0.017-0.012l-0.017-0.012l-0.017-0.011
			l-0.017-0.011l-0.017-0.01l-0.017-0.01l-0.018-0.01l-0.018-0.009l-0.018-0.009l-0.018-0.008l-0.018-0.008l-0.019-0.008
			l-0.019-0.007l-0.019-0.007l-0.019-0.006l-0.019-0.006l-0.02-0.005l-0.023-0.006l-0.023-0.005l-0.023-0.005l-0.024-0.004
			l-0.024-0.004l-0.024-0.003l-0.024-0.002l-0.025-0.002l-0.025-0.001l-0.025-0.001l-0.025,0l-0.026,0l-0.026,0.001l-0.026,0.001
			l-0.026,0.002c-0.347,0.027-0.679,0.157-0.993,0.303c-1.392,0.681-2.947,1.992-4.207,2.905c-0.675,0.472-1.534,1.143-2.342,1.313
			l-0.023,0.004l-0.023,0.003l-0.023,0.003l-0.022,0.002l-0.022,0.002l-0.022,0.001l-0.021,0.001l-0.021,0l-0.021,0l-0.021-0.001
			l-0.02-0.001l-0.02-0.002l-0.02-0.002l-0.019-0.003l-0.019-0.003l-0.019-0.004l-0.018-0.005l-0.018-0.005l-0.018-0.006
			l-0.018-0.006l-0.017-0.007l-0.013-0.005l-0.013-0.006l-0.012-0.006l-0.012-0.006l-0.012-0.007l-0.012-0.007l-0.012-0.007
			l-0.012-0.008l-0.011-0.008l-0.011-0.008l-0.011-0.009l-0.011-0.009l-0.011-0.009l-0.011-0.009l-0.01-0.01l-0.01-0.01l-0.01-0.01
			l-0.01-0.011l-0.01-0.011l-0.01-0.011l-0.009-0.011l-0.009-0.012l-0.009-0.012l-0.009-0.012l-0.009-0.013
			c-0.263-0.415-0.295-0.94-0.352-1.417l-0.107-1.268c-0.054-0.515-0.117-1.045-0.311-1.528c-0.091-0.221-0.217-0.435-0.401-0.591
			l-0.014-0.012l-0.015-0.012l-0.015-0.011l-0.015-0.011l-0.015-0.011l-0.015-0.011l-0.016-0.01l-0.016-0.01l-0.016-0.01
			l-0.016-0.009l-0.016-0.009l-0.017-0.009l-0.017-0.009l-0.026-0.012l-0.027-0.012l-0.027-0.011l-0.028-0.01l-0.028-0.01
			l-0.028-0.009l-0.029-0.008l-0.029-0.008l-0.03-0.007l-0.03-0.007l-0.031-0.006l-0.031-0.005l-0.032-0.005l-0.032-0.004
			l-0.033-0.003l-0.033-0.003l-0.033-0.002l-0.034-0.002c-0.406-0.012-0.81,0.087-1.196,0.205c-0.998,0.32-1.959,0.821-2.885,1.307
			c-1.693,0.889-3.715,2.153-5.514,2.773c-0.331,0.105-0.676,0.194-1.025,0.198l-0.032,0l-0.032-0.001l-0.031-0.001l-0.031-0.002
			l-0.031-0.003l-0.03-0.003l-0.03-0.004l-0.029-0.004l-0.029-0.005l-0.028-0.006l-0.028-0.006l-0.027-0.007l-0.027-0.008
			l-0.026-0.008l-0.026-0.009l-0.025-0.009l-0.025-0.01l-0.024-0.011l-0.024-0.011l-0.023-0.012l-0.023-0.013l-0.016-0.01
			l-0.016-0.01l-0.015-0.01l-0.015-0.011l-0.015-0.011l-0.015-0.011l-0.014-0.012l-0.014-0.012l-0.014-0.012l-0.014-0.013
			l-0.013-0.013l-0.013-0.013l-0.013-0.014l-0.013-0.014l-0.012-0.014l-0.012-0.015l-0.012-0.015l-0.012-0.015l-0.011-0.016
			l-0.011-0.016l-0.011-0.016l-0.011-0.017c-0.102-0.16-0.164-0.343-0.208-0.526c-0.195-0.896-0.085-1.957-0.068-2.871
			c0.013-0.543,0.025-1.105-0.064-1.642c-0.044-0.25-0.111-0.504-0.248-0.72l-0.011-0.017l-0.011-0.016l-0.011-0.016l-0.011-0.016
			l-0.012-0.015l-0.012-0.015l-0.012-0.015l-0.012-0.014l-0.013-0.014l-0.013-0.014l-0.013-0.013l-0.013-0.013l-0.014-0.013
			l-0.014-0.012l-0.014-0.012l-0.014-0.012l-0.015-0.011l-0.015-0.011l-0.015-0.011l-0.015-0.01l-0.016-0.01l-0.016-0.01
			l-0.022-0.012l-0.022-0.012l-0.022-0.011l-0.023-0.01l-0.023-0.01l-0.024-0.009l-0.024-0.009l-0.025-0.008l-0.025-0.007
			l-0.026-0.007l-0.026-0.006l-0.026-0.006l-0.027-0.005l-0.027-0.004l-0.028-0.004l-0.028-0.003l-0.029-0.003l-0.029-0.002
			l-0.029-0.002l-0.03-0.001c-0.361-0.009-0.72,0.082-1.062,0.189c-0.86,0.279-1.695,0.709-2.496,1.127
			c-1.418,0.738-3.669,2.108-5.169,2.601c-0.283,0.089-0.578,0.165-0.876,0.171l-0.029,0l-0.028,0l-0.028-0.001l-0.027-0.001
			l-0.027-0.002l-0.026-0.003l-0.026-0.003l-0.026-0.004l-0.025-0.004l-0.025-0.005l-0.024-0.005l-0.024-0.006l-0.023-0.006
			l-0.023-0.007l-0.022-0.008l-0.022-0.008l-0.022-0.009l-0.021-0.009l-0.016-0.008l-0.015-0.008l-0.015-0.008l-0.015-0.009
			l-0.015-0.009l-0.014-0.009l-0.014-0.01l-0.014-0.01l-0.014-0.01l-0.013-0.011l-0.013-0.011l-0.013-0.011l-0.013-0.012
			l-0.012-0.012l-0.012-0.012l-0.012-0.012l-0.012-0.013l-0.011-0.013l-0.011-0.013l-0.011-0.014l-0.011-0.014l-0.01-0.014
			l-0.01-0.015l-0.01-0.015l-0.01-0.015l-0.01-0.015l-0.009-0.016c-0.108-0.188-0.16-0.403-0.195-0.615
			c-0.155-1.172,0.055-2.444-0.079-3.618c-0.072-0.653-0.247-1.375-0.8-1.789l-0.03-0.022l-0.031-0.021l-0.031-0.021l-0.032-0.02
			l-0.033-0.019l-0.033-0.019l-0.034-0.018l-0.035-0.018l-0.035-0.017l-0.036-0.016l-0.036-0.016l-0.037-0.015l-0.038-0.015
			l-0.038-0.014l-0.039-0.013c-0.508-0.167-1.054-0.18-1.583-0.157c-1.019,0.055-2.052,0.274-3.045,0.506
			c-2.159,0.493-5.02,1.475-7.214,1.739c-0.416,0.041-0.846,0.063-1.258-0.021l-0.035-0.008l-0.034-0.008l-0.033-0.009l-0.033-0.009
			l-0.032-0.01l-0.031-0.01l-0.031-0.011l-0.03-0.011l-0.029-0.012l-0.029-0.013l-0.028-0.013l-0.027-0.014l-0.027-0.014
			l-0.026-0.015l-0.025-0.015l-0.025-0.016l-0.024-0.017l-0.023-0.017l-0.022-0.018l-0.022-0.018l-0.021-0.019l-0.014-0.013
			l-0.014-0.014l-0.013-0.014l-0.013-0.014l-0.013-0.015l-0.012-0.015l-0.012-0.015l-0.012-0.015l-0.011-0.016l-0.011-0.016
			l-0.011-0.016l-0.01-0.017l-0.01-0.017l-0.01-0.017l-0.009-0.017l-0.009-0.018l-0.009-0.018l-0.008-0.018l-0.008-0.018
			l-0.008-0.019l-0.007-0.019l-0.007-0.019c-0.072-0.2-0.092-0.415-0.092-0.626c0.023-1.034,0.445-2.243,0.652-3.253
			c0.141-0.71,0.326-1.586,0.007-2.266l-0.01-0.02l-0.01-0.02l-0.011-0.019l-0.011-0.019l-0.011-0.019l-0.012-0.019l-0.012-0.018
			l-0.012-0.018l-0.013-0.018l-0.013-0.018l-0.014-0.017l-0.014-0.017l-0.014-0.017l-0.015-0.017l-0.015-0.016l-0.015-0.016
			l-0.016-0.016l-0.024-0.023l-0.025-0.022l-0.026-0.022l-0.027-0.021l-0.027-0.021l-0.028-0.02l-0.029-0.02l-0.03-0.019
			l-0.03-0.018l-0.031-0.018l-0.032-0.017l-0.033-0.017l-0.033-0.016l-0.034-0.016l-0.035-0.015l-0.036-0.015l-0.036-0.014
			l-0.037-0.013l-0.038-0.013c-0.478-0.154-0.99-0.173-1.489-0.165c-1.211,0.033-2.447,0.263-3.636,0.489
			c-2.338,0.444-5.164,1.203-7.533,1.282c-0.457,0.004-0.926-0.018-1.364-0.157l-0.037-0.013l-0.037-0.013l-0.036-0.014
			l-0.035-0.014l-0.034-0.015l-0.034-0.015l-0.033-0.016l-0.032-0.016l-0.031-0.017l-0.031-0.017l-0.03-0.018l-0.029-0.019
			l-0.028-0.019l-0.028-0.02l-0.027-0.02l-0.026-0.021l-0.025-0.021l-0.015-0.013l-0.015-0.014l-0.014-0.014l-0.014-0.014
			l-0.014-0.014l-0.013-0.014l-0.013-0.015l-0.013-0.015l-0.013-0.015l-0.012-0.015l-0.012-0.016
			c-0.329-0.444-0.317-1.035-0.273-1.561c0.089-1.003,0.443-2.049,0.459-3.059c-0.002-0.205-0.023-0.415-0.104-0.606l-0.007-0.015
			l-0.007-0.015l-0.007-0.015l-0.007-0.015l-0.008-0.014l-0.008-0.014l-0.008-0.014l-0.008-0.014l-0.009-0.013l-0.009-0.013
			l-0.009-0.013l-0.009-0.013l-0.01-0.013l-0.01-0.012l-0.01-0.012l-0.01-0.012l-0.011-0.012l-0.011-0.011l-0.011-0.011
			l-0.013-0.013l-0.014-0.012l-0.014-0.012l-0.014-0.012l-0.015-0.011l-0.015-0.011l-0.015-0.011l-0.016-0.01l-0.016-0.01
			l-0.016-0.01l-0.017-0.01l-0.017-0.009l-0.017-0.009l-0.018-0.009l-0.018-0.008l-0.018-0.008l-0.019-0.008l-0.019-0.008
			c-0.204-0.079-0.426-0.103-0.644-0.111c-1.064-0.02-2.528,0.372-3.58,0.566c-0.617,0.116-1.256,0.233-1.886,0.228
			c-0.256-0.005-0.52-0.031-0.759-0.128l-0.019-0.008l-0.019-0.008l-0.018-0.009l-0.018-0.009l-0.018-0.009l-0.018-0.01l-0.017-0.01
			l-0.017-0.01l-0.017-0.01l-0.016-0.011l-0.016-0.011l-0.016-0.011l-0.015-0.012l-0.015-0.012l-0.016-0.013l-0.015-0.014
			l-0.015-0.014l-0.014-0.014l-0.014-0.015l-0.014-0.015l-0.013-0.015l-0.013-0.016l-0.013-0.016l-0.012-0.016l-0.012-0.017
			l-0.011-0.017l-0.011-0.017l-0.011-0.018l-0.01-0.018l-0.01-0.018l-0.01-0.019l-0.009-0.019l-0.009-0.019l-0.009-0.02l-0.008-0.02
			l-0.008-0.02l-0.008-0.021l-0.007-0.021l-0.007-0.021l-0.007-0.021c-0.104-0.371-0.069-0.766-0.018-1.143
			c0.25-1.553,0.914-3.223,1.174-4.775c0.096-0.575,0.157-1.17,0.065-1.749c-0.158-1.133-1.143-1.798-2.091-2.274
			c-0.447-0.245-1.313-0.565-1.599-0.971l-0.006-0.009l-0.006-0.009l-0.005-0.009l-0.005-0.009l-0.005-0.009l-0.005-0.009
			l-0.005-0.009l-0.004-0.009l-0.004-0.009l-0.004-0.009l-0.004-0.009l-0.003-0.009l-0.003-0.01l-0.003-0.01l-0.003-0.01
			l-0.005-0.022l-0.004-0.022l-0.003-0.022l-0.002-0.022l-0.001-0.022l0-0.023l0.001-0.023l0.003-0.023l0.004-0.023l0.005-0.023
			l0.006-0.024l0.007-0.024l0.008-0.024l0.009-0.024l0.01-0.024l0.011-0.025l0.012-0.025l0.013-0.025l0.014-0.025l0.016-0.025
			l0.017-0.025l0.018-0.026l0.019-0.026l0.02-0.026l0.021-0.026l0.022-0.026l0.023-0.027l0.024-0.027
			c0.45-0.475,1.034-0.805,1.601-1.12c2.642-1.375,5.554-2.297,8.402-3.141c4.846-1.38,9.869-2.409,14.897-2.81
			c5.896-0.517,13.041-0.016,18.984,0.229c4.206,0.144,8.483,0.065,12.625-0.714c5.559-1.009,10.955-2.968,16.078-5.323
			c7.616-3.515,14.958-8.063,21.976-12.644c12.295-8.135,29.299-20.034,42.28-26.652c15.923-8.371,33.004-15.083,50.731-18.39
			c14.168-2.656,28.832-3.446,43.224-3.703c16.875-0.24,34.127,0.472,50.919,2.234c12.502,1.341,33.016,4.275,45.335,4.436
			c6.277,0.108,12.649-0.314,18.771-1.767c10.367-2.378,19.692-7.983,27.959-14.53c6.536-5.249,12.723-11.139,17.591-17.994
			c3.014-4.239,5.314-9.028,7.36-13.798c-0.286-3.62-0.343-7.309,0.057-10.921c0.519-4.706,1.724-9.381,3.169-13.883
			c1.023-3.086,2.222-6.175,3.857-8.992c0.883-1.492,1.9-2.95,3.232-4.075c-1.18-1.118-2.381-2.544-2.629-4.2
			c-0.139-0.939,0.221-1.967,0.454-2.867c0.167-0.651,0.294-1.347,0.125-2.011c-0.554-1.951-2.774-3.4-2.697-5.619
			c0.022-0.791,0.262-1.563,0.522-2.304c0.632-1.778,1.593-3.683,1.254-5.618c-0.177-1.228-0.734-2.502-1.061-3.696
			c-0.125-0.477-0.221-0.973-0.184-1.468c0.047-0.626,0.327-1.208,0.613-1.757c0.365-0.693,0.773-1.425,0.869-2.214
			c0.162-1.6-0.61-3.184-0.823-4.746c-0.078-0.555-0.095-1.148,0.149-1.666c0.51-1.044,1.616-1.645,2.263-2.59
			c0.598-0.811,0.722-1.849,0.796-2.827c0.07-0.933,0.073-2.22,0.319-3.116c0.083-0.303,0.201-0.603,0.383-0.861
			c0.354-0.504,0.932-0.782,1.486-1.011c0.67-0.283,1.474-0.509,1.979-1.059c0.186-0.204,0.308-0.46,0.386-0.724
			c0.199-0.671,0.188-1.602,0.235-2.301c0.052-0.733,0.135-1.52,0.581-2.131c0.213-0.289,0.507-0.509,0.817-0.686
			c1.198-0.676,2.742-0.832,3.932-1.524c0.276-0.168,0.533-0.385,0.691-0.672c0.236-0.43,0.263-0.936,0.267-1.416
			c0.017-0.77-0.138-1.677,0.255-2.377c0.142-0.243,0.371-0.423,0.618-0.55c0.577-0.289,1.232-0.387,1.865-0.478
			c1.147-0.166,2.56-0.183,3.642-0.621c0.248-0.107,0.48-0.26,0.655-0.467c0.231-0.267,0.368-0.601,0.48-0.933
			c0.167-0.49,0.3-1.065,0.674-1.444c0.587-0.572,1.578-0.703,2.358-0.834c1.525-0.221,3.323-0.367,4.738-0.986
			c1.467-0.609,2.854-1.744,4.219-2.542c0.548-0.311,1.136-0.586,1.766-0.67c1.374-0.172,2.722,0.47,4.091,0.451
			c1.471,0.002,2.879-0.981,4.148-1.624c1.089-0.57,2.288-1.082,3.544-0.984c2.142,0.137,4.129,1.499,6.26,1.68
			c1.218,0.098,2.346-0.605,3.387-1.145c0.634-0.324,1.317-0.613,2.04-0.616c1.554,0.001,2.988,0.833,4.525,0.954
			c1.378,0.143,2.526-0.812,3.781-1.194c0.6-0.186,1.187-0.147,1.773,0.07c1.354,0.49,2.597,1.536,4.01,1.877
			c0.694,0.17,1.419,0.082,2.11-0.062c0.86-0.17,1.829-0.489,2.705-0.282c0.912,0.237,1.617,0.993,2.325,1.574
			c0.458,0.377,0.951,0.767,1.544,0.892c0.529,0.105,1.07-0.025,1.578-0.172c0.798-0.229,1.669-0.579,2.51-0.459
			c0.532,0.075,1.025,0.32,1.478,0.601c1.142,0.72,2.207,1.78,3.362,2.481c0.589,0.366,1.25,0.608,1.923,0.766
			c0.805,0.2,1.82,0.318,2.576,0.667c0.449,0.199,0.83,0.525,1.134,0.908c0.451,0.549,0.879,1.338,1.329,1.888
			c0.22,0.267,0.474,0.519,0.789,0.669c0.429,0.202,0.92,0.193,1.383,0.166c0.641-0.038,1.375-0.154,1.996,0.044
			c0.994,0.335,1.627,1.458,2.256,2.239c0.302,0.386,0.624,0.771,1.016,1.07c0.34,0.259,0.734,0.444,1.13,0.601
			c0.676,0.272,1.489,0.496,2.008,1.029c0.286,0.29,0.484,0.657,0.651,1.026c0.468,1.045,0.75,2.28,1.456,3.202
			c1.025,1.325,2.887,1.528,4.206,2.446c0.627,0.42,1.002,1.006,1.228,1.717c0.349,1.06,0.437,2.333,0.741,3.405
			c0.126,0.441,0.295,0.881,0.567,1.254c0.49,0.684,1.33,1.15,2.013,1.616c0.753,0.5,1.422,1.127,1.704,2.009
			c0.646,2.045,0.245,4.737,0.451,6.878c0.067,0.76,0.186,1.54,0.534,2.228c0.379,0.778,1.06,1.407,1.62,2.054
			c0.251,0.296,0.482,0.622,0.607,0.992c0.105,0.305,0.125,0.634,0.1,0.954c-0.18,1.69-1.234,3.687-1.617,5.392
			c-0.38,1.437-0.322,2.771-0.024,4.217c0.244,1.365,0.801,2.984,0.483,4.366c-0.135,0.589-0.484,1.103-0.898,1.534
			c-0.843,0.883-2.056,1.621-2.988,2.406c-0.376,0.32-0.745,0.669-1.005,1.092c-0.449,0.713-0.395,1.61-0.369,2.419
			c0.021,0.661,0.007,1.355-0.283,1.963c-0.266,0.564-0.698,1.036-1.177,1.429c-0.648,0.525-1.403,0.924-2.201,1.167
			c-0.711,2.997-0.996,6.325,0.39,9.175c0.778,1.586,2.009,2.91,3.359,4.03c4.421,3.639,10.259,5.399,15.501,7.502
			c1.843,0.744,3.689,1.613,5.382,2.658c2.248,1.366,4.386,3.06,6.407,4.741c1.404,0.414,2.737,1.118,3.803,2.128
			c1.453,1.383,2.527,3.279,2.615,5.312c0.078,1.532-0.584,2.983-1.413,4.235l0.131,1.455c0.244,4.522,0.989,10.612,0.602,15.071
			c-0.368,4.411-1.419,8.785-2.988,12.92c-1.806,4.638-4.531,9.048-8.376,12.264c-0.754,0.593-1.556,1.212-2.487,1.49
			c-0.183,0.046-0.381,0.078-0.564,0.021l-0.009-0.003l-0.008-0.003l-0.008-0.003l-0.008-0.003l-0.008-0.003l-0.008-0.004
			l-0.008-0.004l-0.008-0.004l-0.008-0.004l-0.008-0.004l-0.007-0.004l-0.007-0.004l-0.007-0.004l-0.007-0.005l-0.007-0.005
			l-0.007-0.005l-0.007-0.005l-0.007-0.005l-0.006-0.005l-0.006-0.005l-0.006-0.006l-0.006-0.006l-0.006-0.006l-0.006-0.006
			l-0.006-0.006l-0.006-0.006l-0.006-0.006l-0.006-0.006l-0.005-0.007l-0.005-0.007l-0.005-0.007l-0.005-0.007l-0.005-0.007
			l-0.005-0.007l-0.005-0.007c-0.062-0.098-0.09-0.214-0.104-0.328c-0.05-0.636,0.151-1.272,0.306-1.883l0.701-2.43
			c0.496-1.907,1.035-4.034,0.879-6.012c-0.038-0.277-0.081-0.592-0.268-0.812l-0.006-0.006l-0.006-0.006l-0.006-0.006l-0.006-0.006
			l-0.006-0.006l-0.006-0.005l-0.006-0.005l-0.006-0.005l-0.006-0.005l-0.006-0.005l-0.006-0.005l-0.007-0.004l-0.007-0.004
			l-0.007-0.004l-0.007-0.004l-0.007-0.004l-0.007-0.004l-0.007-0.003l-0.007-0.003l-0.007-0.003l-0.007-0.003l-0.007-0.003
			l-0.007-0.003l-0.007-0.002l-0.007-0.002l-0.007-0.002l-0.008-0.002l-0.008-0.002l-0.008-0.001l-0.008-0.001l-0.008-0.001
			l-0.008-0.001l-0.008-0.001l-0.008-0.001l-0.008,0l-0.008,0l-0.008,0l-0.008,0l-0.008,0l-0.008,0l-0.008,0.001l-0.009,0.001
			l-0.009,0.001l-0.009,0.001l-0.009,0.001l-0.009,0.002l-0.009,0.002l-0.009,0.002l-0.009,0.002l-0.009,0.002l-0.009,0.003
			c-0.395,0.134-0.74,0.603-0.99,0.927c-0.917,1.275-1.661,2.723-2.362,4.127c-0.828,1.711-1.615,3.51-2.187,5.324
			c-0.508,1.552-0.836,3.425-1.123,5.04c-0.1,0.513-0.222,1.034-0.401,1.525c-0.184,0.495-0.403,0.996-0.751,1.399
			c-0.103,0.112-0.22,0.223-0.369,0.267l-0.007,0.002l-0.007,0.002l-0.007,0.001l-0.007,0.001l-0.006,0.001l-0.006,0.001
			l-0.006,0.001l-0.006,0.001l-0.006,0.001l-0.006,0.001l-0.006,0l-0.006,0l-0.006,0h-0.006l-0.006,0l-0.006,0l-0.006,0
			l-0.006-0.001l-0.006-0.001l-0.006-0.001l-0.006-0.001l-0.006-0.001l-0.006-0.001l-0.006-0.001l-0.006-0.001l-0.006-0.002
			l-0.006-0.002l-0.006-0.002l-0.006-0.002l-0.006-0.002l-0.006-0.002l-0.006-0.003l-0.006-0.003l-0.006-0.003l-0.006-0.003
			l-0.006-0.003l-0.006-0.003l-0.006-0.003l-0.006-0.004l-0.006-0.004l-0.006-0.004l-0.005-0.004l-0.005-0.004l-0.005-0.004
			l-0.005-0.004l-0.005-0.005l-0.005-0.005l-0.005-0.005l-0.005-0.005l-0.005-0.005c-0.097-0.099-0.148-0.234-0.193-0.363
			c-0.323-1.081-0.271-2.378-0.634-3.447c-0.072-0.183-0.175-0.382-0.365-0.464l-0.006-0.003l-0.006-0.002l-0.006-0.002
			l-0.006-0.002l-0.006-0.002l-0.006-0.002l-0.006-0.002l-0.006-0.002l-0.006-0.002l-0.006-0.001l-0.006-0.001l-0.006-0.001
			l-0.006-0.001l-0.007-0.001l-0.007-0.001l-0.007-0.001l-0.007-0.001l-0.007-0.001l-0.007,0c-0.174-0.007-0.328,0.097-0.45,0.211
			c-0.212,0.203-0.364,0.462-0.492,0.723c-0.361,0.761-0.508,1.614-0.65,2.439l-0.382,2.505c-0.162,0.967-0.366,1.949-0.732,2.862
			c-0.157,0.378-0.337,0.759-0.615,1.063c-0.134,0.143-0.303,0.271-0.502,0.294c-0.159,0.019-0.315-0.04-0.447-0.125
			c-0.45-0.312-0.725-0.814-0.969-1.291c-0.361-0.738-0.605-1.54-0.77-2.344c-0.07-0.31-0.151-0.864-0.276-1.155l-0.003-0.005
			l-0.003-0.005l-0.003-0.005l-0.003-0.005l-0.003-0.004l-0.003-0.004l-0.003-0.004l-0.003-0.004l-0.003-0.004l-0.003-0.003
			l-0.003-0.003l-0.003-0.003l-0.003-0.003l-0.003-0.002l-0.003-0.002l-0.003-0.002l-0.003-0.002l-0.003-0.001l-0.003-0.001
			l-0.003-0.001l-0.003-0.001l-0.003,0h-0.003l-0.003,0l-0.003,0.001l-0.003,0.001l-0.003,0.001l-0.003,0.001l-0.003,0.002
			l-0.003,0.002l-0.003,0.002l-0.003,0.003l-0.003,0.003l-0.003,0.003l-0.003,0.003l-0.003,0.004l-0.003,0.004l-0.003,0.004
			l-0.003,0.005l-0.003,0.005l-0.003,0.005l-0.003,0.005l-0.004,0.006l-0.004,0.006c-0.458,1.066-2.149,13.372-2.437,14.8
			c-0.366,1.969-0.657,4.216-1.328,6.099c-0.091,0.218-0.185,0.447-0.351,0.619l-0.008,0.007l-0.008,0.007l-0.008,0.007
			l-0.008,0.006l-0.008,0.006l-0.008,0.006l-0.008,0.006l-0.008,0.005l-0.007,0.005l-0.008,0.005l-0.007,0.005l-0.007,0.004
			l-0.007,0.004l-0.007,0.004l-0.007,0.003l-0.007,0.003l-0.007,0.003l-0.007,0.003l-0.007,0.002l-0.007,0.002l-0.007,0.002
			l-0.007,0.002l-0.007,0.001l-0.007,0.001l-0.007,0.001l-0.007,0.001l-0.007,0l-0.007,0l-0.007,0l-0.007,0l-0.007-0.001
			l-0.007-0.001l-0.007-0.001l-0.007-0.001l-0.007-0.001l-0.007-0.002l-0.007-0.002l-0.007-0.002l-0.007-0.002l-0.007-0.003
			l-0.007-0.003l-0.007-0.003l-0.007-0.003l-0.007-0.004l-0.007-0.004l-0.007-0.004l-0.007-0.004l-0.007-0.004l-0.007-0.005
			l-0.007-0.005l-0.007-0.005l-0.007-0.005l-0.007-0.005l-0.007-0.006l-0.007-0.006c-0.088-0.077-0.154-0.176-0.213-0.276
			c-0.376-0.683-0.703-1.834-0.976-2.572c-0.287-0.776-0.594-1.573-1.084-2.247c-0.23-0.31-0.512-0.597-0.867-0.761
			c-0.413-0.192-0.889-0.182-1.326-0.086c-0.951,0.22-1.805,0.744-2.617,1.268c-1.271,0.837-2.651,1.979-3.971,2.734
			c-1.484,0.869-3.112,1.514-4.748,2.034c-5.455,1.646-11.204,2.531-16.876,2.995c-3.534,0.228-7.177,0.355-10.626-0.572
			c1.472,3.153,2.281,6.593,2.773,10.026c0.275,2.009,0.533,4.128,0.602,6.154c0.01,0.64,0.019,1.302-0.111,1.931
			c-0.037,0.16-0.084,0.323-0.172,0.463l-0.007,0.01l-0.007,0.01l-0.007,0.01l-0.007,0.01l-0.007,0.009l-0.007,0.009l-0.007,0.009
			l-0.007,0.008l-0.008,0.008l-0.008,0.008l-0.008,0.008l-0.008,0.007l-0.008,0.007l-0.008,0.007l-0.008,0.006l-0.008,0.006
			l-0.008,0.006l-0.008,0.006l-0.008,0.005l-0.009,0.005l-0.009,0.005l-0.009,0.004l-0.009,0.004l-0.009,0.004l-0.009,0.004
			l-0.009,0.003l-0.009,0.003l-0.009,0.003l-0.009,0.002l-0.01,0.002l-0.01,0.002l-0.01,0.001l-0.01,0.001l-0.01,0.001l-0.01,0.001
			l-0.01,0l-0.01,0l-0.01,0l-0.01-0.001l-0.011-0.001l-0.011-0.001l-0.011-0.002l-0.011-0.002l-0.011-0.002l-0.009-0.002
			l-0.009-0.002l-0.01-0.003l-0.01-0.003l-0.01-0.003l-0.01-0.003c-0.378-0.155-0.714-0.565-0.984-0.866
			c-0.53-0.605-1.204-1.571-1.77-2.14c-0.083-0.079-0.169-0.158-0.27-0.212l-0.012-0.006l-0.012-0.006l-0.012-0.005l-0.012-0.005
			l-0.012-0.004l-0.011-0.004l-0.011-0.003l-0.011-0.003l-0.011-0.002l-0.01-0.001l-0.01-0.001l-0.01,0l-0.01,0l-0.01,0.001
			l-0.009,0.001l-0.009,0.002l-0.009,0.002l-0.009,0.003l-0.008,0.003l-0.008,0.004l-0.008,0.005l-0.008,0.005l-0.008,0.006
			l-0.008,0.006l-0.007,0.007l-0.007,0.007l-0.007,0.008l-0.007,0.008l-0.007,0.009l-0.006,0.009l-0.006,0.01l-0.006,0.01
			l-0.006,0.011l-0.006,0.011l-0.005,0.012l-0.005,0.012l-0.005,0.013l-0.005,0.013l-0.005,0.014l-0.004,0.014l-0.004,0.015
			l-0.004,0.015l-0.004,0.016c-0.048,0.214-0.046,0.438-0.043,0.656c0.008,1.025,0.757,6.076,0.883,7.184
			c0.636,5.295,0.733,10.722,0.285,16.036c-0.095,0.942-0.199,1.927-0.423,2.847c-0.057,0.217-0.119,0.439-0.221,0.639l-0.01,0.019
			l-0.01,0.018l-0.01,0.017l-0.01,0.016l-0.01,0.016l-0.01,0.015l-0.01,0.014l-0.01,0.013l-0.01,0.012l-0.01,0.011l-0.01,0.011
			l-0.01,0.01l-0.01,0.009l-0.01,0.008l-0.01,0.007l-0.01,0.006l-0.01,0.006l-0.011,0.005l-0.01,0.004l-0.011,0.003l-0.011,0.002
			l-0.011,0.001l-0.011,0l-0.011,0l-0.011-0.001l-0.011-0.002l-0.011-0.003l-0.011-0.004l-0.011-0.005l-0.011-0.006l-0.011-0.007
			l-0.011-0.008l-0.011-0.009l-0.011-0.01l-0.011-0.01c-0.134-0.147-0.207-0.343-0.288-0.522c-0.154-0.335-0.348-0.982-0.612-1.222
			l-0.004-0.003l-0.004-0.003l-0.004-0.003l-0.004-0.003l-0.004-0.003l-0.004-0.003l-0.004-0.003l-0.004-0.003l-0.004-0.002
			l-0.004-0.002l-0.004-0.002l-0.004-0.002l-0.004-0.002l-0.004-0.002l-0.004-0.002l-0.004-0.001l-0.004-0.001l-0.004-0.001
			l-0.004-0.001l-0.004-0.001l-0.004-0.001l-0.004-0.001l-0.004,0l-0.004,0l-0.005,0l-0.004,0l-0.004,0l-0.004,0l-0.004,0.001
			l-0.004,0.001l-0.005,0.001l-0.004,0.001l-0.004,0.001l-0.005,0.001l-0.004,0.001l-0.005,0.002l-0.004,0.002l-0.005,0.002
			l-0.004,0.002l-0.005,0.002l-0.015,0.009l-0.015,0.01l-0.015,0.012l-0.015,0.014l-0.015,0.016l-0.015,0.017l-0.015,0.019
			l-0.015,0.021l-0.015,0.023l-0.015,0.024l-0.015,0.026l-0.015,0.027l-0.015,0.029l-0.015,0.031
			c-0.544,1.369-0.768,3.404-1.026,4.882c-0.537,3.53-1.444,11.15-2.232,14.525c-0.129,0.517-0.258,1.055-0.491,1.537l-0.018,0.034
			l-0.018,0.032l-0.018,0.031l-0.018,0.029l-0.018,0.028l-0.018,0.026l-0.018,0.024l-0.018,0.023l-0.018,0.021l-0.018,0.019
			l-0.018,0.018l-0.018,0.016l-0.018,0.014l-0.018,0.012l-0.018,0.011l-0.018,0.009l-0.006,0.003l-0.006,0.002l-0.006,0.002
			l-0.006,0.002l-0.006,0.002l-0.006,0.002l-0.006,0.001l-0.006,0.001l-0.006,0.001l-0.006,0.001l-0.006,0.001l-0.006,0l-0.006,0
			l-0.006,0l-0.006,0l-0.006,0l-0.006-0.001l-0.006-0.001l-0.006-0.001l-0.006-0.001l-0.006-0.001l-0.006-0.002l-0.006-0.002
			l-0.006-0.002l-0.006-0.002l-0.006-0.002l-0.006-0.003l-0.006-0.003l-0.006-0.003l-0.006-0.003l-0.006-0.003l-0.006-0.004
			l-0.006-0.004l-0.006-0.004l-0.006-0.004l-0.006-0.004l-0.006-0.004l-0.006-0.005c-0.104-0.08-0.177-0.192-0.245-0.302
			c-0.349-0.57-0.567-1.489-0.905-2.044l-0.008-0.01l-0.008-0.009l-0.008-0.008l-0.008-0.008l-0.008-0.007l-0.007-0.006
			l-0.007-0.005l-0.007-0.005l-0.007-0.004l-0.007-0.003l-0.007-0.003l-0.007-0.002l-0.007-0.001l-0.007-0.001l-0.007,0
			l-0.007,0.001l-0.007,0.001l-0.007,0.002l-0.006,0.003l-0.006,0.003l-0.006,0.004l-0.006,0.005l-0.006,0.005l-0.006,0.006
			l-0.006,0.007l-0.006,0.007l-0.006,0.008l-0.006,0.009l-0.006,0.009l-0.006,0.01l-0.006,0.011l-0.006,0.011l-0.006,0.012
			l-0.006,0.012l-0.006,0.013l-0.006,0.014c-0.251,0.785-0.454,3.529-0.581,4.38c-0.323,2.548-0.777,5.133-1.647,7.555
			c-0.734,2.015-1.756,3.939-3.044,5.655c-0.59,0.773-1.239,1.526-2.004,2.132c-0.346,0.264-0.722,0.522-1.153,0.617l-0.022,0.004
			l-0.021,0.004l-0.021,0.003l-0.021,0.003l-0.021,0.002l-0.021,0.002l-0.021,0.001l-0.02,0.001l-0.02,0.001l-0.02,0l-0.02,0
			l-0.019-0.001l-0.019-0.001l-0.019-0.002l-0.019-0.002l-0.018-0.003l-0.018-0.003l-0.018-0.004l-0.018-0.004l-0.018-0.004
			l-0.017-0.005l-0.017-0.005l-0.017-0.006l-0.017-0.006l-0.016-0.007l-0.016-0.007l-0.016-0.008l-0.016-0.008l-0.015-0.009
			l-0.015-0.009l-0.015-0.01l-0.015-0.01l-0.014-0.011l-0.014-0.011l-0.014-0.012l-0.014-0.012l-0.013-0.013l-0.013-0.013
			l-0.013-0.014l-0.013-0.014l-0.012-0.015l-0.012-0.015l-0.012-0.016l-0.008-0.011l-0.008-0.012
			c-0.208-0.33-0.24-0.738-0.267-1.118c-0.06-1.206,0.162-2.526,0.228-3.73c0.003-0.144,0.01-0.294-0.019-0.436l-0.002-0.008
			l-0.003-0.01l-0.003-0.009l-0.003-0.009l-0.003-0.008l-0.003-0.008l-0.003-0.008l-0.003-0.007l-0.004-0.007l-0.004-0.006
			l-0.004-0.006l-0.004-0.005l-0.004-0.005l-0.004-0.004l-0.005-0.004l-0.005-0.004l-0.005-0.003l-0.005-0.003l-0.005-0.002
			l-0.005-0.002l-0.005-0.001l-0.005-0.001l-0.006,0l-0.006,0l-0.006,0l-0.006,0.001l-0.006,0.001l-0.006,0.002l-0.006,0.002
			l-0.007,0.003l-0.007,0.003l-0.007,0.003l-0.007,0.004l-0.007,0.004l-0.007,0.005l-0.007,0.005l-0.007,0.005l-0.008,0.006
			l-0.008,0.006l-0.008,0.007l-0.008,0.007l-0.008,0.007c-0.145,0.143-0.252,0.325-0.357,0.497c-0.735,1.285-1.378,2.86-1.973,4.222
			c-1.401,3.221-3.85,10.039-5.638,12.964c-0.24,0.364-0.493,0.741-0.851,0.999l-0.018,0.012l-0.018,0.011l-0.018,0.011l-0.017,0.01
			l-0.017,0.01l-0.017,0.009l-0.017,0.009l-0.017,0.008l-0.017,0.008l-0.017,0.007l-0.017,0.006l-0.017,0.006l-0.017,0.005
			l-0.017,0.005l-0.017,0.004l-0.016,0.004l-0.016,0.003l-0.016,0.003l-0.016,0.002l-0.016,0.001l-0.016,0.001l-0.016,0l-0.016,0
			l-0.016-0.001l-0.016-0.001l-0.016-0.002l-0.016-0.003l-0.016-0.003l-0.015-0.004l-0.015-0.004l-0.015-0.005l-0.015-0.006
			l-0.015-0.006l-0.015-0.007l-0.015-0.007l-0.015-0.008c-0.197-0.118-0.317-0.327-0.425-0.523
			c-0.304-0.581-0.485-1.301-0.735-1.907c-0.04-0.091-0.082-0.186-0.146-0.263l-0.004-0.004l-0.005-0.006l-0.005-0.005l-0.005-0.005
			l-0.005-0.005l-0.005-0.004l-0.005-0.004l-0.005-0.004l-0.005-0.003l-0.005-0.003l-0.005-0.003l-0.005-0.002l-0.005-0.002
			l-0.005-0.002l-0.005-0.001l-0.005-0.001l-0.005-0.001l-0.005,0l-0.005,0l-0.005,0l-0.005,0l-0.005,0.001l-0.005,0.001
			l-0.005,0.001l-0.005,0.002l-0.005,0.002l-0.005,0.002l-0.005,0.003l-0.005,0.003l-0.005,0.003l-0.005,0.003l-0.005,0.004
			l-0.005,0.004l-0.005,0.004l-0.005,0.005l-0.005,0.005l-0.005,0.005l-0.005,0.005l-0.005,0.006l-0.005,0.006l-0.005,0.006
			l-0.005,0.007l-0.005,0.007c-0.122,0.177-0.188,0.391-0.261,0.592c-0.462,1.436-0.938,2.965-1.599,4.32
			c-0.96,2.007-2.307,3.819-3.79,5.468c-1.084,1.184-2.256,2.322-3.59,3.223c-0.514,0.329-1.061,0.669-1.677,0.752l-0.025,0.002
			l-0.024,0.002l-0.024,0.001l-0.024,0.001l-0.023,0l-0.023,0l-0.023-0.001l-0.022-0.001l-0.022-0.002l-0.022-0.002l-0.021-0.003
			l-0.021-0.003l-0.021-0.004l-0.02-0.004l-0.02-0.005l-0.02-0.005l-0.019-0.006l-0.019-0.006l-0.019-0.007l-0.018-0.007
			l-0.018-0.008l-0.018-0.008l-0.017-0.009l-0.017-0.009l-0.016-0.01l-0.016-0.01l-0.016-0.011l-0.015-0.011l-0.015-0.012
			c-0.099-0.083-0.167-0.198-0.214-0.317c-0.228-0.629-0.137-1.396-0.136-2.054c-0.001-0.159,0.005-0.325-0.035-0.479l-0.002-0.008
			l-0.003-0.008l-0.003-0.007l-0.003-0.007l-0.003-0.007l-0.003-0.007l-0.003-0.006l-0.003-0.006l-0.003-0.006l-0.003-0.005
			l-0.003-0.005l-0.004-0.005l-0.004-0.005l-0.004-0.004l-0.004-0.004l-0.004-0.004l-0.004-0.003l-0.004-0.003l-0.004-0.003
			l-0.004-0.003l-0.004-0.002l-0.005-0.002l-0.005-0.002l-0.005-0.002l-0.005-0.001l-0.005-0.001l-0.005-0.001l-0.005,0l-0.005,0
			l-0.005,0l-0.005,0l-0.005,0.001l-0.006,0.001l-0.006,0.001l-0.006,0.001l-0.006,0.002l-0.006,0.002l-0.006,0.002l-0.006,0.003
			l-0.006,0.003l-0.006,0.003l-0.006,0.003l-0.006,0.004l-0.006,0.004l-0.007,0.004l-0.007,0.004l-0.007,0.005l-0.007,0.005
			l-0.007,0.005c-0.291,0.251-0.501,0.657-0.697,0.987c-1.926,3.524-4.178,10.1-5.684,13.893c-0.725,1.788-1.458,3.734-2.442,5.395
			c-0.178,0.284-0.368,0.572-0.614,0.802l-0.021,0.019l-0.021,0.018l-0.021,0.017l-0.02,0.016l-0.02,0.015l-0.02,0.015l-0.02,0.014
			l-0.02,0.013l-0.02,0.012l-0.02,0.011l-0.019,0.01l-0.019,0.009l-0.019,0.008l-0.019,0.008l-0.019,0.007l-0.019,0.006
			l-0.018,0.005l-0.018,0.004l-0.018,0.003l-0.018,0.002l-0.018,0.001l-0.018,0l-0.017-0.001l-0.017-0.002l-0.017-0.003
			l-0.017-0.004l-0.017-0.005l-0.017-0.005l-0.016-0.007l-0.016-0.007l-0.016-0.008l-0.007-0.004l-0.007-0.004l-0.007-0.004
			l-0.007-0.005l-0.007-0.005l-0.007-0.005l-0.007-0.005l-0.007-0.005l-0.007-0.005c-0.081-0.067-0.141-0.156-0.193-0.246
			c-0.318-0.595-0.461-1.407-0.641-2.056c-0.063-0.212-0.112-0.443-0.234-0.63l-0.004-0.005l-0.004-0.005l-0.004-0.005l-0.004-0.004
			l-0.004-0.004l-0.004-0.004l-0.004-0.004l-0.007-0.007l-0.007-0.006l-0.007-0.005l-0.007-0.005l-0.007-0.004l-0.007-0.003
			l-0.007-0.003l-0.007-0.002l-0.007-0.001l-0.007-0.001l-0.007,0l-0.007,0l-0.007,0.001l-0.007,0.002l-0.007,0.002l-0.007,0.003
			l-0.007,0.004l-0.007,0.004l-0.007,0.005l-0.007,0.005l-0.007,0.006l-0.007,0.007l-0.008,0.007l-0.008,0.008l-0.008,0.008
			l-0.008,0.009l-0.008,0.01l-0.008,0.01l-0.008,0.011l-0.008,0.011l-0.008,0.012l-0.008,0.012l-0.008,0.013
			c-0.192,0.365-0.277,0.788-0.375,1.186c-0.662,3.187-0.988,6.706-1.308,9.949c-0.52,5.328-0.562,10.784-0.075,16.115
			c0.169,2.024,0.387,4.117,0.895,6.086c0.332,1.276,0.822,2.533,1.608,3.602c0.829,1.15,1.968,2.037,3.143,2.811
			c1.514,0.954,4.891,3.197,6.404,4.214c1.282,0.871,2.996,1.736,4.257,2.638c0.617,0.455,1.177,1.005,1.573,1.665
			c0.942,1.62,1.093,3.617,1.233,5.45c0.135,2.916,0.262,5.916-0.092,8.82c-0.14,1.005-0.332,2.039-0.839,2.931
			c-0.971,1.753-3.052,2.221-4.893,2.446c-3.575,0.495-20.922,0.193-24.838,0.278c-2.878-0.029-6.398,0.046-9.241-0.317
			c-1.554-0.204-3.16-0.521-4.484-1.404c-1.209-0.789-2.023-2.042-2.563-3.358c-1.014-2.461-1.824-6.1-2.538-8.688
			c-0.595-2.205-1.417-4.601-2.192-6.755c-0.281-0.771-0.877-1.959-1.192-2.722c-0.239-0.549-0.422-1.213-0.629-1.775
			c-0.073-0.175-0.167-0.432-0.339-0.529l-0.004-0.002l-0.004-0.002l-0.004-0.002l-0.004-0.002l-0.004-0.002l-0.004-0.001
			l-0.004-0.001l-0.004-0.001l-0.004-0.001l-0.004-0.001l-0.004-0.001l-0.004-0.001l-0.004-0.001l-0.004-0.001l-0.004-0.001
			l-0.004-0.001l-0.004-0.001l-0.004,0l-0.004,0l-0.004,0l-0.004,0l-0.004,0l-0.004,0h-0.004l-0.004,0l-0.004,0l-0.004,0l-0.004,0
			l-0.004,0l-0.004,0.001l-0.004,0.001l-0.004,0.001l-0.004,0.001l-0.004,0.001l-0.004,0.001l-0.004,0.001l-0.004,0.001
			l-0.004,0.001c-0.252,0.094-0.523,0.522-0.701,0.729c-0.159,0.189-0.356,0.458-0.6,0.531l-0.01,0.002l-0.01,0.002l-0.01,0.002
			l-0.01,0.001l-0.01,0.001l-0.01,0.001l-0.01,0l-0.01,0l-0.01,0l-0.01-0.001l-0.01-0.001l-0.01-0.002l-0.01-0.002l-0.01-0.002
			l-0.01-0.003l-0.01-0.003l-0.01-0.003l-0.01-0.004l-0.01-0.004l-0.01-0.004l-0.01-0.005l-0.01-0.005l-0.01-0.005l-0.01-0.006
			l-0.01-0.006l-0.01-0.006l-0.01-0.007l-0.01-0.007l-0.01-0.007l-0.01-0.008l-0.01-0.008l-0.01-0.008l-0.01-0.009l-0.01-0.009
			l-0.01-0.009l-0.01-0.01c-0.231-0.251-0.351-0.583-0.47-0.898c-0.834-2.645-1.257-5.736-2.024-8.399
			c-0.429-1.503-0.851-3.069-1.598-4.449c-0.139-0.235-0.29-0.477-0.511-0.643l-0.011-0.008l-0.011-0.008l-0.011-0.007l-0.011-0.007
			l-0.011-0.007l-0.011-0.006l-0.011-0.006l-0.011-0.006l-0.011-0.005l-0.011-0.005l-0.011-0.005l-0.011-0.004l-0.011-0.004
			l-0.011-0.004l-0.011-0.003l-0.011-0.003l-0.011-0.003l-0.011-0.002l-0.011-0.002l-0.011-0.001l-0.011-0.001l-0.011-0.001
			l-0.011,0l-0.011,0l-0.011,0l-0.01,0.001l-0.01,0.001l-0.01,0.001l-0.01,0.002l-0.01,0.002l-0.01,0.002l-0.01,0.003
			c-0.202,0.066-0.337,0.27-0.459,0.433c-0.169,0.222-0.385,0.634-0.652,0.729l-0.011,0.003l-0.011,0.003l-0.011,0.002l-0.011,0.002
			l-0.011,0.001l-0.011,0.001l-0.011,0.001l-0.011,0l-0.011,0l-0.011-0.001l-0.011-0.001l-0.011-0.001l-0.011-0.002l-0.011-0.002
			l-0.011-0.003l-0.011-0.003l-0.011-0.003l-0.011-0.004l-0.011-0.004l-0.011-0.005l-0.011-0.005l-0.011-0.005l-0.011-0.006
			l-0.011-0.006l-0.011-0.007l-0.012-0.007l-0.012-0.007l-0.012-0.008l-0.012-0.008l-0.012-0.008l-0.012-0.009l-0.012-0.009
			l-0.012-0.01c-0.166-0.142-0.289-0.329-0.401-0.514c-0.557-0.978-0.92-2.098-1.294-3.158c-1.135-3.367-2.632-8.573-4.102-11.749
			c-0.172-0.337-0.336-0.698-0.604-0.971l-0.009-0.009l-0.009-0.008l-0.009-0.008l-0.009-0.007l-0.009-0.007l-0.009-0.007
			l-0.009-0.006l-0.009-0.006l-0.009-0.005l-0.009-0.005l-0.009-0.005l-0.009-0.004l-0.008-0.004l-0.008-0.003l-0.008-0.003
			l-0.008-0.002l-0.008-0.002l-0.008-0.002l-0.008-0.001l-0.008-0.001l-0.008,0l-0.008,0l-0.008,0.001l-0.007,0.001l-0.007,0.001
			l-0.007,0.002l-0.007,0.002l-0.007,0.003l-0.007,0.003l-0.007,0.004l-0.007,0.004l-0.007,0.005l-0.007,0.005l-0.007,0.005
			l-0.006,0.006l-0.006,0.006l-0.006,0.007l-0.006,0.007l-0.006,0.008l-0.003,0.004l-0.003,0.004
			c-0.193,0.33-0.229,1.137-0.305,1.539c-0.048,0.266-0.085,0.605-0.243,0.828l-0.004,0.005l-0.004,0.005l-0.004,0.004l-0.004,0.004
			l-0.004,0.004l-0.004,0.004l-0.004,0.004l-0.004,0.004l-0.004,0.004l-0.004,0.003l-0.004,0.003l-0.004,0.003l-0.004,0.003
			l-0.004,0.002l-0.004,0.002l-0.004,0.002l-0.004,0.002l-0.004,0.002l-0.004,0.002l-0.004,0.002l-0.004,0.002l-0.004,0.002
			l-0.004,0.002l-0.004,0.001l-0.004,0.001l-0.004,0.001l-0.004,0.001l-0.004,0.001l-0.004,0.001l-0.004,0.001l-0.004,0.001
			l-0.004,0.001l-0.004,0.001l-0.004,0l-0.004,0l-0.004,0l-0.004,0l-0.004,0h-0.004l-0.004,0l-0.004,0l-0.004,0l-0.004,0l-0.004,0
			l-0.004-0.001l-0.004-0.001l-0.004-0.001l-0.004-0.001l-0.004-0.001l-0.004-0.001l-0.005-0.001l-0.005-0.001
			c-0.109-0.034-0.195-0.116-0.274-0.195c-0.509-0.577-0.846-1.303-1.2-1.98c-1.365,1.277-2.802,2.537-4.447,3.442
			c-1.153,0.632-2.454,1.058-3.78,1.011c-1.662-0.051-3.199-0.809-4.65-1.557c-1.209-0.62-2.712-1.544-4.016-1.915
			c-0.314-0.085-0.643-0.142-0.969-0.122c-0.768,0.038-1.379,0.635-1.953,1.084c-0.338,0.264-0.705,0.509-1.121,0.626
			c-0.348,0.101-0.721,0.1-1.075,0.029c-0.458-0.09-0.899-0.266-1.321-0.46c-1.662-0.771-4.269-2.62-5.84-3.613
			c-1.505-0.935-3.063-1.895-4.791-2.35c-0.522-0.129-1.066-0.202-1.603-0.147c-0.466,0.047-0.919,0.196-1.335,0.408
			c-1.301,0.669-2.303,1.893-3.396,2.838c-0.691,0.598-1.502,1.164-2.444,1.213c-0.592,0.032-1.175-0.144-1.714-0.375
			c-1.121-0.495-2.13-1.24-3.103-1.977c-1.532-1.151-3.211-2.711-4.936-3.541c-0.312-0.138-0.643-0.252-0.986-0.273l-0.031-0.002
			l-0.031-0.001l-0.031,0l-0.03,0l-0.03,0.001l-0.03,0.001l-0.03,0.002l-0.029,0.003c-0.36,0.032-0.686,0.222-0.95,0.461
			c-0.524,0.472-0.915,1.142-1.377,1.67c-0.303,0.347-0.686,0.692-1.168,0.723l-0.026,0.001l-0.026,0.001l-0.026,0l-0.026,0
			l-0.026-0.001l-0.026-0.001l-0.027-0.002l-0.027-0.002l-0.027-0.003l-0.027-0.003c-0.363-0.051-0.702-0.214-1.017-0.395
			c-0.541-0.316-1.051-0.725-1.533-1.126c-1.559-1.297-3.072-2.9-4.832-3.926c-0.413-0.231-0.854-0.43-1.321-0.517
			c-1.286-0.252-2.381,0.701-3.357,1.396c-0.555,0.385-1.194,0.817-1.902,0.713c-0.359-0.054-0.678-0.253-0.958-0.476
			c-0.764-0.633-1.345-1.468-1.907-2.278l-1.297-1.964c-0.26-0.364-0.507-0.768-0.861-1.047l-0.012-0.008l-0.012-0.008l-0.012-0.007
			l-0.012-0.007l-0.011-0.007l-0.011-0.006l-0.011-0.006l-0.011-0.005l-0.011-0.005l-0.011-0.004l-0.011-0.004l-0.01-0.003
			l-0.01-0.003l-0.01-0.003l-0.01-0.002l-0.01-0.002l-0.01-0.001l-0.01-0.001l-0.01,0l-0.009,0l-0.009,0.001l-0.009,0.001
			l-0.009,0.002l-0.006,0.002l-0.006,0.002l-0.006,0.002l-0.006,0.002l-0.006,0.003l-0.006,0.003l-0.006,0.003l-0.006,0.003
			l-0.006,0.003l-0.005,0.004l-0.005,0.004l-0.005,0.004l-0.005,0.004l-0.005,0.004l-0.005,0.005l-0.005,0.005l-0.005,0.005
			l-0.005,0.005l-0.005,0.005l-0.005,0.006l-0.005,0.006l-0.005,0.006l-0.005,0.006l-0.005,0.006l-0.005,0.007
			c-0.2,0.326-0.273,1.005-0.367,1.388c-0.099,0.442-0.21,0.897-0.451,1.286c-0.124,0.196-0.294,0.371-0.512,0.458l-0.03,0.011
			l-0.03,0.01l-0.031,0.009l-0.032,0.008l-0.032,0.008l-0.033,0.007l-0.033,0.006l-0.034,0.005l-0.034,0.004l-0.035,0.003
			l-0.036,0.002l-0.036,0.001l-0.037,0l-0.037-0.001l-0.038-0.002l-0.038-0.003l-0.039-0.003l-0.039-0.004l-0.04-0.005l-0.04-0.006
			l-0.041-0.007c-0.489-0.092-0.95-0.307-1.389-0.537c-1.178-0.635-2.288-1.469-3.355-2.275c-2.109-1.596-5.558-4.557-7.841-5.804
			c-0.47-0.249-0.965-0.486-1.493-0.578l-0.041-0.006l-0.04-0.005c-0.491-0.07-0.951,0.095-1.337,0.393
			c-0.546,0.407-1.048,1.058-1.81,0.907l-0.027-0.005l-0.027-0.006c-0.37-0.084-0.709-0.274-1.028-0.473
			c-0.83-0.534-1.593-1.217-2.327-1.875c-1.35-1.207-3.025-2.934-4.533-3.913c-0.271-0.166-0.557-0.324-0.867-0.401l-0.026-0.006
			l-0.026-0.006l-0.026-0.005l-0.025-0.004l-0.025-0.004l-0.025-0.003l-0.025-0.003l-0.024-0.002l-0.024-0.001l-0.024-0.001
			l-0.023,0l-0.023,0l-0.023,0.001l-0.023,0.002l-0.022,0.002l-0.022,0.003l-0.022,0.003c-0.41,0.076-0.637,0.476-0.822,0.813
			l-0.215,0.41c-0.127,0.224-0.258,0.485-0.504,0.595l-0.007,0.003l-0.007,0.003l-0.007,0.003l-0.007,0.003l-0.007,0.002
			l-0.007,0.002l-0.008,0.002l-0.008,0.002l-0.008,0.002l-0.008,0.002l-0.008,0.001l-0.008,0.001l-0.008,0.001l-0.008,0.001
			l-0.008,0.001l-0.008,0.001l-0.008,0.001l-0.008,0l-0.008,0l-0.008,0l-0.018,0l-0.018-0.001l-0.018-0.002l-0.019-0.002
			l-0.019-0.003l-0.019-0.004l-0.019-0.004l-0.02-0.005l-0.02-0.006l-0.02-0.006l-0.02-0.007l-0.02-0.008l-0.021-0.008l-0.021-0.009
			l-0.021-0.01l-0.021-0.01l-0.022-0.011l-0.022-0.012c-0.282-0.159-0.519-0.39-0.744-0.62c-1.343-1.434-3.055-4.09-4.274-5.646
			c-0.489-0.63-1.005-1.275-1.581-1.827c-0.264-0.247-0.546-0.49-0.875-0.646c-0.204-0.096-0.434-0.142-0.659-0.113
			c-0.405,0.049-0.781,0.309-1.14,0.485c-0.377,0.193-0.807,0.307-1.231,0.234l-0.038-0.006l-0.039-0.007l-0.039-0.008l-0.04-0.009
			c-0.69-0.177-1.3-0.582-1.879-0.984c-3.867-2.878-7.205-7.035-11.179-9.774c-0.818-0.534-1.71-1.058-2.705-1.135
			c-0.566-0.046-1.132,0.073-1.666,0.254c-0.894,0.305-1.856,0.776-2.819,0.523c-0.461-0.113-0.888-0.342-1.287-0.594
			c-1.646-1.069-3.047-2.609-4.578-3.826c-0.484-0.367-1.02-0.793-1.629-0.906l-0.021-0.003l-0.02-0.002l-0.02-0.002l-0.02-0.002
			l-0.02-0.001l-0.02-0.001c-0.55-0.018-0.924,0.482-1.28,0.831c-0.309,0.317-0.692,0.616-1.153,0.634l-0.026,0.001l-0.026,0.001
			c-0.492,0.001-0.962-0.19-1.403-0.393c-2.146-1.06-4.323-2.949-6.409-4.117c-0.458-0.255-0.938-0.497-1.441-0.647
			c-0.39-0.118-0.81-0.155-1.208-0.057c-0.501,0.112-0.978,0.445-1.415,0.702c-0.294,0.172-0.605,0.327-0.942,0.394
			c-0.3,0.062-0.612,0.046-0.913-0.002c-0.626-0.104-1.241-0.335-1.832-0.563c-1.413-0.553-3.019-1.277-4.511-1.533
			c-0.755-0.137-1.536-0.178-2.297-0.065c-2.577,0.391-4.857,2.154-7.061,3.432c-0.517,0.286-1.054,0.59-1.646,0.683
			c-0.259,0.037-0.523-0.001-0.772-0.076c-0.292-0.087-0.608-0.22-0.915-0.24c-0.221-0.017-0.445,0.02-0.652,0.097
			c-0.321,0.118-0.61,0.313-0.885,0.515c-1.324,1.021-2.484,2.363-3.609,3.596c-1.663,1.855-4.37,5.144-6.239,6.747
			c-0.324,0.267-0.665,0.534-1.052,0.705l-0.03,0.012l-0.029,0.012l-0.029,0.011l-0.028,0.01l-0.028,0.009l-0.028,0.008
			c-0.229,0.071-0.478,0.048-0.699-0.041c-0.196-0.073-0.393-0.187-0.605-0.202c-0.136-0.011-0.271,0.026-0.391,0.089l-0.024,0.013
			l-0.024,0.014l-0.024,0.015l-0.025,0.016l-0.025,0.016l-0.025,0.017c-0.342,0.248-0.617,0.581-0.882,0.907
			c-1.772,2.324-3.569,5.633-5.153,8.102c-0.838,1.307-1.7,2.67-2.739,3.828c-0.278,0.299-0.574,0.595-0.924,0.809l-0.031,0.018
			l-0.031,0.017c-0.312,0.181-0.681,0.224-1.03,0.143c-0.354-0.071-0.757-0.257-1.096-0.041l-0.015,0.009l-0.015,0.01l-0.015,0.01
			l-0.015,0.011l-0.015,0.011l-0.015,0.012c-0.239,0.193-0.411,0.458-0.569,0.718c-1.078,1.94-1.849,4.587-2.902,6.539
			c-0.368,0.683-0.782,1.372-1.392,1.866c-0.566,0.476-1.35,0.727-2.033,0.987c-0.562,0.216-1.107,0.497-1.571,0.884
			c-0.691,0.573-1.223,1.323-1.723,2.062c-1.003,1.479-1.947,3.385-2.984,4.841c-0.151,0.197-0.309,0.398-0.51,0.546l-0.014,0.01
			l-0.014,0.009l-0.013,0.009l-0.013,0.008l-0.013,0.008l-0.013,0.007l-0.013,0.007l-0.013,0.006l-0.013,0.006l-0.013,0.005
			l-0.013,0.005l-0.012,0.004l-0.012,0.004l-0.012,0.003L235.473,538l-0.012,0.002l-0.012,0.002l-0.012,0.001l-0.012,0.001l-0.012,0
			l-0.011,0l-0.011-0.001l-0.011-0.001l-0.011-0.002l-0.011-0.002l-0.011-0.003l-0.011-0.003l-0.011-0.004l-0.01-0.004l-0.005-0.002
			l-0.005-0.002l-0.005-0.003l-0.005-0.003l-0.005-0.003l-0.005-0.003l-0.005-0.003l-0.005-0.003l-0.005-0.003l-0.005-0.003
			l-0.005-0.003l-0.005-0.004c-0.156-0.133-0.226-0.339-0.303-0.523l-0.174-0.456c-0.099-0.232-0.202-0.518-0.426-0.655
			l-0.006-0.003l-0.006-0.003l-0.006-0.003l-0.006-0.003l-0.006-0.003l-0.006-0.003l-0.006-0.003l-0.006-0.002l-0.006-0.002
			l-0.006-0.002l-0.006-0.002l-0.006-0.002l-0.006-0.002l-0.006-0.002l-0.006-0.001l-0.007-0.001l-0.007-0.001l-0.007-0.001
			l-0.007-0.001l-0.007-0.001l-0.007-0.001l-0.007-0.001l-0.007,0l-0.007,0l-0.007,0h-0.007l-0.007,0l-0.007,0l-0.016,0.001
			l-0.016,0.002l-0.017,0.003l-0.017,0.003l-0.017,0.004l-0.017,0.005l-0.018,0.006l-0.018,0.006l-0.018,0.007l-0.018,0.008
			l-0.018,0.008l-0.019,0.009l-0.019,0.01l-0.019,0.011l-0.019,0.011l-0.02,0.012l-0.02,0.013l-0.02,0.013
			c-0.241,0.168-0.442,0.392-0.632,0.615c-0.988,1.179-2.493,3.751-3.349,5.067c-0.427,0.658-0.88,1.353-1.379,1.958
			c-0.187,0.22-0.383,0.443-0.62,0.61l-0.019,0.013l-0.019,0.012l-0.019,0.012l-0.019,0.011l-0.019,0.01l-0.018,0.01l-0.018,0.009
			l-0.018,0.008l-0.018,0.008l-0.018,0.007l-0.017,0.006l-0.017,0.005l-0.017,0.005l-0.017,0.004l-0.016,0.003l-0.016,0.002
			l-0.016,0.002l-0.016,0.001l-0.008,0l-0.008,0l-0.007,0l-0.007,0l-0.007,0l-0.007-0.001l-0.007-0.001l-0.007-0.001l-0.007-0.001
			l-0.007-0.001l-0.007-0.002l-0.007-0.002l-0.007-0.002l-0.007-0.002l-0.007-0.002l-0.007-0.002l-0.007-0.003l-0.007-0.003
			l-0.007-0.003l-0.007-0.003l-0.007-0.003l-0.006-0.003l-0.006-0.003l-0.006-0.004l-0.006-0.004l-0.006-0.004l-0.006-0.004
			l-0.006-0.004l-0.006-0.004l-0.006-0.005l-0.006-0.005l-0.006-0.005c-0.312-0.276-0.44-1.031-0.571-1.43
			c-0.083-0.256-0.163-0.569-0.365-0.758l-0.006-0.005l-0.006-0.005l-0.006-0.005l-0.006-0.004l-0.006-0.004l-0.006-0.004
			l-0.01-0.006l-0.01-0.006l-0.01-0.005l-0.01-0.005l-0.01-0.005l-0.01-0.004l-0.01-0.004l-0.01-0.004l-0.01-0.003l-0.011-0.003
			l-0.011-0.003l-0.011-0.002l-0.011-0.002l-0.011-0.002l-0.011-0.001l-0.011-0.001l-0.011,0l-0.011,0l-0.012,0l-0.012,0.001
			l-0.012,0.001l-0.012,0.001l-0.012,0.002l-0.012,0.002l-0.012,0.002l-0.012,0.003l-0.012,0.003l-0.012,0.003l-0.013,0.003
			l-0.013,0.004l-0.013,0.004l-0.013,0.005l-0.013,0.005l-0.013,0.005c-0.226,0.096-0.414,0.266-0.59,0.434
			c-1.189,1.228-2.168,2.865-3.294,4.15c-0.431,0.499-0.913,0.96-1.458,1.332c-0.745,0.521-1.663,0.851-2.457,1.286
			c-1.796,1.043-3.592,2.487-5.296,3.672c-2.513,1.899-5.078,3.963-6.641,6.75c-0.673,1.207-1.026,2.567-1.219,3.928
			c-0.349,2.354-0.431,4.774-0.184,7.143c0.107,0.862,0.21,1.769,0.652,2.533c0.667,1.147,2.117,1.318,3.313,1.482
			c0.986,0.157,2.615,0.245,3.572,0.5c0.645,0.148,1.285,0.375,1.83,0.758c0.726,0.499,1.223,1.261,1.556,2.065
			c0.611,1.51,0.891,3.143,1.095,4.753c0.32,2.819,0.32,5.729-0.41,8.487c-0.295,1.039-0.675,2.109-1.416,2.918
			c-0.769,0.842-1.941,0.971-3.018,1.01c-1.734,0.002-28.709,0.101-30.036-0.064c-0.808-0.073-1.629-0.209-2.365-0.564
			c-0.611-0.291-1.135-0.747-1.542-1.285c-0.791-1.051-1.214-2.331-1.524-3.595c-0.67-2.873-0.798-5.9-0.87-8.841
			c-0.389-5.675-0.66-11.647-2.24-17.137c-0.264-1.08-0.453-2.202-0.5-3.314c-0.077-1.684,0.12-3.43,0.319-5.102l0.896-6.627
			c0.194-1.823,0.457-3.723,0.192-5.549c-0.117-0.793-0.503-1.619-0.826-2.35c-0.927-2.039-0.571-4.352-0.329-6.502
			c0.414-3.491,1.437-8.162,1.547-11.667c-0.001-0.511-0.009-1.039-0.164-1.531l-0.011-0.031l-0.011-0.03l-0.011-0.029l-0.012-0.028
			l-0.012-0.028l-0.012-0.027l-0.013-0.026l-0.013-0.025l-0.014-0.024l-0.014-0.023l-0.014-0.023l-0.015-0.022l-0.015-0.021
			l-0.016-0.02l-0.016-0.019c-0.22-0.262-0.593-0.263-0.906-0.235c-0.362,0.025-0.788,0.125-1.123-0.055l-0.018-0.01l-0.018-0.011
			l-0.017-0.012l-0.017-0.012l-0.017-0.013l-0.016-0.013l-0.016-0.014l-0.016-0.014l-0.016-0.015l-0.015-0.016l-0.015-0.016
			l-0.015-0.017l-0.015-0.017l-0.014-0.018l-0.014-0.018l-0.014-0.019l-0.014-0.019l-0.013-0.02l-0.013-0.02l-0.013-0.021
			l-0.012-0.022l-0.012-0.022L172,520.504l-0.012-0.023c-0.31-0.683-0.273-1.509-0.231-2.243c0.207-2.373,0.924-4.684,1.784-6.895
			c0.815-2.053,1.833-4.045,3.046-5.891c1.944-3.01,4.708-6.045,6.935-8.854c0.623-0.811,1.26-1.658,1.705-2.582
			c0.192-0.41,0.353-0.85,0.369-1.307l0.001-0.034l0-0.034l0-0.034l-0.001-0.034l-0.002-0.034l-0.002-0.033l-0.003-0.033
			l-0.004-0.033l-0.004-0.033l-0.005-0.032l-0.006-0.032l-0.006-0.032l-0.007-0.032l-0.008-0.031l-0.008-0.031
			c-0.095-0.348-0.319-0.644-0.564-0.902c-0.586-0.616-1.373-1.113-1.803-1.865c-0.189-0.329-0.284-0.712-0.258-1.091
			c0.046-0.624,0.322-1.205,0.616-1.748C185.415,483.41,188.522,480.557,190.76,477.61z"/>
	</g>
</g>
</svg>
