<?xml version="1.0" encoding="utf-8"?>
<!-- Generator: Adobe Illustrator 25.3.1, SVG Export Plug-In . SVG Version: 6.00 Build 0)  -->
<!DOCTYPE svg PUBLIC "-//W3C//DTD SVG 1.1//EN" "http://www.w3.org/Graphics/SVG/1.1/DTD/svg11.dtd" [
	<!ENTITY ns_extend "http://ns.adobe.com/Extensibility/1.0/">
	<!ENTITY ns_ai "http://ns.adobe.com/AdobeIllustrator/10.0/">
	<!ENTITY ns_graphs "http://ns.adobe.com/Graphs/1.0/">
	<!ENTITY ns_vars "http://ns.adobe.com/Variables/1.0/">
	<!ENTITY ns_imrep "http://ns.adobe.com/ImageReplacement/1.0/">
	<!ENTITY ns_sfw "http://ns.adobe.com/SaveForWeb/1.0/">
	<!ENTITY ns_custom "http://ns.adobe.com/GenericCustomNamespace/1.0/">
	<!ENTITY ns_adobe_xpath "http://ns.adobe.com/XPath/1.0/">
]>
<svg version="1.1" xmlns:x="&ns_extend;" xmlns:i="&ns_ai;" xmlns:graph="&ns_graphs;"
	 xmlns="http://www.w3.org/2000/svg" xmlns:xlink="http://www.w3.org/1999/xlink" x="0px" y="0px" width="750px" height="750px"
	 viewBox="0 0 750 750" enable-background="new 0 0 750 750" xml:space="preserve">
<metadata>
	<sfw  xmlns="&ns_sfw;">
		<slices></slices>
		<sliceSourceBounds  bottomLeftOrigin="true" height="10380.179" width="6859.54" x="-3380.54" y="-1314"></sliceSourceBounds>
	</sfw>
</metadata>
<g id="FILL-BACKGROUND">
	<rect fill="#FFFFFF" width="750" height="750"/>
</g>
<g id="N-DIMENSIONS">
</g>
<g id="N-TEXT">
</g>
<g id="_x32_D_x24_AG-DIAGRAM">
	<g id="POLYLINE_691_">
		<g>
			<g>
				
					<line fill="none" stroke="#FB8604" stroke-width="3.25" stroke-linecap="round" stroke-linejoin="round" x1="140.543" y1="610.163" x2="142.543" y2="610.163"/>
				
					<line fill="none" stroke="#FB8604" stroke-width="3.25" stroke-linecap="round" stroke-linejoin="round" stroke-dasharray="3.9588,6.9279" x1="149.471" y1="610.163" x2="548.816" y2="610.163"/>
				
					<line fill="none" stroke="#FB8604" stroke-width="3.25" stroke-linecap="round" stroke-linejoin="round" x1="552.28" y1="610.163" x2="554.28" y2="610.163"/>
			</g>
		</g>
	</g>
</g>
<g id="_x32_D_x24_AG-DETAILS-DIAGRAM">
</g>
<g id="_x32_D_x24_AG-DETAILS">
</g>
<g id="_x32_D_x24_AG-ANIMALS">
	<g id="POLYLINE_141_">
		
			<path fill="none" stroke="#FB8604" stroke-width="2.75" stroke-linecap="round" stroke-linejoin="round" stroke-miterlimit="10" d="
			M291.462,407.717c2.933,0.596,5.991,1.144,8.974,0.62c1.821-0.316,3.671-1.291,5.381-1.971c1.321-0.526,2.724-0.904,4.153-0.926
			c1.668-0.028,3.32,0.371,4.911,0.838c3.307,0.992,7.023,2.648,10.309,3.713c1.355,0.432,2.749,0.822,4.166,0.968
			c2.038,0.248,4.233-0.249,6.261-0.391c0.855-0.047,1.727,0.014,2.548,0.272c2.591,0.855,5.043,3.023,7.439,4.303
			c0.948,0.524,1.95,0.981,2.997,1.269c1.629,0.453,3.363,0.553,5.046,0.61c2.393,0.078,5.073,0.086,7.376,0.763
			c3.139,0.905,6.079,2.966,8.905,4.556c1.675,0.937,3.434,1.845,5.342,2.175c3.073,0.536,6.216-0.571,9.286-0.6
			c1.302-0.021,2.598,0.24,3.834,0.637c2.711,0.871,5.445,2.308,8.235,2.925c3.189,0.738,6.639,0.273,9.867,0.029
			c1.963-0.143,4.006-0.266,5.933,0.217c1.931,0.456,3.781,1.478,5.696,1.984c2.567,0.699,5.418-0.019,8.014-0.155
			c1.072-0.067,2.175-0.063,3.24,0.095c1.433,0.211,2.834,0.657,4.188,1.159l3.488,1.364c1.355,0.529,2.703,0.843,4.165,0.824
			c0.338-0.002,1.184-0.006,1.511-0.004"/>
	</g>
	<g id="POLYLINE_140_">
		
			<path fill="none" stroke="#FB8604" stroke-width="2.75" stroke-linecap="round" stroke-linejoin="round" stroke-miterlimit="10" d="
			M494.505,548.199c0.335-2.529,0.668-5.71,1.378-8.13c0.892-3.15,2.491-6.886,3.465-10.016c0.765-2.42,1.394-4.928,1.563-7.467
			c0.297-4.362-0.802-8.897-1.272-13.215c-0.217-1.98-0.299-4.008-0.102-5.993c0.323-3.576,1.505-7.772,2.333-11.28
			c0.584-2.495,1.061-5.053,1.045-7.621c0.033-3.041-0.517-6.442-0.123-9.466c0.452-3.576,2.584-6.764,3.799-10.098
			c0.578-1.525,0.923-3.141,0.981-4.772c0.134-2.837-0.317-6.115,0.148-8.925c0.236-1.583,0.825-3.098,1.603-4.492
			c1.941-3.48,4.868-6.651,6.82-10.125c1.027-1.781,1.73-3.742,2.209-5.737c1.013-4.192,1.396-9.048,3.284-12.972
			c2.528-5.354,7.323-9.875,9.723-15.298c1.76-3.828,1.378-8.298,1.358-12.402c0.001-2.161,0.139-4.375,0.875-6.424
			c1.185-3.461,3.811-6.624,5.089-10.041c1.191-3.035,0.328-6.45,0.058-9.573c-0.107-1.231-0.127-2.495,0.032-3.722
			c0.2-1.545,0.649-3.062,1.207-4.514c1.692-4.409,4.566-8.546,7.177-12.459c0.91-1.41,1.748-2.905,2.224-4.522
			c0.522-1.721,0.611-3.563,0.655-5.351c0.051-2.878-0.048-6.267,0.453-9.086c0.265-1.561,0.77-3.089,1.365-4.553
			c0.976-2.429,2.479-5.242,3.116-7.784c0.378-1.453,0.458-2.974,0.442-4.469c-0.022-2.195-0.26-4.831,0.277-6.965
			c0.7-2.826,2.906-5.15,4.671-7.376c1.411-1.702,2.487-3.666,3.263-5.732l0.978-2.621"/>
	</g>
	<g id="POLYLINE_139_">
		
			<path fill="none" stroke="#FB8604" stroke-width="2.75" stroke-linecap="round" stroke-linejoin="round" stroke-miterlimit="10" d="
			M440.477,399.824c-0.829,1.751-1.409,3.624-1.8,5.518c-0.384,1.895-0.585,3.845-0.501,5.779c0.063,1.292,0.249,2.602,0.71,3.816
			c0.368,0.97,0.947,1.852,1.583,2.666c0.865,1.099,1.891,2.247,2.404,3.554c0.712,1.836,0.569,3.873,0.441,5.801
			c-0.34,4.104-1.13,8.707-0.448,12.795c0.591,3.958,2.225,7.986,3.069,11.889c0.509,2.274,0.659,4.639,0.333,6.951
			c-0.536,4.281-2.248,8.573-2.576,12.885c-0.146,1.967,0.135,3.95,0.525,5.876c0.507,2.468,1.287,5.602,1.239,8.129
			c-0.007,2.805-0.904,6.071-1.468,8.812c-0.376,1.945-0.754,3.994-0.283,5.955c0.342,1.412,1.264,2.79,2.007,4.027
			c0.456,0.775,0.888,1.593,1.056,2.484c0.174,0.879,0.017,1.785-0.236,2.633c-0.547,1.81-1.546,3.632-2.095,5.442
			c-0.219,0.725-0.381,1.481-0.382,2.24c-0.001,0.618,0.113,1.234,0.295,1.823c0.488,1.585,1.557,3.271,2.24,4.777
			c0.543,1.174,0.964,2.43,1.053,3.727c0.132,2.068-0.392,4.124-0.943,6.1c-0.507,1.769-1.417,4.472-1.723,6.256
			c-0.101,0.59-0.171,1.197-0.145,1.797c0.029,1.067,0.502,2.058,1.092,2.926c0.679,0.999,1.482,2.089,1.836,3.253
			c0.433,1.388,0.45,2.879,0.458,4.321c-0.028,1.994-0.153,4.916,0.09,6.852c0.139,1.075,0.395,2.173,1.007,3.084
			c0.631,0.95,1.571,1.642,2.514,2.259c1.413,0.915,2.952,1.789,3.973,3.155c0.948,1.271,1.407,2.833,1.744,4.362
			c0.831,3.792,0.754,8.032,1.869,11.762c0.286,0.903,0.69,1.773,1.176,2.586c1.236,2.047,3.104,4.264,4.484,6.227
			c3.024,4.269,6.037,8.844,9.649,12.64c1.188,1.225,2.505,2.366,4.021,3.168c1.308,0.702,2.757,1.116,4.217,1.358
			c6.608,1.071,23.063,0.495,29.937,0.651c1.301-0.03,2.781,0.054,4.06-0.23c0.666-0.143,1.312-0.427,1.822-0.886
			c0.676-0.603,1.121-1.419,1.486-2.237c0.876-2.041,1.328-4.261,1.524-6.467c0.233-2.88-0.117-5.928-1.61-8.451
			c-0.462-0.765-1.059-1.465-1.81-1.958c-1.051-0.695-2.309-1.014-3.516-1.324c-3.172-0.754-6.554-1.525-9.399-3.152
			c-1.958-1.105-3.658-2.632-5.183-4.273c-1.412-1.528-2.755-3.252-3.986-4.929c-0.749-1.034-1.445-2.133-1.941-3.312
			c-1.48-3.489-1.173-7.404-0.945-11.099c0.187-2.258,0.99-11.579,1.102-13.647"/>
	</g>
	<g id="POLYLINE_138_">
		
			<path fill="none" stroke="#FB8604" stroke-width="2.75" stroke-linecap="round" stroke-linejoin="round" stroke-miterlimit="10" d="
			M283.461,356.965c2.196,2.872,4.36,6.12,4.442,9.858c0.097,2.543-0.502,5.561-0.547,8.102c-0.05,1.764,0.196,3.426,0.953,5.032
			c1.342,2.939,3.757,5.667,3.79,9.049c0.052,3.989-1.665,7.939-1.876,11.905c-0.147,2.004,0.298,3.998,0.93,5.889
			c0.731,2.3,1.923,4.897,1.665,7.354c-0.344,2.822-2.395,5.323-3.791,7.715c-0.704,1.171-1.367,2.401-1.786,3.705
			c-0.417,1.296-0.588,2.672-0.687,4.026l-0.192,3.284c-0.107,1.46-0.296,2.945-0.814,4.321c-0.347,0.94-0.869,1.811-1.492,2.593
			c-2.949,3.625-7.649,6.079-10.842,9.46c-1.36,1.411-2.385,3.118-3.204,4.89c-1.232,2.648-2.242,5.688-4.048,8.016
			c-0.855,1.118-1.883,2.114-2.953,3.024c-2.64,2.26-7.352,5.254-10.226,7.275c-3.159,2.218-6.288,4.648-9.09,7.301
			c-3.826,3.606-7.365,7.699-10.609,11.836c-6.202,7.975-11.709,16.616-16.53,25.49c-5.586,10.41-10.536,21.441-12.439,33.177
			c-1.32,8.017-1.061,16.274,0.398,24.255c0.43,1.785,0.882,3.615,1.637,5.293c0.407,0.886,0.94,1.744,1.709,2.36
			c0.373,0.303,0.795,0.546,1.231,0.746c1.652,0.744,4.867,1.544,6.624,2.091c1.983,0.625,4.008,1.314,5.714,2.531
			c1.185,0.841,2.176,1.951,2.897,3.211c1.143,1.992,1.711,4.265,2.156,6.501c0.527,2.857,0.896,5.829,1.029,8.732
			c0.002,0.493-0.027,0.998-0.183,1.469c-0.141,0.438-0.419,0.827-0.784,1.106c-0.508,0.392-1.128,0.609-1.742,0.774
			c-3.118,0.724-6.545,0.689-9.737,0.79c-2.182-0.051-27.302,0.164-28.657-0.06c-0.644-0.071-1.297-0.204-1.872-0.514
			c-1.01-0.539-1.63-1.559-2.152-2.541c-3.211-6.567-4.443-14.622-6.159-21.69c-0.805-3.591-2.275-7.282-2.879-10.917
			c-0.218-1.416-0.284-2.882,0.003-4.293c0.236-1.179,0.741-2.306,1.478-3.257c0.899-1.673,1.459-3.521,1.736-5.396
			c0.24-1.583,0.249-3.222-0.156-4.779c-0.676-2.697-2.637-5.111-3.668-7.664c-0.531-1.272-0.861-2.677-0.608-4.053
			c0.334-1.942,1.455-3.899,2.11-5.743c0.544-1.466,0.877-3.039,0.728-4.607c-0.278-3.188-1.861-6.491-2.647-9.568
			c-0.193-0.77-0.349-1.568-0.363-2.364c-0.013-0.614,0.079-1.237,0.317-1.805c0.306-0.748,0.813-1.398,1.337-2.006
			c0.95-1.086,2.067-2.216,2.573-3.591c0.246-0.643,0.351-1.334,0.382-2.019c0.095-1.823-0.386-4.43-0.614-6.254
			c-0.122-1.012-0.229-2.052-0.16-3.071c0.043-0.587,0.146-1.181,0.397-1.717c0.27-0.591,0.757-1.054,1.303-1.395
			c1.297-0.809,2.896-1.128,4.226-1.871c0.565-0.317,1.097-0.745,1.392-1.333c0.24-0.474,0.337-1.009,0.378-1.535
			c0.129-2.101-0.467-4.333-0.362-6.434c0.042-0.792,0.189-1.61,0.629-2.284c0.743-1.11,2.023-1.684,3.214-2.188
			c1.362-0.593,3.123-1.061,4.222-2.089c0.475-0.445,0.738-1.069,0.827-1.706c0.177-1.279-0.089-2.71-0.182-3.991
			c-0.118-1.413-0.114-2.881,0.381-4.227c1.256-3.298,4.356-5.641,6.182-8.586c0.426-0.711,0.788-1.502,0.805-2.344
			c0.01-1.72-1.271-3.233-2.123-4.633c-0.601-0.967-1.206-2.038-1.164-3.213c0.039-1.012,0.462-1.962,0.896-2.861
			c0.772-1.592,1.793-3.223,1.96-5.02c0.09-0.903-0.111-1.812-0.454-2.646c-1.216-2.871-3.829-5.518-5.564-8.078
			c-0.699-1.026-1.364-2.112-1.716-3.311c-0.424-1.428-0.26-2.949,0.052-4.383l0.509-2.246c0.282-1.308,0.457-2.665,0.281-4
			c-0.357-2.587-1.601-4.987-2.765-7.294c-1.895-3.702-4.282-7.672-4.992-11.812c-0.556-3.121-0.213-6.626-0.08-9.784
			c0.105-2.583-0.014-5.241-0.95-7.678c-1.189-3.23-3.386-6.348-4.825-9.467c-0.65-1.42-1.185-2.929-1.304-4.497
			c-0.304-4.852,2.702-9.176,3.699-13.786c0.635-2.865,0.478-5.848,0.118-8.74l-0.406-3.003"/>
	</g>
	<g id="POLYLINE_137_">
		
			<path fill="none" stroke="#FB8604" stroke-width="2.75" stroke-linecap="round" stroke-linejoin="round" stroke-miterlimit="10" d="
			M186.721,409.928l-0.296,2.899c-0.294,3.029-1.169,5.989-2.462,8.739c-1.492,3.212-3.305,6.337-5.215,9.316
			c-1.662,2.523-3.4,5.096-5.545,7.237c-0.495,0.468-1.018,0.941-1.645,1.224l-0.038,0.016l-0.037,0.015l-0.037,0.014l-0.037,0.013
			l-0.036,0.012l-0.036,0.011l-0.035,0.01l-0.035,0.009l-0.034,0.008l-0.034,0.007l-0.034,0.006l-0.033,0.005l-0.033,0.004
			l-0.032,0.003l-0.032,0.001l-0.031,0l-0.031-0.001l-0.031-0.002l-0.03-0.003l-0.03-0.004l-0.029-0.005l-0.029-0.006l-0.028-0.007
			l-0.028-0.008l-0.027-0.009l-0.027-0.011l-0.026-0.012l-0.012-0.006l-0.011-0.006l-0.011-0.006l-0.011-0.006l-0.011-0.006
			l-0.011-0.007l-0.011-0.007c-0.176-0.114-0.298-0.293-0.394-0.475c-0.177-0.343-0.282-0.726-0.38-1.098
			c-0.151-0.575-0.294-1.389-0.551-1.921c-0.06-0.12-0.132-0.237-0.232-0.328l-0.008-0.008l-0.009-0.007l-0.009-0.007l-0.009-0.007
			l-0.009-0.007l-0.009-0.006l-0.009-0.006l-0.018-0.012l-0.018-0.011l-0.019-0.01l-0.019-0.009l-0.019-0.008l-0.02-0.008
			l-0.02-0.007l-0.02-0.006l-0.02-0.005l-0.021-0.004l-0.021-0.003l-0.021-0.003l-0.022-0.002l-0.022-0.001l-0.022,0l-0.022,0.001
			l-0.023,0.002l-0.023,0.002l-0.023,0.003l-0.024,0.004l-0.024,0.005l-0.024,0.005l-0.024,0.006l-0.025,0.007l-0.025,0.008
			l-0.025,0.008l-0.026,0.009l-0.026,0.01l-0.026,0.011l-0.026,0.011l-0.027,0.012l-0.027,0.013
			c-0.836,0.449-1.614,1.401-2.25,2.109c-3.333,3.916-6.594,8.49-10.995,11.268c-3.955,2.559-9.023,3.757-13.493,5.123
			c-2.128,0.663-4.279,1.435-6.277,2.426c-1.74,0.856-3.421,1.931-5.008,3.043c-2.11,1.437-5.086,3.944-7.258,5.279
			c-0.285,0.161-0.581,0.321-0.901,0.399l-0.024,0.005l-0.024,0.005l-0.023,0.004l-0.023,0.004l-0.022,0.003l-0.022,0.002
			l-0.021,0.002l-0.021,0.001l-0.021,0.001l-0.02,0l-0.02-0.001l-0.019-0.001l-0.019-0.002l-0.018-0.002l-0.018-0.003l-0.018-0.004
			l-0.017-0.004l-0.017-0.005l-0.016-0.005l-0.016-0.006l-0.015-0.007l-0.015-0.007l-0.015-0.008l-0.014-0.009l-0.014-0.009
			l-0.013-0.01l-0.013-0.01l-0.012-0.011l-0.012-0.012l-0.011-0.012l-0.011-0.013l-0.01-0.014l-0.01-0.014l-0.009-0.015
			l-0.009-0.016l-0.009-0.017l-0.006-0.012l-0.006-0.013l-0.005-0.013l-0.005-0.013l-0.005-0.014l-0.005-0.014l-0.004-0.014
			l-0.004-0.015l-0.004-0.015l-0.004-0.015l-0.003-0.016c-0.09-0.54,0.072-1.177,0.173-1.712c0.312-1.51,0.844-3.21,0.774-4.758
			c-0.024-0.325-0.084-0.657-0.244-0.944l-0.015-0.025l-0.015-0.025l-0.015-0.024l-0.016-0.024l-0.016-0.023l-0.017-0.023
			l-0.017-0.022l-0.018-0.022l-0.018-0.021l-0.018-0.021l-0.019-0.021l-0.019-0.02l-0.02-0.02l-0.02-0.019l-0.021-0.019
			l-0.021-0.019l-0.021-0.018l-0.022-0.018l-0.022-0.017l-0.023-0.017l-0.023-0.017l-0.023-0.016l-0.024-0.016l-0.024-0.015
			l-0.025-0.015l-0.025-0.015l-0.025-0.014c-0.298-0.162-0.637-0.233-0.971-0.269c-1.688-0.145-4.254,0.474-5.939,0.705
			c-1.743,0.254-3.542,0.443-5.289,0.131c-2.084-0.367-3.982-1.447-5.572-2.817c-2.096-1.802-3.76-4.079-5.301-6.356
			c-0.801-1.223-1.708-2.494-2.207-3.876c-0.187-0.554-0.33-1.27,0.12-1.735l0.017-0.017l0.017-0.017l0.018-0.016l0.018-0.016
			l0.019-0.016l0.019-0.016l0.02-0.015l0.02-0.015l0.021-0.015l0.021-0.015l0.022-0.014c0.268-0.172,0.581-0.262,0.89-0.329
			c0.788-0.159,1.629-0.171,2.432-0.181c4.016,0.02,8.294,0.273,12.199-0.819c3.841-1.041,7.359-3.051,10.655-5.239
			c3.016-1.995,7.613-5.507,10.617-7.534c2.19-1.516,7.087-4.37,9.401-5.77c3.151-1.942,6.304-4.086,8.654-6.985
			c1.743-2.146,2.972-4.675,3.979-7.235c1.895-4.846,3.219-10.55,5.522-15.229c1.502-3.147,3.645-7.036,4.52-10.395
			c0.666-2.428,0.802-4.993,0.839-7.501c0.069-3.305-0.206-7.187,0.587-10.394c0.556-2.274,1.861-4.605,2.699-6.784
			c1.694-4.389,1.717-9.592,2.634-14.169c0.42-2.254,1.088-4.498,2.276-6.474c1.767-2.986,4.405-5.624,6.073-8.676l2.334-4.121
			c1.023-1.75,2.156-3.479,3.541-4.965c2.031-2.204,4.951-4.262,7.335-6.094c1.29-0.994,2.627-2.072,3.786-3.215
			c1.326-1.277,3.377-3.743,4.611-5.144c1.503-1.689,3.176-3.295,5.211-4.324c3.422-1.775,7.456-2.482,10.653-4.704
			c2.878-1.959,5.373-4.744,8.633-6.101c1.674-0.704,3.501-0.984,5.299-1.158c3.669-0.346,7.702-0.234,11.273-1.24
			c2.813-0.761,5.892-2.658,8.455-4.033c1.912-1.015,3.931-1.937,6.085-2.27c2.226-0.343,4.507-0.049,6.711,0.321
			c2.949,0.491,6.227,1.347,9.215,1.191c1.234-0.063,2.446-0.392,3.577-0.884c1.944-0.825,3.751-2.133,5.743-2.85
			c1.293-0.48,2.626-0.547,3.981-0.336c3.591,0.544,7.122,2.362,10.822,1.752c3.731-0.617,7.078-2.959,10.769-3.725
			c2.29-0.504,4.661-0.124,6.912,0.401c2.644,0.614,5.662,1.584,8.387,1.497c2.199-0.057,4.639-0.887,6.754-1.469
			c1.511-0.407,3.081-0.733,4.653-0.62c3.013,0.242,5.911,1.858,8.698,2.917c1.723,0.67,3.543,1.209,5.407,1.195
			c3.925,0.002,7.808-1.703,11.751-1.344c3.83,0.304,7.585,2.344,11.398,2.689c1.292,0.103,2.585-0.166,3.816-0.54
			c1.603-0.494,3.344-1.127,5.028-1.199c1.488-0.074,2.977,0.224,4.422,0.552c1.605,0.385,4.206,1.091,5.798,1.316
			c0.948,0.136,1.923,0.207,2.874,0.067c1.177-0.17,2.261-0.719,3.249-1.359c1.26-0.814,2.646-1.904,4.002-2.544
			c0.921-0.452,1.919-0.744,2.932-0.904c4.552-0.724,9.664,0.368,14.17-0.726c1.321-0.339,2.548-0.982,3.68-1.73
			c1.573-1.03,3.106-2.327,4.871-3.022c1.443-0.582,3.032-0.641,4.57-0.626l3.146,0.081c1.736,0.013,3.562-0.048,5.146-0.835
			c1.581-0.802,2.726-2.226,3.761-3.626c1.355-1.86,2.731-4.063,4.454-5.59c1.014-0.905,2.21-1.593,3.439-2.162
			c1.734-0.809,3.954-1.514,5.703-2.294c0.831-0.375,1.655-0.807,2.37-1.377c1.073-0.85,1.854-2.007,2.522-3.187
			c0.915-1.641,1.81-3.474,3.069-4.884c1.979-2.282,4.492-4.055,7.005-5.701"/>
	</g>
	<g id="POLYLINE_136_">
		
			<path fill="none" stroke="#FB8604" stroke-width="2.75" stroke-linecap="round" stroke-linejoin="round" stroke-miterlimit="10" d="
			M579.245,268.419c1.666-4.17,3.943-8.135,6.436-11.864c1.952-2.864,4.033-5.734,6.45-8.224c2.76-2.865,6.101-5.121,9.535-7.097
			c10.16-5.802,22.455-11.139,31.362-18.799c2.92-2.533,5.653-5.431,7.371-8.928c2.621-5.303,1.991-11.485,0.686-17.066"/>
	</g>
	<g id="POLYLINE_135_">
		
			<path fill="none" stroke="#FB8604" stroke-width="2.75" stroke-linecap="round" stroke-linejoin="round" stroke-miterlimit="10" d="
			M544.882,193.531c2.417,2.358,5.067,5.002,5.56,8.496c0.248,1.869-0.251,3.832-0.608,5.661c-0.319,1.679-0.694,3.48-0.16,5.152
			c0.248,0.776,0.745,1.45,1.345,1.992c2.094,1.865,5.445,2.986,7.965,4.16c1.447,0.67,2.938,1.366,4.136,2.438
			c0.569,0.514,1.025,1.154,1.327,1.859c0.618,1.407,0.722,3.29,0.972,4.797c0.201,1.258,0.529,2.515,1.108,3.655
			c0.978,1.915,2.43,3.565,3.864,5.151c2.072,2.259,5.019,5.137,6.687,7.688c0.568,0.872,1.07,1.806,1.366,2.808
			c0.551,1.833,0.285,3.788-0.135,5.62l-0.713,2.969c-0.383,1.68-0.639,3.422-0.476,5.146c0.48,4.553,3.022,8.838,4.423,13.135
			c0.402,1.271,0.757,2.606,0.654,3.95c-0.268,3.112-3.339,4.796-5.871,6.002c-2.472,1.161-5.174,2.173-7.949,1.918
			c-3.194-0.282-5.917-2.552-8.959-3.362c-1.061-0.291-2.192-0.371-3.269-0.119c-2.838,0.673-5.262,2.646-7.923,3.756
			c-1.039,0.44-2.161,0.759-3.299,0.704c-2.377-0.093-4.799-1.519-6.942-2.439c-1.927-0.873-3.983-1.516-6.104-1.647
			c-3.885-0.33-8.091,0.465-11.939-0.301c-0.914-0.198-1.813-0.523-2.598-1.038c-1.016-0.66-1.851-1.569-2.62-2.496
			c-1.121-1.347-2.311-3.063-3.781-4.038c-0.894-0.616-1.973-0.897-3.047-0.956c-1.652-0.105-3.581,0.187-5.233,0.343
			c-1.414,0.112-2.925,0.248-4.261-0.324c-0.654-0.291-1.189-0.795-1.62-1.358c-1.014-1.338-1.716-3.177-2.644-4.571
			c-0.505-0.773-1.113-1.496-1.866-2.039c-1.055-0.762-2.302-1.222-3.531-1.623l-2.743-0.843c-1.54-0.508-3.182-1.094-4.264-2.363
			c-0.537-0.639-0.863-1.43-1.069-2.233c-0.509-1.972-0.428-4.665-0.518-6.703c-0.082-1.522-0.189-3.12-0.909-4.493
			c-0.617-1.178-1.641-2.075-2.686-2.867c-1.65-1.221-3.479-2.476-4.625-4.209c-1.076-1.567-1.798-3.378-2.133-5.248
			c-0.257-1.462-0.276-2.985,0.064-4.436c0.751-3.261,3.5-5.562,5.446-8.128c0.969-1.251,1.78-2.66,2.117-4.219
			c0.548-2.359,0.378-5.065,0.658-7.46c0.143-1.226,0.409-2.465,0.996-3.561c1.824-3.341,5.769-4.984,7.918-8.055
			c0.775-1.143,1.148-2.504,1.404-3.846l0.399-2.232c0.23-1.234,0.57-2.471,1.218-3.556c1.224-2.099,3.172-3.827,4.418-5.912
			c1.122-1.804,1.381-3.999,1.981-6c0.345-1.142,0.857-2.281,1.747-3.103c0.549-0.512,1.202-0.906,1.87-1.242
			c1.539-0.772,3.684-1.429,5.298-2.052c1.461-0.568,2.934-1.223,4.142-2.242c1.583-1.333,2.653-3.267,3.763-4.985
			c0.702-1.068,1.478-2.147,2.561-2.857c0.893-0.583,1.948-0.859,2.989-1.034c2.288-0.39,4.942-0.269,7.117-1.16
			c2.223-0.918,3.821-3.002,5.976-4.036c1.074-0.533,2.295-0.683,3.481-0.59c1.672,0.121,3.324,0.576,4.924,1.057l5.629,1.817
			c1.193,0.358,2.421,0.687,3.653,0.864c1.166,0.172,2.37,0.216,3.548,0.185c1.79-0.046,4.118-0.288,5.893-0.233
			c1.613,0.029,3.255,0.249,4.838,0.552c3.289,0.641,6.533,1.644,9.662,2.836c2.673,1.037,5.345,2.206,7.79,3.713
			c1.593,0.987,3.091,2.174,4.355,3.561c1.448,1.55,2.789,3.8,4.095,5.469c1.371,1.791,3.102,3.373,5.293,4.057
			c1.4,0.46,2.885,0.651,4.353,0.73c3.866,0.24,9.508-0.544,13.396-0.854c6.662-0.521,13.447-0.356,20.079,0.451"/>
	</g>
	<g id="POLYLINE_134_">
		
			<path fill="none" stroke="#FB8604" stroke-width="2.75" stroke-linecap="round" stroke-linejoin="round" stroke-miterlimit="10" d="
			M636.674,179.15c-2.28-0.249-4.604,0.002-6.834,0.508c-2.306,0.558-4.632,1.487-6.337,3.186c-0.933,0.944-1.604,2.205-1.632,3.551
			c-0.027,0.911,0.265,1.804,0.703,2.595c1.559,2.777,4.224,4.706,6.941,6.254c2.27,1.256,4.703,2.421,7.314,2.684
			c1.041,0.091,2.138,0.016,3.082-0.466c0.548-0.278,1.006-0.719,1.319-1.247c0.643-1.099,0.8-2.406,0.885-3.656
			c0.116-2.27-0.056-4.565-0.414-6.808c-0.299-1.651-0.629-3.39-1.589-4.799c-0.351-0.5-0.812-0.926-1.353-1.212
			C638.118,179.397,637.393,179.239,636.674,179.15z"/>
	</g>
</g>
<g id="_x32_D_x24_AG-OUTLINE">
	<g id="POLYLINE_21_">
		
			<path fill="none" stroke="#FB8604" stroke-width="3.5" stroke-linecap="round" stroke-linejoin="round" stroke-miterlimit="10" d="
			M186.721,409.928c1.131,2.285,2.977,5.552,3.961,7.879c0.489,1.156,0.921,2.361,1.137,3.601c0.269,1.471,0.1,2.984-0.216,4.434
			l-0.509,2.246c-0.311,1.434-0.475,2.955-0.052,4.383c0.352,1.199,1.017,2.286,1.716,3.311c1.737,2.564,4.347,5.205,5.564,8.078
			c0.354,0.857,0.554,1.794,0.447,2.722c-0.202,1.872-1.302,3.548-2.085,5.22c-0.379,0.814-0.729,1.677-0.763,2.585
			c-0.042,1.174,0.563,2.245,1.164,3.213c0.852,1.406,2.133,2.91,2.123,4.633c-0.017,0.842-0.379,1.633-0.805,2.344
			c-1.826,2.945-4.926,5.288-6.183,8.586c-0.496,1.346-0.5,2.815-0.381,4.227c0.093,1.281,0.359,2.71,0.182,3.991
			c-0.089,0.637-0.352,1.261-0.827,1.705c-1.096,1.026-2.868,1.505-4.222,2.089c-1.21,0.512-2.519,1.098-3.251,2.245
			c-0.427,0.688-0.562,1.513-0.597,2.31c-0.088,2.099,0.509,4.329,0.36,6.428c-0.044,0.5-0.143,1.007-0.371,1.458
			c-0.295,0.588-0.827,1.016-1.392,1.333c-1.33,0.743-2.929,1.062-4.226,1.871c-0.557,0.347-1.052,0.823-1.319,1.43
			c-0.252,0.555-0.35,1.17-0.387,1.775c-0.057,0.988,0.047,1.998,0.166,2.979c0.228,1.838,0.708,4.421,0.614,6.254
			c-0.031,0.685-0.136,1.376-0.382,2.019c-0.506,1.373-1.625,2.507-2.573,3.591c-0.524,0.609-1.03,1.258-1.337,2.006
			c-0.238,0.569-0.331,1.191-0.317,1.805c0.014,0.796,0.171,1.593,0.363,2.364c0.787,3.081,2.368,6.378,2.647,9.568
			c0.148,1.568-0.185,3.141-0.728,4.607c-0.656,1.845-1.776,3.799-2.11,5.743c-0.253,1.376,0.077,2.781,0.608,4.053
			c1.018,2.521,2.946,4.911,3.642,7.564c0.43,1.586,0.428,3.262,0.182,4.879c-0.277,1.875-0.837,3.724-1.736,5.396
			c-0.904,1.161-1.443,2.584-1.602,4.042c-0.224,1.988,0.142,3.997,0.625,5.922c0.907,3.329,2.078,6.917,2.798,10.293
			c1.496,6.531,2.809,14.019,5.805,20.032c0.464,0.854,1.005,1.723,1.835,2.264c1.21,0.768,2.729,0.711,4.11,0.753
			c5.238,0.002,21.709,0.017,26.667-0.033c2.138-0.05,4.569-0.098,6.686-0.306c1.063-0.108,2.157-0.237,3.189-0.521
			c0.581-0.165,1.165-0.385,1.641-0.765c0.36-0.285,0.627-0.68,0.761-1.118c0.155-0.495,0.176-1.023,0.168-1.538
			c-0.166-3.101-0.549-6.266-1.166-9.31c-0.44-2.049-1.014-4.119-2.089-5.935c-0.738-1.253-1.748-2.347-2.945-3.173
			c-1.681-1.165-3.658-1.837-5.595-2.447c-1.721-0.535-4.893-1.336-6.51-2.04c-0.459-0.203-0.905-0.449-1.299-0.76
			c-0.793-0.619-1.341-1.493-1.756-2.397c-0.755-1.678-1.207-3.509-1.637-5.293c-1.459-7.981-1.718-16.237-0.398-24.255
			c1.903-11.736,6.853-22.767,12.439-33.177c4.82-8.874,10.328-17.515,16.53-25.49c3.243-4.136,6.782-8.23,10.609-11.836
			c2.801-2.651,5.934-5.087,9.09-7.301c2.911-2.054,7.572-5.008,10.226-7.275c1.07-0.911,2.098-1.907,2.953-3.024
			c1.805-2.326,2.816-5.37,4.048-8.016c0.82-1.772,1.844-3.478,3.204-4.89c3.194-3.382,7.893-5.834,10.842-9.46
			c0.623-0.782,1.145-1.653,1.492-2.593c0.517-1.377,0.707-2.862,0.814-4.321l0.192-3.284c0.099-1.354,0.269-2.73,0.687-4.026
			c0.42-1.304,1.083-2.534,1.786-3.705c1.379-2.36,3.352-4.773,3.771-7.543c0.299-2.247-0.635-4.513-1.335-6.607
			c2.933,0.596,5.991,1.144,8.974,0.62c1.821-0.316,3.671-1.291,5.381-1.971c1.321-0.526,2.724-0.904,4.153-0.926
			c1.668-0.028,3.32,0.371,4.911,0.838c3.307,0.992,7.023,2.648,10.309,3.713c1.355,0.432,2.749,0.822,4.166,0.968
			c2.038,0.248,4.233-0.249,6.261-0.391c0.855-0.047,1.727,0.014,2.548,0.272c2.591,0.855,5.043,3.023,7.439,4.303
			c0.948,0.524,1.95,0.981,2.997,1.269c1.629,0.453,3.363,0.553,5.046,0.61c2.393,0.078,5.073,0.086,7.376,0.763
			c3.139,0.905,6.079,2.966,8.905,4.556c1.675,0.937,3.434,1.845,5.342,2.175c3.073,0.536,6.216-0.571,9.286-0.6
			c1.302-0.021,2.598,0.24,3.834,0.637c2.711,0.871,5.445,2.308,8.235,2.925c3.189,0.738,6.639,0.273,9.867,0.029
			c1.963-0.143,4.006-0.266,5.933,0.217c1.931,0.456,3.781,1.478,5.696,1.984c2.567,0.699,5.418-0.019,8.014-0.155
			c1.072-0.067,2.175-0.063,3.24,0.095c1.433,0.211,2.834,0.657,4.188,1.159l3.488,1.364c1.355,0.529,2.703,0.843,4.165,0.824
			c0.338-0.002,1.184-0.006,1.511-0.004c-0.22,2.633-0.201,5.316,0.337,7.911c0.785,4.091,2.541,8.238,3.165,12.362
			c0.735,4.309-0.591,8.76-1.612,12.922c-0.63,2.599-1.17,5.299-0.892,7.983c0.26,2.995,1.332,6.346,1.629,9.336
			c0.445,3.521-0.65,7.361-1.368,10.79c-0.376,1.945-0.754,3.994-0.283,5.955c0.342,1.412,1.264,2.79,2.007,4.027
			c0.456,0.775,0.888,1.593,1.056,2.484c0.174,0.879,0.017,1.785-0.236,2.633c-0.547,1.81-1.546,3.632-2.095,5.442
			c-0.219,0.725-0.381,1.481-0.382,2.24c-0.001,0.618,0.113,1.234,0.295,1.823c0.488,1.585,1.557,3.271,2.24,4.777
			c0.543,1.174,0.964,2.43,1.053,3.727c0.132,2.068-0.392,4.124-0.943,6.1c-0.507,1.769-1.417,4.472-1.723,6.256
			c-0.101,0.59-0.171,1.197-0.145,1.797c0.029,1.067,0.502,2.058,1.092,2.926c0.679,0.999,1.482,2.089,1.836,3.253
			c0.433,1.388,0.45,2.879,0.458,4.321c-0.028,1.994-0.153,4.916,0.09,6.852c0.139,1.075,0.395,2.173,1.007,3.084
			c0.631,0.95,1.571,1.642,2.514,2.259c1.413,0.915,2.952,1.789,3.973,3.155c0.948,1.271,1.407,2.833,1.744,4.362
			c0.831,3.792,0.754,8.032,1.869,11.762c0.286,0.903,0.69,1.773,1.176,2.586c1.236,2.047,3.104,4.264,4.484,6.227
			c3.024,4.269,6.037,8.844,9.649,12.64c1.188,1.225,2.505,2.366,4.021,3.168c1.308,0.702,2.757,1.116,4.217,1.358
			c6.608,1.071,23.063,0.495,29.937,0.651c1.301-0.03,2.781,0.054,4.06-0.23c0.666-0.143,1.312-0.427,1.822-0.886
			c0.676-0.603,1.121-1.419,1.486-2.237c0.876-2.041,1.328-4.261,1.524-6.467c0.233-2.88-0.117-5.928-1.61-8.451
			c-0.462-0.765-1.059-1.465-1.81-1.958c-1.051-0.695-2.309-1.014-3.516-1.324c-3.172-0.754-6.554-1.525-9.399-3.152
			c-1.958-1.105-3.658-2.632-5.183-4.273c-1.412-1.528-2.755-3.252-3.986-4.929c-0.749-1.034-1.445-2.133-1.941-3.312
			c-1.48-3.489-1.173-7.404-0.945-11.099c0.187-2.258,0.99-11.579,1.102-13.647c0.335-2.529,0.668-5.71,1.378-8.13
			c0.892-3.15,2.491-6.886,3.465-10.016c0.765-2.42,1.394-4.928,1.563-7.467c0.297-4.362-0.802-8.897-1.272-13.215
			c-0.217-1.98-0.299-4.008-0.102-5.993c0.323-3.576,1.505-7.772,2.333-11.28c0.584-2.495,1.061-5.053,1.045-7.621
			c0.033-3.041-0.517-6.442-0.123-9.466c0.452-3.576,2.584-6.764,3.799-10.098c0.578-1.525,0.923-3.141,0.981-4.772
			c0.134-2.837-0.317-6.115,0.148-8.925c0.236-1.583,0.825-3.098,1.603-4.492c1.941-3.48,4.868-6.651,6.82-10.125
			c1.027-1.781,1.73-3.742,2.209-5.737c1.013-4.192,1.396-9.048,3.284-12.972c2.528-5.354,7.323-9.875,9.723-15.298
			c1.76-3.828,1.378-8.298,1.358-12.402c0.001-2.161,0.139-4.375,0.875-6.424c1.185-3.461,3.811-6.624,5.089-10.041
			c1.191-3.035,0.328-6.45,0.058-9.573c-0.107-1.231-0.127-2.495,0.032-3.722c0.2-1.545,0.649-3.062,1.207-4.514
			c1.692-4.409,4.566-8.546,7.177-12.459c0.91-1.41,1.748-2.905,2.224-4.522c0.522-1.721,0.611-3.563,0.655-5.351
			c0.051-2.878-0.048-6.267,0.453-9.086c0.265-1.561,0.77-3.089,1.365-4.553c0.976-2.429,2.479-5.242,3.116-7.784
			c0.378-1.453,0.458-2.974,0.442-4.469c-0.022-2.195-0.26-4.831,0.277-6.965c0.7-2.826,2.906-5.15,4.671-7.376
			c1.411-1.702,2.487-3.666,3.263-5.732l0.978-2.621c1.239,0.571,2.552,1.05,3.923,1.142c2.728,0.206,5.374-0.789,7.803-1.93
			c2.218-1.073,4.79-2.411,5.643-4.887c0.275-0.809,0.296-1.683,0.185-2.524c-0.381-2.746-1.9-5.805-2.909-8.38
			c1.666-4.17,3.943-8.135,6.436-11.864c1.952-2.864,4.033-5.734,6.45-8.224c2.76-2.865,6.101-5.121,9.535-7.097
			c10.16-5.802,22.455-11.139,31.362-18.799c2.92-2.533,5.653-5.431,7.371-8.928c2.621-5.303,1.991-11.485,0.686-17.066
			c0.609-0.877,0.83-1.957,0.957-2.999c0.23-2.225,0.086-4.489-0.191-6.703c-0.198-1.432-0.458-2.886-0.953-4.249
			c-0.3-0.804-0.711-1.594-1.346-2.185c-0.649-0.616-1.519-0.936-2.39-1.083c-1.415-0.236-2.874-0.197-4.298-0.064
			c-6.632-0.808-13.417-0.972-20.079-0.451c-4.05,0.311-9.674,1.12-13.674,0.838c-1.493-0.097-3.004-0.315-4.414-0.833
			c-2.151-0.761-3.826-2.421-5.167-4.215c-1.28-1.687-2.628-3.914-4.105-5.431c-1.46-1.548-3.209-2.822-5.055-3.871
			c-2.707-1.526-5.617-2.735-8.54-3.779c-3.119-1.092-6.348-2.009-9.621-2.497c-1.173-0.172-2.392-0.276-3.578-0.28
			c-1.625-0.03-3.893,0.197-5.522,0.238c-1.177,0.032-2.382-0.013-3.548-0.184c-1.231-0.178-2.463-0.508-3.653-0.864l-5.629-1.817
			c-1.601-0.481-3.252-0.936-4.924-1.057c-1.186-0.092-2.407,0.057-3.481,0.59c-2.156,1.034-3.753,3.117-5.976,4.036
			c-2.174,0.89-4.831,0.77-7.117,1.16c-1.065,0.179-2.146,0.464-3.051,1.075c-1.052,0.711-1.811,1.768-2.5,2.816
			c-1.115,1.723-2.178,3.651-3.763,4.985c-1.207,1.019-2.68,1.674-4.142,2.242c-1.551,0.599-3.646,1.25-5.131,1.969
			c-0.728,0.354-1.443,0.77-2.037,1.324c-0.89,0.822-1.402,1.96-1.747,3.103c-0.6,2.001-0.859,4.196-1.981,6
			c-1.247,2.085-3.194,3.812-4.418,5.912c-0.648,1.085-0.987,2.323-1.218,3.556l-0.399,2.232c-0.252,1.316-0.613,2.648-1.358,3.777
			c-2.087,3.046-5.938,4.681-7.833,7.892c-0.643,1.094-0.944,2.353-1.102,3.602c-0.287,2.257-0.15,4.846-0.564,7.087
			c-0.284,1.677-0.99,3.118-2.002,4.473c-1.867,2.566-4.567,4.772-5.531,7.891c-0.521,1.719-0.501,3.57-0.147,5.32
			c0.443,2.136,1.377,4.197,2.801,5.859c-2.556,1.675-5.115,3.48-7.108,5.821c-1.266,1.45-2.147,3.333-3.098,4.994
			c-0.647,1.117-1.415,2.2-2.443,2.999c-0.752,0.587-1.616,1.027-2.486,1.41c-1.764,0.768-3.984,1.476-5.718,2.305
			c-1.163,0.551-2.291,1.216-3.254,2.075c-1.72,1.523-3.107,3.737-4.454,5.59c-1.035,1.399-2.18,2.824-3.761,3.626
			c-1.584,0.787-3.41,0.848-5.146,0.835l-3.146-0.081c-1.538-0.015-3.126,0.045-4.57,0.626c-1.764,0.694-3.297,1.992-4.871,3.022
			c-1.133,0.748-2.36,1.391-3.68,1.73c-4.505,1.095-9.618,0.003-14.17,0.726c-1.066,0.167-2.113,0.485-3.076,0.975
			c-1.387,0.679-2.796,1.813-4.105,2.629c-0.942,0.588-1.978,1.071-3.088,1.215c-0.924,0.123-1.869,0.053-2.789-0.079
			c-1.601-0.221-4.213-0.941-5.798-1.316c-1.444-0.328-2.934-0.625-4.422-0.552c-1.682,0.071-3.428,0.706-5.028,1.199
			c-1.259,0.384-2.582,0.653-3.903,0.534c-3.784-0.373-7.511-2.379-11.311-2.682c-3.943-0.359-7.827,1.347-11.751,1.344
			c-1.864,0.014-3.684-0.525-5.407-1.195c-2.787-1.059-5.683-2.673-8.698-2.917c-1.572-0.113-3.143,0.213-4.653,0.62
			c-2.122,0.583-4.55,1.411-6.754,1.469c-2.719,0.088-5.751-0.884-8.387-1.497c-2.251-0.526-4.622-0.906-6.912-0.401
			c-3.69,0.766-7.038,3.108-10.769,3.725c-3.7,0.61-7.231-1.208-10.822-1.752c-1.355-0.211-2.688-0.144-3.981,0.336
			c-1.992,0.717-3.799,2.025-5.743,2.85c-1.13,0.492-2.342,0.821-3.577,0.884c-2.982,0.157-6.281-0.699-9.215-1.191
			c-2.205-0.369-4.485-0.664-6.711-0.321c-2.155,0.333-4.174,1.255-6.085,2.27c-2.588,1.384-5.634,3.268-8.455,4.033
			c-3.568,1.006-7.605,0.894-11.273,1.24c-1.797,0.174-3.625,0.454-5.299,1.158c-3.26,1.357-5.756,4.142-8.633,6.101
			c-3.197,2.222-7.231,2.93-10.653,4.704c-2.035,1.029-3.708,2.635-5.211,4.324c-1.254,1.421-3.279,3.859-4.611,5.144
			c-1.159,1.143-2.496,2.221-3.786,3.215c-2.39,1.837-5.298,3.885-7.335,6.094c-1.385,1.486-2.519,3.216-3.541,4.965l-2.334,4.121
			c-1.668,3.051-4.307,5.691-6.074,8.676c-1.188,1.976-1.856,4.219-2.276,6.474c-0.917,4.579-0.939,9.777-2.634,14.169
			c-0.838,2.18-2.141,4.507-2.699,6.784c-0.793,3.199-0.521,7.109-0.587,10.394c-0.036,2.508-0.172,5.072-0.839,7.501
			c-0.87,3.347-3.025,7.264-4.52,10.395c-2.302,4.676-3.627,10.385-5.522,15.229c-1.008,2.56-2.236,5.09-3.979,7.235
			c-2.35,2.899-5.503,5.043-8.654,6.985c-2.35,1.424-7.228,4.262-9.401,5.77c-3.004,2.028-7.604,5.539-10.617,7.534
			c-3.296,2.189-6.813,4.198-10.655,5.239c-3.902,1.091-8.185,0.839-12.199,0.819c-0.802,0.01-1.643,0.022-2.432,0.181
			c-0.309,0.066-0.622,0.157-0.89,0.329l-0.022,0.014l-0.021,0.015l-0.021,0.015l-0.02,0.015l-0.02,0.015l-0.019,0.016l-0.019,0.016
			l-0.018,0.016l-0.018,0.016l-0.017,0.017l-0.017,0.017c-0.45,0.465-0.306,1.181-0.12,1.735c0.499,1.381,1.407,2.653,2.207,3.876
			c1.542,2.278,3.205,4.555,5.301,6.356c1.59,1.37,3.488,2.45,5.572,2.817c1.747,0.312,3.547,0.123,5.289-0.131
			c1.714-0.233,4.262-0.858,5.975-0.701c0.322,0.037,0.648,0.109,0.935,0.265l0.025,0.014l0.025,0.015l0.025,0.015l0.024,0.015
			l0.024,0.016l0.023,0.016l0.023,0.017l0.023,0.017l0.022,0.017l0.022,0.018l0.021,0.018l0.021,0.019l0.021,0.019l0.02,0.019
			l0.02,0.02l0.019,0.02l0.019,0.021l0.018,0.021l0.018,0.021l0.018,0.022l0.017,0.022l0.017,0.023l0.016,0.023l0.016,0.024
			l0.015,0.024l0.015,0.025l0.015,0.025c0.161,0.287,0.22,0.62,0.244,0.944c0.071,1.545-0.463,3.252-0.774,4.758
			c-0.101,0.535-0.264,1.172-0.173,1.712l0.003,0.016l0.004,0.015l0.004,0.015l0.004,0.015l0.004,0.014l0.005,0.014l0.005,0.014
			l0.005,0.013l0.005,0.013l0.006,0.013l0.006,0.012l0.009,0.017l0.009,0.016l0.009,0.015l0.01,0.014l0.01,0.014l0.011,0.013
			l0.011,0.012l0.012,0.012l0.012,0.011l0.013,0.01l0.013,0.01l0.014,0.009l0.014,0.009l0.015,0.008l0.015,0.007l0.015,0.007
			l0.016,0.006l0.016,0.005l0.017,0.005l0.017,0.004l0.018,0.004l0.018,0.003l0.018,0.002l0.019,0.002l0.019,0.001l0.02,0.001
			l0.02,0l0.021-0.001l0.021-0.001l0.021-0.002l0.022-0.002l0.022-0.003l0.023-0.004l0.023-0.004l0.024-0.005l0.024-0.005
			c0.347-0.085,0.666-0.264,0.973-0.441c2.13-1.329,5.109-3.82,7.186-5.237c1.587-1.112,3.268-2.187,5.008-3.043
			c1.997-0.991,4.149-1.763,6.277-2.426c4.481-1.372,9.531-2.561,13.493-5.123c4.398-2.775,7.665-7.356,10.995-11.268
			c0.637-0.709,1.413-1.659,2.25-2.109l0.027-0.013l0.027-0.012l0.026-0.011l0.026-0.011l0.026-0.01l0.026-0.009l0.025-0.008
			l0.025-0.008l0.025-0.007l0.024-0.006l0.024-0.005l0.024-0.005l0.024-0.004l0.023-0.003l0.023-0.002l0.023-0.002l0.022-0.001
			l0.022,0l0.022,0.001l0.022,0.002l0.021,0.003l0.021,0.003l0.021,0.004l0.02,0.005l0.02,0.006l0.02,0.007l0.02,0.008l0.019,0.008
			l0.019,0.009l0.019,0.01l0.018,0.011l0.018,0.012l0.009,0.006l0.009,0.006l0.009,0.007l0.009,0.007l0.009,0.007l0.009,0.007
			l0.008,0.008c0.1,0.091,0.172,0.208,0.232,0.328c0.256,0.529,0.401,1.35,0.551,1.921c0.097,0.372,0.203,0.755,0.38,1.098
			c0.096,0.182,0.218,0.361,0.394,0.475l0.011,0.007l0.011,0.007l0.011,0.006l0.011,0.006l0.011,0.006l0.011,0.006l0.012,0.006
			l0.026,0.012l0.027,0.011l0.027,0.009l0.028,0.008l0.028,0.007l0.029,0.006l0.029,0.005l0.03,0.004l0.03,0.003l0.031,0.002
			l0.031,0.001l0.031,0l0.032-0.001l0.032-0.003l0.033-0.004l0.033-0.005l0.034-0.006l0.034-0.007l0.034-0.008l0.035-0.009
			l0.035-0.01l0.036-0.011l0.036-0.012l0.037-0.013l0.037-0.014l0.037-0.015l0.038-0.016c0.626-0.283,1.15-0.756,1.645-1.224
			c2.144-2.141,3.882-4.714,5.545-7.237c1.911-2.979,3.724-6.104,5.215-9.316c1.293-2.749,2.168-5.711,2.462-8.739
			C186.425,412.827,186.721,409.928,186.721,409.928z"/>
	</g>
</g>
</svg>
