<?xml version="1.0" encoding="utf-8"?>
<!-- Generator: Adobe Illustrator 25.4.1, SVG Export Plug-In . SVG Version: 6.00 Build 0)  -->
<!DOCTYPE svg PUBLIC "-//W3C//DTD SVG 1.1//EN" "http://www.w3.org/Graphics/SVG/1.1/DTD/svg11.dtd" [
	<!ENTITY ns_extend "http://ns.adobe.com/Extensibility/1.0/">
	<!ENTITY ns_ai "http://ns.adobe.com/AdobeIllustrator/10.0/">
	<!ENTITY ns_graphs "http://ns.adobe.com/Graphs/1.0/">
	<!ENTITY ns_vars "http://ns.adobe.com/Variables/1.0/">
	<!ENTITY ns_imrep "http://ns.adobe.com/ImageReplacement/1.0/">
	<!ENTITY ns_sfw "http://ns.adobe.com/SaveForWeb/1.0/">
	<!ENTITY ns_custom "http://ns.adobe.com/GenericCustomNamespace/1.0/">
	<!ENTITY ns_adobe_xpath "http://ns.adobe.com/XPath/1.0/">
]>
<svg version="1.1" xmlns:x="&ns_extend;" xmlns:i="&ns_ai;" xmlns:graph="&ns_graphs;"
	 xmlns="http://www.w3.org/2000/svg" xmlns:xlink="http://www.w3.org/1999/xlink" x="0px" y="0px" width="750px" height="750px"
	 viewBox="0 0 750 750" enable-background="new 0 0 750 750" xml:space="preserve">
<metadata>
	<sfw  xmlns="&ns_sfw;">
		<slices></slices>
		<sliceSourceBounds  bottomLeftOrigin="true" height="10393.047" width="5400" x="-2000" y="-1314"></sliceSourceBounds>
	</sfw>
</metadata>
<g id="FILL-BACKGROUND">
	<rect fill="#FFFFFF" width="750" height="750"/>
</g>
<g id="N-DIMENSIONS">
</g>
<g id="N-TEXT">
</g>
<g id="_x32_D_x24_AG-DIAGRAM">
	<g id="POLYLINE_00000139276037889185233010000012121235574050263209_">
		<g>
			<g>
				
					<line fill="none" stroke="#FB8604" stroke-width="3.25" stroke-linecap="round" stroke-linejoin="round" x1="150.312" y1="608.818" x2="152.312" y2="608.818"/>
				
					<line fill="none" stroke="#FB8604" stroke-width="3.25" stroke-linecap="round" stroke-linejoin="round" stroke-dasharray="3.9553,6.9217" x1="159.234" y1="608.818" x2="547.345" y2="608.818"/>
				
					<line fill="none" stroke="#FB8604" stroke-width="3.25" stroke-linecap="round" stroke-linejoin="round" x1="550.806" y1="608.818" x2="552.806" y2="608.818"/>
			</g>
		</g>
	</g>
</g>
<g id="_x32_D_x24_AG-DETAILS-DIAGRAM">
</g>
<g id="_x32_D_x24_AG-DETAILS">
	<g id="POLYLINE_00000041984187519315803570000014057236048039249288_">
		<path fill="none" stroke="#FB8604" stroke-width="2" stroke-linecap="round" stroke-linejoin="round" stroke-miterlimit="10" d="
			M516.547,221.885c2.978-1.697,6.113-3.219,9.397-4.223c2.525-0.768,5.181-1.232,7.827-1.089c2.212,0.108,4.373,0.732,6.419,1.553
			c5.185,2.104,10.235,5.408,15.816,6.394c6.613,1.183,13.863-0.251,20.463-1.069c2.137-0.256,4.375-0.49,6.525-0.415
			c1.164,0.045,2.348,0.16,3.463,0.513c0.828,0.269,1.677,0.702,2.133,1.477c0.297,0.498,0.361,1.098,0.314,1.667
			c-0.107,1.199-0.566,2.35-1.009,3.46c-0.289,0.69-1.01,2.357-1.265,3.033"/>
	</g>
	<g id="POLYLINE_00000168076983099162115180000000750305535774372775_">
		<path fill="none" stroke="#FB8604" stroke-width="2" stroke-linecap="round" stroke-linejoin="round" stroke-miterlimit="10" d="
			M398.347,305.328l2.122,3.456c1.567,2.622,2.936,5.569,2.759,8.694c-0.063,1.341-0.414,2.657-0.884,3.909
			c-1.325,3.557-4.441,8.36-6.321,11.695c-2.269,4.043-4.41,8.359-4.87,13.034c-0.306,3.191,0.235,6.413,1.111,9.478
			c1.862,6.595,5.794,13.629,7.853,20.161c0.395,1.279,0.737,2.613,0.95,3.934c0.235,1.441,0.339,2.938,0.378,4.397
			c0.05,1.49-0.016,3.834,0.14,5.305c0.049,0.446,0.121,0.9,0.258,1.328c0.172,0.551,0.494,1.091,1.022,1.361
			c0.333,0.175,0.71,0.249,1.082,0.282c0.603,0.05,1.219-0.003,1.819-0.073c2.202-0.278,4.573-0.863,6.803-0.755
			c1.095,0.044,2.185,0.312,3.152,0.832c2.206,1.159,4.083,3.479,5.81,5.238c1.151,1.168,2.4,2.308,3.91,2.989
			c1.279,0.584,2.682,0.859,4.073,1.004c2.801,0.281,5.99,0.111,8.783,0.462c2.797,0.301,5.805,1.471,8.459,2.396
			c1.592,0.54,3.237,1.05,4.914,1.229c1.169,0.126,2.369,0.077,3.508-0.23c1.335-0.359,2.57-1.042,3.666-1.875
			c1.494-1.141,2.759-2.574,3.775-4.152c0.956-1.493,1.697-3.136,2.123-4.859c0.394-1.587,0.505-3.257,0.226-4.873
			c-0.725-4.302-3.771-8.243-5.931-11.932c-0.959-1.64-1.875-3.362-2.293-5.229c-0.373-1.656-0.332-3.382-0.188-5.064
			c0.252-2.667,0.668-5.612,0.217-8.261c-0.368-2.356-1.393-4.56-2.549-6.627c-3.092-5.444-7.635-10.794-10.822-16.183
			c-1.341-2.275-2.523-4.706-3.038-7.313c-0.373-1.821-0.451-3.704-0.343-5.557c0.133-2.639,0.799-6.057,0.932-8.697
			c0.226-4.158-0.545-8.539-0.969-12.669"/>
	</g>
	<g id="POLYLINE_00000003800039804074771550000012477754149199090063_">
		<path fill="none" stroke="#FB8604" stroke-width="2" stroke-linecap="round" stroke-linejoin="round" stroke-miterlimit="10" d="
			M277.722,307.541c-5.087,6.728-8.158,16.772-5.762,25.062c0.837,2.878,2.374,5.627,4.7,7.56c1.086,0.905,2.34,1.614,3.682,2.064
			c2.152,0.718,4.465,0.844,6.718,0.869c2.624,0.009,6.331-0.179,8.923,0.065c1.581,0.142,3.168,0.466,4.616,1.133
			c2.863,1.26,5.279,3.768,7.637,5.763c1.115,0.953,2.371,1.758,3.665,2.445c1.445,0.769,3.401,1.742,4.71,2.733
			c1.008,0.736,1.91,1.632,2.761,2.542c2.733,2.973,5.573,6.544,9.424,8.064c3.313,1.314,7.042,1.184,10.459,0.354
			c4.868-1.217,9.549-4.033,12.142-8.428c1.636-2.733,2.504-5.872,2.901-9.015c0.574-4.607,0.19-9.312-0.664-13.861l-1.247-6.229
			c-0.451-2.42-0.791-4.916-0.588-7.379c0.378-4.547,2.255-8.833,4.507-12.749"/>
	</g>
	<g id="POLYLINE_00000120560152398525613320000008476968149367726720_">
		<path fill="none" stroke="#FB8604" stroke-width="2" stroke-linecap="round" stroke-linejoin="round" stroke-miterlimit="10" d="
			M177.207,382.079c2.651,0.889,5.578,1.925,8.341,2.278c1.945,0.262,3.947,0.221,5.862-0.219c2.691-0.605,5.146-1.976,7.421-3.499
			c5.606-3.76,10.591-9.076,15.514-13.67c0.641-0.568,1.319-1.117,2.074-1.524c0.788-0.43,1.659-0.707,2.52-0.951
			c3.377-0.904,7.027-1.801,9.97-3.753c0.984-0.647,1.9-1.413,2.675-2.302c0.694-0.792,1.27-1.693,1.749-2.63
			c1.939-3.834,2.643-8.581,3.59-12.746c0.327-1.433,0.698-2.926,1.229-4.298c0.318-0.818,0.714-1.617,1.243-2.32
			c0.606-0.818,1.38-1.505,2.189-2.117c0.921-0.696,2.234-1.577,3.025-2.4c0.566-0.566,1.048-1.218,1.441-1.914
			c1.099-1.961,1.68-4.178,2.033-6.386c0.386-2.533,0.458-5.131,0.132-7.675"/>
	</g>
</g>
<g id="_x32_D_x24_AG-ANIMALS">
	<g id="POLYLINE_00000045600112021348095580000017522821832956161465_">
		
			<path fill="none" stroke="#FB8604" stroke-width="2.75" stroke-linecap="round" stroke-linejoin="round" stroke-miterlimit="10" d="
			M490.527,288.286c-3.591,2.27-7.885,5.194-11.661,6.937c-3.154,1.491-6.536,2.582-9.934,3.358
			c-4.116,0.944-8.516,1.587-12.71,2.098c-17.233,2.028-39.679,2.538-56.893,4.541c-7.342,0.833-18.871,2.295-26.086,2.77
			c-6.496,0.467-13.856,0.565-20.394,0.537c-20.104-0.017-45.756-2.414-65.794-1.683c-10.803,0.465-21.745,2.001-31.85,5.991
			c-12.694,4.968-23.955,13.137-33.781,22.491c-7.953,7.39-17.71,19.565-24.821,27.863c-6.109,7.061-12.754,13.88-20.213,19.52
			c-7.166,5.461-14.989,10.212-22.983,14.355c-7.694,3.971-15.75,7.493-23.924,10.356c-6.714,2.36-13.757,4.175-20.76,5.443
			c-11.611,2.248-32.098,3.894-43.715,6.209c-0.737,0.164-1.541,0.359-2.261,0.594c-0.389,0.13-0.798,0.277-1.155,0.485
			l-0.038,0.023l-0.037,0.023l-0.035,0.023l-0.034,0.023l-0.032,0.023l-0.031,0.023l-0.029,0.023l-0.027,0.023l-0.026,0.023
			l-0.024,0.023l-0.022,0.023l-0.021,0.023l-0.019,0.023l-0.017,0.023l-0.016,0.023l-0.014,0.023l-0.012,0.023l-0.011,0.023
			l-0.009,0.023l-0.007,0.023l-0.005,0.024l-0.004,0.024l-0.002,0.024l0,0.024l0.002,0.024l0.003,0.024l0.005,0.024l0.007,0.024
			l0.009,0.024l0.011,0.024l0.012,0.024l0.014,0.024l0.016,0.024l0.01,0.014l0.011,0.014l0.012,0.014l0.012,0.014l0.013,0.014
			l0.013,0.014l0.014,0.014l0.015,0.014l0.015,0.014l0.016,0.014c0.213,0.18,0.469,0.305,0.719,0.423
			c1.919,0.829,4.164,1.417,6.033,2.359c0.655,0.33,1.304,0.704,1.848,1.2c0.326,0.3,0.617,0.656,0.775,1.074l0.012,0.033
			c0.158,0.441,0.145,0.924,0.048,1.377c-0.175,0.801-0.564,1.543-0.958,2.254c-0.474,0.854-1.197,1.93-1.507,2.851
			c-0.065,0.206-0.114,0.422-0.108,0.64l0.001,0.021l0.001,0.021l0.002,0.021l0.002,0.021l0.002,0.021l0.003,0.021l0.003,0.02
			l0.003,0.02l0.004,0.02l0.004,0.02l0.005,0.02l0.005,0.02l0.006,0.019l0.006,0.019l0.006,0.019l0.007,0.019l0.007,0.019
			l0.008,0.018l0.008,0.018l0.009,0.018l0.009,0.018l0.009,0.018l0.01,0.017l0.016,0.026l0.017,0.026l0.018,0.025l0.019,0.025
			l0.02,0.024l0.021,0.024l0.022,0.024l0.023,0.023l0.024,0.023l0.025,0.022l0.026,0.022l0.027,0.022l0.028,0.021l0.029,0.021
			l0.03,0.02l0.031,0.02l0.032,0.02l0.033,0.019l0.034,0.019l0.035,0.018l0.035,0.018l0.036,0.018
			c0.389,0.181,0.816,0.272,1.237,0.343c1.827,0.297,5.798,0.238,7.689,0.308c2.004,0.083,4.061,0.21,5.993,0.783
			c1.006,0.309,2.012,0.76,2.743,1.539c0.549,0.583,0.907,1.323,1.127,2.088c0.343,1.201,0.395,2.473,0.397,3.715l-0.038,2.586
			c0.002,0.65,0.012,1.326,0.133,1.965c0.062,0.315,0.153,0.63,0.318,0.907l0.016,0.026l0.016,0.026l0.017,0.025l0.017,0.025
			l0.017,0.024l0.018,0.024l0.018,0.023l0.019,0.023l0.019,0.022l0.019,0.022l0.02,0.021l0.02,0.021l0.021,0.02l0.021,0.02
			l0.021,0.019l0.022,0.019l0.023,0.019l0.024,0.019l0.024,0.018l0.025,0.018l0.025,0.017l0.025,0.017l0.026,0.016l0.026,0.015
			l0.027,0.015l0.027,0.014l0.028,0.014l0.028,0.013l0.028,0.013l0.029,0.012l0.029,0.012l0.03,0.011l0.03,0.011l0.03,0.01
			l0.031,0.01c0.288,0.089,0.594,0.109,0.894,0.102c0.55-0.016,1.106-0.123,1.642-0.245c2.481-0.588,5.094-1.653,7.655-1.806
			c0.711-0.04,1.437-0.005,2.128,0.178c0.497,0.131,0.971,0.348,1.404,0.623c1.799,1.155,3.023,3.229,4.232,4.946
			c0.442,0.624,0.902,1.261,1.448,1.799c0.397,0.388,0.857,0.74,1.398,0.893c0.406,0.118,0.842,0.093,1.248-0.01
			c1.197-0.325,2.234-1.116,3.224-1.836c1.33-0.995,2.912-2.305,4.38-3.065c0.575-0.297,1.187-0.547,1.827-0.658
			c1.75-0.329,3.334,0.768,4.631,1.811c1.405,1.138,2.859,2.587,4.4,3.539c0.72,0.443,1.507,0.805,2.345,0.945
			c1.986,0.342,3.873-0.785,5.443-1.876c2.249-1.593,4.48-3.808,6.562-5.616c0.798-0.694,1.658-1.408,2.545-1.986
			c0.59-0.375,1.221-0.729,1.916-0.856l0.047-0.008l0.046-0.007l0.046-0.006l0.046-0.005l0.045-0.004l0.045-0.003l0.045-0.002
			l0.044-0.001l0.044,0l0.044,0.001l0.044,0.002l0.043,0.003l0.043,0.004l0.043,0.005l0.042,0.006l0.042,0.007l0.042,0.008
			c0.345,0.07,0.658,0.253,0.923,0.48c0.479,0.412,0.837,0.949,1.168,1.482l0.613,1.027c0.202,0.316,0.423,0.703,0.739,0.913
			l0.011,0.007l0.011,0.006l0.011,0.006l0.011,0.006l0.011,0.006l0.011,0.005l0.011,0.005l0.011,0.005l0.011,0.004l0.011,0.004
			l0.011,0.004l0.011,0.003l0.011,0.003l0.011,0.003l0.011,0.003l0.011,0.002l0.011,0.002l0.011,0.002l0.011,0.001l0.011,0.001
			l0.011,0.001l0.011,0l0.011,0l0.014,0l0.014-0.001l0.014-0.001l0.014-0.002l0.014-0.002l0.014-0.003l0.014-0.003l0.014-0.004
			l0.014-0.004l0.014-0.005l0.014-0.005l0.014-0.006l0.014-0.006l0.014-0.007l0.014-0.007l0.014-0.008l0.014-0.008l0.014-0.008
			l0.014-0.009l0.014-0.009l0.014-0.01l0.014-0.01l0.014-0.011l0.014-0.011c0.2-0.164,0.349-0.382,0.488-0.597
			c0.886-1.467,1.555-3.322,2.574-4.707c0.397-0.537,0.867-1.064,1.493-1.332c0.58-0.248,1.234-0.228,1.844-0.117
			c1.186,0.221,2.422,0.756,3.609,0.976c0.848,0.165,1.75,0.18,2.567-0.131c0.802-0.299,1.466-0.876,2.045-1.493
			c2.888-3.222,4.623-8.03,6.841-11.707c0.286-0.448,0.583-0.908,0.984-1.262l0.026-0.022l0.026-0.021l0.026-0.02l0.026-0.019
			l0.026-0.018l0.026-0.017l0.026-0.016l0.025-0.015l0.025-0.014l0.025-0.013l0.025-0.012l0.025-0.011l0.025-0.01l0.025-0.009
			l0.024-0.008l0.024-0.007l0.024-0.006l0.024-0.005l0.024-0.004l0.024-0.003l0.023-0.002l0.023,0l0.011,0l0.011,0l0.011,0.001
			l0.011,0.001l0.011,0.001l0.011,0.001l0.011,0.002l0.011,0.002l0.011,0.002l0.011,0.002l0.011,0.003l0.011,0.003l0.011,0.003
			l0.011,0.003l0.011,0.004l0.011,0.004l0.011,0.004l0.011,0.004l0.011,0.004l0.01,0.005l0.01,0.005
			c0.326,0.168,0.544,0.538,0.738,0.838c0.36,0.57,0.705,1.282,1.241,1.706c0.183,0.141,0.405,0.241,0.639,0.245l0.035,0
			l0.035-0.001l0.035-0.002l0.036-0.003l0.036-0.005l0.036-0.006l0.037-0.007l0.037-0.008l0.037-0.009l0.038-0.01l0.038-0.012
			l0.038-0.013l0.039-0.014l0.039-0.015l0.039-0.016l0.04-0.017l0.04-0.018l0.04-0.019l0.041-0.02
			c0.447-0.234,0.835-0.573,1.2-0.919c0.964-0.938,1.822-2.051,2.64-3.118c2.079-2.722,4.503-6.433,6.967-8.757
			c0.487-0.437,1.011-0.86,1.62-1.115l0.047-0.019l0.047-0.018l0.046-0.017l0.046-0.015l0.046-0.014l0.046-0.013l0.045-0.012
			c1.37-0.355,2.407,0.921,3.281,1.771c0.332,0.312,0.711,0.689,1.173,0.778l0.019,0.003l0.019,0.003l0.019,0.002l0.019,0.002
			l0.019,0.001l0.019,0.001l0.019,0.001l0.019,0l0.019,0l0.019,0l0.019-0.001l0.019-0.001l0.019-0.002l0.019-0.002l0.019-0.002
			l0.019-0.003l0.019-0.003l0.019-0.003l0.019-0.004l0.019-0.004l0.019-0.005l0.019-0.005c0.359-0.101,0.651-0.355,0.906-0.618
			c0.27-0.283,0.51-0.606,0.731-0.929c0.705-1.027,1.739-2.983,2.368-4.083c0.807-1.426,1.757-2.805,2.821-4.05
			c1.48-1.757,3.481-3.592,5.091-5.238"/>
	</g>
	<g id="POLYLINE_00000080925297659960810070000005079369159912978865_">
		
			<path fill="none" stroke="#FB8604" stroke-width="2.75" stroke-linecap="round" stroke-linejoin="round" stroke-miterlimit="10" d="
			M263.239,493.869c1.646-1.475,3.707-3.155,5.138-4.827c1.984-2.242,4.347-5.708,6.264-8.014c0.544-0.647,1.113-1.313,1.759-1.86
			c0.224-0.184,0.462-0.364,0.734-0.471l0.021-0.008l0.021-0.007l0.02-0.007l0.02-0.006l0.02-0.006l0.02-0.005l0.02-0.005
			l0.019-0.004l0.019-0.004l0.019-0.003l0.019-0.002l0.018-0.002l0.018-0.001l0.018-0.001l0.018,0
			c0.374,0.001,0.61,0.368,0.841,0.614c0.16,0.177,0.345,0.349,0.578,0.419l0.02,0.006l0.02,0.005l0.02,0.005l0.021,0.004
			l0.021,0.004l0.021,0.004l0.021,0.003l0.021,0.003l0.022,0.002l0.022,0.002l0.022,0.001l0.022,0.001l0.023,0.001l0.023,0l0.023,0
			c0.436-0.013,0.847-0.2,1.227-0.402c0.798-0.443,1.509-1.042,2.177-1.66c3.578-3.404,6.121-7.763,8.134-12.235l2.612-5.878
			c0.549-1.157,1.11-2.36,1.881-3.388c0.257-0.331,0.544-0.653,0.906-0.87l0.027-0.016l0.027-0.015l0.027-0.015l0.027-0.014
			l0.027-0.013l0.027-0.013l0.028-0.012l0.028-0.011l0.028-0.011l0.028-0.01l0.028-0.009l0.028-0.008
			c0.43-0.129,0.88,0.011,1.282,0.17c0.489,0.185,1.029,0.49,1.566,0.378l0.021-0.005l0.021-0.005l0.021-0.006l0.021-0.006
			l0.021-0.007l0.021-0.007l0.021-0.008l0.021-0.008l0.021-0.009l0.021-0.009l0.021-0.01l0.021-0.01
			c0.489-0.253,0.82-0.721,1.122-1.167c0.854-1.339,1.791-3.416,2.548-4.823c0.933-1.767,1.985-3.509,3.247-5.062
			c1.671-2.059,3.655-3.871,5.75-5.49c2.649-2.036,5.551-3.825,8.535-5.326c1.729-0.859,3.549-1.672,5.388-2.264
			c1.055-0.334,2.159-0.583,3.271-0.556c2.041,0.043,3.926,1.005,5.711,1.907l4.198,2.215c1.395,0.705,2.852,1.413,4.347,1.872
			c0.784,0.236,1.602,0.413,2.424,0.389c1.118-0.015,2.266-0.484,3.305-0.865c0.629-0.224,1.287-0.412,1.958-0.42
			c1.014-0.011,1.994,0.348,2.899,0.778c1.688,0.823,3.245,1.967,4.745,3.089c4.051,3.113,9.159,7.337,13.533,9.879
			c0.951,0.546,1.941,1.072,2.975,1.439c0.515,0.178,1.053,0.324,1.601,0.337c0.581,0.023,1.197-0.163,1.755-0.31
			c0.396-0.101,0.807-0.166,1.216-0.135c0.996,0.087,1.926,0.52,2.811,0.958c4.588,2.431,9.541,6.568,14.095,9.055
			c0.967,0.522,1.973,1.022,3.034,1.323c0.743,0.199,1.6,0.343,2.301-0.057c0.539-0.311,0.898-0.889,1.268-1.371
			c0.258-0.333,0.55-0.691,0.972-0.811l0.019-0.005l0.019-0.005l0.019-0.004l0.019-0.004c0.412-0.079,0.83,0.051,1.209,0.206
			c0.371,0.156,0.732,0.36,1.075,0.57c1.041,0.638,2.925,2.07,3.938,2.794c3.185,2.302,6.873,4.027,10.784,4.589
			c0.768,0.103,1.555,0.155,2.329,0.109c0.832-0.04,1.855-0.277,2.676-0.438c0.552-0.104,1.118-0.175,1.68-0.154
			c0.544,0.018,1.087,0.125,1.611,0.266c2.834,0.822,5.871,2.488,8.709,3.298c4.181,1.246,8.614,1.466,12.953,1.421"/>
	</g>
	<g id="POLYLINE_00000019643556785082506200000001834169704122721204_">
		
			<path fill="none" stroke="#FB8604" stroke-width="2.75" stroke-linecap="round" stroke-linejoin="round" stroke-miterlimit="10" d="
			M218.612,364.587c-2.068,7.073-4.465,19.704-6.017,27.044c-0.242,1.227-2.164,9.202-2.49,10.591
			c-0.377,1.776-0.8,3.616-0.779,5.439c0.025,0.638,0.096,1.328,0.491,1.854c0.351,0.449,0.944,0.646,1.448,0.873
			c0.436,0.194,0.862,0.453,1.144,0.847c0.482,0.673,0.559,1.601,0.607,2.406c0.042,0.939-0.01,1.914-0.082,2.852
			c-0.227,2.913-1.032,8.184-1.241,11.097c-0.115,1.674-0.204,3.394,0.072,5.056c0.102,0.592,0.274,1.178,0.55,1.713
			c0.28,0.55,0.669,1.041,1.1,1.481c0.722,0.746,1.64,1.431,2.033,2.423c0.26,0.632,0.292,1.331,0.256,2.006
			c-0.082,1.351-0.419,2.698-0.77,4.002c-0.673,2.461-1.958,6.028-2.464,8.513c-0.109,0.565-0.197,1.149-0.185,1.726
			c0.008,0.375,0.061,0.751,0.16,1.112c0.152,0.571,0.46,1.194,0.669,1.747c0.222,0.579,0.367,1.191,0.418,1.809
			c0.122,1.649-0.14,3.316-0.442,4.933c-0.67,3.384-1.755,6.75-2.99,9.968c-1.471,3.774-3.24,7.519-5.367,10.969
			c-1.157,1.877-2.471,3.697-3.917,5.362c-1.704,1.983-3.673,3.843-5.625,5.582c-2.289,2.035-5.391,4.635-7.324,7.013
			c-1.189,1.429-2.185,3.038-2.958,4.728c-1.349,2.932-2.157,6.108-2.774,9.266c-0.599,2.944-1.879,12.294-2.348,15.294
			c-3.062,18.597-7.379,40.56-11.39,58.971c-0.695,2.621-1.136,5.357-0.946,8.074c0.122,1.689,0.508,3.38,1.276,4.897
			c0.706,1.38,1.737,2.693,3.06,3.525c0.9,0.56,1.953,0.815,2.997,0.927c0.906,0.104,1.904,0.116,2.819,0.128
			c3.779-0.053,24.694,0.147,28.005-0.171c1.435-0.134,3-0.298,4.258-1.049c0.391-0.239,0.74-0.549,1.018-0.914
			c0.336-0.439,0.572-0.949,0.748-1.471c0.334-1.012,0.491-2.086,0.607-3.143c0.184-1.831,0.224-3.718,0.096-5.554
			c-0.078-1.015-0.218-2.045-0.574-3.004c-0.576-1.536-1.7-2.796-2.861-3.924c-0.623-0.592-1.293-1.149-1.994-1.647
			c-0.743-0.538-1.868-1.177-2.67-1.644c-0.979-0.564-1.972-1.195-2.66-2.109c-0.499-0.655-0.854-1.425-1.018-2.233
			c-0.179-0.924-0.104-1.881,0.012-2.808c0.105-0.816,0.294-1.782,0.456-2.59c1.359-6.05,3.668-18.072,4.867-24.273
			c1.079-5.254,2.42-10.557,4.416-15.54c0.556-1.35,1.118-2.893,1.903-4.119c0.631-1.006,1.447-1.893,2.32-2.694
			c0.988-0.906,2.118-1.772,3.194-2.574c3.087-2.349,26.785-18.294,30.106-20.763c1.983-1.486,6.219-5.224,8.143-6.834
			c2.123-1.774,5.092-4.168,7.267-5.887"/>
	</g>
	<g id="POLYLINE_00000180330600764323135420000004619402810877836692_">
		
			<path fill="none" stroke="#FB8604" stroke-width="2.75" stroke-linecap="round" stroke-linejoin="round" stroke-miterlimit="10" d="
			M453.04,418.405c-0.273,1.741-0.621,4.451-0.837,6.219l-1.7,15.923l-1.923,14.966c-0.336,3.224-0.778,6.599-0.496,9.837
			c0.075,0.631,0.175,1.281,0.463,1.854l0.019,0.036l0.02,0.035l0.02,0.034l0.02,0.033l0.021,0.032l0.021,0.031l0.021,0.03
			l0.022,0.029l0.022,0.028l0.022,0.028l0.023,0.027l0.023,0.026l0.024,0.025l0.024,0.024l0.024,0.023l0.025,0.022l0.025,0.021
			l0.026,0.02l0.026,0.019l0.026,0.018c0.284,0.186,0.639,0.197,0.967,0.187l0.432-0.019c0.385-0.014,0.82,0.011,1.059,0.359
			l0.015,0.022l0.015,0.023l0.014,0.024l0.014,0.025l0.014,0.026l0.013,0.026l0.013,0.027l0.012,0.028l0.012,0.029l0.012,0.03
			l0.011,0.03l0.011,0.031c0.103,0.31,0.137,0.643,0.156,0.969c0.054,1.264-0.114,2.574-0.26,3.829
			c-0.345,2.884-0.974,6.365-0.919,9.25c0.021,0.63,0.073,1.27,0.251,1.877c0.144,0.5,0.423,0.965,0.828,1.296
			c0.856,0.699,2.067,0.896,2.95,1.629c1.17,0.93,1.536,2.51,1.812,3.91c0.494,2.777,0.537,5.755,0.603,8.574
			c0.081,3.568-0.029,8.762,0.47,12.266c0.149,0.933,0.319,1.897,0.773,2.736c0.184,0.328,0.436,0.619,0.746,0.834
			c0.394,0.286,0.965,0.454,1.421,0.617c0.402,0.144,0.804,0.358,1.038,0.729l0.016,0.026l0.016,0.026l0.016,0.027
			c0.237,0.421,0.323,0.91,0.38,1.384c0.231,2.409-0.333,6.141-0.515,8.576c-0.156,1.978-0.297,4.027-0.058,6
			c0.153,1.245,0.483,2.474,0.941,3.641c0.813,2.079,2.096,4.219,2.841,6.325c0.737,2.018,1.07,4.197,1.354,6.32
			c0.317,2.436,0.615,5.992,1.175,8.349c0.163,0.67,0.362,1.345,0.665,1.966c0.196,0.401,0.448,0.779,0.742,1.115
			c0.457,0.538,1.245,1.129,1.791,1.584c0.482,0.403,0.94,0.846,1.329,1.34c0.856,1.096,1.471,2.37,1.994,3.653
			c0.756,1.888,1.3,3.892,1.654,5.894c0.286,1.654,0.449,3.347,0.39,5.027c0.171,4.935,0.296,10.383,0.908,15.266
			c0.336,2.606,0.883,5.232,1.963,7.639c0.817,1.83,1.992,3.54,3.594,4.768c1.51,1.18,3.356,1.849,5.225,2.199
			c2.326,0.441,4.763,0.518,7.127,0.564c3.216,0.007,25.34,0.051,27.988-0.015c1.003-0.038,2.063-0.08,3.053-0.235
			c0.956-0.146,1.921-0.392,2.753-0.9c2.066-1.26,2.813-3.799,2.983-6.085c0.159-2.259-0.125-4.543-0.633-6.744
			c-0.563-2.433-1.509-4.834-3.155-6.744c-0.414-0.491-0.854-0.983-1.382-1.353c-0.531-0.378-1.14-0.64-1.759-0.836
			c-2.421-0.713-5.647-0.944-8.103-1.523c-1.284-0.288-2.578-0.658-3.731-1.306c-0.835-0.466-1.586-1.091-2.18-1.84
			c-0.695-0.87-1.191-1.887-1.578-2.927c-0.97-2.675-1.341-5.556-1.652-8.371c-0.9-9.389-0.909-19.448-0.857-28.88
			c0.157-6.749,0.348-13.751,1.92-20.34c0.486-3.529,2.386-14.304,2.998-17.797c0.366-1.903,0.769-3.939,1.327-5.791
			c0.174-0.563,0.369-1.141,0.621-1.674c0.131-0.27,0.276-0.541,0.475-0.768l0.019-0.021l0.019-0.021l0.019-0.02l0.019-0.019
			l0.019-0.018l0.019-0.017l0.019-0.017l0.019-0.016l0.019-0.015l0.019-0.014l0.02-0.013l0.02-0.013l0.02-0.012l0.02-0.011
			l0.02-0.01l0.02-0.009l0.02-0.008l0.02-0.008l0.02-0.007l0.02-0.006l0.02-0.005c0.127-0.031,0.26-0.004,0.378,0.046
			c0.26,0.11,0.532,0.355,0.757,0.525c0.171,0.125,0.355,0.262,0.572,0.282l0.019,0.001l0.019,0l0.019,0l0.019-0.001l0.019-0.002
			l0.019-0.003l0.018-0.003l0.018-0.004l0.018-0.005l0.018-0.005l0.018-0.006l0.018-0.007l0.018-0.008l0.018-0.008l0.018-0.009
			l0.018-0.01l0.018-0.01l0.018-0.011l0.018-0.012l0.018-0.012l0.018-0.013l0.018-0.014l0.018-0.015l0.018-0.015l0.018-0.016
			l0.018-0.017l0.018-0.017l0.018-0.018l0.018-0.019l0.018-0.019c0.299-0.344,0.482-0.773,0.654-1.191
			c0.298-0.751,0.536-1.586,0.749-2.366c0.507-1.883,2.115-8.964,2.612-10.813c0.897-3.448,2.011-7.065,3.246-10.405
			c0.915-2.454,1.934-4.952,3.164-7.266c0.509-0.941,1.063-1.889,1.738-2.722c0.326-0.393,0.684-0.78,1.129-1.04l0.032-0.018
			l0.032-0.017l0.032-0.016l0.032-0.015l0.032-0.014l0.031-0.014l0.031-0.013l0.031-0.012l0.031-0.011l0.031-0.01l0.031-0.009
			l0.031-0.008l0.03-0.008l0.03-0.007l0.03-0.006l0.03-0.005l0.03-0.004c0.599-0.066,1.082,0.389,1.6,0.611
			c0.21,0.092,0.446,0.147,0.675,0.101l0.026-0.006l0.026-0.006l0.026-0.007l0.026-0.008l0.026-0.009l0.026-0.01l0.027-0.01
			l0.027-0.011l0.027-0.012l0.027-0.013l0.027-0.013l0.027-0.014l0.027-0.015l0.027-0.016l0.027-0.016l0.027-0.017
			c0.34-0.22,0.615-0.529,0.869-0.841c0.869-1.113,1.541-2.407,2.201-3.652l3.849-7.664c1.008-1.928,2.123-3.89,3.364-5.68
			c1.35-1.961,2.923-3.858,4.526-5.617l4.868-5.189c1.153-1.262,2.28-2.615,3.278-4.002c1.316-1.794,3.13-4.695,4.568-6.37
			c0.469-0.537,0.976-1.062,1.581-1.446c0.361-0.229,0.766-0.387,1.175-0.509c0.471-0.14,1.064-0.28,1.498-0.505
			c0.263-0.133,0.507-0.305,0.719-0.51c0.411-0.401,0.715-0.901,0.983-1.405c0.676-1.299,1.16-2.773,1.618-4.164l1.777-5.727
			c0.607-1.873,1.285-3.81,2.129-5.587c1.011-2.187,2.801-5.047,4.037-7.145c1.067-1.843,2.031-3.782,2.617-5.836
			c0.905-3.197,1.013-6.596,1.049-9.9l-0.066-8.695c0.006-3.249,0.26-6.552,1.001-9.719c0.896-4.261,3.632-10.777,5.167-14.915
			c1.028-2.794,2.081-5.715,2.722-8.623c0.613-2.714,0.754-6.041,1.072-8.808c0.633-5.361,1.806-11.311,2.859-16.617"/>
	</g>
	<g id="POLYLINE_00000165229080966372776490000003994962045948379317_">
		
			<path fill="none" stroke="#FB8604" stroke-width="2.75" stroke-linecap="round" stroke-linejoin="round" stroke-miterlimit="10" d="
			M586.63,233.186c-1.616,3.307-3.422,7.296-5.561,10.27c-1.415,2.032-3.148,3.86-4.961,5.54
			c-3.532,3.248-7.767,6.781-10.592,10.641c-1.715,2.294-3.039,4.89-3.899,7.622c-1.16,3.65-1.634,7.514-1.602,11.337
			c0.043,3.939,0.618,7.898,1.798,11.66c0.927,3.039,2.618,6.281,4.03,9.137c0.702,1.455,1.395,2.963,1.809,4.528
			c0.443,1.637,0.504,3.377-0.065,4.991c-0.558,1.628-1.53,3.088-2.541,4.468c-2.578,3.434-5.714,6.745-7.895,10.459
			c-0.903,1.524-1.67,3.156-2.195,4.85c-0.969,3.022-1.339,6.61-1.753,9.756c-0.092,0.625-0.192,1.282-0.359,1.891
			c-0.08,0.281-0.174,0.565-0.329,0.814l-0.014,0.022l-0.014,0.021l-0.014,0.021l-0.015,0.02l-0.015,0.019l-0.015,0.019
			l-0.015,0.018l-0.015,0.017l-0.016,0.017l-0.016,0.016l-0.016,0.016l-0.016,0.015l-0.016,0.014l-0.016,0.014l-0.017,0.013
			l-0.017,0.012l-0.017,0.012l-0.017,0.011l-0.017,0.01l-0.018,0.009l-0.018,0.009l-0.018,0.008l-0.018,0.007l-0.018,0.007
			l-0.019,0.006l-0.019,0.005l-0.019,0.005l-0.019,0.004l-0.02,0.003l-0.02,0.002l-0.02,0.002l-0.02,0.001l-0.02,0l-0.021,0
			l-0.021-0.001l-0.021-0.002l-0.021-0.003l-0.018-0.003l-0.018-0.003l-0.018-0.004l-0.018-0.004l-0.018-0.005l-0.018-0.005
			l-0.018-0.006l-0.019-0.006l-0.019-0.007l-0.019-0.007l-0.019-0.007c-0.244-0.101-0.457-0.268-0.657-0.439
			c-1.216-1.106-2.409-2.796-3.504-4.023c-0.52-0.589-1.067-1.189-1.687-1.674c-0.288-0.22-0.599-0.425-0.948-0.532l-0.029-0.009
			l-0.029-0.008l-0.029-0.007l-0.029-0.007l-0.029-0.006l-0.029-0.006l-0.029-0.005l-0.029-0.004l-0.029-0.004l-0.028-0.003
			l-0.028-0.003l-0.028-0.002l-0.028-0.002l-0.028-0.001l-0.028,0l-0.028,0l-0.028,0.001l-0.028,0.001l-0.027,0.002l-0.027,0.002
			l-0.027,0.003l-0.027,0.004l-0.027,0.004l-0.027,0.005l-0.027,0.005l-0.027,0.006l-0.027,0.006l-0.027,0.007l-0.026,0.008
			l-0.026,0.008l-0.026,0.009l-0.026,0.009l-0.026,0.01l-0.026,0.01l-0.026,0.011l-0.026,0.011l-0.026,0.012l-0.026,0.012
			c-0.37,0.183-0.664,0.488-0.919,0.807c-0.555,0.71-0.978,1.549-1.382,2.352c-1.245,2.585-2.587,5.602-4.056,8.051
			c-1.552,2.623-3.397,5.165-5.326,7.525c-2.485,2.977-5.167,5.91-8.329,8.18c-0.921,0.627-1.964,1.29-3.075,1.479l-0.051,0.007
			l-0.05,0.006l-0.05,0.005l-0.049,0.004l-0.048,0.003l-0.048,0.002l-0.047,0.001l-0.047,0l-0.046-0.001l-0.046-0.002l-0.045-0.003
			l-0.044-0.004l-0.044-0.005l-0.043-0.006l-0.043-0.008l-0.042-0.009l-0.041-0.01l-0.041-0.011l-0.04-0.012l-0.039-0.013
			l-0.039-0.014l-0.038-0.015l-0.037-0.016l-0.037-0.017l-0.036-0.019l-0.035-0.02l-0.035-0.021l-0.034-0.022l-0.033-0.023
			l-0.033-0.024l-0.032-0.025l-0.031-0.027l-0.031-0.028l-0.018-0.018l-0.018-0.018l-0.018-0.019l-0.018-0.019l-0.017-0.019
			l-0.017-0.02c-0.248-0.296-0.385-0.669-0.485-1.038c-0.23-0.885-0.274-1.859-0.33-2.771c-0.085-1.313-0.076-2.825-0.463-4.086
			c-0.107-0.327-0.251-0.652-0.483-0.911l-0.018-0.02l-0.019-0.02l-0.019-0.019l-0.019-0.019l-0.02-0.018l-0.02-0.018l-0.02-0.017
			l-0.02-0.017l-0.021-0.017l-0.021-0.016l-0.021-0.016l-0.021-0.015l-0.022-0.015l-0.022-0.014l-0.022-0.014l-0.023-0.013
			l-0.023-0.013l-0.023-0.013l-0.024-0.012l-0.024-0.012l-0.024-0.011l-0.024-0.011l-0.025-0.01l-0.025-0.01l-0.025-0.009
			l-0.026-0.009l-0.026-0.009c-0.361-0.115-0.75-0.102-1.121-0.051c-0.676,0.098-1.339,0.328-1.978,0.564
			c-1.483,0.538-3.27,1.447-4.841,1.646c-0.346,0.037-0.703,0.037-1.039-0.062l-0.032-0.01l-0.032-0.01l-0.032-0.011l-0.031-0.012
			l-0.031-0.012l-0.031-0.013l-0.03-0.013l-0.03-0.014l-0.03-0.014l-0.029-0.015l-0.029-0.015l-0.029-0.016l-0.028-0.016
			l-0.028-0.017l-0.028-0.017l-0.027-0.018l-0.027-0.019l-0.027-0.019l-0.027-0.02l-0.026-0.02c-0.376-0.295-0.628-0.717-0.815-1.15
			c-0.38-0.905-0.54-1.901-0.679-2.868c-0.44-3.222-0.447-6.678-1.729-9.714c-1.261-3.083-3.78-5.687-5.256-8.653
			c-0.49-0.985-0.871-2.036-1.089-3.115c-0.436-2.21-0.316-4.509-0.16-6.743c0.278-3.686,0.904-7.942,0.467-11.601
			c-0.137-1.091-0.383-2.183-0.82-3.196c-0.319-0.743-0.756-1.437-1.262-2.067c-1.297-1.62-3.132-2.924-4.791-4.157
			c-0.804-0.614-1.673-1.254-2.374-1.981c-0.55-0.567-1.046-1.22-1.284-1.982c-0.281-0.892-0.193-1.853,0.02-2.75
			c0.47-1.956,1.733-4.392,2.546-6.248c0.777-1.751,1.493-3.568,1.901-5.444c1.052-4.968,0.227-10.118-0.738-15.033
			c-0.578-3.064-1.732-7.307-1.669-10.424c0.024-1.951,0.612-3.82,1.614-5.489c0.787-1.333,1.768-2.576,2.766-3.756
			c2.338-2.778,6.923-7.207,9.43-9.869c1.729-1.822,3.459-3.859,4.986-5.854c1.878-2.442,6.264-8.798,8.058-11.354
			c4.93-6.849,10.561-13.572,18.006-17.769c4.123-2.31,8.72-3.739,13.38-4.455c6.742-1.028,13.672-0.642,20.331,0.768
			c8.217,1.68,18.082,5.943,25.947,8.961c2.197,0.813,4.555,1.633,6.814,2.223c2.179,0.579,4.501,1.034,6.729,1.392
			c2.201,0.348,6.595,0.922,8.71,1.412c0.586,0.136,1.187,0.291,1.747,0.514c0.274,0.112,0.549,0.24,0.784,0.423
			c0.125,0.099,0.24,0.217,0.305,0.365l0.004,0.01l0.004,0.01l0.004,0.01l0.004,0.01l0.004,0.01l0.003,0.01l0.003,0.01l0.003,0.01
			l0.003,0.01l0.003,0.011l0.002,0.011l0.002,0.011l0.002,0.011l0.002,0.011l0.001,0.011l0.001,0.011l0.001,0.011l0.001,0.011
			l0.001,0.011l0,0.011l0,0.011l0,0.011l0,0.011l0,0.011l-0.001,0.011l-0.001,0.011l-0.001,0.011l-0.001,0.011l-0.002,0.011
			l-0.002,0.011l-0.002,0.011l-0.002,0.011l-0.003,0.011l-0.003,0.011c-0.035,0.137-0.109,0.26-0.191,0.374
			c-0.167,0.228-0.378,0.431-0.583,0.625l-0.751,0.681c-0.259,0.244-0.524,0.497-0.719,0.797c-0.088,0.138-0.162,0.291-0.176,0.456
			l-0.001,0.011l-0.001,0.011l0,0.011l0,0.011l0,0.011l0,0.011l0,0.013l0.001,0.013l0.001,0.013l0.001,0.013l0.002,0.013
			l0.002,0.013l0.002,0.013l0.002,0.013l0.003,0.013l0.003,0.013l0.003,0.012l0.004,0.012l0.004,0.012l0.004,0.012l0.004,0.012
			l0.005,0.012l0.005,0.012l0.005,0.012l0.005,0.012c0.069,0.153,0.184,0.281,0.306,0.394c0.259,0.236,0.567,0.424,0.867,0.604
			c0.948,0.57,2.12,1.103,2.788,2.013c0.25,0.347,0.383,0.766,0.423,1.189c0.105,1.197-0.366,2.549-0.632,3.707
			c-0.185,0.802-0.354,1.641-0.224,2.464c0.116,0.741,0.49,1.421,0.981,1.98c0.511,0.586,1.138,1.067,1.788,1.49
			c1.126,0.726,2.377,1.311,3.602,1.849c4.938,2.159,12.346,4.45,17.395,6.405c1.583,0.619,3.232,1.315,4.74,2.1
			c1.776,0.923,3.483,2.037,4.927,3.43c1.904,1.827,3.383,4.067,4.544,6.426"/>
	</g>
	<g id="POLYLINE_00000136397494122255613370000004009286565332402862_">
		
			<path fill="none" stroke="#FB8604" stroke-width="2.75" stroke-linecap="round" stroke-linejoin="round" stroke-miterlimit="10" d="
			M655.807,276.562c-1.803,0.95-3.956,1.106-5.921,0.631c-1.486-0.355-2.881-1.062-4.074-2.013
			c-1.501-1.186-2.656-2.761-3.531-4.452c-1.181-2.289-1.933-4.806-2.3-7.352c-0.256-1.849-0.317-3.752-0.021-5.599
			c0.205-1.24,0.575-2.483,1.27-3.541c1.839-2.796,5.575-3.092,8.625-2.823c2.116,0.196,4.232,0.627,6.271,1.222
			c2.162,0.666,4.448,1.618,5.765,3.553c0.7,1.041,1.006,2.297,1.093,3.536c0.128,1.941-0.204,3.893-0.643,5.778
			c-0.643,2.666-1.523,5.334-3.014,7.654C658.434,274.535,657.276,275.792,655.807,276.562z"/>
	</g>
	<g id="POLYLINE_00000181771553221093752830000015444048231935498647_">
		
			<path fill="none" stroke="#FB8604" stroke-width="2.75" stroke-linecap="round" stroke-linejoin="round" stroke-miterlimit="10" d="
			M583.577,275.986c-2.109,8.653-1.786,17.719-0.692,26.497c0.282,1.919,0.565,3.894,1.264,5.713
			c0.175,0.417,0.373,0.845,0.699,1.167l0.018,0.017l0.018,0.016l0.018,0.016l0.018,0.015l0.018,0.015l0.018,0.014l0.018,0.014
			l0.019,0.013l0.019,0.013l0.019,0.012l0.019,0.011l0.019,0.011l0.019,0.01l0.019,0.01l0.019,0.009l0.019,0.009l0.019,0.008
			l0.019,0.007l0.019,0.007l0.019,0.006l0.019,0.006l0.019,0.005l0.02,0.004l0.02,0.004l0.02,0.003l0.02,0.003l0.02,0.002
			l0.02,0.001l0.02,0.001l0.02,0l0.012,0l0.012,0c0.38-0.027,0.718-0.31,1.01-0.534l0.594-0.483
			c0.437-0.346,0.909-0.681,1.455-0.827c0.361-0.098,0.749-0.095,1.108,0.014l0.043,0.013l0.043,0.014l0.043,0.015l0.043,0.016
			c0.532,0.206,0.997,0.556,1.427,0.924c0.817,0.714,1.539,1.557,2.221,2.399c1.864,2.285,4.084,5.798,6.04,7.997
			c0.34,0.363,0.697,0.729,1.125,0.988l0.032,0.018l0.032,0.017l0.031,0.017l0.031,0.016l0.031,0.015l0.031,0.014l0.03,0.013
			l0.03,0.012l0.03,0.011l0.029,0.01l0.029,0.009l0.029,0.008l0.028,0.007l0.028,0.006l0.028,0.005l0.027,0.004l0.027,0.002
			l0.027,0.001l0.026,0l0.026-0.001l0.026-0.002l0.015-0.002l0.015-0.002l0.015-0.002l0.015-0.003l0.015-0.003l0.015-0.004
			l0.014-0.004l0.014-0.004l0.014-0.005l0.014-0.005l0.014-0.005l0.014-0.006l0.014-0.006l0.014-0.006l0.014-0.007l0.013-0.007
			l0.013-0.007l0.013-0.008l0.013-0.008l0.013-0.008l0.013-0.009l0.013-0.009l0.013-0.009l0.013-0.01l0.013-0.01l0.013-0.01
			l0.012-0.011c0.126-0.111,0.223-0.252,0.306-0.397c0.345-0.62,0.6-1.578,0.835-2.251c0.212-0.602,0.441-1.219,0.824-1.736
			c0.201-0.268,0.458-0.506,0.774-0.63l0.031-0.012l0.031-0.011l0.032-0.01l0.032-0.01l0.032-0.009l0.033-0.008l0.033-0.008
			l0.033-0.007l0.034-0.006l0.034-0.006l0.034-0.005l0.035-0.004l0.035-0.004l0.035-0.003l0.036-0.003
			c0.518-0.028,1.029,0.12,1.51,0.299c1.05,0.406,2.038,1.011,2.994,1.6c1.622,0.993,3.379,2.274,5.155,2.956
			c0.392,0.14,0.805,0.253,1.225,0.248l0.035-0.001l0.035-0.001l0.034-0.002l0.034-0.003l0.034-0.003l0.033-0.004l0.033-0.005
			l0.033-0.005l0.032-0.006l0.032-0.007l0.032-0.007c0.835-0.211,1.264-1.061,1.607-1.779l0.424-0.948
			c0.169-0.348,0.361-0.783,0.691-1.003l0.011-0.007l0.011-0.006l0.011-0.006l0.011-0.006l0.011-0.006l0.011-0.006l0.011-0.005
			l0.011-0.005l0.011-0.005l0.011-0.005l0.011-0.004l0.012-0.004l0.012-0.004l0.012-0.004l0.013-0.004l0.013-0.003l0.013-0.003
			l0.013-0.003l0.013-0.002l0.013-0.002l0.014-0.002l0.014-0.001l0.014-0.001l0.014-0.001l0.014-0.001l0.014,0l0.014,0l0.014,0
			l0.014,0.001l0.014,0.001l0.014,0.001l0.014,0.001l0.015,0.002c0.431,0.068,0.834,0.387,1.18,0.639l0.993,0.775
			c0.83,0.619,1.811,1.298,2.9,1.131c0.591-0.1,1.114-0.43,1.575-0.798c1.548-1.271,2.953-3.412,4.185-4.993
			c0.55-0.705,1.125-1.435,1.796-2.028c0.286-0.248,0.598-0.481,0.955-0.616l0.03-0.011l0.03-0.01l0.03-0.01l0.029-0.009
			l0.029-0.008l0.029-0.008l0.029-0.007l0.029-0.006l0.029-0.006l0.029-0.005l0.029-0.004c0.785-0.1,1.435,0.509,1.96,1.013
			l0.71,0.714c0.344,0.327,0.759,0.737,1.247,0.808l0.019,0.002l0.019,0.002l0.019,0.001l0.019,0.001l0.019,0.001l0.019,0l0.019,0
			l0.019-0.001l0.019-0.001l0.019-0.002l0.019-0.002l0.019-0.002l0.019-0.003l0.019-0.003l0.019-0.004l0.019-0.004l0.019-0.004
			l0.019-0.005l0.019-0.005l0.019-0.006l0.019-0.006l0.019-0.006c0.203-0.068,0.384-0.189,0.548-0.324
			c0.253-0.211,0.473-0.465,0.675-0.724c1.505-2.026,2.574-4.559,4.231-6.477c2.077-2.452,5.166-3.948,7.226-6.418
			c1.806-2.137,2.944-4.762,3.825-7.394c0.807-2.469,1.359-5.037,1.676-7.615c0.291-2.41,0.384-4.868,0.169-7.289"/>
	</g>
</g>
<g id="_x32_D_x24_AG-OUTLINE">
	<g id="POLYLINE_00000026161105413722588010000011037553759707749531_">
		
			<path fill="none" stroke="#FB8604" stroke-width="3.5" stroke-linecap="round" stroke-linejoin="round" stroke-miterlimit="10" d="
			M655.807,276.562c1.469-0.77,2.626-2.027,3.521-3.405c1.427-2.219,2.292-4.762,2.93-7.308c0.382-1.562,0.687-3.171,0.746-4.781
			c0.038-1.133-0.046-2.289-0.394-3.373c-0.262-0.826-0.701-1.598-1.294-2.232c-0.807-0.871-1.842-1.502-2.916-1.99
			c-1.201-2.441-2.744-4.755-4.744-6.615c-1.484-1.385-3.229-2.485-5.035-3.399c-6.561-3.218-15.142-5.404-21.827-8.347
			c-1.225-0.539-2.476-1.123-3.602-1.849c-0.65-0.423-1.277-0.904-1.788-1.49c-0.491-0.559-0.865-1.239-0.981-1.98
			c-0.13-0.823,0.039-1.662,0.224-2.464c0.267-1.162,0.737-2.508,0.632-3.707c-0.04-0.423-0.173-0.842-0.423-1.189
			c-0.667-0.909-1.843-1.444-2.788-2.013c-0.3-0.18-0.608-0.368-0.867-0.604c-0.122-0.113-0.237-0.241-0.306-0.394l-0.005-0.012
			l-0.005-0.012l-0.005-0.012l-0.005-0.012l-0.004-0.012l-0.004-0.012l-0.004-0.012l-0.004-0.012l-0.003-0.012l-0.003-0.013
			l-0.003-0.013l-0.002-0.013l-0.002-0.013l-0.002-0.013l-0.002-0.013l-0.001-0.013l-0.001-0.013l-0.001-0.013l0-0.013l0-0.011
			l0-0.011l0-0.011l0-0.011l0.001-0.011l0.001-0.011c0.014-0.165,0.088-0.318,0.176-0.456c0.195-0.3,0.46-0.553,0.719-0.797
			l0.751-0.681c0.206-0.193,0.416-0.396,0.583-0.625c0.082-0.114,0.156-0.237,0.191-0.374l0.003-0.011l0.003-0.011l0.002-0.011
			l0.002-0.011l0.002-0.011l0.002-0.011l0.001-0.011l0.001-0.011l0.001-0.011l0.001-0.011l0-0.011l0-0.011l0-0.011l0-0.011l0-0.011
			l-0.001-0.011l-0.001-0.011l-0.001-0.011l-0.001-0.011l-0.001-0.011l-0.002-0.011l-0.002-0.011l-0.002-0.011l-0.002-0.011
			l-0.003-0.011l-0.003-0.01l-0.003-0.01l-0.003-0.01l-0.003-0.01l-0.004-0.01l-0.004-0.01l-0.004-0.01l-0.004-0.01l-0.004-0.01
			c-0.065-0.147-0.18-0.266-0.305-0.365c-0.235-0.183-0.51-0.311-0.784-0.423c-0.56-0.223-1.161-0.378-1.747-0.514
			c-2.094-0.487-6.536-1.069-8.71-1.412c-2.228-0.358-4.549-0.813-6.729-1.392c-2.257-0.589-4.623-1.411-6.814-2.223
			c-7.913-3.037-17.707-7.271-25.947-8.961c-6.834-1.446-13.954-1.817-20.862-0.683c-4.611,0.762-9.149,2.234-13.206,4.573
			c-7.237,4.195-12.745,10.761-17.579,17.468c-2.137,3.013-6.542,9.494-8.763,12.268c-1.601,2.042-3.429,4.101-5.236,5.963
			c-2.55,2.639-7.071,7.041-9.301,9.854c-0.807,1.008-1.589,2.071-2.215,3.202c-0.78,1.393-1.282,2.951-1.384,4.548
			c-0.069,0.962-0.013,1.944,0.098,2.901c0.495,3.796,1.74,8.395,2.271,12.183c0.361,2.428,0.586,4.921,0.468,7.375
			c-0.066,1.349-0.24,2.72-0.561,4.033c-0.338,1.388-0.843,2.758-1.398,4.073c-3.233,2.038-7.652,5.025-11.054,6.646
			c-3.138,1.542-6.514,2.69-9.912,3.501c-4.07,0.975-8.4,1.625-12.554,2.15c-16.016,1.972-36.868,2.528-52.944,4.139
			c-9.562,1.024-27.43,3.337-36.729,3.593c-9.215,0.383-19.769,0.187-29.033-0.095c-19.004-0.562-44.157-2.881-62.854-0.405
			c-6.256,0.815-12.515,2.182-18.449,4.344c-12.822,4.658-24.237,12.631-34.187,21.863c-3.227,2.998-6.551,6.392-9.511,9.653
			c-3.235,3.469-13.484,15.769-16.695,19.514c-5.891,6.799-12.264,13.392-19.398,18.892c-6.58,5.107-13.749,9.594-21.075,13.546
			c-8.486,4.557-17.557,8.603-26.648,11.794c-6.714,2.36-13.757,4.175-20.76,5.443c-11.611,2.248-32.098,3.894-43.715,6.209
			c-0.737,0.164-1.541,0.359-2.261,0.594c-0.389,0.13-0.798,0.277-1.155,0.485l-0.038,0.023l-0.037,0.023l-0.035,0.023l-0.034,0.023
			l-0.032,0.023l-0.031,0.023l-0.029,0.023l-0.027,0.023l-0.026,0.023l-0.024,0.023l-0.022,0.023l-0.021,0.023l-0.019,0.023
			l-0.017,0.023l-0.016,0.023l-0.014,0.023l-0.012,0.023l-0.011,0.023l-0.009,0.023l-0.007,0.023l-0.005,0.024l-0.004,0.024
			l-0.002,0.024l0,0.024l0.002,0.024l0.003,0.024l0.005,0.024l0.007,0.024l0.009,0.024l0.011,0.024l0.012,0.024l0.014,0.024
			l0.016,0.024l0.01,0.014l0.011,0.014l0.012,0.014l0.012,0.014l0.013,0.014l0.013,0.014l0.014,0.014l0.015,0.014l0.015,0.014
			l0.016,0.014c0.213,0.18,0.469,0.305,0.719,0.423c1.919,0.829,4.164,1.417,6.033,2.359c0.655,0.33,1.304,0.704,1.848,1.2
			c0.326,0.3,0.617,0.656,0.775,1.074l0.012,0.033c0.158,0.441,0.145,0.924,0.048,1.377c-0.175,0.801-0.564,1.543-0.958,2.254
			c-0.474,0.854-1.197,1.93-1.507,2.851c-0.065,0.206-0.114,0.422-0.108,0.64l0.001,0.021l0.001,0.021l0.002,0.021l0.002,0.021
			l0.002,0.021l0.003,0.021l0.003,0.02l0.003,0.02l0.004,0.02l0.004,0.02l0.005,0.02l0.005,0.02l0.006,0.019l0.006,0.019
			l0.006,0.019l0.007,0.019l0.007,0.019l0.008,0.018l0.008,0.018l0.009,0.018l0.009,0.018l0.009,0.018l0.01,0.017l0.016,0.026
			l0.017,0.026l0.018,0.025l0.019,0.025l0.02,0.024l0.021,0.024l0.022,0.024l0.023,0.023l0.024,0.023l0.025,0.022l0.026,0.022
			l0.027,0.022l0.028,0.021l0.029,0.021l0.03,0.02l0.031,0.02l0.032,0.02l0.033,0.019l0.034,0.019l0.035,0.018l0.035,0.018
			l0.036,0.018c0.389,0.181,0.816,0.272,1.237,0.343c1.827,0.297,5.798,0.238,7.689,0.308c2.004,0.083,4.061,0.21,5.993,0.783
			c1.006,0.309,2.012,0.76,2.743,1.539c0.549,0.583,0.907,1.323,1.127,2.088c0.343,1.201,0.395,2.473,0.397,3.715l-0.038,2.586
			c0.002,0.65,0.012,1.326,0.133,1.965c0.062,0.315,0.153,0.63,0.318,0.907l0.016,0.026l0.016,0.026l0.017,0.025l0.017,0.025
			l0.017,0.024l0.018,0.024l0.018,0.023l0.019,0.023l0.019,0.022l0.019,0.022l0.02,0.021l0.02,0.021l0.021,0.02l0.021,0.02
			l0.021,0.019l0.022,0.019l0.023,0.019l0.024,0.019l0.024,0.018l0.025,0.018l0.025,0.017l0.025,0.017l0.026,0.016l0.026,0.015
			l0.027,0.015l0.027,0.014l0.028,0.014l0.028,0.013l0.028,0.013l0.029,0.012l0.029,0.012l0.03,0.011l0.03,0.011l0.03,0.01
			l0.031,0.01c0.288,0.089,0.594,0.109,0.894,0.102c0.55-0.016,1.106-0.123,1.642-0.245c2.481-0.588,5.094-1.653,7.655-1.806
			c0.711-0.04,1.437-0.005,2.128,0.178c0.497,0.131,0.971,0.348,1.404,0.623c1.799,1.155,3.023,3.229,4.232,4.946
			c0.442,0.624,0.902,1.261,1.448,1.799c0.397,0.388,0.857,0.74,1.398,0.893c0.406,0.118,0.842,0.093,1.248-0.01
			c1.197-0.325,2.234-1.116,3.224-1.836c1.33-0.995,2.912-2.305,4.38-3.065c0.575-0.297,1.187-0.547,1.827-0.658
			c1.75-0.329,3.334,0.768,4.631,1.811c1.405,1.138,2.859,2.587,4.4,3.539c0.72,0.443,1.507,0.805,2.345,0.945
			c1.986,0.342,3.873-0.785,5.443-1.876c2.249-1.593,4.48-3.808,6.562-5.616c0.798-0.694,1.658-1.408,2.545-1.986
			c0.59-0.375,1.221-0.729,1.916-0.856l0.047-0.008l0.046-0.007l0.046-0.006l0.046-0.005l0.045-0.004l0.045-0.003l0.045-0.002
			l0.044-0.001l0.044,0l0.044,0.001l0.044,0.002l0.043,0.003l0.043,0.004l0.043,0.005l0.042,0.006l0.042,0.007l0.042,0.008
			c0.345,0.07,0.658,0.253,0.923,0.48c0.479,0.412,0.837,0.949,1.168,1.482l0.613,1.027c0.202,0.316,0.423,0.703,0.739,0.913
			l0.011,0.007l0.011,0.006l0.011,0.006l0.011,0.006l0.011,0.006l0.011,0.005l0.011,0.005l0.011,0.005l0.011,0.004l0.011,0.004
			l0.011,0.004l0.011,0.003l0.011,0.003l0.011,0.003l0.011,0.003l0.011,0.002l0.011,0.002l0.011,0.002l0.011,0.001l0.011,0.001
			l0.011,0.001l0.011,0l0.011,0l0.014,0l0.014-0.001l0.014-0.001l0.014-0.002l0.014-0.002l0.014-0.003l0.014-0.003l0.014-0.004
			l0.014-0.004l0.014-0.005l0.014-0.005l0.014-0.006l0.014-0.006l0.014-0.007l0.014-0.007l0.014-0.008l0.014-0.008l0.014-0.008
			l0.014-0.009l0.014-0.009l0.014-0.01l0.014-0.01l0.014-0.011l0.014-0.011c0.2-0.164,0.349-0.382,0.488-0.597
			c0.886-1.467,1.555-3.322,2.574-4.707c0.397-0.537,0.867-1.064,1.493-1.332c0.58-0.248,1.234-0.228,1.844-0.117
			c1.186,0.221,2.422,0.756,3.609,0.976c0.848,0.165,1.75,0.18,2.567-0.131c0.802-0.299,1.466-0.876,2.045-1.493
			c2.888-3.222,4.623-8.03,6.841-11.707c0.286-0.448,0.583-0.908,0.984-1.262l0.026-0.022l0.026-0.021l0.026-0.02l0.026-0.019
			l0.026-0.018l0.026-0.017l0.026-0.016l0.025-0.015l0.025-0.014l0.025-0.013l0.025-0.012l0.025-0.011l0.025-0.01l0.025-0.009
			l0.024-0.008l0.024-0.007l0.024-0.006l0.024-0.005l0.024-0.004l0.024-0.003l0.023-0.002l0.023,0l0.011,0l0.011,0l0.011,0.001
			l0.011,0.001l0.011,0.001l0.011,0.001l0.011,0.002l0.011,0.002l0.011,0.002l0.011,0.002l0.011,0.003l0.011,0.003l0.011,0.003
			l0.011,0.003l0.011,0.004l0.011,0.004l0.011,0.004l0.011,0.004l0.011,0.004l0.01,0.005l0.01,0.005
			c0.326,0.168,0.544,0.538,0.738,0.838c0.36,0.57,0.705,1.282,1.241,1.706c0.183,0.141,0.405,0.241,0.639,0.245l0.035,0
			l0.035-0.001l0.035-0.002l0.036-0.003l0.036-0.005l0.036-0.006l0.037-0.007l0.037-0.008l0.037-0.009l0.038-0.01l0.038-0.012
			l0.038-0.013l0.039-0.014l0.039-0.015l0.039-0.016l0.04-0.017l0.04-0.018l0.04-0.019l0.041-0.02
			c0.447-0.234,0.835-0.573,1.2-0.919c0.964-0.938,1.822-2.051,2.64-3.118c2.079-2.722,4.503-6.433,6.967-8.757
			c0.487-0.437,1.011-0.86,1.62-1.115l0.047-0.019l0.047-0.018l0.046-0.017l0.046-0.015l0.046-0.014l0.046-0.013l0.045-0.012
			c1.37-0.355,2.407,0.921,3.281,1.771c0.332,0.312,0.711,0.689,1.173,0.778l0.019,0.003l0.019,0.003l0.019,0.002l0.019,0.002
			l0.019,0.001l0.019,0.001l0.019,0.001l0.019,0l0.019,0l0.019,0l0.019-0.001l0.019-0.001l0.019-0.002l0.019-0.002l0.019-0.002
			l0.019-0.003l0.019-0.003l0.019-0.003l0.019-0.004l0.019-0.004l0.019-0.005l0.019-0.005c0.359-0.101,0.651-0.355,0.906-0.618
			c0.27-0.283,0.51-0.606,0.731-0.929c0.705-1.027,1.739-2.983,2.368-4.083c0.807-1.426,1.757-2.805,2.821-4.05
			c1.48-1.757,3.481-3.592,5.091-5.238c-0.132,0.972-0.245,1.969-0.109,2.945c0.066,0.423,0.187,0.859,0.465,1.195
			c0.488,0.571,1.297,0.699,1.909,1.09c0.515,0.31,0.85,0.779,1.015,1.352c0.236,0.81,0.257,1.675,0.256,2.514
			c-0.111,4.979-1.492,11.005-1.445,15.989c0.024,1.086,0.096,2.199,0.458,3.231c0.213,0.601,0.543,1.159,0.953,1.646
			c0.601,0.732,1.432,1.34,2.002,2.098c0.263,0.351,0.467,0.749,0.58,1.173c0.141,0.525,0.154,1.079,0.126,1.619
			c-0.113,1.724-0.602,3.425-1.078,5.079c-0.629,2.068-1.802,5.554-2.195,7.645c-0.091,0.512-0.16,1.04-0.144,1.561
			c0.011,0.384,0.072,0.769,0.179,1.138c0.153,0.544,0.45,1.148,0.649,1.676c0.206,0.539,0.348,1.107,0.406,1.682
			c0.123,1.284-0.028,2.591-0.219,3.862c-0.439,2.746-1.221,5.49-2.1,8.126c-1.294,3.815-2.918,7.615-4.827,11.164
			c-1.227,2.269-2.609,4.5-4.192,6.539c-1.583,2.048-3.412,3.954-5.305,5.717c-2.786,2.606-6.323,5.379-8.798,8.29
			c-1.136,1.331-2.118,2.817-2.888,4.389c-1.42,2.879-2.274,6.024-2.919,9.158c-0.724,3.397-1.947,12.547-2.488,15.997
			c-3.062,18.597-7.379,40.561-11.39,58.971c-0.695,2.621-1.136,5.357-0.946,8.074c0.122,1.689,0.508,3.38,1.276,4.897
			c0.706,1.38,1.737,2.693,3.06,3.525c0.9,0.56,1.953,0.815,2.997,0.927c0.906,0.104,1.904,0.116,2.819,0.128
			c3.779-0.053,24.694,0.147,28.005-0.171c1.435-0.134,3-0.298,4.258-1.049c0.391-0.239,0.74-0.549,1.018-0.914
			c0.336-0.439,0.572-0.949,0.748-1.471c0.334-1.012,0.491-2.086,0.607-3.143c0.184-1.831,0.224-3.718,0.096-5.554
			c-0.078-1.015-0.218-2.045-0.574-3.004c-0.576-1.536-1.7-2.796-2.861-3.924c-0.623-0.592-1.293-1.149-1.994-1.647
			c-0.743-0.538-1.868-1.177-2.67-1.644c-0.979-0.564-1.972-1.195-2.66-2.109c-0.499-0.655-0.854-1.425-1.018-2.233
			c-0.179-0.924-0.104-1.881,0.012-2.808c0.105-0.816,0.294-1.782,0.456-2.59c1.359-6.05,3.668-18.072,4.867-24.273
			c1.079-5.254,2.42-10.557,4.416-15.54c0.556-1.35,1.118-2.893,1.903-4.119c0.631-1.006,1.447-1.893,2.32-2.694
			c0.988-0.906,2.118-1.772,3.194-2.574c3.087-2.349,26.785-18.294,30.106-20.763c1.983-1.486,6.219-5.224,8.143-6.834
			c2.123-1.774,5.092-4.168,7.267-5.887c1.646-1.475,3.707-3.155,5.138-4.827c1.984-2.242,4.347-5.708,6.264-8.014
			c0.544-0.647,1.113-1.313,1.759-1.86c0.224-0.184,0.462-0.364,0.734-0.471l0.021-0.008l0.021-0.007l0.02-0.007l0.02-0.006
			l0.02-0.006l0.02-0.005l0.02-0.005l0.019-0.004l0.019-0.004l0.019-0.003l0.019-0.002l0.018-0.002l0.018-0.001l0.018-0.001l0.018,0
			c0.374,0.001,0.61,0.368,0.841,0.614c0.16,0.177,0.345,0.349,0.578,0.419l0.02,0.006l0.02,0.005l0.02,0.005l0.021,0.004
			l0.021,0.004l0.021,0.004l0.021,0.003l0.021,0.003l0.022,0.002l0.022,0.002l0.022,0.001l0.022,0.001l0.023,0.001l0.023,0l0.023,0
			c0.436-0.013,0.847-0.2,1.227-0.402c0.798-0.443,1.509-1.042,2.177-1.66c3.578-3.404,6.121-7.763,8.134-12.235l2.612-5.878
			c0.549-1.157,1.11-2.36,1.881-3.388c0.257-0.331,0.544-0.653,0.906-0.87l0.027-0.016l0.027-0.015l0.027-0.015l0.027-0.014
			l0.027-0.013l0.027-0.013l0.028-0.012l0.028-0.011l0.028-0.011l0.028-0.01l0.028-0.009l0.028-0.008
			c0.43-0.129,0.88,0.011,1.282,0.17c0.489,0.185,1.029,0.49,1.566,0.378l0.021-0.005l0.021-0.005l0.021-0.006l0.021-0.006
			l0.021-0.007l0.021-0.007l0.021-0.008l0.021-0.008l0.021-0.009l0.021-0.009l0.021-0.01l0.021-0.01
			c0.489-0.253,0.82-0.721,1.122-1.167c0.854-1.339,1.791-3.416,2.548-4.823c0.933-1.767,1.985-3.509,3.247-5.062
			c1.671-2.059,3.655-3.871,5.75-5.49c2.649-2.036,5.551-3.825,8.535-5.326c1.729-0.859,3.549-1.672,5.388-2.264
			c1.055-0.334,2.159-0.583,3.271-0.556c2.041,0.043,3.926,1.005,5.711,1.907l4.198,2.215c1.395,0.705,2.852,1.413,4.347,1.872
			c0.784,0.236,1.602,0.413,2.424,0.389c1.118-0.015,2.266-0.484,3.305-0.865c0.629-0.224,1.287-0.412,1.958-0.42
			c1.014-0.011,1.994,0.348,2.899,0.778c1.688,0.823,3.245,1.967,4.745,3.089c4.051,3.113,9.159,7.337,13.533,9.879
			c0.951,0.546,1.941,1.072,2.975,1.439c0.515,0.178,1.053,0.324,1.601,0.337c0.581,0.023,1.197-0.163,1.755-0.31
			c0.396-0.101,0.807-0.166,1.216-0.135c0.996,0.087,1.926,0.52,2.811,0.958c4.588,2.431,9.541,6.568,14.095,9.055
			c0.967,0.522,1.973,1.022,3.034,1.323c0.743,0.199,1.6,0.343,2.301-0.057c0.539-0.311,0.898-0.889,1.268-1.371
			c0.258-0.333,0.55-0.691,0.972-0.811l0.019-0.005l0.019-0.005l0.019-0.004l0.019-0.004c0.412-0.079,0.83,0.051,1.209,0.206
			c0.371,0.156,0.732,0.36,1.075,0.57c1.041,0.638,2.925,2.07,3.938,2.794c3.185,2.302,6.873,4.027,10.784,4.589
			c0.768,0.103,1.555,0.155,2.329,0.109c0.832-0.04,1.855-0.277,2.676-0.438c0.552-0.104,1.118-0.175,1.68-0.154
			c0.544,0.018,1.087,0.125,1.611,0.266c2.834,0.822,5.871,2.488,8.709,3.298c4.181,1.246,8.614,1.466,12.953,1.421
			c-0.259,2.228-0.735,5.239-0.909,7.467c-0.071,0.953-0.121,1.937-0.052,2.89c0.049,0.609,0.134,1.234,0.394,1.792
			c0.148,0.314,0.362,0.596,0.626,0.822c0.548,0.474,1.324,0.729,1.97,1.04c0.591,0.277,1.152,0.649,1.562,1.164
			c0.344,0.424,0.582,0.926,0.766,1.437c0.265,0.743,0.433,1.53,0.563,2.307c0.675,4.345,0.508,9.921,0.615,14.344
			c0.048,2.009,0.106,4.123,0.391,6.113c0.149,0.933,0.319,1.897,0.773,2.736c0.184,0.328,0.436,0.619,0.746,0.834
			c0.394,0.286,0.965,0.454,1.421,0.617c0.402,0.144,0.804,0.358,1.038,0.729l0.016,0.026l0.016,0.026l0.016,0.027
			c0.237,0.421,0.323,0.91,0.38,1.384c0.231,2.409-0.333,6.141-0.515,8.576c-0.156,1.978-0.297,4.027-0.058,6
			c0.153,1.245,0.483,2.474,0.941,3.641c0.813,2.079,2.096,4.219,2.841,6.325c0.737,2.018,1.07,4.197,1.354,6.32
			c0.317,2.436,0.615,5.992,1.175,8.349c0.163,0.67,0.362,1.345,0.665,1.966c0.196,0.401,0.448,0.779,0.742,1.115
			c0.457,0.538,1.245,1.129,1.791,1.584c0.482,0.403,0.94,0.846,1.329,1.34c0.856,1.096,1.471,2.37,1.994,3.653
			c0.756,1.888,1.3,3.892,1.654,5.894c0.286,1.654,0.449,3.347,0.39,5.027c0.171,4.935,0.296,10.383,0.908,15.266
			c0.336,2.606,0.883,5.232,1.963,7.639c0.817,1.83,1.992,3.54,3.594,4.768c1.51,1.18,3.356,1.849,5.225,2.199
			c2.326,0.441,4.763,0.518,7.127,0.564c3.216,0.007,25.34,0.051,27.988-0.015c1.003-0.038,2.063-0.08,3.053-0.235
			c0.956-0.146,1.921-0.392,2.753-0.9c2.066-1.26,2.813-3.799,2.983-6.085c0.159-2.259-0.125-4.543-0.633-6.744
			c-0.563-2.433-1.509-4.834-3.155-6.744c-0.414-0.491-0.854-0.983-1.382-1.353c-0.531-0.378-1.14-0.64-1.759-0.836
			c-2.421-0.713-5.647-0.944-8.103-1.523c-1.284-0.288-2.578-0.658-3.731-1.306c-0.835-0.466-1.586-1.091-2.18-1.84
			c-0.695-0.87-1.191-1.887-1.578-2.927c-0.97-2.675-1.341-5.556-1.652-8.371c-0.9-9.389-0.909-19.448-0.857-28.88
			c0.157-6.749,0.348-13.751,1.92-20.34c0.486-3.529,2.386-14.304,2.998-17.797c0.366-1.903,0.769-3.939,1.327-5.791
			c0.174-0.563,0.369-1.141,0.621-1.674c0.131-0.27,0.276-0.541,0.475-0.768l0.019-0.021l0.019-0.021l0.019-0.02l0.019-0.019
			l0.019-0.018l0.019-0.017l0.019-0.017l0.019-0.016l0.019-0.015l0.019-0.014l0.02-0.013l0.02-0.013l0.02-0.012l0.02-0.011
			l0.02-0.01l0.02-0.009l0.02-0.008l0.02-0.008l0.02-0.007l0.02-0.006l0.02-0.005c0.127-0.031,0.26-0.004,0.378,0.046
			c0.26,0.11,0.532,0.355,0.757,0.525c0.171,0.125,0.355,0.262,0.572,0.282l0.019,0.001l0.019,0l0.019,0l0.019-0.001l0.019-0.002
			l0.019-0.003l0.018-0.003l0.018-0.004l0.018-0.005l0.018-0.005l0.018-0.006l0.018-0.007l0.018-0.008l0.018-0.008l0.018-0.009
			l0.018-0.01l0.018-0.01l0.018-0.011l0.018-0.012l0.018-0.012l0.018-0.013l0.018-0.014l0.018-0.015l0.018-0.015l0.018-0.016
			l0.018-0.017l0.018-0.017l0.018-0.018l0.018-0.019l0.018-0.019c0.299-0.344,0.482-0.773,0.654-1.191
			c0.298-0.751,0.536-1.586,0.749-2.366c0.507-1.883,2.115-8.964,2.612-10.813c0.897-3.448,2.011-7.065,3.246-10.405
			c0.915-2.454,1.934-4.952,3.164-7.266c0.509-0.941,1.063-1.889,1.738-2.722c0.326-0.393,0.684-0.78,1.129-1.04l0.032-0.018
			l0.032-0.017l0.032-0.016l0.032-0.015l0.032-0.014l0.031-0.014l0.031-0.013l0.031-0.012l0.031-0.011l0.031-0.01l0.031-0.009
			l0.031-0.008l0.03-0.008l0.03-0.007l0.03-0.006l0.03-0.005l0.03-0.004c0.599-0.066,1.082,0.389,1.6,0.611
			c0.21,0.092,0.446,0.147,0.675,0.101l0.026-0.006l0.026-0.006l0.026-0.007l0.026-0.008l0.026-0.009l0.026-0.01l0.027-0.01
			l0.027-0.011l0.027-0.012l0.027-0.013l0.027-0.013l0.027-0.014l0.027-0.015l0.027-0.016l0.027-0.016l0.027-0.017
			c0.34-0.22,0.615-0.529,0.869-0.841c0.869-1.113,1.541-2.407,2.201-3.652l3.849-7.664c1.008-1.928,2.123-3.89,3.364-5.68
			c1.35-1.961,2.923-3.858,4.526-5.617l4.868-5.189c1.153-1.262,2.28-2.615,3.278-4.002c1.316-1.794,3.13-4.695,4.568-6.37
			c0.469-0.537,0.976-1.062,1.581-1.446c0.361-0.229,0.766-0.387,1.175-0.509c0.471-0.14,1.064-0.28,1.498-0.505
			c0.263-0.133,0.507-0.305,0.719-0.51c0.411-0.401,0.715-0.901,0.983-1.405c0.676-1.299,1.16-2.773,1.618-4.164l1.777-5.727
			c0.607-1.873,1.285-3.81,2.129-5.587c1.011-2.187,2.801-5.047,4.037-7.145c1.067-1.843,2.031-3.782,2.617-5.836
			c0.905-3.197,1.013-6.596,1.049-9.9l-0.066-8.695c0.006-3.249,0.26-6.552,1.001-9.719c0.896-4.261,3.632-10.777,5.167-14.915
			c1.028-2.794,2.081-5.715,2.722-8.623c0.613-2.714,0.754-6.041,1.072-8.808c0.633-5.361,1.806-11.311,2.859-16.617
			c0.609,0.705,1.279,1.575,1.84,2.324c1.409,1.865,3.647,5.28,5.279,6.896c0.271,0.255,0.56,0.509,0.904,0.661l0.022,0.009
			l0.022,0.009l0.022,0.008l0.022,0.008l0.022,0.007l0.021,0.007l0.021,0.006l0.021,0.005l0.021,0.005l0.021,0.004l0.021,0.004
			l0.02,0.003l0.02,0.003l0.02,0.002l0.02,0.001l0.02,0.001l0.02,0l0.019,0l0.019-0.001l0.019-0.001l0.015-0.002l0.015-0.002
			l0.015-0.002l0.015-0.003l0.015-0.003l0.015-0.004l0.014-0.004l0.014-0.004l0.014-0.005l0.014-0.005l0.014-0.005l0.014-0.006
			l0.014-0.006l0.014-0.006l0.014-0.007l0.013-0.007l0.013-0.007l0.013-0.008l0.013-0.008l0.013-0.008l0.013-0.009l0.013-0.009
			l0.013-0.009l0.013-0.01l0.013-0.01l0.013-0.01l0.012-0.011c0.126-0.111,0.223-0.252,0.306-0.397
			c0.345-0.62,0.6-1.578,0.835-2.251c0.212-0.602,0.441-1.219,0.824-1.736c0.201-0.268,0.458-0.506,0.774-0.63l0.031-0.012
			l0.031-0.011l0.032-0.01l0.032-0.01l0.032-0.009l0.033-0.008l0.033-0.008l0.033-0.007l0.034-0.006l0.034-0.006l0.034-0.005
			l0.035-0.004l0.035-0.004l0.035-0.003l0.036-0.003c0.518-0.028,1.029,0.12,1.51,0.299c1.05,0.406,2.038,1.011,2.994,1.6
			c1.622,0.993,3.379,2.274,5.155,2.956c0.392,0.14,0.805,0.253,1.225,0.248l0.035-0.001l0.035-0.001l0.034-0.002l0.034-0.003
			l0.034-0.003l0.033-0.004l0.033-0.005l0.033-0.005l0.032-0.006l0.032-0.007l0.032-0.007c0.835-0.211,1.264-1.061,1.607-1.779
			l0.424-0.948c0.169-0.348,0.361-0.783,0.691-1.003l0.011-0.007l0.011-0.006l0.011-0.006l0.011-0.006l0.011-0.006l0.011-0.006
			l0.011-0.005l0.011-0.005l0.011-0.005l0.011-0.005l0.011-0.004l0.012-0.004l0.012-0.004l0.012-0.004l0.013-0.004l0.013-0.003
			l0.013-0.003l0.013-0.003l0.013-0.002l0.013-0.002l0.014-0.002l0.014-0.001l0.014-0.001l0.014-0.001l0.014-0.001l0.014,0l0.014,0
			l0.014,0l0.014,0.001l0.014,0.001l0.014,0.001l0.014,0.001l0.015,0.002c0.431,0.068,0.834,0.387,1.18,0.639l0.993,0.775
			c0.83,0.619,1.811,1.298,2.9,1.131c0.591-0.1,1.114-0.43,1.575-0.798c1.548-1.271,2.953-3.412,4.185-4.993
			c0.55-0.705,1.125-1.435,1.796-2.028c0.286-0.248,0.598-0.481,0.955-0.616l0.03-0.011l0.03-0.01l0.03-0.01l0.029-0.009
			l0.029-0.008l0.029-0.008l0.029-0.007l0.029-0.006l0.029-0.006l0.029-0.005l0.029-0.004c0.785-0.1,1.435,0.509,1.96,1.013
			l0.71,0.714c0.344,0.327,0.759,0.737,1.247,0.808l0.019,0.002l0.019,0.002l0.019,0.001l0.019,0.001l0.019,0.001l0.019,0l0.019,0
			l0.019-0.001l0.019-0.001l0.019-0.002l0.019-0.002l0.019-0.002l0.019-0.003l0.019-0.003l0.019-0.004l0.019-0.004l0.019-0.004
			l0.019-0.005l0.019-0.005l0.019-0.006l0.019-0.006l0.019-0.006c0.203-0.068,0.384-0.189,0.548-0.324
			c0.253-0.211,0.473-0.465,0.675-0.724c1.505-2.026,2.574-4.559,4.231-6.477c2.077-2.452,5.166-3.948,7.226-6.418
			c1.806-2.137,2.944-4.762,3.825-7.394c0.807-2.469,1.359-5.037,1.676-7.615C655.93,281.441,656.022,278.983,655.807,276.562z"/>
	</g>
</g>
</svg>
