<?xml version="1.0" encoding="utf-8"?>
<!-- Generator: Adobe Illustrator 25.4.1, SVG Export Plug-In . SVG Version: 6.00 Build 0)  -->
<!DOCTYPE svg PUBLIC "-//W3C//DTD SVG 1.1//EN" "http://www.w3.org/Graphics/SVG/1.1/DTD/svg11.dtd" [
	<!ENTITY ns_extend "http://ns.adobe.com/Extensibility/1.0/">
	<!ENTITY ns_ai "http://ns.adobe.com/AdobeIllustrator/10.0/">
	<!ENTITY ns_graphs "http://ns.adobe.com/Graphs/1.0/">
	<!ENTITY ns_vars "http://ns.adobe.com/Variables/1.0/">
	<!ENTITY ns_imrep "http://ns.adobe.com/ImageReplacement/1.0/">
	<!ENTITY ns_sfw "http://ns.adobe.com/SaveForWeb/1.0/">
	<!ENTITY ns_custom "http://ns.adobe.com/GenericCustomNamespace/1.0/">
	<!ENTITY ns_adobe_xpath "http://ns.adobe.com/XPath/1.0/">
]>
<svg version="1.1" xmlns:x="&ns_extend;" xmlns:i="&ns_ai;" xmlns:graph="&ns_graphs;"
	 xmlns="http://www.w3.org/2000/svg" xmlns:xlink="http://www.w3.org/1999/xlink" x="0px" y="0px" width="750px" height="750px"
	 viewBox="0 0 750 750" enable-background="new 0 0 750 750" xml:space="preserve">
<metadata>
	<sfw  xmlns="&ns_sfw;">
		<slices></slices>
		<sliceSourceBounds  bottomLeftOrigin="true" height="10393.047" width="5400" x="-2000" y="-1314"></sliceSourceBounds>
	</sfw>
</metadata>
<g id="FILL-BACKGROUND">
	<rect fill="#FFFFFF" width="750" height="750"/>
</g>
<g id="N-DIMENSIONS">
</g>
<g id="N-TEXT">
</g>
<g id="_x32_D_x24_AG-DIAGRAM">
	<g id="POLYLINE_00000033354285612319620830000015930573307601693319_">
		<g>
			<g>
				
					<line fill="none" stroke="#FB8604" stroke-width="3.25" stroke-linecap="round" stroke-linejoin="round" x1="119.644" y1="605.515" x2="121.644" y2="605.515"/>
				
					<line fill="none" stroke="#FB8604" stroke-width="3.25" stroke-linecap="round" stroke-linejoin="round" stroke-dasharray="3.9519,6.9158" x1="128.56" y1="605.515" x2="527.208" y2="605.515"/>
				
					<line fill="none" stroke="#FB8604" stroke-width="3.25" stroke-linecap="round" stroke-linejoin="round" x1="530.666" y1="605.515" x2="532.666" y2="605.515"/>
			</g>
		</g>
	</g>
</g>
<g id="_x32_D_x24_AG-DETAILS-DIAGRAM">
</g>
<g id="_x32_D_x24_AG-DETAILS">
</g>
<g id="_x32_D_x24_AG-ANIMALS">
	<g id="POLYLINE_00000165230479571246701640000006595870441282120616_">
		
			<path fill="none" stroke="#FB8604" stroke-width="2.75" stroke-linecap="round" stroke-linejoin="round" stroke-miterlimit="10" d="
			M179.475,417.685c0.534-1.699,0.974-3.513,0.694-5.3c-0.086-0.534-0.249-1.06-0.471-1.554c-0.146-0.32-0.324-0.662-0.503-0.967
			c-1.069-1.831-2.321-3.99-3.301-5.861c-2.806-5.291-5.348-10.883-7.407-16.508c-0.713-2.003-1.48-4.084-1.79-6.189
			c-0.523-3.278-0.396-6.675-0.182-9.978c0.506-6.87,1.479-14.084,2.612-20.88c0.658-3.744,1.399-7.637,2.636-11.234
			c1.275-3.702,3.059-7.278,5.016-10.664c2.538-4.338,5.453-8.54,8.726-12.355c1.344-1.51,2.829-3.217,4.522-4.327
			c0.322-0.196,0.674-0.357,1.049-0.417c0.35-0.058,0.71-0.024,1.056,0.045c0.952,0.21,1.894,0.522,2.762,0.968
			c0.872,0.451,1.667,1.066,2.283,1.833c0.628,0.78,1.062,1.7,1.403,2.636c0.606,1.681,0.949,3.481,1.239,5.241
			c0.612,3.846,0.992,7.99,1.231,11.881c0.173,3.437,0.324,9.748,0.581,13.144c0.454,6.3,1.201,12.923,2.215,19.158
			c0.617,3.598,1.305,7.312,2.484,10.772c0.528,1.53,1.24,3.009,2.127,4.363c1.312,1.973,2.84,3.915,4.36,5.731"/>
	</g>
	<g id="POLYLINE_00000054263828770125024860000001921861407326520965_">
		
			<path fill="none" stroke="#FB8604" stroke-width="2.75" stroke-linecap="round" stroke-linejoin="round" stroke-miterlimit="10" d="
			M247.572,550.995c-1.33,4.227-11.773,43.916-13.49,47.034c-0.697,1.549-1.543,3.079-2.791,4.254
			c-1.753,1.684-4.173,2.433-6.537,2.743c-3.272,0.44-6.894,0.421-10.201,0.472c-3.799-0.191-55.435,0.307-58.037-0.202
			c-1.841-0.171-3.744-0.465-5.358-1.421c-1.93-1.149-3.127-3.154-4.095-5.12c-2.096-4.372-3.337-9.286-4.631-13.948
			c-1.305-4.847-2.695-10.022-3.255-14.993c-0.444-3.886-0.497-7.847-0.048-11.734c0.307-2.583,0.844-5.173,1.748-7.616
			c1.061-2.882,2.611-5.593,4.337-8.126c1.34-1.979,3.082-4.186,4.336-6.215c1.162-1.891,2.164-3.999,3.07-6.027
			c2.518-5.748,5.333-12.937,7.531-18.84c1.984-5.399,4.055-11.159,5.486-16.717c0.914-3.578,1.469-7.289,1.74-10.972
			c0.615-8.978,0.474-19.885,1.394-28.814c1.259-13.855,5.043-27.775,12.26-39.745c3.384-5.62,8.014-10.325,13.152-14.361
			c5.436-4.415,12.576-9.177,18.338-13.221c6.13-4.034,13.879-9.437,20.165-13.176c3.636-2.184,7.512-4.099,11.604-5.258
			c5.14-1.479,10.524-2.322,15.843-2.828c3.656-0.315,7.407-0.487,11.047,0.077c3.919,0.609,8.169,1.857,12.016,2.858
			c12.728,3.423,26.73,8.083,39.924,8.787c5.922,0.323,11.896-0.236,17.708-1.383c5.777-1.146,11.551-2.829,16.973-5.136
			c8.31-3.474,15.62-9,22.059-15.235c5.33-5.189,10.346-10.902,14.227-17.269c3.343-5.435,6.095-12.307,8.836-18.004
			c4.475-9.337,12.766-22.92,17.894-31.866c2.217-4.038,6.111-10.759,8.025-14.852c1.006-2.086,2.103-5.251,2.93-7.443l0.444-1.131"
			/>
	</g>
	<g id="POLYLINE_00000003810922760767426730000000849538409188593295_">
		
			<path fill="none" stroke="#FB8604" stroke-width="2.75" stroke-linecap="round" stroke-linejoin="round" stroke-miterlimit="10" d="
			M237.388,476.87c0.248,6.469,0.961,13.486,0.675,19.95c-0.587,14.225-3.365,30.859-4.22,45.068
			c-0.138,2.612-0.269,5.381-0.065,7.988c0.077,0.855,0.179,1.733,0.453,2.55l0.027,0.077l0.028,0.075l0.029,0.072l0.03,0.07
			l0.03,0.067l0.031,0.065l0.032,0.062l0.033,0.06l0.033,0.057l0.034,0.055l0.035,0.052l0.036,0.049l0.037,0.047l0.037,0.044
			l0.038,0.041l0.039,0.039l0.04,0.036l0.041,0.033l0.041,0.031l0.042,0.028l0.043,0.025l0.044,0.022l0.045,0.019l0.045,0.017
			l0.046,0.014l0.047,0.011l0.022,0.004l0.022,0.003l0.022,0.003l0.022,0.002l0.022,0.002l0.023,0.001l0.023,0.001h0.023
			l0.023-0.001l0.023-0.001l0.023-0.002l0.024-0.002l0.024-0.003l0.024-0.003l0.024-0.004l0.024-0.004l0.024-0.005l0.025-0.005
			l0.025-0.006c0.349-0.089,0.663-0.283,0.958-0.484c1.472-1.064,2.867-2.595,4.398-3.579c0.974-0.635,2.152-1.177,3.337-0.918
			l0.052,0.012l0.052,0.013l0.052,0.014c0.61,0.169,1.157,0.516,1.646,0.911c0.833,0.683,1.533,1.527,2.18,2.383
			c1.785,2.341,3.471,5.646,5.329,7.931c0.325,0.378,0.676,0.752,1.102,1.017l0.035,0.021l0.035,0.02l0.035,0.019l0.035,0.018
			l0.035,0.017l0.034,0.016l0.034,0.015l0.034,0.014l0.034,0.013l0.034,0.012l0.034,0.011l0.034,0.01l0.034,0.009l0.034,0.008
			l0.033,0.007l0.033,0.006l0.033,0.005l0.033,0.004l0.033,0.003l0.033,0.002l0.033,0.001h0.033l0.033-0.001l0.032-0.002
			l0.028-0.003l0.028-0.004l0.028-0.005l0.028-0.005l0.028-0.006l0.028-0.007l0.028-0.008l0.028-0.009l0.028-0.009l0.028-0.01
			l0.027-0.011l0.027-0.012l0.027-0.013l0.027-0.013l0.027-0.014l0.027-0.015l0.027-0.016l0.027-0.016l0.027-0.017l0.027-0.018
			l0.027-0.018l0.027-0.019l0.027-0.02c0.232-0.177,0.425-0.403,0.599-0.636c0.8-1.087,1.741-3.299,2.362-4.517
			c0.663-1.289,1.376-2.611,2.449-3.607c0.578-0.532,1.307-0.939,2.103-0.994l0.081-0.005l0.081-0.003l0.082-0.001l0.083,0.001
			l0.083,0.003l0.084,0.005l0.084,0.007l0.085,0.009l0.086,0.011l0.086,0.013l0.087,0.015l0.087,0.017l0.088,0.019l0.089,0.021
			l0.089,0.023c1.099,0.3,2.093,0.904,3.021,1.55c4.698,3.411,9.714,9.677,13.695,13.938c1.251,1.339,2.587,2.761,3.993,3.934
			c0.56,0.458,1.15,0.908,1.808,1.216l0.066,0.03l0.065,0.028l0.065,0.026l0.064,0.024l0.063,0.022l0.062,0.02l0.061,0.019
			l0.06,0.017l0.06,0.015l0.059,0.013l0.058,0.011l0.057,0.009l0.056,0.007l0.055,0.005l0.054,0.003l0.054,0.001l0.053-0.001
			l0.052-0.004l0.051-0.006l0.05-0.008l0.049-0.01l0.048-0.012l0.028-0.008l0.028-0.009l0.027-0.01l0.027-0.01l0.027-0.011
			l0.026-0.012l0.026-0.013l0.026-0.013l0.026-0.014l0.025-0.015l0.025-0.015l0.025-0.016l0.024-0.017l0.024-0.018l0.024-0.018
			l0.024-0.019l0.023-0.019l0.023-0.02l0.023-0.021l0.022-0.021l0.022-0.022l0.022-0.023l0.022-0.023l0.021-0.024l0.021-0.025
			l0.021-0.025c0.239-0.298,0.394-0.656,0.52-1.014c0.549-1.659,0.706-3.831,1.049-5.545c0.144-0.734,0.314-1.481,0.601-2.174
			c0.168-0.397,0.379-0.788,0.688-1.094l0.026-0.025l0.026-0.025l0.027-0.024l0.027-0.023l0.027-0.023l0.028-0.022l0.028-0.021
			l0.028-0.021l0.029-0.02l0.029-0.019l0.029-0.019l0.03-0.018l0.03-0.017l0.03-0.017l0.031-0.016l0.031-0.015l0.031-0.015
			l0.032-0.014l0.032-0.013l0.032-0.012l0.053-0.019l0.054-0.017l0.055-0.015l0.056-0.013l0.057-0.011l0.057-0.009l0.058-0.008
			l0.059-0.006l0.06-0.004l0.061-0.002l0.062,0l0.063,0.001l0.064,0.003l0.064,0.005l0.065,0.006l0.066,0.008l0.067,0.01
			l0.068,0.011l0.069,0.013l0.069,0.015l0.07,0.016l0.071,0.018c0.814,0.221,1.565,0.645,2.277,1.089
			c3.634,2.343,8.69,7.313,12.046,10.099c1.647,1.377,3.374,2.775,5.223,3.87c0.912,0.527,1.881,1.016,2.926,1.21l0.081,0.014
			l0.081,0.012l0.08,0.01l0.079,0.009l0.078,0.007l0.078,0.005l0.077,0.004l0.076,0.002l0.076,0l0.075-0.002l0.074-0.003
			l0.073-0.005l0.073-0.007l0.072-0.009l0.071-0.011l0.07-0.012l0.052-0.01l0.052-0.012l0.051-0.013l0.051-0.014l0.05-0.015
			l0.05-0.016l0.049-0.017l0.049-0.018l0.049-0.018l0.048-0.019l0.048-0.02l0.047-0.021l0.047-0.022l0.046-0.023l0.046-0.024
			l0.046-0.025l0.045-0.026l0.045-0.027l0.045-0.028l0.044-0.029l0.044-0.03c0.49-0.338,0.873-0.809,1.19-1.308
			c1.233-2.001,1.894-4.893,2.628-7.122c0.411-1.252,0.852-2.532,1.533-3.665c0.377-0.618,0.845-1.206,1.466-1.592l0.046-0.028
			l0.047-0.027l0.047-0.026l0.048-0.025l0.048-0.024l0.048-0.023l0.049-0.023l0.049-0.022l0.05-0.021l0.05-0.02l0.05-0.019
			l0.051-0.018l0.051-0.017l0.072-0.022l0.072-0.02l0.073-0.018l0.074-0.016l0.075-0.014l0.076-0.012l0.076-0.011l0.077-0.009
			l0.078-0.007l0.079-0.005l0.08-0.004l0.08-0.002l0.081,0l0.082,0.001l0.083,0.003l0.083,0.005l0.084,0.006l0.085,0.008
			c1.077,0.12,2.098,0.55,3.061,1.028c2.212,1.13,4.285,2.661,6.278,4.139c3.982,2.937,8.517,6.882,13.005,8.956
			c0.992,0.433,2.045,0.794,3.133,0.846l0.091,0.003l0.091,0.002l0.09,0l0.089-0.002l0.089-0.004l0.088-0.005l0.087-0.007
			l0.087-0.009l0.086-0.011l0.085-0.012l0.084-0.014l0.084-0.016l0.083-0.018l0.082-0.02l0.081-0.022l0.062-0.018l0.062-0.019
			l0.061-0.02l0.061-0.021l0.06-0.022l0.06-0.023l0.06-0.024c0.917-0.384,1.632-1.124,2.2-1.923c1.01-1.442,1.668-3.119,2.284-4.759
			c0.873-2.308,1.739-5.396,3.057-7.472c0.298-0.451,0.643-0.883,1.076-1.212l0.043-0.032l0.044-0.031l0.044-0.03l0.044-0.029
			l0.045-0.028l0.045-0.027l0.045-0.026l0.046-0.025l0.046-0.024l0.046-0.023l0.046-0.022l0.047-0.021l0.047-0.02l0.047-0.019
			l0.048-0.018l0.048-0.016l0.048-0.015l0.049-0.014l0.049-0.013l0.049-0.012l0.05-0.011l0.047-0.009l0.047-0.008l0.047-0.007
			l0.048-0.006l0.048-0.005l0.048-0.004l0.048-0.003l0.049-0.002l0.049-0.001l0.049,0l0.049,0.001l0.05,0.002l0.05,0.003
			c0.626,0.04,1.226,0.268,1.785,0.542c0.995,0.497,1.912,1.169,2.787,1.852c2.086,1.611,4.329,3.878,6.573,5.264
			c0.44,0.256,0.906,0.493,1.409,0.594l0.042,0.008l0.042,0.007l0.041,0.006l0.041,0.005l0.041,0.004l0.04,0.003l0.04,0.002
			l0.04,0.002l0.039,0.001l0.039,0l0.039-0.001l0.038-0.002l0.038-0.003l0.037-0.004l0.037-0.005l0.037-0.006l0.036-0.007
			l0.036-0.008l0.036-0.009l0.035-0.01l0.035-0.011l0.034-0.012l0.034-0.013l0.034-0.014l0.03-0.014l0.03-0.015l0.029-0.015
			l0.029-0.016l0.029-0.017l0.028-0.018l0.028-0.019l0.028-0.02l0.027-0.02l0.027-0.021l0.027-0.022l0.027-0.023l0.026-0.024
			l0.026-0.024l0.026-0.025l0.025-0.026l0.025-0.027l0.025-0.027l0.024-0.028l0.024-0.029l0.024-0.03
			c0.307-0.393,0.493-0.869,0.645-1.34c0.349-1.131,0.509-2.351,0.662-3.523c0.251-1.91,0.386-4.157,0.924-6.002
			c0.123-0.388,0.272-0.779,0.513-1.111l0.021-0.028l0.021-0.027l0.022-0.027l0.022-0.026l0.022-0.025l0.023-0.025l0.023-0.024
			l0.023-0.023l0.023-0.022l0.024-0.021l0.024-0.021l0.024-0.02l0.024-0.019l0.025-0.018l0.025-0.017l0.025-0.016l0.026-0.016
			l0.026-0.015l0.026-0.014l0.025-0.012l0.025-0.012l0.025-0.011l0.026-0.01l0.026-0.009l0.026-0.009l0.026-0.008l0.027-0.007
			l0.027-0.006l0.027-0.006l0.027-0.005l0.028-0.004l0.028-0.004l0.028-0.003l0.028-0.002l0.029-0.002l0.029-0.001l0.029,0l0.029,0
			l0.03,0.001l0.03,0.002l0.03,0.002l0.03,0.003l0.03,0.004l0.031,0.004l0.031,0.005l0.031,0.005
			c0.38,0.073,0.732,0.251,1.062,0.447c0.781,0.474,1.493,1.099,2.173,1.706c1.339,1.198,3.205,3.148,4.717,4.084
			c0.301,0.179,0.622,0.343,0.967,0.417c0.052,0.011,0.111,0.02,0.164,0.026l0.026,0.003l0.026,0.002l0.026,0.002l0.026,0.001
			l0.026,0.001l0.025,0l0.025,0l0.025-0.001l0.025-0.001l0.025-0.002l0.025-0.002l0.024-0.003l0.024-0.003l0.024-0.004l0.024-0.004
			l0.024-0.005l0.024-0.005l0.023-0.005l0.023-0.006l0.023-0.006l0.023-0.007l0.023-0.007l0.023-0.008l0.023-0.008l0.022-0.008
			l0.022-0.009l0.022-0.009l0.022-0.01l0.022-0.01l0.022-0.01l0.022-0.011c0.269-0.139,0.486-0.361,0.667-0.6
			c0.805-1.115,1.342-2.946,1.87-4.216c0.707-1.809,1.629-3.573,3.012-4.959c1.573-1.62,3.539-2.822,5.587-3.746
			c3.061-1.368,6.371-2.172,9.68-2.664"/>
	</g>
	<g id="POLYLINE_00000124133571557910928430000006933137179272976291_">
		
			<path fill="none" stroke="#FB8604" stroke-width="2.75" stroke-linecap="round" stroke-linejoin="round" stroke-miterlimit="10" d="
			M411.436,492.98c-1.239,10.69-2.605,21.941-2.75,32.694c-0.009,3.537,0.103,7.144,0.819,10.614
			c1.487,7.241,5.947,13.83,8.652,20.627c2.295,5.666,3.221,13.383,4.237,19.429c0.89,5.204,2.051,10.464,4.057,15.361
			c1.737,4.196,4.107,8.435,7.994,10.979c1.531,1.014,3.31,1.585,5.11,1.894c2.066,0.367,4.264,0.507,6.36,0.622
			c11.986,0.443,29.677,0.333,41.702,0.245c3.192-0.115,6.485-0.261,9.554-1.214c2.316-0.711,4.501-2.058,5.859-4.102
			c1.516-2.232,2.035-4.97,2.212-7.62c0.195-2.938,0.031-5.992-0.158-8.929c-0.32-4.283-0.975-13.578-1.172-17.931
			c-0.194-2.488-0.441-5.055-1.51-7.343c-0.84-1.79-1.876-3.589-2.37-5.527c-0.583-2.109-0.945-4.39-1.271-6.556
			c-0.069-0.6-0.828-5.69-0.815-6.173c-0.003-0.271-0.005-0.572,0.167-0.797l0.006-0.007l0.006-0.007l0.006-0.007l0.006-0.007
			l0.006-0.007l0.006-0.007l0.007-0.006l0.007-0.006l0.007-0.006l0.007-0.006l0.007-0.006l0.007-0.006
			c0.094-0.077,0.212-0.117,0.33-0.14c0.417-0.068,0.85,0.003,1.266,0.052c1.344,0.186,2.846,0.479,4.2,0.433
			c0.345-0.014,0.695-0.051,1.029-0.143c0.309-0.085,0.613-0.223,0.841-0.453c0.416-0.418,0.51-1.042,0.5-1.609
			c-0.014-0.612-0.139-1.221-0.292-1.811c-0.577-2.203-1.936-4.973-2.844-7.078c-1.031-2.398-1.913-4.928-2.04-7.555
			c-0.181-3.48,1.146-7.597,1.9-10.98c1.252-5.044,1.166-10.329,0.738-15.475c-0.311-4.057-0.97-8.78-0.229-12.785
			c0.222-1.32,0.564-2.656,0.951-3.937c1.36-4.403,3.556-9.995,4.847-14.416c2.093-7.045,3.444-14.504,2.497-21.855
			c-0.487-3.799-1.506-7.571-2.716-11.2c-0.838-2.613-2.839-7.527-3.644-10.153c-0.622-1.933-0.465-4.005-0.247-5.993l0.288-2.286
			c0.377-3.83,0.218-7.743-0.219-11.562c-0.233-1.803-0.561-3.629-1.162-5.349c-0.46-1.314-1.111-2.568-1.836-3.753
			c-0.912-1.52-2.166-3.208-2.67-4.91c-0.697-2.286-0.509-4.739-0.335-7.09c0.438-4.89,1.186-10.785,1.87-15.657
			c0.376-2.454,0.758-5.157,1.411-7.549c0.538-2.074,1.821-4.117,2.581-6.109c1.151-2.86,1.79-5.957,2.361-8.979
			c0.633-3.616,2.837-16.894,3.578-20.231"/>
	</g>
	<g id="POLYLINE_00000095326598874799466650000000255232522437976253_">
		
			<path fill="none" stroke="#FB8604" stroke-width="2.75" stroke-linecap="round" stroke-linejoin="round" stroke-miterlimit="10" d="
			M479.439,310.572c3.445,2.34,7.071,4.624,10.938,6.189c4.133,1.707,8.575,2.679,13,3.247c9.438,1.135,19.199,0.828,28.395-1.704"
			/>
	</g>
	<g id="POLYLINE_00000181768095366294216750000016895939755397487750_">
		
			<path fill="none" stroke="#FB8604" stroke-width="2.75" stroke-linecap="round" stroke-linejoin="round" stroke-miterlimit="10" d="
			M474.854,229.134c5.42,12.196,8.503,25.463,11.283,38.473c0.779,3.791,1.53,7.768,1.876,11.623
			c0.221,2.55,0.297,5.162-0.061,7.702c-0.298,2.13-0.957,4.249-2.19,6.03c-1.238,1.818-3.055,3.23-5.127,3.971
			c-3.161,1.151-6.651,0.742-9.816-0.186c-6.908-2.112-12.977-6.358-18.454-10.968c-7.23-6.011-16.083-16.023-22.677-22.859
			c-1.078-1.174-2.235-2.429-3.153-3.734c-1.062-1.486-1.94-3.163-2.21-4.988c-0.255-1.633,0.021-3.307,0.568-4.854
			c0.913-2.573,2.429-4.904,4.069-7.07c2.929-3.816,6.447-7.228,10.088-10.362c8.69-7.393,18.576-13.492,29.134-17.828
			c7.567-3.08,15.588-5.334,23.742-6.065c9.8-0.954,20.04,1.225,29.823-0.028c8.061-0.957,16.474-3.88,24.635-3.93
			c4.092-0.001,8.121,1.042,11.976,2.34c3.812,1.362,8.779,3.102,12.669,4.193c5.859,1.657,15.621,3.884,21.111,6.267
			c2.476,1.041,4.836,2.409,6.925,4.103c2.608,2.09,4.863,4.741,7.018,7.287c2.761,3.301,5.433,6.801,7.535,10.564"/>
	</g>
	<g id="POLYLINE_00000152266692786863104850000007759582768096285080_">
		
			<path fill="none" stroke="#FB8604" stroke-width="2.75" stroke-linecap="round" stroke-linejoin="round" stroke-miterlimit="10" d="
			M531.225,223.876c1.379,3.887,2.896,7.928,4.796,11.587c3.942,7.527,8.722,14.837,13.659,21.749
			c2.161,2.921,4.395,5.926,7.028,8.442c0.65,0.593,1.334,1.191,2.136,1.569l0.054,0.024l0.054,0.023l0.053,0.021l0.052,0.02
			l0.052,0.018l0.051,0.016l0.05,0.015l0.05,0.013l0.049,0.012l0.048,0.01l0.047,0.009l0.047,0.007l0.046,0.005l0.045,0.004
			l0.045,0.002l0.044,0.001l0.043-0.001l0.042-0.003l0.042-0.004l0.041-0.006l0.04-0.008l0.039-0.009l0.038-0.011l0.038-0.013
			l0.037-0.014l0.036-0.016l0.035-0.018l0.034-0.02l0.034-0.021l0.033-0.023l0.032-0.025l0.016-0.013l0.016-0.014l0.016-0.014
			l0.015-0.015l0.015-0.015l0.015-0.016l0.015-0.016l0.015-0.017l0.014-0.017l0.014-0.017l0.014-0.018l0.014-0.018
			c0.195-0.268,0.298-0.592,0.377-0.911c0.184-0.791,0.221-1.628,0.252-2.438l0.051-2.671c0.035-0.651,0.032-1.502,0.302-2.097
			l0.008-0.016l0.009-0.016l0.009-0.015l0.009-0.015l0.009-0.014l0.009-0.014l0.009-0.014l0.01-0.013l0.013-0.017l0.013-0.016
			l0.014-0.015l0.014-0.014l0.014-0.014l0.015-0.013l0.015-0.012l0.015-0.011l0.016-0.01l0.016-0.009l0.016-0.009l0.016-0.008
			l0.017-0.007l0.017-0.006l0.017-0.005l0.017-0.005l0.018-0.004l0.018-0.003l0.018-0.002l0.019-0.002l0.019-0.001l0.019,0
			l0.019,0.001l0.02,0.001l0.02,0.002l0.02,0.003l0.02,0.004l0.021,0.004l0.021,0.005l0.021,0.006l0.021,0.007l0.022,0.007
			l0.022,0.008l0.022,0.009l0.022,0.01l0.023,0.01l0.023,0.011l0.023,0.012l0.023,0.012l0.024,0.013
			c0.709,0.441,1.288,1.256,1.785,1.92c3.972,5.777,6.941,12.719,9.933,19.055c1.425,2.967,3.031,5.918,5.051,8.524
			c2.203,2.853,4.872,5.37,7.804,7.464c1.238,0.86,2.541,1.683,3.967,2.192c0.592,0.199,1.229,0.362,1.855,0.259l0.033-0.006
			l0.032-0.007l0.032-0.007l0.031-0.008l0.031-0.008l0.031-0.009l0.03-0.009l0.03-0.01l0.03-0.01l0.029-0.011l0.029-0.012
			l0.028-0.012l0.028-0.013l0.028-0.013l0.027-0.014l0.027-0.014l0.026-0.015l0.026-0.016l0.026-0.016l0.025-0.017l0.025-0.017
			l0.024-0.018l0.024-0.019l0.023-0.019l0.023-0.02l0.023-0.02l0.022-0.021l0.022-0.022l0.021-0.022l0.021-0.023l0.02-0.023
			l0.02-0.024l0.019-0.025l0.019-0.025l0.018-0.026l0.018-0.026l0.018-0.027l0.017-0.028l0.017-0.028l0.016-0.029l0.016-0.03
			l0.015-0.03l0.015-0.031l0.014-0.032l0.014-0.033l0.013-0.033l0.013-0.034l0.012-0.035l0.012-0.035
			c0.142-0.445,0.16-0.923,0.152-1.387c-0.039-1.264-0.303-2.551-0.555-3.788c-0.402-1.981-1.161-4.778-1.256-6.779
			c-0.012-0.394-0.004-0.799,0.101-1.182l0.01-0.033l0.01-0.033l0.011-0.032l0.011-0.031l0.012-0.031l0.012-0.03l0.013-0.029
			l0.013-0.029l0.014-0.028l0.014-0.027l0.015-0.026l0.015-0.026l0.016-0.025l0.016-0.024l0.017-0.024l0.017-0.023l0.018-0.022
			l0.018-0.021l0.019-0.021l0.019-0.02l0.02-0.019l0.021-0.018l0.021-0.017l0.022-0.017l0.022-0.016l0.023-0.015l0.023-0.014
			l0.024-0.013l0.025-0.013l0.025-0.012l0.026-0.011l0.026-0.01l0.027-0.009l0.027-0.009l0.028-0.008l0.029-0.007l0.029-0.006
			l0.03-0.005l0.03-0.005l0.031-0.004l0.031-0.003l0.032-0.002l0.032-0.002l0.033-0.001l0.033,0l0.034,0l0.034,0.001l0.035,0.002
			l0.035,0.003l0.036,0.003c0.478,0.053,0.934,0.237,1.37,0.433c1.13,0.527,2.21,1.241,3.245,1.933
			c1.442,0.967,4.417,3.176,5.919,3.949c0.264,0.133,0.539,0.262,0.828,0.33l0.028,0.006l0.028,0.005l0.027,0.005l0.026,0.004
			l0.026,0.003l0.025,0.003l0.025,0.002l0.024,0.001l0.023,0.001l0.023,0l0.022-0.001l0.022-0.002l0.023-0.003l0.022-0.003
			l0.021-0.004l0.021-0.005l0.02-0.006l0.019-0.007l0.019-0.008l0.018-0.008l0.017-0.009l0.017-0.01l0.016-0.011l0.015-0.012
			l0.015-0.012l0.014-0.013l0.013-0.014l0.013-0.015l0.012-0.015l0.012-0.016l0.011-0.017l0.01-0.018l0.01-0.018l0.009-0.019
			l0.009-0.02l0.008-0.021l0.007-0.021l0.007-0.022l0.006-0.023l0.006-0.024l0.005-0.024l0.005-0.025l0.004-0.026l0.003-0.026
			l0.003-0.027l0.002-0.028l0.002-0.029l0.001-0.029l0.001-0.03c-0.005-0.562-0.177-1.118-0.334-1.653
			c-1.347-4.182-3.545-8.495-3.96-12.915c-0.172-1.925,0.273-3.901,1.321-5.532c1.458-2.334,3.922-4.072,6.015-5.806"/>
	</g>
	<g id="POLYLINE_00000156569013151266657820000003047954558221462207_">
		
			<path fill="none" stroke="#FB8604" stroke-width="2.75" stroke-linecap="round" stroke-linejoin="round" stroke-miterlimit="10" d="
			M617.727,264.558c-2.971,2.033-6.849,0.63-9.533-1.253c-4.523-3.147-7.499-8.289-8.288-13.715
			c-0.217-1.535-0.261-3.115-0.008-4.648c0.184-1.09,0.523-2.175,1.129-3.107c1.377-2.147,4.044-2.855,6.445-3.063
			c2.391-0.177,4.845-0.163,7.219,0.184c1.809,0.287,3.635,0.903,5.015,2.147c1.236,1.09,1.998,2.616,2.424,4.189
			c0.599,2.196,0.717,4.512,0.597,6.777c-0.155,2.575-0.635,5.163-1.565,7.574C620.423,261.505,619.4,263.381,617.727,264.558z"/>
	</g>
	<g id="POLYLINE_00000114073414346334185910000003209645863886475422_">
		
			<path fill="none" stroke="#FB8604" stroke-width="2.75" stroke-linecap="round" stroke-linejoin="round" stroke-miterlimit="10" d="
			M517.693,269.931c-0.114,3.939-0.176,8.021,0.282,11.934c0.383,3.423,1.174,6.837,2.26,10.104
			c2.611,7.911,7.158,16.899,10.697,24.492c2.147,4.519,7.389,17.624,9.378,22.398c2.496,5.69,4.959,11.765,8.373,16.964
			c0.554,0.777,1.131,1.579,1.916,2.14l0.04,0.027l0.04,0.026l0.04,0.024l0.04,0.023l0.039,0.022l0.039,0.021l0.039,0.019
			l0.038,0.018l0.038,0.017l0.038,0.016l0.038,0.014l0.037,0.013l0.037,0.012l0.037,0.01l0.036,0.009l0.036,0.008l0.036,0.006
			l0.035,0.005l0.035,0.004l0.035,0.002l0.035,0.001l0.034,0l0.034-0.002l0.034-0.003l0.033-0.005l0.033-0.006l0.033-0.007
			l0.032-0.009l0.032-0.01l0.032-0.012l0.014-0.006l0.014-0.006l0.013-0.006l0.013-0.006l0.013-0.007
			c0.459-0.25,0.717-0.806,0.935-1.26c0.366-0.785,0.664-1.829,1.103-2.576c0.087-0.139,0.186-0.277,0.318-0.378l0.01-0.008
			l0.01-0.007l0.01-0.007l0.01-0.007l0.01-0.006l0.01-0.006l0.01-0.006l0.01-0.006l0.01-0.005l0.01-0.005l0.01-0.005l0.02-0.008
			l0.02-0.007l0.02-0.006l0.02-0.005l0.02-0.004l0.02-0.003l0.021-0.003l0.021-0.002l0.021-0.001l0.021,0l0.021,0.001l0.021,0.002
			l0.021,0.003l0.022,0.004l0.022,0.005l0.022,0.006l0.022,0.007l0.022,0.008l0.022,0.009l0.022,0.009l0.022,0.01l0.023,0.011
			l0.023,0.012l0.023,0.013l0.023,0.014l0.023,0.015l0.023,0.016l0.023,0.016l0.023,0.017l0.023,0.018l0.023,0.019l0.024,0.02
			c0.436,0.39,0.735,0.911,1.021,1.415c1.904,3.692,3.104,7.928,4.338,11.888c0.514,1.716,1.64,5.969,2.252,7.581
			c0.174,0.456,0.369,0.916,0.623,1.334c0.2,0.321,0.443,0.642,0.79,0.814l0.018,0.008l0.018,0.008l0.018,0.008l0.018,0.007
			l0.018,0.007l0.018,0.007l0.018,0.006l0.018,0.006l0.018,0.005l0.018,0.005l0.018,0.005l0.018,0.004l0.019,0.004l0.019,0.004
			l0.019,0.003l0.019,0.003l0.019,0.003l0.019,0.002l0.019,0.002l0.019,0.001l0.019,0.001l0.019,0.001l0.019,0l0.019,0l0.02,0
			l0.02-0.001l0.02-0.001l0.02-0.001l0.02-0.002l0.02-0.002l0.02-0.003l0.02-0.003l0.02-0.003c0.573-0.117,1.014-0.55,1.417-0.947
			c2.33-2.492,4.338-6.325,6.633-8.849c0.346-0.364,0.715-0.73,1.162-0.969l0.03-0.015l0.03-0.014l0.03-0.014l0.029-0.013
			l0.029-0.012l0.029-0.011l0.029-0.01l0.029-0.01l0.028-0.009l0.028-0.008l0.028-0.007l0.028-0.006l0.028-0.005l0.027-0.005
			l0.027-0.004l0.027-0.003l0.027-0.002l0.026-0.001l0.026,0l0.026,0.001l0.026,0.002l0.026,0.003l0.025,0.003l0.025,0.004
			l0.025,0.005l0.025,0.006l0.024,0.007l0.016,0.005l0.016,0.006l0.016,0.006l0.016,0.007l0.016,0.007l0.016,0.007l0.016,0.008
			l0.015,0.008l0.015,0.009l0.015,0.009l0.015,0.009l0.015,0.01l0.015,0.01l0.015,0.011l0.015,0.011l0.015,0.011l0.015,0.012
			l0.014,0.012c0.511,0.463,0.768,1.379,0.985,2.025c0.28,0.861,0.55,1.994,1.001,2.777c0.094,0.158,0.204,0.311,0.344,0.432
			l0.014,0.012l0.014,0.012l0.015,0.011l0.015,0.011l0.015,0.011l0.015,0.01l0.015,0.01l0.015,0.009l0.015,0.009l0.015,0.009
			l0.015,0.008l0.015,0.008l0.016,0.008l0.016,0.007l0.016,0.007l0.016,0.006l0.016,0.006l0.016,0.005l0.016,0.005l0.016,0.005
			l0.016,0.004l0.016,0.004l0.017,0.003l0.017,0.003l0.017,0.002l0.017,0.002l0.017,0.001l0.017,0.001l0.029,0.001l0.029-0.001
			l0.03-0.002l0.03-0.003l0.03-0.004l0.031-0.006l0.031-0.007l0.031-0.008l0.032-0.009l0.032-0.01l0.032-0.012l0.033-0.013
			l0.033-0.014l0.033-0.015l0.033-0.016l0.034-0.017l0.034-0.019l0.034-0.02l0.035-0.021l0.035-0.022l0.035-0.023
			c0.398-0.271,0.732-0.632,1.045-0.995c0.806-0.954,1.523-2.05,2.202-3.099c1.627-2.529,3.557-5.975,5.444-8.278
			c0.346-0.401,0.712-0.802,1.155-1.097l0.036-0.023l0.036-0.022l0.036-0.021l0.035-0.02l0.035-0.019l0.035-0.018l0.035-0.016
			l0.034-0.015l0.034-0.014l0.034-0.013l0.033-0.012l0.033-0.011l0.033-0.009l0.032-0.008l0.032-0.007l0.032-0.006l0.032-0.004
			l0.031-0.003l0.031-0.002l0.023-0.001l0.023,0l0.023,0.001l0.023,0.001l0.023,0.002l0.022,0.003l0.022,0.004l0.022,0.004
			l0.022,0.005l0.022,0.006l0.021,0.006l0.021,0.007l0.021,0.008l0.021,0.008l0.021,0.009l0.021,0.01l0.021,0.01l0.02,0.011
			l0.02,0.012l0.02,0.012l0.02,0.013l0.02,0.013l0.02,0.014l0.019,0.015l0.019,0.015l0.019,0.016l0.019,0.016l0.019,0.017
			l0.019,0.018l0.019,0.018l0.018,0.019l0.018,0.019c0.184,0.199,0.318,0.441,0.434,0.685c0.576,1.271,0.948,3.315,1.303,4.676
			c0.244,0.936,0.501,1.9,0.942,2.765c0.18,0.342,0.396,0.678,0.695,0.928l0.024,0.02l0.031,0.024l0.031,0.023l0.031,0.022
			l0.032,0.021l0.032,0.02l0.032,0.02l0.033,0.019l0.033,0.018l0.033,0.017l0.033,0.016l0.034,0.015l0.034,0.014l0.034,0.013
			l0.035,0.012l0.035,0.012l0.035,0.011l0.035,0.01l0.036,0.009l0.036,0.008l0.036,0.007l0.036,0.006l0.037,0.006l0.037,0.005
			l0.037,0.004l0.037,0.003l0.038,0.002l0.038,0.001l0.038,0.001l0.038,0l0.039-0.001l0.039-0.002l0.039-0.003l0.039-0.003
			l0.04-0.004l0.04-0.005l0.04-0.006l0.04-0.007c0.482-0.085,0.929-0.307,1.341-0.564c0.708-0.449,1.338-1.025,1.922-1.624
			c1.433-1.494,2.646-3.208,3.733-4.965c1.199-1.961,2.26-4.032,3.074-6.184c0.676-1.789,1.164-3.672,1.508-5.552
			c0.46-2.465,0.714-5.429,1.345-7.854c1.086-4.397,4.44-8.229,6.963-11.889c1.784-2.536,3.396-5.247,4.502-8.151
			c1.813-4.666,2.688-9.675,3.15-14.643c1.099-13.899,0.108-28.273-3.912-41.662"/>
	</g>
</g>
<g id="_x32_D_x24_AG-OUTLINE">
	<g id="POLYLINE_00000123401080124666836620000014612235757136801182_">
		
			<path fill="none" stroke="#FB8604" stroke-width="3.5" stroke-linecap="round" stroke-linejoin="round" stroke-miterlimit="10" d="
			M531.771,318.304c1.156,2.438,7.365,17.74,8.539,20.555c2.496,5.69,4.959,11.765,8.373,16.964c0.554,0.777,1.131,1.579,1.916,2.14
			l0.04,0.027l0.04,0.026l0.04,0.024l0.04,0.023l0.039,0.022l0.039,0.021l0.039,0.019l0.038,0.018l0.038,0.017l0.038,0.016
			l0.038,0.014l0.037,0.013l0.037,0.012l0.037,0.01l0.036,0.009l0.036,0.008l0.036,0.006l0.035,0.005l0.035,0.004l0.035,0.002
			l0.035,0.001l0.034,0l0.034-0.002l0.034-0.003l0.033-0.005l0.033-0.006l0.033-0.007l0.032-0.009l0.032-0.01l0.032-0.012
			l0.014-0.006l0.014-0.006l0.013-0.006l0.013-0.006l0.013-0.007c0.459-0.25,0.717-0.806,0.935-1.26
			c0.366-0.785,0.664-1.829,1.103-2.576c0.087-0.139,0.186-0.277,0.318-0.378l0.01-0.008l0.01-0.007l0.01-0.007l0.01-0.007
			l0.01-0.006l0.01-0.006l0.01-0.006l0.01-0.006l0.01-0.005l0.01-0.005l0.01-0.005l0.02-0.008l0.02-0.007l0.02-0.006l0.02-0.005
			l0.02-0.004l0.02-0.003l0.021-0.003l0.021-0.002l0.021-0.001l0.021,0l0.021,0.001l0.021,0.002l0.021,0.003l0.022,0.004
			l0.022,0.005l0.022,0.006l0.022,0.007l0.022,0.008l0.022,0.009l0.022,0.009l0.022,0.01l0.023,0.011l0.023,0.012l0.023,0.013
			l0.023,0.014l0.023,0.015l0.023,0.016l0.023,0.016l0.023,0.017l0.023,0.018l0.023,0.019l0.024,0.02
			c0.436,0.39,0.735,0.911,1.021,1.415c1.904,3.692,3.104,7.928,4.338,11.888c0.514,1.716,1.64,5.969,2.252,7.581
			c0.174,0.456,0.369,0.916,0.623,1.334c0.2,0.321,0.443,0.642,0.79,0.814l0.018,0.008l0.018,0.008l0.018,0.008l0.018,0.007
			l0.018,0.007l0.018,0.007l0.018,0.006l0.018,0.006l0.018,0.005l0.018,0.005l0.018,0.005l0.018,0.004l0.019,0.004l0.019,0.004
			l0.019,0.003l0.019,0.003l0.019,0.003l0.019,0.002l0.019,0.002l0.019,0.001l0.019,0.001l0.019,0.001l0.019,0l0.019,0l0.02,0
			l0.02-0.001l0.02-0.001l0.02-0.001l0.02-0.002l0.02-0.002l0.02-0.003l0.02-0.003l0.02-0.003c0.573-0.117,1.014-0.55,1.417-0.947
			c2.33-2.492,4.338-6.325,6.633-8.849c0.346-0.364,0.715-0.73,1.162-0.969l0.03-0.015l0.03-0.014l0.03-0.014l0.029-0.013
			l0.029-0.012l0.029-0.011l0.029-0.01l0.029-0.01l0.028-0.009l0.028-0.008l0.028-0.007l0.028-0.006l0.028-0.005l0.027-0.005
			l0.027-0.004l0.027-0.003l0.027-0.002l0.026-0.001l0.026,0l0.026,0.001l0.026,0.002l0.026,0.003l0.025,0.003l0.025,0.004
			l0.025,0.005l0.025,0.006l0.024,0.007l0.016,0.005l0.016,0.006l0.016,0.006l0.016,0.007l0.016,0.007l0.016,0.007l0.016,0.008
			l0.015,0.008l0.015,0.009l0.015,0.009l0.015,0.009l0.015,0.01l0.015,0.01l0.015,0.011l0.015,0.011l0.015,0.011l0.015,0.012
			l0.014,0.012c0.511,0.463,0.768,1.379,0.985,2.025c0.28,0.861,0.55,1.994,1.001,2.777c0.094,0.158,0.204,0.311,0.344,0.432
			l0.014,0.012l0.014,0.012l0.015,0.011l0.015,0.011l0.015,0.011l0.015,0.01l0.015,0.01l0.015,0.009l0.015,0.009l0.015,0.009
			l0.015,0.008l0.015,0.008l0.016,0.008l0.016,0.007l0.016,0.007l0.016,0.006l0.016,0.006l0.016,0.005l0.016,0.005l0.016,0.005
			l0.016,0.004l0.016,0.004l0.017,0.003l0.017,0.003l0.017,0.002l0.017,0.002l0.017,0.001l0.017,0.001l0.029,0.001l0.029-0.001
			l0.03-0.002l0.03-0.003l0.03-0.004l0.031-0.006l0.031-0.007l0.031-0.008l0.032-0.009l0.032-0.01l0.032-0.012l0.033-0.013
			l0.033-0.014l0.033-0.015l0.033-0.016l0.034-0.017l0.034-0.019l0.034-0.02l0.035-0.021l0.035-0.022l0.035-0.023
			c0.398-0.271,0.732-0.632,1.045-0.995c0.806-0.954,1.523-2.05,2.202-3.099c1.627-2.529,3.557-5.975,5.444-8.278
			c0.346-0.401,0.712-0.802,1.155-1.097l0.036-0.023l0.036-0.022l0.036-0.021l0.035-0.02l0.035-0.019l0.035-0.018l0.035-0.016
			l0.034-0.015l0.034-0.014l0.034-0.013l0.033-0.012l0.033-0.011l0.033-0.009l0.032-0.008l0.032-0.007l0.032-0.006l0.032-0.004
			l0.031-0.003l0.031-0.002l0.023-0.001l0.023,0l0.023,0.001l0.023,0.001l0.023,0.002l0.022,0.003l0.022,0.004l0.022,0.004
			l0.022,0.005l0.022,0.006l0.021,0.006l0.021,0.007l0.021,0.008l0.021,0.008l0.021,0.009l0.021,0.01l0.021,0.01l0.02,0.011
			l0.02,0.012l0.02,0.012l0.02,0.013l0.02,0.013l0.02,0.014l0.019,0.015l0.019,0.015l0.019,0.016l0.019,0.016l0.019,0.017
			l0.019,0.018l0.019,0.018l0.018,0.019l0.018,0.019c0.184,0.199,0.318,0.441,0.434,0.685c0.576,1.271,0.948,3.315,1.303,4.676
			c0.244,0.936,0.501,1.9,0.942,2.765c0.18,0.342,0.396,0.678,0.695,0.928l0.024,0.02l0.031,0.024l0.031,0.023l0.031,0.022
			l0.032,0.021l0.032,0.02l0.032,0.02l0.033,0.019l0.033,0.018l0.033,0.017l0.033,0.016l0.034,0.015l0.034,0.014l0.034,0.013
			l0.035,0.012l0.035,0.012l0.035,0.011l0.035,0.01l0.036,0.009l0.036,0.008l0.036,0.007l0.036,0.006l0.037,0.006l0.037,0.005
			l0.037,0.004l0.037,0.003l0.038,0.002l0.038,0.001l0.038,0.001l0.038,0l0.039-0.001l0.039-0.002l0.039-0.003l0.039-0.003
			l0.04-0.004l0.04-0.005l0.04-0.006l0.04-0.007c0.482-0.085,0.929-0.307,1.341-0.564c0.708-0.449,1.338-1.025,1.922-1.624
			c1.433-1.494,2.646-3.208,3.733-4.965c1.199-1.961,2.26-4.032,3.074-6.184c0.676-1.789,1.164-3.672,1.508-5.552
			c0.46-2.465,0.714-5.429,1.345-7.854c1.086-4.397,4.44-8.229,6.963-11.889c1.784-2.536,3.396-5.247,4.502-8.151
			c1.813-4.666,2.688-9.675,3.15-14.643c1.099-13.899,0.108-28.273-3.912-41.662c1.773-1.253,2.818-3.272,3.567-5.259
			c0.974-2.684,1.429-5.559,1.477-8.408c0.018-2.092-0.173-4.224-0.827-6.221c-0.498-1.542-1.394-2.985-2.709-3.957
			c-1.61-1.213-3.64-1.694-5.613-1.898c-2.102-3.762-4.774-7.263-7.535-10.564c-2.156-2.547-4.409-5.195-7.018-7.287
			c-2.089-1.694-4.448-3.061-6.925-4.103c-5.453-2.374-15.314-4.632-21.111-6.267c-3.895-1.042-8.822-2.886-12.669-4.193
			c-3.003-0.999-6.1-1.877-9.255-2.193c-4.564-0.484-9.187,0.322-13.659,1.199c-4.441,0.896-10.114,2.216-14.547,2.683
			c-2.489,0.273-5.081,0.343-7.583,0.297c-6.362-0.133-13.523-0.925-19.866-0.482c-6.78,0.43-13.513,1.989-19.934,4.175
			c-10.296,3.537-20.031,8.814-28.768,15.295c-5.467,4.095-10.734,8.657-15.057,13.968c-1.847,2.315-3.572,4.81-4.648,7.585
			c-0.76,1.944-1.09,4.116-0.539,6.157c0.36,1.406,1.061,2.707,1.884,3.894c1.54,2.232,3.952,4.604,5.823,6.587l-0.444,1.131
			c-0.833,2.207-1.919,5.347-2.93,7.443c-1.899,4.065-5.829,10.852-8.025,14.852c-3.745,6.554-12.412,21.04-15.69,27.471
			c-2.504,4.664-5.51,11.779-7.86,16.563c-4.435,9.265-11.18,17.258-18.622,24.26c-4.582,4.274-9.573,8.237-15.072,11.264
			c-5.891,3.264-12.347,5.509-18.877,7.105c-5.915,1.418-12.021,2.325-18.111,2.32c-6.472,0.021-12.974-1.028-19.276-2.442
			c-10.883-2.41-23.44-6.617-34.335-8.98c-2.091-0.419-4.25-0.654-6.383-0.679c-4.594-0.036-9.256,0.503-13.787,1.229
			c-3.952,0.671-7.973,1.54-11.729,2.964c-2.507,0.944-4.943,2.186-7.263,3.523c-6.723,3.937-14.491,9.301-20.993,13.634
			c-1.569-1.88-3.15-3.877-4.487-5.928c-0.831-1.298-1.497-2.71-2-4.165c-1.18-3.459-1.866-7.173-2.484-10.772
			c-1.014-6.235-1.761-12.858-2.215-19.158c-0.25-3.389-0.408-9.719-0.581-13.144c-0.24-3.89-0.619-8.033-1.231-11.881
			c-0.291-1.759-0.633-3.56-1.239-5.241c-0.342-0.936-0.775-1.857-1.403-2.636c-0.616-0.766-1.411-1.382-2.283-1.833
			c-0.915-0.467-1.91-0.799-2.917-0.997c-0.327-0.054-0.666-0.069-0.993,0c-0.341,0.069-0.662,0.22-0.958,0.4
			c-1.694,1.11-3.178,2.817-4.522,4.327c-3.273,3.816-6.189,8.017-8.726,12.355c-1.956,3.387-3.741,6.962-5.016,10.664
			c-1.236,3.595-1.98,7.491-2.636,11.234c-1.132,6.796-2.107,14.009-2.612,20.88c-0.213,3.302-0.341,6.699,0.182,9.978
			c0.31,2.102,1.072,4.195,1.79,6.189c2.242,6.12,5.034,12.17,8.153,17.892c0.682,1.335,2.567,4.368,3.099,5.537
			c0.201,0.465,0.349,0.961,0.43,1.461c0.28,1.787-0.16,3.6-0.694,5.3c-5.1,9.408-8.306,19.82-9.903,30.382
			c-1.748,11.295-1.486,24.083-2.194,35.5c-0.23,3.027-0.631,6.091-1.288,9.053c-1.4,6.253-3.753,12.609-5.938,18.636
			c-1.868,5.014-4.439,11.609-6.522,16.52c-1.014,2.359-2.149,4.954-3.396,7.184c-2.003,3.559-4.878,6.763-6.883,10.322
			c-1.845,3.129-3.184,6.575-3.822,10.156c-0.897,4.898-0.894,9.952-0.291,14.885c0.897,6.839,2.999,13.778,4.857,20.408
			c0.904,2.948,1.894,5.983,3.322,8.724c0.684,1.288,1.479,2.557,2.564,3.546c1.149,1.065,2.647,1.666,4.169,1.965
			c2.204,0.448,4.554,0.466,6.797,0.523c9.273-0.033,49.586,0.122,58.01-0.062c2.043-0.066,4.189-0.151,6.208-0.464
			c1.714-0.266,3.434-0.752,4.896-1.711c1.691-1.078,2.863-2.779,3.713-4.564c0.794-1.631,1.395-3.409,1.935-5.141
			c-0.002-0.008,0.621-2.044,0.62-2.053c0,0,11.243-40.501,11.243-40.501c0.721,0.855,1.387,1.814,2.003,2.747l2.64,4.154
			c0.57,0.854,1.157,1.733,1.884,2.461c0.274,0.266,0.575,0.521,0.931,0.666l0.025,0.01l0.025,0.009l0.025,0.009l0.025,0.008
			l0.025,0.008l0.025,0.007l0.025,0.007l0.025,0.006l0.025,0.005l0.025,0.005l0.025,0.004l0.025,0.004l0.025,0.003l0.025,0.003
			l0.025,0.002l0.025,0.001l0.024,0.001l0.024,0l0.024-0.001l0.024-0.001l0.024-0.002l0.028-0.003l0.028-0.004l0.028-0.005
			l0.028-0.005l0.028-0.006l0.028-0.007l0.028-0.008l0.028-0.009l0.028-0.009l0.028-0.01l0.027-0.011l0.027-0.012l0.027-0.013
			l0.027-0.013l0.027-0.014l0.027-0.015l0.027-0.016l0.027-0.016l0.027-0.017l0.027-0.018l0.027-0.018l0.027-0.019l0.027-0.02
			c0.232-0.177,0.425-0.403,0.599-0.636c0.8-1.087,1.741-3.299,2.362-4.517c0.663-1.289,1.376-2.611,2.449-3.607
			c0.578-0.532,1.307-0.939,2.103-0.994l0.081-0.005l0.081-0.003l0.082-0.001l0.083,0.001l0.083,0.003l0.084,0.005l0.084,0.007
			l0.085,0.009l0.086,0.011l0.086,0.013l0.087,0.015l0.087,0.017l0.088,0.019l0.089,0.021l0.089,0.023
			c1.099,0.3,2.093,0.904,3.021,1.55c4.698,3.411,9.714,9.677,13.695,13.938c1.251,1.339,2.587,2.761,3.993,3.934
			c0.56,0.458,1.15,0.908,1.808,1.216l0.066,0.03l0.065,0.028l0.065,0.026l0.064,0.024l0.063,0.022l0.062,0.02l0.061,0.019
			l0.06,0.017l0.06,0.015l0.059,0.013l0.058,0.011l0.057,0.009l0.056,0.007l0.055,0.005l0.054,0.003l0.054,0.001l0.053-0.001
			l0.052-0.004l0.051-0.006l0.05-0.008l0.049-0.01l0.048-0.012l0.028-0.008l0.028-0.009l0.027-0.01l0.027-0.01l0.027-0.011
			l0.026-0.012l0.026-0.013l0.026-0.013l0.026-0.014l0.025-0.015l0.025-0.015l0.025-0.016l0.024-0.017l0.024-0.018l0.024-0.018
			l0.024-0.019l0.023-0.019l0.023-0.02l0.023-0.021l0.022-0.021l0.022-0.022l0.022-0.023l0.022-0.023l0.021-0.024l0.021-0.025
			l0.021-0.025c0.239-0.298,0.394-0.656,0.52-1.014c0.549-1.659,0.706-3.831,1.049-5.545c0.144-0.734,0.314-1.481,0.601-2.174
			c0.168-0.397,0.379-0.788,0.688-1.094l0.026-0.025l0.026-0.025l0.027-0.024l0.027-0.023l0.027-0.023l0.028-0.022l0.028-0.021
			l0.028-0.021l0.029-0.02l0.029-0.019l0.029-0.019l0.03-0.018l0.03-0.017l0.03-0.017l0.031-0.016l0.031-0.015l0.031-0.015
			l0.032-0.014l0.032-0.013l0.032-0.012l0.053-0.019l0.054-0.017l0.055-0.015l0.056-0.013l0.057-0.011l0.057-0.009l0.058-0.008
			l0.059-0.006l0.06-0.004l0.061-0.002l0.062,0l0.063,0.001l0.064,0.003l0.064,0.005l0.065,0.006l0.066,0.008l0.067,0.01
			l0.068,0.011l0.069,0.013l0.069,0.015l0.07,0.016l0.071,0.018c0.814,0.221,1.565,0.645,2.277,1.089
			c3.634,2.343,8.69,7.313,12.046,10.099c1.647,1.377,3.374,2.775,5.223,3.87c0.912,0.527,1.881,1.016,2.926,1.21l0.081,0.014
			l0.081,0.012l0.08,0.01l0.079,0.009l0.078,0.007l0.078,0.005l0.077,0.004l0.076,0.002l0.076,0l0.075-0.002l0.074-0.003
			l0.073-0.005l0.073-0.007l0.072-0.009l0.071-0.011l0.07-0.012l0.052-0.01l0.052-0.012l0.051-0.013l0.051-0.014l0.05-0.015
			l0.05-0.016l0.049-0.017l0.049-0.018l0.049-0.018l0.048-0.019l0.048-0.02l0.047-0.021l0.047-0.022l0.046-0.023l0.046-0.024
			l0.046-0.025l0.045-0.026l0.045-0.027l0.045-0.028l0.044-0.029l0.044-0.03c0.49-0.338,0.873-0.809,1.19-1.308
			c1.233-2.001,1.894-4.893,2.628-7.122c0.411-1.252,0.852-2.532,1.533-3.665c0.377-0.618,0.845-1.206,1.466-1.592l0.046-0.028
			l0.047-0.027l0.047-0.026l0.048-0.025l0.048-0.024l0.048-0.023l0.049-0.023l0.049-0.022l0.05-0.021l0.05-0.02l0.05-0.019
			l0.051-0.018l0.051-0.017l0.072-0.022l0.072-0.02l0.073-0.018l0.074-0.016l0.075-0.014l0.076-0.012l0.076-0.011l0.077-0.009
			l0.078-0.007l0.079-0.005l0.08-0.004l0.08-0.002l0.081,0l0.082,0.001l0.083,0.003l0.083,0.005l0.084,0.006l0.085,0.008
			c1.077,0.12,2.098,0.55,3.061,1.028c2.212,1.13,4.285,2.661,6.278,4.139c3.982,2.937,8.517,6.882,13.005,8.956
			c0.992,0.433,2.045,0.794,3.133,0.846l0.091,0.003l0.091,0.002l0.09,0l0.089-0.002l0.089-0.004l0.088-0.005l0.087-0.007
			l0.087-0.009l0.086-0.011l0.085-0.012l0.084-0.014l0.084-0.016l0.083-0.018l0.082-0.02l0.081-0.022l0.062-0.018l0.062-0.019
			l0.061-0.02l0.061-0.021l0.06-0.022l0.06-0.023l0.06-0.024c0.917-0.384,1.632-1.124,2.2-1.923c1.01-1.442,1.668-3.119,2.284-4.759
			c0.873-2.308,1.739-5.396,3.057-7.472c0.298-0.451,0.643-0.883,1.076-1.212l0.043-0.032l0.044-0.031l0.044-0.03l0.044-0.029
			l0.045-0.028l0.045-0.027l0.045-0.026l0.046-0.025l0.046-0.024l0.046-0.023l0.046-0.022l0.047-0.021l0.047-0.02l0.047-0.019
			l0.048-0.018l0.048-0.016l0.048-0.015l0.049-0.014l0.049-0.013l0.049-0.012l0.05-0.011l0.047-0.009l0.047-0.008l0.047-0.007
			l0.048-0.006l0.048-0.005l0.048-0.004l0.048-0.003l0.049-0.002l0.049-0.001l0.049,0l0.049,0.001l0.05,0.002l0.05,0.003
			c0.626,0.04,1.226,0.268,1.785,0.542c0.995,0.497,1.912,1.169,2.787,1.852c2.086,1.611,4.329,3.878,6.573,5.264
			c0.44,0.256,0.906,0.493,1.409,0.594l0.042,0.008l0.042,0.007l0.041,0.006l0.041,0.005l0.041,0.004l0.04,0.003l0.04,0.002
			l0.04,0.002l0.039,0.001l0.039,0l0.039-0.001l0.038-0.002l0.038-0.003l0.037-0.004l0.037-0.005l0.037-0.006l0.036-0.007
			l0.036-0.008l0.036-0.009l0.035-0.01l0.035-0.011l0.034-0.012l0.034-0.013l0.034-0.014l0.03-0.014l0.03-0.015l0.029-0.015
			l0.029-0.016l0.029-0.017l0.028-0.018l0.028-0.019l0.028-0.02l0.027-0.02l0.027-0.021l0.027-0.022l0.027-0.023l0.026-0.024
			l0.026-0.024l0.026-0.025l0.025-0.026l0.025-0.027l0.025-0.027l0.024-0.028l0.024-0.029l0.024-0.03
			c0.307-0.393,0.493-0.869,0.645-1.34c0.349-1.131,0.509-2.351,0.662-3.523c0.251-1.91,0.386-4.157,0.924-6.002
			c0.123-0.388,0.272-0.779,0.513-1.111l0.021-0.028l0.021-0.027l0.022-0.027l0.022-0.026l0.022-0.025l0.023-0.025l0.023-0.024
			l0.023-0.023l0.023-0.022l0.024-0.021l0.024-0.021l0.024-0.02l0.024-0.019l0.025-0.018l0.025-0.017l0.025-0.016l0.026-0.016
			l0.026-0.015l0.026-0.014l0.025-0.012l0.025-0.012l0.025-0.011l0.026-0.01l0.026-0.009l0.026-0.009l0.026-0.008l0.027-0.007
			l0.027-0.006l0.027-0.006l0.027-0.005l0.028-0.004l0.028-0.004l0.028-0.003l0.028-0.002l0.029-0.002l0.029-0.001l0.029,0l0.029,0
			l0.03,0.001l0.03,0.002l0.03,0.002l0.03,0.003l0.03,0.004l0.031,0.004l0.031,0.005l0.031,0.005
			c0.38,0.073,0.732,0.251,1.062,0.447c0.781,0.474,1.493,1.099,2.173,1.706c1.339,1.198,3.205,3.148,4.717,4.084
			c0.301,0.179,0.622,0.343,0.967,0.417c0.052,0.011,0.111,0.02,0.164,0.026l0.026,0.003l0.026,0.002l0.026,0.002l0.026,0.001
			l0.026,0.001l0.025,0l0.025,0l0.025-0.001l0.025-0.001l0.025-0.002l0.025-0.002l0.024-0.003l0.024-0.003l0.024-0.004l0.024-0.004
			l0.024-0.005l0.024-0.005l0.023-0.005l0.023-0.006l0.023-0.006l0.023-0.007l0.023-0.007l0.023-0.008l0.023-0.008l0.022-0.008
			l0.022-0.009l0.022-0.009l0.022-0.01l0.022-0.01l0.022-0.01l0.022-0.011c0.269-0.139,0.486-0.361,0.667-0.6
			c0.805-1.115,1.342-2.946,1.87-4.216c0.707-1.809,1.629-3.573,3.012-4.959c1.573-1.62,3.539-2.822,5.587-3.746
			c3.061-1.368,6.371-2.172,9.68-2.664c1.296,2.677,3.301,6.479,4.336,9.187c0.811,2.053,1.446,4.214,1.952,6.361
			c1.269,5.391,2.089,12.835,3.293,18.239c1.132,5.156,2.689,10.327,5.346,14.917c1.763,3.002,4.166,5.818,7.405,7.257
			c2.717,1.162,5.758,1.334,8.671,1.549c8.617,0.497,25.531,0.316,34.352,0.378c3.658-0.04,8.817,0.049,12.429-0.282
			c2.469-0.219,4.986-0.6,7.258-1.635c1.505-0.683,2.875-1.697,3.879-3.017c1.084-1.407,1.74-3.105,2.11-4.832
			c0.421-1.976,0.508-4.037,0.516-6.053c0.026-3.738-0.541-9.789-0.807-13.572c0,0-0.61-10.476-0.61-10.476
			c-0.194-2.488-0.441-5.055-1.51-7.343c-0.84-1.79-1.876-3.589-2.37-5.527c-0.583-2.109-0.945-4.39-1.271-6.556
			c-0.069-0.6-0.828-5.69-0.815-6.173c-0.003-0.271-0.005-0.572,0.167-0.797l0.006-0.007l0.006-0.007l0.006-0.007l0.006-0.007
			l0.006-0.007l0.006-0.007l0.007-0.006l0.007-0.006l0.007-0.006l0.007-0.006l0.007-0.006l0.007-0.006
			c0.094-0.077,0.212-0.117,0.33-0.14c0.417-0.068,0.85,0.003,1.266,0.052c1.344,0.186,2.846,0.479,4.2,0.433
			c0.345-0.014,0.695-0.051,1.029-0.143c0.309-0.085,0.613-0.223,0.841-0.453c0.416-0.418,0.51-1.042,0.5-1.609
			c-0.014-0.612-0.139-1.221-0.292-1.811c-0.577-2.203-1.936-4.973-2.844-7.078c-1.031-2.398-1.913-4.928-2.04-7.555
			c-0.181-3.48,1.146-7.597,1.9-10.98c1.252-5.044,1.166-10.329,0.738-15.475c-0.311-4.057-0.97-8.78-0.229-12.785
			c0.222-1.32,0.564-2.656,0.951-3.937c1.36-4.403,3.556-9.995,4.847-14.416c2.093-7.045,3.444-14.504,2.497-21.855
			c-0.487-3.799-1.506-7.571-2.716-11.2c-0.838-2.613-2.839-7.527-3.644-10.153c-0.622-1.933-0.465-4.005-0.247-5.993l0.288-2.286
			c0.377-3.83,0.218-7.743-0.219-11.562c-0.233-1.803-0.561-3.629-1.162-5.349c-0.46-1.314-1.111-2.568-1.836-3.753
			c-0.912-1.52-2.166-3.208-2.67-4.91c-0.697-2.286-0.509-4.739-0.335-7.09c0.438-4.89,1.186-10.785,1.87-15.657
			c0.376-2.454,0.758-5.157,1.411-7.549c0.538-2.074,1.821-4.117,2.581-6.109c1.151-2.86,1.79-5.957,2.361-8.979
			c0.633-3.616,2.837-16.894,3.578-20.231C518.063,320.769,525.091,320.178,531.771,318.304z"/>
	</g>
</g>
</svg>
