<?xml version="1.0" encoding="utf-8"?>
<!-- Generator: Adobe Illustrator 25.4.1, SVG Export Plug-In . SVG Version: 6.00 Build 0)  -->
<!DOCTYPE svg PUBLIC "-//W3C//DTD SVG 1.1//EN" "http://www.w3.org/Graphics/SVG/1.1/DTD/svg11.dtd" [
	<!ENTITY ns_extend "http://ns.adobe.com/Extensibility/1.0/">
	<!ENTITY ns_ai "http://ns.adobe.com/AdobeIllustrator/10.0/">
	<!ENTITY ns_graphs "http://ns.adobe.com/Graphs/1.0/">
	<!ENTITY ns_vars "http://ns.adobe.com/Variables/1.0/">
	<!ENTITY ns_imrep "http://ns.adobe.com/ImageReplacement/1.0/">
	<!ENTITY ns_sfw "http://ns.adobe.com/SaveForWeb/1.0/">
	<!ENTITY ns_custom "http://ns.adobe.com/GenericCustomNamespace/1.0/">
	<!ENTITY ns_adobe_xpath "http://ns.adobe.com/XPath/1.0/">
]>
<svg version="1.1" xmlns:x="&ns_extend;" xmlns:i="&ns_ai;" xmlns:graph="&ns_graphs;"
	 xmlns="http://www.w3.org/2000/svg" xmlns:xlink="http://www.w3.org/1999/xlink" x="0px" y="0px" width="750px" height="750px"
	 viewBox="0 0 750 750" enable-background="new 0 0 750 750" xml:space="preserve">
<metadata>
	<sfw  xmlns="&ns_sfw;">
		<slices></slices>
		<sliceSourceBounds  bottomLeftOrigin="true" height="10319.275" width="5527" x="-2000" y="-1314"></sliceSourceBounds>
	</sfw>
</metadata>
<g id="FILL-BACKGROUND">
	<rect fill="#FFFFFF" width="750" height="750"/>
</g>
<g id="N-DIMENSIONS">
</g>
<g id="N-TEXT">
</g>
<g id="_x32_D_x24_AG-DIAGRAM">
	<g id="POLYLINE_00000035491094830953030550000004818729662217298336_">
		<g>
			<g>
				
					<line fill="none" stroke="#FB8604" stroke-width="3.25" stroke-linecap="round" stroke-linejoin="round" x1="97.493" y1="607.456" x2="99.493" y2="607.456"/>
				
					<line fill="none" stroke="#FB8604" stroke-width="3.25" stroke-linecap="round" stroke-linejoin="round" stroke-dasharray="3.9866,6.9766" x1="106.469" y1="607.456" x2="530.549" y2="607.456"/>
				
					<line fill="none" stroke="#FB8604" stroke-width="3.25" stroke-linecap="round" stroke-linejoin="round" x1="534.037" y1="607.456" x2="536.037" y2="607.456"/>
			</g>
		</g>
	</g>
</g>
<g id="_x32_D_x24_AG-DETAILS-DIAGRAM">
</g>
<g id="_x32_D_x24_AG-DETAILS">
	<g id="POLYLINE_00000103250346800967574750000009585926141714867336_">
		<path fill="none" stroke="#FB8604" stroke-width="2" stroke-linecap="round" stroke-linejoin="round" stroke-miterlimit="10" d="
			M525.76,273.943c-0.099-0.719-0.628-1.466-1.4-1.516c-0.329-0.024-0.651,0.089-0.933,0.25c-0.427,0.244-0.797,0.582-1.134,0.937
			c-0.59,0.632-1.093,1.351-1.525,2.099c-0.415,0.729-0.777,1.504-1.003,2.314c-0.203,0.743-0.324,1.659,0.229,2.282
			c0.205,0.228,0.5,0.372,0.807,0.389c0.323,0.02,0.638-0.098,0.912-0.261c0.529-0.32,0.96-0.782,1.363-1.245
			c0.818-0.996,1.627-2.037,2.221-3.185C525.609,275.372,525.862,274.66,525.76,273.943z"/>
	</g>
	<g id="POLYLINE_00000150790185377916550990000003229857221739797133_">
		<path fill="none" stroke="#FB8604" stroke-width="2" stroke-linecap="round" stroke-linejoin="round" stroke-miterlimit="10" d="
			M336.626,435.469c1.039-1.643,1.971-3.544,3.509-4.789c0.986-0.831,2.167-1.403,3.366-1.861c2.197-0.831,4.593-1.373,6.888-1.869
			l9.774-1.95c2.78-0.586,5.636-1.339,8.312-2.29c4.473-1.518,9.35-3.893,14.179-3.329c4.068,0.458,7.89,2.517,10.696,5.471
			c2.843,2.957,4.43,6.908,5.115,10.908c0.78,4.591,0.547,9.356-0.599,13.865"/>
	</g>
	<g id="POLYLINE_00000001631973950728881860000008431187482782471309_">
		<path fill="none" stroke="#FB8604" stroke-width="2" stroke-linecap="round" stroke-linejoin="round" stroke-miterlimit="10" d="
			M487.003,301.659c-0.433-0.642-1.196-0.97-1.934-1.113c-0.726-0.136-1.484-0.109-2.2,0.072c-0.65,0.166-1.278,0.469-1.761,0.941
			c-0.864,0.847-1.251,2.097-1.208,3.288c0.031,0.729,0.226,1.479,0.689,2.056c0.791,0.983,2.204,1.167,3.352,0.786
			c0.827-0.262,1.54-0.805,2.091-1.468c0.697-0.846,1.211-1.882,1.313-2.982C487.391,302.696,487.311,302.12,487.003,301.659z"/>
	</g>
	<g id="POLYLINE_00000093134758303184665630000004861641561300857264_">
		<path fill="none" stroke="#FB8604" stroke-width="2" stroke-linecap="round" stroke-linejoin="round" stroke-miterlimit="10" d="
			M405.831,302.59c0.316,1.409,0.714,2.825,1.365,4.119c0.486,0.976,1.118,1.884,1.865,2.678c1.519,1.607,3.412,2.834,5.411,3.759
			c2.782,1.269,5.87,1.979,8.935,1.766c0.971-0.076,1.949-0.251,2.853-0.623c0.628-0.26,1.227-0.626,1.677-1.141
			c0.507-0.566,0.744-1.315,0.842-2.056c0.21-1.615-0.03-3.452,0.223-5.064c0.109-0.73,0.323-1.454,0.699-2.093
			c0.92-1.562,2.562-2.735,3.922-3.898c0.725-0.636,1.529-1.318,1.911-2.225c0.207-0.508,0.213-1.078,0.097-1.609
			c-0.228-1.045-0.852-2.018-1.382-2.936"/>
	</g>
	<g id="POLYLINE_00000101100778759900712960000012817660910638904467_">
		<path fill="none" stroke="#FB8604" stroke-width="2" stroke-linecap="round" stroke-linejoin="round" stroke-miterlimit="10" d="
			M360.874,323.282c-0.666-0.422-1.493-0.439-2.257-0.417c-1.451,0.067-3.084,0.349-4.536,0.324
			c-1.118-0.005-2.235-0.213-3.319-0.475c-1.383-0.307-3.235-0.963-4.656-0.922c-0.564,0.011-1.135,0.163-1.59,0.506
			c-0.531,0.39-0.91,0.951-1.212,1.529c-0.604,1.178-0.962,2.498-1.314,3.77c-0.509,1.965-1.106,4.086-1.423,6.089
			c-0.14,0.913-0.238,1.849-0.178,2.774c0.049,0.689,0.187,1.398,0.563,1.989c0.26,0.414,0.652,0.736,1.099,0.931
			c1.034,0.445,2.203,0.409,3.302,0.289c1.307-0.158,2.6-0.497,3.849-0.909c1.809-0.604,3.597-1.392,5.269-2.308
			c3.082-1.712,6.178-4.086,7.287-7.572c0.401-1.32,0.549-2.773,0.149-4.11C361.723,324.188,361.396,323.62,360.874,323.282z"/>
	</g>
	<g id="POLYLINE_00000147207012469508034740000007047701071269547178_">
		<path fill="none" stroke="#FB8604" stroke-width="2" stroke-linecap="round" stroke-linejoin="round" stroke-miterlimit="10" d="
			M396.428,332.971c-0.686-0.639-1.647-0.903-2.554-1.039c-1.144-0.157-2.323-0.091-3.447,0.171c-0.9,0.214-1.781,0.561-2.537,1.1
			c-1.188,0.844-1.961,2.137-2.521,3.458c-0.723,1.695-1.246,3.817-1.89,5.545c-0.462,1.274-1.249,2.745-1.849,3.967
			c-0.38,0.821-0.768,1.694-0.75,2.617c0.011,0.612,0.27,1.17,0.663,1.63c0.55,0.646,1.273,1.124,2.017,1.519
			c0.954,0.498,1.981,0.864,3.026,1.119c1.335,0.329,2.729,0.445,4.096,0.278c1.491-0.16,3.177-0.697,4.644-1.009
			c1.346-0.288,3.092-0.478,4.431-0.793c1.236-0.287,2.482-0.736,3.44-1.595c1.124-0.991,1.903-2.531,1.598-4.049
			c-0.112-0.58-0.393-1.115-0.739-1.59c-0.521-0.716-1.183-1.338-1.838-1.93c-1.101-0.988-2.645-2.204-3.553-3.357
			c-0.4-0.499-0.726-1.061-0.919-1.673c-0.359-1.056-0.334-2.263-0.679-3.322C396.937,333.628,396.728,333.257,396.428,332.971z"/>
	</g>
	<g id="POLYLINE_00000078743886290815890260000007504104981080306318_">
		<path fill="none" stroke="#FB8604" stroke-width="2" stroke-linecap="round" stroke-linejoin="round" stroke-miterlimit="10" d="
			M407.846,364.83c-0.415-0.67-0.952-1.752-1.321-2.461c-0.471-0.891-1.031-1.777-1.86-2.376c-0.542-0.399-1.175-0.661-1.821-0.839
			c-0.978-0.267-2.006-0.355-3.018-0.323c-1.962,0.079-3.994,0.584-5.558,1.818c-2.218,1.8-3.144,4.768-4.911,6.94
			c-1.312,1.715-3.328,2.745-5.173,3.785c-1.027,0.59-2.103,1.207-2.935,2.062c-0.391,0.404-0.724,0.873-0.925,1.4
			c-0.176,0.455-0.248,0.947-0.246,1.434c0.007,1.01,0.293,2.002,0.691,2.924c0.55,1.256,1.332,2.414,2.26,3.422
			c1.281,1.378,2.902,2.543,4.774,2.917c2.937,0.586,6.103-0.585,8.938-1.265c1.445-0.355,2.935-0.656,4.428-0.657
			c1.385-0.001,2.765,0.283,4.099,0.634c1.384,0.351,3.391,1.046,4.801,1.154c0.536,0.044,1.089,0.025,1.604-0.142
			c1.056-0.335,1.739-1.315,2.152-2.295c0.458-1.093,0.664-2.283,0.731-3.462c0.083-1.598-0.096-3.222-0.564-4.754
			c-0.547-1.783-1.497-3.423-2.559-4.946C410.411,368.322,408.784,366.361,407.846,364.83z"/>
	</g>
	<g id="POLYLINE_00000179606070910711705020000011335083717864895665_">
		<path fill="none" stroke="#FB8604" stroke-width="2" stroke-linecap="round" stroke-linejoin="round" stroke-miterlimit="10" d="
			M468.249,348.993c-1.115-1.049-2.89-1.125-4.216-0.441c-1.545,0.772-2.438,2.365-3.067,3.907c-0.655,1.639-1.061,3.385-1.308,5.13
			c-0.229,1.683-0.321,3.41-0.157,5.103c0.075,0.726,0.199,1.458,0.439,2.149c0.147,0.414,0.338,0.823,0.627,1.157
			c0.227,0.263,0.525,0.468,0.859,0.569c0.379,0.117,0.789,0.103,1.173,0.014c0.565-0.132,1.088-0.411,1.56-0.743
			c0.84-0.595,1.528-1.388,2.085-2.249c0.708-1.098,1.227-2.319,1.639-3.556c0.596-1.811,0.985-3.715,1.258-5.6
			c0.155-1.173,0.27-2.384,0.054-3.555C469.063,350.179,468.773,349.487,468.249,348.993z"/>
	</g>
	<g id="POLYLINE_00000072249911837508682830000003564674202861854645_">
		<path fill="none" stroke="#FB8604" stroke-width="2" stroke-linecap="round" stroke-linejoin="round" stroke-miterlimit="10" d="
			M520.181,344.205c-0.309-0.512-0.739-0.983-1.307-1.204c-0.674-0.27-1.415-0.086-1.994,0.32c-0.554,0.384-0.985,0.921-1.355,1.478
			c-0.638,0.979-1.105,2.069-1.477,3.175c-0.394,1.194-0.681,2.434-0.809,3.686c-0.091,0.945-0.097,1.92,0.162,2.84
			c0.16,0.57,0.435,1.11,0.813,1.565c0.435,0.526,0.992,0.942,1.581,1.279c0.842,0.471,1.817,0.825,2.794,0.689
			c0.414-0.06,0.813-0.23,1.137-0.496c0.319-0.259,0.561-0.601,0.754-0.961c0.448-0.851,0.674-1.805,0.829-2.749
			c0.302-1.977,0.278-4.009-0.007-5.987C521.104,346.59,520.825,345.309,520.181,344.205z"/>
	</g>
	<g id="POLYLINE_00000143611565746794153580000007021623798084057504_">
		<path fill="none" stroke="#FB8604" stroke-width="2" stroke-linecap="round" stroke-linejoin="round" stroke-miterlimit="10" d="
			M490.569,439.853c-3.078,1.073-6.752,2.37-9.799,0.556c-0.927-0.55-1.726-1.3-2.445-2.096c-2.465-2.774-4.675-6.857-6.792-9.909
			c-1.837-2.751-4.367-5.535-6.564-8.025c-1.722-1.978-3.434-4.051-4.655-6.383c-1.537-2.926-2.24-6.329-1.831-9.619
			c0.221-1.66,0.767-3.333,1.866-4.623c1.375-1.643,3.564-2.192,5.581-2.588c1.782-0.343,4.119-0.657,5.805-1.294
			c1.039-0.384,2.037-0.947,2.791-1.77c1.32-1.448,1.984-3.355,2.589-5.185c1.349-4.198,2.399-9.292,6.271-11.936
			c2.232-1.549,4.947-2.329,7.645-2.463c2.059-0.085,4.199,0.198,6.03,1.19c1.009,0.549,1.892,1.364,2.411,2.398
			c0.657,1.287,0.835,2.76,0.862,4.188c0.05,3.156-0.738,6.92-1.007,10.063c-0.114,1.372-0.178,2.781,0.078,4.142
			c0.142,0.74,0.394,1.462,0.739,2.133c0.745,1.487,2.058,2.817,3.146,4.061c0.755,0.865,1.453,1.805,1.908,2.865
			c1.219,2.837,1.255,6.018,1.207,9.057"/>
	</g>
	<g id="POLYLINE_00000134948591856542151120000011855754707101945013_">
		<path fill="none" stroke="#FB8604" stroke-width="2" stroke-linecap="round" stroke-linejoin="round" stroke-miterlimit="10" d="
			M250.877,313.174c-1.355,3.126-2.408,7.291,0.1,10.119c1.203,1.371,2.876,2.28,4.628,2.741c1.437,0.375,2.969,0.427,4.412,0.058
			c3.301-0.825,6.175-3.31,9.604-3.713c1.649-0.196,3.325,0.037,4.936,0.396c3.094,0.7,6.571,2.065,9.662,2.775
			c4.544,1.085,9.28,1.291,13.934,1.078c2.439-0.121,4.936-0.332,7.295-0.988c1.236-0.354,2.468-0.838,3.486-1.639
			c0.897-0.696,1.536-1.694,1.841-2.784c0.398-1.396,0.33-2.891,0.016-4.297c-0.763-3.33-2.91-6.27-5.686-8.227"/>
	</g>
	<g id="POLYLINE_00000142858044911522643680000007760665550741537726_">
		<path fill="none" stroke="#FB8604" stroke-width="2" stroke-linecap="round" stroke-linejoin="round" stroke-miterlimit="10" d="
			M233.226,366.173c-0.634,4.169-2.745,8.446-6.95,9.928c-1.505,0.544-3.12,0.772-4.717,0.761c-1.343-0.018-2.706-0.191-3.97-0.659
			c-0.774-0.279-1.467-0.739-2.048-1.32c-0.62-0.613-1.257-1.339-2.035-1.749c-1.134-0.611-2.459-0.745-3.721-0.883
			c-2.859-0.261-6.534-0.294-9.352-0.788c-1.195-0.206-2.397-0.492-3.517-0.964c-1.009-0.42-1.945-1.031-2.7-1.825
			c-0.845-0.881-1.475-1.964-1.846-3.125c-0.565-1.783-0.579-3.856,0.414-5.492c0.942-1.556,2.531-2.621,3.606-4.072
			c1.033-1.329,1.351-2.978,1.574-4.607c0.164-1.276,0.355-3.195,0.648-4.42c0.19-0.799,0.456-1.596,0.903-2.291
			c0.561-0.873,1.396-1.53,2.273-2.063c1.334-0.811,2.881-1.419,4.21-2.241c1.48-0.87,2.503-2.293,3.596-3.576
			c0.754-0.882,1.607-1.701,2.603-2.304c1.051-0.646,2.24-1.047,3.437-1.326c1.72-0.393,3.505-0.551,5.268-0.514
			c1.911,0.058,3.875,0.299,5.628,1.106c0.776,0.371,1.53,0.89,1.96,1.653c0.322,0.57,0.432,1.237,0.426,1.886
			c-0.013,1.09-0.298,2.169-0.592,3.212c-0.48,1.69-1.23,3.712-1.36,5.457c-0.065,0.807,0.028,1.627,0.269,2.4
			c0.769,2.439,2.739,4.377,4.019,6.543C233.261,358.253,233.82,362.342,233.226,366.173z"/>
	</g>
	<g id="POLYLINE_00000042698004118345642970000008990892161780906404_">
		<path fill="none" stroke="#FB8604" stroke-width="2" stroke-linecap="round" stroke-linejoin="round" stroke-miterlimit="10" d="
			M328.34,383.431c-1.575-0.887-3.369-1.329-5.118-1.733c-1.567-0.268-5.141-1.2-6.685-1.302c-0.713-0.057-1.444-0.03-2.135,0.168
			c-0.779,0.217-1.482,0.664-2.05,1.235c-0.752,0.753-1.337,1.665-1.832,2.603c-0.629,1.21-1.119,2.506-1.423,3.836
			c-0.139,0.624-0.241,1.269-0.251,1.909c-0.004,0.407,0.025,0.823,0.143,1.214c0.109,0.371,0.331,0.712,0.652,0.932
			c0.651,0.441,1.5,0.473,2.261,0.511c1.066,0.025,2.301,0.024,3.355,0.143c1.572,0.164,3.192,0.485,4.736,0.821
			c2.63,0.546,6.327,1.601,8.987,1.754c0.822,0.032,1.692,0.003,2.436-0.383c0.289-0.153,0.546-0.372,0.731-0.642
			c0.27-0.393,0.405-0.864,0.475-1.332c0.123-0.858,0.051-1.737-0.087-2.589c-0.205-1.202-0.55-2.396-1.038-3.515
			c-0.337-0.764-0.767-1.495-1.316-2.127C329.662,384.333,329.03,383.826,328.34,383.431z"/>
	</g>
	<g id="POLYLINE_00000072243926502866219400000007639317484761890215_">
		<path fill="none" stroke="#FB8604" stroke-width="2" stroke-linecap="round" stroke-linejoin="round" stroke-miterlimit="10" d="
			M323.187,363.613c-0.177-0.479-0.579-0.837-1.016-1.082c-1.022-0.555-2.269-0.707-3.418-0.671
			c-1.087,0.024-2.233,0.423-3.283,0.673c-0.569,0.133-1.158,0.214-1.742,0.23c-1.517,0.042-3.191-0.145-4.7,0.039
			c-0.66,0.081-1.325,0.232-1.919,0.539c-1.291,0.667-2.041,2.057-2.349,3.433c-0.187,0.883-0.23,1.832,0.068,2.695
			c0.172,0.493,0.48,0.934,0.877,1.272c0.635,0.542,1.436,0.846,2.229,1.074c2.09,0.575,4.318,0.644,6.447,0.256
			c1.239-0.231,2.457-0.638,3.569-1.234c1.58-0.858,2.98-2.065,4.061-3.502c0.533-0.727,1.009-1.529,1.214-2.415
			C323.32,364.491,323.342,364.03,323.187,363.613z"/>
	</g>
	<g id="POLYLINE_00000000220399306285187320000010864354849890559398_">
		<path fill="none" stroke="#FB8604" stroke-width="2" stroke-linecap="round" stroke-linejoin="round" stroke-miterlimit="10" d="
			M299.58,340.348c-0.383-0.327-0.839-0.561-1.305-0.745c-1.121-0.451-2.993-0.766-4.183-1.036c-1.258-0.284-2.53-0.664-3.601-1.404
			c-1.507-1.009-2.745-2.554-4.24-3.578c-1.391-0.986-3.076-1.373-4.765-1.347c-1.169,0.022-2.356,0.227-3.418,0.729
			c-0.641,0.307-1.246,0.744-1.628,1.354c-0.475,0.758-0.576,1.68-0.589,2.557c-0.016,1.814,0.318,3.704-0.093,5.494
			c-0.366,1.633-1.275,3.289-2.005,4.79c-0.485,1.007-0.94,2.055-1.188,3.149c-0.227,0.998-0.286,2.039-0.183,3.058
			c0.178,1.717,0.819,3.467,2.114,4.654c0.832,0.763,1.915,1.183,3,1.443c2.433,0.564,5.137,0.538,7.572,1.094
			c2.491,0.539,4.958,1.76,7.498,2.078c0.819,0.096,1.659,0.082,2.466-0.098c1.011-0.223,1.967-0.67,2.833-1.231
			c1.911-1.261,3.547-3.126,4.293-5.311c0.912-2.679-0.035-5.636-0.516-8.311c-0.323-1.676-0.363-3.541-0.815-5.191
			C300.6,341.691,300.226,340.896,299.58,340.348z"/>
	</g>
	<g id="POLYLINE_00000107546172790952482210000003958589752274438287_">
		<path fill="none" stroke="#FB8604" stroke-width="2" stroke-linecap="round" stroke-linejoin="round" stroke-miterlimit="10" d="
			M244.538,405.534c-1.103-1.91-3.004-3.369-5.104-4.022c-1.227-0.367-2.696-0.488-3.786,0.303
			c-0.663,0.482-1.098,1.211-1.406,1.958c-0.572,1.416-0.786,2.966-0.975,4.473c-0.32,2.864-0.572,6.504-1.385,9.249
			c-0.499,1.817-1.436,3.649-1.724,5.521c-0.094,0.684-0.063,1.433,0.333,2.022c0.359,0.533,0.935,0.876,1.518,1.118
			c1.271,0.505,2.67,0.627,4.027,0.562c1.094-0.064,2.2-0.261,3.206-0.707c0.69-0.305,1.324-0.737,1.86-1.268
			c0.735-0.723,1.292-1.611,1.75-2.529c0.613-1.244,1.096-2.581,1.526-3.899c0.819-2.592,1.414-5.312,1.345-8.043
			C245.673,408.636,245.355,406.968,244.538,405.534z"/>
	</g>
	<g id="POLYLINE_00000097500054419320384330000006483283113260085891_">
		<path fill="none" stroke="#FB8604" stroke-width="2" stroke-linecap="round" stroke-linejoin="round" stroke-miterlimit="10" d="
			M235.946,447.391c-1.526,0.084-3.118,0.043-4.644-0.05c-2.118-0.179-9.276-0.642-11.241-0.94c-1.849-0.277-3.72-0.769-5.295-1.812
			c-2.526-1.666-3.855-4.634-4.384-7.529c-0.417-2.416-0.307-4.998,0.696-7.261c0.595-1.329,1.528-2.48,2.544-3.511
			c1.77-1.818,4.114-3.504,5.463-5.685c0.509-0.817,0.853-1.734,1.026-2.681c0.466-2.62-0.104-5.381-1.301-7.735
			c-0.384-0.738-0.844-1.448-1.393-2.073c-0.437-0.5-0.947-0.944-1.476-1.345c-0.7-0.529-1.614-1.104-2.264-1.692
			c-0.422-0.384-0.788-0.852-0.955-1.405c-0.121-0.386-0.139-0.798-0.107-1.199c0.04-0.498,0.151-0.994,0.281-1.475
			c0.332-1.253,1.238-3.527,1.672-4.757c0.431-1.262,0.85-2.567,0.915-3.908c0.042-0.855-0.113-1.723-0.609-2.436
			c-0.652-0.954-1.666-1.585-2.675-2.107c-2.479-1.252-5.405-2.007-7.788-3.45c-0.944-0.571-1.783-1.311-2.519-2.13
			c-1.177-1.293-2.289-3.051-3.505-4.309c-0.722-0.752-1.561-1.405-2.51-1.843c-2.23-1.01-4.808-1.135-7.209-0.823
			c-1.32,0.184-2.634,0.525-3.852,1.072c-0.931,0.42-1.819,0.968-2.545,1.692c-0.937,0.93-1.543,2.141-1.951,3.385
			c-0.635,1.896-0.926,4.311-1.565,6.206c-0.415,1.267-1.104,2.438-1.963,3.456c-1.354,1.621-3.161,2.955-4.846,4.217"/>
	</g>
</g>
<g id="_x32_D_x24_AG-ANIMALS">
	<g id="POLYLINE_00000047772592297982679500000011406396990715186358_">
		
			<path fill="none" stroke="#FB8604" stroke-width="2.75" stroke-linecap="round" stroke-linejoin="round" stroke-miterlimit="10" d="
			M515.452,203.97c-2.244,3.493-39.499,60.6-40.965,62.548c-1.7,2.366-3.472,4.744-5.412,6.907c-1.877,2.118-3.95,4.13-6.135,5.928
			c-6.148,5.057-13.313,8.831-20.813,11.452c-8.409,2.913-18.561,5.125-26.906,8.197c-5.625,1.986-15.713,6.255-21.313,8.174
			c-1.315,0.447-2.708,0.879-4.055,1.212c-6.014,1.503-12.551,1.216-18.714,1.174c-36.252-0.792-76.554-2.54-112.408,2.27
			c-8.825,1.248-17.678,3.412-26.139,6.207c-7.269,2.389-14.671,5.257-21.596,8.514c-9.165,4.342-18.227,9.623-24.831,17.473
			c-3.055,3.59-5.537,7.677-7.526,11.944c-2.099,4.482-3.705,9.251-4.775,14.083c-1.847,8.206-2.175,16.742-1.919,25.127
			c0.333,9.329,1.264,24.806,0.847,33.926c-0.19,5.082-0.723,10.267-1.556,15.284c-2.982,17.703-9.53,34.844-18.761,50.224
			c-2.527,4.176-5.409,8.395-8.384,12.263c-2.972,3.915-7.957,9.701-11.145,13.501c-1.961,2.399-3.913,4.901-5.27,7.7
			c-2.418,4.877-2.591,10.471-2.632,15.812l0.242,15.559c0.02,9.089-0.448,18.437-1.86,27.419c-0.194,1.184-1.016,6.194-1.169,7.281
			c-0.286,2.006-0.493,4.074-0.284,6.097c0.158,1.564,0.552,3.133,1.345,4.501c0.3,0.515,0.667,0.999,1.123,1.385
			c0.418,0.357,0.91,0.625,1.429,0.806c0.776,0.271,1.606,0.376,2.423,0.439c0.246,0.026,0.641,0.033,0.891,0.048
			c0.202,0.025,0.952,0.011,1.175,0.026c0,0,25.11,0.006,25.11,0.006c1.14-0.011,2.362,0.022,3.425-0.45
			c0.623-0.273,1.139-0.769,1.43-1.384c0.455-0.97,0.555-2.066,0.591-3.124c0.027-1.765-0.171-3.552-0.626-5.259
			c-0.189-0.674-0.443-1.339-0.815-1.934c-0.334-0.538-0.769-1.013-1.263-1.408c-0.927-0.736-2.013-1.254-3.101-1.705
			c-2.036-0.865-4.492-1.391-6.587-2.097c-1.396-0.499-2.825-1.216-3.65-2.498c-0.669-1.028-0.964-2.253-1.139-3.454
			c-0.316-2.318-0.209-4.717-0.071-7.047c0.344-4.972,1.066-10.033,1.992-14.929c0.778-4.019,1.722-8.107,3.381-11.865
			c1.054-2.406,2.413-4.688,4.01-6.772c2.542-3.32,5.696-6.22,8.813-8.993c16.223-13.836,35.798-30.011,50.167-45.52
			c3.869-4.177,7.587-8.636,10.728-13.39c1.872-2.826,3.595-5.858,5.076-8.906c1.807-3.587,4.598-10.793,6.156-14.609
			c2.593-6.356,5.429-12.878,8.822-18.845c4.445-7.845,10.133-15.309,17.915-20.08c6.535-4.091,14.173-6.077,21.791-6.836
			c6.417-0.644,12.993-0.526,19.388,0.304c5.193,0.692,10.379,1.86,15.251,3.812"/>
	</g>
	<g id="POLYLINE_00000109714376449134943700000005875084408448608674_">
		
			<path fill="none" stroke="#FB8604" stroke-width="2.75" stroke-linecap="round" stroke-linejoin="round" stroke-miterlimit="10" d="
			M556.14,189.635c-0.378,2.256-0.917,4.985-0.898,7.261c-0.018,1.853,0.293,3.71,0.724,5.507l1.611,6.294
			c0.579,2.444,1.036,4.964,0.987,7.485c-0.08,4.175-1.719,8.453-2.916,12.419c-0.675,2.236-1.28,4.56-1.571,6.877
			c-0.251,1.939-0.266,3.949-0.199,5.902c0.091,3.045,0.513,6.831,0.426,9.871c-0.04,1.115-0.141,2.251-0.458,3.325
			c-0.218,0.735-0.557,1.446-1.07,2.02c-0.577,0.655-1.35,1.138-2.195,1.362c-1.032,0.28-2.196,0.153-3.086-0.462
			c-0.729-0.502-1.237-1.259-1.637-2.035c-0.712-1.405-1.155-2.993-1.583-4.506c-0.912-3.406-1.846-7.138-3.39-10.309
			c-2.374-4.988-5.869-9.469-10.206-12.899c-0.926-0.728-1.917-1.423-2.923-2.037c-1.565-0.984-4.457-2.39-6.103-3.251
			c-1.594-0.851-3.196-1.782-4.492-3.056c-0.864-0.845-1.57-1.859-2.022-2.983c-0.726-1.801-0.916-3.777-0.858-5.705
			c0.136-3.637,1.12-7.221,2.579-10.543c1.72-3.911,4.27-7.49,7.583-10.208c2.665-2.213,5.745-3.903,8.92-5.265
			c2.849-1.205,5.863-2.249,8.845-3.071c1.909-0.467,3.912-0.695,5.869-0.855c3.398-0.264,6.949-0.28,10.357-0.154
			c4.098,0.203,8.331,0.457,12.342,1.361c2.877,0.668,5.731,1.635,8.468,2.739c2.478,1.018,4.952,2.197,7.2,3.659
			c2.225,1.44,4.255,3.204,6.002,5.196c2.544,2.84,5.154,7.204,7.274,10.393c0.809,1.189,1.646,2.415,2.702,3.398
			c0.753,0.705,1.632,1.273,2.556,1.728c1.141,0.562,2.376,0.995,3.588,1.378c7.718,2.306,18.5,4.352,26.074,7.021
			c1.745,0.64,8.873,3.031,10.436,3.737"/>
	</g>
	<g id="POLYLINE_00000049192868317500528340000002773736969344929721_">
		
			<path fill="none" stroke="#FB8604" stroke-width="2.75" stroke-linecap="round" stroke-linejoin="round" stroke-miterlimit="10" d="
			M589.921,270.579c-4.516,0.465-9.073,1.611-12.933,4.074c-2.409,1.513-4.697,3.501-6.85,5.363
			c-4.168,3.645-8.285,7.611-11.952,11.757c-5.101,5.747-9.622,12.102-13.05,18.99c-4.435,8.764-7.156,18.377-9.263,27.939
			c-2.448,10.943-5.108,26.694-8.036,37.468c-1.787,6.528-4.148,12.985-7.423,18.922c-4.42,8.277-12.441,17.453-18.257,24.835
			c-3.401,4.386-6.768,8.954-9.187,13.965c-3.401,6.992-4.813,14.811-5.947,22.448c-1.219,8.444-2.181,18.874-2.95,27.419
			c-1.453,17.884-2.925,38.775-3.392,56.622c-0.188,7.849-0.227,16.091,0.271,23.925c0.339,4.938,0.874,10.021,2.078,14.829
			c0.474,1.75,1.049,3.63,2.48,4.842c0.885,0.746,2.007,1.136,3.115,1.419c1.685,0.451,4.794,0.853,6.533,1.163
			c1.845,0.336,3.739,0.71,5.429,1.551c1.239,0.614,2.344,1.514,3.161,2.633c0.958,1.299,1.546,2.836,1.958,4.386
			c0.509,1.951,0.789,3.979,0.893,5.991c0.055,1.306,0.061,2.643-0.17,3.934c-0.11,0.564-0.274,1.141-0.626,1.605
			c-0.206,0.272-0.489,0.486-0.809,0.605c-0.419,0.16-0.877,0.182-1.321,0.19l-33.241,0.002L470,607.455
			c-0.227-0.003-0.478-0.008-0.704-0.027c-0.352-0.028-0.709-0.088-1.037-0.222c-0.374-0.15-0.7-0.406-0.95-0.721
			c-0.427-0.538-0.674-1.196-0.87-1.848c-0.47-1.625-0.644-3.399-0.818-5.08c-0.52-5.471-0.781-11.652-2.033-16.984
			c-0.334-1.359-0.751-2.723-1.403-3.966c-0.533-1.023-1.233-1.962-2.056-2.77c-1.04-1.044-2.429-1.944-3.563-2.883
			c-0.706-0.588-1.358-1.266-1.816-2.068c-0.455-0.784-0.71-1.67-0.857-2.56c-0.171-1.032-0.218-2.101-0.226-3.146
			c0.072-5.914,1.162-16.003,1.392-21.913c0.749-16.726,0.638-34.244,0.071-50.974c-0.5-11.423-1.104-23.332-3.257-34.571
			c-0.679-3.409-1.9-7.907-1.884-11.352c-0.013-1.805,0.199-4.4,0.259-6.217c0.054-1.615,0.036-3.288-0.112-4.898
			c-0.398-4.641-1.978-9.15-4.406-13.115c-3.828-6.292-9.95-11.387-17.573-11.671"/>
	</g>
	<g id="POLYLINE_00000170245426138320721250000002131079585279697579_">
		
			<path fill="none" stroke="#FB8604" stroke-width="2.75" stroke-linecap="round" stroke-linejoin="round" stroke-miterlimit="10" d="
			M559.36,264.548c5.254-0.239,10.642-0.337,15.87,0.298c2.21,0.279,4.432,0.712,6.541,1.436c1.675,0.568,3.288,1.363,4.809,2.263
			l8.966,5.484c1.882,1.098,3.832,2.213,5.879,2.97c1.391,0.511,2.882,0.839,4.369,0.716c2.075-0.155,3.953-1.198,5.624-2.373
			c1.802-1.277,3.472-2.796,5.048-4.341c1.168-1.143,2.865-2.991,4.187-3.931c1.386-1.023,3.086-1.489,4.738-1.885
			c2.063-0.367,4.139-0.864,6.047-1.748c2.506-1.141,4.742-2.874,6.462-5.025c2.779-3.425,3.994-7.883,5.901-11.793
			c0.965-1.95,2.42-4.692,3.122-6.736c0.656-1.825,1.093-3.759,1.411-5.671"/>
	</g>
	<g id="POLYLINE_00000070094513558980624510000017195438526755976586_">
		
			<path fill="none" stroke="#FB8604" stroke-width="2.75" stroke-linecap="round" stroke-linejoin="round" stroke-miterlimit="10" d="
			M247.432,425.998c10.42,1.815,21.534,3.294,32.075,4.088c10.298,0.841,24.005,0.956,34.294,1.939
			c13.104,1.233,26.29,3.883,39.006,7.262c9.632,2.608,22.839,6.502,32.501,8.352c9.14,1.79,18.527,2.942,27.849,2.867
			c12.528-0.073,25.042-2.5,36.894-6.496"/>
	</g>
	<g id="POLYLINE_00000099648345799150976040000006216964750272780700_">
		
			<path fill="none" stroke="#FB8604" stroke-width="2.75" stroke-linecap="round" stroke-linejoin="round" stroke-miterlimit="10" d="
			M185.692,344.593c-6.628,3.899-13.147,8.202-19.015,13.185c-5.484,4.664-10.477,10.084-14.009,16.39
			c-4.226,7.355-6.051,16.035-8.022,24.211c-2.395,10.393-9.242,43.142-12.048,52.811c-1.366,4.817-3.012,9.69-5.019,14.275
			c-5.096,11.833-14.044,23.979-21.168,34.738c-2.669,4.127-5.346,8.417-7.176,12.991c-0.644,1.699-1.257,3.536-1.193,5.372
			c0.03,0.548,0.133,1.112,0.427,1.584c0.214,0.348,0.556,0.618,0.953,0.722c0.607,0.161,1.247,0.006,1.815-0.226
			c0.602-0.249,1.161-0.608,1.685-0.994c0.893-0.664,1.734-1.454,2.525-2.236c1.258-1.235,2.767-2.943,3.953-4.27
			c3.773-4.313,8.915-10.384,12.573-14.816c4.405-5.447,9.056-11.16,12.641-17.185c4.247-7.179,6.972-15.383,9.743-23.221
			c4.844-14.204,9.345-29.014,12.446-43.706c1.257-5.622,3.424-18.341,4.828-23.918c0.762-2.98,1.754-5.973,3.016-8.781
			c2.41-5.413,5.901-10.324,9.988-14.599"/>
	</g>
	<g id="POLYLINE_00000061446379587951173130000012665527471917125283_">
		
			<path fill="none" stroke="#FB8604" stroke-width="2.75" stroke-linecap="round" stroke-linejoin="round" stroke-miterlimit="10" d="
			M643.137,221.995c-0.941,0.529-1.864,1.127-2.647,1.874c-0.5,0.479-0.949,1.028-1.243,1.659c-0.279,0.597-0.397,1.263-0.375,1.92
			c0.035,1.042,0.389,2.053,0.88,2.965c0.624,1.146,1.468,2.168,2.417,3.06c0.673,0.626,1.412,1.198,2.229,1.625
			c0.494,0.253,1.026,0.46,1.583,0.51c0.365,0.033,0.739-0.022,1.073-0.175c0.42-0.189,0.767-0.513,1.044-0.877
			c0.562-0.749,0.885-1.65,1.124-2.548c0.387-1.521,0.534-3.111,0.487-4.679c-0.038-1.013-0.154-2.041-0.449-3.014
			c-0.197-0.652-0.499-1.284-0.957-1.795c-0.526-0.598-1.252-1-2.023-1.181c-0.364-0.085-0.74-0.143-1.114-0.119
			C644.432,221.27,643.77,221.65,643.137,221.995z"/>
	</g>
</g>
<g id="_x32_D_x24_AG-OUTLINE">
	<g id="POLYLINE_00000098920219386004396790000007159027697049775004_">
		
			<path fill="none" stroke="#FB8604" stroke-width="3.5" stroke-linecap="round" stroke-linejoin="round" stroke-miterlimit="10" d="
			M648.334,234.213c0.837-1.392,1.146-3.096,1.309-4.694c0.1-1.108,0.104-2.243-0.018-3.35c-0.089-0.778-0.237-1.561-0.517-2.294
			c-0.274-0.721-0.721-1.387-1.344-1.851c-0.478-0.361-1.044-0.596-1.629-0.717c-0.347-0.072-0.705-0.116-1.059-0.079
			c-0.507-0.227-1.124-0.462-1.648-0.654c-2.059-0.714-6.694-2.344-8.787-3.082c-7.555-2.664-18.368-4.719-26.073-7.021
			c-1.212-0.384-2.447-0.816-3.588-1.378c-0.924-0.454-1.803-1.023-2.556-1.728c-1.057-0.983-1.894-2.21-2.702-3.398
			c-2.291-3.463-4.959-7.937-7.77-10.942c-2.131-2.325-4.668-4.276-7.426-5.802c-2.356-1.31-4.895-2.402-7.425-3.331
			c-2.234-0.809-4.56-1.538-6.884-2.035c-1.891-0.409-3.914-0.656-5.842-0.839c-3.318-0.312-6.867-0.485-10.201-0.476
			c-3.708,0.035-7.497,0.177-11.142,0.9c-1.795,0.379-3.648,1.036-5.388,1.612c-2.878,1-5.764,2.182-8.426,3.67
			c-2.858,1.59-5.519,3.597-7.686,6.056c-2.832,3.209-4.838,7.108-6.081,11.19c-3.418,5.049-40.171,62.002-42.739,64.984
			c-1.994,2.653-4.179,5.226-6.566,7.535c-2.434,2.358-5.136,4.502-7.95,6.388c-3.855,2.581-8.024,4.754-12.317,6.509
			c-5.726,2.443-17.243,5.405-23.312,7.2c-9.573,2.77-19.846,7.53-29.27,10.795c-2.799,0.942-5.724,1.622-8.666,1.905
			c-3,0.305-6.261,0.331-9.284,0.325c-12.541-0.161-43.294-1.074-55.521-1.05c-11.922-0.014-25.546,0.31-37.446,1.02
			c-11.129,0.708-22.541,1.663-33.459,3.995c-11.345,2.453-22.525,6.276-33.19,10.836c-11.054,4.861-22.27,10.673-30.04,20.181
			c-6.628,3.899-13.147,8.202-19.015,13.185c-5.484,4.664-10.477,10.084-14.009,16.39c-4.226,7.355-6.051,16.035-8.022,24.211
			c-2.395,10.393-9.242,43.142-12.048,52.811c-1.366,4.817-3.012,9.69-5.019,14.275c-5.096,11.833-14.044,23.979-21.168,34.738
			c-2.669,4.127-5.346,8.417-7.176,12.991c-0.644,1.699-1.257,3.536-1.193,5.372c0.03,0.548,0.133,1.112,0.427,1.584
			c0.214,0.348,0.556,0.618,0.953,0.722c0.607,0.161,1.247,0.006,1.815-0.226c0.602-0.249,1.161-0.608,1.685-0.994
			c0.893-0.664,1.734-1.454,2.525-2.236c1.258-1.235,2.767-2.943,3.953-4.27c3.773-4.313,8.915-10.384,12.573-14.816
			c4.405-5.447,9.056-11.16,12.641-17.185c4.247-7.179,6.972-15.383,9.743-23.221c4.844-14.204,9.345-29.014,12.446-43.706
			c1.257-5.622,3.424-18.341,4.828-23.918c0.762-2.98,1.754-5.973,3.016-8.781c2.41-5.413,5.901-10.324,9.988-14.599
			c-2.508,9.191-2.993,18.86-2.688,28.344c0.419,14.113,1.856,29.652,0.07,43.672c-2.421,19.65-9.382,38.721-19.541,55.678
			c-2.526,4.175-5.409,8.396-8.384,12.263c-2.997,3.954-7.939,9.673-11.145,13.501c-1.961,2.399-3.913,4.901-5.27,7.7
			c-2.418,4.877-2.591,10.471-2.632,15.812l0.242,15.559c0.02,9.089-0.448,18.437-1.86,27.419c-0.194,1.184-1.016,6.194-1.169,7.281
			c-0.286,2.006-0.493,4.074-0.284,6.097c0.158,1.564,0.552,3.133,1.345,4.501c0.3,0.515,0.667,0.999,1.123,1.385
			c0.418,0.357,0.91,0.625,1.429,0.806c0.776,0.271,1.606,0.376,2.423,0.439c0.246,0.026,0.641,0.033,0.891,0.048
			c0.202,0.025,0.952,0.011,1.175,0.026c0,0,25.11,0.006,25.11,0.006c1.14-0.011,2.362,0.022,3.425-0.45
			c0.623-0.273,1.139-0.769,1.43-1.384c0.455-0.97,0.555-2.066,0.591-3.124c0.027-1.765-0.171-3.552-0.626-5.259
			c-0.189-0.674-0.443-1.339-0.815-1.934c-0.334-0.538-0.769-1.013-1.263-1.408c-0.927-0.736-2.013-1.254-3.101-1.705
			c-2.036-0.865-4.492-1.391-6.587-2.097c-1.396-0.499-2.825-1.216-3.65-2.498c-0.669-1.028-0.964-2.253-1.139-3.454
			c-0.316-2.318-0.209-4.717-0.071-7.047c0.344-4.972,1.066-10.033,1.992-14.929c0.778-4.019,1.722-8.107,3.381-11.865
			c1.054-2.406,2.413-4.688,4.01-6.772c2.542-3.32,5.696-6.22,8.813-8.993c16.176-13.812,35.831-30.03,50.167-45.52
			c3.868-4.176,7.588-8.637,10.728-13.39c2.048-3.091,3.904-6.409,5.486-9.762c2.447-5.173,5.435-13.208,7.708-18.474
			c3.173-7.411,6.774-14.828,11.486-21.393c10.427,1.816,21.529,3.293,32.075,4.088c9.368,0.766,22.652,0.973,32.042,1.737
			c9.709,0.804,19.668,2.419,29.186,4.518c12.057,2.596,26.821,7.308,38.843,10.072c8.206,1.878,16.701,3.283,25.101,3.842
			c7.118,0.478,14.384,0.28,21.461-0.633c8.091-1.037,16.182-3.017,23.911-5.611c-0.087,1.564-0.097,3.195,0.083,4.75
			c0.223,2.274,1.28,6.673,1.739,8.959c2.152,11.235,2.757,23.151,3.257,34.571c0.567,16.73,0.678,34.249-0.071,50.974
			c-0.23,5.909-1.32,16-1.392,21.913c0.008,1.045,0.055,2.114,0.226,3.146c0.147,0.89,0.402,1.776,0.857,2.56
			c0.458,0.803,1.109,1.48,1.816,2.068c1.135,0.939,2.522,1.838,3.563,2.883c0.823,0.808,1.523,1.747,2.056,2.77
			c0.652,1.242,1.069,2.607,1.403,3.966c1.251,5.323,1.517,11.53,2.033,16.984c0.189,1.738,0.352,3.568,0.868,5.242
			c0.197,0.62,0.449,1.242,0.87,1.745c0.228,0.271,0.515,0.494,0.84,0.635c0.467,0.206,0.987,0.252,1.492,0.268
			c0.052,0.005,0.252,0.003,0.31,0.006c0.184-0.015,33.515,0.013,33.673-0.001c0.246-0.005,0.509-0.013,0.753-0.049
			c0.435-0.058,0.869-0.218,1.185-0.53c0.57-0.568,0.755-1.399,0.876-2.168c0.225-1.646,0.158-3.336,0.012-4.987
			c-0.189-1.929-0.523-3.873-1.127-5.717c-0.614-1.885-1.641-3.696-3.233-4.919c-1.988-1.561-4.548-2.085-6.981-2.526
			c-2.03-0.353-5.201-0.751-7.152-1.333c-0.812-0.246-1.617-0.572-2.297-1.089c-0.567-0.427-1.03-0.979-1.388-1.59
			c-0.69-1.179-1.069-2.531-1.402-3.848c-1.665-7.052-2.071-14.492-2.289-21.718c-0.439-23.759,1.605-49.472,3.442-73.221
			c1.175-12.234,2.161-25.461,4.742-37.46c1.006-4.515,2.412-9.004,4.515-13.134c1.98-3.921,4.541-7.599,7.182-11.099
			c5.17-6.825,12.317-14.888,16.959-22.062c2.285-3.507,4.315-7.264,5.974-11.108c1.942-4.485,3.472-9.226,4.722-13.948
			c3.286-12.647,5.887-29.333,9.062-42.008c2.044-8.278,4.832-16.503,8.869-24.034c5.921-11.139,14.585-20.635,24.041-28.889
			c2.578-2.219,5.329-4.632,8.357-6.24c3.517-1.874,7.484-2.787,11.426-3.197l5.221,3.21c1.963,1.154,4.005,2.346,6.136,3.156
			c1.395,0.526,2.889,0.879,4.388,0.78c2.123-0.122,4.049-1.182,5.753-2.383c1.802-1.277,3.472-2.796,5.048-4.341
			c1.198-1.171,2.898-3.033,4.263-3.985c1.371-0.987,3.04-1.44,4.662-1.831c2.063-0.367,4.139-0.864,6.047-1.748
			c2.506-1.141,4.742-2.874,6.462-5.025c2.779-3.425,3.994-7.883,5.901-11.793c0.965-1.95,2.42-4.692,3.122-6.736
			C647.579,238.058,648.016,236.124,648.334,234.213z"/>
	</g>
</g>
</svg>
