<?xml version="1.0" encoding="utf-8"?>
<!-- Generator: Adobe Illustrator 25.4.1, SVG Export Plug-In . SVG Version: 6.00 Build 0)  -->
<!DOCTYPE svg PUBLIC "-//W3C//DTD SVG 1.1//EN" "http://www.w3.org/Graphics/SVG/1.1/DTD/svg11.dtd" [
	<!ENTITY ns_extend "http://ns.adobe.com/Extensibility/1.0/">
	<!ENTITY ns_ai "http://ns.adobe.com/AdobeIllustrator/10.0/">
	<!ENTITY ns_graphs "http://ns.adobe.com/Graphs/1.0/">
	<!ENTITY ns_vars "http://ns.adobe.com/Variables/1.0/">
	<!ENTITY ns_imrep "http://ns.adobe.com/ImageReplacement/1.0/">
	<!ENTITY ns_sfw "http://ns.adobe.com/SaveForWeb/1.0/">
	<!ENTITY ns_custom "http://ns.adobe.com/GenericCustomNamespace/1.0/">
	<!ENTITY ns_adobe_xpath "http://ns.adobe.com/XPath/1.0/">
]>
<svg version="1.1" xmlns:x="&ns_extend;" xmlns:i="&ns_ai;" xmlns:graph="&ns_graphs;"
	 xmlns="http://www.w3.org/2000/svg" xmlns:xlink="http://www.w3.org/1999/xlink" x="0px" y="0px" width="750px" height="750px"
	 viewBox="0 0 750 750" enable-background="new 0 0 750 750" xml:space="preserve">
<metadata>
	<sfw  xmlns="&ns_sfw;">
		<slices></slices>
		<sliceSourceBounds  bottomLeftOrigin="true" height="10319.275" width="5527" x="-2000" y="-1314"></sliceSourceBounds>
	</sfw>
</metadata>
<g id="FILL-BACKGROUND">
	<rect fill="#FFFFFF" width="750" height="750"/>
</g>
<g id="N-DIMENSIONS">
</g>
<g id="N-TEXT">
</g>
<g id="_x32_D_x24_AG-DIAGRAM">
	<g id="POLYLINE_00000047749881693897421750000001324008180405557929_">
		<g>
			<g>
				
					<line fill="none" stroke="#FB8604" stroke-width="3.25" stroke-linecap="round" stroke-linejoin="round" x1="113.14" y1="621.712" x2="115.14" y2="621.712"/>
				
					<line fill="none" stroke="#FB8604" stroke-width="3.25" stroke-linecap="round" stroke-linejoin="round" stroke-dasharray="4.0325,7.0568" x1="122.196" y1="621.712" x2="528.972" y2="621.712"/>
				
					<line fill="none" stroke="#FB8604" stroke-width="3.25" stroke-linecap="round" stroke-linejoin="round" x1="532.5" y1="621.712" x2="534.5" y2="621.712"/>
			</g>
		</g>
	</g>
</g>
<g id="_x32_D_x24_AG-DETAILS-DIAGRAM">
</g>
<g id="_x32_D_x24_AG-DETAILS">
	<g id="POLYLINE_00000085968100895007163700000001480197910956456344_">
		<path fill="none" stroke="#FB8604" stroke-width="2" stroke-linecap="round" stroke-linejoin="round" stroke-miterlimit="10" d="
			M165.134,421.422c3.964,2.325,8.662,4.371,13.328,3.261c2.054-0.456,4.102-1.541,6.136-2.061c0.525-0.113,1.108-0.198,1.608,0.045
			l0.023,0.012l0.023,0.012l0.023,0.013l0.022,0.013l0.022,0.014l0.022,0.014l0.022,0.015l0.021,0.015l0.021,0.016l0.021,0.016
			l0.02,0.017l0.02,0.017l0.02,0.018l0.02,0.018l0.019,0.019l0.019,0.019l0.019,0.019l0.019,0.02l0.018,0.02l0.018,0.021
			l0.018,0.021c0.459,0.586,0.564,1.37,0.636,2.091c0.236,3.535-0.894,10.158-1.237,13.767c-0.283,2.736-0.532,5.654-0.562,8.401
			c-0.009,1.539,0.027,3.123,0.282,4.642c0.169,0.907,0.38,1.866,0.969,2.601l0.026,0.03l0.026,0.029l0.026,0.028l0.027,0.028
			l0.027,0.027l0.027,0.026l0.027,0.025l0.028,0.025l0.028,0.024l0.028,0.023l0.029,0.022l0.029,0.022l0.029,0.021l0.03,0.02
			l0.03,0.019l0.03,0.018l0.031,0.018l0.031,0.017l0.031,0.016l0.032,0.015l0.032,0.014l0.032,0.014l0.033,0.013l0.033,0.012
			l0.033,0.011l0.034,0.01l0.034,0.009l0.034,0.009l0.035,0.008l0.035,0.007l0.035,0.006l0.036,0.005l0.036,0.004l0.036,0.003
			l0.037,0.003l0.037,0.002l0.037,0.001l0.038,0c0.374-0.008,0.736-0.131,1.077-0.278c0.744-0.332,1.433-0.812,2.096-1.282
			c1.069-0.76,2.469-1.923,3.64-2.489c0.251-0.116,0.517-0.217,0.794-0.244l0.023-0.002l0.023-0.001l0.023-0.001l0.023-0.001
			l0.023,0l0.022,0l0.022,0.001l0.022,0.001l0.022,0.002l0.022,0.002l0.021,0.003l0.021,0.003l0.021,0.004l0.021,0.004l0.02,0.005
			l0.02,0.005l0.02,0.006l0.02,0.006l0.019,0.007l0.019,0.007l0.019,0.008l0.019,0.008l0.018,0.009l0.018,0.009l0.018,0.01
			l0.017,0.01l0.017,0.01l0.017,0.011l0.017,0.012l0.016,0.012l0.016,0.012l0.016,0.013l0.016,0.013l0.016,0.014l0.015,0.014
			l0.015,0.015l0.015,0.015l0.015,0.016l0.014,0.016l0.014,0.017l0.014,0.017l0.014,0.018l0.014,0.018l0.013,0.018
			c0.155,0.22,0.247,0.478,0.32,0.735c0.357,1.431,0.328,3.075,0.513,4.535c0.077,0.627,0.173,1.266,0.386,1.863
			c0.115,0.314,0.266,0.625,0.5,0.868l0.019,0.019l0.019,0.018l0.019,0.018l0.019,0.017l0.02,0.017l0.02,0.017l0.02,0.016
			l0.02,0.016l0.018,0.014l0.019,0.013l0.019,0.013l0.019,0.013l0.019,0.012l0.02,0.012l0.02,0.012
			c0.289,0.166,0.63,0.214,0.959,0.21c1.089-0.032,2.225-0.475,3.287-0.687c0.873-0.179,1.955-0.314,2.638,0.388l0.032,0.034
			l0.032,0.035l0.031,0.036l0.03,0.038l0.03,0.039l0.029,0.04l0.029,0.041l0.028,0.042l0.027,0.043l0.027,0.045l0.026,0.046
			l0.026,0.047l0.025,0.048c0.309,0.613,0.442,1.301,0.537,1.976c0.206,1.589,0.17,3.254,0.127,4.855
			c-0.084,3.01-0.526,7.831-0.16,10.777c0.085,0.615,0.201,1.243,0.469,1.808l0.023,0.047l0.024,0.046l0.024,0.045l0.025,0.044
			l0.026,0.043l0.026,0.042l0.027,0.04l0.027,0.039l0.028,0.038l0.028,0.037l0.029,0.036l0.03,0.035l0.03,0.033l0.031,0.032
			l0.031,0.031l0.032,0.03l0.033,0.028l0.033,0.027l0.034,0.026l0.034,0.025l0.035,0.023l0.036,0.022l0.036,0.021l0.024,0.013
			l0.024,0.012l0.024,0.011l0.024,0.011l0.025,0.01l0.025,0.01l0.025,0.009l0.025,0.009l0.026,0.008l0.026,0.008l0.026,0.007
			l0.026,0.007l0.026,0.006l0.027,0.006l0.027,0.005l0.027,0.005l0.027,0.004l0.028,0.004c0.354,0.046,0.714-0.02,1.055-0.116
			c1.389-0.425,2.73-1.347,4-2.037c0.613-0.324,1.337-0.749,2.036-0.805l0.023-0.001l0.023,0l0.023,0l0.022,0l0.022,0.001
			l0.022,0.001l0.022,0.002l0.021,0.002l0.021,0.003l0.021,0.003l0.02,0.004l0.02,0.004l0.02,0.004l0.02,0.005l0.019,0.005
			l0.019,0.006l0.019,0.006l0.018,0.007l0.018,0.007l0.018,0.008l0.017,0.008l0.017,0.009l0.017,0.009l0.017,0.01l0.016,0.01
			l0.016,0.011l0.016,0.012l0.015,0.012l0.015,0.013l0.02,0.018l0.019,0.019l0.018,0.02l0.018,0.021l0.017,0.022l0.017,0.023
			l0.016,0.024l0.016,0.025l0.015,0.025l0.014,0.026l0.014,0.027l0.013,0.028l0.013,0.029l0.012,0.03l0.012,0.031l0.011,0.032
			l0.011,0.033l0.01,0.034l0.01,0.034l0.009,0.035l0.009,0.036c0.076,0.34,0.079,0.696,0.068,1.042
			c-0.079,1.567-0.48,3.212-0.817,4.744c-0.465,2.112-1.332,5.258-1.508,7.389c-0.027,0.394-0.041,0.8,0.034,1.19l0.007,0.035
			l0.008,0.035l0.008,0.034l0.009,0.033l0.009,0.032l0.01,0.031l0.011,0.03l0.011,0.029l0.012,0.028l0.012,0.027l0.013,0.027
			l0.013,0.026l0.014,0.025l0.014,0.024l0.015,0.023l0.015,0.022l0.016,0.021l0.017,0.02l0.008,0.009l0.008,0.008l0.008,0.008
			l0.008,0.008l0.008,0.008l0.008,0.008l0.008,0.007l0.008,0.007l0.008,0.007l0.009,0.007l0.009,0.007l0.009,0.007l0.009,0.006
			l0.009,0.006l0.009,0.006l0.009,0.006l0.009,0.006l0.009,0.006l0.01,0.005l0.01,0.005c0.147,0.077,0.317,0.093,0.48,0.085
			c0.446-0.025,0.97-0.223,1.399-0.348c0.287-0.078,0.604-0.184,0.901-0.115l0.009,0.003l0.009,0.003l0.009,0.003l0.009,0.003
			l0.009,0.003l0.008,0.003l0.008,0.003l0.008,0.004l0.008,0.004l0.008,0.004l0.008,0.004l0.008,0.004l0.008,0.004l0.008,0.004
			l0.007,0.005l0.007,0.005l0.007,0.005l0.007,0.005l0.007,0.005l0.007,0.005l0.007,0.006l0.012,0.01l0.011,0.011l0.011,0.012
			l0.01,0.012l0.01,0.013l0.01,0.013l0.009,0.014l0.009,0.014l0.009,0.015l0.008,0.015l0.008,0.016l0.008,0.016l0.007,0.017
			l0.007,0.017l0.007,0.018l0.006,0.018l0.006,0.019l0.005,0.019l0.005,0.02l0.005,0.02l0.005,0.02l0.004,0.021l0.004,0.021
			c0.033,0.2,0.025,0.407,0.008,0.608c-0.063,0.644-0.232,1.299-0.391,1.925c-0.453,1.761-1.173,3.847-1.311,5.654
			c-0.017,0.346-0.013,0.704,0.091,1.038l0.008,0.025l0.009,0.025c0.216,0.626,0.855,0.83,1.444,0.956l0.645,0.135
			c0.497,0.11,1.027,0.268,1.368,0.67l0.018,0.022l0.018,0.022l0.017,0.022l0.017,0.023l0.017,0.023l0.016,0.024
			c0.215,0.32,0.321,0.701,0.38,1.079c0.099,0.66,0.063,1.337-0.017,1.997c-0.208,1.596-0.69,3.158-1.305,4.642
			c-0.553,1.304-1.22,2.585-2.108,3.693"/>
	</g>
	<g id="POLYLINE_00000115482984535695009040000016420111158187369116_">
		<path fill="none" stroke="#FB8604" stroke-width="2" stroke-linecap="round" stroke-linejoin="round" stroke-miterlimit="10" d="
			M435.402,461.173c1.985-1.22,4.209-2.073,6.498-2.508c1.404-0.243,2.902-0.359,4.27,0.117c0.451,0.162,0.875,0.409,1.22,0.743
			c0.543,0.52,0.91,1.196,1.234,1.867c0.587,1.195,1.072,2.685,2.265,3.413c0.367,0.223,0.788,0.343,1.211,0.406
			c1.874,0.244,4.331-0.329,6.203-0.553c1.172-0.147,2.375-0.26,3.553-0.134c0.749,0.082,1.501,0.273,2.151,0.665
			c0.69,0.408,1.205,1.055,1.577,1.756c0.582,1.102,0.892,2.336,1.134,3.552c0.651,3.216,0.687,7.204,1.589,10.365
			c0.234,0.747,0.535,1.506,1.079,2.083l0.034,0.034l0.034,0.034l0.034,0.033c0.587,0.56,1.424,0.748,2.214,0.745
			c1.566,0.004,3.25-0.6,4.786-0.848c0.336-0.05,0.683-0.086,1.022-0.048c0.351,0.037,0.692,0.177,0.956,0.413
			c0.396,0.353,0.637,0.843,0.86,1.316l0.738,1.662c1.965,4.183,4.473,8.449,5.299,13.044"/>
	</g>
	<g id="POLYLINE_00000065054677571253200430000003104681256660699528_">
		<path fill="none" stroke="#FB8604" stroke-width="2" stroke-linecap="round" stroke-linejoin="round" stroke-miterlimit="10" d="
			M509.155,288.208c0.301-2.953,0.957-6.128,3.054-8.358c1.888-1.939,4.542-3.091,6.323-5.15c0.887-1.007,1.578-2.192,2.216-3.367
			c1.336-2.505,2.747-5.498,4.721-7.553c2.1-2.213,4.932-3.73,7.929-4.288c2.251-0.413,4.681-0.218,6.706,0.906
			c1.307,0.723,2.407,1.773,3.395,2.881c1.754,1.974,3.709,4.888,5.448,6.877c1.23,1.416,2.608,2.747,4.236,3.696
			c1.282,0.756,2.724,1.22,4.185,1.476c5.936,0.976,12.32-0.626,18.251-0.988c2.39-0.159,4.857-0.094,7.13,0.736
			c3.749,1.305,6.592,4.361,9.901,6.429c2.012,1.267,4.178,2.446,6.549,2.84c1.165,0.187,2.37,0.071,3.491-0.287
			c0.96-0.301,1.873-0.761,2.746-1.254c1.103-0.628,2.159-1.373,3.065-2.266"/>
	</g>
	<g id="POLYLINE_00000145052543204728744040000002643536817603338913_">
		<path fill="none" stroke="#FB8604" stroke-width="2" stroke-linecap="round" stroke-linejoin="round" stroke-miterlimit="10" d="
			M502.996,462.908c-1.943-3.018-3.59-6.27-4.767-9.663c-0.811-2.369-1.41-4.847-1.535-7.354c-0.11-2.144,0.157-4.31,0.539-6.417
			c0.442-2.327,1.526-7.423,1.878-9.72c0.405-2.45,0.697-5.156,0.917-7.636c0.431-4.933,0.935-16.015,1.796-20.737
			c0.153-0.745,0.306-1.518,0.657-2.198l0.021-0.038l0.021-0.037l0.022-0.035l0.022-0.034l0.022-0.033l0.022-0.031l0.022-0.03
			l0.022-0.028l0.023-0.027l0.023-0.026l0.023-0.024l0.023-0.023l0.023-0.021l0.024-0.02l0.024-0.018l0.024-0.017l0.024-0.015
			l0.024-0.014l0.025-0.012l0.025-0.011l0.025-0.009l0.025-0.008l0.025-0.006l0.026-0.005l0.026-0.003l0.026-0.002l0.026,0
			l0.026,0.001l0.011,0.001l0.012,0.001l0.012,0.002l0.012,0.002l0.012,0.002l0.012,0.003l0.012,0.003l0.012,0.003l0.012,0.003
			l0.012,0.004l0.012,0.004l0.012,0.004l0.012,0.004l0.012,0.005c0.163,0.068,0.301,0.183,0.43,0.302
			c0.7,0.687,1.283,1.624,2.008,2.288c0.394,0.362,0.88,0.713,1.439,0.697l0.032-0.002l0.033-0.002l0.033-0.003l0.033-0.004
			l0.033-0.005l0.033-0.006l0.033-0.007l0.033-0.007l0.033-0.008l0.033-0.009l0.033-0.01l0.033-0.011l0.033-0.011l0.033-0.012
			l0.033-0.013l0.033-0.014l0.033-0.014l0.034-0.015c0.362-0.17,0.675-0.431,0.962-0.707c0.569-0.557,1.058-1.211,1.519-1.858
			c1.536-2.171,2.985-4.842,4.784-6.804c0.448-0.474,0.939-0.926,1.515-1.239c0.477-0.264,1.03-0.385,1.574-0.339
			c0.897,0.072,1.722,0.491,2.5,0.915c1.176,0.628,2.442,1.554,3.81,1.634c0.581,0.031,1.154-0.148,1.659-0.426
			c0.968-0.54,1.749-1.365,2.465-2.198c2.841-3.355,4.907-7.713,8.298-10.585c1.677-1.417,3.688-2.381,5.742-3.121l3.472-1.215"/>
	</g>
</g>
<g id="_x32_D_x24_AG-ANIMALS">
	<g id="POLYLINE_00000071557772041687431710000013852842373142273670_">
		
			<path fill="none" stroke="#FB8604" stroke-width="2.75" stroke-linecap="round" stroke-linejoin="round" stroke-miterlimit="10" d="
			M224.051,314.94c0.44-1.797,0.968-3.624,1.964-5.2c1.362-2.183,3.447-3.821,5.65-5.099c1.992-1.124,4.192-2.008,6.494-2.16
			c1.348-0.085,2.754,0.151,3.899,0.897c1.234,0.79,2.135,2.008,2.781,3.306c0.964,1.96,1.421,4.149,1.542,6.321
			c0.092,1.777-0.055,3.581-0.48,5.311c-0.439,1.806-1.18,3.543-2.065,5.174c-2.507,4.568-6.801,9.691-9.691,14.035
			c-3.106,4.576-5.856,9.474-8.232,14.467c-1.364,2.95-2.734,6.004-3.492,9.175c-0.159,0.746-0.305,1.521-0.218,2.285l0.007,0.046
			l0.007,0.046l0.008,0.044l0.009,0.043l0.009,0.042l0.01,0.041l0.011,0.04l0.012,0.039l0.012,0.038l0.013,0.037l0.014,0.036
			l0.015,0.035l0.015,0.034l0.016,0.033l0.017,0.032l0.018,0.031l0.018,0.03l0.019,0.029l0.02,0.028l0.021,0.027l0.022,0.025
			l0.022,0.024l0.023,0.023l0.024,0.022l0.025,0.021l0.026,0.02l0.026,0.019l0.027,0.017l0.028,0.016l0.029,0.015l0.03,0.014
			l0.03,0.013l0.031,0.012l0.032,0.01l0.033,0.009l0.034,0.008l0.02,0.004l0.02,0.004l0.02,0.003l0.021,0.003l0.021,0.002
			l0.021,0.002l0.021,0.002l0.022,0.001c0.696,0.013,1.499-0.39,2.13-0.67c1.412-0.648,2.879-1.51,4.428-1.751
			c0.471-0.063,0.973-0.048,1.406,0.166l0.027,0.013l0.027,0.014l0.026,0.014l0.026,0.015l0.026,0.015l0.026,0.016l0.026,0.016
			l0.025,0.017l0.025,0.017l0.025,0.018l0.025,0.018l0.024,0.019l0.024,0.02l0.032,0.027l0.031,0.028l0.031,0.029l0.031,0.03
			l0.03,0.031l0.03,0.032l0.029,0.033l0.029,0.033l0.029,0.034l0.028,0.035l0.028,0.036l0.027,0.037l0.027,0.038
			c0.654,0.986,0.829,2.294,0.966,3.448c0.336,3.116,0.001,7.043,0.081,10.182c0.021,0.381,0.04,0.779,0.143,1.149l0.008,0.027
			l0.008,0.026l0.009,0.025l0.009,0.024l0.009,0.023l0.009,0.022l0.01,0.021l0.01,0.02l0.01,0.019l0.01,0.018l0.011,0.017
			l0.011,0.016l0.011,0.015l0.011,0.014l0.012,0.013l0.012,0.011l0.012,0.01l0.013,0.009l0.013,0.008l0.006,0.003l0.006,0.003
			l0.006,0.003l0.006,0.003l0.006,0.002l0.006,0.002l0.006,0.002l0.006,0.002l0.006,0.002l0.006,0.001l0.006,0.001l0.006,0.001
			l0.006,0.001l0.006,0.001l0.006,0.001l0.006,0l0.007,0l0.007,0l0.007,0l0.007,0l0.007-0.001l0.007-0.001l0.007-0.001l0.007-0.001
			l0.007-0.001l0.007-0.001l0.007-0.002l0.007-0.002l0.007-0.002l0.007-0.002l0.007-0.002c0.185-0.064,0.336-0.204,0.485-0.328
			l0.413-0.365c0.42-0.357,0.972-0.799,1.554-0.582l0.038,0.015l0.038,0.017l0.038,0.019l0.038,0.021l0.038,0.023l0.038,0.025
			l0.038,0.026l0.038,0.028l0.038,0.03l0.038,0.032l0.038,0.034l0.038,0.035l0.038,0.037l0.038,0.039l0.038,0.04l0.038,0.042
			l0.038,0.044c0.433,0.52,0.74,1.141,1.024,1.752c0.803,1.794,1.406,3.775,1.979,5.656c1.216,4.022,2.564,9.552,4.19,13.382
			c0.294,0.649,0.611,1.309,1.061,1.865l0.038,0.045l0.038,0.043l0.038,0.042l0.038,0.04l0.038,0.038l0.038,0.036l0.038,0.035
			l0.038,0.033l0.038,0.031l0.038,0.03l0.038,0.028l0.038,0.026l0.038,0.024l0.038,0.022l0.038,0.02l0.038,0.019l0.038,0.017
			l0.038,0.015l0.038,0.013l0.038,0.011l0.038,0.009l0.038,0.007l0.026,0.004l0.026,0.003l0.026,0.002l0.026,0.001l0.026,0
			l0.026-0.001l0.026-0.002l0.026-0.003l0.026-0.003l0.026-0.004l0.026-0.005l0.026-0.006l0.026-0.007l0.026-0.008l0.026-0.008
			l0.026-0.009l0.026-0.01l0.026-0.011l0.026-0.012l0.026-0.012l0.026-0.013l0.026-0.014l0.026-0.015l0.026-0.016l0.026-0.016
			l0.026-0.017l0.026-0.018l0.026-0.018l0.026-0.019c0.298-0.23,0.532-0.535,0.745-0.842c0.457-0.671,0.835-1.436,1.19-2.166
			c0.852-1.756,1.712-3.957,2.838-5.543c0.233-0.312,0.493-0.617,0.815-0.841l0.028-0.019l0.028-0.018l0.029-0.018l0.029-0.017
			l0.029-0.016l0.029-0.016l0.029-0.015l0.029-0.014l0.029-0.013l0.029-0.012l0.029-0.012l0.029-0.011l0.029-0.01l0.029-0.009
			l0.029-0.008l0.029-0.008l0.029-0.007l0.025-0.005l0.025-0.005l0.025-0.004l0.025-0.003l0.025-0.003l0.025-0.002l0.025-0.001
			l0.026-0.001l0.026,0l0.026,0l0.026,0.001l0.026,0.002l0.026,0.002l0.026,0.003l0.026,0.003l0.026,0.004l0.026,0.004l0.026,0.005
			l0.026,0.006l0.026,0.006l0.026,0.007l0.026,0.007l0.026,0.008l0.026,0.008l0.026,0.009c0.281,0.099,0.53,0.272,0.757,0.462
			c0.968,0.835,1.857,2.232,2.628,3.254c0.461,0.616,0.942,1.251,1.514,1.769c0.276,0.245,0.583,0.473,0.937,0.589l0.027,0.008
			l0.027,0.008l0.027,0.007l0.027,0.007l0.027,0.006l0.027,0.006l0.027,0.005l0.027,0.005l0.026,0.004l0.027,0.003l0.026,0.003
			l0.026,0.002l0.026,0.002l0.029,0.001l0.029,0l0.029,0l0.029-0.001l0.029-0.002l0.029-0.002l0.029-0.003l0.029-0.004l0.028-0.004
			l0.028-0.005l0.028-0.005l0.028-0.006l0.028-0.007l0.028-0.007l0.028-0.008l0.028-0.009l0.028-0.009l0.028-0.01l0.028-0.01
			l0.028-0.011l0.028-0.012c0.405-0.174,0.739-0.48,1.035-0.8c0.661-0.734,1.181-1.606,1.678-2.456l1.447-2.579
			c0.41-0.698,0.832-1.422,1.373-2.027c0.201-0.218,0.424-0.428,0.694-0.555c0.262-0.126,0.565-0.146,0.845-0.077
			c0.794,0.209,1.489,0.828,2.246,1.148c0.35,0.157,0.724,0.269,1.108,0.301c0.531,0.046,1.067-0.037,1.576-0.185
			c1.532-0.465,2.864-1.428,4.059-2.468c2.202-1.958,4-4.353,5.497-6.881c3.312-5.568,4.826-12.192,6.749-18.323
			c0.304-0.871,0.637-1.979,1.194-2.705l0.02-0.023l0.02-0.022l0.02-0.022l0.02-0.021l0.02-0.02l0.02-0.019l0.02-0.018l0.02-0.017
			l0.02-0.016l0.02-0.015l0.02-0.014l0.02-0.013l0.02-0.012l0.02-0.011l0.02-0.01l0.02-0.01l0.02-0.009l0.02-0.008l0.02-0.007
			l0.02-0.006l0.02-0.005l0.02-0.004l0.02-0.003l0.02-0.002l0.02-0.001l0.02,0l0.02,0.001l0.02,0.002l0.02,0.003l0.02,0.004
			l0.009,0.002l0.009,0.003l0.009,0.003l0.01,0.003l0.009,0.003l0.009,0.004l0.01,0.004l0.01,0.004l0.01,0.004l0.01,0.004
			l0.01,0.005c0.115,0.059,0.211,0.15,0.298,0.244c0.431,0.496,0.788,1.222,1.131,1.785c0.324,0.521,0.71,1.185,1.265,1.479
			l0.021,0.01l0.021,0.01l0.021,0.009l0.021,0.009l0.021,0.008l0.021,0.008l0.021,0.007l0.021,0.007l0.021,0.006l0.021,0.006
			l0.021,0.005l0.021,0.005l0.021,0.004l0.022,0.004l0.022,0.003l0.022,0.003l0.022,0.002l0.022,0.002l0.022,0.001l0.022,0.001
			l0.022,0l0.022,0l0.022-0.001l0.022-0.001l0.022-0.002l0.022-0.002l0.022-0.002l0.022-0.003l0.022-0.003l0.022-0.004l0.022-0.004
			l0.022-0.005l0.022-0.005l0.022-0.006l0.022-0.006l0.022-0.007l0.022-0.007l0.022-0.008c0.529-0.194,0.918-0.638,1.246-1.078
			c0.885-1.251,1.403-2.729,1.821-4.192c0.696-2.519,0.98-5.149,1.04-7.756c0.15-5.218-0.616-11.557-0.97-16.784
			c-0.035-0.927-0.134-2.013,0.068-2.917l0.009-0.03l0.009-0.029l0.009-0.028l0.01-0.027l0.01-0.026l0.01-0.025l0.011-0.024
			l0.011-0.023l0.011-0.021l0.012-0.02l0.012-0.019l0.012-0.018l0.013-0.017l0.013-0.016l0.013-0.015l0.014-0.013l0.014-0.012
			l0.014-0.011l0.015-0.01l0.015-0.009l0.016-0.007l0.016-0.006l0.016-0.005l0.017-0.004l0.017-0.002l0.018-0.001l0.018,0
			l0.018,0.001l0.009,0.001l0.009,0.001l0.01,0.002l0.01,0.002l0.01,0.002l0.01,0.003l0.01,0.003l0.01,0.003l0.01,0.004l0.01,0.004
			l0.01,0.004l0.01,0.004l0.01,0.005l0.011,0.005c0.134,0.067,0.249,0.169,0.358,0.271c0.659,0.658,1.406,1.748,2.02,2.449
			c0.412,0.465,0.929,1.069,1.525,1.279l0.022,0.007l0.022,0.006l0.022,0.006l0.022,0.005l0.022,0.005l0.021,0.004l0.021,0.004
			l0.021,0.003l0.021,0.003l0.021,0.002l0.021,0.001l0.021,0.001l0.021,0l0.021,0l0.021-0.001l0.02-0.001l0.02-0.002l0.02-0.002
			l0.02-0.003l0.02-0.003l0.02-0.004l0.02-0.004l0.02-0.005l0.02-0.005l0.02-0.006l0.019-0.006l0.019-0.007l0.019-0.007l0.019-0.008
			l0.019-0.008l0.019-0.009l0.019-0.009l0.019-0.009l0.019-0.01l0.019-0.01l0.018-0.011l0.018-0.011l0.018-0.012l0.018-0.012
			l0.018-0.013l0.018-0.013l0.018-0.014l0.018-0.014l0.018-0.015l0.017-0.015l0.017-0.016c0.407-0.387,0.606-0.938,0.764-1.464
			c0.419-1.533,0.451-3.153,0.389-4.732c-0.274-6.347-3.094-12.617-5.375-18.468c-0.322-0.845-0.678-1.755-0.906-2.631
			c-0.057-0.231-0.11-0.474-0.118-0.713l0-0.026v-0.026l0.001-0.025l0.001-0.024l0.001-0.023l0.002-0.023l0.003-0.022l0.003-0.021
			l0.004-0.021l0.004-0.02l0.005-0.019l0.005-0.018l0.006-0.017l0.006-0.017l0.007-0.016l0.007-0.015l0.008-0.014l0.008-0.014
			l0.009-0.013l0.01-0.012l0.01-0.011l0.011-0.01l0.011-0.01l0.012-0.009l0.012-0.008l0.013-0.007l0.014-0.006l0.006-0.002
			l0.006-0.002l0.006-0.002l0.006-0.002l0.006-0.002l0.006-0.002l0.006-0.002l0.006-0.001l0.006-0.001l0.006-0.001l0.007-0.001
			l0.007-0.001l0.007-0.001l0.007-0.001l0.007-0.001c0.238-0.009,0.476,0.108,0.693,0.195c0.487,0.212,1.046,0.503,1.57,0.594
			c0.181,0.03,0.37,0.038,0.549-0.009l0.024-0.007l0.024-0.007l0.023-0.008l0.023-0.009l0.023-0.009l0.023-0.01l0.022-0.01
			l0.022-0.011l0.022-0.012l0.022-0.012l0.021-0.013l0.021-0.014l0.021-0.014l0.021-0.015l0.02-0.015l0.02-0.016l0.02-0.017
			l0.02-0.017l0.019-0.018l0.019-0.018l0.019-0.019l0.019-0.019l0.018-0.02l0.018-0.021l0.018-0.021l0.018-0.022l0.017-0.022
			l0.017-0.023l0.017-0.023l0.017-0.024c0.388-0.6,0.482-1.338,0.54-2.035c0.105-1.762-0.17-3.536-0.555-5.252
			c-0.817-3.58-2.35-6.989-4.452-9.998c-1.284-1.927-3.588-4.657-5.061-6.481c-0.405-0.511-0.842-1.076-1.191-1.627
			c-0.211-0.343-0.421-0.702-0.508-1.099l-0.005-0.025l-0.004-0.025l-0.004-0.025l-0.003-0.024l-0.003-0.024l-0.002-0.024
			l-0.002-0.024l-0.001-0.023l0-0.023l0-0.023l0.001-0.022l0.001-0.022l0.002-0.022l0.002-0.021l0.003-0.021l0.004-0.021
			l0.004-0.021l0.005-0.02l0.005-0.02l0.006-0.02c0.088-0.277,0.359-0.44,0.618-0.534c0.355-0.128,0.738-0.17,1.113-0.191
			c0.732-0.035,1.475,0.03,2.2,0.129c0.604,0.081,1.44,0.252,2.043,0.249c0.136-0.003,0.275-0.015,0.406-0.055
			c0.126-0.038,0.247-0.113,0.314-0.229l0.007-0.013l0.007-0.013l0.007-0.013l0.006-0.014l0.006-0.014l0.006-0.014l0.005-0.014
			l0.005-0.015l0.005-0.015l0.004-0.015l0.004-0.016l0.004-0.016l0.003-0.016l0.003-0.017l0.003-0.017l0.002-0.017l0.002-0.017
			l0.002-0.018l0.001-0.018l0.001-0.018l0.001-0.019c-0.006-0.657-0.423-1.392-0.752-1.95c-1.27-2.022-3.004-3.727-4.858-5.215
			c-4.936-3.938-11.331-5.783-17.009-8.353c-0.762-0.378-1.658-0.791-2.235-1.423l-0.021-0.025l-0.02-0.024l-0.019-0.024
			l-0.018-0.024l-0.017-0.024l-0.016-0.024l-0.016-0.024l-0.015-0.024l-0.014-0.024l-0.013-0.024l-0.012-0.024l-0.011-0.024
			l-0.011-0.024l-0.01-0.024l-0.009-0.024l-0.008-0.024l-0.007-0.024l-0.004-0.014l-0.004-0.014l-0.003-0.014l-0.003-0.014
			l-0.003-0.014l-0.002-0.014l-0.002-0.014l-0.002-0.014l-0.001-0.014l-0.001-0.014l-0.001-0.014l0-0.014l0-0.014l0-0.014l0-0.014
			l0.001-0.014l0.001-0.014l0.001-0.014l0.002-0.014l0.002-0.014l0.002-0.014l0.003-0.014l0.003-0.014l0.003-0.014l0.003-0.014
			l0.004-0.014l0.004-0.014l0.004-0.014l0.004-0.014l0.005-0.014l0.005-0.014l0.005-0.014c0.098-0.244,0.292-0.435,0.494-0.598
			c0.854-0.642,1.902-0.979,2.91-1.3c3.012-0.953,6.613-1.191,9.621-1.925c0.363-0.109,0.749-0.217,1.048-0.461l0.011-0.01
			l0.011-0.01l0.01-0.01l0.01-0.01l0.01-0.01l0.009-0.01l0.009-0.01l0.008-0.01l0.008-0.01l0.008-0.01l0.007-0.01l0.007-0.01
			l0.007-0.01l0.006-0.01l0.006-0.011l0.006-0.011l0.005-0.011l0.005-0.011l0.004-0.011l0.004-0.011l0.004-0.011l0.003-0.011
			l0.003-0.011l0.003-0.011l0.002-0.011l0.002-0.011l0.001-0.011l0.001-0.011l0.001-0.011l0-0.011l0-0.014l-0.001-0.014
			l-0.001-0.014l-0.002-0.014l-0.002-0.014l-0.003-0.014l-0.003-0.014l-0.004-0.014l-0.004-0.014l-0.005-0.014l-0.005-0.015
			l-0.006-0.015l-0.007-0.015l-0.007-0.015l-0.008-0.015l-0.008-0.015l-0.009-0.015l-0.009-0.015l-0.01-0.015l-0.01-0.015
			l-0.011-0.015l-0.011-0.015l-0.012-0.015c-0.404-0.491-1.123-0.843-1.687-1.132c-3.176-1.477-6.679-2.455-10.101-3.179
			c-4.09-0.86-8.241-0.847-12.344-0.081c-3.905,0.652-8.566,2.168-12.479,2.77c-0.466,0.051-0.954,0.115-1.418,0.015l-0.02-0.005
			l-0.019-0.005l-0.019-0.006l-0.018-0.006l-0.018-0.006l-0.017-0.006l-0.017-0.007l-0.016-0.007l-0.016-0.007l-0.015-0.008
			l-0.015-0.008l-0.014-0.008l-0.014-0.008l-0.013-0.009l-0.012-0.009l-0.012-0.009l-0.011-0.009l-0.011-0.01l-0.01-0.01l-0.01-0.01
			l-0.009-0.011l-0.008-0.011l-0.008-0.011l-0.007-0.011l-0.007-0.012l-0.006-0.012l-0.006-0.012l-0.005-0.013l-0.004-0.013
			l-0.004-0.013l-0.003-0.014l-0.003-0.014l-0.002-0.014l-0.001-0.014l-0.001-0.015l0-0.015l0-0.015l0.001-0.016l0.002-0.016
			l0.002-0.016l0.003-0.017l0.004-0.017l0.004-0.017l0.005-0.017l0.005-0.018l0.006-0.018l0.007-0.018l0.007-0.019l0.008-0.019
			l0.008-0.019l0.009-0.019c0.132-0.272,0.334-0.508,0.531-0.736c1.46-1.58,3.484-3.201,4.958-4.766
			c0.454-0.479,0.905-0.983,1.273-1.532c0.197-0.299,0.381-0.619,0.468-0.969l0.006-0.028l0.006-0.028l0.005-0.028l0.005-0.027
			l0.004-0.027l0.003-0.027l0.003-0.027l0.002-0.027l0.002-0.026l0.001-0.026l0-0.026l0-0.03l-0.001-0.03l-0.002-0.03l-0.003-0.029
			l-0.004-0.029l-0.005-0.029l-0.006-0.028l-0.007-0.028l-0.008-0.028l-0.008-0.027l-0.009-0.027l-0.01-0.027l-0.011-0.026
			l-0.012-0.026l-0.013-0.026l-0.014-0.025l-0.014-0.025l-0.015-0.025l-0.016-0.024l-0.017-0.024l-0.018-0.024l-0.018-0.023
			l-0.019-0.023l-0.02-0.023l-0.021-0.022l-0.022-0.022l-0.022-0.022l-0.023-0.021l-0.024-0.021l-0.025-0.021l-0.025-0.02
			l-0.026-0.02l-0.027-0.02l-0.028-0.019l-0.028-0.019l-0.029-0.019l-0.03-0.018l-0.031-0.018l-0.031-0.018
			c-0.778-0.4-1.694-0.443-2.554-0.452c-2.257,0.029-4.499,0.541-6.63,1.263c-2.346,0.819-4.627,1.957-6.519,3.584
			c-2.296,1.94-3.996,4.648-5.579,7.177c-0.341,0.5-0.685,1.084-1.175,1.45l-0.018,0.012l-0.018,0.011l-0.018,0.011l-0.018,0.01
			l-0.018,0.01l-0.017,0.009l-0.017,0.009l-0.017,0.008l-0.017,0.008l-0.017,0.007l-0.017,0.006l-0.017,0.006l-0.017,0.005
			l-0.017,0.005l-0.017,0.004l-0.017,0.004l-0.017,0.003l-0.017,0.002l-0.017,0.002l-0.017,0.001l-0.016,0.001l-0.016,0
			l-0.016-0.001l-0.016-0.001l-0.016-0.002l-0.016-0.002l-0.016-0.003l-0.016-0.004l-0.016-0.004l-0.016-0.005l-0.016-0.006
			l-0.016-0.006l-0.016-0.007l-0.016-0.007l-0.016-0.008l-0.016-0.009l-0.016-0.009l-0.016-0.01l-0.016-0.011
			c-0.117-0.085-0.209-0.202-0.291-0.319c-0.422-0.642-0.724-1.483-1.113-2.145c-0.209-0.347-0.448-0.734-0.83-0.908l-0.013-0.005
			l-0.013-0.005l-0.013-0.005l-0.013-0.005l-0.013-0.004l-0.013-0.004l-0.013-0.004l-0.013-0.003l-0.013-0.003l-0.013-0.003
			l-0.013-0.003l-0.013-0.002l-0.013-0.002l-0.013-0.002l-0.013-0.002l-0.013-0.001l-0.014-0.001l-0.014-0.001l-0.014,0l-0.014,0
			l-0.014,0l-0.014,0l-0.014,0.001l-0.014,0.001l-0.014,0.001l-0.014,0.002l-0.014,0.002l-0.014,0.002l-0.014,0.002l-0.014,0.003
			l-0.014,0.003l-0.029,0.007l-0.029,0.008l-0.029,0.01l-0.029,0.011l-0.03,0.012l-0.03,0.013l-0.03,0.014l-0.03,0.016l-0.03,0.017
			l-0.031,0.018l-0.031,0.019l-0.031,0.02l-0.031,0.021l-0.031,0.023l-0.032,0.024l-0.032,0.025c-0.345,0.281-0.623,0.641-0.882,1
			c-0.663,0.942-1.23,2.02-1.759,3.044c-1.438,2.783-2.987,6.548-4.568,9.245c-0.238,0.382-0.487,0.773-0.808,1.092l-0.026,0.024
			l-0.025,0.023l-0.025,0.022l-0.025,0.021l-0.025,0.02l-0.024,0.019l-0.024,0.018l-0.024,0.016l-0.024,0.015l-0.023,0.014
			l-0.023,0.013l-0.023,0.012l-0.023,0.01l-0.022,0.009l-0.022,0.008l-0.022,0.007l-0.022,0.005l-0.021,0.004l-0.021,0.003
			l-0.021,0.002l-0.008,0l-0.008,0l-0.008,0l-0.008,0l-0.008-0.001l-0.008-0.001l-0.008-0.001l-0.008-0.001l-0.008-0.001
			l-0.008-0.002l-0.008-0.002l-0.008-0.002l-0.008-0.002l-0.008-0.002l-0.008-0.002l-0.008-0.003l-0.008-0.003l-0.008-0.003
			l-0.008-0.003l-0.008-0.003l-0.007-0.004l-0.007-0.004l-0.007-0.004l-0.007-0.004l-0.007-0.004l-0.007-0.004l-0.007-0.005
			l-0.007-0.005c-0.325-0.234-0.534-0.865-0.716-1.223c-0.144-0.287-0.302-0.643-0.592-0.806l-0.008-0.004l-0.008-0.004
			l-0.009-0.004l-0.009-0.004l-0.009-0.004l-0.009-0.003l-0.009-0.003l-0.009-0.003l-0.009-0.003l-0.009-0.003L217,265.19
			l-0.009-0.002l-0.009-0.002l-0.009-0.002l-0.009-0.002l-0.009-0.002l-0.009-0.001l-0.009-0.001l-0.009-0.001l-0.009-0.001
			l-0.009-0.001l-0.009,0l-0.01,0l-0.01,0l-0.01,0l-0.01,0l-0.01,0.001l-0.027,0.003l-0.027,0.004l-0.028,0.006l-0.028,0.007
			l-0.029,0.009l-0.029,0.01l-0.029,0.012l-0.03,0.013l-0.03,0.015l-0.031,0.016l-0.031,0.018l-0.031,0.019l-0.032,0.021
			l-0.032,0.022l-0.032,0.024l-0.033,0.025l-0.033,0.026l-0.034,0.028c-0.28,0.239-0.519,0.533-0.743,0.825
			c-1.034,1.402-1.891,3.022-2.726,4.55c-1.448,2.655-4.023,7.914-5.732,10.335c-0.321,0.446-0.658,0.898-1.077,1.257l-0.036,0.029
			l-0.035,0.028l-0.035,0.026l-0.034,0.025l-0.034,0.024l-0.034,0.022l-0.033,0.021l-0.033,0.019l-0.033,0.018l-0.032,0.016
			l-0.032,0.015l-0.032,0.014l-0.031,0.012l-0.031,0.011l-0.03,0.009l-0.03,0.007l-0.03,0.006l-0.029,0.004l-0.029,0.003
			l-0.028,0.001l-0.028,0l-0.011-0.001l-0.011-0.001l-0.011-0.001l-0.011-0.001l-0.01-0.002l-0.01-0.002l-0.01-0.002l-0.01-0.002
			l-0.01-0.002l-0.01-0.003l-0.01-0.003l-0.01-0.003l-0.01-0.003l-0.01-0.004l-0.01-0.004l-0.01-0.004l-0.01-0.004l-0.01-0.004
			l-0.01-0.005l-0.01-0.005l-0.01-0.005l-0.01-0.005l-0.009-0.005l-0.009-0.006c-0.36-0.234-0.55-0.77-0.701-1.157
			c-0.143-0.36-0.318-1.05-0.552-1.344l-0.005-0.006l-0.005-0.005l-0.005-0.005l-0.005-0.005l-0.005-0.005l-0.005-0.005
			l-0.005-0.004l-0.005-0.004l-0.005-0.004l-0.005-0.004l-0.005-0.004l-0.005-0.003l-0.005-0.003l-0.005-0.003l-0.005-0.003
			l-0.005-0.002l-0.005-0.002l-0.005-0.002l-0.005-0.002l-0.005-0.001l-0.005-0.001l-0.005-0.001l-0.005-0.001l-0.005-0.001
			l-0.005,0l-0.006,0l-0.006,0l-0.006,0l-0.013,0.002l-0.013,0.003l-0.013,0.004l-0.013,0.005l-0.013,0.007l-0.013,0.008
			l-0.013,0.009l-0.013,0.01l-0.013,0.011l-0.013,0.013l-0.014,0.014l-0.014,0.015l-0.014,0.016l-0.014,0.017l-0.014,0.018
			l-0.014,0.019l-0.014,0.02l-0.014,0.021l-0.014,0.023c-0.198,0.332-0.327,0.716-0.455,1.079c-0.955,2.988-1.825,6.933-2.889,9.871
			c-0.388,1.03-0.836,2.279-1.573,3.104l-0.028,0.029l-0.028,0.028l-0.028,0.027l-0.028,0.026l-0.028,0.025l-0.028,0.024
			l-0.028,0.023l-0.028,0.022l-0.028,0.021l-0.028,0.02l-0.028,0.019l-0.029,0.017l-0.029,0.016l-0.029,0.015l-0.029,0.014
			l-0.029,0.013l-0.029,0.012l-0.029,0.011c-0.021,0.007-0.046,0.015-0.067,0.02l-0.013,0.003c-0.184,0.045-0.38,0.015-0.554-0.055
			c-0.642-0.278-1.112-0.909-1.586-1.403c-0.156-0.158-0.312-0.335-0.514-0.435l-0.008-0.003l-0.008-0.003l-0.008-0.003
			l-0.008-0.003l-0.008-0.003l-0.007-0.002l-0.007-0.002l-0.007-0.002l-0.007-0.002l-0.007-0.002l-0.007-0.001l-0.007-0.001
			l-0.007-0.001l-0.007-0.001l-0.007-0.001l-0.007,0l-0.007,0l-0.007,0l-0.007,0l-0.007,0.001l-0.007,0.001l-0.007,0.001
			l-0.006,0.001l-0.006,0.001l-0.013,0.004l-0.013,0.005l-0.013,0.006l-0.012,0.007l-0.012,0.008l-0.012,0.009l-0.012,0.01
			l-0.011,0.011l-0.011,0.012l-0.011,0.012l-0.011,0.013l-0.01,0.014l-0.01,0.015l-0.01,0.016l-0.01,0.017l-0.01,0.018l-0.009,0.019
			l-0.009,0.02l-0.009,0.021l-0.009,0.021l-0.008,0.022l-0.008,0.023c-0.196,0.671-0.182,1.407-0.216,2.1
			c-0.099,3.303,0.077,6.864-0.905,10.048c-0.258,0.767-0.613,1.534-1.203,2.104c-1.31,1.229-3.29,1.07-4.946,0.882l-2.159-0.302
			c-0.795-0.088-1.793-0.239-2.544,0.084l-0.024,0.011l-0.023,0.012l-0.023,0.012l-0.023,0.012l-0.022,0.013l-0.022,0.013
			l-0.022,0.013l-0.021,0.014l-0.021,0.014l-0.02,0.015l-0.02,0.015l-0.02,0.015l-0.019,0.016l-0.019,0.016l-0.025,0.023
			l-0.025,0.023l-0.024,0.024l-0.023,0.025l-0.022,0.026l-0.022,0.026l-0.021,0.027l-0.02,0.028l-0.02,0.029l-0.019,0.029
			l-0.018,0.03l-0.018,0.031l-0.017,0.031l-0.016,0.032l-0.016,0.033l-0.015,0.033l-0.014,0.034l-0.014,0.035l-0.013,0.035
			l-0.012,0.036l-0.012,0.037l-0.011,0.037l-0.011,0.038l-0.01,0.039l-0.009,0.039c-0.117,0.536-0.071,1.095,0.002,1.634
			c0.19,1.275,0.595,2.553,0.992,3.778c1.227,3.807,3.091,8.017,3.602,11.996c0.24,2.013-0.092,4.015-1.053,5.806
			c-0.8,1.547-2.098,3.088-3.104,4.509c-1.67,2.35-3.155,5.001-4.52,7.543c-2.685,5.201-6.204,11.802-8.586,17.108
			c-0.508,1.156-1.025,2.385-1.422,3.582c-0.232,0.75-0.504,1.561-0.467,2.354l0.003,0.03l0.003,0.029l0.004,0.028l0.004,0.028
			l0.005,0.027l0.005,0.026l0.006,0.026l0.006,0.025l0.007,0.024l0.007,0.024l0.008,0.023l0.008,0.022l0.009,0.022l0.009,0.021
			l0.01,0.02l0.01,0.02l0.011,0.019l0.011,0.018l0.012,0.017l0.013,0.017l0.013,0.016l0.014,0.015l0.014,0.015l0.015,0.014
			c0.064,0.058,0.145,0.095,0.229,0.116c0.335,0.079,0.76-0.017,1.099-0.05c0.271-0.026,0.565-0.057,0.819,0.061l0.017,0.008
			l0.016,0.009l0.016,0.009l0.016,0.01l0.015,0.01l0.015,0.011l0.015,0.011l0.014,0.011l0.014,0.012l0.014,0.012l0.014,0.013
			l0.013,0.013l0.013,0.014l0.013,0.014l0.012,0.015l0.012,0.015l0.012,0.015l0.012,0.016l0.011,0.016l0.011,0.017l0.011,0.017
			l0.01,0.018l0.01,0.018l0.01,0.018l0.01,0.019l0.009,0.019l0.009,0.02l0.009,0.02l0.008,0.02l0.008,0.021
			c0.096,0.257,0.118,0.536,0.122,0.808c0.003,0.589-0.094,1.186-0.206,1.763c-1.429,6.287-5.194,14.721-7.079,20.921
			c-0.671,2.203-1.335,4.476-1.52,6.78c-0.059,0.986-0.054,2.039,0.421,2.931c0.387,0.749,1.152,1.292,1.785,1.821
			c0.383,0.321,0.751,0.675,1.018,1.101c0.264,0.42,0.429,0.899,0.54,1.381c0.165,0.724,0.22,1.479,0.239,2.22
			c0.055,2.072-0.309,5.861-0.436,7.966c-0.345,6.29,0.015,12.724,1.809,18.791c0.345,1.141,0.758,2.286,1.238,3.377
			c0.684,1.592,2.155,4.24,2.907,5.816c0.725,1.531,1.341,3.163,1.439,4.869c0.094,1.376-0.211,2.748-0.695,4.031
			c-0.865,2.431-2.606,5.044-3.48,7.406c-0.125,0.383-0.235,0.787-0.203,1.193l0.002,0.024l0.003,0.024l0.003,0.024l0.004,0.024
			l0.004,0.023l0.005,0.023l0.005,0.023l0.005,0.022l0.006,0.022l0.006,0.022l0.007,0.022l0.007,0.021l0.008,0.021l0.008,0.021
			l0.008,0.02l0.009,0.02c0.146,0.315,0.458,0.505,0.754,0.663l0.553,0.28c0.447,0.229,0.888,0.546,0.967,1.078l0.005,0.032
			l0.004,0.032l0.003,0.033l0.003,0.033l0.002,0.034l0.001,0.034l0.001,0.035l0,0.035l-0.001,0.036
			c-0.019,0.466-0.166,0.921-0.327,1.356c-0.989,2.47-2.937,5.326-4.235,7.654c-0.637,1.131-1.291,2.303-1.733,3.526
			c-0.163,0.47-0.306,0.963-0.306,1.464l0.001,0.038l0.001,0.038l0.002,0.037l0.003,0.037l0.003,0.036
			c0.043,0.469,0.319,0.855,0.667,1.155c0.397,0.356,0.922,0.655,1.195,1.128c0.137,0.236,0.188,0.514,0.163,0.785l-0.004,0.045
			l-0.006,0.046l-0.007,0.047l-0.008,0.047l-0.009,0.048l-0.01,0.049l-0.012,0.05l-0.013,0.05c-0.149,0.552-0.423,1.068-0.706,1.562
			c-1.076,1.804-2.475,3.488-3.806,5.109c-2.15,2.601-6.353,7.233-8.181,9.993c-0.312,0.488-0.626,0.995-0.808,1.548l-0.014,0.044
			l-0.012,0.043l-0.011,0.043l-0.01,0.042l-0.009,0.041l-0.008,0.04l-0.006,0.039l-0.005,0.038l-0.004,0.037l-0.003,0.037
			l-0.001,0.036l0,0.035l0.001,0.034l0.002,0.033l0.004,0.032l0.005,0.031c0.004,0.021,0.009,0.044,0.015,0.064l0.003,0.01
			l0.003,0.01l0.003,0.01l0.004,0.01l0.004,0.01l0.004,0.01l0.004,0.01l0.004,0.009l0.004,0.009l0.004,0.009l0.005,0.009
			l0.005,0.009l0.005,0.009l0.005,0.009c0.21,0.341,0.686,0.426,1.049,0.505c0.393,0.078,0.899,0.14,1.267,0.294
			c0.146,0.062,0.287,0.145,0.39,0.267l0.018,0.022l0.017,0.023l0.016,0.024l0.015,0.025l0.014,0.025l0.013,0.026l0.012,0.027
			l0.012,0.027l0.011,0.028l0.01,0.029l0.009,0.029l0.008,0.03l0.007,0.031l0.006,0.031l0.005,0.032l0.004,0.033l0.003,0.033
			l0.003,0.034l0.002,0.035l0.001,0.035l0,0.036l-0.001,0.037l-0.002,0.037l-0.003,0.038l-0.003,0.039l-0.004,0.039l-0.005,0.04
			c-0.08,0.533-0.305,1.039-0.541,1.519c-1.179,2.242-2.848,4.351-4.401,6.352c-3.595,4.624-8.842,10.389-11.812,15.394
			c-1.538,2.593-2.549,5.444-2.624,8.478c-0.087,2.555,0.316,5.157,0.746,7.671c0.708,3.908,2.014,10.434,2.438,14.275
			c0.703,5.783,1.045,12.165,1.257,18.002c0.197,5.221,0.616,31.373,1.144,36.04c0.142,1.352,0.325,2.737,0.705,4.045
			c0.431,1.515,1.223,2.945,2.373,4.032c1.103,1.056,2.498,1.77,3.954,2.204c1.309,0.395,2.688,0.574,4.048,0.679
			c2.735,0.264,29.695,0.148,33.104,0.171c1.244-0.03,2.579,0.016,3.806-0.22c0.321-0.066,0.642-0.16,0.932-0.317
			c0.458-0.242,0.785-0.667,1.011-1.125c0.384-0.77,0.6-1.621,0.77-2.461c0.539-2.911,0.533-5.925,0.149-8.855
			c-0.38-2.612-1.103-5.344-2.949-7.319c-1.472-1.588-3.472-2.605-5.538-3.185c-1.145-0.32-2.35-0.457-3.534-0.538
			c-2.844-0.215-6.487-0.198-9.239-0.879c-0.65-0.173-1.291-0.417-1.852-0.793c-0.545-0.361-0.99-0.855-1.358-1.392
			c-0.631-0.91-1.086-1.943-1.48-2.975c-0.724-1.959-1.357-3.989-1.733-6.046c-0.436-2.377-0.548-4.83-0.436-7.241
			c0.468-8.51,3.161-16.788,6.175-24.703c1.142-2.739,2.363-5.615,3.942-8.12c1.225-1.98,2.708-3.821,4.339-5.48
			c2.051-2.1,4.399-4.081,6.682-5.929c4.711-3.639,18.362-14.641,23.215-17.976c1.049-0.692,2.145-1.389,3.307-1.874
			c0.473-0.19,0.973-0.361,1.488-0.368l0.035,0l0.034,0.001l0.034,0.001l0.033,0.002l0.033,0.003l0.033,0.003l0.032,0.004
			l0.032,0.005l0.031,0.005l0.031,0.006l0.03,0.007l0.03,0.007c0.888,0.224,1.097,1.376,1.947,1.658l0.023,0.007l0.024,0.007
			l0.024,0.006l0.024,0.006l0.025,0.005l0.025,0.005l0.025,0.004l0.026,0.004l0.026,0.003l0.026,0.003l0.027,0.003
			c0.415,0.032,0.826-0.084,1.212-0.228c0.817-0.316,1.569-0.796,2.283-1.297c4.279-3.155,7.689-7.385,10.649-11.764
			c1.612-2.382,4.073-6.366,5.823-8.569c0.531-0.667,1.1-1.328,1.734-1.898c0.549-0.489,1.165-0.94,1.877-1.152
			c1.047-0.318,2.149,0.078,3.147,0.399c0.741,0.234,1.533,0.471,2.314,0.319c0.546-0.105,1.043-0.385,1.479-0.723
			c0.731-0.574,1.323-1.312,1.849-2.072c3.713-5.647,5.242-13.038,7.461-19.35c0.438-1.203,0.903-2.444,1.577-3.537
			c0.275-0.429,0.589-0.857,1.022-1.138l0.027-0.016l0.027-0.016l0.027-0.015l0.027-0.015l0.027-0.014l0.027-0.013l0.027-0.013
			l0.027-0.012l0.027-0.011l0.027-0.011l0.027-0.01l0.027-0.009l0.027-0.009l0.027-0.008l0.027-0.007l0.027-0.007l0.027-0.006
			l0.027-0.005l0.028-0.005l0.028-0.004l0.028-0.003l0.028-0.003c0.613-0.037,1.186,0.351,1.717,0.609
			c0.392,0.197,0.808,0.393,1.254,0.402c0.274,0.006,0.546-0.078,0.772-0.232l0.038-0.026l0.038-0.028l0.038-0.03l0.038-0.031
			l0.038-0.033l0.038-0.034l0.038-0.036l0.038-0.037l0.038-0.039l0.038-0.04l0.038-0.042c0.424-0.483,0.731-1.064,1.01-1.64
			c0.883-1.896,1.496-3.987,2.087-5.992c1.293-4.366,2.52-10.068,4.211-14.28c0.293-0.675,0.607-1.364,1.073-1.938l0.035-0.041
			l0.035-0.04l0.035-0.038l0.035-0.037l0.035-0.035l0.035-0.034l0.035-0.032c0.181-0.163,0.4-0.289,0.639-0.343
			c0.427-0.104,0.914,0.031,1.337,0.107c0.327,0.058,0.681,0.077,0.987-0.076l0.03-0.015l0.03-0.016l0.03-0.017l0.03-0.018
			l0.03-0.019l0.03-0.02l0.03-0.021l0.03-0.022l0.03-0.023l0.029-0.024l0.029-0.025l0.029-0.026l0.029-0.027l0.029-0.028
			l0.029-0.029c0.553-0.593,0.878-1.361,1.174-2.106c1.212-3.348,1.726-6.949,2.191-10.466c0.614-5.277,0.984-10.657,0.512-15.96
			c-0.326-3.802-1.318-7.6-2.424-11.245"/>
	</g>
	<g id="POLYLINE_00000152958316102026361250000014039478623017825166_">
		
			<path fill="none" stroke="#FB8604" stroke-width="2.75" stroke-linecap="round" stroke-linejoin="round" stroke-miterlimit="10" d="
			M441.125,399.209c-1.992,2.2-3.5,4.816-4.814,7.464c-1.728,3.554-3.114,7.306-4.083,11.137c-0.443,1.805-0.817,3.669-0.911,5.529
			c-0.032,0.867-0.028,1.764,0.239,2.599l0.019,0.054l0.019,0.053l0.02,0.052l0.021,0.05l0.021,0.049l0.022,0.048l0.023,0.046
			l0.024,0.045l0.024,0.044l0.025,0.043l0.026,0.041l0.026,0.04l0.027,0.039l0.028,0.037l0.029,0.036l0.029,0.034l0.03,0.033
			l0.031,0.032l0.031,0.03c0.411,0.384,1.012,0.409,1.545,0.4c0.681,0.003,1.688-0.188,2.118,0.484l0.02,0.033l0.019,0.034
			l0.018,0.035l0.018,0.037l0.017,0.038l0.016,0.039l0.015,0.041l0.014,0.042l0.014,0.043l0.013,0.044l0.012,0.046l0.011,0.047
			l0.011,0.048l0.01,0.049l0.009,0.05c0.156,1.112-0.067,2.255-0.258,3.351c-0.993,5.026-3.282,11.695-4.124,16.745
			c-0.178,1.113-0.327,2.26-0.272,3.388c0.032,0.593,0.129,1.198,0.406,1.73c0.231,0.451,0.59,0.826,0.999,1.12
			c0.677,0.497,1.511,0.818,2.111,1.418c0.795,0.77,0.859,1.957,0.838,2.999c-0.112,2.85-1.03,6.173-1.544,8.978
			c-0.222,1.201-0.445,2.455-0.457,3.679c-0.002,0.534,0.045,1.079,0.231,1.583c0.16,0.447,0.43,0.846,0.729,1.211
			c0.366,0.444,0.791,0.919,1.055,1.43c0.229,0.429,0.373,0.901,0.448,1.38c0.129,0.854,0.092,1.733,0.025,2.591
			c-0.208,2.416-0.768,4.985-1.286,7.357c-0.881,3.883-2.615,10.546-3.207,14.399c-0.141,0.958-0.266,1.951-0.25,2.92
			c0.011,0.509,0.068,1.026,0.253,1.503c0.154,0.407,0.413,0.766,0.709,1.081l0.541,0.565c0.348,0.369,0.653,0.784,0.866,1.246
			c0.47,1.039,0.627,2.195,0.756,3.32c0.195,1.888,0.2,3.909,0.169,5.809c-0.143,8.734-2.172,25.064-2.854,33.893
			c-0.149,2.027-0.294,4.25-0.277,6.282c0.014,0.902,0.046,1.847,0.211,2.736c0.089,0.435,0.194,0.889,0.463,1.252l0.013,0.016
			l0.013,0.016l0.013,0.016l0.013,0.015l0.014,0.015l0.014,0.014l0.014,0.014l0.014,0.013l0.014,0.013l0.014,0.012l0.014,0.012
			l0.015,0.012l0.015,0.011l0.015,0.011l0.015,0.01l0.015,0.01l0.015,0.009l0.015,0.009l0.016,0.008l0.016,0.008l0.016,0.008
			l0.016,0.007l0.016,0.007l0.016,0.006l0.016,0.006l0.017,0.005l0.017,0.005l0.017,0.004l0.017,0.004l0.017,0.003l0.017,0.003
			c0.385,0.046,0.783-0.167,1.161-0.223c0.316-0.057,0.623-0.009,0.86,0.223l0.022,0.022l0.022,0.023l0.022,0.024l0.021,0.025
			l0.021,0.026l0.021,0.027l0.021,0.028l0.021,0.029l0.021,0.03l0.021,0.031c0.345,0.557,0.512,1.207,0.671,1.837
			c0.848,3.841,1.061,8.451,1.666,12.341c0.163,1.03,0.34,2.1,0.66,3.093c0.141,0.419,0.308,0.847,0.606,1.181
			c0.211,0.24,0.497,0.398,0.796,0.503c0.274,0.099,0.583,0.191,0.814,0.373c0.197,0.15,0.344,0.357,0.464,0.572
			c0.225,0.408,0.375,0.859,0.504,1.306c0.55,1.972,0.937,5.313,1.275,7.361c0.27,1.681,0.639,3.386,1.124,5.017
			c0.636,2.243,1.972,5.509,2.826,7.71"/>
	</g>
	<g id="POLYLINE_00000103258476031480850140000006149061066506112447_">
		
			<path fill="none" stroke="#FB8604" stroke-width="2.75" stroke-linecap="round" stroke-linejoin="round" stroke-miterlimit="10" d="
			M446.304,604.078c1.41,3.532,2.924,7.155,4.887,10.416c1.11,1.814,2.41,3.582,4.154,4.833c1.182,0.845,2.54,1.44,3.948,1.792
			c1.911,0.479,3.926,0.551,5.889,0.583c5.08-0.013,20.603,0.059,25.418-0.046c1.52-0.049,3.122-0.117,4.629-0.318
			c1.093-0.154,2.217-0.351,3.2-0.877c0.867-0.455,1.533-1.225,1.947-2.104c0.482-1.004,0.73-2.113,0.92-3.206
			c0.319-1.931,0.432-3.917,0.419-5.874c-0.02-1.623-0.123-3.277-0.423-4.874c-0.196-1.015-0.488-2.033-1.017-2.929
			c-0.865-1.509-2.411-2.42-4.006-2.996c-4.467-1.538-10.234-2.014-14.832-3.086c-1.87-0.437-3.806-0.958-5.354-2.144
			c-1.23-0.933-2.098-2.259-2.748-3.642c-1.714-3.809-2.637-8.209-3.47-12.294c-0.796-4.423-1.643-9.093-1.412-13.595
			c0.102-1.738,0.416-3.504,0.774-5.206c3.659-16.255,9.36-35.752,13.921-51.861"/>
	</g>
	<g id="POLYLINE_00000070090875436226798730000009707607537005971352_">
		
			<path fill="none" stroke="#FB8604" stroke-width="2.75" stroke-linecap="round" stroke-linejoin="round" stroke-miterlimit="10" d="
			M483.149,506.65c1.184-4.216,2.498-8.611,4.241-12.62c3.254-7.374,11.254-22.675,14.944-29.957
			c0.646-1.149,1.301-2.346,2.179-3.336c0.206-0.221,0.43-0.437,0.699-0.579l0.021-0.011l0.021-0.01l0.021-0.01l0.021-0.009
			l0.021-0.009l0.02-0.008l0.02-0.007l0.02-0.007l0.02-0.006l0.02-0.006l0.02-0.005l0.02-0.005l0.02-0.004l0.02-0.004l0.02-0.003
			l0.019-0.003l0.019-0.002l0.019-0.001l0.019-0.001l0.019,0l0.019,0l0.019,0.001l0.019,0.001l0.019,0.002l0.018,0.003
			c0.398,0.072,0.696,0.498,0.978,0.76c0.184,0.176,0.399,0.358,0.664,0.377l0.023,0.001l0.023,0l0.023-0.001l0.023-0.001
			l0.023-0.002l0.024-0.003l0.024-0.004l0.024-0.005l0.024-0.005l0.024-0.006l0.024-0.007l0.025-0.008l0.025-0.009l0.025-0.009
			l0.025-0.01l0.025-0.011l0.025-0.012l0.026-0.012l0.026-0.013l0.026-0.014l0.026-0.015l0.026-0.015l0.026-0.016
			c0.404-0.26,0.722-0.637,1.019-1.009c1.503-2.006,2.623-4.41,3.731-6.654c2.911-5.983,5.933-13.889,9.318-19.586
			c0.609-0.969,1.265-1.94,2.105-2.725c0.424-0.392,0.92-0.73,1.489-0.862c0.714-0.184,1.518-0.065,2.217-0.318
			c0.781-0.29,1.32-0.984,1.774-1.652c0.642-0.978,1.134-2.068,1.581-3.146c0.941-2.314,1.718-4.838,2.436-7.231
			c3.681-12.323,6.586-27.407,11.333-39.307c0.844-2.043,1.817-4.096,2.932-6.006c1.154-2.009,2.999-4.506,4.303-6.408
			c1.424-2.087,2.73-4.306,3.652-6.662c0.954-2.385,1.51-4.939,1.961-7.462c0.498-2.644,0.938-6.764,1.61-9.354
			c0.104-0.349,0.214-0.709,0.412-1.018l0.014-0.021l0.014-0.02l0.014-0.019l0.014-0.018l0.014-0.018l0.014-0.017l0.014-0.016
			l0.015-0.015l0.015-0.015l0.015-0.014l0.015-0.013l0.015-0.012l0.015-0.012l0.015-0.011l0.015-0.01l0.015-0.009l0.015-0.009
			l0.015-0.008l0.016-0.007l0.016-0.006l0.016-0.005l0.016-0.005l0.016-0.004l0.016-0.003c0.206-0.025,0.39,0.115,0.551,0.225
			c0.232,0.157,0.54,0.456,0.838,0.406l0.017-0.004l0.017-0.005l0.017-0.005l0.017-0.006l0.017-0.007l0.017-0.008l0.016-0.009
			l0.016-0.009l0.016-0.01l0.016-0.011l0.016-0.012l0.016-0.013l0.016-0.013l0.016-0.014l0.016-0.015l0.016-0.016l0.016-0.016
			l0.016-0.017l0.016-0.018l0.016-0.019l0.016-0.019l0.016-0.02l0.015-0.021c0.42-0.629,0.619-1.528,0.808-2.26
			c1.141-4.936,1.586-10.59,3.584-15.277c0.902-2.116,2.227-4.035,3.733-5.765l2.619-2.936"/>
	</g>
	<g id="POLYLINE_00000166641632448180032410000018002180212861220511_">
		
			<path fill="none" stroke="#FB8604" stroke-width="2.75" stroke-linecap="round" stroke-linejoin="round" stroke-miterlimit="10" d="
			M277.744,433.302c2.001,1.788,4.308,3.25,6.634,4.576c3.011,1.682,6.209,3.187,9.475,4.3c1.189,0.395,2.424,0.757,3.663,0.95
			c0.622,0.089,1.266,0.154,1.889,0.046l0.046-0.009l0.045-0.01l0.044-0.01l0.043-0.011l0.042-0.012l0.041-0.013l0.04-0.013
			l0.039-0.014l0.038-0.015l0.037-0.015l0.036-0.016l0.035-0.017l0.034-0.018l0.033-0.018l0.032-0.019l0.031-0.02l0.03-0.021
			l0.029-0.021l0.027-0.022l0.026-0.023l0.025-0.024l0.024-0.024l0.023-0.025c0.124-0.141,0.194-0.322,0.225-0.505
			c0.108-0.747-0.199-1.616-0.349-2.344c-0.084-0.424-0.208-0.95-0.032-1.361l0.014-0.028l0.015-0.027l0.016-0.026l0.017-0.025
			l0.018-0.024l0.019-0.024l0.02-0.023l0.021-0.022l0.022-0.021l0.023-0.02l0.024-0.02l0.025-0.019l0.026-0.018l0.027-0.017
			l0.028-0.017l0.029-0.016l0.03-0.015l0.031-0.014l0.032-0.014l0.033-0.013l0.034-0.012l0.035-0.011l0.036-0.011l0.037-0.01
			l0.038-0.009l0.039-0.008l0.04-0.008l0.041-0.007l0.042-0.006l0.042-0.005l0.043-0.005c1.137-0.08,2.421,0.331,3.506,0.661
			c1.441,0.463,2.98,1.073,4.382,1.651c7.404,3.105,17.914,8.308,25.407,11.067c2.771,0.999,5.62,2.046,8.561,2.386
			c0.728,0.061,1.493,0.091,2.19-0.166l0.035-0.014l0.034-0.014l0.034-0.015l0.033-0.015l0.032-0.016l0.032-0.016l0.031-0.017
			l0.03-0.017l0.03-0.018l0.029-0.018l0.029-0.019l0.028-0.019l0.027-0.02l0.027-0.02l0.026-0.021l0.025-0.021l0.025-0.022
			l0.024-0.022l0.023-0.023l0.023-0.023l0.022-0.024l0.021-0.024l0.021-0.025l0.02-0.025l0.019-0.026l0.018-0.026l0.018-0.027
			l0.017-0.027l0.016-0.028c0.123-0.214,0.179-0.46,0.207-0.703c0.088-0.745-0.082-1.553,0.012-2.297
			c0.032-0.211,0.095-0.431,0.248-0.587l0.018-0.018l0.019-0.017l0.02-0.016l0.02-0.016l0.021-0.015l0.022-0.014l0.022-0.014
			l0.023-0.013l0.024-0.012l0.025-0.012l0.025-0.011l0.026-0.01l0.027-0.01l0.027-0.009l0.028-0.009l0.029-0.008l0.029-0.007
			l0.03-0.007l0.031-0.006l0.031-0.006l0.032-0.005l0.033-0.004l0.033-0.004l0.034-0.003l0.035-0.003
			c0.391-0.023,0.786,0.049,1.167,0.132c2.45,0.616,5.832,2.138,8.228,2.977c2.929,1.068,5.961,2.022,9.051,2.485
			c2.091,0.314,4.244,0.361,6.352,0.225c4.726-0.249,10.071-1.762,14.747-2.461c1.152-0.15,2.337-0.25,3.495-0.116
			c0.729,0.082,1.446,0.29,2.103,0.62c1.125,0.538,2.219,1.546,3.193,2.316c0.885,0.706,1.849,1.347,2.928,1.713
			c1.762,0.591,3.666,0.598,5.502,0.472c4.234-0.344,8.421-1.506,12.471-2.742c5.294-1.632,10.583-3.623,15.4-6.382"/>
	</g>
	<g id="POLYLINE_00000060741446032959812620000015980073421861259671_">
		
			<path fill="none" stroke="#FB8604" stroke-width="2.75" stroke-linecap="round" stroke-linejoin="round" stroke-miterlimit="10" d="
			M614.047,289.237c-1.8-0.443-3.684-0.563-5.53-0.428c-1.7,0.136-3.416,0.516-4.92,1.343c-2.303,1.273-4.043,3.589-4.504,6.192
			c-0.544,2.876,0.911,5.645,2.735,7.774c0.801,0.932,1.706,1.8,2.687,2.54c1.092,0.829,2.368,1.455,3.741,1.617
			c2.056,0.257,4.218-0.295,5.875-1.546c0.914-0.691,1.649-1.61,2.164-2.631c0.542-1.065,0.854-2.238,1.048-3.413
			c0.349-2.201,0.365-4.472,0.074-6.681c-0.122-0.852-0.289-1.712-0.597-2.518c-0.18-0.463-0.423-0.913-0.776-1.266
			C615.508,289.679,614.767,289.421,614.047,289.237z"/>
	</g>
	<g id="POLYLINE_00000048474224672340556000000017725400977145200809_">
		
			<path fill="none" stroke="#FB8604" stroke-width="2.75" stroke-linecap="round" stroke-linejoin="round" stroke-miterlimit="10" d="
			M509.155,288.208c-0.305,0.969-0.427,1.994-0.482,3.005c-0.06,1.254-0.007,2.525,0.2,3.764c0.098,0.56,0.227,1.127,0.444,1.654
			c0.112,0.262,0.245,0.524,0.446,0.73l0.015,0.015l0.015,0.014l0.015,0.014l0.015,0.013l0.015,0.013l0.015,0.012l0.015,0.012
			l0.015,0.011l0.015,0.011l0.015,0.011l0.016,0.01l0.016,0.01l0.016,0.009l0.016,0.009l0.016,0.008l0.016,0.008l0.016,0.007
			l0.016,0.007c0.211,0.087,0.448,0.044,0.658-0.025c0.591-0.187,1.243-0.689,1.868-0.354l0.019,0.011l0.019,0.012l0.019,0.012
			l0.019,0.013l0.019,0.013l0.019,0.014l0.019,0.014l0.019,0.015l0.019,0.015c0.216,0.181,0.383,0.415,0.531,0.653
			c0.744,1.231,1.406,3.39,1.93,4.745c0.294,0.764,0.6,1.553,1.019,2.258c0.179,0.292,0.38,0.583,0.652,0.796l0.02,0.015l0.02,0.015
			l0.02,0.014l0.02,0.013l0.02,0.013l0.02,0.012l0.02,0.012l0.02,0.011l0.02,0.011l0.021,0.01l0.021,0.01l0.021,0.009
			c0.19,0.082,0.406,0.087,0.605,0.038c0.687-0.184,1.296-0.778,1.861-1.188c0.473-0.345,0.991-0.731,1.599-0.745l0.023,0
			l0.023,0.001l0.023,0.001l0.023,0.001l0.023,0.002l0.023,0.002c0.36,0.038,0.686,0.222,0.97,0.436
			c0.28,0.212,0.535,0.467,0.772,0.725c0.972,1.074,1.965,2.556,2.994,3.574c0.778,0.79,1.701,1.437,2.809,1.64
			c1.336,0.26,2.712,0.009,4.016-0.312c3.47-0.922,6.935-2.368,10.544-2.651c3.98-0.343,8.003,0.252,11.864,1.205
			c2.51,0.631,5.027,1.451,7.43,2.413c1.835,0.705,4.614,2.104,6.396,2.956c4.051,1.889,8.447,3.034,12.837,3.81
			c4.708,0.79,9.575,1.119,14.311,0.379c6.705-1.021,12.971-4.928,16.617-10.678"/>
	</g>
	<g id="POLYLINE_00000076566600274204434230000008683348222907946152_">
		
			<path fill="none" stroke="#FB8604" stroke-width="2.75" stroke-linecap="round" stroke-linejoin="round" stroke-miterlimit="10" d="
			M515.068,224.129c-1.586-1.636-2.998-3.488-3.948-5.567c-0.648-1.428-1.063-2.998-0.975-4.576c0.068-1.326,0.452-2.621,0.961-3.84
			c0.424-1.017,0.961-2.034,1.503-2.993c0.141-0.227,0.534-0.935,0.685-1.174c0,0,8.651-14.423,8.651-14.423
			c4.362-7.09,9.021-14.268,14.996-20.115c1.784-1.673,3.727-3.355,6.049-4.212c0.658-0.231,1.36-0.371,2.06-0.329
			c0.654,0.036,1.295,0.226,1.878,0.519c0.985,0.494,1.822,1.242,2.589,2.024c0.983,1.024,1.946,2.151,2.814,3.274
			c1.66,2.149,3.034,4.545,3.983,7.092c1.364,3.69,1.969,7.643,2.293,11.549c0.271,3.696,0.306,7.459-0.236,11.133
			c-0.352,2.418-1.084,4.808-1.874,7.115"/>
	</g>
	<g id="POLYLINE_00000057117039373366660700000018301914789110306716_">
		
			<path fill="none" stroke="#FB8604" stroke-width="2.75" stroke-linecap="round" stroke-linejoin="round" stroke-miterlimit="10" d="
			M565.187,192.392c3.345-0.696,6.732-1.626,9.628-3.497c3.121-1.994,5.98-5.42,8.562-8.065c1.619-1.671,3.372-3.267,5.304-4.568
			c3.124-2.116,6.667-3.679,10.379-4.391c0.858-0.151,1.741-0.248,2.612-0.177c0.536,0.047,1.078,0.161,1.556,0.417
			c0.502,0.261,0.887,0.709,1.112,1.224c0.555,1.299,0.467,2.834,0.373,4.216c-0.354,3.719-1.131,7.637-1.86,11.305
			c-1.383,6.717-3.15,13.652-5.249,20.185"/>
	</g>
	<g id="POLYLINE_00000021084331424750302330000002906264445425619364_">
		
			<path fill="none" stroke="#FB8604" stroke-width="2.75" stroke-linecap="round" stroke-linejoin="round" stroke-miterlimit="10" d="
			M614.047,289.237c-2.426-5.294-6.799-9.604-9.387-14.81c-1.819-3.573-2.719-7.554-3.236-11.508
			c-0.512-3.931-0.632-8.129-0.696-12.098c-0.088-8.654-0.063-22.134-0.581-30.65c-0.133-2.039-0.309-4.25-0.62-6.268
			c-0.171-1.073-0.373-2.171-0.728-3.201c-0.157-0.437-0.34-0.881-0.631-1.248l-0.023-0.028l-0.023-0.027l-0.023-0.026l-0.023-0.025
			l-0.023-0.024l-0.023-0.023l-0.024-0.022l-0.024-0.022l-0.024-0.021l-0.024-0.02l-0.024-0.019l-0.024-0.018l-0.025-0.017
			l-0.025-0.016l-0.025-0.015l-0.025-0.014l-0.025-0.014l-0.025-0.013l-0.026-0.012l-0.026-0.011l-0.026-0.01l-0.026-0.009
			l-0.026-0.008l-0.026-0.007l-0.027-0.006l-0.027-0.005l-0.027-0.004l-0.027-0.003l-0.027-0.002
			c-0.464-0.016-0.901,0.314-1.264,0.57l-0.672,0.507c-0.28,0.203-0.571,0.41-0.9,0.528c-0.183,0.064-0.386,0.094-0.574,0.038
			l-0.018-0.005l-0.018-0.006l-0.017-0.006l-0.017-0.007l-0.017-0.007l-0.017-0.008l-0.017-0.008l-0.017-0.009l-0.017-0.009
			l-0.017-0.009l-0.017-0.01l-0.017-0.01l-0.017-0.011l-0.017-0.011l-0.017-0.012l-0.017-0.012l-0.016-0.012
			c-0.199-0.155-0.35-0.364-0.482-0.576c-0.657-1.119-1.084-2.648-1.567-3.853c-0.39-0.964-0.814-2.067-1.595-2.782
			c-0.364-0.326-0.846-0.492-1.329-0.524c-0.879-0.061-1.803,0.197-2.675,0.266c-0.567,0.048-1.162,0.025-1.686-0.221
			c-0.961-0.47-1.605-1.45-2.188-2.312c-0.676-1.012-1.394-2.363-2.297-3.181c-0.225-0.198-0.48-0.372-0.766-0.468
			c-0.761-0.251-1.563,0.041-2.276,0.315l-1.138,0.464c-0.794,0.313-1.643,0.583-2.506,0.515c-0.955-0.077-1.838-0.521-2.633-1.032
			c-2.406-1.61-4.598-4.083-6.792-5.963c-1.682-1.486-3.568-2.773-5.635-3.66"/>
	</g>
	<g id="POLYLINE_00000132088763857612227570000011017974655512794510_">
		
			<path fill="none" stroke="#FB8604" stroke-width="2.75" stroke-linecap="round" stroke-linejoin="round" stroke-miterlimit="10" d="
			M523.293,189.365c-1.949,1.162-3.698,2.666-5.331,4.234c-2.396,2.323-5.518,5.644-7.922,7.962
			c-2.589,2.53-12.522,11.527-15.051,14.052c-1.224,1.222-2.51,2.504-3.565,3.875c-0.285,0.383-0.57,0.783-0.757,1.225l-0.015,0.038
			l-0.014,0.038l-0.013,0.037l-0.012,0.036l-0.011,0.036l-0.01,0.035l-0.009,0.034L490.574,221l-0.007,0.033l-0.005,0.032
			l-0.004,0.031l-0.003,0.031l-0.002,0.03l-0.001,0.029l0,0.028l0.002,0.028l0.003,0.027l0.004,0.026l0.005,0.025l0.006,0.025
			l0.008,0.024l0.009,0.023c0.122,0.284,0.517,0.389,0.772,0.523c0.17,0.083,0.34,0.183,0.459,0.333
			c0.093,0.115,0.146,0.26,0.159,0.406l0.003,0.035l0.001,0.036l0,0.037l-0.001,0.038l-0.002,0.039l-0.003,0.04l-0.004,0.041
			l-0.005,0.042l-0.006,0.043l-0.007,0.043l-0.008,0.044l-0.01,0.045c-0.132,0.567-0.397,1.1-0.662,1.615
			c-1.646,3.065-5.449,8.07-7.46,10.986c-1.1,1.603-2.264,3.271-3.142,5.008c-0.212,0.438-0.418,0.894-0.525,1.371l-0.01,0.046
			l-0.008,0.046l-0.007,0.045l-0.006,0.044l-0.005,0.043l-0.004,0.042l-0.003,0.041l-0.002,0.04L480.1,242.5l0,0.038l0.001,0.037
			l0.003,0.036c0.045,0.597,0.64,0.784,1.081,1.044c0.281,0.162,0.515,0.389,0.561,0.725l0.005,0.041l0.004,0.042l0.003,0.043
			l0.001,0.045l0,0.046l-0.002,0.047l-0.003,0.048l-0.005,0.05l-0.006,0.051l-0.007,0.052l-0.009,0.053l-0.01,0.055l-0.011,0.056
			c-0.168,0.736-0.514,1.426-0.857,2.094c-2.331,4.285-7.239,10.832-9.939,14.966c-1.344,2.069-2.746,4.227-3.755,6.482
			c-0.297,0.69-0.576,1.411-0.674,2.16l-0.007,0.066l-0.006,0.065l-0.005,0.063c-0.023,0.347,0.02,0.701,0.146,1.026
			c0.126,0.331,0.336,0.623,0.567,0.889c0.408,0.473,0.98,0.964,0.928,1.649l-0.002,0.027l-0.002,0.028l-0.003,0.028
			c-0.059,0.469-0.276,0.902-0.501,1.311c-1.585,2.676-4.107,5.036-5.562,7.794c-0.277,0.554-0.523,1.152-0.528,1.781
			c-0.009,0.572,0.202,1.122,0.472,1.618c0.28,0.544,0.757,1.171,0.694,1.814l-0.003,0.028l-0.004,0.028l-0.005,0.029l-0.005,0.029
			l-0.006,0.029l-0.007,0.029l-0.007,0.029l-0.008,0.029l-0.009,0.029l-0.009,0.029l-0.01,0.029l-0.011,0.029l-0.011,0.029
			l-0.012,0.029l-0.013,0.029l-0.013,0.029c-0.239,0.497-0.656,0.884-1.081,1.223c-0.867,0.672-1.865,1.18-2.861,1.633
			c-6.274,2.69-13.162,3.737-19.915,4.405c-3.716,0.378-13.846,0.905-17.341,1.701c-0.591,0.142-1.197,0.299-1.725,0.608
			l-0.035,0.022l-0.034,0.022l-0.033,0.022l-0.032,0.022l-0.031,0.022l-0.029,0.023l-0.028,0.023l-0.027,0.023l-0.026,0.023
			l-0.025,0.023l-0.024,0.024l-0.023,0.024l-0.021,0.024l-0.02,0.024l-0.019,0.025l-0.018,0.025l-0.017,0.025l-0.016,0.025
			l-0.014,0.026l-0.013,0.026l-0.012,0.026l-0.011,0.026l-0.01,0.026c-0.039,0.113-0.043,0.235-0.027,0.353
			c0.061,0.399,0.318,0.807,0.493,1.167c0.171,0.35,0.345,0.734,0.292,1.132l-0.005,0.032l-0.006,0.032l-0.007,0.032l-0.008,0.032
			l-0.009,0.032l-0.01,0.032l-0.011,0.032l-0.012,0.032l-0.013,0.032l-0.014,0.031l-0.015,0.031l-0.016,0.031l-0.017,0.031
			l-0.018,0.031l-0.019,0.031l-0.02,0.031l-0.021,0.031l-0.022,0.031l-0.023,0.031l-0.024,0.031l-0.025,0.03l-0.026,0.03
			l-0.027,0.03l-0.028,0.03l-0.029,0.03c-0.387,0.384-0.876,0.651-1.365,0.884c-0.93,0.432-1.945,0.734-2.936,0.992
			c-2.551,0.644-5.252,1.019-7.867,1.301c-4.047,0.419-8.212,0.596-12.28,0.592c-7.648,0.043-18.512-1.026-26.18-1.052
			c-1.986,0.028-4.022,0.08-5.955,0.575c-1.005,0.267-1.957,0.694-2.57,1.573c-0.479,0.646-0.754,1.484-1.271,2.103
			c-0.649,0.795-1.748,0.947-2.714,0.988c-2.426,0.046-4.872-0.497-7.243-0.96c-4.439-0.972-9.976-2.181-14.443-2.876
			c-9.589-1.563-23.876-2.845-33.64-3.873"/>
	</g>
</g>
<g id="_x32_D_x24_AG-OUTLINE">
	<g id="POLYLINE_00000144305031446816695810000017844455745472343710_">
		
			<path fill="none" stroke="#FB8604" stroke-width="3.5" stroke-linecap="round" stroke-linejoin="round" stroke-miterlimit="10" d="
			M277.744,433.302c-0.404,1.899-0.841,3.85-1.673,5.613c-0.225,0.45-0.481,0.902-0.849,1.253c-0.159,0.149-0.345,0.275-0.556,0.334
			c-0.26,0.075-0.537,0.05-0.801,0.005c-0.424-0.076-0.909-0.21-1.337-0.107c-0.239,0.054-0.458,0.179-0.639,0.343l-0.035,0.032
			l-0.035,0.034l-0.035,0.035l-0.035,0.037l-0.035,0.038l-0.035,0.04l-0.035,0.041c-0.466,0.575-0.78,1.263-1.073,1.938
			c-1.689,4.203-2.921,9.921-4.211,14.28c-0.591,2.004-1.204,4.095-2.087,5.992c-0.279,0.576-0.586,1.157-1.01,1.64l-0.038,0.042
			l-0.038,0.04l-0.038,0.039l-0.038,0.037l-0.038,0.036l-0.038,0.034l-0.038,0.033l-0.038,0.031l-0.038,0.03l-0.038,0.028
			l-0.038,0.026c-0.226,0.154-0.498,0.238-0.772,0.232c-0.446-0.009-0.862-0.206-1.254-0.402c-0.531-0.259-1.104-0.646-1.717-0.609
			l-0.028,0.003l-0.028,0.003l-0.028,0.004l-0.028,0.005l-0.027,0.005l-0.027,0.006l-0.027,0.007l-0.027,0.007l-0.027,0.008
			l-0.027,0.009l-0.027,0.009l-0.027,0.01l-0.027,0.011l-0.027,0.011l-0.027,0.012l-0.027,0.013l-0.027,0.013l-0.027,0.014
			l-0.027,0.015l-0.027,0.015l-0.027,0.016l-0.027,0.016c-0.433,0.281-0.747,0.708-1.022,1.138
			c-0.674,1.093-1.139,2.333-1.577,3.537c-2.246,6.377-3.77,13.859-7.586,19.529c-0.496,0.694-1.051,1.365-1.724,1.893
			c-0.418,0.324-0.892,0.595-1.412,0.71c-0.628,0.14-1.278,0.018-1.887-0.155c-1.117-0.317-2.293-0.865-3.475-0.593
			c-0.935,0.224-1.707,0.861-2.384,1.517c-0.633,0.624-1.211,1.331-1.75,2.037c-1.533,1.998-4.037,5.986-5.466,8.11
			c-2.936,4.347-6.318,8.539-10.547,11.691c-0.734,0.523-1.508,1.025-2.35,1.357c-0.4,0.152-0.828,0.276-1.259,0.24l-0.026-0.003
			l-0.026-0.003l-0.025-0.004l-0.025-0.004l-0.025-0.004l-0.025-0.005l-0.024-0.005c-0.917-0.22-1.119-1.452-2.034-1.681
			l-0.03-0.007l-0.03-0.007l-0.031-0.006l-0.031-0.005l-0.032-0.005l-0.032-0.004l-0.033-0.003l-0.033-0.003l-0.033-0.002
			l-0.034-0.001l-0.034-0.001l-0.035,0c-0.515,0.007-1.015,0.178-1.488,0.368c-1.162,0.485-2.258,1.182-3.307,1.875
			c-4.832,3.318-18.523,14.351-23.215,17.976c-2.282,1.848-4.63,3.829-6.682,5.929c-1.63,1.659-3.114,3.501-4.339,5.48
			c-1.578,2.502-2.808,5.39-3.942,8.12c-1.927,4.993-3.685,10.231-4.853,15.455c-0.781,3.521-1.334,7.141-1.362,10.753
			c-0.013,2.027,0.149,4.083,0.54,6.073c0.409,2.06,1.053,4.098,1.804,6.057c0.363,0.912,0.784,1.819,1.345,2.627
			c0.368,0.537,0.813,1.031,1.358,1.392c0.56,0.377,1.202,0.62,1.852,0.793c2.742,0.681,6.411,0.67,9.239,0.879
			c3.993,0.179,8.309,1.808,10.334,5.458c1.044,1.901,1.51,4.07,1.767,6.206c0.288,2.649,0.274,5.357-0.182,7.986
			c-0.159,0.853-0.365,1.716-0.722,2.509c-0.187,0.408-0.422,0.811-0.773,1.099c-0.333,0.276-0.75,0.427-1.167,0.52
			c-1.003,0.213-2.082,0.207-3.105,0.233c-5.459-0.022-26.63,0.074-31.662-0.049c-1.262-0.043-2.591-0.109-3.84-0.28
			c-1.365-0.185-2.729-0.509-3.981-1.091c-1.163-0.536-2.227-1.308-3.049-2.294c-0.852-1.012-1.437-2.231-1.786-3.503
			c-0.391-1.414-0.57-2.903-0.709-4.361c-0.692-10.033-0.83-25.445-1.1-35.586c-0.279-7.379-0.687-15.091-1.884-22.371
			c-0.774-5.193-2.701-12.371-2.557-17.577c0.067-2.515,0.775-4.988,1.933-7.215c0.876-1.713,1.976-3.347,3.108-4.901
			c2.734-3.735,7.634-9.415,10.442-13.103c1.195-1.589,2.442-3.234,3.355-5.005c0.236-0.481,0.462-0.986,0.541-1.519l0.005-0.04
			l0.004-0.039l0.003-0.039l0.003-0.038l0.002-0.037l0.001-0.037l0-0.036l-0.001-0.035l-0.002-0.035l-0.003-0.034l-0.003-0.033
			l-0.004-0.033l-0.005-0.032l-0.006-0.031l-0.007-0.031l-0.008-0.03l-0.009-0.029l-0.01-0.029l-0.011-0.028l-0.012-0.027
			l-0.012-0.027l-0.013-0.026l-0.014-0.025l-0.015-0.025l-0.016-0.024l-0.017-0.023l-0.018-0.022
			c-0.103-0.122-0.245-0.205-0.39-0.267c-0.367-0.154-0.876-0.217-1.267-0.294c-0.363-0.078-0.839-0.164-1.049-0.505l-0.005-0.009
			l-0.005-0.009l-0.005-0.009l-0.005-0.009l-0.004-0.009l-0.004-0.009l-0.004-0.009l-0.004-0.01l-0.004-0.01l-0.004-0.01
			l-0.004-0.01l-0.003-0.01l-0.003-0.01l-0.003-0.01c-0.006-0.02-0.011-0.043-0.015-0.064l-0.005-0.031l-0.004-0.032l-0.002-0.033
			l-0.001-0.034l0-0.035l0.001-0.036l0.003-0.037l0.004-0.037l0.005-0.038l0.006-0.039l0.008-0.04l0.009-0.041l0.01-0.042
			l0.011-0.043l0.012-0.043l0.014-0.044c0.182-0.553,0.496-1.06,0.808-1.548c1.807-2.733,6.049-7.415,8.181-9.993
			c1.331-1.622,2.729-3.305,3.806-5.109c0.283-0.493,0.557-1.01,0.706-1.562l0.013-0.05l0.012-0.05l0.01-0.049l0.009-0.048
			l0.008-0.047l0.007-0.047l0.006-0.046l0.004-0.045c0.025-0.27-0.027-0.549-0.163-0.785c-0.272-0.473-0.798-0.772-1.195-1.128
			c-0.348-0.3-0.625-0.686-0.667-1.155l-0.003-0.036l-0.003-0.037l-0.002-0.037l-0.001-0.038l-0.001-0.038
			c0-0.501,0.143-0.994,0.306-1.464c0.441-1.223,1.096-2.395,1.733-3.526c1.3-2.333,3.244-5.179,4.235-7.654
			c0.161-0.435,0.308-0.889,0.327-1.356l0.001-0.036l0-0.035l-0.001-0.035l-0.001-0.034l-0.002-0.034l-0.003-0.033l-0.003-0.033
			l-0.004-0.032l-0.005-0.032c-0.079-0.532-0.52-0.849-0.967-1.078l-0.553-0.28c-0.295-0.158-0.607-0.348-0.754-0.663l-0.009-0.02
			l-0.008-0.02l-0.008-0.021l-0.008-0.021l-0.007-0.021l-0.007-0.022l-0.006-0.022l-0.006-0.022l-0.005-0.022l-0.005-0.023
			l-0.005-0.023l-0.004-0.023l-0.004-0.024l-0.003-0.024l-0.003-0.024l-0.002-0.024c-0.033-0.406,0.078-0.81,0.203-1.193
			c0.874-2.361,2.616-4.976,3.48-7.406c0.483-1.282,0.788-2.655,0.695-4.031c-0.089-1.56-0.613-3.063-1.256-4.475
			c-0.709-1.567-2.185-4.198-2.89-5.765c-0.616-1.337-1.132-2.765-1.544-4.178c-1.7-5.961-2.041-12.269-1.703-18.435
			c0.127-2.131,0.49-5.879,0.436-7.966c-0.019-0.741-0.074-1.496-0.239-2.22c-0.111-0.482-0.276-0.96-0.54-1.381
			c-0.266-0.426-0.635-0.78-1.018-1.101c-0.633-0.535-1.397-1.07-1.785-1.821c-0.456-0.854-0.477-1.861-0.429-2.807
			c0.144-2.103,0.721-4.187,1.313-6.203c1.894-6.455,5.813-15.122,7.294-21.622c0.111-0.577,0.208-1.174,0.206-1.763
			c-0.004-0.272-0.026-0.552-0.122-0.808l-0.008-0.021l-0.008-0.02l-0.009-0.02l-0.009-0.02l-0.009-0.019l-0.01-0.019l-0.01-0.018
			l-0.01-0.018l-0.01-0.018l-0.011-0.017l-0.011-0.017l-0.011-0.016l-0.012-0.016l-0.012-0.015l-0.012-0.015l-0.012-0.015
			l-0.013-0.014l-0.013-0.014l-0.013-0.013l-0.014-0.013l-0.014-0.012l-0.014-0.012l-0.014-0.011l-0.015-0.011l-0.015-0.011
			l-0.015-0.01l-0.016-0.01l-0.016-0.009l-0.016-0.009l-0.017-0.008c-0.255-0.118-0.548-0.087-0.819-0.061
			c-0.34,0.033-0.763,0.13-1.099,0.05c-0.083-0.021-0.164-0.058-0.229-0.116l-0.015-0.014l-0.014-0.015l-0.014-0.015l-0.013-0.016
			l-0.013-0.017l-0.012-0.017l-0.011-0.018l-0.011-0.019l-0.01-0.02l-0.01-0.02l-0.009-0.021l-0.009-0.022l-0.008-0.022
			l-0.008-0.023l-0.007-0.024l-0.007-0.024l-0.006-0.025l-0.006-0.026l-0.005-0.026l-0.005-0.027l-0.004-0.028l-0.004-0.028
			l-0.003-0.029l-0.003-0.03c-0.037-0.792,0.235-1.604,0.467-2.354c0.397-1.197,0.915-2.427,1.422-3.582
			c2.376-5.295,5.909-11.924,8.586-17.108c1.368-2.546,2.849-5.19,4.52-7.543c1.008-1.426,2.303-2.96,3.104-4.509
			c0.961-1.791,1.293-3.794,1.053-5.806c-0.51-3.974-2.377-8.195-3.602-11.996c-0.396-1.224-0.802-2.503-0.992-3.778
			c-0.073-0.539-0.119-1.099-0.002-1.634l0.009-0.039l0.01-0.039l0.011-0.038l0.011-0.037l0.012-0.037l0.012-0.036l0.013-0.035
			l0.014-0.035l0.014-0.034l0.015-0.033l0.016-0.033l0.016-0.032l0.017-0.031l0.018-0.031l0.018-0.03l0.019-0.029l0.02-0.029
			l0.02-0.028l0.021-0.027l0.022-0.026l0.022-0.026l0.023-0.025l0.024-0.024l0.025-0.023l0.025-0.023l0.019-0.016l0.019-0.016
			l0.02-0.015l0.02-0.015l0.02-0.015l0.021-0.014l0.021-0.014l0.022-0.013l0.022-0.013l0.022-0.013l0.023-0.012l0.023-0.012
			l0.023-0.012l0.024-0.011c0.751-0.323,1.749-0.173,2.544-0.084l2.159,0.302c1.655,0.188,3.636,0.347,4.946-0.882
			c0.59-0.57,0.944-1.337,1.203-2.104c0.982-3.181,0.807-6.749,0.905-10.048c0.034-0.694,0.02-1.43,0.216-2.1l0.008-0.023
			l0.008-0.022l0.009-0.021l0.009-0.021l0.009-0.02l0.009-0.019l0.01-0.018l0.01-0.017l0.01-0.016l0.01-0.015l0.01-0.014
			l0.011-0.013l0.011-0.012l0.011-0.012l0.011-0.011l0.012-0.01l0.012-0.009l0.012-0.008l0.012-0.007l0.013-0.006l0.013-0.005
			l0.013-0.004l0.006-0.001l0.006-0.001l0.007-0.001l0.007-0.001l0.007-0.001l0.007,0l0.007,0l0.007,0l0.007,0l0.007,0.001
			l0.007,0.001l0.007,0.001l0.007,0.001l0.007,0.001l0.007,0.002l0.007,0.002l0.007,0.002l0.007,0.002l0.007,0.002l0.008,0.003
			l0.008,0.003l0.008,0.003l0.008,0.003l0.008,0.003c0.202,0.1,0.358,0.277,0.514,0.435c0.475,0.494,0.944,1.124,1.586,1.403
			c0.174,0.07,0.37,0.1,0.554,0.055l0.013-0.003c0.022-0.006,0.046-0.013,0.067-0.02l0.029-0.011l0.029-0.012l0.029-0.013
			l0.029-0.014l0.029-0.015l0.029-0.016l0.029-0.017l0.028-0.019l0.028-0.02l0.028-0.021l0.028-0.022l0.028-0.023l0.028-0.024
			l0.028-0.025l0.028-0.026l0.028-0.027l0.028-0.028l0.028-0.029c0.737-0.824,1.186-2.075,1.574-3.104
			c1.062-2.933,1.935-6.888,2.889-9.871c0.128-0.363,0.257-0.748,0.455-1.079l0.014-0.023l0.014-0.021l0.014-0.02l0.014-0.019
			l0.014-0.018l0.014-0.017l0.014-0.016l0.014-0.015l0.014-0.014l0.013-0.013l0.013-0.011l0.013-0.01l0.013-0.009l0.013-0.008
			l0.013-0.007l0.013-0.005l0.013-0.004l0.013-0.003l0.013-0.002l0.006,0l0.006,0l0.006,0l0.005,0l0.005,0.001l0.005,0.001
			l0.005,0.001l0.005,0.001l0.005,0.001l0.005,0.002l0.005,0.002l0.005,0.002l0.005,0.002l0.005,0.003l0.005,0.003l0.005,0.003
			l0.005,0.003l0.005,0.004l0.005,0.004l0.005,0.004l0.005,0.004l0.005,0.004l0.005,0.005l0.005,0.005l0.005,0.005l0.005,0.005
			l0.005,0.005l0.005,0.006c0.233,0.293,0.409,0.985,0.552,1.344c0.151,0.387,0.341,0.924,0.701,1.157l0.009,0.006l0.009,0.005
			l0.01,0.005l0.01,0.005l0.01,0.005l0.01,0.005l0.01,0.004l0.01,0.004l0.01,0.004l0.01,0.004l0.01,0.004l0.01,0.003l0.01,0.003
			l0.01,0.003l0.01,0.003l0.01,0.002l0.01,0.002l0.01,0.002l0.01,0.002l0.01,0.002l0.011,0.001l0.011,0.001l0.011,0.001l0.011,0.001
			l0.028,0l0.028-0.001l0.029-0.003l0.029-0.004l0.03-0.006l0.03-0.007l0.03-0.009l0.031-0.011l0.031-0.012l0.032-0.014l0.032-0.015
			l0.032-0.016l0.033-0.018l0.033-0.019l0.033-0.021l0.034-0.022l0.034-0.024l0.034-0.025l0.035-0.026l0.035-0.028l0.036-0.029
			c0.419-0.359,0.757-0.811,1.077-1.257c1.692-2.393,4.298-7.705,5.732-10.335c0.835-1.528,1.691-3.147,2.726-4.55
			c0.223-0.292,0.462-0.586,0.743-0.825l0.034-0.028l0.033-0.026l0.033-0.025l0.032-0.024l0.032-0.022l0.032-0.021l0.031-0.019
			l0.031-0.018l0.031-0.016l0.03-0.015l0.03-0.013l0.029-0.012l0.029-0.01l0.029-0.009l0.028-0.007l0.028-0.006l0.027-0.004
			l0.027-0.003l0.01-0.001l0.01,0l0.01,0l0.01,0l0.01,0l0.009,0l0.009,0.001l0.009,0.001l0.009,0.001l0.009,0.001l0.009,0.001
			l0.009,0.002l0.009,0.002l0.009,0.002l0.009,0.002L217,265.19l0.009,0.003l0.009,0.003l0.009,0.003l0.009,0.003l0.009,0.003
			l0.009,0.003l0.009,0.004l0.009,0.004l0.009,0.004l0.008,0.004l0.008,0.004c0.29,0.164,0.448,0.519,0.592,0.806
			c0.182,0.359,0.391,0.989,0.716,1.223l0.007,0.005l0.007,0.005l0.007,0.004l0.007,0.004l0.007,0.004l0.007,0.004l0.007,0.004
			l0.007,0.004l0.008,0.003l0.008,0.003l0.008,0.003l0.008,0.003l0.008,0.003l0.008,0.002l0.008,0.002l0.008,0.002l0.008,0.002
			l0.008,0.002l0.008,0.002l0.008,0.001l0.008,0.001l0.008,0.001l0.008,0.001l0.008,0.001l0.008,0l0.008,0l0.008,0l0.008,0
			l0.021-0.002l0.021-0.003l0.021-0.004l0.022-0.005l0.022-0.007l0.022-0.008l0.022-0.009l0.023-0.01l0.023-0.012l0.023-0.013
			l0.023-0.014l0.024-0.015l0.024-0.016l0.024-0.018l0.024-0.019l0.025-0.02l0.025-0.021l0.025-0.022l0.025-0.023l0.026-0.024
			c0.321-0.319,0.57-0.709,0.808-1.092c1.58-2.694,3.132-6.465,4.568-9.245c0.529-1.024,1.095-2.101,1.758-3.044
			c0.259-0.359,0.537-0.72,0.882-1l0.032-0.025l0.032-0.024l0.031-0.023l0.031-0.021l0.031-0.02l0.031-0.019l0.031-0.018l0.03-0.017
			l0.03-0.016l0.03-0.014l0.03-0.013l0.03-0.012l0.029-0.011l0.029-0.01l0.029-0.008l0.029-0.007l0.014-0.003l0.014-0.003
			l0.014-0.002l0.014-0.002l0.014-0.002l0.014-0.002l0.014-0.001l0.014-0.001l0.014-0.001l0.014,0l0.014,0l0.014,0l0.014,0
			l0.014,0.001l0.014,0.001l0.013,0.001l0.013,0.002l0.013,0.002l0.013,0.002l0.013,0.002l0.013,0.003l0.013,0.003l0.013,0.003
			l0.013,0.003l0.013,0.004l0.013,0.004l0.013,0.004l0.013,0.005l0.013,0.005l0.013,0.005l0.013,0.005
			c0.383,0.174,0.621,0.561,0.83,0.908c0.389,0.662,0.69,1.503,1.113,2.145c0.082,0.118,0.173,0.235,0.291,0.319l0.016,0.011
			l0.016,0.01l0.016,0.009l0.016,0.009l0.016,0.008l0.016,0.007l0.016,0.007l0.016,0.006l0.016,0.006l0.016,0.005l0.016,0.004
			l0.016,0.004l0.016,0.003l0.016,0.002l0.016,0.002l0.016,0.001l0.016,0.001l0.016,0l0.016-0.001l0.017-0.001l0.017-0.002
			l0.017-0.002l0.017-0.003l0.017-0.004l0.017-0.004l0.017-0.005l0.017-0.005l0.017-0.006l0.017-0.006l0.017-0.007l0.017-0.008
			l0.017-0.008l0.017-0.009l0.017-0.009l0.018-0.01l0.018-0.01l0.018-0.011l0.018-0.011l0.018-0.012
			c0.489-0.365,0.834-0.95,1.175-1.45c1.588-2.532,3.281-5.234,5.579-7.177c1.893-1.627,4.173-2.766,6.519-3.584
			c2.13-0.722,4.373-1.234,6.63-1.263c0.86,0.009,1.775,0.052,2.554,0.452l0.031,0.018l0.031,0.018l0.03,0.018l0.029,0.019
			l0.028,0.019l0.028,0.019l0.027,0.02l0.026,0.02l0.025,0.02l0.025,0.021l0.024,0.021l0.023,0.021l0.022,0.022l0.022,0.022
			l0.021,0.022l0.02,0.023l0.019,0.023l0.018,0.023l0.018,0.024l0.017,0.024l0.016,0.024l0.015,0.025l0.014,0.025l0.014,0.025
			l0.013,0.026l0.012,0.026l0.011,0.026l0.01,0.027l0.009,0.027l0.008,0.027l0.008,0.028l0.007,0.028l0.006,0.028l0.005,0.029
			l0.004,0.029l0.003,0.029l0.002,0.03l0.001,0.03l0,0.03l0,0.026l-0.001,0.026l-0.002,0.026l-0.002,0.027l-0.003,0.027
			l-0.003,0.027l-0.004,0.027l-0.005,0.027l-0.005,0.028l-0.006,0.028L253.947,244c-0.087,0.35-0.271,0.669-0.468,0.969
			c-0.368,0.548-0.82,1.053-1.273,1.532c-1.491,1.585-3.538,3.211-5.006,4.82c-0.18,0.211-0.362,0.43-0.483,0.681l-0.009,0.019
			l-0.008,0.019l-0.008,0.019l-0.007,0.019l-0.007,0.018l-0.006,0.018l-0.005,0.018l-0.005,0.017l-0.004,0.017l-0.004,0.017
			l-0.003,0.017l-0.002,0.016l-0.002,0.016l-0.001,0.016l0,0.015l0,0.015l0.001,0.015l0.001,0.014l0.002,0.014l0.003,0.014
			l0.003,0.014l0.004,0.013l0.004,0.013l0.005,0.013l0.006,0.012l0.006,0.012l0.007,0.012l0.007,0.011l0.008,0.011l0.008,0.011
			l0.009,0.011l0.01,0.01l0.01,0.01l0.011,0.01l0.011,0.009l0.012,0.009l0.012,0.009l0.013,0.009l0.014,0.008l0.014,0.008
			l0.015,0.008l0.015,0.008l0.016,0.007l0.016,0.007l0.017,0.007l0.017,0.006l0.018,0.006l0.018,0.006l0.019,0.006l0.019,0.005
			l0.02,0.005c0.464,0.1,0.951,0.036,1.418-0.015c3.911-0.601,8.575-2.117,12.479-2.769c4.103-0.766,8.254-0.779,12.344,0.081
			c3.423,0.725,6.923,1.701,10.101,3.179c0.567,0.29,1.282,0.641,1.687,1.132l0.012,0.015l0.011,0.015l0.011,0.015l0.01,0.015
			l0.01,0.015l0.009,0.015l0.009,0.015l0.008,0.015l0.008,0.015l0.007,0.015l0.007,0.015l0.006,0.015l0.005,0.015l0.005,0.014
			l0.004,0.014l0.004,0.014l0.003,0.014l0.003,0.014l0.002,0.014l0.002,0.014l0.001,0.014l0.001,0.014l0,0.014l0,0.011l-0.001,0.011
			l-0.001,0.011l-0.001,0.011l-0.002,0.011l-0.002,0.011l-0.003,0.011l-0.003,0.011l-0.003,0.011l-0.004,0.011l-0.004,0.011
			l-0.004,0.011l-0.005,0.011l-0.005,0.011l-0.006,0.011l-0.006,0.011l-0.006,0.01l-0.007,0.01l-0.007,0.01l-0.007,0.01l-0.008,0.01
			l-0.008,0.01l-0.008,0.01l-0.009,0.01l-0.009,0.01l-0.01,0.01l-0.01,0.01l-0.01,0.01l-0.011,0.01l-0.011,0.01
			c-0.299,0.244-0.685,0.352-1.048,0.461c-3.009,0.734-6.609,0.973-9.621,1.925c-1.008,0.321-2.055,0.658-2.91,1.3
			c-0.202,0.162-0.396,0.354-0.494,0.598l-0.005,0.014l-0.005,0.014l-0.005,0.014l-0.004,0.014l-0.004,0.014l-0.004,0.014
			l-0.004,0.014l-0.003,0.014l-0.003,0.014l-0.003,0.014l-0.003,0.014l-0.002,0.014l-0.002,0.014l-0.002,0.014l-0.001,0.014
			l-0.001,0.014l-0.001,0.014l0,0.014l0,0.014l0,0.014l0,0.014l0.001,0.014l0.001,0.014l0.001,0.014l0.002,0.014l0.002,0.014
			l0.002,0.014l0.003,0.014l0.003,0.014l0.003,0.014l0.004,0.014l0.004,0.014l0.007,0.024l0.008,0.024l0.009,0.024l0.01,0.024
			l0.011,0.024l0.011,0.024l0.012,0.024l0.013,0.024l0.014,0.024l0.015,0.024l0.016,0.024l0.016,0.024l0.017,0.024l0.018,0.024
			l0.019,0.024l0.02,0.024l0.021,0.025c0.577,0.632,1.474,1.046,2.235,1.423c5.68,2.571,12.072,4.414,17.009,8.353
			c1.853,1.489,3.588,3.193,4.858,5.215c0.331,0.56,0.745,1.292,0.752,1.95l-0.001,0.019L296,277.009l-0.001,0.018l-0.002,0.018
			l-0.002,0.017l-0.002,0.017l-0.003,0.017l-0.003,0.017l-0.003,0.016l-0.004,0.016l-0.004,0.016l-0.004,0.015l-0.005,0.015
			l-0.005,0.015l-0.005,0.014l-0.006,0.014l-0.006,0.014l-0.006,0.014l-0.007,0.013l-0.007,0.013l-0.007,0.013
			c-0.068,0.116-0.188,0.191-0.314,0.229c-0.131,0.04-0.269,0.053-0.406,0.055c-0.6,0.004-1.443-0.168-2.043-0.249
			c-0.725-0.1-1.469-0.164-2.2-0.129c-0.375,0.021-0.757,0.064-1.113,0.191c-0.259,0.094-0.53,0.257-0.618,0.534l-0.006,0.02
			l-0.005,0.02l-0.005,0.02l-0.004,0.021l-0.004,0.021l-0.003,0.021l-0.002,0.021l-0.002,0.022l-0.001,0.022l-0.001,0.022l0,0.023
			l0,0.023l0.001,0.023l0.002,0.024l0.002,0.024l0.003,0.024l0.003,0.024l0.004,0.025l0.004,0.025l0.005,0.025
			c0.08,0.37,0.27,0.708,0.464,1.029c1.482,2.24,4.331,5.299,5.916,7.635c2.214,3.059,3.874,6.533,4.753,10.21
			c0.449,1.912,0.783,3.903,0.609,5.871c9.86,1.036,24.011,2.305,33.64,3.873c4.457,0.693,9.999,1.907,14.443,2.876
			c2.374,0.463,4.816,1.006,7.243,0.96c0.996-0.039,2.135-0.209,2.774-1.061c0.49-0.628,0.768-1.455,1.253-2.087
			c0.635-0.882,1.657-1.3,2.678-1.555c2.208-0.526,4.536-0.533,6.796-0.534c10.037,0.215,22.109,1.528,32.11,0.875
			c4.536-0.27,9.162-0.673,13.574-1.809c0.912-0.25,1.849-0.543,2.703-0.955c0.448-0.221,0.895-0.475,1.251-0.83l0.029-0.03
			l0.028-0.03l0.027-0.03l0.026-0.03l0.025-0.03l0.024-0.031l0.023-0.031l0.022-0.031l0.021-0.031l0.02-0.031l0.019-0.031
			l0.018-0.031l0.017-0.031l0.016-0.031l0.015-0.031l0.014-0.031l0.013-0.032l0.012-0.032l0.011-0.032l0.01-0.032l0.009-0.032
			l0.008-0.032l0.007-0.032l0.006-0.032l0.005-0.032c0.052-0.399-0.122-0.783-0.292-1.132c-0.175-0.361-0.431-0.767-0.493-1.167
			c-0.016-0.118-0.012-0.24,0.027-0.353l0.01-0.026l0.011-0.026l0.012-0.026l0.013-0.026l0.014-0.026l0.016-0.025l0.017-0.025
			l0.018-0.025l0.019-0.025l0.02-0.024l0.021-0.024l0.023-0.024l0.024-0.024l0.025-0.023l0.026-0.023l0.027-0.023l0.028-0.023
			l0.029-0.023l0.031-0.022l0.032-0.022l0.033-0.022l0.034-0.022l0.035-0.022c0.528-0.309,1.134-0.466,1.725-0.608
			c3.445-0.791,13.696-1.329,17.341-1.701c6.753-0.669,13.641-1.715,19.915-4.405c1.025-0.467,2.053-0.989,2.937-1.694
			c0.396-0.325,0.781-0.694,1.005-1.163l0.013-0.029l0.013-0.029l0.012-0.029l0.011-0.029l0.011-0.029l0.01-0.029l0.009-0.029
			l0.009-0.029l0.008-0.029l0.007-0.029l0.007-0.029l0.006-0.029l0.005-0.029l0.005-0.029l0.004-0.028l0.003-0.028
			c0.063-0.642-0.414-1.271-0.694-1.814c-0.264-0.486-0.472-1.021-0.472-1.581c-0.005-0.579,0.202-1.136,0.446-1.652
			c1.424-2.815,3.983-5.191,5.601-7.885c0.243-0.432,0.481-0.889,0.544-1.386l0.003-0.028l0.002-0.028l0.002-0.027
			c0.052-0.708-0.553-1.203-0.968-1.696c-0.471-0.536-0.726-1.147-0.673-1.868l0.005-0.063l0.006-0.065l0.007-0.066
			c0.098-0.749,0.377-1.469,0.674-2.16c1.009-2.254,2.411-4.413,3.755-6.482c2.713-4.154,7.593-10.658,9.939-14.966
			c0.343-0.668,0.689-1.358,0.857-2.094l0.011-0.056l0.01-0.055l0.009-0.053l0.007-0.052l0.006-0.051l0.005-0.05l0.003-0.048
			l0.002-0.047l0-0.046l-0.001-0.045l-0.003-0.043l-0.004-0.042l-0.005-0.041c-0.046-0.335-0.28-0.563-0.561-0.725
			c-0.441-0.259-1.037-0.447-1.081-1.044l-0.003-0.036l-0.001-0.037l0-0.038l0.001-0.039l0.002-0.04l0.003-0.041l0.004-0.042
			l0.005-0.043l0.006-0.044l0.007-0.045l0.008-0.046l0.01-0.046c0.107-0.477,0.312-0.933,0.525-1.371
			c0.877-1.736,2.042-3.405,3.142-5.008c2.026-2.94,5.796-7.895,7.46-10.986c0.265-0.515,0.53-1.048,0.662-1.615l0.01-0.045
			l0.008-0.044l0.007-0.043l0.006-0.043l0.005-0.042l0.004-0.041l0.003-0.04l0.002-0.039l0.001-0.038l0-0.037l-0.001-0.036
			l-0.003-0.035c-0.013-0.147-0.066-0.291-0.159-0.406c-0.119-0.15-0.289-0.25-0.459-0.333c-0.255-0.134-0.65-0.239-0.772-0.523
			l-0.009-0.023l-0.008-0.024l-0.006-0.025l-0.005-0.025l-0.004-0.026l-0.003-0.027l-0.002-0.028l0-0.028l0.001-0.029l0.002-0.03
			l0.003-0.031l0.004-0.031l0.005-0.032l0.007-0.033l0.008-0.033l0.009-0.034l0.01-0.035l0.011-0.036l0.012-0.036l0.013-0.037
			l0.014-0.038l0.015-0.038c0.187-0.442,0.472-0.842,0.757-1.225c1.054-1.371,2.341-2.653,3.565-3.875
			c2.517-2.514,12.472-11.531,15.051-14.052c2.406-2.319,5.525-5.637,7.922-7.962c1.633-1.568,3.382-3.072,5.331-4.234
			c2.839-4.544,5.93-9.135,9.352-13.256c1.948-2.329,4.036-4.617,6.405-6.526c1.084-0.86,2.246-1.663,3.529-2.198
			c0.78-0.321,1.624-0.537,2.472-0.487c1.075,0.055,2.081,0.538,2.932,1.174c1.498,1.14,2.718,2.643,3.912,4.086
			c1.671,2.077,3.095,4.382,4.106,6.852c1.115,2.699,1.751,5.599,2.177,8.481c2.664,1.126,4.922,2.929,7.009,4.901
			c3.345-0.696,6.732-1.626,9.628-3.497c3.121-1.994,5.98-5.42,8.562-8.065c1.619-1.671,3.372-3.267,5.304-4.568
			c3.124-2.116,6.667-3.679,10.379-4.391c0.858-0.151,1.741-0.248,2.612-0.177c0.536,0.047,1.078,0.161,1.556,0.417
			c0.502,0.261,0.887,0.709,1.112,1.224c0.555,1.299,0.467,2.834,0.373,4.216c-0.354,3.719-1.131,7.637-1.86,11.305
			c-1.383,6.717-3.15,13.652-5.249,20.185l0.026,0.008l0.025,0.009l0.025,0.01l0.025,0.01l0.025,0.011l0.025,0.012l0.025,0.013
			l0.024,0.014l0.024,0.015l0.024,0.016l0.024,0.017l0.024,0.017l0.024,0.018l0.024,0.019l0.023,0.02l0.023,0.021l0.023,0.022
			l0.023,0.022l0.023,0.023l0.023,0.024l0.023,0.025l0.022,0.026l0.022,0.027c0.284,0.351,0.465,0.778,0.62,1.199
			c0.333,0.939,0.53,1.943,0.696,2.924c1.001,6.713,0.957,14.255,1.125,21.056c0.15,7.376-0.137,20.396,0.74,27.585
			c0.485,4.062,1.337,8.162,3.143,11.859c2.534,5.309,7.122,9.821,9.569,15.175c0.686,0.177,1.39,0.416,1.917,0.908
			c0.791,0.749,1.065,1.864,1.288,2.894c0.334,1.705,0.412,3.473,0.338,5.206c-0.076,1.493-0.266,3.005-0.718,4.435
			c-0.338,1.054-0.847,2.065-1.559,2.916c-0.664,0.799-1.505,1.45-2.439,1.904c-3.342,5.262-8.888,9.008-14.954,10.359
			c-3.827,0.85-7.81,0.871-11.699,0.511c-4.602-0.454-9.202-1.426-13.574-2.937l-2.619,2.936c-1.506,1.73-2.831,3.649-3.733,5.765
			c-1.997,4.682-2.444,10.346-3.584,15.277c-0.189,0.733-0.387,1.63-0.808,2.26l-0.015,0.021l-0.016,0.02l-0.016,0.019l-0.016,0.019
			l-0.016,0.018l-0.016,0.017l-0.016,0.016l-0.016,0.016l-0.016,0.015l-0.016,0.014l-0.016,0.013l-0.016,0.013l-0.016,0.012
			l-0.016,0.011l-0.016,0.01l-0.016,0.009l-0.016,0.009l-0.017,0.008l-0.017,0.007l-0.017,0.006l-0.017,0.005l-0.017,0.005
			l-0.017,0.004c-0.298,0.05-0.607-0.249-0.838-0.406c-0.161-0.11-0.345-0.251-0.551-0.225l-0.016,0.003l-0.016,0.004l-0.016,0.005
			l-0.016,0.005l-0.016,0.006l-0.016,0.007l-0.015,0.008l-0.015,0.009l-0.015,0.009l-0.015,0.01l-0.015,0.011l-0.015,0.012
			l-0.015,0.012l-0.015,0.013l-0.015,0.014l-0.015,0.015l-0.015,0.015l-0.014,0.016l-0.014,0.017l-0.014,0.018l-0.014,0.018
			l-0.014,0.019l-0.014,0.02l-0.014,0.021c-0.198,0.309-0.308,0.669-0.412,1.018c-0.67,2.581-1.113,6.716-1.61,9.354
			c-0.451,2.523-1.007,5.077-1.961,7.462c-0.922,2.356-2.228,4.576-3.652,6.662c-1.306,1.878-3.16,4.445-4.28,6.37
			c-1.124,1.916-2.105,3.994-2.956,6.047c-1.167,2.822-2.197,5.92-3.088,8.847c-2.66,8.847-5.64,21.553-8.244,30.458
			c-0.72,2.396-1.494,4.917-2.436,7.232c-0.447,1.079-0.939,2.168-1.581,3.146c-0.454,0.668-0.993,1.362-1.774,1.652
			c-0.699,0.254-1.503,0.135-2.217,0.318c-0.569,0.133-1.065,0.471-1.489,0.862c-0.841,0.785-1.497,1.756-2.105,2.725
			c-3.382,5.689-6.414,13.616-9.319,19.586c-1.107,2.242-2.227,4.647-3.731,6.654c-0.297,0.373-0.615,0.749-1.019,1.009
			l-0.026,0.016l-0.026,0.015l-0.026,0.015l-0.026,0.014l-0.026,0.013l-0.026,0.012l-0.025,0.012l-0.025,0.011l-0.025,0.01
			l-0.025,0.009l-0.025,0.009l-0.025,0.008l-0.024,0.007l-0.024,0.006l-0.024,0.005l-0.024,0.005l-0.024,0.004l-0.024,0.003
			l-0.023,0.002l-0.023,0.001l-0.023,0.001l-0.023,0l-0.023-0.001c-0.078-0.005-0.155-0.026-0.227-0.057
			c-0.105-0.046-0.2-0.112-0.288-0.185c0,0-0.025-0.021-0.025-0.021s-0.025-0.022-0.025-0.022s-0.025-0.022-0.025-0.022
			s-0.025-0.023-0.025-0.023s-0.025-0.023-0.025-0.023l-0.025-0.024l-0.025-0.024c0,0-0.049-0.049-0.049-0.049
			s-0.242-0.249-0.242-0.249s-0.048-0.049-0.048-0.049s-0.049-0.047-0.049-0.047s-0.024-0.023-0.024-0.023s-0.024-0.023-0.024-0.023
			s-0.025-0.022-0.025-0.022s-0.025-0.022-0.025-0.022s-0.025-0.021-0.025-0.021s-0.025-0.021-0.025-0.021s-0.012-0.01-0.012-0.01
			s-0.012-0.01-0.012-0.01s-0.013-0.01-0.013-0.01c-0.048-0.035-0.1-0.073-0.153-0.101c-0.073-0.039-0.153-0.071-0.236-0.082
			c-0.27-0.036-0.52,0.107-0.729,0.262c-0.353,0.269-0.643,0.627-0.912,0.978c-0.694,0.924-1.289,1.999-1.847,3.012
			c-2.624,5.081-11.422,22.354-13.741,27.305c-1.426,3.069-2.691,6.309-3.699,9.538c-4.785,16.394-10.46,36.247-14.485,52.795
			c-0.54,2.473-1.404,5.639-1.676,8.142c-0.297,2.294-0.23,4.642,0.008,6.938c0.325,3.161,0.871,6.443,1.504,9.557
			c0.752,3.51,1.568,7.12,2.955,10.441c0.493,1.138,1.091,2.257,1.913,3.194c0.555,0.636,1.219,1.179,1.95,1.601
			c1.017,0.591,2.152,0.969,3.283,1.274c4.232,1.107,9.751,1.675,13.988,2.758c2.053,0.545,4.262,1.252,5.628,2.981
			c0.917,1.159,1.31,2.634,1.545,4.069c0.406,2.642,0.415,5.355,0.197,8.015c-0.148,1.57-0.36,3.177-0.88,4.673
			c-0.304,0.856-0.751,1.688-1.438,2.296c-0.788,0.706-1.826,1.052-2.848,1.259c-2.397,0.474-4.947,0.484-7.384,0.547
			c-4.497-0.068-23.042,0.209-27.148-0.141c-1.233-0.119-2.473-0.337-3.645-0.743c-1.309-0.452-2.55-1.133-3.602-2.036
			c-1.475-1.265-2.609-2.884-3.602-4.541c-1.879-3.185-3.359-6.716-4.727-10.149c-0.837-2.178-2.202-5.484-2.826-7.71
			c-0.486-1.631-0.855-3.336-1.124-5.017c-0.341-2.067-0.723-5.376-1.275-7.361c-0.129-0.446-0.278-0.898-0.504-1.306
			c-0.12-0.214-0.267-0.421-0.464-0.572c-0.231-0.182-0.541-0.274-0.814-0.373c-0.299-0.105-0.585-0.263-0.796-0.503
			c-0.299-0.334-0.465-0.762-0.606-1.181c-0.32-0.993-0.497-2.064-0.661-3.093c-0.605-3.893-0.818-8.496-1.666-12.341
			c-0.159-0.63-0.326-1.28-0.671-1.837l-0.021-0.031l-0.021-0.03l-0.021-0.029l-0.021-0.028l-0.021-0.027l-0.021-0.026l-0.021-0.025
			l-0.022-0.024l-0.022-0.023l-0.022-0.022c-0.236-0.231-0.544-0.279-0.86-0.223c-0.379,0.055-0.775,0.268-1.161,0.223l-0.017-0.003
			l-0.017-0.003l-0.017-0.004l-0.017-0.004l-0.017-0.005l-0.017-0.005l-0.016-0.006l-0.016-0.006l-0.016-0.007l-0.016-0.007
			l-0.016-0.008l-0.016-0.008l-0.016-0.008l-0.015-0.009l-0.015-0.009l-0.015-0.01l-0.015-0.01l-0.015-0.011l-0.015-0.011
			l-0.015-0.012l-0.014-0.012l-0.014-0.012l-0.014-0.013l-0.014-0.013l-0.014-0.014l-0.014-0.014l-0.014-0.015l-0.013-0.015
			l-0.013-0.016l-0.013-0.016l-0.013-0.016c-0.269-0.363-0.374-0.817-0.463-1.252c-0.165-0.889-0.197-1.832-0.211-2.736
			c-0.017-2.031,0.128-4.253,0.277-6.282c0.685-8.877,2.707-25.112,2.854-33.893c0.031-1.898,0.026-3.921-0.169-5.809
			c-0.129-1.124-0.286-2.28-0.756-3.32c-0.213-0.461-0.518-0.877-0.866-1.246l-0.541-0.565c-0.296-0.316-0.555-0.674-0.709-1.081
			c-0.186-0.477-0.242-0.994-0.253-1.503c-0.016-0.969,0.108-1.962,0.25-2.92c0.586-3.825,2.335-10.558,3.207-14.399
			c0.518-2.377,1.078-4.939,1.286-7.357c0.067-0.859,0.104-1.737-0.025-2.591c-0.075-0.479-0.22-0.951-0.448-1.38
			c-0.263-0.51-0.69-0.988-1.055-1.43c-0.299-0.365-0.569-0.764-0.729-1.211c-0.173-0.47-0.226-0.975-0.231-1.473
			c-0.006-0.819,0.102-1.66,0.226-2.469c0.487-3.145,1.577-6.869,1.766-10.047c0.033-0.968,0.034-2.082-0.538-2.907
			c-0.429-0.619-1.139-0.984-1.773-1.358c-0.792-0.452-1.487-1.014-1.792-1.906c-0.189-0.531-0.24-1.103-0.251-1.663
			c-0.013-0.981,0.11-1.978,0.262-2.946c-4.817,2.758-10.106,4.75-15.4,6.381c-4.051,1.236-8.237,2.397-12.471,2.742
			c-1.836,0.126-3.74,0.119-5.502-0.472c-1.078-0.366-2.043-1.007-2.928-1.713c-1.007-0.788-2.098-1.805-3.253-2.346
			c-0.678-0.333-1.42-0.532-2.171-0.604c-1.227-0.121-2.477,0.005-3.694,0.176c-4.722,0.753-10.09,2.245-14.872,2.442
			c-1.959,0.102-3.96,0.04-5.901-0.251c-3.089-0.462-6.122-1.417-9.051-2.485c-2.398-0.843-5.768-2.355-8.228-2.977
			c-0.38-0.084-0.776-0.155-1.167-0.132l-0.035,0.003l-0.034,0.003l-0.033,0.004l-0.033,0.004l-0.032,0.005l-0.031,0.006
			l-0.031,0.006l-0.03,0.007l-0.029,0.007l-0.029,0.008l-0.028,0.009l-0.027,0.009l-0.027,0.01l-0.026,0.01l-0.025,0.011
			l-0.025,0.012l-0.024,0.012l-0.023,0.013l-0.022,0.014l-0.022,0.014l-0.021,0.015l-0.02,0.016l-0.02,0.016l-0.019,0.017
			l-0.018,0.018c-0.153,0.156-0.217,0.376-0.248,0.587c-0.095,0.744,0.075,1.552-0.012,2.297c-0.028,0.243-0.085,0.489-0.207,0.703
			l-0.016,0.028l-0.017,0.027l-0.018,0.027l-0.018,0.026l-0.019,0.026l-0.02,0.025l-0.021,0.025l-0.021,0.024l-0.022,0.024
			l-0.023,0.023l-0.023,0.023l-0.024,0.022l-0.025,0.022l-0.025,0.021l-0.026,0.021l-0.027,0.02l-0.027,0.02l-0.028,0.019
			l-0.029,0.019l-0.029,0.018l-0.03,0.018l-0.03,0.017l-0.031,0.017l-0.032,0.016l-0.032,0.016l-0.033,0.015l-0.034,0.015
			l-0.034,0.014l-0.035,0.014c-0.736,0.27-1.545,0.226-2.313,0.154c-2.896-0.361-5.705-1.386-8.438-2.373
			c-7.478-2.753-18.019-7.97-25.407-11.068c-1.4-0.577-2.941-1.187-4.382-1.651c-1.09-0.331-2.368-0.74-3.506-0.661l-0.043,0.005
			l-0.042,0.005l-0.042,0.006l-0.041,0.007l-0.04,0.008l-0.039,0.008l-0.038,0.009l-0.037,0.01l-0.036,0.011l-0.035,0.011
			l-0.034,0.012l-0.033,0.013l-0.032,0.014l-0.031,0.014l-0.03,0.015l-0.029,0.016l-0.028,0.017l-0.027,0.017l-0.026,0.018
			l-0.025,0.019l-0.024,0.02l-0.023,0.02l-0.022,0.021l-0.021,0.022l-0.02,0.023l-0.019,0.024l-0.018,0.024l-0.017,0.025
			l-0.016,0.026l-0.015,0.027l-0.014,0.028c-0.176,0.412-0.052,0.937,0.032,1.361c0.15,0.73,0.457,1.596,0.349,2.344
			c-0.031,0.183-0.101,0.364-0.225,0.505l-0.023,0.025l-0.024,0.024l-0.025,0.024l-0.026,0.023l-0.027,0.022l-0.029,0.021
			l-0.03,0.021l-0.031,0.02l-0.032,0.019L299.929,443l-0.034,0.018l-0.035,0.017l-0.036,0.016l-0.037,0.015l-0.038,0.015
			l-0.039,0.014l-0.04,0.013l-0.041,0.013l-0.042,0.012l-0.043,0.011l-0.044,0.01l-0.045,0.01l-0.046,0.009
			c-0.623,0.109-1.267,0.044-1.889-0.046c-1.239-0.192-2.475-0.555-3.663-0.95c-3.266-1.112-6.464-2.618-9.475-4.3
			C282.051,436.553,279.744,435.09,277.744,433.302z"/>
	</g>
</g>
</svg>
