<?xml version="1.0" encoding="utf-8"?>
<!-- Generator: Adobe Illustrator 25.4.1, SVG Export Plug-In . SVG Version: 6.00 Build 0)  -->
<!DOCTYPE svg PUBLIC "-//W3C//DTD SVG 1.1//EN" "http://www.w3.org/Graphics/SVG/1.1/DTD/svg11.dtd" [
	<!ENTITY ns_extend "http://ns.adobe.com/Extensibility/1.0/">
	<!ENTITY ns_ai "http://ns.adobe.com/AdobeIllustrator/10.0/">
	<!ENTITY ns_graphs "http://ns.adobe.com/Graphs/1.0/">
	<!ENTITY ns_vars "http://ns.adobe.com/Variables/1.0/">
	<!ENTITY ns_imrep "http://ns.adobe.com/ImageReplacement/1.0/">
	<!ENTITY ns_sfw "http://ns.adobe.com/SaveForWeb/1.0/">
	<!ENTITY ns_custom "http://ns.adobe.com/GenericCustomNamespace/1.0/">
	<!ENTITY ns_adobe_xpath "http://ns.adobe.com/XPath/1.0/">
]>
<svg version="1.1" xmlns:x="&ns_extend;" xmlns:i="&ns_ai;" xmlns:graph="&ns_graphs;"
	 xmlns="http://www.w3.org/2000/svg" xmlns:xlink="http://www.w3.org/1999/xlink" x="0px" y="0px" width="750px" height="750px"
	 viewBox="0 0 750 750" enable-background="new 0 0 750 750" xml:space="preserve">
<metadata>
	<sfw  xmlns="&ns_sfw;">
		<slices></slices>
		<sliceSourceBounds  bottomLeftOrigin="true" height="10319.275" width="5527" x="-2000" y="-1314"></sliceSourceBounds>
	</sfw>
</metadata>
<g id="FILL-BACKGROUND">
	<rect fill="#FFFFFF" width="750" height="750"/>
</g>
<g id="N-DIMENSIONS">
</g>
<g id="N-TEXT">
</g>
<g id="_x32_D_x24_AG-DIAGRAM">
	<g id="POLYLINE_00000093880082695118134490000008279546129510879926_">
		<g>
			<g>
				
					<line fill="none" stroke="#FB8604" stroke-width="3.25" stroke-linecap="round" stroke-linejoin="round" x1="90.557" y1="617.65" x2="92.557" y2="617.65"/>
				
					<line fill="none" stroke="#FB8604" stroke-width="3.25" stroke-linecap="round" stroke-linejoin="round" stroke-dasharray="4.0197,7.0345" x1="99.592" y1="617.65" x2="538.244" y2="617.65"/>
				
					<line fill="none" stroke="#FB8604" stroke-width="3.25" stroke-linecap="round" stroke-linejoin="round" x1="541.761" y1="617.65" x2="543.761" y2="617.65"/>
			</g>
		</g>
	</g>
</g>
<g id="_x32_D_x24_AG-DETAILS-DIAGRAM">
</g>
<g id="_x32_D_x24_AG-DETAILS">
	<g id="POLYLINE_00000057143423793925692080000017511306438333763502_">
		<path fill="none" stroke="#FB8604" stroke-width="2" stroke-linecap="round" stroke-linejoin="round" stroke-miterlimit="10" d="
			M516.485,246.189c0.296,3.581,0.769,7.254,2.255,10.558c0.542,1.166,1.244,2.286,2.211,3.146c0.597,0.534,1.303,0.943,2.061,1.199
			c1.786,0.601,3.722,0.498,5.566,0.273c5.48-0.788,11.347-2.7,16.838-3.423c7.709-1.1,16.317-0.369,24.073-0.889
			c4.487-0.331,9.17-1.071,12.98-3.619c2.255-1.517,4.065-3.633,5.446-5.959c2.517-4.27,3.775-9.186,4.358-14.077
			c0.653-5.795,0.385-11.73-0.953-17.412c-1.664-7.033-5.292-13.997-11.496-18.006c-4.068-2.642-8.83-4.018-13.506-5.146
			c-2.539-0.588-6.903-1.554-9.362-2.281c-3.246-0.92-7.582-2.443-10.827-3.348"/>
	</g>
	<g id="POLYLINE_00000075874021100173588100000004162346396768310444_">
		<path fill="none" stroke="#FB8604" stroke-width="2" stroke-linecap="round" stroke-linejoin="round" stroke-miterlimit="10" d="
			M416.633,370.659c0.601-3.81,1.791-8.158,2.061-12.002c0.334-4.009-0.102-8.078-0.795-12.028
			c-1.912-11.008-5.763-23.818-6.464-34.959c-0.109-2.375-0.094-4.81,0.507-7.125c0.251-0.947,0.629-1.871,1.18-2.684
			c0.557-0.831,1.283-1.544,2.088-2.134c2.11-1.552,4.858-2.41,7.101-3.736c0.871-0.512,1.702-1.118,2.401-1.851
			c0.793-0.828,1.434-1.798,1.953-2.818c0.916-1.811,1.478-3.794,1.848-5.783c0.497-2.721,0.646-5.532,0.564-8.294"/>
	</g>
	<g id="POLYLINE_00000074441252438089222740000015427391667054006424_">
		<path fill="none" stroke="#FB8604" stroke-width="2" stroke-linecap="round" stroke-linejoin="round" stroke-miterlimit="10" d="
			M157.014,373.856l5.284,3.239c2.571,1.614,5.086,3.414,7.181,5.624c2.123,2.181,4.335,5.729,6.091,8.24
			c1.957,2.787,4.173,5.502,7.047,7.386c1.977,1.319,4.247,2.159,6.574,2.606c3.948,0.761,8.037,0.645,12.014,0.178
			c5-0.616,9.951-1.839,14.678-3.577c5.007-1.895,10.13-4.32,13.517-8.613c1.015-1.274,1.869-2.695,2.62-4.139
			c0.961-1.756,4.327-9.472,5.223-11.394c3.167-7.188,6.383-14.901,8.799-22.372c1.823-5.393,4.311-16.068,5.751-21.653
			c1.715-6.288,3.757-12.722,7.631-18.046c0.818-1.082,1.734-2.124,2.843-2.916c0.639-0.451,1.36-0.821,2.138-0.95
			c1.176-0.207,2.334,0.276,3.309,0.899c2.188,1.444,4.312,3.692,6.367,5.321c2.851,2.353,6.189,4.083,9.677,5.282
			c6.358,2.171,13.236,2.854,19.9,2.009c6.129-0.752,12.383-3.355,18.152-5.495c2.2-0.769,4.472-1.578,6.82-1.685
			c1.352-0.057,2.723,0.198,3.948,0.78c1.294,0.606,2.428,1.514,3.465,2.487c1.483,1.4,2.788,3.004,3.945,4.681
			c2.456,3.585,4.287,7.619,5.477,11.795c2.291,7.951,2.751,19.479,3.6,27.748c0.663,6.488,1.668,13.075,3.829,19.247
			c1.64,4.725,3.996,9.235,7.09,13.172c3.29,4.229,7.433,7.757,11.883,10.715c4.525,3.018,9.463,5.593,14.428,7.808
			c5.232,2.317,10.745,4.336,16.244,5.92c3.741,1.062,7.644,2,11.506,2.482c1.823,0.227,3.714,0.354,5.551,0.368
			c2.466,0.046,5.846-0.225,8.313-0.372"/>
	</g>
</g>
<g id="_x32_D_x24_AG-ANIMALS">
	<g id="POLYLINE_00000060730326722628076750000004178625064781918651_">
		
			<path fill="none" stroke="#FB8604" stroke-width="2.75" stroke-linecap="round" stroke-linejoin="round" stroke-miterlimit="10" d="
			M157.233,384.886c-0.608,21.152-2.584,42.733-6.411,63.548c-1.42,7.416-2.879,15.343-5.267,22.502
			c-0.412,1.171-0.866,2.366-1.46,3.459c-0.267,0.477-0.562,0.955-0.958,1.335l-0.034,0.031l-0.034,0.03l-0.034,0.029l-0.034,0.028
			l-0.034,0.027l-0.034,0.025l-0.034,0.024l-0.034,0.023l-0.034,0.022l-0.033,0.02l-0.033,0.019l-0.033,0.018l-0.033,0.017
			l-0.033,0.015l-0.033,0.014l-0.033,0.013l-0.033,0.012l-0.033,0.01l-0.033,0.009l-0.033,0.008l-0.033,0.006l-0.033,0.005
			l-0.019,0.002l-0.019,0.002l-0.019,0.001l-0.019,0.001l-0.019,0.001l-0.019,0l-0.019,0l-0.019-0.001l-0.019-0.001l-0.019-0.002
			l-0.019-0.002l-0.019-0.002l-0.019-0.003l-0.019-0.003l-0.019-0.004l-0.019-0.004l-0.019-0.004l-0.019-0.005l-0.019-0.005
			l-0.019-0.006l-0.019-0.006l-0.019-0.007l-0.019-0.007l-0.019-0.007l-0.019-0.008l-0.019-0.008l-0.019-0.008l-0.019-0.009
			c-0.262-0.13-0.473-0.342-0.654-0.568c-0.37-0.465-0.638-1.014-0.875-1.556c-0.514-1.207-0.869-2.511-1.163-3.788
			c-0.456-2.018-0.743-4.124-0.89-6.188c-0.234-3.252-0.125-6.643,0.069-9.899c1.116-13.704,1.646-29.447,1.715-43.171
			c0,0-0.11-52.901-0.11-52.901l0.026-1.739c0.059-2.668,0.178-5.581,0.445-8.234c0.45-4.702,1.436-9.402,3.088-13.833
			c2.264-6.135,5.606-11.869,9.514-17.099c3.267-4.352,6.949-8.477,11.061-12.05c4.213-3.636,8.979-6.8,14.315-8.496
			c3.554-1.131,7.336-1.522,11.046-1.725c4.318-0.215,9.456-0.235,13.623-0.977c6.98-1.228,14.01-4.966,20.645-7.363
			c10.153-3.791,21.116-5.1,31.866-5.919c14.809-0.996,30.241-0.946,45.07-0.201c22.444,1.255,46.419,4.62,68.708,7.781
			c0.992,0.142,16.485,2.538,16.991,2.554c1.077,0.128,2.215,0.233,3.301,0.242c1.395,0.015,2.81-0.133,4.142-0.563
			c1.729-0.548,3.27-1.568,4.708-2.649c2.468-1.832,5.04-4.415,7.779-5.848c1.277-0.655,2.684-1.055,4.108-1.222
			c2.218-0.271,4.615-0.022,6.835-0.261c2.944-0.288,5.84-1.104,8.642-2.025c6.907-2.301,14.643-5.769,22.056-4.421"/>
	</g>
	<g id="POLYLINE_00000036935758743344114750000011741167894331674248_">
		
			<path fill="none" stroke="#FB8604" stroke-width="2.75" stroke-linecap="round" stroke-linejoin="round" stroke-miterlimit="10" d="
			M468.607,254.318c-3.357-0.564-6.989-0.625-10.109,0.909c-1.715,0.846-3.165,2.157-4.387,3.613
			c-1.743,2.092-3.082,4.517-4.138,7.021c-1.235,2.956-2.083,6.133-2.085,9.352c-0.015,2.494,0.574,4.971,1.601,7.237
			c1.556,3.421,3.862,6.47,6.247,9.351c4.301,5.064,9.271,9.715,15.087,12.989"/>
	</g>
	<g id="POLYLINE_00000114057217867284581020000010613247656207825316_">
		
			<path fill="none" stroke="#FB8604" stroke-width="2.75" stroke-linecap="round" stroke-linejoin="round" stroke-miterlimit="10" d="
			M253.991,414.457c9.796,5.044,20.134,9.413,30.861,12.011c3.819,0.931,7.896,1.668,11.795,2.172
			c4.37,0.585,11.484,1.094,15.958,1.472c5.341,0.491,11.086,1.28,16.361,2.25c6.402,1.178,13.109,2.789,19.37,4.569
			c3.967,1.075,13.915,4.341,17.945,5.632c8.146,2.609,16.654,4.712,25.121,5.944c12.717,1.88,25.841,2.174,38.675,1.684"/>
	</g>
	<g id="POLYLINE_00000155855585233932825740000001826893199707493789_">
		
			<path fill="none" stroke="#FB8604" stroke-width="2.75" stroke-linecap="round" stroke-linejoin="round" stroke-miterlimit="10" d="
			M180.059,318.43c-3.809,3.522-7.753,7.289-11.168,11.182c-2.325,2.66-4.523,5.501-6.23,8.602c-1.365,2.462-2.384,5.127-3.088,7.85
			c-1.056,4.079-1.631,8.355-2.004,12.549c-1.53,17.089,0.585,42.494,1.253,59.816c0.23,6.872,0.382,17.686,0.349,24.564
			c-0.069,6.127-0.401,12.392-1.719,18.386c-1.741,7.833-4.795,15.438-9.231,22.139c-1.868,2.811-4.051,5.494-6.316,7.995
			c-3.755,4.159-11.074,11.333-15.061,15.4c-2.648,2.786-5.446,5.632-7.131,9.128c-0.681,1.418-1.116,2.951-1.344,4.505
			c-0.315,2.121-0.272,4.311-0.113,6.445c0.191,2.371,0.682,6.117,0.87,8.474c0.217,2.61,0.278,5.354,0.186,7.972
			c-0.081,5.523-4.271,50.064-4.599,56.222c-0.055,1.243-0.036,2.522,0.108,3.759c0.269,2.268,0.864,4.516,1.747,6.622
			c0.675,1.586,1.533,3.124,2.701,4.402c0.848,0.935,1.905,1.676,3.074,2.152c0.963,0.398,1.992,0.641,3.021,0.79
			c1.419,0.21,2.925,0.245,4.359,0.263c1.865-0.059,27.069,0.15,28.308-0.117c0.771-0.108,1.551-0.356,2.145-0.877
			c0.444-0.383,0.768-0.885,1.011-1.415c0.32-0.7,0.524-1.455,0.671-2.209c0.626-3.467,0.258-7.145-1.17-10.375
			c-0.534-1.186-1.203-2.336-2.109-3.278c-0.654-0.684-1.465-1.203-2.335-1.57c-0.936-0.414-3.028-1.03-4.03-1.367
			c-2.235-0.747-4.516-1.548-6.597-2.66c-1.068-0.573-2.107-1.231-3.053-1.99c-0.62-0.505-1.227-1.053-1.707-1.697
			c-0.754-0.99-0.951-2.261-1.04-3.471c-0.125-1.653-0.043-3.363,0.095-5.015c0.259-3.007,0.789-6.229,1.324-9.206
			c1.276-6.831,2.927-13.714,5.264-20.265c2.713-7.653,6.854-14.786,12.035-21.031c2.574-3.131,5.48-6.221,8.347-9.086
			c9.255-9.148,23.098-21.253,31.905-30.764c4.486-4.794,8.809-10.035,12.755-15.286c2.226-2.966,5.192-7.126,7.302-10.184
			c7.526-11.353,23.739-34.737,31.659-45.967c3.959-5.967,7.961-12.138,10.398-18.907c1.644-4.592,2.534-9.456,3.04-14.298
			c0.728-7.144,0.72-14.516,0.501-21.688"/>
	</g>
	<g id="POLYLINE_00000148624967994193355450000004690999419643489687_">
		
			<path fill="none" stroke="#FB8604" stroke-width="2.75" stroke-linecap="round" stroke-linejoin="round" stroke-miterlimit="10" d="
			M499.911,317.267c-7.722-6.526-14.226-14.489-20.069-22.706c-3.922-5.659-8.004-11.61-11.192-17.716
			c-1.854-3.675-3.456-7.645-3.549-11.812c-0.043-2.012,0.339-4.028,1.03-5.915c1.644-4.448,4.776-8.194,8.256-11.345
			c3.58-3.278,8.619-6.451,12.312-9.6c2.847-2.424,5.306-5.484,7.61-8.421"/>
	</g>
	<g id="POLYLINE_00000139975313377999999360000002755717115690928318_">
		
			<path fill="none" stroke="#FB8604" stroke-width="2.75" stroke-linecap="round" stroke-linejoin="round" stroke-miterlimit="10" d="
			M416.633,370.659c-0.512,6.784-0.83,13.833-0.479,20.627c0.231,4.191,0.698,8.438,1.816,12.493
			c0.876,3.222,2.306,6.314,4.332,8.976c2.681,3.515,5.508,7.098,7.331,11.152c1.878,4.232,3,8.87,2.937,13.514
			c-0.037,2.12-0.438,4.235-0.973,6.281c-0.32,1.271-1.239,4.195-1.416,5.445c-0.129,0.807-0.158,1.639-0.012,2.445
			c0.085,0.483,0.232,0.961,0.41,1.418c1.038,2.435,2.838,5.844,3.782,8.299c1.202,2.814,1.493,5.807,1.77,8.822
			c0.248,3.684,3.991,53.175,3.986,55.017c0.167,3.489,0.263,7.24,0.159,10.725c-0.124,4.194-0.533,8.578-1.119,12.732
			c-0.531,3.888-1.674,9.868-2.325,13.783c-0.338,2.323-0.717,4.729-0.317,7.066c0.187,1.068,0.62,2.091,1.284,2.95
			c0.769,1.043,2.056,2.133,3.004,3.025c0.802,0.743,1.614,1.544,2.305,2.391c1.286,1.545,2.192,3.374,2.908,5.242
			c1.096,2.863,1.838,6.005,2.507,8.997c1.25,5.543,2.408,13.256,4.589,18.451c0.555,1.271,1.259,2.499,2.195,3.53
			c0.745,0.824,1.648,1.511,2.644,2.003c1.926,0.944,4.096,1.271,6.215,1.437c1.495,0.119,3.355,0.138,4.867,0.159
			c0,0,29.613,0.007,29.613,0.007l1.004-0.008c0,0,0.93-0.016,0.93-0.016s0.858-0.027,0.858-0.027
			c1.104-0.05,2.242-0.115,3.318-0.381c0.704-0.177,1.406-0.47,1.919-0.998c0.538-0.549,0.823-1.295,0.979-2.036
			c0.288-1.441,0.178-2.939-0.077-4.377c-0.268-1.438-0.712-2.867-1.478-4.122c-0.606-1.007-1.407-1.909-2.206-2.767
			c-1.376-1.453-2.834-2.975-4.344-4.287c-1.483-1.277-3.087-2.493-4.931-3.191c-1.636-0.623-3.41-0.784-5.149-0.791
			c-3.176,0.008-6.856,0.193-9.403-2.032c-1.023-0.903-1.706-2.124-2.205-3.38c-0.414-1.04-0.721-2.158-0.982-3.246
			c-0.608-2.411-2.296-12.47-2.785-15.083c-0.96-5.547-1.898-11.266-1.802-16.908c0.043-2.663,0.345-5.405,0.727-8.041
			c2.596-15.825,7.417-37.725,10.727-53.477c1.137-5.085,4.3-17.879,5.071-22.738c0.742-3.761,2.915-19.185,3.771-22.938
			c0.244-0.997,0.569-1.986,1.016-2.911c0.788-1.645,1.952-3.094,3.177-4.433c1.341-1.458,2.933-2.977,4.391-4.328
			c7.683-7.075,18.727-15.954,25.858-23.504c2.613-2.757,5.128-5.712,7.182-8.912c1.795-2.775,3.275-5.786,4.482-8.86
			c1.477-3.763,2.68-7.782,3.756-11.678c1.899-7.003,3.577-14.516,4.779-21.671c0.756-4.208,1.572-11.659,2.526-15.814
			c0.275-1.096,0.645-2.196,1.268-3.147c0.263-0.406,0.573-0.79,0.9-1.146c1.038-1.115,3.043-2.871,4.068-3.857
			c2.248-2.173,4.594-4.432,5.988-7.272c0.952-1.934,1.39-4.083,1.709-6.201c0.324-2.335,0.686-5.398,1.265-7.656
			c0.564-2.313,1.396-4.595,2.454-6.728"/>
	</g>
	<g id="POLYLINE_00000142144410473071111970000004764077005254098338_">
		
			<path fill="none" stroke="#FB8604" stroke-width="2.75" stroke-linecap="round" stroke-linejoin="round" stroke-miterlimit="10" d="
			M553.836,274.721c2.146,1.517,4.418,3.038,6.846,4.051c4.868,2.032,10.17,3.009,15.42,3.333
			c5.735,0.309,11.635-0.334,16.927-2.668c8.432-3.623,15.683-11.148,22.393-17.251c1.871-1.644,3.81-3.321,6.01-4.512
			c1.369-0.728,2.965-1.278,4.522-0.911c1.528,0.348,2.799,1.454,3.57,2.793c1.466,2.5,1.047,5.564,0.348,8.242
			c-0.342,1.305-0.812,2.668-1.279,3.935c-0.506,1.349-1.055,2.777-1.691,4.069c-1.56,3.252-3.961,6.031-6.653,8.402
			c-3.113,2.739-6.622,5.148-10.095,7.406c-5.919,3.801-12.365,7.42-18.666,10.547c-3.16,1.541-6.587,3.143-9.878,4.372
			c-2.206,0.819-4.501,1.547-6.82,1.962c-1.57,0.283-3.188,0.415-4.783,0.37c-2.867-0.087-6.408-0.726-9.275-0.799
			c-4.716-0.163-10.118-0.125-14.715-1.131c-2.774-0.592-5.507-1.578-7.86-3.186c-5.682-3.895-9.663-10.73-13.65-16.226
			c-1.026-1.426-2.243-3.063-3.36-4.409"/>
	</g>
	<g id="POLYLINE_00000115474032857033948120000006523202272741523120_">
		
			<path fill="none" stroke="#FB8604" stroke-width="2.75" stroke-linecap="round" stroke-linejoin="round" stroke-miterlimit="10" d="
			M630.752,235.336c0.695,0.725,1.263,1.578,1.649,2.505c0.427,1.014,0.651,2.109,0.791,3.197c0.38,3.194,0.143,6.466-0.222,9.652
			c-0.51,4.11-1.309,8.234-2.479,12.208"/>
	</g>
	<g id="POLYLINE_00000156569937892028711280000006943233162115783335_">
		
			<path fill="none" stroke="#FB8604" stroke-width="2.75" stroke-linecap="round" stroke-linejoin="round" stroke-miterlimit="10" d="
			M533.822,199.77c-3.563,2.746-7.148,5.829-9.037,10.008c-0.798,1.741-1.231,3.636-1.484,5.527
			c-0.652,5.027-0.286,10.873-0.912,15.901c-0.33,2.775-0.985,5.526-1.983,8.138c-0.809,2.102-1.842,4.144-3.196,5.949
			c-0.944,1.249-2.06,2.405-3.404,3.224c-0.999,0.608-2.136,1.032-3.311,1.09c-0.97,0.052-1.958-0.17-2.797-0.666
			c-1.636-0.986-2.708-2.723-3.691-4.313c-1.128-1.915-2.755-4.874-3.929-6.738c-1.28-2.044-2.826-4.195-4.265-6.137
			c-3.134-4.301-7.971-10.078-10.436-14.747c-0.766-1.504-1.477-3.152-1.368-4.874c0.05-0.725,0.285-1.437,0.679-2.048
			c0.436-0.686,1.045-1.247,1.697-1.725c1.569-1.138,3.417-1.937,5.187-2.711c4.261-1.79,9.134-3.575,12.929-6.213
			c3.296-2.189,6.716-5.29,10.237-7.118c3.434-1.839,7.404-2.278,11.237-2.486c3.261-0.162,7.993-0.219,11.144-0.724
			c3.274-0.48,7.201-1.511,10.448-2.221c2.082-0.45,4.238-0.808,6.361-0.961c4.156-0.339,9.764-0.119,13.953-0.247
			c4.411-0.124,9.346-0.619,13.735-0.144c2.11,0.218,4.205,0.699,6.175,1.491c4.675,1.841,9.002,5.279,13.023,8.249
			c3.252,2.443,6.766,5.011,9.682,7.848c1.599,1.56,3.103,3.267,4.278,5.173c1.338,2.145,2.132,4.586,2.734,7.027
			c0.512,2.098,1.218,5.6,1.976,7.584"/>
	</g>
	<g id="POLYLINE_00000137101973552817883690000006873938795808358555_">
		
			<path fill="none" stroke="#FB8604" stroke-width="2.75" stroke-linecap="round" stroke-linejoin="round" stroke-miterlimit="10" d="
			M622.659,238.532c-1.948-0.212-3.893-0.609-5.754-1.226c-1.281-0.433-2.551-0.973-3.668-1.744
			c-0.726-0.503-1.388-1.119-1.874-1.86c-0.453-0.685-0.739-1.48-0.835-2.296c-0.124-1.051,0.023-2.128,0.352-3.131
			c0.396-1.198,1.071-2.318,1.998-3.18c1.365-1.268,3.222-1.859,5.04-2.088c1.251-0.151,2.527-0.136,3.774,0.05
			c1.375,0.199,2.734,0.663,3.849,1.507c1.094,0.816,1.961,1.902,2.704,3.038c0.89,1.381,1.616,2.881,2.1,4.452
			c0.246,0.821,0.434,1.675,0.451,2.534c0.012,0.604-0.081,1.221-0.356,1.763c-0.339,0.685-0.95,1.198-1.627,1.533
			C626.914,238.808,624.71,238.732,622.659,238.532z"/>
	</g>
</g>
<g id="_x32_D_x24_AG-OUTLINE">
	<g id="POLYLINE_00000085218154781090014870000015515844915877648550_">
		
			<path fill="none" stroke="#FB8604" stroke-width="3.5" stroke-linecap="round" stroke-linejoin="round" stroke-miterlimit="10" d="
			M619.483,222.907c-0.754-1.97-1.469-5.504-1.976-7.584c-0.602-2.441-1.396-4.882-2.734-7.027
			c-1.175-1.906-2.679-3.613-4.278-5.173c-2.914-2.835-6.429-5.406-9.682-7.848c-4.03-2.973-8.342-6.405-13.023-8.249
			c-1.97-0.792-4.065-1.273-6.175-1.491c-4.385-0.476-9.33,0.019-13.735,0.144c-4.193,0.129-9.783-0.089-13.953,0.247
			c-2.161,0.158-4.354,0.521-6.47,0.985c-3.298,0.73-7.193,1.753-10.533,2.225c-3.102,0.472-7.806,0.544-10.949,0.695
			c-3.834,0.208-7.803,0.647-11.237,2.486c-3.519,1.827-6.943,4.931-10.237,7.118c-3.787,2.634-8.683,4.43-12.929,6.213
			c-1.773,0.773-3.615,1.575-5.187,2.711c-0.723,0.529-1.394,1.164-1.833,1.952c-0.453,0.795-0.618,1.73-0.538,2.636
			c0.118,1.364,0.656,2.654,1.265,3.867c2.202,4.265,6.162,9.059,9.031,12.938c-2.498,3.193-5.161,6.476-8.326,9.024
			c-3.138,2.566-7.71,5.603-10.761,8.263c-2.486,2.137-4.788,4.549-6.614,7.28c-3.942-0.68-8.368-0.594-11.705,1.875
			c-2.785,2.045-4.729,5.033-6.226,8.103c-1.438,3.02-2.508,6.275-2.743,9.627c-4.789-0.852-9.663,0.246-14.217,1.727
			c-4.617,1.488-9.671,3.612-14.439,4.438c-1.278,0.223-2.6,0.366-3.897,0.39c-2.341,0.035-4.824-0.111-7.085,0.577
			c-3.174,0.88-5.891,3.562-8.416,5.572c-1.707,1.366-3.485,2.753-5.545,3.539c-1.42,0.542-2.954,0.75-4.469,0.748
			c-1.156,0.002-2.355-0.106-3.504-0.243c-8.249-1.198-22.929-3.464-31.189-4.566c-15.568-2.084-33.158-4.341-48.772-5.415
			c-12.396-0.861-25.637-1.079-38.056-0.761c-12.659,0.409-25.595,1.183-37.896,4.378c-3.402,0.899-6.821,2.138-10.085,3.448
			c-2.67,1.103-8.73,3.668-11.586,4.587c-1.96,0.653-4.029,1.206-6.071,1.541c-4.258,0.695-9.011,0.697-13.248,0.913
			c-3.712,0.208-7.491,0.593-11.046,1.725c-5.026,1.596-9.552,4.504-13.576,7.867c-4.418,3.716-8.337,8.068-11.799,12.679
			c-3.908,5.23-7.25,10.963-9.514,17.099c-1.652,4.432-2.638,9.13-3.088,13.833c-0.267,2.652-0.387,5.564-0.445,8.234
			c0,0-0.026,1.739-0.026,1.739l0.11,52.901c-0.067,13.71-0.603,29.486-1.716,43.171c-0.193,3.252-0.303,6.647-0.069,9.899
			c0.158,2.202,0.472,4.446,0.985,6.594c0.316,1.288,0.69,2.606,1.262,3.808c0.208,0.424,0.443,0.855,0.753,1.216
			c0.165,0.192,0.355,0.369,0.583,0.482l0.019,0.009l0.019,0.008l0.019,0.008l0.019,0.008l0.019,0.007l0.019,0.007l0.019,0.007
			l0.019,0.006l0.019,0.006l0.019,0.005l0.019,0.005l0.019,0.004l0.019,0.004l0.019,0.004l0.019,0.003l0.019,0.003l0.019,0.002
			l0.019,0.002l0.019,0.002l0.019,0.001l0.019,0.001l0.019,0l0.019,0l0.019-0.001l0.019-0.001l0.019-0.001l0.019-0.002l0.019-0.002
			l0.033-0.005l0.033-0.006l0.033-0.008l0.033-0.009l0.033-0.01l0.033-0.012l0.033-0.013l0.033-0.014l0.033-0.015l0.033-0.017
			l0.033-0.018l0.033-0.019l0.033-0.02l0.034-0.022l0.034-0.023l0.034-0.024l0.034-0.025l0.034-0.027l0.034-0.028l0.034-0.029
			l0.034-0.03l0.034-0.031c0.396-0.381,0.691-0.858,0.958-1.335c0.595-1.092,1.048-2.287,1.46-3.459
			c2.387-7.155,3.848-15.092,5.267-22.502c3.827-20.812,5.804-42.399,6.411-63.548c0.297,8.595,1.295,24.947,1.589,33.542
			c0.23,6.872,0.382,17.686,0.349,24.564c-0.069,6.127-0.401,12.392-1.719,18.386c-1.741,7.833-4.795,15.438-9.231,22.139
			c-1.868,2.811-4.051,5.494-6.316,7.995c-3.755,4.159-11.074,11.333-15.061,15.4c-2.648,2.785-5.446,5.632-7.131,9.128
			c-0.681,1.418-1.116,2.951-1.344,4.505c-0.315,2.121-0.272,4.311-0.113,6.445c0.191,2.37,0.682,6.117,0.87,8.474
			c0.217,2.61,0.278,5.354,0.186,7.972c-0.081,5.525-4.271,50.062-4.599,56.222c-0.055,1.243-0.036,2.522,0.108,3.759
			c0.269,2.268,0.864,4.516,1.747,6.622c0.675,1.586,1.533,3.124,2.701,4.402c0.585,0.639,1.263,1.199,2.015,1.631
			c0.935,0.542,1.975,0.897,3.029,1.123c1.127,0.244,2.306,0.348,3.457,0.403c0.552,0.041,1.396,0.031,1.953,0.048
			c0,0,25.393,0.005,25.393,0.005c1.394-0.033,2.917,0.084,4.227-0.476c0.437-0.191,0.833-0.477,1.148-0.836
			c0.351-0.397,0.606-0.873,0.807-1.361c0.485-1.205,0.696-2.511,0.798-3.8c0.239-3.267-0.349-6.635-1.905-9.534
			c-0.664-1.221-1.515-2.39-2.688-3.166c-0.442-0.296-0.928-0.537-1.42-0.739c-1.313-0.518-3.449-1.142-4.79-1.609
			c-2.539-0.871-5.096-1.855-7.345-3.34c-0.976-0.645-1.921-1.369-2.712-2.235c-0.361-0.399-0.675-0.847-0.889-1.342
			c-0.279-0.639-0.403-1.337-0.48-2.026c-0.172-1.599-0.125-3.25-0.015-4.853c0.236-3.264,0.803-6.708,1.381-9.934
			c1.481-7.85,3.39-15.749,6.38-23.172c1.569-3.85,3.507-7.594,5.762-11.087c2.371-3.69,5.169-7.194,8.1-10.455
			c3.12-3.481,6.738-7.021,10.122-10.253c9.101-8.582,22.63-20.717,30.743-30.105c10.27-11.467,21.192-28.59,29.909-41.375
			c6.093-9.164,15.882-22.186,21.738-31.493c9.796,5.044,20.134,9.413,30.861,12.011c3.819,0.931,7.896,1.668,11.795,2.172
			c4.37,0.585,11.484,1.094,15.958,1.472c5.341,0.491,11.086,1.28,16.361,2.25c6.402,1.178,13.109,2.789,19.37,4.569
			c3.967,1.075,13.915,4.341,17.945,5.632c8.146,2.609,16.654,4.712,25.121,5.944c12.717,1.88,25.841,2.174,38.675,1.684
			c-0.033,0.783,0.079,1.573,0.324,2.317c0.148,0.459,0.347,0.925,0.548,1.364c0.976,2.08,2.589,5.327,3.414,7.439
			c1.202,2.814,1.493,5.807,1.77,8.822c0.248,3.684,3.991,53.175,3.986,55.017c0.167,3.489,0.263,7.24,0.159,10.725
			c-0.124,4.194-0.533,8.578-1.119,12.732c-0.531,3.888-1.674,9.868-2.325,13.783c-0.338,2.323-0.717,4.729-0.317,7.066
			c0.187,1.068,0.62,2.091,1.284,2.95c0.769,1.043,2.056,2.133,3.004,3.025c0.802,0.743,1.614,1.544,2.305,2.391
			c1.286,1.545,2.192,3.374,2.908,5.242c1.096,2.863,1.838,6.005,2.507,8.997c1.25,5.543,2.408,13.256,4.589,18.451
			c0.555,1.271,1.259,2.499,2.195,3.53c0.745,0.824,1.648,1.511,2.644,2.003c1.926,0.944,4.096,1.271,6.215,1.437
			c1.495,0.119,3.355,0.138,4.867,0.159c0,0,29.613,0.007,29.613,0.007l1.004-0.008c0,0,0.93-0.016,0.93-0.016
			s0.858-0.027,0.858-0.027c1.104-0.05,2.242-0.115,3.318-0.381c0.704-0.177,1.406-0.47,1.919-0.998
			c0.538-0.549,0.823-1.295,0.979-2.036c0.288-1.441,0.178-2.939-0.077-4.377c-0.268-1.438-0.712-2.867-1.478-4.122
			c-0.606-1.007-1.407-1.909-2.206-2.767c-1.376-1.453-2.834-2.975-4.344-4.287c-1.483-1.277-3.087-2.493-4.931-3.191
			c-1.636-0.623-3.41-0.784-5.149-0.791c-3.176,0.008-6.856,0.193-9.403-2.032c-1.023-0.903-1.706-2.124-2.205-3.38
			c-0.414-1.04-0.721-2.158-0.982-3.246c-0.608-2.411-2.296-12.47-2.785-15.083c-0.96-5.547-1.898-11.266-1.802-16.908
			c0.043-2.663,0.345-5.405,0.727-8.041c2.596-15.825,7.417-37.725,10.727-53.477c1.137-5.085,4.3-17.879,5.071-22.738
			c0.742-3.761,2.915-19.185,3.771-22.938c0.244-0.997,0.569-1.986,1.016-2.911c0.788-1.645,1.952-3.094,3.177-4.433
			c1.341-1.458,2.933-2.977,4.391-4.328c7.683-7.075,18.727-15.954,25.858-23.504c2.613-2.757,5.128-5.712,7.182-8.912
			c1.795-2.775,3.275-5.786,4.482-8.86c1.477-3.763,2.68-7.782,3.756-11.678c1.899-7.003,3.577-14.516,4.779-21.671
			c0.756-4.208,1.572-11.659,2.526-15.814c0.275-1.096,0.645-2.196,1.268-3.147c0.263-0.406,0.573-0.79,0.9-1.146
			c1.038-1.115,3.043-2.871,4.068-3.857c2.248-2.173,4.594-4.432,5.988-7.272c0.952-1.934,1.39-4.083,1.709-6.201
			c0.324-2.335,0.686-5.398,1.265-7.656c0.564-2.313,1.396-4.595,2.454-6.728c1.788,0.187,3.613,0.265,5.403,0.084
			c2.216-0.211,4.419-0.762,6.535-1.445c5.885-1.954,11.633-4.85,17.125-7.719c5.751-3.076,11.66-6.532,17.033-10.224
			c3.316-2.307,6.639-4.774,9.385-7.754c1.214-1.321,2.313-2.768,3.212-4.323c1.11-1.894,1.92-4.019,2.677-6.076
			c0.941-2.667,1.854-5.467,1.713-8.33c1.171-3.974,1.97-8.099,2.479-12.208c0.365-3.186,0.602-6.458,0.222-9.652
			c-0.14-1.088-0.364-2.182-0.791-3.197c-0.387-0.928-0.955-1.78-1.649-2.505c0.113-0.823-0.006-1.663-0.188-2.467
			c-0.315-1.333-0.842-2.617-1.477-3.828c-0.943-1.748-2.107-3.461-3.749-4.621C623.644,223.232,621.511,222.901,619.483,222.907z"
			/>
	</g>
</g>
</svg>
