<?xml version="1.0" encoding="utf-8"?>
<!-- Generator: Adobe Illustrator 25.4.1, SVG Export Plug-In . SVG Version: 6.00 Build 0)  -->
<!DOCTYPE svg PUBLIC "-//W3C//DTD SVG 1.1//EN" "http://www.w3.org/Graphics/SVG/1.1/DTD/svg11.dtd" [
	<!ENTITY ns_extend "http://ns.adobe.com/Extensibility/1.0/">
	<!ENTITY ns_ai "http://ns.adobe.com/AdobeIllustrator/10.0/">
	<!ENTITY ns_graphs "http://ns.adobe.com/Graphs/1.0/">
	<!ENTITY ns_vars "http://ns.adobe.com/Variables/1.0/">
	<!ENTITY ns_imrep "http://ns.adobe.com/ImageReplacement/1.0/">
	<!ENTITY ns_sfw "http://ns.adobe.com/SaveForWeb/1.0/">
	<!ENTITY ns_custom "http://ns.adobe.com/GenericCustomNamespace/1.0/">
	<!ENTITY ns_adobe_xpath "http://ns.adobe.com/XPath/1.0/">
]>
<svg version="1.1" xmlns:x="&ns_extend;" xmlns:i="&ns_ai;" xmlns:graph="&ns_graphs;"
	 xmlns="http://www.w3.org/2000/svg" xmlns:xlink="http://www.w3.org/1999/xlink" x="0px" y="0px" width="750px" height="750px"
	 viewBox="0 0 750 750" enable-background="new 0 0 750 750" xml:space="preserve">
<metadata>
	<sfw  xmlns="&ns_sfw;">
		<slices></slices>
		<sliceSourceBounds  bottomLeftOrigin="true" height="10319.275" width="5527" x="-2000" y="-1314"></sliceSourceBounds>
	</sfw>
</metadata>
<g id="FILL-BACKGROUND">
	<rect fill="#FFFFFF" width="750" height="750"/>
</g>
<g id="N-DIMENSIONS">
</g>
<g id="N-TEXT">
</g>
<g id="_x32_D_x24_AG-DIAGRAM">
	<g id="POLYLINE_00000075880418566443685190000017743959893693887668_">
		<g>
			<g>
				
					<line fill="none" stroke="#FB8604" stroke-width="3.25" stroke-linecap="round" stroke-linejoin="round" x1="148.221" y1="606.128" x2="150.221" y2="606.128"/>
				
					<line fill="none" stroke="#FB8604" stroke-width="3.25" stroke-linecap="round" stroke-linejoin="round" stroke-dasharray="3.9887,6.9802" x1="157.201" y1="606.128" x2="537.621" y2="606.128"/>
				
					<line fill="none" stroke="#FB8604" stroke-width="3.25" stroke-linecap="round" stroke-linejoin="round" x1="541.111" y1="606.128" x2="543.111" y2="606.128"/>
			</g>
		</g>
	</g>
</g>
<g id="_x32_D_x24_AG-DETAILS-DIAGRAM">
</g>
<g id="_x32_D_x24_AG-DETAILS">
</g>
<g id="_x32_D_x24_AG-ANIMALS">
	<g id="POLYLINE_00000005957382147423749080000008154892750532520867_">
		
			<path fill="none" stroke="#FB8604" stroke-width="2.75" stroke-linecap="round" stroke-linejoin="round" stroke-miterlimit="10" d="
			M425.205,413.643c-1.051,1.636-1.907,3.422-2.452,5.291c-0.392,1.369-0.626,2.812-0.479,4.237c0.149,1.739,1.161,3.298,2.001,4.78
			c0.489,0.887,0.956,1.855,0.929,2.892c-0.018,0.68-0.226,1.341-0.47,1.97c-0.651,1.697-1.77,3.434-1.736,5.306
			c0.024,0.942,0.4,1.835,0.841,2.654c1.017,1.867,2.485,3.587,3.205,5.606c0.218,0.615,0.359,1.265,0.377,1.919
			c0.026,0.895-0.144,1.788-0.387,2.645c-0.562,1.99-1.69,4.183-2.335,6.147c-0.275,0.851-0.497,1.74-0.494,2.639
			c0.001,1.254,0.537,2.431,1.151,3.499c0.741,1.328,1.872,2.799,1.89,4.377c0.014,0.71-0.147,1.415-0.354,2.091
			c-0.447,1.43-1.189,3.023-1.445,4.502c-0.378,2.138,0.123,4.317,0.722,6.368c0.401,1.347,1.228,3.749,1.502,5.091
			c0.267,1.224,0.384,2.508,0.128,3.743c-0.293,1.415-1.015,2.813-1.235,4.246c-0.133,0.813-0.087,1.66,0.179,2.443
			c0.565,1.703,2.007,3.608,2.952,5.132c0.85,1.359,1.667,2.796,2.001,4.379c0.568,2.687-0.686,5.518-1.487,8.039
			c-0.435,1.394-0.865,2.905-0.467,4.358c0.449,1.71,1.696,3.108,2.238,4.781c0.299,0.878,0.289,1.825,0.149,2.732
			c-0.178,1.225-0.616,2.665-0.79,3.891c-0.082,0.592-0.119,1.204-0.001,1.793c0.137,0.697,0.537,1.309,0.988,1.845
			c0.855,1.006,1.926,1.914,2.58,3.076c0.465,0.792,0.682,1.705,0.749,2.615c0.157,2.191-0.264,4.501-0.408,6.685
			c-0.056,0.869-0.087,1.764,0.038,2.628c0.083,0.573,0.25,1.144,0.57,1.631c0.557,0.878,1.53,1.477,2.345,2.092
			c0.815,0.602,1.562,1.328,1.904,2.304c0.261,0.714,0.362,1.482,0.42,2.237c0.128,1.837-0.027,3.852,0.045,5.691
			c0.062,1.187,0.157,2.464,0.812,3.491c0.486,0.755,1.248,1.275,2.016,1.714c0.952,0.547,2.102,1.076,2.792,1.956
			c0.488,0.61,0.802,1.344,1.018,2.09c0.444,1.513,0.506,3.272,0.602,4.844c0.063,0.912,0.189,1.851,0.626,2.668
			c0.501,0.943,1.343,1.652,2.151,2.326c0.647,0.532,1.659,1.291,2.251,1.862c0.393,0.372,0.746,0.797,0.983,1.286
			c0.535,1.096,0.586,2.74,0.794,3.947c0.152,0.976,0.334,1.972,0.722,2.886c0.251,0.592,0.62,1.132,1.003,1.646l3.143,4.017
			c0.448,0.592,1.994,3.187,2.418,3.856c0.748,1.161,1.52,2.353,2.447,3.379c0.715,0.799,1.58,1.447,2.62,1.747
			c1.15,0.341,2.379,0.371,3.571,0.402c0,0,0.747,0.01,0.747,0.01s39.91-0.002,39.91-0.002c0.207-0.01,1.145-0.013,1.363-0.028
			c0.834-0.032,1.699-0.091,2.516-0.272c1.417-0.307,2.778-0.961,3.817-1.985c0.906-0.88,1.539-2.005,2.007-3.169
			c0.606-1.519,0.961-3.141,1.139-4.764c0.295-2.673,0.142-5.713,0.241-8.405c0.007-0.996-0.059-2.009-0.283-2.981
			c-0.468-1.971-1.349-3.837-2.275-5.63c-0.438-0.811-0.874-1.655-1.474-2.359c-0.326-0.382-0.711-0.715-1.13-0.991
			c-0.643-0.426-1.372-0.744-2.084-1.037c-2.167-0.901-4.87-1.642-6.877-2.875c-1.402-0.862-2.515-2.133-3.409-3.501
			c-0.814-1.273-1.304-2.733-1.583-4.211c-0.401-0.94-0.838-1.929-1.029-2.933c-0.132-0.661-0.157-1.345-0.064-2.013
			c0.186-1.349,0.704-2.752,0.884-4.103c0.133-0.909,0.086-1.824-0.213-2.696c-0.594-1.865-1.997-3.555-2.238-5.522
			c-0.065-0.583-0.024-1.178,0.046-1.758c0.149-1.175,0.434-2.531,0.255-3.712c-0.215-1.468-1.078-2.872-1.718-4.19
			c-0.569-1.174-1.138-2.461-0.74-3.779c0.439-1.552,1.631-2.865,1.772-4.509c0.111-1.54-0.646-3.164-1.077-4.614
			c-0.25-0.827-0.471-1.694-0.394-2.564c0.096-1.095,0.659-2.139,1.092-3.133c0.338-0.774,0.626-1.604,0.588-2.461
			c-0.044-0.988-0.411-1.933-0.792-2.834c-0.446-1.044-1.088-2.299-1.445-3.366c-0.188-0.554-0.332-1.131-0.366-1.717
			c-0.119-1.733,0.665-3.516,1.082-5.168c0.454-1.763,0.544-3.622,0.331-5.428c-0.143-1.194-0.442-2.382-0.967-3.468
			c-0.443-0.976-1.119-1.98-1.126-3.086c0.018-1.069,0.601-2.121,0.957-3.108c0.247-0.651,0.459-1.329,0.524-2.025
			c0.114-1.158-0.213-2.53-0.394-3.673c-0.153-0.972-0.255-1.992,0.017-2.953c0.19-0.673,0.569-1.279,0.995-1.828
			c0.676-0.883,1.853-1.983,2.629-2.785c1.001-1.031,1.939-2.136,2.302-3.559c0.33-1.189,0.37-2.645,0.528-3.868
			c0.118-0.926,0.32-1.855,0.696-2.713c1.197-2.661,3.604-5.008,5.25-7.388c0.737-1.053,1.419-2.178,1.791-3.416
			c0.273-0.908,0.339-1.869,0.342-2.812l-0.018-1.782c0-1.181,0.099-2.461,0.851-3.427c0.508-0.657,1.204-1.144,1.904-1.577
			c1.93-1.19,4.339-2.075,5.994-3.662c0.52-0.502,0.944-1.11,1.193-1.791c0.586-1.556,0.47-3.485,0.504-5.128
			c0.024-0.876,0.062-1.782,0.37-2.611c0.176-0.48,0.482-0.905,0.864-1.244c0.946-0.841,2.251-1.31,3.305-1.993
			c0.587-0.376,1.139-0.847,1.475-1.468c0.315-0.576,0.467-1.228,0.566-1.873c0.226-1.461,0.159-3.183,0.527-4.621
			c0.141-0.542,0.369-1.075,0.749-1.494c0.85-0.941,2.171-1.359,3.268-1.931c0.642-0.329,1.277-0.72,1.734-1.289
			c0.815-1.043,0.996-2.442,1.162-3.718c0.237-1.98,0.291-4.218,1.164-6.04c0.612-1.307,1.829-2.624,2.741-3.739
			c0.74-0.914,1.435-1.921,1.702-3.083c0.174-0.745,0.169-1.523,0.096-2.281c-0.141-1.528-0.715-3.595-1.062-5.103
			c-0.257-1.202-0.539-2.46-0.327-3.69c0.144-0.852,0.652-1.739,1.035-2.507c0.248-0.505,0.464-1.034,0.575-1.586
			c0.109-0.527,0.123-1.072,0.065-1.606c-0.166-1.434-0.66-2.831-1.135-4.187c-0.813-2.312-2.09-5.281-2.472-7.687
			c-0.117-0.736-0.143-1.492-0.029-2.23c0.123-0.824,0.423-1.615,0.818-2.346c0.745-1.39,1.899-2.725,2.433-4.223
			c0.942-2.654,0.696-5.556,0.333-8.297c-0.192-1.589-0.728-3.806-0.694-5.409"/>
	</g>
	<g id="POLYLINE_00000067933028699300199680000002276777118014297734_">
		
			<path fill="none" stroke="#FB8604" stroke-width="2.75" stroke-linecap="round" stroke-linejoin="round" stroke-miterlimit="10" d="
			M192.636,459.11c-1.211,0.818-2.469,1.733-3.848,2.235c-0.935,0.352-1.946,0.491-2.943,0.423c-1.45-0.081-3.233-0.488-4.684-0.54
			c-0.61-0.023-1.231,0.004-1.827,0.144c-0.904,0.198-1.664,0.711-2.292,1.378c-1.012,1.052-1.911,2.642-2.708,3.869
			c-0.55,0.839-1.13,1.696-1.893,2.358c-0.734,0.653-1.694,0.932-2.647,1.076l-1.159,0.172c-0.912,0.138-1.861,0.398-2.534,1.064
			c-0.469,0.456-0.816,1.025-1.123,1.598c-0.833,1.561-1.443,3.534-2.412,5.02c-0.341,0.509-0.756,1-1.312,1.277
			c-0.874,0.423-1.887,0.263-2.806,0.093c-1.223-0.223-2.606-0.676-3.837-0.36c-0.514,0.139-0.969,0.438-1.363,0.789
			c-1.355,1.205-2.187,3.049-3.666,4.126c-0.696,0.492-1.552,0.671-2.383,0.78c-1.09,0.141-2.277,0.225-3.253,0.768
			c-0.625,0.343-1.142,0.854-1.608,1.387c-1.077,1.24-2.061,2.888-3.175,4.096c-0.523,0.563-1.119,1.092-1.838,1.385
			c-0.759,0.311-1.613,0.326-2.406,0.142c-2.124-0.514-3.867-2.129-5.04-3.919c-0.733-1.093-1.502-2.688-2.223-3.791
			c-0.233-0.352-0.489-0.7-0.788-0.999c-0.338-0.339-0.754-0.624-1.231-0.714c-0.576-0.108-1.166,0.041-1.708,0.235
			c-2.249,0.853-4.345,2.612-6.722,3.137c-1.15,0.244-2.387,0.095-3.427-0.461c-0.681-0.362-1.281-0.894-1.676-1.559
			c-0.315-0.521-0.463-1.124-0.562-1.72c-0.131-0.764-0.198-1.663-0.565-2.355c-0.206-0.401-0.531-0.731-0.909-0.972
			c-1.079-0.675-2.397-0.906-3.646-1.023c-1.006-0.081-2.027-0.066-3.026,0.078c-0.681,0.086-1.479,0.346-2.137,0.546
			c-0.448,0.129-0.944,0.237-1.393,0.058c-0.308-0.12-0.563-0.345-0.786-0.585c-0.409-0.45-0.727-0.982-1.004-1.522
			c-0.783-1.588-1.32-3.41-1.313-5.19c-0.003-0.787,0.14-1.783,0.164-2.57c0.012-0.462-0.021-0.934-0.166-1.375
			c-0.204-0.622-0.618-1.15-1.029-1.65c-0.977-1.148-2.124-2.362-2.54-3.844c-0.29-1.005-0.294-2.072-0.192-3.106
			c0.188-1.791,0.7-3.549,1.299-5.242c0.588-1.718,1.509-3.592,2.162-5.288c0.162-0.45,0.3-0.919,0.374-1.392
			c0.308-1.8-0.592-3.617-0.265-5.416c0.255-1.44,1.456-2.439,2.521-3.329c1.665-1.345,3.652-2.701,4.749-4.566
			c1.139-1.816,1.739-4.15,2.825-5.994c1.336-2.284,3.733-3.738,6.233-4.443c1.595-0.456,3.272-0.667,4.929-0.64
			c1.266,0.025,2.541,0.188,3.752,0.565c1.698,0.505,3.285,1.597,5.078,1.759c0.794,0.069,1.59-0.101,2.34-0.35
			c2.564-0.887,4.966-2.588,7.579-3.354c2.141-0.689,4.488-0.946,6.694-1.353c2.229-0.406,4.364-1.302,6.078-2.804
			c1.013-0.888,1.899-2.009,2.217-3.341c0.217-0.887,0.102-1.817-0.114-2.693c-0.289-1.222-0.921-2.686-1.176-3.916
			c-0.075-0.379-0.122-0.772-0.075-1.158c0.047-0.393,0.215-0.763,0.44-1.086c0.56-0.794,1.394-1.385,1.928-2.199
			c0.363-0.546,0.571-1.183,0.692-1.824c0.189-1.021,0.171-2.078,0.102-3.111c-0.051-0.76-0.202-1.845-0.127-2.595
			c0.036-0.368,0.131-0.738,0.328-1.055c0.345-0.555,1.039-0.988,1.543-1.391c0.576-0.447,1.122-0.984,1.38-1.681
			c0.198-0.52,0.27-1.082,0.297-1.636c0.064-1.403-0.181-2.936-0.288-4.334c-0.05-0.695-0.063-1.413,0.133-2.087
			c0.177-0.622,0.533-1.178,0.906-1.7c0.639-0.885,1.432-1.862,1.895-2.848c0.175-0.376,0.316-0.775,0.363-1.188
			c0.074-0.627-0.105-1.25-0.316-1.834c-0.34-0.931-0.782-1.899-0.711-2.91c0.046-0.748,0.288-1.474,0.555-2.169
			c0.674-1.697,1.604-3.454,2.015-5.239c0.656-2.745,0.093-5.7,0.442-8.476c0.08-0.579,0.212-1.159,0.436-1.7
			c0.243-0.586,0.591-1.128,0.976-1.63c0.95-1.246,2.21-2.374,2.865-3.821c0.398-0.871,0.528-1.84,0.596-2.787
			c0.09-1.243,0.048-2.873,0.3-4.095c0.105-0.511,0.274-1.018,0.56-1.458c0.553-0.884,1.559-1.547,2.359-2.19
			c0.511-0.41,1.01-0.859,1.365-1.415c0.603-0.939,0.868-2.305,1.179-3.369c0.301-1.05,0.714-2.101,1.44-2.932
			c0.609-0.701,1.375-1.255,2.156-1.748c1.757-1.101,3.94-2.031,5.672-3.17c0.67-0.442,1.31-0.952,1.823-1.574
			c0.715-0.844,1.245-1.94,1.778-2.906c0.455-0.82,0.987-1.615,1.685-2.248c0.967-0.874,2.156-1.479,3.324-2.038
			c1.486-0.701,3.417-1.457,4.869-2.212c0.545-0.287,1.086-0.601,1.573-0.98c0.514-0.398,0.947-0.897,1.32-1.427
			c0.503-0.719,0.989-1.555,1.689-2.096c0.426-0.338,0.925-0.573,1.432-0.763c2.306-0.822,5.191-1.111,7.501-1.922
			c1.06-0.355,2.072-0.87,2.95-1.565c1.445-1.103,2.665-2.685,4.244-3.612c0.778-0.465,1.666-0.714,2.559-0.837
			c2.607-0.378,5.507,0.099,8.047-0.675c0.78-0.247,1.487-0.689,2.112-1.212c1.316-1.091,2.45-2.615,4.023-3.362
			c0.92-0.441,1.951-0.592,2.96-0.671c2.525-0.208,5.383,0.179,7.794-0.72c1.383-0.529,2.565-1.56,3.722-2.458
			c0.921-0.712,1.951-1.394,3.152-1.433c1.564-0.066,3.142,0.499,4.688,0.639c0.656,0.065,1.329,0.064,1.975-0.073
			c0.845-0.177,1.643-0.542,2.409-0.932c1.356-0.682,2.875-1.651,4.387-1.883c0.712-0.119,1.444-0.045,2.137,0.141
			c0.838,0.222,1.648,0.587,2.427,0.964c1.871,0.915,3.997,2.142,6.064,2.485c3.024,0.515,6.205-0.678,9.164-1.149
			c1.005-0.157,2.044-0.249,3.051-0.065c1.016,0.185,1.96,0.649,2.85,1.158c1.398,0.799,2.829,1.804,4.458,2.017
			c0.894,0.119,1.808,0.034,2.697-0.094c2.183-0.317,4.598-1.034,6.807-0.638c2.92,0.531,5.189,2.903,8.031,3.645
			c1.164,0.306,2.36,0.104,3.488-0.254c1.512-0.47,3.202-1.276,4.77-1.54c0.811-0.141,1.656-0.138,2.451,0.087
			c1.994,0.574,3.739,2.05,5.439,3.189c1.295,0.863,2.699,1.779,4.299,1.856c1.123,0.041,2.211-0.337,3.236-0.757
			c0.961-0.382,2.144-0.992,3.167-1.137c0.346-0.049,0.704-0.044,1.042,0.053c0.493,0.137,0.93,0.424,1.335,0.731
			c0.929,0.716,1.833,1.634,2.971,2.006c0.751,0.254,1.565,0.229,2.341,0.121c2.368-0.364,4.692-1.385,7.043-1.832
			c0.943-0.178,1.923-0.281,2.876-0.123c1.334,0.22,2.514,0.954,3.585,1.744l1.68,1.274c0.784,0.577,1.611,1.133,2.54,1.445
			c0.66,0.223,1.362,0.302,2.056,0.3c2.576-0.019,5.271-1.007,7.857-0.769c2.344,0.209,4.49,1.552,6.709,2.218
			c0.676,0.197,1.384,0.327,2.09,0.283c0.711-0.043,1.403-0.255,2.059-0.523c1.855-0.773,3.728-2.062,5.7-2.529
			c1.451-0.36,2.973-0.242,4.441-0.058c1.639,0.191,3.528,0.627,5.171,0.41c0.472-0.066,0.933-0.219,1.347-0.456
			c0.701-0.387,1.368-1.061,1.962-1.597c0.606-0.554,1.262-1.078,2.012-1.422c0.999-0.46,2.114-0.597,3.201-0.684
			c2.267-0.177,4.889,0.001,7.125-0.448c0.617-0.13,1.232-0.318,1.781-0.632c0.416-0.238,0.785-0.555,1.101-0.914
			c0.898-1.016,1.442-2.398,2.198-3.512c0.387-0.576,0.855-1.113,1.436-1.5c0.818-0.541,1.791-0.792,2.747-0.958
			c2.034-0.342,4.446-0.299,6.498-0.506c0.724-0.075,1.463-0.182,2.163-0.387c0.682-0.197,1.329-0.516,1.903-0.933
			c0.954-0.677,1.822-1.745,2.612-2.588c2.409-2.637,6.05-3.998,9.234-5.453c1.078-0.509,2.253-1.071,2.873-2.142
			c0.359-0.625,0.561-1.418,0.834-2.082c0.226-0.563,0.526-1.108,0.947-1.549c0.732-0.768,1.711-1.246,2.692-1.615
			c2.052-0.746,4.256-1.098,6.412-1.402"/>
	</g>
	<g id="POLYLINE_00000162318241465995566320000016147731983810047391_">
		
			<path fill="none" stroke="#FB8604" stroke-width="2.75" stroke-linecap="round" stroke-linejoin="round" stroke-miterlimit="10" d="
			M633.07,269.012c-0.188,1.157-0.491,3.648-0.786,4.741c-0.167,0.64-0.411,1.266-0.749,1.836c-0.743,1.254-1.881,2.243-2.95,3.214
			c-2.119,1.904-4.534,3.834-5.947,6.347c-0.722,1.3-1.137,2.753-1.45,4.199c-0.391,1.784-0.669,4.003-1.516,5.62
			c-0.564,1.084-1.405,2.005-2.359,2.76c-3.389,2.67-8.061,3.646-11.046,6.869c-1.692,1.797-3.031,4.197-4.408,6.24
			c-1.823,2.717-3.945,5.415-6.041,7.929c-0.97,1.139-2.026,2.437-3.116,3.459c-0.845,0.79-1.81,1.495-2.922,1.848
			c-1.111,0.353-2.303,0.346-3.456,0.316c-1.168-0.046-2.53-0.118-3.689,0.033c-0.984,0.129-1.95,0.424-2.882,0.756l-2.525,0.935
			c-1.565,0.559-3.191,1.02-4.832,1.286c-1.037,0.16-2.105,0.262-3.149,0.119c-0.417-0.06-0.835-0.165-1.211-0.36
			c-0.346-0.179-0.647-0.436-0.922-0.709c-0.493-0.497-1.012-1.113-1.724-1.276c-0.483-0.117-0.991-0.07-1.477,0.008
			c-1.086,0.189-2.147,0.58-3.172,0.975c-0.735,0.281-2.521,1.063-3.252,1.262c-0.27,0.076-0.549,0.129-0.829,0.141
			c-0.756,0.025-1.525-0.141-2.268-0.263c-1.911-0.352-3.833-0.841-5.669-1.481"/>
	</g>
	<g id="POLYLINE_00000160910064414763613610000003440937768505261740_">
		
			<path fill="none" stroke="#FB8604" stroke-width="2.75" stroke-linecap="round" stroke-linejoin="round" stroke-miterlimit="10" d="
			M543.196,244.304c1.703,1.877,3.202,3.991,4.188,6.335c0.447,1.079,0.781,2.222,0.892,3.388c0.079,0.808,0.03,1.63-0.092,2.431
			c-0.345,2.35-1.405,4.795-1.16,7.203c0.096,0.93,0.387,1.835,0.735,2.699c0.636,1.571,1.642,3.369,2.288,4.937
			c0.386,0.934,0.71,1.911,0.86,2.913c0.209,1.386,0.112,2.808-0.054,4.194c-0.244,2.043-0.729,4.384-0.483,6.432
			c0.173,1.583,0.961,3.457,1.497,4.958c0.294,0.838,0.557,1.708,0.691,2.587c0.165,1.026,0.116,2.08-0.043,3.104
			c-0.257,1.761-1.03,4.242-1.489,5.979c-0.388,1.502-0.723,3.052-0.696,4.611c0.012,2.169,0.715,4.511,1.224,6.612
			c0.822,3.275,0.774,6.894-0.86,9.918c-0.998,1.878-2.612,3.685-3.037,5.817c-0.191,0.899-0.125,1.833,0.047,2.73
			c0.409,2.218,1.493,4.608,1.717,6.861c0.05,0.567,0.04,1.149-0.104,1.702c-0.141,0.546-0.415,1.052-0.754,1.5
			c-1.1,1.421-2.727,2.415-4.072,3.582c-0.683,0.579-1.33,1.221-1.86,1.945c-0.762,1.027-1.347,2.195-1.878,3.355
			c-0.777,1.689-1.494,3.632-2.782,5.008c-0.772,0.866-1.939,1.837-2.757,2.659c-0.743,0.731-1.437,1.545-2.066,2.376
			c-1.287,1.649-2.723,3.952-4.251,5.387c-0.342,0.301-0.72,0.602-1.176,0.697l-0.02,0.004l-0.02,0.003l-0.02,0.003l-0.02,0.002
			l-0.02,0.002c-0.437,0.041-0.82-0.227-1.151-0.48c-0.493-0.383-1.007-0.842-1.626-0.996c-0.53-0.14-1.089-0.043-1.608,0.099
			c-2.032,0.597-3.921,1.896-5.957,2.483c-0.465,0.128-0.953,0.219-1.437,0.174c-0.513-0.045-0.992-0.279-1.387-0.603
			c-0.858-0.696-1.597-1.934-2.256-2.817c-0.536-0.734-1.122-1.451-1.805-2.053c-0.572-0.506-1.222-0.933-1.888-1.306
			c-2.327-1.311-5.36-2.167-7.719-3.416c-0.669-0.363-1.326-0.782-1.86-1.33c-0.899-0.9-1.239-2.184-1.363-3.416
			c-0.186-1.803-0.062-3.719-0.859-5.401c-0.805-1.793-2.227-3.224-3.695-4.493c-1.645-1.425-3.674-2.868-4.675-4.849
			c-0.802-1.558-1.128-3.732-1.52-5.435c-0.482-2.204-1.343-4.34-2.594-6.222c-1.204-1.844-2.786-3.431-4.52-4.779l-3.384-2.582
			c-1.115-0.898-2.282-1.835-3.003-3.095c-0.366-0.655-0.554-1.395-0.644-2.136c-0.146-1.253-0.13-2.721-0.395-3.955
			c-0.535-2.574-1.602-5.064-3.14-7.198c-1.025-1.416-2.51-2.622-3.553-4.023c-0.936-1.244-1.495-2.731-1.892-4.224
			c-0.459-1.759-0.706-3.586-0.765-5.402c-0.06-1.626,0.135-3.591,0.099-5.218c-0.009-2.556-1.106-5.718-1.743-8.182
			c-0.519-1.999-0.922-4.065-0.914-6.138c0.009-1.316,0.19-2.656,0.719-3.87c0.698-1.597,1.993-2.834,3.301-3.944l2.227-1.843
			c1.669-1.428,3.324-3.033,4.156-5.109c0.475-1.193,0.626-2.493,0.715-3.765l0.192-3.501c0.169-2.538,0.716-5.069,1.652-7.435
			c0.647-1.627,1.482-3.2,2.587-4.564c0.527-0.651,1.132-1.251,1.791-1.768c0.909-0.744,2.505-1.666,3.508-2.3
			c0.98-0.627,1.953-1.33,2.643-2.281c0.61-0.841,0.964-1.841,1.269-2.825c0.508-1.61,0.873-3.555,1.946-4.894
			c0.471-0.585,1.102-1.021,1.759-1.372c1.137-0.61,2.586-1.073,3.723-1.684c0.665-0.354,1.294-0.803,1.76-1.401
			c0.511-0.644,0.859-1.404,1.137-2.173c0.539-1.495,0.909-3.429,1.506-4.902c0.687-1.722,1.861-3.403,3.65-4.084
			c0.917-0.357,1.923-0.391,2.896-0.384c1.123,0.013,2.471,0.112,3.576-0.062c0.496-0.079,0.99-0.22,1.427-0.471
			c0.775-0.448,1.337-1.178,1.838-1.903l0.914-1.372c0.351-0.506,0.729-1.012,1.206-1.406c0.332-0.274,0.717-0.481,1.121-0.628
			c1.108-0.41,2.671-0.448,3.844-0.572c1.198-0.107,2.409-0.342,3.573-0.638c2.089-0.526,4.663-1.313,6.777-1.585
			c1.042-0.136,2.111-0.184,3.153-0.022c1.835,0.272,3.632,1.232,5.356,1.873c0.949,0.35,1.952,0.614,2.97,0.603
			c2.258-0.022,4.453-1.197,6.659-1.525c0.443-0.055,0.903-0.065,1.336,0.059c0.504,0.143,0.941,0.453,1.344,0.778l0.719,0.594
			c0.571,0.466,1.212,0.873,1.933,1.056c0.586,0.152,1.202,0.171,1.804,0.145c1.004-0.048,2.028-0.232,3.012-0.433
			c3.204-0.673,6.817-1.784,10.08-2.051c1.247-0.099,2.523-0.081,3.741,0.224c2.413,0.579,4.413,2.18,6.133,3.903
			c0.767,0.774,2.312,2.398,3.115,3.091c1.157,1.045,2.573,2.109,3.408,3.433c0.489,0.755,0.766,1.626,0.979,2.494
			c0.3,1.198,0.527,2.614,0.986,3.759c0.238,0.599,0.56,1.178,1.014,1.641c1.641,1.681,4.444,2.005,5.667,4.131
			c0.833,1.489,0.961,3.36,1.251,5.015c0.122,0.713,0.265,1.442,0.514,2.123c0.197,0.54,0.46,1.059,0.775,1.54
			c0.531,0.816,1.219,1.529,1.932,2.188c1.068,0.997,2.227,1.934,3.485,2.68c4.128,2.468,14.082,6.044,18.592,7.966
			c4.469,1.868,8.993,4.126,12.073,7.988"/>
	</g>
	<g id="POLYLINE_00000125563269933351549200000011981984036032434320_">
		
			<path fill="none" stroke="#FB8604" stroke-width="2.75" stroke-linecap="round" stroke-linejoin="round" stroke-miterlimit="10" d="
			M633.07,269.012c-2.374,1.15-5.032-0.369-6.677-2.108c-1.169-1.222-2.038-2.71-2.692-4.262c-0.658-1.574-1.115-3.24-1.347-4.93
			c-0.189-1.515-0.281-3.197,0.284-4.643c0.281-0.709,0.772-1.324,1.38-1.781c0.693-0.524,1.493-0.9,2.316-1.172
			c0.903-0.292,1.857-0.46,2.807-0.423c1.017,0.031,2.005,0.388,2.849,0.948c1.157,0.77,2.131,1.803,3.046,2.841
			c1.016,1.182,1.852,2.557,2.222,4.083c0.407,1.634,0.271,3.359-0.105,4.985c-0.373,1.568-0.981,3.103-1.898,4.434
			C634.683,267.803,633.973,268.562,633.07,269.012z"/>
	</g>
	<g id="POLYLINE_00000112592480825604410230000003673055237599666312_">
		
			<path fill="none" stroke="#FB8604" stroke-width="2.75" stroke-linecap="round" stroke-linejoin="round" stroke-miterlimit="10" d="
			M190.358,362.264c-1.446,1.267-2.607,2.846-3.515,4.535c-0.681,1.304-1.253,2.714-1.363,4.194
			c-0.035,0.535,0.012,1.083,0.189,1.592c0.201,0.595,0.557,1.128,0.934,1.626c0.614,0.802,1.356,1.667,1.714,2.618
			c0.488,1.281,0.463,2.693,0.436,4.043c-0.062,1.942-0.282,4.255-0.085,6.183c0.089,0.891,0.27,1.785,0.621,2.611
			c0.655,1.583,1.879,2.973,2.923,4.314c0.715,0.933,1.415,1.936,1.685,3.098c0.176,0.761,0.154,1.556,0.054,2.326
			c-0.223,1.679-0.871,3.546-1.226,5.203c-0.217,1.008-0.349,2.053-0.21,3.081c0.211,1.674,1.018,3.204,1.887,4.626
			c1.044,1.689,2.411,3.676,3.132,5.517c0.345,0.873,0.596,1.801,0.616,2.744c0.034,1.055-0.306,2.078-0.712,3.039l-0.794,1.816
			c-0.479,1.132-0.873,2.351-0.785,3.595c0.069,1.019,0.397,2.007,0.786,2.945c0.948,2.276,2.458,4.532,3.298,6.852
			c0.335,0.942,0.537,1.942,0.525,2.944c-0.008,0.956-0.215,1.91-0.574,2.795c-0.954,2.362-2.947,4.266-4.507,6.232
			c-0.958,1.197-1.885,2.477-2.376,3.944c-0.353,1.055-0.42,2.185-0.406,3.29c0.017,1.716,0.252,3.535-0.141,5.225
			c-0.528,2.205-2.209,3.889-3.817,5.387c-0.76,0.703-2.02,1.747-2.684,2.52c-0.291,0.338-0.546,0.712-0.727,1.121
			c-0.407,0.914-0.435,1.942-0.443,2.926l0.047,3.046c-0.002,1.772-0.051,3.619-0.741,5.276c-0.701,1.667-2.045,2.956-3.419,4.085
			c-1.988,1.607-4.299,3.263-5.23,5.741c-0.745,1.93-0.578,4.133-0.964,6.139c-0.129,0.669-0.319,1.34-0.666,1.93
			c-0.694,1.178-1.911,1.913-3.096,2.527l-2.213,1.092c-1.456,0.741-2.936,1.674-3.729,3.154c-0.437,0.794-0.623,1.699-0.707,2.594
			c-0.193,2.017,0.047,4.277-0.196,6.29c-0.112,0.893-0.345,1.811-0.929,2.518c-0.939,1.155-2.46,1.678-3.764,2.299
			c-0.859,0.402-1.684,0.909-2.361,1.579c-0.642,0.628-1.143,1.392-1.507,2.21c-0.816,1.823-1.251,4.567-1.707,6.52
			c-0.323,1.435-0.748,2.875-1.344,4.222c-0.461,1.05-1.022,2.07-1.69,3.003c-0.526,0.738-1.279,1.564-1.693,2.376
			c-0.468,0.875-0.586,1.871-0.503,2.85c0.097,1.28,0.414,2.571,0.726,3.814l1.07,3.985c0.463,1.766,0.828,3.593,0.744,5.426
			c-0.051,1.545-0.289,3.256-0.055,4.79c0.286,1.993,0.993,4.022,2.306,5.575c0.522,0.613,1.18,1.1,1.864,1.517
			c0.996,0.61,2.219,1.195,3.015,2.067c0.383,0.414,0.674,0.907,0.91,1.416c0.562,1.209,0.919,2.833,1.281,4.12
			c0.421,1.573,1.088,3.103,2.114,4.378c0.834,1.093,2.054,2.016,3.135,2.858c0.579,0.472,1.158,0.981,1.548,1.626
			c0.435,0.719,0.624,1.557,0.782,2.373c0.261,1.438,0.55,3.003,1.098,4.358c0.266,0.656,0.591,1.305,1.066,1.836
			c0.643,0.727,1.552,1.136,2.449,1.457c1.291,0.726,2.564,1.532,3.697,2.49c1.077,0.892,2.134,2.129,3.095,3.148
			c1.189,1.262,2.561,2.401,4.176,3.069c1.038,0.441,2.157,0.683,3.272,0.835c1.861,0.255,3.929,0.286,5.812,0.318
			c5.685-0.029,26.752,0.1,32.026-0.065c1.137-0.052,2.337-0.118,3.46-0.299c1.03-0.167,2.074-0.427,2.966-0.986
			c1.107-0.679,1.764-1.815,2.204-3.005c0.681-1.832,1.041-3.788,1.141-5.738c0.215-3.861-0.801-7.678-2.135-11.27
			c-0.855-2.2-1.783-4.475-3.13-6.424c-0.52-0.728-1.151-1.391-1.915-1.865c-1.272-0.81-3.009-1.137-4.439-1.566
			c-1.901-0.526-3.716-1.453-5.137-2.836c-0.736-0.716-1.391-1.539-1.811-2.481c-0.686-1.525-0.675-3.259-0.431-4.884"/>
	</g>
	<g id="POLYLINE_00000142861387637625006200000017283573236794414744_">
		
			<path fill="none" stroke="#FB8604" stroke-width="2.75" stroke-linecap="round" stroke-linejoin="round" stroke-miterlimit="10" d="
			M215.283,564.694l0.286-1.316c0.194-0.832,0.491-1.672,1.069-2.318c0.256-0.292,0.563-0.539,0.886-0.753
			c0.917-0.604,2.299-1.18,3.29-1.67c1.508-0.739,3.041-1.679,3.861-3.199c1.101-1.995,1.287-4.578,1.848-6.755
			c0.147-0.562,0.324-1.128,0.588-1.647c0.284-0.573,0.725-1.057,1.231-1.443c0.728-0.569,1.683-1.021,2.314-1.708
			c0.695-0.739,0.873-1.789,1.022-2.756l0.228-1.696c0.154-1.023,0.359-2.078,0.912-2.968c0.995-1.563,3.026-2.304,4.605-3.136
			c0.96-0.5,1.938-1.057,2.635-1.904c0.694-0.851,1.038-1.924,1.317-2.971c0.38-1.43,0.656-3.022,1.423-4.301
			c0.385-0.649,0.925-1.194,1.516-1.657c1.285-1.015,2.975-1.775,4.325-2.698c0.673-0.461,1.309-1.023,1.674-1.766
			c0.501-0.982,0.635-2.135,1.003-3.165c0.249-0.732,0.649-1.413,1.183-1.973c1.407-1.483,3.377-2.593,4.9-3.946
			c0.594-0.526,1.161-1.106,1.571-1.79c0.663-1.093,0.865-2.437,1.131-3.669c0.163-0.721,0.365-1.461,0.802-2.07
			c0.718-0.98,2.003-1.51,3.03-2.099c0.725-0.41,1.46-0.872,1.954-1.559c0.294-0.408,0.471-0.89,0.584-1.377
			c0.21-0.883,0.245-2.124,0.315-3.036c0.083-0.962,0.186-1.988,0.739-2.81c0.479-0.694,1.229-1.137,1.959-1.529
			c1.008-0.537,2.23-1.062,3.018-1.905c0.993-1.063,1.203-2.587,1.379-3.975l0.246-2.399c0.107-0.875,0.241-1.764,0.563-2.589
			c0.18-0.46,0.433-0.893,0.729-1.288c1.025-1.379,2.635-2.371,3.409-3.939c0.497-1.011,0.683-2.156,0.851-3.261
			c0.235-1.551,0.393-3.287,1.027-4.729c1.166-2.597,3.725-4.232,5.465-6.404c1.595-1.977,2.826-4.422,2.811-7.01
			c-0.007-1.609-0.718-3.131-1.095-4.671c-0.134-0.562-0.222-1.146-0.18-1.724c0.032-0.471,0.16-0.935,0.368-1.358
			c0.637-1.266,1.709-2.254,2.728-3.214c1.839-1.714,4.117-3.45,5.325-5.697c0.8-1.471,1.146-3.319,1.535-4.934
			c0.228-0.912,0.508-1.833,0.987-2.647c0.507-0.863,1.217-1.595,1.938-2.281c1.329-1.252,2.923-2.567,3.885-4.124
			c0.632-0.995,1.027-2.125,1.314-3.263c0.463-1.827,0.695-4.064,0.998-5.93c0.141-0.834,0.305-1.689,0.585-2.488
			c0.229-0.654,0.562-1.274,0.942-1.853c0.659-0.991,1.467-1.99,1.817-3.145c0.561-1.793,0.562-3.714,0.452-5.573
			c-0.224-3.24-0.913-6.481-2.242-9.454"/>
	</g>
	<g id="POLYLINE_00000126310402738959852800000003610070725041116305_">
		
			<path fill="none" stroke="#FB8604" stroke-width="2.75" stroke-linecap="round" stroke-linejoin="round" stroke-miterlimit="10" d="
			M286.083,458.625l1.25,1.783c0.859,1.197,1.873,2.344,3.199,3.031c1.005,0.537,2.143,0.768,3.268,0.884
			c2.911,0.285,6.256-0.042,9.176,0.081c1.198,0.052,2.415,0.162,3.572,0.489c1.103,0.306,2.111,0.891,3,1.604
			c1.102,0.861,2.175,2.071,3.404,2.756c0.65,0.368,1.393,0.545,2.135,0.587c1.526,0.093,3.433-0.255,4.956-0.409
			c1.681-0.182,3.399-0.245,5.077,0.003c2.341,0.349,4.609,1.184,6.795,2.07c2.471,1.009,5.827,2.592,8.317,3.544
			c1.401,0.53,2.853,1.018,4.333,1.267c1.159,0.196,2.352,0.209,3.519,0.08c1.687-0.175,3.62-0.706,5.297-0.969
			c1.429-0.235,2.898-0.261,4.334-0.072c2.979,0.368,6.787,1.55,9.714,2.292c1.989,0.5,4.065,0.955,6.105,1.162
			c2.088,0.215,4.253,0.196,6.35,0.096c2.94-0.135,7.108-0.605,9.99-0.253c1.678,0.19,3.714,0.816,5.356,1.265
			c1.478,0.397,3.007,0.667,4.539,0.685c4.422,0.091,9.327-1.131,13.748-0.802c2.204,0.166,4.511,0.905,6.716,1.055
			c1.374,0.092,2.764-0.061,4.111-0.329c1.821-0.369,3.607-0.96,5.314-1.689"/>
	</g>
</g>
<g id="_x32_D_x24_AG-OUTLINE">
	<g id="POLYLINE_00000035517428871686269400000011366968282664333503_">
		
			<path fill="none" stroke="#FB8604" stroke-width="3.5" stroke-linecap="round" stroke-linejoin="round" stroke-miterlimit="10" d="
			M633.07,269.012c0.956-0.477,1.695-1.297,2.285-2.172c1.031-1.563,1.671-3.374,1.984-5.215c0.163-0.998,0.225-2.028,0.106-3.035
			c-0.107-0.91-0.369-1.806-0.763-2.634c-0.662-1.403-1.692-2.6-2.776-3.694c-1.129-1.142-2.458-2.242-4.091-2.501
			c-3.08-3.861-7.604-6.119-12.073-7.988c-4.585-1.95-14.433-5.488-18.592-7.966c-1.258-0.746-2.417-1.682-3.485-2.68
			c-0.733-0.678-1.439-1.412-1.977-2.258c-0.328-0.512-0.597-1.067-0.791-1.643c-0.401-1.199-0.552-2.705-0.772-3.951
			c-0.184-1.034-0.408-2.094-0.932-3.015c-1.222-2.125-4.027-2.451-5.667-4.131c-0.481-0.491-0.812-1.109-1.055-1.746
			c-0.456-1.19-0.679-2.648-1.002-3.879c-0.218-0.854-0.524-1.702-1.029-2.431c-0.83-1.235-2.202-2.28-3.301-3.27
			c-0.795-0.685-2.357-2.326-3.115-3.091c-1.743-1.747-3.777-3.368-6.231-3.927c-1.284-0.305-2.625-0.297-3.932-0.175
			c-3.348,0.32-7.033,1.488-10.332,2.134c-0.883,0.167-1.793,0.31-2.693,0.332c-0.545,0.011-1.101-0.021-1.628-0.165
			c-0.703-0.187-1.328-0.588-1.887-1.044l-0.719-0.594c-0.403-0.325-0.84-0.635-1.344-0.778c-0.433-0.125-0.893-0.115-1.336-0.059
			c-2.207,0.328-4.401,1.503-6.659,1.525c-1.018,0.011-2.021-0.253-2.97-0.603c-1.725-0.641-3.52-1.6-5.356-1.873
			c-1.104-0.171-2.237-0.107-3.338,0.048c-2.031,0.28-4.591,1.053-6.591,1.559c-1.165,0.296-2.375,0.531-3.573,0.638
			c-1.179,0.126-2.731,0.162-3.844,0.572c-0.404,0.147-0.789,0.355-1.121,0.628c-0.477,0.394-0.855,0.9-1.206,1.406l-0.914,1.372
			c-0.502,0.725-1.063,1.455-1.838,1.903c-0.437,0.252-0.931,0.392-1.427,0.471c-1.102,0.174-2.458,0.075-3.576,0.062
			c-1.005-0.008-2.046,0.03-2.987,0.42c-1.856,0.752-3.018,2.559-3.685,4.373c-0.524,1.408-0.9,3.286-1.424,4.694
			c-0.27,0.728-0.609,1.445-1.094,2.055c-0.466,0.598-1.095,1.047-1.76,1.401c-1.098,0.59-2.511,1.051-3.615,1.627
			c-0.697,0.362-1.37,0.812-1.867,1.429c-1.071,1.336-1.443,3.292-1.946,4.894c-0.305,0.985-0.659,1.984-1.269,2.825
			c-0.69,0.951-1.663,1.654-2.643,2.281c-0.957,0.609-2.522,1.514-3.39,2.208c-0.655,0.503-1.262,1.083-1.79,1.717
			c-1.165,1.396-2.036,3.023-2.705,4.707c-0.935,2.367-1.482,4.898-1.652,7.435l-0.192,3.501c-0.089,1.273-0.24,2.572-0.715,3.765
			c-0.832,2.075-2.488,3.68-4.156,5.109l-2.227,1.843c-1.278,1.085-2.542,2.288-3.251,3.834c-0.492,1.074-0.701,2.261-0.755,3.435
			c-0.068,1.564,0.127,3.142,0.432,4.674c-2.156,0.304-4.36,0.655-6.412,1.402c-0.981,0.37-1.96,0.848-2.692,1.615
			c-0.391,0.41-0.68,0.91-0.898,1.43c-0.294,0.684-0.494,1.498-0.855,2.151c-0.61,1.101-1.807,1.676-2.901,2.192
			c-3.188,1.457-6.822,2.815-9.234,5.453c-0.78,0.849-1.688,1.925-2.612,2.588c-0.596,0.433-1.271,0.759-1.981,0.955
			c-2.722,0.704-5.82,0.392-8.583,0.87c-0.956,0.166-1.93,0.416-2.747,0.958c-0.582,0.387-1.048,0.924-1.436,1.5
			c-0.756,1.115-1.301,2.496-2.198,3.512c-0.324,0.369-0.705,0.693-1.134,0.933c-0.541,0.303-1.144,0.486-1.748,0.613
			c-2.234,0.448-4.86,0.271-7.125,0.448c-1.086,0.087-2.202,0.224-3.201,0.684c-1.031,0.464-1.899,1.317-2.723,2.074
			c-0.432,0.388-0.89,0.767-1.411,1.03c-0.389,0.2-0.816,0.323-1.248,0.379c-1.736,0.204-3.707-0.274-5.435-0.459
			c-1.363-0.158-2.773-0.236-4.116,0.098c-1.972,0.467-3.847,1.757-5.7,2.529c-0.675,0.276-1.39,0.492-2.122,0.526
			c-0.685,0.033-1.371-0.095-2.027-0.286c-2.219-0.667-4.365-2.009-6.709-2.218c-2.587-0.238-5.28,0.75-7.857,0.769
			c-0.717,0.002-1.443-0.083-2.121-0.323c-0.902-0.316-1.71-0.86-2.475-1.423l-1.68-1.274c-1.072-0.79-2.251-1.524-3.585-1.744
			c-0.953-0.158-1.933-0.055-2.876,0.123c-2.351,0.446-4.675,1.468-7.043,1.832c-0.776,0.108-1.59,0.133-2.341-0.121
			c-1.137-0.371-2.043-1.29-2.971-2.006c-0.404-0.307-0.841-0.593-1.335-0.731c-0.338-0.096-0.696-0.102-1.042-0.053
			c-1.02,0.143-2.214,0.755-3.167,1.137c-1.025,0.419-2.114,0.798-3.236,0.757c-1.6-0.077-3.004-0.993-4.299-1.856
			c-1.727-1.157-3.487-2.653-5.518-3.21c-0.82-0.219-1.688-0.199-2.517-0.04c-1.56,0.291-3.25,1.103-4.766,1.557
			c-1.085,0.332-2.232,0.503-3.346,0.211c-2.842-0.742-5.111-3.113-8.031-3.644c-2.206-0.396-4.628,0.321-6.807,0.638
			c-0.888,0.129-1.803,0.213-2.697,0.094c-1.627-0.212-3.065-1.219-4.458-2.017c-0.89-0.509-1.834-0.973-2.85-1.158
			c-1.007-0.184-2.046-0.092-3.051,0.065c-2.961,0.472-6.138,1.664-9.164,1.149c-2.063-0.341-4.2-1.572-6.064-2.485
			c-0.779-0.377-1.589-0.741-2.427-0.964c-0.713-0.193-1.468-0.263-2.199-0.131c-1.481,0.243-3.001,1.202-4.326,1.873
			c-0.804,0.408-1.64,0.791-2.531,0.956c-0.725,0.134-1.473,0.103-2.201,0.009c-1.422-0.174-2.898-0.663-4.341-0.599
			c-1.202,0.039-2.23,0.721-3.152,1.433c-1.163,0.901-2.337,1.928-3.722,2.458c-2.41,0.899-5.269,0.512-7.794,0.72
			c-0.989,0.077-1.998,0.224-2.906,0.646c-1.601,0.738-2.746,2.284-4.077,3.388c-0.625,0.522-1.332,0.964-2.112,1.212
			c-2.54,0.774-5.439,0.297-8.047,0.675c-0.893,0.122-1.781,0.372-2.559,0.837c-1.58,0.926-2.8,2.508-4.244,3.612
			c-0.877,0.695-1.89,1.211-2.95,1.566c-2.312,0.812-5.193,1.1-7.501,1.922c-0.506,0.19-1.007,0.425-1.432,0.763
			c-0.747,0.571-1.233,1.474-1.779,2.221c-0.363,0.503-0.79,0.97-1.286,1.346c-0.516,0.393-1.091,0.718-1.667,1.014
			c-1.527,0.777-3.514,1.546-5.055,2.295c-1.069,0.526-2.152,1.105-3.033,1.918c-0.677,0.625-1.196,1.405-1.641,2.207
			c-0.555,1.004-1.096,2.129-1.853,2.994c-0.535,0.626-1.2,1.134-1.89,1.579c-1.691,1.086-3.826,2.01-5.53,3.078
			c-0.782,0.493-1.547,1.047-2.156,1.748c-0.726,0.831-1.14,1.883-1.44,2.932c-0.312,1.068-0.575,2.427-1.179,3.369
			c-0.354,0.556-0.854,1.005-1.365,1.415c-0.809,0.644-1.8,1.311-2.359,2.19c-0.286,0.44-0.455,0.946-0.56,1.458
			c-0.251,1.217-0.209,2.852-0.3,4.095c-0.069,0.947-0.198,1.916-0.596,2.787c-0.655,1.446-1.915,2.575-2.865,3.821
			c-0.384,0.503-0.733,1.044-0.976,1.63c-0.225,0.541-0.356,1.121-0.436,1.7c-0.349,2.776,0.214,5.731-0.442,8.476
			c-0.411,1.785-1.342,3.544-2.015,5.239c-0.267,0.695-0.509,1.421-0.555,2.169c-0.071,1.009,0.371,1.983,0.711,2.91
			c0.211,0.584,0.389,1.208,0.316,1.834c-0.047,0.413-0.188,0.813-0.363,1.188c-0.462,0.984-1.258,1.966-1.895,2.848
			c-0.374,0.522-0.729,1.077-0.906,1.7c-0.197,0.675-0.184,1.392-0.133,2.087c0.107,1.4,0.352,2.931,0.288,4.334
			c-0.027,0.553-0.099,1.115-0.297,1.636c-0.258,0.696-0.804,1.234-1.38,1.681c-0.505,0.405-1.196,0.835-1.543,1.391
			c-0.197,0.316-0.292,0.687-0.328,1.055c-0.076,0.746,0.076,1.841,0.127,2.595c0.069,1.033,0.087,2.089-0.102,3.111
			c-0.12,0.641-0.329,1.278-0.692,1.824c-0.534,0.814-1.369,1.406-1.928,2.199c-0.225,0.322-0.393,0.693-0.44,1.086
			c-0.043,0.351-0.007,0.709,0.055,1.056c0.248,1.271,0.896,2.759,1.195,4.018c0.215,0.876,0.331,1.806,0.114,2.693
			c-0.338,1.411-1.307,2.582-2.4,3.497c-0.979,0.813-2.099,1.463-3.285,1.923c-1.165,0.456-2.432,0.711-3.665,0.913
			c-1.939,0.307-3.993,0.617-5.856,1.235c-2.564,0.791-4.938,2.478-7.48,3.323c-0.743,0.237-1.532,0.388-2.313,0.305
			c-1.792-0.197-3.378-1.291-5.089-1.781c-1.181-0.355-2.422-0.51-3.653-0.534c-1.658-0.027-3.335,0.184-4.929,0.64
			c-2.5,0.705-4.898,2.16-6.233,4.444c-1.087,1.845-1.684,4.177-2.825,5.994c-1.1,1.865-3.093,3.23-4.749,4.566
			c-1.065,0.889-2.267,1.889-2.521,3.329c-0.327,1.8,0.573,3.616,0.265,5.416c-0.074,0.473-0.212,0.942-0.374,1.392
			c-0.653,1.697-1.573,3.569-2.162,5.289c-0.599,1.693-1.112,3.451-1.299,5.242c-0.102,1.034-0.098,2.101,0.192,3.106
			c0.412,1.48,1.568,2.699,2.54,3.844c0.404,0.491,0.81,1.009,1.018,1.617c0.154,0.451,0.189,0.934,0.176,1.408
			c-0.024,0.788-0.167,1.784-0.164,2.57c-0.006,1.753,0.507,3.512,1.26,5.084c0.288,0.578,0.621,1.147,1.056,1.627
			c0.222,0.24,0.477,0.464,0.786,0.585c0.449,0.179,0.945,0.072,1.393-0.058c0.665-0.2,1.454-0.459,2.137-0.546
			c0.999-0.145,2.021-0.16,3.026-0.078c1.249,0.117,2.568,0.348,3.646,1.023c0.378,0.242,0.704,0.571,0.909,0.972
			c0.367,0.69,0.436,1.593,0.565,2.355c0.099,0.595,0.247,1.198,0.562,1.72c0.396,0.665,0.996,1.197,1.676,1.559
			c1.04,0.556,2.277,0.705,3.427,0.461c2.375-0.524,4.474-2.284,6.722-3.137c0.542-0.194,1.132-0.343,1.708-0.235
			c0.477,0.09,0.894,0.375,1.231,0.714c0.299,0.299,0.555,0.647,0.788,0.999c0.753,1.155,1.527,2.779,2.305,3.915
			c0.735,1.1,1.665,2.084,2.769,2.818c0.684,0.452,1.441,0.815,2.245,0.99c0.775,0.171,1.607,0.149,2.347-0.155
			c0.719-0.293,1.315-0.822,1.838-1.385c1.114-1.208,2.098-2.857,3.175-4.096c0.466-0.533,0.983-1.044,1.608-1.387
			c0.973-0.543,2.167-0.627,3.253-0.768c0.83-0.11,1.687-0.289,2.383-0.78c1.495-1.088,2.325-2.956,3.707-4.162
			c0.403-0.351,0.871-0.646,1.395-0.772c1.214-0.279,2.572,0.16,3.765,0.378c0.926,0.172,1.951,0.333,2.828-0.104
			c0.546-0.279,0.954-0.764,1.29-1.266c0.969-1.486,1.579-3.46,2.412-5.02c0.307-0.573,0.654-1.142,1.123-1.598
			c0.673-0.666,1.622-0.926,2.534-1.064l1.159-0.172c0.954-0.144,1.912-0.422,2.647-1.076c0.763-0.661,1.343-1.519,1.893-2.358
			c0.802-1.231,1.694-2.813,2.708-3.869c0.627-0.667,1.388-1.18,2.292-1.378c0.596-0.14,1.217-0.167,1.827-0.144
			c1.452,0.051,3.234,0.459,4.684,0.54c0.996,0.067,2.007-0.071,2.943-0.423c1.377-0.501,2.641-1.418,3.848-2.235
			c0.053,1.46,0.158,3.032-0.253,4.449c-0.614,2.063-2.201,3.648-3.737,5.078c-0.76,0.703-2.02,1.747-2.684,2.52
			c-0.291,0.338-0.546,0.712-0.727,1.121c-0.407,0.914-0.435,1.942-0.443,2.926l0.047,3.046c-0.002,1.772-0.051,3.619-0.741,5.276
			c-0.701,1.667-2.045,2.956-3.419,4.085c-1.988,1.607-4.299,3.263-5.23,5.741c-0.745,1.93-0.578,4.133-0.964,6.139
			c-0.129,0.669-0.319,1.34-0.666,1.93c-0.694,1.178-1.911,1.913-3.096,2.527l-2.213,1.092c-1.456,0.741-2.936,1.674-3.729,3.154
			c-0.437,0.794-0.623,1.699-0.707,2.594c-0.193,2.017,0.047,4.277-0.196,6.29c-0.112,0.893-0.345,1.811-0.929,2.518
			c-0.939,1.155-2.46,1.678-3.764,2.299c-0.859,0.402-1.684,0.909-2.361,1.579c-0.642,0.628-1.143,1.392-1.507,2.21
			c-0.816,1.823-1.251,4.567-1.707,6.52c-0.323,1.435-0.748,2.875-1.344,4.222c-0.461,1.05-1.022,2.07-1.69,3.003
			c-0.526,0.738-1.279,1.564-1.693,2.376c-0.468,0.875-0.586,1.871-0.503,2.85c0.097,1.28,0.414,2.571,0.726,3.814l1.07,3.985
			c0.463,1.766,0.828,3.593,0.744,5.426c-0.051,1.545-0.289,3.256-0.055,4.79c0.286,1.993,0.993,4.022,2.306,5.575
			c0.522,0.613,1.18,1.1,1.864,1.517c0.996,0.61,2.219,1.195,3.015,2.067c0.383,0.414,0.674,0.907,0.91,1.416
			c0.562,1.209,0.919,2.833,1.281,4.12c0.421,1.573,1.088,3.103,2.114,4.378c0.834,1.093,2.054,2.016,3.135,2.858
			c0.579,0.472,1.158,0.981,1.548,1.626c0.435,0.719,0.624,1.557,0.782,2.373c0.261,1.438,0.55,3.003,1.098,4.358
			c0.266,0.656,0.591,1.305,1.066,1.836c0.643,0.727,1.552,1.136,2.449,1.457c1.291,0.726,2.564,1.532,3.697,2.49
			c1.077,0.892,2.134,2.129,3.095,3.148c1.189,1.262,2.561,2.401,4.176,3.069c1.038,0.441,2.157,0.683,3.272,0.835
			c1.861,0.255,3.929,0.286,5.812,0.318c5.685-0.029,26.752,0.1,32.026-0.065c1.137-0.052,2.337-0.118,3.46-0.299
			c1.03-0.167,2.074-0.427,2.966-0.986c1.107-0.679,1.764-1.815,2.204-3.005c0.681-1.832,1.041-3.788,1.141-5.738
			c0.215-3.861-0.801-7.678-2.135-11.27c-0.855-2.2-1.783-4.475-3.13-6.424c-0.52-0.728-1.151-1.391-1.915-1.865
			c-1.272-0.81-3.009-1.137-4.439-1.566c-1.901-0.526-3.716-1.453-5.137-2.836c-0.736-0.716-1.391-1.539-1.811-2.481
			c-0.686-1.525-0.675-3.259-0.431-4.884l0.286-1.316c0.194-0.832,0.491-1.672,1.069-2.318c0.256-0.292,0.563-0.539,0.886-0.753
			c0.917-0.604,2.299-1.18,3.29-1.67c1.508-0.739,3.041-1.679,3.861-3.199c1.101-1.995,1.287-4.578,1.848-6.755
			c0.147-0.562,0.324-1.128,0.588-1.647c0.284-0.573,0.725-1.057,1.231-1.443c0.728-0.569,1.683-1.021,2.314-1.708
			c0.695-0.739,0.873-1.789,1.022-2.756l0.228-1.696c0.154-1.023,0.359-2.078,0.912-2.968c0.995-1.563,3.026-2.304,4.605-3.136
			c0.96-0.5,1.938-1.057,2.635-1.904c0.694-0.851,1.038-1.924,1.317-2.971c0.38-1.43,0.656-3.022,1.423-4.301
			c0.385-0.649,0.925-1.194,1.516-1.657c1.285-1.015,2.975-1.775,4.325-2.698c0.673-0.461,1.309-1.023,1.674-1.766
			c0.501-0.982,0.635-2.135,1.003-3.165c0.249-0.732,0.649-1.413,1.183-1.973c1.407-1.483,3.377-2.593,4.9-3.946
			c0.594-0.526,1.161-1.106,1.571-1.79c0.663-1.093,0.865-2.437,1.131-3.669c0.163-0.721,0.365-1.461,0.802-2.07
			c0.718-0.98,2.003-1.51,3.03-2.099c0.725-0.41,1.46-0.872,1.954-1.559c0.294-0.408,0.471-0.89,0.584-1.377
			c0.21-0.883,0.245-2.124,0.315-3.036c0.083-0.962,0.186-1.988,0.739-2.81c0.479-0.694,1.229-1.137,1.959-1.529
			c1.008-0.537,2.23-1.062,3.018-1.905c0.993-1.063,1.203-2.587,1.379-3.975l0.246-2.399c0.106-0.874,0.241-1.765,0.563-2.589
			c0.18-0.46,0.433-0.893,0.729-1.288c1.014-1.363,2.6-2.349,3.383-3.888c0.517-1.024,0.705-2.189,0.877-3.312
			c0.23-1.541,0.396-3.295,1.027-4.729c1.146-2.555,3.647-4.181,5.378-6.298l1.25,1.783c0.859,1.197,1.873,2.344,3.199,3.031
			c1.005,0.537,2.143,0.768,3.268,0.884c2.911,0.285,6.256-0.042,9.176,0.081c1.198,0.052,2.415,0.162,3.572,0.489
			c1.103,0.306,2.111,0.891,3,1.604c1.102,0.861,2.175,2.071,3.404,2.756c0.65,0.368,1.393,0.545,2.135,0.587
			c1.526,0.093,3.433-0.255,4.956-0.409c1.681-0.182,3.399-0.245,5.077,0.003c2.341,0.349,4.609,1.184,6.795,2.07
			c2.471,1.009,5.827,2.592,8.317,3.544c1.401,0.53,2.853,1.018,4.333,1.267c1.159,0.196,2.352,0.209,3.519,0.08
			c1.687-0.175,3.62-0.706,5.297-0.969c1.429-0.235,2.898-0.261,4.334-0.072c2.979,0.368,6.787,1.55,9.714,2.292
			c1.989,0.5,4.065,0.955,6.105,1.162c2.088,0.215,4.253,0.196,6.35,0.096c2.804-0.132,6.932-0.571,9.68-0.288
			c0.884,0.089,1.782,0.264,2.645,0.477c1.985,0.498,4.2,1.26,6.242,1.433c4.3,0.369,9.12-0.769,13.419-0.792
			c1.085-0.009,2.188,0.091,3.259,0.268c1.51,0.245,3.338,0.711,4.861,0.833c2.036,0.173,4.09-0.179,6.05-0.718
			c0.431,1.547,1.238,3.787,1.588,5.344c0.253,1.106,0.4,2.257,0.261,3.388c-0.162,1.393-0.85,2.759-1.184,4.112
			c-0.211,0.834-0.294,1.718-0.113,2.566c0.111,0.531,0.314,1.042,0.547,1.53c0.567,1.212,1.835,3.017,2.556,4.163
			c0.85,1.359,1.667,2.796,2.001,4.379c0.568,2.687-0.686,5.518-1.487,8.039c-0.435,1.394-0.865,2.905-0.467,4.358
			c0.449,1.71,1.696,3.108,2.238,4.781c0.299,0.878,0.289,1.825,0.149,2.732c-0.178,1.225-0.616,2.665-0.79,3.891
			c-0.082,0.592-0.119,1.204-0.001,1.793c0.137,0.697,0.537,1.309,0.988,1.845c0.855,1.006,1.926,1.914,2.58,3.076
			c0.465,0.792,0.682,1.705,0.749,2.615c0.157,2.191-0.264,4.501-0.408,6.685c-0.056,0.869-0.087,1.764,0.038,2.628
			c0.083,0.573,0.25,1.144,0.57,1.631c0.557,0.878,1.53,1.477,2.345,2.092c0.815,0.602,1.562,1.328,1.904,2.304
			c0.261,0.714,0.362,1.482,0.42,2.237c0.128,1.837-0.027,3.852,0.045,5.691c0.062,1.187,0.157,2.464,0.812,3.491
			c0.486,0.755,1.248,1.275,2.016,1.714c0.952,0.547,2.102,1.076,2.792,1.956c0.488,0.61,0.802,1.344,1.018,2.09
			c0.444,1.513,0.506,3.272,0.602,4.844c0.063,0.912,0.189,1.851,0.626,2.668c0.501,0.943,1.343,1.652,2.151,2.326
			c0.647,0.532,1.659,1.291,2.251,1.862c0.393,0.372,0.746,0.797,0.983,1.286c0.535,1.096,0.586,2.74,0.794,3.947
			c0.152,0.976,0.334,1.972,0.722,2.886c0.251,0.592,0.62,1.132,1.003,1.646l3.143,4.017c0.448,0.592,1.994,3.187,2.418,3.856
			c0.748,1.161,1.52,2.353,2.447,3.379c0.715,0.799,1.58,1.447,2.62,1.747c1.15,0.341,2.379,0.371,3.571,0.402
			c0,0,0.747,0.01,0.747,0.01s39.91-0.002,39.91-0.002c0.207-0.01,1.145-0.013,1.363-0.028c0.834-0.032,1.699-0.091,2.516-0.272
			c1.417-0.307,2.778-0.961,3.817-1.985c0.906-0.88,1.539-2.005,2.007-3.169c0.606-1.519,0.961-3.141,1.139-4.764
			c0.295-2.673,0.142-5.713,0.241-8.405c0.007-0.996-0.059-2.009-0.283-2.981c-0.468-1.971-1.349-3.837-2.275-5.63
			c-0.438-0.811-0.874-1.655-1.474-2.359c-0.326-0.382-0.711-0.715-1.13-0.991c-0.643-0.426-1.372-0.744-2.084-1.037
			c-2.167-0.901-4.87-1.642-6.877-2.875c-1.402-0.862-2.515-2.133-3.409-3.501c-0.814-1.273-1.304-2.733-1.583-4.211
			c-0.671-1.527-1.337-3.152-1.105-4.854c0.174-1.384,0.712-2.812,0.896-4.195c0.133-0.909,0.086-1.824-0.213-2.696
			c-0.592-1.854-1.971-3.521-2.233-5.476c-0.072-0.597-0.032-1.208,0.041-1.804c0.149-1.175,0.434-2.531,0.255-3.712
			c-0.215-1.468-1.078-2.871-1.718-4.19c-0.569-1.174-1.138-2.461-0.74-3.779c0.439-1.552,1.631-2.865,1.772-4.509
			c0.111-1.54-0.646-3.164-1.077-4.614c-0.25-0.827-0.471-1.694-0.394-2.564c0.096-1.095,0.659-2.139,1.092-3.133
			c0.338-0.774,0.626-1.604,0.588-2.461c-0.044-0.988-0.411-1.933-0.792-2.834c-0.446-1.044-1.088-2.299-1.445-3.366
			c-0.188-0.554-0.332-1.131-0.366-1.717c-0.119-1.733,0.665-3.516,1.082-5.168c0.454-1.763,0.544-3.622,0.331-5.428
			c-0.143-1.194-0.442-2.382-0.967-3.468c-0.443-0.976-1.119-1.98-1.126-3.086c0.018-1.069,0.601-2.121,0.957-3.108
			c0.247-0.651,0.459-1.329,0.524-2.025c0.114-1.158-0.213-2.53-0.394-3.673c-0.153-0.972-0.255-1.992,0.017-2.953
			c0.19-0.673,0.569-1.279,0.995-1.828c0.676-0.883,1.853-1.983,2.629-2.785c1.001-1.031,1.939-2.136,2.302-3.559
			c0.33-1.189,0.37-2.645,0.528-3.868c0.118-0.926,0.32-1.855,0.696-2.713c1.197-2.661,3.604-5.008,5.25-7.388
			c0.737-1.053,1.419-2.178,1.791-3.416c0.273-0.908,0.339-1.869,0.342-2.812l-0.018-1.782c0-1.181,0.099-2.461,0.851-3.427
			c0.508-0.657,1.204-1.144,1.904-1.577c1.93-1.19,4.339-2.075,5.994-3.662c0.52-0.502,0.944-1.11,1.193-1.791
			c0.586-1.556,0.47-3.485,0.504-5.128c0.024-0.876,0.062-1.782,0.37-2.611c0.176-0.48,0.482-0.905,0.864-1.244
			c0.946-0.841,2.251-1.31,3.305-1.993c0.587-0.376,1.139-0.847,1.475-1.468c0.315-0.576,0.467-1.228,0.566-1.873
			c0.226-1.461,0.159-3.183,0.527-4.621c0.141-0.542,0.369-1.075,0.749-1.494c0.85-0.941,2.171-1.359,3.268-1.931
			c0.642-0.329,1.277-0.72,1.734-1.289c0.815-1.043,0.996-2.442,1.162-3.718c0.237-1.98,0.291-4.218,1.164-6.04
			c0.612-1.307,1.829-2.624,2.741-3.739c0.74-0.914,1.435-1.921,1.702-3.083c0.174-0.745,0.169-1.523,0.096-2.281
			c-0.141-1.528-0.715-3.595-1.062-5.103c-0.257-1.202-0.539-2.46-0.327-3.69c0.144-0.852,0.652-1.739,1.035-2.507
			c0.248-0.505,0.464-1.034,0.575-1.586c0.109-0.527,0.123-1.072,0.065-1.606c-0.166-1.434-0.66-2.831-1.135-4.187
			c-0.813-2.312-2.09-5.281-2.472-7.687c-0.117-0.736-0.143-1.492-0.029-2.23c0.123-0.824,0.423-1.615,0.818-2.346
			c0.745-1.39,1.899-2.725,2.433-4.223c0.942-2.654,0.696-5.556,0.333-8.297c-0.192-1.589-0.728-3.806-0.694-5.409
			c0.584-0.871,1.321-1.638,2.121-2.313c1.149-0.988,2.511-1.889,3.562-2.984c0.612-0.641,1.134-1.411,1.308-2.292
			c0.121-0.596,0.102-1.214,0.026-1.815c-0.167-1.399-0.842-3.356-1.233-4.723c-0.361-1.29-0.716-2.637-0.584-3.988
			c0.111-1.135,0.583-2.202,1.153-3.178c1.945,0.677,3.979,1.186,6.006,1.541c0.632,0.1,1.288,0.229,1.93,0.203
			c0.28-0.013,0.559-0.065,0.829-0.141c0.723-0.195,2.531-0.986,3.252-1.262c1.026-0.395,2.086-0.786,3.172-0.975
			c0.486-0.078,0.994-0.124,1.477-0.008c0.711,0.162,1.232,0.781,1.724,1.276c0.275,0.273,0.576,0.53,0.922,0.709
			c0.376,0.195,0.794,0.3,1.211,0.36c1.044,0.142,2.112,0.041,3.149-0.119c1.641-0.266,3.267-0.727,4.832-1.286l2.525-0.935
			c0.934-0.333,1.898-0.626,2.882-0.756c1.157-0.151,2.516-0.073,3.689-0.033c1.154,0.029,2.346,0.037,3.457-0.316
			c1.113-0.353,2.078-1.058,2.922-1.848c1.089-1.021,2.146-2.318,3.116-3.459c2.097-2.514,4.218-5.211,6.041-7.929
			c1.378-2.044,2.714-4.44,4.408-6.24c2.985-3.222,7.657-4.199,11.046-6.869c0.954-0.755,1.796-1.676,2.359-2.76
			c0.851-1.618,1.123-3.851,1.516-5.62c0.313-1.447,0.728-2.899,1.45-4.199c1.412-2.512,3.829-4.445,5.947-6.347
			c1.069-0.972,2.206-1.96,2.95-3.214c0.338-0.57,0.582-1.196,0.749-1.836C632.58,272.663,632.882,270.149,633.07,269.012z"/>
	</g>
</g>
</svg>
