<?xml version="1.0" encoding="utf-8"?>
<!-- Generator: Adobe Illustrator 25.4.1, SVG Export Plug-In . SVG Version: 6.00 Build 0)  -->
<!DOCTYPE svg PUBLIC "-//W3C//DTD SVG 1.1//EN" "http://www.w3.org/Graphics/SVG/1.1/DTD/svg11.dtd" [
	<!ENTITY ns_extend "http://ns.adobe.com/Extensibility/1.0/">
	<!ENTITY ns_ai "http://ns.adobe.com/AdobeIllustrator/10.0/">
	<!ENTITY ns_graphs "http://ns.adobe.com/Graphs/1.0/">
	<!ENTITY ns_vars "http://ns.adobe.com/Variables/1.0/">
	<!ENTITY ns_imrep "http://ns.adobe.com/ImageReplacement/1.0/">
	<!ENTITY ns_sfw "http://ns.adobe.com/SaveForWeb/1.0/">
	<!ENTITY ns_custom "http://ns.adobe.com/GenericCustomNamespace/1.0/">
	<!ENTITY ns_adobe_xpath "http://ns.adobe.com/XPath/1.0/">
]>
<svg version="1.1" xmlns:x="&ns_extend;" xmlns:i="&ns_ai;" xmlns:graph="&ns_graphs;"
	 xmlns="http://www.w3.org/2000/svg" xmlns:xlink="http://www.w3.org/1999/xlink" x="0px" y="0px" width="750px" height="750px"
	 viewBox="0 0 750 750" enable-background="new 0 0 750 750" xml:space="preserve">
<metadata>
	<sfw  xmlns="&ns_sfw;">
		<slices></slices>
		<sliceSourceBounds  bottomLeftOrigin="true" height="10319.275" width="5527" x="-2000" y="-1314"></sliceSourceBounds>
	</sfw>
</metadata>
<g id="FILL-BACKGROUND">
	<rect fill="#FFFFFF" width="750" height="750"/>
</g>
<g id="N-DIMENSIONS">
</g>
<g id="N-TEXT">
</g>
<g id="_x32_D_x24_AG-DIAGRAM">
	<g id="POLYLINE_00000123413901818423416930000000752086575794173581_">
		<g>
			<g>
				
					<line fill="none" stroke="#FB8604" stroke-width="3.25" stroke-linecap="round" stroke-linejoin="round" x1="116.011" y1="614.223" x2="118.011" y2="614.223"/>
				
					<line fill="none" stroke="#FB8604" stroke-width="3.25" stroke-linecap="round" stroke-linejoin="round" stroke-dasharray="3.9832,6.9706" x1="124.981" y1="614.223" x2="526.789" y2="614.223"/>
				
					<line fill="none" stroke="#FB8604" stroke-width="3.25" stroke-linecap="round" stroke-linejoin="round" x1="530.274" y1="614.223" x2="532.274" y2="614.223"/>
			</g>
		</g>
	</g>
</g>
<g id="_x32_D_x24_AG-DETAILS-DIAGRAM">
</g>
<g id="_x32_D_x24_AG-DETAILS">
	<g id="POLYLINE_00000070818821611124620120000016520106226363707303_">
		<path fill="none" stroke="#FB8604" stroke-width="2" stroke-linecap="round" stroke-linejoin="round" stroke-miterlimit="10" d="
			M565.325,274.704c-1.096-0.944-2.132-2.044-2.657-3.414c-0.488-1.25-0.46-2.652-0.117-3.935c0.442-1.652,1.42-3.169,2.784-4.207
			c0.752-0.573,1.617-0.993,2.493-1.342c1.76-0.702,4.23-1.31,5.985-2.024c0.959-0.388,1.903-0.859,2.719-1.501
			c0.55-0.43,1.031-0.949,1.441-1.512c1.616-2.239,2.367-5.108,3.712-7.499c0.613-1.104,1.387-2.144,2.398-2.914
			c2.186-1.675,5.191-2.448,7.658-3.601c1.608-0.736,3.177-1.686,4.293-3.085c0.815-1.015,1.4-2.201,1.869-3.41
			c0.939-2.365,1.673-6.1,2.283-8.582c0.415-1.635,0.866-3.308,1.67-4.8c0.541-0.998,1.266-1.898,2.109-2.657
			c1.4-1.276,3.237-2.241,4.843-3.233"/>
	</g>
</g>
<g id="_x32_D_x24_AG-ANIMALS">
	<g id="POLYLINE_00000127019243326509262740000014081625643860394938_">
		
			<path fill="none" stroke="#FB8604" stroke-width="2.75" stroke-linecap="round" stroke-linejoin="round" stroke-miterlimit="10" d="
			M644.819,245.137c-2.276,5.468-5.49,10.839-8.516,15.933c-0.907,1.505-1.871,3.165-2.999,4.508
			c-0.959,1.157-2.119,2.155-3.42,2.909c-1.535,0.9-3.247,1.491-4.958,1.96c-3.123,0.847-6.509,1.367-9.714,1.83
			c-6.187,0.863-16.095,1.814-22.057,3.298c-2.876,0.672-5.967,2.034-8.683,3.211c-1.137,0.467-2.318,0.889-3.533,1.1
			c-0.974,0.174-1.979,0.202-2.964,0.117c-2.047-0.18-4.048-0.762-5.951-1.521c-2.375-0.961-4.656-2.23-6.7-3.778"/>
	</g>
	<g id="POLYLINE_00000000213115861549524660000011995326741792311967_">
		
			<path fill="none" stroke="#FB8604" stroke-width="2.75" stroke-linecap="round" stroke-linejoin="round" stroke-miterlimit="10" d="
			M565.403,198.007c-0.881,1.678-1.802,3.435-2.455,5.209c-0.546,1.47-0.932,3.02-1.129,4.576c-0.263,2.074-0.27,4.216-0.206,6.303
			c0.232,6.247,1.195,14.203,1.314,20.448c0.078,3.898-0.002,7.886-0.741,11.723c-0.632,3.241-1.829,6.58-4.377,8.808
			c-1.333,1.177-3.031,1.95-4.809,2.099c-1.822,0.165-3.641-0.306-5.316-0.992c-2.672-1.111-5.107-2.768-7.394-4.524
			c-5.163-4.022-9.846-8.851-14.219-13.712c-4.17-4.867-9.853-10.831-13.514-16.038c-0.914-1.326-1.79-2.727-2.449-4.2
			c-0.522-1.182-0.937-2.449-0.941-3.753c-0.003-0.79,0.186-1.577,0.523-2.29c0.466-0.991,1.181-1.847,1.946-2.623
			c1.321-1.365,3.24-2.787,4.657-4.061c0.991-0.87,1.964-1.85,2.859-2.817l4.304-4.809c1.87-2.031,3.904-3.962,6.207-5.497
			c4.721-3.123,10.226-4.915,15.746-6.012c5.398-1.052,10.975-1.327,16.451-0.821c4.202,0.372,8.472,1.183,12.588,2.102
			c3.13,0.724,6.883,1.582,9.95,2.496c4.937,1.484,9.96,3.442,13.737,7.066c2.669,2.554,4.328,5.951,5.682,9.34
			c1.132,2.817,2.221,6.344,3.655,9.017c0.515,0.939,1.154,1.824,1.932,2.564c0.764,0.733,1.661,1.325,2.599,1.811
			c1.625,0.842,3.607,1.532,5.312,2.199c6.692,2.545,13.883,4.869,20.777,6.829c1.683,0.527,3.398,1.1,4.956,1.933"/>
	</g>
	<g id="POLYLINE_00000119102192631854812980000013719644966145493132_">
		
			<path fill="none" stroke="#FB8604" stroke-width="2.75" stroke-linecap="round" stroke-linejoin="round" stroke-miterlimit="10" d="
			M644.819,245.137c-0.821,0.597-1.877,0.827-2.877,0.686c-0.907-0.121-1.765-0.513-2.496-1.057
			c-0.979-0.726-1.725-1.726-2.323-2.778c-0.81-1.444-1.374-3.028-1.708-4.647c-0.193-0.967-0.311-1.965-0.253-2.952
			c0.043-0.691,0.189-1.391,0.532-1.998c0.596-1.084,1.784-1.656,2.942-1.942c1.671-0.403,3.496-0.385,5.14,0.131
			c1.604,0.504,3.066,1.621,3.74,3.189c0.562,1.284,0.603,2.729,0.476,4.106c-0.161,1.615-0.547,3.223-1.227,4.7
			C646.306,243.548,645.701,244.497,644.819,245.137z"/>
	</g>
	<g id="POLYLINE_00000034083780031921689830000008672697182829797304_">
		
			<path fill="none" stroke="#FB8604" stroke-width="2.75" stroke-linecap="round" stroke-linejoin="round" stroke-miterlimit="10" d="
			M150.188,505.166c-1.885,2.039-4.225,4.611-6.005,6.717c-1.004,1.23-2.046,2.483-2.814,3.875c-0.43,0.775-0.81,1.589-1.036,2.449
			c-0.236,0.876-0.329,1.793-0.353,2.698c-0.028,1.181,0.056,2.399,0.172,3.574c0.879,7.413,2.534,16.926,3.134,24.339
			c1.32,14.945,2.082,34.215,4.621,48.903c0.385,2.25,0.82,4.58,1.462,6.772c0.818,2.77,2.041,5.609,4.366,7.44
			c0.738,0.581,1.576,1.04,2.459,1.361c1.035,0.38,2.138,0.578,3.231,0.702c2.535,0.402,22.241,0.155,25.238,0.227
			c3.42-0.043,8.3,0.081,11.665-0.317c0.688-0.093,1.396-0.198,2.047-0.446c0.426-0.162,0.833-0.408,1.114-0.774
			c0.416-0.542,0.53-1.244,0.586-1.908c0.131-2.227-0.118-4.498-0.464-6.698c-0.386-2.299-0.973-4.619-2.189-6.63
			c-0.736-1.249-1.722-2.362-2.714-3.413c-0.785-0.842-1.705-1.577-2.777-2.014c-0.719-0.305-1.489-0.502-2.255-0.648
			c-3.216-0.608-7.037-0.614-10.187-1.542c-1.812-0.532-3.545-1.425-4.93-2.719c-0.438-0.416-0.816-0.901-1.091-1.44
			c-0.34-0.66-0.538-1.388-0.662-2.117c-0.277-1.702-0.229-3.553-0.215-5.276c0.357-10.694,0.055-24.148,2.625-34.521
			c2.401-10.131,6.887-19.808,12.997-28.236c1.018-1.384,2.13-2.782,3.27-4.068c1.7-1.946,5.409-5.557,7.189-7.401
			c4.851-4.998,10.364-11.332,14.9-16.658"/>
	</g>
	<g id="POLYLINE_00000171700674645816198300000002807572260632951451_">
		
			<path fill="none" stroke="#FB8604" stroke-width="2.75" stroke-linecap="round" stroke-linejoin="round" stroke-miterlimit="10" d="
			M146.064,460.068l1.461-1.943c0.926-1.257,1.797-2.59,2.391-4.038c0.547-1.307,0.863-2.711,0.999-4.12
			c0.156-1.569,0.138-3.198,0.066-4.773c-0.2-4.23-1.101-10.53-1.404-14.764c-0.589-6.885,0.39-14.614,1.006-21.501
			c0.445-5.589,0.611-11.653,0.555-17.26c0.011-4.074-0.637-16.118-0.827-20.358c-0.158-4.867-0.138-9.84,0.608-14.66
			c0.646-4.256,1.904-8.442,3.643-12.377c2.082-4.825,5.688-10.462,8.05-15.167c0.383-0.794,0.772-1.631,1.026-2.476
			c0.103-0.357,0.192-0.729,0.184-1.102l-0.001-0.031l-0.002-0.03l-0.002-0.03l-0.003-0.029l-0.003-0.029l-0.004-0.028l-0.004-0.028
			l-0.005-0.027l-0.006-0.027l-0.006-0.026l-0.007-0.026l-0.007-0.025l-0.008-0.024c-0.096-0.308-0.37-0.508-0.636-0.664
			c-0.326-0.192-0.693-0.387-0.885-0.728l-0.011-0.019l-0.01-0.019c-0.215-0.418-0.222-0.907-0.185-1.366
			c0.102-1.046,0.47-2.055,0.897-3.009c1.048-2.276,2.568-4.328,4.343-6.089c3.821-3.726,9.024-6.293,13.652-8.886
			c2.036-1.166,4.211-2.331,5.925-3.952c0.668-0.643,1.201-1.421,1.608-2.253c0.344-0.697,0.731-1.666,1.138-2.328
			c0.26-0.428,0.575-0.828,0.941-1.171c0.718-0.668,1.589-1.156,2.465-1.584c1.713-0.822,3.609-1.436,5.42-2.01
			c2.664-0.805,8.22-2.41,10.744-3.291c1.878-0.64,3.958-1.459,5.797-2.223c5.527-2.33,12.519-5.628,18.3-7.036
			c6.67-1.757,14.079-1.498,20.938-1.442c1.416,0.002,2.998,0,4.407-0.123c0.973-0.079,1.948-0.263,2.871-0.587
			c1.01-0.363,2.134-0.786,3.199-0.888c1.867-0.192,3.782,0.03,5.638,0.248c4.804,0.628,9.892,1.764,14.616,2.869
			c3.567,0.855,10.219,2.667,13.775,3.223c1.622,0.269,3.416,0.462,5.056,0.593c5.408,0.381,14.619,0.761,19.951,1.351
			c8.645,0.784,26.32,4.379,35.033,5.899c6.36,1.068,13.059,2.021,19.493,2.392c5.661,0.325,11.439,0.235,17.088-0.251
			c9.205-0.817,18.444-2.567,27.023-6.078c4.289-1.79,10.934-4.645,15.283-6.03c6.296-2.104,12.854-3.921,19.344-5.316
			c3.092-0.678,7.511-1.374,10.662-1.894c1.498-0.271,3.048-0.57,4.493-1.049c0.853-0.286,1.698-0.644,2.441-1.157
			c1.07-0.729,1.871-1.784,2.592-2.844c1.095-1.661,2.365-3.548,3.616-5.077c1.641-2.087,4.438-5.268,5.774-7.517
			c0.284-0.505,0.584-1.041,0.649-1.625l0.002-0.025l0.001-0.025l0.001-0.025l0-0.024l0-0.024l-0.001-0.024l-0.001-0.023
			l-0.002-0.023l-0.002-0.023l-0.003-0.022l-0.003-0.022l-0.004-0.022l-0.004-0.021l-0.005-0.021l-0.005-0.021l-0.006-0.02
			l-0.006-0.02l-0.007-0.019c-0.177-0.464-0.775-0.616-1.16-0.863c-0.155-0.097-0.308-0.221-0.372-0.398l-0.006-0.017l-0.005-0.017
			l-0.005-0.017l-0.004-0.017l-0.004-0.018l-0.003-0.018l-0.003-0.018l-0.002-0.018l-0.002-0.019l-0.001-0.019l-0.001-0.019l0-0.02
			l0-0.02l0.001-0.02l0.001-0.02l0.002-0.021l0.002-0.021l0.002-0.021l0.003-0.021l0.003-0.022l0.004-0.022
			c0.064-0.329,0.227-0.631,0.395-0.917c1.113-1.794,3.818-4.568,5.205-6.2c0.892-1.033,1.81-2.15,2.574-3.279
			c0.803-1.177,1.517-2.452,2.144-3.73l1.87-3.963c1.236-2.578,2.855-4.997,4.584-7.268c2.291-2.997,4.874-5.9,7.512-8.595"/>
	</g>
	<g id="POLYLINE_00000128453982282362898500000009561233596788279227_">
		
			<path fill="none" stroke="#FB8604" stroke-width="2.75" stroke-linecap="round" stroke-linejoin="round" stroke-miterlimit="10" d="
			M189.348,446.488c-0.024,4.42-0.321,8.911-1.181,13.251c-0.994,5.105-2.717,10.099-4.837,14.843
			c-3.851,8.498-9.141,16.569-16.395,22.539c-5.327,4.415-11.875,7.267-18.681,8.424c-5.111,0.865-10.446,0.866-15.48-0.451
			c-2.879-0.763-5.675-2-8-3.883c-4.26-3.423-6.732-8.623-7.803-13.898c-1.1-5.56-1.092-11.786,2.179-16.647
			c2.014-3.021,4.993-5.289,8.187-6.952c4.929-2.558,10.513-3.704,16.045-3.71c4.195-0.006,8.436,0.507,12.48,1.634
			c1.697,0.498,3.42,1.062,4.928,2.004c0.912,0.575,1.706,1.347,2.255,2.278c1.077,1.834,1.342,4.011,1.494,6.096
			c0.141,2.601,0.073,5.265-0.487,7.817c-0.112,0.465-0.243,0.934-0.434,1.373c-0.115,0.261-0.249,0.519-0.439,0.734l-0.018,0.02
			l-0.018,0.02l-0.019,0.019l-0.019,0.018l-0.019,0.018l-0.019,0.017l-0.019,0.017l-0.019,0.016l-0.019,0.015l-0.019,0.015
			l-0.019,0.014l-0.02,0.013l-0.02,0.013l-0.02,0.012l-0.02,0.011l-0.02,0.011l-0.02,0.01l-0.02,0.009l-0.02,0.008l-0.02,0.008
			l-0.021,0.007l-0.021,0.006l-0.021,0.006l-0.021,0.005l-0.021,0.004l-0.021,0.003l-0.012,0.002l-0.012,0.001l-0.012,0.001
			l-0.012,0.001l-0.012,0.001l-0.012,0l-0.012,0l-0.012,0l-0.012,0l-0.012,0c-0.144-0.006-0.283-0.055-0.412-0.117
			c-0.517-0.263-1.029-0.797-1.468-1.176c-0.329-0.287-0.672-0.58-1.07-0.769c-0.198-0.092-0.416-0.155-0.636-0.141l-0.02,0.001
			l-0.02,0.002l-0.02,0.002l-0.02,0.003l-0.02,0.003l-0.02,0.003l-0.02,0.004l-0.02,0.004l-0.02,0.005l-0.02,0.005l-0.02,0.005
			l-0.02,0.006c-0.264,0.08-0.493,0.246-0.695,0.429c-0.95,0.907-1.693,2.364-2.458,3.426c-0.465,0.646-0.962,1.322-1.668,1.72
			c-0.32,0.175-0.687,0.257-1.051,0.257c-1.295-0.018-2.485-0.779-3.74-1.007c-0.405-0.078-0.826-0.085-1.232-0.003
			c-0.671,0.13-1.293,0.445-1.885,0.776c-1.038,0.588-2.187,1.355-3.363,1.606c-2.138,0.457-4.329-0.183-6.327-0.93"/>
	</g>
	<g id="POLYLINE_00000083792646245379644390000003217291931069214131_">
		
			<path fill="none" stroke="#FB8604" stroke-width="2.75" stroke-linecap="round" stroke-linejoin="round" stroke-miterlimit="10" d="
			M298.38,411.717c2.862,3.178,5.901,6.458,9.703,8.508c2.05,1.127,4.337,1.892,6.57,2.574c4.152,1.217,9.137,2.534,13.066,4.279
			c2.545,1.096,5.02,2.523,7.369,3.99c2.128,1.304,6.633,4.442,8.855,5.421c0.386,0.162,0.79,0.318,1.211,0.35l0.029,0.002
			l0.029,0.001l0.028,0l0.028,0l0.027-0.001l0.027-0.001l0.027-0.002l0.026-0.002l0.026-0.003l0.025-0.004l0.025-0.004l0.024-0.005
			l0.024-0.005l0.023-0.006l0.023-0.007l0.022-0.007l0.022-0.008l0.021-0.009l0.021-0.009l0.02-0.01l0.02-0.01
			c0.212-0.117,0.331-0.342,0.429-0.554c0.139-0.304,0.265-0.67,0.509-0.907c0.115-0.114,0.261-0.195,0.418-0.234l0.033-0.008
			l0.034-0.007l0.035-0.006l0.036-0.005l0.037-0.004l0.038-0.003l0.039-0.002l0.04-0.002l0.04-0.001l0.041,0l0.042,0.001
			l0.043,0.002l0.044,0.003c0.375,0.029,0.747,0.13,1.105,0.243c0.713,0.231,1.428,0.552,2.106,0.873
			c4.57,2.235,9.458,5.458,14.057,7.633c1.1,0.508,2.238,1.006,3.42,1.285c0.707,0.163,1.45,0.22,2.166,0.081
			c0.81-0.138,1.658-0.622,2.394-0.974c0.443-0.21,0.906-0.394,1.383-0.509c0.909-0.22,1.861-0.257,2.793-0.236
			c3.11,0.108,6.27,0.812,9.304,1.469c14.409,3.319,31.383,7.659,46.039,8.985c2.756,0.229,5.695,0.314,8.459,0.221
			c2.985-0.081,6.803-0.471,9.785-0.752"/>
	</g>
	<g id="POLYLINE_00000141416148593349321320000010288729722865198257_">
		
			<path fill="none" stroke="#FB8604" stroke-width="2.75" stroke-linecap="round" stroke-linejoin="round" stroke-miterlimit="10" d="
			M264.928,503.728c2.477-5.799,9.494-22.994,12.123-28.361c1.646-3.387,4.31-8.634,5.74-12.048
			c0.799-1.891,1.558-3.896,2.156-5.859c0.751-2.45,1.331-5.08,1.816-7.597l1.801-10.125c1.025-5.51,2.79-10.935,4.939-16.106
			c1.851-4.444,4.725-10.446,5.786-15.08c0.577-2.388,0.816-4.87,0.752-7.325c-0.194-8.307-3.638-16.699-6.042-24.563
			c-0.775-2.497-1.472-5.131-1.941-7.703c-0.738-4.116-1.439-9.664-2.701-13.632c-1.031-3.432-2.421-6.792-4.338-9.828
			c-2.1-3.328-4.815-6.255-7.833-8.769"/>
	</g>
	<g id="POLYLINE_00000055694990224839301560000003196243358422536586_">
		
			<path fill="none" stroke="#FB8604" stroke-width="2.75" stroke-linecap="round" stroke-linejoin="round" stroke-miterlimit="10" d="
			M179.247,340.025c-1.349,3.323-2.764,7.001-3.645,10.458c-1.711,6.641-2.891,13.625-3.712,20.434
			c-0.435,4.072-0.824,8.257-0.465,12.347c0.083,0.813,0.205,1.638,0.425,2.426c0.139,0.489,0.316,0.976,0.584,1.411
			c0.322,0.534,0.822,0.939,1.38,1.208c0.847,0.413,1.857,0.662,2.485,1.412c0.389,0.448,0.617,1.012,0.795,1.571
			c0.401,1.318,0.553,2.721,0.691,4.087l0.376,4.579c0.097,0.969,0.204,1.978,0.442,2.923c0.098,0.376,0.219,0.754,0.415,1.092
			c0.302,0.542,0.798,0.862,1.296,1.202c0.281,0.198,0.548,0.424,0.76,0.695c0.225,0.284,0.394,0.61,0.526,0.946
			c0.508,1.357,0.687,2.843,0.874,4.274c0.461,3.864,0.717,9.801,1.258,13.654c0.175,1.231,0.39,2.491,0.738,3.687
			c0.201,0.678,0.45,1.356,0.829,1.957c0.318,0.511,0.735,0.958,1.191,1.35c0.458,0.408,1.053,0.819,1.344,1.368
			c0.195,0.35,0.265,0.755,0.27,1.151c0.008,0.559-0.077,1.125-0.175,1.674c-0.391,2.164-1.231,4.691-1.231,6.899
			c0.007,0.608,0.082,1.233,0.346,1.787c0.559,1.155,1.827,1.694,2.959,2.134c1.468,0.559,3.254,1.058,4.465,2.089
			c0.632,0.529,1.09,1.238,1.417,1.989c0.491,1.128,0.743,2.359,0.958,3.566l0.514,3.165c0.301,1.665,0.66,3.385,1.574,4.835
			c0.855,1.349,2.142,2.355,3.433,3.264c1.645,1.156,3.482,2.292,4.7,3.923c0.553,0.733,0.96,1.57,1.273,2.43
			c0.857,2.301,1.212,5.627,1.629,8.056c0.289,1.609,0.613,3.267,1.401,4.716c0.613,1.125,1.513,2.071,2.51,2.865
			c1.109,0.894,2.479,1.707,3.55,2.646c0.689,0.6,1.316,1.287,1.799,2.065c0.485,0.773,0.824,1.635,1.034,2.521
			c0.3,1.266,0.381,2.588,0.39,3.887c0.012,2.244-0.237,4.691-0.473,6.928c-1.089,9.784-3.587,25.986-3.629,35.649
			c-0.004,2.397,0.142,4.834,0.572,7.195c0.382,2.123,1.02,4.231,1.865,6.215c1.457,3.548,4.897,9.241,6.768,12.653
			c1.586,2.906,3.023,6.055,4.279,9.117l5.234,13.403c1.428,3.437,5.183,12.26,6.743,15.588c0.933,1.933,1.904,3.91,3.144,5.666
			c0.482,0.666,1.018,1.317,1.684,1.807c0.465,0.344,1.002,0.585,1.549,0.767c0.721,0.239,1.49,0.331,2.245,0.384
			c1.081,0.142,34.064,0.066,35.661,0.074c0.609-0.019,1.234-0.058,1.816-0.248c0.36-0.117,0.701-0.3,0.983-0.553
			c0.292-0.258,0.52-0.583,0.699-0.928c0.323-0.626,0.52-1.312,0.66-2c0.202-1.017,0.279-2.07,0.249-3.105
			c-0.041-2.167-0.779-4.206-1.698-6.143c-0.884-1.869-1.843-3.761-3.052-5.442c-0.7-0.965-1.521-1.889-2.585-2.459
			c-0.53-0.29-1.108-0.494-1.693-0.641c-0.769-0.2-2.402-0.449-3.208-0.593c-1.38-0.249-2.917-0.565-4.282-0.889
			c-1.582-0.398-3.233-0.783-4.659-1.599c-0.685-0.396-1.282-0.94-1.746-1.58c-0.848-1.18-1.518-2.574-2.201-3.856
			c-3.434-6.538-5.841-13.631-7.138-20.9c-0.738-4.056-1.083-8.241-1.037-12.364c-0.035-5.416,1.559-18.504,2.034-24.013
			c0.35-3.696,0.823-7.673,1.649-11.295c0.894-4.047,2.212-8.067,3.841-11.878"/>
	</g>
	<g id="POLYLINE_00000145027350052761278620000016714970016008916668_">
		
			<path fill="none" stroke="#FB8604" stroke-width="2.75" stroke-linecap="round" stroke-linejoin="round" stroke-miterlimit="10" d="
			M458.46,369.642c-0.118,5.229-0.527,11.405-0.964,16.644c-0.697,7.62-1.563,17.363-2.734,24.853
			c-0.819,5.221-1.82,10.579-3.444,15.612c-0.936,3.029-2.618,6.456-3.975,9.337c-0.316,0.723-0.647,1.467-0.793,2.246
			c-0.052,0.305-0.074,0.628,0.024,0.926l0.006,0.018l0.007,0.018c0.079,0.214,0.231,0.391,0.402,0.538
			c0.434,0.364,0.987,0.64,1.403,1.026c0.461,0.402,0.787,0.934,1.008,1.5c0.307,0.775,0.479,1.611,0.612,2.433
			c0.593,4.08,0.437,9.14,0.725,13.26c0.174,2.829,0.6,5.679,1.225,8.443c1.385,5.901,3.514,12.363,4.671,18.309
			c1.4,6.81,2.163,13.826,2.025,20.782c-0.089,5.642-0.88,11.338-2.083,16.845c-1.222,5.924-3.583,13.924-4.654,19.874
			c-0.16,0.977-0.298,2.009-0.311,3.001c-0.003,0.56,0.026,1.138,0.19,1.677l0.016,0.049l0.016,0.048
			c0.109,0.316,0.287,0.606,0.513,0.852c0.36,0.396,0.849,0.702,1.209,1.099c0.428,0.456,0.614,1.02,0.691,1.629
			c0.099,0.768,0.067,1.56,0.015,2.331c-0.282,3.518-1.139,7.347-1.252,10.876c-0.063,1.65,0.115,3.33,0.704,4.88
			c0.827,2.243,2.422,4.248,3.491,6.372c2.214,4.37,3.606,10.02,4.987,14.727c0.34,4.139,0.892,8.333,1.895,12.367
			c0.631,2.484,1.428,4.976,2.62,7.251c0.755,1.398,1.644,2.82,2.992,3.715c0.852,0.565,1.866,0.822,2.873,0.929
			c1.015,0.231,32.137,0.066,33.629,0.109c0.567-0.011,1.154-0.024,1.71-0.147c0.447-0.097,0.88-0.296,1.208-0.62
			c0.621-0.62,0.909-1.498,1.158-2.319c0.564-2.019,0.78-4.137,0.825-6.228c0.04-2.471-0.234-4.977-0.971-7.342
			c-0.456-1.45-1.091-2.864-1.997-4.091c-0.767-1.043-1.763-1.912-2.876-2.57c-1.295-0.771-2.737-1.28-4.188-1.67l-2.471-0.612
			c-0.97-0.254-1.945-0.575-2.794-1.12c-0.618-0.393-1.161-0.901-1.605-1.482c-0.97-1.281-1.558-2.813-2.031-4.336
			c-0.858-2.856-1.288-5.878-1.6-8.839c-0.436-4.316-0.599-8.93-0.622-13.271c-0.026-5.277,0.22-10.676,1.165-15.874
			c0.737-4.36,2.798-12.315,3.826-16.685c1.233-4.968,2.713-13.474,3.639-18.565c0.635-3.358,1.404-7.016,2.334-10.304
			c1.027-3.871,4.576-14.26,5.81-18.135c3.277-10.242,6.246-23.059,9.09-33.478c0.832-2.84,1.827-5.72,3.014-8.43
			c2.465-5.632,5.711-11.13,8.929-16.364c5.677-9.12,13.372-20.747,18.097-30.28c1.064-2.169,2.11-4.462,2.89-6.749
			c0.544-1.592,0.953-3.25,1.105-4.929c0.139-1.46,0.069-2.945-0.135-4.395c-0.142-1.093-0.476-2.703-0.434-3.79
			c0.019-0.732,0.156-1.463,0.377-2.16c0.544-1.743,1.63-3.334,2.421-4.968c0.574-1.177,1.018-2.428,1.292-3.709
			c0.391-1.785,0.482-3.68,0.544-5.504c0.033-1.064,0.065-5.261,0.168-6.237c0.038-0.428,0.097-0.864,0.202-1.281
			c0.225-0.927,0.729-1.761,1.241-2.556c1.6-2.426,3.422-4.999,4.483-7.703c0.829-2.099,1.247-4.353,1.492-6.589
			c0.202-1.73,0.302-4.045,0.7-5.728c0.423-1.933,1.256-3.765,2.168-5.512c1.037-1.965,2.195-3.921,3.461-5.747
			c0.368-0.517,0.758-1.039,1.238-1.458c0.405-0.358,0.89-0.626,1.369-0.873c2.409-1.204,4.959-2.484,6.822-4.47
			c1.26-1.344,2.078-3.044,2.615-4.792c0.656-2.143,0.987-4.421,1.279-6.64l0.803-7.163c0.199-1.619,0.485-3.269,0.922-4.841
			c0.469-1.704,1.116-3.387,1.867-4.986"/>
	</g>
</g>
<g id="_x32_D_x24_AG-OUTLINE">
	<g id="POLYLINE_00000067919674267793520480000000240463760620393383_">
		
			<path fill="none" stroke="#FB8604" stroke-width="3.5" stroke-linecap="round" stroke-linejoin="round" stroke-miterlimit="10" d="
			M644.819,245.137c0.693-0.499,1.215-1.201,1.629-1.94c0.628-1.136,1.03-2.391,1.294-3.659c0.203-1.001,0.323-2.028,0.308-3.05
			c-0.015-0.834-0.131-1.677-0.428-2.459c-0.361-0.968-1.022-1.814-1.849-2.43c-0.802-0.603-1.748-1-2.725-1.214
			c-1.558-0.833-3.274-1.407-4.956-1.933c-6.904-1.965-14.08-4.282-20.777-6.829c-1.69-0.655-3.613-1.337-5.214-2.149
			c-0.884-0.452-1.733-0.99-2.473-1.655c-0.699-0.624-1.298-1.359-1.793-2.154c-1.47-2.399-2.519-5.785-3.545-8.42
			c-1.415-3.693-3.063-7.465-5.898-10.301c-3.406-3.408-7.953-5.381-12.474-6.849c-3.599-1.164-7.776-2.113-11.47-2.966
			c-3.622-0.807-7.416-1.545-11.104-1.953c-6.232-0.72-12.603-0.457-18.744,0.835c-5.237,1.116-10.448,2.875-14.936,5.849
			c-2.302,1.535-4.338,3.466-6.207,5.497l-4.304,4.809c-0.896,0.968-1.868,1.947-2.859,2.817c-1.322,1.167-3.126,2.571-4.385,3.792
			c-0.791,0.771-1.543,1.613-2.068,2.592c-0.397,0.738-0.645,1.563-0.67,2.403c-0.037,1.187,0.291,2.358,0.73,3.451
			c-2.638,2.695-5.221,5.598-7.512,8.595c-1.73,2.271-3.348,4.69-4.584,7.268l-1.87,3.963c-0.627,1.279-1.341,2.553-2.144,3.73
			c-0.763,1.128-1.683,2.247-2.574,3.279c-1.403,1.65-4.082,4.393-5.205,6.2c-0.168,0.287-0.33,0.588-0.395,0.917l-0.004,0.022
			l-0.003,0.022l-0.003,0.021l-0.002,0.021l-0.002,0.021l-0.002,0.021l-0.001,0.02l-0.001,0.02l0,0.02l0,0.02l0.001,0.019
			l0.001,0.019l0.002,0.019l0.002,0.018l0.003,0.018l0.003,0.018l0.004,0.018l0.004,0.017l0.005,0.017l0.005,0.017l0.006,0.017
			c0.064,0.177,0.217,0.301,0.372,0.398c0.385,0.247,0.983,0.4,1.16,0.863l0.007,0.019l0.006,0.02l0.006,0.02l0.005,0.021
			l0.005,0.021l0.004,0.021l0.004,0.022l0.003,0.022l0.003,0.022l0.002,0.023l0.002,0.023l0.001,0.023l0.001,0.024l0,0.024l0,0.024
			l-0.001,0.025l-0.001,0.025l-0.002,0.025c-0.065,0.584-0.366,1.12-0.649,1.625c-1.325,2.235-4.146,5.448-5.774,7.517
			c-1.248,1.526-2.527,3.424-3.616,5.077c-0.721,1.06-1.522,2.115-2.592,2.844c-0.743,0.513-1.588,0.871-2.441,1.157
			c-1.444,0.479-2.996,0.779-4.493,1.049c-3.177,0.526-7.559,1.214-10.662,1.894c-6.49,1.395-13.048,3.212-19.344,5.316
			c-4.327,1.376-11.035,4.257-15.283,6.03c-8.58,3.511-17.818,5.261-27.023,6.078c-5.649,0.486-11.427,0.577-17.088,0.251
			c-6.431-0.37-13.138-1.324-19.493-2.392c-8.852-1.546-26.357-5.109-35.033-5.899c-5.297-0.59-14.554-0.966-19.952-1.351
			c-1.646-0.132-3.431-0.324-5.056-0.593c-3.519-0.547-10.23-2.372-13.775-3.223c-4.727-1.106-9.809-2.241-14.616-2.869
			c-1.856-0.219-3.771-0.44-5.638-0.248c-1.068,0.101-2.195,0.529-3.199,0.888c-0.923,0.323-1.897,0.507-2.871,0.587
			c-1.408,0.123-2.988,0.125-4.407,0.123c-7.021-0.059-14.56-0.32-21.373,1.554c-6.246,1.59-13.544,5.195-19.535,7.607
			c-4.33,1.801-10.349,3.47-14.871,4.831c-1.815,0.578-3.704,1.188-5.42,2.01c-0.877,0.428-1.747,0.916-2.465,1.584
			c-0.343,0.321-0.641,0.692-0.891,1.089c-0.435,0.685-0.827,1.679-1.189,2.41c-0.424,0.87-0.988,1.678-1.697,2.339
			c-1.7,1.572-3.833,2.722-5.835,3.866c-4.632,2.596-9.825,5.156-13.652,8.885c-1.776,1.761-3.295,3.813-4.343,6.089
			c-0.427,0.954-0.795,1.962-0.897,3.009c-0.037,0.459-0.03,0.948,0.185,1.366l0.01,0.019l0.011,0.019
			c0.192,0.34,0.559,0.536,0.885,0.728c0.266,0.156,0.54,0.356,0.636,0.664l0.008,0.024l0.007,0.025l0.007,0.026l0.006,0.026
			l0.006,0.027l0.005,0.027l0.004,0.028l0.004,0.028l0.003,0.029l0.003,0.029l0.002,0.03l0.002,0.03l0.001,0.031
			c0.008,0.405-0.095,0.807-0.211,1.192c-0.253,0.811-0.629,1.62-0.999,2.386c-2.365,4.711-5.965,10.337-8.05,15.167
			c-1.74,3.935-2.998,8.121-3.643,12.377c-0.746,4.82-0.766,9.794-0.608,14.66c0.193,4.324,0.835,16.231,0.827,20.358
			c0.056,5.607-0.11,11.67-0.555,17.26c-0.619,6.911-1.594,14.602-1.006,21.501c0.303,4.237,1.203,10.532,1.404,14.764
			c0.076,1.673,0.093,3.396-0.097,5.061c-0.152,1.363-0.486,2.717-1.029,3.978c-0.591,1.392-1.436,2.679-2.33,3.893l-1.461,1.943
			c-6.524-0.37-13.199,0.692-19.003,3.789c-3.729,1.985-7.167,4.861-9.006,8.735c-1.566,3.24-1.918,6.932-1.661,10.485
			c0.217,3.025,0.838,6.041,1.916,8.879c1.594,4.231,4.365,8.127,8.252,10.523c2.852,1.771,6.135,2.774,9.438,3.277
			c4.708,0.701,9.547,0.422,14.189-0.591c-1.885,2.039-4.225,4.611-6.005,6.717c-1.004,1.23-2.046,2.483-2.814,3.875
			c-0.43,0.775-0.81,1.589-1.036,2.449c-0.236,0.876-0.329,1.793-0.353,2.698c-0.028,1.181,0.056,2.399,0.172,3.574
			c0.879,7.413,2.534,16.926,3.134,24.339c1.32,14.945,2.082,34.215,4.621,48.903c0.385,2.25,0.82,4.58,1.462,6.772
			c0.818,2.77,2.041,5.609,4.366,7.44c0.738,0.581,1.576,1.04,2.459,1.361c1.035,0.38,2.138,0.578,3.231,0.702
			c2.535,0.402,22.241,0.155,25.238,0.227c3.42-0.043,8.3,0.081,11.665-0.317c0.688-0.093,1.396-0.198,2.047-0.446
			c0.426-0.162,0.833-0.408,1.114-0.774c0.416-0.542,0.53-1.244,0.586-1.908c0.131-2.227-0.118-4.498-0.464-6.698
			c-0.386-2.299-0.973-4.619-2.189-6.63c-0.736-1.249-1.722-2.362-2.714-3.413c-0.785-0.842-1.705-1.577-2.777-2.014
			c-0.719-0.305-1.489-0.502-2.255-0.648c-3.216-0.608-7.037-0.614-10.187-1.542c-1.812-0.532-3.545-1.425-4.93-2.719
			c-0.438-0.416-0.816-0.901-1.091-1.44c-0.34-0.66-0.538-1.388-0.662-2.117c-0.277-1.702-0.229-3.553-0.215-5.276
			c0.357-10.694,0.055-24.148,2.625-34.521c2.401-10.131,6.887-19.808,12.997-28.236c1.018-1.384,2.13-2.782,3.27-4.068
			c1.7-1.946,5.409-5.557,7.189-7.401c4.851-4.998,10.364-11.332,14.9-16.658c0.702,0.607,2,1.487,2.767,2.037
			c0.805,0.584,1.578,1.237,2.217,2.002c0.536,0.638,0.976,1.36,1.289,2.133c0.52,1.277,0.704,2.668,0.776,4.037
			c0.126,2.649-0.166,5.452-0.442,8.091c-1.089,9.784-3.587,25.986-3.629,35.649c-0.004,2.397,0.142,4.834,0.572,7.195
			c0.382,2.123,1.02,4.231,1.865,6.215c1.457,3.548,4.897,9.241,6.768,12.653c1.586,2.906,3.023,6.055,4.279,9.117l5.234,13.403
			c0.386,0.882,4.795,11.33,5.344,12.513c1.167,2.594,2.383,5.331,3.882,7.749c0.587,0.926,1.223,1.853,2.059,2.573
			c0.632,0.547,1.416,0.893,2.219,1.106c0.758,0.198,1.558,0.259,2.339,0.299c0.511,0.025,1.222,0.038,1.735,0.045
			c0,0,32.447,0.01,32.447,0.01l0.678-0.003c0.8-0.016,1.636-0.034,2.385-0.345c0.363-0.151,0.694-0.383,0.955-0.677
			c0.344-0.385,0.576-0.857,0.758-1.336c0.539-1.491,0.685-3.109,0.625-4.686c-0.085-2.569-1.189-4.963-2.312-7.229
			c-0.678-1.353-1.42-2.716-2.289-3.955c-0.509-0.717-1.067-1.417-1.742-1.984c-0.699-0.594-1.542-1.004-2.424-1.246
			c-0.889-0.258-2.529-0.492-3.46-0.66c-2.264-0.422-4.609-0.892-6.808-1.579c-1.187-0.384-2.386-0.887-3.278-1.786
			c-0.725-0.729-1.234-1.652-1.733-2.542c-1.778-3.269-3.427-6.704-4.734-10.19c-1.43-3.824-2.527-7.833-3.307-11.84
			c-0.671-3.457-1.079-7.035-1.177-10.556c-0.106-3.409,0.086-6.94,0.389-10.338c0.438-3.977,1.722-18.302,2.27-22.111
			c0.38-2.703,0.921-5.464,1.619-8.103c0.649-2.458,1.484-4.987,2.413-7.354c2.289-5.463,9.586-23.137,12.018-28.389
			c1.217-2.651,3.907-7.979,5.141-10.615c1.302-2.77,2.548-5.718,3.481-8.636c0.849-2.656,1.478-5.462,2.003-8.198l1.801-10.125
			c1.025-5.51,2.79-10.935,4.939-16.106c1.348-3.209,3.823-8.666,4.876-11.914c2.862,3.178,5.901,6.458,9.703,8.508
			c2.05,1.127,4.337,1.892,6.57,2.574c4.152,1.217,9.137,2.534,13.066,4.279c2.545,1.096,5.02,2.523,7.369,3.99
			c2.128,1.304,6.633,4.442,8.855,5.421c0.386,0.162,0.79,0.318,1.211,0.35l0.029,0.002l0.029,0.001l0.028,0l0.028,0l0.027-0.001
			l0.027-0.001l0.027-0.002l0.026-0.002l0.026-0.003l0.025-0.004l0.025-0.004l0.024-0.005l0.024-0.005l0.023-0.006l0.023-0.007
			l0.022-0.007l0.022-0.008l0.021-0.009l0.021-0.009l0.02-0.01l0.02-0.01c0.212-0.117,0.331-0.342,0.429-0.554
			c0.139-0.304,0.265-0.67,0.509-0.907c0.115-0.114,0.261-0.195,0.418-0.234l0.033-0.008l0.034-0.007l0.035-0.006l0.036-0.005
			l0.037-0.004l0.038-0.003l0.039-0.002l0.04-0.002l0.04-0.001l0.041,0l0.042,0.001l0.043,0.002l0.044,0.003
			c0.375,0.029,0.747,0.13,1.105,0.243c0.713,0.231,1.428,0.552,2.106,0.873c4.57,2.235,9.458,5.458,14.057,7.633
			c1.1,0.508,2.238,1.006,3.42,1.285c0.707,0.163,1.45,0.22,2.166,0.081c0.81-0.138,1.658-0.622,2.394-0.974
			c0.443-0.21,0.906-0.394,1.383-0.509c0.909-0.22,1.861-0.257,2.793-0.236c3.11,0.108,6.27,0.812,9.304,1.469
			c14.409,3.319,31.383,7.659,46.039,8.985c2.756,0.229,5.695,0.314,8.459,0.221c2.985-0.081,6.803-0.471,9.785-0.752l0.106,3.031
			c0.121,3.004,0.455,6.05,1.072,8.99c1.272,5.975,3.486,12.455,4.704,18.439c2.09,9.687,2.88,19.754,1.701,29.616
			c-0.843,7.373-3.219,16.037-5,23.283c-0.631,2.738-1.392,5.647-1.51,8.462c-0.011,0.61,0.01,1.239,0.187,1.827l0.016,0.049
			l0.016,0.048c0.109,0.316,0.287,0.606,0.513,0.852c0.36,0.396,0.849,0.702,1.209,1.099c0.428,0.456,0.614,1.02,0.691,1.629
			c0.099,0.768,0.067,1.56,0.015,2.331c-0.282,3.518-1.139,7.347-1.252,10.876c-0.063,1.65,0.115,3.33,0.704,4.88
			c0.827,2.243,2.422,4.248,3.491,6.372c2.214,4.37,3.606,10.02,4.987,14.727c0.34,4.139,0.892,8.333,1.895,12.367
			c0.631,2.484,1.428,4.976,2.62,7.251c0.755,1.398,1.644,2.82,2.992,3.715c0.852,0.565,1.866,0.822,2.873,0.929
			c1.015,0.231,32.137,0.066,33.629,0.109c0.567-0.011,1.154-0.024,1.71-0.147c0.447-0.097,0.88-0.296,1.208-0.62
			c0.621-0.62,0.909-1.498,1.158-2.319c0.564-2.019,0.78-4.137,0.825-6.228c0.04-2.471-0.234-4.977-0.971-7.342
			c-0.456-1.45-1.091-2.864-1.997-4.091c-0.767-1.043-1.763-1.912-2.876-2.57c-1.295-0.771-2.737-1.28-4.188-1.67l-2.471-0.612
			c-0.97-0.254-1.945-0.575-2.794-1.12c-0.618-0.393-1.161-0.901-1.605-1.482c-0.97-1.281-1.558-2.813-2.031-4.336
			c-0.858-2.856-1.288-5.878-1.6-8.839c-0.436-4.316-0.599-8.93-0.622-13.271c-0.026-5.277,0.22-10.676,1.165-15.874
			c0.737-4.36,2.798-12.315,3.826-16.685c1.233-4.968,2.713-13.474,3.639-18.565c0.635-3.358,1.404-7.016,2.334-10.304
			c1.027-3.871,4.576-14.26,5.81-18.135c3.277-10.242,6.246-23.059,9.09-33.478c0.832-2.84,1.827-5.72,3.014-8.43
			c2.465-5.632,5.711-11.13,8.929-16.364c5.677-9.12,13.372-20.747,18.097-30.28c1.064-2.169,2.11-4.462,2.89-6.749
			c0.544-1.592,0.953-3.25,1.105-4.929c0.139-1.46,0.069-2.945-0.135-4.395c-0.142-1.093-0.476-2.703-0.434-3.79
			c0.019-0.732,0.156-1.463,0.377-2.16c0.544-1.743,1.63-3.334,2.421-4.968c0.574-1.177,1.018-2.428,1.292-3.709
			c0.391-1.785,0.482-3.68,0.544-5.504c0.033-1.064,0.065-5.261,0.168-6.237c0.038-0.428,0.097-0.864,0.202-1.281
			c0.225-0.927,0.729-1.761,1.241-2.556c1.6-2.426,3.422-4.999,4.483-7.703c0.829-2.099,1.247-4.353,1.492-6.589
			c0.202-1.73,0.302-4.045,0.7-5.728c0.423-1.933,1.256-3.765,2.168-5.512c1.037-1.965,2.195-3.921,3.461-5.747
			c0.368-0.517,0.758-1.039,1.238-1.458c0.405-0.358,0.89-0.626,1.369-0.873c2.409-1.204,4.959-2.484,6.822-4.47
			c1.26-1.344,2.078-3.044,2.615-4.792c0.656-2.143,0.987-4.421,1.279-6.64l0.803-7.163c0.199-1.619,0.485-3.269,0.922-4.841
			c0.469-1.704,1.116-3.387,1.867-4.986c2.527-1.099,5.285-2.31,7.951-2.98c6.119-1.592,16.175-2.528,22.52-3.417
			c3.21-0.465,6.589-0.983,9.714-1.83c1.711-0.469,3.422-1.06,4.958-1.96c1.301-0.754,2.461-1.752,3.42-2.909
			c1.127-1.341,2.095-3.005,2.999-4.508C639.329,255.975,642.541,250.608,644.819,245.137z"/>
	</g>
</g>
</svg>
