<?xml version="1.0" encoding="utf-8"?>
<!-- Generator: Adobe Illustrator 25.4.1, SVG Export Plug-In . SVG Version: 6.00 Build 0)  -->
<!DOCTYPE svg PUBLIC "-//W3C//DTD SVG 1.1//EN" "http://www.w3.org/Graphics/SVG/1.1/DTD/svg11.dtd" [
	<!ENTITY ns_extend "http://ns.adobe.com/Extensibility/1.0/">
	<!ENTITY ns_ai "http://ns.adobe.com/AdobeIllustrator/10.0/">
	<!ENTITY ns_graphs "http://ns.adobe.com/Graphs/1.0/">
	<!ENTITY ns_vars "http://ns.adobe.com/Variables/1.0/">
	<!ENTITY ns_imrep "http://ns.adobe.com/ImageReplacement/1.0/">
	<!ENTITY ns_sfw "http://ns.adobe.com/SaveForWeb/1.0/">
	<!ENTITY ns_custom "http://ns.adobe.com/GenericCustomNamespace/1.0/">
	<!ENTITY ns_adobe_xpath "http://ns.adobe.com/XPath/1.0/">
]>
<svg version="1.1" xmlns:x="&ns_extend;" xmlns:i="&ns_ai;" xmlns:graph="&ns_graphs;"
	 xmlns="http://www.w3.org/2000/svg" xmlns:xlink="http://www.w3.org/1999/xlink" x="0px" y="0px" width="750px" height="750px"
	 viewBox="0 0 750 750" enable-background="new 0 0 750 750" xml:space="preserve">
<metadata>
	<sfw  xmlns="&ns_sfw;">
		<slices></slices>
		<sliceSourceBounds  bottomLeftOrigin="true" height="11260.779" width="5495" x="-2000" y="-2314"></sliceSourceBounds>
	</sfw>
</metadata>
<g id="FILL-BACKGROUND">
	<rect fill="#FFFFFF" width="750" height="750"/>
</g>
<g id="N-DIMENSIONS">
</g>
<g id="N-TEXT">
</g>
<g id="_x32_D_x24_AG-DIAGRAM">
	<g id="POLYLINE_00000042715154265259911700000010059812177897366409_">
		<g>
			<g>
				
					<line fill="none" stroke="#FB8604" stroke-width="3.25" stroke-linecap="round" stroke-linejoin="round" x1="132.809" y1="609.394" x2="134.809" y2="609.394"/>
				
					<line fill="none" stroke="#FB8604" stroke-width="3.25" stroke-linecap="round" stroke-linejoin="round" stroke-dasharray="4.0151,7.0264" x1="141.835" y1="609.394" x2="546.857" y2="609.394"/>
				
					<line fill="none" stroke="#FB8604" stroke-width="3.25" stroke-linecap="round" stroke-linejoin="round" x1="550.37" y1="609.394" x2="552.37" y2="609.394"/>
			</g>
		</g>
	</g>
</g>
<g id="_x32_D_x24_AG-DETAILS-DIAGRAM">
</g>
<g id="_x32_D_x24_AG-DETAILS">
	<g id="POLYLINE_00000121259834097491620880000002568971701378314384_">
		<path fill="none" stroke="#FB8604" stroke-width="2" stroke-linecap="round" stroke-linejoin="round" stroke-miterlimit="10" d="
			M472.466,255.313c0.413,2.301,1.257,4.547,2.578,6.482c1.326,1.936,3.114,3.539,5.111,4.76"/>
	</g>
	<g id="POLYLINE_00000045618315152203888400000017827707755391881646_">
		<path fill="none" stroke="#FB8604" stroke-width="2" stroke-linecap="round" stroke-linejoin="round" stroke-miterlimit="10" d="
			M550.663,268.965c3.778-2.527,7.628-5.309,11.216-8.099"/>
	</g>
	<g id="POLYLINE_00000183945398601147826460000006520532932906169472_">
		<path fill="none" stroke="#FB8604" stroke-width="2" stroke-linecap="round" stroke-linejoin="round" stroke-miterlimit="10" d="
			M278.989,380.873c5.164-0.238,10.472-0.148,15.442,1.417c4.28,1.354,8.835,3.925,13.121,5.266
			c5.042,1.606,10.508,1.928,15.695,0.87c3.838-0.797,7.579-2.416,10.532-5.03c1.582-1.41,2.924-3.143,3.671-5.14
			c0.57-1.48,0.73-3.087,0.624-4.662c-0.127-2.205-0.742-4.82-0.88-7.026c-0.049-0.914-0.025-1.853,0.24-2.735
			c0.166-0.555,0.439-1.081,0.82-1.52c0.517-0.598,1.195-1.036,1.906-1.369c1.241-0.573,2.6-0.864,3.951-1.035
			c2.026-0.247,4.104-0.213,6.134-0.032c5.084,0.497,10.155,1.847,14.646,4.316c3.912,2.13,7.602,5.439,11.004,8.31
			c1.975,1.624,4.058,3.224,6.439,4.204c2.451,1.009,5.143,1.254,7.769,1.334c2.92,0.057,7.134-0.02,10.009,0.378
			c1.918,0.243,3.812,0.753,5.633,1.396c3.331,1.158,6.987,2.978,10.369,3.981c1.74,0.509,3.577,0.848,5.393,0.633
			c2.376-0.273,4.682-1.44,6.162-3.341c0.639-0.819,1.111-1.774,1.353-2.785c0.241-0.992,0.245-2.032,0.128-3.042
			c-0.33-2.831-1.691-6.15-2.616-8.854c-0.868-2.516-1.708-5.135-1.778-7.814c-0.091-2.999,0.916-6.271,1.535-9.186
			c0.459-2.174,0.714-4.439,0.336-6.644c-0.324-1.97-1.141-3.829-2.083-5.576c-3.296-6.034-8.499-11.564-11.846-17.569
			c-0.898-1.65-1.686-3.409-1.973-5.278c-0.191-1.219-0.171-2.471-0.005-3.692c0.295-2.315,1.24-4.767,1.601-7.068
			c0.642-3.757-1.471-7.21-3.377-10.272"/>
	</g>
	<g id="POLYLINE_00000057129372065506341260000006650174104318005939_">
		<path fill="none" stroke="#FB8604" stroke-width="2" stroke-linecap="round" stroke-linejoin="round" stroke-miterlimit="10" d="
			M188.27,439.054c7.707,0.745,15.536,0.114,23.044-1.76c7.04-1.723,13.941-4.417,19.942-8.527
			c7.991-5.405,14.012-13.573,17.058-22.708c1.751-5.351,2.5-11.246,0.949-16.736c-1.54-5.562-5.777-10.616-9.072-15.252
			c-1.879-2.674-3.72-5.506-4.533-8.708c-0.846-3.38-0.422-6.926,0.171-10.313l1.17-6.156c0.423-2.407,0.742-4.881,0.648-7.328
			c-0.077-2.006-0.457-4.013-0.966-5.952c-0.937-3.675-2.653-7.685-3.391-11.406c-0.245-1.293-0.377-2.632-0.191-3.942
			c0.204-1.5,0.83-2.937,1.786-4.11c1.009-1.249,2.352-2.201,3.8-2.878c2.892-1.345,6.147-1.665,9.303-1.662
			c5.828,0.064,11.649,1.242,17.189,3.011c3.281,1.059,6.507,2.436,9.503,4.145c3.422,1.924,7.021,4.296,10.991,4.789
			c2.98,0.416,6.008-0.121,8.936-0.674c4.075-0.743,9.461-2.272,13.6-1.882c1.516,0.154,3.099,0.683,4.04,1.948
			c0.954,1.272,1.275,2.898,1.392,4.453c0.125,1.843-0.059,3.714-0.384,5.529c-0.372,2.029-0.939,4.044-1.701,5.961
			c-0.563,1.383-1.213,2.767-2.134,3.95c-0.612,0.784-1.408,1.458-2.366,1.764c-0.654,0.216-1.353,0.271-2.038,0.251
			c-1.143-0.036-2.334-0.257-3.46-0.455c-6.574-1.25-13.842-3.034-20.542-2.368c-2.92,0.295-5.792,1.182-8.345,2.632
			c-1.388,0.792-2.7,1.754-3.8,2.917c-0.69,0.736-1.308,1.561-1.71,2.491c-0.488,1.108-0.568,2.366-0.315,3.544
			c0.175,0.844,0.479,1.665,0.824,2.453c0.51,1.151,1.181,2.244,2.044,3.164"/>
	</g>
	<g id="POLYLINE_00000135656516023466988940000000461073445987227313_">
		<path fill="none" stroke="#FB8604" stroke-width="2" stroke-linecap="round" stroke-linejoin="round" stroke-miterlimit="10" d="
			M182.634,364.771c0.628-3.039,0.709-6.22,0.068-9.264c-0.647-3.055-2.012-5.942-3.825-8.477"/>
	</g>
</g>
<g id="_x32_D_x24_AG-ANIMALS">
	<g id="POLYLINE_00000018950679675298925010000007750276482308228275_">
		
			<path fill="none" stroke="#FB8604" stroke-width="2.75" stroke-linecap="round" stroke-linejoin="round" stroke-miterlimit="10" d="
			M275.897,404.816c1.448,0.196,3.066,0.195,4.495,0.506c1.201,0.25,2.355,0.711,3.438,1.282c4.622,2.498,9.689,7.037,14.261,9.625
			c0.588,0.307,1.2,0.624,1.863,0.725l0.035,0.004l0.034,0.003l0.034,0.003l0.033,0.002l0.033,0.001l0.032,0.001l0.031,0
			l0.031-0.001l0.03-0.002l0.03-0.002l0.029-0.003l0.029-0.004l0.028-0.005l0.027-0.006l0.027-0.006
			c0.508-0.128,0.688-0.711,0.894-1.13c0.13-0.27,0.286-0.551,0.551-0.709l0.019-0.011l0.019-0.011l0.02-0.01l0.02-0.01l0.02-0.009
			l0.021-0.009l0.021-0.009l0.021-0.008l0.022-0.008l0.022-0.007L302.09,415l0.023-0.007l0.023-0.006l0.023-0.006l0.024-0.005
			l0.024-0.005l0.024-0.005c0.552-0.088,1.111,0.069,1.633,0.237c2.162,0.777,4.126,2.092,6.03,3.357
			c2.511,1.68,5.913,4.411,8.314,6.309c1.738,1.356,3.557,2.713,5.495,3.769c1.825,1.016,3.828,1.697,5.852,2.195
			c2.761,0.686,6.446,1.325,9.175,2.116c2.141,0.596,4.245,1.435,6.239,2.413l5.655,2.851c1.065,0.504,2.168,1.008,3.311,1.304
			c0.544,0.135,1.113,0.228,1.673,0.157c0.819-0.092,1.525-0.653,2.175-1.118c0.361-0.251,0.75-0.487,1.185-0.579
			c0.446-0.095,0.91-0.039,1.349,0.067c0.619,0.152,1.219,0.411,1.793,0.684c2.48,1.244,5.077,2.931,7.623,4.036
			c4.322,1.972,9.32,3.502,13.865,4.925c4.43,1.327,11.177,3.503,15.651,4.456c1.437,0.315,2.993,0.568,4.452,0.768
			c6.01,0.775,16.334,2.194,22.297,2.786"/>
	</g>
	<g id="POLYLINE_00000096737741722735409820000003259491800610684307_">
		
			<path fill="none" stroke="#FB8604" stroke-width="2.75" stroke-linecap="round" stroke-linejoin="round" stroke-miterlimit="10" d="
			M178.27,478.278l-3.118,0.933c-2.647,0.777-5.43,1.093-8.182,1.192c-3.788,0.136-7.817,0.032-11.6-0.225
			c-2.821-0.223-5.72-0.47-8.464-1.185c-0.648-0.186-1.313-0.39-1.878-0.768l-0.034-0.024l-0.033-0.025l-0.032-0.025l-0.031-0.025
			l-0.03-0.025l-0.029-0.025l-0.027-0.025l-0.026-0.025l-0.025-0.026l-0.024-0.026l-0.022-0.026l-0.021-0.026l-0.02-0.026
			l-0.019-0.026l-0.017-0.027l-0.016-0.027l-0.015-0.027l-0.014-0.027l-0.012-0.027l-0.011-0.027l-0.01-0.027l-0.008-0.028
			l-0.007-0.028l-0.006-0.028l-0.004-0.028l-0.003-0.028l-0.002-0.028l0-0.028l0.001-0.029l0.003-0.029l0.004-0.029l0.003-0.016
			l0.003-0.016l0.004-0.016l0.004-0.016l0.005-0.016l0.005-0.016l0.005-0.016l0.006-0.016l0.006-0.016l0.007-0.016l0.007-0.017
			l0.007-0.017l0.008-0.017l0.008-0.017c0.108-0.212,0.275-0.389,0.446-0.551c0.439-0.404,0.955-0.737,1.457-1.057
			c0.841-0.536,2.234-1.296,2.974-1.944c0.136-0.123,0.269-0.256,0.365-0.413l0.009-0.015l0.008-0.014l0.008-0.014l0.007-0.014
			l0.007-0.014l0.007-0.014l0.006-0.014l0.006-0.014l0.005-0.014l0.005-0.014l0.005-0.014l0.004-0.014l0.004-0.014l0.003-0.014
			l0.003-0.014l0.004-0.021l0.003-0.021l0.002-0.02l0.001-0.02l0-0.02l-0.001-0.02l-0.002-0.02l-0.003-0.02l-0.004-0.02
			l-0.005-0.019l-0.006-0.019l-0.007-0.019l-0.008-0.019l-0.009-0.019l-0.01-0.019l-0.011-0.019l-0.012-0.018l-0.013-0.018
			l-0.014-0.018l-0.014-0.018l-0.015-0.018l-0.016-0.018l-0.017-0.018l-0.018-0.017l-0.019-0.017l-0.02-0.017l-0.021-0.017
			l-0.021-0.017l-0.022-0.017l-0.023-0.017l-0.024-0.017l-0.025-0.016l-0.026-0.016c-0.546-0.321-1.187-0.456-1.8-0.59
			c-4.803-0.886-10.946-0.803-15.799-1.414c-1.494-0.193-2.984-0.538-4.372-1.133c-2.242-0.972-4.613-2.389-6.75-3.581
			c-2.552-1.487-5.207-3.058-7.534-4.881c-0.524-0.421-1.055-0.872-1.508-1.369c-0.248-0.276-0.489-0.573-0.645-0.913l-0.013-0.03
			l-0.012-0.029l-0.012-0.029l-0.011-0.029l-0.01-0.029l-0.009-0.028l-0.008-0.028l-0.008-0.028l-0.007-0.028l-0.006-0.027
			l-0.005-0.027l-0.005-0.027l-0.004-0.027l-0.003-0.026l-0.002-0.026l-0.001-0.026l-0.001-0.026l0-0.025l0.001-0.025l0.002-0.025
			l0.003-0.025l0.004-0.024l0.004-0.024l0.005-0.024l0.006-0.023l0.007-0.023l0.008-0.023l0.009-0.023l0.005-0.012l0.005-0.012
			l0.006-0.012l0.006-0.012l0.006-0.012l0.006-0.012l0.007-0.012l0.007-0.012l0.007-0.011l0.007-0.011
			c0.113-0.172,0.284-0.295,0.459-0.396c0.362-0.205,0.77-0.335,1.166-0.458c0.666-0.209,1.574-0.404,2.18-0.746
			c0.12-0.071,0.237-0.155,0.325-0.266l0.008-0.01l0.007-0.01l0.012-0.017l0.011-0.017l0.01-0.017l0.01-0.017l0.009-0.017
			l0.008-0.018l0.008-0.018l0.007-0.018l0.007-0.018l0.006-0.018l0.005-0.019l0.005-0.019l0.004-0.019l0.003-0.019l0.003-0.019
			l0.002-0.02l0.002-0.02l0.001-0.02l0-0.02l0-0.02l-0.001-0.02l-0.001-0.021l-0.002-0.021l-0.003-0.021l-0.003-0.021l-0.004-0.021
			l-0.004-0.022l-0.005-0.022l-0.005-0.022l-0.006-0.022l-0.007-0.022l-0.007-0.022l-0.008-0.023l-0.008-0.023l-0.009-0.023
			c-0.082-0.209-0.208-0.4-0.341-0.58c-0.702-0.933-2.177-2.194-3.03-3.021c-2.362-2.213-4.654-4.648-5.983-7.639
			c-1.339-2.968-1.976-6.23-2.121-9.472c-0.041-1.054-0.03-2.129,0.081-3.178c0.059-0.515,0.131-1.043,0.294-1.537
			c0.067-0.186,0.144-0.392,0.32-0.5c0.157-0.092,0.348-0.074,0.521-0.05c0.914,0.138,4.942,1.393,5.908,1.654
			c3.823,1.048,7.775,2.037,11.763,1.987c3.053-0.036,6.267-0.911,9.235-1.589c1.798-0.395,3.65-0.689,5.495-0.624
			c4.122,0.156,8.632,1.966,12.587,3.046c2.994,0.813,6.302,1.543,9.298,0.369c0.791-0.317,1.529-0.785,2.114-1.409
			c0.561-0.594,0.971-1.326,1.206-2.107c0.26-0.86,0.322-1.772,0.31-2.666c-0.028-1.513-0.276-3.049-0.545-4.536
			c-0.535-2.918-1.457-6.614-1.536-9.556c-0.025-0.91,0.034-1.83,0.236-2.718c0.25-1.131,0.719-2.209,1.286-3.216
			c1.098-1.932,2.691-4.009,3.571-6.054c1.592-3.697,1.934-7.873,2.282-11.846c0.384-5.984,0.768-13.399,1.824-19.216
			c1.464-8.288,4.239-16.451,8.766-23.58c5.213-8.341,13.88-15.832,21.006-22.586c3.306-3.109,6.691-7.07,10.224-9.907
			c3.391-2.789,7.34-4.834,11.435-6.38c5.479-2.09,11.36-3.604,17.083-4.884c8.063-1.763,16.575-3.138,24.76-4.173
			c8.548-1.08,17.396-1.796,26.007-1.709c25.413,0.362,53.257,5.171,78.681,4.055c6.905-0.278,14.008-0.974,20.795-2.293
			c5.862-1.134,11.79-2.803,17.4-4.843c10.862-3.85,22.306-10.361,33.422-13.481c3.807-1.076,8.392-1.56,12.209-2.562
			c2.266-0.607,4.506-1.553,6.235-3.177c1.349-1.249,2.418-2.777,3.378-4.336c1.369-2.231,2.613-4.733,3.786-6.802
			c0.59-1.021,1.234-2.061,1.943-3.003c0.735-0.982,1.602-1.938,2.457-2.82c1.723-1.755,3.858-3.75,5.172-5.818
			c1.153-1.766,1.919-3.776,2.569-5.774c1.376-4.281,2.442-9.515,4.098-13.697c0.985-2.523,2.327-4.921,3.897-7.127
			c2.217-3.131,4.982-5.982,7.71-8.673"/>
	</g>
	<g id="POLYLINE_00000178180826566364844720000010628074337856464057_">
		
			<path fill="none" stroke="#FB8604" stroke-width="2.75" stroke-linecap="round" stroke-linejoin="round" stroke-miterlimit="10" d="
			M182.634,364.771c-1.573,10.722-1.48,21.719-0.238,32.47c1.595,14.015,5.465,30.083,5.998,44.174
			c0.177,4.309,0.069,8.693-0.582,12.961c-0.6,3.982-1.687,7.927-3.182,11.664c-3.673,9.03-9.307,17.195-15.378,24.771
			c-3.866,4.826-9.083,10.251-12.978,15.07c-2.254,2.846-4.389,5.915-5.445,9.426c-0.699,2.253-0.975,4.63-1.02,6.983
			c-0.026,3.263,0.281,10.591,0.403,13.878c0.135,2.619,0.376,5.346,0.803,7.933c0.52,3.246,1.41,6.65,2.283,9.824
			c2.755,9.567,6.427,20.954,7.591,30.796c0.464,3.777,0.355,8.004,0.646,11.795c0.191,2.211,0.603,4.432,1.217,6.565
			c0.374,1.254,0.854,2.507,1.619,3.578c0.414,0.577,0.922,1.097,1.523,1.481c0.681,0.437,1.463,0.697,2.251,0.862
			c1.136,0.237,2.323,0.303,3.481,0.347c2.52,0.053,30.587,0.091,33.263-0.003c0.664-0.05,1.337-0.154,1.959-0.4
			c0.533-0.208,1.023-0.534,1.404-0.962c0.389-0.431,0.664-0.953,0.87-1.494c0.607-1.651,0.758-3.443,0.791-5.19
			c0.006-1.908-0.135-3.858-0.743-5.678c-0.551-1.676-1.605-3.134-2.688-4.505c-0.938-1.181-2.015-2.409-3.059-3.499
			c-0.447-0.464-0.906-0.936-1.405-1.34c-0.729-0.603-1.613-0.896-2.535-1.04c-2.464-0.35-5.643-0.328-8.12-0.609
			c-0.734-0.089-1.487-0.182-2.195-0.4c-0.752-0.223-1.407-0.656-1.9-1.268c-0.532-0.647-0.916-1.413-1.264-2.171
			c-1.897-4.447-3.302-9.404-4.661-14.047c-1.322-4.763-2.618-9.803-3.439-14.672c-0.645-3.86-1.025-7.826-0.772-11.739
			c0.269-4.609,1.548-9.147,3.618-13.268c2.162-4.326,5.007-8.311,8.102-12.015c3.346-3.97,7.087-7.664,11.244-10.782
			c4.413-3.377,10.745-6.976,15.377-10.07c3.818-2.531,7.642-5.349,11.182-8.257c6.645-5.429,12.703-11.709,17.914-18.526
			c3.099-4.076,6.078-8.4,8.324-13.012c2.04-4.153,3.293-8.699,4.401-13.176c0.785-3.304,1.491-6.831,1.89-10.207
			c0.532-4.07,0.635-8.697,0.757-12.775c0.026-0.471,0.04-0.971,0.136-1.433c0.02-0.084,0.043-0.17,0.083-0.247l0.004-0.008
			l0.004-0.008l0.004-0.008l0.004-0.007l0.005-0.007l0.005-0.007l0.005-0.006l0.005-0.006l0.005-0.006l0.005-0.006l0.005-0.005
			l0.005-0.005l0.005-0.005l0.005-0.005l0.005-0.004l0.005-0.004l0.005-0.004l0.005-0.004l0.005-0.003l0.005-0.003l0.005-0.003
			l0.005-0.003l0.005-0.002l0.005-0.002l0.006-0.002l0.006-0.002l0.006-0.001l0.006-0.001l0.006-0.001l0.006-0.001l0.006,0l0.006,0
			h0.006l0.006,0l0.006,0l0.006,0.001l0.006,0.001l0.006,0.001l0.006,0.001l0.006,0.002l0.006,0.002l0.006,0.002l0.007,0.002
			l0.007,0.003l0.007,0.003l0.007,0.003l0.007,0.003l0.007,0.003l0.007,0.004l0.007,0.004l0.007,0.004l0.007,0.004
			c0.092,0.058,0.168,0.139,0.241,0.22c0.515,0.623,1.066,1.496,1.573,2.125c1.069,1.372,2.36,2.57,3.757,3.602
			c0.922,0.666,1.903,1.292,2.98,1.671c0.479,0.158,1.001,0.285,1.503,0.17l0.023-0.006l0.023-0.006l0.023-0.007l0.022-0.007
			l0.022-0.007l0.022-0.008l0.022-0.008l0.021-0.009l0.021-0.009l0.021-0.009l0.021-0.01l0.02-0.01l0.02-0.011l0.02-0.011
			l0.019-0.011l0.019-0.012l0.019-0.012l0.019-0.013l0.018-0.013l0.018-0.013l0.018-0.014l0.017-0.014l0.017-0.015l0.017-0.015
			l0.017-0.016l0.016-0.016l0.016-0.016l0.016-0.017l0.015-0.017l0.015-0.018l0.015-0.018l0.014-0.018l0.014-0.019l0.014-0.019
			l0.014-0.02l0.013-0.02l0.015-0.023l0.014-0.024l0.014-0.025l0.013-0.025l0.013-0.026l0.013-0.026l0.012-0.027l0.012-0.027
			l0.011-0.028l0.011-0.028c0.136-0.367,0.163-0.766,0.168-1.155c0-0.913-0.155-1.847-0.314-2.745
			c-0.326-1.843-1.037-4.516-1.144-6.371c-0.013-0.352-0.012-0.714,0.083-1.056l0.008-0.026l0.008-0.026l0.009-0.025l0.009-0.025
			l0.009-0.024l0.01-0.023l0.01-0.023l0.01-0.022l0.011-0.022l0.011-0.021l0.012-0.021c0.214-0.381,0.664-0.439,1.061-0.416
			c0.715,0.043,1.481,0.281,2.199,0.29c0.284,0.005,0.574-0.033,0.836-0.146c0.561-0.236,0.944-0.756,1.187-1.297
			c0.281-0.628,0.419-1.314,0.496-1.995c0.139-1.254,0.045-2.536-0.102-3.785c-0.191-1.783-0.678-4.086-0.491-5.864
			c0.048-0.387,0.136-0.778,0.321-1.124c0.252-0.489,0.738-0.795,1.233-0.998c0.952-0.4,2.108-0.579,2.844-1.36
			c0.592-0.642,0.769-1.545,0.856-2.387c0.166-2.024-0.173-4.081-0.508-6.074c-0.313-1.604-1.582-8.493-1.902-9.936
			c-0.239-1.067-0.541-2.158-0.893-3.193c-0.891-2.614-2.071-5.191-3.354-7.636c-1.25-2.357-2.658-4.675-4.271-6.802"/>
	</g>
	<g id="POLYLINE_00000002373052946857357700000012708688063850574984_">
		
			<path fill="none" stroke="#FB8604" stroke-width="2.75" stroke-linecap="round" stroke-linejoin="round" stroke-miterlimit="10" d="
			M487.543,462.542c0.645-4.105,1.73-8.384,4.497-11.602c1.969-2.256,4.682-4.096,6.918-6.073c2.116-1.812,4.013-3.914,5.732-6.103
			l5.275-6.853c1.045-1.299,2.138-2.627,3.38-3.742c0.57-0.501,1.184-0.981,1.89-1.274c0.34-0.139,0.703-0.222,1.07-0.247
			c0.544-0.045,1.211,0.065,1.754,0.129c0.347,0.038,0.703,0.058,1.048-0.006c0.272-0.05,0.532-0.158,0.768-0.302
			c0.484-0.298,0.876-0.723,1.22-1.17c0.597-0.789,1.062-1.683,1.476-2.579c2.144-4.727,3.277-10.935,4.888-15.861
			c0.332-1,0.705-2.041,1.173-2.986c0.369-0.719,0.8-1.494,1.486-1.952l0.029-0.018l0.029-0.017l0.029-0.017l0.029-0.016
			l0.029-0.015l0.029-0.015l0.029-0.014l0.029-0.013l0.029-0.012l0.029-0.012l0.03-0.011l0.03-0.01l0.03-0.01
			c0.268-0.085,0.558-0.079,0.832-0.028c0.653,0.121,1.294,0.489,1.934,0.658c0.27,0.07,0.565,0.105,0.833,0.009l0.022-0.008
			l0.022-0.009l0.022-0.009l0.022-0.01l0.022-0.01l0.021-0.011l0.021-0.012l0.021-0.012l0.021-0.013l0.021-0.013l0.021-0.014
			l0.021-0.014l0.021-0.015l0.02-0.015l0.02-0.016l0.02-0.016l0.02-0.017l0.02-0.018l0.02-0.018c0.45-0.439,0.673-1.054,0.865-1.64
			c0.287-0.932,0.45-1.92,0.579-2.886c0.506-3.892,0.417-8.71,0.432-12.658c0.027-1.207,0.046-2.462,0.313-3.643
			c0.105-0.433,0.248-0.873,0.519-1.233c0.138-0.182,0.315-0.337,0.523-0.431c0.328-0.149,0.698-0.167,1.052-0.173
			c0.573-0.016,1.348,0.089,1.82-0.295l0.013-0.011l0.013-0.011l0.013-0.011c0.3-0.285,0.411-0.708,0.474-1.104
			c0.085-0.579,0.065-1.173,0.02-1.755c-0.101-1.217-0.346-2.477-0.599-3.672c-0.288-1.319-0.942-3.879-1.101-5.178
			c-0.048-0.394-0.079-0.797-0.053-1.193c0.025-0.357,0.096-0.726,0.294-1.03c0.39-0.592,1.231-0.75,1.817-1.091
			c0.43-0.23,0.798-0.58,0.982-1.037c0.202-0.485,0.27-1.017,0.309-1.538c0.107-1.699-0.139-3.693-0.132-5.395
			c0.003-0.518,0.024-1.047,0.117-1.557c0.075-0.409,0.212-0.815,0.461-1.152c0.225-0.309,0.535-0.548,0.868-0.732
			c0.952-0.506,2.16-0.821,3.143-1.262c1.832-0.8,3.588-1.831,5.171-3.052c0.867-0.688,1.721-1.442,2.323-2.38
			c0.272-0.437,0.494-0.939,0.462-1.463l-0.002-0.027l-0.003-0.027c-0.089-0.769-0.702-1.348-1.242-1.847
			c-0.496-0.452-1.215-1.001-1.598-1.549c-0.114-0.165-0.209-0.347-0.249-0.545l-0.004-0.02l-0.004-0.02l-0.003-0.021l-0.003-0.021
			l-0.002-0.021l-0.002-0.021l-0.002-0.021l-0.001-0.021l-0.001-0.021l0-0.021l0-0.021l0-0.021l0.001-0.021l0.001-0.021l0.001-0.021
			c0.05-0.534,0.397-0.981,0.74-1.371c1.468-1.547,3.768-3.008,5.357-4.431c1.84-1.62,3.512-3.517,4.614-5.721
			c0.229-0.482,0.433-0.989,0.519-1.518c0.039-0.255,0.051-0.522-0.021-0.772c-0.105-0.383-0.45-0.654-0.726-0.917
			c-0.163-0.156-0.316-0.33-0.412-0.537c-0.118-0.252-0.16-0.533-0.171-0.809c-0.017-0.525,0.073-1.052,0.189-1.563
			c0.537-2.316,2.037-5.215,2.997-7.402c0.897-2.047,1.655-4.195,1.949-6.418c0.121-0.984,0.177-2.008-0.081-2.976
			c-0.122-0.449-0.343-0.878-0.689-1.194c-0.741-0.679-1.956-1.01-2.817-1.575c-1.095-0.684-1.936-1.705-2.646-2.768
			c-2.769-4.314-3.845-9.54-3.837-14.617c0.028-5.202,0.94-10.438,2.083-15.501c1.456-6.052,3.367-12.14,6.671-17.458
			c1.528-2.413,3.428-4.643,5.792-6.271c1.288-0.893,2.718-1.595,4.207-2.082c3.309-1.112,7.743-1.449,11.205-1.929
			c3.284-0.417,6.535-1.295,9.649-2.408c2.243-0.809,7.522-2.803,9.697-3.467c2.299-0.722,6.701-2.032,8.886-2.864
			c2.251-0.839,4.482-1.838,6.501-3.147c2.504-1.62,4.657-3.755,6.455-6.125c1.946-2.578,3.526-5.464,4.631-8.5
			c0.913-2.498,1.465-5.142,1.832-7.772c0.369-2.681,0.711-5.536,0.781-8.241"/>
	</g>
	<g id="POLYLINE_00000042698162596339772550000016697168817938300858_">
		
			<path fill="none" stroke="#FB8604" stroke-width="2.75" stroke-linecap="round" stroke-linejoin="round" stroke-miterlimit="10" d="
			M426.99,402.642c-0.154,6.173-0.57,12.739-1.206,18.885c-0.274,2.911-1.445,10.948-1.353,13.731
			c0.022,0.587,0.065,1.186,0.249,1.747c0.109,0.329,0.29,0.646,0.571,0.858c0.315,0.251,0.889,0.427,1.26,0.589
			c0.508,0.209,1.026,0.473,1.357,0.927c0.257,0.344,0.374,0.77,0.412,1.192c0.073,0.852-0.057,1.728-0.179,2.571
			c-0.716,4.271-1.791,9.392-2.234,13.683c-0.095,0.941-0.179,1.94-0.163,2.885c0.019,0.797,0.082,1.619,0.393,2.362
			c0.169,0.403,0.438,0.763,0.78,1.036c0.532,0.43,1.235,0.716,1.677,1.253c0.266,0.314,0.435,0.702,0.523,1.102
			c0.131,0.6,0.125,1.225,0.105,1.836c-0.118,2.765-2.443,20.15-2.78,23.236c-0.288,2.181-0.911,5.9-1.281,8.102
			c-0.091,0.647-0.191,1.302-0.197,1.952c-0.004,0.403,0.033,0.809,0.15,1.196c0.177,0.609,0.571,1.132,1.05,1.539
			c0.637,0.554,1.462,0.97,2,1.634c0.451,0.534,0.772,1.167,1.039,1.809c0.412,1.004,0.707,2.077,0.969,3.128
			c1.402,5.909,1.988,12.039,1.893,18.107c-0.005,2.9-0.335,6.536-0.43,9.443c0.002,0.411,0.016,0.835,0.1,1.239
			c0.075,0.368,0.228,0.733,0.507,0.992c0.667,0.614,1.701,0.734,2.506,1.114c0.388,0.173,0.744,0.42,1.028,0.736
			c0.453,0.499,0.736,1.127,0.953,1.758c0.828,2.534,0.904,5.622,1.872,8.115c0.31,0.792,0.835,1.496,1.512,2.012
			c0.733,0.567,1.541,0.987,2.095,1.779c0.309,0.418,0.557,0.883,0.774,1.355c0.657,1.42,1.379,3.979,1.873,5.464
			c0.585,1.75,1.257,3.521,2.385,5.001c0.748,1.014,1.75,2.089,2.387,3.177c0.538,0.899,0.888,1.918,1.219,2.908l3.42,10.802
			c1.656,5.623,3.39,13.849,5.073,19.475c0.309,0.925,0.652,1.864,1.134,2.714c0.372,0.656,0.844,1.269,1.45,1.725
			c0.616,0.471,1.35,0.765,2.094,0.964c1.105,0.294,2.267,0.411,3.406,0.49c2.473,0.218,33.906,0.118,36.989,0.098
			c0.641-0.036,1.299-0.102,1.898-0.349c0.993-0.403,1.66-1.316,2.142-2.238c1.896-3.781,1.373-8.36-0.32-12.119
			c-0.952-2.115-2.194-4.128-3.529-6.02c-0.499-0.69-1.044-1.384-1.626-2.007c-0.35-0.375-0.729-0.733-1.155-1.02
			c-0.599-0.409-1.278-0.694-1.962-0.926c-3.907-1.209-9.398-1.778-13.376-2.829c-1.537-0.406-3.118-0.914-4.348-1.961
			c-0.885-0.745-1.512-1.751-1.958-2.808c-0.693-1.648-1.067-3.427-1.364-5.184c-0.361-2.182-0.583-4.565-0.761-6.773
			c-0.302-4.678-1.32-21.332-1.423-25.895c-0.081-3.494,0.038-7.118,0.403-10.595c1.033-8.48,2.906-22.456,3.807-31.008
			c1.53-11.692,3.999-23.624,6.741-35.093"/>
	</g>
	<g id="POLYLINE_00000034066910662081533480000009358903636880736432_">
		
			<path fill="none" stroke="#FB8604" stroke-width="2.75" stroke-linecap="round" stroke-linejoin="round" stroke-miterlimit="10" d="
			M536.945,214.217c2.293,2.28,4.526,4.847,5.482,7.997c0.382,1.249,0.469,2.572,0.404,3.871c-0.134,2.876-0.94,6.089-0.454,8.96
			c0.221,1.352,0.758,2.639,1.376,3.854c1.268,2.494,3.065,5.001,3.86,7.703c0.325,1.086,0.446,2.229,0.431,3.36
			c-0.021,2.502-0.686,5.202-0.879,7.691c-0.086,1.123-0.058,2.273,0.245,3.364c0.408,1.562,1.4,3.31,2.065,4.78
			c0.682,1.479,1.231,3.041,1.544,4.641c0.354,1.764,0.439,3.594,0.419,5.39c-0.036,2.676-0.325,5.418-0.752,8.06
			c-0.527,3.049-1.185,6.157-2.397,9.014c-0.341,0.751-0.711,1.522-1.296,2.115l-0.033,0.031l-0.033,0.03l-0.033,0.029l-0.033,0.028
			l-0.033,0.027l-0.033,0.025l-0.033,0.024l-0.033,0.023l-0.033,0.022l-0.033,0.021l-0.033,0.019l-0.033,0.018l-0.033,0.017
			l-0.033,0.016l-0.033,0.014l-0.033,0.013l-0.032,0.012l-0.032,0.01l-0.032,0.009l-0.032,0.008l-0.032,0.007l-0.032,0.005
			c-0.481,0.061-0.894-0.271-1.243-0.559l-0.442-0.386c-0.176-0.144-0.376-0.327-0.606-0.367l-0.007-0.001l-0.007-0.001
			l-0.007-0.001l-0.007,0l-0.007,0l-0.007,0l-0.007,0l-0.007,0l-0.007,0l-0.007,0l-0.007,0l-0.014,0.002l-0.014,0.002l-0.014,0.003
			l-0.014,0.003l-0.013,0.004l-0.013,0.005l-0.013,0.005l-0.013,0.006l-0.013,0.007l-0.013,0.007l-0.013,0.008l-0.013,0.008
			l-0.012,0.009l-0.012,0.01l-0.012,0.01l-0.012,0.011l-0.012,0.011l-0.012,0.012l-0.012,0.013l-0.012,0.013l-0.012,0.014
			l-0.011,0.014l-0.011,0.015l-0.011,0.015l-0.011,0.016l-0.011,0.016l-0.011,0.017l-0.011,0.018
			c-0.117,0.197-0.187,0.421-0.249,0.64c-0.177,0.664-0.266,1.379-0.353,2.061c-0.347,3.012-0.586,6.702-1.417,9.59
			c-0.521,1.831-1.365,3.568-2.315,5.213c-0.978,1.694-2.185,3.625-2.895,5.431c-0.604,1.483-0.957,3.078-1.23,4.653
			c-0.461,2.621-0.736,5.767-1.396,8.341c-0.241,0.918-0.544,1.837-1.011,2.667c-0.528,0.966-1.368,1.723-2.309,2.277
			c-1.718,1-3.785,1.743-5.362,2.987c-1.118,0.839-2.051,1.909-2.872,3.035c-1.627,2.196-3.17,5.109-4.797,7.307
			c-0.509,0.652-1.085,1.381-1.842,1.742l-0.031,0.013l-0.031,0.013l-0.031,0.012l-0.031,0.011l-0.031,0.011l-0.03,0.01l-0.03,0.009
			l-0.03,0.008l-0.03,0.008l-0.03,0.007l-0.03,0.006l-0.03,0.006l-0.03,0.005l-0.03,0.004l-0.03,0.003l-0.03,0.003l-0.03,0.002
			l-0.03,0.001l-0.03,0l-0.03-0.001l-0.03-0.001l-0.03-0.002l-0.03-0.003l-0.029-0.004l-0.029-0.004l-0.029-0.005l-0.029-0.006
			l-0.029-0.007l-0.029-0.008l-0.029-0.009l-0.029-0.009l-0.029-0.01l-0.029-0.011l-0.029-0.012l-0.029-0.013l-0.027-0.013
			l-0.027-0.013l-0.027-0.014l-0.026-0.015l-0.026-0.015l-0.026-0.016l-0.026-0.017l-0.026-0.018l-0.026-0.018l-0.026-0.019
			c-0.309-0.229-0.551-0.538-0.768-0.853c-0.721-1.08-1.232-2.362-1.736-3.556c-0.64-1.508-1.359-3.532-2.241-4.902
			c-0.197-0.296-0.417-0.589-0.697-0.811l-0.024-0.019l-0.024-0.018l-0.024-0.017l-0.025-0.017l-0.025-0.016l-0.025-0.015
			l-0.025-0.015l-0.025-0.014l-0.025-0.013l-0.025-0.012l-0.025-0.012l-0.025-0.011l-0.025-0.01l-0.025-0.009l-0.025-0.009
			l-0.025-0.008l-0.025-0.007l-0.025-0.006l-0.025-0.006l-0.017-0.003l-0.017-0.003l-0.017-0.003l-0.017-0.002l-0.017-0.002
			l-0.017-0.002l-0.017-0.001l-0.017-0.001l-0.017-0.001l-0.017,0l-0.017,0l-0.017,0l-0.017,0.001l-0.017,0.001l-0.017,0.001
			l-0.017,0.002l-0.017,0.002l-0.017,0.002l-0.017,0.003c-0.25,0.043-0.474,0.174-0.675,0.324c-0.41,0.312-0.75,0.715-1.075,1.111
			c-0.485,0.592-1.103,1.486-1.678,1.981c-0.121,0.1-0.251,0.193-0.398,0.249l-0.014,0.005l-0.014,0.005l-0.014,0.004l-0.014,0.004
			l-0.013,0.004l-0.013,0.003l-0.013,0.003l-0.013,0.003l-0.013,0.003l-0.013,0.002l-0.013,0.002l-0.012,0.002l-0.012,0.001
			l-0.012,0.001l-0.012,0.001l-0.012,0.001l-0.012,0l-0.012,0l-0.012,0l-0.012,0l-0.012-0.001l-0.012-0.001l-0.012-0.001
			l-0.012-0.001l-0.012-0.001l-0.012-0.002l-0.012-0.002l-0.012-0.002l-0.012-0.002l-0.012-0.003l-0.012-0.003l-0.012-0.003
			l-0.012-0.003l-0.012-0.004l-0.012-0.004l-0.012-0.004l-0.012-0.004l-0.012-0.005c-0.198-0.081-0.353-0.239-0.485-0.403
			c-0.351-0.457-0.582-1.002-0.809-1.529c-0.375-0.895-0.769-2.002-1.211-2.861c-0.37-0.732-0.82-1.439-1.306-2.099
			c-1.113-1.459-2.919-3.632-4.033-5.1c-0.569-0.704-1.176-1.449-1.838-2.067c-0.348-0.312-0.775-0.689-1.245-0.772l-0.015-0.002
			l-0.015-0.002l-0.014-0.001l-0.014-0.001l-0.014-0.001l-0.014-0.001l-0.014,0l-0.014,0l-0.014,0l-0.014,0.001l-0.014,0.001
			l-0.014,0.001l-0.014,0.001l-0.013,0.002l-0.013,0.002l-0.013,0.002l-0.012,0.002l-0.012,0.003l-0.012,0.003l-0.012,0.003
			l-0.012,0.003l-0.012,0.004l-0.012,0.004l-0.012,0.004l-0.011,0.004l-0.011,0.005l-0.011,0.005l-0.011,0.005l-0.011,0.005
			l-0.011,0.005l-0.011,0.006l-0.011,0.006l-0.011,0.006l-0.011,0.006l-0.011,0.007l-0.011,0.007
			c-0.176,0.117-0.298,0.297-0.4,0.478c-0.521,1.017-0.857,2.625-1.337,3.716c-0.544,1.351-1.423,2.574-2.561,3.487
			c-0.473,0.371-0.996,0.713-1.586,0.856c-0.262,0.06-0.553,0.073-0.797-0.055l-0.012-0.006l-0.012-0.006l-0.011-0.007l-0.011-0.007
			l-0.011-0.007l-0.017-0.011l-0.016-0.012l-0.016-0.012l-0.016-0.012l-0.015-0.013l-0.015-0.013l-0.015-0.014l-0.015-0.014
			l-0.014-0.015l-0.014-0.015l-0.014-0.016l-0.014-0.016l-0.013-0.016l-0.013-0.017l-0.013-0.017l-0.013-0.018l-0.012-0.018
			l-0.012-0.019l-0.012-0.019l-0.012-0.019l-0.011-0.02l-0.011-0.02c-0.11-0.207-0.17-0.438-0.212-0.668
			c-0.078-0.428-0.089-0.892-0.093-1.327c0.052-2.874,0.438-5.958,0.213-8.822c-0.32-5.334-3.033-10.508-5.03-15.379
			c-1.286-3.124-2.426-6.399-2.574-9.802c-0.308-6.53,2.245-12.972,3.017-19.389c0.533-4.013-0.265-8.336-0.46-12.339
			c-0.071-1.762,0.016-3.557,0.479-5.265c0.726-2.787,2.579-5.967,3.844-8.562c0.844-1.731,1.617-3.533,2.012-5.424
			c0.841-4.031,0.15-8.353,0.486-12.427c0.146-2.057,0.684-4.077,1.453-5.986c1.384-3.552,3.548-7.036,4.344-10.794
			c0.443-2.077,0.425-4.648,0.487-6.776c0.046-1.209,0.127-2.447,0.444-3.62c0.587-2.238,2.222-4.18,3.291-6.192
			c0.544-0.994,0.927-2.077,1.213-3.172c0.709-2.713,1.143-5.714,2.798-8.053c1.155-1.662,2.727-3,4.386-4.14
			c2.478-1.689,5.239-2.996,8-4.152c12.447-5.102,25.961-7.526,39.369-8.032c3.325-0.081,6.718-0.048,10.009,0.475
			c1.776,0.295,3.567,0.765,5.12,1.703c0.803,0.483,1.531,1.096,2.155,1.795c1.349,1.543,2.412,3.551,3.916,4.96
			c1.045,1.017,2.356,1.722,3.726,2.197c2.027,0.704,4.184,1.03,6.312,1.247c11.195,0.973,27.165-0.264,38.34,0.87l4.926,0.561"/>
	</g>
	<g id="POLYLINE_00000152258709938664800090000016321282528044780417_">
		
			<path fill="none" stroke="#FB8604" stroke-width="2.75" stroke-linecap="round" stroke-linejoin="round" stroke-miterlimit="10" d="
			M636.324,191.129c-0.815-1.188-2.441-1.274-3.752-1.352c-1.587-0.04-3.359-0.224-4.869,0.35c-0.472,0.187-0.909,0.475-1.237,0.866
			c-0.35,0.415-0.572,0.925-0.718,1.444c-0.398,1.485-0.294,3.072,0.059,4.555c0.326,1.3,0.879,2.593,1.839,3.553
			c1.086,1.095,2.636,1.698,4.175,1.665c0.92-0.014,1.848-0.29,2.538-0.917c0.563-0.499,0.968-1.153,1.29-1.827
			c0.426-0.902,0.73-1.865,0.951-2.837c0.265-1.205,0.421-2.456,0.297-3.689C636.827,192.308,636.68,191.663,636.324,191.129z"/>
	</g>
</g>
<g id="_x32_D_x24_AG-OUTLINE">
	<g id="POLYLINE_00000057836684094845084660000003202437149430249640_">
		
			<path fill="none" stroke="#FB8604" stroke-width="3.5" stroke-linecap="round" stroke-linejoin="round" stroke-miterlimit="10" d="
			M425.997,455.698c-0.159,1.35-0.32,2.769-0.29,4.127c0.019,0.652,0.077,1.316,0.276,1.94c0.145,0.459,0.392,0.892,0.751,1.218
			c0.515,0.479,1.239,0.751,1.722,1.268c0.409,0.421,0.613,0.996,0.684,1.57c0.081,0.638,0.056,1.296,0.019,1.936
			c-0.127,2.252-2.458,20.138-2.757,22.778c-0.288,2.181-0.911,5.9-1.281,8.102c-0.091,0.647-0.191,1.302-0.197,1.952
			c-0.004,0.403,0.033,0.809,0.15,1.196c0.177,0.609,0.571,1.132,1.05,1.539c0.637,0.554,1.462,0.97,2,1.634
			c0.451,0.534,0.772,1.167,1.039,1.809c0.412,1.004,0.707,2.077,0.969,3.128c1.402,5.909,1.988,12.039,1.893,18.107
			c-0.005,2.9-0.335,6.536-0.43,9.443c0.002,0.411,0.016,0.835,0.1,1.239c0.075,0.368,0.228,0.733,0.507,0.992
			c0.667,0.614,1.701,0.734,2.506,1.114c0.388,0.173,0.744,0.42,1.028,0.736c0.453,0.499,0.736,1.127,0.953,1.758
			c0.828,2.534,0.904,5.622,1.872,8.115c0.31,0.792,0.835,1.496,1.512,2.012c0.733,0.567,1.541,0.987,2.095,1.779
			c0.309,0.418,0.557,0.883,0.774,1.355c0.657,1.42,1.379,3.979,1.873,5.464c0.585,1.75,1.257,3.521,2.385,5.001
			c0.748,1.014,1.75,2.089,2.387,3.177c0.538,0.899,0.888,1.918,1.219,2.908l3.42,10.802c1.656,5.623,3.39,13.849,5.073,19.475
			c0.309,0.925,0.652,1.864,1.134,2.714c0.372,0.656,0.844,1.269,1.45,1.725c0.616,0.471,1.35,0.765,2.094,0.964
			c1.105,0.294,2.267,0.411,3.406,0.49c2.473,0.218,33.906,0.118,36.989,0.098c0.641-0.036,1.299-0.102,1.898-0.349
			c0.993-0.403,1.66-1.316,2.142-2.238c1.896-3.781,1.373-8.36-0.32-12.119c-0.952-2.115-2.194-4.128-3.529-6.02
			c-0.499-0.69-1.044-1.384-1.626-2.007c-0.35-0.375-0.729-0.733-1.155-1.02c-0.599-0.409-1.278-0.694-1.962-0.926
			c-3.907-1.209-9.398-1.778-13.376-2.829c-1.537-0.406-3.118-0.914-4.348-1.961c-0.885-0.745-1.512-1.751-1.958-2.808
			c-0.693-1.648-1.067-3.427-1.364-5.184c-0.361-2.182-0.583-4.565-0.761-6.773c-0.302-4.678-1.32-21.332-1.423-25.895
			c-0.081-3.494,0.038-7.118,0.403-10.595c1.033-8.48,2.906-22.456,3.807-31.008c1.53-11.692,3.999-23.624,6.741-35.093
			c0.645-4.105,1.73-8.384,4.497-11.602c1.969-2.256,4.682-4.096,6.918-6.073c2.116-1.812,4.013-3.914,5.732-6.103l5.275-6.853
			c1.045-1.299,2.138-2.627,3.38-3.742c0.57-0.501,1.184-0.981,1.89-1.274c0.34-0.139,0.703-0.222,1.07-0.247
			c0.544-0.045,1.211,0.065,1.754,0.129c0.347,0.038,0.703,0.058,1.048-0.006c0.272-0.05,0.532-0.158,0.768-0.302
			c0.484-0.298,0.876-0.723,1.22-1.17c0.597-0.789,1.062-1.683,1.476-2.579c2.144-4.727,3.277-10.935,4.888-15.861
			c0.332-1,0.705-2.041,1.173-2.986c0.369-0.719,0.8-1.494,1.486-1.952l0.029-0.018l0.029-0.017l0.029-0.017l0.029-0.016
			l0.029-0.015l0.029-0.015l0.029-0.014l0.029-0.013l0.029-0.012l0.029-0.012l0.03-0.011l0.03-0.01l0.03-0.01
			c0.268-0.085,0.558-0.079,0.832-0.028c0.653,0.121,1.294,0.489,1.934,0.658c0.27,0.07,0.565,0.105,0.833,0.009l0.022-0.008
			l0.022-0.009l0.022-0.009l0.022-0.01l0.022-0.01l0.021-0.011l0.021-0.012l0.021-0.012l0.021-0.013l0.021-0.013l0.021-0.014
			l0.021-0.014l0.021-0.015l0.02-0.015l0.02-0.016l0.02-0.016l0.02-0.017l0.02-0.018l0.02-0.018c0.45-0.439,0.673-1.054,0.865-1.64
			c0.287-0.932,0.45-1.92,0.579-2.886c0.506-3.892,0.417-8.71,0.432-12.658c0.027-1.207,0.046-2.462,0.313-3.643
			c0.105-0.433,0.248-0.873,0.519-1.233c0.138-0.182,0.315-0.337,0.523-0.431c0.328-0.149,0.698-0.167,1.052-0.173
			c0.573-0.016,1.348,0.089,1.82-0.295l0.013-0.011l0.013-0.011l0.013-0.011c0.3-0.285,0.411-0.708,0.474-1.104
			c0.085-0.579,0.065-1.173,0.02-1.755c-0.101-1.217-0.346-2.477-0.599-3.672c-0.288-1.319-0.942-3.879-1.101-5.178
			c-0.048-0.394-0.079-0.797-0.053-1.193c0.025-0.357,0.096-0.726,0.294-1.03c0.39-0.592,1.231-0.75,1.817-1.091
			c0.43-0.23,0.798-0.58,0.982-1.037c0.202-0.485,0.27-1.017,0.309-1.538c0.107-1.699-0.139-3.693-0.132-5.395
			c0.003-0.518,0.024-1.047,0.117-1.557c0.075-0.409,0.212-0.815,0.461-1.152c0.225-0.309,0.535-0.548,0.868-0.732
			c0.952-0.506,2.16-0.821,3.143-1.262c1.832-0.8,3.588-1.831,5.171-3.052c0.867-0.688,1.721-1.442,2.323-2.38
			c0.272-0.437,0.494-0.939,0.462-1.463l-0.002-0.027l-0.003-0.027c-0.089-0.769-0.702-1.348-1.242-1.847
			c-0.496-0.452-1.215-1.001-1.598-1.549c-0.114-0.165-0.209-0.347-0.249-0.545l-0.004-0.02l-0.004-0.02l-0.003-0.021l-0.003-0.021
			l-0.002-0.021l-0.002-0.021l-0.002-0.021l-0.001-0.021l-0.001-0.021l0-0.021l0-0.021l0-0.021l0.001-0.021l0.001-0.021l0.001-0.021
			c0.05-0.534,0.397-0.981,0.74-1.371c1.468-1.547,3.768-3.008,5.357-4.431c1.84-1.62,3.512-3.517,4.614-5.721
			c0.229-0.482,0.433-0.989,0.519-1.518c0.039-0.255,0.051-0.522-0.021-0.772c-0.105-0.383-0.45-0.654-0.726-0.917
			c-0.163-0.156-0.316-0.33-0.412-0.537c-0.118-0.252-0.16-0.533-0.171-0.809c-0.017-0.525,0.073-1.052,0.189-1.563
			c0.537-2.316,2.037-5.215,2.997-7.402c0.897-2.047,1.655-4.195,1.949-6.418c0.121-0.984,0.177-2.008-0.081-2.976
			c-0.12-0.439-0.333-0.86-0.668-1.174c-0.732-0.686-1.917-1.007-2.773-1.555c-1.079-0.654-1.915-1.64-2.62-2.672
			c-2.747-4.187-3.864-9.292-3.925-14.252c-0.044-4.72,0.706-9.463,1.652-14.076c1.43-6.551,3.375-13.168,6.834-18.958
			c1.575-2.579,3.554-4.973,6.058-6.698c1.288-0.893,2.718-1.595,4.207-2.082c3.309-1.112,7.743-1.449,11.205-1.929
			c3.284-0.417,6.535-1.295,9.649-2.408c2.243-0.809,7.522-2.803,9.697-3.467c2.299-0.722,6.701-2.032,8.886-2.864
			c2.251-0.839,4.482-1.838,6.501-3.147c2.504-1.62,4.657-3.755,6.455-6.125c1.946-2.578,3.526-5.464,4.631-8.5
			c0.913-2.498,1.465-5.142,1.832-7.772c0.369-2.681,0.711-5.536,0.781-8.241c0.478-0.884,0.809-1.848,1.061-2.819
			c0.279-1.104,0.456-2.247,0.446-3.387c-0.021-0.916-0.135-1.909-0.696-2.665c-0.317-0.418-0.781-0.702-1.271-0.873
			c-0.766-0.267-1.595-0.324-2.4-0.367c-1.193-0.041-2.445-0.124-3.631,0.038c-0.592,0.084-1.186,0.237-1.707,0.539l-4.926-0.561
			c-10.078-1.022-25.735-0.108-35.888-0.679c-1.568-0.093-3.199-0.239-4.75-0.479c-1.946-0.312-3.914-0.76-5.674-1.673
			c-1.169-0.601-2.174-1.485-3.008-2.494c-1.107-1.305-2.071-3.04-3.27-4.265c-1.014-1.053-2.289-1.835-3.657-2.338
			c-1.934-0.715-4.017-0.993-6.062-1.172c-3.452-0.28-7.029-0.199-10.487-0.002c-12.323,0.801-24.704,3.173-36.151,7.888
			c-3.805,1.614-7.665,3.448-10.694,6.321c-1.03,0.995-1.932,2.147-2.547,3.444c-0.995,2.023-1.368,4.417-1.944,6.58
			c-0.284,1.094-0.67,2.178-1.213,3.172c-0.89,1.686-2.258,3.42-2.959,5.204c-0.587,1.434-0.715,3.01-0.773,4.544
			c-0.016,0.653-0.063,2.577-0.088,3.199c-3.936,3.864-7.816,8.007-10.329,12.964c-1.342,2.594-2.254,5.44-3.048,8.245
			c-1.087,3.815-2.135,8.612-3.84,12.175c-0.561,1.174-1.271,2.289-2.083,3.304c-1.223,1.562-3.129,3.329-4.503,4.771
			c-1.594,1.636-2.925,3.461-4.043,5.452c-2.135,3.694-4.109,8.326-7.256,11.222c-2.058,1.889-4.774,2.813-7.453,3.418
			c-3.709,0.81-8.141,1.383-11.757,2.477c-10.922,3.244-22.299,9.654-33.047,13.414c-11.331,4.132-23.397,6.265-35.425,6.856
			c-26.223,1.49-54.756-3.567-80.969-3.948c-8.608-0.086-17.466,0.629-26.007,1.71c-7.105,0.897-14.605,2.081-21.625,3.508
			c-6.553,1.365-13.315,2.988-19.598,5.315c-3.914,1.447-7.736,3.289-11.06,5.835c-4.012,2.99-7.592,7.265-11.219,10.687
			c-6.808,6.47-15.303,13.815-20.454,21.733c-4.731,7.148-7.656,15.406-9.204,23.806c-1.213,6.068-1.481,13.662-1.937,19.842
			c-0.348,3.972-0.69,8.149-2.282,11.846c-0.878,2.044-2.474,4.124-3.571,6.054c-0.566,1.007-1.036,2.085-1.286,3.216
			c-0.202,0.889-0.261,1.809-0.236,2.718c0.078,2.932,1.002,6.658,1.536,9.556c0.269,1.488,0.517,3.022,0.545,4.536
			c0.013,0.895-0.05,1.806-0.309,2.666c-0.235,0.781-0.644,1.513-1.206,2.107c-0.568,0.605-1.282,1.065-2.047,1.381
			c-3.009,1.213-6.349,0.477-9.365-0.342c-3.959-1.081-8.458-2.888-12.587-3.046c-1.845-0.065-3.698,0.23-5.495,0.624
			c-2.978,0.681-6.177,1.552-9.235,1.589c-3.988,0.05-7.94-0.939-11.763-1.987c-1.004-0.268-4.971-1.515-5.931-1.657
			c-0.169-0.022-0.357-0.035-0.507,0.06c-0.176,0.116-0.251,0.329-0.318,0.519c-0.175,0.547-0.246,1.131-0.305,1.7
			c-0.092,0.988-0.101,1.999-0.062,2.99c0.145,3.242,0.782,6.504,2.121,9.472c1.328,2.991,3.621,5.427,5.983,7.639
			c0.846,0.814,2.322,2.089,3.03,3.021c0.133,0.179,0.259,0.371,0.341,0.58l0.009,0.023l0.008,0.023l0.008,0.023l0.007,0.022
			l0.007,0.022l0.006,0.022l0.005,0.022l0.005,0.022l0.004,0.022l0.004,0.021l0.003,0.021l0.003,0.021l0.002,0.021l0.001,0.021
			l0.001,0.02l0,0.02l0,0.02l-0.001,0.02l-0.002,0.02l-0.002,0.02l-0.003,0.019l-0.003,0.019l-0.004,0.019l-0.005,0.019
			l-0.005,0.019l-0.006,0.018l-0.007,0.018l-0.007,0.018l-0.008,0.018l-0.008,0.018l-0.009,0.017l-0.01,0.017l-0.01,0.017
			l-0.011,0.017l-0.012,0.017l-0.007,0.01l-0.008,0.01c-0.087,0.111-0.204,0.194-0.325,0.266c-0.603,0.341-1.518,0.538-2.18,0.746
			c-0.396,0.123-0.803,0.253-1.166,0.458c-0.175,0.102-0.347,0.225-0.459,0.396l-0.007,0.011l-0.007,0.011l-0.007,0.012
			l-0.007,0.012l-0.006,0.012l-0.006,0.012l-0.006,0.012l-0.006,0.012l-0.005,0.012l-0.005,0.012l-0.009,0.023l-0.008,0.023
			l-0.007,0.023l-0.006,0.023l-0.005,0.024l-0.004,0.024l-0.004,0.024l-0.003,0.025l-0.002,0.025l-0.001,0.025l0,0.025l0.001,0.026
			l0.001,0.026l0.002,0.026l0.003,0.026l0.004,0.027l0.005,0.027l0.005,0.027l0.006,0.027l0.007,0.028l0.008,0.028l0.008,0.028
			l0.009,0.028l0.01,0.029l0.011,0.029l0.012,0.029l0.012,0.029l0.013,0.03c0.156,0.339,0.397,0.636,0.645,0.913
			c0.454,0.497,0.984,0.949,1.508,1.369c2.326,1.822,4.982,3.394,7.534,4.881c2.139,1.193,4.506,2.608,6.75,3.581
			c1.387,0.594,2.878,0.939,4.372,1.133c4.858,0.612,10.988,0.526,15.799,1.414c0.612,0.135,1.254,0.27,1.8,0.59l0.026,0.016
			l0.025,0.016l0.024,0.017l0.023,0.017l0.022,0.017l0.021,0.017l0.021,0.017l0.02,0.017l0.019,0.017l0.018,0.017l0.017,0.018
			l0.016,0.018l0.015,0.018l0.014,0.018l0.014,0.018l0.013,0.018l0.012,0.018l0.011,0.019l0.01,0.019l0.009,0.019l0.008,0.019
			l0.007,0.019l0.006,0.019l0.005,0.019l0.004,0.02l0.003,0.02l0.002,0.02l0.001,0.02l0,0.02l-0.001,0.02l-0.002,0.02l-0.003,0.021
			l-0.004,0.021l-0.003,0.014l-0.003,0.014l-0.004,0.014l-0.004,0.014l-0.005,0.014l-0.005,0.014l-0.005,0.014l-0.006,0.014
			l-0.006,0.014l-0.007,0.014l-0.007,0.014l-0.007,0.014l-0.008,0.014l-0.008,0.014l-0.009,0.015
			c-0.096,0.157-0.229,0.29-0.365,0.413c-0.735,0.644-2.141,1.413-2.974,1.944c-0.502,0.32-1.019,0.653-1.457,1.057
			c-0.172,0.162-0.338,0.339-0.446,0.551l-0.008,0.017l-0.008,0.017l-0.007,0.017l-0.007,0.017l-0.007,0.016l-0.006,0.016
			l-0.006,0.016l-0.005,0.016l-0.005,0.016l-0.005,0.016l-0.004,0.016l-0.004,0.016l-0.003,0.016l-0.003,0.016l-0.004,0.029
			l-0.003,0.029l-0.001,0.029l0,0.028l0.002,0.028l0.003,0.028l0.004,0.028l0.006,0.028l0.007,0.028l0.008,0.028l0.01,0.027
			l0.011,0.027l0.012,0.027l0.014,0.027l0.015,0.027l0.016,0.027l0.017,0.027l0.019,0.026l0.02,0.026l0.021,0.026l0.022,0.026
			l0.024,0.026l0.025,0.026l0.026,0.025l0.027,0.025l0.029,0.025l0.03,0.025l0.031,0.025l0.032,0.025l0.033,0.025l0.034,0.024
			c0.564,0.378,1.23,0.582,1.878,0.768c2.744,0.715,5.644,0.962,8.464,1.185c3.783,0.257,7.811,0.361,11.6,0.225
			c2.751-0.099,5.535-0.414,8.182-1.192l3.118-0.933c-2.651,4.232-5.687,8.397-8.82,12.29c-2.839,3.562-7.358,8.548-10.416,12.011
			c-2.809,3.293-5.709,6.69-7.457,10.69c-1.371,3.141-1.804,6.606-1.778,10.009c0.143,4.411,0.246,11.642,0.621,15.993
			c0.273,3.322,0.85,6.697,1.64,9.934c2.767,11.029,7.251,23.343,8.722,34.622c0.261,2.071,0.42,4.296,0.492,6.384
			c0.089,3.128,0.116,6.846,0.765,9.909c0.425,2.041,0.896,4.141,1.952,5.96c0.395,0.665,0.884,1.287,1.493,1.77
			c0.479,0.382,1.032,0.667,1.61,0.867c1.001,0.348,2.075,0.477,3.127,0.561c3.629,0.223,30.51,0.108,34.463,0.083
			c0.779-0.047,1.573-0.155,2.294-0.467c0.593-0.254,1.12-0.664,1.501-1.185c0.456-0.618,0.724-1.356,0.923-2.092
			c0.44-1.7,0.541-3.484,0.503-5.234c-0.051-1.638-0.228-3.302-0.769-4.857c-0.51-1.497-1.424-2.823-2.386-4.063
			c-1.335-1.698-2.801-3.383-4.368-4.871c-0.34-0.31-0.709-0.595-1.119-0.807c-0.448-0.235-0.941-0.381-1.435-0.481
			c-3.183-0.555-7.047-0.273-10.221-0.952c-0.853-0.191-1.617-0.562-2.202-1.226c-0.499-0.555-0.867-1.219-1.194-1.886
			c-1.686-3.699-2.883-7.886-4.085-11.772c-1.756-6.05-3.452-12.37-4.417-18.596c-0.995-6.377-1.022-13.041,1.114-19.198
			c1.948-5.717,5.356-10.835,9.115-15.516c2.708-3.335,5.701-6.493,8.951-9.306c2.529-2.194,5.334-4.184,8.137-6.012
			c3.548-2.285,9.459-5.884,12.893-8.299c3.84-2.666,7.679-5.628,11.212-8.689c5.673-4.897,10.879-10.487,15.437-16.434
			c3.099-4.075,6.078-8.401,8.324-13.012c2.04-4.154,3.293-8.699,4.401-13.176c0.785-3.302,1.491-6.832,1.89-10.207
			c0.535-4.095,0.633-8.679,0.757-12.775c0.026-0.471,0.04-0.971,0.136-1.433c0.02-0.084,0.043-0.17,0.083-0.247l0.004-0.008
			l0.004-0.008l0.004-0.008l0.004-0.007l0.005-0.007l0.005-0.007l0.005-0.006l0.005-0.006l0.005-0.006l0.005-0.006l0.005-0.005
			l0.005-0.005l0.005-0.005l0.005-0.005l0.005-0.004l0.005-0.004l0.005-0.004l0.005-0.004l0.005-0.003l0.005-0.003l0.005-0.003
			l0.005-0.003l0.005-0.002l0.005-0.002l0.006-0.002l0.006-0.002l0.006-0.001l0.006-0.001l0.006-0.001l0.006-0.001l0.006,0l0.006,0
			h0.006l0.006,0l0.006,0l0.006,0.001l0.006,0.001l0.006,0.001l0.006,0.001l0.006,0.002l0.006,0.002l0.006,0.002l0.007,0.002
			l0.007,0.003l0.007,0.003l0.007,0.003l0.007,0.003l0.007,0.003l0.007,0.004l0.007,0.004l0.007,0.004l0.007,0.004
			c0.092,0.058,0.168,0.139,0.241,0.22c0.515,0.623,1.066,1.496,1.573,2.125c1.069,1.372,2.36,2.57,3.757,3.602
			c0.922,0.666,1.903,1.292,2.98,1.671c0.479,0.158,1.001,0.285,1.503,0.17l0.023-0.006l0.023-0.006l0.023-0.007l0.022-0.007
			l0.022-0.007l0.022-0.008l0.022-0.008l0.021-0.009l0.021-0.009l0.021-0.009l0.021-0.01l0.02-0.01l0.02-0.011l0.02-0.011
			l0.019-0.011l0.019-0.012l0.019-0.012l0.019-0.013l0.018-0.013l0.018-0.013l0.018-0.014l0.017-0.014l0.017-0.015l0.017-0.015
			l0.017-0.016l0.016-0.016l0.016-0.016l0.016-0.017l0.015-0.017l0.015-0.018l0.015-0.018l0.014-0.018l0.014-0.019l0.014-0.019
			l0.014-0.02l0.013-0.02l0.015-0.023l0.014-0.024l0.014-0.025l0.013-0.025l0.013-0.026l0.013-0.026l0.012-0.027l0.012-0.027
			l0.011-0.028l0.011-0.028c0.136-0.367,0.163-0.766,0.168-1.155c0-0.913-0.155-1.847-0.314-2.745
			c-0.326-1.843-1.037-4.516-1.144-6.371c-0.013-0.352-0.012-0.714,0.083-1.056l0.008-0.026l0.008-0.026l0.009-0.025l0.009-0.025
			l0.009-0.024l0.01-0.023l0.01-0.023l0.01-0.022l0.011-0.022l0.011-0.021l0.012-0.021c0.214-0.381,0.664-0.439,1.061-0.416
			c0.715,0.043,1.481,0.281,2.199,0.29c0.278,0.004,0.562-0.031,0.82-0.139c0.57-0.232,0.958-0.757,1.204-1.304
			c0.281-0.628,0.419-1.314,0.496-1.995c0.132-1.187,0.054-2.4-0.079-3.583c1.448,0.196,3.066,0.195,4.495,0.506
			c1.201,0.25,2.355,0.711,3.438,1.282c4.622,2.498,9.689,7.037,14.261,9.625c0.588,0.307,1.2,0.624,1.863,0.725l0.035,0.004
			l0.034,0.003l0.034,0.003l0.033,0.002l0.033,0.001l0.032,0.001l0.031,0l0.031-0.001l0.03-0.002l0.03-0.002l0.029-0.003
			l0.029-0.004l0.028-0.005l0.027-0.006l0.027-0.006c0.508-0.128,0.688-0.711,0.894-1.13c0.13-0.27,0.286-0.551,0.551-0.709
			l0.019-0.011l0.019-0.011l0.02-0.01l0.02-0.01l0.02-0.009l0.021-0.009l0.021-0.009l0.021-0.008l0.022-0.008l0.022-0.007
			L302.09,415l0.023-0.007l0.023-0.006l0.023-0.006l0.024-0.005l0.024-0.005l0.024-0.005c0.552-0.088,1.111,0.069,1.633,0.237
			c2.162,0.777,4.126,2.092,6.03,3.357c2.511,1.68,5.913,4.411,8.314,6.309c1.738,1.356,3.557,2.713,5.495,3.769
			c1.825,1.016,3.828,1.697,5.852,2.195c2.761,0.686,6.446,1.325,9.175,2.116c2.141,0.596,4.245,1.435,6.239,2.413l5.655,2.851
			c1.065,0.504,2.168,1.008,3.311,1.304c0.544,0.135,1.113,0.228,1.673,0.157c0.819-0.092,1.525-0.653,2.175-1.118
			c0.361-0.251,0.75-0.487,1.185-0.579c0.446-0.095,0.91-0.039,1.349,0.067c0.619,0.152,1.219,0.411,1.793,0.684
			c2.48,1.244,5.077,2.931,7.623,4.036c4.322,1.972,9.32,3.502,13.865,4.925c4.43,1.327,11.177,3.503,15.651,4.456
			c1.437,0.315,2.993,0.568,4.452,0.768C409.71,453.687,420.034,455.106,425.997,455.698z"/>
	</g>
</g>
</svg>
