<?xml version="1.0" encoding="utf-8"?>
<!-- Generator: Adobe Illustrator 25.4.1, SVG Export Plug-In . SVG Version: 6.00 Build 0)  -->
<!DOCTYPE svg PUBLIC "-//W3C//DTD SVG 1.1//EN" "http://www.w3.org/Graphics/SVG/1.1/DTD/svg11.dtd" [
	<!ENTITY ns_extend "http://ns.adobe.com/Extensibility/1.0/">
	<!ENTITY ns_ai "http://ns.adobe.com/AdobeIllustrator/10.0/">
	<!ENTITY ns_graphs "http://ns.adobe.com/Graphs/1.0/">
	<!ENTITY ns_vars "http://ns.adobe.com/Variables/1.0/">
	<!ENTITY ns_imrep "http://ns.adobe.com/ImageReplacement/1.0/">
	<!ENTITY ns_sfw "http://ns.adobe.com/SaveForWeb/1.0/">
	<!ENTITY ns_custom "http://ns.adobe.com/GenericCustomNamespace/1.0/">
	<!ENTITY ns_adobe_xpath "http://ns.adobe.com/XPath/1.0/">
]>
<svg version="1.1" xmlns:x="&ns_extend;" xmlns:i="&ns_ai;" xmlns:graph="&ns_graphs;"
	 xmlns="http://www.w3.org/2000/svg" xmlns:xlink="http://www.w3.org/1999/xlink" x="0px" y="0px" width="750px" height="750px"
	 viewBox="0 0 750 750" enable-background="new 0 0 750 750" xml:space="preserve">
<metadata>
	<sfw  xmlns="&ns_sfw;">
		<slices></slices>
		<sliceSourceBounds  bottomLeftOrigin="true" height="12340.413" width="5671" x="-2000" y="-3364"></sliceSourceBounds>
	</sfw>
</metadata>
<g id="FILL-BACKGROUND">
	<rect fill="#FFFFFF" width="750" height="750"/>
</g>
<g id="N-DIMENSIONS">
</g>
<g id="N-TEXT">
</g>
<g id="_x32_D_x24_AG-DIAGRAM">
	<g id="POLYLINE_00000025406488355614226720000017032474085976408455_">
		<g>
			<g>
				
					<line fill="none" stroke="#FB8604" stroke-width="3.25" stroke-linecap="round" stroke-linejoin="round" x1="101.895" y1="615.587" x2="103.895" y2="615.587"/>
				
					<line fill="none" stroke="#FB8604" stroke-width="3.25" stroke-linecap="round" stroke-linejoin="round" stroke-dasharray="4.0075,7.0132" x1="110.908" y1="615.587" x2="548.228" y2="615.587"/>
				
					<line fill="none" stroke="#FB8604" stroke-width="3.25" stroke-linecap="round" stroke-linejoin="round" x1="551.735" y1="615.587" x2="553.735" y2="615.587"/>
			</g>
		</g>
	</g>
</g>
<g id="_x32_D_x24_AG-DETAILS-DIAGRAM">
</g>
<g id="_x32_D_x24_AG-DETAILS">
	<g id="POLYLINE_00000030457295279852491270000004547342203244632722_">
		<path fill="none" stroke="#FB8604" stroke-width="2" stroke-linecap="round" stroke-linejoin="round" stroke-miterlimit="10" d="
			M575.227,363.622c-4.06-0.577-8.443-1.786-11.178-5.045c-2.067-2.479-3.355-6.063-4.708-8.974c-1.22-2.734-2.762-5.4-4.375-7.922
			c-2.529-3.934-6.905-10.319-8.984-14.413c-1.256-2.384-2.308-4.968-3.207-7.508l-2.239-6.527c-0.825-2.302-1.746-4.64-2.985-6.75
			c-0.707-1.218-1.568-2.37-2.481-3.441c-1.454-1.751-3.405-3.541-4.57-5.503c-0.335-0.591-0.601-1.244-0.634-1.93
			c-0.029-0.561,0.113-1.119,0.333-1.632c0.37-0.855,0.932-1.626,1.491-2.367c1.452-1.869,3.219-3.95,4.151-6.133
			c0.826-1.893,1.209-3.963,1.504-5.998l0.672-5.271c0.404-2.839,0.988-5.744,2.445-8.248c1.221-2.095,3.032-3.808,5.073-5.098
			c1.987-1.248,4.225-2.13,6.548-2.489c1.695-0.257,3.462-0.23,5.111,0.271c3.836,1.197,6.313,4.693,8.277,7.997
			c0.564,0.941,1.6,2.887,2.216,3.755c0.467,0.675,1.041,1.291,1.748,1.717c1.373,0.824,3.018,1.016,4.584,1.156
			c2.426,0.182,4.923,0.092,7.349-0.062c3.952-0.271,8.081-0.788,11.988-1.439c1.742-0.297,6.296-1.237,7.98-1.349
			c1.077-0.09,2.174-0.073,3.241,0.106c2.32,0.389,4.458,1.496,6.42,2.755c2.226,1.448,4.275,3.186,6.106,5.107
			c1.744,1.842,3.32,3.882,4.504,6.131"/>
	</g>
	<g id="POLYLINE_00000078039372972818769570000006796300429134544052_">
		<path fill="none" stroke="#FB8604" stroke-width="2" stroke-linecap="round" stroke-linejoin="round" stroke-miterlimit="10" d="
			M509.009,475.165l-0.951-6.581c-0.472-2.976-1.225-6.017-2.073-8.91c-1.951-6.795-5.013-15.953-6.087-22.859
			c-0.529-3.263-0.834-6.622-0.403-9.914c0.281-2.114,0.898-4.219,2.04-6.033c0.771-1.233,1.784-2.314,2.959-3.169
			c1.372-1.001,2.95-1.701,4.563-2.216c2.325-0.733,4.771-1.101,7.203-1.225c2.555-0.122,5.143,0.022,7.659,0.487
			c1.6,0.299,3.198,0.741,4.69,1.399c1.468,0.64,2.849,1.495,4.141,2.437c2.148,1.584,4.35,3.498,6.693,4.79
			c4.285,2.396,9.073,3.888,13.769,5.253"/>
	</g>
	<g id="POLYLINE_00000054263888269929788380000011068927999388438434_">
		<path fill="none" stroke="#FB8604" stroke-width="2" stroke-linecap="round" stroke-linejoin="round" stroke-miterlimit="10" d="
			M454.833,498.145c2.734,0.822,5.704,1.613,8.191,3.024c1.897,1.049,3.584,2.483,4.921,4.19c2.03,2.592,3.488,5.618,4.788,8.629
			c3.796,8.829,6.189,19.336,11.172,27.616c1.333,2.205,2.922,4.29,4.771,6.088c2.105,2.062,4.544,3.792,7.081,5.283"/>
	</g>
	<g id="POLYLINE_00000119105463595707906240000010518494963327358105_">
		<path fill="none" stroke="#FB8604" stroke-width="2" stroke-linecap="round" stroke-linejoin="round" stroke-miterlimit="10" d="
			M168.633,505.995c0.696,2.701,1.38,5.537,2.894,7.913c0.677,1.038,1.617,2.016,2.858,2.317c0.683,0.169,1.401,0.138,2.089,0.016
			c1.101-0.2,2.161-0.621,3.176-1.084c4.526-2.173,9.11-5.368,13.692-7.419c10.466-4.852,22.767-4.435,33.471-8.541
			c5.136-1.922,9.626-5.242,13.637-8.926c6.422-5.876,12.485-13.285,19.2-18.84c10.333-8.653,23.617-12.621,36.483-15.802"/>
	</g>
</g>
<g id="_x32_D_x24_AG-ANIMALS">
	<g id="POLYLINE_00000010288034014104522730000007657001340300711358_">
		
			<path fill="none" stroke="#FB8604" stroke-width="2.75" stroke-linecap="round" stroke-linejoin="round" stroke-miterlimit="10" d="
			M257.929,493.429c-2.902,8.147-5.725,17.706-9.874,25.258c-2.678,4.919-7.102,10.071-10.537,14.512
			c-1.474,1.986-3.089,4.078-3.495,6.58c-0.181,1.117-0.098,2.265,0.104,3.374c0.622,3.194,1.96,6.459,3.083,9.513
			c4.126,10.167,12.174,31.051,16.015,41.388c1.14,2.881,2.503,6.247,3.82,9.037c1.016,2.144,2.133,4.316,3.453,6.288
			c0.894,1.325,1.9,2.606,3.131,3.635c1.027,0.86,2.226,1.517,3.505,1.916c1.625,0.516,3.359,0.629,5.055,0.65l25.039,0.004
			c0.358-0.008,1.39-0.011,1.739-0.027c0.814-0.033,1.672-0.071,2.477-0.201c0.838-0.134,1.691-0.349,2.406-0.824
			c1.519-0.998,1.845-2.945,1.812-4.638c-0.068-2.48-0.656-4.938-1.397-7.296c-0.746-2.297-1.75-4.574-3.37-6.395
			c-0.526-0.584-1.096-1.147-1.754-1.582c-0.534-0.352-1.13-0.607-1.742-0.788c-0.817-0.242-1.679-0.373-2.525-0.47
			c-3.398-0.378-7.191-0.286-10.605-0.491c-1.003-0.075-2.018-0.292-2.894-0.803c-0.674-0.391-1.23-0.963-1.681-1.593
			c-0.654-0.913-1.127-1.953-1.546-2.992c-1.934-5.095-3.237-10.83-4.553-16.12c-0.798-3.477-1.625-7.225-2.082-10.76
			c-0.213-1.703-0.353-3.453-0.223-5.169c0.098-1.323,0.377-2.639,0.839-3.884c0.846-2.285,2.215-4.368,3.574-6.376l5.795-8.128
			l6.429-9.426c3.035-4.389,6.44-8.642,10.151-12.475c1.791-1.826,3.638-3.716,5.689-5.25c0.467-0.326,0.959-0.663,1.523-0.791
			c0.46-0.109,0.847,0.074,1.296,0.093c0.673,0.026,1.336-0.182,1.936-0.473c0.839-0.409,1.57-1.012,2.236-1.659
			c1.285-1.265,3.048-3.274,4.318-4.549c1.694-1.723,3.522-3.411,5.366-4.974c1.903-1.58,3.876-3.194,6.145-4.219
			c0.977-0.463,2.09-0.708,3.074-1.115c0.602-0.263,1.146-0.651,1.663-1.052c2.793-2.28,5.559-4.757,8.015-7.398
			c4.047-4.349,7.688-9.302,11.033-14.209"/>
	</g>
	<g id="POLYLINE_00000021086344237590655780000002074073809835171763_">
		
			<path fill="none" stroke="#FB8604" stroke-width="2.75" stroke-linecap="round" stroke-linejoin="round" stroke-miterlimit="10" d="
			M531.818,291.442c0.766-0.007,1.808-0.204,2.573-0.312c0.874-0.108,1.894-0.237,2.673,0.261c0.429,0.283,0.725,0.722,0.961,1.17
			c0.515,0.994,0.822,2.171,1.294,3.184c0.201,0.427,0.436,0.849,0.764,1.191c0.298,0.317,0.692,0.533,1.109,0.649
			c1.218,0.338,2.834,0.057,4.082-0.001c0.96-0.054,1.949-0.056,2.879,0.217c1.64,0.486,2.96,1.661,4.169,2.823
			c1.161,1.16,2.569,2.627,3.823,3.639c0.852,0.683,1.782,1.282,2.74,1.805c3.441,1.864,8.027,3.262,11.619,4.83
			c6.294,2.614,12.969,6.006,19.88,6.295c6.213,0.255,11.848-3.155,17.593-4.995c1.869-0.605,3.832-0.939,5.787-1.111
			c2.807-0.265,5.992-0.27,8.725-0.999c2.561-0.643,4.782-2.169,6.6-4.052c2.294-2.371,4.065-5.228,5.443-8.215"/>
	</g>
	<g id="POLYLINE_00000058570099574674313750000016916686904172763040_">
		
			<path fill="none" stroke="#FB8604" stroke-width="2.75" stroke-linecap="round" stroke-linejoin="round" stroke-miterlimit="10" d="
			M178.359,415.783c-2.984,4.092-6.128,8.264-9.878,11.68c-2.55,2.346-5.404,4.381-8.449,6.036
			c-8.631,4.694-20.177,7.63-29.505,10.739c-1.769,0.61-3.581,1.269-5.23,2.158c-3.064,1.626-5.453,4.257-7.771,6.782
			c-3.337,3.688-6.744,7.719-9.79,11.653c-1.59,2.078-3.217,4.278-4.574,6.516c-0.446,0.751-0.898,1.55-1.235,2.357
			c-0.163,0.398-0.316,0.817-0.381,1.244l-0.007,0.05l-0.006,0.049l-0.005,0.048l-0.004,0.047l-0.003,0.046l-0.001,0.045l0,0.044
			l0.001,0.043l0.002,0.042l0.003,0.041l0.004,0.04l0.005,0.039l0.006,0.038l0.008,0.037l0.009,0.036l0.01,0.035l0.011,0.034
			l0.012,0.033l0.013,0.032l0.015,0.031l0.016,0.03l0.017,0.029l0.018,0.028l0.019,0.027l0.021,0.025l0.022,0.024l0.023,0.023
			l0.024,0.022l0.026,0.021l0.016,0.012l0.017,0.012l0.017,0.011l0.018,0.011l0.018,0.011l0.018,0.01l0.019,0.01l0.019,0.009
			l0.02,0.009l0.02,0.009l0.021,0.008l0.021,0.008l0.022,0.008l0.022,0.007l0.022,0.007l0.023,0.006l0.023,0.006l0.024,0.006
			c0.266,0.06,0.544,0.052,0.814,0.03c0.554-0.051,1.12-0.181,1.661-0.31l2.66-0.687c1.106-0.26,2.251-0.52,3.393-0.452
			c0.52,0.037,1.059,0.163,1.472,0.497c0.341,0.273,0.577,0.656,0.743,1.056c0.31,0.755,0.424,1.582,0.519,2.388l0.198,1.961
			c0.076,0.642,0.164,1.301,0.382,1.912c0.12,0.327,0.285,0.65,0.542,0.891l0.019,0.018l0.019,0.017l0.02,0.017l0.02,0.016
			l0.02,0.016l0.022,0.016l0.022,0.016l0.022,0.016l0.023,0.015l0.023,0.015l0.023,0.014l0.023,0.014l0.024,0.013l0.024,0.013
			l0.024,0.013l0.025,0.012l0.025,0.012c0.419,0.191,0.896,0.203,1.348,0.168c2.097-0.227,4.125-1.22,6.211-1.517
			c0.659-0.09,1.353-0.123,1.989,0.101c1.315,0.482,2.022,1.945,2.781,3.026c0.454,0.663,0.964,1.319,1.649,1.757
			c0.457,0.295,0.989,0.469,1.532,0.51c0.895,0.064,1.79-0.143,2.643-0.396c2.25-0.702,4.41-1.838,6.492-2.932
			c3.5-1.836,8.066-4.673,11.795-5.9c0.711-0.217,1.454-0.398,2.202-0.381l0.064,0.002l0.063,0.004l0.062,0.005l0.062,0.006
			l0.061,0.007l0.06,0.008l0.059,0.009l0.058,0.011l0.057,0.012l0.056,0.013l0.055,0.014l0.054,0.016l0.053,0.017l0.052,0.018
			l0.051,0.019l0.051,0.021l0.05,0.022l0.049,0.023l0.048,0.024l0.047,0.026l0.046,0.027l0.025,0.016
			c0.732,0.481,0.997,1.389,1.157,2.205c0.29,1.507,0.176,3.238,0.379,4.756c0.042,0.252,0.093,0.51,0.211,0.739l0.009,0.017
			l0.009,0.017l0.01,0.016l0.01,0.016l0.01,0.015l0.01,0.015l0.01,0.014l0.01,0.014l0.011,0.014l0.011,0.013l0.011,0.013
			l0.011,0.012l0.011,0.012l0.012,0.011l0.012,0.011l0.012,0.01l0.012,0.01l0.013,0.009l0.013,0.009l0.013,0.009l0.013,0.008
			l0.013,0.007l0.013,0.007l0.013,0.006l0.013,0.006l0.014,0.006l0.014,0.005l0.014,0.005l0.014,0.004l0.014,0.004l0.015,0.004
			l0.015,0.003l0.015,0.003l0.015,0.002l0.015,0.002l0.016,0.001l0.016,0.001l0.016,0.001l0.016,0l0.016,0l0.016,0l0.017-0.001
			l0.017-0.001l0.017-0.002l0.017-0.002l0.017-0.002l0.017-0.003l0.018-0.003c0.283-0.055,0.54-0.201,0.782-0.351
			c1.199-0.783,2.43-2.008,3.599-2.835c0.427-0.303,0.875-0.597,1.366-0.783c0.308-0.117,0.643-0.172,0.97-0.129
			c0.443,0.054,0.848,0.268,1.222,0.501l0.727,0.469c0.414,0.26,0.859,0.492,1.34,0.595c0.454,0.099,0.929,0.08,1.385,0.005
			c1.468-0.261,2.814-0.99,4.047-1.802c1.703-1.159,3.269-2.577,4.433-4.287"/>
	</g>
	<g id="POLYLINE_00000052076526943959178010000002775400162320467901_">
		
			<path fill="none" stroke="#FB8604" stroke-width="2.75" stroke-linecap="round" stroke-linejoin="round" stroke-miterlimit="10" d="
			M290.757,465.569l0.097,0.244c0.695,1.756,1.271,3.851,2.584,5.256c0.485,0.514,1.109,0.91,1.805,1.059
			c0.729,0.162,1.49,0.068,2.211-0.094c1.632-0.386,3.185-1.124,4.689-1.852c1.85-0.899,4.83-2.589,6.779-3.177
			c0.394-0.112,0.804-0.205,1.215-0.191l0.035,0.002l0.035,0.002l0.034,0.003l0.034,0.004l0.033,0.004l0.033,0.005l0.032,0.005
			l0.032,0.006l0.031,0.007l0.031,0.007l0.03,0.008l0.03,0.009l0.029,0.009c0.574,0.19,0.836,0.796,1.035,1.319
			c0.277,0.706,0.48,1.634,1.205,2.016l0.026,0.013l0.027,0.012l0.027,0.012l0.028,0.011l0.028,0.011l0.028,0.011l0.029,0.01
			l0.029,0.01l0.03,0.009l0.03,0.009l0.03,0.008c0.41,0.103,0.841,0.077,1.256,0.022c0.992-0.144,1.971-0.479,2.916-0.805
			c2.039-0.722,4.774-1.853,6.875-2.261c0.727-0.142,1.476-0.232,2.217-0.166c1.354,0.105,2.567,0.805,3.63,1.608l1.377,1.046
			c0.871,0.649,1.817,1.237,2.87,1.534c0.908,0.259,1.866,0.324,2.807,0.311c1.54-0.027,3.112-0.268,4.628-0.531
			c4.663-0.82,9.771-2.177,14.508-1.689c2.851,0.287,5.617,1.199,8.256,2.283c3.496,1.445,7.618,3.497,11.175,4.757
			c2.36,0.858,4.837,1.511,7.304,1.977c6.122,1.215,14.789,1.63,21.008,2.448c1.5,0.213,3.071,0.474,4.53,0.883
			c1.296,0.356,2.542,0.903,3.71,1.565c1.604,0.919,3.273,2.014,5.114,2.39c1.222,0.268,2.491,0.335,3.739,0.339
			c4.525,0.002,10.787-1.089,15.305-1.668c0.987-0.124,2.978-0.349,3.966-0.444c1.325-0.115,9.64-0.799,10.743-0.928"/>
	</g>
	<g id="POLYLINE_00000129894273128005263170000017263116883891208883_">
		
			<path fill="none" stroke="#FB8604" stroke-width="2.75" stroke-linecap="round" stroke-linejoin="round" stroke-miterlimit="10" d="
			M589.431,213.873c2.92-2.918,6.334-6.162,8.793-9.446c3.001-3.938,6.262-9.371,9.473-13.128c1.238-1.434,2.579-2.843,4.215-3.825
			c0.941-0.554,1.997-0.964,3.097-1.013c0.933-0.047,1.894,0.218,2.617,0.82c0.655,0.537,1.093,1.293,1.407,2.069
			c0.348,0.866,0.564,1.791,0.727,2.709c0.312,1.788,0.431,3.715,0.524,5.529c0.207,6.575,0.628,16.646,0.612,23.113
			c-0.018,2.746-0.077,5.688-0.365,8.416c-0.23,2.256-0.723,4.504-1.447,6.652l-1.111,3.21"/>
	</g>
	<g id="POLYLINE_00000181774664509742749390000008358425274832523447_">
		
			<path fill="none" stroke="#FB8604" stroke-width="2.75" stroke-linecap="round" stroke-linejoin="round" stroke-miterlimit="10" d="
			M436.948,427.274c0.098,5.78,0.052,12.534,0.663,18.245c0.102,0.769,0.202,1.561,0.461,2.296c0.088,0.228,0.195,0.466,0.39,0.623
			c0.062,0.049,0.133,0.087,0.208,0.114c0.194,0.073,0.546,0.142,0.749,0.194c0.309,0.075,0.614,0.198,0.85,0.416
			c0.342,0.31,0.547,0.739,0.708,1.164c0.877,2.504,1.082,5.484,2.129,7.933c0.302,0.697,0.692,1.375,1.25,1.899
			c0.471,0.426,0.957,0.892,1.299,1.428c0.917,1.41,1.462,3.056,2.004,4.638c1.063,3.268,1.926,6.675,2.533,10.059
			c0.497,2.692,0.817,6.472,1.09,9.221c0.105,0.904,0.222,1.837,0.509,2.704c0.181,0.546,0.444,1.08,0.855,1.49
			c0.334,0.346,0.804,0.589,1.052,1.014c0.186,0.302,0.301,0.645,0.394,0.985c0.302,1.162,0.412,2.416,0.525,3.61
			c0.406,5.083,0.734,12.196,1.695,17.116c0.678,3.688,2.001,8.218,2.282,11.949c0.177,2.122,0.134,4.336,0.024,6.464
			c-0.294,5.093-1.131,11.939-1.26,17.019c-0.035,1.444-0.055,2.962,0.092,4.398c0.082,0.744,0.214,1.498,0.519,2.186
			c0.154,0.345,0.361,0.669,0.624,0.941c0.286,0.308,0.67,0.554,0.966,0.851c0.442,0.442,0.714,1.023,0.914,1.608
			c0.389,1.117,0.728,3.141,0.977,4.311c0.219,1.033,0.478,2.105,0.813,3.106c0.56,1.762,1.517,3.316,2.665,4.753
			c0.832,1.07,2.034,2.409,2.705,3.565c0.364,0.611,0.661,1.267,0.891,1.94c0.376,1.102,0.601,2.269,0.775,3.418
			c0.729,4.903,0.803,11.396,1.655,16.278c0.164,0.832,0.378,1.671,0.732,2.444c0.28,0.623,0.676,1.195,1.097,1.731
			c1.158,1.437,2.461,3.056,3.413,4.624c1.029,1.62,2.704,5.028,3.645,6.737c0.484,0.874,1.002,1.778,1.591,2.585
			c0.355,0.483,0.754,0.947,1.229,1.317c0.378,0.297,0.811,0.527,1.271,0.668c0.727,0.224,1.502,0.253,2.257,0.266
			c4.325-0.075,31.852,0.203,35.505-0.17c0.816-0.099,1.643-0.252,2.392-0.602c0.67-0.306,1.241-0.814,1.621-1.445
			c0.783-1.304,0.963-2.873,0.985-4.367c0.006-1.985-0.316-3.974-0.856-5.881c-0.451-1.554-1.039-3.094-1.893-4.473
			c-0.516-0.827-1.171-1.582-1.99-2.12c-1.247-0.822-2.739-1.166-4.178-1.486c-4.33-0.921-9.23-1.655-13.353-3.276
			c-1.097-0.452-2.186-1.035-2.963-1.952c-0.726-0.844-1.102-1.921-1.4-2.977c-0.782-2.686-1.607-7.041-2.221-9.8
			c-0.593-2.876-1.277-6.209-1.62-9.118c-0.62-4.71-0.612-9.64-0.479-14.386c0.454-10.576,0.804-25.047,2.066-35.403
			c1.26-10.511,3.15-21.113,6.138-31.278c1.383-4.513,3.037-9.081,5.915-12.875c1.526-2.033,3.458-3.745,5.471-5.283l8.446-6.365
			c1.792-1.396,3.68-2.908,5.317-4.47c1.852-1.735,4.356-4.57,6.136-6.404c3.418-3.539,8.085-7.371,11.172-11.19
			c1.335-1.649,2.464-3.483,3.401-5.384c0.73-1.424,1.534-3.546,2.351-4.921c0.423-0.693,0.937-1.383,1.679-1.754
			c0.701-0.363,1.551-0.307,2.288-0.555c0.546-0.175,0.974-0.539,1.284-1.016c0.216-0.323,0.39-0.678,0.545-1.033
			c0.643-1.505,1.121-3.399,1.584-4.976c0.678-2.423,1.264-4.965,1.623-7.455c0.349-2.149,0.672-7.21,0.865-9.423
			c0.146-1.341,0.247-2.736,0.699-4.015c0.155-0.409,0.367-0.809,0.682-1.118c0.251-0.251,0.57-0.422,0.902-0.542
			c0.367-0.142,0.793-0.242,1.092-0.508c0.355-0.308,0.568-0.743,0.74-1.172c0.247-0.635,0.413-1.331,0.566-1.995
			c1.541-6.724,2.589-15.889,4.487-22.518c0.923-3.216,2.481-6.239,4.509-8.898c2.386-3.156,5.572-6.48,7.531-9.931
			c1.508-2.56,2.444-5.434,3.216-8.29c0.995-3.65,1.774-8.151,3.895-11.329c0.533-0.846,1.24-1.596,1.843-2.39
			c0.419-0.571,0.765-1.205,1.062-1.847c0.652-1.422,1.144-2.965,1.589-4.464c0.777-2.657,1.487-5.731,2.085-8.441"/>
	</g>
	<g id="POLYLINE_00000008839136995708489410000015901827794540683695_">
		
			<path fill="none" stroke="#FB8604" stroke-width="2.75" stroke-linecap="round" stroke-linejoin="round" stroke-miterlimit="10" d="
			M579.973,226.246c-1.148-2.575-3.152-7.048-4.175-9.623c-1.075-2.616-5.318-14.158-6.392-17.008
			c-1.695-4.272-3.438-8.734-5.734-12.717c-0.987-1.662-2.092-3.316-3.59-4.562c-0.702-0.576-1.518-1.042-2.414-1.227
			c-0.927-0.198-1.907-0.106-2.793,0.224c-0.871,0.322-1.658,0.862-2.289,1.542c-0.582,0.626-1.026,1.373-1.384,2.146
			c-0.864,1.858-1.537,4.626-2.151,6.597c-2.18,7.382-8.05,17.118-11.562,24.027c-1.314,2.561-2.68,5.408-3.802,8.055
			c-1.342,3.162-4.125,10.49-5.717,13.394c-0.455,0.836-0.958,1.667-1.567,2.401c-0.662,0.806-1.485,1.472-2.366,2.024
			c-2.07,1.247-4.509,2.499-6.507,3.853c-4.746,3.166-9.431,6.687-13.621,10.563c-0.926,0.88-1.857,1.804-2.643,2.813
			c-0.312,0.412-0.622,0.847-0.808,1.333l-0.014,0.038l-0.013,0.038l-0.012,0.037l-0.011,0.037l-0.01,0.036l-0.009,0.035
			l-0.008,0.035l-0.007,0.034l-0.005,0.034l-0.004,0.033l-0.003,0.033l-0.002,0.032l-0.001,0.031
			c-0.014,0.359,0.227,0.625,0.486,0.841c0.305,0.256,0.678,0.516,0.821,0.902l0.01,0.026l0.009,0.027l0.008,0.027l0.008,0.028
			l0.007,0.028l0.007,0.029l0.006,0.029l0.005,0.029l0.005,0.03l0.004,0.03l0.004,0.031l0.003,0.031l0.002,0.031l0.002,0.032
			l0.001,0.032l0.001,0.033c-0.002,0.598-0.225,1.173-0.467,1.712c-0.587,1.25-1.405,2.392-2.249,3.48
			c-4.845,6.087-11.183,10.841-17.817,14.82c-3.023,1.834-9.473,5.462-12.231,7.498c-0.922,0.676-1.835,1.405-2.622,2.237
			c-0.597,0.632-1.116,1.344-1.559,2.091c-0.573,0.956-1.17,2.263-1.789,3.188c-1.23,1.894-3.206,3.139-5.185,4.139
			c-2.408,1.191-5,2.044-7.603,2.694c-2.883,0.766-8.451,1.515-11.439,2.023c-3.404,0.585-6.829,1.423-9.893,3.06
			c-3.716,1.925-7.408,4.76-11.345,6.227c-2.909,1.098-6.047,1.495-9.135,1.678c-4.008,0.234-9.809,0.044-13.803,0.363
			c-4.241,0.289-8.631,1.03-12.804,1.85c-8.319,1.62-18.594,4.09-27.044,4.188c-1.725,0.019-3.486-0.065-5.193-0.327
			c-1.899-0.284-3.792-0.785-5.615-1.383l-5.398-1.873c-2.974-1.014-6.131-1.447-9.266-1.452c-6.053-0.082-17.274,1.74-23.391,2.425
			c-3.84,0.423-7.871,0.711-11.735,0.724l-9.995-0.06c-3.424,0.027-6.934,0.163-10.292,0.871c-3.93,0.78-8.788,2.818-12.564,4.229
			c-2.568,0.953-5.313,1.732-7.976,2.37l-12.608,2.836c-24.489,5.905-27.077,13.26-40.423,32.656
			c-2.891,4.132-9.509,13.124-12.019,17.312c-0.714,1.184-1.432,2.435-1.994,3.697c-0.375,0.875-0.747,1.795-0.769,2.759l0,0.049
			l0.001,0.049l0.002,0.048l0.003,0.047l0.004,0.047l0.005,0.046l0.006,0.045l0.007,0.044l0.008,0.044l0.009,0.043l0.01,0.042
			l0.011,0.041l0.012,0.04l0.012,0.04l0.013,0.039l0.014,0.038l0.015,0.037l0.016,0.037l0.017,0.036
			c0.395,0.751,1.337,0.941,2.041,1.29c0.233,0.116,0.475,0.255,0.616,0.482l0.011,0.018l0.01,0.019l0.01,0.019l0.009,0.019
			l0.009,0.02l0.008,0.02l0.008,0.02l0.007,0.02l0.007,0.021l0.006,0.021l0.006,0.021l0.005,0.022l0.004,0.022l0.004,0.022
			l0.003,0.022l0.003,0.023l0.002,0.023l0.002,0.023l0.001,0.024l0.001,0.024l0,0.024l0,0.024l-0.001,0.025l-0.001,0.025
			l-0.001,0.025c-0.035,0.425-0.217,0.823-0.402,1.202c-0.281,0.557-0.647,1.133-0.988,1.659c-1.504,2.258-3.383,4.97-4.612,7.362
			c-1.933,3.646-3.108,7.664-3.81,11.718c-0.478,2.894-0.781,5.863-0.528,8.795c0.103,0.939,0.244,2.016,0.739,2.832l0.021,0.031
			l0.021,0.031l0.021,0.03l0.021,0.029l0.022,0.028l0.022,0.027l0.022,0.026l0.022,0.025l0.023,0.024l0.023,0.024l0.023,0.023
			l0.023,0.022l0.024,0.021l0.024,0.02l0.024,0.019l0.024,0.018l0.025,0.017l0.025,0.016c0.278,0.178,0.624,0.178,0.942,0.146
			c0.32-0.023,0.781-0.143,1.051,0.075l0.014,0.012l0.013,0.012l0.013,0.013l0.013,0.014l0.012,0.014l0.012,0.015l0.012,0.015
			l0.011,0.016l0.011,0.017l0.011,0.017l0.011,0.018l0.01,0.018l0.01,0.019l0.01,0.019l0.009,0.02l0.009,0.021l0.009,0.021
			l0.008,0.022l0.008,0.022l0.008,0.023l0.008,0.023c0.103,0.343,0.107,0.71,0.103,1.065c-0.057,2.032-0.999,6.561-1.313,8.619
			c-0.276,1.768-0.526,3.631-0.593,5.417c-0.07,1.764,0.029,3.576,0.205,5.332c0.329,3.077,0.916,6.942,0.729,10.01
			c-0.103,2.335-0.622,4.657-1.239,6.905c-0.722,2.638-2.417,7.707-2.764,10.358c-0.093,0.692-0.148,1.4-0.08,2.097
			c0.047,0.466,0.154,0.936,0.376,1.351c0.255,0.482,0.651,0.872,1.066,1.218l0.727,0.593c0.324,0.274,0.644,0.577,0.836,0.962
			c0.136,0.27,0.192,0.576,0.172,0.877l-0.003,0.038c-0.039,0.461-0.202,0.904-0.386,1.324c-1.011,2.201-3.14,4.794-4.557,6.778
			c-1.087,1.51-2.269,3.07-3.051,4.763c-0.197,0.449-0.371,0.921-0.413,1.412c-0.03,0.346,0.031,0.699,0.173,1.016
			c0.23,0.526,0.652,0.963,0.967,1.437c0.174,0.261,0.321,0.547,0.387,0.856c0.055,0.251,0.055,0.512,0.012,0.764l-0.008,0.048
			l-0.009,0.048c-0.124,0.575-0.398,1.111-0.687,1.618c-1.294,2.156-3.09,4.108-4.742,5.998c-2.229,2.552-5.43,5.814-7.245,8.644
			c-0.327,0.535-0.643,1.096-0.797,1.708c-0.088,0.358-0.092,0.741,0.021,1.095c0.145,0.476,0.49,0.903,0.772,1.306
			c0.213,0.306,0.408,0.637,0.492,1.004c0.087,0.374,0.053,0.765-0.026,1.137c-0.195,0.877-0.611,1.694-1.046,2.474
			c-1.023,1.783-2.323,3.488-3.582,5.113c-4.043,5.063-9.036,10.85-11.917,16.64c-1.244,2.414-2.297,4.975-3.207,7.533
			c-3.554,10.021-6.289,22.991-10.247,32.86c-1.894,5.095-5.24,11.808-5.924,17.2c-0.124,0.995-0.162,2.016-0.036,3.012
			c0.103,0.839,0.334,1.664,0.625,2.456c0.733,2.034,2.034,3.926,4.027,4.882c1.609,0.783,3.438,0.938,5.2,1.038
			c3.916,0.143,23.675,0.066,27.509,0.065c0.89-0.025,1.834-0.042,2.713-0.186c0.787-0.122,1.576-0.394,2.167-0.947
			c0.728-0.667,1.2-1.567,1.54-2.484c0.496-1.371,0.713-2.845,0.701-4.3c-0.027-1.771-0.393-3.598-1.377-5.096
			c-0.832-1.276-2.056-2.251-3.257-3.164c-1.745-1.364-3.607-2.421-5.741-3.045c-2.11-0.648-4.675-0.962-6.584-2.12
			c-0.659-0.411-1.245-1.011-1.447-1.779c-0.276-1.071,0.014-2.194,0.348-3.219c0.608-1.767,1.534-3.457,2.442-5.086
			c3.042-5.292,7.063-11.98,10.337-17.13c0.999-1.557,2.153-3.278,3.262-4.759c5.668-7.577,12.834-14.053,20.025-20.159
			c3.534-3.329,7.27-6.836,11.156-9.712c4.743-3.657,15.839-10.199,21.07-13.477c2.87-1.795,6.177-3.906,8.916-5.85
			c4.184-2.951,10.093-7.506,14.335-10.323c6.808-4.613,15.42-8.757,21.893-13.846c1.922-1.518,3.7-3.261,5.071-5.299
			c0.589-0.816,1.339-2.14,2.019-2.884c0.11-0.111,0.23-0.219,0.373-0.287l0.011-0.005l0.011-0.005l0.011-0.005l0.011-0.004
			l0.011-0.004l0.011-0.004l0.011-0.003l0.011-0.003l0.011-0.003l0.011-0.003l0.011-0.002l0.011-0.002l0.011-0.002l0.011-0.002
			l0.011-0.001l0.011-0.001l0.011-0.001l0.011-0.001l0.011,0h0.011l0.011,0l0.011,0.001l0.011,0.001l0.011,0.001l0.011,0.001
			l0.011,0.002l0.01,0.002l0.01,0.002l0.01,0.003l0.01,0.003l0.01,0.003l0.01,0.003l0.01,0.004l0.01,0.004
			c0.254,0.109,0.438,0.396,0.594,0.615l0.401,0.602c0.262,0.371,0.553,0.778,0.996,0.941l0.017,0.006l0.017,0.005l0.017,0.005
			l0.017,0.005l0.017,0.004l0.017,0.004l0.017,0.004c0.301,0.062,0.611-0.011,0.889-0.127c0.564-0.241,1.054-0.634,1.515-1.032
			c1.233-1.071,3.452-3.623,4.602-4.851c2.026-2.165,4.719-4.896,6.526-7.204c1.435-1.797,2.776-3.727,3.982-5.685
			c2.442-3.974,4.466-8.246,5.895-12.689c1.678-5.245,2.548-10.759,2.808-16.253c0.477-10.607-1.177-21.327-4.831-31.296"/>
	</g>
	<g id="POLYLINE_00000135669639077775810790000008259747512098757786_">
		
			<path fill="none" stroke="#FB8604" stroke-width="2.75" stroke-linecap="round" stroke-linejoin="round" stroke-miterlimit="10" d="
			M635.404,289.344c-0.358-1.723-0.706-3.642-1.435-5.232c-1.001-2.234-2.545-4.242-4.013-6.189
			c-1.668-2.175-5.437-6.718-6.821-8.958c-0.483-0.777-0.909-1.6-1.206-2.466c-0.304-0.874-0.482-1.802-0.605-2.719
			c-0.537-4.689-0.61-11.165-1.276-15.82c-0.391-3.014-1.006-6.05-2.051-8.91c-1.129-3.138-2.724-6.122-4.545-8.91
			c-2.255-3.347-4.595-6.761-7.523-9.56c-1.709-1.617-3.674-2.979-5.816-3.96c-1.956-0.899-4.055-1.517-6.153-1.985
			c-2.634-0.577-5.364-0.926-8.057-1.062c-3.004-0.14-6.097-0.083-8.971,0.894l-1.755,0.592"/>
	</g>
	<g id="POLYLINE_00000067218652925306426810000007395788961211789498_">
		
			<path fill="none" stroke="#FB8604" stroke-width="2.75" stroke-linecap="round" stroke-linejoin="round" stroke-miterlimit="10" d="
			M635.404,289.344c-1.923-3.297-5.92-4.505-9.506-4.872c-2.054-0.193-4.174-0.146-6.163,0.448c-0.843,0.26-1.668,0.635-2.35,1.202
			c-0.571,0.474-1.028,1.081-1.341,1.753c-1.016,2.228-0.617,4.898,0.543,6.994c1.315,2.37,3.627,4.089,6.178,4.935
			c2.499,0.814,5.241,0.953,7.796,0.323c1.641-0.41,3.176-1.228,4.211-2.596c1.104-1.442,1.651-3.294,1.567-5.104
			C636.284,291.343,635.953,290.278,635.404,289.344z"/>
	</g>
</g>
<g id="_x32_D_x24_AG-OUTLINE">
	<g id="POLYLINE_00000024690183312992257730000001171886769849374595_">
		
			<path fill="none" stroke="#FB8604" stroke-width="3.5" stroke-linecap="round" stroke-linejoin="round" stroke-miterlimit="10" d="
			M178.359,415.783c-2.984,4.092-6.128,8.264-9.878,11.68c-2.55,2.346-5.404,4.381-8.449,6.036
			c-8.631,4.694-20.177,7.63-29.505,10.739c-1.769,0.61-3.581,1.269-5.23,2.158c-3.064,1.626-5.453,4.257-7.771,6.782
			c-3.337,3.688-6.744,7.719-9.79,11.653c-1.59,2.078-3.217,4.278-4.574,6.516c-0.446,0.751-0.898,1.55-1.235,2.357
			c-0.163,0.398-0.316,0.817-0.381,1.244l-0.007,0.05l-0.006,0.049l-0.005,0.048l-0.004,0.047l-0.003,0.046l-0.001,0.045l0,0.044
			l0.001,0.043l0.002,0.042l0.003,0.041l0.004,0.04l0.005,0.039l0.006,0.038l0.008,0.037l0.009,0.036l0.01,0.035l0.011,0.034
			l0.012,0.033l0.013,0.032l0.015,0.031l0.016,0.03l0.017,0.029l0.018,0.028l0.019,0.027l0.021,0.025l0.022,0.024l0.023,0.023
			l0.024,0.022l0.026,0.021l0.016,0.012l0.017,0.012l0.017,0.011l0.018,0.011l0.018,0.011l0.018,0.01l0.019,0.01l0.019,0.009
			l0.02,0.009l0.02,0.009l0.021,0.008l0.021,0.008l0.022,0.008l0.022,0.007l0.022,0.007l0.023,0.006l0.023,0.006l0.024,0.006
			c0.266,0.06,0.544,0.052,0.814,0.03c0.554-0.051,1.12-0.181,1.661-0.31l2.66-0.687c1.106-0.26,2.251-0.52,3.393-0.452
			c0.52,0.037,1.059,0.163,1.472,0.497c0.341,0.273,0.577,0.656,0.743,1.056c0.31,0.755,0.424,1.582,0.519,2.388l0.198,1.961
			c0.076,0.642,0.164,1.301,0.382,1.912c0.12,0.327,0.285,0.65,0.542,0.891l0.019,0.018l0.019,0.017l0.02,0.017l0.02,0.016
			l0.02,0.016l0.022,0.016l0.022,0.016l0.022,0.016l0.023,0.015l0.023,0.015l0.023,0.014l0.023,0.014l0.024,0.013l0.024,0.013
			l0.024,0.013l0.025,0.012l0.025,0.012c0.419,0.191,0.896,0.203,1.348,0.168c2.097-0.227,4.125-1.22,6.211-1.517
			c0.659-0.09,1.353-0.123,1.989,0.101c1.315,0.482,2.022,1.945,2.781,3.026c0.454,0.663,0.964,1.319,1.649,1.757
			c0.457,0.295,0.989,0.469,1.532,0.51c0.895,0.064,1.79-0.143,2.643-0.396c2.25-0.702,4.41-1.838,6.492-2.932
			c3.5-1.836,8.066-4.673,11.795-5.9c0.711-0.217,1.454-0.398,2.202-0.381l0.064,0.002l0.063,0.004l0.062,0.005l0.062,0.006
			l0.061,0.007l0.06,0.008l0.059,0.009l0.058,0.011l0.057,0.012l0.056,0.013l0.055,0.014l0.054,0.016l0.053,0.017l0.052,0.018
			l0.051,0.019l0.051,0.021l0.05,0.022l0.049,0.023l0.048,0.024l0.047,0.026l0.046,0.027l0.025,0.016
			c0.732,0.481,0.997,1.389,1.157,2.205c0.29,1.507,0.176,3.238,0.379,4.756c0.042,0.252,0.093,0.51,0.211,0.739l0.009,0.017
			l0.009,0.017l0.01,0.016l0.01,0.016l0.01,0.015l0.01,0.015l0.01,0.014l0.01,0.014l0.011,0.014l0.011,0.013l0.011,0.013
			l0.011,0.012l0.011,0.012l0.012,0.011l0.012,0.011l0.012,0.01l0.012,0.01l0.013,0.009l0.013,0.009l0.013,0.009l0.013,0.008
			l0.013,0.007l0.013,0.007l0.013,0.006l0.013,0.006l0.014,0.006l0.014,0.005l0.014,0.005l0.014,0.004l0.014,0.004l0.015,0.004
			l0.015,0.003l0.015,0.003l0.015,0.002l0.015,0.002l0.016,0.001l0.016,0.001l0.016,0.001l0.016,0l0.016,0l0.016,0l0.017-0.001
			l0.017-0.001l0.017-0.002l0.017-0.002l0.017-0.002l0.017-0.003l0.018-0.003c0.283-0.055,0.54-0.201,0.782-0.351
			c1.199-0.783,2.43-2.008,3.599-2.835c0.427-0.303,0.875-0.597,1.366-0.783c0.308-0.117,0.643-0.172,0.97-0.129
			c0.443,0.054,0.848,0.268,1.222,0.501l0.727,0.469c0.414,0.26,0.859,0.492,1.34,0.595c0.454,0.099,0.929,0.08,1.385,0.005
			c1.468-0.261,2.814-0.99,4.047-1.802c1.703-1.159,3.269-2.577,4.433-4.287c0.488,0.785,1.353,1.288,2.008,1.916
			c0.227,0.221,0.433,0.473,0.556,0.767c0.105,0.245,0.145,0.515,0.128,0.78l-0.003,0.038c-0.06,0.65-0.341,1.258-0.632,1.834
			c-1.266,2.377-3.506,5.088-5.058,7.298c-0.814,1.154-1.655,2.351-2.257,3.632c-0.292,0.654-0.575,1.382-0.424,2.108
			c0.174,0.849,0.901,1.427,1.29,2.169c0.206,0.384,0.29,0.831,0.221,1.262c-0.104,0.644-0.413,1.237-0.734,1.797
			c-0.457,0.779-1.014,1.535-1.568,2.248c-1.877,2.398-5.041,5.788-7.076,8.102c-1.277,1.494-2.634,3.033-3.61,4.745
			c-0.224,0.411-0.43,0.843-0.528,1.303c-0.072,0.343-0.063,0.705,0.049,1.039c0.148,0.464,0.487,0.882,0.763,1.278
			c0.213,0.306,0.408,0.637,0.492,1.004c0.087,0.374,0.053,0.765-0.026,1.137c-0.195,0.877-0.611,1.694-1.046,2.474
			c-1.023,1.783-2.323,3.488-3.582,5.113c-4.043,5.063-9.036,10.85-11.917,16.64c-1.244,2.414-2.297,4.975-3.207,7.533
			c-3.554,10.021-6.289,22.991-10.247,32.86c-1.894,5.095-5.24,11.808-5.924,17.2c-0.124,0.995-0.162,2.016-0.036,3.012
			c0.103,0.839,0.334,1.664,0.625,2.456c0.733,2.034,2.034,3.926,4.027,4.882c1.609,0.783,3.438,0.938,5.2,1.038
			c3.916,0.143,23.675,0.066,27.509,0.065c0.89-0.025,1.834-0.042,2.713-0.186c0.787-0.122,1.576-0.394,2.167-0.947
			c0.728-0.667,1.2-1.567,1.54-2.484c0.496-1.371,0.713-2.845,0.701-4.3c-0.027-1.771-0.393-3.598-1.377-5.096
			c-0.832-1.276-2.056-2.251-3.257-3.164c-1.745-1.364-3.607-2.421-5.741-3.045c-2.11-0.648-4.675-0.962-6.584-2.12
			c-0.659-0.411-1.245-1.011-1.447-1.779c-0.276-1.071,0.014-2.194,0.348-3.219c0.608-1.767,1.534-3.457,2.442-5.086
			c3.042-5.292,7.063-11.98,10.337-17.13c0.999-1.557,2.153-3.278,3.262-4.759c5.668-7.577,12.834-14.053,20.025-20.159
			c3.514-3.315,7.285-6.847,11.156-9.712c6.366-4.784,17.587-11.167,24.318-15.526c8.054-5.057,15.993-11.867,24.146-16.769
			c1.093-0.654,10.381-6.141,11.167-6.659c-2.902,8.147-5.725,17.706-9.874,25.258c-2.678,4.919-7.102,10.071-10.537,14.512
			c-1.474,1.986-3.089,4.078-3.495,6.58c-0.181,1.117-0.098,2.265,0.104,3.374c0.622,3.194,1.96,6.459,3.083,9.513
			c4.126,10.167,12.174,31.051,16.015,41.388c1.14,2.881,2.503,6.247,3.82,9.037c1.016,2.144,2.133,4.316,3.453,6.288
			c0.894,1.325,1.9,2.606,3.131,3.635c1.027,0.86,2.226,1.517,3.505,1.916c1.625,0.516,3.359,0.629,5.055,0.65l25.039,0.004
			c0.358-0.008,1.39-0.011,1.739-0.027c0.814-0.033,1.672-0.071,2.477-0.201c0.838-0.134,1.691-0.349,2.406-0.824
			c1.519-0.998,1.845-2.945,1.812-4.638c-0.068-2.48-0.656-4.938-1.397-7.296c-0.746-2.297-1.75-4.574-3.37-6.395
			c-0.526-0.584-1.096-1.147-1.754-1.582c-0.534-0.352-1.13-0.607-1.742-0.788c-0.817-0.242-1.679-0.373-2.525-0.47
			c-3.398-0.378-7.191-0.286-10.605-0.491c-1.003-0.075-2.018-0.292-2.894-0.803c-0.674-0.391-1.23-0.963-1.681-1.593
			c-0.654-0.913-1.127-1.953-1.546-2.992c-1.934-5.095-3.237-10.83-4.553-16.12c-0.798-3.477-1.625-7.225-2.082-10.76
			c-0.213-1.703-0.353-3.453-0.223-5.169c0.098-1.323,0.377-2.639,0.839-3.884c0.846-2.285,2.215-4.368,3.574-6.376l5.795-8.128
			l6.429-9.426c3.035-4.389,6.44-8.642,10.151-12.475c1.791-1.826,3.638-3.716,5.689-5.25c0.467-0.326,0.959-0.663,1.523-0.791
			c0.46-0.109,0.847,0.074,1.296,0.093c0.673,0.026,1.336-0.182,1.936-0.473c0.839-0.409,1.57-1.012,2.236-1.659
			c1.285-1.265,3.048-3.274,4.318-4.549c1.694-1.723,3.522-3.411,5.366-4.974c1.903-1.58,3.876-3.194,6.145-4.219
			c0.977-0.463,2.09-0.708,3.074-1.115c0.602-0.263,1.146-0.651,1.663-1.052c2.793-2.28,5.559-4.757,8.015-7.398
			c4.047-4.349,7.688-9.302,11.033-14.209c2.294-0.289,4.642-0.378,6.931-0.006c6.104,0.978,11.773,4.489,17.515,6.6
			c7.955,3.144,17.993,3.511,26.456,4.397c3.088,0.369,6.323,0.689,9.206,1.922c2.202,0.934,4.161,2.605,6.518,3.171
			c1.132,0.285,2.315,0.376,3.479,0.403c4.749,0.097,11.117-1.07,15.855-1.662c0.987-0.124,2.978-0.349,3.966-0.444
			c1.325-0.115,9.64-0.799,10.743-0.928c0.161,1.485,0.255,3.392,0.639,4.824c0.136,0.496,0.318,0.99,0.604,1.42
			c0.156,0.236,0.349,0.448,0.563,0.632c0.23,0.201,0.531,0.398,0.72,0.64c0.194,0.24,0.321,0.528,0.42,0.819
			c0.406,1.285,0.506,2.69,0.638,4.025c0.403,5.036,0.734,12.185,1.689,17.056c0.678,3.688,2.001,8.218,2.282,11.949
			c0.177,2.122,0.134,4.336,0.024,6.464c-0.294,5.093-1.131,11.94-1.26,17.019c-0.035,1.444-0.055,2.962,0.092,4.398
			c0.082,0.744,0.214,1.498,0.519,2.186c0.154,0.345,0.361,0.669,0.624,0.941c0.286,0.308,0.67,0.554,0.966,0.851
			c0.442,0.442,0.714,1.023,0.914,1.608c0.389,1.117,0.728,3.14,0.977,4.311c0.219,1.033,0.478,2.105,0.813,3.106
			c0.56,1.762,1.517,3.316,2.665,4.753c0.832,1.07,2.034,2.409,2.705,3.565c0.364,0.611,0.661,1.267,0.891,1.94
			c0.376,1.102,0.601,2.269,0.775,3.418c0.729,4.903,0.803,11.396,1.655,16.278c0.164,0.832,0.378,1.671,0.732,2.444
			c0.28,0.623,0.676,1.195,1.097,1.731c1.158,1.437,2.461,3.056,3.413,4.624c1.029,1.62,2.704,5.028,3.645,6.737
			c0.484,0.874,1.002,1.778,1.591,2.585c0.355,0.483,0.754,0.947,1.229,1.317c0.378,0.297,0.811,0.527,1.271,0.668
			c0.727,0.224,1.502,0.253,2.257,0.266c2.527-0.022,32.211,0.057,33.768-0.043c0.801-0.038,1.634-0.087,2.425-0.226
			c0.868-0.151,1.75-0.409,2.454-0.959c0.782-0.607,1.239-1.532,1.499-2.469c0.468-1.735,0.416-3.573,0.205-5.344
			c-0.293-2.264-0.903-4.506-1.875-6.574c-0.434-0.906-0.949-1.793-1.637-2.531c-0.468-0.504-1.026-0.926-1.635-1.245
			c-0.672-0.353-1.404-0.599-2.134-0.799c-3.82-0.945-8.354-1.584-12.122-2.709c-1.087-0.318-2.193-0.676-3.226-1.144
			c-0.755-0.346-1.489-0.772-2.091-1.349c-0.686-0.645-1.144-1.492-1.45-2.374c-0.365-1.024-0.64-2.254-0.906-3.311
			c-0.818-3.604-1.876-8.527-2.557-12.15c-0.501-2.747-0.883-5.618-1.071-8.405c-0.247-3.542-0.175-7.424-0.079-10.977
			c0.411-9.453,0.789-23.567,1.831-32.867c0.743-7.054,1.893-14.268,3.342-21.212c0.906-4.259,1.986-8.781,3.288-12.936
			c0.884-2.798,1.909-5.631,3.276-8.233c0.93-1.773,2.049-3.483,3.376-4.987c1.259-1.444,2.735-2.71,4.246-3.881l8.661-6.531
			c1.792-1.396,3.68-2.908,5.317-4.47c1.852-1.735,4.356-4.57,6.136-6.404c3.418-3.539,8.085-7.371,11.172-11.19
			c1.265-1.564,2.349-3.297,3.255-5.092c0.779-1.483,1.595-3.639,2.428-5.095c0.438-0.738,0.969-1.484,1.757-1.876
			c0.699-0.358,1.546-0.304,2.28-0.55c0.546-0.175,0.974-0.539,1.284-1.016c0.216-0.323,0.39-0.678,0.545-1.033
			c0.643-1.505,1.121-3.399,1.584-4.976c0.678-2.423,1.264-4.965,1.623-7.455c0.349-2.149,0.672-7.21,0.865-9.423
			c0.143-1.326,0.247-2.702,0.682-3.969c0.15-0.407,0.352-0.805,0.655-1.12c0.247-0.261,0.565-0.444,0.899-0.569
			c0.373-0.148,0.81-0.245,1.121-0.51c0.384-0.324,0.605-0.793,0.783-1.252c0.278-0.74,0.456-1.548,0.627-2.32
			c1.519-6.728,2.552-15.897,4.515-22.504c0.884-2.934,2.304-5.701,4.129-8.161c2.353-3.198,5.571-6.506,7.589-9.937
			c1.624-2.653,2.62-5.655,3.424-8.644c0.995-3.65,1.774-8.151,3.895-11.329c0.533-0.846,1.24-1.596,1.843-2.39
			c0.419-0.571,0.765-1.205,1.062-1.847c0.652-1.422,1.144-2.965,1.589-4.464c0.777-2.657,1.487-5.731,2.085-8.441
			c4.205-1.192,8.53-3.535,12.783-4.569c2.762-0.677,5.948-0.742,8.779-0.986c2.334-0.206,4.725-0.599,6.802-1.74
			c1.851-1.006,3.437-2.454,4.8-4.048c1.814-2.137,3.28-4.581,4.45-7.124c1.235-1.437,1.86-3.363,1.811-5.249
			c-0.033-1.133-0.366-2.252-0.94-3.229c-0.31-1.459-0.626-3.228-1.173-4.598c-0.47-1.233-1.143-2.4-1.871-3.498
			c-2.002-3.051-6.008-7.75-8.169-10.724c-0.498-0.692-1-1.426-1.418-2.17c-0.602-1.055-1.028-2.212-1.257-3.405
			c-0.532-2.618-0.694-8.687-0.92-11.412c-0.367-4.904-0.916-9.915-2.623-14.556l1.111-3.21c0.799-2.357,1.301-4.832,1.512-7.312
			c0.328-3.601,0.31-7.655,0.278-11.283c-0.087-5.175-0.415-14.427-0.591-19.587c-0.089-1.736-0.203-3.587-0.485-5.299
			c-0.161-0.965-0.376-1.939-0.731-2.852c-0.312-0.793-0.745-1.569-1.405-2.125c-0.715-0.612-1.671-0.89-2.603-0.853
			c-1.073,0.036-2.109,0.421-3.034,0.948c-1.689,0.982-3.063,2.426-4.33,3.892c-3.21,3.754-6.475,9.194-9.473,13.128
			c-2.453,3.277-5.89,6.544-8.793,9.446c-2.112-0.251-4.282-0.385-6.409-0.348c-2.057,0.026-4.133,0.284-6.089,0.943l-1.755,0.592
			c-0.466-1.158-5.197-13.909-5.772-15.444c-1.695-4.272-3.438-8.734-5.734-12.717c-0.987-1.662-2.092-3.316-3.59-4.562
			c-0.702-0.576-1.518-1.042-2.414-1.227c-0.927-0.198-1.907-0.106-2.793,0.224c-0.871,0.322-1.658,0.862-2.289,1.542
			c-0.582,0.626-1.026,1.373-1.384,2.146c-0.864,1.858-1.537,4.626-2.151,6.597c-2.18,7.382-8.05,17.118-11.562,24.027
			c-1.314,2.561-2.68,5.408-3.802,8.055c-1.342,3.162-4.125,10.49-5.717,13.394c-0.455,0.836-0.958,1.667-1.567,2.401
			c-0.662,0.806-1.485,1.472-2.366,2.024c-2.07,1.247-4.509,2.499-6.507,3.853c-4.746,3.166-9.431,6.687-13.621,10.563
			c-0.926,0.88-1.857,1.804-2.643,2.813c-0.312,0.412-0.622,0.847-0.808,1.333l-0.014,0.038l-0.013,0.038l-0.012,0.037l-0.011,0.037
			l-0.01,0.036l-0.009,0.035l-0.008,0.035l-0.007,0.034l-0.005,0.034l-0.004,0.033l-0.003,0.033l-0.002,0.032l-0.001,0.031
			c-0.014,0.359,0.227,0.625,0.486,0.841c0.305,0.256,0.678,0.516,0.821,0.902l0.01,0.026l0.009,0.027l0.008,0.027l0.008,0.028
			l0.007,0.028l0.007,0.029l0.006,0.029l0.005,0.029l0.005,0.03l0.004,0.03l0.004,0.031l0.003,0.031l0.002,0.031l0.002,0.032
			l0.001,0.032l0.001,0.033c-0.002,0.598-0.225,1.173-0.467,1.712c-0.587,1.25-1.405,2.392-2.249,3.48
			c-4.845,6.087-11.183,10.841-17.817,14.82c-3.023,1.834-9.473,5.462-12.231,7.498c-0.922,0.676-1.835,1.405-2.622,2.237
			c-0.597,0.632-1.116,1.344-1.559,2.091c-0.573,0.956-1.17,2.263-1.789,3.188c-1.23,1.894-3.206,3.139-5.185,4.139
			c-2.408,1.191-5,2.044-7.603,2.694c-2.883,0.766-8.451,1.515-11.439,2.023c-3.404,0.585-6.829,1.423-9.893,3.06
			c-3.716,1.925-7.408,4.76-11.345,6.227c-2.909,1.098-6.047,1.495-9.135,1.678c-4.008,0.234-9.809,0.044-13.803,0.363
			c-4.241,0.289-8.631,1.03-12.804,1.85c-8.319,1.62-18.594,4.09-27.044,4.188c-1.725,0.019-3.486-0.065-5.193-0.327
			c-1.899-0.284-3.792-0.785-5.615-1.383l-5.398-1.873c-2.974-1.014-6.131-1.447-9.266-1.452c-6.053-0.082-17.274,1.74-23.391,2.425
			c-3.84,0.423-7.871,0.711-11.735,0.724l-9.995-0.06c-3.424,0.027-6.934,0.163-10.292,0.871c-3.93,0.78-8.788,2.818-12.564,4.229
			c-2.568,0.953-5.313,1.732-7.976,2.37l-12.608,2.836c-24.489,5.905-27.077,13.26-40.423,32.656
			c-2.891,4.132-9.509,13.124-12.019,17.312c-0.714,1.184-1.432,2.435-1.994,3.697c-0.375,0.875-0.747,1.795-0.769,2.759l0,0.049
			l0.001,0.049l0.002,0.048l0.003,0.047l0.004,0.047l0.005,0.046l0.006,0.045l0.007,0.044l0.008,0.044l0.009,0.043l0.01,0.042
			l0.011,0.041l0.012,0.04l0.012,0.04l0.013,0.039l0.014,0.038l0.015,0.037l0.016,0.037l0.017,0.036
			c0.395,0.751,1.337,0.941,2.041,1.29c0.233,0.116,0.475,0.255,0.616,0.482l0.011,0.018l0.01,0.019l0.01,0.019l0.009,0.019
			l0.009,0.02l0.008,0.02l0.008,0.02l0.007,0.02l0.007,0.021l0.006,0.021l0.006,0.021l0.005,0.022l0.004,0.022l0.004,0.022
			l0.003,0.022l0.003,0.023l0.002,0.023l0.002,0.023l0.001,0.024l0.001,0.024l0,0.024l0,0.024l-0.001,0.025l-0.001,0.025
			l-0.001,0.025c-0.022,0.296-0.124,0.582-0.239,0.854c-0.246,0.566-0.587,1.119-0.915,1.641c-1.922,2.913-4.175,6.099-5.614,9.275
			C179.938,407.489,178.913,411.634,178.359,415.783z"/>
	</g>
</g>
</svg>
