<?xml version="1.0" encoding="utf-8"?>
<!-- Generator: Adobe Illustrator 25.4.1, SVG Export Plug-In . SVG Version: 6.00 Build 0)  -->
<!DOCTYPE svg PUBLIC "-//W3C//DTD SVG 1.1//EN" "http://www.w3.org/Graphics/SVG/1.1/DTD/svg11.dtd" [
	<!ENTITY ns_extend "http://ns.adobe.com/Extensibility/1.0/">
	<!ENTITY ns_ai "http://ns.adobe.com/AdobeIllustrator/10.0/">
	<!ENTITY ns_graphs "http://ns.adobe.com/Graphs/1.0/">
	<!ENTITY ns_vars "http://ns.adobe.com/Variables/1.0/">
	<!ENTITY ns_imrep "http://ns.adobe.com/ImageReplacement/1.0/">
	<!ENTITY ns_sfw "http://ns.adobe.com/SaveForWeb/1.0/">
	<!ENTITY ns_custom "http://ns.adobe.com/GenericCustomNamespace/1.0/">
	<!ENTITY ns_adobe_xpath "http://ns.adobe.com/XPath/1.0/">
]>
<svg version="1.1" xmlns:x="&ns_extend;" xmlns:i="&ns_ai;" xmlns:graph="&ns_graphs;"
	 xmlns="http://www.w3.org/2000/svg" xmlns:xlink="http://www.w3.org/1999/xlink" x="0px" y="0px" width="750px" height="750px"
	 viewBox="0 0 750 750" enable-background="new 0 0 750 750" xml:space="preserve">
<metadata>
	<sfw  xmlns="&ns_sfw;">
		<slices></slices>
		<sliceSourceBounds  bottomLeftOrigin="true" height="11377.313" width="5535" x="-2000" y="-2364"></sliceSourceBounds>
	</sfw>
</metadata>
<g id="FILL-BACKGROUND">
	<rect fill="#FFFFFF" width="750" height="750"/>
</g>
<g id="N-DIMENSIONS">
</g>
<g id="N-TEXT">
</g>
<g id="_x32_D_x24_AG-DIAGRAM">
	<g id="POLYLINE_00000024000294942157162770000013054825520475675541_">
		<g>
			<g>
				
					<line fill="none" stroke="#FB8604" stroke-width="3.25" stroke-linecap="round" stroke-linejoin="round" x1="119.033" y1="596.64" x2="121.033" y2="596.64"/>
				
					<line fill="none" stroke="#FB8604" stroke-width="3.25" stroke-linecap="round" stroke-linejoin="round" stroke-dasharray="4.0452,7.0791" x1="128.112" y1="596.64" x2="569.547" y2="596.64"/>
				
					<line fill="none" stroke="#FB8604" stroke-width="3.25" stroke-linecap="round" stroke-linejoin="round" x1="573.087" y1="596.64" x2="575.087" y2="596.64"/>
			</g>
		</g>
	</g>
</g>
<g id="_x32_D_x24_AG-DETAILS-DIAGRAM">
</g>
<g id="_x32_D_x24_AG-DETAILS">
</g>
<g id="_x32_D_x24_AG-ANIMALS">
	<g id="POLYLINE_00000083052853077298571730000015151031152840740998_">
		
			<path fill="none" stroke="#FB8604" stroke-width="2.75" stroke-linecap="round" stroke-linejoin="round" stroke-miterlimit="10" d="
			M182.91,343.898c1.9,4.755,3.554,9.775,3.453,14.952c-0.036,3.098-0.703,6.171-1.601,9.125
			c-4.422,14.032-13.818,27.759-16.659,42.311c-0.64,3.305-0.919,6.715-0.639,10.076c0.51,6.296,2.841,13.212,3.757,19.449
			c0.477,3.123,0.675,6.327,0.403,9.479c-0.231,2.732-0.841,5.452-1.597,8.083c-1.177,4.209-3.429,9.836-4.873,13.987
			c-0.397,1.166-0.817,2.487-1.092,3.691c-0.231,1.081-0.451,2.217-0.217,3.315l0.013,0.053l0.014,0.052l0.015,0.051l0.015,0.05
			l0.016,0.05l0.017,0.049l0.018,0.048l0.019,0.047l0.02,0.046l0.02,0.046l0.021,0.045c0.008,0.016,0.025,0.049,0.033,0.064
			l0.017,0.031l0.018,0.031l0.018,0.03l0.019,0.03l0.019,0.03l0.019,0.029l0.02,0.029l0.02,0.028l0.021,0.028l0.021,0.027
			l0.022,0.027l0.022,0.026l0.023,0.026l0.023,0.026l0.024,0.025l0.024,0.025l0.024,0.024l0.025,0.024l0.025,0.023l0.026,0.023
			l0.026,0.022l0.027,0.022c0.649,0.52,1.528,0.605,2.332,0.575c2.023-0.12,3.961-0.859,5.81-1.643
			c9.696-4.239,18.372-12.563,27.214-18.236c0.968-0.565,2.053-1.214,3.166-1.398l0.046-0.006l0.045-0.005l0.045-0.004l0.044-0.003
			l0.043-0.002l0.043-0.001l0.042,0l0.041,0.001l0.04,0.002c0.226,0.011,0.451,0.075,0.639,0.202
			c0.229,0.152,0.394,0.382,0.515,0.625c0.167,0.337,0.265,0.708,0.346,1.074c0.172,0.83,0.29,1.753,0.394,2.595
			c0.356,3.079,0.379,6.226-0.07,9.296c-0.201,1.435-0.626,3.556-0.722,4.995c-0.025,0.402-0.033,0.816,0.013,1.217
			c0.055,0.46,0.184,0.956,0.557,1.262l0.019,0.015l0.019,0.015l0.02,0.014l0.02,0.014l0.02,0.014l0.021,0.013l0.021,0.013
			l0.022,0.012l0.022,0.012l0.022,0.012l0.023,0.011l0.023,0.011l0.023,0.01l0.024,0.01l0.024,0.01l0.024,0.009l0.025,0.009
			l0.025,0.009c0.554,0.174,1.152,0.076,1.705-0.055c1.57-0.414,3.021-1.223,4.409-2.048c2.361-1.442,4.601-3.148,6.702-4.945
			c2.584-2.18,6.118-5.725,8.662-7.975c0.446-0.382,0.927-0.787,1.422-1.105c0.183-0.115,0.376-0.227,0.583-0.293l0.02-0.006
			l0.02-0.006l0.02-0.005l0.019-0.005l0.019-0.004l0.019-0.004l0.018-0.003l0.018-0.003l0.018-0.002l0.017-0.001l0.017-0.001
			l0.017,0l0.016,0l0.016,0.001c0.233,0.01,0.343,0.22,0.405,0.418c0.116,0.356,0.175,1.09,0.235,1.47
			c0.095,0.698,0.248,1.407,0.429,2.087c0.792,2.915,2.055,5.721,3.533,8.349c2.138,3.787,4.894,7.247,8.149,10.133
			c2.017,1.768,4.178,3.475,6.622,4.612c0.656,0.281,1.374,0.567,2.098,0.523l0.028-0.003l0.028-0.003l0.028-0.004l0.027-0.004
			l0.027-0.005l0.026-0.005l0.026-0.006l0.026-0.006l0.025-0.007l0.025-0.007l0.024-0.008l0.024-0.008l0.023-0.008l0.023-0.009
			l0.023-0.009l0.022-0.01l0.022-0.01l0.021-0.011l0.021-0.011l0.02-0.012l0.02-0.012l0.02-0.013l0.019-0.013l0.019-0.014
			l0.018-0.014l0.018-0.015l0.017-0.016l0.013-0.013l0.013-0.013l0.013-0.013l0.012-0.014l0.012-0.014l0.012-0.014l0.012-0.014
			l0.011-0.015l0.011-0.015l0.011-0.015l0.011-0.016l0.01-0.016l0.01-0.016l0.01-0.017l0.009-0.017l0.009-0.017l0.009-0.017
			l0.009-0.018l0.008-0.018c0.105-0.235,0.137-0.496,0.147-0.75c0.017-0.663-0.108-1.339-0.23-1.99
			c-0.474-2.411-1.28-5.053-1.056-7.526c0.466-5.553,5.75-8.732,10.172-11.162c3.906-2.159,8.929-4.416,12.203-7.46
			c0.826-0.718,2.024-2.025,2.991-2.496c0.285-0.134,0.627-0.201,0.923-0.064l0.018,0.008l0.018,0.009l0.018,0.009l0.018,0.009
			l0.018,0.01l0.018,0.01l0.018,0.011l0.018,0.011l0.017,0.012l0.017,0.012l0.017,0.012c0.357,0.27,0.577,0.679,0.757,1.079
			c0.421,0.987,0.612,2.063,0.736,3.124c0.23,2.157,0.126,4.356-0.285,6.485c-0.399,2.036-1.141,4.014-1.957,5.916
			c-1.384,3.259-3.49,7.095-3.842,10.644c-0.168,1.671,0.06,3.381,0.619,4.962c0.299,0.817,0.679,1.63,1.263,2.283
			c0.251,0.271,0.554,0.527,0.925,0.604l0.017,0.003l0.017,0.003l0.017,0.003l0.017,0.002l0.017,0.002l0.017,0.002l0.017,0.001
			l0.017,0.001l0.017,0.001l0.017,0l0.017,0l0.017,0l0.017-0.001l0.017-0.001l0.018-0.002l0.018-0.002l0.018-0.002l0.018-0.003
			l0.018-0.003l0.018-0.004l0.018-0.004l0.018-0.004l0.018-0.005l0.018-0.005l0.018-0.005l0.018-0.006l0.018-0.006l0.018-0.007
			l0.018-0.007l0.018-0.007l0.018-0.008c0.21-0.093,0.388-0.245,0.548-0.408c0.395-0.413,0.713-0.921,1.016-1.404
			c0.937-1.536,1.872-3.215,3.124-4.511c0.663-0.701,1.443-1.292,2.286-1.761c4.138-2.251,9.198-2.281,13.668-3.486
			c1.521-0.405,2.978-1.08,4.237-2.03c1.732-1.282,3.427-3.248,5.008-4.708c2.556-2.381,5.531-4.615,8.348-6.686
			c1.402-0.99,5.712-4.112,7.117-5.025c0.319-0.204,0.666-0.419,1.008-0.584c0.228-0.104,0.469-0.22,0.725-0.209l0.008,0.001
			l0.008,0.001l0.008,0.001l0.008,0.001l0.008,0.001l0.008,0.001l0.007,0.002l0.007,0.002l0.007,0.002l0.007,0.002l0.007,0.002
			l0.007,0.002l0.007,0.002l0.007,0.003l0.007,0.003l0.006,0.003l0.006,0.003l0.006,0.003l0.006,0.003l0.006,0.003l0.006,0.004
			l0.006,0.004l0.006,0.004l0.006,0.004l0.005,0.004l0.005,0.004l0.005,0.004l0.005,0.005l0.005,0.005l0.005,0.005l0.005,0.005
			l0.005,0.005l0.004,0.005l0.004,0.006l0.004,0.006l0.004,0.006l0.006,0.009l0.006,0.009l0.005,0.009l0.005,0.01l0.005,0.01
			l0.005,0.01l0.004,0.011l0.004,0.011l0.004,0.011l0.004,0.012l0.003,0.012l0.003,0.012l0.003,0.012l0.003,0.013l0.003,0.013
			l0.002,0.013l0.002,0.014l0.002,0.014c0.031,0.395-0.088,0.79-0.181,1.17c-0.697,2.424-1.566,4.951-1.777,7.475
			c-0.19,2.05,0.034,4.136,0.544,6.127c0.811,3.082,2.257,6.068,4.469,8.388c1.025,1.085,2.307,1.894,3.668,2.491
			c1.433,0.637,3.184,1.281,4.368,2.326c0.53,0.451,0.987,0.987,1.378,1.562c1.002,1.44,2.041,3.868,2.819,5.458
			c0.394,0.785,0.804,1.592,1.355,2.279c0.262,0.319,0.567,0.625,0.952,0.789l0.024,0.01l0.024,0.009l0.024,0.009l0.024,0.008
			l0.024,0.008c0.465,0.15,0.966,0.002,1.37-0.245c0.491-0.299,0.896-0.723,1.249-1.173c0.539-0.696,0.963-1.483,1.291-2.299
			c0.438-1.078,0.659-2.237,0.729-3.395c0.121-1.807-0.082-3.703,0.096-5.507c0.111-1.255,0.502-2.478,1.124-3.572
			c1.529-2.703,4.149-5.154,6.16-7.505c1.52-1.704,3.356-4.307,4.955-5.934c0.401-0.383,0.885-0.846,1.428-0.968l0.017-0.003
			l0.017-0.003l0.017-0.002l0.017-0.002l0.017-0.002l0.017-0.001l0.016-0.001l0.016-0.001l0.016,0l0.016,0l0.016,0l0.016,0.001
			l0.016,0.001l0.016,0.001l0.016,0.002l0.016,0.002l0.015,0.002l0.015,0.003l0.015,0.003l0.015,0.003l0.015,0.004l0.015,0.004
			l0.015,0.005l0.015,0.005l0.015,0.005l0.014,0.005l0.014,0.006l0.014,0.006l0.014,0.006l0.014,0.007l0.014,0.007l0.013,0.007
			l0.013,0.008l0.013,0.008l0.013,0.008l0.013,0.009l0.013,0.009l0.013,0.009l0.013,0.01l0.013,0.01l0.013,0.01
			c0.181,0.153,0.306,0.361,0.413,0.57c0.214,0.432,0.361,0.912,0.501,1.374c0.549,1.9,1.041,4.06,2.127,5.73
			c1.037,1.604,2.587,2.794,4.149,3.854c1.87,1.261,4.175,2.625,5.758,4.215c1.324,1.313,2.378,2.891,3.335,4.483
			c1.517,2.531,2.984,5.466,4.873,7.737c1.015,1.216,2.185,2.317,3.499,3.204c0.555,0.366,1.142,0.709,1.779,0.911
			c0.297,0.089,0.618,0.157,0.925,0.082l0.014-0.004l0.014-0.004l0.014-0.004l0.014-0.005l0.014-0.005l0.014-0.005l0.013-0.005
			l0.013-0.006l0.013-0.006l0.013-0.006l0.013-0.006l0.012-0.007l0.012-0.007l0.012-0.007l0.012-0.007l0.012-0.007l0.012-0.008
			l0.011-0.008l0.011-0.008l0.011-0.008l0.011-0.009l0.011-0.009l0.01-0.009l0.01-0.009l0.01-0.009l0.01-0.01l0.009-0.01l0.009-0.01
			l0.009-0.01l0.009-0.01l0.009-0.011l0.008-0.011l0.008-0.011l0.008-0.011l0.008-0.012l0.008-0.012l0.008-0.012l0.007-0.012
			c0.095-0.163,0.136-0.351,0.159-0.537c0.05-0.43,0.015-0.878-0.02-1.309c-0.149-1.671-0.443-3.542,0.036-5.178
			c0.765-2.564,3.007-4.481,4.759-6.396c0.673-0.723,1.345-1.491,1.914-2.3c0.725-1.013,1.515-2.555,2.119-3.653
			c0.209-0.362,0.425-0.738,0.706-1.051c0.102-0.111,0.216-0.216,0.353-0.282l0.011-0.005l0.011-0.005l0.011-0.005l0.011-0.004
			l0.011-0.004l0.011-0.004l0.011-0.004l0.011-0.003l0.011-0.003l0.011-0.003l0.011-0.003l0.011-0.002l0.011-0.002l0.011-0.002
			l0.011-0.002l0.011-0.001l0.011-0.001l0.011-0.001l0.011-0.001l0.011,0h0.011l0.011,0l0.011,0.001l0.011,0.001l0.011,0.001
			l0.011,0.001l0.011,0.002l0.011,0.002l0.015,0.003l0.015,0.003l0.015,0.004l0.015,0.004l0.015,0.005l0.015,0.005l0.015,0.006
			l0.015,0.006l0.015,0.007l0.015,0.007l0.015,0.008l0.015,0.008l0.015,0.009l0.015,0.009l0.015,0.009l0.015,0.01l0.015,0.01
			l0.015,0.011l0.015,0.011c0.161,0.126,0.289,0.292,0.404,0.459c0.44,0.665,0.749,1.429,1.057,2.162
			c1.152,2.854,2.344,6.396,4.096,8.922c3.134,4.693,8.384,7.318,13.249,9.859c1.877,0.929,10.071,4.973,11.762,5.834
			c1.336,0.629,2.708,1.321,4.182,1.535c0.641,0.085,1.352,0.018,1.86-0.42c0.346-0.288,0.587-0.682,0.772-1.087
			c0.312-0.694,0.486-1.448,0.631-2.193c0.462-2.605,0.704-5.829,1.207-8.427c0.992-5.419,2.692-11.491,4.181-16.805
			c0.181-0.559,0.359-1.167,0.652-1.68c0.062-0.102,0.132-0.206,0.226-0.281l0.007-0.005l0.007-0.005l0.007-0.005l0.007-0.004
			l0.007-0.004l0.007-0.004l0.007-0.004l0.007-0.004l0.007-0.003l0.007-0.003l0.007-0.003l0.007-0.003l0.007-0.003l0.007-0.002
			l0.007-0.002l0.007-0.002l0.007-0.002l0.007-0.002l0.007-0.001l0.007-0.001l0.007-0.001l0.007-0.001l0.007-0.001l0.007,0l0.007,0
			l0.007,0l0.007,0l0.006,0l0.007,0.001l0.006,0.001l0.007,0.001l0.006,0.001l0.006,0.001l0.006,0.002l0.01,0.003l0.01,0.004
			l0.01,0.004l0.01,0.005l0.01,0.005l0.01,0.006l0.01,0.006l0.01,0.007l0.01,0.007l0.01,0.008l0.01,0.008l0.01,0.009l0.01,0.009
			l0.01,0.01l0.01,0.01l0.01,0.011l0.01,0.011l0.01,0.012l0.01,0.012l0.01,0.013c0.136,0.178,0.225,0.39,0.308,0.597
			c0.534,1.427,1.138,4.213,1.541,5.714c0.463,1.762,0.989,3.592,1.665,5.283c0.615,1.546,1.39,3.081,2.196,4.536
			c1.588,2.829,3.657,6.12,4.784,9.14c0.833,2.138,1.309,4.418,1.558,6.695c0.301,2.52,0.431,5.792,0.838,8.292
			c0.106,0.621,0.238,1.258,0.433,1.858c0.222,0.666,0.521,1.35,1.071,1.811l0.028,0.023l0.028,0.022l0.029,0.021l0.029,0.021
			l0.029,0.02l0.03,0.02l0.03,0.019l0.03,0.019l0.031,0.018l0.031,0.017l0.031,0.017l0.032,0.016l0.032,0.015l0.032,0.015
			l0.032,0.014l0.033,0.014l0.031,0.012l0.031,0.011l0.031,0.011l0.031,0.01l0.032,0.01c0.631,0.185,1.306,0.054,1.913-0.159
			c1.449-0.534,2.692-1.519,3.796-2.578c2.095-2.073,3.8-4.65,4.501-7.537c1.094-4.514-0.404-9.737-1.151-14.217
			c-0.462-2.682-0.773-5.438-0.592-8.16c0.205-3.003,0.886-5.977,1.898-8.808c0.565-1.537,1.218-3.072,2.12-4.445
			c0.337-0.488,0.699-0.991,1.206-1.314l0.024-0.014l0.024-0.013l0.024-0.013l0.023-0.012l0.023-0.011l0.023-0.011l0.023-0.01
			l0.023-0.009l0.023-0.009l0.023-0.008l0.022-0.007l0.022-0.006l0.022-0.006l0.022-0.005l0.022-0.004l0.022-0.004l0.021-0.003
			l0.021-0.002l0.021-0.001l0.021-0.001l0.021,0l0.021,0.001l0.015,0.001l0.015,0.001l0.015,0.002l0.015,0.002l0.014,0.002
			l0.014,0.003l0.014,0.003l0.014,0.004l0.014,0.004l0.014,0.004l0.014,0.005l0.014,0.005l0.014,0.005l0.014,0.006l0.014,0.006
			l0.014,0.007l0.014,0.007l0.013,0.007l0.013,0.008l0.013,0.008l0.013,0.008L472.38,478l0.013,0.009l0.013,0.009l0.013,0.01
			l0.013,0.01l0.013,0.01l0.013,0.011c0.316,0.283,0.484,0.692,0.647,1.075c0.493,1.265,0.934,2.897,1.448,4.15
			c0.458,1.156,1.037,2.278,1.792,3.27c1.867,2.467,4.528,4.44,6.669,6.654c1.355,1.386,2.589,2.932,3.437,4.684
			c0.737,1.496,1.154,3.136,1.341,4.789c0.529,4.664-0.272,9.912-0.705,14.578c-0.099,1.097-0.189,2.293-0.179,3.394
			c0.018,0.782,0.052,1.594,0.346,2.328l0.018,0.041l0.018,0.04l0.019,0.04l0.019,0.039l0.02,0.038l0.02,0.037l0.021,0.036
			l0.021,0.035l0.022,0.034l0.023,0.033l0.023,0.032l0.024,0.031l0.024,0.03l0.025,0.029l0.025,0.028l0.026,0.027l0.019,0.019
			l0.019,0.018l0.019,0.018l0.02,0.017l0.02,0.017l0.02,0.016l0.021,0.016l0.021,0.015l0.021,0.015l0.021,0.014l0.022,0.014
			l0.022,0.013l0.022,0.013l0.023,0.013l0.023,0.012l0.023,0.012l0.023,0.011l0.024,0.011l0.024,0.01l0.024,0.01l0.024,0.009
			l0.025,0.009l0.025,0.008l0.025,0.008l0.025,0.007l0.026,0.007l0.026,0.007l0.026,0.006l0.026,0.006
			c0.356,0.072,0.725,0.025,1.075-0.058c0.654-0.162,1.276-0.458,1.869-0.772c2.587-1.385,7.8-5.474,10.265-7.212
			c2.2-1.605,4.494-3.317,6.366-5.298c1.789-1.865,3.226-4.059,4.354-6.379c1.106-2.286,1.961-4.729,2.424-7.229
			c0.484-2.374,0.291-5.02,0.177-7.427c-0.059-1.575-0.01-3.186,0.224-4.745c0.413-2.681,1.204-5.327,2.22-7.839
			c0.524-1.25,1.104-2.509,1.901-3.611c0.295-0.39,0.62-0.783,1.052-1.025l0.023-0.012l0.023-0.012l0.023-0.011l0.023-0.011
			l0.023-0.01l0.023-0.009l0.023-0.009l0.023-0.008l0.023-0.008l0.023-0.007l0.023-0.006l0.023-0.006l0.023-0.005l0.022-0.005
			l0.022-0.004l0.022-0.003l0.022-0.003l0.018-0.002l0.018-0.001l0.018-0.001l0.018-0.001l0.018,0l0.018,0l0.018,0.001l0.018,0.001
			l0.018,0.002l0.018,0.002l0.018,0.002l0.018,0.003l0.018,0.003l0.018,0.004l0.018,0.004l0.018,0.004l0.018,0.005l0.018,0.005
			l0.018,0.006l0.017,0.006l0.017,0.006l0.017,0.007l0.017,0.007l0.017,0.008l0.017,0.008l0.017,0.008l0.017,0.009l0.017,0.009
			l0.017,0.01l0.017,0.01c0.321,0.197,0.545,0.516,0.74,0.831c0.233,0.386,0.426,0.81,0.6,1.226
			c0.733,1.788,1.488,4.379,2.192,6.182c1.09,2.858,2.916,6.25,3.84,9.164c0.648,1.988,1.011,4.088,0.974,6.182
			c-0.094,4.821-2.025,9.821-3.12,14.476c-0.116,0.588-0.259,1.201-0.19,1.803l0.004,0.025l0.004,0.024l0.005,0.024l0.005,0.023
			l0.006,0.023l0.006,0.022l0.006,0.021l0.007,0.021l0.007,0.02l0.008,0.019l0.008,0.019l0.008,0.018l0.009,0.018l0.009,0.017
			l0.01,0.016l0.01,0.016l0.01,0.015l0.011,0.014l0.011,0.014l0.012,0.013l0.012,0.012l0.01,0.01l0.011,0.009l0.011,0.009
			l0.011,0.008l0.012,0.008l0.012,0.007l0.012,0.007l0.013,0.006l0.013,0.006l0.013,0.006l0.013,0.005l0.014,0.005l0.014,0.004
			l0.014,0.004l0.014,0.003l0.015,0.003l0.015,0.003l0.015,0.002l0.016,0.002l0.016,0.001l0.016,0.001l0.016,0h0.017l0.017,0
			l0.017-0.001l0.018-0.001l0.018-0.002l0.018-0.002l0.018-0.002l0.019-0.003l0.019-0.003c0.231-0.043,0.448-0.146,0.655-0.255
			c1.016-0.566,1.943-1.371,2.839-2.109c1.528-1.29,4.156-3.638,5.681-4.817c1.068-0.806,3.388-2.621,4.352-3.443
			c0.877-0.76,1.723-1.582,2.428-2.506c0.615-0.803,1.124-1.693,1.48-2.64c0.341-0.897,0.542-1.848,0.664-2.798
			c0.536-4.655-0.25-9.797-0.107-14.468c0.049-1.951,0.222-3.93,0.744-5.816c0.511-1.849,1.371-3.598,2.392-5.217
			c1.915-3.055,4.624-5.972,6.453-9.081c1.934-3.265,2.855-7.059,2.991-10.832c0.138-3.334-0.355-6.691-1.111-9.932
			c-0.787-3.576-2.085-7.848-1.791-11.534c0.082-1.053,0.315-2.1,0.71-3.08c0.642-1.612,1.64-3.068,2.663-4.459
			c2.261-2.984,4.83-6.191,6.461-9.559c1.754-3.517,2.727-7.398,3.526-11.229c0.696-3.243,1.395-8.433,2.063-11.696
			c0.097-0.408,0.193-0.842,0.373-1.223l0.013-0.025l0.013-0.024l0.013-0.022l0.013-0.021l0.013-0.02l0.013-0.019l0.013-0.018
			l0.013-0.017l0.013-0.016l0.013-0.015l0.013-0.013l0.013-0.012l0.013-0.011l0.013-0.01l0.013-0.009l0.013-0.007l0.013-0.006
			l0.013-0.005l0.013-0.004l0.013-0.003l0.013-0.001l0.013,0l0.004,0l0.004,0l0.004,0.001l0.004,0.001l0.004,0.001l0.004,0.001
			l0.004,0.001l0.004,0.001l0.004,0.001l0.004,0.001l0.004,0.001l0.004,0.002l0.004,0.002l0.004,0.002l0.004,0.002l0.004,0.002
			l0.004,0.002l0.004,0.002l0.004,0.002l0.004,0.003c0.111,0.07,0.186,0.185,0.262,0.289c0.354,0.509,0.684,1.171,1.324,1.355
			l0.028,0.007l0.028,0.006l0.028,0.005l0.029,0.005l0.029,0.004l0.029,0.003l0.029,0.002l0.03,0.002l0.03,0.001l0.03,0l0.031,0
			l0.031-0.001l0.031-0.002l0.031-0.003l0.032-0.003l0.032-0.004l0.032-0.005l0.032-0.005l0.033-0.006l0.033-0.007l0.033-0.007
			c0.881-0.23,1.653-0.919,2.296-1.54c2.055-2.097,3.584-4.681,4.745-7.365c0.711-1.693,1.265-3.481,1.481-5.309
			c0.227-1.887,0.09-3.815-0.186-5.69c-0.289-2.119-0.977-4.809-0.819-6.949c0.07-0.936,0.348-1.872,0.91-2.633
			c0.543-0.746,1.269-1.343,2.015-1.877c0.97-0.704,2.899-1.806,3.932-2.441c1.681-1.062,3.477-2.259,4.32-4.133
			c0.468-1.074,0.545-2.274,0.497-3.431c-0.081-2.298-0.788-4.763-0.747-7.067c0.022-0.562,0.102-1.134,0.335-1.65
			c0.502-1.115,1.704-1.647,2.774-2.083c1.034-0.421,2.302-0.794,3.182-1.491c0.283-0.229,0.531-0.511,0.684-0.844l0.015-0.033
			c0.202-0.46,0.233-0.976,0.2-1.472c-0.071-0.963-0.357-1.914-0.649-2.83c-0.73-2.244-1.842-4.87-2.17-7.205
			c-0.134-0.942-0.158-1.918,0.065-2.848c0.451-1.901,1.77-3.444,3.142-4.773c2.178-2.112,4.857-3.936,6.651-6.414
			c0.666-0.932,1.173-1.979,1.523-3.069"/>
	</g>
	<g id="POLYLINE_00000097471399257328380420000004814181367065647766_">
		
			<path fill="none" stroke="#FB8604" stroke-width="2.75" stroke-linecap="round" stroke-linejoin="round" stroke-miterlimit="10" d="
			M431.553,511.457c-1.323,6.031-4.025,13.491-5.979,19.402c-0.575,1.855-1.203,3.767-1.399,5.706
			c-0.031,0.425-0.043,0.864,0.073,1.278c0.07,0.246,0.207,0.483,0.428,0.62c0.264,0.167,0.587,0.192,0.891,0.203l0.697,0.012
			c0.414,0.013,0.841,0.066,1.212,0.262c0.307,0.159,0.557,0.411,0.742,0.701c0.384,0.611,0.54,1.337,0.643,2.043
			c0.21,1.641,0.139,3.336,0.056,4.984c-0.336,5.046-1.046,10.154-2.223,15.075c-0.62,2.683-1.804,5.892-2.746,8.495
			c-0.382,1.168-0.813,2.379-0.804,3.621c0.013,0.542,0.18,1.116,0.674,1.406c0.275,0.165,0.596,0.237,0.911,0.278
			c1.388,0.149,2.871-0.172,4.253-0.294c0.468-0.037,0.956-0.08,1.415,0.04c0.259,0.068,0.497,0.227,0.623,0.468
			c0.135,0.251,0.172,0.542,0.184,0.824c0.015,0.388-0.023,0.788-0.067,1.173c-0.158,1.492-1.005,5.559-1.264,7.09
			c-0.257,1.527-0.532,3.198-0.623,4.742c-0.058,1.058-0.056,2.141,0.187,3.178c0.172,0.738,0.489,1.458,1.007,2.019
			c0.473,0.517,1.098,0.868,1.753,1.102c1.94,0.661,4.071,0.668,6.101,0.734c0,0,1.868,0.02,1.868,0.02l91.207-0.003
			c0.687-0.015,1.805-0.019,2.496-0.058c1.191-0.06,2.419-0.158,3.579-0.447c0.921-0.228,1.819-0.598,2.583-1.167
			c0.754-0.554,1.366-1.285,1.862-2.075c1.299-2.108,1.996-4.539,2.488-6.948c0.942-4.763,0.862-9.753-0.414-14.446
			c-0.281-1.03-0.615-2.07-1.016-3.06c-0.299-0.727-0.65-1.449-1.149-2.061c-0.521-0.647-1.201-1.15-1.913-1.569
			c-1.083-0.655-2.396-1.209-3.552-1.735c-2.071-0.936-5.555-2.198-7.435-3.397c-0.639-0.415-1.177-0.971-1.612-1.594
			c-1.035-1.471-1.781-3.145-2.473-4.799c-0.901-2.203-1.69-4.494-2.11-6.842c-0.586-3.052-0.125-6.942,0.047-10.037
			c0.032-0.287,0.062-0.587,0.174-0.856c0.034-0.077,0.078-0.151,0.138-0.211c0.13-0.131,0.32-0.171,0.497-0.197
			c0.343-0.044,0.706-0.092,1.017-0.251c0.343-0.168,0.636-0.424,0.901-0.695c1.457-1.538,2.156-3.61,2.686-5.62
			c0.575-2.286,1.255-5.058,1.618-7.381c0.59-3.683,0.894-7.76,1.15-11.491"/>
	</g>
	<g id="POLYLINE_00000049182615181898320500000017095658783229644673_">
		
			<path fill="none" stroke="#FB8604" stroke-width="2.75" stroke-linecap="round" stroke-linejoin="round" stroke-miterlimit="10" d="
			M626.532,235.897c-0.593,0.635-1.411,0.988-2.282,0.962c-1.23-0.035-2.369-0.619-3.382-1.274c-1.89-1.262-3.478-2.955-4.754-4.828
			c-1.451-2.149-2.504-4.662-2.522-7.286c-0.006-1.135,0.176-2.296,0.687-3.318c0.347-0.697,0.869-1.317,1.541-1.719
			c0.759-0.46,1.649-0.661,2.528-0.719c1.305-0.08,2.619,0.132,3.869,0.497c1.524,0.451,3.015,1.151,4.165,2.268
			c1.014,0.971,1.702,2.25,2.054,3.603c0.333,1.272,0.434,2.604,0.414,3.915c-0.028,1.407-0.204,2.823-0.549,4.188
			C627.949,233.508,627.474,234.874,626.532,235.897z"/>
	</g>
	<g id="POLYLINE_00000172418504833896876280000001136022361502568875_">
		
			<path fill="none" stroke="#FB8604" stroke-width="2.75" stroke-linecap="round" stroke-linejoin="round" stroke-miterlimit="10" d="
			M560.984,220.82c2.369,4.1,4.766,8.356,5.859,12.997c0.64,2.627,0.765,5.37,0.457,8.052c-0.407,3.788-1.542,8.299-2.116,12.068
			c-0.534,3.43-0.77,6.967-0.189,10.406c1.623,9.085,7.426,17.074,10.53,25.647c1.002,2.712,1.646,5.58,1.771,8.473
			c0.264,5.027-0.726,10.508-0.789,15.533c-0.032,1.995,0.066,4.023,0.35,5.999c0.444,3.09,1.33,6.196,2.256,9.174l2.564,7.884
			c0.649,2.148,1.321,4.358,1.498,6.603c0.05,0.756,0.036,1.532-0.162,2.267c-0.155,0.578-0.434,1.121-0.789,1.601
			c-0.629,0.86-1.665,1.741-2.417,2.499c-0.738,0.734-1.423,1.541-1.974,2.425c-0.999,1.596-1.572,3.427-2.056,5.234
			c-1.047,3.874-1.602,8.909-2.422,12.848c-0.115,0.467-0.226,0.961-0.451,1.389l-0.014,0.024l-0.014,0.023l-0.014,0.022
			l-0.014,0.021l-0.014,0.02l-0.014,0.019l-0.014,0.018l-0.014,0.017l-0.014,0.016l-0.014,0.015l-0.014,0.014l-0.014,0.013
			l-0.014,0.012l-0.014,0.01l-0.014,0.009l-0.014,0.008l-0.014,0.007l-0.007,0.003l-0.007,0.003l-0.007,0.003l-0.007,0.002
			l-0.007,0.002l-0.007,0.002l-0.007,0.002l-0.007,0.001l-0.007,0.001l-0.007,0.001l-0.007,0.001l-0.007,0l-0.007,0l-0.007,0
			l-0.007,0l-0.007-0.001l-0.007-0.001l-0.007-0.001l-0.007-0.001l-0.007-0.001l-0.008-0.002l-0.007-0.002l-0.008-0.002
			l-0.008-0.002l-0.008-0.003l-0.008-0.003l-0.008-0.003l-0.008-0.003l-0.008-0.004l-0.008-0.004l-0.008-0.004l-0.008-0.004
			l-0.008-0.004l-0.008-0.005l-0.008-0.005l-0.008-0.005c-0.088-0.058-0.16-0.138-0.227-0.219c-0.322-0.401-0.781-1.276-1.052-1.723
			c-0.435-0.725-0.916-1.45-1.568-1.999c-0.903-0.78-2.262-1.278-3.342-1.767c-1.205-0.536-2.357-1.266-3.175-2.317
			c-0.448-0.564-0.811-1.202-1.129-1.847c-1.059-2.161-1.833-4.995-2.57-7.297c-0.204-0.611-0.415-1.254-0.706-1.829
			c-0.081-0.154-0.17-0.309-0.284-0.442l-0.014-0.016l-0.014-0.016l-0.014-0.015l-0.014-0.014l-0.014-0.014l-0.014-0.013
			l-0.014-0.013l-0.014-0.012l-0.014-0.011l-0.014-0.011l-0.014-0.01l-0.014-0.009l-0.014-0.009l-0.014-0.008l-0.014-0.007
			l-0.014-0.007l-0.014-0.006l-0.014-0.005l-0.014-0.005l-0.014-0.004l-0.012-0.003l-0.012-0.002l-0.012-0.002l-0.012-0.001
			l-0.012-0.001l-0.012-0.001l-0.012,0l-0.012,0l-0.012,0.001l-0.012,0.001l-0.012,0.002l-0.012,0.002l-0.012,0.003l-0.012,0.003
			l-0.012,0.003l-0.012,0.004l-0.012,0.004l-0.012,0.005l-0.012,0.005l-0.012,0.006l-0.012,0.006l-0.012,0.006l-0.012,0.007
			l-0.012,0.007l-0.012,0.008l-0.012,0.008l-0.012,0.009l-0.012,0.009l-0.012,0.009l-0.012,0.01l-0.012,0.01l-0.012,0.011
			l-0.012,0.011c-0.207,0.198-0.346,0.458-0.473,0.712c-0.651,1.409-1.015,2.986-1.4,4.486c-1.15,5.114-2.523,10.905-4.091,15.874
			c-0.942,3.016-1.94,6.23-3.239,9.106c-0.286,0.614-0.595,1.238-0.972,1.801c-0.174,0.254-0.364,0.507-0.605,0.703l-0.021,0.017
			l-0.021,0.016l-0.021,0.015l-0.021,0.015l-0.021,0.014l-0.021,0.013l-0.021,0.012l-0.021,0.012l-0.021,0.011l-0.021,0.01
			l-0.021,0.009l-0.02,0.009l-0.02,0.008l-0.02,0.007l-0.02,0.006l-0.02,0.006l-0.02,0.005l-0.02,0.004l-0.02,0.003l-0.02,0.003
			l-0.02,0.002l-0.019,0.001l-0.019,0l-0.019-0.001l-0.019-0.001l-0.014-0.002l-0.014-0.002l-0.014-0.003l-0.014-0.003l-0.014-0.003
			l-0.014-0.004l-0.014-0.004l-0.014-0.005l-0.014-0.005l-0.014-0.005l-0.014-0.006l-0.014-0.006l-0.013-0.007l-0.013-0.007
			l-0.013-0.008l-0.013-0.008l-0.013-0.008l-0.013-0.009l-0.013-0.009l-0.013-0.01l-0.013-0.01l-0.013-0.01l-0.013-0.011
			l-0.013-0.011l-0.013-0.012c-0.238-0.225-0.387-0.528-0.524-0.821c-0.705-1.655-1.143-3.657-1.871-5.302
			c-0.298-0.685-0.654-1.359-1.143-1.928c-0.786-0.95-2.001-1.611-3.046-2.24c-0.732-0.443-1.448-0.941-2.058-1.544
			c-0.762-0.74-1.35-1.644-1.844-2.579c-1.868-3.526-2.861-7.812-4.618-11.387c-0.27-0.499-0.561-1.013-0.997-1.386l-0.025-0.02
			l-0.025-0.019l-0.025-0.018l-0.025-0.018l-0.025-0.017l-0.025-0.016l-0.025-0.016l-0.025-0.015l-0.025-0.014l-0.025-0.013
			l-0.025-0.012l-0.025-0.012l-0.025-0.011l-0.017-0.007l-0.017-0.007l-0.017-0.006l-0.017-0.006l-0.017-0.005l-0.017-0.005
			l-0.017-0.005l-0.017-0.004l-0.017-0.004l-0.017-0.004l-0.017-0.003l-0.017-0.003l-0.017-0.003l-0.017-0.002l-0.017-0.002
			l-0.017-0.002l-0.017-0.001l-0.017-0.001l-0.017-0.001l-0.017,0l-0.017,0l-0.017,0l-0.017,0.001l-0.017,0.001l-0.017,0.001
			l-0.017,0.002l-0.017,0.002l-0.017,0.002l-0.017,0.003l-0.018,0.003l-0.018,0.003c-0.497,0.114-0.875,0.51-1.199,0.882
			c-0.496,0.591-0.908,1.272-1.296,1.938c-1.242,2.288-3.851,6.85-4.927,9.178c-0.541,1.191-1,2.442-1.3,3.716
			c-0.271,1.122-0.408,2.292-0.486,3.442l-0.191,3.684c-0.056,0.727-0.109,1.479-0.326,2.178c-0.076,0.231-0.174,0.463-0.337,0.647
			l-0.012,0.013l-0.012,0.013l-0.012,0.012l-0.012,0.012l-0.013,0.012l-0.013,0.012l-0.013,0.011l-0.013,0.011l-0.013,0.011
			l-0.013,0.01l-0.013,0.01l-0.014,0.01l-0.014,0.009l-0.014,0.009l-0.014,0.009l-0.012,0.007l-0.012,0.007l-0.012,0.007
			l-0.013,0.006l-0.013,0.006l-0.013,0.006l-0.013,0.006l-0.013,0.005l-0.013,0.005l-0.013,0.005l-0.013,0.005l-0.013,0.004
			l-0.014,0.004l-0.014,0.004l-0.014,0.004l-0.014,0.003l-0.014,0.003l-0.014,0.003c-0.428,0.074-0.846-0.126-1.213-0.327
			c-1.189-0.706-2.172-1.735-3.12-2.728c-1.636-1.775-3.204-3.676-4.278-5.851c-0.885-1.777-1.391-3.748-1.434-5.735
			c-0.051-4.132,1.422-8.451,1.648-12.563c0.101-1.749,0.001-3.562-0.671-5.2c-1.116-2.71-3.755-4.414-6.169-5.875
			c-2.305-1.363-5.559-2.996-7.694-4.586c-1.044-0.778-2.039-1.668-2.755-2.766c-1.079-1.648-1.328-3.673-1.361-5.602
			c-0.054-2.806,0.346-5.926-0.37-8.673c-0.572-2.353-2.213-4.185-4.022-5.709c-2.396-2.043-5.726-4.014-8.192-5.972
			c-1.061-0.849-2.098-1.777-2.889-2.89c-0.531-0.742-0.913-1.592-1.125-2.479c-0.305-1.249-0.311-2.555-0.257-3.832
			c0.114-2.29,0.421-4.922-0.101-7.167c-0.268-1.215-0.792-2.363-1.416-3.434c-1.169-2.055-3.643-5.013-5.094-6.915
			c-1.755-2.331-3.476-4.853-4.053-7.763c-0.675-3.594,0.534-7.208,1.85-10.517c2.581-6.326,6.441-12.738,7.291-19.614
			c0.992-6.896-0.297-14.499,2.936-20.922c0.961-1.933,2.337-3.64,3.854-5.166c3.563-3.627,8.317-6.65,12.266-9.835
			c0.741-0.64,1.555-1.309,2.045-2.167l0.02-0.037l0.018-0.037l0.017-0.037l0.016-0.037l0.015-0.036l0.014-0.036l0.013-0.036
			l0.012-0.035l0.011-0.035l0.01-0.035l0.009-0.035l0.008-0.034l0.007-0.034l0.006-0.034l0.005-0.033l0.004-0.033l0.002-0.033
			l0.001-0.032l0-0.032l-0.001-0.032l-0.002-0.032l-0.003-0.031l-0.004-0.031c-0.056-0.339-0.313-0.597-0.57-0.805
			c-0.649-0.516-1.507-0.863-2.107-1.442c-0.157-0.156-0.296-0.337-0.371-0.547l-0.009-0.027l-0.008-0.027l-0.008-0.028
			l-0.007-0.028l-0.006-0.028l-0.005-0.028l-0.005-0.028l-0.004-0.029l-0.003-0.029l-0.003-0.029l-0.002-0.029l-0.001-0.03l0-0.03
			l0-0.03l0.001-0.03l0.002-0.03l0.002-0.031l0.003-0.031l0.004-0.031l0.004-0.031l0.005-0.031l0.006-0.031l0.006-0.032l0.007-0.032
			l0.008-0.032l0.008-0.032c0.173-0.603,0.575-1.11,0.988-1.57c0.9-0.971,1.988-1.768,3.09-2.494
			c4.092-2.614,8.726-4.432,13.528-5.185c6.33-1.064,13.023-0.209,19.322-1.047c4.782-0.643,9.52-3.009,14.199-4.078
			c1.269-0.286,2.579-0.474,3.88-0.509c1.846-0.056,3.735,0.154,5.561,0.409c3.757,0.523,8.014,1.507,11.782,0.845
			c3.868-0.656,7.637-2.544,11.619-2.488c2.112,0.012,4.208,0.478,6.213,1.117c6.578,2.187,12.605,6.053,18.23,10.042
			c3.687,2.679,7.292,5.636,10.424,8.952c2.474,2.567,4.724,5.835,6.783,8.751"/>
	</g>
	<g id="POLYLINE_00000059302828175902845480000001323658535104641156_">
		
			<path fill="none" stroke="#FB8604" stroke-width="2.75" stroke-linecap="round" stroke-linejoin="round" stroke-miterlimit="10" d="
			M627.581,234.271c0.695,1.669,1.202,3.437,1.41,5.235c0.198,1.662,0.129,3.362-0.139,5.013c-0.87,5.272-3.193,10.703-3.57,16.057
			c-0.358,4.668,1.262,9.624,1.621,14.249c0.195,2.261,0.136,4.566-0.249,6.804c-0.661,3.734-2.066,7.327-3.746,10.714
			c-0.947,1.856-1.994,3.706-3.287,5.345c-0.476,0.578-0.977,1.174-1.629,1.559l-0.031,0.017l-0.031,0.016l-0.031,0.015l-0.03,0.014
			l-0.03,0.013l-0.03,0.013l-0.03,0.012l-0.029,0.011l-0.029,0.01l-0.029,0.009l-0.028,0.008l-0.028,0.007l-0.028,0.006
			l-0.027,0.005l-0.027,0.004l-0.027,0.003l-0.026,0.002l-0.026,0.001l-0.026,0l-0.025-0.001l-0.025-0.002l-0.024-0.003
			l-0.024-0.004l-0.024-0.005l-0.023-0.006l-0.023-0.007l-0.023-0.008l-0.022-0.009l-0.022-0.01l-0.021-0.011l-0.021-0.012
			l-0.021-0.013l-0.02-0.014l-0.02-0.015l-0.01-0.008l-0.01-0.009l-0.01-0.009l-0.01-0.009l-0.01-0.01l-0.01-0.01l-0.01-0.01
			l-0.01-0.01l-0.01-0.011l-0.009-0.011c-0.205-0.257-0.286-0.587-0.355-0.902c-0.243-1.261-0.166-2.687-0.239-3.966
			c-0.013-0.168-0.023-0.343-0.072-0.505l-0.003-0.01l-0.003-0.01l-0.004-0.009l-0.004-0.009l-0.004-0.008l-0.004-0.008
			l-0.004-0.008l-0.004-0.007l-0.004-0.007l-0.004-0.006l-0.004-0.006l-0.004-0.006l-0.004-0.005l-0.005-0.005l-0.005-0.004
			l-0.005-0.004l-0.005-0.004l-0.005-0.003l-0.005-0.003l-0.005-0.002l-0.005-0.002l-0.005-0.002l-0.005-0.001l-0.005-0.001
			l-0.005,0l-0.006,0l-0.006,0l-0.006,0.001l-0.006,0.001l-0.006,0.001l-0.006,0.002l-0.006,0.002l-0.006,0.003l-0.006,0.003
			l-0.006,0.003l-0.007,0.004l-0.007,0.004l-0.007,0.004l-0.007,0.005l-0.007,0.005l-0.007,0.005l-0.007,0.006l-0.007,0.006
			l-0.007,0.006l-0.007,0.007c-0.163,0.164-0.283,0.381-0.406,0.577c-1.161,2.04-2.442,4.129-4.049,5.843
			c-2.125,2.275-4.66,4.161-7.33,5.749c-1.591,0.925-3.26,1.779-5.028,2.309c-0.718,0.2-1.475,0.379-2.223,0.273l-0.037-0.006
			l-0.037-0.007l-0.036-0.008l-0.035-0.008l-0.035-0.009l-0.034-0.009l-0.033-0.01l-0.033-0.01l-0.032-0.011l-0.032-0.012
			l-0.031-0.012l-0.03-0.013l-0.03-0.014l-0.029-0.014l-0.028-0.015l-0.028-0.015l-0.027-0.016l-0.026-0.017l-0.026-0.017
			l-0.025-0.018l-0.024-0.018l-0.023-0.019l-0.023-0.02l-0.022-0.02l-0.021-0.021l-0.021-0.022l-0.02-0.022l-0.019-0.023
			l-0.019-0.024l-0.018-0.024l-0.017-0.025l-0.016-0.025l-0.016-0.026l-0.015-0.027l-0.014-0.027l-0.008-0.017l-0.008-0.017
			l-0.008-0.017c-0.102-0.244-0.117-0.515-0.106-0.776c0.111-1.417,0.794-2.839,1.279-4.162c0.1-0.287,0.227-0.582,0.255-0.887
			l0-0.01l0-0.01l0-0.009l0-0.009l0-0.009l-0.001-0.009l-0.001-0.008l-0.001-0.008l-0.001-0.008l-0.002-0.007l-0.002-0.007
			l-0.003-0.01l-0.004-0.009l-0.004-0.009l-0.005-0.008l-0.005-0.007l-0.006-0.007l-0.006-0.006l-0.007-0.005l-0.007-0.004
			l-0.008-0.004l-0.008-0.003l-0.009-0.002l-0.009-0.002l-0.01-0.001l-0.01,0l-0.011,0l-0.011,0.001l-0.012,0.002l-0.012,0.002
			l-0.013,0.003l-0.013,0.004l-0.013,0.004l-0.014,0.005l-0.014,0.005l-0.015,0.006l-0.015,0.007l-0.016,0.007l-0.016,0.008
			c-0.518,0.296-0.966,0.752-1.411,1.147c-2.385,2.249-5.109,4.971-7.727,6.909c-1.312,0.978-2.736,1.844-4.283,2.394
			c-2.337,0.868-4.877,0.872-7.327,0.619"/>
	</g>
	<g id="POLYLINE_00000164490962166180698120000005181734368411564437_">
		
			<path fill="none" stroke="#FB8604" stroke-width="2.75" stroke-linecap="round" stroke-linejoin="round" stroke-miterlimit="10" d="
			M169.023,479.782c-1.1,4.308-2.296,8.866-3.924,12.996c-0.77,1.919-1.658,3.834-2.896,5.5c-0.555,0.745-1.192,1.436-1.896,2.043
			c-1.18,1.039-3.106,2.186-4.423,3.069c-6.816,4.581-13.334,10.255-16.874,17.815c-1.958,4.141-3.2,8.621-4,13.121
			c-0.321,1.877-0.612,3.902-0.744,5.8c-0.027,0.477-0.049,0.975-0.003,1.452c0.042,0.369,0.111,0.83,0.474,1.018
			c0.205,0.101,0.443,0.094,0.666,0.077c3.863-0.497,8.265-1.81,12.05-2.801c1.102-0.274,2.271-0.56,3.397-0.705
			c0.392-0.047,0.795-0.083,1.19-0.049c0.283,0.028,0.589,0.094,0.794,0.307l0.008,0.009l0.008,0.009l0.008,0.009l0.008,0.009
			l0.008,0.009l0.007,0.009l0.007,0.01l0.007,0.01l0.007,0.01l0.007,0.01l0.006,0.01l0.006,0.01
			c0.176,0.299,0.117,0.667,0.037,0.987c-0.211,0.76-0.61,1.477-0.977,2.172c-1.477,2.76-4.319,7.32-5.478,10.182
			c-0.383,0.98-0.627,2.017-0.715,3.065c-0.279,3.058,0.744,7.391,1.149,10.436c0.326,2.331,0.599,4.732,0.4,7.084
			c-0.174,2.292-0.888,4.646-1.541,6.845c-0.124,0.455-0.249,0.927-0.299,1.396c-0.025,0.254-0.027,0.516,0.042,0.763
			c0.112,0.425,0.436,0.705,0.841,0.848c0.773,0.262,1.621,0.2,2.425,0.168c0.516-0.029,1.961-0.143,2.496-0.185
			c1.87-0.179,3.798-0.38,5.57-1.038c0.719-0.251,1.522-0.689,2.245-0.932c0.09-0.025,0.185-0.047,0.279-0.038l0.006,0.001
			l0.006,0.001l0.006,0.001l0.006,0.001l0.006,0.001l0.006,0.001l0.006,0.001l0.006,0.001l0.005,0.002l0.005,0.002l0.005,0.002
			l0.005,0.002l0.005,0.002l0.005,0.002l0.005,0.002l0.005,0.002l0.005,0.002l0.005,0.003l0.005,0.003l0.004,0.003l0.004,0.003
			l0.004,0.003l0.004,0.003l0.004,0.003l0.004,0.003l0.004,0.003l0.004,0.004l0.004,0.004l0.004,0.004l0.004,0.004l0.003,0.004
			l0.003,0.004l0.003,0.004l0.003,0.004l0.003,0.004l0.003,0.005l0.003,0.005l0.003,0.005l0.003,0.005l0.003,0.005l0.003,0.005
			l0.002,0.005l0.002,0.005l0.002,0.006l0.002,0.006l0.002,0.006l0.002,0.006l0.002,0.006l0.002,0.006l0.002,0.006
			c0.064,0.299-0.102,0.751-0.201,1.041c-0.92,2.401-2.589,4.837-3.834,7.085c-0.503,0.914-1.005,1.863-1.332,2.856
			c-0.192,0.606-0.332,1.268-0.164,1.896c0.114,0.433,0.4,0.804,0.761,1.062c0.435,0.315,0.95,0.5,1.466,0.637
			c2.202,0.519,4.561,0.492,6.813,0.562l76.209,0.038l3.282-0.016c1.17-0.033,2.405-0.045,3.551-0.291
			c0.735-0.155,1.456-0.467,1.989-1.009c0.755-0.77,1.208-1.785,1.655-2.751c1.467-3.312,2.685-7.28,4.695-10.31
			c1.41-2.154,3.305-3.955,5.337-5.517c1.663-1.273,5.016-3.7,6.496-5.081c0.954-0.874,1.825-1.86,2.511-2.959
			c0.985-1.57,1.59-3.354,1.968-5.161c0.412-2.001,0.551-4.066,0.397-6.104c-0.439-5.33-3.05-13.706-4.313-18.973
			c-0.436-1.759-0.847-3.601-0.965-5.412c-0.096-1.367-0.062-2.779,0.027-4.146c0.095-1.285,0.229-2.621,0.516-3.879
			c0.104-0.416,0.21-0.847,0.433-1.217c0.079-0.125,0.179-0.245,0.317-0.307l0.007-0.003l0.007-0.003l0.007-0.003l0.007-0.003
			l0.007-0.003l0.007-0.002l0.007-0.002l0.007-0.002l0.007-0.002l0.007-0.002l0.007-0.002l0.007-0.002l0.007-0.001l0.007-0.001
			l0.007-0.001l0.007-0.001l0.007-0.001l0.007-0.001l0.007-0.001l0.007,0l0.007,0l0.007,0l0.007,0c0.126,0,0.244,0.056,0.347,0.125
			c0.559,0.409,0.991,1.267,1.38,1.839c0.184,0.268,0.374,0.555,0.656,0.728c0.131,0.079,0.291,0.111,0.441,0.074
			c0.351-0.091,0.636-0.403,0.869-0.666c0.371-0.437,0.687-0.932,0.981-1.423c0.647-1.055,3.2-6.237,3.82-7.425
			c1.185-2.337,1.868-4.906,2.357-7.47c1.225-6.67,1.49-13.722,1.691-20.496"/>
	</g>
	<g id="POLYLINE_00000083052199623006178730000009206521380417946801_">
		
			<path fill="none" stroke="#FB8604" stroke-width="2.75" stroke-linecap="round" stroke-linejoin="round" stroke-miterlimit="10" d="
			M143.24,514.494c-5.254-2.514-10.089-6.182-13.269-11.121c-2.262-3.494-3.756-7.49-4.379-11.603
			c-0.621-4.112-0.29-8.439,1.427-12.259c2.426-5.585,7.047-10.286,8.874-16.152c0.775-2.526,0.887-5.212,0.775-7.837
			c-0.229-4.903-1.27-10.903-1.103-15.811c0.048-2.176,0.337-4.38,0.734-6.519c0.377-2.216,1.283-5.623,1.559-7.853
			c0.026-0.295,0.048-0.603-0.005-0.897l-0.004-0.022l-0.005-0.021l-0.005-0.021l-0.005-0.02l-0.006-0.02l-0.006-0.019l-0.006-0.018
			l-0.007-0.018l-0.007-0.017l-0.007-0.017l-0.007-0.016l-0.008-0.016l-0.008-0.015l-0.008-0.014l-0.009-0.014l-0.009-0.013
			l-0.009-0.013l-0.01-0.012l-0.01-0.011l-0.01-0.011l-0.011-0.01l-0.011-0.01l-0.011-0.009l-0.012-0.008l-0.012-0.008l-0.012-0.007
			l-0.013-0.007l-0.013-0.006l-0.014-0.005l-0.014-0.005l-0.014-0.004l-0.015-0.004l-0.015-0.003l-0.015-0.002l-0.016-0.002
			l-0.016-0.001l-0.016,0l-0.017,0l-0.017,0.001l-0.018,0.002l-0.015,0.002l-0.015,0.002l-0.016,0.003l-0.016,0.003l-0.016,0.004
			l-0.016,0.004l-0.017,0.005l-0.017,0.005l-0.017,0.005c-0.254,0.087-0.481,0.243-0.7,0.397c-1.558,1.172-3.123,2.797-4.729,3.902
			c-0.706,0.476-1.548,1.016-2.421,1.048l-0.031,0l-0.031,0l-0.031-0.001l-0.031-0.001l-0.03-0.002l-0.03-0.003l-0.03-0.003
			l-0.03-0.004l-0.03-0.004l-0.029-0.005l-0.029-0.005l-0.029-0.006l-0.029-0.006l-0.029-0.007l-0.028-0.007l-0.028-0.008
			l-0.028-0.008l-0.028-0.009l-0.028-0.009l-0.027-0.01l-0.027-0.01l-0.027-0.011l-0.027-0.011l-0.027-0.012l-0.027-0.012
			l-0.026-0.013l-0.026-0.013l-0.026-0.014c-0.482-0.265-0.807-0.739-1.038-1.226c-0.492-1.074-0.645-2.275-0.711-3.444
			c-0.109-2.53,0.271-5.08,0.999-7.5c0.908-2.987,2.376-5.799,3.963-8.477c2.174-3.667,5.667-8.632,7.164-12.576
			c0.994-2.539,1.576-5.267,1.504-8.001c-0.04-1.618-0.309-3.239-0.793-4.784c-0.583-1.93-1.833-4.278-2.715-6.107
			c-1.25-2.576-2.371-5.412-1.992-8.327c0.198-1.642,0.865-3.193,1.671-4.624c1.528-2.678,3.564-5.09,5.591-7.401
			c2.174-2.435,6.746-7.266,8.674-9.786c0.766-0.993,1.514-2.041,2.105-3.149c0.452-0.846,0.804-1.759,1.044-2.687
			c0.274-0.996,0.472-2.578,0.634-3.61c0.213-1.372,0.599-2.738,1.321-3.933c0.4-0.679,0.896-1.311,1.415-1.903
			c1.575-1.798,3.828-3.683,5.63-5.275c0.728-0.654,1.556-1.364,2.186-2.113c0.135-0.166,0.269-0.342,0.362-0.536l0.01-0.021
			l0.009-0.021l0.009-0.021l0.008-0.02l0.007-0.02l0.007-0.02l0.006-0.019l0.005-0.019l0.005-0.019l0.004-0.019l0.004-0.018
			l0.003-0.018l0.002-0.018l0.002-0.017l0.001-0.017l0-0.017l0-0.016l-0.001-0.016l-0.002-0.016l-0.002-0.015l-0.003-0.015
			l-0.004-0.015l-0.005-0.014l-0.005-0.014l-0.006-0.014l-0.007-0.014l-0.007-0.013l-0.008-0.013l-0.005-0.008l-0.005-0.007
			l-0.006-0.007l-0.006-0.007l-0.006-0.007l-0.006-0.007l-0.007-0.007l-0.007-0.007l-0.007-0.007l-0.007-0.007l-0.008-0.006
			l-0.008-0.006l-0.008-0.006l-0.008-0.006l-0.009-0.006l-0.009-0.006l-0.009-0.006l-0.009-0.006l-0.01-0.006
			c-0.353-0.183-0.879-0.183-1.274-0.205c-0.866-0.034-1.907,0.014-2.746-0.206c-0.191-0.054-0.382-0.127-0.542-0.249l-0.019-0.015
			l-0.018-0.015l-0.018-0.016l-0.017-0.016l-0.017-0.016l-0.016-0.017l-0.016-0.017l-0.015-0.017l-0.014-0.018l-0.014-0.018
			l-0.013-0.018l-0.013-0.019l-0.012-0.019l-0.012-0.019l-0.011-0.02l-0.011-0.02l-0.01-0.02l-0.01-0.02l-0.009-0.021l-0.009-0.021
			l-0.008-0.021l-0.008-0.022l-0.007-0.022l-0.007-0.022l-0.006-0.023l-0.005-0.023l-0.005-0.023l-0.004-0.023l-0.004-0.024
			l-0.003-0.024l-0.003-0.024l-0.002-0.025l-0.002-0.025l-0.001-0.025l-0.001-0.025l0-0.026l0-0.026l0.001-0.026l0.001-0.026
			l0.002-0.027c0.02-0.27,0.104-0.532,0.209-0.78c0.175-0.407,0.414-0.788,0.671-1.148c1.248-1.694,2.888-3.072,4.589-4.292
			c4.304-3.108,9.507-4.612,14.63-5.742c4.703-1.095,11.258-1.985,15.546-4.226c1.732-0.896,3.179-2.254,4.433-3.731l1.837-2.192
			c0.798-0.916,1.642-1.807,2.652-2.488c0.793-0.545,1.685-0.945,2.615-1.192c1.446-0.388,2.969-0.5,4.462-0.541
			c3.891-0.1,8.354,0.415,12.233,0.064c1.176-0.114,2.353-0.311,3.465-0.717c0.906-0.331,1.76-0.809,2.542-1.372
			c1.696-1.229,3.248-2.936,4.872-4.26c1.12-0.914,2.353-1.706,3.69-2.26c1.5-0.627,3.117-0.96,4.725-1.162
			c3.52-0.426,7.16-0.276,10.69-0.007c8.522,0.655,18.989,2.75,27.502,3.809c3.142,0.357,6.351,0.563,9.499,0.196
			c3.679-0.44,7.282-1.629,10.772-2.839c3.691-1.257,7.933-3.285,11.804-3.823c2.529-0.393,5.123-0.339,7.662-0.067
			c3.187,0.341,6.424,1.004,9.525,1.811c6.506,1.759,13.091,4.155,18.739,7.887c1.59,1.073,3.111,2.325,4.529,3.617
			c1.647,1.499,3.698,3.568,5.454,4.929c1.043,0.812,2.175,1.539,3.38,2.086c1.208,0.551,2.501,0.935,3.799,1.209
			c2.809,0.584,5.727,0.691,8.589,0.655c5.998-0.103,12.866-0.943,18.844-1.551c4.776-0.558,10.12-1.176,14.808-2.222
			c2.316-0.528,4.681-1.139,6.83-2.173c1.045-0.519,2.087-1.152,2.786-2.107c0.61-0.806,0.862-1.832,1.211-2.761
			c0.189-0.491,0.439-0.984,0.863-1.311c0.259-0.204,0.569-0.337,0.884-0.429c0.507-0.146,1.039-0.198,1.564-0.216
			c0.736-0.023,1.489,0.026,2.221,0.098c2.7,0.275,6.11,1.005,8.744,1.47c3.338,0.613,6.788,1.043,10.185,1.11
			c8.964,0.219,17.919-2.132,25.808-6.347"/>
	</g>
</g>
<g id="_x32_D_x24_AG-OUTLINE">
	<g id="POLYLINE_00000102523908281831624420000002599499415552967814_">
		
			<path fill="none" stroke="#FB8604" stroke-width="3.5" stroke-linecap="round" stroke-linejoin="round" stroke-miterlimit="10" d="
			M617.01,217.932c-2.063-2.934-4.312-6.175-6.783-8.751c-3.133-3.315-6.738-6.273-10.424-8.952
			c-5.624-3.989-11.652-7.854-18.23-10.042c-2.005-0.638-4.101-1.105-6.213-1.117c-3.982-0.056-7.752,1.832-11.619,2.488
			c-3.759,0.663-8.044-0.324-11.782-0.845c-1.831-0.255-3.714-0.465-5.562-0.409c-1.301,0.035-2.611,0.223-3.88,0.509
			c-4.68,1.07-9.417,3.436-14.199,4.078c-6.297,0.838-12.993-0.017-19.322,1.047c-4.898,0.771-9.627,2.641-13.776,5.349
			c-1.04,0.703-2.068,1.473-2.912,2.407c-0.385,0.439-0.756,0.924-0.918,1.493l-0.008,0.032l-0.008,0.032l-0.007,0.032l-0.006,0.032
			l-0.006,0.031l-0.005,0.031l-0.004,0.031l-0.004,0.031l-0.003,0.031l-0.002,0.031l-0.002,0.03l-0.001,0.03l0,0.03l0,0.03
			l0.001,0.03l0.002,0.029l0.003,0.029l0.003,0.029l0.004,0.029l0.005,0.028l0.005,0.028l0.006,0.028l0.007,0.028l0.008,0.028
			l0.008,0.027l0.009,0.027c0.074,0.21,0.214,0.391,0.371,0.547c0.6,0.579,1.457,0.926,2.107,1.442
			c0.257,0.207,0.514,0.466,0.57,0.805l0.004,0.031l0.003,0.031l0.002,0.032l0.001,0.032l0,0.032l-0.001,0.032l-0.002,0.033
			l-0.004,0.033l-0.005,0.033l-0.006,0.034l-0.007,0.034l-0.008,0.034l-0.009,0.035l-0.01,0.035l-0.011,0.035l-0.012,0.035
			l-0.013,0.036l-0.014,0.036l-0.015,0.036l-0.016,0.037l-0.017,0.037l-0.018,0.037l-0.02,0.037
			c-0.489,0.856-1.306,1.529-2.045,2.167c-3.954,3.192-8.7,6.207-12.266,9.835c-1.567,1.575-2.979,3.344-3.947,5.353
			c-3.116,6.389-1.86,13.904-2.843,20.735c-0.927,7.496-5.368,14.289-7.927,21.271c-0.992,2.778-1.767,5.786-1.236,8.743
			c0.532,2.866,2.196,5.366,3.911,7.664l2.587,3.319c-7.556,4.034-16.086,6.369-24.671,6.359c-3.378,0.004-6.796-0.344-10.125-0.913
			c-3.539-0.577-7.771-1.607-11.327-1.775c-0.727-0.02-1.46-0.006-2.171,0.155c-0.383,0.09-0.766,0.227-1.083,0.466
			c-0.443,0.327-0.698,0.831-0.892,1.334c-0.332,0.918-0.606,1.923-1.183,2.722c-0.664,0.932-1.66,1.56-2.665,2.073
			c-1.77,0.88-3.704,1.445-5.616,1.927c-3.781,0.932-7.853,1.516-11.72,2.018c-6.665,0.755-14.863,1.741-21.536,2.027
			c-3.445,0.117-6.963,0.09-10.35-0.608c-1.299-0.274-2.59-0.658-3.799-1.209c-1.205-0.547-2.337-1.274-3.38-2.086
			c-1.748-1.358-3.807-3.432-5.454-4.929c-1.501-1.368-3.11-2.683-4.806-3.802c-5.619-3.632-12.031-5.963-18.462-7.701
			c-3.102-0.807-6.338-1.469-9.526-1.811c-2.328-0.248-4.706-0.317-7.033-0.02c-3.639,0.388-7.712,2.179-11.13,3.441
			c-4.028,1.438-8.181,2.894-12.455,3.35c-3.779,0.383-7.624-0.018-11.373-0.524c-8.175-1.161-18.446-3.104-26.661-3.624
			c-3.158-0.194-6.414-0.269-9.558,0.146c-1.512,0.206-3.034,0.535-4.446,1.126c-1.264,0.524-2.44,1.261-3.508,2.113
			c-1.767,1.401-3.378,3.239-5.233,4.532c-0.73,0.508-1.527,0.94-2.364,1.246c-1.111,0.406-2.292,0.603-3.465,0.717
			c-3.891,0.351-8.338-0.164-12.233-0.064c-1.49,0.041-3.016,0.153-4.462,0.541c-0.96,0.255-1.883,0.675-2.696,1.248
			c-0.974,0.673-1.799,1.541-2.571,2.432l-1.837,2.192c-1.255,1.477-2.701,2.835-4.433,3.731
			c-4.268,2.235-10.852,3.134-15.545,4.226c-5.218,1.147-10.517,2.696-14.867,5.911c-1.635,1.199-3.214,2.547-4.407,4.2
			c-0.379,0.556-0.76,1.168-0.826,1.851l-0.002,0.027l-0.001,0.026l-0.001,0.026l0,0.026l0,0.026l0.001,0.025l0.001,0.025
			l0.002,0.025l0.002,0.025l0.003,0.024l0.003,0.024l0.004,0.024l0.004,0.023l0.005,0.023l0.005,0.023l0.006,0.023l0.007,0.022
			l0.007,0.022l0.008,0.022l0.008,0.021l0.009,0.021l0.009,0.021l0.01,0.02l0.01,0.02l0.011,0.02l0.011,0.02l0.012,0.019
			l0.012,0.019l0.013,0.019l0.013,0.018l0.014,0.018l0.014,0.018l0.015,0.017l0.016,0.017l0.016,0.017l0.017,0.016l0.017,0.016
			l0.018,0.016l0.018,0.015l0.019,0.015c0.159,0.122,0.35,0.195,0.542,0.249c0.836,0.219,1.883,0.172,2.746,0.206
			c0.395,0.022,0.921,0.022,1.274,0.205l0.01,0.006l0.009,0.006l0.009,0.006l0.009,0.006l0.009,0.006l0.008,0.006l0.008,0.006
			l0.008,0.006l0.008,0.006l0.007,0.007l0.007,0.007l0.007,0.007l0.007,0.007l0.006,0.007l0.006,0.007l0.006,0.007l0.006,0.007
			l0.005,0.007l0.005,0.008l0.008,0.013l0.007,0.013l0.007,0.014l0.006,0.014l0.005,0.014l0.005,0.014l0.004,0.015l0.003,0.015
			l0.002,0.015l0.002,0.016l0.001,0.016l0,0.016l0,0.017l-0.001,0.017l-0.002,0.017l-0.002,0.018l-0.003,0.018l-0.004,0.018
			l-0.004,0.019l-0.005,0.019l-0.005,0.019l-0.006,0.019l-0.007,0.02l-0.007,0.02l-0.008,0.02l-0.009,0.021l-0.009,0.021
			l-0.01,0.021c-0.094,0.194-0.227,0.369-0.362,0.536c-0.629,0.748-1.457,1.458-2.186,2.113c-1.808,1.598-4.05,3.472-5.63,5.275
			c-0.519,0.592-1.015,1.224-1.415,1.903c-0.721,1.196-1.108,2.562-1.321,3.933c-0.165,1.043-0.359,2.608-0.634,3.61
			c-0.24,0.929-0.592,1.841-1.044,2.687c-0.591,1.107-1.339,2.156-2.105,3.149c-1.907,2.499-6.53,7.387-8.673,9.786
			c-2.027,2.313-4.063,4.723-5.591,7.401c-0.806,1.431-1.473,2.982-1.671,4.624c-0.379,2.915,0.742,5.751,1.992,8.327
			c0.885,1.835,2.129,4.169,2.715,6.107c0.507,1.618,0.778,3.319,0.797,5.015c0.036,2.743-0.581,5.473-1.603,8.009
			c-1.483,3.808-4.964,8.804-7.069,12.336c-1.587,2.678-3.055,5.49-3.963,8.477c-0.728,2.421-1.108,4.971-0.999,7.5
			c0.066,1.17,0.219,2.37,0.711,3.444c0.231,0.487,0.556,0.962,1.038,1.226l0.026,0.014l0.026,0.013l0.026,0.013l0.027,0.012
			l0.027,0.012l0.027,0.011l0.027,0.011l0.027,0.01l0.027,0.01l0.028,0.009l0.028,0.009l0.028,0.008l0.028,0.008l0.028,0.007
			l0.029,0.007l0.029,0.006l0.029,0.006l0.029,0.005l0.029,0.005l0.03,0.004l0.03,0.004l0.03,0.003l0.03,0.003l0.03,0.002
			l0.031,0.001l0.031,0.001l0.031,0l0.031,0c0.872-0.032,1.715-0.572,2.421-1.048c1.606-1.104,3.173-2.731,4.729-3.902
			c0.219-0.153,0.446-0.309,0.7-0.397l0.017-0.005l0.017-0.005l0.017-0.005l0.016-0.004l0.016-0.004l0.016-0.003l0.016-0.003
			l0.015-0.002l0.015-0.002l0.018-0.002l0.017-0.001l0.017,0l0.016,0l0.016,0.001l0.016,0.002l0.015,0.002l0.015,0.003l0.015,0.004
			l0.014,0.004l0.014,0.005l0.014,0.005l0.013,0.006l0.013,0.007l0.012,0.007l0.012,0.008l0.012,0.008l0.011,0.009l0.011,0.01
			l0.011,0.01l0.01,0.011l0.01,0.011l0.01,0.012l0.009,0.013l0.009,0.013l0.009,0.014l0.008,0.014l0.008,0.015l0.008,0.016
			l0.007,0.016l0.007,0.017l0.007,0.017l0.007,0.018l0.006,0.018l0.006,0.019l0.006,0.02l0.005,0.02l0.005,0.021l0.005,0.021
			l0.004,0.022c0.056,0.319,0.028,0.652-0.003,0.973c-0.332,2.464-1.269,5.939-1.661,8.39c-0.341,1.939-0.58,3.938-0.624,5.906
			c-0.167,4.898,0.875,10.913,1.103,15.811c0.111,2.625,0,5.311-0.775,7.837c-1.827,5.865-6.448,10.567-8.874,16.152
			c-1.717,3.82-2.048,8.148-1.426,12.259c0.623,4.113,2.117,8.109,4.379,11.603c3.18,4.938,8.016,8.607,13.269,11.121
			c-4.868,5.928-7.208,13.493-8.418,20.963c-0.269,1.905-0.621,4.019-0.573,5.939c0.019,0.28,0.049,0.568,0.16,0.829
			c0.098,0.234,0.279,0.396,0.534,0.439c0.252,0.045,0.513,0.007,0.765-0.025c3.743-0.535,8.07-1.794,11.745-2.766
			c1.102-0.274,2.271-0.56,3.397-0.705c0.392-0.047,0.795-0.083,1.19-0.049c0.283,0.028,0.589,0.094,0.794,0.307l0.008,0.009
			l0.008,0.009l0.008,0.009l0.008,0.009l0.008,0.009l0.007,0.009l0.007,0.01l0.007,0.01l0.007,0.01l0.007,0.01l0.006,0.01
			l0.006,0.01c0.176,0.299,0.117,0.667,0.037,0.987c-0.211,0.76-0.61,1.477-0.977,2.172c-1.477,2.76-4.319,7.32-5.478,10.182
			c-0.383,0.98-0.627,2.017-0.715,3.065c-0.279,3.058,0.744,7.391,1.149,10.436c0.326,2.331,0.599,4.732,0.4,7.084
			c-0.174,2.292-0.888,4.646-1.541,6.845c-0.124,0.455-0.249,0.927-0.299,1.396c-0.025,0.254-0.027,0.516,0.042,0.763
			c0.112,0.425,0.436,0.705,0.841,0.848c0.773,0.262,1.621,0.2,2.425,0.168c0.516-0.029,1.961-0.143,2.496-0.185
			c1.87-0.179,3.798-0.38,5.57-1.038c0.719-0.251,1.522-0.689,2.245-0.932c0.09-0.025,0.185-0.047,0.279-0.038l0.006,0.001
			l0.006,0.001l0.006,0.001l0.006,0.001l0.006,0.001l0.006,0.001l0.006,0.001l0.006,0.001l0.005,0.002l0.005,0.002l0.005,0.002
			l0.005,0.002l0.005,0.002l0.005,0.002l0.005,0.002l0.005,0.002l0.005,0.002l0.005,0.003l0.005,0.003l0.004,0.003l0.004,0.003
			l0.004,0.003l0.004,0.003l0.004,0.003l0.004,0.003l0.004,0.003l0.004,0.004l0.004,0.004l0.004,0.004l0.004,0.004l0.003,0.004
			l0.003,0.004l0.003,0.004l0.003,0.004l0.003,0.004l0.003,0.005l0.003,0.005l0.003,0.005l0.003,0.005l0.003,0.005l0.003,0.005
			l0.002,0.005l0.002,0.005l0.002,0.006l0.002,0.006l0.002,0.006l0.002,0.006l0.002,0.006l0.002,0.006l0.002,0.006
			c0.064,0.299-0.102,0.751-0.201,1.041c-0.92,2.401-2.589,4.837-3.834,7.085c-0.503,0.914-1.005,1.863-1.332,2.856
			c-0.192,0.606-0.332,1.268-0.164,1.896c0.114,0.433,0.4,0.804,0.761,1.062c0.435,0.315,0.95,0.5,1.466,0.637
			c2.202,0.519,4.561,0.492,6.813,0.562l76.209,0.038l3.282-0.016c1.17-0.033,2.405-0.045,3.551-0.291
			c0.735-0.155,1.456-0.467,1.989-1.009c0.755-0.77,1.208-1.785,1.655-2.751c1.467-3.312,2.685-7.28,4.695-10.31
			c1.41-2.154,3.305-3.955,5.337-5.517c1.663-1.273,5.016-3.7,6.496-5.081c0.954-0.874,1.825-1.86,2.511-2.959
			c0.985-1.57,1.59-3.354,1.968-5.161c0.412-2.001,0.551-4.066,0.397-6.104c-0.439-5.33-3.05-13.706-4.313-18.973
			c-0.436-1.759-0.847-3.601-0.965-5.412c-0.096-1.367-0.062-2.779,0.027-4.146c0.095-1.285,0.229-2.621,0.516-3.879
			c0.104-0.416,0.21-0.847,0.433-1.217c0.079-0.125,0.179-0.245,0.317-0.307l0.007-0.003l0.007-0.003l0.007-0.003l0.007-0.003
			l0.007-0.003l0.007-0.002l0.007-0.002l0.007-0.002l0.007-0.002l0.007-0.002l0.007-0.002l0.007-0.002l0.007-0.001l0.007-0.001
			l0.007-0.001l0.007-0.001l0.007-0.001l0.007-0.001l0.007-0.001l0.007,0l0.007,0l0.007,0l0.007,0c0.126,0,0.244,0.056,0.347,0.125
			c0.559,0.409,0.991,1.267,1.38,1.839c0.184,0.268,0.374,0.555,0.656,0.728c0.131,0.079,0.291,0.111,0.441,0.074
			c0.351-0.091,0.636-0.403,0.869-0.666c0.371-0.437,0.687-0.932,0.981-1.423c0.647-1.055,3.2-6.237,3.82-7.425
			c1.185-2.337,1.868-4.906,2.357-7.47c1.225-6.67,1.49-13.722,1.691-20.496c0.543-0.637,1.16-1.22,1.849-1.697
			c1.007-0.701,2.145-1.209,3.302-1.605c3.921-1.359,8.421-1.455,12.351-2.774c1.213-0.431,2.352-1.072,3.365-1.864
			c1.747-1.362,3.469-3.37,5.116-4.849c3.8-3.467,8.796-6.928,13.002-9.932c0.974-0.657,2.276-1.68,3.362-2.145
			c0.154-0.058,0.315-0.113,0.481-0.101l0.008,0.001l0.008,0.001l0.008,0.001l0.008,0.001l0.008,0.001l0.008,0.001l0.007,0.002
			l0.007,0.002l0.007,0.002l0.007,0.002l0.007,0.002l0.007,0.002l0.007,0.002l0.007,0.003l0.007,0.003l0.006,0.003l0.006,0.003
			l0.006,0.003l0.006,0.003l0.006,0.003l0.006,0.004l0.006,0.004l0.006,0.004l0.006,0.004l0.005,0.004l0.005,0.004l0.005,0.004
			l0.005,0.005l0.005,0.005l0.005,0.005l0.005,0.005l0.005,0.005l0.004,0.005l0.004,0.006l0.004,0.006l0.004,0.006l0.006,0.009
			l0.006,0.009l0.005,0.009l0.005,0.01l0.005,0.01l0.005,0.01l0.004,0.011l0.004,0.011l0.004,0.011l0.004,0.012l0.003,0.012
			l0.003,0.012l0.003,0.012l0.003,0.013l0.003,0.013l0.002,0.013l0.002,0.014l0.002,0.014c0.031,0.395-0.088,0.79-0.181,1.17
			c-0.697,2.424-1.566,4.951-1.777,7.475c-0.19,2.05,0.034,4.136,0.544,6.127c0.811,3.082,2.257,6.068,4.469,8.388
			c1.025,1.085,2.307,1.894,3.668,2.491c1.433,0.637,3.184,1.281,4.368,2.326c0.53,0.451,0.987,0.987,1.378,1.562
			c1.002,1.44,2.041,3.868,2.819,5.458c0.394,0.785,0.804,1.592,1.355,2.279c0.262,0.319,0.567,0.625,0.952,0.789l0.024,0.01
			l0.024,0.009l0.024,0.009l0.024,0.008l0.024,0.008c0.465,0.15,0.966,0.002,1.37-0.245c0.491-0.299,0.896-0.723,1.249-1.173
			c0.539-0.696,0.963-1.483,1.291-2.299c0.438-1.078,0.659-2.237,0.729-3.395c0.121-1.807-0.082-3.703,0.096-5.507
			c0.111-1.255,0.502-2.478,1.124-3.572c1.529-2.703,4.149-5.154,6.16-7.505c1.52-1.704,3.356-4.307,4.955-5.934
			c0.401-0.383,0.885-0.846,1.428-0.968l0.017-0.003l0.017-0.003l0.017-0.002l0.017-0.002l0.017-0.002l0.017-0.001l0.016-0.001
			l0.016-0.001l0.016,0l0.016,0l0.016,0l0.016,0.001l0.016,0.001l0.016,0.001l0.016,0.002l0.016,0.002l0.015,0.002l0.015,0.003
			l0.015,0.003l0.015,0.003l0.015,0.004l0.015,0.004l0.015,0.005l0.015,0.005l0.015,0.005l0.014,0.005l0.014,0.006l0.014,0.006
			l0.014,0.006l0.014,0.007l0.014,0.007l0.013,0.007l0.013,0.008l0.013,0.008l0.013,0.008l0.013,0.009l0.013,0.009l0.013,0.009
			l0.013,0.01l0.013,0.01l0.013,0.01c0.181,0.153,0.306,0.361,0.413,0.57c0.214,0.432,0.361,0.912,0.501,1.374
			c0.549,1.9,1.041,4.06,2.127,5.73c1.037,1.604,2.587,2.794,4.149,3.854c1.87,1.261,4.175,2.625,5.758,4.215
			c1.324,1.313,2.378,2.891,3.335,4.483c1.517,2.531,2.984,5.466,4.873,7.737c1.015,1.216,2.185,2.317,3.499,3.204
			c0.555,0.366,1.142,0.709,1.779,0.911c0.297,0.089,0.618,0.157,0.925,0.082l0.014-0.004l0.014-0.004l0.014-0.004l0.014-0.005
			l0.014-0.005l0.014-0.005l0.013-0.005l0.013-0.006l0.013-0.006l0.013-0.006l0.013-0.006l0.012-0.007l0.012-0.007l0.012-0.007
			l0.012-0.007l0.012-0.007l0.012-0.008l0.011-0.008l0.011-0.008l0.011-0.008l0.011-0.009l0.011-0.009l0.01-0.009l0.01-0.009
			l0.01-0.009l0.01-0.01l0.009-0.01l0.009-0.01l0.009-0.01l0.009-0.01l0.009-0.011l0.008-0.011l0.008-0.011l0.008-0.011l0.008-0.012
			l0.008-0.012l0.008-0.012l0.007-0.012c0.095-0.163,0.136-0.351,0.159-0.537c0.05-0.43,0.015-0.878-0.02-1.309
			c-0.149-1.671-0.443-3.542,0.036-5.178c0.765-2.564,3.007-4.481,4.759-6.396c0.673-0.723,1.345-1.491,1.914-2.3
			c0.725-1.013,1.515-2.555,2.119-3.653c0.209-0.362,0.425-0.738,0.706-1.051c0.102-0.111,0.216-0.216,0.353-0.282l0.011-0.005
			l0.011-0.005l0.011-0.005l0.011-0.004l0.011-0.004l0.011-0.004l0.011-0.004l0.011-0.003l0.011-0.003l0.011-0.003l0.011-0.003
			l0.011-0.002l0.011-0.002l0.011-0.002l0.011-0.002l0.011-0.001l0.011-0.001l0.011-0.001l0.011-0.001l0.011,0h0.011l0.011,0
			l0.011,0.001l0.011,0.001l0.011,0.001l0.011,0.001l0.011,0.002l0.011,0.002l0.015,0.003l0.015,0.003l0.015,0.004l0.015,0.004
			l0.015,0.005l0.015,0.005l0.015,0.006l0.015,0.006l0.015,0.007l0.015,0.007l0.015,0.008l0.015,0.008l0.015,0.009l0.015,0.009
			l0.015,0.009l0.015,0.01l0.015,0.01l0.015,0.011l0.015,0.011c0.161,0.126,0.289,0.292,0.404,0.459
			c0.44,0.665,0.749,1.429,1.057,2.162c1.152,2.854,2.344,6.396,4.096,8.922c3.134,4.693,8.384,7.318,13.249,9.859
			c2.396,1.114,12.297,6.295,14.598,7.046c-1.323,6.031-4.025,13.491-5.979,19.402c-0.575,1.855-1.203,3.767-1.399,5.706
			c-0.031,0.425-0.043,0.864,0.073,1.278c0.07,0.246,0.207,0.483,0.428,0.62c0.264,0.167,0.587,0.192,0.891,0.203l0.697,0.012
			c0.414,0.013,0.841,0.066,1.212,0.262c0.307,0.159,0.557,0.411,0.742,0.701c0.384,0.611,0.54,1.337,0.643,2.043
			c0.21,1.641,0.139,3.336,0.056,4.984c-0.336,5.046-1.046,10.154-2.223,15.075c-0.62,2.683-1.804,5.892-2.746,8.495
			c-0.382,1.168-0.813,2.379-0.804,3.621c0.013,0.542,0.18,1.116,0.674,1.406c0.275,0.165,0.596,0.237,0.911,0.278
			c1.388,0.149,2.871-0.172,4.253-0.294c0.468-0.037,0.956-0.08,1.415,0.04c0.259,0.068,0.497,0.227,0.623,0.468
			c0.135,0.251,0.172,0.542,0.184,0.824c0.015,0.388-0.023,0.788-0.067,1.173c-0.158,1.492-1.005,5.559-1.264,7.09
			c-0.257,1.527-0.532,3.198-0.623,4.742c-0.058,1.058-0.056,2.141,0.187,3.178c0.172,0.738,0.489,1.458,1.007,2.019
			c0.473,0.517,1.098,0.868,1.753,1.102c1.94,0.661,4.071,0.668,6.101,0.734c0,0,1.868,0.02,1.868,0.02l91.207-0.003
			c0.687-0.015,1.805-0.019,2.496-0.058c1.191-0.06,2.419-0.158,3.579-0.447c0.921-0.228,1.819-0.598,2.583-1.167
			c0.754-0.554,1.366-1.285,1.862-2.075c1.299-2.108,1.996-4.539,2.488-6.948c0.942-4.763,0.862-9.753-0.414-14.446
			c-0.281-1.03-0.615-2.07-1.016-3.06c-0.299-0.727-0.65-1.449-1.149-2.061c-0.521-0.647-1.201-1.15-1.913-1.569
			c-1.083-0.655-2.396-1.209-3.552-1.735c-2.071-0.936-5.555-2.198-7.435-3.397c-0.639-0.415-1.177-0.971-1.612-1.594
			c-1.035-1.471-1.781-3.145-2.473-4.799c-0.901-2.203-1.69-4.494-2.11-6.842c-0.586-3.052-0.125-6.942,0.047-10.037
			c0.032-0.287,0.062-0.587,0.174-0.856c0.034-0.077,0.078-0.151,0.138-0.211c0.13-0.131,0.32-0.171,0.497-0.197
			c0.343-0.044,0.706-0.092,1.017-0.251c0.343-0.168,0.636-0.424,0.901-0.695c1.457-1.538,2.156-3.61,2.686-5.62
			c0.575-2.286,1.255-5.058,1.618-7.381c0.59-3.683,0.894-7.76,1.15-11.491c0.876-0.776,3.394-2.933,4.219-3.61
			c0.733-0.632,3.362-2.602,4.137-3.242c0.979-0.792,1.954-1.628,2.793-2.568c0.736-0.823,1.377-1.742,1.84-2.746
			c0.424-0.908,0.696-1.886,0.858-2.874c0.261-1.582,0.293-3.233,0.274-4.835c-0.054-3.281-0.398-7.326-0.284-10.589
			c0.064-1.879,0.254-3.784,0.774-5.596c0.515-1.797,1.357-3.497,2.352-5.074c1.915-3.055,4.624-5.972,6.453-9.081
			c1.934-3.265,2.855-7.059,2.991-10.832c0.138-3.334-0.355-6.691-1.111-9.932c-0.787-3.576-2.085-7.848-1.791-11.534
			c0.082-1.053,0.315-2.1,0.71-3.08c0.642-1.612,1.64-3.068,2.663-4.459c2.261-2.984,4.83-6.191,6.461-9.559
			c1.754-3.517,2.727-7.398,3.526-11.229c0.696-3.243,1.395-8.433,2.063-11.696c0.097-0.408,0.193-0.842,0.373-1.223l0.013-0.025
			l0.013-0.024l0.013-0.022l0.013-0.021l0.013-0.02l0.013-0.019l0.013-0.018l0.013-0.017l0.013-0.016l0.013-0.015l0.013-0.013
			l0.013-0.012l0.013-0.011l0.013-0.01l0.013-0.009l0.013-0.007l0.013-0.006l0.013-0.005l0.013-0.004l0.013-0.003l0.013-0.001
			l0.013,0l0.004,0l0.004,0l0.004,0.001l0.004,0.001l0.004,0.001l0.004,0.001l0.004,0.001l0.004,0.001l0.004,0.001l0.004,0.001
			l0.004,0.001l0.004,0.002l0.004,0.002l0.004,0.002l0.004,0.002l0.004,0.002l0.004,0.002l0.004,0.002l0.004,0.002l0.004,0.003
			c0.111,0.07,0.186,0.185,0.262,0.289c0.354,0.509,0.684,1.171,1.324,1.355l0.028,0.007l0.028,0.006l0.028,0.005l0.029,0.005
			l0.029,0.004l0.029,0.003l0.029,0.002l0.03,0.002l0.03,0.001l0.03,0l0.031,0l0.031-0.001l0.031-0.002l0.031-0.003l0.032-0.003
			l0.032-0.004l0.032-0.005l0.032-0.005l0.033-0.006l0.033-0.007l0.033-0.007c0.881-0.23,1.653-0.919,2.296-1.54
			c2.055-2.097,3.584-4.681,4.745-7.365c0.711-1.693,1.265-3.481,1.481-5.309c0.227-1.887,0.09-3.815-0.186-5.69
			c-0.289-2.119-0.977-4.809-0.819-6.949c0.07-0.936,0.348-1.872,0.91-2.633c0.543-0.746,1.269-1.343,2.015-1.877
			c0.97-0.704,2.899-1.806,3.932-2.441c1.681-1.062,3.477-2.259,4.32-4.133c0.468-1.074,0.545-2.274,0.497-3.431
			c-0.081-2.298-0.788-4.763-0.747-7.067c0.022-0.562,0.102-1.134,0.335-1.65c0.502-1.115,1.704-1.647,2.774-2.083
			c1.034-0.421,2.302-0.794,3.182-1.491c0.283-0.229,0.531-0.511,0.684-0.844l0.015-0.033c0.202-0.46,0.233-0.976,0.2-1.472
			c-0.071-0.963-0.357-1.914-0.649-2.83c-0.73-2.244-1.842-4.87-2.17-7.205c-0.134-0.942-0.158-1.918,0.065-2.848
			c0.451-1.901,1.77-3.444,3.142-4.773c2.178-2.112,4.857-3.936,6.651-6.414c0.666-0.932,1.173-1.979,1.523-3.069
			c1.773-1.269,3.474-2.692,4.924-4.325c1.464-1.629,2.666-3.61,3.749-5.511c0.123-0.196,0.243-0.412,0.406-0.577l0.007-0.007
			l0.007-0.006l0.007-0.006l0.007-0.006l0.007-0.005l0.007-0.005l0.007-0.005l0.007-0.004l0.007-0.004l0.007-0.004l0.006-0.003
			l0.006-0.003l0.006-0.003l0.006-0.002l0.006-0.002l0.006-0.001l0.006-0.001l0.006-0.001l0.006,0l0.006,0l0.005,0l0.005,0.001
			l0.005,0.001l0.005,0.002l0.005,0.002l0.005,0.002l0.005,0.003l0.005,0.003l0.005,0.004l0.005,0.004l0.005,0.004l0.005,0.005
			l0.004,0.005l0.004,0.006l0.004,0.006l0.004,0.006l0.004,0.007l0.004,0.007l0.004,0.008l0.004,0.008l0.004,0.008l0.004,0.009
			l0.004,0.009l0.003,0.01l0.003,0.01c0.049,0.162,0.059,0.337,0.072,0.505c0.073,1.281-0.004,2.704,0.239,3.966
			c0.069,0.315,0.15,0.645,0.355,0.902l0.009,0.011l0.01,0.011l0.01,0.01l0.01,0.01l0.01,0.01l0.01,0.01l0.01,0.009l0.01,0.009
			l0.01,0.009l0.01,0.008l0.02,0.015l0.02,0.014l0.021,0.013l0.021,0.012l0.021,0.011l0.022,0.01l0.022,0.009l0.023,0.008
			l0.023,0.007l0.023,0.006l0.024,0.005l0.024,0.004l0.024,0.003l0.025,0.002l0.025,0.001l0.026,0l0.026-0.001l0.026-0.002
			l0.027-0.003l0.027-0.004l0.027-0.005l0.028-0.006l0.028-0.007l0.028-0.008l0.029-0.009l0.029-0.01l0.029-0.011l0.03-0.012
			l0.03-0.013l0.03-0.013l0.03-0.014l0.031-0.015l0.031-0.016l0.031-0.017c0.652-0.384,1.153-0.981,1.629-1.559
			c1.293-1.638,2.34-3.488,3.287-5.345c1.68-3.388,3.085-6.98,3.746-10.714c0.405-2.349,0.448-4.768,0.219-7.138
			c-0.398-4.505-1.944-9.365-1.591-13.916c0.378-5.354,2.701-10.787,3.57-16.057c0.268-1.65,0.337-3.351,0.139-5.013
			c-0.208-1.798-0.715-3.566-1.41-5.235c0.937-2.11,1.269-4.456,1.272-6.752c-0.017-2.322-0.461-4.797-2.043-6.588
			c-1.259-1.454-3.066-2.306-4.895-2.803C620.327,217.709,618.617,217.507,617.01,217.932z"/>
	</g>
</g>
</svg>
