<?xml version="1.0" encoding="utf-8"?>
<!-- Generator: Adobe Illustrator 25.4.1, SVG Export Plug-In . SVG Version: 6.00 Build 0)  -->
<!DOCTYPE svg PUBLIC "-//W3C//DTD SVG 1.1//EN" "http://www.w3.org/Graphics/SVG/1.1/DTD/svg11.dtd" [
	<!ENTITY ns_extend "http://ns.adobe.com/Extensibility/1.0/">
	<!ENTITY ns_ai "http://ns.adobe.com/AdobeIllustrator/10.0/">
	<!ENTITY ns_graphs "http://ns.adobe.com/Graphs/1.0/">
	<!ENTITY ns_vars "http://ns.adobe.com/Variables/1.0/">
	<!ENTITY ns_imrep "http://ns.adobe.com/ImageReplacement/1.0/">
	<!ENTITY ns_sfw "http://ns.adobe.com/SaveForWeb/1.0/">
	<!ENTITY ns_custom "http://ns.adobe.com/GenericCustomNamespace/1.0/">
	<!ENTITY ns_adobe_xpath "http://ns.adobe.com/XPath/1.0/">
]>
<svg version="1.1" xmlns:x="&ns_extend;" xmlns:i="&ns_ai;" xmlns:graph="&ns_graphs;"
	 xmlns="http://www.w3.org/2000/svg" xmlns:xlink="http://www.w3.org/1999/xlink" x="0px" y="0px" width="750px" height="750px"
	 viewBox="0 0 750 750" enable-background="new 0 0 750 750" xml:space="preserve">
<metadata>
	<sfw  xmlns="&ns_sfw;">
		<slices></slices>
		<sliceSourceBounds  bottomLeftOrigin="true" height="11377.313" width="5535" x="-2000" y="-2364"></sliceSourceBounds>
	</sfw>
</metadata>
<g id="FILL-BACKGROUND">
	<rect fill="#FFFFFF" width="750" height="750"/>
</g>
<g id="N-DIMENSIONS">
</g>
<g id="N-TEXT">
</g>
<g id="_x32_D_x24_AG-DIAGRAM">
	<g id="POLYLINE_00000032629198282852959920000013623146641244826753_">
		<g>
			<g>
				
					<line fill="none" stroke="#FB8604" stroke-width="3.25" stroke-linecap="round" stroke-linejoin="round" x1="100.675" y1="595.05" x2="102.675" y2="595.05"/>
				
					<line fill="none" stroke="#FB8604" stroke-width="3.25" stroke-linecap="round" stroke-linejoin="round" stroke-dasharray="3.9984,6.9971" x1="109.672" y1="595.05" x2="524.003" y2="595.05"/>
				
					<line fill="none" stroke="#FB8604" stroke-width="3.25" stroke-linecap="round" stroke-linejoin="round" x1="527.501" y1="595.05" x2="529.501" y2="595.05"/>
			</g>
		</g>
	</g>
</g>
<g id="_x32_D_x24_AG-DETAILS-DIAGRAM">
</g>
<g id="_x32_D_x24_AG-DETAILS">
</g>
<g id="_x32_D_x24_AG-ANIMALS">
	<g id="POLYLINE_00000153703754166728911760000017846028221945145985_">
		
			<path fill="none" stroke="#FB8604" stroke-width="2.75" stroke-linecap="round" stroke-linejoin="round" stroke-miterlimit="10" d="
			M258.549,441.13c0.342,0.32,2.961,2.624,3.376,2.992c1.678,1.504,3.249,3.172,4.562,5.006c2.199,3.044,4.145,7.129,6.177,10.29
			c0.427,0.651,0.879,1.309,1.41,1.88c0.25,0.262,0.521,0.517,0.845,0.684l0.026,0.013l0.026,0.012l0.025,0.011l0.025,0.011
			l0.025,0.01l0.025,0.009l0.025,0.009l0.025,0.008l0.025,0.007l0.025,0.007l0.025,0.006l0.024,0.005l0.024,0.005l0.024,0.004
			l0.024,0.003l0.024,0.003l0.024,0.002l0.024,0.001l0.024,0.001l0.023,0l0.023-0.001l0.023-0.001l0.023-0.002l0.023-0.003
			l0.023-0.004l0.023-0.004l0.023-0.005l0.014-0.004l0.014-0.004l0.014-0.004l0.014-0.004l0.014-0.005l0.014-0.005l0.014-0.005
			l0.014-0.005l0.014-0.006c0.398-0.182,0.661-0.602,0.883-0.963c0.547-0.927,0.949-2.012,1.594-2.878
			c0.19-0.249,0.409-0.485,0.682-0.644l0.024-0.014l0.024-0.013l0.024-0.013l0.024-0.012l0.025-0.012l0.025-0.011l0.025-0.011
			l0.025-0.01l0.025-0.01l0.025-0.009l0.025-0.009l0.025-0.008l0.026-0.008l0.026-0.007l0.026-0.007l0.026-0.006l0.026-0.006
			l0.026-0.006l0.026-0.005l0.027-0.005l0.027-0.004c4.339-0.565,13.341,16.259,17.849,16.079l0.031-0.002l0.03-0.002l0.03-0.003
			l0.03-0.003l0.03-0.004l0.03-0.004l0.03-0.005l0.029-0.006l0.029-0.006l0.029-0.007l0.029-0.007l0.029-0.008l0.029-0.008
			l0.029-0.009l0.028-0.009l0.028-0.01l0.028-0.011l0.028-0.011l0.028-0.012l0.028-0.012l0.027-0.013l0.027-0.014l0.027-0.014
			l0.027-0.015l0.027-0.015l0.027-0.016l0.026-0.017l0.026-0.017l0.026-0.018l0.026-0.018l0.026-0.019
			c0.35-0.265,0.6-0.64,0.811-1.02c0.887-1.703,1.252-3.786,1.726-5.637c0.12-0.432,0.225-0.935,0.451-1.323l0.008-0.012
			l0.008-0.011l0.008-0.011l0.008-0.01l0.008-0.01l0.008-0.009l0.007-0.008l0.007-0.008l0.007-0.007l0.007-0.007l0.007-0.007
			l0.007-0.006l0.007-0.006l0.007-0.005l0.007-0.005l0.007-0.005l0.007-0.004l0.007-0.004l0.007-0.004l0.007-0.003l0.007-0.003
			l0.007-0.002l0.007-0.002l0.007-0.002l0.007-0.001l0.007-0.001l0.007-0.001l0.007,0l0.007,0l0.007,0l0.007,0.001l0.007,0.001
			l0.007,0.001l0.007,0.002l0.007,0.002l0.007,0.002l0.007,0.003l0.007,0.003l0.007,0.003l0.008,0.004l0.008,0.004l0.008,0.004
			l0.008,0.005l0.008,0.005l0.008,0.005l0.008,0.006l0.008,0.006l0.008,0.006l0.008,0.007l0.008,0.007l0.008,0.007l0.008,0.008
			c0.087,0.089,0.152,0.199,0.213,0.306c0.306,0.55,0.937,2.223,1.193,2.823c1.241,3.073,3.063,5.889,5.432,8.213
			c1.302,1.256,2.781,2.466,4.521,3.04c0.813,0.259,1.74,0.332,2.523-0.059c0.462-0.228,0.843-0.593,1.166-0.989
			c0.56-0.695,0.974-1.506,1.354-2.31l0.802-1.773c0.154-0.326,0.317-0.666,0.512-0.969c0.099-0.151,0.209-0.302,0.349-0.418
			l0.012-0.01l0.012-0.01l0.013-0.009l0.012-0.009l0.013-0.009l0.013-0.008l0.013-0.008l0.013-0.007l0.013-0.007l0.013-0.007
			l0.013-0.006l0.013-0.006l0.014-0.006l0.014-0.006l0.014-0.005l0.014-0.005l0.014-0.004l0.014-0.004l0.014-0.003l0.014-0.003
			l0.014-0.002l0.014-0.002l0.014-0.001l0.014-0.001l0.014,0l0.014,0l0.014,0.001l0.014,0.001l0.014,0.002l0.014,0.002l0.014,0.003
			l0.014,0.003l0.014,0.004l0.014,0.004l0.015,0.004l0.015,0.005l0.015,0.005l0.015,0.006l0.015,0.006l0.015,0.007l0.015,0.007
			l0.015,0.008l0.015,0.008l0.015,0.008l0.015,0.009l0.015,0.009l0.015,0.01l0.015,0.01l0.015,0.01
			c0.22,0.163,0.385,0.389,0.536,0.614c0.888,1.413,1.839,3.918,2.546,5.453c0.902,2.014,1.959,4.002,3.268,5.782
			c0.694,0.94,1.456,1.85,2.349,2.607c0.464,0.385,0.971,0.743,1.546,0.937c0.328,0.109,0.69,0.154,1.025,0.054l0.022-0.007
			l0.022-0.007l0.022-0.008l0.022-0.008c0.311-0.116,0.566-0.346,0.768-0.605c0.332-0.429,0.553-0.936,0.739-1.442
			c0.984-2.841,1.444-7.736,1.949-10.735c0.269-1.693,0.581-3.528,0.976-5.195c0.205-0.84,0.434-1.708,0.766-2.507
			c0.171-0.392,0.357-0.798,0.671-1.097l0.016-0.014l0.016-0.014l0.016-0.013l0.016-0.013l0.016-0.012l0.016-0.012l0.016-0.011
			l0.016-0.011l0.016-0.01l0.016-0.01l0.016-0.009l0.016-0.009l0.016-0.008l0.016-0.008l0.016-0.007l0.016-0.007l0.016-0.006
			l0.016-0.005l0.016-0.005l0.016-0.004l0.016-0.004l0.017-0.003l0.017-0.003l0.017-0.002l0.017-0.002l0.017-0.001l0.017-0.001
			l0.017,0l0.017,0l0.017,0.001l0.017,0.001l0.017,0.002l0.017,0.003l0.022,0.004l0.022,0.005l0.022,0.006l0.022,0.007l0.022,0.008
			l0.022,0.009l0.022,0.009l0.022,0.01l0.022,0.011l0.022,0.012l0.022,0.013l0.022,0.014l0.022,0.014l0.022,0.015l0.022,0.016
			l0.022,0.017l0.022,0.018l0.023,0.019l0.023,0.019l0.023,0.02c0.315,0.296,0.542,0.675,0.752,1.049
			c1.022,1.944,1.686,4.139,2.367,6.222c0.876,2.863,2.549,8.601,3.473,11.366c0.316,0.926,0.667,1.912,1.065,2.803
			c0.259,0.57,0.541,1.145,0.925,1.644c0.19,0.24,0.411,0.474,0.698,0.595l0.016,0.006l0.016,0.006l0.016,0.006l0.016,0.005
			l0.016,0.005l0.016,0.005l0.016,0.004l0.016,0.004l0.016,0.004l0.016,0.003l0.016,0.003l0.016,0.003l0.016,0.002l0.016,0.002
			l0.016,0.002l0.016,0.001l0.016,0.001l0.016,0.001l0.016,0l0.016,0l0.016,0l0.016-0.001l0.016-0.001l0.016-0.001l0.016-0.002
			l0.016-0.002l0.016-0.002l0.016-0.003l0.016-0.003l0.016-0.003l0.016-0.004l0.016-0.004l0.016-0.004l0.016-0.005l0.016-0.005
			l0.016-0.005l0.016-0.006l0.016-0.006l0.016-0.007l0.016-0.007l0.016-0.007l0.016-0.008l0.016-0.008
			c0.225-0.116,0.405-0.304,0.566-0.496c0.365-0.448,0.653-0.97,0.925-1.479c0.753-1.403,1.43-3.175,2.314-4.501
			c0.158-0.222,0.33-0.444,0.556-0.601l0.015-0.01l0.015-0.01c0.006-0.004,0.021-0.012,0.027-0.016l0.013-0.008l0.013-0.007
			l0.013-0.007l0.013-0.007l0.013-0.006l0.013-0.006l0.013-0.006l0.013-0.005l0.013-0.005l0.013-0.005l0.013-0.004l0.013-0.004
			l0.013-0.004l0.013-0.003l0.013-0.003l0.013-0.003l0.013-0.003l0.013-0.002l0.013-0.002l0.013-0.002l0.013-0.001l0.013-0.001
			l0.013-0.001l0.013,0l0.013,0l0.013,0l0.013,0.001l0.013,0.001l0.013,0.001l0.013,0.001l0.013,0.002l0.013,0.002l0.013,0.002
			l0.013,0.003l0.013,0.003l0.013,0.003l0.013,0.003l0.013,0.004l0.013,0.004l0.013,0.004l0.013,0.005l0.013,0.005l0.013,0.005
			c0.17,0.068,0.314,0.187,0.444,0.314c0.154,0.152,0.298,0.329,0.428,0.503c0.542,0.74,1.118,1.689,1.644,2.442
			c1.034,1.522,2.296,2.894,3.711,4.069c1.896,1.572,4.02,2.932,6.349,3.76c1.053,0.357,2.18,0.622,3.296,0.485
			c0.545-0.07,1.086-0.262,1.513-0.614c0.898-0.75,1.302-1.933,1.635-3.019c0.245-0.796,0.502-2.021,0.829-2.782
			c0.077-0.174,0.165-0.347,0.285-0.496c0.117-0.147,0.278-0.264,0.465-0.3c0.211-0.043,0.429,0.006,0.626,0.082
			c0.468,0.188,0.874,0.506,1.264,0.82c2.505,2.171,5.053,4.879,7.811,6.728c0.859,0.574,1.769,1.111,2.761,1.417
			c0.544,0.164,1.126,0.251,1.689,0.146c0.923-0.165,1.664-0.82,2.228-1.537c0.926-1.188,1.573-2.602,2.204-3.962
			c1.58-3.573,3.434-8.024,5.24-11.449c0.497-0.93,1.037-1.894,1.644-2.755c0.383-0.524,0.792-1.08,1.353-1.425l0.025-0.014
			l0.025-0.013l0.025-0.013l0.024-0.012l0.024-0.011l0.024-0.011l0.024-0.01l0.024-0.009l0.024-0.009l0.024-0.008l0.024-0.007
			l0.023-0.007l0.023-0.006l0.023-0.005l0.023-0.004l0.023-0.004l0.023-0.003l0.023-0.002l0.022-0.002l0.022-0.001l0.022,0
			l0.022,0.001l0.022,0.001l0.022,0.002l0.022,0.003l0.021,0.004l0.021,0.004l0.02,0.005l0.02,0.005l0.019,0.006l0.019,0.007
			l0.019,0.007l0.019,0.008l0.019,0.009l0.019,0.009l0.019,0.01l0.019,0.01l0.018,0.011l0.018,0.012l0.018,0.012l0.018,0.013
			l0.018,0.014l0.018,0.014l0.018,0.015l0.018,0.015l0.017,0.016l0.017,0.017l0.017,0.017l0.017,0.018l0.017,0.018l0.017,0.019
			c0.206,0.238,0.344,0.528,0.464,0.816c0.341,0.853,0.542,1.789,0.738,2.685c0.624,2.995,1.163,6.68,2.318,9.5
			c0.647,1.586,1.569,3.061,2.597,4.427c0.833,1.11,1.968,2.44,2.584,3.668c1.173,2.337,1.864,4.928,2.487,7.459
			c1.27,5.159,2.587,14.122,3.572,19.414c0.232,1.191,0.509,2.552,0.827,3.721c0.142,0.515,0.301,1.051,0.508,1.544
			c0.095,0.22,0.201,0.445,0.346,0.638l0.015,0.019l0.015,0.019l0.015,0.018l0.015,0.017l0.015,0.016l0.015,0.016l0.015,0.015
			l0.015,0.014l0.015,0.013l0.015,0.013l0.015,0.012l0.015,0.011l0.015,0.01l0.015,0.01l0.015,0.009l0.015,0.008l0.015,0.007
			l0.015,0.006l0.015,0.006l0.015,0.005l0.015,0.004l0.015,0.003l0.015,0.002l0.015,0.002l0.015,0.001l0.015,0l0.015-0.001
			l0.015-0.002l0.015-0.003l0.015-0.003l0.015-0.004l0.006-0.002l0.006-0.002l0.006-0.002l0.006-0.002l0.006-0.002
			c0.073-0.031,0.135-0.083,0.19-0.139c0.258-0.272,0.46-0.672,0.658-0.99c0.105-0.168,0.214-0.342,0.348-0.488
			c0.065-0.069,0.138-0.136,0.227-0.172l0.006-0.002l0.006-0.002l0.006-0.002l0.006-0.002l0.006-0.002l0.014-0.004l0.014-0.003
			l0.014-0.002l0.014-0.002l0.014-0.001l0.014,0l0.014,0l0.014,0.001l0.014,0.002l0.014,0.003l0.014,0.003l0.014,0.004l0.014,0.005
			l0.014,0.005l0.014,0.006l0.014,0.007l0.014,0.007l0.014,0.008l0.014,0.009l0.014,0.009l0.014,0.01l0.014,0.01l0.014,0.011
			l0.014,0.012l0.014,0.012l0.014,0.013l0.014,0.014l0.014,0.014l0.014,0.015l0.014,0.016l0.014,0.016
			c0.176,0.211,0.297,0.468,0.408,0.718c0.546,1.321,0.873,2.813,1.211,4.203c0.558,2.473,1.674,7.715,2.335,10.062
			c0.702,2.647,2.282,7.562,2.997,10.211c0.899,3.155,1.541,7.087,2.092,10.344c0.292,1.592,0.595,3.277,1.099,4.814
			c0.18,0.531,0.387,1.067,0.684,1.545c0.158,0.252,0.346,0.493,0.586,0.671c0.447,0.341,1.048,0.339,1.585,0.355
			c0.246,0.012,0.504,0.029,0.727,0.144c0.177,0.09,0.315,0.241,0.422,0.406c0.094,0.145,0.169,0.304,0.233,0.465
			c0.242,0.609,0.454,1.589,0.625,2.224c0.976,3.723,3.517,8.515,5.126,12.034c0.913,1.843,1.904,3.7,3.205,5.301
			c0.789,0.966,1.729,1.845,2.864,2.386c1.042,0.506,2.21,0.677,3.357,0.721c0.271,0.004,0.676,0.025,0.949,0.021
			c0,0,57.417,0,57.417,0c0.378-0.015,1.013-0.003,1.395-0.026c0.593-0.025,1.219-0.059,1.808-0.146
			c0.952-0.137,1.942-0.412,2.652-1.094c0.496-0.474,0.815-1.104,1.014-1.754c0.341-1.126,0.393-2.325,0.377-3.495
			c-0.083-2.924-0.575-5.877-1.241-8.721c-0.395-1.619-0.872-3.249-1.525-4.784c-0.474-1.104-1.066-2.178-1.871-3.076
			c-0.972-1.104-2.277-1.862-3.651-2.356c-1.62-0.587-3.365-0.932-5.06-1.232c-4.021-0.693-9.128-1.167-13.107-2.041
			c-0.838-0.186-1.722-0.397-2.537-0.668c-0.429-0.146-0.854-0.329-1.226-0.591c-1-0.698-1.461-1.899-1.791-3.027
			c-0.814-3.042-1.076-6.256-1.263-9.391c-0.183-3.584-0.08-7.257,0.376-10.817c0.24-1.781,0.523-3.629,1.045-5.352
			c0.166-0.498,0.348-1.05,0.719-1.419c0.2-0.199,0.493-0.286,0.686-0.493c0.144-0.149,0.247-0.331,0.34-0.515
			c0.357-0.742,0.571-1.554,0.767-2.351c1.062-4.627,1.327-11.402,2.167-16.074c0.161-0.844,0.373-1.695,0.766-2.464
			c1.264-2.277,2.279-4.869,3.241-7.289c0.759-1.939,1.55-4.167,2.177-6.153c0.581-1.83,1.812-6.321,2.319-8.131
			c0.728-2.479,1.637-4.96,2.709-7.311c0.677-1.468,1.43-2.947,2.34-4.285c0.406-0.589,0.85-1.169,1.376-1.656
			c0.303-0.276,0.639-0.531,1.028-0.671l0.03-0.01l0.03-0.01l0.03-0.009l0.03-0.008l0.03-0.008l0.03-0.007l0.03-0.006l0.029-0.006
			l0.029-0.005l0.029-0.004l0.029-0.004l0.029-0.003l0.029-0.003l0.029-0.002l0.029-0.001l0.029-0.001l0.029,0l0.029,0.001
			l0.028,0.001l0.028,0.002l0.028,0.003l0.028,0.004l0.028,0.004l0.028,0.005l0.028,0.006l0.028,0.006l0.028,0.007l0.028,0.008
			l0.027,0.009c0.361,0.12,0.645,0.393,0.885,0.679c0.918,1.153,1.471,2.74,2.16,4.034c0.187,0.346,0.382,0.702,0.653,0.991
			c0.12,0.125,0.264,0.237,0.433,0.284c0.263,0.076,0.532-0.046,0.737-0.207c0.422-0.336,0.729-0.797,1.026-1.241
			c2.257-3.686,4.44-8.503,6.75-12.154c0.709-1.119,1.463-2.258,2.369-3.229c0.391-0.408,0.818-0.808,1.334-1.052l0.036-0.016
			l0.036-0.015l0.035-0.014l0.035-0.013l0.035-0.013l0.035-0.012l0.035-0.011l0.035-0.01l0.034-0.009l0.034-0.008l0.034-0.007
			l0.034-0.006l0.034-0.005c0.617-0.095,1.166,0.295,1.616,0.67l0.582,0.498c0.317,0.258,0.662,0.535,1.08,0.589l0.018,0.002
			l0.018,0.002l0.018,0.001l0.018,0.001l0.018,0.001c0.26,0.007,0.512-0.083,0.735-0.21c0.335-0.192,0.621-0.46,0.883-0.741
			c0.743-0.817,1.33-1.782,1.886-2.733c1.034-1.824,2.093-3.914,3.007-5.802c1.412-2.937,2.591-6.084,3.502-9.212
			c1.319-4.417,2.737-11.621,4.057-16.038c0.237-0.764,0.5-1.579,0.839-2.304c0.134-0.279,0.282-0.565,0.483-0.803l0.019-0.022
			l0.019-0.021l0.019-0.02l0.019-0.019l0.019-0.018l0.019-0.018l0.019-0.017l0.019-0.016l0.019-0.015l0.019-0.014l0.019-0.013
			l0.019-0.012l0.019-0.011l0.019-0.011l0.019-0.01l0.019-0.009l0.019-0.008l0.019-0.007l0.019-0.006l0.019-0.005l0.019-0.004
			l0.019-0.003l0.019-0.002l0.018-0.001l0.018,0l0.018,0.001l0.018,0.002l0.018,0.003l0.018,0.003l0.009,0.002l0.009,0.002
			l0.009,0.002l0.009,0.003l0.009,0.003l0.009,0.003l0.009,0.003l0.009,0.003l0.009,0.004l0.009,0.004l0.009,0.004l0.009,0.004
			l0.009,0.004l0.009,0.005c0.276,0.164,0.468,0.51,0.628,0.781c0.36,0.632,0.698,1.446,1.125,2.036
			c0.109,0.147,0.231,0.291,0.383,0.396l0.017,0.011l0.017,0.011l0.017,0.01l0.017,0.01l0.017,0.009l0.017,0.009l0.017,0.008
			l0.017,0.008l0.017,0.007l0.017,0.007l0.017,0.006l0.017,0.006l0.017,0.005l0.017,0.005l0.017,0.004l0.017,0.004l0.018,0.003
			l0.018,0.003l0.018,0.002l0.018,0.002l0.018,0.001l0.018,0.001l0.018,0l0.018,0l0.018-0.001l0.018-0.001l0.018-0.002l0.018-0.002
			l0.018-0.003l0.018-0.003l0.018-0.004l0.018-0.004l0.018-0.005l0.018-0.005l0.018-0.006l0.018-0.006l0.018-0.007l0.018-0.007
			l0.018-0.008l0.018-0.008l0.018-0.008l0.018-0.009l0.019-0.009l0.019-0.01l0.019-0.01c0.409-0.245,0.693-0.65,0.952-1.041
			c0.407-0.638,0.737-1.338,1.04-2.03c0.665-1.539,1.244-3.256,1.757-4.855c1.713-5.365,4.034-15.127,5.758-20.486
			c0.373-1.146,0.797-2.382,1.275-3.487c0.367-0.816,0.762-1.7,1.389-2.349l0.03-0.029l0.03-0.028l0.03-0.027l0.03-0.026l0.03-0.025
			l0.03-0.024l0.03-0.023l0.03-0.021l0.03-0.02l0.03-0.019l0.03-0.018l0.03-0.017l0.03-0.016l0.03-0.014l0.03-0.013l0.03-0.012
			l0.03-0.011l0.03-0.01l0.03-0.009c0.419-0.11,0.819,0.14,1.153,0.366l0.42,0.295c0.308,0.212,0.675,0.435,1.063,0.338
			c0.304-0.072,0.552-0.284,0.758-0.51c0.517-0.593,0.854-1.324,1.167-2.039c0.834-1.993,1.427-4.192,1.999-6.277
			c1.182-4.309,2.639-10.917,4.324-15.001c0.348-0.787,0.732-1.654,1.348-2.265l0.028-0.026l0.028-0.025l0.028-0.024l0.028-0.023
			l0.028-0.022l0.028-0.021l0.028-0.02l0.028-0.019l0.028-0.018l0.028-0.017l0.028-0.016c0.451-0.262,0.959-0.104,1.43,0.004
			c0.277,0.061,0.578,0.098,0.847-0.012l0.021-0.009l0.021-0.009l0.021-0.01l0.021-0.01l0.021-0.011l0.021-0.012l0.021-0.012
			l0.021-0.013l0.021-0.013l0.021-0.014l0.021-0.014l0.021-0.015c0.544-0.414,0.887-1.125,1.167-1.736
			c0.476-1.087,0.82-2.261,1.127-3.406c0.516-1.968,0.941-4.13,1.299-6.135c0.521-2.864,1.232-8.819,2.119-11.517
			c0.162-0.475,0.351-0.951,0.625-1.373c0.156-0.237,0.345-0.461,0.587-0.613l0.02-0.012l0.02-0.012l0.02-0.011l0.02-0.011
			l0.02-0.01l0.02-0.01l0.02-0.009l0.02-0.009l0.02-0.009l0.02-0.008l0.021-0.008l0.021-0.007l0.021-0.007l0.021-0.007l0.021-0.006
			c0.604-0.157,1.286,0.169,1.857,0.348c0.46,0.148,0.971,0.305,1.447,0.14l0.024-0.009l0.023-0.009l0.023-0.01l0.023-0.01
			l0.023-0.011l0.023-0.011l0.023-0.012l0.023-0.013l0.023-0.013l0.023-0.014l0.022-0.014l0.022-0.015l0.022-0.015l0.022-0.016
			l0.022-0.016c0.35-0.268,0.585-0.656,0.779-1.045c0.391-0.811,0.624-1.699,0.824-2.574c0.213-0.956,0.382-1.997,0.521-2.967
			c0.566-4.191,1.199-11.767,1.619-16.036l0.219-2.962"/>
	</g>
	<g id="POLYLINE_00000060745654167071539880000011905417876581758862_">
		
			<path fill="none" stroke="#FB8604" stroke-width="2.75" stroke-linecap="round" stroke-linejoin="round" stroke-miterlimit="10" d="
			M279.206,344.248c-1.191,13.795-5.905,45.894-7.855,59.758c-0.814,5.085-1.728,10.582-3.001,15.561
			c-0.44,1.675-0.934,3.397-1.604,4.995c-0.321,0.743-0.679,1.494-1.186,2.13l-0.049,0.059l-0.049,0.057l-0.049,0.055l-0.049,0.053
			l-0.049,0.05l-0.049,0.048l-0.049,0.046l-0.049,0.044l-0.049,0.042l-0.05,0.039l-0.05,0.037l-0.05,0.035l-0.05,0.033l-0.05,0.03
			l-0.05,0.028l-0.05,0.026l-0.05,0.023l-0.05,0.021l-0.05,0.019l-0.051,0.016l-0.051,0.014l-0.051,0.012l-0.051,0.009
			c-0.213,0.034-0.431,0.002-0.634-0.067c-0.725-0.255-1.354-0.896-1.938-1.377c-0.268-0.215-0.593-0.5-0.938-0.562l-0.025-0.003
			l-0.025-0.002l-0.025-0.001l-0.024,0l-0.024,0.001l-0.024,0.002l-0.023,0.003l-0.023,0.005l-0.023,0.006l-0.023,0.007
			l-0.022,0.008l-0.022,0.009l-0.022,0.01l-0.022,0.011l-0.021,0.012l-0.021,0.013l-0.021,0.014l-0.021,0.015l-0.02,0.016
			l-0.02,0.018l-0.02,0.019l-0.02,0.02l-0.019,0.021l-0.019,0.022l-0.019,0.023l-0.019,0.024l-0.018,0.025l-0.018,0.026
			l-0.018,0.027l-0.018,0.028l-0.017,0.029l-0.017,0.03l-0.017,0.031l-0.017,0.032c-0.201,0.402-0.303,0.849-0.394,1.286
			c-0.488,2.637-0.784,8.822-1.037,11.563c-0.391,4.48-0.985,9.084-1.934,13.48c-1.6,7.299-3.948,14.536-6.968,21.371
			c-1.077,2.375-2.246,4.783-3.694,6.954c-0.572,0.826-1.175,1.672-1.984,2.283l-0.047,0.034l-0.047,0.032l-0.046,0.03L244,483.043
			l-0.046,0.027l-0.045,0.026l-0.045,0.024l-0.044,0.022l-0.044,0.021l-0.044,0.019l-0.043,0.017l-0.043,0.016l-0.042,0.014
			l-0.042,0.012l-0.042,0.011l-0.041,0.009l-0.041,0.007l-0.04,0.006l-0.04,0.004l-0.039,0.002l-0.039,0l-0.038-0.001l-0.038-0.003
			l-0.037-0.005l-0.037-0.007l-0.036-0.008l-0.036-0.01l-0.035-0.012l-0.035-0.014l-0.035-0.016l-0.034-0.017l-0.034-0.019
			l-0.033-0.021l-0.014-0.009l-0.013-0.01l-0.013-0.01l-0.013-0.01c-0.173-0.137-0.299-0.323-0.405-0.514
			c-0.185-0.341-0.313-0.716-0.425-1.087c-0.346-1.135-0.521-2.532-0.887-3.662c-0.055-0.152-0.116-0.307-0.213-0.437l-0.007-0.009
			l-0.007-0.009l-0.007-0.009l-0.014-0.016l-0.014-0.015l-0.014-0.013l-0.015-0.012l-0.015-0.011l-0.015-0.01l-0.015-0.009
			l-0.015-0.008l-0.015-0.007l-0.015-0.006l-0.016-0.005l-0.016-0.004l-0.016-0.003l-0.016-0.001l-0.016,0l-0.016,0.001
			l-0.016,0.002l-0.017,0.003l-0.017,0.004l-0.017,0.005l-0.017,0.006l-0.017,0.007l-0.017,0.008l-0.017,0.009l-0.018,0.01
			l-0.018,0.011l-0.018,0.012l-0.018,0.013l-0.018,0.014l-0.018,0.015l-0.018,0.016l-0.019,0.017l-0.019,0.018l-0.019,0.019
			l-0.019,0.02l-0.019,0.021l-0.019,0.022c-0.237,0.278-0.412,0.608-0.579,0.931c-1.038,2.077-3.438,8.769-4.336,11.017
			c-3.07,7.8-6.951,15.431-12.258,21.957c-0.95,1.13-1.963,2.249-3.121,3.169c-0.542,0.418-1.125,0.822-1.79,1.009l-0.042,0.011
			l-0.042,0.01l-0.041,0.009l-0.041,0.008l-0.04,0.007l-0.04,0.006l-0.04,0.005l-0.039,0.004l-0.039,0.003l-0.038,0.002
			l-0.038,0.002l-0.038,0.001l-0.037,0l-0.037-0.001l-0.036-0.002l-0.036-0.003l-0.036-0.004l-0.035-0.005l-0.035-0.006
			l-0.034-0.007l-0.034-0.008l-0.034-0.009l-0.033-0.01l-0.033-0.011l-0.032-0.012l-0.032-0.013l-0.031-0.014l-0.031-0.015
			l-0.031-0.016l-0.03-0.017l-0.03-0.018c-0.454-0.299-0.69-0.859-0.878-1.35c-0.246-0.643-0.414-1.478-0.685-2.111
			c-0.048-0.102-0.102-0.205-0.18-0.288l-0.006-0.006l-0.006-0.006l-0.012-0.011l-0.012-0.01l-0.012-0.009l-0.012-0.009
			l-0.012-0.008l-0.012-0.007l-0.012-0.007l-0.012-0.006l-0.012-0.005l-0.013-0.005l-0.013-0.004l-0.013-0.003l-0.013-0.003
			l-0.013-0.002l-0.013-0.001l-0.013-0.001l-0.013,0l-0.014,0.001l-0.014,0.001l-0.014,0.002l-0.014,0.003l-0.014,0.003
			l-0.014,0.004l-0.014,0.005l-0.014,0.005l-0.014,0.006l-0.015,0.006l-0.015,0.007l-0.015,0.008l-0.015,0.008l-0.015,0.009
			l-0.015,0.01l-0.015,0.01l-0.015,0.011l-0.015,0.011l-0.016,0.012l-0.016,0.013l-0.016,0.013c-0.232,0.204-0.404,0.469-0.57,0.727
			c-0.752,1.157-3.397,6.912-4.067,8.239c-1.906,3.852-4.144,7.635-6.573,11.178c-1.821,2.652-3.805,5.309-5.94,7.716
			c-0.994,1.106-2.044,2.207-3.209,3.135c-0.532,0.412-1.096,0.818-1.738,1.037l-0.042,0.013l-0.041,0.012l-0.041,0.011l-0.04,0.01
			l-0.04,0.009l-0.039,0.008l-0.039,0.007l-0.038,0.006l-0.038,0.005l-0.037,0.004l-0.037,0.003l-0.036,0.002l-0.036,0.001l-0.035,0
			l-0.035-0.001l-0.034-0.002l-0.034-0.003l-0.033-0.004l-0.033-0.005l-0.032-0.006l-0.032-0.007l-0.031-0.008l-0.03-0.009
			l-0.03-0.01l-0.029-0.011l-0.029-0.013l-0.028-0.014c-0.422-0.222-0.62-0.754-0.777-1.178c-0.091-0.25-0.216-0.681-0.342-0.911
			c-0.029-0.052-0.062-0.103-0.105-0.143l-0.004-0.004l-0.004-0.004l-0.004-0.004l-0.004-0.003l-0.004-0.003l-0.004-0.003
			l-0.004-0.003l-0.007-0.005l-0.007-0.005l-0.007-0.004l-0.008-0.004l-0.008-0.003l-0.008-0.003l-0.008-0.003l-0.008-0.002
			l-0.008-0.002l-0.008-0.002l-0.008-0.001l-0.008-0.001l-0.008-0.001l-0.008,0l-0.008,0l-0.008,0l-0.008,0.001l-0.008,0.001
			l-0.009,0.001l-0.009,0.002l-0.009,0.002l-0.009,0.002l-0.009,0.003l-0.009,0.003l-0.009,0.003l-0.009,0.004l-0.009,0.004
			l-0.009,0.004l-0.009,0.005l-0.009,0.005l-0.009,0.005l-0.009,0.006l-0.009,0.006l-0.009,0.006l-0.01,0.007l-0.01,0.007
			c-0.086,0.065-0.16,0.148-0.228,0.232c-0.267,0.339-0.483,0.735-0.693,1.112l-1.704,3.248c-3.74,7.14-10.524,12.602-15.53,18.796
			c-0.739,0.929-4.695,5.762-5.283,6.625c-0.256,0.376-0.509,0.768-0.675,1.194c-0.095,0.245-0.156,0.51-0.132,0.774
			c0.025,0.264,0.128,0.516,0.268,0.739c0.4,0.618,1.092,0.96,1.756,1.222c2.098,0.765,5.018,1.075,7.18,1.663
			c1.472,0.388,3.034,0.882,4.063,2.069c0.479,0.544,0.824,1.195,1.097,1.863c0.389,0.963,0.663,1.989,0.906,2.997
			c0.403,1.733,0.7,3.518,0.744,5.299c0.015,0.962-0.033,1.947-0.318,2.872c-0.228,0.76-0.7,1.443-1.382,1.862
			c-0.528,0.334-1.136,0.522-1.745,0.641c-0.986,0.191-2.028,0.215-3.03,0.231c-8.336-0.108-42.366,0.261-50.008-0.213
			c-1.224-0.111-2.474-0.258-3.641-0.659c-0.591-0.207-1.161-0.512-1.599-0.966c-0.444-0.453-0.738-1.032-0.933-1.631
			c-0.314-0.972-0.423-2.007-0.492-3.023c-0.301-5.778,0.601-14.536,0.946-20.379c0.069-1.121,0.267-7.267,0.312-8.523
			c0.106-2.409,0.329-5.062,0.627-7.456c0.246-2.163,0.703-5.225,0.751-7.372c0-0.534,0.013-1.197-0.187-1.694l-0.008-0.017
			l-0.008-0.016l-0.008-0.016l-0.008-0.015l-0.008-0.015l-0.008-0.015l-0.009-0.014l-0.009-0.014l-0.009-0.013l-0.009-0.013
			l-0.009-0.012l-0.009-0.012l-0.01-0.011l-0.01-0.011l-0.01-0.01l-0.01-0.01l-0.01-0.009l-0.011-0.009l-0.011-0.008l-0.011-0.008
			l-0.011-0.007l-0.011-0.007l-0.011-0.006l-0.012-0.006l-0.012-0.005c-0.078-0.034-0.166-0.033-0.249-0.02
			c-0.44,0.08-0.894,0.467-1.35,0.419l-0.014-0.002l-0.014-0.003l-0.014-0.003l-0.014-0.003l-0.014-0.004l-0.014-0.004l-0.014-0.004
			l-0.014-0.005l-0.014-0.005l-0.013-0.005l-0.013-0.006l-0.013-0.006l-0.013-0.006l-0.013-0.007l-0.013-0.007l-0.013-0.008
			l-0.013-0.008l-0.013-0.008l-0.013-0.009l-0.013-0.009l-0.012-0.009l-0.012-0.01l-0.012-0.01l-0.012-0.01l-0.012-0.011
			l-0.012-0.011l-0.012-0.011l-0.012-0.012c-0.184-0.188-0.297-0.434-0.389-0.677c-0.193-0.533-0.29-1.103-0.368-1.662
			c-0.205-1.589-0.227-3.275-0.231-4.878c0.008-2.611,0.127-5.474,0.288-8.083c0.343-5.348,0.922-10.837,1.764-16.131
			c0.507-3.522,2.149-10.503,2.92-14.038c0.974-4.621,1.603-9.452,1.96-14.161c0.21-2.941,0.375-6.057,0.243-9
			c-0.045-0.862-0.112-1.748-0.279-2.596c-0.081-0.39-0.177-0.787-0.363-1.142l-0.016-0.029l-0.016-0.028l-0.016-0.027l-0.016-0.026
			l-0.017-0.025l-0.017-0.024l-0.017-0.023l-0.017-0.022l-0.017-0.022l-0.018-0.021l-0.018-0.02l-0.018-0.019l-0.018-0.018
			l-0.018-0.017l-0.019-0.016l-0.019-0.015l-0.019-0.014l-0.019-0.013l-0.019-0.012l-0.02-0.011l-0.02-0.01l-0.02-0.009l-0.02-0.008
			l-0.02-0.007l-0.021-0.006l-0.021-0.005l-0.021-0.004l-0.021-0.003c-0.093-0.011-0.188,0.007-0.277,0.037
			c-0.372,0.136-0.728,0.468-1.042,0.703c-0.176,0.128-0.4,0.31-0.622,0.328l-0.006,0l-0.006,0h-0.006l-0.006,0l-0.006,0l-0.006,0
			l-0.006,0l-0.006-0.001l-0.006-0.001l-0.006-0.001l-0.016-0.003l-0.016-0.004l-0.016-0.005l-0.015-0.006l-0.015-0.007
			l-0.015-0.008l-0.014-0.009l-0.014-0.01l-0.014-0.011l-0.013-0.012l-0.013-0.013l-0.013-0.014l-0.013-0.015l-0.012-0.016
			l-0.012-0.016l-0.012-0.017l-0.011-0.018l-0.011-0.019l-0.011-0.02l-0.01-0.021l-0.01-0.022l-0.01-0.023l-0.009-0.024
			l-0.009-0.025l-0.009-0.025l-0.009-0.026l-0.008-0.027c-0.12-0.435-0.12-0.899-0.118-1.347c0.077-2.386,0.544-4.795,1.006-7.133
			c0.85-4.038,1.925-8.16,3.34-12.036c1.285-3.6,3.319-7.603,4.803-11.133c1.111-2.639,1.897-5.441,2.381-8.263
			c0.945-5.408,1.169-11.085,1.311-16.569c0.017-2.015,0.153-4.393-0.194-6.382c-0.096-0.463-0.214-0.944-0.515-1.271l-0.011-0.011
			l-0.011-0.011l-0.011-0.011l-0.012-0.01l-0.012-0.01l-0.012-0.01l-0.012-0.009l-0.012-0.009l-0.012-0.009l-0.012-0.009
			l-0.012-0.008l-0.012-0.008l-0.013-0.008l-0.013-0.007l-0.013-0.007l-0.013-0.007l-0.013-0.006l-0.013-0.006l-0.013-0.006
			l-0.013-0.005l-0.013-0.005l-0.014-0.005l-0.014-0.004l-0.014-0.004l-0.014-0.004l-0.014-0.003l-0.014-0.003l-0.014-0.003
			l-0.014-0.002l-0.014-0.002l-0.015-0.002l-0.015-0.001l-0.015-0.001l-0.015-0.001l-0.015,0l-0.015,0l-0.015,0
			c-0.126,0.004-0.249,0.04-0.365,0.086c-0.532,0.22-1.028,0.637-1.511,0.945c-0.207,0.128-0.458,0.296-0.706,0.309l-0.007,0
			l-0.007,0l-0.007,0l-0.007,0l-0.007,0l-0.007-0.001l-0.007-0.001l-0.007-0.001l-0.007-0.001l-0.007-0.001l-0.007-0.001
			l-0.007-0.001l-0.015-0.004l-0.014-0.005l-0.014-0.005l-0.014-0.006l-0.013-0.007l-0.013-0.008l-0.013-0.008l-0.012-0.009
			l-0.012-0.01l-0.012-0.01l-0.011-0.011l-0.011-0.012l-0.011-0.013l-0.01-0.013l-0.01-0.014l-0.01-0.015l-0.009-0.015l-0.009-0.016
			l-0.009-0.017l-0.008-0.017l-0.008-0.018l-0.008-0.019l-0.008-0.02l-0.007-0.02l-0.007-0.021l-0.007-0.022l-0.006-0.022
			l-0.006-0.023l-0.006-0.023c-0.068-0.309-0.059-0.635-0.047-0.95c0.108-1.847,0.906-5.795,1.204-7.683
			c0.345-2.148,0.656-4.382,0.735-6.554c0.067-1.814-0.051-3.671-0.251-5.475c-0.34-3.101-0.975-6.54-0.783-9.661
			c0.098-1.8,0.449-3.595,1.043-5.298c1.231-3.469,3.245-6.673,5.199-9.775c1.445-2.322,4.315-6.416,5.4-8.897
			c0.205-0.483,0.396-0.988,0.454-1.513l0.004-0.043l0.003-0.042l0.002-0.042l0.001-0.041l0-0.04l0-0.04l-0.001-0.039l-0.002-0.038
			l-0.003-0.038l-0.004-0.037l-0.005-0.036l-0.006-0.036l-0.007-0.035l-0.008-0.034l-0.008-0.034l-0.009-0.033l-0.01-0.032
			l-0.011-0.031l-0.012-0.031l-0.013-0.03l-0.014-0.029l-0.015-0.029l-0.016-0.028c-0.107-0.178-0.277-0.308-0.46-0.401
			c-0.317-0.159-0.673-0.234-1.019-0.299c-0.528-0.099-1.247-0.168-1.74-0.38c-0.139-0.061-0.274-0.141-0.378-0.253l-0.016-0.018
			l-0.015-0.018l-0.015-0.018l-0.014-0.019l-0.014-0.019l-0.013-0.02l-0.012-0.02l-0.012-0.02l-0.011-0.021l-0.011-0.021
			l-0.01-0.022l-0.009-0.022l-0.009-0.022l-0.008-0.023l-0.008-0.023l-0.007-0.024l-0.007-0.024l-0.006-0.024l-0.005-0.025
			l-0.005-0.025l-0.004-0.025l-0.004-0.026l-0.003-0.026l-0.003-0.027l-0.002-0.027l-0.002-0.027l-0.001-0.028l-0.001-0.028v-0.028
			l0.001-0.029c0.035-0.66,0.342-1.286,0.631-1.87c1.121-2.145,3.63-5.55,5.002-7.605c1.375-2.027,2.707-4.196,3.833-6.37
			c2.944-5.563,5.187-11.969,9.296-16.82c1.865-2.223,4.194-4.031,6.668-5.53c6.147-3.723,14.276-6.46,20.86-9.351
			c2.66-1.152,5.391-2.476,7.932-3.873c3.99-2.134,12.307-7.451,16.221-9.861c3.229-1.943,6.58-3.853,10.053-5.313
			c2.976-1.259,6.13-2.246,9.294-2.9c6.486-1.352,13.206-1.358,19.786-0.817c9.517,0.759,22.21,2.984,31.738,3.723
			c3.494,0.262,7.147,0.375,10.647,0.219c2.179-0.108,4.397-0.293,6.527-0.781c0.852-0.201,1.703-0.463,2.474-0.884
			c0.726-0.386,1.449-0.952,2.226-1.234c1.237-0.452,2.582-0.508,3.886-0.505c2.816,0.042,5.68,0.513,8.443,1.04
			c11.416,2.329,24.045,6.546,35.526,8.497c2.339,0.379,4.743,0.696,7.116,0.675c1.53-0.015,3.093-0.212,4.491-0.866
			c0.895-0.394,1.756-1.014,2.568-1.546c0.782-0.519,1.638-0.977,2.578-1.116c0.606-0.095,1.229-0.091,1.839-0.046
			c2.17,0.168,4.967,0.939,7.089,1.399c3.37,0.766,6.854,1.378,10.321,1.306c9.012-0.207,18.976-4.269,27.525-6.906
			c3.888-1.229,7.921-2.194,11.978-2.643c3.827-0.453,8.787-0.726,12.552-1.433c2.714-0.486,5.412-1.262,7.983-2.255
			c2.766-1.09,5.548-2.321,7.99-4.034c0.519-0.39,1.103-0.832,1.435-1.396l0.012-0.023l0.012-0.023l0.011-0.023l0.01-0.022
			l0.01-0.022l0.009-0.022l0.009-0.022l0.008-0.022l0.007-0.022l0.007-0.021l0.006-0.021l0.005-0.021l0.005-0.021l0.004-0.021
			l0.003-0.02l0.003-0.02l0.002-0.02l0.001-0.02l0.001-0.02l0-0.019l-0.001-0.019l-0.001-0.019l-0.002-0.019l-0.003-0.019
			l-0.004-0.018l-0.004-0.018l-0.005-0.018l-0.006-0.018c-0.037-0.109-0.113-0.2-0.197-0.276c-0.252-0.223-0.614-0.38-0.906-0.546
			c-0.201-0.119-0.461-0.262-0.542-0.494l-0.005-0.017l-0.004-0.017l-0.003-0.017l-0.003-0.017l-0.002-0.018l-0.001-0.018l0-0.018
			l0-0.018l0.001-0.018l0.002-0.019l0.003-0.019l0.004-0.019l0.004-0.019l0.005-0.019l0.006-0.02l0.006-0.02l0.007-0.02l0.008-0.02
			l0.009-0.02l0.009-0.021l0.01-0.021l0.011-0.021l0.011-0.021l0.012-0.021l0.013-0.021l0.014-0.022l0.014-0.022
			c0.221-0.321,0.528-0.576,0.83-0.818c1.622-1.286,7.267-4.379,9.107-5.502c2.346-1.409,4.678-2.995,6.754-4.779
			c2.406-1.994,5.814-5.639,8.034-7.9c1.933-1.958,4.043-3.827,6.289-5.419c5.287-3.767,11.226-6.655,17.194-9.172"/>
	</g>
	<g id="POLYLINE_00000031189611856394253790000009571602685984810174_">
		
			<path fill="none" stroke="#FB8604" stroke-width="2.75" stroke-linecap="round" stroke-linejoin="round" stroke-miterlimit="10" d="
			M638.596,245.749c-0.702,2.184-1.656,4.867-2.012,7.117c-0.394,2.265-0.438,4.655-0.453,6.952
			c0.005,3.818,0.202,9.94-0.081,13.673c-0.112,1.55-0.293,3.131-0.653,4.644c-0.268,1.105-0.621,2.206-1.145,3.218
			c-0.295,0.557-0.64,1.109-1.124,1.521c-0.269,0.225-0.607,0.408-0.967,0.381c-0.184-0.013-0.359-0.082-0.518-0.172
			c-0.381-0.212-0.768-0.614-1.094-0.903c-0.217-0.185-0.473-0.424-0.769-0.449c-0.208-0.016-0.396,0.105-0.534,0.252
			c-0.251,0.271-0.416,0.613-0.568,0.946c-0.747,1.645-2.649,8.594-3.234,10.424c-0.821,2.57-1.63,5.291-2.89,7.683
			c-0.266,0.473-0.554,0.954-0.959,1.323l-0.027,0.024l-0.027,0.023l-0.027,0.022l-0.027,0.021l-0.027,0.02l-0.027,0.019
			l-0.027,0.018l-0.027,0.017l-0.027,0.016l-0.027,0.015l-0.027,0.014l-0.027,0.013l-0.027,0.012l-0.027,0.011l-0.027,0.01
			l-0.027,0.009l-0.027,0.008l-0.026,0.007l-0.026,0.006l-0.026,0.005l-0.026,0.004l-0.026,0.003l-0.026,0.002l-0.026,0.001
			l-0.026,0l-0.026-0.002l-0.011-0.001l-0.011-0.001l-0.011-0.001l-0.011-0.002l-0.011-0.002l-0.011-0.002
			c-0.32-0.069-0.557-0.324-0.759-0.566c-0.476-0.587-0.811-1.343-1.234-1.966c-0.062-0.085-0.127-0.172-0.212-0.235l-0.006-0.004
			l-0.006-0.004l-0.006-0.004l-0.006-0.004l-0.006-0.003l-0.006-0.004l-0.006-0.003l-0.006-0.003l-0.006-0.003l-0.006-0.003
			l-0.006-0.002l-0.006-0.002l-0.006-0.002l-0.006-0.002l-0.006-0.001l-0.006-0.001l-0.006-0.001l-0.006-0.001l-0.006-0.001
			l-0.006,0l-0.006,0l-0.006,0l-0.006,0l-0.006,0l-0.006,0.001l-0.006,0.001l-0.006,0.001l-0.005,0.001l-0.005,0.001l-0.005,0.002
			l-0.005,0.002l-0.005,0.002l-0.005,0.002l-0.005,0.003l-0.005,0.003l-0.005,0.003l-0.005,0.003l-0.005,0.003l-0.005,0.004
			l-0.005,0.004l-0.005,0.004l-0.005,0.004l-0.005,0.004l-0.005,0.004l-0.005,0.005l-0.005,0.005l-0.005,0.005l-0.005,0.005
			l-0.005,0.005l-0.005,0.006c-0.176,0.22-0.267,0.614-0.348,0.887c-0.365,1.464-0.757,2.999-1.493,4.325
			c-1.356,2.569-3.826,5.241-5.666,7.496c-0.92,1.098-1.907,2.548-2.78,3.687c-0.205,0.257-0.423,0.521-0.663,0.745
			c-0.162,0.146-0.339,0.294-0.554,0.351l-0.01,0.002l-0.01,0.002l-0.01,0.002l-0.01,0.002l-0.01,0.002l-0.01,0.001l-0.01,0.001
			l-0.01,0.001l-0.01,0.001l-0.01,0.001l-0.01,0l-0.01,0l-0.01,0l-0.01,0l-0.01-0.001l-0.01-0.001l-0.01-0.001l-0.01-0.001
			l-0.01-0.001l-0.009-0.002l-0.009-0.002l-0.009-0.002l-0.009-0.002l-0.009-0.003l-0.009-0.003l-0.009-0.003l-0.009-0.003
			l-0.009-0.003l-0.009-0.004l-0.009-0.004l-0.009-0.004l-0.009-0.004l-0.009-0.005l-0.009-0.005l-0.009-0.005l-0.009-0.005
			l-0.009-0.006l-0.009-0.006l-0.009-0.006l-0.009-0.006l-0.009-0.007l-0.009-0.007l-0.008-0.007l-0.008-0.007l-0.008-0.008
			c-0.266-0.259-0.402-0.73-0.51-1.081c-0.265-0.902-0.403-1.979-0.668-2.882c-0.035-0.106-0.072-0.214-0.133-0.308l-0.004-0.007
			l-0.005-0.006l-0.005-0.006l-0.005-0.006l-0.005-0.006l-0.005-0.005l-0.005-0.005l-0.005-0.005l-0.005-0.005l-0.005-0.004
			l-0.005-0.004l-0.005-0.004l-0.005-0.004l-0.005-0.004l-0.005-0.003l-0.005-0.003l-0.005-0.003l-0.005-0.003l-0.005-0.002
			l-0.005-0.002l-0.005-0.002l-0.005-0.002l-0.005-0.001l-0.005-0.001l-0.005-0.001l-0.005-0.001l-0.005-0.001l-0.005,0l-0.005,0
			l-0.005,0l-0.005,0l-0.005,0.001l-0.005,0.001l-0.005,0.001l-0.005,0.001l-0.005,0.001l-0.005,0.002l-0.005,0.002l-0.005,0.002
			l-0.005,0.002l-0.005,0.002l-0.005,0.003l-0.005,0.003l-0.005,0.003l-0.005,0.003l-0.005,0.004l-0.005,0.004l-0.005,0.004
			l-0.006,0.004l-0.005,0.004l-0.006,0.005l-0.006,0.005c-0.083,0.074-0.144,0.17-0.203,0.264c-0.497,0.887-0.954,1.964-1.473,2.838
			c-0.996,1.736-2.285,3.306-3.701,4.716c-0.912,0.889-1.889,1.746-3.003,2.373c-0.466,0.25-0.973,0.485-1.511,0.487l-0.025-0.001
			l-0.025-0.001l-0.025-0.001l-0.024-0.002l-0.024-0.002l-0.024-0.003l-0.024-0.003l-0.023-0.004l-0.023-0.004l-0.023-0.005
			l-0.023-0.005l-0.022-0.006l-0.022-0.006l-0.022-0.007l-0.022-0.007l-0.021-0.007l-0.021-0.008l-0.021-0.008l-0.021-0.009
			l-0.02-0.009l-0.02-0.01l-0.02-0.01l-0.019-0.011l-0.019-0.011l-0.019-0.012l-0.019-0.012l-0.018-0.013l-0.018-0.013l-0.018-0.014
			l-0.017-0.014l-0.017-0.015l-0.017-0.015l-0.017-0.016l-0.016-0.016l-0.012-0.013l-0.012-0.013l-0.012-0.013l-0.012-0.014
			c-0.283-0.355-0.367-0.823-0.428-1.262c-0.163-1.355,0.039-2.859,0.052-4.221c-0.003-0.162-0.005-0.331-0.047-0.489l-0.003-0.01
			l-0.003-0.009l-0.003-0.009l-0.003-0.009l-0.003-0.008l-0.003-0.008l-0.003-0.008l-0.003-0.005l-0.003-0.005l-0.003-0.005
			l-0.003-0.005l-0.003-0.005l-0.003-0.004l-0.003-0.004l-0.003-0.004l-0.003-0.004l-0.003-0.004l-0.003-0.004l-0.003-0.003
			l-0.003-0.003l-0.003-0.003l-0.003-0.003l-0.003-0.003l-0.003-0.003l-0.003-0.003l-0.003-0.002l-0.003-0.002l-0.003-0.002
			l-0.004-0.002l-0.004-0.002l-0.004-0.002l-0.004-0.002l-0.004-0.001l-0.004-0.001l-0.004-0.001l-0.004-0.001l-0.004-0.001
			l-0.004-0.001l-0.004-0.001l-0.004,0l-0.004,0l-0.004,0l-0.004,0l-0.004,0l-0.004,0l-0.004,0l-0.004,0.001l-0.005,0.001
			l-0.005,0.001l-0.005,0.001l-0.005,0.001l-0.005,0.001l-0.005,0.001l-0.005,0.001l-0.005,0.002l-0.005,0.002l-0.005,0.002
			l-0.005,0.002l-0.005,0.002c-0.176,0.087-0.316,0.259-0.45,0.399l-0.882,1.014c-1.719,1.954-4.315,3.146-6.487,4.514
			c-0.557,0.349-1.126,0.729-1.637,1.142c-0.436,0.347-0.95,0.839-1.398,1.168c-0.186,0.128-0.402,0.277-0.636,0.267l-0.007-0.001
			l-0.007-0.001l-0.007-0.001l-0.007-0.001l-0.007-0.001l-0.007-0.001l-0.007-0.001l-0.007-0.001l-0.007-0.002l-0.007-0.002
			l-0.007-0.002l-0.007-0.002l-0.007-0.002l-0.007-0.002l-0.007-0.002l-0.007-0.002l-0.007-0.003l-0.007-0.003l-0.006-0.003
			l-0.006-0.003l-0.006-0.003l-0.006-0.003l-0.006-0.003l-0.006-0.004l-0.006-0.004l-0.006-0.004l-0.006-0.004l-0.006-0.004
			l-0.006-0.004l-0.006-0.004l-0.006-0.005c-0.051-0.039-0.093-0.089-0.129-0.143l-0.009-0.015l-0.009-0.015l-0.009-0.016
			c-0.098-0.174-0.154-0.37-0.202-0.562c-0.181-0.785-0.232-1.621-0.289-2.423c-0.094-1.398-0.134-3.726-0.375-5.085
			c-0.045-0.227-0.096-0.46-0.198-0.668l-0.008-0.015l-0.008-0.015l-0.008-0.014l-0.008-0.014l-0.008-0.013l-0.008-0.013
			l-0.007-0.01l-0.007-0.009l-0.007-0.009l-0.007-0.009l-0.007-0.008l-0.007-0.008l-0.007-0.008l-0.007-0.008l-0.007-0.007
			l-0.007-0.007l-0.007-0.007l-0.007-0.006l-0.007-0.006l-0.007-0.006l-0.007-0.005l-0.008-0.005l-0.008-0.005l-0.008-0.005
			l-0.008-0.004l-0.008-0.004l-0.008-0.004l-0.008-0.004l-0.008-0.003l-0.008-0.003l-0.008-0.003l-0.008-0.002l-0.008-0.002
			l-0.008-0.002l-0.008-0.002l-0.008-0.001l-0.008-0.001l-0.009-0.001l-0.009-0.001l-0.009,0l-0.009,0l-0.009,0l-0.009,0
			l-0.009,0.001l-0.009,0.001l-0.009,0.001l-0.009,0.001l-0.009,0.002l-0.009,0.002l-0.009,0.002l-0.009,0.002l-0.009,0.003
			l-0.009,0.003l-0.01,0.003l-0.01,0.003l-0.01,0.004l-0.01,0.004l-0.01,0.004c-0.183,0.083-0.329,0.229-0.469,0.37
			c-0.977,1.095-1.863,2.472-2.888,3.542c-1.152,1.217-2.463,2.329-3.977,3.068c-0.462,0.215-0.952,0.397-1.462,0.441
			c-0.314,0.025-0.646-0.012-0.921-0.176l-0.017-0.01l-0.017-0.011l-0.017-0.011l-0.017-0.011l-0.016-0.012l-0.016-0.012
			l-0.016-0.012l-0.016-0.013l-0.016-0.013l-0.016-0.013l-0.015-0.013l-0.015-0.014l-0.015-0.014l-0.015-0.014l-0.015-0.015
			l-0.014-0.015l-0.014-0.015c-0.246-0.276-0.355-0.643-0.425-0.999c-0.28-1.71,0.105-3.73,0.291-5.45
			c0.025-0.283,0.07-0.582,0.037-0.865l-0.002-0.01l-0.002-0.01l-0.002-0.009l-0.002-0.009l-0.002-0.009l-0.002-0.008l-0.003-0.008
			l-0.003-0.007l-0.003-0.007l-0.003-0.006l-0.003-0.006l-0.003-0.005l-0.003-0.005l-0.003-0.005l-0.003-0.004l-0.003-0.004
			l-0.004-0.004l-0.004-0.003l-0.004-0.003l-0.004-0.003l-0.004-0.002l-0.004-0.002l-0.004-0.002l-0.004-0.001l-0.005-0.001
			l-0.005-0.001l-0.005,0l-0.005,0l-0.005,0l-0.005,0.001l-0.005,0.001l-0.005,0.001l-0.005,0.002l-0.006,0.002l-0.006,0.002
			l-0.006,0.003l-0.006,0.003l-0.006,0.003l-0.006,0.004l-0.006,0.004l-0.006,0.004l-0.007,0.005l-0.007,0.005l-0.007,0.005
			l-0.007,0.005c-0.124,0.107-0.221,0.248-0.317,0.379c-0.744,1.106-1.591,2.569-2.395,3.624c-0.807,1.097-1.775,2.091-2.913,2.847
			c-1.313,0.886-2.817,1.464-4.344,1.859"/>
	</g>
	<g id="POLYLINE_00000096744176157649491440000015813748633335561902_">
		
			<path fill="none" stroke="#FB8604" stroke-width="2.75" stroke-linecap="round" stroke-linejoin="round" stroke-miterlimit="10" d="
			M558.061,230.773c2.81,2.911,5.353,6.147,7.279,9.715c2.506,4.603,4.005,9.715,4.922,14.857c0.383,2.301,0.738,4.668,0.613,7.005
			c-0.044,0.525-0.099,1.07-0.329,1.55l-0.013,0.024l-0.013,0.024l-0.013,0.023l-0.013,0.022l-0.013,0.022l-0.014,0.021l-0.014,0.02
			l-0.014,0.02l-0.014,0.019l-0.015,0.018l-0.015,0.018l-0.015,0.017l-0.015,0.016l-0.016,0.016l-0.016,0.015l-0.016,0.014
			l-0.016,0.013l-0.016,0.013l-0.017,0.012l-0.017,0.011l-0.017,0.011l-0.017,0.01l-0.018,0.009l-0.018,0.008l-0.018,0.008
			l-0.018,0.007l-0.019,0.006l-0.019,0.005l-0.019,0.005l-0.019,0.004c-0.119,0.022-0.242,0.002-0.357-0.033
			c-0.266-0.084-0.508-0.237-0.741-0.388c-0.34-0.218-0.758-0.548-1.135-0.688c-0.075-0.026-0.154-0.045-0.233-0.043l-0.02,0.001
			l-0.02,0.002l-0.019,0.003l-0.019,0.004l-0.019,0.005l-0.018,0.006l-0.018,0.007l-0.017,0.008l-0.017,0.009l-0.016,0.01
			l-0.016,0.011l-0.016,0.012l-0.015,0.013l-0.015,0.014l-0.014,0.015l-0.014,0.016l-0.014,0.017l-0.013,0.018l-0.013,0.019
			l-0.012,0.02l-0.012,0.021l-0.012,0.022l-0.011,0.023l-0.011,0.024l-0.011,0.025l-0.01,0.026l-0.01,0.026l-0.009,0.027
			l-0.009,0.028l-0.009,0.029l-0.008,0.03c-0.07,0.271-0.087,0.556-0.095,0.835c-0.014,1.168,0.154,2.393,0.3,3.551
			c0.826,5.615,2.138,13.469,2.444,19.053c0.314,5.365,0.302,10.821-0.318,16.164c-0.15,1.16-0.326,2.363-0.639,3.49
			c-0.118,0.405-0.248,0.819-0.469,1.181l-0.017,0.026L568.354,308l-0.017,0.024l-0.017,0.023l-0.017,0.022l-0.017,0.021
			l-0.017,0.02l-0.017,0.019l-0.017,0.018l-0.017,0.017l-0.018,0.016l-0.018,0.015l-0.018,0.014l-0.018,0.013l-0.018,0.012
			l-0.018,0.011l-0.018,0.01l-0.018,0.009l-0.018,0.008l-0.018,0.007l-0.018,0.006l-0.018,0.005l-0.018,0.003l-0.018,0.002
			l-0.018,0.001l-0.018,0l-0.018-0.001l-0.018-0.002l-0.018-0.003l-0.018-0.004l-0.018-0.006l-0.018-0.007l-0.018-0.008
			l-0.018-0.009l-0.018-0.01l-0.007-0.004l-0.008-0.005c-0.089-0.057-0.162-0.137-0.227-0.22c-0.334-0.436-0.622-1.13-0.869-1.624
			c-0.178-0.357-0.355-0.739-0.605-1.052c-0.06-0.072-0.126-0.142-0.205-0.192l-0.008-0.005l-0.008-0.004l-0.008-0.004l-0.008-0.004
			l-0.008-0.004l-0.008-0.004l-0.008-0.004l-0.016-0.007l-0.016-0.006l-0.016-0.005l-0.016-0.004l-0.016-0.003l-0.016-0.002
			l-0.016-0.002l-0.016-0.001l-0.015,0l-0.015,0.001l-0.015,0.002l-0.015,0.003l-0.015,0.003l-0.015,0.004l-0.015,0.005
			l-0.015,0.006l-0.015,0.007l-0.015,0.007l-0.015,0.008l-0.015,0.009l-0.015,0.01l-0.015,0.01l-0.015,0.011l-0.015,0.012
			l-0.015,0.013l-0.015,0.013l-0.015,0.014l-0.015,0.015l-0.015,0.016l-0.015,0.016l-0.015,0.017l-0.015,0.018l-0.015,0.019
			l-0.015,0.019c-0.138,0.182-0.241,0.394-0.333,0.603c-0.195,0.452-0.348,0.944-0.487,1.417c-0.705,2.482-1.763,7.786-2.391,10.315
			c-0.657,2.707-1.445,5.454-2.471,8.044c-0.607,1.488-1.255,3.01-2.223,4.303c-0.267,0.337-0.563,0.676-0.952,0.872l-0.02,0.009
			l-0.02,0.009l-0.02,0.008l-0.02,0.008l-0.02,0.007l-0.02,0.007l-0.02,0.007l-0.019,0.006l-0.019,0.006l-0.019,0.005l-0.019,0.005
			l-0.019,0.004l-0.019,0.004l-0.019,0.003l-0.019,0.003l-0.019,0.002l-0.019,0.002l-0.019,0.001l-0.019,0.001l-0.019,0l-0.019,0
			l-0.018-0.001l-0.018-0.001l-0.018-0.002L555.936,331l-0.018-0.003l-0.018-0.003l-0.018-0.004l-0.018-0.004l-0.018-0.005
			l-0.018-0.005l-0.018-0.006l-0.018-0.006l-0.018-0.007l-0.017-0.007l-0.013-0.006l-0.013-0.006l-0.013-0.007l-0.013-0.007
			l-0.013-0.007l-0.013-0.007l-0.013-0.008l-0.013-0.008c-0.219-0.14-0.376-0.358-0.51-0.577c-0.702-1.24-1.117-3.17-1.546-4.542
			c-0.235-0.778-0.498-1.579-0.869-2.302c-0.388-0.793-1.103-1.764-1.605-2.498c-1.917-2.774-2.948-6.379-4.646-9.277
			c-0.236-0.372-0.48-0.765-0.84-1.029l-0.016-0.011l-0.016-0.01l-0.016-0.01l-0.016-0.009l-0.016-0.009l-0.016-0.008l-0.016-0.008
			l-0.015-0.007l-0.015-0.007l-0.015-0.006l-0.015-0.006l-0.015-0.005l-0.015-0.005l-0.015-0.004l-0.015-0.004l-0.015-0.003
			l-0.015-0.003l-0.015-0.002l-0.015-0.002l-0.015-0.001l-0.015-0.001l-0.015,0l-0.014,0l-0.014,0.001l-0.014,0.001l-0.014,0.002
			l-0.014,0.002l-0.01,0.002l-0.01,0.002l-0.01,0.003l-0.01,0.003l-0.01,0.003l-0.01,0.003l-0.01,0.004l-0.01,0.004l-0.01,0.004
			l-0.01,0.004l-0.01,0.005l-0.01,0.005l-0.009,0.005l-0.009,0.005l-0.009,0.006l-0.009,0.006l-0.009,0.006l-0.009,0.006
			l-0.009,0.006c-0.308,0.231-0.509,0.699-0.675,1.042c-0.354,0.763-0.707,1.706-1.242,2.358c-0.156,0.188-0.338,0.361-0.554,0.478
			l-0.022,0.012l-0.022,0.011l-0.022,0.011l-0.023,0.01l-0.023,0.01l-0.023,0.01l-0.023,0.009l-0.023,0.009l-0.023,0.008
			c-0.362,0.128-0.759,0.098-1.124-0.001c-0.616-0.171-1.175-0.509-1.693-0.875c-1.335-0.97-2.475-2.206-3.525-3.473
			c-1.77-2.146-3.232-4.559-4.311-7.122c-1.665-3.85-2.943-8.667-4.997-12.331c-0.265-0.446-0.557-0.894-0.917-1.271
			c-0.186-0.192-0.394-0.371-0.639-0.482l-0.02-0.009l-0.02-0.008l-0.02-0.008l-0.02-0.008l-0.02-0.007l-0.02-0.007l-0.02-0.006
			l-0.02-0.006l-0.02-0.005l-0.02-0.005l-0.02-0.004l-0.02-0.004l-0.02-0.003l-0.02-0.003l-0.02-0.002l-0.02-0.002l-0.02-0.001
			l-0.02-0.001l-0.02,0h-0.02l-0.02,0.001l-0.02,0.001l-0.02,0.001l-0.02,0.002l-0.02,0.003l-0.02,0.003l-0.02,0.004l-0.02,0.004
			l-0.02,0.005l-0.02,0.005l-0.02,0.006l-0.02,0.006l-0.02,0.007l-0.015,0.005l-0.015,0.006c-0.208,0.082-0.383,0.231-0.536,0.39
			c-0.711,0.77-1.277,2.038-1.792,2.95c-0.204,0.363-0.418,0.739-0.683,1.061c-0.106,0.126-0.223,0.248-0.365,0.332l-0.012,0.007
			l-0.012,0.007l-0.012,0.006l-0.012,0.006l-0.011,0.005l-0.011,0.005l-0.011,0.005l-0.011,0.004l-0.011,0.004l-0.011,0.004
			l-0.011,0.004l-0.011,0.003l-0.011,0.003l-0.011,0.003l-0.011,0.003l-0.011,0.002l-0.011,0.002l-0.011,0.002l-0.011,0.002
			l-0.011,0.001l-0.011,0.001l-0.011,0.001l-0.011,0.001l-0.011,0l-0.011,0h-0.011l-0.011,0l-0.011,0l-0.011-0.001l-0.011-0.001
			l-0.011-0.001l-0.011-0.001l-0.011-0.002l-0.011-0.002l-0.011-0.002l-0.011-0.002l-0.011-0.003l-0.011-0.003l-0.011-0.003
			l-0.011-0.003l-0.011-0.003l-0.011-0.004l-0.011-0.004l-0.011-0.004c-0.257-0.106-0.442-0.33-0.607-0.545
			c-0.564-0.786-1.048-1.902-1.492-2.767c-0.466-0.939-1.018-1.888-1.585-2.769c-1.382-2.106-3.293-4.857-4.371-7.106
			c-0.965-1.923-1.694-4.024-2.308-6.084c-0.684-2.222-1.771-6.698-2.732-8.758c-0.178-0.363-0.372-0.732-0.66-1.02l-0.019-0.018
			l-0.019-0.018l-0.019-0.017l-0.019-0.016l-0.019-0.016l-0.019-0.015l-0.019-0.014l-0.019-0.014l-0.02-0.013l-0.02-0.012
			l-0.02-0.012l-0.02-0.011l-0.02-0.01l-0.02-0.01l-0.02-0.009l-0.02-0.008l-0.02-0.008l-0.02-0.007l-0.02-0.006l-0.02-0.005
			l-0.02-0.005l-0.02-0.004l-0.02-0.003l-0.02-0.002l-0.02-0.002l-0.02-0.001l-0.02,0l-0.02,0.001l-0.02,0.001l-0.02,0.002
			l-0.02,0.003l-0.011,0.002l-0.011,0.002l-0.011,0.002l-0.011,0.002l-0.011,0.003c-0.161,0.042-0.301,0.14-0.426,0.246
			c-0.255,0.22-0.468,0.493-0.672,0.76c-0.396,0.512-0.771,1.128-1.255,1.561c-0.101,0.085-0.213,0.164-0.339,0.206l-0.01,0.003
			l-0.01,0.003l-0.01,0.003l-0.01,0.003l-0.01,0.002l-0.017,0.003l-0.017,0.003l-0.017,0.002l-0.017,0.002l-0.017,0.001l-0.017,0
			l-0.017,0l-0.016-0.001l-0.016-0.001l-0.016-0.002l-0.016-0.002l-0.016-0.003l-0.016-0.004l-0.016-0.004l-0.016-0.005
			l-0.016-0.005l-0.016-0.006l-0.016-0.006l-0.016-0.007l-0.016-0.007l-0.016-0.008l-0.016-0.009l-0.016-0.009l-0.016-0.01
			l-0.016-0.01l-0.016-0.011l-0.016-0.011l-0.016-0.012l-0.015-0.012l-0.015-0.013l-0.015-0.013l-0.015-0.014l-0.015-0.014
			l-0.015-0.015l-0.015-0.015c-0.24-0.254-0.393-0.578-0.529-0.896c-0.463-1.156-0.701-2.416-0.926-3.636
			c-0.528-3.111-0.828-6.353-1.014-9.502c-0.249-4.3-0.046-8.687,0.645-12.94c0.47-2.983,1.186-5.97,2.423-8.734
			c1.164-2.626,2.813-5.047,4.853-7.071c4.436-4.391,10.636-7.059,15.866-10.345c0.716-0.483,1.547-1.024,2.052-1.725l0.02-0.03
			l0.019-0.03l0.018-0.03l0.017-0.029l0.016-0.029l0.015-0.029l0.015-0.029l0.014-0.029l0.013-0.029l0.012-0.028l0.011-0.028
			l0.01-0.028l0.009-0.028l0.008-0.028l0.007-0.028l0.006-0.027l0.005-0.027l0.004-0.027l0.003-0.027l0.002-0.027l0.001-0.027
			l0-0.027l-0.001-0.026l-0.002-0.026l-0.003-0.026c-0.055-0.366-0.361-0.632-0.631-0.857c-0.423-0.349-0.973-0.661-1.323-1.089
			c-0.083-0.106-0.154-0.225-0.185-0.357l-0.005-0.023l-0.004-0.023l-0.003-0.023l-0.003-0.023l-0.002-0.023l-0.001-0.023l0-0.023
			l0-0.023l0.001-0.023l0.002-0.023l0.003-0.024l0.004-0.024l0.004-0.024l0.005-0.024l0.006-0.024l0.007-0.024l0.007-0.024
			l0.008-0.024l0.009-0.024l0.01-0.024l0.01-0.024l0.011-0.025l0.012-0.025l0.012-0.025l0.013-0.025l0.014-0.025l0.015-0.025
			l0.015-0.025l0.016-0.025l0.017-0.025c0.44-0.62,1.198-1.063,1.855-1.425c2.443-1.266,5.146-1.999,7.831-2.554
			c2.078-0.411,4.207-0.674,6.325-0.746c2.447-0.082,4.95,0.088,7.382,0.359c2.245,0.245,5.601,0.785,7.842,0.984
			c0.536,0.043,1.103,0.075,1.641,0.057c0.47-0.02,0.954-0.063,1.39-0.251l0.029-0.013l0.028-0.013l0.028-0.014l0.027-0.014
			l0.026-0.014l0.026-0.015l0.025-0.015l0.025-0.016l0.024-0.016c0.503-0.333,0.628-1.007,0.808-1.543
			c0.126-0.387,0.291-0.768,0.543-1.09c0.236-0.309,0.545-0.556,0.875-0.759c0.742-0.451,1.58-0.731,2.414-0.959
			c1.556-0.413,3.186-0.63,4.789-0.77c4.689-0.372,9.475-0.13,14.116,0.625c2.069,0.348,4.151,0.825,6.137,1.506
			c2.051,0.697,4.056,1.634,5.959,2.665c3.257,1.767,6.541,3.933,10.03,5.219c3.231,1.23,6.736,1.649,10.159,1.963
			c1.233,0.122,5.116,0.368,6.334,0.634c0.25,0.054,0.51,0.114,0.742,0.226l0.02,0.01l0.019,0.01l0.018,0.01l0.018,0.01l0.017,0.01
			l0.016,0.011l0.016,0.011l0.015,0.011l0.014,0.011l0.013,0.011l0.013,0.011l0.012,0.011l0.011,0.011l0.011,0.012l0.01,0.012
			l0.009,0.012l0.008,0.012l0.008,0.012l0.007,0.012l0.006,0.012l0.005,0.012l0.005,0.013l0.004,0.013l0.003,0.013l0.002,0.013
			l0.002,0.013l0.001,0.013v0.013l0,0.006l0,0.006l-0.001,0.006l-0.001,0.006l-0.001,0.006l-0.001,0.006l-0.001,0.006l-0.001,0.006
			l-0.001,0.006l-0.002,0.006l-0.002,0.006l-0.002,0.006l-0.002,0.006l-0.002,0.006c-0.023,0.067-0.064,0.128-0.107,0.183
			c-0.214,0.266-0.626,0.58-0.883,0.809c-0.315,0.285-0.707,0.633-0.803,1.062L620.402,215l-0.003,0.019l-0.003,0.019l-0.002,0.019
			l-0.002,0.019l-0.001,0.019l-0.001,0.02l0,0.02l0,0.02l0.001,0.02l0.001,0.02l0.002,0.02l0.002,0.02l0.003,0.02l0.003,0.02
			l0.004,0.02l0.004,0.02l0.005,0.02l0.005,0.02l0.005,0.02l0.006,0.02l0.006,0.02l0.007,0.02l0.007,0.02l0.008,0.02l0.008,0.02
			l0.009,0.02l0.009,0.02c0.137,0.288,0.365,0.521,0.601,0.73c1.05,0.877,2.346,1.468,3.566,2.07
			c4.281,2.029,9.259,3.942,12.413,7.615"/>
	</g>
	<g id="POLYLINE_00000042723084140661778220000003338861691962642875_">
		
			<path fill="none" stroke="#FB8604" stroke-width="2.75" stroke-linecap="round" stroke-linejoin="round" stroke-miterlimit="10" d="
			M638.596,245.749c-0.577,0.302-1.254,0.367-1.877,0.175c-0.853-0.259-1.552-0.864-2.137-1.518
			c-1.496-1.725-2.395-3.888-3.067-6.048c-0.753-2.539-1.222-5.192-1.28-7.842c0.001-1.231,0.124-2.597,0.989-3.549
			c0.359-0.393,0.83-0.669,1.324-0.858c0.714-0.273,1.485-0.386,2.247-0.406c1.051-0.022,2.112,0.134,3.101,0.497
			c1.077,0.391,2.055,1.024,2.955,1.726c1.065,0.861,2.241,1.73,2.834,3.002c0.782,1.672,0.488,3.619,0.121,5.362
			c-0.592,2.548-1.553,5.048-2.995,7.238C640.217,244.387,639.533,245.251,638.596,245.749z"/>
	</g>
</g>
<g id="_x32_D_x24_AG-OUTLINE">
	<g id="POLYLINE_00000009571460903502595450000009093624481754838963_">
		
			<path fill="none" stroke="#FB8604" stroke-width="3.5" stroke-linecap="round" stroke-linejoin="round" stroke-miterlimit="10" d="
			M637.065,225.946c-3.149-3.67-8.137-5.59-12.413-7.615c-1.221-0.602-2.516-1.192-3.566-2.07c-0.236-0.209-0.464-0.443-0.601-0.73
			l-0.009-0.02l-0.009-0.02l-0.008-0.02l-0.008-0.02l-0.007-0.02l-0.007-0.02l-0.006-0.02l-0.006-0.02l-0.005-0.02l-0.005-0.02
			l-0.005-0.02l-0.004-0.02l-0.004-0.02l-0.003-0.02l-0.003-0.02l-0.002-0.02l-0.002-0.02l-0.001-0.02l-0.001-0.02l0-0.02l0-0.02
			l0.001-0.02l0.001-0.019l0.002-0.019l0.002-0.019l0.003-0.019l0.003-0.019l0.004-0.019c0.096-0.429,0.488-0.776,0.803-1.062
			c0.259-0.231,0.668-0.542,0.883-0.809c0.043-0.056,0.084-0.116,0.107-0.183l0.002-0.006l0.002-0.006l0.002-0.006l0.002-0.006
			l0.002-0.006l0.001-0.006l0.001-0.006l0.001-0.006l0.001-0.006l0.001-0.006l0.001-0.006l0.001-0.006l0-0.006l0-0.006v-0.013
			l-0.001-0.013l-0.002-0.013l-0.002-0.013l-0.003-0.013l-0.004-0.013l-0.005-0.013l-0.005-0.012l-0.006-0.012l-0.007-0.012
			l-0.008-0.012l-0.008-0.012l-0.009-0.012l-0.01-0.012l-0.011-0.012l-0.011-0.011l-0.012-0.011l-0.013-0.011l-0.013-0.011
			l-0.014-0.011l-0.015-0.011l-0.016-0.011l-0.016-0.011l-0.017-0.01l-0.018-0.01l-0.018-0.01l-0.019-0.01l-0.02-0.01
			c-0.232-0.112-0.491-0.172-0.742-0.226c-1.231-0.267-5.005-0.504-6.334-0.634c-3.425-0.315-6.928-0.733-10.159-1.963
			c-3.487-1.285-6.773-3.453-10.03-5.219c-1.789-0.968-3.673-1.859-5.591-2.536c-1.792-0.64-3.674-1.112-5.543-1.463
			c-4.803-0.877-9.768-1.166-14.639-0.831c-1.695,0.131-3.418,0.343-5.067,0.763c-0.889,0.234-1.785,0.522-2.575,1.001
			c-0.339,0.208-0.655,0.464-0.894,0.784c-0.241,0.317-0.401,0.688-0.524,1.065c-0.18,0.536-0.305,1.209-0.808,1.543l-0.024,0.016
			l-0.025,0.016l-0.025,0.015l-0.026,0.015l-0.026,0.014l-0.027,0.014l-0.028,0.014l-0.028,0.013l-0.029,0.013
			c-0.436,0.188-0.921,0.231-1.39,0.251c-0.538,0.018-1.104-0.013-1.641-0.057c-2.233-0.199-5.601-0.74-7.842-0.984
			c-2.432-0.271-4.935-0.441-7.382-0.359c-2.117,0.072-4.247,0.335-6.325,0.746c-2.684,0.555-5.387,1.287-7.831,2.554
			c-0.66,0.364-1.414,0.805-1.855,1.426l-0.017,0.025l-0.016,0.025l-0.015,0.025l-0.015,0.025l-0.014,0.025l-0.013,0.025
			l-0.012,0.025l-0.012,0.025l-0.011,0.025l-0.01,0.024l-0.01,0.024l-0.009,0.024l-0.008,0.024l-0.007,0.024l-0.007,0.024
			l-0.006,0.024l-0.005,0.024l-0.004,0.024l-0.004,0.024l-0.003,0.024l-0.002,0.023l-0.001,0.023l0,0.023l0,0.023l0.001,0.023
			l0.002,0.023l0.003,0.023l0.003,0.023l0.004,0.023l0.005,0.023c0.031,0.132,0.102,0.251,0.185,0.357
			c0.35,0.428,0.9,0.74,1.323,1.089c0.269,0.225,0.576,0.491,0.631,0.857l0.003,0.026l0.002,0.026l0.001,0.026l0,0.027l-0.001,0.027
			l-0.002,0.027l-0.003,0.027l-0.004,0.027l-0.005,0.027l-0.006,0.027l-0.007,0.028l-0.008,0.028l-0.009,0.028l-0.01,0.028
			l-0.011,0.028l-0.012,0.028l-0.013,0.029l-0.014,0.029l-0.015,0.029l-0.015,0.029l-0.016,0.029l-0.017,0.029l-0.018,0.03
			l-0.019,0.03l-0.02,0.03c-0.23,0.333-0.539,0.608-0.849,0.864c-0.759,0.611-1.632,1.143-2.468,1.645
			c-4.814,2.832-10.375,5.479-14.419,9.382c-2.739,2.644-4.751,5.997-5.952,9.601c-5.968,2.518-11.906,5.405-17.194,9.172
			c-2.245,1.592-4.356,3.461-6.289,5.419c-2.24,2.28-5.614,5.892-8.034,7.9c-2.076,1.784-4.408,3.37-6.754,4.779
			c-1.878,1.146-7.458,4.199-9.107,5.502c-0.302,0.242-0.609,0.497-0.83,0.818l-0.014,0.022l-0.014,0.022l-0.013,0.021l-0.012,0.021
			l-0.011,0.021l-0.011,0.021l-0.01,0.021l-0.009,0.021l-0.009,0.02l-0.008,0.02l-0.007,0.02l-0.006,0.02l-0.006,0.02l-0.005,0.019
			l-0.004,0.019l-0.004,0.019l-0.003,0.019l-0.002,0.019l-0.001,0.018l0,0.018l0,0.018l0.001,0.018l0.002,0.018l0.003,0.017
			l0.003,0.017l0.004,0.017l0.005,0.017c0.08,0.232,0.341,0.376,0.542,0.494c0.297,0.169,0.664,0.326,0.918,0.557
			c0.079,0.074,0.15,0.162,0.185,0.265l0.006,0.018l0.005,0.018l0.004,0.018l0.004,0.018l0.003,0.019l0.002,0.019l0.001,0.019
			l0.001,0.019l0,0.019l-0.001,0.02l-0.001,0.02l-0.002,0.02l-0.003,0.02l-0.003,0.02l-0.004,0.021l-0.005,0.021l-0.005,0.021
			l-0.006,0.021l-0.007,0.021l-0.007,0.022l-0.008,0.022l-0.009,0.022l-0.009,0.022l-0.01,0.022l-0.01,0.022l-0.011,0.023
			l-0.012,0.023l-0.012,0.023c-0.332,0.565-0.917,1.007-1.435,1.396c-2.442,1.713-5.224,2.944-7.99,4.034
			c-2.571,0.993-5.269,1.769-7.983,2.255c-3.759,0.706-8.737,0.982-12.552,1.433c-4.056,0.449-8.09,1.414-11.977,2.643
			c-8.42,2.608-18.19,6.547-27.008,6.893c-4.804,0.211-9.749-1.034-14.406-2.11c-1.715-0.353-3.51-0.767-5.267-0.55
			c-0.975,0.125-1.862,0.593-2.671,1.13c-0.845,0.57-1.763,1.199-2.69,1.601c-1.294,0.579-2.724,0.776-4.131,0.807
			c-4.297,0.046-8.619-0.856-12.809-1.733c-9.844-2.12-21.453-5.801-31.348-7.675c-2.349-0.413-4.78-0.768-7.167-0.8
			c-1.305-0.003-2.649,0.054-3.886,0.505c-0.778,0.281-1.501,0.848-2.226,1.234c-0.77,0.421-1.623,0.683-2.474,0.884
			c-2.129,0.488-4.349,0.672-6.527,0.781c-3.498,0.155-7.155,0.042-10.647-0.219c-9.539-0.739-22.208-2.963-31.738-3.723
			c-6.579-0.541-13.301-0.535-19.786,0.817c-3.162,0.654-6.32,1.641-9.294,2.9c-3.468,1.46-6.834,3.37-10.053,5.313
			c-3.98,2.448-12.259,7.748-16.221,9.861c-2.543,1.398-5.27,2.72-7.932,3.873c-6.601,2.902-14.703,5.625-20.86,9.351
			c-2.473,1.499-4.802,3.307-6.667,5.53c-4.108,4.849-6.353,11.259-9.296,16.82c-1.125,2.173-2.459,4.345-3.833,6.37
			c-1.366,2.047-3.872,5.445-5.002,7.605c-0.29,0.585-0.596,1.208-0.631,1.87l-0.001,0.029v0.028l0.001,0.028l0.001,0.028
			l0.002,0.027l0.002,0.027l0.003,0.027l0.003,0.026l0.004,0.026l0.004,0.025l0.005,0.025l0.005,0.025l0.006,0.024l0.007,0.024
			l0.007,0.024l0.008,0.023l0.008,0.023l0.009,0.022l0.009,0.022l0.01,0.022l0.011,0.021l0.011,0.021l0.012,0.02l0.012,0.02
			l0.013,0.02l0.014,0.019l0.014,0.019l0.015,0.018l0.015,0.018l0.016,0.018c0.105,0.112,0.239,0.191,0.378,0.253
			c0.49,0.212,1.214,0.282,1.74,0.38c0.347,0.065,0.702,0.139,1.019,0.299c0.183,0.093,0.354,0.223,0.46,0.401l0.016,0.028
			l0.015,0.029l0.014,0.029l0.013,0.03l0.012,0.031l0.011,0.031l0.01,0.032l0.009,0.033l0.008,0.034l0.008,0.034l0.007,0.035
			l0.006,0.036l0.005,0.036l0.004,0.037l0.003,0.038l0.002,0.038l0.001,0.039l0,0.04l0,0.04l-0.001,0.041l-0.002,0.042l-0.003,0.042
			l-0.004,0.043c-0.063,0.569-0.28,1.114-0.507,1.635c-0.313,0.699-0.703,1.406-1.087,2.069c-1.212,2.068-3.991,6.232-5.248,8.275
			c-1.663,2.714-3.319,5.522-4.328,8.555c-0.524,1.596-0.834,3.272-0.925,4.949c-0.173,2.66,0.3,5.732,0.631,8.381
			c0.265,2.095,0.469,4.28,0.414,6.392c-0.055,2.296-0.382,4.651-0.745,6.918c-0.294,1.863-1.094,5.82-1.204,7.683
			c-0.013,0.315-0.021,0.64,0.047,0.95l0.006,0.023l0.006,0.023l0.006,0.022l0.007,0.022l0.007,0.021l0.007,0.02l0.008,0.02
			l0.008,0.019l0.008,0.018l0.008,0.017l0.009,0.017l0.009,0.016l0.009,0.015l0.01,0.015l0.01,0.014l0.01,0.013l0.011,0.013
			l0.011,0.012l0.011,0.011l0.012,0.01l0.012,0.01l0.012,0.009l0.013,0.008l0.013,0.008l0.013,0.007l0.014,0.006l0.014,0.005
			l0.014,0.005l0.015,0.004l0.007,0.001l0.007,0.001l0.007,0.001l0.007,0.001l0.007,0.001l0.007,0.001l0.007,0.001l0.007,0l0.007,0
			l0.007,0l0.007,0l0.007,0c0.247-0.013,0.499-0.182,0.706-0.309c0.483-0.308,0.978-0.725,1.511-0.945
			c0.117-0.046,0.24-0.082,0.365-0.086l0.015,0l0.015,0l0.015,0l0.015,0.001l0.015,0.001l0.015,0.001l0.015,0.002l0.014,0.002
			l0.014,0.002l0.014,0.003l0.014,0.003l0.014,0.003l0.014,0.004l0.014,0.004l0.014,0.004l0.014,0.005l0.013,0.005l0.013,0.005
			l0.013,0.006l0.013,0.006l0.013,0.006l0.013,0.007l0.013,0.007l0.013,0.007l0.013,0.008l0.012,0.008l0.012,0.008l0.012,0.009
			l0.012,0.009l0.012,0.009l0.012,0.009l0.012,0.01l0.012,0.01l0.012,0.01l0.011,0.011l0.011,0.011l0.011,0.011
			c0.12,0.124,0.205,0.278,0.274,0.435c0.114,0.265,0.185,0.553,0.241,0.836c0.346,1.988,0.212,4.358,0.194,6.382
			c-0.142,5.486-0.366,11.159-1.311,16.569c-0.484,2.821-1.269,5.623-2.381,8.263c-1.486,3.533-3.516,7.528-4.803,11.133
			c-1.415,3.875-2.49,7.999-3.34,12.036c-0.462,2.337-0.929,4.746-1.006,7.133c-0.002,0.448-0.002,0.912,0.118,1.347l0.008,0.027
			l0.009,0.026l0.009,0.025l0.009,0.025l0.009,0.024l0.01,0.023l0.01,0.022l0.01,0.021l0.011,0.02l0.011,0.019l0.011,0.018
			l0.012,0.017l0.012,0.016l0.012,0.016l0.013,0.015l0.013,0.014l0.013,0.013l0.013,0.012l0.014,0.011l0.014,0.01l0.014,0.009
			l0.015,0.008l0.015,0.007l0.015,0.006l0.016,0.005l0.016,0.004l0.016,0.003l0.006,0.001l0.006,0.001l0.006,0.001l0.006,0l0.006,0
			l0.006,0l0.006,0h0.006l0.006,0l0.006,0c0.222-0.018,0.446-0.2,0.622-0.328c0.315-0.236,0.669-0.567,1.042-0.703
			c0.088-0.03,0.183-0.049,0.277-0.037l0.021,0.003l0.021,0.004l0.021,0.005l0.021,0.006l0.02,0.007l0.02,0.008l0.02,0.009
			l0.02,0.01l0.02,0.011l0.019,0.012l0.019,0.013l0.019,0.014l0.019,0.015l0.019,0.016l0.018,0.017l0.018,0.018l0.018,0.019
			l0.018,0.02l0.018,0.021l0.017,0.022l0.017,0.022l0.017,0.023l0.017,0.024l0.017,0.025l0.016,0.026l0.016,0.027l0.016,0.028
			l0.016,0.029c0.185,0.355,0.282,0.752,0.363,1.142c0.166,0.847,0.234,1.734,0.279,2.596c0.131,2.942-0.034,6.061-0.243,9
			c-0.357,4.709-0.986,9.54-1.96,14.161c-0.786,3.59-2.41,10.514-2.92,14.038c-0.842,5.294-1.421,10.782-1.764,16.131
			c-0.161,2.61-0.28,5.471-0.288,8.083c0.004,1.604,0.026,3.288,0.231,4.878c0.078,0.56,0.174,1.13,0.368,1.662
			c0.092,0.243,0.205,0.489,0.389,0.677l0.012,0.012l0.012,0.011l0.012,0.011l0.012,0.011l0.012,0.01l0.012,0.01l0.012,0.01
			l0.012,0.009l0.013,0.009l0.013,0.009l0.013,0.008l0.013,0.008l0.013,0.008l0.013,0.007l0.013,0.007l0.013,0.006l0.013,0.006
			l0.013,0.006l0.013,0.005l0.014,0.005l0.014,0.005l0.014,0.004l0.014,0.004l0.014,0.004l0.014,0.003l0.014,0.003l0.014,0.003
			l0.014,0.002c0.457,0.048,0.91-0.34,1.35-0.419c0.083-0.014,0.171-0.014,0.249,0.02l0.012,0.005l0.012,0.006l0.011,0.006
			l0.011,0.007l0.011,0.007l0.011,0.008l0.011,0.008l0.011,0.009l0.01,0.009l0.01,0.01l0.01,0.01l0.01,0.011l0.01,0.011l0.009,0.012
			l0.009,0.012l0.009,0.013l0.009,0.013l0.009,0.014l0.009,0.014l0.008,0.015l0.008,0.015l0.008,0.015l0.008,0.016l0.008,0.016
			l0.008,0.017c0.2,0.497,0.187,1.161,0.187,1.694c-0.047,2.136-0.506,5.223-0.751,7.372c-0.297,2.392-0.521,5.048-0.627,7.456
			c-0.046,1.293-0.241,7.368-0.312,8.523l-0.877,13.135c-0.082,2.777-0.292,5.771,0.052,8.529c0.165,1.21,0.449,2.51,1.34,3.404
			c0.771,0.766,1.858,1.071,2.895,1.282c2.087,0.397,4.293,0.434,6.413,0.488c2.189,0.036,44.562,0.059,46.798,0.011
			c0.709-0.028,1.441-0.075,2.138-0.211c0.999-0.186,2.023-0.607,2.623-1.464c0.548-0.772,0.716-1.739,0.791-2.664
			c0.12-1.759-0.113-3.539-0.439-5.266c-0.266-1.331-0.589-2.675-1.054-3.951c-0.309-0.827-0.71-1.641-1.317-2.292
			c-0.909-0.989-2.211-1.472-3.474-1.832c-1.695-0.496-4.333-0.908-6.062-1.316c-0.541-0.128-1.095-0.282-1.614-0.481
			c-0.537-0.211-1.076-0.471-1.487-0.885c-0.304-0.311-0.529-0.727-0.542-1.168c-0.005-0.478,0.224-0.921,0.456-1.325
			c0.286-0.482,0.632-0.946,0.975-1.388c2.477-3.068,5.566-7.053,8.259-9.9c4.148-4.422,9.121-9.267,11.934-14.685l1.704-3.248
			c0.21-0.377,0.426-0.772,0.693-1.112c0.068-0.084,0.141-0.167,0.228-0.232l0.01-0.007l0.01-0.007l0.009-0.006l0.009-0.006
			l0.009-0.006l0.009-0.005l0.009-0.005l0.009-0.005l0.009-0.004l0.009-0.004l0.009-0.004l0.009-0.003l0.009-0.003l0.009-0.003
			l0.009-0.002l0.009-0.002l0.009-0.002l0.009-0.001l0.008-0.001l0.008-0.001l0.008,0l0.008,0l0.008,0l0.008,0.001l0.008,0.001
			l0.008,0.001l0.008,0.002l0.008,0.002l0.008,0.002l0.008,0.003l0.008,0.003l0.008,0.003l0.008,0.004l0.007,0.004l0.007,0.005
			l0.007,0.005l0.004,0.003l0.004,0.003l0.004,0.003l0.004,0.003l0.004,0.004l0.004,0.004l0.004,0.004
			c0.043,0.041,0.076,0.092,0.105,0.143c0.125,0.229,0.252,0.663,0.342,0.911c0.157,0.424,0.355,0.956,0.777,1.178l0.028,0.014
			l0.029,0.013l0.029,0.011l0.03,0.01l0.03,0.009l0.031,0.008l0.032,0.007l0.032,0.006l0.033,0.005l0.033,0.004l0.034,0.003
			l0.034,0.002l0.035,0.001l0.035,0l0.036-0.001l0.036-0.002l0.037-0.003l0.037-0.004l0.038-0.005l0.038-0.006l0.039-0.007
			l0.039-0.008l0.04-0.009l0.04-0.01l0.041-0.011l0.041-0.012l0.042-0.013c0.597-0.203,1.127-0.572,1.626-0.949
			c1.103-0.858,2.099-1.882,3.041-2.911c2.251-2.494,4.319-5.26,6.22-8.027c2.428-3.543,4.667-7.327,6.573-11.178
			c0.689-1.365,3.301-7.055,4.067-8.239c0.166-0.258,0.339-0.523,0.57-0.727l0.016-0.013l0.016-0.013l0.016-0.012l0.015-0.011
			l0.015-0.011l0.015-0.01l0.015-0.01l0.015-0.009l0.015-0.008l0.015-0.008l0.015-0.007l0.015-0.006l0.014-0.006l0.014-0.005
			l0.014-0.005l0.014-0.004l0.014-0.003l0.014-0.003l0.014-0.002l0.014-0.001l0.014-0.001l0.013,0l0.013,0.001l0.013,0.001
			l0.013,0.002l0.013,0.003l0.013,0.003l0.013,0.004l0.013,0.005l0.012,0.005l0.012,0.006l0.012,0.007l0.012,0.007l0.012,0.008
			l0.012,0.009l0.012,0.009l0.012,0.01l0.012,0.011l0.006,0.006l0.006,0.006c0.079,0.082,0.132,0.185,0.18,0.288
			c0.271,0.633,0.439,1.468,0.685,2.111c0.188,0.491,0.424,1.051,0.878,1.35l0.03,0.018l0.03,0.017l0.031,0.016l0.031,0.015
			l0.031,0.014l0.032,0.013l0.032,0.012l0.033,0.011l0.033,0.01l0.034,0.009l0.034,0.008l0.034,0.007l0.035,0.006l0.035,0.005
			l0.036,0.004l0.036,0.003l0.036,0.002l0.037,0.001l0.037,0l0.038-0.001l0.038-0.002l0.038-0.002l0.039-0.003l0.039-0.004
			l0.04-0.005l0.04-0.006l0.04-0.007l0.041-0.008l0.041-0.009l0.042-0.01l0.042-0.011c0.665-0.188,1.249-0.591,1.79-1.009
			c1.158-0.92,2.171-2.039,3.121-3.169c5.307-6.526,9.188-14.158,12.258-21.957c0.915-2.294,3.284-8.907,4.336-11.017
			c0.168-0.323,0.343-0.653,0.579-0.931l0.019-0.022l0.019-0.021l0.019-0.02l0.019-0.019l0.019-0.018l0.019-0.017l0.018-0.016
			l0.018-0.015l0.018-0.014l0.018-0.013l0.018-0.012l0.018-0.011l0.018-0.01l0.017-0.009l0.017-0.008l0.017-0.007l0.017-0.006
			l0.017-0.005l0.017-0.004l0.017-0.003l0.016-0.002l0.016-0.001l0.016,0l0.016,0.001l0.016,0.003l0.016,0.004l0.016,0.005
			l0.015,0.006l0.015,0.007l0.015,0.008l0.015,0.009l0.015,0.01l0.015,0.011l0.015,0.012l0.014,0.013l0.014,0.015l0.014,0.016
			l0.007,0.009l0.007,0.009l0.007,0.009c0.097,0.13,0.158,0.285,0.213,0.437c0.366,1.13,0.541,2.526,0.887,3.662
			c0.111,0.371,0.239,0.746,0.425,1.087c0.106,0.191,0.232,0.378,0.405,0.514l0.013,0.01l0.013,0.01l0.013,0.01l0.014,0.009
			l0.033,0.021l0.034,0.019l0.034,0.017l0.035,0.016l0.035,0.014l0.035,0.012l0.036,0.01l0.036,0.008l0.037,0.007l0.037,0.005
			l0.038,0.003l0.038,0.001l0.039,0l0.039-0.002l0.04-0.004l0.04-0.006l0.041-0.007l0.041-0.009l0.042-0.011l0.042-0.012
			l0.042-0.014l0.043-0.016l0.043-0.017l0.044-0.019l0.044-0.021l0.044-0.022l0.045-0.024l0.045-0.026l0.046-0.027l0.046-0.029
			l0.046-0.03l0.047-0.032l0.047-0.034c0.754-0.568,1.327-1.347,1.866-2.111c1.274-1.868,2.318-3.926,3.282-5.968
			c2.222-4.789,4.059-9.886,5.559-14.946c1.816-6.088,3.042-12.441,3.655-18.763c0.342,0.32,2.961,2.624,3.376,2.992
			c1.678,1.504,3.249,3.172,4.562,5.006c2.199,3.044,4.145,7.129,6.177,10.29c0.427,0.651,0.879,1.309,1.41,1.88
			c0.25,0.262,0.521,0.517,0.845,0.684l0.026,0.013l0.026,0.012l0.025,0.011l0.025,0.011l0.025,0.01l0.025,0.009l0.025,0.009
			l0.025,0.008l0.025,0.007l0.025,0.007l0.025,0.006l0.024,0.005l0.024,0.005l0.024,0.004l0.024,0.003l0.024,0.003l0.024,0.002
			l0.024,0.001l0.024,0.001l0.023,0l0.023-0.001l0.023-0.001l0.023-0.002l0.023-0.003l0.023-0.004l0.023-0.004l0.023-0.005
			l0.014-0.004l0.014-0.004l0.014-0.004l0.014-0.004l0.014-0.005l0.014-0.005l0.014-0.005l0.014-0.005l0.014-0.006
			c0.398-0.182,0.661-0.602,0.883-0.963c0.547-0.927,0.949-2.012,1.594-2.878c0.19-0.249,0.409-0.485,0.682-0.644l0.024-0.014
			l0.024-0.013l0.024-0.013l0.024-0.012l0.025-0.012l0.025-0.011l0.025-0.011l0.025-0.01l0.025-0.01l0.025-0.009l0.025-0.009
			l0.025-0.008l0.026-0.008l0.026-0.007l0.026-0.007l0.026-0.006l0.026-0.006l0.026-0.006l0.026-0.005l0.027-0.005l0.027-0.004
			c4.339-0.565,13.341,16.259,17.849,16.079l0.031-0.002l0.03-0.002l0.03-0.003l0.03-0.003l0.03-0.004l0.03-0.004l0.03-0.005
			l0.029-0.006l0.029-0.006l0.029-0.007l0.029-0.007l0.029-0.008l0.029-0.008l0.029-0.009l0.028-0.009l0.028-0.01l0.028-0.011
			l0.028-0.011l0.028-0.012l0.028-0.012l0.027-0.013l0.027-0.014l0.027-0.014l0.027-0.015l0.027-0.015l0.027-0.016l0.026-0.017
			l0.026-0.017l0.026-0.018l0.026-0.018l0.026-0.019c0.35-0.265,0.6-0.64,0.811-1.02c0.887-1.703,1.252-3.786,1.726-5.637
			c0.12-0.432,0.225-0.935,0.451-1.323l0.008-0.012l0.008-0.011l0.008-0.011l0.008-0.01l0.008-0.01l0.008-0.009l0.007-0.008
			l0.007-0.008l0.007-0.007l0.007-0.007l0.007-0.007l0.007-0.006l0.007-0.006l0.007-0.005l0.007-0.005l0.007-0.005l0.007-0.004
			l0.007-0.004l0.007-0.004l0.007-0.003l0.007-0.003l0.007-0.002l0.007-0.002l0.007-0.002l0.007-0.001l0.007-0.001l0.007-0.001
			l0.007,0l0.007,0l0.007,0l0.007,0.001l0.007,0.001l0.007,0.001l0.007,0.002l0.007,0.002l0.007,0.002l0.007,0.003l0.007,0.003
			l0.007,0.003l0.008,0.004l0.008,0.004l0.008,0.004l0.008,0.005l0.008,0.005l0.008,0.005l0.008,0.006l0.008,0.006l0.008,0.006
			l0.008,0.007l0.008,0.007l0.008,0.007l0.008,0.008c0.087,0.089,0.152,0.199,0.213,0.306c0.306,0.55,0.937,2.223,1.193,2.823
			c1.241,3.073,3.063,5.889,5.432,8.213c1.302,1.256,2.781,2.466,4.521,3.04c0.813,0.259,1.74,0.332,2.523-0.059
			c0.462-0.228,0.843-0.593,1.166-0.989c0.56-0.695,0.974-1.506,1.354-2.31l0.802-1.773c0.154-0.326,0.317-0.666,0.512-0.969
			c0.099-0.151,0.209-0.302,0.349-0.418l0.012-0.01l0.012-0.01l0.013-0.009l0.012-0.009l0.013-0.009l0.013-0.008l0.013-0.008
			l0.013-0.007l0.013-0.007l0.013-0.007l0.013-0.006l0.013-0.006l0.014-0.006l0.014-0.006l0.014-0.005l0.014-0.005l0.014-0.004
			l0.014-0.004l0.014-0.003l0.014-0.003l0.014-0.002l0.014-0.002l0.014-0.001l0.014-0.001l0.014,0l0.014,0l0.014,0.001l0.014,0.001
			l0.014,0.002l0.014,0.002l0.014,0.003l0.014,0.003l0.014,0.004l0.014,0.004l0.015,0.004l0.015,0.005l0.015,0.005l0.015,0.006
			l0.015,0.006l0.015,0.007l0.015,0.007l0.015,0.008l0.015,0.008l0.015,0.008l0.015,0.009l0.015,0.009l0.015,0.01l0.015,0.01
			l0.015,0.01c0.22,0.163,0.385,0.389,0.536,0.614c0.888,1.413,1.839,3.918,2.546,5.453c0.902,2.014,1.959,4.002,3.268,5.782
			c0.694,0.94,1.456,1.85,2.349,2.607c0.464,0.385,0.971,0.743,1.546,0.937c0.328,0.109,0.69,0.154,1.025,0.054l0.022-0.007
			l0.022-0.007l0.022-0.008l0.022-0.008c0.311-0.116,0.566-0.346,0.768-0.605c0.332-0.429,0.553-0.936,0.739-1.442
			c0.984-2.841,1.444-7.736,1.949-10.735c0.269-1.693,0.581-3.528,0.976-5.195c0.205-0.84,0.434-1.708,0.766-2.507
			c0.171-0.392,0.357-0.798,0.671-1.097l0.016-0.014l0.016-0.014l0.016-0.013l0.016-0.013l0.016-0.012l0.016-0.012l0.016-0.011
			l0.016-0.011l0.016-0.01l0.016-0.01l0.016-0.009l0.016-0.009l0.016-0.008l0.016-0.008l0.016-0.007l0.016-0.007l0.016-0.006
			l0.016-0.005l0.016-0.005l0.016-0.004l0.016-0.004l0.017-0.003l0.017-0.003l0.017-0.002l0.017-0.002l0.017-0.001l0.017-0.001
			l0.017,0l0.017,0l0.017,0.001l0.017,0.001l0.017,0.002l0.017,0.003l0.022,0.004l0.022,0.005l0.022,0.006l0.022,0.007l0.022,0.008
			l0.022,0.009l0.022,0.009l0.022,0.01l0.022,0.011l0.022,0.012l0.022,0.013l0.022,0.014l0.022,0.014l0.022,0.015l0.022,0.016
			l0.022,0.017l0.022,0.018l0.023,0.019l0.023,0.019l0.023,0.02c0.315,0.296,0.542,0.675,0.752,1.049
			c1.022,1.944,1.686,4.139,2.367,6.222c0.876,2.863,2.549,8.601,3.473,11.366c0.316,0.926,0.667,1.912,1.065,2.803
			c0.259,0.57,0.541,1.145,0.925,1.644c0.19,0.24,0.411,0.474,0.698,0.595l0.016,0.006l0.016,0.006l0.016,0.006l0.016,0.005
			l0.016,0.005l0.016,0.005l0.016,0.004l0.016,0.004l0.016,0.004l0.016,0.003l0.016,0.003l0.016,0.003l0.016,0.002l0.016,0.002
			l0.016,0.002l0.016,0.001l0.016,0.001l0.016,0.001l0.016,0l0.016,0l0.016,0l0.016-0.001l0.016-0.001l0.016-0.001l0.016-0.002
			l0.016-0.002l0.016-0.002l0.016-0.003l0.016-0.003l0.016-0.003l0.016-0.004l0.016-0.004l0.016-0.004l0.016-0.005l0.016-0.005
			l0.016-0.005l0.016-0.006l0.016-0.006l0.016-0.007l0.016-0.007l0.016-0.007l0.016-0.008l0.016-0.008
			c0.225-0.116,0.405-0.304,0.566-0.496c0.365-0.448,0.653-0.97,0.925-1.479c0.753-1.403,1.43-3.175,2.314-4.501
			c0.158-0.222,0.33-0.444,0.556-0.601l0.015-0.01l0.015-0.01c0.006-0.004,0.021-0.012,0.027-0.016l0.013-0.008l0.013-0.007
			l0.013-0.007l0.013-0.007l0.013-0.006l0.013-0.006l0.013-0.006l0.013-0.005l0.013-0.005l0.013-0.005l0.013-0.004l0.013-0.004
			l0.013-0.004l0.013-0.003l0.013-0.003l0.013-0.003l0.013-0.003l0.013-0.002l0.013-0.002l0.013-0.002l0.013-0.001l0.013-0.001
			l0.013-0.001l0.013,0l0.013,0l0.013,0l0.013,0.001l0.013,0.001l0.013,0.001l0.013,0.001l0.013,0.002l0.013,0.002l0.013,0.002
			l0.013,0.003l0.013,0.003l0.013,0.003l0.013,0.003l0.013,0.004l0.013,0.004l0.013,0.004l0.013,0.005l0.013,0.005l0.013,0.005
			c0.17,0.068,0.314,0.187,0.444,0.314c0.154,0.152,0.298,0.329,0.428,0.503c0.542,0.74,1.118,1.689,1.644,2.442
			c1.034,1.522,2.296,2.894,3.711,4.069c1.896,1.572,4.02,2.932,6.349,3.76c1.053,0.357,2.18,0.622,3.296,0.485
			c0.545-0.07,1.086-0.262,1.513-0.614c0.898-0.75,1.302-1.933,1.635-3.019c0.245-0.796,0.502-2.021,0.829-2.782
			c0.077-0.174,0.165-0.347,0.285-0.496c0.117-0.147,0.278-0.264,0.465-0.3c0.211-0.043,0.429,0.006,0.626,0.082
			c0.468,0.188,0.874,0.506,1.264,0.82c2.505,2.171,5.053,4.879,7.811,6.728c0.859,0.574,1.769,1.111,2.761,1.417
			c0.544,0.164,1.126,0.251,1.689,0.146c0.923-0.165,1.664-0.82,2.228-1.537c0.926-1.188,1.573-2.602,2.204-3.962
			c1.58-3.573,3.434-8.024,5.24-11.449c0.497-0.93,1.037-1.894,1.644-2.755c0.383-0.524,0.792-1.08,1.353-1.425l0.025-0.014
			l0.025-0.013l0.025-0.013l0.024-0.012l0.024-0.011l0.024-0.011l0.024-0.01l0.024-0.009l0.024-0.009l0.024-0.008l0.024-0.007
			l0.023-0.007l0.023-0.006l0.023-0.005l0.023-0.004l0.023-0.004l0.023-0.003l0.023-0.002l0.022-0.002l0.022-0.001l0.022,0
			l0.022,0.001l0.022,0.001l0.022,0.002l0.022,0.003l0.021,0.004l0.021,0.004l0.02,0.005l0.02,0.005l0.019,0.006l0.019,0.007
			l0.019,0.007l0.019,0.008l0.019,0.009l0.019,0.009l0.019,0.01l0.019,0.01l0.018,0.011l0.018,0.012l0.018,0.012l0.018,0.013
			l0.018,0.014l0.018,0.014l0.018,0.015l0.018,0.015l0.017,0.016l0.017,0.017l0.017,0.017l0.017,0.018l0.017,0.018l0.017,0.019
			c0.206,0.238,0.344,0.528,0.464,0.816c0.341,0.853,0.542,1.789,0.738,2.685c0.624,2.995,1.163,6.68,2.318,9.5
			c0.647,1.586,1.569,3.061,2.597,4.427c0.833,1.11,1.968,2.44,2.584,3.668c1.173,2.337,1.864,4.928,2.487,7.459
			c1.27,5.159,2.587,14.122,3.572,19.414c0.232,1.191,0.509,2.552,0.827,3.721c0.142,0.515,0.301,1.051,0.508,1.544
			c0.095,0.22,0.201,0.445,0.346,0.638l0.015,0.019l0.015,0.019l0.015,0.018l0.015,0.017l0.015,0.016l0.015,0.016l0.015,0.015
			l0.015,0.014l0.015,0.013l0.015,0.013l0.015,0.012l0.015,0.011l0.015,0.01l0.015,0.01l0.015,0.009l0.015,0.008l0.015,0.007
			l0.015,0.006l0.015,0.006l0.015,0.005l0.015,0.004l0.015,0.003l0.015,0.002l0.015,0.002l0.015,0.001l0.015,0l0.015-0.001
			l0.015-0.002l0.015-0.003l0.015-0.003l0.015-0.004l0.006-0.002l0.006-0.002l0.006-0.002l0.006-0.002l0.006-0.002
			c0.073-0.031,0.135-0.083,0.19-0.139c0.258-0.272,0.46-0.672,0.658-0.99c0.105-0.168,0.214-0.342,0.348-0.488
			c0.065-0.069,0.138-0.136,0.227-0.172l0.006-0.002l0.006-0.002l0.006-0.002l0.006-0.002l0.006-0.002l0.014-0.004l0.014-0.003
			l0.014-0.002l0.014-0.002l0.014-0.001l0.014,0l0.014,0l0.014,0.001l0.014,0.002l0.014,0.003l0.014,0.003l0.014,0.004l0.014,0.005
			l0.014,0.005l0.014,0.006l0.014,0.007l0.014,0.007l0.014,0.008l0.014,0.009l0.014,0.009l0.014,0.01l0.014,0.01l0.014,0.011
			l0.014,0.012l0.014,0.012l0.014,0.013l0.014,0.014l0.014,0.014l0.014,0.015l0.014,0.016l0.014,0.016
			c0.176,0.211,0.297,0.468,0.408,0.718c0.546,1.321,0.873,2.813,1.211,4.203c0.558,2.473,1.674,7.715,2.335,10.062
			c0.702,2.647,2.282,7.562,2.997,10.211c0.899,3.155,1.541,7.087,2.092,10.344c0.292,1.592,0.595,3.277,1.099,4.814
			c0.18,0.531,0.387,1.067,0.684,1.545c0.158,0.252,0.346,0.493,0.586,0.671c0.447,0.341,1.048,0.339,1.585,0.355
			c0.246,0.012,0.504,0.029,0.727,0.144c0.177,0.09,0.315,0.241,0.422,0.406c0.094,0.145,0.169,0.304,0.233,0.465
			c0.242,0.609,0.454,1.589,0.625,2.224c0.976,3.723,3.517,8.515,5.126,12.034c0.913,1.843,1.904,3.7,3.205,5.301
			c0.789,0.966,1.729,1.845,2.864,2.386c1.042,0.506,2.21,0.677,3.357,0.721c0.271,0.004,0.676,0.025,0.949,0.021
			c0,0,57.417,0,57.417,0c0.378-0.015,1.013-0.003,1.395-0.026c0.593-0.025,1.219-0.059,1.808-0.146
			c0.952-0.137,1.942-0.412,2.652-1.094c0.496-0.474,0.815-1.104,1.014-1.754c0.341-1.126,0.393-2.325,0.377-3.495
			c-0.083-2.924-0.575-5.877-1.241-8.721c-0.395-1.619-0.872-3.249-1.525-4.784c-0.474-1.104-1.066-2.178-1.871-3.076
			c-0.972-1.104-2.277-1.862-3.651-2.356c-1.62-0.587-3.365-0.932-5.06-1.232c-4.021-0.693-9.128-1.167-13.107-2.041
			c-0.838-0.186-1.722-0.397-2.537-0.668c-0.429-0.146-0.854-0.329-1.226-0.591c-1-0.698-1.461-1.899-1.791-3.027
			c-0.814-3.042-1.076-6.256-1.263-9.391c-0.183-3.584-0.08-7.257,0.376-10.817c0.24-1.781,0.523-3.629,1.045-5.352
			c0.166-0.498,0.348-1.05,0.719-1.419c0.2-0.199,0.493-0.286,0.686-0.493c0.144-0.149,0.247-0.331,0.34-0.515
			c0.357-0.742,0.571-1.554,0.767-2.351c1.062-4.627,1.327-11.402,2.167-16.074c0.161-0.844,0.373-1.695,0.766-2.464
			c1.264-2.277,2.279-4.869,3.241-7.289c0.759-1.939,1.55-4.167,2.177-6.153c0.581-1.83,1.812-6.321,2.319-8.131
			c0.728-2.479,1.637-4.96,2.709-7.311c0.677-1.468,1.43-2.947,2.34-4.285c0.406-0.589,0.85-1.169,1.376-1.656
			c0.303-0.276,0.639-0.531,1.028-0.671l0.03-0.01l0.03-0.01l0.03-0.009l0.03-0.008l0.03-0.008l0.03-0.007l0.03-0.006l0.029-0.006
			l0.029-0.005l0.029-0.004l0.029-0.004l0.029-0.003l0.029-0.003l0.029-0.002l0.029-0.001l0.029-0.001l0.029,0l0.029,0.001
			l0.028,0.001l0.028,0.002l0.028,0.003l0.028,0.004l0.028,0.004l0.028,0.005l0.028,0.006l0.028,0.006l0.028,0.007l0.028,0.008
			l0.027,0.009c0.361,0.12,0.645,0.393,0.885,0.679c0.918,1.153,1.471,2.74,2.16,4.034c0.187,0.346,0.382,0.702,0.653,0.991
			c0.12,0.125,0.264,0.237,0.433,0.284c0.263,0.076,0.532-0.046,0.737-0.207c0.422-0.336,0.729-0.797,1.026-1.241
			c2.257-3.686,4.44-8.503,6.75-12.154c0.709-1.119,1.463-2.258,2.369-3.229c0.391-0.408,0.818-0.808,1.334-1.052l0.036-0.016
			l0.036-0.015l0.035-0.014l0.035-0.013l0.035-0.013l0.035-0.012l0.035-0.011l0.035-0.01l0.034-0.009l0.034-0.008l0.034-0.007
			l0.034-0.006l0.034-0.005c0.617-0.095,1.166,0.295,1.616,0.67l0.582,0.498c0.317,0.258,0.662,0.535,1.08,0.589l0.018,0.002
			l0.018,0.002l0.018,0.001l0.018,0.001l0.018,0.001c0.26,0.007,0.512-0.083,0.735-0.21c0.335-0.192,0.621-0.46,0.883-0.741
			c0.743-0.817,1.33-1.782,1.886-2.733c1.034-1.824,2.093-3.914,3.007-5.802c1.412-2.937,2.591-6.084,3.502-9.212
			c1.319-4.417,2.737-11.621,4.057-16.038c0.237-0.764,0.5-1.579,0.839-2.304c0.134-0.279,0.282-0.565,0.483-0.803l0.019-0.022
			l0.019-0.021l0.019-0.02l0.019-0.019l0.019-0.018l0.019-0.018l0.019-0.017l0.019-0.016l0.019-0.015l0.019-0.014l0.019-0.013
			l0.019-0.012l0.019-0.011l0.019-0.011l0.019-0.01l0.019-0.009l0.019-0.008l0.019-0.007l0.019-0.006l0.019-0.005l0.019-0.004
			l0.019-0.003l0.019-0.002l0.018-0.001l0.018,0l0.018,0.001l0.018,0.002l0.018,0.003l0.018,0.003l0.009,0.002l0.009,0.002
			l0.009,0.002l0.009,0.003l0.009,0.003l0.009,0.003l0.009,0.003l0.009,0.003l0.009,0.004l0.009,0.004l0.009,0.004l0.009,0.004
			l0.009,0.004l0.009,0.005c0.276,0.164,0.468,0.51,0.628,0.781c0.36,0.632,0.698,1.446,1.125,2.036
			c0.109,0.147,0.231,0.291,0.383,0.396l0.017,0.011l0.017,0.011l0.017,0.01l0.017,0.01l0.017,0.009l0.017,0.009l0.017,0.008
			l0.017,0.008l0.017,0.007l0.017,0.007l0.017,0.006l0.017,0.006l0.017,0.005l0.017,0.005l0.017,0.004l0.017,0.004l0.018,0.003
			l0.018,0.003l0.018,0.002l0.018,0.002l0.018,0.001l0.018,0.001l0.018,0l0.018,0l0.018-0.001l0.018-0.001l0.018-0.002l0.018-0.002
			l0.018-0.003l0.018-0.003l0.018-0.004l0.018-0.004l0.018-0.005l0.018-0.005l0.018-0.006l0.018-0.006l0.018-0.007l0.018-0.007
			l0.018-0.008l0.018-0.008l0.018-0.008l0.018-0.009l0.019-0.009l0.019-0.01l0.019-0.01c0.409-0.245,0.693-0.65,0.952-1.041
			c0.407-0.638,0.737-1.338,1.04-2.03c0.665-1.539,1.244-3.256,1.757-4.855c1.713-5.365,4.034-15.127,5.758-20.486
			c0.373-1.146,0.797-2.382,1.275-3.487c0.367-0.816,0.762-1.7,1.389-2.349l0.03-0.029l0.03-0.028l0.03-0.027l0.03-0.026l0.03-0.025
			l0.03-0.024l0.03-0.023l0.03-0.021l0.03-0.02l0.03-0.019l0.03-0.018l0.03-0.017l0.03-0.016l0.03-0.014l0.03-0.013l0.03-0.012
			l0.03-0.011l0.03-0.01l0.03-0.009c0.419-0.11,0.819,0.14,1.153,0.366l0.42,0.295c0.308,0.212,0.675,0.435,1.063,0.338
			c0.304-0.072,0.552-0.284,0.758-0.51c0.517-0.593,0.854-1.324,1.167-2.039c0.834-1.993,1.427-4.192,1.999-6.277
			c1.182-4.309,2.639-10.917,4.324-15.001c0.348-0.787,0.732-1.654,1.348-2.265l0.028-0.026l0.028-0.025l0.028-0.024l0.028-0.023
			l0.028-0.022l0.028-0.021l0.028-0.02l0.028-0.019l0.028-0.018l0.028-0.017l0.028-0.016c0.451-0.262,0.959-0.104,1.43,0.004
			c0.277,0.061,0.578,0.098,0.847-0.012l0.021-0.009l0.021-0.009l0.021-0.01l0.021-0.01l0.021-0.011l0.021-0.012l0.021-0.012
			l0.021-0.013l0.021-0.013l0.021-0.014l0.021-0.014l0.021-0.015c0.544-0.414,0.887-1.125,1.167-1.736
			c0.476-1.087,0.82-2.261,1.127-3.406c0.516-1.968,0.941-4.13,1.299-6.135c0.521-2.864,1.232-8.819,2.119-11.517
			c0.162-0.475,0.351-0.951,0.625-1.373c0.156-0.237,0.345-0.461,0.587-0.613l0.02-0.012l0.02-0.012l0.02-0.011l0.02-0.011
			l0.02-0.01l0.02-0.01l0.02-0.009l0.02-0.009l0.02-0.009l0.02-0.008l0.021-0.008l0.021-0.007l0.021-0.007l0.021-0.007l0.021-0.006
			c0.604-0.157,1.286,0.169,1.857,0.348c0.46,0.148,0.971,0.305,1.447,0.14l0.024-0.009l0.023-0.009l0.023-0.01l0.023-0.01
			l0.023-0.011l0.023-0.011l0.023-0.012l0.023-0.013l0.023-0.013l0.023-0.014l0.022-0.014l0.022-0.015l0.022-0.015l0.022-0.016
			l0.022-0.016c0.35-0.268,0.585-0.656,0.779-1.045c0.391-0.811,0.624-1.699,0.824-2.574c0.213-0.956,0.382-1.997,0.521-2.967
			c0.566-4.191,1.199-11.767,1.619-16.036l0.219-2.962c1.74-1.025,3.606-2.061,4.951-3.596l0.882-1.014
			c0.133-0.141,0.274-0.312,0.45-0.399l0.005-0.002l0.005-0.002l0.005-0.002l0.005-0.002l0.005-0.002l0.005-0.001l0.005-0.001
			l0.005-0.001l0.005-0.001l0.005-0.001l0.005-0.001l0.005-0.001l0.004-0.001l0.004,0l0.004,0l0.004,0l0.004,0l0.004,0l0.004,0
			l0.004,0l0.004,0.001l0.004,0.001l0.004,0.001l0.004,0.001l0.004,0.001l0.004,0.001l0.004,0.001l0.004,0.002l0.004,0.002
			l0.004,0.002l0.004,0.002l0.003,0.002l0.003,0.002l0.003,0.002l0.003,0.003l0.003,0.003l0.003,0.003l0.003,0.003l0.003,0.003
			l0.003,0.003l0.003,0.003l0.003,0.004l0.003,0.004l0.003,0.004l0.003,0.004l0.003,0.004l0.003,0.004l0.003,0.005l0.003,0.005
			l0.003,0.005l0.003,0.005l0.003,0.005l0.003,0.008l0.003,0.008l0.003,0.008l0.003,0.009l0.003,0.009l0.003,0.009l0.003,0.01
			c0.042,0.158,0.043,0.326,0.047,0.489c-0.013,1.363-0.215,2.865-0.052,4.221c0.061,0.439,0.145,0.907,0.428,1.262l0.012,0.014
			l0.012,0.013l0.012,0.013l0.012,0.013l0.016,0.016l0.017,0.016l0.017,0.015l0.017,0.015l0.017,0.014l0.018,0.014l0.018,0.013
			l0.018,0.013l0.019,0.012l0.019,0.012l0.019,0.011l0.019,0.011l0.02,0.01l0.02,0.01l0.02,0.009l0.021,0.009l0.021,0.008
			l0.021,0.008l0.021,0.007l0.022,0.007l0.022,0.007l0.022,0.006l0.022,0.006l0.023,0.005l0.023,0.005l0.023,0.004l0.023,0.004
			l0.024,0.003l0.024,0.003l0.024,0.002l0.024,0.002l0.025,0.001l0.025,0.001l0.025,0.001c0.512-0.001,0.997-0.217,1.443-0.45
			c1.081-0.592,2.03-1.411,2.917-2.26c1.48-1.448,2.823-3.069,3.856-4.867c0.519-0.874,0.976-1.952,1.473-2.838
			c0.059-0.093,0.12-0.19,0.203-0.264l0.006-0.005l0.006-0.005l0.005-0.004l0.006-0.004l0.005-0.004l0.005-0.004l0.005-0.004
			l0.005-0.003l0.005-0.003l0.005-0.003l0.005-0.003l0.005-0.002l0.005-0.002l0.005-0.002l0.005-0.002l0.005-0.002l0.005-0.001
			l0.005-0.001l0.005-0.001l0.005-0.001l0.005-0.001l0.005,0l0.005,0l0.005,0l0.005,0l0.005,0.001l0.005,0.001l0.005,0.001
			l0.005,0.001l0.005,0.001l0.005,0.002l0.005,0.002l0.005,0.002l0.005,0.002l0.005,0.003l0.005,0.003l0.005,0.003l0.005,0.003
			l0.005,0.004l0.005,0.004l0.005,0.004l0.005,0.004l0.005,0.004l0.005,0.005l0.005,0.005l0.005,0.005l0.005,0.005l0.005,0.006
			l0.005,0.006l0.005,0.006l0.005,0.006l0.004,0.007c0.061,0.094,0.098,0.202,0.133,0.308c0.265,0.903,0.404,1.979,0.668,2.882
			c0.108,0.351,0.243,0.821,0.51,1.081l0.008,0.008l0.008,0.007l0.008,0.007l0.009,0.007l0.009,0.007l0.009,0.006l0.009,0.006
			l0.009,0.006l0.009,0.006l0.009,0.005l0.009,0.005l0.009,0.005l0.009,0.005l0.009,0.004l0.009,0.004l0.009,0.004l0.009,0.004
			l0.009,0.003l0.009,0.003l0.009,0.003l0.009,0.003l0.009,0.003l0.009,0.002l0.009,0.002l0.009,0.002l0.009,0.002l0.01,0.001
			l0.01,0.001l0.01,0.001l0.01,0.001l0.01,0.001l0.01,0l0.01,0l0.01,0l0.01,0l0.01-0.001l0.01-0.001l0.01-0.001l0.01-0.001
			l0.01-0.001l0.01-0.002l0.01-0.002l0.01-0.002l0.01-0.002l0.01-0.002c0.226-0.06,0.41-0.219,0.578-0.374
			c0.229-0.218,0.441-0.474,0.638-0.722c0.874-1.14,1.859-2.587,2.78-3.687c1.933-2.373,4.471-5.085,5.834-7.823
			c0.636-1.229,0.985-2.66,1.325-3.998c0.081-0.272,0.172-0.666,0.348-0.887l0.005-0.006l0.005-0.005l0.005-0.005l0.005-0.005
			l0.005-0.005l0.005-0.005l0.005-0.004l0.005-0.004l0.005-0.004l0.005-0.004l0.005-0.004l0.005-0.004l0.005-0.003l0.005-0.003
			l0.005-0.003l0.005-0.003l0.005-0.003l0.005-0.002l0.005-0.002l0.005-0.002l0.005-0.002l0.005-0.001l0.005-0.001l0.006-0.001
			l0.006-0.001l0.006-0.001l0.006,0l0.006,0l0.006,0l0.006,0l0.006,0l0.006,0.001l0.006,0.001l0.006,0.001l0.006,0.001l0.006,0.001
			l0.006,0.002l0.006,0.002l0.006,0.002l0.006,0.002l0.006,0.003l0.006,0.003l0.006,0.003l0.006,0.003l0.006,0.004l0.006,0.003
			l0.006,0.004l0.006,0.004l0.006,0.004l0.006,0.004c0.085,0.064,0.15,0.15,0.212,0.235c0.424,0.624,0.759,1.379,1.234,1.966
			c0.201,0.242,0.439,0.497,0.759,0.566l0.011,0.002l0.011,0.002l0.011,0.002l0.011,0.001l0.011,0.001l0.011,0.001l0.026,0.002
			l0.026,0l0.026-0.001l0.026-0.002l0.026-0.003l0.026-0.004l0.026-0.005l0.026-0.006l0.026-0.007l0.027-0.008l0.027-0.009
			l0.027-0.01l0.027-0.011l0.027-0.012l0.027-0.013l0.027-0.014l0.027-0.015l0.027-0.016l0.027-0.017l0.027-0.018l0.027-0.019
			l0.027-0.02l0.027-0.021l0.027-0.022l0.027-0.023l0.027-0.024c0.58-0.542,0.955-1.297,1.306-2
			c2.124-4.565,3.737-11.517,5.345-16.318c0.187-0.528,0.385-1.071,0.654-1.564c0.128-0.227,0.272-0.457,0.482-0.617
			c0.127-0.097,0.29-0.153,0.45-0.125c0.279,0.051,0.507,0.264,0.716,0.443c0.322,0.284,0.704,0.681,1.076,0.893
			c0.16,0.093,0.336,0.165,0.521,0.182c0.338,0.031,0.661-0.126,0.921-0.33c0.486-0.389,0.833-0.925,1.13-1.465
			c0.556-1.04,0.923-2.18,1.201-3.324c0.361-1.513,0.541-3.094,0.653-4.644c0.284-3.711,0.089-9.898,0.081-13.673
			c0.015-2.299,0.059-4.686,0.453-6.952c0.354-2.243,1.313-4.944,2.012-7.117c0.873-0.462,1.524-1.248,2.09-2.04
			c1.251-1.817,2.117-3.888,2.751-5.994c0.362-1.247,0.646-2.537,0.724-3.835c0.05-0.874-0.015-1.772-0.326-2.597
			c-0.455-1.26-1.477-2.139-2.487-2.96C640.085,227.28,638.678,226.331,637.065,225.946z"/>
	</g>
</g>
</svg>
