<?xml version="1.0" encoding="utf-8"?>
<!-- Generator: Adobe Illustrator 25.4.1, SVG Export Plug-In . SVG Version: 6.00 Build 0)  -->
<!DOCTYPE svg PUBLIC "-//W3C//DTD SVG 1.1//EN" "http://www.w3.org/Graphics/SVG/1.1/DTD/svg11.dtd" [
	<!ENTITY ns_extend "http://ns.adobe.com/Extensibility/1.0/">
	<!ENTITY ns_ai "http://ns.adobe.com/AdobeIllustrator/10.0/">
	<!ENTITY ns_graphs "http://ns.adobe.com/Graphs/1.0/">
	<!ENTITY ns_vars "http://ns.adobe.com/Variables/1.0/">
	<!ENTITY ns_imrep "http://ns.adobe.com/ImageReplacement/1.0/">
	<!ENTITY ns_sfw "http://ns.adobe.com/SaveForWeb/1.0/">
	<!ENTITY ns_custom "http://ns.adobe.com/GenericCustomNamespace/1.0/">
	<!ENTITY ns_adobe_xpath "http://ns.adobe.com/XPath/1.0/">
]>
<svg version="1.1" xmlns:x="&ns_extend;" xmlns:i="&ns_ai;" xmlns:graph="&ns_graphs;"
	 xmlns="http://www.w3.org/2000/svg" xmlns:xlink="http://www.w3.org/1999/xlink" x="0px" y="0px" width="750px" height="750px"
	 viewBox="0 0 750 750" enable-background="new 0 0 750 750" xml:space="preserve">
<metadata>
	<sfw  xmlns="&ns_sfw;">
		<slices></slices>
		<sliceSourceBounds  bottomLeftOrigin="true" height="11503.791" width="5634" x="-2000" y="-2364"></sliceSourceBounds>
	</sfw>
</metadata>
<g id="FILL-BACKGROUND">
	<rect fill="#FFFFFF" width="750" height="750"/>
</g>
<g id="N-DIMENSIONS">
</g>
<g id="N-TEXT">
</g>
<g id="_x32_D_x24_AG-DIAGRAM">
	<g id="POLYLINE_00000162348559722214054820000008229060742311555244_">
		<g>
			<g>
				
					<line fill="none" stroke="#FB8604" stroke-width="3.25" stroke-linecap="round" stroke-linejoin="round" x1="142.366" y1="612.635" x2="144.366" y2="612.635"/>
				
					<line fill="none" stroke="#FB8604" stroke-width="3.25" stroke-linecap="round" stroke-linejoin="round" stroke-dasharray="3.9967,6.9941" x1="151.361" y1="612.635" x2="521.551" y2="612.635"/>
				
					<line fill="none" stroke="#FB8604" stroke-width="3.25" stroke-linecap="round" stroke-linejoin="round" x1="525.048" y1="612.635" x2="527.048" y2="612.635"/>
			</g>
		</g>
	</g>
</g>
<g id="_x32_D_x24_AG-DETAILS-DIAGRAM">
</g>
<g id="_x32_D_x24_AG-DETAILS">
</g>
<g id="_x32_D_x24_AG-ANIMALS">
	<g id="POLYLINE_00000129900154962815222160000012435195120365132419_">
		
			<path fill="none" stroke="#FB8604" stroke-width="2.75" stroke-linecap="round" stroke-linejoin="round" stroke-miterlimit="10" d="
			M394.083,426.249c0.26,3.568,0.827,7.998,0.786,11.556c0.005,3.476-0.38,7.101-0.818,10.553
			c-0.966,7.642-3.315,20.58-3.422,28.139c0.019,1.084,0.035,2.209,0.387,3.245l0.02,0.053l0.021,0.052l0.021,0.05
			c0.104,0.24,0.249,0.466,0.439,0.647c0.185,0.179,0.41,0.313,0.639,0.428c0.425,0.205,0.893,0.413,1.23,0.746
			c0.328,0.315,0.555,0.72,0.743,1.131c0.511,1.16,0.765,2.431,0.98,3.675c0.7,4.448,0.757,9.116,0.739,13.614
			c0.001,4.827-0.517,11.188-0.826,16.038c-0.045,0.989-0.084,2.028-0.012,3.017c0.053,0.569,0.112,1.197,0.417,1.688l0.012,0.018
			l0.012,0.018l0.013,0.017l0.013,0.017l0.013,0.016l0.013,0.016l0.013,0.015l0.013,0.015l0.014,0.015l0.014,0.014l0.014,0.014
			l0.014,0.013l0.014,0.013l0.015,0.012l0.015,0.012l0.015,0.011l0.015,0.011l0.015,0.011l0.016,0.01l0.016,0.01l0.016,0.009
			l0.016,0.009l0.016,0.008l0.017,0.008l0.017,0.007l0.017,0.007l0.017,0.007c0.228,0.08,0.478,0.045,0.71,0
			c0.564-0.108,1.227-0.416,1.798-0.241l0.022,0.007l0.022,0.008l0.021,0.009l0.021,0.009l0.021,0.01l0.021,0.01l0.021,0.011
			l0.021,0.011l0.02,0.012l0.02,0.012l0.02,0.013l0.02,0.013l0.02,0.014l0.02,0.014l0.019,0.015l0.019,0.015l0.019,0.016
			l0.019,0.016l0.019,0.017l0.018,0.017l0.018,0.018l0.018,0.018l0.018,0.019c0.425,0.476,0.594,1.12,0.735,1.727
			c0.224,1.054,0.296,2.164,0.34,3.24c0.08,2.299-0.021,4.772-0.133,7.073c-0.333,6.73-1.624,19.436-1.206,26.01
			c0.084,0.876,0.158,1.791,0.517,2.603l0.018,0.036l0.018,0.035l0.018,0.034l0.019,0.033l0.019,0.032l0.019,0.031l0.02,0.029
			l0.02,0.028l0.02,0.027l0.02,0.026l0.021,0.025l0.021,0.024l0.021,0.023l0.022,0.021l0.022,0.02l0.022,0.019l0.023,0.018
			l0.023,0.017l0.023,0.015l0.024,0.014l0.024,0.013l0.024,0.012l0.025,0.01l0.025,0.009c0.127,0.043,0.265,0.036,0.394,0.007
			c0.355-0.083,0.731-0.319,1.056-0.483c0.318-0.157,0.671-0.335,1.036-0.27l0.019,0.004l0.019,0.005l0.019,0.005l0.019,0.006
			l0.019,0.006l0.019,0.007l0.019,0.007l0.019,0.008l0.018,0.008l0.018,0.009l0.018,0.009l0.018,0.01l0.018,0.01l0.018,0.011
			l0.018,0.011l0.018,0.012l0.018,0.012l0.018,0.013l0.018,0.013l0.017,0.014l0.017,0.014l0.017,0.014l0.017,0.015
			c0.396,0.37,0.602,0.895,0.783,1.395c0.43,1.281,0.633,2.652,0.812,3.988c0.415,3,0.443,6.74,0.776,9.754
			c0.094,0.664,0.206,1.346,0.501,1.955c0.137,0.273,0.326,0.534,0.596,0.687c0.287,0.168,0.636,0.174,0.954,0.107
			c1.131-0.258,2.486-1.163,3.515-1.694c0.581-0.303,1.182-0.61,1.821-0.765c0.292-0.067,0.603-0.102,0.896-0.024l0.02,0.005
			l0.019,0.006l0.019,0.006l0.019,0.006l0.019,0.007l0.019,0.007l0.017,0.007l0.017,0.007l0.017,0.008
			c0.255,0.115,0.452,0.328,0.603,0.558c0.308,0.479,0.478,1.038,0.639,1.58c0.296,0.993,0.537,2.26,1.095,3.139
			c0.154,0.238,0.348,0.455,0.589,0.608c0.682,0.431,1.535,0.393,2.31,0.355l1.373-0.099c0.914-0.054,1.863-0.049,2.73,0.278
			c1.032,0.394,1.849,1.191,2.531,2.038c1.92,2.449,3.119,5.594,4.553,8.335c1.001,1.997,2.496,3.844,3.874,5.589
			c0.135,0.176,0.402,0.535,0.532,0.715c2.603,2.704,5.358,5.53,8.314,7.838c1.555,1.203,3.23,2.307,5.063,3.036
			c2.559,1.042,5.375,1.2,8.107,1.234c1.966-0.051,33.448,0.141,34.544-0.098c0.743-0.086,1.495-0.245,2.159-0.601
			c0.588-0.312,1.079-0.788,1.442-1.343c0.615-0.937,0.912-2.047,1.064-3.148c0.232-1.741,0.113-3.523-0.12-5.258
			c-0.226-1.613-0.575-3.231-1.069-4.783c-0.353-1.087-0.777-2.174-1.379-3.148c-0.6-0.983-1.431-1.837-2.446-2.391
			c-1.83-0.996-3.975-1.19-6.014-1.396c-4.551-0.389-9.508-0.508-13.896-1.844c-0.98-0.316-1.963-0.703-2.795-1.321
			c-0.474-0.353-0.884-0.795-1.194-1.298c-0.39-0.629-0.635-1.341-0.821-2.055c-0.23-0.877-0.374-1.833-0.511-2.729
			c-0.408-2.895-0.797-6.2-1.047-9.114c-1.697-19.388,1.053-39.159,3.786-58.34c0.18-3.035,0.574-6.116,1.628-8.983
			c0.661-1.828,1.675-3.529,2.754-5.139c1.263-1.85,3.625-5.194,4.721-7.091c0.935-1.524,3.277-6.062,4.153-7.699
			c0.559-1.003,1.13-2.082,1.845-2.982c0.158-0.19,0.327-0.38,0.532-0.52l0.017-0.011l0.017-0.011l0.017-0.01L483,481.3l0.017-0.009
			l0.017-0.009l0.017-0.008l0.016-0.008l0.016-0.007l0.016-0.006l0.016-0.006l0.016-0.005l0.016-0.005l0.016-0.004l0.015-0.004
			l0.015-0.003l0.015-0.003l0.015-0.002l0.015-0.001l0.015-0.001l0.015,0l0.015,0l0.014,0.001l0.014,0.002
			c0.114,0.015,0.21,0.089,0.286,0.17c0.402,0.457,0.588,1.137,1.142,1.452l0.019,0.01l0.019,0.01l0.02,0.009l0.02,0.009l0.02,0.009
			l0.02,0.008l0.02,0.008l0.021,0.007l0.021,0.007l0.021,0.007l0.021,0.006l0.022,0.006l0.022,0.005l0.022,0.005l0.022,0.005
			l0.022,0.004l0.023,0.004l0.023,0.003l0.023,0.003l0.023,0.003c0.598,0.052,1.17-0.218,1.678-0.506
			c1.479-0.895,2.668-2.203,3.748-3.534c4.82-6.04,6.911-14.184,9.822-21.22c0.262-0.607,0.547-1.24,0.881-1.811
			c0.159-0.267,0.333-0.538,0.551-0.762l0.024-0.024l0.024-0.023l0.024-0.022l0.024-0.021l0.024-0.02l0.024-0.019l0.023-0.018
			l0.023-0.017l0.023-0.016l0.023-0.015l0.023-0.014l0.023-0.013l0.023-0.012l0.023-0.011l0.023-0.01l0.023-0.009l0.023-0.008
			l0.023-0.007l0.022-0.006l0.022-0.005l0.022-0.004l0.022-0.002l0.022-0.001l0.022,0l0.022,0.001l0.022,0.002l0.009,0.001
			l0.009,0.001l0.009,0.002l0.009,0.002l0.009,0.002l0.009,0.002l0.009,0.002l0.009,0.002l0.009,0.003l0.009,0.003l0.009,0.003
			l0.009,0.003l0.009,0.003c0.339,0.141,0.594,0.571,0.79,0.87c0.324,0.514,0.677,1.174,1.102,1.607
			c0.126,0.127,0.267,0.244,0.428,0.325l0.022,0.011l0.022,0.01l0.022,0.01l0.022,0.009l0.022,0.009l0.022,0.008l0.022,0.008
			l0.023,0.007l0.023,0.007l0.023,0.006l0.023,0.006l0.023,0.005l0.023,0.005l0.023,0.004l0.023,0.004l0.023,0.003l0.024,0.003
			l0.024,0.002l0.024,0.002l0.024,0.001l0.024,0.001l0.024,0l0.024,0l0.024-0.001l0.024-0.001l0.024-0.001l0.025-0.002l0.025-0.002
			l0.025-0.003l0.025-0.003c0.581-0.093,1.067-0.47,1.491-0.857c1.138-1.091,1.966-2.468,2.72-3.841
			c3.603-6.626,4.838-15.142,7.062-22.287c0.285-0.801,0.586-1.711,1.124-2.375l0.022-0.026l0.023-0.025l0.023-0.024l0.023-0.023
			l0.023-0.022l0.023-0.021l0.023-0.02l0.023-0.019l0.023-0.018l0.023-0.017l0.023-0.016l0.023-0.015l0.023-0.014l0.023-0.014
			l0.023-0.013l0.023-0.012l0.023-0.011l0.023-0.01l0.023-0.009l0.023-0.008l0.023-0.007l0.023-0.006l0.023-0.005l0.023-0.004
			l0.023-0.003c0.365-0.026,0.701,0.28,0.961,0.504c0.353,0.302,0.79,0.81,1.254,0.905l0.019,0.003l0.019,0.003l0.019,0.002
			l0.019,0.001l0.019,0.001l0.019,0l0.019,0l0.019-0.001l0.019-0.001l0.019-0.002l0.019-0.002l0.019-0.003l0.019-0.003l0.019-0.004
			l0.019-0.004l0.019-0.005l0.019-0.005l0.019-0.006l0.019-0.006l0.019-0.007l0.019-0.007l0.018-0.008l0.019-0.008l0.018-0.009
			l0.018-0.009l0.018-0.01l0.018-0.01l0.018-0.011l0.018-0.011l0.018-0.012l0.018-0.012l0.018-0.013
			c0.258-0.188,0.45-0.451,0.622-0.716c0.795-1.318,1.262-2.861,1.755-4.313c1.665-5.375,3.758-12.426,5.918-17.552
			c0.609-1.453,1.27-2.951,2.054-4.317c0.407-0.679,0.888-1.491,1.536-1.959l0.025-0.017l0.025-0.016l0.025-0.015l0.025-0.014
			l0.024-0.014l0.024-0.013l0.024-0.012l0.024-0.011l0.024-0.011l0.024-0.01l0.024-0.009l0.024-0.008l0.023-0.007l0.023-0.007
			l0.023-0.006l0.023-0.005l0.023-0.004c0.23-0.041,0.456,0.05,0.656,0.155c0.229,0.114,0.485,0.299,0.753,0.248l0.013-0.003
			l0.013-0.003l0.013-0.004l0.013-0.004l0.013-0.005l0.013-0.005l0.013-0.005l0.013-0.006l0.013-0.006l0.013-0.007l0.013-0.007
			l0.013-0.007l0.013-0.008l0.013-0.008l0.013-0.008l0.013-0.009l0.013-0.009l0.013-0.01l0.013-0.01
			c0.183-0.141,0.321-0.333,0.445-0.527c0.291-0.468,0.507-0.988,0.707-1.501c0.459-1.204,0.841-2.535,1.188-3.777
			c2.197-8.383,5.971-22.6,8.517-30.755"/>
	</g>
	<g id="POLYLINE_00000017501759800873988310000002319341532756342153_">
		
			<path fill="none" stroke="#FB8604" stroke-width="2.75" stroke-linecap="round" stroke-linejoin="round" stroke-miterlimit="10" d="
			M255.705,462.08c1.245,1.334,2.681,2.539,4.335,3.332c0.845,0.392,1.782,0.688,2.722,0.578c1.418-0.176,2.446-1.389,3.428-2.315
			c0.445-0.407,0.936-0.874,1.556-0.967c0.416-0.057,0.829,0.089,1.186,0.292c0.588,0.34,1.092,0.82,1.574,1.295
			c1.801,1.884,3.666,3.961,5.705,5.589c1.615,1.314,3.345,2.554,5.247,3.416c0.956,0.418,1.986,0.769,3.042,0.73
			c1.226-0.038,2.242-0.85,3.203-1.523c0.413-0.281,0.851-0.55,1.336-0.682c0.392-0.108,0.808-0.112,1.209-0.053
			c0.509,0.075,1.004,0.246,1.477,0.445c1.715,0.731,4.252,2.444,5.875,3.408c2.85,1.695,5.833,3.289,8.962,4.405
			c1.603,0.554,3.281,1.019,4.989,1.024c0.697-0.003,1.404-0.1,2.055-0.359c0.762-0.297,1.435-0.787,2.052-1.316l0.914-0.801
			c0.382-0.317,0.786-0.659,1.283-0.767c0.304-0.064,0.621-0.013,0.909,0.094c0.486,0.181,0.926,0.482,1.351,0.773
			c1.132,0.811,2.475,1.791,3.671,2.478c2.216,1.29,4.572,2.416,6.996,3.255c1.044,0.349,2.123,0.664,3.222,0.772
			c0.502,0.042,1.026,0.052,1.507-0.118l0.029-0.011l0.028-0.011l0.028-0.012l0.027-0.012l0.027-0.012l0.026-0.013l0.026-0.013
			l0.025-0.014l0.025-0.014l0.024-0.015l0.024-0.015l0.023-0.015l0.023-0.016l0.022-0.016l0.022-0.017l0.021-0.017l0.021-0.018
			l0.02-0.018l0.02-0.019l0.019-0.019l0.018-0.019l0.018-0.02l0.017-0.02l0.017-0.021c0.147-0.187,0.22-0.421,0.256-0.653
			c0.065-0.438,0.021-0.889-0.03-1.326c-0.067-0.579-0.233-1.391-0.183-1.968c0.014-0.136,0.04-0.273,0.104-0.396l0.005-0.01
			l0.006-0.01l0.006-0.01l0.006-0.01l0.006-0.01l0.006-0.01l0.006-0.009l0.007-0.009l0.007-0.009l0.013-0.016l0.013-0.015
			l0.014-0.015l0.014-0.014l0.015-0.014l0.015-0.013l0.016-0.013l0.016-0.012l0.017-0.012l0.017-0.011l0.018-0.01l0.018-0.01
			l0.019-0.009l0.019-0.009l0.02-0.008l0.02-0.008l0.021-0.007l0.021-0.007l0.022-0.006l0.022-0.006l0.022-0.005l0.023-0.005
			l0.023-0.004l0.024-0.004l0.024-0.003l0.025-0.003l0.025-0.002l0.026-0.002l0.026-0.001l0.027-0.001
			c0.736,0.002,1.545,0.366,2.215,0.658c4.391,2.091,9.084,5.561,13.479,7.645c1.251,0.589,2.559,1.12,3.922,1.383
			c0.903,0.173,1.844,0.215,2.747,0.025c1.214-0.249,2.395-0.933,3.548-1.363c0.861-0.328,1.791-0.524,2.715-0.425
			c1.861,0.209,3.577,1.098,5.222,1.941c1.432,0.755,4.025,2.244,5.476,2.857c1.139,0.501,2.337,0.92,3.542,1.231
			c2.353,0.605,4.82,0.868,7.239,1.052c2.931,0.198,5.926,0.2,8.841-0.186"/>
	</g>
	<g id="POLYLINE_00000004520249314852915370000002093679440556937606_">
		
			<path fill="none" stroke="#FB8604" stroke-width="2.75" stroke-linecap="round" stroke-linejoin="round" stroke-miterlimit="10" d="
			M332.911,313.523c0.08-2.528,0.429-5.56,0.14-8.071c-0.416-4.203-2.318-8.1-4.177-11.834c-1.435-2.86-4.84-8.977-5.963-11.873
			c-0.174-0.475-0.349-0.965-0.398-1.471l-0.003-0.035l-0.002-0.034l-0.001-0.034l0-0.033l0-0.032l0.001-0.031l0.002-0.03
			l0.002-0.029l0.003-0.028l0.004-0.028l0.005-0.027l0.005-0.026l0.006-0.025l0.007-0.024l0.008-0.023l0.008-0.022l0.009-0.021
			l0.01-0.02l0.011-0.02l0.012-0.019l0.012-0.018l0.013-0.017l0.014-0.016l0.015-0.015l0.016-0.014l0.006-0.005l0.006-0.005
			l0.006-0.005l0.006-0.005l0.007-0.005l0.007-0.004l0.007-0.004l0.007-0.004l0.007-0.004l0.007-0.004l0.007-0.004l0.007-0.004
			l0.007-0.004l0.008-0.003l0.008-0.003l0.008-0.003c0.273-0.097,0.609-0.012,0.884,0.049c0.565,0.132,1.154,0.361,1.737,0.388
			c0.123,0.003,0.249-0.006,0.367-0.046l0.017-0.006l0.016-0.006l0.016-0.007l0.016-0.007l0.016-0.007l0.015-0.008l0.015-0.008
			l0.015-0.009l0.014-0.009l0.014-0.009l0.014-0.01l0.014-0.01l0.013-0.01l0.013-0.011l0.013-0.011l0.012-0.011l0.012-0.012
			l0.012-0.012l0.012-0.013l0.011-0.013l0.011-0.013l0.011-0.014l0.011-0.014l0.01-0.014l0.01-0.015l0.01-0.015l0.009-0.015
			l0.009-0.016l0.009-0.016l0.009-0.016l0.008-0.017l0.008-0.017l0.008-0.017l0.008-0.018l0.007-0.018l0.007-0.018l0.007-0.019
			l0.006-0.019c0.12-0.384,0.077-0.797,0.013-1.188c-0.168-0.92-0.528-1.801-0.925-2.643c-1.444-3.006-3.619-5.611-6.051-7.87
			c-1.922-1.819-4.552-3.892-6.575-5.616c-0.568-0.492-1.176-1.029-1.687-1.579c-0.302-0.332-0.607-0.682-0.786-1.099l-0.01-0.026
			l-0.01-0.025l-0.009-0.025l-0.008-0.025l-0.008-0.025l-0.007-0.024l-0.006-0.024l-0.006-0.024l-0.005-0.024l-0.004-0.024
			l-0.004-0.023l-0.003-0.023l-0.002-0.023l-0.002-0.023l-0.001-0.022l0-0.022l0-0.022c0.017-0.495,0.571-0.829,0.903-1.131
			c0.234-0.203,0.462-0.431,0.59-0.717c0.117-0.262,0.147-0.556,0.125-0.84c-0.057-0.651-0.341-1.26-0.669-1.817
			c-0.67-1.107-1.579-2.059-2.544-2.914c-1.738-1.534-3.769-2.735-5.819-3.802c-3.74-1.986-9.024-4.008-12.714-6.092
			c-0.76-0.462-1.567-0.945-2.113-1.662l-0.023-0.032l-0.022-0.032l-0.021-0.032l-0.02-0.032l-0.019-0.032l-0.018-0.032
			l-0.017-0.032l-0.016-0.032l-0.015-0.031l-0.014-0.031l-0.013-0.031l-0.012-0.031l-0.011-0.031l-0.01-0.031l-0.009-0.031
			l-0.008-0.031l-0.007-0.031l-0.006-0.031l-0.005-0.031c-0.026-0.165-0.005-0.336,0.047-0.494c0.189-0.554,0.696-1.028,1.068-1.466
			c0.209-0.249,0.431-0.51,0.521-0.829l0.004-0.016l0.004-0.016l0.004-0.016l0.003-0.016l0.003-0.016l0.003-0.016l0.002-0.016
			l0.002-0.016l0.002-0.016l0.001-0.016l0.001-0.016l0.001-0.016l0-0.016l0-0.016l0-0.016l-0.001-0.016l-0.001-0.016l-0.001-0.016
			l-0.002-0.016l-0.002-0.016l-0.002-0.016l-0.003-0.016l-0.003-0.016l-0.003-0.016l-0.004-0.016l-0.004-0.016l-0.004-0.016
			l-0.004-0.016l-0.005-0.016l-0.005-0.016l-0.005-0.016c-0.189-0.508-0.72-0.853-1.17-1.115c-0.915-0.509-1.933-0.848-2.931-1.155
			c-2.347-0.699-4.904-1.187-7.316-1.625c-3.991-0.712-14.645-2.185-18.394-3.223c-0.523-0.156-1.067-0.312-1.537-0.597
			l-0.027-0.018l-0.026-0.018l-0.025-0.018l-0.024-0.018l-0.023-0.018l-0.022-0.018l-0.02-0.018l-0.019-0.018l-0.018-0.018
			l-0.017-0.018l-0.016-0.018l-0.015-0.018l-0.013-0.018l-0.012-0.018c-0.003-0.005-0.008-0.013-0.012-0.019l-0.004-0.006
			l-0.003-0.006l-0.003-0.006l-0.003-0.006l-0.003-0.006l-0.003-0.006l-0.003-0.006l-0.003-0.006l-0.002-0.006l-0.002-0.006
			l-0.002-0.006l-0.002-0.006l-0.002-0.006l-0.002-0.006l-0.002-0.006l-0.001-0.006l-0.001-0.006l-0.001-0.006l-0.001-0.006
			l-0.001-0.006l-0.001-0.006l-0.001-0.006l0-0.006l0-0.006l0-0.006l0-0.006l0-0.006l0-0.006l0-0.006l0-0.006l0.001-0.006
			l0.001-0.006l0.001-0.006l0.001-0.006l0.001-0.006l0.001-0.006l0.001-0.006l0.001-0.006l0.002-0.006
			c0.028-0.108,0.097-0.2,0.169-0.282c0.478-0.487,1.257-0.94,1.775-1.384c0.928-0.766,1.742-1.699,2.293-2.773
			c0.34-0.693,0.64-1.59,0.214-2.308l-0.018-0.028l-0.018-0.028l-0.019-0.027l-0.02-0.027l-0.021-0.027l-0.021-0.026l-0.022-0.026
			l-0.023-0.026l-0.023-0.025l-0.024-0.025l-0.025-0.024l-0.026-0.024l-0.026-0.024l-0.027-0.023l-0.028-0.023l-0.028-0.023
			l-0.029-0.022l-0.03-0.022l-0.03-0.022c-0.438-0.302-0.962-0.452-1.478-0.555c-1.081-0.202-2.204-0.19-3.299-0.126
			c-2.439,0.162-4.889,0.661-7.254,1.272c-3.984,1.04-7.895,2.555-11.579,4.389c-3.271,1.586-7.848,4.29-11.075,5.997
			c-0.713,0.369-1.489,0.756-2.237,1.049c-0.507,0.191-1.034,0.381-1.581,0.393l-0.032,0l-0.031-0.001l-0.031-0.001l-0.03-0.002
			l-0.03-0.002l-0.029-0.003l-0.029-0.004l-0.028-0.004l-0.028-0.005l-0.027-0.005l-0.027-0.006l-0.026-0.007
			c-0.304-0.078-0.503-0.315-0.614-0.599c-0.073-0.181-0.117-0.376-0.151-0.567c-0.112-0.669-0.146-1.742-0.214-2.422
			c-0.174-1.648-0.432-3.39-1.086-4.922c-0.18-0.381-0.4-0.807-0.773-1.028l-0.013-0.007l-0.013-0.007l-0.013-0.006l-0.013-0.006
			l-0.013-0.006l-0.013-0.006l-0.013-0.005l-0.013-0.005l-0.013-0.005l-0.013-0.004l-0.013-0.004l-0.013-0.004l-0.013-0.004
			l-0.013-0.003l-0.013-0.003l-0.013-0.003l-0.013-0.002l-0.013-0.002l-0.013-0.002l-0.013-0.001l-0.018-0.002l-0.018-0.001
			l-0.018,0l-0.018,0l-0.018,0.001l-0.018,0.001l-0.019,0.002l-0.019,0.002l-0.019,0.003l-0.019,0.003l-0.019,0.004l-0.019,0.004
			l-0.019,0.005l-0.019,0.005l-0.019,0.006l-0.019,0.006l-0.019,0.007l-0.019,0.007l-0.019,0.008l-0.019,0.008l-0.019,0.009
			l-0.02,0.009l-0.02,0.01l-0.02,0.01c-0.538,0.308-0.935,0.891-1.283,1.393c-2.062,3.227-3.711,7.513-5.938,10.633
			c-0.666,0.931-1.395,1.852-2.316,2.544c-0.567,0.418-1.27,0.763-1.992,0.644c-0.806-0.145-1.439-0.735-2.026-1.266
			c-0.805-0.77-1.871-1.838-2.754-2.485c-0.645-0.486-1.351-0.9-2.082-1.242c-1.864-0.868-3.901-1.344-5.93-1.633
			c-3.015-0.419-6.12-0.423-9.154-0.229c-6.267,0.453-12.55,1.678-18.554,3.521c-0.917,0.303-1.882,0.626-2.747,1.06
			c-0.207,0.108-0.42,0.224-0.6,0.376l-0.017,0.015l-0.016,0.015l-0.016,0.015l-0.015,0.015l-0.014,0.014l-0.013,0.014l-0.012,0.014
			l-0.012,0.014l-0.011,0.014l-0.01,0.014l-0.009,0.014l-0.008,0.014l-0.008,0.013l-0.007,0.013l-0.006,0.013l-0.005,0.013
			l-0.004,0.013l-0.003,0.013l-0.003,0.013l-0.002,0.012l-0.001,0.012l0,0.012l0.001,0.012l0.002,0.012l0.002,0.012l0.003,0.011
			l0.004,0.011l0.005,0.011l0.006,0.011l0.007,0.011l0.008,0.011l0.009,0.011l0.01,0.01l0.01,0.01l0.011,0.01l0.007,0.006
			l0.007,0.006l0.007,0.006l0.008,0.006l0.008,0.005l0.008,0.005l0.009,0.005l0.009,0.005c0.109,0.063,0.233,0.099,0.354,0.131
			c0.775,0.186,2.17,0.27,2.975,0.364c0.497,0.058,1.012,0.12,1.496,0.249c0.175,0.049,0.353,0.106,0.509,0.2l0.015,0.009
			l0.014,0.009l0.014,0.009l0.013,0.01l0.013,0.01l0.012,0.01l0.012,0.01l0.012,0.01l0.011,0.01l0.011,0.01l0.01,0.01l0.01,0.01
			l0.009,0.011l0.009,0.011l0.009,0.011l0.008,0.011l0.008,0.011l0.007,0.011l0.007,0.011l0.006,0.011l0.006,0.011l0.006,0.012
			l0.005,0.012l0.005,0.012l0.004,0.012l0.004,0.012l0.004,0.012l0.003,0.012l0.003,0.012l0.002,0.012l0.002,0.013l0.002,0.013
			l0.001,0.013l0.001,0.013l0,0.013l0,0.013l0,0.013l-0.001,0.013l-0.001,0.013l-0.002,0.014l-0.002,0.014l-0.002,0.014
			l-0.003,0.014l-0.003,0.014l-0.004,0.014l-0.004,0.014l-0.004,0.014l-0.005,0.015l-0.005,0.015l-0.006,0.015l-0.006,0.015
			l-0.006,0.015l-0.007,0.015c-0.122,0.255-0.325,0.463-0.524,0.659c-1.321,1.234-5.351,3.798-6.864,4.886
			c-3.148,2.217-6.461,4.743-9.446,7.175c-2.17,1.791-4.481,3.739-6.451,5.74c-0.524,0.54-1.058,1.113-1.51,1.714
			c-0.194,0.263-0.385,0.54-0.518,0.841l-0.014,0.034l-0.013,0.033l-0.012,0.032l-0.011,0.032l-0.01,0.031l-0.009,0.03l-0.008,0.03
			l-0.007,0.029l-0.006,0.029l-0.005,0.028l-0.004,0.027l-0.003,0.027l-0.002,0.026l-0.001,0.025l0,0.025l0.001,0.024l0.002,0.023
			l0.004,0.023l0.005,0.022l0.006,0.021l0.007,0.02l0.008,0.02l0.009,0.019l0.01,0.018l0.011,0.018l0.012,0.017l0.014,0.016
			l0.006,0.006l0.006,0.006l0.006,0.006l0.006,0.006l0.006,0.006l0.007,0.006l0.007,0.006l0.007,0.005l0.007,0.005l0.007,0.005
			l0.007,0.005l0.008,0.005l0.008,0.005l0.008,0.005l0.008,0.005c0.272,0.142,0.635,0.126,0.935,0.122
			c0.7-0.021,1.6-0.173,2.298-0.124c0.146,0.013,0.294,0.034,0.43,0.09l0.016,0.007l0.015,0.007l0.015,0.007l0.015,0.008
			l0.014,0.008l0.014,0.008l0.013,0.008l0.013,0.009l0.013,0.009l0.012,0.009l0.012,0.009l0.012,0.01l0.011,0.01l0.011,0.01
			l0.01,0.01l0.01,0.01l0.01,0.011l0.009,0.011l0.009,0.011l0.009,0.011l0.008,0.012l0.008,0.012l0.008,0.012l0.007,0.012
			l0.007,0.013l0.007,0.013l0.006,0.013l0.006,0.013l0.006,0.014l0.005,0.014l0.005,0.014l0.005,0.014l0.004,0.015l0.004,0.015
			l0.004,0.015l0.003,0.015l0.003,0.016l0.003,0.016l0.002,0.016l0.002,0.016l0.002,0.016l0.001,0.017l0.001,0.017l0.001,0.017
			l0,0.017l0,0.018c-0.008,0.322-0.131,0.629-0.258,0.921c-0.189,0.424-0.438,0.853-0.677,1.252
			c-0.878,1.438-3.091,4.632-3.998,6.064c-1.88,2.952-3.718,6.13-5.267,9.264c-0.935,1.908-1.84,3.911-2.502,5.931
			c-0.309,0.963-0.585,1.962-0.693,2.97c-0.053,0.53-0.065,1.076,0.064,1.596l0.012,0.045l0.013,0.044l0.013,0.044l0.014,0.043
			l0.015,0.042l0.015,0.041l0.016,0.041l0.017,0.04l0.017,0.039l0.018,0.038l0.019,0.038l0.02,0.037l0.02,0.036l0.021,0.035
			l0.022,0.035l0.022,0.034l0.023,0.033l0.024,0.032l0.025,0.032l0.025,0.031l0.026,0.03l0.027,0.029l0.028,0.028l0.028,0.028
			l0.029,0.027l0.03,0.026l0.031,0.025c0.574,0.44,1.374,0.45,2.068,0.427c1.115-0.039,2.42-0.356,3.537-0.366
			c0.191,0.005,0.388,0.02,0.567,0.091l0.013,0.005l0.013,0.006l0.013,0.006l0.013,0.006l0.013,0.007l0.012,0.007l0.012,0.007
			l0.012,0.007l0.012,0.007l0.011,0.008l0.011,0.008l0.011,0.008l0.01,0.008l0.01,0.008l0.01,0.009l0.01,0.009l0.009,0.009
			l0.009,0.009l0.009,0.009l0.009,0.01l0.008,0.01l0.008,0.01l0.008,0.01l0.008,0.01l0.007,0.011l0.007,0.011l0.007,0.011
			l0.007,0.011l0.006,0.011l0.006,0.012l0.006,0.012l0.005,0.012l0.005,0.012l0.005,0.012l0.005,0.012l0.004,0.013l0.004,0.013
			l0.004,0.013l0.004,0.013l0.004,0.013l0.003,0.014l0.003,0.014l0.003,0.014l0.003,0.014l0.002,0.014l0.002,0.014
			c0.032,0.273-0.043,0.547-0.127,0.805c-0.577,1.569-2.153,3.939-2.977,5.425c-0.846,1.499-1.688,3.099-2.36,4.682
			c-0.381,0.911-0.741,1.857-0.943,2.825c-0.105,0.558-0.195,1.158-0.003,1.707l0.008,0.022l0.009,0.021l0.009,0.021l0.009,0.021
			l0.01,0.02l0.01,0.02l0.01,0.02l0.011,0.019l0.011,0.019l0.011,0.019l0.012,0.018l0.012,0.018l0.012,0.018l0.013,0.017
			l0.013,0.017l0.013,0.017l0.014,0.016l0.014,0.016l0.014,0.016l0.015,0.015l0.015,0.015l0.015,0.014l0.016,0.014l0.016,0.014
			l0.016,0.013l0.017,0.013l0.017,0.013l0.017,0.012l0.018,0.012l0.018,0.012l0.019,0.011l0.019,0.011l0.019,0.01l0.02,0.01
			l0.02,0.01l0.02,0.009l0.021,0.009c0.205,0.084,0.431,0.105,0.652,0.107c0.456-0.001,0.916-0.086,1.363-0.174
			c0.912-0.176,2.073-0.524,3.001-0.479c0.189,0.013,0.381,0.047,0.553,0.13l0.015,0.008l0.015,0.008l0.015,0.008l0.015,0.008
			l0.014,0.009l0.014,0.009l0.014,0.009l0.014,0.009l0.014,0.01l0.013,0.01l0.013,0.01l0.013,0.01l0.013,0.011l0.012,0.011
			l0.012,0.011l0.012,0.011l0.012,0.012l0.011,0.012l0.011,0.012l0.011,0.012l0.011,0.013l0.01,0.013l0.01,0.013l0.01,0.014
			l0.015,0.022l0.014,0.023l0.014,0.023l0.013,0.024l0.012,0.025l0.012,0.026l0.011,0.026l0.011,0.027l0.01,0.027l0.009,0.028
			l0.009,0.029l0.008,0.029l0.008,0.03l0.007,0.031l0.006,0.031l0.006,0.032l0.005,0.033l0.005,0.033l0.004,0.034l0.003,0.034
			c0.033,0.398-0.032,0.801-0.113,1.19c-0.481,2.159-2.124,5.66-2.944,7.746c-0.414,1.053-0.839,2.147-1.092,3.251
			c-0.092,0.425-0.167,0.865-0.129,1.3l0.004,0.035l0.004,0.034l0.005,0.034l0.005,0.033l0.006,0.031l0.006,0.031l0.007,0.03
			l0.007,0.03l0.008,0.029l0.008,0.028l0.009,0.028l0.01,0.027l0.01,0.027l0.011,0.026l0.011,0.026l0.012,0.025l0.012,0.025
			l0.013,0.024l0.013,0.024l0.014,0.023l0.014,0.022l0.015,0.022l0.015,0.021l0.016,0.021l0.016,0.02l0.017,0.02l0.017,0.019
			l0.018,0.019l0.018,0.018l0.019,0.018l0.019,0.017l0.02,0.017l0.02,0.016l0.021,0.016l0.021,0.015l0.022,0.015l0.022,0.014
			l0.023,0.014l0.023,0.014l0.023,0.013l0.024,0.013l0.024,0.012l0.025,0.012l0.025,0.011l0.026,0.011l0.026,0.01l0.027,0.01
			l0.027,0.009l0.028,0.009l0.028,0.009l0.028,0.008c0.355,0.096,0.731,0.087,1.095,0.055c0.694-0.068,1.389-0.239,2.062-0.419
			c2.755-0.778,6.137-1.984,8.933-2.535c1.71-0.352,3.473-0.554,5.217-0.619c1.804-0.054,3.644-0.01,5.412,0.382
			c0.544,0.137,1.114,0.286,1.563,0.637l0.017,0.015l0.017,0.015l0.016,0.015l0.016,0.015l0.015,0.015l0.015,0.015l0.014,0.015
			l0.014,0.015l0.013,0.016l0.012,0.016l0.012,0.016l0.011,0.016l0.011,0.016l0.01,0.016l0.009,0.016l0.009,0.016l0.008,0.016
			l0.008,0.016l0.007,0.016l0.007,0.016l0.006,0.016l0.005,0.017l0.005,0.017l0.004,0.017l0.003,0.017l0.003,0.017l0.002,0.017
			l0.002,0.017l0.001,0.017l0,0.017l0,0.017L163.084,320l-0.002,0.017l-0.002,0.017l-0.003,0.017l-0.004,0.018l-0.004,0.018
			l-0.005,0.018l-0.006,0.018l-0.006,0.018l-0.007,0.018l-0.007,0.018l-0.008,0.018l-0.009,0.018l-0.01,0.018l-0.01,0.018
			l-0.011,0.018l-0.011,0.017l-0.011,0.017l-0.012,0.017l-0.013,0.017l-0.013,0.017l-0.014,0.017l-0.014,0.017
			c-0.178,0.211-0.408,0.374-0.637,0.526c-1.255,0.797-3.227,1.56-4.595,2.179c-0.986,0.447-2.045,0.9-2.941,1.51
			c-0.212,0.15-0.422,0.314-0.584,0.518l-0.014,0.019l-0.014,0.019l-0.013,0.019l-0.013,0.019l-0.012,0.018l-0.012,0.018
			l-0.011,0.018l-0.01,0.018l-0.01,0.018l-0.009,0.018l-0.009,0.018l-0.008,0.017l-0.007,0.017l-0.006,0.017l-0.006,0.017
			l-0.005,0.017l-0.005,0.017l-0.004,0.017l-0.004,0.017l-0.003,0.017l-0.003,0.017l-0.002,0.017l-0.002,0.017l-0.001,0.017
			l-0.001,0.017l0,0.017l0,0.017l0.001,0.017l0.001,0.017l0.002,0.017l0.002,0.017l0.003,0.017l0.003,0.017l0.004,0.017l0.004,0.016
			l0.005,0.016l0.005,0.016l0.006,0.016l0.006,0.016l0.007,0.016l0.007,0.016l0.008,0.016l0.008,0.016l0.009,0.016l0.009,0.016
			l0.01,0.016l0.01,0.016l0.011,0.016l0.011,0.016l0.011,0.016l0.012,0.016l0.012,0.016c0.226,0.278,0.542,0.467,0.851,0.64
			c2.175,1.094,4.954,1.771,7.184,2.84c1.042,0.489,2.046,1.083,2.939,1.811c0.666,0.548,1.284,1.176,1.737,1.914
			c0.402,0.659,0.687,1.46,0.49,2.233c-0.113,0.452-0.371,0.853-0.666,1.207c-0.564,0.67-1.278,1.244-1.956,1.797
			c-3.876,3.022-8.33,6.451-12.042,9.654c-1.854,1.61-3.812,3.337-5.471,5.142c-0.653,0.738-1.395,1.554-1.777,2.47l-0.014,0.039
			l-0.013,0.038l-0.012,0.038l-0.011,0.037l-0.01,0.037l-0.009,0.036l-0.008,0.035l-0.007,0.035l-0.006,0.034l-0.005,0.034
			l-0.004,0.033l-0.003,0.032l-0.002,0.032l0,0.031l0.001,0.03l0.002,0.03l0.003,0.029l0.004,0.028l0.005,0.028l0.006,0.027
			l0.008,0.026l0.009,0.026l0.01,0.025l0.011,0.024l0.005,0.011l0.006,0.01l0.006,0.01l0.006,0.01l0.006,0.01l0.006,0.01l0.007,0.01
			l0.007,0.01l0.007,0.01l0.007,0.009l0.008,0.009l0.008,0.009l0.008,0.009l0.008,0.009l0.008,0.009l0.009,0.009l0.009,0.009
			l0.009,0.009l0.009,0.008l0.009,0.008c0.132,0.113,0.298,0.178,0.463,0.228c0.345,0.099,0.712,0.132,1.068,0.16
			c0.694,0.05,1.719,0.057,2.388,0.219c0.179,0.044,0.358,0.102,0.519,0.195l0.019,0.011l0.019,0.012l0.018,0.012l0.018,0.012
			l0.017,0.012l0.017,0.013l0.017,0.013l0.016,0.013l0.016,0.013l0.016,0.013l0.015,0.014l0.015,0.014l0.014,0.014l0.014,0.014
			l0.014,0.015l0.013,0.015l0.013,0.015l0.013,0.015l0.012,0.016l0.012,0.016l0.012,0.016l0.011,0.016l0.011,0.016l0.01,0.017
			l0.01,0.017l0.01,0.017l0.009,0.017l0.009,0.018l0.009,0.018l0.008,0.018l0.008,0.018l0.008,0.019l0.007,0.019l0.007,0.019
			l0.007,0.019l0.006,0.019l0.006,0.02l0.005,0.02l0.005,0.02l0.005,0.02l0.004,0.021l0.004,0.021
			c0.059,0.327-0.004,0.662-0.096,0.977c-0.198,0.652-0.53,1.263-0.875,1.848c-2.428,3.924-8.251,10.562-11.151,14.26
			c-1.862,2.408-3.848,4.868-5.244,7.58c-0.273,0.57-0.536,1.167-0.611,1.8l-0.004,0.042l-0.003,0.041l-0.002,0.04l-0.002,0.04
			l-0.001,0.039l0,0.038l0.001,0.038l0.002,0.037l0.003,0.037l0.003,0.036l0.004,0.035l0.005,0.035l0.006,0.034l0.007,0.033
			l0.008,0.033l0.009,0.032l0.009,0.032l0.01,0.031l0.011,0.03l0.012,0.03l0.013,0.029l0.014,0.028l0.015,0.028l0.016,0.027
			l0.017,0.026l0.018,0.026l0.018,0.025c0.262,0.327,0.698,0.435,1.092,0.509c0.801,0.146,1.758,0.091,2.551,0.282
			c0.152,0.041,0.305,0.095,0.435,0.187l0.013,0.009l0.013,0.01l0.012,0.01l0.012,0.01l0.012,0.01l0.011,0.01l0.011,0.011
			l0.011,0.011l0.01,0.011l0.01,0.011l0.01,0.011l0.01,0.011l0.009,0.012l0.009,0.012l0.009,0.012l0.008,0.012l0.008,0.012
			l0.008,0.013l0.008,0.013l0.007,0.013l0.007,0.013l0.007,0.013l0.006,0.013l0.006,0.014l0.006,0.014l0.006,0.014l0.005,0.014
			l0.005,0.014l0.005,0.015l0.004,0.015l0.004,0.015l0.004,0.015l0.004,0.015l0.003,0.015l0.003,0.016l0.003,0.016l0.003,0.016
			c0.062,0.485-0.161,0.998-0.349,1.437c-0.917,1.917-2.389,4.097-3.328,6.003c-1.946,3.833-3.439,8.07-4.787,12.152
			c-0.319,1.037-2.79,8.8-3.002,9.639c-0.12,0.451-0.235,0.921-0.295,1.384c-0.05,0.432-0.086,0.903,0.116,1.303
			c0.149,0.291,0.435,0.435,0.748,0.482c1.161,0.149,2.591-0.316,3.786-0.264c0.271,0.013,0.551,0.049,0.794,0.178l0.021,0.012
			l0.021,0.012l0.021,0.013l0.02,0.013l0.02,0.014l0.019,0.014l0.019,0.015l0.018,0.015l0.018,0.015l0.017,0.016l0.017,0.016
			l0.017,0.017l0.016,0.017l0.016,0.018l0.015,0.018l0.015,0.018l0.014,0.019l0.014,0.019l0.014,0.02l0.013,0.02l0.013,0.021
			l0.012,0.021l0.012,0.021l0.012,0.022l0.011,0.022l0.011,0.023l0.01,0.023l0.01,0.023l0.01,0.024l0.009,0.024l0.009,0.025
			l0.008,0.025l0.008,0.025l0.008,0.026c0.126,0.467,0.071,0.963-0.001,1.434c-0.095,0.578-0.253,1.166-0.419,1.727
			c-0.896,2.893-2.438,6.799-3.289,9.696c-1.561,5.304-2.671,10.839-2.713,16.382c0.015,1.576,0.114,3.187,0.563,4.705
			c0.226,0.734,0.544,1.468,1.089,2.022l0.035,0.035l0.036,0.034l0.036,0.033l0.037,0.032l0.037,0.032l0.037,0.031l0.038,0.03
			l0.038,0.029l0.039,0.028l0.039,0.027l0.039,0.026l0.04,0.026l0.04,0.025c0.36,0.216,0.777,0.324,1.193,0.364
			c1.035,0.102,2.261-0.188,3.283-0.355c0.613-0.09,1.361-0.222,1.947,0.024l0.021,0.01l0.021,0.01l0.021,0.01l0.021,0.011
			l0.02,0.011l0.02,0.012l0.02,0.012l0.019,0.012l0.019,0.013l0.019,0.013l0.019,0.013l0.018,0.014l0.018,0.014l0.018,0.014
			l0.018,0.015l0.017,0.015l0.017,0.015l0.017,0.016l0.016,0.016l0.016,0.016l0.016,0.017l0.016,0.017l0.015,0.017l0.015,0.018
			c0.21,0.253,0.324,0.57,0.395,0.887c0.13,0.602,0.129,1.231,0.108,1.844c-0.133,2.491-0.735,5.86-0.961,8.346
			c-0.317,3.26-0.438,6.593-0.241,9.865c0.136,1.925,0.34,3.892,0.973,5.725c0.264,0.716,0.597,1.452,1.191,1.954l0.029,0.023
			l0.029,0.023l0.029,0.022l0.03,0.021l0.03,0.021l0.03,0.02l0.03,0.019l0.03,0.019l0.031,0.018l0.031,0.017l0.031,0.016
			c0.391,0.203,0.843,0.232,1.276,0.223c0.427-0.004,1.007-0.088,1.416,0.052c0.193,0.065,0.355,0.207,0.438,0.394l0.011,0.024
			l0.01,0.024l0.01,0.025l0.009,0.026l0.009,0.026l0.008,0.027l0.008,0.028l0.008,0.029l0.007,0.029l0.007,0.03
			c0.085,0.421,0.053,0.859,0.014,1.283c-0.317,2.581-1.274,5.698-1.73,8.262c-0.165,0.918-0.31,1.861-0.314,2.795
			c0.003,0.46,0.035,0.931,0.192,1.367l0.013,0.035l0.014,0.034l0.014,0.034l0.015,0.033l0.015,0.032l0.016,0.032l0.016,0.031
			l0.017,0.03l0.017,0.03l0.018,0.029l0.018,0.028c0.292,0.456,0.845,0.634,1.359,0.686c1.049,0.111,2.168-0.122,3.213,0.046
			c0.349,0.059,0.7,0.177,0.974,0.409l0.027,0.023l0.027,0.024l0.026,0.025l0.026,0.026l0.025,0.026l0.025,0.027l0.024,0.028
			l0.024,0.028l0.023,0.029l0.023,0.03l0.022,0.03l0.022,0.031l0.021,0.032l0.021,0.032l0.02,0.033l0.02,0.034l0.019,0.034
			c0.297,0.546,0.394,1.178,0.451,1.79c0.193,3.155-0.515,6.878-0.536,10.039c-0.016,1.533,0.042,3.11,0.538,4.573
			c0.299,0.87,0.785,1.672,1.391,2.362c0.987,1.162,2.544,2.174,3.767,3.078c1.099,0.813,2.159,1.747,2.598,3.085
			c0.458,1.337,0.445,2.786,0.394,4.182c-0.084,1.912-0.323,4.178-0.203,6.083c0.072,1.241,0.289,2.483,0.589,3.688
			c0.583,2.468,2.125,6.283,2.999,8.698c0.698,1.918,1.316,3.94,1.768,5.93c1.211,5.13,1.847,12.008,2.486,17.277
			c0.757,6.152,2.188,15.866,2.936,22.019c0.597,3.696,1.22,7.542,2.424,11.09c0.569,1.59,1.269,3.229,2.551,4.378
			c0.797,0.715,1.81,1.131,2.825,1.432c2.485,0.711,5.132,0.756,7.7,0.812c3.032-0.009,23.698,0.063,26.196-0.027
			c0.784-0.034,1.596-0.084,2.369-0.217c0.785-0.136,1.58-0.362,2.234-0.832c0.823-0.584,1.309-1.522,1.588-2.471
			c0.504-1.765,0.472-3.643,0.306-5.457c-0.206-2.03-0.624-4.058-1.304-5.983c-0.42-1.143-0.918-2.298-1.729-3.222
			c-0.337-0.379-0.735-0.705-1.176-0.957c-0.911-0.521-1.963-0.753-2.981-0.968l-6.161-1.148c-1.519-0.316-3.128-0.64-4.593-1.143
			c-0.966-0.333-1.913-0.78-2.691-1.452c-1.051-0.894-1.723-2.145-2.196-3.423c-0.74-2.019-1.132-4.192-1.461-6.313
			c-0.598-4.204-0.998-8.583-1.07-12.83c-0.037-3.451,0.145-6.965,0.887-10.342c0.638-2.919,1.843-5.704,3.232-8.339
			c2.295-4.327,5.155-8.622,7.887-12.689l4.012-4.693c2.398-2.874,4.696-5.935,6.576-9.174c1.874-3.137,3.838-7.787,5.372-11.143
			c0.629-1.308,1.256-2.708,2.132-3.869c0.191-0.241,0.4-0.478,0.658-0.65l0.022-0.014l0.022-0.013l0.022-0.013l0.022-0.012
			l0.022-0.012l0.021-0.011l0.021-0.01l0.021-0.01l0.021-0.009l0.021-0.009l0.021-0.008l0.021-0.007l0.021-0.007l0.021-0.006
			l0.021-0.005l0.021-0.005l0.021-0.004c0.332-0.062,0.639,0.131,0.904,0.309c0.412,0.284,0.848,0.631,1.36,0.689l0.026,0.003
			c0.484,0.046,0.96-0.121,1.389-0.331c0.888-0.449,1.659-1.111,2.38-1.789c4.687-4.61,7.873-10.725,11.11-16.386
			c0.912-1.571,1.9-3.268,2.985-4.722c0.521-0.689,1.085-1.37,1.758-1.915c0.512-0.421,1.11-0.712,1.772-0.798
			c0.696-0.103,1.469-0.024,2.165-0.124c0.431-0.059,0.853-0.194,1.23-0.412c0.629-0.362,1.161-0.877,1.65-1.408
			c2.164-2.444,3.948-5.75,5.825-8.415l0.465-0.654c1.663-2.267,3.714-4.708,4.62-7.395c0.564-1.573,0.819-3.25,0.946-4.911
			c0.268-3.356,0.076-8.274,0.054-11.68c0.01-1.914,0.013-3.93,0.351-5.815c0.123-0.662,0.303-1.325,0.607-1.929
			c0.278-0.562,0.665-1.068,1.089-1.527c0.52-0.557,1.135-1.163,1.522-1.817c0.337-0.562,0.564-1.187,0.731-1.818
			c0.506-1.987,0.512-4.08,0.406-6.117c-0.23-3.748-0.975-7.486-1.916-11.116c-1.3-4.836-2.938-9.665-5.37-14.058
			c-0.749-1.323-1.607-2.608-2.651-3.717c-0.915-0.984-1.986-1.828-3.1-2.574l-2.229-1.441"/>
	</g>
	<g id="POLYLINE_00000114031343275005756570000009279861881111632299_">
		
			<path fill="none" stroke="#FB8604" stroke-width="2.75" stroke-linecap="round" stroke-linejoin="round" stroke-miterlimit="10" d="
			M643.051,310.578c-0.57-1.138-1.44-2.098-2.387-2.935c-2.121-1.81-5.691-4.326-7.868-6.073
			c-5.523-4.394-12.054-9.469-17.278-14.19c-1.405-1.352-2.772-2.848-3.5-4.685c-0.518-1.285-0.603-2.699-0.519-4.07
			c0.067-1.376,0.523-4.235,0.697-5.625c0.412-3.187,0.228-6.446-0.364-9.599c-0.556-2.95-1.444-5.867-2.701-8.595
			c-1.085-2.358-2.494-4.593-3.984-6.715c-1.622-2.25-4.865-6.891-6.578-9.005"/>
	</g>
	<g id="POLYLINE_00000125591566558372601540000015885762080877095614_">
		
			<path fill="none" stroke="#FB8604" stroke-width="2.75" stroke-linecap="round" stroke-linejoin="round" stroke-miterlimit="10" d="
			M483.529,331.547l5.335,1.488c2.792,0.801,5.569,1.82,8.111,3.233c2.732,1.489,5.228,3.43,7.602,5.431
			c2.899,2.416,7.883,7.14,11.024,9.097c0.544,0.321,1.116,0.635,1.741,0.759l0.04,0.007l0.039,0.006l0.039,0.005l0.039,0.004
			l0.038,0.004l0.038,0.003l0.037,0.002l0.037,0.001l0.036,0l0.036-0.001l0.035-0.002l0.035-0.002l0.034-0.003l0.034-0.004
			l0.033-0.005l0.032-0.006l0.032-0.007l0.031-0.008l0.031-0.009l0.03-0.01l0.03-0.011l0.029-0.012l0.029-0.012l0.028-0.013
			c0.156-0.077,0.285-0.201,0.389-0.34c0.376-0.517,0.526-1.273,0.715-1.876c0.11-0.338,0.23-0.768,0.507-1.006l0.014-0.011
			l0.015-0.011l0.015-0.01l0.015-0.01l0.015-0.009l0.015-0.009l0.016-0.008l0.016-0.008l0.016-0.007l0.016-0.007l0.016-0.006
			l0.017-0.006l0.017-0.005l0.017-0.005l0.017-0.004l0.017-0.004l0.018-0.003l0.018-0.003l0.018-0.002l0.018-0.002l0.018-0.001
			l0.019-0.001l0.019,0l0.019,0l0.019,0.001l0.019,0.001l0.02,0.001l0.02,0.002l0.02,0.002l0.02,0.003l0.02,0.003l0.021,0.004
			l0.021,0.004l0.021,0.005l0.021,0.005c0.528,0.149,0.969,0.515,1.386,0.858c0.913,0.783,1.787,1.738,2.605,2.623
			c2.361,2.612,5.469,6.107,8.044,8.453c1.789,1.626,3.634,3.297,5.773,4.45c0.49,0.243,1.012,0.477,1.567,0.498l0.028,0l0.028,0
			l0.027-0.001l0.027-0.001l0.027-0.002l0.026-0.002l0.026-0.003l0.026-0.003l0.025-0.004l0.025-0.004l0.025-0.005l0.024-0.005
			l0.024-0.006l0.024-0.006l0.023-0.007l0.023-0.007l0.023-0.008l0.022-0.009l0.022-0.009l0.021-0.01l0.021-0.01l0.021-0.011
			l0.02-0.011l0.02-0.012l0.02-0.012l0.019-0.013l0.019-0.013l0.019-0.014l0.018-0.015l0.018-0.015l0.017-0.016l0.017-0.016
			l0.017-0.017c0.111-0.116,0.187-0.26,0.247-0.408c0.242-0.629,0.261-1.383,0.432-2.031c0.07-0.252,0.158-0.525,0.369-0.696
			l0.008-0.006l0.008-0.006l0.008-0.006l0.008-0.006l0.009-0.006l0.009-0.005l0.009-0.005l0.009-0.005l0.009-0.005l0.009-0.005
			l0.009-0.005l0.009-0.004l0.009-0.004l0.009-0.004l0.009-0.004l0.01-0.004l0.01-0.004l0.01-0.003l0.016-0.005l0.017-0.005
			l0.017-0.004l0.017-0.004l0.017-0.003l0.018-0.003l0.018-0.002l0.018-0.002l0.019-0.001l0.019-0.001l0.019-0.001l0.019,0l0.02,0
			l0.02,0.001l0.02,0.001l0.02,0.002l0.021,0.002l0.021,0.002c0.238,0.031,0.465,0.122,0.682,0.222
			c1.05,0.498,2.674,1.743,3.653,2.399c0.765,0.512,1.555,1.031,2.411,1.377c0.382,0.149,0.789,0.271,1.203,0.254l0.029-0.002
			l0.029-0.002l0.029-0.003l0.029-0.003l0.029-0.004l0.028-0.004l0.028-0.005l0.028-0.005l0.028-0.006l0.027-0.006l0.027-0.007
			l0.027-0.007l0.027-0.008l0.027-0.008l0.026-0.009l0.026-0.009l0.026-0.01l0.026-0.01l0.026-0.011l0.025-0.011l0.025-0.011
			l0.025-0.012l0.025-0.012l0.025-0.013l0.024-0.013l0.024-0.014c0.386-0.225,0.661-0.597,0.874-0.981
			c0.504-0.942,0.751-2.01,0.997-3.043c0.475-2.015,0.848-4.376,1.597-6.292c0.541-1.424,1.295-2.772,2.169-4.018
			c1.67-2.404,4.161-4.871,5.922-7.208c1.53-2.009,2.967-4.476,4.666-6.348c0.796-0.875,1.701-1.675,2.744-2.244
			c2.453-1.363,5.403-1.084,8.061-0.59c6.021,1.181,12.301,4.086,18.271,5.472c3.044,0.704,6.232,1.075,9.334,0.554
			c2.943-0.456,5.642-1.85,8.158-3.385c2.572-1.557,5.518-3.597,8.316-4.672c2.209-0.865,4.951-1.292,7.282-1.759
			c1.521-0.314,3.058-0.716,4.489-1.326c1.918-0.81,3.718-1.926,5.276-3.308"/>
	</g>
	<g id="POLYLINE_00000007385906816775341640000016659149357630203803_">
		
			<path fill="none" stroke="#FB8604" stroke-width="2.75" stroke-linecap="round" stroke-linejoin="round" stroke-miterlimit="10" d="
			M638.859,326.426c-1.012,0.083-2.034-0.244-2.856-0.828c-0.702-0.495-1.265-1.173-1.664-1.931
			c-0.636-1.221-0.895-2.605-1.031-3.964c-0.201-2.241-0.044-4.526,0.36-6.737c0.196-0.998,0.428-2.015,0.827-2.954
			c0.208-0.477,0.475-0.945,0.865-1.297c0.309-0.283,0.702-0.471,1.114-0.542c0.581-0.102,1.178-0.015,1.747,0.116
			c0.947,0.228,1.858,0.608,2.727,1.042c0.976,0.495,1.929,1.078,2.791,1.752c0.864,0.688,1.779,1.524,1.936,2.676
			c0.087,0.598,0.007,1.211-0.078,1.805c-0.187,1.236-0.482,2.471-0.848,3.667c-0.418,1.341-0.933,2.676-1.637,3.895
			c-0.516,0.883-1.149,1.718-1.958,2.353C640.496,325.997,639.7,326.362,638.859,326.426z"/>
	</g>
	<g id="POLYLINE_00000035499269514535099600000009752014560038740097_">
		
			<path fill="none" stroke="#FB8604" stroke-width="2.75" stroke-linecap="round" stroke-linejoin="round" stroke-miterlimit="10" d="
			M561.909,267.97c2.621-0.401,5.234-1.071,7.681-2.1c1.825-0.772,3.583-1.761,5.09-3.056c2.243-1.901,3.91-4.796,5.533-7.223
			c0.819-1.211,1.709-2.409,2.744-3.445c1.173-1.18,2.545-2.213,3.903-3.172c2.817-1.964,6.086-4.014,8.529-6.405
			c4.911-4.778,8.578-11.199,12.631-16.686c2.065-2.87,5.121-6.351,6.754-9.477c0.503-0.996,0.924-2.076,0.946-3.205
			c0.018-0.794-0.172-1.591-0.544-2.293c-0.496-0.945-1.294-1.711-2.201-2.261c-1.089-0.661-2.334-1.034-3.587-1.227
			c-4.167-0.655-8.724,0.728-12.79,1.559c-2.004,0.401-4.083,0.789-6.125,0.477c-1.638-0.242-3.332-0.769-4.991-0.86
			c-2.234-0.137-4.501,0.247-6.699,0.615c-2.407,0.435-7.465,1.492-9.804,1.729c-0.909,0.098-1.835,0.139-2.749,0.097
			c-1.736-0.055-4.956-0.719-6.712-1.001c-2.617-0.433-5.63-0.747-8.283-0.989c-6.08-0.526-12.678-0.861-18.781-0.94
			c-3.341-0.027-6.854-0.004-10.183,0.289c-0.997,0.095-2.053,0.217-3.033,0.426c-0.495,0.109-1.003,0.237-1.467,0.446l-0.057,0.027
			l-0.055,0.027l-0.053,0.028l-0.051,0.028l-0.049,0.028l-0.047,0.029l-0.045,0.029l-0.043,0.029l-0.04,0.03l-0.038,0.03
			l-0.036,0.03l-0.034,0.031l-0.031,0.031l-0.029,0.031l-0.027,0.032l-0.025,0.032l-0.022,0.033l-0.02,0.033l-0.018,0.033
			l-0.015,0.034l-0.013,0.034l-0.01,0.034l-0.008,0.035l-0.002,0.012L517,210.001l-0.002,0.012l-0.001,0.012l-0.001,0.012
			l-0.001,0.012l-0.001,0.012l0,0.012v0.012l0,0.012l0.001,0.013l0.001,0.013l0.001,0.013l0.001,0.013l0.002,0.013l0.002,0.013
			l0.002,0.013l0.002,0.013l0.003,0.013l0.003,0.013c0.04,0.168,0.131,0.319,0.232,0.457c0.521,0.679,1.457,1.311,2.119,1.853
			c0.306,0.258,0.654,0.516,0.863,0.863l0.01,0.018l0.009,0.018l0.008,0.018l0.007,0.018l0.007,0.018l0.006,0.017l0.005,0.017
			l0.005,0.017l0.004,0.017l0.003,0.017l0.002,0.016l0.002,0.016l0.001,0.016l0,0.016l0,0.016l-0.001,0.016l-0.002,0.015
			l-0.003,0.015l-0.003,0.015l-0.004,0.015l-0.005,0.015l-0.005,0.014l-0.006,0.014l-0.007,0.014l-0.007,0.014l-0.008,0.014
			l-0.009,0.014l-0.009,0.013l-0.01,0.013l-0.011,0.013l-0.011,0.013l-0.012,0.013l-0.013,0.013l-0.013,0.012l-0.014,0.012
			l-0.015,0.012l-0.015,0.012l-0.016,0.012l-0.017,0.012l-0.017,0.012l-0.018,0.011l-0.019,0.011l-0.019,0.011l-0.02,0.011
			l-0.021,0.011c-0.452,0.216-0.968,0.276-1.46,0.343c-0.721,0.085-1.53,0.125-2.258,0.154c-3.895,0.112-9.71,0.121-13.557,0.381
			c-4.358,0.268-9.059,0.731-13.379,1.361c-2.425,0.366-4.944,0.788-7.315,1.419c-0.94,0.27-2.048,0.568-2.856,1.118l-0.031,0.023
			l-0.03,0.023l-0.029,0.023l-0.027,0.023l-0.026,0.023l-0.025,0.023l-0.024,0.023l-0.022,0.023l-0.021,0.023l-0.02,0.023
			l-0.019,0.023l-0.017,0.023l-0.016,0.023l-0.015,0.023l-0.013,0.023l-0.012,0.023l-0.011,0.023l-0.01,0.023l-0.008,0.023
			l-0.007,0.023l-0.006,0.023l-0.004,0.023l-0.003,0.023l-0.002,0.023l0,0.023l0.001,0.023l0.002,0.023l0.001,0.008l0.001,0.008
			l0.002,0.008l0.002,0.008l0.002,0.008l0.002,0.008l0.002,0.008l0.002,0.008l0.003,0.008l0.003,0.008l0.003,0.008l0.003,0.008
			c0.089,0.21,0.275,0.359,0.449,0.498c0.581,0.442,1.282,0.79,1.796,1.315c0.141,0.147,0.269,0.314,0.346,0.504l0.011,0.028
			l0.01,0.028l0.009,0.028l0.008,0.028l0.008,0.029l0.007,0.029l0.006,0.029l0.005,0.029l0.004,0.029l0.004,0.029l0.003,0.029
			l0.002,0.03l0.001,0.03l0.001,0.03l0,0.03l-0.001,0.03l-0.002,0.03l-0.002,0.031l-0.003,0.031l-0.004,0.031l-0.005,0.031
			l-0.005,0.031l-0.006,0.031l-0.007,0.032l-0.008,0.032l-0.008,0.032l-0.009,0.032l-0.01,0.032l-0.01,0.032l-0.011,0.032
			l-0.012,0.033c-0.208,0.534-0.595,0.976-0.992,1.38c-1.246,1.216-2.761,2.162-4.244,3.061c-7.219,4.31-17.05,7.876-24.553,11.691
			c-1.236,0.659-2.501,1.361-3.595,2.242c-0.471,0.39-0.936,0.823-1.228,1.368l-0.018,0.036l-0.017,0.036l-0.017,0.035l-0.016,0.035
			l-0.015,0.035l-0.014,0.035l-0.013,0.035l-0.012,0.035l-0.011,0.035l-0.011,0.035l-0.01,0.035l-0.009,0.035l-0.008,0.035
			l-0.007,0.035l-0.006,0.035l-0.005,0.035l-0.004,0.035l-0.004,0.034l-0.003,0.034c-0.027,0.418,0.151,0.816,0.355,1.171
			c0.429,0.767,1.169,1.543,1.051,2.486l-0.005,0.032l-0.005,0.032l-0.006,0.032l-0.007,0.032l-0.007,0.032l-0.008,0.032
			l-0.009,0.032l-0.009,0.033c-0.258,0.796-0.905,1.43-1.505,1.987c-2.622,2.279-6.566,4.436-9.429,6.422
			c-1.958,1.314-3.787,2.86-5.407,4.574c-1.533,1.623-3.473,3.831-5.196,5.217c-1.384,1.15-2.947,2.105-4.524,2.964l-5.146,2.695
			c-0.63,0.348-1.288,0.714-1.866,1.143c-0.215,0.164-0.431,0.34-0.593,0.558l-0.013,0.018l-0.012,0.018l-0.012,0.018l-0.011,0.017
			l-0.01,0.017l-0.01,0.017l-0.009,0.017l-0.009,0.017l-0.008,0.017l-0.007,0.017l-0.007,0.017l-0.006,0.017l-0.006,0.016
			l-0.005,0.016l-0.005,0.016l-0.004,0.016l-0.003,0.016l-0.003,0.016l-0.002,0.016l-0.001,0.016l-0.001,0.016l0,0.016l0,0.015
			l0.001,0.015l0.002,0.015l0.002,0.015l0.003,0.015l0.004,0.015l0.004,0.015l0.005,0.015l0.006,0.014l0.006,0.014l0.007,0.014
			l0.005,0.009l0.005,0.009l0.005,0.008l0.005,0.008l0.005,0.008l0.006,0.008l0.006,0.008l0.006,0.008l0.006,0.008l0.007,0.008
			l0.007,0.008l0.007,0.008c0.085,0.095,0.196,0.166,0.307,0.228c0.67,0.343,1.491,0.515,2.203,0.75
			c0.358,0.116,0.727,0.24,1.057,0.423c0.144,0.083,0.287,0.179,0.39,0.311l0.01,0.013l0.009,0.013l0.009,0.013l0.009,0.013
			l0.008,0.013l0.008,0.014l0.007,0.014l0.007,0.014l0.007,0.014l0.006,0.014l0.006,0.014l0.005,0.014l0.005,0.014l0.004,0.014
			l0.004,0.014l0.004,0.014l0.003,0.014l0.003,0.015l0.003,0.015l0.002,0.015l0.002,0.015l0.001,0.015l0.001,0.015l0.001,0.015
			l0,0.015l0,0.015l-0.001,0.015l-0.001,0.015l-0.001,0.016l-0.002,0.016l-0.002,0.016l-0.002,0.016l-0.003,0.016l-0.003,0.016
			l-0.003,0.016l-0.004,0.016l-0.004,0.016l-0.005,0.016l-0.005,0.016l-0.005,0.016c-0.071,0.211-0.202,0.398-0.342,0.569
			c-0.648,0.754-1.51,1.345-2.309,1.929c-0.828,0.575-3.384,2.322-4.148,2.892c-0.979,0.698-4.958,3.842-5.977,4.633
			c-2.518,1.927-5.208,3.716-8.1,5.03c-3.677,1.722-9.108,3.001-13.036,4.138c-1.244,0.382-2.533,0.777-3.688,1.384
			c-0.412,0.225-0.824,0.482-1.129,0.845l-0.021,0.026l-0.02,0.026l-0.019,0.026l-0.019,0.026l-0.018,0.026l-0.017,0.026
			l-0.017,0.026l-0.016,0.026l-0.015,0.026l-0.015,0.026l-0.014,0.027l-0.013,0.027c-0.206,0.424-0.121,0.913-0.007,1.35
			c0.133,0.538,0.376,1.144,0.196,1.697l-0.01,0.028l-0.01,0.028l-0.011,0.028l-0.012,0.027l-0.013,0.027l-0.013,0.027l-0.014,0.027
			l-0.015,0.027l-0.016,0.027l-0.016,0.027l-0.017,0.027l-0.018,0.026l-0.019,0.026l-0.019,0.026l-0.02,0.026l-0.021,0.026
			l-0.021,0.026l-0.022,0.026c-0.25,0.282-0.57,0.494-0.897,0.677c-0.547,0.302-1.152,0.528-1.744,0.726
			c-0.897,0.298-1.906,0.549-2.831,0.764c-3.859,0.862-9.685,1.795-13.571,2.586c-6.747,1.377-13.614,3.155-20.166,5.272
			c-2.824,0.95-5.79,1.92-8.433,3.299c-0.956,0.513-1.972,1.199-3.048,1.421c-0.825,0.191-1.691,0.246-2.536,0.277
			c-1.966,0.06-4.047-0.074-6.009-0.233c-13.931-1.247-27.754-4.837-41.145-8.757c-7.674-2.24-15.913-5.813-23.657-7.799
			c-4.035-1.015-8.255-1.265-12.403-1.332"/>
	</g>
</g>
<g id="_x32_D_x24_AG-OUTLINE">
	<g id="POLYLINE_00000154393194321577218070000001312476524424060554_">
		
			<path fill="none" stroke="#FB8604" stroke-width="3.5" stroke-linecap="round" stroke-linejoin="round" stroke-miterlimit="10" d="
			M546.171,363.994c-2.532,8.104-6.329,22.405-8.517,30.755c-0.347,1.243-0.729,2.572-1.188,3.777
			c-0.2,0.513-0.416,1.032-0.707,1.501c-0.124,0.193-0.261,0.385-0.445,0.527l-0.013,0.01l-0.013,0.01l-0.013,0.009l-0.013,0.009
			l-0.013,0.008l-0.013,0.008l-0.013,0.008l-0.013,0.007l-0.013,0.007l-0.013,0.007l-0.013,0.006l-0.013,0.006l-0.013,0.005
			l-0.013,0.005l-0.013,0.005l-0.013,0.004l-0.013,0.004l-0.013,0.003l-0.013,0.003c-0.269,0.051-0.524-0.134-0.753-0.248
			c-0.2-0.105-0.427-0.196-0.656-0.155l-0.023,0.004l-0.023,0.005l-0.023,0.006l-0.023,0.007l-0.023,0.007l-0.024,0.008
			l-0.024,0.009l-0.024,0.01l-0.024,0.011l-0.024,0.011l-0.024,0.012l-0.024,0.013l-0.024,0.014l-0.025,0.014l-0.025,0.015
			l-0.025,0.016l-0.025,0.017c-0.255,0.176-0.467,0.409-0.661,0.648c-0.377,0.471-0.699,1.001-0.996,1.525
			c-3.407,6.452-5.641,14.686-7.849,21.655c-0.493,1.453-0.959,2.994-1.755,4.313c-0.171,0.265-0.364,0.529-0.622,0.716
			l-0.018,0.013l-0.018,0.012l-0.018,0.012l-0.018,0.011l-0.018,0.011l-0.018,0.01l-0.018,0.01l-0.018,0.009l-0.018,0.009
			l-0.019,0.008l-0.018,0.008l-0.019,0.007l-0.019,0.007l-0.019,0.006l-0.019,0.006l-0.019,0.005l-0.019,0.005l-0.019,0.004
			l-0.019,0.004l-0.019,0.003l-0.019,0.003l-0.019,0.002l-0.019,0.002l-0.019,0.001l-0.019,0.001l-0.019,0l-0.019,0l-0.019-0.001
			l-0.019-0.001l-0.019-0.002l-0.019-0.003l-0.019-0.003c-0.465-0.096-0.902-0.603-1.254-0.905c-0.26-0.224-0.595-0.53-0.961-0.504
			l-0.023,0.003l-0.023,0.004l-0.023,0.005l-0.023,0.006l-0.023,0.007l-0.023,0.008l-0.023,0.009l-0.023,0.01l-0.023,0.011
			l-0.023,0.012l-0.023,0.013l-0.023,0.014l-0.023,0.014l-0.023,0.015l-0.023,0.016l-0.023,0.017l-0.023,0.018l-0.023,0.019
			l-0.023,0.02l-0.023,0.021l-0.023,0.022l-0.023,0.023l-0.023,0.024l-0.023,0.025l-0.022,0.026
			c-0.538,0.662-0.841,1.576-1.124,2.375c-2.227,7.154-3.457,15.653-7.062,22.287c-0.753,1.373-1.582,2.75-2.72,3.841
			c-0.424,0.387-0.91,0.764-1.491,0.857l-0.025,0.003l-0.025,0.003l-0.025,0.002l-0.025,0.002l-0.024,0.001l-0.024,0.001
			l-0.024,0.001l-0.024,0l-0.024,0l-0.024-0.001l-0.024-0.001l-0.024-0.002l-0.024-0.002l-0.024-0.003l-0.023-0.003l-0.023-0.004
			l-0.023-0.004l-0.023-0.005l-0.023-0.005l-0.023-0.006l-0.023-0.006l-0.023-0.007l-0.023-0.007l-0.022-0.008l-0.022-0.008
			l-0.022-0.009l-0.022-0.009l-0.022-0.01l-0.022-0.01l-0.022-0.011c-0.161-0.081-0.302-0.197-0.428-0.325
			c-0.423-0.431-0.78-1.095-1.102-1.607c-0.196-0.299-0.451-0.728-0.79-0.87l-0.009-0.003l-0.009-0.003l-0.009-0.003l-0.009-0.003
			l-0.009-0.003l-0.009-0.002l-0.009-0.002l-0.009-0.002l-0.009-0.002l-0.009-0.002l-0.009-0.002l-0.009-0.001l-0.009-0.001
			l-0.022-0.002l-0.022-0.001l-0.022,0l-0.022,0.001l-0.022,0.002l-0.022,0.004l-0.022,0.005l-0.022,0.006l-0.023,0.007
			l-0.023,0.008l-0.023,0.009l-0.023,0.01l-0.023,0.011l-0.023,0.012l-0.023,0.013l-0.023,0.014l-0.023,0.015l-0.023,0.016
			l-0.023,0.017l-0.023,0.018l-0.024,0.019l-0.024,0.02l-0.024,0.021l-0.024,0.022l-0.024,0.023l-0.024,0.024
			c-0.218,0.224-0.392,0.494-0.551,0.762c-0.334,0.572-0.619,1.203-0.881,1.811c-2.914,7.042-5.001,15.176-9.823,21.22
			c-1.097,1.35-2.303,2.68-3.814,3.572c-0.49,0.271-1.04,0.519-1.613,0.469l-0.023-0.003l-0.023-0.003l-0.023-0.003l-0.023-0.004
			l-0.022-0.004l-0.022-0.005l-0.022-0.005l-0.022-0.005l-0.022-0.006l-0.021-0.006l-0.021-0.007l-0.021-0.007l-0.021-0.007
			l-0.02-0.008l-0.02-0.008l-0.02-0.009l-0.02-0.009l-0.02-0.009l-0.019-0.01l-0.019-0.01c-0.554-0.315-0.74-0.994-1.142-1.452
			c-0.077-0.081-0.172-0.155-0.286-0.17l-0.014-0.002l-0.014-0.001l-0.015,0l-0.015,0l-0.015,0.001l-0.015,0.001l-0.015,0.002
			l-0.015,0.003l-0.015,0.003l-0.015,0.004l-0.016,0.004l-0.016,0.005l-0.016,0.005l-0.016,0.006l-0.016,0.006l-0.016,0.007
			l-0.016,0.008l-0.017,0.008l-0.017,0.009L483,481.3l-0.017,0.01l-0.017,0.01l-0.017,0.011l-0.017,0.011
			c-0.205,0.14-0.374,0.33-0.532,0.52c-0.714,0.898-1.287,1.98-1.845,2.982c-0.894,1.669-3.206,6.153-4.153,7.699
			c-1.086,1.881-3.472,5.261-4.721,7.091c-1.08,1.61-2.093,3.311-2.754,5.139c-1.054,2.867-1.448,5.948-1.628,8.983
			c-2.071,14.492-4.161,29.636-4.309,44.273c-0.081,7.714,0.47,15.546,1.57,23.18c0.255,1.59,0.463,3.269,1.274,4.688
			c0.597,1.044,1.593,1.734,2.677,2.204c1.247,0.545,2.594,0.882,3.924,1.152c3.333,0.671,7.317,0.896,10.726,1.151
			c1.47,0.126,2.992,0.268,4.428,0.618c1.064,0.261,2.113,0.671,2.987,1.345c1.601,1.225,2.433,3.158,3.04,5.025
			c0.591,1.864,0.98,3.809,1.186,5.753c0.155,1.539,0.203,3.117-0.052,4.648c-0.262,1.565-0.906,3.245-2.347,4.072
			c-1.253,0.706-2.751,0.724-4.152,0.762c-3.657-0.038-32.136,0.107-35.014-0.081c-1.273-0.076-2.566-0.225-3.805-0.533
			c-1.122-0.276-2.217-0.688-3.246-1.213c-1.75-0.892-3.357-2.081-4.864-3.334c-2.497-2.088-4.955-4.598-7.213-6.95
			c-0.13-0.18-0.397-0.539-0.532-0.715c-0.664-0.856-1.915-2.405-2.495-3.279c-0.5-0.734-0.968-1.523-1.38-2.31
			c-1.435-2.744-2.632-5.885-4.553-8.335c-0.682-0.846-1.5-1.644-2.531-2.038c-0.867-0.327-1.816-0.333-2.73-0.278l-1.373,0.099
			c-0.776,0.038-1.628,0.075-2.31-0.355c-0.24-0.153-0.434-0.37-0.589-0.608c-0.557-0.875-0.801-2.15-1.095-3.139
			c-0.162-0.542-0.331-1.101-0.639-1.58c-0.151-0.231-0.348-0.443-0.603-0.558l-0.017-0.008l-0.017-0.007l-0.017-0.007l-0.019-0.007
			l-0.019-0.007l-0.019-0.006l-0.019-0.006l-0.019-0.006l-0.02-0.005c-0.293-0.078-0.604-0.043-0.896,0.024
			c-0.639,0.155-1.241,0.462-1.821,0.765c-1.049,0.529-2.386,1.451-3.538,1.699c-0.311,0.063-0.652,0.052-0.932-0.112
			c-0.27-0.154-0.459-0.414-0.596-0.687c-0.295-0.609-0.407-1.291-0.501-1.955c-0.333-3.016-0.36-6.751-0.776-9.754
			c-0.178-1.336-0.381-2.707-0.811-3.988c-0.181-0.5-0.387-1.024-0.783-1.395l-0.017-0.015l-0.017-0.014l-0.017-0.014l-0.017-0.014
			l-0.018-0.013l-0.018-0.013l-0.018-0.012l-0.018-0.012l-0.018-0.011l-0.018-0.011l-0.018-0.01l-0.018-0.01l-0.018-0.009
			l-0.018-0.009l-0.018-0.008l-0.019-0.008l-0.019-0.007l-0.019-0.007l-0.019-0.006l-0.019-0.006l-0.019-0.005l-0.019-0.005
			l-0.019-0.004c-0.365-0.065-0.718,0.112-1.036,0.27c-0.332,0.167-0.71,0.407-1.074,0.487c-0.124,0.026-0.255,0.03-0.376-0.011
			l-0.025-0.009l-0.025-0.01l-0.024-0.012l-0.024-0.013l-0.024-0.014l-0.023-0.015l-0.023-0.017l-0.023-0.018l-0.022-0.019
			l-0.022-0.02l-0.022-0.021l-0.021-0.023l-0.021-0.024l-0.021-0.025l-0.02-0.026l-0.02-0.027l-0.02-0.028l-0.02-0.029l-0.019-0.031
			l-0.019-0.032l-0.019-0.033l-0.018-0.034l-0.018-0.035l-0.018-0.036c-0.359-0.813-0.433-1.728-0.517-2.603
			c-0.419-6.517,0.877-19.36,1.206-26.01c0.113-2.303,0.214-4.772,0.133-7.073c-0.045-1.076-0.116-2.186-0.34-3.24
			c-0.141-0.608-0.311-1.251-0.735-1.727l-0.018-0.019l-0.018-0.018l-0.018-0.018l-0.018-0.017l-0.019-0.017l-0.019-0.016
			l-0.019-0.016l-0.019-0.015l-0.019-0.015l-0.02-0.014l-0.02-0.014l-0.02-0.013l-0.02-0.013l-0.02-0.012l-0.02-0.012l-0.021-0.011
			l-0.021-0.011l-0.021-0.01l-0.021-0.01l-0.021-0.009l-0.021-0.009l-0.022-0.008l-0.022-0.007
			c-0.572-0.174-1.234,0.133-1.798,0.241c-0.232,0.046-0.481,0.081-0.71,0l-0.017-0.007l-0.017-0.007l-0.017-0.007l-0.017-0.008
			l-0.016-0.008l-0.016-0.009l-0.016-0.009l-0.016-0.01l-0.016-0.01l-0.015-0.011l-0.015-0.011l-0.015-0.011l-0.015-0.012
			l-0.015-0.012l-0.014-0.013l-0.014-0.013l-0.014-0.014l-0.014-0.014l-0.014-0.015l-0.013-0.015l-0.013-0.015l-0.013-0.016
			l-0.013-0.016l-0.013-0.017l-0.013-0.017l-0.012-0.018l-0.012-0.018c-0.15-0.229-0.23-0.497-0.29-0.761
			c-0.114-0.527-0.145-1.079-0.161-1.617c-0.064-2.259,0.465-8.134,0.598-10.465c0.25-4.334,0.35-8.873,0.227-13.213
			c-2.915,0.386-5.911,0.384-8.841,0.186c-2.419-0.184-4.886-0.446-7.239-1.052c-1.205-0.312-2.403-0.73-3.542-1.231
			c-1.443-0.607-4.069-2.113-5.476-2.857c-1.646-0.843-3.36-1.733-5.222-1.942c-0.989-0.107-1.98,0.127-2.894,0.494
			c-1.105,0.433-2.257,1.08-3.43,1.307c-0.885,0.176-1.804,0.131-2.686-0.038c-1.362-0.263-2.67-0.794-3.922-1.383
			c-4.395-2.084-9.087-5.554-13.479-7.645c-0.673-0.294-1.479-0.656-2.215-0.658l-0.027,0.001l-0.026,0.001l-0.026,0.002
			l-0.025,0.002l-0.025,0.003l-0.024,0.003l-0.024,0.004l-0.023,0.004l-0.023,0.005l-0.022,0.005l-0.022,0.006l-0.022,0.006
			l-0.021,0.007l-0.021,0.007l-0.02,0.008l-0.02,0.008l-0.019,0.009l-0.019,0.009l-0.018,0.01l-0.018,0.01l-0.017,0.011
			l-0.017,0.012l-0.016,0.012l-0.016,0.013l-0.015,0.013l-0.015,0.014l-0.014,0.014l-0.014,0.015l-0.013,0.015l-0.013,0.016
			l-0.007,0.009l-0.007,0.009l-0.006,0.009l-0.006,0.01l-0.006,0.01l-0.006,0.01l-0.006,0.01l-0.006,0.01l-0.005,0.01
			c-0.063,0.122-0.09,0.26-0.104,0.396c-0.05,0.574,0.117,1.393,0.183,1.968c0.051,0.437,0.096,0.888,0.03,1.326
			c-0.036,0.232-0.11,0.466-0.256,0.653l-0.017,0.021l-0.017,0.02l-0.018,0.02l-0.018,0.019l-0.019,0.019l-0.02,0.019l-0.02,0.018
			l-0.021,0.018l-0.021,0.017l-0.022,0.017l-0.022,0.016l-0.023,0.016l-0.023,0.015l-0.024,0.015l-0.024,0.015l-0.025,0.014
			l-0.025,0.014l-0.026,0.013l-0.026,0.013l-0.027,0.012l-0.027,0.012l-0.028,0.012l-0.028,0.011l-0.029,0.011
			c-0.481,0.17-1.005,0.16-1.507,0.118c-1.099-0.109-2.178-0.423-3.222-0.772c-2.424-0.839-4.78-1.965-6.996-3.255
			c-1.193-0.684-2.548-1.672-3.671-2.478c-0.426-0.292-0.865-0.592-1.351-0.773c-0.288-0.106-0.605-0.158-0.909-0.094
			c-0.496,0.108-0.901,0.45-1.283,0.767l-0.914,0.801c-0.604,0.518-1.262,0.998-2.004,1.297c-0.631,0.26-1.319,0.366-1.999,0.377
			c-1.743,0.017-3.458-0.458-5.093-1.023c-3.128-1.116-6.112-2.71-8.962-4.405c-1.64-0.972-4.15-2.671-5.875-3.408
			c-0.489-0.206-1.002-0.381-1.53-0.453c-0.384-0.052-0.781-0.043-1.156,0.06c-0.485,0.133-0.923,0.402-1.336,0.682
			c-0.976,0.684-1.993,1.499-3.24,1.525c-1.044,0.03-2.061-0.317-3.006-0.731c-1.903-0.862-3.632-2.102-5.247-3.416
			c-2.04-1.628-3.905-3.706-5.705-5.589c-0.47-0.463-0.964-0.933-1.534-1.272c-0.373-0.219-0.808-0.379-1.245-0.312
			c-0.613,0.102-1.094,0.56-1.537,0.965c-0.983,0.927-2.009,2.139-3.428,2.315c-0.94,0.11-1.878-0.187-2.722-0.578
			c-1.653-0.793-3.09-1.997-4.335-3.332c-0.593,1.581-1.509,3.031-2.503,4.388c-1.905,2.461-3.733,5.181-5.384,7.802
			c-0.893,1.354-1.823,2.76-2.91,3.963c-0.548,0.593-1.148,1.173-1.881,1.529c-0.993,0.491-2.109,0.271-3.164,0.416
			c-0.809,0.105-1.467,0.5-2.059,1.044c-0.608,0.555-1.135,1.211-1.622,1.873c-1.015,1.392-1.969,3.025-2.835,4.519
			c-3.238,5.663-6.422,11.774-11.11,16.386c-0.739,0.695-1.53,1.374-2.447,1.821c-0.411,0.193-0.863,0.343-1.322,0.299l-0.026-0.003
			c-0.512-0.058-0.949-0.405-1.36-0.689c-0.264-0.178-0.572-0.37-0.904-0.309l-0.021,0.004l-0.021,0.005l-0.021,0.005l-0.021,0.006
			l-0.021,0.007l-0.021,0.007l-0.021,0.008l-0.021,0.009l-0.021,0.009l-0.021,0.01l-0.021,0.01l-0.021,0.011l-0.022,0.012
			l-0.022,0.012l-0.022,0.013l-0.022,0.013l-0.022,0.014c-0.258,0.172-0.467,0.409-0.658,0.65c-0.875,1.16-1.504,2.562-2.132,3.869
			c-1.545,3.377-3.492,7.991-5.372,11.143c-1.88,3.239-4.179,6.301-6.576,9.174l-4.012,4.693c-2.733,4.072-5.591,8.36-7.887,12.689
			c-1.389,2.636-2.594,5.42-3.232,8.339c-0.743,3.377-0.925,6.892-0.887,10.342c0.072,4.246,0.472,8.626,1.07,12.83
			c0.337,2.169,0.737,4.39,1.513,6.45c0.468,1.229,1.131,2.425,2.144,3.287c0.778,0.672,1.725,1.12,2.691,1.452
			c1.463,0.503,3.077,0.831,4.593,1.143l6.161,1.148c1.113,0.236,2.272,0.491,3.236,1.125c0.629,0.41,1.136,0.987,1.531,1.621
			c0.514,0.824,0.89,1.74,1.208,2.656c0.436,1.279,0.755,2.617,0.978,3.949c0.365,2.332,0.57,4.817-0.037,7.124
			c-0.222,0.792-0.571,1.572-1.146,2.172c-0.452,0.475-1.044,0.796-1.665,0.993c-0.884,0.282-1.83,0.373-2.753,0.433
			c-5.637,0.14-23.116,0.099-28.595,0.019c-2.431-0.103-4.951-0.259-7.216-1.221c-0.642-0.277-1.244-0.657-1.746-1.145
			c-0.654-0.631-1.148-1.412-1.551-2.222c-0.668-1.357-1.125-2.827-1.517-4.284c-0.754-2.817-1.27-5.915-1.73-8.798
			c-0.748-6.153-2.179-15.867-2.936-22.019c-0.647-5.311-1.273-12.13-2.486-17.277c-0.452-1.991-1.07-4.011-1.768-5.93
			c-0.881-2.441-2.41-6.216-2.999-8.698c-0.316-1.27-0.539-2.58-0.599-3.888c-0.101-1.965,0.162-4.284,0.227-6.253
			c0.033-1.276,0.012-2.595-0.408-3.813c-0.439-1.337-1.5-2.272-2.598-3.085c-1.229-0.912-2.777-1.913-3.767-3.078
			c-0.605-0.691-1.091-1.493-1.391-2.362c-0.527-1.564-0.563-3.25-0.531-4.885c0.046-3.039,0.744-6.841,0.519-9.838
			c-0.06-0.575-0.161-1.165-0.441-1.678l-0.019-0.034l-0.02-0.034l-0.02-0.033l-0.021-0.032l-0.021-0.032l-0.022-0.031l-0.022-0.03
			l-0.023-0.03l-0.023-0.029l-0.024-0.028l-0.024-0.028l-0.025-0.027l-0.025-0.026l-0.026-0.026l-0.026-0.025l-0.027-0.024
			l-0.027-0.023c-0.286-0.242-0.654-0.36-1.019-0.417c-1.046-0.156-2.165,0.077-3.213-0.044c-0.499-0.056-1.031-0.239-1.314-0.681
			l-0.018-0.028l-0.018-0.029l-0.017-0.03l-0.017-0.03l-0.016-0.031l-0.016-0.032l-0.015-0.032l-0.015-0.033l-0.014-0.034
			l-0.014-0.034l-0.013-0.035c-0.157-0.436-0.189-0.907-0.192-1.367c0.004-0.934,0.149-1.877,0.314-2.795
			c0.456-2.567,1.413-5.678,1.73-8.262c0.04-0.424,0.071-0.862-0.014-1.283l-0.007-0.03l-0.007-0.029l-0.008-0.029l-0.008-0.028
			l-0.008-0.027l-0.009-0.026l-0.009-0.026l-0.01-0.025l-0.01-0.024l-0.011-0.024c-0.083-0.186-0.245-0.329-0.438-0.394
			c-0.406-0.14-0.991-0.056-1.415-0.052c-0.433,0.009-0.885-0.02-1.276-0.223l-0.031-0.016l-0.031-0.017l-0.031-0.018l-0.03-0.019
			l-0.03-0.019l-0.03-0.02l-0.03-0.021l-0.03-0.021l-0.029-0.022l-0.029-0.023l-0.029-0.023c-0.622-0.528-0.96-1.308-1.228-2.061
			c-0.601-1.803-0.803-3.73-0.935-5.618c-0.197-3.271-0.076-6.604,0.241-9.865c0.226-2.488,0.828-5.852,0.961-8.346
			c0.022-0.612,0.022-1.242-0.108-1.844c-0.071-0.317-0.185-0.635-0.395-0.887l-0.015-0.018l-0.015-0.017l-0.016-0.017l-0.016-0.017
			l-0.016-0.016l-0.016-0.016l-0.017-0.016l-0.017-0.015l-0.017-0.015l-0.018-0.015l-0.018-0.014l-0.018-0.014l-0.018-0.014
			l-0.019-0.013l-0.019-0.013l-0.019-0.013l-0.019-0.012l-0.02-0.012l-0.02-0.012l-0.02-0.011l-0.021-0.011l-0.021-0.01l-0.021-0.01
			l-0.021-0.01c-0.587-0.246-1.334-0.114-1.947-0.024c-1.026,0.167-2.246,0.456-3.283,0.355c-0.416-0.04-0.833-0.148-1.193-0.364
			l-0.04-0.025l-0.04-0.026l-0.039-0.026l-0.039-0.027l-0.039-0.028l-0.038-0.029l-0.038-0.03l-0.037-0.031l-0.037-0.032
			l-0.037-0.032l-0.036-0.033l-0.036-0.034l-0.035-0.035c-0.545-0.554-0.863-1.289-1.089-2.022
			c-0.415-1.396-0.527-2.877-0.559-4.328c-0.036-2.357,0.199-4.764,0.538-7.096c0.486-3.242,1.224-6.525,2.171-9.664
			c0.851-2.897,2.394-6.805,3.289-9.696c0.166-0.561,0.324-1.149,0.419-1.727c0.072-0.472,0.126-0.967,0.001-1.434l-0.008-0.026
			l-0.008-0.025l-0.008-0.025l-0.009-0.025l-0.009-0.024l-0.01-0.024l-0.01-0.023l-0.01-0.023l-0.011-0.023l-0.011-0.022
			l-0.012-0.022l-0.012-0.021l-0.012-0.021l-0.013-0.021l-0.013-0.02l-0.014-0.02L131,419.535l-0.014-0.019l-0.015-0.018
			l-0.015-0.018l-0.016-0.018l-0.016-0.017l-0.017-0.017l-0.017-0.016l-0.017-0.016l-0.018-0.015l-0.018-0.015l-0.019-0.015
			l-0.019-0.014l-0.02-0.014l-0.02-0.013l-0.021-0.013l-0.021-0.012l-0.021-0.012c-0.209-0.112-0.449-0.153-0.684-0.172
			c-1.038-0.059-2.184,0.24-3.219,0.286c-0.407,0.011-0.883,0.018-1.216-0.25c-0.413-0.352-0.386-0.983-0.336-1.477
			c0.098-0.806,0.343-1.617,0.572-2.395c1.955-6.212,3.954-13.179,6.66-19.084c0.565-1.231,1.224-2.521,1.898-3.696
			c0.52-0.905,1.743-2.934,2.191-3.873c0.163-0.344,0.321-0.705,0.409-1.077c0.043-0.188,0.07-0.385,0.041-0.577l-0.003-0.016
			l-0.003-0.016l-0.003-0.016L137,386.897l-0.004-0.015l-0.004-0.015l-0.004-0.015l-0.004-0.015l-0.005-0.015l-0.005-0.014
			l-0.005-0.014l-0.006-0.014l-0.006-0.014l-0.006-0.014l-0.006-0.013l-0.007-0.013l-0.007-0.013l-0.007-0.013l-0.008-0.013
			l-0.008-0.013l-0.008-0.012l-0.008-0.012l-0.009-0.012l-0.009-0.012l-0.009-0.012l-0.01-0.011l-0.01-0.011l-0.01-0.011
			l-0.01-0.011l-0.011-0.011l-0.011-0.011l-0.011-0.01l-0.012-0.01l-0.012-0.01l-0.012-0.01l-0.013-0.01l-0.013-0.009
			c-0.129-0.092-0.282-0.146-0.435-0.187c-0.793-0.191-1.75-0.136-2.551-0.282c-0.394-0.074-0.83-0.182-1.092-0.509l-0.018-0.025
			l-0.018-0.026l-0.017-0.026l-0.016-0.027l-0.015-0.028l-0.014-0.028l-0.013-0.029l-0.012-0.03l-0.011-0.03l-0.01-0.031
			l-0.009-0.032l-0.009-0.032l-0.008-0.033l-0.007-0.033l-0.006-0.034l-0.005-0.035l-0.004-0.035l-0.003-0.036l-0.003-0.037
			l-0.002-0.037l-0.001-0.038l0-0.038l0.001-0.039l0.002-0.04l0.002-0.04l0.003-0.041l0.004-0.042
			c0.082-0.678,0.373-1.315,0.672-1.922c1.397-2.658,3.349-5.09,5.184-7.459c2.928-3.733,8.709-10.317,11.151-14.259
			c0.344-0.585,0.677-1.196,0.875-1.848c0.091-0.315,0.155-0.65,0.096-0.977l-0.004-0.021l-0.004-0.021l-0.005-0.02l-0.005-0.02
			l-0.005-0.02l-0.006-0.02l-0.006-0.019l-0.007-0.019l-0.007-0.019l-0.007-0.019l-0.008-0.019l-0.008-0.018l-0.008-0.018
			l-0.009-0.018l-0.009-0.018l-0.009-0.017l-0.01-0.017l-0.01-0.017l-0.01-0.017l-0.011-0.016l-0.011-0.016l-0.012-0.016
			l-0.012-0.016l-0.012-0.016l-0.013-0.015l-0.013-0.015l-0.013-0.015l-0.014-0.015l-0.014-0.014l-0.014-0.014l-0.015-0.014
			l-0.015-0.014l-0.016-0.013l-0.016-0.013l-0.016-0.013l-0.017-0.013l-0.017-0.013l-0.017-0.012l-0.018-0.012l-0.018-0.012
			l-0.019-0.012l-0.019-0.011c-0.16-0.093-0.339-0.151-0.519-0.195c-0.665-0.162-1.699-0.17-2.388-0.219
			c-0.357-0.028-0.723-0.061-1.068-0.16c-0.165-0.049-0.331-0.115-0.463-0.228l-0.009-0.008l-0.009-0.008l-0.009-0.009l-0.009-0.009
			l-0.009-0.009l-0.008-0.009l-0.008-0.009l-0.008-0.009l-0.008-0.009l-0.008-0.009l-0.007-0.009l-0.007-0.01l-0.007-0.01
			l-0.007-0.01l-0.006-0.01l-0.006-0.01l-0.006-0.01l-0.006-0.01l-0.006-0.01l-0.005-0.011l-0.011-0.024l-0.01-0.025l-0.009-0.026
			l-0.008-0.026l-0.006-0.027l-0.005-0.028l-0.004-0.028l-0.003-0.029l-0.002-0.03l-0.001-0.03l0-0.031l0.002-0.032l0.003-0.032
			l0.004-0.033l0.005-0.034l0.006-0.034l0.007-0.035l0.008-0.035l0.009-0.036l0.01-0.037l0.011-0.037l0.012-0.038l0.013-0.038
			l0.014-0.039c0.381-0.916,1.124-1.731,1.777-2.47c1.658-1.804,3.619-3.534,5.471-5.142c3.709-3.2,8.171-6.635,12.042-9.654
			c0.678-0.553,1.391-1.126,1.956-1.797c0.295-0.354,0.554-0.755,0.666-1.207c0.196-0.773-0.089-1.574-0.49-2.233
			c-0.453-0.738-1.071-1.367-1.737-1.914c-0.893-0.729-1.898-1.322-2.939-1.811c-2.23-1.07-5.009-1.746-7.184-2.84
			c-0.309-0.172-0.625-0.361-0.851-0.64l-0.012-0.016l-0.012-0.016l-0.011-0.016l-0.011-0.016l-0.011-0.016l-0.01-0.016l-0.01-0.016
			l-0.009-0.016l-0.009-0.016l-0.008-0.016l-0.008-0.016l-0.007-0.016l-0.007-0.016l-0.006-0.016l-0.006-0.016l-0.005-0.016
			l-0.005-0.016l-0.004-0.016l-0.004-0.017l-0.003-0.017l-0.003-0.017l-0.002-0.017l-0.002-0.017l-0.001-0.017l-0.001-0.017l0-0.017
			l0-0.017l0.001-0.017l0.001-0.017l0.002-0.017l0.002-0.017l0.003-0.017l0.003-0.017l0.004-0.017l0.004-0.017l0.005-0.017
			l0.005-0.017l0.006-0.017l0.006-0.017l0.007-0.017l0.008-0.017l0.009-0.018l0.009-0.018l0.01-0.018l0.01-0.018l0.011-0.018
			l0.012-0.018l0.012-0.018l0.013-0.019l0.013-0.019l0.014-0.019l0.014-0.019c0.162-0.204,0.372-0.368,0.584-0.518
			c0.895-0.61,1.956-1.063,2.941-1.51c1.373-0.622,3.333-1.379,4.595-2.179c0.229-0.152,0.459-0.315,0.637-0.526l0.014-0.017
			l0.014-0.017l0.013-0.017l0.013-0.017l0.012-0.017l0.011-0.017l0.011-0.017l0.011-0.018l0.01-0.018l0.01-0.018l0.009-0.018
			l0.008-0.018l0.007-0.018l0.007-0.018l0.006-0.018l0.006-0.018l0.005-0.018l0.004-0.018l0.004-0.018l0.003-0.017l0.002-0.017
			l0.002-0.017l0.001-0.017l0-0.017l0-0.017l-0.001-0.017l-0.002-0.017l-0.002-0.017l-0.003-0.017l-0.003-0.017l-0.004-0.017
			l-0.005-0.017l-0.005-0.017l-0.006-0.016l-0.007-0.016l-0.007-0.016l-0.008-0.016l-0.008-0.016l-0.009-0.016l-0.009-0.016
			l-0.01-0.016l-0.011-0.016l-0.011-0.016l-0.012-0.016l-0.012-0.016l-0.013-0.016l-0.014-0.015l-0.014-0.015l-0.015-0.015
			l-0.015-0.015l-0.016-0.015l-0.016-0.015l-0.017-0.015l-0.017-0.015c-0.449-0.351-1.019-0.5-1.563-0.637
			c-1.768-0.393-3.608-0.436-5.412-0.382c-1.851,0.069-3.719,0.293-5.529,0.685c-2.662,0.551-5.993,1.729-8.621,2.47
			c-0.673,0.179-1.368,0.351-2.062,0.419c-0.364,0.032-0.74,0.04-1.095-0.055l-0.028-0.008l-0.028-0.009l-0.028-0.009l-0.027-0.009
			l-0.027-0.01l-0.026-0.01l-0.026-0.011l-0.025-0.011l-0.025-0.012l-0.024-0.012l-0.024-0.013l-0.023-0.013l-0.023-0.014
			l-0.023-0.014l-0.022-0.014l-0.022-0.015l-0.021-0.015l-0.021-0.016l-0.02-0.016l-0.02-0.017l-0.019-0.017l-0.019-0.018
			l-0.018-0.018l-0.018-0.019l-0.017-0.019l-0.017-0.02l-0.016-0.02l-0.016-0.021l-0.015-0.021l-0.015-0.022l-0.014-0.022
			l-0.014-0.023l-0.013-0.024l-0.013-0.024l-0.012-0.025l-0.012-0.025l-0.011-0.026l-0.011-0.026l-0.01-0.027l-0.01-0.027
			l-0.009-0.028l-0.008-0.028l-0.008-0.029l-0.007-0.03l-0.007-0.03l-0.006-0.031l-0.006-0.031l-0.005-0.033l-0.005-0.034
			l-0.004-0.034l-0.004-0.035c-0.038-0.435,0.038-0.875,0.129-1.3c0.253-1.104,0.678-2.198,1.092-3.251
			c0.827-2.107,2.457-5.571,2.944-7.746c0.081-0.389,0.146-0.792,0.113-1.19l-0.003-0.034l-0.004-0.034l-0.005-0.033l-0.005-0.033
			l-0.006-0.032l-0.006-0.031l-0.007-0.031l-0.008-0.03l-0.008-0.029l-0.009-0.029l-0.009-0.028l-0.01-0.027l-0.011-0.027
			l-0.011-0.026l-0.012-0.026l-0.012-0.025l-0.013-0.024l-0.014-0.023l-0.014-0.023l-0.015-0.022l-0.01-0.014l-0.01-0.013
			l-0.01-0.013l-0.011-0.013l-0.011-0.012l-0.011-0.012l-0.011-0.012l-0.012-0.012l-0.012-0.011l-0.012-0.011l-0.012-0.011
			l-0.013-0.011l-0.013-0.01l-0.013-0.01l-0.013-0.01l-0.014-0.01l-0.014-0.009l-0.014-0.009l-0.014-0.009l-0.014-0.009
			l-0.015-0.008l-0.015-0.008l-0.015-0.008l-0.015-0.008c-0.172-0.083-0.364-0.117-0.553-0.13c-0.924-0.045-2.093,0.304-3.001,0.479
			c-0.446,0.088-0.907,0.173-1.363,0.174c-0.22-0.002-0.446-0.023-0.652-0.107l-0.021-0.009l-0.02-0.009l-0.02-0.01l-0.02-0.01
			l-0.019-0.01l-0.019-0.011l-0.019-0.011l-0.018-0.012l-0.018-0.012l-0.017-0.012l-0.017-0.013l-0.017-0.013l-0.016-0.013
			l-0.016-0.014l-0.016-0.014l-0.015-0.014l-0.015-0.015l-0.015-0.015l-0.014-0.016l-0.014-0.016l-0.014-0.016l-0.013-0.017
			l-0.013-0.017l-0.013-0.017l-0.012-0.018l-0.012-0.018l-0.012-0.018l-0.011-0.019l-0.011-0.019l-0.011-0.019l-0.01-0.02
			l-0.01-0.02l-0.01-0.02l-0.009-0.021l-0.009-0.021l-0.009-0.021l-0.008-0.022c-0.192-0.548-0.102-1.149,0.003-1.707
			c0.202-0.968,0.562-1.915,0.943-2.826c0.672-1.582,1.514-3.185,2.36-4.682c0.816-1.474,2.448-3.932,2.991-5.468
			c0.077-0.245,0.144-0.504,0.113-0.762l-0.002-0.014l-0.002-0.014l-0.003-0.014l-0.003-0.014l-0.003-0.014l-0.003-0.014
			l-0.004-0.013l-0.004-0.013l-0.004-0.013l-0.004-0.013l-0.004-0.013l-0.005-0.012l-0.005-0.012l-0.005-0.012l-0.005-0.012
			l-0.006-0.012l-0.006-0.012l-0.006-0.011l-0.007-0.011l-0.007-0.011l-0.007-0.011l-0.007-0.011l-0.008-0.01l-0.008-0.01
			l-0.008-0.01l-0.008-0.01l-0.009-0.01l-0.009-0.009l-0.009-0.009l-0.009-0.009l-0.01-0.009l-0.01-0.009l-0.01-0.008l-0.01-0.008
			l-0.011-0.008l-0.011-0.008l-0.011-0.008l-0.012-0.007l-0.012-0.007l-0.012-0.007l-0.012-0.007l-0.013-0.007l-0.013-0.006
			l-0.013-0.006l-0.013-0.006l-0.013-0.005c-0.179-0.071-0.376-0.086-0.567-0.091c-1.117,0.009-2.422,0.327-3.537,0.366
			c-0.694,0.023-1.493,0.013-2.068-0.427l-0.031-0.025l-0.03-0.026l-0.029-0.027l-0.028-0.028l-0.028-0.028l-0.027-0.029
			l-0.026-0.03l-0.025-0.031l-0.025-0.032l-0.024-0.032l-0.023-0.033l-0.022-0.034l-0.022-0.035l-0.021-0.035l-0.02-0.036
			l-0.02-0.037l-0.019-0.038l-0.018-0.038l-0.017-0.039l-0.017-0.04l-0.016-0.041l-0.015-0.041l-0.015-0.042l-0.014-0.043
			l-0.013-0.044l-0.013-0.044l-0.012-0.045c-0.139-0.562-0.115-1.154-0.05-1.725c0.118-0.962,0.382-1.919,0.678-2.841
			c0.662-2.019,1.568-4.023,2.502-5.931c1.549-3.134,3.388-6.314,5.267-9.264c1.221-1.98,3.687-5.269,4.676-7.316
			c0.126-0.292,0.249-0.599,0.257-0.921l0-0.018l0-0.017l-0.001-0.017l-0.001-0.017l-0.001-0.017l-0.002-0.016l-0.002-0.016
			l-0.002-0.016l-0.003-0.016l-0.003-0.016l-0.003-0.015l-0.004-0.015L148,261.257l-0.004-0.015l-0.005-0.014l-0.005-0.014
			l-0.005-0.014l-0.006-0.014l-0.006-0.013l-0.006-0.013l-0.007-0.013l-0.007-0.013l-0.007-0.012l-0.008-0.012l-0.008-0.012
			l-0.008-0.012l-0.009-0.011l-0.009-0.011l-0.009-0.011l-0.01-0.011l-0.01-0.01l-0.01-0.01l-0.011-0.01l-0.011-0.01l-0.012-0.01
			l-0.012-0.009l-0.012-0.009l-0.013-0.009l-0.013-0.009l-0.013-0.008l-0.014-0.008l-0.014-0.008l-0.015-0.008l-0.015-0.007
			l-0.015-0.007l-0.016-0.007c-0.136-0.056-0.285-0.078-0.43-0.09c-0.697-0.049-1.6,0.102-2.298,0.124
			c-0.301,0.005-0.663,0.021-0.935-0.122l-0.008-0.005l-0.008-0.005l-0.008-0.005l-0.008-0.005l-0.007-0.005l-0.007-0.005
			l-0.007-0.005l-0.007-0.005l-0.007-0.006l-0.007-0.006l-0.006-0.006l-0.006-0.006l-0.006-0.006l-0.006-0.006l-0.006-0.006
			l-0.014-0.016l-0.012-0.017l-0.011-0.018l-0.01-0.018l-0.009-0.019l-0.008-0.02l-0.007-0.02l-0.006-0.021l-0.005-0.022
			l-0.004-0.023l-0.002-0.023l-0.001-0.024l0-0.025l0.001-0.025l0.002-0.026l0.003-0.027l0.004-0.027l0.005-0.028l0.006-0.029
			l0.007-0.029l0.008-0.03l0.009-0.03l0.01-0.031l0.011-0.032l0.012-0.032l0.013-0.033l0.014-0.034
			c0.149-0.336,0.367-0.642,0.588-0.934c0.435-0.564,0.943-1.111,1.44-1.621c1.969-2,4.283-3.951,6.451-5.74
			c2.985-2.432,6.299-4.959,9.446-7.175c1.54-1.106,5.525-3.638,6.864-4.886c0.2-0.196,0.403-0.404,0.524-0.659l0.007-0.015
			l0.006-0.015l0.006-0.015l0.006-0.015l0.005-0.015l0.005-0.015l0.004-0.014l0.004-0.014l0.004-0.014l0.003-0.014l0.003-0.014
			l0.002-0.014l0.002-0.014l0.002-0.014l0.001-0.013l0.001-0.013l0-0.013l0-0.013l0-0.013l-0.001-0.013l-0.001-0.013l-0.002-0.013
			l-0.002-0.013l-0.002-0.012l-0.003-0.012l-0.003-0.012l-0.004-0.012l-0.004-0.012l-0.004-0.012l-0.005-0.012l-0.005-0.012
			l-0.006-0.012l-0.006-0.011l-0.006-0.011l-0.007-0.011l-0.007-0.011l-0.008-0.011l-0.008-0.011l-0.009-0.011l-0.009-0.011
			l-0.009-0.011l-0.01-0.01l-0.01-0.01l-0.011-0.01l-0.011-0.01l-0.012-0.01l-0.012-0.01l-0.012-0.01l-0.013-0.01l-0.013-0.01
			l-0.014-0.009l-0.014-0.009l-0.015-0.009c-0.156-0.095-0.334-0.152-0.509-0.2c-0.484-0.128-0.999-0.191-1.496-0.249
			c-0.81-0.094-2.194-0.177-2.975-0.364c-0.121-0.032-0.245-0.068-0.354-0.131l-0.009-0.005l-0.009-0.005l-0.008-0.005l-0.008-0.005
			l-0.008-0.006l-0.007-0.006l-0.007-0.006l-0.007-0.006l-0.011-0.01l-0.01-0.01l-0.01-0.01l-0.009-0.011l-0.008-0.011l-0.007-0.011
			l-0.006-0.011l-0.005-0.011l-0.004-0.011l-0.003-0.011l-0.002-0.012l-0.002-0.012l-0.001-0.012l0-0.012l0.001-0.012l0.002-0.012
			l0.003-0.013l0.003-0.013l0.004-0.013l0.005-0.013l0.006-0.013l0.007-0.013l0.008-0.013l0.008-0.014l0.009-0.014l0.01-0.014
			l0.011-0.014l0.012-0.014l0.012-0.014l0.013-0.014l0.014-0.014l0.015-0.015l0.016-0.015l0.016-0.015l0.017-0.015
			c0.2-0.168,0.438-0.293,0.67-0.411c0.844-0.414,1.784-0.73,2.677-1.025c6.004-1.843,12.287-3.068,18.554-3.521
			c3.035-0.194,6.139-0.19,9.154,0.229c2.029,0.289,4.066,0.765,5.93,1.633c0.731,0.342,1.437,0.756,2.082,1.242
			c0.89,0.646,1.953,1.727,2.754,2.485c0.583,0.528,1.209,1.111,2.008,1.263c0.747,0.131,1.473-0.236,2.055-0.674
			c0.9-0.689,1.617-1.594,2.272-2.511c2.227-3.12,3.877-7.408,5.938-10.633c0.349-0.504,0.745-1.084,1.283-1.393l0.02-0.01
			l0.02-0.01l0.02-0.009l0.019-0.009l0.019-0.008l0.019-0.008l0.019-0.007l0.019-0.007l0.019-0.006l0.019-0.006l0.019-0.005
			l0.019-0.005l0.019-0.004l0.019-0.004l0.019-0.003l0.019-0.003l0.019-0.002l0.019-0.002l0.018-0.001l0.018-0.001l0.018,0l0.018,0
			l0.018,0.001l0.018,0.002l0.013,0.001l0.013,0.002l0.013,0.002l0.013,0.002l0.013,0.003l0.013,0.003l0.013,0.003l0.013,0.004
			l0.013,0.004l0.013,0.004l0.013,0.004l0.013,0.005l0.013,0.005l0.013,0.005l0.013,0.006l0.013,0.006l0.013,0.006l0.013,0.006
			l0.013,0.007l0.013,0.007c0.373,0.221,0.593,0.648,0.773,1.028c0.654,1.532,0.912,3.273,1.086,4.922
			c0.072,0.707,0.1,1.784,0.225,2.48c0.034,0.18,0.078,0.362,0.149,0.531c0.111,0.274,0.309,0.501,0.605,0.577l0.026,0.007
			l0.027,0.006l0.027,0.005l0.028,0.005l0.028,0.004l0.029,0.004l0.029,0.003l0.03,0.002l0.03,0.002l0.031,0.001l0.031,0.001
			l0.032,0c0.547-0.012,1.075-0.202,1.581-0.393c0.748-0.294,1.521-0.679,2.237-1.049c3.234-1.71,7.801-4.409,11.075-5.997
			c3.684-1.834,7.596-3.348,11.579-4.389c2.365-0.611,4.814-1.109,7.254-1.272c1.094-0.064,2.217-0.076,3.299,0.126
			c0.516,0.102,1.04,0.253,1.478,0.555l0.03,0.022l0.03,0.022l0.029,0.022l0.028,0.023l0.028,0.023l0.027,0.023l0.026,0.024
			l0.026,0.024l0.025,0.024l0.024,0.025l0.023,0.025l0.023,0.026l0.022,0.026l0.021,0.026l0.021,0.027l0.02,0.027l0.019,0.027
			l0.018,0.028l0.018,0.028c0.395,0.663,0.163,1.486-0.134,2.141c-0.523,1.104-1.337,2.057-2.262,2.848
			c-0.534,0.474-1.4,0.98-1.887,1.476c-0.073,0.082-0.141,0.174-0.169,0.282l-0.002,0.006l-0.001,0.006l-0.001,0.006l-0.001,0.006
			l-0.001,0.006l-0.001,0.006l-0.001,0.006l-0.001,0.006l-0.001,0.006l0,0.006l0,0.006l0,0.006l0,0.006l0,0.006l0,0.006l0,0.006
			l0,0.006l0.001,0.006l0.001,0.006l0.001,0.006l0.001,0.006l0.001,0.006l0.001,0.006l0.001,0.006l0.002,0.006l0.002,0.006
			l0.002,0.006l0.002,0.006l0.002,0.006l0.002,0.006l0.002,0.006l0.003,0.006l0.003,0.006l0.003,0.006l0.003,0.006l0.003,0.006
			l0.003,0.006l0.003,0.006l0.004,0.006c0.003,0.005,0.008,0.014,0.012,0.019l0.012,0.018l0.013,0.018l0.015,0.018l0.016,0.018
			l0.017,0.018l0.018,0.018l0.019,0.018l0.02,0.018l0.022,0.018l0.023,0.018l0.024,0.018l0.025,0.018l0.026,0.018l0.027,0.018
			c0.47,0.285,1.014,0.441,1.537,0.597c3.697,1.028,14.477,2.524,18.394,3.223c2.415,0.438,4.968,0.925,7.316,1.625
			c0.999,0.306,2.016,0.645,2.931,1.154c0.451,0.263,0.981,0.607,1.17,1.115l0.005,0.016l0.005,0.016l0.005,0.016l0.004,0.016
			l0.004,0.016l0.004,0.016l0.004,0.016l0.003,0.016l0.003,0.016l0.003,0.016l0.002,0.016l0.002,0.016l0.002,0.016l0.001,0.016
			l0.001,0.016l0.001,0.016l0,0.016l0,0.016l0,0.016l-0.001,0.016l-0.001,0.016l-0.001,0.016l-0.002,0.016l-0.002,0.016
			l-0.002,0.016l-0.003,0.016l-0.003,0.016l-0.003,0.016l-0.004,0.016l-0.004,0.016l-0.004,0.016
			c-0.09,0.318-0.312,0.58-0.521,0.829c-0.372,0.44-0.878,0.911-1.068,1.466c-0.052,0.158-0.073,0.329-0.047,0.494l0.005,0.031
			l0.006,0.031l0.007,0.031l0.008,0.031l0.009,0.031l0.01,0.031l0.011,0.031l0.012,0.031l0.013,0.031l0.014,0.031l0.015,0.031
			l0.016,0.032l0.017,0.032l0.018,0.032l0.019,0.032l0.02,0.032l0.021,0.032l0.022,0.032l0.023,0.032
			c0.545,0.716,1.354,1.2,2.113,1.662c3.689,2.083,8.975,4.107,12.714,6.092c2.05,1.068,4.081,2.268,5.819,3.802
			c0.948,0.839,1.841,1.773,2.508,2.854c0.341,0.567,0.638,1.188,0.703,1.854c0.027,0.298-0.003,0.608-0.131,0.882
			c-0.13,0.279-0.353,0.5-0.582,0.699c-0.332,0.301-0.886,0.637-0.903,1.131l0,0.022l0,0.022l0.001,0.022l0.002,0.023l0.002,0.023
			l0.003,0.023l0.004,0.023l0.004,0.024l0.005,0.024l0.006,0.024l0.006,0.024l0.007,0.024l0.008,0.025l0.008,0.025l0.009,0.025
			l0.01,0.025l0.01,0.026c0.179,0.416,0.484,0.766,0.786,1.099c0.512,0.55,1.119,1.086,1.687,1.579
			c2.028,1.728,4.65,3.794,6.575,5.616c2.433,2.259,4.608,4.864,6.051,7.87c0.397,0.842,0.757,1.724,0.925,2.643
			c0.064,0.39,0.106,0.804-0.013,1.188l-0.006,0.019l-0.007,0.019l-0.007,0.018l-0.007,0.018l-0.008,0.018l-0.008,0.017
			l-0.008,0.017l-0.008,0.017l-0.009,0.016l-0.009,0.016l-0.009,0.016l-0.009,0.015l-0.01,0.015l-0.01,0.015l-0.01,0.014
			l-0.011,0.014l-0.011,0.014l-0.011,0.013l-0.011,0.013l-0.012,0.013l-0.012,0.012l-0.012,0.012l-0.012,0.011l-0.013,0.011
			l-0.013,0.011l-0.013,0.01l-0.014,0.01l-0.014,0.01l-0.014,0.009l-0.014,0.009l-0.015,0.009l-0.015,0.008l-0.015,0.008
			l-0.016,0.007l-0.016,0.007l-0.016,0.007l-0.016,0.006l-0.017,0.006c-0.117,0.039-0.243,0.048-0.367,0.046
			c-0.583-0.027-1.173-0.256-1.737-0.388c-0.275-0.06-0.611-0.146-0.884-0.049l-0.008,0.003l-0.008,0.003l-0.008,0.003l-0.007,0.004
			l-0.007,0.004l-0.007,0.004l-0.007,0.004l-0.007,0.004l-0.007,0.004l-0.007,0.004l-0.007,0.004l-0.007,0.005l-0.006,0.005
			l-0.006,0.005l-0.006,0.005l-0.006,0.005l-0.016,0.014l-0.015,0.015l-0.014,0.016l-0.013,0.017l-0.012,0.018l-0.012,0.019
			l-0.011,0.02l-0.01,0.02l-0.009,0.021l-0.008,0.022l-0.008,0.023l-0.007,0.024l-0.006,0.025l-0.005,0.026l-0.005,0.027
			l-0.004,0.028l-0.003,0.028l-0.002,0.029l-0.002,0.03l-0.001,0.031l0,0.032l0,0.033l0.001,0.034l0.002,0.034l0.003,0.035
			c0.049,0.506,0.224,0.996,0.398,1.471c1.108,2.866,4.548,9.055,5.963,11.873c1.859,3.735,3.761,7.63,4.177,11.834
			c0.289,2.506-0.061,5.549-0.14,8.071c3.067-1.356,6.445-2.444,9.648-3.442c5.719-1.74,11.724-3.265,17.582-4.456
			c3.901-0.793,9.694-1.723,13.571-2.586c0.929-0.215,1.926-0.465,2.831-0.764c0.593-0.198,1.195-0.425,1.744-0.726
			c0.327-0.182,0.647-0.395,0.897-0.677l0.022-0.026l0.021-0.026l0.021-0.026l0.02-0.026l0.019-0.026l0.019-0.026l0.018-0.026
			l0.017-0.027l0.016-0.027l0.016-0.027l0.015-0.027l0.014-0.027l0.013-0.027l0.013-0.027l0.012-0.027l0.011-0.028l0.01-0.028
			l0.01-0.028c0.18-0.552-0.063-1.159-0.196-1.697c-0.113-0.438-0.199-0.927,0.007-1.35l0.013-0.027l0.014-0.027l0.015-0.026
			l0.015-0.026l0.016-0.026l0.017-0.026l0.017-0.026l0.018-0.026l0.019-0.026l0.019-0.026l0.02-0.026l0.021-0.026
			c0.306-0.362,0.717-0.62,1.129-0.845c1.155-0.607,2.444-1.002,3.688-1.384c3.952-1.145,9.342-2.41,13.036-4.138
			c2.892-1.314,5.583-3.103,8.1-5.03c1.046-0.811,4.979-3.919,5.977-4.633c0.751-0.562,3.338-2.329,4.148-2.892
			c0.8-0.584,1.66-1.174,2.309-1.929c0.14-0.171,0.271-0.358,0.342-0.569l0.005-0.016l0.005-0.016l0.005-0.016l0.004-0.016
			l0.004-0.016l0.003-0.016l0.003-0.016l0.003-0.016l0.002-0.016l0.002-0.016l0.002-0.016l0.001-0.016l0.001-0.015l0.001-0.015
			l0-0.015l0-0.015l-0.001-0.015l-0.001-0.015l-0.001-0.015l-0.002-0.015l-0.002-0.015l-0.003-0.015l-0.003-0.015l-0.003-0.014
			l-0.004-0.014l-0.004-0.014l-0.004-0.014l-0.005-0.014l-0.005-0.014l-0.006-0.014l-0.006-0.014l-0.007-0.014l-0.007-0.014
			l-0.007-0.014l-0.008-0.014l-0.008-0.013l-0.009-0.013l-0.009-0.013l-0.009-0.013l-0.01-0.013
			c-0.103-0.132-0.246-0.229-0.39-0.311c-0.33-0.183-0.699-0.307-1.057-0.423c-0.713-0.236-1.533-0.407-2.203-0.75
			c-0.111-0.062-0.221-0.132-0.307-0.228l-0.007-0.008l-0.007-0.008l-0.007-0.008l-0.006-0.008l-0.006-0.008l-0.006-0.008
			l-0.006-0.008l-0.005-0.008l-0.005-0.008l-0.005-0.008l-0.005-0.009l-0.005-0.009l-0.007-0.014l-0.006-0.014l-0.006-0.014
			l-0.005-0.015l-0.004-0.015l-0.004-0.015l-0.003-0.015l-0.002-0.015l-0.002-0.015l-0.001-0.015l0-0.015l0-0.016l0.001-0.016
			l0.001-0.016l0.002-0.016l0.003-0.016l0.003-0.016l0.004-0.016l0.005-0.016l0.005-0.016l0.006-0.016l0.006-0.017l0.007-0.017
			l0.007-0.017l0.008-0.017l0.009-0.017l0.009-0.017l0.01-0.017l0.01-0.017l0.011-0.017l0.012-0.018l0.012-0.018l0.013-0.018
			c0.162-0.219,0.378-0.394,0.593-0.558c0.578-0.429,1.236-0.795,1.866-1.143l5.146-2.695c1.578-0.86,3.14-1.814,4.524-2.964
			c1.717-1.379,3.672-3.604,5.196-5.217c1.619-1.714,3.448-3.26,5.407-4.574c2.87-1.991,6.801-4.139,9.429-6.422
			c0.601-0.556,1.248-1.191,1.505-1.987l0.009-0.033l0.009-0.032l0.008-0.032l0.007-0.032l0.007-0.032l0.006-0.032l0.005-0.032
			l0.005-0.032c0.118-0.943-0.621-1.719-1.051-2.486c-0.203-0.355-0.382-0.753-0.355-1.171l0.003-0.034l0.004-0.034l0.004-0.035
			l0.005-0.035l0.006-0.035l0.007-0.035l0.008-0.035l0.009-0.035l0.01-0.035l0.011-0.035l0.011-0.035l0.012-0.035l0.013-0.035
			l0.014-0.035l0.015-0.035l0.016-0.035l0.017-0.035l0.017-0.036l0.018-0.036c0.293-0.545,0.757-0.977,1.228-1.368
			c1.094-0.881,2.358-1.583,3.595-2.242c7.512-3.819,17.324-7.377,24.553-11.691c1.483-0.898,2.998-1.845,4.244-3.061
			c0.397-0.403,0.784-0.846,0.992-1.38l0.012-0.033l0.011-0.032l0.01-0.032l0.01-0.032l0.009-0.032l0.008-0.032l0.008-0.032
			l0.007-0.032l0.006-0.031l0.005-0.031l0.005-0.031l0.004-0.031l0.003-0.031l0.002-0.031l0.002-0.03l0.001-0.03l0-0.03l-0.001-0.03
			l-0.001-0.03l-0.002-0.03l-0.003-0.029l-0.004-0.029l-0.004-0.029l-0.005-0.029l-0.006-0.029l-0.007-0.029l-0.008-0.029
			l-0.008-0.028l-0.009-0.028l-0.01-0.028l-0.011-0.028c-0.077-0.191-0.205-0.357-0.346-0.504c-0.514-0.525-1.215-0.873-1.796-1.315
			c-0.174-0.139-0.36-0.288-0.449-0.498l-0.003-0.008l-0.003-0.008l-0.003-0.008l-0.003-0.008l-0.002-0.008l-0.002-0.008
			l-0.002-0.008l-0.002-0.008l-0.002-0.008l-0.002-0.008l-0.001-0.008l-0.001-0.008l-0.002-0.023l-0.001-0.023l0-0.023l0.002-0.023
			l0.003-0.023l0.004-0.023l0.006-0.023l0.007-0.023l0.008-0.023l0.01-0.023l0.011-0.023l0.012-0.023l0.013-0.023l0.015-0.023
			l0.016-0.023l0.017-0.023l0.019-0.023l0.02-0.023l0.021-0.023l0.022-0.023l0.024-0.023l0.025-0.023l0.026-0.023l0.027-0.023
			l0.029-0.023l0.03-0.023l0.031-0.023c0.808-0.55,1.919-0.849,2.856-1.118c2.37-0.631,4.89-1.054,7.315-1.419
			c4.32-0.63,9.021-1.093,13.379-1.361c3.837-0.26,9.68-0.27,13.557-0.381c0.726-0.029,1.536-0.069,2.258-0.154
			c0.491-0.066,1.008-0.127,1.46-0.343l0.021-0.011l0.02-0.011l0.019-0.011l0.019-0.011l0.018-0.011l0.017-0.012l0.017-0.012
			l0.016-0.012l0.015-0.012l0.015-0.012l0.014-0.012l0.013-0.012l0.013-0.013l0.012-0.013l0.011-0.013l0.011-0.013l0.01-0.013
			l0.009-0.013l0.009-0.014l0.008-0.014l0.007-0.014l0.007-0.014l0.006-0.014l0.005-0.014l0.005-0.015l0.004-0.015l0.003-0.015
			l0.003-0.015l0.002-0.015l0.001-0.016l0-0.016l0-0.016l-0.001-0.016l-0.002-0.016l-0.002-0.016l-0.003-0.017l-0.004-0.017
			l-0.005-0.017l-0.005-0.017l-0.006-0.017l-0.007-0.018l-0.007-0.018l-0.008-0.018l-0.009-0.018l-0.01-0.018
			c-0.209-0.347-0.557-0.606-0.863-0.863c-0.666-0.545-1.596-1.171-2.119-1.853c-0.101-0.138-0.192-0.289-0.232-0.457l-0.003-0.013
			l-0.003-0.013l-0.002-0.013l-0.002-0.013L517,210.163l-0.002-0.013l-0.001-0.013l-0.001-0.013l-0.001-0.013l-0.001-0.013l0-0.012
			v-0.012l0-0.012l0.001-0.012l0.001-0.012l0.001-0.012l0.001-0.012l0.002-0.012l0.002-0.012l0.002-0.012l0.008-0.035l0.01-0.034
			l0.013-0.034l0.015-0.034l0.018-0.033l0.02-0.033l0.022-0.033l0.025-0.032l0.027-0.032l0.029-0.031l0.031-0.031l0.034-0.031
			l0.036-0.03l0.038-0.03l0.04-0.03l0.043-0.029l0.045-0.029l0.047-0.029l0.049-0.028l0.051-0.028l0.053-0.028l0.055-0.027
			l0.057-0.027c0.464-0.209,0.971-0.337,1.467-0.446c0.98-0.209,2.034-0.331,3.033-0.426c3.328-0.293,6.841-0.316,10.183-0.289
			c6.104,0.079,12.701,0.414,18.781,0.94c2.653,0.242,5.664,0.556,8.283,0.989c1.743,0.28,4.963,0.944,6.712,1.001
			c0.914,0.042,1.84,0.001,2.749-0.097c2.357-0.236,7.436-1.306,9.804-1.729c2.199-0.368,4.464-0.752,6.699-0.615
			c1.658,0.091,3.353,0.618,4.991,0.86c2.042,0.312,4.122-0.076,6.125-0.477c4.346-0.884,9.161-2.388,13.595-1.409
			c1.502,0.331,2.984,0.979,4.071,2.093c0.71,0.723,1.226,1.651,1.392,2.656c0.151,0.865,0.031,1.757-0.244,2.585
			c-0.642,1.889-1.826,3.551-2.98,5.158c-1.501,2.025-4.163,5.404-5.589,7.455c-2.168,3.098-5.887,8.7-8.273,11.567
			c1.999,2.511,4.695,6.392,6.578,9.005c1.491,2.122,2.899,4.356,3.984,6.715c1.257,2.728,2.146,5.645,2.701,8.595
			c0.592,3.153,0.776,6.412,0.364,9.599c-0.194,1.494-0.641,4.327-0.706,5.787c-0.069,1.318,0.03,2.674,0.528,3.908
			c0.728,1.836,2.095,3.333,3.5,4.685c5.219,4.717,11.76,9.8,17.277,14.19c2.179,1.748,5.743,4.26,7.868,6.073
			c0.947,0.837,1.818,1.797,2.387,2.935c0.622,0.434,1.232,0.909,1.747,1.469c0.375,0.41,0.691,0.892,0.823,1.437
			c0.142,0.57,0.095,1.168,0.023,1.745c-0.141,1.08-0.379,2.164-0.665,3.215c-0.427,1.534-0.971,3.059-1.739,4.457
			c-0.525,0.944-1.175,1.842-2.02,2.526c-0.672,0.545-1.492,0.933-2.361,0.999c-1.558,1.382-3.359,2.498-5.276,3.308
			c-1.43,0.61-2.968,1.012-4.489,1.326c-2.338,0.469-5.068,0.893-7.282,1.759c-2.791,1.071-5.753,3.12-8.316,4.672
			c-2.518,1.536-5.214,2.929-8.158,3.385c-3.102,0.521-6.29,0.15-9.334-0.554c-6.091-1.414-12.454-4.395-18.612-5.536
			c-2.554-0.447-5.375-0.654-7.72,0.653c-1.042,0.569-1.948,1.368-2.744,2.244c-1.7,1.87-3.137,4.34-4.666,6.348
			c-1.763,2.338-4.248,4.803-5.922,7.208c-0.874,1.246-1.628,2.594-2.169,4.018c-0.748,1.91-1.136,4.291-1.597,6.292
			c-0.246,1.033-0.493,2.101-0.997,3.043c-0.213,0.385-0.488,0.756-0.874,0.981l-0.024,0.014l-0.024,0.013l-0.025,0.013
			l-0.025,0.012l-0.025,0.012l-0.025,0.011l-0.025,0.011l-0.026,0.011l-0.026,0.01l-0.026,0.01l-0.026,0.009l-0.026,0.009
			l-0.027,0.008l-0.027,0.008l-0.027,0.007l-0.027,0.007l-0.027,0.006l-0.028,0.006l-0.028,0.005l-0.028,0.005l-0.028,0.004
			l-0.029,0.004l-0.029,0.003l-0.029,0.003l-0.029,0.002l-0.029,0.002c-0.39,0.017-0.775-0.092-1.138-0.228
			C547.91,365.174,547.023,364.57,546.171,363.994z"/>
	</g>
</g>
</svg>
