<?xml version="1.0" encoding="utf-8"?>
<!-- Generator: Adobe Illustrator 25.4.1, SVG Export Plug-In . SVG Version: 6.00 Build 0)  -->
<!DOCTYPE svg PUBLIC "-//W3C//DTD SVG 1.1//EN" "http://www.w3.org/Graphics/SVG/1.1/DTD/svg11.dtd" [
	<!ENTITY ns_extend "http://ns.adobe.com/Extensibility/1.0/">
	<!ENTITY ns_ai "http://ns.adobe.com/AdobeIllustrator/10.0/">
	<!ENTITY ns_graphs "http://ns.adobe.com/Graphs/1.0/">
	<!ENTITY ns_vars "http://ns.adobe.com/Variables/1.0/">
	<!ENTITY ns_imrep "http://ns.adobe.com/ImageReplacement/1.0/">
	<!ENTITY ns_sfw "http://ns.adobe.com/SaveForWeb/1.0/">
	<!ENTITY ns_custom "http://ns.adobe.com/GenericCustomNamespace/1.0/">
	<!ENTITY ns_adobe_xpath "http://ns.adobe.com/XPath/1.0/">
]>
<svg version="1.1" xmlns:x="&ns_extend;" xmlns:i="&ns_ai;" xmlns:graph="&ns_graphs;"
	 xmlns="http://www.w3.org/2000/svg" xmlns:xlink="http://www.w3.org/1999/xlink" x="0px" y="0px" width="750px" height="750px"
	 viewBox="0 0 750 750" enable-background="new 0 0 750 750" xml:space="preserve">
<metadata>
	<sfw  xmlns="&ns_sfw;">
		<slices></slices>
		<sliceSourceBounds  bottomLeftOrigin="true" height="10451.314" width="5432" x="-2000" y="-1314"></sliceSourceBounds>
	</sfw>
</metadata>
<g id="FILL-BACKGROUND">
	<rect fill="#FFFFFF" width="750" height="750"/>
</g>
<g id="N-DIMENSIONS">
</g>
<g id="N-TEXT">
</g>
<g id="_x32_D_x24_AG-DIAGRAM">
	<g id="POLYLINE_00000106133759598976585800000015051122689937739412_">
		<g>
			<g>
				
					<line fill="none" stroke="#FB8604" stroke-width="3.25" stroke-linecap="round" stroke-linejoin="round" x1="125.807" y1="615.653" x2="127.807" y2="615.653"/>
				
					<line fill="none" stroke="#FB8604" stroke-width="3.25" stroke-linecap="round" stroke-linejoin="round" stroke-dasharray="3.9692,6.9462" x1="134.753" y1="615.653" x2="556.982" y2="615.653"/>
				
					<line fill="none" stroke="#FB8604" stroke-width="3.25" stroke-linecap="round" stroke-linejoin="round" x1="560.455" y1="615.653" x2="562.455" y2="615.653"/>
			</g>
		</g>
	</g>
</g>
<g id="_x32_D_x24_AG-DETAILS-DIAGRAM">
</g>
<g id="_x32_D_x24_AG-DETAILS">
	<g id="POLYLINE_00000041262648658832643010000004204963306800684720_">
		<path fill="none" stroke="#FB8604" stroke-width="2" stroke-linecap="round" stroke-linejoin="round" stroke-miterlimit="10" d="
			M508.057,482.472c-0.585-1.784-0.837-3.677-0.92-5.548c-0.1-2.498,0.108-5.024,0.585-7.477c0.489-2.362,1.158-4.785,2.519-6.804
			c0.311-0.443,0.672-0.86,1.102-1.192c0.449-0.352,0.968-0.608,1.505-0.795c0.954-0.345,2.087-0.464,2.898-1.12
			c0.598-0.49,0.981-1.188,1.283-1.888c0.501-1.193,0.805-2.494,1.094-3.753c1.628-8.247,4.52-17.233,6.63-25.376
			c0.253-0.878,0.509-1.789,0.939-2.599c0.16-0.29,0.349-0.576,0.611-0.784c0.371-0.31,0.881-0.275,1.335-0.286
			c0.276-0.008,0.558-0.04,0.814-0.15c0.258-0.107,0.476-0.291,0.657-0.501c0.349-0.407,0.605-0.891,0.836-1.372
			c0.483-1.031,0.859-2.154,1.21-3.236c1.076-3.265,2.117-7.927,3.934-10.822c1.009-1.666,2.642-3.063,4.007-4.433"/>
	</g>
	<g id="POLYLINE_00000095329856391882537920000010410350416317629340_">
		<path fill="none" stroke="#FB8604" stroke-width="2" stroke-linecap="round" stroke-linejoin="round" stroke-miterlimit="10" d="
			M415.027,497.206c1.992-3.914,4.152-7.849,6.886-11.297c3.363-4.289,7.565-7.903,11.949-11.113
			c4.91-3.54,10.087-6.891,15.642-9.329c1.109-0.465,2.266-0.903,3.441-1.164c0.584-0.124,1.191-0.218,1.79-0.16l0.054,0.006
			l0.053,0.007l0.052,0.008l0.051,0.009l0.05,0.01l0.049,0.011l0.048,0.012l0.047,0.012l0.046,0.013l0.045,0.014l0.044,0.015
			l0.043,0.016l0.042,0.017l0.041,0.018l0.04,0.019l0.039,0.02l0.038,0.021l0.037,0.022l0.036,0.023l0.035,0.024l0.034,0.025
			l0.033,0.026l0.032,0.027l0.03,0.028l0.029,0.029l0.028,0.03l0.027,0.031c0.424,0.521,0.403,1.319,0.4,1.959
			c-0.009,0.841-0.139,1.836,0.111,2.648c0.089,0.276,0.252,0.537,0.499,0.696l0.025,0.016l0.025,0.015l0.026,0.015l0.026,0.014
			l0.027,0.014l0.027,0.013l0.028,0.013l0.029,0.012l0.029,0.012l0.03,0.011l0.03,0.011l0.031,0.01l0.031,0.01l0.032,0.009
			c0.352,0.097,0.724,0.102,1.086,0.083c1.913-0.15,4.003-0.884,5.855-1.385c1.366-0.37,2.805-0.803,4.225-0.864
			c0.34-0.008,0.687,0.008,1.016,0.104l0.033,0.01l0.032,0.01l0.032,0.011l0.031,0.011l0.031,0.012l0.03,0.012l0.029,0.013
			l0.029,0.013l0.028,0.014l0.028,0.014l0.024,0.013l0.024,0.014l0.023,0.014l0.023,0.014l0.022,0.015l0.022,0.015l0.021,0.015
			l0.021,0.016l0.021,0.016l0.02,0.017l0.02,0.017l0.019,0.017l0.019,0.018l0.019,0.018l0.018,0.019l0.018,0.019l0.017,0.019
			l0.017,0.02l0.017,0.02l0.016,0.02l0.016,0.021l0.016,0.021l0.015,0.021l0.015,0.022l0.014,0.022l0.014,0.022l0.014,0.023
			l0.013,0.023l0.013,0.023c0.221,0.417,0.258,0.903,0.254,1.367c-0.111,2.438-1.092,4.91-1.269,7.343
			c-0.113,1.346,0.124,2.809,1.044,3.849c0.452,0.513,1.07,0.888,1.747,1.005c0.581,0.107,1.176-0.005,1.74-0.151
			c0.829-0.208,1.742-0.548,2.605-0.397c0.49,0.081,0.936,0.341,1.282,0.693c0.437,0.442,0.766,0.984,1.06,1.528
			c1.364,2.603,2.395,6.448,3.325,9.256c0.581,1.758,1.166,3.659,2.036,5.295c0.23,0.414,0.486,0.828,0.825,1.162l0.031,0.03
			l0.031,0.029l0.031,0.028l0.031,0.027l0.031,0.026l0.032,0.025l0.032,0.023l0.032,0.022l0.032,0.021l0.032,0.02l0.032,0.019
			l0.032,0.018l0.032,0.017l0.032,0.016l0.032,0.015c0.705,0.301,1.414-0.206,1.974-0.595c0.574-0.412,1.239-0.965,1.889-1.239
			c0.305-0.129,0.638-0.21,0.97-0.184l0.036,0.003l0.036,0.004l0.036,0.005l0.036,0.005l0.036,0.006l0.036,0.007l0.036,0.008
			l0.036,0.008l0.036,0.009l0.036,0.01l0.036,0.011l0.036,0.011l0.036,0.012c0.466,0.162,0.869,0.467,1.224,0.802
			c0.605,0.579,1.098,1.274,1.536,1.985c1.04,1.72,1.802,3.61,2.396,5.526c0.533,1.769,0.944,3.604,1.024,5.455"/>
	</g>
	<g id="POLYLINE_00000110454537480659741580000013045490003692833953_">
		<path fill="none" stroke="#FB8604" stroke-width="2" stroke-linecap="round" stroke-linejoin="round" stroke-miterlimit="10" d="
			M577.176,336.261c-1.756-0.376-3.714-0.49-5.431-1.029c-1.467-0.445-2.844-1.163-4.127-1.994
			c-5.622-3.695-11.794-9.963-17.439-13.627c-0.719-0.431-1.468-0.874-2.297-1.048l-0.045-0.008l-0.044-0.007l-0.044-0.006
			l-0.043-0.005l-0.042-0.004l-0.042-0.003l-0.041-0.002l-0.04-0.001l-0.039,0l-0.039,0.001l-0.038,0.002l-0.037,0.003
			c-0.426,0.035-0.755,0.328-1.01,0.649c-0.206,0.24-0.416,0.599-0.735,0.693l-0.011,0.003l-0.011,0.003l-0.011,0.002l-0.011,0.002
			l-0.011,0.002l-0.012,0.002l-0.012,0.001l-0.012,0.001l-0.012,0.001l-0.012,0.001l-0.012,0l-0.012,0l-0.012,0l-0.012,0l-0.012,0
			l-0.012-0.001l-0.012-0.001c-0.32-0.033-0.598-0.225-0.851-0.411c-0.44-0.337-0.838-0.748-1.217-1.152
			c-1.629-1.859-3.87-4.378-5.596-6.172c-0.872-0.957-1.733-1.975-2.476-3.034c-0.764-1.061-1.786-2.91-2.457-4.058
			c-0.692-1.139-1.408-2.33-2.476-3.157c-0.394-0.298-0.851-0.525-1.342-0.603c-1.016-0.165-2.115,0.181-3.102,0.395
			c-0.573,0.114-1.29,0.282-1.821-0.038c-0.209-0.128-0.372-0.321-0.499-0.528c-0.525-0.91-0.722-2.171-1.028-3.172
			c-0.595-2.238-1.817-4.258-3.097-6.167c-1.874-2.729-4.504-6.265-5.91-9.223c-1.377-2.78-2.381-5.769-2.904-8.829
			c-0.679-4.076-0.676-8.474,1.148-12.266c0.923-1.914,2.367-3.524,3.863-5.009c1.717-1.685,4.167-3.878,5.611-5.754
			c1.27-1.586,2.662-3.823,4.014-5.337c0.782-0.878,1.683-1.684,2.749-2.199c0.999-0.485,2.113-0.695,3.217-0.735
			c1.565-0.054,3.132,0.208,4.643,0.6c2.162,0.569,4.269,1.432,6.277,2.409c3.359,1.614,7.07,3.931,10.727,4.759
			c1.057,0.239,2.15,0.36,3.233,0.305c1.102-0.054,2.195-0.296,3.244-0.632c4.875-1.597,9.457-5.162,14.43-6.505
			c1.697-0.456,3.475-0.635,5.23-0.599c2.356,0.046,4.715,0.463,7.007,0.99c1.659,0.351,11.586,3.056,13.398,3.519
			c4.212,1.158,8.597,2.475,12.621,4.181"/>
	</g>
	<g id="POLYLINE_00000022518259526055077270000006357966776322331796_">
		<path fill="none" stroke="#FB8604" stroke-width="2" stroke-linecap="round" stroke-linejoin="round" stroke-miterlimit="10" d="
			M153.797,509.502c2.414-2.299,5.449-3.956,8.596-5.016c1.782-0.563,3.691-0.994,5.563-0.7c0.722,0.118,1.417,0.409,1.995,0.86
			c0.937,0.706,1.661,1.858,2.351,2.796c0.477,0.642,1.004,1.281,1.701,1.691c0.82,0.487,1.794,0.645,2.737,0.62
			c1.574-0.048,3.107-0.526,4.552-1.124c3.611-1.509,7.248-4.324,10.695-6.16c1.11-0.587,2.27-1.129,3.493-1.431
			c0.839-0.205,1.727-0.282,2.575-0.09c1.685,0.374,3.115,1.587,4.562,2.463c0.852,0.52,1.78,0.972,2.783,1.088
			c0.979,0.114,1.97-0.082,2.896-0.394c2.421-0.851,4.554-2.379,6.591-3.907c5.784-4.521,11.497-9.972,17.534-14.158
			c2.967-2.089,6.173-3.913,9.605-5.117l4.126-1.465c2.056-0.752,4.1-1.65,5.969-2.793c2.951-1.806,5.62-4.108,8.095-6.516
			c3.19-3.131,6.136-6.585,8.787-10.183c2.042-2.709,4.466-6.711,6.287-9.61c0.794-1.214,1.623-2.482,2.624-3.534
			c0.443-0.457,0.934-0.89,1.514-1.165c0.583-0.287,1.25-0.301,1.884-0.235c0.604,0.05,1.286,0.197,1.868-0.033
			c0.458-0.187,0.777-0.596,1.031-1.005c0.256-0.418,0.463-0.881,0.651-1.333c0.652-1.629,1.294-3.668,2.061-5.242
			c1.795-3.778,4.57-7.253,7.15-10.53"/>
	</g>
</g>
<g id="_x32_D_x24_AG-ANIMALS">
	<g id="POLYLINE_00000122702863244040346220000011586317040325100200_">
		
			<path fill="none" stroke="#FB8604" stroke-width="2.75" stroke-linecap="round" stroke-linejoin="round" stroke-miterlimit="10" d="
			M288.853,462.45c1.204,1.927,2.552,3.806,4.175,5.404c2.148,2.126,4.671,3.864,7.258,5.41c1.465,0.844,2.978,1.699,4.6,2.198
			c0.342,0.093,0.699,0.181,1.055,0.147l0.02-0.002l0.019-0.003l0.019-0.003l0.019-0.003l0.018-0.004l0.018-0.004l0.017-0.004
			l0.017-0.005l0.017-0.005l0.016-0.005l0.016-0.006l0.016-0.006l0.015-0.006l0.015-0.007l0.014-0.007l0.014-0.007l0.014-0.008
			l0.013-0.008l0.013-0.008l0.012-0.009c0.198-0.148,0.229-0.416,0.256-0.644c0.038-0.336,0.033-0.728,0.241-1.012l0.012-0.015
			l0.012-0.015l0.013-0.015l0.013-0.014l0.013-0.014l0.014-0.014l0.014-0.013l0.015-0.013l0.015-0.013l0.015-0.013l0.016-0.012
			l0.016-0.012l0.017-0.012l0.017-0.012l0.017-0.011l0.018-0.011l0.018-0.011l0.019-0.011l0.019-0.01l0.02-0.01l0.02-0.01
			l0.02-0.009c0.536-0.226,1.15-0.185,1.718-0.138c1.756,0.199,3.482,0.749,5.153,1.305c5.851,1.93,12.212,5.49,18.019,7.547
			c0.992,0.327,2.018,0.625,3.061,0.725c0.561,0.048,1.145,0.042,1.679-0.151c0.613-0.217,1.051-0.735,1.399-1.263l0.391-0.599
			c0.216-0.317,0.452-0.65,0.801-0.829c0.252-0.129,0.546-0.146,0.823-0.112c0.457,0.059,0.894,0.234,1.311,0.425
			c2.014,0.991,4.02,2.484,6.042,3.461c3.78,1.931,8.385,3.332,12.433,4.646c4.095,1.281,8.534,2.687,12.726,3.573
			c1.395,0.277,2.845,0.551,4.272,0.539c0.423-0.011,0.859-0.044,1.26-0.188l0.032-0.012l0.031-0.012l0.03-0.013l0.03-0.013
			l0.029-0.014l0.028-0.014l0.028-0.014l0.027-0.015l0.026-0.015l0.025-0.016l0.025-0.016l0.024-0.017l0.023-0.017l0.022-0.017
			l0.022-0.018l0.021-0.018l0.02-0.019l0.019-0.019c0.24-0.24,0.3-0.593,0.324-0.918l0.024-0.383c0.017-0.178,0.026-0.38,0.15-0.521
			l0.007-0.008l0.008-0.007l0.008-0.007l0.008-0.007l0.008-0.007l0.008-0.006l0.009-0.006l0.009-0.006l0.009-0.006l0.009-0.005
			l0.01-0.005l0.01-0.005l0.01-0.005l0.01-0.004l0.01-0.004l0.011-0.004l0.011-0.004l0.011-0.004l0.011-0.003l0.012-0.003
			l0.012-0.003l0.012-0.003l0.012-0.002l0.012-0.002l0.013-0.002l0.013-0.002l0.013-0.001l0.013-0.001
			c0.299-0.018,0.594,0.081,0.874,0.175c0.634,0.228,1.297,0.558,1.903,0.858c1.745,0.878,3.836,1.974,5.645,2.665
			c4.86,1.884,10.206,2.854,15.399,2.085c4.124-0.619,8.005-2.4,11.453-4.704"/>
	</g>
	<g id="POLYLINE_00000069394705213466445960000006430596094902884264_">
		
			<path fill="none" stroke="#FB8604" stroke-width="2.75" stroke-linecap="round" stroke-linejoin="round" stroke-miterlimit="10" d="
			M418.13,431.288l-6.57,45.276c-0.129,0.979-0.292,2.162-0.369,3.138c-0.074,0.995-0.123,2.017,0.071,3.001
			c0.085,0.404,0.219,0.81,0.477,1.138c0.166,0.214,0.389,0.379,0.633,0.493c0.467,0.213,0.931,0.297,1.269,0.728
			c0.192,0.238,0.314,0.525,0.41,0.813c0.434,1.457,0.488,3.093,0.618,4.603c0.278,4.014,0.453,12.36,1.133,16.2
			c0.13,0.671,0.283,1.353,0.574,1.974c0.154,0.325,0.356,0.628,0.606,0.887c0.407,0.424,0.991,0.772,1.451,1.136
			c0.914,0.705,1.566,1.686,2.11,2.691c0.985,1.852,1.639,3.88,2.091,5.924c0.76,3.481,1.025,7.838,1.893,11.293
			c0.553,2.191,1.498,4.307,2.906,6.084c0.554,0.703,1.189,1.364,1.862,1.953c0.873,0.766,1.945,1.561,2.734,2.416
			c0.709,0.755,1.261,1.655,1.627,2.623c1.025,2.775,1.485,6.727,2.066,9.637c1.032,5.189,2.244,10.506,4.077,15.474
			c0.577,1.475,1.201,2.976,2.153,4.254c0.328,0.422,0.708,0.831,1.198,1.063c0.387,0.187,0.825,0.229,1.25,0.219
			c0.502-0.011,1.072-0.068,1.546,0.124c0.291,0.113,0.543,0.308,0.768,0.521c0.405,0.388,0.759,0.86,1.094,1.309
			c2.445,3.539,5.286,7.049,8.154,10.243c1.272,1.377,2.568,2.922,4.039,4.083c0.452,0.341,0.953,0.64,1.508,0.772
			c0.489,0.121,1.002,0.093,1.493-0.004c0.894-0.169,1.876-0.526,2.789-0.571c0.479-0.027,0.972,0.032,1.411,0.232
			c0.45,0.201,0.823,0.542,1.139,0.916c0.607,0.727,1.057,1.586,1.476,2.431c2.485,5.355,4.57,11.437,7.687,16.466
			c1.074,1.701,2.374,3.429,4.292,4.213c1.198,0.5,2.522,0.583,3.806,0.603c2.93-0.063,37.699,0.155,39.498-0.119
			c0.746-0.081,1.509-0.207,2.188-0.543c0.446-0.22,0.839-0.55,1.126-0.957c0.476-0.674,0.705-1.489,0.867-2.289
			c0.276-1.436,0.316-2.927,0.262-4.385c-0.079-1.8-0.311-3.62-0.776-5.362c-0.574-2.177-1.673-4.325-3.566-5.63
			c-1.295-0.912-2.837-1.403-4.37-1.744c-4.02-0.895-8.572-0.814-12.485-2.175c-1.049-0.378-2.04-0.955-2.814-1.766
			c-1.237-1.288-1.976-2.968-2.722-4.567c-1.402-3.043-2.611-6.246-3.436-9.496c-0.925-3.561-1.42-7.353-1.845-11.006
			c-0.474-4.644-1.394-14.126-1.799-18.737c-0.816-9.312-0.761-18.797,0.266-28.089c0.79-7.374,1.968-14.829,3.802-22.019
			c0.718-2.752,1.549-5.593,2.609-8.231c0.527-1.281,1.104-2.578,1.92-3.704c0.365-0.497,0.791-0.965,1.305-1.312
			c0.473-0.336,1.07-0.52,1.614-0.704c0.813-0.285,1.569-0.723,2.274-1.214c1.597-1.119,3.125-2.461,4.549-3.792
			c2.02-1.904,4.75-4.709,6.904-6.399c0.452-0.346,0.927-0.683,1.446-0.921c0.346-0.157,0.721-0.272,1.104-0.263
			c0.366-0.001,0.735,0.159,1.07,0.293c0.901,0.372,1.771-0.279,2.407-0.865c1.783-1.735,3.231-3.976,4.674-5.998
			c1.148-1.601,4.405-6.75,5.655-8.089c0.317-0.321,0.679-0.651,1.136-0.734c0.397-0.067,0.789,0.087,1.141,0.258l0.477,0.238
			c0.278,0.133,0.579,0.263,0.894,0.24c0.281-0.021,0.535-0.166,0.753-0.336c0.461-0.367,0.834-0.848,1.2-1.307
			c2.905-3.847,6.151-8.089,8.402-12.348c0.44-0.804,1.521-2.979,2.015-3.706c0.145-0.215,0.303-0.428,0.487-0.611
			c0.283-0.293,0.634-0.44,1.03-0.511c0.294-0.056,0.634-0.1,0.907-0.227c0.201-0.09,0.38-0.227,0.527-0.39
			c0.202-0.225,0.363-0.488,0.507-0.753c0.607-1.166,1.098-2.628,1.569-3.857c1.611-4.687,2.309-10.064,3.134-14.951"/>
	</g>
	<g id="POLYLINE_00000183949299259089070540000007442141457941014962_">
		
			<path fill="none" stroke="#FB8604" stroke-width="2.75" stroke-linecap="round" stroke-linejoin="round" stroke-miterlimit="10" d="
			M534.4,183.718c1.182-1.353,3.606-3.817,4.874-5.141c1.117-1.187,2.248-2.48,3.239-3.773c1.377-1.783,3.539-4.966,4.957-6.701
			c0.798-0.975,1.648-1.944,2.651-2.714c0.611-0.465,1.306-0.85,2.069-0.987c0.735-0.139,1.515-0.017,2.167,0.35
			c1.182,0.659,1.885,1.909,2.306,3.155c0.734,2.231,0.906,4.637,1.064,6.968c0.109,2.343,0.287,6.935,0.494,9.213
			c0.262,3.219,0.807,6.983,1.318,10.186"/>
	</g>
	<g id="POLYLINE_00000156563015303754591860000002602365927017870742_">
		
			<path fill="none" stroke="#FB8604" stroke-width="2.75" stroke-linecap="round" stroke-linejoin="round" stroke-miterlimit="10" d="
			M535.104,203.969c-1.005-7.249-2.5-14.843-4.213-21.961c-0.972-3.831-2.111-7.714-3.725-11.327
			c-0.918-2.001-1.999-3.992-3.569-5.559c-0.771-0.763-1.686-1.402-2.718-1.755c-1.521-0.531-3.322-0.471-4.678,0.458
			c-0.662,0.445-1.157,1.099-1.515,1.804c-0.506,0.994-0.811,2.091-1.087,3.168c-0.486,1.971-0.982,4.404-1.702,6.284
			c-0.453,1.206-1.046,2.372-1.738,3.458c-1.688,2.648-3.974,4.883-6.483,6.753c-1.84,1.361-3.816,2.607-5.934,3.488l-6.715,2.784
			c-5.793,2.559-11.548,5.438-16.738,9.087c-0.797,0.582-1.603,1.205-2.306,1.899c-0.337,0.34-0.672,0.702-0.901,1.126l-0.018,0.035
			l-0.017,0.035l-0.016,0.034l-0.015,0.034L471,203.846l-0.013,0.033l-0.012,0.033l-0.011,0.032l-0.01,0.032l-0.009,0.032
			l-0.008,0.031l-0.007,0.031l-0.006,0.03l-0.005,0.03l-0.003,0.03l-0.002,0.029l-0.001,0.029l0,0.028l0.001,0.028l0.002,0.027
			l0.003,0.027l0.004,0.027l0.005,0.026l0.006,0.026l0.008,0.025l0.009,0.025l0.01,0.024l0.011,0.024l0.012,0.023l0.013,0.023
			c0.216,0.334,0.715,0.483,1.077,0.603c0.468,0.153,1.093,0.277,1.519,0.528c0.083,0.052,0.164,0.114,0.221,0.195l0.01,0.014
			l0.009,0.015l0.008,0.015l0.008,0.015l0.007,0.015l0.007,0.016l0.006,0.016l0.005,0.016l0.005,0.016l0.004,0.016l0.003,0.017
			l0.003,0.017l0.002,0.017l0.002,0.017l0.001,0.017l0,0.018l0,0.018l-0.001,0.018l-0.001,0.018l-0.002,0.018l-0.003,0.019
			l-0.003,0.019l-0.004,0.019l-0.004,0.019l-0.005,0.019l-0.006,0.02l-0.006,0.02l-0.007,0.02l-0.007,0.02l-0.008,0.02l-0.008,0.02
			l-0.009,0.021l-0.01,0.021l-0.01,0.021c-0.214,0.408-0.56,0.732-0.895,1.04c-2.438,2.119-8.603,5.728-11.353,7.558
			c-3.075,2.051-6.243,4.172-8.867,6.79c-0.826,0.861-1.65,1.794-2.075,2.926c-0.131,0.362-0.199,0.75-0.173,1.136
			c0.031,0.599,0.278,1.204,0.439,1.776c0.135,0.475,0.182,0.955-0.068,1.403c-0.169,0.315-0.417,0.58-0.679,0.82
			c-1.105,0.999-3.369,2.21-4.636,3.021c-2.836,1.757-5.412,3.952-7.785,6.289c-3.125,3.096-6.023,6.543-8.634,10.082
			c-0.896,1.236-1.81,2.555-2.545,3.893c-0.341,0.63-0.665,1.286-0.87,1.974c-0.116,0.416-0.21,0.867-0.09,1.292l0.006,0.019
			l0.006,0.019l0.006,0.018l0.007,0.018c0.151,0.4,0.543,0.629,0.852,0.895c0.141,0.123,0.277,0.272,0.317,0.461l0.003,0.013
			l0.002,0.013l0.002,0.013l0.002,0.013l0.002,0.013l0.001,0.013l0.001,0.013l0.001,0.014l0.001,0.014l0,0.014l0,0.014
			c-0.003,0.229-0.09,0.449-0.186,0.653c-0.591,1.163-2.191,2.911-2.995,3.957c-2.562,3.083-4.172,7.129-6.226,10.541
			c-0.724,1.193-1.538,2.357-2.458,3.406c-1.454,1.675-3.416,3.398-5.013,4.948c-0.762,0.75-1.53,1.533-2.152,2.405
			c-0.319,0.452-0.604,0.94-0.774,1.469c-0.162,0.497-0.216,1.025-0.22,1.547c-0.003,1.007,0.138,2.063-0.111,3.052
			c-0.322,1.282-1.165,2.361-2.038,3.324c-1.552,1.666-3.397,3.068-5.257,4.371c-3.09,2.125-6.427,4.085-9.78,5.765
			c-3.425,1.685-7.016,3.186-10.781,3.899c-2.159,0.407-4.392,0.429-6.581,0.307c-4.224-0.313-9.289-0.584-13.491-0.432
			c-10.652,0.287-21.918,1.365-32.492,2.708"/>
	</g>
	<g id="POLYLINE_00000016770131689619832080000011223853794706178176_">
		
			<path fill="none" stroke="#FB8604" stroke-width="2.75" stroke-linecap="round" stroke-linejoin="round" stroke-miterlimit="10" d="
			M621.087,249.832c-0.703-0.645-1.513-1.205-2.321-1.712c-6.82-3.961-15.779-8.734-22.762-12.373
			c-2.466-1.298-5.049-2.634-7.098-4.543c-0.827-0.769-1.569-1.648-2.164-2.609c-0.722-1.166-1.251-2.457-1.693-3.752
			c-1.149-3.39-1.899-7.49-3.309-10.784c-0.841-1.984-2.001-3.834-3.375-5.492c-1.942-2.347-4.293-4.358-6.707-6.204
			c-4.198-3.176-8.795-6.144-13.334-8.808c-4.353-2.524-8.971-4.968-13.626-6.882c-4.28-1.776-8.829-3.028-13.47-3.283"/>
	</g>
	<g id="POLYLINE_00000139994154069924878950000011586410791621698219_">
		
			<path fill="none" stroke="#FB8604" stroke-width="2.75" stroke-linecap="round" stroke-linejoin="round" stroke-miterlimit="10" d="
			M512.248,260.667c0.719,1.137,2.558,3.435,3.393,4.534c0.365,0.489,0.746,1.002,1.046,1.531c0.131,0.227,0.234,0.512,0.369,0.737
			c0.117,0.194,0.293,0.292,0.513,0.325c0.199,0.032,0.405,0.028,0.605,0.019c1.396-0.103,3.104-0.428,4.498-0.543
			c2.814-0.258,5.876-0.181,8.315,1.415c2.555,1.633,4.318,4.379,6.211,6.684c0.363,0.412,0.736,0.856,1.233,1.109l0.021,0.01
			l0.021,0.009l0.021,0.009l0.021,0.008l0.021,0.008l0.021,0.007l0.021,0.007l0.021,0.006l0.02,0.006l0.02,0.005l0.02,0.005
			l0.02,0.004l0.02,0.004l0.02,0.003l0.02,0.002l0.02,0.002c0.412,0.028,0.736-0.288,1.014-0.55
			c0.391-0.378,0.788-0.839,1.301-1.048c0.309-0.129,0.654-0.142,0.982-0.093c0.545,0.082,1.063,0.3,1.557,0.538
			c2.461,1.262,4.832,3.115,7.377,4.217c3.133,1.399,6.629,1.719,10.022,1.83c1.98,0.051,6.859,0.107,8.728,0.242
			c2.904,0.176,6.301,0.613,9.199,1.019c5.048,0.678,10.953,1.82,16.019,1.843c1.989-0.012,4.023-0.269,5.842-1.112
			c1.683-0.76,3.092-2.009,4.337-3.352c2.233-2.404,4.57-5.758,6.904-8.062c2.073-2.072,4.777-3.947,6.785-6.084"/>
	</g>
	<g id="POLYLINE_00000045606578292612697400000007685643990710122409_">
		
			<path fill="none" stroke="#FB8604" stroke-width="2.75" stroke-linecap="round" stroke-linejoin="round" stroke-miterlimit="10" d="
			M618.826,265.961c-2.393,0.701-5.148-0.184-6.747-2.082c-0.745-0.879-1.198-1.97-1.462-3.084c-0.367-1.575-0.397-3.223-0.19-4.823
			c0.285-1.983,0.885-4.172,2.601-5.388c0.771-0.545,1.691-0.836,2.612-1.005c1.437-0.257,2.928-0.245,4.365,0.004
			c1.702,0.3,3.554,1.004,4.394,2.623c0.468,0.895,0.589,1.93,0.58,2.929c-0.029,1.669-0.424,3.323-0.998,4.885
			C623.047,262.489,621.491,265.132,618.826,265.961z"/>
	</g>
	<g id="POLYLINE_00000102524909949126161490000009114251448792148875_">
		
			<path fill="none" stroke="#FB8604" stroke-width="2.75" stroke-linecap="round" stroke-linejoin="round" stroke-miterlimit="10" d="
			M447.134,305.11c3.524,6.104,12.98,21.461,16.805,27.433c1.573,2.366,3.246,4.79,5.102,6.944c0.697,0.797,1.442,1.59,2.266,2.256
			c0.462,0.368,0.959,0.714,1.513,0.927l0.054,0.02l0.053,0.019l0.053,0.017l0.053,0.016l0.052,0.015l0.052,0.013l0.051,0.012
			l0.051,0.011l0.051,0.01l0.05,0.008l0.05,0.007l0.049,0.006l0.049,0.004l0.049,0.003l0.048,0.002l0.048,0
			c1.185-0.025,1.948-1.213,2.754-1.93c0.283-0.253,0.603-0.501,0.987-0.564l0.025-0.004l0.025-0.003l0.025-0.003l0.025-0.002
			l0.025-0.001l0.025-0.001l0.025,0l0.025,0l0.025,0.001l0.025,0.001l0.026,0.002l0.026,0.002l0.026,0.003l0.026,0.003l0.026,0.004
			l0.026,0.004l0.026,0.005l0.026,0.005l0.026,0.006c0.672,0.177,1.199,0.678,1.676,1.157c0.475,0.492,0.924,1.058,1.337,1.606
			c1.841,2.489,3.849,5.835,5.732,8.287c3.952,5.145,9.001,10.108,12.468,15.669c2.327,3.577,5.322,9.491,7.479,13.211
			c0.538,0.91,1.131,1.882,1.763,2.73c0.399,0.52,0.817,1.057,1.373,1.417l0.03,0.018l0.03,0.017l0.029,0.016l0.029,0.015
			l0.029,0.014l0.029,0.014l0.029,0.013l0.028,0.012l0.028,0.011l0.028,0.01l0.028,0.009l0.028,0.008l0.027,0.007l0.027,0.006
			l0.027,0.005l0.027,0.005l0.027,0.004l0.026,0.003l0.026,0.002l0.026,0.001l0.026,0l0.026-0.001l0.025-0.002l0.025-0.003
			l0.025-0.004l0.025-0.005l0.025-0.006c0.409-0.12,0.682-0.583,0.9-0.924l0.374-0.628c0.221-0.348,0.494-0.811,0.908-0.941
			l0.019-0.005l0.019-0.005l0.019-0.004l0.019-0.004l0.02-0.003l0.02-0.002l0.02-0.002l0.02-0.001l0.02-0.001l0.02,0l0.02,0
			l0.02,0.001l0.02,0.001l0.021,0.002l0.021,0.002l0.021,0.003l0.021,0.003l0.021,0.004l0.021,0.005l0.021,0.005l0.021,0.006
			l0.022,0.006l0.022,0.007l0.022,0.007l0.022,0.008l0.022,0.008c0.265,0.101,0.497,0.274,0.713,0.456
			c0.687,0.601,1.258,1.348,1.813,2.069l2.972,4.042c0.926,1.21,1.928,2.4,3.075,3.407c1.145,1.019,2.44,1.886,3.762,2.659
			l4.071,2.312c4.051,2.331,7.814,6.077,11.602,8.794c0.905,0.639,1.85,1.257,2.867,1.705c0.619,0.267,1.284,0.482,1.965,0.475
			c0.598-0.004,1.178-0.193,1.72-0.434c0.607-0.258,1.256-0.649,1.917-0.73c0.723-0.1,1.392,0.296,1.939,0.727
			c0.734,0.586,1.37,1.311,1.98,2.022c1.457,1.733,3.045,3.828,4.802,5.253c0.843,0.682,1.773,1.315,2.834,1.592
			c0.608,0.157,1.275,0.154,1.852-0.112c0.764-0.347,1.317-1.025,1.739-1.731c0.678-1.157,1.081-2.461,1.392-3.759
			c0.654-2.794,0.826-5.743,0.926-8.605l0.184-8.993c0.074-1.597,0.134-3.253,0.5-4.813c0.102-0.398,0.226-0.801,0.446-1.152
			l0.019-0.029l0.019-0.028l0.019-0.027l0.019-0.026l0.02-0.026l0.02-0.025l0.02-0.024l0.02-0.023l0.021-0.022l0.021-0.022
			l0.021-0.021l0.021-0.02l0.022-0.019c0.299-0.265,0.723-0.279,1.103-0.252c0.45,0.029,0.957,0.106,1.383-0.079l0.025-0.011
			l0.025-0.012l0.025-0.012l0.025-0.013l0.025-0.014l0.025-0.014l0.025-0.015l0.024-0.015l0.024-0.016l0.024-0.017l0.024-0.017
			l0.024-0.018l0.024-0.018c0.568-0.467,0.869-1.174,1.123-1.847c0.822-2.414,1.049-5.017,1.265-7.545
			c0.543-7.012,0.096-15.98,0.083-23.038c0.006-1.598,0.021-3.434,0.162-5.023c0.094-0.886,0.176-1.887,0.559-2.696l0.016-0.031
			l0.016-0.03l0.017-0.029l0.017-0.028l0.017-0.027l0.017-0.026l0.017-0.025l0.018-0.024l0.018-0.023l0.018-0.022l0.018-0.021
			l0.019-0.02l0.019-0.019l0.019-0.018l0.019-0.017l0.02-0.016l0.02-0.015l0.02-0.014l0.02-0.013l0.021-0.012l0.021-0.011
			c0.239-0.116,0.513-0.032,0.749,0.05c0.27,0.09,0.582,0.252,0.873,0.217l0.012-0.002l0.012-0.002l0.012-0.002l0.011-0.003
			l0.011-0.003l0.011-0.003l0.011-0.003l0.011-0.004l0.011-0.004l0.011-0.004l0.011-0.004l0.011-0.004l0.011-0.005l0.011-0.005
			l0.011-0.005l0.011-0.005l0.01-0.006l0.01-0.006l0.01-0.006l0.01-0.006l0.01-0.007l0.01-0.007l0.01-0.007l0.01-0.007l0.01-0.008
			l0.01-0.008l0.01-0.008c0.167-0.142,0.269-0.343,0.349-0.543c0.222-0.589,0.289-1.227,0.342-1.85
			c0.155-2.332-0.056-4.773-0.25-7.1c-0.305-3.597-0.94-8.369-0.903-11.949c0.029-0.652,0.045-1.337,0.291-1.95l0.011-0.025
			l0.012-0.024l0.012-0.023l0.012-0.023l0.012-0.022l0.012-0.021l0.013-0.021l0.013-0.02l0.013-0.019l0.013-0.018l0.014-0.018
			l0.014-0.017l0.014-0.016l0.015-0.015l0.015-0.015l0.015-0.014l0.015-0.013l0.016-0.012l0.016-0.011l0.016-0.011
			c0.098-0.064,0.219-0.082,0.334-0.075c0.426,0.022,0.901,0.342,1.323,0.24l0.016-0.005l0.015-0.005l0.015-0.005l0.015-0.006
			l0.015-0.006l0.015-0.007l0.015-0.007l0.015-0.008l0.014-0.008l0.014-0.009l0.014-0.009l0.014-0.01l0.014-0.01l0.014-0.01
			l0.014-0.011l0.013-0.011l0.013-0.012l0.013-0.012l0.013-0.013l0.013-0.013l0.013-0.014l0.013-0.014l0.013-0.014l0.012-0.015
			l0.012-0.015l0.012-0.016l0.012-0.016c0.284-0.418,0.369-0.937,0.446-1.427c0.148-1.122,0.125-2.289,0.078-3.418
			c-0.107-2.237-0.398-4.585-0.73-6.801c-0.906-5.825-2.267-11.717-3.955-17.364c-0.687-2.235-1.447-4.587-2.39-6.727
			c-0.661-1.562-1.728-3.28-2.601-4.737"/>
	</g>
	<g id="POLYLINE_00000036233723965058308640000013516685893469293751_">
		
			<path fill="none" stroke="#FB8604" stroke-width="2.75" stroke-linecap="round" stroke-linejoin="round" stroke-miterlimit="10" d="
			M145.027,606.908c2.092,2.53,4.323,5.059,7.054,6.914c0.923,0.614,1.921,1.136,2.987,1.45c0.917,0.277,1.885,0.372,2.84,0.378
			l22.243,0.002l1.977-0.011c1.76-0.05,3.662-0.083,5.199-1.048c0.76-0.481,1.352-1.186,1.801-1.958
			c0.709-1.226,1.102-2.616,1.304-4.011c0.511-3.663-0.34-7.391-1.666-10.799c-0.397-0.987-0.855-1.972-1.414-2.878
			c-0.483-0.779-1.078-1.511-1.84-2.033c-0.55-0.382-1.175-0.65-1.811-0.855c-2.569-0.775-5.718-1.142-8.319-1.797
			c-1.2-0.308-2.441-0.665-3.436-1.433c-0.487-0.379-0.886-0.869-1.156-1.423c-0.424-0.862-0.573-1.831-0.635-2.781
			c-0.148-3.782,0.535-7.875,0.982-11.635c0.736-5.317,1.646-10.843,3.02-16.029c1.098-4.178,2.608-8.309,4.819-12.034
			c2.187-3.727,5.079-7.028,8.275-9.922c3.196-2.902,6.728-5.473,10.408-7.725c2.737-1.681,5.728-3.254,8.638-4.619
			c3.01-1.463,13.154-5.583,16.377-6.952c7.923-3.331,15.505-7.653,22.429-12.742c5.077-3.73,9.958-7.863,14.231-12.5
			c1.322-1.412,2.973-3.502,4.259-4.927c0,0,0.13-0.137,0.13-0.137s0.127-0.13,0.127-0.13s0.062-0.062,0.062-0.062
			c0.146-0.144,0.313-0.3,0.474-0.43c0.276-0.224,0.588-0.418,0.939-0.497c0.245-0.058,0.5-0.061,0.75-0.04
			c0,0,0.053,0.005,0.053,0.005s0.053,0.005,0.053,0.005s0.054,0.006,0.054,0.006s0.108,0.013,0.108,0.013s0.568,0.077,0.568,0.077
			l0.121,0.014c0,0,0.123,0.013,0.123,0.013s0.063,0.006,0.063,0.006s0.064,0.005,0.064,0.005s0.064,0.005,0.064,0.005l0.065,0.004
			c0.768,0.053,1.537-0.121,2.249-0.401c0.793-0.308,1.557-0.714,2.286-1.151c2.461-1.497,4.697-3.401,6.474-5.674
			c2.366-2.976,3.994-6.858,5.65-10.244c0.461-0.92,0.947-1.861,1.573-2.681c0.336-0.436,0.724-0.845,1.191-1.141
			c0.746-0.475,1.689-0.585,2.541-0.758c0.505-0.104,1.013-0.24,1.472-0.48c0.341-0.176,0.652-0.41,0.928-0.676
			c0.618-0.6,1.081-1.344,1.468-2.108c0.623-1.248,1.062-2.596,1.427-3.939c0.815-3.068,1.274-6.273,1.515-9.436
			c0.296-3.959,0.183-7.988-0.511-11.901c-0.657-3.988-2.344-8.739-3.424-12.641c-0.259-0.96-0.512-1.961-0.639-2.948
			c-0.164-1.191-0.053-2.375,0.339-3.513c0.25-0.735,0.6-1.74,0.732-2.511c0.157-0.847,0.201-1.719,0.191-2.579
			c-0.117-4.186-1.106-8.381-2.023-12.453"/>
	</g>
	<g id="POLYLINE_00000110460268461530610730000005577927782267272344_">
		
			<path fill="none" stroke="#FB8604" stroke-width="2.75" stroke-linecap="round" stroke-linejoin="round" stroke-miterlimit="10" d="
			M219.648,324.503c3.169-1.849,6.695-3.413,10.433-3.341c2.211,0.027,4.397,0.594,6.429,1.446c2.662,1.125,5.109,2.761,7.218,4.733
			c1.941,1.815,3.596,3.951,4.862,6.287c1.289,2.321,2.405,5.203,3.427,7.665c0.338,0.796,0.701,1.638,1.133,2.388
			c0.24,0.402,0.502,0.813,0.883,1.096l0.021,0.015l0.021,0.014l0.021,0.014l0.021,0.013l0.021,0.013l0.021,0.012l0.021,0.012
			l0.021,0.011l0.021,0.01l0.021,0.01l0.022,0.009l0.022,0.009l0.022,0.008l0.022,0.007l0.022,0.007l0.022,0.006l0.022,0.006
			l0.022,0.005c0.363,0.077,0.718-0.097,1.027-0.272c0.821-0.49,1.641-1.18,2.649-1.167c0.777,0.008,1.509,0.344,2.16,0.744
			c1.267,0.799,2.326,1.901,3.284,3.042c2.569,3.138,4.482,6.79,5.931,10.566c1.926,5,3,11.355,4.11,16.614
			c0.415,1.816,0.823,3.7,1.617,5.393c0.272,0.553,0.597,1.102,1.068,1.509l0.034,0.029l0.035,0.028l0.035,0.027l0.035,0.026
			l0.035,0.025l0.036,0.025c3.086,2.067,8.631-5.685,10.276-7.885c2.137-2.883,5.256-7.796,7.741-10.272
			c0.403-0.376,0.834-0.753,1.353-0.958l0.03-0.011l0.03-0.01l0.03-0.01l0.029-0.009l0.029-0.008l0.029-0.007l0.029-0.007
			l0.029-0.006l0.028-0.005l0.028-0.005l0.028-0.004l0.028-0.003l0.027-0.002l0.027-0.002l0.027-0.001l0.027,0l0.027,0l0.026,0.001
			c0.364,0.021,0.661,0.269,0.903,0.522c0.488,0.505,0.876,1.199,1.529,1.514c0.46,0.214,0.993,0.154,1.464,0.006
			c0.597-0.189,1.149-0.509,1.667-0.855c0.872-0.59,1.683-1.302,2.445-2.027c3.369-3.267,6.226-7.123,8.188-11.394
			c0.714-1.565,1.307-3.203,1.733-4.87c0.564-2.155,0.842-4.651,1.23-6.845c0.11-0.585,0.235-1.202,0.448-1.76
			c0.091-0.229,0.2-0.46,0.368-0.644l0.013-0.013l0.013-0.013l0.013-0.013l0.013-0.012l0.013-0.012l0.013-0.012l0.013-0.011
			l0.013-0.011l0.014-0.01l0.014-0.01l0.014-0.01l0.014-0.009l0.014-0.009l0.014-0.008l0.014-0.008l0.014-0.008l0.014-0.007
			l0.015-0.007l0.015-0.006l0.015-0.006l0.015-0.006l0.015-0.005l0.015-0.005l0.015-0.004l0.015-0.004l0.016-0.004l0.016-0.003
			l0.016-0.003l0.016-0.002l0.016-0.002l0.016-0.001l0.016-0.001l0.016-0.001l0.011,0c0.13,0,0.257,0.037,0.377,0.086
			c0.562,0.245,1.186,0.802,1.683,1.162c0.516,0.37,1.152,0.835,1.816,0.797l0.026-0.002l0.026-0.003l0.026-0.004l0.026-0.004
			l0.026-0.005l0.026-0.005l0.026-0.006l0.026-0.006l0.026-0.007l0.025-0.008l0.025-0.008l0.025-0.009l0.025-0.009l0.025-0.01
			l0.025-0.01l0.025-0.011l0.025-0.012l0.025-0.012l0.025-0.013l0.025-0.013l0.025-0.014l0.025-0.014
			c0.436-0.266,0.745-0.693,1.009-1.121c1.002-1.738,1.516-3.75,2.062-5.668c0.397-1.587,2.704-9.674,2.9-11.13
			c0.218-1.252,0.3-2.541,0.224-3.811c-0.124-2.123-0.655-4.215-1.327-6.226c-0.817-2.453-1.951-5.084-2.99-7.458
			c-1.908-4.312-6.297-13.159-7.744-17.512c-0.212-0.688-0.427-1.397-0.455-2.121l-0.001-0.05l0-0.049l0.001-0.047l0.002-0.046
			l0.003-0.045l0.004-0.043l0.005-0.042l0.006-0.041l0.007-0.039l0.008-0.038l0.009-0.037l0.01-0.035l0.011-0.034l0.012-0.033
			l0.013-0.031l0.014-0.03l0.016-0.029l0.017-0.027l0.018-0.026l0.019-0.024l0.02-0.023l0.021-0.022l0.022-0.02l0.007-0.006
			l0.007-0.006l0.007-0.006l0.007-0.005l0.007-0.005l0.007-0.005l0.008-0.005c0.256-0.159,0.578-0.116,0.862-0.073
			c0.522,0.083,1.123,0.316,1.651,0.356c0.089,0.004,0.18,0.001,0.265-0.027l0.007-0.002l0.007-0.002l0.007-0.003l0.007-0.003
			l0.007-0.003l0.014-0.006l0.013-0.007l0.013-0.007l0.012-0.008l0.012-0.008l0.011-0.009l0.011-0.009l0.011-0.01l0.01-0.01
			l0.01-0.011l0.009-0.011l0.009-0.012l0.008-0.012l0.008-0.013l0.007-0.013l0.007-0.014l0.006-0.014l0.006-0.014l0.006-0.015
			l0.005-0.015l0.005-0.016l0.004-0.016l0.004-0.017l0.003-0.017l0.003-0.018l0.003-0.018l0.002-0.019l0.002-0.019l0.001-0.019
			l0.001-0.02l0-0.02l0-0.021l0-0.021l-0.001-0.021c-0.015-0.261-0.095-0.517-0.182-0.763c-0.183-0.502-0.432-0.995-0.684-1.465
			c-1.093-1.992-2.466-3.94-3.799-5.781c-1.59-2.156-3.314-4.369-5.102-6.362c-1.705-1.894-3.58-3.688-5.648-5.182
			c-1.754-1.273-3.668-2.346-5.662-3.197c-3.465-1.476-7.195-2.359-10.895-3.012c-6.137-1.054-12.511-1.457-18.734-1.559
			l-7.676-0.011c-1.115-0.028-2.294-0.026-3.388-0.253c-0.21-0.049-0.423-0.109-0.611-0.218l-0.015-0.009l-0.015-0.009l-0.014-0.009
			l-0.014-0.009l-0.013-0.01l-0.013-0.01l-0.012-0.01l-0.012-0.01l-0.012-0.01l-0.011-0.01l-0.011-0.01l-0.01-0.01l-0.01-0.01
			l-0.009-0.011l-0.009-0.011l-0.008-0.011l-0.008-0.011l-0.008-0.011l-0.007-0.011l-0.007-0.011l-0.006-0.011l-0.006-0.012
			l-0.005-0.012l-0.005-0.012l-0.004-0.012l-0.004-0.012l-0.003-0.012l-0.003-0.012l-0.003-0.012l-0.002-0.013l-0.002-0.013
			l-0.001-0.013l-0.001-0.013l0-0.013l0-0.013l0.001-0.013l0.001-0.013l0.002-0.014l0.002-0.014l0.003-0.014l0.003-0.014
			l0.004-0.014l0.004-0.014l0.005-0.014l0.005-0.015l0.006-0.015l0.006-0.015l0.005-0.012l0.006-0.012
			c0.08-0.162,0.204-0.299,0.329-0.428c0.859-0.831,2.162-1.658,3.041-2.467c0.434-0.405,0.976-0.913,1.108-1.511l0.003-0.018
			l0.003-0.018l0.003-0.018l0.002-0.018l0.004-0.037l0.002-0.036l0.001-0.036l-0.001-0.036l-0.002-0.036l-0.004-0.036l-0.005-0.035
			l-0.007-0.035l-0.008-0.035l-0.009-0.035l-0.011-0.035l-0.012-0.034l-0.014-0.034l-0.015-0.034l-0.016-0.034l-0.018-0.034
			l-0.019-0.033l-0.021-0.033l-0.022-0.033l-0.023-0.033l-0.025-0.033l-0.026-0.032l-0.027-0.032l-0.029-0.032l-0.03-0.032
			l-0.031-0.031l-0.033-0.031l-0.034-0.031l-0.035-0.031l-0.036-0.031l-0.038-0.03l-0.039-0.03l-0.04-0.03l-0.041-0.03
			c-0.41-0.285-0.882-0.479-1.352-0.642c-0.821-0.28-1.695-0.461-2.55-0.603c-3.713-0.574-7.518-0.539-11.258-0.282
			c-5.869,0.435-11.74,1.591-17.193,3.843c-5.999,2.38-11.776,6.238-17.241,9.646c-1.71,1.001-3.562,2.171-5.547,2.474
			c-1.214,0.191-2.51-0.052-3.729-0.064c-2.875-0.017-5.545,1.527-7.622,3.412c-2.832,2.588-4.685,6.066-5.947,9.65
			c-1.473,4.024-2.975,10.626-4.072,14.815c-0.506,1.841-1.032,3.747-1.823,5.487c-0.324,0.686-0.691,1.376-1.23,1.918l-0.04,0.039
			l-0.04,0.038l-0.04,0.036l-0.041,0.035l-0.041,0.034l-0.041,0.033l-0.041,0.031l-0.041,0.03l-0.042,0.029l-0.042,0.027
			l-0.042,0.026l-0.042,0.025l-0.042,0.023l-0.043,0.022l-0.043,0.021l-0.043,0.019l-0.043,0.018l-0.044,0.017l-0.044,0.015
			l-0.044,0.014l-0.044,0.013l-0.044,0.011l-0.045,0.01c-0.315,0.065-0.643,0.02-0.948-0.073c-0.976-0.307-1.93-1.097-2.769-1.668
			c-0.437-0.288-1.006-0.701-1.541-0.716l-0.015,0l-0.015,0l-0.015,0.001l-0.015,0.001l-0.024,0.002l-0.024,0.003l-0.024,0.004
			l-0.024,0.004l-0.023,0.005l-0.023,0.006l-0.023,0.007l-0.023,0.007l-0.022,0.008l-0.022,0.009l-0.022,0.01l-0.022,0.01
			l-0.021,0.011l-0.021,0.012l-0.021,0.013l-0.021,0.013l-0.02,0.014l-0.02,0.015l-0.02,0.015l-0.02,0.016l-0.019,0.017
			l-0.019,0.017l-0.019,0.018l-0.019,0.019l-0.018,0.02l-0.018,0.02l-0.018,0.021l-0.018,0.022l-0.017,0.022l-0.017,0.023
			l-0.017,0.024l-0.017,0.024l-0.016,0.025l-0.016,0.026c-0.212,0.348-0.32,0.751-0.405,1.147c-0.205,1.026-0.237,2.11-0.249,3.154
			c-0.028,3.314,0.462,8.225,0.73,11.58c0.523,5.672,0.92,12.272,2.139,17.807c0.388,1.727,0.883,3.464,1.588,5.089
			c0.625,1.496,1.767,3.433,2.314,4.96c0.23,0.657,0.389,1.36,0.318,2.059c-0.143,1.299-1,2.373-1.794,3.356l-2.267,2.662
			c-3.307,3.99-4.907,9.079-6.474,13.938c-1.113,3.735-4.495,15.131-5.643,18.65c-2.979,9.212-7.585,21.779-10.292,31.038
			c-0.761,2.66-1.521,5.486-1.99,8.21c-0.268,1.707-0.56,3.636-0.184,5.339l0.02,0.077l0.021,0.076l0.022,0.074l0.023,0.072
			l0.024,0.071l0.025,0.069l0.026,0.067l0.027,0.066l0.028,0.064l0.03,0.062l0.031,0.06l0.032,0.059l0.033,0.057l0.034,0.055
			l0.035,0.053l0.036,0.051l0.038,0.05c0.647,0.828,1.84,0.88,2.796,1.052c0.69,0.119,1.432,0.306,1.912,0.853l0.031,0.035
			l0.03,0.036l0.03,0.037l0.029,0.038l0.028,0.039l0.028,0.04l0.027,0.041l0.027,0.042l0.026,0.043l0.025,0.044l0.025,0.045
			l0.024,0.046c0.336,0.659,0.454,1.407,0.523,2.137c0.173,2.314-0.145,4.68-0.44,6.973c-0.957,6.721-2.793,15.575-2.354,22.292
			c0.109,2.393,0.417,4.888,0.792,7.255c0.409,2.6,1.112,6.231,1.195,8.817c0.079,1.564,0.033,3.563,0.283,5.099
			c0.085,0.502,0.211,1.004,0.421,1.469c0.532,1.206,1.725,1.917,2.599,2.847c0.516,0.533,0.898,1.189,1.107,1.901
			c0.508,1.727,0.42,3.575,0.324,5.353c-0.208,2.736-0.401,5.574-1.198,8.211c-0.393,1.306-0.94,2.575-1.631,3.752
			c-0.723,1.239-1.623,2.393-2.551,3.484c-3.769,4.419-8.783,8.585-11.34,13.892c-1.304,2.738-1.903,5.772-2.053,8.788
			c-0.32,6.984,1.428,14.458,1.8,21.416c0.673,10.732-1.353,25.581-2.235,36.364c-0.281,4.071-0.689,8.417,0.067,12.447
			c0.183,0.903,0.464,1.796,0.878,2.62c0.44,0.892,1.033,1.711,1.661,2.48l0.928,1.11"/>
	</g>
</g>
<g id="_x32_D_x24_AG-OUTLINE">
	<g id="POLYLINE_00000007422327501378901850000013815413569581111988_">
		
			<path fill="none" stroke="#FB8604" stroke-width="3.5" stroke-linecap="round" stroke-linejoin="round" stroke-miterlimit="10" d="
			M414.726,491.365c0.264,3.93,0.406,11.543,1.075,15.314c0.133,0.684,0.288,1.378,0.591,2.009c0.156,0.321,0.36,0.62,0.61,0.874
			c0.421,0.431,1.017,0.779,1.484,1.158c0.887,0.7,1.523,1.663,2.056,2.648c0.985,1.852,1.639,3.88,2.091,5.924
			c0.76,3.481,1.025,7.838,1.893,11.293c0.534,2.113,1.43,4.157,2.758,5.893c0.591,0.777,1.276,1.502,2.011,2.144
			c0.846,0.742,1.892,1.523,2.665,2.342c0.74,0.771,1.319,1.696,1.696,2.696c1.025,2.775,1.485,6.727,2.066,9.637
			c1.032,5.189,2.244,10.506,4.077,15.474c0.577,1.475,1.201,2.976,2.153,4.254c0.328,0.422,0.708,0.831,1.198,1.063
			c0.387,0.187,0.825,0.229,1.25,0.219c0.502-0.011,1.072-0.068,1.546,0.124c0.291,0.113,0.543,0.308,0.768,0.521
			c0.405,0.388,0.759,0.86,1.094,1.309c2.445,3.539,5.286,7.049,8.154,10.243c1.272,1.377,2.568,2.922,4.039,4.083
			c0.452,0.341,0.953,0.64,1.508,0.772c0.489,0.121,1.002,0.093,1.493-0.004c0.894-0.169,1.876-0.526,2.789-0.571
			c0.479-0.027,0.972,0.032,1.411,0.232c0.45,0.201,0.823,0.542,1.139,0.916c0.607,0.727,1.057,1.586,1.476,2.431
			c2.485,5.355,4.57,11.437,7.687,16.466c1.074,1.701,2.374,3.429,4.292,4.213c1.198,0.5,2.522,0.583,3.806,0.603
			c2.93-0.063,37.699,0.155,39.498-0.119c0.746-0.081,1.509-0.207,2.188-0.543c0.446-0.22,0.839-0.55,1.126-0.957
			c0.476-0.674,0.705-1.489,0.867-2.289c0.276-1.436,0.316-2.927,0.262-4.385c-0.079-1.8-0.311-3.62-0.776-5.362
			c-0.574-2.177-1.673-4.325-3.566-5.63c-1.295-0.912-2.837-1.403-4.37-1.744c-4.02-0.895-8.572-0.814-12.485-2.175
			c-1.049-0.378-2.04-0.955-2.814-1.766c-1.237-1.288-1.976-2.968-2.722-4.567c-1.402-3.043-2.611-6.246-3.436-9.496
			c-0.925-3.561-1.42-7.353-1.845-11.006c-0.474-4.644-1.394-14.126-1.799-18.737c-0.372-4.631-0.621-9.496-0.573-14.136
			c0.048-5.296,0.474-10.88,1.082-16.143c0.844-7.041,2.04-14.213,3.885-21.063c0.678-2.467,1.457-5.019,2.44-7.381
			c0.503-1.183,1.058-2.378,1.83-3.412c0.349-0.462,0.755-0.895,1.237-1.221c0.472-0.336,1.07-0.52,1.614-0.704
			c0.891-0.311,1.711-0.808,2.475-1.356c1.518-1.086,2.985-2.375,4.348-3.651c2.02-1.904,4.75-4.709,6.904-6.399
			c0.452-0.346,0.927-0.683,1.446-0.921c0.346-0.157,0.721-0.272,1.104-0.263c0.366-0.001,0.735,0.159,1.07,0.293
			c0.901,0.372,1.771-0.279,2.407-0.865c1.783-1.735,3.231-3.976,4.674-5.998c1.148-1.601,4.405-6.75,5.655-8.089
			c0.317-0.321,0.679-0.651,1.136-0.734c0.397-0.067,0.789,0.087,1.141,0.258l0.477,0.238c0.278,0.133,0.579,0.263,0.894,0.24
			c0.281-0.021,0.535-0.166,0.753-0.336c0.461-0.367,0.834-0.848,1.2-1.307c2.905-3.847,6.151-8.089,8.402-12.348
			c0.44-0.804,1.521-2.979,2.015-3.706c0.145-0.215,0.303-0.428,0.487-0.611c0.283-0.293,0.634-0.44,1.03-0.511
			c0.294-0.056,0.634-0.1,0.907-0.227c0.201-0.09,0.38-0.227,0.527-0.39c0.202-0.225,0.363-0.488,0.507-0.753
			c0.607-1.166,1.098-2.628,1.569-3.857c1.611-4.687,2.309-10.064,3.134-14.951c0.535,0.086,1.099,0.028,1.587-0.215
			c0.683-0.335,1.193-0.937,1.59-1.571c0.727-1.186,1.145-2.539,1.468-3.884c0.653-2.794,0.826-5.743,0.926-8.605l0.184-8.993
			c0.074-1.597,0.134-3.253,0.5-4.813c0.102-0.398,0.226-0.801,0.446-1.152l0.019-0.029l0.019-0.028l0.019-0.027l0.019-0.026
			l0.02-0.026l0.02-0.025l0.02-0.024l0.02-0.023l0.021-0.022l0.021-0.022l0.021-0.021l0.021-0.02l0.022-0.019
			c0.299-0.265,0.723-0.279,1.103-0.252c0.45,0.029,0.957,0.106,1.383-0.079l0.025-0.011l0.025-0.012l0.025-0.012l0.025-0.013
			l0.025-0.014l0.025-0.014l0.025-0.015l0.024-0.015l0.024-0.016l0.024-0.017l0.024-0.017l0.024-0.018l0.024-0.018
			c0.568-0.467,0.869-1.174,1.123-1.847c0.822-2.414,1.049-5.017,1.265-7.545c0.543-7.012,0.096-15.98,0.083-23.038
			c0.006-1.598,0.021-3.434,0.162-5.023c0.094-0.886,0.176-1.887,0.559-2.696l0.016-0.031l0.016-0.03l0.017-0.029l0.017-0.028
			l0.017-0.027l0.017-0.026l0.017-0.025l0.018-0.024l0.018-0.023l0.018-0.022l0.018-0.021l0.019-0.02l0.019-0.019l0.019-0.018
			l0.019-0.017l0.02-0.016l0.02-0.015l0.02-0.014l0.02-0.013l0.021-0.012l0.021-0.011c0.239-0.116,0.513-0.032,0.749,0.05
			c0.27,0.09,0.582,0.252,0.873,0.217l0.012-0.002l0.012-0.002l0.012-0.002l0.011-0.003l0.011-0.003l0.011-0.003l0.011-0.003
			l0.011-0.004l0.011-0.004l0.011-0.004l0.011-0.004l0.011-0.004l0.011-0.005l0.011-0.005l0.011-0.005l0.011-0.005l0.01-0.006
			l0.01-0.006l0.01-0.006l0.01-0.006l0.01-0.007l0.01-0.007l0.01-0.007l0.01-0.007l0.01-0.008l0.01-0.008l0.01-0.008
			c0.258-0.227,0.371-0.571,0.463-0.893c0.196-0.751,0.241-1.545,0.27-2.319c0.05-1.667-0.068-3.472-0.195-5.139
			c-0.267-3.6-1.172-10.219-0.967-13.75c0.043-0.46,0.089-0.938,0.289-1.36l0.01-0.02l0.01-0.019l0.011-0.019l0.011-0.018
			l0.011-0.018l0.011-0.017l0.011-0.017l0.012-0.016l0.012-0.015l0.012-0.015l0.012-0.014l0.012-0.014l0.012-0.013l0.013-0.013
			l0.013-0.012l0.013-0.011l0.013-0.011l0.013-0.01l0.014-0.01l0.014-0.009c0.098-0.064,0.219-0.082,0.334-0.075
			c0.426,0.022,0.901,0.342,1.323,0.24l0.016-0.005l0.015-0.005l0.015-0.005l0.015-0.006l0.015-0.006l0.015-0.007l0.015-0.007
			l0.015-0.008l0.014-0.008l0.014-0.009l0.014-0.009l0.014-0.01l0.014-0.01l0.014-0.01l0.014-0.011l0.013-0.011l0.013-0.012
			l0.013-0.012l0.013-0.013l0.013-0.013l0.013-0.014l0.013-0.014l0.013-0.014l0.012-0.015l0.012-0.015l0.012-0.016l0.012-0.016
			c0.284-0.418,0.369-0.937,0.446-1.427c0.148-1.122,0.125-2.289,0.078-3.418c-0.107-2.237-0.398-4.585-0.73-6.801
			c-0.906-5.825-2.267-11.717-3.955-17.364c-0.687-2.235-1.447-4.587-2.39-6.727c-0.661-1.562-1.728-3.28-2.601-4.737
			c5.777,0.363,12.397,1.549,18.151,2.306c2.19,0.273,4.505,0.54,6.709,0.557c1.516,0.008,3.058-0.103,4.525-0.505
			c1.153-0.313,2.259-0.821,3.245-1.496c2.721-1.872,5.051-5.228,7.168-7.741c1.108-1.344,2.312-2.674,3.615-3.831
			c1.762-1.588,4.056-3.303,5.674-5.036c2.576-0.799,4.118-3.306,5.058-5.686c0.782-2.062,1.329-4.379,0.993-6.587
			c-0.134-0.831-0.458-1.647-1.029-2.276c-0.72-0.808-1.735-1.286-2.761-1.58c-0.8-0.734-1.729-1.353-2.655-1.918
			c-6.71-3.849-15.575-8.61-22.428-12.167c-1.391-0.737-3.019-1.578-4.327-2.43c-1.532-0.983-2.989-2.138-4.124-3.571
			c-1.26-1.568-2.039-3.464-2.656-5.362c-1.19-3.681-1.951-8.023-3.696-11.495c-1.942-3.934-5.152-7.071-8.558-9.762
			c-4.122-3.227-8.616-6.161-13.103-8.855c-0.511-3.209-1.055-6.962-1.318-10.186c-0.206-2.259-0.387-6.898-0.495-9.213
			c-0.158-2.331-0.33-4.737-1.064-6.968c-0.421-1.246-1.124-2.496-2.306-3.155c-0.653-0.367-1.432-0.49-2.167-0.35
			c-0.763,0.137-1.458,0.522-2.069,0.987c-1.003,0.769-1.853,1.739-2.652,2.714c-1.419,1.734-3.581,4.921-4.957,6.701
			c-0.991,1.293-2.123,2.587-3.239,3.773c-1.28,1.338-3.681,3.777-4.874,5.141c-1.036-0.152-2.126-0.263-3.171-0.328
			c-1.007-4.162-2.187-8.389-3.891-12.323c-0.906-2.038-1.967-4.069-3.506-5.705c-0.699-0.736-1.515-1.381-2.447-1.795
			c-1.102-0.491-2.359-0.675-3.546-0.429c-0.883,0.18-1.721,0.618-2.334,1.285c-1.083,1.207-1.502,2.842-1.908,4.373
			c-0.486,1.971-0.982,4.404-1.702,6.284c-0.453,1.206-1.046,2.372-1.738,3.458c-1.688,2.648-3.974,4.883-6.483,6.753
			c-1.84,1.361-3.816,2.607-5.934,3.488l-6.715,2.784c-5.793,2.559-11.548,5.438-16.738,9.087c-0.797,0.582-1.603,1.205-2.306,1.899
			c-0.337,0.34-0.672,0.702-0.901,1.126l-0.018,0.035l-0.017,0.035l-0.016,0.034l-0.015,0.034L471,203.846l-0.013,0.033
			l-0.012,0.033l-0.011,0.032l-0.01,0.032l-0.009,0.032l-0.008,0.031l-0.007,0.031l-0.006,0.03l-0.005,0.03l-0.003,0.03
			l-0.002,0.029l-0.001,0.029l0,0.028l0.001,0.028l0.002,0.027l0.003,0.027l0.004,0.027l0.005,0.026l0.006,0.026l0.008,0.025
			l0.009,0.025l0.01,0.024l0.011,0.024l0.012,0.023l0.013,0.023c0.216,0.334,0.715,0.483,1.077,0.603
			c0.468,0.153,1.093,0.277,1.519,0.528c0.083,0.052,0.164,0.114,0.221,0.195l0.01,0.014l0.009,0.015l0.008,0.015l0.008,0.015
			l0.007,0.015l0.007,0.016l0.006,0.016l0.005,0.016l0.005,0.016l0.004,0.016l0.003,0.017l0.003,0.017l0.002,0.017l0.002,0.017
			l0.001,0.017l0,0.018l0,0.018l-0.001,0.018l-0.001,0.018l-0.002,0.018l-0.003,0.019l-0.003,0.019l-0.004,0.019l-0.004,0.019
			l-0.005,0.019l-0.006,0.02l-0.006,0.02l-0.007,0.02l-0.007,0.02l-0.008,0.02l-0.008,0.02l-0.009,0.021l-0.01,0.021l-0.01,0.021
			c-0.214,0.408-0.56,0.732-0.895,1.04c-2.438,2.119-8.603,5.728-11.353,7.558c-3.075,2.051-6.243,4.172-8.867,6.79
			c-0.826,0.861-1.65,1.794-2.075,2.926c-0.131,0.362-0.199,0.75-0.173,1.136c0.031,0.599,0.278,1.204,0.439,1.776
			c0.135,0.475,0.182,0.955-0.068,1.403c-0.169,0.315-0.417,0.58-0.679,0.82c-1.105,0.999-3.369,2.21-4.636,3.021
			c-2.836,1.757-5.412,3.952-7.785,6.289c-3.125,3.096-6.023,6.543-8.634,10.082c-0.896,1.236-1.81,2.555-2.545,3.893
			c-0.341,0.63-0.665,1.286-0.87,1.974c-0.116,0.416-0.21,0.867-0.09,1.292l0.006,0.019l0.006,0.019l0.006,0.018l0.007,0.018
			c0.151,0.4,0.543,0.629,0.852,0.895c0.141,0.123,0.277,0.272,0.317,0.461l0.003,0.013l0.002,0.013l0.002,0.013l0.002,0.013
			l0.002,0.013l0.001,0.013l0.001,0.013l0.001,0.014l0.001,0.014l0,0.014l0,0.014c-0.003,0.229-0.09,0.449-0.186,0.653
			c-0.591,1.163-2.191,2.911-2.995,3.957c-2.562,3.083-4.172,7.129-6.226,10.541c-0.724,1.193-1.538,2.357-2.458,3.406
			c-1.454,1.675-3.416,3.398-5.013,4.948c-0.762,0.75-1.53,1.533-2.152,2.405c-0.319,0.452-0.604,0.94-0.774,1.469
			c-0.162,0.497-0.216,1.025-0.22,1.547c-0.003,1.007,0.138,2.063-0.111,3.052c-0.322,1.282-1.165,2.361-2.038,3.324
			c-1.552,1.666-3.397,3.068-5.257,4.371c-3.09,2.125-6.427,4.085-9.78,5.765c-3.425,1.685-7.016,3.186-10.781,3.899
			c-2.159,0.407-4.392,0.429-6.581,0.307c-4.224-0.313-9.289-0.584-13.491-0.432c-10.652,0.287-21.918,1.365-32.492,2.708
			c-0.907-2.773-2.165-5.673-3.349-8.346c-1.85-4.178-6.148-12.813-7.522-17.04c-0.202-0.665-0.405-1.351-0.426-2.05l0-0.048
			l0.001-0.047l0.002-0.046l0.003-0.045l0.004-0.043l0.005-0.042l0.005-0.041l0.006-0.04l0.007-0.038l0.008-0.037l0.009-0.036
			l0.01-0.034l0.011-0.033l0.012-0.032l0.013-0.03l0.014-0.029l0.015-0.028l0.016-0.027l0.017-0.025l0.018-0.024l0.02-0.022
			l0.021-0.021l0.022-0.02l0.007-0.006l0.007-0.006l0.007-0.006l0.007-0.005l0.007-0.005l0.007-0.005l0.008-0.005
			c0.256-0.159,0.578-0.116,0.862-0.073c0.522,0.083,1.123,0.316,1.651,0.356c0.089,0.004,0.18,0.001,0.265-0.027l0.007-0.002
			l0.007-0.002l0.007-0.003l0.007-0.003l0.007-0.003l0.014-0.006l0.013-0.007l0.013-0.007l0.012-0.008l0.012-0.008l0.011-0.009
			l0.011-0.009l0.011-0.01l0.01-0.01l0.01-0.011l0.009-0.011l0.009-0.012l0.008-0.012l0.008-0.013l0.007-0.013l0.007-0.014
			l0.006-0.014l0.006-0.014l0.006-0.015l0.005-0.015l0.005-0.016l0.004-0.016l0.004-0.017l0.003-0.017l0.003-0.018l0.003-0.018
			l0.002-0.019l0.002-0.019l0.001-0.019l0.001-0.02l0-0.02l0-0.021l0-0.021l-0.001-0.021c-0.015-0.261-0.095-0.517-0.182-0.763
			c-0.183-0.502-0.432-0.995-0.684-1.465c-1.093-1.992-2.466-3.94-3.799-5.781c-1.59-2.156-3.314-4.369-5.102-6.362
			c-1.705-1.894-3.58-3.688-5.648-5.182c-1.754-1.273-3.668-2.346-5.662-3.197c-3.465-1.476-7.195-2.359-10.895-3.012
			c-6.137-1.054-12.511-1.457-18.734-1.559l-7.676-0.011c-1.115-0.028-2.294-0.026-3.388-0.253c-0.21-0.049-0.423-0.109-0.611-0.218
			l-0.015-0.009l-0.015-0.009l-0.014-0.009l-0.014-0.009l-0.013-0.01l-0.013-0.01l-0.012-0.01l-0.012-0.01l-0.012-0.01l-0.011-0.01
			l-0.011-0.01l-0.01-0.01l-0.01-0.01l-0.009-0.011l-0.009-0.011l-0.008-0.011l-0.008-0.011l-0.008-0.011l-0.007-0.011l-0.007-0.011
			l-0.006-0.011l-0.006-0.012l-0.005-0.012l-0.005-0.012l-0.004-0.012l-0.004-0.012l-0.003-0.012l-0.003-0.012l-0.003-0.012
			l-0.002-0.013l-0.002-0.013l-0.001-0.013l-0.001-0.013l0-0.013l0-0.013l0.001-0.013l0.001-0.013l0.002-0.014l0.002-0.014
			l0.003-0.014l0.003-0.014l0.004-0.014l0.004-0.014l0.005-0.014l0.005-0.015l0.006-0.015l0.006-0.015l0.005-0.012l0.006-0.012
			c0.08-0.162,0.204-0.299,0.329-0.428c0.859-0.831,2.162-1.658,3.041-2.467c0.434-0.405,0.976-0.913,1.108-1.511l0.003-0.018
			l0.003-0.018l0.003-0.018l0.002-0.018l0.004-0.037l0.002-0.036l0.001-0.036l-0.001-0.036l-0.002-0.036l-0.004-0.036l-0.005-0.035
			l-0.007-0.035l-0.008-0.035l-0.009-0.035l-0.011-0.035l-0.012-0.034l-0.014-0.034l-0.015-0.034l-0.016-0.034l-0.018-0.034
			l-0.019-0.033l-0.021-0.033l-0.022-0.033l-0.023-0.033l-0.025-0.033l-0.026-0.032l-0.027-0.032l-0.029-0.032l-0.03-0.032
			l-0.031-0.031l-0.033-0.031l-0.034-0.031l-0.035-0.031l-0.036-0.031l-0.038-0.03l-0.039-0.03l-0.04-0.03l-0.041-0.03
			c-0.41-0.285-0.882-0.479-1.352-0.642c-0.821-0.28-1.695-0.461-2.55-0.603c-3.713-0.574-7.518-0.539-11.258-0.282
			c-5.869,0.435-11.74,1.591-17.193,3.843c-5.999,2.38-11.776,6.238-17.241,9.646c-1.71,1.001-3.562,2.171-5.547,2.474
			c-1.214,0.191-2.51-0.052-3.729-0.064c-2.875-0.017-5.545,1.527-7.622,3.412c-2.832,2.588-4.685,6.066-5.947,9.65
			c-1.473,4.024-2.975,10.626-4.072,14.815c-0.506,1.841-1.032,3.747-1.823,5.487c-0.324,0.686-0.691,1.376-1.23,1.918l-0.04,0.039
			l-0.04,0.038l-0.04,0.036l-0.041,0.035l-0.041,0.034l-0.041,0.033l-0.041,0.031l-0.041,0.03l-0.042,0.029l-0.042,0.027
			l-0.042,0.026l-0.042,0.025l-0.042,0.023l-0.043,0.022l-0.043,0.021l-0.043,0.019l-0.043,0.018l-0.044,0.017l-0.044,0.015
			l-0.044,0.014l-0.044,0.013l-0.044,0.011l-0.045,0.01c-0.315,0.065-0.643,0.02-0.948-0.073c-0.976-0.307-1.93-1.097-2.769-1.668
			c-0.437-0.288-1.006-0.701-1.541-0.716l-0.015,0l-0.015,0l-0.015,0.001l-0.015,0.001l-0.024,0.002l-0.024,0.003l-0.024,0.004
			l-0.024,0.004l-0.023,0.005l-0.023,0.006l-0.023,0.007l-0.023,0.007l-0.022,0.008l-0.022,0.009l-0.022,0.01l-0.022,0.01
			l-0.021,0.011l-0.021,0.012l-0.021,0.013l-0.021,0.013l-0.02,0.014l-0.02,0.015l-0.02,0.015l-0.02,0.016l-0.019,0.017
			l-0.019,0.017l-0.019,0.018l-0.019,0.019l-0.018,0.02l-0.018,0.02l-0.018,0.021l-0.018,0.022l-0.017,0.022l-0.017,0.023
			l-0.017,0.024l-0.017,0.024l-0.016,0.025l-0.016,0.026c-0.212,0.348-0.32,0.751-0.405,1.147c-0.205,1.026-0.237,2.11-0.249,3.154
			c-0.028,3.314,0.462,8.225,0.73,11.58c0.523,5.672,0.92,12.272,2.139,17.807c0.388,1.727,0.883,3.464,1.588,5.089
			c0.625,1.496,1.767,3.433,2.314,4.96c0.23,0.657,0.389,1.36,0.318,2.059c-0.143,1.299-1,2.373-1.794,3.356l-2.267,2.662
			c-3.307,3.99-4.907,9.079-6.474,13.938c-1.113,3.735-4.495,15.131-5.643,18.65c-2.979,9.212-7.585,21.779-10.292,31.038
			c-0.761,2.66-1.521,5.486-1.99,8.21c-0.268,1.707-0.56,3.636-0.184,5.339l0.02,0.077l0.021,0.076l0.022,0.074l0.023,0.072
			l0.024,0.071l0.025,0.069l0.026,0.067l0.027,0.066l0.028,0.064l0.03,0.062l0.031,0.06l0.032,0.059l0.033,0.057l0.034,0.055
			l0.035,0.053l0.036,0.051l0.038,0.05c0.647,0.828,1.84,0.88,2.796,1.052c0.69,0.119,1.432,0.306,1.912,0.853l0.031,0.035
			l0.03,0.036l0.03,0.037l0.029,0.038l0.028,0.039l0.028,0.04l0.027,0.041l0.027,0.042l0.026,0.043l0.025,0.044l0.025,0.045
			l0.024,0.046c0.336,0.659,0.454,1.407,0.523,2.137c0.173,2.314-0.145,4.68-0.44,6.973c-0.957,6.721-2.793,15.575-2.354,22.292
			c0.109,2.393,0.417,4.888,0.792,7.255c0.409,2.6,1.112,6.231,1.195,8.817c0.079,1.565,0.033,3.563,0.283,5.099
			c0.085,0.502,0.211,1.004,0.421,1.469c0.532,1.206,1.725,1.917,2.599,2.847c0.516,0.533,0.898,1.189,1.107,1.901
			c0.508,1.727,0.42,3.575,0.324,5.353c-0.208,2.736-0.401,5.574-1.198,8.211c-0.393,1.306-0.94,2.575-1.631,3.752
			c-0.725,1.24-1.625,2.396-2.555,3.488c-3.757,4.4-8.793,8.601-11.336,13.888c-1.304,2.738-1.903,5.772-2.053,8.788
			c-0.32,6.984,1.428,14.458,1.8,21.416c0.673,10.732-1.353,25.581-2.235,36.364c-0.281,4.071-0.689,8.417,0.067,12.447
			c0.183,0.903,0.464,1.796,0.878,2.62c0.44,0.892,1.033,1.711,1.661,2.48c2.458,2.953,4.954,6.041,8.198,8.166
			c0.886,0.568,1.842,1.047,2.857,1.334c0.891,0.259,1.829,0.347,2.755,0.353l22.243,0.002l1.977-0.011
			c1.76-0.05,3.662-0.083,5.199-1.048c0.76-0.481,1.352-1.186,1.801-1.958c0.709-1.226,1.102-2.616,1.304-4.011
			c0.511-3.663-0.34-7.391-1.666-10.799c-0.397-0.987-0.855-1.972-1.414-2.878c-0.483-0.779-1.078-1.511-1.84-2.033
			c-0.55-0.382-1.175-0.65-1.811-0.855c-2.569-0.775-5.718-1.142-8.319-1.797c-1.2-0.308-2.441-0.665-3.436-1.433
			c-0.487-0.379-0.886-0.869-1.156-1.423c-0.424-0.862-0.573-1.831-0.635-2.781c-0.148-3.782,0.535-7.875,0.982-11.635
			c0.736-5.317,1.646-10.843,3.02-16.029c1.098-4.178,2.608-8.309,4.819-12.034c2.187-3.727,5.079-7.028,8.275-9.922
			c3.196-2.902,6.728-5.473,10.408-7.725c2.737-1.681,5.728-3.254,8.638-4.619c3.01-1.463,13.154-5.583,16.377-6.952
			c7.923-3.331,15.505-7.653,22.429-12.742c5.077-3.73,9.958-7.863,14.231-12.5c1.322-1.412,2.973-3.502,4.259-4.927
			c0,0,0.13-0.137,0.13-0.137s0.127-0.13,0.127-0.13s0.062-0.062,0.062-0.062c0.146-0.144,0.313-0.3,0.474-0.43
			c0.276-0.224,0.588-0.418,0.939-0.497c0.245-0.058,0.5-0.061,0.75-0.04c0,0,0.053,0.005,0.053,0.005s0.053,0.005,0.053,0.005
			s0.054,0.006,0.054,0.006s0.108,0.013,0.108,0.013s0.568,0.077,0.568,0.077l0.121,0.014c0,0,0.123,0.013,0.123,0.013
			s0.063,0.006,0.063,0.006s0.064,0.005,0.064,0.005s0.064,0.005,0.064,0.005l0.065,0.004c0.768,0.053,1.537-0.121,2.249-0.401
			c0.793-0.308,1.557-0.714,2.286-1.151c2.461-1.497,4.697-3.401,6.474-5.674c2.366-2.976,3.994-6.858,5.65-10.244
			c0.448-0.895,0.922-1.812,1.522-2.615c0.327-0.434,0.702-0.843,1.154-1.15c0.619-0.425,1.381-0.578,2.107-0.714
			c1.204,1.927,2.552,3.806,4.175,5.404c2.148,2.126,4.671,3.864,7.258,5.41c1.465,0.844,2.978,1.699,4.6,2.198
			c0.342,0.093,0.699,0.181,1.055,0.147l0.02-0.002l0.019-0.003l0.019-0.003l0.019-0.003l0.018-0.004l0.018-0.004l0.017-0.004
			l0.017-0.005l0.017-0.005l0.016-0.005l0.016-0.006l0.016-0.006l0.015-0.006l0.015-0.007l0.014-0.007l0.014-0.007l0.014-0.008
			l0.013-0.008l0.013-0.008l0.012-0.009c0.198-0.148,0.229-0.416,0.256-0.644c0.038-0.336,0.033-0.728,0.241-1.012l0.012-0.015
			l0.012-0.015l0.013-0.015l0.013-0.014l0.013-0.014l0.014-0.014l0.014-0.013l0.015-0.013l0.015-0.013l0.015-0.013l0.016-0.012
			l0.016-0.012l0.017-0.012l0.017-0.012l0.017-0.011l0.018-0.011l0.018-0.011l0.019-0.011l0.019-0.01l0.02-0.01l0.02-0.01
			l0.02-0.009c0.536-0.226,1.15-0.185,1.718-0.138c1.756,0.199,3.482,0.749,5.153,1.305c5.851,1.93,12.212,5.49,18.019,7.547
			c0.992,0.327,2.018,0.625,3.061,0.725c0.561,0.048,1.145,0.042,1.679-0.151c0.613-0.217,1.051-0.735,1.399-1.263l0.391-0.599
			c0.216-0.317,0.452-0.65,0.801-0.829c0.252-0.129,0.546-0.146,0.823-0.112c0.457,0.059,0.894,0.234,1.311,0.425
			c2.014,0.991,4.02,2.484,6.042,3.461c3.78,1.931,8.385,3.332,12.433,4.646c4.095,1.281,8.534,2.687,12.726,3.573
			c1.395,0.277,2.845,0.551,4.272,0.539c0.423-0.011,0.859-0.044,1.26-0.188l0.032-0.012l0.031-0.012l0.03-0.013l0.03-0.013
			l0.029-0.014l0.028-0.014l0.028-0.014l0.027-0.015l0.026-0.015l0.025-0.016l0.025-0.016l0.024-0.017l0.023-0.017l0.022-0.017
			l0.022-0.018l0.021-0.018l0.02-0.019l0.019-0.019c0.24-0.24,0.3-0.593,0.324-0.918l0.024-0.383c0.017-0.178,0.026-0.38,0.15-0.521
			l0.007-0.008l0.008-0.007l0.008-0.007l0.008-0.007l0.008-0.007l0.008-0.006l0.009-0.006l0.009-0.006l0.009-0.006l0.009-0.005
			l0.01-0.005l0.01-0.005l0.01-0.005l0.01-0.004l0.01-0.004l0.011-0.004l0.011-0.004l0.011-0.004l0.011-0.003l0.012-0.003
			l0.012-0.003l0.012-0.003l0.012-0.002l0.012-0.002l0.013-0.002l0.013-0.002l0.013-0.001l0.013-0.001
			c0.299-0.018,0.594,0.081,0.874,0.175c0.634,0.228,1.297,0.558,1.903,0.858c1.745,0.878,3.836,1.974,5.645,2.665
			c4.86,1.884,10.206,2.854,15.399,2.085C407.397,495.45,411.277,493.669,414.726,491.365z"/>
	</g>
</g>
</svg>
