<?xml version="1.0" encoding="utf-8"?>
<!-- Generator: Adobe Illustrator 25.4.1, SVG Export Plug-In . SVG Version: 6.00 Build 0)  -->
<!DOCTYPE svg PUBLIC "-//W3C//DTD SVG 1.1//EN" "http://www.w3.org/Graphics/SVG/1.1/DTD/svg11.dtd" [
	<!ENTITY ns_extend "http://ns.adobe.com/Extensibility/1.0/">
	<!ENTITY ns_ai "http://ns.adobe.com/AdobeIllustrator/10.0/">
	<!ENTITY ns_graphs "http://ns.adobe.com/Graphs/1.0/">
	<!ENTITY ns_vars "http://ns.adobe.com/Variables/1.0/">
	<!ENTITY ns_imrep "http://ns.adobe.com/ImageReplacement/1.0/">
	<!ENTITY ns_sfw "http://ns.adobe.com/SaveForWeb/1.0/">
	<!ENTITY ns_custom "http://ns.adobe.com/GenericCustomNamespace/1.0/">
	<!ENTITY ns_adobe_xpath "http://ns.adobe.com/XPath/1.0/">
]>
<svg version="1.1" xmlns:x="&ns_extend;" xmlns:i="&ns_ai;" xmlns:graph="&ns_graphs;"
	 xmlns="http://www.w3.org/2000/svg" xmlns:xlink="http://www.w3.org/1999/xlink" x="0px" y="0px" width="750px" height="750px"
	 viewBox="0 0 750 750" enable-background="new 0 0 750 750" xml:space="preserve">
<metadata>
	<sfw  xmlns="&ns_sfw;">
		<slices></slices>
		<sliceSourceBounds  bottomLeftOrigin="true" height="10353.538" width="5634" x="-2000" y="-1314"></sliceSourceBounds>
	</sfw>
</metadata>
<g id="FILL-BACKGROUND">
	<rect fill="#FFFFFF" width="750" height="750"/>
</g>
<g id="N-DIMENSIONS">
</g>
<g id="N-TEXT">
</g>
<g id="_x32_D_x24_AG-DIAGRAM">
	<g id="POLYLINE_00000146458334139442782880000015093778894857967550_">
		<g>
			<g>
				
					<line fill="none" stroke="#FB8604" stroke-width="3.25" stroke-linecap="round" stroke-linejoin="round" x1="157.049" y1="617.833" x2="159.049" y2="617.833"/>
				
					<line fill="none" stroke="#FB8604" stroke-width="3.25" stroke-linecap="round" stroke-linejoin="round" stroke-dasharray="4.0152,7.0265" x1="166.076" y1="617.833" x2="515.897" y2="617.833"/>
				
					<line fill="none" stroke="#FB8604" stroke-width="3.25" stroke-linecap="round" stroke-linejoin="round" x1="519.41" y1="617.833" x2="521.41" y2="617.833"/>
			</g>
		</g>
	</g>
</g>
<g id="_x32_D_x24_AG-DETAILS-DIAGRAM">
</g>
<g id="_x32_D_x24_AG-DETAILS">
	<g id="POLYLINE_00000169518816300759762740000000323816151977706685_">
		<path fill="none" stroke="#FB8604" stroke-width="2" stroke-linecap="round" stroke-linejoin="round" stroke-miterlimit="10" d="
			M415.443,385.732c1.309-4.631,2.793-9.746,3.441-14.499c0.59-3.994,0.652-8.168,0.581-12.203
			c-0.19-7.471-0.748-18.023-0.201-25.363c0.4-5.669,1.279-11.386,3.042-16.8c0.819-2.465,1.837-4.904,3.254-7.089
			c0.882-1.348,1.937-2.613,3.243-3.569c1.213-0.895,2.634-1.493,4.108-1.794c2.515-0.513,5.123-0.268,7.635,0.138
			c3.662,0.607,7.292,1.636,10.702,3.109c2.698,1.174,5.301,2.65,7.577,4.523"/>
	</g>
	<g id="POLYLINE_00000165210285425635598600000011047093535134132612_">
		<path fill="none" stroke="#FB8604" stroke-width="2" stroke-linecap="round" stroke-linejoin="round" stroke-miterlimit="10" d="
			M546.611,253.365c0.741,0.138,2.237,0.399,2.981,0.519c5.343,0.812,12.734,1.743,17.915,2.962
			c3.548,0.779,8.639,2.507,12.15,3.546c2.444,0.704,4.961,1.384,7.509,1.536c1.349,0.07,2.745-0.021,4.007-0.538
			c2.448-0.998,3.708-3.589,4.382-6.001c0.641-2.335,0.853-4.787,0.817-7.203c-0.002-2.216-0.504-5.09-0.806-7.299
			c-0.178-1.413-0.257-2.858-0.089-4.276c0.186-1.587,0.644-3.14,1.226-4.624c1.33-3.325,3.276-6.43,5.693-9.073"/>
	</g>
	<g id="POLYLINE_00000177442138408581367850000018128884218383615417_">
		<path fill="none" stroke="#FB8604" stroke-width="2" stroke-linecap="round" stroke-linejoin="round" stroke-miterlimit="10" d="
			M458.737,267.311c-1.287,6.149-1.152,12.538-0.112,18.714c0.579,3.459,1.404,6.931,2.798,10.159
			c1.033,2.382,2.409,4.659,4.261,6.495c1.925,1.932,4.39,3.251,6.962,4.107c4.02,1.331,8.316,1.695,12.53,1.711
			c4.167-0.028,8.398-0.296,12.491-1.107c3.771-0.773,7.582-2.124,10.452-4.775c0.96-0.887,1.798-1.916,2.467-3.039
			c0.974-1.632,1.627-3.447,2.108-5.28c1.705-6.585,1.52-14.662,1.861-21.451c0.149-3.391,0.491-6.876,1.156-10.202
			c0.759-4.085,2.608-10.082,3.651-14.14"/>
	</g>
	<g id="POLYLINE_00000041256094200418068720000001162789698040201385_">
		<path fill="none" stroke="#FB8604" stroke-width="2" stroke-linecap="round" stroke-linejoin="round" stroke-miterlimit="10" d="
			M443.968,277.306c2.613,5.658,6.653,15.069,9.124,20.903c3.664,8.714,7.62,18.289,10.527,27.255
			c3.214,9.802,5.59,20.094,7.386,30.252c1.461,8.407,2.769,17.24,3.332,25.749c0.377,5.936,0.457,12.007-0.281,17.918
			c-0.468,3.767-1.344,7.524-2.817,11.03c-1.896,4.664-4.982,9.316-7.316,13.768c-1.066,2.042-2.039,4.194-2.748,6.387
			c-0.871,2.674-1.44,5.543-1.919,8.313c-0.663,3.82-1.42,9.703-2.398,13.383c-0.616,2.41-1.435,4.808-2.698,6.961
			c-2.037,3.502-5.316,6.54-9.38,7.356c-2.781,0.585-5.665-0.126-8.17-1.368c-3.453-1.724-6.438-4.324-8.859-7.314"/>
	</g>
	<g id="POLYLINE_00000062901252178779865760000016655755083272735886_">
		<path fill="none" stroke="#FB8604" stroke-width="2" stroke-linecap="round" stroke-linejoin="round" stroke-miterlimit="10" d="
			M335.499,398.28l10.499,1.175c12.568,1.651,28.548,6.117,41.118,7.618c3.69,0.452,7.491,0.754,11.205,0.474
			c3.091-0.216,6.178-0.868,9.151-1.726l5.464-1.644"/>
	</g>
	<g id="POLYLINE_00000108280342814319635860000001218196225806582920_">
		<path fill="none" stroke="#FB8604" stroke-width="2" stroke-linecap="round" stroke-linejoin="round" stroke-miterlimit="10" d="
			M243.815,310.345c-2.223,6.443-4.7,13.624-2.435,20.386c0.7,2.068,1.882,3.947,3.247,5.639c2.061,2.544,4.56,4.763,7.08,6.842
			c6.009,4.916,13.242,9.74,18.783,15.189c8.849,8.589,14.603,19.841,20.085,30.741"/>
	</g>
	<g id="POLYLINE_00000083782528760127126030000013909632776727537842_">
		<path fill="none" stroke="#FB8604" stroke-width="2" stroke-linecap="round" stroke-linejoin="round" stroke-miterlimit="10" d="
			M177.172,530.205c4.158,0.141,8.567,0.03,12.301-2.017c1.581-0.862,2.968-2.058,4.209-3.354c3.35-3.517,6.989-9.363,9.83-13.351
			c7.439-10.63,21.351-25.351,30.04-35.218c3.249-3.754,6.399-7.719,8.839-12.051c2.059-3.626,3.631-7.548,4.669-11.587
			c1.226-4.722,1.757-9.805,2.198-14.663c0.706-7.866,1.027-17.267,2.855-24.912c0.914-3.625,2.229-7.406,5.065-9.984
			c1.8-1.639,4.083-2.66,6.424-3.255c4.339-1.121,9.253-0.967,13.714-1.039"/>
	</g>
	<g id="POLYLINE_00000179630875429937299890000014479482119683167661_">
		<path fill="none" stroke="#FB8604" stroke-width="2" stroke-linecap="round" stroke-linejoin="round" stroke-miterlimit="10" d="
			M148.911,215.812c1.402,0.19,2.853,0.33,4.268,0.287c1.466-0.038,2.938-0.253,4.371-0.56c2.94-0.646,5.838-1.641,8.471-3.113"/>
	</g>
</g>
<g id="_x32_D_x24_AG-ANIMALS">
	<g id="POLYLINE_00000157289338104498543200000013539152233547041152_">
		
			<path fill="none" stroke="#FB8604" stroke-width="2.75" stroke-linecap="round" stroke-linejoin="round" stroke-miterlimit="10" d="
			M631.854,249.185c-2.563,4.066-5.648,9.675-8.881,13.185c-1.601,1.763-3.475,3.333-5.656,4.324
			c-4.259,1.984-9.82,2.12-14.436,2.64c-3.55,0.37-8.087,1.375-11.636,1.737c-1.82,0.179-3.686,0.235-5.493-0.09
			c-2.801-0.463-6.202-2.203-8.816-3.311c-4.061-1.778-8.433-2.822-12.802-3.502c-5.767-0.893-11.714-1.242-17.547-1.115"/>
	</g>
	<g id="POLYLINE_00000089562874644010242520000011370184838573039275_">
		
			<path fill="none" stroke="#FB8604" stroke-width="2.75" stroke-linecap="round" stroke-linejoin="round" stroke-miterlimit="10" d="
			M544.338,196.425c1.412,2.019,2.885,4.205,3.101,6.726c0.101,1.187-0.117,2.383-0.375,3.537c-0.429,1.811-1.07,4.126-1.201,5.962
			c-0.114,1.302-0.031,2.627,0.223,3.908c0.843,4.186,2.963,8.402,4.182,12.482c0.528,1.754,0.947,3.575,0.986,5.413
			c0.057,2.47-0.606,4.9-1.41,7.215c-0.76,2.146-2.057,5.479-2.572,7.643c-0.352,1.389-0.578,2.829-0.675,4.259
			c-0.234,3.208,0.049,7.043-0.022,10.265c-0.039,1.342-0.134,2.713-0.441,4.022c-0.223,0.942-0.566,1.872-1.118,2.673
			c-0.548,0.795-1.286,1.454-2.121,1.935c-0.956,0.546-2.059,0.892-3.168,0.835c-0.609-0.034-1.232-0.214-1.701-0.617
			c-0.42-0.356-0.703-0.845-0.912-1.348c-0.705-1.804-0.885-4.024-1.468-5.912c-0.656-2.322-1.977-4.404-3.536-6.226
			c-2.377-2.771-5.288-5.103-8.179-7.316c-5.637-4.318-13.074-8.983-17.345-14.691c-0.902-1.228-1.687-2.564-2.214-3.997
			c-0.435-1.181-0.687-2.431-0.781-3.685c-0.177-2.363,0.179-4.745,0.724-7.04c1.068-4.369,3.07-9.522,4.519-13.802
			c1.79-4.889,3.89-9.902,7.644-13.626c5.543-5.44,13.514-7.517,21.086-7.879c6.864-0.296,13.773,0.67,20.417,2.364
			c4.771,1.244,9.515,2.851,13.854,5.219c2.639,1.441,5.152,3.204,7.386,5.218c2.067,1.857,3.96,4.005,5.73,6.145
			c3.538,4.213,7.367,9.843,11.729,13.238c1.369,1.074,2.872,2.028,4.395,2.866c0.47,0.398,25.498,12.369,26.762,13.01"/>
	</g>
	<g id="POLYLINE_00000016786697345288599480000002075563264114298036_">
		
			<path fill="none" stroke="#FB8604" stroke-width="2.75" stroke-linecap="round" stroke-linejoin="round" stroke-miterlimit="10" d="
			M627.836,235.222c-0.339,0.01-0.679,0.083-0.986,0.23c-0.387,0.183-0.714,0.472-1.005,0.781c-1.085,1.222-2.115,2.605-2.476,4.228
			c-0.111,0.52-0.138,1.061-0.061,1.588c0.121,0.829,0.462,1.614,0.885,2.332c0.852,1.42,2.021,2.646,3.352,3.626
			c1.079,0.78,2.381,1.45,3.75,1.291c0.886-0.101,1.693-0.57,2.331-1.177c1.213-1.166,1.943-2.771,2.259-4.408
			c0.182-0.985,0.206-2.019-0.068-2.989c-0.234-0.842-0.704-1.607-1.3-2.242c-1.042-1.096-2.366-1.903-3.737-2.522
			C629.851,235.562,628.859,235.21,627.836,235.222z"/>
	</g>
	<g id="POLYLINE_00000007390610724528139350000003849503487759979440_">
		
			<path fill="none" stroke="#FB8604" stroke-width="2.75" stroke-linecap="round" stroke-linejoin="round" stroke-miterlimit="10" d="
			M425.207,437.441c-10.742-2.812-23.772-6.132-34.119-9.769c-6.969-2.417-13.97-5.35-20.567-8.646
			c-5.299-2.647-10.762-5.759-15.804-8.882c-4.641-2.927-14.587-9.392-19.259-11.887c-7.539-4.129-15.607-7.464-24.031-9.264
			c-7.596-1.626-15.952-2.375-23.154,1.105c-5.038,2.444-9.169,6.429-12.701,10.71c-2.943,3.586-5.525,7.518-7.385,11.777
			c-1.042,2.332-1.979,4.913-2.796,7.337c-2.744,8.268-5.993,20.343-8.847,28.556c-1.341,3.879-2.938,7.764-4.851,11.396
			c-3.281,6.262-7.478,12.205-11.669,17.889c-3.584,5.084-26.572,34.048-30.25,39.527c-4.586,7.375-7.106,15.951-7.774,24.584
			c-0.55,6.41-0.252,14.628-0.161,21.071c0.089,2.982,0.312,6.073,0.779,9.022c0.587,3.698,1.51,7.441,2.654,11.005
			c0.969,2.917,2.063,5.876,3.706,8.49c0.989,1.583,2.232,3.009,3.601,4.275l2.122,1.928c1.526,1.416,2.976,2.977,3.975,4.817
			c0.792,1.437,1.255,3.05,1.359,4.687c0.127,1.908-0.098,3.847-0.667,5.674c-0.367,1.143-0.879,2.282-1.731,3.149
			c-0.931,0.966-2.199,1.419-3.505,1.591c-1.16,0.158-2.371,0.221-3.542,0.241c-1.001-0.009-17.915,0.034-18.252-0.012
			c-0.475-0.018-0.964-0.05-1.433-0.125c-0.753-0.116-1.5-0.373-2.102-0.851c-1.268-1.01-1.748-2.665-2.056-4.193
			c-0.624-3.535-0.583-7.818-1.05-11.378c-0.147-1.259-0.709-4.198-0.935-5.484c-0.364-2.131-0.516-4.329-0.474-6.49
			c0.165-5.431,0.37-11.554-0.083-16.932c-0.553-6.991-1.754-14.305-2.992-21.213c-1.177-6.734-3.23-15.359-4.202-22.099
			c-0.173-1.392-0.301-2.825-0.237-4.227c0.055-1.262,0.293-2.526,0.756-3.703c0.606-1.56,1.566-2.978,2.529-4.339
			c2.094-2.855,4.895-6.657,6.761-9.587c1.934-3.019,3.737-6.213,5.249-9.461c2.619-5.642,4.7-11.655,6.417-17.629
			c1.272-4.524,2.425-9.205,3.017-13.87c0.653-5.032,0.581-10.307,0.398-15.376c-0.357-8.832-1.221-18.169-2.343-26.938
			c-1.214-9.683-3.686-23.385-5.282-33.096c-0.238-1.594-0.463-3.326-0.512-4.939c-0.153-4.242,1.095-8.448,2.174-12.51
			c1.873-6.842,5.968-19.187,6.844-26.083c0.303-2.29,0.445-4.638,0.162-6.936c-0.519-4.509-3.102-8.424-5.57-12.112
			c-12.298-17.742-26.077-36.874-35.109-56.447c-4.571-9.916-7.998-20.474-10.383-31.125c-2.021-8.912-3.538-18.13-2.838-27.29
			c0.549-7.368,2.455-14.671,4.624-21.714c1.985-6.084,4.555-14.213,6.867-20.164c1.53-3.993,3.731-8.881,5.479-12.793
			c0.304-0.629,0.642-1.384,0.981-1.998c0.278-0.503,0.57-1.028,0.934-1.476c0.16-0.194,0.335-0.386,0.547-0.525
			c0.813-0.537,1.422,0.303,1.781,0.959c0.722,1.394,1.14,2.958,1.482,4.485c0.55,2.607,0.711,5.323,0.332,7.966
			c-0.331,2.597-1.743,6.904-2.45,9.482c-0.545,1.966-1.042,4.06-1.396,6.069c-1,5.5-1.43,11.69-1.815,17.285
			c-0.564,8.156-0.61,16.492,0.59,24.593c2.335,15.89,7.693,31.323,14.818,45.681c2.668,5.327,5.72,10.707,9.078,15.63
			c3.073,4.506,6.562,8.919,10.181,12.998c3.508,3.845,7.152,7.989,11.167,11.315c1.53,1.242,3.195,2.368,4.996,3.178
			c1.683,0.765,3.491,1.269,5.331,1.464c2.23,0.247,4.499,0.024,6.682-0.469c1.94-0.426,3.905-1.08,5.781-1.731
			c12.982-4.753,30.913-11.749,44.074-15.545c14.46-4.335,29.639-7.041,44.612-8.858c12.227-1.47,24.84-2.439,37.156-1.886
			c8.497,0.403,18.68,1.217,27.076,0.367c8.532-0.706,19.323-3.562,27.775-5.09c3.17-0.58,6.626-1.148,9.827-1.464
			c3.079-0.307,8.408-0.605,11.374-1.309c2.239-0.514,4.469-1.209,6.528-2.236c0.372-0.201,0.863-0.453,1.124-0.765
			c8.4-4.412,16.051-10.38,22.358-17.47c2.337-2.654,4.482-5.624,6.452-8.56c2.331-3.49,5.005-7.656,7.107-11.274
			c1.976-3.326,4.21-7.947,6.232-11.241c1.448-2.392,8.058-11.379,9.74-13.787c2.762-3.818,6.157-7.186,9.872-10.076
			c1.505-1.239,4.616-3.173,6.271-4.264"/>
	</g>
	<g id="POLYLINE_00000078759212635966248550000016066263801108403874_">
		
			<path fill="none" stroke="#FB8604" stroke-width="2.75" stroke-linecap="round" stroke-linejoin="round" stroke-miterlimit="10" d="
			M541.379,273.104c-0.999,2.5-1.715,5.263-2.434,7.859c-2.42,9.632-4.919,20.973-8.043,30.346
			c-2.249,7.057-7.185,19.219-9.442,26.3c-0.459,1.486-0.881,3.043-1.182,4.569c-0.456,2.277-0.642,4.635-0.621,6.955
			c0.006,3.616,0.738,10.513,1.011,14.172c0.39,5.799,0.604,11.765-0.797,17.45c-2.056,8.32-7.537,15.257-12.972,21.679
			c-8.943,10.513-23.52,24.658-31.809,35.641c-2.561,3.444-4.862,7.156-6.526,11.12c-1.871,4.397-3.028,9.172-4.077,13.824
			c-3.99,18.557-6.917,38.348-8.921,57.225c-0.168,2.054-3.015,33.673-3.064,34.824c-0.157,2.336-0.226,4.786-0.194,7.124
			c0.06,4.622,0.442,9.301,1.223,13.858c0.522,2.991,1.2,6.028,2.196,8.899c1.059,2.986,2.557,6.079,5.299,7.852
			c1.665,1.097,3.946,1.545,5.845,2.082c1.965,0.55,3.909,1.332,5.531,2.593c1.38,1.058,2.468,2.49,3.094,4.114
			c0.853,2.19,1.138,4.585,0.995,6.924c-0.121,1.772-0.534,3.59-1.577,5.058c-0.836,1.194-2.072,2.06-3.412,2.603
			c-1.869,0.76-3.904,1.051-5.9,1.254c-2.798,0.274-6.081,0.327-8.906,0.379c-2.519-0.035-7.36,0.119-9.828-0.058
			c-1.06-0.081-2.142-0.227-3.127-0.646c-0.593-0.251-1.137-0.619-1.584-1.083c-0.66-0.681-1.127-1.528-1.487-2.399
			c-0.404-0.986-0.684-2.037-0.911-3.077c-0.496-2.218-1.093-7.086-1.441-9.385c-0.606-3.974-1.476-8.17-2.472-12.061
			c-0.879-3.404-1.907-6.871-3.225-10.132c-1.108-2.81-2.974-6.37-4.335-9.108c-0.504-1.054-0.988-2.119-1.33-3.234
			c-0.912-2.922-0.863-6.066-0.759-9.096c0.383-7.55,1.316-18.954,1.547-26.452c0.513-12.857,0.545-33.779,0.535-46.822
			c-0.121-12.043-0.197-25.686-1.244-37.644c-0.194-2.154-0.498-4.349-1.092-6.432c-0.83-2.949-1.607-6.222-2.205-9.228
			c-0.383-1.874-1.315-7.411-1.691-9.296c-0.361-1.786-0.805-3.6-1.58-5.256c-1.153-2.575-3.127-4.779-4.872-6.962
			c-0.719-0.921-1.424-1.897-1.926-2.956c-0.301-0.637-0.525-1.315-0.672-2.004c-0.404-1.923-0.309-3.922-0.118-5.866
			c0.464-4.307,1.52-8.678,2.565-12.879"/>
	</g>
	<g id="POLYLINE_00000120555511040694510670000011045169523627997087_">
		
			<path fill="none" stroke="#FB8604" stroke-width="2.75" stroke-linecap="round" stroke-linejoin="round" stroke-miterlimit="10" d="
			M318.697,390.938c-9.073,4.256-17.805,9.997-23.707,18.247c-1.962,2.714-3.621,5.68-5.023,8.717
			c-1.907,3.826-11.01,28.709-12.803,33.275c-4.646,11.938-9.727,24.165-16.07,35.296c-5.877,10.428-13.061,20.24-21.361,28.869
			c-6.302,6.808-14.355,13.856-19.319,21.731c-3.153,4.931-5.334,10.457-6.732,16.128c-1.441,5.766-2.273,11.775-2.398,17.718
			c-0.076,4.196,0.194,8.483,0.945,12.614c0.47,2.498,1.08,5.017,2.148,7.333c0.531,1.132,1.206,2.217,2.101,3.097
			c0.779,0.773,1.73,1.366,2.748,1.772c1.434,0.577,3.168,0.927,4.622,1.45c1.113,0.39,2.197,0.905,3.143,1.614
			c1.636,1.239,2.859,2.948,3.857,4.722c0.911,1.657,1.658,3.437,2.08,5.284c0.391,1.712,0.4,3.575-0.526,5.125
			c-0.365,0.609-0.812,1.189-1.384,1.618c-0.587,0.434-1.282,0.7-1.977,0.906c-1.474,0.428-3.037,0.618-4.559,0.786
			c-5.753,0.564-11.963,0.557-17.748,0.592"/>
	</g>
	<g id="POLYLINE_00000156550156341401980450000011835297934717871506_">
		
			<path fill="none" stroke="#FB8604" stroke-width="2.75" stroke-linecap="round" stroke-linejoin="round" stroke-miterlimit="10" d="
			M518.51,384.977l-17.442,33.088c-5.302,10.508-11.443,22.346-15.563,33.28c-2.145,5.645-3.775,11.74-5.225,17.604
			c-7.487,30.754-11.532,62.728-13.062,94.324c-0.131,4.076-0.102,8.246,0.587,12.274c0.609,3.537,1.712,7.028,3.392,10.205
			c1.369,2.562,3.136,4.994,5.502,6.718c1.544,1.123,3.327,1.89,5.123,2.512c2.098,0.75,4.888,1.44,6.733,2.692
			c1.195,0.792,2.193,1.865,2.977,3.06c1.155,1.764,1.885,3.785,2.325,5.839c0.41,1.961,0.591,3.999,0.374,5.996
			c-0.102,0.892-0.286,1.788-0.637,2.617c-0.232,0.542-0.543,1.063-0.981,1.464c-0.505,0.468-1.164,0.731-1.828,0.878
			c-1.168,0.255-2.411,0.267-3.603,0.295l-32.556,0.004"/>
	</g>
</g>
<g id="_x32_D_x24_AG-OUTLINE">
	<g id="POLYLINE_00000104675499175556647130000012772426542687761075_">
		
			<path fill="none" stroke="#FB8604" stroke-width="3.5" stroke-linecap="round" stroke-linejoin="round" stroke-miterlimit="10" d="
			M206.733,617.833c-0.927-0.013-14.166,0.034-14.736-0.037c-0.573-0.033-1.156-0.092-1.712-0.241
			c-0.468-0.124-0.922-0.321-1.318-0.601c-1.045-0.728-1.599-1.946-1.94-3.137c-0.265-0.929-0.417-1.907-0.529-2.865
			c-0.329-2.913-0.427-6.781-0.799-9.688c-0.147-1.259-0.709-4.198-0.935-5.484c-0.364-2.131-0.516-4.329-0.474-6.49
			c0.163-5.405,0.371-11.573-0.083-16.932c-1.047-12.81-4.022-26.567-6.534-39.2c-0.385-2.135-0.772-4.383-0.887-6.548
			c-0.078-1.488-0.006-3.008,0.397-4.449c0.54-1.98,1.701-3.728,2.877-5.385c2.094-2.855,4.895-6.657,6.761-9.587
			c1.934-3.019,3.737-6.213,5.249-9.461c2.619-5.642,4.7-11.655,6.417-17.629c1.272-4.524,2.425-9.205,3.017-13.87
			c0.653-5.032,0.581-10.307,0.398-15.376c-0.357-8.832-1.221-18.169-2.343-26.938c-1.214-9.683-3.686-23.385-5.282-33.096
			c-0.238-1.594-0.463-3.326-0.512-4.939c-0.153-4.242,1.095-8.448,2.174-12.51c1.873-6.842,5.968-19.187,6.844-26.083
			c0.303-2.29,0.445-4.638,0.162-6.936c-0.519-4.509-3.102-8.424-5.57-12.112c-12.298-17.742-26.077-36.874-35.109-56.447
			c-4.571-9.916-7.998-20.474-10.383-31.125c-1.996-8.8-3.5-17.89-2.864-26.938c0.514-7.49,2.445-14.911,4.649-22.066
			c1.985-6.083,4.555-14.213,6.867-20.164c1.53-3.993,3.731-8.881,5.479-12.793c0.304-0.629,0.642-1.384,0.981-1.998
			c0.278-0.503,0.57-1.028,0.934-1.476c0.16-0.194,0.335-0.386,0.547-0.525c0.813-0.537,1.422,0.303,1.781,0.959
			c0.722,1.394,1.14,2.958,1.482,4.485c0.55,2.607,0.711,5.323,0.332,7.966c-0.331,2.597-1.743,6.904-2.45,9.482
			c-0.545,1.966-1.042,4.06-1.396,6.069c-1,5.5-1.43,11.69-1.815,17.285c-0.562,8.154-0.611,16.494,0.59,24.593
			c2.335,15.89,7.693,31.323,14.818,45.681c2.668,5.327,5.72,10.707,9.078,15.63c3.073,4.506,6.562,8.919,10.181,12.998
			c3.508,3.845,7.152,7.989,11.167,11.315c1.53,1.242,3.195,2.368,4.996,3.178c1.683,0.765,3.491,1.269,5.331,1.464
			c2.23,0.247,4.499,0.024,6.682-0.469c1.94-0.426,3.905-1.08,5.781-1.731c12.982-4.753,30.913-11.749,44.074-15.545
			c14.46-4.335,29.639-7.041,44.612-8.858c12.227-1.47,24.84-2.439,37.156-1.886c8.497,0.403,18.68,1.217,27.076,0.367
			c8.532-0.706,19.323-3.562,27.775-5.09c3.17-0.58,6.626-1.148,9.827-1.464c2.903-0.289,8.217-0.605,11.016-1.231
			c2.342-0.508,4.681-1.226,6.834-2.287c0.386-0.206,0.903-0.467,1.176-0.792c8.401-4.416,16.051-10.376,22.358-17.47
			c2.337-2.654,4.482-5.624,6.452-8.56c2.332-3.491,5.005-7.656,7.107-11.274c1.976-3.326,4.21-7.947,6.232-11.241
			c1.444-2.387,8.06-11.383,9.74-13.787c2.762-3.818,6.157-7.186,9.872-10.076c1.505-1.239,4.616-3.173,6.271-4.264
			c1.421-2.476,3.232-4.76,5.468-6.549c2.673-2.163,5.827-3.688,9.1-4.706c5.823-1.807,12.042-2.07,18.086-1.567
			c5.374,0.461,10.732,1.531,15.895,3.083c4.694,1.414,9.32,3.282,13.43,5.982c2.575,1.682,4.964,3.717,7.071,5.957
			c3.905,4.089,7.768,9.727,11.625,13.865c1.714,1.842,3.667,3.483,5.8,4.821c2.733,1.907,25.363,12.438,28.748,14.181
			c0.496-0.014,0.992,0.08,1.469,0.207c0.787,0.214,1.55,0.54,2.274,0.915c1.54,0.825,3.08,1.895,3.893,3.489
			c0.808,1.596,0.634,3.5,0.08,5.149c-0.373,1.089-0.941,2.128-1.744,2.96c-0.541,0.558-1.201,1.023-1.953,1.243
			c-2.563,4.066-5.648,9.675-8.881,13.185c-1.601,1.763-3.475,3.333-5.656,4.324c-4.259,1.984-9.82,2.12-14.436,2.64
			c-3.55,0.37-8.087,1.375-11.636,1.737c-1.82,0.179-3.686,0.235-5.493-0.09c-2.801-0.463-6.202-2.203-8.816-3.311
			c-4.061-1.778-8.433-2.822-12.802-3.502c-5.767-0.893-11.714-1.242-17.547-1.115c-0.018,1.592-0.089,3.221-0.448,4.777
			c-0.24,1.03-0.625,2.047-1.266,2.897c-0.863,1.145-2.116,1.989-3.495,2.377c-0.999,2.5-1.715,5.263-2.434,7.859
			c-2.42,9.632-4.919,20.973-8.043,30.346c-2.249,7.057-7.185,19.219-9.442,26.3c-0.459,1.486-0.881,3.043-1.182,4.569
			c-0.456,2.277-0.642,4.635-0.621,6.955c0.006,3.616,0.738,10.513,1.011,14.172c0.511,7.249,0.651,14.835-2.158,21.672
			l-17.442,33.088c-5.302,10.508-11.443,22.346-15.563,33.28c-2.145,5.645-3.775,11.74-5.225,17.604
			c-7.487,30.754-11.532,62.728-13.062,94.324c-0.131,4.076-0.102,8.246,0.587,12.274c0.609,3.537,1.712,7.028,3.392,10.205
			c1.369,2.562,3.136,4.994,5.502,6.718c1.544,1.123,3.327,1.89,5.123,2.512c2.098,0.75,4.888,1.44,6.733,2.692
			c1.195,0.792,2.193,1.865,2.977,3.06c1.155,1.764,1.885,3.785,2.325,5.839c0.41,1.961,0.591,3.999,0.374,5.996
			c-0.102,0.892-0.286,1.788-0.637,2.617c-0.232,0.542-0.543,1.063-0.981,1.464c-0.505,0.468-1.164,0.731-1.828,0.878
			c-1.168,0.255-2.411,0.267-3.603,0.295c-6.378-0.086-35.068,0.188-40.836-0.117c-0.887-0.092-1.785-0.25-2.609-0.602
			c-0.673-0.283-1.279-0.722-1.759-1.272c-0.707-0.804-1.176-1.791-1.534-2.792c-1.157-3.315-1.567-8.392-2.131-11.879
			c-1.086-6.877-2.659-13.813-4.996-20.375c-1.416-4.012-3.603-7.949-5.426-11.753c-0.457-0.998-0.864-2.038-1.138-3.101
			c-0.322-1.224-0.483-2.507-0.558-3.769c-0.27-5.332,0.83-16.422,1.1-21.889c1.017-16.809,0.969-39.04,0.979-56.018
			c-0.095-9.474-0.205-22.366-0.805-31.758c-0.214-3.016-0.39-6.538-0.9-9.527c-0.305-1.858-0.912-3.712-1.366-5.529
			c-10.669-2.779-23.823-6.156-34.119-9.769c-6.32-2.196-12.732-4.832-18.75-7.752c-3.925-1.904-7.998-4.081-11.771-6.268
			c-5.279-2.997-15.47-9.701-20.725-12.882c-6.663-3.991-13.738-7.461-21.145-9.833c-9.073,4.256-17.805,9.997-23.707,18.247
			c-1.962,2.714-3.621,5.68-5.023,8.717c-1.907,3.826-11.01,28.709-12.803,33.275c-4.646,11.938-9.727,24.165-16.07,35.296
			c-5.877,10.428-13.061,20.24-21.361,28.869c-6.302,6.808-14.355,13.856-19.319,21.731c-3.153,4.931-5.334,10.457-6.732,16.128
			c-1.441,5.766-2.273,11.775-2.398,17.718c-0.076,4.196,0.194,8.483,0.945,12.614c0.47,2.498,1.08,5.017,2.148,7.333
			c0.531,1.132,1.206,2.217,2.101,3.097c0.779,0.773,1.73,1.366,2.748,1.772c1.434,0.577,3.168,0.927,4.622,1.45
			c1.113,0.39,2.197,0.905,3.143,1.614c1.636,1.239,2.859,2.948,3.857,4.722c0.911,1.657,1.658,3.437,2.08,5.284
			c0.391,1.712,0.4,3.575-0.526,5.125c-0.365,0.609-0.812,1.189-1.384,1.618c-0.587,0.434-1.282,0.7-1.977,0.906
			c-1.474,0.428-3.037,0.618-4.559,0.786C218.728,617.805,212.518,617.797,206.733,617.833z"/>
	</g>
</g>
</svg>
