<?xml version="1.0" encoding="utf-8"?>
<!-- Generator: Adobe Illustrator 25.4.1, SVG Export Plug-In . SVG Version: 6.00 Build 0)  -->
<!DOCTYPE svg PUBLIC "-//W3C//DTD SVG 1.1//EN" "http://www.w3.org/Graphics/SVG/1.1/DTD/svg11.dtd" [
	<!ENTITY ns_extend "http://ns.adobe.com/Extensibility/1.0/">
	<!ENTITY ns_ai "http://ns.adobe.com/AdobeIllustrator/10.0/">
	<!ENTITY ns_graphs "http://ns.adobe.com/Graphs/1.0/">
	<!ENTITY ns_vars "http://ns.adobe.com/Variables/1.0/">
	<!ENTITY ns_imrep "http://ns.adobe.com/ImageReplacement/1.0/">
	<!ENTITY ns_sfw "http://ns.adobe.com/SaveForWeb/1.0/">
	<!ENTITY ns_custom "http://ns.adobe.com/GenericCustomNamespace/1.0/">
	<!ENTITY ns_adobe_xpath "http://ns.adobe.com/XPath/1.0/">
]>
<svg version="1.1" xmlns:x="&ns_extend;" xmlns:i="&ns_ai;" xmlns:graph="&ns_graphs;"
	 xmlns="http://www.w3.org/2000/svg" xmlns:xlink="http://www.w3.org/1999/xlink" x="0px" y="0px" width="750px" height="750px"
	 viewBox="0 0 750 750" enable-background="new 0 0 750 750" xml:space="preserve">
<metadata>
	<sfw  xmlns="&ns_sfw;">
		<slices></slices>
		<sliceSourceBounds  bottomLeftOrigin="true" height="10267.395" width="5384" x="-2000" y="-1364"></sliceSourceBounds>
	</sfw>
</metadata>
<g id="FILL-BACKGROUND">
	<rect fill="#FFFFFF" width="750" height="750"/>
</g>
<g id="N-DIMENSIONS">
</g>
<g id="N-TEXT">
</g>
<g id="_x32_D_x24_AG-DIAGRAM">
	<g id="POLYLINE_00000072973359577865008310000014093876123375779502_">
		<g>
			<g>
				
					<line fill="none" stroke="#FB8604" stroke-width="3.25" stroke-linecap="round" stroke-linejoin="round" x1="88.552" y1="584.454" x2="90.552" y2="584.454"/>
				
					<line fill="none" stroke="#FB8604" stroke-width="3.25" stroke-linecap="round" stroke-linejoin="round" stroke-dasharray="3.9557,6.9225" x1="97.475" y1="584.454" x2="496.507" y2="584.454"/>
				
					<line fill="none" stroke="#FB8604" stroke-width="3.25" stroke-linecap="round" stroke-linejoin="round" x1="499.968" y1="584.454" x2="501.968" y2="584.454"/>
			</g>
		</g>
	</g>
</g>
<g id="_x32_D_x24_AG-DETAILS-DIAGRAM">
</g>
<g id="_x32_D_x24_AG-DETAILS">
</g>
<g id="_x32_D_x24_AG-ANIMALS">
	<g id="POLYLINE_00000162325155541071779670000011664356379713632404_">
		
			<path fill="none" stroke="#FB8604" stroke-width="2.75" stroke-linecap="round" stroke-linejoin="round" stroke-miterlimit="10" d="
			M244.05,471.463c0.682,1.779,1.432,3.602,2.674,5.071c0.551,0.634,1.244,1.205,2.083,1.387c1.218,0.251,2.409-0.39,3.423-0.997
			c1.607-0.959,3.171-2.46,4.825-3.34c0.246-0.117,0.508-0.22,0.783-0.231c0.793-0.03,1.194,0.836,1.517,1.431
			c1.641,3.447,3.82,6.667,6.381,9.495c0.609,0.65,1.254,1.29,1.976,1.813c0.511,0.369,1.092,0.672,1.723,0.758
			c1.343,0.175,2.984-0.635,4.342-0.744c0.305-0.024,0.616,0.029,0.888,0.172c0.3,0.154,0.558,0.382,0.797,0.618
			c0.605,0.608,1.144,1.32,1.661,2.004c2.816,3.838,5.582,8.103,9.01,11.424c0.988,0.943,2.033,1.886,3.249,2.526
			c0.47,0.232,0.998,0.448,1.531,0.355l0.02-0.004l0.019-0.004l0.019-0.005l0.019-0.005l0.019-0.005l0.019-0.006l0.019-0.006
			l0.018-0.006l0.018-0.007l0.018-0.007l0.018-0.007l0.018-0.008l0.018-0.008l0.017-0.008l0.017-0.009l0.017-0.009l0.017-0.009
			l0.017-0.01l0.017-0.01l0.016-0.01c0.169-0.11,0.298-0.271,0.404-0.441c0.427-0.718,0.572-1.617,0.938-2.364
			c0.167-0.348,0.42-0.695,0.81-0.801c0.65-0.175,1.36,0.141,1.938,0.422c0.651,0.33,1.277,0.75,1.872,1.172
			c2.353,1.697,6.128,4.982,8.407,6.862c2.653,2.148,5.38,4.435,8.445,5.966c0.717,0.334,1.477,0.637,2.275,0.682
			c0.434,0.022,0.888-0.06,1.246-0.317c0.438-0.318,0.696-0.819,0.93-1.294c0.26-0.523,0.509-1.212,0.903-1.647
			c0.094-0.099,0.203-0.187,0.33-0.24l0.016-0.006l0.016-0.006l0.016-0.006l0.016-0.005l0.016-0.005l0.016-0.005l0.017-0.004
			l0.017-0.004l0.017-0.004l0.017-0.003l0.017-0.003l0.017-0.003l0.017-0.002l0.017-0.002L320.02,511l0.018-0.001l0.018-0.001
			l0.018,0l0.018,0l0.018,0l0.018,0.001c0.303,0.015,0.587,0.144,0.849,0.288c1.523,0.908,3.565,3.148,4.89,4.35
			c1.929,1.805,4.047,3.473,6.412,4.667c1.291,0.639,2.685,1.166,4.137,1.238c0.691,0.034,1.393-0.065,2.037-0.321
			c1.349-0.497,2.499-1.655,3.832-2.064c0.617-0.187,1.281-0.073,1.865,0.172c1.448,0.617,2.968,1.935,4.28,2.797
			c1.556,1.073,3.296,1.922,5.026,2.677c1.494,0.649,4.638,1.86,6.021,2.628c0.454,0.246,0.946,0.598,1.425,0.793
			c0.231,0.092,0.488,0.136,0.732,0.076c0.198-0.046,0.38-0.147,0.547-0.261c0.764-0.545,1.463-1.449,2.101-2.138
			c0.561-0.592,1.182-1.303,2.03-1.43c0.374-0.052,0.751,0.049,1.085,0.213c0.57,0.282,1.073,0.694,1.559,1.099l1.801,1.581
			c0.712,0.617,1.485,1.191,2.309,1.65c1.096,0.629,2.439,1.137,3.622,1.594"/>
	</g>
	<g id="POLYLINE_00000028327296946403713180000007025515736137280185_">
		
			<path fill="none" stroke="#FB8604" stroke-width="2.75" stroke-linecap="round" stroke-linejoin="round" stroke-miterlimit="10" d="
			M144.073,535.13c0.792-2.839,2.206-5.497,3.976-7.845c1.491-1.953,3.265-3.751,5.405-4.985c1.042-0.602,2.171-1.061,3.338-1.355
			c1.647-0.424,3.718-0.524,5.409-0.732c2.367-0.265,4.742-0.843,6.82-2.039c3.372-1.929,6.104-5.055,9.104-7.478
			c0.42-0.313,0.857-0.649,1.367-0.799l0.023-0.006l0.023-0.005l0.023-0.005l0.022-0.004l0.022-0.004l0.022-0.003l0.021-0.003
			l0.021-0.002l0.021-0.002l0.021-0.001l0.02-0.001l0.02,0l0.02,0.001l0.019,0.001l0.019,0.002l0.019,0.002l0.019,0.003l0.018,0.003
			l0.018,0.004l0.018,0.005l0.017,0.005c0.133,0.041,0.239,0.141,0.316,0.255c0.283,0.456,0.324,1.04,0.395,1.561
			c0.079,0.562,0.079,1.247,0.342,1.759c0.064,0.116,0.154,0.221,0.269,0.288c0.237,0.139,0.528,0.113,0.789,0.067
			c0.385-0.074,0.759-0.215,1.121-0.364c1.768-0.744,4.566-2.456,6.274-3.391c1.395-0.801,2.737-1.736,3.925-2.822
			c3.073-2.799,6.029-6.979,8.924-9.96c0.476-0.462,0.972-0.988,1.579-1.272l0.02-0.008l0.02-0.008l0.02-0.007l0.02-0.007
			l0.019-0.006l0.019-0.005l0.019-0.005l0.018-0.004l0.018-0.004l0.018-0.003l0.018-0.003l0.017-0.002l0.017-0.001l0.017-0.001
			l0.016,0l0.016,0l0.016,0.001l0.015,0.002l0.015,0.002l0.008,0.001l0.008,0.002l0.008,0.002l0.008,0.002l0.007,0.002l0.007,0.002
			l0.007,0.002l0.007,0.003l0.007,0.003l0.007,0.003l0.007,0.003l0.007,0.003l0.007,0.003l0.007,0.004l0.007,0.004l0.007,0.004
			l0.007,0.004l0.006,0.004l0.006,0.004l0.006,0.005l0.006,0.005l0.006,0.005l0.006,0.005l0.006,0.005l0.006,0.005l0.006,0.005
			l0.006,0.006l0.006,0.006l0.006,0.006l0.006,0.006l0.005,0.006l0.005,0.006c0.122,0.152,0.165,0.35,0.201,0.537
			c0.199,1.443-0.039,3.053,0.522,4.433c0.166,0.41,0.41,0.813,0.789,1.058c0.27,0.177,0.601,0.245,0.921,0.214l0.036-0.004
			l0.037-0.004l0.037-0.005l0.037-0.006c0.488-0.085,0.941-0.311,1.365-0.56c0.832-0.499,1.592-1.138,2.309-1.79
			c1.947-1.8,3.705-3.87,5.354-5.943c1.937-2.46,3.79-5.068,5.443-7.728c0.887-1.396,2.357-4.104,3.392-5.349
			c0.172-0.192,0.357-0.386,0.592-0.499l0.013-0.006l0.013-0.006l0.013-0.005l0.013-0.005l0.013-0.005l0.013-0.004l0.013-0.004
			l0.013-0.004l0.013-0.003l0.013-0.003l0.013-0.003l0.013-0.002l0.013-0.002l0.012-0.002l0.012-0.001l0.012-0.001l0.012-0.001
			l0.012,0l0.012,0l0.012,0l0.012,0.001l0.012,0.001l0.012,0.001l0.012,0.002l0.012,0.002l0.012,0.002l0.012,0.003l0.012,0.003
			l0.012,0.003l0.012,0.004l0.012,0.004l0.012,0.004l0.011,0.005l0.011,0.005l0.011,0.005l0.011,0.006l0.011,0.006l0.011,0.006
			l0.011,0.007l0.011,0.007l0.011,0.007l0.011,0.008l0.011,0.008l0.009,0.007l0.009,0.007l0.009,0.008
			c0.288,0.27,0.43,0.668,0.585,1.023c0.408,1.012,0.758,2.118,1.388,3.019c0.26,0.368,0.579,0.708,0.975,0.931l0.036,0.02
			l0.036,0.019l0.037,0.019l0.037,0.018l0.037,0.017c1.199,0.515,2.555,0.092,3.685-0.416c1.759-0.827,3.301-2.075,4.686-3.425
			c2.005-1.982,3.707-4.291,5.025-6.782c2.636-4.949,3.595-10.857,4.846-16.272c0.218-0.794,0.414-1.674,0.887-2.357l0.018-0.024
			l0.018-0.023l0.018-0.022l0.018-0.021l0.019-0.02l0.019-0.02l0.019-0.019l0.019-0.018l0.019-0.017l0.019-0.016l0.019-0.016
			l0.019-0.015l0.019-0.014l0.02-0.013l0.02-0.012l0.02-0.012l0.02-0.011c0.342-0.174,0.746,0.008,1.088,0.098
			c0.271,0.076,0.564,0.13,0.841,0.051l0.021-0.006l0.021-0.007l0.021-0.007l0.021-0.008l0.021-0.008l0.021-0.009l0.021-0.009
			l0.021-0.01l0.021-0.01l0.021-0.011c0.434-0.228,0.748-0.628,1.024-1.023c0.943-1.438,1.504-3.108,2.014-4.74
			c1.253-4.249,1.927-8.709,1.828-13.143c-0.084-3.771-0.775-7.546-1.963-11.124"/>
	</g>
	<g id="POLYLINE_00000067194152322961302000000001734528691037674650_">
		
			<path fill="none" stroke="#FB8604" stroke-width="2.75" stroke-linecap="round" stroke-linejoin="round" stroke-miterlimit="10" d="
			M486.827,245.549c-10.787,4.247-20.815,10.426-29.879,17.621c-4.101,3.324-8.078,6.951-11.206,11.228
			c-1.324,1.813-2.432,3.831-3.407,5.851c-1.676,3.506-3.351,7.601-6.016,10.471c-1.911,2.107-4.223,3.845-6.592,5.405
			c-4.5,2.935-10.152,5.714-14.917,8.224c-3.761,1.917-7.747,3.559-11.945,4.184c-6.728,0.998-14.665,0.167-21.445,0.551
			c-3.515,0.158-7.036,0.803-10.436,1.692c-3.735,0.968-8.388,2.378-12.112,2.943c-3.252,0.523-6.666,0.703-9.96,0.758
			c-3.843,0.108-43.095-0.705-47.975-0.73c-6.054-0.171-12.588-0.527-18.615-1.127c-7.799-0.799-15.813-2.021-23.438-3.831
			c-4.884-1.177-9.818-2.598-14.433-4.596c-3.094-1.344-6.093-3.032-8.575-5.339c-3.668-3.346-6.548-8.398-9.312-12.504
			c-2.337-3.515-4.837-7.267-7.612-10.442c-1.07-1.198-2.207-2.39-3.564-3.266c-0.681-0.427-1.462-0.788-2.283-0.723
			c-1.448,0.127-2.494,1.397-3.371,2.436l-2.117,2.664c-2.666,3.206-5.678,6.202-8.878,8.875c-2.265,1.902-5.406,3.966-7.455,6.095
			c-0.847,0.862-1.597,1.842-2.269,2.846c-0.694,1-1.445,2.291-2.311,3.142c-0.307,0.288-0.678,0.571-1.116,0.582
			c-0.179,0.004-0.355-0.047-0.515-0.126c-0.57-0.287-1.053-0.868-1.506-1.308c-0.244-0.23-0.552-0.557-0.891-0.619l-0.009-0.001
			l-0.009-0.001l-0.008-0.001l-0.008-0.001l-0.013-0.001l-0.012,0h-0.012l-0.012,0l-0.012,0.001l-0.012,0.001l-0.012,0.001
			l-0.012,0.002l-0.012,0.002l-0.012,0.002l-0.012,0.003l-0.012,0.003l-0.012,0.003l-0.012,0.004l-0.012,0.004l-0.012,0.004
			l-0.012,0.005l-0.012,0.005l-0.011,0.005l-0.011,0.006l-0.011,0.006l-0.011,0.006l-0.011,0.007l-0.011,0.007l-0.011,0.007
			l-0.011,0.008l-0.011,0.008l-0.011,0.008l-0.011,0.009l-0.011,0.009l-0.011,0.009l-0.011,0.01l-0.011,0.01
			c-0.163,0.158-0.269,0.365-0.359,0.571c-0.279,0.666-0.419,1.399-0.553,2.107c-0.227,1.139-1.108,8.161-1.293,9.466
			c-0.245,1.931-0.49,4.006-0.537,5.947c-0.079,1.909,0.247,3.943,0.237,5.85c-0.008,1.378-0.246,2.759-0.716,4.055
			c-1.352,3.643-4.017,7.063-5.861,10.461c-0.204,0.408-0.428,0.831-0.5,1.286l-0.002,0.02l-0.002,0.019l-0.001,0.019l-0.001,0.019
			l-0.001,0.018l0,0.018c-0.005,0.418,0.394,0.542,0.481,0.961l0.005,0.023l0.005,0.024l0.004,0.024l0.004,0.025l0.003,0.026
			l0.003,0.026l0.002,0.027l0.002,0.028c0.017,0.99-0.496,2.22-0.862,3.141c-2.141,4.902-5.102,9.462-8.382,13.676
			c-2.612,3.407-6.495,6.978-9.324,10.215c-0.308,0.393-0.639,0.798-0.801,1.276l-0.006,0.021l-0.006,0.021l-0.005,0.021
			l-0.005,0.02l-0.004,0.02l-0.004,0.02l-0.003,0.019l-0.003,0.019l-0.002,0.019l-0.002,0.019l-0.001,0.018l-0.001,0.018l0,0.018
			l0,0.018l0.001,0.017l0.001,0.017l0.002,0.017l0.002,0.016l0.003,0.016l0.003,0.016l0.004,0.016l0.005,0.015l0.005,0.015
			l0.006,0.015l0.006,0.015c0.13,0.274,0.523,0.398,0.776,0.535c0.257,0.129,0.519,0.29,0.666,0.546l0.009,0.017l0.009,0.017
			l0.009,0.017l0.008,0.017l0.008,0.018l0.008,0.018l0.008,0.018l0.007,0.018l0.007,0.019l0.007,0.019
			c0.114,0.346,0.084,0.721,0.028,1.076c-0.161,0.915-0.529,1.791-0.905,2.636c-2.567,5.381-7.857,13.271-10.978,18.459
			c-3.329,5.519-6.624,11.355-9.27,17.23c-2.144,4.851-4.082,9.928-4.723,15.222c-0.055,0.69-0.135,1.614,0.126,2.226l0.007,0.015
			l0.008,0.015l0.008,0.014l0.008,0.014l0.008,0.014l0.008,0.013l0.008,0.013l0.008,0.013l0.009,0.012l0.009,0.012l0.009,0.011
			l0.009,0.011l0.009,0.011l0.009,0.01l0.01,0.01l0.01,0.009l0.01,0.009l0.01,0.009l0.01,0.008l0.01,0.008l0.011,0.007l0.011,0.007
			l0.011,0.007l0.011,0.006l0.011,0.006l0.011,0.005l0.012,0.005l0.012,0.004l0.012,0.004l0.012,0.004
			c0.277,0.069,0.642-0.146,0.9-0.239c0.246-0.096,0.518-0.191,0.782-0.121l0.019,0.005l0.019,0.006l0.019,0.007l0.019,0.007
			l0.018,0.008l0.018,0.008l0.018,0.009l0.018,0.01l0.018,0.01l0.018,0.011l0.018,0.011l0.018,0.012l0.018,0.013l0.017,0.013
			l0.017,0.014l0.017,0.014l0.017,0.015l0.017,0.015l0.017,0.016l0.017,0.016l0.017,0.017l0.017,0.018l0.016,0.018l0.016,0.019
			c0.229,0.272,0.37,0.608,0.487,0.94c0.206,0.607,0.325,1.253,0.416,1.887c0.656,5.631-0.191,11.361-1.513,16.839
			c-0.592,2.48-2.032,7.463-2.364,9.924c-0.066,0.526-0.115,1.068-0.063,1.597c0.03,0.301,0.103,0.603,0.257,0.866
			c0.186,0.334,0.525,0.611,0.804,0.867c0.424,0.376,0.657,0.8,0.794,1.347c0.254,1.031,0.237,2.127,0.232,3.183
			c-0.037,1.36-0.122,4.178-0.165,5.549c-0.124,3.047-0.486,6.158-1.687,8.986c-2.033,4.849-7.314,9.849-10.678,13.837
			c-2.383,2.761-4.596,5.743-6.447,8.886c-1.076,1.838-2.095,3.764-2.816,5.771c-0.279,0.802-0.526,1.635-0.596,2.484
			c-0.03,0.427-0.018,0.875,0.155,1.274c0.277,0.65,0.962,0.989,1.491,1.405c0.405,0.304,0.726,0.713,0.927,1.178
			c0.334,0.754,0.457,1.585,0.523,2.401c0.287,4.389-1.148,11.996-1.624,16.416c-0.485,4.115-0.812,8.338-0.6,12.48
			c0.195,4.895,1.254,10.821,1.572,15.719c0.1,1.607,0.042,3.25-0.158,4.847c-0.204,1.72-0.566,3.719-0.385,5.445
			c0.265,2.5,1.35,4.842,2.633,6.976c1.213,1.602,2.491,3.31,3.865,4.773c0.751,0.795,1.561,1.56,2.491,2.142
			c0.733,0.463,1.55,0.789,2.387,1.007c1.184,0.313,2.425,0.453,3.645,0.538c2.033,0.195,20.451,0.112,22.938,0.131
			c2.079-0.062,4.653,0.133,6.684-0.313c0.586-0.141,1.162-0.373,1.635-0.751c0.626-0.495,1.026-1.215,1.302-1.952
			c0.643-1.81,0.836-3.758,0.986-5.663c0.121-1.913,0.135-3.861-0.133-5.762c-0.199-1.369-0.609-2.755-1.475-3.855
			c-0.986-1.27-2.498-1.98-3.987-2.484c-2.354-0.777-5.153-1.141-7.496-1.948c-1.135-0.394-2.258-0.912-3.167-1.712
			c-0.305-0.274-0.586-0.585-0.787-0.944c-0.213-0.377-0.336-0.799-0.416-1.222c-0.246-1.418-0.213-2.925-0.211-4.361
			c0.159-6.17,0.583-12.484,2.619-18.356"/>
	</g>
	<g id="POLYLINE_00000098188940221010050090000004110434590558844848_">
		
			<path fill="none" stroke="#FB8604" stroke-width="2.75" stroke-linecap="round" stroke-linejoin="round" stroke-miterlimit="10" d="
			M371.727,438.318c-0.083,4.163-0.474,8.409-1.846,12.364c-1.121,3.155-2.879,6.115-5.194,8.54
			c-1.389,1.499-3.544,3.092-4.819,4.692c-0.216,0.29-0.413,0.607-0.51,0.958c-0.139,0.481-0.01,0.948,0.322,1.316
			c0.641,0.691,1.591,1.039,2.45,1.378c1.558,0.588,3.508,1.071,5.107,1.559c0.242,0.082,0.491,0.17,0.714,0.295
			c0.26,0.144,0.482,0.361,0.435,0.683c-0.048,0.313-0.239,0.583-0.418,0.836c-0.267,0.363-0.59,0.714-0.899,1.042
			c-1.883,1.924-5.275,5.118-7.19,6.983c-0.398,0.433-0.909,0.993-0.857,1.62c0.028,0.286,0.182,0.543,0.369,0.754
			c0.688,0.733,1.655,1.144,2.564,1.533c2.838,1.145,5.912,1.819,8.898,2.452c0.246,0.073,0.558,0.149,0.726,0.346l0.004,0.005
			l0.004,0.005l0.004,0.005l0.003,0.005l0.003,0.005l0.003,0.005l0.003,0.005l0.003,0.005l0.003,0.005l0.003,0.005l0.003,0.005
			l0.003,0.005l0.002,0.005l0.002,0.005l0.002,0.006l0.002,0.006l0.002,0.006l0.002,0.006l0.002,0.006l0.002,0.006l0.001,0.006
			l0.001,0.006l0.001,0.006l0.001,0.006l0.001,0.006l0.001,0.006l0.001,0.006l0.001,0.006l0,0.006l0,0.006l0,0.006v0.006l0,0.006
			l0,0.006l0,0.006l0,0.006l-0.001,0.006l-0.001,0.006l-0.001,0.006l-0.001,0.007l-0.001,0.007l-0.001,0.007
			c-0.063,0.252-0.302,0.471-0.482,0.65c-1.563,1.388-3.482,2.491-4.915,4.027c-0.346,0.375-0.677,0.78-0.892,1.246
			c-0.216,0.456-0.251,0.962-0.036,1.425c0.412,0.868,1.309,1.513,2.056,2.088c1.579,1.171,4.057,2.71,5.559,3.967
			c0.317,0.268,0.628,0.558,0.894,0.877c0.359,0.427,0.638,0.933,0.747,1.483c0.134,0.652,0.047,1.329-0.121,1.966
			c-0.435,1.562-1.217,3.032-1.974,4.458l-1.843,3.297c-0.271,0.511-0.558,1.04-0.718,1.597c-0.078,0.278-0.115,0.576-0.055,0.861
			c0.051,0.251,0.173,0.483,0.321,0.691c0.765,1.038,2.399,2.107,3.394,2.928c1.261,1.079,3.332,2.67,4.579,3.73
			c0.322,0.286,0.638,0.59,0.909,0.925c0.273,0.337,0.509,0.712,0.647,1.125c0.421,1.281-0.233,2.67-0.83,3.791
			c-0.742,1.43-1.956,2.767-2.495,4.298c-0.206,0.611-0.256,1.278-0.107,1.908c0.26,1.076,0.942,1.994,1.608,2.856
			c1,1.279,2.378,2.623,3.416,3.873c0.225,0.281,0.447,0.578,0.617,0.896c0.206,0.376,0.314,0.803,0.157,1.218
			c-0.227,0.576-0.631,1.073-0.999,1.564c-0.85,1.147-2.172,2.403-2.789,3.699c-0.188,0.414-0.303,0.866-0.294,1.323
			c0.006,0.497,0.157,0.984,0.389,1.421c1.184,2.09,3.527,3.85,5.283,5.468c0.486,0.448,0.976,0.915,1.332,1.477
			c0.298,0.465,0.483,0.995,0.602,1.532c0.607,3.093,0.411,6.697,1.058,9.783c0.14,0.59,0.351,1.18,0.73,1.661
			c0.584,0.712,1.604,1.413,2.277,2.1c1.92,1.79,3.814,4.508,5.391,6.619c1.438,1.831,3.03,3.94,5.211,4.899
			c1.791,0.761,3.803,0.756,5.717,0.804c2.654-0.072,36.739,0.188,38.242-0.143c1.022-0.123,2.072-0.319,2.971-0.842
			c0.635-0.368,1.148-0.931,1.471-1.588c0.476-0.962,0.621-2.051,0.675-3.113c0.086-2.221-0.187-4.48-0.52-6.673
			c-0.297-1.8-0.647-3.651-1.211-5.387c-0.262-0.777-0.586-1.554-1.092-2.206c-0.725-0.941-1.815-1.509-2.895-1.948
			c-4.401-1.769-9.508-1.104-13.967-2.645c-1.697-0.593-3.322-1.455-4.709-2.603c-0.515-0.438-1.032-0.91-1.365-1.506
			c-0.46-0.827-0.545-1.801-0.578-2.731c-0.04-1.376,0.087-2.848,0.199-4.221c0.722-8.27,3.741-27.009,4.953-35.427
			c-0.062-2.654,0.644-5.278,1.615-7.729c0.703-1.67,1.462-3.428,2.633-4.826c0.552-0.642,1.248-1.172,2.045-1.469
			c1.005-0.38,2.109-0.403,3.171-0.414c2.859,0.035,5.936,0.166,8.657-0.83c1.398-0.484,2.685-1.257,3.855-2.155
			c2.878-2.194,5.519-5.342,8.007-7.97c0.632-0.654,1.296-1.334,2.017-1.889c0.293-0.221,0.606-0.433,0.952-0.562l0.032-0.011
			l0.031-0.01l0.031-0.01l0.031-0.009l0.031-0.008l0.03-0.008l0.03-0.007l0.03-0.006l0.029-0.005l0.029-0.004l0.029-0.004
			l0.029-0.003l0.028-0.002l0.028-0.001l0.028,0c0.718-0.001,1.192,0.867,1.6,1.359c0.348,0.443,0.754,0.876,1.29,1.085
			c1.082,0.404,2.319,0.079,3.365-0.301c3.063-1.212,5.747-3.48,7.847-5.988c1.016-1.233,1.918-2.624,2.751-3.987
			c0.716-1.165,1.764-3.045,2.625-4.094c0.277-0.325,0.582-0.653,0.978-0.831l0.021-0.009l0.021-0.008l0.021-0.008l0.021-0.007
			l0.021-0.007l0.021-0.007l0.021-0.006l0.021-0.006l0.021-0.005l0.021-0.005l0.021-0.004l0.021-0.004l0.021-0.003l0.021-0.003
			l0.021-0.002l0.021-0.002l0.021-0.001l0.021-0.001l0.021,0l0.021,0l0.021,0.001l0.021,0.001l0.021,0.002l0.021,0.002l0.021,0.003
			l0.021,0.003l0.021,0.004l0.021,0.004l0.021,0.005l0.016,0.004l0.016,0.004c0.574,0.184,1.019,0.803,1.383,1.26
			c0.627,0.811,1.312,1.882,2.077,2.56c0.342,0.308,0.731,0.58,1.172,0.721c0.6,0.194,1.254,0.103,1.837-0.11
			c1.191-0.446,2.194-1.281,3.105-2.148c2.203-2.176,3.989-4.786,5.389-7.541c0.939-1.802,1.657-4.169,2.82-5.845
			c0.42-0.588,0.952-1.102,1.581-1.46c1.471-0.828,3.425-1.115,5.044-1.545c1.821-0.461,3.685-1.114,5.047-2.462
			c2.033-1.986,3.167-4.838,4.37-7.367c0.375-0.773,0.756-1.578,1.267-2.272c0.202-0.251,0.517-0.381,0.829-0.429
			c0.547-0.083,1.108-0.001,1.65,0.079c1.269,0.182,2.686,0.621,3.922,0.093c0.696-0.296,1.23-0.875,1.613-1.515
			c0.928-1.605,1.265-3.486,1.617-5.285c0.827-5.047,1.823-11.221,3.157-16.111c0.528-1.945,1.109-3.936,1.936-5.777
			c0.369-0.771,0.755-1.586,1.414-2.154l0.027-0.021l0.027-0.02l0.027-0.02l0.027-0.019l0.027-0.018l0.027-0.017l0.027-0.016
			l0.027-0.015l0.027-0.015l0.027-0.014l0.027-0.013l0.027-0.012l0.027-0.011l0.027-0.01l0.026-0.01
			c0.761-0.263,1.446,0.504,2.198,0.366l0.022-0.005l0.022-0.006l0.022-0.006l0.022-0.007l0.022-0.007l0.022-0.008l0.022-0.008
			l0.022-0.009l0.022-0.01l0.022-0.01l0.022-0.011l0.022-0.011l0.022-0.012l0.022-0.013l0.022-0.013l0.022-0.014l0.021-0.014
			l0.022-0.015c0.503-0.372,0.813-0.943,1.1-1.485c0.412-0.812,0.747-1.707,1.052-2.565c1.208-3.512,2.908-9.904,4.067-13.428
			c0.884-2.742,1.881-5.65,3-8.303c0.59-1.375,1.229-2.785,2.038-4.047c0.382-0.57,0.793-1.163,1.384-1.532l0.026-0.015l0.026-0.015
			l0.026-0.014l0.026-0.013l0.026-0.013l0.026-0.012l0.026-0.011l0.026-0.01l0.026-0.01l0.026-0.009l0.026-0.008l0.026-0.008
			l0.026-0.007c0.353-0.095,0.723,0.043,1.057,0.152c0.189,0.058,0.402,0.115,0.591,0.031l0.015-0.007l0.015-0.008l0.015-0.008
			l0.015-0.009l0.015-0.009l0.014-0.01l0.014-0.01l0.014-0.011l0.014-0.011l0.014-0.012l0.014-0.013l0.014-0.013l0.014-0.014
			l0.014-0.014l0.014-0.015l0.013-0.015l0.013-0.016l0.013-0.016l0.013-0.017l0.013-0.017c0.151-0.209,0.249-0.454,0.333-0.697
			c0.391-1.216,0.533-2.565,0.701-3.829c0.64-5.63,1.116-12.251,2.848-17.632c0.378-1.146,0.817-2.298,1.47-3.318
			c0.417-0.631,0.947-1.271,1.695-1.5l0.03-0.008l0.03-0.008l0.03-0.007l0.03-0.007l0.03-0.006l0.03-0.006l0.03-0.005l0.031-0.005
			l0.031-0.004l0.031-0.003l0.031-0.003c1.145-0.07,2.103,0.79,3.179,1.031c0.198,0.038,0.415,0.04,0.598-0.055l0.01-0.005
			l0.01-0.006l0.01-0.006l0.01-0.006l0.01-0.006l0.01-0.006l0.01-0.007l0.01-0.007c0.004-0.003,0.015-0.011,0.019-0.014l0.016-0.013
			l0.016-0.013l0.016-0.014l0.016-0.015l0.016-0.015l0.015-0.016l0.015-0.016l0.015-0.017l0.015-0.018l0.015-0.018l0.014-0.019
			l0.014-0.019l0.014-0.02l0.014-0.02l0.014-0.021l0.013-0.022c0.16-0.269,0.248-0.577,0.319-0.88
			c0.162-0.728,0.223-1.505,0.278-2.249c0.137-2.016,0.162-4.476,0.578-6.441c0.11-0.498,0.252-0.998,0.476-1.457
			c0.195-0.403,0.479-0.766,0.834-1.041c0.391-0.307,0.857-0.508,1.322-0.677l0.772-0.271c0.529-0.191,1.065-0.428,1.459-0.841
			c0.362-0.376,0.578-0.865,0.738-1.355c0.699-2.203,0.46-4.792,1.133-6.982c0.168-0.504,0.488-0.952,0.919-1.264
			c0.701-0.5,1.455-0.811,2.051-1.477c0.673-0.722,1.184-1.587,1.624-2.466c0.638-1.303,1.129-2.697,1.42-4.119"/>
	</g>
	<g id="POLYLINE_00000005945613838869349470000000485586765034461317_">
		
			<path fill="none" stroke="#FB8604" stroke-width="2.75" stroke-linecap="round" stroke-linejoin="round" stroke-miterlimit="10" d="
			M533.547,227.312c2.97,1.672,5.755,3.738,8.13,6.187c1.769,1.84,3.346,3.933,4.312,6.311c1.631,3.862,0.752,8.307,0.418,12.341
			c-0.26,2.824-0.149,5.559,0.678,8.287c1.905,6.443,5.889,12.397,6.944,19.102c0.65,4.13,0.483,8.523-1.185,12.403
			c-0.581,1.316-1.369,2.56-2.415,3.557c-0.975,0.935-2.17,1.639-3.46,2.042c-3.523,1.105-7.295,0.067-10.526-1.466
			c-5.428-2.521-11.46-7.282-16.389-10.72c-2.326-1.647-4.792-3.24-7.321-4.552c-3.113-1.671-8.163-3.571-11.467-4.909
			c-4.657-1.938-9.461-4.334-12.476-8.53c-2.908-4.102-4.111-9.288-3.796-14.271c0.17-2.711,0.96-5.352,1.959-7.865l2.065-5.008
			c1.846-4.31,1.981-9.171,4.266-13.17c0.765-1.344,1.782-2.54,2.949-3.551c2.048-1.777,4.445-3.13,6.878-4.304
			c9.83-4.601,21.95-7.209,32.428-10.067c4.281-1.173,9.125-2.902,13.59-2.823c7.935-0.01,15.09,5.046,22.442,7.353
			c1.046,0.287,2.189,0.586,3.27,0.336l0.042-0.011c0.803-0.206,1.358-0.904,1.871-1.509c0.302-0.344,0.658-0.706,1.134-0.767
			l0.025-0.003l0.025-0.003l0.025-0.002l0.025-0.002l0.026-0.001l0.026-0.001l0.026,0l0.026,0c0.523,0.019,1.01,0.254,1.459,0.504
			c2.17,1.322,3.95,3.268,5.71,5.078c1.752,1.884,4.741,5.172,6.412,7.125c1.076,1.276,2.157,2.615,3.019,4.046
			c0.978,1.589,1.556,3.394,1.964,5.205c0.664,2.938,1.174,6.09,2.441,8.842c0.57,1.239,1.306,2.427,2.29,3.38
			c1.806,1.743,4.293,2.518,6.687,3.067c3.901,0.842,8.739,1.34,12.588,2.378c5.166,1.336,11.513,3.918,16.548,5.788
			c0.61,0.216,1.566,0.55,2.175,0.743"/>
	</g>
	<g id="POLYLINE_00000066479000116397423060000012633907292192610730_">
		
			<path fill="none" stroke="#FB8604" stroke-width="2.75" stroke-linecap="round" stroke-linejoin="round" stroke-miterlimit="10" d="
			M648.048,274.709c-0.674,3.221-1.843,6.348-3.337,9.277c-2.013,4.067-9.515,15.588-11.97,19.649
			c-1.647,2.545-3.294,5.313-5.527,7.388c-0.479,0.415-1.008,0.813-1.628,0.984l-0.036,0.009l-0.036,0.008l-0.036,0.008
			l-0.036,0.007l-0.035,0.006l-0.035,0.006l-0.035,0.005l-0.035,0.004l-0.035,0.003l-0.035,0.003l-0.034,0.002l-0.034,0.001
			l-0.034,0c-0.934-0.015-1.636-0.813-2.296-1.379c-0.358-0.305-0.795-0.687-1.3-0.556c-0.205,0.05-0.389,0.163-0.555,0.289
			c-0.773,0.622-1.651,1.864-2.304,2.62c-1.182,1.414-2.527,2.731-3.929,3.926c-1.15,0.968-2.373,1.903-3.692,2.629
			c-0.764,0.401-1.725,0.874-2.607,0.763l-0.026-0.004l-0.026-0.005l-0.026-0.005l-0.026-0.006l-0.025-0.006l-0.025-0.006
			l-0.025-0.007l-0.024-0.007l-0.024-0.008l-0.024-0.008l-0.023-0.009l-0.023-0.009l-0.023-0.01l-0.023-0.01l-0.022-0.011
			l-0.022-0.011l-0.022-0.012c-0.378-0.208-0.592-0.611-0.746-0.999c-0.294-0.741-0.416-1.673-0.74-2.402
			c-0.079-0.17-0.175-0.337-0.307-0.47l-0.014-0.014l-0.014-0.014l-0.014-0.013l-0.015-0.013l-0.015-0.013l-0.015-0.012
			l-0.015-0.012l-0.015-0.012l-0.016-0.011l-0.016-0.011l-0.016-0.01l-0.016-0.01l-0.016-0.01l-0.016-0.009l-0.017-0.009
			l-0.017-0.009l-0.017-0.008l-0.017-0.008l-0.017-0.008l-0.018-0.008l-0.018-0.007l-0.018-0.007l-0.018-0.007l-0.018-0.006
			l-0.018-0.006l-0.019-0.006l-0.019-0.005l-0.019-0.005c-0.307-0.076-0.63-0.029-0.932,0.048c-0.384,0.1-0.763,0.261-1.122,0.43
			c-1.231,0.575-3.631,2.11-4.837,2.823c-4.344,2.588-8.971,4.83-13.809,6.326c-1.961,0.562-4.196,1.145-6.24,0.853
			c-0.666-0.105-1.33-0.37-1.785-0.884c-0.697-0.763-0.947-1.856-1.33-2.789c-0.227-0.567-0.554-1.143-1.127-1.415
			c-0.373-0.188-0.794-0.263-1.208-0.294c-0.843-0.055-1.703,0.053-2.537,0.162c-5.787,0.975-11.556,1.435-17.406,0.735
			c-1.026-0.135-2.07-0.308-3.055-0.63c-0.447-0.153-0.9-0.333-1.272-0.63l-0.025-0.021l-0.025-0.021l-0.024-0.021l-0.023-0.022
			L549,320.722l-0.021-0.022l-0.021-0.022l-0.02-0.022l-0.019-0.022l-0.018-0.022l-0.018-0.023l-0.017-0.023l-0.016-0.023
			l-0.015-0.023l-0.014-0.023l-0.014-0.023l-0.013-0.023l-0.012-0.024l-0.011-0.024l-0.01-0.024l-0.009-0.024l-0.009-0.024
			l-0.008-0.024l-0.007-0.025l-0.006-0.025l-0.005-0.025l-0.004-0.025l-0.004-0.025l-0.003-0.025l-0.002-0.025l-0.001-0.026l0-0.026
			l0-0.014l0.001-0.014l0.001-0.014c0.018-0.231,0.125-0.444,0.247-0.637c0.254-0.389,0.591-0.725,0.922-1.047
			c0.445-0.431,1.229-1.091,1.595-1.579c0.072-0.099,0.141-0.205,0.18-0.322l0.003-0.011l0.003-0.01l0.003-0.01l0.003-0.01
			l0.002-0.01l0.002-0.01l0.002-0.01l0.002-0.01l0.001-0.01l0.001-0.01l0.001-0.01l0.001-0.01l0-0.01l0-0.01l0-0.01l0-0.01
			l-0.001-0.01l-0.001-0.01l-0.001-0.01l-0.001-0.009l-0.002-0.009l-0.002-0.009l-0.002-0.009l-0.002-0.009l-0.003-0.009
			l-0.003-0.009l-0.003-0.009l-0.003-0.009l-0.004-0.009l-0.004-0.009l-0.004-0.009l-0.004-0.009l-0.005-0.008l-0.005-0.008
			l-0.005-0.008l-0.005-0.008l-0.006-0.008l-0.006-0.008l-0.006-0.008l-0.006-0.008l-0.006-0.008l-0.007-0.008l-0.007-0.008
			l-0.007-0.008l-0.007-0.008l-0.008-0.008l-0.008-0.007l-0.008-0.007l-0.008-0.007l-0.008-0.007
			c-0.214-0.169-0.492-0.231-0.754-0.282c-1.406-0.21-2.85-0.037-4.247,0.168c-2.87,0.441-5.785,1.626-8.67,1.984
			c-3.233,0.386-6.474-0.49-9.462-1.668"/>
	</g>
	<g id="POLYLINE_00000145748871738706507550000003273936607898503863_">
		
			<path fill="none" stroke="#FB8604" stroke-width="2.75" stroke-linecap="round" stroke-linejoin="round" stroke-miterlimit="10" d="
			M648.048,274.709c-1.496,0.995-3.448,0.804-5.079,0.266c-2.676-0.921-5.201-2.853-6.272-5.532c-0.976-2.42-0.831-5.12-0.406-7.646
			c0.198-1.079,0.373-2.275,1.159-3.101c0.624-0.646,1.555-0.831,2.418-0.891c1.977-0.103,3.958,0.298,5.851,0.84
			c1.469,0.444,3.072,1.001,3.946,2.351c0.434,0.652,0.69,1.408,0.866,2.167c0.267,1.18,0.364,2.404,0.36,3.611
			c-0.021,1.832-0.262,3.699-0.955,5.406C649.528,273.156,648.938,274.106,648.048,274.709z"/>
	</g>
</g>
<g id="_x32_D_x24_AG-OUTLINE">
	<g id="POLYLINE_00000039839102759064460850000000861251860316447885_">
		
			<path fill="none" stroke="#FB8604" stroke-width="3.5" stroke-linecap="round" stroke-linejoin="round" stroke-miterlimit="10" d="
			M486.827,245.549c1.082-2.782,2.715-6.194,3.44-9.078c0.7-2.619,1.203-5.576,2.322-8.054c0.691-1.56,1.658-3.006,2.876-4.204
			c2.083-2.047,4.654-3.541,7.256-4.829c9.94-4.743,22.191-7.351,32.816-10.255c4.281-1.173,9.125-2.902,13.59-2.823
			c7.935-0.01,15.09,5.046,22.442,7.353c1.046,0.287,2.189,0.586,3.27,0.336l0.042-0.011c0.803-0.206,1.358-0.904,1.871-1.509
			c0.302-0.344,0.658-0.706,1.134-0.767l0.025-0.003l0.025-0.003l0.025-0.002l0.025-0.002l0.026-0.001l0.026-0.001l0.026,0l0.026,0
			c0.523,0.019,1.01,0.254,1.459,0.504c2.17,1.322,3.95,3.268,5.71,5.078c1.752,1.884,4.741,5.172,6.412,7.125
			c1.076,1.276,2.157,2.615,3.019,4.046c0.978,1.589,1.556,3.394,1.964,5.205c0.664,2.938,1.174,6.09,2.441,8.842
			c0.57,1.239,1.306,2.427,2.29,3.38c1.806,1.743,4.293,2.518,6.687,3.067c3.901,0.842,8.739,1.34,12.588,2.378
			c5.166,1.336,11.513,3.918,16.548,5.788c0.61,0.216,1.566,0.55,2.175,0.743c2.083-0.236,4.249,0.208,6.252,0.767
			c1.268,0.388,2.614,0.814,3.56,1.791c0.602,0.621,0.972,1.429,1.206,2.253c0.353,1.26,0.476,2.585,0.488,3.89
			c-0.001,1.905-0.235,3.849-0.955,5.624c-0.407,0.977-0.996,1.927-1.886,2.53c-0.674,3.221-1.843,6.348-3.337,9.277
			c-2.013,4.067-9.515,15.588-11.97,19.649c-1.647,2.545-3.294,5.313-5.527,7.388c-0.479,0.415-1.008,0.813-1.628,0.984
			l-0.036,0.009l-0.036,0.008l-0.036,0.008l-0.036,0.007l-0.035,0.006l-0.035,0.006l-0.035,0.005l-0.035,0.004l-0.035,0.003
			l-0.035,0.003l-0.034,0.002l-0.034,0.001l-0.034,0c-0.934-0.015-1.636-0.813-2.296-1.379c-0.358-0.305-0.795-0.687-1.3-0.556
			c-0.205,0.05-0.389,0.163-0.555,0.289c-0.773,0.622-1.651,1.864-2.304,2.62c-1.182,1.414-2.527,2.731-3.929,3.926
			c-1.15,0.968-2.373,1.903-3.692,2.629c-0.764,0.401-1.725,0.874-2.607,0.763l-0.026-0.004l-0.026-0.005l-0.026-0.005l-0.026-0.006
			l-0.025-0.006l-0.025-0.006l-0.025-0.007l-0.024-0.007l-0.024-0.008l-0.024-0.008l-0.023-0.009l-0.023-0.009l-0.023-0.01
			l-0.023-0.01l-0.022-0.011l-0.022-0.011l-0.022-0.012c-0.378-0.208-0.592-0.611-0.746-0.999c-0.294-0.741-0.416-1.673-0.74-2.402
			c-0.079-0.17-0.175-0.337-0.307-0.47l-0.014-0.014l-0.014-0.014l-0.014-0.013l-0.015-0.013l-0.015-0.013l-0.015-0.012
			l-0.015-0.012l-0.015-0.012l-0.016-0.011l-0.016-0.011l-0.016-0.01l-0.016-0.01l-0.016-0.01l-0.016-0.009l-0.017-0.009
			l-0.017-0.009l-0.017-0.008l-0.017-0.008l-0.017-0.008l-0.018-0.008l-0.018-0.007l-0.018-0.007l-0.018-0.007l-0.018-0.006
			l-0.018-0.006l-0.019-0.006l-0.019-0.005l-0.019-0.005c-0.307-0.076-0.63-0.029-0.932,0.048c-0.385,0.1-0.762,0.261-1.122,0.43
			c-1.242,0.583-3.624,2.104-4.837,2.823c-4.543,2.699-9.385,5.045-14.471,6.517c-1.669,0.446-3.408,0.844-5.145,0.716
			c-0.748-0.066-1.529-0.266-2.083-0.801c-0.292,1.422-0.783,2.816-1.42,4.119c-0.448,0.894-0.968,1.773-1.658,2.502
			c-0.595,0.654-1.368,0.964-2.056,1.47c-0.412,0.309-0.716,0.747-0.88,1.234c-0.68,2.214-0.428,4.824-1.153,7.044
			c-0.162,0.481-0.383,0.959-0.746,1.322c-0.392,0.395-0.915,0.626-1.431,0.812l-0.772,0.271c-0.465,0.168-0.93,0.369-1.322,0.677
			c-0.355,0.275-0.639,0.637-0.834,1.041c-0.224,0.46-0.366,0.959-0.476,1.457c-0.415,1.959-0.442,4.433-0.578,6.441
			c-0.055,0.744-0.116,1.52-0.278,2.249c-0.071,0.303-0.158,0.611-0.319,0.88l-0.013,0.022l-0.014,0.021l-0.014,0.02l-0.014,0.02
			l-0.014,0.019l-0.014,0.019l-0.015,0.018l-0.015,0.018l-0.015,0.017l-0.015,0.016l-0.015,0.016l-0.016,0.015l-0.016,0.015
			l-0.016,0.014l-0.016,0.013l-0.016,0.013c-0.004,0.003-0.015,0.011-0.019,0.014l-0.01,0.007l-0.01,0.007l-0.01,0.006l-0.01,0.006
			l-0.01,0.006l-0.01,0.006l-0.01,0.006l-0.01,0.005c-0.183,0.095-0.4,0.092-0.598,0.055c-1.076-0.24-2.033-1.101-3.179-1.031
			l-0.031,0.003l-0.031,0.003l-0.031,0.004l-0.031,0.005l-0.03,0.005l-0.03,0.006l-0.03,0.006l-0.03,0.007l-0.03,0.007l-0.03,0.008
			l-0.03,0.008c-0.749,0.229-1.278,0.869-1.695,1.5c-0.653,1.02-1.092,2.172-1.47,3.318c-1.73,5.368-2.212,12.023-2.848,17.632
			c-0.168,1.265-0.31,2.612-0.701,3.829c-0.084,0.242-0.182,0.488-0.333,0.697l-0.013,0.017l-0.013,0.017l-0.013,0.016l-0.013,0.016
			l-0.013,0.015l-0.014,0.015l-0.014,0.014l-0.014,0.014l-0.014,0.013l-0.014,0.013l-0.014,0.012l-0.014,0.011l-0.014,0.011
			l-0.014,0.01l-0.014,0.01l-0.015,0.009l-0.015,0.009l-0.015,0.008l-0.015,0.008l-0.015,0.007c-0.19,0.084-0.403,0.026-0.591-0.031
			c-0.334-0.109-0.703-0.247-1.057-0.152l-0.026,0.007l-0.026,0.008l-0.026,0.008l-0.026,0.009l-0.026,0.01l-0.026,0.01
			l-0.026,0.011l-0.026,0.012l-0.026,0.013l-0.026,0.013l-0.026,0.014l-0.026,0.015l-0.026,0.015
			c-0.591,0.369-1.002,0.963-1.384,1.532c-0.809,1.261-1.448,2.671-2.038,4.047c-1.118,2.652-2.116,5.561-3,8.303
			c-1.159,3.524-2.858,9.915-4.067,13.428c-0.304,0.857-0.64,1.754-1.052,2.565c-0.287,0.543-0.597,1.113-1.1,1.485l-0.022,0.015
			l-0.021,0.014l-0.022,0.014l-0.022,0.013l-0.022,0.013l-0.022,0.012l-0.022,0.011l-0.022,0.011l-0.022,0.01l-0.022,0.01
			l-0.022,0.009l-0.022,0.008l-0.022,0.008l-0.022,0.007l-0.022,0.007l-0.022,0.006l-0.022,0.006l-0.022,0.005
			c-0.753,0.137-1.437-0.629-2.198-0.366l-0.026,0.01l-0.027,0.01l-0.027,0.011l-0.027,0.012l-0.027,0.013l-0.027,0.014
			l-0.027,0.015l-0.027,0.015l-0.027,0.016l-0.027,0.017l-0.027,0.018l-0.027,0.019l-0.027,0.02l-0.027,0.02l-0.027,0.021
			c-0.658,0.568-1.045,1.383-1.414,2.154c-0.827,1.84-1.407,3.833-1.936,5.777c-1.331,4.875-2.335,11.088-3.157,16.111
			c-0.352,1.799-0.689,3.679-1.617,5.285c-0.383,0.64-0.917,1.219-1.613,1.515c-1.235,0.528-2.654,0.089-3.922-0.093
			c-0.555-0.082-1.129-0.167-1.687-0.073c-0.299,0.052-0.598,0.182-0.793,0.423c-0.511,0.693-0.892,1.498-1.267,2.271
			c-1.219,2.559-2.359,5.443-4.44,7.434c-1.355,1.306-3.187,1.94-4.976,2.394c-1.629,0.437-3.569,0.716-5.044,1.545
			c-0.629,0.358-1.162,0.872-1.581,1.46c-1.161,1.674-1.881,4.045-2.82,5.845c-1.4,2.756-3.186,5.365-5.389,7.541
			c-0.911,0.867-1.914,1.702-3.105,2.148c-0.583,0.212-1.237,0.304-1.837,0.109c-0.405-0.129-0.768-0.37-1.088-0.646
			c-0.811-0.689-1.517-1.79-2.162-2.635c-0.363-0.457-0.808-1.076-1.383-1.26l-0.016-0.004l-0.016-0.004l-0.021-0.005l-0.021-0.004
			l-0.021-0.004l-0.021-0.003l-0.021-0.003l-0.021-0.002l-0.021-0.002l-0.021-0.001l-0.021-0.001l-0.021,0l-0.021,0l-0.021,0.001
			l-0.021,0.001l-0.021,0.002l-0.021,0.002l-0.021,0.003l-0.021,0.003l-0.021,0.004l-0.021,0.004l-0.021,0.005l-0.021,0.005
			l-0.021,0.006l-0.021,0.006l-0.021,0.007l-0.021,0.007l-0.021,0.007l-0.021,0.008l-0.021,0.008l-0.021,0.009
			c-0.396,0.177-0.701,0.506-0.978,0.831c-0.859,1.037-1.902,2.931-2.625,4.094c-0.834,1.364-1.735,2.753-2.751,3.987
			c-2.099,2.508-4.783,4.776-7.847,5.988c-1.047,0.381-2.281,0.705-3.365,0.301c-0.536-0.208-0.942-0.641-1.29-1.085
			c-0.319-0.396-0.643-0.918-1.074-1.199c-0.157-0.1-0.34-0.162-0.527-0.16l-0.028,0l-0.028,0.001l-0.028,0.002l-0.029,0.003
			l-0.029,0.004l-0.029,0.004l-0.029,0.005l-0.03,0.006l-0.03,0.007l-0.03,0.008l-0.031,0.008l-0.031,0.009l-0.031,0.01l-0.031,0.01
			l-0.032,0.011c-0.376,0.141-0.713,0.378-1.029,0.622c-0.689,0.542-1.331,1.198-1.94,1.83c-2.493,2.632-5.125,5.771-8.007,7.97
			c-1.171,0.897-2.457,1.67-3.855,2.155c-2.718,0.996-5.803,0.867-8.657,0.83c-1.063,0.01-2.166,0.034-3.171,0.414
			c-0.797,0.297-1.493,0.827-2.045,1.469c-1.171,1.398-1.93,3.156-2.633,4.826c-0.971,2.451-1.677,5.075-1.615,7.729
			c-1.331,9.764-4.527,28.141-5.12,37.736c-0.048,1.181-0.099,2.397,0.146,3.559c0.137,0.651,0.435,1.266,0.887,1.757
			c1.694,1.781,3.989,2.964,6.323,3.671c2.853,0.835,6.257,0.9,9.187,1.355c1.654,0.271,3.317,0.669,4.832,1.402
			c0.862,0.42,1.69,0.978,2.239,1.779c0.706,1.021,1.052,2.244,1.367,3.431c0.715,2.917,1.184,5.944,1.324,8.945
			c0.041,1.228,0.027,2.486-0.265,3.685c-0.187,0.754-0.511,1.494-1.049,2.064c-0.563,0.608-1.336,0.976-2.126,1.193
			c-1.635,0.443-3.399,0.441-5.084,0.464c0,0-33.984-0.002-33.984-0.002c-0.555-0.016-1.46-0.006-2.018-0.035
			c-0.983-0.038-2-0.098-2.966-0.292c-0.681-0.137-1.356-0.35-1.975-0.668c-2.003-1.054-3.449-2.968-4.822-4.715
			c-1.587-2.125-3.466-4.822-5.391-6.619c-0.672-0.688-1.693-1.389-2.277-2.1c-0.379-0.481-0.59-1.071-0.73-1.661
			c-0.647-3.085-0.451-6.69-1.058-9.783c-0.12-0.536-0.305-1.067-0.602-1.532c-0.356-0.561-0.846-1.029-1.332-1.477
			c-1.752-1.619-3.973-3.28-5.212-5.337c-0.44-0.753-0.597-1.624-0.322-2.463c0.407-1.28,1.686-2.505,2.5-3.55
			c0.464-0.58,0.96-1.18,1.316-1.833c0.085-0.161,0.158-0.333,0.189-0.513c0.095-0.563-0.24-1.082-0.55-1.523
			c-1.609-2.108-3.87-3.897-5.04-6.318c-0.24-0.526-0.379-1.106-0.35-1.686c0.026-0.608,0.227-1.196,0.497-1.737
			c-1.185-0.458-2.524-0.964-3.622-1.594c-0.823-0.459-1.596-1.034-2.309-1.65l-1.801-1.581c-0.486-0.406-0.989-0.818-1.559-1.099
			c-0.334-0.164-0.712-0.265-1.085-0.213c-0.848,0.127-1.47,0.837-2.03,1.43c-0.641,0.691-1.335,1.591-2.101,2.138
			c-0.167,0.114-0.349,0.215-0.547,0.261c-0.244,0.059-0.502,0.016-0.732-0.076c-0.478-0.195-0.971-0.548-1.425-0.793
			c-1.37-0.762-4.55-1.989-6.021-2.628c-1.731-0.755-3.469-1.604-5.026-2.677c-1.316-0.864-2.83-2.178-4.28-2.797
			c-0.584-0.246-1.247-0.36-1.865-0.172c-1.332,0.408-2.485,1.569-3.833,2.064c-0.644,0.256-1.346,0.355-2.037,0.321
			c-1.452-0.073-2.845-0.599-4.137-1.238c-2.365-1.194-4.484-2.862-6.412-4.667c-1.339-1.214-3.355-3.434-4.89-4.35
			c-0.262-0.144-0.546-0.274-0.849-0.288l-0.018-0.001l-0.018,0l-0.018,0l-0.018,0l-0.018,0.001L320.02,511l-0.018,0.001
			l-0.017,0.002l-0.017,0.002l-0.017,0.003l-0.017,0.003l-0.017,0.003l-0.017,0.004l-0.017,0.004l-0.017,0.004l-0.016,0.005
			l-0.016,0.005l-0.016,0.005l-0.016,0.006l-0.016,0.006l-0.016,0.006c-0.127,0.053-0.236,0.141-0.33,0.24
			c-0.393,0.433-0.644,1.126-0.903,1.647c-0.24,0.485-0.504,0.999-0.96,1.314c-0.354,0.242-0.794,0.318-1.216,0.297
			c-0.798-0.045-1.558-0.348-2.275-0.682c-3.065-1.53-5.793-3.819-8.445-5.966c-2.399-1.973-6.146-5.26-8.641-7.027
			c-0.552-0.383-1.134-0.761-1.738-1.057c-0.559-0.261-1.216-0.538-1.838-0.372c-0.389,0.107-0.643,0.453-0.81,0.801
			c-0.361,0.738-0.509,1.626-0.923,2.34c-0.108,0.179-0.242,0.35-0.419,0.466l-0.016,0.01l-0.017,0.01l-0.017,0.01l-0.017,0.009
			l-0.017,0.009l-0.017,0.009l-0.017,0.008l-0.018,0.008l-0.018,0.008l-0.018,0.007l-0.018,0.007l-0.018,0.007l-0.018,0.006
			l-0.019,0.006l-0.019,0.006l-0.019,0.005l-0.019,0.005l-0.019,0.005l-0.019,0.004l-0.02,0.004
			c-0.533,0.093-1.061-0.123-1.531-0.355c-1.216-0.64-2.261-1.583-3.249-2.526c-3.425-3.318-6.196-7.588-9.01-11.424
			c-0.517-0.684-1.056-1.396-1.661-2.004c-0.246-0.242-0.511-0.476-0.822-0.631c-0.265-0.134-0.567-0.182-0.862-0.159
			c-1.368,0.109-3.039,0.939-4.388,0.737c-0.614-0.093-1.178-0.391-1.677-0.751c-0.722-0.523-1.367-1.164-1.976-1.813
			c-2.561-2.827-4.741-6.048-6.381-9.495c-0.325-0.6-0.729-1.47-1.53-1.431c-0.289,0.015-0.564,0.13-0.821,0.256
			c-1.681,0.917-3.266,2.439-4.919,3.403c-0.979,0.57-2.115,1.15-3.279,0.909c-0.838-0.181-1.531-0.753-2.083-1.387
			c-1.242-1.468-1.993-3.292-2.674-5.071c-1.089,2.952-2.663,5.739-4.666,8.168c-1.431,1.734-3.07,3.34-4.947,4.587
			c-1.001,0.653-2.086,1.229-3.264,1.478c-0.68,0.139-1.417,0.153-2.061-0.137l-0.037-0.017l-0.037-0.018l-0.037-0.019l-0.036-0.019
			l-0.036-0.02c-0.411-0.232-0.738-0.588-1.004-0.973c-0.61-0.891-0.958-1.981-1.359-2.977c-0.155-0.355-0.296-0.753-0.585-1.023
			l-0.009-0.008l-0.009-0.007l-0.009-0.007l-0.011-0.008l-0.011-0.008l-0.011-0.007l-0.011-0.007l-0.011-0.007l-0.011-0.006
			l-0.011-0.006l-0.011-0.006l-0.011-0.005l-0.011-0.005l-0.011-0.005l-0.012-0.004l-0.012-0.004l-0.012-0.004l-0.012-0.003
			l-0.012-0.003l-0.012-0.003l-0.012-0.002l-0.012-0.002l-0.012-0.002l-0.012-0.001l-0.012-0.001l-0.012-0.001l-0.012,0l-0.012,0
			l-0.012,0l-0.012,0.001l-0.012,0.001l-0.012,0.001l-0.012,0.002l-0.013,0.002l-0.013,0.002l-0.013,0.003l-0.013,0.003
			l-0.013,0.003l-0.013,0.004l-0.013,0.004l-0.013,0.004l-0.013,0.005l-0.013,0.005l-0.013,0.005l-0.013,0.006l-0.013,0.006
			c-0.235,0.113-0.42,0.308-0.592,0.499c-1.028,1.234-2.516,3.969-3.392,5.349c-1.654,2.66-3.506,5.267-5.443,7.728
			c-1.649,2.073-3.407,4.142-5.354,5.943c-0.717,0.652-1.476,1.291-2.309,1.79c-0.424,0.248-0.877,0.475-1.365,0.56l-0.037,0.006
			l-0.037,0.005l-0.037,0.004l-0.036,0.004c-0.319,0.031-0.651-0.037-0.921-0.214c-0.379-0.245-0.623-0.647-0.789-1.058
			c-0.561-1.379-0.323-2.99-0.522-4.433c-0.036-0.187-0.079-0.385-0.201-0.537l-0.005-0.006l-0.005-0.006l-0.006-0.006l-0.006-0.006
			l-0.006-0.006l-0.006-0.006l-0.006-0.005l-0.006-0.005l-0.006-0.005l-0.006-0.005l-0.006-0.005l-0.006-0.005l-0.006-0.005
			L204.316,496l-0.006-0.004l-0.007-0.004l-0.007-0.004l-0.007-0.004l-0.007-0.004l-0.007-0.003l-0.007-0.003l-0.007-0.003
			l-0.007-0.003l-0.007-0.003l-0.007-0.003l-0.007-0.002l-0.007-0.002l-0.007-0.002l-0.008-0.002l-0.008-0.002l-0.008-0.002
			l-0.008-0.001l-0.015-0.002l-0.015-0.002l-0.016-0.001l-0.016,0l-0.016,0l-0.017,0.001l-0.017,0.001l-0.017,0.002l-0.018,0.003
			l-0.018,0.003l-0.018,0.004l-0.018,0.004l-0.019,0.005l-0.019,0.005l-0.019,0.006l-0.02,0.007l-0.02,0.007l-0.02,0.008
			l-0.02,0.008c-0.607,0.284-1.103,0.81-1.579,1.272c-2.898,2.984-5.849,7.158-8.924,9.96c-1.188,1.086-2.53,2.022-3.925,2.822
			c-1.726,0.943-4.495,2.64-6.274,3.391c-0.362,0.149-0.736,0.29-1.121,0.364c-0.263,0.047-0.559,0.073-0.797-0.072
			c-0.115-0.069-0.203-0.176-0.266-0.293c-0.256-0.51-0.259-1.192-0.336-1.75c-0.071-0.52-0.112-1.117-0.4-1.569
			c-0.076-0.11-0.181-0.206-0.31-0.247l-0.017-0.005l-0.018-0.005l-0.018-0.004l-0.018-0.003l-0.019-0.003l-0.019-0.002
			l-0.019-0.002l-0.019-0.001l-0.02-0.001l-0.02,0l-0.02,0.001l-0.021,0.001l-0.021,0.002l-0.021,0.002l-0.021,0.003l-0.022,0.003
			l-0.022,0.004l-0.022,0.004l-0.023,0.005l-0.023,0.005l-0.023,0.006c-0.509,0.151-0.946,0.486-1.367,0.8
			c-3.001,2.424-5.731,5.548-9.104,7.478c-2.079,1.196-4.453,1.774-6.82,2.039c-1.693,0.208-3.758,0.307-5.409,0.732
			c-1.167,0.294-2.296,0.753-3.338,1.355c-2.14,1.234-3.914,3.032-5.405,4.985c-1.77,2.348-3.184,5.007-3.976,7.845
			c-2.036,5.872-2.46,12.186-2.619,18.356c0,1.46-0.039,2.984,0.223,4.422c0.083,0.417,0.211,0.832,0.427,1.201
			c0.216,0.372,0.515,0.69,0.838,0.97c0.897,0.763,1.988,1.265,3.093,1.647c2.226,0.764,4.922,1.149,7.171,1.843
			c1.49,0.476,3.01,1.121,4.075,2.306c0.893,0.989,1.374,2.281,1.618,3.575c0.28,1.515,0.328,3.082,0.302,4.62
			c-0.054,2.051-0.228,4.127-0.689,6.13c-0.234,0.946-0.543,1.914-1.163,2.683c-0.353,0.438-0.821,0.777-1.338,0.994
			c-0.653,0.281-1.369,0.394-2.073,0.462c-5.408,0.238-20.983,0.092-26.303,0.077c-2.458-0.095-5.042-0.166-7.313-1.212
			c-1.091-0.519-2.031-1.311-2.876-2.165c-1.543-1.568-2.928-3.422-4.253-5.176c-1.283-2.134-2.368-4.476-2.633-6.976
			c-0.181-1.722,0.181-3.727,0.385-5.445c0.2-1.597,0.258-3.24,0.158-4.847c-0.319-4.901-1.377-10.817-1.572-15.719
			c-0.212-4.141,0.116-8.367,0.6-12.48c0.479-4.471,1.908-11.997,1.624-16.417c-0.067-0.816-0.19-1.647-0.523-2.401
			c-0.202-0.465-0.522-0.873-0.927-1.178c-0.529-0.416-1.214-0.755-1.491-1.405c-0.173-0.399-0.185-0.846-0.155-1.274
			c0.069-0.849,0.317-1.682,0.596-2.484c0.72-2.007,1.74-3.933,2.816-5.771c1.851-3.143,4.064-6.126,6.447-8.886
			c3.434-4.078,8.741-9.056,10.76-14.034c1.136-2.776,1.483-5.812,1.605-8.788c0.043-1.375,0.128-4.185,0.165-5.549
			c0.006-1.057,0.023-2.152-0.232-3.183c-0.137-0.547-0.37-0.97-0.794-1.347c-0.28-0.257-0.617-0.532-0.804-0.867
			c-0.154-0.263-0.227-0.565-0.257-0.866c-0.052-0.529-0.004-1.071,0.063-1.597c0.327-2.438,1.779-7.478,2.364-9.924
			c1.322-5.478,2.169-11.208,1.513-16.839c-0.091-0.634-0.209-1.28-0.416-1.887c-0.117-0.333-0.258-0.669-0.487-0.94l-0.016-0.019
			l-0.016-0.018l-0.017-0.018l-0.017-0.017l-0.017-0.016l-0.017-0.016l-0.017-0.015l-0.017-0.015l-0.017-0.014l-0.017-0.014
			l-0.017-0.013l-0.018-0.013l-0.018-0.012l-0.018-0.011l-0.018-0.011l-0.018-0.01l-0.018-0.01l-0.018-0.009l-0.018-0.008
			l-0.018-0.008l-0.019-0.007l-0.019-0.007l-0.019-0.006l-0.019-0.005c-0.264-0.07-0.537,0.026-0.782,0.121
			c-0.258,0.094-0.623,0.309-0.9,0.239l-0.012-0.004l-0.012-0.004l-0.012-0.004l-0.012-0.005l-0.011-0.005l-0.011-0.006
			l-0.011-0.006l-0.011-0.007l-0.011-0.007l-0.011-0.007l-0.01-0.008l-0.01-0.008l-0.01-0.009l-0.01-0.009l-0.01-0.009l-0.01-0.01
			l-0.009-0.01l-0.009-0.011l-0.009-0.011l-0.009-0.011l-0.009-0.012l-0.009-0.012l-0.008-0.013l-0.008-0.013l-0.008-0.013
			l-0.008-0.014l-0.008-0.014l-0.008-0.014l-0.008-0.015l-0.007-0.015c-0.264-0.617-0.178-1.559-0.125-2.226
			c0.641-5.294,2.579-10.371,4.723-15.222c2.646-5.874,5.942-11.713,9.27-17.23c3.133-5.208,8.39-13.043,10.978-18.459
			c0.383-0.862,0.761-1.758,0.914-2.694c0.049-0.336,0.071-0.69-0.037-1.018l-0.007-0.019l-0.007-0.019l-0.007-0.018l-0.008-0.018
			l-0.008-0.018l-0.008-0.018l-0.008-0.017l-0.009-0.017l-0.009-0.017l-0.009-0.017c-0.146-0.256-0.409-0.417-0.666-0.546
			c-0.254-0.137-0.646-0.261-0.776-0.535l-0.006-0.015l-0.006-0.015l-0.005-0.015l-0.005-0.015l-0.004-0.016l-0.003-0.016
			l-0.003-0.016l-0.002-0.016l-0.002-0.017l-0.001-0.017l-0.001-0.017l0-0.018l0-0.018l0.001-0.018l0.001-0.018l0.002-0.019
			l0.002-0.019l0.003-0.019l0.003-0.019l0.004-0.02l0.004-0.02l0.005-0.02l0.005-0.021l0.006-0.021l0.006-0.021
			c0.162-0.478,0.493-0.884,0.801-1.276c2.833-3.242,6.708-6.805,9.323-10.215c3.279-4.214,6.24-8.774,8.382-13.676
			c0.368-0.925,0.879-2.152,0.862-3.141l-0.002-0.028l-0.002-0.027l-0.003-0.026l-0.003-0.026l-0.004-0.025l-0.004-0.024
			l-0.005-0.024l-0.005-0.023c-0.087-0.419-0.485-0.543-0.481-0.961l0-0.018l0.001-0.018l0.001-0.019l0.001-0.019l0.002-0.019
			l0.002-0.02c0.072-0.455,0.297-0.878,0.5-1.286c1.846-3.401,4.508-6.816,5.861-10.461c0.47-1.296,0.709-2.677,0.716-4.055
			c0.01-1.908-0.316-3.941-0.237-5.85c0.047-1.94,0.293-4.019,0.537-5.947c0.186-1.318,1.059-8.28,1.292-9.466
			c0.137-0.721,0.279-1.47,0.571-2.147c0.087-0.191,0.189-0.383,0.342-0.53l0.011-0.01l0.011-0.01l0.011-0.009l0.011-0.009
			l0.011-0.009l0.011-0.008l0.011-0.008l0.011-0.008l0.011-0.007l0.011-0.007l0.011-0.007l0.011-0.006l0.011-0.006l0.011-0.006
			l0.011-0.005l0.012-0.005l0.012-0.005l0.012-0.004l0.012-0.004l0.012-0.004l0.012-0.003l0.012-0.003l0.012-0.003l0.012-0.002
			l0.012-0.002l0.012-0.002l0.012-0.001l0.012-0.001l0.012-0.001l0.012,0h0.012l0.012,0l0.013,0.001l0.008,0.001l0.008,0.001
			l0.009,0.001l0.009,0.001c0.089,0.013,0.173,0.049,0.251,0.092c0.403,0.237,0.833,0.732,1.169,1.06
			c0.401,0.384,0.915,0.914,1.51,0.901c0.431-0.019,0.796-0.297,1.099-0.582c0.864-0.848,1.62-2.145,2.311-3.142
			c0.73-1.097,1.559-2.154,2.499-3.08c1.989-2,5.062-4.046,7.224-5.862c3.2-2.673,6.212-5.669,8.878-8.875l2.117-2.664
			c0.883-1.049,1.952-2.34,3.419-2.44c0.806-0.047,1.567,0.308,2.235,0.726c1.357,0.875,2.493,2.068,3.564,3.266
			c2.773,3.173,5.274,6.929,7.612,10.442c2.828,4.192,5.721,9.305,9.511,12.686c2.579,2.342,5.691,4.027,8.884,5.376
			c5.341,2.241,11.042,3.764,16.69,5.007c7.753,1.678,15.919,2.811,23.823,3.494c4.945,0.414,10.504,0.698,15.464,0.836
			c4.819,0.041,43.957,0.81,47.976,0.73c3.285-0.058,6.711-0.234,9.96-0.758c3.851-0.591,8.377-1.973,12.112-2.943
			c3.401-0.889,6.92-1.534,10.436-1.692c6.784-0.384,14.713,0.447,21.445-0.551c4.197-0.625,8.184-2.267,11.945-4.184
			c4.773-2.516,10.411-5.286,14.917-8.224c2.369-1.56,4.681-3.298,6.592-5.405c2.661-2.863,4.346-6.974,6.016-10.471
			c0.976-2.022,2.082-4.037,3.407-5.851c3.128-4.277,7.105-7.904,11.206-11.228C466.012,255.976,476.04,249.796,486.827,245.549z"/>
	</g>
</g>
</svg>
