<?xml version="1.0" encoding="utf-8"?>
<!-- Generator: Adobe Illustrator 25.4.1, SVG Export Plug-In . SVG Version: 6.00 Build 0)  -->
<!DOCTYPE svg PUBLIC "-//W3C//DTD SVG 1.1//EN" "http://www.w3.org/Graphics/SVG/1.1/DTD/svg11.dtd" [
	<!ENTITY ns_extend "http://ns.adobe.com/Extensibility/1.0/">
	<!ENTITY ns_ai "http://ns.adobe.com/AdobeIllustrator/10.0/">
	<!ENTITY ns_graphs "http://ns.adobe.com/Graphs/1.0/">
	<!ENTITY ns_vars "http://ns.adobe.com/Variables/1.0/">
	<!ENTITY ns_imrep "http://ns.adobe.com/ImageReplacement/1.0/">
	<!ENTITY ns_sfw "http://ns.adobe.com/SaveForWeb/1.0/">
	<!ENTITY ns_custom "http://ns.adobe.com/GenericCustomNamespace/1.0/">
	<!ENTITY ns_adobe_xpath "http://ns.adobe.com/XPath/1.0/">
]>
<svg version="1.1" xmlns:x="&ns_extend;" xmlns:i="&ns_ai;" xmlns:graph="&ns_graphs;"
	 xmlns="http://www.w3.org/2000/svg" xmlns:xlink="http://www.w3.org/1999/xlink" x="0px" y="0px" width="750px" height="750px"
	 viewBox="0 0 750 750" enable-background="new 0 0 750 750" xml:space="preserve">
<metadata>
	<sfw  xmlns="&ns_sfw;">
		<slices></slices>
		<sliceSourceBounds  bottomLeftOrigin="true" height="10279.858" width="5639" x="-2000" y="-1364"></sliceSourceBounds>
	</sfw>
</metadata>
<g id="FILL-BACKGROUND">
	<rect fill="#FFFFFF" width="750" height="750"/>
</g>
<g id="N-DIMENSIONS">
</g>
<g id="N-TEXT">
</g>
<g id="_x32_D_x24_AG-DIAGRAM">
	<g id="POLYLINE_00000095302868189751543560000009300020594400477631_">
		<g>
			<g>
				
					<line fill="none" stroke="#FB8604" stroke-width="3.25" stroke-linecap="round" stroke-linejoin="round" x1="162.286" y1="621.703" x2="164.286" y2="621.703"/>
				
					<line fill="none" stroke="#FB8604" stroke-width="3.25" stroke-linecap="round" stroke-linejoin="round" stroke-dasharray="3.9488,6.9104" x1="171.196" y1="621.703" x2="536.953" y2="621.703"/>
				
					<line fill="none" stroke="#FB8604" stroke-width="3.25" stroke-linecap="round" stroke-linejoin="round" x1="540.408" y1="621.703" x2="542.408" y2="621.703"/>
			</g>
		</g>
	</g>
</g>
<g id="_x32_D_x24_AG-DETAILS-DIAGRAM">
</g>
<g id="_x32_D_x24_AG-DETAILS">
</g>
<g id="_x32_D_x24_AG-ANIMALS">
	<g id="POLYLINE_00000011713737408512974370000013570643845650502801_">
		
			<path fill="none" stroke="#FB8604" stroke-width="2.75" stroke-linecap="round" stroke-linejoin="round" stroke-miterlimit="10" d="
			M278.603,455.407c1.129,1.604,2.35,3.185,3.746,4.565c1.341,1.337,2.857,2.526,4.421,3.591c2.881,1.934,5.975,3.65,9.27,4.765
			c1.151,0.375,2.347,0.679,3.559,0.752c0.766,0.043,1.555-0.009,2.278-0.28c1.204-0.437,2.129-1.464,3.046-2.317
			c0.503-0.459,1.057-0.902,1.718-1.101c0.569-0.172,1.181-0.139,1.758-0.023c1.037,0.215,2.014,0.67,2.948,1.157
			c4.32,2.37,8.608,5.901,13.115,7.931c2.265,1.039,4.722,1.858,7.241,1.778c1.564-0.031,3.352-0.513,4.879-0.845
			c0.785-0.166,1.597-0.322,2.404-0.286c0.515,0.023,1.024,0.152,1.497,0.356c1.258,0.55,2.513,1.628,3.658,2.371
			c4.051,2.713,11.871,6.294,16.26,8.547l5.102,2.659c0.901,0.443,1.83,0.932,2.823,1.122c0.284,0.048,0.583,0.065,0.863-0.015
			c0.479-0.125,0.74-0.587,0.937-1.005c0.286-0.577,0.514-1.349,1.146-1.634l0.019-0.008l0.019-0.008l0.02-0.007l0.02-0.007
			l0.02-0.007l0.02-0.006c0.408-0.119,0.844-0.045,1.248,0.058c0.554,0.148,1.09,0.384,1.604,0.634
			c1.842,0.895,4.837,2.937,6.602,4.039c1.864,1.154,3.826,2.219,5.885,2.98c3.737,1.358,7.736,2.072,11.711,2.121"/>
	</g>
	<g id="POLYLINE_00000183949538891460281950000000407702330348462007_">
		
			<path fill="none" stroke="#FB8604" stroke-width="2.75" stroke-linecap="round" stroke-linejoin="round" stroke-miterlimit="10" d="
			M423.485,249.009c4.151,4.043,9.691,7.122,14.598,10.163c1.221,0.704,2.482,1.407,3.843,1.801
			c0.822,0.229,1.741,0.339,2.541-0.022c0.784-0.356,1.317-1.088,1.712-1.828c0.979-1.926,1.384-4.115,1.812-6.217
			c1.174-7.254,3.264-16.181,3.512-23.47c0.014-1.288-0.031-2.603-0.366-3.853c-0.24-0.896-0.671-1.749-1.305-2.432
			c-0.967-1.045-2.27-1.711-3.578-2.229c-1.621-0.625-3.342-1.018-5.075-1.14c-1.295-0.083-2.625-0.02-3.869,0.371
			c-2.457,0.734-4.074,3.167-5.678,5.01c-0.862,1.001-1.801,1.96-2.846,2.769c-1.239,0.959-2.623,1.751-4.015,2.463
			c-5.039,2.593-11.323,4.454-16.166,7.424c-1.712,1.097-3.4,2.456-4.272,4.339c-0.34,0.749-0.506,1.585-0.422,2.406
			c0.079,0.85,0.423,1.654,0.878,2.368c1.801,2.714,4.949,5.102,7.078,7.548c1.24,1.392,2.396,2.927,3.025,4.699
			c0.538,1.522,0.649,3.164,0.579,4.766c-0.08,2.53-0.797,5.344-0.747,7.879c0.024,0.707,0.152,1.42,0.451,2.065
			c0.95,2.139,3.332,3.107,4.605,4.996c0.8,1.168,1.226,2.551,1.581,3.909c1.064,4.107,1.649,9.303,3.452,13.133
			c0.338,0.652,0.738,1.314,1.358,1.732l0.031,0.02l0.031,0.019c0.34,0.208,0.743,0.293,1.138,0.284
			c1.523-0.072,3.009-1.008,4.566-1.057c0.846-0.05,1.677,0.222,2.402,0.643c1.045,0.603,1.937,1.45,2.761,2.324
			c3.354,3.635,6.067,8.467,9.655,11.892c0.903,0.847,1.881,1.662,3.025,2.159c0.584,0.248,1.234,0.399,1.868,0.289
			c0.866-0.15,1.542-0.781,2.148-1.375c1.089-1.076,2.226-2.519,3.869-2.634c1.272-0.097,2.509,0.383,3.625,0.948
			c2.369,1.248,4.424,3.043,6.321,4.913c2.079,2.022,4.161,4.793,6.386,6.657c0.421,0.334,0.874,0.647,1.378,0.841
			c0.34,0.13,0.713,0.198,1.075,0.138c0.578-0.098,1.073-0.451,1.528-0.802l0.779-0.623c0.434-0.332,0.91-0.679,1.471-0.732
			c0.586-0.054,1.144,0.22,1.608,0.554c0.652,0.475,1.199,1.09,1.71,1.711c2.729,3.454,4.99,7.88,7.871,11.216
			c0.795,0.906,1.661,1.794,2.717,2.394c0.529,0.296,1.124,0.501,1.735,0.493c1.414-0.012,2.719-0.931,3.927-1.568
			c0.78-0.417,1.624-0.821,2.529-0.8c0.76,0.011,1.493,0.285,2.152,0.648c1.211,0.675,2.278,1.63,3.305,2.554
			c3.792,3.465,7.66,7.559,12.325,9.814c1.158,0.521,2.436,0.93,3.72,0.775c0.894-0.099,1.702-0.57,2.333-1.196
			c1.394-1.338,2.24-3.269,3.491-4.723c0.214-0.231,0.453-0.455,0.744-0.585l0.02-0.009l0.02-0.008l0.02-0.008l0.02-0.007
			l0.02-0.007l0.02-0.007l0.02-0.006l0.02-0.006l0.02-0.005l0.02-0.005l0.02-0.004l0.02-0.004l0.02-0.003l0.02-0.003l0.021-0.002
			l0.021-0.002l0.021-0.002l0.021-0.001l0.021-0.001l0.021,0l0.021,0l0.021,0.001l0.021,0.001l0.021,0.002l0.021,0.002l0.021,0.003
			l0.021,0.003l0.021,0.004l0.021,0.004l0.023,0.005l0.023,0.006l0.023,0.007l0.023,0.007l0.023,0.008l0.023,0.008l0.023,0.009
			l0.023,0.01l0.023,0.01l0.023,0.011l0.023,0.011l0.023,0.012l0.023,0.013c0.311,0.173,0.565,0.434,0.797,0.699
			c1.166,1.4,2.198,3.447,3.305,4.893c0.599,0.77,1.309,1.649,2.279,1.933l0.032,0.008l0.032,0.008l0.032,0.007l0.032,0.006
			l0.032,0.006l0.032,0.005l0.032,0.005l0.032,0.004l0.033,0.003l0.033,0.003l0.033,0.002l0.033,0.001l0.033,0.001l0.033,0
			l0.042-0.001l0.042-0.002l0.042-0.003l0.042-0.004l0.042-0.005l0.042-0.006l0.042-0.007l0.042-0.008l0.042-0.009l0.043-0.01
			l0.043-0.012l0.043-0.013l0.043-0.014l0.043-0.014l0.043-0.016l0.043-0.017l0.043-0.017l0.043-0.018l0.043-0.019
			c0.556-0.261,1.021-0.683,1.441-1.124c0.739-0.789,1.365-1.7,1.95-2.607c1.628-2.5,3.412-6.243,5.177-8.643
			c0.307-0.395,0.636-0.792,1.048-1.082l0.032-0.021l0.031-0.02c0.221-0.141,0.482-0.234,0.747-0.214
			c0.276,0.019,0.528,0.154,0.742,0.322c0.206,0.163,0.388,0.36,0.555,0.563c0.77,0.972,1.434,2.223,2.173,3.218
			c0.976,1.312,2.17,2.749,3.705,3.405c0.394,0.159,0.825,0.25,1.25,0.208c0.39-0.036,0.762-0.185,1.092-0.392
			c1.343-0.882,2.213-2.518,2.921-3.923c1.612-3.264,2.594-7.193,4.061-10.521c0.343-0.744,0.724-1.492,1.249-2.126
			c0.383-0.459,0.89-0.878,1.507-0.933c0.594-0.054,1.174,0.157,1.718,0.374c1.153,0.458,2.441,1.256,3.721,0.888
			c0.695-0.198,1.28-0.668,1.753-1.201c0.891-1.02,1.467-2.279,1.908-3.549c1.58-4.619,1.153-9.909,1.54-14.711
			c0.075-0.643,0.127-1.324,0.421-1.911l0.011-0.02l0.012-0.02l0.012-0.019l0.012-0.018l0.012-0.018l0.012-0.017l0.013-0.017
			l0.013-0.016l0.013-0.016l0.013-0.015l0.013-0.014l0.013-0.014l0.014-0.013l0.014-0.012l0.014-0.012l0.014-0.011l0.014-0.011
			l0.014-0.01l0.015-0.009l0.015-0.009l0.015-0.008l0.015-0.007l0.015-0.007l0.016-0.006l0.016-0.005l0.008-0.003l0.008-0.002
			l0.008-0.002l0.008-0.002l0.008-0.002l0.008-0.002l0.008-0.001l0.009-0.001l0.009-0.001l0.009-0.001l0.009-0.001l0.009-0.001
			l0.009-0.001l0.009,0l0.009,0c0.166-0.001,0.323,0.069,0.468,0.145c0.743,0.424,1.37,1.084,2.162,1.427
			c0.313,0.138,0.662,0.207,1.002,0.154c0.483-0.071,0.91-0.354,1.244-0.7c0.794-0.842,1.195-1.974,1.451-3.083
			c0.38-1.708,0.36-3.487,0.192-5.22c-0.44-4.435-1.83-9.391-2.759-13.756c-0.233-1.136-0.48-2.344-0.548-3.503
			c-0.017-0.363-0.02-0.737,0.051-1.095l0.008-0.037l0.009-0.036l0.009-0.035l0.01-0.035l0.01-0.034l0.011-0.033l0.011-0.032
			l0.012-0.031l0.012-0.03l0.013-0.029l0.013-0.028l0.014-0.027l0.015-0.026l0.015-0.025l0.016-0.024l0.016-0.023l0.017-0.022
			l0.017-0.021l0.018-0.02l0.019-0.019l0.019-0.018l0.02-0.017l0.02-0.016l0.021-0.015l0.022-0.014l0.01-0.006l0.01-0.006
			l0.01-0.005l0.01-0.005l0.01-0.005l0.01-0.005l0.01-0.005l0.01-0.004l0.01-0.004l0.011-0.004l0.011-0.004l0.011-0.004l0.011-0.003
			c0.394-0.106,0.831,0.067,1.201,0.2c0.668,0.25,1.442,0.677,2.148,0.801c0.152,0.024,0.311,0.032,0.462-0.002l0.019-0.005
			l0.019-0.005l0.019-0.006l0.019-0.006l0.018-0.006l0.018-0.007l0.018-0.007l0.018-0.008l0.017-0.008l0.017-0.009l0.017-0.009
			l0.017-0.009l0.016-0.01l0.016-0.01l0.016-0.011l0.016-0.011l0.016-0.012l0.015-0.012l0.015-0.012l0.015-0.013l0.014-0.013
			l0.014-0.014l0.014-0.014l0.014-0.015l0.014-0.015l0.013-0.015l0.013-0.016l0.013-0.016l0.013-0.017l0.012-0.017l0.012-0.017
			l0.012-0.018l0.012-0.018l0.012-0.018l0.011-0.019c0.263-0.477,0.289-1.044,0.299-1.578c-0.005-1.204-0.222-2.422-0.462-3.599
			c-0.431-2.037-1.038-4.121-1.688-6.099c-1.564-4.718-3.707-9.344-6.946-13.155c-2.293-2.768-5.584-5.157-8.387-7.397
			c-1.905-1.565-3.91-3.231-4.942-5.527c-0.947-2.098-1.288-4.568-2.088-6.719c-0.957-2.801-3.094-5.901-4.621-8.44
			c-0.401-0.708-1.06-1.738-1.161-2.535l-0.001-0.019l-0.001-0.019l-0.001-0.019l0-0.018l0-0.018l0-0.018l0.001-0.017l0.001-0.017
			l0.002-0.017l0.002-0.016l0.002-0.016l0.003-0.016l0.003-0.015l0.004-0.015l0.004-0.015l0.004-0.014l0.005-0.014l0.005-0.014
			l0.006-0.013l0.006-0.013l0.006-0.013l0.007-0.012l0.007-0.012l0.008-0.011l0.008-0.011l0.009-0.011l0.009-0.01l0.009-0.01
			l0.01-0.01l0.005-0.005l0.005-0.004l0.005-0.004l0.005-0.004l0.005-0.004l0.005-0.004l0.005-0.004
			c0.222-0.145,0.527-0.12,0.782-0.115c0.469,0.008,1.247,0.165,1.647-0.102l0.012-0.009l0.012-0.01l0.012-0.01l0.011-0.01
			l0.011-0.011l0.011-0.011l0.01-0.011l0.01-0.012l0.01-0.012l0.009-0.012l0.009-0.012l0.009-0.013l0.008-0.013l0.008-0.013
			l0.008-0.014l0.007-0.014l0.007-0.014l0.007-0.015l0.007-0.015l0.006-0.015l0.006-0.016l0.006-0.016l0.005-0.016l0.005-0.016
			l0.005-0.017l0.004-0.017l0.004-0.017l0.004-0.018l0.004-0.018l0.003-0.018c0.067-0.512-0.099-1.025-0.239-1.512
			c-0.615-1.878-1.578-3.975-2.152-5.864c-0.423-1.33-0.7-2.717-0.816-4.108c-0.346-3.455,0.349-7.158-0.469-10.564
			c-0.328-1.303-0.941-2.531-1.764-3.592c-1.59-2.059-3.905-3.468-6.358-4.263c-1.9-0.625-3.919-0.866-5.908-0.995
			c-2.242-0.173-4.963-0.063-7.194-0.348c-0.272-0.047-0.551-0.101-0.8-0.224l-0.018-0.009l-0.018-0.01l-0.017-0.01l-0.016-0.01
			l-0.016-0.01l-0.015-0.01l-0.015-0.01l-0.014-0.01l-0.014-0.011l-0.013-0.011l-0.013-0.011l-0.012-0.011l-0.012-0.011
			l-0.011-0.011l-0.01-0.012l-0.01-0.012l-0.009-0.012l-0.009-0.012l-0.008-0.012l-0.008-0.012l-0.007-0.013l-0.007-0.013
			l-0.006-0.013l-0.005-0.013l-0.005-0.013l-0.003-0.008l-0.003-0.008l-0.002-0.009l-0.002-0.009l-0.002-0.009l-0.002-0.009
			l-0.001-0.009l-0.001-0.009l-0.001-0.009l-0.001-0.009l0-0.009l0-0.009l0-0.009l0-0.009l0-0.009l0-0.009l0.001-0.009l0.001-0.01
			l0.001-0.01l0.001-0.01l0.002-0.01l0.002-0.01l0.002-0.01l0.002-0.01c0.034-0.145,0.115-0.276,0.2-0.396
			c0.593-0.784,1.854-1.704,2.597-2.357c0.596-0.53,1.316-1.119,1.628-1.87c0.127-0.323,0.108-0.668-0.106-0.949l-0.013-0.018
			l-0.014-0.018l-0.014-0.018c-0.254-0.301-0.609-0.496-0.961-0.66c-0.87-0.388-1.82-0.591-2.757-0.746
			c-4.322-0.645-8.777-0.197-12.964,1.007l-5.336,1.614c-0.848,0.235-1.726,0.478-2.605,0.547c-0.349,0.023-0.711,0.02-1.046-0.091
			l-0.025-0.009l-0.024-0.009l-0.024-0.009l-0.023-0.01l-0.023-0.01l-0.023-0.01l-0.022-0.011l-0.022-0.011l-0.022-0.012
			l-0.021-0.012l-0.021-0.012l-0.02-0.013l-0.02-0.013l-0.02-0.013l-0.019-0.014l-0.019-0.014l-0.018-0.015l-0.018-0.015
			l-0.018-0.016l-0.017-0.016l-0.017-0.016l-0.016-0.017l-0.016-0.017l-0.016-0.018l-0.015-0.018l-0.015-0.018l-0.014-0.019
			l-0.014-0.019c-0.104-0.147-0.165-0.321-0.206-0.495c-0.149-0.677-0.05-1.614-0.042-2.308c0.001-0.712,0.012-1.567-0.492-2.127
			l-0.02-0.021l-0.02-0.02l-0.021-0.02l-0.021-0.019l-0.022-0.019l-0.022-0.019l-0.023-0.018l-0.023-0.018l-0.024-0.017
			l-0.024-0.017l-0.025-0.017l-0.025-0.016l-0.026-0.016l-0.026-0.015l-0.026-0.015l-0.027-0.015l-0.027-0.014
			c-0.452-0.226-0.97-0.275-1.469-0.281c-1.897,0.026-3.781,0.589-5.597,1.095c-2.274,0.679-5.981,1.919-8.261,2.338
			c-1.525,0.304-3.414,0.618-4.851,1.175c-2.935,1.095-6.095,3.017-8.9,4.429c-0.318,0.146-0.649,0.284-0.994,0.348
			c-0.283,0.053-0.59,0.045-0.849-0.093c-0.278-0.145-0.469-0.411-0.607-0.686c-0.186-0.374-0.306-0.786-0.41-1.189
			c-0.499-1.999-0.62-4.357-1.201-6.336c-0.121-0.371-0.258-0.753-0.511-1.056l-0.014-0.016l-0.015-0.016l-0.015-0.016l-0.015-0.015
			l-0.015-0.015l-0.015-0.014l-0.015-0.014l-0.015-0.013l-0.015-0.013l-0.016-0.012l-0.016-0.012l-0.016-0.011l-0.016-0.011
			l-0.016-0.01l-0.017-0.01l-0.017-0.009l-0.017-0.009l-0.017-0.008l-0.017-0.008l-0.017-0.007l-0.017-0.007l-0.018-0.006
			l-0.018-0.006l-0.018-0.005l-0.018-0.005l-0.018-0.004l-0.018-0.004l-0.018-0.003l-0.019-0.003l-0.019-0.002l-0.019-0.002
			l-0.019-0.001l-0.019-0.001l-0.019,0l-0.019,0l-0.019,0.001l-0.02,0.001l-0.02,0.002l-0.02,0.002l-0.02,0.003l-0.02,0.003
			l-0.02,0.003l-0.02,0.004l-0.02,0.004l-0.021,0.005l-0.021,0.005l-0.021,0.006l-0.021,0.006c-0.704,0.24-1.323,0.946-1.815,1.488
			c-1.195,1.371-2.754,3.66-3.865,5.123c-0.811,1.105-2.058,2.475-2.98,3.513c-0.719,0.823-1.408,1.707-1.817,2.729
			c-0.68,1.676-0.59,3.638-1.115,5.356c-0.122,0.381-0.284,0.759-0.539,1.071c-0.351,0.446-0.892,0.637-1.444,0.669
			c-0.598,0.038-1.202-0.059-1.786-0.18c-3.014-0.669-6.027-2.136-9.16-2.149c-1.94-0.027-3.849,0.511-5.604,1.308
			c-1.934,0.872-3.808,2.044-5.593,3.189c-3.022,1.969-6.123,4.132-8.915,6.415c-1.288,1.082-2.622,2.21-3.659,3.543
			c-0.241,0.324-0.474,0.668-0.611,1.051l-0.011,0.033l-0.01,0.033l-0.01,0.032l-0.009,0.032l-0.008,0.031l-0.007,0.031
			l-0.006,0.031l-0.006,0.03l-0.005,0.03l-0.004,0.03l-0.003,0.029l-0.002,0.029l-0.002,0.029l-0.001,0.028l0,0.028l0.001,0.027
			l0.002,0.027l0.003,0.027l0.004,0.026l0.004,0.026l0.005,0.025l0.006,0.025l0.007,0.025l0.008,0.024l0.009,0.024l0.01,0.023
			l0.011,0.023l0.011,0.023l0.012,0.022l0.013,0.022l0.014,0.021l0.015,0.021l0.016,0.021l0.017,0.02l0.018,0.02l0.019,0.019
			l0.012,0.012l0.012,0.011l0.013,0.011l0.013,0.011l0.013,0.011l0.014,0.011l0.014,0.011l0.014,0.01
			c0.486,0.319,1.143,0.363,1.709,0.414c1.289,0.098,2.822-0.036,4.111,0.072c0.17,0.02,0.345,0.044,0.505,0.109l0.012,0.005
			l0.012,0.005l0.011,0.005l0.011,0.006l0.01,0.006l0.01,0.006l0.01,0.006l0.009,0.006l0.009,0.006l0.009,0.006l0.011,0.008
			l0.01,0.008l0.009,0.009l0.009,0.009l0.008,0.009l0.008,0.009l0.007,0.009l0.006,0.01l0.006,0.01l0.005,0.01l0.005,0.01
			l0.004,0.01l0.003,0.01l0.003,0.011l0.002,0.011l0.002,0.011l0.001,0.011l0.001,0.011l0,0.012l-0.001,0.012l-0.001,0.012
			l-0.002,0.012l-0.002,0.012l-0.003,0.013l-0.003,0.013l-0.004,0.013l-0.004,0.013l-0.005,0.013l-0.005,0.014l-0.006,0.014
			l-0.006,0.014l-0.007,0.014l-0.007,0.014l-0.008,0.014l-0.008,0.015l-0.009,0.015l-0.009,0.015
			c-0.128,0.194-0.303,0.355-0.475,0.51c-1.444,1.209-3.432,2.479-4.893,3.668c-1.452,1.157-2.854,2.434-3.911,3.97
			c-1.162,1.662-1.932,3.584-2.361,5.561"/>
	</g>
	<g id="POLYLINE_00000083792659754237518760000006758203647048121501_">
		
			<path fill="none" stroke="#FB8604" stroke-width="2.75" stroke-linecap="round" stroke-linejoin="round" stroke-miterlimit="10" d="
			M556.939,249.602c-2.595-2.017-6.168-1.236-8.981-0.114c-1.524,0.625-2.988,1.449-4.231,2.537
			c-0.893,0.784-1.671,1.731-2.126,2.837c-1.156,2.765-0.318,6.088,1.691,8.241c2.008,2.173,4.975,3.279,7.893,3.408
			c2.175,0.086,4.404-0.29,6.36-1.267c1.036-0.527,2.004-1.255,2.642-2.24c0.633-0.972,0.909-2.137,0.954-3.286
			c0.066-1.933-0.404-3.859-1.099-5.652C559.361,252.379,558.396,250.73,556.939,249.602z"/>
	</g>
	<g id="POLYLINE_00000023980068355009102420000008891625533122007726_">
		
			<path fill="none" stroke="#FB8604" stroke-width="2.75" stroke-linecap="round" stroke-linejoin="round" stroke-miterlimit="10" d="
			M422.96,290.087c-3.228,0.063-6.423,0.905-9.49,1.86l-13.136,4.231c-4.583,1.395-9.345,2.701-14.094,3.362
			c-4.705,0.71-11.245,0.749-16.045,0.894c-2.197,0.089-4.485,0.235-6.651,0.6c-1.783,0.296-3.591,0.77-5.32,1.296
			c-4.267,1.335-9.219,3.158-13.601,3.988c-6.552,1.309-13.432,1.259-20.091,1.144l-20.633-0.761
			c-3.596-0.078-7.371-0.094-10.943,0.252c-3.788,0.33-8.223,1.204-12.012,1.555c-4.394,0.437-9.075,0.049-13.474-0.32
			c-5.828-0.486-12.715-1.323-18.529-0.947c-3.249,0.206-6.497,0.836-9.642,1.663c-3.51,0.936-8.361,2.429-11.901,2.992
			c-1.144,0.181-2.323,0.319-3.482,0.288c-0.922-0.03-1.881-0.157-2.686-0.637c-0.559-0.33-1.003-0.824-1.355-1.363
			c-0.907-1.25-5.291-12.304-6.044-13.922c-1.878-4.26-3.898-8.734-6.243-12.748c-1.798-3.114-4.476-6.776-5.98-10.039
			c-2.137-4.456-2.762-10.675-3.69-15.51c-0.571-3.007-1.264-6.052-2.433-8.886c-1.444-3.554-3.763-7.134-5.374-10.615
			c-0.986-2.139-1.749-4.419-1.954-6.776c-0.536-6.354,1.863-12.799,1.324-19.152c-0.167-1.839-0.686-3.654-1.538-5.294
			c-0.566-1.079-1.274-2.109-2.186-2.925c-0.56-0.491-1.216-0.927-1.965-1.043c-0.449-0.07-0.912,0.024-1.314,0.229
			c-0.669,0.34-1.203,0.893-1.699,1.444c-0.751,0.854-1.588,1.969-2.355,2.806c-0.99,1.068-2.97,2.922-4.06,3.932
			c-1.685,1.604-3.247,3.381-4.413,5.401c-2.265,3.881-3.445,8.332-3.819,12.791c-0.279,3.277-0.046,6.609,0.402,9.862
			c1.136,8.12,4.022,18.299,5.117,26.425c1.112,7.862,2.027,17.978,4.415,25.495c3.056,9.848,9.355,19.569,14.341,28.57
			c2.909,5.299,5.695,10.837,7.707,16.543c1.086,3.161,2.018,6.457,2.132,9.815c0.044,1.524-0.129,3.06-0.501,4.538
			c-0.509,2.09-1.499,4.227-2.38,6.19c-3.644,5.191-7.892,11.121-11.025,16.591c-1.257,2.213-2.442,4.531-3.267,6.941
			c-1.012,2.897-1.396,5.99-1.547,9.043c-0.25,4.149,0.149,10.888,0.296,15.1c0.273,5.573-0.035,12.932-0.253,18.552
			c-0.01,1.065-0.069,2.189,0.146,3.236c0.052,0.22,0.124,0.442,0.254,0.63c0.247,0.373,0.71,0.449,1.122,0.501
			c1.272,0.142,2.887,0.268,3.484,1.598c0.179,0.39,0.258,0.819,0.305,1.243c0.101,0.982,0.038,2.021-0.018,3.006
			c-0.423,5.643-0.809,13.988-1.912,19.475c-0.849,4.92-3.181,12.232-4.552,17.09c-0.559,2.085-1.165,4.258-1.339,6.414
			c-0.142,1.667,0.083,3.357,0.866,4.851c0.405,0.778,0.862,1.606,1.024,2.469c0.201,0.993,0.144,2.021-0.016,3.015
			c-0.234,1.431-0.684,2.858-1.165,4.225c-2.949,8.377-8.441,16.654-11.986,24.776c-1.889,4.527-3.46,9.289-4.623,14.055
			c-0.277,1.279-0.534,2.596-0.505,3.909c0.024,0.744,0.174,1.504,0.569,2.144c0.388,0.643,1.022,1.096,1.699,1.399
			c0.716,0.325,1.496,0.52,1.918,1.252c0.218,0.36,0.34,0.77,0.428,1.179c0.256,1.31,0.243,2.689,0.257,4.02
			c-0.077,6.374-0.477,14.811,0.289,21.073c0.187,1.554,0.46,3.124,0.88,4.633c0.38,1.29,0.814,2.627,1.667,3.688
			c0.25,0.298,0.561,0.552,0.922,0.701c0.431,0.188,0.968,0.214,1.431,0.266c0.377,0.043,0.759,0.129,1.085,0.331
			c0.385,0.236,0.681,0.592,0.928,0.965c0.457,0.703,0.775,1.499,1.056,2.287c0.99,2.903,1.569,6.116,2.158,9.126
			c0.494,2.621,2.021,12.166,2.637,14.573c0.152,0.568,0.327,1.144,0.606,1.664c0.19,0.354,0.446,0.682,0.786,0.903
			c0.411,0.271,0.901,0.388,1.38,0.471l0.86,0.137c0.491,0.085,0.988,0.21,1.41,0.482c0.568,0.364,0.987,0.916,1.36,1.469
			c2.195,3.525,4.05,7.799,6.847,10.905c1.156,1.322,2.562,2.465,4.221,3.084c1.201,0.465,2.49,0.69,3.768,0.799
			c1.921,0.22,25.24,0.088,27.612,0.095c1.194-0.043,2.46-0.18,3.464-0.883c0.567-0.392,1.016-0.934,1.383-1.513
			c0.603-0.959,1.008-2.038,1.306-3.128c0.57-2.132,0.724-4.377,0.507-6.571c-0.23-2.304-0.9-4.596-2.13-6.569
			c-1.113-1.805-2.73-3.312-4.67-4.188c-2.008-0.935-4.257-1.183-6.448-1.256c-1.479-0.078-4.096,0.025-5.519-0.286
			c-0.356-0.081-0.707-0.206-1.016-0.404c-0.905-0.593-1.331-1.671-1.73-2.633c-0.779-2.039-1.205-4.238-1.13-6.424
			c0.09-2.688,1.268-5.951,1.958-8.548c0.511-1.873,0.914-3.94,1.242-5.857c0.546-2.958,1.288-10.109,2.304-12.841
			c0.167-0.407,0.364-0.826,0.701-1.12c0.2-0.174,0.466-0.26,0.73-0.245c0.827,0.062,1.601,0.681,2.301,1.08
			c0.534,0.318,1.197,0.66,1.776,0.25c0.254-0.177,0.441-0.434,0.602-0.695c0.932-1.678,1.455-3.627,2.038-5.448l3.692-13.027
			c0.355-1.123,0.667-2.31,1.285-3.323c0.144-0.221,0.315-0.433,0.537-0.58c0.341-0.232,0.78-0.211,1.162-0.103
			c0.807,0.231,1.567,0.73,2.4,0.877c0.616,0.12,1.313,0.076,1.82-0.329c0.472-0.371,0.685-0.964,0.858-1.518
			c0.641-2.461,1.24-5.254,1.991-7.682c0.877-2.919,1.826-5.917,3.205-8.642c0.447-0.873,0.956-1.733,1.543-2.52
			c0.688-0.943,1.823-2.1,2.61-2.964c1.577-1.708,2.793-3.772,3.944-5.783l7.345-13.411c0.436-0.724,0.898-1.648,1.569-2.171
			c0.304-0.232,0.689-0.315,1.065-0.327c0.427-0.007,0.909-0.028,1.322-0.12c0.317-0.072,0.624-0.195,0.902-0.364
			c0.54-0.326,0.971-0.803,1.328-1.318c0.59-0.865,1.029-1.849,1.433-2.812c1.005-2.454,1.818-5.166,2.567-7.712
			c0.635-2.24,1.377-4.708,1.699-7.004c0.264-1.618,0.205-3.592,0.719-5.149c0.107-0.293,0.264-0.569,0.476-0.799
			c0.345-0.38,0.85-0.665,1.257-0.972c0.485-0.355,0.894-0.814,1.182-1.342c0.986-1.887,1.543-4.243,2.274-6.24
			c1.048-2.964,2.405-6.441,3.079-9.499c0.393-1.747,0.609-3.552,0.675-5.341c0.082-2.161-0.053-4.372-0.299-6.52
			c-0.216-2.04-0.732-4.924-0.899-6.968c-0.045-0.701-0.064-1.472,0.383-2.059l0.244-0.338c0.571-0.808,0.638-1.84,0.73-2.794
			c0.133-1.797,0.087-3.652,0.001-5.451c-0.078-1.611-0.224-3.26-0.541-4.842c-0.823-4.098-2.45-8.056-4.109-11.879"/>
	</g>
	<g id="POLYLINE_00000158027365179488245850000000353594999430951303_">
		
			<path fill="none" stroke="#FB8604" stroke-width="2.75" stroke-linecap="round" stroke-linejoin="round" stroke-miterlimit="10" d="
			M399.253,449.514c-0.394,4.42-0.568,9.421-1.243,13.796c-0.397,2.859-1.299,6.107-2.073,8.903
			c-0.292,1.169-0.645,2.385-0.672,3.595c0.002,0.254,0.021,0.515,0.114,0.754l0.007,0.018l0.008,0.018l0.008,0.018l0.008,0.017
			l0.008,0.017l0.009,0.017l0.009,0.016l0.009,0.016l0.01,0.016l0.01,0.015l0.01,0.015l0.01,0.015l0.011,0.014l0.011,0.014
			l0.011,0.013l0.011,0.013l0.012,0.013l0.012,0.012l0.012,0.012l0.013,0.012l0.013,0.011l0.013,0.011l0.013,0.011l0.014,0.01
			l0.014,0.01l0.014,0.009l0.015,0.009l0.015,0.009l0.015,0.008l0.015,0.008l0.016,0.008l0.016,0.007l0.016,0.007l0.017,0.006
			l0.017,0.006l0.017,0.006l0.014,0.004l0.014,0.004l0.014,0.004l0.014,0.003l0.015,0.003c0.202,0.042,0.412,0.017,0.613-0.022
			c1.004-0.22,2.241-0.887,3.189-1.296c0.6-0.249,1.477-0.666,2.127-0.56l0.017,0.003l0.016,0.004l0.016,0.004l0.016,0.004
			l0.016,0.004l0.016,0.005l0.015,0.005l0.015,0.005l0.015,0.005l0.015,0.006l0.015,0.006l0.014,0.006l0.014,0.007l0.014,0.007
			l0.014,0.007l0.014,0.007l0.013,0.008l0.013,0.008l0.013,0.008l0.013,0.008l0.013,0.009l0.012,0.009l0.012,0.009l0.012,0.009
			l0.012,0.01l0.012,0.01l0.012,0.01l0.011,0.01l0.011,0.011l0.011,0.011l0.011,0.011l0.011,0.011l0.01,0.012l0.01,0.012l0.01,0.012
			l0.01,0.012l0.01,0.013l0.01,0.013l0.009,0.013c0.159,0.232,0.215,0.516,0.244,0.791c0.085,1.383-0.279,2.782-0.549,4.13
			c-1.525,7.106-4.072,15.99-4.118,23.217c0.035,0.974,0.097,1.991,0.519,2.884l0.022,0.043l0.022,0.042l0.023,0.041l0.023,0.04
			l0.024,0.039l0.024,0.038l0.025,0.037l0.025,0.036l0.026,0.035l0.026,0.034l0.027,0.033l0.027,0.032l0.028,0.031l0.028,0.03
			l0.029,0.029l0.029,0.028c0.776,0.706,2.05,0.408,3.002,0.353c0.629-0.045,1.3-0.07,1.882,0.21
			c0.454,0.222,0.796,0.621,1.042,1.054c0.368,0.652,0.565,1.388,0.698,2.121c0.278,1.625,0.242,3.3,0.09,4.937
			c-0.204,2.086-0.632,4.161-1.246,6.165c-0.835,2.777-2.242,5.821-3.245,8.543c-0.246,0.693-0.487,1.424-0.621,2.148
			c-0.095,0.55-0.154,1.139,0.042,1.674l0.01,0.027l0.011,0.026l0.011,0.026l0.012,0.026l0.012,0.025l0.012,0.025l0.013,0.025
			l0.013,0.024l0.014,0.024l0.014,0.024l0.015,0.023l0.015,0.023l0.016,0.023l0.016,0.022l0.016,0.022l0.017,0.022
			c0.176,0.221,0.418,0.379,0.67,0.501c0.792,0.367,1.782,0.499,2.611,0.761c0.656,0.202,1.363,0.527,1.661,1.188
			c0.193,0.409,0.247,0.87,0.25,1.318c-0.004,1.004-0.239,2.007-0.487,2.975c-0.567,2.273-1.662,4.837-1.693,7.198
			c-0.009,1.015,0.302,2.038,0.973,2.812c0.46,0.548,1.047,0.978,1.652,1.355c2.991,1.808,6.651,2.791,9.493,4.857
			c1.166,0.843,2.107,2.035,2.447,3.451c0.639,2.684-0.422,5.428-1.505,7.855c-0.797,1.741-1.93,3.904-2.605,5.69
			c-0.182,0.496-0.347,1.016-0.435,1.538c-0.067,0.422-0.094,0.869,0.051,1.278l0.009,0.024l0.009,0.024l0.01,0.024l0.01,0.023
			l0.011,0.023l0.011,0.023l0.011,0.023l0.012,0.022l0.012,0.022l0.013,0.022l0.013,0.021l0.013,0.021l0.014,0.021l0.014,0.021
			l0.015,0.02l0.015,0.02l0.016,0.02l0.016,0.019l0.016,0.019l0.017,0.019l0.017,0.018c0.195,0.203,0.451,0.336,0.712,0.436
			c1.042,0.376,2.286,0.394,3.348,0.7c0.538,0.156,1.122,0.404,1.388,0.93l0.014,0.028l0.013,0.028l0.012,0.029l0.012,0.029
			l0.011,0.03l0.011,0.03l0.01,0.031l0.009,0.031l0.009,0.031l0.008,0.032l0.008,0.032l0.007,0.033l0.007,0.033l0.006,0.034
			c0.071,0.423,0.017,0.858-0.064,1.275c-0.182,0.887-0.514,1.759-0.844,2.601c-0.627,1.607-1.681,3.894-2.141,5.528
			c-0.23,0.794-0.419,1.618-0.422,2.449c0,0.474,0.069,0.956,0.262,1.392c0.191,0.438,0.495,0.821,0.849,1.138
			c1.449,1.254,3.604,1.796,5.371,2.456c1.234,0.456,2.522,0.929,3.523,1.809c0.891,0.787,1.34,1.946,1.539,3.095
			c0.347,1.947,0.165,4.169,0.522,6.114c0.556,3.231,3.088,5.614,5.356,7.782c3.394,2.704,7.246,5.276,11.697,5.584
			c0.882,0.09,1.913,0.094,2.805,0.105c3.495-0.042,21.238,0.128,24.341-0.145c1.458-0.12,2.941-0.322,4.311-0.856
			c1.158-0.444,2.197-1.187,2.991-2.141c1.151-1.372,1.826-3.081,2.259-4.803c0.728-3.035,0.889-6.212,0.606-9.315
			c-0.215-2.047-0.637-4.217-2.016-5.821c-1.215-1.407-3.009-2.119-4.729-2.7c-2.929-0.945-6.195-1.881-8.946-3.256
			c-0.477-0.252-0.94-0.551-1.33-0.927c-0.483-0.459-0.85-1.028-1.15-1.619c-0.467-0.92-0.808-1.916-1.037-2.922
			c-0.24-1.064-0.355-2.166-0.336-3.256c0-1.174,0.324-3.04,0.466-4.206c0.401-2.982,0.284-6.039-0.251-8.997
			c-1.529-4.226-2.493-8.667-1.479-13.131l0.574-2.722c0.204-1.032,0.372-2.103,0.397-3.156c0.028-1.055-0.091-2.143-0.236-3.188
			c-0.323-2.226-0.835-4.75-0.674-6.995c0.134-1.989,0.743-3.929,1.409-5.797c1.386-3.583,2.536-6.885,3.487-10.625
			c0.239-0.789,0.466-1.627,0.865-2.352c0.09-0.154,0.191-0.306,0.328-0.422l0.011-0.009l0.011-0.009l0.011-0.008l0.011-0.008
			l0.011-0.008l0.011-0.007l0.011-0.007l0.011-0.007l0.011-0.006l0.011-0.006l0.011-0.006l0.011-0.005l0.011-0.005l0.011-0.005
			l0.011-0.005l0.011-0.004l0.011-0.004l0.011-0.003l0.011-0.003l0.011-0.003l0.011-0.003l0.011-0.002l0.011-0.002l0.011-0.001
			l0.012-0.001l0.012-0.001l0.012,0c0.254,0.004,0.464,0.2,0.65,0.352c0.395,0.337,0.807,0.798,1.348,0.867l0.02,0.002l0.02,0.002
			l0.02,0.001l0.02,0.001l0.02,0h0.02l0.02,0l0.02-0.001l0.02-0.001l0.021-0.002l0.021-0.002l0.021-0.002l0.021-0.003
			c0.51-0.082,0.931-0.424,1.301-0.764c0.522-0.496,0.971-1.077,1.388-1.662c1.816-2.57,3.605-6.353,5.073-9.164
			c0.675-1.228,1.351-2.513,2.36-3.504c0.314-0.295,0.678-0.559,1.099-0.673c0.744-0.205,1.474,0.199,2.102,0.559
			c0.823,0.466,1.7,1.148,2.673,1.212c0.515,0.03,1.019-0.152,1.452-0.421c0.709-0.445,1.277-1.086,1.784-1.744
			c2.136-2.904,3.552-6.46,4.979-9.756c1.443-3.301,3.042-7.825,5.019-10.819c0.298-0.416,0.622-0.836,1.055-1.119l0.026-0.016
			l0.026-0.015l0.026-0.015l0.026-0.014l0.025-0.013l0.025-0.012l0.025-0.012l0.025-0.011l0.025-0.01l0.025-0.01l0.025-0.009
			l0.025-0.008l0.025-0.007l0.025-0.007l0.025-0.006l0.025-0.005l0.025-0.004l0.025-0.004l0.024-0.003l0.024-0.002l0.024-0.001
			l0.024-0.001l0.024,0l0.024,0.001l0.024,0.002c0.351,0.036,0.631,0.282,0.885,0.506l0.483,0.449
			c0.369,0.336,0.844,0.689,1.371,0.566l0.03-0.007l0.031-0.008l0.031-0.009l0.031-0.01l0.031-0.011l0.031-0.012l0.032-0.013
			l0.032-0.014l0.032-0.014l0.032-0.015l0.032-0.016l0.032-0.017l0.033-0.018c0.388-0.223,0.714-0.544,1.017-0.869
			c1.518-1.681,3.442-4.919,4.734-6.814c0.857-1.254,1.755-2.536,2.807-3.633c0.463-0.474,0.964-0.928,1.546-1.251
			c0.367-0.204,0.778-0.339,1.199-0.354c0.471-0.021,0.94,0.097,1.372,0.279c1.095,0.454,2.06,1.349,3.144,1.821
			c0.258,0.107,0.533,0.186,0.814,0.192c0.746,0.02,1.399-0.445,1.884-0.974c0.603-0.662,1.043-1.461,1.41-2.273
			c1.042-2.283,1.413-5.012,1.821-7.477c0.27-1.43,0.478-2.966,1.272-4.215c0.291-0.438,0.711-0.809,1.226-0.95
			c0.493-0.139,1.017-0.111,1.519-0.043c1.411,0.198,2.932,0.828,4.342,1.034c0.507,0.066,1.066,0.088,1.517-0.19
			c0.809-0.514,0.938-1.668,0.99-2.546c0.046-1.068-0.06-2.161-0.185-3.222c-0.859-6.347-2.798-14.58-3.187-20.954
			c-0.133-2.461-0.174-5.02,0.648-7.376c0.614-1.809,1.845-3.563,2.751-5.232c0.758-1.379,1.376-2.855,1.802-4.371
			c1.323-4.644,1.651-10.259,2.768-14.95c0.158-0.565,0.32-1.16,0.65-1.653l0.018-0.025l0.018-0.024l0.018-0.023l0.018-0.022
			l0.018-0.021l0.018-0.02l0.018-0.02l0.018-0.019l0.019-0.018l0.019-0.017l0.019-0.016l0.019-0.015l0.019-0.014l0.019-0.013
			l0.019-0.013l0.019-0.012l0.019-0.011l0.02-0.01l0.02-0.009c0.258-0.111,0.536,0.019,0.764,0.143
			c0.538,0.298,1.076,0.757,1.727,0.719l0.026-0.002l0.026-0.003l0.026-0.003l0.026-0.004l0.026-0.004l0.026-0.005l0.027-0.005
			l0.027-0.006l0.027-0.006l0.027-0.007l0.027-0.008c0.642-0.201,1.135-0.703,1.567-1.198c1.03-1.239,1.767-2.704,2.409-4.173
			c1.139-2.699,1.957-5.576,2.156-8.508c0.201-2.833-0.255-5.685-0.903-8.437l-1.435-5.85c-0.531-2.451-1.233-5.344-1.049-7.846
			c0.051-0.442,0.133-0.905,0.39-1.279l0.013-0.018l0.013-0.018l0.014-0.017l0.014-0.017l0.014-0.017l0.014-0.016l0.014-0.016
			l0.015-0.015l0.015-0.015l0.015-0.015l0.015-0.014l0.016-0.014l0.016-0.013l0.016-0.013l0.016-0.013l0.016-0.012l0.017-0.012
			l0.017-0.011l0.017-0.011l0.017-0.011l0.018-0.01l0.018-0.01l0.018-0.009l0.018-0.009l0.019-0.008l0.019-0.008l0.019-0.008
			l0.019-0.007l0.02-0.007l0.02-0.006c0.605-0.166,1.378,0.187,1.938,0.414c0.769,0.324,1.624,0.79,2.446,0.942
			c0.18,0.029,0.367,0.04,0.546-0.001l0.018-0.004l0.018-0.005l0.018-0.005l0.018-0.005l0.018-0.006l0.017-0.006l0.017-0.006
			l0.017-0.007l0.017-0.007l0.017-0.007l0.016-0.008l0.016-0.008l0.016-0.008l0.016-0.009l0.016-0.009l0.015-0.009l0.015-0.01
			l0.015-0.01l0.015-0.01l0.015-0.011l0.014-0.011l0.014-0.011l0.014-0.012l0.014-0.012l0.014-0.012l0.014-0.013l0.013-0.013
			l0.013-0.013l0.013-0.014l0.013-0.014l0.013-0.014c0.46-0.56,0.495-1.492,0.521-2.191c0.045-2.18-0.921-10.067-1.104-12.362
			c-0.329-3.339-0.755-6.807-1.621-10.051"/>
	</g>
</g>
<g id="_x32_D_x24_AG-OUTLINE">
	<g id="POLYLINE_00000059273397691982207570000005700627635619237771_">
		
			<path fill="none" stroke="#FB8604" stroke-width="3.5" stroke-linecap="round" stroke-linejoin="round" stroke-miterlimit="10" d="
			M278.603,455.407c-0.307,0.864-1.435,3.967-1.686,4.756c-0.434,1.288-0.944,2.985-1.457,4.219
			c-0.21,0.494-0.443,0.989-0.764,1.421c-0.263,0.355-0.595,0.657-0.953,0.914c-0.435,0.32-0.953,0.61-1.284,1.044
			c-0.584,0.765-0.66,1.942-0.774,2.874c-0.129,1.414-0.272,3.1-0.574,4.476c-0.449,2.176-1.201,4.659-1.823,6.798
			c-0.923,2.95-1.802,6.062-3.331,8.763c-0.435,0.721-0.983,1.415-1.736,1.822c-0.629,0.358-1.385,0.393-2.092,0.408
			c-0.376,0.012-0.761,0.095-1.065,0.327c-0.671,0.523-1.133,1.446-1.569,2.171l-7.345,13.411c-1.152,2.011-2.367,4.074-3.944,5.783
			c-0.797,0.868-1.928,2.034-2.61,2.964c-0.587,0.788-1.095,1.646-1.543,2.52c-1.379,2.724-2.328,5.723-3.205,8.642
			c-0.751,2.427-1.351,5.222-1.991,7.682c-0.174,0.555-0.386,1.147-0.858,1.518c-0.508,0.404-1.204,0.449-1.82,0.329
			c-0.833-0.147-1.593-0.646-2.4-0.877c-0.385-0.11-0.829-0.129-1.171,0.109c-0.226,0.152-0.398,0.372-0.544,0.6
			c-0.605,1.008-0.917,2.184-1.268,3.297l-3.692,13.027c-0.583,1.822-1.106,3.769-2.038,5.448c-0.161,0.261-0.348,0.518-0.602,0.695
			c-0.58,0.411-1.243,0.068-1.776-0.25c-0.488-0.289-1.128-0.724-1.652-0.927c-0.211-0.082-0.434-0.146-0.662-0.154
			c-0.259-0.012-0.521,0.075-0.717,0.246c-0.338,0.293-0.534,0.713-0.701,1.12c-1.014,2.719-1.764,9.919-2.304,12.841
			c-0.329,1.919-0.731,3.982-1.242,5.857c-0.679,2.563-1.833,5.771-1.952,8.41c-0.1,2.231,0.329,4.48,1.124,6.562
			c0.399,0.962,0.825,2.039,1.73,2.633c0.308,0.198,0.66,0.323,1.016,0.404c1.413,0.312,4.058,0.212,5.519,0.286
			c2.226,0.074,4.511,0.33,6.543,1.3c1.899,0.88,3.48,2.369,4.575,4.144c1.23,1.973,1.9,4.264,2.13,6.569
			c0.216,2.194,0.063,4.439-0.507,6.571c-0.307,1.121-0.726,2.231-1.359,3.211c-0.357,0.547-0.79,1.057-1.33,1.43
			c-1.005,0.703-2.27,0.84-3.464,0.883c-2.414-0.007-25.647,0.125-27.612-0.095c-1.279-0.11-2.568-0.334-3.768-0.799
			c-1.658-0.619-3.065-1.762-4.221-3.084c-2.796-3.102-4.658-7.383-6.847-10.905c-0.368-0.544-0.779-1.087-1.334-1.452
			c-0.427-0.284-0.936-0.413-1.436-0.499l-0.86-0.137c-0.479-0.083-0.97-0.2-1.38-0.471c-0.351-0.227-0.612-0.569-0.804-0.936
			c-0.268-0.511-0.439-1.075-0.588-1.63c-0.609-2.364-2.155-12.02-2.638-14.573c-0.59-3.013-1.167-6.221-2.158-9.126
			c-0.281-0.788-0.598-1.584-1.056-2.287c-0.247-0.373-0.543-0.729-0.928-0.965c-0.326-0.202-0.708-0.288-1.085-0.331
			c-0.465-0.054-0.999-0.077-1.431-0.266c-0.361-0.149-0.672-0.403-0.922-0.701c-0.853-1.061-1.288-2.398-1.668-3.688
			c-0.489-1.755-0.777-3.591-0.966-5.402c-0.644-5.925-0.281-14.288-0.203-20.304c-0.012-1.301-0.004-2.646-0.238-3.927
			c-0.088-0.441-0.213-0.884-0.446-1.271c-0.422-0.732-1.203-0.927-1.918-1.252c-0.677-0.303-1.311-0.755-1.699-1.399
			c-0.395-0.64-0.546-1.4-0.569-2.144c-0.028-1.314,0.228-2.63,0.505-3.909c1.227-5.004,2.876-9.997,4.916-14.729
			c3.535-7.844,8.826-15.97,11.693-24.102c0.48-1.365,0.931-2.794,1.165-4.225c0.16-0.994,0.217-2.023,0.016-3.015
			c-0.155-0.88-0.632-1.683-1.024-2.469c-0.782-1.494-1.008-3.184-0.866-4.851c0.174-2.155,0.78-4.33,1.338-6.414
			c1.382-4.916,3.696-12.147,4.552-17.09c1.096-5.454,1.494-13.854,1.912-19.475c0.057-1.019,0.124-2.088,0.006-3.104
			c-0.049-0.391-0.129-0.786-0.294-1.145c-0.597-1.33-2.213-1.457-3.484-1.598c-0.418-0.053-0.881-0.129-1.128-0.51
			c-0.126-0.186-0.196-0.404-0.248-0.621c-0.214-1.047-0.156-2.172-0.146-3.236c0.22-5.662,0.526-12.959,0.253-18.552
			c-0.145-4.254-0.544-10.926-0.296-15.1c0.151-3.053,0.535-6.146,1.547-9.043c0.825-2.41,2.011-4.729,3.267-6.941
			c3.126-5.459,7.393-11.419,11.025-16.591c0.899-1.996,1.854-4.061,2.38-6.19c0.372-1.478,0.545-3.014,0.501-4.538
			c-0.114-3.358-1.046-6.654-2.132-9.815c-2.012-5.705-4.799-11.245-7.707-16.543c-4.996-9.021-11.277-18.706-14.341-28.57
			c-2.383-7.489-3.311-17.674-4.415-25.495c-1.096-8.121-3.982-18.309-5.118-26.425c-0.448-3.253-0.68-6.585-0.402-9.862
			c0.374-4.458,1.555-8.91,3.819-12.791c1.166-2.021,2.728-3.798,4.413-5.401c1.11-1.015,3.065-2.852,4.06-3.932
			c0.766-0.838,1.605-1.952,2.355-2.806c0.496-0.552,1.03-1.105,1.699-1.444c0.403-0.204,0.865-0.299,1.314-0.229
			c0.749,0.116,1.406,0.552,1.965,1.043c0.912,0.816,1.62,1.846,2.186,2.925c0.852,1.64,1.371,3.454,1.538,5.294
			c0.539,6.354-1.86,12.798-1.324,19.152c0.205,2.356,0.968,4.637,1.954,6.776c1.612,3.482,3.929,7.058,5.374,10.615
			c1.169,2.833,1.863,5.882,2.433,8.886c0.935,4.858,1.55,11.038,3.69,15.51c1.502,3.26,4.184,6.929,5.98,10.039
			c2.343,4.01,4.368,8.493,6.243,12.747c0.82,1.754,5.103,12.644,6.094,13.998c0.343,0.509,0.773,0.973,1.305,1.287
			c0.805,0.48,1.764,0.607,2.686,0.637c1.159,0.031,2.339-0.107,3.482-0.288c3.524-0.558,8.419-2.061,11.901-2.992
			c3.146-0.828,6.393-1.458,9.642-1.663c5.799-0.377,12.711,0.462,18.529,0.947c4.401,0.369,9.076,0.757,13.474,0.32
			c3.791-0.351,8.221-1.225,12.012-1.555c3.569-0.345,7.355-0.33,10.943-0.252l20.633,0.761c6.661,0.114,13.537,0.165,20.091-1.144
			c4.374-0.828,9.342-2.655,13.601-3.988c1.729-0.526,3.537-1,5.32-1.296c2.164-0.364,4.457-0.511,6.651-0.6
			c4.83-0.147,11.32-0.184,16.045-0.894c4.747-0.661,9.512-1.968,14.094-3.362l13.136-4.231c3.068-0.955,6.261-1.797,9.49-1.86
			c-0.702-2.826-1.291-7.035-2.382-9.715c-0.318-0.76-0.735-1.486-1.279-2.108c-1.02-1.178-2.456-2.01-3.422-3.241
			c-0.804-0.991-1.152-2.111-1.159-3.377c-0.02-2.025,0.505-4.504,0.671-6.522c0.222-2.366,0.145-4.868-0.956-7.024
			c-1.975-3.905-5.994-6.675-8.763-9.965c-0.668-0.815-1.296-1.707-1.596-2.728c-0.346-1.135-0.187-2.382,0.345-3.433
			c0.686-1.378,1.834-2.469,3.053-3.381c3.681-2.737,9.961-4.839,14.15-6.722c0.567-0.251,1.443-0.644,1.996-0.909
			c0.43-1.977,1.199-3.899,2.361-5.561c1.057-1.537,2.459-2.814,3.911-3.97c1.462-1.189,3.448-2.459,4.893-3.668
			c0.171-0.155,0.346-0.316,0.475-0.51l0.009-0.015l0.009-0.015l0.008-0.015l0.008-0.014l0.007-0.014l0.007-0.014l0.006-0.014
			l0.006-0.014l0.005-0.014l0.005-0.013l0.004-0.013l0.004-0.013l0.003-0.013l0.003-0.013l0.002-0.012l0.002-0.012l0.001-0.012
			l0.001-0.012l0-0.012l-0.001-0.011l-0.001-0.011l-0.002-0.011l-0.002-0.011l-0.003-0.011l-0.003-0.01l-0.004-0.01l-0.005-0.01
			l-0.005-0.01l-0.006-0.01l-0.006-0.01l-0.007-0.009l-0.008-0.009l-0.008-0.009l-0.009-0.009l-0.009-0.009l-0.01-0.008
			l-0.011-0.008l-0.009-0.006l-0.009-0.006l-0.009-0.006l-0.01-0.006l-0.01-0.006l-0.01-0.006l-0.011-0.006l-0.011-0.005
			l-0.012-0.005l-0.012-0.005c-0.16-0.065-0.335-0.089-0.505-0.109c-1.29-0.108-2.822,0.026-4.111-0.072
			c-0.567-0.051-1.222-0.095-1.709-0.414l-0.014-0.01l-0.014-0.011l-0.014-0.011l-0.013-0.011l-0.013-0.011l-0.013-0.011
			l-0.012-0.011l-0.012-0.012l-0.019-0.019l-0.018-0.02l-0.017-0.02l-0.016-0.021l-0.015-0.021l-0.014-0.021l-0.013-0.022
			l-0.012-0.022l-0.011-0.023l-0.011-0.023l-0.01-0.023l-0.009-0.024l-0.008-0.024l-0.007-0.025l-0.006-0.025l-0.005-0.025
			l-0.004-0.026l-0.004-0.026l-0.003-0.027l-0.002-0.027l-0.001-0.027l0-0.028l0.001-0.028l0.002-0.029l0.002-0.029l0.003-0.029
			l0.004-0.03l0.005-0.03l0.006-0.03l0.006-0.031l0.007-0.031l0.008-0.031l0.009-0.032l0.01-0.032l0.01-0.033l0.011-0.033
			c0.15-0.415,0.409-0.786,0.676-1.134c1.029-1.293,2.331-2.4,3.594-3.459c2.792-2.284,5.893-4.446,8.915-6.415
			c1.787-1.146,3.658-2.317,5.593-3.189c1.755-0.797,3.664-1.335,5.604-1.308c3.133,0.012,6.146,1.48,9.16,2.149
			c0.584,0.122,1.188,0.218,1.786,0.18c0.561-0.032,1.104-0.227,1.457-0.685c0.258-0.322,0.419-0.711,0.541-1.102
			c0.508-1.705,0.428-3.648,1.101-5.309c0.409-1.022,1.099-1.906,1.817-2.729c0.918-1.036,2.164-2.404,2.98-3.513
			c1.111-1.465,2.662-3.743,3.865-5.123c0.497-0.548,1.113-1.248,1.815-1.488l0.021-0.006l0.021-0.006l0.021-0.005l0.021-0.005
			l0.02-0.004l0.02-0.004l0.02-0.003l0.02-0.003l0.02-0.003l0.02-0.002l0.02-0.002l0.02-0.001l0.019-0.001l0.019,0l0.019,0
			l0.019,0.001l0.019,0.001l0.019,0.002l0.019,0.002l0.019,0.003l0.018,0.003l0.018,0.004l0.018,0.004l0.018,0.005l0.018,0.005
			l0.018,0.006l0.018,0.006l0.017,0.007l0.017,0.007l0.017,0.008l0.017,0.008l0.017,0.009l0.017,0.009l0.017,0.01l0.016,0.01
			l0.016,0.011l0.016,0.011l0.016,0.012l0.016,0.012l0.015,0.013l0.015,0.013l0.015,0.014l0.015,0.014l0.015,0.015l0.015,0.015
			l0.015,0.016l0.015,0.016l0.014,0.016c0.253,0.303,0.39,0.685,0.511,1.056c0.581,1.978,0.702,4.337,1.201,6.336
			c0.104,0.404,0.223,0.815,0.41,1.189c0.139,0.278,0.334,0.547,0.617,0.691c0.257,0.134,0.56,0.141,0.839,0.088
			c0.345-0.064,0.676-0.202,0.994-0.348c2.809-1.414,5.959-3.332,8.9-4.429c1.603-0.619,3.651-0.917,5.33-1.276
			c2.03-0.4,5.769-1.639,7.781-2.238c1.817-0.506,3.699-1.069,5.597-1.095c0.499,0.006,1.017,0.055,1.469,0.281l0.027,0.014
			l0.027,0.015l0.026,0.015l0.026,0.015l0.026,0.016l0.025,0.016l0.025,0.017l0.024,0.017l0.024,0.017l0.023,0.018l0.023,0.018
			l0.022,0.019l0.022,0.019l0.021,0.019l0.021,0.02l0.02,0.02l0.02,0.021c0.504,0.561,0.493,1.415,0.492,2.127
			c-0.008,0.698-0.107,1.627,0.042,2.308c0.04,0.174,0.102,0.348,0.206,0.495l0.014,0.019l0.014,0.019l0.015,0.018l0.015,0.018
			l0.016,0.018l0.016,0.017l0.016,0.017l0.017,0.016l0.017,0.016l0.018,0.016l0.018,0.015l0.018,0.015l0.019,0.014l0.019,0.014
			l0.02,0.013l0.02,0.013l0.02,0.013l0.021,0.012l0.021,0.012l0.022,0.012l0.022,0.011l0.022,0.011l0.023,0.01l0.023,0.01
			l0.023,0.01l0.024,0.009l0.024,0.009l0.025,0.009c0.335,0.111,0.697,0.114,1.046,0.091c0.879-0.069,1.758-0.312,2.605-0.547
			l5.336-1.614c4.187-1.204,8.642-1.652,12.964-1.007c0.937,0.155,1.886,0.358,2.757,0.746c0.352,0.164,0.707,0.359,0.961,0.66
			l0.014,0.018l0.014,0.018l0.013,0.018c0.214,0.282,0.233,0.626,0.106,0.949c-0.312,0.751-1.032,1.339-1.628,1.87
			c-0.749,0.659-2,1.569-2.597,2.357c-0.085,0.121-0.166,0.251-0.2,0.396l-0.002,0.01l-0.002,0.01l-0.002,0.01l-0.002,0.01
			l-0.001,0.01l-0.001,0.01l-0.001,0.01l-0.001,0.009l0,0.009l0,0.009l0,0.009l0,0.009l0,0.009l0,0.009l0.001,0.009l0.001,0.009
			l0.001,0.009l0.001,0.009l0.002,0.009l0.002,0.009l0.002,0.009l0.002,0.009l0.003,0.008l0.003,0.008l0.005,0.013l0.005,0.013
			l0.006,0.013l0.007,0.013l0.007,0.013l0.008,0.012l0.008,0.012l0.009,0.012l0.009,0.012l0.01,0.012l0.01,0.012l0.011,0.011
			l0.012,0.011l0.012,0.011l0.013,0.011l0.013,0.011l0.014,0.011l0.014,0.01l0.015,0.01l0.015,0.01l0.016,0.01l0.016,0.01
			l0.017,0.01l0.018,0.01l0.018,0.009c0.249,0.122,0.529,0.177,0.8,0.224c2.228,0.284,4.953,0.176,7.194,0.348
			c1.989,0.13,4.008,0.371,5.908,0.995c2.424,0.786,4.711,2.169,6.3,4.188c0.832,1.053,1.458,2.275,1.799,3.575
			c0.858,3.431,0.144,7.17,0.494,10.657c0.116,1.39,0.393,2.778,0.816,4.108c0.574,1.89,1.537,3.986,2.152,5.864
			c0.141,0.487,0.306,1,0.239,1.512l-0.003,0.018l-0.004,0.018l-0.004,0.018l-0.004,0.017l-0.004,0.017l-0.005,0.017l-0.005,0.016
			l-0.005,0.016l-0.006,0.016l-0.006,0.016l-0.006,0.015l-0.007,0.015l-0.007,0.015l-0.007,0.014l-0.007,0.014l-0.008,0.014
			l-0.008,0.013l-0.008,0.013l-0.009,0.013l-0.009,0.012l-0.009,0.012l-0.01,0.012l-0.01,0.012l-0.01,0.011l-0.011,0.011
			l-0.011,0.011l-0.011,0.01l-0.012,0.01l-0.012,0.01l-0.012,0.009c-0.4,0.267-1.179,0.109-1.647,0.102
			c-0.255-0.005-0.56-0.03-0.782,0.115l-0.005,0.004l-0.005,0.004l-0.005,0.004l-0.005,0.004l-0.005,0.004l-0.005,0.004
			l-0.005,0.005l-0.01,0.01l-0.009,0.01l-0.009,0.01l-0.009,0.011l-0.008,0.011l-0.008,0.011l-0.007,0.012l-0.007,0.012
			l-0.006,0.013l-0.006,0.013l-0.006,0.013l-0.005,0.014l-0.005,0.014l-0.004,0.014l-0.004,0.015l-0.004,0.015l-0.003,0.015
			l-0.003,0.016l-0.002,0.016l-0.002,0.016l-0.002,0.017l-0.001,0.017l-0.001,0.017l0,0.018l0,0.018l0,0.018l0.001,0.019
			l0.001,0.019l0.001,0.019c0.101,0.797,0.76,1.827,1.161,2.535c1.535,2.554,3.66,5.63,4.621,8.44
			c0.819,2.2,1.151,4.722,2.151,6.855c1.048,2.23,3.012,3.857,4.879,5.392c2.813,2.253,6.089,4.625,8.387,7.397
			c3.239,3.81,5.382,8.437,6.946,13.155c0.65,1.978,1.257,4.062,1.688,6.099c0.24,1.177,0.457,2.395,0.462,3.599
			c-0.01,0.534-0.036,1.101-0.299,1.578l-0.011,0.019l-0.012,0.018l-0.012,0.018l-0.012,0.018l-0.012,0.017l-0.012,0.017
			l-0.013,0.017l-0.013,0.016l-0.013,0.016l-0.013,0.015l-0.014,0.015l-0.014,0.015l-0.014,0.014l-0.014,0.014l-0.014,0.013
			l-0.015,0.013l-0.015,0.012l-0.015,0.012l-0.016,0.012l-0.016,0.011l-0.016,0.011l-0.016,0.01l-0.016,0.01l-0.017,0.009
			l-0.017,0.009l-0.017,0.009l-0.017,0.008l-0.018,0.008l-0.018,0.007l-0.018,0.007l-0.018,0.006l-0.019,0.006l-0.019,0.006
			l-0.019,0.005l-0.019,0.005c-0.151,0.034-0.31,0.025-0.462,0.002c-0.705-0.123-1.481-0.551-2.148-0.801
			c-0.369-0.133-0.807-0.305-1.201-0.2l-0.011,0.003l-0.011,0.004l-0.011,0.004l-0.011,0.004l-0.01,0.004l-0.01,0.004l-0.01,0.005
			l-0.01,0.005l-0.01,0.005l-0.01,0.005l-0.01,0.005l-0.01,0.006l-0.01,0.006l-0.022,0.014l-0.021,0.015l-0.02,0.016l-0.02,0.017
			l-0.019,0.018l-0.019,0.019l-0.018,0.02l-0.017,0.021l-0.017,0.022l-0.016,0.023l-0.016,0.024l-0.015,0.025l-0.015,0.026
			l-0.014,0.027l-0.013,0.028l-0.013,0.029l-0.012,0.03l-0.012,0.031l-0.011,0.032l-0.011,0.033l-0.01,0.034l-0.01,0.035
			l-0.009,0.035l-0.009,0.036l-0.008,0.037c-0.072,0.358-0.068,0.732-0.051,1.095c0.069,1.159,0.315,2.365,0.548,3.503
			c0.931,4.374,2.318,9.315,2.759,13.756c0.169,1.733,0.188,3.512-0.192,5.22c-0.256,1.109-0.657,2.242-1.451,3.083
			c-0.33,0.341-0.748,0.621-1.223,0.697c-0.347,0.059-0.704-0.009-1.023-0.15c-0.792-0.342-1.419-1.003-2.162-1.427
			c-0.145-0.076-0.302-0.145-0.468-0.145l-0.009,0l-0.009,0l-0.009,0.001l-0.009,0.001l-0.009,0.001l-0.009,0.001l-0.009,0.001
			l-0.009,0.001l-0.008,0.001l-0.008,0.002l-0.008,0.002l-0.008,0.002l-0.008,0.002l-0.008,0.002l-0.008,0.003l-0.016,0.005
			l-0.016,0.006l-0.015,0.007l-0.015,0.007l-0.015,0.008l-0.015,0.009l-0.015,0.009l-0.014,0.01l-0.014,0.011l-0.014,0.011
			l-0.014,0.012l-0.014,0.012l-0.014,0.013l-0.013,0.014l-0.013,0.014l-0.013,0.015l-0.013,0.016l-0.013,0.016l-0.013,0.017
			l-0.012,0.017l-0.012,0.018l-0.012,0.018l-0.012,0.019l-0.012,0.02l-0.011,0.02c-0.161,0.299-0.234,0.641-0.297,0.972
			c-0.335,2.189-0.287,5.725-0.425,7.954c-0.147,2.779-0.432,5.613-1.432,8.23c-0.45,1.161-1.029,2.309-1.899,3.213
			c-0.557,0.574-1.284,1.046-2.1,1.094c-1.04,0.055-2.092-0.524-3.028-0.913c-0.672-0.275-1.416-0.577-2.15-0.392
			c-0.458,0.122-0.838,0.435-1.149,0.783c-0.857,1-1.365,2.256-1.857,3.463c-1.188,3.066-2.209,6.674-3.7,9.607
			c-0.466,0.914-0.988,1.822-1.654,2.607c-0.505,0.586-1.119,1.139-1.886,1.333c-0.686,0.174-1.406-0.033-2.011-0.367
			c-1.565-0.9-2.705-2.381-3.714-3.846c0.866,3.243,1.292,6.711,1.621,10.051c0.188,2.348,1.146,10.139,1.104,12.362
			c-0.026,0.699-0.061,1.632-0.521,2.191l-0.013,0.014l-0.013,0.014l-0.013,0.014l-0.013,0.013l-0.013,0.013l-0.014,0.013
			l-0.014,0.012l-0.014,0.012l-0.014,0.012l-0.014,0.011l-0.014,0.011l-0.015,0.011l-0.015,0.01l-0.015,0.01l-0.015,0.01
			l-0.015,0.009l-0.016,0.009l-0.016,0.009l-0.016,0.008l-0.016,0.008l-0.016,0.008l-0.017,0.007l-0.017,0.007l-0.017,0.007
			l-0.017,0.006l-0.017,0.006l-0.018,0.006l-0.018,0.005l-0.018,0.005l-0.018,0.005l-0.018,0.004
			c-0.179,0.04-0.366,0.029-0.546,0.001c-0.82-0.152-1.679-0.62-2.446-0.942c-0.559-0.227-1.333-0.58-1.938-0.414l-0.02,0.006
			l-0.02,0.007l-0.019,0.007l-0.019,0.008l-0.019,0.008l-0.019,0.008l-0.018,0.009l-0.018,0.009l-0.018,0.01l-0.018,0.01
			l-0.017,0.011l-0.017,0.011l-0.017,0.011l-0.017,0.012l-0.016,0.012l-0.016,0.013l-0.016,0.013l-0.016,0.013l-0.016,0.014
			l-0.015,0.014l-0.015,0.015l-0.015,0.015l-0.015,0.015l-0.014,0.016l-0.014,0.016l-0.014,0.017l-0.014,0.017l-0.014,0.017
			l-0.013,0.018l-0.013,0.018c-0.257,0.374-0.339,0.836-0.39,1.279c-0.184,2.503,0.518,5.393,1.049,7.846l1.435,5.85
			c0.648,2.752,1.105,5.603,0.903,8.437c-0.198,2.931-1.016,5.809-2.156,8.508c-0.654,1.496-1.404,2.989-2.466,4.24
			c-0.418,0.469-0.896,0.94-1.51,1.131l-0.027,0.008l-0.027,0.007l-0.027,0.006l-0.027,0.006l-0.027,0.005l-0.026,0.005
			l-0.026,0.004l-0.026,0.004l-0.026,0.003l-0.026,0.003l-0.026,0.002c-0.651,0.038-1.189-0.421-1.727-0.719
			c-0.228-0.124-0.507-0.253-0.764-0.143l-0.02,0.009l-0.02,0.01l-0.019,0.011l-0.019,0.012l-0.019,0.013l-0.019,0.013l-0.019,0.014
			l-0.019,0.015l-0.019,0.016l-0.019,0.017l-0.019,0.018l-0.018,0.019l-0.018,0.02l-0.018,0.02l-0.018,0.021l-0.018,0.022
			l-0.018,0.023l-0.018,0.024l-0.018,0.025c-0.33,0.493-0.491,1.087-0.65,1.653c-1.117,4.693-1.446,10.31-2.768,14.95
			c-0.426,1.517-1.043,2.991-1.802,4.371c-0.908,1.677-2.137,3.424-2.751,5.232c-0.822,2.356-0.781,4.915-0.648,7.376
			c0.389,6.358,2.331,14.617,3.187,20.954c0.125,1.06,0.232,2.153,0.185,3.222c-0.052,0.889-0.186,2.07-1.027,2.568
			c-0.447,0.255-0.986,0.232-1.48,0.168c-1.409-0.206-2.931-0.836-4.342-1.034c-0.502-0.069-1.026-0.096-1.519,0.043
			c-0.504,0.138-0.919,0.497-1.208,0.924c-0.807,1.244-1.019,2.808-1.289,4.241c-0.408,2.465-0.778,5.191-1.821,7.477
			c-0.367,0.812-0.807,1.611-1.41,2.273c-0.489,0.535-1.152,1.004-1.906,0.973c-0.304-0.011-0.6-0.105-0.876-0.228
			c-1.044-0.481-1.995-1.344-3.06-1.785c-0.424-0.179-0.883-0.296-1.346-0.28c-0.43,0.011-0.851,0.147-1.225,0.355
			c-0.621,0.345-1.151,0.837-1.639,1.348c-1.01,1.074-1.885,2.32-2.715,3.536c-1.304,1.913-3.208,5.12-4.734,6.814
			c-0.304,0.325-0.629,0.645-1.017,0.869l-0.033,0.018l-0.032,0.017l-0.032,0.016l-0.032,0.015l-0.032,0.014l-0.032,0.014
			l-0.032,0.013l-0.031,0.012l-0.031,0.011l-0.031,0.01l-0.031,0.009l-0.031,0.008l-0.03,0.007
			c-0.527,0.122-1.002-0.231-1.371-0.566l-0.483-0.449c-0.254-0.224-0.535-0.471-0.885-0.506l-0.024-0.002l-0.024-0.001l-0.024,0
			l-0.024,0.001l-0.024,0.001l-0.024,0.002l-0.024,0.003l-0.025,0.004l-0.025,0.004l-0.025,0.005l-0.025,0.006l-0.025,0.007
			l-0.025,0.007l-0.025,0.008l-0.025,0.009l-0.025,0.01l-0.025,0.01l-0.025,0.011l-0.025,0.012l-0.025,0.012l-0.025,0.013
			l-0.026,0.014l-0.026,0.015l-0.026,0.015l-0.026,0.016c-0.433,0.283-0.757,0.704-1.055,1.119
			c-1.97,2.978-3.577,7.526-5.019,10.819c-1.428,3.298-2.842,6.85-4.979,9.756c-0.508,0.658-1.075,1.298-1.784,1.744
			c-0.442,0.276-0.961,0.459-1.487,0.419c-0.956-0.078-1.829-0.747-2.638-1.209c-0.622-0.357-1.341-0.756-2.079-0.565
			c-0.411,0.105-0.769,0.356-1.079,0.639c-1.035,0.993-1.719,2.3-2.404,3.544c-1.477,2.827-3.251,6.583-5.073,9.164
			c-0.417,0.585-0.866,1.166-1.388,1.662c-0.37,0.34-0.791,0.682-1.301,0.764l-0.021,0.003l-0.021,0.002l-0.021,0.002l-0.021,0.002
			l-0.02,0.001l-0.02,0.001l-0.02,0h-0.02l-0.02,0l-0.02-0.001l-0.02-0.001l-0.02-0.002l-0.02-0.002
			c-0.541-0.069-0.954-0.531-1.348-0.867c-0.186-0.153-0.396-0.348-0.65-0.352l-0.012,0l-0.012,0.001l-0.012,0.001l-0.011,0.001
			l-0.011,0.002l-0.011,0.002l-0.011,0.003l-0.011,0.003l-0.011,0.003l-0.011,0.003l-0.011,0.004l-0.011,0.004l-0.011,0.005
			l-0.011,0.005l-0.011,0.005l-0.011,0.005l-0.011,0.006l-0.011,0.006l-0.011,0.006l-0.011,0.007l-0.011,0.007l-0.011,0.007
			l-0.011,0.008l-0.011,0.008l-0.011,0.008l-0.011,0.009l-0.011,0.009c-0.147,0.125-0.254,0.292-0.349,0.459
			c-0.384,0.715-0.61,1.54-0.844,2.315c-0.951,3.743-2.102,7.045-3.487,10.625c-0.666,1.868-1.274,3.808-1.409,5.797
			c-0.161,2.24,0.351,4.776,0.674,6.995c0.145,1.046,0.264,2.132,0.236,3.188c-0.025,1.052-0.193,2.124-0.397,3.156l-0.574,2.722
			c-1.014,4.463-0.05,8.905,1.479,13.131c0.535,2.959,0.652,6.015,0.251,8.997c-0.153,1.176-0.46,3.053-0.466,4.206
			c-0.019,1.09,0.097,2.192,0.336,3.256c0.229,1.006,0.57,2.001,1.037,2.922c0.301,0.591,0.667,1.16,1.15,1.619
			c0.391,0.375,0.853,0.674,1.33,0.927c2.747,1.373,6.02,2.31,8.946,3.256c1.72,0.581,3.514,1.293,4.729,2.7
			c1.378,1.604,1.8,3.774,2.016,5.821c0.287,3.157,0.119,6.391-0.646,9.473c-0.445,1.71-1.138,3.403-2.308,4.749
			c-0.78,0.904-1.787,1.608-2.901,2.037c-1.37,0.533-2.854,0.736-4.311,0.856c-3.016,0.272-20.961,0.098-24.341,0.145
			c-0.885-0.017-1.923-0.015-2.805-0.105c-4.45-0.309-8.303-2.88-11.697-5.584c-2.274-2.173-4.793-4.543-5.355-7.782
			c-0.357-1.945-0.175-4.168-0.522-6.114c-0.199-1.148-0.648-2.307-1.539-3.095c-1.001-0.88-2.289-1.353-3.523-1.809
			c-1.756-0.655-3.89-1.196-5.34-2.429c-0.368-0.323-0.684-0.715-0.88-1.166c-0.193-0.436-0.263-0.918-0.262-1.392
			c0.003-0.83,0.192-1.655,0.422-2.449c0.455-1.628,1.514-3.941,2.141-5.528c0.329-0.842,0.662-1.713,0.844-2.601
			c0.081-0.418,0.135-0.852,0.064-1.275l-0.006-0.034l-0.007-0.033l-0.007-0.033l-0.008-0.032l-0.008-0.032l-0.009-0.031
			l-0.009-0.031l-0.01-0.031l-0.011-0.03l-0.011-0.03l-0.012-0.029L419.514,580l-0.013-0.028l-0.014-0.028
			c-0.266-0.526-0.85-0.775-1.388-0.93c-1.061-0.306-2.306-0.324-3.348-0.7c-0.26-0.1-0.517-0.232-0.712-0.436l-0.017-0.018
			l-0.017-0.019l-0.016-0.019l-0.016-0.019l-0.016-0.02l-0.015-0.02l-0.015-0.02l-0.014-0.021l-0.014-0.021l-0.013-0.021
			l-0.013-0.021l-0.013-0.022l-0.012-0.022l-0.012-0.022l-0.011-0.023l-0.011-0.023l-0.011-0.023l-0.01-0.023l-0.01-0.024
			l-0.009-0.024l-0.009-0.024c-0.145-0.409-0.119-0.856-0.051-1.278c0.098-0.582,0.29-1.156,0.499-1.707
			c0.668-1.705,1.776-3.845,2.542-5.522c1.082-2.426,2.144-5.172,1.505-7.855c-0.34-1.417-1.28-2.608-2.447-3.451
			c-2.842-2.065-6.502-3.049-9.493-4.857c-0.604-0.376-1.192-0.806-1.652-1.355c-0.67-0.774-0.982-1.797-0.973-2.812
			c0.03-2.358,1.126-4.93,1.693-7.198c0.249-0.968,0.484-1.971,0.487-2.975c-0.003-0.448-0.057-0.909-0.25-1.318
			c-0.298-0.66-1.004-0.986-1.661-1.188c-0.817-0.258-1.792-0.391-2.577-0.745c-0.265-0.124-0.521-0.286-0.704-0.517l-0.017-0.022
			l-0.016-0.022l-0.016-0.022l-0.016-0.023l-0.015-0.023l-0.015-0.023l-0.014-0.024l-0.014-0.024l-0.013-0.024l-0.013-0.025
			l-0.012-0.025l-0.012-0.025l-0.012-0.026l-0.011-0.026l-0.011-0.026l-0.01-0.027c-0.195-0.535-0.137-1.124-0.042-1.674
			c0.133-0.724,0.374-1.454,0.621-2.148c1.004-2.725,2.409-5.765,3.245-8.543c0.614-2.004,1.041-4.079,1.246-6.165
			c0.152-1.637,0.188-3.311-0.09-4.937c-0.135-0.745-0.336-1.494-0.717-2.154c-0.244-0.42-0.58-0.806-1.023-1.021
			c-0.582-0.28-1.253-0.256-1.882-0.21c-1.039,0.06-2.446,0.405-3.182-0.552c-0.332-0.439-0.483-0.986-0.586-1.519
			c-0.413-2.614,0.024-5.449,0.385-8.055c-3.975-0.05-7.974-0.763-11.711-2.121c-2.058-0.761-4.022-1.827-5.885-2.98
			c-1.784-1.114-4.748-3.137-6.602-4.039c-0.515-0.251-1.051-0.486-1.604-0.634c-0.404-0.103-0.84-0.177-1.248-0.058l-0.02,0.006
			l-0.02,0.007l-0.02,0.007l-0.02,0.007l-0.019,0.008l-0.019,0.008c-0.632,0.285-0.861,1.058-1.146,1.634
			c-0.197,0.418-0.458,0.88-0.937,1.005c-0.294,0.084-0.608,0.062-0.906,0.008c-0.975-0.198-1.893-0.677-2.779-1.114l-5.102-2.659
			c-4.449-2.285-12.203-5.828-16.26-8.547c-1.154-0.746-2.403-1.821-3.658-2.371c-0.488-0.211-1.013-0.34-1.545-0.358
			c-0.79-0.027-1.585,0.126-2.355,0.288c-1.543,0.329-3.311,0.812-4.879,0.845c-2.519,0.08-4.976-0.739-7.241-1.778
			c-4.505-2.028-8.796-5.562-13.115-7.931c-0.934-0.487-1.912-0.942-2.948-1.157c-0.592-0.119-1.22-0.15-1.802,0.037
			c-0.643,0.205-1.183,0.638-1.675,1.087c-0.916,0.854-1.842,1.879-3.046,2.317c-0.724,0.271-1.513,0.323-2.278,0.28
			c-1.212-0.074-2.408-0.377-3.559-0.752c-3.296-1.115-6.389-2.83-9.27-4.765c-1.564-1.065-3.08-2.254-4.421-3.591
			C280.954,458.592,279.73,457.01,278.603,455.407z"/>
	</g>
</g>
</svg>
