<?xml version="1.0" encoding="utf-8"?>
<!-- Generator: Adobe Illustrator 25.4.1, SVG Export Plug-In . SVG Version: 6.00 Build 0)  -->
<!DOCTYPE svg PUBLIC "-//W3C//DTD SVG 1.1//EN" "http://www.w3.org/Graphics/SVG/1.1/DTD/svg11.dtd" [
	<!ENTITY ns_extend "http://ns.adobe.com/Extensibility/1.0/">
	<!ENTITY ns_ai "http://ns.adobe.com/AdobeIllustrator/10.0/">
	<!ENTITY ns_graphs "http://ns.adobe.com/Graphs/1.0/">
	<!ENTITY ns_vars "http://ns.adobe.com/Variables/1.0/">
	<!ENTITY ns_imrep "http://ns.adobe.com/ImageReplacement/1.0/">
	<!ENTITY ns_sfw "http://ns.adobe.com/SaveForWeb/1.0/">
	<!ENTITY ns_custom "http://ns.adobe.com/GenericCustomNamespace/1.0/">
	<!ENTITY ns_adobe_xpath "http://ns.adobe.com/XPath/1.0/">
]>
<svg version="1.1" xmlns:x="&ns_extend;" xmlns:i="&ns_ai;" xmlns:graph="&ns_graphs;"
	 xmlns="http://www.w3.org/2000/svg" xmlns:xlink="http://www.w3.org/1999/xlink" x="0px" y="0px" width="750px" height="750px"
	 viewBox="0 0 750 750" enable-background="new 0 0 750 750" xml:space="preserve">
<metadata>
	<sfw  xmlns="&ns_sfw;">
		<slices></slices>
		<sliceSourceBounds  bottomLeftOrigin="true" height="10279.858" width="5639" x="-2000" y="-1364"></sliceSourceBounds>
	</sfw>
</metadata>
<g id="FILL-BACKGROUND">
	<rect fill="#FFFFFF" width="750" height="750"/>
</g>
<g id="N-DIMENSIONS">
</g>
<g id="N-TEXT">
</g>
<g id="_x32_D_x24_AG-DIAGRAM">
	<g id="POLYLINE_00000131343034474454879850000010562041380612744862_">
		<g>
			<g>
				
					<line fill="none" stroke="#FB8604" stroke-width="3.25" stroke-linecap="round" stroke-linejoin="round" x1="127.585" y1="622.758" x2="129.585" y2="622.758"/>
				
					<line fill="none" stroke="#FB8604" stroke-width="3.25" stroke-linecap="round" stroke-linejoin="round" stroke-dasharray="4.0014,7.0024" x1="136.587" y1="622.758" x2="529.221" y2="622.758"/>
				
					<line fill="none" stroke="#FB8604" stroke-width="3.25" stroke-linecap="round" stroke-linejoin="round" x1="532.722" y1="622.758" x2="534.722" y2="622.758"/>
			</g>
		</g>
	</g>
</g>
<g id="_x32_D_x24_AG-DETAILS-DIAGRAM">
</g>
<g id="_x32_D_x24_AG-DETAILS">
	<g id="POLYLINE_00000099637001384861036060000000169663251132575881_">
		<path fill="none" stroke="#FB8604" stroke-width="2" stroke-linecap="round" stroke-linejoin="round" stroke-miterlimit="10" d="
			M279.396,393.089c3.728,0.36,7.792,0.708,11.386,1.747c2.561,0.723,5.038,1.821,7.229,3.339
			c3.733,2.556,7.845,7.199,11.072,10.401c2.972,2.944,6.17,5.794,9.914,7.716c2.974,1.525,6.249,2.416,9.528,2.999
			c5.704,1.02,12.294,1.176,18.047,1.889c2.645,0.325,5.315,0.846,7.867,1.618c4.359,1.253,10.681,4.164,14.905,5.93
			c7.891,3.355,16.338,5.406,24.779,6.802c10.906,1.789,22.222,2.656,33.274,2.607"/>
	</g>
	<g id="POLYLINE_00000144329660969694581770000007043198954261842567_">
		<path fill="none" stroke="#FB8604" stroke-width="2" stroke-linecap="round" stroke-linejoin="round" stroke-miterlimit="10" d="
			M435.38,473.612c0.152-2.458,0.488-4.952,1.365-7.266c0.552-1.439,1.348-2.825,2.513-3.856c1.024-0.911,2.312-1.475,3.628-1.816
			c2.071-0.53,4.246-0.593,6.374-0.547c4.442,0.103,9.916,0.969,14.356,0.936c2.938-0.036,6.113-0.428,8.451-2.366
			c2.063-1.731,3.178-4.312,3.894-6.851c1.499-5.605,1.416-11.526,1.138-17.279c-0.341-7.267-1.652-16.835-0.247-23.966
			c0.78-4.18,3.063-8.919,4.713-12.843c1.33-3.071,2.533-7.307,3.511-10.538c0.68-2.115,1.399-4.296,2.552-6.205
			c0.583-0.949,1.306-1.852,2.262-2.445c1.422-0.884,3.191-0.875,4.792-0.603c3.088,0.524,7.108,2.327,10.067,3.4
			c5.036,1.821,10.317,3.282,15.698,3.442c1.603,0.037,3.244-0.032,4.788-0.496c0.907-0.276,1.784-0.712,2.468-1.377
			c1.03-0.977,1.437-2.367,1.584-3.742c0.231-2.226-0.04-4.536-0.296-6.752c-0.289-2.308-0.783-5.678-0.895-7.969
			c-0.083-1.517-0.032-3.062,0.289-4.551c0.477-2.335,1.637-4.756,2.255-7.052c0.573-2.034,0.79-4.165,0.749-6.275
			c-0.058-5.36-1.253-11.182-1.324-16.541c0.019-0.791,0.043-1.616,0.325-2.364l0.016-0.038l0.016-0.038l0.017-0.037l0.017-0.036
			l0.018-0.035l0.018-0.034l0.018-0.033l0.019-0.032l0.019-0.031l0.02-0.03l0.02-0.029l0.021-0.028l0.021-0.027l0.022-0.026
			l0.022-0.025l0.023-0.024l0.023-0.023l0.024-0.022l0.024-0.021l0.024-0.02l0.025-0.019l0.025-0.018l0.026-0.017l0.026-0.016
			l0.027-0.015l0.027-0.014l0.024-0.011l0.024-0.01l0.025-0.009l0.025-0.008l0.025-0.008l0.026-0.007l0.026-0.006l0.026-0.005
			l0.027-0.005l0.027-0.004l0.027-0.003l0.028-0.003l0.028-0.002l0.029-0.001l0.029,0l0.029,0l0.03,0.001l0.03,0.002l0.03,0.002
			l0.031,0.003l0.031,0.004l0.031,0.004l0.032,0.005l0.032,0.006c0.555,0.116,1.053,0.418,1.527,0.717
			c3.266,2.239,6.154,5.351,9.72,7.143c1.061,0.532,2.219,0.905,3.411,0.956c1.279,0.063,2.573-0.243,3.691-0.87
			c1.606-0.894,2.852-2.405,3.44-4.144c0.886-2.612,0.478-5.638,0.953-8.323c0.209-1.277,0.68-2.426,1.379-3.512
			c1.353-2.168,3.43-4.188,3.902-6.79c0.284-1.549-0.107-3.131-0.634-4.586c-0.578-1.575-1.381-3.114-2.192-4.582
			c-1.923-3.425-4.488-7.376-6.108-10.945c-0.598-1.314-1.092-2.699-1.465-4.093c-0.576-2.096-0.995-4.91-1.371-7.056
			c-0.397-2.16-0.963-4.364-2.246-6.182c-1.539-2.204-3.89-4.05-5.842-5.881c-0.828-0.786-1.649-1.612-2.308-2.546
			c-1.1-1.533-1.58-3.404-1.866-5.243c-0.144-0.861-0.342-2.381-0.538-3.198c-0.199-0.892-0.482-1.801-0.788-2.662
			c-0.83-2.284-2.062-5.207-2.801-7.509c-1.053-3.183-1.973-6.507-2.574-9.805c-0.439-2.494-0.757-5.062-0.547-7.595
			c0.152-1.753,0.603-3.527,1.603-4.996c0.455-0.673,1.021-1.272,1.664-1.769c0.738-0.575,1.582-1.012,2.439-1.382
			c2.918-1.225,6.276-1.985,9.026-3.584c3.841-2.113,5.991-6.305,8.184-9.923c0.838-1.367,1.726-2.808,2.833-3.978
			c0.507-0.539,1.091-1.013,1.719-1.405c0.927-0.59,2.035-1.037,3.027-1.499c0.897-0.419,1.789-0.913,2.471-1.644
			c0.54-0.577,0.946-1.27,1.31-1.967c0.875-1.695,1.625-3.713,2.863-5.184c0.533-0.642,1.181-1.197,1.921-1.588
			c1.238-0.658,2.645-0.937,4.033-1.038c1.873-0.127,3.768,0.067,5.604,0.44c1.906,0.395,3.787,0.99,5.549,1.819"/>
	</g>
	<g id="POLYLINE_00000116939779975717365960000011884037279443550639_">
		<path fill="none" stroke="#FB8604" stroke-width="2" stroke-linecap="round" stroke-linejoin="round" stroke-miterlimit="10" d="
			M162.152,495.623c2.036-1.71,4.298-3.194,6.688-4.361c1.798-0.868,3.702-1.579,5.677-1.909c2.483-0.442,5.153,0.037,7.631,0.347
			c1.899,0.233,3.845,0.32,5.75,0.111c3.932-0.433,7.768-1.656,11.33-3.358c3.097-1.507,6.052-3.437,8.399-5.978
			c1.382-1.497,2.481-3.25,3.442-5.039l1.785-3.433c0.538-0.988,1.111-1.995,1.88-2.823c0.482-0.517,1.068-0.956,1.744-1.179
			c1.342-0.446,2.99-0.211,4.381-0.165c1.125,0.037,2.337,0.017,3.324-0.593c0.608-0.378,1.064-0.956,1.429-1.563
			c0.71-1.201,1.153-2.563,1.575-3.887c1.042-3.393,1.951-7.131,3.764-10.201c2.739-4.731,8.146-7.122,12.726-9.697
			c1.63-0.941,3.289-1.945,4.568-3.347c0.757-0.836,1.333-1.828,1.75-2.873c0.874-2.184,1.232-4.901,1.799-7.183
			c0.456-1.925,1.16-3.8,2.058-5.561c1.86-3.715,4.829-7.927,6.836-11.566c0.936-1.699,1.797-3.482,2.35-5.346
			c1.243-4.029,1.063-8.635,1.316-12.809c0.454-7.259,2.453-15.405,3.962-22.538"/>
	</g>
</g>
<g id="_x32_D_x24_AG-ANIMALS">
	<g id="POLYLINE_00000134934119815801797220000006798412550191274654_">
		
			<path fill="none" stroke="#FB8604" stroke-width="2.75" stroke-linecap="round" stroke-linejoin="round" stroke-miterlimit="10" d="
			M535.712,162.584c1.802-1.235,3.608-2.586,5.056-4.229c1.264-1.412,2.36-2.999,3.368-4.601c1.593-2.556,3.031-5.308,4.254-8.06
			c0.941-2.076,1.891-4.874,3.236-6.706c0.604-0.821,1.421-1.519,2.411-1.81c0.814-0.25,1.745-0.222,2.487,0.224
			c1.024,0.618,1.441,1.841,1.726,2.941c0.735,3.13,0.681,7.319,0.964,10.527c0.287,3.952,1.151,10.041,1.579,14.007
			c0.281,2.525,0.418,6.031,0.538,8.587"/>
	</g>
	<g id="POLYLINE_00000033334726189940538770000009932580406893438081_">
		
			<path fill="none" stroke="#FB8604" stroke-width="2.75" stroke-linecap="round" stroke-linejoin="round" stroke-miterlimit="10" d="
			M627.594,218.845c-7.938-2.38-18.239-4.024-26.034-6.824c-2.881-1.022-5.75-2.238-8.328-3.896
			c-1.543-0.994-2.988-2.181-4.169-3.591c-1.507-1.776-2.63-3.869-3.62-5.966c-1.319-2.871-2.767-6.248-4.49-8.87
			c-1.985-3.099-4.382-5.966-7.123-8.425c-2.076-1.873-4.436-3.45-6.872-4.815c-2.57-1.401-9.805-5.288-12.396-6.568
			c-2.363-1.15-4.847-2.147-7.421-2.704c-3.448-0.764-7.031-0.892-10.549-0.734"/>
	</g>
	<g id="POLYLINE_00000009567164524288146230000006884335281603838095_">
		
			<path fill="none" stroke="#FB8604" stroke-width="2.75" stroke-linecap="round" stroke-linejoin="round" stroke-miterlimit="10" d="
			M535.126,258.061c0.876,0.99,1.834,1.947,2.977,2.627c0.693,0.406,1.484,0.707,2.298,0.663c1.369-0.087,2.638-1.163,3.764-1.866
			c0.792-0.5,1.66-1.004,2.623-1.019c0.59-0.007,1.159,0.201,1.676,0.47c1.594,0.855,3.041,2.348,4.551,3.334
			c0.607,0.397,1.261,0.754,1.974,0.909c1.096,0.239,2.221-0.068,3.236-0.483c1.973-0.818,3.889-2.097,6.081-2.204
			c1.292-0.093,2.614,0.083,3.891,0.278c2.097,0.343,4.495,0.757,6.614,0.818c6.898,0.219,16.966-2.04,23.829-3.082
			c3.849-0.659,8.747-0.867,12.64-1.305c1.493-0.19,3.001-0.47,4.432-0.938c3.023-0.973,5.653-2.882,7.993-4.987
			c2.262-2.051,4.331-4.39,6.228-6.781c1.905-2.404,3.577-5.054,4.537-7.983"/>
	</g>
	<g id="POLYLINE_00000078006514587309400010000013915468292567740810_">
		
			<path fill="none" stroke="#FB8604" stroke-width="2.75" stroke-linecap="round" stroke-linejoin="round" stroke-miterlimit="10" d="
			M634.471,236.512c-0.6,0.339-1.303,0.458-1.986,0.441c-1.049-0.029-2.076-0.346-3.019-0.795c-1.36-0.658-2.594-1.61-3.519-2.808
			c-0.726-0.944-1.232-2.048-1.536-3.196c-0.59-2.25-0.476-4.637-0.014-6.9c0.283-1.298,0.686-2.671,1.67-3.617
			c0.354-0.334,0.786-0.586,1.254-0.723c0.561-0.166,1.158-0.177,1.737-0.122c1.343,0.138,2.639,0.598,3.853,1.174
			c1.102,0.535,2.164,1.186,3.079,2.004c0.589,0.528,1.111,1.156,1.404,1.898c0.264,0.654,0.34,1.368,0.337,2.069
			c-0.031,1.415-0.208,2.915-0.396,4.317c-0.234,1.524-0.547,3.078-1.256,4.459C635.704,235.43,635.187,236.109,634.471,236.512z"/>
	</g>
	<g id="POLYLINE_00000103974853680249921120000013789964643448976773_">
		
			<path fill="none" stroke="#FB8604" stroke-width="2.75" stroke-linecap="round" stroke-linejoin="round" stroke-miterlimit="10" d="
			M156.674,338.469c-2.562,2.536-5.218,5.259-7.508,8.035c-2.443,2.936-4.782,6.223-6.898,9.407
			c-3.736,5.687-7.281,11.702-10.128,17.884c-1.273,2.814-2.467,5.748-3.194,8.754c-0.411,1.764-0.677,3.598-0.547,5.412
			c0.049,0.569,0.131,1.15,0.348,1.682c0.099,0.231,0.225,0.465,0.434,0.614l0.01,0.007l0.01,0.007l0.01,0.006l0.01,0.006
			l0.01,0.006l0.01,0.006l0.01,0.005c0.186,0.098,0.409,0.07,0.61,0.1c0.081,0.013,0.164,0.044,0.217,0.11l0.009,0.011l0.008,0.012
			l0.008,0.012l0.008,0.013l0.007,0.013l0.007,0.014l0.007,0.015l0.007,0.015l0.006,0.016l0.006,0.017l0.006,0.017l0.005,0.018
			l0.005,0.018l0.005,0.019l0.004,0.02l0.004,0.02l0.004,0.021l0.003,0.021c0.031,0.225,0.012,0.458-0.013,0.683
			c-0.068,0.564-0.207,1.137-0.352,1.685c-1.626,5.611-4.138,11.11-6.635,16.386c-1.612,3.415-4.036,8-5.237,11.54
			c-0.254,0.775-0.482,1.58-0.574,2.392c-0.059,0.558-0.058,1.144,0.155,1.671c0.226,0.594,0.734,1.069,1.158,1.525
			c0.212,0.231,0.417,0.475,0.558,0.756c0.134,0.266,0.209,0.56,0.244,0.855c0.07,0.614-0.005,1.241-0.102,1.848
			c-0.099,0.686-0.793,3.668-0.951,4.405c-0.395,1.557-3.806,21.281-4.195,23.398c-0.451,2.61-0.925,5.576-1.153,8.209
			c-0.208,2.32-0.282,4.71-0.16,7.037c0.146,2.836,0.587,5.753,1.092,8.547c0.741,3.803,2.224,10.787,2.787,14.523
			c0.313,2.033,0.747,5.993,1.108,7.998c0.158,0.852,0.336,1.726,0.648,2.536c0.192,0.477,0.431,0.976,0.861,1.282l0.019,0.013
			c0.448,0.302,1.053,0.246,1.568,0.252c0.322,0.004,0.66,0.031,0.946,0.192c0.41,0.237,0.662,0.663,0.868,1.076
			c0.304,0.628,0.527,1.34,0.738,2.005c0.541,1.778,1.13,3.727,1.905,5.411c0.634,1.406,1.383,2.802,2.221,4.098
			c0.549,0.838,1.149,1.672,1.843,2.396c0.435,0.439,0.977,0.953,1.591,1.096l0.021,0.004l0.02,0.004l0.02,0.003l0.02,0.003
			l0.02,0.002l0.02,0.002l0.02,0.002l0.02,0.001c0.166,0.009,0.333-0.032,0.48-0.108c0.525-0.288,0.886-0.904,1.262-1.353
			c0.218-0.272,0.455-0.537,0.726-0.756c0.378-0.309,0.814-0.551,1.248-0.773c1.113-0.544,2.353-1.13,3.28-1.961
			c1.572-1.407,2.694-3.267,3.787-5.051c1.159-1.943,3.019-5.367,4.344-7.146c0.684-0.929,1.483-1.791,2.332-2.571l1.981-1.769
			c1.273-1.148,2.382-2.505,3.413-3.87c1.429-1.905,3.485-4.886,4.939-6.758c1.488-1.956,4.254-5.169,5.867-7.073"/>
	</g>
	<g id="POLYLINE_00000101083613787924465950000016420487425094824586_">
		
			<path fill="none" stroke="#FB8604" stroke-width="2.75" stroke-linecap="round" stroke-linejoin="round" stroke-miterlimit="10" d="
			M273.642,426.616c2.695-0.242,5.687-0.609,8.367-0.181c2.171,0.304,4.237,1.132,6.201,2.081l4.619,2.296
			c1.206,0.571,2.451,1.138,3.746,1.472c0.628,0.156,1.285,0.261,1.933,0.193c0.842-0.084,1.591-0.533,2.245-1.045
			c0.557-0.418,1.168-1.023,1.846-1.224c0.35-0.101,0.725-0.064,1.07,0.041c0.552,0.169,1.059,0.472,1.549,0.771
			c1.095,0.699,2.41,1.569,3.566,2.139c2.37,1.216,6.852,2.922,9.357,3.963c2.585,1.089,5.197,2.29,7.536,3.843
			c1.582,1.031,3.365,2.447,4.948,3.479c0.461,0.294,0.941,0.577,1.443,0.794c0.46,0.198,0.957,0.35,1.462,0.337
			c0.409-0.01,0.805-0.148,1.165-0.335c1.003-0.529,1.913-1.399,3.047-1.649c0.691-0.16,1.415-0.086,2.101,0.066
			c1.365,0.315,2.661,0.928,3.908,1.553c3.342,1.733,7.07,4.053,10.501,5.585c4.758,2.158,9.857,3.855,15.112,4.08
			c1.655,0.067,3.348-0.07,4.99-0.271c1.61-0.2,4.21-0.612,5.827-0.615c0.664-0.005,1.341,0.038,1.992,0.171
			c0.651,0.132,1.289,0.357,1.895,0.628c1.383,0.619,3.015,1.669,4.393,2.297c1.21,0.572,2.508,0.977,3.815,1.261
			c2.911,0.63,5.959,0.819,8.93,0.941c9.829,0.152,21.643,0.513,31.449-0.042"/>
	</g>
	<g id="POLYLINE_00000165930984774808752750000011031468186448464558_">
		
			<path fill="none" stroke="#FB8604" stroke-width="2.75" stroke-linecap="round" stroke-linejoin="round" stroke-miterlimit="10" d="
			M180.532,577.982c0.001,3.071,0.016,6.367,0.275,9.422c0.132,1.461,0.309,2.952,0.702,4.367c0.267,0.982,0.691,1.932,1.135,2.845
			c0.596,1.22,1.347,2.391,2.363,3.304c1.08,0.993,2.427,1.64,3.793,2.141c3.626,1.345,7.947,1.962,11.313,3.94
			c1.184,0.693,2.258,1.59,3.106,2.672c1.196,1.513,1.978,3.323,2.463,5.181c0.561,2.245,0.866,4.708,0.44,6.999
			c-0.198,0.983-0.575,1.992-1.356,2.659c-0.569,0.491-1.293,0.761-2.018,0.922c-1.169,0.256-2.404,0.285-3.597,0.312l-28.963,0.011
			c-0.564-0.005-1.401,0.003-1.954-0.035c-0.564-0.035-1.137-0.1-1.675-0.284c-0.491-0.165-0.943-0.45-1.287-0.838
			c-0.334-0.371-0.575-0.818-0.764-1.277c-0.849-2.176-1.27-5.823-1.732-8.132c-0.365-1.952-0.883-3.919-1.543-5.792
			c-0.679-2.027-2.195-5.446-3.043-7.448c-1.066-2.571-2.066-5.265-1.839-8.094c0.193-2.769,1.057-6.109,1.491-8.851
			c0.567-3.194,0.807-6.481,0.668-9.724c-0.269-4.798-0.743-14.503-0.949-19.316c-0.335-6.189-1.079-12.303-2.629-18.31
			c-1.122-4.807-3.166-10.515-3.606-15.428c-0.111-1.353-0.098-2.734,0.159-4.07c0.215-1.136,0.609-2.239,1.137-3.266
			c1.29-2.578,3.56-4.715,5.285-6.992c0.961-1.273,1.788-2.67,2.43-4.131c0.654-1.482,1.186-3.093,1.66-4.643
			c0.659-2.162,3.293-11.987,3.906-14.296c0.345-1.444,0.743-2.944,0.807-4.434c0.01-0.68-0.047-1.496-0.642-1.931
			c-0.395-0.279-0.9-0.315-1.369-0.323c-0.881-0.012-2.011,0.128-2.615-0.661c-0.21-0.272-0.323-0.605-0.394-0.938
			c-0.313-1.659-0.046-4.611-0.041-6.338c0.023-1.442-0.047-2.967-0.169-4.404c-0.286-2.956-1.632-17.068-1.962-19.772
			c-0.247-1.889-0.529-3.827-1.142-5.636c-0.192-0.547-0.421-1.092-0.744-1.576c-0.199-0.296-0.44-0.572-0.744-0.763
			c-0.456-0.3-1.052-0.353-1.58-0.43c-0.376-0.057-0.758-0.153-1.073-0.375c-0.308-0.214-0.532-0.527-0.718-0.848
			c-0.31-0.545-0.534-1.148-0.739-1.739c-1.436-4.593-3.117-10.991-4.665-15.518c-1.233-3.606-2.984-8.122-3.669-11.83
			c-1.251-6.224-0.94-12.677-0.35-18.961c0.827-7.987,2.146-16.059,4.862-23.641c2.258-6.328,5.608-12.291,9.439-17.799
			c0.497-0.785,1.042-1.588,1.312-2.485c0.11-0.385,0.133-0.81-0.076-1.167c-0.111-0.197-0.27-0.363-0.445-0.504
			c-0.543-0.438-1.353-0.733-1.986-1.022c-0.481-0.222-1.017-0.479-1.257-0.981c-0.128-0.273-0.126-0.587-0.061-0.877
			c0.133-0.576,0.438-1.1,0.741-1.601c0.803-1.28,1.786-2.483,2.771-3.628c1.418-1.626,2.95-3.214,4.59-4.618
			c3.758-3.306,9.171-5.953,13.443-8.547c1.125-0.71,2.298-1.446,3.169-2.466c0.376-0.45,0.679-1.018,0.606-1.621
			c-0.043-0.407-0.234-0.812-0.208-1.226c0.026-0.509,0.347-0.944,0.683-1.304c0.356-0.376,0.771-0.711,1.179-1.03
			c1.045-0.838,5.472-3.775,6.623-4.578c2.43-1.695,4.978-3.911,7.342-5.702c1.393-1.026,2.917-1.904,4.516-2.567
			c4.151-1.684,8.694-2.252,13.122-2.709c6.891-0.69,14.731-0.413,21.6-1.337c2.619-0.35,5.244-0.989,7.774-1.749l6.637-2.091
			c2.492-0.762,5.077-1.372,7.659-1.721c3.255-0.455,6.613-0.557,9.898-0.47c5.43,0.14,15.419,1.248,20.867,1.557
			c4.923,0.326,10.258,0.394,15.2,0.312l24.344-0.715c8.007-0.162,19.979,0.246,28.081,0.47c3.773,0.041,7.676,0.057,11.386-0.683
			c2.482-0.492,4.887-1.401,7.192-2.433c1.324-0.606,3.89-1.828,5.19-2.335c1.279-0.517,2.976-1.081,4.239-1.634
			c1.659-0.736,3.351-1.786,5.056-2.413c1.309-0.505,2.701-0.792,4.096-0.91c2.294-0.209,5.629-0.129,7.941-0.241
			c2.312-0.11,4.675-0.362,6.943-0.824c2.409-0.492,4.836-1.268,6.806-2.786c0.693-0.53,1.325-1.155,1.854-1.848
			c0.472-0.614,0.935-1.351,1.58-1.802c0.811-0.576,1.822-0.766,2.776-0.973c1.503-0.294,3.657-0.667,5.106-1.079
			c1.444-0.399,2.901-0.905,4.27-1.513c0.999-0.447,1.992-0.957,2.89-1.586c0.668-0.467,1.285-1.028,1.854-1.61
			c0.672-0.702,1.437-1.523,2.14-2.15c0.565-0.505,1.209-0.997,1.826-1.441c2.709-1.963,5.963-3.726,8.419-6.008
			c2.827-2.647,4.881-6.061,6.895-9.338c1.25-2.052,2.829-5.141,4.218-7.083c1.643-2.34,4.775-5.75,6.553-8.006
			c1.88-2.336,3.633-4.832,5.006-7.502c0.874-1.683,1.656-3.444,2.27-5.239c0.322-0.978,0.641-1.99,0.738-3.019
			c0.029-0.362,0.026-0.735-0.069-1.088c-0.056-0.246-0.203-0.478-0.254-0.724c-0.019-0.103-0.008-0.21,0.021-0.31
			c0.124-0.374,0.376-0.694,0.599-1.013c3.522-4.374,8.574-11.992,11.948-16.519c0.861-1.127,1.828-2.236,2.814-3.256
			c3.609-3.649,7.692-7.518,10.244-11.985c0.88-1.496,1.705-3.167,2.44-4.742c4.724-10.353,11.63-26.176,16.753-36.264
			c0.572-1.036,1.167-2.103,1.944-3.001c0.317-0.356,0.678-0.692,1.116-0.891c0.312-0.143,0.663-0.199,1.005-0.16
			c0.796,0.099,1.535,0.564,2.164,1.039c1.027,0.801,1.864,1.825,2.596,2.896c1.443,2.132,2.512,4.535,3.462,6.921
			c2.883,7.484,5.085,15.395,6.601,23.27c0.314,1.769,1.345,7.555,1.625,9.225c0.342,2.103,0.543,4.272,0.474,6.403
			c-0.068,2.375-0.446,4.766-1,7.075"/>
	</g>
	<g id="POLYLINE_00000121976060662398870230000013224227166523858566_">
		
			<path fill="none" stroke="#FB8604" stroke-width="2.75" stroke-linecap="round" stroke-linejoin="round" stroke-miterlimit="10" d="
			M210.598,331.392c2.472-0.663,5.035-1.201,7.576-1.499c2.93-0.353,5.964-0.423,8.914-0.337c6.902,0.199,13.89,1.552,20.042,4.779
			c5.926,3.039,10.739,7.871,14.623,13.217c1.911,2.664,3.693,5.483,4.921,8.533c0.379,1.006,0.787,2.166,0.724,3.248l-0.004,0.046
			l-0.005,0.045l-0.006,0.044l-0.007,0.044l-0.007,0.043l-0.008,0.042l-0.009,0.041l-0.01,0.04l-0.011,0.039l-0.011,0.038
			l-0.012,0.038l-0.013,0.037l-0.014,0.036l-0.015,0.035l-0.015,0.034l-0.016,0.033L267.217,360l-0.018,0.031l-0.019,0.03
			l-0.02,0.029l-0.02,0.028l-0.021,0.027l-0.022,0.026l-0.023,0.025l-0.024,0.024l-0.025,0.023l-0.025,0.022l-0.026,0.021
			l-0.027,0.02l-0.028,0.019c-0.424,0.268-0.991,0.214-1.468,0.157c-0.863-0.109-1.852-0.448-2.719-0.522
			c-0.144-0.007-0.292-0.007-0.431,0.035l-0.01,0.003l-0.01,0.004l-0.01,0.004l-0.01,0.004l-0.01,0.004l-0.017,0.008l-0.017,0.008
			l-0.016,0.009l-0.015,0.009l-0.015,0.01l-0.014,0.01l-0.013,0.011l-0.013,0.011l-0.012,0.012l-0.012,0.012l-0.011,0.013
			l-0.01,0.013l-0.01,0.014l-0.009,0.014l-0.009,0.015l-0.008,0.015l-0.008,0.016l-0.007,0.016l-0.006,0.017l-0.006,0.017
			l-0.005,0.018l-0.005,0.018l-0.004,0.019l-0.004,0.019l-0.003,0.02l-0.003,0.02l-0.002,0.021l-0.001,0.021l-0.001,0.022l0,0.022
			l0,0.023l0.001,0.023l0.001,0.024l0.002,0.024l0.002,0.025l0.003,0.025c0.033,0.252,0.122,0.498,0.218,0.732
			c0.221,0.525,0.515,1.042,0.806,1.532c1.533,2.516,4.861,7.1,6.502,9.59c1.895,2.852,3.695,5.885,5.241,8.94
			c3.733,7.419,6.47,15.613,6.317,23.999c-0.051,1.511-0.151,3.066-0.634,4.508c-0.162,0.446-0.365,0.906-0.733,1.22l-0.017,0.014
			l-0.017,0.013l-0.017,0.013l-0.018,0.013l-0.018,0.012l-0.018,0.012l-0.018,0.011l-0.018,0.011l-0.018,0.01l-0.018,0.01
			l-0.018,0.01l-0.018,0.009l-0.018,0.009l-0.019,0.008l-0.019,0.008l-0.019,0.007l-0.019,0.007l-0.019,0.007l-0.019,0.006
			l-0.019,0.006l-0.019,0.005l-0.019,0.005l-0.02,0.004l-0.02,0.004l-0.02,0.003l-0.02,0.003l-0.02,0.002l-0.02,0.002l-0.02,0.001
			l-0.02,0.001l-0.02,0.001l-0.021,0l-0.021,0l-0.021-0.001l-0.021-0.001c-0.183-0.014-0.358-0.079-0.522-0.158
			c-0.696-0.352-1.367-1.033-1.957-1.54c-0.265-0.229-0.539-0.466-0.843-0.643c-0.115-0.065-0.239-0.124-0.371-0.144l-0.01-0.001
			l-0.01-0.001l-0.01-0.001l-0.01-0.001l-0.018-0.001l-0.018,0l-0.018,0l-0.018,0.001l-0.017,0.002l-0.017,0.002l-0.017,0.003
			l-0.017,0.004l-0.016,0.004l-0.016,0.005l-0.016,0.006l-0.016,0.006l-0.016,0.007l-0.015,0.008l-0.015,0.008l-0.015,0.009
			l-0.015,0.01l-0.014,0.01l-0.014,0.011l-0.014,0.012l-0.014,0.012l-0.014,0.013l-0.013,0.013l-0.013,0.014l-0.013,0.015
			l-0.013,0.015l-0.013,0.016l-0.012,0.016l-0.012,0.017l-0.012,0.018l-0.012,0.018l-0.012,0.019l-0.011,0.019l-0.011,0.02
			l-0.011,0.021l-0.011,0.021c-0.094,0.192-0.149,0.403-0.193,0.611c-0.16,0.821-0.176,1.693-0.199,2.528l-0.035,5.69
			c-0.062,5.488-0.834,11.045-2.757,16.204c-0.379,0.977-0.806,1.961-1.378,2.842c-0.26,0.388-0.55,0.777-0.937,1.046l-0.025,0.016
			l-0.025,0.016l-0.025,0.015l-0.025,0.014l-0.024,0.014l-0.024,0.013l-0.024,0.012l-0.024,0.012l-0.024,0.011l-0.024,0.01
			l-0.024,0.01l-0.024,0.009l-0.024,0.008l-0.024,0.007l-0.024,0.007l-0.024,0.006l-0.024,0.005l-0.024,0.005l-0.024,0.004
			l-0.023,0.003l-0.023,0.002l-0.023,0.002l-0.023,0.001l-0.023,0l-0.023,0l-0.023-0.001l-0.023-0.002l-0.023-0.003l-0.023-0.003
			l-0.023-0.004l-0.023-0.005l-0.023-0.006l-0.023-0.006c-0.122-0.037-0.233-0.105-0.333-0.184c-0.436-0.354-0.78-0.95-1.116-1.396
			c-0.185-0.239-0.409-0.551-0.705-0.649l-0.008-0.002l-0.008-0.002l-0.008-0.002l-0.008-0.002l-0.008-0.002l-0.008-0.002
			l-0.008-0.001l-0.008-0.001l-0.008-0.001l-0.008-0.001l-0.008-0.001l-0.021-0.001l-0.021,0l-0.021,0.001l-0.021,0.002
			l-0.021,0.003l-0.021,0.004l-0.021,0.005l-0.021,0.006l-0.021,0.007l-0.021,0.008l-0.021,0.009l-0.021,0.01l-0.021,0.011
			l-0.021,0.012l-0.021,0.013l-0.021,0.014l-0.021,0.015l-0.021,0.016l-0.021,0.017l-0.021,0.018l-0.021,0.019l-0.021,0.02
			l-0.021,0.021l-0.021,0.022l-0.021,0.023l-0.022,0.024c-0.216,0.246-0.379,0.54-0.529,0.83c-0.348,0.69-0.636,1.465-0.901,2.193
			c-1.814,5.133-3.372,11.133-6.33,15.734c-1.296,2.002-2.947,3.771-4.7,5.38c-1.93,1.783-4.244,3.625-5.782,5.757
			c-0.791,1.078-1.378,2.299-1.805,3.563c-0.693,1.971-1.093,4.359-1.699,6.358c-0.208,0.619-0.456,1.363-0.963,1.798l-0.018,0.014
			l-0.018,0.014l-0.018,0.013l-0.018,0.013l-0.018,0.012l-0.018,0.012l-0.018,0.012l-0.019,0.011l-0.019,0.011l-0.019,0.01
			l-0.019,0.01c-0.168,0.086-0.359,0.12-0.546,0.118c-0.599-0.013-1.26-0.302-1.828-0.478c-0.513-0.164-1.051-0.304-1.594-0.28
			c-0.377,0.014-0.747,0.124-1.083,0.293c-0.765,0.388-1.383,1.014-1.934,1.661c-1.083,1.296-1.963,2.804-2.794,4.271l-2.757,5.075
			c-1.231,2.197-2.612,4.381-4.15,6.374c-1.941,2.534-4.245,4.959-6.495,7.223c-7.03,7.064-16.955,15.906-22.67,23.966
			c-2.671,3.686-4.984,7.752-7.045,11.809c-1.801,3.503-3.52,7.19-4.781,10.923c-1.507,4.421-2.573,9.109-3.348,13.714
			c-0.814,4.985-1.318,10.121-1.262,15.173"/>
	</g>
	<g id="POLYLINE_00000046318609237681791670000003379957353507020443_">
		
			<path fill="none" stroke="#FB8604" stroke-width="2.75" stroke-linecap="round" stroke-linejoin="round" stroke-miterlimit="10" d="
			M523.036,415.609c1.05-1.04,2.227-2.302,3.221-3.405c1.81-2.083,6.287-7.237,8.028-9.267c2.703-3.206,5.224-6.673,6.815-10.577
			c1.189-2.84,1.876-6.402,2.568-9.41c0.149-0.602,0.303-1.229,0.536-1.804c0.079-0.188,0.168-0.378,0.296-0.538l0.011-0.014
			l0.012-0.013l0.012-0.013l0.012-0.012l0.012-0.012l0.012-0.011l0.012-0.011l0.012-0.011l0.012-0.01l0.012-0.01l0.012-0.009
			l0.012-0.009l0.012-0.008l0.012-0.008l0.012-0.007l0.012-0.007l0.012-0.006l0.012-0.006l0.012-0.005l0.012-0.005l0.012-0.004
			l0.013-0.004l0.013-0.003l0.013-0.003l0.013-0.002c0.092-0.014,0.185,0.015,0.267,0.054c0.459,0.234,0.821,0.724,1.366,0.763
			l0.021,0.001l0.021,0l0.021,0l0.021-0.001l0.021-0.001l0.021-0.002l0.021-0.002l0.021-0.003l0.021-0.003l0.021-0.004l0.021-0.004
			l0.021-0.005l0.022-0.005l0.022-0.006l0.022-0.006l0.022-0.007l0.022-0.007l0.022-0.008l0.022-0.008l0.022-0.009l0.022-0.009
			c0.336-0.151,0.61-0.411,0.854-0.68c0.53-0.599,0.944-1.301,1.319-2.005c2.031-3.997,3.105-8.441,3.777-12.853
			c0.261-1.765,0.849-6.576,1.21-8.242c0.119-0.561,0.258-1.137,0.453-1.677c0.163-0.437,0.358-0.882,0.691-1.218l0.02-0.019
			l0.02-0.019l0.02-0.018l0.02-0.018l0.021-0.017l0.021-0.017l0.021-0.016l0.021-0.015l0.021-0.015l0.021-0.014
			c0.356-0.236,0.805-0.229,1.214-0.191c0.603,0.057,1.295,0.195,1.853-0.111c0.405-0.218,0.707-0.584,0.952-0.966
			c0.461-0.737,0.751-1.574,0.995-2.404c1.514-5.614,1.281-11.981,1.853-17.738c0.15-1.438,0.328-2.916,0.75-4.302
			c0.252-0.777,0.577-1.607,1.262-2.101c0.491-0.36,1.149-0.484,1.721-0.657c0.442-0.131,0.885-0.323,1.202-0.669
			c0.333-0.361,0.525-0.828,0.674-1.289c0.18-0.571,0.289-1.173,0.375-1.765c0.262-1.775,0.405-5.577,0.532-7.397
			c0.144-2.064,0.488-4.099,1.245-6.033c0.768-2.02,1.864-4.048,2.323-6.173c0.949-4.318,0.805-10.312,1.035-14.772
			c0.189-4.756,1.16-14.974,1.429-19.803c0.107-1.871,0.044-4.438,0-6.329"/>
	</g>
	<g id="POLYLINE_00000169521391098022917050000016587528262250405024_">
		
			<path fill="none" stroke="#FB8604" stroke-width="2.75" stroke-linecap="round" stroke-linejoin="round" stroke-miterlimit="10" d="
			M425.86,384.949c0.754,7.814,0.653,15.768-0.571,23.53c-0.811,5.39-2.388,11.427-3.669,16.744
			c-0.22,1.007-0.455,2.066-0.515,3.096c-0.038,0.793,0.026,1.693,0.616,2.287c0.369,0.372,0.878,0.556,1.371,0.704
			c1.166,0.347,2.441,0.629,3.486,1.269c0.35,0.221,0.674,0.509,0.858,0.887c0.16,0.322,0.221,0.685,0.246,1.041
			c0.048,0.794-0.047,1.614-0.132,2.403c-0.418,3.686-1.325,8.347-0.992,12.027c0.077,0.694,0.234,1.391,0.55,2.018
			c0.233,0.466,0.56,0.885,0.95,1.229c0.733,0.661,1.725,1.064,2.438,1.749c2.245,2.127,2.139,5.798,2.54,8.644
			c0.646,5.737,3.472,14.979,4.911,20.679c2.652,10.236,5.338,22.134,7.309,32.505c1.134,6.007,2.169,12.406,2.635,18.494
			c0.215,2.994,0.615,8.563,0.938,11.496c0.389,3.544,1.442,12.49,1.692,15.951c0.417,5.099,0.367,10.304-0.294,15.38l-0.831,5.983
			c-0.175,1.576-0.372,3.32,0.471,4.747c0.401,0.682,0.994,1.228,1.626,1.695c0.99,0.722,2.284,1.465,3.251,2.214
			c0.669,0.514,1.304,1.094,1.789,1.788c0.477,0.68,0.801,1.458,1.028,2.254c0.238,0.837,0.386,1.718,0.502,2.58
			c0.712,5.883,0.954,12.473,1.299,18.395c0.144,1.449,0.343,3.026,1.323,4.172c0.466,0.538,1.102,0.901,1.767,1.137
			c1.041,0.369,2.162,0.5,3.257,0.588c1.201,0.228,31.76,0.078,33.964,0.118c0.893-0.015,1.821-0.03,2.693-0.24
			c0.675-0.159,1.327-0.473,1.807-0.982c0.69-0.735,1.036-1.721,1.278-2.683c0.49-2.1,0.504-4.307,0.184-6.434
			c-0.221-1.44-0.613-2.866-1.127-4.228c-0.245-0.638-0.507-1.285-0.878-1.861c-0.626-0.949-1.44-1.797-2.441-2.35
			c-0.579-0.328-1.21-0.577-1.844-0.775c-2.15-0.659-4.888-1.052-7.084-1.559c-1.687-0.382-3.367-0.895-4.965-1.559
			c-0.971-0.391-1.923-0.874-2.716-1.566c-0.741-0.635-1.358-1.406-1.891-2.22c-0.792-1.217-1.433-2.551-1.975-3.896
			c-1.123-2.809-1.843-5.786-2.298-8.773c-0.533-3.491-0.79-7.247-0.981-10.777c-0.276-5.856-0.547-12.632-0.487-18.488
			c-0.042-7.478,2.547-42.555,2.982-50.591c0.314-5.389,1.351-36.067,1.979-40.695c0.196-1.511,0.508-3.026,1.035-4.457
			c1.145-3.09,3.096-5.851,4.998-8.516c3.59-4.893,7.703-9.502,12.213-13.564c3.753-3.371,9.667-7.764,13.427-11.122
			c3.395-2.987,6.618-6.287,9.455-9.811"/>
	</g>
</g>
<g id="_x32_D_x24_AG-OUTLINE">
	<g id="POLYLINE_00000117644946241882710210000010374514519842723519_">
		
			<path fill="none" stroke="#FB8604" stroke-width="3.5" stroke-linecap="round" stroke-linejoin="round" stroke-miterlimit="10" d="
			M156.674,338.469c-0.326-0.189-0.641-0.448-0.768-0.815c-0.19-0.572,0.082-1.187,0.334-1.698c0.676-1.277,1.604-2.436,2.516-3.551
			c1.349-1.61,2.813-3.182,4.361-4.603c3.798-3.586,9.271-6.331,13.754-8.976c1.295-0.797,2.666-1.603,3.683-2.752
			c0.257-0.304,0.487-0.645,0.597-1.031c0.074-0.256,0.083-0.53,0.034-0.792c-0.083-0.432-0.268-0.873-0.153-1.318
			c0.082-0.35,0.291-0.656,0.523-0.925c0.284-0.328,0.621-0.618,0.956-0.893c1.263-1.053,5.583-3.881,6.973-4.856
			c2.43-1.695,4.978-3.911,7.342-5.702c1.393-1.026,2.917-1.904,4.516-2.567c4.151-1.684,8.694-2.252,13.122-2.709
			c6.891-0.69,14.731-0.413,21.6-1.337c2.619-0.35,5.244-0.989,7.774-1.749l6.637-2.091c2.492-0.762,5.077-1.372,7.659-1.721
			c3.255-0.455,6.613-0.557,9.898-0.47c5.43,0.14,15.419,1.248,20.867,1.557c4.923,0.326,10.258,0.394,15.2,0.312l24.344-0.715
			c8.007-0.162,19.979,0.246,28.081,0.47c3.773,0.041,7.676,0.057,11.386-0.683c2.482-0.492,4.887-1.401,7.192-2.433
			c1.324-0.606,3.89-1.828,5.19-2.335c1.279-0.517,2.976-1.081,4.239-1.634c1.659-0.736,3.351-1.786,5.056-2.413
			c1.309-0.505,2.701-0.792,4.096-0.91c2.294-0.209,5.629-0.129,7.941-0.241c2.312-0.11,4.675-0.362,6.943-0.824
			c2.409-0.492,4.836-1.268,6.806-2.786c0.693-0.53,1.325-1.155,1.854-1.848c0.472-0.614,0.935-1.351,1.58-1.802
			c0.811-0.576,1.822-0.766,2.776-0.973c1.503-0.294,3.657-0.667,5.106-1.079c1.444-0.399,2.901-0.905,4.27-1.513
			c0.999-0.447,1.992-0.957,2.89-1.586c0.668-0.467,1.285-1.028,1.854-1.61c0.672-0.702,1.437-1.523,2.14-2.15
			c0.565-0.505,1.209-0.997,1.826-1.441c2.709-1.963,5.963-3.726,8.419-6.008c2.827-2.647,4.881-6.061,6.895-9.338
			c1.25-2.052,2.829-5.141,4.218-7.083c1.643-2.34,4.775-5.75,6.553-8.006c1.88-2.336,3.633-4.832,5.006-7.502
			c0.874-1.683,1.656-3.444,2.27-5.239c0.322-0.978,0.641-1.99,0.738-3.019c0.029-0.362,0.026-0.735-0.069-1.088
			c-0.056-0.246-0.203-0.478-0.254-0.724c-0.019-0.103-0.008-0.21,0.021-0.31c0.124-0.374,0.376-0.694,0.599-1.013
			c3.522-4.374,8.574-11.992,11.948-16.519c0.861-1.127,1.828-2.236,2.814-3.256c3.609-3.649,7.692-7.518,10.244-11.985
			c0.88-1.496,1.705-3.167,2.44-4.742c4.592-10.105,11.516-25.825,16.45-35.696c0.63-1.177,1.281-2.397,2.13-3.432
			c0.491-0.587,1.129-1.167,1.933-1.198c0.574-0.024,1.122,0.208,1.615,0.48c1.854,1.068,3.153,2.906,4.234,4.708
			c1.445,2.465,2.524,5.202,3.511,7.879c1.677,4.636,3.141,9.611,4.326,14.399c1.802-1.235,3.608-2.586,5.056-4.229
			c1.264-1.412,2.36-2.999,3.368-4.601c1.593-2.556,3.031-5.308,4.254-8.06c0.941-2.076,1.891-4.874,3.236-6.706
			c0.604-0.821,1.421-1.519,2.411-1.81c0.814-0.25,1.745-0.222,2.487,0.224c1.024,0.618,1.441,1.841,1.726,2.941
			c0.735,3.13,0.681,7.319,0.964,10.527c0.287,3.952,1.151,10.041,1.579,14.007c0.281,2.525,0.418,6.031,0.538,8.587
			c3.511,1.855,7.618,3.869,10.717,6.321c4.172,3.277,7.625,7.467,10.202,12.095c2.286,4.108,3.745,9.051,6.831,12.674
			c1.612,1.92,3.694,3.4,5.882,4.599c9.729,5.196,22.175,6.535,32.632,9.692c0.777-0.156,1.584-0.073,2.355,0.084
			c1.191,0.252,2.339,0.706,3.418,1.265c0.849,0.445,1.672,0.967,2.407,1.586c0.499,0.423,0.965,0.901,1.307,1.461
			c0.956,1.53,0.621,3.445,0.481,5.146c-0.214,2.006-0.473,4.071-1.291,5.933c-0.393,0.867-0.953,1.715-1.799,2.193
			c-0.96,2.929-2.632,5.579-4.537,7.983c-1.792,2.26-3.747,4.48-5.86,6.445c-2.434,2.244-5.177,4.297-8.36,5.324
			c-1.431,0.469-2.94,0.749-4.432,0.938c-3.896,0.437-8.783,0.644-12.64,1.305c-6.88,1.044-16.935,3.302-23.829,3.082
			c0.044,1.903,0.107,4.451,0,6.329c-0.271,4.852-1.238,15.018-1.429,19.803c-0.122,2.897-0.22,8.188-0.475,11.005
			c-0.114,1.254-0.278,2.54-0.56,3.767c-0.459,2.124-1.555,4.153-2.323,6.173c-0.757,1.934-1.101,3.969-1.245,6.033
			c-0.135,1.952-0.269,5.72-0.561,7.593c-0.087,0.552-0.196,1.113-0.371,1.644c-0.146,0.435-0.335,0.873-0.65,1.214
			c-0.317,0.346-0.76,0.538-1.202,0.669c-0.573,0.176-1.23,0.296-1.721,0.657c-0.685,0.495-1.01,1.324-1.262,2.101
			c-0.422,1.386-0.6,2.865-0.75,4.302c-0.572,5.76-0.339,12.12-1.853,17.738c-0.249,0.85-0.547,1.708-1.029,2.457
			c-0.242,0.368-0.542,0.718-0.938,0.924c-0.553,0.297-1.239,0.152-1.832,0.1c-0.409-0.038-0.858-0.045-1.214,0.191l-0.021,0.014
			l-0.021,0.015l-0.021,0.015l-0.021,0.016l-0.021,0.017l-0.021,0.017l-0.02,0.018l-0.02,0.018l-0.02,0.019l-0.02,0.019
			c-0.333,0.336-0.528,0.781-0.691,1.218c-0.195,0.54-0.335,1.116-0.453,1.677c-0.358,1.644-0.955,6.513-1.21,8.242
			c-0.672,4.412-1.746,8.856-3.777,12.853c-0.375,0.703-0.789,1.406-1.319,2.005c-0.245,0.269-0.519,0.53-0.854,0.68l-0.022,0.009
			l-0.022,0.009l-0.022,0.008l-0.022,0.008l-0.022,0.007l-0.022,0.007l-0.022,0.006l-0.022,0.006l-0.022,0.005l-0.021,0.005
			l-0.021,0.004l-0.021,0.004l-0.021,0.003l-0.021,0.003l-0.021,0.002l-0.021,0.002l-0.021,0.001l-0.021,0.001l-0.021,0l-0.021,0
			l-0.021-0.001c-0.544-0.039-0.907-0.529-1.366-0.763c-0.083-0.039-0.175-0.067-0.267-0.054l-0.013,0.002l-0.013,0.003
			l-0.013,0.003l-0.013,0.004l-0.012,0.004l-0.012,0.005l-0.012,0.005l-0.012,0.006l-0.012,0.006l-0.012,0.007l-0.012,0.007
			l-0.012,0.008l-0.012,0.008l-0.012,0.009l-0.012,0.009l-0.012,0.01l-0.012,0.01l-0.012,0.011l-0.012,0.011l-0.012,0.011
			l-0.012,0.012l-0.012,0.012l-0.012,0.013l-0.012,0.013l-0.011,0.014c-0.128,0.16-0.217,0.35-0.296,0.538
			c-0.233,0.574-0.387,1.203-0.536,1.804c-0.695,3.02-1.376,6.563-2.568,9.41c-1.591,3.904-4.113,7.371-6.815,10.577
			c-1.723,2.009-6.238,7.207-8.028,9.267c-0.996,1.104-2.169,2.363-3.221,3.405c-2.838,3.524-6.06,6.823-9.455,9.811
			c-3.755,3.353-9.677,7.755-13.427,11.122c-4.51,4.061-8.624,8.671-12.213,13.564c-1.902,2.666-3.853,5.426-4.998,8.516
			c-0.527,1.431-0.839,2.947-1.034,4.457c-0.626,4.535-1.668,35.5-1.979,40.695c-0.455,8.268-3.018,43.091-2.982,50.591
			c-0.06,5.854,0.21,12.628,0.487,18.488c0.192,3.536,0.449,7.283,0.981,10.777c0.455,2.987,1.176,5.964,2.298,8.773
			c0.889,2.157,1.986,4.398,3.728,5.995c1.298,1.184,3.003,1.773,4.629,2.355c2.846,0.995,6.138,1.415,9.065,2.117
			c0.904,0.225,1.827,0.488,2.664,0.902c0.521,0.255,1.017,0.571,1.454,0.953c0.566,0.505,1.066,1.098,1.465,1.744
			c0.325,0.537,0.566,1.134,0.79,1.719c0.411,1.092,0.75,2.235,0.977,3.38c0.402,2.008,0.482,4.093,0.19,6.121
			c-0.173,1.124-0.445,2.267-1.042,3.247c-0.227,0.366-0.516,0.698-0.864,0.953c-0.344,0.255-0.74,0.436-1.15,0.557
			c-0.668,0.198-1.376,0.257-2.069,0.288c-2.062,0.032-32.446,0.063-33.765-0.035c-1.031-0.048-2.094-0.122-3.108-0.321
			c-0.809-0.162-1.625-0.404-2.314-0.869c-0.456-0.306-0.834-0.724-1.106-1.2c-0.407-0.707-0.608-1.514-0.741-2.312
			c-0.152-0.902-0.204-1.896-0.256-2.811c-0.266-5.675-0.564-12.031-1.315-17.645c-0.217-1.31-0.533-2.645-1.247-3.781
			c-1.181-1.868-3.312-2.905-5.063-4.148c-0.755-0.539-1.471-1.188-1.893-2.028c-0.698-1.393-0.508-3.021-0.345-4.517l0.831-5.983
			c0.447-3.498,0.631-7.102,0.545-10.629c-0.121-5.862-1.317-14.786-1.943-20.703c-0.606-5.57-0.858-12.302-1.596-17.852
			c-2.614-18.831-7.717-38.935-12.641-57.332c-0.492-1.97-0.973-4.106-1.288-6.108c-0.271-1.639-0.456-3.562-0.65-5.216
			c-9.791,0.557-21.626,0.194-31.449,0.042c-2.975-0.123-6.018-0.311-8.93-0.941c-1.308-0.284-2.604-0.689-3.815-1.261
			c-1.373-0.627-3.015-1.679-4.393-2.297c-0.606-0.271-1.243-0.495-1.895-0.628c-0.651-0.133-1.328-0.175-1.992-0.171
			c-1.614-0.002-4.194,0.416-5.827,0.615c-1.738,0.213-3.522,0.351-5.272,0.259c-5.157-0.277-10.157-1.947-14.831-4.068
			c-3.428-1.53-7.162-3.855-10.501-5.585c-1.247-0.625-2.544-1.238-3.908-1.553c-0.686-0.153-1.41-0.226-2.101-0.066
			c-1.134,0.249-2.044,1.119-3.047,1.649c-0.36,0.187-0.756,0.325-1.165,0.335c-0.506,0.013-1.002-0.139-1.462-0.337
			c-0.502-0.217-0.982-0.501-1.443-0.794c-1.585-1.033-3.363-2.447-4.948-3.479c-2.338-1.553-4.954-2.755-7.536-3.843
			c-2.53-1.052-6.968-2.739-9.357-3.963c-1.152-0.568-2.476-1.443-3.566-2.139c-0.49-0.299-0.997-0.602-1.549-0.771
			c-0.345-0.104-0.72-0.142-1.07-0.041c-0.677,0.2-1.292,0.807-1.846,1.224c-0.654,0.512-1.403,0.961-2.245,1.045
			c-0.648,0.068-1.304-0.036-1.933-0.193c-1.295-0.333-2.541-0.9-3.746-1.472l-4.619-2.296c-1.964-0.949-4.029-1.776-6.201-2.081
			c-2.675-0.428-5.678-0.061-8.367,0.181c-0.362,2.086-0.86,4.201-1.513,6.215c-0.422,1.276-0.904,2.562-1.555,3.739
			c-0.231,0.41-0.487,0.816-0.799,1.169c-0.175,0.196-0.371,0.382-0.603,0.508l-0.021,0.011l-0.021,0.011l-0.021,0.01l-0.021,0.01
			l-0.021,0.009l-0.021,0.008l-0.021,0.008l-0.021,0.007l-0.021,0.007l-0.021,0.006l-0.021,0.006l-0.021,0.005l-0.021,0.005
			l-0.02,0.004l-0.02,0.004l-0.02,0.003l-0.02,0.003l-0.02,0.002l-0.02,0.002l-0.02,0.001l-0.02,0l-0.02,0l-0.02-0.001l-0.02-0.001
			l-0.02-0.002l-0.02-0.002l-0.02-0.003l-0.02-0.003l-0.02-0.004l-0.02-0.004l-0.02-0.005l-0.019-0.006
			c-0.122-0.037-0.233-0.105-0.333-0.184c-0.436-0.354-0.78-0.95-1.116-1.396c-0.185-0.239-0.409-0.551-0.705-0.649l-0.008-0.002
			l-0.008-0.002l-0.008-0.002l-0.008-0.002l-0.008-0.002l-0.008-0.002l-0.008-0.001l-0.008-0.001l-0.008-0.001l-0.008-0.001
			l-0.008-0.001l-0.021-0.001l-0.021,0l-0.021,0.001l-0.021,0.002l-0.021,0.003l-0.021,0.004l-0.021,0.005l-0.021,0.006
			l-0.021,0.007l-0.021,0.008l-0.021,0.009l-0.021,0.01l-0.021,0.011l-0.021,0.012l-0.021,0.013l-0.021,0.014l-0.021,0.015
			l-0.021,0.016l-0.021,0.017l-0.021,0.018l-0.021,0.019l-0.021,0.02l-0.021,0.021l-0.021,0.022l-0.021,0.023l-0.022,0.024
			c-0.216,0.246-0.379,0.54-0.529,0.83c-0.348,0.69-0.636,1.465-0.901,2.193c-1.814,5.133-3.372,11.133-6.33,15.734
			c-1.296,2.002-2.947,3.771-4.7,5.38c-1.93,1.783-4.244,3.625-5.782,5.757c-0.791,1.078-1.378,2.299-1.805,3.563
			c-0.693,1.971-1.093,4.359-1.699,6.358c-0.208,0.619-0.456,1.363-0.963,1.798l-0.018,0.014l-0.018,0.014l-0.018,0.013
			l-0.018,0.013l-0.018,0.012l-0.018,0.012l-0.018,0.012l-0.019,0.011l-0.019,0.011l-0.019,0.01l-0.019,0.01
			c-0.168,0.086-0.359,0.12-0.546,0.118c-0.599-0.013-1.26-0.302-1.828-0.478c-0.513-0.164-1.051-0.304-1.594-0.28
			c-0.377,0.014-0.747,0.124-1.083,0.293c-0.765,0.388-1.383,1.014-1.934,1.661c-1.083,1.296-1.963,2.804-2.794,4.271l-2.757,5.075
			c-1.231,2.197-2.612,4.381-4.15,6.374c-1.941,2.534-4.245,4.959-6.495,7.223c-7.774,7.789-18.12,16.887-24.116,26.049
			c-2.058,3.064-3.922,6.437-5.599,9.726c-2.124,4.114-4.071,8.428-5.411,12.865c-2.062,6.823-3.308,13.981-3.811,21.088
			c-0.228,3.161-0.179,6.526-0.148,9.699c0.067,2.748,0.137,5.616,0.596,8.326c0.134,0.766,0.311,1.535,0.561,2.272
			c0.251,0.745,0.593,1.487,0.935,2.195c0.549,1.12,1.223,2.2,2.12,3.075c1.191,1.189,2.747,1.919,4.316,2.472
			c4.02,1.447,8.81,2.032,12.286,4.681c3.449,2.638,4.787,7.204,4.951,11.387c0.025,1.113-0.047,2.247-0.367,3.318
			c-0.196,0.643-0.495,1.272-0.967,1.759c-0.535,0.557-1.263,0.883-2.003,1.07c-1.24,0.311-2.556,0.337-3.828,0.367l-28.963,0.011
			c-0.564-0.005-1.401,0.003-1.954-0.035c-0.564-0.035-1.137-0.1-1.675-0.284c-0.491-0.165-0.943-0.45-1.287-0.838
			c-0.334-0.371-0.575-0.818-0.764-1.277c-0.849-2.176-1.27-5.823-1.732-8.132c-0.365-1.952-0.883-3.919-1.543-5.792
			c-0.679-2.027-2.195-5.446-3.043-7.448c-1.066-2.571-2.066-5.265-1.839-8.094c0.193-2.769,1.057-6.109,1.491-8.851
			c0.567-3.194,0.807-6.481,0.668-9.724c-0.269-4.798-0.743-14.503-0.949-19.316c-0.215-3.541-0.523-7.299-1.077-10.793
			c-0.506-3.234-1.308-6.654-2.144-9.825c-1.087-4.279-2.904-9.631-3.069-14.03c-0.061-1.564,0.099-3.153,0.6-4.642
			c0.51-1.55,1.359-2.974,2.336-4.272c1.517-2.002,3.507-3.953,4.805-6.114c0.799-1.28,1.438-2.677,1.962-4.091
			c1.284-3.392,2.965-10.205,3.966-13.753c-1.632,1.928-4.37,5.106-5.867,7.073c-1.451,1.868-3.512,4.856-4.939,6.758
			c-1.031,1.366-2.14,2.722-3.413,3.87l-1.981,1.769c-0.849,0.78-1.648,1.642-2.332,2.571c-1.317,1.765-3.198,5.223-4.344,7.146
			c-1.094,1.784-2.215,3.644-3.787,5.051c-0.926,0.831-2.168,1.417-3.28,1.961c-0.434,0.221-0.87,0.464-1.248,0.773
			c-0.272,0.219-0.508,0.484-0.726,0.756c-0.376,0.449-0.737,1.065-1.262,1.353c-0.147,0.077-0.314,0.118-0.48,0.108l-0.02-0.001
			l-0.02-0.002l-0.02-0.002l-0.02-0.002l-0.02-0.003l-0.02-0.003l-0.02-0.004l-0.021-0.004c-0.614-0.143-1.157-0.659-1.591-1.096
			c-0.694-0.724-1.294-1.558-1.843-2.396c-0.838-1.296-1.587-2.691-2.221-4.098c-0.774-1.682-1.365-3.636-1.905-5.411
			c-0.211-0.665-0.434-1.377-0.738-2.005c-0.204-0.408-0.452-0.828-0.854-1.067c-0.289-0.169-0.633-0.196-0.96-0.201
			c-0.516-0.007-1.119,0.049-1.568-0.252l-0.019-0.013c-0.43-0.306-0.669-0.805-0.861-1.282c-0.312-0.81-0.49-1.685-0.648-2.536
			c-0.361-2.001-0.796-5.971-1.108-7.998c-0.558-3.71-2.056-10.772-2.787-14.523c-0.505-2.799-0.946-5.709-1.092-8.547
			c-0.121-2.328-0.048-4.716,0.16-7.037c0.228-2.63,0.701-5.595,1.153-8.209c0.407-2.217,3.785-21.76,4.195-23.398
			c0.185-0.872,0.868-3.751,0.982-4.599c0.08-0.544,0.135-1.105,0.072-1.654c-0.035-0.295-0.109-0.589-0.244-0.855
			c-0.141-0.281-0.346-0.526-0.558-0.756c-0.424-0.461-0.932-0.93-1.158-1.525c-0.213-0.528-0.214-1.113-0.155-1.671
			c0.092-0.812,0.32-1.617,0.574-2.392c1.193-3.523,3.631-8.141,5.237-11.54c2.498-5.277,5.008-10.773,6.635-16.386
			c0.144-0.548,0.284-1.122,0.352-1.685c0.024-0.224,0.044-0.458,0.013-0.683l-0.003-0.021l-0.004-0.021l-0.004-0.02l-0.004-0.02
			l-0.005-0.019l-0.005-0.018l-0.005-0.018l-0.006-0.017l-0.006-0.017l-0.006-0.016l-0.007-0.015l-0.007-0.015l-0.007-0.014
			l-0.007-0.013l-0.008-0.013l-0.008-0.012l-0.008-0.012l-0.009-0.011c-0.053-0.065-0.136-0.097-0.217-0.11
			c-0.201-0.029-0.424-0.001-0.61-0.1l-0.01-0.005l-0.01-0.006l-0.01-0.006l-0.01-0.006l-0.01-0.006l-0.01-0.007l-0.01-0.007
			c-0.219-0.156-0.348-0.406-0.448-0.649c-0.205-0.523-0.286-1.09-0.333-1.647c-0.13-1.813,0.136-3.648,0.547-5.412
			c0.727-3.005,1.922-5.941,3.194-8.754c2.847-6.181,6.392-12.199,10.128-17.884c2.115-3.182,4.454-6.471,6.898-9.407
			C151.453,343.731,154.116,340.998,156.674,338.469z"/>
	</g>
</g>
</svg>
