<?xml version="1.0" encoding="utf-8"?>
<!-- Generator: Adobe Illustrator 25.4.1, SVG Export Plug-In . SVG Version: 6.00 Build 0)  -->
<!DOCTYPE svg PUBLIC "-//W3C//DTD SVG 1.1//EN" "http://www.w3.org/Graphics/SVG/1.1/DTD/svg11.dtd" [
	<!ENTITY ns_extend "http://ns.adobe.com/Extensibility/1.0/">
	<!ENTITY ns_ai "http://ns.adobe.com/AdobeIllustrator/10.0/">
	<!ENTITY ns_graphs "http://ns.adobe.com/Graphs/1.0/">
	<!ENTITY ns_vars "http://ns.adobe.com/Variables/1.0/">
	<!ENTITY ns_imrep "http://ns.adobe.com/ImageReplacement/1.0/">
	<!ENTITY ns_sfw "http://ns.adobe.com/SaveForWeb/1.0/">
	<!ENTITY ns_custom "http://ns.adobe.com/GenericCustomNamespace/1.0/">
	<!ENTITY ns_adobe_xpath "http://ns.adobe.com/XPath/1.0/">
]>
<svg version="1.1" xmlns:x="&ns_extend;" xmlns:i="&ns_ai;" xmlns:graph="&ns_graphs;"
	 xmlns="http://www.w3.org/2000/svg" xmlns:xlink="http://www.w3.org/1999/xlink" x="0px" y="0px" width="750px" height="750px"
	 viewBox="0 0 750 750" enable-background="new 0 0 750 750" xml:space="preserve">
<metadata>
	<sfw  xmlns="&ns_sfw;">
		<slices></slices>
		<sliceSourceBounds  bottomLeftOrigin="true" height="10279.858" width="5639" x="-2000" y="-1364"></sliceSourceBounds>
	</sfw>
</metadata>
<g id="FILL-BACKGROUND">
	<rect fill="#FFFFFF" width="750" height="750"/>
</g>
<g id="N-DIMENSIONS">
</g>
<g id="N-TEXT">
</g>
<g id="_x32_D_x24_AG-DIAGRAM">
	<g id="POLYLINE_00000080913531800424860340000013695547436696378801_">
		<g>
			<g>
				
					<line fill="none" stroke="#FB8604" stroke-width="3.25" stroke-linecap="round" stroke-linejoin="round" x1="112.774" y1="605.12" x2="114.774" y2="605.12"/>
				
					<line fill="none" stroke="#FB8604" stroke-width="3.25" stroke-linecap="round" stroke-linejoin="round" stroke-dasharray="4.052,7.091" x1="121.865" y1="605.12" x2="508.325" y2="605.12"/>
				
					<line fill="none" stroke="#FB8604" stroke-width="3.25" stroke-linecap="round" stroke-linejoin="round" x1="511.871" y1="605.12" x2="513.871" y2="605.12"/>
			</g>
		</g>
	</g>
</g>
<g id="_x32_D_x24_AG-DETAILS-DIAGRAM">
</g>
<g id="_x32_D_x24_AG-DETAILS">
	<g id="POLYLINE_00000008129997359452805520000004600747224020542350_">
		<path fill="none" stroke="#FB8604" stroke-width="2" stroke-linecap="round" stroke-linejoin="round" stroke-miterlimit="10" d="
			M406.792,403.466c-0.494-0.708-1.335-1.072-2.153-1.257c-0.958-0.21-1.958-0.202-2.925-0.056
			c-0.931,0.146-1.851,0.426-2.677,0.885c-0.891,0.488-1.639,1.249-2.054,2.181c-0.62,1.352-0.526,3.035,0.346,4.256
			c0.989,1.379,2.765,2.069,4.432,1.937c1.068-0.078,2.092-0.525,2.9-1.223c0.688-0.585,1.257-1.307,1.699-2.092
			c0.409-0.733,0.717-1.534,0.837-2.368C407.306,404.961,407.244,404.12,406.792,403.466z"/>
	</g>
	<g id="POLYLINE_00000116918124608692393690000018109779513982673057_">
		<path fill="none" stroke="#FB8604" stroke-width="2" stroke-linecap="round" stroke-linejoin="round" stroke-miterlimit="10" d="
			M266.573,357.087l-0.01-0.024l-0.011-0.024l-0.011-0.024l-0.012-0.023l-0.013-0.023l-0.013-0.023l-0.014-0.023l-0.014-0.023
			l-0.015-0.022l-0.015-0.022l-0.016-0.022l-0.016-0.022l-0.017-0.021l-0.017-0.021l-0.018-0.021l-0.018-0.021l-0.019-0.02
			l-0.019-0.02l-0.02-0.02l-0.02-0.02l-0.021-0.02c-0.575-0.51-1.422-0.684-2.164-0.79c-1.104-0.141-2.235-0.105-3.34,0.005
			c-1.37,0.143-2.74,0.414-4.055,0.827c-1.774,0.57-3.66,1.45-4.685,3.079c-0.459,0.736-0.646,1.661-0.344,2.492
			c0.348,0.974,1.198,1.686,2.117,2.11c1.754,0.807,3.808,0.649,5.576-0.035c1.251-0.475,2.431-1.151,3.517-1.93
			c0.983-0.715,1.917-1.53,2.689-2.472c0.336-0.416,0.647-0.863,0.868-1.352c0.133-0.3,0.235-0.621,0.243-0.951l0-0.028l0-0.028
			l-0.001-0.028l-0.001-0.027l-0.002-0.027l-0.002-0.027l-0.003-0.027l-0.003-0.027l-0.004-0.026l-0.004-0.026l-0.005-0.026
			l-0.005-0.026l-0.006-0.026l-0.006-0.025l-0.007-0.025l-0.007-0.025l-0.008-0.025l-0.008-0.025l-0.009-0.024L266.573,357.087z"/>
	</g>
	<g id="POLYLINE_00000059292986183433402630000012242613198174747791_">
		<path fill="none" stroke="#FB8604" stroke-width="2" stroke-linecap="round" stroke-linejoin="round" stroke-miterlimit="10" d="
			M454.255,315.32c-0.283-0.42-0.748-0.683-1.231-0.806c-1.146-0.28-2.376-0.017-3.467,0.371c-2.086,0.766-3.979,2.26-4.936,4.296
			c-0.439,0.951-0.658,2.108-0.184,3.086c0.342,0.702,0.997,1.203,1.699,1.513c1.388,0.606,3.04,0.571,4.407-0.077
			c0.9-0.426,1.647-1.123,2.253-1.904c0.757-0.987,1.326-2.128,1.646-3.331c0.172-0.667,0.271-1.366,0.191-2.054
			C454.585,316.029,454.475,315.643,454.255,315.32z"/>
	</g>
	<g id="POLYLINE_00000096055501451734957250000007050322971855474363_">
		<path fill="none" stroke="#FB8604" stroke-width="2" stroke-linecap="round" stroke-linejoin="round" stroke-miterlimit="10" d="
			M390.667,359.522c-1.036-0.764-2.453-0.568-3.562-0.069c-0.962,0.43-1.827,1.087-2.505,1.894c-0.5,0.602-0.905,1.301-1.102,2.063
			c-0.115,0.449-0.154,0.923-0.073,1.382c0.075,0.434,0.264,0.848,0.546,1.187c0.617,0.728,1.535,1.127,2.44,1.367
			c0.835,0.212,1.711,0.282,2.567,0.179c0.691-0.086,1.383-0.291,1.96-0.69c1.321-0.913,1.567-2.715,1.345-4.199
			c-0.104-0.675-0.309-1.34-0.635-1.941C391.402,360.246,391.082,359.826,390.667,359.522z"/>
	</g>
	<g id="POLYLINE_00000143595658879459481100000018144968840377547169_">
		<path fill="none" stroke="#FB8604" stroke-width="2" stroke-linecap="round" stroke-linejoin="round" stroke-miterlimit="10" d="
			M527.863,312.722c-1.211-0.885-2.829-0.254-4.015,0.371c-2.063,1.14-3.872,2.727-5.533,4.386c-1.444,1.5-2.888,3.163-3.727,5.086
			c-0.306,0.749-0.542,1.614-0.26,2.405c0.161,0.44,0.493,0.797,0.875,1.059c0.776,0.524,1.714,0.751,2.631,0.878
			c1.695,0.21,3.438,0.064,5.083-0.388c4.103-1.136,6.505-4.454,6.602-8.669c0.025-1.199-0.112-2.424-0.551-3.547
			C528.727,313.704,528.387,313.115,527.863,312.722z"/>
	</g>
	<g id="POLYLINE_00000146478602306532961650000012666635682679624112_">
		<path fill="none" stroke="#FB8604" stroke-width="2" stroke-linecap="round" stroke-linejoin="round" stroke-miterlimit="10" d="
			M485.868,389.416c-0.317-0.541-0.923-0.828-1.509-0.983c-0.678-0.176-1.388-0.204-2.084-0.158
			c-0.886,0.062-1.769,0.253-2.601,0.563c-0.79,0.298-1.553,0.709-2.17,1.291c-0.449,0.425-0.805,0.948-1.045,1.517
			c-0.42,0.994-0.503,2.114-0.316,3.172c0.144,0.794,0.434,1.579,0.937,2.217c0.451,0.577,1.115,0.974,1.855,1.006
			c0.958,0.048,1.861-0.403,2.627-0.939c1.269-0.911,2.34-2.092,3.215-3.381c0.57-0.868,1.087-1.812,1.273-2.844
			c0.079-0.472,0.073-0.983-0.157-1.414l-0.013-0.023C485.881,389.439,485.868,389.416,485.868,389.416z"/>
	</g>
	<g id="POLYLINE_00000048499310880933583090000003662921828376931456_">
		<path fill="none" stroke="#FB8604" stroke-width="2" stroke-linecap="round" stroke-linejoin="round" stroke-miterlimit="10" d="
			M498.502,365.572l-0.011-0.021l-0.011-0.021l-0.011-0.021l-0.012-0.021l-0.012-0.02l-0.013-0.02l-0.013-0.02l-0.014-0.02
			c-0.215-0.307-0.535-0.522-0.865-0.689c-0.636-0.315-1.339-0.477-2.037-0.583c-1.494-0.212-3.031-0.156-4.512,0.122
			c-1.112,0.217-2.219,0.57-3.178,1.185c-1.096,0.708-2.071,1.771-2.328,3.084c-0.107,0.565-0.031,1.185,0.309,1.661
			c0.588,0.812,1.644,1.139,2.595,1.283c2.449,0.325,4.962-0.378,7.053-1.65c0.759-0.464,1.483-1.007,2.099-1.652
			c0.36-0.382,0.691-0.804,0.905-1.286C498.628,366.475,498.709,365.985,498.502,365.572z"/>
	</g>
	<g id="POLYLINE_00000078766896755612853800000000041260772071403685_">
		<path fill="none" stroke="#FB8604" stroke-width="2" stroke-linecap="round" stroke-linejoin="round" stroke-miterlimit="10" d="
			M233.008,332.474c-0.323-0.414-0.831-0.635-1.333-0.745c-1.266-0.258-2.603-0.017-3.816,0.382
			c-1.478,0.508-2.976,1.379-3.671,2.839c-0.184,0.395-0.295,0.831-0.286,1.269c0.007,0.415,0.127,0.827,0.349,1.178
			c0.459,0.717,1.236,1.168,2.025,1.439c1.451,0.486,3.141,0.398,4.448-0.436c0.662-0.423,1.215-1.004,1.655-1.652
			c0.432-0.642,0.766-1.36,0.93-2.118C233.459,333.913,233.472,333.082,233.008,332.474z"/>
	</g>
	<g id="POLYLINE_00000082337140461809131210000011434546493720716477_">
		<path fill="none" stroke="#FB8604" stroke-width="2" stroke-linecap="round" stroke-linejoin="round" stroke-miterlimit="10" d="
			M213.078,354.539c-0.489-0.245-1.064-0.243-1.586-0.116c-0.567,0.137-1.097,0.404-1.584,0.721
			c-0.665,0.437-1.262,0.982-1.784,1.581c-1.034,1.199-1.847,2.689-1.887,4.302c-0.065,1.897,0.923,3.82,2.564,4.797
			c0.671,0.398,1.452,0.622,2.234,0.602c0.753-0.016,1.5-0.272,2.095-0.735c0.934-0.714,1.42-1.846,1.685-2.962
			c0.266-1.127,0.342-2.303,0.275-3.458c-0.061-0.948-0.217-1.904-0.546-2.798C214.256,355.713,213.827,354.923,213.078,354.539z"/>
	</g>
	<g id="POLYLINE_00000136387315856118209430000014385113606650912440_">
		<path fill="none" stroke="#FB8604" stroke-width="2" stroke-linecap="round" stroke-linejoin="round" stroke-miterlimit="10" d="
			M254.762,309.913c0.382,4.256,1.474,8.447,2.973,12.441c1.512,4.002,3.458,7.863,5.789,11.451
			c3.331,5.094,7.55,9.906,13.156,12.519c3.732,1.763,7.889,2.471,11.991,2.612c3.918,0.112,7.904-0.262,11.658-1.426
			c2.197-0.682,4.312-1.709,6.085-3.188c2.17-1.77,4.13-4.075,6.599-5.452c2.568-1.495,5.571-1.874,8.495-1.92
			c5.608-0.058,11.328,0.878,16.848,1.807c7.834,1.324,20.364,4.241,28.176,4.452c2.242,0.05,4.515-0.09,6.701-0.61
			c2.607-0.604,5.046-1.813,7.231-3.345c2.384-1.663,4.511-3.723,6.171-6.114c1.364-1.962,2.407-4.162,3.027-6.471
			c0.67-2.496,0.869-5.118,0.775-7.695c-0.125-3.239-0.712-6.47-1.644-9.572c-0.889-2.937-2.101-5.802-3.665-8.445"/>
	</g>
	<g id="POLYLINE_00000101074602979578631100000001674072169271729836_">
		<path fill="none" stroke="#FB8604" stroke-width="2" stroke-linecap="round" stroke-linejoin="round" stroke-miterlimit="10" d="
			M537.15,267.034c4.06-0.219,8.44-0.423,11.923-2.755c1.727-1.164,3.039-2.841,4.256-4.506c1.064-1.488,3.009-4.308,4.149-5.668
			c0.961-1.175,2.017-2.306,3.156-3.31c2.578-2.312,5.736-3.874,8.952-5.094c7.251-2.759,15.836-4.256,23.196-6.699
			c1.987-0.68,3.988-1.456,5.788-2.548c1.553-0.937,2.911-2.207,3.904-3.728c1.431-2.116,2.249-5.052,3.095-7.445
			c0.07-0.196,0.217-0.59,0.292-0.785"/>
	</g>
</g>
<g id="_x32_D_x24_AG-ANIMALS">
	<g id="POLYLINE_00000178167496767243965270000005814453478288972176_">
		
			<path fill="none" stroke="#FB8604" stroke-width="2.75" stroke-linecap="round" stroke-linejoin="round" stroke-miterlimit="10" d="
			M424.392,447.034c-15.93-1.669-31.94-5.153-47.366-9.441c-25.605-7.27-57.472-18.341-83.266-24.567
			c-6.445-1.541-13.148-3.047-19.742-3.737c-3.447-0.334-6.99-0.482-10.412,0.146c-1.948,0.363-3.866,1.021-5.544,2.086
			c-1.615,1.013-2.987,2.385-4.154,3.884c-0.99,1.266-1.88,2.671-2.699,4.053c-0.906,1.37-11.947,22.48-13.042,24.516
			c-4.457,8.146-9.294,16.294-15.393,23.325c-4.568,5.33-9.842,10.187-15.272,14.631c-6.699,5.444-13.962,10.536-21.447,14.837
			c-5.558,3.213-11.559,5.961-17.518,8.349c-4.871,1.967-14.27,5.277-18.817,7.741c-2.106,1.132-4.125,2.467-5.918,4.051
			c-1.559,1.365-2.942,2.956-4.177,4.618c-1.322,1.809-2.752,3.724-3.804,5.7c-1.056,1.957-1.881,4.072-2.579,6.181
			c-1.484,4.528-2.609,9.569-3.653,14.229c-1.598,7.398-3.384,16.612-4.672,24.067c-0.285,1.881-0.659,3.961-0.737,5.851
			c-0.048,1.088,0.004,2.196,0.283,3.253c0.198,0.753,0.53,1.48,1.016,2.092c0.49,0.624,1.129,1.123,1.82,1.507
			c2.16,1.163,5.257,1.759,7.598,2.494c1.898,0.576,3.808,1.294,5.593,2.16c1.071,0.527,2.137,1.112,3.085,1.842
			c0.667,0.515,1.264,1.14,1.661,1.888c0.493,0.916,0.704,1.956,0.844,2.978c0.205,1.591,0.251,3.222,0.061,4.817
			c-0.115,0.881-0.297,1.776-0.708,2.57c-0.316,0.617-0.833,1.126-1.461,1.422c-1.02,0.483-2.185,0.518-3.294,0.54
			c0,0-21.818,0.002-21.818,0.002c-0.397,0.001-1.364-0.017-1.742-0.027c-0.746-0.027-1.532-0.069-2.27-0.172
			c-0.914-0.127-1.833-0.346-2.652-0.783c-1.123-0.598-1.992-1.574-2.694-2.618c-0.908-1.379-1.671-2.916-2.402-4.396
			c-0.986-2.119-2.004-4.298-2.479-6.598c-0.757-3.681-0.042-7.492,0.561-11.146l4.492-23.266
			c1.173-6.701,2.308-13.893,2.756-20.667c0.568-7.135,0.263-18.774,0.218-26.038c0.041-2.482,0.05-5.126,0.389-7.576
			c0.2-1.44,0.523-2.886,1.157-4.202c0.849-1.8,2.301-3.226,3.83-4.462c4.908-3.839,12.266-7.971,17.356-11.671
			c4.238-3.015,8.318-6.385,11.855-10.205c3.687-3.987,6.875-8.47,9.637-13.139c4.249-7.253,7.687-15.084,9.468-23.323
			c1.263-5.755,1.74-11.732,1.889-17.614c0.319-10.689-0.573-22.957-1.361-33.663c-0.204-3.527-0.24-7.142,0.532-10.606
			c0.565-2.575,1.513-5.083,2.59-7.485c1.998-4.462,4.716-8.885,7.346-13.012c0.272-0.452,0.554-0.92,0.717-1.424
			c0.108-0.333,0.151-0.696,0.063-1.038c-0.081-0.325-0.265-0.616-0.481-0.869c-0.24-0.28-0.524-0.527-0.815-0.752
			c-0.685-0.533-2.262-1.484-3.002-1.972c-4.73-3.106-9.068-6.972-13.204-10.821c-4.984-4.684-9.95-9.743-14.521-14.832
			c-11.672-13.027-20.573-26.12-21.914-44.069c-0.591-7.733,0.332-15.61,2.783-22.972c1.52-4.561,3.613-8.991,6.354-12.948
			c1.919-2.778,4.225-5.302,6.828-7.453c3.819-3.178,8.261-5.585,12.728-7.72c7.468-3.539,15.296-6.633,23.44-8.177
			c4.666-0.871,9.485-1.268,14.229-1.313c1.541,0.015,3.394-0.02,4.928,0.118c0.477,0.045,0.975,0.096,1.441,0.213
			c0.572,0.138,1.17,0.424,1.453,0.966c0.144,0.284,0.166,0.614,0.115,0.924c-0.227,1.296-1.243,2.262-2.252,3.02
			c-0.862,0.639-1.841,1.18-2.796,1.668c-0.649,0.393-14.471,6.586-15.589,7.097c-4.617,2.181-9.484,4.559-13.886,7.136
			c-3.138,1.844-6.237,3.887-8.945,6.326c-2.801,2.499-5.18,5.489-7.043,8.746c-1.716,2.987-3.085,6.211-4.046,9.519
			c-0.878,3.041-1.419,6.212-1.436,9.38c-0.038,4.241,0.81,8.475,2.213,12.467c0.954,2.714,2.145,5.379,3.572,7.878
			c3.936,6.915,9.732,12.591,15.746,17.713c4.751,3.995,9.862,7.748,15.248,10.845c3.184,1.808,6.531,3.49,10.022,4.615
			c2.017,0.649,4.155,1.069,6.278,0.835c1.318-0.132,2.619-0.478,3.876-0.884c2.115-0.628,9.001-3.501,11.149-4.299
			c9.336-3.635,19.295-6.101,29.129-7.981c8.504-1.645,18.917-3.043,27.573-4.128c11.732-1.328,37.279-4.465,48.606-5.316
			c7.233-0.569,14.945-0.937,22.178-0.888c14.092-0.03,30.307,1.523,44.242-0.633c8.649-1.268,17.148-3.931,25.276-7.112
			c7.578-2.903,16.367-7.051,24.17-9.21c3.734-1.082,8.428-1.838,12.109-3.087c2.335-0.794,4.695-2.234,6.834-3.454
			c1.623-0.933,3.354-1.753,5.129-2.35c4.409-1.524,9.628-2.48,13.679-4.884c1.573-0.909,3.051-2.025,4.322-3.325
			c1.178-1.201,2.192-2.58,3.112-3.985c1.347-2.084,2.769-4.712,4.259-6.698c0.895-1.193,1.934-2.29,3.048-3.28l2.807-2.404
			c3.952-3.53,7.504-7.705,10.893-11.771"/>
	</g>
	<g id="POLYLINE_00000142163985728553086220000003851069500009408395_">
		
			<path fill="none" stroke="#FB8604" stroke-width="2.75" stroke-linecap="round" stroke-linejoin="round" stroke-miterlimit="10" d="
			M427.097,393.448c0.776,5.469,1.795,12.227,2.316,17.684c0.176,1.931,0.321,3.929,0.264,5.867
			c-0.092,2.959-0.789,5.916-1.47,8.787c-0.973,4.157-3.094,10.659-3.987,14.837c-0.204,1.035-0.357,2.1-0.357,3.156
			c-0.025,2.378,0.932,4.588,2.034,6.648c0.797,1.496,2.267,4.089,2.95,5.527c0.763,1.548,1.512,3.267,2.144,4.875
			c2.311,5.924,3.988,12.452,5.539,18.625c3.418,14.15,6.809,30.374,9.415,44.696c0.934,5.459,2.009,11.495,2.386,17.001
			c0.149,2.343,0.19,4.742-0.189,7.065c-0.203,1.424-0.863,3.628-1.218,5.039c-0.512,2.021-1.01,4.189-1.304,6.251
			c-0.226,1.697-0.406,3.462,0.006,5.144c0.22,0.897,0.639,1.749,1.232,2.459c0.728,0.893,1.783,1.626,2.682,2.338
			c0.614,0.488,1.208,1.017,1.693,1.634c0.454,0.569,0.815,1.212,1.098,1.882c0.961,2.33,1.806,6.227,2.496,8.693
			c1.15,4.211,2.502,8.893,3.903,13.012c0.651,1.881,1.342,3.845,2.223,5.631c0.714,1.432,1.636,2.865,3.068,3.663
			c0.602,0.341,1.267,0.571,1.939,0.728c0.887,0.207,1.813,0.3,2.721,0.356c0.674,0.113,25.585,0.07,27.138,0.073
			c0.695-0.025,1.427-0.004,2.079-0.28c0.293-0.124,0.555-0.315,0.767-0.551c0.366-0.408,0.615-0.908,0.833-1.406
			c0.407-0.958,0.693-1.977,0.912-2.993c0.329-1.641,0.577-3.366,0.233-5.025c-0.198-0.937-0.646-1.814-1.273-2.536
			c-0.951-1.092-2.198-1.892-3.467-2.567c-1.754-0.919-3.649-1.594-5.556-2.123c-3.319-0.949-7.162-1.545-10.338-2.924
			c-1.39-0.571-2.827-1.3-4.147-2.02c-0.778-0.441-1.52-0.982-2.071-1.694c-0.652-0.829-1.03-1.837-1.262-2.857
			c-0.342-1.484-0.454-3.075-0.545-4.594c-0.322-8.542-0.208-17.992,0.075-26.543c0.39-8.948,1.744-29.096,2.045-37.892
			c0.504-12.201,0.967-41.19,2.363-52.977c0.442-3.925,1.031-8.013,1.961-11.853c1.229-5.199,3.206-10.252,5.888-14.875
			c3.225-5.604,7.445-10.639,11.851-15.348c5.97-6.375,15.244-15.105,19.794-22.563c1.967-3.177,3.52-6.652,4.636-10.216
			c2.059-6.534,3.02-14.367,4.4-21.061c0.721-3.46,1.598-7.004,3.185-10.184c1.744-3.582,4.495-7.168,6.514-10.563
			c3.449-5.785,7.589-14.411,11.025-20.196c3.977-6.829,8.861-13.615,13.543-19.977c4.664-6.306,9.884-12.358,16.081-17.209"/>
	</g>
	<g id="POLYLINE_00000071542972861228195970000015643733884265915805_">
		
			<path fill="none" stroke="#FB8604" stroke-width="2.75" stroke-linecap="round" stroke-linejoin="round" stroke-miterlimit="10" d="
			M645.418,247.568c-0.318,1.137-1.628,5.474-1.99,6.682c-1.278,4.283-2.31,9.56-4.767,13.327c-1.066,1.667-2.413,3.166-3.985,4.37
			c-1.662,1.279-3.579,2.225-5.584,2.831c-4.026,1.199-8.347,1.139-12.511,1.066c-4.555-0.12-10.843-0.597-15.319-0.189
			c-1.698,0.153-3.396,0.503-4.979,1.146c-1.864,0.727-3.966,2.057-5.771,2.928c-1.385,0.675-2.859,1.196-4.366,1.524
			c-2.099,0.464-4.293,0.674-6.438,0.781c-3.084,0.141-6.237,0.053-9.314-0.189c-2.827-0.236-5.702-0.574-8.464-1.235
			c-1.951-0.45-4.006-1.256-5.874-1.981"/>
	</g>
	<g id="POLYLINE_00000176009114370884052530000002521357278191314608_">
		
			<path fill="none" stroke="#FB8604" stroke-width="2.75" stroke-linecap="round" stroke-linejoin="round" stroke-miterlimit="10" d="
			M542.419,215.37c0.991,3.296,1.884,6.772,1.399,10.233c-0.277,2.064-1.018,4.067-1.786,5.994c-1.184,2.89-2.743,6.342-3.57,9.324
			c-0.46,1.623-0.773,3.308-0.977,4.982c-0.718,6.118-0.253,13.287-0.316,19.457c-0.05,5.942-0.404,12.034-1.395,17.896
			c-0.66,3.779-1.56,7.595-3.182,11.087c-0.634,1.346-1.394,2.652-2.348,3.798c-0.75,0.901-1.626,1.702-2.597,2.359
			c-2.063,1.407-4.518,2.134-6.974,2.47c-2.238,0.297-4.539,0.369-6.793,0.245c-3.545-0.209-7.232-1.121-9.948-3.524
			c-1.577-1.379-2.707-3.196-3.562-5.091c-1.358-3.033-2.124-6.333-2.713-9.593c-1.098-6.133-1.591-13.633-2.185-19.866
			c-0.348-4.569-0.541-9.263-0.076-13.828c0.514-5.243,1.948-10.41,4.032-15.241c1.738-4.001,3.941-7.859,6.677-11.264
			c1.703-2.123,3.683-4.062,5.748-5.831c3.53-3.011,8.225-6.297,11.565-9.512c3.158-2.987,6.542-6.558,10.407-8.617
			c2.134-1.167,4.496-1.899,6.88-2.35c4.836-0.906,9.85-0.834,14.747-0.596c7.488,0.462,15.257,1.082,22.617,2.564
			c4.943,1.018,9.874,2.415,14.458,4.55c2.785,1.332,5.542,2.958,7.556,5.341c0.702,0.842,1.287,1.791,1.665,2.822
			c0.673,1.793,0.816,3.892,1.048,5.786c0.186,1.392,0.426,2.865,1.289,4.016c0.615,0.817,1.487,1.403,2.399,1.843
			c1.604,0.764,3.371,1.177,5.1,1.552c2.795,0.541,8.207,1.593,10.914,2.249l17.644,4.372l1.098,0.275"/>
	</g>
	<g id="POLYLINE_00000174590197716046011170000006201451863328846226_">
		
			<path fill="none" stroke="#FB8604" stroke-width="2.75" stroke-linecap="round" stroke-linejoin="round" stroke-miterlimit="10" d="
			M644.56,248.122c-0.724,0.345-1.559,0.406-2.341,0.262c-1.519-0.286-2.859-1.183-3.95-2.25c-0.883-0.875-1.623-1.911-2.125-3.051
			c-0.626-1.423-0.906-3.004-0.789-4.554c0.12-1.509,0.625-3.103,1.836-4.087c1.209-0.983,2.842-1.194,4.353-1.162
			c1.96,0.063,4.051,0.608,5.437,2.071c0.776,0.812,1.193,1.901,1.358,2.999c0.213,1.401,0.095,2.842-0.22,4.22
			c-0.32,1.355-0.837,2.683-1.639,3.827C645.98,247.1,645.351,247.748,644.56,248.122z"/>
	</g>
</g>
<g id="_x32_D_x24_AG-OUTLINE">
	<g id="POLYLINE_00000025407928203977724520000000721651193132581777_">
		
			<path fill="none" stroke="#FB8604" stroke-width="3.5" stroke-linecap="round" stroke-linejoin="round" stroke-miterlimit="10" d="
			M424.392,447.034c-15.93-1.669-31.94-5.153-47.366-9.441c-25.605-7.27-57.472-18.341-83.266-24.567
			c-6.445-1.541-13.148-3.047-19.742-3.737c-3.447-0.334-6.99-0.482-10.412,0.146c-1.948,0.363-3.866,1.021-5.544,2.086
			c-1.615,1.013-2.987,2.385-4.154,3.884c-0.99,1.266-1.88,2.671-2.699,4.053c-0.906,1.37-11.947,22.48-13.042,24.516
			c-4.457,8.146-9.294,16.294-15.393,23.325c-4.568,5.33-9.842,10.187-15.272,14.631c-6.699,5.444-13.962,10.536-21.447,14.837
			c-5.558,3.213-11.559,5.961-17.518,8.349c-4.871,1.967-14.27,5.277-18.817,7.741c-2.106,1.132-4.125,2.467-5.918,4.051
			c-1.559,1.365-2.942,2.956-4.177,4.618c-1.322,1.809-2.752,3.724-3.804,5.7c-1.056,1.957-1.881,4.072-2.579,6.181
			c-1.484,4.528-2.609,9.569-3.653,14.229c-1.598,7.398-3.384,16.612-4.672,24.067c-0.285,1.881-0.659,3.961-0.737,5.851
			c-0.048,1.088,0.004,2.196,0.283,3.253c0.198,0.753,0.53,1.48,1.016,2.092c0.49,0.624,1.129,1.123,1.82,1.507
			c2.16,1.163,5.257,1.759,7.598,2.494c1.898,0.576,3.808,1.294,5.593,2.16c1.071,0.527,2.137,1.112,3.085,1.842
			c0.667,0.515,1.264,1.14,1.661,1.888c0.493,0.916,0.704,1.956,0.844,2.978c0.205,1.591,0.251,3.222,0.061,4.817
			c-0.115,0.881-0.297,1.776-0.708,2.57c-0.316,0.617-0.833,1.126-1.461,1.422c-1.02,0.483-2.185,0.518-3.294,0.54
			c0,0-21.818,0.002-21.818,0.002c-0.397,0.001-1.364-0.017-1.742-0.027c-0.746-0.027-1.532-0.069-2.27-0.172
			c-0.914-0.127-1.833-0.346-2.652-0.783c-1.123-0.598-1.992-1.574-2.694-2.618c-0.908-1.379-1.671-2.916-2.402-4.396
			c-0.986-2.119-2.004-4.298-2.479-6.598c-0.757-3.681-0.042-7.492,0.561-11.146l4.492-23.266
			c1.173-6.701,2.308-13.893,2.756-20.667c0.568-7.135,0.263-18.774,0.218-26.038c0.041-2.482,0.05-5.126,0.389-7.576
			c0.2-1.44,0.523-2.886,1.157-4.202c0.849-1.8,2.301-3.226,3.83-4.462c4.908-3.839,12.266-7.971,17.356-11.671
			c4.238-3.015,8.318-6.385,11.855-10.205c3.687-3.987,6.875-8.47,9.637-13.139c4.249-7.253,7.687-15.084,9.468-23.323
			c1.263-5.755,1.74-11.732,1.889-17.614c0.319-10.689-0.573-22.957-1.361-33.663c-0.204-3.527-0.24-7.142,0.532-10.606
			c0.565-2.575,1.513-5.083,2.59-7.485c1.998-4.462,4.716-8.885,7.346-13.012c0.272-0.452,0.554-0.92,0.717-1.424
			c0.108-0.333,0.151-0.696,0.063-1.038c-0.081-0.325-0.265-0.616-0.481-0.869c-0.24-0.28-0.524-0.527-0.815-0.752
			c-0.685-0.533-2.262-1.484-3.002-1.972c-4.73-3.106-9.068-6.972-13.204-10.821c-4.984-4.684-9.95-9.743-14.521-14.832
			c-11.672-13.027-20.573-26.12-21.914-44.069c-0.591-7.733,0.332-15.61,2.783-22.972c1.52-4.561,3.613-8.991,6.354-12.948
			c1.919-2.778,4.225-5.302,6.828-7.453c3.819-3.178,8.261-5.585,12.728-7.72c7.468-3.539,15.296-6.633,23.44-8.177
			c4.666-0.871,9.485-1.268,14.229-1.313c1.541,0.015,3.394-0.02,4.928,0.118c0.477,0.045,0.975,0.096,1.441,0.213
			c0.572,0.138,1.17,0.424,1.453,0.966c0.144,0.284,0.166,0.614,0.115,0.924c-0.227,1.296-1.243,2.262-2.252,3.02
			c-0.862,0.639-1.841,1.18-2.796,1.668c-0.649,0.393-14.471,6.586-15.589,7.097c-4.617,2.181-9.484,4.559-13.886,7.136
			c-3.138,1.844-6.237,3.887-8.945,6.326c-2.801,2.499-5.18,5.489-7.043,8.746c-1.716,2.987-3.085,6.211-4.046,9.519
			c-0.878,3.041-1.419,6.212-1.436,9.38c-0.038,4.241,0.81,8.475,2.213,12.467c0.954,2.714,2.145,5.379,3.572,7.878
			c3.936,6.915,9.732,12.591,15.746,17.713c4.751,3.995,9.862,7.748,15.248,10.845c3.184,1.808,6.531,3.49,10.022,4.615
			c2.017,0.649,4.155,1.069,6.278,0.835c1.318-0.132,2.619-0.478,3.876-0.884c2.115-0.628,9.001-3.501,11.149-4.299
			c9.335-3.635,19.295-6.101,29.129-7.981c6.972-1.345,15.867-2.622,22.951-3.546c15.755-1.836,37.654-4.624,53.228-5.898
			c9.022-0.737,18.585-1.035,27.631-0.824c12.748,0.213,27.737,1.275,40.254-0.931c8.13-1.325,16.147-3.885,23.81-6.88
			c7.986-3.058,17.032-7.383,25.302-9.515c3.39-0.927,7.848-1.673,11.157-2.846c2.484-0.871,4.948-2.445,7.244-3.718
			c1.658-0.93,3.448-1.684,5.258-2.264c4.289-1.397,9.365-2.421,13.246-4.81c1.464-0.875,2.842-1.937,4.036-3.157
			c1.178-1.201,2.192-2.58,3.112-3.985c1.347-2.085,2.769-4.712,4.259-6.698c0.895-1.193,1.934-2.29,3.048-3.28l2.807-2.404
			c3.952-3.53,7.504-7.705,10.893-11.771c1.958-5.584,4.754-10.939,8.528-15.514c2.266-2.739,4.99-5.136,7.767-7.344
			c1.955-1.559,5.727-4.414,7.52-6.031c1.919-1.69,4.578-4.383,6.49-6.083c1.85-1.647,3.847-3.183,6.064-4.304
			c2.675-1.364,5.649-2.061,8.613-2.441c4.673-0.585,9.491-0.431,14.183-0.148c10.465,0.72,21.199,1.7,31.133,5.263
			c3.251,1.182,6.485,2.614,9.267,4.695c1.727,1.309,3.311,2.935,4.133,4.972c0.778,1.873,0.891,4.046,1.146,6.038
			c0.158,1.19,0.356,2.418,0.942,3.481c0.369,0.671,0.918,1.233,1.54,1.674c0.783,0.556,1.676,0.948,2.578,1.267
			c0.887,0.31,1.832,0.56,2.746,0.772c3.346,0.725,8.588,1.656,11.896,2.466l17.644,4.372l1.098,0.275
			c2.256,0.01,4.77,0.663,6.15,2.578c0.467,0.652,0.746,1.425,0.897,2.209c0.194,1.013,0.195,2.061,0.078,3.084
			c-0.169,1.422-0.566,2.832-1.208,4.114c-0.438,0.862-0.995,1.684-1.741,2.309c-0.318,1.137-1.628,5.474-1.99,6.682
			c-1.278,4.283-2.31,9.56-4.767,13.327c-1.066,1.667-2.413,3.166-3.985,4.37c-1.662,1.279-3.579,2.225-5.584,2.831
			c-4.026,1.199-8.347,1.139-12.511,1.066c-3.486-0.099-9.528-0.447-12.931-0.331c-1.451,0.045-2.934,0.147-4.363,0.413
			c-1.407,0.261-2.781,0.727-4.074,1.339c-2.109,0.998-4.376,2.485-6.58,3.264c-1.715,0.634-3.539,0.98-5.349,1.207
			c-2.609,0.319-5.313,0.397-7.939,0.352c-6.198,4.853-11.417,10.899-16.081,17.209c-4.69,6.387-9.564,13.144-13.543,19.977
			c-3.412,5.766-7.592,14.412-11.025,20.196c-2.006,3.337-4.81,7.078-6.514,10.563c-1.587,3.182-2.463,6.717-3.185,10.184
			c-1.381,6.696-2.349,14.57-4.4,21.061c-1.116,3.566-2.669,7.038-4.636,10.216c-4.517,7.452-13.802,16.131-19.794,22.563
			c-4.406,4.711-8.625,9.743-11.851,15.348c-2.682,4.623-4.659,9.675-5.888,14.875c-0.928,3.841-1.521,7.923-1.961,11.853
			c-1.38,11.601-1.871,40.894-2.363,52.977c-0.299,8.762-1.656,28.984-2.045,37.892c-0.28,8.551-0.397,17.999-0.075,26.543
			c0.094,1.515,0.203,3.111,0.545,4.594c0.233,1.019,0.61,2.029,1.262,2.857c0.588,0.759,1.39,1.321,2.224,1.78
			c1.276,0.674,2.658,1.391,3.994,1.934c3.172,1.383,7.02,1.983,10.338,2.924c1.907,0.526,3.801,1.204,5.556,2.123
			c1.269,0.676,2.516,1.475,3.467,2.567c0.627,0.721,1.075,1.6,1.273,2.536c0.344,1.659,0.096,3.383-0.233,5.025
			c-0.226,1.045-0.521,2.095-0.949,3.077c-0.21,0.469-0.451,0.939-0.797,1.323c-0.244,0.271-0.555,0.484-0.901,0.603
			c-0.619,0.221-1.297,0.209-1.945,0.228c-1.668-0.031-26.383,0.075-27.138-0.073c-0.908-0.056-1.834-0.149-2.721-0.356
			c-0.672-0.158-1.337-0.387-1.939-0.728c-1.433-0.798-2.354-2.23-3.068-3.663c-0.881-1.786-1.572-3.75-2.223-5.631
			c-1.399-4.115-2.754-8.807-3.903-13.012c-0.689-2.464-1.53-6.347-2.496-8.693c-0.283-0.669-0.644-1.313-1.098-1.882
			c-0.485-0.617-1.08-1.147-1.693-1.634c-0.906-0.712-1.952-1.45-2.682-2.338c-0.593-0.71-1.012-1.561-1.232-2.459
			c-0.412-1.682-0.231-3.447-0.006-5.144c0.294-2.062,0.793-4.229,1.304-6.251c0.355-1.428,1.012-3.608,1.218-5.039
			c0.379-2.323,0.338-4.723,0.189-7.065c-0.376-5.497-1.452-11.552-2.386-17.001c-2.606-14.322-5.997-30.546-9.415-44.696
			c-1.55-6.167-3.227-12.699-5.539-18.625c-1.346-3.55-3.278-7.133-5.118-10.448C425.31,449.31,424.763,448.188,424.392,447.034z"/>
	</g>
</g>
</svg>
