<?xml version="1.0" encoding="utf-8"?>
<!-- Generator: Adobe Illustrator 25.4.1, SVG Export Plug-In . SVG Version: 6.00 Build 0)  -->
<!DOCTYPE svg PUBLIC "-//W3C//DTD SVG 1.1//EN" "http://www.w3.org/Graphics/SVG/1.1/DTD/svg11.dtd" [
	<!ENTITY ns_extend "http://ns.adobe.com/Extensibility/1.0/">
	<!ENTITY ns_ai "http://ns.adobe.com/AdobeIllustrator/10.0/">
	<!ENTITY ns_graphs "http://ns.adobe.com/Graphs/1.0/">
	<!ENTITY ns_vars "http://ns.adobe.com/Variables/1.0/">
	<!ENTITY ns_imrep "http://ns.adobe.com/ImageReplacement/1.0/">
	<!ENTITY ns_sfw "http://ns.adobe.com/SaveForWeb/1.0/">
	<!ENTITY ns_custom "http://ns.adobe.com/GenericCustomNamespace/1.0/">
	<!ENTITY ns_adobe_xpath "http://ns.adobe.com/XPath/1.0/">
]>
<svg version="1.1" xmlns:x="&ns_extend;" xmlns:i="&ns_ai;" xmlns:graph="&ns_graphs;"
	 xmlns="http://www.w3.org/2000/svg" xmlns:xlink="http://www.w3.org/1999/xlink" x="0px" y="0px" width="750px" height="750px"
	 viewBox="0 0 750 750" enable-background="new 0 0 750 750" xml:space="preserve">
<metadata>
	<sfw  xmlns="&ns_sfw;">
		<slices></slices>
		<sliceSourceBounds  bottomLeftOrigin="true" height="9932.77" width="8619.459" x="-5036.459" y="-1364"></sliceSourceBounds>
	</sfw>
</metadata>
<g id="FILL-BACKGROUND">
	<rect y="0" fill="#FFFFFF" width="750" height="750"/>
</g>
<g id="N-DIMENSIONS">
</g>
<g id="N-TEXT">
</g>
<g id="_x32_D_x24_AG-DIAGRAM">
	<g id="POLYLINE_00000130616229054012982460000003065611767962583736_">
		<g>
			<g>
				
					<line fill="none" stroke="#FB8604" stroke-width="3.25" stroke-linecap="round" stroke-linejoin="round" x1="146.355" y1="601.684" x2="148.355" y2="601.684"/>
				
					<line fill="none" stroke="#FB8604" stroke-width="3.25" stroke-linecap="round" stroke-linejoin="round" stroke-dasharray="3.9785,6.9623" x1="155.317" y1="601.684" x2="545.706" y2="601.684"/>
				
					<line fill="none" stroke="#FB8604" stroke-width="3.25" stroke-linecap="round" stroke-linejoin="round" x1="549.187" y1="601.684" x2="551.187" y2="601.684"/>
			</g>
		</g>
	</g>
</g>
<g id="_x32_D_x24_AG-DETAILS-DIAGRAM">
</g>
<g id="_x32_D_x24_AG-DETAILS">
</g>
<g id="_x32_D_x24_AG-ANIMALS">
	<g id="POLYLINE_00000032646241030534299360000009190432381062325682_">
		
			<path fill="none" stroke="#FB8604" stroke-width="2.75" stroke-linecap="round" stroke-linejoin="round" stroke-miterlimit="10" d="
			M533.368,234.969c5.47-8.294,9.6-17.513,13.086-26.794c2.35-6.405,4.652-13.015,5.415-19.825c0.278-3.033,0.294-6.42-1.583-8.983
			c-0.714-0.958-1.79-1.772-3.028-1.78c-0.621-0.006-1.223,0.211-1.761,0.508c-1.727,0.973-3.474,2.995-4.921,4.347
			c-5.688,5.591-13.45,8.341-20.916,10.675l-12.383,3.559c-2.809,0.857-5.696,1.818-8.37,3.036
			c-2.339,1.061-4.635,2.395-6.803,3.771c-2.958,1.916-9.167,6.031-12.123,7.718c-4.523,2.689-11.643,6.509-15.81,9.588
			c-0.888,0.689-1.963,1.504-2.533,2.482l-0.02,0.038l-0.019,0.037l-0.018,0.037l-0.017,0.037l-0.016,0.037l-0.015,0.036
			l-0.014,0.036l-0.013,0.036l-0.012,0.035l-0.01,0.035l-0.009,0.035l-0.008,0.034l-0.007,0.034l-0.006,0.034l-0.005,0.033
			l-0.004,0.033l-0.003,0.033l-0.002,0.033l0,0.032l0.001,0.032l0.002,0.032l0.003,0.031l0.004,0.031l0.005,0.031l0.007,0.03
			c0.102,0.397,0.458,0.657,0.778,0.881c0.428,0.296,0.973,0.57,1.346,0.936c0.118,0.118,0.223,0.255,0.277,0.414l0.006,0.02
			l0.006,0.02l0.005,0.02l0.005,0.02l0.004,0.02l0.004,0.02l0.003,0.02l0.003,0.02l0.002,0.021l0.002,0.021l0.001,0.021l0.001,0.021
			l0,0.021l0,0.021l-0.001,0.021l-0.001,0.021l-0.002,0.022l-0.002,0.022l-0.003,0.022l-0.003,0.022l-0.004,0.022l-0.004,0.022
			l-0.005,0.022l-0.005,0.022l-0.006,0.023l-0.006,0.023c-0.11,0.376-0.351,0.699-0.602,0.994c-0.594,0.676-1.317,1.24-2.042,1.769
			c-2.611,1.851-5.508,3.375-8.397,4.744c-2.11,1.019-6.325,2.627-8.537,3.518c-1.355,0.573-2.747,1.178-3.977,1.991
			c-0.511,0.347-1.014,0.737-1.374,1.244c-0.157,0.225-0.282,0.478-0.328,0.75c-0.055,0.319-0.001,0.646,0.069,0.958
			c0.157,0.655,0.362,1.364,0.232,2.039c-0.085,0.484-0.303,0.936-0.558,1.352c-0.418,0.672-0.953,1.275-1.516,1.829
			c-1.85,1.781-4.056,3.177-6.372,4.27c-1.726,0.813-3.593,1.387-5.44,1.858c-2.548,0.647-5.671,1.244-8.064,2.287
			c-1.356,0.576-2.611,1.397-3.789,2.276c-2.141,1.608-4.403,3.545-6.797,4.756c-4.036,2.161-9.155,2.356-13.611,2.978
			c-0.884,0.13-1.811,0.27-2.664,0.539c-0.342,0.113-0.688,0.246-0.977,0.465l-0.022,0.017l-0.022,0.018l-0.021,0.018l-0.02,0.018
			l-0.02,0.018l-0.019,0.018l-0.018,0.019l-0.018,0.019l-0.017,0.019l-0.017,0.019l-0.016,0.019l-0.015,0.02l-0.015,0.02
			l-0.014,0.02l-0.013,0.02l-0.013,0.02l-0.012,0.02l-0.011,0.021l-0.011,0.021l-0.01,0.021l-0.009,0.021
			c-0.154,0.394,0.012,0.821,0.149,1.195c0.227,0.613,0.619,1.317,0.418,1.983l-0.008,0.024l-0.008,0.023l-0.009,0.023l-0.009,0.023
			l-0.01,0.023l-0.011,0.023l-0.011,0.023l-0.012,0.023l-0.012,0.023l-0.013,0.023l-0.013,0.023l-0.014,0.022l-0.014,0.022
			l-0.015,0.022c-0.264,0.385-0.667,0.649-1.071,0.868c-0.925,0.484-1.949,0.767-2.96,1.006c-2.566,0.575-5.223,0.829-7.848,0.936
			c-2.198,0.112-5.975-0.082-8.207-0.151c-3.582-0.132-7.203,0.335-10.72,0.986c-6.831,1.268-15.504,3.227-22.379,3.591
			c-8.255,0.513-16.591-0.714-24.654-2.418"/>
	</g>
	<g id="POLYLINE_00000120522331811546483930000015106009235593652367_">
		
			<path fill="none" stroke="#FB8604" stroke-width="2.75" stroke-linecap="round" stroke-linejoin="round" stroke-miterlimit="10" d="
			M274.881,443.961c0.729,1.526,1.636,2.997,2.796,4.233c0.627,0.648,1.35,1.264,2.229,1.526c0.67,0.201,1.308,0.072,1.914-0.249
			c1.421-0.772,2.549-2.142,3.925-2.982c0.473-0.291,0.993-0.529,1.546-0.608c0.489-0.071,0.99-0.004,1.46,0.14
			c0.659,0.203,1.272,0.542,1.847,0.918c2.012,1.336,4.143,3.534,5.968,5.12c1.224,1.075,2.513,2.137,3.935,2.94
			c1.219,0.687,2.55,1.201,3.926,1.464c1.541,0.289,3.181,0.291,4.666-0.256c0.855-0.297,1.603-0.92,2.307-1.47
			c0.427-0.324,0.891-0.621,1.413-0.763c0.485-0.137,0.998-0.134,1.492-0.052c1.298,0.228,2.518,0.802,3.688,1.389
			c3.008,1.566,5.873,3.578,8.602,5.587c1.488,1.102,3.318,2.549,4.76,3.725c0.327,0.258,0.684,0.544,1.034,0.769
			c0.236,0.15,0.485,0.295,0.758,0.363c0.181,0.046,0.379,0.045,0.552-0.033c0.185-0.082,0.327-0.235,0.444-0.397
			c0.203-0.285,0.353-0.613,0.496-0.931c0.43-0.974,0.818-2.137,1.482-2.978c0.218-0.269,0.482-0.513,0.803-0.65
			c0.318-0.139,0.675-0.168,1.018-0.131c0.675,0.077,1.307,0.364,1.896,0.69c2.772,1.603,5.118,4.325,7.331,6.609
			c0.703,0.697,1.441,1.4,2.322,1.867c0.494,0.259,1.05,0.427,1.612,0.395c0.491-0.023,0.962-0.2,1.385-0.443
			c1.755-1.053,3.293-3.04,4.704-4.517c0.738-0.768,1.491-1.58,2.423-2.115c0.44-0.25,0.963-0.387,1.463-0.255
			c0.397,0.099,0.75,0.328,1.06,0.59c0.565,0.483,1.034,1.085,1.486,1.672c2.195,3.071,4.658,6.082,7.656,8.4
			c1.336,1.013,2.801,2.011,4.47,2.348c0.526,0.097,1.081,0.101,1.593-0.069c0.717-0.235,1.306-0.741,1.837-1.26
			c0.457-0.426,0.983-1.074,1.534-1.371c0.137-0.073,0.287-0.126,0.442-0.138c0.401-0.03,0.768,0.185,1.083,0.41
			c0.91,0.693,1.721,1.621,2.675,2.258c1.284,0.893,2.743,1.527,4.225,2.012c2.54,0.815,5.208,1.244,7.863,1.449
			c3.329,0.239,6.72,0.085,9.984-0.638"/>
	</g>
	<g id="POLYLINE_00000164510896525342495080000007229609094598550414_">
		
			<path fill="none" stroke="#FB8604" stroke-width="2.75" stroke-linecap="round" stroke-linejoin="round" stroke-miterlimit="10" d="
			M209.964,516.949l7.737-9.108c5.817-6.814,13.219-12.651,19.098-19.405c5.062-5.607,10.379-13.966,14.668-20.258
			c1.541-2.194,3.121-4.572,4.987-6.501c0.368-0.363,0.759-0.724,1.212-0.98l0.039-0.021l0.039-0.02l0.038-0.019l0.038-0.018
			l0.038-0.017l0.037-0.016l0.037-0.014l0.036-0.013l0.036-0.012l0.035-0.011l0.035-0.01l0.035-0.008l0.034-0.007l0.034-0.006
			l0.033-0.005l0.033-0.004l0.032-0.002l0.032-0.001l0.031,0l0.031,0.001l0.031,0.003c0.267,0.028,0.482,0.213,0.653,0.407
			c0.445,0.503,0.763,1.217,1.437,1.452l0.029,0.009l0.029,0.009l0.03,0.008l0.03,0.007l0.03,0.006l0.031,0.006l0.031,0.005
			l0.031,0.004l0.032,0.004l0.032,0.003l0.033,0.002l0.033,0.002l0.033,0.001l0.034,0l0.034,0l0.034-0.001l0.035-0.001l0.035-0.002
			c0.698-0.06,1.338-0.397,1.928-0.753c1.441-0.908,2.684-2.118,3.833-3.367c2.762-3.07,5.037-6.605,6.641-10.412
			c1.631-3.778,2.53-8.281,3.643-12.227c0.159-0.475,0.312-0.978,0.61-1.387l0.014-0.018l0.014-0.018l0.014-0.017l0.014-0.016
			l0.015-0.016l0.015-0.015l0.015-0.014l0.015-0.014l0.015-0.013l0.015-0.012l0.015-0.012l0.015-0.011l0.015-0.01l0.015-0.01
			l0.015-0.009l0.015-0.008l0.015-0.008l0.015-0.007l0.015-0.006l0.015-0.005l0.015-0.005l0.016-0.004l0.016-0.003l0.016-0.003
			l0.016-0.002l0.016-0.001l0.016-0.001l0.016,0c0.201,0.013,0.366,0.152,0.518,0.272c0.263,0.213,0.528,0.495,0.849,0.618
			c0.082,0.03,0.171,0.047,0.259,0.04l0.021-0.002l0.021-0.003l0.021-0.004l0.021-0.005l0.021-0.005l0.021-0.006l0.021-0.007
			l0.021-0.008l0.021-0.009l0.021-0.009l0.021-0.01l0.021-0.011l0.021-0.012l0.021-0.013l0.021-0.013l0.021-0.014l0.021-0.015
			l0.021-0.016l0.021-0.017l0.021-0.017l0.021-0.018l0.021-0.019l0.021-0.02l0.021-0.02c0.516-0.547,0.803-1.293,1.08-1.982
			c0.563-1.497,0.971-3.105,1.337-4.661c0.709-3.103,1.281-6.427,1.73-9.577c0.671-4.725,1.087-9.576,0.486-14.33
			c-0.454-3.694-1.375-7.35-2.555-10.876c-1.321-3.904-3.005-7.73-5.132-11.264"/>
	</g>
	<g id="POLYLINE_00000150068280403518417620000011026358996217627552_">
		
			<path fill="none" stroke="#FB8604" stroke-width="2.75" stroke-linecap="round" stroke-linejoin="round" stroke-miterlimit="10" d="
			M224.197,280.825c2.329-2.117,4.777-4.244,7.675-5.541c1.591-0.708,3.354-1.119,5.1-0.937c2.416,0.257,4.586,1.543,6.483,2.993
			c3.623,2.85,6.566,6.515,9.077,10.358c0.803,1.216,1.701,2.919,2.496,4.145c0.177,0.262,0.369,0.526,0.587,0.756
			c0.192,0.201,0.413,0.387,0.675,0.486c0.343,0.134,0.717,0.056,1.029-0.122c0.589-0.338,1.06-0.852,1.517-1.346
			c1.038-1.159,2.301-2.827,3.432-3.886c0.353-0.327,0.732-0.64,1.155-0.871c0.333-0.181,0.71-0.303,1.092-0.278
			c0.391,0.021,0.761,0.194,1.065,0.434c0.861,0.702,1.345,1.763,1.745,2.775c1.413,3.91,1.631,8.159,1.769,12.279l0.131,10.273
			c0.052,1.362,0.105,2.778,0.359,4.119c0.087,0.424,0.192,0.856,0.392,1.243l0.018,0.033l0.018,0.032l0.019,0.031l0.019,0.031
			l0.019,0.03l0.019,0.029l0.02,0.028l0.02,0.027l0.02,0.026l0.021,0.025l0.021,0.024l0.021,0.023l0.021,0.022l0.022,0.021
			l0.022,0.019l0.022,0.018l0.023,0.017l0.023,0.016l0.023,0.015l0.024,0.014l0.024,0.013l0.024,0.012l0.025,0.011l0.025,0.01
			l0.025,0.009l0.026,0.008l0.026,0.007l0.026,0.006l0.026,0.004l0.027,0.003l0.027,0.002l0.017,0.001l0.017,0l0.017,0l0.018-0.001
			l0.018-0.001l0.018-0.001l0.018-0.002l0.018-0.002l0.018-0.003l0.018-0.003l0.018-0.003l0.019-0.004l0.019-0.004l0.019-0.005
			l0.019-0.005c0.326-0.095,0.607-0.302,0.871-0.51c1.334-1.12,2.462-2.605,3.793-3.73c0.4-0.336,0.827-0.658,1.306-0.872
			c0.351-0.157,0.745-0.236,1.127-0.17c0.401,0.066,0.764,0.277,1.065,0.542c0.635,0.568,1.059,1.332,1.419,2.095
			c0.587,1.281,0.985,2.665,1.316,4.032c0.925,3.819,1.309,8.629,1.855,12.534c0.238,1.562,0.466,3.181,1.04,4.66
			c0.178,0.431,0.394,0.863,0.73,1.193l0.023,0.022l0.023,0.021l0.023,0.02l0.023,0.02l0.023,0.019l0.024,0.019l0.024,0.018
			l0.024,0.017l0.024,0.017l0.024,0.016l0.025,0.015c0.036,0.022,0.078,0.045,0.116,0.063l0.02,0.009l0.02,0.009l0.02,0.008
			l0.02,0.008l0.02,0.008l0.02,0.007l0.02,0.007l0.02,0.007l0.021,0.006l0.021,0.006l0.021,0.006
			c0.343,0.089,0.706,0.02,1.028-0.114c0.516-0.216,0.961-0.573,1.367-0.953c0.925-0.886,1.672-1.95,2.345-3.035
			c1.414-2.299,2.463-4.845,3.4-7.37l2.733-7.714c0.498-1.306,1.005-2.667,1.727-3.867c0.199-0.318,0.418-0.632,0.698-0.883
			l0.027-0.023l0.027-0.022l0.027-0.021l0.027-0.021l0.027-0.02l0.027-0.019l0.027-0.018l0.027-0.017l0.027-0.016l0.027-0.015
			l0.027-0.014l0.027-0.014l0.027-0.013l0.027-0.012l0.027-0.011l0.027-0.01l0.027-0.009l0.027-0.008l0.027-0.007l0.027-0.006
			l0.027-0.005l0.027-0.004l0.027-0.003l0.027-0.002l0.027-0.001l0.027,0l0.027,0.001l0.027,0.002l0.027,0.003l0.027,0.004
			l0.027,0.005l0.027,0.006l0.014,0.003l0.014,0.004l0.014,0.004l0.014,0.004l0.014,0.005c0.486,0.175,0.863,0.707,1.158,1.113
			c0.541,0.757,1.058,1.783,1.681,2.476c0.113,0.118,0.236,0.232,0.384,0.305l0.012,0.006l0.012,0.005l0.012,0.005l0.012,0.005
			l0.012,0.004l0.012,0.004l0.012,0.004l0.012,0.004l0.015,0.004l0.015,0.004l0.015,0.003l0.015,0.003l0.015,0.002l0.015,0.002
			l0.015,0.002l0.015,0.001l0.015,0.001l0.015,0l0.014,0l0.014-0.001l0.014-0.001l0.014-0.002l0.014-0.002l0.014-0.002l0.014-0.003
			l0.014-0.003l0.014-0.004l0.014-0.004l0.014-0.005l0.014-0.005l0.014-0.005l0.014-0.006l0.014-0.006l0.014-0.007l0.014-0.007
			l0.014-0.007l0.014-0.008l0.014-0.008l0.014-0.009L304.06,318l0.014-0.009l0.014-0.01l0.014-0.01l0.014-0.011
			c0.207-0.164,0.356-0.391,0.49-0.616c0.305-0.531,0.535-1.123,0.753-1.694c0.65-1.744,1.291-3.805,2.096-5.478
			c0.655-1.409,1.892-3.266,2.721-4.597c1.023-1.642,1.857-3.444,2.13-5.373c0.164-1.065,0.174-2.162,0.111-3.236
			c-0.175-2.965-0.923-6.459-1.457-9.398c-0.191-1.119-0.427-2.363-0.453-3.497c-0.002-0.288,0.006-0.584,0.076-0.865l0.007-0.028
			l0.008-0.027l0.008-0.026l0.009-0.026l0.009-0.025l0.009-0.024l0.01-0.024l0.01-0.023l0.01-0.022l0.011-0.021l0.011-0.021
			l0.012-0.02l0.012-0.019l0.012-0.018l0.013-0.018l0.013-0.017l0.014-0.016l0.014-0.015l0.014-0.015l0.015-0.014l0.015-0.013
			l0.016-0.012l0.016-0.011l0.017-0.011l0.017-0.01l0.017-0.009l0.018-0.008l0.018-0.007l0.01-0.004l0.01-0.003l0.01-0.003
			l0.01-0.003l0.011-0.003l0.011-0.002l0.011-0.002l0.011-0.002l0.011-0.002l0.011-0.002l0.011-0.001l0.011-0.001l0.012-0.001
			l0.012-0.001l0.012-0.001l0.012,0c0.149-0.002,0.296,0.04,0.436,0.09c0.785,0.31,1.52,0.868,2.27,1.25
			c0.43,0.215,0.955,0.474,1.446,0.385l0.028-0.006l0.028-0.007l0.028-0.008l0.027-0.009l0.027-0.01l0.026-0.011l0.026-0.012
			l0.026-0.013l0.025-0.014l0.025-0.014l0.025-0.015l0.024-0.016l0.024-0.017l0.023-0.018l0.023-0.019l0.023-0.02l0.022-0.021
			l0.022-0.021l0.022-0.022l0.021-0.023l0.021-0.024l0.021-0.025l0.02-0.026l0.02-0.026l0.019-0.027l0.019-0.028l0.019-0.029
			l0.018-0.03l0.018-0.03l0.018-0.031l0.017-0.032l0.017-0.033c0.387-0.812,0.429-1.77,0.464-2.657
			c0.036-1.828-0.165-3.715-0.392-5.529c-0.473-3.611-1.245-7.533-2.013-11.099c-0.894-3.968-1.901-8.149-4.573-11.335
			c-2.843-3.415-7.305-5.342-11.08-7.529c-0.659-0.386-1.345-0.795-1.945-1.269c-0.357-0.295-0.746-0.621-0.889-1.078
			c-0.081-0.268-0.022-0.558,0.098-0.805c0.258-0.539,0.875-1.236,1.228-1.721c0.605-0.809,1.198-1.659,1.585-2.597
			c0.27-0.667,0.445-1.43,0.202-2.131l-0.012-0.034l-0.013-0.034l-0.014-0.034l-0.014-0.034l-0.015-0.034l-0.016-0.034
			c-0.411-0.839-1.257-1.351-2.074-1.737c-2.273-1.001-4.797-1.306-7.252-1.518c-4.229-0.314-8.535-0.079-12.743,0.404
			c-3.86,0.408-11.257,1.662-15.106,1.833c-1.123,0.028-2.459,0.072-3.503-0.363l-0.038-0.017l-0.037-0.018l-0.036-0.018
			l-0.036-0.019l-0.035-0.019l-0.034-0.02l-0.033-0.02l-0.032-0.021l-0.031-0.021l-0.03-0.022l-0.03-0.022l-0.029-0.022
			l-0.028-0.023l-0.027-0.023l-0.026-0.024l-0.025-0.024l-0.024-0.025l-0.023-0.025l-0.022-0.026l-0.021-0.026l-0.021-0.027
			l-0.02-0.027l-0.019-0.028l-0.018-0.028l-0.017-0.029l-0.016-0.029c-0.262-0.527-0.105-1.182,0.013-1.73
			c0.153-0.673,0.404-1.437,0.374-2.13c-0.011-0.201-0.051-0.403-0.14-0.585l-0.015-0.029l-0.016-0.029l-0.017-0.029l-0.017-0.028
			l-0.018-0.028l-0.019-0.027l-0.02-0.027l-0.021-0.027l-0.021-0.026l-0.022-0.026l-0.023-0.025l-0.024-0.025l-0.025-0.025
			l-0.025-0.024l-0.026-0.024l-0.027-0.023l-0.028-0.023l-0.028-0.023l-0.029-0.022l-0.03-0.022l-0.031-0.021l-0.031-0.021
			l-0.032-0.021l-0.033-0.02l-0.034-0.02l-0.034-0.019c-0.779-0.409-1.69-0.463-2.554-0.472c-2.113,0.022-4.213,0.484-6.238,1.058
			c-4.157,1.219-8.147,3.085-11.72,5.538c-6.743,4.605-12.215,11.474-17.456,17.67c-1.436,1.64-2.926,3.332-4.846,4.414
			c-1.317,0.744-2.805,1.475-4.042,2.339c-1.592,1.078-3.112,2.387-4.542,3.673c-5.05,4.667-9.919,9.787-13.934,15.38
			c-0.701,1.014-1.396,2.084-1.938,3.192c-0.276,0.576-0.533,1.179-0.645,1.811l-0.01,0.061l-0.008,0.06l-0.007,0.059l-0.006,0.058
			l-0.005,0.057l-0.003,0.056l-0.002,0.055l0,0.054l0.001,0.053l0.002,0.052l0.004,0.051l0.005,0.05l0.006,0.049l0.008,0.048
			l0.009,0.047l0.011,0.046l0.012,0.044l0.014,0.043l0.015,0.042l0.016,0.041l0.018,0.04l0.019,0.039l0.021,0.038l0.022,0.037
			l0.024,0.036l0.013,0.018l0.013,0.018l0.014,0.017l0.014,0.017l0.015,0.017l0.015,0.016l0.015,0.016l0.016,0.016l0.016,0.016
			l0.017,0.015l0.017,0.015l0.017,0.015l0.018,0.014l0.018,0.014l0.018,0.014l0.019,0.014l0.019,0.013l0.019,0.013l0.02,0.013
			c0.251,0.157,0.544,0.234,0.833,0.283c0.703,0.111,1.436,0.071,2.143,0.029c1.275-0.075,2.943-0.327,4.201-0.134
			c0.257,0.045,0.515,0.114,0.741,0.248l0.02,0.012l0.019,0.012l0.024,0.016l0.024,0.016l0.023,0.017l0.022,0.017l0.022,0.018
			l0.021,0.018l0.021,0.019l0.02,0.019l0.02,0.019l0.019,0.02l0.018,0.02l0.018,0.021l0.017,0.021l0.017,0.021l0.016,0.022
			l0.016,0.022l0.015,0.023l0.015,0.023l0.014,0.023l0.014,0.024l0.013,0.024l0.012,0.025l0.012,0.025l0.011,0.025l0.011,0.026
			l0.01,0.026l0.01,0.026l0.009,0.027l0.009,0.027l0.008,0.028l0.008,0.028l0.007,0.028l0.007,0.029l0.006,0.029l0.006,0.029
			l0.005,0.03l0.005,0.03c0.081,0.604-0.089,1.209-0.283,1.776c-0.786,2.091-2.095,3.97-3.369,5.79
			c-2.986,4.205-7.04,8.604-10.278,12.63c-1.929,2.413-3.782,5.01-5.438,7.617c-3.383,5.317-6.439,11.281-9.217,16.944
			c-2.971,6.175-5.994,12.855-8.371,19.277c-0.806,2.253-1.661,4.649-2.127,7c-0.1,0.553-0.193,1.133-0.176,1.698l0.003,0.065
			l0.004,0.063l0.005,0.061l0.006,0.059l0.008,0.057l0.009,0.055l0.01,0.053l0.011,0.051l0.012,0.049l0.014,0.047l0.015,0.045
			l0.016,0.042l0.017,0.04l0.019,0.038l0.02,0.036l0.021,0.034l0.022,0.032l0.024,0.029l0.025,0.027l0.026,0.025l0.027,0.023
			l0.029,0.02l0.03,0.018l0.031,0.016l0.033,0.014l0.034,0.011l0.013,0.004l0.013,0.003l0.013,0.003l0.013,0.003l0.014,0.002
			l0.014,0.002l0.014,0.002l0.014,0.001l0.014,0.001l0.014,0.001l0.015,0.001l0.015,0l0.015,0l0.015,0l0.015-0.001
			c0.479-0.041,0.952-0.351,1.352-0.603c1.031-0.672,2.103-1.646,3.127-2.327c0.149-0.094,0.305-0.189,0.472-0.246l0.019-0.006
			l0.018-0.005l0.018-0.005l0.017-0.004l0.017-0.003l0.017-0.003l0.016-0.002l0.016-0.002l0.015-0.001l0.015,0l0.014,0l0.014,0.001
			l0.013,0.002l0.013,0.002l0.013,0.003l0.012,0.003l0.012,0.004l0.011,0.005l0.011,0.005l0.01,0.006l0.01,0.007l0.01,0.007
			l0.009,0.008l0.009,0.008l0.008,0.009l0.008,0.01l0.007,0.01l0.007,0.011l0.007,0.011l0.006,0.012l0.006,0.012l0.005,0.013
			l0.005,0.014l0.005,0.014l0.004,0.015l0.004,0.015l0.003,0.016l0.003,0.017l0.003,0.017l0.002,0.018l0.002,0.018l0.001,0.019
			l0.001,0.019l0.001,0.02l0,0.021c-0.001,0.188-0.039,0.376-0.081,0.558c-0.241,0.969-0.682,1.998-1.055,2.927
			c-4.624,10.553-9.136,21.717-11.394,33.03c-0.379,2.034-0.707,4.123-0.682,6.197c0.023,0.867,0.093,1.762,0.431,2.57l0.023,0.052
			l0.024,0.051l0.024,0.05l0.025,0.049l0.026,0.048l0.026,0.046l0.027,0.045l0.028,0.044l0.028,0.043l0.029,0.042l0.03,0.041
			l0.03,0.039c0.368,0.48,0.955,0.714,1.527,0.852c0.53,0.143,1.228,0.204,1.643,0.596l0.014,0.014l0.014,0.015l0.014,0.015
			l0.013,0.015l0.013,0.016l0.013,0.016l0.013,0.016l0.012,0.016l0.012,0.017l0.012,0.017l0.012,0.017l0.011,0.018l0.011,0.018
			l0.011,0.018c0.327,0.593,0.23,1.395,0.145,2.043c-0.101,0.679-0.27,1.388-0.439,2.054c-0.703,2.63-1.826,6.468-2.34,9.112
			c-1.893,8.908-3.056,23.654-4.439,32.722c-0.344,2.339-1.138,5.892-1.179,8.213c-0.009,0.648,0.033,1.307,0.195,1.937
			c0.22,0.908,0.747,1.65,1.42,2.281c0.824,0.805,1.995,1.531,2.697,2.454c0.68,0.888,0.733,2.058,0.7,3.134
			c-0.069,1.672-0.321,4.118-0.392,5.786c-0.143,2.866-0.153,6.237-0.111,9.114c0.125,5.567,0.388,11.369,1.269,16.868
			c0.239,1.405,0.524,2.852,0.972,4.207c0.216,0.632,0.464,1.273,0.844,1.826l0.036,0.05l0.036,0.048l0.036,0.047l0.036,0.045
			l0.036,0.043l0.037,0.042l0.037,0.04l0.037,0.038l0.037,0.037l0.038,0.035l0.038,0.033l0.038,0.032l0.038,0.03l0.039,0.028
			l0.039,0.026l0.039,0.025l0.039,0.023l0.04,0.021l0.04,0.019l0.04,0.017c0.398,0.167,0.844,0.045,1.217-0.132
			c0.691-0.32,1.326-0.889,2.025-1.192c0.154-0.063,0.319-0.111,0.486-0.111l0.019,0l0.019,0.001l0.018,0.001l0.018,0.002
			l0.018,0.002l0.018,0.002l0.018,0.003l0.018,0.003l0.018,0.004l0.018,0.004l0.018,0.005l0.017,0.005l0.017,0.005l0.017,0.006
			l0.017,0.006l0.017,0.007l0.017,0.007l0.017,0.007l0.017,0.008l0.017,0.008l0.017,0.009l0.016,0.009l0.016,0.009l0.016,0.01
			l0.016,0.01l0.016,0.01l0.016,0.011l0.016,0.011l0.016,0.012l0.016,0.012c0.283,0.224,0.463,0.551,0.613,0.873
			c0.221,0.487,0.374,1.012,0.508,1.529c0.413,1.598,0.926,4.927,1.232,6.587c0.111,0.587,0.351,1.766,0.478,2.35
			c0.921,4.136,2.393,9.763,2.791,13.915c0.302,2.794,0.23,5.655-0.025,8.451c-0.47,5.142-1.796,12.528-2.163,17.664
			c-0.377,4.973-0.398,10.057,0.082,15.022c0.354,3.453,0.913,6.954,2.159,10.208c1.041,2.787,2.739,5.375,4.421,7.816
			c1.625,2.264,3.373,4.587,5.257,6.64c1.107,1.195,2.298,2.357,3.652,3.271c0.784,0.527,1.639,0.964,2.549,1.224
			c0.918,0.269,1.888,0.339,2.84,0.348c1.444-0.05,26.044,0.123,26.543-0.105c0.8-0.098,1.602-0.301,2.306-0.702
			c1.239-0.687,2.026-1.936,2.579-3.203c0.693-1.591,1.124-3.304,1.43-5.009c0.367-2.112,0.533-4.284,0.398-6.425
			c-0.123-2.026-0.527-4.044-1.128-5.981c-0.318-1.011-0.644-2.055-1.167-2.981c-0.724-1.322-1.975-2.245-3.276-2.953
			c-1.878-1.022-3.93-1.724-6.006-2.218l-2.987-0.676c-1.217-0.303-2.52-0.618-3.466-1.492c-0.624-0.572-0.996-1.361-1.232-2.162
			c-0.525-1.831-0.629-3.818-0.782-5.711c-0.226-3.49-0.478-7.248-0.33-10.736c0.114-3.014,0.476-6.062,1.087-9.016
			c0.981-4.71,2.575-9.327,4.589-13.693c1.921-4.129,4.274-8.125,7.142-11.67"/>
	</g>
	<g id="POLYLINE_00000034068446327160087350000014022685004989964450_">
		
			<path fill="none" stroke="#FB8604" stroke-width="2.75" stroke-linecap="round" stroke-linejoin="round" stroke-miterlimit="10" d="
			M401.442,418.583c3.015,9.452,5.374,19.242,6.161,29.149c0.784,8.954,0.033,18.742-0.539,27.723
			c-0.066,1.877-0.209,3.837,0.172,5.688c0.122,0.531,0.297,1.07,0.642,1.5c0.199,0.247,0.466,0.441,0.77,0.535
			c0.428,0.136,0.888,0.093,1.325,0.025c0.572-0.087,1.258-0.249,1.835-0.207c0.299,0.021,0.599,0.11,0.837,0.296
			c0.287,0.22,0.473,0.544,0.604,0.875c0.2,0.517,0.3,1.076,0.383,1.623c0.358,2.586,0.373,7.229,0.496,9.88
			c0.14,2.408,0.205,4.984,0.903,7.302c0.178,0.538,0.425,1.069,0.818,1.484c0.284,0.303,0.651,0.525,1.049,0.642
			c0.581,0.18,1.272,0.156,1.877,0.166c0.72,0.008,1.476,0.098,2.091,0.503c0.474,0.305,0.839,0.754,1.123,1.236
			c0.552,0.95,0.864,2.037,1.178,3.084c0.67,2.214,1.255,5.36,2.498,7.297c0.363,0.556,0.82,1.064,1.382,1.423
			c0.522,0.339,1.128,0.53,1.741,0.619c0.777,0.104,1.616,0.201,2.314,0.573c0.832,0.424,1.501,1.107,2.078,1.829
			c0.477,0.595,0.96,1.305,1.384,1.943c1.739,2.696,4.286,6.799,6.097,9.411c3.763,5.539,10.984,14.777,14.687,20.364
			c0.932,1.449,1.83,2.962,2.402,4.594c0.797,2.302,1.076,5.281,1.49,7.682c0.326,1.737,0.591,3.735,1.865,5.061
			c0.994,1.037,3.016,1.849,4.278,2.54c1.646,0.859,3.278,1.819,4.649,3.083c1.38,1.264,2.486,2.808,3.44,4.409
			c2.497,4.228,4.7,9.977,7.31,14.134c1.347,2.125,3.006,4.184,5.28,5.357c1.801,0.939,3.868,1.179,5.871,1.247
			c1.308,0.05,26.328,0.035,27.813,0.013c0.801-0.025,1.648-0.058,2.439-0.193c0.659-0.109,1.315-0.293,1.912-0.598
			c0.598-0.303,1.136-0.725,1.593-1.214c1.768-1.899,2.328-4.617,2.164-7.144c-0.133-2.263-0.653-4.503-1.348-6.656
			c-0.669-2.038-1.534-4.038-2.733-5.822c-0.562-0.827-1.176-1.642-1.952-2.28c-0.626-0.518-1.35-0.912-2.097-1.226
			c-3.026-1.221-6.978-1.836-10.172-2.563c-0.828-0.198-1.67-0.403-2.43-0.794c-0.615-0.308-1.173-0.729-1.656-1.217
			c-0.926-0.941-1.642-2.085-2.314-3.215c-1.739-3.017-3.226-6.34-4.595-9.542c-3.275-7.842-4.799-16.342-5.594-24.769
			c-0.91-10.731-0.417-30.761-0.98-41.552c-0.185-4.71-0.823-11.122-0.25-15.777c0.136-0.937,0.345-1.885,0.781-2.732
			c0.379-0.742,0.97-1.402,1.75-1.725c0.647-0.28,1.393-0.324,2.027-0.643c0.881-0.424,1.489-1.237,2.08-1.987
			c0.764-0.994,1.638-2.313,2.535-3.169c0.323-0.308,0.68-0.589,1.077-0.794c0.792-0.4,1.716-0.48,2.536-0.808
			c1.436-0.538,2.564-1.639,3.613-2.72c1.988-2.053,3.749-4.67,5.573-6.869c0.332-0.379,0.68-0.764,1.085-1.066
			c0.319-0.239,0.693-0.403,1.086-0.468c0.61-0.094,1.125-0.097,1.687-0.424c0.429-0.246,0.817-0.577,1.194-0.895
			c0.511-0.381,8.808-8.209,9.531-8.872"/>
	</g>
	<g id="POLYLINE_00000158006783751504489110000006969299539850875828_">
		
			<path fill="none" stroke="#FB8604" stroke-width="2.75" stroke-linecap="round" stroke-linejoin="round" stroke-miterlimit="10" d="
			M464.222,352.377c-0.254,3.109,0.211,6.252,0.875,9.284c0.961,4.222,2.401,8.362,4.252,12.276
			c0.869,1.803,1.835,3.608,3.028,5.221c0.535,0.701,1.113,1.406,1.853,1.899l0.048,0.031l0.048,0.029l0.048,0.028l0.047,0.026
			l0.047,0.025l0.047,0.023l0.046,0.022l0.046,0.021l0.046,0.019l0.045,0.018l0.045,0.016l0.045,0.015l0.044,0.013
			c0.505,0.148,0.997-0.033,1.421-0.309c0.466-0.283,0.914-0.746,1.469-0.841l0.022-0.003l0.022-0.002l0.022-0.002l0.022-0.001
			l0.022-0.001l0.022,0l0.022,0l0.022,0l0.022,0.001l0.022,0.001l0.022,0.002l0.022,0.002l0.022,0.003l0.022,0.003l0.023,0.004
			l0.023,0.004l0.023,0.005l0.023,0.005l0.023,0.006l0.023,0.006l0.023,0.007l0.023,0.007l0.023,0.008
			c0.393,0.138,0.715,0.423,1,0.718c0.756,0.813,1.329,1.802,1.877,2.762c2.746,5.141,6.1,12.811,8.789,17.967
			c1.746,3.376,3.588,6.918,5.748,10.046c0.496,0.701,1.033,1.419,1.627,2.041c0.317,0.328,0.66,0.649,1.053,0.884l0.04,0.023
			l0.04,0.022l0.04,0.021l0.039,0.02l0.039,0.019l0.039,0.018l0.038,0.016l0.038,0.015l0.038,0.014l0.037,0.013l0.037,0.012
			l0.037,0.01l0.036,0.009l0.036,0.008l0.036,0.007l0.035,0.005l0.035,0.004l0.035,0.003l0.034,0.002l0.034,0.001l0.034-0.001
			l0.033-0.002l0.033-0.003l0.033-0.005c0.481-0.086,0.795-0.532,1.063-0.904c0.253-0.36,0.555-0.874,0.879-1.169
			c0.103-0.093,0.22-0.176,0.353-0.222l0.021-0.007l0.021-0.006l0.021-0.006l0.021-0.005l0.021-0.004l0.021-0.004l0.021-0.003
			l0.021-0.003l0.022-0.002l0.022-0.001l0.022-0.001l0.022,0l0.022,0l0.022,0.001l0.022,0.002l0.023,0.002l0.023,0.003l0.023,0.003
			l0.023,0.004l0.023,0.004l0.023,0.005l0.023,0.006l0.023,0.006l0.024,0.007l0.024,0.007l0.024,0.008l0.024,0.008l0.024,0.009
			c0.268,0.104,0.506,0.277,0.725,0.461c0.442,0.377,0.831,0.829,1.198,1.279c1.939,2.46,4.469,6.611,6.343,9.124
			c1.8,2.462,3.878,4.896,5.93,7.155c3.041,3.262,8.609,9.021,11.269,12.492c3.121,3.733,4.022,2.457,6.615-0.77
			c0.317-0.376,0.644-0.763,1.031-1.069c0.16-0.123,0.335-0.236,0.531-0.29l0.015-0.004l0.015-0.004l0.015-0.003l0.015-0.003
			l0.015-0.003l0.015-0.002l0.015-0.002l0.015-0.002l0.015-0.001l0.015-0.001c0.21-0.014,0.41,0.079,0.576,0.199
			c0.451,0.334,0.79,0.857,1.213,1.221c0.149,0.128,0.315,0.244,0.505,0.301l0.022,0.006l0.022,0.006l0.023,0.005l0.023,0.005
			l0.023,0.004l0.023,0.003l0.023,0.003l0.023,0.002l0.023,0.002l0.023,0.001l0.023,0l0.023,0l0.024-0.001l0.024-0.001l0.024-0.002
			l0.024-0.003l0.024-0.003l0.024-0.004l0.024-0.004l0.024-0.005l0.024-0.005l0.024-0.006l0.025-0.006l0.025-0.007l0.025-0.008
			l0.025-0.008l0.025-0.009l0.025-0.009l0.025-0.01c0.459-0.191,0.826-0.55,1.157-0.911c1.248-1.444,2.129-3.196,2.981-4.892
			c2.486-5.08,4.823-11.919,6.824-17.258c0.541-1.402,1.15-2.966,1.804-4.315c0.375-0.739,0.793-1.612,1.405-2.174l0.023-0.019
			l0.023-0.019l0.023-0.018l0.023-0.017l0.023-0.016l0.023-0.015l0.022-0.014l0.022-0.014l0.022-0.013l0.022-0.012l0.022-0.011
			l0.022-0.01l0.022-0.009l0.022-0.009l0.022-0.008l0.022-0.007l0.021-0.006l0.021-0.005l0.021-0.004l0.021-0.003l0.021-0.003
			l0.021-0.002l0.021-0.001l0.021,0l0.021,0.001l0.021,0.002l0.02,0.003l0.02,0.004l0.02,0.005c0.09,0.022,0.171,0.07,0.243,0.127
			c0.311,0.251,0.58,0.723,0.813,1.046c0.243,0.333,0.527,0.738,0.952,0.835l0.023,0.004l0.023,0.004l0.023,0.003l0.024,0.002
			l0.024,0.001l0.024,0.001h0.024l0.024-0.001l0.024-0.001l0.024-0.002l0.025-0.003l0.025-0.004l0.025-0.004l0.025-0.005
			l0.025-0.006l0.025-0.006l0.026-0.007l0.026-0.008l0.026-0.008l0.026-0.009l0.026-0.01l0.026-0.01l0.026-0.011l0.027-0.012
			l0.027-0.012c0.623-0.316,1.08-0.877,1.503-1.417c1.583-2.159,2.673-4.668,3.617-7.161c0.619-1.694,1.158-3.472,1.52-5.239
			c0.375-1.775,0.582-3.849,0.767-5.661c0.075-0.626,0.135-1.326,0.322-1.93c0.041-0.124,0.091-0.25,0.165-0.359l0.008-0.012
			l0.008-0.012l0.008-0.011l0.008-0.011l0.009-0.01l0.009-0.01l0.009-0.01l0.009-0.01l0.009-0.009l0.009-0.009l0.009-0.009
			l0.009-0.008l0.009-0.008l0.009-0.007l0.01-0.007l0.01-0.007l0.01-0.006l0.01-0.006l0.01-0.006l0.01-0.005l0.01-0.005l0.01-0.005
			l0.01-0.004l0.011-0.004l0.011-0.004l0.011-0.003l0.011-0.003l0.011-0.003l0.011-0.002l0.011-0.002l0.011-0.002l0.012-0.001
			l0.012-0.001l0.012,0l0.012,0l0.012,0l0.012,0.001c0.074,0.005,0.146,0.028,0.214,0.057c0.335,0.149,0.711,0.47,1.016,0.675
			c0.31,0.206,0.675,0.455,1.065,0.415l0.02-0.003l0.019-0.003l0.019-0.004l0.019-0.005l0.019-0.005l0.019-0.006l0.019-0.006
			l0.019-0.007l0.019-0.007l0.019-0.008l0.019-0.008l0.018-0.009l0.018-0.01l0.018-0.01l0.018-0.011l0.018-0.011l0.018-0.012
			l0.018-0.012l0.018-0.013l0.018-0.013l0.018-0.014l0.018-0.014l0.017-0.015l0.017-0.015l0.017-0.016l0.017-0.016
			c0.223-0.221,0.377-0.501,0.51-0.782c0.557-1.251,0.819-2.664,1.102-3.999c0.645-3.486,1.401-7.88,2.476-11.223
			c0.717-2.362,1.998-6.196,2.472-8.577c0.385-1.781,0.586-3.637,0.662-5.457l0.145-4.509c0.035-0.637,0.067-1.301,0.205-1.925
			c0.041-0.172,0.09-0.346,0.179-0.501l0.008-0.013l0.008-0.013l0.008-0.013l0.008-0.012l0.008-0.012l0.008-0.011l0.009-0.011
			l0.009-0.011l0.009-0.01l0.009-0.01l0.009-0.009l0.009-0.009l0.009-0.009l0.009-0.008l0.01-0.008l0.01-0.007l0.01-0.007
			l0.01-0.006l0.01-0.006l0.01-0.006l0.01-0.005l0.01-0.005l0.01-0.004l0.011-0.004l0.011-0.004c0.115-0.034,0.236,0.005,0.342,0.05
			c0.38,0.162,0.748,0.512,1.177,0.514l0.014-0.001l0.014-0.001l0.014-0.001l0.014-0.002l0.014-0.002l0.014-0.002l0.014-0.003
			l0.014-0.003l0.014-0.003l0.014-0.004l0.014-0.004l0.014-0.004l0.014-0.005l0.014-0.005l0.014-0.005l0.014-0.005l0.014-0.006
			l0.014-0.006l0.013-0.006l0.013-0.007l0.013-0.007l0.013-0.007l0.013-0.008l0.013-0.008l0.013-0.008l0.013-0.009l0.013-0.009
			c0.213-0.151,0.362-0.376,0.485-0.603c0.235-0.446,0.379-0.941,0.496-1.43c0.929-4.502,0.084-9.191-0.705-13.655
			c-0.522-2.908-1.581-7.593-1.773-10.5c-0.032-0.581-0.045-1.178,0.044-1.755c0.053-0.341,0.153-0.682,0.35-0.969
			c0.208-0.322,0.542-0.555,0.839-0.788c0.164-0.13,0.323-0.273,0.437-0.45c0.104-0.161,0.168-0.345,0.208-0.531
			c0.078-0.372,0.072-0.759,0.044-1.136c-0.081-0.989-0.343-2.05-0.569-3.019c-1.396-5.53-2.866-11.64-4.789-16.996
			c-0.82-2.275-1.934-4.638-2.992-6.817"/>
	</g>
	<g id="POLYLINE_00000072264683419657245590000000286137874471382424_">
		
			<path fill="none" stroke="#FB8604" stroke-width="2.75" stroke-linecap="round" stroke-linejoin="round" stroke-miterlimit="10" d="
			M625.558,251.176c-3.729-1.851-7.662-3.445-11.584-4.838c-4.584-1.671-13.632-4.153-18.37-5.628
			c-1.988-0.641-4.08-1.321-5.966-2.217c-0.794-0.384-1.578-0.829-2.241-1.416c-1.906-1.639-2.141-4.315-2.384-6.66
			c-0.255-3.18-0.456-7.125-1.253-10.188c-0.97-4.016-2.723-7.872-5.245-11.154c-3.302-4.321-7.787-7.621-12.583-10.115
			c-4.698-2.426-9.791-4.18-15.027-4.965"/>
	</g>
	<g id="POLYLINE_00000010278298585663891660000001120884035646378429_">
		
			<path fill="none" stroke="#FB8604" stroke-width="2.75" stroke-linecap="round" stroke-linejoin="round" stroke-miterlimit="10" d="
			M516.685,290.839c0.497,1.67,1.343,3.228,2.297,4.679c1.034,1.544,2.23,3.008,3.635,4.23c0.606,0.517,1.258,1.001,1.987,1.331
			c0.398,0.177,0.829,0.31,1.269,0.299c0.65-0.013,1.209-0.402,1.689-0.806c0.663-0.55,1.388-1.34,2.326-1.263l0.031,0.003
			c0.518,0.055,0.994,0.301,1.434,0.564c2.562,1.646,4.722,4.285,7.405,5.757c0.688,0.367,1.445,0.666,2.236,0.66
			c1.383-0.012,2.573-0.858,3.622-1.677c1.106-0.853,2.331-2.058,3.681-2.486c1.682-0.514,3.547,0.353,5.147,0.825
			c1.026,0.315,2.101,0.554,3.18,0.485c1.983-0.126,3.845-0.964,5.627-1.784c4.122-2.023,8.638-4.306,13.074-5.454
			c8.462-2.31,18.863-3.166,27.424-5.058c3.638-0.825,7.345-1.826,10.537-3.816c2.557-1.572,4.668-3.775,6.487-6.141l2.924-3.89
			c1.642-2.142,4.219-5.131,5.682-7.379"/>
	</g>
	<g id="POLYLINE_00000142143541093491951950000000591475197692070794_">
		
			<path fill="none" stroke="#FB8604" stroke-width="2.75" stroke-linecap="round" stroke-linejoin="round" stroke-miterlimit="10" d="
			M628.38,269.915c-0.564,0.288-1.234,0.326-1.833,0.125c-0.898-0.297-1.621-0.96-2.227-1.666c-1.039-1.239-1.79-2.702-2.375-4.203
			c-0.697-1.822-1.152-3.744-1.362-5.682c-0.168-1.754-0.214-3.662,0.395-5.338c0.24-0.642,0.654-1.243,1.263-1.581
			c0.894-0.5,1.966-0.481,2.961-0.422c2.599,0.182,5.615,0.841,7.035,3.255c0.536,0.907,0.757,1.965,0.834,3.007
			c0.113,1.637-0.096,3.294-0.457,4.89c-0.463,1.96-1.154,3.902-2.24,5.606C629.853,268.693,629.234,269.476,628.38,269.915z"/>
	</g>
</g>
<g id="_x32_D_x24_AG-OUTLINE">
	<g id="POLYLINE_00000164489360373615875780000012738161846020437637_">
		
			<path fill="none" stroke="#FB8604" stroke-width="3.5" stroke-linecap="round" stroke-linejoin="round" stroke-miterlimit="10" d="
			M209.964,516.949c-2.868,3.545-5.221,7.54-7.142,11.67c-2.014,4.366-3.609,8.982-4.589,13.693
			c-1.173,5.527-1.321,11.256-0.938,16.879c0.207,2.71,0.236,5.802,0.92,8.433c0.234,0.844,0.602,1.683,1.252,2.29
			c0.947,0.89,2.263,1.208,3.49,1.514l2.987,0.676c1.87,0.444,3.719,1.061,5.44,1.921c1.078,0.549,2.147,1.185,2.982,2.073
			c1.082,1.141,1.567,2.688,2.027,4.157c0.6,1.938,1.005,3.955,1.128,5.981c0.143,2.269-0.05,4.568-0.466,6.8
			c-0.428,2.14-1.005,4.363-2.214,6.206c-0.616,0.923-1.511,1.659-2.57,2.01c-0.962,0.332-1.998,0.399-3.008,0.424l-0.249,0.004
			l-24.027,0.005l-0.722-0.003l-0.355-0.007c-0.586-0.016-1.187-0.06-1.764-0.17c-0.893-0.165-1.754-0.498-2.542-0.945
			c-1.44-0.818-2.683-1.958-3.832-3.14c-2.118-2.207-4.018-4.74-5.804-7.221c-1.622-2.355-3.234-4.8-4.285-7.471
			c-1.342-3.351-1.928-6.978-2.294-10.553c-0.481-4.964-0.459-10.049-0.082-15.022c0.388-5.423,1.783-12.926,2.222-18.352
			c0.208-2.567,0.243-5.199-0.033-7.762c-0.395-4.15-1.882-9.819-2.791-13.915c-0.127-0.584-0.367-1.763-0.478-2.35
			c-0.326-1.76-0.822-5.052-1.272-6.74c-0.125-0.464-0.269-0.937-0.468-1.375c-0.151-0.322-0.33-0.649-0.613-0.873l-0.016-0.012
			l-0.016-0.012l-0.016-0.011l-0.016-0.011l-0.016-0.01l-0.016-0.01l-0.016-0.01l-0.016-0.009l-0.016-0.009l-0.017-0.009
			l-0.017-0.008l-0.017-0.008l-0.017-0.007l-0.017-0.007l-0.017-0.007l-0.017-0.006l-0.017-0.006l-0.017-0.005l-0.017-0.005
			l-0.018-0.005l-0.018-0.004l-0.018-0.004l-0.018-0.003l-0.018-0.003l-0.018-0.002l-0.018-0.002l-0.018-0.002l-0.018-0.001
			l-0.019-0.001l-0.019,0c-0.168-0.001-0.332,0.048-0.486,0.111c-0.699,0.302-1.334,0.872-2.025,1.192
			c-0.373,0.176-0.819,0.298-1.217,0.132l-0.04-0.017l-0.04-0.019l-0.04-0.021l-0.039-0.023l-0.039-0.025l-0.039-0.026l-0.039-0.028
			l-0.038-0.03l-0.038-0.032l-0.038-0.033l-0.038-0.035l-0.037-0.037l-0.037-0.038l-0.037-0.04l-0.037-0.042l-0.036-0.043
			l-0.036-0.045l-0.036-0.047l-0.036-0.048l-0.036-0.05c-0.38-0.553-0.629-1.194-0.844-1.826c-0.447-1.355-0.733-2.801-0.971-4.207
			c-0.88-5.497-1.143-11.302-1.269-16.868c-0.042-2.88-0.032-6.245,0.111-9.114c0.071-1.666,0.323-4.115,0.392-5.786
			c0.033-1.075-0.02-2.246-0.7-3.134c-0.722-0.947-1.921-1.679-2.759-2.513c-0.664-0.633-1.167-1.379-1.374-2.283
			c-0.161-0.661-0.194-1.351-0.176-2.029c0.061-2.24,0.84-5.821,1.176-8.059c1.388-9.102,2.544-23.794,4.439-32.722
			c0.511-2.632,1.639-6.492,2.34-9.112c0.169-0.666,0.338-1.374,0.439-2.054c0.085-0.648,0.182-1.451-0.145-2.043l-0.011-0.018
			l-0.011-0.018l-0.011-0.018l-0.012-0.017l-0.012-0.017l-0.012-0.017l-0.012-0.016l-0.013-0.016l-0.013-0.016l-0.013-0.016
			l-0.013-0.015l-0.014-0.015l-0.014-0.015l-0.014-0.014c-0.414-0.391-1.114-0.453-1.643-0.596
			c-0.572-0.138-1.158-0.372-1.527-0.852l-0.03-0.039l-0.03-0.041l-0.029-0.042l-0.028-0.043l-0.028-0.044l-0.027-0.045
			l-0.026-0.046l-0.026-0.048l-0.025-0.049l-0.024-0.05l-0.024-0.051l-0.023-0.052c-0.338-0.808-0.407-1.703-0.431-2.57
			c-0.024-2.074,0.303-4.163,0.682-6.197c2.256-11.306,6.774-22.487,11.394-33.03c0.373-0.931,0.813-1.956,1.055-2.927
			c0.042-0.182,0.08-0.37,0.081-0.558l0-0.021l-0.001-0.02l-0.001-0.019l-0.001-0.019l-0.002-0.018l-0.002-0.018l-0.003-0.017
			l-0.003-0.017l-0.003-0.016l-0.004-0.015l-0.004-0.015l-0.005-0.014l-0.005-0.014l-0.005-0.013l-0.006-0.012l-0.006-0.012
			l-0.007-0.011l-0.007-0.011l-0.007-0.01l-0.008-0.01l-0.008-0.009l-0.009-0.008l-0.009-0.008l-0.01-0.007l-0.01-0.007l-0.01-0.006
			l-0.011-0.005l-0.011-0.005l-0.012-0.004l-0.012-0.003l-0.013-0.003l-0.013-0.002l-0.013-0.002l-0.014-0.001l-0.014,0l-0.015,0
			l-0.015,0.001l-0.016,0.002l-0.016,0.002l-0.017,0.003l-0.017,0.003l-0.017,0.004l-0.018,0.005l-0.018,0.005l-0.019,0.006
			c-0.167,0.057-0.323,0.152-0.472,0.246c-1.024,0.681-2.097,1.655-3.127,2.327c-0.4,0.252-0.873,0.561-1.352,0.603l-0.015,0.001
			l-0.015,0l-0.015,0l-0.015,0l-0.015-0.001l-0.014-0.001l-0.014-0.001l-0.014-0.001l-0.014-0.002l-0.014-0.002l-0.014-0.002
			l-0.013-0.003l-0.013-0.003l-0.013-0.003l-0.013-0.004l-0.034-0.011l-0.033-0.014l-0.031-0.016l-0.03-0.018l-0.029-0.02
			l-0.027-0.023l-0.026-0.025l-0.025-0.027l-0.024-0.029l-0.022-0.032l-0.021-0.034l-0.02-0.036l-0.019-0.038l-0.017-0.04
			l-0.016-0.042l-0.015-0.045l-0.014-0.047l-0.012-0.049l-0.011-0.051l-0.01-0.053l-0.009-0.055l-0.008-0.057l-0.006-0.059
			l-0.005-0.061l-0.004-0.063l-0.003-0.065c-0.018-0.71,0.119-1.429,0.262-2.123c0.598-2.68,1.605-5.406,2.566-7.979
			c2.721-7.074,6.097-14.396,9.481-21.183c2.3-4.535,4.851-9.358,7.582-13.633c1.655-2.607,3.509-5.204,5.438-7.617
			c3.24-4.029,7.288-8.42,10.278-12.63c1.304-1.868,2.665-3.804,3.429-5.966c0.163-0.513,0.298-1.059,0.223-1.6l-0.005-0.03
			l-0.005-0.03l-0.006-0.029l-0.006-0.029l-0.007-0.029l-0.007-0.028l-0.008-0.028l-0.008-0.028l-0.009-0.027l-0.009-0.027
			l-0.01-0.026l-0.01-0.026l-0.011-0.026l-0.011-0.025l-0.012-0.025l-0.012-0.025l-0.013-0.024l-0.014-0.024l-0.014-0.023
			l-0.015-0.023l-0.015-0.023l-0.016-0.022l-0.016-0.022l-0.017-0.021l-0.017-0.021l-0.018-0.021l-0.018-0.02l-0.019-0.02
			l-0.02-0.019l-0.02-0.019l-0.021-0.019l-0.021-0.018l-0.022-0.018l-0.022-0.017l-0.023-0.017l-0.024-0.016l-0.024-0.016
			l-0.019-0.012l-0.02-0.012c-0.226-0.134-0.484-0.203-0.741-0.248c-1.253-0.193-2.933,0.059-4.201,0.134
			c-0.708,0.042-1.44,0.082-2.143-0.029c-0.29-0.049-0.582-0.126-0.833-0.283l-0.02-0.013l-0.019-0.013l-0.019-0.013l-0.019-0.014
			l-0.018-0.014l-0.018-0.014l-0.018-0.014l-0.017-0.015l-0.017-0.015l-0.017-0.015l-0.016-0.016l-0.016-0.016l-0.015-0.016
			l-0.015-0.016l-0.015-0.017l-0.014-0.017l-0.014-0.017l-0.013-0.018l-0.013-0.018l-0.024-0.036l-0.022-0.037l-0.021-0.038
			l-0.019-0.039l-0.018-0.04l-0.016-0.041l-0.015-0.042l-0.014-0.043l-0.012-0.044l-0.011-0.046l-0.009-0.047l-0.008-0.048
			l-0.006-0.049l-0.005-0.05l-0.004-0.051l-0.002-0.052l-0.001-0.053l0-0.054l0.002-0.055l0.003-0.056l0.005-0.057l0.006-0.058
			l0.007-0.059l0.008-0.06l0.01-0.061c0.112-0.632,0.368-1.235,0.645-1.811c0.542-1.108,1.237-2.178,1.938-3.192
			c4.016-5.594,8.882-10.711,13.934-15.38c1.43-1.286,2.949-2.594,4.542-3.672c1.237-0.864,2.729-1.597,4.042-2.339
			c1.919-1.082,3.41-2.775,4.846-4.414c5.253-6.206,10.706-13.059,17.456-17.67c3.463-2.379,7.322-4.203,11.34-5.426
			c2.145-0.632,4.372-1.145,6.618-1.17c0.864,0.009,1.775,0.063,2.554,0.472l0.034,0.019l0.034,0.02l0.033,0.02l0.032,0.021
			l0.031,0.021l0.031,0.021l0.03,0.022l0.029,0.022l0.028,0.023l0.028,0.023l0.027,0.023l0.026,0.024l0.025,0.024l0.025,0.025
			l0.024,0.025l0.023,0.025l0.022,0.026l0.021,0.026l0.021,0.027l0.02,0.027l0.019,0.027l0.018,0.028l0.017,0.028l0.017,0.029
			l0.016,0.029l0.015,0.029c0.089,0.182,0.129,0.384,0.14,0.585c0.031,0.692-0.222,1.459-0.374,2.13
			c-0.118,0.548-0.275,1.203-0.013,1.73l0.016,0.029l0.017,0.029l0.018,0.028l0.019,0.028l0.02,0.027l0.021,0.027l0.021,0.026
			l0.022,0.026l0.023,0.025l0.024,0.025l0.025,0.024l0.026,0.024l0.027,0.023l0.028,0.023l0.029,0.022l0.03,0.022l0.03,0.022
			l0.031,0.021l0.032,0.021l0.033,0.02l0.034,0.02l0.035,0.019l0.036,0.019l0.036,0.018l0.037,0.018l0.038,0.017
			c1.043,0.435,2.384,0.391,3.503,0.363c3.826-0.17,11.259-1.427,15.106-1.833c4.208-0.483,8.514-0.719,12.743-0.405
			c2.455,0.212,4.978,0.516,7.252,1.518c0.818,0.386,1.663,0.898,2.074,1.737l0.016,0.034l0.015,0.034l0.014,0.034l0.014,0.034
			l0.013,0.034l0.012,0.034c0.212,0.608,0.104,1.274-0.103,1.868c-0.374,1.046-1.026,1.975-1.684,2.859
			c-0.287,0.413-0.892,1.099-1.129,1.533c-0.134,0.232-0.244,0.492-0.234,0.765c0.008,0.258,0.132,0.497,0.29,0.696
			c0.281,0.349,0.644,0.628,1.005,0.889c2.499,1.682,5.843,3.199,8.352,4.858c1.72,1.101,3.347,2.407,4.601,4.031
			c2.197,2.801,3.19,6.323,3.996,9.734c1.017,4.545,1.979,9.327,2.483,13.957c6.138,1.112,12.448,1.785,18.691,1.511
			c7.28-0.256,16.243-2.307,23.444-3.645c3.518-0.651,7.138-1.118,10.72-0.986c2.262,0.068,5.997,0.263,8.207,0.151
			c2.625-0.107,5.282-0.361,7.848-0.936c1.011-0.24,2.035-0.523,2.96-1.006c0.404-0.219,0.807-0.483,1.071-0.868l0.015-0.022
			l0.014-0.022l0.014-0.022l0.013-0.023l0.013-0.023l0.012-0.023l0.012-0.023l0.011-0.023l0.011-0.023l0.01-0.023l0.009-0.023
			l0.009-0.023l0.008-0.023l0.008-0.024c0.201-0.667-0.191-1.37-0.418-1.983c-0.137-0.374-0.303-0.802-0.149-1.195l0.009-0.021
			l0.01-0.021l0.011-0.021l0.011-0.021l0.012-0.02l0.013-0.02l0.013-0.02l0.014-0.02l0.015-0.02l0.015-0.02l0.016-0.019l0.017-0.019
			l0.017-0.019l0.018-0.019l0.018-0.019l0.019-0.018l0.02-0.018l0.02-0.018l0.021-0.018l0.022-0.018l0.022-0.017
			c0.289-0.219,0.635-0.352,0.977-0.465c0.853-0.269,1.78-0.409,2.664-0.539c4.548-0.634,9.74-0.825,13.832-3.094
			c2.432-1.269,4.719-3.278,6.924-4.895c1.127-0.822,2.336-1.57,3.63-2.101c2.324-0.981,5.421-1.586,7.875-2.206
			c1.848-0.471,3.713-1.044,5.439-1.858c2.316-1.094,4.522-2.489,6.372-4.27c0.563-0.554,1.098-1.156,1.516-1.829
			c0.255-0.416,0.473-0.868,0.558-1.352c0.13-0.674-0.074-1.386-0.232-2.039c-0.07-0.312-0.124-0.639-0.069-0.958
			c0.046-0.272,0.171-0.525,0.328-0.75c0.36-0.507,0.864-0.897,1.374-1.244c1.23-0.813,2.622-1.419,3.977-1.991
			c2.247-0.907,6.413-2.494,8.537-3.518c2.889-1.37,5.785-2.893,8.396-4.744c0.724-0.53,1.447-1.093,2.042-1.769
			c0.251-0.295,0.492-0.618,0.602-0.994l0.006-0.023l0.006-0.023l0.005-0.022l0.005-0.022l0.004-0.022l0.004-0.022l0.003-0.022
			l0.003-0.022l0.002-0.022l0.002-0.022l0.001-0.021l0.001-0.021l0-0.021l0-0.021l-0.001-0.021l-0.001-0.021l-0.002-0.021
			l-0.002-0.021l-0.003-0.02l-0.003-0.02l-0.004-0.02l-0.004-0.02l-0.005-0.02l-0.005-0.02l-0.006-0.02l-0.006-0.02
			c-0.055-0.159-0.16-0.296-0.277-0.414c-0.373-0.365-0.918-0.64-1.346-0.936c-0.319-0.224-0.675-0.484-0.778-0.881l-0.007-0.03
			l-0.005-0.031l-0.004-0.031L461.442,224l-0.002-0.032l-0.001-0.032l0-0.032l0.002-0.033l0.003-0.033l0.004-0.033l0.005-0.033
			l0.006-0.034l0.007-0.034l0.008-0.034l0.009-0.035l0.01-0.035l0.012-0.035l0.013-0.036l0.014-0.036l0.015-0.036l0.016-0.037
			l0.017-0.037l0.018-0.037l0.019-0.037l0.02-0.038c0.57-0.978,1.644-1.793,2.533-2.482c4.14-3.063,11.323-6.921,15.81-9.588
			c2.945-1.68,9.213-5.834,12.123-7.718c2.17-1.377,4.463-2.71,6.803-3.771c2.673-1.217,5.561-2.179,8.37-3.036l12.383-3.559
			c7.466-2.334,15.229-5.085,20.916-10.675c1.439-1.344,3.163-3.328,4.863-4.314c0.493-0.279,1.037-0.495,1.607-0.534
			c0.729-0.054,1.454,0.198,2.05,0.61c1.178,0.818,1.917,2.132,2.354,3.472c0.455,1.412,0.571,2.918,0.555,4.395
			c-0.043,2.66-0.515,5.333-1.099,7.923c5.235,0.786,10.329,2.539,15.027,4.965c4.797,2.494,9.282,5.795,12.583,10.115
			c2.522,3.282,4.275,7.137,5.245,11.154c0.807,3.053,0.992,7.032,1.253,10.188c0.253,2.421,0.481,5.066,2.453,6.72
			c0.708,0.609,1.544,1.063,2.386,1.457c1.821,0.84,3.842,1.501,5.752,2.116c4.762,1.482,13.751,3.945,18.37,5.628
			c3.921,1.393,7.855,2.987,11.584,4.838c2.511,0.213,5.388,0.94,6.716,3.29c0.532,0.93,0.739,2.009,0.806,3.069
			c0.093,1.596-0.113,3.209-0.466,4.764c-0.463,1.96-1.154,3.902-2.24,5.606c-0.521,0.787-1.139,1.57-1.994,2.009
			c-1.459,2.243-4.045,5.243-5.682,7.379l-2.924,3.89c-1.545,1.998-3.28,3.895-5.341,5.371c-1.895,1.38-4.055,2.382-6.273,3.121
			c-7.724,2.518-17.636,3.411-25.631,4.917c-4.486,0.825-9.022,1.879-13.214,3.712c1.06,2.187,2.171,4.539,2.992,6.817
			c1.922,5.349,3.395,11.47,4.789,16.996c0.226,0.97,0.487,2.028,0.569,3.019c0.028,0.377,0.035,0.764-0.044,1.136
			c-0.04,0.186-0.105,0.37-0.208,0.531c-0.114,0.177-0.273,0.32-0.437,0.45c-0.297,0.237-0.631,0.465-0.839,0.788
			c-0.196,0.287-0.296,0.628-0.35,0.969c-0.089,0.577-0.077,1.173-0.044,1.755c0.188,2.884,1.255,7.608,1.773,10.5
			c0.789,4.463,1.634,9.152,0.705,13.655c-0.12,0.504-0.269,1.014-0.518,1.471c-0.119,0.212-0.262,0.42-0.463,0.562l-0.013,0.009
			l-0.013,0.009l-0.013,0.008l-0.013,0.008l-0.013,0.008l-0.013,0.007l-0.013,0.007l-0.013,0.007l-0.013,0.006l-0.014,0.006
			l-0.014,0.006l-0.014,0.005l-0.014,0.005l-0.014,0.005l-0.014,0.005l-0.014,0.004l-0.014,0.004l-0.014,0.004l-0.014,0.003
			l-0.014,0.003l-0.014,0.003l-0.014,0.002l-0.014,0.002l-0.014,0.002l-0.014,0.001l-0.014,0.001l-0.014,0.001
			c-0.429-0.003-0.798-0.353-1.177-0.514c-0.106-0.045-0.227-0.084-0.342-0.05l-0.011,0.004l-0.011,0.004l-0.01,0.004l-0.01,0.005
			l-0.01,0.005l-0.01,0.006l-0.01,0.006l-0.01,0.006l-0.01,0.007l-0.01,0.007l-0.01,0.008l-0.009,0.008l-0.009,0.009l-0.009,0.009
			l-0.009,0.009l-0.009,0.01l-0.009,0.01l-0.009,0.011l-0.009,0.011l-0.008,0.011l-0.008,0.012l-0.008,0.012l-0.008,0.013
			l-0.008,0.013l-0.008,0.013c-0.088,0.154-0.138,0.329-0.179,0.501c-0.138,0.624-0.169,1.289-0.205,1.925l-0.145,4.509
			c-0.076,1.82-0.277,3.676-0.662,5.457c-0.469,2.363-1.76,6.234-2.472,8.577c-1.073,3.332-1.834,7.758-2.476,11.223
			c-0.283,1.336-0.544,2.748-1.102,3.999c-0.133,0.281-0.288,0.562-0.51,0.782l-0.017,0.016l-0.017,0.016l-0.017,0.015l-0.017,0.015
			l-0.018,0.014l-0.018,0.014l-0.018,0.013l-0.018,0.013l-0.018,0.012l-0.018,0.012l-0.018,0.011l-0.018,0.011l-0.018,0.01
			l-0.018,0.01l-0.018,0.009l-0.019,0.008l-0.019,0.008l-0.019,0.007l-0.019,0.007l-0.019,0.006l-0.019,0.006l-0.019,0.005
			l-0.019,0.005l-0.019,0.004l-0.019,0.003l-0.02,0.003c-0.389,0.04-0.755-0.208-1.065-0.415c-0.305-0.206-0.68-0.526-1.016-0.675
			c-0.068-0.029-0.14-0.052-0.214-0.057l-0.012-0.001l-0.012,0l-0.012,0l-0.012,0l-0.012,0.001l-0.012,0.001l-0.011,0.002
			l-0.011,0.002l-0.011,0.002l-0.011,0.003l-0.011,0.003l-0.011,0.003l-0.011,0.004l-0.011,0.004l-0.01,0.004l-0.01,0.005
			l-0.01,0.005l-0.01,0.005l-0.01,0.006l-0.01,0.006l-0.01,0.006l-0.01,0.007l-0.01,0.007l-0.009,0.007l-0.009,0.008l-0.009,0.008
			l-0.009,0.009l-0.009,0.009l-0.009,0.009l-0.009,0.01l-0.009,0.01l-0.009,0.01l-0.009,0.01l-0.008,0.011l-0.008,0.011
			l-0.008,0.012l-0.008,0.012c-0.074,0.109-0.123,0.235-0.165,0.359c-0.187,0.603-0.247,1.302-0.322,1.93
			c-0.187,1.819-0.392,3.883-0.767,5.661c-0.362,1.767-0.901,3.545-1.52,5.239c-0.957,2.524-2.059,5.069-3.68,7.243
			c-0.407,0.51-0.848,1.036-1.44,1.335l-0.027,0.012l-0.027,0.012l-0.026,0.011l-0.026,0.01l-0.026,0.01l-0.026,0.009l-0.026,0.008
			l-0.026,0.008l-0.026,0.007l-0.025,0.006l-0.025,0.006l-0.025,0.005l-0.025,0.004l-0.025,0.004l-0.025,0.003l-0.024,0.002
			l-0.024,0.001l-0.024,0.001h-0.024l-0.024-0.001l-0.024-0.001l-0.024-0.002l-0.023-0.003l-0.023-0.004l-0.023-0.004
			c-0.425-0.097-0.709-0.501-0.952-0.835c-0.234-0.325-0.501-0.793-0.813-1.046c-0.072-0.056-0.154-0.105-0.243-0.127l-0.02-0.005
			l-0.02-0.004l-0.02-0.003l-0.021-0.002l-0.021-0.001l-0.021,0l-0.021,0.001l-0.021,0.002l-0.021,0.003l-0.021,0.003l-0.021,0.004
			l-0.021,0.005l-0.021,0.006l-0.022,0.007l-0.022,0.008l-0.022,0.009l-0.022,0.009l-0.022,0.01l-0.022,0.011l-0.022,0.012
			l-0.022,0.013l-0.022,0.014l-0.022,0.014l-0.023,0.015l-0.023,0.016l-0.023,0.017l-0.023,0.018l-0.023,0.019l-0.023,0.019
			c-0.612,0.561-1.031,1.438-1.405,2.174c-0.654,1.348-1.263,2.911-1.804,4.315c-2.009,5.358-4.331,12.16-6.824,17.258
			c-0.852,1.697-1.733,3.448-2.981,4.892c-0.331,0.362-0.698,0.72-1.157,0.911l-0.025,0.01l-0.025,0.009l-0.025,0.009l-0.025,0.008
			l-0.025,0.008l-0.025,0.007l-0.025,0.006l-0.024,0.006l-0.024,0.005l-0.024,0.005l-0.024,0.004l-0.024,0.004l-0.024,0.003
			l-0.024,0.003l-0.024,0.002l-0.024,0.001l-0.024,0.001l-0.023,0l-0.023,0l-0.023-0.001l-0.023-0.002l-0.023-0.002l-0.023-0.003
			l-0.023-0.003l-0.023-0.004l-0.023-0.005l-0.023-0.005l-0.022-0.006l-0.022-0.006c-0.19-0.057-0.356-0.173-0.505-0.301
			c-0.429-0.369-0.77-0.9-1.231-1.233c-0.162-0.114-0.356-0.2-0.558-0.186l-0.015,0.001l-0.015,0.001l-0.015,0.002l-0.015,0.002
			l-0.015,0.002l-0.015,0.003l-0.015,0.003l-0.015,0.003l-0.015,0.004l-0.015,0.004c-0.197,0.053-0.371,0.166-0.531,0.29
			c-0.386,0.306-0.714,0.693-1.031,1.069c-0.551,0.667-1.194,1.517-1.802,2.123c-0.236,0.233-0.489,0.458-0.77,0.634
			c-0.247,0.156-0.527,0.268-0.82,0.288c-0.358,0.028-0.713-0.079-1.027-0.245c-0.576-0.308-1.054-0.775-1.501-1.245
			c-0.97,0.889-8.925,8.417-9.714,9.026c-0.328,0.271-0.665,0.547-1.036,0.754c-0.571,0.325-1.086,0.315-1.702,0.417
			c-0.389,0.069-0.757,0.239-1.071,0.479c-0.442,0.337-0.818,0.766-1.178,1.186c-1.818,2.228-3.596,4.841-5.611,6.893
			c-1.005,1.022-2.093,2.049-3.458,2.559c-0.82,0.329-1.744,0.408-2.536,0.808c-0.397,0.206-0.754,0.487-1.077,0.794
			c-0.895,0.853-1.781,2.185-2.535,3.169c-0.591,0.751-1.199,1.563-2.08,1.987c-0.634,0.318-1.379,0.362-2.027,0.643
			c-0.78,0.324-1.371,0.983-1.75,1.725c-0.462,0.901-0.671,1.912-0.804,2.908c-0.526,4.565,0.086,10.966,0.274,15.602
			c0.561,10.806,0.071,30.801,0.979,41.552c0.795,8.427,2.319,16.927,5.594,24.769c1.369,3.2,2.855,6.525,4.595,9.542
			c0.671,1.13,1.387,2.274,2.314,3.215c0.504,0.51,1.091,0.948,1.739,1.259c0.737,0.365,1.551,0.567,2.347,0.753
			c3.328,0.77,7.313,1.352,10.448,2.683c0.742,0.333,1.451,0.758,2.055,1.306c0.845,0.77,1.507,1.726,2.112,2.689
			c1.297,2.116,2.181,4.477,2.833,6.865c0.436,1.631,0.76,3.315,0.856,5.003c0.075,1.333-0.017,2.691-0.403,3.974
			c-0.457,1.536-1.328,2.996-2.639,3.948c-1.605,1.179-3.699,1.198-5.61,1.238c-1.635-0.013-26.348,0.041-27.27-0.023
			c-0.824-0.032-1.676-0.085-2.489-0.209c-1.169-0.173-2.33-0.492-3.382-1.039c-1.223-0.629-2.289-1.536-3.202-2.557
			c-1.266-1.415-2.289-3.062-3.202-4.721c-2.073-3.738-4.259-9.105-6.505-12.737c-1.001-1.612-2.189-3.141-3.658-4.354
			c-1.945-1.639-4.489-2.771-6.723-3.959c-0.748-0.409-1.483-0.894-2.001-1.584c-0.992-1.334-1.231-3.076-1.53-4.671
			c-0.413-2.419-0.697-5.383-1.49-7.682c-0.572-1.632-1.47-3.145-2.403-4.594c-3.701-5.584-10.925-14.827-14.687-20.364
			c-1.806-2.604-4.365-6.726-6.097-9.411c-0.423-0.635-0.907-1.347-1.384-1.943c-0.578-0.722-1.246-1.406-2.078-1.829
			c-0.698-0.374-1.541-0.468-2.314-0.573c-0.613-0.089-1.219-0.28-1.741-0.619c-0.562-0.359-1.019-0.867-1.382-1.423
			c-1.243-1.936-1.829-5.089-2.498-7.297c-0.314-1.048-0.626-2.133-1.178-3.084c-0.284-0.482-0.649-0.931-1.123-1.236
			c-0.615-0.405-1.37-0.495-2.091-0.503c-0.605-0.01-1.294,0.013-1.877-0.166c-0.398-0.117-0.765-0.339-1.049-0.642
			c-0.393-0.415-0.64-0.946-0.818-1.484c-0.698-2.318-0.763-4.895-0.903-7.302c-0.126-2.681-0.137-7.275-0.496-9.88
			c-0.082-0.547-0.182-1.106-0.383-1.623c-0.131-0.331-0.317-0.655-0.604-0.875c-0.245-0.191-0.556-0.28-0.863-0.298
			c-0.566-0.036-1.25,0.123-1.81,0.209c-0.599,0.098-1.278,0.127-1.785-0.261c-0.39-0.291-0.623-0.741-0.781-1.191
			c-0.346-1.032-0.397-2.143-0.419-3.224c-3.264,0.723-6.655,0.877-9.984,0.638c-2.655-0.205-5.324-0.633-7.863-1.449
			c-1.482-0.485-2.941-1.119-4.225-2.012c-0.954-0.637-1.765-1.565-2.675-2.258c-0.315-0.225-0.682-0.44-1.083-0.41
			c-0.155,0.011-0.305,0.065-0.442,0.138c-0.549,0.296-1.083,0.946-1.534,1.371c-0.532,0.519-1.12,1.025-1.837,1.26
			c-0.512,0.17-1.067,0.166-1.593,0.069c-1.67-0.337-3.134-1.335-4.47-2.348c-2.996-2.317-5.462-5.33-7.656-8.4
			c-0.463-0.601-0.942-1.217-1.527-1.705c-0.3-0.247-0.639-0.462-1.019-0.556c-0.5-0.132-1.023,0.004-1.463,0.255
			c-0.931,0.535-1.685,1.347-2.423,2.115c-1.413,1.478-2.949,3.463-4.704,4.517c-0.423,0.243-0.894,0.42-1.385,0.443
			c-0.562,0.032-1.118-0.136-1.612-0.395c-0.881-0.467-1.619-1.171-2.322-1.867c-2.223-2.289-4.555-5.003-7.331-6.609
			c-0.596-0.33-1.239-0.622-1.923-0.693c-0.334-0.033-0.681-0.001-0.991,0.134c-0.321,0.138-0.585,0.381-0.803,0.65
			c-0.701,0.891-1.085,2.116-1.554,3.139c-0.123,0.264-0.254,0.533-0.424,0.771c-0.12,0.167-0.269,0.325-0.462,0.405
			c-0.172,0.072-0.366,0.069-0.544,0.022c-0.291-0.076-0.555-0.235-0.804-0.398c-0.326-0.215-0.669-0.488-0.976-0.732
			c-1.444-1.179-3.27-2.621-4.76-3.725c-2.729-2.009-5.593-4.021-8.602-5.587c-1.17-0.588-2.39-1.161-3.688-1.389
			c-0.494-0.082-1.008-0.085-1.492,0.052c-0.522,0.142-0.987,0.439-1.413,0.763c-0.722,0.569-1.487,1.196-2.365,1.492
			c-1.856,0.656-3.914,0.495-5.778-0.051c-2.927-0.836-5.318-2.851-7.526-4.866c-1.531-1.365-3.512-3.338-5.227-4.432
			c-0.548-0.351-1.13-0.666-1.754-0.858c-0.47-0.144-0.971-0.211-1.46-0.14c-0.554,0.079-1.073,0.317-1.547,0.608
			c-1.377,0.84-2.504,2.21-3.925,2.982c-0.324,0.169-0.676,0.299-1.042,0.336c-0.302,0.031-0.609-0.008-0.899-0.094
			c-0.913-0.282-1.656-0.939-2.3-1.623c-1.112-1.216-1.99-2.645-2.698-4.128c-1.645,5.505-4.561,10.637-8.503,14.823
			c-1.05,1.091-2.181,2.148-3.477,2.94c-0.563,0.331-1.173,0.64-1.833,0.695l-0.035,0.002l-0.035,0.001l-0.034,0.001l-0.034,0
			l-0.034,0l-0.033-0.001l-0.033-0.002l-0.033-0.002l-0.032-0.003l-0.032-0.004l-0.031-0.004l-0.031-0.005l-0.031-0.006l-0.03-0.006
			l-0.03-0.007l-0.03-0.008l-0.029-0.009l-0.029-0.009c-0.674-0.234-0.993-0.949-1.437-1.452c-0.171-0.194-0.386-0.379-0.653-0.407
			l-0.031-0.003l-0.031-0.001l-0.031,0l-0.032,0.001l-0.032,0.002l-0.033,0.004l-0.033,0.005l-0.034,0.006l-0.034,0.007
			l-0.035,0.008l-0.035,0.01l-0.035,0.011l-0.036,0.012l-0.036,0.013l-0.037,0.014l-0.037,0.016l-0.038,0.017l-0.038,0.018
			l-0.038,0.019l-0.039,0.02l-0.039,0.021c-0.453,0.255-0.843,0.616-1.212,0.98c-1.865,1.928-3.446,4.306-4.987,6.501
			c-4.305,6.314-9.588,14.627-14.668,20.258c-5.879,6.754-13.281,12.591-19.098,19.405L209.964,516.949z"/>
	</g>
</g>
</svg>
