<?xml version="1.0" encoding="utf-8"?>
<!-- Generator: Adobe Illustrator 25.4.1, SVG Export Plug-In . SVG Version: 6.00 Build 0)  -->
<!DOCTYPE svg PUBLIC "-//W3C//DTD SVG 1.1//EN" "http://www.w3.org/Graphics/SVG/1.1/DTD/svg11.dtd" [
	<!ENTITY ns_extend "http://ns.adobe.com/Extensibility/1.0/">
	<!ENTITY ns_ai "http://ns.adobe.com/AdobeIllustrator/10.0/">
	<!ENTITY ns_graphs "http://ns.adobe.com/Graphs/1.0/">
	<!ENTITY ns_vars "http://ns.adobe.com/Variables/1.0/">
	<!ENTITY ns_imrep "http://ns.adobe.com/ImageReplacement/1.0/">
	<!ENTITY ns_sfw "http://ns.adobe.com/SaveForWeb/1.0/">
	<!ENTITY ns_custom "http://ns.adobe.com/GenericCustomNamespace/1.0/">
	<!ENTITY ns_adobe_xpath "http://ns.adobe.com/XPath/1.0/">
]>
<svg version="1.1" xmlns:x="&ns_extend;" xmlns:i="&ns_ai;" xmlns:graph="&ns_graphs;"
	 xmlns="http://www.w3.org/2000/svg" xmlns:xlink="http://www.w3.org/1999/xlink" x="0px" y="0px" width="750px" height="750px"
	 viewBox="0 0 750 750" enable-background="new 0 0 750 750" xml:space="preserve">
<metadata>
	<sfw  xmlns="&ns_sfw;">
		<slices></slices>
		<sliceSourceBounds  bottomLeftOrigin="true" height="10129.703" width="5613" x="-2000" y="-1314"></sliceSourceBounds>
	</sfw>
</metadata>
<g id="FILL-BACKGROUND">
	<rect fill="#FFFFFF" width="750" height="750"/>
</g>
<g id="N-DIMENSIONS">
</g>
<g id="N-TEXT">
</g>
<g id="_x32_D_x24_AG-DIAGRAM">
	<g id="POLYLINE_00000078765189328534194110000005324046522714548874_">
		<g>
			<g>
				
					<line fill="none" stroke="#FB8604" stroke-width="3.25" stroke-linecap="round" stroke-linejoin="round" x1="176.538" y1="606.123" x2="178.538" y2="606.123"/>
				
					<line fill="none" stroke="#FB8604" stroke-width="3.25" stroke-linecap="round" stroke-linejoin="round" stroke-dasharray="3.9524,6.9166" x1="185.455" y1="606.123" x2="584.149" y2="606.123"/>
				
					<line fill="none" stroke="#FB8604" stroke-width="3.25" stroke-linecap="round" stroke-linejoin="round" x1="587.608" y1="606.123" x2="589.608" y2="606.123"/>
			</g>
		</g>
	</g>
</g>
<g id="_x32_D_x24_AG-DETAILS-DIAGRAM">
</g>
<g id="_x32_D_x24_AG-DETAILS">
</g>
<g id="_x32_D_x24_AG-ANIMALS">
	<g id="POLYLINE_00000152243723845759777640000009310460119709777579_">
		
			<path fill="none" stroke="#FB8604" stroke-width="2.75" stroke-linecap="round" stroke-linejoin="round" stroke-miterlimit="10" d="
			M530.219,249.745c-1.736,3.301-3.441,6.885-5.578,9.945c-2.342,3.439-5.988,7.791-8.259,11.272
			c-0.484,0.755-0.963,1.54-1.317,2.365c-0.159,0.383-0.304,0.786-0.328,1.204l-0.001,0.03l-0.001,0.03l0,0.029l0.001,0.029
			l0.001,0.028l0.002,0.028l0.002,0.028c0.038,0.527,0.464,0.864,0.793,1.227c0.187,0.208,0.344,0.453,0.401,0.729l0.005,0.026
			l0.005,0.026c0.072,0.428-0.011,0.866-0.117,1.282c-0.271,1.004-0.738,1.964-1.21,2.887c-0.539,1.041-1.214,2.182-1.825,3.187
			c-2.003,3.195-5.707,8.899-7.742,12.115c-1.409,2.147-2.91,4.363-4.647,6.256c-1.344,1.472-2.907,2.764-4.633,3.763
			c-2.236,1.303-4.747,2.165-7.199,2.966c-6.365,1.971-13.648,4.004-19.595,6.962c-1.065,0.533-2.154,1.115-3.129,1.8
			c-0.556,0.406-1.213,0.895-1.521,1.524l-0.01,0.023l-0.009,0.022l-0.009,0.022l-0.008,0.022l-0.008,0.022l-0.007,0.022
			l-0.007,0.022l-0.006,0.022l-0.006,0.022l-0.005,0.022l-0.005,0.022l-0.004,0.021l-0.003,0.021l-0.003,0.021l-0.002,0.021
			l-0.002,0.021l-0.001,0.021l-0.001,0.021l0,0.021c0.008,0.412,0.335,0.747,0.562,1.064c0.184,0.25,0.365,0.544,0.33,0.868
			l-0.003,0.024l-0.004,0.024l-0.004,0.024l-0.005,0.025l-0.006,0.025l-0.006,0.025l-0.007,0.025l-0.008,0.025l-0.009,0.025
			l-0.009,0.025l-0.01,0.026l-0.011,0.026l-0.011,0.026l-0.012,0.026l-0.013,0.026l-0.013,0.026l-0.014,0.026
			c-0.271,0.477-0.699,0.843-1.123,1.181c-1.509,1.147-3.261,1.982-4.99,2.744c-3.363,1.427-6.909,2.561-10.533,3.075
			c-3.182,0.469-6.667,0.309-9.881,0.193c-2.651-0.103-5.309,0.023-7.912,0.563c-4.631,0.917-9.594,2.579-14.294,3.103
			c-4.787,0.586-11.091-0.006-15.925-0.225c-5.731-0.329-12.407,0.493-18.148,0.972c-3.541,0.277-7.228,0.371-10.777,0.212
			c-6.606-0.26-16.012-1.367-22.594-1.324c-2.083,0.01-4.231,0.154-6.293,0.446c-2.402,0.301-7.103,1.336-9.522,1.805
			c-2.262,0.433-4.642,0.711-6.94,0.875c-5.463,0.355-12.751,0.642-18.07,1.668c-4.513,0.816-9.035,2.187-13.382,3.64
			c-4.902,1.655-15.121,5.583-20.029,6.692c-4.275,1.077-12.121,1.565-16.569,2.055c-3.512,0.397-7.449,0.889-10.908,1.548
			c-1.762,0.345-3.582,0.731-5.276,1.329c-0.73,0.273-1.486,0.565-2.08,1.083l-0.028,0.026l-0.027,0.026l-0.026,0.026l-0.025,0.026
			l-0.024,0.027l-0.023,0.027l-0.023,0.027l-0.022,0.027l-0.021,0.027l-0.02,0.027l-0.019,0.027l-0.018,0.027
			c-0.209,0.317-0.199,0.708-0.138,1.068c0.08,0.471,0.205,1.005-0.011,1.457l-0.011,0.024l-0.012,0.024l-0.012,0.024l-0.013,0.024
			l-0.014,0.024c-0.199,0.343-0.501,0.614-0.809,0.856c-0.727,0.557-1.562,0.99-2.379,1.4c-3.029,1.493-6.539,2.755-9.397,4.563
			c-1.627,1.022-3.128,2.5-4.528,3.813c-0.952,0.877-1.989,1.692-3.16,2.256c-2.323,1.117-5.47,1.533-7.974,2.119
			c-0.923,0.218-1.872,0.454-2.739,0.845c-0.384,0.178-0.763,0.391-1.067,0.689c-0.433,0.418-0.633,1.008-0.758,1.584
			c-0.149,0.695-0.281,1.453-0.639,2.073c-0.32,0.57-0.81,1.024-1.325,1.417c-0.923,0.696-1.979,1.24-3.019,1.739
			c-2.875,1.373-6.547,2.612-9.334,4.156c-1.555,0.827-3.125,2.035-4.863,2.439c-0.848,0.196-1.737,0.144-2.576-0.072
			c-1.273-0.325-2.472-0.911-3.616-1.547c-3.372-1.886-6.839-4.759-9.898-7.14c-1.481-1.151-3.065-2.24-4.703-3.154
			c-2.208-1.24-4.636-2.345-6.966-3.337c-2.1-0.874-4.354-1.763-6.541-2.387c-0.611-0.169-1.254-0.332-1.884-0.415
			c-0.285-0.034-0.583-0.061-0.87-0.02l-0.025,0.004l-0.025,0.004l-0.024,0.005l-0.023,0.005l-0.023,0.006l-0.022,0.006
			l-0.022,0.006l-0.021,0.007l-0.02,0.007l-0.02,0.008l-0.019,0.008l-0.018,0.008l-0.017,0.009l-0.017,0.009l-0.016,0.01
			l-0.015,0.01l-0.015,0.01l-0.014,0.011l-0.013,0.011l-0.013,0.012l-0.012,0.012l-0.011,0.013l-0.01,0.013l-0.01,0.013
			l-0.009,0.014l-0.008,0.014l-0.007,0.015l-0.007,0.015l-0.006,0.016l-0.005,0.016l-0.004,0.016l-0.004,0.017l-0.002,0.009
			l-0.001,0.009l-0.001,0.009l-0.001,0.01l-0.001,0.01l-0.001,0.01l0,0.01l0,0.01l0,0.01l0,0.01l0,0.01l0.001,0.011
			c0.01,0.127,0.055,0.25,0.105,0.366c0.155,0.343,0.379,0.663,0.595,0.97c0.375,0.533,0.989,1.287,1.275,1.864
			c0.048,0.102,0.091,0.208,0.107,0.32l0.001,0.01l0.001,0.01l0.001,0.01l0.001,0.009l0,0.009l0,0.009l0,0.009l0,0.009l-0.001,0.018
			l-0.002,0.017l-0.003,0.017l-0.004,0.016l-0.005,0.016l-0.006,0.015l-0.006,0.015l-0.007,0.014l-0.008,0.014l-0.009,0.013
			l-0.01,0.013l-0.011,0.012l-0.012,0.011l-0.012,0.011l-0.013,0.01l-0.014,0.01l-0.015,0.009l-0.016,0.009l-0.017,0.008
			l-0.017,0.008l-0.018,0.007l-0.019,0.007l-0.02,0.006l-0.021,0.006l-0.021,0.005l-0.022,0.005l-0.023,0.004l-0.024,0.004
			l-0.025,0.003l-0.025,0.003l-0.026,0.002l-0.027,0.002l-0.028,0.001c-0.22,0.009-0.446-0.022-0.663-0.059
			c-0.467-0.083-0.955-0.221-1.409-0.36c-6.5-2.093-15.849-7.076-22.35-9.21c-2.871-0.928-5.903-1.39-8.921-1.303
			c-2.694,0.063-5.4,0.489-8.032,1.051c-3.826,0.824-7.812,1.994-11.545,3.185c-5.207,1.713-10.678,3.632-15.657,5.921
			c-0.697,0.344-1.45,0.681-2.076,1.148l-0.027,0.022l-0.025,0.021l-0.023,0.021l-0.022,0.02l-0.02,0.02l-0.018,0.019l-0.016,0.018
			l-0.015,0.018l-0.013,0.017l-0.011,0.017l-0.009,0.016l-0.008,0.015l-0.006,0.015l-0.004,0.014l-0.002,0.014l0,0.013l0.002,0.012
			l0.003,0.012l0.005,0.011l0.007,0.011l0.009,0.01l0.011,0.009l0.013,0.009l0.005,0.003l0.006,0.003l0.006,0.003l0.006,0.003
			l0.006,0.003l0.007,0.003l0.007,0.003l0.007,0.002l0.008,0.002l0.008,0.002l0.008,0.002c0.109,0.027,0.225,0.029,0.337,0.031
			c0.898-0.016,2.164-0.208,3.061-0.226c0.39-0.003,0.884-0.021,1.242,0.144l0.01,0.005l0.01,0.005l0.01,0.006l0.01,0.006
			l0.017,0.01l0.016,0.011l0.015,0.011l0.014,0.012l0.013,0.012l0.013,0.012l0.012,0.013l0.011,0.013l0.01,0.013l0.01,0.014
			l0.009,0.014l0.008,0.014l0.007,0.015l0.007,0.015l0.006,0.015l0.005,0.016l0.005,0.016l0.004,0.017l0.003,0.017l0.002,0.017
			l0.002,0.018l0.001,0.018l0,0.018l0,0.019l-0.001,0.019l-0.002,0.019l-0.002,0.02l-0.003,0.02l-0.004,0.02l-0.004,0.021
			l-0.005,0.021l-0.006,0.021l-0.006,0.022l-0.007,0.022l-0.008,0.022l-0.008,0.023l-0.009,0.023l-0.01,0.023
			c-0.091,0.211-0.226,0.406-0.364,0.589c-0.43,0.556-0.971,1.097-1.473,1.592c-3.909,3.729-8.366,7.529-10.989,12.317
			c-3.223,5.638-4.232,12.226-4.459,18.635c-0.123,3.629-0.096,7.431,0.161,11.053c0.161,2.027,0.363,4.11,0.873,6.083
			c0.211,0.749,0.474,1.634,1.008,2.207l0.02,0.02l0.02,0.02l0.02,0.019l0.021,0.018l0.021,0.018l0.021,0.017l0.021,0.016
			l0.021,0.016l0.021,0.015l0.021,0.015l0.021,0.014l0.021,0.013l0.022,0.013l0.015,0.008l0.015,0.008l0.015,0.008l0.015,0.007
			l0.015,0.007l0.015,0.007l0.015,0.006l0.015,0.006l0.015,0.006l0.015,0.006l0.016,0.005l0.016,0.005l0.016,0.005l0.016,0.004
			l0.016,0.004l0.016,0.004l0.016,0.003l0.016,0.003l0.016,0.003l0.016,0.003l0.016,0.002l0.016,0.002l0.016,0.002l0.016,0.001
			c0.531,0.031,1.039-0.332,1.452-0.631c0.682-0.513,1.839-1.587,2.494-2.165c0.971-0.856,2.012-1.702,3.079-2.434
			c3.258-2.201,6.816-4.034,10.517-5.365c0.633-0.215,1.291-0.42,1.95-0.54c0.259-0.043,0.527-0.081,0.79-0.058l0.023,0.002
			l0.022,0.003l0.022,0.003l0.021,0.004l0.02,0.004l0.02,0.004l0.019,0.005l0.019,0.005l0.018,0.005l0.017,0.006l0.017,0.006
			l0.016,0.006l0.016,0.007l0.015,0.007l0.014,0.008l0.014,0.008l0.006,0.004l0.006,0.004l0.006,0.004l0.006,0.004l0.006,0.004
			l0.006,0.004l0.005,0.005l0.005,0.005l0.005,0.005l0.005,0.005l0.005,0.005l0.005,0.005l0.005,0.005l0.004,0.005l0.004,0.005
			l0.004,0.005l0.004,0.005l0.004,0.006l0.004,0.006l0.004,0.006l0.003,0.006l0.003,0.006l0.003,0.006l0.003,0.006l0.003,0.006
			l0.003,0.006l0.003,0.006l0.002,0.006l0.002,0.006l0.002,0.007l0.002,0.007l0.002,0.007l0.002,0.007l0.002,0.007l0.002,0.007
			l0.001,0.007l0.001,0.007l0.001,0.007l0.001,0.007l0.001,0.007l0.001,0.008c0.015,0.265-0.138,0.548-0.253,0.781
			c-0.358,0.67-0.941,1.565-1.291,2.236c-0.448,0.842-0.828,1.741-1.111,2.651c-0.256,0.853-0.468,1.745-0.415,2.641
			c0.03,0.394,0.122,0.814,0.401,1.11l0.015,0.015l0.015,0.015l0.015,0.014l0.015,0.014l0.016,0.014l0.016,0.013l0.016,0.013
			l0.016,0.013l0.017,0.012l0.017,0.012l0.017,0.012l0.017,0.012l0.018,0.011l0.018,0.011l0.018,0.011l0.019,0.01l0.019,0.01
			l0.019,0.01c0.586,0.278,1.326,0.16,1.944,0.051c0.751-0.145,1.58-0.398,2.315-0.626c2.194-0.704,5.04-1.668,7.269-2.146
			c2.055-0.46,4.189-0.799,6.285-0.997c1.526-0.135,3.102-0.227,4.632-0.107c0.601,0.061,1.279,0.125,1.814,0.417l0.019,0.012
			l0.019,0.012l0.018,0.012l0.017,0.012l0.017,0.012l0.016,0.012l0.016,0.012l0.015,0.013l0.015,0.013l0.014,0.013l0.013,0.013
			l0.013,0.013l0.012,0.013l0.012,0.013l0.011,0.014l0.011,0.014l0.01,0.014l0.006,0.008l0.005,0.008l0.005,0.008l0.005,0.008
			l0.005,0.008l0.005,0.008l0.004,0.009l0.004,0.009l0.004,0.009l0.004,0.009l0.004,0.009l0.003,0.009l0.003,0.009l0.003,0.009
			l0.003,0.009l0.003,0.009l0.002,0.009l0.002,0.009l0.002,0.009l0.002,0.009l0.002,0.009l0.001,0.009l0.001,0.009l0.001,0.009
			l0.001,0.009l0.001,0.009l0.001,0.01l0,0.01l0,0.01l0,0.01l0,0.01l0,0.01l-0.001,0.01c-0.008,0.116-0.05,0.228-0.101,0.331
			c-0.219,0.413-0.561,0.755-0.879,1.093c-0.866,0.875-1.92,1.904-2.683,2.857c-1.12,1.384-2.15,2.872-2.977,4.451
			c-0.184,0.364-0.364,0.74-0.489,1.129c-0.047,0.154-0.091,0.314-0.09,0.475l0,0.011l0.001,0.011l0.001,0.011l0.001,0.01
			l0.001,0.01l0.001,0.01l0.001,0.007l0.001,0.007l0.001,0.007l0.002,0.007l0.002,0.007l0.002,0.007l0.002,0.006l0.002,0.006
			l0.002,0.006l0.002,0.006l0.002,0.006l0.002,0.006l0.003,0.006l0.003,0.006l0.003,0.005l0.003,0.005l0.003,0.005l0.003,0.005
			l0.003,0.005l0.003,0.005l0.004,0.005l0.004,0.004l0.004,0.004l0.004,0.004l0.004,0.004l0.004,0.004l0.004,0.004l0.004,0.004
			l0.004,0.004l0.005,0.004l0.005,0.003l0.005,0.003l0.005,0.003l0.005,0.003l0.005,0.003l0.005,0.003l0.005,0.003l0.006,0.003
			l0.006,0.002l0.006,0.002l0.006,0.002l0.006,0.002l0.006,0.002l0.006,0.002l0.006,0.002l0.007,0.002l0.007,0.002l0.007,0.001
			l0.007,0.001l0.007,0.001c0.259,0.029,0.554-0.079,0.803-0.146c1.217-0.389,2.522-0.789,3.774-1.015
			c3.135-0.571,6.437-0.757,9.62-0.891c3.726-0.11,7.641-0.167,11.353,0.163c0.524,0.062,1.076,0.108,1.579,0.274l0.023,0.009
			l0.022,0.009l0.021,0.009l0.02,0.009l0.018,0.009l0.017,0.009l0.016,0.009l0.015,0.009l0.006,0.004l0.006,0.004l0.005,0.004
			l0.005,0.004l0.005,0.004l0.005,0.004l0.004,0.004l0.004,0.004l0.004,0.004l0.004,0.004l0.004,0.004l0.003,0.004l0.003,0.004
			l0.003,0.004l0.003,0.004l0.002,0.004l0.002,0.004l0.002,0.004l0.002,0.004l0.002,0.004l0.001,0.004l0.001,0.004l0.001,0.004
			l0.001,0.004l0.001,0.004l0,0.004l0,0.004v0.004l0,0.004l0,0.004l-0.001,0.004l-0.001,0.004l-0.001,0.004l-0.001,0.004
			l-0.001,0.004l-0.002,0.004l-0.002,0.004l-0.002,0.005l-0.002,0.005l-0.002,0.005l-0.003,0.005l-0.003,0.005l-0.003,0.005
			l-0.003,0.005l-0.003,0.005l-0.003,0.005l-0.004,0.005l-0.004,0.005l-0.004,0.005l-0.004,0.005
			c-0.08,0.086-0.186,0.146-0.286,0.206c-0.887,0.471-1.874,0.919-2.703,1.487c-1.427,0.959-2.642,2.223-3.653,3.609
			c-0.638,0.9-1.224,1.874-1.516,2.946c-0.128,0.503-0.196,1.057,0.005,1.549l0.01,0.023l0.01,0.022l0.01,0.022l0.011,0.022
			l0.011,0.022l0.012,0.021l0.012,0.021l0.012,0.021l0.013,0.021l0.013,0.02l0.014,0.02l0.014,0.02l0.014,0.02l0.015,0.019
			l0.015,0.019l0.015,0.019l0.016,0.019l0.016,0.018l0.017,0.018l0.021,0.022l0.022,0.022l0.023,0.021l0.023,0.021l0.024,0.021
			l0.024,0.02l0.025,0.02l0.026,0.019l0.026,0.019l0.027,0.019l0.027,0.018l0.028,0.018l0.028,0.017l0.029,0.017l0.03,0.017
			c0.597,0.316,1.292,0.372,1.956,0.394c3.753-0.008,7.99-1.313,11.682-1.958c0.934-0.165,1.898-0.268,2.847-0.245
			c1.192,0.055,2.562,0.093,3.74-0.045c1.675-0.144,3.732-0.465,5.4-0.335c0.353,0.039,0.724,0.09,1.03,0.283l0.013,0.009
			l0.013,0.009l0.013,0.009l0.012,0.009l0.012,0.01l0.012,0.01l0.011,0.01l0.011,0.01l0.011,0.01l0.011,0.01l0.01,0.011l0.01,0.011
			l0.01,0.011l0.01,0.011l0.009,0.012l0.009,0.012l0.009,0.012l0.008,0.012l0.008,0.012l0.008,0.012l0.007,0.012l0.007,0.013
			l0.007,0.013l0.006,0.013l0.006,0.013l0.006,0.013l0.005,0.013l0.005,0.014l0.005,0.014l0.004,0.014l0.004,0.014l0.004,0.014
			l0.003,0.014l0.003,0.015l0.003,0.015l0.002,0.015l0.002,0.015l0.002,0.015l0.002,0.015l0.001,0.015l0.001,0.016l0.001,0.016
			l0,0.016l0,0.016l0,0.016c-0.014,0.337-0.17,0.65-0.328,0.942c-0.194,0.346-0.43,0.68-0.668,0.998
			c-1.223,1.599-3.218,3.731-4.424,5.337c-0.923,1.238-1.914,2.558-2.481,4.002c-0.096,0.279-0.188,0.577-0.149,0.875l0.002,0.013
			l0.002,0.013l0.003,0.013l0.003,0.013l0.003,0.013l0.003,0.012l0.003,0.012l0.004,0.012l0.004,0.012l0.004,0.012l0.004,0.011
			l0.005,0.011l0.005,0.011l0.005,0.011l0.005,0.011l0.005,0.01l0.006,0.01l0.006,0.01l0.006,0.01l0.006,0.01l0.007,0.009
			l0.007,0.009l0.007,0.009l0.007,0.009l0.008,0.009l0.008,0.008l0.008,0.008l0.008,0.008l0.008,0.008l0.009,0.008l0.009,0.007
			l0.009,0.007l0.014,0.01l0.014,0.01l0.015,0.009l0.015,0.009l0.016,0.008l0.016,0.008l0.017,0.007l0.017,0.007l0.018,0.007
			l0.018,0.006l0.019,0.006l0.019,0.005l0.019,0.005l0.02,0.005l0.02,0.004l0.021,0.004l0.021,0.003l0.022,0.003l0.022,0.003
			l0.023,0.002l0.023,0.002c0.393,0.02,0.783-0.083,1.158-0.188c2.417-0.737,7.519-3.383,9.879-4.444
			c2.203-1.008,4.496-1.958,6.811-2.669c1.307-0.393,2.659-0.751,4.022-0.866c0.454-0.033,0.919-0.041,1.368,0.042
			c0.255,0.049,0.512,0.129,0.726,0.282l0.016,0.012l0.016,0.012l0.015,0.012l0.015,0.012l0.015,0.013l0.015,0.013l0.014,0.013
			l0.014,0.013l0.014,0.014l0.013,0.014l0.013,0.014c0.302,0.332,0.3,0.819,0.237,1.238c-0.253,1.444-1.333,3.612-1.871,5.002
			c-0.682,1.71-1.324,3.516-1.793,5.295c-0.239,0.933-0.456,1.898-0.521,2.861c-0.024,0.519-0.036,1.077,0.2,1.553l0.01,0.018
			l0.01,0.018l0.01,0.017l0.01,0.017l0.011,0.017l0.011,0.016l0.011,0.016l0.011,0.016l0.012,0.015l0.012,0.015l0.012,0.014
			l0.012,0.014l0.012,0.014l0.013,0.013l0.013,0.013l0.013,0.013l0.014,0.013l0.014,0.013l0.015,0.012l0.015,0.012l0.015,0.011
			l0.016,0.011l0.016,0.011l0.016,0.01l0.016,0.01l0.017,0.009l0.017,0.009l0.017,0.009l0.017,0.008l0.018,0.008l0.018,0.007
			l0.018,0.007l0.018,0.007l0.019,0.006l0.019,0.006l0.019,0.006l0.019,0.005l0.02,0.005l0.02,0.004l0.02,0.004l0.02,0.004
			l0.021,0.003l0.021,0.003l0.021,0.003c0.333,0.035,0.667-0.049,0.982-0.15c1.037-0.359,2-0.955,2.937-1.519
			c4.059-2.587,8.298-5.427,12.778-7.216c1.169-0.461,2.379-0.903,3.631-1.066c0.448-0.049,0.92-0.071,1.35,0.088l0.022,0.009
			l0.022,0.009l0.021,0.009l0.021,0.01l0.021,0.01l0.02,0.01l0.02,0.011l0.02,0.011l0.019,0.011l0.019,0.012l0.018,0.012
			l0.018,0.012l0.018,0.013c0.473,0.358,0.48,1.033,0.471,1.575c-0.064,1.404-0.353,2.88-0.006,4.268
			c0.107,0.425,0.273,0.854,0.58,1.176c0.228,0.242,0.547,0.393,0.88,0.414c0.563,0.034,1.102-0.195,1.602-0.429
			c1.024-0.504,1.985-1.189,2.91-1.855c2.001-1.449,4.428-3.499,6.578-4.696c0.511-0.269,1.049-0.53,1.628-0.6l0.035-0.003
			l0.034-0.003l0.034-0.002l0.034-0.001l0.033-0.001h0.033l0.033,0.001l0.032,0.001l0.032,0.002l0.031,0.003l0.031,0.004
			c0.481,0.055,0.813,0.416,1.007,0.836c0.423,0.952,0.445,2.086,0.478,3.114l0.003,2.436c0.016,0.568,0.022,1.163,0.22,1.703
			c0.134,0.362,0.385,0.641,0.756,0.767c0.305,0.106,0.636,0.117,0.956,0.102c0.62-0.034,1.235-0.178,1.83-0.352
			c1.341-0.404,2.63-0.997,3.837-1.705c1.078-0.642,2.12-1.388,2.968-2.319"/>
	</g>
	<g id="POLYLINE_00000060747807005068500490000005231169421883730086_">
		
			<path fill="none" stroke="#FB8604" stroke-width="2.75" stroke-linecap="round" stroke-linejoin="round" stroke-miterlimit="10" d="
			M660.43,226.17c0.272,2.816,0.237,5.686-0.171,8.487c-0.202,1.319-0.491,2.648-0.988,3.89c-0.421,1.06-1.015,2.052-1.68,2.976
			l-1.467,1.983c-1.061,1.426-1.83,3.062-2.49,4.706c-0.952,2.354-2.057,5.475-3.276,7.668c-0.621,1.141-1.356,2.234-2.16,3.254
			c-1.523,1.934-3.345,3.676-5.192,5.299c-2.329,2.031-5.193,4.34-7.619,6.27c-5.416,4.222-11.068,8.433-17.3,11.373
			c-2.667,1.257-6.489,2.902-8.951,4.457c-1.821,1.108-3.527,2.482-5.108,3.91c-2.067,1.841-4.67,4.513-6.961,6.02
			c-0.521,0.33-1.073,0.633-1.67,0.798c-0.379,0.105-0.783,0.136-1.169,0.053c-0.607-0.12-1.205-0.497-1.746-0.786
			c-0.385-0.204-0.793-0.39-1.23-0.44c-0.344-0.042-0.693,0.016-1.017,0.134c-0.424,0.153-0.82,0.385-1.197,0.63
			c-1.646,1.096-3.287,2.688-5.041,3.614c-0.673,0.354-1.406,0.638-2.172,0.68c-0.552,0.03-1.107-0.082-1.619-0.287
			c-1.25-0.511-2.255-1.476-3.116-2.492c-1.566-1.895-2.746-4.104-3.668-6.375"/>
	</g>
	<g id="POLYLINE_00000160149065642204134230000007194308471377298335_">
		
			<path fill="none" stroke="#FB8604" stroke-width="2.75" stroke-linecap="round" stroke-linejoin="round" stroke-miterlimit="10" d="
			M571.113,222.636c-0.649,3.011-1.069,6.187-0.333,9.221c0.386,1.61,1.135,3.118,1.998,4.523c1.775,2.86,4.732,6.454,6.638,9.24
			c2.465,3.573,4.707,7.37,6.431,11.36c1.123,2.652,2.073,5.443,2.316,8.329c0.169,2.09-0.125,4.306-1.294,6.089
			c-0.841,1.303-2.175,2.261-3.672,2.659c-1.293,0.356-2.662,0.33-3.983,0.166c-2.909-0.387-5.74-1.383-8.484-2.394
			c-4.717-1.797-12.477-5.184-17.295-6.3c-3.341-0.848-7.226-1.329-10.594-2.073c-1.563-0.361-3.132-0.829-4.545-1.603
			c-2.816-1.552-4.797-4.253-6.249-7.061c-1.066-2.082-1.941-4.298-1.986-6.666c-0.06-2.576,0.406-5.165,1.188-7.614
			c0.89-2.713,2.278-5.363,4.479-7.237c1.832-1.603,4.341-2.79,6.485-3.931c1.675-0.886,3.374-1.849,4.781-3.13
			c1.747-1.581,3.303-3.848,4.733-5.72c1.091-1.401,2.282-2.795,3.822-3.715c3.145-1.866,7.663-1.85,11.207-2.304
			c7.414-0.786,14.963-4.019,22.46-4.142c3.216-0.035,6.447,0.548,9.432,1.751c2.767,1.084,5.259,2.785,7.537,4.675
			c2.147,1.737,4.551,3.954,7.043,5.156c2.278,1.111,4.866,1.427,7.376,1.279c4.587-0.222,10.819-2.243,15.299-3.332
			c4.293-1.057,8.736-1.96,13.148-2.307"/>
	</g>
	<g id="POLYLINE_00000143579123668525236590000010868454275411285905_">
		
			<path fill="none" stroke="#FB8604" stroke-width="2.75" stroke-linecap="round" stroke-linejoin="round" stroke-miterlimit="10" d="
			M649.053,217.553c-0.601,0.431-1.031,1.078-1.219,1.792c-0.246,0.919-0.161,1.896,0.06,2.811c0.215,0.893,0.599,1.759,1.197,2.462
			c0.625,0.743,1.469,1.281,2.371,1.625c0.995,0.379,2.057,0.579,3.112,0.69c1.111,0.111,2.242,0.123,3.352-0.004
			c0.567-0.068,1.141-0.171,1.683-0.357c0.318-0.112,0.635-0.252,0.899-0.464c0.194-0.155,0.353-0.357,0.447-0.588
			c0.101-0.244,0.135-0.511,0.136-0.773c0.006-0.462-0.093-0.974-0.164-1.432c-0.151-0.902-0.313-1.861-0.613-2.725
			c-0.335-0.993-0.873-1.944-1.685-2.622c-0.731-0.615-1.639-0.981-2.557-1.214c-1.455-0.357-2.99-0.411-4.467-0.166
			C650.708,216.749,649.801,217.017,649.053,217.553z"/>
	</g>
	<g id="POLYLINE_00000134970650279038387270000003583927993749396865_">
		
			<path fill="none" stroke="#FB8604" stroke-width="2.75" stroke-linecap="round" stroke-linejoin="round" stroke-miterlimit="10" d="
			M480.064,439.506c0.631,7.976,0.565,16.249-2.211,23.85c-1.388,4.028-3.997,9.816-5.327,13.878
			c-0.161,0.548-0.315,1.112-0.355,1.683c-0.021,0.353-0.004,0.743,0.211,1.04c0.15,0.209,0.394,0.325,0.64,0.381
			c0.515,0.11,1.212,0.069,1.74,0.08c0.628,0.011,1.272,0.07,1.856,0.316c0.507,0.209,0.947,0.567,1.265,1.013
			c0.545,0.767,0.789,1.704,0.974,2.614c0.347,1.849,0.389,3.759,0.289,5.633c-0.126,2.383-0.616,4.75-1.336,7.022
			c-1.091,3.531-2.87,7.397-3.692,11.001c-0.205,1.043-0.414,2.238,0.202,3.184c0.311,0.473,0.804,0.788,1.302,1.035
			c0.563,0.285,1.21,0.534,1.649,0.992c0.44,0.439,0.69,1.027,0.846,1.62c0.312,1.234,0.359,2.55,0.4,3.818
			c0.105,7.379-1.12,17.036-1.741,24.461c-0.14,1.822-0.313,3.873-0.325,5.692c-0.003,0.828,0.016,1.681,0.132,2.501
			c0.085,0.579,0.215,1.165,0.489,1.686c0.205,0.399,0.523,0.736,0.911,0.962c0.947,0.56,2.149,0.622,3.039,1.292
			c0.41,0.3,0.697,0.736,0.889,1.201c0.481,1.158,0.662,2.723,0.947,3.942c0.139,0.577,0.294,1.172,0.622,1.674
			c0.217,0.331,0.522,0.606,0.879,0.778c0.56,0.272,1.2,0.316,1.813,0.318c1.549-0.009,3.244-0.274,4.734,0.259
			c0.388,0.142,0.754,0.35,1.063,0.625c0.401,0.356,0.707,0.809,0.951,1.284c0.535,1.061,0.811,2.239,1.029,3.401
			c0.452,2.554,0.618,5.22,0.691,7.81c0.044,0.497-0.009,3.304,0.063,3.827c0.032,0.399,0.068,0.815,0.19,1.199
			c0.066,0.21,0.16,0.415,0.304,0.583c0.119,0.139,0.272,0.248,0.439,0.324c0.386,0.175,0.819,0.204,1.237,0.214
			c0.431,0.018,1.088-0.033,1.511,0.009c0.202,0.014,0.401,0.049,0.595,0.105c0.36,0.105,0.686,0.304,0.972,0.545
			c1.019,0.904,1.711,2.132,2.42,3.281c2.835,4.702,5.654,10.33,9.269,14.481c1.583,1.83,3.475,3.52,5.823,4.258
			c1.119,0.37,2.302,0.548,3.474,0.641c1.83,0.213,29.389,0.065,31.755,0.103c0.794-0.025,1.623-0.019,2.391-0.25
			c0.42-0.122,0.82-0.326,1.151-0.613c0.372-0.32,0.66-0.728,0.895-1.156c0.527-0.978,0.838-2.064,1.03-3.155
			c0.229-1.343,0.261-2.73,0.042-4.077c-0.438-2.707-2.045-5.065-3.895-7.024c-1.009-1.037-2.076-2.062-3.328-2.802
			c-0.694-0.405-1.458-0.688-2.243-0.857c-3.323-0.655-7.672-0.065-11.058-0.192c-0.481-0.026-0.975-0.062-1.444-0.179
			c-0.399-0.096-0.786-0.252-1.13-0.477c-0.425-0.274-0.786-0.639-1.114-1.021c-0.863-1.023-1.583-2.177-2.238-3.342
			c-0.857-1.542-1.597-3.17-2.227-4.818c-1.968-5.13-2.811-10.653-3.099-16.121c-0.388-7.524,0.115-15.97,0.493-23.521
			c0.718-11.515,1.476-24.16,3.338-35.526c0.791-4.561,1.787-9.196,3.698-13.433c0.891-1.961,2.013-3.839,3.411-5.482
			c4.305-5.079,11-7.81,16.47-11.38c3.463-2.197,6.884-4.619,10.066-7.207c2.778-2.26,5.441-4.76,7.646-7.591
			c1.711-2.174,3.198-4.598,4.583-6.989c0,0,2.657-4.654,2.657-4.654s0.318-0.537,0.318-0.537s0.299-0.491,0.299-0.491l0.142-0.227
			c0,0,0.137-0.213,0.137-0.213s0.132-0.199,0.132-0.199s0.127-0.186,0.127-0.186s0.122-0.173,0.122-0.173
			c0.354-0.482,0.733-0.97,1.245-1.29c0.503-0.319,1.137-0.297,1.685-0.498c1.076-0.357,1.987-1.109,2.681-1.992
			c1.011-1.299,1.64-2.851,2.221-4.378c2.588-7.156,4.893-17.554,7.226-24.805c0,0,0.066-0.178,0.066-0.178l0.065-0.166
			c0,0,0.032-0.079,0.032-0.079s0.031-0.076,0.031-0.076c0.101-0.24,0.221-0.495,0.362-0.716c0.097-0.153,0.211-0.301,0.339-0.43
			c0,0,0.016-0.016,0.016-0.016s0.016-0.016,0.016-0.016s0.017-0.016,0.017-0.016s0.017-0.016,0.017-0.016l0.017-0.016
			c0,0,0.017-0.015,0.017-0.015s0.034-0.03,0.034-0.03l0.035-0.03l0.035-0.029c0,0,0.036-0.029,0.036-0.029s0.037-0.029,0.037-0.029
			s0.037-0.029,0.037-0.029s0.038-0.029,0.038-0.029l0.039-0.029c0,0,0.08-0.058,0.08-0.058l0.083-0.059
			c1.04-0.702,2.183-1.426,2.938-2.445c0.345-0.456,0.606-0.974,0.816-1.503c0.465-1.16,0.963-3.242,1.313-4.461
			c0.122-0.459,1.904-6.219,2.096-6.849c1.552-5.177,3.104-12.478,4.316-17.813c0.165-0.687,0.343-1.417,0.565-2.086
			c0.148-0.44,0.321-0.878,0.567-1.273c0.34-0.564,0.9-1.007,1.376-1.454c0.333-0.315,0.642-0.665,0.889-1.052
			c0.635-1.002,0.92-2.184,1.178-3.33c0.431-2.062,0.662-4.203,0.772-6.306c0.103-2.186,0.07-5.224,0.34-7.383
			c0.11-0.877,0.269-1.765,0.624-2.58c0.408-0.942,1.072-1.874,1.476-2.818c0.731-1.659,1.338-4.145,1.853-5.894
			c0.241-0.813,0.535-1.641,1.104-2.286c0.973-1.107,2.426-1.882,3.174-3.186c0.204-0.355,0.342-0.755,0.361-1.166
			c0.03-0.643-0.171-1.273-0.412-1.862c-0.448-1.079-1.24-2.364-1.783-3.403c-0.642-1.236-1.222-2.535-1.611-3.874
			c-0.173-0.632-0.336-1.294-0.265-1.954c0.035-0.327,0.148-0.642,0.302-0.932c0.123-0.216,0.272-0.5,0.362-0.726
			c0.076-0.199,0.123-0.412,0.144-0.624c0.082-0.857-0.21-1.704-0.607-2.452c-0.372-0.691-0.857-1.344-1.339-1.963
			c-2.882-3.568-6.459-7.454-9.012-11.25c-1.04-1.544-1.799-3.275-2.247-5.081c-0.317-1.213-0.527-2.468-0.558-3.723
			c-0.068-2.416,0.452-4.82,1.212-7.103"/>
	</g>
	<g id="POLYLINE_00000157299593838685870350000012164030729847434386_">
		
			<path fill="none" stroke="#FB8604" stroke-width="2.75" stroke-linecap="round" stroke-linejoin="round" stroke-miterlimit="10" d="
			M324.157,467.606c1.266,0.894,3.682,2.176,5.055,2.951l2.726,1.613c0.88,0.493,1.792,1.008,2.792,1.202
			c0.452,0.084,0.941,0.068,1.351-0.158c0.283-0.15,0.527-0.366,0.753-0.591c0.469-0.47,0.941-1.065,1.462-1.477
			c0.624-0.517,1.352-0.792,2.152-0.883c1.053-0.125,2.126-0.013,3.168,0.157c4.395,0.741,8.811,2.803,13.037,4.166
			c0.936,0.275,1.913,0.483,2.893,0.454c1.442-0.033,2.869-0.703,4.308-0.758c0.445-0.019,0.898,0.023,1.328,0.142
			c0.66,0.183,1.267,0.525,1.828,0.91c2.179,1.522,4.234,4.089,6.067,6.01c1.025,1.07,2.089,2.169,3.379,2.918
			c0.54,0.309,1.132,0.546,1.753,0.623c0.538,0.07,1.089,0.008,1.603-0.158c1.734-0.586,3.191-1.857,4.771-2.745
			c0.639-0.362,1.316-0.694,2.043-0.833c0.945-0.183,1.913,0.043,2.797,0.38c1.66,0.653,3.273,1.574,5.061,1.868
			c3.045,0.544,6.338,0.072,8.996-1.548l1.561-0.947c0.942-0.56,1.971-1.057,3.082-1.12c1.12-0.069,2.217,0.286,3.245,0.695
			c2.266,0.919,4.99,2.627,7.213,3.652c0.823,0.378,1.68,0.727,2.567,0.92c1.36,0.31,2.776,0.159,4.123-0.144
			c1.471-0.34,3.268-0.781,4.746-0.939c2.161-0.252,4.395-0.265,6.567-0.146c4,0.244,8.025,0.935,11.798,2.306
			c1.824,0.659,3.58,1.556,5.234,2.567c1.451,0.859,3.609,2.408,5.12,3.139c0.573,0.263,1.206,0.516,1.848,0.419
			c0.782-0.136,1.351-0.79,2.003-1.188c0.455-0.293,0.954-0.441,1.497-0.414c0.638,0.026,1.262,0.214,1.856,0.438
			c1.309,0.506,2.564,1.24,3.768,1.959c1.82,1.14,6.062,3.764,7.796,4.908"/>
	</g>
	<g id="POLYLINE_00000036950077505658308380000006178988886130986159_">
		
			<path fill="none" stroke="#FB8604" stroke-width="2.75" stroke-linecap="round" stroke-linejoin="round" stroke-miterlimit="10" d="
			M229.715,388.685c-3.833,6.394-6.84,13.408-9.478,20.371c-1.507,4.085-3.536,9.344-4.693,13.498
			c-0.36,1.344-0.734,2.735-0.813,4.129c-0.012,0.337-0.007,0.683,0.083,1.01l0.008,0.027l0.008,0.026l0.009,0.026l0.009,0.025
			l0.009,0.024l0.01,0.024l0.01,0.023l0.01,0.023l0.011,0.022l0.011,0.021l0.011,0.021l0.012,0.02l0.012,0.02l0.013,0.019
			l0.013,0.018l0.013,0.018l0.014,0.017l0.014,0.017l0.014,0.016l0.015,0.015l0.015,0.015l0.016,0.014l0.016,0.013l0.016,0.013
			l0.017,0.012l0.017,0.011l0.018,0.011c0.21,0.121,0.465,0.106,0.698,0.079c0.486-0.061,1.011-0.235,1.504-0.209
			c0.164,0.01,0.329,0.047,0.472,0.13l0.018,0.011l0.018,0.011l0.018,0.012l0.017,0.012l0.017,0.013l0.017,0.013l0.017,0.014
			l0.017,0.014l0.016,0.014l0.016,0.015l0.016,0.015l0.016,0.016l0.015,0.016l0.015,0.017l0.015,0.017l0.015,0.018l0.015,0.018
			l0.014,0.019l0.014,0.019c0.249,0.348,0.353,0.777,0.428,1.192c0.198,1.241,0.117,2.527,0.021,3.774
			c-0.422,5.409-2.217,11-2.574,16.368c-0.191,2.752-0.118,5.643,0.027,8.399c0.164,2.714,0.411,5.548,0.895,8.223
			c0.177,0.94,0.381,1.901,0.698,2.805c0.144,0.394,0.306,0.795,0.562,1.131l0.019,0.024l0.019,0.023l0.019,0.023l0.02,0.022
			l0.02,0.021l0.02,0.02l0.02,0.019l0.02,0.018l0.02,0.017l0.02,0.017l0.02,0.016l0.02,0.015l0.02,0.014l0.02,0.013l0.02,0.012
			l0.02,0.011l0.02,0.01l0.021,0.01l0.021,0.009c0.33,0.128,0.675-0.08,0.973-0.206c0.159-0.066,0.339-0.143,0.513-0.091
			l0.013,0.004l0.012,0.005l0.012,0.005l0.012,0.006l0.012,0.006l0.012,0.007l0.012,0.007l0.012,0.008l0.012,0.008l0.012,0.009
			l0.011,0.009l0.011,0.01l0.011,0.01l0.011,0.01l0.011,0.011l0.011,0.011l0.011,0.012l0.011,0.012l0.011,0.013l0.011,0.013
			l0.01,0.014l0.01,0.014l0.01,0.015l0.01,0.015c0.136,0.212,0.207,0.459,0.267,0.702c0.119,0.509,0.168,1.042,0.201,1.563
			c0.129,2.785-0.155,5.597-0.592,8.345c-0.37,2.377-1.346,5.986-1.929,8.351c-0.437,1.835-0.8,3.728-0.879,5.615
			c-0.079,1.807,0.102,3.67,0.318,5.465c0.198,1.826,0.64,4.437,0.617,6.247c-0.003,0.816-0.087,1.646-0.361,2.419
			c-0.26,0.753-0.698,1.435-1.209,2.042c-0.386,0.462-0.841,0.917-1.275,1.337c-2.422,2.301-6.808,6.012-9.204,8.314
			c-1.142,1.099-2.3,2.255-3.211,3.557c-0.652,0.926-1.171,1.953-1.587,3.005c-0.868,2.209-1.444,4.577-1.952,6.893
			c-0.723,3.336-1.323,7.209-1.828,10.596c-1.246,9.057-3.554,28.183-4.718,37.139c-0.252,2.328-0.534,4.925-0.566,7.255
			c-0.015,1.301,0.044,2.627,0.353,3.895c0.259,1.073,0.707,2.099,1.243,3.062c0.622,1.109,1.378,2.155,2.268,3.065
			c1.366,1.361,2.812,2.761,4.345,3.931c1.004,0.763,2.094,1.443,3.281,1.88c1.794,0.676,3.747,0.776,5.645,0.806l20.547,0.011
			c0.366-0.011,0.86,0.007,1.219-0.029c0.453-0.034,0.911-0.113,1.325-0.308c0.682-0.31,1.152-0.937,1.464-1.6
			c0.642-1.392,0.919-2.938,1.02-4.46c0.089-1.596-0.065-3.302-0.983-4.659c-1.185-1.763-3.277-2.562-5.202-3.244
			c-1.667-0.56-4.414-1.39-5.981-2.101c-1.337-0.592-2.633-1.313-3.79-2.211c-0.671-0.526-1.311-1.113-1.827-1.794
			c-0.395-0.52-0.711-1.101-0.951-1.707c-0.737-1.934-0.926-4.037-1.036-6.089c-0.194-5.017,0.438-10.086,1.342-15.013
			c1.115-5.697,2.578-11.547,5.945-16.37c2.451-3.516,5.568-6.594,8.701-9.5c5.952-5.421,12.962-10.806,19.341-15.741
			c1.99-1.41,4.567-3.33,6.724-4.418c2.722-1.462,9.345-3.972,12.268-5.2c3.998-1.687,8.004-3.583,11.611-6.007
			c2.483-1.609,5.951-4.44,8.453-6.035c0.562-0.33,1.227-0.733,1.885-0.788l0.023-0.001l0.023-0.001l0.023,0l0.022,0l0.022,0.001
			l0.022,0.001l0.021,0.002l0.021,0.002l0.021,0.002l0.021,0.003l0.02,0.003c0.592,0.112,0.841,0.776,1.349,1.038
			c0.293,0.158,0.64,0.167,0.964,0.127c0.953-0.141,1.823-0.617,2.639-1.107c2.198-1.366,4.081-3.221,5.834-5.109
			c1.89-2.015,4.228-4.888,6.363-6.601c0.425-0.327,0.876-0.637,1.378-0.834c0.325-0.128,0.683-0.193,1.03-0.128
			c0.486,0.082,0.941,0.382,1.365,0.62c0.305,0.169,0.638,0.333,0.995,0.322c0.294-0.009,0.573-0.129,0.82-0.281
			c0.419-0.26,0.776-0.613,1.105-0.977c1.006-1.135,1.837-2.505,2.631-3.796c1.542-2.528,2.938-5.194,3.947-7.982
			c1.51-3.939,2.195-8.727,3.345-12.778c0.16-0.487,0.321-1.038,0.63-1.448l0.012-0.014l0.011-0.013l0.012-0.013l0.012-0.012
			l0.012-0.012l0.012-0.011l0.012-0.011l0.012-0.01l0.012-0.01l0.012-0.009l0.012-0.009l0.012-0.008l0.012-0.008l0.012-0.007
			l0.012-0.007l0.012-0.006l0.012-0.005l0.012-0.005l0.012-0.004l0.012-0.004l0.012-0.003l0.012-0.003l0.012-0.002l0.012-0.002
			l0.012-0.001l0.012,0l0.012,0l0.012,0.001l0.012,0.001l0.012,0.002l0.012,0.003l0.012,0.003l0.012,0.004l0.006,0.002l0.006,0.002
			l0.006,0.002l0.006,0.003l0.006,0.003l0.006,0.003l0.006,0.003l0.006,0.003l0.006,0.003l0.006,0.004
			c0.084,0.051,0.151,0.126,0.212,0.203c0.308,0.411,0.565,1.003,0.837,1.438c0.174,0.273,0.385,0.611,0.695,0.737l0.014,0.005
			l0.014,0.005l0.014,0.004l0.014,0.004l0.014,0.003l0.015,0.003l0.015,0.003l0.015,0.002l0.015,0.002l0.015,0.001l0.015,0.001
			l0.015,0l0.015,0l0.015,0l0.015-0.001l0.015-0.001l0.015-0.002l0.015-0.002l0.015-0.002l0.015-0.003l0.015-0.003l0.015-0.004
			l0.015-0.004l0.015-0.004l0.015-0.005l0.015-0.005l0.015-0.005l0.015-0.006l0.015-0.006l0.015-0.007l0.016-0.007l0.016-0.007
			l0.016-0.008c0.254-0.132,0.453-0.348,0.633-0.566c0.91-1.185,1.499-2.622,2.108-3.978c1.686-4.166,3.808-8.357,4.064-12.911
			c0.214-2.971-0.216-6.419-0.057-9.392c0.034-0.488,0.087-0.987,0.217-1.46c0.072-0.253,0.167-0.507,0.326-0.719l0.013-0.017
			l0.013-0.017l0.014-0.017l0.014-0.016l0.014-0.016l0.014-0.015l0.014-0.015l0.015-0.015l0.015-0.014l0.015-0.014
			c0.269-0.242,0.65-0.28,0.997-0.289c0.433-0.016,0.942,0.041,1.317-0.214l0.013-0.009l0.013-0.009l0.013-0.01
			c0.256-0.203,0.391-0.517,0.484-0.822c0.128-0.436,0.177-0.897,0.205-1.35c0.054-0.948,0-1.956-0.061-2.904
			c-0.398-4.56-0.591-9.407-1.785-13.839c-1.531-5.576-4.242-10.825-7.679-15.463"/>
	</g>
</g>
<g id="_x32_D_x24_AG-OUTLINE">
	<g id="POLYLINE_00000004511832099036019760000010423021915241906329_">
		
			<path fill="none" stroke="#FB8604" stroke-width="3.5" stroke-linecap="round" stroke-linejoin="round" stroke-miterlimit="10" d="
			M477.505,497.954c-1.033,3.119-2.617,6.739-3.359,9.931c-0.137,0.638-0.253,1.294-0.23,1.949c0.02,0.522,0.159,1.054,0.48,1.474
			c0.312,0.417,0.766,0.698,1.225,0.927c0.563,0.285,1.21,0.534,1.649,0.992c0.44,0.439,0.69,1.027,0.846,1.62
			c0.312,1.234,0.359,2.55,0.4,3.818c0.105,7.379-1.12,17.036-1.741,24.461c-0.14,1.822-0.313,3.873-0.325,5.692
			c-0.003,0.828,0.016,1.681,0.132,2.501c0.085,0.579,0.215,1.165,0.489,1.686c0.205,0.399,0.523,0.736,0.911,0.962
			c0.947,0.56,2.149,0.622,3.039,1.292c0.41,0.3,0.697,0.736,0.889,1.201c0.481,1.158,0.662,2.723,0.947,3.942
			c0.139,0.577,0.294,1.172,0.622,1.674c0.217,0.331,0.522,0.606,0.879,0.778c0.56,0.272,1.2,0.316,1.813,0.318
			c1.549-0.009,3.244-0.274,4.734,0.259c0.388,0.142,0.754,0.35,1.063,0.625c0.401,0.356,0.707,0.809,0.951,1.284
			c0.535,1.061,0.811,2.239,1.029,3.401c0.452,2.554,0.618,5.22,0.691,7.81c0.044,0.497-0.009,3.304,0.063,3.827
			c0.032,0.399,0.068,0.815,0.19,1.199c0.066,0.21,0.16,0.415,0.304,0.583c0.119,0.139,0.272,0.248,0.439,0.324
			c0.386,0.175,0.819,0.204,1.237,0.214c0.431,0.018,1.088-0.033,1.511,0.009c0.202,0.014,0.401,0.049,0.595,0.105
			c0.36,0.105,0.686,0.304,0.972,0.545c1.019,0.904,1.711,2.132,2.42,3.281c2.835,4.702,5.654,10.33,9.269,14.481
			c1.583,1.83,3.475,3.52,5.823,4.258c1.119,0.37,2.302,0.548,3.474,0.641c1.83,0.213,29.389,0.065,31.755,0.103
			c0.794-0.025,1.623-0.019,2.391-0.25c0.42-0.122,0.82-0.326,1.151-0.613c0.372-0.32,0.66-0.728,0.895-1.156
			c0.527-0.978,0.838-2.064,1.03-3.155c0.229-1.343,0.261-2.73,0.042-4.077c-0.438-2.707-2.045-5.065-3.895-7.024
			c-1.009-1.037-2.076-2.062-3.328-2.802c-0.694-0.405-1.458-0.688-2.243-0.857c-3.323-0.655-7.672-0.065-11.058-0.192
			c-0.481-0.026-0.975-0.062-1.444-0.179c-0.399-0.096-0.786-0.252-1.13-0.477c-0.425-0.274-0.786-0.639-1.114-1.021
			c-0.863-1.023-1.583-2.177-2.238-3.342c-0.857-1.542-1.597-3.17-2.227-4.818c-1.968-5.13-2.811-10.653-3.099-16.121
			c-0.388-7.524,0.115-15.97,0.493-23.521c0.718-11.515,1.476-24.16,3.338-35.526c0.791-4.561,1.787-9.196,3.698-13.433
			c0.891-1.961,2.013-3.839,3.411-5.482c4.305-5.079,11-7.81,16.47-11.38c3.463-2.197,6.884-4.619,10.066-7.207
			c2.778-2.26,5.441-4.76,7.646-7.591c1.711-2.174,3.198-4.598,4.583-6.989c0,0,2.657-4.654,2.657-4.654s0.318-0.537,0.318-0.537
			s0.299-0.491,0.299-0.491l0.142-0.227c0,0,0.137-0.213,0.137-0.213s0.132-0.199,0.132-0.199s0.127-0.186,0.127-0.186
			s0.122-0.173,0.122-0.173c0.354-0.482,0.733-0.97,1.245-1.29c0.503-0.319,1.137-0.297,1.685-0.498
			c1.076-0.357,1.987-1.109,2.681-1.992c1.011-1.299,1.64-2.851,2.221-4.378c2.588-7.156,4.893-17.554,7.226-24.805
			c0,0,0.066-0.178,0.066-0.178l0.065-0.166c0,0,0.032-0.079,0.032-0.079s0.031-0.076,0.031-0.076
			c0.101-0.24,0.221-0.495,0.362-0.716c0.097-0.153,0.211-0.301,0.339-0.43c0,0,0.016-0.016,0.016-0.016s0.016-0.016,0.016-0.016
			s0.017-0.016,0.017-0.016s0.017-0.016,0.017-0.016l0.017-0.016c0,0,0.017-0.015,0.017-0.015s0.034-0.03,0.034-0.03l0.035-0.03
			l0.035-0.029c0,0,0.036-0.029,0.036-0.029s0.037-0.029,0.037-0.029s0.037-0.029,0.037-0.029s0.038-0.029,0.038-0.029l0.039-0.029
			c0,0,0.08-0.058,0.08-0.058l0.083-0.059c1.04-0.702,2.183-1.426,2.938-2.445c0.345-0.456,0.606-0.974,0.816-1.503
			c0.465-1.16,0.963-3.242,1.313-4.461c0.122-0.459,1.904-6.219,2.096-6.849c1.552-5.177,3.104-12.478,4.316-17.813
			c0.165-0.687,0.343-1.417,0.565-2.086c0.148-0.44,0.321-0.878,0.567-1.273c0.34-0.564,0.9-1.007,1.376-1.454
			c0.333-0.315,0.642-0.665,0.889-1.052c0.635-1.002,0.92-2.184,1.178-3.33c0.431-2.062,0.662-4.203,0.772-6.306
			c0.103-2.186,0.07-5.224,0.34-7.383c0.11-0.877,0.269-1.765,0.624-2.58c0.408-0.942,1.072-1.874,1.476-2.818
			c0.731-1.659,1.338-4.145,1.853-5.894c0.241-0.813,0.535-1.641,1.104-2.286c0.973-1.107,2.426-1.882,3.174-3.186
			c0.204-0.355,0.342-0.755,0.361-1.166c0.03-0.643-0.171-1.273-0.412-1.862c-0.448-1.079-1.24-2.364-1.783-3.403
			c-0.642-1.236-1.222-2.535-1.611-3.874c-0.173-0.632-0.336-1.294-0.265-1.954c0.035-0.327,0.148-0.642,0.302-0.932
			c0.123-0.216,0.272-0.5,0.362-0.726c0.076-0.199,0.123-0.412,0.144-0.624c0.082-0.857-0.21-1.704-0.607-2.452
			c-0.372-0.691-0.857-1.344-1.339-1.963c-2.882-3.568-6.459-7.454-9.012-11.25c-1.04-1.544-1.799-3.275-2.247-5.081
			c-0.317-1.213-0.527-2.468-0.558-3.723c-0.068-2.416,0.452-4.82,1.212-7.103c3.277-2.614,7.778-4.494,11.567-6.266
			c6.231-2.939,11.885-7.152,17.3-11.373c2.429-1.933,5.288-4.237,7.619-6.27c1.847-1.623,3.669-3.364,5.192-5.299
			c0.803-1.02,1.539-2.114,2.16-3.254c1.216-2.184,2.337-5.334,3.276-7.668c0.661-1.643,1.43-3.28,2.49-4.706l1.467-1.983
			c0.665-0.924,1.259-1.916,1.68-2.976c0.498-1.241,0.786-2.571,0.988-3.89c0.408-2.801,0.444-5.671,0.171-8.487
			c0.229-0.164,0.419-0.386,0.526-0.648c0.126-0.304,0.147-0.64,0.133-0.965c-0.072-0.928-0.308-2.183-0.519-3.096
			c-0.311-1.27-0.854-2.543-1.856-3.42c-0.605-0.537-1.35-0.893-2.116-1.137c-1.098-0.346-2.263-0.482-3.412-0.461
			c-0.849,0.019-1.708,0.126-2.524,0.363c-0.567,0.167-1.126,0.398-1.607,0.748c-4.412,0.347-8.855,1.25-13.148,2.307
			c-4.522,1.09-10.692,3.103-15.299,3.332c-2.57,0.153-5.223-0.185-7.54-1.359c-2.407-1.201-4.789-3.383-6.879-5.076
			c-2.348-1.948-4.89-3.668-7.754-4.761c-2.924-1.145-6.077-1.699-9.215-1.665c-7.497,0.123-15.046,3.357-22.46,4.142
			c-3.554,0.456-8.058,0.437-11.207,2.304c-1.54,0.92-2.731,2.314-3.822,3.715c-1.579,2.055-3.207,4.488-5.211,6.134
			c-2.293,1.896-5.315,3.143-7.876,4.629c-1.399,0.812-2.76,1.748-3.87,2.932c-1.154,1.232-2.039,2.704-2.725,4.241
			c-0.847,1.91-1.409,3.956-1.732,6.019c-0.26,1.745-0.383,3.547-0.096,5.296c-1.736,3.301-3.441,6.885-5.578,9.945
			c-2.342,3.439-5.988,7.791-8.259,11.272c-0.484,0.755-0.963,1.54-1.317,2.365c-0.159,0.383-0.304,0.786-0.328,1.204l-0.001,0.03
			l-0.001,0.03l0,0.029l0.001,0.029l0.001,0.028l0.002,0.028l0.002,0.028c0.038,0.527,0.464,0.864,0.793,1.227
			c0.187,0.208,0.344,0.453,0.401,0.729l0.005,0.026l0.005,0.026c0.072,0.428-0.011,0.866-0.117,1.282
			c-0.271,1.004-0.738,1.964-1.21,2.887c-0.539,1.041-1.214,2.182-1.825,3.187c-2.003,3.195-5.707,8.899-7.742,12.115
			c-1.409,2.147-2.91,4.363-4.647,6.256c-1.344,1.472-2.907,2.764-4.633,3.763c-2.236,1.303-4.747,2.165-7.199,2.966
			c-6.365,1.971-13.648,4.004-19.595,6.962c-1.065,0.533-2.154,1.115-3.129,1.8c-0.556,0.406-1.213,0.895-1.521,1.524l-0.01,0.023
			l-0.009,0.022l-0.009,0.022l-0.008,0.022l-0.008,0.022l-0.007,0.022l-0.007,0.022l-0.006,0.022l-0.006,0.022l-0.005,0.022
			l-0.005,0.022l-0.004,0.021l-0.003,0.021l-0.003,0.021l-0.002,0.021l-0.002,0.021l-0.001,0.021l-0.001,0.021l0,0.021
			c0.008,0.412,0.335,0.747,0.562,1.064c0.184,0.25,0.365,0.544,0.33,0.868l-0.003,0.024l-0.004,0.024l-0.004,0.024l-0.005,0.025
			l-0.006,0.025l-0.006,0.025l-0.007,0.025l-0.008,0.025l-0.009,0.025l-0.009,0.025l-0.01,0.026l-0.011,0.026l-0.011,0.026
			l-0.012,0.026l-0.013,0.026l-0.013,0.026l-0.014,0.026c-0.271,0.477-0.699,0.843-1.123,1.181c-1.509,1.147-3.261,1.982-4.99,2.744
			c-3.363,1.427-6.909,2.561-10.533,3.075c-3.182,0.469-6.667,0.309-9.881,0.193c-2.651-0.103-5.309,0.023-7.912,0.563
			c-4.631,0.917-9.594,2.579-14.294,3.103c-4.787,0.586-11.091-0.006-15.925-0.225c-5.731-0.329-12.407,0.493-18.148,0.972
			c-3.541,0.277-7.228,0.371-10.777,0.212c-6.606-0.26-16.012-1.367-22.594-1.324c-2.083,0.01-4.231,0.154-6.293,0.446
			c-2.402,0.301-7.103,1.336-9.522,1.805c-2.262,0.433-4.642,0.711-6.94,0.875c-5.463,0.355-12.751,0.642-18.07,1.668
			c-4.513,0.816-9.035,2.187-13.382,3.64c-4.902,1.655-15.121,5.583-20.029,6.692c-4.275,1.077-12.121,1.565-16.569,2.055
			c-3.512,0.397-7.449,0.889-10.908,1.548c-1.762,0.345-3.582,0.731-5.276,1.329c-0.73,0.273-1.486,0.565-2.08,1.083l-0.028,0.026
			l-0.027,0.026l-0.026,0.026l-0.025,0.026l-0.024,0.027l-0.023,0.027l-0.023,0.027l-0.022,0.027l-0.021,0.027l-0.02,0.027
			l-0.019,0.027l-0.018,0.027c-0.209,0.317-0.199,0.708-0.138,1.068c0.08,0.471,0.205,1.005-0.011,1.457l-0.011,0.024l-0.012,0.024
			l-0.012,0.024l-0.013,0.024l-0.014,0.024c-0.199,0.343-0.501,0.614-0.809,0.856c-0.727,0.557-1.562,0.99-2.379,1.4
			c-3.029,1.493-6.539,2.755-9.397,4.563c-1.627,1.022-3.128,2.5-4.528,3.813c-0.952,0.877-1.989,1.692-3.16,2.256
			c-2.323,1.117-5.47,1.533-7.974,2.119c-0.923,0.218-1.872,0.454-2.739,0.845c-0.384,0.178-0.763,0.391-1.067,0.689
			c-0.433,0.418-0.633,1.008-0.758,1.584c-0.149,0.695-0.281,1.453-0.639,2.073c-0.32,0.57-0.81,1.024-1.325,1.417
			c-0.923,0.696-1.979,1.24-3.019,1.739c-2.875,1.373-6.547,2.612-9.334,4.156c-1.555,0.827-3.125,2.035-4.863,2.439
			c-0.848,0.196-1.737,0.144-2.576-0.072c-1.273-0.325-2.472-0.911-3.616-1.547c-3.372-1.886-6.839-4.759-9.898-7.14
			c-1.481-1.151-3.065-2.24-4.703-3.154c-2.208-1.24-4.636-2.345-6.966-3.337c-2.1-0.874-4.354-1.763-6.541-2.387
			c-0.611-0.169-1.254-0.332-1.884-0.415c-0.285-0.034-0.583-0.061-0.87-0.02l-0.025,0.004l-0.025,0.004l-0.024,0.005l-0.023,0.005
			l-0.023,0.006l-0.022,0.006l-0.022,0.006l-0.021,0.007l-0.02,0.007l-0.02,0.008l-0.019,0.008l-0.018,0.008l-0.017,0.009
			l-0.017,0.009l-0.016,0.01l-0.015,0.01l-0.015,0.01l-0.014,0.011l-0.013,0.011l-0.013,0.012l-0.012,0.012l-0.011,0.013
			l-0.01,0.013l-0.01,0.013l-0.009,0.014l-0.008,0.014l-0.007,0.015l-0.007,0.015l-0.006,0.016l-0.005,0.016l-0.004,0.016
			l-0.004,0.017l-0.002,0.009l-0.001,0.009l-0.001,0.009l-0.001,0.01l-0.001,0.01l-0.001,0.01l0,0.01l0,0.01l0,0.01l0,0.01l0,0.01
			l0.001,0.011c0.01,0.127,0.055,0.25,0.105,0.366c0.155,0.343,0.379,0.663,0.595,0.97c0.375,0.533,0.989,1.287,1.275,1.864
			c0.048,0.102,0.091,0.208,0.107,0.32l0.001,0.01l0.001,0.01l0.001,0.01l0.001,0.009l0,0.009l0,0.009l0,0.009l0,0.009l-0.001,0.018
			l-0.002,0.017l-0.003,0.017l-0.004,0.016l-0.005,0.016l-0.006,0.015l-0.006,0.015l-0.007,0.014l-0.008,0.014l-0.009,0.013
			l-0.01,0.013l-0.011,0.012l-0.012,0.011l-0.012,0.011l-0.013,0.01l-0.014,0.01l-0.015,0.009l-0.016,0.009l-0.017,0.008
			l-0.017,0.008l-0.018,0.007l-0.019,0.007l-0.02,0.006l-0.021,0.006l-0.021,0.005l-0.022,0.005l-0.023,0.004l-0.024,0.004
			l-0.025,0.003l-0.025,0.003l-0.026,0.002l-0.027,0.002l-0.028,0.001c-0.22,0.009-0.446-0.022-0.663-0.059
			c-0.467-0.083-0.955-0.221-1.409-0.36c-6.5-2.093-15.849-7.076-22.35-9.21c-2.871-0.928-5.903-1.39-8.921-1.303
			c-2.694,0.063-5.4,0.489-8.032,1.051c-3.826,0.824-7.812,1.994-11.545,3.185c-5.207,1.713-10.678,3.632-15.657,5.921
			c-0.697,0.344-1.45,0.681-2.076,1.148l-0.027,0.022l-0.025,0.021l-0.023,0.021l-0.022,0.02l-0.02,0.02l-0.018,0.019l-0.016,0.018
			l-0.015,0.018l-0.013,0.017l-0.011,0.017l-0.009,0.016l-0.008,0.015l-0.006,0.015l-0.004,0.014l-0.002,0.014l0,0.013l0.002,0.012
			l0.003,0.012l0.005,0.011l0.007,0.011l0.009,0.01l0.011,0.009l0.013,0.009l0.005,0.003l0.006,0.003l0.006,0.003l0.006,0.003
			l0.006,0.003l0.007,0.003l0.007,0.003l0.007,0.002l0.008,0.002l0.008,0.002l0.008,0.002c0.109,0.027,0.225,0.029,0.337,0.031
			c0.898-0.016,2.164-0.208,3.061-0.226c0.39-0.003,0.884-0.021,1.242,0.144l0.01,0.005l0.01,0.005l0.01,0.006l0.01,0.006
			l0.017,0.01l0.016,0.011l0.015,0.011l0.014,0.012l0.013,0.012l0.013,0.012l0.012,0.013l0.011,0.013l0.01,0.013l0.01,0.014
			l0.009,0.014l0.008,0.014l0.007,0.015l0.007,0.015l0.006,0.015l0.005,0.016l0.005,0.016l0.004,0.017l0.003,0.017l0.002,0.017
			l0.002,0.018l0.001,0.018l0,0.018l0,0.019l-0.001,0.019l-0.002,0.019l-0.002,0.02l-0.003,0.02l-0.004,0.02l-0.004,0.021
			l-0.005,0.021l-0.006,0.021l-0.006,0.022l-0.007,0.022l-0.008,0.022l-0.008,0.023l-0.009,0.023l-0.01,0.023
			c-0.091,0.211-0.226,0.406-0.364,0.589c-0.43,0.556-0.971,1.097-1.473,1.592c-3.909,3.729-8.366,7.529-10.989,12.317
			c-3.223,5.638-4.232,12.226-4.459,18.635c-0.123,3.629-0.096,7.431,0.161,11.053c0.161,2.027,0.363,4.11,0.873,6.083
			c0.211,0.749,0.474,1.634,1.008,2.207l0.02,0.02l0.02,0.02l0.02,0.019l0.021,0.018l0.021,0.018l0.021,0.017l0.021,0.016
			l0.021,0.016l0.021,0.015l0.021,0.015l0.021,0.014l0.021,0.013l0.022,0.013l0.015,0.008l0.015,0.008l0.015,0.008l0.015,0.007
			l0.015,0.007l0.015,0.007l0.015,0.006l0.015,0.006l0.015,0.006l0.015,0.006l0.016,0.005l0.016,0.005l0.016,0.005l0.016,0.004
			l0.016,0.004l0.016,0.004l0.016,0.003l0.016,0.003l0.016,0.003l0.016,0.003l0.016,0.002l0.016,0.002l0.016,0.002l0.016,0.001
			c0.531,0.031,1.039-0.332,1.452-0.631c0.682-0.513,1.839-1.587,2.494-2.165c0.971-0.856,2.012-1.702,3.079-2.434
			c3.258-2.201,6.816-4.034,10.517-5.365c0.633-0.215,1.291-0.42,1.95-0.54c0.259-0.043,0.527-0.081,0.79-0.058l0.023,0.002
			l0.022,0.003l0.022,0.003l0.021,0.004l0.02,0.004l0.02,0.004l0.019,0.005l0.019,0.005l0.018,0.005l0.017,0.006l0.017,0.006
			l0.016,0.006l0.016,0.007l0.015,0.007l0.014,0.008l0.014,0.008l0.006,0.004l0.006,0.004l0.006,0.004l0.006,0.004l0.006,0.004
			l0.006,0.004l0.005,0.005l0.005,0.005l0.005,0.005l0.005,0.005l0.005,0.005l0.005,0.005l0.005,0.005l0.004,0.005l0.004,0.005
			l0.004,0.005l0.004,0.005l0.004,0.006l0.004,0.006l0.004,0.006l0.003,0.006l0.003,0.006l0.003,0.006l0.003,0.006l0.003,0.006
			l0.003,0.006l0.003,0.006l0.002,0.006l0.002,0.006l0.002,0.007l0.002,0.007l0.002,0.007l0.002,0.007l0.002,0.007l0.002,0.007
			l0.001,0.007l0.001,0.007l0.001,0.007l0.001,0.007l0.001,0.007l0.001,0.008c0.015,0.265-0.138,0.548-0.253,0.781
			c-0.358,0.67-0.941,1.565-1.291,2.236c-0.448,0.842-0.828,1.741-1.111,2.651c-0.256,0.853-0.468,1.745-0.415,2.641
			c0.03,0.394,0.122,0.814,0.401,1.11l0.015,0.015l0.015,0.015l0.015,0.014l0.015,0.014l0.016,0.014l0.016,0.013l0.016,0.013
			l0.016,0.013l0.017,0.012l0.017,0.012l0.017,0.012l0.017,0.012l0.018,0.011l0.018,0.011l0.018,0.011l0.019,0.01l0.019,0.01
			l0.019,0.01c0.586,0.278,1.326,0.16,1.944,0.051c0.751-0.145,1.58-0.398,2.315-0.626c2.194-0.704,5.04-1.668,7.269-2.146
			c2.055-0.46,4.189-0.799,6.285-0.997c1.526-0.135,3.102-0.227,4.632-0.107c0.601,0.061,1.279,0.125,1.814,0.417l0.019,0.012
			l0.019,0.012l0.018,0.012l0.017,0.012l0.017,0.012l0.016,0.012l0.016,0.012l0.015,0.013l0.015,0.013l0.014,0.013l0.013,0.013
			l0.013,0.013l0.012,0.013l0.012,0.013l0.011,0.014l0.011,0.014l0.01,0.014l0.006,0.008l0.005,0.008l0.005,0.008l0.005,0.008
			l0.005,0.008l0.005,0.008l0.004,0.009l0.004,0.009l0.004,0.009l0.004,0.009l0.004,0.009l0.003,0.009l0.003,0.009l0.003,0.009
			l0.003,0.009l0.003,0.009l0.002,0.009l0.002,0.009l0.002,0.009l0.002,0.009l0.002,0.009l0.001,0.009l0.001,0.009l0.001,0.009
			l0.001,0.009l0.001,0.009l0.001,0.01l0,0.01l0,0.01l0,0.01l0,0.01l0,0.01l-0.001,0.01c-0.008,0.116-0.05,0.228-0.101,0.331
			c-0.219,0.413-0.561,0.755-0.879,1.093c-0.866,0.875-1.92,1.904-2.683,2.857c-1.12,1.384-2.15,2.872-2.977,4.451
			c-0.184,0.364-0.364,0.74-0.489,1.129c-0.047,0.154-0.091,0.314-0.09,0.475l0,0.011l0.001,0.011l0.001,0.011l0.001,0.01
			l0.001,0.01l0.001,0.01l0.001,0.007l0.001,0.007l0.001,0.007l0.002,0.007l0.002,0.007l0.002,0.007l0.002,0.006l0.002,0.006
			l0.002,0.006l0.002,0.006l0.002,0.006l0.002,0.006l0.003,0.006l0.003,0.006l0.003,0.005l0.003,0.005l0.003,0.005l0.003,0.005
			l0.003,0.005l0.003,0.005l0.004,0.005l0.004,0.004l0.004,0.004l0.004,0.004l0.004,0.004l0.004,0.004l0.004,0.004l0.004,0.004
			l0.004,0.004l0.005,0.004l0.005,0.003l0.005,0.003l0.005,0.003l0.005,0.003l0.005,0.003l0.005,0.003l0.005,0.003l0.006,0.003
			l0.006,0.002l0.006,0.002l0.006,0.002l0.006,0.002l0.006,0.002l0.006,0.002l0.006,0.002l0.007,0.002l0.007,0.002l0.007,0.001
			l0.007,0.001l0.007,0.001c0.259,0.029,0.554-0.079,0.803-0.146c1.217-0.389,2.522-0.789,3.774-1.015
			c3.135-0.571,6.437-0.757,9.62-0.891c3.726-0.11,7.641-0.167,11.353,0.163c0.524,0.062,1.076,0.108,1.579,0.274l0.023,0.009
			l0.022,0.009l0.021,0.009l0.02,0.009l0.018,0.009l0.017,0.009l0.016,0.009l0.015,0.009l0.006,0.004l0.006,0.004l0.005,0.004
			l0.005,0.004l0.005,0.004l0.005,0.004l0.004,0.004l0.004,0.004l0.004,0.004l0.004,0.004l0.004,0.004l0.003,0.004l0.003,0.004
			l0.003,0.004l0.003,0.004l0.002,0.004l0.002,0.004l0.002,0.004l0.002,0.004l0.002,0.004l0.001,0.004l0.001,0.004l0.001,0.004
			l0.001,0.004l0.001,0.004l0,0.004l0,0.004v0.004l0,0.004l0,0.004l-0.001,0.004l-0.001,0.004l-0.001,0.004l-0.001,0.004
			l-0.001,0.004l-0.002,0.004l-0.002,0.004l-0.002,0.005l-0.002,0.005l-0.002,0.005l-0.003,0.005l-0.003,0.005l-0.003,0.005
			l-0.003,0.005l-0.003,0.005l-0.003,0.005l-0.004,0.005l-0.004,0.005l-0.004,0.005l-0.004,0.005
			c-0.08,0.086-0.186,0.146-0.286,0.206c-0.887,0.471-1.874,0.919-2.703,1.487c-1.427,0.959-2.642,2.223-3.653,3.609
			c-0.638,0.9-1.224,1.874-1.516,2.946c-0.128,0.503-0.196,1.057,0.005,1.549l0.01,0.023l0.01,0.022l0.01,0.022l0.011,0.022
			l0.011,0.022l0.012,0.021l0.012,0.021l0.012,0.021l0.013,0.021l0.013,0.02l0.014,0.02l0.014,0.02l0.014,0.02l0.015,0.019
			l0.015,0.019l0.015,0.019l0.016,0.019l0.016,0.018l0.017,0.018l0.021,0.022l0.022,0.022l0.023,0.021l0.023,0.021l0.024,0.021
			l0.024,0.02l0.025,0.02l0.026,0.019l0.026,0.019l0.027,0.019l0.027,0.018l0.028,0.018l0.028,0.017l0.029,0.017l0.03,0.017
			c0.597,0.316,1.292,0.372,1.956,0.394c3.753-0.008,7.99-1.313,11.682-1.958c0.934-0.165,1.898-0.268,2.847-0.245
			c1.192,0.055,2.562,0.093,3.74-0.045c1.675-0.144,3.732-0.465,5.4-0.335c0.353,0.039,0.724,0.09,1.03,0.283l0.013,0.009
			l0.013,0.009l0.013,0.009l0.012,0.009l0.012,0.01l0.012,0.01l0.011,0.01l0.011,0.01l0.011,0.01l0.011,0.01l0.01,0.011l0.01,0.011
			l0.01,0.011l0.01,0.011l0.009,0.012l0.009,0.012l0.009,0.012l0.008,0.012l0.008,0.012l0.008,0.012l0.007,0.012l0.007,0.013
			l0.007,0.013l0.006,0.013l0.006,0.013l0.006,0.013l0.005,0.013l0.005,0.014l0.005,0.014l0.004,0.014l0.004,0.014l0.004,0.014
			l0.003,0.014l0.003,0.015l0.003,0.015l0.002,0.015l0.002,0.015l0.002,0.015l0.002,0.015l0.001,0.015l0.001,0.016l0.001,0.016
			l0,0.016l0,0.016l0,0.016c-0.014,0.337-0.17,0.65-0.328,0.942c-0.194,0.346-0.43,0.68-0.668,0.998
			c-1.223,1.599-3.218,3.731-4.424,5.337c-0.923,1.238-1.914,2.558-2.481,4.002c-0.096,0.279-0.188,0.577-0.149,0.875l0.002,0.013
			l0.002,0.013l0.003,0.013l0.003,0.013l0.003,0.013l0.003,0.012l0.003,0.012l0.004,0.012l0.004,0.012l0.004,0.012l0.004,0.011
			l0.005,0.011l0.005,0.011l0.005,0.011l0.005,0.011l0.005,0.01l0.006,0.01l0.006,0.01l0.006,0.01l0.006,0.01l0.007,0.009
			l0.007,0.009l0.007,0.009l0.007,0.009l0.008,0.009l0.008,0.008l0.008,0.008l0.008,0.008l0.008,0.008l0.009,0.008l0.009,0.007
			l0.009,0.007l0.014,0.01l0.014,0.01l0.015,0.009l0.015,0.009l0.016,0.008l0.016,0.008l0.017,0.007l0.017,0.007l0.018,0.007
			l0.018,0.006l0.019,0.006l0.019,0.005l0.019,0.005l0.02,0.005l0.02,0.004l0.021,0.004l0.021,0.003l0.022,0.003l0.022,0.003
			l0.023,0.002l0.023,0.002c0.393,0.02,0.783-0.083,1.158-0.188c2.417-0.737,7.519-3.383,9.879-4.444
			c2.203-1.008,4.496-1.958,6.811-2.669c1.307-0.393,2.659-0.751,4.022-0.866c0.454-0.033,0.919-0.041,1.368,0.042
			c0.255,0.049,0.512,0.129,0.726,0.282l0.016,0.012l0.016,0.012l0.015,0.012l0.015,0.012l0.015,0.013l0.015,0.013l0.014,0.013
			l0.014,0.013l0.014,0.014l0.013,0.014l0.013,0.014c0.302,0.332,0.3,0.819,0.237,1.238c-0.253,1.444-1.333,3.612-1.871,5.002
			c-0.682,1.71-1.324,3.516-1.793,5.295c-0.239,0.933-0.456,1.898-0.521,2.861c-0.024,0.519-0.036,1.077,0.2,1.553l0.01,0.018
			l0.01,0.018l0.01,0.017l0.01,0.017l0.011,0.017l0.011,0.016l0.011,0.016l0.011,0.016l0.012,0.015l0.012,0.015l0.012,0.014
			l0.012,0.014l0.012,0.014l0.013,0.013l0.013,0.013l0.013,0.013l0.014,0.013l0.014,0.013l0.015,0.012l0.015,0.012l0.015,0.011
			l0.016,0.011l0.016,0.011l0.016,0.01l0.016,0.01l0.017,0.009l0.017,0.009l0.017,0.009l0.017,0.008l0.018,0.008l0.018,0.007
			l0.018,0.007l0.018,0.007l0.019,0.006l0.019,0.006l0.019,0.006l0.019,0.005l0.02,0.005l0.02,0.004l0.02,0.004l0.02,0.004
			l0.021,0.003l0.021,0.003l0.021,0.003c0.333,0.035,0.667-0.049,0.982-0.15c1.037-0.359,2-0.955,2.937-1.519
			c4.059-2.587,8.298-5.427,12.778-7.216c1.169-0.461,2.379-0.903,3.631-1.066c0.448-0.049,0.92-0.071,1.35,0.088l0.022,0.009
			l0.022,0.009l0.021,0.009l0.021,0.01l0.021,0.01l0.02,0.01l0.02,0.011l0.02,0.011l0.019,0.011l0.019,0.012l0.018,0.012
			l0.018,0.012l0.018,0.013c0.473,0.358,0.48,1.033,0.471,1.575c-0.064,1.404-0.353,2.88-0.006,4.268
			c0.107,0.425,0.273,0.854,0.58,1.176c0.228,0.242,0.547,0.393,0.88,0.414c0.563,0.034,1.102-0.195,1.602-0.429
			c1.024-0.504,1.985-1.189,2.91-1.855c2.001-1.449,4.428-3.499,6.578-4.696c0.511-0.269,1.049-0.53,1.628-0.6l0.035-0.003
			l0.034-0.003l0.034-0.002l0.034-0.001l0.033-0.001h0.033l0.033,0.001l0.032,0.001l0.032,0.002l0.031,0.003l0.031,0.004
			c0.481,0.055,0.813,0.416,1.007,0.836c0.423,0.952,0.445,2.086,0.478,3.114l0.003,2.436c0.016,0.568,0.022,1.163,0.22,1.703
			c0.134,0.362,0.385,0.641,0.756,0.767c0.305,0.106,0.636,0.117,0.956,0.102c0.62-0.034,1.235-0.178,1.83-0.352
			c1.341-0.404,2.63-0.997,3.837-1.705c1.078-0.642,2.12-1.388,2.968-2.319c0.13,2.513,0.351,5.159,0.727,7.646
			c0.195,1.241,0.423,2.517,0.801,3.716c0.181,0.534,0.384,1.135,0.775,1.554l0.015,0.015l0.015,0.015l0.015,0.014l0.015,0.014
			l0.016,0.013l0.016,0.013l0.016,0.012l0.016,0.012l0.016,0.011l0.016,0.01l0.016,0.01l0.016,0.009l0.016,0.009l0.016,0.008
			l0.016,0.008l0.016,0.007l0.016,0.007c0.33,0.128,0.675-0.08,0.973-0.206c0.159-0.066,0.339-0.143,0.513-0.091l0.013,0.004
			l0.012,0.005l0.012,0.005l0.012,0.006l0.012,0.006l0.012,0.007l0.012,0.007l0.012,0.008l0.012,0.008l0.012,0.009l0.011,0.009
			l0.011,0.01l0.011,0.01l0.011,0.01l0.011,0.011l0.011,0.011l0.011,0.012l0.011,0.012l0.011,0.013l0.011,0.013l0.01,0.014
			l0.01,0.014l0.01,0.015l0.01,0.015c0.136,0.212,0.207,0.459,0.267,0.702c0.119,0.509,0.168,1.042,0.201,1.563
			c0.129,2.785-0.155,5.597-0.592,8.345c-0.37,2.377-1.346,5.986-1.929,8.351c-0.437,1.835-0.8,3.728-0.879,5.615
			c-0.079,1.807,0.102,3.67,0.318,5.465c0.198,1.826,0.64,4.437,0.617,6.247c-0.003,0.816-0.087,1.646-0.361,2.419
			c-0.26,0.753-0.698,1.435-1.209,2.042c-0.386,0.462-0.841,0.917-1.275,1.337c-2.422,2.301-6.808,6.012-9.204,8.314
			c-1.142,1.099-2.3,2.255-3.211,3.557c-0.652,0.926-1.171,1.953-1.587,3.005c-0.868,2.209-1.444,4.577-1.952,6.893
			c-0.723,3.336-1.323,7.209-1.828,10.596c-1.246,9.057-3.554,28.183-4.718,37.139c-0.252,2.328-0.534,4.925-0.566,7.255
			c-0.015,1.301,0.044,2.627,0.353,3.895c0.259,1.073,0.707,2.099,1.243,3.062c0.622,1.109,1.378,2.155,2.268,3.065
			c1.366,1.361,2.812,2.761,4.345,3.931c1.004,0.763,2.094,1.443,3.281,1.88c1.794,0.676,3.747,0.776,5.645,0.806l20.547,0.011
			c0.366-0.011,0.86,0.007,1.219-0.029c0.453-0.034,0.911-0.113,1.325-0.308c0.682-0.31,1.152-0.937,1.464-1.6
			c0.642-1.392,0.919-2.938,1.02-4.46c0.089-1.596-0.065-3.302-0.983-4.659c-1.185-1.763-3.277-2.562-5.202-3.244
			c-1.667-0.56-4.414-1.39-5.981-2.101c-1.337-0.592-2.633-1.313-3.79-2.211c-0.671-0.526-1.311-1.113-1.827-1.794
			c-0.395-0.52-0.711-1.101-0.951-1.707c-0.737-1.934-0.926-4.037-1.036-6.089c-0.194-5.017,0.438-10.086,1.342-15.013
			c1.115-5.697,2.578-11.547,5.945-16.37c2.451-3.516,5.568-6.594,8.701-9.5c5.952-5.421,12.962-10.806,19.341-15.741
			c2.048-1.447,4.231-3.1,6.444-4.269c2.861-1.573,9.469-4.052,12.547-5.349c3.998-1.687,8.004-3.583,11.611-6.007
			c2.483-1.609,5.951-4.44,8.453-6.035c0.562-0.33,1.227-0.733,1.885-0.788l0.023-0.001l0.023-0.001l0.023,0l0.022,0l0.022,0.001
			l0.022,0.001l0.021,0.002l0.021,0.002l0.021,0.002l0.021,0.003l0.02,0.003c0.592,0.112,0.841,0.776,1.349,1.038
			c0.293,0.158,0.64,0.167,0.964,0.127c0.953-0.141,1.823-0.617,2.639-1.107c2.198-1.366,4.081-3.221,5.834-5.109
			c1.89-2.015,4.228-4.888,6.363-6.601c0.425-0.327,0.876-0.637,1.378-0.834c0.325-0.128,0.683-0.193,1.03-0.128
			c0.486,0.082,0.941,0.382,1.365,0.62c0.271,0.15,0.561,0.295,0.875,0.319c0.217,0.017,0.434-0.033,0.633-0.118
			c0.4-0.172,0.74-0.458,1.051-0.758c1.198-1.206,2.102-2.737,2.994-4.175c1.319-2.171,2.552-4.452,3.496-6.812
			c1.009-2.474,1.728-5.111,2.313-7.717c1.266,0.894,3.682,2.176,5.055,2.951l2.726,1.613c0.88,0.493,1.792,1.008,2.792,1.202
			c0.452,0.084,0.941,0.068,1.351-0.158c0.283-0.15,0.527-0.366,0.753-0.591c0.469-0.47,0.941-1.065,1.462-1.477
			c0.624-0.517,1.352-0.792,2.152-0.883c1.053-0.125,2.126-0.013,3.168,0.157c4.395,0.741,8.811,2.803,13.037,4.166
			c0.936,0.275,1.913,0.483,2.893,0.454c1.442-0.033,2.869-0.703,4.308-0.758c0.445-0.019,0.898,0.023,1.328,0.142
			c0.66,0.183,1.267,0.525,1.828,0.91c2.179,1.522,4.234,4.089,6.067,6.01c1.025,1.07,2.089,2.169,3.379,2.918
			c0.54,0.309,1.132,0.546,1.753,0.623c0.538,0.07,1.089,0.008,1.603-0.158c1.734-0.586,3.191-1.857,4.771-2.745
			c0.639-0.362,1.316-0.694,2.043-0.833c0.945-0.183,1.913,0.043,2.797,0.38c1.66,0.653,3.273,1.574,5.061,1.868
			c3.045,0.544,6.338,0.072,8.996-1.548l1.561-0.947c0.942-0.56,1.971-1.057,3.082-1.12c1.12-0.069,2.217,0.286,3.245,0.695
			c2.266,0.919,4.99,2.627,7.213,3.652c0.823,0.378,1.68,0.727,2.567,0.92c1.36,0.31,2.776,0.159,4.123-0.144
			c1.471-0.34,3.268-0.781,4.746-0.939c2.161-0.252,4.395-0.265,6.567-0.146c4,0.244,8.025,0.935,11.798,2.306
			c1.824,0.659,3.58,1.556,5.234,2.567c1.451,0.859,3.609,2.408,5.12,3.139c0.573,0.263,1.206,0.516,1.848,0.419
			c0.782-0.136,1.351-0.79,2.003-1.188c0.455-0.293,0.954-0.441,1.497-0.414c0.638,0.026,1.262,0.214,1.856,0.438
			c1.309,0.506,2.564,1.24,3.768,1.959C471.528,494.185,475.771,496.81,477.505,497.954z"/>
	</g>
</g>
</svg>
