<?xml version="1.0" encoding="utf-8"?>
<!-- Generator: Adobe Illustrator 25.4.1, SVG Export Plug-In . SVG Version: 6.00 Build 0)  -->
<!DOCTYPE svg PUBLIC "-//W3C//DTD SVG 1.1//EN" "http://www.w3.org/Graphics/SVG/1.1/DTD/svg11.dtd" [
	<!ENTITY ns_extend "http://ns.adobe.com/Extensibility/1.0/">
	<!ENTITY ns_ai "http://ns.adobe.com/AdobeIllustrator/10.0/">
	<!ENTITY ns_graphs "http://ns.adobe.com/Graphs/1.0/">
	<!ENTITY ns_vars "http://ns.adobe.com/Variables/1.0/">
	<!ENTITY ns_imrep "http://ns.adobe.com/ImageReplacement/1.0/">
	<!ENTITY ns_sfw "http://ns.adobe.com/SaveForWeb/1.0/">
	<!ENTITY ns_custom "http://ns.adobe.com/GenericCustomNamespace/1.0/">
	<!ENTITY ns_adobe_xpath "http://ns.adobe.com/XPath/1.0/">
]>
<svg version="1.1" xmlns:x="&ns_extend;" xmlns:i="&ns_ai;" xmlns:graph="&ns_graphs;"
	 xmlns="http://www.w3.org/2000/svg" xmlns:xlink="http://www.w3.org/1999/xlink" x="0px" y="0px" width="750px" height="750px"
	 viewBox="0 0 750 750" enable-background="new 0 0 750 750" xml:space="preserve">
<metadata>
	<sfw  xmlns="&ns_sfw;">
		<slices></slices>
		<sliceSourceBounds  bottomLeftOrigin="true" height="9932.77" width="8619.459" x="-5036.459" y="-1364"></sliceSourceBounds>
	</sfw>
</metadata>
<g id="FILL-BACKGROUND">
	<rect y="0" fill="#FFFFFF" width="750" height="750"/>
</g>
<g id="N-DIMENSIONS">
</g>
<g id="N-TEXT">
</g>
<g id="_x32_D_x24_AG-DIAGRAM">
	<g id="POLYLINE_00000119110535644850595570000002501589134755680393_">
		<g>
			<g>
				
					<line fill="none" stroke="#FB8604" stroke-width="3.25" stroke-linecap="round" stroke-linejoin="round" x1="102.278" y1="610.408" x2="104.278" y2="610.408"/>
				
					<line fill="none" stroke="#FB8604" stroke-width="3.25" stroke-linecap="round" stroke-linejoin="round" stroke-dasharray="4.032,7.0559" x1="111.334" y1="610.408" x2="518.058" y2="610.408"/>
				
					<line fill="none" stroke="#FB8604" stroke-width="3.25" stroke-linecap="round" stroke-linejoin="round" x1="521.586" y1="610.408" x2="523.586" y2="610.408"/>
			</g>
		</g>
	</g>
</g>
<g id="_x32_D_x24_AG-DETAILS-DIAGRAM">
</g>
<g id="_x32_D_x24_AG-DETAILS">
	<g id="POLYLINE_00000070108427384661715670000012357204754506832524_">
		<path fill="none" stroke="#FB8604" stroke-width="2" stroke-linecap="round" stroke-linejoin="round" stroke-miterlimit="10" d="
			M535.085,253.88c-0.824-2.619-1.715-5.461-2.801-7.978c-1.059-2.462-2.575-5.5-3.255-8.072c-0.52-1.929-0.7-3.957-0.773-5.949"/>
	</g>
	<g id="POLYLINE_00000000207565414469449600000002959981707393033359_">
		<path fill="none" stroke="#FB8604" stroke-width="2" stroke-linecap="round" stroke-linejoin="round" stroke-miterlimit="10" d="
			M376.752,442.83l1.556-1.142c0.903-0.685,1.758-1.469,2.363-2.436c0.594-0.928,0.913-2.006,1.185-3.064
			c0.41-1.554,0.724-3.368,1.397-4.821c0.323-0.706,0.752-1.382,1.343-1.894c0.947-0.812,2.18-1.18,3.376-1.449
			c1.778-0.412,3.895-0.519,5.56-1.286c0.714-0.341,1.327-0.862,1.883-1.419c0.8-0.812,1.618-1.717,2.626-2.268
			c0.547-0.307,1.146-0.527,1.744-0.709c1.6-0.483,3.63-0.794,5.257-1.189c1.098-0.274,2.223-0.59,3.179-1.214
			c0.411-0.272,0.776-0.614,1.09-0.993c0.714-0.854,1.263-2.034,1.881-2.956c0.462-0.703,1.019-1.353,1.679-1.876
			c1.011-0.806,2.182-1.408,3.348-1.955c2.65-1.235,6.053-2.349,8.562-3.853c0.772-0.469,1.501-1.021,2.168-1.629
			c0.984-0.883,1.978-2.083,2.853-3.072c1.528-1.751,3.602-3.205,5.227-4.86c1.913-1.93,3.48-4.289,4.133-6.951
			c0.356-1.404,0.41-2.873,0.353-4.315c-0.113-3.032-0.746-6.565-0.325-9.586c0.118-0.872,0.349-1.733,0.678-2.549
			c0.568-1.471,1.672-3.199,2.457-4.573c0.655-1.161,1.279-2.389,1.469-3.724c0.315-2.32-0.685-4.634-1.025-6.896
			c-0.098-0.676-0.131-1.374,0.025-2.043c0.267-1.192,1.022-2.277,1.545-3.366c0.311-0.635,0.566-1.307,0.697-2.003
			c0.174-0.935,0.159-1.903,0.104-2.849c-0.118-2.008-0.53-4.256-0.425-6.268c0.044-0.762,0.183-1.533,0.526-2.221
			c0.336-0.687,0.865-1.277,1.51-1.689c1.584-1.027,3.571-0.918,5.365-0.669c1.701,0.239,3.812,0.671,5.527,0.586
			c0.908-0.042,1.801-0.273,2.66-0.559c1.201-0.408,2.51-0.93,3.768-1.075c0.804-0.1,1.624-0.043,2.415,0.126
			c1.366,0.288,2.691,0.827,3.967,1.385c2.696,1.192,5.579,2.764,8.39,3.651c1.44,0.453,3.295,0.783,4.793,1.056
			c1.084,0.212,2.204,0.447,3.219,0.891c0.992,0.422,1.873,1.092,2.537,1.942c1.274,1.624,1.975,3.619,2.513,5.589
			c1.121,4.174,1.389,8.9,1.7,13.209c0.186,2.139,0.351,4.371,1.073,6.408c0.292,0.793,0.698,1.567,1.316,2.155
			c0.781,0.745,1.817,1.143,2.832,1.46c0.835,0.258,2.002,0.557,2.787,0.919c0.438,0.199,0.855,0.451,1.243,0.735
			c1.343,0.993,2.325,2.305,3.745,3.288l1.573,1.117"/>
	</g>
	<g id="POLYLINE_00000178896304279219549810000018246671885423863226_">
		<path fill="none" stroke="#FB8604" stroke-width="2" stroke-linecap="round" stroke-linejoin="round" stroke-miterlimit="10" d="
			M199.916,328.423c0.861,0.801,1.688,1.861,2.695,2.484c0.594,0.377,1.277,0.611,1.978,0.673c0.837,0.074,1.685-0.05,2.505-0.215
			c3.332-0.716,7.41-2.473,10.712-3.319c1.588-0.407,3.242-0.744,4.888-0.59c1.452,0.128,2.837,0.661,4.135,1.303
			c1.231,0.611,2.663,1.405,3.958,1.818c0.937,0.308,1.928,0.456,2.909,0.527c2.502,0.17,5.358-0.072,7.86,0.109
			c1.769,0.114,3.543,0.446,5.185,1.126c2.014,0.822,3.863,2.046,5.468,3.51c1.495,1.373,2.812,2.974,3.745,4.783
			c1.09,2.064,1.367,4.366,1.732,6.634c0.125,0.704,0.282,1.418,0.566,2.077c0.349,0.836,0.975,1.729,1.463,2.491
			c0.721,1.084,1.25,2.293,1.674,3.521l0.885,2.589c0.259,0.716,0.527,1.457,0.926,2.108c0.277,0.455,0.641,0.855,1.027,1.22
			c1.678,1.465,5.064,5.297,6.632,6.964l0.847,0.883"/>
	</g>
</g>
<g id="_x32_D_x24_AG-ANIMALS">
	<g id="POLYLINE_00000046339038470808248440000008591541904504738437_">
		
			<path fill="none" stroke="#FB8604" stroke-width="2.75" stroke-linecap="round" stroke-linejoin="round" stroke-miterlimit="10" d="
			M555.229,200.232c2.91,0.471,5.894,1.038,8.711,1.907c2.471,0.751,4.936,1.786,7.287,2.851c4.126,1.963,10.885,5.086,15.059,6.875
			c1.38,0.63,2.843,1.332,4.156,2.088c0.941,0.542,1.881,1.151,2.729,1.83c1.049,0.819,2.337,2.113,3.315,3.028
			c1.174,1.104,2.46,2.123,3.922,2.817c3.219,1.552,7.095,2.403,9.469,5.271c1.861,2.239,2.918,5.289,4.05,7.946
			c0.765,1.809,1.6,3.649,2.863,5.17c0.902,1.108,1.988,2.069,3.13,2.924c2.064,1.502,4.803,3.239,6.827,4.784
			c4.872,3.684,9.887,7.47,14.041,11.968c1.439,1.586,2.885,3.246,3.876,5.157c0.889,1.758,1.283,3.724,1.623,5.651
			c0.443,2.753,0.66,5.587,0.297,8.361"/>
	</g>
	<g id="POLYLINE_00000078757919900223970300000015598893153244008092_">
		
			<path fill="none" stroke="#FB8604" stroke-width="2.75" stroke-linecap="round" stroke-linejoin="round" stroke-miterlimit="10" d="
			M535.085,253.88c1.228,4.52,3.163,8.857,5.464,12.93c2.663,4.706,5.932,9.193,10.188,12.581c5.821,4.652,13.451,6.51,20.4,8.808
			c2.48,0.828,4.873,1.967,7.113,3.312c3.024,1.827,6.731,4.096,9.644,6.079c2.493,1.723,5.039,3.533,7.149,5.719
			c1.586,1.613,2.821,3.711,4.325,5.393c1,1.098,2.335,2.072,3.33,3.174c0.735,0.801,1.345,1.739,1.665,2.784
			c0.385,1.256,0.391,2.599,0.371,3.902l-0.107,2.929c-0.015,0.861-0.028,1.747,0.156,2.593c0.087,0.38,0.222,0.763,0.478,1.063
			c0.557,0.646,1.513,0.622,2.279,0.449c1.548-0.375,2.929-1.271,4.126-2.298c1.225-1.061,2.266-2.464,3.26-3.74
			c0.2-0.238,0.41-0.528,0.67-0.7l0.008-0.004l0.008-0.004l0.008-0.004l0.007-0.004l0.007-0.003l0.007-0.003l0.007-0.003
			l0.007-0.003l0.007-0.002l0.007-0.002l0.007-0.002l0.007-0.002l0.007-0.001l0.006-0.001l0.006-0.001l0.006-0.001l0.006,0l0.006,0
			l0.006,0l0.006,0l0.006,0.001l0.006,0.001l0.006,0.001l0.005,0.001l0.005,0.002l0.005,0.002l0.005,0.002l0.005,0.003l0.005,0.003
			l0.005,0.003l0.005,0.003l0.005,0.004l0.005,0.004l0.004,0.004l0.004,0.005l0.004,0.005l0.004,0.005l0.004,0.005l0.004,0.006
			l0.004,0.006l0.004,0.006l0.004,0.007l0.004,0.007l0.004,0.008l0.004,0.008l0.003,0.008l0.003,0.009l0.003,0.009l0.003,0.009
			l0.003,0.009l0.003,0.01c0.07,0.297,0.042,0.617,0.034,0.919c-0.062,1.216-0.232,2.679-0.12,3.887
			c0.031,0.319,0.08,0.643,0.184,0.948c0.088,0.258,0.226,0.508,0.443,0.679c0.212,0.171,0.486,0.251,0.756,0.255
			c0.385,0.006,0.763-0.111,1.111-0.267c0.899-0.416,1.658-1.09,2.312-1.825c1.166-1.326,2.142-3.081,3.07-4.585
			c0.246-0.374,0.547-0.898,0.898-1.17l0.01-0.007l0.01-0.007l0.01-0.006l0.01-0.006l0.01-0.006l0.01-0.005l0.01-0.005l0.01-0.005
			l0.01-0.004l0.009-0.004l0.009-0.004l0.009-0.003l0.009-0.003l0.009-0.002l0.009-0.002l0.009-0.002l0.009-0.001l0.009-0.001
			l0.009,0l0.009,0l0.008,0l0.008,0.001l0.008,0.001l0.008,0.002l0.008,0.002l0.008,0.002l0.008,0.003l0.008,0.003l0.008,0.004
			l0.008,0.004l0.008,0.004l0.007,0.005l0.007,0.005l0.007,0.006l0.007,0.006l0.007,0.006l0.006,0.006l0.006,0.006l0.006,0.006
			l0.006,0.007l0.006,0.007l0.005,0.007l0.005,0.008l0.005,0.008l0.005,0.008l0.005,0.008l0.005,0.009l0.005,0.009
			c0.064,0.119,0.097,0.253,0.126,0.384c0.157,0.793,0.188,2.134,0.267,2.947c0.039,0.401,0.082,0.816,0.184,1.206
			c0.042,0.152,0.091,0.306,0.179,0.438l0.007,0.01l0.007,0.01l0.008,0.01l0.008,0.01l0.008,0.009l0.008,0.009l0.008,0.009
			l0.008,0.008l0.008,0.008l0.008,0.008l0.008,0.007l0.008,0.007l0.008,0.007l0.008,0.007l0.009,0.006l0.009,0.006l0.009,0.006
			l0.009,0.005l0.009,0.005l0.009,0.005l0.009,0.004l0.009,0.004l0.009,0.004l0.009,0.004l0.009,0.003l0.009,0.003l0.009,0.003
			l0.01,0.002l0.01,0.002l0.01,0.002l0.01,0.002l0.01,0.001l0.01,0.001l0.01,0.001l0.01,0l0.01,0l0.01,0l0.01,0l0.01-0.001
			l0.01-0.001l0.01-0.001l0.011-0.002l0.011-0.002l0.011-0.002l0.011-0.002l0.011-0.003l0.011-0.003l0.011-0.003l0.011-0.003
			l0.011-0.004l0.011-0.004l0.011-0.004l0.011-0.004c0.216-0.092,0.389-0.26,0.549-0.427c0.678-0.754,1.179-1.666,1.666-2.55
			c1.592-2.897,2.881-6.691,4.439-9.608c0.188-0.315,0.38-0.648,0.662-0.889l0.013-0.01l0.013-0.01l0.013-0.009l0.013-0.009
			l0.013-0.008l0.013-0.008l0.012-0.007l0.012-0.007l0.012-0.007l0.012-0.006l0.012-0.006l0.012-0.005l0.012-0.005l0.012-0.004
			l0.012-0.004l0.012-0.003l0.012-0.003l0.012-0.002l0.012-0.002l0.011-0.001l0.011-0.001l0.011-0.001l0.011,0l0.011,0l0.011,0.001
			l0.011,0.001l0.011,0.002l0.011,0.002l0.011,0.003l0.011,0.003l0.011,0.004l0.011,0.004l0.01,0.005l0.01,0.005l0.005,0.003
			l0.005,0.003l0.005,0.003l0.005,0.003l0.005,0.003c0.073,0.05,0.127,0.123,0.175,0.197c0.241,0.395,0.384,0.892,0.637,1.28
			c0.124,0.191,0.293,0.389,0.532,0.423l0.013,0.002l0.013,0.001l0.013,0.001l0.013,0.001l0.013,0l0.013,0l0.014,0l0.014-0.001
			l0.014-0.001l0.014-0.001l0.014-0.001l0.014-0.002l0.014-0.002l0.014-0.002l0.014-0.003l0.014-0.003
			c0.17-0.038,0.327-0.121,0.473-0.212c0.748-0.487,1.546-1.374,2.209-1.976c0.337-0.308,0.689-0.621,1.082-0.856
			c0.174-0.101,0.361-0.191,0.561-0.221l0.016-0.002l0.016-0.002l0.016-0.002l0.016-0.001l0.015-0.001l0.015-0.001
			c0.408-0.012,0.715,0.314,0.958,0.603l0.303,0.372c0.134,0.153,0.283,0.338,0.49,0.387l0.006,0.001l0.006,0.001l0.006,0.001
			l0.006,0.001l0.006,0.001l0.006,0.001l0.006,0.001l0.015,0.001l0.015,0l0.015-0.001l0.015-0.001l0.015-0.002l0.015-0.003
			l0.015-0.003l0.015-0.004l0.015-0.005l0.016-0.005l0.016-0.006l0.016-0.007l0.016-0.007l0.016-0.008l0.016-0.009l0.016-0.009
			l0.016-0.01l0.016-0.01l0.016-0.011l0.016-0.012l0.016-0.012l0.016-0.013l0.016-0.014l0.016-0.014l0.016-0.015l0.016-0.015
			c0.227-0.225,0.388-0.51,0.537-0.791c0.598-1.19,0.99-2.506,1.368-3.779c0.989-3.531,1.779-7.205,2.323-10.832
			c0.378-2.539,0.485-5.182,0.439-7.748"/>
	</g>
	<g id="POLYLINE_00000119807412089758874420000009694572304281991864_">
		
			<path fill="none" stroke="#FB8604" stroke-width="2.75" stroke-linecap="round" stroke-linejoin="round" stroke-miterlimit="10" d="
			M638.933,289.997c-0.431-0.18-0.787-0.506-1.057-0.883c-0.486-0.683-0.743-1.501-0.92-2.312c-0.317-1.526-0.348-3.11-0.26-4.662
			c0.078-1.154,0.204-2.332,0.567-3.435c0.236-0.703,0.592-1.397,1.175-1.874c0.475-0.396,1.09-0.588,1.702-0.619
			c1.127-0.056,2.244,0.255,3.281,0.675c1.337,0.561,2.609,1.347,3.604,2.411c2.893,3.157,0.466,6.625-2.312,8.797
			c-1.141,0.877-2.418,1.648-3.831,1.979C640.242,290.216,639.548,290.254,638.933,289.997z"/>
	</g>
	<g id="POLYLINE_00000121270560190069664970000009867665323246226866_">
		
			<path fill="none" stroke="#FB8604" stroke-width="2.75" stroke-linecap="round" stroke-linejoin="round" stroke-miterlimit="10" d="
			M280.686,402.378l2.459,0.837c1.416,0.464,2.885,0.853,4.364,1.047c1.582,0.217,3.23,0.202,4.824,0.147
			c3.29-0.111,7.371-0.534,10.608-0.007c1.605,0.261,3.152,0.841,4.635,1.493c1.208,0.531,2.705,1.215,3.946,1.632
			c0.955,0.328,1.976,0.584,2.963,0.8c3.767,0.834,8.261,1.299,11.518,3.494c1.839,1.211,3.556,3.161,5.139,4.684
			c0.575,0.546,1.186,1.085,1.842,1.532c0.575,0.393,1.204,0.725,1.837,1.013c1.463,0.672,3.14,1.162,4.504,2.033
			c1.267,0.806,2.379,2.109,3.42,3.182c0.485,0.497,0.999,0.995,1.546,1.42c0.59,0.46,1.244,0.858,1.901,1.214
			c2.089,1.095,4.323,2.021,6.263,3.424c1.862,1.288,4.104,3.066,6.107,4.107c1.062,0.566,2.218,0.993,3.363,1.359
			c1.625,0.522,3.605,1.016,5.109,1.805c0.807,0.42,1.535,0.997,2.218,1.593c1.009,0.883,2.059,1.887,3.288,2.449
			c1.696,0.777,3.695,1.021,5.488,1.492c0.829,0.212,1.662,0.474,2.439,0.835c0.947,0.435,1.849,1.009,2.705,1.603l2.583,1.859
			c2.589,1.914,6.142,3.152,9.086,4.423c2.824,1.241,5.819,2.94,8.855,3.584c1.765,0.394,3.562,0.709,5.21,1.488l2.335,1.069
			c3.369,1.459,7.001,2.507,10.559,3.399"/>
	</g>
	<g id="POLYLINE_00000050646029132667153210000007252100646071630779_">
		
			<path fill="none" stroke="#FB8604" stroke-width="2.75" stroke-linecap="round" stroke-linejoin="round" stroke-miterlimit="10" d="
			M427.594,437.138c-1.403,2.626-2.777,5.372-3.271,8.334c-0.206,1.259-0.149,2.553,0.007,3.815
			c0.184,1.448,0.498,2.885,0.212,4.344c-0.46,2.641-1.888,5.133-2.711,7.663c-0.747,2.193-0.717,4.57-0.304,6.828
			c0.327,1.677,0.678,3.471,0.691,5.173c0.078,3.42-0.498,6.853-1.224,10.185c-0.525,2.4-1.789,7.516-2.122,9.866
			c-0.154,1.036-0.257,2.098-0.228,3.146c0.019,1.807,0.533,3.777,0.736,5.568c0.196,1.695,0.136,3.427-0.098,5.115
			c-0.215,1.569-0.578,3.143-1.06,4.652c-0.737,2.325-1.889,5.087-2.226,7.507c-0.168,1.149-0.189,2.331,0.001,3.478
			c0.3,1.789,1.022,3.489,1.835,5.1c0.469,0.903,1.136,2.089,1.48,3.028c0.318,0.839,0.526,1.732,0.652,2.62
			c0.501,3.972,0.123,8.796,0.008,12.815c-0.039,1.349-0.083,2.797,0.045,4.139c0.071,0.742,0.206,1.49,0.478,2.186
			c0.272,0.714,0.685,1.37,1.151,1.972c0.35,0.45,0.855,1.051,1.147,1.532c0.245,0.391,0.452,0.814,0.615,1.245
			c0.295,0.78,0.482,1.618,0.643,2.435c0.306,1.598,0.514,3.3,0.644,4.923c0.145,1.787,0.162,4.065,0.684,5.771
			c0.612,2.048,1.847,3.862,3.286,5.421c0.855,0.945,1.949,1.954,2.45,3.143c0.44,1.01,0.611,2.267,0.82,3.347
			c0.252,1.353,0.565,2.733,1.113,4c0.362,0.841,0.832,1.644,1.433,2.337c0.754,0.869,1.693,1.571,2.637,2.221
			c1.194,0.823,2.766,1.746,3.772,2.775c0.745,0.734,1.353,1.605,1.834,2.532c1.233,2.409,2,5.164,3.553,7.406
			c0.863,1.278,1.865,2.486,2.989,3.543c1.011,0.941,2.158,1.769,3.449,2.278c1.943,0.755,4.089,0.764,6.146,0.814
			c2.974,0.008,21.017,0.027,23.546-0.007c0.79-0.023,1.628-0.041,2.411-0.143c0.762-0.102,1.534-0.268,2.225-0.615
			c0.54-0.271,1.007-0.678,1.364-1.164c0.949-1.321,1.267-2.976,1.528-4.551c0.389-2.678,0.504-5.423,0.236-8.119
			c-0.193-1.801-0.677-3.657-1.883-5.057c-1.636-1.869-4.041-3.04-6.022-4.491c-0.825-0.608-1.628-1.292-2.177-2.169
			c-0.658-1.041-0.813-2.312-0.777-3.521c0.021-1.221,0.353-2.777,0.493-3.991c0.103-0.827,0.125-1.68,0.093-2.512
			c-0.05-1.618-0.292-3.477-0.178-5.094c0.077-1.186,0.352-2.358,0.713-3.488l1.083-3.267c0.547-1.691,0.96-3.448,1.039-5.229
			c0.175-3.174-0.503-6.682-0.856-9.835c-0.171-1.531-0.3-3.102-0.116-4.637c0.139-1.349,0.6-2.845,0.883-4.171
			c0.242-1.153,0.388-2.342,0.378-3.522c-0.003-2.783-0.978-5.679-1.295-8.429c-0.144-1.286-0.047-2.601,0.105-3.882
			c0.242-2.006,0.656-4.407,0.546-6.417c-0.091-2.398-0.945-6.192-1.363-8.585c-0.203-1.15-0.367-2.347-0.388-3.514
			c-0.03-1.223,0.091-2.505,0.228-3.722c0.304-2.623,0.923-6.181,0.775-8.796c-0.072-1.581-0.415-3.157-0.822-4.683
			c-0.451-1.651-1.098-3.685-1.277-5.377c-0.277-2.216-0.058-6.389-0.052-8.66c0.004-1.575-0.027-3.228-0.184-4.793
			c-0.142-1.506-0.542-3.456-0.811-4.958c-0.348-1.96-0.446-3.983-0.285-5.967c0.087-1.355,0.477-3.114,0.743-4.457
			c0.207-1.096,0.35-2.237,0.408-3.351c0.096-1.916,0.15-4.301,0.469-6.172c0.218-1.372,0.568-2.739,1.069-4.036
			c1.505-3.993,4.183-7.598,5.879-11.501c0.431-1.006,0.8-2.055,1.075-3.114c0.361-1.294,0.639-3.343,0.861-4.679
			c0.148-0.853,0.332-1.72,0.717-2.501c0.51-1.089,1.597-2.239,2.355-3.172c1.487-1.783,2.604-3.855,3.5-5.989
			c0.482-1.139,0.934-2.351,1.301-3.532c0.366-1.142,0.735-2.859,1.011-4.04c0.192-0.789,0.43-1.587,0.765-2.327
			c0.524-1.199,1.607-2.876,2.282-4.015c0.98-1.658,1.852-3.619,2.658-5.375c0.44-0.95,0.933-1.901,1.557-2.742
			c1.366-1.846,3.316-3.433,4.386-5.49c0.438-0.833,0.753-1.741,1.02-2.642c0.988-3.362,2.082-9.681,2.804-13.171
			c0.23-1.096,0.5-2.275,0.823-3.345c0.277-0.954,0.893-2.538,1.241-3.485c0.418-1.16,0.772-2.365,1.012-3.574
			c0.43-2.051,0.66-5.559,0.874-7.685c0.178-1.634,0.34-3.326,0.878-4.887c0.407-1.205,1.107-2.241,2.02-3.12
			c1.563-1.478,3.254-2.978,4.622-4.641c0.962-1.148,1.803-2.408,2.52-3.722c1.793-3.168,2.706-6.947,3.935-10.35
			c1.598-4.389,4.114-9.249,6.138-13.477c0.442-0.953,0.873-1.963,1.188-2.966c0.348-1.076,0.676-2.751,0.931-3.833
			c0.365-1.584,0.907-3.142,1.698-4.565c1.518-2.84,3.896-5.426,6.062-7.796c1.914-2.127,3.711-4.472,5.31-6.845"/>
	</g>
	<g id="POLYLINE_00000052076275311410061780000016978573008467475090_">
		
			<path fill="none" stroke="#FB8604" stroke-width="2.75" stroke-linecap="round" stroke-linejoin="round" stroke-miterlimit="10" d="
			M523.832,229.039c0.658,0.844,1.361,1.692,2.258,2.291c0.492,0.325,1.06,0.563,1.655,0.582c0.642,0.019,1.265-0.194,1.854-0.43
			c1.481-0.59,3.042-1.59,4.698-1.328c0.647,0.105,1.256,0.385,1.81,0.728c0.786,0.491,1.49,1.117,2.148,1.766
			c1.596,1.58,3.577,4.114,5.061,5.82c1.602,1.844,3.333,3.654,5.198,5.232c2.164,1.817,4.59,3.456,7.346,4.2
			c1.987,0.536,4.641,0.629,5.91-1.295c0.576-0.881,0.802-1.94,0.936-2.97c0.391-3.364-0.164-8.202-0.315-11.614
			c-0.254-4.915-0.067-11.903-0.52-16.779c-0.282-3.224-0.933-6.476-2.404-9.381c-1.966-3.923-5.29-7.148-9.235-9.057
			c-2.693-1.298-5.702-1.94-8.69-1.858c-1.968,0.062-3.973,0.44-5.712,1.397c-1.522,0.833-2.79,2.102-3.674,3.591
			c-0.814,1.291-1.348,3.169-1.879,4.599c-0.488,1.329-1.122,2.562-2.172,3.536c-1.685,1.585-3.847,2.758-5.396,4.493
			c-1.765,1.944-3.016,4.692-4.376,6.922c-0.564,0.925-1.181,1.845-1.922,2.638c-0.783,0.842-1.719,1.55-2.666,2.196
			c-1.179,0.797-2.733,1.769-3.78,2.715c-0.919,0.817-1.737,1.78-2.503,2.74c-1.087,1.372-2.524,3.397-3.77,4.597
			c-1.028,1.016-2.605,2.004-3.799,2.831c-1.184,0.819-2.306,1.774-3.35,2.763c-2.023,1.9-5.273,5.374-7.256,7.333
			c-1.244,1.271-3.446,3.15-4.806,4.332c-0.719,0.643-1.434,1.325-2.032,2.083c-0.69,0.867-1.38,2.123-1.958,3.078
			c-0.579,0.952-1.233,1.88-1.992,2.697c-1.904,2.052-4.897,4.177-7.054,5.98c-1.392,1.138-2.699,2.408-3.755,3.869
			c-0.919,1.251-1.966,2.735-3.133,3.759c-1.852,1.646-4.081,2.882-6.238,4.079c-2.469,1.305-6.399,3.315-8.707,4.809
			c-1.361,0.842-2.865,1.468-4.385,1.959l-5.089,1.628c-1.385,0.468-2.821,0.991-4.137,1.627c-0.935,0.451-1.859,1.004-2.727,1.573
			c-1.31,0.865-2.894,2.009-4.289,2.697c-0.835,0.422-1.732,0.747-2.629,1.01c-3.14,0.935-6.85,1.231-9.738,2.873
			c-1.171,0.633-2.487,1.436-3.755,1.831c-1.557,0.494-3.563,0.635-5.186,0.856c-1.302,0.177-2.621,0.421-3.854,0.885
			c-1.884,0.701-3.803,1.889-5.597,2.794c-1.309,0.666-2.682,1.257-4.101,1.644c-2.036,0.558-4.187,0.799-6.288,0.972
			c-2.637,0.201-7.445,0.384-9.986,0.849c-2.384,0.391-5.363,1.255-7.74,1.699c-4.214,0.855-10.073,0.498-14.389,0.523
			c-1.766,0.006-3.675,0.089-5.432,0.252c-2.738,0.244-7.114,0.863-9.811,0.726c-2.18-0.076-4.728-0.656-6.899-0.868
			c-1.471-0.157-2.977-0.087-4.445,0.072c-2.063,0.223-4.675,0.621-6.737,0.511c-2.389-0.092-5.367-0.897-7.713-1.402
			c-4.231-0.907-9.017-0.971-13.283-1.67c-3.176-0.489-7.133-1.332-10.321-1.623c-2.334-0.215-5.214-0.205-7.537-0.495
			c-2.551-0.314-5.526-1.073-8.075-1.369c-2.167-0.251-5.164-0.184-7.344-0.362c-5.905-0.47-12.581-1.986-18.512-1.984
			c-2.774-0.031-5.878,0.503-8.633,0.066c-2.125-0.346-4.239-1.191-6.256-1.923c-1.025-0.405-2.087-0.832-2.93-1.559
			c-0.937-0.792-1.153-2.087-1.661-3.146c-0.863-1.785-2.359-3.284-3.094-5.139c-0.213-0.528-0.35-1.09-0.379-1.66
			c-0.083-1.27,0.309-2.681,0.539-3.924c0.117-0.629,0.213-1.277,0.212-1.918c0-0.621-0.085-1.249-0.193-1.86
			c-0.268-1.477-0.72-3.133-0.413-4.629c0.398-1.963,1.654-3.862,2.385-5.708c0.588-1.388,0.86-2.893,1.01-4.387
			c0.167-1.545,0.246-3.725,0.724-5.194c0.38-1.245,1.236-2.573,1.882-3.703c0.349-0.613,0.66-1.276,0.919-1.931
			c0.597-1.474,1.132-3.27,2.156-4.505c0.894-1.073,2.239-1.908,3.226-2.888c1.185-1.131,2.013-2.587,2.779-4.02
			c0.878-1.632,1.96-4.053,3.075-5.506c0.641-0.85,1.52-1.548,2.308-2.256c0.751-0.651,1.45-1.671,2.042-2.471
			c0.604-0.809,1.273-1.601,2.11-2.179c0.913-0.629,1.985-0.989,3.041-1.298c1.45-0.421,3.37-0.795,4.655-1.587
			c1.091-0.651,2.078-1.473,3.335-1.799c2.289-0.603,4.856-0.497,7.194-0.79c2.058-0.24,4.359-0.731,6.423-0.361
			c2.02,0.34,4.055,1.29,6.049,1.736c1.164,0.28,2.522,0.234,3.715,0.24c0.899,0.011,1.807,0.101,2.672,0.353
			c2.298,0.684,4.579,2.147,6.769,3.098c0.652,0.283,1.33,0.54,2.03,0.669c0.802,0.163,1.804,0.138,2.622,0.166
			c0.866,0.021,1.728,0.189,2.558,0.434c1.816,0.504,3.943,1.401,5.85,1.252c0.938-0.082,1.845-0.48,2.537-1.118
			c0.473-0.435,0.852-0.98,1.07-1.586c0.216-0.597,0.266-1.245,0.209-1.875c-0.064-0.717-0.256-1.424-0.492-2.103
			c-0.284-0.813-0.64-1.616-1.049-2.374c-0.622-1.145-1.385-2.234-2.335-3.131c-0.682-0.65-1.491-1.165-2.312-1.621
			c-0.89-0.488-2.073-1.081-2.897-1.655c-0.493-0.337-0.954-0.738-1.386-1.151l-1.491-1.475c-0.64-0.612-1.331-1.199-2.139-1.575
			c-1.703-0.77-3.792-0.725-5.587-1.163c-1.795-0.389-3.569-1.452-5.189-2.294c-0.767-0.388-1.561-0.773-2.406-0.953
			c-1.074-0.24-2.333-0.008-3.417,0.087c-1.064,0.106-2.146,0.04-3.199-0.133c-3.258-0.522-6.762-1.64-10.083-1.604
			c-1.483,0.018-2.956,0.325-4.376,0.737l-2.937,0.899c-1.041,0.309-2.122,0.524-3.209,0.566c-1.772,0.087-3.71-0.104-5.454,0.275
			c-3.192,0.706-6.101,2.524-8.963,4.041c-1.629,0.905-3.28,1.893-4.768,3.016c-1.751,1.279-4.362,3.825-5.988,5.306
			c-2.018,1.886-4.663,3.872-6.524,5.915c-0.537,0.594-1.016,1.256-1.436,1.937c-0.45,0.747-1.187,2.025-1.671,2.748
			c-0.49,0.738-1.066,1.466-1.632,2.148c-1.717,2.075-4.169,4.626-5.445,6.971c-0.707,1.275-1.053,2.857-1.601,4.201
			c-0.439,1.101-1.202,2.041-1.974,2.926c-1.074,1.231-2.276,2.563-3.087,3.979c-0.64,1.082-1.083,2.279-1.398,3.493
			c-0.768,2.894-0.991,6.459-1.575,9.395c-0.161,0.783-0.361,1.574-0.664,2.315c-0.522,1.329-1.454,2.552-2.071,3.834
			c-0.47,0.959-0.735,2.009-0.867,3.066c-0.181,1.39-0.204,2.85-0.204,4.251l0.083,5.37c0.01,1.489-0.06,3.02-0.33,4.485
			c-0.251,1.386-0.589,2.895-0.537,4.3c0.098,2.831,1.02,6.319,1.392,9.131c0.425,2.918,0.339,6.353,0.581,9.293
			c0.237,2.762,0.798,5.697,0.577,8.473c-0.253,3.138-1.5,6.133-3.181,8.768c-1.171,1.837-2.642,3.52-4.14,5.098
			c-1.922,1.991-5.057,5.108-6.77,7.206c-1.505,1.806-2.891,3.756-4.024,5.817c-1.796,3.289-3.104,6.863-3.977,10.504
			c-0.477,2.036-0.829,4.14-0.889,6.233c-0.052,1.637,0.1,3.304,0.332,4.924c0.675,4.398,1.545,9.329,1.545,13.759
			c0.004,2-0.142,4.031-0.655,5.97c-0.745,3.044-2.562,6.049-2.79,9.191c-0.175,2.462,0.449,5.135,0.579,7.588
			c0.091,1.412-0.06,2.842-0.308,4.232c-0.243,1.357-0.672,3.265-0.756,4.612c-0.087,1.133,0.074,2.626,0.159,3.772
			c0.092,1.234,0.09,2.492-0.098,3.717c-0.589,3.763-2.238,7.937-2.942,11.679c-0.408,1.994-0.411,4.28-0.513,6.312
			c-0.071,1.214-0.241,2.446-0.71,3.576c-0.733,1.795-2.004,3.58-2.763,5.363c-1.155,2.576-1.407,6.011-1.84,8.784
			c-0.228,1.477-0.512,2.98-1.001,4.393c-0.671,2.038-2.097,4.597-3.083,6.525c-1.113,2.115-1.96,4.448-2.664,6.731
			c-0.641,2.002-1.372,4.572-2.276,6.456c-0.636,1.377-1.729,2.877-2.583,4.135c-0.416,0.623-0.821,1.283-1.144,1.959
			c-0.472,0.954-1.137,2.878-1.523,3.891c-0.437,1.136-0.941,2.273-1.584,3.309c-0.782,1.261-1.779,2.415-2.78,3.508
			c-1.387,1.492-3.539,3.639-4.75,5.231c-0.648,0.839-1.23,1.769-1.754,2.691c-1.046,1.838-2.04,3.99-3.465,5.567
			c-1.356,1.527-3.072,2.716-4.922,3.569c-2.045,0.98-4.836,1.535-7.038,2.093c-1.486,0.39-2.994,0.837-4.33,1.611
			c-1.132,0.652-2.133,1.522-3.015,2.481c-1.476,1.61-2.751,3.551-3.96,5.369c-1.867,2.868-3.502,5.935-4.575,9.192
			c-0.811,2.461-1.36,5.034-1.592,7.615c-0.16,1.884-0.164,3.809,0.179,5.673c0.44,2.51,1.657,4.978,1.978,7.512
			c0.358,2.755-0.179,5.756,0.56,8.463c0.226,0.795,0.58,1.557,0.962,2.288c0.537,0.995,1.287,2.3,1.631,3.374
			c0.247,0.752,0.342,1.55,0.386,2.338c0.072,1.351,0.027,2.894,0.262,4.229c0.145,0.887,0.433,1.753,0.817,2.564
			c1.364,2.872,3.712,5.499,5.081,8.368c0.504,1.057,0.879,2.186,1.169,3.319c0.466,1.794,0.771,3.966,1.279,5.749
			c0.572,2.069,1.613,4.298,2.479,6.26c1.074,2.018,2.217,4.065,3.687,5.823c0.941,1.115,2.096,2.144,3.531,2.54
			c0.5,0.143,1.025,0.21,1.543,0.239c0.206,0.016,0.512,0.017,0.724,0.022l24.432,0l1.09-0.014c1.359-0.038,2.756-0.1,4.058-0.523
			c1.154-0.364,2.123-1.109,2.834-2.082c0.839-1.136,1.366-2.476,1.777-3.818c0.603-2.013,0.971-4.126,1.176-6.217
			c0.183-2.018,0.229-4.094-0.25-6.076c-0.488-2.034-1.487-3.925-2.472-5.756c-1.191-2.221-3.122-5.12-3.773-7.54
			c-0.549-2.034-0.603-4.201-0.246-6.274c0.253-1.557,1.025-3.266,1.615-4.73c0.696-1.676,1.073-3.475,1.279-5.273
			c0.331-2.466,0.27-5.241,0.921-7.652c0.49-1.756,1.63-3.526,2.362-5.186c0.81-1.81,1.384-3.742,1.81-5.677l0.392-1.937
			c0.197-0.914,0.5-1.813,0.959-2.63c0.837-1.487,2.031-2.749,3.257-3.922c1.415-1.327,2.962-2.543,4.635-3.528
			c1.609-0.963,3.581-1.774,5.155-2.794c2.61-1.642,4.014-4.626,5.477-7.227c0.641-1.121,1.414-2.218,2.546-2.886
			c1.641-0.969,3.683-1.498,5.404-2.301c1.521-0.684,3.01-1.527,4.199-2.712c1.138-1.118,2.038-2.764,2.89-4.105
			c0.436-0.687,0.919-1.369,1.477-1.963c0.671-0.724,1.449-1.367,2.239-1.957c1.628-1.182,3.475-2.449,4.828-3.925
			c1.1-1.167,2.134-2.707,3.326-3.782c0.4-0.362,0.843-0.684,1.327-0.923c0.776-0.388,1.755-0.653,2.564-0.973
			c0.55-0.219,1.084-0.492,1.56-0.846c0.617-0.459,1.145-1.036,1.624-1.635c2.161-2.748,3.588-6.255,5.527-9.151
			c0.696-1.054,1.555-2.009,2.484-2.862c1.102-1.022,2.373-2.147,3.234-3.378c1.316-1.837,2.326-4.373,3.309-6.409
			c0.43-0.887,0.918-1.771,1.549-2.532c0.808-0.986,1.864-1.797,2.867-2.575c2.02-1.547,4.209-3.173,5.892-5.089
			c2.165-2.439,3.522-5.452,4.648-8.482c0.46-1.185,1.024-2.354,1.766-3.39c1.372-1.876,3.021-3.79,4.115-5.853
			c1.71-3.086,2.743-7.283,3.797-10.643c0.381-1.215,0.817-2.435,1.417-3.559c0.605-1.154,1.513-2.317,2.19-3.432
			c1.299-2.13,2.391-4.435,2.896-6.89c0.368-1.719,0.594-3.627,1.127-5.302c0.653-2.118,1.899-4.56,2.852-6.577
			c1.036-2.185,1.864-4.492,2.475-6.831c0.52-1.98,0.918-4.03,1.02-6.078c0.118-2.358-0.093-4.749-0.434-7.081
			c-0.384-2.449-0.94-4.907-1.876-7.209c-1.757-4.29-4.99-7.833-8.199-11.102"/>
	</g>
</g>
<g id="_x32_D_x24_AG-OUTLINE">
	<g id="POLYLINE_00000092430596324006522680000001132338374404565894_">
		
			<path fill="none" stroke="#FB8604" stroke-width="3.5" stroke-linecap="round" stroke-linejoin="round" stroke-miterlimit="10" d="
			M280.686,402.378c-0.396,1.278-0.867,2.573-1.401,3.798c-0.673,1.559-1.809,3.782-2.478,5.34c-0.781,1.766-1.3,3.504-1.615,5.408
			c-0.229,1.259-0.476,2.76-0.859,3.972c-0.293,0.95-0.682,1.889-1.112,2.785c-0.514,1.064-1.117,2.132-1.762,3.123
			c-0.494,0.753-1.188,1.713-1.625,2.498c-0.69,1.212-1.174,2.548-1.59,3.876c-1.057,3.387-2.093,7.559-3.797,10.643
			c-1.095,2.063-2.74,3.973-4.115,5.853c-0.742,1.037-1.305,2.204-1.766,3.39c-1.127,3.032-2.483,6.043-4.648,8.482
			c-1.682,1.915-3.872,3.54-5.892,5.089c-1.006,0.78-2.059,1.588-2.867,2.575c-0.631,0.761-1.118,1.645-1.549,2.532
			c-0.986,2.041-1.99,4.568-3.309,6.409c-0.859,1.229-2.135,2.359-3.234,3.378c-0.929,0.853-1.788,1.809-2.484,2.862
			c-1.94,2.897-3.365,6.401-5.527,9.151c-0.478,0.599-1.007,1.176-1.624,1.635c-0.475,0.353-1.01,0.627-1.56,0.846
			c-0.808,0.319-1.786,0.583-2.564,0.973c-0.484,0.239-0.927,0.562-1.327,0.923c-1.194,1.077-2.226,2.615-3.326,3.782
			c-1.355,1.48-3.21,2.748-4.828,3.925c-0.79,0.59-1.568,1.233-2.239,1.957c-0.558,0.594-1.041,1.276-1.477,1.963
			c-0.854,1.354-1.755,2.983-2.89,4.105c-1.189,1.185-2.678,2.028-4.199,2.712c-1.721,0.803-3.763,1.333-5.404,2.301
			c-1.23,0.726-2.026,1.95-2.708,3.169c-1.391,2.522-2.805,5.364-5.316,6.945c-1.575,1.02-3.547,1.831-5.155,2.794
			c-1.673,0.985-3.22,2.202-4.635,3.528c-1.226,1.173-2.42,2.435-3.257,3.922c-0.459,0.817-0.763,1.716-0.959,2.63l-0.392,1.937
			c-0.452,2.052-1.068,4.099-1.961,6.005c-0.731,1.584-1.812,3.307-2.25,5.001c-0.604,2.365-0.56,5.096-0.882,7.51
			c-0.205,1.798-0.583,3.597-1.279,5.273c-0.591,1.465-1.361,3.169-1.615,4.73c-0.356,2.073-0.302,4.239,0.246,6.274
			c0.647,2.415,2.595,5.338,3.773,7.54c0.984,1.833,1.984,3.722,2.472,5.756c0.478,1.982,0.434,4.058,0.25,6.076
			c-0.215,2.176-0.601,4.372-1.252,6.461c-0.401,1.257-0.913,2.507-1.702,3.573c-0.711,0.973-1.68,1.717-2.834,2.082
			c-1.302,0.422-2.699,0.485-4.058,0.523c0,0-1.09,0.014-1.09,0.014l-24.432,0l-0.292-0.005c-0.123-0.004-0.307-0.009-0.431-0.017
			c-0.518-0.029-1.043-0.096-1.543-0.239c-1.434-0.396-2.59-1.425-3.531-2.54c-1.47-1.757-2.615-3.805-3.687-5.823
			c-0.866-1.96-1.816-3.99-2.415-6.04c-0.553-1.852-0.857-4.097-1.343-5.969c-0.29-1.134-0.664-2.262-1.169-3.319
			c-1.369-2.868-3.717-5.497-5.081-8.368c-0.385-0.812-0.672-1.677-0.817-2.564c-0.235-1.332-0.19-2.877-0.262-4.229
			c-0.044-0.788-0.139-1.586-0.386-2.338c-0.335-1.073-1.103-2.371-1.631-3.374c-0.382-0.731-0.737-1.492-0.962-2.287
			c-0.739-2.706-0.202-5.708-0.56-8.463c-0.321-2.534-1.538-5.003-1.978-7.512c-0.342-1.864-0.339-3.79-0.179-5.673
			c0.232-2.581,0.781-5.154,1.592-7.615c1.073-3.256,2.708-6.325,4.575-9.192c1.157-1.737,2.385-3.604,3.775-5.165
			c0.929-1.039,1.988-1.988,3.2-2.685c1.336-0.774,2.844-1.223,4.33-1.611c2.215-0.564,4.985-1.111,7.038-2.093
			c1.85-0.852,3.566-2.042,4.922-3.569c1.424-1.574,2.421-3.731,3.465-5.567c0.523-0.922,1.106-1.852,1.754-2.691
			c1.205-1.585,3.379-3.757,4.75-5.231c1.001-1.093,1.998-2.246,2.78-3.508c0.643-1.035,1.148-2.173,1.584-3.309
			c0.39-1.026,1.048-2.929,1.523-3.891c0.323-0.676,0.728-1.336,1.144-1.959c0.861-1.27,1.945-2.754,2.583-4.135
			c0.902-1.877,1.636-4.456,2.276-6.456c0.705-2.284,1.551-4.615,2.665-6.731c0.988-1.932,2.407-4.478,3.083-6.525
			c0.489-1.413,0.773-2.917,1.001-4.393c0.437-2.793,0.683-6.2,1.84-8.784c0.759-1.782,2.031-3.569,2.763-5.363
			c0.535-1.286,0.676-2.699,0.737-4.078c0.069-1.864,0.116-3.989,0.486-5.811c0.705-3.743,2.353-7.915,2.942-11.679
			c0.188-1.224,0.19-2.483,0.098-3.717c-0.085-1.131-0.245-2.64-0.159-3.772c0.085-1.358,0.515-3.268,0.756-4.612
			c0.27-1.486,0.412-3.014,0.291-4.523c-0.157-2.35-0.73-4.938-0.561-7.298c0.228-3.141,2.046-6.148,2.79-9.191
			c0.513-1.939,0.659-3.97,0.655-5.97c0.001-4.421-0.871-9.379-1.545-13.759c-0.246-1.724-0.401-3.489-0.321-5.23
			c0.093-2.16,0.482-4.328,1-6.424c0.96-3.792,2.376-7.512,4.36-10.889c1.758-2.978,4.025-5.659,6.411-8.152
			c2.252-2.361,5.413-5.355,7.278-7.998c1.127-1.567,2.085-3.276,2.786-5.075c0.543-1.397,0.938-2.871,1.097-4.364
			c0.201-1.838,0.028-3.742-0.177-5.574c-0.164-1.254-0.366-3.162-0.44-4.414c-0.115-1.929-0.137-4.783-0.331-6.7
			c-0.278-3.394-1.426-7.219-1.564-10.625c-0.051-1.419,0.286-2.912,0.537-4.3c0.27-1.465,0.34-2.997,0.33-4.485l-0.083-5.37
			c0.001-1.404,0.023-2.86,0.204-4.251c0.132-1.057,0.397-2.107,0.867-3.066c0.617-1.282,1.549-2.505,2.071-3.834
			c0.302-0.741,0.503-1.532,0.664-2.315c0.584-2.939,0.807-6.499,1.575-9.395c0.315-1.214,0.757-2.411,1.398-3.493
			c0.809-1.414,2.015-2.753,3.087-3.979c0.772-0.885,1.535-1.825,1.974-2.926c0.548-1.344,0.893-2.924,1.601-4.201
			c1.273-2.343,3.744-4.913,5.445-6.972c0.57-0.685,1.14-1.409,1.632-2.148c0.49-0.714,1.207-2.001,1.671-2.748
			c0.42-0.681,0.899-1.342,1.436-1.937c1.857-2.041,4.507-4.031,6.524-5.915c1.646-1.494,4.227-4.017,5.988-5.306
			c1.487-1.122,3.139-2.111,4.768-3.016c2.862-1.517,5.77-3.334,8.963-4.041c1.744-0.38,3.684-0.189,5.455-0.275
			c1.087-0.042,2.168-0.257,3.209-0.566l2.937-0.899c1.42-0.412,2.892-0.719,4.376-0.736c3.318-0.037,6.827,1.082,10.083,1.604
			c1.054,0.173,2.135,0.239,3.199,0.133c1.114-0.097,2.392-0.335,3.493-0.07c0.816,0.187,1.586,0.559,2.33,0.936
			c1.621,0.844,3.392,1.905,5.189,2.294c1.796,0.438,3.882,0.392,5.587,1.163c0.808,0.375,1.5,0.963,2.139,1.575l1.491,1.475
			c0.431,0.413,0.893,0.814,1.386,1.151c0.821,0.572,2.012,1.169,2.897,1.655c0.821,0.457,1.63,0.971,2.312,1.621
			c0.898,0.848,1.63,1.87,2.233,2.945c0.454,0.814,0.843,1.681,1.151,2.56c0.228,0.657,0.415,1.34,0.485,2.033
			c0.064,0.63,0.025,1.28-0.181,1.882c-0.206,0.609-0.575,1.159-1.04,1.6c-0.699,0.665-1.627,1.082-2.588,1.166
			c-1.902,0.15-4.042-0.747-5.85-1.252c-0.83-0.245-1.691-0.412-2.558-0.434c-0.823-0.029-1.818-0.003-2.622-0.166
			c-0.701-0.129-1.379-0.386-2.03-0.669c-2.192-0.952-4.47-2.413-6.769-3.098c-0.865-0.252-1.774-0.341-2.672-0.353
			c-1.201-0.007-2.55,0.04-3.715-0.24c-1.994-0.446-4.03-1.396-6.049-1.736c-2.061-0.369-4.367,0.122-6.423,0.361
			c-2.339,0.293-4.904,0.186-7.194,0.79c-1.258,0.326-2.245,1.148-3.335,1.799c-1.282,0.791-3.217,1.169-4.655,1.587
			c-1.056,0.309-2.128,0.67-3.041,1.298c-0.837,0.577-1.505,1.369-2.11,2.179c-0.594,0.803-1.289,1.818-2.042,2.471
			c-0.788,0.709-1.666,1.405-2.308,2.256c-1.111,1.445-2.207,3.889-3.075,5.506c-0.767,1.433-1.594,2.888-2.779,4.02
			c-0.988,0.98-2.332,1.814-3.226,2.888c-1.022,1.232-1.562,3.036-2.156,4.505c-0.259,0.656-0.571,1.318-0.919,1.931
			c-0.648,1.134-1.501,2.455-1.882,3.703c-0.477,1.462-0.558,3.659-0.724,5.194c-0.15,1.494-0.422,2.999-1.01,4.387
			c-0.738,1.865-2.01,3.774-2.395,5.762c-0.287,1.476,0.159,3.121,0.423,4.575c0.108,0.611,0.193,1.239,0.193,1.86
			c0,0.641-0.095,1.289-0.212,1.918c-0.229,1.268-0.631,2.683-0.536,3.973c0.035,0.587,0.188,1.165,0.415,1.707
			c0.746,1.81,2.208,3.289,3.055,5.043c0.508,1.059,0.724,2.353,1.661,3.146c0.843,0.727,1.905,1.154,2.93,1.559
			c2.018,0.732,4.13,1.577,6.256,1.923c2.754,0.438,5.861-0.097,8.633-0.066c5.93-0.002,12.609,1.514,18.512,1.984
			c2.186,0.179,5.167,0.11,7.344,0.362c2.553,0.296,5.523,1.055,8.075,1.369c2.319,0.29,5.204,0.28,7.537,0.495
			c3.181,0.29,7.15,1.135,10.321,1.623c4.266,0.699,9.051,0.763,13.283,1.67c2.364,0.506,5.316,1.308,7.713,1.402
			c2.054,0.111,4.678-0.289,6.737-0.511c1.469-0.159,2.974-0.229,4.445-0.072c2.172,0.213,4.717,0.792,6.899,0.868
			c2.681,0.138,7.108-0.484,9.811-0.726c1.757-0.164,3.667-0.246,5.432-0.252c4.343-0.026,10.157,0.332,14.389-0.523
			c2.377-0.444,5.354-1.307,7.74-1.699c2.522-0.464,7.385-0.652,9.986-0.849c2.178-0.181,4.404-0.431,6.509-1.035
			c1.45-0.416,2.851-1.045,4.188-1.739c1.729-0.892,3.605-2.034,5.438-2.691c1.188-0.431,2.457-0.661,3.706-0.831
			c1.63-0.222,3.624-0.361,5.186-0.856c1.266-0.394,2.588-1.201,3.755-1.831c2.886-1.642,6.599-1.939,9.738-2.873
			c0.897-0.263,1.794-0.588,2.629-1.01c1.391-0.685,2.988-1.836,4.289-2.697c0.868-0.569,1.792-1.122,2.727-1.573
			c1.315-0.636,2.752-1.159,4.137-1.627l5.089-1.628c1.521-0.492,3.024-1.117,4.385-1.96c2.295-1.486,6.258-3.515,8.707-4.808
			c2.159-1.198,4.386-2.433,6.239-4.079c1.164-1.022,2.214-2.509,3.133-3.759c1.055-1.461,2.363-2.731,3.755-3.869
			c2.161-1.806,5.143-3.922,7.054-5.98c0.758-0.817,1.413-1.746,1.992-2.697c0.582-0.959,1.266-2.208,1.958-3.078
			c0.597-0.758,1.313-1.441,2.032-2.083c1.377-1.197,3.555-3.055,4.806-4.332c1.986-1.962,5.23-5.43,7.256-7.333
			c1.045-0.989,2.167-1.944,3.35-2.763c1.234-0.855,2.823-1.847,3.876-2.906c1.197-1.171,2.643-3.194,3.693-4.522
			c0.766-0.961,1.583-1.923,2.503-2.74c1.042-0.943,2.607-1.923,3.78-2.715c0.948-0.647,1.883-1.354,2.666-2.196
			c0.741-0.793,1.358-1.712,1.922-2.638c1.363-2.233,2.61-4.976,4.376-6.922c1.55-1.735,3.712-2.909,5.397-4.493
			c1.049-0.973,1.684-2.209,2.172-3.536c0.535-1.441,1.071-3.299,1.879-4.599c0.864-1.455,2.094-2.701,3.572-3.533
			c2.158-1.216,4.707-1.543,7.151-1.443c4.593,0.186,9.009,2.135,12.348,5.276c2.91,0.471,5.894,1.038,8.711,1.907
			c2.471,0.751,4.936,1.786,7.287,2.851c4.126,1.963,10.885,5.086,15.059,6.875c1.38,0.63,2.843,1.332,4.156,2.088
			c0.941,0.542,1.881,1.151,2.729,1.83c1.049,0.819,2.337,2.113,3.315,3.028c1.174,1.104,2.46,2.123,3.922,2.817
			c3.219,1.552,7.095,2.403,9.469,5.271c1.861,2.239,2.918,5.289,4.05,7.946c0.765,1.809,1.6,3.649,2.863,5.17
			c0.902,1.108,1.988,2.069,3.13,2.924c2.064,1.502,4.803,3.239,6.827,4.784c4.872,3.684,9.887,7.47,14.041,11.968
			c1.439,1.586,2.885,3.246,3.876,5.157c0.889,1.758,1.283,3.724,1.623,5.651c0.443,2.753,0.66,5.587,0.297,8.361
			c2.42,2.2,2.165,4.841,0.19,7.242c0.038,2.329-0.036,4.739-0.344,7.047c-0.501,3.701-1.307,7.44-2.28,11.045
			c-0.414,1.439-0.836,2.923-1.506,4.267c-0.149,0.28-0.31,0.565-0.537,0.791l-0.016,0.015l-0.016,0.015l-0.016,0.014l-0.016,0.014
			l-0.016,0.013l-0.016,0.012l-0.016,0.012l-0.016,0.011l-0.016,0.01l-0.016,0.01l-0.016,0.009l-0.016,0.009l-0.016,0.008
			l-0.016,0.007l-0.016,0.007l-0.016,0.006l-0.016,0.005l-0.015,0.005l-0.015,0.004l-0.015,0.003l-0.015,0.003l-0.015,0.002
			l-0.015,0.001l-0.015,0.001l-0.015,0l-0.015-0.001l-0.006-0.001l-0.006-0.001l-0.006-0.001l-0.006-0.001l-0.006-0.001
			l-0.006-0.001l-0.006-0.001c-0.207-0.05-0.355-0.234-0.49-0.387l-0.303-0.372c-0.244-0.289-0.55-0.615-0.958-0.603l-0.015,0.001
			l-0.015,0.001l-0.016,0.001l-0.016,0.002l-0.016,0.002l-0.016,0.002c-0.201,0.03-0.388,0.12-0.561,0.221
			c-0.393,0.235-0.745,0.548-1.082,0.856c-0.664,0.603-1.458,1.487-2.209,1.976c-0.147,0.091-0.304,0.174-0.473,0.212l-0.014,0.003
			l-0.014,0.003l-0.014,0.002l-0.014,0.002l-0.014,0.002l-0.014,0.001l-0.014,0.001l-0.014,0.001l-0.014,0.001l-0.014,0l-0.013,0
			l-0.013,0l-0.013-0.001l-0.013-0.001l-0.013-0.001l-0.013-0.002c-0.246-0.036-0.417-0.243-0.543-0.441
			c-0.248-0.389-0.391-0.885-0.634-1.277c-0.046-0.068-0.097-0.136-0.166-0.183l-0.005-0.003l-0.005-0.003l-0.005-0.003
			l-0.005-0.003l-0.005-0.003l-0.01-0.005l-0.01-0.005l-0.011-0.004l-0.011-0.004l-0.011-0.003l-0.011-0.003l-0.011-0.002
			l-0.011-0.002l-0.011-0.001l-0.011-0.001l-0.011,0l-0.011,0l-0.011,0.001l-0.011,0.001l-0.011,0.001l-0.012,0.002l-0.012,0.002
			l-0.012,0.003l-0.012,0.003l-0.012,0.004l-0.012,0.004l-0.012,0.005l-0.012,0.005l-0.012,0.006l-0.012,0.006l-0.012,0.007
			l-0.012,0.007l-0.012,0.007l-0.013,0.008l-0.013,0.008l-0.013,0.009l-0.013,0.009l-0.013,0.01l-0.013,0.01
			c-0.283,0.24-0.474,0.573-0.662,0.889c-1.559,2.918-2.846,6.71-4.439,9.608c-0.487,0.884-0.988,1.796-1.666,2.55
			c-0.16,0.167-0.333,0.335-0.549,0.427l-0.011,0.004l-0.011,0.004l-0.011,0.004l-0.011,0.004l-0.011,0.003l-0.011,0.003
			l-0.011,0.003l-0.011,0.003l-0.011,0.002l-0.011,0.002l-0.011,0.002l-0.011,0.002l-0.01,0.001l-0.01,0.001l-0.01,0.001l-0.01,0
			l-0.01,0l-0.01,0l-0.01,0l-0.01-0.001l-0.01-0.001l-0.01-0.001l-0.01-0.002l-0.01-0.002l-0.01-0.002l-0.01-0.002l-0.009-0.003
			l-0.009-0.003l-0.009-0.003l-0.009-0.004l-0.009-0.004l-0.009-0.004l-0.009-0.004l-0.009-0.005L625.832,323l-0.009-0.005
			l-0.009-0.006l-0.009-0.006l-0.009-0.006l-0.008-0.007l-0.008-0.007l-0.008-0.007l-0.008-0.007l-0.008-0.008l-0.008-0.008
			l-0.008-0.008l-0.008-0.009l-0.008-0.009l-0.008-0.009l-0.008-0.01l-0.008-0.01l-0.007-0.01l-0.007-0.01
			c-0.088-0.132-0.137-0.287-0.179-0.438c-0.101-0.39-0.145-0.805-0.184-1.206c-0.08-0.817-0.11-2.15-0.267-2.947
			c-0.029-0.131-0.062-0.265-0.126-0.384l-0.005-0.009l-0.005-0.009l-0.005-0.008l-0.005-0.008l-0.005-0.008l-0.005-0.008
			l-0.005-0.007l-0.006-0.007l-0.006-0.007l-0.006-0.006l-0.006-0.006l-0.006-0.006l-0.007-0.006l-0.007-0.006l-0.007-0.006
			l-0.007-0.005l-0.007-0.005l-0.008-0.004l-0.008-0.004l-0.008-0.004l-0.008-0.003l-0.008-0.003l-0.008-0.002l-0.008-0.002
			l-0.008-0.002l-0.008-0.001l-0.008-0.001l-0.008,0l-0.009,0l-0.009,0l-0.009,0.001l-0.009,0.001l-0.009,0.002l-0.009,0.002
			l-0.009,0.002l-0.009,0.003l-0.009,0.003l-0.009,0.004l-0.009,0.004l-0.01,0.004l-0.01,0.005l-0.01,0.005l-0.01,0.005l-0.01,0.006
			l-0.01,0.006l-0.01,0.006l-0.01,0.007l-0.01,0.007c-0.352,0.273-0.651,0.795-0.898,1.17c-0.961,1.553-1.948,3.342-3.17,4.696
			c-0.641,0.699-1.381,1.339-2.251,1.731c-0.342,0.149-0.712,0.259-1.089,0.249c-0.265-0.007-0.532-0.086-0.74-0.254
			c-0.216-0.171-0.355-0.421-0.443-0.679c-0.104-0.305-0.153-0.628-0.184-0.948c-0.112-1.206,0.058-2.675,0.12-3.887
			c0.008-0.302,0.036-0.622-0.034-0.919l-0.003-0.01l-0.003-0.009l-0.003-0.009l-0.003-0.009l-0.003-0.009l-0.003-0.008
			l-0.004-0.008l-0.004-0.008l-0.004-0.007l-0.004-0.007l-0.004-0.006l-0.004-0.006l-0.004-0.006l-0.004-0.005l-0.004-0.005
			l-0.004-0.005l-0.004-0.005l-0.004-0.004l-0.005-0.004l-0.005-0.004l-0.005-0.003l-0.005-0.003l-0.005-0.003l-0.005-0.003
			l-0.005-0.002l-0.005-0.002l-0.005-0.002l-0.005-0.001l-0.006-0.001l-0.006-0.001l-0.006-0.001l-0.006,0l-0.006,0l-0.006,0
			l-0.006,0l-0.006,0.001l-0.006,0.001l-0.006,0.001l-0.007,0.001l-0.007,0.002l-0.007,0.002l-0.007,0.002l-0.007,0.002
			l-0.007,0.003l-0.007,0.003l-0.007,0.003l-0.007,0.003l-0.007,0.004l-0.008,0.004l-0.008,0.004l-0.008,0.004
			c-0.261,0.172-0.47,0.462-0.67,0.7c-0.998,1.278-2.034,2.678-3.26,3.74c-1.197,1.028-2.578,1.923-4.126,2.298
			c-0.766,0.174-1.722,0.197-2.279-0.449c-0.257-0.3-0.391-0.683-0.478-1.063c-0.183-0.845-0.171-1.732-0.156-2.593l0.107-2.929
			c0.02-1.303,0.014-2.646-0.371-3.902c-0.297-0.967-0.84-1.845-1.504-2.603c-0.864-1.003-2.069-1.936-3.016-2.862
			c-0.59-0.577-1.131-1.241-1.628-1.9c-0.716-0.953-1.634-2.255-2.408-3.14c-0.68-0.797-1.444-1.559-2.23-2.253
			c-4.601-3.977-10.152-7.219-15.328-10.393c-1.524-0.902-3.131-1.756-4.77-2.43c-2.363-0.998-6.184-2.092-8.646-2.89
			c-4.411-1.432-8.862-3.101-12.696-5.758c-1.6,2.374-3.396,4.717-5.31,6.845c-2.17,2.374-4.542,4.952-6.062,7.796
			c-0.791,1.423-1.334,2.982-1.698,4.565c-0.253,1.073-0.602,2.828-0.931,3.833c-0.315,1.004-0.745,2.011-1.188,2.966
			c-2.032,4.245-4.536,9.081-6.137,13.477c-1.229,3.405-2.141,7.181-3.935,10.35c-0.717,1.314-1.558,2.574-2.52,3.722
			c-1.368,1.663-3.06,3.164-4.622,4.641c-0.912,0.879-1.612,1.916-2.02,3.12c-0.538,1.56-0.7,3.254-0.878,4.887
			c-0.211,2.12-0.444,5.619-0.874,7.685c-0.24,1.208-0.595,2.415-1.013,3.574c-0.351,0.957-0.962,2.525-1.241,3.486
			c-0.323,1.069-0.593,2.25-0.823,3.345c-0.777,3.715-1.83,9.992-2.919,13.549c-0.25,0.8-0.549,1.599-0.945,2.338
			c-1.075,2.019-2.999,3.593-4.347,5.416c-0.624,0.841-1.118,1.793-1.557,2.742c-0.806,1.756-1.677,3.716-2.658,5.375
			c-0.679,1.148-1.754,2.81-2.282,4.015c-0.335,0.74-0.573,1.539-0.765,2.327c-0.28,1.193-0.644,2.892-1.011,4.04
			c-0.366,1.181-0.819,2.393-1.301,3.532c-0.896,2.134-2.013,4.206-3.5,5.989c-0.762,0.937-1.842,2.079-2.355,3.172
			c-0.385,0.781-0.569,1.648-0.717,2.501c-0.228,1.357-0.5,3.38-0.862,4.679c-0.276,1.059-0.645,2.108-1.075,3.114
			c-1.696,3.903-4.374,7.508-5.879,11.501c-0.5,1.297-0.851,2.664-1.069,4.036c-0.319,1.865-0.377,4.271-0.469,6.172
			c-0.058,1.114-0.201,2.255-0.408,3.351c-0.267,1.351-0.655,3.096-0.743,4.457c-0.161,1.984-0.063,4.007,0.285,5.967
			c0.27,1.51,0.668,3.447,0.811,4.958c0.156,1.565,0.188,3.219,0.184,4.793c-0.006,2.296-0.225,6.426,0.052,8.66
			c0.178,1.686,0.828,3.733,1.277,5.377c0.407,1.526,0.75,3.101,0.822,4.683c0.149,2.604-0.472,6.19-0.775,8.796
			c-0.137,1.218-0.258,2.498-0.228,3.722c0.02,1.167,0.185,2.365,0.388,3.514c0.441,2.544,1.318,6.334,1.373,8.884
			c0.068,1.889-0.33,4.232-0.556,6.118c-0.152,1.283-0.249,2.596-0.105,3.882c0.317,2.751,1.291,5.645,1.295,8.429
			c0.01,1.179-0.136,2.368-0.378,3.522c-0.284,1.328-0.744,2.82-0.883,4.171c-0.184,1.535-0.055,3.106,0.116,4.637
			c0.353,3.155,1.03,6.657,0.856,9.835c-0.079,1.78-0.492,3.538-1.039,5.229l-1.083,3.267c-0.346,1.087-0.615,2.21-0.703,3.349
			c-0.127,1.554,0.088,3.38,0.156,4.942c0.027,0.658,0.039,1.338-0.006,1.995c-0.044,0.801-0.294,2.313-0.416,3.132
			c-0.169,1.214-0.256,2.472,0.013,3.678c0.132,0.592,0.367,1.163,0.709,1.664c0.545,0.805,1.3,1.444,2.078,2.016
			c1.558,1.131,3.453,2.17,4.924,3.416c0.856,0.705,1.597,1.567,2.066,2.577c0.484,1.018,0.736,2.134,0.878,3.247
			c0.197,1.604,0.212,3.249,0.143,4.862c-0.071,1.509-0.222,3.042-0.51,4.526c-0.194,0.965-0.445,1.94-0.891,2.822
			c-0.276,0.544-0.635,1.055-1.104,1.45c-0.437,0.373-0.966,0.627-1.513,0.794c-1.237,0.382-2.566,0.412-3.852,0.446
			c-5.038-0.016-21.25,0.138-26.076-0.088c-0.972-0.073-1.961-0.195-2.898-0.473c-1.648-0.478-3.09-1.491-4.318-2.667
			c-1.352-1.314-2.546-2.82-3.489-4.454c-1.279-2.191-1.967-4.795-3.253-6.981c-0.496-0.835-1.122-1.6-1.846-2.247
			c-0.943-0.848-2.361-1.722-3.408-2.431c-0.944-0.651-1.883-1.352-2.637-2.221c-0.6-0.694-1.071-1.496-1.433-2.337
			c-0.548-1.266-0.86-2.647-1.113-4c-0.21-1.083-0.38-2.334-0.82-3.347c-0.499-1.187-1.596-2.202-2.45-3.143
			c-1.42-1.538-2.639-3.323-3.261-5.337c-0.548-1.729-0.567-4.05-0.709-5.854c-0.131-1.624-0.338-3.325-0.644-4.923
			c-0.161-0.817-0.348-1.655-0.643-2.435c-0.163-0.431-0.37-0.855-0.616-1.245c-0.291-0.479-0.8-1.086-1.147-1.532
			c-0.467-0.602-0.879-1.258-1.151-1.972c-0.272-0.697-0.407-1.444-0.478-2.186c-0.127-1.341-0.084-2.79-0.045-4.139
			c0.115-4.028,0.492-8.833-0.008-12.815c-0.126-0.887-0.335-1.781-0.653-2.62c-0.343-0.944-1.018-2.133-1.48-3.028
			c-0.826-1.638-1.559-3.368-1.849-5.19c-0.184-1.179-0.147-2.391,0.04-3.567c0.354-2.339,1.483-5.07,2.199-7.329
			c0.481-1.509,0.845-3.083,1.06-4.652c0.233-1.688,0.294-3.42,0.098-5.115c-0.204-1.792-0.717-3.76-0.736-5.568
			c-0.029-1.047,0.074-2.111,0.228-3.146c0.324-2.338,1.611-7.507,2.122-9.866c0.727-3.331,1.302-6.765,1.224-10.185
			c-0.012-1.705-0.367-3.503-0.691-5.173c-0.405-2.225-0.445-4.567,0.274-6.733c-3.559-0.893-7.189-1.94-10.559-3.399l-2.335-1.069
			c-1.647-0.779-3.446-1.094-5.21-1.488c-3.033-0.643-6.033-2.344-8.855-3.584c-2.947-1.273-6.494-2.506-9.086-4.423l-2.583-1.859
			c-0.927-0.644-1.906-1.26-2.944-1.71c-0.846-0.369-1.756-0.625-2.653-0.84c-1.615-0.386-3.556-0.689-5.058-1.391
			c-0.882-0.412-1.66-1.029-2.389-1.667c-0.921-0.809-1.903-1.729-2.988-2.308c-1.527-0.828-3.559-1.331-5.215-1.862
			c-1.196-0.381-2.397-0.83-3.5-1.432c-1.934-1.026-4.161-2.783-5.97-4.034c-0.692-0.476-1.441-0.958-2.177-1.36
			c-1.124-0.627-2.952-1.449-4.086-2.064c-0.657-0.356-1.312-0.754-1.901-1.214c-0.547-0.425-1.063-0.925-1.546-1.42
			c-1.073-1.105-2.195-2.428-3.51-3.239c-1.341-0.833-2.984-1.321-4.414-1.977c-0.634-0.289-1.262-0.62-1.837-1.013
			c-0.655-0.447-1.267-0.986-1.842-1.532c-1.586-1.526-3.298-3.471-5.14-4.684c-3.249-2.192-7.763-2.665-11.517-3.494
			c-0.987-0.216-2.007-0.472-2.963-0.8c-1.237-0.415-2.74-1.102-3.946-1.632c-1.484-0.652-3.03-1.232-4.635-1.493
			c-3.226-0.527-7.335-0.105-10.608,0.007c-1.595,0.055-3.241,0.07-4.824-0.147c-1.479-0.194-2.948-0.583-4.364-1.047
			L280.686,402.378z"/>
	</g>
</g>
</svg>
