<?xml version="1.0" encoding="utf-8"?>
<!-- Generator: Adobe Illustrator 25.4.1, SVG Export Plug-In . SVG Version: 6.00 Build 0)  -->
<!DOCTYPE svg PUBLIC "-//W3C//DTD SVG 1.1//EN" "http://www.w3.org/Graphics/SVG/1.1/DTD/svg11.dtd" [
	<!ENTITY ns_extend "http://ns.adobe.com/Extensibility/1.0/">
	<!ENTITY ns_ai "http://ns.adobe.com/AdobeIllustrator/10.0/">
	<!ENTITY ns_graphs "http://ns.adobe.com/Graphs/1.0/">
	<!ENTITY ns_vars "http://ns.adobe.com/Variables/1.0/">
	<!ENTITY ns_imrep "http://ns.adobe.com/ImageReplacement/1.0/">
	<!ENTITY ns_sfw "http://ns.adobe.com/SaveForWeb/1.0/">
	<!ENTITY ns_custom "http://ns.adobe.com/GenericCustomNamespace/1.0/">
	<!ENTITY ns_adobe_xpath "http://ns.adobe.com/XPath/1.0/">
]>
<svg version="1.1" xmlns:x="&ns_extend;" xmlns:i="&ns_ai;" xmlns:graph="&ns_graphs;"
	 xmlns="http://www.w3.org/2000/svg" xmlns:xlink="http://www.w3.org/1999/xlink" x="0px" y="0px" width="750px" height="750px"
	 viewBox="0 0 750 750" enable-background="new 0 0 750 750" xml:space="preserve">
<metadata>
	<sfw  xmlns="&ns_sfw;">
		<slices></slices>
		<sliceSourceBounds  bottomLeftOrigin="true" height="10157.811" width="5847" x="-2000" y="-1314"></sliceSourceBounds>
	</sfw>
</metadata>
<g id="FILL-BACKGROUND">
	<rect fill="#FFFFFF" width="750" height="750"/>
</g>
<g id="N-DIMENSIONS">
</g>
<g id="N-TEXT">
</g>
<g id="_x32_D_x24_AG-DIAGRAM">
	<g id="POLYLINE_00000099651476331358719170000008701788053920049339_">
		<g>
			<g>
				
					<line fill="none" stroke="#FB8604" stroke-width="3.25" stroke-linecap="round" stroke-linejoin="round" x1="144.961" y1="596.36" x2="146.961" y2="596.36"/>
				
					<line fill="none" stroke="#FB8604" stroke-width="3.25" stroke-linecap="round" stroke-linejoin="round" stroke-dasharray="3.9849,6.9736" x1="153.935" y1="596.36" x2="577.832" y2="596.36"/>
				
					<line fill="none" stroke="#FB8604" stroke-width="3.25" stroke-linecap="round" stroke-linejoin="round" x1="581.319" y1="596.36" x2="583.319" y2="596.36"/>
			</g>
		</g>
	</g>
</g>
<g id="_x32_D_x24_AG-DETAILS-DIAGRAM">
</g>
<g id="_x32_D_x24_AG-DETAILS">
</g>
<g id="_x32_D_x24_AG-ANIMALS">
	<g id="POLYLINE_00000178199440696238439440000014720786928944286114_">
		
			<path fill="none" stroke="#FB8604" stroke-width="2.75" stroke-linecap="round" stroke-linejoin="round" stroke-miterlimit="10" d="
			M478.951,366.232c3.034,7.723,7.923,15.737,11.928,23.009c1.278,2.17,2.562,4.443,4.249,6.325
			c0.512,0.536,1.087,1.106,1.817,1.315l0.028,0.007l0.028,0.006l0.027,0.006l0.027,0.005l0.027,0.005l0.027,0.004l0.027,0.004
			l0.027,0.003l0.027,0.002l0.027,0.002l0.027,0.001c0.712,0.022,1.265-0.533,1.815-0.908c0.165-0.11,0.343-0.222,0.544-0.249
			l0.011-0.001l0.011-0.001l0.011-0.001l0.011-0.001l0.011,0l0.011,0l0.011,0l0.01,0l0.01,0l0.01,0l0.01,0.001l0.01,0.001
			l0.01,0.001l0.01,0.001l0.01,0.001l0.01,0.002c0.173,0.029,0.323,0.13,0.451,0.244c0.29,0.265,0.517,0.603,0.74,0.924
			c0.74,1.117,1.538,2.318,2.421,3.322c1.532,1.753,3.314,3.332,5.131,4.783c1.994,1.55,4.089,3.07,6.397,4.116
			c0.571,0.239,1.172,0.478,1.799,0.488l0.03,0l0.03-0.001l0.029-0.002l0.029-0.002l0.028-0.003l0.028-0.003l0.027-0.004
			c0.424-0.054,0.7-0.375,0.974-0.669c0.224-0.242,0.507-0.443,0.841-0.486l0.035-0.005l0.035-0.004l0.036-0.003l0.037-0.003
			l0.038-0.002l0.038-0.001l0.039,0l0.04,0c0.695,0.026,1.366,0.266,2.013,0.505c4.415,1.771,11.528,6.405,15.723,8.796
			c2.266,1.314,4.652,2.578,7.113,3.48l3.107,1.113c3.479,1.234,6.982,3.568,10.567,4.47c0.656,0.145,1.349,0.223,2.009,0.063
			c0.53-0.124,1.018-0.433,1.328-0.884c0.562-0.819,0.593-1.867,0.568-2.827c-0.051-1.36-0.339-2.863-0.58-4.207
			c-0.54-3.184-1.584-7.645-2.03-10.831c-0.123-1.098-0.208-2.227-0.068-3.328c0.084-0.559,0.225-1.25,0.736-1.569
			c0.447-0.273,1.013-0.229,1.517-0.258c0.339-0.017,0.701-0.055,0.985-0.257c0.415-0.297,0.609-0.8,0.739-1.276
			c0.199-0.77,0.248-1.583,0.28-2.376c0.119-4.701-0.705-16.895-0.91-21.758c-0.035-1.084-0.084-2.213,0.06-3.291
			c0.055-0.368,0.134-0.743,0.302-1.078c0.084-0.166,0.195-0.321,0.337-0.441c0.228-0.201,0.542-0.322,0.805-0.46
			c0.285-0.144,0.556-0.323,0.774-0.557c0.259-0.273,0.448-0.607,0.609-0.945c0.61-1.343,0.889-2.824,1.13-4.271
			c0.731-4.969,0.748-10.089-0.231-15.025c-0.652-3.307-1.659-7.207-1.58-10.574c0.025-2.512,0.442-5.039,0.987-7.487
			c0.866-3.842,2.136-7.766,3.437-11.488"/>
	</g>
	<g id="POLYLINE_00000053542094770050554690000009738084615190149047_">
		
			<path fill="none" stroke="#FB8604" stroke-width="2.75" stroke-linecap="round" stroke-linejoin="round" stroke-miterlimit="10" d="
			M533.082,468.77c0.391-0.394,2.391-2.622,2.806-3.077c0.72-0.775,1.504-1.551,2.306-2.24c2.104-1.762,4.423-3.629,6.013-5.877
			c3.21-4.394,4.283-10.301,6.293-15.269c0.303-0.686,0.622-1.461,1.169-1.987l0.021-0.019l0.021-0.018l0.021-0.017l0.021-0.017
			l0.021-0.016l0.021-0.015l0.021-0.014l0.021-0.014l0.021-0.013l0.021-0.012l0.021-0.012l0.021-0.011
			c0.242-0.125,0.525-0.102,0.782-0.044c0.307,0.064,0.665,0.189,0.964,0.037l0.014-0.007l0.014-0.008l0.014-0.008l0.014-0.008
			l0.014-0.009l0.014-0.009l0.014-0.009l0.014-0.01l0.014-0.01l0.014-0.011l0.014-0.011c0.442-0.386,0.687-1.072,0.891-1.613
			c0.661-1.906,1.178-4.46,1.768-6.393c0.485-1.682,1.293-3.445,1.959-5.066"/>
	</g>
	<g id="POLYLINE_00000008114459007891908690000000358737768702107015_">
		
			<path fill="none" stroke="#FB8604" stroke-width="2.75" stroke-linecap="round" stroke-linejoin="round" stroke-miterlimit="10" d="
			M254.98,463.04c1.067,1.568,2.445,2.923,3.969,4.046c1.213,0.874,2.553,1.646,4.026,1.969c0.602,0.128,1.233,0.16,1.837,0.025
			c0.718-0.154,1.378-0.507,1.996-0.893l1.191-0.767c0.617-0.384,1.267-0.741,1.982-0.899c0.723-0.161,1.477-0.119,2.2,0.021
			c1.007,0.196,1.982,0.572,2.914,0.994c2.724,1.213,8.441,4.89,11.111,6.468c2.47,1.435,5.009,2.928,7.676,3.96
			c0.773,0.284,1.573,0.547,2.399,0.601c0.307,0.018,0.618-0.01,0.915-0.092c0.472-0.128,0.961-0.405,1.425-0.561
			c0.525-0.182,1.089-0.21,1.635-0.131c0.778,0.108,1.551,0.352,2.291,0.612c1.46,0.525,2.964,1.219,4.363,1.896
			c4.758,2.33,10.656,5.754,15.385,8.181c1.272,0.637,2.625,1.292,3.946,1.807c1.457,0.572,2.982,1.02,4.538,1.207
			c2.965,0.387,6.726-0.247,9.708-0.53c2.324-0.225,4.708-0.365,7.029-0.06c2.374,0.303,4.692,1.029,6.91,1.911
			c4.06,1.633,8.606,4.036,12.608,5.814c2.719,1.174,5.525,2.421,8.479,2.829c0.852,0.095,1.754,0.113,2.558-0.226
			c0.929-0.377,1.567-1.243,2.241-1.943c0.333-0.343,0.729-0.653,1.206-0.756c0.996-0.214,2.088,0.169,3.033,0.463
			c5.695,2.091,11.722,3.757,17.696,4.804c1.741,0.298,3.583,0.564,5.347,0.666c0.963,0.049,1.96,0.07,2.917-0.071
			c0.644-0.091,1.273-0.31,1.827-0.653c0,0,0.093-0.057,0.093-0.057s0.091-0.057,0.091-0.057s0.434-0.28,0.434-0.28
			s0.086-0.053,0.086-0.053c0.148-0.097,0.328-0.187,0.49-0.261c0.243-0.107,0.502-0.177,0.765-0.209
			c0.923-0.098,1.852,0.09,2.752,0.278c3.837,0.885,8.047,2.593,11.99,2.967c2.395,0.271,4.888,0.172,7.291,0.067
			c5.234-0.259,10.822-0.59,15.968-1.616"/>
	</g>
	<g id="POLYLINE_00000011722652006147781960000015989514604341514897_">
		
			<path fill="none" stroke="#FB8604" stroke-width="2.75" stroke-linecap="round" stroke-linejoin="round" stroke-miterlimit="10" d="
			M632.514,262.619c-1.621-0.353-4.196-0.798-5.805-1.168c-3.705-0.857-9.703-2.366-13.387-2.982
			c-3.593-0.627-8.163-1.076-11.535-2.433c-1.709-0.671-3.305-1.682-4.511-3.079c-2.438-2.792-3.743-6.531-5.573-9.71
			c-1.534-2.76-3.781-5.055-6.163-7.098c-5.661-4.516-11.115-10.49-17.795-13.493c-4.005-1.808-8.371-2.764-12.721-3.271
			c-6.629-0.745-13.401-0.486-20.015,0.304c-2.734,0.349-5.575,0.788-8.242,1.486c-1.712,0.437-3.468,1.126-5.111,1.778"/>
	</g>
	<g id="POLYLINE_00000069373588355051285090000015885088923401479304_">
		
			<path fill="none" stroke="#FB8604" stroke-width="2.75" stroke-linecap="round" stroke-linejoin="round" stroke-miterlimit="10" d="
			M528.466,304.388c-0.395,1.847-0.617,3.763-0.66,5.651c-0.02,1.235,0.03,2.492,0.294,3.702c0.206,0.877,0.522,1.851,1.292,2.391
			l0.027,0.018l0.027,0.017l0.027,0.017l0.027,0.016l0.028,0.016l0.028,0.015l0.028,0.014l0.028,0.014l0.029,0.013l0.029,0.013
			l0.028,0.012l0.028,0.011l0.029,0.011l0.029,0.01c0.369,0.13,0.77,0.135,1.155,0.09c1.544-0.221,3.127-1.047,4.575-1.609
			c1.514-0.587,3.232-1.243,4.871-0.867c0.583,0.14,1.117,0.443,1.582,0.816c1.64,1.339,2.793,3.613,3.922,5.378
			c0.452,0.707,0.924,1.428,1.513,2.029c0.329,0.329,0.707,0.632,1.156,0.776l0.031,0.01l0.031,0.009
			c0.423,0.12,0.876,0.064,1.288-0.074c0.802-0.274,1.504-0.784,2.178-1.285l1.697-1.317c0.743-0.548,1.523-1.119,2.432-1.345
			c1.671-0.387,3.227,0.847,4.614,1.598c0.9,0.509,1.857,0.95,2.875,1.156c1.695,0.351,3.457,0.234,5.159-0.009
			c2.037-0.299,4.132-0.835,6.12-1.378c8.46-2.559,22.068-5.774,29.945-9.555c2.25-1.07,4.451-2.321,6.434-3.833
			c2.25-1.709,4.256-3.781,6.115-5.903c2.399-2.711,5.023-6.275,7.996-8.344c2.115-1.502,4.822-2.702,6.852-4.324
			c2.802-2.224,4.648-5.437,5.958-8.718"/>
	</g>
	<g id="POLYLINE_00000023259621225139353790000008284115646580770231_">
		
			<path fill="none" stroke="#FB8604" stroke-width="2.75" stroke-linecap="round" stroke-linejoin="round" stroke-miterlimit="10" d="
			M638.282,279.629c-1.179,0.86-2.762,0.827-4.106,0.415c-2.444-0.769-4.625-2.52-5.84-4.782c-0.657-1.228-1.014-2.614-1.058-4.005
			c-0.043-1.303,0.18-2.609,0.563-3.851c0.443-1.379,1.058-2.788,2.051-3.862c0.298-0.311,0.656-0.574,1.064-0.722
			c0.464-0.172,0.968-0.201,1.458-0.202c1.886,0.027,3.808,0.311,5.553,1.052c0.787,0.344,1.524,0.841,2.055,1.524
			c0.606,0.768,0.935,1.718,1.115,2.671c0.237,1.284,0.26,2.608,0.177,3.908c-0.103,1.493-0.358,2.992-0.834,4.413
			C640.031,277.475,639.404,278.799,638.282,279.629z"/>
	</g>
	<g id="POLYLINE_00000074414078110640395390000007698960522089008291_">
		
			<path fill="none" stroke="#FB8604" stroke-width="2.75" stroke-linecap="round" stroke-linejoin="round" stroke-miterlimit="10" d="
			M542.908,219.032c2.602-3.818,5.183-7.862,7.008-12.109c2.264-5.029,4.339-11.529,6.871-16.418
			c0.456-0.816,0.954-1.645,1.668-2.263c0.441-0.382,1.006-0.642,1.597-0.632c0.593,0.003,1.17,0.236,1.637,0.594
			c0.749,0.568,1.218,1.428,1.491,2.314c0.494,1.631,0.582,3.373,0.664,5.067c0.127,3.973,0.057,8.973,0.85,12.842
			c1.043,5.524,3.446,10.739,5.943,15.74"/>
	</g>
	<g id="POLYLINE_00000023983389285276000450000017725679601673799308_">
		
			<path fill="none" stroke="#FB8604" stroke-width="2.75" stroke-linecap="round" stroke-linejoin="round" stroke-miterlimit="10" d="
			M523.66,250.224c0.892-5.739,0.91-11.633,0.103-17.384c-0.812-5.978-2.534-11.882-4.646-17.523
			c-2.641-6.959-5.746-13.868-9.416-20.346c-1.156-1.952-2.428-3.897-4.091-5.459c-1.197-1.128-2.675-2.014-4.317-2.272
			c-1.668-0.28-3.589,0.053-4.744,1.377c-0.702,0.803-0.984,1.877-1.113,2.914c-0.353,3.15,0.417,7.395,0.691,10.564
			c0.356,3.353,0.372,6.788,0.038,10.142c-0.562,6.28-2.493,14.313-3.136,20.588c-0.479,4.147-0.697,10.522-1.895,14.472
			c-0.324,1.068-0.767,2.119-1.284,3.107c-0.886,1.771-5.061,7.933-6.177,9.71c-2.487,3.792-5.308,7.442-8.732,10.439l-4.393,3.845
			c-0.843,0.766-1.697,1.571-2.423,2.45c-0.425,0.52-0.821,1.079-1.087,1.698c-0.537,1.212-0.443,2.646-0.615,3.935
			c-0.128,1.064-0.479,2.092-0.961,3.046c-0.699,1.402-1.607,2.722-2.542,3.977c-3.744,5.004-9.314,10.279-13.65,14.815
			c-1.278,1.383-2.584,2.83-3.534,4.464c-0.339,0.595-0.633,1.231-0.791,1.9c-0.128,0.54-0.155,1.104-0.145,1.657l0.035,1.122
			c0.021,0.782-0.05,1.586-0.369,2.308c-0.28,0.645-0.709,1.217-1.173,1.74c-0.787,0.878-1.71,1.647-2.651,2.355
			c-3.119,2.308-6.645,4.166-10.122,5.875c-3.398,1.641-6.953,3.198-10.554,4.332c-3.009,0.951-6.151,1.625-9.296,1.904
			c-3.458,0.314-7.029,0.134-10.485-0.147l-11.884-1.141c-13.063-1.207-28.182,0.383-41.303,0.23
			c-11.169-0.087-22.422-2.03-33.328-4.325"/>
	</g>
	<g id="POLYLINE_00000072258334737568285070000003093824813769372041_">
		
			<path fill="none" stroke="#FB8604" stroke-width="2.75" stroke-linecap="round" stroke-linejoin="round" stroke-miterlimit="10" d="
			M440.161,444.2c-0.474,8.039-1.44,16.294-2.979,24.197c-0.476,2.671-1.839,8.074-1.934,10.723c0.002,0.462,0.013,1.06,0.335,1.421
			l0.009,0.01l0.009,0.01l0.01,0.009l0.01,0.009l0.01,0.009l0.01,0.009l0.01,0.009l0.01,0.008l0.01,0.008l0.01,0.008l0.011,0.008
			l0.011,0.008l0.011,0.007l0.011,0.007c0.389,0.238,0.908,0.133,1.334,0.071c1.275-0.208,2.887-0.564,4.166-0.615
			c0.567-0.028,1.146-0.027,1.704,0.089c0.429,0.089,0.855,0.275,1.142,0.616c0.306,0.356,0.438,0.826,0.488,1.284
			c0.107,1.148-0.143,2.31-0.374,3.43c-0.521,2.478-1.674,6.036-2.141,8.525c-0.042,0.284-0.08,0.577-0.038,0.862
			c0.024,0.155,0.083,0.312,0.202,0.42c0.136,0.125,0.32,0.177,0.498,0.208c0.277,0.046,0.57,0.045,0.851,0.047
			c1.603-0.008,3.347-0.115,4.934,0.134c0.602,0.1,1.216,0.26,1.718,0.621c0.484,0.341,0.808,0.862,1.02,1.406
			c0.437,1.147,0.577,2.409,0.737,3.619c0.324,2.634,0.59,6.676,1.163,9.185c0.156,0.668,0.359,1.333,0.658,1.952
			c0.738,1.597,2.448,3.018,3.671,4.264c2.47,2.424,4.809,5.073,6.835,7.88c4.249,5.944,7.751,12.914,11.116,19.405
			c2.612,5.273,15.129,30.565,17.577,35.237c0.485,0.993,0.965,2.089,1.361,3.122c1.142,2.961,1.981,6.605,3.416,9.442
			c0.687,1.373,1.615,2.711,3.004,3.442c1.042,0.565,2.23,0.796,3.4,0.915c0.581,0.337,33.873,0.04,35.475,0.14
			c0.961-0.015,2.168,0.018,3.124-0.116c0.82-0.105,1.669-0.341,2.279-0.927c0.772-0.741,1.039-1.833,1.198-2.856
			c0.282-2.028,0.153-4.109-0.136-6.13c-0.282-1.827-0.716-3.672-1.592-5.314c-0.481-0.899-1.112-1.725-1.878-2.4
			c-0.804-0.714-1.749-1.26-2.733-1.687c-4.108-1.688-9.058-2.289-13.318-3.682c-3.258-1.029-6.515-2.472-8.924-4.963
			c-2.029-2.06-3.51-4.614-4.593-7.282c-0.968-2.415-1.679-4.964-1.924-7.559c-0.265-2.794-0.012-5.639,0.358-8.413
			c1.675-11.132,4.715-22.989,7.84-33.83c2.164-7.601,3.488-17.988,4.992-25.765c0.301-1.507,0.67-3.166,1.134-4.636
			c0.646-2.084,1.55-4.102,2.7-5.956c1.37-2.218,3.073-4.234,4.913-6.075"/>
	</g>
	<g id="POLYLINE_00000166676227512125910500000014603409652098723747_">
		
			<path fill="none" stroke="#FB8604" stroke-width="2.75" stroke-linecap="round" stroke-linejoin="round" stroke-miterlimit="10" d="
			M229.102,326.326c1.566-2.569,3.474-4.981,5.853-6.843c2.217-1.753,4.811-3.001,7.515-3.802c4.84-1.419,10.491-1.591,14.831,1.308
			c2.097,1.39,3.835,3.559,4.137,6.115c0.165,1.37-0.081,2.762-0.532,4.057c-0.733,2.081-1.962,3.966-3.399,5.628
			c-1.268,1.459-2.734,2.76-4.348,3.825c-1.742,1.156-3.668,2.049-5.634,2.751c-1.837,0.658-3.82,1.185-5.716,1.648
			c-4.898,1.189-10.156,2.146-15.15,2.83c-2.478,0.34-6.758,0.749-9.164,1.341c-0.989,0.257-2.017,0.558-2.824,1.211
			c-0.418,0.341-0.729,0.836-0.751,1.384l-0.002,0.046l-0.001,0.047l0,0.047l0.001,0.048l0.002,0.048l0.003,0.049l0.004,0.049
			l0.006,0.05l0.007,0.05l0.008,0.05l0.009,0.051l0.01,0.051l0.011,0.052c0.286,1.173,1.058,2.169,1.821,3.077
			c2.144,2.434,4.786,4.407,7.498,6.164c4.1,2.576,8.572,4.783,13.372,5.639c1.69,0.292,3.434,0.414,5.149,0.408
			c0.805,0.023,2.556-0.122,3.262-0.071l0.01,0.002l0.009,0.002l0.009,0.002l0.008,0.002l0.008,0.002l0.007,0.002l0.007,0.002
			l0.006,0.003l0.006,0.003l0.005,0.003l0.005,0.003l0.005,0.003l0.004,0.003l0.004,0.003l0.003,0.003l0.003,0.003l0.002,0.004
			l0.002,0.004l0.001,0.004l0.001,0.004l0,0.004l0,0.004l-0.001,0.004l-0.001,0.004l-0.002,0.005l-0.002,0.005l-0.003,0.005
			l-0.003,0.005l-0.004,0.005l-0.004,0.005l-0.005,0.005l-0.005,0.006l-0.006,0.006l-0.006,0.006l-0.007,0.006l-0.007,0.006
			l-0.008,0.006c-0.311,0.223-1.205,0.63-1.552,0.816c-0.544,0.289-1.11,0.585-1.572,0.996c-0.127,0.119-0.251,0.251-0.321,0.413
			l-0.004,0.01l-0.004,0.01l-0.004,0.01l-0.004,0.01l-0.003,0.01l-0.003,0.01l-0.003,0.01l-0.003,0.01l-0.002,0.01l-0.004,0.018
			l-0.003,0.018l-0.002,0.018l-0.001,0.018l-0.001,0.018l0,0.018l0.001,0.018l0.001,0.017l0.002,0.017l0.003,0.017l0.004,0.017
			l0.004,0.017l0.005,0.017l0.006,0.017l0.006,0.017l0.007,0.017l0.008,0.017l0.008,0.017l0.009,0.017l0.01,0.017l0.01,0.017
			l0.011,0.017l0.012,0.017l0.012,0.017l0.013,0.017l0.014,0.016l0.014,0.016l0.015,0.016l0.015,0.016l0.016,0.016l0.017,0.016
			l0.017,0.016l0.018,0.016c0.244,0.211,0.544,0.35,0.839,0.475c0.696,0.285,1.455,0.479,2.187,0.655
			c2.434,0.565,10.917,1.955,13.491,2.397c0.851,0.122,1.725,0.201,2.585,0.168c1.364-0.044,2.708-0.401,3.958-0.939
			c2.964-1.247,5.966-3.46,8.924-4.723c0.382-0.143,0.781-0.283,1.194-0.279l0.022,0.001l0.022,0.001l0.021,0.002l0.021,0.002
			l0.021,0.002l0.02,0.003l0.02,0.003l0.02,0.004l0.019,0.004l0.019,0.004l0.019,0.005l0.018,0.005
			c0.386,0.112,0.557,0.537,0.741,0.856c0.14,0.25,0.317,0.497,0.579,0.63l0.021,0.01l0.021,0.01l0.021,0.01l0.022,0.009
			l0.022,0.009l0.023,0.009l0.023,0.008l0.023,0.008l0.024,0.008c0.577,0.159,1.19,0.052,1.767-0.062
			c0.949-0.205,1.896-0.544,2.802-0.892c2.977-1.166,6.488-2.97,9.376-4.371c1.608-0.806,3.243-1.665,4.642-2.806
			c1.104-0.893,2.054-1.98,2.817-3.176c2.45-3.912,3.562-8.945,5.387-13.15c0.224-0.471,0.449-0.969,0.812-1.351l0.017-0.017
			l0.017-0.016l0.017-0.015l0.017-0.015l0.017-0.014l0.017-0.013l0.017-0.013l0.017-0.012l0.017-0.011l0.017-0.011l0.017-0.01
			l0.017-0.009l0.017-0.009l0.017-0.008l0.017-0.007c0.196-0.088,0.412-0.009,0.592,0.081c0.225,0.111,0.469,0.256,0.728,0.249
			l0.015,0l0.015-0.001l0.015-0.001l0.015-0.001l0.015-0.002l0.015-0.002l0.015-0.002l0.015-0.003l0.015-0.003l0.015-0.003
			c0.262-0.059,0.491-0.216,0.696-0.384c0.506-0.429,0.911-0.97,1.292-1.509c1.266-1.851,2.291-3.928,3.257-5.949
			c1.128-2.406,2.119-4.922,2.668-7.529c0.46-2.162,0.604-4.407,0.348-6.606c-0.311-2.711-1.236-5.344-2.215-7.878
			c-0.894-2.37-2.564-5.841-3.003-8.292c-0.136-0.799-0.037-1.535,0.306-2.269c0.166-0.397,0.404-0.803,0.476-1.229
			c0.064-0.337,0.05-0.685-0.005-1.022c-0.136-0.797-0.464-1.554-0.8-2.285c-0.731-1.536-1.583-3.061-2.485-4.503
			c-2.625-4.133-5.96-8.073-10.423-10.267c-1.964-0.949-4.109-1.512-6.234-1.966c-1.403-0.305-4.169-0.776-5.504-1.263
			c-0.559-0.208-1.141-0.458-1.531-0.926l-0.018-0.022l-0.017-0.022l-0.017-0.023l-0.016-0.023l-0.016-0.023
			c-0.168-0.25-0.245-0.549-0.27-0.846c-0.071-0.929,0.244-1.903,0.07-2.829c-0.109-0.651-0.559-1.182-1.087-1.552
			c-1.326-0.908-2.998-1.241-4.563-1.475c-4.484-0.588-9.06-0.053-13.464,0.861l-8.009,1.785c-1.558,0.317-3.168,0.625-4.759,0.69
			c-0.792,0.026-1.604-0.003-2.368-0.234c-0.411-0.124-0.801-0.326-1.131-0.603c-0.434-0.359-0.768-0.826-1.068-1.299l-0.532-0.861
			c-0.342-0.54-0.735-1.08-1.289-1.419c-0.893-0.536-1.992-0.535-2.995-0.408c-1.71,0.241-3.346,0.884-4.898,1.621
			c-3.077,1.476-5.895,3.524-8.526,5.685c-1.856,1.528-5.201,4.445-7.107,5.814c-0.615,0.44-1.262,0.873-1.937,1.216
			c-0.529,0.262-1.098,0.5-1.697,0.515l-0.036,0l-0.035,0l-0.035-0.001l-0.035-0.002l-0.034-0.002L217.081,283l-0.034-0.004
			l-0.034-0.004l-0.033-0.005l-0.033-0.006l-0.033-0.006l-0.032-0.007l-0.032-0.008l-0.032-0.008l-0.031-0.009l-0.031-0.01
			l-0.031-0.01c-0.643-0.236-1.029-0.856-1.373-1.413c-0.344-0.567-0.67-1.229-1.134-1.707c-0.142-0.143-0.303-0.271-0.486-0.357
			l-0.023-0.01l-0.023-0.01l-0.023-0.01l-0.023-0.009l-0.023-0.009l-0.024-0.008l-0.024-0.008l-0.024-0.007l-0.024-0.007
			l-0.024-0.007l-0.024-0.006c-0.62-0.144-1.253,0.096-1.798,0.379c-1.468,0.812-2.65,2.06-3.749,3.307
			c-1.945,2.254-3.566,4.824-5.014,7.42c-1.028,1.826-3.243,6.136-4.448,7.79c-0.432,0.581-0.904,1.215-1.561,1.549l-0.026,0.012
			l-0.026,0.011l-0.025,0.011l-0.025,0.01l-0.025,0.009l-0.025,0.009l-0.025,0.008l-0.025,0.008l-0.025,0.007l-0.025,0.006
			l-0.025,0.006l-0.025,0.005l-0.025,0.005l-0.025,0.004l-0.025,0.003l-0.025,0.003l-0.025,0.002l-0.025,0.001l-0.025,0.001
			c-0.663-0.003-1.208-0.626-1.753-0.942c-0.217-0.129-0.465-0.238-0.722-0.214l-0.02,0.002l-0.02,0.003l-0.02,0.003l-0.02,0.004
			l-0.02,0.004l-0.02,0.005l-0.02,0.005l-0.02,0.006l-0.02,0.006l-0.02,0.007l-0.02,0.007l-0.02,0.008l-0.02,0.008l-0.02,0.009
			l-0.02,0.009l-0.021,0.01l-0.021,0.01l-0.021,0.011l-0.021,0.011c-0.526,0.318-0.87,0.864-1.182,1.378
			c-0.634,1.098-1.1,2.312-1.522,3.505c-0.768,2.221-1.385,4.589-1.879,6.887c-0.533,2.398-0.941,5.63-1.928,7.852
			c-0.27,0.584-0.615,1.142-1.07,1.601c-0.866,0.877-2.091,1.467-3.014,2.276c-0.524,0.451-0.98,0.987-1.31,1.596
			c-0.375,0.689-0.622,1.448-0.817,2.206c-0.683,2.729-0.828,6.123-1.183,8.922c-0.141,1.049-0.317,2.116-0.699,3.108
			c-0.283,0.746-0.7,1.44-1.202,2.059c-0.79,0.983-1.868,1.945-2.79,2.813c-4.607,4.182-10.652,9.687-14.832,14.219
			c-6.745,7.135-12.675,15.115-17.681,23.558c-3.347,5.698-6.62,11.601-8.884,17.825c-0.385,1.174-0.815,2.417-0.83,3.661
			l0.002,0.053l0.003,0.051l0.003,0.05l0.004,0.049l0.005,0.047l0.006,0.046l0.007,0.044l0.008,0.043l0.009,0.042l0.01,0.04
			l0.011,0.039l0.012,0.037l0.013,0.036l0.014,0.034l0.015,0.033l0.016,0.031l0.017,0.03l0.018,0.029l0.019,0.027l0.02,0.025
			l0.021,0.024l0.022,0.022l0.023,0.021l0.024,0.019l0.025,0.018l0.026,0.016l0.027,0.015c0.293,0.139,0.66,0.039,0.959-0.037
			c0.508-0.135,1.032-0.372,1.56-0.412c0.112-0.005,0.228,0.002,0.333,0.041l0.022,0.009l0.021,0.01l0.02,0.01l0.02,0.011
			l0.019,0.012l0.019,0.013l0.018,0.014l0.018,0.015l0.017,0.015l0.017,0.016l0.016,0.017l0.016,0.018l0.015,0.019l0.014,0.02
			l0.014,0.02l0.013,0.021l0.013,0.022l0.012,0.023l0.012,0.024l0.011,0.024l0.011,0.025l0.01,0.026l0.01,0.027l0.009,0.027
			l0.009,0.028l0.008,0.029l0.008,0.03l0.007,0.031l0.007,0.031l0.006,0.032l0.006,0.033c0.057,0.349,0.036,0.709,0.002,1.059
			c-0.145,1.279-0.505,2.578-0.838,3.82l-2.857,9.788c-1.927,6.99-3.295,14.281-3.014,21.557c0.077,1.334,0.214,2.692,0.592,3.978
			c0.189,0.612,0.431,1.234,0.861,1.719l0.027,0.029l0.027,0.028l0.027,0.028l0.028,0.027l0.028,0.026l0.028,0.025l0.028,0.024
			l0.029,0.024l0.029,0.023l0.029,0.022l0.029,0.021l0.03,0.02l0.03,0.02l0.03,0.019l0.03,0.018l0.031,0.017l0.031,0.016
			l0.031,0.015l0.031,0.015c0.807,0.34,1.711-0.054,2.536-0.132c0.312-0.032,0.648-0.026,0.928,0.132l0.02,0.011l0.02,0.012
			l0.019,0.012l0.019,0.013l0.019,0.013l0.019,0.014l0.019,0.014l0.018,0.015l0.018,0.015l0.018,0.016l0.018,0.016l0.018,0.017
			l0.017,0.017l0.017,0.018l0.017,0.018l0.017,0.019c0.27,0.308,0.42,0.701,0.538,1.088c0.607,2.256,0.559,5.756,0.735,8.122
			c0.105,1.707,0.281,3.471,0.623,5.146c0.4,2.011,1.021,4.03,1.704,5.962c0.906,2.498,2.391,6.376,3.108,8.881
			c0.733,2.398,1.611,6.179,2.704,8.402c0.301,0.576,0.65,1.198,1.226,1.537l0.022,0.012l0.022,0.011l0.022,0.011l0.022,0.01
			l0.022,0.01l0.022,0.009l0.022,0.009l0.022,0.009l0.022,0.008l0.022,0.008l0.022,0.007l0.022,0.007l0.023,0.006l0.023,0.006
			l0.023,0.005c0.677,0.132,1.385-0.332,1.98-0.603c0.468-0.218,0.993-0.461,1.518-0.328l0.026,0.007l0.026,0.008l0.026,0.009
			l0.026,0.009l0.026,0.01l0.026,0.011l0.026,0.011l0.026,0.012l0.026,0.013l0.025,0.013l0.025,0.014l0.025,0.015l0.025,0.015
			l0.025,0.016l0.025,0.016l0.025,0.017l0.025,0.018l0.025,0.018c0.335,0.256,0.581,0.61,0.792,0.971
			c0.379,0.659,0.653,1.389,0.894,2.108c1.115,3.423,1.757,7.955,2.399,11.527c0.5,3.028,1.248,6.871,1.408,9.902
			c0.106,1.801,0.055,3.633-0.218,5.418c-0.359,2.432-1.273,5.262-1.948,7.639c-0.72,2.6-1.446,5.316-1.186,8.036
			c0.148,1.51,0.697,2.958,1.429,4.278c1.181,2.192,3.431,4.829,4.927,6.836c1.189,1.571,2.301,3.252,3.232,4.99
			c1.546,2.861,2.795,5.963,3.892,9.023c2.421,7.181,6.161,18.574,8.248,25.822c0.786,2.05,2.369,6.778,3.323,8.714
			c0.843,1.825,2.077,3.471,3.836,4.498c1.946,1.161,4.238,1.546,6.466,1.73c1.71,0.158,3.689,0.157,5.415,0.188
			c3.86-0.006,24.036,0.072,27.449-0.06c0.969-0.063,1.972-0.135,2.881-0.502c0.544-0.221,1.032-0.579,1.394-1.042
			c0.463-0.587,0.737-1.299,0.932-2.014c0.311-1.164,0.44-2.409,0.54-3.609c0.122-1.636,0.137-3.301-0.016-4.935
			c-0.152-1.513-0.433-3.052-1.125-4.42c-0.59-1.179-1.495-2.185-2.562-2.954c-1.286-0.928-2.761-1.577-4.246-2.112
			c-2.919-1.039-6.028-1.505-9.116-1.637c-1.872-0.13-4.873,0.011-6.659-0.585c-0.952-0.325-1.806-0.903-2.56-1.56
			c-2.263-2.043-3.107-5.127-3.774-7.999c-1.155-5.44-1.692-11.055-1.684-16.614c0.031-2.312,0.179-4.667,0.712-6.922
			c0.527-2.353,1.589-4.694,2.577-6.89c0.868-1.947,1.87-3.883,3.081-5.64c2.204-3.224,4.964-6.085,7.825-8.73
			c4.968-4.475,10.305-9.184,14.269-14.591c4.447-5.987,8.36-14.251,12.352-20.548c2.173-3.463,4.646-6.81,7.603-9.647
			c4.164-4.106,9.637-7.774,13.575-12.113c1.723-1.898,3.191-4.044,4.366-6.321c3.151-6.094,4.277-13.042,4.415-19.844
			c0.111-3.111-0.148-8.869,0.266-11.986c0.074-0.441,0.16-0.897,0.374-1.294l0.013-0.024l0.014-0.023l0.014-0.022l0.014-0.022
			l0.014-0.021l0.014-0.02l0.015-0.02l0.015-0.019l0.015-0.018l0.015-0.018l0.016-0.017l0.016-0.016l0.016-0.016l0.016-0.015
			l0.016-0.014l0.017-0.014l0.017-0.013l0.017-0.012l0.017-0.012l0.017-0.011l0.018-0.01l0.018-0.009l0.018-0.009l0.018-0.008
			l0.019-0.007c0.259-0.091,0.537,0.007,0.785,0.093c0.357,0.121,0.818,0.367,1.195,0.238l0.017-0.007l0.017-0.007l0.017-0.008
			l0.017-0.008l0.016-0.009l0.016-0.009l0.016-0.01l0.016-0.011l0.016-0.011l0.016-0.012l0.015-0.012l0.015-0.013l0.015-0.013
			l0.015-0.014l0.015-0.014l0.015-0.015l0.014-0.015l0.014-0.016l0.014-0.017l0.014-0.017l0.014-0.018l0.014-0.018l0.013-0.019
			l0.013-0.019c0.174-0.26,0.27-0.567,0.347-0.868c0.26-1.115,0.283-2.292,0.298-3.434c0.006-2.794-0.255-5.801-0.513-8.589
			c-0.31-3.112-0.683-6.424-1.35-9.474c-0.623-2.872-1.552-5.721-3.028-8.274c-1.832-3.197-4.382-5.945-7.174-8.326"/>
	</g>
</g>
<g id="_x32_D_x24_AG-OUTLINE">
	<g id="POLYLINE_00000152266153556022515100000002354625939600782510_">
		
			<path fill="none" stroke="#FB8604" stroke-width="3.5" stroke-linecap="round" stroke-linejoin="round" stroke-miterlimit="10" d="
			M542.908,219.032c2.602-3.818,5.183-7.862,7.008-12.109c2.264-5.029,4.339-11.529,6.871-16.418
			c0.456-0.816,0.954-1.645,1.668-2.263c0.441-0.382,1.006-0.642,1.597-0.632c0.593,0.003,1.17,0.236,1.637,0.594
			c0.749,0.568,1.218,1.428,1.491,2.314c0.494,1.631,0.582,3.373,0.664,5.067c0.127,3.973,0.057,8.973,0.85,12.842
			c1.043,5.524,3.446,10.739,5.943,15.74c5.222,3.11,10.164,8.186,14.901,11.982c2.266,1.95,4.424,4.117,5.939,6.715
			c1.884,3.16,3.169,6.9,5.518,9.768c1.21,1.5,2.797,2.592,4.575,3.317c3.428,1.435,8.091,1.884,11.75,2.521
			c3.658,0.61,9.712,2.131,13.387,2.982c1.606,0.37,4.187,0.815,5.805,1.168c1.624,0.028,3.262,0.267,4.801,0.794
			c0.99,0.346,1.957,0.866,2.631,1.688c0.629,0.754,0.978,1.702,1.169,2.656c0.245,1.247,0.278,2.537,0.212,3.803
			c-0.118,1.928-0.465,3.876-1.247,5.651c-0.417,0.917-0.971,1.816-1.797,2.418c-1.309,3.281-3.155,6.494-5.957,8.718
			c-2.029,1.622-4.738,2.822-6.852,4.324c-2.966,2.06-5.611,5.646-7.996,8.343c-2.105,2.408-4.395,4.731-7.023,6.568
			c-3.73,2.606-7.999,4.39-12.275,5.892c-5.101,1.799-18.732,5.528-24.086,7.072c-1.735,0.458-3.568,0.9-5.345,1.153
			c-1.301,3.725-2.57,7.643-3.437,11.488c-0.545,2.449-0.962,4.975-0.987,7.487c-0.08,3.358,0.929,7.281,1.58,10.574
			c0.979,4.936,0.962,10.056,0.231,15.025c-0.24,1.447-0.52,2.928-1.13,4.271c-0.161,0.338-0.35,0.672-0.609,0.945
			c-0.219,0.234-0.49,0.414-0.774,0.557c-0.27,0.131-0.591,0.276-0.817,0.47c-0.152,0.132-0.266,0.302-0.351,0.483
			c-0.14,0.297-0.213,0.624-0.265,0.948c-0.2,1.386-0.075,3.003-0.026,4.406c0.209,5,1.007,16.114,0.855,20.972
			c-0.036,0.723-0.093,1.465-0.281,2.166c-0.13,0.461-0.325,0.946-0.727,1.233c-0.285,0.202-0.646,0.24-0.985,0.257
			c-0.664,0.03-1.483-0.027-1.878,0.621c-0.258,0.42-0.342,0.922-0.398,1.404c-0.16,1.841,0.13,3.704,0.478,5.509
			c0.591,2.969,1.555,7.737,2.03,10.72c0.09,0.629,0.169,1.303,0.193,1.938c0.022,0.626,0.003,1.265-0.149,1.875
			c-0.143,0.587-0.457,1.151-0.966,1.493c-0.549,0.378-1.243,0.468-1.895,0.418c-0.666,1.624-1.473,3.382-1.959,5.066
			c-0.59,1.935-1.107,4.485-1.768,6.393c-0.204,0.54-0.449,1.227-0.891,1.613l-0.014,0.011l-0.014,0.011l-0.014,0.01l-0.014,0.01
			l-0.014,0.009l-0.014,0.009l-0.014,0.009l-0.014,0.008l-0.014,0.008l-0.014,0.008l-0.014,0.007
			c-0.299,0.151-0.657,0.027-0.964-0.037c-0.257-0.057-0.541-0.081-0.782,0.044l-0.021,0.011l-0.021,0.012l-0.021,0.012
			l-0.021,0.013l-0.021,0.014l-0.021,0.014l-0.021,0.015l-0.021,0.016l-0.021,0.017l-0.021,0.017l-0.021,0.018l-0.021,0.019
			c-0.546,0.526-0.867,1.302-1.169,1.987c-2.011,4.971-3.081,10.873-6.293,15.269c-1.588,2.245-3.914,4.121-6.013,5.877
			c-0.802,0.688-1.586,1.465-2.306,2.24c-0.428,0.468-2.404,2.671-2.806,3.077c-3.06,3.037-5.689,6.606-7.158,10.688
			c-0.58,1.566-1.013,3.238-1.363,4.871c-1.522,7.397-2.796,17.656-4.71,24.933c-0.688,2.742-3.029,10.784-3.711,13.526
			c-1.121,4.394-2.334,9.852-3.238,14.301c-0.819,4.246-1.73,8.751-1.856,13.071c-0.124,3.191,0.414,6.392,1.479,9.398
			c0.782,2.248,1.819,4.437,3.191,6.387c1.178,1.677,2.629,3.186,4.335,4.331c3.379,2.252,7.417,3.315,11.323,4.258
			c3.206,0.811,7.035,1.437,9.907,3.098c1.123,0.664,2.101,1.579,2.811,2.675c0.99,1.516,1.51,3.291,1.849,5.056
			c0.413,2.284,0.608,4.648,0.321,6.958c-0.139,0.955-0.354,1.956-0.968,2.726c-1.063,1.307-2.962,1.263-4.501,1.309
			c-3.858-0.097-33.955,0.221-36.954-0.172c-1.014-0.124-2.037-0.346-2.951-0.815c-1.238-0.615-2.143-1.715-2.804-2.905
			c-1.557-2.788-2.431-6.462-3.519-9.459c-0.45-1.24-1-2.521-1.578-3.705c-2.355-4.465-15.063-30.19-17.577-35.237
			c-4.583-8.794-9.101-18.116-16.034-25.33c-1.231-1.328-2.826-2.804-4.079-4.111c-0.35-0.374-0.702-0.787-0.991-1.212
			c-0.589-0.851-0.946-1.843-1.175-2.847c-0.441-1.935-0.611-4.079-0.829-6.049c-5.144,1.025-10.722,1.36-15.968,1.616
			c-2.415,0.104-4.893,0.204-7.291-0.067c-3.933-0.372-8.151-2.082-11.99-2.967c-0.901-0.188-1.829-0.376-2.752-0.278
			c-0.263,0.032-0.522,0.102-0.765,0.209c-0.438,0.185-0.876,0.531-1.289,0.765c-0.593,0.353-1.266,0.55-1.949,0.627
			c-2.625,0.259-5.449-0.206-8.046-0.625c-5.974-1.047-11.999-2.713-17.696-4.804c-0.943-0.293-2.04-0.677-3.033-0.463
			c-0.478,0.103-0.872,0.413-1.206,0.756c-0.674,0.704-1.314,1.562-2.241,1.943c-0.804,0.339-1.706,0.321-2.558,0.226
			c-2.954-0.409-5.76-1.655-8.479-2.829c-4.004-1.779-8.547-4.181-12.608-5.814c-2.218-0.882-4.536-1.608-6.91-1.911
			c-2.321-0.306-4.706-0.165-7.029,0.06c-2.981,0.283-6.733,0.917-9.708,0.53c-1.557-0.187-3.082-0.635-4.538-1.207
			c-1.32-0.514-2.68-1.171-3.946-1.807c-4.732-2.429-10.617-5.848-15.385-8.181c-1.395-0.677-2.902-1.371-4.363-1.896
			c-0.738-0.26-1.514-0.505-2.291-0.612c-0.563-0.082-1.147-0.048-1.684,0.148c-0.428,0.15-0.889,0.405-1.327,0.53
			c-0.311,0.092-0.64,0.125-0.964,0.106c-0.756-0.048-1.491-0.277-2.201-0.528c-2.744-1.029-5.346-2.566-7.874-4.033
			c-2.543-1.501-8.4-5.265-11.111-6.468c-0.932-0.421-1.907-0.797-2.914-0.994c-0.739-0.142-1.512-0.183-2.249-0.009
			c-0.696,0.163-1.332,0.512-1.934,0.888l-1.191,0.767c-0.604,0.376-1.248,0.723-1.947,0.882c-0.593,0.14-1.216,0.12-1.811,0.001
			c-1.439-0.296-2.753-1.034-3.944-1.871c-1.589-1.144-3.022-2.538-4.126-4.159c-0.791,0.768-1.755,1.627-2.593,2.351
			c-3.656,3.067-8.375,6.766-11.476,10.301c-2.629,2.955-4.838,6.376-6.863,9.768c-4.207,7.103-8.33,15.738-13.904,21.849
			c-6.579,7.655-15.943,13.325-20.768,22.415c-0.748,1.355-1.515,3.181-2.16,4.599c-0.924,2.103-1.706,4.304-2.063,6.58
			c-0.54,3.426-0.464,6.96-0.269,10.414c0.287,4.241,0.783,8.535,1.795,12.669c0.504,1.971,1.142,3.97,2.349,5.633
			c0.875,1.209,2.17,2.262,3.566,2.804c0.5,0.187,1.032,0.298,1.559,0.371c2.116,0.252,5.174,0.19,7.292,0.411
			c2.822,0.255,5.641,0.864,8.263,1.95c1.573,0.659,3.125,1.489,4.31,2.738c0.902,0.94,1.547,2.115,1.911,3.363
			c0.542,1.862,0.661,3.831,0.648,5.761c-0.041,1.876-0.163,3.791-0.608,5.62c-0.26,1.006-0.689,2.035-1.534,2.685
			c-0.513,0.401-1.142,0.624-1.774,0.751c-1.221,0.243-2.518,0.245-3.759,0.276c-4.384-0.008-23.366,0.046-27.34-0.019
			c-1.412-0.03-2.928-0.082-4.332-0.224c-1.406-0.144-2.825-0.387-4.154-0.879c-1.054-0.388-2.056-0.945-2.905-1.684
			c-0.839-0.725-1.526-1.618-2.07-2.582c-1.377-2.437-2.834-7.093-3.852-9.738c-0.286-1.027-0.888-3.088-1.2-4.107
			c-2.156-6.521-5.243-16.726-7.537-23.054c-0.974-2.605-2.082-5.237-3.404-7.683c-0.848-1.579-1.844-3.122-2.912-4.56
			c-1.551-2.129-3.855-4.789-5.135-7.066c-0.768-1.344-1.358-2.818-1.528-4.366c-0.262-2.41,0.286-4.831,0.898-7.15
			c0.714-2.66,1.749-5.683,2.187-8.397c0.278-1.706,0.355-3.458,0.279-5.185c-0.122-3.209-0.903-7.187-1.432-10.375
			c-0.645-3.57-1.282-8.09-2.399-11.526c-0.241-0.719-0.515-1.449-0.894-2.108c-0.211-0.36-0.457-0.715-0.792-0.971l-0.025-0.018
			l-0.025-0.018l-0.025-0.017l-0.025-0.016l-0.025-0.016l-0.025-0.015l-0.025-0.015l-0.025-0.014l-0.025-0.013l-0.026-0.013
			l-0.026-0.012l-0.026-0.011l-0.026-0.011l-0.026-0.01l-0.026-0.009l-0.026-0.009l-0.026-0.008l-0.026-0.007
			c-0.525-0.133-1.05,0.11-1.518,0.328c-0.596,0.271-1.302,0.735-1.98,0.603l-0.023-0.005l-0.023-0.006l-0.023-0.006l-0.022-0.007
			l-0.022-0.007l-0.022-0.008l-0.022-0.008l-0.022-0.009l-0.022-0.009l-0.022-0.009l-0.022-0.01l-0.022-0.01l-0.022-0.011
			l-0.022-0.011l-0.022-0.012c-0.576-0.339-0.925-0.961-1.226-1.537c-1.088-2.209-1.977-6.023-2.704-8.402
			c-0.712-2.492-2.212-6.411-3.108-8.88c-0.683-1.933-1.305-3.951-1.704-5.962c-0.342-1.674-0.519-3.44-0.623-5.146
			c-0.176-2.374-0.128-5.865-0.735-8.122c-0.118-0.387-0.268-0.78-0.538-1.088l-0.017-0.019l-0.017-0.018l-0.017-0.018l-0.017-0.017
			l-0.018-0.017l-0.018-0.016l-0.018-0.016l-0.018-0.015l-0.018-0.015l-0.019-0.014l-0.019-0.014l-0.019-0.013l-0.019-0.013
			l-0.019-0.012l-0.02-0.012l-0.02-0.011c-0.28-0.158-0.616-0.163-0.928-0.132c-0.824,0.078-1.729,0.472-2.536,0.132l-0.031-0.015
			l-0.031-0.015l-0.031-0.016l-0.031-0.017l-0.03-0.018l-0.03-0.019l-0.03-0.02l-0.03-0.02l-0.029-0.021l-0.029-0.022l-0.029-0.023
			l-0.029-0.024l-0.028-0.024l-0.028-0.025l-0.028-0.026l-0.028-0.027l-0.027-0.028l-0.027-0.028l-0.027-0.029
			c-0.43-0.485-0.672-1.107-0.861-1.719c-0.378-1.285-0.515-2.644-0.592-3.978c-0.281-7.276,1.087-14.567,3.014-21.557l2.857-9.788
			c0.341-1.276,0.713-2.605,0.847-3.921c0.027-0.317,0.041-0.643-0.011-0.958l-0.006-0.033l-0.006-0.032l-0.007-0.031l-0.007-0.031
			l-0.008-0.03l-0.008-0.029l-0.009-0.028l-0.009-0.027l-0.01-0.027l-0.01-0.026l-0.011-0.025l-0.011-0.024l-0.012-0.024
			l-0.012-0.023l-0.013-0.022l-0.013-0.021l-0.014-0.02l-0.014-0.02l-0.015-0.019l-0.016-0.018l-0.016-0.017l-0.017-0.016
			l-0.017-0.015l-0.018-0.015l-0.018-0.014l-0.019-0.013l-0.019-0.012l-0.02-0.011l-0.02-0.01l-0.021-0.01l-0.022-0.009
			c-0.106-0.04-0.221-0.047-0.333-0.041c-0.528,0.04-1.052,0.277-1.56,0.412c-0.299,0.076-0.665,0.176-0.959,0.037l-0.027-0.015
			l-0.026-0.016l-0.025-0.018l-0.024-0.019l-0.023-0.021l-0.022-0.022l-0.021-0.024l-0.02-0.025l-0.019-0.027l-0.018-0.029
			l-0.017-0.03l-0.016-0.031l-0.015-0.033l-0.014-0.034l-0.013-0.036l-0.012-0.037l-0.011-0.039l-0.01-0.04l-0.009-0.042
			l-0.008-0.043l-0.007-0.044l-0.006-0.046l-0.005-0.047l-0.004-0.049l-0.003-0.05l-0.003-0.051l-0.002-0.053
			c-0.008-0.416,0.061-0.843,0.141-1.251c0.161-0.802,0.425-1.633,0.689-2.41c2.264-6.223,5.537-12.126,8.884-17.825
			c5.006-8.444,10.936-16.423,17.681-23.558c4.522-4.916,10.886-10.589,15.826-15.148c0.64-0.614,1.308-1.264,1.857-1.961
			c0.475-0.598,0.869-1.267,1.14-1.981c0.381-0.991,0.559-2.059,0.699-3.108c0.353-2.801,0.498-6.186,1.183-8.922
			c0.195-0.757,0.443-1.517,0.817-2.206c0.344-0.637,0.828-1.194,1.382-1.658c0.908-0.775,2.099-1.36,2.942-2.214
			c0.486-0.49,0.847-1.093,1.125-1.722c0.939-2.19,1.355-5.406,1.873-7.731c0.494-2.299,1.11-4.666,1.879-6.887
			c0.422-1.193,0.888-2.407,1.522-3.505c0.313-0.515,0.656-1.06,1.182-1.378l0.021-0.011l0.021-0.011l0.021-0.01l0.021-0.01
			l0.02-0.009l0.02-0.009l0.02-0.008l0.02-0.008l0.02-0.007l0.02-0.007l0.02-0.006l0.02-0.006l0.02-0.005l0.02-0.005l0.02-0.004
			l0.02-0.004l0.02-0.003l0.02-0.003l0.02-0.002c0.258-0.025,0.506,0.084,0.722,0.214c0.544,0.315,1.091,0.939,1.753,0.942
			l0.025-0.001l0.025-0.001l0.025-0.002l0.025-0.003l0.025-0.003l0.025-0.004l0.025-0.005l0.025-0.005l0.025-0.006l0.025-0.006
			l0.025-0.007l0.025-0.008l0.025-0.008l0.025-0.009l0.025-0.009l0.025-0.01l0.025-0.011l0.026-0.011l0.026-0.012
			c0.657-0.334,1.13-0.97,1.561-1.549c1.19-1.624,3.424-5.98,4.448-7.79c1.449-2.596,3.069-5.165,5.014-7.42
			c1.116-1.264,2.315-2.535,3.814-3.341c0.528-0.266,1.138-0.484,1.733-0.345l0.024,0.006l0.024,0.007l0.024,0.007l0.024,0.007
			l0.024,0.008l0.024,0.008l0.023,0.009l0.023,0.009l0.023,0.01l0.023,0.01l0.023,0.01c0.183,0.086,0.345,0.214,0.486,0.357
			c0.463,0.477,0.79,1.141,1.134,1.707c0.344,0.556,0.73,1.177,1.373,1.413l0.031,0.01l0.031,0.01l0.031,0.009l0.032,0.008
			l0.032,0.008l0.032,0.007l0.033,0.006l0.033,0.006l0.033,0.005l0.034,0.004l0.034,0.004l0.034,0.003l0.034,0.002l0.035,0.002
			l0.035,0.001l0.035,0l0.036,0c0.598-0.015,1.167-0.253,1.697-0.515c0.675-0.343,1.322-0.776,1.937-1.216
			c1.892-1.357,5.274-4.304,7.107-5.814c2.631-2.161,5.448-4.208,8.526-5.685c1.552-0.737,3.188-1.38,4.898-1.621
			c1.003-0.128,2.103-0.129,2.995,0.408c0.554,0.339,0.946,0.879,1.289,1.419l0.532,0.861c0.3,0.473,0.634,0.94,1.068,1.299
			c0.329,0.277,0.719,0.479,1.131,0.603c0.763,0.231,1.576,0.259,2.368,0.234c1.59-0.065,3.201-0.373,4.759-0.69l8.009-1.785
			c4.404-0.915,8.98-1.449,13.464-0.861c1.565,0.234,3.237,0.567,4.563,1.475c0.527,0.37,0.978,0.901,1.087,1.552
			c0.174,0.925-0.141,1.9-0.07,2.829c0.025,0.297,0.102,0.596,0.27,0.846l0.016,0.023l0.016,0.023l0.017,0.023l0.017,0.022
			l0.018,0.022c0.39,0.468,0.973,0.718,1.531,0.926c1.321,0.487,4.094,0.953,5.504,1.263c2.126,0.455,4.27,1.017,6.234,1.966
			c4.463,2.194,7.798,6.134,10.423,10.267c0.902,1.442,1.754,2.967,2.485,4.503c0.337,0.73,0.664,1.488,0.8,2.285
			c0.055,0.337,0.069,0.686,0.005,1.022c-0.073,0.426-0.307,0.837-0.476,1.229c-0.344,0.734-0.443,1.471-0.306,2.269
			c0.438,2.451,2.113,5.931,3.003,8.292c0.994,2.572,1.93,5.244,2.228,7.999c0.302,2.719-0.02,5.491-0.763,8.116
			c10.909,2.295,22.157,4.237,33.328,4.325c13.133,0.154,28.226-1.437,41.303-0.23l11.884,1.141c3.46,0.28,7.026,0.462,10.485,0.147
			c3.146-0.279,6.287-0.953,9.296-1.904c4.035-1.273,7.989-3.054,11.777-4.934c3.137-1.59,6.316-3.318,9.124-5.443
			c0.888-0.683,1.759-1.424,2.499-2.268c0.444-0.512,0.854-1.072,1.118-1.699c0.305-0.712,0.372-1.5,0.351-2.267l-0.035-1.122
			c-0.011-0.578,0.019-1.165,0.162-1.728c0.161-0.644,0.446-1.255,0.774-1.83c0.95-1.634,2.255-3.08,3.534-4.464
			c4.349-4.551,9.896-9.8,13.65-14.815c0.935-1.254,1.843-2.575,2.542-3.977c0.481-0.954,0.833-1.983,0.961-3.046
			c0.174-1.304,0.077-2.754,0.633-3.977c0.742-1.605,2.212-2.918,3.492-4.106l4.393-3.845c3.424-2.997,6.245-6.646,8.732-10.439
			c1.142-1.817,5.268-7.902,6.177-9.71c0.517-0.988,0.96-2.04,1.284-3.107c1.196-3.927,1.425-10.365,1.895-14.472
			c0.643-6.275,2.574-14.308,3.136-20.588c0.334-3.354,0.318-6.79-0.038-10.142c-0.24-2.626-0.84-6.6-0.781-9.197
			c0.018-0.798,0.082-1.608,0.275-2.384c0.151-0.601,0.386-1.192,0.761-1.69c0.402-0.539,0.956-0.956,1.569-1.228
			c1.56-0.684,3.389-0.538,4.94,0.101c1.266,0.525,2.358,1.402,3.298,2.387c2.693,2.902,4.473,6.563,6.276,10.052
			c3.639,7.316,6.901,14.964,9.191,22.817c2.716-1.125,5.351-1.964,8.25-2.478C534.171,219.681,538.573,219.23,542.908,219.032z"/>
	</g>
</g>
</svg>
