<?xml version="1.0" encoding="utf-8"?>
<!-- Generator: Adobe Illustrator 25.4.1, SVG Export Plug-In . SVG Version: 6.00 Build 0)  -->
<!DOCTYPE svg PUBLIC "-//W3C//DTD SVG 1.1//EN" "http://www.w3.org/Graphics/SVG/1.1/DTD/svg11.dtd" [
	<!ENTITY ns_extend "http://ns.adobe.com/Extensibility/1.0/">
	<!ENTITY ns_ai "http://ns.adobe.com/AdobeIllustrator/10.0/">
	<!ENTITY ns_graphs "http://ns.adobe.com/Graphs/1.0/">
	<!ENTITY ns_vars "http://ns.adobe.com/Variables/1.0/">
	<!ENTITY ns_imrep "http://ns.adobe.com/ImageReplacement/1.0/">
	<!ENTITY ns_sfw "http://ns.adobe.com/SaveForWeb/1.0/">
	<!ENTITY ns_custom "http://ns.adobe.com/GenericCustomNamespace/1.0/">
	<!ENTITY ns_adobe_xpath "http://ns.adobe.com/XPath/1.0/">
]>
<svg version="1.1" xmlns:x="&ns_extend;" xmlns:i="&ns_ai;" xmlns:graph="&ns_graphs;"
	 xmlns="http://www.w3.org/2000/svg" xmlns:xlink="http://www.w3.org/1999/xlink" x="0px" y="0px" width="750px" height="750px"
	 viewBox="0 0 750 750" enable-background="new 0 0 750 750" xml:space="preserve">
<metadata>
	<sfw  xmlns="&ns_sfw;">
		<slices></slices>
		<sliceSourceBounds  bottomLeftOrigin="true" height="10237.062" width="5559" x="-2000" y="-1314"></sliceSourceBounds>
	</sfw>
</metadata>
<g id="FILL-BACKGROUND">
	<rect fill="#FFFFFF" width="750" height="750"/>
</g>
<g id="N-DIMENSIONS">
</g>
<g id="N-TEXT">
</g>
<g id="_x32_D_x24_AG-DIAGRAM">
	<g id="POLYLINE_00000072995187325711376060000003907805698745631143_">
		<g>
			<g>
				
					<line fill="none" stroke="#FB8604" stroke-width="3.25" stroke-linecap="round" stroke-linejoin="round" x1="78.99" y1="598.69" x2="80.99" y2="598.69"/>
				
					<line fill="none" stroke="#FB8604" stroke-width="3.25" stroke-linecap="round" stroke-linejoin="round" stroke-dasharray="4.0474,7.083" x1="88.073" y1="598.69" x2="518.618" y2="598.69"/>
				
					<line fill="none" stroke="#FB8604" stroke-width="3.25" stroke-linecap="round" stroke-linejoin="round" x1="522.159" y1="598.69" x2="524.159" y2="598.69"/>
			</g>
		</g>
	</g>
</g>
<g id="_x32_D_x24_AG-DETAILS-DIAGRAM">
</g>
<g id="_x32_D_x24_AG-DETAILS">
	<g id="POLYLINE_00000071535405175374515600000004989945543657715619_">
		<path fill="none" stroke="#FB8604" stroke-width="2" stroke-linecap="round" stroke-linejoin="round" stroke-miterlimit="10" d="
			M620.798,292.356c1.316-2.939,2.233-6.093,2.502-9.308c0.227-2.721-0.052-5.528-1.111-8.061c-1.589-3.83-4.564-6.903-7.772-9.445
			c-2.721-2.178-6.47-4.342-9.383-6.28c-2.349-1.591-4.721-3.349-6.253-5.783c-1.315-2.111-1.84-4.603-2.174-7.037
			c-0.416-3.153-0.601-6.743-1.708-9.743c-0.602-1.71-1.47-3.33-2.548-4.787c-1.403-1.904-3.156-3.55-4.973-5.054
			c-2.759-2.264-5.809-4.288-8.897-6.076c-1.424-0.849-3.363-1.757-4.78-2.62c-0.268-0.173-0.538-0.362-0.759-0.594
			c-0.11-0.118-0.211-0.251-0.266-0.404c-0.047-0.128-0.055-0.272-0.016-0.404c0.05-0.178,0.158-0.336,0.277-0.475
			c0.466-0.522,1.086-0.885,1.689-1.227"/>
	</g>
	<g id="POLYLINE_00000176001613618325774900000014721674550456787092_">
		<path fill="none" stroke="#FB8604" stroke-width="2" stroke-linecap="round" stroke-linejoin="round" stroke-miterlimit="10" d="
			M511.787,233.887c1.04,7.819,2.736,15.681,5.882,22.941c2.184,5.144,5.869,10.411,8.505,15.334c0.956,1.795,1.766,3.7,2.35,5.648
			c0.792,2.561,1.404,5.654,2.327,8.17c1.517,4.168,4.379,7.696,7.43,10.852"/>
	</g>
	<g id="POLYLINE_00000057124759609499682720000004561297513986927030_">
		<path fill="none" stroke="#FB8604" stroke-width="2" stroke-linecap="round" stroke-linejoin="round" stroke-miterlimit="10" d="
			M359.346,446.192c3.285-1.489,7.201-3.318,10.572-4.502c2.982-1.069,6.114-1.905,9.244-2.401
			c3.559-0.574,7.247-0.714,10.848-0.647c9.65,0.1,25.231,2.435,34.948,3.571c4.13,0.463,8.463,0.801,12.615,0.812
			c5.213,0.028,10.83-0.43,16.035-0.853c4.164-0.376,8.445-0.887,12.514-1.854c2.69-0.645,5.372-1.495,7.839-2.761
			c1.945-0.999,3.768-2.295,5.189-3.968c3.402-3.955,4.714-9.625,6.582-14.385c0.605-1.541,1.3-3.087,2.181-4.492
			c0.977-1.562,2.198-2.987,3.459-4.327l3.191-3.305c1.9-2.011,3.686-4.247,4.592-6.895c0.763-2.202,0.993-4.569,0.91-6.889
			c-0.121-3.09-0.795-6.163-1.896-9.05c-1.297-3.434-3.283-6.539-5.904-9.112c-3.706-3.707-8.47-6.696-11.821-10.761
			c-2.501-3.014-4.271-6.584-5.669-10.223c-2.078-5.467-3.379-11.298-4.448-17.038c-1.096-5.957-2.146-13.641-4.199-19.321
			c-1.037-2.94-2.454-5.767-4.279-8.299c-4.452-6.171-10.686-10.897-17.357-14.456"/>
	</g>
	<g id="POLYLINE_00000096027590167130154740000014257948724313870523_">
		<path fill="none" stroke="#FB8604" stroke-width="2" stroke-linecap="round" stroke-linejoin="round" stroke-miterlimit="10" d="
			M105.316,575.97c0.818,0.882,1.787,1.629,2.848,2.194c0.939,0.497,1.968,0.858,3.031,0.952c1.741,0.167,3.486-0.501,4.794-1.637
			c0.86-0.731,1.551-1.648,2.172-2.585c1.052-1.596,2.143-3.69,3.235-5.258c1.736-2.582,4.323-4.429,6.925-6.06"/>
	</g>
</g>
<g id="_x32_D_x24_AG-ANIMALS">
	<g id="POLYLINE_00000100374773855255333100000017066454920477901189_">
		
			<path fill="none" stroke="#FB8604" stroke-width="2.75" stroke-linecap="round" stroke-linejoin="round" stroke-miterlimit="10" d="
			M634.263,247.452c-2.208-0.443-4.563-0.734-6.804-0.959c-5.174-0.518-11.801-0.649-16.727-2.254
			c-1.672-0.542-3.306-1.291-4.676-2.406c-1.813-1.461-3.142-3.43-4.234-5.464c-1.054-1.937-1.967-4.209-3.189-6.047
			c-1.392-2.129-3.409-3.767-5.461-5.231c-4.366-3.068-9.111-5.669-13.919-7.973c-4.914-2.308-10.044-4.386-15.372-5.507
			c-2.925-0.61-5.964-0.909-8.951-0.906c-3.245-0.017-6.691,0.359-9.916,0.742"/>
	</g>
	<g id="POLYLINE_00000023246651691033511700000013608408357507864706_">
		
			<path fill="none" stroke="#FB8604" stroke-width="2.75" stroke-linecap="round" stroke-linejoin="round" stroke-miterlimit="10" d="
			M538.28,296.832c3.105,2.502,6.521,4.693,10.173,6.306c2.638,1.157,5.442,2.023,8.318,2.3c4.464,0.45,9.156-0.8,13.505-1.711
			c2.632-0.558,5.351-1.022,8.039-1.165c4.925-0.287,11.02,0.206,15.964,0.195c2.653-0.017,5.361-0.138,7.948-0.766
			c2.088-0.503,4.091-1.361,5.976-2.382c2.613-1.41,5.879-3.613,8.475-5.063c3.604-2.031,9.538-4.819,13.12-6.87
			c3.265-1.882,6.576-3.964,8.919-6.974c2.048-2.611,3.109-5.865,3.494-9.132c0.364-3.033,0.315-6.138,0.124-9.183"/>
	</g>
	<g id="POLYLINE_00000129924640106010123860000015370005084772430480_">
		
			<path fill="none" stroke="#FB8604" stroke-width="2.75" stroke-linecap="round" stroke-linejoin="round" stroke-miterlimit="10" d="
			M642.334,262.387c-0.471,0.43-1.112,0.624-1.74,0.657c-1.405,0.059-2.77-0.446-4.021-1.04c-1.357-0.666-2.634-1.516-3.759-2.526
			c-1.104-1-2.065-2.212-2.566-3.628c-0.77-2.094-0.27-4.428,0.802-6.323c0.399-0.677,0.893-1.412,1.612-1.776
			c0.494-0.243,1.06-0.274,1.601-0.298c1.899-0.047,3.842,0.027,5.698,0.454c0.545,0.139,1.103,0.321,1.538,0.691
			c0.338,0.284,0.574,0.668,0.753,1.067c0.472,1.113,0.723,2.33,0.954,3.513c0.39,2.265,0.651,4.631,0.233,6.909
			C643.266,260.922,642.977,261.794,642.334,262.387z"/>
	</g>
	<g id="POLYLINE_00000096743707486031732820000012090572932737413804_">
		
			<path fill="none" stroke="#FB8604" stroke-width="2.75" stroke-linecap="round" stroke-linejoin="round" stroke-miterlimit="10" d="
			M541.349,207.466c0.917-3.864,2.409-7.611,4.119-11.188c1.981-4.113,4.581-8.141,8.474-10.672
			c0.588-0.383,1.207-0.736,1.857-1.003c0.407-0.164,0.833-0.304,1.272-0.341c0.39-0.035,0.802,0.037,1.065,0.352
			c0.375,0.454,0.415,1.136,0.433,1.703c-0.061,3.914-1.422,9.471-2.1,13.372c-0.188,1.126-0.379,2.311-0.079,3.434
			c0.139,0.526,0.399,1.015,0.716,1.454c0.624,0.883,1.73,1.903,2.492,2.681c0.825,0.816,1.521,1.765,2.062,2.792l0.663,1.266"/>
	</g>
	<g id="POLYLINE_00000107552011649841682510000009762713460790919062_">
		
			<path fill="none" stroke="#FB8604" stroke-width="2.75" stroke-linecap="round" stroke-linejoin="round" stroke-miterlimit="10" d="
			M440.591,407.272c1.203,4.798,2.606,10.244,3.431,15.094c0.297,1.781,0.533,3.631,0.572,5.438
			c0.036,1.527-0.091,3.106-0.262,4.623c-0.304,2.524-0.888,6.696-0.989,9.172c-0.112,2.102-0.056,4.252,0.16,6.346
			c0.333,3.303,1.34,9.543,1.656,12.838c0.267,2.61,0.444,5.38,0.474,8c0.102,6.206-0.65,19.028-0.669,25.257
			c-0.061,5.211,0.23,10.795,0.656,15.996c0.323,3.837,1.501,14.923,1.568,18.557c0.051,1.941,0.004,3.922-0.293,5.843
			c-0.308,2.063-0.972,4.087-1.698,6.037c-1.466,4.046-3.931,9.366-5.167,13.471c-0.235,0.843-0.433,1.715-0.462,2.592
			c-0.102,2.077,1.099,4.01,2.77,5.171c1.585,1.145,3.732,1.503,5.593,1.976c0.701,0.193,1.441,0.369,2.05,0.781
			c0.378,0.26,0.667,0.628,0.89,1.025c0.409,0.738,0.662,1.567,0.895,2.375c1.562,6.112,2.681,13.835,4.451,19.876
			c0.676,2.303,1.407,4.657,2.618,6.741c0.719,1.219,1.658,2.349,2.883,3.084c1.524,0.936,3.363,1.105,5.114,1.12
			c0,0,31.568,0.004,31.568,0.004s0.291-0.001,0.291-0.001c0.402-0.007,0.825-0.007,1.219-0.094c0.309-0.066,0.61-0.194,0.849-0.405
			c0.496-0.442,0.688-1.114,0.813-1.745c0.25-1.415,0.226-2.879,0.143-4.309c-0.173-2.391-0.552-4.832-1.626-6.999
			c-0.811-1.646-2.037-3.067-3.411-4.271c-1.977-1.732-4.668-2.002-7.178-2.262c-1.152-0.077-5.059-0.417-6.126-0.546
			c-1.101-0.15-2.226-0.33-3.257-0.761c-0.544-0.229-1.058-0.545-1.479-0.961c-0.363-0.356-0.65-0.784-0.877-1.237
			c-0.3-0.592-0.52-1.248-0.716-1.882c-0.982-3.289-1.771-7.595-2.496-10.982c-1.406-6.76-1.941-13.751-1.926-20.648
			c-0.002-7.427,0.445-15.336,1.173-22.731c0.818-8.235,2.176-16.559,4.189-24.589c2.979-11.859,7.337-23.669,11.864-35.018
			c1.904-4.577,3.802-9.563,6.364-13.821c1.523-2.544,3.45-4.862,5.453-7.041c4.4-4.694,9.81-10.168,13.499-15.374
			c3.457-4.797,6.441-9.993,8.575-15.516c2.587-6.644,3.621-13.808,4.164-20.883c0.6-7.088,0.815-19.096,1.512-26.181
			c0.182-1.685,0.44-3.428,0.839-5.075c0.643-2.715,1.739-5.342,2.903-7.87c2.72-5.965,6.623-12.533,9.997-18.187
			c0.922-1.604,1.807-3.324,2.539-5.023l2.332-5.567c0.862-1.983,1.839-3.966,3.03-5.773c1.731-2.649,3.911-5.122,6.024-7.473"/>
	</g>
	<g id="POLYLINE_00000129905576961465961830000006130147805918595722_">
		
			<path fill="none" stroke="#FB8604" stroke-width="2.75" stroke-linecap="round" stroke-linejoin="round" stroke-miterlimit="10" d="
			M553.655,227.837c0.205-3.68-0.365-7.595-2.526-10.667c-1.653-2.369-4.199-4.242-6.468-5.998
			c-1.315-1.009-2.522-2.133-3.275-3.634c-0.465-0.895-0.779-1.871-1.022-2.847c-0.927-3.801-1.355-9.191-2.368-12.968
			c-0.507-1.848-1.159-3.816-2.673-5.089c-0.751-0.629-1.811-1.077-2.777-0.711c-0.444,0.167-0.797,0.509-1.073,0.887
			c-0.552,0.771-0.887,1.682-1.217,2.564c-0.384,1.141-1.04,2.945-1.506,4.029c-0.39,0.889-0.862,1.799-1.338,2.645
			c-1.69,3.022-4,6.149-5.344,9.349c-1.308,2.993-1.842,7.216-2.482,10.419c-0.991,4.889-2.455,9.767-4.888,14.142
			c-0.836,1.464-1.811,2.88-3.035,4.048c-1.124,1.08-2.461,1.929-3.829,2.666l-3.799,1.958c-3.029,1.559-5.847,3.588-8.474,5.749
			c-4.375,3.58-8.897,7.953-12.956,11.917c-1.264,1.274-21.711,21.115-22.14,21.789c-1.479,1.593-2.876,3.325-4.091,5.129
			l-2.48,3.726c-1.324,1.952-2.825,3.833-4.705,5.277c-1.775,1.391-3.8,2.461-5.87,3.342c-3.087,1.31-6.461,2.276-9.702,3.139
			l-16.028,3.983c-4.201,1.111-8.561,2.368-12.596,3.978c-3.805,1.486-9.13,4.25-12.842,6.071c-3.54,1.714-7.26,3.177-11.143,3.869
			c-8.079,1.485-19.067,1.073-27.266,1.728c-9.982,0.586-28.064,2.688-38.201,3.789c-11.148,1.272-28.191,3.127-39.135,4.955
			c-7.215,1.184-15.058,2.655-22.139,4.452c-4.52,1.157-9.188,2.522-13.508,4.295l-5.986,2.527
			c-2.087,0.853-4.246,1.638-6.468,2.043c-1.864,0.347-3.795,0.397-5.686,0.329c-4.905-0.212-10.685-1.101-15.587-0.926
			c-5.26,0.132-10.546,1.007-15.501,2.796c-3.035,1.096-5.967,2.553-8.634,4.374c-2.483,1.692-4.755,3.737-6.779,5.955
			c-3.276,3.591-6,7.7-8.338,11.953c-8.734,15.928-12.869,35.568-17.655,53.009c-1.661,5.939-3.521,11.982-6.162,17.562
			c-2.36,5.069-5.435,9.857-8.722,14.372c-7.218,9.8-15.837,20.207-20.043,31.719c-1.094,2.982-2.043,6.084-2.445,9.242
			c-0.112,0.974-0.178,1.974-0.055,2.949c0.068,0.496,0.184,1.003,0.454,1.431l0.019,0.028l0.019,0.028l0.019,0.027l0.02,0.027
			l0.02,0.026l0.02,0.025l0.021,0.025l0.021,0.024l0.021,0.024l0.022,0.023l0.022,0.022l0.022,0.022l0.023,0.021l0.023,0.021
			l0.023,0.02l0.024,0.019l0.024,0.019c0.287,0.221,0.659,0.299,1.016,0.286c0.755-0.034,1.466-0.353,2.126-0.7
			c1.717-0.945,3.223-2.257,4.611-3.629c2.982-2.924,7.071-8.81,9.661-12.154c2.824-3.776,11.511-13.306,14.727-16.989
			c4.977-5.763,9.82-11.881,12.819-18.937c1.395-3.189,2.508-6.615,3.455-9.965c3.425-12.892,7.279-28.048,11.686-40.577
			c2.613-7.409,5.537-15.047,10.92-20.923c3.129-3.371,6.996-6.037,11.105-8.073c1.226-0.575,2.504-1.178,3.836-1.459
			c0.213-0.035,0.436-0.06,0.648-0.006c0.091,0.024,0.177,0.069,0.241,0.139c0.06,0.066,0.098,0.149,0.117,0.235
			c0.032,0.143,0.025,0.292,0.004,0.436c-0.037,0.241-0.117,0.477-0.212,0.7c-0.271,0.625-0.675,1.189-1.139,1.685
			c-0.582,0.617-1.313,1.215-1.985,1.742c-1.391,1.074-2.97,2.295-4.206,3.512c-1.889,1.814-3.371,4.02-4.517,6.367
			c-1.846,3.757-3.109,7.841-4.204,11.873c-1.913,7.08-4.473,20.648-6.154,27.84c-1.38,5.963-3.038,12.382-4.865,18.211
			c-3.876,12.26-8.548,24.505-15.373,35.453c-3.637,5.848-8.159,11.188-13.273,15.796c-3.486,3.171-7.348,6.124-11.22,8.81
			c-3.14,2.22-8.387,5.434-11.516,7.671c-2.212,1.593-4.401,3.331-6.062,5.513c-1.442,1.895-2.443,4.128-2.878,6.47
			c-0.355,1.832-0.322,3.723-0.136,5.573c0.375,3.343,0.927,7.174,0.893,10.55c-0.023,5.034-0.663,10.164-1.411,15.137
			c-1.265,8.023-2.971,16.189-5.196,24.003c0,0-1.94,6.599-1.94,6.599s-0.2,0.717-0.2,0.717s-0.188,0.703-0.188,0.703
			s-0.177,0.693-0.177,0.693s-0.164,0.685-0.164,0.685s-0.118,0.524-0.118,0.524c-0.572,2.586-0.861,5.13-1.153,7.735
			c-0.343,2.153-0.834,4.432-0.778,6.619c0.054,1.023,0.257,2.122,0.967,2.904c0.58,0.636,1.425,0.937,2.253,1.089
			c1,0.186,2.067,0.218,3.083,0.249c1.24-0.004,32.017,0.105,33.224-0.034c0.633-0.075,1.253-0.313,1.691-0.791
			c0.592-0.643,0.875-1.503,1.096-2.333c0.4-1.638,0.512-3.368,0.245-5.035c-0.276-1.7-1.112-3.271-2.251-4.55
			c-1.031-1.163-2.242-2.172-3.561-2.992c-0.633-0.39-1.304-0.739-2-1.002c-1.046-0.396-2.599-0.738-3.674-1.059
			c-1.913-0.571-3.877-1.18-5.618-2.175c-0.532-0.321-1.069-0.7-1.373-1.256c-0.328-0.597-0.298-1.308-0.221-1.965
			c1.447-9.17,3.414-18.782,6.199-27.627c1.711-5.418,3.699-10.878,6.568-15.8c2.59-4.479,6.026-8.49,10.098-11.688
			c2.624-2.084,5.538-3.9,8.439-5.572c4.765-2.662,13.187-7.126,17.869-9.872c7.98-4.64,16.077-10.159,23.509-15.636
			c10.25-7.588,25.027-18.977,35.148-26.757c4.893-3.833,9.753-8.072,14.076-12.539c3.914-3.92,8.873-9.468,13.313-12.697
			c3.364-2.482,7.197-4.361,11.247-5.414c1.857-0.488,3.778-0.851,5.699-0.942c3.962-0.19,7.921,0.688,11.747,1.626
			c9.81,2.618,21.443,5.763,31.41,7.319l25.84,4.071c7.919,1.327,17.087,3.265,24.942,5.079c7.029,1.689,35.519,8.967,42.036,10.176
			c3.068,0.612,6.303,1.141,9.417,1.409c7.069,0.63,14.298,0.115,21.341-0.649"/>
	</g>
</g>
<g id="_x32_D_x24_AG-OUTLINE">
	<g id="POLYLINE_00000100356421923540749050000002933002991738600103_">
		
			<path fill="none" stroke="#FB8604" stroke-width="3.5" stroke-linecap="round" stroke-linejoin="round" stroke-miterlimit="10" d="
			M557.078,305.465c-2.115,2.353-4.293,4.823-6.024,7.473c-1.191,1.806-2.168,3.79-3.03,5.773l-2.332,5.567
			c-0.732,1.699-1.617,3.42-2.539,5.023c-3.399,5.68-7.263,12.216-9.997,18.187c-1.165,2.53-2.26,5.155-2.903,7.87
			c-0.399,1.648-0.656,3.388-0.839,5.075c-0.696,7.081-0.914,19.095-1.513,26.181c-0.543,7.075-1.576,14.239-4.164,20.883
			c-2.134,5.522-5.119,10.718-8.575,15.516c-3.667,5.206-9.136,10.702-13.499,15.374c-2.004,2.183-3.929,4.494-5.453,7.041
			c-2.56,4.255-4.46,9.233-6.364,13.821c-4.283,10.728-8.419,21.924-11.372,33.095c-2.112,8.017-3.585,16.333-4.477,24.573
			c-0.806,7.458-1.297,15.434-1.371,22.935c-0.069,6.894,0.3,13.897,1.591,20.678c0.78,3.881,1.661,8.517,2.717,12.323
			c0.218,0.732,0.456,1.5,0.795,2.187c0.248,0.508,0.569,0.987,0.986,1.372c0.456,0.426,1.009,0.74,1.59,0.962
			c0.978,0.374,2.033,0.545,3.067,0.684c1.063,0.174,5.001,0.425,6.126,0.546c2.059,0.222,4.232,0.417,6.061,1.47
			c0.676,0.389,1.278,0.902,1.829,1.451c0.809,0.803,1.57,1.682,2.167,2.656c1.088,1.741,1.64,3.76,1.929,5.777
			c0.275,1.999,0.403,4.051,0.156,6.059c-0.126,0.838-0.322,1.832-1.084,2.324c-0.336,0.213-0.736,0.29-1.127,0.323
			c-0.225,0.013-0.511,0.029-0.739,0.026c0,0-31.517-0.001-31.517-0.001c-0.423-0.004-0.933-0.011-1.356-0.034
			c-1.364-0.067-2.756-0.314-3.953-1.002c-2.416-1.387-3.654-4.068-4.583-6.579c-2.586-7.16-3.634-15.84-5.517-23.208
			c-0.269-0.923-0.552-1.882-1.09-2.689c-0.207-0.304-0.471-0.574-0.783-0.77c-0.595-0.369-1.292-0.541-1.962-0.722
			c-1.864-0.477-4.005-0.829-5.593-1.976c-1.671-1.161-2.872-3.094-2.77-5.171c0.03-0.877,0.227-1.75,0.462-2.592
			c1.233-4.1,3.703-9.431,5.167-13.471c0.725-1.95,1.39-3.975,1.698-6.037c0.297-1.92,0.344-3.903,0.293-5.843
			c-0.062-3.632-1.258-14.803-1.568-18.557c-0.56-6.595-0.797-13.479-0.583-20.088c0.116-3.998,0.709-17.391,0.597-21.165
			c-0.033-2.907-0.242-5.931-0.561-8.823c-8.204,0.899-16.609,1.418-24.81,0.258c-4.918-0.673-10.267-1.924-15.112-3.052
			c-16.502-4.09-41.235-10.578-57.814-13.221l-25.84-4.071c-9.943-1.551-21.628-4.708-31.41-7.319
			c-3.827-0.939-7.784-1.817-11.747-1.626c-1.921,0.091-3.842,0.454-5.699,0.942c-4.049,1.053-7.883,2.932-11.247,5.414
			c-4.424,3.212-9.428,8.8-13.313,12.697c-4.321,4.465-9.186,8.708-14.076,12.539c-15.647,11.886-33.196,26.015-49.551,36.785
			c-3.667,2.386-8.097,5.056-11.894,7.211c-3.977,2.285-12.287,6.601-16.216,8.929c-2.86,1.693-5.702,3.541-8.248,5.681
			c-2.331,1.952-4.47,4.189-6.3,6.618c-2.918,3.855-5.107,8.243-6.857,12.737c-2.012,5.158-3.629,10.659-4.992,16.026
			c-1.493,5.828-2.878,13.239-3.799,19.222c-0.037,0.43-0.042,0.874,0.078,1.292c0.137,0.494,0.476,0.905,0.874,1.217
			c0.661,0.516,1.436,0.882,2.2,1.217c2.302,1.006,4.883,1.599,7.289,2.306c1.23,0.397,2.369,1.046,3.415,1.799
			c2.196,1.603,4.211,3.758,4.788,6.492c0.324,1.511,0.276,3.091,0.018,4.609c-0.185,0.982-0.439,1.987-0.997,2.829
			c-0.266,0.392-0.634,0.72-1.072,0.907c-0.571,0.247-1.207,0.278-1.821,0.29c-4.642-0.081-30.546,0.194-34.58-0.154
			c-0.738-0.085-1.491-0.213-2.162-0.544c-0.459-0.225-0.867-0.561-1.153-0.987c-0.504-0.756-0.663-1.687-0.71-2.579
			c-0.05-2.189,0.426-4.464,0.778-6.62c0.272-2.562,0.606-5.232,1.153-7.735c0.346-1.869,2.57-9.144,3.138-11.167
			c2.25-8.184,3.977-16.701,5.189-25.102c0.606-4.406,1.097-8.916,1.062-13.36c0.006-3.184-0.554-6.806-0.889-9.983
			c-0.191-1.903-0.22-3.843,0.165-5.723c0.458-2.344,1.486-4.57,2.951-6.454c1.765-2.266,4.083-4.051,6.413-5.701
			c3.631-2.546,8.993-5.801,12.548-8.392c3.897-2.781,7.739-5.828,11.202-9.131c3.022-2.873,5.877-6.042,8.364-9.39
			c3.184-4.292,5.933-8.998,8.329-13.77c4.568-9.158,8.129-18.953,11.1-28.735c1.981-6.549,3.739-13.772,5.204-20.466
			c1.38-6.36,3.985-19.764,5.836-25.854c1.047-3.561,2.267-7.16,4.007-10.449c0.719-1.349,1.554-2.666,2.535-3.842
			c1.177-1.429,2.578-2.686,4.026-3.836c0.988-0.778,2.719-2.061,3.612-2.987c0.516-0.534,0.967-1.146,1.255-1.833
			c0.095-0.232,0.174-0.478,0.202-0.728c0.016-0.15,0.014-0.304-0.039-0.447c-0.029-0.076-0.076-0.145-0.14-0.195
			c-0.062-0.049-0.137-0.081-0.214-0.099c-0.241-0.053-0.492-0.015-0.731,0.031c-1.294,0.297-2.535,0.875-3.732,1.439
			c-4.11,2.036-7.976,4.703-11.105,8.073c-5.383,5.877-8.307,13.514-10.92,20.923c-4.4,12.508-8.268,27.705-11.685,40.577
			c-0.946,3.349-2.06,6.776-3.455,9.965c-2.999,7.056-7.843,13.175-12.819,18.937c-3.27,3.745-11.858,13.161-14.727,16.989
			c-2.772,3.569-6.812,9.46-10.041,12.528c-1.284,1.228-2.669,2.398-4.232,3.256c-0.66,0.347-1.371,0.665-2.126,0.7
			c-0.357,0.013-0.729-0.065-1.016-0.286l-0.024-0.019l-0.024-0.019l-0.023-0.02l-0.023-0.021l-0.023-0.021l-0.022-0.022
			l-0.022-0.022l-0.022-0.023l-0.021-0.024l-0.021-0.024l-0.021-0.025l-0.02-0.025l-0.02-0.026l-0.02-0.027l-0.019-0.027
			l-0.019-0.028l-0.019-0.028c-0.27-0.428-0.386-0.935-0.454-1.431c-0.123-0.975-0.057-1.976,0.055-2.949
			c0.402-3.158,1.351-6.261,2.445-9.242c4.196-11.496,12.839-21.943,20.043-31.719c3.287-4.516,6.361-9.303,8.722-14.372
			c2.641-5.578,4.502-11.626,6.162-17.562c4.294-15.652,8.214-33.551,15.192-48.174c2.862-6.007,6.308-11.852,10.802-16.789
			c2.024-2.218,4.296-4.263,6.779-5.954c2.667-1.82,5.598-3.278,8.634-4.374c4.955-1.789,10.241-2.665,15.501-2.796
			c4.9-0.176,10.689,0.714,15.587,0.927c1.89,0.068,3.823,0.018,5.686-0.329c2.221-0.404,4.383-1.19,6.468-2.043l5.986-2.527
			c4.321-1.773,8.982-3.138,13.508-4.295c7.078-1.797,14.919-3.268,22.139-4.452c10.884-1.816,28.011-3.691,39.135-4.955
			c10.222-1.105,28.137-3.199,38.201-3.789c8.208-0.656,19.168-0.242,27.266-1.728c3.882-0.691,7.606-2.156,11.143-3.869
			c3.739-1.833,9.019-4.576,12.842-6.071c4.033-1.61,8.397-2.868,12.596-3.978l16.028-3.983c3.226-0.859,6.58-1.819,9.654-3.119
			c2.103-0.892,4.158-1.976,5.957-3.393c1.862-1.44,3.351-3.31,4.666-5.247l2.48-3.726c1.418-2.116,3.097-4.11,4.858-5.948
			c3.923-4.002,21.333-20.904,25.141-24.63c2.902-2.767,6.091-5.722,9.188-8.257c1.851-1.507,3.817-3.01,5.851-4.26
			c1.977-1.235,4.386-2.361,6.446-3.459c1.077-0.584,2.145-1.237,3.09-2.019c0.822-0.675,1.561-1.465,2.202-2.313
			c1.521-2.017,2.642-4.33,3.583-6.666c1.259-3.17,2.192-6.501,2.853-9.846c0.634-3.237,1.187-7.405,2.482-10.419
			c1.343-3.195,3.653-6.33,5.344-9.349c0.585-1.038,1.143-2.136,1.589-3.24c0.539-1.304,1.142-3.251,1.692-4.551
			c0.256-0.591,0.543-1.185,0.963-1.677c0.269-0.315,0.612-0.579,1.013-0.698c1.209-0.351,2.419,0.411,3.204,1.283
			c1.26,1.421,1.803,3.311,2.264,5.115c0.912,3.666,1.356,8.996,2.289,12.656c0.226,0.866,0.516,1.731,0.922,2.53
			c0.917-3.864,2.409-7.611,4.119-11.188c1.981-4.113,4.581-8.141,8.474-10.672c0.588-0.383,1.207-0.736,1.857-1.003
			c0.407-0.164,0.833-0.304,1.272-0.341c0.39-0.035,0.802,0.037,1.065,0.352c0.375,0.454,0.415,1.136,0.433,1.703
			c-0.061,3.914-1.422,9.471-2.1,13.372c-0.188,1.126-0.379,2.311-0.079,3.434c0.139,0.526,0.399,1.015,0.716,1.454
			c0.624,0.883,1.73,1.903,2.492,2.681c0.825,0.816,1.521,1.765,2.062,2.792l0.663,1.266c3.871,0.65,7.67,1.891,11.31,3.341
			c4.568,1.834,9.122,4.082,13.389,6.533c2.471,1.437,5.015,3.014,7.29,4.742c1.771,1.338,3.425,2.896,4.585,4.805
			c1.07,1.72,1.955,3.852,2.922,5.632c0.933,1.736,2.033,3.422,3.466,4.789c1.659,1.618,3.815,2.617,6.019,3.26
			c4.701,1.413,11.254,1.602,16.152,2.077c2.242,0.225,4.596,0.516,6.804,0.959c1.899-0.047,3.842,0.027,5.698,0.454
			c0.545,0.139,1.103,0.321,1.538,0.691c0.322,0.27,0.553,0.633,0.727,1.012c0.491,1.127,0.743,2.367,0.98,3.568
			c0.39,2.265,0.651,4.631,0.233,6.909c-0.174,0.836-0.462,1.707-1.105,2.3c0.177,2.788,0.226,5.635-0.039,8.419
			c-0.265,2.73-0.91,5.472-2.254,7.882c-1.513,2.785-3.94,4.94-6.536,6.698c-4.226,2.886-10.253,5.678-14.819,8.065
			c-4.002,2.031-8.032,5.018-12.075,6.965c-2.053,0.978-4.255,1.671-6.509,1.982c-7.427,0.972-15.492-0.396-22.942,0.246
			c-3.846,0.3-7.979,1.357-11.761,2.119C562.673,305.301,559.861,305.692,557.078,305.465z"/>
	</g>
</g>
</svg>
