<?xml version="1.0" encoding="utf-8"?>
<!-- Generator: Adobe Illustrator 25.4.1, SVG Export Plug-In . SVG Version: 6.00 Build 0)  -->
<!DOCTYPE svg PUBLIC "-//W3C//DTD SVG 1.1//EN" "http://www.w3.org/Graphics/SVG/1.1/DTD/svg11.dtd" [
	<!ENTITY ns_extend "http://ns.adobe.com/Extensibility/1.0/">
	<!ENTITY ns_ai "http://ns.adobe.com/AdobeIllustrator/10.0/">
	<!ENTITY ns_graphs "http://ns.adobe.com/Graphs/1.0/">
	<!ENTITY ns_vars "http://ns.adobe.com/Variables/1.0/">
	<!ENTITY ns_imrep "http://ns.adobe.com/ImageReplacement/1.0/">
	<!ENTITY ns_sfw "http://ns.adobe.com/SaveForWeb/1.0/">
	<!ENTITY ns_custom "http://ns.adobe.com/GenericCustomNamespace/1.0/">
	<!ENTITY ns_adobe_xpath "http://ns.adobe.com/XPath/1.0/">
]>
<svg version="1.1" xmlns:x="&ns_extend;" xmlns:i="&ns_ai;" xmlns:graph="&ns_graphs;"
	 xmlns="http://www.w3.org/2000/svg" xmlns:xlink="http://www.w3.org/1999/xlink" x="0px" y="0px" width="750px" height="750px"
	 viewBox="0 0 750 750" enable-background="new 0 0 750 750" xml:space="preserve">
<metadata>
	<sfw  xmlns="&ns_sfw;">
		<slices></slices>
		<sliceSourceBounds  bottomLeftOrigin="true" height="10237.062" width="5559" x="-2000" y="-1314"></sliceSourceBounds>
	</sfw>
</metadata>
<g id="FILL-BACKGROUND">
	<rect fill="#FFFFFF" width="750" height="750"/>
</g>
<g id="N-DIMENSIONS">
</g>
<g id="N-TEXT">
</g>
<g id="_x32_D_x24_AG-DIAGRAM">
	<g id="POLYLINE_00000148641826850237721600000016475632799248898236_">
		<g>
			<g>
				
					<line fill="none" stroke="#FB8604" stroke-width="3.25" stroke-linecap="round" stroke-linejoin="round" x1="92.28" y1="620.966" x2="94.28" y2="620.966"/>
				
					<line fill="none" stroke="#FB8604" stroke-width="3.25" stroke-linecap="round" stroke-linejoin="round" stroke-dasharray="3.9625,6.9343" x1="101.214" y1="620.966" x2="566.307" y2="620.966"/>
				
					<line fill="none" stroke="#FB8604" stroke-width="3.25" stroke-linecap="round" stroke-linejoin="round" x1="569.774" y1="620.966" x2="571.774" y2="620.966"/>
			</g>
		</g>
	</g>
</g>
<g id="_x32_D_x24_AG-DETAILS-DIAGRAM">
</g>
<g id="_x32_D_x24_AG-DETAILS">
</g>
<g id="_x32_D_x24_AG-ANIMALS">
	<g id="POLYLINE_00000048487569898831683480000006155050067295070897_">
		
			<path fill="none" stroke="#FB8604" stroke-width="2.75" stroke-linecap="round" stroke-linejoin="round" stroke-miterlimit="10" d="
			M276.434,487.273c1.013,1.404,2.193,2.739,3.648,3.695c0.668,0.424,1.427,0.775,2.232,0.775c0.984,0.001,1.804-0.649,2.522-1.254
			l1.124-0.978c0.662-0.555,1.386-1.095,2.239-1.304c0.55-0.139,1.133-0.098,1.672,0.069c0.746,0.227,1.435,0.622,2.085,1.047
			c2.303,1.505,4.671,3.993,6.975,5.496c0.486,0.299,1.004,0.589,1.575,0.674l0.033,0.004l0.032,0.004l0.032,0.003l0.032,0.002
			l0.032,0.002l0.031,0.001l0.031,0l0.031,0l0.031-0.001c0.662-0.028,1.145-0.558,1.527-1.044l0.472-0.616
			c0.237-0.29,0.504-0.628,0.884-0.719l0.018-0.004l0.018-0.003l0.018-0.003l0.018-0.002l0.019-0.002l0.019-0.001l0.019-0.001
			l0.019,0l0.019,0l0.019,0l0.019,0.001l0.019,0.001l0.019,0.002l0.019,0.002l0.019,0.003l0.02,0.003l0.02,0.003l0.02,0.004
			l0.02,0.004l0.02,0.005l0.02,0.005l0.02,0.006c0.291,0.086,0.544,0.266,0.777,0.455c0.586,0.493,1.083,1.106,1.561,1.701
			l2.593,3.392c1.502,1.911,3.27,3.744,5.549,4.698c1.111,0.464,2.356,0.682,3.548,0.441c1.215-0.229,2.351-0.994,3.522-1.357
			c0.344-0.099,0.712-0.154,1.066-0.078c0.718,0.166,1.263,0.77,1.748,1.289c0.896,1.007,1.816,2.139,2.948,2.885
			c1.66,1.102,3.669,1.598,5.645,1.673c1.606,0.054,3.233-0.181,4.747-0.725c1.497-0.515,3.23-1.648,4.603-2.444
			c1.291-0.734,2.754-1.487,4.283-1.223c0.655,0.11,1.26,0.416,1.803,0.789c1.246,0.869,2.281,2.037,3.282,3.169
			c1.604,1.807,3.447,4.27,5.423,5.662c0.515,0.352,1.082,0.657,1.699,0.78c1.275,0.252,2.494-0.417,3.535-1.081l1.197-0.787
			c0.519-0.32,1.143-0.729,1.771-0.724c0.238,0.005,0.468,0.094,0.666,0.223c0.596,0.4,1.083,1.145,1.541,1.691
			c0.577,0.707,1.264,1.399,2.165,1.658c0.574,0.167,1.185,0.164,1.775,0.102c1.254-0.144,2.479-0.55,3.666-0.968
			c1.431-0.499,3.58-1.435,5.054-1.697c0.31-0.05,0.631-0.08,0.943-0.024c0.243,0.042,0.476,0.146,0.668,0.302
			c0.358,0.293,0.582,0.713,0.793,1.116c0.391,0.772,0.832,1.716,1.323,2.418c0.64,0.948,1.393,1.829,2.19,2.648
			c1.253,1.27,2.635,2.454,4.211,3.305c0.543,0.285,1.119,0.532,1.725,0.641c0.405,0.072,0.834,0.072,1.221-0.079
			c0.843-0.321,1.329-1.158,1.925-1.782c0.12-0.117,0.254-0.235,0.421-0.277l0.009-0.002l0.009-0.002l0.009-0.002l0.009-0.001
			l0.009-0.001l0.009-0.001l0.009-0.001l0.009-0.001l0.009-0.001l0.009,0l0.009,0l0.009,0l0.009,0l0.009,0l0.009,0l0.009,0.001
			l0.009,0.001l0.009,0.001l0.009,0.001l0.009,0.001l0.009,0.001c0.313,0.06,0.571,0.366,0.771,0.598
			c0.464,0.57,0.967,1.345,1.423,1.921c0.432,0.559,0.922,1.086,1.445,1.562c2.276,2.047,5.067,3.448,7.879,4.607"/>
	</g>
	<g id="POLYLINE_00000173127131369392152100000014663446356203713937_">
		
			<path fill="none" stroke="#FB8604" stroke-width="2.75" stroke-linecap="round" stroke-linejoin="round" stroke-miterlimit="10" d="
			M482.962,197.74c-7.917,6.712-14.857,14.734-19.576,24.022c-4.426,8.56-7.189,18.527-12.851,26.417
			c-2.574,3.597-5.915,6.612-9.586,9.06c-4.286,2.872-9.053,5.034-13.945,6.65l-8.672,2.784c-2.951,0.992-5.935,2.144-8.74,3.491
			c-5.159,2.392-14.196,8.015-19.204,10.957c-3.976,2.321-8.11,4.586-12.566,5.832c-3.092,0.879-6.343,1.268-9.546,1.473
			c-4.544,0.286-9.492,0.243-14.049,0.136l-20.378-0.809c-10.725-0.436-25.714,1.066-36.529,1.889
			c-1.417,0.092-4.278,0.241-5.699,0.298c-5.735,0.079-18.844,0.263-24.295,0.638c-4.151,0.271-8.622,0.751-12.734,1.389
			c-6.408,1.011-12.92,2.429-19.109,4.365c-4.57,1.438-9.133,3.182-13.354,5.46c-2.935,1.581-5.74,3.469-8.323,5.577
			c-3.349,2.726-6.442,5.919-9.309,9.145c-8.788,10.073-17.272,21.266-25.077,32.123c-5.266,7.517-10.946,15.479-15.13,23.647
			c-5.417,10.528-8.983,22.019-11.942,33.45c-0.911,3.583-2.333,9.67-3.168,13.276c-0.239,1.052-0.483,2.249-0.663,3.314
			c-0.496,2.845-0.844,6.327-1.174,9.196c-0.239,2.423-0.53,5.25-0.535,7.693c0.003,0.759,0.018,1.547,0.137,2.3
			c0.056,0.32,0.122,0.653,0.271,0.945l0.012,0.022l0.012,0.022l0.012,0.021l0.012,0.02l0.013,0.02l0.013,0.019l0.013,0.019
			l0.013,0.018l0.013,0.017l0.014,0.017l0.014,0.016l0.014,0.015l0.014,0.015l0.014,0.014l0.015,0.013l0.015,0.013l0.015,0.012
			l0.015,0.011l0.016,0.01l0.016,0.01l0.016,0.009l0.016,0.008l0.016,0.008l0.017,0.007l0.017,0.006l0.017,0.005l0.017,0.005
			l0.017,0.004l0.018,0.003l0.018,0.002l0.018,0.002l0.018,0.001l0.019,0l0.019-0.001l0.019-0.001l0.019-0.002l0.013-0.002
			l0.013-0.002l0.013-0.002l0.013-0.003l0.013-0.003l0.013-0.003l0.014-0.004l0.014-0.004l0.014-0.004l0.014-0.005l0.014-0.005
			c0.434-0.179,0.821-0.624,1.131-0.969c0.804-0.92,1.585-2.132,2.376-3.064c0.111-0.122,0.224-0.25,0.363-0.342l0.009-0.006
			l0.009-0.005l0.009-0.005l0.008-0.004l0.008-0.004l0.008-0.004l0.007-0.003l0.007-0.003l0.007-0.003l0.007-0.003l0.007-0.002
			l0.007-0.002l0.007-0.002l0.007-0.002l0.007-0.001l0.006-0.001l0.006-0.001l0.006-0.001l0.006,0l0.006,0l0.006,0l0.006,0
			l0.006,0.001l0.006,0.001l0.006,0.001l0.005,0.001l0.005,0.002l0.005,0.002l0.005,0.002l0.005,0.002l0.005,0.003l0.005,0.003
			l0.005,0.003l0.005,0.003l0.005,0.004l0.004,0.004l0.004,0.004l0.004,0.004l0.004,0.004l0.004,0.005l0.004,0.005l0.004,0.005
			l0.004,0.005l0.004,0.006l0.004,0.006l0.004,0.006l0.003,0.006l0.003,0.007l0.003,0.007l0.003,0.007l0.003,0.007l0.003,0.007
			l0.003,0.008l0.003,0.008c0.026,0.077,0.036,0.159,0.042,0.24c0.024,0.431-0.038,0.896-0.083,1.326
			c-0.169,1.344-0.42,3.103-0.512,4.413c-0.115,1.445-0.16,3.109-0.174,4.566c-0.034,2.336,0.17,9.028,0.228,11.482
			c0.011,0.66,0.074,9.208,0.103,9.477c0.044,1.333,0.113,2.71,0.316,4.028c0.118,0.734,0.273,1.477,0.567,2.163
			c0.256,0.594,0.642,1.144,1.277,1.361c0.62,0.226,1.33,0.178,1.974,0.286c0.365,0.062,0.693,0.197,0.915,0.508
			c0.2,0.274,0.304,0.605,0.378,0.932c0.103,0.471,0.143,0.968,0.174,1.449c0.065,1.521,0.129,3.264,0.321,4.768
			c0.619,4.764,1.519,10.076,1.432,14.876c-0.085,9.679-1.885,19.403-5.323,28.454c-2.818,7.691-7.755,16.337-11.076,23.829
			c-0.654,1.547-1.333,3.169-1.664,4.822c-0.082,0.456-0.143,0.931-0.078,1.393l0.006,0.037l0.006,0.036l0.007,0.036l0.008,0.035
			l0.008,0.034l0.009,0.034l0.009,0.033l0.01,0.032l0.011,0.032l0.011,0.031l0.012,0.03l0.012,0.03l0.013,0.029l0.014,0.028
			c0.171,0.354,0.527,0.561,0.874,0.714c0.366,0.168,0.817,0.307,1.061,0.647l0.01,0.014l0.009,0.014l0.009,0.014l0.009,0.014
			l0.009,0.015l0.008,0.015c0.238,0.449,0.168,1.012,0.089,1.496c-0.432,2.134-1.754,5.003-2.464,7.07
			c-2.091,5.769-4.165,14.702-5.97,20.605c-1.907,4.275-4.253,8.396-7.007,12.182c-2.515,3.427-5.445,7.231-7.019,11.205
			c-0.417,1.099-0.847,2.327-0.532,3.503c0.082,0.3,0.216,0.587,0.379,0.852c0.519,0.852,1.347,1.469,2.246,1.875
			c1.15,0.523,2.414,0.783,3.66,0.955c1.959,0.259,4.067,0.315,6.045,0.365c2.929,0.05,114.605,0.144,115.046-0.019
			c1.346-0.064,2.774-0.158,4.103-0.397c0.781-0.142,1.569-0.333,2.298-0.651c0.826-0.356,1.582-0.901,2.111-1.635
			c0.553-0.756,0.847-1.673,0.989-2.592c0.368-2.612-0.017-5.323-0.827-7.819c-0.524-1.667-1.498-3.414-2.113-5.049
			c-0.328-0.858-0.538-1.765-0.594-2.682c-0.086-1.452,0.096-2.933,0.3-4.369c2.774-15.755,7.351-36.846,10.739-52.527
			c0.444-2.187,0.886-4.582,1.149-6.79c0.272-2.544,0.527-5.388,0.958-7.907c0.158-0.903,0.296-1.89,0.551-2.769
			c0.068-0.209,0.143-0.425,0.282-0.599c0.06-0.073,0.138-0.135,0.23-0.163c0.259-0.074,0.581,0.079,0.834,0.143
			c0.231,0.065,0.482,0.111,0.717,0.038c0.27-0.082,0.477-0.294,0.628-0.524c0.277-0.43,0.42-0.932,0.529-1.427
			c0.116-0.542,0.18-1.122,0.228-1.675c0.182-2.329,0.166-5.43,0.46-7.741c0.218-1.711,0.859-6.692,1.016-8.297
			c0.13-1.177,0.723-7.918,0.906-8.908c0.093-0.542,0.195-1.1,0.441-1.597c0.124-0.246,0.3-0.465,0.513-0.638
			c0.392-0.317,0.885-0.531,1.203-0.934c0.269-0.327,0.431-0.728,0.563-1.127c0.268-0.843,0.402-1.747,0.512-2.623
			c0.464-4.164,0.413-8.974,0.468-13.181c0.007-3.038-0.108-6.176-0.528-9.185c-0.341-2.57-0.956-5.17-1.661-7.665
			c-1.937-6.754-4.532-14.31-5.513-21.269c-1.376-9.656-0.749-19.627,0.023-29.315"/>
	</g>
	<g id="POLYLINE_00000115492113990202096950000008012025807554179516_">
		
			<path fill="none" stroke="#FB8604" stroke-width="2.75" stroke-linecap="round" stroke-linejoin="round" stroke-miterlimit="10" d="
			M409.303,378.172c-1.565,9.197-3.173,18.782-2.292,28.116c0.305,3.402,1.068,6.795,2.049,10.064
			c1.258,4.204,3.238,9.707,4.326,13.936c0.797,3.037,1.422,6.187,1.761,9.308c1.082,9.518-0.658,19.186-2.419,28.524
			c-0.767,4.108-3.074,14.339-3.419,18.412c-0.056,0.73-0.103,1.486,0.009,2.213l0.011,0.061l0.012,0.059l0.013,0.058l0.013,0.056
			l0.014,0.054l0.015,0.052l0.016,0.05l0.017,0.048l0.018,0.046l0.019,0.044l0.02,0.042l0.02,0.04l0.021,0.038l0.022,0.036
			l0.023,0.034l0.024,0.032l0.025,0.03l0.026,0.028l0.027,0.026l0.028,0.024l0.029,0.022l0.03,0.02l0.031,0.018l0.032,0.016
			l0.033,0.014l0.034,0.011l0.01,0.003l0.01,0.003l0.01,0.003l0.011,0.002l0.011,0.002l0.011,0.002l0.011,0.002
			c0.152,0.025,0.308-0.003,0.454-0.045c0.267-0.079,0.52-0.209,0.763-0.344c0.563-0.308,1.218-0.789,1.816-1.023
			c0.118-0.042,0.242-0.078,0.368-0.076l0.01,0l0.01,0l0.009,0.001l0.009,0.001l0.009,0.001l0.013,0.002l0.013,0.002l0.013,0.003
			l0.013,0.003l0.013,0.003l0.012,0.004l0.012,0.004l0.012,0.004l0.012,0.005l0.012,0.005l0.011,0.005l0.011,0.006l0.011,0.006
			l0.011,0.007l0.011,0.007l0.01,0.007l0.01,0.008l0.01,0.008l0.01,0.008l0.01,0.009l0.009,0.009l0.009,0.009l0.009,0.01l0.009,0.01
			l0.009,0.01l0.009,0.011l0.008,0.011l0.008,0.011l0.008,0.012l0.008,0.012l0.008,0.012l0.007,0.013l0.007,0.013l0.007,0.013
			l0.007,0.014l0.007,0.014l0.007,0.014l0.006,0.015c0.123,0.312,0.121,0.658,0.115,0.989c-0.112,2.245-1.408,6.887-1.872,9.131
			c-1.916,8.847-3.15,19.534-4.364,28.554c-0.466,4.014-1.039,9.084-1.255,13.082c-0.113,2.148-0.201,4.404-0.05,6.549
			c0.083,0.957,0.173,1.945,0.543,2.841l0.023,0.05l0.023,0.049l0.024,0.047l0.024,0.046l0.024,0.044l0.025,0.043l0.025,0.041
			l0.026,0.04l0.026,0.038l0.027,0.036l0.027,0.035l0.028,0.033l0.028,0.032l0.029,0.03l0.029,0.028l0.03,0.027l0.03,0.025
			l0.031,0.023l0.031,0.022l0.032,0.02l0.032,0.018l0.033,0.017l0.033,0.015c0.144,0.061,0.305,0.072,0.459,0.053
			c0.533-0.07,1.082-0.424,1.557-0.661c0.271-0.131,0.612-0.315,0.919-0.273l0.017,0.003l0.016,0.004l0.016,0.004l0.016,0.005
			l0.016,0.005l0.016,0.006l0.015,0.006l0.015,0.007l0.015,0.007l0.015,0.008l0.014,0.008l0.014,0.009l0.014,0.009l0.014,0.01
			l0.013,0.01l0.013,0.011l0.013,0.011l0.013,0.012l0.013,0.012l0.012,0.013l0.012,0.013l0.012,0.014l0.012,0.014l0.012,0.015
			l0.011,0.015l0.011,0.016l0.011,0.016l0.011,0.017l0.011,0.017l0.01,0.018l0.01,0.018l0.01,0.019l0.01,0.019
			c0.143,0.296,0.192,0.63,0.23,0.954c0.183,1.684-0.211,5.917-0.283,7.683c-0.326,5.218,0.27,10.482,1.398,15.576
			c0.757,3.583,2.515,9.66,3.502,13.261c2.046,7.245,4.583,14.745,7.153,21.818c0.963,2.476,2.05,4.965,3.551,7.167
			c0.677,0.982,1.459,1.911,2.385,2.667c0.477,0.39,0.998,0.742,1.564,0.99c0.704,0.314,1.469,0.48,2.229,0.59
			c1.593,0.228,3.34,0.239,4.95,0.279l105.164,0.027c0.214-0.01,0.641,0.006,0.853-0.005c0.532-0.014,1.081-0.027,1.59-0.196
			c0.475-0.151,0.862-0.492,1.125-0.909c0.394-0.616,0.627-1.33,0.847-2.023c0.551-1.823,0.921-3.76,1.191-5.645
			c0.385-2.879,0.608-5.905-0.345-8.699c-0.61-1.786-1.663-3.395-2.743-4.929c-0.808-1.171-1.943-2.432-2.667-3.657
			c-0.164-0.299-0.302-0.619-0.355-0.958c-0.046-0.289-0.02-0.585,0.023-0.872l0.111-0.683c0.062-0.41,0.088-0.83,0.039-1.243
			c-0.056-0.485-0.204-0.961-0.38-1.415c-0.498-1.258-1.223-2.436-1.969-3.561c-1.263-1.912-2.851-3.616-4.691-4.984
			c-3.929-2.927-9.444-5.419-13.853-7.605c-1.504-0.768-3.056-1.566-4.36-2.649c-1.354-1.115-2.418-2.551-3.283-4.068
			c-1.061-1.874-1.837-3.923-2.256-6.036c-0.345-1.717-0.468-3.551-0.555-5.3c-0.071-2.274-0.328-6.372-0.195-8.61
			c0.168-3.741,0.738-7.654,1.307-11.356c0.494-3.044,1.281-7.652,1.927-10.661c0.697-3.399,1.771-10.754,2.903-14.003
			c0.159-0.425,0.322-0.873,0.606-1.234l0.015-0.018l0.015-0.017l0.015-0.016l0.015-0.016l0.015-0.015l0.015-0.014l0.015-0.014
			l0.015-0.013l0.015-0.012l0.015-0.012l0.015-0.011l0.015-0.01l0.015-0.01l0.015-0.009l0.015-0.008l0.015-0.008l0.015-0.007
			l0.015-0.006l0.015-0.005l0.015-0.005l0.015-0.004l0.015-0.003l0.015-0.002l0.015-0.002l0.015-0.001l0.015,0l0.015,0.001l0.006,0
			l0.006,0.001l0.006,0.001l0.006,0.001l0.006,0.001l0.006,0.001l0.006,0.001l0.006,0.001l0.006,0.001l0.006,0.001l0.006,0.002
			c0.079,0.022,0.149,0.07,0.211,0.122c0.23,0.2,0.415,0.499,0.594,0.746c0.133,0.185,0.271,0.383,0.441,0.535
			c0.072,0.063,0.154,0.121,0.248,0.145l0.016,0.004l0.016,0.003l0.016,0.002l0.016,0.001l0.016,0.001l0.016,0l0.016-0.001
			l0.016-0.002l0.016-0.002l0.016-0.003l0.016-0.004l0.016-0.005l0.016-0.005l0.016-0.006l0.016-0.007l0.016-0.008l0.016-0.008
			l0.016-0.009l0.016-0.01l0.016-0.01l0.016-0.011l0.016-0.012l0.016-0.012l0.016-0.013l0.016-0.014l0.016-0.015l0.016-0.015
			l0.016-0.016l0.016-0.017l0.016-0.017l0.016-0.018c0.312-0.366,0.496-0.825,0.673-1.267c1.142-3.204,1.714-6.983,2.316-10.341
			l2.223-14.658c0.485-2.937,1.095-5.969,1.88-8.84c0.421-1.492,0.87-3.034,1.533-4.438c0.224-0.446,0.508-1.011,0.921-1.305
			l0.014-0.009l0.014-0.009l0.014-0.008l0.014-0.008l0.013-0.007l0.014-0.007l0.013-0.007l0.013-0.006l0.013-0.006l0.013-0.006
			l0.013-0.005l0.013-0.005l0.013-0.004l0.013-0.004l0.013-0.004l0.013-0.003l0.013-0.003l0.013-0.003l0.013-0.002l0.013-0.002
			l0.013-0.001l0.013-0.001l0.013-0.001l0.013,0l0.013,0l0.013,0.001l0.013,0.001l0.013,0.002l0.013,0.002l0.013,0.002
			c0.084,0.016,0.162,0.058,0.232,0.106c0.299,0.218,0.518,0.554,0.777,0.815c0.151,0.15,0.327,0.314,0.551,0.326l0.016,0l0.016,0
			l0.016-0.001l0.016-0.001l0.016-0.002l0.016-0.003l0.016-0.003l0.016-0.004l0.016-0.004l0.016-0.005l0.016-0.006l0.016-0.006
			l0.016-0.007l0.017-0.007l0.017-0.008l0.017-0.008l0.017-0.009l0.017-0.009l0.017-0.01l0.017-0.011l0.017-0.011l0.017-0.012
			l0.017-0.012l0.017-0.013l0.017-0.013c0.221-0.18,0.388-0.418,0.541-0.656c0.562-0.92,0.947-1.962,1.314-2.972
			c0.818-2.326,1.499-4.887,2.1-7.281c0.659-2.648,1.247-5.436,1.483-8.155c0.29-3.161,0.294-6.685,0.307-9.869
			c-0.016-7.151-0.309-15.509-0.714-22.659c-0.015-0.593-0.049-1.219,0.029-1.808c0.016-0.102,0.036-0.207,0.08-0.301l0.004-0.007
			l0.004-0.007l0.004-0.007l0.004-0.007l0.004-0.006l0.004-0.006l0.004-0.006l0.004-0.006l0.004-0.005l0.004-0.005l0.004-0.005
			l0.004-0.005l0.004-0.005l0.004-0.004l0.004-0.004l0.004-0.004l0.005-0.004l0.005-0.003l0.005-0.003l0.005-0.003l0.005-0.003
			l0.005-0.003l0.005-0.002l0.005-0.002l0.005-0.002l0.005-0.002l0.005-0.001l0.005-0.001l0.005-0.001l0.005-0.001l0.005,0l0.005,0
			h0.005l0.006,0l0.006,0l0.006,0.001l0.006,0.001l0.006,0.001l0.006,0.001l0.006,0.002l0.006,0.002l0.006,0.002l0.006,0.002
			l0.006,0.003l0.006,0.003c0.05,0.024,0.093,0.061,0.133,0.099c0.26,0.26,0.499,0.628,0.746,0.9
			c0.147,0.159,0.311,0.341,0.525,0.405l0.011,0.003l0.011,0.002l0.011,0.002l0.011,0.002l0.011,0.001l0.011,0.001l0.011,0.001
			l0.011,0h0.011l0.011,0l0.011-0.001l0.011-0.001l0.011-0.001l0.011-0.002l0.011-0.002l0.011-0.002l0.011-0.003l0.011-0.003
			l0.011-0.003l0.011-0.004l0.011-0.004l0.01-0.004l0.01-0.005l0.01-0.005l0.01-0.005l0.01-0.006l0.01-0.006l0.01-0.006l0.01-0.007
			l0.01-0.007l0.01-0.007l0.01-0.008l0.01-0.008l0.01-0.008l0.01-0.009l0.01-0.009l0.01-0.009l0.01-0.01
			c0.152-0.151,0.252-0.346,0.339-0.539c0.42-1.009,0.594-2.135,0.785-3.207c0.672-4.441,1.172-9.13,1.407-13.616
			c0.209-4.461,0.13-9.008-0.615-13.419"/>
	</g>
	<g id="POLYLINE_00000061444705413737596820000012597847117755564458_">
		
			<path fill="none" stroke="#FB8604" stroke-width="2.75" stroke-linecap="round" stroke-linejoin="round" stroke-miterlimit="10" d="
			M622.827,196.194c-0.932,1.835-2.101,3.584-3.585,5.019c-1.519,1.466-3.533,2.779-4.993,4.308
			c-1.767,1.852-3.812,3.967-5.838,5.511c-2.36,1.85-4.974,3.461-7.614,4.878c-3.125,1.607-6.404,3.214-9.727,4.352
			c-2.78,0.963-5.699,1.636-8.626,1.944c-4.366,0.493-10.112,0.318-14.504,0.615c-1.71,0.128-3.453,0.328-5.072,0.918
			c-1.694,0.577-3.411,1.788-4.916,2.745"/>
	</g>
	<g id="POLYLINE_00000036945898321980801320000008852382782258627210_">
		
			<path fill="none" stroke="#FB8604" stroke-width="2.75" stroke-linecap="round" stroke-linejoin="round" stroke-miterlimit="10" d="
			M549.917,178.932c1.634,2.724,3.31,5.574,4.458,8.539c0.824,2.111,1.401,4.335,1.626,6.591c0.437,4.389-0.326,9.787-0.661,14.197
			c-0.301,3.896-0.362,7.897,0.581,11.713c1.142,4.942,3.673,10.127,4.808,15.07c1.503,6.42,0.332,13.121-1.35,19.389
			c-0.699,2.571-1.782,5.75-2.025,8.356c-0.181,1.7-0.107,3.439,0.073,5.137c0.266,2.497,0.778,5.169,1.291,7.632
			c2.826,13.145,6.825,26.93,7.184,40.42c0.066,3.054-0.207,6.139-0.839,9.128c-0.808,3.926-2.163,8.189-2.225,12.218
			c-0.118,6.41,1.418,13.128,0.764,19.538c-0.215,2.069-0.54,4.177-1.324,6.115c-0.19,0.445-0.411,0.89-0.713,1.271
			c-0.167,0.209-0.364,0.402-0.604,0.524l-0.019,0.009l-0.019,0.009l-0.019,0.009l-0.019,0.008l-0.019,0.008l-0.019,0.007
			l-0.019,0.007l-0.02,0.007l-0.02,0.006l-0.02,0.006l-0.02,0.005l-0.02,0.005l-0.02,0.004l-0.02,0.004l-0.02,0.004l-0.02,0.003
			l-0.02,0.003l-0.02,0.002l-0.02,0.002l-0.02,0.001l-0.02,0.001l-0.02,0.001l-0.02,0l-0.02,0l-0.02-0.001l-0.02-0.001l-0.02-0.002
			c-0.219-0.021-0.425-0.114-0.612-0.225c-0.347-0.21-0.653-0.493-0.947-0.772c-0.539-0.512-1.165-1.215-1.802-1.597
			c-0.167-0.098-0.347-0.18-0.539-0.213l-0.025-0.004l-0.025-0.003l-0.025-0.003l-0.025-0.002l-0.025-0.002l-0.025-0.001
			l-0.025-0.001l-0.025,0l-0.025,0.001l-0.024,0.001l-0.024,0.002l-0.024,0.002l-0.024,0.003l-0.024,0.003l-0.024,0.004
			l-0.024,0.005l-0.024,0.005l-0.024,0.006l-0.024,0.006l-0.024,0.007l-0.024,0.007l-0.024,0.008l-0.024,0.008l-0.024,0.009
			l-0.024,0.01l-0.024,0.01l-0.024,0.011l-0.024,0.011l-0.024,0.012l-0.024,0.012l-0.024,0.013
			c-0.254,0.141-0.467,0.345-0.656,0.563c-0.335,0.391-0.608,0.843-0.856,1.294c-1.08,2-2.401,5.653-3.283,7.792
			c-1.113,2.746-2.396,5.513-3.814,8.112c-1.242,2.228-2.544,4.503-4.257,6.408c-0.404,0.423-0.836,0.853-1.376,1.097l-0.027,0.011
			l-0.027,0.011l-0.027,0.01l-0.027,0.009l-0.026,0.009l-0.026,0.008l-0.026,0.007l-0.026,0.007l-0.025,0.006l-0.025,0.005
			l-0.025,0.005l-0.025,0.004l-0.025,0.003l-0.024,0.002l-0.024,0.002l-0.024,0.001l-0.024,0l-0.023,0l-0.023-0.001l-0.023-0.002
			l-0.023-0.002l-0.023-0.003l-0.022-0.004l-0.022-0.005l-0.022-0.005l-0.022-0.006l-0.021-0.007l-0.021-0.007l-0.021-0.008
			l-0.021-0.009l-0.02-0.01l-0.02-0.01l-0.016-0.009l-0.016-0.01l-0.016-0.01l-0.016-0.01l-0.015-0.011l-0.015-0.011l-0.015-0.012
			l-0.015-0.012l-0.015-0.013l-0.015-0.013l-0.015-0.014l-0.014-0.014l-0.014-0.015l-0.014-0.015l-0.014-0.016l-0.014-0.016
			l-0.014-0.016l-0.013-0.017c-0.147-0.191-0.244-0.417-0.325-0.642c-0.147-0.421-0.238-0.871-0.317-1.31
			c-0.339-2.023-0.512-4.548-1.043-6.525c-0.24-0.915-0.58-1.817-1.11-2.605c-0.916-1.397-2.382-2.453-3.641-3.524
			c-1.171-0.989-2.247-2.123-3.029-3.448c-1.116-1.877-1.707-4.024-2.216-6.132c-0.984-4.02-1.536-9.663-2.47-13.7
			c-0.142-0.531-0.288-1.077-0.565-1.556l-0.019-0.03l-0.019-0.029l-0.019-0.028l-0.019-0.027l-0.019-0.026l-0.019-0.025
			l-0.019-0.024l-0.019-0.023l-0.02-0.021l-0.02-0.02l-0.02-0.019l-0.02-0.018l-0.02-0.017l-0.02-0.016l-0.02-0.015l-0.021-0.013
			l-0.021-0.012l-0.021-0.011l-0.021-0.01l-0.021-0.009l-0.021-0.007l-0.021-0.006l-0.022-0.005l-0.008-0.001l-0.008-0.001
			l-0.008-0.001l-0.008-0.001l-0.008-0.001l-0.008-0.001l-0.008,0l-0.008,0l-0.008,0h-0.008l-0.008,0l-0.008,0l-0.008,0
			l-0.008,0.001l-0.008,0.001l-0.008,0.001c-0.276,0.041-0.51,0.269-0.707,0.453c-0.377,0.36-0.766,0.87-1.21,1.149
			c-0.09,0.054-0.188,0.099-0.292,0.118l-0.015,0.002l-0.015,0.002l-0.015,0.002l-0.015,0.001l-0.015,0.001l-0.015,0l-0.015,0
			l-0.015,0l-0.015-0.001l-0.015-0.001l-0.015-0.002l-0.015-0.002l-0.015-0.002l-0.015-0.003l-0.015-0.003l-0.015-0.003
			l-0.015-0.004l-0.015-0.004l-0.015-0.005l-0.015-0.005l-0.015-0.005l-0.014-0.006l-0.015-0.006l-0.014-0.006l-0.014-0.007
			l-0.014-0.007l-0.014-0.008l-0.014-0.008l-0.014-0.008l-0.014-0.009l-0.014-0.009l-0.014-0.009
			c-0.294-0.205-0.489-0.52-0.668-0.825c-0.345-0.611-0.629-1.324-0.893-1.977c-0.692-1.749-1.411-3.726-2.378-5.334
			c-1.701-2.93-4.445-5.477-6.231-8.348c-2.694-4.338-3.318-10.142-4.336-15.066c-0.649-3.241-2.201-8.868-2.935-12.113
			c-0.865-3.725-2.092-10.401-3.025-14.085c-0.281-1.073-0.571-2.195-1.011-3.215c-0.112-0.248-0.234-0.5-0.404-0.714l-0.017-0.02
			l-0.017-0.019l-0.017-0.019l-0.017-0.018l-0.016-0.017l-0.016-0.016l-0.016-0.015l-0.016-0.015l-0.016-0.014l-0.016-0.013
			l-0.016-0.012l-0.016-0.011l-0.016-0.01l-0.016-0.01l-0.016-0.009l-0.016-0.008l-0.016-0.007l-0.016-0.006l-0.016-0.005
			l-0.016-0.004l-0.016-0.003l-0.016-0.002l-0.016-0.002l-0.016-0.001l-0.016,0l-0.016,0.001l-0.016,0.002l-0.016,0.003
			l-0.016,0.004l-0.016,0.005l-0.007,0.003l-0.007,0.003l-0.007,0.003l-0.007,0.003l-0.007,0.003l-0.007,0.003l-0.007,0.004
			l-0.007,0.004l-0.007,0.004l-0.007,0.004l-0.007,0.004l-0.007,0.005c-0.262,0.184-0.45,0.592-0.597,0.874
			c-0.271,0.534-0.565,1.287-0.953,1.742c-0.078,0.087-0.166,0.169-0.272,0.221l-0.009,0.004l-0.009,0.004l-0.015,0.006
			l-0.015,0.006l-0.015,0.005L498.172,290l-0.015,0.004l-0.015,0.004l-0.015,0.003l-0.015,0.003l-0.015,0.002l-0.015,0.002
			l-0.015,0.001l-0.015,0.001l-0.015,0l-0.015,0l-0.015-0.001l-0.015-0.001l-0.015-0.002l-0.015-0.002l-0.015-0.003l-0.015-0.003
			l-0.016-0.003l-0.016-0.004l-0.016-0.004l-0.016-0.005l-0.016-0.005l-0.016-0.006l-0.016-0.006l-0.016-0.007l-0.016-0.007
			l-0.016-0.008l-0.016-0.008l-0.016-0.008l-0.016-0.009l-0.016-0.009l-0.016-0.01l-0.016-0.01
			c-0.195-0.128-0.352-0.308-0.494-0.492c-0.251-0.333-0.459-0.708-0.647-1.08c-0.6-1.21-1.053-2.517-1.462-3.803
			c-0.61-1.948-1.112-4.026-1.495-6.032c-0.689-3.847-1.327-8.404-2.681-12.021c-1.891-5.192-5.141-11.228-7.018-16.42
			c-1.04-2.798-1.792-5.728-2.051-8.706c-0.368-3.663-0.045-8.342,0.124-12.053c0.242-4.033,0.15-13.941,0.183-18.138
			c0.115-9.55,0.86-19.396,4.816-28.214c1.486-3.36,3.406-6.549,5.741-9.389c1.98-2.419,4.29-4.58,6.778-6.469
			c6.66-5.04,14.455-8.454,22.165-11.55c5.444-2.163,11.216-3.921,17.129-3.814c3.483,0.046,6.966,0.615,10.299,1.625
			c3.015,0.924,5.951,2.221,8.536,4.039c1.989,1.384,3.676,3.184,5.228,5.032c1.916,2.284,3.959,4.92,6.41,6.645
			c1.519,1.086,3.236,1.89,4.983,2.536c2.557,0.938,5.3,1.594,7.96,2.171c3.711,0.766,10.684,2.114,14.252,3.044
			c3.545,0.899,7.335,2.029,10.791,3.223c4.351,1.538,8.781,3.235,12.779,5.556"/>
	</g>
	<g id="POLYLINE_00000112602473191058186810000013856019242403862145_">
		
			<path fill="none" stroke="#FB8604" stroke-width="2.75" stroke-linecap="round" stroke-linejoin="round" stroke-miterlimit="10" d="
			M622.597,196.288c-0.495,0.167-1.036,0.134-1.539,0.016c-0.804-0.194-1.551-0.595-2.209-1.092
			c-0.695-0.532-1.313-1.197-1.682-1.997c-0.37-0.788-0.473-1.68-0.39-2.541c0.115-1.106,0.438-2.199,0.937-3.193
			c0.393-0.751,0.946-1.512,1.779-1.796c0.523-0.179,1.095-0.088,1.603,0.1c1.005,0.382,1.873,1.062,2.63,1.813
			c0.438,0.443,0.846,0.929,1.174,1.46c0.276,0.447,0.487,0.948,0.524,1.477c0.034,0.442-0.048,0.885-0.159,1.311
			c-0.179,0.658-0.385,1.332-0.636,1.966c-0.244,0.604-0.538,1.203-0.96,1.704C623.382,195.854,623.022,196.145,622.597,196.288z"/>
	</g>
</g>
<g id="_x32_D_x24_AG-OUTLINE">
	<g id="POLYLINE_00000167354268936320369530000001017288832128353213_">
		
			<path fill="none" stroke="#FB8604" stroke-width="3.5" stroke-linecap="round" stroke-linejoin="round" stroke-miterlimit="10" d="
			M541.089,387.575c0.745,4.411,0.824,8.958,0.615,13.419c-0.234,4.486-0.735,9.175-1.407,13.616
			c-0.191,1.072-0.365,2.198-0.785,3.207c-0.088,0.193-0.187,0.388-0.339,0.539l-0.01,0.01l-0.01,0.009l-0.01,0.009l-0.01,0.009
			l-0.01,0.008l-0.01,0.008l-0.01,0.008l-0.01,0.007l-0.01,0.007l-0.01,0.007l-0.01,0.006l-0.01,0.006l-0.01,0.006l-0.01,0.005
			l-0.01,0.005l-0.01,0.005l-0.01,0.004l-0.011,0.004l-0.011,0.004l-0.011,0.003l-0.011,0.003l-0.011,0.003l-0.011,0.002
			l-0.011,0.002l-0.011,0.002l-0.011,0.001l-0.011,0.001l-0.011,0.001l-0.011,0h-0.011l-0.011,0l-0.011-0.001l-0.011-0.001
			l-0.011-0.001l-0.011-0.002l-0.011-0.002l-0.011-0.002l-0.011-0.003c-0.214-0.064-0.378-0.245-0.525-0.405
			c-0.247-0.272-0.486-0.64-0.746-0.9c-0.04-0.038-0.083-0.075-0.133-0.099l-0.006-0.003l-0.006-0.003l-0.006-0.002l-0.006-0.002
			l-0.006-0.002l-0.006-0.002l-0.006-0.001l-0.006-0.001l-0.006-0.001l-0.006-0.001l-0.006,0l-0.006,0h-0.005l-0.005,0l-0.005,0
			l-0.005,0.001l-0.005,0.001l-0.005,0.001l-0.005,0.001l-0.005,0.002l-0.005,0.002l-0.005,0.002l-0.005,0.002l-0.005,0.003
			l-0.005,0.003l-0.005,0.003l-0.005,0.003l-0.005,0.003l-0.005,0.004l-0.004,0.004l-0.004,0.004l-0.004,0.004l-0.004,0.005
			l-0.004,0.005l-0.004,0.005l-0.004,0.005l-0.004,0.005l-0.004,0.006l-0.004,0.006l-0.004,0.006l-0.004,0.006l-0.004,0.007
			l-0.004,0.007l-0.004,0.007l-0.004,0.007c-0.044,0.094-0.064,0.199-0.08,0.301c-0.078,0.589-0.044,1.215-0.029,1.808
			c0.405,7.16,0.698,15.502,0.714,22.659c-0.014,3.194-0.017,6.703-0.307,9.869c-0.236,2.719-0.824,5.507-1.483,8.155
			c-0.602,2.396-1.282,4.954-2.1,7.281c-0.367,1.01-0.752,2.052-1.314,2.972c-0.152,0.238-0.32,0.477-0.541,0.656l-0.017,0.013
			l-0.017,0.013l-0.017,0.012l-0.017,0.012l-0.017,0.011l-0.017,0.011l-0.017,0.01l-0.017,0.009l-0.017,0.009l-0.017,0.008
			l-0.017,0.008l-0.017,0.007l-0.016,0.007l-0.016,0.006l-0.016,0.006l-0.016,0.005l-0.016,0.004l-0.016,0.004l-0.016,0.003
			l-0.016,0.003l-0.016,0.002l-0.016,0.001l-0.016,0.001l-0.016,0l-0.016,0c-0.224-0.012-0.4-0.176-0.551-0.326
			c-0.258-0.261-0.478-0.597-0.777-0.815c-0.07-0.049-0.148-0.09-0.232-0.106l-0.013-0.002l-0.013-0.002l-0.013-0.002l-0.013-0.001
			l-0.013-0.001l-0.013,0l-0.013,0l-0.013,0.001l-0.013,0.001l-0.013,0.001l-0.013,0.002l-0.013,0.002l-0.013,0.003l-0.013,0.003
			l-0.013,0.003l-0.013,0.004l-0.013,0.004l-0.013,0.004l-0.013,0.005l-0.013,0.005l-0.013,0.006l-0.013,0.006l-0.013,0.006
			l-0.013,0.007l-0.014,0.007l-0.013,0.007l-0.014,0.008l-0.014,0.008l-0.014,0.009l-0.014,0.009
			c-0.413,0.294-0.697,0.859-0.921,1.305c-0.662,1.403-1.112,2.946-1.533,4.438c-0.785,2.871-1.395,5.904-1.88,8.84l-2.223,14.658
			c-0.603,3.357-1.175,7.137-2.316,10.341c-0.177,0.442-0.361,0.901-0.673,1.267l-0.016,0.018l-0.016,0.017l-0.016,0.017
			l-0.016,0.016l-0.016,0.015l-0.016,0.015l-0.016,0.014l-0.016,0.013l-0.016,0.012l-0.016,0.012l-0.016,0.011l-0.016,0.01
			l-0.016,0.01l-0.016,0.009l-0.016,0.008l-0.016,0.008l-0.016,0.007l-0.016,0.006l-0.016,0.005l-0.016,0.005l-0.016,0.004
			l-0.016,0.003l-0.016,0.002l-0.016,0.002l-0.016,0.001l-0.016,0l-0.016-0.001l-0.016-0.001l-0.016-0.002l-0.016-0.003
			l-0.016-0.004c-0.099-0.026-0.185-0.089-0.26-0.156c-0.164-0.15-0.299-0.344-0.428-0.524c-0.182-0.251-0.368-0.554-0.606-0.756
			c-0.059-0.048-0.125-0.091-0.199-0.112l-0.006-0.002l-0.006-0.001l-0.006-0.001l-0.006-0.001l-0.006-0.001l-0.006-0.001
			l-0.006-0.001l-0.006-0.001l-0.006-0.001l-0.006-0.001l-0.006,0l-0.015-0.001l-0.015,0l-0.015,0.001l-0.015,0.002l-0.015,0.002
			l-0.015,0.003l-0.015,0.004l-0.015,0.005l-0.015,0.005l-0.015,0.006l-0.015,0.007l-0.015,0.008l-0.015,0.008l-0.015,0.009
			l-0.015,0.01l-0.015,0.01l-0.015,0.011l-0.015,0.012l-0.015,0.012l-0.015,0.013l-0.015,0.014l-0.015,0.014l-0.015,0.015
			l-0.015,0.016l-0.015,0.016l-0.015,0.017l-0.015,0.018c-0.171,0.211-0.291,0.461-0.4,0.709c-0.252,0.586-0.441,1.229-0.611,1.844
			c-0.749,2.648-1.954,9.891-2.498,12.685c-0.746,3.404-1.691,9.27-2.246,12.751c-0.453,3.181-0.9,6.535-1.006,9.742
			c-0.08,2.562,0.164,6.763,0.279,9.35c0.102,1.548,0.262,3.129,0.608,4.642c0.344,1.503,0.873,2.977,1.549,4.362
			c0.848,1.718,1.912,3.367,3.31,4.689c0.733,0.692,1.569,1.284,2.433,1.8c3.261,1.886,8.317,4.06,11.579,5.933
			c2.353,1.327,4.719,2.755,6.672,4.64c1.766,1.708,3.186,3.771,4.315,5.946c0.354,0.721,0.68,1.479,0.801,2.279
			c0.066,0.448,0.043,0.908-0.025,1.355l-0.111,0.683c-0.047,0.307-0.071,0.624-0.013,0.931c0.121,0.624,0.488,1.166,0.847,1.678
			c1.852,2.486,4.004,5.026,4.976,8.016c0.837,2.62,0.666,5.433,0.326,8.125c-0.232,1.716-0.554,3.495-1,5.169
			c-0.223,0.798-0.454,1.619-0.811,2.369c-0.168,0.346-0.369,0.685-0.648,0.953c-0.221,0.214-0.493,0.371-0.786,0.464
			c-0.437,0.14-0.91,0.165-1.367,0.181c-3.705-0.008-108.561,0.094-108.561-0.081c-1.534-0.085-3.137-0.15-4.587-0.705
			c-0.701-0.271-1.336-0.695-1.909-1.178c-1.146-0.965-2.062-2.18-2.845-3.45c-1.091-1.777-1.963-3.725-2.736-5.658
			c-1.53-3.927-3.613-10.307-4.947-14.309c-1.475-4.383-3.229-11.045-4.495-15.512c-1.411-5.213-2.627-10.609-2.888-16.016
			c-0.216-3.147,0.161-7.279,0.323-10.437c0.045-0.721,0.052-1.535,0.023-2.26c-0.032-0.47-0.065-0.963-0.266-1.396l-0.01-0.019
			l-0.01-0.019l-0.01-0.018l-0.01-0.018l-0.011-0.017l-0.011-0.017l-0.011-0.016l-0.011-0.016l-0.011-0.015l-0.012-0.015
			l-0.012-0.014l-0.012-0.014l-0.012-0.013l-0.012-0.013l-0.013-0.012l-0.013-0.012l-0.013-0.011l-0.013-0.011l-0.013-0.01
			l-0.014-0.01l-0.014-0.009l-0.014-0.009l-0.014-0.008l-0.015-0.008l-0.015-0.007l-0.015-0.007l-0.015-0.006l-0.016-0.006
			l-0.016-0.005l-0.016-0.005l-0.016-0.004l-0.016-0.004l-0.017-0.003c-0.308-0.041-0.649,0.142-0.919,0.273
			c-0.477,0.238-1.023,0.59-1.557,0.661c-0.154,0.018-0.315,0.008-0.459-0.053l-0.023-0.01l-0.023-0.011l-0.023-0.012l-0.022-0.013
			l-0.022-0.013l-0.022-0.014l-0.022-0.015l-0.021-0.016l-0.021-0.017l-0.021-0.018l-0.021-0.018l-0.02-0.019l-0.02-0.02
			l-0.02-0.021l-0.02-0.021l-0.02-0.022l-0.019-0.023l-0.019-0.024l-0.019-0.025l-0.019-0.025l-0.018-0.026l-0.018-0.027
			l-0.018-0.028c-0.178-0.284-0.289-0.608-0.377-0.93c-0.157-0.585-0.239-1.201-0.298-1.802c-0.179-1.992-0.121-4.059-0.034-6.055
			c0.174-3.701,0.608-7.915,1.02-11.612c-2.859-1.179-5.7-2.606-7.994-4.713c-0.479-0.445-0.93-0.939-1.33-1.455
			c-0.456-0.576-0.959-1.351-1.423-1.921c-0.2-0.233-0.457-0.537-0.771-0.598l-0.009-0.001l-0.009-0.001l-0.009-0.001l-0.009-0.001
			l-0.009-0.001l-0.009-0.001l-0.009,0l-0.009,0l-0.009,0l-0.009,0l-0.009,0l-0.009,0l-0.009,0.001l-0.009,0.001l-0.009,0.001
			l-0.009,0.001l-0.009,0.001l-0.009,0.001l-0.009,0.002l-0.009,0.002l-0.009,0.002c-0.174,0.044-0.312,0.17-0.437,0.293
			c-0.587,0.623-1.074,1.448-1.909,1.766c-0.387,0.151-0.817,0.15-1.221,0.079c-0.606-0.109-1.182-0.356-1.725-0.641
			c-1.638-0.887-3.069-2.128-4.361-3.46c-0.739-0.774-1.441-1.605-2.04-2.493c-0.49-0.699-0.939-1.652-1.323-2.418
			c-0.211-0.403-0.435-0.823-0.793-1.116c-0.192-0.156-0.424-0.26-0.668-0.302c-0.311-0.056-0.633-0.026-0.943,0.024
			c-1.465,0.259-3.635,1.202-5.054,1.697c-1.187,0.417-2.411,0.824-3.666,0.968c-0.59,0.063-1.201,0.065-1.775-0.102
			c-0.9-0.26-1.587-0.951-2.165-1.659c-0.465-0.552-0.949-1.3-1.556-1.7c-0.199-0.128-0.431-0.213-0.67-0.214
			c-0.625,0.006-1.235,0.406-1.752,0.725l-1.197,0.787c-1.041,0.664-2.26,1.333-3.535,1.081c-0.653-0.131-1.249-0.462-1.79-0.843
			c-1.918-1.383-3.763-3.827-5.333-5.599c-1.001-1.132-2.036-2.3-3.282-3.169c-0.543-0.373-1.148-0.679-1.803-0.789
			c-1.529-0.264-2.992,0.489-4.283,1.223c-1.384,0.8-3.101,1.926-4.603,2.444c-1.514,0.544-3.14,0.78-4.747,0.725
			c-1.976-0.074-3.985-0.57-5.645-1.673c-1.131-0.744-2.055-1.879-2.948-2.885c-0.488-0.522-1.04-1.133-1.765-1.292
			c-0.349-0.072-0.711-0.017-1.05,0.081c-1.171,0.363-2.306,1.128-3.522,1.357c-1.191,0.241-2.436,0.023-3.548-0.441
			c-2.279-0.954-4.046-2.787-5.549-4.698l-2.593-3.392c-0.479-0.595-0.975-1.208-1.561-1.701c-0.232-0.19-0.486-0.369-0.777-0.455
			l-0.02-0.006l-0.02-0.005l-0.02-0.005l-0.02-0.004l-0.02-0.004l-0.02-0.003l-0.02-0.003l-0.019-0.003l-0.019-0.002l-0.019-0.002
			l-0.019-0.001l-0.019-0.001l-0.019,0l-0.019,0l-0.019,0l-0.019,0.001l-0.019,0.001l-0.019,0.002l-0.018,0.002l-0.018,0.003
			l-0.018,0.003l-0.018,0.004c-0.381,0.091-0.648,0.429-0.884,0.719l-0.472,0.616c-0.382,0.487-0.866,1.017-1.527,1.044
			l-0.031,0.001l-0.031,0l-0.031,0l-0.031-0.001l-0.032-0.002l-0.032-0.002l-0.032-0.003l-0.032-0.004l-0.033-0.004
			c-0.571-0.085-1.09-0.375-1.575-0.674c-2.379-1.553-4.771-4.104-7.172-5.624c-0.591-0.373-1.216-0.716-1.888-0.919
			c-0.539-0.167-1.122-0.208-1.672-0.069c-0.852,0.209-1.577,0.749-2.239,1.304l-1.124,0.978c-0.718,0.604-1.537,1.255-2.522,1.254
			c-0.805,0-1.564-0.351-2.232-0.775c-1.456-0.956-2.635-2.292-3.648-3.695c-0.083,1.217-0.19,2.48-0.408,3.68
			c-0.106,0.561-0.235,1.13-0.447,1.662c-0.147,0.37-0.352,0.727-0.654,0.993c-0.358,0.326-0.837,0.52-1.169,0.877
			c-0.31,0.322-0.471,0.752-0.583,1.177c-0.165,0.633-0.25,1.314-0.326,1.963c-0.422,4.583-1.14,11.582-1.777,16.123
			c-0.293,2.305-0.278,5.415-0.46,7.741c-0.049,0.553-0.111,1.132-0.228,1.675c-0.109,0.495-0.252,0.997-0.529,1.427
			c-0.151,0.23-0.358,0.443-0.628,0.524c-0.235,0.072-0.486,0.027-0.717-0.038c-0.253-0.065-0.579-0.219-0.838-0.142
			c-0.094,0.029-0.172,0.095-0.232,0.171c-0.135,0.172-0.208,0.384-0.275,0.59c-0.256,0.878-0.394,1.867-0.551,2.769
			c-0.431,2.516-0.687,5.365-0.958,7.907c-0.262,2.206-0.706,4.609-1.149,6.79c-3.393,15.713-7.964,36.756-10.739,52.527
			c-0.208,1.437-0.386,2.917-0.3,4.369c0.055,0.917,0.268,1.824,0.594,2.682c0.614,1.636,1.583,3.382,2.113,5.049
			c0.811,2.499,1.194,5.206,0.827,7.819c-0.142,0.919-0.436,1.836-0.989,2.592c-0.517,0.716-1.25,1.254-2.053,1.609
			c-0.746,0.333-1.554,0.53-2.356,0.676c-1.331,0.238-2.751,0.334-4.104,0.397c-2.835,0.143-113.868,0.096-115.046,0.019
			c-2.082-0.056-4.295-0.109-6.359-0.41c-2.329-0.354-5.222-1.15-5.979-3.664c-0.139-0.518-0.123-1.066-0.03-1.591
			c0.125-0.712,0.378-1.408,0.646-2.077c1.719-4.214,4.874-8.132,7.512-11.813c2.516-3.554,4.66-7.409,6.438-11.382
			c1.911-6.247,3.961-15.279,6.244-21.354c0.633-1.761,1.844-4.507,2.19-6.321c0.079-0.483,0.148-1.047-0.089-1.496l-0.008-0.015
			l-0.009-0.015l-0.009-0.014l-0.009-0.014l-0.009-0.014l-0.01-0.014c-0.244-0.34-0.696-0.479-1.061-0.647
			c-0.347-0.153-0.704-0.36-0.874-0.714l-0.014-0.028l-0.013-0.029l-0.012-0.03l-0.012-0.03l-0.011-0.031l-0.011-0.032l-0.01-0.032
			l-0.009-0.033l-0.009-0.034l-0.008-0.034l-0.008-0.035l-0.007-0.036l-0.006-0.036l-0.006-0.037c-0.07-0.5,0.004-1.012,0.099-1.504
			c0.342-1.611,1.002-3.197,1.643-4.711c3.325-7.502,8.255-16.138,11.076-23.829c3.438-9.051,5.238-18.774,5.323-28.454
			c0.09-4.791-0.816-10.119-1.432-14.876c-0.192-1.502-0.255-3.251-0.321-4.768c-0.031-0.48-0.071-0.978-0.174-1.449
			c-0.074-0.327-0.178-0.659-0.378-0.932c-0.232-0.324-0.578-0.456-0.962-0.516c-0.663-0.102-1.395-0.053-2.024-0.316
			c-0.576-0.229-0.943-0.774-1.179-1.323c-0.294-0.686-0.449-1.429-0.567-2.163c-0.203-1.318-0.273-2.696-0.316-4.028
			c-0.027-0.327-0.096-8.832-0.103-9.477c-0.056-2.407-0.263-9.119-0.228-11.482c-0.007-2.992,0.255-6.014,0.686-8.979
			c0.046-0.43,0.108-0.894,0.083-1.326c-0.006-0.081-0.016-0.163-0.042-0.24l-0.003-0.008l-0.003-0.008l-0.003-0.007l-0.003-0.007
			l-0.003-0.007l-0.003-0.007l-0.003-0.007l-0.003-0.006l-0.004-0.006l-0.004-0.006l-0.004-0.006l-0.004-0.005l-0.004-0.005
			l-0.004-0.005l-0.004-0.005l-0.004-0.004l-0.004-0.004l-0.004-0.004l-0.004-0.004l-0.005-0.004l-0.005-0.003l-0.005-0.003
			l-0.005-0.003l-0.005-0.003l-0.005-0.002l-0.005-0.002l-0.005-0.002l-0.005-0.002l-0.005-0.001l-0.006-0.001l-0.006-0.001
			l-0.006-0.001l-0.006,0l-0.006,0l-0.006,0l-0.006,0l-0.006,0.001l-0.006,0.001l-0.006,0.001l-0.007,0.001l-0.007,0.002
			l-0.007,0.002l-0.007,0.002l-0.007,0.002l-0.007,0.003l-0.007,0.003l-0.007,0.003l-0.007,0.003l-0.008,0.004l-0.008,0.004
			l-0.008,0.004l-0.009,0.005l-0.009,0.005l-0.009,0.006c-0.138,0.092-0.252,0.22-0.363,0.342c-0.791,0.933-1.571,2.144-2.376,3.064
			c-0.31,0.345-0.698,0.79-1.131,0.969l-0.014,0.005l-0.014,0.005l-0.014,0.004l-0.014,0.004l-0.014,0.004l-0.013,0.003
			l-0.013,0.003l-0.013,0.003l-0.013,0.002l-0.013,0.002l-0.013,0.002l-0.019,0.002l-0.019,0.001l-0.019,0.001l-0.019,0
			l-0.018-0.001l-0.018-0.002l-0.018-0.002l-0.018-0.003l-0.017-0.004l-0.017-0.005l-0.017-0.005l-0.017-0.006l-0.017-0.007
			l-0.016-0.008l-0.016-0.008l-0.016-0.009l-0.016-0.01l-0.016-0.01l-0.015-0.011l-0.015-0.012l-0.015-0.013l-0.015-0.013
			l-0.014-0.014l-0.014-0.015l-0.014-0.015l-0.014-0.016l-0.014-0.017l-0.013-0.017l-0.013-0.018l-0.013-0.019l-0.013-0.019
			l-0.013-0.02l-0.012-0.02l-0.012-0.021l-0.012-0.022l-0.012-0.022c-0.16-0.318-0.228-0.677-0.283-1.026
			c-0.127-0.885-0.131-1.807-0.12-2.7c0.064-3.034,0.437-6.351,0.768-9.374c0.242-2.041,0.581-5.031,0.936-7.034
			c0.448-2.889,3.152-13.583,3.831-16.59c3.337-12.922,7.469-25.885,14.142-37.508c5.821-9.986,13.105-19.908,19.968-29.214
			c6.553-8.615,13.515-17.719,20.906-25.621c4.424-4.676,9.477-8.851,15.202-11.834c4.433-2.338,9.218-4.11,14.008-5.561
			c6.557-1.972,13.457-3.4,20.236-4.356c10.361-1.574,24.277-1.483,34.811-1.702c1.422-0.057,4.281-0.206,5.699-0.298
			c10.874-0.827,25.753-2.324,36.529-1.889l20.378,0.809c4.563,0.106,9.502,0.15,14.049-0.136c3.203-0.205,6.453-0.593,9.546-1.473
			c4.455-1.245,8.59-3.511,12.566-5.832c5.039-2.96,13.996-8.538,19.204-10.957c2.803-1.347,5.792-2.5,8.74-3.491l8.672-2.784
			c4.892-1.617,9.658-3.779,13.945-6.65c3.67-2.448,7.012-5.463,9.586-9.06c5.66-7.887,8.426-17.859,12.851-26.417
			c4.719-9.288,11.659-17.31,19.576-24.022c1.427-11.27,5.923-21.945,14.823-29.31c5.429-4.53,11.851-7.785,18.303-10.598
			c5.111-2.166,10.386-4.42,15.856-5.483c5.449-1.088,11.137-0.719,16.467,0.802c4.286,1.235,8.483,3.192,11.714,6.324
			c2.429,2.315,4.479,5.345,6.875,7.692c1.124,1.105,2.384,2.092,3.762,2.859c3.516,1.948,7.524,2.879,11.42,3.741
			c3.711,0.766,10.684,2.114,14.252,3.044c3.545,0.899,7.335,2.029,10.791,3.223c4.351,1.538,8.781,3.235,12.779,5.556
			c0.814-0.025,1.576,0.363,2.245,0.791c1.1,0.738,2.131,1.751,2.786,2.91c0.308,0.552,0.459,1.188,0.375,1.819
			c-0.048,0.415-0.168,0.832-0.285,1.233c-0.15,0.505-0.321,1.038-0.519,1.526c-0.374,0.895-0.875,1.872-1.778,2.325
			c-0.932,1.835-2.101,3.584-3.585,5.019c-1.519,1.466-3.533,2.779-4.993,4.308c-1.767,1.852-3.812,3.967-5.838,5.511
			c-2.36,1.85-4.974,3.461-7.614,4.878c-3.125,1.607-6.404,3.214-9.727,4.352c-2.78,0.963-5.699,1.636-8.626,1.944
			c-4.366,0.493-10.112,0.318-14.504,0.615c-1.71,0.128-3.453,0.328-5.072,0.918c-1.694,0.577-3.411,1.788-4.916,2.745l1.439,4.014
			c0.885,2.579,1.649,5.249,1.9,7.971c0.495,5.375-0.519,10.788-1.913,15.964c-0.699,2.571-1.782,5.75-2.025,8.356
			c-0.181,1.7-0.107,3.439,0.073,5.137c0.266,2.497,0.778,5.169,1.291,7.632c2.826,13.145,6.825,26.93,7.184,40.42
			c0.066,3.054-0.207,6.139-0.839,9.128c-0.808,3.926-2.163,8.189-2.225,12.218c-0.118,6.41,1.418,13.128,0.764,19.538
			c-0.215,2.069-0.54,4.177-1.324,6.115c-0.19,0.445-0.411,0.89-0.713,1.271c-0.167,0.209-0.364,0.402-0.604,0.524l-0.019,0.009
			l-0.019,0.009l-0.019,0.009l-0.019,0.008l-0.019,0.008l-0.019,0.007l-0.019,0.007l-0.02,0.007l-0.02,0.006l-0.02,0.006
			l-0.02,0.005l-0.02,0.005l-0.02,0.004l-0.02,0.004l-0.02,0.004l-0.02,0.003l-0.02,0.003l-0.02,0.002l-0.02,0.002l-0.02,0.001
			l-0.02,0.001l-0.02,0.001l-0.02,0l-0.02,0l-0.02-0.001l-0.02-0.001l-0.02-0.002c-0.219-0.021-0.425-0.114-0.612-0.225
			c-0.347-0.21-0.653-0.493-0.947-0.772c-0.539-0.512-1.165-1.215-1.802-1.597c-0.167-0.098-0.347-0.18-0.539-0.213l-0.025-0.004
			l-0.025-0.003l-0.025-0.003l-0.025-0.002l-0.025-0.002l-0.025-0.001l-0.025-0.001l-0.025,0l-0.025,0.001l-0.024,0.001
			l-0.024,0.002l-0.024,0.002l-0.024,0.003l-0.024,0.003l-0.024,0.004l-0.024,0.005l-0.024,0.005l-0.024,0.006l-0.024,0.006
			l-0.024,0.007l-0.024,0.007l-0.024,0.008l-0.024,0.008l-0.024,0.009l-0.024,0.01l-0.024,0.01l-0.024,0.011l-0.024,0.011
			l-0.024,0.012l-0.024,0.012l-0.024,0.013c-0.264,0.146-0.485,0.361-0.679,0.59c-0.366,0.435-0.659,0.939-0.926,1.44
			c-1.013,1.927-2.346,5.564-3.19,7.619c-1.227,3.027-2.665,6.086-4.268,8.931c-1.145,1.985-2.341,4.012-3.907,5.699
			c-0.392,0.397-0.812,0.802-1.337,1.013l-0.025,0.009l-0.025,0.009l-0.025,0.008l-0.025,0.007l-0.024,0.007l-0.024,0.006
			l-0.024,0.006l-0.024,0.005l-0.024,0.004l-0.023,0.004l-0.023,0.003l-0.023,0.003l-0.023,0.002l-0.023,0.001l-0.022,0.001
			C541.111,387.575,541.089,387.575,541.089,387.575z"/>
	</g>
</g>
</svg>
