<?xml version="1.0" encoding="utf-8"?>
<!-- Generator: Adobe Illustrator 25.4.1, SVG Export Plug-In . SVG Version: 6.00 Build 0)  -->
<!DOCTYPE svg PUBLIC "-//W3C//DTD SVG 1.1//EN" "http://www.w3.org/Graphics/SVG/1.1/DTD/svg11.dtd" [
	<!ENTITY ns_extend "http://ns.adobe.com/Extensibility/1.0/">
	<!ENTITY ns_ai "http://ns.adobe.com/AdobeIllustrator/10.0/">
	<!ENTITY ns_graphs "http://ns.adobe.com/Graphs/1.0/">
	<!ENTITY ns_vars "http://ns.adobe.com/Variables/1.0/">
	<!ENTITY ns_imrep "http://ns.adobe.com/ImageReplacement/1.0/">
	<!ENTITY ns_sfw "http://ns.adobe.com/SaveForWeb/1.0/">
	<!ENTITY ns_custom "http://ns.adobe.com/GenericCustomNamespace/1.0/">
	<!ENTITY ns_adobe_xpath "http://ns.adobe.com/XPath/1.0/">
]>
<svg version="1.1" xmlns:x="&ns_extend;" xmlns:i="&ns_ai;" xmlns:graph="&ns_graphs;"
	 xmlns="http://www.w3.org/2000/svg" xmlns:xlink="http://www.w3.org/1999/xlink" x="0px" y="0px" width="750px" height="750px"
	 viewBox="0 0 750 750" enable-background="new 0 0 750 750" xml:space="preserve">
<metadata>
	<sfw  xmlns="&ns_sfw;">
		<slices></slices>
		<sliceSourceBounds  bottomLeftOrigin="true" height="10237.062" width="5559" x="-2000" y="-1314"></sliceSourceBounds>
	</sfw>
</metadata>
<g id="FILL-BACKGROUND">
	<rect fill="#FFFFFF" width="750" height="750"/>
</g>
<g id="N-DIMENSIONS">
</g>
<g id="N-TEXT">
</g>
<g id="_x32_D_x24_AG-DIAGRAM">
	<g id="POLYLINE_00000052078272230496590480000006163832085141428147_">
		<g>
			<g>
				
					<line fill="none" stroke="#FB8604" stroke-width="3.25" stroke-linecap="round" stroke-linejoin="round" x1="117" y1="621.37" x2="119" y2="621.37"/>
				
					<line fill="none" stroke="#FB8604" stroke-width="3.25" stroke-linecap="round" stroke-linejoin="round" stroke-dasharray="3.9992,6.9986" x1="125.998" y1="621.37" x2="507.423" y2="621.37"/>
				
					<line fill="none" stroke="#FB8604" stroke-width="3.25" stroke-linecap="round" stroke-linejoin="round" x1="510.923" y1="621.37" x2="512.923" y2="621.37"/>
			</g>
		</g>
	</g>
</g>
<g id="_x32_D_x24_AG-DETAILS-DIAGRAM">
</g>
<g id="_x32_D_x24_AG-DETAILS">
</g>
<g id="_x32_D_x24_AG-ANIMALS">
	<g id="POLYLINE_00000006666513628068816160000001443090853532894631_">
		
			<path fill="none" stroke="#FB8604" stroke-width="2.75" stroke-linecap="round" stroke-linejoin="round" stroke-miterlimit="10" d="
			M257.99,446.743l5.136-0.689c3.272-0.399,6.624-0.459,9.875,0.135c6.858,1.263,13.85,4.871,20.455,7.022
			c1.709,0.522,3.73,1.176,5.523,0.96c1.017-0.119,1.936-0.752,2.784-1.282c0.574-0.35,1.194-0.641,1.854-0.784
			c1.565-0.328,3.196-0.15,4.763,0.079c9.765,1.72,19.43,6.563,28.371,10.743c3.508,1.57,7.131,3.215,10.973,3.712
			c2.223,0.302,4.366-0.106,6.428-0.95c1.087-0.412,2.384-1.09,3.512-1.379c0.244-0.056,0.498-0.092,0.749-0.067
			c0.459,0.039,0.861,0.295,1.227,0.557c1.404,1.123,3.086,1.839,4.769,2.432c5.149,1.788,10.782,3.014,16.104,4.193
			c7.582,1.64,15.551,3.073,23.274,3.825"/>
	</g>
	<g id="POLYLINE_00000109712361185011319040000017317324924585975230_">
		
			<path fill="none" stroke="#FB8604" stroke-width="2.75" stroke-linecap="round" stroke-linejoin="round" stroke-miterlimit="10" d="
			M496.26,196.99c-3.687,1.031-7.57,2.195-11.015,3.847c-6.143,2.935-11.943,6.803-17.421,10.828
			c-3.03,2.313-6.126,4.713-8.59,7.642c-0.565,0.711-1.125,1.469-1.404,2.344l-0.015,0.051l-0.014,0.051l-0.013,0.051l-0.012,0.05
			l-0.01,0.05l-0.009,0.049l-0.008,0.049l-0.007,0.048l-0.006,0.048l-0.005,0.047l-0.003,0.047l-0.002,0.046l-0.001,0.045l0,0.045
			l0.001,0.044c0.074,1.407,1.892,1.917,2.346,3.063l0.009,0.027l0.009,0.027l0.008,0.028l0.008,0.028l0.007,0.028l0.006,0.028
			l0.006,0.028l0.005,0.029l0.004,0.029l0.004,0.029l0.003,0.029l0.003,0.029l0.002,0.03l0.001,0.03l0.001,0.03l0,0.03l0,0.03
			l-0.001,0.031l-0.002,0.031l-0.002,0.031l-0.003,0.031l-0.003,0.031l-0.004,0.031c-0.071,0.486-0.31,0.93-0.573,1.337
			c-1.53,2.173-3.766,3.879-5.781,5.585c-8.64,6.995-19.115,14.844-26.779,22.811c-0.776,0.882-1.624,1.773-2.104,2.858l-0.015,0.04
			l-0.014,0.039l-0.013,0.038l-0.012,0.037l-0.011,0.037l-0.009,0.036l-0.008,0.035l-0.007,0.034l-0.006,0.034l-0.005,0.033
			l-0.004,0.032l-0.003,0.032l-0.001,0.031l0,0.03l0.001,0.029l0.002,0.029l0.003,0.028c0.081,0.52,0.804,0.637,0.934,1.168
			l0.006,0.025l0.005,0.026l0.005,0.027l0.004,0.027l0.003,0.028l0.002,0.028l0.002,0.029l0.001,0.03l0,0.03l-0.001,0.031
			l-0.002,0.031l-0.002,0.032l-0.003,0.033l-0.004,0.033l-0.005,0.034l-0.005,0.034l-0.006,0.035
			c-0.121,0.591-0.427,1.129-0.736,1.641c-0.683,1.092-1.53,2.101-2.396,3.052c-3.272,3.514-7.122,6.511-11.299,8.874
			c-11.607,6.66-25.681,5.124-38.505,6.423c-4.354,0.454-8.67,1.578-12.826,2.932c-4.993,1.666-10.837,3.77-15.895,4.887
			c-3.678,0.827-7.532,1.304-11.287,1.611c-11.042,1.043-24.346-0.021-35.304,1.805c-15.559,3.058-32.306,6.202-48.04,8.241
			c-7.557,0.927-15.508,1.972-23.121,1.861c-2.047-0.065-4.143-0.249-6.064-1.006c-2.498-1.015-4.696-2.965-6.977-4.371
			c-4.344-2.796-8.957-5.341-13.886-6.938c-4.406-1.454-9.291-1.85-13.63,0.04c-1.96,0.844-3.759,2.137-5.042,3.855
			c-0.983,1.305-1.615,2.856-1.911,4.459c-0.481,2.595-0.183,5.278,0.413,7.83c1.606,6.815,5.649,13.399,8.122,19.907
			c0.757,2.038,1.305,4.22,1.08,6.408c-0.141,1.501-0.593,2.963-1.145,4.361c-1.14,2.848-2.691,5.621-4.208,8.284l-9.347,15.763
			c-7.731,13.513-13.988,28.161-16.607,43.574c-0.197,1.38-0.395,2.81-0.31,4.206c0.025,0.309,0.065,0.626,0.172,0.919l0.011,0.028
			l0.011,0.027l0.011,0.026l0.011,0.025l0.012,0.025l0.012,0.024l0.012,0.023l0.013,0.022l0.013,0.022l0.013,0.021l0.014,0.02
			l0.014,0.019l0.014,0.019l0.014,0.018l0.015,0.017l0.015,0.016l0.015,0.015l0.016,0.015l0.016,0.014l0.016,0.013l0.017,0.012
			l0.017,0.012l0.017,0.011l0.018,0.01l0.018,0.009l0.018,0.008l0.018,0.007l0.019,0.007l0.019,0.006
			c0.281,0.067,0.567-0.076,0.82-0.185c0.36-0.154,0.864-0.478,1.261-0.382l0.019,0.006l0.018,0.006l0.018,0.007l0.018,0.008
			l0.018,0.009l0.017,0.009l0.017,0.01l0.017,0.011l0.017,0.011l0.016,0.012l0.016,0.013l0.016,0.014l0.016,0.014l0.015,0.015
			l0.015,0.016l0.015,0.016l0.015,0.017l0.014,0.018l0.014,0.018l0.014,0.019l0.014,0.02l0.013,0.02l0.013,0.021l0.013,0.022
			l0.013,0.022l0.012,0.023l0.012,0.024l0.012,0.024c0.235,0.523,0.279,1.114,0.324,1.68c0.151,4.338-0.639,10.382-0.752,14.731
			c-0.307,7.406,0.499,16.416,0.287,23.827c-0.094,4.297-0.596,8.674-1.332,12.908l-2.07,11.379
			c-0.331,2.012-0.652,4.105-0.739,6.143c-0.033,0.973-0.025,1.969,0.177,2.926c0.228,1.186,0.942,2.059,1.69,2.962
			c0.394,0.495,0.743,1.037,0.953,1.637c0.271,0.768,0.35,1.594,0.375,2.403c0.017,4.055-1.025,8.069-2.071,11.961
			c-1.928,6.816-4.525,13.554-7.697,19.887c-4.058,8.209-10.513,18.672-14.017,27.111c-0.462,1.18-0.874,2.418-0.931,3.694
			c-0.073,2.228,0.551,4.456,1.018,6.618c1.075,4.438,3.162,12.231,3.92,16.634c0.718,3.92,1.05,8.245,1.329,12.23
			c0.679,5.598,1.399,17.077,2.215,22.67c0.186,1.106,0.412,2.239,0.767,3.303c0.428,1.297,1.048,2.562,1.983,3.571
			c1.04,1.144,2.464,1.861,3.938,2.275c2.952,0.828,6.143,0.826,9.191,0.886c2.373,0.01,25.078,0.045,26.797-0.033
			c0.707-0.038,1.437-0.092,2.128-0.251c0.495-0.113,0.983-0.286,1.418-0.55c1.407-0.869,2.166-2.514,2.789-3.987
			c0.885-2.233,1.443-4.613,1.662-7.005c0.185-2.206,0.043-4.479-0.673-6.586c-0.529-1.57-1.451-3.06-2.846-3.995
			c-2.382-1.602-5.635-1.752-8.393-2.228c-3.138-0.49-6.543-1.356-8.65-3.909c-1.451-1.779-2.2-4.018-2.775-6.21
			c-1.641-6.776-0.748-13.886,0.479-20.659c0.604-3.183,1.429-6.385,2.754-9.349c1.127-2.55,2.614-4.948,4.372-7.111
			c1.914-3.234,4.066-6.793,6.302-9.797c1.854-2.593,5.347-6.295,7.499-8.705c1.447-1.66,2.86-3.441,4.08-5.273
			c1.283-1.884,3.081-5.007,4.496-6.77c0.37-0.432,0.756-0.904,1.289-1.137l0.018-0.007l0.018-0.007l0.018-0.006l0.018-0.006
			l0.018-0.005l0.018-0.005l0.018-0.004l0.018-0.004l0.018-0.004l0.018-0.003l0.017-0.003l0.017-0.002l0.017-0.002l0.017-0.001
			l0.017-0.001l0.017,0h0.017l0.017,0l0.017,0.001c0.175,0.011,0.333,0.104,0.466,0.213c0.549,0.463,0.925,1.266,1.704,1.372
			c0.594,0.073,1.168-0.192,1.67-0.484c0.89-0.538,1.654-1.27,2.358-2.029c3.699-4.012,6.04-10.047,8.42-14.91
			c0.725-1.426,1.452-2.911,2.499-4.132c0.284-0.316,0.602-0.618,0.985-0.811l0.031-0.015l0.031-0.014
			c0.534-0.252,1.146-0.16,1.694-0.005c0.649,0.181,1.376,0.439,2.056,0.386c0.671-0.045,1.302-0.328,1.87-0.672
			c1.146-0.71,2.114-1.683,3.012-2.679c4.887-5.561,9.398-14.68,13.138-21.105c1.194-2.018,2.409-4.138,3.916-5.938
			c0.433-0.504,0.913-0.986,1.486-1.329c0.652-0.401,1.426-0.606,2.063-1.034c0.825-0.549,1.447-1.354,2.027-2.145
			c1.72-2.449,3.047-5.185,4.249-7.918c2.068-4.699,3.5-9.693,4.32-14.759c0.91-6.184,2.404-14.029,2.686-20.204
			c0.22-4.453,0.058-8.984-0.499-13.408c-0.524-4.056-1.376-8.133-2.952-11.92c-1.547-3.766-3.84-7.203-6.339-10.4"/>
	</g>
	<g id="POLYLINE_00000086656703718921386320000016362599160269359278_">
		
			<path fill="none" stroke="#FB8604" stroke-width="2.75" stroke-linecap="round" stroke-linejoin="round" stroke-miterlimit="10" d="
			M403.46,401.682c-0.066,13.331,0.354,28.227-1.151,41.434c-0.575,4.84-2.434,9.943-3.926,14.58
			c-0.273,0.906-0.569,1.847-0.714,2.781c-0.058,0.398-0.093,0.811-0.01,1.209c0.069,0.349,0.271,0.668,0.594,0.83
			c0.243,0.127,0.518,0.175,0.788,0.196c1.636,0.053,3.45-0.373,5.082-0.148c0.469,0.071,1.02,0.188,1.286,0.622
			c0.197,0.341,0.177,0.754,0.143,1.133c-0.089,0.824-0.476,2.441-0.613,3.266c-0.4,2.341-0.91,6.417-1.334,8.731
			c-0.491,3.178-1.802,7.158-2.084,10.365c-0.028,0.642,0.02,1.329,0.376,1.884c0.221,0.347,0.565,0.6,0.936,0.768
			c1.213,0.506,2.787,0.693,4.003,1.195c0.473,0.2,0.989,0.439,1.245,0.909c0.126,0.233,0.183,0.498,0.215,0.759
			c0.101,0.991-0.031,2.027-0.119,3.016l-1.81,15.257c-0.652,6.99-1.293,14.183-0.545,21.184c0.15,1.052,0.326,2.136,0.812,3.092
			c0.264,0.512,0.67,0.993,1.238,1.167c0.654,0.209,1.358-0.003,2.003-0.152c0.369-0.079,0.788-0.172,1.14,0.013
			c0.338,0.193,0.463,0.591,0.541,0.949c0.151,0.777,0.125,1.596,0.104,2.385c-0.362,6.012-0.975,12.894-0.716,18.888
			c0.165,4.014,0.279,8.168,1.199,12.089c0.378,1.594,1.012,2.702,1.775,4.107c0.584,1.141,0.905,2.405,1.121,3.663
			c1.277,9.001,0.64,20.862,1.434,29.923c0.198,2.035,0.494,4.113,1.117,6.066c0.674,2.154,1.894,4.23,3.835,5.461
			c1.168,0.761,2.522,1.193,3.881,1.466c2.299,0.458,4.712,0.528,7.051,0.579l37.28,0.022c0.547-0.013,1.218,0.009,1.762-0.029
			c0.679-0.039,1.374-0.121,1.999-0.402c0.635-0.278,1.145-0.783,1.508-1.366c0.947-1.582,1.305-3.452,1.655-5.241
			c0.545-3.228,0.815-6.562,0.425-9.823c-0.225-1.795-0.819-3.607-2.058-4.964c-1.227-1.399-3.182-2.331-4.762-3.274
			c-2.097-1.253-4.245-2.608-6.153-4.133c-0.639-0.52-1.259-1.091-1.741-1.764c-0.841-1.156-1.185-2.595-1.281-4.002
			c-0.086-1.264-0.016-2.56,0.081-3.821c0.341-4.412,1.689-12.587,2.249-17.052c0.397-3.208,0.654-6.581,0.7-9.813
			c0.054-2.86-0.08-8.674,0.258-11.442c0.11-0.758,0.199-1.571,0.613-2.233l0.015-0.021l0.015-0.02l0.015-0.02l0.015-0.019
			l0.015-0.018l0.015-0.018l0.016-0.017l0.016-0.017l0.016-0.016l0.016-0.016l0.016-0.015l0.017-0.014l0.017-0.014l0.017-0.013
			l0.017-0.013c0.226-0.164,0.521-0.162,0.788-0.137c0.359,0.032,0.765,0.11,1.104-0.052l0.017-0.008l0.017-0.009l0.017-0.009
			l0.017-0.01l0.017-0.01l0.017-0.011l0.017-0.011l0.017-0.011l0.017-0.012l0.017-0.012l0.017-0.013
			c0.485-0.4,0.714-1.021,0.922-1.595c0.323-0.957,0.523-1.984,0.698-2.979c0.695-4.505,1.262-10.216,1.744-14.76
			c0.381-4.04,0.608-8.24,0.509-12.298c-0.048-3.335-0.563-8.157-0.793-11.508c-0.063-1.108-0.138-2.265-0.033-3.372
			c0.034-0.298,0.079-0.605,0.199-0.881l0.009-0.02l0.009-0.02l0.01-0.019l0.01-0.019l0.01-0.018l0.01-0.017l0.01-0.017l0.011-0.016
			l0.011-0.016l0.011-0.015l0.011-0.015l0.011-0.014l0.012-0.013l0.012-0.013l0.012-0.012l0.012-0.012l0.012-0.011l0.013-0.011
			l0.013-0.01l0.013-0.009l0.013-0.009l0.014-0.008l0.014-0.008l0.014-0.007l0.014-0.006l0.014-0.006l0.015-0.005l0.015-0.005
			l0.015-0.004l0.007-0.002l0.007-0.001l0.007-0.001c0.271-0.038,0.549,0.138,0.779,0.264c0.505,0.282,1.054,0.718,1.66,0.686
			l0.023-0.002l0.023-0.003l0.023-0.003l0.023-0.004l0.023-0.005l0.023-0.005l0.023-0.006l0.023-0.006l0.023-0.007l0.022-0.008
			l0.022-0.008l0.022-0.009l0.022-0.009l0.022-0.01l0.022-0.01l0.022-0.011l0.022-0.011l0.022-0.012l0.022-0.013l0.022-0.013
			l0.022-0.014l0.022-0.014l0.022-0.015l0.021-0.015l0.021-0.016c0.341-0.263,0.577-0.637,0.781-1.011
			c0.952-1.902,1.367-4.066,1.84-6.127c2.307-11.309,4.485-23.41,9.228-33.969c0.561-1.172,1.184-2.344,1.945-3.401
			c0.578-0.822,1.434-1.644,2.134-2.369c0.796-0.828,1.5-1.758,2.099-2.737c2.603-4.349,5.474-11.066,7.783-15.602
			c1.399-2.803,2.933-5.681,4.646-8.3c1.804-2.798,4.464-6.423,5.999-9.357c1.487-2.761,2.6-5.732,3.386-8.766
			c2.373-9.05,2.962-19.786,5.124-28.883c0.308-1.093,0.62-2.24,1.267-3.189l0.032-0.044l0.032-0.042l0.032-0.041
			c0.253-0.32,0.6-0.556,0.982-0.695c0.464-0.174,1.022-0.267,1.336-0.688l0.016-0.02l0.016-0.021
			c0.562-0.836,0.631-2.2,0.704-3.191c0.182-3.712-0.331-9.602-0.413-13.35c-0.153-4.881,0.152-12.437,0.139-17.349"/>
	</g>
	<g id="POLYLINE_00000025436990055314044410000006883216431206638005_">
		
			<path fill="none" stroke="#FB8604" stroke-width="2.75" stroke-linecap="round" stroke-linejoin="round" stroke-miterlimit="10" d="
			M490.555,277.199c0.454,5.862,1.495,13.621,1.76,19.465c0.279,4.543-0.01,10.737,0.003,15.314
			c0.031,1.521,0.045,3.098,0.382,4.588c0.088,0.354,0.199,0.714,0.394,1.025l0.017,0.026l0.017,0.025l0.017,0.024l0.017,0.024
			l0.018,0.023l0.018,0.022l0.018,0.022l0.018,0.021l0.019,0.02l0.019,0.02l0.019,0.019l0.019,0.018l0.02,0.017l0.02,0.017
			l0.02,0.016l0.02,0.015l0.02,0.014l0.021,0.014l0.021,0.013l0.021,0.012l0.021,0.012l0.022,0.011l0.022,0.01l0.022,0.009
			l0.022,0.009l0.023,0.008l0.023,0.007l0.023,0.006l0.023,0.005l0.024,0.005l0.024,0.004l0.024,0.003l0.025,0.002l0.015,0.001
			l0.015,0.001l0.015,0l0.015,0l0.015,0l0.015,0c0.657-0.048,1.352-0.653,1.86-1.047c0.773-0.621,1.752-1.558,2.638-1.995
			c0.184-0.088,0.381-0.161,0.584-0.184l0.022-0.002l0.021-0.002l0.021-0.001l0.021-0.001l0.021-0.001l0.021,0l0.021,0l0.021,0
			l0.021,0.001l0.021,0.001l0.02,0.002l0.02,0.002l0.02,0.002l0.02,0.003l0.02,0.003l0.02,0.004l0.02,0.004l0.02,0.004l0.02,0.005
			l0.02,0.005l0.019,0.005l0.019,0.006l0.019,0.006l0.019,0.007l0.019,0.007l0.019,0.007l0.019,0.008l0.019,0.008l0.019,0.008
			l0.019,0.009l0.018,0.009c0.332,0.17,0.57,0.475,0.765,0.785c1.055,1.849,1.772,5.139,2.555,7.188
			c1.386,3.772,3.275,7.949,5.865,11.041c0.543,0.596,1.14,1.219,1.923,1.481l0.029,0.009l0.029,0.008l0.029,0.007l0.029,0.007
			l0.029,0.006l0.029,0.006l0.029,0.005l0.029,0.004l0.028,0.004l0.028,0.003l0.028,0.002l0.028,0.002l0.028,0.001l0.028,0l0.028,0
			l0.027-0.001l0.027-0.001l0.027-0.002l0.027-0.003l0.027-0.003l0.027-0.004l0.027-0.005l0.026-0.005l0.026-0.006l0.026-0.007
			c0.577-0.178,0.935-0.721,1.27-1.188l0.668-1.003c0.546-0.796,1.243-1.668,2.267-1.787l0.043-0.005l0.044-0.004l0.044-0.003
			l0.044-0.002l0.045-0.001l0.045-0.001c0.876,0.009,1.704,0.377,2.475,0.762c3.274,1.728,6.621,4.8,9.859,6.591
			c0.656,0.356,1.343,0.685,2.069,0.871c0.564,0.147,1.17,0.177,1.73-0.004c0.707-0.22,1.296-0.7,1.838-1.188
			c0.932-0.841,1.896-1.902,3.208-2.068c0.677-0.089,1.362,0.059,2.004,0.268c1.916,0.66,3.65,1.823,5.333,2.931
			c2.992,1.958,6.783,5.071,10.155,6.216c0.571,0.176,1.174,0.285,1.772,0.226c1.958-0.193,3.109-2.047,4.052-3.573
			c1.77-3.041,3.886-6.811,6.779-8.899c0.445-0.29,0.95-0.573,1.497-0.549l0.021,0.002l0.021,0.002l0.02,0.002l0.02,0.003
			l0.02,0.003l0.02,0.003l0.02,0.004l0.02,0.004l0.02,0.004l0.02,0.005l0.019,0.005l0.019,0.006l0.019,0.006l0.019,0.006
			l0.019,0.007l0.019,0.007l0.019,0.008l0.018,0.008l0.018,0.008l0.018,0.009l0.018,0.009l0.018,0.009l0.018,0.01l0.018,0.01
			c0.165,0.099,0.299,0.244,0.411,0.399c0.54,0.785,0.795,2.01,1.09,2.909c0.201,0.589,0.441,1.45,0.995,1.79
			c0.531,0.306,1.159,0.019,1.633-0.268c0.687-0.427,1.29-0.994,1.865-1.559c4.001-4.063,7.825-9.756,12.258-13.364
			c0.769-0.578,1.604-1.172,2.576-1.316l0.04-0.004l0.039-0.004l0.039-0.003l0.039-0.002l0.038-0.001l0.038-0.001l0.038,0
			l0.038,0.001l0.037,0.002l0.037,0.002l0.037,0.003l0.037,0.004l0.036,0.005l0.036,0.006l0.036,0.006l0.035,0.007l0.035,0.008
			l0.035,0.009l0.035,0.01l0.034,0.011c0.248,0.079,0.47,0.226,0.662,0.4c0.676,0.624,1.124,1.624,1.575,2.416
			c0.243,0.407,0.516,0.93,0.955,1.147l0.012,0.005l0.012,0.005l0.014,0.006l0.014,0.005l0.014,0.005l0.014,0.005l0.014,0.004
			l0.014,0.004l0.014,0.004l0.015,0.003l0.015,0.003l0.015,0.003l0.015,0.002l0.015,0.002l0.015,0.002l0.015,0.001l0.015,0.001
			l0.015,0.001l0.015,0.001l0.015,0l0.015,0l0.015,0l0.015-0.001l0.015-0.001l0.015-0.001l0.015-0.002l0.015-0.002l0.015-0.002
			l0.015-0.002c0.22-0.037,0.421-0.15,0.602-0.277c1.183-0.917,2.25-2.624,3.191-3.787c2.231-2.915,5.388-5.075,7.177-8.367
			c0.802-1.398,1.405-2.922,1.871-4.464c1.51-5.032,2.319-11.609,3.169-16.828c0.291-1.548,0.538-3.714,1.198-5.117l0.017-0.03
			l0.017-0.029l0.017-0.027l0.017-0.026l0.017-0.025l0.017-0.024l0.017-0.022l0.017-0.021l0.017-0.02l0.017-0.019l0.017-0.017
			l0.017-0.016l0.017-0.015l0.018-0.013l0.018-0.012l0.018-0.011l0.018-0.009l0.018-0.008l0.018-0.007l0.018-0.005l0.018-0.004
			l0.005-0.001l0.005-0.001l0.005-0.001l0.005-0.001l0.005,0l0.005,0l0.005,0l0.005,0l0.005,0l0.005,0l0.005,0l0.005,0l0.005,0
			l0.005,0c0.116,0.01,0.215,0.084,0.302,0.156c0.287,0.234,0.584,0.715,0.956,0.793l0.014,0.002l0.014,0.002l0.014,0.001
			l0.014,0.001l0.014,0l0.014,0l0.014-0.001l0.014-0.001l0.014-0.002l0.014-0.002l0.014-0.003l0.015-0.003l0.014-0.004l0.015-0.004
			l0.015-0.005l0.015-0.005l0.015-0.006l0.015-0.006l0.015-0.007l0.015-0.007l0.015-0.008l0.015-0.008l0.015-0.009l0.015-0.009
			l0.015-0.01l0.015-0.01l0.015-0.011l0.015-0.011l0.015-0.012l0.015-0.012c0.554-0.51,0.884-1.465,1.146-2.166
			c0.669-1.939,1.115-4.026,1.502-6.04c0.499-2.712,0.893-5.512,0.97-8.27c0.094-3.185-0.277-6.415-1.323-9.434
			c-1.899-5.41-5.495-10.153-9.843-13.846"/>
	</g>
	<g id="POLYLINE_00000049918745803805522140000005017259857028709007_">
		
			<path fill="none" stroke="#FB8604" stroke-width="2.75" stroke-linecap="round" stroke-linejoin="round" stroke-miterlimit="10" d="
			M532.966,215.024c-2.976,3.077-6.312,5.877-9.962,8.122c-3.68,2.275-7.722,4.022-11.848,5.307
			c-4.794,1.459-9.802,2.558-14.832,2.561c-1.57-0.022-3.171-0.158-4.672-0.644c-0.842-0.277-1.665-0.68-2.309-1.299
			c-0.751-0.712-1.161-1.713-1.306-2.725c-0.271-1.949,0.138-3.928,0.594-5.819c0.411-1.752,4.452-14.576,5.065-16.594
			c1.518-4.782,3.45-9.511,6.141-13.76c2.188-3.475,4.833-6.72,7.699-9.658c2.541-2.574,5.31-4.992,8.4-6.887
			c2.135-1.267,4.511-2.444,7.049-2.404c1.574,0.036,3.082,0.68,4.322,1.628c2.059,1.515,3.674,3.983,5.23,5.987
			c1.126,1.418,2.498,3.057,4.452,3.124c1.302,0.035,2.563-0.43,3.774-0.856c2.615-0.982,5.413-2.075,8.226-2.217
			c5.259-0.27,10.427,1.32,15.377,2.922c4.603,1.711,11.163,3.68,15.556,5.727c1.492,0.722,2.939,1.589,4.205,2.664
			c2.505,2.075,4.005,4.902,5.094,7.917c1.218,3.17,2.002,7.016,3.35,10.134c0.205,0.421,0.431,0.849,0.769,1.179l0.022,0.021
			l0.022,0.02l0.023,0.02l0.023,0.019l0.023,0.018l0.023,0.017l0.023,0.017l0.023,0.016l0.023,0.015l0.023,0.015l0.023,0.014
			l0.023,0.013l0.023,0.012l0.023,0.012c0.526,0.25,1.118-0.059,1.623-0.228c0.333-0.115,0.693-0.216,1.046-0.147
			c0.372,0.074,0.688,0.31,0.953,0.572c0.517,0.522,0.899,1.168,1.244,1.812c1.322,2.584,2.198,5.539,3.076,8.301
			c0.887,2.962,1.719,6.018,1.912,9.116c0.082,1.374-0.002,2.768-0.334,4.106c-0.44,1.834-1.306,3.547-2.234,5.179"/>
	</g>
	<g id="POLYLINE_00000078006120203338425680000005412412212251279518_">
		
			<path fill="none" stroke="#FB8604" stroke-width="2.75" stroke-linecap="round" stroke-linejoin="round" stroke-miterlimit="10" d="
			M606.028,244.937c-0.487-2.503-1.949-4.937-4.223-6.184c-1.453-0.783-3.183-0.941-4.794-0.663
			c-1.899,0.329-3.755,1.302-4.851,2.924c-0.935,1.359-1.357,3.012-1.465,4.642c-0.087,1.485,0.035,2.998,0.457,4.428
			c0.438,1.497,1.367,2.973,2.871,3.565c1.386,0.543,2.936,0.438,4.369,0.15c1.986-0.433,3.927-1.267,5.491-2.581
			c0.861-0.736,1.564-1.679,1.937-2.755C606.218,247.338,606.248,246.104,606.028,244.937z"/>
	</g>
</g>
<g id="_x32_D_x24_AG-OUTLINE">
	<g id="POLYLINE_00000075155772954785016800000005833359747467677580_">
		
			<path fill="none" stroke="#FB8604" stroke-width="3.5" stroke-linecap="round" stroke-linejoin="round" stroke-miterlimit="10" d="
			M522.928,335.274c0.013,4.928-0.292,12.463-0.139,17.349c0.083,3.764,0.594,9.626,0.413,13.35
			c-0.073,0.99-0.143,2.355-0.704,3.191l-0.016,0.021l-0.016,0.02c-0.315,0.422-0.872,0.515-1.336,0.688
			c-0.382,0.139-0.729,0.375-0.982,0.695l-0.032,0.041l-0.032,0.042l-0.032,0.044c-0.647,0.948-0.959,2.095-1.267,3.189
			c-2.163,9.098-2.752,19.832-5.125,28.883c-0.786,3.034-1.899,6.005-3.386,8.766c-1.531,2.93-4.199,6.568-5.999,9.357
			c-1.712,2.617-3.248,5.5-4.646,8.3c-2.312,4.542-5.173,11.237-7.783,15.602c-0.599,0.978-1.303,1.91-2.099,2.737
			c-0.704,0.73-1.554,1.545-2.134,2.369c-0.761,1.056-1.383,2.228-1.945,3.401c-4.74,10.549-6.924,22.672-9.228,33.969
			c-0.473,2.062-0.888,4.224-1.84,6.127c-0.204,0.373-0.44,0.748-0.781,1.011l-0.021,0.016l-0.021,0.015l-0.022,0.015l-0.022,0.014
			l-0.022,0.014l-0.022,0.013l-0.022,0.013l-0.022,0.012l-0.022,0.011l-0.022,0.011l-0.022,0.01l-0.022,0.01l-0.022,0.009
			l-0.022,0.009l-0.022,0.008l-0.022,0.008l-0.023,0.007l-0.023,0.006l-0.023,0.006l-0.023,0.005l-0.023,0.005l-0.023,0.004
			l-0.023,0.003l-0.023,0.003l-0.023,0.002c-0.606,0.031-1.156-0.405-1.66-0.686c-0.23-0.125-0.508-0.302-0.779-0.264l-0.007,0.001
			l-0.007,0.001l-0.007,0.002l-0.015,0.004l-0.015,0.005l-0.015,0.005l-0.014,0.006l-0.014,0.006l-0.014,0.007l-0.014,0.008
			l-0.014,0.008l-0.013,0.009l-0.013,0.009l-0.013,0.01l-0.013,0.011l-0.012,0.011l-0.012,0.012l-0.012,0.012l-0.012,0.013
			l-0.012,0.013l-0.011,0.014l-0.011,0.015l-0.011,0.015l-0.011,0.016l-0.011,0.016l-0.01,0.017l-0.01,0.017l-0.01,0.018
			l-0.01,0.019l-0.01,0.019l-0.009,0.02l-0.009,0.02c-0.12,0.277-0.165,0.583-0.199,0.881c-0.105,1.107-0.03,2.263,0.033,3.372
			c0.23,3.369,0.743,8.167,0.793,11.508c0.099,4.058-0.128,8.257-0.509,12.298c-0.482,4.548-1.048,10.251-1.743,14.76
			c-0.175,0.994-0.375,2.021-0.698,2.979c-0.208,0.575-0.437,1.195-0.922,1.595l-0.017,0.013l-0.017,0.012l-0.017,0.012
			l-0.017,0.011l-0.017,0.011l-0.017,0.011l-0.017,0.01l-0.017,0.01l-0.017,0.009l-0.017,0.009l-0.017,0.008
			c-0.338,0.161-0.745,0.084-1.104,0.052c-0.267-0.024-0.562-0.027-0.788,0.137l-0.017,0.013l-0.017,0.013l-0.017,0.014
			l-0.017,0.014l-0.016,0.015l-0.016,0.016l-0.016,0.016l-0.016,0.017l-0.016,0.017l-0.015,0.018l-0.015,0.018l-0.015,0.019
			l-0.015,0.02l-0.015,0.02l-0.015,0.021c-0.415,0.662-0.504,1.474-0.613,2.233c-0.337,2.739-0.205,8.618-0.258,11.442
			c-0.046,3.232-0.303,6.606-0.7,9.813l-1.945,14.088c-0.246,2.144-0.495,4.371-0.401,6.529c0.06,1.151,0.262,2.317,0.764,3.363
			c0.717,1.514,2.1,2.56,3.414,3.534c2.476,1.845,5.329,3.393,7.959,5.002c0.716,0.475,1.395,1.028,1.951,1.685
			c2.137,2.537,2.153,6.094,2.079,9.245c-0.154,3.077-0.529,6.208-1.528,9.135c-0.289,0.781-0.65,1.563-1.234,2.169
			c-0.593,0.628-1.438,0.935-2.282,1.031c-0.592,0.09-1.278,0.075-1.88,0.089c0,0-33.59,0.001-33.59,0.001
			c-2.47-0.084-6.063,0.063-8.495-0.214c-1.764-0.161-3.562-0.418-5.214-1.082c-1.389-0.554-2.632-1.474-3.538-2.667
			c-1.333-1.742-1.989-3.898-2.407-6.024c-0.34-1.741-0.516-3.594-0.639-5.365c-0.458-7.615-0.266-18.75-1.036-26.315
			c-0.171-1.474-0.393-2.974-0.89-4.378c-0.359-1.052-1.009-2.025-1.485-3.023c-0.486-1.031-0.792-2.152-1.015-3.267
			c-1-5.78-1.057-11.79-0.972-17.643c0.033-3.717,0.669-9.381,0.741-13.107c-0.003-0.597-0.018-1.22-0.178-1.799
			c-0.076-0.254-0.189-0.51-0.409-0.669c-0.089-0.064-0.194-0.107-0.301-0.129c-0.303-0.06-0.615,0.008-0.913,0.07
			c-0.646,0.148-1.349,0.362-2.003,0.152c-0.567-0.174-0.974-0.655-1.238-1.167c-0.486-0.957-0.662-2.04-0.812-3.092
			c-0.748-6.999-0.107-14.196,0.545-21.184l1.81-15.257c0.088-1.033,0.238-2.118,0.1-3.15c-0.046-0.29-0.136-0.583-0.322-0.816
			c-0.508-0.603-1.502-0.866-2.238-1.088c-0.993-0.312-2.52-0.498-3.365-1.109c-0.442-0.321-0.698-0.838-0.782-1.37
			c-0.086-0.503-0.059-1.021-0.007-1.527c0.468-3.399,1.746-7.509,2.225-10.904c-7.724-0.752-15.69-2.185-23.274-3.825
			c-5.327-1.18-10.952-2.404-16.104-4.193c-1.684-0.594-3.364-1.31-4.769-2.433c-0.371-0.267-0.781-0.525-1.248-0.559
			c-0.243-0.021-0.49,0.015-0.727,0.069c-1.125,0.289-2.426,0.968-3.512,1.379c-2.062,0.843-4.206,1.252-6.428,0.949
			c-3.842-0.497-7.466-2.142-10.973-3.712c-9.049-4.223-18.791-9.135-28.697-10.792c-1.462-0.197-2.981-0.339-4.437-0.03
			c-0.659,0.144-1.28,0.434-1.854,0.784c-0.865,0.543-1.793,1.176-2.831,1.288c-1.968,0.214-4.309-0.598-6.179-1.199
			c-6.335-2.149-13.152-5.575-19.753-6.789c-3.251-0.593-6.604-0.534-9.875-0.135l-5.136,0.689c-0.905,3.215-2.12,6.376-3.525,9.404
			c-1.078,2.281-2.253,4.573-3.757,6.605c-0.653,0.866-1.407,1.712-2.418,2.159c-0.862,0.377-1.64,0.692-2.319,1.379
			c-1.84,1.896-3.15,4.315-4.504,6.566c-3.766,6.464-8.235,15.517-13.138,21.105c-0.897,0.997-1.866,1.97-3.012,2.679
			c-0.568,0.344-1.2,0.627-1.87,0.672c-0.679,0.053-1.41-0.205-2.056-0.386c-0.548-0.155-1.16-0.246-1.694,0.005l-0.031,0.014
			l-0.031,0.015c-0.383,0.193-0.701,0.495-0.985,0.811c-1.047,1.22-1.775,2.706-2.499,4.132c-2.391,4.88-4.715,10.887-8.42,14.91
			c-0.704,0.759-1.468,1.491-2.358,2.029c-0.501,0.292-1.076,0.556-1.67,0.484c-0.779-0.106-1.154-0.909-1.704-1.372
			c-0.133-0.109-0.291-0.201-0.466-0.213l-0.017-0.001l-0.017,0h-0.017l-0.017,0l-0.017,0.001l-0.017,0.001l-0.017,0.002
			l-0.017,0.002l-0.017,0.003l-0.018,0.003l-0.018,0.004l-0.018,0.004l-0.018,0.004l-0.018,0.005l-0.018,0.005l-0.018,0.006
			l-0.018,0.006l-0.018,0.007l-0.018,0.007c-0.533,0.233-0.918,0.705-1.289,1.137c-1.412,1.757-3.218,4.893-4.496,6.77
			c-1.219,1.832-2.633,3.614-4.08,5.273c-2.169,2.431-5.632,6.097-7.499,8.705c-2.232,2.999-4.391,6.568-6.302,9.796
			c-1.757,2.163-3.244,4.561-4.372,7.111c-1.325,2.965-2.15,6.166-2.754,9.349c-1.185,6.514-2.04,13.322-0.663,19.871
			c0.552,2.382,1.297,4.82,2.794,6.791c2.081,2.703,5.595,3.616,8.816,4.115c2.758,0.479,6.008,0.624,8.393,2.228
			c1.359,0.912,2.274,2.353,2.806,3.88c1.473,4.324,0.711,9.201-0.831,13.404c-0.631,1.566-1.45,3.419-2.952,4.315
			c-1.543,0.872-3.571,0.765-5.297,0.816c-6.088-0.06-23.438,0.156-29.261-0.142c-1.454-0.095-2.935-0.253-4.353-0.6
			c-1.199-0.293-2.388-0.729-3.4-1.448c-0.867-0.61-1.583-1.424-2.118-2.337c-0.66-1.12-1.08-2.374-1.38-3.635
			c-0.269-1.131-0.45-2.343-0.601-3.496c-0.54-4.786-1.436-16.336-1.983-21.057c-0.28-3.991-0.611-8.305-1.329-12.23
			c-0.75-4.37-2.856-12.244-3.92-16.634c-0.466-2.165-1.09-4.389-1.018-6.618c0.057-1.276,0.468-2.512,0.931-3.693
			c3.496-8.423,9.964-18.913,14.017-27.111c3.172-6.333,5.77-13.072,7.697-19.887c1.054-3.935,2.117-7.996,2.066-12.097
			c-0.031-0.779-0.117-1.574-0.386-2.311c-0.21-0.583-0.553-1.111-0.937-1.593c-0.749-0.903-1.462-1.776-1.69-2.962
			c-0.203-0.956-0.211-1.952-0.177-2.925c0.086-2.037,0.408-4.132,0.739-6.143l2.07-11.379c0.798-4.558,1.299-9.253,1.353-13.879
			c0.127-7.047-0.603-15.82-0.309-22.856c0.109-4.437,0.938-10.504,0.738-14.929c-0.047-0.501-0.099-1.02-0.31-1.482l-0.012-0.024
			l-0.012-0.024l-0.012-0.023l-0.013-0.022l-0.013-0.022l-0.013-0.021l-0.013-0.02l-0.014-0.02l-0.014-0.019l-0.014-0.018
			l-0.014-0.018l-0.015-0.017l-0.015-0.016l-0.015-0.016l-0.015-0.015l-0.016-0.014l-0.016-0.014l-0.016-0.013l-0.016-0.012
			l-0.017-0.011l-0.017-0.011l-0.017-0.01l-0.017-0.009l-0.018-0.009l-0.018-0.008l-0.018-0.007l-0.018-0.006l-0.019-0.006
			c-0.398-0.096-0.901,0.228-1.261,0.382c-0.252,0.109-0.539,0.253-0.82,0.185l-0.019-0.006l-0.019-0.007l-0.018-0.007l-0.018-0.008
			l-0.018-0.009l-0.018-0.01l-0.017-0.011l-0.017-0.012l-0.017-0.012l-0.016-0.013l-0.016-0.014l-0.016-0.015l-0.015-0.015
			l-0.015-0.016l-0.015-0.017l-0.014-0.018l-0.014-0.019l-0.014-0.019l-0.014-0.02l-0.013-0.021l-0.013-0.022l-0.013-0.022
			l-0.012-0.023l-0.012-0.024l-0.012-0.025l-0.011-0.025L157,409.626l-0.011-0.027l-0.011-0.028
			c-0.117-0.322-0.154-0.671-0.178-1.011c-0.069-1.365,0.122-2.764,0.316-4.114c2.619-15.413,8.876-30.061,16.607-43.574
			l9.347-15.763c1.52-2.668,3.066-5.435,4.208-8.285c0.569-1.441,1.031-2.949,1.157-4.499c0.209-2.322-0.448-4.617-1.278-6.763
			c-2.544-6.474-6.551-13.066-8.048-19.907c-0.517-2.398-0.752-4.909-0.301-7.336c0.309-1.672,0.986-3.288,2.041-4.628
			c1.424-1.827,3.427-3.15,5.585-3.956c4.165-1.584,8.798-1.142,12.958,0.23c4.928,1.597,9.543,4.142,13.886,6.938
			c2.281,1.407,4.478,3.356,6.977,4.371c1.92,0.757,4.017,0.941,6.064,1.006c7.61,0.111,15.572-0.934,23.121-1.861
			c15.731-2.039,32.484-5.184,48.04-8.241c10.97-1.827,24.257-0.761,35.304-1.805c3.751-0.306,7.612-0.783,11.287-1.611
			c5.147-1.124,10.907-3.245,15.895-4.887c4.159-1.355,8.47-2.477,12.826-2.932c12.824-1.3,26.898,0.237,38.505-6.423
			c4.178-2.363,8.028-5.359,11.299-8.873c0.893-0.982,1.767-2.022,2.46-3.156c0.283-0.48,0.56-0.985,0.672-1.536l0.006-0.035
			l0.005-0.034l0.005-0.034l0.004-0.033l0.003-0.033l0.002-0.032l0.002-0.031l0.001-0.031l0-0.03l-0.001-0.03l-0.002-0.029
			l-0.002-0.028l-0.003-0.028l-0.004-0.027l-0.005-0.027l-0.005-0.026l-0.006-0.025c-0.131-0.531-0.853-0.648-0.934-1.168
			l-0.003-0.028l-0.002-0.029l-0.001-0.029l0-0.03l0.001-0.031l0.003-0.032l0.004-0.032l0.005-0.033l0.006-0.034l0.007-0.034
			l0.008-0.035l0.009-0.036l0.011-0.037l0.012-0.037l0.013-0.038l0.014-0.039l0.015-0.04c0.48-1.085,1.329-1.976,2.104-2.858
			c7.644-7.951,18.166-15.839,26.779-22.811c2.016-1.706,4.251-3.412,5.781-5.585c0.263-0.408,0.502-0.852,0.573-1.337l0.004-0.031
			l0.003-0.031l0.003-0.031l0.002-0.031l0.002-0.031l0.001-0.031l0-0.03l0-0.03l-0.001-0.03l-0.001-0.03l-0.002-0.03l-0.003-0.029
			l-0.003-0.029l-0.004-0.029l-0.004-0.029l-0.005-0.029l-0.006-0.028l-0.006-0.028l-0.007-0.028l-0.008-0.028l-0.008-0.028
			l-0.009-0.027l-0.009-0.027c-0.454-1.146-2.272-1.657-2.346-3.063l-0.001-0.044l0-0.045l0.001-0.045l0.002-0.046l0.003-0.047
			l0.005-0.047l0.006-0.048l0.007-0.048l0.008-0.049l0.009-0.049l0.01-0.05l0.012-0.05l0.013-0.051l0.014-0.051l0.015-0.051
			c0.279-0.875,0.839-1.633,1.404-2.344c2.463-2.929,5.56-5.329,8.59-7.642c5.478-4.026,11.278-7.893,17.421-10.828
			c3.441-1.65,7.338-2.822,11.015-3.847c3.225-7.532,8.403-14.157,14.537-19.548c1.972-1.702,4.089-3.294,6.389-4.526
			c1.386-0.732,2.862-1.354,4.418-1.601c1.609-0.271,3.292,0.05,4.698,0.874c2.616,1.5,4.428,4.311,6.234,6.651
			c1.126,1.418,2.498,3.057,4.452,3.124c1.302,0.035,2.563-0.43,3.774-0.856c2.615-0.982,5.413-2.075,8.226-2.217
			c5.259-0.27,10.427,1.32,15.377,2.922c4.603,1.711,11.163,3.68,15.556,5.727c1.492,0.722,2.939,1.589,4.205,2.664
			c2.505,2.075,4.005,4.902,5.094,7.917c1.218,3.17,2.002,7.016,3.35,10.134c0.205,0.421,0.431,0.849,0.769,1.179l0.022,0.021
			l0.022,0.02l0.023,0.02l0.023,0.019l0.023,0.018l0.023,0.017l0.023,0.017l0.023,0.016l0.023,0.015l0.023,0.015l0.023,0.014
			l0.023,0.013l0.023,0.012l0.023,0.012c0.526,0.25,1.118-0.059,1.623-0.228c0.333-0.115,0.693-0.216,1.046-0.147
			c0.372,0.074,0.688,0.31,0.953,0.572c0.517,0.522,0.899,1.168,1.244,1.812c1.322,2.584,2.198,5.539,3.076,8.301
			c0.887,2.962,1.719,6.018,1.912,9.116c0.082,1.374-0.002,2.768-0.334,4.106c-0.44,1.834-1.306,3.547-2.234,5.179
			c1.937,0.69,3.405,2.323,4.282,4.144c0.758,1.594,1.161,3.428,0.804,5.18c4.287,3.639,7.838,8.3,9.762,13.612
			c0.932,2.609,1.369,5.388,1.413,8.154c0.051,2.953-0.312,5.945-0.81,8.852c-0.406,2.271-0.881,4.615-1.612,6.805
			c-0.27,0.745-0.622,1.796-1.203,2.332l-0.015,0.012l-0.015,0.012l-0.015,0.011l-0.015,0.011l-0.015,0.01l-0.015,0.01l-0.015,0.009
			l-0.015,0.009l-0.015,0.008l-0.015,0.008l-0.015,0.007l-0.015,0.007l-0.015,0.006l-0.015,0.006l-0.015,0.005l-0.015,0.005
			l-0.015,0.004l-0.014,0.004l-0.015,0.003l-0.014,0.003l-0.014,0.002l-0.014,0.002l-0.014,0.001l-0.014,0.001l-0.014,0l-0.014,0
			l-0.014-0.001l-0.014-0.001l-0.014-0.002l-0.014-0.002c-0.37-0.078-0.669-0.56-0.956-0.793c-0.087-0.073-0.186-0.146-0.302-0.156
			l-0.005,0l-0.005,0l-0.005,0l-0.005,0l-0.005,0l-0.005,0l-0.005,0l-0.005,0l-0.005,0l-0.005,0l-0.005,0.001l-0.005,0.001
			l-0.005,0.001l-0.005,0.001l-0.018,0.004l-0.018,0.005l-0.018,0.007l-0.018,0.008l-0.018,0.009l-0.018,0.011l-0.018,0.012
			l-0.018,0.013l-0.017,0.015l-0.017,0.016l-0.017,0.017l-0.017,0.019l-0.017,0.02l-0.017,0.021l-0.017,0.022l-0.017,0.024
			l-0.017,0.025l-0.017,0.026l-0.017,0.027l-0.017,0.029l-0.017,0.03c-0.658,1.4-0.907,3.568-1.198,5.117
			c-0.855,5.24-1.656,11.779-3.169,16.828c-0.466,1.541-1.069,3.065-1.871,4.463c-1.789,3.291-4.947,5.453-7.177,8.367
			c-0.946,1.169-2.004,2.866-3.191,3.787c-0.181,0.127-0.381,0.239-0.602,0.277l-0.015,0.002l-0.015,0.002l-0.015,0.002
			l-0.015,0.002l-0.015,0.001l-0.015,0.001l-0.015,0.001l-0.015,0l-0.015,0l-0.015,0l-0.015-0.001l-0.015-0.001l-0.015-0.001
			l-0.015-0.001l-0.015-0.002l-0.015-0.002l-0.015-0.002l-0.015-0.003l-0.015-0.003l-0.015-0.003l-0.014-0.004l-0.014-0.004
			l-0.014-0.004l-0.014-0.005l-0.014-0.005l-0.014-0.005l-0.014-0.006l-0.012-0.005l-0.012-0.005
			c-0.439-0.217-0.712-0.74-0.955-1.147c-0.453-0.794-0.897-1.79-1.575-2.416c-0.192-0.174-0.414-0.321-0.662-0.4l-0.034-0.011
			l-0.035-0.01l-0.035-0.009l-0.035-0.008l-0.035-0.007l-0.036-0.006l-0.036-0.006l-0.036-0.005l-0.037-0.004l-0.037-0.003
			l-0.037-0.002l-0.037-0.002l-0.038-0.001l-0.038,0l-0.038,0.001l-0.038,0.001l-0.039,0.002l-0.039,0.003l-0.039,0.004l-0.04,0.004
			c-0.972,0.144-1.808,0.738-2.576,1.316c-4.428,3.603-8.26,9.305-12.258,13.364c-0.587,0.576-1.203,1.156-1.908,1.585
			c-0.464,0.275-1.076,0.54-1.59,0.242c-0.554-0.34-0.795-1.202-0.995-1.79c-0.297-0.904-0.549-2.121-1.09-2.909
			c-0.112-0.155-0.246-0.3-0.411-0.399l-0.018-0.01l-0.018-0.01l-0.018-0.009l-0.018-0.009l-0.018-0.009l-0.018-0.008l-0.018-0.008
			l-0.019-0.008l-0.019-0.007l-0.019-0.007l-0.019-0.006l-0.019-0.006l-0.019-0.006l-0.019-0.005l-0.02-0.005l-0.02-0.004
			l-0.02-0.004l-0.02-0.004l-0.02-0.003l-0.02-0.003l-0.02-0.003l-0.02-0.002l-0.021-0.002l-0.021-0.002
			c-0.547-0.024-1.053,0.258-1.497,0.549c-2.893,2.087-5.009,5.858-6.779,8.899c-0.942,1.526-2.095,3.38-4.052,3.573
			c-0.598,0.059-1.201-0.05-1.772-0.226c-3.375-1.146-7.164-4.259-10.155-6.216c-1.72-1.131-3.489-2.325-5.458-2.972
			c-0.614-0.188-1.266-0.315-1.908-0.223c-1.296,0.178-2.255,1.229-3.178,2.064c-0.837,0.773-1.817,1.451-3.013,1.295
			c-0.551-0.063-1.085-0.248-1.593-0.465C527.029,338.371,524.865,336.651,522.928,335.274z"/>
	</g>
</g>
</svg>
