<?xml version="1.0" encoding="utf-8"?>
<!-- Generator: Adobe Illustrator 25.4.1, SVG Export Plug-In . SVG Version: 6.00 Build 0)  -->
<!DOCTYPE svg PUBLIC "-//W3C//DTD SVG 1.1//EN" "http://www.w3.org/Graphics/SVG/1.1/DTD/svg11.dtd" [
	<!ENTITY ns_extend "http://ns.adobe.com/Extensibility/1.0/">
	<!ENTITY ns_ai "http://ns.adobe.com/AdobeIllustrator/10.0/">
	<!ENTITY ns_graphs "http://ns.adobe.com/Graphs/1.0/">
	<!ENTITY ns_vars "http://ns.adobe.com/Variables/1.0/">
	<!ENTITY ns_imrep "http://ns.adobe.com/ImageReplacement/1.0/">
	<!ENTITY ns_sfw "http://ns.adobe.com/SaveForWeb/1.0/">
	<!ENTITY ns_custom "http://ns.adobe.com/GenericCustomNamespace/1.0/">
	<!ENTITY ns_adobe_xpath "http://ns.adobe.com/XPath/1.0/">
]>
<svg version="1.1" xmlns:x="&ns_extend;" xmlns:i="&ns_ai;" xmlns:graph="&ns_graphs;"
	 xmlns="http://www.w3.org/2000/svg" xmlns:xlink="http://www.w3.org/1999/xlink" x="0px" y="0px" width="750px" height="750px"
	 viewBox="0 0 750 750" enable-background="new 0 0 750 750" xml:space="preserve">
<metadata>
	<sfw  xmlns="&ns_sfw;">
		<slices></slices>
		<sliceSourceBounds  bottomLeftOrigin="true" height="10291.234" width="5506" x="-2000" y="-1364"></sliceSourceBounds>
	</sfw>
</metadata>
<g id="FILL-BACKGROUND">
	<rect fill="#FFFFFF" width="750" height="750"/>
</g>
<g id="N-DIMENSIONS">
</g>
<g id="N-TEXT">
</g>
<g id="_x32_D_x24_AG-DIAGRAM">
	<g id="POLYLINE_00000061445601606381477450000009388454747903303063_">
		<g>
			<g>
				
					<line fill="none" stroke="#FB8604" stroke-width="3.25" stroke-linecap="round" stroke-linejoin="round" x1="80.677" y1="609.265" x2="82.677" y2="609.265"/>
				
					<line fill="none" stroke="#FB8604" stroke-width="3.25" stroke-linecap="round" stroke-linejoin="round" stroke-dasharray="3.9701,6.9477" x1="89.625" y1="609.265" x2="522.866" y2="609.265"/>
				
					<line fill="none" stroke="#FB8604" stroke-width="3.25" stroke-linecap="round" stroke-linejoin="round" x1="526.34" y1="609.265" x2="528.34" y2="609.265"/>
			</g>
		</g>
	</g>
</g>
<g id="_x32_D_x24_AG-DETAILS-DIAGRAM">
</g>
<g id="_x32_D_x24_AG-DETAILS">
</g>
<g id="_x32_D_x24_AG-ANIMALS">
	<g id="POLYLINE_00000049940231385287580890000008566398571940085913_">
		
			<path fill="none" stroke="#FB8604" stroke-width="2.75" stroke-linecap="round" stroke-linejoin="round" stroke-miterlimit="10" d="
			M253.04,423.276c6.995-1.399,14.199-2.553,21.335-2.789c6.066-0.216,12.226,0.24,18.186,1.399
			c6.095,1.173,12.234,3.003,18.111,4.996c14.698,5.085,35.038,13.87,49.735,18.804c9.277,3.189,19.039,6.127,28.603,8.289
			c10.505,2.41,21.581,4.143,32.3,5.319"/>
	</g>
	<g id="POLYLINE_00000018932633327965924580000012785865794218922678_">
		
			<path fill="none" stroke="#FB8604" stroke-width="2.75" stroke-linecap="round" stroke-linejoin="round" stroke-miterlimit="10" d="
			M163.42,437.41c-2.696-6.696-4.826-13.72-6.144-20.819c-1.126-5.993-1.682-12.184-1.815-18.28
			c-0.15-7.979,0.166-16.109,1.767-23.944c1.048-5.11,2.688-10.151,5.169-14.75c4.927-9.156,12.612-16.721,21.503-22.044
			c3.481-2.078,7.201-3.828,11.004-5.231c3.765-1.442,8.895-2.699,12.845-3.69c7.993-2.01,19.495-6.359,27.417-8.799
			c33.747-10.526,69.55-13.858,104.784-12.9c6.234,0.232,13.285,0.712,19.483,1.42c4.08,0.435,11.71,1.561,15.801,1.876
			c3.318,0.256,6.702,0.18,9.98-0.424c4.943-0.884,10.945-2.984,15.672-4.385c3.05-0.922,6.319-1.707,9.437-2.349l12.247-2.397
			c6.285-1.35,12.791-2.891,18.855-5.023c2.421-0.876,4.847-1.894,6.937-3.421c1.084-0.788,2.07-1.728,2.961-2.728
			c4.377-5.15,9.385-12.684,13.701-17.882c5.133-6.323,10.722-12.535,16.642-18.134c2.513-2.411,5.846-5.14,8.506-7.403
			c5.088-4.32,9.022-9.855,12.21-15.682"/>
	</g>
	<g id="POLYLINE_00000072273206872093303490000005172041267635757501_">
		
			<path fill="none" stroke="#FB8604" stroke-width="2.75" stroke-linecap="round" stroke-linejoin="round" stroke-miterlimit="10" d="
			M144.682,595.687c0.783,1.906,1.42,3.904,1.744,5.941c0.213,1.364,0.302,2.769,0.105,4.14c-0.151,0.949-0.414,1.971-1.145,2.644
			c-0.497,0.45-1.165,0.639-1.815,0.732c-0.649,0.094-1.366,0.106-2.024,0.116c-3.386-0.051-27.353,0.133-30.149-0.111
			c-1.198-0.101-2.413-0.287-3.538-0.726c-1.007-0.392-1.934-0.992-2.713-1.741c-1.914-1.843-2.939-4.449-3.221-7.059
			c-0.437-3.716,0.537-8.879,0.909-12.608l1.104-11.705c0.741-7.732,3.506-17.171,5.389-24.753
			c2.87-11.448,4.359-25.611,6.127-37.331c0.382-2.185,0.803-4.425,1.578-6.508c0.674-1.843,1.762-3.526,3.159-4.904
			c0.741-0.746,1.579-1.446,2.411-2.089c2.454-1.865,6.087-4.341,8.476-6.267c4.992-3.922,9.465-8.591,13.529-13.457
			c5.798-7.03,11.195-14.653,14.402-23.242c2.468-6.546,3.638-13.606,4.567-20.517c1.531-12.181,3.549-32.594,6.089-44.348
			c0.816-3.865,1.843-7.771,3.19-11.483c1.473-4.109,3.428-8.11,5.568-11.912c2.001-3.568,4.21-7.166,6.659-10.444
			c4.591-6.181,10.118-11.688,15.907-16.744"/>
	</g>
	<g id="POLYLINE_00000070106797546478930730000017105822988966673053_">
		
			<path fill="none" stroke="#FB8604" stroke-width="2.75" stroke-linecap="round" stroke-linejoin="round" stroke-miterlimit="10" d="
			M273.973,368.478c1.253,6.013,2.264,12.195,1.889,18.352c-0.274,4.813-1.488,9.603-3.757,13.869
			c-1.993,3.797-4.635,7.278-7.424,10.525c-6.016,7-14.312,14.314-20.6,21.088c-6.17,6.57-12.738,15.522-18.489,22.524
			c-4.39,5.307-9.451,10.706-14.312,15.606c-7.531,7.541-16.017,15.432-23.996,22.51c-7.352,6.454-15.328,13.183-23.283,18.852
			c-6.487,4.678-15.238,9.522-20.516,15.594c-3.262,3.69-5.726,8.051-7.684,12.553c-2.622,6.085-4.361,12.577-5.429,19.109
			c-0.824,4.707-1.489,12.517-2.071,17.298c-0.168,1.37-0.455,2.84-0.715,4.19c-0.087,0.533-0.158,1.089-0.097,1.629
			c0.039,0.357,0.139,0.709,0.301,1.031c0.18,0.358,0.426,0.681,0.696,0.975c0.831,0.892,1.868,1.578,2.91,2.198
			c2.07,1.236,4.626,2.2,6.854,3.127c1.146,0.49,2.295,1.046,3.269,1.832c1.412,1.141,2.379,2.732,3.163,4.348"/>
	</g>
	<g id="POLYLINE_00000033359765857093876740000010080351449411729073_">
		
			<path fill="none" stroke="#FB8604" stroke-width="2.75" stroke-linecap="round" stroke-linejoin="round" stroke-miterlimit="10" d="
			M645.876,229.591c0.682,3.997,1.243,8.108,1.128,12.17c-0.048,1.032-0.137,2.085-0.453,3.074c-0.199,0.625-0.51,1.212-0.88,1.752
			c-0.352,0.519-0.808,1.11-1.062,1.677c-0.205,0.437-0.328,0.913-0.415,1.386c-0.458,2.876-0.324,5.91-1.499,8.651
			c-0.663,1.598-1.772,2.974-3.018,4.157c-2.2,2.074-4.845,3.684-7.45,5.196l-7.609,4.262c-6.031,3.492-15.183,9.448-21.241,12.849
			c-5.558,3.14-11.414,6.109-17.357,8.443c-5.26,2.046-10.766,3.724-16.406,4.244c-7.483,0.727-15.003-0.758-22.139-2.936"/>
	</g>
	<g id="POLYLINE_00000143617944064674002900000002359426924957273530_">
		
			<path fill="none" stroke="#FB8604" stroke-width="2.75" stroke-linecap="round" stroke-linejoin="round" stroke-miterlimit="10" d="
			M530.91,211.318c-0.779,1.144-1.839,2.162-2.254,3.517c-0.313,0.945-0.352,1.958-0.313,2.945c0.086,1.934,0.457,3.95,0.818,5.853
			c0.433,2.407,1.848,8.36,2.144,10.698c0.171,1.201,0.331,2.441,0.259,3.655c-0.047,0.707-0.174,1.431-0.524,2.056
			c-0.237,0.426-0.591,0.785-1.016,1.025c-0.51,0.291-1.094,0.43-1.674,0.491c-0.966,0.097-1.946-0.004-2.9-0.168
			c-4.141-0.794-8.082-2.563-11.885-4.336c-3.641-1.793-7.554-3.788-10.77-6.268c-0.64-0.529-1.259-1.147-1.548-1.942
			c-0.371-1.011-0.112-2.116,0.22-3.102c1.383-3.798,4.118-7.629,5.811-11.289c1.277-2.667,2.564-6.084,4.607-8.251
			c1.792-1.955,4.078-3.454,6.565-4.368c1.589-0.591,3.293-0.849,4.975-0.998c1.749-0.147,4.034-0.282,5.745-0.579
			c1.407-0.232,2.826-0.628,4.184-1.062l6.912-2.353c3.707-1.205,7.571-2.079,11.476-2.231c10.349-0.368,20.845,2.297,30.87,4.6
			c2.323,0.58,4.777,1.288,6.5,3.045c1.162,1.165,1.927,2.665,2.642,4.129c1.863,3.879,3.527,8.541,7.455,10.794
			c3.133,1.83,6.845,2.314,10.411,2.522c6.647,0.333,15.868-0.46,22.544-0.407"/>
	</g>
	<g id="POLYLINE_00000128474893979140637400000000874953541421622698_">
		
			<path fill="none" stroke="#FB8604" stroke-width="2.75" stroke-linecap="round" stroke-linejoin="round" stroke-miterlimit="10" d="
			M631.56,219.792c0.156-0.225,0.387-0.386,0.626-0.513c0.633-0.322,1.347-0.462,2.041-0.588c1.128-0.181,4.355-0.599,5.494-0.721
			c0.472-0.039,0.957-0.056,1.429-0.009c0.504,0.05,1.006,0.179,1.452,0.424c0.784,0.43,1.339,1.175,1.775,1.938
			c0.794,1.428,1.252,3.03,1.549,4.63c0.225,1.374,0.436,2.943,0.069,4.303c-0.15,0.527-0.463,1.054-0.989,1.27
			c-0.372,0.157-0.788,0.171-1.186,0.135c-0.704-0.07-1.388-0.294-2.044-0.553c-2.949-1.241-5.74-3.212-7.953-5.518
			c-0.604-0.644-1.184-1.339-1.669-2.078c-0.288-0.447-0.555-0.921-0.705-1.433C631.327,220.66,631.298,220.167,631.56,219.792z"/>
	</g>
	<g id="POLYLINE_00000138565835253810358450000007753654817559138982_">
		
			<path fill="none" stroke="#FB8604" stroke-width="2.75" stroke-linecap="round" stroke-linejoin="round" stroke-miterlimit="10" d="
			M417.469,407.018c-0.588,11.439-1.542,25.089-1.429,36.451c0.045,1.854,0.109,3.742,0.381,5.57
			c0.134,0.877,0.323,1.747,0.642,2.574c0.542,1.417,1.733,3.192,2.511,4.522c1.367,2.254,2.55,4.653,3.361,7.164
			c1.002,3.031,1.528,6.242,1.91,9.405c0.868,6.919,1.192,18.851,1.513,25.957c0.135,7.378,1.859,43.427,1.404,50.068
			c-0.079,1.132-0.222,2.285-0.525,3.38c-0.568,2.081-1.893,4.762-2.745,6.751c-0.562,1.308-1.147,2.67-1.449,4.066
			c-0.174,0.828-0.248,1.696-0.07,2.529c0.217,1.081,0.926,1.997,1.781,2.665c1.208,0.949,2.646,1.577,4.107,2.027
			c0.95,0.289,2.023,0.537,2.895,0.973c0.646,0.314,1.236,0.743,1.744,1.25c0.874,0.877,1.561,1.938,2.177,3.006
			c1.501,2.661,2.701,5.665,3.808,8.515c2.05,5.294,4.156,12.084,5.885,17.535c0.462,1.336,0.954,2.714,1.598,3.973
			c0.471,0.916,1.036,1.818,1.837,2.482c0.816,0.69,1.86,1.041,2.906,1.194c0.77,0.118,1.58,0.153,2.359,0.173
			c1.313,0.009,30.975,0.053,31.793-0.022c0.62-0.046,1.275-0.131,1.793-0.5c0.386-0.273,0.641-0.692,0.809-1.127
			c0.558-1.543,0.6-3.395,0.579-5.026c-0.088-3.511-0.864-7.118-2.881-10.047c-0.886-1.285-2.016-2.443-3.413-3.166
			c-0.943-0.494-1.985-0.786-3.029-0.974c-1.68-0.301-3.493-0.376-5.201-0.441l-6.006-0.097c-0.459-0.019-0.943-0.029-1.395-0.102
			c-0.247-0.04-0.495-0.099-0.721-0.211c-0.322-0.155-0.568-0.426-0.786-0.703c-1.47-1.977-2.518-4.336-3.588-6.547
			c-2.777-5.999-5.267-12.287-7.16-18.624c-0.565-2.001-1.186-4.061-1.311-6.146c-0.031-0.558-0.011-1.143,0.022-1.7
			c0.186-2.116,0.751-11.559,0.884-13.822c0.579-7.964,1.653-16.267,3.133-24.118c1.775-9.813,6.242-26.108,8.716-35.938
			c1.349-5.493,2.481-11.248,3.156-16.856c0.473-3.886,0.975-9.774,1.911-13.491c0.614-2.552,1.603-5.057,3.234-7.136
			c0.88-1.147,1.913-2.21,2.964-3.201c2.965-2.807,10.356-8.569,13.61-11.251c6.69-5.488,13.161-11.48,18.53-18.286
			c4.066-5.082,7.322-10.788,9.418-16.96c2.488-7.237,3.924-15.405,6.484-22.62c2.788-7.934,6.32-15.712,10.712-22.89
			c4.37-7.3,12.126-15.966,17.569-22.548c4.916-6.072,9.758-12.588,13.901-19.212c1.604-2.651,3.265-5.391,4.274-8.333"/>
	</g>
</g>
<g id="_x32_D_x24_AG-OUTLINE">
	<g id="POLYLINE_00000078038528171006431450000013849484962026531994_">
		
			<path fill="none" stroke="#FB8604" stroke-width="3.5" stroke-linecap="round" stroke-linejoin="round" stroke-miterlimit="10" d="
			M645.876,229.591c0.314-0.765,0.331-1.616,0.304-2.432c-0.09-1.735-0.44-3.472-1.024-5.109c-0.329-0.898-0.739-1.784-1.318-2.55
			c-0.401-0.531-0.91-0.999-1.531-1.256c-1.058-0.442-2.246-0.323-3.357-0.19c-1.314,0.208-4.452,0.503-5.706,0.843
			c-0.37,0.097-0.743,0.214-1.082,0.395c-6.686-0.053-15.892,0.739-22.544,0.407c-3.566-0.208-7.278-0.692-10.411-2.522
			c-3.926-2.25-5.594-6.918-7.455-10.794c-0.715-1.465-1.48-2.963-2.642-4.129c-1.723-1.757-4.178-2.465-6.5-3.045
			c-10.03-2.304-20.517-4.967-30.87-4.6c-3.905,0.152-7.769,1.026-11.476,2.231l-6.912,2.353c-1.358,0.434-2.776,0.829-4.184,1.062
			c-1.704,0.297-4.005,0.434-5.745,0.579c-1.683,0.149-3.386,0.407-4.975,0.998c-2.487,0.914-4.773,2.413-6.565,4.368
			c-2.038,2.16-3.338,5.597-4.607,8.251c-1.544,3.295-3.987,6.947-5.428,10.288c-0.306,0.735-0.586,1.498-0.721,2.285
			c-0.107,0.621-0.096,1.277,0.136,1.869c0.228,0.597,0.65,1.098,1.113,1.529c-3.188,5.828-7.121,11.362-12.21,15.682
			c-2.67,2.272-5.99,4.989-8.506,7.403c-5.92,5.599-11.509,11.81-16.642,18.133c-4.315,5.198-9.323,12.733-13.7,17.883
			c-0.891,1-1.876,1.941-2.961,2.728c-2.089,1.526-4.516,2.545-6.937,3.421c-6.062,2.132-12.574,3.676-18.855,5.023l-12.247,2.397
			c-3.121,0.642-6.398,1.428-9.437,2.349c-4.68,1.392-11.016,3.574-15.672,4.385c-3.28,0.604-6.66,0.679-9.98,0.424
			c-4.06-0.296-11.733-1.457-15.801-1.876c-6.208-0.704-13.232-1.194-19.483-1.42c-35.235-0.958-71.037,2.373-104.784,12.9
			c-7.94,2.448-19.403,6.79-27.417,8.799c-3.946,0.994-9.068,2.241-12.845,3.69c-3.802,1.403-7.524,3.153-11.004,5.231
			c-8.89,5.323-16.576,12.888-21.503,22.044c-2.481,4.599-4.122,9.641-5.169,14.75c-1.601,7.833-1.919,15.966-1.767,23.944
			c0.143,6.536,0.773,13.164,2.066,19.576c1.326,6.646,3.363,13.239,5.894,19.523c-0.997,7.198-2.328,14.504-5.154,21.23
			c-1.869,4.51-4.36,8.779-7.132,12.791c-3.355,4.844-7.179,9.565-11.209,13.863c-3.291,3.522-6.947,6.799-10.812,9.68
			c-2.679,2.058-6.528,4.465-8.921,6.839c-1.397,1.378-2.485,3.061-3.158,4.904c-0.775,2.082-1.197,4.325-1.578,6.508
			c-1.759,11.729-3.26,25.859-6.127,37.331c-1.889,7.612-4.643,16.996-5.389,24.753l-1.104,11.705
			c-0.236,2.27-0.933,7.146-1.001,9.35c-0.121,2.629,0.159,5.365,1.4,7.725c0.982,1.918,2.593,3.557,4.626,4.334
			c1.864,0.716,3.909,0.784,5.883,0.829c1.6-0.035,28.586,0.099,29.408-0.059c0.571-0.055,1.153-0.149,1.672-0.404
			c0.5-0.239,0.897-0.658,1.148-1.148c0.565-1.122,0.673-2.416,0.667-3.655c-0.057-2.862-0.88-5.666-1.957-8.3
			c-0.645-1.329-1.407-2.633-2.446-3.693c-0.667-0.69-1.466-1.245-2.312-1.694c-1.408-0.76-3.502-1.516-4.981-2.156
			c-1.928-0.843-3.864-1.791-5.523-3.099c-0.702-0.574-1.399-1.233-1.743-2.09c-0.244-0.615-0.243-1.293-0.16-1.941
			c0.236-1.503,0.617-3.145,0.784-4.655c0.677-5.503,1.317-13.577,2.358-18.962c1.511-8.233,4.053-16.407,8.281-23.667
			c1.248-2.119,2.67-4.169,4.28-6.029c1.717-1.991,3.691-3.799,5.746-5.436c3.014-2.47,10.171-7.089,13.44-9.343
			c5.195-3.597,10.47-7.754,15.337-11.786c8.992-7.491,18.388-16.03,26.838-24.121c6.227-5.986,12.74-12.56,18.392-19.089
			c5.415-6.209,11.601-14.683,16.957-20.939c3.973-4.723,8.684-9.407,13.109-13.711c6.995-1.399,14.199-2.553,21.335-2.789
			c6.066-0.216,12.226,0.24,18.186,1.399c6.095,1.173,12.234,3.003,18.111,4.996c14.698,5.085,35.038,13.87,49.735,18.804
			c9.277,3.189,19.039,6.127,28.603,8.289c10.505,2.41,21.581,4.143,32.3,5.319c1.464,2.97,2.399,6.206,2.962,9.464
			c1.495,8.601,1.657,21.07,2.086,29.901c0.148,6.83,1.775,43.242,1.45,49.253c-0.062,1.316-0.179,2.657-0.503,3.937
			c-0.871,3.279-2.871,6.633-3.929,9.849c-0.261,0.808-0.465,1.649-0.501,2.5c-0.04,0.851,0.125,1.725,0.565,2.463
			c0.45,0.765,1.132,1.368,1.862,1.86c1.088,0.726,2.311,1.245,3.559,1.626c0.95,0.289,2.023,0.537,2.895,0.973
			c0.646,0.314,1.236,0.743,1.744,1.25c0.874,0.877,1.561,1.938,2.177,3.006c1.501,2.661,2.701,5.665,3.808,8.515
			c2.05,5.294,4.156,12.084,5.885,17.535c0.462,1.336,0.954,2.714,1.598,3.973c0.471,0.916,1.036,1.818,1.837,2.482
			c0.816,0.69,1.86,1.041,2.906,1.194c0.77,0.118,1.58,0.153,2.359,0.173c1.313,0.009,30.975,0.053,31.793-0.022
			c0.62-0.046,1.275-0.131,1.793-0.5c0.386-0.273,0.641-0.692,0.809-1.127c0.558-1.543,0.6-3.395,0.579-5.026
			c-0.088-3.511-0.864-7.118-2.881-10.047c-0.886-1.285-2.016-2.443-3.413-3.166c-0.943-0.494-1.985-0.786-3.029-0.974
			c-1.68-0.301-3.493-0.376-5.201-0.441l-6.006-0.097c-0.459-0.019-0.943-0.029-1.395-0.102c-0.247-0.04-0.495-0.099-0.721-0.211
			c-0.322-0.155-0.568-0.426-0.786-0.703c-1.47-1.977-2.518-4.336-3.588-6.547c-2.777-5.999-5.267-12.287-7.16-18.624
			c-0.565-2.001-1.186-4.061-1.311-6.146c-0.031-0.558-0.011-1.143,0.022-1.7c0.186-2.116,0.751-11.559,0.884-13.822
			c0.579-7.964,1.653-16.267,3.133-24.118c1.775-9.813,6.242-26.108,8.716-35.938c1.349-5.493,2.481-11.248,3.156-16.856
			c0.473-3.886,0.975-9.774,1.911-13.491c0.614-2.552,1.603-5.057,3.234-7.136c0.88-1.147,1.913-2.21,2.964-3.201
			c2.965-2.807,10.356-8.569,13.61-11.251c6.69-5.488,13.161-11.48,18.53-18.286c4.066-5.082,7.322-10.788,9.418-16.96
			c2.488-7.237,3.924-15.405,6.484-22.62c2.788-7.934,6.32-15.712,10.712-22.89c4.37-7.3,12.126-15.966,17.569-22.548
			c4.916-6.072,9.758-12.588,13.901-19.212c1.604-2.651,3.265-5.391,4.274-8.333c6.215-0.952,12.225-3.11,17.967-5.621
			c11.801-5.081,23.542-13.1,34.581-19.618l7.609-4.262c2.606-1.513,5.249-3.122,7.45-5.196c1.246-1.183,2.355-2.56,3.018-4.157
			c1.175-2.741,1.041-5.776,1.499-8.651c0.088-0.473,0.211-0.949,0.415-1.386c0.253-0.566,0.713-1.165,1.061-1.677
			c0.37-0.54,0.681-1.127,0.88-1.752c0.317-0.989,0.406-2.042,0.454-3.074C647.119,237.699,646.558,233.588,645.876,229.591z"/>
	</g>
</g>
</svg>
