<?xml version="1.0" encoding="utf-8"?>
<!-- Generator: Adobe Illustrator 26.0.2, SVG Export Plug-In . SVG Version: 6.00 Build 0)  -->
<!DOCTYPE svg PUBLIC "-//W3C//DTD SVG 1.1//EN" "http://www.w3.org/Graphics/SVG/1.1/DTD/svg11.dtd" [
	<!ENTITY ns_extend "http://ns.adobe.com/Extensibility/1.0/">
	<!ENTITY ns_ai "http://ns.adobe.com/AdobeIllustrator/10.0/">
	<!ENTITY ns_graphs "http://ns.adobe.com/Graphs/1.0/">
	<!ENTITY ns_vars "http://ns.adobe.com/Variables/1.0/">
	<!ENTITY ns_imrep "http://ns.adobe.com/ImageReplacement/1.0/">
	<!ENTITY ns_sfw "http://ns.adobe.com/SaveForWeb/1.0/">
	<!ENTITY ns_custom "http://ns.adobe.com/GenericCustomNamespace/1.0/">
	<!ENTITY ns_adobe_xpath "http://ns.adobe.com/XPath/1.0/">
]>
<svg version="1.1" xmlns:x="&ns_extend;" xmlns:i="&ns_ai;" xmlns:graph="&ns_graphs;"
	 xmlns="http://www.w3.org/2000/svg" xmlns:xlink="http://www.w3.org/1999/xlink" x="0px" y="0px" width="750px" height="750px"
	 viewBox="0 0 750 750" style="enable-background:new 0 0 750 750;" xml:space="preserve">
<style type="text/css">
	.st0{fill:#FFFFFF;}
	.st1{fill:none;stroke:#D2374E;stroke-width:2.75;stroke-linecap:round;stroke-linejoin:round;stroke-miterlimit:10;}
	.st2{fill:none;stroke:#D2374E;stroke-width:2.25;stroke-linecap:round;stroke-linejoin:round;stroke-miterlimit:10;}
	.st3{fill:none;stroke:#D2374E;stroke-width:3.5;stroke-linecap:round;stroke-linejoin:round;stroke-miterlimit:10;}
	.st4{fill:none;stroke:#D2374E;stroke-width:3;stroke-linecap:round;stroke-linejoin:round;stroke-miterlimit:10;}
</style>
<metadata>
	<sfw  xmlns="&ns_sfw;">
		<slices></slices>
		<sliceSourceBounds  bottomLeftOrigin="true" height="1750" width="1000" x="0" y="686"></sliceSourceBounds>
	</sfw>
</metadata>
<g id="FILL-BACKGROUND">
	<rect class="st0" width="750" height="750"/>
</g>
<g id="_x32_D_x24_AG-DETAILS">
</g>
<g id="_x32_D_x24_AG-OBJECTS">
	<g id="POLYLINE_00000029748196244033016940000005339238879585418641_">
		<path class="st1" d="M166.913,153.563h2.533c-0.001,0.016-0.986,95.457-0.987,95.476c0,0.098,0.005,0.201,0.013,0.298
			c0.019,0.215,0.058,0.431,0.116,0.639c0.129,0.462,0.354,0.897,0.657,1.269c0.599,0.742,1.512,1.218,2.464,1.283
			c0.472,0.03,0.954-0.001,1.407-0.141c0.605-0.182,1.16-0.532,1.584-1c0.326-0.358,0.577-0.785,0.731-1.244
			c0.064-0.19,0.112-0.388,0.142-0.585c0.091-0.33,5.066-95.637,5.119-95.995h2.763c-0.001,0,2.222,95.583,2.222,95.59
			c0.004,0.103,0.012,0.21,0.025,0.312c0.027,0.216,0.074,0.432,0.141,0.639c0.142,0.442,0.373,0.856,0.675,1.209
			c0.4,0.469,0.927,0.828,1.509,1.031c0.432,0.154,0.893,0.208,1.35,0.195c1.025,0.005,2.038-0.469,2.691-1.26
			c0.297-0.356,0.523-0.772,0.659-1.215c0.06-0.194,0.103-0.397,0.128-0.599c0.083-0.335,2.203-95.539,2.246-95.902h2.763
			c-0.001,0,5.086,95.681,5.086,95.688c0.007,0.101,0.018,0.206,0.033,0.307c0.032,0.212,0.085,0.422,0.155,0.624
			c0.155,0.444,0.401,0.857,0.717,1.205c0.434,0.478,1.003,0.833,1.624,1.012c0.538,0.156,1.114,0.175,1.667,0.095
			c0.871-0.136,1.681-0.617,2.218-1.316c0.285-0.368,0.496-0.794,0.615-1.244c0.052-0.195,0.087-0.396,0.105-0.597
			c0.068-0.332-1.003-95.418-0.973-95.774h2.533c2.694,25.86,10.357,92.322,12.035,117.171c0.245,3.574,0.523,8.103,0.566,11.646
			c0.048,3.562-0.066,7.216-0.535,10.75c-0.575,4.429-1.807,8.786-3.703,12.832c-2.449,5.27-5.892,10.066-9.582,14.533
			c-2.026,2.472-4.795,5.494-6.98,7.858c-0.389,0.433-0.813,0.93-1.172,1.389c-0.831,1.058-1.559,2.212-2.133,3.43
			c-0.772,1.631-1.281,3.393-1.571,5.172c-0.179,1.099-0.282,2.243-0.319,3.357c-0.661,27.574,0.768,56.873,2.26,84.439
			l14.283,198.882c0.084,1.504-0.094,3.03-0.52,4.474c-0.32,1.121-0.843,2.204-1.401,3.225c-1.983,3.632-4.822,6.797-8.219,9.16
			c-9.202,6.43-21.545,6.43-30.745,0c-3.27-2.275-6.024-5.293-7.994-8.756c-0.609-1.085-1.2-2.23-1.564-3.423
			c-0.471-1.506-0.671-3.105-0.583-4.68l14.283-198.882c1.468-26.729,2.796-55.221,2.335-81.951
			c-0.054-1.846-0.078-4.044-0.394-5.844c-0.277-1.701-0.754-3.387-1.471-4.956c-0.59-1.298-1.353-2.525-2.233-3.646
			c-0.718-0.963-3.239-3.621-4.085-4.56c-1.268-1.415-2.871-3.232-4.067-4.687c-3.69-4.468-7.133-9.263-9.582-14.533
			c-1.83-3.908-3.046-8.108-3.64-12.38c-0.523-3.682-0.647-7.486-0.598-11.202c0.029-3.537,0.333-8.1,0.566-11.646
			C156.525,246.143,164.274,178.94,166.913,153.563z"/>
	</g>
	<g id="POLYLINE_00000168796851015523498640000012371670462290554521_">
		<path class="st1" d="M597.573,143.368c0.331-3.047,0.286-6.27-0.983-9.112c-0.714-1.608-1.868-3.007-3.285-4.047
			c-2.07-1.531-4.602-2.51-7.197-2.471c-2.298,0.024-4.557,0.736-6.579,1.8c-1.524,0.816-2.862,1.95-4.017,3.229
			c-2.376,2.655-4.134,5.82-5.701,9.002c-1.165,2.391-2.298,5.076-3.27,7.553c-3.695,9.747-7.703,21.619-10.769,31.579
			c-11.583,37.847-19.186,77.48-24.35,116.689c-0.601,5.159-1.057,10.408-0.78,15.593c0.217,3.582,0.752,7.273,2.476,10.47
			c0.675,1.249,1.552,2.389,2.551,3.395c0.255,0.252,0.56,0.555,0.826,0.796c0,0,0.418,0.379,0.418,0.379l2.508,2.196
			c1.892,1.653,3.828,3.456,5.539,5.271c2.723,2.91,5.127,6.196,6.723,9.862c1.135,2.609,1.836,5.403,2.262,8.211
			c0.558,3.686,0.688,7.53,0.649,11.256c-0.009,0.672-0.041,2.012-0.064,2.683c-0.052,0.948-11.874,256.092-11.954,257.32
			c-0.055,0.997,0.004,2.017,0.176,3.001c0.148,0.844,0.382,1.692,0.691,2.492c0,0,0.079,0.199,0.079,0.199s0.082,0.198,0.082,0.198
			s0.085,0.196,0.085,0.196s0.088,0.194,0.088,0.194c0.206,0.458,0.487,0.977,0.721,1.419c0.673,1.219,1.453,2.431,2.309,3.532
			c5.626,7.315,14.756,11.253,23.943,10.324c6.726-0.651,13.122-3.938,17.561-9.034c1.191-1.355,2.25-2.851,3.145-4.418
			c0.461-0.847,0.94-1.71,1.281-2.611c0.698-1.807,0.993-3.773,0.853-5.705c-3.19-82.549-11.528-222.106-9.508-303.096
			C585.407,263.794,591.403,201.014,597.573,143.368z"/>
	</g>
	<g id="POLYLINE_00000101793430172167847810000009907697948093595312_">
		<path class="st1" d="M406.914,310.868c13.59-10.879,21.571-27.472,24.882-44.312c0.914-4.692,1.482-9.53,1.689-14.305
			c0.231-5.824,0.002-11.884-0.408-17.698c-1.609-20.863-6.841-43.009-17.903-60.953c-4.526-7.248-10.188-13.997-17.356-18.75
			c-7.094-4.706-15.373-6.958-23.833-5.36c-6.278,1.16-12.052,4.311-16.923,8.375c-4.788,3.992-8.829,8.872-12.244,14.071
			c-4.035,6.164-7.267,12.883-9.871,19.767c-5.411,14.406-8.277,29.792-9.25,45.125c-0.471,8.017-0.589,16.205,0.523,24.174
			c1.917,14.146,6.949,28.095,15.669,39.49c2.124,2.752,4.51,5.411,7.072,7.762c1.619,1.54,3.825,3.207,5.561,4.625
			c2.426,1.977,5.069,4.201,7.283,6.408c1.033,1.046,2.198,2.275,3.169,3.379c0.875,0.98,1.727,2.035,2.444,3.138
			c1.096,1.677,1.904,3.55,2.391,5.493c0.422,1.666,0.629,3.401,0.686,5.117c0.653,28.949-0.738,59.669-2.26,88.608l-14.283,199.999
			c-0.084,1.504,0.094,3.03,0.52,4.474c0.32,1.121,0.843,2.204,1.401,3.225c1.983,3.632,4.822,6.797,8.219,9.16
			c9.202,6.43,21.545,6.43,30.745,0c3.27-2.275,6.024-5.293,7.994-8.756c0.609-1.085,1.2-2.23,1.564-3.423
			c0.471-1.506,0.671-3.105,0.583-4.68l-14.283-199.999c-1.472-27.162-2.678-56.281-2.388-83.444
			c0.078-2.463,0.027-5.463,0.355-7.896c0.285-2.097,0.867-4.174,1.815-6.07c0.717-1.449,1.655-2.795,2.691-4.033
			c1.601-1.881,3.374-3.773,5.171-5.468C400.954,315.648,404.102,313.119,406.914,310.868z"/>
	</g>
</g>
<g id="_x32_D_x24_AG-OUTLINE">
	<g id="POLYLINE_00000093138508124794933160000018040598774726895283_">
		<path class="st3" d="M166.913,153.563c-2.694,25.86-10.357,92.322-12.035,117.171c-0.245,3.574-0.523,8.103-0.566,11.646
			c-0.048,3.562,0.066,7.216,0.535,10.75c0.575,4.429,1.807,8.786,3.703,12.832c2.449,5.27,5.892,10.066,9.582,14.533
			c2.026,2.472,4.795,5.494,6.98,7.858c0.389,0.433,0.813,0.93,1.172,1.389c0.831,1.058,1.559,2.212,2.133,3.43
			c0.772,1.631,1.281,3.393,1.571,5.172c0.179,1.099,0.282,2.243,0.319,3.357c0.661,27.574-0.768,56.873-2.26,84.439
			l-14.283,198.882c-0.084,1.504,0.094,3.03,0.52,4.474c0.32,1.121,0.843,2.204,1.401,3.225c1.983,3.632,4.822,6.797,8.219,9.16
			c9.202,6.43,21.545,6.43,30.745,0c3.27-2.275,6.024-5.293,7.994-8.756c0.609-1.085,1.2-2.23,1.564-3.423
			c0.471-1.506,0.671-3.105,0.583-4.68L200.509,426.14c-1.468-26.729-2.796-55.221-2.335-81.951
			c0.054-1.846,0.078-4.044,0.394-5.844c0.277-1.701,0.754-3.387,1.471-4.956c0.59-1.298,1.353-2.525,2.233-3.646
			c0.718-0.963,3.239-3.621,4.085-4.56c1.268-1.415,2.871-3.232,4.067-4.687c3.69-4.468,7.133-9.263,9.582-14.533
			c1.83-3.908,3.046-8.108,3.64-12.38c0.523-3.682,0.647-7.486,0.598-11.202c-0.029-3.537-0.333-8.1-0.566-11.646
			c-1.648-24.591-9.396-91.795-12.035-117.171h-2.533c0.001,0.016,0.986,95.457,0.987,95.476c0,0.098-0.005,0.201-0.013,0.298
			c-0.019,0.215-0.058,0.431-0.116,0.639c-0.129,0.462-0.354,0.897-0.657,1.269c-0.599,0.742-1.512,1.218-2.464,1.283
			c-0.472,0.03-0.954-0.001-1.407-0.141c-0.605-0.182-1.16-0.532-1.584-1c-0.326-0.358-0.577-0.785-0.731-1.244
			c-0.064-0.19-0.112-0.388-0.142-0.585c-0.091-0.33-5.066-95.637-5.119-95.995h-2.763c0.001,0-2.222,95.583-2.222,95.59
			c-0.004,0.103-0.012,0.21-0.025,0.312c-0.027,0.216-0.074,0.432-0.141,0.639c-0.142,0.442-0.373,0.856-0.675,1.209
			c-0.4,0.469-0.927,0.828-1.509,1.031c-0.432,0.154-0.893,0.208-1.35,0.195c-1.025,0.005-2.038-0.469-2.691-1.26
			c-0.297-0.356-0.523-0.772-0.659-1.215c-0.06-0.194-0.103-0.397-0.128-0.599c-0.083-0.335-2.203-95.539-2.246-95.902h-2.763
			c0.001,0-5.086,95.681-5.086,95.688c-0.007,0.101-0.018,0.206-0.033,0.307c-0.032,0.212-0.085,0.422-0.155,0.624
			c-0.155,0.444-0.401,0.857-0.717,1.205c-0.434,0.478-1.003,0.833-1.624,1.012c-0.538,0.156-1.114,0.175-1.667,0.095
			c-0.871-0.136-1.681-0.617-2.218-1.316c-0.285-0.368-0.496-0.794-0.615-1.244c-0.052-0.195-0.087-0.396-0.105-0.597
			c-0.068-0.332,1.003-95.418,0.973-95.774C169.445,153.563,166.913,153.563,166.913,153.563z"/>
	</g>
	<g id="POLYLINE_00000175320852586293008590000000600846023757306266_">
		<path class="st3" d="M597.573,143.368c0.331-3.047,0.286-6.27-0.983-9.112c-0.714-1.608-1.868-3.007-3.285-4.047
			c-2.07-1.531-4.602-2.51-7.197-2.471c-2.298,0.024-4.557,0.736-6.579,1.8c-1.524,0.816-2.862,1.95-4.017,3.229
			c-2.376,2.655-4.134,5.82-5.701,9.002c-1.165,2.391-2.298,5.076-3.27,7.553c-3.695,9.747-7.703,21.619-10.769,31.579
			c-11.583,37.847-19.186,77.48-24.35,116.689c-0.552,4.683-0.972,9.522-0.838,14.235c0.088,2.726,0.348,5.496,1.073,8.133
			c0.399,1.443,0.954,2.858,1.718,4.148c0.68,1.157,1.542,2.209,2.499,3.147c0.661,0.673,2.807,2.508,3.548,3.166
			c1.853,1.642,3.856,3.465,5.539,5.271c2.373,2.532,4.497,5.355,6.066,8.459c0.845,1.675,1.514,3.457,2.009,5.266
			c0.312,1.136,0.57,2.329,0.77,3.49c0.477,2.758,0.686,5.641,0.765,8.439c0.027,1.088,0.037,2.587,0.023,3.676
			c-0.012,0.659-0.038,2.021-0.064,2.683c-0.166,0.099-11.832,257.367-11.964,257.534c-0.062,1.577,0.163,3.174,0.659,4.672
			c0.414,1.264,1.065,2.473,1.732,3.62c2.114,3.574,5.073,6.647,8.565,8.893c9.352,6.047,21.58,5.66,30.531-0.963
			c3.012-2.219,5.553-5.08,7.403-8.332c0.646-1.148,1.263-2.359,1.627-3.63c0.447-1.512,0.62-3.113,0.507-4.686
			c-3.185-82.514-11.535-222.141-9.508-303.096C585.407,263.794,591.403,201.013,597.573,143.368z"/>
	</g>
	<g id="POLYLINE_00000026121537678478414440000010002385782980219064_">
		<path class="st3" d="M406.914,310.868c13.59-10.879,21.571-27.472,24.882-44.312c0.914-4.692,1.482-9.53,1.689-14.305
			c0.231-5.824,0.002-11.884-0.408-17.698c-1.609-20.863-6.841-43.009-17.903-60.953c-4.526-7.248-10.188-13.997-17.356-18.75
			c-7.094-4.706-15.373-6.958-23.833-5.36c-6.278,1.16-12.052,4.311-16.923,8.375c-4.788,3.992-8.829,8.872-12.244,14.071
			c-4.035,6.164-7.267,12.883-9.871,19.767c-5.411,14.406-8.277,29.792-9.25,45.125c-0.471,8.017-0.589,16.205,0.523,24.174
			c1.917,14.146,6.949,28.095,15.669,39.49c2.124,2.752,4.51,5.411,7.072,7.762c1.619,1.54,3.825,3.207,5.561,4.625
			c2.426,1.977,5.069,4.201,7.283,6.408c1.033,1.046,2.198,2.275,3.169,3.379c0.875,0.98,1.727,2.035,2.444,3.138
			c1.096,1.677,1.904,3.55,2.391,5.493c0.422,1.666,0.629,3.401,0.686,5.117c0.653,28.949-0.738,59.669-2.26,88.608l-14.283,199.999
			c-0.084,1.504,0.094,3.03,0.52,4.474c0.32,1.121,0.843,2.204,1.401,3.225c1.983,3.632,4.822,6.797,8.219,9.16
			c9.202,6.43,21.545,6.43,30.745,0c3.27-2.275,6.024-5.293,7.994-8.756c0.609-1.085,1.2-2.23,1.564-3.423
			c0.471-1.506,0.671-3.105,0.583-4.68l-14.283-199.999c-1.472-27.162-2.678-56.281-2.388-83.444
			c0.078-2.463,0.027-5.463,0.355-7.896c0.285-2.097,0.867-4.174,1.815-6.07c0.717-1.449,1.655-2.795,2.691-4.033
			c1.601-1.881,3.374-3.773,5.171-5.468C400.954,315.648,404.102,313.119,406.914,310.868z"/>
	</g>
</g>
</svg>
