<?xml version="1.0" encoding="utf-8"?>
<!-- Generator: Adobe Illustrator 26.0.3, SVG Export Plug-In . SVG Version: 6.00 Build 0)  -->
<!DOCTYPE svg PUBLIC "-//W3C//DTD SVG 1.1//EN" "http://www.w3.org/Graphics/SVG/1.1/DTD/svg11.dtd" [
	<!ENTITY ns_extend "http://ns.adobe.com/Extensibility/1.0/">
	<!ENTITY ns_ai "http://ns.adobe.com/AdobeIllustrator/10.0/">
	<!ENTITY ns_graphs "http://ns.adobe.com/Graphs/1.0/">
	<!ENTITY ns_vars "http://ns.adobe.com/Variables/1.0/">
	<!ENTITY ns_imrep "http://ns.adobe.com/ImageReplacement/1.0/">
	<!ENTITY ns_sfw "http://ns.adobe.com/SaveForWeb/1.0/">
	<!ENTITY ns_custom "http://ns.adobe.com/GenericCustomNamespace/1.0/">
	<!ENTITY ns_adobe_xpath "http://ns.adobe.com/XPath/1.0/">
]>
<svg version="1.1" xmlns:x="&ns_extend;" xmlns:i="&ns_ai;" xmlns:graph="&ns_graphs;"
	 xmlns="http://www.w3.org/2000/svg" xmlns:xlink="http://www.w3.org/1999/xlink" x="0px" y="0px" width="750px" height="750px"
	 viewBox="0 0 750 750" style="enable-background:new 0 0 750 750;" xml:space="preserve">
<style type="text/css">
	.st0{fill:#FFFFFF;}
	.st1{fill:none;stroke:#D2374E;stroke-width:3.25;stroke-linecap:round;stroke-linejoin:round;}
	.st2{fill:none;stroke:#D2374E;stroke-width:3.25;stroke-linecap:round;stroke-linejoin:round;stroke-dasharray:4.0289,7.0506;}
	.st3{fill:none;stroke:#D2374E;stroke-width:3;stroke-linecap:round;stroke-linejoin:round;}
	.st4{fill:none;stroke:#D2374E;stroke-width:3;stroke-linecap:round;stroke-linejoin:round;stroke-dasharray:3.9995,6.9991;}
	.st5{fill:none;stroke:#D2374E;stroke-width:2;stroke-linecap:round;stroke-linejoin:round;stroke-miterlimit:10;}
	.st6{fill:none;stroke:#D2374E;stroke-width:2.75;stroke-linecap:round;stroke-linejoin:round;stroke-miterlimit:10;}
	.st7{fill:none;stroke:#D2374E;stroke-width:2.5;stroke-linecap:round;stroke-linejoin:round;stroke-miterlimit:10;}
	.st8{fill:none;stroke:#D2374E;stroke-width:3.5;stroke-linecap:round;stroke-linejoin:round;stroke-miterlimit:10;}
	.st9{fill:none;stroke:#D2374E;stroke-width:3.25;stroke-linecap:round;stroke-linejoin:round;stroke-miterlimit:10;}
</style>
<metadata>
	<sfw  xmlns="&ns_sfw;">
		<slices></slices>
		<sliceSourceBounds  bottomLeftOrigin="true" height="1750" width="1000" x="0" y="686"></sliceSourceBounds>
	</sfw>
</metadata>
<g id="FILL-BACKGROUND">
	<rect class="st0" width="750" height="750"/>
</g>
<g id="_x32_D_x24_AG-DIAGRAM">
	<g id="POLYLINE">
		<g>
			<g>
				<line class="st1" x1="248.492" y1="562.568" x2="250.492" y2="562.568"/>
				<line class="st2" x1="257.543" y1="562.568" x2="531.006" y2="562.568"/>
				<line class="st1" x1="534.531" y1="562.568" x2="536.531" y2="562.568"/>
			</g>
		</g>
	</g>
</g>
<g id="_x32_D_x24_AG-DETAILS">
	<g id="POLYLINE_00000166676714439117184040000003833790853576381588_">
		<line class="st5" x1="289.259" y1="550.371" x2="495.765" y2="550.371"/>
	</g>
	<g id="POLYLINE_00000157303540218863761780000013289941604557278109_">
		<line class="st5" x1="275.557" y1="309.096" x2="509.466" y2="309.096"/>
	</g>
</g>
<g id="_x32_D_x24_AG-OBJECTS">
	<g id="POLYLINE_00000121268741855681481310000005552390386311537794_">
		<path class="st6" d="M378.292,258.209c-0.01-4.986-0.57-10.181-3.055-14.595c-1.379-2.481-3.347-4.591-5.452-6.474
			c-1.871-1.672-4.25-3.66-5.871-5.564c-1.133-1.31-2.126-2.767-2.855-4.341c-0.557-1.195-0.969-2.463-1.234-3.755
			c-0.104-0.496-0.197-0.981-0.116-1.492c0.092-0.66,0.405-1.287,0.877-1.757c0.483-0.485,1.132-0.801,1.811-0.883
			c15.212-0.04,45.02-0.047,60.229,0c0.679,0.082,1.328,0.398,1.811,0.883c0.537,0.533,0.865,1.27,0.903,2.026
			c0.033,0.468-0.087,0.94-0.178,1.396c-0.265,1.231-0.665,2.441-1.197,3.583c-0.729,1.574-1.722,3.03-2.855,4.341
			c-1.619,1.898-3.995,3.891-5.871,5.564c-2.105,1.882-4.072,3.993-5.452,6.474c-2.485,4.415-3.045,9.609-3.055,14.595"/>
	</g>
	<g id="POLYLINE_00000105424508761341999000000010076523618446961071_">
		<path class="st6" d="M490.821,296.218c-0.976-3.553-2.784-6.849-5.03-9.756c-3.7-4.77-8.528-8.581-13.659-11.709
			c-22.333-13.408-53.912-16.894-79.62-16.913c-25.703,0.018-57.284,3.504-79.62,16.913c-8.138,4.967-16.032,12.002-18.689,21.465"
			/>
	</g>
	<g id="POLYLINE_00000042698297864869442670000016344784767781569962_">
		<path class="st6" d="M577.435,483.699c8.988-9.274,17.886-19.089,25.539-29.501c4.937-6.753,9.446-13.929,12.821-21.594
			c4.74-10.732,7.089-22.538,9.101-34.047c1.489-8.791,3.461-23.459,5.123-32.18c1.226-6.495,2.755-13.323,4.518-19.692
			c1.666-5.923,3.591-11.94,6.147-17.54c2.538-5.556,5.967-10.915,10.965-14.556c2.669-1.975,5.704-3.435,8.81-4.58
			c4.884-1.794,10.046-2.864,15.204-3.484c2.872-0.346,5.888-0.545,8.781-0.629c0.322-0.009,0.645-0.069,0.949-0.176
			c0.918-0.318,1.66-1.093,1.936-2.025c0.067-0.222,0.111-0.456,0.126-0.687c0.031-0.501-0.006-1.232,0.007-1.667
			c-0.011-0.793-0.342-1.575-0.903-2.135c-0.152-0.152-0.322-0.291-0.501-0.409c-2.306-1.381-25.844-15.521-27.426-16.345
			c-3.242-1.805-6.764-3.805-10.183-5.236c-1.58-0.656-3.228-1.253-4.929-1.493c-1.34-0.195-2.719-0.114-4.029,0.226
			c-1.955,0.486-3.721,1.537-5.373,2.661c-3.468,2.366-7,5.513-10.206,8.244c-9.048,8.059-30.841,27.78-39.734,35.313
			c-3.045,2.546-6.654,5.525-9.839,7.845c-2.861,2.092-5.883,4.104-9.03,5.736c-2.61,1.341-5.362,2.567-8.285,2.999
			c-1.879,0.28-3.823,0.179-5.646-0.37c-2.229-0.659-4.236-1.928-5.991-3.432"/>
	</g>
	<g id="POLYLINE_00000152231510297242065380000007802504203475804801_">
		<path class="st6" d="M500.862,296.218c0.833-0.001,1.667,0.222,2.389,0.64c0.746,0.43,1.373,1.067,1.79,1.821
			c0.188,0.339,0.336,0.705,0.437,1.079c0.141,0.594,0.234,1.235,0.392,1.826c0.699,2.831,2.034,5.497,3.815,7.801
			c1.927,2.503,4.345,4.608,6.953,6.376c24.61,13.461,47.048,32.167,61.691,56.338c14.429,23.8,19.728,51.224,13.172,78.452
			c-6.353,26.677-23.25,49.735-44.059,67.149c-11.774,9.877-24.997,18.222-38.769,25.017c-2.627,1.324-6.067,2.847-8.72,4.096
			c-0.708,0.376-1.378,0.841-1.996,1.352c-2.122,1.772-3.733,4.087-5.1,6.469c-0.489,0.915-1.951,3.579-2.437,4.493
			c-0.183,0.307-0.391,0.615-0.618,0.891c-0.889,1.091-2.118,1.901-3.472,2.284c-0.462,0.13-0.944,0.217-1.423,0.25
			c-0.161,0.342-184.03-0.211-184.309,0.017c-0.681-0.001-1.369-0.102-2.021-0.301c-1.308-0.396-2.494-1.19-3.356-2.25
			c-0.25-0.31-0.485-0.647-0.678-0.995c-0.42-0.711-1.973-3.725-2.377-4.388c-1.395-2.43-3.044-4.793-5.231-6.576
			c-0.578-0.469-1.208-0.894-1.865-1.245c-2.648-1.237-6.103-2.787-8.72-4.096c-14.595-7.203-28.557-16.13-40.863-26.805
			c-19.826-17.153-35.835-39.609-41.964-65.361c-6.555-27.228-1.262-54.644,13.172-78.452c14.644-24.17,37.081-42.876,61.691-56.338
			c5.605-3.781,9.957-8.943,11.102-15.761c0.179-0.842,0.592-1.635,1.18-2.264c0.492-0.528,1.108-0.943,1.782-1.201
			c0.414-0.159,0.854-0.26,1.296-0.299C337.926,296.185,446.681,296.234,500.862,296.218z"/>
	</g>
	<g id="POLYLINE_00000056398775162920291690000001275112351044561834_">
		<path class="st6" d="M267.046,316.5c-3.261,1.847-7.164,2.389-10.852,1.887c-2.969-0.403-5.834-1.49-8.411-3.004
			c-18-9.779-38.276-15.535-58.768-16.25c-25.405-0.939-51.299,6.151-71.624,21.67c-31.419,23.925-43.898,62.855-34.879,100.956
			c9.219,39.153,39.109,71.402,75.744,87.039c11.32,4.855,23.351,8.191,35.57,9.763c4.959,0.651,10.13,0.977,15.132,1.049
			c3.667,0.116,7.504,0.481,11.143,0.943c7.306,0.954,14.677,2.333,21.788,4.274c2.157,0.59,4.537,1.341,6.631,2.151
			c1.276,0.498,2.596,1.08,3.766,1.801"/>
	</g>
	<g id="POLYLINE_00000066502031618641089800000003745628868595108241_">
		<path class="st6" d="M217.15,357.276c3.951-4.661,4.09-11.251,2.326-16.854c-3.149-10.046-12.071-18.376-22.641-19.794
			c-25.259-2.988-51.909,3.301-71.202,20.381c-20.085,17.734-28.348,43.894-23.985,70.117c3.887,23.569,17.35,44.941,35.438,60.288
			c14.894,12.668,33.063,21.516,52.255,25.293c5.835,0.838,10.971-2.094,13.867-7.113c1.351-2.365,2.167-5.099,2.039-7.837
			c-0.07-1.377-0.405-2.762-1.11-3.957"/>
	</g>
</g>
<g id="_x32_D_x24_AG-OUTLINE">
	<g id="POLYLINE_00000028307010835467106350000014950623397415953820_">
		<path class="st8" d="M204.138,477.802c0.705,1.194,1.04,2.579,1.11,3.957c0.128,2.738-0.687,5.472-2.039,7.837
			c-2.896,5.019-8.034,7.951-13.867,7.113c-19.192-3.777-37.361-12.625-52.255-25.293c-18.329-15.548-31.913-37.3-35.589-61.231
			c-4.02-25.939,4.316-51.675,24.136-69.174c19.29-17.079,45.946-23.37,71.202-20.381c10.57,1.418,19.491,9.747,22.641,19.794
			c1.765,5.602,1.625,12.195-2.326,16.854C188.209,392.805,181.841,437.094,204.138,477.802z"/>
	</g>
	<g id="POLYLINE_00000136394150124747174710000001678317878482678149_">
		<path class="st8" d="M406.731,258.209c0.007-3.619,0.303-7.299,1.401-10.764c0.66-2.085,1.653-4.079,2.949-5.842
			c2.102-2.932,5.235-5.322,7.853-7.772c2.174-2.038,4.137-4.394,5.285-7.17c0.452-1.076,0.79-2.207,1.014-3.353
			c0.107-0.502,0.159-0.967,0.054-1.481c-0.126-0.648-0.465-1.252-0.954-1.695c-0.471-0.43-1.079-0.709-1.713-0.784
			c-15.206-0.039-45.014-0.045-60.217,0c-0.634,0.076-1.241,0.354-1.713,0.784c-0.499,0.453-0.843,1.073-0.962,1.737
			c-0.094,0.492-0.042,0.954,0.062,1.439c0.224,1.146,0.561,2.277,1.014,3.353c1.149,2.776,3.111,5.132,5.285,7.17
			c2.622,2.451,5.749,4.838,7.853,7.772c1.296,1.763,2.289,3.758,2.949,5.842c1.099,3.466,1.394,7.145,1.401,10.764
			c-22.146,1.205-48.488,5.547-67.345,17.771c-7.376,4.856-14.297,11.507-16.745,20.237h-10.041c-0.111,0-0.229,0.004-0.34,0.012
			c-0.388,0.028-0.775,0.104-1.145,0.225c-0.836,0.272-1.594,0.782-2.161,1.453c-0.544,0.641-0.914,1.428-1.06,2.257
			c-1.167,6.729-5.534,11.866-11.07,15.597c-0.676,0.356-1.705,0.973-2.384,1.278c-0.683,0.317-1.414,0.591-2.135,0.806
			c-2.8,0.833-5.806,0.92-8.67,0.38c-2.611-0.489-5.125-1.499-7.412-2.842c-18-9.779-38.276-15.535-58.768-16.25
			c-25.405-0.939-51.299,6.151-71.624,21.67c-31.419,23.925-43.898,62.855-34.879,100.956c9.219,39.153,39.109,71.402,75.744,87.039
			c11.32,4.855,23.351,8.191,35.57,9.763c4.959,0.651,10.13,0.977,15.132,1.049c3.667,0.116,7.504,0.481,11.143,0.943
			c7.306,0.954,14.677,2.333,21.788,4.274c2.157,0.59,4.537,1.341,6.631,2.151c1.276,0.498,2.596,1.08,3.766,1.801
			c7.539,5.101,15.594,9.742,23.75,13.781c2.706,1.334,5.892,2.83,8.645,4.054c0.472,0.224,0.935,0.495,1.368,0.786
			c1.403,0.947,2.6,2.182,3.645,3.506c0.771,0.98,1.482,2.05,2.12,3.121c0.709,1.125,2.19,4.09,2.896,5.276
			c0.496,0.794,1.156,1.488,1.925,2.022c0.811,0.564,1.746,0.953,2.718,1.129c46.445,0.325,138.626,0.002,185.071,0.113
			c1.685,0.005,3.362-0.634,4.617-1.758c0.433-0.386,0.824-0.833,1.147-1.315c0.607-0.916,1.691-3.148,2.198-4.012
			c1.271-2.346,2.753-4.631,4.668-6.506c0.761-0.741,1.606-1.417,2.524-1.955c0.285-0.17,0.616-0.338,0.918-0.478
			c2.779-1.242,6.599-3.028,9.323-4.396c10.829-5.431,21.43-11.88,31.074-19.217c14.28-10.855,27.03-23.973,36.542-39.231
			c7.621-7.856,15.259-16.222,22.007-24.838c5.119-6.575,9.953-13.535,13.795-20.933c1.866-3.588,3.525-7.352,4.887-11.16
			c1.52-4.213,2.76-8.847,3.794-13.215c3.231-13.497,5.18-30.533,7.569-44.268c1.66-9.282,3.779-18.762,6.571-27.771
			c1.521-4.837,3.269-9.708,5.529-14.252c2.097-4.194,4.762-8.195,8.328-11.283c4.573-3.991,10.399-6.212,16.207-7.714
			c5.993-1.517,12.218-2.196,18.391-2.371c0.475-0.023,0.945-0.158,1.36-0.39c0.746-0.413,1.305-1.146,1.503-1.976
			c0.157-0.584,0.064-1.552,0.088-2.132c0.002-0.785-0.308-1.565-0.849-2.134c-0.158-0.166-0.335-0.317-0.525-0.444
			c-0.053-0.101-23.848-14.239-23.931-14.333c-4.514-2.573-9.35-5.474-14.152-7.451c-1.389-0.556-2.839-1.057-4.322-1.286
			c-1.341-0.214-2.727-0.16-4.046,0.166c-2.011,0.471-3.826,1.544-5.518,2.696c-3.469,2.366-6.999,5.513-10.206,8.244
			c-13.215,11.613-34.448,31.528-48.107,42.065c-2.948,2.222-6.068,4.402-9.298,6.186c-2.724,1.482-5.583,2.87-8.638,3.496
			c-1.824,0.37-3.729,0.417-5.552,0.02c-2.079-0.442-4.011-1.433-5.712-2.691c-9.278-7.647-19.417-14.411-29.968-20.17
			c-5.536-3.731-9.904-8.869-11.07-15.597c-0.149-0.846-0.531-1.649-1.095-2.297c-0.563-0.652-1.307-1.146-2.126-1.412
			c-0.37-0.121-0.757-0.197-1.145-0.225c-0.111-0.008-0.229-0.012-0.34-0.012c0,0-10.041,0-10.041,0
			c-2.448-8.731-9.368-15.381-16.745-20.237C455.221,263.758,428.889,259.416,406.731,258.209z"/>
	</g>
</g>
</svg>
