<?xml version="1.0" encoding="utf-8"?>
<!-- Generator: Adobe Illustrator 26.3.1, SVG Export Plug-In . SVG Version: 6.00 Build 0)  -->
<!DOCTYPE svg PUBLIC "-//W3C//DTD SVG 1.1//EN" "http://www.w3.org/Graphics/SVG/1.1/DTD/svg11.dtd" [
	<!ENTITY ns_extend "http://ns.adobe.com/Extensibility/1.0/">
	<!ENTITY ns_ai "http://ns.adobe.com/AdobeIllustrator/10.0/">
	<!ENTITY ns_graphs "http://ns.adobe.com/Graphs/1.0/">
	<!ENTITY ns_vars "http://ns.adobe.com/Variables/1.0/">
	<!ENTITY ns_imrep "http://ns.adobe.com/ImageReplacement/1.0/">
	<!ENTITY ns_sfw "http://ns.adobe.com/SaveForWeb/1.0/">
	<!ENTITY ns_custom "http://ns.adobe.com/GenericCustomNamespace/1.0/">
	<!ENTITY ns_adobe_xpath "http://ns.adobe.com/XPath/1.0/">
]>
<svg version="1.1" xmlns:x="&ns_extend;" xmlns:i="&ns_ai;" xmlns:graph="&ns_graphs;"
	 xmlns="http://www.w3.org/2000/svg" xmlns:xlink="http://www.w3.org/1999/xlink" x="0px" y="0px" width="750px" height="750px"
	 viewBox="0 0 750 750" style="enable-background:new 0 0 750 750;" xml:space="preserve">
<style type="text/css">
	.st0{fill:#FFFFFF;}
	.st1{fill:#FB8604;}
	.st2{fill:none;stroke:#FB8604;stroke-width:2;stroke-linecap:round;stroke-linejoin:round;stroke-miterlimit:10;}
	.st3{fill:none;stroke:#FB8604;stroke-width:2.5;stroke-linecap:round;stroke-linejoin:round;}
	.st4{fill:none;stroke:#FB8604;stroke-width:2.5;stroke-linecap:round;stroke-linejoin:round;stroke-dasharray:3.1684,5.2807;}
	.st5{fill:none;stroke:#FB8604;stroke-width:2.5;stroke-linecap:round;stroke-linejoin:round;stroke-dasharray:3.0898,5.1496;}
	.st6{fill:none;stroke:#FB8604;stroke-width:3.25;stroke-linecap:round;stroke-linejoin:round;}
	.st7{fill:none;stroke:#FB8604;stroke-width:3.25;stroke-linecap:round;stroke-linejoin:round;stroke-dasharray:4.0028,7.0049;}
	.st8{fill:none;stroke:#FB8604;stroke-width:3.25;stroke-linecap:round;stroke-linejoin:round;stroke-dasharray:4.0187,7.0327;}
	.st9{fill:none;stroke:#FB8604;stroke-width:3.25;stroke-linecap:round;stroke-linejoin:round;stroke-dasharray:4.0037,7.0065;}
	.st10{fill:none;stroke:#FB8604;stroke-width:3.25;stroke-linecap:round;stroke-linejoin:round;stroke-dasharray:3.9928,6.9873;}
	.st11{fill:none;stroke:#FB8604;stroke-width:3.25;stroke-linecap:round;stroke-linejoin:round;stroke-dasharray:3.9957,6.9924;}
	.st12{fill:none;stroke:#FB8604;stroke-width:3.25;stroke-linecap:round;stroke-linejoin:round;stroke-dasharray:3.9878,6.9786;}
	.st13{fill:none;stroke:#FB8604;stroke-width:3.25;stroke-linecap:round;stroke-linejoin:round;stroke-dasharray:4.0054,7.0094;}
	.st14{fill:none;stroke:#FB8604;stroke-width:3.25;stroke-linecap:round;stroke-linejoin:round;stroke-dasharray:3.9755,6.9571;}
	.st15{fill:none;stroke:#FB8604;stroke-width:3.25;stroke-linecap:round;stroke-linejoin:round;stroke-dasharray:3.972,6.9511;}
	.st16{fill:none;stroke:#FB8604;stroke-width:3.25;stroke-linecap:round;stroke-linejoin:round;stroke-dasharray:4.0334,7.0584;}
	.st17{fill:none;stroke:#FB8604;stroke-width:3.25;stroke-linecap:round;stroke-linejoin:round;stroke-dasharray:3.9725,6.9518;}
	.st18{fill:none;stroke:#FB8604;stroke-width:3.25;stroke-linecap:round;stroke-linejoin:round;stroke-dasharray:4.0038,7.0066;}
	.st19{fill:none;stroke:#FB8604;stroke-width:3.25;stroke-linecap:round;stroke-linejoin:round;stroke-dasharray:3.9879,6.9789;}
	.st20{fill:none;stroke:#FB8604;stroke-width:3.25;stroke-linecap:round;stroke-linejoin:round;stroke-dasharray:3.9711,6.9495;}
	.st21{fill:none;stroke:#FB8604;stroke-width:3.25;stroke-linecap:round;stroke-linejoin:round;stroke-dasharray:4.0154,7.027;}
	.st22{fill:none;stroke:#FB8604;stroke-width:3.25;stroke-linecap:round;stroke-linejoin:round;stroke-dasharray:3.9691,6.946;}
	.st23{fill:none;stroke:#FB8604;stroke-width:3.25;stroke-linecap:round;stroke-linejoin:round;stroke-dasharray:4.0146,7.0255;}
	.st24{fill:none;stroke:#FB8604;stroke-width:3.25;stroke-linecap:round;stroke-linejoin:round;stroke-dasharray:3.9984,6.9972;}
	.st25{fill:none;stroke:#FB8604;stroke-width:3.25;stroke-linecap:round;stroke-linejoin:round;stroke-dasharray:4.0136,7.0239;}
	.st26{fill:none;stroke:#FB8604;stroke-width:3.25;stroke-linecap:round;stroke-linejoin:round;stroke-dasharray:4.0202,7.0354;}
	.st27{fill:none;stroke:#FB8604;stroke-width:3.25;stroke-linecap:round;stroke-linejoin:round;stroke-dasharray:4.0512,7.0896;}
	.st28{fill:none;stroke:#FB8604;stroke-width:3.25;stroke-linecap:round;stroke-linejoin:round;stroke-dasharray:4.1218,7.2131;}
	.st29{fill:none;stroke:#FB8604;stroke-width:3.25;stroke-linecap:round;stroke-linejoin:round;stroke-dasharray:4.039,7.0682;}
	.st30{fill:none;stroke:#FB8604;stroke-width:3.25;stroke-linecap:round;stroke-linejoin:round;stroke-dasharray:4.0036,7.0063;}
	.st31{fill:none;stroke:#FB8604;stroke-width:3.25;stroke-linecap:round;stroke-linejoin:round;stroke-dasharray:4.0478,7.0836;}
	.st32{fill:none;stroke:#FB8604;stroke-width:3.25;stroke-linecap:round;stroke-linejoin:round;stroke-dasharray:3.9687,6.9451;}
	.st33{fill:none;stroke:#FB8604;stroke-width:3.25;stroke-linecap:round;stroke-linejoin:round;stroke-dasharray:4.0627,7.1098;}
	.st34{fill:none;stroke:#FB8604;stroke-width:3.25;stroke-linecap:round;stroke-linejoin:round;stroke-dasharray:4.0819,7.1433;}
	.st35{fill:none;stroke:#FB8604;stroke-width:3.25;stroke-linecap:round;stroke-linejoin:round;stroke-dasharray:3.9767,6.9593;}
	.st36{fill:none;stroke:#FB8604;stroke-width:3.25;stroke-linecap:round;stroke-linejoin:round;stroke-dasharray:3.9929,6.9875;}
	.st37{fill:none;stroke:#FB8604;stroke-width:3.25;stroke-linecap:round;stroke-linejoin:round;stroke-dasharray:4.0173,7.0303;}
	.st38{fill:none;stroke:#FB8604;stroke-width:3.25;stroke-linecap:round;stroke-linejoin:round;stroke-dasharray:3.961,6.9318;}
	.st39{fill:none;stroke:#FB8604;stroke-width:3.25;stroke-linecap:round;stroke-linejoin:round;stroke-dasharray:3.947,6.9073;}
	.st40{fill:none;stroke:#FB8604;stroke-width:3.25;stroke-linecap:round;stroke-linejoin:round;stroke-dasharray:3.9908,6.9839;}
	.st41{fill:none;stroke:#FB8604;stroke-width:2.75;stroke-linecap:round;stroke-linejoin:round;stroke-dasharray:2.9966,4.9944;}
	.st42{fill:none;stroke:#FB8604;stroke-width:2.75;stroke-linecap:round;stroke-linejoin:round;}
	.st43{fill:none;stroke:#FB8604;stroke-width:2.75;stroke-linecap:round;stroke-linejoin:round;stroke-dasharray:2.9096,4.8493;}
	.st44{fill:none;stroke:#FB8604;stroke-width:2.75;stroke-linecap:round;stroke-linejoin:round;stroke-dasharray:3.3193,5.5322;}
	.st45{fill:none;stroke:#FB8604;stroke-width:2.75;stroke-linecap:round;stroke-linejoin:round;stroke-dasharray:2.9558,4.9263;}
	.st46{fill:none;stroke:#FB8604;stroke-width:2.75;stroke-linecap:round;stroke-linejoin:round;stroke-dasharray:3.2618,5.4363;}
	.st47{fill:none;stroke:#FB8604;stroke-width:2.75;stroke-linecap:round;stroke-linejoin:round;stroke-dasharray:3.0169,5.0281;}
	.st48{fill:none;stroke:#FB8604;stroke-width:2.75;stroke-linecap:round;stroke-linejoin:round;stroke-dasharray:2.5291,4.2151;}
	.st49{fill:none;stroke:#FB8604;stroke-width:2.75;stroke-linecap:round;stroke-linejoin:round;stroke-dasharray:3.103,5.1717;}
	.st50{fill:none;stroke:#FB8604;stroke-width:2.75;stroke-linecap:round;stroke-linejoin:round;stroke-dasharray:2.9575,4.9292;}
	.st51{fill:none;stroke:#FB8604;stroke-width:2.75;stroke-linecap:round;stroke-linejoin:round;stroke-dasharray:3.3365,5.5609;}
	.st52{fill:none;stroke:#FB8604;stroke-width:2.75;stroke-linecap:round;stroke-linejoin:round;stroke-dasharray:3.1424,5.2373;}
	.st53{fill:none;stroke:#FB8604;stroke-width:2.75;stroke-linecap:round;stroke-linejoin:round;stroke-dasharray:3.1363,5.2272;}
	.st54{fill:none;stroke:#FB8604;stroke-width:2.75;stroke-linecap:round;stroke-linejoin:round;stroke-dasharray:2.7994,4.6656;}
	.st55{fill:none;stroke:#FB8604;stroke-width:2.75;stroke-linecap:round;stroke-linejoin:round;stroke-dasharray:2.8999,4.8332;}
	.st56{fill:none;stroke:#FB8604;stroke-width:2.75;stroke-linecap:round;stroke-linejoin:round;stroke-dasharray:3.0099,5.0165;}
	.st57{fill:none;stroke:#FB8604;stroke-width:2.75;stroke-linecap:round;stroke-linejoin:round;stroke-dasharray:1.844,3.0734;}
	.st58{fill:none;stroke:#FB8604;stroke-width:2.75;stroke-linecap:round;stroke-linejoin:round;stroke-dasharray:2.9022,4.8371;}
	.st59{fill:none;stroke:#FB8604;stroke-width:2.75;stroke-linecap:round;stroke-linejoin:round;stroke-dasharray:2.0395,3.3991;}
	.st60{fill:none;stroke:#FB8604;stroke-width:2.75;stroke-linecap:round;stroke-linejoin:round;stroke-dasharray:3.1923,5.3205;}
	.st61{fill:none;stroke:#FB8604;stroke-width:2.75;stroke-linecap:round;stroke-linejoin:round;stroke-dasharray:2.9539,4.9232;}
	.st62{fill:none;stroke:#FB8604;stroke-width:2.75;stroke-linecap:round;stroke-linejoin:round;stroke-dasharray:3.0075,5.0125;}
	.st63{fill:none;stroke:#FB8604;stroke-width:2.75;stroke-linecap:round;stroke-linejoin:round;stroke-dasharray:3.3534,5.5889;}
	.st64{fill:none;stroke:#FB8604;stroke-width:2.75;stroke-linecap:round;stroke-linejoin:round;stroke-dasharray:2.9667,4.9445;}
	.st65{fill:none;stroke:#FB8604;stroke-width:2.75;stroke-linecap:round;stroke-linejoin:round;stroke-dasharray:3.1331,5.2219;}
	.st66{fill:none;stroke:#FB8604;stroke-width:2.75;stroke-linecap:round;stroke-linejoin:round;stroke-dasharray:3.0872,5.1454;}
	.st67{fill:none;stroke:#FB8604;stroke-width:2.75;stroke-linecap:round;stroke-linejoin:round;stroke-dasharray:2.8949,4.8248;}
	.st68{fill:none;stroke:#FB8604;stroke-width:2.75;stroke-linecap:round;stroke-linejoin:round;stroke-dasharray:2.9725,4.9542;}
	.st69{fill:none;stroke:#FB8604;stroke-width:2.75;stroke-linecap:round;stroke-linejoin:round;stroke-dasharray:3.0386,5.0643;}
	.st70{fill:none;stroke:#FB8604;stroke-width:2.75;stroke-linecap:round;stroke-linejoin:round;stroke-dasharray:3.0094,5.0156;}
	.st71{fill:none;stroke:#FB8604;stroke-width:2.75;stroke-linecap:round;stroke-linejoin:round;stroke-dasharray:3.0371,5.0618;}
	.st72{fill:none;stroke:#FB8604;stroke-width:2.75;stroke-linecap:round;stroke-linejoin:round;stroke-dasharray:3.1062,5.177;}
	.st73{fill:none;stroke:#FB8604;stroke-width:2.75;stroke-linecap:round;stroke-linejoin:round;stroke-dasharray:3.0125,5.0208;}
	.st74{fill:none;stroke:#FB8604;stroke-width:2.75;stroke-linecap:round;stroke-linejoin:round;stroke-dasharray:2.9084,4.8473;}
	.st75{fill:none;stroke:#FB8604;stroke-width:2.75;stroke-linecap:round;stroke-linejoin:round;stroke-dasharray:3.0296,5.0494;}
	.st76{fill:none;stroke:#FB8604;stroke-width:2.75;stroke-linecap:round;stroke-linejoin:round;stroke-dasharray:2.9662,4.9437;}
	.st77{fill:none;stroke:#FB8604;stroke-width:2.75;stroke-linecap:round;stroke-linejoin:round;stroke-dasharray:3.2029,5.3381;}
	.st78{fill:none;stroke:#FB8604;stroke-width:2.75;stroke-linecap:round;stroke-linejoin:round;stroke-dasharray:2.9909,4.9849;}
	.st79{fill:none;stroke:#FB8604;stroke-width:2.75;stroke-linecap:round;stroke-linejoin:round;stroke-dasharray:3.4809,5.8015;}
	.st80{fill:none;stroke:#FB8604;stroke-width:2.75;stroke-linecap:round;stroke-linejoin:round;stroke-dasharray:3.4766,5.7943;}
	.st81{fill:none;stroke:#FB8604;stroke-width:2.75;stroke-linecap:round;stroke-linejoin:round;stroke-dasharray:3.1471,5.2451;}
	.st82{fill:none;stroke:#FB8604;stroke-width:2.75;stroke-linecap:round;stroke-linejoin:round;stroke-dasharray:2.9268,4.878;}
	.st83{fill:none;stroke:#FB8604;stroke-width:2.75;stroke-linecap:round;stroke-linejoin:round;stroke-dasharray:2.9785,4.9641;}
	.st84{fill:none;stroke:#FB8604;stroke-width:2.75;stroke-linecap:round;stroke-linejoin:round;stroke-dasharray:3.0427,5.0712;}
	.st85{fill:none;stroke:#FB8604;stroke-width:2.75;stroke-linecap:round;stroke-linejoin:round;stroke-dasharray:3.0948,5.1579;}
	.st86{fill:none;stroke:#FB8604;stroke-width:2.75;stroke-linecap:round;stroke-linejoin:round;stroke-dasharray:3.0479,5.0798;}
	.st87{fill:none;stroke:#FB8604;stroke-width:2.75;stroke-linecap:round;stroke-linejoin:round;stroke-dasharray:3.1288,5.2146;}
	.st88{fill:none;stroke:#FB8604;stroke-width:2.75;stroke-linecap:round;stroke-linejoin:round;stroke-dasharray:3.0295,5.0492;}
	.st89{fill:none;stroke:#FB8604;stroke-width:2.75;stroke-linecap:round;stroke-linejoin:round;stroke-dasharray:3.0562,5.0937;}
	.st90{fill:none;stroke:#FB8604;stroke-width:2.75;stroke-linecap:round;stroke-linejoin:round;stroke-dasharray:3.0096,5.0161;}
	.st91{fill:none;stroke:#FB8604;stroke-width:2.75;stroke-linecap:round;stroke-linejoin:round;stroke-dasharray:3.0214,5.0356;}
	.st92{fill:none;stroke:#FB8604;stroke-width:2.75;stroke-linecap:round;stroke-linejoin:round;stroke-dasharray:2.9114,4.8524;}
	.st93{fill:none;stroke:#FB8604;stroke-width:2.75;stroke-linecap:round;stroke-linejoin:round;stroke-dasharray:3.0352,5.0587;}
	.st94{fill:none;stroke:#FB8604;stroke-width:2.75;stroke-linecap:round;stroke-linejoin:round;stroke-dasharray:2.7643,4.6072;}
	.st95{fill:none;stroke:#FB8604;stroke-width:2.75;stroke-linecap:round;stroke-linejoin:round;stroke-dasharray:3.058,5.0966;}
	.st96{fill:none;stroke:#FB8604;stroke-width:2.75;stroke-linecap:round;stroke-linejoin:round;stroke-dasharray:2.7966,4.661;}
	.st97{fill:none;stroke:#FB8604;stroke-width:2.75;stroke-linecap:round;stroke-linejoin:round;stroke-dasharray:1.7367,2.8946;}
	.st98{fill:none;stroke:#FB8604;stroke-width:2.75;stroke-linecap:round;stroke-linejoin:round;stroke-dasharray:2.7663,4.6105;}
	.st99{fill:none;stroke:#FB8604;stroke-width:2.75;stroke-linecap:round;stroke-linejoin:round;stroke-dasharray:1.9235,3.2058;}
	.st100{fill:none;stroke:#FB8604;stroke-width:2.75;stroke-linecap:round;stroke-linejoin:round;stroke-dasharray:3.0393,5.0655;}
	.st101{fill:none;stroke:#FB8604;stroke-width:2.75;stroke-linecap:round;stroke-linejoin:round;stroke-dasharray:2.8203,4.7005;}
	.st102{fill:none;stroke:#FB8604;stroke-width:2.75;stroke-linecap:round;stroke-linejoin:round;stroke-dasharray:2.9792,4.9653;}
	.st103{fill:none;stroke:#FB8604;stroke-width:2.75;stroke-linecap:round;stroke-linejoin:round;stroke-dasharray:3.1822,5.3036;}
	.st104{fill:none;stroke:#FB8604;stroke-width:2.75;stroke-linecap:round;stroke-linejoin:round;stroke-dasharray:3.0113,5.0189;}
	.st105{fill:none;stroke:#FB8604;stroke-width:2.75;stroke-linecap:round;stroke-linejoin:round;stroke-dasharray:3.1551,5.2585;}
	.st106{fill:none;stroke:#FB8604;stroke-width:2.75;stroke-linecap:round;stroke-linejoin:round;stroke-dasharray:3.018,5.0301;}
	.st107{fill:none;stroke:#FB8604;stroke-width:2.75;stroke-linecap:round;stroke-linejoin:round;stroke-dasharray:3.4824,5.8041;}
	.st108{fill:none;stroke:#FB8604;stroke-width:2.75;stroke-linecap:round;stroke-linejoin:round;stroke-dasharray:2.3801,3.9668;}
	.st109{fill:none;stroke:#FB8604;stroke-width:2.75;stroke-linecap:round;stroke-linejoin:round;stroke-dasharray:3.0129,5.0216;}
	.st110{fill:none;stroke:#FB8604;stroke-width:2.75;stroke-linecap:round;stroke-linejoin:round;stroke-dasharray:1.625,2.7083;}
	.st111{fill:none;stroke:#FB8604;stroke-width:2.75;stroke-linecap:round;stroke-linejoin:round;stroke-dasharray:1.9221,3.2035;}
	.st112{fill:none;stroke:#FB8604;stroke-width:2.75;stroke-linecap:round;stroke-linejoin:round;stroke-dasharray:3.1124,5.1874;}
	.st113{fill:none;stroke:#FB8604;stroke-width:2.75;stroke-linecap:round;stroke-linejoin:round;stroke-dasharray:3.0952,5.1586;}
	.st114{fill:none;stroke:#FB8604;stroke-width:2.75;stroke-linecap:round;stroke-linejoin:round;stroke-dasharray:2.9708,4.9513;}
	.st115{fill:none;stroke:#FB8604;stroke-width:2.75;stroke-linecap:round;stroke-linejoin:round;stroke-dasharray:2.5755,4.2925;}
	.st116{fill:none;stroke:#FB8604;stroke-width:2.75;stroke-linecap:round;stroke-linejoin:round;stroke-dasharray:3.0041,5.0068;}
	.st117{fill:none;stroke:#FB8604;stroke-width:2.75;stroke-linecap:round;stroke-linejoin:round;stroke-dasharray:2.9986,4.9977;}
	.st118{fill:none;stroke:#FB8604;stroke-width:2.75;stroke-linecap:round;stroke-linejoin:round;stroke-dasharray:3.1488,5.2479;}
	.st119{fill:none;stroke:#FB8604;stroke-width:2.75;stroke-linecap:round;stroke-linejoin:round;stroke-dasharray:3.1057,5.1761;}
	.st120{fill:none;stroke:#FB8604;stroke-width:2.75;stroke-linecap:round;stroke-linejoin:round;stroke-dasharray:2.9579,4.9299;}
	.st121{fill:none;stroke:#FB8604;stroke-width:2.75;stroke-linecap:round;stroke-linejoin:round;stroke-dasharray:2.8749,4.7914;}
	.st122{fill:none;stroke:#FB8604;stroke-width:2.75;stroke-linecap:round;stroke-linejoin:round;stroke-dasharray:3.0643,5.1071;}
	.st123{fill:none;stroke:#FB8604;stroke-width:2.75;stroke-linecap:round;stroke-linejoin:round;stroke-dasharray:3.1274,5.2123;}
	.st124{fill:none;stroke:#FB8604;stroke-width:2.75;stroke-linecap:round;stroke-linejoin:round;stroke-dasharray:3.1,5.1667;}
	.st125{fill:none;stroke:#FB8604;stroke-width:2.75;stroke-linecap:round;stroke-linejoin:round;stroke-dasharray:2.8472,4.7454;}
	.st126{fill:none;stroke:#FB8604;stroke-width:2.75;stroke-linecap:round;stroke-linejoin:round;stroke-dasharray:3.1118,5.1863;}
	.st127{fill:none;stroke:#FB8604;stroke-width:2.75;stroke-linecap:round;stroke-linejoin:round;stroke-dasharray:3.0106,5.0177;}
	.st128{fill:none;stroke:#FB8604;stroke-width:2.75;stroke-linecap:round;stroke-linejoin:round;stroke-dasharray:2.7458,4.5763;}
	.st129{fill:none;stroke:#FB8604;stroke-width:2.75;stroke-linecap:round;stroke-linejoin:round;stroke-dasharray:2.9343,4.8906;}
	.st130{fill:none;stroke:#FB8604;stroke-width:2.75;stroke-linecap:round;stroke-linejoin:round;stroke-dasharray:3.4131,5.6885;}
	.st131{fill:none;stroke:#FB8604;stroke-width:2.75;stroke-linecap:round;stroke-linejoin:round;stroke-dasharray:3.2838,5.473;}
	.st132{fill:none;stroke:#FB8604;stroke-width:2.75;stroke-linecap:round;stroke-linejoin:round;stroke-dasharray:2.9369,4.8948;}
	.st133{fill:none;stroke:#FB8604;stroke-width:2.75;stroke-linecap:round;stroke-linejoin:round;stroke-dasharray:2.4913,4.1522;}
	.st134{fill:none;stroke:#FB8604;stroke-width:2.75;stroke-linecap:round;stroke-linejoin:round;stroke-dasharray:3.0222,5.037;}
	.st135{fill:none;stroke:#FB8604;stroke-width:2.75;stroke-linecap:round;stroke-linejoin:round;stroke-dasharray:3.1123,5.1871;}
	.st136{fill:none;stroke:#FB8604;stroke-width:2.75;stroke-linecap:round;stroke-linejoin:round;stroke-dasharray:3.0602,5.1004;}
	.st137{fill:none;stroke:#FB8604;stroke-width:2.75;stroke-linecap:round;stroke-linejoin:round;stroke-dasharray:3.1376,5.2294;}
	.st138{fill:none;stroke:#FB8604;stroke-width:2.75;stroke-linecap:round;stroke-linejoin:round;stroke-dasharray:2.8568,4.7613;}
	.st139{fill:none;stroke:#FB8604;stroke-width:2.75;stroke-linecap:round;stroke-linejoin:round;stroke-dasharray:2.3279,3.8798;}
	.st140{fill:none;stroke:#FB8604;stroke-width:2.75;stroke-linecap:round;stroke-linejoin:round;stroke-dasharray:1.5312,2.552;}
	.st141{fill:none;stroke:#FB8604;stroke-width:2.75;stroke-linecap:round;stroke-linejoin:round;stroke-dasharray:2.9978,4.9963;}
	.st142{fill:none;stroke:#FB8604;stroke-width:2.75;stroke-linecap:round;stroke-linejoin:round;stroke-dasharray:3.3089,5.5148;}
	.st143{fill:none;stroke:#FB8604;stroke-width:2.75;stroke-linecap:round;stroke-linejoin:round;stroke-dasharray:2.8474,4.7456;}
	.st144{fill:none;stroke:#FB8604;stroke-width:2.75;stroke-linecap:round;stroke-linejoin:round;stroke-dasharray:3.2084,5.3473;}
	.st145{fill:none;stroke:#FB8604;stroke-width:2.75;stroke-linecap:round;stroke-linejoin:round;stroke-dasharray:2.8968,4.828;}
	.st146{fill:none;stroke:#FB8604;stroke-width:2.75;stroke-linecap:round;stroke-linejoin:round;stroke-dasharray:3.1168,5.1947;}
	.st147{fill:none;stroke:#FB8604;stroke-width:2.75;stroke-linecap:round;stroke-linejoin:round;stroke-dasharray:2.981,4.9683;}
	.st148{fill:none;stroke:#FB8604;stroke-width:2.75;stroke-linecap:round;stroke-linejoin:round;stroke-dasharray:2.9834,4.9723;}
	.st149{fill:none;stroke:#FB8604;stroke-width:2.75;stroke-linecap:round;stroke-linejoin:round;stroke-dasharray:3.0096,5.016;}
	.st150{fill:none;stroke:#FB8604;stroke-width:2.75;stroke-linecap:round;stroke-linejoin:round;stroke-dasharray:3.0425,5.0708;}
	.st151{fill:none;stroke:#FB8604;stroke-width:2.75;stroke-linecap:round;stroke-linejoin:round;stroke-dasharray:2.5109,4.1848;}
	.st152{fill:none;stroke:#FB8604;stroke-width:2.75;stroke-linecap:round;stroke-linejoin:round;stroke-dasharray:2.9658,4.943;}
	.st153{fill:none;stroke:#FB8604;stroke-width:2.75;stroke-linecap:round;stroke-linejoin:round;stroke-dasharray:2.8709,4.7848;}
	.st154{fill:none;stroke:#FB8604;stroke-width:2.75;stroke-linecap:round;stroke-linejoin:round;stroke-dasharray:3.1073,5.1789;}
	.st155{fill:none;stroke:#FB8604;stroke-width:2.75;stroke-linecap:round;stroke-linejoin:round;stroke-dasharray:3.3657,5.6095;}
	.st156{fill:none;stroke:#FB8604;stroke-width:2.75;stroke-linecap:round;stroke-linejoin:round;stroke-dasharray:3.008,5.0134;}
	.st157{fill:none;stroke:#FB8604;stroke-width:2.75;stroke-linecap:round;stroke-linejoin:round;stroke-dasharray:2.9888,4.9813;}
	.st158{fill:none;stroke:#FB8604;stroke-width:2.75;stroke-linecap:round;stroke-linejoin:round;stroke-dasharray:2.8942,4.8236;}
	.st159{fill:none;stroke:#FB8604;stroke-width:2.75;stroke-linecap:round;stroke-linejoin:round;stroke-dasharray:3.2728,5.4547;}
	.st160{fill:none;stroke:#FB8604;stroke-width:2.75;stroke-linecap:round;stroke-linejoin:round;stroke-dasharray:2.717,4.5283;}
	.st161{fill:none;stroke:#FB8604;stroke-width:2.75;stroke-linecap:round;stroke-linejoin:round;stroke-dasharray:3.053,5.0883;}
	.st162{fill:none;stroke:#FB8604;stroke-width:2.75;stroke-linecap:round;stroke-linejoin:round;stroke-dasharray:3.084,5.14;}
	.st163{fill:none;stroke:#FB8604;stroke-width:2.75;stroke-linecap:round;stroke-linejoin:round;stroke-dasharray:3.0483,5.0805;}
	.st164{fill:none;stroke:#FB8604;stroke-width:2.75;stroke-linecap:round;stroke-linejoin:round;stroke-dasharray:2.9472,4.9121;}
	.st165{fill:none;stroke:#FB8604;stroke-width:2.75;stroke-linecap:round;stroke-linejoin:round;stroke-dasharray:3.0489,5.0815;}
	.st166{fill:none;stroke:#FB8604;stroke-width:2.75;stroke-linecap:round;stroke-linejoin:round;stroke-dasharray:3.2105,5.3508;}
	.st167{fill:none;stroke:#FB8604;stroke-width:2.75;stroke-linecap:round;stroke-linejoin:round;stroke-dasharray:3.1121,5.1868;}
	.st168{fill:none;stroke:#FB8604;stroke-width:2.75;stroke-linecap:round;stroke-linejoin:round;stroke-dasharray:2.9144,4.8574;}
	.st169{fill:none;stroke:#FB8604;stroke-width:2.75;stroke-linecap:round;stroke-linejoin:round;stroke-dasharray:3.2099,5.3498;}
	.st170{fill:none;stroke:#FB8604;stroke-width:2.75;stroke-linecap:round;stroke-linejoin:round;stroke-dasharray:3.0035,5.0059;}
	.st171{fill:none;stroke:#FB8604;stroke-width:2.75;stroke-linecap:round;stroke-linejoin:round;stroke-dasharray:3.0979,5.1632;}
	.st172{fill:none;stroke:#FB8604;stroke-width:2.75;stroke-linecap:round;stroke-linejoin:round;stroke-dasharray:3.0377,5.0628;}
	.st173{fill:none;stroke:#FB8604;stroke-width:2.75;stroke-linecap:round;stroke-linejoin:round;stroke-dasharray:2.895,4.825;}
	.st174{fill:none;stroke:#FB8604;stroke-width:2.75;stroke-linecap:round;stroke-linejoin:round;stroke-dasharray:2.8221,4.7035;}
	.st175{fill:none;stroke:#FB8604;stroke-width:2.75;stroke-linecap:round;stroke-linejoin:round;stroke-dasharray:3.0558,5.0931;}
	.st176{fill:none;stroke:#FB8604;stroke-width:2.75;stroke-linecap:round;stroke-linejoin:round;stroke-dasharray:3.28,5.4666;}
	.st177{fill:none;stroke:#FB8604;stroke-width:2.75;stroke-linecap:round;stroke-linejoin:round;stroke-dasharray:3.0048,5.0079;}
	.st178{fill:none;stroke:#FB8604;stroke-width:2.75;stroke-linecap:round;stroke-linejoin:round;stroke-dasharray:2.8024,4.6707;}
	.st179{fill:none;stroke:#FB8604;stroke-width:2.75;stroke-linecap:round;stroke-linejoin:round;stroke-dasharray:2.9867,4.9779;}
	.st180{fill:none;stroke:#FB8604;stroke-width:2.75;stroke-linecap:round;stroke-linejoin:round;stroke-dasharray:3.1426,5.2376;}
	.st181{fill:none;stroke:#FB8604;stroke-width:2.75;stroke-linecap:round;stroke-linejoin:round;stroke-dasharray:2.7353,4.5588;}
	.st182{fill:none;stroke:#FB8604;stroke-width:2.75;stroke-linecap:round;stroke-linejoin:round;stroke-dasharray:2.6394,4.399;}
	.st183{fill:none;stroke:#FB8604;stroke-width:2.75;stroke-linecap:round;stroke-linejoin:round;stroke-dasharray:3.0205,5.0341;}
	.st184{fill:none;stroke:#FB8604;stroke-width:2.75;stroke-linecap:round;stroke-linejoin:round;stroke-dasharray:2.8833,4.8055;}
	.st185{fill:none;stroke:#FB8604;stroke-width:2.75;stroke-linecap:round;stroke-linejoin:round;stroke-dasharray:3.3253,5.5422;}
	.st186{fill:none;stroke:#FB8604;stroke-width:2.75;stroke-linecap:round;stroke-linejoin:round;stroke-dasharray:3.2789,5.4648;}
	.st187{fill:none;stroke:#FB8604;stroke-width:2.75;stroke-linecap:round;stroke-linejoin:round;stroke-dasharray:2.2975,3.8292;}
	.st188{fill:none;stroke:#FB8604;stroke-width:2.75;stroke-linecap:round;stroke-linejoin:round;stroke-dasharray:2.7364,4.5607;}
	.st189{fill:none;stroke:#FB8604;stroke-width:2.75;stroke-linecap:round;stroke-linejoin:round;stroke-dasharray:2.9916,4.986;}
	.st190{fill:none;stroke:#FB8604;stroke-width:2.75;stroke-linecap:round;stroke-linejoin:round;stroke-dasharray:3.003,5.005;}
	.st191{fill:none;stroke:#FB8604;stroke-width:2.75;stroke-linecap:round;stroke-linejoin:round;stroke-dasharray:2.9847,4.9746;}
	.st192{fill:none;stroke:#FB8604;stroke-width:2.75;stroke-linecap:round;stroke-linejoin:round;stroke-dasharray:3.1766,5.2943;}
	.st193{fill:none;stroke:#FB8604;stroke-width:2.75;stroke-linecap:round;stroke-linejoin:round;stroke-dasharray:2.7665,4.6108;}
	.st194{fill:none;stroke:#FB8604;stroke-width:2.75;stroke-linecap:round;stroke-linejoin:round;stroke-dasharray:2.6685,4.4475;}
	.st195{fill:none;stroke:#FB8604;stroke-width:2.75;stroke-linecap:round;stroke-linejoin:round;stroke-dasharray:3.0516,5.0859;}
	.st196{fill:none;stroke:#FB8604;stroke-width:2.75;stroke-linecap:round;stroke-linejoin:round;stroke-dasharray:2.9141,4.8569;}
	.st197{fill:none;stroke:#FB8604;stroke-width:2.75;stroke-linecap:round;stroke-linejoin:round;stroke-dasharray:3.3649,5.6082;}
	.st198{fill:none;stroke:#FB8604;stroke-width:2.75;stroke-linecap:round;stroke-linejoin:round;stroke-dasharray:3.3143,5.5238;}
	.st199{fill:none;stroke:#FB8604;stroke-width:2.75;stroke-linecap:round;stroke-linejoin:round;stroke-dasharray:2.327,3.8783;}
	.st200{fill:none;stroke:#FB8604;stroke-width:2.75;stroke-linecap:round;stroke-linejoin:round;stroke-dasharray:2.7654,4.6089;}
	.st201{fill:none;stroke:#FB8604;stroke-width:2.75;stroke-linecap:round;stroke-linejoin:round;stroke-dasharray:3.0036,5.006;}
	.st202{fill:none;stroke:#FB8604;stroke-width:2.75;stroke-linecap:round;stroke-linejoin:round;stroke-dasharray:3.0013,5.0021;}
	.st203{fill:none;stroke:#FB8604;stroke-width:2.75;stroke-linecap:round;stroke-linejoin:round;stroke-miterlimit:10;}
	.st204{fill:none;stroke:#FB8604;stroke-width:3.5;stroke-linecap:round;stroke-linejoin:round;stroke-miterlimit:10;}
</style>
<metadata>
	<sfw  xmlns="&ns_sfw;">
		<slices></slices>
		<sliceSourceBounds  bottomLeftOrigin="true" height="13470.3" width="4626" x="-2000" y="-4314"></sliceSourceBounds>
	</sfw>
</metadata>
<g id="FILL-BACKGROUND">
	<rect class="st0" width="750" height="750"/>
</g>
<g id="N-DIMENSIONS">
</g>
<g id="N-TEXT">
</g>
<g id="_x32_D_x24_AG-DIAGRAM">
	<g id="POLYLINE_00000063614045725521294080000010608760887903461807_">
		<g>
			<g>
				<line class="st6" x1="649.52" y1="548.05" x2="647.52" y2="548.05"/>
				<line class="st18" x1="640.51" y1="548.05" x2="104.5" y2="548.05"/>
				<line class="st6" x1="101" y1="548.05" x2="99" y2="548.05"/>
			</g>
		</g>
	</g>
</g>
<g id="_x32_D_x24_AG-DETAILS-DIAGRAM">
</g>
<g id="_x32_D_x24_AG-DETAILS">
	<g id="POLYLINE_00000170970317404114624480000016832112280483258527_">
		<path class="st2" d="M155.33,471.82c-3.8,4.58-7.27,9.53-9.95,14.86c-3.38,6.73-5.61,14.06-7,21.45
			c-0.72,4.07-1.21,8.26-0.84,12.39c0.21,2.09,0.65,4.23,1.76,6.04c0.69,1.13,1.69,2.08,2.92,2.59c1.12,0.48,2.37,0.6,3.58,0.56
			c2.52-0.09,4.99-0.77,7.39-1.51c10.92-3.54,21.96-9.55,33.33-11.57c2.64-0.45,5.35-0.6,8.02-0.44c2.86,0.17,5.72,0.7,8.48,1.45
			c4.78,1.28,10.14,3.54,14.76,5.34c3.84,1.51,8.01,3.02,11.99,4.11c5.4,1.49,11.04,2.36,16.62,2.85
			c12.38,1.04,25.01,0.37,37.33-1.09c16.18-1.99,32.39-5.48,47.91-10.47"/>
	</g>
	<g id="POLYLINE_00000049213149295240648380000014110814203360654004_">
		<path class="st2" d="M445.46,396.14l-3.56-7.83c-1.8-4.09-3.37-8.36-4.45-12.69c-1.83-7.12-3.37-20.37-4.52-27.76
			c-0.89-5.5-1.97-11.13-3.69-16.43c-1.58-4.88-3.81-9.61-6.46-14c-2.93-4.89-6.61-9.66-10.17-14.11"/>
	</g>
	<g id="POLYLINE_00000101791970398024115230000008747034553148155064_">
		<path class="st2" d="M421.4,428.61c-2.73-7.3-5.4-14.92-7.03-22.54c-1.1-5.03-1.74-10.22-2.04-15.36
			c-0.69-12.77-0.3-27.21-2.24-39.84c-2.33-15.86-7.07-31.44-12.76-46.4"/>
	</g>
	<g id="POLYLINE_00000135674351258421103660000017812309883975012536_">
		<path class="st2" d="M389.31,506.15c-5.56-7.11-11.06-14.53-14.94-22.71c-2.88-6.05-4.84-12.61-5.31-19.31
			c-0.65-9.69,1.36-19.38,3.58-28.76c3.28-13.19,8.72-31.48,9.95-44.86c2.32-21.9-1.69-44.05-6.28-65.41"/>
	</g>
</g>
<g id="_x32_D_x24_AG-ANIMALS">
	<g id="POLYLINE_00000022526017315659583130000007065171663676940706_">
		<path class="st203" d="M502.44,543.26c4.04,1.61,8.32,2.84,12.61,3.58c5.02,0.88,10.27,1.12,15.37,1.18
			c8.71-0.01,50.81,0.1,58.52-0.06c3.24-0.09,6.73-0.24,9.95-0.59c4.61-0.48,9.25-1.39,13.63-2.92c5.79-2.01,11.3-4.92,16.24-8.54
			c3.92-2.88,7.54-6.27,10.4-10.22c3.61-4.96,6.1-10.9,6.32-17.08c0.19-4.93-1.1-9.8-2.53-14.47l-5.5-16.83
			c-1.34-4.48-2.63-9.11-2.76-13.81c-0.11-3.04,0.35-6.1,1.11-9.04l1.67-6.35c0.42-1.71,0.83-3.49,1.01-5.24
			c0.1-1.01,0.11-2.04-0.07-3.04c-0.19-1.03-0.6-2.03-1.27-2.83c-0.75-0.9-1.79-1.53-2.89-1.91c-1.53-0.52-3.19-0.6-4.79-0.48
			c-1.78,0.14-3.55,0.52-5.2,1.19c-2.13,0.86-4.09,2.13-5.91,3.52c-2.17,1.62-7.43,6.45-9.53,8.28c-3.45,2.95-7.13,6.07-11.68,7.06
			c-2.35,0.53-4.8,0.48-7.19,0.31c-4.3-0.37-11.87-1.21-16.12-1.46"/>
	</g>
	<g id="POLYLINE_00000004505297851326189460000003197468038449935492_">
		<path class="st203" d="M414.09,502.62c11.81,3.39,24.04,7.07,35.31,11.95c3.37,1.47,6.82,3.15,10.05,4.9
			c3.62,1.92,10.47,6.11,14.05,8.25"/>
	</g>
	<g id="POLYLINE_00000106844573776338379930000009086648951787606450_">
		<path class="st203" d="M423.09,472.7c0.93,0.53,2.8,1.61,3.72,2.16c8.24,4.93,18.9,12.31,27.87,15.53
			c4.13,1.57,9.17,2.79,12.56,5.75c1.02,0.88,1.89,1.94,2.56,3.11c1.05,1.82,1.64,3.88,2.07,5.93c1.26,5.91,1.23,15.04,1.55,21.12
			c0.16,2.72,0.34,5.52,0.96,8.17c0.42,1.8,1.13,3.61,2.48,4.93c1.04,1.03,2.4,1.68,3.8,2.11c2.43,0.73,5.03,0.98,7.55,1.22
			c5.4,0.47,10.96,0.62,16.39,0.52c6.27-0.18,12.69-0.51,18.77-2.13c1.2-0.34,2.41-0.76,3.53-1.32c0.72-0.37,1.42-0.81,1.99-1.38
			l0.06-0.06l0.06-0.06c0.35-0.37,0.63-0.81,0.81-1.29c0.19-0.49,0.26-1.02,0.23-1.54c-0.14-1.94-1.45-3.61-2.87-4.84
			c-1.7-1.45-3.78-2.38-5.9-3.03c-3.3-1-6.8-1.42-10.23-1.75c-4.79-0.46-11.57-0.66-16.16-1.91c-2.75-0.72-5.45-2.02-7.32-4.22
			c-0.86-0.98-1.53-2.12-2.1-3.29c-1.46-2.95-2.75-7.58-3.8-10.73c-1.05-3.14-2.27-6.29-4.03-9.1c-3.93-6.34-9.8-11.21-15.64-15.71
			c-6.19-4.7-16.88-12.25-22.46-17.43c-2.21-2.03-4.37-4.22-6.18-6.61c-3.39-4.39-5.54-9.61-7.4-14.8"/>
	</g>
	<g id="POLYLINE_00000003816834601794463620000002658499000161938334_">
		<path class="st203" d="M644.29,498.95c5.77-5.6,11.23-11.69,15.27-18.68c5.45-9.33,8.19-20.02,9.8-30.63
			c1.14-7.73,1.65-15.65,1.55-23.46c-0.09-5.27-0.38-10.7-1.28-15.9c-0.4-2.15-0.86-4.34-1.78-6.34c-0.38-0.78-0.83-1.57-1.56-2.07
			l-0.03-0.02l-0.03-0.02l-0.03-0.02l-0.03-0.02l-0.04-0.02l-0.04-0.02l-0.04-0.02c-0.49-0.25-1.07-0.23-1.58-0.04
			c-0.49,0.19-0.92,0.52-1.3,0.89c-0.65,0.66-1.14,1.47-1.51,2.31c-0.35,0.8-0.6,1.66-0.81,2.51c-0.55,2.25-0.95,5.66-1.29,7.98
			c-0.63,4.37-1.57,8.83-3.89,12.64c-3.99,6.62-10.49,11.3-17.2,14.9"/>
	</g>
	<g id="POLYLINE_00000043418509972871842030000016313982465302705556_">
		<path class="st203" d="M567.12,494.15l2.21-5.89c1.14-3.15,2.15-6.42,2.67-9.74c0.36-2.22,0.46-4.5,0.39-6.74
			c-0.09-3.8-0.69-8.8-0.31-12.57c0.18-1.8,0.58-3.61,1.47-5.2c1.27-2.26,3.47-3.79,5.62-5.14c1.68-1.08,3.91-2.28,5.49-3.49
			c0.98-0.74,1.92-1.58,2.63-2.59c1.12-1.58,1.58-3.55,1.57-5.47c-0.01-2.35-0.65-4.69-1.76-6.76c-0.63-1.19-1.48-2.26-2.37-3.27
			c-0.97-1.12-2.09-2.27-2.71-3.63c-0.31-0.67-0.47-1.41-0.46-2.15c0.04-2.58,1.26-5.24,1.65-7.78c0.14-0.86,0.2-1.76,0.02-2.62
			c-0.14-0.65-0.42-1.27-0.81-1.81c-0.72-1-1.73-1.74-2.79-2.35c-1.97-1.12-4.15-1.85-6.31-2.51c-3.43-1.02-7.11-1.63-10.66-0.91
			c-3.97,0.77-7.29,3.32-10.32,5.87l-6.21,5.45c-1.63,1.38-3.35,2.71-5.22,3.74c-1.7,0.95-3.53,1.67-5.42,2.12
			c-2.95,0.69-6.04,0.73-9.04,0.44c-4.35-0.44-8.68-1.58-12.57-3.6"/>
	</g>
	<g id="POLYLINE_00000131327509176521211780000016511220621560970132_">
		<path class="st203" d="M494.35,421.93c3.55,0.15,7.17,0.03,10.67-0.67c2.67-0.53,5.29-1.44,7.6-2.89
			c3.56-2.22,6.72-5.37,10.43-7.34c3.49-1.89,7.44-2.77,11.31-3.52l8.96-1.57c2.71-0.53,5.47-1.13,7.98-2.29
			c1.94-0.9,3.76-2.27,4.69-4.24c0.84-1.74,0.96-3.74,0.8-5.64c-0.27-2.9-1.12-5.8-2.68-8.27c-0.55-0.84-1.19-1.63-2.01-2.22
			c-0.53-0.38-1.14-0.65-1.78-0.78c-0.96-0.2-1.95-0.12-2.9,0.09c-2.36,0.52-5.12,2.01-7.34,2.97c-2.14,0.95-4.38,1.74-6.7,2.11
			c-3.25,0.52-6.62,0.34-9.89,0.12c-4.21-0.33-11.34-1.07-15.47-1.06c-4.55-0.03-9.24,0.38-13.75,0.95"/>
	</g>
	<g id="POLYLINE_00000173871227706959260760000000624943258456212152_">
		<path class="st203" d="M471.92,402.73c3.79-1.42,7.58-3.07,11.09-5.07c2.48-1.42,4.89-3.05,6.99-4.98
			c2.54-2.28,4.56-5.44,6.53-8.22c1.82-2.57,3.97-4.98,6.62-6.72c4.99-3.27,12.18-5.4,17.66-7.75c2.29-0.98,4.62-2.05,6.63-3.54
			c0.82-0.62,1.59-1.32,2.2-2.16c0.62-0.85,1.08-1.83,1.3-2.86c0.38-1.72,0.13-3.62-0.88-5.08c-1.85-2.63-5.52-2.61-8.37-2.06
			c-3.22,0.64-6.26,2.02-9.14,3.55c-7.3,3.94-14.78,9.65-22.05,13.66c-7.87,4.38-16.38,7.75-24.93,10.54"/>
	</g>
	<g id="POLYLINE_00000152985503725408564850000002267438664792627602_">
		<path class="st203" d="M447.35,420.16c4.85,5.36,10.2,10.74,17.09,13.34c2.94,1.11,6.1,1.58,9.21,1.86
			c5.86,0.49,12.38,0.46,18.16,1.59c9.93,1.77,18.96,8.01,27.58,12.95c2.23,1.25,4.52,2.52,6.96,3.31c1.41,0.45,2.93,0.72,4.4,0.45
			c0.92-0.17,1.8-0.6,2.5-1.22c0.94-0.82,1.6-1.91,2.09-3.05c0.59-1.39,0.94-2.9,0.97-4.41c0.02-0.97-0.1-1.95-0.47-2.85
			c-0.48-1.2-1.49-2.1-2.6-2.72c-1.01-0.57-2.14-0.98-3.24-1.35c-3.4-1.04-7.16-2.22-10.43-3.58c-6.47-2.62-13.04-5.92-19.2-9.22
			c-9.19-4.95-18.47-10.55-26.97-16.61"/>
	</g>
	<g id="POLYLINE_00000058589199801880806820000000161239498444498563_">
		<path class="st203" d="M254.65,415.27l-0.3-9.68c-0.2-4.53-0.68-9.11-1.79-13.51c-1.02-4.1-2.59-8.08-4.49-11.86
			c-4.55-9.18-12.95-21.31-17.47-30.51c-1.13-2.32-2.18-4.73-2.87-7.21c-0.75-2.64-1.03-5.51-0.14-8.15
			c0.66-2.02,1.95-3.78,3.53-5.18c3.51-3.08,8.06-4.62,12.45-5.97l9.06-2.61c8.06-2.25,17.4-7.05,25.29-9.88
			c2.03-0.7,4.13-1.34,6.26-1.65c1.49-0.22,3-0.26,4.5-0.14c2.36,0.17,5.12,0.9,7.43,1.44"/>
	</g>
	<g id="POLYLINE_00000016754956367252936720000015037222119435370369_">
		<path class="st203" d="M140.08,315.75c0.3-0.97,0.52-1.98,0.61-3c0.13-1.27,0.07-2.58-0.01-3.85l-0.51-6.12
			c-0.12-1.72-0.21-3.51-0.09-5.23c0.08-1.13,0.27-2.27,0.69-3.33c0.27-0.68,0.63-1.35,1.18-1.84c0.28-0.25,0.63-0.45,1.01-0.46
			c0.32-0.01,0.62,0.11,0.87,0.29c0.58,0.43,0.98,1.05,1.33,1.67c0.97,1.81,1.56,3.83,2.1,5.81c0.7,2.63,1.55,6.6,2.58,9.09
			c0.34,0.83,0.74,1.65,1.26,2.39c0.41,0.58,0.92,1.09,1.5,1.5c0.7,0.49,1.5,0.82,2.31,1.06"/>
	</g>
	<g id="POLYLINE_00000075841566023321220710000018416003047135027346_">
		<path class="st203" d="M149.45,322.35c-3.06-1.65-5.94-4.48-8.89-6.31c-0.72-0.44-1.48-0.85-2.3-1.1c-0.65-0.2-1.34-0.3-2.02-0.17
			c-0.77,0.15-1.47,0.59-1.97,1.18c-0.75,0.86-1.06,2.01-0.93,3.13c0.22,1.98,1.5,4.46,2.2,6.32c2.02,4.97,2.15,10.47,2.31,15.76"/>
	</g>
	<g id="POLYLINE_00000152232352432425665420000013394857777098550203_">
		<path class="st203" d="M184.03,307.88c1.08-4.09,2.63-8.21,4.36-12.07c0.41-1,0.83-2.04,1.03-3.1c0.13-0.68,0.16-1.39-0.01-2.07
			c-0.29-1.17-1.05-2.16-1.8-3.08c-1.37-1.62-2.94-3.39-3.87-5.31c-0.76-1.55-1.27-3.23-1.69-4.9c-0.76-3.08-1.36-6.95-2.08-10.03
			c-0.67-2.89-1.57-5.78-3.21-8.28c-1.72-2.68-5.09-5.98-8.26-3.37c-1.81,1.52-2.6,3.93-2.78,6.22c-0.14,1.78,0,3.63,0.17,5.41
			c0.44,4.14,1.15,8.99,0.81,13.11c-0.68,9.01-5.73,17.14-9.25,25.25c-1.28,2.97-2.13,6.42-2.93,9.56
			c-2.43,9.77-3.37,19.97-3.05,30.02c0.29,7.78,1.46,15.62,3.18,23.21c1.82,8.2,4.79,17.19,7.28,25.22
			c0.67,2.18,1.26,4.48,1.65,6.73c0.85,4.6,0.7,9.98,1.39,14.6c0.18,1.13,0.41,2.27,0.85,3.33c0.41,1.03,1.1,2.05,2.22,2.37
			c0.88,0.25,1.82,0.1,2.69-0.17c1.66-0.53,3.17-1.49,4.56-2.53c4.6-3.54,8.28-8.32,10.39-13.74c2.14-5.45,2.73-11.48,1.79-17.24
			c-0.67-4.18-2.17-8.22-4.19-11.93c-3.5-8.37-5.07-17.66-3.91-26.69c0.27-2.04,0.7-4.1,1.3-6.07c1.17-3.85,2.44-8.29,3.39-12.19
			c0.98-4.09,1.91-8.34,2.3-12.53c0.18-2.16,0.24-4.4-0.41-6.49c-0.33-1.04-0.86-2.03-1.58-2.85c-1.15-1.3-2.66-2.22-4.22-2.96
			c-1.71-0.8-3.54-1.39-5.36-1.87c-1.68-0.43-3.48-0.84-5.2-1.09c-1.55-0.21-3.16-0.37-4.7-0.02c-0.71,0.17-1.42,0.5-1.87,1.1
			c-0.35,0.46-0.53,1.02-0.61,1.58c-0.16,1.05-0.05,2.13,0.1,3.17c0.23,1.69,1.16,5.43,1.54,7.15c0.68,3.12,1.4,7.12,2.45,10.11"/>
	</g>
	<g id="POLYLINE_00000154410708511158373260000001214290755065552804_">
		<path class="st203" d="M147.28,386.9c0.97,2.54,2.15,5.41,2.54,8.11c0.72,4.45,0.24,11.88,0.25,16.43
			c0.01,2.41,0.03,4.92,0.44,7.3c0.21,1.15,0.51,2.32,1.12,3.33c0.33,0.55,0.77,1.04,1.31,1.39c0.56,0.37,1.22,0.58,1.89,0.65
			c1.13,0.11,2.27-0.21,3.25-0.75c1.45-0.8,2.6-2.04,3.55-3.38c1.33-1.92,2.34-4.07,3.19-6.24"/>
	</g>
	<g id="POLYLINE_00000145766819682636727480000015428246943066519717_">
		<path class="st203" d="M157.34,423.7c-0.35,8.88-1.25,17.95-4.37,26.33c-1.51,4.09-3.64,7.97-6.06,11.59
			c-7.92,11.74-21.04,27.78-28.64,39.7c-2.67,4.21-5.16,8.65-6.98,13.3c-1.37,3.52-2.36,7.23-2.55,11.02
			c-0.24,4.73,0.84,9.62,3.52,13.57c1.36,2.01,3.14,3.76,5.19,5.06c1.78,1.14,3.78,1.93,5.83,2.46c2.13,0.56,4.36,0.85,6.56,1.04
			c5.58,0.52,29.49,0.2,35.49,0.29c3.9-0.01,8.73,0.01,12.6-0.41c3.14-0.3,6.31-0.9,9.37-1.64c6.52-1.6,13.98-3.83,20.55-4.54
			c3.41-0.36,6.89-0.32,10.29,0.02c4.93,0.41,13.57,2.47,18.55,3.5c4.77,0.98,9.72,1.8,14.56,2.24c12.23,1.05,25.66,0.78,37.95,0.78
			c8.78-0.1,17.67-0.78,26.18-3.05c7.79-1.99,17.57-5.77,25.26-8.35c2.48-0.82,5.08-1.56,7.63-2.1c2.31-0.49,4.69-0.84,7.05-0.99
			c2.96-0.23,8.43-0.07,11.44-0.12c3.55-0.07,7.21-0.31,10.54-1.67c2.46-0.98,4.71-2.46,6.7-4.21c2.53-2.16,5.08-5.46,7.36-7.89
			c2.54-2.8,5.64-5.08,8.76-7.19c6.02-4.07,12.95-8.44,18.17-13.47c2.77-2.67,5.31-5.66,7.11-9.08c0.78-1.5,1.4-3.11,1.68-4.78
			c0.24-1.44,0.21-2.94-0.1-4.37c-0.48-2.27-1.56-4.37-2.78-6.33c-1.51-2.47-4.23-6.14-5.71-8.62c-1.55-2.54-2.73-5.45-2.57-8.47
			c0.16-3.08,1.38-6.05,3.13-8.57c1.67-2.41,3.87-4.42,6.19-6.2c2.96-2.26,7.27-5.36,9.93-7.82c2.11-1.89,4.08-4,5.88-6.18
			c2.03-2.43,4.18-5.41,6.02-8.01c1.29-1.93,9.27-13.32,10.26-14.94c1.68-2.6,3.27-5.33,4.52-8.16c2.62-5.84,3.78-12.28,3.83-18.66
			c0.02-3.88-0.38-7.8-1.27-11.58c-0.75-3.19-1.9-6.32-3.22-9.31c-2.18-5.05-5.79-11.28-7.9-16.36c-1.76-4.23-2.87-8.83-2.49-13.44
			c0.22-2.9,0.97-5.75,2.05-8.45c0.98-2.42,2.24-4.78,3.95-6.77c1.07-1.23,2.35-2.33,3.89-2.9c1.17-0.44,2.49-0.49,3.68-0.11"/>
	</g>
	<g id="POLYLINE_00000065047394485279266380000015351610290960089729_">
		<path class="st203" d="M453.24,341.38c4.29-3.17,8.59-6.58,12.29-10.42c2.36-2.47,4.57-5.18,5.98-8.31
			c1.03-2.23,1.41-4.6,1.62-7.03c0.21-2.43,0.21-4.96-0.64-7.27c-1.08-2.96-3.54-5.16-6.13-6.84c-3.23-2.08-6.85-3.59-10.42-4.96
			c-7.33-2.74-15.45-5.09-22.99-7.22c-4.5-1.22-9.18-2.45-13.84-2.73c-2.13-0.14-4.31-0.01-6.42,0.27
			c-4.52,0.62-9.45,1.83-14.03,1.33c-2.77-0.28-5.49-1.01-8.1-1.96c-3.56-1.3-6.98-3.03-10.22-4.99c-3.42-2.08-7.64-5.03-11.36-6.43
			c-3.73-1.43-7.77-1.93-11.73-2.27c-4.08-0.36-9.38-0.48-13.26-1.76c-4.59-1.43-8.66-4.77-13.08-6.59
			c-2.89-1.21-6.07-1.55-9.18-1.62c-5.4-0.08-11.26,0.01-16.48-1.38c-3.44-0.86-7.99-2.72-11.34-4.01c-1.88-0.74-5.17-1.85-7.05-2.6
			c-2.18-0.88-4.29-2-6.17-3.42c-2.61-1.97-4.88-4.44-7.02-6.9c-6.85-8.04-14.11-18.6-21.12-26.49c-3.6-4.07-7.54-7.94-12-11.06
			c-2.01-1.38-4.15-2.66-6.45-3.49c-1.38-0.49-2.84-0.82-4.31-0.73c-0.98,0.06-1.96,0.32-2.78,0.86c-0.79,0.52-1.4,1.31-1.71,2.2
			c-0.3,0.85-0.36,1.77-0.3,2.66c0.23,3.06,1.56,6.92,2.35,9.91c1.85,6.73,3.45,13.86,4.51,20.75c0.43,2.99,0.83,6.09,0.75,9.12
			c-0.06,1.93-0.36,3.89-1.19,5.65c-1.07,2.32-2.98,4.14-4.94,5.73c-4.23,3.41-10.5,6.96-15.13,9.86c-3.29,2.07-6.57,4.4-9.56,6.89
			c-4.52,3.83-9.23,8.24-14.36,11.22"/>
	</g>
	<g id="POLYLINE_00000144307849012589433090000012382492764728208783_">
		<path class="st203" d="M127.71,373.73c-1.65,0.49-3.38,0.81-5.1,0.71c-1.04-0.07-2.1-0.32-2.96-0.92
			c-1.44-1.03-2.11-2.86-3.12-4.25c-0.37-0.52-0.82-1.01-1.39-1.3c-0.98-0.5-2.13-0.43-3.19-0.35c-1.38,0.1-3.06,0.43-4.41,0.03
			c-0.7-0.21-1.31-0.65-1.86-1.12c-0.79-0.66-1.6-1.5-2.63-1.74c-1.45-0.35-2.99,0.08-4.46-0.03c-0.47-0.03-0.92-0.15-1.35-0.34
			c-1.05-0.48-2.03-1.23-3.11-1.65c-1.64-0.68-4.4-1.15-6.14-1.57c-0.96-0.24-1.95-0.5-2.82-0.98c-0.39-0.22-0.76-0.5-0.98-0.89
			c-0.28-0.48-0.27-1.06,0-1.54c0.22-0.41,0.59-0.72,0.99-0.95c0.77-0.44,1.64-0.68,2.49-0.9c1.8-0.48,3.85-0.84,5.5-1.71
			c0.65-0.34,1.22-0.82,1.71-1.36c0.8-0.85,1.44-2,2.35-2.75c1.06-0.87,2.57-0.54,3.84-0.68c0.58-0.05,1.17-0.22,1.61-0.62
			c0.75-0.67,1.21-1.71,1.79-2.51c0.26-0.36,0.57-0.72,0.95-0.96c0.49-0.31,1.09-0.4,1.66-0.44c0.89-0.06,1.85,0.03,2.73-0.19
			c0.42-0.1,0.81-0.3,1.13-0.57c0.72-0.59,1.3-1.59,1.84-2.34c0.44-0.62,0.94-1.24,1.59-1.65c0.59-0.38,1.26-0.61,1.93-0.78
			c1.45-0.37,3.08-0.48,4.48-1.02c1.74-0.66,3.18-1.95,4.55-3.18"/>
	</g>
	<g id="POLYLINE_00000125571356494105846530000011371274663753850773_">
		<path class="st203" d="M133.39,382.35c-0.78,0.07-1.58-0.03-2.34-0.19c-0.92-0.2-1.82-0.52-2.66-0.94
			c-0.78-0.4-1.62-0.9-2.13-1.62c-0.19-0.28-0.31-0.6-0.32-0.94c-0.03-0.7,0.26-1.37,0.53-2.01c0.83-1.91,1.86-3.94,1.94-6.05
			c0.05-0.98-0.15-1.95-0.54-2.85c-0.77-1.84-2.19-3.68-3.12-5.45c-0.43-0.83-0.81-1.72-0.93-2.66c-0.17-1.26,0.22-2.51,0.73-3.64
			c1.02-2.26,2.67-4.5,3.38-6.89c0.77-2.5,0.09-5.13-0.71-7.54c-0.84-2.6-2.17-5.43-1.89-8.21c0.13-1.31,0.61-2.63,1.56-3.57
			c0.51-0.5,1.15-0.85,1.82-1.09c1.12-0.41,2.54-0.6,3.69-0.92c1.22-0.33,2.4-0.84,3.54-1.4"/>
	</g>
	<g id="POLYLINE_00000005265008202219945250000007112557422519264951_">
		<path class="st203" d="M156.53,376.87c-0.74,1.65-1.64,3.25-2.77,4.67c-1.3,1.65-2.9,3.07-4.64,4.24
			c-2.64,1.78-5.69,3.06-8.89,3.26c-2.06,0.11-4.2-0.17-6.08-1.06c-0.71-0.35-1.41-0.82-1.83-1.51c-0.16-0.27-0.27-0.57-0.3-0.88
			c-0.03-0.33,0.02-0.67,0.11-0.98c0.18-0.62,0.51-1.18,0.87-1.71c1.86-2.69,4.7-4.97,6.29-7.86c1.06-1.86,1.6-3.96,1.9-6.07
			c0.32-2.24,0.37-4.54,0.02-6.78"/>
	</g>
</g>
<g id="_x32_D_x24_AG-OUTLINE">
	<g id="POLYLINE_00000105401282052876958450000011295003723390037653_">
		<path class="st204" d="M644.29,498.95c1,3.99,1.54,8.18,0.96,12.28c-1.42,10.22-8.35,18.78-16.49,24.7
			c-6.44,4.7-13.81,8.24-21.58,10.08c-6.63,1.56-13.57,1.89-20.36,2c-8.44-0.05-53.23,0.19-60.64-0.09
			c-2.3-0.09-4.84-0.25-7.12-0.51c-5.67-0.62-11.31-2.02-16.61-4.15c-5.97,0.01-12.14-0.19-18.06-0.98
			c-1.67-0.25-3.36-0.57-4.92-1.22c-1.23-0.51-2.38-1.29-3.2-2.35c-0.88-1.11-1.41-2.46-1.77-3.83c-0.6-2.32-0.81-4.78-0.98-7.17
			c-3.63-2.17-10.42-6.31-14.05-8.25c-3.23-1.75-6.68-3.43-10.05-4.9c-11.27-4.88-23.51-8.57-35.31-11.95
			c-3.77,3.07-9.87,7.07-13.98,9.83c-2.06,1.39-4.15,2.88-6.01,4.51c-3.89,3.36-6.94,8.09-10.97,11.31
			c-2.72,2.22-5.94,3.87-9.4,4.52c-4.65,0.93-10.76,0.53-15.52,0.62c-2.53,0.04-5.1,0.24-7.6,0.66c-6.79,1.04-15.82,4.64-22.36,6.89
			c-6.09,2.11-12.47,4.18-18.8,5.34c-6,1.12-12.22,1.55-18.32,1.68c-7.73,0.12-17.65,0.08-25.39-0.03
			c-5.76-0.13-11.98-0.35-17.7-1.06c-6.57-0.73-15.04-2.7-21.54-4.07c-5.41-1.11-10.98-1.87-16.51-1.53
			c-7.39,0.44-15.51,2.97-22.69,4.71c-3.63,0.88-7.38,1.52-11.11,1.79c-3.4,0.43-31.14,0.18-35.21,0.26
			c-5.85-0.05-11.99,0.12-17.7-1.32c-2.04-0.53-4.05-1.32-5.83-2.46c-2.13-1.36-3.97-3.19-5.35-5.31
			c-2.63-4.01-3.65-8.93-3.34-13.68c0.24-3.82,1.29-7.56,2.7-11.1c1.8-4.49,4.21-8.78,6.8-12.86c7.59-11.92,20.73-27.96,28.64-39.7
			c2.53-3.79,4.74-7.87,6.27-12.17c2.95-8.22,3.82-17.07,4.16-25.75c-1.31,0.54-2.87,0.62-4.14-0.08c-1.66-0.91-2.31-2.86-2.65-4.61
			c-0.45-2.47-0.47-5.07-0.49-7.57c-0.01-4.59,0.47-11.95-0.25-16.43c-0.38-2.69-1.57-5.57-2.54-8.11
			c-2.33,1.26-4.94,2.11-7.61,2.17c-1.3,0.02-2.62-0.12-3.88-0.47c-0.86-0.24-1.71-0.57-2.45-1.09c-0.62-0.43-1.19-1.05-1.31-1.82
			c-0.07-0.46,0.03-0.93,0.19-1.36c0.27-0.72,0.71-1.36,1.16-1.98c-1,0.08-2.01-0.08-2.97-0.35c-1.07-0.3-2.1-0.74-3.03-1.36
			c-0.65-0.45-1.35-1.04-1.44-1.87c-0.04-0.33,0.02-0.66,0.1-0.97c0.41-1.36,1.19-2.73,1.66-4.07c-1.65,0.49-3.38,0.81-5.1,0.71
			c-1.04-0.07-2.1-0.32-2.96-0.92c-1.44-1.03-2.11-2.86-3.12-4.25c-0.37-0.52-0.82-1.01-1.39-1.3c-0.98-0.5-2.13-0.43-3.19-0.35
			c-1.38,0.1-3.06,0.43-4.41,0.03c-0.7-0.21-1.31-0.65-1.86-1.12c-0.79-0.66-1.6-1.5-2.63-1.74c-1.45-0.35-2.99,0.08-4.46-0.03
			c-0.47-0.03-0.92-0.15-1.35-0.34c-1.05-0.48-2.03-1.23-3.11-1.65c-1.64-0.68-4.4-1.15-6.14-1.57c-0.96-0.24-1.95-0.5-2.82-0.98
			c-0.39-0.22-0.76-0.5-0.98-0.89c-0.28-0.48-0.27-1.06,0-1.54c0.22-0.41,0.59-0.72,0.99-0.95c0.77-0.44,1.64-0.68,2.49-0.9
			c1.8-0.48,3.85-0.84,5.5-1.71c0.65-0.34,1.22-0.82,1.71-1.36c0.8-0.85,1.44-2,2.35-2.75c1.06-0.87,2.57-0.54,3.84-0.68
			c0.58-0.05,1.17-0.22,1.61-0.62c0.75-0.67,1.21-1.71,1.79-2.51c0.26-0.36,0.57-0.72,0.95-0.96c0.49-0.31,1.09-0.4,1.66-0.44
			c0.89-0.06,1.85,0.03,2.73-0.19c0.42-0.1,0.81-0.3,1.13-0.57c0.72-0.59,1.3-1.59,1.84-2.34c0.44-0.62,0.94-1.24,1.59-1.65
			c0.59-0.38,1.26-0.61,1.93-0.78c1.45-0.37,3.08-0.48,4.48-1.02c1.74-0.66,3.18-1.95,4.55-3.18c-0.25-2.15,0.3-4.69,2.24-5.93
			c1.23-0.78,2.87-0.97,4.26-1.32c1.42-0.33,2.78-0.9,4.09-1.54c-0.12-0.33-0.31-0.84-0.44-1.16c-0.61-1.58-1.66-3.77-2.01-5.4
			c-0.11-0.52-0.18-1.06-0.14-1.59c0.07-1.08,0.6-2.12,1.45-2.79c0.54-0.43,1.2-0.71,1.89-0.74c1.22-0.07,2.37,0.46,3.41,1.04
			c0.3-0.97,0.52-1.98,0.61-3c0.13-1.27,0.07-2.58-0.01-3.85l-0.51-6.12c-0.12-1.72-0.21-3.51-0.09-5.23
			c0.08-1.13,0.27-2.27,0.69-3.33c0.27-0.68,0.63-1.35,1.18-1.84c0.28-0.25,0.63-0.45,1.01-0.46c0.32-0.01,0.62,0.11,0.87,0.29
			c0.58,0.43,0.98,1.05,1.33,1.67c0.97,1.81,1.56,3.83,2.1,5.81c0.7,2.63,1.55,6.6,2.58,9.09c0.34,0.83,0.74,1.65,1.26,2.39
			c0.41,0.58,0.92,1.09,1.5,1.5c0.7,0.49,1.5,0.82,2.31,1.06c0.74-2.94,1.59-5.92,2.82-8.7c3.32-7.42,7.76-14.93,8.83-23.11
			c0.3-2.32,0.29-4.71,0.13-7.04c-0.18-2.81-0.84-7.29-0.98-10.1c-0.09-1.84-0.05-3.72,0.51-5.49c0.37-1.15,0.94-2.25,1.77-3.14
			c0.51-0.53,1.12-0.98,1.81-1.23c0.48-0.17,0.99-0.24,1.5-0.19c0.68,0.06,1.33,0.32,1.91,0.65c0.92,0.54,1.71,1.28,2.4,2.09
			c1.06,1.25,1.9,2.69,2.57,4.19c1.95,4.45,2.5,9.7,3.57,14.41c0.44,1.97,0.97,3.96,1.81,5.8c0.89,2.01,2.46,3.81,3.87,5.48
			c5.13-2.99,9.84-7.4,14.36-11.22c2.99-2.49,6.26-4.82,9.56-6.89c5.41-3.43,12.23-7.08,16.91-11.41c1.27-1.2,2.42-2.58,3.16-4.18
			c0.83-1.76,1.13-3.72,1.19-5.65c0.08-3.02-0.32-6.13-0.75-9.12c-1.06-6.89-2.66-14.03-4.51-20.75c-0.78-2.99-2.11-6.84-2.35-9.91
			c-0.05-0.89,0-1.81,0.3-2.66c0.32-0.92,0.95-1.72,1.77-2.24c0.81-0.52,1.77-0.77,2.73-0.83c1.54-0.09,3.08,0.28,4.52,0.81
			c2.41,0.91,4.65,2.28,6.75,3.77c4.25,3.05,8.03,6.78,11.48,10.69c7.01,7.88,14.28,18.46,21.12,26.49
			c2.19,2.52,4.52,5.05,7.21,7.04c1.61,1.19,3.39,2.18,5.24,2.97c1.66,0.73,4.48,1.68,6.16,2.3c1.48,0.56,5.33,2.04,6.78,2.61
			c3,1.13,6.12,2.16,9.29,2.67c4.2,0.73,9.14,0.65,13.39,0.73c3.11,0.07,6.29,0.41,9.18,1.62c4.42,1.82,8.49,5.15,13.08,6.59
			c3.86,1.28,9.2,1.4,13.26,1.76c3.96,0.35,8,0.85,11.73,2.27c3.71,1.4,7.97,4.37,11.36,6.43c3.24,1.96,6.66,3.7,10.22,4.99
			c2.61,0.95,5.34,1.68,8.1,1.96c4.58,0.5,9.51-0.71,14.03-1.33c2.12-0.29,4.29-0.41,6.42-0.27c3.78,0.23,7.56,1.08,11.22,2.03
			c7.99,2.17,16.5,4.64,24.28,7.43c3.89,1.43,7.83,3.01,11.36,5.2c2.38,1.5,4.67,3.36,5.99,5.89c1.3,2.45,1.42,5.32,1.21,8.04
			c-0.18,2.22-0.46,4.48-1.28,6.57c-1.28,3.33-3.53,6.19-5.94,8.77c-3.81,4.03-8.26,7.57-12.71,10.86
			c2.25,5.45,6.03,11.85,8.3,17.29c1.34,3.13,2.47,6.41,3.15,9.75c0.92,4.46,1.19,9.07,0.88,13.61c8.55-2.79,17.06-6.16,24.93-10.54
			c6.95-3.83,14.25-9.31,21.17-13.18c3.04-1.66,6.23-3.19,9.63-3.94c2.01-0.42,4.16-0.6,6.13,0.06c1.03,0.35,1.97,0.98,2.6,1.87
			c1.05,1.49,1.3,3.45,0.9,5.2c-0.24,1.06-0.73,2.06-1.39,2.93c-0.67,0.87-1.51,1.6-2.4,2.24c-2.2,1.55-4.73,2.66-7.21,3.69
			c-5.26,2.18-12.23,4.33-16.97,7.51c-2.55,1.72-4.62,4.05-6.4,6.54l-2.3,3.27c4.52-0.57,9.2-0.98,13.75-0.95
			c4.1-0.02,11.31,0.73,15.47,1.06c3.28,0.22,6.64,0.39,9.89-0.12c2.32-0.37,4.56-1.16,6.7-2.11c2.24-0.96,4.98-2.44,7.34-2.97
			c0.99-0.22,2.03-0.3,3.02-0.06c1.65,0.37,2.86,1.68,3.73,3.07c1.52,2.45,2.35,5.31,2.61,8.17c0.15,1.9,0.04,3.9-0.8,5.64
			c-0.93,1.97-2.75,3.35-4.69,4.24c-2.51,1.16-5.28,1.76-7.98,2.29l-8.96,1.57c-3.33,0.64-6.72,1.39-9.82,2.78
			c-2.02,0.91-3.9,2.15-5.66,3.47c-1.25,0.95-3.73,2.91-4.99,3.78c3.89,2.02,8.22,3.17,12.57,3.6c3.01,0.28,6.09,0.25,9.04-0.44
			c1.97-0.46,3.87-1.23,5.62-2.23c1.79-1.02,3.45-2.3,5.02-3.63l6.21-5.45c3.09-2.6,6.48-5.19,10.55-5.91
			c3.64-0.68,7.39,0.01,10.89,1.09c2.06,0.65,4.14,1.37,6.01,2.46c1.02,0.61,1.99,1.35,2.68,2.33c0.38,0.54,0.66,1.17,0.78,1.82
			c0.17,0.9,0.08,1.83-0.07,2.72c-0.42,2.48-1.58,5.08-1.62,7.6c0,0.74,0.16,1.48,0.46,2.15c0.62,1.36,1.74,2.5,2.71,3.63
			c0.88,1.01,1.74,2.09,2.37,3.27c1.1,2.07,1.74,4.41,1.76,6.76c0.01,1.92-0.46,3.88-1.57,5.47c-0.76,1.08-1.78,1.97-2.85,2.75
			c-1.51,1.1-3.67,2.34-5.27,3.33c-1.99,1.26-4.01,2.65-5.32,4.65c4.24,0.25,11.84,1.09,16.12,1.46c2.39,0.18,4.84,0.22,7.19-0.31
			c4.55-0.99,8.23-4.1,11.68-7.06c2.14-1.87,7.36-6.65,9.53-8.28c2.07-1.58,4.32-3.01,6.8-3.85c1.7-0.57,3.51-0.87,5.31-0.91
			c1.55-0.02,3.14,0.18,4.56,0.83c0.72,0.33,1.39,0.79,1.93,1.38c0.46,0.49,0.82,1.06,1.07,1.68c0.58,1.41,0.62,2.97,0.46,4.46
			c6.7-3.6,13.21-8.28,17.2-14.9c3.03-4.95,3.67-11.06,4.47-16.7c0.36-2.31,0.7-4.74,1.73-6.87c0.38-0.75,0.85-1.47,1.47-2.04
			c0.37-0.34,0.79-0.62,1.27-0.77c0.47-0.15,0.99-0.13,1.43,0.09l0.04,0.02l0.04,0.02l0.04,0.02l0.03,0.02l0.03,0.02l0.03,0.02
			l0.03,0.02c0.76,0.52,1.23,1.37,1.61,2.19c0.88,1.96,1.34,4.11,1.73,6.22c0.9,5.2,1.19,10.63,1.28,15.9
			c0.09,7.81-0.41,15.73-1.55,23.46c-1.61,10.61-4.35,21.3-9.8,30.63C655.53,487.25,650.06,493.35,644.29,498.95z"/>
	</g>
</g>
</svg>
