<?xml version="1.0" encoding="utf-8"?>
<!-- Generator: Adobe Illustrator 26.3.1, SVG Export Plug-In . SVG Version: 6.00 Build 0)  -->
<!DOCTYPE svg PUBLIC "-//W3C//DTD SVG 1.1//EN" "http://www.w3.org/Graphics/SVG/1.1/DTD/svg11.dtd" [
	<!ENTITY ns_extend "http://ns.adobe.com/Extensibility/1.0/">
	<!ENTITY ns_ai "http://ns.adobe.com/AdobeIllustrator/10.0/">
	<!ENTITY ns_graphs "http://ns.adobe.com/Graphs/1.0/">
	<!ENTITY ns_vars "http://ns.adobe.com/Variables/1.0/">
	<!ENTITY ns_imrep "http://ns.adobe.com/ImageReplacement/1.0/">
	<!ENTITY ns_sfw "http://ns.adobe.com/SaveForWeb/1.0/">
	<!ENTITY ns_custom "http://ns.adobe.com/GenericCustomNamespace/1.0/">
	<!ENTITY ns_adobe_xpath "http://ns.adobe.com/XPath/1.0/">
]>
<svg version="1.1" xmlns:x="&ns_extend;" xmlns:i="&ns_ai;" xmlns:graph="&ns_graphs;"
	 xmlns="http://www.w3.org/2000/svg" xmlns:xlink="http://www.w3.org/1999/xlink" x="0px" y="0px" width="750px" height="750px"
	 viewBox="0 0 750 750" style="enable-background:new 0 0 750 750;" xml:space="preserve">
<style type="text/css">
	.st0{fill:#FFFFFF;}
	.st1{fill:#FB8604;}
	.st2{fill:none;stroke:#FB8604;stroke-width:2;stroke-linecap:round;stroke-linejoin:round;stroke-miterlimit:10;}
	.st3{fill:none;stroke:#FB8604;stroke-width:2.5;stroke-linecap:round;stroke-linejoin:round;}
	.st4{fill:none;stroke:#FB8604;stroke-width:2.5;stroke-linecap:round;stroke-linejoin:round;stroke-dasharray:3.0898,5.1496;}
	.st5{fill:none;stroke:#FB8604;stroke-width:2.5;stroke-linecap:round;stroke-linejoin:round;stroke-dasharray:3.091,5.1517;}
	.st6{fill:none;stroke:#FB8604;stroke-width:2.5;stroke-linecap:round;stroke-linejoin:round;stroke-dasharray:2.9032,4.8387;}
	.st7{fill:none;stroke:#FB8604;stroke-width:2.5;stroke-linecap:round;stroke-linejoin:round;stroke-dasharray:2.9223,4.8705;}
	.st8{fill:none;stroke:#FB8604;stroke-width:2.5;stroke-linecap:round;stroke-linejoin:round;stroke-dasharray:2.9172,4.8621;}
	.st9{fill:none;stroke:#FB8604;stroke-width:2.75;stroke-linecap:round;stroke-linejoin:round;}
	.st10{fill:none;stroke:#FB8604;stroke-width:2.75;stroke-linecap:round;stroke-linejoin:round;stroke-dasharray:2.8443,4.7406;}
	.st11{fill:none;stroke:#FB8604;stroke-width:2.75;stroke-linecap:round;stroke-linejoin:round;stroke-dasharray:3.0851,5.1418;}
	.st12{fill:none;stroke:#FB8604;stroke-width:2.75;stroke-linecap:round;stroke-linejoin:round;stroke-dasharray:2.8462,4.7437;}
	.st13{fill:none;stroke:#FB8604;stroke-width:2.75;stroke-linecap:round;stroke-linejoin:round;stroke-dasharray:1.5856,2.6427;}
	.st14{fill:none;stroke:#FB8604;stroke-width:2.75;stroke-linecap:round;stroke-linejoin:round;stroke-dasharray:3.2273,5.3788;}
	.st15{fill:none;stroke:#FB8604;stroke-width:2.75;stroke-linecap:round;stroke-linejoin:round;stroke-dasharray:3.0035,5.0058;}
	.st16{fill:none;stroke:#FB8604;stroke-width:2.75;stroke-linecap:round;stroke-linejoin:round;stroke-dasharray:3.4878,5.813;}
	.st17{fill:none;stroke:#FB8604;stroke-width:2.75;stroke-linecap:round;stroke-linejoin:round;stroke-dasharray:2.9567,4.9278;}
	.st18{fill:none;stroke:#FB8604;stroke-width:2.75;stroke-linecap:round;stroke-linejoin:round;stroke-dasharray:3.5697,5.9495;}
	.st19{fill:none;stroke:#FB8604;stroke-width:2.75;stroke-linecap:round;stroke-linejoin:round;stroke-dasharray:3.0085,5.0141;}
	.st20{fill:none;stroke:#FB8604;stroke-width:2.75;stroke-linecap:round;stroke-linejoin:round;stroke-dasharray:3.3308,5.5514;}
	.st21{fill:none;stroke:#FB8604;stroke-width:2.75;stroke-linecap:round;stroke-linejoin:round;stroke-dasharray:2.8418,4.7364;}
	.st22{fill:none;stroke:#FB8604;stroke-width:2.75;stroke-linecap:round;stroke-linejoin:round;stroke-dasharray:2.5782,4.297;}
	.st23{fill:none;stroke:#FB8604;stroke-width:2.75;stroke-linecap:round;stroke-linejoin:round;stroke-dasharray:2.9307,4.8846;}
	.st24{fill:none;stroke:#FB8604;stroke-width:2.75;stroke-linecap:round;stroke-linejoin:round;stroke-dasharray:2.9898,4.983;}
	.st25{fill:none;stroke:#FB8604;stroke-width:2.75;stroke-linecap:round;stroke-linejoin:round;stroke-dasharray:2.989,4.9817;}
	.st26{fill:none;stroke:#FB8604;stroke-width:2.75;stroke-linecap:round;stroke-linejoin:round;stroke-dasharray:2.989,4.9816;}
	.st27{fill:none;stroke:#FB8604;stroke-width:2.75;stroke-linecap:round;stroke-linejoin:round;stroke-dasharray:3.0935,5.1559;}
	.st28{fill:none;stroke:#FB8604;stroke-width:2.75;stroke-linecap:round;stroke-linejoin:round;stroke-dasharray:2.9272,4.8787;}
	.st29{fill:none;stroke:#FB8604;stroke-width:2.75;stroke-linecap:round;stroke-linejoin:round;stroke-dasharray:2.9409,4.9016;}
	.st30{fill:none;stroke:#FB8604;stroke-width:2.75;stroke-linecap:round;stroke-linejoin:round;stroke-dasharray:2.9402,4.9004;}
	.st31{fill:none;stroke:#FB8604;stroke-width:2.75;stroke-linecap:round;stroke-linejoin:round;stroke-dasharray:3.0501,5.0834;}
	.st32{fill:none;stroke:#FB8604;stroke-width:2.75;stroke-linecap:round;stroke-linejoin:round;stroke-dasharray:2.5118,4.1864;}
	.st33{fill:none;stroke:#FB8604;stroke-width:2.75;stroke-linecap:round;stroke-linejoin:round;stroke-dasharray:2.6699,4.4498;}
	.st34{fill:none;stroke:#FB8604;stroke-width:2.75;stroke-linecap:round;stroke-linejoin:round;stroke-dasharray:2.8329,4.7215;}
	.st35{fill:none;stroke:#FB8604;stroke-width:2.75;stroke-linecap:round;stroke-linejoin:round;stroke-dasharray:3.0978,5.1629;}
	.st36{fill:none;stroke:#FB8604;stroke-width:2.75;stroke-linecap:round;stroke-linejoin:round;stroke-dasharray:2.9658,4.943;}
	.st37{fill:none;stroke:#FB8604;stroke-width:2.75;stroke-linecap:round;stroke-linejoin:round;stroke-dasharray:2.0811,3.4684;}
	.st38{fill:none;stroke:#FB8604;stroke-width:2.75;stroke-linecap:round;stroke-linejoin:round;stroke-dasharray:2.9977,4.9961;}
	.st39{fill:none;stroke:#FB8604;stroke-width:2.75;stroke-linecap:round;stroke-linejoin:round;stroke-dasharray:2.8943,4.8239;}
	.st40{fill:none;stroke:#FB8604;stroke-width:2.75;stroke-linecap:round;stroke-linejoin:round;stroke-dasharray:2.9823,4.9705;}
	.st41{fill:none;stroke:#FB8604;stroke-width:2.75;stroke-linecap:round;stroke-linejoin:round;stroke-dasharray:3.2956,5.4926;}
	.st42{fill:none;stroke:#FB8604;stroke-width:2.75;stroke-linecap:round;stroke-linejoin:round;stroke-dasharray:3.0098,5.0164;}
	.st43{fill:none;stroke:#FB8604;stroke-width:2.75;stroke-linecap:round;stroke-linejoin:round;stroke-dasharray:2.8071,4.6784;}
	.st44{fill:none;stroke:#FB8604;stroke-width:2.75;stroke-linecap:round;stroke-linejoin:round;stroke-dasharray:2.9443,4.9072;}
	.st45{fill:none;stroke:#FB8604;stroke-width:2.75;stroke-linecap:round;stroke-linejoin:round;stroke-dasharray:2.5961,4.3268;}
	.st46{fill:none;stroke:#FB8604;stroke-width:2.75;stroke-linecap:round;stroke-linejoin:round;stroke-dasharray:2.453,4.0883;}
	.st47{fill:none;stroke:#FB8604;stroke-width:2.75;stroke-linecap:round;stroke-linejoin:round;stroke-dasharray:2.9218,4.8697;}
	.st48{fill:none;stroke:#FB8604;stroke-width:2.75;stroke-linecap:round;stroke-linejoin:round;stroke-dasharray:3.0032,5.0054;}
	.st49{fill:none;stroke:#FB8604;stroke-width:2.75;stroke-linecap:round;stroke-linejoin:round;stroke-dasharray:2.7545,4.5909;}
	.st50{fill:none;stroke:#FB8604;stroke-width:2.75;stroke-linecap:round;stroke-linejoin:round;stroke-dasharray:2.9316,4.886;}
	.st51{fill:none;stroke:#FB8604;stroke-width:2.75;stroke-linecap:round;stroke-linejoin:round;stroke-dasharray:3.4253,5.7088;}
	.st52{fill:none;stroke:#FB8604;stroke-width:2.75;stroke-linecap:round;stroke-linejoin:round;stroke-dasharray:1.9584,3.264;}
	.st53{fill:none;stroke:#FB8604;stroke-width:2.75;stroke-linecap:round;stroke-linejoin:round;stroke-dasharray:2.3949,3.9915;}
	.st54{fill:none;stroke:#FB8604;stroke-width:2.75;stroke-linecap:round;stroke-linejoin:round;stroke-dasharray:2.9957,4.9929;}
	.st55{fill:none;stroke:#FB8604;stroke-width:2.75;stroke-linecap:round;stroke-linejoin:round;stroke-dasharray:2.9861,4.9768;}
	.st56{fill:none;stroke:#FB8604;stroke-width:2.75;stroke-linecap:round;stroke-linejoin:round;stroke-dasharray:2.94,4.9001;}
	.st57{fill:none;stroke:#FB8604;stroke-width:2.75;stroke-linecap:round;stroke-linejoin:round;stroke-dasharray:1.946,3.2433;}
	.st58{fill:none;stroke:#FB8604;stroke-width:2.75;stroke-linecap:round;stroke-linejoin:round;stroke-dasharray:3.4744,5.7906;}
	.st59{fill:none;stroke:#FB8604;stroke-width:2.75;stroke-linecap:round;stroke-linejoin:round;stroke-dasharray:2.8107,4.6845;}
	.st60{fill:none;stroke:#FB8604;stroke-width:2.75;stroke-linecap:round;stroke-linejoin:round;stroke-dasharray:3.7918,6.3197;}
	.st61{fill:none;stroke:#FB8604;stroke-width:2.75;stroke-linecap:round;stroke-linejoin:round;stroke-dasharray:2.9918,4.9863;}
	.st62{fill:none;stroke:#FB8604;stroke-width:2.75;stroke-linecap:round;stroke-linejoin:round;stroke-dasharray:2.6402,4.4004;}
	.st63{fill:none;stroke:#FB8604;stroke-width:2.75;stroke-linecap:round;stroke-linejoin:round;stroke-dasharray:3.063,5.105;}
	.st64{fill:none;stroke:#FB8604;stroke-width:2.75;stroke-linecap:round;stroke-linejoin:round;stroke-dasharray:3.0034,5.0056;}
	.st65{fill:none;stroke:#FB8604;stroke-width:2.75;stroke-linecap:round;stroke-linejoin:round;stroke-dasharray:2.9897,4.9829;}
	.st66{fill:none;stroke:#FB8604;stroke-width:2.75;stroke-linecap:round;stroke-linejoin:round;stroke-dasharray:3.1341,5.2235;}
	.st67{fill:none;stroke:#FB8604;stroke-width:2.75;stroke-linecap:round;stroke-linejoin:round;stroke-dasharray:2.6416,4.4026;}
	.st68{fill:none;stroke:#FB8604;stroke-width:2.75;stroke-linecap:round;stroke-linejoin:round;stroke-dasharray:3.0066,5.0111;}
	.st69{fill:none;stroke:#FB8604;stroke-width:2.75;stroke-linecap:round;stroke-linejoin:round;stroke-dasharray:2.826,4.7099;}
	.st70{fill:none;stroke:#FB8604;stroke-width:2.75;stroke-linecap:round;stroke-linejoin:round;stroke-dasharray:2.9155,4.8592;}
	.st71{fill:none;stroke:#FB8604;stroke-width:2.75;stroke-linecap:round;stroke-linejoin:round;stroke-dasharray:3.2144,5.3574;}
	.st72{fill:none;stroke:#FB8604;stroke-width:2.75;stroke-linecap:round;stroke-linejoin:round;stroke-dasharray:3.0025,5.0042;}
	.st73{fill:none;stroke:#FB8604;stroke-width:2.75;stroke-linecap:round;stroke-linejoin:round;stroke-dasharray:2.9685,4.9476;}
	.st74{fill:none;stroke:#FB8604;stroke-width:2.75;stroke-linecap:round;stroke-linejoin:round;stroke-dasharray:2.906,4.8434;}
	.st75{fill:none;stroke:#FB8604;stroke-width:2.75;stroke-linecap:round;stroke-linejoin:round;stroke-dasharray:2.4382,4.0637;}
	.st76{fill:none;stroke:#FB8604;stroke-width:2.75;stroke-linecap:round;stroke-linejoin:round;stroke-dasharray:2.6323,4.3872;}
	.st77{fill:none;stroke:#FB8604;stroke-width:2.75;stroke-linecap:round;stroke-linejoin:round;stroke-dasharray:2.7796,4.6326;}
	.st78{fill:none;stroke:#FB8604;stroke-width:2.75;stroke-linecap:round;stroke-linejoin:round;stroke-dasharray:2.8653,4.7755;}
	.st79{fill:none;stroke:#FB8604;stroke-width:2.75;stroke-linecap:round;stroke-linejoin:round;stroke-dasharray:2.9565,4.9275;}
	.st80{fill:none;stroke:#FB8604;stroke-width:2.75;stroke-linecap:round;stroke-linejoin:round;stroke-dasharray:3.2131,5.3552;}
	.st81{fill:none;stroke:#FB8604;stroke-width:2.75;stroke-linecap:round;stroke-linejoin:round;stroke-dasharray:2.9914,4.9857;}
	.st82{fill:none;stroke:#FB8604;stroke-width:2.75;stroke-linecap:round;stroke-linejoin:round;stroke-dasharray:2.9334,4.889;}
	.st83{fill:none;stroke:#FB8604;stroke-width:2.75;stroke-linecap:round;stroke-linejoin:round;stroke-dasharray:3.0354,5.059;}
	.st84{fill:none;stroke:#FB8604;stroke-width:2.75;stroke-linecap:round;stroke-linejoin:round;stroke-dasharray:2.9752,4.9587;}
	.st85{fill:none;stroke:#FB8604;stroke-width:2.75;stroke-linecap:round;stroke-linejoin:round;stroke-dasharray:2.5079,4.1799;}
	.st86{fill:none;stroke:#FB8604;stroke-width:2.75;stroke-linecap:round;stroke-linejoin:round;stroke-dasharray:2.7005,4.5008;}
	.st87{fill:none;stroke:#FB8604;stroke-width:2.75;stroke-linecap:round;stroke-linejoin:round;stroke-dasharray:2.846,4.7433;}
	.st88{fill:none;stroke:#FB8604;stroke-width:2.75;stroke-linecap:round;stroke-linejoin:round;stroke-dasharray:2.9386,4.8977;}
	.st89{fill:none;stroke:#FB8604;stroke-width:2.75;stroke-linecap:round;stroke-linejoin:round;stroke-dasharray:3.0268,5.0447;}
	.st90{fill:none;stroke:#FB8604;stroke-width:2.75;stroke-linecap:round;stroke-linejoin:round;stroke-dasharray:3.2943,5.4904;}
	.st91{fill:none;stroke:#FB8604;stroke-width:2.75;stroke-linecap:round;stroke-linejoin:round;stroke-dasharray:3.0595,5.0992;}
	.st92{fill:none;stroke:#FB8604;stroke-width:2.75;stroke-linecap:round;stroke-linejoin:round;stroke-dasharray:3.0002,5.0004;}
	.st93{fill:none;stroke:#FB8604;stroke-width:2.75;stroke-linecap:round;stroke-linejoin:round;stroke-dasharray:2.9926,4.9877;}
	.st94{fill:none;stroke:#FB8604;stroke-width:2.75;stroke-linecap:round;stroke-linejoin:round;stroke-dasharray:3.0693,5.1155;}
	.st95{fill:none;stroke:#FB8604;stroke-width:2.75;stroke-linecap:round;stroke-linejoin:round;stroke-dasharray:2.8084,4.6807;}
	.st96{fill:none;stroke:#FB8604;stroke-width:2.75;stroke-linecap:round;stroke-linejoin:round;stroke-dasharray:2.9754,4.9591;}
	.st97{fill:none;stroke:#FB8604;stroke-width:2.75;stroke-linecap:round;stroke-linejoin:round;stroke-dasharray:3.0581,5.0968;}
	.st98{fill:none;stroke:#FB8604;stroke-width:2.75;stroke-linecap:round;stroke-linejoin:round;stroke-dasharray:3.0998,5.1664;}
	.st99{fill:none;stroke:#FB8604;stroke-width:2.75;stroke-linecap:round;stroke-linejoin:round;stroke-dasharray:3.3917,5.6528;}
	.st100{fill:none;stroke:#FB8604;stroke-width:2.75;stroke-linecap:round;stroke-linejoin:round;stroke-dasharray:2.885,4.8083;}
	.st101{fill:none;stroke:#FB8604;stroke-width:2.75;stroke-linecap:round;stroke-linejoin:round;stroke-dasharray:3.0826,5.1377;}
	.st102{fill:none;stroke:#FB8604;stroke-width:2.75;stroke-linecap:round;stroke-linejoin:round;stroke-dasharray:2.9456,4.9094;}
	.st103{fill:none;stroke:#FB8604;stroke-width:2.75;stroke-linecap:round;stroke-linejoin:round;stroke-dasharray:3.1795,5.2992;}
	.st104{fill:none;stroke:#FB8604;stroke-width:2.75;stroke-linecap:round;stroke-linejoin:round;stroke-dasharray:1.5749,2.6249;}
	.st105{fill:none;stroke:#FB8604;stroke-width:2.75;stroke-linecap:round;stroke-linejoin:round;stroke-dasharray:2.8877,4.8129;}
	.st106{fill:none;stroke:#FB8604;stroke-width:2.75;stroke-linecap:round;stroke-linejoin:round;stroke-dasharray:3.0379,5.0632;}
	.st107{fill:none;stroke:#FB8604;stroke-width:2.75;stroke-linecap:round;stroke-linejoin:round;stroke-dasharray:3.1609,5.2681;}
	.st108{fill:none;stroke:#FB8604;stroke-width:2.75;stroke-linecap:round;stroke-linejoin:round;stroke-dasharray:3.2367,5.3946;}
	.st109{fill:none;stroke:#FB8604;stroke-width:2.75;stroke-linecap:round;stroke-linejoin:round;stroke-dasharray:3.5678,5.9464;}
	.st110{fill:none;stroke:#FB8604;stroke-width:2.75;stroke-linecap:round;stroke-linejoin:round;stroke-dasharray:3.0714,5.1191;}
	.st111{fill:none;stroke:#FB8604;stroke-width:2.75;stroke-linecap:round;stroke-linejoin:round;stroke-dasharray:3.0114,5.019;}
	.st112{fill:none;stroke:#FB8604;stroke-width:2.75;stroke-linecap:round;stroke-linejoin:round;stroke-miterlimit:10;}
	.st113{fill:none;stroke:#FB8604;stroke-width:3.5;stroke-linecap:round;stroke-linejoin:round;stroke-miterlimit:10;}
</style>
<metadata>
	<sfw  xmlns="&ns_sfw;">
		<slices></slices>
		<sliceSourceBounds  bottomLeftOrigin="true" height="5298.44" width="3985" x="-2000" y="3686"></sliceSourceBounds>
	</sfw>
</metadata>
<g id="FILL-BACKGROUND">
	<rect class="st0" width="750" height="750"/>
</g>
<g id="N-DIMENSIONS">
</g>
<g id="N-TEXT">
</g>
<g id="_x32_D_x24_AG-DIAGRAM">
</g>
<g id="_x32_D_x24_AG-DETAILS-DIAGRAM">
</g>
<g id="_x32_D_x24_AG-DETAILS">
</g>
<g id="_x32_D_x24_AG-ANIMALS">
	<g id="POLYLINE_00000049209852271511733270000013039255094226727060_">
		<path class="st112" d="M449.93,459.71c-24.09,3.02-49.38,4.35-73.66,4.72c-29.42,0.38-59.65-0.52-88.87-3.75
			c-11.88-1.31-24.67-3.2-36.4-5.45c-13.84-2.64-35.26-7.55-49-8.79c-6.19-0.59-12.52-0.59-18.69,0.27
			c-9.4,1.25-19.88,4.53-29.11,6.75c-14.28,3.42-29.09,5.93-43.75,6.89c-7.99,0.5-16.15,0.51-24.11-0.43
			c-4.17-0.5-8.4-1.21-12.44-2.4c-1.32-0.4-2.65-0.86-3.9-1.45c-0.69-0.33-1.37-0.71-1.95-1.2c-0.51-0.42-0.98-1-0.96-1.69
			c0.04-0.77,0.55-1.42,1.05-1.97c1.71-1.78,3.91-3.19,5.94-4.58c5.1-3.33,12.43-7.98,17.28-11.54c3.1-2.25,6.25-4.83,9.15-7.34
			l11.58-10.29c4.01-3.42,8.2-6.88,13.03-9.06c2.41-1.1,5.26-1.85,7.76-2.73c0.58-0.22,1.16-0.46,1.69-0.78
			c0.52-0.32,1.02-0.81,1.09-1.45c0.08-0.65-0.15-1.3-0.36-1.9c-0.89-2.23-2.07-4.45-2.06-6.92c0-2.31,0.78-4.54,1.61-6.67
			c1.71-4.31,4.32-9.12,5.09-13.72c0.36-2.04,0.26-4.14,0-6.18c-0.17-1.55-0.7-3.96-0.55-5.5c0.04-0.29,0.1-0.59,0.25-0.85
			l0.01-0.02l0.01-0.02l0.01-0.02l0.01-0.02l0.01-0.02l0.01-0.02l0.01-0.02l0.02-0.02l0.02-0.02l0.02-0.02l0.02-0.02l0.02-0.02
			l0.02-0.02l0.02-0.02l0.02-0.02l0.02-0.02l0.02-0.02l0.02-0.02l0.02-0.02l0.02-0.02l0.02-0.02l0.02-0.01l0.02-0.01l0.02-0.01
			l0.02-0.01l0.02-0.01l0.02-0.01l0.04-0.02l0.04-0.02l0.04-0.02l0.04-0.02l0.05-0.02l0.05-0.02l0.05-0.01l0.05-0.01l0.05-0.01
			l0.05-0.01l0.05-0.01l0.05-0.01l0.06-0.01l0.06-0.01l0.06-0.01l0.06,0l0.06,0l0.06,0l0.06,0c0.84,0,1.66,0.23,2.45,0.49
			c1.79,0.61,3.51,1.48,5.16,2.38c4.41,2.45,8.66,5.41,12.67,8.48c4.22,3.26,8.38,6.83,12.09,10.67c3.14,3.24,6.11,6.85,8.84,10.44
			c2.11,2.77,5.68,7.8,8.03,10.31c1.28,1.4,2.73,2.68,4.32,3.72c2.21,1.5,5.2,2.77,7.62,3.9"/>
	</g>
	<g id="POLYLINE_00000130637911664702104670000014465867469710189983_">
		<path class="st112" d="M161.4,409.52c9.4,1.3,19.65,2.81,29.07,2.63c12.4-0.14,24.82-2.48,36.87-5.23
			c15.63-3.63,31.78-8.56,46.87-14.02c11.02-4.04,22.16-8.6,32.63-13.93c15.5-7.71,31.6-19.72,46.62-28.33
			c12.82-7.31,26.7-12.98,40.63-17.78c36.22-12.26,74.47-19.65,112.74-20.5c8.98-0.15,18.46,0.01,27.4,0.93
			c6.65,0.59,16.05,2.47,22.58,3.59c3.42,0.58,7.14,1.06,10.6,1.32c5.92,0.43,17.61,0.71,23.34,0.93
			c6.46,0.32,13.11,0.87,19.46,2.17c5.23,1.07,10.45,2.76,15.46,4.61c8.37,3.13,18.3,7.5,27.11,8.89
			c4.68,0.87,10.47,1.42,14.84,3.29c2.06,0.88,3.81,2.2,5.23,3.93c2.6,3.12,4.18,7.29,6.13,10.82c0.99,1.75,2.34,3.94,3.04,5.81
			c0.48,1.25,0.8,2.58,0.91,3.92c0.24,2.9-0.27,5.83-1.01,8.63c-1.07,3.97-2.72,7.81-4.8,11.36c-1.72,2.92-3.76,5.69-6.16,8.08
			c-2.43,2.42-5.24,4.47-8.28,6.05c-3.48,1.79-7.33,3.09-11.27,3.12c-1.54,0-3.1-0.26-4.53-0.86c-1.44-0.6-2.72-1.54-3.85-2.6
			c-1.26-1.19-2.44-2.56-3.55-3.88c-1.54-1.87-3.05-3.86-4.39-5.87c-0.38-0.57-0.83-1.29-1.19-1.87c-0.2-0.3-0.43-0.6-0.69-0.85
			c-0.29-0.28-0.64-0.5-1.03-0.6c-0.51-0.14-1.06-0.08-1.57,0.05c-0.92,0.24-1.78,0.67-2.6,1.13c-4.1,2.45-7.62,5.93-10.6,9.64
			c-2.51,3.17-5.4,7.27-8.49,9.85c-3.88,3.29-8.71,5.21-13.43,6.95c-3.48,1.21-10.02,3.42-13.36,4.76
			c-3.41,1.33-7.31,3.05-10.64,4.59l-25.16,12.13c-7.73,3.6-16.38,7.36-24.34,10.37"/>
	</g>
	<g id="POLYLINE_00000097477742851992392090000000929354306780945588_">
		<path class="st112" d="M488.95,478.54c0.9,0.73,1.77,1.65,2.78,2.24c0.81,0.5,1.73,0.81,2.66,0.99c2.17,0.4,4.41,0.33,6.59,0.14
			c3.73-0.35,7.46-1.17,11.05-2.25c3.8-1.16,7.54-2.68,11.05-4.56c3.61-1.93,7.04-4.26,10.24-6.8c4.17-3.3,8.13-7.06,11.8-10.91
			c5.64-5.67,29.34-34.4,34.97-40.93"/>
	</g>
	<g id="POLYLINE_00000134969250431848409180000008321478112388158862_">
		<path class="st112" d="M614.35,398.04c1.82,1.55,3.74,3.07,5.85,4.2c1.61,0.88,3.35,1.53,5.14,1.96c2.11,0.5,4.31,0.69,6.47,0.74
			c2.58,0.04,5.22-0.13,7.77-0.59c1.22-0.22,2.44-0.52,3.6-0.95c0.77-0.29,1.53-0.67,2.17-1.2c0.88-0.7,1.47-1.81,2.04-2.76
			c0.04-0.06,0.12-0.19,0.16-0.25"/>
	</g>
	<g id="POLYLINE_00000163042970816187131140000016166246898910811031_">
		<path class="st112" d="M539.38,372.25c-4.48,1.73-8.97,3.72-12.75,6.72c-3.63,2.94-7.35,6.62-11.14,9.34
			c-10.55,7.62-26.06,16.19-36.99,23.37c-11.29,7.43-23.1,16.17-27.81,29.37c-0.9,2.48-1.58,5.08-1.78,7.72
			c-0.12,1.52,0.01,3.07,0.34,4.56c0.4,1.78,0.95,3.72,0.77,5.56c-0.33,3.48-1.74,7.11-0.73,10.6c0.52,1.83,1.65,3.43,2.96,4.78
			c2.32,2.36,5.22,4.11,8.24,5.43c3.79,1.64,7.89,2.59,12.02,2.72c4.66,0.15,9.35-0.72,13.64-2.54c3.94-1.64,7.51-4.13,10.59-7.07
			c5.46-5.13,11.58-13.84,16.25-19.77c3.49-4.45,7.34-8.77,11.4-12.71c6.36-6.36,17.4-15.35,24.4-21.23
			c5.66-4.86,11.84-9.88,16.09-16.05c1.15-1.71,2.09-3.57,2.69-5.54c0.74-2.36,1.02-4.85,1.19-7.31"/>
	</g>
</g>
<g id="_x32_D_x24_AG-OUTLINE">
	<g id="POLYLINE_00000075125558669051245560000016491824963287307683_">
		<path class="st113" d="M202.25,411.41c-2.44-1.13-5.42-2.41-7.62-3.9c-1.59-1.05-3.04-2.32-4.32-3.72
			c-2.32-2.49-5.92-7.54-8.03-10.31c-2.73-3.6-5.69-7.21-8.84-10.44c-3.71-3.83-7.87-7.41-12.09-10.67
			c-4.01-3.07-8.26-6.03-12.67-8.48c-1.65-0.9-3.38-1.78-5.16-2.38c-0.79-0.26-1.61-0.49-2.45-0.49l-0.06,0l-0.06,0l-0.06,0l-0.06,0
			l-0.06,0.01l-0.06,0.01l-0.06,0.01l-0.05,0.01l-0.05,0.01l-0.05,0.01l-0.05,0.01l-0.05,0.01l-0.05,0.01l-0.05,0.02l-0.05,0.02
			l-0.04,0.02l-0.04,0.02l-0.04,0.02l-0.04,0.02l-0.02,0.01l-0.02,0.01l-0.02,0.01l-0.02,0.01L140,361.3l-0.02,0.01l-0.02,0.02
			l-0.02,0.02l-0.02,0.02l-0.02,0.02l-0.02,0.02l-0.02,0.02l-0.02,0.02l-0.02,0.02l-0.02,0.02l-0.02,0.02l-0.02,0.02l-0.02,0.02
			l-0.02,0.02l-0.02,0.02l-0.01,0.02l-0.01,0.02l-0.01,0.02l-0.01,0.02l-0.01,0.02l-0.01,0.02l-0.01,0.02
			c-0.16,0.28-0.22,0.6-0.26,0.91c-0.12,1.5,0.39,3.92,0.56,5.43c0.25,1.99,0.35,4.02,0.03,6c-0.68,4.4-3.15,9.12-4.84,13.22
			c-0.91,2.25-1.8,4.6-1.88,7.05c-0.09,2.3,0.9,4.51,1.8,6.58c0.31,0.78,0.69,1.64,0.62,2.49c-0.06,0.67-0.56,1.16-1.1,1.49
			c-0.53,0.33-1.11,0.57-1.69,0.78c-2.5,0.88-5.35,1.63-7.76,2.73c-4.83,2.19-9.02,5.64-13.03,9.06l-11.58,10.29
			c-2.9,2.52-6.04,5.09-9.15,7.34c-4.83,3.54-12.21,8.22-17.28,11.54c-1.5,1.03-3.21,2.16-4.6,3.34c-0.59,0.5-1.2,1.04-1.68,1.64
			c-0.35,0.44-0.67,0.95-0.71,1.52c-0.05,0.85,0.62,1.5,1.25,1.97c1.66,1.17,3.64,1.82,5.56,2.42c4.03,1.19,8.27,1.9,12.44,2.4
			c7.96,0.94,16.12,0.92,24.11,0.43c14.66-0.96,29.47-3.46,43.75-6.89c9.23-2.22,19.7-5.5,29.11-6.75
			c6.16-0.86,12.5-0.86,18.69-0.27c13.72,1.22,35.33,6.19,49,8.79c11.71,2.25,24.53,4.14,36.4,5.45
			c29.21,3.23,59.48,4.13,88.87,3.75c24.26-0.37,49.57-1.7,73.66-4.72c-0.31,2.25-1.02,4.77-1,7.05c-0.01,1.49,0.3,3,0.99,4.33
			c0.82,1.6,2.03,2.98,3.37,4.17c2.13,1.87,4.61,3.31,7.2,4.44c4.17,1.81,8.72,2.77,13.26,2.74c5.28-0.03,10.55-1.38,15.19-3.89
			c0.9,0.73,1.77,1.65,2.78,2.24c0.81,0.5,1.73,0.81,2.66,0.99c2.17,0.4,4.41,0.33,6.59,0.14c3.73-0.35,7.46-1.17,11.05-2.25
			c3.8-1.16,7.54-2.68,11.05-4.56c3.61-1.93,7.04-4.26,10.24-6.8c4.17-3.3,8.13-7.06,11.8-10.91c5.64-5.67,29.34-34.4,34.97-40.93
			c4.25-1.78,11-4.05,15.42-5.58c4.38-1.61,8.84-3.38,12.57-6.25c2.4-1.86,4.41-4.21,6.27-6.59c1.82,1.55,3.74,3.07,5.85,4.2
			c1.61,0.88,3.35,1.53,5.14,1.96c2.11,0.5,4.31,0.69,6.47,0.74c2.58,0.04,5.22-0.13,7.77-0.59c1.22-0.22,2.44-0.52,3.6-0.95
			c0.77-0.29,1.53-0.67,2.17-1.2c0.88-0.7,1.47-1.81,2.04-2.76c0.04-0.06,0.12-0.19,0.16-0.25c1.63,0.57,3.39,0.7,5.11,0.57
			c2.72-0.21,5.38-0.98,7.88-2.05c4.02-1.73,7.69-4.27,10.76-7.39c3.8-3.91,6.69-8.67,8.78-13.69c1.17-2.84,2.1-5.82,2.6-8.86
			c0.34-2.11,0.48-4.3,0.11-6.41c-0.48-3.04-2.3-5.88-3.79-8.51c-1.95-3.53-3.53-7.7-6.13-10.82c-1.42-1.73-3.17-3.05-5.23-3.93
			c-4.36-1.87-10.19-2.42-14.84-3.29c-2.69-0.48-5.47-1.11-8.08-1.9c-4.96-1.45-14.09-5.13-19.02-6.99
			c-5.01-1.85-10.23-3.54-15.46-4.61c-6.34-1.3-13-1.85-19.46-2.17c-6.54-0.26-19.36-0.5-25.55-1.12
			c-5.09-0.39-15.83-2.48-21.06-3.38c-10.68-1.83-21.78-2.34-32.61-2.32c-33.21,0.19-66.56,5.59-98.49,14.63
			c-23.06,6.64-46.02,15.01-66.44,27.78c-8.29,5.16-21.62,14.15-30.03,18.96c-6.48,3.76-13.43,7.27-20.28,10.33
			c-15.73,7.01-32.58,12.87-49.12,17.72C232.54,405.9,217.38,409.66,202.25,411.41z"/>
	</g>
</g>
</svg>
