<?xml version="1.0" encoding="utf-8"?>
<!-- Generator: Adobe Illustrator 26.3.1, SVG Export Plug-In . SVG Version: 6.00 Build 0)  -->
<!DOCTYPE svg PUBLIC "-//W3C//DTD SVG 1.1//EN" "http://www.w3.org/Graphics/SVG/1.1/DTD/svg11.dtd" [
	<!ENTITY ns_extend "http://ns.adobe.com/Extensibility/1.0/">
	<!ENTITY ns_ai "http://ns.adobe.com/AdobeIllustrator/10.0/">
	<!ENTITY ns_graphs "http://ns.adobe.com/Graphs/1.0/">
	<!ENTITY ns_vars "http://ns.adobe.com/Variables/1.0/">
	<!ENTITY ns_imrep "http://ns.adobe.com/ImageReplacement/1.0/">
	<!ENTITY ns_sfw "http://ns.adobe.com/SaveForWeb/1.0/">
	<!ENTITY ns_custom "http://ns.adobe.com/GenericCustomNamespace/1.0/">
	<!ENTITY ns_adobe_xpath "http://ns.adobe.com/XPath/1.0/">
]>
<svg version="1.1" xmlns:x="&ns_extend;" xmlns:i="&ns_ai;" xmlns:graph="&ns_graphs;"
	 xmlns="http://www.w3.org/2000/svg" xmlns:xlink="http://www.w3.org/1999/xlink" x="0px" y="0px" width="750px" height="750px"
	 viewBox="0 0 750 750" style="enable-background:new 0 0 750 750;" xml:space="preserve">
<style type="text/css">
	.st0{fill:#FFFFFF;}
	.st1{fill:#FB8604;}
	.st2{fill:none;stroke:#FB8604;stroke-width:2;stroke-linecap:round;stroke-linejoin:round;stroke-miterlimit:10;}
	.st3{fill:none;stroke:#FB8604;stroke-width:2.5;stroke-linecap:round;stroke-linejoin:round;}
	.st4{fill:none;stroke:#FB8604;stroke-width:2.5;stroke-linecap:round;stroke-linejoin:round;stroke-dasharray:3.0898,5.1496;}
	.st5{fill:none;stroke:#FB8604;stroke-width:2.5;stroke-linecap:round;stroke-linejoin:round;stroke-dasharray:3.091,5.1517;}
	.st6{fill:none;stroke:#FB8604;stroke-width:2.5;stroke-linecap:round;stroke-linejoin:round;stroke-dasharray:2.9032,4.8387;}
	.st7{fill:none;stroke:#FB8604;stroke-width:2.5;stroke-linecap:round;stroke-linejoin:round;stroke-dasharray:2.9223,4.8705;}
	.st8{fill:none;stroke:#FB8604;stroke-width:2.5;stroke-linecap:round;stroke-linejoin:round;stroke-dasharray:2.9172,4.8621;}
	.st9{fill:none;stroke:#FB8604;stroke-width:2.75;stroke-linecap:round;stroke-linejoin:round;}
	.st10{fill:none;stroke:#FB8604;stroke-width:2.75;stroke-linecap:round;stroke-linejoin:round;stroke-dasharray:2.8443,4.7406;}
	.st11{fill:none;stroke:#FB8604;stroke-width:2.75;stroke-linecap:round;stroke-linejoin:round;stroke-dasharray:3.0851,5.1418;}
	.st12{fill:none;stroke:#FB8604;stroke-width:2.75;stroke-linecap:round;stroke-linejoin:round;stroke-dasharray:2.8462,4.7437;}
	.st13{fill:none;stroke:#FB8604;stroke-width:2.75;stroke-linecap:round;stroke-linejoin:round;stroke-dasharray:1.5856,2.6427;}
	.st14{fill:none;stroke:#FB8604;stroke-width:2.75;stroke-linecap:round;stroke-linejoin:round;stroke-dasharray:3.2273,5.3788;}
	.st15{fill:none;stroke:#FB8604;stroke-width:2.75;stroke-linecap:round;stroke-linejoin:round;stroke-dasharray:3.0035,5.0058;}
	.st16{fill:none;stroke:#FB8604;stroke-width:2.75;stroke-linecap:round;stroke-linejoin:round;stroke-dasharray:3.4878,5.813;}
	.st17{fill:none;stroke:#FB8604;stroke-width:2.75;stroke-linecap:round;stroke-linejoin:round;stroke-dasharray:2.9567,4.9278;}
	.st18{fill:none;stroke:#FB8604;stroke-width:2.75;stroke-linecap:round;stroke-linejoin:round;stroke-dasharray:3.5697,5.9495;}
	.st19{fill:none;stroke:#FB8604;stroke-width:2.75;stroke-linecap:round;stroke-linejoin:round;stroke-dasharray:3.0085,5.0141;}
	.st20{fill:none;stroke:#FB8604;stroke-width:2.75;stroke-linecap:round;stroke-linejoin:round;stroke-dasharray:3.3308,5.5514;}
	.st21{fill:none;stroke:#FB8604;stroke-width:2.75;stroke-linecap:round;stroke-linejoin:round;stroke-dasharray:2.8418,4.7364;}
	.st22{fill:none;stroke:#FB8604;stroke-width:2.75;stroke-linecap:round;stroke-linejoin:round;stroke-dasharray:2.5782,4.297;}
	.st23{fill:none;stroke:#FB8604;stroke-width:2.75;stroke-linecap:round;stroke-linejoin:round;stroke-dasharray:2.9307,4.8846;}
	.st24{fill:none;stroke:#FB8604;stroke-width:2.75;stroke-linecap:round;stroke-linejoin:round;stroke-dasharray:2.9898,4.983;}
	.st25{fill:none;stroke:#FB8604;stroke-width:2.75;stroke-linecap:round;stroke-linejoin:round;stroke-dasharray:2.989,4.9817;}
	.st26{fill:none;stroke:#FB8604;stroke-width:2.75;stroke-linecap:round;stroke-linejoin:round;stroke-dasharray:2.989,4.9816;}
	.st27{fill:none;stroke:#FB8604;stroke-width:2.75;stroke-linecap:round;stroke-linejoin:round;stroke-dasharray:3.0935,5.1559;}
	.st28{fill:none;stroke:#FB8604;stroke-width:2.75;stroke-linecap:round;stroke-linejoin:round;stroke-dasharray:2.9272,4.8787;}
	.st29{fill:none;stroke:#FB8604;stroke-width:2.75;stroke-linecap:round;stroke-linejoin:round;stroke-dasharray:2.9409,4.9016;}
	.st30{fill:none;stroke:#FB8604;stroke-width:2.75;stroke-linecap:round;stroke-linejoin:round;stroke-dasharray:2.9402,4.9004;}
	.st31{fill:none;stroke:#FB8604;stroke-width:2.75;stroke-linecap:round;stroke-linejoin:round;stroke-dasharray:3.0501,5.0834;}
	.st32{fill:none;stroke:#FB8604;stroke-width:2.75;stroke-linecap:round;stroke-linejoin:round;stroke-dasharray:2.5118,4.1864;}
	.st33{fill:none;stroke:#FB8604;stroke-width:2.75;stroke-linecap:round;stroke-linejoin:round;stroke-dasharray:2.6699,4.4498;}
	.st34{fill:none;stroke:#FB8604;stroke-width:2.75;stroke-linecap:round;stroke-linejoin:round;stroke-dasharray:2.8329,4.7215;}
	.st35{fill:none;stroke:#FB8604;stroke-width:2.75;stroke-linecap:round;stroke-linejoin:round;stroke-dasharray:3.0978,5.1629;}
	.st36{fill:none;stroke:#FB8604;stroke-width:2.75;stroke-linecap:round;stroke-linejoin:round;stroke-dasharray:2.9658,4.943;}
	.st37{fill:none;stroke:#FB8604;stroke-width:2.75;stroke-linecap:round;stroke-linejoin:round;stroke-dasharray:2.0811,3.4684;}
	.st38{fill:none;stroke:#FB8604;stroke-width:2.75;stroke-linecap:round;stroke-linejoin:round;stroke-dasharray:2.9977,4.9961;}
	.st39{fill:none;stroke:#FB8604;stroke-width:2.75;stroke-linecap:round;stroke-linejoin:round;stroke-dasharray:2.8943,4.8239;}
	.st40{fill:none;stroke:#FB8604;stroke-width:2.75;stroke-linecap:round;stroke-linejoin:round;stroke-dasharray:2.9823,4.9705;}
	.st41{fill:none;stroke:#FB8604;stroke-width:2.75;stroke-linecap:round;stroke-linejoin:round;stroke-dasharray:3.2956,5.4926;}
	.st42{fill:none;stroke:#FB8604;stroke-width:2.75;stroke-linecap:round;stroke-linejoin:round;stroke-dasharray:3.0098,5.0164;}
	.st43{fill:none;stroke:#FB8604;stroke-width:2.75;stroke-linecap:round;stroke-linejoin:round;stroke-dasharray:2.8071,4.6784;}
	.st44{fill:none;stroke:#FB8604;stroke-width:2.75;stroke-linecap:round;stroke-linejoin:round;stroke-dasharray:2.9443,4.9072;}
	.st45{fill:none;stroke:#FB8604;stroke-width:2.75;stroke-linecap:round;stroke-linejoin:round;stroke-dasharray:2.5961,4.3268;}
	.st46{fill:none;stroke:#FB8604;stroke-width:2.75;stroke-linecap:round;stroke-linejoin:round;stroke-dasharray:2.453,4.0883;}
	.st47{fill:none;stroke:#FB8604;stroke-width:2.75;stroke-linecap:round;stroke-linejoin:round;stroke-dasharray:2.9218,4.8697;}
	.st48{fill:none;stroke:#FB8604;stroke-width:2.75;stroke-linecap:round;stroke-linejoin:round;stroke-dasharray:3.0032,5.0054;}
	.st49{fill:none;stroke:#FB8604;stroke-width:2.75;stroke-linecap:round;stroke-linejoin:round;stroke-dasharray:2.7545,4.5909;}
	.st50{fill:none;stroke:#FB8604;stroke-width:2.75;stroke-linecap:round;stroke-linejoin:round;stroke-dasharray:2.9316,4.886;}
	.st51{fill:none;stroke:#FB8604;stroke-width:2.75;stroke-linecap:round;stroke-linejoin:round;stroke-dasharray:3.4253,5.7088;}
	.st52{fill:none;stroke:#FB8604;stroke-width:2.75;stroke-linecap:round;stroke-linejoin:round;stroke-dasharray:1.9584,3.264;}
	.st53{fill:none;stroke:#FB8604;stroke-width:2.75;stroke-linecap:round;stroke-linejoin:round;stroke-dasharray:2.3949,3.9915;}
	.st54{fill:none;stroke:#FB8604;stroke-width:2.75;stroke-linecap:round;stroke-linejoin:round;stroke-dasharray:2.9957,4.9929;}
	.st55{fill:none;stroke:#FB8604;stroke-width:2.75;stroke-linecap:round;stroke-linejoin:round;stroke-dasharray:2.9861,4.9768;}
	.st56{fill:none;stroke:#FB8604;stroke-width:2.75;stroke-linecap:round;stroke-linejoin:round;stroke-dasharray:2.94,4.9001;}
	.st57{fill:none;stroke:#FB8604;stroke-width:2.75;stroke-linecap:round;stroke-linejoin:round;stroke-dasharray:1.946,3.2433;}
	.st58{fill:none;stroke:#FB8604;stroke-width:2.75;stroke-linecap:round;stroke-linejoin:round;stroke-dasharray:3.4744,5.7906;}
	.st59{fill:none;stroke:#FB8604;stroke-width:2.75;stroke-linecap:round;stroke-linejoin:round;stroke-dasharray:2.8107,4.6845;}
	.st60{fill:none;stroke:#FB8604;stroke-width:2.75;stroke-linecap:round;stroke-linejoin:round;stroke-dasharray:3.7918,6.3197;}
	.st61{fill:none;stroke:#FB8604;stroke-width:2.75;stroke-linecap:round;stroke-linejoin:round;stroke-dasharray:2.9918,4.9863;}
	.st62{fill:none;stroke:#FB8604;stroke-width:2.75;stroke-linecap:round;stroke-linejoin:round;stroke-dasharray:2.6402,4.4004;}
	.st63{fill:none;stroke:#FB8604;stroke-width:2.75;stroke-linecap:round;stroke-linejoin:round;stroke-dasharray:3.063,5.105;}
	.st64{fill:none;stroke:#FB8604;stroke-width:2.75;stroke-linecap:round;stroke-linejoin:round;stroke-dasharray:3.0034,5.0056;}
	.st65{fill:none;stroke:#FB8604;stroke-width:2.75;stroke-linecap:round;stroke-linejoin:round;stroke-dasharray:2.9897,4.9829;}
	.st66{fill:none;stroke:#FB8604;stroke-width:2.75;stroke-linecap:round;stroke-linejoin:round;stroke-dasharray:3.1341,5.2235;}
	.st67{fill:none;stroke:#FB8604;stroke-width:2.75;stroke-linecap:round;stroke-linejoin:round;stroke-dasharray:2.6416,4.4026;}
	.st68{fill:none;stroke:#FB8604;stroke-width:2.75;stroke-linecap:round;stroke-linejoin:round;stroke-dasharray:3.0066,5.0111;}
	.st69{fill:none;stroke:#FB8604;stroke-width:2.75;stroke-linecap:round;stroke-linejoin:round;stroke-dasharray:2.826,4.7099;}
	.st70{fill:none;stroke:#FB8604;stroke-width:2.75;stroke-linecap:round;stroke-linejoin:round;stroke-dasharray:2.9155,4.8592;}
	.st71{fill:none;stroke:#FB8604;stroke-width:2.75;stroke-linecap:round;stroke-linejoin:round;stroke-dasharray:3.2144,5.3574;}
	.st72{fill:none;stroke:#FB8604;stroke-width:2.75;stroke-linecap:round;stroke-linejoin:round;stroke-dasharray:3.0025,5.0042;}
	.st73{fill:none;stroke:#FB8604;stroke-width:2.75;stroke-linecap:round;stroke-linejoin:round;stroke-dasharray:2.9685,4.9476;}
	.st74{fill:none;stroke:#FB8604;stroke-width:2.75;stroke-linecap:round;stroke-linejoin:round;stroke-dasharray:2.906,4.8434;}
	.st75{fill:none;stroke:#FB8604;stroke-width:2.75;stroke-linecap:round;stroke-linejoin:round;stroke-dasharray:2.4382,4.0637;}
	.st76{fill:none;stroke:#FB8604;stroke-width:2.75;stroke-linecap:round;stroke-linejoin:round;stroke-dasharray:2.6323,4.3872;}
	.st77{fill:none;stroke:#FB8604;stroke-width:2.75;stroke-linecap:round;stroke-linejoin:round;stroke-dasharray:2.7796,4.6326;}
	.st78{fill:none;stroke:#FB8604;stroke-width:2.75;stroke-linecap:round;stroke-linejoin:round;stroke-dasharray:2.8653,4.7755;}
	.st79{fill:none;stroke:#FB8604;stroke-width:2.75;stroke-linecap:round;stroke-linejoin:round;stroke-dasharray:2.9565,4.9275;}
	.st80{fill:none;stroke:#FB8604;stroke-width:2.75;stroke-linecap:round;stroke-linejoin:round;stroke-dasharray:3.2131,5.3552;}
	.st81{fill:none;stroke:#FB8604;stroke-width:2.75;stroke-linecap:round;stroke-linejoin:round;stroke-dasharray:2.9914,4.9857;}
	.st82{fill:none;stroke:#FB8604;stroke-width:2.75;stroke-linecap:round;stroke-linejoin:round;stroke-dasharray:2.9334,4.889;}
	.st83{fill:none;stroke:#FB8604;stroke-width:2.75;stroke-linecap:round;stroke-linejoin:round;stroke-dasharray:3.0354,5.059;}
	.st84{fill:none;stroke:#FB8604;stroke-width:2.75;stroke-linecap:round;stroke-linejoin:round;stroke-dasharray:2.9752,4.9587;}
	.st85{fill:none;stroke:#FB8604;stroke-width:2.75;stroke-linecap:round;stroke-linejoin:round;stroke-dasharray:2.5079,4.1799;}
	.st86{fill:none;stroke:#FB8604;stroke-width:2.75;stroke-linecap:round;stroke-linejoin:round;stroke-dasharray:2.7005,4.5008;}
	.st87{fill:none;stroke:#FB8604;stroke-width:2.75;stroke-linecap:round;stroke-linejoin:round;stroke-dasharray:2.846,4.7433;}
	.st88{fill:none;stroke:#FB8604;stroke-width:2.75;stroke-linecap:round;stroke-linejoin:round;stroke-dasharray:2.9386,4.8977;}
	.st89{fill:none;stroke:#FB8604;stroke-width:2.75;stroke-linecap:round;stroke-linejoin:round;stroke-dasharray:3.0268,5.0447;}
	.st90{fill:none;stroke:#FB8604;stroke-width:2.75;stroke-linecap:round;stroke-linejoin:round;stroke-dasharray:3.2943,5.4904;}
	.st91{fill:none;stroke:#FB8604;stroke-width:2.75;stroke-linecap:round;stroke-linejoin:round;stroke-dasharray:3.0595,5.0992;}
	.st92{fill:none;stroke:#FB8604;stroke-width:2.75;stroke-linecap:round;stroke-linejoin:round;stroke-dasharray:3.0002,5.0004;}
	.st93{fill:none;stroke:#FB8604;stroke-width:2.75;stroke-linecap:round;stroke-linejoin:round;stroke-dasharray:2.9926,4.9877;}
	.st94{fill:none;stroke:#FB8604;stroke-width:2.75;stroke-linecap:round;stroke-linejoin:round;stroke-dasharray:3.0693,5.1155;}
	.st95{fill:none;stroke:#FB8604;stroke-width:2.75;stroke-linecap:round;stroke-linejoin:round;stroke-dasharray:2.8084,4.6807;}
	.st96{fill:none;stroke:#FB8604;stroke-width:2.75;stroke-linecap:round;stroke-linejoin:round;stroke-dasharray:2.9754,4.9591;}
	.st97{fill:none;stroke:#FB8604;stroke-width:2.75;stroke-linecap:round;stroke-linejoin:round;stroke-dasharray:3.0581,5.0968;}
	.st98{fill:none;stroke:#FB8604;stroke-width:2.75;stroke-linecap:round;stroke-linejoin:round;stroke-dasharray:3.0998,5.1664;}
	.st99{fill:none;stroke:#FB8604;stroke-width:2.75;stroke-linecap:round;stroke-linejoin:round;stroke-dasharray:3.3917,5.6528;}
	.st100{fill:none;stroke:#FB8604;stroke-width:2.75;stroke-linecap:round;stroke-linejoin:round;stroke-dasharray:2.885,4.8083;}
	.st101{fill:none;stroke:#FB8604;stroke-width:2.75;stroke-linecap:round;stroke-linejoin:round;stroke-dasharray:3.0826,5.1377;}
	.st102{fill:none;stroke:#FB8604;stroke-width:2.75;stroke-linecap:round;stroke-linejoin:round;stroke-dasharray:2.9456,4.9094;}
	.st103{fill:none;stroke:#FB8604;stroke-width:2.75;stroke-linecap:round;stroke-linejoin:round;stroke-dasharray:3.1795,5.2992;}
	.st104{fill:none;stroke:#FB8604;stroke-width:2.75;stroke-linecap:round;stroke-linejoin:round;stroke-dasharray:1.5749,2.6249;}
	.st105{fill:none;stroke:#FB8604;stroke-width:2.75;stroke-linecap:round;stroke-linejoin:round;stroke-dasharray:2.8877,4.8129;}
	.st106{fill:none;stroke:#FB8604;stroke-width:2.75;stroke-linecap:round;stroke-linejoin:round;stroke-dasharray:3.0379,5.0632;}
	.st107{fill:none;stroke:#FB8604;stroke-width:2.75;stroke-linecap:round;stroke-linejoin:round;stroke-dasharray:3.1609,5.2681;}
	.st108{fill:none;stroke:#FB8604;stroke-width:2.75;stroke-linecap:round;stroke-linejoin:round;stroke-dasharray:3.2367,5.3946;}
	.st109{fill:none;stroke:#FB8604;stroke-width:2.75;stroke-linecap:round;stroke-linejoin:round;stroke-dasharray:3.5678,5.9464;}
	.st110{fill:none;stroke:#FB8604;stroke-width:2.75;stroke-linecap:round;stroke-linejoin:round;stroke-dasharray:3.0714,5.1191;}
	.st111{fill:none;stroke:#FB8604;stroke-width:2.75;stroke-linecap:round;stroke-linejoin:round;stroke-dasharray:3.0114,5.019;}
	.st112{fill:none;stroke:#FB8604;stroke-width:2.75;stroke-linecap:round;stroke-linejoin:round;stroke-miterlimit:10;}
	.st113{fill:none;stroke:#FB8604;stroke-width:3.5;stroke-linecap:round;stroke-linejoin:round;stroke-miterlimit:10;}
</style>
<metadata>
	<sfw  xmlns="&ns_sfw;">
		<slices></slices>
		<sliceSourceBounds  bottomLeftOrigin="true" height="5298.44" width="3985" x="-2000" y="3686"></sliceSourceBounds>
	</sfw>
</metadata>
<g id="FILL-BACKGROUND">
	<rect class="st0" width="750" height="750"/>
</g>
<g id="N-DIMENSIONS">
</g>
<g id="N-TEXT">
</g>
<g id="_x32_D_x24_AG-DIAGRAM">
</g>
<g id="_x32_D_x24_AG-DETAILS-DIAGRAM">
</g>
<g id="_x32_D_x24_AG-DETAILS">
</g>
<g id="_x32_D_x24_AG-ANIMALS">
	<g id="POLYLINE_00000102535156174559701940000000750017250228436391_">
		<path class="st112" d="M142.88,434.73l4.16,20.03c1.26,6.67,2.43,13.61,2.59,20.39c0.07,3.43-0.05,6.94-0.75,10.31
			c-0.25,1.18-0.58,2.36-1.07,3.46c-0.33,0.75-0.75,1.47-1.28,2.1c-0.57,0.67-1.3,1.22-2.15,1.47c-0.88,0.27-1.84,0.19-2.7-0.11
			c-1.34-0.47-2.45-1.43-3.39-2.47c-0.6-0.66-1.16-1.4-1.68-2.12c-1.2-1.66-4.07-6.08-5.25-7.83c-7.28-10.72-14.5-16.87-26.66-21.52
			c-11.18-4.22-23.3-5.82-35.21-5.18c-7.05,0.36-14.07,1.79-20.82,3.85l-6.67,2.11c-0.93,0.27-1.91,0.59-2.88,0.66
			c-0.4,0.02-0.84,0-1.17-0.25c-0.21-0.16-0.34-0.39-0.42-0.63c-0.11-0.34-0.14-0.71-0.14-1.07c0.01-1.84,0.43-3.66,0.94-5.42
			c1.22-4.07,3.27-7.91,5.97-11.2c2.45-2.98,5.41-5.57,8.55-7.8c5.19-3.68,11-6.46,16.95-8.66c6.11-2.26,12.58-4.02,18.94-5.44
			c4.27-1.01,13.71-2.6,18.09-3.4c5.78-1.14,11.72-2.5,16.76-5.68c46.48-30.65,106.88-70.83,154.21-99.44
			c7.07-4.18,15.76-9.14,22.94-12.96c11.34-6.05,23.51-11.95,35.4-16.83c16.34-6.69,33.4-12.07,50.69-15.69
			c17.76-3.71,36.09-5.59,54.24-4.75c14.33,0.64,28.69,2.85,42.62,6.22c7.19,1.73,15.02,4,22.05,6.29
			c7.94,2.52,26.09,9.28,34.1,12.19c7.01,2.51,15.06,5.34,22.26,7.2c6.73,1.76,14.74,3.2,21.54,4.66c2.64,0.59,5.59,1.32,8.18,2.15
			c2.19,0.7,4.54,1.57,6.67,2.43c1.44,0.56,24.47,10.33,25.92,10.94c2.08,0.91,4.35,1.95,6.29,3.15l2.92,1.83
			c1.42,0.87,2.93,1.65,4.47,2.29c2.6,1.12,10.57,3.72,13.4,4.7c3.21,1.14,6.58,2.38,9.66,3.83c2.16,1.02,4.31,2.17,6.26,3.57
			c2.64,1.87,4.93,4.21,6.97,6.7c2.11,2.6,4.56,6.05,6.84,8.48c2.81,3.04,6.45,6.52,8.79,9.92c2.49,3.53,4.25,7.57,5.52,11.69
			c1.23,4.06,2.04,8.32,2.11,12.57c0.07,5.43-1.13,10.86-6.82,12.85c-1.9,0.67-3.93,0.94-5.93,1.05c-3,0.14-6.04-0.11-9-0.59
			c-3.01-0.53-6.09-1.23-8.83-2.62c-1.37-0.7-2.62-1.64-3.68-2.75c-1.83-1.89-3.42-4.65-4.88-6.85c-0.77-1.14-1.58-2.32-2.56-3.29
			c-0.48-0.47-1.02-0.91-1.64-1.18c-0.43-0.18-0.9-0.26-1.37-0.24c-0.54,0.03-1.06,0.18-1.55,0.38c-0.52,0.22-1.02,0.51-1.49,0.81
			c-1.83,1.21-4.22,3.19-6,4.5c-1.45,1.07-3,2.11-4.58,2.97c-1.49,0.82-3.08,1.53-4.67,2.11c-3.23,1.16-6.66,2-10.11,1.96
			c-2-0.04-4.16-0.44-5.63-1.9c-1-0.98-1.47-2.35-1.7-3.7c-0.55-3.27-0.09-7.58,0.03-10.91c0.15-3.28-0.09-7.1,0.05-10.38
			c0.07-1.53,0.23-3.1,0.51-4.61c0.31-1.71,0.79-3.44,1.31-5.1c1.6-5.2,4.22-10.77,5.9-15.94l1.29-4.21"/>
	</g>
	<g id="POLYLINE_00000048497575075660942320000012192654384006890378_">
		<path class="st112" d="M360.77,410.39c-7-0.06-16.11-0.12-22.98,0.23c-33.05,1.7-78.32,6.94-111.47,10.5
			c-23.56,2.77-48.6,6.21-71.8,11.02c-11.99,2.46-25.07,5.89-36.84,9.31"/>
	</g>
	<g id="POLYLINE_00000100363524532076538970000007926420447997471912_">
		<path class="st112" d="M396.32,418.53c-6.19-0.05-12.43-0.96-18.49-2.19c-6-1.23-12.1-2.84-17.34-6.11
			c-5.17-3.22-9.04-8.15-11.98-13.42c-2.2-3.96-4-8.18-5.41-12.49c-1.63-5.02-2.72-10.27-3.04-15.55"/>
	</g>
	<g id="POLYLINE_00000129898213043401361250000016131442086014650803_">
		<path class="st112" d="M546.2,420.14c2.91-0.67,5.85-1.47,8.59-2.68c1.53-0.68,3-1.53,4.25-2.66c1-0.9,1.84-2,2.47-3.19
			c1.14-2.16,1.75-4.59,2.26-6.97c0.69-3.26,2.47-15.09,3.06-18.57c0.67-4.31,1.18-8.74,1.17-13.1c0.03-9.41-2.33-20.13-2.23-29.54
			c0.06-5.84,1.32-11.67,2.68-17.33"/>
	</g>
	<g id="POLYLINE_00000036210303518946108730000012270185732658492064_">
		<path class="st112" d="M373.8,368.6c1.29,7.57,3.95,14.94,6.87,22.02c1.83,4.34,5.72,13.15,7.75,17.43
			c0.6,1.23,1.28,2.53,1.99,3.71c1.04,1.73,2.26,3.38,3.68,4.82c2.42,2.47,5.48,4.23,8.7,5.45c5.44,2.06,11.29,3.03,17.05,3.74
			c7.44,0.87,15.31,1.18,22.81,1.3c17.16,0.2,36.05-0.36,53.19-1.41"/>
	</g>
	<g id="POLYLINE_00000134237446881082826760000011121153162578296758_">
		<path class="st112" d="M507.89,442.71c-1.48,1.01-2.92,2.12-4.13,3.45c-0.98,1.08-1.81,2.3-2.43,3.62
			c-0.91,1.93-1.45,4.04-1.68,6.17c-0.26,2.54-0.05,5.17,0.81,7.58c0.95,2.68,2.83,4.99,5.19,6.57c2.5,1.68,5.73,2.57,8.68,1.65
			c1.83-0.55,3.46-1.62,4.94-2.8c2.66-2.1,5.89-5.66,8.32-8.07c4.26-4.29,10.33-9.05,14.47-13.46c1.54-1.64,2.99-3.41,4.16-5.34
			c0.74-1.22,1.36-2.53,1.86-3.86c1.04-2.76,1.6-5.72,1.97-8.64c0.21-1.91,1.13-8.99,1.24-10.81"/>
	</g>
	<g id="POLYLINE_00000109748882057307690800000001126251984985878406_">
		<path class="st112" d="M638.57,386.92c0.94,1.27,1.94,2.56,3.2,3.53c1.85,1.44,4.1,2.26,6.34,2.84c1.5,0.37,3.04,0.62,4.58,0.69
			c1.26,0.05,2.55-0.01,3.77-0.32c1.18-0.3,2.28-0.88,3.21-1.67c1.15-0.96,2.07-2.21,2.95-3.42"/>
	</g>
	<g id="POLYLINE_00000178171953356355600840000010189601202968374157_">
		<path class="st112" d="M562.3,409.89c7.17-1.57,13.99-4.8,19.65-9.49"/>
	</g>
	<g id="POLYLINE_00000059278932738662907640000018111588128105779360_">
		<path class="st112" d="M602.72,395.75c-1.78,1.27-3.73,2.33-5.74,3.2c-1.72,0.74-3.58,1.48-5.35,2.07
			c-1.9,0.62-3.88,1.17-5.89,1.18c-1.16-0.01-2.4-0.26-3.24-1.12c-0.66-0.65-1.05-1.52-1.29-2.4c-0.41-1.48-0.46-3.05-0.39-4.58
			c0.18-4.52,1.88-9.34,2.85-13.73c0.56-2.5,0.85-5.09,0.89-7.65c0.1-6.65-0.71-13.81-0.06-20.44c0.68-7.39,2.66-14.67,4.99-21.7"/>
	</g>
	<g id="POLYLINE_00000088823675442776188340000013686445093036048525_">
		<path class="st112" d="M619.25,389.03c-0.98,1.42-2.12,2.76-3.47,3.83c-1.68,1.34-3.64,2.3-5.68,2.96
			c-1.57,0.49-3.23,0.83-4.88,0.72c-0.68-0.05-1.37-0.19-1.99-0.49c-0.49-0.23-0.93-0.57-1.29-0.97c-1.17-1.32-1.57-3.14-1.71-4.85
			c-0.15-2,0.14-4.02,0.52-5.98c0.34-1.68,1.11-5.09,1.4-6.77c0.27-1.51,0.46-3.1,0.59-4.62c0.6-7.6,0.24-16.21,1.32-23.76
			c0.92-6.68,2.92-13.29,5.1-19.65"/>
	</g>
	<g id="POLYLINE_00000130637566066517564300000003968464835708715145_">
		<path class="st112" d="M539.54,348.86c3.13,3.04,5.99,6.43,8.23,10.18c1.64,2.78,2.96,5.8,3.54,8.99c0.57,3.07,0.28,6.23-0.3,9.27
			c-0.72,3.75-2.19,8.76-2.73,12.53c-0.31,1.99-0.43,4.02-0.38,6.04c0.09,5.08,1.26,10.47,1.3,15.55c-0.01,1.53-0.14,3.08-0.61,4.54
			c-0.46,1.46-1.26,2.81-2.23,4c-0.8,1-1.74,1.91-2.69,2.77c-2.91,2.58-8.07,6.65-11.1,9.15c-3.76,2.96-7.7,5.87-11.96,8.09
			c-2.72,1.4-5.65,2.58-8.71,2.9c-1.86,0.19-3.77,0.02-5.56-0.53c-1.91-0.57-3.7-1.56-5.22-2.84c-2.08-1.75-3.69-4.07-4.56-6.64
			c-0.62-1.81-0.87-3.73-0.82-5.64c0.16-5.43,2.54-10.64,6-14.77c2.95-3.54,7.22-6.41,10.88-9.18c1.45-1.12,2.93-2.3,4.17-3.66
			c0.81-0.89,1.53-1.88,1.99-3c0.71-1.67,0.62-3.55,0.22-5.28c-0.8-3.44-2.76-7.04-4.11-10.3c-0.7-1.67-1.35-3.42-1.72-5.19
			c-0.46-2.19-0.52-4.47-0.3-6.69c0.32-3.27,1.31-6.72,2.17-9.89"/>
	</g>
</g>
<g id="_x32_D_x24_AG-OUTLINE">
	<g id="POLYLINE_00000134242951487965691150000005346265159032272560_">
		<path class="st113" d="M662.62,388.57c0.98,1.17,2.13,2.22,3.44,3.02c2.37,1.46,5.1,2.21,7.8,2.81c4.39,0.9,8.98,1.33,13.44,0.75
			c2.3-0.33,4.65-0.96,6.48-2.45c2.98-2.39,3.79-6.42,3.87-10.05c0.08-3.87-0.52-7.76-1.47-11.5c-1.08-4.15-2.64-8.25-4.85-11.94
			c-1-1.66-2.18-3.26-3.42-4.74c-1.39-1.7-4.42-4.78-5.95-6.4c-2.78-2.84-5.42-6.68-7.95-9.74c-2.01-2.41-4.29-4.65-6.87-6.44
			c-2.14-1.49-4.51-2.71-6.89-3.78c-6.24-2.85-14.69-5.25-21.11-7.69c-1.9-0.73-3.77-1.64-5.5-2.7l-2.92-1.83
			c-1.96-1.21-4.18-2.23-6.29-3.15c-1.29-0.54-24.7-10.46-25.92-10.94c-2.15-0.86-4.48-1.74-6.67-2.43c-2.6-0.84-5.5-1.55-8.18-2.15
			c-6.83-1.47-14.82-2.9-21.54-4.66c-7.2-1.85-15.23-4.67-22.26-7.2c-8.14-2.97-26.13-9.64-34.1-12.19
			c-7.04-2.29-14.86-4.56-22.05-6.29c-13.93-3.37-28.29-5.59-42.62-6.22c-18.15-0.84-36.48,1.03-54.24,4.75
			c-17.29,3.62-34.35,9-50.69,15.69c-11.89,4.87-24.07,10.78-35.4,16.83c-7.2,3.82-15.9,8.83-22.94,12.96
			c-47.23,28.54-107.94,68.88-154.21,99.44c-5.03,3.19-10.98,4.54-16.76,5.68c-4.46,0.8-13.86,2.43-18.09,3.4
			c-6.36,1.42-12.83,3.18-18.94,5.44c-5.95,2.2-11.76,4.98-16.95,8.66c-3.14,2.23-6.1,4.82-8.55,7.8c-2.7,3.29-4.74,7.12-5.97,11.2
			c-0.5,1.74-0.92,3.54-0.94,5.35c0,0.37,0.02,0.75,0.13,1.11c0.08,0.25,0.21,0.49,0.43,0.65c0.36,0.27,0.84,0.28,1.27,0.24
			c0.93-0.09,1.88-0.39,2.77-0.65l6.67-2.11c6.75-2.06,13.76-3.49,20.82-3.85c11.91-0.64,24.03,0.96,35.21,5.18
			c12.17,4.64,19.39,10.8,26.66,21.52c1.56,2.28,4.28,6.62,5.94,8.75c0.57,0.74,1.19,1.47,1.88,2.1c0.73,0.67,1.57,1.24,2.5,1.57
			c0.84,0.3,1.77,0.38,2.64,0.13c0.85-0.24,1.58-0.77,2.16-1.42c0.56-0.64,0.99-1.38,1.33-2.16c0.49-1.1,0.82-2.28,1.07-3.46
			c0.7-3.37,0.82-6.88,0.75-10.31c-0.16-6.78-1.33-13.73-2.59-20.39l-4.16-20.03c40.35-9.6,87.81-14.08,129.23-18.58
			c17.65-1.67,48.22-4.8,65.67-5.52c6.88-0.36,16.06-0.29,22.98-0.23c4.86,2.96,10.45,4.53,15.98,5.71
			c6.41,1.34,13.02,2.37,19.58,2.42c3.1,2.37,6.83,3.78,10.56,4.83c5.38,1.49,11.04,2.25,16.59,2.78c7.52,0.7,15.56,0.91,23.12,0.96
			c15.78,0.06,33.52-0.47,49.27-1.45c-0.32,2.94,0.04,5.99,1.3,8.67c1.98,4.29,6.08,7.56,10.75,8.39c-1.48,1.01-2.92,2.12-4.13,3.45
			c-0.98,1.08-1.81,2.3-2.43,3.62c-0.91,1.93-1.45,4.04-1.68,6.17c-0.26,2.54-0.05,5.17,0.81,7.58c0.95,2.68,2.83,4.99,5.19,6.57
			c2.5,1.68,5.73,2.57,8.68,1.65c1.83-0.55,3.46-1.62,4.94-2.8c2.66-2.1,5.89-5.66,8.32-8.07c4.26-4.29,10.33-9.05,14.47-13.46
			c1.54-1.64,2.99-3.41,4.16-5.34c0.74-1.22,1.36-2.53,1.86-3.86c1.04-2.76,1.6-5.72,1.97-8.64c0.21-1.91,1.13-8.99,1.24-10.81
			c3.11-1.01,6.31-2.31,8.55-4.79c1.08-1.18,1.87-2.61,2.44-4.1c7.17-1.57,13.99-4.8,19.65-9.49c0.3,0.46,0.69,0.87,1.16,1.16
			c0.49,0.3,1.06,0.48,1.63,0.56c1.64,0.23,3.31-0.1,4.9-0.5c2.1-0.55,4.22-1.38,6.24-2.19c2.4-0.98,4.75-2.16,6.86-3.67
			c0.8,0.54,1.77,0.74,2.73,0.79c1.58,0.07,3.15-0.26,4.65-0.73c2.04-0.66,4.01-1.61,5.68-2.96c1.35-1.08,2.49-2.41,3.47-3.83
			c0.76,0.63,1.69,1.03,2.64,1.26c1.33,0.32,2.72,0.36,4.09,0.29c1.98-0.12,3.97-0.51,5.88-1.04c2.31-0.65,4.58-1.52,6.71-2.62
			c0.94,1.27,1.94,2.56,3.2,3.53c1.85,1.44,4.1,2.26,6.34,2.84c1.5,0.37,3.04,0.62,4.58,0.69c1.26,0.05,2.55-0.01,3.77-0.32
			c1.18-0.3,2.28-0.88,3.21-1.67C660.82,391.03,661.74,389.78,662.62,388.57z"/>
	</g>
</g>
</svg>
