<?xml version="1.0" encoding="utf-8"?>
<!-- Generator: Adobe Illustrator 26.3.1, SVG Export Plug-In . SVG Version: 6.00 Build 0)  -->
<!DOCTYPE svg PUBLIC "-//W3C//DTD SVG 1.1//EN" "http://www.w3.org/Graphics/SVG/1.1/DTD/svg11.dtd" [
	<!ENTITY ns_extend "http://ns.adobe.com/Extensibility/1.0/">
	<!ENTITY ns_ai "http://ns.adobe.com/AdobeIllustrator/10.0/">
	<!ENTITY ns_graphs "http://ns.adobe.com/Graphs/1.0/">
	<!ENTITY ns_vars "http://ns.adobe.com/Variables/1.0/">
	<!ENTITY ns_imrep "http://ns.adobe.com/ImageReplacement/1.0/">
	<!ENTITY ns_sfw "http://ns.adobe.com/SaveForWeb/1.0/">
	<!ENTITY ns_custom "http://ns.adobe.com/GenericCustomNamespace/1.0/">
	<!ENTITY ns_adobe_xpath "http://ns.adobe.com/XPath/1.0/">
]>
<svg version="1.1" xmlns:x="&ns_extend;" xmlns:i="&ns_ai;" xmlns:graph="&ns_graphs;"
	 xmlns="http://www.w3.org/2000/svg" xmlns:xlink="http://www.w3.org/1999/xlink" x="0px" y="0px" width="750px" height="750px"
	 viewBox="0 0 750 750" style="enable-background:new 0 0 750 750;" xml:space="preserve">
<style type="text/css">
	.st0{fill:#FFFFFF;}
	.st1{fill:#FB8604;}
	.st2{fill:none;stroke:#FB8604;stroke-width:2;stroke-linecap:round;stroke-linejoin:round;stroke-miterlimit:10;}
	.st3{fill:none;stroke:#FB8604;stroke-width:2.5;stroke-linecap:round;stroke-linejoin:round;}
	.st4{fill:none;stroke:#FB8604;stroke-width:2.5;stroke-linecap:round;stroke-linejoin:round;stroke-dasharray:3.0898,5.1496;}
	.st5{fill:none;stroke:#FB8604;stroke-width:2.5;stroke-linecap:round;stroke-linejoin:round;stroke-dasharray:3.091,5.1517;}
	.st6{fill:none;stroke:#FB8604;stroke-width:2.5;stroke-linecap:round;stroke-linejoin:round;stroke-dasharray:2.9032,4.8387;}
	.st7{fill:none;stroke:#FB8604;stroke-width:2.5;stroke-linecap:round;stroke-linejoin:round;stroke-dasharray:2.9223,4.8705;}
	.st8{fill:none;stroke:#FB8604;stroke-width:2.5;stroke-linecap:round;stroke-linejoin:round;stroke-dasharray:2.9172,4.8621;}
	.st9{fill:none;stroke:#FB8604;stroke-width:2.75;stroke-linecap:round;stroke-linejoin:round;}
	.st10{fill:none;stroke:#FB8604;stroke-width:2.75;stroke-linecap:round;stroke-linejoin:round;stroke-dasharray:2.8443,4.7406;}
	.st11{fill:none;stroke:#FB8604;stroke-width:2.75;stroke-linecap:round;stroke-linejoin:round;stroke-dasharray:3.0851,5.1418;}
	.st12{fill:none;stroke:#FB8604;stroke-width:2.75;stroke-linecap:round;stroke-linejoin:round;stroke-dasharray:2.8462,4.7437;}
	.st13{fill:none;stroke:#FB8604;stroke-width:2.75;stroke-linecap:round;stroke-linejoin:round;stroke-dasharray:1.5856,2.6427;}
	.st14{fill:none;stroke:#FB8604;stroke-width:2.75;stroke-linecap:round;stroke-linejoin:round;stroke-dasharray:3.2273,5.3788;}
	.st15{fill:none;stroke:#FB8604;stroke-width:2.75;stroke-linecap:round;stroke-linejoin:round;stroke-dasharray:3.0035,5.0058;}
	.st16{fill:none;stroke:#FB8604;stroke-width:2.75;stroke-linecap:round;stroke-linejoin:round;stroke-dasharray:3.4878,5.813;}
	.st17{fill:none;stroke:#FB8604;stroke-width:2.75;stroke-linecap:round;stroke-linejoin:round;stroke-dasharray:2.9567,4.9278;}
	.st18{fill:none;stroke:#FB8604;stroke-width:2.75;stroke-linecap:round;stroke-linejoin:round;stroke-dasharray:3.5697,5.9495;}
	.st19{fill:none;stroke:#FB8604;stroke-width:2.75;stroke-linecap:round;stroke-linejoin:round;stroke-dasharray:3.0085,5.0141;}
	.st20{fill:none;stroke:#FB8604;stroke-width:2.75;stroke-linecap:round;stroke-linejoin:round;stroke-dasharray:3.3308,5.5514;}
	.st21{fill:none;stroke:#FB8604;stroke-width:2.75;stroke-linecap:round;stroke-linejoin:round;stroke-dasharray:2.8418,4.7364;}
	.st22{fill:none;stroke:#FB8604;stroke-width:2.75;stroke-linecap:round;stroke-linejoin:round;stroke-dasharray:2.5782,4.297;}
	.st23{fill:none;stroke:#FB8604;stroke-width:2.75;stroke-linecap:round;stroke-linejoin:round;stroke-dasharray:2.9307,4.8846;}
	.st24{fill:none;stroke:#FB8604;stroke-width:2.75;stroke-linecap:round;stroke-linejoin:round;stroke-dasharray:2.9898,4.983;}
	.st25{fill:none;stroke:#FB8604;stroke-width:2.75;stroke-linecap:round;stroke-linejoin:round;stroke-dasharray:2.989,4.9817;}
	.st26{fill:none;stroke:#FB8604;stroke-width:2.75;stroke-linecap:round;stroke-linejoin:round;stroke-dasharray:2.989,4.9816;}
	.st27{fill:none;stroke:#FB8604;stroke-width:2.75;stroke-linecap:round;stroke-linejoin:round;stroke-dasharray:3.0935,5.1559;}
	.st28{fill:none;stroke:#FB8604;stroke-width:2.75;stroke-linecap:round;stroke-linejoin:round;stroke-dasharray:2.9272,4.8787;}
	.st29{fill:none;stroke:#FB8604;stroke-width:2.75;stroke-linecap:round;stroke-linejoin:round;stroke-dasharray:2.9409,4.9016;}
	.st30{fill:none;stroke:#FB8604;stroke-width:2.75;stroke-linecap:round;stroke-linejoin:round;stroke-dasharray:2.9402,4.9004;}
	.st31{fill:none;stroke:#FB8604;stroke-width:2.75;stroke-linecap:round;stroke-linejoin:round;stroke-dasharray:3.0501,5.0834;}
	.st32{fill:none;stroke:#FB8604;stroke-width:2.75;stroke-linecap:round;stroke-linejoin:round;stroke-dasharray:2.5118,4.1864;}
	.st33{fill:none;stroke:#FB8604;stroke-width:2.75;stroke-linecap:round;stroke-linejoin:round;stroke-dasharray:2.6699,4.4498;}
	.st34{fill:none;stroke:#FB8604;stroke-width:2.75;stroke-linecap:round;stroke-linejoin:round;stroke-dasharray:2.8329,4.7215;}
	.st35{fill:none;stroke:#FB8604;stroke-width:2.75;stroke-linecap:round;stroke-linejoin:round;stroke-dasharray:3.0978,5.1629;}
	.st36{fill:none;stroke:#FB8604;stroke-width:2.75;stroke-linecap:round;stroke-linejoin:round;stroke-dasharray:2.9658,4.943;}
	.st37{fill:none;stroke:#FB8604;stroke-width:2.75;stroke-linecap:round;stroke-linejoin:round;stroke-dasharray:2.0811,3.4684;}
	.st38{fill:none;stroke:#FB8604;stroke-width:2.75;stroke-linecap:round;stroke-linejoin:round;stroke-dasharray:2.9977,4.9961;}
	.st39{fill:none;stroke:#FB8604;stroke-width:2.75;stroke-linecap:round;stroke-linejoin:round;stroke-dasharray:2.8943,4.8239;}
	.st40{fill:none;stroke:#FB8604;stroke-width:2.75;stroke-linecap:round;stroke-linejoin:round;stroke-dasharray:2.9823,4.9705;}
	.st41{fill:none;stroke:#FB8604;stroke-width:2.75;stroke-linecap:round;stroke-linejoin:round;stroke-dasharray:3.2956,5.4926;}
	.st42{fill:none;stroke:#FB8604;stroke-width:2.75;stroke-linecap:round;stroke-linejoin:round;stroke-dasharray:3.0098,5.0164;}
	.st43{fill:none;stroke:#FB8604;stroke-width:2.75;stroke-linecap:round;stroke-linejoin:round;stroke-dasharray:2.8071,4.6784;}
	.st44{fill:none;stroke:#FB8604;stroke-width:2.75;stroke-linecap:round;stroke-linejoin:round;stroke-dasharray:2.9443,4.9072;}
	.st45{fill:none;stroke:#FB8604;stroke-width:2.75;stroke-linecap:round;stroke-linejoin:round;stroke-dasharray:2.5961,4.3268;}
	.st46{fill:none;stroke:#FB8604;stroke-width:2.75;stroke-linecap:round;stroke-linejoin:round;stroke-dasharray:2.453,4.0883;}
	.st47{fill:none;stroke:#FB8604;stroke-width:2.75;stroke-linecap:round;stroke-linejoin:round;stroke-dasharray:2.9218,4.8697;}
	.st48{fill:none;stroke:#FB8604;stroke-width:2.75;stroke-linecap:round;stroke-linejoin:round;stroke-dasharray:3.0032,5.0054;}
	.st49{fill:none;stroke:#FB8604;stroke-width:2.75;stroke-linecap:round;stroke-linejoin:round;stroke-dasharray:2.7545,4.5909;}
	.st50{fill:none;stroke:#FB8604;stroke-width:2.75;stroke-linecap:round;stroke-linejoin:round;stroke-dasharray:2.9316,4.886;}
	.st51{fill:none;stroke:#FB8604;stroke-width:2.75;stroke-linecap:round;stroke-linejoin:round;stroke-dasharray:3.4253,5.7088;}
	.st52{fill:none;stroke:#FB8604;stroke-width:2.75;stroke-linecap:round;stroke-linejoin:round;stroke-dasharray:1.9584,3.264;}
	.st53{fill:none;stroke:#FB8604;stroke-width:2.75;stroke-linecap:round;stroke-linejoin:round;stroke-dasharray:2.3949,3.9915;}
	.st54{fill:none;stroke:#FB8604;stroke-width:2.75;stroke-linecap:round;stroke-linejoin:round;stroke-dasharray:2.9957,4.9929;}
	.st55{fill:none;stroke:#FB8604;stroke-width:2.75;stroke-linecap:round;stroke-linejoin:round;stroke-dasharray:2.9861,4.9768;}
	.st56{fill:none;stroke:#FB8604;stroke-width:2.75;stroke-linecap:round;stroke-linejoin:round;stroke-dasharray:2.94,4.9001;}
	.st57{fill:none;stroke:#FB8604;stroke-width:2.75;stroke-linecap:round;stroke-linejoin:round;stroke-dasharray:1.946,3.2433;}
	.st58{fill:none;stroke:#FB8604;stroke-width:2.75;stroke-linecap:round;stroke-linejoin:round;stroke-dasharray:3.4744,5.7906;}
	.st59{fill:none;stroke:#FB8604;stroke-width:2.75;stroke-linecap:round;stroke-linejoin:round;stroke-dasharray:2.8107,4.6845;}
	.st60{fill:none;stroke:#FB8604;stroke-width:2.75;stroke-linecap:round;stroke-linejoin:round;stroke-dasharray:3.7918,6.3197;}
	.st61{fill:none;stroke:#FB8604;stroke-width:2.75;stroke-linecap:round;stroke-linejoin:round;stroke-dasharray:2.9918,4.9863;}
	.st62{fill:none;stroke:#FB8604;stroke-width:2.75;stroke-linecap:round;stroke-linejoin:round;stroke-dasharray:2.6402,4.4004;}
	.st63{fill:none;stroke:#FB8604;stroke-width:2.75;stroke-linecap:round;stroke-linejoin:round;stroke-dasharray:3.063,5.105;}
	.st64{fill:none;stroke:#FB8604;stroke-width:2.75;stroke-linecap:round;stroke-linejoin:round;stroke-dasharray:3.0034,5.0056;}
	.st65{fill:none;stroke:#FB8604;stroke-width:2.75;stroke-linecap:round;stroke-linejoin:round;stroke-dasharray:2.9897,4.9829;}
	.st66{fill:none;stroke:#FB8604;stroke-width:2.75;stroke-linecap:round;stroke-linejoin:round;stroke-dasharray:3.1341,5.2235;}
	.st67{fill:none;stroke:#FB8604;stroke-width:2.75;stroke-linecap:round;stroke-linejoin:round;stroke-dasharray:2.6416,4.4026;}
	.st68{fill:none;stroke:#FB8604;stroke-width:2.75;stroke-linecap:round;stroke-linejoin:round;stroke-dasharray:3.0066,5.0111;}
	.st69{fill:none;stroke:#FB8604;stroke-width:2.75;stroke-linecap:round;stroke-linejoin:round;stroke-dasharray:2.826,4.7099;}
	.st70{fill:none;stroke:#FB8604;stroke-width:2.75;stroke-linecap:round;stroke-linejoin:round;stroke-dasharray:2.9155,4.8592;}
	.st71{fill:none;stroke:#FB8604;stroke-width:2.75;stroke-linecap:round;stroke-linejoin:round;stroke-dasharray:3.2144,5.3574;}
	.st72{fill:none;stroke:#FB8604;stroke-width:2.75;stroke-linecap:round;stroke-linejoin:round;stroke-dasharray:3.0025,5.0042;}
	.st73{fill:none;stroke:#FB8604;stroke-width:2.75;stroke-linecap:round;stroke-linejoin:round;stroke-dasharray:2.9685,4.9476;}
	.st74{fill:none;stroke:#FB8604;stroke-width:2.75;stroke-linecap:round;stroke-linejoin:round;stroke-dasharray:2.906,4.8434;}
	.st75{fill:none;stroke:#FB8604;stroke-width:2.75;stroke-linecap:round;stroke-linejoin:round;stroke-dasharray:2.4382,4.0637;}
	.st76{fill:none;stroke:#FB8604;stroke-width:2.75;stroke-linecap:round;stroke-linejoin:round;stroke-dasharray:2.6323,4.3872;}
	.st77{fill:none;stroke:#FB8604;stroke-width:2.75;stroke-linecap:round;stroke-linejoin:round;stroke-dasharray:2.7796,4.6326;}
	.st78{fill:none;stroke:#FB8604;stroke-width:2.75;stroke-linecap:round;stroke-linejoin:round;stroke-dasharray:2.8653,4.7755;}
	.st79{fill:none;stroke:#FB8604;stroke-width:2.75;stroke-linecap:round;stroke-linejoin:round;stroke-dasharray:2.9565,4.9275;}
	.st80{fill:none;stroke:#FB8604;stroke-width:2.75;stroke-linecap:round;stroke-linejoin:round;stroke-dasharray:3.2131,5.3552;}
	.st81{fill:none;stroke:#FB8604;stroke-width:2.75;stroke-linecap:round;stroke-linejoin:round;stroke-dasharray:2.9914,4.9857;}
	.st82{fill:none;stroke:#FB8604;stroke-width:2.75;stroke-linecap:round;stroke-linejoin:round;stroke-dasharray:2.9334,4.889;}
	.st83{fill:none;stroke:#FB8604;stroke-width:2.75;stroke-linecap:round;stroke-linejoin:round;stroke-dasharray:3.0354,5.059;}
	.st84{fill:none;stroke:#FB8604;stroke-width:2.75;stroke-linecap:round;stroke-linejoin:round;stroke-dasharray:2.9752,4.9587;}
	.st85{fill:none;stroke:#FB8604;stroke-width:2.75;stroke-linecap:round;stroke-linejoin:round;stroke-dasharray:2.5079,4.1799;}
	.st86{fill:none;stroke:#FB8604;stroke-width:2.75;stroke-linecap:round;stroke-linejoin:round;stroke-dasharray:2.7005,4.5008;}
	.st87{fill:none;stroke:#FB8604;stroke-width:2.75;stroke-linecap:round;stroke-linejoin:round;stroke-dasharray:2.846,4.7433;}
	.st88{fill:none;stroke:#FB8604;stroke-width:2.75;stroke-linecap:round;stroke-linejoin:round;stroke-dasharray:2.9386,4.8977;}
	.st89{fill:none;stroke:#FB8604;stroke-width:2.75;stroke-linecap:round;stroke-linejoin:round;stroke-dasharray:3.0268,5.0447;}
	.st90{fill:none;stroke:#FB8604;stroke-width:2.75;stroke-linecap:round;stroke-linejoin:round;stroke-dasharray:3.2943,5.4904;}
	.st91{fill:none;stroke:#FB8604;stroke-width:2.75;stroke-linecap:round;stroke-linejoin:round;stroke-dasharray:3.0595,5.0992;}
	.st92{fill:none;stroke:#FB8604;stroke-width:2.75;stroke-linecap:round;stroke-linejoin:round;stroke-dasharray:3.0002,5.0004;}
	.st93{fill:none;stroke:#FB8604;stroke-width:2.75;stroke-linecap:round;stroke-linejoin:round;stroke-dasharray:2.9926,4.9877;}
	.st94{fill:none;stroke:#FB8604;stroke-width:2.75;stroke-linecap:round;stroke-linejoin:round;stroke-dasharray:3.0693,5.1155;}
	.st95{fill:none;stroke:#FB8604;stroke-width:2.75;stroke-linecap:round;stroke-linejoin:round;stroke-dasharray:2.8084,4.6807;}
	.st96{fill:none;stroke:#FB8604;stroke-width:2.75;stroke-linecap:round;stroke-linejoin:round;stroke-dasharray:2.9754,4.9591;}
	.st97{fill:none;stroke:#FB8604;stroke-width:2.75;stroke-linecap:round;stroke-linejoin:round;stroke-dasharray:3.0581,5.0968;}
	.st98{fill:none;stroke:#FB8604;stroke-width:2.75;stroke-linecap:round;stroke-linejoin:round;stroke-dasharray:3.0998,5.1664;}
	.st99{fill:none;stroke:#FB8604;stroke-width:2.75;stroke-linecap:round;stroke-linejoin:round;stroke-dasharray:3.3917,5.6528;}
	.st100{fill:none;stroke:#FB8604;stroke-width:2.75;stroke-linecap:round;stroke-linejoin:round;stroke-dasharray:2.885,4.8083;}
	.st101{fill:none;stroke:#FB8604;stroke-width:2.75;stroke-linecap:round;stroke-linejoin:round;stroke-dasharray:3.0826,5.1377;}
	.st102{fill:none;stroke:#FB8604;stroke-width:2.75;stroke-linecap:round;stroke-linejoin:round;stroke-dasharray:2.9456,4.9094;}
	.st103{fill:none;stroke:#FB8604;stroke-width:2.75;stroke-linecap:round;stroke-linejoin:round;stroke-dasharray:3.1795,5.2992;}
	.st104{fill:none;stroke:#FB8604;stroke-width:2.75;stroke-linecap:round;stroke-linejoin:round;stroke-dasharray:1.5749,2.6249;}
	.st105{fill:none;stroke:#FB8604;stroke-width:2.75;stroke-linecap:round;stroke-linejoin:round;stroke-dasharray:2.8877,4.8129;}
	.st106{fill:none;stroke:#FB8604;stroke-width:2.75;stroke-linecap:round;stroke-linejoin:round;stroke-dasharray:3.0379,5.0632;}
	.st107{fill:none;stroke:#FB8604;stroke-width:2.75;stroke-linecap:round;stroke-linejoin:round;stroke-dasharray:3.1609,5.2681;}
	.st108{fill:none;stroke:#FB8604;stroke-width:2.75;stroke-linecap:round;stroke-linejoin:round;stroke-dasharray:3.2367,5.3946;}
	.st109{fill:none;stroke:#FB8604;stroke-width:2.75;stroke-linecap:round;stroke-linejoin:round;stroke-dasharray:3.5678,5.9464;}
	.st110{fill:none;stroke:#FB8604;stroke-width:2.75;stroke-linecap:round;stroke-linejoin:round;stroke-dasharray:3.0714,5.1191;}
	.st111{fill:none;stroke:#FB8604;stroke-width:2.75;stroke-linecap:round;stroke-linejoin:round;stroke-dasharray:3.0114,5.019;}
	.st112{fill:none;stroke:#FB8604;stroke-width:2.75;stroke-linecap:round;stroke-linejoin:round;stroke-miterlimit:10;}
	.st113{fill:none;stroke:#FB8604;stroke-width:3.5;stroke-linecap:round;stroke-linejoin:round;stroke-miterlimit:10;}
</style>
<metadata>
	<sfw  xmlns="&ns_sfw;">
		<slices></slices>
		<sliceSourceBounds  bottomLeftOrigin="true" height="5298.44" width="3985" x="-2000" y="3686"></sliceSourceBounds>
	</sfw>
</metadata>
<g id="FILL-BACKGROUND">
	<rect class="st0" width="750" height="750"/>
</g>
<g id="N-DIMENSIONS">
</g>
<g id="N-TEXT">
</g>
<g id="_x32_D_x24_AG-DIAGRAM">
</g>
<g id="_x32_D_x24_AG-DETAILS-DIAGRAM">
</g>
<g id="_x32_D_x24_AG-DETAILS">
</g>
<g id="_x32_D_x24_AG-ANIMALS">
	<g id="POLYLINE_00000018208440386503780790000009657188569173714079_">
		<path class="st112" d="M579.74,405.4c3.71,0.57,7.55,0.56,11.22-0.28c2.36-0.56,4.69-1.5,6.55-3.09
			c3.07-2.64,4.49-6.64,5.39-10.48c0.93-4.19,1.49-8.58,1.84-12.85c0.41-5.47,0.3-11.06-0.83-16.44"/>
	</g>
	<g id="POLYLINE_00000162341240176725782520000010902582613008536226_">
		<path class="st112" d="M626.61,406.86c1.83,1.37,3.84,2.56,6.02,3.28c1.85,0.62,3.82,0.95,5.77,1.08
			c2.15,0.14,4.34,0.03,6.46-0.38"/>
	</g>
	<g id="POLYLINE_00000081614241756476689450000002383276960135350178_">
		<path class="st112" d="M521.32,386.71c-0.62,2.24-0.92,4.58-0.8,6.9c0.06,0.9,0.18,1.81,0.48,2.66c0.15,0.43,0.37,0.84,0.61,1.23
			c0.33,0.53,0.78,1.15,0.96,1.75c0.13,0.41,0.17,0.84,0.13,1.27c-0.07,0.74-0.33,1.45-0.6,2.13c-0.97,2.31-2.4,4.54-3.74,6.66
			l-6.43,9.78c-2.02,3.13-3.89,6.47-5.26,9.95c-0.99,2.53-2.19,5.79-3.52,8.13c-0.96,1.72-2.18,3.31-3.42,4.83
			c-2.21,2.75-5.45,6.24-7.16,9.32c-0.85,1.51-1.55,3.18-1.59,4.93c-0.06,2.12,0.88,4.16,2.22,5.76c2.58,3.05,6.36,4.89,10.21,5.75
			c7.81,1.66,16.38-0.37,22.62-5.35c5.06-4.06,8.59-9.68,11.51-15.39c5.58-11.01,9.75-24.52,15.3-35.54
			c1.11-2.18,2.37-4.41,3.76-6.43c1.49-2.21,3.85-5.02,5.53-7.1c1.04-1.31,2.12-2.68,2.83-4.2c0.87-1.8,1.11-3.85,1.36-5.81"/>
	</g>
	<g id="POLYLINE_00000083810874474039719990000006598469472138557085_">
		<path class="st112" d="M481.07,416.45c-2.27,0.51-4.38,1.58-6.3,2.87c-2.02,1.37-3.88,3.01-5.41,4.92
			c-1.19,1.51-2.33,3.32-2.22,5.32c0.06,1.1,0.49,2.14,1.05,3.06c0.89,1.46,2.07,2.74,3.34,3.88c1.7,1.5,3.64,2.78,5.73,3.66
			c1.88,0.79,3.92,1.24,5.97,1.11c3.99-0.24,7.66-2.13,11.06-4.12c4.04-2.49,8.79-5.16,12.43-8.21"/>
	</g>
	<g id="POLYLINE_00000081623889839378103690000002189736077286208403_">
		<path class="st112" d="M596.82,402.58c4.34,0.89,8.86,1.84,13.3,1.77c2.55,0,5.62-0.32,8.1,0.32c1.54,0.39,2.87,1.38,4.33,1.98
			c0.9,0.38,1.89,0.54,2.86,0.42c1.85-0.22,3.61-0.98,5.3-1.73c1.09-0.48,3.14-1.56,4.24-1.88c0.28-0.08,0.57-0.12,0.86-0.1
			c0.39,0.03,0.76,0.19,1.08,0.41c0.37,0.25,0.71,0.56,1.04,0.87c1.82,1.81,3.53,3.95,5.67,5.42c2.65,1.89,6.03,2.35,9.21,2.24
			c3.44-0.13,6.92-0.72,10.29-1.36c4.59-0.95,9.37-2.39,12.8-5.74c2.96-2.87,4.67-6.98,4.63-11.1c0-2.16-0.5-4.31-1.28-6.32
			c-0.96-2.47-2.3-4.79-3.82-6.95c-1.92-2.73-4.17-5.3-6.57-7.62c-3.36-3.35-7.97-6.47-11.81-9.27c-1.86-1.37-3.79-2.89-5.51-4.43
			c-2.5-2.2-9.45-9.18-11.9-11.59c-3.38-3.24-6.94-6.5-10.88-9.06c-2.79-1.81-5.87-3.26-8.96-4.49l-8.05-3.07
			c-3.12-1.2-6.16-2.69-9.06-4.34c-5.54-3.17-14.68-9.23-20.2-12.52c-11.35-6.82-23.79-12.25-36.2-16.84
			c-26.93-9.76-55.36-16.41-83.67-20.66c-30.03-4.4-60.84-5.76-90.96-1.46c-31.39,4.36-61.96,14.32-90.43,28.16
			c-22.06,10.8-43.23,24.16-60.7,41.56c-7.64,7.49-17.26,17.6-25.75,23.94c-5.02,3.82-10.47,7.17-16.21,9.81
			c-7.71,3.54-16.03,6.08-24.22,8.29c-15.18,4.15-35.31,7.9-49.88,13.74c-4.8,1.93-9.5,4.32-13.64,7.43
			c-7.59,5.67-13.19,13.81-12.81,23.61c0.45,10.51,7.07,20.16,15,26.66c14.04,11.54,35.14,14.91,52.54,10.51
			c4.25-1.08,8.4-2.7,12.23-4.84c4.68-2.59,8.97-5.9,12.89-9.53c9.56-8.78,18.38-21.36,26.85-31.21
			c5.6-6.51,11.82-12.68,19.14-17.25c6.86-4.34,14.64-7.07,22.53-8.85c10.33-2.31,21.06-3.14,31.63-3.22
			c34.49-0.34,72.1,8.79,105.89,15.47c15.86,3.05,32.49,5.45,48.6,6.46c29.58,1.81,60.05,0.34,89.6-1.7"/>
	</g>
	<g id="POLYLINE_00000031181739401606957980000014124758529574814390_">
		<path class="st112" d="M553.11,410.96c7.28-0.9,15.54-2.02,22.71-3.45c0.64-0.14,1.29-0.32,1.89-0.59
			c0.84-0.37,1.57-0.95,2.15-1.66c0.88-1.09,1.51-2.37,2.05-3.65c0.89-2.16,1.53-4.45,2.07-6.72c2.48-11.01,3.24-22.55,1.31-33.7"/>
	</g>
</g>
<g id="_x32_D_x24_AG-OUTLINE">
	<g id="POLYLINE_00000008123155639653992340000011500917624407389841_">
		<path class="st113" d="M644.86,410.83c3.22,1.66,6.98,1.63,10.5,1.3c3.12-0.34,6.3-0.85,9.36-1.54c3.96-0.94,8-2.37,11.01-5.22
			c4.08-3.85,5.7-9.65,4.32-15.07c-0.54-2.17-1.46-4.25-2.55-6.2c-1.4-2.48-3.11-4.82-4.96-6.99c-2.03-2.37-4.29-4.61-6.69-6.61
			c-2.75-2.35-6.85-5.08-9.75-7.27c-1.77-1.33-3.58-2.82-5.22-4.32c-2.07-1.86-9.18-8.97-11.24-11c-3.38-3.24-6.94-6.5-10.88-9.06
			c-2.79-1.81-5.87-3.26-8.96-4.49l-8.05-3.07c-3.12-1.2-6.16-2.69-9.06-4.34c-5.54-3.17-14.68-9.23-20.2-12.52
			c-11.35-6.82-23.79-12.25-36.2-16.84c-26.93-9.76-55.36-16.41-83.67-20.66c-30.03-4.4-60.84-5.76-90.96-1.46
			c-31.39,4.36-61.96,14.32-90.43,28.16c-22.06,10.8-43.23,24.16-60.7,41.56c-7.64,7.49-17.26,17.6-25.75,23.94
			c-5.02,3.82-10.47,7.17-16.21,9.81c-7.71,3.54-16.03,6.08-24.22,8.29c-15.18,4.15-35.31,7.9-49.88,13.74
			c-4.8,1.93-9.5,4.32-13.64,7.43c-7.59,5.67-13.19,13.81-12.81,23.61c0.45,10.51,7.07,20.16,15,26.66
			c14.04,11.54,35.14,14.91,52.54,10.51c4.25-1.08,8.4-2.7,12.23-4.84c4.68-2.59,8.97-5.9,12.89-9.53
			c9.56-8.78,18.38-21.36,26.85-31.21c5.6-6.51,11.82-12.68,19.14-17.25c6.86-4.34,14.64-7.07,22.53-8.85
			c10.33-2.31,21.06-3.14,31.63-3.22c34.49-0.34,72.1,8.79,105.89,15.47c15.85,3.05,32.5,5.45,48.6,6.46
			c18.15,1.2,37.55,0.89,55.75,0.23c-2.27,0.51-4.38,1.58-6.3,2.87c-2.02,1.37-3.88,3.01-5.41,4.92c-1.19,1.51-2.33,3.32-2.22,5.32
			c0.06,1.1,0.49,2.14,1.05,3.06c0.89,1.46,2.07,2.74,3.34,3.88c1.7,1.5,3.64,2.78,5.73,3.66c1.88,0.79,3.92,1.24,5.97,1.11
			c3.99-0.24,7.66-2.13,11.06-4.12c4.04-2.49,8.79-5.16,12.43-8.21c-1.31,3.29-2.64,7.11-4.67,10.01c-2.55,3.71-6.39,7.5-8.82,11.29
			c-1.36,2.13-2.56,4.62-2.17,7.21c0.24,1.73,1.11,3.33,2.23,4.65c2.25,2.62,5.42,4.34,8.7,5.29c6.14,1.73,12.88,0.98,18.65-1.66
			c1.92-0.88,3.75-2.01,5.4-3.33c2.56-2.05,4.76-4.55,6.65-7.22c3.74-5.28,6.49-11.3,9-17.24l7.4-18.28
			c1.21-2.87,2.58-5.92,4.01-8.69c7.07-0.86,15.17-1.99,22.14-3.33c0.55-0.11,1.12-0.23,1.65-0.4c1.11-0.34,2.1-0.95,2.85-1.83
			c3.44,0.53,7,0.55,10.43-0.11c2.36-0.47,4.7-1.29,6.65-2.71c4.34,0.89,8.86,1.84,13.3,1.77c2.59,0,5.71-0.33,8.22,0.35
			c1.49,0.41,2.78,1.37,4.2,1.95c0.6,0.24,1.23,0.41,1.88,0.45c0.74,0.04,1.48-0.07,2.19-0.24c1.83,1.37,3.84,2.56,6.02,3.28
			c1.85,0.62,3.82,0.95,5.77,1.08C640.55,411.35,642.74,411.24,644.86,410.83z"/>
	</g>
</g>
</svg>
