<?xml version="1.0" encoding="utf-8"?>
<!-- Generator: Adobe Illustrator 26.3.1, SVG Export Plug-In . SVG Version: 6.00 Build 0)  -->
<!DOCTYPE svg PUBLIC "-//W3C//DTD SVG 1.1//EN" "http://www.w3.org/Graphics/SVG/1.1/DTD/svg11.dtd" [
	<!ENTITY ns_extend "http://ns.adobe.com/Extensibility/1.0/">
	<!ENTITY ns_ai "http://ns.adobe.com/AdobeIllustrator/10.0/">
	<!ENTITY ns_graphs "http://ns.adobe.com/Graphs/1.0/">
	<!ENTITY ns_vars "http://ns.adobe.com/Variables/1.0/">
	<!ENTITY ns_imrep "http://ns.adobe.com/ImageReplacement/1.0/">
	<!ENTITY ns_sfw "http://ns.adobe.com/SaveForWeb/1.0/">
	<!ENTITY ns_custom "http://ns.adobe.com/GenericCustomNamespace/1.0/">
	<!ENTITY ns_adobe_xpath "http://ns.adobe.com/XPath/1.0/">
]>
<svg version="1.1" xmlns:x="&ns_extend;" xmlns:i="&ns_ai;" xmlns:graph="&ns_graphs;"
	 xmlns="http://www.w3.org/2000/svg" xmlns:xlink="http://www.w3.org/1999/xlink" x="0px" y="0px" width="750px" height="750px"
	 viewBox="0 0 750 750" style="enable-background:new 0 0 750 750;" xml:space="preserve">
<style type="text/css">
	.st0{fill:#FFFFFF;}
	.st1{fill:#FB8604;}
	.st2{fill:none;stroke:#FB8604;stroke-width:2;stroke-linecap:round;stroke-linejoin:round;stroke-miterlimit:10;}
	.st3{fill:none;stroke:#FB8604;stroke-width:2;stroke-linecap:round;stroke-linejoin:round;}
	.st4{fill:none;stroke:#FB8604;stroke-width:2;stroke-linecap:round;stroke-linejoin:round;stroke-dasharray:2.8868,4.8113;}
	.st5{fill:none;stroke:#FB8604;stroke-width:2;stroke-linecap:round;stroke-linejoin:round;stroke-dasharray:3.2,5.3333;}
	.st6{fill:none;stroke:#FB8604;stroke-width:2;stroke-linecap:round;stroke-linejoin:round;stroke-dasharray:2.7333,4.5556;}
	.st7{fill:none;stroke:#FB8604;stroke-width:2;stroke-linecap:round;stroke-linejoin:round;stroke-dasharray:2.5521,4.2535;}
	.st8{fill:none;stroke:#FB8604;stroke-width:2;stroke-linecap:round;stroke-linejoin:round;stroke-dasharray:3,5;}
	.st9{fill:none;stroke:#FB8604;stroke-width:2;stroke-linecap:round;stroke-linejoin:round;stroke-dasharray:3.2261,5.3768;}
	.st10{fill:none;stroke:#FB8604;stroke-width:2;stroke-linecap:round;stroke-linejoin:round;stroke-dasharray:2.913,4.8551;}
	.st11{fill:none;stroke:#FB8604;stroke-width:2;stroke-linecap:round;stroke-linejoin:round;stroke-dasharray:2.9189,4.8649;}
	.st12{fill:none;stroke:#FB8604;stroke-width:2;stroke-linecap:round;stroke-linejoin:round;stroke-dasharray:3.0724,5.1207;}
	.st13{fill:none;stroke:#FB8604;stroke-width:2.5;stroke-linecap:round;stroke-linejoin:round;}
	.st14{fill:none;stroke:#FB8604;stroke-width:2.5;stroke-linecap:round;stroke-linejoin:round;stroke-dasharray:3.1455,5.2425;}
	.st15{fill:none;stroke:#FB8604;stroke-width:2.5;stroke-linecap:round;stroke-linejoin:round;stroke-dasharray:2.38,3.9667;}
	.st16{fill:none;stroke:#FB8604;stroke-width:2.5;stroke-linecap:round;stroke-linejoin:round;stroke-dasharray:2.2549,3.7582;}
	.st17{fill:none;stroke:#FB8604;stroke-width:2.5;stroke-linecap:round;stroke-linejoin:round;stroke-dasharray:2.4292,4.0487;}
	.st18{fill:none;stroke:#FB8604;stroke-width:2.5;stroke-linecap:round;stroke-linejoin:round;stroke-dasharray:2.9004,4.834;}
	.st19{fill:none;stroke:#FB8604;stroke-width:2.5;stroke-linecap:round;stroke-linejoin:round;stroke-dasharray:2.8406,4.7343;}
	.st20{fill:none;stroke:#FB8604;stroke-width:2.5;stroke-linecap:round;stroke-linejoin:round;stroke-dasharray:3.0022,5.0036;}
	.st21{fill:none;stroke:#FB8604;stroke-width:2.5;stroke-linecap:round;stroke-linejoin:round;stroke-dasharray:2.902,4.8366;}
	.st22{fill:none;stroke:#FB8604;stroke-width:2.5;stroke-linecap:round;stroke-linejoin:round;stroke-dasharray:2.9975,4.9958;}
	.st23{fill:none;stroke:#FB8604;stroke-width:2.5;stroke-linecap:round;stroke-linejoin:round;stroke-dasharray:3.0105,5.0175;}
	.st24{fill:none;stroke:#FB8604;stroke-width:2.5;stroke-linecap:round;stroke-linejoin:round;stroke-dasharray:2.1919,3.6532;}
	.st25{fill:none;stroke:#FB8604;stroke-width:2.5;stroke-linecap:round;stroke-linejoin:round;stroke-dasharray:2.5854,4.309;}
	.st26{fill:none;stroke:#FB8604;stroke-width:2.5;stroke-linecap:round;stroke-linejoin:round;stroke-dasharray:1.5937,2.6561;}
	.st27{fill:none;stroke:#FB8604;stroke-width:2.5;stroke-linecap:round;stroke-linejoin:round;stroke-dasharray:3.6573,6.0956;}
	.st28{fill:none;stroke:#FB8604;stroke-width:2.5;stroke-linecap:round;stroke-linejoin:round;stroke-dasharray:2.949,4.915;}
	.st29{fill:none;stroke:#FB8604;stroke-width:2.5;stroke-linecap:round;stroke-linejoin:round;stroke-dasharray:2.8177,4.6961;}
	.st30{fill:none;stroke:#FB8604;stroke-width:2.5;stroke-linecap:round;stroke-linejoin:round;stroke-dasharray:2.8606,4.7676;}
	.st31{fill:none;stroke:#FB8604;stroke-width:2.5;stroke-linecap:round;stroke-linejoin:round;stroke-dasharray:2.3915,3.9859;}
	.st32{fill:none;stroke:#FB8604;stroke-width:2.5;stroke-linecap:round;stroke-linejoin:round;stroke-dasharray:2.266,3.7767;}
	.st33{fill:none;stroke:#FB8604;stroke-width:2.5;stroke-linecap:round;stroke-linejoin:round;stroke-dasharray:2.441,4.0683;}
	.st34{fill:none;stroke:#FB8604;stroke-width:2.5;stroke-linecap:round;stroke-linejoin:round;stroke-dasharray:2.9122,4.8536;}
	.st35{fill:none;stroke:#FB8604;stroke-width:2.5;stroke-linecap:round;stroke-linejoin:round;stroke-dasharray:2.8522,4.7536;}
	.st36{fill:none;stroke:#FB8604;stroke-width:2.5;stroke-linecap:round;stroke-linejoin:round;stroke-dasharray:3.0069,5.0114;}
	.st37{fill:none;stroke:#FB8604;stroke-width:2.5;stroke-linecap:round;stroke-linejoin:round;stroke-dasharray:3.0029,5.0049;}
	.st38{fill:none;stroke:#FB8604;stroke-width:2.5;stroke-linecap:round;stroke-linejoin:round;stroke-dasharray:2.9464,4.9107;}
	.st39{fill:none;stroke:#FB8604;stroke-width:2.5;stroke-linecap:round;stroke-linejoin:round;stroke-dasharray:2.9635,4.9392;}
	.st40{fill:none;stroke:#FB8604;stroke-width:2.5;stroke-linecap:round;stroke-linejoin:round;stroke-dasharray:1.8274,3.0456;}
	.st41{fill:none;stroke:#FB8604;stroke-width:2.5;stroke-linecap:round;stroke-linejoin:round;stroke-dasharray:2.8261,4.7101;}
	.st42{fill:none;stroke:#FB8604;stroke-width:2.5;stroke-linecap:round;stroke-linejoin:round;stroke-dasharray:2.0201,3.3668;}
	.st43{fill:none;stroke:#FB8604;stroke-width:2.5;stroke-linecap:round;stroke-linejoin:round;stroke-dasharray:3.0195,5.0325;}
	.st44{fill:none;stroke:#FB8604;stroke-width:2.5;stroke-linecap:round;stroke-linejoin:round;stroke-dasharray:2.3062,3.8437;}
	.st45{fill:none;stroke:#FB8604;stroke-width:2.5;stroke-linecap:round;stroke-linejoin:round;stroke-dasharray:2.8758,4.793;}
	.st46{fill:none;stroke:#FB8604;stroke-width:2.5;stroke-linecap:round;stroke-linejoin:round;stroke-dasharray:3.1883,5.3139;}
	.st47{fill:none;stroke:#FB8604;stroke-width:2.5;stroke-linecap:round;stroke-linejoin:round;stroke-dasharray:2.9919,4.9865;}
	.st48{fill:none;stroke:#FB8604;stroke-width:2.5;stroke-linecap:round;stroke-linejoin:round;stroke-dasharray:2.9875,4.9792;}
	.st49{fill:none;stroke:#FB8604;stroke-width:2.5;stroke-linecap:round;stroke-linejoin:round;stroke-dasharray:3.0312,5.052;}
	.st50{fill:none;stroke:#FB8604;stroke-width:2.5;stroke-linecap:round;stroke-linejoin:round;stroke-dasharray:2.99,4.9834;}
	.st51{fill:none;stroke:#FB8604;stroke-width:2.5;stroke-linecap:round;stroke-linejoin:round;stroke-dasharray:2.9978,4.9963;}
	.st52{fill:none;stroke:#FB8604;stroke-width:2.5;stroke-linecap:round;stroke-linejoin:round;stroke-dasharray:2.9926,4.9877;}
	.st53{fill:none;stroke:#FB8604;stroke-width:2.5;stroke-linecap:round;stroke-linejoin:round;stroke-dasharray:2.5289,4.2148;}
	.st54{fill:none;stroke:#FB8604;stroke-width:2.5;stroke-linecap:round;stroke-linejoin:round;stroke-dasharray:2.3977,3.9962;}
	.st55{fill:none;stroke:#FB8604;stroke-width:2.5;stroke-linecap:round;stroke-linejoin:round;stroke-dasharray:2.5804,4.3007;}
	.st56{fill:none;stroke:#FB8604;stroke-width:2.5;stroke-linecap:round;stroke-linejoin:round;stroke-dasharray:3.0527,5.0878;}
	.st57{fill:none;stroke:#FB8604;stroke-width:2.5;stroke-linecap:round;stroke-linejoin:round;stroke-dasharray:2.9902,4.9837;}
	.st58{fill:none;stroke:#FB8604;stroke-width:2.5;stroke-linecap:round;stroke-linejoin:round;stroke-dasharray:2.9932,4.9887;}
	.st59{fill:none;stroke:#FB8604;stroke-width:2.5;stroke-linecap:round;stroke-linejoin:round;stroke-dasharray:2.2364,3.7274;}
	.st60{fill:none;stroke:#FB8604;stroke-width:2.5;stroke-linecap:round;stroke-linejoin:round;stroke-dasharray:2.117,3.5284;}
	.st61{fill:none;stroke:#FB8604;stroke-width:2.5;stroke-linecap:round;stroke-linejoin:round;stroke-dasharray:2.2826,3.8043;}
	.st62{fill:none;stroke:#FB8604;stroke-width:2.5;stroke-linecap:round;stroke-linejoin:round;stroke-dasharray:2.7537,4.5895;}
	.st63{fill:none;stroke:#FB8604;stroke-width:2.5;stroke-linecap:round;stroke-linejoin:round;stroke-dasharray:2.6967,4.4945;}
	.st64{fill:none;stroke:#FB8604;stroke-width:2.5;stroke-linecap:round;stroke-linejoin:round;stroke-dasharray:3.013,5.0216;}
	.st65{fill:none;stroke:#FB8604;stroke-width:2.5;stroke-linecap:round;stroke-linejoin:round;stroke-dasharray:3,5;}
	.st66{fill:none;stroke:#FB8604;stroke-width:2.5;stroke-linecap:round;stroke-linejoin:round;stroke-dasharray:2.8521,4.7535;}
	.st67{fill:none;stroke:#FB8604;stroke-width:2.5;stroke-linecap:round;stroke-linejoin:round;stroke-dasharray:3.015,5.025;}
	.st68{fill:none;stroke:#FB8604;stroke-width:2.5;stroke-linecap:round;stroke-linejoin:round;stroke-dasharray:2.0573,3.4289;}
	.st69{fill:none;stroke:#FB8604;stroke-width:2.5;stroke-linecap:round;stroke-linejoin:round;stroke-dasharray:2.4448,4.0747;}
	.st70{fill:none;stroke:#FB8604;stroke-width:2.5;stroke-linecap:round;stroke-linejoin:round;stroke-dasharray:3.4544,5.7574;}
	.st71{fill:none;stroke:#FB8604;stroke-width:2.5;stroke-linecap:round;stroke-linejoin:round;stroke-dasharray:2.7999,4.6666;}
	.st72{fill:none;stroke:#FB8604;stroke-width:2.5;stroke-linecap:round;stroke-linejoin:round;stroke-dasharray:2.6539,4.4232;}
	.st73{fill:none;stroke:#FB8604;stroke-width:2.5;stroke-linecap:round;stroke-linejoin:round;stroke-dasharray:2.9854,4.9756;}
	.st74{fill:none;stroke:#FB8604;stroke-width:2.5;stroke-linecap:round;stroke-linejoin:round;stroke-dasharray:2.9624,4.9373;}
	.st75{fill:none;stroke:#FB8604;stroke-width:2.5;stroke-linecap:round;stroke-linejoin:round;stroke-dasharray:3.0011,5.0019;}
	.st76{fill:none;stroke:#FB8604;stroke-width:2.5;stroke-linecap:round;stroke-linejoin:round;stroke-dasharray:2.9763,4.9605;}
	.st77{fill:none;stroke:#FB8604;stroke-width:2.5;stroke-linecap:round;stroke-linejoin:round;stroke-dasharray:2.752,4.5866;}
	.st78{fill:none;stroke:#FB8604;stroke-width:2.5;stroke-linecap:round;stroke-linejoin:round;stroke-dasharray:3.616,6.0267;}
	.st79{fill:none;stroke:#FB8604;stroke-width:2.5;stroke-linecap:round;stroke-linejoin:round;stroke-dasharray:2.9602,4.9336;}
	.st80{fill:none;stroke:#FB8604;stroke-width:2.5;stroke-linecap:round;stroke-linejoin:round;stroke-dasharray:3.4336,5.7227;}
	.st81{fill:none;stroke:#FB8604;stroke-width:2.5;stroke-linecap:round;stroke-linejoin:round;stroke-dasharray:1.9985,3.3309;}
	.st82{fill:none;stroke:#FB8604;stroke-width:2.5;stroke-linecap:round;stroke-linejoin:round;stroke-dasharray:2.4594,4.099;}
	.st83{fill:none;stroke:#FB8604;stroke-width:2.5;stroke-linecap:round;stroke-linejoin:round;stroke-dasharray:2.7161,4.5269;}
	.st84{fill:none;stroke:#FB8604;stroke-width:2.5;stroke-linecap:round;stroke-linejoin:round;stroke-dasharray:2.788,4.6466;}
	.st85{fill:none;stroke:#FB8604;stroke-width:2.5;stroke-linecap:round;stroke-linejoin:round;stroke-dasharray:2.041,3.4017;}
	.st86{fill:none;stroke:#FB8604;stroke-width:2.5;stroke-linecap:round;stroke-linejoin:round;stroke-dasharray:3.0618,5.1029;}
	.st87{fill:none;stroke:#FB8604;stroke-width:2.5;stroke-linecap:round;stroke-linejoin:round;stroke-dasharray:2.9346,4.891;}
	.st88{fill:none;stroke:#FB8604;stroke-width:2.5;stroke-linecap:round;stroke-linejoin:round;stroke-dasharray:3.0108,5.0181;}
	.st89{fill:none;stroke:#FB8604;stroke-width:2.5;stroke-linecap:round;stroke-linejoin:round;stroke-dasharray:2.9662,4.9436;}
	.st90{fill:none;stroke:#FB8604;stroke-width:2.5;stroke-linecap:round;stroke-linejoin:round;stroke-dasharray:3.0816,5.1361;}
	.st91{fill:none;stroke:#FB8604;stroke-width:2.5;stroke-linecap:round;stroke-linejoin:round;stroke-dasharray:2.9292,4.882;}
	.st92{fill:none;stroke:#FB8604;stroke-width:2.5;stroke-linecap:round;stroke-linejoin:round;stroke-dasharray:3.1434,5.239;}
	.st93{fill:none;stroke:#FB8604;stroke-width:2.5;stroke-linecap:round;stroke-linejoin:round;stroke-dasharray:2.9751,4.9584;}
	.st94{fill:none;stroke:#FB8604;stroke-width:2.5;stroke-linecap:round;stroke-linejoin:round;stroke-dasharray:2.9148,4.858;}
	.st95{fill:none;stroke:#FB8604;stroke-width:2.5;stroke-linecap:round;stroke-linejoin:round;stroke-dasharray:2.9955,4.9925;}
	.st96{fill:none;stroke:#FB8604;stroke-width:2.5;stroke-linecap:round;stroke-linejoin:round;stroke-dasharray:2.9503,4.9172;}
	.st97{fill:none;stroke:#FB8604;stroke-width:2.5;stroke-linecap:round;stroke-linejoin:round;stroke-dasharray:2.9995,4.9992;}
	.st98{fill:none;stroke:#FB8604;stroke-width:2.5;stroke-linecap:round;stroke-linejoin:round;stroke-dasharray:2.9952,4.992;}
	.st99{fill:none;stroke:#FB8604;stroke-width:2.5;stroke-linecap:round;stroke-linejoin:round;stroke-dasharray:2.9573,4.9289;}
	.st100{fill:none;stroke:#FB8604;stroke-width:2.5;stroke-linecap:round;stroke-linejoin:round;stroke-dasharray:2.4922,4.1537;}
	.st101{fill:none;stroke:#FB8604;stroke-width:2.5;stroke-linecap:round;stroke-linejoin:round;stroke-dasharray:2.3625,3.9376;}
	.st102{fill:none;stroke:#FB8604;stroke-width:2.5;stroke-linecap:round;stroke-linejoin:round;stroke-dasharray:2.5432,4.2386;}
	.st103{fill:none;stroke:#FB8604;stroke-width:2.5;stroke-linecap:round;stroke-linejoin:round;stroke-dasharray:3.0152,5.0253;}
	.st104{fill:none;stroke:#FB8604;stroke-width:2.5;stroke-linecap:round;stroke-linejoin:round;stroke-dasharray:2.9534,4.9224;}
	.st105{fill:none;stroke:#FB8604;stroke-width:2.5;stroke-linecap:round;stroke-linejoin:round;stroke-dasharray:3.0508,5.0846;}
	.st106{fill:none;stroke:#FB8604;stroke-width:2.5;stroke-linecap:round;stroke-linejoin:round;stroke-dasharray:3.0019,5.0032;}
	.st107{fill:none;stroke:#FB8604;stroke-width:2.5;stroke-linecap:round;stroke-linejoin:round;stroke-dasharray:2.8103,4.6838;}
	.st108{fill:none;stroke:#FB8604;stroke-width:2.5;stroke-linecap:round;stroke-linejoin:round;stroke-dasharray:2.9153,4.8589;}
	.st109{fill:none;stroke:#FB8604;stroke-width:2.5;stroke-linecap:round;stroke-linejoin:round;stroke-dasharray:2.6596,4.4327;}
	.st110{fill:none;stroke:#FB8604;stroke-width:2.5;stroke-linecap:round;stroke-linejoin:round;stroke-dasharray:2.0332,3.3886;}
	.st111{fill:none;stroke:#FB8604;stroke-width:2.5;stroke-linecap:round;stroke-linejoin:round;stroke-dasharray:3.0931,5.1552;}
	.st112{fill:none;stroke:#FB8604;stroke-width:2.5;stroke-linecap:round;stroke-linejoin:round;stroke-dasharray:3.0402,5.067;}
	.st113{fill:none;stroke:#FB8604;stroke-width:2.5;stroke-linecap:round;stroke-linejoin:round;stroke-dasharray:2.9774,4.9623;}
	.st114{fill:none;stroke:#FB8604;stroke-width:2.5;stroke-linecap:round;stroke-linejoin:round;stroke-dasharray:2.9698,4.9497;}
	.st115{fill:none;stroke:#FB8604;stroke-width:2.5;stroke-linecap:round;stroke-linejoin:round;stroke-dasharray:3.0558,5.093;}
	.st116{fill:none;stroke:#FB8604;stroke-width:2.5;stroke-linecap:round;stroke-linejoin:round;stroke-dasharray:2.5316,4.2194;}
	.st117{fill:none;stroke:#FB8604;stroke-width:2.5;stroke-linecap:round;stroke-linejoin:round;stroke-dasharray:1.5067,2.5112;}
	.st118{fill:none;stroke:#FB8604;stroke-width:2.5;stroke-linecap:round;stroke-linejoin:round;stroke-dasharray:2.4118,4.0197;}
	.st119{fill:none;stroke:#FB8604;stroke-width:2.5;stroke-linecap:round;stroke-linejoin:round;stroke-dasharray:1.6749,2.7915;}
	.st120{fill:none;stroke:#FB8604;stroke-width:2.5;stroke-linecap:round;stroke-linejoin:round;stroke-dasharray:2.5801,4.3001;}
	.st121{fill:none;stroke:#FB8604;stroke-width:2.5;stroke-linecap:round;stroke-linejoin:round;stroke-dasharray:1.9241,3.2069;}
	.st122{fill:none;stroke:#FB8604;stroke-width:2.5;stroke-linecap:round;stroke-linejoin:round;stroke-dasharray:2.8201,4.7001;}
	.st123{fill:none;stroke:#FB8604;stroke-width:2.5;stroke-linecap:round;stroke-linejoin:round;stroke-dasharray:3.181,5.3016;}
	.st124{fill:none;stroke:#FB8604;stroke-width:1.5;stroke-linecap:round;stroke-linejoin:round;stroke-miterlimit:10;}
	.st125{fill:none;stroke:#FB8604;stroke-width:2.75;stroke-linecap:round;stroke-linejoin:round;stroke-miterlimit:10;}
	.st126{fill:none;stroke:#FB8604;stroke-width:2.25;stroke-linecap:round;stroke-linejoin:round;stroke-miterlimit:10;}
	.st127{fill:none;stroke:#FB8604;stroke-width:3.5;stroke-linecap:round;stroke-linejoin:round;stroke-miterlimit:10;}
	.st128{fill:none;stroke:#FB8604;stroke-width:3;stroke-linecap:round;stroke-linejoin:round;stroke-miterlimit:10;}
</style>
<metadata>
	<sfw  xmlns="&ns_sfw;">
		<slices></slices>
		<sliceSourceBounds  bottomLeftOrigin="true" height="9750" width="5207.29" x="-2000" y="-1314"></sliceSourceBounds>
	</sfw>
</metadata>
<g id="FILL-BACKGROUND">
	<rect class="st0" width="750" height="750"/>
</g>
<g id="N-DIMENSIONS">
</g>
<g id="N-TEXT">
</g>
<g id="_x32_D_x24_AG-DETAILS-DIAGRAM">
</g>
<g id="_x32_D_x24_AG-DETAILS">
	<g id="POLYLINE_00000073002330142065670210000003522221911130623405_">
		<path class="st2" d="M620.47,429.94C620.47,429.94,620.47,429.94,620.47,429.94C620.47,429.94,620.47,429.94,620.47,429.94
			C620.47,429.94,620.47,429.94,620.47,429.94L620.47,429.94L620.47,429.94L620.47,429.94L620.47,429.94L620.47,429.94
			L620.47,429.94L620.47,429.94L620.47,429.94L620.47,429.94L620.47,429.94L620.47,429.94L620.47,429.94L620.47,429.94
			L620.47,429.94L620.47,429.94L620.47,429.94L620.47,429.94L620.47,429.94L620.47,429.94L620.47,429.94L620.47,429.94
			L620.47,429.94L620.47,429.94L620.47,429.94L620.47,429.94L620.47,429.94L620.47,429.94L620.47,429.94L620.47,429.94
			L620.47,429.94L620.47,429.94L620.47,429.94L620.47,429.94L620.47,429.94c1.24-1.24,2.59-2.4,4.05-3.36
			c0.78-0.5,1.62-0.96,2.54-1.16c0.5-0.1,1.01-0.11,1.51-0.04c0.76,0.1,1.59,0.43,2.31,0.69c0.52,0.18,1.07,0.35,1.63,0.33
			c0.93-0.03,1.78-0.5,2.56-0.96c1.2-0.72,2.66-1.67,3.95-2.17c1.28-0.52,2.68-0.81,4.03-1.07c1.43-0.27,3.91-0.63,5.27-1.07
			c0.44-0.14,0.88-0.3,1.28-0.52c0.43-0.23,0.81-0.55,1.08-0.95c0.44-0.64,0.63-1.46,0.86-2.19c0.15-0.48,0.34-0.97,0.65-1.37
			c0.56-0.75,1.37-1.28,2.17-1.74c0.88-0.51,2.2-1.13,2.94-1.82c0.25-0.24,0.47-0.52,0.6-0.85c0.26-0.66,0.05-1.45-0.02-2.12
			c-0.05-0.45-0.09-0.94,0.14-1.36c0.14-0.25,0.36-0.45,0.58-0.63c0.5-0.39,1.12-0.73,1.56-1.19c0.29-0.3,0.52-0.66,0.63-1.07
			c0.15-0.5,0.19-1.04,0.19-1.56c0.02-1.3-0.21-2.74-0.07-4.03c0.05-0.4,0.14-0.8,0.36-1.14c0.2-0.3,0.49-0.52,0.81-0.68
			c0.5-0.27,1.25-0.44,1.8-0.62c0.55-0.18,1.1-0.39,1.55-0.76c0.8-0.66,1.24-1.67,1.41-2.68c0.2-1.18,0.09-2.4-0.25-3.54
			c-0.48-1.6-1.35-3.07-2.22-4.48c-0.97-1.59-2.24-3.38-2.81-5.16c-0.22-0.71-0.3-1.45-0.28-2.19c0.02-1.01,0.24-2.12,0.24-3.14
			c-0.01-1.89-0.78-3.69-1.55-5.39"/>
	</g>
</g>
<g id="_x32_D_x24_AG-ANIMALS">
	<g id="POLYLINE_00000018204113129162797320000003837947046565327514_">
		<path class="st125" d="M115.54,396.28c3.4,0.46,6.89,0.51,10.3,0.22c3.15-0.28,6.31-0.84,9.31-1.85c3.03-1,5.84-2.65,8.43-4.49
			c16.87-12.75,35.72-25.11,53.76-36.14c19.75-12,40.72-23.66,61.88-32.95c16.62-7.3,34.04-13.5,51.67-17.84
			c27.64-6.86,56.35-9.57,84.8-8.85c18.51,0.48,37.62,2.39,55.95,4.99c24.37,3.26,60.07,10.93,84.37,15.88
			c11.6,2.18,23.6,4.18,35.43,3.96c2.18-0.04,4.89-0.29,7-0.03c1.12,0.12,2.24,0.38,3.3,0.78c1.35,0.51,2.64,1.24,3.86,2.03
			c2.13,1.39,4.21,3.09,6.13,4.77c1.36,1.19,2.93,2.72,4.46,3.61c0.46,0.28,0.97,0.54,1.46,0.78c0.32,0.15,0.7,0.32,1.02,0.45
			c0,0,24.38,10.42,24.38,10.42c7.43,3.2,16.05,6.94,23.24,10.59c6.8,3.43,13.86,7.53,20.35,11.53c3.86,2.38,9.68,6.08,13.47,8.57
			c1.71,1.15,3.62,2.46,5.25,3.73c2.32,1.8,4.56,3.8,6.41,6.09c1.27,1.57,2.34,3.3,3.18,5.13c0.69,1.51,1.22,3.1,1.54,4.73
			c0.24,1.28,0.35,2.61,0.21,3.91c-0.09,0.77-0.28,1.54-0.59,2.25c-0.36,0.82-0.87,1.58-1.46,2.26"/>
	</g>
	<g id="POLYLINE_00000000915464475388142920000013882545615345768888_">
		<path class="st125" d="M151.39,407.31c-6.07,3.62-13.2,7.28-19.54,10.46c-8.91,4.47-18.29,8.85-27.72,12.08
			c-11.32,3.96-23.22,6.4-35.17,7.37c-4.91,0.39-9.96,0.57-14.88,0.24c-2.56-0.2-5.16-0.48-7.61-1.29
			c-0.78-0.27-1.56-0.61-2.22-1.11c-0.34-0.26-0.65-0.57-0.87-0.94c-0.21-0.35-0.3-0.77-0.21-1.17c0.08-0.37,0.31-0.69,0.58-0.95
			c0.51-0.5,1.15-0.85,1.79-1.16c0.79-0.38,1.66-0.72,2.49-1.02c2.71-0.97,6.7-2.17,9.32-3.29c3.96-1.65,7.7-3.87,11.1-6.49
			c4.97-3.8,9.72-8.98,14.45-13.07c2.23-1.93,4.61-3.79,7.14-5.32c2.45-1.48,5.12-2.68,7.77-3.74c1.65-0.69,5.48-2.01,7-2.93
			c0.21-0.13,0.42-0.28,0.59-0.47c0.11-0.12,0.2-0.25,0.25-0.4c0.15-0.41-0.07-0.84-0.29-1.18c-0.43-0.66-1.07-1.37-1.53-2.01
			c-0.34-0.45-0.65-0.94-0.9-1.45c-0.21-0.45-0.37-0.93-0.49-1.41c-0.31-1.26-0.41-2.74-0.71-4c-0.19-0.82-0.49-1.62-0.91-2.35
			c-0.93-1.65-2.47-3.13-3.59-4.65c-0.24-0.33-0.47-0.69-0.63-1.07c-0.13-0.32-0.21-0.68-0.12-1.01c0.04-0.13,0.1-0.25,0.19-0.36
			c0.1-0.12,0.24-0.22,0.38-0.29l0.03-0.01c0.35-0.17,0.74-0.24,1.13-0.28c0.74-0.07,1.51-0.03,2.25,0.04
			c1.69,0.16,3.44,0.48,5.1,0.83c3.37,0.71,7.32,1.75,10.66,2.65c10.26,2.81,20.7,6.03,30.43,10.36"/>
	</g>
	<g id="POLYLINE_00000075161719844470253260000001224433903772488123_">
		<path class="st125" d="M432.96,422.92c-18.27-1.4-119.23-7.28-135.06-9.53c-6.92-0.8-14.95-2.41-21.8-3.86
			c-1.36-0.26-2.79-0.56-4.18-0.57c-1.93-0.04-4.14,0.79-5.99,1.28c-2.76,0.77-5.64,1.22-8.51,1.18
			c-6.07-0.03-15.96-2.04-22.04-2.94c-3.26-0.48-6.66-0.9-9.95-0.92c-3.06-0.03-6.18,0.3-9.19,0.78
			c-2.67,0.45-10.17,1.76-12.71,2.08c-2.92,0.4-6.74,0.79-9.7,1.06c-17.36,1.47-35.87,1.87-53.3,1.86"/>
	</g>
	<g id="POLYLINE_00000038380672572777824000000005538771725567259282_">
		<path class="st125" d="M522.44,393.58c3.24-0.1,6.54-0.58,9.49-1.99c2.31-1.09,4.4-2.65,6.29-4.36c2.63-2.4,4.94-5.18,6.93-8.13
			l2.89-4.37c1.83-2.71,3.9-5.31,6.47-7.35c2.46-1.96,5.28-3.48,8.17-4.71c3.82-1.62,7.89-2.79,11.94-3.66
			c23.27-4.97,55.85-1.63,77.84,7.46c11.3,4.62,21.58,11.54,30.81,19.48c2.5,2.17,4.95,4.5,7.06,7.06c1.47,1.8,2.8,3.75,3.7,5.89
			c0.66,1.57,1.03,3.26,1.02,4.97c-0.01,2.38-0.77,4.73-2.02,6.75c-2.23,3.61-5.85,6.09-9.59,7.95c-4.23,2.09-8.84,3.53-13.39,4.77
			c-9.63,2.6-19.7,4.22-29.63,5.23c-9.36,0.95-19.54,1.43-28.95,1.64c-37.62,0.65-79.95-1.67-117.6-3.61"/>
	</g>
	<g id="POLYLINE_00000125568956893990587950000010807852592145385151_">
		<path class="st125" d="M497.66,410.92l0.49,1.17c0.48,1.21,0.91,2.47,0.99,3.78c0.07,1.02-0.09,2.05-0.43,3.02
			c-0.42,1.21-1.05,2.35-1.73,3.44c-1.11,1.75-2.47,3.48-3.77,5.1c-4.47,5.38-9.82,12.03-14.7,16.95c-3.64,3.7-7.63,7.19-11.9,10.15
			c-4.6,3.21-9.65,5.8-14.87,7.84c-4.98,1.94-10.22,3.51-15.47,4.5c-3.31,0.59-6.71,1.05-10.08,0.8c-1.02-0.09-2.06-0.26-3.01-0.66
			c-0.5-0.21-0.98-0.5-1.35-0.9c-0.24-0.26-0.43-0.56-0.53-0.9c-0.1-0.32-0.13-0.66-0.09-1c0.12-1,0.68-1.88,1.18-2.73
			c0.96-1.53,2.07-3.12,2.72-4.81c1.21-3.1,0.72-6.78,0.81-10.03c0.03-1.28,0.18-2.57,0.61-3.78c0.53-1.59,1.58-3.28,2.25-4.81
			c0.34-0.76,0.6-1.57,0.78-2.39c0.64-3.03,0.64-6.38,1.71-9.31c1.11-3.13,3.13-5.92,5.76-7.96c1.77-1.38,3.85-2.34,5.92-3.18
			l4.6-1.81c1.66-0.67,3.35-1.44,4.9-2.33c2.07-1.2,4.04-2.68,5.89-4.18c1.68-1.36,5.22-4.47,6.96-5.64c0.78-0.52,1.6-1,2.48-1.32
			c1.05-0.39,2.18-0.54,3.29-0.52c1.18,0.03,2.37,0.23,3.49,0.62"/>
	</g>
</g>
<g id="_x32_D_x24_AG-OUTLINE">
	<g id="POLYLINE_00000023992141336834681750000011141223006156790432_">
		<path class="st127" d="M146.65,387.9c-9.73-4.32-20.16-7.55-30.43-10.36c-3.34-0.9-7.28-1.95-10.66-2.65
			c-1.67-0.34-3.41-0.67-5.1-0.83c-0.74-0.06-1.51-0.11-2.25-0.04c-0.38,0.04-0.78,0.1-1.13,0.28l-0.03,0.01
			c-0.14,0.07-0.28,0.17-0.38,0.29c-0.09,0.11-0.16,0.24-0.2,0.39c-0.09,0.37,0.02,0.76,0.17,1.1c0.2,0.43,0.48,0.84,0.77,1.22
			c1.13,1.48,2.64,2.96,3.52,4.61c0.5,0.9,0.77,1.91,0.95,2.92c0.22,1.23,0.34,2.65,0.72,3.84c0.32,1.04,0.96,1.95,1.63,2.79
			c0.33,0.42,0.86,1.05,1.14,1.5c0.09,0.14,0.17,0.29,0.23,0.45c0.11,0.28,0.11,0.58-0.05,0.84c-0.15,0.26-0.39,0.45-0.64,0.62
			c-0.34,0.23-0.73,0.43-1.11,0.61c-0.95,0.47-4.96,1.99-6.03,2.42c-2.65,1.06-5.32,2.26-7.77,3.74c-2.53,1.53-4.91,3.38-7.14,5.32
			c-4.57,3.95-9.22,8.97-13.98,12.7c-4,3.16-8.48,5.74-13.26,7.53c-3.07,1.2-7.52,2.35-10.44,3.81c-0.52,0.28-1.04,0.59-1.47,1
			c-0.25,0.25-0.47,0.55-0.56,0.9c-0.1,0.37-0.03,0.78,0.14,1.11c0.17,0.33,0.41,0.61,0.69,0.85c0.45,0.4,0.98,0.7,1.53,0.94
			c0.95,0.42,1.96,0.7,2.97,0.92c1.62,0.35,3.32,0.55,4.97,0.69c7.82,0.57,15.77-0.06,23.52-1.08c9.72-1.31,19.37-3.69,28.59-7.01
			c11.82-4.17,23.78-10.25,34.92-15.99c18.62-0.01,38.2-0.41,56.73-2.19c5.6-0.5,13.37-1.85,18.97-2.82
			c3.02-0.48,6.14-0.81,9.19-0.78c3.29,0.01,6.69,0.44,9.95,0.92c6.14,0.91,15.93,2.91,22.04,2.94c2.87,0.04,5.75-0.41,8.51-1.18
			c1.91-0.51,4.14-1.34,6.12-1.28c1.34,0.03,2.72,0.32,4.04,0.57c3.22,0.67,9.58,2,12.76,2.53c3.88,0.67,8.56,1.29,12.47,1.73
			c12.08,1.66,117.03,8.03,131.63,9.12c-0.76,1.21-1.38,2.52-1.82,3.87c-0.34,1.05-0.57,2.17-0.74,3.26
			c-0.4,2.44-0.48,5.22-1.41,7.53c-0.86,2.15-2.34,4.22-2.79,6.52c-0.54,2.7-0.1,5.88-0.3,8.62c-0.08,1.23-0.26,2.47-0.67,3.64
			c-0.63,1.8-1.82,3.5-2.83,5.11c-0.51,0.85-1.08,1.76-1.19,2.76c-0.06,0.61,0.11,1.23,0.5,1.71c0.33,0.41,0.77,0.72,1.24,0.95
			c0.89,0.43,1.89,0.62,2.87,0.74c2.51,0.26,5.08,0.04,7.58-0.29c5.33-0.75,10.64-2.18,15.7-3.97c5.07-1.82,10.07-4.08,14.64-6.94
			c5.04-3.13,9.68-6.98,13.89-11.16c5.5-5.42,11.31-12.68,16.23-18.65c40.92,2.04,85.74,4.72,126.6,3.33
			c7.95-0.33,16.35-0.9,24.25-1.84c8.45-1.01,17.1-2.55,25.32-4.76c5.03-1.37,10.11-2.97,14.71-5.46c2.72-1.49,5.31-3.34,7.24-5.8
			c1.34-1.7,2.34-3.68,2.78-5.8c0.38-1.81,0.33-3.71-0.13-5.5c0.79-0.9,1.43-1.95,1.77-3.1c0.41-1.38,0.41-2.86,0.24-4.28
			c-0.41-3.11-1.64-6.08-3.31-8.72c-3.26-5.07-8.29-8.67-13.22-11.99c-13.92-9.12-28.48-18.04-43.7-24.82
			c-4.94-2.31-33-14.21-38.53-16.62c-0.5-0.23-1.03-0.5-1.51-0.78c-0.7-0.4-1.37-0.88-1.99-1.39c-1.57-1.33-3.58-3.19-5.2-4.47
			c-2.33-1.85-4.8-3.66-7.61-4.71c-1.06-0.38-2.17-0.62-3.29-0.73c-2.18-0.23-4.7,0-6.85,0.05c-11.83,0.22-23.83-1.78-35.43-3.96
			c-21.77-4.45-56.81-11.89-78.31-14.99c-14.09-2.13-29.07-3.92-43.29-4.96c-23.97-1.75-48.4-1.35-72.22,1.94
			c-17.12,2.34-34.19,6.18-50.64,11.48c-22.16,7.11-43.75,16.97-64.21,28c-15.96,8.62-33.01,18.93-48.27,28.76
			C168.54,372.36,156.65,380.28,146.65,387.9z"/>
	</g>
</g>
</svg>
