<?xml version="1.0" encoding="utf-8"?>
<!-- Generator: Adobe Illustrator 26.3.1, SVG Export Plug-In . SVG Version: 6.00 Build 0)  -->
<!DOCTYPE svg PUBLIC "-//W3C//DTD SVG 1.1//EN" "http://www.w3.org/Graphics/SVG/1.1/DTD/svg11.dtd" [
	<!ENTITY ns_extend "http://ns.adobe.com/Extensibility/1.0/">
	<!ENTITY ns_ai "http://ns.adobe.com/AdobeIllustrator/10.0/">
	<!ENTITY ns_graphs "http://ns.adobe.com/Graphs/1.0/">
	<!ENTITY ns_vars "http://ns.adobe.com/Variables/1.0/">
	<!ENTITY ns_imrep "http://ns.adobe.com/ImageReplacement/1.0/">
	<!ENTITY ns_sfw "http://ns.adobe.com/SaveForWeb/1.0/">
	<!ENTITY ns_custom "http://ns.adobe.com/GenericCustomNamespace/1.0/">
	<!ENTITY ns_adobe_xpath "http://ns.adobe.com/XPath/1.0/">
]>
<svg version="1.1" xmlns:x="&ns_extend;" xmlns:i="&ns_ai;" xmlns:graph="&ns_graphs;"
	 xmlns="http://www.w3.org/2000/svg" xmlns:xlink="http://www.w3.org/1999/xlink" x="0px" y="0px" width="750px" height="750px"
	 viewBox="0 0 750 750" enable-background="new 0 0 750 750" xml:space="preserve">
<metadata>
	<sfw  xmlns="&ns_sfw;">
		<slices></slices>
		<sliceSourceBounds  bottomLeftOrigin="true" height="4820.468" width="8440.828" x="-6582.828" y="1000"></sliceSourceBounds>
	</sfw>
</metadata>
<g id="FILL-BACKGROUND">
	<rect fill="#FFFFFF" width="750" height="750"/>
</g>
<g id="N-DIMENSIONS">
</g>
<g id="N-TEXT">
</g>
<g id="AG-DIAGRAM">
</g>
<g id="AG-PEOPLE">
</g>
<g id="AG-DETAILS">
	<g id="POLYLINE_330_">
		<path fill="none" stroke="#FB8604" stroke-width="2" stroke-linecap="round" stroke-linejoin="round" stroke-miterlimit="10" d="
			M427.03,440.649c-37.089-3.784-86.523-11.269-122.939-15.813"/>
	</g>
	<g id="POLYLINE_329_">
		<path fill="none" stroke="#FB8604" stroke-width="2" stroke-linecap="round" stroke-linejoin="round" stroke-miterlimit="10" d="
			M430.228,436.571c-27.277-2.112-88.131-10.889-115.926-14.48"/>
	</g>
	<g id="POLYLINE_328_">
		<path fill="none" stroke="#FB8604" stroke-width="2" stroke-linecap="round" stroke-linejoin="round" stroke-miterlimit="10" d="
			M434.768,430.443c-30.135-2.351-76.993-7.399-107.081-11.193"/>
	</g>
	<g id="POLYLINE_327_">
		<path fill="none" stroke="#FB8604" stroke-width="2" stroke-linecap="round" stroke-linejoin="round" stroke-miterlimit="10" d="
			M440.222,423.402c-28.528-2.689-68.162-3.55-96.34-7.935"/>
	</g>
	<g id="POLYLINE_326_">
		<path fill="none" stroke="#FB8604" stroke-width="2" stroke-linecap="round" stroke-linejoin="round" stroke-miterlimit="10" d="
			M445.27,416.884c-18.721-2.005-58.263-4.335-76.917-5.591"/>
	</g>
	<g id="POLYLINE_325_">
		<path fill="none" stroke="#FB8604" stroke-width="2" stroke-linecap="round" stroke-linejoin="round" stroke-miterlimit="10" d="
			M448.732,408.777c-10.533-1.671-40.057-2.55-50.971-3.184"/>
	</g>
	<g id="POLYLINE_324_">
		<path fill="none" stroke="#FB8604" stroke-width="2" stroke-linecap="round" stroke-linejoin="round" stroke-miterlimit="10" d="
			M562.835,448.829c-36.756,2.576-74.968-0.57-111.534-4.672"/>
	</g>
	<g id="POLYLINE_323_">
		<path fill="none" stroke="#FB8604" stroke-width="2" stroke-linecap="round" stroke-linejoin="round" stroke-miterlimit="10" d="
			M563.623,440.59c-15.741,5.272-34.455,5.106-49.654,4.408c-19.463-0.791-40.364-2.404-58.277-4.392"/>
	</g>
	<g id="POLYLINE_322_">
		<path fill="none" stroke="#FB8604" stroke-width="2" stroke-linecap="round" stroke-linejoin="round" stroke-miterlimit="10" d="
			M558.783,434.188c-26.697,10.549-84.846,3.316-98.746,2.273"/>
	</g>
	<g id="POLYLINE_321_">
		<path fill="none" stroke="#FB8604" stroke-width="2" stroke-linecap="round" stroke-linejoin="round" stroke-miterlimit="10" d="
			M556.569,425.342c-19.14,12.193-80.584,5.22-91.218,4.703"/>
	</g>
	<g id="POLYLINE_302_">
		<path fill="none" stroke="#FB8604" stroke-width="2" stroke-linecap="round" stroke-linejoin="round" stroke-miterlimit="10" d="
			M562.555,415.373c-12.644,0.26-17.811,8.516-33.967,8.667c-7.296,0.244-15.21-1.341-22.661-0.914
			c-11.974,1.177-24.473,3.6-36.532,0.304"/>
	</g>
	<g id="POLYLINE_301_">
		<path fill="none" stroke="#FB8604" stroke-width="2" stroke-linecap="round" stroke-linejoin="round" stroke-miterlimit="10" d="
			M555.899,409.318c-23.879,7.23-20.196,8.338-43.293,5.88c-13.179,0.627-26.633,5.881-39.881,0.91"/>
	</g>
	<g id="POLYLINE_300_">
		<path fill="none" stroke="#FB8604" stroke-width="2" stroke-linecap="round" stroke-linejoin="round" stroke-miterlimit="10" d="
			M540.854,408.444c-4.521,2.884-10.306,2.499-15.613,1.113c-5.251-0.677-9.562-0.316-16.687-0.301
			c-14.343-0.941-17.352,5.897-33.571,0.9"/>
	</g>
</g>
<g id="AG-ANIMALS">
	<g id="POLYLINE_570_">
		
			<path fill="none" stroke="#FB8604" stroke-width="2.75" stroke-linecap="round" stroke-linejoin="round" stroke-miterlimit="10" d="
			M661.592,400.295c0.222,4.373-1.787,8.734-6.354,10.953c-1.624,2.129-3.293,3.659-6.051,5.079"/>
	</g>
	<g id="POLYLINE_569_">
		
			<path fill="none" stroke="#FB8604" stroke-width="2.75" stroke-linecap="round" stroke-linejoin="round" stroke-miterlimit="10" d="
			M646.711,415.369c-2.489,2.647-5.58,5.062-9.693,5.178"/>
	</g>
	<g id="POLYLINE_568_">
		
			<path fill="none" stroke="#FB8604" stroke-width="2.75" stroke-linecap="round" stroke-linejoin="round" stroke-miterlimit="10" d="
			M646.711,415.369c3.64,1.671,10.633,2.994,10.388,8.607"/>
	</g>
	<g id="POLYLINE_567_">
		
			<path fill="none" stroke="#FB8604" stroke-width="2.75" stroke-linecap="round" stroke-linejoin="round" stroke-miterlimit="10" d="
			M559.015,404.724c11.946-3.911,30.727,6.604,41.781,8.887c13.341,3.503,26.109,4.074,40.684,8.058
			c28.032,6.433,55.748,0.949,11.273-7.686"/>
	</g>
	<g id="POLYLINE_566_">
		
			<path fill="none" stroke="#FB8604" stroke-width="2.75" stroke-linecap="round" stroke-linejoin="round" stroke-miterlimit="10" d="
			M654.11,412.65c5.584,0.624,25.682,4.737,25.502,9.788c-0.38,5.849-26.053,15.589-29.501,16.351
			c-12.98,3.722-15.425,3.496-35.474,7.228c-17.235,3.238-24.75,4.593-46.247,5.774c-41.146,3.888-82.616-2.021-120.842-4.985"/>
	</g>
	<g id="POLYLINE_565_">
		
			<path fill="none" stroke="#FB8604" stroke-width="2.75" stroke-linecap="round" stroke-linejoin="round" stroke-miterlimit="10" d="
			M142.151,413.496c-0.319-0.576-1.039-0.884-1.74-0.81c-8.94,1.118-22.275,2.78-30.276,3.861
			c-3.402,0.414-7.371,1.659-10.095,1.179c-0.464-0.298-0.122-0.829,0.155-1.233c0.946-1.311,1.819-2.728,3.309-3.898
			c19.018-13.951,40.312-22.429,63.556-29.111c13.59-4.581,41.605-9.231,54.57-15.865c3.666-3.023,1.341-6.691-3.354-7.455
			c-0.269-0.077-0.686-0.219-0.651-0.552c3.085-1.586,8.819-0.884,12.701-1.137c11.294-0.642,24.108-3.052,34.662-4.886
			c21.892-4.943,27.781-6.012,52.922-9.012c27.334-3.908,42.222-4.573,68.248-2.262c136.577,9.886,178.237,32.234,195.797,24.621
			c7.094,1.297,15.438,5.8,22.718,7.291c19.763,4.538,67.246,11.41,68.519,20.675c-0.794,2.234-3.371,2.843-5.683,3.723
			c-14.876,4.819-29.214,5.622-45.057,5.843c-42.265,0.318-34.33-4.693-54.13-3.456c-43.812,19.147-32.653-6.677-74.947,5.227
			c-4.66,0.676-9.634-0.134-14.464-1.393"/>
	</g>
	<g id="POLYLINE_564_">
		
			<path fill="none" stroke="#FB8604" stroke-width="2.75" stroke-linecap="round" stroke-linejoin="round" stroke-miterlimit="10" d="
			M142.151,413.496c1.448,2.953-4.652,5.028-6.701,7.556c-3.754,3.542-2.48,6.745-10.237,12.532
			c-10.252,7.76-21.43,13.364-34.426,14.654c-7.672,0.814-18.61,1.424-21.522-7.861c-0.12-0.48,0.022-1.003,0.401-1.368
			c1.879-1.186,1.317,1.533,8.224,1.792c1.404,0.127,2.899-0.235,3.952-1.461c5.124-2.624,4.371-9.505,4.955-15.012
			c0.391-1.949,2.081-3.055,3.364-4.736c-1.668-0.488-4.009,0.369-6.187-0.77c-3.246-1.283-7.217-6.832-14.966-9.162
			c-0.586-0.281-1.78-0.482-2.094-1.419c3.902-4.279,44.957-0.71,44.02-0.749"/>
	</g>
	<g id="POLYLINE_563_">
		
			<path fill="none" stroke="#FB8604" stroke-width="2.75" stroke-linecap="round" stroke-linejoin="round" stroke-miterlimit="10" d="
			M424.021,443.946c-39.457-5.717-87.707-14.013-126.667-16.615c-44.68-3.27-92.174,5.582-132.648,2.611
			c-13.728-0.811-21.913-0.115-32.842-3.405"/>
	</g>
	<g id="POLYLINE_562_">
		
			<path fill="none" stroke="#FB8604" stroke-width="2.75" stroke-linecap="round" stroke-linejoin="round" stroke-miterlimit="10" d="
			M481.621,403.635c-7.077,1.66-7.474,10.712-10.49,16.224c-10.526,24.183-37.423,37.389-62.234,42.071
			c-0.65-0.071-5.123,1.247-3.739-2.528c0.603-2.2,2.021-3.119,4.209-4.369c6.849-4.155,12.469-8.256,17.804-14.553
			c5.977-8.208,14.879-18.518,20.258-27.078c0.774-1.377,0.236-3.456,1.444-4.795c6.168-4.149,13.553-7.207,19.6-11.945"/>
	</g>
</g>
<g id="AG-OUTLINE">
	<g id="POLYLINE_62_">
		
			<path fill="none" stroke="#FB8604" stroke-width="3.5" stroke-linecap="round" stroke-linejoin="round" stroke-miterlimit="10" d="
			M110.934,407.492c48.774-30.982,109.746-31.531,112.453-42.664c0.384-2.768-2.684-4.226-5.195-4.688
			c-0.334-0.041-0.898-0.572-0.279-0.736c1.83-0.605,3.522-0.786,5.826-0.841c21.041-0.024,42.662-5.43,63.078-9.69
			c12.973-2.216,40.469-5.552,53.801-7.054c17.446-2.111,43.761,0.312,58.165,1.465c52.175,4.226,92.122,10.372,139.545,19.701
			c49.622,11.055,35.266,2.043,46.354,4.502c8.394,2.909,16.861,6.496,26.119,8.114c10.524,2.006,69.389,12.118,61.595,20.587
			c-2.596,2.56-7.925,2.747-10.796,4.374c0.057,4.157-1.783,8.535-6.102,10.48c-0.68,0.456-0.783,0.865-1.387,1.608
			c5.73,0.654,25.941,4.792,25.499,9.895c-2.62,8.638-37.041,19.088-42.557,19.448c-10.051,1.735-35.298,6.57-45.142,7.914
			c-19.632,1.816-38.544,3.279-59.135,3.244c-20.461-0.041-64.251-4.928-85.399-6.233c-12.653,7.798-26.62,13.843-41.409,15.113
			c-2.242-0.53-0.399-4.555,1.193-5.595c5.905-3.647,11.766-7.374,16.86-12.49c-155.133-24.827-150.981-16.606-233.643-13.354
			c-18.442-0.727-39.031,0.355-56.925-3.605c-2.532-0.772-1.187-0.447-2.659,1.179c-10.73,12.84-40.489,26.19-57.014,18.167
			c-0.915-0.351-5.831-4.935-4.159-7.272c1.275-1.6,3.685,3.04,10.826,1.397c1.088-0.91,2.432-1.681,3.612-2.758
			c2.601-3.659,2.335-8.654,2.719-13.292c0.297-2.043,2.311-3.139,3.375-4.928c-8.489,0.583-7.221-2.493-16.101-7.6
			c-2.145-1.456-4.95-1.662-7.02-3.361C65.979,404.048,113.066,407.402,110.934,407.492z"/>
	</g>
</g>
</svg>
