<?xml version="1.0" encoding="utf-8"?>
<!-- Generator: Adobe Illustrator 26.3.1, SVG Export Plug-In . SVG Version: 6.00 Build 0)  -->
<!DOCTYPE svg PUBLIC "-//W3C//DTD SVG 1.1//EN" "http://www.w3.org/Graphics/SVG/1.1/DTD/svg11.dtd" [
	<!ENTITY ns_extend "http://ns.adobe.com/Extensibility/1.0/">
	<!ENTITY ns_ai "http://ns.adobe.com/AdobeIllustrator/10.0/">
	<!ENTITY ns_graphs "http://ns.adobe.com/Graphs/1.0/">
	<!ENTITY ns_vars "http://ns.adobe.com/Variables/1.0/">
	<!ENTITY ns_imrep "http://ns.adobe.com/ImageReplacement/1.0/">
	<!ENTITY ns_sfw "http://ns.adobe.com/SaveForWeb/1.0/">
	<!ENTITY ns_custom "http://ns.adobe.com/GenericCustomNamespace/1.0/">
	<!ENTITY ns_adobe_xpath "http://ns.adobe.com/XPath/1.0/">
]>
<svg version="1.1" xmlns:x="&ns_extend;" xmlns:i="&ns_ai;" xmlns:graph="&ns_graphs;"
	 xmlns="http://www.w3.org/2000/svg" xmlns:xlink="http://www.w3.org/1999/xlink" x="0px" y="0px" width="750px" height="750px"
	 viewBox="0 0 750 750" style="enable-background:new 0 0 750 750;" xml:space="preserve">
<style type="text/css">
	.st0{fill:#FFFFFF;}
	.st1{fill:#FB8604;}
	.st2{fill:none;stroke:#FB8604;stroke-width:2;stroke-linecap:round;stroke-linejoin:round;stroke-miterlimit:10;}
	.st3{fill:none;stroke:#FB8604;stroke-width:2;stroke-linecap:round;stroke-linejoin:round;}
	.st4{fill:none;stroke:#FB8604;stroke-width:2;stroke-linecap:round;stroke-linejoin:round;stroke-dasharray:2.8868,4.8113;}
	.st5{fill:none;stroke:#FB8604;stroke-width:2;stroke-linecap:round;stroke-linejoin:round;stroke-dasharray:3.2,5.3333;}
	.st6{fill:none;stroke:#FB8604;stroke-width:2;stroke-linecap:round;stroke-linejoin:round;stroke-dasharray:2.7333,4.5556;}
	.st7{fill:none;stroke:#FB8604;stroke-width:2;stroke-linecap:round;stroke-linejoin:round;stroke-dasharray:2.5521,4.2535;}
	.st8{fill:none;stroke:#FB8604;stroke-width:2;stroke-linecap:round;stroke-linejoin:round;stroke-dasharray:3,5;}
	.st9{fill:none;stroke:#FB8604;stroke-width:2;stroke-linecap:round;stroke-linejoin:round;stroke-dasharray:3.2261,5.3768;}
	.st10{fill:none;stroke:#FB8604;stroke-width:2;stroke-linecap:round;stroke-linejoin:round;stroke-dasharray:2.913,4.8551;}
	.st11{fill:none;stroke:#FB8604;stroke-width:2;stroke-linecap:round;stroke-linejoin:round;stroke-dasharray:2.9189,4.8649;}
	.st12{fill:none;stroke:#FB8604;stroke-width:2;stroke-linecap:round;stroke-linejoin:round;stroke-dasharray:3.0724,5.1207;}
	.st13{fill:none;stroke:#FB8604;stroke-width:2.5;stroke-linecap:round;stroke-linejoin:round;}
	.st14{fill:none;stroke:#FB8604;stroke-width:2.5;stroke-linecap:round;stroke-linejoin:round;stroke-dasharray:3.1455,5.2425;}
	.st15{fill:none;stroke:#FB8604;stroke-width:2.5;stroke-linecap:round;stroke-linejoin:round;stroke-dasharray:2.38,3.9667;}
	.st16{fill:none;stroke:#FB8604;stroke-width:2.5;stroke-linecap:round;stroke-linejoin:round;stroke-dasharray:2.2549,3.7582;}
	.st17{fill:none;stroke:#FB8604;stroke-width:2.5;stroke-linecap:round;stroke-linejoin:round;stroke-dasharray:2.4292,4.0487;}
	.st18{fill:none;stroke:#FB8604;stroke-width:2.5;stroke-linecap:round;stroke-linejoin:round;stroke-dasharray:2.9004,4.834;}
	.st19{fill:none;stroke:#FB8604;stroke-width:2.5;stroke-linecap:round;stroke-linejoin:round;stroke-dasharray:2.8406,4.7343;}
	.st20{fill:none;stroke:#FB8604;stroke-width:2.5;stroke-linecap:round;stroke-linejoin:round;stroke-dasharray:3.0022,5.0036;}
	.st21{fill:none;stroke:#FB8604;stroke-width:2.5;stroke-linecap:round;stroke-linejoin:round;stroke-dasharray:2.902,4.8366;}
	.st22{fill:none;stroke:#FB8604;stroke-width:2.5;stroke-linecap:round;stroke-linejoin:round;stroke-dasharray:2.9975,4.9958;}
	.st23{fill:none;stroke:#FB8604;stroke-width:2.5;stroke-linecap:round;stroke-linejoin:round;stroke-dasharray:3.0105,5.0175;}
	.st24{fill:none;stroke:#FB8604;stroke-width:2.5;stroke-linecap:round;stroke-linejoin:round;stroke-dasharray:2.1919,3.6532;}
	.st25{fill:none;stroke:#FB8604;stroke-width:2.5;stroke-linecap:round;stroke-linejoin:round;stroke-dasharray:2.5854,4.309;}
	.st26{fill:none;stroke:#FB8604;stroke-width:2.5;stroke-linecap:round;stroke-linejoin:round;stroke-dasharray:1.5937,2.6561;}
	.st27{fill:none;stroke:#FB8604;stroke-width:2.5;stroke-linecap:round;stroke-linejoin:round;stroke-dasharray:3.6573,6.0956;}
	.st28{fill:none;stroke:#FB8604;stroke-width:2.5;stroke-linecap:round;stroke-linejoin:round;stroke-dasharray:2.949,4.915;}
	.st29{fill:none;stroke:#FB8604;stroke-width:2.5;stroke-linecap:round;stroke-linejoin:round;stroke-dasharray:2.8177,4.6961;}
	.st30{fill:none;stroke:#FB8604;stroke-width:2.5;stroke-linecap:round;stroke-linejoin:round;stroke-dasharray:2.8606,4.7676;}
	.st31{fill:none;stroke:#FB8604;stroke-width:2.5;stroke-linecap:round;stroke-linejoin:round;stroke-dasharray:2.3915,3.9859;}
	.st32{fill:none;stroke:#FB8604;stroke-width:2.5;stroke-linecap:round;stroke-linejoin:round;stroke-dasharray:2.266,3.7767;}
	.st33{fill:none;stroke:#FB8604;stroke-width:2.5;stroke-linecap:round;stroke-linejoin:round;stroke-dasharray:2.441,4.0683;}
	.st34{fill:none;stroke:#FB8604;stroke-width:2.5;stroke-linecap:round;stroke-linejoin:round;stroke-dasharray:2.9122,4.8536;}
	.st35{fill:none;stroke:#FB8604;stroke-width:2.5;stroke-linecap:round;stroke-linejoin:round;stroke-dasharray:2.8522,4.7536;}
	.st36{fill:none;stroke:#FB8604;stroke-width:2.5;stroke-linecap:round;stroke-linejoin:round;stroke-dasharray:3.0069,5.0114;}
	.st37{fill:none;stroke:#FB8604;stroke-width:2.5;stroke-linecap:round;stroke-linejoin:round;stroke-dasharray:3.0029,5.0049;}
	.st38{fill:none;stroke:#FB8604;stroke-width:2.5;stroke-linecap:round;stroke-linejoin:round;stroke-dasharray:2.9464,4.9107;}
	.st39{fill:none;stroke:#FB8604;stroke-width:2.5;stroke-linecap:round;stroke-linejoin:round;stroke-dasharray:2.9635,4.9392;}
	.st40{fill:none;stroke:#FB8604;stroke-width:2.5;stroke-linecap:round;stroke-linejoin:round;stroke-dasharray:1.8274,3.0456;}
	.st41{fill:none;stroke:#FB8604;stroke-width:2.5;stroke-linecap:round;stroke-linejoin:round;stroke-dasharray:2.8261,4.7101;}
	.st42{fill:none;stroke:#FB8604;stroke-width:2.5;stroke-linecap:round;stroke-linejoin:round;stroke-dasharray:2.0201,3.3668;}
	.st43{fill:none;stroke:#FB8604;stroke-width:2.5;stroke-linecap:round;stroke-linejoin:round;stroke-dasharray:3.0195,5.0325;}
	.st44{fill:none;stroke:#FB8604;stroke-width:2.5;stroke-linecap:round;stroke-linejoin:round;stroke-dasharray:2.3062,3.8437;}
	.st45{fill:none;stroke:#FB8604;stroke-width:2.5;stroke-linecap:round;stroke-linejoin:round;stroke-dasharray:2.8758,4.793;}
	.st46{fill:none;stroke:#FB8604;stroke-width:2.5;stroke-linecap:round;stroke-linejoin:round;stroke-dasharray:3.1883,5.3139;}
	.st47{fill:none;stroke:#FB8604;stroke-width:2.5;stroke-linecap:round;stroke-linejoin:round;stroke-dasharray:2.9919,4.9865;}
	.st48{fill:none;stroke:#FB8604;stroke-width:2.5;stroke-linecap:round;stroke-linejoin:round;stroke-dasharray:2.9875,4.9792;}
	.st49{fill:none;stroke:#FB8604;stroke-width:2.5;stroke-linecap:round;stroke-linejoin:round;stroke-dasharray:3.0312,5.052;}
	.st50{fill:none;stroke:#FB8604;stroke-width:2.5;stroke-linecap:round;stroke-linejoin:round;stroke-dasharray:2.99,4.9834;}
	.st51{fill:none;stroke:#FB8604;stroke-width:2.5;stroke-linecap:round;stroke-linejoin:round;stroke-dasharray:2.9978,4.9963;}
	.st52{fill:none;stroke:#FB8604;stroke-width:2.5;stroke-linecap:round;stroke-linejoin:round;stroke-dasharray:2.9926,4.9877;}
	.st53{fill:none;stroke:#FB8604;stroke-width:2.5;stroke-linecap:round;stroke-linejoin:round;stroke-dasharray:2.5289,4.2148;}
	.st54{fill:none;stroke:#FB8604;stroke-width:2.5;stroke-linecap:round;stroke-linejoin:round;stroke-dasharray:2.3977,3.9962;}
	.st55{fill:none;stroke:#FB8604;stroke-width:2.5;stroke-linecap:round;stroke-linejoin:round;stroke-dasharray:2.5804,4.3007;}
	.st56{fill:none;stroke:#FB8604;stroke-width:2.5;stroke-linecap:round;stroke-linejoin:round;stroke-dasharray:3.0527,5.0878;}
	.st57{fill:none;stroke:#FB8604;stroke-width:2.5;stroke-linecap:round;stroke-linejoin:round;stroke-dasharray:2.9902,4.9837;}
	.st58{fill:none;stroke:#FB8604;stroke-width:2.5;stroke-linecap:round;stroke-linejoin:round;stroke-dasharray:2.9932,4.9887;}
	.st59{fill:none;stroke:#FB8604;stroke-width:2.5;stroke-linecap:round;stroke-linejoin:round;stroke-dasharray:2.2364,3.7274;}
	.st60{fill:none;stroke:#FB8604;stroke-width:2.5;stroke-linecap:round;stroke-linejoin:round;stroke-dasharray:2.117,3.5284;}
	.st61{fill:none;stroke:#FB8604;stroke-width:2.5;stroke-linecap:round;stroke-linejoin:round;stroke-dasharray:2.2826,3.8043;}
	.st62{fill:none;stroke:#FB8604;stroke-width:2.5;stroke-linecap:round;stroke-linejoin:round;stroke-dasharray:2.7537,4.5895;}
	.st63{fill:none;stroke:#FB8604;stroke-width:2.5;stroke-linecap:round;stroke-linejoin:round;stroke-dasharray:2.6967,4.4945;}
	.st64{fill:none;stroke:#FB8604;stroke-width:2.5;stroke-linecap:round;stroke-linejoin:round;stroke-dasharray:3.013,5.0216;}
	.st65{fill:none;stroke:#FB8604;stroke-width:2.5;stroke-linecap:round;stroke-linejoin:round;stroke-dasharray:3,5;}
	.st66{fill:none;stroke:#FB8604;stroke-width:2.5;stroke-linecap:round;stroke-linejoin:round;stroke-dasharray:2.8521,4.7535;}
	.st67{fill:none;stroke:#FB8604;stroke-width:2.5;stroke-linecap:round;stroke-linejoin:round;stroke-dasharray:3.015,5.025;}
	.st68{fill:none;stroke:#FB8604;stroke-width:2.5;stroke-linecap:round;stroke-linejoin:round;stroke-dasharray:2.0573,3.4289;}
	.st69{fill:none;stroke:#FB8604;stroke-width:2.5;stroke-linecap:round;stroke-linejoin:round;stroke-dasharray:2.4448,4.0747;}
	.st70{fill:none;stroke:#FB8604;stroke-width:2.5;stroke-linecap:round;stroke-linejoin:round;stroke-dasharray:3.4544,5.7574;}
	.st71{fill:none;stroke:#FB8604;stroke-width:2.5;stroke-linecap:round;stroke-linejoin:round;stroke-dasharray:2.7999,4.6666;}
	.st72{fill:none;stroke:#FB8604;stroke-width:2.5;stroke-linecap:round;stroke-linejoin:round;stroke-dasharray:2.6539,4.4232;}
	.st73{fill:none;stroke:#FB8604;stroke-width:2.5;stroke-linecap:round;stroke-linejoin:round;stroke-dasharray:2.9854,4.9756;}
	.st74{fill:none;stroke:#FB8604;stroke-width:2.5;stroke-linecap:round;stroke-linejoin:round;stroke-dasharray:2.9624,4.9373;}
	.st75{fill:none;stroke:#FB8604;stroke-width:2.5;stroke-linecap:round;stroke-linejoin:round;stroke-dasharray:3.0011,5.0019;}
	.st76{fill:none;stroke:#FB8604;stroke-width:2.5;stroke-linecap:round;stroke-linejoin:round;stroke-dasharray:2.9763,4.9605;}
	.st77{fill:none;stroke:#FB8604;stroke-width:2.5;stroke-linecap:round;stroke-linejoin:round;stroke-dasharray:2.752,4.5866;}
	.st78{fill:none;stroke:#FB8604;stroke-width:2.5;stroke-linecap:round;stroke-linejoin:round;stroke-dasharray:3.616,6.0267;}
	.st79{fill:none;stroke:#FB8604;stroke-width:2.5;stroke-linecap:round;stroke-linejoin:round;stroke-dasharray:2.9602,4.9336;}
	.st80{fill:none;stroke:#FB8604;stroke-width:2.5;stroke-linecap:round;stroke-linejoin:round;stroke-dasharray:3.4336,5.7227;}
	.st81{fill:none;stroke:#FB8604;stroke-width:2.5;stroke-linecap:round;stroke-linejoin:round;stroke-dasharray:1.9985,3.3309;}
	.st82{fill:none;stroke:#FB8604;stroke-width:2.5;stroke-linecap:round;stroke-linejoin:round;stroke-dasharray:2.4594,4.099;}
	.st83{fill:none;stroke:#FB8604;stroke-width:2.5;stroke-linecap:round;stroke-linejoin:round;stroke-dasharray:2.7161,4.5269;}
	.st84{fill:none;stroke:#FB8604;stroke-width:2.5;stroke-linecap:round;stroke-linejoin:round;stroke-dasharray:2.788,4.6466;}
	.st85{fill:none;stroke:#FB8604;stroke-width:2.5;stroke-linecap:round;stroke-linejoin:round;stroke-dasharray:2.041,3.4017;}
	.st86{fill:none;stroke:#FB8604;stroke-width:2.5;stroke-linecap:round;stroke-linejoin:round;stroke-dasharray:3.0618,5.1029;}
	.st87{fill:none;stroke:#FB8604;stroke-width:2.5;stroke-linecap:round;stroke-linejoin:round;stroke-dasharray:2.9346,4.891;}
	.st88{fill:none;stroke:#FB8604;stroke-width:2.5;stroke-linecap:round;stroke-linejoin:round;stroke-dasharray:3.0108,5.0181;}
	.st89{fill:none;stroke:#FB8604;stroke-width:2.5;stroke-linecap:round;stroke-linejoin:round;stroke-dasharray:2.9662,4.9436;}
	.st90{fill:none;stroke:#FB8604;stroke-width:2.5;stroke-linecap:round;stroke-linejoin:round;stroke-dasharray:3.0816,5.1361;}
	.st91{fill:none;stroke:#FB8604;stroke-width:2.5;stroke-linecap:round;stroke-linejoin:round;stroke-dasharray:2.9292,4.882;}
	.st92{fill:none;stroke:#FB8604;stroke-width:2.5;stroke-linecap:round;stroke-linejoin:round;stroke-dasharray:3.1434,5.239;}
	.st93{fill:none;stroke:#FB8604;stroke-width:2.5;stroke-linecap:round;stroke-linejoin:round;stroke-dasharray:2.9751,4.9584;}
	.st94{fill:none;stroke:#FB8604;stroke-width:2.5;stroke-linecap:round;stroke-linejoin:round;stroke-dasharray:2.9148,4.858;}
	.st95{fill:none;stroke:#FB8604;stroke-width:2.5;stroke-linecap:round;stroke-linejoin:round;stroke-dasharray:2.9955,4.9925;}
	.st96{fill:none;stroke:#FB8604;stroke-width:2.5;stroke-linecap:round;stroke-linejoin:round;stroke-dasharray:2.9503,4.9172;}
	.st97{fill:none;stroke:#FB8604;stroke-width:2.5;stroke-linecap:round;stroke-linejoin:round;stroke-dasharray:2.9995,4.9992;}
	.st98{fill:none;stroke:#FB8604;stroke-width:2.5;stroke-linecap:round;stroke-linejoin:round;stroke-dasharray:2.9952,4.992;}
	.st99{fill:none;stroke:#FB8604;stroke-width:2.5;stroke-linecap:round;stroke-linejoin:round;stroke-dasharray:2.9573,4.9289;}
	.st100{fill:none;stroke:#FB8604;stroke-width:2.5;stroke-linecap:round;stroke-linejoin:round;stroke-dasharray:2.4922,4.1537;}
	.st101{fill:none;stroke:#FB8604;stroke-width:2.5;stroke-linecap:round;stroke-linejoin:round;stroke-dasharray:2.3625,3.9376;}
	.st102{fill:none;stroke:#FB8604;stroke-width:2.5;stroke-linecap:round;stroke-linejoin:round;stroke-dasharray:2.5432,4.2386;}
	.st103{fill:none;stroke:#FB8604;stroke-width:2.5;stroke-linecap:round;stroke-linejoin:round;stroke-dasharray:3.0152,5.0253;}
	.st104{fill:none;stroke:#FB8604;stroke-width:2.5;stroke-linecap:round;stroke-linejoin:round;stroke-dasharray:2.9534,4.9224;}
	.st105{fill:none;stroke:#FB8604;stroke-width:2.5;stroke-linecap:round;stroke-linejoin:round;stroke-dasharray:3.0508,5.0846;}
	.st106{fill:none;stroke:#FB8604;stroke-width:2.5;stroke-linecap:round;stroke-linejoin:round;stroke-dasharray:3.0019,5.0032;}
	.st107{fill:none;stroke:#FB8604;stroke-width:2.5;stroke-linecap:round;stroke-linejoin:round;stroke-dasharray:2.8103,4.6838;}
	.st108{fill:none;stroke:#FB8604;stroke-width:2.5;stroke-linecap:round;stroke-linejoin:round;stroke-dasharray:2.9153,4.8589;}
	.st109{fill:none;stroke:#FB8604;stroke-width:2.5;stroke-linecap:round;stroke-linejoin:round;stroke-dasharray:2.6596,4.4327;}
	.st110{fill:none;stroke:#FB8604;stroke-width:2.5;stroke-linecap:round;stroke-linejoin:round;stroke-dasharray:2.0332,3.3886;}
	.st111{fill:none;stroke:#FB8604;stroke-width:2.5;stroke-linecap:round;stroke-linejoin:round;stroke-dasharray:3.0931,5.1552;}
	.st112{fill:none;stroke:#FB8604;stroke-width:2.5;stroke-linecap:round;stroke-linejoin:round;stroke-dasharray:3.0402,5.067;}
	.st113{fill:none;stroke:#FB8604;stroke-width:2.5;stroke-linecap:round;stroke-linejoin:round;stroke-dasharray:2.9774,4.9623;}
	.st114{fill:none;stroke:#FB8604;stroke-width:2.5;stroke-linecap:round;stroke-linejoin:round;stroke-dasharray:2.9698,4.9497;}
	.st115{fill:none;stroke:#FB8604;stroke-width:2.5;stroke-linecap:round;stroke-linejoin:round;stroke-dasharray:3.0558,5.093;}
	.st116{fill:none;stroke:#FB8604;stroke-width:2.5;stroke-linecap:round;stroke-linejoin:round;stroke-dasharray:2.5316,4.2194;}
	.st117{fill:none;stroke:#FB8604;stroke-width:2.5;stroke-linecap:round;stroke-linejoin:round;stroke-dasharray:1.5067,2.5112;}
	.st118{fill:none;stroke:#FB8604;stroke-width:2.5;stroke-linecap:round;stroke-linejoin:round;stroke-dasharray:2.4118,4.0197;}
	.st119{fill:none;stroke:#FB8604;stroke-width:2.5;stroke-linecap:round;stroke-linejoin:round;stroke-dasharray:1.6749,2.7915;}
	.st120{fill:none;stroke:#FB8604;stroke-width:2.5;stroke-linecap:round;stroke-linejoin:round;stroke-dasharray:2.5801,4.3001;}
	.st121{fill:none;stroke:#FB8604;stroke-width:2.5;stroke-linecap:round;stroke-linejoin:round;stroke-dasharray:1.9241,3.2069;}
	.st122{fill:none;stroke:#FB8604;stroke-width:2.5;stroke-linecap:round;stroke-linejoin:round;stroke-dasharray:2.8201,4.7001;}
	.st123{fill:none;stroke:#FB8604;stroke-width:2.5;stroke-linecap:round;stroke-linejoin:round;stroke-dasharray:3.181,5.3016;}
	.st124{fill:none;stroke:#FB8604;stroke-width:1.5;stroke-linecap:round;stroke-linejoin:round;stroke-miterlimit:10;}
	.st125{fill:none;stroke:#FB8604;stroke-width:2.75;stroke-linecap:round;stroke-linejoin:round;stroke-miterlimit:10;}
	.st126{fill:none;stroke:#FB8604;stroke-width:2.25;stroke-linecap:round;stroke-linejoin:round;stroke-miterlimit:10;}
	.st127{fill:none;stroke:#FB8604;stroke-width:3.5;stroke-linecap:round;stroke-linejoin:round;stroke-miterlimit:10;}
	.st128{fill:none;stroke:#FB8604;stroke-width:3;stroke-linecap:round;stroke-linejoin:round;stroke-miterlimit:10;}
</style>
<metadata>
	<sfw  xmlns="&ns_sfw;">
		<slices></slices>
		<sliceSourceBounds  bottomLeftOrigin="true" height="9750" width="5207.29" x="-2000" y="-1314"></sliceSourceBounds>
	</sfw>
</metadata>
<g id="FILL-BACKGROUND">
	<rect class="st0" width="750" height="750"/>
</g>
<g id="N-DIMENSIONS">
</g>
<g id="N-TEXT">
</g>
<g id="_x32_D_x24_AG-DETAILS-DIAGRAM">
</g>
<g id="_x32_D_x24_AG-DETAILS">
	<g id="POLYLINE_00000096742852107247394900000010358731233791462028_">
		<path class="st2" d="M317.68,435l-0.04-0.82c-0.03-1.01-0.04-2.15,0.56-3.01c0.24-0.34,0.58-0.58,0.96-0.75
			c0.69-0.31,1.45-0.43,2.19-0.51c2.96-0.26,6.17,0.2,9.12-0.17c1.55-0.18,3.08-0.6,4.45-1.36c2.45-1.37,4.48-3.76,6.7-5.45
			c0.92-0.71,1.92-1.34,3.03-1.7c2.03-0.69,4.25-0.41,6.19,0.42c2.18,0.91,4.42,2.68,6.37,4.01c1.61,1.1,3.31,2.16,5.2,2.69
			c2.3,0.65,4.75,0.56,7.07,0.09c1.95-0.36,4.16-1.22,6.03-1.89c1.21-0.42,2.47-0.77,3.75-0.94c2.33-0.32,4.73-0.19,7.02,0.36
			c2.24,0.54,4.54,1.65,6.69,2.46c1.61,0.6,3.31,1.16,5.04,1.05c1.17-0.07,2.3-0.45,3.38-0.87c1.75-0.7,3.67-1.6,5.54-1.82
			c3.2-0.39,6.49,0.63,9.68,0.55c0.61-0.02,1.23-0.09,1.82-0.25c0.68-0.18,1.33-0.48,1.94-0.83c1.52-0.87,2.94-2.15,4.49-2.99
			c2.22-1.19,4.78-1.74,7.3-1.69c2.55,0.04,4.99,0.91,7.2,2.14c1.44,0.77,3.12,1.89,4.73,2.23c0.6,0.13,1.23,0.1,1.84,0.01
			c0.7-0.1,1.49-0.27,2.19-0.24c0.49,0.01,0.98,0.11,1.44,0.28c1.21,0.46,2.28,1.25,3.22,2.13c1.12,1.06,2.11,2.28,2.8,3.66"/>
	</g>
</g>
<g id="_x32_D_x24_AG-ANIMALS">
	<g id="POLYLINE_00000016051799342148811260000003686008702052730258_">
		<path class="st125" d="M528.76,362.76c-0.86,0.3-1.79,0.45-2.7,0.32c-0.68-0.09-1.35-0.33-1.97-0.63
			c-0.64-0.31-1.26-0.7-1.83-1.13c-0.62-0.48-1.21-1.03-1.64-1.7c-0.29-0.45-0.47-0.97-0.4-1.51c0.1-0.82,0.65-1.5,1.2-2.08
			c0.79-0.81,1.76-1.62,2.19-2.69c0.3-0.7,0.36-1.48,0.41-2.23c0.05-1.02,0.06-2.38,0.27-3.37c0.13-0.63,0.37-1.26,0.78-1.76
			c0.37-0.46,0.86-0.82,1.38-1.1c0.75-0.41,1.58-0.67,2.41-0.87c1.34-0.32,2.75-0.47,4.12-0.58c1.43-0.11,2.89-0.12,4.29,0.22
			c1.23,0.3,2.48,0.81,3.36,1.76c1.42,1.51,1.05,3.87,2.08,5.58c0.36,0.65,0.93,1.27,1.05,2.03c0.06,0.41-0.04,0.84-0.2,1.22
			c-0.34,0.79-0.96,1.45-1.69,1.89c-0.92,0.55-2.11,0.76-3.14,1.03c-0.5,0.13-1,0.29-1.47,0.51c-0.59,0.28-1.14,0.64-1.67,1.01
			C533.45,360.18,531.24,361.86,528.76,362.76z"/>
	</g>
	<g id="POLYLINE_00000112591445050353988770000015378307114555407289_">
		<path class="st125" d="M670.64,347.85c0.45,1.66,0.71,3.38,0.79,5.1"/>
	</g>
	<g id="POLYLINE_00000167380399046034019840000013258391483925654401_">
		<path class="st125" d="M639.68,327.43c3.25,1.12,7.53,2.62,10.72,3.87"/>
	</g>
	<g id="POLYLINE_00000011732378331680321550000001187613747218782613_">
		<path class="st125" d="M608.52,319.16c6.51,1.07,13.16,2.7,19.49,4.55"/>
	</g>
	<g id="POLYLINE_00000139274665133627767580000012852734639660411064_">
		<path class="st125" d="M566.96,314.01c2.11,0.76,4.34,1.29,6.54,1.66c6.55,1.11,16.01,1.5,22.71,2.03"/>
	</g>
	<g id="POLYLINE_00000056401985464208238130000002758783553747453587_">
		<path class="st125" d="M612.66,326.47c3.06-0.1,6.3-0.13,9.35,0.06c1.79,0.12,3.61,0.32,5.35,0.77c1,0.26,1.99,0.61,2.92,1.04
			c1.12,0.52,2.21,1.18,3.23,1.88c4.77,3.2,15.04,11.99,19.65,15.68c3.5,2.75,7.3,5.53,11.79,6.26c2.11,0.37,4.51,0.36,6.6,0.81
			c0.67,0.15,1.35,0.37,1.94,0.75c0.69,0.43,1.19,1.11,1.46,1.86c0.29,0.77,0.36,1.61,0.3,2.43c-0.1,1.2-0.5,2.37-1.11,3.39
			c-0.61,1.02-1.42,1.9-2.31,2.68c-1.59,1.4-3.43,2.5-5.3,3.47c-3.07,1.57-6.39,2.83-9.65,3.96c-3.46,1.15-10.81,3.54-14.13,4.83
			c-10.03,3.86-34.63,14.58-44.54,18.4c-21.52,8.54-44.18,15.8-66.58,21.65"/>
	</g>
	<g id="POLYLINE_00000046305474861456769030000012680632256762078637_">
		<path class="st125" d="M535.93,377.45c1.65-0.36,3.48-0.72,5.03-1.39c1.15-0.48,2.22-1.15,3.15-1.98
			c1.69-1.54,2.93-3.52,4.01-5.52c2.17-4.12,3.69-8.63,4.96-13.1c0.6-2.19,1.73-6.72,2.42-8.81c0.7-2.15,1.58-4.28,2.9-6.12
			c1.59-2.24,3.82-3.95,6.22-5.25c3.05-1.65,6.38-2.75,9.71-3.65"/>
	</g>
	<g id="POLYLINE_00000137101197697622694270000018062231175293386660_">
		<path class="st125" d="M638.44,369.14c-0.75-0.05-1.74-0.01-2.46-0.24c-0.19-0.06-0.37-0.15-0.52-0.29
			c-0.17-0.16-0.28-0.37-0.35-0.59c-0.13-0.42-0.15-0.86-0.17-1.29c-0.01-0.45,0.02-0.93,0.23-1.34c0.1-0.19,0.25-0.36,0.41-0.51
			c0.39-0.36,1.03-0.73,1.47-1.03c0.41-0.27,0.94-0.71,1.33-1.02c0.33-0.25,0.67-0.51,1.07-0.63c0.29-0.09,0.61-0.1,0.9-0.02
			c0.35,0.09,0.67,0.27,0.96,0.49c0.34,0.25,0.65,0.55,0.92,0.87c0.33,0.4,0.66,0.86,0.76,1.38c0.07,0.33-0.02,0.68-0.08,1
			c-0.14,0.6,0.1,1.23,0.07,1.83c-0.02,0.48-0.2,0.98-0.63,1.23c-0.23,0.14-0.5,0.21-0.77,0.25c-0.5,0.07-1.03,0.05-1.53,0.02
			C639.72,369.23,638.79,369.16,638.44,369.14z"/>
	</g>
	<g id="POLYLINE_00000060020314638579242390000014008488825154740908_">
		<path class="st125" d="M615.44,373.05c-0.34-0.41-0.64-0.86-0.85-1.35c-0.13-0.3-0.23-0.62-0.19-0.94
			c0.02-0.22,0.11-0.43,0.24-0.6c0.16-0.22,0.39-0.38,0.62-0.52l0.59-0.35c0.26-0.16,0.52-0.34,0.72-0.57
			c0.19-0.22,0.33-0.54,0.45-0.81c0.12-0.24,0.26-0.5,0.53-0.6c0.15-0.06,0.32-0.05,0.48-0.03c0.43,0.07,0.84,0.25,1.23,0.46
			c0.55,0.3,1.07,0.66,1.52,1.11c0.2,0.21,0.4,0.44,0.49,0.72c0.07,0.22,0.03,0.45-0.08,0.64c-0.06,0.11-0.13,0.21-0.21,0.31
			c-0.24,0.29-0.58,0.62-0.83,0.9c-0.19,0.21-0.37,0.43-0.52,0.66c-0.13,0.19-0.26,0.46-0.36,0.67c-0.12,0.24-0.27,0.47-0.49,0.63
			c-0.32,0.23-0.73,0.3-1.12,0.34c-0.35,0.03-0.71,0.02-1.06-0.03c-0.19-0.03-0.38-0.07-0.56-0.14
			C615.81,373.44,615.61,373.25,615.44,373.05z"/>
	</g>
	<g id="POLYLINE_00000030477444336048469260000001554764545817503135_">
		<path class="st125" d="M600.21,379.74c-0.27-0.08-0.52-0.23-0.75-0.38c-0.4-0.27-0.76-0.61-1.09-0.95
			c-0.31-0.32-0.62-0.67-0.89-1.02c-0.14-0.18-0.28-0.38-0.38-0.59c-0.07-0.15-0.13-0.31-0.11-0.47c0.01-0.11,0.05-0.22,0.12-0.3
			c0.12-0.14,0.29-0.23,0.45-0.32c0.63-0.32,1.36-0.54,1.87-1.06c0.38-0.38,0.6-0.92,0.83-1.39c0.13-0.27,0.28-0.55,0.52-0.73
			c0.16-0.12,0.35-0.17,0.55-0.18c0.38-0.02,0.75,0.06,1.11,0.15c0.44,0.13,1.05,0.27,1.47,0.44c0.18,0.08,0.36,0.18,0.5,0.32
			c0.13,0.12,0.22,0.27,0.28,0.43c0.12,0.32,0.15,0.68,0.15,1.02c0,0.51-0.07,1.02-0.22,1.51c-0.09,0.29-0.24,0.6-0.31,0.9
			c-0.06,0.29-0.06,0.62-0.1,0.92c-0.03,0.2-0.08,0.39-0.18,0.57c-0.08,0.14-0.2,0.24-0.33,0.33c-0.55,0.34-1.26,0.43-1.87,0.62
			C601.32,379.71,600.75,379.91,600.21,379.74z"/>
	</g>
	<g id="POLYLINE_00000025444791952976119770000018434529222001085580_">
		<path class="st125" d="M587.65,381.26c-0.29-0.28-0.64-0.48-1.01-0.63c-0.5-0.2-1.04-0.33-1.58-0.34
			c-0.48-0.01-0.99,0.08-1.36,0.4c-0.59,0.49-0.79,1.32-1.18,1.95c-0.25,0.39-0.67,0.67-0.93,1.06c-0.17,0.25-0.28,0.55-0.33,0.85
			c-0.04,0.25-0.04,0.5,0.03,0.74c0.16,0.5,0.69,0.72,1.15,0.88c0.5,0.16,1.03,0.31,1.55,0.34c0.25,0.01,0.51,0,0.74-0.1
			c0.13-0.06,0.24-0.15,0.34-0.26c0.21-0.24,0.37-0.55,0.62-0.74c0.32-0.25,0.77-0.26,1.16-0.32c0.25-0.04,0.5-0.09,0.71-0.24
			c0.28-0.2,0.42-0.54,0.51-0.87c0.13-0.56,0.21-1.18,0.09-1.75C588.11,381.87,587.92,381.52,587.65,381.26z"/>
	</g>
	<g id="POLYLINE_00000059299148070236980450000004545580798785094320_">
		<path class="st125" d="M573.83,337.7c-0.09,0-0.18-0.05-0.26-0.1c-0.3-0.2-0.52-0.5-0.74-0.77l-0.55-0.73l-0.55-0.71
			c-0.19-0.25-0.38-0.52-0.41-0.84c-0.02-0.22,0.08-0.43,0.2-0.61c0.3-0.44,0.73-0.77,1.14-1.1c0.76-0.56,2.84-2.06,3.61-2.59
			c0.61-0.4,1.26-0.76,1.93-1.03c0.58-0.24,1.2-0.41,1.81-0.56c2.16-0.52,4.93-0.74,7.15-1c1.46-0.16,3.1-0.54,4.53-0.88
			c4.44-0.99,10.15-0.55,14.67-1.09c0.9-0.11,1.81-0.28,2.66-0.59c0.5-0.18,1.08-0.46,1.62-0.47c0.44-0.01,0.85,0.2,1.16,0.49
			c0.69,0.64,1.1,1.62,1,2.57c-0.05,0.41-0.22,0.82-0.57,1.05c-0.3,0.2-0.66,0.26-1.01,0.29c-1.23,0.07-2.63-0.23-3.87-0.24
			c-1.24-0.02-2.49,0.2-3.67,0.59l-1.04,0.35c-0.6,0.2-1.23,0.34-1.87,0.36c-1.23,0.05-3.28-0.23-4.53-0.33
			c-1.23-0.09-2.5-0.2-3.7,0.1c-0.68,0.17-1.31,0.51-1.89,0.91c-0.49,0.35-1.07,0.76-1.61,1.01c-0.66,0.31-1.37,0.53-2.07,0.73
			c-0.97,0.27-2,0.51-3,0.66c-0.72,0.11-1.45,0.18-2.18,0.14c-0.54-0.02-1.2-0.12-1.73,0.03c-0.19,0.05-0.37,0.14-0.53,0.25
			c-0.49,0.33-0.95,0.92-1.35,1.35c-0.4,0.45-0.88,0.84-1.42,1.1c-0.52,0.26-1.14,0.39-1.66,0.66c-0.17,0.09-0.33,0.19-0.46,0.32
			c-0.17,0.16-0.32,0.37-0.48,0.53C574.08,337.62,573.96,337.7,573.83,337.7z"/>
	</g>
	<g id="POLYLINE_00000072263894793567927780000009902449463531638153_">
		<path class="st125" d="M669.64,361.32c-0.15,0.34-0.42,0.62-0.7,0.86c-0.44,0.37-0.94,0.67-1.47,0.88
			c-0.52,0.21-1.11,0.26-1.65,0.39c-0.23,0.06-0.47,0.15-0.63,0.34c-0.16,0.17-0.26,0.39-0.36,0.6c-0.2,0.46-0.41,0.99-0.73,1.38
			c-0.41,0.51-0.97,0.88-1.55,1.17c-0.77,0.38-1.6,0.64-2.46,0.73c-0.48,0.05-0.96,0.03-1.43-0.09c-0.48-0.13-0.93-0.37-1.35-0.63
			c-0.91-0.57-1.91-1.12-2.54-2.02c-0.41-0.57-0.67-1.24-0.83-1.92c-0.14-0.57-0.22-1.16-0.22-1.74c0.01-0.76,0.15-1.59,0.71-2.14
			c0.61-0.59,1.56-0.78,2.33-1.06c0.47-0.16,0.9-0.35,1.25-0.71c0.24-0.24,0.47-0.55,0.75-0.74c0.16-0.11,0.34-0.2,0.53-0.24
			c0.35-0.08,0.72-0.06,1.08-0.02c1.82,0.24,4.06,1.13,5.84,1.6c0.38,0.1,0.77,0.19,1.16,0.24l0.77,0.09
			c0.27,0.03,0.56,0.09,0.75,0.31c0.33,0.38,0.51,1.14,0.69,1.61C669.7,360.55,669.8,360.94,669.64,361.32z"/>
	</g>
	<g id="POLYLINE_00000056416097580334692530000007776880898163989944_">
		<path class="st125" d="M653.31,337.28c-0.55-0.13-1.09-0.33-1.57-0.61c-0.68-0.4-1.27-0.93-1.81-1.5
			c-0.26-0.29-0.52-0.59-0.71-0.93c-0.07-0.13-0.13-0.27-0.14-0.42c-0.01-0.19,0.11-0.33,0.25-0.44c0.14-0.12,0.31-0.24,0.41-0.4
			c0.09-0.14,0.14-0.31,0.18-0.47l0.09-0.39c0.06-0.25,0.14-0.5,0.29-0.7c0.14-0.19,0.32-0.34,0.53-0.46
			c0.52-0.29,1.12-0.42,1.71-0.47c0.59-0.04,1.2,0,1.74,0.25c0.6,0.28,1.08,0.8,1.61,1.19c0.66,0.49,1.42,0.86,2.2,1.12
			c0.67,0.23,1.37,0.37,2.07,0.39c0.8,0.03,1.71-0.06,2.5,0.1c0.91,0.18,1.74,0.66,2.43,1.27c0.58,0.5,1.07,1.24,1.52,1.87
			c0.34,0.46,0.69,0.87,1.21,1.12c0.49,0.24,1.07,0.46,1.46,0.86c0.23,0.24,0.41,0.52,0.57,0.81c0.3,0.57,0.52,1.2,0.73,1.81
			c0.17,0.52,0.53,1.73,0.73,2.22c0.15,0.37,0.36,0.78,0.39,1.18c0.05,0.51-0.03,1.03-0.15,1.53c-0.11,0.44-0.27,0.88-0.54,1.26
			c-0.17,0.24-0.4,0.45-0.68,0.54c-0.48,0.14-0.98-0.01-1.44-0.18c-0.99-0.39-1.9-0.97-2.7-1.67c-0.75-0.65-1.45-1.38-1.99-2.23
			c-0.35-0.56-0.62-1.22-1.11-1.67c-0.37-0.34-0.86-0.5-1.34-0.63c-0.6-0.16-1.43-0.29-2.03-0.47c-0.25-0.08-0.49-0.18-0.71-0.33
			c-0.35-0.23-0.59-0.59-0.77-0.96c-0.28-0.57-0.56-1.22-1.09-1.59c-0.25-0.18-0.55-0.3-0.84-0.39
			C655.37,337.59,654.26,337.51,653.31,337.28z"/>
	</g>
	<g id="POLYLINE_00000176034735443763540310000011300922926795582598_">
		<path class="st125" d="M631.68,326.26c-0.56-0.13-1.18-0.12-1.7-0.37c-0.37-0.17-0.66-0.46-0.93-0.76
			c-0.38-0.44-0.73-0.92-1.04-1.42l0,0c0,0,0,0,0,0s0,0,0,0l0,0l0,0l0,0l0,0l0,0l0,0l0,0l0,0l0,0l0,0l0,0l0,0l0,0l0,0l0,0l0,0l0,0
			l0,0l0,0l0,0l0,0l0,0l0,0l0,0l0,0l0,0l0,0l0,0l0,0l0,0l0,0l0,0l0,0l0,0l0,0l0,0l0,0l0,0l0,0l0,0c0,0,0,0,0,0s0,0,0,0c0,0,0,0,0,0
			l0,0l0,0l0,0l0,0l0,0l0,0c0.9-0.55,1.94-1.07,3.03-0.91c0.76,0.09,1.52,0.45,2.26,0.61c0.2,0.04,0.41,0.06,0.62,0.04
			c0.2-0.03,0.39-0.1,0.58-0.19c0.29-0.14,0.57-0.34,0.87-0.44c0.13-0.04,0.28-0.06,0.42-0.02c0.28,0.08,0.5,0.29,0.7,0.5
			c0.29,0.29,0.59,0.66,0.89,0.94c0.29,0.27,0.69,0.54,1.01,0.77c0.6,0.43,1.13,1.03,1.29,1.76c0.06,0.27,0.06,0.55-0.04,0.81
			c-0.22,0.57-0.76,0.98-1.34,1.13c-0.38,0.1-0.78,0.05-1.15-0.05c-0.43-0.12-0.85-0.33-1.25-0.53
			C634.55,327.45,633.16,326.62,631.68,326.26z"/>
	</g>
	<g id="POLYLINE_00000147918709488926052780000006628690340566044554_">
		<path class="st125" d="M604.83,321.2c-0.67,0.2-1.38,0.25-2.07,0.17c-0.83-0.09-1.7-0.42-2.49-0.7c-0.61-0.21-1.22-0.47-1.75-0.83
			c-0.44-0.3-0.85-0.66-1.24-1.02c-0.37-0.35-0.76-0.72-1.09-1.1l0,0l0,0l0,0l0,0l0,0l0,0v0l0,0l0,0v0h0l0,0v0l0,0h0l0,0v0h0l0,0h0
			l0,0l0,0h0l0,0h0l0,0h0l0,0h0v0c0.01,0,0.02,0.01,0.02,0l0,0l0,0l0,0l0,0l0,0l0,0l0,0l0,0l0,0l0,0l0,0l0,0l0,0l0,0
			c0.02-0.03,0.03-0.05,0.04-0.08c0.09-0.25,0.18-0.6,0.28-0.85c0.15-0.4,0.34-0.81,0.69-1.07c0.34-0.25,0.79-0.25,1.2-0.2
			c0.78,0.11,1.55,0.44,2.32,0.6c0.24,0.05,0.5,0.08,0.74,0.05c0.43-0.05,0.81-0.32,1.17-0.54c0.22-0.13,0.45-0.25,0.7-0.29
			c0.32-0.05,0.64,0,0.95,0.08c0.68,0.18,1.33,0.49,1.91,0.89c0.18,0.13,0.35,0.29,0.5,0.46c0.57,0.68,1.27,1.71,1.79,2.43l0,0
			c0,0,0,0,0,0s0,0,0,0l0,0l0,0l0,0l0,0l0,0v0l0,0l0,0l0,0l0,0l0,0l0,0l0,0l0,0l0,0c0,0,0,0,0,0s0,0,0,0s0,0,0,0l0,0l0,0l0,0l0,0
			C607.38,319.99,606.17,320.78,604.83,321.2z"/>
	</g>
	<g id="POLYLINE_00000053512023086583122550000006265070395995289993_">
		<path class="st125" d="M131.56,356.09c3.54-2.47,7.4-4.54,11.37-6.24c3.63-1.54,7.41-2.83,11.28-3.63
			c4.46-0.94,9.1-1.07,13.64-0.97l31.41,1.22c12.23,0.25,24.68-0.28,36.79-2.01c9.68-1.34,19.83-3.37,29.35-5.57
			c8.58-1.79,66.57-17.42,76.27-19.94c22.98-5.79,46.7-10.92,70.46-11.43c6.57-0.16,13.67-0.01,20.22,0.39
			c8.76,0.54,23.71,2.02,32.39,2.31c3.25,0.1,6.63,0.12,9.87-0.19c2.57-0.25,5.15-0.76,7.65-1.41l5.18-1.4
			c4.96-1.3,10.2-1.74,15.28-0.95c4.84,0.72,10.13,2.79,14.74,4.43c1.02,0.35,2.09,0.67,3.16,0.79c0.79,0.1,1.6,0.09,2.4,0.01
			c1.07-0.12,2.15-0.37,3.19-0.63c3.59-0.95,7.96-2.46,11.6-3.13"/>
	</g>
	<g id="POLYLINE_00000009574513379175760630000016337174072485177258_">
		<path class="st125" d="M562.77,318.28c-1.32,0.46-2.78,0.47-4.14,0.16c-0.98-0.23-1.95-0.63-2.7-1.32
			c-0.77-0.7-1.34-1.64-2.17-2.27c-0.69-0.55-1.5-0.96-2.3-1.32c-1.47-0.66-3.06-1.2-4.6-1.66c-1.71-0.5-3.48-0.94-5.26-1.12
			c-0.62-0.07-1.62-0.12-2.23-0.22c-0.21-0.04-0.42-0.08-0.61-0.16c-0.25-0.09-0.48-0.25-0.64-0.47c-0.29-0.42-0.33-0.96-0.33-1.46
			c0.01-0.65,0.09-1.3,0.26-1.92c0.12-0.42,0.31-0.84,0.62-1.17c0.34-0.36,0.83-0.53,1.31-0.59c1.12-0.16,2.55,0.07,3.68,0.08
			c0.76,0.02,1.53-0.01,2.27-0.17c0.5-0.11,0.98-0.29,1.43-0.51c0.88-0.42,1.83-0.93,2.8-1.09c0.76-0.14,1.54-0.06,2.29,0.09
			c1.92,0.4,3.77,1.28,5.54,2.12c0.7,0.34,1.79,0.85,2.46,1.25c0.62,0.35,1.5,0.98,2.1,1.39c0.54,0.36,1.31,0.81,1.87,1.14
			c0.69,0.43,1.39,0.9,1.91,1.53c0.53,0.64,0.83,1.47,0.83,2.31c0,0.92-0.36,1.81-0.85,2.57
			C565.45,316.73,564.21,317.77,562.77,318.28z"/>
	</g>
	<g id="POLYLINE_00000001631649618611776790000004085401808609917608_">
		<path class="st125" d="M460.17,431.14c-38.34,5.81-77.9,7.77-116.63,5.83c-25.76-1.35-51.93-4.35-76.94-10.76
			c-8.59-2.4-52.95-14.03-60.39-16.55c-5.15-1.67-10.34-3.66-15.25-5.96c-7.81-3.67-15.26-8.29-22.22-13.38
			c-7.73-5.67-15.03-12.07-21.69-18.96"/>
	</g>
	<g id="POLYLINE_00000156565729788578868400000014077617409887662010_">
		<path class="st125" d="M167.98,370.17c-2.43-0.31-5.33-0.76-7.72-0.81c-1.93-0.06-3.88,0.07-5.79,0.37
			c-4.89,0.73-14.33,3.55-19.25,4.81c-5.55,1.44-11.37,2.66-17.03,3.52c-9.66,1.47-19.52,2.28-29.3,2.23
			c-7.22-0.09-14.59-0.56-21.56-2.53c-1.99-0.58-3.98-1.28-5.81-2.25c-1.02-0.55-2.03-1.18-2.84-2.03
			c-0.57-0.61-1.07-1.41-0.95-2.27c0.06-0.41,0.28-0.78,0.59-1.06c0.32-0.3,0.73-0.5,1.13-0.66c1.1-0.42,2.29-0.61,3.45-0.81
			c4.02-0.61,8.46-1.08,12.26-2.55c6.91-2.64,11.94-8.74,16.84-14.03c2.39-2.53,5.08-5.21,8.64-5.88c1.88-0.38,3.96-0.14,5.87-0.04
			c0.5,0.02,1.03,0.04,1.53-0.02c0.17-0.03,0.34-0.06,0.5-0.15l0.01-0.01l0.01-0.01l0.01-0.01l0.01-0.01l0.01-0.01l0.01-0.01
			l0.01-0.01l0.01-0.01l0.01-0.01l0.01-0.01l0.01-0.01l0.01-0.01l0.01-0.01l0.01-0.01l0.01-0.01l0.01-0.01l0.01-0.01l0.01-0.01
			l0.01-0.01l0.01-0.01l0.01-0.01l0.01-0.01l0.01-0.01l0.01-0.01l0.01-0.01l0-0.01l0-0.01l0-0.01l0-0.01l0-0.01l0-0.01l0-0.01
			l0-0.01l0-0.01l0-0.01l0-0.01l0-0.01l0-0.01l0-0.01l0-0.01l0-0.01c0.02-0.21-0.05-0.42-0.13-0.61c-0.35-0.83-0.9-1.63-1.16-2.49
			c-0.11-0.35-0.17-0.71-0.13-1.08c0.09-0.93,0.65-1.73,1.19-2.47c0.63-0.85,1.37-1.75,1.84-2.7c0.37-0.74,0.61-1.54,0.72-2.35
			c0.2-1.48-0.02-3.02-0.58-4.4c-0.4-1-1-1.9-1.66-2.74c-0.57-0.75-1.37-1.57-1.86-2.37c-0.07-0.12-0.13-0.25-0.15-0.39l0-0.01
			l0-0.01l0-0.01l0-0.01l0-0.01l0-0.01l0-0.01l0-0.01l0-0.01l0-0.01l0-0.01l0-0.01l0-0.01l0-0.01l0-0.01l0-0.01l0-0.01l0-0.01
			l0-0.01l0-0.01l0-0.01l0-0.01l0-0.01l0-0.01l0-0.01l0-0.01l0.01-0.01l0.01-0.01l0.01-0.01l0.01-0.01l0.01-0.01l0.01-0.01
			l0.01-0.01l0.01-0.01l0.01-0.01l0.01-0.01l0.01-0.01l0.01-0.01l0.01-0.01l0.01-0.01l0.01-0.01l0.01-0.01l0.01-0.01l0.01-0.01
			l0.01-0.01l0.01-0.01l0.01-0.01l0.01-0.01l0.01-0.01l0.01-0.01c0.32-0.14,0.73-0.12,1.08-0.11c0.88,0.06,1.76,0.25,2.62,0.46
			c1.52,0.37,3.13,0.89,4.61,1.4c6.42,2.27,12.65,5.27,18.5,8.75c5.97,3.6,11.72,7.8,16.33,13.06"/>
	</g>
	<g id="POLYLINE_00000031185593661315997800000014472023251318667412_">
		<path class="st125" d="M538.9,397.57c-2.87,11.58-8.33,22.53-15.83,31.8c-5.06,6.26-11.14,11.73-17.69,16.39
			c-8.27,5.84-17.24,10.9-26.7,14.54c-2.55,0.96-5.19,1.82-7.84,2.42c-1.74,0.39-3.53,0.68-5.31,0.74c-1.7,0.05-3.46-0.06-5.07-0.69
			c-0.66-0.27-1.31-0.64-1.75-1.22c-0.24-0.31-0.4-0.69-0.44-1.08c-0.08-0.82,0.23-1.63,0.54-2.38c0.68-1.6,1.63-3.27,1.81-5.02
			c0.22-2.15-0.68-4.33-1.26-6.37c-0.24-0.85-0.45-1.73-0.46-2.61c-0.02-2.02,1.19-3.87,1.68-5.78c0.29-1.05,0.28-2.15,0.16-3.23
			c-0.13-1.26-0.45-2.75-0.58-4.01c-0.06-0.6-0.08-1.2,0.01-1.8c0.13-0.95,0.6-1.89,0.96-2.77c0.25-0.6,0.46-1.24,0.56-1.88
			c0.14-0.91,0.11-1.86,0.06-2.78c-0.14-2.46-0.54-5.17,0.03-7.59c0.22-0.96,0.63-1.87,1.17-2.7c0.97-1.5,2.31-2.72,3.72-3.79
			c2.25-1.7,4.81-3.17,7.25-4.58c5.44-3.04,11.29-5.8,17.58-6.34c2.57-0.22,5.18,0.09,7.71,0.54c3.25,0.58,7.42,1.64,10.71,1.5
			c1.43-0.05,2.85-0.36,4.18-0.89c2.66-1.04,5.23-2.98,7.6-4.57c1.13-0.75,2.32-1.48,3.63-1.88c1.46-0.47,3.17-0.53,4.69-0.7"/>
	</g>
</g>
<g id="_x32_D_x24_AG-OUTLINE">
	<g id="POLYLINE_00000026123869429946237040000011202752658511022722_">
		<path class="st127" d="M147.07,371.36l-12.18,3.27c-8.25,2.14-16.79,3.65-25.26,4.56c-7.93,0.85-16.04,1.28-24.02,1.04
			c-6.76-0.25-13.64-0.89-20.09-3.03c-2.1-0.73-4.21-1.59-5.99-2.95c-0.74-0.59-1.48-1.31-1.75-2.25c-0.07-0.26-0.1-0.54-0.05-0.82
			c0.04-0.27,0.15-0.52,0.31-0.74c0.33-0.44,0.82-0.72,1.32-0.93c1.12-0.44,2.34-0.64,3.53-0.84c4.02-0.61,8.46-1.08,12.26-2.55
			c6.91-2.64,11.94-8.74,16.84-14.03c2.39-2.53,5.08-5.21,8.64-5.88c1.88-0.38,3.96-0.14,5.87-0.04c0.5,0.02,1.03,0.04,1.53-0.02
			c0.17-0.03,0.34-0.06,0.5-0.15l0.01-0.01l0.01-0.01l0.01-0.01l0.01-0.01l0.01-0.01l0.01-0.01l0.01-0.01l0.01-0.01l0.01-0.01
			l0.01-0.01l0.01-0.01l0.01-0.01l0.01-0.01l0.01-0.01l0.01-0.01l0.01-0.01l0.01-0.01l0.01-0.01l0.01-0.01l0.01-0.01l0.01-0.01
			l0.01-0.01l0.01-0.01l0.01-0.01l0.01-0.01l0-0.01l0-0.01l0-0.01l0-0.01l0-0.01l0-0.01l0-0.01l0-0.01l0-0.01l0-0.01l0-0.01l0-0.01
			l0-0.01l0-0.01l0-0.01l0-0.01c0.02-0.21-0.05-0.42-0.13-0.61c-0.35-0.83-0.9-1.63-1.16-2.49c-0.11-0.35-0.17-0.71-0.13-1.08
			c0.09-0.93,0.65-1.73,1.19-2.47c0.63-0.85,1.37-1.75,1.84-2.7c0.37-0.74,0.61-1.54,0.72-2.35c0.2-1.48-0.02-3.02-0.58-4.4
			c-0.4-1-1-1.9-1.66-2.74c-0.57-0.75-1.37-1.57-1.86-2.37c-0.07-0.12-0.13-0.25-0.15-0.39l0-0.01l0-0.01l0-0.01l0-0.01l0-0.01
			l0-0.01l0-0.01l0-0.01l0-0.01l0-0.01l0-0.01l0-0.01l0-0.01l0-0.01l0-0.01l0-0.01l0-0.01l0-0.01l0-0.01l0-0.01l0-0.01l0-0.01
			l0-0.01l0-0.01l0-0.01l0-0.01l0.01-0.01l0.01-0.01l0.01-0.01l0.01-0.01l0.01-0.01l0.01-0.01l0.01-0.01l0.01-0.01l0.01-0.01
			l0.01-0.01l0.01-0.01l0.01-0.01l0.01-0.01l0.01-0.01l0.01-0.01l0.01-0.01l0.01-0.01l0.01-0.01l0.01-0.01l0.01-0.01l0.01-0.01
			l0.01-0.01l0.01-0.01l0.01-0.01c0.32-0.14,0.73-0.12,1.08-0.11c0.88,0.06,1.76,0.25,2.62,0.46c1.52,0.37,3.13,0.89,4.61,1.4
			c6.42,2.27,12.65,5.27,18.5,8.75c5.97,3.6,11.72,7.8,16.33,13.06c2.53-0.74,5.15-1.3,7.77-1.61c3.24-0.39,6.6-0.42,9.86-0.36
			l31.41,1.22c12.23,0.25,24.68-0.28,36.79-2.01c9.68-1.34,19.83-3.37,29.35-5.57c8.58-1.79,66.57-17.42,76.27-19.94
			c22.98-5.79,46.7-10.92,70.46-11.43c6.57-0.16,13.67-0.01,20.22,0.39c8.76,0.54,23.71,2.02,32.39,2.31
			c3.25,0.1,6.63,0.12,9.87-0.19c2.57-0.25,5.15-0.76,7.65-1.41l5.18-1.4c4.96-1.3,10.2-1.74,15.28-0.95
			c4.84,0.72,10.13,2.79,14.74,4.43c1.02,0.35,2.09,0.67,3.16,0.79c0.79,0.1,1.6,0.09,2.4,0.01c1.07-0.12,2.15-0.37,3.19-0.63
			c3.59-0.95,7.96-2.46,11.6-3.13c0.06-0.62,0.18-1.25,0.45-1.82c0.17-0.35,0.43-0.68,0.78-0.87c0.68-0.38,1.52-0.36,2.28-0.34
			c1.36,0.06,2.93,0.25,4.27,0.02c0.61-0.1,1.19-0.31,1.75-0.57c0.88-0.42,1.83-0.93,2.8-1.09c0.76-0.14,1.54-0.06,2.29,0.09
			c1.92,0.4,3.77,1.28,5.54,2.12c0.7,0.34,1.79,0.85,2.46,1.25c0.62,0.35,1.5,0.98,2.1,1.39c0.54,0.36,1.31,0.81,1.87,1.14
			c0.74,0.46,1.49,0.96,2.01,1.66c0.35,0.47,0.59,1.03,0.68,1.61c0.09,0.56,0.03,1.15-0.13,1.7c2.11,0.76,4.34,1.29,6.54,1.66
			c6.55,1.11,16.01,1.5,22.71,2.03l0,0l0,0l0,0l0,0l0,0l0,0l0,0l0,0l0,0l0,0l0,0l0,0l0,0l0,0c0.02-0.03,0.03-0.05,0.04-0.08
			c0.09-0.25,0.18-0.6,0.28-0.85c0.15-0.4,0.34-0.81,0.69-1.07c0.34-0.25,0.79-0.25,1.2-0.2c0.78,0.11,1.55,0.44,2.32,0.6
			c0.24,0.05,0.5,0.08,0.74,0.05c0.43-0.05,0.81-0.32,1.17-0.54c0.22-0.13,0.45-0.25,0.7-0.29c0.32-0.05,0.64,0,0.95,0.08
			c0.68,0.18,1.33,0.49,1.91,0.89c0.18,0.13,0.35,0.29,0.5,0.46c0.57,0.68,1.27,1.71,1.79,2.43l0,0c0,0,0,0,0,0s0,0,0,0l0,0l0,0l0,0
			l0,0l0,0v0l0,0l0,0l0,0l0,0l0,0l0,0l0,0l0,0l0,0c0,0,0,0,0,0s0,0,0,0s0,0,0,0c6.51,1.07,13.16,2.7,19.49,4.55l0,0l0,0l0,0l0,0l0,0
			l0,0c0.9-0.55,1.94-1.07,3.03-0.91c0.76,0.09,1.52,0.45,2.26,0.61c0.2,0.04,0.41,0.06,0.62,0.04c0.2-0.03,0.39-0.1,0.58-0.19
			c0.29-0.14,0.57-0.34,0.87-0.44c0.13-0.04,0.28-0.06,0.42-0.02c0.28,0.08,0.5,0.29,0.7,0.5c0.29,0.29,0.59,0.66,0.89,0.94
			c0.29,0.27,0.69,0.54,1.01,0.77c0.49,0.35,0.92,0.8,1.16,1.35c0.15,0.33,0.23,0.71,0.14,1.08c3.25,1.12,7.53,2.62,10.72,3.87
			c0.17-0.19,0.4-0.33,0.63-0.44c0.34-0.16,0.72-0.26,1.09-0.32c0.82-0.12,1.72-0.1,2.44,0.35c0.51,0.31,0.95,0.78,1.44,1.13
			c0.67,0.47,1.43,0.83,2.21,1.08c0.63,0.2,1.29,0.33,1.95,0.35c0.84,0.03,1.77-0.07,2.59,0.12c0.89,0.2,1.7,0.68,2.37,1.28
			c0.56,0.49,1.04,1.23,1.48,1.83c0.34,0.46,0.69,0.87,1.21,1.12c0.49,0.24,1.07,0.46,1.46,0.86c0.23,0.24,0.41,0.52,0.57,0.81
			c0.3,0.57,0.52,1.2,0.73,1.81c0.17,0.52,0.53,1.73,0.73,2.22c0.14,0.34,0.33,0.73,0.38,1.1c0.05,0.39,0.01,0.79-0.05,1.18
			c-0.09,0.48-0.22,0.96-0.45,1.39c-0.14,0.26-0.31,0.51-0.55,0.68c0.45,1.66,0.71,3.38,0.79,5.1c1,0.21,2.03,0.57,2.74,1.33
			c1.24,1.35,1.32,3.38,0.86,5.07c-0.56,2.13-2.06,3.86-3.74,5.21c-1.32,1.07-2.79,1.97-4.28,2.76c-5.39,2.91-13.22,5.19-19.05,7.17
			c-2.46,0.84-5.52,1.97-7.94,2.92c-13.54,5.52-37.98,16.12-51.52,21.09c-18.44,6.93-37.81,12.91-56.86,17.91
			c-3.52,6.63-7.98,12.8-13.2,18.19c-4.73,4.92-10.15,9.25-15.81,13.06c-4.63,3.11-9.59,6.01-14.58,8.51
			c-4.1,2.03-8.42,3.92-12.78,5.33c-2.3,0.73-4.68,1.37-7.07,1.72c-1.68,0.24-3.39,0.35-5.08,0.18c-1.09-0.12-2.19-0.34-3.17-0.84
			c-0.53-0.27-1.03-0.64-1.36-1.14c-0.2-0.3-0.32-0.65-0.35-1c-0.05-0.6,0.12-1.19,0.32-1.75c0.58-1.56,1.53-3.15,1.9-4.78
			c0.4-1.62,0.03-3.31-0.43-4.88c-0.46-1.62-1.2-3.43-1.15-5.13c0.05-1.66,0.94-3.27,1.46-4.81c0.22-0.65,0.39-1.32,0.44-2.01
			c0.07-0.94-0.03-1.9-0.16-2.83c-0.12-0.76-0.39-2.34-0.46-3.09c-36.64,5.55-74.22,7.59-111.25,6.07
			c-27.58-1.18-55.53-4.16-82.32-11.01c-8.59-2.4-52.95-14.03-60.39-16.55c-5.15-1.67-10.34-3.66-15.25-5.96
			c-7.81-3.67-15.26-8.29-22.22-13.38C161.03,384.65,153.72,378.25,147.07,371.36z"/>
	</g>
</g>
</svg>
