<?xml version="1.0" encoding="utf-8"?>
<!-- Generator: Adobe Illustrator 26.3.1, SVG Export Plug-In . SVG Version: 6.00 Build 0)  -->
<!DOCTYPE svg PUBLIC "-//W3C//DTD SVG 1.1//EN" "http://www.w3.org/Graphics/SVG/1.1/DTD/svg11.dtd" [
	<!ENTITY ns_extend "http://ns.adobe.com/Extensibility/1.0/">
	<!ENTITY ns_ai "http://ns.adobe.com/AdobeIllustrator/10.0/">
	<!ENTITY ns_graphs "http://ns.adobe.com/Graphs/1.0/">
	<!ENTITY ns_vars "http://ns.adobe.com/Variables/1.0/">
	<!ENTITY ns_imrep "http://ns.adobe.com/ImageReplacement/1.0/">
	<!ENTITY ns_sfw "http://ns.adobe.com/SaveForWeb/1.0/">
	<!ENTITY ns_custom "http://ns.adobe.com/GenericCustomNamespace/1.0/">
	<!ENTITY ns_adobe_xpath "http://ns.adobe.com/XPath/1.0/">
]>
<svg version="1.1" xmlns:x="&ns_extend;" xmlns:i="&ns_ai;" xmlns:graph="&ns_graphs;"
	 xmlns="http://www.w3.org/2000/svg" xmlns:xlink="http://www.w3.org/1999/xlink" x="0px" y="0px" width="750px" height="750px"
	 viewBox="0 0 750 750" style="enable-background:new 0 0 750 750;" xml:space="preserve">
<style type="text/css">
	.st0{fill:#FFFFFF;}
	.st1{fill:#FB8604;}
	.st2{fill:none;stroke:#FB8604;stroke-width:2;stroke-linecap:round;stroke-linejoin:round;stroke-miterlimit:10;}
	.st3{fill:none;stroke:#FB8604;stroke-width:2;stroke-linecap:round;stroke-linejoin:round;}
	.st4{fill:none;stroke:#FB8604;stroke-width:2;stroke-linecap:round;stroke-linejoin:round;stroke-dasharray:2.8868,4.8113;}
	.st5{fill:none;stroke:#FB8604;stroke-width:2;stroke-linecap:round;stroke-linejoin:round;stroke-dasharray:3.2,5.3333;}
	.st6{fill:none;stroke:#FB8604;stroke-width:2;stroke-linecap:round;stroke-linejoin:round;stroke-dasharray:2.7333,4.5556;}
	.st7{fill:none;stroke:#FB8604;stroke-width:2;stroke-linecap:round;stroke-linejoin:round;stroke-dasharray:2.5521,4.2535;}
	.st8{fill:none;stroke:#FB8604;stroke-width:2;stroke-linecap:round;stroke-linejoin:round;stroke-dasharray:3,5;}
	.st9{fill:none;stroke:#FB8604;stroke-width:2;stroke-linecap:round;stroke-linejoin:round;stroke-dasharray:3.2261,5.3768;}
	.st10{fill:none;stroke:#FB8604;stroke-width:2;stroke-linecap:round;stroke-linejoin:round;stroke-dasharray:2.913,4.8551;}
	.st11{fill:none;stroke:#FB8604;stroke-width:2;stroke-linecap:round;stroke-linejoin:round;stroke-dasharray:2.9189,4.8649;}
	.st12{fill:none;stroke:#FB8604;stroke-width:2;stroke-linecap:round;stroke-linejoin:round;stroke-dasharray:3.0724,5.1207;}
	.st13{fill:none;stroke:#FB8604;stroke-width:2.5;stroke-linecap:round;stroke-linejoin:round;}
	.st14{fill:none;stroke:#FB8604;stroke-width:2.5;stroke-linecap:round;stroke-linejoin:round;stroke-dasharray:3.1455,5.2425;}
	.st15{fill:none;stroke:#FB8604;stroke-width:2.5;stroke-linecap:round;stroke-linejoin:round;stroke-dasharray:2.38,3.9667;}
	.st16{fill:none;stroke:#FB8604;stroke-width:2.5;stroke-linecap:round;stroke-linejoin:round;stroke-dasharray:2.2549,3.7582;}
	.st17{fill:none;stroke:#FB8604;stroke-width:2.5;stroke-linecap:round;stroke-linejoin:round;stroke-dasharray:2.4292,4.0487;}
	.st18{fill:none;stroke:#FB8604;stroke-width:2.5;stroke-linecap:round;stroke-linejoin:round;stroke-dasharray:2.9004,4.834;}
	.st19{fill:none;stroke:#FB8604;stroke-width:2.5;stroke-linecap:round;stroke-linejoin:round;stroke-dasharray:2.8406,4.7343;}
	.st20{fill:none;stroke:#FB8604;stroke-width:2.5;stroke-linecap:round;stroke-linejoin:round;stroke-dasharray:3.0022,5.0036;}
	.st21{fill:none;stroke:#FB8604;stroke-width:2.5;stroke-linecap:round;stroke-linejoin:round;stroke-dasharray:2.902,4.8366;}
	.st22{fill:none;stroke:#FB8604;stroke-width:2.5;stroke-linecap:round;stroke-linejoin:round;stroke-dasharray:2.9975,4.9958;}
	.st23{fill:none;stroke:#FB8604;stroke-width:2.5;stroke-linecap:round;stroke-linejoin:round;stroke-dasharray:3.0105,5.0175;}
	.st24{fill:none;stroke:#FB8604;stroke-width:2.5;stroke-linecap:round;stroke-linejoin:round;stroke-dasharray:2.1919,3.6532;}
	.st25{fill:none;stroke:#FB8604;stroke-width:2.5;stroke-linecap:round;stroke-linejoin:round;stroke-dasharray:2.5854,4.309;}
	.st26{fill:none;stroke:#FB8604;stroke-width:2.5;stroke-linecap:round;stroke-linejoin:round;stroke-dasharray:1.5937,2.6561;}
	.st27{fill:none;stroke:#FB8604;stroke-width:2.5;stroke-linecap:round;stroke-linejoin:round;stroke-dasharray:3.6573,6.0956;}
	.st28{fill:none;stroke:#FB8604;stroke-width:2.5;stroke-linecap:round;stroke-linejoin:round;stroke-dasharray:2.949,4.915;}
	.st29{fill:none;stroke:#FB8604;stroke-width:2.5;stroke-linecap:round;stroke-linejoin:round;stroke-dasharray:2.8177,4.6961;}
	.st30{fill:none;stroke:#FB8604;stroke-width:2.5;stroke-linecap:round;stroke-linejoin:round;stroke-dasharray:2.8606,4.7676;}
	.st31{fill:none;stroke:#FB8604;stroke-width:2.5;stroke-linecap:round;stroke-linejoin:round;stroke-dasharray:2.3915,3.9859;}
	.st32{fill:none;stroke:#FB8604;stroke-width:2.5;stroke-linecap:round;stroke-linejoin:round;stroke-dasharray:2.266,3.7767;}
	.st33{fill:none;stroke:#FB8604;stroke-width:2.5;stroke-linecap:round;stroke-linejoin:round;stroke-dasharray:2.441,4.0683;}
	.st34{fill:none;stroke:#FB8604;stroke-width:2.5;stroke-linecap:round;stroke-linejoin:round;stroke-dasharray:2.9122,4.8536;}
	.st35{fill:none;stroke:#FB8604;stroke-width:2.5;stroke-linecap:round;stroke-linejoin:round;stroke-dasharray:2.8522,4.7536;}
	.st36{fill:none;stroke:#FB8604;stroke-width:2.5;stroke-linecap:round;stroke-linejoin:round;stroke-dasharray:3.0069,5.0114;}
	.st37{fill:none;stroke:#FB8604;stroke-width:2.5;stroke-linecap:round;stroke-linejoin:round;stroke-dasharray:3.0029,5.0049;}
	.st38{fill:none;stroke:#FB8604;stroke-width:2.5;stroke-linecap:round;stroke-linejoin:round;stroke-dasharray:2.9464,4.9107;}
	.st39{fill:none;stroke:#FB8604;stroke-width:2.5;stroke-linecap:round;stroke-linejoin:round;stroke-dasharray:2.9635,4.9392;}
	.st40{fill:none;stroke:#FB8604;stroke-width:2.5;stroke-linecap:round;stroke-linejoin:round;stroke-dasharray:1.8274,3.0456;}
	.st41{fill:none;stroke:#FB8604;stroke-width:2.5;stroke-linecap:round;stroke-linejoin:round;stroke-dasharray:2.8261,4.7101;}
	.st42{fill:none;stroke:#FB8604;stroke-width:2.5;stroke-linecap:round;stroke-linejoin:round;stroke-dasharray:2.0201,3.3668;}
	.st43{fill:none;stroke:#FB8604;stroke-width:2.5;stroke-linecap:round;stroke-linejoin:round;stroke-dasharray:3.0195,5.0325;}
	.st44{fill:none;stroke:#FB8604;stroke-width:2.5;stroke-linecap:round;stroke-linejoin:round;stroke-dasharray:2.3062,3.8437;}
	.st45{fill:none;stroke:#FB8604;stroke-width:2.5;stroke-linecap:round;stroke-linejoin:round;stroke-dasharray:2.8758,4.793;}
	.st46{fill:none;stroke:#FB8604;stroke-width:2.5;stroke-linecap:round;stroke-linejoin:round;stroke-dasharray:3.1883,5.3139;}
	.st47{fill:none;stroke:#FB8604;stroke-width:2.5;stroke-linecap:round;stroke-linejoin:round;stroke-dasharray:2.9919,4.9865;}
	.st48{fill:none;stroke:#FB8604;stroke-width:2.5;stroke-linecap:round;stroke-linejoin:round;stroke-dasharray:2.9875,4.9792;}
	.st49{fill:none;stroke:#FB8604;stroke-width:2.5;stroke-linecap:round;stroke-linejoin:round;stroke-dasharray:3.0312,5.052;}
	.st50{fill:none;stroke:#FB8604;stroke-width:2.5;stroke-linecap:round;stroke-linejoin:round;stroke-dasharray:2.99,4.9834;}
	.st51{fill:none;stroke:#FB8604;stroke-width:2.5;stroke-linecap:round;stroke-linejoin:round;stroke-dasharray:2.9978,4.9963;}
	.st52{fill:none;stroke:#FB8604;stroke-width:2.5;stroke-linecap:round;stroke-linejoin:round;stroke-dasharray:2.9926,4.9877;}
	.st53{fill:none;stroke:#FB8604;stroke-width:2.5;stroke-linecap:round;stroke-linejoin:round;stroke-dasharray:2.5289,4.2148;}
	.st54{fill:none;stroke:#FB8604;stroke-width:2.5;stroke-linecap:round;stroke-linejoin:round;stroke-dasharray:2.3977,3.9962;}
	.st55{fill:none;stroke:#FB8604;stroke-width:2.5;stroke-linecap:round;stroke-linejoin:round;stroke-dasharray:2.5804,4.3007;}
	.st56{fill:none;stroke:#FB8604;stroke-width:2.5;stroke-linecap:round;stroke-linejoin:round;stroke-dasharray:3.0527,5.0878;}
	.st57{fill:none;stroke:#FB8604;stroke-width:2.5;stroke-linecap:round;stroke-linejoin:round;stroke-dasharray:2.9902,4.9837;}
	.st58{fill:none;stroke:#FB8604;stroke-width:2.5;stroke-linecap:round;stroke-linejoin:round;stroke-dasharray:2.9932,4.9887;}
	.st59{fill:none;stroke:#FB8604;stroke-width:2.5;stroke-linecap:round;stroke-linejoin:round;stroke-dasharray:2.2364,3.7274;}
	.st60{fill:none;stroke:#FB8604;stroke-width:2.5;stroke-linecap:round;stroke-linejoin:round;stroke-dasharray:2.117,3.5284;}
	.st61{fill:none;stroke:#FB8604;stroke-width:2.5;stroke-linecap:round;stroke-linejoin:round;stroke-dasharray:2.2826,3.8043;}
	.st62{fill:none;stroke:#FB8604;stroke-width:2.5;stroke-linecap:round;stroke-linejoin:round;stroke-dasharray:2.7537,4.5895;}
	.st63{fill:none;stroke:#FB8604;stroke-width:2.5;stroke-linecap:round;stroke-linejoin:round;stroke-dasharray:2.6967,4.4945;}
	.st64{fill:none;stroke:#FB8604;stroke-width:2.5;stroke-linecap:round;stroke-linejoin:round;stroke-dasharray:3.013,5.0216;}
	.st65{fill:none;stroke:#FB8604;stroke-width:2.5;stroke-linecap:round;stroke-linejoin:round;stroke-dasharray:3,5;}
	.st66{fill:none;stroke:#FB8604;stroke-width:2.5;stroke-linecap:round;stroke-linejoin:round;stroke-dasharray:2.8521,4.7535;}
	.st67{fill:none;stroke:#FB8604;stroke-width:2.5;stroke-linecap:round;stroke-linejoin:round;stroke-dasharray:3.015,5.025;}
	.st68{fill:none;stroke:#FB8604;stroke-width:2.5;stroke-linecap:round;stroke-linejoin:round;stroke-dasharray:2.0573,3.4289;}
	.st69{fill:none;stroke:#FB8604;stroke-width:2.5;stroke-linecap:round;stroke-linejoin:round;stroke-dasharray:2.4448,4.0747;}
	.st70{fill:none;stroke:#FB8604;stroke-width:2.5;stroke-linecap:round;stroke-linejoin:round;stroke-dasharray:3.4544,5.7574;}
	.st71{fill:none;stroke:#FB8604;stroke-width:2.5;stroke-linecap:round;stroke-linejoin:round;stroke-dasharray:2.7999,4.6666;}
	.st72{fill:none;stroke:#FB8604;stroke-width:2.5;stroke-linecap:round;stroke-linejoin:round;stroke-dasharray:2.6539,4.4232;}
	.st73{fill:none;stroke:#FB8604;stroke-width:2.5;stroke-linecap:round;stroke-linejoin:round;stroke-dasharray:2.9854,4.9756;}
	.st74{fill:none;stroke:#FB8604;stroke-width:2.5;stroke-linecap:round;stroke-linejoin:round;stroke-dasharray:2.9624,4.9373;}
	.st75{fill:none;stroke:#FB8604;stroke-width:2.5;stroke-linecap:round;stroke-linejoin:round;stroke-dasharray:3.0011,5.0019;}
	.st76{fill:none;stroke:#FB8604;stroke-width:2.5;stroke-linecap:round;stroke-linejoin:round;stroke-dasharray:2.9763,4.9605;}
	.st77{fill:none;stroke:#FB8604;stroke-width:2.5;stroke-linecap:round;stroke-linejoin:round;stroke-dasharray:2.752,4.5866;}
	.st78{fill:none;stroke:#FB8604;stroke-width:2.5;stroke-linecap:round;stroke-linejoin:round;stroke-dasharray:3.616,6.0267;}
	.st79{fill:none;stroke:#FB8604;stroke-width:2.5;stroke-linecap:round;stroke-linejoin:round;stroke-dasharray:2.9602,4.9336;}
	.st80{fill:none;stroke:#FB8604;stroke-width:2.5;stroke-linecap:round;stroke-linejoin:round;stroke-dasharray:3.4336,5.7227;}
	.st81{fill:none;stroke:#FB8604;stroke-width:2.5;stroke-linecap:round;stroke-linejoin:round;stroke-dasharray:1.9985,3.3309;}
	.st82{fill:none;stroke:#FB8604;stroke-width:2.5;stroke-linecap:round;stroke-linejoin:round;stroke-dasharray:2.4594,4.099;}
	.st83{fill:none;stroke:#FB8604;stroke-width:2.5;stroke-linecap:round;stroke-linejoin:round;stroke-dasharray:2.7161,4.5269;}
	.st84{fill:none;stroke:#FB8604;stroke-width:2.5;stroke-linecap:round;stroke-linejoin:round;stroke-dasharray:2.788,4.6466;}
	.st85{fill:none;stroke:#FB8604;stroke-width:2.5;stroke-linecap:round;stroke-linejoin:round;stroke-dasharray:2.041,3.4017;}
	.st86{fill:none;stroke:#FB8604;stroke-width:2.5;stroke-linecap:round;stroke-linejoin:round;stroke-dasharray:3.0618,5.1029;}
	.st87{fill:none;stroke:#FB8604;stroke-width:2.5;stroke-linecap:round;stroke-linejoin:round;stroke-dasharray:2.9346,4.891;}
	.st88{fill:none;stroke:#FB8604;stroke-width:2.5;stroke-linecap:round;stroke-linejoin:round;stroke-dasharray:3.0108,5.0181;}
	.st89{fill:none;stroke:#FB8604;stroke-width:2.5;stroke-linecap:round;stroke-linejoin:round;stroke-dasharray:2.9662,4.9436;}
	.st90{fill:none;stroke:#FB8604;stroke-width:2.5;stroke-linecap:round;stroke-linejoin:round;stroke-dasharray:3.0816,5.1361;}
	.st91{fill:none;stroke:#FB8604;stroke-width:2.5;stroke-linecap:round;stroke-linejoin:round;stroke-dasharray:2.9292,4.882;}
	.st92{fill:none;stroke:#FB8604;stroke-width:2.5;stroke-linecap:round;stroke-linejoin:round;stroke-dasharray:3.1434,5.239;}
	.st93{fill:none;stroke:#FB8604;stroke-width:2.5;stroke-linecap:round;stroke-linejoin:round;stroke-dasharray:2.9751,4.9584;}
	.st94{fill:none;stroke:#FB8604;stroke-width:2.5;stroke-linecap:round;stroke-linejoin:round;stroke-dasharray:2.9148,4.858;}
	.st95{fill:none;stroke:#FB8604;stroke-width:2.5;stroke-linecap:round;stroke-linejoin:round;stroke-dasharray:2.9955,4.9925;}
	.st96{fill:none;stroke:#FB8604;stroke-width:2.5;stroke-linecap:round;stroke-linejoin:round;stroke-dasharray:2.9503,4.9172;}
	.st97{fill:none;stroke:#FB8604;stroke-width:2.5;stroke-linecap:round;stroke-linejoin:round;stroke-dasharray:2.9995,4.9992;}
	.st98{fill:none;stroke:#FB8604;stroke-width:2.5;stroke-linecap:round;stroke-linejoin:round;stroke-dasharray:2.9952,4.992;}
	.st99{fill:none;stroke:#FB8604;stroke-width:2.5;stroke-linecap:round;stroke-linejoin:round;stroke-dasharray:2.9573,4.9289;}
	.st100{fill:none;stroke:#FB8604;stroke-width:2.5;stroke-linecap:round;stroke-linejoin:round;stroke-dasharray:2.4922,4.1537;}
	.st101{fill:none;stroke:#FB8604;stroke-width:2.5;stroke-linecap:round;stroke-linejoin:round;stroke-dasharray:2.3625,3.9376;}
	.st102{fill:none;stroke:#FB8604;stroke-width:2.5;stroke-linecap:round;stroke-linejoin:round;stroke-dasharray:2.5432,4.2386;}
	.st103{fill:none;stroke:#FB8604;stroke-width:2.5;stroke-linecap:round;stroke-linejoin:round;stroke-dasharray:3.0152,5.0253;}
	.st104{fill:none;stroke:#FB8604;stroke-width:2.5;stroke-linecap:round;stroke-linejoin:round;stroke-dasharray:2.9534,4.9224;}
	.st105{fill:none;stroke:#FB8604;stroke-width:2.5;stroke-linecap:round;stroke-linejoin:round;stroke-dasharray:3.0508,5.0846;}
	.st106{fill:none;stroke:#FB8604;stroke-width:2.5;stroke-linecap:round;stroke-linejoin:round;stroke-dasharray:3.0019,5.0032;}
	.st107{fill:none;stroke:#FB8604;stroke-width:2.5;stroke-linecap:round;stroke-linejoin:round;stroke-dasharray:2.8103,4.6838;}
	.st108{fill:none;stroke:#FB8604;stroke-width:2.5;stroke-linecap:round;stroke-linejoin:round;stroke-dasharray:2.9153,4.8589;}
	.st109{fill:none;stroke:#FB8604;stroke-width:2.5;stroke-linecap:round;stroke-linejoin:round;stroke-dasharray:2.6596,4.4327;}
	.st110{fill:none;stroke:#FB8604;stroke-width:2.5;stroke-linecap:round;stroke-linejoin:round;stroke-dasharray:2.0332,3.3886;}
	.st111{fill:none;stroke:#FB8604;stroke-width:2.5;stroke-linecap:round;stroke-linejoin:round;stroke-dasharray:3.0931,5.1552;}
	.st112{fill:none;stroke:#FB8604;stroke-width:2.5;stroke-linecap:round;stroke-linejoin:round;stroke-dasharray:3.0402,5.067;}
	.st113{fill:none;stroke:#FB8604;stroke-width:2.5;stroke-linecap:round;stroke-linejoin:round;stroke-dasharray:2.9774,4.9623;}
	.st114{fill:none;stroke:#FB8604;stroke-width:2.5;stroke-linecap:round;stroke-linejoin:round;stroke-dasharray:2.9698,4.9497;}
	.st115{fill:none;stroke:#FB8604;stroke-width:2.5;stroke-linecap:round;stroke-linejoin:round;stroke-dasharray:3.0558,5.093;}
	.st116{fill:none;stroke:#FB8604;stroke-width:2.5;stroke-linecap:round;stroke-linejoin:round;stroke-dasharray:2.5316,4.2194;}
	.st117{fill:none;stroke:#FB8604;stroke-width:2.5;stroke-linecap:round;stroke-linejoin:round;stroke-dasharray:1.5067,2.5112;}
	.st118{fill:none;stroke:#FB8604;stroke-width:2.5;stroke-linecap:round;stroke-linejoin:round;stroke-dasharray:2.4118,4.0197;}
	.st119{fill:none;stroke:#FB8604;stroke-width:2.5;stroke-linecap:round;stroke-linejoin:round;stroke-dasharray:1.6749,2.7915;}
	.st120{fill:none;stroke:#FB8604;stroke-width:2.5;stroke-linecap:round;stroke-linejoin:round;stroke-dasharray:2.5801,4.3001;}
	.st121{fill:none;stroke:#FB8604;stroke-width:2.5;stroke-linecap:round;stroke-linejoin:round;stroke-dasharray:1.9241,3.2069;}
	.st122{fill:none;stroke:#FB8604;stroke-width:2.5;stroke-linecap:round;stroke-linejoin:round;stroke-dasharray:2.8201,4.7001;}
	.st123{fill:none;stroke:#FB8604;stroke-width:2.5;stroke-linecap:round;stroke-linejoin:round;stroke-dasharray:3.181,5.3016;}
	.st124{fill:none;stroke:#FB8604;stroke-width:1.5;stroke-linecap:round;stroke-linejoin:round;stroke-miterlimit:10;}
	.st125{fill:none;stroke:#FB8604;stroke-width:2.75;stroke-linecap:round;stroke-linejoin:round;stroke-miterlimit:10;}
	.st126{fill:none;stroke:#FB8604;stroke-width:2.25;stroke-linecap:round;stroke-linejoin:round;stroke-miterlimit:10;}
	.st127{fill:none;stroke:#FB8604;stroke-width:3.5;stroke-linecap:round;stroke-linejoin:round;stroke-miterlimit:10;}
	.st128{fill:none;stroke:#FB8604;stroke-width:3;stroke-linecap:round;stroke-linejoin:round;stroke-miterlimit:10;}
</style>
<metadata>
	<sfw  xmlns="&ns_sfw;">
		<slices></slices>
		<sliceSourceBounds  bottomLeftOrigin="true" height="9750" width="5207.29" x="-2000" y="-1314"></sliceSourceBounds>
	</sfw>
</metadata>
<g id="FILL-BACKGROUND">
	<rect class="st0" width="750" height="750"/>
</g>
<g id="N-DIMENSIONS">
</g>
<g id="N-TEXT">
</g>
<g id="_x32_D_x24_AG-DETAILS-DIAGRAM">
</g>
<g id="_x32_D_x24_AG-DETAILS">
	<g id="POLYLINE_00000106850550931371097040000005762060454164942492_">
		<path class="st2" d="M325.6,435.73c0.5-1.61,0.63-3.53,1.93-4.74c0.69-0.66,1.61-1,2.52-1.24c3.25-0.79,7.51-0.87,10.78-1.55
			c1.72-0.34,3.44-0.82,4.98-1.69c1.59-0.88,2.78-2.27,3.65-3.84c1.29-2.29,2.14-5.21,3.16-7.63c0.64-1.5,1.42-3,2.65-4.1
			c1.97-1.73,4.77-1.96,7.29-1.96c5.75,0.1,11.94,1.56,17.7,1.46c2.07-0.03,4.17-0.28,6.2-0.63c2.27-0.37,5.56-1.13,7.84-1.38
			c1.94-0.21,4-0.21,5.8,0.64c1.14,0.54,2.1,1.38,2.96,2.28c1.53,1.62,3.02,3.82,4.35,5.62c1.64,2.24,3.42,4.48,5.55,6.27
			c3.06,2.62,6.91,4.12,10.74,5.22c4.04,1.17,8.98,1.97,13.1,2.84c1.28,0.28,2.67,0.6,3.91,1.04"/>
	</g>
</g>
<g id="_x32_D_x24_AG-ANIMALS">
	<g id="POLYLINE_00000002342399284776650980000010774324082021958284_">
		<path class="st125" d="M654.54,348.61c4.35,1.62,9.02,3.25,13.05,5.57"/>
	</g>
	<g id="POLYLINE_00000035530569038323434470000009976619097495546280_">
		<line class="st125" x1="634.17" y1="340.75" x2="644.6" y2="344.85"/>
	</g>
	<g id="POLYLINE_00000010274060082196867380000011851169542546290088_">
		<path class="st125" d="M662.4,358.91c2.18,1.11,4.31,2.39,6.24,3.89c1.49,1.16,2.89,2.48,4.02,4c1.87,2.46,3.04,5.6,4.46,8.32
			c0.87,1.66,1.93,3.24,3.18,4.64c2.99,3.37,7.15,6.48,10.42,9.58c1.05,1.01,2.09,2.08,2.93,3.27c0.5,0.72,0.94,1.51,1.19,2.36
			c0.19,0.67,0.25,1.39,0.11,2.08c-0.13,0.67-0.43,1.29-0.83,1.84c-0.7,0.98-1.64,1.79-2.61,2.5c-1.52,1.11-3.2,2.02-4.89,2.84
			c-5.42,2.57-11.25,4.32-17.1,5.6c-4.4,0.96-11.76,2.13-16.15,3.09c-3.54,0.76-7.24,1.81-10.69,2.9l-22.58,7.53
			c-13.67,4.38-27.96,8-42.1,10.51c-20.28,3.62-42.44,5.31-63.02,6.81"/>
	</g>
	<g id="POLYLINE_00000070100181617111810380000000709268822078267030_">
		<path class="st125" d="M630.2,353.77l11.21,0.07c2.39,0.06,4.85,0.22,7.22,0.58"/>
	</g>
	<g id="POLYLINE_00000054231909490554033900000015484459647843713171_">
		<path class="st125" d="M548.29,396.44c3.69,1.66,8.16,2.97,12,1.04c2.22-1.11,3.98-2.95,5.43-4.94c1.36-1.89,2.46-3.98,3.36-6.13
			c1.5-3.49,2.91-9.17,4.01-12.85c0.86-2.81,1.86-5.64,3.38-8.16c1.08-1.78,2.46-3.39,4.06-4.73c5.34-4.47,12.43-6.05,19.21-6.76
			c6.95-0.72,14.66-0.54,21.66-0.37"/>
	</g>
	<g id="POLYLINE_00000162325753046125529700000009506704135543415227_">
		<line class="st125" x1="614.82" y1="333.05" x2="621.76" y2="335.79"/>
	</g>
	<g id="POLYLINE_00000134938337866662134670000005780925892112547239_">
		<path class="st125" d="M578.18,325.57c2.98,0.51,6.38,0.35,9.41,0.28c2.84-0.06,5.69,0.29,8.45,0.94"/>
	</g>
	<g id="POLYLINE_00000035504633265706428790000008938263455483727274_">
		<path class="st125" d="M141.87,402.59c14.17-6.23,28.91-13.12,42.33-20.77c19.99-11.38,53.61-33.06,73.7-43.78
			c10.65-5.75,21.94-11.26,33.17-15.75c29.1-11.81,60.59-17.13,91.82-19.13c19.08-1.14,38.62-1,57.63,1.09
			c6.58,0.73,13.69,1.77,20.19,3.01c6.65,1.22,18.13,4,24.78,5.37c5.29,1.07,10.82,1.95,16.21,2.24c6.33,0.37,15.62-0.18,21.94-0.35
			c5.71-0.13,11.55-0.02,17.19,0.83c7.05,1.05,14.22,3.32,21,5.53"/>
	</g>
	<g id="POLYLINE_00000063598603493421999060000006763509321747108271_">
		<path class="st125" d="M628.98,355.71c-0.79,0.4-1.76,0.27-2.61,0.16c-0.63-0.1-1.59-0.3-2.21-0.29c-0.41,0-0.84,0.1-1.25,0.05
			c-0.22-0.03-0.43-0.13-0.61-0.27c-0.35-0.27-0.63-0.65-0.79-1.07c-0.12-0.3-0.17-0.64-0.08-0.95c0.18-0.63,0.76-1.08,1.35-1.33
			c0.49-0.21,1.07-0.21,1.6-0.22c0.26-0.01,0.53-0.04,0.77-0.14c0.52-0.21,0.95-0.49,1.53-0.54c0.77-0.06,1.56,0.13,2.25,0.48
			c0.57,0.3,1.08,0.79,1.23,1.44c0.12,0.51,0.05,1.06-0.16,1.54C629.79,355.04,629.44,355.47,628.98,355.71z"/>
	</g>
	<g id="POLYLINE_00000141439360478371450820000002221317476403791792_">
		<path class="st125" d="M650.3,358.08c-0.46-0.22-1.02-0.38-1.43-0.69c-0.19-0.15-0.31-0.36-0.36-0.59
			c-0.05-0.21-0.05-0.44-0.05-0.65c0.01-0.4,0.04-0.83,0.09-1.23c0.06-0.47,0.15-0.95,0.32-1.39c0.1-0.26,0.22-0.51,0.41-0.72
			c0.25-0.29,0.64-0.42,1.02-0.42c0.76,0,1.47,0.32,2.14,0.64l1.07,0.55c0.48,0.24,0.98,0.46,1.51,0.56
			c0.32,0.06,0.64,0.04,0.96,0.01c0.51-0.05,1.08-0.15,1.58,0.03c0.29,0.1,0.55,0.29,0.79,0.49c0.64,0.53,1.22,1.32,1.88,1.83
			c0.17,0.13,0.36,0.22,0.57,0.28c0.23,0.07,0.51,0.1,0.73,0.21c0.22,0.1,0.38,0.29,0.51,0.48c0.31,0.48,0.46,1.09,0.32,1.66
			c-0.16,0.66-0.72,1.18-1.36,1.37c-0.78,0.23-1.61,0.07-2.38-0.1c-1.05-0.26-2.29-0.67-3.35-0.88c-0.65-0.15-1.41-0.19-2.08-0.26
			c-0.59-0.06-1.13-0.27-1.66-0.54C651.24,358.55,650.58,358.2,650.3,358.08z"/>
	</g>
	<g id="POLYLINE_00000144307113602698456740000006492072495782507169_">
		<path class="st125" d="M627.12,401.32c-0.77,0.59-1.8,0.67-2.74,0.59c-0.87-0.08-1.77-0.28-2.5-0.78
			c-0.49-0.33-0.87-0.82-1.09-1.36c-0.12-0.31-0.22-0.64-0.17-0.97c0.02-0.12,0.06-0.23,0.15-0.32c0.09-0.08,0.21-0.12,0.33-0.14
			c0.54-0.06,1.21,0.13,1.76,0.14c0.43,0.02,0.85-0.07,1.25-0.22c0.43-0.16,0.89-0.4,1.34-0.53c0.32-0.1,0.66-0.15,1-0.15
			c0.35,0,0.7,0.06,1.01,0.23c0.32,0.17,0.56,0.47,0.67,0.82c0.14,0.42,0.09,0.87-0.04,1.28
			C627.91,400.46,627.58,400.96,627.12,401.32z"/>
	</g>
	<g id="POLYLINE_00000150814623303070665250000016479026680284366492_">
		<path class="st125" d="M643.42,391.54c-0.12-0.35-0.32-0.67-0.55-0.95c-0.25-0.32-0.7-0.72-0.99-1.01
			c-0.32-0.31-0.83-0.88-1.15-1.19c-0.49-0.48-1.07-0.93-1.79-0.92c-0.41,0-0.8,0.14-1.14,0.36c-0.62,0.4-1.12,1.05-1.74,1.45
			c-0.24,0.15-0.5,0.28-0.77,0.34c-0.36,0.09-0.74,0.08-1.11,0.07c-0.61-0.02-1.32-0.12-1.91,0.04c-0.19,0.05-0.37,0.14-0.52,0.26
			c-0.23,0.19-0.38,0.46-0.48,0.74c-0.17,0.48-0.22,1-0.21,1.51c0.04,1.18,0.43,2.46,1.43,3.17c0.3,0.21,0.64,0.36,1.01,0.39
			c0.34,0.03,0.69-0.1,1-0.2c0.18-0.05,0.38-0.1,0.57-0.05c0.22,0.07,0.38,0.24,0.53,0.4c0.31,0.34,0.63,0.72,1.02,0.98
			c0.3,0.2,0.63,0.34,0.98,0.44c0.63,0.18,1.3,0.24,1.95,0.19c0.43-0.04,0.88-0.12,1.27-0.32c0.18-0.1,0.34-0.23,0.46-0.39
			c0.15-0.21,0.23-0.46,0.29-0.71c0.07-0.27,0.12-0.59,0.27-0.84c0.11-0.19,0.28-0.33,0.45-0.46c0.33-0.25,0.71-0.5,0.91-0.87
			c0.2-0.34,0.3-0.74,0.34-1.13C643.58,392.4,643.55,391.95,643.42,391.54z"/>
	</g>
	<g id="POLYLINE_00000013872669664601616100000002869076575718051471_">
		<path class="st125" d="M650.42,348.16c-0.62-0.32-1.28-0.61-1.96-0.78c-1.03-0.23-2.16-0.28-3.12-0.76
			c-0.28-0.14-0.55-0.33-0.7-0.61c-0.12-0.22-0.16-0.48-0.13-0.73c0.03-0.32,0.15-0.64,0.33-0.91c0.12-0.18,0.28-0.34,0.49-0.42
			c0.39-0.14,0.82,0.17,1.17,0.33c0.2,0.1,0.41,0.19,0.64,0.2c0.26,0.01,0.52-0.08,0.76-0.18c0.4-0.16,0.83-0.38,1.26-0.42
			c0.54-0.05,1.08,0.12,1.59,0.3c0.26,0.1,0.82,0.31,1.07,0.4c0.52,0.17,0.93,0.54,1.3,0.93c0.34,0.37,0.73,0.77,0.95,1.22
			c0.2,0.46,0.46,0.94,0.52,1.45c0.01,0.13,0.01,0.27-0.04,0.4c-0.09,0.23-0.31,0.37-0.53,0.45c-0.52,0.19-1.11,0.16-1.64,0.03
			C651.7,348.9,651.03,348.49,650.42,348.16z"/>
	</g>
	<g id="POLYLINE_00000088837029832425947180000005791586310298069177_">
		<path class="st125" d="M626.62,340.01c-0.07-0.04-0.21-0.11-0.28-0.15c-0.35-0.2-0.97-0.58-1.33-0.74
			c-0.35-0.17-0.73-0.31-1.1-0.43c-0.75-0.25-1.69-0.46-2.37-0.87c-0.15-0.09-0.29-0.2-0.4-0.35c-0.3-0.42-0.04-0.97,0.25-1.32
			c0.37-0.46,0.89-0.77,1.43-1c0.97-0.4,2.02-0.56,3.05-0.65c0.71-0.04,2.25-0.22,2.94-0.16c0.27,0.02,0.55,0.06,0.8,0.15
			c0.56,0.2,0.99,0.64,1.38,1.08c0.61,0.71,1.24,1.5,1.99,2.08c0.34,0.28,0.8,0.49,1.2,0.68c0.32,0.16,0.68,0.37,0.75,0.74
			c0.08,0.4-0.07,0.8-0.28,1.14c-0.3,0.47-0.76,0.78-1.29,0.93c-0.93,0.27-1.93,0.21-2.88,0.08
			C629.15,341.02,627.83,340.63,626.62,340.01z"/>
	</g>
	<g id="POLYLINE_00000050629103219603352890000015727518602366973571_">
		<path class="st125" d="M576.33,326.98c-0.95,0.41-2.02,0.35-3.01,0.11c-0.77-0.18-1.6-0.49-2.34-0.77
			c-1.66-0.64-3.56-1.38-5.18-2.11c-0.35-0.16-0.73-0.27-1.12-0.3c-0.9-0.08-1.95,0.02-2.84-0.18c-0.33-0.08-0.69-0.21-0.88-0.52
			c-0.11-0.18-0.14-0.4-0.13-0.61c0.02-0.37,0.17-0.72,0.37-1.03c0.22-0.35,0.53-0.65,0.89-0.85c0.61-0.35,1.33-0.46,2.02-0.55
			c0.95-0.11,2.04-0.16,2.94-0.5c0.78-0.26,1.58-0.69,2.42-0.61c0.42,0.04,0.83,0.17,1.21,0.33c0.96,0.41,1.88,1.11,2.76,1.64
			c0.33,0.19,0.69,0.36,1.05,0.48c0.66,0.22,1.84,0.39,2.52,0.53c0.53,0.11,1.07,0.22,1.55,0.46c0.21,0.1,0.41,0.24,0.53,0.44
			c0.26,0.39,0.12,0.89-0.05,1.29c-0.26,0.6-0.67,1.13-1.12,1.6C577.48,326.3,576.94,326.71,576.33,326.98z"/>
	</g>
	<g id="POLYLINE_00000104697940651749136440000010579290858420505492_">
		<path class="st125" d="M610.25,333.83c-0.84-0.11-1.73,0.06-2.56,0c-0.19-0.02-0.39-0.06-0.56-0.14c-0.4-0.19-0.62-0.64-0.85-1
			c-0.15-0.23-0.33-0.46-0.57-0.6c-0.47-0.28-1.04-0.33-1.57-0.38c-1.94-0.14-4-0.22-5.85-0.87c-0.71-0.25-1.37-0.7-1.98-1.13
			l-0.33-0.22c-0.14-0.09-0.27-0.2-0.35-0.34c-0.11-0.19-0.15-0.41-0.16-0.62c-0.02-0.38,0.04-0.77,0.18-1.12
			c0.11-0.27,0.27-0.52,0.5-0.7c0.2-0.16,0.44-0.27,0.68-0.34c0.79-0.24,1.84-0.22,2.66-0.27c0.64-0.03,1.3-0.13,1.93-0.25
			c0.84-0.15,1.89-0.45,2.74-0.46c1.23-0.03,2.49,0.42,3.57,1c0.3,0.17,0.59,0.37,0.86,0.59c0.44,0.36,0.97,0.92,1.41,1.28
			c0.33,0.28,0.68,0.52,1.06,0.72c1.01,0.56,2.36,0.87,3.32,1.45c0.24,0.15,0.46,0.35,0.59,0.61c0.13,0.25,0.17,0.53,0.15,0.81
			c-0.02,0.46-0.14,0.91-0.33,1.32c-0.15,0.33-0.36,0.64-0.63,0.87c-0.16,0.14-0.34,0.24-0.54,0.29c-0.29,0.08-0.6,0.07-0.89,0.03
			C611.9,334.24,611.06,333.92,610.25,333.83z"/>
	</g>
	<g id="POLYLINE_00000050661212947871877350000017221256130772417441_">
		<path class="st125" d="M566.63,371.61c0.5,1.05,1.26,2.05,1.46,3.22c0.1,0.59,0.01,1.21-0.21,1.77c-0.23,0.6-0.6,1.16-1.12,1.55
			c-0.41,0.31-0.93,0.48-1.35,0.76c-0.53,0.34-0.8,0.96-1.18,1.43c-0.19,0.24-0.41,0.45-0.68,0.59c-0.43,0.23-0.92,0.31-1.41,0.3
			c-0.59-0.01-1.19-0.14-1.73-0.39c-0.42-0.19-0.81-0.47-1.17-0.76c-0.5-0.41-1.06-0.98-1.68-1.19c-0.3-0.1-0.62-0.1-0.93-0.03
			c-0.74,0.16-1.45,0.57-2.15,0.84c-0.79,0.3-1.61,0.53-2.46,0.62c-0.33,0.04-0.7,0-1.03,0.02c-0.21,0.02-0.41,0.09-0.6,0.19
			c-0.69,0.4-1.26,1.05-2.03,1.29c-0.3,0.09-0.61,0.06-0.91-0.01c-0.56-0.15-1.15-0.43-1.71-0.57c-0.64-0.19-1.42-0.32-1.99-0.68
			c-0.2-0.13-0.38-0.3-0.5-0.51c-0.26-0.5-0.23-1.11-0.1-1.65c0.17-0.73,0.64-1.36,1.1-1.94c0.21-0.28,0.41-0.59,0.43-0.95
			c0.01-0.17-0.02-0.35-0.06-0.52c-0.16-0.6-0.48-1.19-0.63-1.79c-0.15-0.58-0.1-1.21,0.18-1.74c0.19-0.37,0.49-0.68,0.83-0.91
			c0.34-0.24,0.75-0.47,1.05-0.77c0.16-0.16,0.29-0.35,0.39-0.54c0.39-0.79,0.49-1.74,0.98-2.48c0.22-0.34,0.51-0.64,0.89-0.8
			c0.35-0.14,0.74-0.15,1.12-0.15c0.63,0.01,1.31,0.07,1.92-0.1c0.64-0.18,1.23-0.62,1.8-0.95c0.37-0.21,0.78-0.4,1.21-0.44
			c0.52-0.05,1.04,0.07,1.53,0.25c0.91,0.32,1.74,0.92,2.58,1.37c0.31,0.16,0.64,0.29,0.98,0.35c0.32,0.06,0.65,0.05,0.97,0.02
			c0.74-0.06,1.54-0.27,2.28-0.14c0.3,0.05,0.59,0.18,0.85,0.34c0.45,0.29,0.82,0.69,1.15,1.1c0.4,0.5,0.78,1.02,1.06,1.6
			C566.11,369.98,566.26,370.86,566.63,371.61z"/>
	</g>
	<g id="POLYLINE_00000121267312514651983950000017216106423055954309_">
		<path class="st125" d="M678.4,386.47c-0.07-0.12-0.54-1.04-0.61-1.18c-0.29-0.54-0.61-1.1-1.11-1.47
			c-0.58-0.43-1.33-0.55-2.03-0.63c-1.2-0.13-2.56-0.22-3.71-0.59c-0.5-0.16-0.94-0.38-1.32-0.74c-0.31-0.28-0.65-0.62-1.01-0.83
			c-0.35-0.21-0.74-0.36-1.13-0.47c-1-0.29-2.05-0.38-3.08-0.33c-1.15,0.06-2.3,0.33-3.3,0.91c-0.76,0.44-1.45,1.05-1.94,1.78
			c-0.3,0.45-0.53,0.96-0.63,1.5c-0.26,1.41,0.73,2.66,1.03,3.97c0.27,1.14-0.23,2.27-0.75,3.26c-0.61,1.16-1.35,2.37-1.57,3.68
			c-0.25,1.36-0.09,2.93,0.9,3.97c0.52,0.55,1.24,0.87,1.96,1.06c0.39,0.1,0.8,0.16,1.2,0.15c0.34,0,0.71-0.09,1.05-0.14
			c0.2-0.03,0.4-0.04,0.59,0.01c0.2,0.05,0.38,0.17,0.55,0.29c0.55,0.42,1.07,0.94,1.7,1.24c0.86,0.4,1.85,0.45,2.78,0.34
			c0.64-0.08,1.27-0.25,1.84-0.54c0.64-0.31,1.2-0.82,1.84-1.14c0.62-0.31,1.41-0.34,2.09-0.43c1.05-0.14,2.19-0.43,2.89-1.28
			c0.52-0.66,0.73-1.54,1.06-2.3c0.12-0.28,0.26-0.55,0.45-0.79c0.19-0.23,0.41-0.42,0.66-0.59c0.47-0.32,1.07-0.6,1.51-0.97
			c0.46-0.38,0.86-0.89,0.97-1.49c0.11-0.63-0.1-1.26-0.34-1.84C680.29,389.38,679.17,387.9,678.4,386.47z"/>
	</g>
	<g id="POLYLINE_00000149378099562948090690000018409492885797002171_">
		<path class="st125" d="M694.79,382.27c0.67,1.34,0.88,2.87,0.83,4.36c-0.08,2.3-0.71,4.56-1.48,6.72"/>
	</g>
	<g id="POLYLINE_00000018219250831386601540000013544478152038506422_">
		<path class="st125" d="M694.79,382.27c-0.41,0.26-0.91,0.34-1.39,0.31c-0.89-0.05-1.74-0.45-2.42-1.01
			c-0.44-0.36-0.84-0.79-1.2-1.23c-0.31-0.37-0.72-0.91-1.07-1.24c-0.44-0.42-0.98-0.72-1.52-1c-1.56-0.79-3.4-1.56-4.57-2.9
			c-0.34-0.39-0.62-0.84-0.87-1.29c-0.96-1.86-2.35-3.94-3.5-5.68c-0.79-1.25-1.56-2.64-2.57-3.73c-0.53-0.6-1.27-1.11-1.83-1.69
			c-0.6-0.6-1-1.49-1.39-2.23c-0.28-0.54-0.62-1.05-1.08-1.46c-1.1-0.98-2.57-1.49-3.73-2.39c-0.37-0.3-0.79-0.68-0.86-1.18
			c-0.04-0.34,0.13-0.67,0.34-0.93c0.23-0.28,0.51-0.51,0.81-0.7c0.33-0.21,0.7-0.37,1.09-0.45c0.26-0.05,0.54-0.06,0.8,0
			c0.44,0.08,0.91,0.34,1.32,0.53c0.32,0.15,0.66,0.28,1.01,0.32c0.45,0.06,0.9,0.01,1.34-0.06c0.73-0.12,1.7-0.39,2.44-0.49
			c0.21-0.03,0.43-0.04,0.65-0.02c0.42,0.03,0.81,0.2,1.17,0.41c0.27,0.16,0.61,0.37,0.89,0.51c0.36,0.19,0.75,0.35,1.13,0.5
			c0.95,0.38,2.2,0.72,3.15,1.1c0.18,0.08,0.35,0.18,0.49,0.31c0.14,0.12,0.24,0.28,0.33,0.44c0.22,0.4,0.44,0.83,0.8,1.12
			c0.21,0.17,0.46,0.29,0.72,0.38c0.46,0.16,0.95,0.25,1.43,0.33l1.81,0.25c0.73,0.11,1.51,0.26,2.07,0.78
			c0.46,0.42,0.78,1.09,1.1,1.61c0.16,0.25,0.32,0.51,0.54,0.72c0.21,0.2,0.47,0.34,0.69,0.52c0.38,0.33,0.6,0.8,0.69,1.29
			c0.08,0.44,0.01,0.92,0.08,1.37c0.02,0.13,0.06,0.25,0.12,0.37c0.07,0.13,0.17,0.24,0.29,0.34c0.41,0.36,0.93,0.62,1.3,1.02
			c0.39,0.41,0.67,0.92,0.83,1.47c0.1,0.35,0.14,0.73,0.08,1.09c-0.07,0.49-0.26,0.98-0.32,1.47c-0.09,0.74-0.03,1.5,0.09,2.23
			c0.12,0.84,0.46,2.1,0.34,2.93c-0.05,0.39-0.24,0.66-0.44,0.98c-0.09,0.15-0.18,0.32-0.19,0.5c0,0.39,0.25,0.73,0.34,1.1
			c0.13,0.45,0.04,0.92-0.08,1.37C695.82,381.01,695.47,381.83,694.79,382.27z"/>
	</g>
	<g id="POLYLINE_00000093141821010530378930000005424008632360971392_">
		<path class="st125" d="M434.94,446.51c-18.98,0.98-38.39-0.68-57.24-2.89c-25.61-3.17-52.62-7.39-77.74-13.21
			c-4.04-0.99-22.52-5.65-26.13-6.4c-5.02-1.12-10.79-2.17-15.89-2.96c-14.35-2.19-29.48-3.62-43.97-4.5
			c-13.89-0.81-28.63-1.14-42.53-0.67"/>
	</g>
	<g id="POLYLINE_00000168084474914714876240000011182151161113048744_">
		<path class="st125" d="M494.65,409.57c-1.12,2.29-2.53,4.47-4.23,6.38c-1.31,1.47-2.82,2.79-4.55,3.74
			c-1.84,1.02-3.91,1.52-5.98,1.77c-2.45,0.33-6.93,0.4-9.45,0.52c-7.02,0.39-14.19,1.25-20.74,3.93c-2.11,0.88-4.15,1.99-5.95,3.4
			c-1.27,0.99-2.41,2.16-3.38,3.44c-1.83,2.39-3.13,5.17-4.05,8.04c-1.25,3.92-1.85,8.05-2.14,12.14c-0.42,5.62,0,12.36-1.04,17.91
			c-0.33,1.77-0.84,3.53-1.54,5.19c-1.11,2.69-2.82,5.52-4.03,8.17c-0.36,0.82-0.7,1.67-0.89,2.55c-0.11,0.55-0.17,1.11-0.1,1.67
			c0.12,0.9,0.61,1.72,1.29,2.31c0.76,0.67,1.71,1.11,2.67,1.42c2.05,0.63,4.24,0.67,6.36,0.5c3.87-0.34,7.67-1.4,11.35-2.62
			c6.58-2.24,13.12-5.25,19.33-8.38c11.63-6,22.97-12.99,32.69-21.81c10.85-9.91,17.7-22.03,20.61-36.43l1.9-9.92"/>
	</g>
	<g id="POLYLINE_00000016762997994113720750000015625516907146483377_">
		<path class="st125" d="M197.83,406.02c-4.23,0.8-9.14,1.54-13.15,2.98c-3.72,1.29-7.26,3.2-10.62,5.24
			c-13.17,8.17-30.02,21.72-43.36,29.56c-9.51,5.7-19.71,10.46-30.33,13.69c-7.77,2.38-15.87,4-23.92,5.02
			c-6.05,0.75-12.43,1.29-18.53,1.32c-2.73-0.02-5.57-0.05-8.26-0.57c-0.65-0.14-1.32-0.3-1.91-0.62l-0.05-0.03l-0.04-0.03
			l-0.04-0.03l-0.04-0.03l-0.04-0.03l-0.04-0.03l-0.04-0.03l-0.03-0.03l-0.03-0.03l-0.03-0.03l-0.03-0.03l-0.03-0.03l-0.03-0.03
			l-0.03-0.03l-0.02-0.03l-0.02-0.03l-0.02-0.03l-0.02-0.03l-0.02-0.03l-0.02-0.03l-0.01-0.03l-0.01-0.03l-0.01-0.03l-0.01-0.02
			l-0.01-0.02l0-0.02l0-0.02l0-0.02l0-0.02l0-0.02l0-0.02l0-0.02l0-0.02l0-0.02l0-0.02l0-0.02l0-0.02l0-0.02l0-0.02l0-0.02l0-0.02
			l0-0.02l0-0.02l0-0.02l0.01-0.02l0.01-0.02l0.01-0.02l0.01-0.02l0.01-0.02l0.01-0.02l0.01-0.02l0.01-0.02l0.01-0.02
			c0.23-0.5,0.68-0.89,1.1-1.23c0.8-0.63,1.71-1.17,2.59-1.67c1.44-0.8,3.06-1.58,4.56-2.28c4.05-1.84,11.09-4.84,14.9-6.94
			c2.63-1.42,5.23-3.05,7.65-4.82c5.79-4.26,11.04-9.41,15.94-14.66c4.15-4.53,8.31-9.38,11.77-14.46c1.39-2.02,2.98-4.95,4.87-6.53
			c0.95-0.82,2.1-1.38,3.26-1.83l2.62-0.98c0.67-0.27,1.37-0.55,1.94-1c0.24-0.19,0.46-0.43,0.56-0.74
			c0.07-0.24,0.06-0.49,0.01-0.73c-0.08-0.39-0.25-0.76-0.42-1.12c-0.43-0.88-0.95-1.86-1.2-2.8c-0.14-0.54-0.2-1.11-0.19-1.67
			c0.08-2.58,1.19-5.06,1.55-7.6c0.1-0.75,0.14-1.53-0.01-2.28c-0.14-0.71-0.45-1.39-0.85-1.99c-0.59-0.87-1.36-1.6-2.16-2.27
			c-1.55-1.29-3.69-2.65-5.16-4.04c-0.4-0.39-0.8-0.79-1.04-1.3c-0.1-0.21-0.16-0.45-0.11-0.68l0-0.02l0-0.02l0.01-0.02l0.01-0.02
			l0.01-0.02l0.01-0.02l0.01-0.02l0.01-0.02l0.01-0.02l0.01-0.02l0.01-0.02l0.01-0.02l0.01-0.02l0.01-0.02l0.01-0.02l0.01-0.02
			l0.01-0.02l0.01-0.02l0.01-0.02l0.01-0.02l0.01-0.02l0.01-0.02l0.01-0.02l0.01-0.02c0.15-0.16,0.34-0.28,0.54-0.38
			c0.33-0.16,0.69-0.27,1.04-0.36c1.14-0.28,2.34-0.37,3.51-0.43c2.11-0.1,4.34-0.03,6.45,0.09c9.96,0.63,20.01,2.39,29.68,4.82
			c7.07,1.82,14.1,4.14,20.51,7.69"/>
	</g>
</g>
<g id="_x32_D_x24_AG-OUTLINE">
	<g id="POLYLINE_00000152232204099033989360000009035645642705362359_">
		<path class="st127" d="M694.14,393.36c0.44,0.75,0.78,1.58,0.87,2.45c0.06,0.58,0,1.18-0.18,1.74c-0.24,0.74-0.69,1.4-1.2,1.99
			c-0.82,0.93-1.82,1.7-2.85,2.39c-2.14,1.42-4.52,2.55-6.89,3.54c-3.14,1.3-6.43,2.38-9.72,3.26c-5.71,1.57-13.53,2.73-19.36,3.9
			c-4.04,0.81-8.2,1.96-12.13,3.2l-22.58,7.53c-13.67,4.38-27.96,8-42.1,10.51c-20.28,3.62-42.44,5.31-63.02,6.81
			c-2.65,5.25-6.05,10.12-10.01,14.47c-6.53,7.12-14.45,12.93-22.58,18.1c-7.01,4.43-14.54,8.46-22.08,11.93
			c-5.29,2.4-10.81,4.68-16.43,6.19c-2.61,0.69-5.31,1.24-8.01,1.36c-1.74,0.07-3.51-0.03-5.18-0.53c-1.2-0.36-2.39-0.93-3.23-1.88
			c-0.48-0.55-0.81-1.25-0.88-1.99c-0.12-1.21,0.29-2.41,0.74-3.52c1.51-3.52,3.79-6.94,4.97-10.6c1.13-3.44,1.43-7.12,1.55-10.73
			c0.13-5.31,0.13-11.77,1.09-16.97c-18.38,0.94-37.09-0.56-55.35-2.67c-26.34-3.18-53.78-7.47-79.63-13.43
			c-4.04-0.99-22.52-5.65-26.13-6.4c-5.02-1.12-10.79-2.17-15.89-2.96c-14.35-2.19-29.48-3.62-43.97-4.5
			c-13.89-0.81-28.63-1.14-42.53-0.67c-5.76,3.66-20.83,14.61-26.62,18.69c-19.23,13.51-37.06,22.62-60.43,26.72
			c-5.51,0.98-11.4,1.68-16.98,2.12c-4.26,0.31-8.65,0.51-12.92,0.34c-1.55-0.07-3.14-0.18-4.66-0.47
			c-0.71-0.14-1.44-0.31-2.08-0.65l-0.05-0.03l-0.04-0.03l-0.04-0.03l-0.04-0.03l-0.04-0.03l-0.04-0.03l-0.04-0.03l-0.03-0.03
			l-0.03-0.03l-0.03-0.03l-0.03-0.03l-0.03-0.03l-0.03-0.03l-0.03-0.03l-0.02-0.03l-0.02-0.03l-0.02-0.03l-0.02-0.03l-0.02-0.03
			l-0.02-0.03l-0.01-0.03l-0.01-0.03l-0.01-0.03l-0.01-0.02l-0.01-0.02l0-0.02l0-0.02l0-0.02l0-0.02l0-0.02l0-0.02l0-0.02l0-0.02
			l0-0.02l0-0.02l0-0.02l0-0.02l0-0.02l0-0.02l0-0.02l0-0.02l0-0.02l0-0.02l0-0.02l0.01-0.02l0.01-0.02l0.01-0.02l0.01-0.02
			l0.01-0.02l0.01-0.02l0.01-0.02l0.01-0.02l0.01-0.02c0.23-0.5,0.68-0.89,1.1-1.23c0.8-0.63,1.71-1.17,2.59-1.67
			c1.44-0.8,3.06-1.58,4.56-2.28c4.05-1.84,11.09-4.84,14.9-6.94c2.63-1.42,5.23-3.05,7.65-4.82c5.79-4.26,11.04-9.41,15.94-14.66
			c4.15-4.53,8.31-9.38,11.77-14.46c1.39-2.02,2.98-4.95,4.87-6.53c0.95-0.82,2.1-1.38,3.26-1.83l2.62-0.98
			c0.67-0.27,1.37-0.55,1.94-1c0.24-0.19,0.46-0.43,0.56-0.74c0.07-0.24,0.06-0.49,0.01-0.73c-0.08-0.39-0.25-0.76-0.42-1.12
			c-0.43-0.88-0.95-1.86-1.2-2.8c-0.14-0.54-0.2-1.11-0.19-1.67c0.08-2.58,1.19-5.06,1.55-7.6c0.1-0.75,0.14-1.53-0.01-2.28
			c-0.14-0.71-0.45-1.39-0.85-1.99c-0.59-0.87-1.36-1.6-2.16-2.27c-1.55-1.29-3.69-2.65-5.16-4.04c-0.4-0.39-0.8-0.79-1.04-1.3
			c-0.1-0.21-0.16-0.45-0.11-0.68l0-0.02l0-0.02l0.01-0.02l0.01-0.02l0.01-0.02l0.01-0.02l0.01-0.02l0.01-0.02l0.01-0.02l0.01-0.02
			l0.01-0.02l0.01-0.02l0.01-0.02l0.01-0.02l0.01-0.02l0.01-0.02l0.01-0.02l0.01-0.02l0.01-0.02l0.01-0.02l0.01-0.02l0.01-0.02
			l0.01-0.02l0.01-0.02c0.15-0.16,0.34-0.28,0.54-0.38c0.33-0.16,0.69-0.27,1.04-0.36c1.14-0.28,2.34-0.37,3.51-0.43
			c2.11-0.1,4.34-0.03,6.45,0.09c9.96,0.63,20.01,2.39,29.68,4.82c7.07,1.82,14.1,4.14,20.51,7.69c7.29-3.73,15.51-8.37,22.56-12.57
			c12.93-7.81,46.99-28.87,59.58-35.73c8.89-4.93,18.55-9.9,27.82-14.04c9.84-4.4,20.13-8.31,30.46-11.4
			c10.53-3.15,21.52-5.6,32.35-7.46c22.89-3.87,46.54-5.53,69.74-5.07c13.44,0.3,27.18,1.43,40.45,3.59
			c4.58,0.73,10.08,1.83,14.62,2.82c5.09,1.14,17.3,3.98,22.43,4.75c3.81,0.62,7.76,1.08,11.62,1.23c5.8,0.26,14.98-0.25,20.75-0.41
			c5.71-0.13,11.55-0.02,17.19,0.83c7.05,1.05,14.22,3.32,21,5.53c0.65-0.48,1.49-0.62,2.27-0.71c0.95-0.11,2.04-0.16,2.94-0.5
			c0.78-0.26,1.58-0.69,2.42-0.61c0.42,0.04,0.83,0.17,1.21,0.33c0.96,0.41,1.88,1.11,2.76,1.64c0.33,0.19,0.69,0.36,1.05,0.48
			c0.66,0.22,1.84,0.39,2.52,0.53c0.55,0.12,1.12,0.23,1.63,0.5c0.22,0.12,0.42,0.29,0.53,0.52c0.12,0.26,0.09,0.57,0.01,0.84
			c-0.19,0.63-0.58,1.19-1,1.68c2.98,0.51,6.38,0.35,9.41,0.28c2.84-0.06,5.69,0.29,8.45,0.94c0.2-0.19,0.44-0.31,0.7-0.4
			c0.82-0.27,1.89-0.24,2.74-0.29c0.64-0.03,1.3-0.13,1.93-0.25c0.74-0.14,1.74-0.4,2.48-0.45c0.65-0.05,1.3,0.04,1.93,0.21
			c0.85,0.25,1.69,0.6,2.42,1.11c0.68,0.48,1.29,1.2,1.96,1.71c0.86,0.69,2.04,1.07,3.06,1.48c0.36,0.15,0.74,0.3,1.07,0.51
			c0.29,0.18,0.55,0.43,0.67,0.75c0.09,0.24,0.11,0.5,0.1,0.75c-0.02,0.39-0.12,0.78-0.27,1.14l6.94,2.74
			c0.42-0.35,0.93-0.59,1.44-0.77c0.86-0.3,1.78-0.44,2.68-0.51c0.63-0.04,2.17-0.2,2.79-0.17c0.26,0.01,0.53,0.04,0.79,0.11
			c0.64,0.16,1.13,0.65,1.55,1.13c0.61,0.71,1.24,1.5,1.99,2.08c0.34,0.28,0.8,0.49,1.2,0.68c0.28,0.14,0.58,0.31,0.71,0.61
			c0.09,0.23,0.07,0.49,0.01,0.73c-0.12,0.43-0.39,0.81-0.74,1.08l10.43,4.11c0.09-0.26,0.22-0.5,0.42-0.69
			c0.11-0.11,0.25-0.2,0.41-0.23c0.37-0.06,0.75,0.21,1.07,0.36c0.2,0.1,0.41,0.19,0.64,0.2c0.26,0.01,0.52-0.08,0.76-0.18
			c0.4-0.16,0.83-0.38,1.26-0.42c0.54-0.05,1.08,0.12,1.59,0.3c0.26,0.1,0.82,0.31,1.07,0.4c0.52,0.17,0.93,0.54,1.3,0.93
			c0.34,0.37,0.73,0.77,0.95,1.22c0.2,0.47,0.47,0.95,0.52,1.47c0.01,0.13,0,0.27-0.06,0.39c4.35,1.62,9.02,3.25,13.05,5.57
			c0.32-0.25,0.68-0.46,1.07-0.59c0.28-0.1,0.58-0.16,0.88-0.14c0.56,0.02,1.11,0.33,1.61,0.57c0.32,0.15,0.66,0.28,1.01,0.32
			c0.45,0.06,0.9,0.01,1.34-0.06c0.73-0.12,1.7-0.39,2.44-0.49c0.21-0.03,0.43-0.04,0.65-0.02c0.42,0.03,0.81,0.2,1.17,0.41
			c0.27,0.16,0.61,0.37,0.89,0.51c0.36,0.19,0.75,0.35,1.13,0.5c0.95,0.38,2.2,0.72,3.15,1.1c0.18,0.08,0.35,0.18,0.49,0.31
			c0.14,0.12,0.24,0.28,0.33,0.44c0.22,0.4,0.44,0.83,0.8,1.12c0.21,0.17,0.46,0.29,0.72,0.38c0.46,0.16,0.95,0.25,1.43,0.33
			l1.81,0.25c0.73,0.11,1.51,0.26,2.07,0.78c0.46,0.42,0.78,1.09,1.1,1.61c0.16,0.25,0.32,0.51,0.54,0.72
			c0.21,0.2,0.47,0.34,0.69,0.52c0.38,0.33,0.6,0.8,0.69,1.29c0.08,0.44,0.01,0.92,0.08,1.37c0.02,0.13,0.06,0.25,0.12,0.37
			c0.07,0.13,0.17,0.24,0.29,0.34c0.41,0.36,0.93,0.62,1.3,1.02c0.39,0.41,0.67,0.92,0.83,1.47c0.1,0.35,0.14,0.73,0.08,1.09
			c-0.07,0.49-0.26,0.98-0.32,1.47c-0.09,0.74-0.03,1.5,0.09,2.23c0.12,0.84,0.46,2.1,0.34,2.93c-0.05,0.39-0.24,0.66-0.44,0.98
			c-0.09,0.15-0.18,0.32-0.19,0.5c0,0.39,0.25,0.73,0.34,1.1c0.13,0.45,0.04,0.92-0.08,1.37c-0.21,0.76-0.56,1.58-1.24,2.02
			c0.67,1.34,0.88,2.87,0.83,4.36C695.54,388.94,694.91,391.2,694.14,393.36z"/>
	</g>
</g>
</svg>
