<?xml version="1.0" encoding="utf-8"?>
<!-- Generator: Adobe Illustrator 26.3.1, SVG Export Plug-In . SVG Version: 6.00 Build 0)  -->
<!DOCTYPE svg PUBLIC "-//W3C//DTD SVG 1.1//EN" "http://www.w3.org/Graphics/SVG/1.1/DTD/svg11.dtd" [
	<!ENTITY ns_extend "http://ns.adobe.com/Extensibility/1.0/">
	<!ENTITY ns_ai "http://ns.adobe.com/AdobeIllustrator/10.0/">
	<!ENTITY ns_graphs "http://ns.adobe.com/Graphs/1.0/">
	<!ENTITY ns_vars "http://ns.adobe.com/Variables/1.0/">
	<!ENTITY ns_imrep "http://ns.adobe.com/ImageReplacement/1.0/">
	<!ENTITY ns_sfw "http://ns.adobe.com/SaveForWeb/1.0/">
	<!ENTITY ns_custom "http://ns.adobe.com/GenericCustomNamespace/1.0/">
	<!ENTITY ns_adobe_xpath "http://ns.adobe.com/XPath/1.0/">
]>
<svg version="1.1" xmlns:x="&ns_extend;" xmlns:i="&ns_ai;" xmlns:graph="&ns_graphs;"
	 xmlns="http://www.w3.org/2000/svg" xmlns:xlink="http://www.w3.org/1999/xlink" x="0px" y="0px" width="750px" height="750px"
	 viewBox="0 0 750 750" style="enable-background:new 0 0 750 750;" xml:space="preserve">
<style type="text/css">
	.st0{fill:#FFFFFF;}
	.st1{fill:#FB8604;}
	.st2{fill:none;stroke:#FB8604;stroke-width:2;stroke-linecap:round;stroke-linejoin:round;stroke-miterlimit:10;}
	.st3{fill:none;stroke:#FB8604;stroke-width:2;stroke-linecap:round;stroke-linejoin:round;}
	.st4{fill:none;stroke:#FB8604;stroke-width:2;stroke-linecap:round;stroke-linejoin:round;stroke-dasharray:2.8868,4.8113;}
	.st5{fill:none;stroke:#FB8604;stroke-width:2;stroke-linecap:round;stroke-linejoin:round;stroke-dasharray:3.2,5.3333;}
	.st6{fill:none;stroke:#FB8604;stroke-width:2;stroke-linecap:round;stroke-linejoin:round;stroke-dasharray:2.7333,4.5556;}
	.st7{fill:none;stroke:#FB8604;stroke-width:2;stroke-linecap:round;stroke-linejoin:round;stroke-dasharray:2.5521,4.2535;}
	.st8{fill:none;stroke:#FB8604;stroke-width:2;stroke-linecap:round;stroke-linejoin:round;stroke-dasharray:3,5;}
	.st9{fill:none;stroke:#FB8604;stroke-width:2;stroke-linecap:round;stroke-linejoin:round;stroke-dasharray:3.2261,5.3768;}
	.st10{fill:none;stroke:#FB8604;stroke-width:2;stroke-linecap:round;stroke-linejoin:round;stroke-dasharray:2.913,4.8551;}
	.st11{fill:none;stroke:#FB8604;stroke-width:2;stroke-linecap:round;stroke-linejoin:round;stroke-dasharray:2.9189,4.8649;}
	.st12{fill:none;stroke:#FB8604;stroke-width:2;stroke-linecap:round;stroke-linejoin:round;stroke-dasharray:3.0724,5.1207;}
	.st13{fill:none;stroke:#FB8604;stroke-width:2.5;stroke-linecap:round;stroke-linejoin:round;}
	.st14{fill:none;stroke:#FB8604;stroke-width:2.5;stroke-linecap:round;stroke-linejoin:round;stroke-dasharray:3.1455,5.2425;}
	.st15{fill:none;stroke:#FB8604;stroke-width:2.5;stroke-linecap:round;stroke-linejoin:round;stroke-dasharray:2.38,3.9667;}
	.st16{fill:none;stroke:#FB8604;stroke-width:2.5;stroke-linecap:round;stroke-linejoin:round;stroke-dasharray:2.2549,3.7582;}
	.st17{fill:none;stroke:#FB8604;stroke-width:2.5;stroke-linecap:round;stroke-linejoin:round;stroke-dasharray:2.4292,4.0487;}
	.st18{fill:none;stroke:#FB8604;stroke-width:2.5;stroke-linecap:round;stroke-linejoin:round;stroke-dasharray:2.9004,4.834;}
	.st19{fill:none;stroke:#FB8604;stroke-width:2.5;stroke-linecap:round;stroke-linejoin:round;stroke-dasharray:2.8406,4.7343;}
	.st20{fill:none;stroke:#FB8604;stroke-width:2.5;stroke-linecap:round;stroke-linejoin:round;stroke-dasharray:3.0022,5.0036;}
	.st21{fill:none;stroke:#FB8604;stroke-width:2.5;stroke-linecap:round;stroke-linejoin:round;stroke-dasharray:2.902,4.8366;}
	.st22{fill:none;stroke:#FB8604;stroke-width:2.5;stroke-linecap:round;stroke-linejoin:round;stroke-dasharray:2.9975,4.9958;}
	.st23{fill:none;stroke:#FB8604;stroke-width:2.5;stroke-linecap:round;stroke-linejoin:round;stroke-dasharray:3.0105,5.0175;}
	.st24{fill:none;stroke:#FB8604;stroke-width:2.5;stroke-linecap:round;stroke-linejoin:round;stroke-dasharray:2.1919,3.6532;}
	.st25{fill:none;stroke:#FB8604;stroke-width:2.5;stroke-linecap:round;stroke-linejoin:round;stroke-dasharray:2.5854,4.309;}
	.st26{fill:none;stroke:#FB8604;stroke-width:2.5;stroke-linecap:round;stroke-linejoin:round;stroke-dasharray:1.5937,2.6561;}
	.st27{fill:none;stroke:#FB8604;stroke-width:2.5;stroke-linecap:round;stroke-linejoin:round;stroke-dasharray:3.6573,6.0956;}
	.st28{fill:none;stroke:#FB8604;stroke-width:2.5;stroke-linecap:round;stroke-linejoin:round;stroke-dasharray:2.949,4.915;}
	.st29{fill:none;stroke:#FB8604;stroke-width:2.5;stroke-linecap:round;stroke-linejoin:round;stroke-dasharray:2.8177,4.6961;}
	.st30{fill:none;stroke:#FB8604;stroke-width:2.5;stroke-linecap:round;stroke-linejoin:round;stroke-dasharray:2.8606,4.7676;}
	.st31{fill:none;stroke:#FB8604;stroke-width:2.5;stroke-linecap:round;stroke-linejoin:round;stroke-dasharray:2.3915,3.9859;}
	.st32{fill:none;stroke:#FB8604;stroke-width:2.5;stroke-linecap:round;stroke-linejoin:round;stroke-dasharray:2.266,3.7767;}
	.st33{fill:none;stroke:#FB8604;stroke-width:2.5;stroke-linecap:round;stroke-linejoin:round;stroke-dasharray:2.441,4.0683;}
	.st34{fill:none;stroke:#FB8604;stroke-width:2.5;stroke-linecap:round;stroke-linejoin:round;stroke-dasharray:2.9122,4.8536;}
	.st35{fill:none;stroke:#FB8604;stroke-width:2.5;stroke-linecap:round;stroke-linejoin:round;stroke-dasharray:2.8522,4.7536;}
	.st36{fill:none;stroke:#FB8604;stroke-width:2.5;stroke-linecap:round;stroke-linejoin:round;stroke-dasharray:3.0069,5.0114;}
	.st37{fill:none;stroke:#FB8604;stroke-width:2.5;stroke-linecap:round;stroke-linejoin:round;stroke-dasharray:3.0029,5.0049;}
	.st38{fill:none;stroke:#FB8604;stroke-width:2.5;stroke-linecap:round;stroke-linejoin:round;stroke-dasharray:2.9464,4.9107;}
	.st39{fill:none;stroke:#FB8604;stroke-width:2.5;stroke-linecap:round;stroke-linejoin:round;stroke-dasharray:2.9635,4.9392;}
	.st40{fill:none;stroke:#FB8604;stroke-width:2.5;stroke-linecap:round;stroke-linejoin:round;stroke-dasharray:1.8274,3.0456;}
	.st41{fill:none;stroke:#FB8604;stroke-width:2.5;stroke-linecap:round;stroke-linejoin:round;stroke-dasharray:2.8261,4.7101;}
	.st42{fill:none;stroke:#FB8604;stroke-width:2.5;stroke-linecap:round;stroke-linejoin:round;stroke-dasharray:2.0201,3.3668;}
	.st43{fill:none;stroke:#FB8604;stroke-width:2.5;stroke-linecap:round;stroke-linejoin:round;stroke-dasharray:3.0195,5.0325;}
	.st44{fill:none;stroke:#FB8604;stroke-width:2.5;stroke-linecap:round;stroke-linejoin:round;stroke-dasharray:2.3062,3.8437;}
	.st45{fill:none;stroke:#FB8604;stroke-width:2.5;stroke-linecap:round;stroke-linejoin:round;stroke-dasharray:2.8758,4.793;}
	.st46{fill:none;stroke:#FB8604;stroke-width:2.5;stroke-linecap:round;stroke-linejoin:round;stroke-dasharray:3.1883,5.3139;}
	.st47{fill:none;stroke:#FB8604;stroke-width:2.5;stroke-linecap:round;stroke-linejoin:round;stroke-dasharray:2.9919,4.9865;}
	.st48{fill:none;stroke:#FB8604;stroke-width:2.5;stroke-linecap:round;stroke-linejoin:round;stroke-dasharray:2.9875,4.9792;}
	.st49{fill:none;stroke:#FB8604;stroke-width:2.5;stroke-linecap:round;stroke-linejoin:round;stroke-dasharray:3.0312,5.052;}
	.st50{fill:none;stroke:#FB8604;stroke-width:2.5;stroke-linecap:round;stroke-linejoin:round;stroke-dasharray:2.99,4.9834;}
	.st51{fill:none;stroke:#FB8604;stroke-width:2.5;stroke-linecap:round;stroke-linejoin:round;stroke-dasharray:2.9978,4.9963;}
	.st52{fill:none;stroke:#FB8604;stroke-width:2.5;stroke-linecap:round;stroke-linejoin:round;stroke-dasharray:2.9926,4.9877;}
	.st53{fill:none;stroke:#FB8604;stroke-width:2.5;stroke-linecap:round;stroke-linejoin:round;stroke-dasharray:2.5289,4.2148;}
	.st54{fill:none;stroke:#FB8604;stroke-width:2.5;stroke-linecap:round;stroke-linejoin:round;stroke-dasharray:2.3977,3.9962;}
	.st55{fill:none;stroke:#FB8604;stroke-width:2.5;stroke-linecap:round;stroke-linejoin:round;stroke-dasharray:2.5804,4.3007;}
	.st56{fill:none;stroke:#FB8604;stroke-width:2.5;stroke-linecap:round;stroke-linejoin:round;stroke-dasharray:3.0527,5.0878;}
	.st57{fill:none;stroke:#FB8604;stroke-width:2.5;stroke-linecap:round;stroke-linejoin:round;stroke-dasharray:2.9902,4.9837;}
	.st58{fill:none;stroke:#FB8604;stroke-width:2.5;stroke-linecap:round;stroke-linejoin:round;stroke-dasharray:2.9932,4.9887;}
	.st59{fill:none;stroke:#FB8604;stroke-width:2.5;stroke-linecap:round;stroke-linejoin:round;stroke-dasharray:2.2364,3.7274;}
	.st60{fill:none;stroke:#FB8604;stroke-width:2.5;stroke-linecap:round;stroke-linejoin:round;stroke-dasharray:2.117,3.5284;}
	.st61{fill:none;stroke:#FB8604;stroke-width:2.5;stroke-linecap:round;stroke-linejoin:round;stroke-dasharray:2.2826,3.8043;}
	.st62{fill:none;stroke:#FB8604;stroke-width:2.5;stroke-linecap:round;stroke-linejoin:round;stroke-dasharray:2.7537,4.5895;}
	.st63{fill:none;stroke:#FB8604;stroke-width:2.5;stroke-linecap:round;stroke-linejoin:round;stroke-dasharray:2.6967,4.4945;}
	.st64{fill:none;stroke:#FB8604;stroke-width:2.5;stroke-linecap:round;stroke-linejoin:round;stroke-dasharray:3.013,5.0216;}
	.st65{fill:none;stroke:#FB8604;stroke-width:2.5;stroke-linecap:round;stroke-linejoin:round;stroke-dasharray:3,5;}
	.st66{fill:none;stroke:#FB8604;stroke-width:2.5;stroke-linecap:round;stroke-linejoin:round;stroke-dasharray:2.8521,4.7535;}
	.st67{fill:none;stroke:#FB8604;stroke-width:2.5;stroke-linecap:round;stroke-linejoin:round;stroke-dasharray:3.015,5.025;}
	.st68{fill:none;stroke:#FB8604;stroke-width:2.5;stroke-linecap:round;stroke-linejoin:round;stroke-dasharray:2.0573,3.4289;}
	.st69{fill:none;stroke:#FB8604;stroke-width:2.5;stroke-linecap:round;stroke-linejoin:round;stroke-dasharray:2.4448,4.0747;}
	.st70{fill:none;stroke:#FB8604;stroke-width:2.5;stroke-linecap:round;stroke-linejoin:round;stroke-dasharray:3.4544,5.7574;}
	.st71{fill:none;stroke:#FB8604;stroke-width:2.5;stroke-linecap:round;stroke-linejoin:round;stroke-dasharray:2.7999,4.6666;}
	.st72{fill:none;stroke:#FB8604;stroke-width:2.5;stroke-linecap:round;stroke-linejoin:round;stroke-dasharray:2.6539,4.4232;}
	.st73{fill:none;stroke:#FB8604;stroke-width:2.5;stroke-linecap:round;stroke-linejoin:round;stroke-dasharray:2.9854,4.9756;}
	.st74{fill:none;stroke:#FB8604;stroke-width:2.5;stroke-linecap:round;stroke-linejoin:round;stroke-dasharray:2.9624,4.9373;}
	.st75{fill:none;stroke:#FB8604;stroke-width:2.5;stroke-linecap:round;stroke-linejoin:round;stroke-dasharray:3.0011,5.0019;}
	.st76{fill:none;stroke:#FB8604;stroke-width:2.5;stroke-linecap:round;stroke-linejoin:round;stroke-dasharray:2.9763,4.9605;}
	.st77{fill:none;stroke:#FB8604;stroke-width:2.5;stroke-linecap:round;stroke-linejoin:round;stroke-dasharray:2.752,4.5866;}
	.st78{fill:none;stroke:#FB8604;stroke-width:2.5;stroke-linecap:round;stroke-linejoin:round;stroke-dasharray:3.616,6.0267;}
	.st79{fill:none;stroke:#FB8604;stroke-width:2.5;stroke-linecap:round;stroke-linejoin:round;stroke-dasharray:2.9602,4.9336;}
	.st80{fill:none;stroke:#FB8604;stroke-width:2.5;stroke-linecap:round;stroke-linejoin:round;stroke-dasharray:3.4336,5.7227;}
	.st81{fill:none;stroke:#FB8604;stroke-width:2.5;stroke-linecap:round;stroke-linejoin:round;stroke-dasharray:1.9985,3.3309;}
	.st82{fill:none;stroke:#FB8604;stroke-width:2.5;stroke-linecap:round;stroke-linejoin:round;stroke-dasharray:2.4594,4.099;}
	.st83{fill:none;stroke:#FB8604;stroke-width:2.5;stroke-linecap:round;stroke-linejoin:round;stroke-dasharray:2.7161,4.5269;}
	.st84{fill:none;stroke:#FB8604;stroke-width:2.5;stroke-linecap:round;stroke-linejoin:round;stroke-dasharray:2.788,4.6466;}
	.st85{fill:none;stroke:#FB8604;stroke-width:2.5;stroke-linecap:round;stroke-linejoin:round;stroke-dasharray:2.041,3.4017;}
	.st86{fill:none;stroke:#FB8604;stroke-width:2.5;stroke-linecap:round;stroke-linejoin:round;stroke-dasharray:3.0618,5.1029;}
	.st87{fill:none;stroke:#FB8604;stroke-width:2.5;stroke-linecap:round;stroke-linejoin:round;stroke-dasharray:2.9346,4.891;}
	.st88{fill:none;stroke:#FB8604;stroke-width:2.5;stroke-linecap:round;stroke-linejoin:round;stroke-dasharray:3.0108,5.0181;}
	.st89{fill:none;stroke:#FB8604;stroke-width:2.5;stroke-linecap:round;stroke-linejoin:round;stroke-dasharray:2.9662,4.9436;}
	.st90{fill:none;stroke:#FB8604;stroke-width:2.5;stroke-linecap:round;stroke-linejoin:round;stroke-dasharray:3.0816,5.1361;}
	.st91{fill:none;stroke:#FB8604;stroke-width:2.5;stroke-linecap:round;stroke-linejoin:round;stroke-dasharray:2.9292,4.882;}
	.st92{fill:none;stroke:#FB8604;stroke-width:2.5;stroke-linecap:round;stroke-linejoin:round;stroke-dasharray:3.1434,5.239;}
	.st93{fill:none;stroke:#FB8604;stroke-width:2.5;stroke-linecap:round;stroke-linejoin:round;stroke-dasharray:2.9751,4.9584;}
	.st94{fill:none;stroke:#FB8604;stroke-width:2.5;stroke-linecap:round;stroke-linejoin:round;stroke-dasharray:2.9148,4.858;}
	.st95{fill:none;stroke:#FB8604;stroke-width:2.5;stroke-linecap:round;stroke-linejoin:round;stroke-dasharray:2.9955,4.9925;}
	.st96{fill:none;stroke:#FB8604;stroke-width:2.5;stroke-linecap:round;stroke-linejoin:round;stroke-dasharray:2.9503,4.9172;}
	.st97{fill:none;stroke:#FB8604;stroke-width:2.5;stroke-linecap:round;stroke-linejoin:round;stroke-dasharray:2.9995,4.9992;}
	.st98{fill:none;stroke:#FB8604;stroke-width:2.5;stroke-linecap:round;stroke-linejoin:round;stroke-dasharray:2.9952,4.992;}
	.st99{fill:none;stroke:#FB8604;stroke-width:2.5;stroke-linecap:round;stroke-linejoin:round;stroke-dasharray:2.9573,4.9289;}
	.st100{fill:none;stroke:#FB8604;stroke-width:2.5;stroke-linecap:round;stroke-linejoin:round;stroke-dasharray:2.4922,4.1537;}
	.st101{fill:none;stroke:#FB8604;stroke-width:2.5;stroke-linecap:round;stroke-linejoin:round;stroke-dasharray:2.3625,3.9376;}
	.st102{fill:none;stroke:#FB8604;stroke-width:2.5;stroke-linecap:round;stroke-linejoin:round;stroke-dasharray:2.5432,4.2386;}
	.st103{fill:none;stroke:#FB8604;stroke-width:2.5;stroke-linecap:round;stroke-linejoin:round;stroke-dasharray:3.0152,5.0253;}
	.st104{fill:none;stroke:#FB8604;stroke-width:2.5;stroke-linecap:round;stroke-linejoin:round;stroke-dasharray:2.9534,4.9224;}
	.st105{fill:none;stroke:#FB8604;stroke-width:2.5;stroke-linecap:round;stroke-linejoin:round;stroke-dasharray:3.0508,5.0846;}
	.st106{fill:none;stroke:#FB8604;stroke-width:2.5;stroke-linecap:round;stroke-linejoin:round;stroke-dasharray:3.0019,5.0032;}
	.st107{fill:none;stroke:#FB8604;stroke-width:2.5;stroke-linecap:round;stroke-linejoin:round;stroke-dasharray:2.8103,4.6838;}
	.st108{fill:none;stroke:#FB8604;stroke-width:2.5;stroke-linecap:round;stroke-linejoin:round;stroke-dasharray:2.9153,4.8589;}
	.st109{fill:none;stroke:#FB8604;stroke-width:2.5;stroke-linecap:round;stroke-linejoin:round;stroke-dasharray:2.6596,4.4327;}
	.st110{fill:none;stroke:#FB8604;stroke-width:2.5;stroke-linecap:round;stroke-linejoin:round;stroke-dasharray:2.0332,3.3886;}
	.st111{fill:none;stroke:#FB8604;stroke-width:2.5;stroke-linecap:round;stroke-linejoin:round;stroke-dasharray:3.0931,5.1552;}
	.st112{fill:none;stroke:#FB8604;stroke-width:2.5;stroke-linecap:round;stroke-linejoin:round;stroke-dasharray:3.0402,5.067;}
	.st113{fill:none;stroke:#FB8604;stroke-width:2.5;stroke-linecap:round;stroke-linejoin:round;stroke-dasharray:2.9774,4.9623;}
	.st114{fill:none;stroke:#FB8604;stroke-width:2.5;stroke-linecap:round;stroke-linejoin:round;stroke-dasharray:2.9698,4.9497;}
	.st115{fill:none;stroke:#FB8604;stroke-width:2.5;stroke-linecap:round;stroke-linejoin:round;stroke-dasharray:3.0558,5.093;}
	.st116{fill:none;stroke:#FB8604;stroke-width:2.5;stroke-linecap:round;stroke-linejoin:round;stroke-dasharray:2.5316,4.2194;}
	.st117{fill:none;stroke:#FB8604;stroke-width:2.5;stroke-linecap:round;stroke-linejoin:round;stroke-dasharray:1.5067,2.5112;}
	.st118{fill:none;stroke:#FB8604;stroke-width:2.5;stroke-linecap:round;stroke-linejoin:round;stroke-dasharray:2.4118,4.0197;}
	.st119{fill:none;stroke:#FB8604;stroke-width:2.5;stroke-linecap:round;stroke-linejoin:round;stroke-dasharray:1.6749,2.7915;}
	.st120{fill:none;stroke:#FB8604;stroke-width:2.5;stroke-linecap:round;stroke-linejoin:round;stroke-dasharray:2.5801,4.3001;}
	.st121{fill:none;stroke:#FB8604;stroke-width:2.5;stroke-linecap:round;stroke-linejoin:round;stroke-dasharray:1.9241,3.2069;}
	.st122{fill:none;stroke:#FB8604;stroke-width:2.5;stroke-linecap:round;stroke-linejoin:round;stroke-dasharray:2.8201,4.7001;}
	.st123{fill:none;stroke:#FB8604;stroke-width:2.5;stroke-linecap:round;stroke-linejoin:round;stroke-dasharray:3.181,5.3016;}
	.st124{fill:none;stroke:#FB8604;stroke-width:1.5;stroke-linecap:round;stroke-linejoin:round;stroke-miterlimit:10;}
	.st125{fill:none;stroke:#FB8604;stroke-width:2.75;stroke-linecap:round;stroke-linejoin:round;stroke-miterlimit:10;}
	.st126{fill:none;stroke:#FB8604;stroke-width:2.25;stroke-linecap:round;stroke-linejoin:round;stroke-miterlimit:10;}
	.st127{fill:none;stroke:#FB8604;stroke-width:3.5;stroke-linecap:round;stroke-linejoin:round;stroke-miterlimit:10;}
	.st128{fill:none;stroke:#FB8604;stroke-width:3;stroke-linecap:round;stroke-linejoin:round;stroke-miterlimit:10;}
</style>
<metadata>
	<sfw  xmlns="&ns_sfw;">
		<slices></slices>
		<sliceSourceBounds  bottomLeftOrigin="true" height="9750" width="5207.29" x="-2000" y="-1314"></sliceSourceBounds>
	</sfw>
</metadata>
<g id="FILL-BACKGROUND">
	<rect class="st0" width="750" height="750"/>
</g>
<g id="N-DIMENSIONS">
</g>
<g id="N-TEXT">
</g>
<g id="_x32_D_x24_AG-DETAILS-DIAGRAM">
</g>
<g id="_x32_D_x24_AG-DETAILS">
	<g id="POLYLINE_00000178912893616023162790000011886659021292153787_">
		<path class="st2" d="M243.72,412.16l3.09-2.04c1.78-1.15,3.67-2.2,5.66-2.95c1.73-0.66,3.57-1.09,5.39-1.41
			c5.33-0.92,13.08-1.37,18.45-2.11c4.62-0.59,9.36-1.59,13.86-2.78c7.1-1.92,17.75-5.09,24.84-6.34
			c4.94-0.91,10.01-1.45,15.04-1.37c15.26,0.18,31.33,4.85,46.52,5.94c5.09,0.37,10.29,0.17,15.36-0.38
			c9.85-1.05,21.88-3.74,31.76-4.21c3.56-0.2,7.5-0.2,11.08-0.14c10.72,0.26,27.74,1.44,38.37,1c7.77-0.24,15.74-1.09,23.43-2.22"/>
	</g>
	<g id="POLYLINE_00000166661841984581217150000018049252885248527273_">
		<path class="st2" d="M530.58,386.61c5.72-1.27,37.34-8.19,42.25-9.42"/>
	</g>
	<g id="POLYLINE_00000116234486641376453920000013707646398160567988_">
		<path class="st2" d="M522.27,394.7c6.35-1.21,13.23-2.64,19.47-4.28c4.1-1.05,10.39-3.04,14.5-4.14c2.29-0.6,4.69-1.13,7.04-1.43
			c2.01-0.26,4.11-0.33,6.14-0.33c1.8,0.01,6.45,0.14,8.18,0.04c1.29-0.06,2.62-0.22,3.9-0.42c1.25-0.21,4.38-0.79,5.6-0.92
			c3.73-0.43,7.73-0.78,11.31-1.94c2.45-0.77,4.94-1.87,7.29-2.94c4.43-2.07,9.88-4.62,14.4-6.42c1.35-0.53,2.82-1.1,4.21-1.52"/>
	</g>
	<g id="POLYLINE_00000086675809690018782670000001213458841260583817_">
		<path class="st2" d="M448.77,403.12c15.5-0.99,32.65-2.13,47.99-4.26"/>
	</g>
	<g id="POLYLINE_00000052807346930073125040000013465827233115049117_">
		<path class="st2" d="M515.73,409.73c3.2-0.61,9.13-1.2,12.43-1.59c2.73-0.33,5.75-0.84,8.45-1.38c1.24-0.26,14.95-3.17,15.69-3.29
			c0,0,1.87-0.35,1.87-0.35l24.08-4.16c3.08-0.6,7.72-1.44,10.72-2.19c0.63-0.16,1.29-0.34,1.9-0.56c0.31-0.11,0.62-0.23,0.91-0.39
			c0.22-0.11,0.44-0.27,0.66-0.39c0.42-0.23,0.91-0.34,1.37-0.44c3.41-0.66,7.19-1.37,10.53-2.31c7.09-1.97,14.11-4.62,20.83-7.62
			l7.31-3.45c6.82-3.16,14.22-5.13,21.55-6.72"/>
	</g>
	<g id="POLYLINE_00000057870922815475101130000010224659911746973853_">
		<path class="st2" d="M406.92,416.38l31.34-0.06c2.87-0.05,6.13-0.14,8.98-0.38c1.99-0.14,7.27-0.83,9.32-1.07
			c2.02-0.23,4.24-0.32,6.28-0.36c6.61-0.07,15.97-0.19,22.5-0.6"/>
	</g>
	<g id="POLYLINE_00000052785826625854804440000005210497594593696159_">
		<path class="st2" d="M487.8,411.15c-3.04,0.15-18.16,0.67-21.29,0.74c-0.64,0.04-13.52,0.02-14.61,0.02
			c-4.03,0.02-10.81,0.51-14.9,0.74c-6.7,0.35-14.92,0.52-21.65,0.61"/>
	</g>
	<g id="POLYLINE_00000116213123280117824160000009126774193708592032_">
		<path class="st2" d="M646.37,373.81c-5.58,1.31-11.48,2.83-16.91,4.6c-9.51,3.09-23.28,8.84-32.79,11.91
			c-6.02,2-12.3,3.59-18.56,4.64c-7.23,1.28-16.85,2-24.04,3.44c-3.39,0.7-9.23,2.4-12.6,3.22c-7.2,1.8-17.27,3.73-24.6,5.19"/>
	</g>
	<g id="POLYLINE_00000026159752171448346440000012439160429067952036_">
		<path class="st2" d="M518.25,403.17c0.72-0.17,1.53-0.32,2.27-0.44c2.51-0.37,5.53-0.78,7.98-1.34
			c3.79-0.81,12.36-3.35,16.21-4.42c2.75-0.76,5.74-1.52,8.54-2.06c6.65-1.29,14.74-1.73,21.53-2.31c4.73-0.42,9.56-1.15,14.17-2.31
			c8.52-2.17,17-5.3,25.09-8.74c3.34-1.47,10.05-4.55,13.36-5.81c2.61-1,5.38-1.91,8.07-2.65c1.5-0.41,3.15-0.82,4.68-1.09
			c0.67-0.11,1.37-0.22,2.05-0.25"/>
	</g>
	<g id="POLYLINE_00000110454434695796588520000015955806288830040504_">
		<path class="st2" d="M432.13,410.7c4.13-0.89,8.44-1.57,12.65-1.88c5.64-0.47,15.59-0.02,21.31-0.08c2.25-0.02,4.75-0.13,7-0.3
			c3.13-0.24,8.45-0.76,11.55-0.73l6.2,0.05"/>
	</g>
	<g id="POLYLINE_00000138536538482923426290000000473700536416224174_">
		<path class="st2" d="M494.77,402.85c-3.83,0.61-8.05,1.1-11.91,1.4c-3.88,0.26-16.91,1.38-20.59,1.37
			c-6.18,0.04-16.37,0.04-22.43,0.4"/>
	</g>
	<g id="POLYLINE_00000049925231727907843700000014729226199498873230_">
		<path class="st2" d="M633.29,370.4c-4.34,1.03-8.68,2.33-12.82,4c-4.38,1.74-9.42,4.46-13.8,6.22c-4.9,2.02-10.01,3.71-15.18,4.9
			c-2.54,0.59-5.3,1.1-7.88,1.49c-2.49,0.4-7.17,0.86-9.69,1.19c-1.41,0.19-2.92,0.47-4.32,0.76c-2.03,0.43-5.93,1.33-7.97,1.59
			c-2.07,0.31-5.84,0.54-7.93,0.72c-2.31,0.21-4.65,0.6-6.89,1.19c-2.62,0.68-6.52,2.14-9.12,2.95c-1.62,0.51-3.38,1.01-5.03,1.39
			c-1.99,0.46-4.2,0.81-6.23,1.09l-6.38,0.81"/>
	</g>
	<g id="POLYLINE_00000025410114318438640170000002021560728486047663_">
		<path class="st2" d="M481.4,418.72c-3.77,0.01-8.85-0.5-12.64-0.84c-2.29-0.19-4.68-0.25-6.98-0.17
			c-6.33,0.18-18.46,1.63-24.87,2.13c-6.48,0.51-13.4,0.56-19.9,0.47c-4.74-0.09-10.04-0.23-14.75-0.59"/>
	</g>
	<g id="POLYLINE_00000000924708297203844820000012627685411753116036_">
		<path class="st2" d="M654.68,377.96c-7.59,2.27-16.35,4.93-23.76,7.64c-3.53,1.23-10.23,4.18-13.74,5.68
			c-3,1.26-6.19,2.4-9.31,3.32c-5.41,1.63-15.51,3.92-20.91,5.62c-1.61,0.52-5.84,1.98-7.39,2.38c-1.42,0.39-2.93,0.72-4.38,0.98
			c-4.52,0.8-16.4,2.29-20.92,3.05c-4.34,0.6-35.49,6.79-40.49,7.73"/>
	</g>
	<g id="POLYLINE_00000101067914898926715920000015651349459724140717_">
		<path class="st2" d="M512.11,417.9c4.99-0.65,10.89-1.54,15.84-2.44c6.27-1.12,17.15-3.66,23.46-4.87
			c7.36-1.46,18.45-2.58,25.94-3.61c3.88-0.53,7.86-1.26,11.64-2.3c1.77-0.48,3.79-1.12,5.53-1.69c4.94-1.67,12.98-4.43,17.93-5.84
			c4.39-1.27,12.94-3.37,17.26-4.74c3.36-1.02,13.5-4.79,16.9-6c7.37-2.57,15.06-4.52,22.85-5.18"/>
	</g>
	<g id="POLYLINE_00000152240916577480521940000000174284170246568324_">
		<path class="st2" d="M402.69,423.96c12.5,0.2,30.77,0.93,43.05,0.03c5.48-0.34,11.95-1.32,17.4-2.15
			c5.18-0.78,11.71-1.01,16.97-1.24"/>
	</g>
</g>
<g id="_x32_D_x24_AG-ANIMALS">
	<g id="POLYLINE_00000088814860395766546990000011827456779053605055_">
		<path class="st125" d="M709.74,368.95c-0.17-0.5-0.41-0.99-0.73-1.42c-0.33-0.44-0.74-0.81-1.19-1.12
			c-1.57-1.07-3.38-1.79-5.15-2.46c-2.05-0.75-4.23-1.4-6.34-1.97c-16.24-4.13-49.37-10.19-65.38-14.75c-2.37-0.7-4.8-1.49-7-2.62
			c-1.24-0.64-2.65-1.44-4-1.79c-1-0.28-2.04-0.41-3.07-0.48c-1.57-0.11-3.37-0.09-4.94-0.07c-6.2,0.18-13.33,0.62-19.37,0.03
			c-3.61-0.21-18.91-2.68-22.89-3.25c-5.99-0.86-13.23-1.7-19.27-2.29c-8.48-0.81-18.72-1.52-27.24-2
			c-33.66-1.75-71.52-2.57-105.24-2.55c-15.31,0.07-31.85,0.55-47.11,1.55c-10.77,0.57-63.59,5.37-75.23,6.24
			c-1.63,0.1-3.51,0.2-5.14,0.2c-3.15,0.02-6.34-0.33-9.33-1.38c-2.47-0.85-4.83-2.14-7.1-3.42c-5.58-3.16-11.52-7.23-18.01-8.04
			c-2.15-0.27-4.36-0.35-6.52-0.14c0,0-0.18,0.02-0.18,0.02l-0.16,0.02l-0.08,0.01l-0.07,0.01c0,0-0.07,0.01-0.07,0.01
			s-0.07,0.01-0.07,0.01s-0.06,0.01-0.06,0.01s-0.06,0.01-0.06,0.01s-0.06,0.01-0.06,0.01s-0.03,0.01-0.03,0.01
			s-0.03,0.01-0.03,0.01s-0.03,0.01-0.03,0.01s-0.02,0.01-0.02,0.01c-0.1,0.03-0.21,0.06-0.29,0.12l-0.01,0l-0.01,0l-0.01,0l0,0l0,0
			l0,0l0,0l0,0l0,0l0,0l0,0l0,0l0,0l0,0l0,0l0,0l0,0l0,0l0,0l0,0l0,0l0,0l0,0l0,0l0,0l0,0l0,0l0,0l0,0l0,0l0,0l0,0l0,0l0,0l0,0l0,0
			l0,0l0,0l0,0l0,0l0,0l0,0l0,0l0,0l0,0l0,0l0,0.01l0,0.01l0,0.01l0,0.01l0,0.01l0,0.01l0,0.01c0.05,0.07,0.12,0.13,0.19,0.18
			c0.51,0.36,1.41,0.85,1.94,1.18c1.42,0.89,2.81,1.9,4.05,3.04c0.73,0.68,1.44,1.43,1.96,2.29c0.43,0.7,0.72,1.48,0.84,2.29
			c0.18,1.15,0.09,2.32-0.08,3.47c-0.16,0.97-0.46,1.94-1.01,2.77c-0.49,0.75-1.19,1.36-1.98,1.78c-0.65,0.35-1.35,0.58-2.06,0.77
			c-1.11,0.29-2.3,0.49-3.43,0.66c-34.42,4.22-72.65,7.8-106.22,16.24c-8.95,2.31-17.97,5.09-26.16,9.45
			c-4.77,2.51-9.25,5.74-13.49,9.06c-4.98,3.91-11.5,9.36-16.95,12.6c-1.43,0.84-2.95,1.64-4.52,2.2"/>
	</g>
	<g id="POLYLINE_00000127742750819814167690000009220774440242147244_">
		<path class="st125" d="M510.8,420.42c2.8-0.19,7.81-0.16,10.7-0.16c1.46-0.01,2.99-0.08,4.44-0.23c2.57-0.26,5.27-0.8,7.8-1.35
			c5.9-1.3,13.05-3.41,18.9-5.1c2.64-0.74,5.43-1.45,8.12-1.9c2.12-0.37,4.42-0.61,6.58-0.77c4.68-0.34,10.67-0.66,15.21-1.36
			c2.76-0.41,5.71-1.01,8.42-1.63c10.16-2.4,50.23-13.7,60.16-16.11c8.35-2.1,41.22-9.74,48.85-12.11c2.24-0.68,4.63-1.46,6.78-2.38
			c1.38-0.6,2.78-1.27,3.98-2.19c0.68-0.53,1.32-1.15,1.75-1.91c0.23-0.41,0.38-0.87,0.4-1.34c0.02-0.45-0.1-0.9-0.34-1.29
			c-0.21-0.34-0.53-0.6-0.87-0.81c-0.37-0.23-0.79-0.41-1.19-0.58c-0.21-0.09-0.42-0.17-0.63-0.21c-0.47-0.1-1-0.16-1.47-0.22
			c-4.6-0.48-15.83-1.4-20.32-1.96l-46.92-5.91c0,0-2.23-0.25-2.23-0.25c-2.73-0.28-5.75-0.56-8.48-0.64
			c-3.04-0.09-6.13-0.01-9.13,0.44c-2.51,0.38-5.02,1.04-7.36,2.04c-6.34,2.72-11.53,7.88-17.55,11.15
			c-1.94,1.05-4.02,1.82-6.21,2.18c-1.78,0.31-3.62,0.4-5.43,0.4c-1.91,0-4.34-0.17-6.25-0.09c-0.71,0.03-1.44,0.12-2.14,0.24
			c-0.9,0.16-2.33,0.54-3.2,0.75l-0.35,0.08"/>
	</g>
	<g id="POLYLINE_00000141442456225733636780000007040885482474561667_">
		<path class="st125" d="M103.72,380.2c-5.14-0.31-10.36-0.33-15.48,0.26c-2.32,0.27-4.67,0.68-6.93,1.28
			c-1.18,0.32-2.41,0.66-3.53,1.12c-0.46,0.2-0.94,0.41-1.32,0.75c-0.16,0.14-0.31,0.32-0.35,0.54c-0.08,0.35,0.11,0.7,0.27,1
			c0.28,0.49,0.62,1.02,0.74,1.58c0.23,0.94-0.15,1.88-0.57,2.71c-1.19,2.28-3.05,4.47-4.36,6.69c-0.23,0.4-0.46,0.83-0.61,1.27
			c-0.09,0.27-0.15,0.57-0.13,0.86c0.02,0.27,0.12,0.52,0.24,0.75l0.15,0.29c0.08,0.17,0.16,0.34,0.17,0.53
			c0.01,0.17-0.04,0.34-0.11,0.5c-0.13,0.28-0.33,0.52-0.53,0.74c-0.63,0.66-1.39,1.23-2.13,1.78c-2.71,1.91-5.72,4-8.07,6.32
			c-3.13,3.06-5.67,6.73-7.85,10.52c-2.27,3.9-4.12,8.7-6.33,12.63c-0.95,1.66-2.08,3.24-3.32,4.7c-1.69,2.04-4.75,4.92-6.65,6.8
			c-0.43,0.44-0.88,0.91-1.26,1.38c-0.18,0.23-0.36,0.46-0.5,0.72c-0.08,0.16-0.16,0.35-0.15,0.54l0,0.01l0,0.01l0,0.01l0,0.01
			l0,0.01l0,0.01l0,0.01l0,0.01l0,0.01l0,0.01l0,0.01l0,0.01l0,0.01l0,0.01l0,0.01l0,0.01l0,0.01l0,0.01l0,0.01l0,0.01l0,0.01
			l0,0.01l0,0.01l0,0.01l0,0.01l0,0.01l0,0.01l0,0.01l0,0.01l0,0.01l0.01,0.01l0.01,0.01l0.01,0.01l0.01,0.01l0.01,0.01l0.01,0.01
			l0.01,0.01l0.01,0.01l0.01,0.01l0.01,0.01l0.01,0.01l0.01,0.01c0.17,0.13,0.4,0.16,0.61,0.17c0.76,0.01,1.51-0.21,2.23-0.43
			c2.29-0.76,4.52-1.99,6.65-3.13c12.27-6.71,23.88-16.05,34.96-24.56c2.97-2.28,15.8-12.81,18.72-14.62
			c1.12-0.72,2.3-1.37,3.56-1.81c0.9-0.31,1.85-0.5,2.79-0.55c1.79-0.11,3.58,0.2,5.31,0.62c2.75,0.67,7.8,2.35,10.53,3.1
			c3.79,1.08,7.84,2.06,11.72,2.77c3.99,0.74,8.38,1.29,12.42,1.7c20.28,1.81,42.58,2.54,62.95,2.87c9.2,0.16,20.35-0.39,29.56-0.69
			c7.28-0.2,14.76,0.37,22,1.16c17.79,1.83,41.94,6.71,59.71,9.17c8.36,1.12,17.75,1.99,26.17,2.58c6.16,0.32,60.59,3.49,65.11,3.6
			c3.29,0.11,7.42,0.19,10.69,0.14c17.77-0.27,39.69-3.11,57.44-5.04"/>
	</g>
	<g id="POLYLINE_00000111909979472269881400000007818117049437491880_">
		<path class="st125" d="M545.45,377.39c-3.63,1.44-7.13,3.3-10.32,5.57c-1.98,1.4-3.91,3.04-5.69,4.69
			c-0.84,0.78-5.08,4.65-5.72,5.33c-1.08,1.1-1.98,2.37-2.7,3.72c-0.47,0.87-0.91,1.83-1.29,2.74c-1.02,2.39-3.46,9-4.47,11.43
			c-1.84,4.49-3.96,8.95-6.49,13.08c-4.63,7.62-10.34,14.71-16.23,21.38c-5.48,6.17-11.47,12.05-18.3,16.7
			c-2.67,1.81-5.48,3.58-8.47,4.83c-0.86,0.34-1.76,0.67-2.7,0.73c-0.36,0.01-0.75-0.02-1.05-0.24c-0.25-0.18-0.38-0.47-0.4-0.76
			c-0.05-0.54,0.11-1.07,0.29-1.58c0.32-0.86,0.79-1.73,1.23-2.54c1.4-2.47,4.06-7.06,5.26-9.55c2.74-5.57,5.19-11.39,6.7-17.42
			c0.71-2.94,1.55-7.06,2.57-9.85c0.58-1.62,1.32-3.2,2.22-4.66c1.19-1.96,2.66-3.81,4.14-5.57c2.83-3.33,6.5-7.12,9.24-10.52
			c0.97-1.23,1.91-2.53,2.63-3.92c2.18-4.16,1.57-7.79-1.49-11.29"/>
	</g>
</g>
<g id="_x32_D_x24_AG-OUTLINE">
	<g id="POLYLINE_00000160888145672356553980000004010545815145232515_">
		<path class="st127" d="M103.72,380.2c-5.14-0.31-10.36-0.33-15.48,0.26c-2.32,0.27-4.67,0.68-6.93,1.28
			c-1.18,0.32-2.41,0.66-3.53,1.12c-0.46,0.2-0.94,0.41-1.32,0.75c-0.16,0.14-0.31,0.32-0.35,0.54c-0.08,0.35,0.11,0.7,0.27,1
			c0.28,0.49,0.62,1.02,0.74,1.58c0.23,0.94-0.15,1.88-0.57,2.71c-1.19,2.28-3.05,4.47-4.36,6.69c-0.23,0.4-0.46,0.83-0.61,1.27
			c-0.09,0.27-0.15,0.57-0.13,0.86c0.02,0.27,0.12,0.52,0.24,0.75l0.15,0.29c0.08,0.17,0.16,0.34,0.17,0.53
			c0.01,0.17-0.04,0.34-0.11,0.5c-0.13,0.28-0.33,0.52-0.53,0.74c-0.63,0.66-1.39,1.23-2.13,1.78c-2.71,1.91-5.72,4-8.07,6.32
			c-3.13,3.06-5.67,6.73-7.85,10.52c-2.27,3.9-4.12,8.7-6.33,12.63c-0.95,1.66-2.08,3.24-3.32,4.7c-1.69,2.04-4.75,4.92-6.65,6.8
			c-0.43,0.44-0.88,0.91-1.26,1.38c-0.18,0.23-0.36,0.46-0.5,0.72c-0.08,0.16-0.16,0.35-0.15,0.54l0,0.01l0,0.01l0,0.01l0,0.01
			l0,0.01l0,0.01l0,0.01l0,0.01l0,0.01l0,0.01l0,0.01l0,0.01l0,0.01l0,0.01l0,0.01l0,0.01l0,0.01l0,0.01l0,0.01l0,0.01l0,0.01
			l0,0.01l0,0.01l0,0.01l0,0.01l0,0.01l0,0.01l0,0.01l0,0.01l0,0.01l0.01,0.01l0.01,0.01l0.01,0.01l0.01,0.01l0.01,0.01l0.01,0.01
			l0.01,0.01l0.01,0.01l0.01,0.01l0.01,0.01l0.01,0.01l0.01,0.01c0.17,0.13,0.4,0.16,0.61,0.17c0.76,0.01,1.51-0.21,2.23-0.43
			c2.29-0.76,4.52-1.99,6.65-3.13c12.27-6.71,23.88-16.05,34.96-24.56c2.97-2.28,15.8-12.81,18.72-14.62
			c1.12-0.72,2.3-1.37,3.56-1.81c0.9-0.31,1.85-0.5,2.79-0.55c1.79-0.11,3.58,0.2,5.31,0.62c2.75,0.67,7.8,2.35,10.53,3.1
			c3.79,1.08,7.84,2.06,11.72,2.77c3.99,0.74,8.38,1.29,12.42,1.7c20.28,1.81,42.58,2.54,62.95,2.87
			c9.13,0.15,20.19-0.38,29.33-0.68c7.36-0.21,14.92,0.36,22.24,1.15c17.79,1.83,41.94,6.71,59.71,9.17
			c8.36,1.12,17.75,1.99,26.17,2.58c6.16,0.32,60.59,3.49,65.11,3.6c3.29,0.11,7.42,0.19,10.69,0.14
			c17.77-0.27,39.69-3.11,57.44-5.04c-0.84,1.86-1.44,3.86-1.93,5.83c-0.47,1.96-1.42,6.19-1.97,8.06
			c-0.52,1.82-1.19,3.77-1.85,5.54c-1.24,3.28-2.71,6.61-4.28,9.76c-1.19,2.48-3.88,7.12-5.26,9.55c-0.54,1-1.12,2.04-1.42,3.14
			c-0.11,0.46-0.2,1.02,0.04,1.45c0.92,1.55,5.24-0.73,6.45-1.35c7.64-4.1,14.36-9.8,20.34-16.04c3.93-4.12,7.85-8.68,11.4-13.15
			c3.99-5.07,7.79-10.45,10.87-16.12c2.8-0.19,7.81-0.16,10.7-0.16c1.46-0.01,2.99-0.08,4.44-0.23c6.71-0.76,13.68-2.76,20.19-4.57
			c5.15-1.47,10.97-3.32,16.21-4.03c2.95-0.46,9.2-0.8,12.29-1.04c3.04-0.23,6.31-0.57,9.3-1.07c3.19-0.52,6.77-1.33,9.92-2.1
			c8.27-2.1,49.61-13.56,57.29-15.42c5.82-1.44,40.73-9.74,45.68-11.2c2.47-0.69,5.17-1.49,7.58-2.36c1.83-0.67,3.68-1.41,5.35-2.43
			c0.77-0.48,1.5-1.03,2.11-1.71c0.37-0.42,0.7-0.9,0.89-1.44c0.14-0.4,0.19-0.83,0.13-1.25c-0.07-0.47-0.3-0.92-0.65-1.24
			c-0.39-0.37-0.88-0.61-1.36-0.83c-0.21-0.09-0.47-0.2-0.69-0.28c-0.14-0.04-0.29-0.08-0.43-0.11c-0.17-0.5-0.41-0.99-0.73-1.42
			c-0.33-0.44-0.74-0.81-1.19-1.12c-1.57-1.07-3.38-1.79-5.15-2.46c-2.05-0.75-4.23-1.4-6.34-1.97
			c-16.24-4.13-49.37-10.19-65.38-14.75c-2.37-0.7-4.8-1.49-7-2.62c-1.24-0.64-2.65-1.44-4-1.79c-1-0.28-2.04-0.41-3.07-0.48
			c-1.57-0.11-3.37-0.09-4.94-0.07c-6.2,0.18-13.33,0.62-19.37,0.03c-3.61-0.21-18.91-2.68-22.89-3.25
			c-5.99-0.86-13.23-1.7-19.27-2.29c-8.48-0.81-18.72-1.52-27.24-2c-33.66-1.75-71.52-2.57-105.24-2.55
			c-15.31,0.07-31.85,0.55-47.11,1.55c-10.77,0.57-63.59,5.37-75.23,6.24c-1.63,0.1-3.51,0.2-5.14,0.2
			c-3.15,0.02-6.34-0.33-9.33-1.38c-2.47-0.85-4.83-2.14-7.1-3.42c-5.58-3.16-11.52-7.23-18.01-8.04c-2.15-0.27-4.36-0.35-6.52-0.14
			c0,0-0.18,0.02-0.18,0.02s-0.16,0.02-0.16,0.02l-0.08,0.01l-0.07,0.01c0,0-0.07,0.01-0.07,0.01s-0.07,0.01-0.07,0.01
			s-0.06,0.01-0.06,0.01s-0.06,0.01-0.06,0.01s-0.06,0.01-0.06,0.01s-0.03,0.01-0.03,0.01s-0.03,0.01-0.03,0.01
			s-0.03,0.01-0.03,0.01l-0.02,0.01c-0.1,0.03-0.21,0.06-0.29,0.12l-0.01,0l-0.01,0l-0.01,0l0,0l0,0l0,0l0,0l0,0l0,0l0,0l0,0l0,0
			l0,0l0,0l0,0l0,0l0,0l0,0l0,0l0,0l0,0l0,0l0,0l0,0l0,0l0,0l0,0l0,0l0,0l0,0l0,0l0,0l0,0l0,0l0,0l0,0l0,0l0,0l0,0l0,0l0,0l0,0l0,0
			l0,0l0,0l0,0l0,0.01l0,0.01l0,0.01l0,0.01l0,0.01l0,0.01l0,0.01c0.05,0.07,0.12,0.13,0.19,0.18c0.5,0.36,1.42,0.85,1.94,1.18
			c1.42,0.89,2.81,1.9,4.05,3.04c0.76,0.7,1.48,1.47,2.01,2.37c0.4,0.68,0.67,1.43,0.8,2.21c0.17,1.05,0.1,2.13-0.04,3.18
			c-0.13,0.97-0.39,1.94-0.89,2.8c-0.39,0.67-0.93,1.25-1.57,1.69c-0.84,0.58-1.82,0.92-2.8,1.17c-1.05,0.27-2.19,0.45-3.26,0.62
			c-0.59,0.09-1.78,0.25-2.37,0.32c0,0-33.64,3.92-33.64,3.92c-24.59,3.15-50.29,6.61-74.23,13.07c-7.16,1.99-14.36,4.4-20.99,7.78
			C112.57,373.7,108.01,376.87,103.72,380.2z"/>
	</g>
</g>
</svg>
