<?xml version="1.0" encoding="utf-8"?>
<!-- Generator: Adobe Illustrator 26.3.1, SVG Export Plug-In . SVG Version: 6.00 Build 0)  -->
<!DOCTYPE svg PUBLIC "-//W3C//DTD SVG 1.1//EN" "http://www.w3.org/Graphics/SVG/1.1/DTD/svg11.dtd" [
	<!ENTITY ns_extend "http://ns.adobe.com/Extensibility/1.0/">
	<!ENTITY ns_ai "http://ns.adobe.com/AdobeIllustrator/10.0/">
	<!ENTITY ns_graphs "http://ns.adobe.com/Graphs/1.0/">
	<!ENTITY ns_vars "http://ns.adobe.com/Variables/1.0/">
	<!ENTITY ns_imrep "http://ns.adobe.com/ImageReplacement/1.0/">
	<!ENTITY ns_sfw "http://ns.adobe.com/SaveForWeb/1.0/">
	<!ENTITY ns_custom "http://ns.adobe.com/GenericCustomNamespace/1.0/">
	<!ENTITY ns_adobe_xpath "http://ns.adobe.com/XPath/1.0/">
]>
<svg version="1.1" xmlns:x="&ns_extend;" xmlns:i="&ns_ai;" xmlns:graph="&ns_graphs;"
	 xmlns="http://www.w3.org/2000/svg" xmlns:xlink="http://www.w3.org/1999/xlink" x="0px" y="0px" width="750px" height="750px"
	 viewBox="0 0 750 750" style="enable-background:new 0 0 750 750;" xml:space="preserve">
<style type="text/css">
	.st0{fill:#FFFFFF;}
	.st1{fill:#FB8604;}
	.st2{fill:none;stroke:#FB8604;stroke-width:2;stroke-linecap:round;stroke-linejoin:round;stroke-miterlimit:10;}
	.st3{fill:none;stroke:#FB8604;stroke-width:2;stroke-linecap:round;stroke-linejoin:round;}
	.st4{fill:none;stroke:#FB8604;stroke-width:2;stroke-linecap:round;stroke-linejoin:round;stroke-dasharray:2.8868,4.8113;}
	.st5{fill:none;stroke:#FB8604;stroke-width:2;stroke-linecap:round;stroke-linejoin:round;stroke-dasharray:3.2,5.3333;}
	.st6{fill:none;stroke:#FB8604;stroke-width:2;stroke-linecap:round;stroke-linejoin:round;stroke-dasharray:2.7333,4.5556;}
	.st7{fill:none;stroke:#FB8604;stroke-width:2;stroke-linecap:round;stroke-linejoin:round;stroke-dasharray:2.5521,4.2535;}
	.st8{fill:none;stroke:#FB8604;stroke-width:2;stroke-linecap:round;stroke-linejoin:round;stroke-dasharray:3,5;}
	.st9{fill:none;stroke:#FB8604;stroke-width:2;stroke-linecap:round;stroke-linejoin:round;stroke-dasharray:3.2261,5.3768;}
	.st10{fill:none;stroke:#FB8604;stroke-width:2;stroke-linecap:round;stroke-linejoin:round;stroke-dasharray:2.913,4.8551;}
	.st11{fill:none;stroke:#FB8604;stroke-width:2;stroke-linecap:round;stroke-linejoin:round;stroke-dasharray:2.9189,4.8649;}
	.st12{fill:none;stroke:#FB8604;stroke-width:2;stroke-linecap:round;stroke-linejoin:round;stroke-dasharray:3.0724,5.1207;}
	.st13{fill:none;stroke:#FB8604;stroke-width:2.5;stroke-linecap:round;stroke-linejoin:round;}
	.st14{fill:none;stroke:#FB8604;stroke-width:2.5;stroke-linecap:round;stroke-linejoin:round;stroke-dasharray:3.1455,5.2425;}
	.st15{fill:none;stroke:#FB8604;stroke-width:2.5;stroke-linecap:round;stroke-linejoin:round;stroke-dasharray:2.38,3.9667;}
	.st16{fill:none;stroke:#FB8604;stroke-width:2.5;stroke-linecap:round;stroke-linejoin:round;stroke-dasharray:2.2549,3.7582;}
	.st17{fill:none;stroke:#FB8604;stroke-width:2.5;stroke-linecap:round;stroke-linejoin:round;stroke-dasharray:2.4292,4.0487;}
	.st18{fill:none;stroke:#FB8604;stroke-width:2.5;stroke-linecap:round;stroke-linejoin:round;stroke-dasharray:2.9004,4.834;}
	.st19{fill:none;stroke:#FB8604;stroke-width:2.5;stroke-linecap:round;stroke-linejoin:round;stroke-dasharray:2.8406,4.7343;}
	.st20{fill:none;stroke:#FB8604;stroke-width:2.5;stroke-linecap:round;stroke-linejoin:round;stroke-dasharray:3.0022,5.0036;}
	.st21{fill:none;stroke:#FB8604;stroke-width:2.5;stroke-linecap:round;stroke-linejoin:round;stroke-dasharray:2.902,4.8366;}
	.st22{fill:none;stroke:#FB8604;stroke-width:2.5;stroke-linecap:round;stroke-linejoin:round;stroke-dasharray:2.9975,4.9958;}
	.st23{fill:none;stroke:#FB8604;stroke-width:2.5;stroke-linecap:round;stroke-linejoin:round;stroke-dasharray:3.0105,5.0175;}
	.st24{fill:none;stroke:#FB8604;stroke-width:2.5;stroke-linecap:round;stroke-linejoin:round;stroke-dasharray:2.1919,3.6532;}
	.st25{fill:none;stroke:#FB8604;stroke-width:2.5;stroke-linecap:round;stroke-linejoin:round;stroke-dasharray:2.5854,4.309;}
	.st26{fill:none;stroke:#FB8604;stroke-width:2.5;stroke-linecap:round;stroke-linejoin:round;stroke-dasharray:1.5937,2.6561;}
	.st27{fill:none;stroke:#FB8604;stroke-width:2.5;stroke-linecap:round;stroke-linejoin:round;stroke-dasharray:3.6573,6.0956;}
	.st28{fill:none;stroke:#FB8604;stroke-width:2.5;stroke-linecap:round;stroke-linejoin:round;stroke-dasharray:2.949,4.915;}
	.st29{fill:none;stroke:#FB8604;stroke-width:2.5;stroke-linecap:round;stroke-linejoin:round;stroke-dasharray:2.8177,4.6961;}
	.st30{fill:none;stroke:#FB8604;stroke-width:2.5;stroke-linecap:round;stroke-linejoin:round;stroke-dasharray:2.8606,4.7676;}
	.st31{fill:none;stroke:#FB8604;stroke-width:2.5;stroke-linecap:round;stroke-linejoin:round;stroke-dasharray:2.3915,3.9859;}
	.st32{fill:none;stroke:#FB8604;stroke-width:2.5;stroke-linecap:round;stroke-linejoin:round;stroke-dasharray:2.266,3.7767;}
	.st33{fill:none;stroke:#FB8604;stroke-width:2.5;stroke-linecap:round;stroke-linejoin:round;stroke-dasharray:2.441,4.0683;}
	.st34{fill:none;stroke:#FB8604;stroke-width:2.5;stroke-linecap:round;stroke-linejoin:round;stroke-dasharray:2.9122,4.8536;}
	.st35{fill:none;stroke:#FB8604;stroke-width:2.5;stroke-linecap:round;stroke-linejoin:round;stroke-dasharray:2.8522,4.7536;}
	.st36{fill:none;stroke:#FB8604;stroke-width:2.5;stroke-linecap:round;stroke-linejoin:round;stroke-dasharray:3.0069,5.0114;}
	.st37{fill:none;stroke:#FB8604;stroke-width:2.5;stroke-linecap:round;stroke-linejoin:round;stroke-dasharray:3.0029,5.0049;}
	.st38{fill:none;stroke:#FB8604;stroke-width:2.5;stroke-linecap:round;stroke-linejoin:round;stroke-dasharray:2.9464,4.9107;}
	.st39{fill:none;stroke:#FB8604;stroke-width:2.5;stroke-linecap:round;stroke-linejoin:round;stroke-dasharray:2.9635,4.9392;}
	.st40{fill:none;stroke:#FB8604;stroke-width:2.5;stroke-linecap:round;stroke-linejoin:round;stroke-dasharray:1.8274,3.0456;}
	.st41{fill:none;stroke:#FB8604;stroke-width:2.5;stroke-linecap:round;stroke-linejoin:round;stroke-dasharray:2.8261,4.7101;}
	.st42{fill:none;stroke:#FB8604;stroke-width:2.5;stroke-linecap:round;stroke-linejoin:round;stroke-dasharray:2.0201,3.3668;}
	.st43{fill:none;stroke:#FB8604;stroke-width:2.5;stroke-linecap:round;stroke-linejoin:round;stroke-dasharray:3.0195,5.0325;}
	.st44{fill:none;stroke:#FB8604;stroke-width:2.5;stroke-linecap:round;stroke-linejoin:round;stroke-dasharray:2.3062,3.8437;}
	.st45{fill:none;stroke:#FB8604;stroke-width:2.5;stroke-linecap:round;stroke-linejoin:round;stroke-dasharray:2.8758,4.793;}
	.st46{fill:none;stroke:#FB8604;stroke-width:2.5;stroke-linecap:round;stroke-linejoin:round;stroke-dasharray:3.1883,5.3139;}
	.st47{fill:none;stroke:#FB8604;stroke-width:2.5;stroke-linecap:round;stroke-linejoin:round;stroke-dasharray:2.9919,4.9865;}
	.st48{fill:none;stroke:#FB8604;stroke-width:2.5;stroke-linecap:round;stroke-linejoin:round;stroke-dasharray:2.9875,4.9792;}
	.st49{fill:none;stroke:#FB8604;stroke-width:2.5;stroke-linecap:round;stroke-linejoin:round;stroke-dasharray:3.0312,5.052;}
	.st50{fill:none;stroke:#FB8604;stroke-width:2.5;stroke-linecap:round;stroke-linejoin:round;stroke-dasharray:2.99,4.9834;}
	.st51{fill:none;stroke:#FB8604;stroke-width:2.5;stroke-linecap:round;stroke-linejoin:round;stroke-dasharray:2.9978,4.9963;}
	.st52{fill:none;stroke:#FB8604;stroke-width:2.5;stroke-linecap:round;stroke-linejoin:round;stroke-dasharray:2.9926,4.9877;}
	.st53{fill:none;stroke:#FB8604;stroke-width:2.5;stroke-linecap:round;stroke-linejoin:round;stroke-dasharray:2.5289,4.2148;}
	.st54{fill:none;stroke:#FB8604;stroke-width:2.5;stroke-linecap:round;stroke-linejoin:round;stroke-dasharray:2.3977,3.9962;}
	.st55{fill:none;stroke:#FB8604;stroke-width:2.5;stroke-linecap:round;stroke-linejoin:round;stroke-dasharray:2.5804,4.3007;}
	.st56{fill:none;stroke:#FB8604;stroke-width:2.5;stroke-linecap:round;stroke-linejoin:round;stroke-dasharray:3.0527,5.0878;}
	.st57{fill:none;stroke:#FB8604;stroke-width:2.5;stroke-linecap:round;stroke-linejoin:round;stroke-dasharray:2.9902,4.9837;}
	.st58{fill:none;stroke:#FB8604;stroke-width:2.5;stroke-linecap:round;stroke-linejoin:round;stroke-dasharray:2.9932,4.9887;}
	.st59{fill:none;stroke:#FB8604;stroke-width:2.5;stroke-linecap:round;stroke-linejoin:round;stroke-dasharray:2.2364,3.7274;}
	.st60{fill:none;stroke:#FB8604;stroke-width:2.5;stroke-linecap:round;stroke-linejoin:round;stroke-dasharray:2.117,3.5284;}
	.st61{fill:none;stroke:#FB8604;stroke-width:2.5;stroke-linecap:round;stroke-linejoin:round;stroke-dasharray:2.2826,3.8043;}
	.st62{fill:none;stroke:#FB8604;stroke-width:2.5;stroke-linecap:round;stroke-linejoin:round;stroke-dasharray:2.7537,4.5895;}
	.st63{fill:none;stroke:#FB8604;stroke-width:2.5;stroke-linecap:round;stroke-linejoin:round;stroke-dasharray:2.6967,4.4945;}
	.st64{fill:none;stroke:#FB8604;stroke-width:2.5;stroke-linecap:round;stroke-linejoin:round;stroke-dasharray:3.013,5.0216;}
	.st65{fill:none;stroke:#FB8604;stroke-width:2.5;stroke-linecap:round;stroke-linejoin:round;stroke-dasharray:3,5;}
	.st66{fill:none;stroke:#FB8604;stroke-width:2.5;stroke-linecap:round;stroke-linejoin:round;stroke-dasharray:2.8521,4.7535;}
	.st67{fill:none;stroke:#FB8604;stroke-width:2.5;stroke-linecap:round;stroke-linejoin:round;stroke-dasharray:3.015,5.025;}
	.st68{fill:none;stroke:#FB8604;stroke-width:2.5;stroke-linecap:round;stroke-linejoin:round;stroke-dasharray:2.0573,3.4289;}
	.st69{fill:none;stroke:#FB8604;stroke-width:2.5;stroke-linecap:round;stroke-linejoin:round;stroke-dasharray:2.4448,4.0747;}
	.st70{fill:none;stroke:#FB8604;stroke-width:2.5;stroke-linecap:round;stroke-linejoin:round;stroke-dasharray:3.4544,5.7574;}
	.st71{fill:none;stroke:#FB8604;stroke-width:2.5;stroke-linecap:round;stroke-linejoin:round;stroke-dasharray:2.7999,4.6666;}
	.st72{fill:none;stroke:#FB8604;stroke-width:2.5;stroke-linecap:round;stroke-linejoin:round;stroke-dasharray:2.6539,4.4232;}
	.st73{fill:none;stroke:#FB8604;stroke-width:2.5;stroke-linecap:round;stroke-linejoin:round;stroke-dasharray:2.9854,4.9756;}
	.st74{fill:none;stroke:#FB8604;stroke-width:2.5;stroke-linecap:round;stroke-linejoin:round;stroke-dasharray:2.9624,4.9373;}
	.st75{fill:none;stroke:#FB8604;stroke-width:2.5;stroke-linecap:round;stroke-linejoin:round;stroke-dasharray:3.0011,5.0019;}
	.st76{fill:none;stroke:#FB8604;stroke-width:2.5;stroke-linecap:round;stroke-linejoin:round;stroke-dasharray:2.9763,4.9605;}
	.st77{fill:none;stroke:#FB8604;stroke-width:2.5;stroke-linecap:round;stroke-linejoin:round;stroke-dasharray:2.752,4.5866;}
	.st78{fill:none;stroke:#FB8604;stroke-width:2.5;stroke-linecap:round;stroke-linejoin:round;stroke-dasharray:3.616,6.0267;}
	.st79{fill:none;stroke:#FB8604;stroke-width:2.5;stroke-linecap:round;stroke-linejoin:round;stroke-dasharray:2.9602,4.9336;}
	.st80{fill:none;stroke:#FB8604;stroke-width:2.5;stroke-linecap:round;stroke-linejoin:round;stroke-dasharray:3.4336,5.7227;}
	.st81{fill:none;stroke:#FB8604;stroke-width:2.5;stroke-linecap:round;stroke-linejoin:round;stroke-dasharray:1.9985,3.3309;}
	.st82{fill:none;stroke:#FB8604;stroke-width:2.5;stroke-linecap:round;stroke-linejoin:round;stroke-dasharray:2.4594,4.099;}
	.st83{fill:none;stroke:#FB8604;stroke-width:2.5;stroke-linecap:round;stroke-linejoin:round;stroke-dasharray:2.7161,4.5269;}
	.st84{fill:none;stroke:#FB8604;stroke-width:2.5;stroke-linecap:round;stroke-linejoin:round;stroke-dasharray:2.788,4.6466;}
	.st85{fill:none;stroke:#FB8604;stroke-width:2.5;stroke-linecap:round;stroke-linejoin:round;stroke-dasharray:2.041,3.4017;}
	.st86{fill:none;stroke:#FB8604;stroke-width:2.5;stroke-linecap:round;stroke-linejoin:round;stroke-dasharray:3.0618,5.1029;}
	.st87{fill:none;stroke:#FB8604;stroke-width:2.5;stroke-linecap:round;stroke-linejoin:round;stroke-dasharray:2.9346,4.891;}
	.st88{fill:none;stroke:#FB8604;stroke-width:2.5;stroke-linecap:round;stroke-linejoin:round;stroke-dasharray:3.0108,5.0181;}
	.st89{fill:none;stroke:#FB8604;stroke-width:2.5;stroke-linecap:round;stroke-linejoin:round;stroke-dasharray:2.9662,4.9436;}
	.st90{fill:none;stroke:#FB8604;stroke-width:2.5;stroke-linecap:round;stroke-linejoin:round;stroke-dasharray:3.0816,5.1361;}
	.st91{fill:none;stroke:#FB8604;stroke-width:2.5;stroke-linecap:round;stroke-linejoin:round;stroke-dasharray:2.9292,4.882;}
	.st92{fill:none;stroke:#FB8604;stroke-width:2.5;stroke-linecap:round;stroke-linejoin:round;stroke-dasharray:3.1434,5.239;}
	.st93{fill:none;stroke:#FB8604;stroke-width:2.5;stroke-linecap:round;stroke-linejoin:round;stroke-dasharray:2.9751,4.9584;}
	.st94{fill:none;stroke:#FB8604;stroke-width:2.5;stroke-linecap:round;stroke-linejoin:round;stroke-dasharray:2.9148,4.858;}
	.st95{fill:none;stroke:#FB8604;stroke-width:2.5;stroke-linecap:round;stroke-linejoin:round;stroke-dasharray:2.9955,4.9925;}
	.st96{fill:none;stroke:#FB8604;stroke-width:2.5;stroke-linecap:round;stroke-linejoin:round;stroke-dasharray:2.9503,4.9172;}
	.st97{fill:none;stroke:#FB8604;stroke-width:2.5;stroke-linecap:round;stroke-linejoin:round;stroke-dasharray:2.9995,4.9992;}
	.st98{fill:none;stroke:#FB8604;stroke-width:2.5;stroke-linecap:round;stroke-linejoin:round;stroke-dasharray:2.9952,4.992;}
	.st99{fill:none;stroke:#FB8604;stroke-width:2.5;stroke-linecap:round;stroke-linejoin:round;stroke-dasharray:2.9573,4.9289;}
	.st100{fill:none;stroke:#FB8604;stroke-width:2.5;stroke-linecap:round;stroke-linejoin:round;stroke-dasharray:2.4922,4.1537;}
	.st101{fill:none;stroke:#FB8604;stroke-width:2.5;stroke-linecap:round;stroke-linejoin:round;stroke-dasharray:2.3625,3.9376;}
	.st102{fill:none;stroke:#FB8604;stroke-width:2.5;stroke-linecap:round;stroke-linejoin:round;stroke-dasharray:2.5432,4.2386;}
	.st103{fill:none;stroke:#FB8604;stroke-width:2.5;stroke-linecap:round;stroke-linejoin:round;stroke-dasharray:3.0152,5.0253;}
	.st104{fill:none;stroke:#FB8604;stroke-width:2.5;stroke-linecap:round;stroke-linejoin:round;stroke-dasharray:2.9534,4.9224;}
	.st105{fill:none;stroke:#FB8604;stroke-width:2.5;stroke-linecap:round;stroke-linejoin:round;stroke-dasharray:3.0508,5.0846;}
	.st106{fill:none;stroke:#FB8604;stroke-width:2.5;stroke-linecap:round;stroke-linejoin:round;stroke-dasharray:3.0019,5.0032;}
	.st107{fill:none;stroke:#FB8604;stroke-width:2.5;stroke-linecap:round;stroke-linejoin:round;stroke-dasharray:2.8103,4.6838;}
	.st108{fill:none;stroke:#FB8604;stroke-width:2.5;stroke-linecap:round;stroke-linejoin:round;stroke-dasharray:2.9153,4.8589;}
	.st109{fill:none;stroke:#FB8604;stroke-width:2.5;stroke-linecap:round;stroke-linejoin:round;stroke-dasharray:2.6596,4.4327;}
	.st110{fill:none;stroke:#FB8604;stroke-width:2.5;stroke-linecap:round;stroke-linejoin:round;stroke-dasharray:2.0332,3.3886;}
	.st111{fill:none;stroke:#FB8604;stroke-width:2.5;stroke-linecap:round;stroke-linejoin:round;stroke-dasharray:3.0931,5.1552;}
	.st112{fill:none;stroke:#FB8604;stroke-width:2.5;stroke-linecap:round;stroke-linejoin:round;stroke-dasharray:3.0402,5.067;}
	.st113{fill:none;stroke:#FB8604;stroke-width:2.5;stroke-linecap:round;stroke-linejoin:round;stroke-dasharray:2.9774,4.9623;}
	.st114{fill:none;stroke:#FB8604;stroke-width:2.5;stroke-linecap:round;stroke-linejoin:round;stroke-dasharray:2.9698,4.9497;}
	.st115{fill:none;stroke:#FB8604;stroke-width:2.5;stroke-linecap:round;stroke-linejoin:round;stroke-dasharray:3.0558,5.093;}
	.st116{fill:none;stroke:#FB8604;stroke-width:2.5;stroke-linecap:round;stroke-linejoin:round;stroke-dasharray:2.5316,4.2194;}
	.st117{fill:none;stroke:#FB8604;stroke-width:2.5;stroke-linecap:round;stroke-linejoin:round;stroke-dasharray:1.5067,2.5112;}
	.st118{fill:none;stroke:#FB8604;stroke-width:2.5;stroke-linecap:round;stroke-linejoin:round;stroke-dasharray:2.4118,4.0197;}
	.st119{fill:none;stroke:#FB8604;stroke-width:2.5;stroke-linecap:round;stroke-linejoin:round;stroke-dasharray:1.6749,2.7915;}
	.st120{fill:none;stroke:#FB8604;stroke-width:2.5;stroke-linecap:round;stroke-linejoin:round;stroke-dasharray:2.5801,4.3001;}
	.st121{fill:none;stroke:#FB8604;stroke-width:2.5;stroke-linecap:round;stroke-linejoin:round;stroke-dasharray:1.9241,3.2069;}
	.st122{fill:none;stroke:#FB8604;stroke-width:2.5;stroke-linecap:round;stroke-linejoin:round;stroke-dasharray:2.8201,4.7001;}
	.st123{fill:none;stroke:#FB8604;stroke-width:2.5;stroke-linecap:round;stroke-linejoin:round;stroke-dasharray:3.181,5.3016;}
	.st124{fill:none;stroke:#FB8604;stroke-width:1.5;stroke-linecap:round;stroke-linejoin:round;stroke-miterlimit:10;}
	.st125{fill:none;stroke:#FB8604;stroke-width:2.75;stroke-linecap:round;stroke-linejoin:round;stroke-miterlimit:10;}
	.st126{fill:none;stroke:#FB8604;stroke-width:2.25;stroke-linecap:round;stroke-linejoin:round;stroke-miterlimit:10;}
	.st127{fill:none;stroke:#FB8604;stroke-width:3.5;stroke-linecap:round;stroke-linejoin:round;stroke-miterlimit:10;}
	.st128{fill:none;stroke:#FB8604;stroke-width:3;stroke-linecap:round;stroke-linejoin:round;stroke-miterlimit:10;}
</style>
<metadata>
	<sfw  xmlns="&ns_sfw;">
		<slices></slices>
		<sliceSourceBounds  bottomLeftOrigin="true" height="9750" width="5207.29" x="-2000" y="-1314"></sliceSourceBounds>
	</sfw>
</metadata>
<g id="FILL-BACKGROUND">
	<rect class="st0" width="750" height="750"/>
</g>
<g id="N-DIMENSIONS">
</g>
<g id="N-TEXT">
</g>
<g id="_x32_D_x24_AG-DETAILS-DIAGRAM">
</g>
<g id="_x32_D_x24_AG-DETAILS">
	<g id="POLYLINE_00000050664596997205204990000000196382348634782596_">
		<path class="st2" d="M399.51,316.3c-0.44-0.37-1.04-0.47-1.59-0.53c-0.75-0.06-1.5,0-2.23,0.16c-0.54,0.12-1.07,0.3-1.54,0.59
			c-1.21,0.74-0.92,2.08,0.19,2.75c0.76,0.45,1.67,0.56,2.54,0.47c0.99-0.1,2.01-0.51,2.6-1.34c0.24-0.34,0.41-0.73,0.43-1.15
			C399.92,316.9,399.79,316.54,399.51,316.3z"/>
	</g>
	<g id="POLYLINE_00000000200442043408860700000014449408092037492139_">
		<path class="st2" d="M476.09,330.31l-0.01-0.02l-0.01-0.02l-0.01-0.02l-0.01-0.02l-0.01-0.02l-0.01-0.02l-0.01-0.02l-0.01-0.02
			l-0.01-0.02l-0.01-0.02l-0.02-0.02l-0.02-0.02l-0.02-0.02l-0.02-0.02l-0.02-0.02l-0.02-0.02l-0.02-0.02
			c-0.37-0.34-0.84-0.55-1.29-0.74c-1.04-0.41-2.14-0.68-3.24-0.89c-1.58-0.28-3.19-0.47-4.8-0.37c-0.63,0.05-1.28,0.13-1.84,0.44
			l-0.03,0.02l-0.02,0.02l-0.02,0.02c-0.17,0.11-0.32,0.27-0.4,0.46c-0.09,0.19-0.1,0.41-0.06,0.62c0.09,0.45,0.37,0.84,0.69,1.16
			c0.6,0.61,1.38,1.04,2.18,1.32c0.92,0.31,1.9,0.43,2.86,0.45c1.3,0.02,2.61-0.13,3.87-0.46c0.51-0.14,1.03-0.31,1.5-0.56
			c0.25-0.13,0.5-0.29,0.68-0.51l0.01-0.02l0.01-0.02l0.01-0.02l0.01-0.02l0.01-0.02l0.01-0.02l0.01-0.02l0.01-0.02l0.01-0.02
			l0.01-0.02l0.01-0.02l0.01-0.02l0.01-0.02l0.01-0.02l0.01-0.02l0.01-0.02l0.01-0.02l0.01-0.02l0-0.02l0-0.02l0-0.02l0-0.02l0-0.02
			l0-0.02l0-0.02l0-0.02l0-0.02l0-0.02l0-0.02l0-0.02l0-0.02l0-0.02l0-0.02l0-0.02l0-0.02l0-0.02l-0.01-0.02l-0.01-0.02
			L476.09,330.31z"/>
	</g>
	<g id="POLYLINE_00000067955691381891925670000017187424542945356979_">
		<path class="st2" d="M327.42,325.46l-0.02-0.01l-0.02-0.01l-0.02-0.01l-0.02-0.01l-0.02-0.01l-0.02-0.01l-0.02-0.01
			c-1.76-0.74-6.28,1.77-6.52,3.68c-0.05,0.38,0.09,0.75,0.32,1.05c0.51,0.64,1.32,0.97,2.1,1.11c0.78,0.13,1.6,0.06,2.32-0.27
			c0.64-0.3,1.17-0.8,1.58-1.37c0.35-0.5,0.63-1.06,0.79-1.64c0.13-0.46,0.2-0.95,0.14-1.42
			C327.98,326.11,327.79,325.68,327.42,325.46z"/>
	</g>
	<g id="POLYLINE_00000160903820607563932000000004955532123725630637_">
		<path class="st2" d="M517.57,414.58c17.47,1.24,35.38,2,52.7-1.04c11.24-1.96,22.24-5.83,32.8-10.11"/>
	</g>
	<g id="POLYLINE_00000176755442551975892500000014313744633809905572_">
		<path class="st2" d="M443.75,403.83c12.13,2.74,24.92,5.03,37.23,6.75"/>
	</g>
	<g id="POLYLINE_00000057122010802994540390000013950578750325019807_">
		<path class="st2" d="M514.4,416.66c25.78,2.06,54.19,5.15,79.95,3.89c12.51-0.66,25-3.06,36.95-6.81"/>
	</g>
	<g id="POLYLINE_00000159440521301621601160000003233750657525028997_">
		<path class="st2" d="M428.55,407.01c15.48,2.33,33.98,4.61,49.54,6.23"/>
	</g>
	<g id="POLYLINE_00000182527751678155942920000014497982227656521632_">
		<path class="st2" d="M510.39,419.25c10.24,0.7,69.87,5.64,78.7,5.73c5.88,0.18,12,0.15,17.86-0.34
			c11.81-0.95,23.52-3.86,34.8-7.43"/>
	</g>
	<g id="POLYLINE_00000084523242981139922170000000411765445713098680_">
		<path class="st2" d="M413.36,410.19c17.11,2.16,44.39,4.69,61.77,6.23"/>
	</g>
	<g id="POLYLINE_00000118378802460429699430000008845327955600624043_">
		<path class="st2" d="M565.65,418.32c6.56,0.3,13.22,0.08,19.72-0.89c10.12-1.55,20.16-4.39,29.54-8.51"/>
	</g>
	<g id="POLYLINE_00000143577862286816476240000010816702555128894866_">
		<path class="st2" d="M629.49,424.78c9.23-1.2,19.05-2.77,28.15-4.69"/>
	</g>
	<g id="POLYLINE_00000116197607164873058950000003250866315369875348_">
		<path class="st2" d="M525.06,409.94c8.99,0.57,18.44,0.62,27.44,0.33c6.29-0.26,12.68-0.82,18.78-2.47"/>
	</g>
	<g id="POLYLINE_00000013172382961440976600000009500042715249677483_">
		<path class="st2" d="M125.57,428.31c1.48-1.68,2.9-3.71,4.52-5.26c1.17-1.15,2.52-2.12,3.96-2.91c1.75-0.96,3.66-1.71,5.54-2.37
			c8.43-2.94,25.81-6.49,34.65-8.66c8.43-2.03,17.02-4.68,25.12-7.76c6.25-2.4,22.67-8.96,28.76-10.93
			c4.81-1.62,9.92-3.09,14.87-4.23c18.46-4.16,37.96-5.26,56.85-5.94c6.93-0.18,34.14-0.58,40.47-1.04
			c3.43-0.22,7.05-0.55,10.45-1.09c3.38-0.55,6.78-1.31,9.96-2.6c2.95-1.19,5.77-2.92,7.76-5.45c3.05-3.78,4.39-9.11,6.25-13.52
			c0.64-1.49,1.38-2.97,2.38-4.25c0.63-0.81,1.39-1.54,2.22-2.15c2.11-1.56,4.68-2.41,7.25-2.84c1.83-0.31,3.72-0.4,5.58-0.36
			c2.19,0.03,5.42,0.44,7.61,0.65c2.65,0.25,5.36,0.33,7.98-0.23c2.57-0.55,5-1.69,7.32-2.89c4.81-2.45,9.99-6.03,15.35-7.08
			c1.53-0.29,3.11-0.4,4.66-0.19c0.89,0.13,1.78,0.37,2.56,0.84c0.63,0.38,1.17,0.96,1.39,1.67c0.18,0.55,0.18,1.14,0.11,1.71
			c-0.13,1-0.47,1.98-0.84,2.92c-0.99,2.49-2.52,5.52-3.52,8c-0.95,2.34-1.77,4.78-2.21,7.27c-0.57,3.18-0.47,6.47,0.03,9.65
			c0.65,4.1,1.94,8.1,3.62,11.88c1.34,2.98,2.93,5.88,4.8,8.56c1.34,1.92,2.84,3.77,4.61,5.32c1.29,1.14,2.74,2.1,4.28,2.87
			c3.29,1.6,6.93,2.62,10.43,3.67c8.12,2.29,16.66,4.27,25,5.5"/>
	</g>
	<g id="POLYLINE_00000132050059856057264390000010256224939743411896_">
		<path class="st2" d="M484.56,431.9c0.46-1.22,1.06-2.49,1.33-3.77c0.43-1.94,0.58-5.86,0.77-7.88c0.27-2.93,0.65-5.92,1.76-8.67
			c1.12-2.81,3.16-5.28,5.81-6.77c2.56-1.47,5.55-2.02,8.47-2.04c2.55-0.01,5.12,0.35,7.55,1.16c1.74,0.59,3.47,1.41,4.76,2.75
			c0.56,0.59,1,1.3,1.31,2.05c0.79,1.95,0.73,4.13,0.72,6.19"/>
	</g>
</g>
<g id="_x32_D_x24_AG-ANIMALS">
	<g id="POLYLINE_00000167387437257845291690000009946188551810833298_">
		<path class="st125" d="M97.11,423.29c8.4-4.95,17.55-10.72,25.53-16.28c32.39-22.47,70.11-49.22,104.15-68.63
			c4.46-2.47,9.53-5.08,14.16-7.19c3.19-1.48,8.65-3.7,11.79-5.26c1.93-0.97,3.86-2.05,5.5-3.47c1.4-1.2,2.52-2.74,3.19-4.46
			c1.74-4.51,0.74-9.83-2.17-13.63c-0.91-1.21-2-2.29-3.2-3.21c-1.41-1.12-3.32-2.05-4.91-2.9c-0.41-0.23-0.84-0.46-1.2-0.77
			c-0.13-0.11-0.25-0.24-0.33-0.4l0-0.01l0-0.01l0-0.01l0-0.01l0-0.01l0-0.01l0-0.01l0-0.01l0-0.01l0-0.01l0-0.01l0-0.01l0-0.01
			l0-0.01l0-0.01l0-0.01l0-0.01l0-0.01l0-0.01l0-0.01l0-0.01l0-0.01l0-0.01l0-0.01l0-0.01l0-0.01l0-0.01l0-0.01l0-0.01l0-0.01
			l0-0.01l0-0.01l0-0.01l0-0.01l0-0.01l0-0.01l0-0.01l0-0.01l0-0.01c0.04-0.13,0.12-0.24,0.21-0.33c0.15-0.15,0.32-0.28,0.5-0.39
			c0.97-0.56,2.08-0.85,3.16-1.11c3.09-0.7,6.32-0.92,9.47-0.5c2.52,0.33,4.98,1.1,7.27,2.17c5.72,2.64,11.3,6.96,16.62,10.31
			c1.78,1.1,3.64,2.16,5.59,2.93c1.48,0.59,3.05,1.02,4.62,1.27c3.45,0.56,7.04,0.43,10.52,0.24c24.11-2.05,49.39-2.68,73.57-2.39
			c12.08,0.21,25.23,0.77,37.23,2.09c22.13,2.49,44.48,6.94,66.05,12.44c33.37,8.52,69.41,21.97,101.84,33.86
			c2.42,0.84,4.96,1.72,7.46,2.22c2.33,0.49,5.32,0.75,7.64,1.28c1.08,0.25,2.14,0.59,3.14,1.05c1.24,0.56,2.51,1.32,3.67,2.02
			c13.27,8.32,41.59,25.25,54.06,33.97c4.64,3.26,9.28,6.75,13.37,10.69c1.86,1.82,3.69,3.74,5.09,5.95
			c0.8,1.31,1.57,2.85,1.42,4.43c-0.04,0.34-0.11,0.71-0.43,0.9c-0.16,0.1-0.35,0.15-0.54,0.18c-0.35,0.05-0.72,0.02-1.07-0.02
			c-3.44-0.49-6.69-1.97-9.82-3.45c-4.72-2.33-11.22-5.54-16.04-7.48c-9.34-3.81-19.56-7.36-29.2-10.36
			c-3.66-1.1-7.62-2.21-11.38-2.9c-2.25-0.41-4.57-0.71-6.86-0.69c-2.77,0.01-5.52,0.57-8.1,1.54c-4.38,1.62-8.95,4.45-13.21,6.37
			c-4.52,2.11-9.32,3.78-14.2,4.83"/>
	</g>
	<g id="POLYLINE_00000121979774265794384390000003096592527802810756_">
		<path class="st125" d="M682.14,418.27c0.34,0.5,0.76,1.1,0.85,1.7c0.03,0.27-0.01,0.54-0.08,0.8c-0.12,0.4-0.35,0.77-0.66,1.06
			c-0.38,0.37-0.85,0.63-1.33,0.85c-0.72,0.32-1.5,0.53-2.27,0.7c-1.81,0.44-13.62,1.85-15.7,2.16c-6.58,0.8-13.52,1.26-20.15,1.51
			c-15.35,0.47-35.58,0.19-50.94-0.04c-8.93-0.08-75.26-4.65-85.57-5.25"/>
	</g>
	<g id="POLYLINE_00000008124086148891407290000005677841038940412807_">
		<path class="st125" d="M548.33,398.87c-7.87,2.95-15.58,6.58-22.84,10.82c-7.05,4.05-15.08,9.93-22.24,13.79
			c-4.2,2.31-8.77,4.37-13.2,6.2c-4.96,2.04-10.44,4.25-15.54,5.85c-3.9,1.23-7.96,2.18-12,2.76c-1.91,0.26-3.9,0.51-5.83,0.51
			c-0.4-0.01-0.82-0.03-1.21-0.13c-0.17-0.05-0.34-0.11-0.48-0.22l-0.01-0.01l-0.01-0.01l-0.01-0.01l-0.01-0.01l-0.01-0.01
			l-0.01-0.01l-0.01-0.01l-0.01-0.01l-0.01-0.01l-0.01-0.01l-0.01-0.01l-0.01-0.01l-0.01-0.01l-0.01-0.01l-0.01-0.01l-0.01-0.01
			l0-0.01l0-0.01l0-0.01l0-0.01l0-0.01l0-0.01l0-0.01l0-0.01l0-0.01l0-0.01l0-0.01l0-0.01l0-0.01l0-0.01l0-0.01l0-0.01l0-0.01
			l0-0.01l0-0.01l0-0.01l0-0.01l0-0.01l0-0.01l0-0.01l0-0.01l0-0.01l0-0.01l0-0.01l0-0.01l0-0.01l0-0.01
			c0.02-0.17,0.11-0.33,0.2-0.47c0.18-0.28,0.42-0.53,0.65-0.77c1.16-1.16,3.86-3.19,5.17-4.25c2.34-1.86,4.68-3.86,6.7-6.07
			c0.81-0.89,1.61-1.84,2.33-2.8c0.76-1.01,2.16-3.16,2.89-4.19c1.19-1.7,2.53-3.34,3.96-4.84c3.99-4.18,8.64-7.77,13.46-10.94
			c3.29-2.13,6.78-4.08,10.39-5.59c2.79-1.16,5.72-2.1,8.73-2.52"/>
	</g>
	<g id="POLYLINE_00000034804883686384985320000008046475394250262937_">
		<path class="st125" d="M472.87,419.33c-36.28-3.08-120.61-11.99-155.67-12.89c-8.21-0.24-17.05-0.33-25.23,0.02
			c-10.24,0.36-22.06,1.73-32.27,3.02c-20.05,2.59-42.45,5.92-62.32,9.69c-12.99,2.44-34.75,6.97-47.73,8.21
			c-3.57,0.37-7.76,0.73-11.35,0.87c-3.84,0.18-8.82,0.07-12.65,0.04c-2.18,0.01-4.42,0.1-6.55,0.58c-2.84,0.62-5.53,1.87-8.06,3.28
			l-6.49,3.74c-6.17,3.53-12.94,6.06-19.72,8.12c-3.57,1.06-7.29,2.02-10.97,2.57c-3.26,0.5-6.63,0.7-9.92,0.68
			c-3.57-0.06-7.23-0.21-10.71-1.04c-0.64-0.16-1.29-0.36-1.89-0.63c-0.32-0.15-0.65-0.32-0.92-0.55c-0.14-0.12-0.27-0.27-0.32-0.45
			l0-0.01l0-0.01l0-0.01l0-0.01l0-0.01l0-0.01l0-0.01l0-0.01l0-0.01l0-0.01l0-0.01l0-0.01l0-0.01l0-0.01l0-0.01l0-0.01l0-0.01
			l0-0.01l0-0.01l0-0.01l0-0.01l0-0.01l0-0.01l0-0.01l0-0.01l0-0.01l0-0.01l0-0.01l0-0.01l0-0.01l0-0.01l0-0.01l0-0.01l0-0.01
			l0-0.01c0.06-0.13,0.17-0.23,0.29-0.32c0.14-0.1,0.3-0.19,0.45-0.27c0.57-0.29,1.63-0.69,2.25-0.93c2.57-1.01,5.1-2.27,7.45-3.73
			c2.14-1.33,4.18-2.87,5.95-4.68c2.87-2.85,5.28-6.6,8.06-9.53c1.16-1.23,2.45-2.38,3.91-3.23c0.6-0.37,1.49-0.81,2.05-1.23
			c0.13-0.1,0.26-0.21,0.36-0.35c0.18-0.23,0.23-0.52,0.15-0.81c-0.05-0.19-0.14-0.36-0.23-0.52c-0.39-0.65-1.28-1.61-1.77-2.21
			c-1.32-1.55-2.31-3.19-3.15-5.04c-0.76-1.66-2-4.71-2.92-6.24c-0.32-0.55-0.68-1.09-1.11-1.56c-0.18-0.21-0.54-0.52-0.64-0.77
			l0-0.01l0-0.01l0-0.01l0-0.01l0-0.01l0-0.01l0-0.01l0-0.01l0-0.01l0-0.01l0-0.01l0-0.01l0-0.01l0-0.01l0-0.01l0-0.01l0-0.01l0,0
			l0,0l0,0l0,0l0,0l0,0l0,0l0,0l0,0l0,0l0,0l0,0l0,0l0,0l0,0l0,0l0,0l0,0l0,0l0,0l0,0l0,0l0,0l0,0l0,0l0,0l0,0l0,0l0.01,0l0.01,0
			l0.01,0l0.01,0l0.01,0l0.01,0l0.01,0c0.09-0.05,0.2-0.08,0.31-0.09c0.61-0.09,1.27-0.06,1.89-0.05
			c7.29,0.31,14.66,1.23,21.71,3.12l20.58,5.65c0.06,0.02,0.32,0.09,0.38,0.1l0,0l0,0l0,0l0,0"/>
	</g>
</g>
<g id="_x32_D_x24_AG-OUTLINE">
	<g id="POLYLINE_00000165916941612023035570000008707049797114942900_">
		<path class="st127" d="M472.87,419.33c-31.98-2.75-117.7-11.49-148.3-12.61c-9.65-0.4-20.15-0.67-29.77-0.36
			c-15.25,0.39-31.91,2.69-47.07,4.71c-11.4,1.56-26.97,3.94-38.3,5.9c-12.74,2.2-35.03,6.81-47.82,8.83
			c-9.15,1.38-18.72,2.52-27.98,2.56c-2.28,0-7.84-0.12-10.03-0.02c-1.38,0.06-2.78,0.18-4.13,0.46c-2.98,0.59-5.79,1.89-8.43,3.36
			l-6.49,3.74c-6.17,3.53-12.94,6.06-19.72,8.12c-3.57,1.06-7.29,2.02-10.97,2.57c-3.26,0.5-6.63,0.7-9.92,0.68
			c-3.57-0.06-7.23-0.21-10.71-1.04c-0.64-0.16-1.29-0.36-1.89-0.63c-0.32-0.15-0.65-0.32-0.92-0.55c-0.14-0.12-0.27-0.27-0.32-0.45
			l0-0.01l0-0.01l0-0.01l0-0.01l0-0.01l0-0.01l0-0.01l0-0.01l0-0.01l0-0.01l0-0.01l0-0.01l0-0.01l0-0.01l0-0.01l0-0.01l0-0.01
			l0-0.01l0-0.01l0-0.01l0-0.01l0-0.01l0-0.01l0-0.01l0-0.01l0-0.01l0-0.01l0-0.01l0-0.01l0-0.01l0-0.01l0-0.01l0-0.01l0-0.01
			l0-0.01c0.06-0.13,0.17-0.23,0.29-0.32c0.14-0.1,0.3-0.19,0.45-0.27c0.57-0.29,1.63-0.69,2.25-0.93c2.57-1.01,5.1-2.27,7.45-3.73
			c2.14-1.33,4.18-2.87,5.95-4.68c2.87-2.85,5.28-6.6,8.06-9.53c1.16-1.23,2.45-2.38,3.91-3.23c0.6-0.37,1.49-0.81,2.05-1.23
			c0.13-0.1,0.26-0.21,0.36-0.35c0.18-0.23,0.23-0.52,0.15-0.81c-0.05-0.19-0.14-0.36-0.23-0.52c-0.39-0.65-1.28-1.61-1.77-2.21
			c-1.32-1.55-2.31-3.19-3.15-5.04c-0.76-1.66-2-4.71-2.92-6.24c-0.32-0.55-0.68-1.09-1.11-1.56c-0.18-0.21-0.54-0.52-0.64-0.77
			l0-0.01l0-0.01l0-0.01l0-0.01l0-0.01l0-0.01l0-0.01l0-0.01l0-0.01l0-0.01l0-0.01l0-0.01l0-0.01l0-0.01l0-0.01l0-0.01l0-0.01l0,0
			l0,0l0,0l0,0l0,0l0,0l0,0l0,0l0,0l0,0l0,0l0,0l0,0l0,0l0,0l0,0l0,0l0,0l0,0l0,0l0,0l0,0l0,0l0,0l0,0l0,0l0,0l0,0l0.01,0l0.01,0
			l0.01,0l0.01,0l0.01,0l0.01,0l0.01,0c0.09-0.05,0.2-0.08,0.31-0.09c0.61-0.09,1.27-0.06,1.89-0.05
			c7.29,0.31,14.66,1.23,21.71,3.12l20.58,5.65c0.06,0.02,0.32,0.09,0.38,0.1l0,0l0,0l0,0l0,0c30.37-20.89,67.4-47.15,98.76-66.11
			c5.73-3.46,12.22-7.23,18.16-10.29c5.02-2.61,11.42-5.42,16.65-7.67c1.59-0.71,3.27-1.49,4.79-2.35c1.41-0.8,2.8-1.7,4-2.8
			c1.26-1.15,2.25-2.58,2.86-4.17c1.74-4.51,0.74-9.83-2.17-13.63c-0.91-1.21-2-2.29-3.2-3.21c-1.42-1.12-3.31-2.05-4.91-2.9
			c-0.41-0.23-0.84-0.46-1.2-0.77c-0.13-0.11-0.25-0.24-0.33-0.4l0-0.01l0-0.01l0-0.01l0-0.01l0-0.01l0-0.01l0-0.01l0-0.01l0-0.01
			l0-0.01l0-0.01l0-0.01l0-0.01l0-0.01l0-0.01l0-0.01l0-0.01l0-0.01l0-0.01l0-0.01l0-0.01l0-0.01l0-0.01l0-0.01l0-0.01l0-0.01
			l0-0.01l0-0.01l0-0.01l0-0.01l0-0.01l0-0.01l0-0.01l0-0.01l0-0.01l0-0.01l0-0.01l0-0.01l0-0.01c0.04-0.13,0.12-0.24,0.21-0.33
			c0.15-0.15,0.32-0.28,0.5-0.39c0.97-0.56,2.08-0.85,3.16-1.11c3.09-0.7,6.32-0.92,9.47-0.5c2.52,0.33,4.98,1.1,7.27,2.17
			c5.72,2.64,11.3,6.96,16.62,10.31c1.78,1.1,3.64,2.16,5.59,2.93c1.48,0.59,3.05,1.02,4.62,1.27c3.45,0.56,7.04,0.43,10.52,0.24
			c24.11-2.05,49.39-2.68,73.57-2.39c12.08,0.21,25.23,0.77,37.23,2.09c22.13,2.49,44.48,6.94,66.05,12.44
			c33.37,8.52,69.41,21.97,101.84,33.86c2.86,1.02,5.83,1.99,8.82,2.47c2.71,0.46,5.86,0.69,8.42,1.67
			c0.97,0.36,1.93,0.85,2.84,1.36c7.85,4.72,38.12,23.45,45.36,28.04c6.17,3.98,12.7,8.29,18.41,12.89c2.91,2.37,5.82,4.92,8.3,7.75
			c1.1,1.28,2.16,2.64,2.92,4.15c0.41,0.84,0.74,1.74,0.79,2.68c0.34,0.5,0.76,1.1,0.85,1.7c0.03,0.27-0.01,0.54-0.08,0.8
			c-0.12,0.4-0.35,0.77-0.66,1.06c-0.38,0.37-0.85,0.63-1.33,0.85c-0.72,0.32-1.5,0.53-2.27,0.7c-1.81,0.44-13.62,1.85-15.7,2.16
			c-6.58,0.8-13.52,1.26-20.15,1.51c-15.35,0.47-35.58,0.19-50.94-0.04c-8.93-0.08-75.26-4.65-85.57-5.25
			c-6.81,4.06-14.38,7.23-21.74,10.15c-4.23,1.66-8.75,3.33-13.13,4.52c-4.39,1.18-8.93,2.04-13.47,2.34
			c-0.82,0.03-1.66,0.09-2.47-0.09c-0.18-0.05-0.37-0.11-0.51-0.23l-0.01-0.01l-0.01-0.01l-0.01-0.01l-0.01-0.01l-0.01-0.01
			l-0.01-0.01l-0.01-0.01l-0.01-0.01l-0.01-0.01l-0.01-0.01l-0.01-0.01l-0.01-0.01l-0.01-0.01l-0.01-0.01l-0.01-0.01l-0.01-0.01
			l0-0.01l0-0.01l0-0.01l0-0.01l0-0.01l0-0.01l0-0.01l0-0.01l0-0.01l0-0.01l0-0.01l0-0.01l0-0.01l0-0.01l0-0.01l0-0.01l0-0.01
			l0-0.01l0-0.01l0-0.01l0-0.01l0-0.01l0-0.01l0-0.01l0-0.01l0-0.01l0-0.01l0-0.01l0-0.01l0-0.01l0-0.01
			c0.03-0.18,0.12-0.35,0.22-0.5c0.22-0.33,0.51-0.61,0.79-0.89c2.51-2.29,5.85-4.6,8.36-6.89c1.7-1.51,3.35-3.16,4.79-4.93
			C470.29,423.26,471.7,420.99,472.87,419.33z"/>
	</g>
</g>
</svg>
