<?xml version="1.0" encoding="utf-8"?>
<!-- Generator: Adobe Illustrator 26.3.1, SVG Export Plug-In . SVG Version: 6.00 Build 0)  -->
<!DOCTYPE svg PUBLIC "-//W3C//DTD SVG 1.1//EN" "http://www.w3.org/Graphics/SVG/1.1/DTD/svg11.dtd" [
	<!ENTITY ns_extend "http://ns.adobe.com/Extensibility/1.0/">
	<!ENTITY ns_ai "http://ns.adobe.com/AdobeIllustrator/10.0/">
	<!ENTITY ns_graphs "http://ns.adobe.com/Graphs/1.0/">
	<!ENTITY ns_vars "http://ns.adobe.com/Variables/1.0/">
	<!ENTITY ns_imrep "http://ns.adobe.com/ImageReplacement/1.0/">
	<!ENTITY ns_sfw "http://ns.adobe.com/SaveForWeb/1.0/">
	<!ENTITY ns_custom "http://ns.adobe.com/GenericCustomNamespace/1.0/">
	<!ENTITY ns_adobe_xpath "http://ns.adobe.com/XPath/1.0/">
]>
<svg version="1.1" xmlns:x="&ns_extend;" xmlns:i="&ns_ai;" xmlns:graph="&ns_graphs;"
	 xmlns="http://www.w3.org/2000/svg" xmlns:xlink="http://www.w3.org/1999/xlink" x="0px" y="0px" width="750px" height="750px"
	 viewBox="0 0 750 750" style="enable-background:new 0 0 750 750;" xml:space="preserve">
<style type="text/css">
	.st0{fill:#FFFFFF;}
	.st1{fill:#FB8604;}
	.st2{fill:none;stroke:#FB8604;stroke-width:2;stroke-linecap:round;stroke-linejoin:round;stroke-miterlimit:10;}
	.st3{fill:none;stroke:#FB8604;stroke-width:2;stroke-linecap:round;stroke-linejoin:round;}
	.st4{fill:none;stroke:#FB8604;stroke-width:2;stroke-linecap:round;stroke-linejoin:round;stroke-dasharray:2.8868,4.8113;}
	.st5{fill:none;stroke:#FB8604;stroke-width:2;stroke-linecap:round;stroke-linejoin:round;stroke-dasharray:3.2,5.3333;}
	.st6{fill:none;stroke:#FB8604;stroke-width:2;stroke-linecap:round;stroke-linejoin:round;stroke-dasharray:2.7333,4.5556;}
	.st7{fill:none;stroke:#FB8604;stroke-width:2;stroke-linecap:round;stroke-linejoin:round;stroke-dasharray:2.5521,4.2535;}
	.st8{fill:none;stroke:#FB8604;stroke-width:2;stroke-linecap:round;stroke-linejoin:round;stroke-dasharray:3,5;}
	.st9{fill:none;stroke:#FB8604;stroke-width:2;stroke-linecap:round;stroke-linejoin:round;stroke-dasharray:3.2261,5.3768;}
	.st10{fill:none;stroke:#FB8604;stroke-width:2;stroke-linecap:round;stroke-linejoin:round;stroke-dasharray:2.913,4.8551;}
	.st11{fill:none;stroke:#FB8604;stroke-width:2;stroke-linecap:round;stroke-linejoin:round;stroke-dasharray:2.9189,4.8649;}
	.st12{fill:none;stroke:#FB8604;stroke-width:2;stroke-linecap:round;stroke-linejoin:round;stroke-dasharray:3.0724,5.1207;}
	.st13{fill:none;stroke:#FB8604;stroke-width:2.5;stroke-linecap:round;stroke-linejoin:round;}
	.st14{fill:none;stroke:#FB8604;stroke-width:2.5;stroke-linecap:round;stroke-linejoin:round;stroke-dasharray:3.1455,5.2425;}
	.st15{fill:none;stroke:#FB8604;stroke-width:2.5;stroke-linecap:round;stroke-linejoin:round;stroke-dasharray:2.38,3.9667;}
	.st16{fill:none;stroke:#FB8604;stroke-width:2.5;stroke-linecap:round;stroke-linejoin:round;stroke-dasharray:2.2549,3.7582;}
	.st17{fill:none;stroke:#FB8604;stroke-width:2.5;stroke-linecap:round;stroke-linejoin:round;stroke-dasharray:2.4292,4.0487;}
	.st18{fill:none;stroke:#FB8604;stroke-width:2.5;stroke-linecap:round;stroke-linejoin:round;stroke-dasharray:2.9004,4.834;}
	.st19{fill:none;stroke:#FB8604;stroke-width:2.5;stroke-linecap:round;stroke-linejoin:round;stroke-dasharray:2.8406,4.7343;}
	.st20{fill:none;stroke:#FB8604;stroke-width:2.5;stroke-linecap:round;stroke-linejoin:round;stroke-dasharray:3.0022,5.0036;}
	.st21{fill:none;stroke:#FB8604;stroke-width:2.5;stroke-linecap:round;stroke-linejoin:round;stroke-dasharray:2.902,4.8366;}
	.st22{fill:none;stroke:#FB8604;stroke-width:2.5;stroke-linecap:round;stroke-linejoin:round;stroke-dasharray:2.9975,4.9958;}
	.st23{fill:none;stroke:#FB8604;stroke-width:2.5;stroke-linecap:round;stroke-linejoin:round;stroke-dasharray:3.0105,5.0175;}
	.st24{fill:none;stroke:#FB8604;stroke-width:2.5;stroke-linecap:round;stroke-linejoin:round;stroke-dasharray:2.1919,3.6532;}
	.st25{fill:none;stroke:#FB8604;stroke-width:2.5;stroke-linecap:round;stroke-linejoin:round;stroke-dasharray:2.5854,4.309;}
	.st26{fill:none;stroke:#FB8604;stroke-width:2.5;stroke-linecap:round;stroke-linejoin:round;stroke-dasharray:1.5937,2.6561;}
	.st27{fill:none;stroke:#FB8604;stroke-width:2.5;stroke-linecap:round;stroke-linejoin:round;stroke-dasharray:3.6573,6.0956;}
	.st28{fill:none;stroke:#FB8604;stroke-width:2.5;stroke-linecap:round;stroke-linejoin:round;stroke-dasharray:2.949,4.915;}
	.st29{fill:none;stroke:#FB8604;stroke-width:2.5;stroke-linecap:round;stroke-linejoin:round;stroke-dasharray:2.8177,4.6961;}
	.st30{fill:none;stroke:#FB8604;stroke-width:2.5;stroke-linecap:round;stroke-linejoin:round;stroke-dasharray:2.8606,4.7676;}
	.st31{fill:none;stroke:#FB8604;stroke-width:2.5;stroke-linecap:round;stroke-linejoin:round;stroke-dasharray:2.3915,3.9859;}
	.st32{fill:none;stroke:#FB8604;stroke-width:2.5;stroke-linecap:round;stroke-linejoin:round;stroke-dasharray:2.266,3.7767;}
	.st33{fill:none;stroke:#FB8604;stroke-width:2.5;stroke-linecap:round;stroke-linejoin:round;stroke-dasharray:2.441,4.0683;}
	.st34{fill:none;stroke:#FB8604;stroke-width:2.5;stroke-linecap:round;stroke-linejoin:round;stroke-dasharray:2.9122,4.8536;}
	.st35{fill:none;stroke:#FB8604;stroke-width:2.5;stroke-linecap:round;stroke-linejoin:round;stroke-dasharray:2.8522,4.7536;}
	.st36{fill:none;stroke:#FB8604;stroke-width:2.5;stroke-linecap:round;stroke-linejoin:round;stroke-dasharray:3.0069,5.0114;}
	.st37{fill:none;stroke:#FB8604;stroke-width:2.5;stroke-linecap:round;stroke-linejoin:round;stroke-dasharray:3.0029,5.0049;}
	.st38{fill:none;stroke:#FB8604;stroke-width:2.5;stroke-linecap:round;stroke-linejoin:round;stroke-dasharray:2.9464,4.9107;}
	.st39{fill:none;stroke:#FB8604;stroke-width:2.5;stroke-linecap:round;stroke-linejoin:round;stroke-dasharray:2.9635,4.9392;}
	.st40{fill:none;stroke:#FB8604;stroke-width:2.5;stroke-linecap:round;stroke-linejoin:round;stroke-dasharray:1.8274,3.0456;}
	.st41{fill:none;stroke:#FB8604;stroke-width:2.5;stroke-linecap:round;stroke-linejoin:round;stroke-dasharray:2.8261,4.7101;}
	.st42{fill:none;stroke:#FB8604;stroke-width:2.5;stroke-linecap:round;stroke-linejoin:round;stroke-dasharray:2.0201,3.3668;}
	.st43{fill:none;stroke:#FB8604;stroke-width:2.5;stroke-linecap:round;stroke-linejoin:round;stroke-dasharray:3.0195,5.0325;}
	.st44{fill:none;stroke:#FB8604;stroke-width:2.5;stroke-linecap:round;stroke-linejoin:round;stroke-dasharray:2.3062,3.8437;}
	.st45{fill:none;stroke:#FB8604;stroke-width:2.5;stroke-linecap:round;stroke-linejoin:round;stroke-dasharray:2.8758,4.793;}
	.st46{fill:none;stroke:#FB8604;stroke-width:2.5;stroke-linecap:round;stroke-linejoin:round;stroke-dasharray:3.1883,5.3139;}
	.st47{fill:none;stroke:#FB8604;stroke-width:2.5;stroke-linecap:round;stroke-linejoin:round;stroke-dasharray:2.9919,4.9865;}
	.st48{fill:none;stroke:#FB8604;stroke-width:2.5;stroke-linecap:round;stroke-linejoin:round;stroke-dasharray:2.9875,4.9792;}
	.st49{fill:none;stroke:#FB8604;stroke-width:2.5;stroke-linecap:round;stroke-linejoin:round;stroke-dasharray:3.0312,5.052;}
	.st50{fill:none;stroke:#FB8604;stroke-width:2.5;stroke-linecap:round;stroke-linejoin:round;stroke-dasharray:2.99,4.9834;}
	.st51{fill:none;stroke:#FB8604;stroke-width:2.5;stroke-linecap:round;stroke-linejoin:round;stroke-dasharray:2.9978,4.9963;}
	.st52{fill:none;stroke:#FB8604;stroke-width:2.5;stroke-linecap:round;stroke-linejoin:round;stroke-dasharray:2.9926,4.9877;}
	.st53{fill:none;stroke:#FB8604;stroke-width:2.5;stroke-linecap:round;stroke-linejoin:round;stroke-dasharray:2.5289,4.2148;}
	.st54{fill:none;stroke:#FB8604;stroke-width:2.5;stroke-linecap:round;stroke-linejoin:round;stroke-dasharray:2.3977,3.9962;}
	.st55{fill:none;stroke:#FB8604;stroke-width:2.5;stroke-linecap:round;stroke-linejoin:round;stroke-dasharray:2.5804,4.3007;}
	.st56{fill:none;stroke:#FB8604;stroke-width:2.5;stroke-linecap:round;stroke-linejoin:round;stroke-dasharray:3.0527,5.0878;}
	.st57{fill:none;stroke:#FB8604;stroke-width:2.5;stroke-linecap:round;stroke-linejoin:round;stroke-dasharray:2.9902,4.9837;}
	.st58{fill:none;stroke:#FB8604;stroke-width:2.5;stroke-linecap:round;stroke-linejoin:round;stroke-dasharray:2.9932,4.9887;}
	.st59{fill:none;stroke:#FB8604;stroke-width:2.5;stroke-linecap:round;stroke-linejoin:round;stroke-dasharray:2.2364,3.7274;}
	.st60{fill:none;stroke:#FB8604;stroke-width:2.5;stroke-linecap:round;stroke-linejoin:round;stroke-dasharray:2.117,3.5284;}
	.st61{fill:none;stroke:#FB8604;stroke-width:2.5;stroke-linecap:round;stroke-linejoin:round;stroke-dasharray:2.2826,3.8043;}
	.st62{fill:none;stroke:#FB8604;stroke-width:2.5;stroke-linecap:round;stroke-linejoin:round;stroke-dasharray:2.7537,4.5895;}
	.st63{fill:none;stroke:#FB8604;stroke-width:2.5;stroke-linecap:round;stroke-linejoin:round;stroke-dasharray:2.6967,4.4945;}
	.st64{fill:none;stroke:#FB8604;stroke-width:2.5;stroke-linecap:round;stroke-linejoin:round;stroke-dasharray:3.013,5.0216;}
	.st65{fill:none;stroke:#FB8604;stroke-width:2.5;stroke-linecap:round;stroke-linejoin:round;stroke-dasharray:3,5;}
	.st66{fill:none;stroke:#FB8604;stroke-width:2.5;stroke-linecap:round;stroke-linejoin:round;stroke-dasharray:2.8521,4.7535;}
	.st67{fill:none;stroke:#FB8604;stroke-width:2.5;stroke-linecap:round;stroke-linejoin:round;stroke-dasharray:3.015,5.025;}
	.st68{fill:none;stroke:#FB8604;stroke-width:2.5;stroke-linecap:round;stroke-linejoin:round;stroke-dasharray:2.0573,3.4289;}
	.st69{fill:none;stroke:#FB8604;stroke-width:2.5;stroke-linecap:round;stroke-linejoin:round;stroke-dasharray:2.4448,4.0747;}
	.st70{fill:none;stroke:#FB8604;stroke-width:2.5;stroke-linecap:round;stroke-linejoin:round;stroke-dasharray:3.4544,5.7574;}
	.st71{fill:none;stroke:#FB8604;stroke-width:2.5;stroke-linecap:round;stroke-linejoin:round;stroke-dasharray:2.7999,4.6666;}
	.st72{fill:none;stroke:#FB8604;stroke-width:2.5;stroke-linecap:round;stroke-linejoin:round;stroke-dasharray:2.6539,4.4232;}
	.st73{fill:none;stroke:#FB8604;stroke-width:2.5;stroke-linecap:round;stroke-linejoin:round;stroke-dasharray:2.9854,4.9756;}
	.st74{fill:none;stroke:#FB8604;stroke-width:2.5;stroke-linecap:round;stroke-linejoin:round;stroke-dasharray:2.9624,4.9373;}
	.st75{fill:none;stroke:#FB8604;stroke-width:2.5;stroke-linecap:round;stroke-linejoin:round;stroke-dasharray:3.0011,5.0019;}
	.st76{fill:none;stroke:#FB8604;stroke-width:2.5;stroke-linecap:round;stroke-linejoin:round;stroke-dasharray:2.9763,4.9605;}
	.st77{fill:none;stroke:#FB8604;stroke-width:2.5;stroke-linecap:round;stroke-linejoin:round;stroke-dasharray:2.752,4.5866;}
	.st78{fill:none;stroke:#FB8604;stroke-width:2.5;stroke-linecap:round;stroke-linejoin:round;stroke-dasharray:3.616,6.0267;}
	.st79{fill:none;stroke:#FB8604;stroke-width:2.5;stroke-linecap:round;stroke-linejoin:round;stroke-dasharray:2.9602,4.9336;}
	.st80{fill:none;stroke:#FB8604;stroke-width:2.5;stroke-linecap:round;stroke-linejoin:round;stroke-dasharray:3.4336,5.7227;}
	.st81{fill:none;stroke:#FB8604;stroke-width:2.5;stroke-linecap:round;stroke-linejoin:round;stroke-dasharray:1.9985,3.3309;}
	.st82{fill:none;stroke:#FB8604;stroke-width:2.5;stroke-linecap:round;stroke-linejoin:round;stroke-dasharray:2.4594,4.099;}
	.st83{fill:none;stroke:#FB8604;stroke-width:2.5;stroke-linecap:round;stroke-linejoin:round;stroke-dasharray:2.7161,4.5269;}
	.st84{fill:none;stroke:#FB8604;stroke-width:2.5;stroke-linecap:round;stroke-linejoin:round;stroke-dasharray:2.788,4.6466;}
	.st85{fill:none;stroke:#FB8604;stroke-width:2.5;stroke-linecap:round;stroke-linejoin:round;stroke-dasharray:2.041,3.4017;}
	.st86{fill:none;stroke:#FB8604;stroke-width:2.5;stroke-linecap:round;stroke-linejoin:round;stroke-dasharray:3.0618,5.1029;}
	.st87{fill:none;stroke:#FB8604;stroke-width:2.5;stroke-linecap:round;stroke-linejoin:round;stroke-dasharray:2.9346,4.891;}
	.st88{fill:none;stroke:#FB8604;stroke-width:2.5;stroke-linecap:round;stroke-linejoin:round;stroke-dasharray:3.0108,5.0181;}
	.st89{fill:none;stroke:#FB8604;stroke-width:2.5;stroke-linecap:round;stroke-linejoin:round;stroke-dasharray:2.9662,4.9436;}
	.st90{fill:none;stroke:#FB8604;stroke-width:2.5;stroke-linecap:round;stroke-linejoin:round;stroke-dasharray:3.0816,5.1361;}
	.st91{fill:none;stroke:#FB8604;stroke-width:2.5;stroke-linecap:round;stroke-linejoin:round;stroke-dasharray:2.9292,4.882;}
	.st92{fill:none;stroke:#FB8604;stroke-width:2.5;stroke-linecap:round;stroke-linejoin:round;stroke-dasharray:3.1434,5.239;}
	.st93{fill:none;stroke:#FB8604;stroke-width:2.5;stroke-linecap:round;stroke-linejoin:round;stroke-dasharray:2.9751,4.9584;}
	.st94{fill:none;stroke:#FB8604;stroke-width:2.5;stroke-linecap:round;stroke-linejoin:round;stroke-dasharray:2.9148,4.858;}
	.st95{fill:none;stroke:#FB8604;stroke-width:2.5;stroke-linecap:round;stroke-linejoin:round;stroke-dasharray:2.9955,4.9925;}
	.st96{fill:none;stroke:#FB8604;stroke-width:2.5;stroke-linecap:round;stroke-linejoin:round;stroke-dasharray:2.9503,4.9172;}
	.st97{fill:none;stroke:#FB8604;stroke-width:2.5;stroke-linecap:round;stroke-linejoin:round;stroke-dasharray:2.9995,4.9992;}
	.st98{fill:none;stroke:#FB8604;stroke-width:2.5;stroke-linecap:round;stroke-linejoin:round;stroke-dasharray:2.9952,4.992;}
	.st99{fill:none;stroke:#FB8604;stroke-width:2.5;stroke-linecap:round;stroke-linejoin:round;stroke-dasharray:2.9573,4.9289;}
	.st100{fill:none;stroke:#FB8604;stroke-width:2.5;stroke-linecap:round;stroke-linejoin:round;stroke-dasharray:2.4922,4.1537;}
	.st101{fill:none;stroke:#FB8604;stroke-width:2.5;stroke-linecap:round;stroke-linejoin:round;stroke-dasharray:2.3625,3.9376;}
	.st102{fill:none;stroke:#FB8604;stroke-width:2.5;stroke-linecap:round;stroke-linejoin:round;stroke-dasharray:2.5432,4.2386;}
	.st103{fill:none;stroke:#FB8604;stroke-width:2.5;stroke-linecap:round;stroke-linejoin:round;stroke-dasharray:3.0152,5.0253;}
	.st104{fill:none;stroke:#FB8604;stroke-width:2.5;stroke-linecap:round;stroke-linejoin:round;stroke-dasharray:2.9534,4.9224;}
	.st105{fill:none;stroke:#FB8604;stroke-width:2.5;stroke-linecap:round;stroke-linejoin:round;stroke-dasharray:3.0508,5.0846;}
	.st106{fill:none;stroke:#FB8604;stroke-width:2.5;stroke-linecap:round;stroke-linejoin:round;stroke-dasharray:3.0019,5.0032;}
	.st107{fill:none;stroke:#FB8604;stroke-width:2.5;stroke-linecap:round;stroke-linejoin:round;stroke-dasharray:2.8103,4.6838;}
	.st108{fill:none;stroke:#FB8604;stroke-width:2.5;stroke-linecap:round;stroke-linejoin:round;stroke-dasharray:2.9153,4.8589;}
	.st109{fill:none;stroke:#FB8604;stroke-width:2.5;stroke-linecap:round;stroke-linejoin:round;stroke-dasharray:2.6596,4.4327;}
	.st110{fill:none;stroke:#FB8604;stroke-width:2.5;stroke-linecap:round;stroke-linejoin:round;stroke-dasharray:2.0332,3.3886;}
	.st111{fill:none;stroke:#FB8604;stroke-width:2.5;stroke-linecap:round;stroke-linejoin:round;stroke-dasharray:3.0931,5.1552;}
	.st112{fill:none;stroke:#FB8604;stroke-width:2.5;stroke-linecap:round;stroke-linejoin:round;stroke-dasharray:3.0402,5.067;}
	.st113{fill:none;stroke:#FB8604;stroke-width:2.5;stroke-linecap:round;stroke-linejoin:round;stroke-dasharray:2.9774,4.9623;}
	.st114{fill:none;stroke:#FB8604;stroke-width:2.5;stroke-linecap:round;stroke-linejoin:round;stroke-dasharray:2.9698,4.9497;}
	.st115{fill:none;stroke:#FB8604;stroke-width:2.5;stroke-linecap:round;stroke-linejoin:round;stroke-dasharray:3.0558,5.093;}
	.st116{fill:none;stroke:#FB8604;stroke-width:2.5;stroke-linecap:round;stroke-linejoin:round;stroke-dasharray:2.5316,4.2194;}
	.st117{fill:none;stroke:#FB8604;stroke-width:2.5;stroke-linecap:round;stroke-linejoin:round;stroke-dasharray:1.5067,2.5112;}
	.st118{fill:none;stroke:#FB8604;stroke-width:2.5;stroke-linecap:round;stroke-linejoin:round;stroke-dasharray:2.4118,4.0197;}
	.st119{fill:none;stroke:#FB8604;stroke-width:2.5;stroke-linecap:round;stroke-linejoin:round;stroke-dasharray:1.6749,2.7915;}
	.st120{fill:none;stroke:#FB8604;stroke-width:2.5;stroke-linecap:round;stroke-linejoin:round;stroke-dasharray:2.5801,4.3001;}
	.st121{fill:none;stroke:#FB8604;stroke-width:2.5;stroke-linecap:round;stroke-linejoin:round;stroke-dasharray:1.9241,3.2069;}
	.st122{fill:none;stroke:#FB8604;stroke-width:2.5;stroke-linecap:round;stroke-linejoin:round;stroke-dasharray:2.8201,4.7001;}
	.st123{fill:none;stroke:#FB8604;stroke-width:2.5;stroke-linecap:round;stroke-linejoin:round;stroke-dasharray:3.181,5.3016;}
	.st124{fill:none;stroke:#FB8604;stroke-width:1.5;stroke-linecap:round;stroke-linejoin:round;stroke-miterlimit:10;}
	.st125{fill:none;stroke:#FB8604;stroke-width:2.75;stroke-linecap:round;stroke-linejoin:round;stroke-miterlimit:10;}
	.st126{fill:none;stroke:#FB8604;stroke-width:2.25;stroke-linecap:round;stroke-linejoin:round;stroke-miterlimit:10;}
	.st127{fill:none;stroke:#FB8604;stroke-width:3.5;stroke-linecap:round;stroke-linejoin:round;stroke-miterlimit:10;}
	.st128{fill:none;stroke:#FB8604;stroke-width:3;stroke-linecap:round;stroke-linejoin:round;stroke-miterlimit:10;}
</style>
<metadata>
	<sfw  xmlns="&ns_sfw;">
		<slices></slices>
		<sliceSourceBounds  bottomLeftOrigin="true" height="9750" width="5207.29" x="-2000" y="-1314"></sliceSourceBounds>
	</sfw>
</metadata>
<g id="FILL-BACKGROUND">
	<rect class="st0" width="750" height="750"/>
</g>
<g id="N-DIMENSIONS">
</g>
<g id="N-TEXT">
</g>
<g id="_x32_D_x24_AG-DETAILS-DIAGRAM">
</g>
<g id="_x32_D_x24_AG-DETAILS">
	<g id="POLYLINE_00000132767692843938937200000005663451009293675406_">
		<path class="st2" d="M269.5,410.93c-0.55-1.4-0.84-2.92-0.73-4.42c0.07-0.81,0.28-1.64,0.81-2.28c0.38-0.46,0.89-0.79,1.44-1.01
			c0.91-0.36,1.91-0.45,2.88-0.44c1.78,0.03,3.75,0.53,5.53,0.59c1.32,0.06,2.65-0.14,3.9-0.57c2.81-0.92,5.51-2.63,8.38-3.37
			c0.56-0.13,1.13-0.22,1.7-0.21c0.67,0,1.34,0.13,1.99,0.33c1.26,0.39,2.57,1.1,3.79,1.6c1.25,0.52,2.58,0.91,3.91,1.16
			c1.16,0.21,2.35,0.34,3.52,0.28c0.84-0.04,1.68-0.19,2.45-0.54c0.81-0.37,1.49-0.97,2.03-1.67c0.81-1.06,1.35-2.38,2.31-3.32
			c0.3-0.29,0.64-0.54,1.01-0.72c0.93-0.44,1.98-0.54,2.99-0.62c2.15-0.11,4.77-0.14,6.84-0.71c1.76-0.45,3.47-1.16,5.06-2.06
			c1.52-0.86,2.94-1.93,4.15-3.19c0.84-0.86,1.77-1.96,2.78-2.59c0.46-0.29,0.98-0.47,1.52-0.54c0.6-0.08,1.22-0.05,1.83,0.02
			c1.09,0.13,2.78,0.51,3.88,0.69c3.28,0.58,6.7,0.24,9.83-0.87c2.36-0.81,4.98-2.37,7.2-3.52c1.1-0.56,2.24-1.09,3.42-1.45
			c1.32-0.4,2.72-0.61,4.1-0.51c0.6,0.04,1.2,0.14,1.78,0.31c0.59,0.17,1.18,0.43,1.73,0.69c1.16,0.55,2.45,1.32,3.77,1.22
			c0.8-0.04,1.65-0.27,2.44-0.3c0.89-0.05,1.84,0.28,2.39,1.01c0.2,0.27,0.34,0.59,0.37,0.93c0.04,0.34-0.02,0.69-0.12,1.02
			c-0.23,0.73-0.63,1.39-1.06,2.02c-0.6,0.87-1.31,1.71-2.02,2.5c-0.43,0.48-1.32,1.39-1.67,1.9c-0.2,0.28-0.36,0.58-0.45,0.91
			c-0.09,0.34-0.07,0.69-0.02,1.04c0.2,1.25,0.67,2.5,0.57,3.78c-0.08,1.32-0.86,2.47-1.71,3.43c-1.12,1.24-2.46,2.27-3.85,3.19
			c-1.02,0.68-2.43,1.41-3.42,2.14c-0.89,0.66-1.68,1.46-2.42,2.29c-1.03,1.16-2,2.43-2.83,3.74c-0.81,1.26-1.4,2.67-1.82,4.11
			c-0.22,0.74-0.38,1.55-0.15,2.31c0.27,0.91,1.04,1.59,1.77,2.16c1.4,1.03,2.98,1.8,4.58,2.45c1.38,0.54,2.86,0.88,4.35,0.94
			c1.72,0.07,3.55-0.08,5.22,0.42c0.83,0.25,1.58,0.71,2.29,1.21c1.17,0.82,2.38,1.89,3.8,2.19c0.7,0.16,1.42,0.07,2.1-0.13
			c0.77-0.23,1.5-0.59,2.21-0.96c1.67-0.89,3.42-2.09,5.19-2.76c0.55-0.2,1.12-0.35,1.71-0.37c0.52-0.01,1.04,0.09,1.52,0.28
			c0.95,0.38,1.76,1.05,2.52,1.73c1.23,1.14,2.54,2.4,3.94,3.33c1.15,0.78,2.37,1.47,3.64,2.03c0.88,0.4,2.02,0.75,2.94,1.04
			c1.48,0.47,2.82,1.29,4.07,2.19c1.46,1.07,2.84,2.29,3.99,3.69"/>
	</g>
</g>
<g id="_x32_D_x24_AG-ANIMALS">
	<g id="POLYLINE_00000036228135789120609000000002916449408143759746_">
		<path class="st125" d="M664.43,376.27c-0.32,0.07-0.66,0.06-0.97-0.02c-0.33-0.09-0.64-0.27-0.91-0.47c-0.4-0.31-0.77-0.7-1-1.16
			c-0.11-0.23-0.19-0.48-0.2-0.73c-0.01-0.35,0.12-0.75,0.2-1.09c0.08-0.32,0.13-0.67,0.04-0.99c-0.16-0.52-0.65-0.92-1.06-1.24
			c-0.92-0.69-2.25-1.33-3.25-1.92c-0.18-0.11-0.36-0.23-0.53-0.36c-0.17-0.13-0.32-0.29-0.42-0.48c-0.09-0.17-0.14-0.37-0.13-0.56
			c0.01-0.61,0.31-1.32,0.48-1.91c0.18-0.6,0.28-1.13,0.21-1.76c-0.07-0.65-0.23-1.32,0-1.95c0.31-0.88,1.01-1.61,1.87-1.95
			c1.24-0.48,2.67-0.26,3.96-0.45c0.6-0.09,1.21-0.29,1.64-0.72c0.54-0.52,0.9-1.27,1.51-1.72c0.29-0.22,0.64-0.33,0.99-0.38
			c0.53-0.07,1.08-0.03,1.61,0.05c0.97,0.17,1.95,0.35,2.85,0.75c0.95,0.43,1.9,1.14,2.9,1.47c0.67,0.22,1.49,0.32,2.17,0.48
			c0.52,0.12,1.04,0.29,1.51,0.55c0.42,0.24,0.81,0.56,1.03,1c0.2,0.41,0.26,0.88,0.25,1.33c-0.01,0.94-0.31,1.89-0.59,2.78
			c-0.18,0.55-0.2,1.17-0.29,1.74c-0.08,0.52-0.26,1.06-0.66,1.42c-1.45,1.33-3.96,1.35-4.92,3.25c-0.35,0.68-0.51,1.48-1.02,2.06
			c-0.35,0.4-0.85,0.62-1.34,0.79c-0.74,0.25-1.61,0.33-2.36,0.55c-0.69,0.2-1.45,0.7-2.08,1.04
			C665.44,375.91,664.95,376.16,664.43,376.27z"/>
	</g>
	<g id="POLYLINE_00000027582606548123444770000002873382383446942911_">
		<path class="st125" d="M647.62,368.24c-0.27,0.11-0.56,0.16-0.85,0.13c-0.44-0.04-0.85-0.21-1.24-0.4
			c-0.98-0.51-1.97-1.07-2.69-1.93c-0.42-0.51-0.7-1.14-0.74-1.79c-0.02-0.3,0.03-0.63,0.2-0.88c0.1-0.14,0.24-0.24,0.39-0.3
			c0.52-0.21,1.12-0.18,1.66-0.33c0.51-0.12,0.9-0.5,1.34-0.77c0.25-0.15,0.52-0.24,0.81-0.27c0.59-0.06,1.24,0.07,1.66,0.52
			c0.45,0.49,0.55,1.21,0.68,1.84c0.05,0.22,0.1,0.44,0.19,0.64c0.07,0.17,0.21,0.36,0.31,0.51c0.09,0.14,0.17,0.3,0.2,0.47
			c0.03,0.16,0.01,0.33-0.04,0.48c-0.14,0.45-0.42,0.85-0.73,1.21C648.44,367.72,648.07,368.05,647.62,368.24z"/>
	</g>
	<g id="POLYLINE_00000070100538693388476460000018014388744122886808_">
		<path class="st125" d="M637.65,369.92c-0.31,0.03-0.63-0.01-0.93-0.13c-0.37-0.14-0.7-0.38-1.01-0.64
			c-0.29-0.25-0.55-0.55-0.67-0.92c-0.13-0.38-0.1-0.83,0.1-1.18c0.06-0.1,0.14-0.2,0.24-0.26c0.1-0.07,0.22-0.11,0.33-0.13
			c0.41-0.08,0.87-0.03,1.24-0.26c0.41-0.24,0.68-0.7,1.12-0.89c0.17-0.07,0.36-0.07,0.54-0.03c0.27,0.06,0.52,0.2,0.73,0.37
			c0.45,0.35,0.76,0.85,0.94,1.39c0.1,0.33,0.19,0.69,0.09,1.02c-0.11,0.4-0.45,0.68-0.78,0.91
			C639.02,369.57,638.35,369.85,637.65,369.92z"/>
	</g>
	<g id="POLYLINE_00000071558707912813921100000010058018897895352708_">
		<path class="st125" d="M605.49,376.12c-0.28-0.3-0.7-0.41-1.1-0.43c-0.71-0.02-1.44,0.24-1.9,0.79c-0.26,0.31-0.44,0.7-0.46,1.1
			c-0.02,0.37,0.14,0.74,0.41,0.99c0.26,0.23,0.61,0.34,0.95,0.37c0.54,0.03,1.1-0.11,1.56-0.41c0.48-0.31,0.78-0.85,0.83-1.41
			C605.81,376.77,605.73,376.39,605.49,376.12z"/>
	</g>
	<g id="POLYLINE_00000162341949760767504490000004231116578103012011_">
		<path class="st125" d="M627.76,368.8c-0.27-0.42-0.82-0.53-1.29-0.48c-0.44,0.05-0.88,0.25-1.17,0.59
			c-0.1,0.12-0.17,0.25-0.23,0.4c-0.1,0.24-0.17,0.57-0.24,0.82c-0.06,0.21-0.17,0.58-0.24,0.79c-0.11,0.36-0.21,0.76-0.1,1.13
			c0.12,0.41,0.49,0.68,0.86,0.84c0.37,0.16,0.79,0.23,1.19,0.15c0.53-0.11,1.01-0.47,1.26-0.95c0.2-0.37,0.13-0.83,0.12-1.24
			c-0.01-0.26,0.01-0.67,0.02-0.93C627.95,369.54,627.96,369.13,627.76,368.8z"/>
	</g>
	<g id="POLYLINE_00000156546805394695191190000005976920612259550383_">
		<path class="st125" d="M615.54,373.7c-0.11-0.26-0.3-0.5-0.54-0.67c-0.25-0.18-0.56-0.27-0.86-0.32
			c-0.49-0.08-0.99-0.07-1.47,0.05c-0.35,0.09-0.72,0.25-0.91,0.57c-0.24,0.38-0.28,0.86-0.45,1.26c-0.17,0.45-0.56,0.82-0.83,1.21
			c-0.08,0.12-0.15,0.26-0.17,0.41c-0.01,0.1,0.01,0.2,0.06,0.29c0.07,0.14,0.19,0.26,0.31,0.37c0.22,0.18,0.48,0.33,0.74,0.45
			c0.34,0.15,0.69,0.27,1.06,0.35c0.27,0.05,0.55,0.07,0.81,0.02c0.21-0.04,0.42-0.14,0.56-0.3c0.27-0.3,0.37-0.73,0.6-1.06
			c0.16-0.24,0.44-0.35,0.69-0.48c0.14-0.07,0.28-0.16,0.38-0.28c0.1-0.13,0.16-0.28,0.19-0.44
			C615.8,374.66,615.73,374.15,615.54,373.7z"/>
	</g>
	<g id="POLYLINE_00000024000299631063141740000010473182924228082075_">
		<path class="st125" d="M596.97,379.65c-0.18-0.16-0.41-0.26-0.64-0.32c-0.45-0.11-0.93-0.09-1.39-0.08
			c-0.37,0.02-0.78,0.05-1.1,0.26c-0.13,0.09-0.24,0.2-0.33,0.33c-0.19,0.28-0.35,0.65-0.52,0.95c-0.15,0.28-0.34,0.55-0.59,0.76
			c-0.3,0.27-0.71,0.46-1.01,0.73c-0.11,0.1-0.2,0.23-0.23,0.39c-0.06,0.36,0.16,0.74,0.34,1.03c0.26,0.39,0.62,0.84,1.02,1.08
			c0.22,0.13,0.47,0.21,0.72,0.27c0.36,0.08,0.73,0.12,1.09,0.12c0.24,0,0.48-0.03,0.71-0.11c0.12-0.05,0.24-0.11,0.33-0.21
			c0.25-0.31,0.16-0.82,0.25-1.19c0.05-0.26,0.22-0.47,0.43-0.62c0.32-0.25,0.7-0.44,0.97-0.75c0.16-0.18,0.29-0.39,0.37-0.62
			c0.1-0.3,0.11-0.62,0.07-0.93C597.42,380.34,597.27,379.93,596.97,379.65z"/>
	</g>
	<g id="POLYLINE_00000078754431171197496460000016491895077376983990_">
		<line class="st125" x1="619.61" y1="324.17" x2="609.89" y2="322.36"/>
	</g>
	<g id="POLYLINE_00000027606090286732132120000011348007860198911377_">
		<line class="st125" x1="645.67" y1="329.13" x2="623.49" y2="324.91"/>
	</g>
	<g id="POLYLINE_00000103238411143442686810000016171518328868652932_">
		<path class="st125" d="M603.33,321.24c-2.23-0.35-5.52-0.81-7.68-1.33"/>
	</g>
	<g id="POLYLINE_00000096045319772082124210000010157003851245096358_">
		<line class="st125" x1="588.82" y1="317.87" x2="577.63" y2="313.93"/>
	</g>
	<g id="POLYLINE_00000008858138145986543740000016864790911724890278_">
		<path class="st125" d="M555.1,310.47c-1.76,0.37-3.59,0.76-5.4,0.81c-1.11,0.03-2.25-0.08-3.3-0.46"/>
	</g>
	<g id="POLYLINE_00000070809221934275423940000004600822155058749114_">
		<path class="st125" d="M534.16,308.54c-2.25,0.21-8.24,1.08-10.56,1.39c-4.33,0.58-8.81,0.81-13.18,0.75
			c-3.03-0.02-6.96-0.22-10-0.39c-22.7-1.62-59.5-2.15-82.28-3.25c-18.97-1.05-49.49-3.31-68.04-2.83
			c-28.78,0.39-63.61,3.42-92.48,5.81c-5.95,0.57-13.39,1.34-19.28,2.17c-12.75,1.76-25.75,4.53-38.21,7.75
			c-12.6,3.27-25.63,7.24-37.85,11.74c-9.49,3.52-19.03,7.56-27.84,12.55c-9.61,5.35-18.72,12.19-27.35,19"/>
	</g>
	<g id="POLYLINE_00000026867084547856185820000012222394544782849417_">
		<path class="st125" d="M543.38,313.04c-0.67,0.2-1.4,0.18-2.08,0.08c-0.43-0.07-0.85-0.19-1.24-0.4c-0.32-0.18-0.59-0.43-0.84-0.7
			c-0.33-0.37-0.69-0.82-1.13-1.07c-0.69-0.39-1.51-0.57-2.21-0.93c-0.45-0.22-0.86-0.52-1.22-0.87c-0.24-0.24-0.48-0.51-0.61-0.83
			c-0.06-0.14-0.09-0.3-0.04-0.45c0.05-0.15,0.17-0.25,0.31-0.33c0.2-0.11,0.44-0.17,0.66-0.2c0.69-0.1,1.52,0.06,2.21,0.13
			c0.29,0.03,0.59,0.06,0.88,0.05c0.36-0.01,0.82-0.09,1.18-0.14c0.33-0.05,0.67-0.07,1-0.02c0.58,0.09,1.27,0.41,1.82,0.61
			c0.44,0.18,0.92,0.29,1.39,0.34c0.37,0.05,0.81,0.07,1.16,0.18c0.26,0.08,0.5,0.19,0.72,0.33c0.25,0.16,0.49,0.34,0.72,0.53
			c0.17,0.16,0.33,0.35,0.38,0.58c0.07,0.27,0.02,0.57-0.05,0.83c-0.11,0.35-0.28,0.68-0.55,0.93c-0.31,0.29-0.74,0.39-1.12,0.54
			c-0.14,0.05-0.27,0.12-0.4,0.21C544.04,312.68,543.74,312.92,543.38,313.04z"/>
	</g>
	<g id="POLYLINE_00000158013421367447741500000017434952610790203021_">
		<path class="st125" d="M593.77,320.76c-0.38-0.04-1.01-0.03-1.4-0.04c-0.36-0.01-0.74-0.01-1.06-0.18
			c-0.23-0.12-0.4-0.33-0.49-0.57c-0.09-0.24-0.11-0.54-0.32-0.72c-0.06-0.05-0.13-0.08-0.19-0.1c-0.28-0.09-0.58-0.09-0.86-0.17
			c-0.22-0.06-0.43-0.2-0.55-0.4c-0.15-0.23-0.18-0.54-0.05-0.79c0.13-0.25,0.37-0.44,0.62-0.57c0.3-0.15,0.65-0.21,0.98-0.12
			c0.56,0.16,0.99,0.61,1.52,0.83c0.38,0.15,0.79,0.18,1.19,0.18c0.38,0,0.81-0.02,1.18,0.06c0.36,0.08,0.71,0.23,1.03,0.42
			c0.14,0.09,0.27,0.19,0.38,0.31c0.06,0.08,0.11,0.17,0.12,0.26c0.01,0.24-0.14,0.46-0.2,0.69c-0.07,0.22-0.07,0.47-0.12,0.7
			c-0.02,0.09-0.05,0.18-0.11,0.25c-0.05,0.06-0.13,0.09-0.2,0.11c-0.08,0.02-0.17,0.02-0.25,0.02
			C594.6,320.9,594.15,320.79,593.77,320.76z"/>
	</g>
	<g id="POLYLINE_00000183228391785621275150000007875302820492722568_">
		<path class="st125" d="M626.2,329.59c-0.53-0.35-0.87-1.21-0.4-1.73c0.1-0.1,0.22-0.18,0.36-0.22c0.35-0.1,0.75-0.06,1.11-0.05
			c0.45,0.02,0.93-0.1,1.37-0.13c0.48-0.03,0.97,0.01,1.42,0.17c0.2,0.08,0.4,0.19,0.52,0.37c0.13,0.19,0.17,0.43,0.1,0.65
			c-0.04,0.14-0.14,0.27-0.28,0.33c-0.13,0.06-0.27,0.07-0.41,0.08c-0.36,0.01-0.75-0.06-1.11,0.04c-0.64,0.17-1.27,0.58-1.94,0.66
			C626.7,329.77,626.42,329.73,626.2,329.59z"/>
	</g>
	<g id="POLYLINE_00000152224433910795137120000008646403408928293039_">
		<path class="st125" d="M622.46,326.47c-0.8-0.02-1.62-0.1-2.4-0.34c-0.19-0.06-0.39-0.15-0.54-0.29c-0.2-0.19-0.25-0.48-0.24-0.75
			c0.01-0.41,0.15-0.85,0.5-1.09c0.3-0.22,0.7-0.28,1.04-0.41c0.16-0.06,0.35-0.15,0.51-0.2c0.08-0.02,0.16-0.04,0.24-0.04
			c0.24,0.01,0.46,0.25,0.67,0.35c0.37,0.2,0.96,0.16,1.15,0.61c0.11,0.28,0.1,0.59,0.09,0.89c-0.01,0.18-0.06,0.65-0.08,0.83
			c-0.01,0.04-0.01,0.09-0.03,0.13c-0.02,0.05-0.05,0.1-0.09,0.14c-0.06,0.06-0.15,0.09-0.23,0.11
			C622.86,326.47,622.66,326.47,622.46,326.47z"/>
	</g>
	<g id="POLYLINE_00000072242853227482593430000017976232205929048708_">
		<path class="st125" d="M608.69,324.57c0.02,0.13,0.07,0.47,0.09,0.6c0.04,0.27,0.09,0.59-0.01,0.86
			c-0.05,0.12-0.15,0.21-0.27,0.26c-0.13,0.06-0.27,0.08-0.41,0.1c-0.29,0.03-0.6,0.03-0.9,0.03c-0.53-0.01-1.1-0.05-1.57-0.33
			c-0.26-0.16-0.44-0.42-0.56-0.7c-0.21-0.47-0.23-1.04-0.43-1.48c-0.11-0.25-0.32-0.45-0.53-0.63c-0.3-0.26-0.71-0.53-0.87-0.9
			c-0.19-0.44-0.06-0.96,0.22-1.34c0.28-0.39,0.71-0.7,1.2-0.75c0.43-0.03,0.86,0.12,1.25,0.28c0.45,0.17,1.02,0.46,1.5,0.52
			c0.26,0.03,0.53-0.04,0.78-0.1c0.18-0.05,0.38-0.07,0.56-0.01c0.32,0.1,0.58,0.33,0.81,0.57c0.18,0.2,0.35,0.46,0.33,0.74
			c-0.01,0.15-0.09,0.29-0.18,0.41c-0.23,0.3-0.55,0.55-0.79,0.84c-0.11,0.13-0.19,0.28-0.23,0.44
			C608.65,324.16,608.66,324.37,608.69,324.57z"/>
	</g>
	<g id="POLYLINE_00000026122927281466531200000012387003343623458438_">
		<path class="st125" d="M646.87,336.15c2.17,1.15,4.29,2.56,6.29,3.99l10.29,7.65c5.29,3.76,10.77,7.55,16.63,10.35
			c1.28,0.59,2.61,1.14,3.98,1.47c0.81,0.19,1.66,0.3,2.48,0.15c0.4-0.08,0.82-0.24,1.08-0.58c0.22-0.29,0.22-0.67,0.13-1.01
			c-0.15-0.55-0.46-1.04-0.76-1.51c-0.3-0.45-0.67-0.93-1-1.35c-2.42-3.01-5.84-7.54-8.22-10.57"/>
	</g>
	<g id="POLYLINE_00000064331749761165829950000002300552781916520612_">
		<path class="st125" d="M530.37,400.42c3.49-0.05,6.93-1.12,9.99-2.77c1.91-1.05,3.69-2.54,4.57-4.57c0.47-1.08,0.7-2.26,0.81-3.42
			c0.3-3.18-0.22-7.5-0.4-10.72c-0.22-3.86-0.23-7.8,0.28-11.64c0.36-2.73,0.99-5.46,2.08-8c1.23-2.91,3.11-5.54,5.44-7.67"/>
	</g>
	<g id="POLYLINE_00000067920376747176410490000008883623157904345237_">
		<path class="st125" d="M553.14,351.63c0.02,0.7,0.43,1.34,0.97,1.75c0.4,0.31,0.92,0.5,1.43,0.35c0.26-0.07,0.5-0.22,0.71-0.39
			c0.47-0.39,0.94-1.03,1.35-1.5c0.32-0.38,0.66-0.76,1.09-1.02c0.51-0.33,1.21-0.51,1.78-0.7c0.82-0.28,1.64-0.62,2.35-1.1
			c0.32-0.21,0.59-0.52,0.89-0.76c0.33-0.28,0.73-0.44,1.15-0.54c0.67-0.16,1.4-0.22,2.08-0.27c1.69-0.15,4.13-0.15,5.75-0.62
			c0.3-0.09,0.59-0.23,0.84-0.42c0.22-0.16,0.41-0.37,0.58-0.58c0.27-0.36,0.57-0.74,0.91-1.03c0.47-0.42,1.02-0.77,1.62-0.98
			c0.85-0.31,2.09-0.37,2.99-0.48c1.03-0.12,2.05-0.38,3.02-0.72c0.72-0.26,1.44-0.56,2.09-0.97c0.28-0.18,0.58-0.4,0.89-0.53
			c0.23-0.11,0.49-0.18,0.74-0.22c0.35-0.06,0.71-0.08,1.06-0.09c1.59-0.03,3.57,0.13,5.15,0.06c0.77-0.04,1.57-0.1,2.26-0.48
			c0.57-0.3,0.97-0.84,1.45-1.25c0.56-0.49,1.25-0.82,1.97-0.98c1.67-0.37,3.53-0.18,5.22-0.16c0.45,0,0.92-0.03,1.36-0.16
			c0.31-0.09,0.6-0.24,0.87-0.41c0.45-0.28,0.94-0.66,1.48-0.74c0.26-0.04,0.52-0.03,0.78,0c0.73,0.1,1.88,0.52,2.59,0.73
			c1.47,0.44,3.04,0.8,4.57,0.45c1.15-0.26,2.31-1.01,3.34-1.57c0.32-0.17,0.66-0.34,1.02-0.43c0.28-0.07,0.57-0.09,0.86-0.05
			c0.5,0.05,1.12,0.29,1.6,0.45c0.55,0.18,1.12,0.33,1.69,0.37c1.28,0.1,2.58-0.39,3.85-0.43c0.36-0.01,0.72,0.02,1.07,0.13
			c0.37,0.12,0.71,0.34,1.03,0.57l0.61,0.46c0.35,0.26,0.73,0.51,1.17,0.57c0.54,0.07,1.06-0.13,1.55-0.33l0.83-0.37
			c0.32-0.13,0.66-0.27,1.01-0.27c0.2,0,0.39,0.07,0.57,0.16c0.32,0.17,0.64,0.45,0.94,0.65c0.31,0.21,0.65,0.37,0.99,0.51
			c0.7,0.27,1.45,0.45,2.2,0.44c0.26-0.01,0.52-0.04,0.76-0.14c0.18-0.07,0.34-0.19,0.49-0.32c0.28-0.26,0.56-0.55,0.95-0.63
			c0.18-0.04,0.38-0.05,0.56-0.05c0.8,0.02,1.85,0.27,2.64,0.4c0.41,0.06,0.83,0.15,1.24,0.09c0.11-0.02,0.23-0.07,0.31-0.15
			c0.22-0.2,0.27-0.59,0.35-0.87c0.09-0.41,0.16-0.84,0.12-1.27c-0.02-0.23-0.09-0.46-0.22-0.64c-0.12-0.16-0.28-0.28-0.45-0.38
			c-0.62-0.33-1.46-0.5-2.17-0.87l-1.09-0.55c-0.4-0.19-0.81-0.37-1.24-0.48c-0.4-0.1-0.81-0.12-1.22-0.13
			c-0.41-0.01-0.95,0.01-1.35-0.05c-0.22-0.03-0.44-0.1-0.66-0.17l-0.55-0.21c-0.91-0.32-1.9-0.43-2.86-0.55
			c-1.66-0.17-3.41-0.39-5.08-0.29c-0.4,0.03-0.94,0.08-1.34,0.08c-0.38,0-0.8-0.03-1.18-0.06c-0.54-0.05-1.27-0.16-1.81-0.17
			c-0.43-0.01-0.87,0.04-1.29,0.11c-0.68,0.09-1.88,0.35-2.56,0.4c-0.3,0.03-0.6,0.02-0.9-0.02c-2.08-0.3-4.48-1.19-6.56-1.48
			c-0.42-0.05-0.86-0.06-1.28,0c-0.4,0.06-0.79,0.21-1.16,0.37c-0.68,0.31-1.43,0.67-2.16,0.8c-1.29,0.27-2.99,0.21-4.31,0.24
			c-0.73,0.02-1.48,0.05-2.19,0.22c-0.43,0.1-0.84,0.3-1.2,0.56c-0.41,0.3-0.74,0.7-1.25,0.84c-0.83,0.25-1.71,0.38-2.57,0.5
			c-1.32,0.19-3,0.21-4.34,0.24c-0.52,0.02-1.05,0.05-1.56,0.16c-0.32,0.06-0.62,0.19-0.89,0.36l-0.34,0.23
			c-0.2,0.13-0.43,0.24-0.66,0.3c-0.49,0.13-1.01,0.12-1.52,0.12c-1.35-0.01-2.88-0.15-4.18,0.21c-0.61,0.17-1.18,0.47-1.7,0.83
			c-0.34,0.24-0.66,0.52-0.96,0.8c-0.23,0.21-0.55,0.53-0.81,0.71c-0.25,0.18-0.55,0.29-0.85,0.37c-0.53,0.14-1.1,0.21-1.65,0.27
			l-1.06,0.1c-0.44,0.05-0.88,0.12-1.28,0.32c-0.61,0.3-1.19,0.75-1.83,1c-1.12,0.45-2.39,0.6-3.58,0.78
			c-0.56,0.08-1.1,0.25-1.62,0.49c-0.38,0.17-0.75,0.38-1.08,0.64c-0.3,0.23-0.5,0.61-0.84,0.81c-0.36,0.21-0.82,0.19-1.23,0.19
			c-0.61-0.01-1.42-0.07-2.02,0.06c-0.21,0.04-0.42,0.12-0.59,0.25c-0.41,0.3-0.61,0.79-0.91,1.18c-0.32,0.44-0.84,0.66-1.33,0.83
			c-0.4,0.14-0.91,0.29-1.29,0.48c-0.44,0.21-1.02,0.61-1.43,0.87c-0.11,0.07-0.55,0.34-0.68,0.42c-0.25,0.16-0.5,0.33-0.7,0.55
			l-0.25,0.27c-0.36,0.4-0.89,0.55-1.38,0.77c-0.35,0.15-0.7,0.33-1.01,0.55c-0.4,0.29-0.74,0.66-1.02,1.07
			C553.35,350.54,553.12,351.07,553.14,351.63z"/>
	</g>
	<g id="POLYLINE_00000098906187990445661570000012586081965197128321_">
		<path class="st125" d="M542.36,374.73c0.34,0.52,0.65,1.11,0.65,1.75c0,0.39-0.14,0.76-0.28,1.11c-0.25,0.6-0.52,1.24-0.54,1.9
			c-0.04,0.55,0.01,1.19-0.07,1.74c-0.04,0.22-0.1,0.45-0.22,0.64c-0.13,0.21-0.34,0.35-0.57,0.45c-0.49,0.21-1.03,0.26-1.55,0.3
			c-0.69,0.06-1.55,0.06-2.21,0.29c-0.31,0.11-0.6,0.28-0.85,0.51c-0.42,0.4-0.76,0.94-1.17,1.36c-0.31,0.33-0.68,0.61-1.1,0.77
			c-0.94,0.32-2.13,0.16-3.11,0.15c-0.47-0.01-0.94,0-1.4,0.11c-0.34,0.08-0.65,0.23-0.94,0.42c-0.51,0.33-0.94,0.81-1.47,1.12
			c-0.83,0.48-1.8,0.59-2.74,0.64c-0.6,0.02-1.22,0.01-1.82-0.09c-0.37-0.06-0.75-0.15-1.09-0.32c-0.37-0.18-0.71-0.45-0.91-0.81
			c-0.16-0.27-0.21-0.58-0.22-0.89c-0.01-0.35,0.01-0.73-0.11-1.06c-0.21-0.58-0.72-1.13-1.09-1.62c-0.62-0.83-1.17-1.81-1.17-2.88
			c0.01-0.81,0.34-1.57,0.72-2.27c0.26-0.47,0.6-1.02,0.77-1.53c0.13-0.38,0.19-0.78,0.21-1.17c0.05-0.61,0.05-1.38,0.22-1.97
			c0.06-0.22,0.15-0.43,0.3-0.61c0.32-0.4,0.84-0.55,1.32-0.69c0.52-0.14,1.11-0.26,1.57-0.53c0.5-0.28,0.91-0.68,1.28-1.11
			c0.33-0.38,0.7-0.88,1.1-1.19c0.25-0.2,0.53-0.37,0.83-0.48c0.74-0.27,1.54-0.32,2.31-0.24c0.44,0.05,0.88,0.15,1.29,0.33
			c0.34,0.15,0.65,0.37,0.94,0.6c0.31,0.25,0.65,0.55,1.02,0.7c0.58,0.22,1.26,0.11,1.85,0.23c1.02,0.19,1.84,0.91,2.55,1.62
			c0.21,0.2,0.44,0.39,0.72,0.49c0.62,0.22,1.42,0.13,2.07,0.26c0.77,0.15,1.49,0.51,2.09,1.01
			C541.87,374.05,542.13,374.38,542.36,374.73z"/>
	</g>
	<g id="POLYLINE_00000073717670991687567310000011869752531034417568_">
		<path class="st125" d="M587.62,325.44c-0.17,0.28-0.46,0.45-0.75,0.56c-0.7,0.25-1.46,0.25-2.19,0.2
			c-0.44-0.04-0.88-0.11-1.29-0.28c-0.11-0.05-0.23-0.12-0.3-0.23l0,0l0,0l0,0l0,0l0,0l0,0l0,0l0,0l0,0l0,0
			c-0.03-0.07-0.02-0.15,0-0.22c0.07-0.23,0.23-0.44,0.25-0.68c0.03-0.26-0.11-0.51-0.23-0.73c-0.15-0.27-0.36-0.55-0.41-0.85
			c-0.02-0.13,0.01-0.27,0.09-0.38c0.09-0.13,0.23-0.23,0.37-0.3c0.7-0.35,1.56-0.18,2.31-0.12c0.33,0.04,0.56,0.01,0.87,0
			c0.1,0,0.21,0.02,0.3,0.07c0.31,0.16,0.54,0.54,0.7,0.84c0.21,0.42,0.39,0.87,0.44,1.34
			C587.79,324.89,587.77,325.19,587.62,325.44z"/>
	</g>
	<g id="POLYLINE_00000160180382150998685650000010657610378928336540_">
		<path class="st125" d="M558.6,312.06c-0.69-0.08-1.58-0.05-2.26-0.17c-0.19-0.04-0.37-0.09-0.55-0.17
			c-0.23-0.11-0.44-0.27-0.56-0.49c-0.12-0.21-0.14-0.45-0.13-0.69c0.01-0.34,0.05-0.69,0.22-0.99c0.09-0.16,0.22-0.28,0.4-0.31
			c0.4-0.07,0.82,0.07,1.21-0.03c0.41-0.12,0.67-0.52,0.98-0.78c0.23-0.22,0.5-0.35,0.81-0.4c0.38-0.06,0.78-0.02,1.16,0.03
			c0.65,0.1,1.61,0.31,2.26,0.4c0.92,0.15,2.01,0.23,2.94,0.29c0.52,0.05,1.05,0.1,1.53,0.31c0.41,0.18,0.74,0.52,1.13,0.74
			c0.74,0.43,1.67,0.54,2.51,0.67c0.6,0.09,1.58,0.17,2.16,0.3c0.3,0.06,0.59,0.16,0.86,0.31c0.61,0.31,1.24,0.79,1.87,1.06
			c0.39,0.15,0.83,0.28,1.21,0.47c0.29,0.14,0.59,0.3,0.83,0.53c0.35,0.34,0.5,0.83,0.59,1.3c0.04,0.23,0.06,0.48,0,0.71
			c-0.03,0.12-0.1,0.24-0.2,0.31c-0.18,0.13-0.42,0.15-0.63,0.15c-0.46,0.01-1-0.1-1.45-0.13c-0.45-0.03-1.01,0.05-1.46,0.11
			c-0.94,0.12-1.89,0-2.79-0.27c-1.33-0.38-2.7-1-3.98-1.55c-0.38-0.16-0.78-0.16-1.19-0.14c-0.55,0.03-1.29,0.1-1.83,0.04
			c-0.13-0.02-0.27-0.04-0.39-0.09c-0.33-0.11-0.54-0.39-0.81-0.59c-0.44-0.34-1.01-0.46-1.55-0.5c-0.37-0.03-1.01-0.08-1.37-0.14
			C559.64,312.26,559.07,312.11,558.6,312.06z"/>
	</g>
	<g id="POLYLINE_00000101821179094587241440000010959471635522084519_">
		<path class="st125" d="M677.77,344.72c-0.38,0.18-0.79,0.28-1.21,0.33c-0.45,0.05-0.92,0.03-1.36-0.11
			c-0.46-0.14-0.85-0.43-1.18-0.78c-0.57-0.6-1.05-1.42-1.59-2.04c-0.36-0.43-0.78-0.77-1.32-0.95c-0.8-0.29-1.71-0.27-2.53-0.5
			c-0.33-0.09-0.64-0.25-0.92-0.46c-0.51-0.37-0.87-0.92-1.19-1.46c-0.21-0.33-0.47-0.66-0.82-0.84c-0.18-0.1-0.39-0.16-0.59-0.2
			c-0.62-0.14-1.5-0.15-2.14-0.2c-0.68-0.06-1.38-0.14-1.99-0.45c-0.51-0.26-0.92-0.67-1.29-1.09c-0.43-0.49-0.87-1.07-1.43-1.42
			c-0.95-0.6-2.26-0.71-3.35-0.91c-2.73-0.51-5.43-1.41-8.02-2.4c-0.23-0.1-0.5-0.2-0.73-0.32c-0.11-0.06-0.22-0.12-0.32-0.21
			c-0.17-0.16-0.24-0.38-0.25-0.61c-0.03-0.4,0.04-0.81,0.19-1.18c0.11-0.26,0.3-0.53,0.6-0.57c0.11-0.02,0.23-0.01,0.35,0.01
			c0.4,0.07,0.9,0.29,1.29,0.41c0.68,0.23,1.42,0.26,2.14,0.22c0.43-0.02,1.26-0.11,1.67-0.07c0.19,0.01,0.38,0.06,0.56,0.13
			c0.33,0.13,0.67,0.25,1.02,0.29c0.96,0.13,2.08,0.05,3.05,0.16c0.19,0.03,0.37,0.08,0.54,0.17c0.2,0.11,0.37,0.3,0.55,0.43
			c0.21,0.15,0.44,0.23,0.7,0.25c0.5,0.05,1.03,0,1.53,0.07c0.52,0.07,1,0.35,1.38,0.7c0.25,0.22,0.47,0.53,0.8,0.63
			c0.13,0.04,0.27,0.05,0.4,0.05c0.65-0.03,1.47-0.31,2.1-0.45c0.32-0.08,0.64-0.15,0.97-0.17c0.15-0.01,0.3,0,0.45,0.04
			c0.24,0.07,0.43,0.25,0.62,0.41c0.22,0.2,0.49,0.32,0.77,0.38c0.86,0.19,1.78-0.1,2.65-0.04c0.21,0.02,0.45,0.06,0.6,0.23
			c0.16,0.17,0.23,0.41,0.32,0.63c0.07,0.18,0.16,0.35,0.3,0.49c0.27,0.29,0.64,0.37,1.02,0.4c0.51,0.05,1.07,0,1.56,0.18
			c0.2,0.08,0.39,0.2,0.54,0.35c0.35,0.34,0.61,0.85,0.9,1.24c0.22,0.3,0.48,0.58,0.81,0.76c0.49,0.27,1.09,0.33,1.63,0.44
			c0.27,0.06,0.56,0.12,0.76,0.31c0.24,0.22,0.37,0.65,0.56,0.94c0.17,0.28,0.38,0.55,0.66,0.74c0.38,0.26,0.89,0.39,1.11,0.82
			c0.21,0.43,0.21,0.95,0.29,1.42c0.05,0.34,0.17,0.59,0.33,0.89c0.08,0.15,0.14,0.32,0.13,0.5c-0.02,0.33-0.21,0.62-0.41,0.87
			c-0.2,0.23-0.44,0.43-0.71,0.56c-0.33,0.16-0.71,0.22-1.07,0.28c-0.2,0.04-0.41,0.08-0.59,0.18
			C678.31,344.36,678.06,344.59,677.77,344.72z"/>
	</g>
	<g id="POLYLINE_00000166668785339140804040000000557020431206135227_">
		<path class="st125" d="M136.33,367.57c6.81-0.58,13.79-0.55,20.6,0.13c8.13,0.8,16.23,2.48,24.08,4.74
			c7.57,2.17,15.36,5.07,22.63,8.12c20.45,8.59,47.64,23.06,68.19,31.32c13.41,5.47,27.58,9.92,41.68,13.22
			c22.32,5.21,45.74,8.44,68.52,10.83c28.43,2.88,57.83,4.41,86.41,4.03"/>
	</g>
	<g id="POLYLINE_00000010309994583369660360000012425989299104319665_">
		<path class="st125" d="M153.28,356.3l-3.41,1.31c-2.87,1.12-5.62,2.59-7.99,4.57c-4.92,4.11-9.14,9.51-13.2,14.47
			c-11.23,14.34-23.9,29.94-36.16,43.35c-6.73,7.32-14.02,15.05-21.44,21.64c-1.8,1.58-3.76,3.23-5.7,4.62
			c-1.13,0.8-2.32,1.59-3.56,2.2c-0.81,0.39-1.66,0.74-2.56,0.84c-0.53,0.06-1.09,0-1.56-0.26c-0.35-0.19-0.63-0.49-0.82-0.84
			c-0.18-0.34-0.28-0.73-0.3-1.12c-0.06-1.01,0.29-2,0.67-2.92c1.2-2.81,4.75-8.02,6.36-10.69c2.13-3.46,4.09-7.14,5.67-10.88
			c4.3-9.87,7.58-23.18,10.95-33.45c1.15-3.35,2.43-6.75,4.36-9.74c1-1.55,2.22-2.97,3.62-4.18c0.88-0.79,2.02-1.63,2.79-2.52
			c0.16-0.19,0.31-0.39,0.41-0.61c0.09-0.18,0.14-0.39,0.11-0.6c-0.03-0.19-0.13-0.37-0.25-0.52c-0.24-0.29-0.56-0.51-0.87-0.73
			c-0.95-0.64-2.02-1.21-2.82-2.04c-0.4-0.41-0.71-0.92-0.88-1.47c-0.22-0.71-0.25-1.46-0.25-2.2c0.02-1.58,0.22-3.26-0.01-4.83
			c-0.33-2.63-2.22-4.74-3.77-6.77c-0.28-0.38-0.58-0.78-0.8-1.2c-0.09-0.18-0.17-0.37-0.2-0.57l0-0.02l0-0.02l0-0.02l0-0.02l0-0.02
			l0-0.02l0-0.02l0-0.02l0-0.02l0-0.02l0-0.02l0-0.02l0-0.01l0-0.01l0-0.01l0-0.01l0-0.02l0-0.02l0-0.01l0-0.01l0.01-0.01l0.01-0.01
			l0.01-0.01l0.01-0.01l0.01-0.01l0.01-0.01l0.01-0.01l0.01-0.01l0.01-0.01l0.01-0.01l0.01-0.01l0.01-0.01l0.01-0.01l0.01-0.01
			l0.01-0.01l0.01-0.01l0.01-0.01l0.01-0.01l0.01-0.01l0.01-0.01l0.01-0.01l0.01-0.01l0.01-0.01l0.01-0.01l0.01-0.01l0.01-0.01
			l0.02-0.01c0.31-0.2,0.68-0.27,1.04-0.32c0.52-0.07,1.06-0.09,1.58-0.09c2.02,0.01,4.99,0.25,7.01,0.32
			c6.17,0.24,13.82-0.36,20.01-0.38c4.04-0.01,8.21,0.28,12.22,0.73"/>
	</g>
	<g id="POLYLINE_00000154404301788046451560000006536950315649240996_">
		<path class="st125" d="M518.64,436.61c17.61-2.32,35.17-6.5,51.91-12.45c7.11-2.5,14.94-5.69,21.87-8.71
			c13.1-5.91,53.58-24.57,66.11-30.72c7.01-3.51,14.23-7.23,20.75-11.6c1.84-1.25,3.69-2.61,5.34-4.11
			c1.01-0.92,1.98-1.92,2.75-3.05c0.63-0.93,1.12-1.99,1.27-3.11c0.08-0.63,0.05-1.29-0.18-1.89c-0.22-0.6-0.66-1.09-1.12-1.52"/>
	</g>
	<g id="POLYLINE_00000059281098738216496870000017978571857493456019_">
		<path class="st125" d="M490.27,420.03c-2.52,1.33-5.52,2.88-7.82,4.48c-2.04,1.4-3.93,3.05-5.63,4.84
			c-4.86,5.2-8.92,11.29-12.79,17.25c-2.99,4.78-6.39,10.2-9.06,15.15c-0.56,1.09-1.09,2.22-1.47,3.38
			c-0.34,1.02-0.56,2.09-0.56,3.17c0,0.88,0.16,1.76,0.45,2.59c0.86,2.41,2.79,4.83,4.18,6.96c0.59,0.91,1.18,1.85,1.58,2.86
			c0.85,2.1,0.63,4.51,1.27,6.67c0.26,0.91,0.65,1.79,1.08,2.63c1.66,3.17,4.13,6.67,5.55,9.95c0.48,1.1,0.9,2.24,1.19,3.41
			c0.32,1.29,0.49,2.63,0.58,3.95c0.19,2.14,0.05,4.9,0.5,7c0.18,0.78,0.51,1.58,1.15,2.08c0.61,0.49,1.42,0.67,2.19,0.64
			c1.08-0.04,2.13-0.41,3.09-0.89c1.36-0.69,2.62-1.61,3.78-2.59c2.77-2.35,5.2-5.13,7.41-8.01c3.66-4.76,6.59-10.04,8.92-15.57
			c1.46-3.42,3.77-9.53,5.55-12.71c1.26-2.35,3.5-5.47,4.88-7.77c1.39-2.27,2.42-4.77,3.3-7.27c0.88-2.57,2.42-7.27,3.39-9.72
			c1.8-4.63,4.2-10.28,5.44-15.05c1.6-6.09,2.06-12.48,1.97-18.76"/>
	</g>
	<g id="POLYLINE_00000127756025201431941630000008417468773520734374_">
		<path class="st125" d="M438.41,439.71c-2.17,3.59-4.96,8.05-6.94,11.72c-0.52,0.98-1.03,2.01-1.43,3.05
			c-0.69,1.76-1.08,3.72-0.64,5.59c0.21,0.94,0.6,1.83,1.05,2.67c0.82,1.57,2.41,3.72,3.4,5.22c0.64,0.98,1.27,1.99,1.67,3.1
			c0.63,1.68,0.6,3.6,0.92,5.34c0.25,1.46,0.86,2.84,1.56,4.14c2.43,4.48,5.89,8.97,6.77,14.11c0.5,2.64,0.39,5.72,0.62,8.39
			c0.11,0.97,0.25,1.99,0.79,2.83c0.32,0.5,0.81,0.89,1.37,1.09c0.58,0.21,1.22,0.24,1.83,0.17c1.04-0.12,2.03-0.52,2.95-1.01
			c1.97-1.07,3.71-2.55,5.32-4.1c2.37-2.3,4.51-4.87,6.45-7.53"/>
	</g>
</g>
<g id="_x32_D_x24_AG-OUTLINE">
	<g id="POLYLINE_00000074430858116945631440000003137865739036895877_">
		<path class="st127" d="M687.33,359.44c0.48,0.46,0.94,0.98,1.15,1.62c0.23,0.69,0.22,1.44,0.09,2.15
			c-0.27,1.38-1.02,2.62-1.91,3.69c-1.91,2.28-4.34,4.11-6.77,5.81c-8.55,5.82-18.31,10.53-27.61,15.06
			c-17.95,8.19-47.28,22.25-65.11,29.93c-6.24,2.61-13.16,5.31-19.55,7.47c-15.83,5.42-32.4,9.25-48.99,11.44
			c-1.22,5.12-3.74,11-5.66,15.93c-0.96,2.42-2.54,7.21-3.39,9.72c-0.88,2.5-1.91,5.01-3.3,7.27c-1.38,2.3-3.61,5.42-4.88,7.77
			c-1.77,3.15-4.1,9.33-5.55,12.71c-1.43,3.34-3.05,6.69-4.96,9.78c-2.68,4.34-5.8,8.48-9.44,12.05c-1.55,1.5-3.21,2.92-5.09,4
			c-1.15,0.65-2.42,1.18-3.76,1.22c-0.5,0.01-1-0.06-1.47-0.25c-0.43-0.17-0.81-0.45-1.09-0.81c-0.44-0.54-0.65-1.22-0.79-1.9
			c-0.42-2.31-0.26-5.33-0.53-7.69c-0.15-1.49-0.42-2.98-0.9-4.4c-0.88-2.65-2.32-5.13-3.75-7.51c-1.94,2.66-4.08,5.23-6.45,7.53
			c-1.56,1.5-3.24,2.93-5.14,3.99c-0.97,0.54-2.03,0.98-3.14,1.11c-0.6,0.07-1.22,0.04-1.79-0.16c-0.58-0.2-1.08-0.59-1.41-1.1
			c-0.5-0.79-0.66-1.74-0.77-2.66c-0.25-2.65-0.13-5.71-0.59-8.33c-0.82-5.23-4.34-9.79-6.81-14.34c-0.7-1.3-1.3-2.68-1.56-4.14
			c-0.32-1.75-0.3-3.66-0.92-5.34c-0.4-1.1-1.03-2.12-1.67-3.1c-0.98-1.48-2.57-3.65-3.4-5.22c-0.45-0.84-0.84-1.74-1.05-2.67
			c-0.44-1.87-0.05-3.83,0.64-5.59c0.4-1.03,0.91-2.07,1.43-3.05c1.97-3.66,4.77-8.15,6.94-11.72c-27.73-0.89-56.63-3.28-84.1-7.14
			c-16.83-2.42-34.29-5.51-50.68-9.96c-13.3-3.57-26.67-8.37-39.29-13.87c-17.18-7.42-43.46-20.97-60.7-28.18
			c-8.69-3.65-17.87-6.98-27-9.31c-13.1-3.41-26.8-4.88-40.31-3.68c-4.45,4.75-18.28,22.53-22.61,27.84
			c-10.73,13.02-22.46,26.52-34.39,38.44c-4.57,4.47-9.29,9.11-14.51,12.81c-1.39,0.94-2.83,1.87-4.43,2.4
			c-0.84,0.27-1.81,0.43-2.62,0.01c-0.42-0.21-0.75-0.59-0.94-1.02c-0.19-0.43-0.25-0.91-0.23-1.37c0.04-0.83,0.31-1.64,0.63-2.4
			c1.22-2.91,4.75-8.05,6.41-10.8c2.13-3.46,4.09-7.14,5.67-10.88c4.3-9.87,7.58-23.18,10.95-33.45c1.15-3.35,2.43-6.75,4.36-9.74
			c1-1.55,2.22-2.97,3.62-4.18c0.88-0.79,2.02-1.63,2.79-2.52c0.16-0.19,0.31-0.39,0.41-0.61c0.09-0.18,0.14-0.39,0.11-0.6
			c-0.03-0.19-0.13-0.37-0.25-0.52c-0.24-0.29-0.56-0.51-0.87-0.73c-0.95-0.64-2.02-1.21-2.82-2.04c-0.4-0.41-0.71-0.92-0.88-1.47
			c-0.22-0.71-0.25-1.46-0.25-2.2c0.02-1.58,0.22-3.26-0.01-4.83c-0.33-2.63-2.22-4.74-3.77-6.77c-0.28-0.38-0.58-0.78-0.8-1.2
			c-0.09-0.18-0.17-0.37-0.2-0.57l0-0.02l0-0.02l0-0.02l0-0.02l0-0.02l0-0.02l0-0.02l0-0.02l0-0.02l0-0.02l0-0.02l0-0.02l0-0.01
			l0-0.01l0-0.01l0-0.01l0-0.02l0-0.02l0-0.01l0-0.01l0.01-0.01l0.01-0.01l0.01-0.01l0.01-0.01l0.01-0.01l0.01-0.01l0.01-0.01
			l0.01-0.01l0.01-0.01l0.01-0.01l0.01-0.01l0.01-0.01l0.01-0.01l0.01-0.01l0.01-0.01l0.01-0.01l0.01-0.01l0.01-0.01l0.01-0.01
			l0.01-0.01l0.01-0.01l0.01-0.01l0.01-0.01l0.01-0.01l0.01-0.01l0.01-0.01l0.02-0.01c0.31-0.2,0.68-0.27,1.04-0.32
			c0.52-0.07,1.06-0.09,1.58-0.09c2.02,0.01,4.99,0.25,7.01,0.32c6.17,0.24,13.82-0.36,20.01-0.38c4.04-0.01,8.21,0.28,12.22,0.73
			c5.43-3.66,11.18-7.04,17.03-9.97c11.22-5.61,23.38-10.04,35.3-13.92c15.94-5.1,32.56-9.47,49.01-12.56
			c10.49-1.97,21.75-3.32,32.39-4.3c28.9-2.38,63.64-5.42,92.48-5.81c18.53-0.49,49.33,1.79,68.04,2.83
			c22.79,1.1,59.57,1.63,82.28,3.25c3.05,0.17,6.97,0.36,10,0.39c4.37,0.06,8.85-0.18,13.18-0.75c2.36-0.32,8.28-1.18,10.56-1.39
			c-0.11-0.19-0.21-0.41-0.16-0.63c0.04-0.17,0.18-0.29,0.33-0.37c0.2-0.11,0.43-0.16,0.65-0.19c0.69-0.1,1.52,0.06,2.21,0.13
			c0.29,0.03,0.59,0.06,0.88,0.05c0.36-0.01,0.82-0.09,1.18-0.14c0.33-0.05,0.67-0.07,1-0.02c0.58,0.09,1.27,0.41,1.82,0.61
			c0.35,0.13,0.71,0.25,1.08,0.3c0.46,0.08,0.98,0.09,1.43,0.21c0.5,0.14,0.93,0.43,1.33,0.74c0.21,0.17,0.43,0.37,0.52,0.63
			c0.11,0.31,0.05,0.65-0.04,0.95c1.05,0.38,2.19,0.49,3.3,0.46c1.8-0.05,3.63-0.43,5.4-0.81c0.01-0.29,0.05-0.6,0.18-0.87
			c0.06-0.13,0.16-0.26,0.29-0.32c0.12-0.06,0.25-0.07,0.38-0.07c0.34,0,0.72,0.08,1.05-0.03c0.2-0.07,0.36-0.21,0.51-0.36
			c0.25-0.25,0.5-0.55,0.83-0.69c0.3-0.13,0.64-0.15,0.97-0.14c0.58,0.02,1.49,0.23,2.07,0.33c1.19,0.22,2.5,0.34,3.71,0.42
			c0.52,0.05,1.05,0.1,1.53,0.31c0.41,0.18,0.74,0.52,1.13,0.74c0.74,0.43,1.67,0.54,2.51,0.67c0.66,0.1,1.65,0.17,2.29,0.33
			c0.3,0.07,0.59,0.2,0.86,0.35c0.63,0.34,1.27,0.84,1.95,1.08c0.63,0.21,1.36,0.47,1.84,0.94c0.21,0.21,0.35,0.49,0.44,0.77
			l11.19,3.95c0.1-0.25,0.31-0.45,0.53-0.59c0.28-0.17,0.62-0.26,0.95-0.22c0.66,0.1,1.13,0.67,1.75,0.89
			c0.61,0.22,1.28,0.11,1.91,0.15c0.39,0.03,0.78,0.15,1.13,0.32c0.23,0.12,0.47,0.25,0.64,0.45c0.06,0.07,0.11,0.15,0.12,0.24
			c0.04,0.25-0.16,0.54-0.21,0.78c2.14,0.52,5.47,0.99,7.68,1.33c0.26-0.49,0.73-0.89,1.29-0.96c0.45-0.05,0.89,0.11,1.3,0.27
			c0.39,0.15,0.93,0.41,1.33,0.49c0.16,0.04,0.33,0.04,0.5,0.02c0.34-0.04,0.69-0.22,1.03-0.1c0.32,0.1,0.58,0.34,0.81,0.58
			c0.19,0.22,0.37,0.5,0.3,0.8l9.72,1.81c0.29-0.33,0.76-0.42,1.15-0.56c0.25-0.08,0.57-0.27,0.83-0.26
			c0.08,0.01,0.16,0.04,0.23,0.08c0.17,0.1,0.34,0.24,0.52,0.31c0.26,0.11,0.59,0.14,0.83,0.3c0.29,0.18,0.31,0.56,0.32,0.87
			l22.18,4.22c0.09-0.28,0.24-0.59,0.52-0.72c0.09-0.04,0.19-0.05,0.29-0.05c0.42,0.01,0.93,0.24,1.33,0.37
			c0.31,0.11,0.63,0.2,0.96,0.24c0.45,0.06,0.91,0.06,1.36,0.03c0.43-0.02,1.26-0.11,1.67-0.07c0.19,0.01,0.38,0.06,0.56,0.13
			c0.33,0.13,0.67,0.25,1.02,0.29c0.96,0.13,2.08,0.05,3.05,0.16c0.19,0.03,0.37,0.08,0.54,0.17c0.2,0.11,0.37,0.3,0.55,0.43
			c0.21,0.15,0.44,0.23,0.7,0.25c0.5,0.05,1.03,0,1.53,0.07c0.52,0.07,1,0.35,1.38,0.7c0.25,0.22,0.47,0.53,0.8,0.63
			c0.13,0.04,0.27,0.05,0.4,0.05c0.65-0.03,1.47-0.31,2.1-0.45c0.32-0.08,0.64-0.15,0.97-0.17c0.15-0.01,0.3,0,0.45,0.04
			c0.24,0.07,0.43,0.25,0.62,0.41c0.22,0.2,0.49,0.32,0.77,0.38c0.86,0.19,1.78-0.1,2.65-0.04c0.21,0.02,0.45,0.06,0.6,0.23
			c0.16,0.17,0.23,0.41,0.32,0.63c0.07,0.18,0.16,0.35,0.3,0.49c0.27,0.29,0.64,0.37,1.02,0.4c0.51,0.05,1.07,0,1.56,0.18
			c0.2,0.08,0.39,0.2,0.54,0.35c0.35,0.34,0.61,0.85,0.9,1.24c0.22,0.3,0.48,0.58,0.81,0.76c0.49,0.27,1.09,0.33,1.63,0.44
			c0.27,0.06,0.56,0.12,0.76,0.31c0.24,0.22,0.37,0.65,0.56,0.94c0.17,0.28,0.38,0.55,0.66,0.74c0.38,0.26,0.89,0.39,1.11,0.82
			c0.21,0.43,0.21,0.95,0.29,1.42c0.05,0.34,0.17,0.59,0.33,0.89c0.08,0.15,0.14,0.32,0.13,0.5c-0.02,0.33-0.21,0.62-0.41,0.87
			c-0.2,0.23-0.44,0.43-0.71,0.56c-0.33,0.16-0.71,0.22-1.07,0.28c-0.2,0.04-0.41,0.08-0.59,0.18c-0.28,0.16-0.53,0.39-0.83,0.52
			c2.64,3.41,6.22,8.04,8.87,11.43c0.35,0.48,0.7,0.99,0.94,1.54c0.15,0.34,0.27,0.71,0.21,1.08
			C687.74,359.05,687.56,359.29,687.33,359.44z"/>
	</g>
</g>
</svg>
