<?xml version="1.0" encoding="utf-8"?>
<!-- Generator: Adobe Illustrator 26.3.1, SVG Export Plug-In . SVG Version: 6.00 Build 0)  -->
<!DOCTYPE svg PUBLIC "-//W3C//DTD SVG 1.1//EN" "http://www.w3.org/Graphics/SVG/1.1/DTD/svg11.dtd" [
	<!ENTITY ns_extend "http://ns.adobe.com/Extensibility/1.0/">
	<!ENTITY ns_ai "http://ns.adobe.com/AdobeIllustrator/10.0/">
	<!ENTITY ns_graphs "http://ns.adobe.com/Graphs/1.0/">
	<!ENTITY ns_vars "http://ns.adobe.com/Variables/1.0/">
	<!ENTITY ns_imrep "http://ns.adobe.com/ImageReplacement/1.0/">
	<!ENTITY ns_sfw "http://ns.adobe.com/SaveForWeb/1.0/">
	<!ENTITY ns_custom "http://ns.adobe.com/GenericCustomNamespace/1.0/">
	<!ENTITY ns_adobe_xpath "http://ns.adobe.com/XPath/1.0/">
]>
<svg version="1.1" xmlns:x="&ns_extend;" xmlns:i="&ns_ai;" xmlns:graph="&ns_graphs;"
	 xmlns="http://www.w3.org/2000/svg" xmlns:xlink="http://www.w3.org/1999/xlink" x="0px" y="0px" width="750px" height="750px"
	 viewBox="0 0 750 750" enable-background="new 0 0 750 750" xml:space="preserve">
<metadata>
	<sfw  xmlns="&ns_sfw;">
		<slices></slices>
		<sliceSourceBounds  bottomLeftOrigin="true" height="4820.468" width="8440.828" x="-6582.828" y="1000"></sliceSourceBounds>
	</sfw>
</metadata>
<g id="FILL-BACKGROUND">
	<rect fill="#FFFFFF" width="750" height="750"/>
</g>
<g id="N-DIMENSIONS">
</g>
<g id="N-TEXT">
</g>
<g id="AG-DIAGRAM">
</g>
<g id="AG-PEOPLE">
</g>
<g id="AG-DETAILS">
	<g id="POLYLINE_511_">
		<path fill="none" stroke="#FB8604" stroke-width="2" stroke-linecap="round" stroke-linejoin="round" stroke-miterlimit="10" d="
			M532.558,407.527c6.447-0.288,13.061-1.32,19.078-4.78c8.158-4.888,15.814-12.945,23.983-18.185"/>
	</g>
	<g id="POLYLINE_510_">
		<path fill="none" stroke="#FB8604" stroke-width="2" stroke-linecap="round" stroke-linejoin="round" stroke-miterlimit="10" d="
			M378.07,399.02c24.809,14.516,47.801,20.407,71.414,23.013"/>
	</g>
	<g id="POLYLINE_341_">
		<path fill="none" stroke="#FB8604" stroke-width="2" stroke-linecap="round" stroke-linejoin="round" stroke-miterlimit="10" d="
			M364.523,402.38c25.971,12.149,54.048,19.978,82.445,24.028"/>
	</g>
	<g id="POLYLINE_340_">
		<path fill="none" stroke="#FB8604" stroke-width="2" stroke-linecap="round" stroke-linejoin="round" stroke-miterlimit="10" d="
			M353.254,408.246c29.13,12.482,60.789,17.978,91.978,21.563"/>
	</g>
	<g id="POLYLINE_339_">
		<path fill="none" stroke="#FB8604" stroke-width="2" stroke-linecap="round" stroke-linejoin="round" stroke-miterlimit="10" d="
			M449.568,399.641c6.177,3.269,12.027,6.15,19.08,7.994"/>
	</g>
	<g id="POLYLINE_338_">
		<path fill="none" stroke="#FB8604" stroke-width="2" stroke-linecap="round" stroke-linejoin="round" stroke-miterlimit="10" d="
			M428.093,400.41c10.234,5.295,20.862,9.664,32.319,12.209"/>
	</g>
	<g id="POLYLINE_337_">
		<path fill="none" stroke="#FB8604" stroke-width="2" stroke-linecap="round" stroke-linejoin="round" stroke-miterlimit="10" d="
			M407.806,396.15c14.215,10.601,31.064,16.655,48.567,19.058"/>
	</g>
	<g id="POLYLINE_336_">
		<path fill="none" stroke="#FB8604" stroke-width="2" stroke-linecap="round" stroke-linejoin="round" stroke-miterlimit="10" d="
			M392.302,395.721c17.866,12.313,38.336,20.019,59.736,23.107"/>
	</g>
	<g id="POLYLINE_335_">
		<path fill="none" stroke="#FB8604" stroke-width="2" stroke-linecap="round" stroke-linejoin="round" stroke-miterlimit="10" d="
			M496.312,422.973c41.592,1.526,76.429-8.256,108.291-22.741"/>
	</g>
	<g id="POLYLINE_334_">
		<path fill="none" stroke="#FB8604" stroke-width="2" stroke-linecap="round" stroke-linejoin="round" stroke-miterlimit="10" d="
			M499.307,419.556c30.452,0.183,62.968-2.007,88.708-19.987"/>
	</g>
	<g id="POLYLINE_333_">
		<path fill="none" stroke="#FB8604" stroke-width="2" stroke-linecap="round" stroke-linejoin="round" stroke-miterlimit="10" d="
			M502.055,415.564c77.617,0.036,52.199-9.582,92.37-25.298"/>
	</g>
	<g id="POLYLINE_331_">
		<path fill="none" stroke="#FB8604" stroke-width="2" stroke-linecap="round" stroke-linejoin="round" stroke-miterlimit="10" d="
			M504.805,409.42c8.106-0.596,16.4-1.955,24.29-4.724"/>
	</g>
	<g id="POLYLINE_267_">
		<path fill="none" stroke="#FB8604" stroke-width="2" stroke-linecap="round" stroke-linejoin="round" stroke-miterlimit="10" d="
			M486.964,432.062c52.78-2.523,114.58-22.049,166.468-31.736"/>
	</g>
	<g id="POLYLINE_256_">
		<path fill="none" stroke="#FB8604" stroke-width="2" stroke-linecap="round" stroke-linejoin="round" stroke-miterlimit="10" d="
			M489.922,429.222c50.994-0.489,101.372-18.327,149.84-30.596"/>
	</g>
	<g id="POLYLINE_254_">
		<path fill="none" stroke="#FB8604" stroke-width="2" stroke-linecap="round" stroke-linejoin="round" stroke-miterlimit="10" d="
			M493.87,425.445c44.385,2.284,87.841-13.127,129.781-25.852"/>
	</g>
	<g id="POLYLINE_250_">
		<path fill="none" stroke="#FB8604" stroke-width="2" stroke-linecap="round" stroke-linejoin="round" stroke-miterlimit="10" d="
			M514.372,411.527c38.027,7.381,47.89-14.582,70.249-24.335"/>
	</g>
</g>
<g id="AG-ANIMALS">
	<g id="POLYLINE_297_">
		
			<path fill="none" stroke="#FB8604" stroke-width="2.75" stroke-linecap="round" stroke-linejoin="round" stroke-miterlimit="10" d="
			M464.661,391.919c5.944,0.932,11.058,1.891,17.269,1.283c33.312-5.329,41.8,14.921,61.363,6.97
			c18.125-13.486,5.548-29.701,71.841-24.612c18.61,1.353,40.62,2.788,59.537,8.981c11.545,2.971,10.137,4.663,4,14.511
			c-1.902,1.31-4.232,1.496-6.445,2.814c-2.47,0.901-2.324,5.17-5.621,4.741c-3.929-0.544-7.064-0.182-11.16,1.8
			c-2.98,0.766-4.077-3.814-7.99-3.644c-42.074,5.932-128.613,31.738-161.359,28.152"/>
	</g>
	<g id="POLYLINE_296_">
		
			<path fill="none" stroke="#FB8604" stroke-width="2.75" stroke-linecap="round" stroke-linejoin="round" stroke-miterlimit="10" d="
			M399.611,427.574c-17.311,13.56-33.589,12.475-48.162,19.82c-0.05,1.997,14.633,1.619,16.039,1.571
			c22.758,0.058,41.973-15.124,64.275-17.446"/>
	</g>
	<g id="POLYLINE_295_">
		
			<path fill="none" stroke="#FB8604" stroke-width="2.75" stroke-linecap="round" stroke-linejoin="round" stroke-miterlimit="10" d="
			M139.592,390.616c18.727-5.235,36.431-23.387,54.505-31.795c1.779-0.624,3.626-2.735,5.854-4.083
			c1.859-1.051,4.229-1.497,6.413-2.531c2.492-0.855,3.513-4.19,6.338-4.817c4.446-0.244,8.136-3.996,11.781-6.538
			c4.785-3.154,10.057-4.952,14.461-8.956c4.524-2.314,8.946-0.757,14.583-6.262c1.615-1.172,3.193-1.834,5.495-2.3
			c4.092-0.766,7.86-1.872,11.891-3.369c26.418-11.203,38.593-8.007,41.337-15.569c1.349-4.495-3.913-12.438,5.036-8.981
			c15.97,4.273,30.701,6.781,45.183,13.441c36.267,9.861,86.52,14.105,121.388,22.618c40.29,8.554,77.674,23.946,109.77,26.09
			c7.286,1.661,15.034,5.521,22.687,6.282c4.109,0.831,8.208,3.3,12.714,4.048c14.362,1.731,31.121,6.243,44.637,11.574
			c2.09,1.242,3.282,3.469,3.748,5.922"/>
	</g>
	<g id="POLYLINE_294_">
		
			<path fill="none" stroke="#FB8604" stroke-width="2.75" stroke-linecap="round" stroke-linejoin="round" stroke-miterlimit="10" d="
			M170.473,396.349c-14.852,11.081-33.355,16.043-51.528,19.116c-12.287,1.854-24.71,4.005-37.189,0.956
			c-5.579-1.5-11.073-4.254-15.563-8.521c-1.344-1.471-2.937-3.352,1.222-2.814c11.533,1.666,8.939-0.549,20.406-5.654
			c15.16-2.664,12.841-5.874,26.634-9.534c2.32-0.49,5.327,0.132,7.743-0.879c0.424-0.563-0.165-1.081-0.554-1.623
			c-7.286-7.201,1.052-5.423-4.799-12.49c0.281-1.343,3.278-0.466,6.552,0.058c9.434,1.998,18.068,6.091,25.929,12.01"/>
	</g>
	<g id="POLYLINE_293_">
		
			<path fill="none" stroke="#FB8604" stroke-width="2.75" stroke-linecap="round" stroke-linejoin="round" stroke-miterlimit="10" d="
			M443.782,432.586c-93.399-7.868-123.176-25.531-173.877-33.853c-5.974-1.311-10.908-4.462-17.284-4.313
			c-7.91-0.591-14.291,6.519-22.475,4.999c-3.428-0.514-6.032-1.148-9.697-0.928c-8.079,0.566-18.529,4.431-26.254,5.974
			c-15.022,3.129-29.23,4.122-44.055,3.009"/>
	</g>
	<g id="POLYLINE_252_">
		
			<path fill="none" stroke="#FB8604" stroke-width="2.75" stroke-linecap="round" stroke-linejoin="round" stroke-miterlimit="10" d="
			M506.894,400.418c-1.881,25.253-31.379,34.038-30.384,48.185c-0.243,1.401-0.889,2.784-1.921,3.987
			c-0.912,0.994-1.517,1.29-3.097,1.827c-6.48,2.568-12.992,8.398-17.366,15.667c-0.823,1.423-1.003,1.933-2.298,3.039
			c-2.726,1.912-7.096,2.203-8.234,6.218c-0.252,0.515-0.627,1.176-1.13,1.588c-4.451,2.828-4.897,1.931-4.192,8.244
			c0.043,0.956-0.53,1.871-1.537,2.16c-6.408,0.801-10.594,3.884-15.506,9.47c-3.9,4.036-10.032,8.688-15.045,12.318
			c-2.848,3.968-38.348,15.463-30.792,2.78c2.834-3.472,7.737-5.873,10.869-9.342c10.947-11.762,22.539-27.449,33.052-39.447
			c40.12-48.379,17.114-40.41,48.272-58.793c4.295-2.535,8.861-6.904,12.434-10.663"/>
	</g>
</g>
<g id="AG-OUTLINE">
	<g id="POLYLINE_242_">
		
			<path fill="none" stroke="#FB8604" stroke-width="3.5" stroke-linecap="round" stroke-linejoin="round" stroke-miterlimit="10" d="
			M677.412,385.391c-0.43-2.217-1.59-4.719-3.748-5.922c-14.455-5.874-31.498-9.762-46.955-12.1
			c-5.07-1.818-9.903-3.753-15.597-4.407c-5.25-1.355-11.411-3.911-16.736-5.223c-7.803-1.228-14.14-0.713-22.627-3.167
			c-26.394-6.196-70.224-19.838-96.052-24.859c-28.975-6.011-70.571-11.797-99.4-17.238c-10.589-1.622-20.769-6.653-31.455-10.246
			c-10.228-2.874-20.667-4.605-30.9-7.618c-3.802-0.601-0.772,6.699-1.649,9.55c-0.583,5.188-10.651,6.027-16.615,7.683
			c-6.466,1.426-12.763,3.595-20.64,6.599c-6.614,2.893-12.529,3.789-19.681,6.057c-2.293,1.093-4.075,3.346-6.631,4.565
			c-3.09,1.609-8.236,1.061-10.915,3.679c-4.227,3.895-9.475,5.218-13.95,8.543c-6.043,4.465-4.679,4.399-12.665,6.724
			c-1.589,1.159-2.636,3.264-4.724,4.146c-2.329,1.184-5.398,1.55-7.723,3.379c-1.312,1.088-3.321,2.767-4.654,3.287
			c-10.888,5.304-19.207,11.968-33.431,21.237c-1.579,1.046-5.979,3.994-10.444,6.442c-1.329,1.127-2.002-0.668-3.385-1.329
			c-7.901-5.408-16.887-9.313-26.69-10.775c-0.349,0.062-3.109-0.649-3.321,0.421c0.405,0.707,0.207,0.582,0.988,1.449
			c0.537,0.765,1.308,1.429,1.323,2.535c-1.198,5.024-0.93,4.547,2.96,9.203c0.15,0.233,0.389,0.64,0.171,0.938
			c-3.423,1.39-7.431,0.17-11.251,1.736c-4.104,1.279-8.625,4.557-12.901,6.108c-3.664,1.368-8.126,1.703-11.998,3.253
			c-5.205,2.387-7.832,7.251-19.477,4.994c-0.548-0.06-2.474-0.071-1.789,1.121c15.903,21.102,63.24,8.423,83.092,2.129
			c3.649-1.615,7.684-0.057,11.744-0.363c49.38-0.376,42.02-12.432,73.943-8.254c2.835-0.133,5.13-1.361,8.446-2.814
			c5.515-2.572,12.63-3.382,19.08-0.906c3.77,1.315,7.68,2.781,11.732,3.373c17.147,2.37,27.589,6.131,53.298,12.783
			c17.129,4.692,49.68,12.18,73.423,15.473c-17.563,13.73-33.886,12.465-48.176,19.862c2.208,3.029,25.563,1.056,28.068,0.201
			c21.581-4.2,41.376-19.809,64.279-15.05c-10.513,18.712-21.53,30.765-37.317,49.901c-4.244,4.839-13.764,17.675-20.342,24.21
			c-2.291,3.222-15.706,9.647-10.779,14.121c3.991,1.86,10.441,0.307,15.379-1.038c14.978-3.11,25.386-14.252,36-24.356
			c2.579-2.496,6.098-3.261,9.819-4.023c0.5-0.174,1.103-0.445,1.423-0.968c1.312-4.016-2.517-6.203,3.653-8.915
			c4.982-4.22-0.808-3.443,10.04-8.274c0.851-0.611,1.38-1.29,1.977-2.303c4.149-7.344,10.936-14.083,19.343-17.106
			c0.733-0.344,1.354-0.883,1.93-1.641c3.925-5.061-2.829-6.025,11.189-19.28c14.482,0.849,28.027-0.845,42.626-3.524
			c25.317-3.894,94.324-21.821,119.689-24.539c2.692,0.082,3.901,3.904,6.821,3.599c1.744-0.376,3.311-1.573,5.292-1.927
			c2.459-0.868,6.844,1.487,8.804-1.132c1.221-3.895,5.643-4.463,9.042-6.116c2.269-2.733,4.739-6.516,4.851-10.472
			C682.627,386.48,679.478,386.21,677.412,385.391z"/>
	</g>
</g>
</svg>
