<?xml version="1.0" encoding="utf-8"?>
<!-- Generator: Adobe Illustrator 26.3.1, SVG Export Plug-In . SVG Version: 6.00 Build 0)  -->
<!DOCTYPE svg PUBLIC "-//W3C//DTD SVG 1.1//EN" "http://www.w3.org/Graphics/SVG/1.1/DTD/svg11.dtd" [
	<!ENTITY ns_extend "http://ns.adobe.com/Extensibility/1.0/">
	<!ENTITY ns_ai "http://ns.adobe.com/AdobeIllustrator/10.0/">
	<!ENTITY ns_graphs "http://ns.adobe.com/Graphs/1.0/">
	<!ENTITY ns_vars "http://ns.adobe.com/Variables/1.0/">
	<!ENTITY ns_imrep "http://ns.adobe.com/ImageReplacement/1.0/">
	<!ENTITY ns_sfw "http://ns.adobe.com/SaveForWeb/1.0/">
	<!ENTITY ns_custom "http://ns.adobe.com/GenericCustomNamespace/1.0/">
	<!ENTITY ns_adobe_xpath "http://ns.adobe.com/XPath/1.0/">
]>
<svg version="1.1" xmlns:x="&ns_extend;" xmlns:i="&ns_ai;" xmlns:graph="&ns_graphs;"
	 xmlns="http://www.w3.org/2000/svg" xmlns:xlink="http://www.w3.org/1999/xlink" x="0px" y="0px" width="750px" height="750px"
	 viewBox="0 0 750 750" enable-background="new 0 0 750 750" xml:space="preserve">
<metadata>
	<sfw  xmlns="&ns_sfw;">
		<slices></slices>
		<sliceSourceBounds  bottomLeftOrigin="true" height="15987.621" width="4437" x="-2000" y="-6814"></sliceSourceBounds>
	</sfw>
</metadata>
<g id="FILL-BACKGROUND">
	<rect y="0" fill="#FFFFFF" width="750" height="750"/>
</g>
<g id="N-DIMENSIONS">
</g>
<g id="N-TEXT">
</g>
<g id="_x32_D_x24_AG-DETAILS-DIAGRAM">
</g>
<g id="_x32_D_x24_AG-DETAILS">
</g>
<g id="_x32_D_x24_AG-ANIMALS">
	<g id="POLYLINE_00000145023924835753065870000012841034216172712379_">
		
			<path fill="none" stroke="#FB8604" stroke-width="2.75" stroke-linecap="round" stroke-linejoin="round" stroke-miterlimit="10" d="
			M540.404,422.934c13.168-1.226,28.397-4.794,41.458-7.02c5.917-0.993,12.1-1.582,18.093-1.827
			c7.885-0.328,22.505-0.442,30.228-1.104c11.535-0.927,23.431-2.268,34.732-4.782c2.197-0.551,4.556-1.126,6.482-2.353
			c0.577-0.38,1.101-0.858,1.458-1.454c0.481-0.775,0.675-1.711,0.889-2.586"/>
	</g>
	<g id="POLYLINE_00000029746678889108809340000009855948104588214932_">
		
			<path fill="none" stroke="#FB8604" stroke-width="2.75" stroke-linecap="round" stroke-linejoin="round" stroke-miterlimit="10" d="
			M108.774,401.05c-3.537-1.616-7.632-3.254-10.95-5.263c-4.332-2.613-8.873-5.802-13.591-7.66c-3.936-1.6-8.209-2.371-12.452-2.389
			c-0.844,0.008-1.705,0.044-2.536,0.197c-0.335,0.068-0.68,0.145-0.978,0.319l-0.017,0.011l-0.017,0.011l-0.016,0.011l-0.016,0.011
			l-0.015,0.011l-0.014,0.011l-0.014,0.011l-0.013,0.011l-0.013,0.011l-0.012,0.012l-0.012,0.012l-0.011,0.012l-0.011,0.012
			l-0.01,0.012l-0.009,0.012l-0.009,0.012l-0.008,0.012l-0.008,0.012l-0.007,0.012l-0.007,0.012l-0.006,0.013l-0.005,0.013
			l-0.005,0.013l-0.004,0.013l-0.004,0.013L68,386.561l-0.003,0.013l-0.002,0.013l-0.001,0.013l-0.001,0.013l0,0.014l0,0.011
			l0.001,0.011l0.001,0.011l0.002,0.011l0.002,0.011l0.002,0.011l0.003,0.012l0.003,0.012l0.003,0.012l0.004,0.012l0.004,0.012
			l0.005,0.012l0.005,0.012l0.005,0.012l0.006,0.012l0.006,0.012l0.006,0.012l0.007,0.012l0.007,0.012l0.008,0.012
			c0.075,0.12,0.177,0.223,0.28,0.319c0.416,0.396,1.569,1.133,2.051,1.486c1.391,0.995,2.791,2.142,3.52,3.729
			c0.436,0.962,0.579,2.034,0.581,3.083c-0.018,3.314-1.265,6.854-1.783,10.108c-0.134,0.861-0.23,1.746-0.189,2.618
			c0.044,1.131,0.413,2.228,0.939,3.223c0.538,1.067,1.411,2.194,1.692,3.371c0.112,0.476,0.088,0.977-0.031,1.449
			c-0.119,0.484-0.322,0.949-0.545,1.394c-0.441,0.894-1.532,2.588-2.046,3.454c-0.843,1.418-1.604,2.912-2.131,4.478
			c-0.701,2.083-1.067,4.286-1.289,6.468c-0.44,4.506-0.271,9.159,0.043,13.671c0.149,2.391,0.801,8.189,0.897,10.579
			c0.066,1.662-0.05,3.351-0.487,4.961c-0.521,1.979-1.477,3.839-2.445,5.632c-0.929,1.745-2.863,4.89-3.536,6.707
			c-0.097,0.283-0.189,0.577-0.192,0.879l0,0.02l0.001,0.02l0.001,0.019l0.001,0.019l0.002,0.019l0.002,0.018l0.003,0.018
			l0.003,0.018l0.003,0.017l0.004,0.017c0.029,0.137,0.117,0.26,0.243,0.322c0.178,0.09,0.386,0.089,0.581,0.072
			c0.661-0.08,1.289-0.352,1.893-0.622c1.418-0.662,2.759-1.538,4.032-2.447c6.14-4.494,11.312-10.229,15.961-16.218
			c6.621-8.643,12.603-18.014,17.904-27.518l2.777-5.181c0.838-1.487,1.74-3.057,3.2-4.015c0.815-0.535,1.772-0.807,2.73-0.945
			c2.547-0.385,7.246,0.077,9.877,0.162c4.187,0.198,8.528,0.022,12.705-0.298c13.388-1.068,34.62-4.083,47.944-4.664
			c10.948-0.541,22.249-0.274,33.153,0.837c8.496,0.82,17.29,2.454,25.595,4.454c5.462,1.258,11.173,2.298,16.799,2.006
			c8.85-0.412,19.738-2.794,28.58-3.296c10.887-0.705,22.045,0.225,32.874,1.406l36,4.403c43.113,4.905,93.624,2.774,137.117,2.232"
			/>
	</g>
	<g id="POLYLINE_00000128445295868387144790000015816118387548377749_">
		
			<path fill="none" stroke="#FB8604" stroke-width="2.75" stroke-linecap="round" stroke-linejoin="round" stroke-miterlimit="10" d="
			M631.025,389.198c3.229,0.363,6.699,0.712,9.796,1.669c6.149,1.877,14.243,5.666,20.269,8.05c2.525,0.984,5.181,2.017,7.813,2.66
			c1.221,0.286,2.488,0.515,3.746,0.426c0.776-0.058,1.565-0.266,2.195-0.739c1.005-0.753,1.436-2.026,1.588-3.231
			c0.17-1.396,0.023-2.82-0.251-4.194c-0.423-2.085-1.18-4.111-2.077-6.036c-2.503-5.281-6.028-10.062-9.844-14.467
			c-5.664-6.444-12.224-12.215-19.486-16.795c-11.125-7.014-23.895-11.01-36.605-14.054c-13.885-3.057-41.659-9.552-55.391-13.005
			c-2.64-0.621-7.981-1.792-10.642-2.338c-8.921-1.852-18.879-3.286-27.949-4.409c-12.211-1.482-45.42-4.482-56.967-6.733
			c-2.873-0.571-5.771-1.304-8.521-2.322c-7.542-2.719-13.776-8.092-19.616-13.428c-7.894-7.371-19.424-18.578-27.745-25.167
			c-5.063-4.057-10.459-7.856-16.24-10.822c-6.059-3.09-12.604-5.556-19.417-6.191c-1.868-0.155-3.777-0.17-5.629,0.146
			c-1.184,0.207-2.37,0.552-3.401,1.186c-0.775,0.482-1.477,1.151-1.84,2.001c-0.14,0.338-0.218,0.714-0.162,1.079
			c0.043,0.297,0.186,0.571,0.387,0.791c0.181,0.201,0.4,0.368,0.626,0.515c0.902,0.574,2.254,1.067,3.239,1.499
			c1.006,0.436,2.033,0.915,2.961,1.5c1.103,0.689,2.13,1.523,3.057,2.435c2.41,2.384,4.243,5.346,5.367,8.541
			c2.871,8.182,0.354,17.21-3.837,24.477c-4.781,8.297-12.121,14.875-20.214,19.865c-6.389,3.944-13.412,6.981-20.445,9.575
			c-10.324,3.815-21.872,6.906-32.553,9.656c-31.142,7.79-98.745,23.209-128.616,32.816c-7.787,2.485-15.953,5.399-23.46,8.641
			c-16.532,7.059-31.798,17.049-45.733,28.347"/>
	</g>
	<g id="POLYLINE_00000044869778861214071890000005152169093746787258_">
		
			<path fill="none" stroke="#FB8604" stroke-width="2.75" stroke-linecap="round" stroke-linejoin="round" stroke-miterlimit="10" d="
			M527.495,403.458c-1.19,1.561-2.398,3.414-3.867,4.723c-2.225,2.031-5.107,3.197-7.852,4.348
			c-5.692,2.341-12.734,4.536-17.654,8.271c-2.745,2.065-5.008,4.726-7.062,7.461l-5.062,6.867
			c-4.418,5.82-9.233,11.534-14.528,16.575c-2.256,2.137-4.69,4.233-7.207,6.054c-1.887,1.373-3.953,2.636-5.988,3.78l-5.112,2.801
			c-1.14,0.666-2.347,1.325-3.278,2.276c-0.264,0.283-0.504,0.609-0.6,0.99c-0.159,0.61,0.141,1.192,0.593,1.593
			c0.542,0.484,1.234,0.767,1.927,0.959c1.253,0.333,2.573,0.402,3.865,0.407c3.584-0.026,7.201-0.606,10.716-1.275
			c6.363-1.261,12.846-3.05,19.001-5.093c7.91-2.643,15.659-6.063,22.704-10.549c4.253-2.699,8.351-5.856,12.071-9.253
			c6.597-5.912,15.262-15.989,21.286-22.592c2.755-2.95,5.622-5.996,8.904-8.361c2.676-1.975,6.026-3.551,8.946-5.137"/>
	</g>
</g>
<g id="_x32_D_x24_AG-OUTLINE">
	<g id="POLYLINE_00000165938447571869843560000011193678104346979512_">
		
			<path fill="none" stroke="#FB8604" stroke-width="3.5" stroke-linecap="round" stroke-linejoin="round" stroke-miterlimit="10" d="
			M673.744,401.807c0.687-0.2,1.315-0.609,1.743-1.186c0.852-1.148,1.033-2.642,1.015-4.034c-0.125-3.824-1.658-7.477-3.421-10.819
			c-4.11-7.528-9.87-14.115-16.15-19.912c-4.522-4.12-9.486-7.858-14.796-10.902c-10.483-6.054-22.25-9.656-33.967-12.467
			c-13.885-3.057-41.659-9.552-55.391-13.005c-2.64-0.621-7.981-1.792-10.642-2.338c-8.921-1.852-18.879-3.286-27.949-4.409
			c-12.211-1.482-45.42-4.482-56.967-6.733c-2.873-0.571-5.771-1.304-8.521-2.322c-7.542-2.719-13.776-8.092-19.616-13.428
			c-8.353-7.794-20.003-19.17-28.886-26.072c-5.723-4.509-11.893-8.601-18.555-11.586c-5.174-2.307-10.689-4.11-16.362-4.554
			c-1.893-0.132-3.828-0.116-5.693,0.266c-1.163,0.245-2.324,0.638-3.295,1.338c-0.665,0.487-1.259,1.129-1.54,1.915
			c-0.12,0.346-0.167,0.73-0.069,1.088c0.074,0.282,0.244,0.528,0.451,0.729c0.231,0.225,0.504,0.407,0.783,0.568
			c1.431,0.783,3.185,1.35,4.63,2.105c1.923,0.96,3.632,2.328,5.081,3.908c2.761,3.022,4.693,6.815,5.478,10.835
			c1.009,5.24,0.06,10.689-1.85,15.616c-4.274,10.992-13.113,19.609-23.023,25.696c-6.389,3.944-13.412,6.981-20.445,9.575
			c-10.324,3.815-21.872,6.905-32.553,9.656c-31.138,7.789-98.748,23.209-128.616,32.816c-6.653,2.119-13.81,4.646-20.273,7.298
			c-12.548,5.105-24.505,11.797-35.572,19.598c-3.537-1.616-7.632-3.254-10.95-5.263c-4.332-2.613-8.873-5.802-13.591-7.66
			c-3.936-1.6-8.209-2.371-12.452-2.389c-0.844,0.008-1.705,0.044-2.536,0.197c-0.335,0.068-0.68,0.145-0.978,0.319l-0.017,0.011
			l-0.017,0.011l-0.016,0.011l-0.016,0.011l-0.015,0.011l-0.014,0.011l-0.014,0.011l-0.013,0.011l-0.013,0.011l-0.012,0.012
			l-0.012,0.012l-0.011,0.012l-0.011,0.012l-0.01,0.012l-0.009,0.012l-0.009,0.012l-0.008,0.012l-0.008,0.012l-0.007,0.012
			l-0.007,0.012l-0.006,0.013l-0.005,0.013l-0.005,0.013l-0.004,0.013l-0.004,0.013L68,386.561l-0.003,0.013l-0.002,0.013
			l-0.001,0.013l-0.001,0.013l0,0.014l0,0.011l0.001,0.011l0.001,0.011l0.002,0.011l0.002,0.011l0.002,0.011l0.003,0.012
			l0.003,0.012l0.003,0.012l0.004,0.012l0.004,0.012l0.005,0.012l0.005,0.012l0.005,0.012l0.006,0.012l0.006,0.012l0.006,0.012
			l0.007,0.012l0.007,0.012l0.008,0.012c0.075,0.12,0.177,0.223,0.28,0.319c0.416,0.396,1.569,1.133,2.051,1.486
			c1.391,0.995,2.791,2.142,3.52,3.729c0.436,0.962,0.579,2.034,0.581,3.083c-0.018,3.314-1.265,6.854-1.783,10.108
			c-0.134,0.861-0.23,1.746-0.189,2.618c0.044,1.131,0.413,2.228,0.939,3.223c0.538,1.067,1.411,2.194,1.692,3.371
			c0.112,0.476,0.088,0.977-0.031,1.449c-0.119,0.484-0.322,0.949-0.545,1.394c-0.441,0.894-1.532,2.588-2.046,3.454
			c-0.843,1.418-1.604,2.912-2.131,4.478c-0.701,2.083-1.067,4.286-1.289,6.468c-0.44,4.506-0.271,9.159,0.043,13.671
			c0.149,2.391,0.801,8.189,0.897,10.579c0.066,1.662-0.05,3.351-0.487,4.961c-0.521,1.979-1.477,3.839-2.445,5.632
			c-0.929,1.745-2.863,4.89-3.536,6.707c-0.097,0.283-0.189,0.577-0.192,0.879l0,0.02l0.001,0.02l0.001,0.019l0.001,0.019
			l0.002,0.019l0.002,0.018l0.003,0.018l0.003,0.018l0.003,0.017l0.004,0.017c0.029,0.137,0.117,0.26,0.243,0.322
			c0.178,0.09,0.386,0.089,0.581,0.072c0.661-0.08,1.289-0.352,1.893-0.622c1.418-0.662,2.759-1.538,4.032-2.447
			c6.14-4.494,11.312-10.229,15.961-16.218c6.621-8.643,12.603-18.014,17.904-27.518l2.777-5.181c0.838-1.487,1.74-3.057,3.2-4.015
			c0.815-0.535,1.772-0.807,2.73-0.945c2.547-0.385,7.246,0.077,9.877,0.162c4.187,0.198,8.528,0.022,12.705-0.298
			c13.388-1.068,34.62-4.083,47.944-4.664c10.948-0.541,22.249-0.274,33.153,0.837c8.496,0.82,17.29,2.454,25.595,4.454
			c5.462,1.258,11.173,2.298,16.799,2.006c8.85-0.412,19.738-2.794,28.58-3.296c10.887-0.705,22.045,0.225,32.874,1.406l36,4.403
			c43.113,4.905,93.624,2.774,137.117,2.232c-0.746,0.869-1.574,1.929-2.269,2.845l-5.117,6.941
			c-4.418,5.82-9.233,11.534-14.528,16.575c-2.256,2.137-4.69,4.233-7.207,6.054c-1.887,1.373-3.953,2.636-5.988,3.78l-5.112,2.801
			c-0.965,0.555-1.966,1.129-2.821,1.845c-0.335,0.287-0.658,0.604-0.88,0.988c-0.204,0.346-0.284,0.773-0.164,1.162
			c0.124,0.418,0.425,0.759,0.765,1.02c1.143,0.845,2.662,1.049,4.045,1.16c3.426,0.202,6.899-0.294,10.273-0.855
			c6.177-1.088,12.471-2.766,18.458-4.635c5.853-1.847,11.688-4.079,17.182-6.824c5.587-2.786,10.963-6.197,15.829-10.112
			c4.466-3.583,8.653-7.749,12.575-11.915l11.981-13.239c13.168-1.226,28.397-4.794,41.458-7.02
			c5.917-0.993,12.1-1.582,18.093-1.827c7.885-0.328,22.505-0.442,30.228-1.104c11.535-0.927,23.431-2.268,34.732-4.782
			c2.197-0.551,4.556-1.126,6.482-2.353c0.577-0.38,1.101-0.858,1.458-1.454C673.336,403.619,673.53,402.683,673.744,401.807z"/>
	</g>
</g>
</svg>
