<?xml version="1.0" encoding="utf-8"?>
<!-- Generator: Adobe Illustrator 26.3.1, SVG Export Plug-In . SVG Version: 6.00 Build 0)  -->
<!DOCTYPE svg PUBLIC "-//W3C//DTD SVG 1.1//EN" "http://www.w3.org/Graphics/SVG/1.1/DTD/svg11.dtd" [
	<!ENTITY ns_extend "http://ns.adobe.com/Extensibility/1.0/">
	<!ENTITY ns_ai "http://ns.adobe.com/AdobeIllustrator/10.0/">
	<!ENTITY ns_graphs "http://ns.adobe.com/Graphs/1.0/">
	<!ENTITY ns_vars "http://ns.adobe.com/Variables/1.0/">
	<!ENTITY ns_imrep "http://ns.adobe.com/ImageReplacement/1.0/">
	<!ENTITY ns_sfw "http://ns.adobe.com/SaveForWeb/1.0/">
	<!ENTITY ns_custom "http://ns.adobe.com/GenericCustomNamespace/1.0/">
	<!ENTITY ns_adobe_xpath "http://ns.adobe.com/XPath/1.0/">
]>
<svg version="1.1" xmlns:x="&ns_extend;" xmlns:i="&ns_ai;" xmlns:graph="&ns_graphs;"
	 xmlns="http://www.w3.org/2000/svg" xmlns:xlink="http://www.w3.org/1999/xlink" x="0px" y="0px" width="750px" height="750px"
	 viewBox="0 0 750 750" enable-background="new 0 0 750 750" xml:space="preserve">
<metadata>
	<sfw  xmlns="&ns_sfw;">
		<slices></slices>
		<sliceSourceBounds  bottomLeftOrigin="true" height="15987.621" width="4437" x="-2000" y="-6814"></sliceSourceBounds>
	</sfw>
</metadata>
<g id="FILL-BACKGROUND">
	<rect y="0" fill="#FFFFFF" width="750" height="750"/>
</g>
<g id="N-DIMENSIONS">
</g>
<g id="N-TEXT">
</g>
<g id="_x32_D_x24_AG-DETAILS-DIAGRAM">
</g>
<g id="_x32_D_x24_AG-DETAILS">
</g>
<g id="_x32_D_x24_AG-ANIMALS">
	<g id="POLYLINE_00000018210463917694216490000013639568498536841102_">
		
			<path fill="none" stroke="#FB8604" stroke-width="2.75" stroke-linecap="round" stroke-linejoin="round" stroke-miterlimit="10" d="
			M504.697,414.807c7.453,0.202,15.783,1.383,23.238,1.639c16.453,0.597,33.216,0.109,49.575-1.806
			c5.875-0.716,11.984-1.825,17.763-3.096c5.483-1.21,14.853-3.557,20.269-4.297c6.603-0.97,13.372-0.794,19.974,0.109
			c14.306,2.101,32.503,6.408,46.706,9.298c1.117,0.19,2.27,0.35,3.403,0.231c0.567-0.062,1.132-0.209,1.63-0.492
			c0.835-0.48,1.505-1.281,1.772-2.212c0.083-0.3,0.104-0.62,0.041-0.926c-0.074-0.388-0.276-0.744-0.471-1.082"/>
	</g>
	<g id="POLYLINE_00000110449494982182048700000018288122927952816565_">
		
			<path fill="none" stroke="#FB8604" stroke-width="2.75" stroke-linecap="round" stroke-linejoin="round" stroke-miterlimit="10" d="
			M155.709,419.228c12.187-1.214,26.481-2.674,38.408-4.893c17.603-3.179,47.944-10.687,65.627-14.324
			c16.756-3.403,33.953-6.355,51.104-5.974c6.127,0.142,12.313,0.83,18.332,1.978c12.799,2.448,28.75,7.503,41.426,10.691
			c17.357,4.462,35.398,8.123,53.277,9.52"/>
	</g>
	<g id="POLYLINE_00000108292281632440374980000010981653646332027324_">
		
			<path fill="none" stroke="#FB8604" stroke-width="2.75" stroke-linecap="round" stroke-linejoin="round" stroke-miterlimit="10" d="
			M448.833,403.408c-2.122-0.3-4.291-0.272-6.418-0.036c-2.786,0.318-5.567,0.987-8.177,2.016c-1.629,0.649-3.218,1.455-4.618,2.518
			c-1.104,0.835-2.083,1.84-2.898,2.959c-0.98,1.335-1.742,2.842-2.41,4.354c-1.788,4.218-3.512,9.264-5.617,13.323
			c-1.49,2.921-3.257,5.782-5.13,8.472c-4.014,5.715-8.68,11.056-14.033,15.556c-2.218,1.883-5.394,4.154-7.571,6.082
			c-0.516,0.47-1.035,0.971-1.459,1.527c-0.438,0.573-0.824,1.291-0.609,2.024c0.148,0.505,0.522,0.907,0.931,1.222
			c0.73,0.555,1.592,0.916,2.452,1.222c2.89,0.981,5.986,1.342,9.017,1.576c5.199,0.355,10.5,0.146,15.681-0.381
			c14.875-1.588,29.446-5.973,43.136-11.927c12.128-5.388,23.949-12.2,33.28-21.758c2.842-2.941,5.483-6.155,7.515-9.715
			c1.307-2.32,2.405-4.828,2.772-7.483c0.19-1.42,0.147-2.895-0.291-4.267c-0.35-1.108-0.968-2.129-1.787-2.953
			c-1.296-1.3-2.984-2.143-4.709-2.721c-2.287-0.747-4.727-1.065-7.128-0.895"/>
	</g>
	<g id="POLYLINE_00000048477950282060889380000004374515107004885668_">
		
			<path fill="none" stroke="#FB8604" stroke-width="2.75" stroke-linecap="round" stroke-linejoin="round" stroke-miterlimit="10" d="
			M172.326,401.758c-5.853,7.424-12.51,14.295-19.902,20.197c-6.483,5.194-13.618,9.645-21.079,13.291
			c-9.352,4.579-19.319,8.003-29.437,10.439c-7.26,1.678-14.755,3.176-22.229,3.217c-1.552-0.023-3.137-0.108-4.644-0.504
			c-0.732-0.202-1.473-0.476-2.059-0.973c-0.26-0.224-0.482-0.506-0.588-0.836c-0.089-0.27-0.091-0.564-0.027-0.84
			c0.084-0.37,0.262-0.714,0.465-1.032c0.358-0.553,0.811-1.051,1.273-1.52c2.808-2.741,7.546-6.092,10.449-8.736
			c2.489-2.176,4.759-4.654,6.74-7.301c2.517-3.321,5.325-7.538,8.487-10.229c1.685-1.454,3.936-2.783,5.709-4.131
			c0.383-0.304,0.762-0.629,1.079-1.002c0.4-0.458,0.685-1.049,0.647-1.669c-0.02-0.42-0.179-0.826-0.426-1.164
			c-0.26-0.36-0.618-0.637-0.977-0.893c-0.624-0.439-1.309-0.871-1.821-1.44c-0.367-0.397-0.648-0.868-0.847-1.369
			c-0.348-0.873-0.526-1.82-0.682-2.744c-0.358-2.244-0.596-4.786-1.315-6.942c-0.672-2.146-2.064-3.972-3.578-5.599
			c-1.128-1.255-2.928-2.879-3.687-4.396c-0.271-0.562-0.458-1.192-0.394-1.82c0.036-0.343,0.173-0.698,0.464-0.903
			c0.257-0.18,0.584-0.214,0.89-0.201c0.831,0.052,1.635,0.351,2.415,0.623c1.501,0.568,3.456,1.348,4.972,1.837
			c1.8,0.584,3.792,1.112,5.633,1.562c3.603,0.837,11.915,2.687,15.354,3.649c5.677,1.532,11.897,3.567,17.471,5.485"/>
	</g>
	<g id="POLYLINE_00000074414415492303648050000011665592466675255719_">
		
			<path fill="none" stroke="#FB8604" stroke-width="2.75" stroke-linecap="round" stroke-linejoin="round" stroke-miterlimit="10" d="
			M128.732,410.032c1.996-1.89,4.845-4.474,6.601-6.543c1.565-1.781,2.948-3.795,4.201-5.807c2.048-3.316,4.962-8.314,7.223-11.402
			c1.748-2.44,3.709-4.81,5.832-6.933c4.305-4.307,9.28-7.988,14.38-11.298c7.806-5.043,16.41-9.443,24.81-13.421
			c4.836-2.218,27.383-12.434,31.491-14.501c8.261-4.01,17.995-9.019,26.089-13.363c13.672-7.107,43.372-24.926,57.05-32.996
			c3.356-1.929,7.677-4.461,11.088-6.207c1.979-1.014,4.048-1.979,6.171-2.644c2.915-0.934,6.005-1.244,9.055-1.234
			c7.201,0.057,14.473,1.324,21.518,2.742c21.418,4.38,46.909,13.721,68.035,19.446c3.318,0.897,10.019,2.604,13.36,3.402
			c9.409,2.163,36.317,8.12,45.098,10.445c9.361,2.426,19.563,5.397,28.695,8.537c4.909,1.676,10.482,3.78,15.306,5.732
			c6.536,2.626,14.535,6.076,21.219,8.087c3.529,1.071,7.196,1.911,10.869,2.273c4.745,0.519,10.327,0.328,15.085,0.735
			c2.093,0.181,4.195,0.558,6.196,1.203c2.786,0.861,5.853,2.34,8.624,3.252c3.348,1.161,7.433,1.169,10.944,1.429
			c4.896,0.359,9.766,1.482,14.322,3.312c3.138,1.283,6.206,2.92,8.689,5.258c2.148,2.026,3.669,4.666,4.518,7.483
			c0.83,2.708,1.066,5.58,0.904,8.4c-0.049,1.345-0.332,3.312-0.105,4.629c0.068,0.357,0.196,0.707,0.406,1.005
			c0.225,0.325,0.538,0.58,0.87,0.791c0.642,0.404,1.375,0.693,2.08,0.968c1.258,0.457,3.791,1.4,5.034,1.88
			c16.668,6.806,34.948,13.896,52.015,19.43c0.939,0.356,1.894,0.781,2.609,1.508c0.803,0.825,1.27,1.95,1.396,3.088
			c0.107,0.957-0.105,1.982-0.742,2.725c-0.256,0.301-0.581,0.551-0.953,0.689c-0.309,0.116-0.646,0.142-0.973,0.116
			c-0.307-0.024-0.617-0.092-0.915-0.171c-1.493-0.442-3.312-1.142-4.806-1.579c-5.215-1.63-15.729-4.277-21.136-5.684
			c-6.586-1.643-16.797-4.188-23.382-5.486c-6.697-1.441-20.04-3.457-26.385-5.829c-1.081-0.415-2.158-0.911-3.143-1.523
			c-1.197-0.743-2.129-1.576-3.196-2.394c-0.829-0.637-1.716-1.23-2.656-1.689c-1.164-0.569-2.416-0.977-3.672-1.289
			c-2.644-0.636-5.409-0.889-8.121-0.66"/>
	</g>
</g>
<g id="_x32_D_x24_AG-OUTLINE">
	<g id="POLYLINE_00000044169407392468524400000004294581857533281716_">
		
			<path fill="none" stroke="#FB8604" stroke-width="3.5" stroke-linecap="round" stroke-linejoin="round" stroke-miterlimit="10" d="
			M140.681,395.814c3.448-5.775,7.097-11.723,11.908-16.467c4.304-4.307,9.28-7.988,14.38-11.298
			c7.807-5.043,16.41-9.443,24.81-13.421c4.836-2.218,27.383-12.434,31.491-14.501c8.261-4.01,17.995-9.019,26.089-13.363
			c13.672-7.107,43.372-24.926,57.05-32.996c3.356-1.929,7.677-4.461,11.088-6.207c1.979-1.014,4.048-1.979,6.171-2.644
			c2.915-0.934,6.005-1.244,9.055-1.234c7.201,0.057,14.473,1.324,21.518,2.742c21.418,4.38,46.909,13.721,68.035,19.446
			c3.318,0.897,10.019,2.604,13.36,3.402c9.409,2.163,36.317,8.12,45.098,10.445c9.361,2.426,19.563,5.397,28.695,8.537
			c4.909,1.676,10.482,3.78,15.306,5.732c6.536,2.626,14.535,6.076,21.219,8.087c3.529,1.071,7.196,1.911,10.869,2.273
			c4.745,0.519,10.327,0.328,15.085,0.735c2.093,0.181,4.195,0.558,6.196,1.203c2.786,0.861,5.853,2.34,8.624,3.252
			c3.348,1.161,7.433,1.169,10.944,1.429c4.896,0.359,9.766,1.482,14.322,3.312c3.138,1.283,6.206,2.92,8.689,5.258
			c2.148,2.026,3.669,4.666,4.518,7.483c0.83,2.708,1.066,5.58,0.904,8.4c-0.049,1.345-0.332,3.312-0.105,4.629
			c0.068,0.357,0.196,0.707,0.406,1.005c0.225,0.325,0.538,0.58,0.87,0.791c0.642,0.404,1.375,0.693,2.08,0.968
			c1.258,0.457,3.791,1.4,5.034,1.88c8.754,3.515,22.348,9.009,31.084,12.179c5.767,2.097,13.698,4.859,19.516,6.76
			c0.604,0.208,1.365,0.453,1.945,0.701c0.801,0.334,1.592,0.759,2.183,1.407c0.65,0.715,1.058,1.633,1.235,2.579
			c0.17,0.914,0.094,1.906-0.393,2.715c-0.306,0.516-0.776,0.961-1.359,1.137c0.228,0.393,0.46,0.813,0.5,1.274
			c0.039,0.395-0.06,0.791-0.218,1.151c-0.35,0.786-0.97,1.453-1.732,1.854c-0.488,0.255-1.033,0.385-1.578,0.44
			c-1.115,0.107-2.249-0.05-3.347-0.237c-14.218-2.893-32.384-7.194-46.706-9.298c-6.601-0.902-13.37-1.078-19.974-0.108
			c-5.423,0.732-14.86,3.112-20.269,4.297c-5.777,1.272-11.891,2.381-17.763,3.096c-16.357,1.914-33.122,2.403-49.575,1.806
			c-7.459-0.256-15.778-1.437-23.238-1.639c-0.343,2.711-1.46,5.271-2.791,7.635c-2.801,4.877-6.664,9.106-10.801,12.885
			c-10.845,9.751-24.121,16.499-37.647,21.722c-15.023,5.643-31.009,9.515-47.132,9.342c-3.059-0.054-6.203-0.252-9.218-0.784
			c-1.736-0.319-3.496-0.725-5.101-1.476c-0.782-0.385-1.641-0.884-2.027-1.697c-0.141-0.306-0.182-0.656-0.115-0.987
			c0.079-0.398,0.28-0.76,0.509-1.09c0.655-0.917,1.537-1.671,2.39-2.4c3.697-2.995,7.695-5.871,11.047-9.295
			c4.671-4.663,8.826-9.907,12.297-15.521c1.395-2.266,2.704-4.695,3.801-7.12c1.319-2.888,2.77-6.845,3.974-9.795
			c-17.877-1.397-35.918-5.058-53.277-9.52c-11.795-2.976-27.282-7.771-39.14-10.24c-6.308-1.306-12.802-2.167-19.241-2.387
			c-17.611-0.589-35.277,2.442-52.48,5.931c-17.731,3.648-47.932,11.131-65.627,14.324c-11.921,2.218-26.295,3.687-38.408,4.893
			c-13.731,11.943-30.488,20.052-47.944,24.931c-5.492,1.535-11.307,2.855-16.94,3.746c-3.666,0.562-7.433,1.014-11.146,0.997
			c-1.552-0.022-3.137-0.108-4.644-0.504c-0.732-0.202-1.473-0.476-2.059-0.973c-0.279-0.24-0.514-0.548-0.609-0.908
			c-0.087-0.317-0.053-0.656,0.048-0.966c0.356-1.032,1.245-1.92,2.01-2.675c2.718-2.554,7.36-5.909,10.122-8.415
			c2.489-2.176,4.759-4.654,6.74-7.301c2.517-3.321,5.325-7.538,8.487-10.229c1.685-1.454,3.936-2.783,5.709-4.131
			c0.383-0.304,0.762-0.629,1.079-1.002c0.4-0.458,0.685-1.049,0.647-1.669c-0.02-0.42-0.179-0.826-0.426-1.164
			c-0.26-0.36-0.618-0.637-0.977-0.893c-0.624-0.439-1.309-0.871-1.821-1.44c-0.367-0.397-0.648-0.868-0.847-1.369
			c-0.348-0.873-0.526-1.82-0.682-2.744c-0.358-2.244-0.596-4.786-1.315-6.942c-0.672-2.146-2.064-3.972-3.578-5.599
			c-1.128-1.255-2.928-2.879-3.687-4.396c-0.271-0.562-0.458-1.192-0.394-1.82c0.036-0.343,0.173-0.698,0.464-0.903
			c0.257-0.18,0.584-0.214,0.89-0.201c0.831,0.052,1.635,0.351,2.415,0.623c1.501,0.568,3.456,1.348,4.972,1.837
			c1.8,0.584,3.792,1.112,5.633,1.562c3.603,0.837,11.915,2.687,15.354,3.649C128.887,391.86,135.106,393.895,140.681,395.814z"/>
	</g>
</g>
</svg>
