<?xml version="1.0" encoding="utf-8"?>
<!-- Generator: Adobe Illustrator 26.3.1, SVG Export Plug-In . SVG Version: 6.00 Build 0)  -->
<!DOCTYPE svg PUBLIC "-//W3C//DTD SVG 1.1//EN" "http://www.w3.org/Graphics/SVG/1.1/DTD/svg11.dtd" [
	<!ENTITY ns_extend "http://ns.adobe.com/Extensibility/1.0/">
	<!ENTITY ns_ai "http://ns.adobe.com/AdobeIllustrator/10.0/">
	<!ENTITY ns_graphs "http://ns.adobe.com/Graphs/1.0/">
	<!ENTITY ns_vars "http://ns.adobe.com/Variables/1.0/">
	<!ENTITY ns_imrep "http://ns.adobe.com/ImageReplacement/1.0/">
	<!ENTITY ns_sfw "http://ns.adobe.com/SaveForWeb/1.0/">
	<!ENTITY ns_custom "http://ns.adobe.com/GenericCustomNamespace/1.0/">
	<!ENTITY ns_adobe_xpath "http://ns.adobe.com/XPath/1.0/">
]>
<svg version="1.1" xmlns:x="&ns_extend;" xmlns:i="&ns_ai;" xmlns:graph="&ns_graphs;"
	 xmlns="http://www.w3.org/2000/svg" xmlns:xlink="http://www.w3.org/1999/xlink" x="0px" y="0px" width="750px" height="750px"
	 viewBox="0 0 750 750" enable-background="new 0 0 750 750" xml:space="preserve">
<metadata>
	<sfw  xmlns="&ns_sfw;">
		<slices></slices>
		<sliceSourceBounds  bottomLeftOrigin="true" height="15987.621" width="4437" x="-2000" y="-6814"></sliceSourceBounds>
	</sfw>
</metadata>
<g id="FILL-BACKGROUND">
	<rect y="0" fill="#FFFFFF" width="750" height="750"/>
</g>
<g id="N-DIMENSIONS">
</g>
<g id="N-TEXT">
</g>
<g id="_x32_D_x24_AG-DETAILS-DIAGRAM">
</g>
<g id="_x32_D_x24_AG-DETAILS">
	<g id="POLYLINE_00000158717077805915007850000007103662558854753427_">
		<path fill="none" stroke="#FB8604" stroke-width="2" stroke-linecap="round" stroke-linejoin="round" stroke-miterlimit="10" d="
			M163.571,418.317c27.49,2.349,55.642,2.147,83.115-0.247c20.144-1.746,40.63-4.506,60.333-9.101
			c22.806-5.271,51.498-15.675,74.219-21.301c19.047-4.767,38.722-8.248,58.4-8.324c13.902-0.053,27.946,1.61,41.594,4.211
			c13.285,2.622,26.815,5.891,39.663,10.182c3.982,1.373,8.099,2.929,11.894,4.759c2.617,1.266,5.222,2.708,7.563,4.44
			c2.96,2.172,5.554,4.902,7.342,8.122c1.639,2.94,2.719,6.415,4.958,8.988"/>
	</g>
	<g id="POLYLINE_00000135687987316214238070000005459195104660940990_">
		<path fill="none" stroke="#FB8604" stroke-width="2" stroke-linecap="round" stroke-linejoin="round" stroke-miterlimit="10" d="
			M578.442,426.731c4.241-0.073,8.537-0.38,12.698-1.228c4.441-0.921,8.967-2.639,12.052-6.098c2.76-3.1,4.251-7.3,6.179-10.922
			c1.043-1.975,2.295-3.895,4.011-5.351c2.251-1.947,5.069-3.144,7.955-3.791c3.002-0.666,6.139-0.82,9.189-0.424
			c2.1,0.273,4.189,0.817,6.161,1.585c2.425,0.917,5.834,2.848,8.156,4.045c1.961,1.001,4.003,1.95,6.14,2.502
			c2.029,0.527,4.164,0.684,6.255,0.735l5.503,0.059c6.163,0.075,12.108,2.119,17.774,4.384"/>
	</g>
</g>
<g id="_x32_D_x24_AG-ANIMALS">
	<g id="POLYLINE_00000007399511965672685860000015254509062317031040_">
		
			<path fill="none" stroke="#FB8604" stroke-width="2.75" stroke-linecap="round" stroke-linejoin="round" stroke-miterlimit="10" d="
			M598.68,416.745c-2.627-1.067-5.032-2.703-6.981-4.762c-1.089-1.161-2.037-2.481-2.679-3.942
			c-0.546-1.246-0.856-2.598-0.929-3.956c-0.089-1.844,0.214-3.758,1.128-5.38c0.568-1.02,1.49-1.99,2.024-3.03
			c0.684-1.297,0.648-2.956,0.795-4.384c0.119-1.274,0.343-2.57,0.92-3.724c0.649-1.299,1.692-2.362,2.81-3.27
			c1.519-1.215,3.239-2.189,5.035-2.932c0.923-0.374,1.884-0.695,2.871-0.845c0.692-0.107,1.405-0.113,2.103-0.066l1.05,0.082"/>
	</g>
	<g id="POLYLINE_00000006697856427099125470000005968388989712415667_">
		
			<path fill="none" stroke="#FB8604" stroke-width="2.75" stroke-linecap="round" stroke-linejoin="round" stroke-miterlimit="10" d="
			M651.181,424.914c5.525,1.098,11.515,1.2,16.696-1.276c3.142-1.489,5.908-3.699,8.332-6.172c3.19-3.275,5.838-7.108,7.7-11.285
			c1.491-3.313,2.916-7.744,4.083-11.194c0.728-2.376,1.371-4.883,1.075-7.384c-0.136-1.121-0.489-2.218-1.035-3.206
			c-1.194-2.125-3.055-3.794-4.959-5.274c-3.6-2.737-7.683-4.87-11.779-6.762c-8.162-3.642-37.547-15.077-46.135-18.446
			c-2.69-0.988-5.671-2.058-8.435-2.821c-3.214-0.909-6.617-1.565-9.93-1.981c-6.984-0.868-18.33-1.458-25.275-2.482
			c-7.315-1.014-19.672-4.023-26.944-5.6c-19.112-3.964-39.465-6.285-58.921-7.978c-25.781-2.066-52.547-2.769-78.358-1.126
			c-3.786,0.266-11.052,1.065-14.69,0.997c-2.123-0.028-4.262-0.267-6.308-0.846c-2.16-0.607-4.228-1.568-6.179-2.668
			c-2.555-1.448-4.991-3.193-7.273-5.04c-3.302-2.635-6.961-6.435-10.157-9.213c-3.261-2.834-6.954-5.185-10.757-7.218
			c-4.008-2.136-8.221-4.001-12.527-5.449c-3.621-1.189-7.397-2.178-11.225-2.282c-1.215-0.008-2.481,0.043-3.614,0.523
			c-0.308,0.137-0.603,0.318-0.834,0.565c-0.22,0.233-0.377,0.526-0.442,0.841c-0.156,0.739,0.186,1.466,0.678,2.002
			c0.828,0.904,2.105,1.688,3.096,2.414c1.264,0.899,2.496,1.891,3.573,3.009c2.1,2.165,3.84,4.709,4.992,7.502
			c1.02,2.479,1.537,5.205,1.225,7.881c-0.512,4.303-2.627,8.271-5.256,11.654c-1.643,2.069-3.529,3.998-5.76,5.433
			c-1.35,0.867-2.845,1.507-4.369,1.997c-0.816,0.276-1.797,0.523-2.632,0.745c0,0-0.979,0.242-0.979,0.242l-72.758,17.244
			c-17.75,4.412-42.489,9.803-59.657,15.702c-7.611,2.655-15.255,6.048-22.496,9.585c-8.461,4.202-16.938,8.829-24.501,14.52
			c-6.095,4.571-11.53,10.097-16.552,15.809"/>
	</g>
	<g id="POLYLINE_00000144322382328557991890000014139510867395405503_">
		
			<path fill="none" stroke="#FB8604" stroke-width="2.75" stroke-linecap="round" stroke-linejoin="round" stroke-miterlimit="10" d="
			M168.528,413.648c-0.075,0.431-0.056,0.908-0.194,1.327c-0.1,0.321-0.293,0.607-0.526,0.847c-0.466,0.477-1.04,0.844-1.612,1.183
			c-2.871,1.619-6.162,2.748-9.256,3.876c-8.052,2.746-23.433,7.795-31.088,10.87c-6.612,2.63-22.914,9.382-29.387,11.526
			c-5.673,1.951-11.556,3.7-17.464,4.769c-3.217,0.575-6.536,0.959-9.801,1.103c-1.953,0.076-3.969,0.093-5.913-0.114
			c-0.569-0.066-1.158-0.15-1.712-0.3c-0.281-0.078-0.567-0.17-0.818-0.322l-0.022-0.014l-0.021-0.014l-0.021-0.014l-0.02-0.014
			l-0.019-0.014l-0.019-0.014l-0.018-0.015l-0.017-0.015l-0.016-0.015l-0.016-0.015l-0.015-0.015l-0.014-0.015l-0.013-0.015
			l-0.013-0.015l-0.012-0.015l-0.011-0.016l-0.01-0.016l-0.01-0.016l-0.009-0.016l-0.008-0.016l-0.007-0.016l-0.006-0.016
			l-0.006-0.016l-0.005-0.016l-0.004-0.016l-0.003-0.017l-0.003-0.017l-0.002-0.017l-0.001-0.017l0-0.017l0.001-0.017l0.001-0.017
			l0.002-0.015l0.003-0.015l0.003-0.015l0.004-0.015l0.004-0.016l0.005-0.016l0.006-0.016l0.006-0.016l0.007-0.016l0.007-0.016
			l0.008-0.016l0.009-0.016l0.009-0.016l0.01-0.016l0.01-0.016l0.011-0.016l0.012-0.016l0.012-0.017l0.013-0.017l0.013-0.017
			c0.211-0.252,0.492-0.437,0.767-0.611c1.629-1.003,6.594-2.966,8.395-3.786c3.308-1.44,6.462-3.31,9.36-5.457
			c1.949-1.441,5.658-4.296,7.645-5.574c1.651-1.095,3.461-2.099,5.228-2.998c2.62-1.365,6.898-3.206,9.244-4.938
			c0.348-0.27,0.688-0.564,0.955-0.916c0.183-0.243,0.326-0.527,0.359-0.832c0.035-0.297-0.046-0.603-0.214-0.849
			c-0.147-0.219-0.352-0.395-0.577-0.529c-0.653-0.378-1.497-0.515-2.216-0.718c-0.517-0.144-1.047-0.308-1.481-0.633
			c-0.482-0.359-0.851-0.928-1.225-1.392c-0.347-0.438-0.746-0.843-1.208-1.16c-0.498-0.348-1.064-0.595-1.632-0.802
			c-0.865-0.314-1.816-0.553-2.712-0.767c-1.136-0.271-3.325-0.684-4.401-1.061c-0.197-0.073-0.397-0.151-0.569-0.274l-0.013-0.009
			l-0.012-0.009l-0.012-0.01l-0.011-0.01l-0.011-0.01l-0.01-0.01l-0.01-0.01l-0.009-0.01l-0.009-0.01l-0.009-0.01l-0.008-0.01
			l-0.008-0.01l-0.007-0.01l-0.007-0.01l-0.007-0.01l-0.006-0.01l-0.006-0.011l-0.005-0.011l-0.004-0.011l-0.004-0.011l-0.003-0.011
			l-0.003-0.011l-0.002-0.011l-0.002-0.011l-0.001-0.011l-0.001-0.011l0-0.011l0-0.011l0.001-0.011l0.001-0.011l0.002-0.011
			l0.002-0.011l0.003-0.011l0.003-0.011l0.004-0.011l0.004-0.011l0.005-0.011l0.005-0.011l0.006-0.011l0.006-0.011l0.007-0.011
			l0.007-0.011l0.008-0.011l0.008-0.011l0.009-0.011l0.009-0.011l0.01-0.011l0.01-0.011l0.011-0.011l0.011-0.011l0.011-0.011
			l0.012-0.011c0.163-0.15,0.365-0.254,0.564-0.349c0.467-0.215,0.97-0.372,1.464-0.511c3.158-0.83,6.457-1.16,9.716-1.234
			c5.071-0.145,13.147,0.911,18.26,1.389c3.078,0.276,6.264,0.441,9.351,0.289c4.018-0.184,8.07-0.812,11.998-1.661"/>
	</g>
	<g id="POLYLINE_00000167362529251583466220000003357044640391290281_">
		
			<path fill="none" stroke="#FB8604" stroke-width="2.75" stroke-linecap="round" stroke-linejoin="round" stroke-miterlimit="10" d="
			M580.447,425.013c-1.372,1.235-2.791,2.494-4.476,3.284c-1.257,0.575-2.725,0.815-3.997,1.353
			c-1.129,0.456-2.166,1.121-3.108,1.888c-1.468,1.191-2.849,2.61-4.145,3.986c-5.196,5.619-11.474,13.36-17.071,18.523
			c-7.869,7.4-17.389,13.127-27.749,16.248c-3.998,1.211-8.186,2.074-12.337,2.534c-2.648,0.283-5.374,0.443-8.034,0.263
			c-1.331-0.102-2.689-0.269-3.953-0.717c-0.609-0.225-1.22-0.522-1.656-1.016l-0.025-0.029l-0.024-0.029l-0.023-0.029l-0.022-0.03
			l-0.022-0.03l-0.021-0.03l-0.02-0.03l-0.02-0.031l-0.019-0.031l-0.018-0.031l-0.018-0.031l-0.017-0.032l-0.016-0.032l-0.016-0.032
			l-0.015-0.032l-0.014-0.033l-0.013-0.033l-0.012-0.03l-0.011-0.031l-0.01-0.031l-0.01-0.031l-0.009-0.031l-0.009-0.031
			l-0.008-0.032l-0.007-0.032l-0.007-0.032l-0.006-0.032l-0.006-0.032l-0.005-0.033l-0.004-0.033l-0.004-0.033l-0.003-0.033
			c-0.057-0.72,0.241-1.413,0.572-2.036c0.944-1.684,2.317-3.151,3.608-4.575c1.518-1.616,5.157-5.394,6.541-7.024
			c1.608-1.825,6.285-7.592,7.902-9.554c2.909-3.456,6.067-6.809,9.63-9.598c4.509-3.53,9.684-6.292,14.789-8.854
			c3.554-1.789,10.445-4.925,13.74-7.023c2.309-1.414,4.599-3.448,6.711-5.14"/>
	</g>
	<g id="POLYLINE_00000080893130415643338090000008256771548576013496_">
		
			<path fill="none" stroke="#FB8604" stroke-width="2.75" stroke-linecap="round" stroke-linejoin="round" stroke-miterlimit="10" d="
			M142.56,425.734c1.768,1.128,3.66,2.317,5.586,3.134c1.894,0.827,3.921,1.4,5.95,1.786c5.947,1.094,12.197,1.226,18.235,1.329
			c15.338,0.079,36.24-0.7,51.547-0.272c31.945,0.768,89.606,4.776,121.971,6.655l84.494,6.97
			c11.822,0.783,25.475,1.462,37.272,1.57c14.668,0.179,31.05-0.364,45.731-1.185"/>
	</g>
	<g id="POLYLINE_00000126292985292546748950000018168374620862453169_">
		
			<path fill="none" stroke="#FB8604" stroke-width="2.75" stroke-linecap="round" stroke-linejoin="round" stroke-miterlimit="10" d="
			M559.165,441.763c11.353-1.228,40.988-5.689,52.705-7.384c14.092-1.856,30.171-3.643,44.315-4.637
			c1.109-0.126,2.228-0.328,3.267-0.746c2.102-0.862,3.845-2.437,5.265-4.181"/>
	</g>
</g>
<g id="_x32_D_x24_AG-OUTLINE">
	<g id="POLYLINE_00000125572306607117844660000016550760526189953453_">
		
			<path fill="none" stroke="#FB8604" stroke-width="3.5" stroke-linecap="round" stroke-linejoin="round" stroke-miterlimit="10" d="
			M559.165,441.763c11.353-1.228,40.988-5.689,52.705-7.384c14.092-1.856,30.171-3.643,44.315-4.637
			c1.109-0.126,2.228-0.328,3.267-0.746c2.102-0.862,3.845-2.437,5.265-4.181c4.309-1.192,8.039-3.902,11.172-7.024
			c2.203-2.212,4.17-4.701,5.796-7.367c1.246-2.044,2.289-4.247,3.165-6.474c0.804-1.978,2.109-5.943,2.826-7.979
			c0.556-1.699,1.09-3.469,1.333-5.243c0.184-1.319,0.206-2.68-0.087-3.985c-0.266-1.221-0.814-2.372-1.542-3.384
			c-0.99-1.384-2.245-2.572-3.558-3.647c-1.972-1.603-4.163-2.992-6.373-4.243c-2.831-1.597-5.918-3.041-8.903-4.329
			c-3.071-1.348-36.269-14.452-40.251-16.038c-2.575-0.979-5.902-2.243-8.525-3.086c-2.997-0.978-6.164-1.801-9.27-2.347
			c-5.616-1.046-16.3-1.674-22.041-2.23c-3.463-0.329-7.204-0.796-10.631-1.399c-5.463-0.935-17.795-3.823-23.252-5.012
			c-19.112-3.964-39.465-6.285-58.921-7.978c-25.781-2.066-52.547-2.769-78.358-1.126c-3.782,0.266-11.055,1.065-14.69,0.997
			c-2.123-0.028-4.262-0.267-6.308-0.846c-2.16-0.607-4.228-1.568-6.179-2.668c-2.555-1.448-4.991-3.193-7.273-5.04
			c-3.303-2.635-6.961-6.435-10.157-9.213c-3.261-2.834-6.954-5.185-10.757-7.218c-4.008-2.136-8.222-4.001-12.527-5.449
			c-3.564-1.172-7.276-2.143-11.042-2.278c-1.239-0.021-2.525,0.018-3.693,0.474c-0.435,0.177-0.854,0.441-1.12,0.836
			c-0.267,0.388-0.354,0.882-0.263,1.342c0.081,0.439,0.31,0.838,0.596,1.176c0.543,0.635,1.251,1.137,1.925,1.624
			c1.601,1.125,3.288,2.313,4.651,3.718c2.115,2.136,3.873,4.654,5.06,7.42c1.029,2.411,1.597,5.061,1.378,7.687
			c-0.164,2.027-0.742,4.013-1.543,5.876c-0.964,2.23-2.259,4.325-3.757,6.235c-1.684,2.121-3.623,4.097-5.929,5.54
			c-1.303,0.814-2.739,1.42-4.2,1.89c-28.298,7.142-88.207,20.687-115.854,27.949c-7.493,1.991-15.658,4.273-22.925,6.973
			c-8.068,3.009-16.176,6.729-23.836,10.657c-6.681,3.473-13.421,7.308-19.494,11.774c-4.174,3.074-8.125,6.578-11.742,10.291
			c-3.928,0.848-7.98,1.477-11.998,1.661c-3.086,0.152-6.274-0.013-9.351-0.289c-5.164-0.481-13.159-1.532-18.26-1.389
			c-3.259,0.073-6.558,0.403-9.715,1.234c-0.494,0.139-0.997,0.296-1.464,0.511c-0.199,0.095-0.401,0.199-0.564,0.349l-0.012,0.011
			l-0.011,0.011l-0.011,0.011l-0.011,0.011l-0.01,0.011l-0.01,0.011l-0.009,0.011l-0.009,0.011l-0.008,0.011l-0.008,0.011
			l-0.007,0.011l-0.007,0.011l-0.006,0.011l-0.006,0.011l-0.005,0.011l-0.005,0.011l-0.004,0.011l-0.004,0.011l-0.003,0.011
			l-0.003,0.011l-0.002,0.011l-0.002,0.011l-0.001,0.011l-0.001,0.011l0,0.011l0,0.011l0.001,0.011l0.001,0.011l0.002,0.011
			l0.002,0.011l0.003,0.011l0.003,0.011l0.004,0.011l0.004,0.011l0.005,0.011l0.006,0.011l0.006,0.01l0.007,0.01l0.007,0.01
			l0.007,0.01l0.008,0.01l0.008,0.01l0.009,0.01l0.009,0.01l0.009,0.01l0.01,0.01l0.01,0.01l0.011,0.01l0.011,0.01l0.012,0.01
			l0.012,0.009l0.013,0.009c0.172,0.122,0.372,0.201,0.569,0.274c1.067,0.375,3.279,0.793,4.401,1.061
			c0.898,0.215,1.847,0.452,2.712,0.767c0.569,0.207,1.134,0.454,1.632,0.802c0.461,0.318,0.86,0.723,1.208,1.16
			c0.376,0.465,0.742,1.032,1.225,1.392c0.434,0.325,0.965,0.49,1.481,0.633c0.729,0.207,1.581,0.342,2.239,0.732
			c0.221,0.135,0.421,0.311,0.564,0.529c0.159,0.239,0.237,0.532,0.207,0.818c-0.03,0.312-0.174,0.602-0.361,0.849
			c-0.267,0.353-0.607,0.647-0.955,0.916c-2.329,1.723-6.646,3.584-9.244,4.938c-1.768,0.899-3.576,1.902-5.228,2.998
			c-1.97,1.266-5.72,4.151-7.645,5.574c-2.898,2.147-6.052,4.017-9.36,5.457c-1.834,0.835-6.742,2.772-8.395,3.786
			c-0.275,0.175-0.556,0.36-0.767,0.611l-0.013,0.017l-0.013,0.017l-0.012,0.017l-0.012,0.016l-0.011,0.016l-0.01,0.016l-0.01,0.016
			l-0.009,0.016l-0.009,0.016l-0.008,0.016l-0.007,0.016l-0.007,0.016l-0.006,0.016l-0.006,0.016l-0.005,0.016l-0.004,0.016
			l-0.004,0.015l-0.003,0.015l-0.003,0.015l-0.002,0.015l-0.001,0.017l-0.001,0.017l0,0.017l0.001,0.017l0.002,0.017l0.003,0.017
			l0.003,0.017l0.004,0.016l0.005,0.016l0.006,0.016l0.006,0.016l0.007,0.016l0.008,0.016l0.009,0.016l0.01,0.016l0.01,0.016
			l0.011,0.016l0.012,0.015l0.013,0.015l0.013,0.015l0.014,0.015l0.015,0.015l0.016,0.015l0.016,0.015l0.017,0.015l0.018,0.015
			l0.019,0.014l0.019,0.014l0.02,0.014l0.021,0.014l0.021,0.014l0.022,0.014c0.327,0.195,0.703,0.296,1.07,0.385
			c0.811,0.184,1.66,0.268,2.489,0.327c2.646,0.166,5.359,0.044,7.999-0.183c3.99-0.348,8.026-1.059,11.917-2.009
			c12.66-2.979,29.426-10.361,41.621-15.182c5.185-2.022,11.434-4.253,16.707-6.018c1.768,1.128,3.66,2.317,5.586,3.134
			c1.894,0.827,3.921,1.4,5.95,1.786c5.947,1.094,12.197,1.226,18.235,1.329c15.338,0.079,36.24-0.7,51.547-0.272
			c31.945,0.768,89.606,4.776,121.971,6.655l84.494,6.97c11.822,0.783,25.475,1.462,37.272,1.57
			c14.668,0.179,31.05-0.364,45.731-1.185c-1.752,1.999-5.928,7.159-7.672,9.28c-2.048,2.514-5.743,6.352-8.009,8.742
			c-1.292,1.425-2.663,2.891-3.608,4.575c-0.331,0.623-0.629,1.316-0.572,2.036l0.003,0.033l0.004,0.033l0.004,0.033l0.005,0.033
			l0.006,0.032l0.006,0.032l0.007,0.032l0.007,0.032l0.008,0.032l0.009,0.031l0.009,0.031l0.01,0.031l0.01,0.031l0.011,0.031
			l0.012,0.03l0.013,0.033l0.014,0.033l0.015,0.032l0.016,0.032l0.016,0.032l0.017,0.032l0.018,0.031l0.018,0.031l0.019,0.031
			l0.02,0.031l0.02,0.03l0.021,0.03l0.022,0.03l0.022,0.03l0.023,0.029l0.024,0.029l0.025,0.029
			c0.362,0.415,0.857,0.689,1.358,0.901c0.964,0.396,2.009,0.586,3.039,0.718c2.791,0.326,5.657,0.194,8.449-0.065
			c4.227-0.415,8.49-1.252,12.566-2.447c8.95-2.617,17.32-7.164,24.516-13.082C549.447,452.81,554.41,447.194,559.165,441.763z"/>
	</g>
</g>
</svg>
