<?xml version="1.0" encoding="utf-8"?>
<!-- Generator: Adobe Illustrator 26.3.1, SVG Export Plug-In . SVG Version: 6.00 Build 0)  -->
<!DOCTYPE svg PUBLIC "-//W3C//DTD SVG 1.1//EN" "http://www.w3.org/Graphics/SVG/1.1/DTD/svg11.dtd" [
	<!ENTITY ns_extend "http://ns.adobe.com/Extensibility/1.0/">
	<!ENTITY ns_ai "http://ns.adobe.com/AdobeIllustrator/10.0/">
	<!ENTITY ns_graphs "http://ns.adobe.com/Graphs/1.0/">
	<!ENTITY ns_vars "http://ns.adobe.com/Variables/1.0/">
	<!ENTITY ns_imrep "http://ns.adobe.com/ImageReplacement/1.0/">
	<!ENTITY ns_sfw "http://ns.adobe.com/SaveForWeb/1.0/">
	<!ENTITY ns_custom "http://ns.adobe.com/GenericCustomNamespace/1.0/">
	<!ENTITY ns_adobe_xpath "http://ns.adobe.com/XPath/1.0/">
]>
<svg version="1.1" xmlns:x="&ns_extend;" xmlns:i="&ns_ai;" xmlns:graph="&ns_graphs;"
	 xmlns="http://www.w3.org/2000/svg" xmlns:xlink="http://www.w3.org/1999/xlink" x="0px" y="0px" width="750px" height="750px"
	 viewBox="0 0 750 750" enable-background="new 0 0 750 750" xml:space="preserve">
<metadata>
	<sfw  xmlns="&ns_sfw;">
		<slices></slices>
		<sliceSourceBounds  bottomLeftOrigin="true" height="6172.08" width="9606" x="-2000" y="2687"></sliceSourceBounds>
	</sfw>
</metadata>
<g id="FILL-BACKGROUND">
	<rect y="0" fill="#FFFFFF" width="750" height="750"/>
</g>
<g id="N-TEXT">
</g>
<g id="N-DIMENSIONS">
</g>
<g id="_x32_D_x24_AG-DIAGRAM">
	<g id="POLYLINE_00000018201674900814606270000010850782058570846640_">
		<g>
			<g>
				
					<line fill="none" stroke="#FB8604" stroke-width="3.25" stroke-linecap="round" stroke-linejoin="round" x1="132.009" y1="586.1" x2="134.009" y2="586.1"/>
				
					<line fill="none" stroke="#FB8604" stroke-width="3.25" stroke-linecap="round" stroke-linejoin="round" stroke-dasharray="3.9775,6.9607" x1="140.97" y1="586.1" x2="575.02" y2="586.1"/>
				
					<line fill="none" stroke="#FB8604" stroke-width="3.25" stroke-linecap="round" stroke-linejoin="round" x1="578.5" y1="586.1" x2="580.5" y2="586.1"/>
			</g>
		</g>
	</g>
</g>
<g id="_x32_D_x24_AG-DETAILS-DIAGRAM">
</g>
<g id="_x32_D_x24_AG-ANIMALS">
	<g id="POLYLINE_00000080186978626696081440000010202889236518891398_">
		
			<path fill="none" stroke="#FB8604" stroke-width="2.75" stroke-linecap="round" stroke-linejoin="round" stroke-miterlimit="10" d="
			M531.175,280.356c0.128,3.757,0.012,7.629-1.224,11.215c-0.79,2.33-2.007,4.545-3.245,6.664c-1.243,2.074-4.087,6.679-5.18,8.752
			c-2.586,4.771-4.799,10.417-8.299,14.616c-1.598,1.949-3.545,3.62-5.723,4.89c-1.495,0.874-3.1,1.599-4.777,2.043
			c-1.068,0.275-2.186,0.451-3.29,0.335c-0.543-0.061-1.087-0.2-1.564-0.474c-0.347-0.198-0.647-0.474-0.882-0.796
			c-0.599-0.83-0.822-1.862-0.976-2.856c-0.384-2.868-0.28-6.104-0.828-8.951c-0.563-3.089-1.846-6.012-3.41-8.719
			c-4.526-7.742-11.63-14.681-16.881-21.912c-1.927-2.668-3.75-5.498-4.89-8.601c-0.565-1.538-0.927-3.164-1.001-4.803
			c-0.104-2.093,0.22-4.196,0.738-6.22c0.384-1.531,0.934-3.144,1.461-4.633c1.289-3.471,6.045-16.03,7.386-19.326
			c1.679-4.048,3.407-8.25,5.73-11.977c0.77-1.203,1.64-2.382,2.744-3.301c0.814-0.682,1.768-1.2,2.782-1.514
			c1.786-0.551,3.692-0.579,5.545-0.507c3.315,0.151,6.715,0.742,9.978,1.337c2.533,0.498,15.254,3.012,17.514,3.537
			c2.259,0.541,4.576,1.13,6.673,2.151c1.1,0.533,2.128,1.232,2.993,2.097c1.182,1.157,2.118,2.663,2.993,4.062"/>
	</g>
	<g id="POLYLINE_00000051360107910705586090000015029121682320801166_">
		
			<path fill="none" stroke="#FB8604" stroke-width="2.75" stroke-linecap="round" stroke-linejoin="round" stroke-miterlimit="10" d="
			M566.15,326.061c-0.232,5.011-0.341,10.194,0.088,15.186c0.323,3.984,1.033,8.046,1.938,11.943
			c2.492,10.779,7.758,26.027,10.805,36.772c2.851,10.005,5.289,20.372,6.45,30.713c2.284,20.059,0.438,42.383,0.4,62.56
			c0.04,9.411,0.433,19.03,2.569,28.224c0.585,2.487,1.328,5.001,2.243,7.387c0.983,2.57,2.213,5.137,3.52,7.559
			c1.65,3.103,4.818,8.135,6.626,11.203c0.832,1.435,1.677,2.969,2.352,4.484c0.76,1.697,1.34,3.5,1.549,5.353
			c0.319,2.626-0.187,5.313-1.317,7.696c-1.078,2.315-2.783,4.555-4.022,6.782c-0.779,1.407-1.469,2.932-1.558,4.56
			c-0.066,1.299,0.239,2.618,0.88,3.75c0.465,0.816,1.123,1.547,1.966,1.979c1.134,0.593,2.469,0.406,3.674,0.164
			c1.34-0.269,2.784-0.688,4.156-0.569c0.539,0.045,1.065,0.202,1.556,0.426c1.204,0.533,2.315,1.516,3.502,2.08
			c0.454,0.209,0.966,0.351,1.466,0.245c0.349-0.071,0.672-0.241,0.958-0.45c0.475-0.349,0.867-0.804,1.214-1.278
			c0.558-0.771,1.011-1.629,1.4-2.496c0.465-1.047,0.848-2.15,1.111-3.265c0.199-0.837,0.336-1.718,0.434-2.573
			c0.229-1.969,0.421-5.646,0.568-7.653c0.284-5.131,0.318-10.379-0.288-15.489c-0.454-3.89-1.382-7.809-2.419-11.583
			c-1.466-5.156-3.9-12.863-4.874-18.006c-0.753-3.853-1.179-7.821-1.355-11.741c-0.399-9.374,0.368-19.651,0.997-29.031
			c1.236-17.818,5.602-58.321,6.747-76.242c0.356-6.092,0.593-12.742,0.477-18.839c-0.086-4.666-0.372-9.545-0.928-14.18
			c-0.568-4.746-1.498-9.712-2.518-14.383l-3.194-13.667c-0.401-1.836-0.821-3.823-1.021-5.686
			c-0.147-1.317-0.185-2.686-0.157-4.011c0.322-7.265,0.126-14.744-0.714-21.959c-0.95-8.373-2.912-16.804-7.094-24.189
			c-1.574-2.798-3.48-5.458-5.635-7.837c-2.819-3.155-6.988-6.766-9.869-9.87c-1.258-1.355-2.454-2.812-3.466-4.36
			c-1.386-2.103-2.515-4.407-3.456-6.74c-3.18-7.892-4.711-17.064-9.023-24.475c-1.518-2.618-3.425-5.052-5.783-6.965
			c-12.213-9.857-35.728-8.337-50.597-6.611l-24.096,3.175c-5.605,0.612-11.349,0.968-16.974,0.442
			c-5.466-0.422-12.968-2.555-18.348-3.821c-3.155-0.719-6.456-1.338-9.677-1.635c-3.539-0.331-7.257-0.322-10.812-0.23
			c-6.956,0.252-16.044,0.767-22.812,0.464c-4.826-0.191-9.768-0.814-14.516-1.696c-27.096-5.045-53.643-18.333-81.275-20.75
			c-10.888-1.03-21.956-0.31-32.711,1.599c-12.32,2.176-24.548,5.756-36.225,10.225c-29.891,11.532-55.868,28.317-75.399,54.057
			c-12.815,16.858-22.606,36.236-27.691,56.832c-2.501,10.064-3.594,20.562-4.001,30.91c-0.45,9.57-0.088,26.284-0.716,35.835
			c-0.337,5.129-1.01,10.355-2.153,15.37c-0.736,3.247-1.696,6.515-2.812,9.652c-1.68,4.772-5.504,13.375-7.414,17.954
			c-2.079,5.047-3.997,10.374-5.411,15.65c-3.642,13.309-6.065,30.725-8.463,44.364c-0.839,4.517-1.777,9.162-3.221,13.525
			c-0.934,2.794-2.104,5.554-3.754,8.005c-1.586,2.377-3.959,4.755-5.806,6.937c-1.437,1.689-2.761,3.513-3.801,5.474
			c-1.408,2.627-2.322,5.506-3.001,8.4c-0.735,3.192-1.213,6.501-1.324,9.776c-0.044,1.644-0.014,3.324,0.29,4.944
			c0.153,0.755,0.354,1.529,0.787,2.176l0.027,0.038l0.027,0.037l0.028,0.036l0.028,0.035l0.028,0.034l0.029,0.033l0.029,0.032
			l0.029,0.031l0.03,0.03l0.03,0.029l0.03,0.028l0.031,0.027l0.031,0.026l0.031,0.025l0.032,0.024l0.032,0.023l0.032,0.022
			l0.023,0.015l0.023,0.014l0.023,0.014l0.023,0.013l0.024,0.013l0.024,0.012l0.024,0.012l0.024,0.011l0.024,0.011l0.024,0.01
			l0.024,0.01l0.025,0.009l0.025,0.009l0.025,0.008l0.025,0.008l0.025,0.007l0.025,0.007l0.026,0.006l0.026,0.006l0.026,0.005
			l0.026,0.005l0.026,0.005l0.026,0.004l0.026,0.004l0.027,0.003l0.027,0.003l0.027,0.002c0.546,0.034,1.069-0.197,1.53-0.471
			c0.988-0.608,1.801-1.469,2.543-2.352c1.642-2.003,2.949-4.288,3.966-6.666c1.096-2.573,1.859-5.34,2.491-8.062l1.721-7.95
			c0.56-2.453,1.32-4.898,2.336-7.201c1.101-2.544,2.886-5.976,3.991-8.523c0.751-1.717,1.447-3.532,2.018-5.317
			c0.639-2,1.222-4.223,1.706-6.267c2.237-9.537,4.442-24.099,6.8-33.602c1.355-5.591,3.164-11.208,5.247-16.572
			c2.921-7.666,8.673-19.421,12.161-26.953c3.269-7.194,6.239-14.754,8.307-22.382c2.768-10.266,4.452-20.976,5.446-31.554
			c0.55-5.225,0.787-14.598,0.97-19.953c0.222-5.348,0.83-10.764,1.985-15.993c1.563-7.144,3.845-14.213,6.524-21.013
			c2.857-7.191,6.255-14.289,10.319-20.88"/>
	</g>
	<g id="POLYLINE_00000169538192892373590180000018001808241401118395_">
		
			<path fill="none" stroke="#FB8604" stroke-width="2.75" stroke-linecap="round" stroke-linejoin="round" stroke-miterlimit="10" d="
			M156.301,358.664c3.058,7.452,6.63,15.211,10.372,22.34c2.431,4.773,8.295,14.742,11.037,19.496
			c2.012,3.588,3.913,7.328,5.031,11.3c0.52,1.811,0.919,3.723,1.234,5.581c0.873,5.059,2.157,17.898,2.783,23.204
			c0.593,4.99,1.437,10.48,2.396,15.408c0.951,4.989,2.773,13.32,3.465,18.248c0.679,4.612,0.942,9.329,0.572,13.981
			c-0.361,4.772-1.384,9.534-2.656,14.142c-3.154,11.312-8.573,25.169-11.278,36.581c-0.533,2.215-1.031,4.644-1.371,6.898
			c-0.413,2.598-0.938,8.067-1.348,10.663c-0.524,3.728-2.002,8.119-3.051,11.724c-0.506,1.827-0.979,3.726-1.167,5.615
			c-0.159,1.575-0.145,3.178,0.079,4.746c0.257,1.733,0.745,3.481,1.73,4.948c0.517,0.768,1.224,1.419,2.072,1.803
			c0.882,0.407,1.859,0.565,2.819,0.652c0.61,0.066,1.385,0.074,2.005,0.094c0,0,0.755,0.01,0.755,0.01l47.978,0.002l0.373-0.004
			c0.845-0.02,1.718-0.052,2.523-0.336c0.896-0.315,1.678-0.902,2.333-1.581c1.087-1.134,1.789-2.604,2.101-4.137
			c0.346-1.716,0.266-3.499,0.028-5.225c-0.351-2.328-1.001-4.662-2.208-6.698c-0.777-1.305-1.815-2.445-2.97-3.427
			c-1.057-0.904-2.647-2.034-3.711-2.93c-0.982-0.818-1.92-1.716-2.71-2.722c-1.742-2.236-2.824-4.929-3.877-7.538
			c-0.462-1.151-0.903-2.363-1.135-3.582c-0.312-1.576-0.394-3.209-0.408-4.813c0-5.939,0.754-12.147,1.535-18.036
			c1.5-10.523,3.497-21.438,6.031-31.761c1.452-5.787,3.206-11.632,5.866-16.988c2.631-5.326,6.16-10.356,9.597-15.189
			c2.347-3.171,9.84-13.376,12.007-16.607c2.828-4.182,5.983-9.075,8.546-13.422c3.679-6.277,7.019-12.901,9.3-19.823
			c2.428-7.292,3.754-14.994,4.602-22.619c0.793-7.197,1.293-14.616,0.783-21.851c-1.146-16.568-6.015-32.744-11.51-48.334"/>
	</g>
	<g id="POLYLINE_00000066510515229890290770000018329744798763758976_">
		
			<path fill="none" stroke="#FB8604" stroke-width="2.75" stroke-linecap="round" stroke-linejoin="round" stroke-miterlimit="10" d="
			M504.5,347.821c3.948,3.309,8.114,6.672,12.537,9.308c3.381,2.03,7.009,3.717,10.76,4.935c6.825,2.25,15.748,3.345,22.881,4.5
			c1.923,0.328,4.021,0.685,5.891,1.224c0.821,0.241,1.648,0.53,2.391,0.962c0.47,0.272,0.906,0.611,1.281,1.004
			c0.463,0.482,0.844,1.045,1.201,1.608c2.341,3.745,4.82,8.209,7.725,11.516c0.659,0.722,1.384,1.413,2.24,1.897
			c0.565,0.319,1.197,0.532,1.846,0.572c1.429,0.079,2.819-0.496,4.002-1.258"/>
	</g>
	<g id="POLYLINE_00000021835550108435820620000008045833652163871362_">
		
			<path fill="none" stroke="#FB8604" stroke-width="2.75" stroke-linecap="round" stroke-linejoin="round" stroke-miterlimit="10" d="
			M419.365,333.362c-0.917,7.876-1.622,16.019-1.623,23.951c0.009,6.011,0.454,12.11,1.682,18
			c1.755,8.516,5.236,16.921,8.432,24.991c4.768,11.421,18.223,42.52,22.129,53.568c5.853,15.182,24.177,73.202,29.614,89.648
			c0.343,1.08,0.746,2.383,1.022,3.479c0.354,1.388,0.615,2.826,0.705,4.257c0.194,2.844-0.201,5.714-0.752,8.5
			c-1.143,5.838-2.954,12.43-2.824,18.388c0.041,1.272,0.182,2.563,0.597,3.772c0.285,0.826,0.72,1.62,1.361,2.225
			c1.042,0.982,2.467,1.409,3.849,1.645c1.049,0.177,2.146,0.246,3.209,0.283c0.394,0.009,1.149,0.028,1.54,0.029
			c0,0,44.623,0.004,44.623,0.004s1.068-0.005,1.068-0.005c0.114-0.006,0.382-0.004,0.498-0.011
			c0.917-0.033,1.865-0.107,2.713-0.483c0.624-0.273,1.158-0.728,1.56-1.275c0.675-0.922,1.067-2.02,1.394-3.105
			c0.664-2.321,0.99-4.753,1.036-7.165c0.031-2.517-0.319-5.191-1.829-7.28c-0.609-0.847-1.402-1.553-2.28-2.112
			c-1.492-0.969-4.187-2.037-5.828-2.79c-2.812-1.294-5.695-2.776-8.339-4.38c-2.094-1.275-4.136-2.704-5.896-4.416
			c-1.448-1.401-2.713-3-3.798-4.695c-1.278-2.001-2.311-4.18-2.967-6.465c-0.491-1.698-0.745-3.476-0.864-5.237
			c-0.279-4.047,0.086-12.979,0.114-17.129c0.2-10.579-1.497-32.279-2.094-43.093c-0.445-10.473-0.793-35.265-2.125-45.301
			c-0.509-4.272-1.288-8.86-2.176-13.068c-1.037-5.114-3.858-15.788-5.162-20.96c-1.365-5.681-2.627-11.705-3.505-17.478
			c-0.15-1.053-0.274-2.138-0.269-3.203c0.003-0.932,0.115-1.873,0.352-2.774c0.76-2.827,2.543-5.261,4.198-7.629l10.565-14.309"/>
	</g>
	<g id="POLYLINE_00000057115740058739182490000005214745551124730253_">
		
			<path fill="none" stroke="#FB8604" stroke-width="2.75" stroke-linecap="round" stroke-linejoin="round" stroke-miterlimit="10" d="
			M273.692,409.014c12.407,3.792,25.323,6.723,38.238,8.076c16.25,1.702,32.925,1.34,49.158-0.415
			c11.588-1.305,23.238-3.416,34.352-6.985c10.65-3.374,20.959-8.182,30.772-13.496"/>
	</g>
	<g id="POLYLINE_00000097483882255266623470000001001943791377940362_">
		
			<path fill="none" stroke="#FB8604" stroke-width="2.75" stroke-linecap="round" stroke-linejoin="round" stroke-miterlimit="10" d="
			M228.941,586.1l38.577-0.017c1.274-0.035,2.617-0.04,3.874-0.248c0.585-0.099,1.173-0.246,1.702-0.521
			c1.008-0.515,1.682-1.497,2.081-2.532c0.389-0.998,0.575-2.073,0.666-3.137c0.112-1.389,0.056-2.8-0.119-4.181
			c-0.207-1.528-0.518-3.073-1.163-4.482c-0.34-0.733-0.799-1.412-1.324-2.024c-0.938-1.123-2.994-2.834-4.096-3.839
			c-1.586-1.43-3.129-2.995-4.102-4.919c-0.661-1.278-1.073-2.681-1.328-4.094c-0.364-2.02-0.479-4.158-0.568-6.209
			c-0.302-12.384-0.555-27.575-0.048-39.929c0.463-10.638,1.715-21.4,4.556-31.682c1.186-4.345,2.756-8.691,4.512-12.839
			c3.1-7.254,8.619-18.335,11.412-25.68c3.299-8.407,6.041-17.2,7.995-26.019"/>
	</g>
	<g id="POLYLINE_00000120517161633484760740000014474142948299158188_">
		
			<path fill="none" stroke="#FB8604" stroke-width="2.75" stroke-linecap="round" stroke-linejoin="round" stroke-miterlimit="10" d="
			M372.431,415.121c-0.2,4.056-0.463,9.078-0.425,13.102c0.025,2.598,0.197,5.242,0.691,7.795c0.481,2.751,2.174,8.209,2.946,10.983
			c1.504,5.28,2.844,10.805,3.611,16.238c0.981,6.851,1.223,13.964,1.1,20.881c-0.3,13.435-1.962,26.979-4.686,40.134
			c-1.346,6.287-2.962,12.725-5.274,18.73c-1.607,4.196-3.647,8.285-5.96,12.136c-4.325,7.125-9.775,14.767-10.015,23.395
			c-0.033,1.206,0.032,2.431,0.313,3.607c0.171,0.696,0.42,1.387,0.828,1.98c0.305,0.444,0.708,0.82,1.172,1.093
			c0.511,0.303,1.085,0.488,1.663,0.611c1.241,0.258,2.559,0.271,3.824,0.29c0,0,46.617,0.002,46.617,0.002s0.432-0.005,0.432-0.005
			c0.437-0.016,0.947-0.017,1.383-0.06c0.801-0.067,1.615-0.208,2.344-0.56c0.881-0.419,1.582-1.144,2.121-1.946
			c0.888-1.33,1.413-2.876,1.764-4.427c0.47-2.163,0.597-4.487-0.148-6.603c-0.321-0.913-0.841-1.749-1.477-2.475
			c-1.774-2.042-4.401-3.447-6.648-4.906c-1.149-0.747-2.299-1.553-3.21-2.586c-1.263-1.435-2-3.264-2.416-5.112
			c-0.607-2.707-0.402-5.54,0.213-8.227c0.301-1.304,0.762-2.579,1.336-3.787c0.825-1.798,2.588-4.492,3.611-6.196
			c1.164-1.918,2.35-4.03,3.317-6.055c1.186-2.485,2.253-5.161,3.196-7.747c2.114-5.866,3.988-12.116,5.538-18.156
			c5.817-22.653,12.494-61.844,16.874-85.168"/>
	</g>
</g>
<g id="_x32_D_x24_AG-OUTLINE">
	<g id="POLYLINE_00000095296560061241938710000017684676207666047927_">
		
			<path fill="none" stroke="#FB8604" stroke-width="3.5" stroke-linecap="round" stroke-linejoin="round" stroke-miterlimit="10" d="
			M577.254,384.089c3.591,11.906,6.79,24.213,8.177,36.586c1.016,8.864,1.199,18.287,1.132,27.22
			c-0.089,11.245-0.867,27.553-0.705,38.722c0.105,6.487,0.464,13.153,1.502,19.558c0.564,3.464,1.345,6.949,2.438,10.286
			c0.907,2.781,2.098,5.531,3.421,8.14c2.114,4.233,5.597,9.598,7.982,13.721c0.917,1.624,1.818,3.327,2.479,5.072
			c0.98,2.558,1.394,5.377,0.882,8.087c-0.385,2.169-1.346,4.194-2.499,6.056c-1.197,1.968-2.733,4.094-3.612,6.228
			c-0.486,1.18-0.772,2.467-0.633,3.746c0.112,1.109,0.482,2.199,1.107,3.125c0.469,0.69,1.094,1.294,1.858,1.644
			c1.108,0.513,2.374,0.323,3.53,0.094c1.34-0.269,2.784-0.688,4.156-0.569c0.539,0.045,1.065,0.202,1.556,0.426
			c1.204,0.533,2.315,1.516,3.502,2.08c0.454,0.209,0.966,0.351,1.466,0.245c0.349-0.071,0.672-0.241,0.958-0.45
			c0.475-0.349,0.867-0.804,1.214-1.278c0.558-0.771,1.011-1.629,1.4-2.496c0.465-1.047,0.848-2.15,1.111-3.265
			c0.199-0.837,0.336-1.718,0.434-2.573c0.229-1.969,0.421-5.646,0.568-7.653c0.284-5.131,0.318-10.379-0.288-15.489
			c-0.454-3.89-1.382-7.809-2.419-11.583c-1.466-5.156-3.9-12.863-4.874-18.006c-0.753-3.853-1.179-7.821-1.355-11.741
			c-0.399-9.374,0.368-19.651,0.997-29.031c1.236-17.818,5.602-58.321,6.747-76.242c0.356-6.092,0.593-12.742,0.477-18.839
			c-0.086-4.666-0.372-9.545-0.928-14.18c-0.568-4.746-1.498-9.712-2.518-14.383l-3.194-13.667
			c-0.401-1.836-0.821-3.823-1.021-5.686c-0.147-1.317-0.185-2.686-0.157-4.011c0.322-7.265,0.126-14.744-0.714-21.959
			c-0.95-8.373-2.912-16.804-7.094-24.189c-1.574-2.798-3.48-5.458-5.635-7.837c-2.819-3.155-6.988-6.766-9.869-9.87
			c-1.258-1.355-2.454-2.812-3.466-4.36c-1.386-2.103-2.515-4.407-3.456-6.74c-3.18-7.892-4.711-17.064-9.023-24.475
			c-1.518-2.618-3.425-5.052-5.783-6.965c-12.213-9.857-35.728-8.337-50.597-6.611l-24.096,3.175
			c-5.605,0.612-11.349,0.968-16.974,0.442c-5.466-0.422-12.968-2.555-18.348-3.821c-3.155-0.719-6.456-1.338-9.677-1.635
			c-3.539-0.331-7.257-0.322-10.812-0.23c-6.956,0.252-16.044,0.767-22.812,0.464c-4.826-0.191-9.768-0.814-14.516-1.696
			c-27.096-5.045-53.643-18.333-81.275-20.75c-10.888-1.03-21.956-0.31-32.711,1.599c-12.32,2.176-24.548,5.756-36.225,10.225
			c-29.891,11.532-55.868,28.317-75.399,54.057c-12.815,16.858-22.606,36.236-27.691,56.832c-2.501,10.064-3.594,20.562-4.001,30.91
			c-0.45,9.57-0.088,26.284-0.716,35.835c-0.337,5.129-1.01,10.355-2.153,15.37c-0.736,3.247-1.696,6.515-2.812,9.652
			c-1.68,4.772-5.504,13.375-7.414,17.954c-2.079,5.047-3.997,10.374-5.411,15.65c-3.642,13.309-6.065,30.725-8.463,44.364
			c-0.839,4.517-1.777,9.162-3.221,13.525c-0.934,2.794-2.104,5.554-3.754,8.005c-1.586,2.377-3.959,4.755-5.806,6.937
			c-1.437,1.689-2.761,3.513-3.801,5.474c-1.408,2.627-2.322,5.506-3.001,8.4c-0.735,3.192-1.213,6.501-1.324,9.776
			c-0.044,1.644-0.014,3.324,0.29,4.944c0.153,0.755,0.354,1.529,0.787,2.176l0.027,0.038l0.027,0.037l0.028,0.036l0.028,0.035
			l0.028,0.034l0.029,0.033l0.029,0.032l0.029,0.031l0.03,0.03l0.03,0.029l0.03,0.028l0.031,0.027l0.031,0.026l0.031,0.025
			l0.032,0.024l0.032,0.023l0.032,0.022l0.023,0.015l0.023,0.014l0.023,0.014l0.023,0.013l0.024,0.013l0.024,0.012l0.024,0.012
			l0.024,0.011l0.024,0.011l0.024,0.01l0.024,0.01l0.025,0.009l0.025,0.009l0.025,0.008l0.025,0.008l0.025,0.007l0.025,0.007
			l0.026,0.006l0.026,0.006l0.026,0.005l0.026,0.005l0.026,0.005l0.026,0.004l0.026,0.004l0.027,0.003l0.027,0.003l0.027,0.002
			c0.546,0.034,1.069-0.197,1.53-0.471c0.988-0.608,1.801-1.469,2.543-2.352c1.642-2.003,2.949-4.288,3.966-6.666
			c1.096-2.573,1.859-5.34,2.491-8.062l1.721-7.95c0.56-2.453,1.32-4.898,2.336-7.201c1.101-2.544,2.886-5.976,3.991-8.523
			c0.751-1.717,1.447-3.532,2.018-5.317c0.639-2,1.222-4.223,1.706-6.267c2.237-9.537,4.442-24.099,6.8-33.602
			c1.355-5.591,3.164-11.208,5.247-16.572c2.921-7.666,8.673-19.421,12.161-26.953c3.269-7.189,6.239-14.757,8.307-22.382
			c2.503-9.23,4.091-18.869,5.131-28.372c3.058,7.452,6.63,15.211,10.372,22.34c2.431,4.773,8.295,14.742,11.037,19.496
			c2.012,3.588,3.913,7.328,5.031,11.3c0.52,1.811,0.919,3.723,1.234,5.581c0.873,5.059,2.157,17.898,2.783,23.204
			c0.593,4.99,1.437,10.48,2.396,15.408c0.951,4.989,2.773,13.32,3.465,18.248c0.679,4.612,0.942,9.329,0.572,13.981
			c-0.361,4.772-1.384,9.534-2.656,14.142c-3.154,11.312-8.573,25.169-11.278,36.581c-0.533,2.215-1.031,4.644-1.371,6.898
			c-0.413,2.598-0.938,8.067-1.348,10.663c-0.524,3.728-2.002,8.119-3.051,11.724c-0.492,1.763-0.942,3.586-1.145,5.406
			c-0.155,1.395-0.174,2.816-0.034,4.213c0.196,1.855,0.639,3.731,1.599,5.347c0.388,0.643,0.878,1.236,1.49,1.677
			c0.548,0.399,1.184,0.665,1.838,0.834c0.889,0.229,1.825,0.306,2.741,0.35c22.409,0.12,65.31,0.001,87.542,0.029
			c1.274-0.035,2.617-0.04,3.874-0.248c0.585-0.099,1.173-0.246,1.702-0.521c1.008-0.515,1.682-1.497,2.081-2.532
			c0.389-0.998,0.575-2.073,0.666-3.137c0.112-1.389,0.056-2.8-0.119-4.181c-0.207-1.528-0.518-3.073-1.163-4.482
			c-0.34-0.733-0.799-1.412-1.324-2.024c-0.938-1.123-2.994-2.834-4.096-3.839c-1.586-1.43-3.129-2.995-4.102-4.919
			c-0.661-1.278-1.073-2.681-1.328-4.094c-0.364-2.02-0.479-4.158-0.568-6.209c-0.302-12.384-0.555-27.575-0.048-39.929
			c0.463-10.638,1.715-21.4,4.556-31.682c1.186-4.345,2.756-8.691,4.512-12.839c3.1-7.254,8.619-18.335,11.412-25.68
			c3.299-8.407,6.041-17.2,7.995-26.019c14.899,3.349,30.314,4.668,45.571,4.422c11.724-0.18,23.715-1.163,35.29-3.05
			c-0.2,4.056-0.463,9.078-0.425,13.102c0.025,2.598,0.197,5.242,0.691,7.795c0.481,2.751,2.174,8.209,2.946,10.983
			c1.504,5.28,2.844,10.805,3.611,16.238c0.981,6.851,1.223,13.964,1.1,20.881c-0.3,13.435-1.962,26.979-4.686,40.134
			c-1.346,6.287-2.962,12.725-5.274,18.73c-1.607,4.196-3.647,8.285-5.96,12.136c-4.325,7.125-9.775,14.767-10.015,23.395
			c-0.033,1.206,0.032,2.431,0.313,3.607c0.171,0.696,0.42,1.387,0.828,1.98c0.305,0.444,0.708,0.82,1.172,1.093
			c0.511,0.303,1.085,0.488,1.663,0.611c1.241,0.258,2.559,0.271,3.824,0.29c0,0,46.617,0.002,46.617,0.002s0.432-0.005,0.432-0.005
			c0.437-0.016,0.947-0.017,1.383-0.06c0.801-0.067,1.615-0.208,2.344-0.56c0.881-0.419,1.582-1.144,2.121-1.946
			c0.888-1.33,1.413-2.876,1.764-4.427c0.47-2.163,0.597-4.487-0.148-6.603c-0.321-0.913-0.841-1.749-1.477-2.475
			c-1.774-2.042-4.401-3.447-6.648-4.906c-1.149-0.747-2.299-1.553-3.21-2.586c-1.263-1.435-2-3.264-2.416-5.112
			c-0.607-2.707-0.402-5.54,0.213-8.227c0.301-1.304,0.762-2.579,1.336-3.787c0.825-1.798,2.588-4.492,3.611-6.196
			c1.164-1.918,2.35-4.03,3.317-6.055c1.186-2.485,2.253-5.161,3.196-7.747c2.114-5.866,3.988-12.116,5.538-18.156
			c5.817-22.653,12.494-61.844,16.874-85.168c5.1,11.819,10.55,24.978,14.844,37.049c4.962,13.593,23.76,72.225,28.47,86.955
			c0.435,1.555,0.788,3.165,0.918,4.776c0.257,2.972-0.145,5.977-0.722,8.891c-1.143,5.838-2.954,12.43-2.824,18.388
			c0.041,1.272,0.182,2.563,0.597,3.772c0.285,0.826,0.72,1.62,1.361,2.225c1.042,0.982,2.467,1.409,3.849,1.645
			c1.049,0.177,2.146,0.246,3.209,0.283c0.394,0.009,1.149,0.028,1.54,0.029c0,0,44.623,0.004,44.623,0.004s1.068-0.005,1.068-0.005
			c0.114-0.006,0.382-0.004,0.498-0.011c0.917-0.033,1.865-0.107,2.713-0.483c0.624-0.273,1.158-0.728,1.56-1.275
			c0.675-0.922,1.067-2.02,1.394-3.105c0.664-2.321,0.99-4.753,1.036-7.165c0.031-2.517-0.319-5.191-1.829-7.28
			c-0.609-0.847-1.402-1.553-2.28-2.112c-1.492-0.969-4.187-2.037-5.828-2.79c-2.812-1.294-5.695-2.776-8.339-4.38
			c-2.094-1.275-4.136-2.704-5.896-4.416c-1.448-1.401-2.713-3-3.798-4.695c-1.278-2.001-2.311-4.18-2.967-6.465
			c-0.491-1.698-0.745-3.476-0.864-5.237c-0.279-4.047,0.086-12.979,0.114-17.129c0.2-10.579-1.497-32.279-2.094-43.093
			c-0.445-10.473-0.793-35.265-2.125-45.301c-0.509-4.272-1.288-8.86-2.176-13.068c-1.037-5.114-3.858-15.788-5.162-20.96
			c-1.365-5.681-2.627-11.705-3.505-17.478c-0.15-1.053-0.274-2.138-0.269-3.203c0.003-0.932,0.115-1.873,0.352-2.774
			c0.76-2.827,2.543-5.261,4.198-7.629l10.565-14.309c3.91,3.065,8.097,5.886,12.606,7.992c3.748,1.777,7.773,3.041,11.819,3.934
			c6.155,1.434,14.703,2.359,20.91,3.64c1.047,0.233,2.119,0.498,3.123,0.88c0.741,0.284,1.46,0.655,2.065,1.174
			c0.66,0.559,1.164,1.28,1.623,2.006c2.341,3.745,4.82,8.209,7.725,11.516c0.659,0.722,1.384,1.413,2.24,1.897
			c0.565,0.319,1.197,0.532,1.846,0.572C574.681,385.425,576.071,384.851,577.254,384.089z"/>
	</g>
</g>
</svg>
