<?xml version="1.0" encoding="utf-8"?>
<!-- Generator: Adobe Illustrator 26.3.1, SVG Export Plug-In . SVG Version: 6.00 Build 0)  -->
<!DOCTYPE svg PUBLIC "-//W3C//DTD SVG 1.1//EN" "http://www.w3.org/Graphics/SVG/1.1/DTD/svg11.dtd" [
	<!ENTITY ns_extend "http://ns.adobe.com/Extensibility/1.0/">
	<!ENTITY ns_ai "http://ns.adobe.com/AdobeIllustrator/10.0/">
	<!ENTITY ns_graphs "http://ns.adobe.com/Graphs/1.0/">
	<!ENTITY ns_vars "http://ns.adobe.com/Variables/1.0/">
	<!ENTITY ns_imrep "http://ns.adobe.com/ImageReplacement/1.0/">
	<!ENTITY ns_sfw "http://ns.adobe.com/SaveForWeb/1.0/">
	<!ENTITY ns_custom "http://ns.adobe.com/GenericCustomNamespace/1.0/">
	<!ENTITY ns_adobe_xpath "http://ns.adobe.com/XPath/1.0/">
]>
<svg version="1.1" xmlns:x="&ns_extend;" xmlns:i="&ns_ai;" xmlns:graph="&ns_graphs;"
	 xmlns="http://www.w3.org/2000/svg" xmlns:xlink="http://www.w3.org/1999/xlink" x="0px" y="0px" width="750px" height="750px"
	 viewBox="0 0 750 750" enable-background="new 0 0 750 750" xml:space="preserve">
<metadata>
	<sfw  xmlns="&ns_sfw;">
		<slices></slices>
		<sliceSourceBounds  bottomLeftOrigin="true" height="6172.08" width="9606" x="-2000" y="2687"></sliceSourceBounds>
	</sfw>
</metadata>
<g id="FILL-BACKGROUND">
	<rect y="0" fill="#FFFFFF" width="750" height="750"/>
</g>
<g id="N-TEXT">
</g>
<g id="N-DIMENSIONS">
</g>
<g id="_x32_D_x24_AG-DIAGRAM">
	<g id="POLYLINE_00000135670017782730830860000008868269589233607054_">
		<g>
			<g>
				
					<line fill="none" stroke="#FB8604" stroke-width="3.25" stroke-linecap="round" stroke-linejoin="round" x1="92.188" y1="596.789" x2="94.188" y2="596.789"/>
				
					<line fill="none" stroke="#FB8604" stroke-width="3.25" stroke-linecap="round" stroke-linejoin="round" stroke-dasharray="4.0248,7.0433" x1="101.231" y1="596.789" x2="628.979" y2="596.789"/>
				
					<line fill="none" stroke="#FB8604" stroke-width="3.25" stroke-linecap="round" stroke-linejoin="round" x1="632.5" y1="596.789" x2="634.5" y2="596.789"/>
			</g>
		</g>
	</g>
</g>
<g id="_x32_D_x24_AG-DETAILS-DIAGRAM">
</g>
<g id="_x32_D_x24_AG-ANIMALS">
	<g id="POLYLINE_00000063611313457010165810000001824829592716641718_">
		
			<path fill="none" stroke="#FB8604" stroke-width="2.75" stroke-linecap="round" stroke-linejoin="round" stroke-miterlimit="10" d="
			M525.906,359.477c0.068,2.303,0.279,4.65,0.676,6.918c0.487,2.83,1.275,5.697,2.161,8.427c1.226,3.719,2.71,7.419,4.831,10.726
			c1.468,2.258,3.29,4.395,5.683,5.698c3.92,2.111,8.572,1.867,12.873,1.494c3.196-0.314,7.767-0.878,10.922-0.921
			c1.568-0.023,3.166,0.033,4.711,0.309c1.356,0.242,2.703,0.666,3.867,1.418c1.066,0.681,1.968,1.596,2.763,2.573
			c1.2,1.473,2.719,3.847,3.845,5.395c0.895,1.237,1.922,2.505,2.931,3.652c9.482,10.654,22.093,17.988,35.191,23.323
			c6.721,2.748,13.903,5.144,20.914,7.037c4.315,1.185,10.158,2.402,14.549,3.355c2.036,0.479,4.142,0.975,6.067,1.802
			c1.121,0.499,2.272,1.137,2.946,2.2c0.193,0.315,0.333,0.674,0.342,1.046c0.012,0.352-0.111,0.702-0.327,0.978l-0.025,0.032
			l-0.026,0.031l-0.027,0.031l-0.028,0.031l-0.029,0.031l-0.03,0.031l-0.031,0.03l-0.032,0.03l-0.033,0.03
			c-0.293,0.263-0.64,0.461-0.996,0.627c-0.529,0.245-1.098,0.424-1.662,0.57c-2.535,0.628-5.203,0.766-7.806,0.832
			c-5.723,0.087-11.515-0.428-17.174-1.255c-9.357-1.4-18.672-3.842-27.533-7.156c-10.304-3.888-20.296-9.01-28.989-15.813
			c-10.356-8.08-18.53-18.708-24.77-30.207"/>
	</g>
	<g id="POLYLINE_00000124854527519930408320000016990070655838192575_">
		
			<path fill="none" stroke="#FB8604" stroke-width="2.75" stroke-linecap="round" stroke-linejoin="round" stroke-miterlimit="10" d="
			M501.342,368.037c1.897,0.449,4.105,0.963,5.917,1.638c2.611,0.935,7.613,3.272,10.219,4.349c1.769,0.735,3.653,1.425,5.495,1.95
			c2.082,0.611,4.57,1.114,6.709,1.536"/>
	</g>
	<g id="POLYLINE_00000068643396912554816630000014268356144680507301_">
		
			<path fill="none" stroke="#FB8604" stroke-width="2.75" stroke-linecap="round" stroke-linejoin="round" stroke-miterlimit="10" d="
			M361.324,351.997c2.245,6.252,19.231,51.548,20.645,56.535c1.545,4.637,4.49,15.333,5.851,20.21
			c1.018,3.578,2.089,7.295,3.58,10.696c0.696,1.586,1.523,3.149,2.471,4.598c0.944,1.449,2.075,2.867,3.202,4.181
			c2.664,3.134,6.257,6.628,8.262,10.216c1.745,3.111,2.725,6.642,3.7,10.054c3.381,12.441,6.506,25.557,8.638,38.27
			c1.791,10.915,2.912,22.365,3.41,33.411c0.423,11.374,0.651,23.475-4.633,33.875c-0.972,1.928-2.565,4.72-3.212,6.765
			c-0.492,1.476-0.757,3.035-0.863,4.585c-0.113,1.792-0.029,3.621,0.349,5.379c0.268,1.22,0.701,2.433,1.458,3.439
			c0.634,0.851,1.519,1.505,2.512,1.878c1.177,0.446,2.459,0.544,3.705,0.616c1.515,0.14,47.225,0.061,49.238,0.08
			c0.706-0.014,1.47-0.016,2.169-0.126c0.584-0.088,1.173-0.268,1.64-0.643c0.352-0.278,0.625-0.645,0.849-1.03
			c0.314-0.543,0.549-1.135,0.74-1.732c0.371-1.176,0.578-2.408,0.638-3.639c0.081-1.648-0.133-3.325-0.743-4.864
			c-0.865-2.226-2.462-4.111-4.351-5.546c-2.185-1.652-4.856-2.852-7.037-4.509c-0.89-0.672-1.727-1.438-2.416-2.318
			c-0.782-1.001-1.387-2.14-1.858-3.317c-0.677-1.7-1.098-3.511-1.35-5.321c-0.226-1.673-0.328-3.387-0.216-5.072
			c0.074-1.13,0.25-2.278,0.474-3.387c0.607-3.095,3.657-13.741,4.487-16.922c0.905-3.533,1.815-7.281,2.289-10.892
			c0.303-2.271,0.447-4.596,0.437-6.888c-0.057-8.337-1.992-18.098-1.856-26.438c0.061-6.076,1.223-16.84,1.512-22.945
			c0.469-8.387,0.534-17.497,0.288-25.899c-0.204-8.288-1.715-33.312-1.192-41.162c0.112-1.662,0.296-3.356,0.722-4.97
			c0.321-1.243,0.832-2.44,1.404-3.587c1.324-2.667,3.288-5.798,4.605-8.471c2.211-4.428,3.297-9.48,4.449-14.269"/>
	</g>
	<g id="POLYLINE_00000170250704520937528050000014906424393445149099_">
		
			<path fill="none" stroke="#FB8604" stroke-width="2.75" stroke-linecap="round" stroke-linejoin="round" stroke-miterlimit="10" d="
			M545.156,392.89c3.934,7.852,8.591,16.701,11.311,25.015c1.847,5.551,3.269,11.518,4.475,17.246
			c1.28,6.222,2.438,13.017,3.173,19.324c0.387,3.58,1.35,13.417,1.879,16.802c0.921,6.218,2.713,16.801,3.143,22.959
			c0.31,4.01,0.635,10.602,1.227,14.486c0.469,3.332,1.335,7.412,1.42,10.758c0.06,1.927-0.015,5.509,0.065,7.429
			c0.068,2.085,0.256,4.339,0.488,6.413c0.635,5.571,1.883,14.67,1.992,20.193c0.192,5.423-0.403,11.745-0.811,17.179
			c-0.14,1.882-0.074,4.022,0.024,5.914c0.013,0.485,0.021,0.987-0.051,1.468c-0.05,0.329-0.144,0.658-0.322,0.941
			c-0.155,0.249-0.371,0.456-0.615,0.618c-0.531,0.347-1.152,0.532-1.763,0.683c-2.232,0.507-4.638,0.564-6.92,0.649
			c-3.214,0.085-9.819,0.035-12.941,0.375c-0.769,0.086-1.554,0.208-2.295,0.431c-0.946,0.272-1.785,0.76-2.548,1.375
			c-1.284,1.065-2.796,2.143-3.894,3.404c-0.443,0.511-0.844,1.074-1.09,1.708c-0.272,0.696-0.332,1.467-0.205,2.202
			c0.154,0.905,0.568,1.755,1.119,2.485c0.834,1.103,1.989,1.931,3.234,2.515c1.547,0.73,3.252,1.077,4.95,1.201
			c5.011,0.256,37.389,0.088,42.324,0.098c1.084-0.032,2.221-0.07,3.287-0.279c0.818-0.159,1.625-0.456,2.287-0.972
			c0.845-0.65,1.428-1.574,1.93-2.499c1.994-3.669,1.849-8.029,1.599-12.077c-0.304-3.945-0.947-11.124-1.073-14.981
			c-0.104-2.611-0.109-5.535-0.042-8.148c0.156-6.214,0.953-19.085,1.114-25.314c0.119-2.329,0.335-29.714,0.374-32.842
			c0.113-5.597,0.44-11.726,1.014-17.29c0.55-5.416,1.638-12.652,1.838-18.065c0.2-3.57-0.162-7.407,0.403-10.949
			c0.29-1.808,0.774-4.594,0.936-6.387c0.227-2.227,0.323-5.455,0.422-7.716"/>
	</g>
	<g id="POLYLINE_00000078023951111040276270000013756087562677349269_">
		
			<path fill="none" stroke="#FB8604" stroke-width="2.75" stroke-linecap="round" stroke-linejoin="round" stroke-miterlimit="10" d="
			M607.871,424.691c0.272-2.629,0.483-5.362,0.442-8.002c-0.028-3.227-0.393-6.903-0.399-10.129c0.001-1.106,0.074-2.243,0.21-3.341
			c0.204-1.729,0.715-4.22,0.923-5.949c0.28-2.214,0.225-4.472-0.02-6.686c-0.243-2.171-0.672-4.35-1.336-6.433
			c-0.571-1.776-1.366-3.896-1.664-5.685c-0.35-1.96-0.358-4.498-0.458-6.509c-0.079-1.571-0.195-3.164-0.507-4.705
			c-0.583-3.046-1.977-6.368-2.385-9.447c-0.332-2.352-0.382-5.339-0.763-7.679c-0.333-2.16-0.897-4.296-1.629-6.354
			c-1.787-5.166-5.333-10.723-7.94-15.536c-1.01-1.858-1.897-3.809-2.536-5.825c-2.459-7.982-4.008-18.536-7.033-26.313
			c-0.863-2.322-2.458-5.367-3.515-7.629c-0.895-1.937-1.683-4.005-2.355-6.03c-2.414-7.347-4.274-16.582-6.375-24.041
			c-0.382-1.309-0.817-2.736-1.317-4.006c-0.634-1.652-1.489-3.24-2.627-4.601c-2.593-3.219-9.238-8.434-12.335-11.24
			c-5.641-4.951-12.122-11.235-18.639-14.98c-3.121-1.82-6.593-3.026-10.159-3.589c-3.233-0.573-7.347-0.566-10.627-0.692
			c-2.29-0.075-4.853-0.248-7.126-0.558c-2.357-0.318-4.729-0.809-7.028-1.416c-4.03-1.065-13.441-4.202-17.432-5.462
			c-12.125-3.763-24.855-6.429-37.432-8.136c-3.563-0.452-7.276-0.843-10.868-0.818c-2.264,0.021-4.562,0.208-6.766,0.743
			c-1.947,0.464-3.824,1.242-5.543,2.266c-2.606,1.541-4.897,3.602-7.032,5.734c-3.494,3.584-7.571,7.844-11.386,11.033
			l-6.014,4.981c-3.519,2.995-6.956,6.252-9.424,10.191c-2.895,4.642-4.629,10.017-5.068,15.466
			c-0.201,2.573-0.012,5.191,0.367,7.74c0.247,1.609,0.805,4.844,0.955,6.422c0.182,1.605,0.291,5.529,0.37,7.192
			c0.117,1.978,0.333,3.98,0.887,5.887c0.776,2.763,2.617,6.224,3.868,8.841c0.777,1.621,1.505,3.344,2.087,5.043
			c0.963,2.79,1.922,6.181,3.139,8.85c0.653,1.441,1.446,2.837,2.438,4.073c1.609,2.017,3.647,3.669,5.793,5.084
			c2.167,1.452,5.3,3.034,7.635,4.266c0.96,0.518,1.943,1.067,2.824,1.709c1.066,0.759,1.919,1.698,2.653,2.775
			c1.039,1.507,2.019,3.321,3.289,4.645c2.847,2.954,7.237,4.655,10.634,6.869c1.089,0.697,2.152,1.474,3.089,2.367
			c1.131,1.072,2.115,2.311,2.989,3.599c1.72,2.516,3.082,5.612,5.335,7.721c2.476,2.377,5.887,3.873,8.513,6.056
			c0.799,0.677,1.519,1.461,2.098,2.335c1.299,1.988,2.096,4.402,3.257,6.466c0.918,1.675,2.16,3.16,3.775,4.202
			c2.439,1.6,5.799,2.338,8.545,3.234c1.695,0.538,3.4,1.181,4.868,2.202c2.777,1.882,4.549,5.111,6.392,7.838
			c1.037,1.547,2.147,3.106,3.621,4.268c0.585,0.462,1.227,0.857,1.902,1.172c1.512,0.717,3.607,1.168,5.223,1.62
			c0.682,0.189,1.38,0.419,2.033,0.692l1.707,0.733c0.703,0.29,1.441,0.522,2.199,0.61c1.267,0.143,2.571,0.02,3.784-0.374
			c0.544-0.182,1.076-0.428,1.528-0.785c0.347-0.272,0.64-0.612,0.868-0.988c0.606-1.013,0.797-2.213,0.986-3.361
			c0.227-1.447,0.309-2.931,0.205-4.393c-0.103-1.599-0.443-3.199-0.842-4.748c-0.961-3.569-2.124-7.584-2.662-11.214
			c-0.75-4.869-0.95-9.881-0.256-14.768c0.491-3.756,1.873-9.162,2.641-12.899c0.657-3.184,1.186-6.493,1.351-9.74
			c0.196-3.84-0.053-7.757-0.621-11.558c-0.373-2.655-1.132-5.604-1.702-8.227c-1.256-5.9-1.43-12.051-1.394-18.067"/>
	</g>
	<g id="POLYLINE_00000010989914693115925840000017134531097896311976_">
		
			<path fill="none" stroke="#FB8604" stroke-width="2.75" stroke-linecap="round" stroke-linejoin="round" stroke-miterlimit="10" d="
			M207.87,383.372c1.014,16.415,2.128,34.773,1.905,51.148c-0.119,6.949-0.447,14.107-1.511,20.971
			c-0.771,4.811-1.773,9.717-4.034,14.074c-1.43,2.759-3.534,5.143-6.022,6.995c-1.089,0.818-2.276,1.565-3.46,2.237
			c-3.7,2.044-9.141,4.63-12.758,6.779c-1.528,0.894-3.119,1.87-4.544,2.92c-1.14,0.841-2.223,1.798-3.066,2.944
			c-0.989,1.327-1.644,2.875-2.144,4.444c-0.794,2.513-1.314,5.283-1.804,7.875c-0.698,4.4-3.077,16.374-3.335,20.701
			c-0.218,2.737-0.083,5.529,0.182,8.258c0.248,2.417,0.978,8.306,1.044,10.646c0.175,3.053-0.092,9.172-0.16,12.295
			c-0.021,2.536,0.012,5.165,0.361,7.677c0.24,1.744,0.683,3.488,1.527,5.043c0.653,1.228,1.532,2.337,2.451,3.376
			c2.061,2.301,4.316,4.604,6.553,6.735c1.068,1.028,3.062,2.692,3.966,3.865c0.563,0.703,1.022,1.496,1.34,2.339
			c0.415,1.098,0.634,2.272,0.765,3.436c0.146,1.405,0.165,2.845-0.023,4.246c-0.158,1.119-0.459,2.327-1.341,3.101
			c-0.497,0.438-1.13,0.682-1.767,0.835c-1.162,0.271-2.396,0.343-3.586,0.4c-0.613,0.033-1.75,0.045-2.382,0.058
			c0,0-54.692,0.016-54.692,0.016s-0.373-0.004-0.373-0.004s-0.176-0.004-0.176-0.004c-0.6-0.024-1.249-0.053-1.755-0.412
			c-0.348-0.248-0.569-0.634-0.72-1.027c-0.269-0.712-0.389-1.482-0.49-2.234c-0.24-1.992-0.226-4.031-0.008-6.025
			c0.213-1.999,0.726-3.974,1.534-5.816c0.645-1.545,1.867-3.682,2.681-5.17c0.403-0.737,0.784-1.526,1.076-2.312
			c0.322-0.869,0.53-1.784,0.609-2.707c0.151-1.807-0.096-3.685-0.33-5.478c-0.364-2.777-1.162-7.283-1.172-10.068
			c-0.029-1.701,0.178-3.416,0.579-5.069c0.574-2.613,2.678-7.954,3.542-10.522c1.839-5.206,3.206-10.75,4.286-16.164
			c0.753-3.846,1.583-8.316,2.107-12.197c0.183-1.506,0.308-3.064-0.048-4.554c-0.435-1.836-1.428-3.788-1.964-5.595
			c-0.75-2.332-0.694-5.1-0.732-7.534c-0.028-1.26-0.156-2.539-0.56-3.739c-0.193-0.593-0.451-1.188-0.72-1.75
			c-0.795-1.635-2.352-4.42-3.136-6.054c-1.598-3.205-2.693-6.665-3.314-10.19c-1.248-7.366-1.277-15.254-1.43-22.719
			c-0.039-4.594-0.099-9.879,0.228-14.452c0.19-3.234,0.939-8.079,1.362-11.299c0.319-2.602,0.588-5.269,0.408-7.885
			c-0.268-4.494-1.823-8.811-3.59-12.913c-2.023-4.68-5.979-12.787-7.904-17.456c-2.15-5.188-3.955-10.644-4.302-16.284
			c-0.511-8.185,1.941-16.239,5.033-23.727c8.101-19.481,22.414-35.612,36.523-50.986c14.205-15.198,29.434-30.201,47.819-40.261
			c11.66-6.433,24.335-11.163,37.355-13.955c6.394-1.341,12.96-2.171,19.498-2.175c5.536-0.03,11.197,0.696,16.656,1.589
			c13.862,2.461,28.542,4.825,42.64,4.404c4.283-0.129,8.628-0.569,12.855-1.273c6.283-1.045,12.688-2.688,18.812-4.43
			c22.175-6.392,46.848-15.613,68.509-23.756"/>
	</g>
	<g id="POLYLINE_00000164507482044416242340000003816520932565023114_">
		
			<path fill="none" stroke="#FB8604" stroke-width="2.75" stroke-linecap="round" stroke-linejoin="round" stroke-miterlimit="10" d="
			M115.142,393.944c-0.358,2.185-1.229,7.244-1.484,9.362c-0.293,2.266-0.502,4.73-0.605,7.013
			c-0.438,11.078,0.915,31.647,1.284,42.941c0.082,2.796,0.185,8.52,0.175,11.293c-0.032,8.369-0.601,22.792,0.059,30.949
			c0.326,4.906,1.363,10.717,0.078,15.522c-1.339,5.02-5.621,9.613-10.583,11.197c-0.991,0.308-2.029,0.515-3.07,0.5
			c-0.585-0.014-1.187-0.096-1.713-0.366c-0.25-0.13-0.478-0.31-0.64-0.543c-0.164-0.233-0.252-0.512-0.287-0.793
			c-0.061-0.506,0.024-1.02,0.146-1.511c0.243-0.94,0.65-1.844,1.081-2.711c1.997-4.004,5.08-7.601,6.837-11.73
			c0.514-1.216,0.884-2.5,1.126-3.798c0.279-1.479,0.418-3.024,0.493-4.527c0.207-2.703-0.138-32.622-0.117-36.085
			c-0.145-7.044-0.438-14.606-1.133-21.597c-0.941-9.727-2.853-22.108-3.154-31.835c-0.421-13.254,1.034-26.645,3.325-39.686"/>
	</g>
	<g id="POLYLINE_00000168814413830192923650000015277845478768998541_">
		
			<path fill="none" stroke="#FB8604" stroke-width="2.75" stroke-linecap="round" stroke-linejoin="round" stroke-miterlimit="10" d="
			M206.287,464.488c5.188-3.32,10.917-6.162,17.113-6.827c2.868-0.314,5.788-0.099,8.631,0.347
			c4.633,0.707,11.472,2.665,16.08,3.828c2.607,0.648,5.512,1.3,8.152,1.771c9.594,1.765,19.549,1.935,29.151,0.135
			c4.631-0.847,9.308-2.173,13.776-3.652c12.036-3.933,30.227-12.327,42.014-17.352c6.432-2.715,13.312-5.26,20.003-7.245
			c7.205-2.214,19.183-4.93,26.622-6.715"/>
	</g>
	<g id="POLYLINE_00000103226080176640051360000011088524290757719712_">
		
			<path fill="none" stroke="#FB8604" stroke-width="2.75" stroke-linecap="round" stroke-linejoin="round" stroke-miterlimit="10" d="
			M193.85,479.295c5.301,5.557,10.278,11.629,14.314,18.171c2.23,3.633,4.24,7.455,5.694,11.468
			c1.843,5.013,2.654,10.375,2.947,15.691c0.199,3.587,0.187,7.311,0.033,10.899c-0.112,3.138-0.708,9.823-0.954,13.01
			c-0.159,2.483-0.257,5.024-0.004,7.502c0.247,2.632,0.871,5.268,1.626,7.799c0.656,2.179,1.42,4.538,1.757,6.778
			c0.783,5.051,0.503,11.693,0.998,16.786c0.144,1.439,0.323,2.911,0.741,4.299c0.234,0.765,0.543,1.52,0.989,2.187
			c0.588,0.895,1.435,1.565,2.43,1.955c1.328,0.52,2.77,0.702,4.184,0.811c0.794,0.057,1.747,0.09,2.544,0.107
			c0,0,1.527,0.021,1.527,0.021l42.285,0.008c0.427-0.006,0.889-0.013,1.31-0.099c0.514-0.097,1.006-0.323,1.396-0.674
			c0.638-0.571,1.02-1.368,1.316-2.158c0.647-1.796,0.958-3.715,1.079-5.615c0.088-1.677,0.025-3.406-0.534-5.004
			c-0.419-1.216-1.147-2.309-2.026-3.241c-1.395-1.512-3.886-3.249-5.527-4.526c-1.694-1.322-3.341-2.758-4.718-4.412
			c-0.997-1.187-1.845-2.506-2.548-3.887c-1.242-2.434-2.13-5.103-2.914-7.717c-2.391-8.436-4.59-17.579-6.271-26.183
			c-2.103-10.785-3.048-21.935-1.721-32.878c0.424-3.575,1.089-7.227,1.98-10.715c0.699-2.859,2.074-6.791,2.821-9.638
			c1.347-5.062,2.166-10.454,2.818-15.649"/>
	</g>
</g>
<g id="_x32_D_x24_AG-OUTLINE">
	<g id="POLYLINE_00000131330156391215997100000008730228912975681698_">
		
			<path fill="none" stroke="#FB8604" stroke-width="3.5" stroke-linecap="round" stroke-linejoin="round" stroke-miterlimit="10" d="
			M606.613,439.243c8.499,3.088,17.396,5.377,26.34,6.715c5.978,0.871,12.093,1.406,18.138,1.23c2.335-0.093,4.72-0.257,6.989-0.846
			c0.877-0.246,1.815-0.552,2.511-1.159l0.033-0.03l0.032-0.03l0.031-0.03l0.03-0.031l0.029-0.031l0.028-0.031l0.027-0.031
			l0.026-0.031l0.025-0.032c0.211-0.27,0.334-0.61,0.328-0.953c-0.004-0.371-0.138-0.73-0.327-1.046
			c-0.708-1.137-1.964-1.797-3.161-2.311c-1.866-0.772-3.903-1.256-5.867-1.716c-4.88-1.054-11.026-2.341-15.782-3.691
			c-9.611-2.68-19.192-6.131-28.17-10.499c0.272-2.629,0.483-5.362,0.442-8.002c-0.028-3.227-0.393-6.903-0.399-10.129
			c0.001-1.106,0.074-2.243,0.21-3.341c0.204-1.729,0.715-4.22,0.923-5.949c0.28-2.214,0.225-4.472-0.02-6.686
			c-0.243-2.171-0.672-4.35-1.336-6.433c-0.571-1.776-1.366-3.896-1.664-5.685c-0.35-1.96-0.358-4.498-0.458-6.509
			c-0.079-1.571-0.195-3.164-0.507-4.705c-0.583-3.046-1.977-6.368-2.385-9.447c-0.332-2.352-0.382-5.339-0.763-7.679
			c-0.333-2.16-0.897-4.296-1.629-6.354c-1.787-5.166-5.333-10.723-7.94-15.536c-1.01-1.858-1.897-3.809-2.536-5.825
			c-2.459-7.982-4.008-18.536-7.033-26.313c-0.863-2.322-2.458-5.367-3.515-7.629c-0.895-1.937-1.683-4.005-2.355-6.03
			c-2.414-7.347-4.274-16.582-6.375-24.041c-0.382-1.309-0.817-2.736-1.317-4.006c-0.634-1.652-1.489-3.24-2.627-4.601
			c-2.593-3.219-9.238-8.434-12.335-11.24c-5.641-4.951-12.122-11.235-18.639-14.98c-3.121-1.82-6.593-3.026-10.159-3.589
			c-3.233-0.573-7.347-0.566-10.627-0.692c-2.29-0.075-4.853-0.248-7.126-0.558c-2.357-0.318-4.729-0.809-7.028-1.416
			c-4.03-1.065-13.441-4.202-17.432-5.462c-12.125-3.763-24.855-6.429-37.432-8.136c-3.563-0.452-7.276-0.843-10.868-0.818
			c-2.264,0.021-4.562,0.208-6.766,0.743c-1.947,0.464-3.824,1.242-5.543,2.266c-2.606,1.541-4.897,3.602-7.032,5.734l-2.876,2.944
			c-20.735,7.793-44.584,16.697-65.704,22.942c-6.005,1.763-12.326,3.476-18.464,4.675c-4.617,0.902-9.354,1.525-14.053,1.761
			c-6.273,0.318-12.735,0.016-18.988-0.569c-4.941-0.471-10.46-1.217-15.375-2.016c-6.9-1.145-15.66-2.862-22.563-3.206
			c-6.907-0.396-13.882,0.209-20.681,1.438c-6.301,1.135-12.655,2.878-18.719,4.94c-9.79,3.343-19.256,7.809-28.02,13.31
			c-10.32,6.432-19.66,14.549-28.372,22.999c-9.382,9.184-18.742,19.38-27.222,29.402c-8.638,10.277-16.546,21.427-21.917,33.784
			c-3.18,7.409-5.805,15.342-5.687,23.49c-2.29,13.042-3.746,26.432-3.325,39.686c0.299,9.713,2.215,22.127,3.154,31.835
			c0.695,6.984,0.989,14.568,1.133,21.597c-0.021,3.627,0.326,33.318,0.118,36.085c-0.083,1.654-0.241,3.343-0.581,4.965
			c-0.25,1.203-0.619,2.391-1.106,3.519c-1.814,4.158-4.939,7.783-6.912,11.859c-0.383,0.796-0.741,1.625-0.954,2.484
			c-0.114,0.472-0.19,0.965-0.131,1.45c0.035,0.287,0.127,0.572,0.297,0.808c0.165,0.231,0.396,0.409,0.648,0.537
			c0.555,0.279,1.19,0.353,1.805,0.357c1.096-0.003,2.186-0.24,3.222-0.586c2.147-0.727,4.088-2.003,5.725-3.561
			c2.15-2.057,3.826-4.664,4.597-7.551c1.285-4.793,0.253-10.635-0.078-15.522c-0.658-8.111-0.093-22.681-0.059-30.949
			c0.01-2.765-0.094-8.506-0.175-11.293c-0.373-11.415-1.72-31.775-1.284-42.941c0.102-2.283,0.312-4.747,0.605-7.013
			c0.253-2.104,1.132-7.215,1.484-9.362l3.248,7.031c2.093,4.706,4.124,9.637,4.431,14.835c0.177,2.608-0.085,5.295-0.408,7.885
			c-0.44,3.246-1.166,8.116-1.362,11.299c-0.326,4.568-0.269,9.848-0.227,14.452c0.154,7.475,0.181,15.348,1.43,22.719
			c0.621,3.525,1.716,6.984,3.314,10.19c0.782,1.629,2.342,4.422,3.136,6.054c0.269,0.563,0.527,1.157,0.72,1.75
			c0.404,1.2,0.532,2.479,0.56,3.739c0.038,2.436-0.018,5.198,0.732,7.534c0.536,1.808,1.529,3.757,1.964,5.595
			c0.356,1.489,0.231,3.048,0.048,4.554c-0.523,3.88-1.353,8.353-2.107,12.197c-1.081,5.411-2.447,10.958-4.286,16.164
			c-0.954,2.751-3.012,8.066-3.612,10.821c-0.379,1.651-0.554,3.361-0.504,5.054c0.048,2.633,0.805,7.119,1.167,9.784
			c0.238,1.797,0.48,3.669,0.33,5.478c-0.079,0.924-0.287,1.838-0.61,2.707c-0.291,0.787-0.677,1.574-1.076,2.312
			c-0.882,1.617-2.133,3.786-2.812,5.482c-0.835,1.974-1.305,4.098-1.474,6.232c-0.148,1.847-0.134,3.731,0.116,5.569
			c0.109,0.714,0.231,1.446,0.516,2.113c0.148,0.342,0.36,0.669,0.67,0.884c0.557,0.383,1.268,0.386,1.919,0.407
			c0,0,0.373,0.004,0.373,0.004l54.692-0.016c0.551-0.015,1.81-0.026,2.382-0.058c1.217-0.061,2.481-0.131,3.669-0.421
			c0.643-0.162,1.28-0.426,1.766-0.889c0.791-0.751,1.083-1.862,1.242-2.907c0.207-1.44,0.19-2.921,0.04-4.366
			c-0.131-1.164-0.349-2.338-0.765-3.436c-0.319-0.843-0.777-1.636-1.34-2.339c-0.908-1.157-2.873-2.835-3.966-3.865
			c-2.238-2.132-4.492-4.434-6.553-6.735c-0.919-1.039-1.798-2.148-2.451-3.376c-0.844-1.555-1.287-3.299-1.527-5.043
			c-0.349-2.511-0.383-5.143-0.361-7.677c0.068-3.162,0.336-9.214,0.16-12.295c-0.064-2.312-0.8-8.27-1.044-10.646
			c-0.215-2.278-0.36-4.621-0.259-6.907c0.097-2.532,0.483-5.202,0.903-7.706c0.798-4.3,2.679-16.141,3.74-20.19
			c0.278-1.091,0.602-2.215,1.006-3.266c0.535-1.406,1.264-2.756,2.261-3.891c0.739-0.852,1.613-1.591,2.517-2.261
			c4.813-3.495,11.147-6.403,16.404-9.201c5.301,5.557,10.278,11.629,14.314,18.171c2.23,3.633,4.24,7.455,5.694,11.468
			c1.843,5.013,2.654,10.375,2.947,15.691c0.199,3.587,0.187,7.311,0.033,10.899c-0.112,3.138-0.708,9.823-0.954,13.01
			c-0.159,2.483-0.257,5.024-0.004,7.502c0.247,2.632,0.871,5.268,1.626,7.799c0.656,2.179,1.42,4.538,1.757,6.778
			c0.783,5.051,0.503,11.693,0.998,16.786c0.144,1.439,0.323,2.911,0.741,4.299c0.234,0.765,0.543,1.52,0.989,2.187
			c0.588,0.895,1.435,1.565,2.43,1.955c1.328,0.52,2.77,0.702,4.184,0.811c0.794,0.057,1.747,0.09,2.544,0.107
			c0,0,1.527,0.021,1.527,0.021l42.285,0.008c0.427-0.006,0.889-0.013,1.31-0.099c0.514-0.097,1.006-0.323,1.396-0.674
			c0.638-0.571,1.02-1.368,1.316-2.158c0.647-1.796,0.958-3.715,1.079-5.615c0.088-1.677,0.025-3.406-0.534-5.004
			c-0.419-1.216-1.147-2.309-2.026-3.241c-1.395-1.512-3.886-3.249-5.527-4.526c-1.694-1.322-3.341-2.758-4.718-4.412
			c-0.997-1.187-1.845-2.506-2.548-3.887c-1.242-2.434-2.13-5.103-2.914-7.717c-2.391-8.436-4.59-17.579-6.271-26.183
			c-2.103-10.785-3.048-21.935-1.721-32.878c0.424-3.575,1.089-7.227,1.98-10.715c0.699-2.859,2.074-6.791,2.821-9.638
			c1.347-5.062,2.166-10.454,2.818-15.649c8.264,1.042,16.715,0.797,24.889-0.82c4.318-0.841,8.699-2.101,12.877-3.482
			c11.966-3.899,30.276-12.351,42.014-17.352c6.432-2.715,13.312-5.26,20.003-7.245c7.205-2.214,19.183-4.93,26.622-6.715
			c1.683,5.925,3.456,12.075,7.278,17.016c2.47,3.288,6.149,6.849,8.605,10.151c1.032,1.386,1.922,2.899,2.621,4.479
			c1.136,2.561,1.938,5.37,2.701,8.064c3.576,13.186,6.865,27.006,8.995,40.501c1.928,12.673,3.089,25.823,3.251,38.638
			c0.049,8.972-0.676,18.307-4.831,26.417c-0.972,1.928-2.565,4.72-3.212,6.765c-0.492,1.476-0.757,3.035-0.863,4.585
			c-0.113,1.792-0.029,3.621,0.349,5.379c0.268,1.22,0.701,2.433,1.458,3.439c0.634,0.851,1.519,1.505,2.512,1.878
			c1.177,0.446,2.459,0.544,3.705,0.616c1.515,0.14,47.225,0.061,49.238,0.08c0.706-0.014,1.47-0.016,2.169-0.126
			c0.584-0.088,1.173-0.268,1.64-0.643c0.352-0.278,0.625-0.645,0.849-1.03c0.314-0.543,0.549-1.135,0.74-1.732
			c0.371-1.176,0.578-2.408,0.638-3.639c0.081-1.648-0.133-3.325-0.743-4.864c-0.865-2.226-2.462-4.111-4.351-5.546
			c-2.185-1.652-4.856-2.852-7.037-4.509c-0.89-0.672-1.727-1.438-2.416-2.318c-0.782-1.001-1.387-2.14-1.858-3.317
			c-0.677-1.7-1.098-3.511-1.35-5.321c-0.226-1.673-0.328-3.387-0.216-5.072c0.074-1.13,0.25-2.278,0.474-3.387
			c0.607-3.095,3.657-13.741,4.487-16.922c0.905-3.533,1.815-7.281,2.289-10.892c0.303-2.271,0.447-4.596,0.437-6.888
			c-0.057-8.337-1.992-18.098-1.856-26.438c0.061-6.076,1.223-16.84,1.512-22.945c0.469-8.387,0.534-17.497,0.288-25.899
			c-0.204-8.288-1.715-33.312-1.192-41.162c0.112-1.662,0.296-3.356,0.722-4.97c0.321-1.243,0.832-2.44,1.404-3.587
			c1.324-2.667,3.288-5.798,4.605-8.471c2.211-4.428,3.297-9.48,4.449-14.269c1.952,2.167,3.515,5.063,5.242,7.407
			c0.944,1.28,2.037,2.49,3.394,3.34c1.805,1.162,4.247,1.632,6.295,2.206c0.682,0.189,1.38,0.419,2.033,0.692l1.707,0.733
			c0.678,0.279,1.388,0.506,2.118,0.6c1.208,0.152,2.452,0.049,3.622-0.287c0.764-0.227,1.521-0.571,2.089-1.144
			c0.851-0.848,1.171-2.06,1.39-3.207c0.36-1.888,0.501-3.835,0.311-5.751c-0.215-2.724-1.51-6.72-2.182-9.389
			c1.897,0.449,4.105,0.963,5.917,1.638c2.611,0.935,7.613,3.272,10.219,4.349c1.769,0.735,3.653,1.425,5.495,1.95
			c2.082,0.611,4.57,1.114,6.709,1.536c1.105,2.944,2.425,5.857,4.181,8.475c1.205,1.78,2.641,3.453,4.427,4.671
			c2.017,1.382,4.452,2.026,6.866,2.234c3.934,7.852,8.591,16.701,11.311,25.015c1.847,5.551,3.269,11.518,4.475,17.246
			c1.28,6.222,2.438,13.017,3.173,19.324c0.387,3.58,1.35,13.417,1.879,16.802c0.921,6.218,2.713,16.801,3.143,22.959
			c0.31,4.01,0.635,10.602,1.227,14.486c0.469,3.332,1.335,7.412,1.42,10.758c0.06,1.927-0.015,5.509,0.065,7.429
			c0.068,2.085,0.256,4.339,0.488,6.413c0.635,5.571,1.883,14.67,1.992,20.193c0.192,5.423-0.403,11.745-0.811,17.179
			c-0.14,1.882-0.074,4.022,0.024,5.914c0.013,0.485,0.021,0.987-0.051,1.468c-0.05,0.329-0.144,0.658-0.322,0.941
			c-0.155,0.249-0.371,0.456-0.615,0.618c-0.531,0.347-1.152,0.532-1.763,0.683c-2.232,0.507-4.638,0.564-6.92,0.649
			c-3.214,0.085-9.819,0.035-12.941,0.375c-0.769,0.086-1.554,0.208-2.295,0.431c-0.946,0.272-1.785,0.76-2.548,1.375
			c-1.284,1.065-2.796,2.143-3.894,3.404c-0.443,0.511-0.844,1.074-1.09,1.708c-0.272,0.696-0.332,1.467-0.205,2.202
			c0.154,0.905,0.568,1.755,1.119,2.485c0.834,1.103,1.989,1.931,3.234,2.515c1.547,0.73,3.252,1.077,4.95,1.201
			c5.011,0.256,37.389,0.088,42.324,0.098c1.084-0.032,2.221-0.07,3.287-0.279c0.818-0.159,1.625-0.456,2.287-0.972
			c0.845-0.65,1.428-1.574,1.93-2.499c1.994-3.669,1.849-8.029,1.599-12.077c-0.304-3.945-0.947-11.124-1.073-14.981
			c-0.104-2.611-0.109-5.535-0.042-8.148c0.156-6.214,0.953-19.085,1.114-25.314c0.119-2.329,0.335-29.714,0.374-32.842
			c0.113-5.597,0.44-11.726,1.014-17.29c0.55-5.416,1.638-12.652,1.838-18.065c0.2-3.57-0.162-7.407,0.403-10.949
			c0.29-1.808,0.774-4.594,0.936-6.387C606.418,444.733,606.514,441.504,606.613,439.243z"/>
	</g>
</g>
</svg>
