<?xml version="1.0" encoding="utf-8"?>
<!-- Generator: Adobe Illustrator 26.3.1, SVG Export Plug-In . SVG Version: 6.00 Build 0)  -->
<!DOCTYPE svg PUBLIC "-//W3C//DTD SVG 1.1//EN" "http://www.w3.org/Graphics/SVG/1.1/DTD/svg11.dtd" [
	<!ENTITY ns_extend "http://ns.adobe.com/Extensibility/1.0/">
	<!ENTITY ns_ai "http://ns.adobe.com/AdobeIllustrator/10.0/">
	<!ENTITY ns_graphs "http://ns.adobe.com/Graphs/1.0/">
	<!ENTITY ns_vars "http://ns.adobe.com/Variables/1.0/">
	<!ENTITY ns_imrep "http://ns.adobe.com/ImageReplacement/1.0/">
	<!ENTITY ns_sfw "http://ns.adobe.com/SaveForWeb/1.0/">
	<!ENTITY ns_custom "http://ns.adobe.com/GenericCustomNamespace/1.0/">
	<!ENTITY ns_adobe_xpath "http://ns.adobe.com/XPath/1.0/">
]>
<svg version="1.1" xmlns:x="&ns_extend;" xmlns:i="&ns_ai;" xmlns:graph="&ns_graphs;"
	 xmlns="http://www.w3.org/2000/svg" xmlns:xlink="http://www.w3.org/1999/xlink" x="0px" y="0px" width="750px" height="750px"
	 viewBox="0 0 750 750" enable-background="new 0 0 750 750" xml:space="preserve">
<metadata>
	<sfw  xmlns="&ns_sfw;">
		<slices></slices>
		<sliceSourceBounds  bottomLeftOrigin="true" height="6172.08" width="9606" x="-2000" y="2687"></sliceSourceBounds>
	</sfw>
</metadata>
<g id="FILL-BACKGROUND">
	<rect y="0" fill="#FFFFFF" width="750" height="750"/>
</g>
<g id="N-TEXT">
</g>
<g id="N-DIMENSIONS">
</g>
<g id="_x32_D_x24_AG-DIAGRAM">
	<g id="POLYLINE_00000034051896749753104060000012563401937494979732_">
		<g>
			<g>
				
					<line fill="none" stroke="#FB8604" stroke-width="3.25" stroke-linecap="round" stroke-linejoin="round" x1="104.697" y1="602.936" x2="106.697" y2="602.936"/>
				
					<line fill="none" stroke="#FB8604" stroke-width="3.25" stroke-linecap="round" stroke-linejoin="round" stroke-dasharray="3.9895,6.9817" x1="113.679" y1="602.936" x2="560.009" y2="602.936"/>
				
					<line fill="none" stroke="#FB8604" stroke-width="3.25" stroke-linecap="round" stroke-linejoin="round" x1="563.5" y1="602.936" x2="565.5" y2="602.936"/>
			</g>
		</g>
	</g>
</g>
<g id="_x32_D_x24_AG-DETAILS-DIAGRAM">
</g>
<g id="_x32_D_x24_AG-ANIMALS">
	<g id="POLYLINE_00000099663887675561879400000014720087289717867655_">
		
			<path fill="none" stroke="#FB8604" stroke-width="2.75" stroke-linecap="round" stroke-linejoin="round" stroke-miterlimit="10" d="
			M518.945,255.159c1.357,2.696,2.94,5.693,3.801,8.569c1.4,4.388,1.272,9.106,1.094,13.657c-0.215,5.41-0.749,11.793-0.057,17.142
			c0.403,3.29,1.416,6.864,2.094,10.111c0.342,1.707,0.606,3.47,0.509,5.215c-0.079,1.6-0.536,3.164-1.168,4.628
			c-0.875,2.103-2.949,5.432-4.078,7.435c-1.077,1.892-2,3.914-2.748,5.958l-2.357,6.653c-0.874,2.319-1.89,4.632-3.32,6.667
			c-1.273,1.808-2.878,3.397-4.722,4.62c-1.263,0.83-2.657,1.502-4.138,1.829c-1.03,0.226-2.114,0.276-3.146,0.039
			c-1.404-0.32-2.631-1.157-3.668-2.131c-1.36-1.281-2.491-2.833-3.558-4.361c-0.978-1.443-3.399-5.042-4.402-6.404
			c-1.75-2.435-3.804-5.067-5.707-7.395c-4.53-5.505-9.777-11.241-14.728-16.379c-4.985-5.119-10.355-10.367-15.857-14.923
			c-1.234-1.007-4.369-3.511-5.651-4.531c-6.515-5.358-7.224-7.844-3.582-15.508c4.789-9.357,13.961-30.532,18.363-40.387
			c1.617-3.429,3.435-7.604,5.398-10.812c0.942-1.532,2.019-3.015,3.353-4.23c1.351-1.242,3.005-2.151,4.784-2.605
			c2.114-0.544,4.333-0.592,6.503-0.477c5.881,0.317,12.495,2.18,18.226,3.575c2.588,0.622,5.263,1.023,7.93,1
			c3.979-0.019,8.414-0.245,12.244,0.941c2.458,0.74,4.763,1.951,6.877,3.396c2.72,1.869,5.18,4.16,7.286,6.699"/>
	</g>
	<g id="POLYLINE_00000034069919030596276410000014901434010878587531_">
		
			<path fill="none" stroke="#FB8604" stroke-width="2.75" stroke-linecap="round" stroke-linejoin="round" stroke-miterlimit="10" d="
			M449.318,472.553c2.554,4.397,6.696,11.089,8.792,15.619c1.202,2.542,2.214,5.275,3.084,7.95
			c2.195,6.724,4.221,15.807,6.55,22.476c1.881,5.453,4.426,10.797,7.086,15.911l4.096,7.58c0.908,1.735,1.762,3.543,2.352,5.412
			c0.893,2.638,1.787,8.063,2.361,10.848c0.295,1.595,0.601,3.267,0.656,4.889c0.028,0.874-0.04,1.764-0.161,2.629l-0.234,1.572
			c-0.072,0.523-0.124,1.065-0.108,1.593c0.02,0.782,0.154,1.568,0.323,2.33l0.402,1.697c0.178,0.786,0.299,1.604,0.193,2.409
			c-0.111,0.902-0.471,1.757-0.834,2.583l-1.836,3.984c-1.642,3.721-3.027,7.67-3.13,11.773c-0.065,2.523,0.295,5.181,1.676,7.344
			c0.351,0.524,0.773,1.031,1.336,1.334c0.33,0.177,0.699,0.272,1.068,0.329c0.631,0.097,1.315,0.104,1.954,0.116l58.36,0.006
			c0,0,0.636-0.002,0.636-0.002c0.266-0.012,0.585-0.004,0.85-0.029c0.452-0.033,0.91-0.101,1.333-0.27
			c0.496-0.194,0.924-0.533,1.272-0.933c0.488-0.56,0.858-1.219,1.131-1.908c0.339-0.862,0.524-1.792,0.509-2.72
			c-0.034-1.777-0.821-3.435-1.676-4.958c-1.203-2.057-2.582-4.114-4.019-6.014c-1.015-1.31-2.109-2.613-3.483-3.56
			c-0.852-0.612-2.417-1.382-3.347-1.89c-1.227-0.673-2.453-1.436-3.578-2.268c-1.679-1.233-3.2-2.697-4.482-4.339
			c-1.984-2.547-3.643-5.407-4.524-8.527l-0.744-2.681c-0.638-2.2-1.77-4.793-2.506-6.967c-0.467-1.346-0.784-2.75-0.77-4.18
			c-0.003-0.789,0.058-1.654,0.127-2.443c0.311-3.098,0.713-7.051,0.797-10.12c0.21-6.171-0.199-12.439-0.854-18.574
			c-0.792-7.487-2.218-15.008-4.239-22.262c-2.522-9.32-8.106-25.171-10.205-34.546c-1.525-6.562-2.303-14.397-3.468-21.032
			c-0.919-5.466-2.438-10.935-4.207-16.185c-1.847-5.365-6.607-18.711-8.222-23.922c-0.454-1.478-0.917-3.067-1.241-4.577
			c-0.401-1.802-0.559-3.668-0.525-5.512l0.216-7.749c0.02-1.786,0.003-3.834-0.073-5.613"/>
	</g>
	<g id="POLYLINE_00000094584253814828986220000009591006192923734919_">
		
			<path fill="none" stroke="#FB8604" stroke-width="2.75" stroke-linecap="round" stroke-linejoin="round" stroke-miterlimit="10" d="
			M587.256,357.426c-0.031,3.218,0.334,6.474,1.232,9.568c0.696,2.367,1.726,4.682,3.285,6.612c1.935,2.443,5.029,4.339,7.534,6.162
			c1.597,1.158,3.121,2.474,4.236,4.116c1.335,1.918,2.188,4.138,2.782,6.387c0.738,2.839,1.149,5.818,1.405,8.739
			c0.351,4.24,0.324,8.606-0.058,12.842c-0.365,4.229-1.531,10.676-1.861,14.907c-0.139,1.703-0.173,3.452-0.091,5.157
			c0.123,2.796,0.591,6.521,0.691,9.319c0.219,5.091-0.806,10.679-1.031,15.759c-0.198,3.504,0.363,7.205,0.422,10.707
			c0.07,2.789-0.595,5.809-1.109,8.544c-0.447,2.317-0.795,4.76-0.89,7.118c-0.251,5.767,0.185,12.574-0.364,18.32
			c-0.429,4.947-1.297,11.084-1.256,16.043c0.035,6.143,0.706,13.34,0.513,19.479c-0.136,5.625-0.61,11.383-1.529,16.936
			c-0.601,3.461-1.341,6.997-2.685,10.255c-0.677,1.617-1.529,3.193-2.672,4.53c-0.939,1.113-2.108,2.014-3.306,2.831
			c-1.489,0.997-3.435,2.211-4.758,3.388c-1.505,1.308-2.861,2.822-4.091,4.39c-0.926,1.194-1.839,2.478-2.626,3.767
			c-0.444,0.742-0.861,1.518-1.126,2.343c-0.164,0.518-0.267,1.066-0.226,1.612c0.031,0.42,0.157,0.83,0.348,1.204
			c0.538,1.034,1.467,1.799,2.409,2.453c1.219,0.824,2.641,1.545,4.151,1.449c0.567-0.038,1.117-0.222,1.625-0.472
			c1.189-0.582,2.425-1.644,3.495-2.428c1.469-1.13,3.991-2.451,5.617-3.384c1.269-0.741,2.524-1.558,3.647-2.505
			c2.863-2.414,5.204-5.47,7.43-8.465c4.422-6.069,8.92-12.36,11.247-19.575c1.055-3.195,1.766-6.561,2.288-9.883
			c1.768-11.641,2.157-27.442,3.253-39.209c0.519-6.023,1.308-12.522,2.237-18.495c2.716-17.408,9.967-51.6,12.551-68.974
			l2.293-16.218c0.366-2.645,1.438-7.771,1.373-10.382c-0.011-0.456-0.064-0.919-0.156-1.366c-0.089-0.453-0.238-0.985-0.295-1.442
			c-0.038-0.304-0.036-0.617,0.029-0.917c0.113-0.543,0.431-1.193,0.645-1.707c0.222-0.525,0.425-1.074,0.551-1.63
			c0.389-1.709,0.073-3.516-0.214-5.219l-0.658-3.43c-0.129-0.773-0.265-1.569-0.203-2.355c0.042-0.6,0.251-1.231,0.388-1.815
			c0.14-0.583,0.206-1.191,0.237-1.789c0.123-3.212-0.246-6.485-0.64-9.67c-0.58-5.062-2.506-12.88-3.623-17.918
			c-1.724-8.327-4.932-25.046-6.321-33.44c-0.408-2.711-0.556-6.32-0.743-9.08c-0.204-2.646-0.519-5.328-1.213-7.893
			c-0.614-2.271-1.543-4.476-2.586-6.581c-2.062-4.087-5.214-9.275-7.295-13.343c-2.706-5.218-5.219-10.655-6.982-16.269
			c-1.984-6.359-3.326-14.274-5.578-20.54c-2.628-7.459-6.361-14.749-12.054-20.338c-3.163-3.102-6.947-5.585-11.081-7.185
			c-2.987-1.17-6.163-1.867-9.339-2.284c-10.146-1.255-20.527-0.133-30.608,1.236c-7.818,1.13-20.538,3.604-28.303,3.734
			c-3.764,0.112-7.59-0.159-11.322-0.654c-8.156-1.09-17.98-3.387-26.07-5.031c-2.493-0.562-5.107-1.194-7.509-2.059
			c-1.416-0.513-3.455-1.321-4.758-1.761c-0.755-0.265-1.591-0.511-2.359-0.721c-2.192-0.577-4.544-0.968-6.787-1.3
			c-2.847-0.388-9.649-1.279-12.186-1.734c-3.277-0.565-7.627-1.595-10.905-2.099c-3.246-0.595-12.263-1.069-15.756-1.344
			c-5.655-0.426-11.555-1.182-17.129-2.191c-13.268-2.438-26.638-5.83-39.436-10.096c-2.214-0.747-4.835-1.703-6.98-2.55
			c-1.849-0.695-7.447-3.145-9.307-3.872c-2.421-0.96-4.913-1.857-7.476-2.334c-1.964-0.378-3.986-0.507-5.983-0.478
			c-3.718,0.051-7.561,0.613-11.232,1.196c-6.383,1.099-16.04,2.736-22.361,3.552c-7.962,1.036-40.325,4.782-47.578,6.157
			c-8.349,1.422-16.927,3.687-25.068,6.058c-9.599,2.834-20.236,6.368-29.606,9.887c-9.36,3.553-18.821,7.446-27.229,12.942
			c-5.865,3.799-11.27,8.385-16.254,13.272c-5.404,5.289-10.549,11.177-15.21,17.132c-8.868,11.441-16.736,24.004-20.957,37.944
			c-2.718,8.781-3.789,18.06-4.333,27.209c-0.33,5.748-1.253,28.877-1.436,34.683c-0.082,3.689-0.058,7.686,0.08,11.375
			c0.718,18.449,3.764,40.538,6.066,58.946c0.631,5.332,1.027,11.417,1.216,16.794l0.758,31.719
			c0.144,6.126,1.04,16.066,1.583,22.26c0.296,3.935,0.44,8.344,0.499,12.289c0.046,3.793-0.04,17.47,0.229,20.961
			c0.091,1.516,0.247,3.202,0.452,4.706c0.267,1.965,0.819,4.879,1.088,6.844c0.245,1.808,0.406,3.659,0.242,5.481
			c-0.134,1.581-0.59,3.126-1.163,4.6c-0.946,2.43-2.355,5.214-3.06,7.725c-0.493,1.703-0.787,3.473-0.871,5.244
			c-0.076,1.794,0.043,3.63,0.601,5.346c0.341,1.029,0.865,2.03,1.676,2.766c1.242,1.135,3.038,1.524,4.671,1.229
			c0.986-0.173,1.931-0.584,2.73-1.188c1.077-0.815,1.889-1.934,2.527-3.113c0.865-1.613,1.437-3.38,1.857-5.156
			c0.591-2.542,0.872-5.18,0.921-7.788c0.13-4.766-0.816-11.522-1.249-16.317c-0.671-7.337-1.156-15.431-1.259-22.793
			c-0.049-3.712,0.007-7.886,0.204-11.594c0.172-3.272,0.539-8.517,0.48-11.787c-0.01-4.14-0.844-9.258-1.229-13.378
			c-0.884-8.216,0.326-19.892,0.709-28.177c1.018-20.785-1.644-48.035-1.333-68.853c0.046-3.995,0.24-8.458,0.59-12.437
			c0.429-5.41,2.047-15.87,2.821-21.357c1.858-12.798,3.169-26.065,2.754-38.997"/>
	</g>
	<g id="POLYLINE_00000134953567440951639050000004893501799870210187_">
		
			<path fill="none" stroke="#FB8604" stroke-width="2.75" stroke-linecap="round" stroke-linejoin="round" stroke-miterlimit="10" d="
			M262.262,365.845c-0.051,9.86-0.168,20.366-1.261,30.144c-0.535,4.507-1.238,9.09-2.778,13.374
			c-0.782,2.168-1.852,4.245-3.215,6.106c-3.745,5.016-9.722,10.827-14.081,15.402c-3.416,3.552-6.89,7.415-9.963,11.26
			c-8.334,10.395-15.358,21.908-21.379,33.779c-2.762,5.529-5.407,11.307-7.299,17.197c-1.486,4.558-2.483,9.362-3.165,14.106
			c-0.623,4.617-1.81,12.942-2.267,17.46c-0.064,0.683-0.131,1.398-0.128,2.081c0.001,0.465,0.049,0.936,0.136,1.392
			c0.217,1.092,0.606,2.607,0.801,3.694c0.328,1.669,0.453,3.388,0.353,5.087c-0.275,4.174-1.314,12.475-1.576,16.616
			c-0.153,2.237-0.29,4.589-0.174,6.828c0.064,1.19,0.225,2.391,0.555,3.538c0.315,1.125,0.817,2.21,1.34,3.252
			c1.33,2.484,3.241,6.43,4.435,9.005c0.488,0.987,1.015,2.051,1.612,2.973c0.382,0.588,0.82,1.151,1.349,1.614
			c0.736,0.653,1.642,1.081,2.543,1.455l2.36,0.946c1.177,0.488,2.351,1.05,3.366,1.829c0.848,0.641,1.589,1.424,2.213,2.283
			c0.833,1.148,1.481,2.432,2.035,3.734c0.605,1.436,1.111,2.945,1.483,4.458c0.316,1.317,0.562,2.675,0.539,4.034
			c-0.018,0.682-0.102,1.384-0.401,2.004c-0.178,0.372-0.461,0.695-0.818,0.905c-0.514,0.306-1.118,0.412-1.705,0.471
			c-0.459,0.047-0.994,0.055-1.459,0.061c0,0-61.04-0.005-61.04-0.005s-1.893-0.017-1.893-0.017
			c-2.323-0.043-4.891-0.088-7.195-0.383c-1.574-0.211-3.188-0.522-4.583-1.314c-0.704-0.402-1.33-0.946-1.81-1.601
			c-0.62-0.841-1.016-1.832-1.259-2.842c-0.816-3.521-0.049-7.174,0.817-10.612l1.78-6.485c0.517-1.981,0.889-4.027,0.899-6.079
			c0.024-2.134-0.245-5.071-0.224-7.207c-0.002-1.746,0.151-3.521,0.452-5.241c0.409-2.286,1.096-5.567,1.277-7.832
			c0.139-1.543,0.123-3.125,0.013-4.669c-0.18-2.855-0.941-7.236-1.203-10.102c-0.136-1.54-0.159-3.113,0.014-4.652
			c0.266-2.456,1.008-4.862,1.821-7.187c1.06-3.031,3.335-8.757,4.183-11.805c0.615-2.128,1.029-4.382,1.336-6.577
			c0.151-1.071,0.431-3.142,0.634-4.2c0.282-1.511,0.936-4.485,1.19-5.99c0.223-1.294,0.395-2.65,0.442-3.964
			c0.096-2.295-0.133-5.313-0.231-7.617c-0.152-3.173,0.229-6.737,0.563-9.906c0.084-0.896,0.122-1.815,0.028-2.711
			c-0.069-0.695-0.203-1.398-0.359-2.078c-0.488-2.21-3.254-11.117-3.92-13.437c-1.959-6.801-3.379-13.847-3.969-20.902
			c-0.893-9.288-0.325-20.785-0.113-30.171c0.023-2.907,0.083-6.16-0.225-9.038c-0.104-0.918-0.273-1.843-0.561-2.722
			c-0.265-0.823-0.648-1.623-1.071-2.376c-1.003-1.737-2.129-3.693-2.825-5.565c-0.861-2.231-1.419-4.608-1.849-6.957
			c-0.55-3.086-0.873-6.296-0.917-9.43c-0.07-3.447,0.323-7.948,0.563-11.415c0.078-1.396,0.115-2.827-0.069-4.215
			c-0.138-1.168-0.565-2.484-0.911-3.612c-0.989-3.36-1.446-7.048-1.905-10.52"/>
	</g>
	<g id="POLYLINE_00000119090106975339772170000003548818947015952517_">
		
			<path fill="none" stroke="#FB8604" stroke-width="2.75" stroke-linecap="round" stroke-linejoin="round" stroke-miterlimit="10" d="
			M235.429,436.822c5.009,1.669,10.321,2.429,15.566,2.888c2.162,0.169,4.426,0.324,6.584,0.083c1.891-0.195,3.768-0.71,5.577-1.282
			c4.566-1.504,10.105-3.434,14.775-4.333c5.147-1.036,10.53-1.457,15.772-1.688c8.075-0.39,20.175,0.035,28.328,0.055
			c4.232-0.005,8.614-0.231,12.816-0.754c8.87-1.052,23.05-4.418,31.916-6.252c3.605-0.753,8.102-1.594,11.741-2.138
			c2.089-0.33,9.665-1.308,11.789-1.594"/>
	</g>
	<g id="POLYLINE_00000018937107249387220430000005547270886369532563_">
		
			<path fill="none" stroke="#FB8604" stroke-width="2.75" stroke-linecap="round" stroke-linejoin="round" stroke-miterlimit="10" d="
			M502.267,347.838c0.502,3.981,1.715,7.868,3.303,11.545c1.378,3.174,3.025,6.326,5.442,8.839c0.998,1.038,2.15,1.937,3.405,2.643
			c2.187,1.238,4.642,1.987,7.056,2.645c4.176,1.042,10.212,2.588,14.281,3.796c5.56,1.606,21.509,6.558,26.869,7.755
			c1.535,0.347,3.133,0.665,4.698,0.814c1.591,0.147,3.24,0.148,4.774-0.347c1.822-0.586,3.394-1.844,5.111-2.655
			c1.181-0.565,2.458-0.938,3.743-1.174c1.667-0.301,3.39-0.381,5.077-0.219c2.543,0.247,5.113,1.097,7.034,2.83
			c1.913,1.704,3.141,4.458,4.389,6.657c0.833,1.472,1.746,2.939,2.854,4.221c0.704,0.809,1.501,1.559,2.431,2.102
			c1.493,0.881,3.247,1.182,4.957,1.276"/>
	</g>
	<g id="POLYLINE_00000093857453840210277460000012178038630146557095_">
		
			<path fill="none" stroke="#FB8604" stroke-width="2.75" stroke-linecap="round" stroke-linejoin="round" stroke-miterlimit="10" d="
			M401.466,338.672c-11.229,17.043-17.168,34.825-16.894,55.324c0.044,2.611,0.229,5.283,0.616,7.866
			c0.34,2.353,0.932,4.824,1.553,7.124c0.845,3.287,2.744,9.446,3.54,12.763c0.333,1.632,0.545,3.757,0.771,5.416
			c1.101,9.447,0.988,19.272,0.512,28.762c-0.579,11.704-2.511,23.524-4.918,34.985c-1.662,7.781-5.974,26.987-7.283,34.696
			c-0.691,3.963-1.24,8.213-1.617,12.22l-0.781,9.657c-0.28,2.711-0.515,5.541-1.476,8.11c-0.402,1.045-0.992,2.015-1.658,2.912
			c-0.661,0.886-1.455,1.861-1.907,2.869c-0.615,1.296-0.899,2.725-1.065,4.142c-0.166,1.305-0.257,3.175-0.662,4.419
			c-0.343,1.088-1.141,1.947-1.931,2.737c-1.299,1.262-2.697,2.593-3.771,4.045c-1.138,1.498-2.076,3.168-2.805,4.901
			c-1.248,2.986-2.106,6.153-2.618,9.347c-0.366,2.405-0.552,4.907,0.017,7.296c0.271,1.113,0.717,2.206,1.441,3.103
			c0.322,0.393,0.696,0.757,1.143,1.005c0.382,0.214,0.811,0.335,1.241,0.408c0.744,0.125,1.536,0.135,2.29,0.15l56.23,0.008
			c0.906-0.019,2.308,0.015,3.193-0.07c0.683-0.059,1.386-0.15,2.01-0.451c0.556-0.266,0.978-0.736,1.238-1.289
			c0.304-0.639,0.44-1.347,0.54-2.043c0.142-1.041,0.195-2.115,0.163-3.165c-0.047-1.159-0.16-2.362-0.684-3.414
			c-0.567-1.151-1.646-1.928-2.686-2.625l-2.114-1.336c-0.331-0.219-0.663-0.449-0.927-0.748c-0.224-0.25-0.39-0.547-0.521-0.854
			c-0.238-0.58-0.455-1.218-0.762-1.764c-0.264-0.486-0.59-0.941-0.96-1.351c-0.435-0.485-0.946-0.916-1.459-1.315
			c-1.821-1.422-4.437-2.882-6.148-4.436c-0.518-0.474-0.997-1.002-1.387-1.588c-0.398-0.594-0.704-1.251-0.929-1.929
			c-0.475-1.445-0.654-2.981-0.693-4.497c-0.036-1.806,0.137-3.63,0.551-5.389c0.798-3.428,2.544-6.576,4.331-9.578
			c1.203-1.977,4.817-7.735,5.872-9.659c0.817-1.458,1.628-3.075,2.324-4.594c2.995-6.382,10.461-27.872,13.072-34.772
			c2.453-6.494,5.974-15.229,8.691-21.606c2.929-6.821,10.774-24.5,13.263-31.111c1.995-5.141,3.812-10.555,5.264-15.875
			c1.461-5.362,2.68-10.93,3.469-16.432c0.467-3.123,0.919-8.242,1.34-11.391c0.102-0.707,0.226-1.464,0.384-2.161
			c0.305-1.384,0.822-2.746,1.685-3.88c0.417-0.557,0.91-1.067,1.422-1.537c1.429-1.282,3.369-2.734,4.808-4.005
			c1.987-1.73,3.894-3.621,5.431-5.768c1.107-1.538,1.988-3.257,2.776-4.977c0.884-1.962,2.104-4.932,3.15-6.765
			c0.645-1.142,1.418-2.242,2.25-3.255c1.574-1.983,4.936-5.037,6.78-6.839c1.176-1.12,2.414-2.234,3.787-3.109
			c1.331-0.862,2.823-1.464,4.35-1.875c1.32-0.355,2.685-0.59,4.048-0.691"/>
	</g>
</g>
<g id="_x32_D_x24_AG-OUTLINE">
	<g id="POLYLINE_00000065795177277392569620000015372914762221563312_">
		
			<path fill="none" stroke="#FB8604" stroke-width="3.5" stroke-linecap="round" stroke-linejoin="round" stroke-miterlimit="10" d="
			M607.691,398.564c0.37,4.122,0.377,8.325,0.053,12.45c-0.315,4.342-1.503,10.874-1.889,15.226c-0.157,1.733-0.22,3.51-0.152,5.248
			c0.084,2.598,0.528,6.276,0.669,8.886c0.307,4.535-0.468,9.741-0.841,14.274c-0.127,1.589-0.218,3.241-0.181,4.83
			c0.041,2.247,0.335,4.987,0.43,7.24c0.047,1.201,0.03,2.432-0.095,3.628c-0.37,3.432-1.359,7.039-1.692,10.476
			c-0.545,5.466-0.076,12.077-0.338,17.565c-0.251,5.805-1.385,12.435-1.462,18.241c-0.071,5.997,0.625,13.063,0.529,19.059
			c-0.057,5.137-0.421,10.419-1.107,15.511c-0.45,3.225-1.035,6.574-1.928,9.707c-0.829,2.856-1.934,5.73-3.876,8.024
			c-0.939,1.112-2.108,2.015-3.306,2.831c-1.489,0.997-3.435,2.211-4.758,3.388c-1.505,1.308-2.861,2.822-4.091,4.39
			c-0.926,1.194-1.839,2.478-2.626,3.767c-0.444,0.742-0.861,1.518-1.126,2.343c-0.164,0.518-0.267,1.066-0.226,1.612
			c0.031,0.42,0.157,0.83,0.348,1.204c0.538,1.034,1.467,1.799,2.409,2.453c1.219,0.824,2.641,1.545,4.151,1.449
			c0.567-0.038,1.117-0.222,1.625-0.472c1.189-0.582,2.425-1.644,3.495-2.428c1.469-1.13,3.991-2.451,5.617-3.384
			c1.269-0.741,2.524-1.558,3.647-2.505c2.863-2.414,5.204-5.47,7.43-8.465c4.422-6.069,8.92-12.36,11.247-19.575
			c1.055-3.195,1.766-6.561,2.288-9.883c1.768-11.641,2.157-27.442,3.253-39.209c0.519-6.023,1.308-12.522,2.237-18.495
			c2.716-17.408,9.967-51.6,12.551-68.974l2.293-16.218c0.366-2.645,1.438-7.771,1.373-10.382c-0.011-0.456-0.064-0.919-0.156-1.366
			c-0.089-0.453-0.238-0.985-0.295-1.442c-0.038-0.304-0.036-0.617,0.029-0.917c0.113-0.543,0.431-1.193,0.645-1.707
			c0.222-0.525,0.425-1.074,0.551-1.63c0.389-1.709,0.073-3.516-0.214-5.219l-0.658-3.43c-0.129-0.773-0.265-1.569-0.203-2.355
			c0.042-0.6,0.251-1.231,0.388-1.815c0.14-0.583,0.206-1.191,0.237-1.789c0.123-3.212-0.246-6.485-0.64-9.67
			c-0.58-5.062-2.506-12.88-3.623-17.918c-1.724-8.327-4.932-25.046-6.321-33.44c-0.408-2.711-0.556-6.32-0.743-9.08
			c-0.204-2.646-0.519-5.328-1.213-7.893c-0.614-2.271-1.543-4.476-2.586-6.581c-2.062-4.087-5.214-9.275-7.295-13.343
			c-2.706-5.218-5.219-10.655-6.982-16.269c-1.984-6.359-3.326-14.274-5.578-20.54c-2.628-7.459-6.361-14.749-12.054-20.338
			c-3.163-3.102-6.947-5.585-11.081-7.185c-2.987-1.17-6.163-1.867-9.339-2.284c-10.146-1.255-20.527-0.133-30.608,1.236
			c-7.818,1.13-20.538,3.604-28.303,3.734c-3.764,0.112-7.59-0.159-11.322-0.654c-8.156-1.09-17.98-3.387-26.07-5.031
			c-2.493-0.562-5.107-1.194-7.509-2.059c-1.416-0.513-3.455-1.321-4.758-1.761c-0.755-0.265-1.591-0.511-2.359-0.721
			c-2.192-0.577-4.544-0.968-6.787-1.3c-2.847-0.388-9.649-1.279-12.186-1.734c-3.277-0.565-7.627-1.595-10.905-2.099
			c-3.246-0.595-12.263-1.069-15.756-1.344c-5.655-0.426-11.555-1.182-17.129-2.191c-13.268-2.438-26.638-5.83-39.436-10.096
			c-2.214-0.747-4.835-1.703-6.98-2.55c-1.849-0.695-7.447-3.145-9.307-3.872c-2.421-0.96-4.913-1.857-7.476-2.334
			c-1.964-0.378-3.986-0.507-5.983-0.478c-3.718,0.051-7.561,0.613-11.232,1.196c-6.383,1.099-16.04,2.736-22.361,3.552
			c-7.962,1.036-40.325,4.782-47.578,6.157c-8.349,1.422-16.927,3.687-25.068,6.058c-9.599,2.834-20.236,6.368-29.606,9.887
			c-9.36,3.553-18.821,7.446-27.229,12.942c-5.865,3.799-11.27,8.385-16.254,13.272c-5.404,5.289-10.549,11.177-15.21,17.132
			c-8.868,11.441-16.736,24.004-20.957,37.944c-2.718,8.781-3.789,18.06-4.333,27.209c-0.33,5.748-1.253,28.877-1.436,34.683
			c-0.082,3.689-0.058,7.686,0.08,11.375c0.718,18.449,3.764,40.538,6.066,58.946c0.631,5.332,1.027,11.417,1.216,16.794
			l0.758,31.719c0.144,6.126,1.04,16.066,1.583,22.26c0.296,3.935,0.44,8.344,0.499,12.289c0.046,3.793-0.04,17.47,0.229,20.961
			c0.091,1.516,0.247,3.202,0.452,4.706c0.267,1.965,0.819,4.879,1.088,6.844c0.245,1.808,0.406,3.659,0.242,5.481
			c-0.134,1.581-0.59,3.126-1.163,4.6c-0.946,2.43-2.355,5.214-3.06,7.725c-0.493,1.703-0.787,3.473-0.871,5.244
			c-0.076,1.794,0.043,3.63,0.601,5.346c0.341,1.029,0.865,2.03,1.676,2.766c1.242,1.135,3.038,1.524,4.671,1.229
			c0.986-0.173,1.931-0.584,2.73-1.188c1.077-0.815,1.889-1.934,2.527-3.113c0.865-1.613,1.437-3.38,1.857-5.156
			c0.591-2.542,0.872-5.18,0.921-7.788c0.13-4.766-0.816-11.522-1.249-16.317c-0.671-7.337-1.156-15.431-1.259-22.793
			c-0.049-3.712,0.007-7.886,0.204-11.594c0.172-3.272,0.539-8.517,0.48-11.787c-0.01-4.14-0.844-9.258-1.229-13.378
			c-0.884-8.216,0.326-19.892,0.709-28.177c1.096-22.771-2.054-51.108-1.209-73.878c0.245-7.956,1.504-16.67,2.675-24.563
			c0.46,3.476,0.915,7.157,1.905,10.52c0.346,1.131,0.772,2.441,0.911,3.612c0.184,1.388,0.147,2.82,0.069,4.215
			c-0.24,3.492-0.632,7.957-0.563,11.415c0.044,3.134,0.367,6.345,0.917,9.43c0.431,2.35,0.988,4.726,1.849,6.957
			c0.693,1.868,1.827,3.835,2.825,5.565c0.423,0.754,0.806,1.553,1.071,2.376c0.288,0.879,0.457,1.804,0.561,2.722
			c0.308,2.874,0.248,6.138,0.225,9.038c-0.211,9.425-0.779,20.856,0.113,30.171c0.59,7.055,2.01,14.102,3.969,20.902
			c0.685,2.383,3.421,11.191,3.92,13.437c0.156,0.68,0.29,1.383,0.359,2.078c0.094,0.896,0.057,1.815-0.028,2.711
			c-0.335,3.172-0.715,6.728-0.563,9.906c0.103,2.323,0.324,5.332,0.231,7.616c-0.047,1.314-0.219,2.667-0.442,3.964
			c-0.252,1.492-0.908,4.476-1.19,5.99c-0.204,1.059-0.478,3.101-0.634,4.2c-0.308,2.197-0.721,4.447-1.336,6.577
			c-0.84,3.026-3.129,8.791-4.183,11.805c-0.814,2.325-1.555,4.731-1.821,7.187c-0.172,1.538-0.15,3.112-0.014,4.652
			c0.263,2.871,1.023,7.234,1.203,10.102c0.11,1.544,0.126,3.127-0.013,4.669c-0.181,2.278-0.874,5.57-1.277,7.832
			c-0.301,1.72-0.454,3.494-0.452,5.241c-0.021,2.135,0.247,5.073,0.224,7.206c-0.01,2.052-0.382,4.098-0.899,6.079l-1.78,6.485
			c-0.838,3.322-1.576,6.83-0.899,10.246c0.298,1.463,0.904,2.922,2.006,3.963c1.305,1.239,3.112,1.737,4.844,2.031
			c2.614,0.424,5.432,0.462,8.079,0.513l62.164,0.024c0,0,0.77-0.002,0.77-0.002c0.385-0.008,0.837-0.01,1.22-0.041
			c0.556-0.042,1.124-0.116,1.641-0.336c0.261-0.112,0.506-0.267,0.706-0.469c0.195-0.195,0.346-0.431,0.457-0.682
			c0.325-0.747,0.373-1.583,0.356-2.389c-0.06-1.714-0.458-3.407-0.946-5.044c-0.479-1.563-1.078-3.12-1.821-4.577
			c-0.661-1.294-1.472-2.536-2.514-3.556c-1.218-1.219-2.77-2.038-4.353-2.683l-2.36-0.946c-0.922-0.383-1.849-0.823-2.595-1.5
			c-0.506-0.454-0.928-1-1.298-1.569c-0.597-0.921-1.125-1.987-1.612-2.973c-1.197-2.583-3.101-6.515-4.435-9.005
			c-0.495-0.998-0.978-2.02-1.292-3.089c-0.339-1.123-0.515-2.3-0.589-3.469c-0.142-2.314,0.002-4.747,0.16-7.061
			c0.255-4.106,1.305-12.469,1.576-16.616c0.089-1.572-0.002-3.165-0.286-4.714c-0.209-1.226-0.616-2.841-0.868-4.068
			c-0.088-0.456-0.135-0.928-0.136-1.392c0.006-1.712,0.366-4.033,0.547-5.753c0.832-5.854,1.841-15.31,3.14-20.988
			c2.141-9.808,6.485-19.037,11.124-27.885c6.662-12.549,14.475-24.639,23.891-35.307c5.009,1.669,10.321,2.429,15.566,2.888
			c2.162,0.169,4.426,0.324,6.584,0.083c1.891-0.195,3.768-0.71,5.577-1.282c4.566-1.504,10.105-3.434,14.775-4.333
			c5.147-1.036,10.53-1.457,15.772-1.688c8.075-0.39,20.175,0.035,28.328,0.055c4.232-0.005,8.614-0.231,12.816-0.754
			c8.87-1.052,23.05-4.418,31.916-6.252c3.605-0.753,8.102-1.594,11.741-2.138c2.089-0.33,9.665-1.308,11.789-1.594
			c1.32,7.665,1.663,15.687,1.609,23.459c-0.093,10.002-0.808,20.21-2.377,30.088c-2.22,14.498-7.22,34.212-9.88,48.667
			c-0.827,4.492-1.473,9.256-1.898,13.806l-0.781,9.657c-0.28,2.711-0.515,5.541-1.476,8.11c-0.402,1.045-0.992,2.015-1.658,2.912
			c-0.661,0.886-1.455,1.861-1.907,2.869c-0.615,1.296-0.899,2.725-1.065,4.142c-0.166,1.305-0.257,3.175-0.662,4.419
			c-0.343,1.088-1.141,1.947-1.931,2.737c-1.299,1.262-2.697,2.593-3.771,4.045c-1.138,1.498-2.076,3.168-2.805,4.901
			c-1.248,2.986-2.106,6.153-2.618,9.347c-0.366,2.405-0.552,4.907,0.017,7.296c0.271,1.113,0.717,2.206,1.441,3.103
			c0.322,0.393,0.696,0.757,1.143,1.005c0.382,0.214,0.811,0.335,1.241,0.408c0.744,0.125,1.536,0.135,2.29,0.15l56.23,0.008
			c0.906-0.019,2.308,0.015,3.193-0.07c0.683-0.059,1.386-0.15,2.01-0.451c0.556-0.266,0.978-0.736,1.238-1.289
			c0.304-0.639,0.44-1.347,0.54-2.043c0.142-1.041,0.195-2.115,0.163-3.165c-0.047-1.159-0.16-2.362-0.684-3.414
			c-0.567-1.151-1.646-1.928-2.686-2.625l-2.114-1.336c-0.331-0.219-0.663-0.449-0.927-0.748c-0.224-0.25-0.39-0.547-0.521-0.854
			c-0.238-0.58-0.455-1.218-0.762-1.764c-0.264-0.486-0.59-0.941-0.96-1.351c-0.435-0.485-0.946-0.916-1.459-1.315
			c-1.821-1.422-4.437-2.882-6.148-4.436c-0.518-0.474-0.997-1.002-1.387-1.588c-0.398-0.594-0.704-1.251-0.929-1.929
			c-0.475-1.445-0.654-2.981-0.693-4.497c-0.036-1.806,0.137-3.63,0.551-5.389c0.798-3.428,2.544-6.576,4.331-9.578
			c1.203-1.977,4.817-7.735,5.872-9.659c0.817-1.458,1.628-3.075,2.324-4.594c2.995-6.382,10.461-27.872,13.072-34.772
			c3.926-10.485,9.33-23.227,13.861-33.514c2.554,4.397,6.696,11.089,8.792,15.619c1.202,2.542,2.214,5.275,3.084,7.95
			c2.195,6.724,4.221,15.807,6.55,22.476c1.881,5.453,4.426,10.797,7.086,15.911l4.096,7.58c0.908,1.735,1.762,3.543,2.352,5.412
			c0.893,2.638,1.787,8.063,2.361,10.848c0.295,1.595,0.601,3.267,0.656,4.889c0.028,0.874-0.04,1.764-0.161,2.629l-0.234,1.572
			c-0.072,0.523-0.124,1.065-0.108,1.593c0.02,0.782,0.154,1.568,0.323,2.33l0.402,1.697c0.178,0.786,0.299,1.604,0.193,2.409
			c-0.111,0.902-0.471,1.757-0.834,2.583l-1.836,3.984c-1.642,3.721-3.027,7.67-3.13,11.773c-0.065,2.523,0.295,5.181,1.676,7.344
			c0.351,0.524,0.773,1.031,1.336,1.334c0.33,0.177,0.699,0.272,1.068,0.329c0.631,0.097,1.315,0.104,1.954,0.116l58.36,0.006
			l0.636-0.002c0.266-0.012,0.585-0.004,0.85-0.029c0.452-0.033,0.91-0.101,1.333-0.27c0.496-0.194,0.924-0.533,1.272-0.933
			c0.488-0.56,0.858-1.219,1.131-1.908c0.339-0.862,0.524-1.792,0.509-2.72c-0.034-1.777-0.821-3.435-1.676-4.958
			c-1.203-2.057-2.582-4.114-4.019-6.014c-1.015-1.31-2.109-2.613-3.483-3.56c-0.852-0.612-2.417-1.382-3.347-1.89
			c-1.227-0.673-2.453-1.436-3.578-2.268c-1.679-1.233-3.2-2.697-4.482-4.339c-1.984-2.547-3.643-5.407-4.524-8.527l-0.744-2.681
			c-0.638-2.2-1.77-4.793-2.506-6.967c-0.467-1.346-0.784-2.75-0.77-4.18c-0.003-0.789,0.058-1.654,0.127-2.443
			c0.311-3.098,0.713-7.051,0.797-10.12c0.21-6.171-0.199-12.439-0.854-18.574c-0.792-7.487-2.218-15.008-4.239-22.262
			c-2.522-9.32-8.106-25.171-10.205-34.546c-1.525-6.562-2.303-14.397-3.468-21.032c-0.919-5.466-2.438-10.935-4.207-16.185
			c-1.847-5.365-6.607-18.711-8.222-23.922c-0.454-1.478-0.917-3.067-1.241-4.577c-0.401-1.802-0.559-3.668-0.525-5.512l0.216-7.749
			c0.02-1.786,0.003-3.834-0.073-5.613c1.138-1.696,2.535-3.24,3.985-4.674c1.143-1.098,3.46-3.322,4.596-4.413
			c1.352-1.269,2.803-2.487,4.456-3.343c2.258-1.156,4.793-1.731,7.31-1.934c1.188,1.873,2.619,3.632,4.393,4.979
			c2.548,1.933,5.676,2.908,8.725,3.741c4.176,1.042,10.212,2.588,14.281,3.796c5.56,1.606,21.509,6.558,26.869,7.755
			c1.535,0.347,3.133,0.665,4.698,0.814c1.591,0.147,3.24,0.148,4.774-0.347c1.822-0.586,3.394-1.844,5.111-2.655
			c1.181-0.565,2.458-0.938,3.743-1.174c1.667-0.301,3.39-0.381,5.077-0.219c2.543,0.247,5.113,1.097,7.034,2.83
			c1.913,1.704,3.141,4.458,4.389,6.657c0.833,1.472,1.746,2.939,2.854,4.221c0.704,0.809,1.501,1.559,2.431,2.102
			C604.227,398.17,605.981,398.47,607.691,398.564z"/>
	</g>
</g>
</svg>
