<?xml version="1.0" encoding="utf-8"?>
<!-- Generator: Adobe Illustrator 26.3.1, SVG Export Plug-In . SVG Version: 6.00 Build 0)  -->
<!DOCTYPE svg PUBLIC "-//W3C//DTD SVG 1.1//EN" "http://www.w3.org/Graphics/SVG/1.1/DTD/svg11.dtd" [
	<!ENTITY ns_extend "http://ns.adobe.com/Extensibility/1.0/">
	<!ENTITY ns_ai "http://ns.adobe.com/AdobeIllustrator/10.0/">
	<!ENTITY ns_graphs "http://ns.adobe.com/Graphs/1.0/">
	<!ENTITY ns_vars "http://ns.adobe.com/Variables/1.0/">
	<!ENTITY ns_imrep "http://ns.adobe.com/ImageReplacement/1.0/">
	<!ENTITY ns_sfw "http://ns.adobe.com/SaveForWeb/1.0/">
	<!ENTITY ns_custom "http://ns.adobe.com/GenericCustomNamespace/1.0/">
	<!ENTITY ns_adobe_xpath "http://ns.adobe.com/XPath/1.0/">
]>
<svg version="1.1" xmlns:x="&ns_extend;" xmlns:i="&ns_ai;" xmlns:graph="&ns_graphs;"
	 xmlns="http://www.w3.org/2000/svg" xmlns:xlink="http://www.w3.org/1999/xlink" x="0px" y="0px" width="750px" height="750px"
	 viewBox="0 0 750 750" enable-background="new 0 0 750 750" xml:space="preserve">
<metadata>
	<sfw  xmlns="&ns_sfw;">
		<slices></slices>
		<sliceSourceBounds  bottomLeftOrigin="true" height="6172.08" width="9606" x="-2000" y="2687"></sliceSourceBounds>
	</sfw>
</metadata>
<g id="FILL-BACKGROUND">
	<rect y="0" fill="#FFFFFF" width="750" height="750"/>
</g>
<g id="N-TEXT">
</g>
<g id="N-DIMENSIONS">
</g>
<g id="_x32_D_x24_AG-DIAGRAM">
	<g id="POLYLINE_00000132060895518965122040000010086428710196708001_">
		<g>
			<g>
				
					<line fill="none" stroke="#FB8604" stroke-width="3.25" stroke-linecap="round" stroke-linejoin="round" x1="131.096" y1="608.041" x2="133.096" y2="608.041"/>
				
					<line fill="none" stroke="#FB8604" stroke-width="3.25" stroke-linecap="round" stroke-linejoin="round" stroke-dasharray="4.0346,7.0606" x1="140.157" y1="608.041" x2="480.579" y2="608.041"/>
				
					<line fill="none" stroke="#FB8604" stroke-width="3.25" stroke-linecap="round" stroke-linejoin="round" x1="484.109" y1="608.041" x2="486.109" y2="608.041"/>
			</g>
		</g>
	</g>
</g>
<g id="_x32_D_x24_AG-DETAILS-DIAGRAM">
</g>
<g id="_x32_D_x24_AG-ANIMALS">
	<g id="POLYLINE_00000033358724548877326150000012759980853628968068_">
		
			<path fill="none" stroke="#FB8604" stroke-width="2.75" stroke-linecap="round" stroke-linejoin="round" stroke-miterlimit="10" d="
			M593.793,366.17c-0.102-0.874-0.22-1.792-0.689-2.555c-0.598-0.957-1.686-1.444-2.697-1.848c-1.115-0.426-2.284-0.728-3.463-0.914
			c-1.045-0.158-2.12-0.235-3.172-0.097c-0.574,0.08-1.152,0.227-1.651,0.53c-0.305,0.186-0.57,0.437-0.774,0.731
			c-0.297,0.426-0.466,0.93-0.564,1.436c-0.149,0.789-0.144,1.605-0.1,2.403c0.05,0.913,0.189,1.952,0.315,2.861
			c0.921,6.076,2.843,18.218,3.934,24.178c2.01,10.808,4.205,22.034,7.495,32.529c1.313,3.994,2.753,8.125,5.098,11.642
			c0.395,0.57,0.827,1.15,1.315,1.646c0.258,0.258,0.537,0.514,0.856,0.696c0.178,0.101,0.376,0.183,0.584,0.179l0.011,0
			l0.011-0.001l0.011-0.001l0.011-0.001l0.011-0.001l0.011-0.001l0.011-0.002l0.011-0.002l0.011-0.002l0.011-0.002l0.011-0.002
			l0.01-0.003c0.209-0.054,0.356-0.233,0.451-0.418c0.187-0.372,0.25-0.795,0.296-1.205c0.104-1.111,0.018-2.25-0.101-3.357
			c-0.42-3.955-2.777-13.654-3.598-17.665c-1.619-7.77-2.802-15.812-3.157-23.744c-0.307-5.29-0.183-17.876-0.298-23.29
			C593.968,368.742,593.918,367.311,593.793,366.17z"/>
	</g>
	<g id="POLYLINE_00000018234092529244112100000001769646662247226541_">
		
			<path fill="none" stroke="#FB8604" stroke-width="2.75" stroke-linecap="round" stroke-linejoin="round" stroke-miterlimit="10" d="
			M530.543,228.309c1.159,3.701,2.439,7.676,2.919,11.504c0.424,3.102,0.365,6.29,0.102,9.405
			c-0.584,6.753-2.016,14.726-2.604,21.474c-0.32,3.506-0.42,7.11-0.295,10.629c0.379,10.577,2.624,22.269,2.613,32.856
			c0.054,5.969-0.387,12.017-1.415,17.897c-0.712,4.034-1.642,8.096-3.092,11.934c-0.79,2.037-1.723,4.07-3.101,5.782
			c-0.773,0.945-1.729,1.803-2.907,2.19c-1.508,0.5-3.14,0.192-4.614-0.286c-0.95-0.306-1.907-0.716-2.819-1.122
			c-2.016-0.94-4.974-2.337-7.016-3.145c-5.338-2.155-12.457-4.558-17.294-7.615c-2.309-1.434-4.4-3.257-6.347-5.146
			c-2.91-2.86-6.047-6.189-9.337-8.547c-4.954-3.563-10.632-6.082-16.31-8.254c-5.296-2.076-12.803-4.114-18.185-6.025
			c-3.594-1.304-7.114-2.984-10.105-5.392c-5.172-4.192-8.904-9.893-12.3-15.548c-2.922-5.006-5.954-10.546-8.484-15.761
			c-3.067-6.391-5.629-13.143-6.729-20.172c-1.391-8.927-0.471-18.243,2.785-26.679c1.539-3.981,3.653-7.764,6.279-11.131
			c5.027-6.576,12.45-12.309,18.812-17.575c1.637-1.373,4.815-4.218,6.4-5.643c1.576-1.37,3.257-2.708,5.022-3.824
			c1.383-0.88,2.851-1.658,4.348-2.325c2.93-1.299,6.049-2.26,9.155-3.042c4.396-1.092,9.004-1.843,13.512-2.279
			c7.343-0.673,14.869-0.674,22.113,0.826c5.518,1.139,10.847,3.221,15.917,5.649c4.439,2.167,10.659,5.409,15.243,7.065
			c4.539,1.708,9.371,2.986,14.1,4.041c11.165,2.419,25.086,4.724,35.6,9.033c3.487,1.425,6.918,3.142,9.929,5.421
			c2.271,1.722,4.297,3.789,6.047,6.035c2.016,2.574,3.724,5.462,5.294,8.327c1.502,2.756,3.375,6.347,5.216,8.871l3.366,4.656
			c1.278,1.822,2.45,3.768,3.381,5.791c1.86,4.08,3.037,8.547,4.142,12.884c1.01,4.211,4.429,19.288,5.507,23.081
			c0.882,3.29,2.039,7.021,3.13,10.248c2.889,8.537,7.642,20.502,9.762,29.174c2.926,11.611,3.648,23.752,2.792,35.673
			c-0.697,9.441-2.4,18.864-5.139,27.928c-2.029,6.656-4.647,13.229-8.35,19.143l-4.523,7.126c-2.781,4.475-4.974,9.34-6.53,14.372
			c-2.153,6.865-3.625,14.073-4.718,21.179c-0.958,6.344-1.625,12.912-1.903,19.322c-0.213,5.28-0.2,10.719,0.334,15.978
			c0.546,5.416,1.701,10.839,3.608,15.942c1.793,4.845,4.281,9.487,6.985,13.882c2.688,4.341,5.742,8.654,9.02,12.568
			c2.215,2.626,4.595,5.186,7.231,7.394c2.091,1.727,4.401,3.317,7.031,4.081c1.223,0.36,2.512,0.449,3.781,0.407
			c1.285-0.029,2.831-0.219,4.104-0.019c0.595,0.099,1.202,0.274,1.681,0.654c0.276,0.219,0.488,0.528,0.551,0.878
			c0.092,0.514-0.057,1.038-0.256,1.509c-0.426,0.961-1.11,1.8-1.913,2.473c-1,0.842-2.335,1.451-3.176,2.471
			c-0.483,0.577-0.72,1.282-0.83,2.018c-0.253,1.675-0.04,3.527-0.23,5.207c-0.078,0.659-0.233,1.337-0.633,1.881
			c-0.35,0.489-0.906,0.836-1.515,0.863c-0.448,0.027-0.889-0.114-1.281-0.321c-0.408-0.214-0.784-0.496-1.139-0.79
			c-0.965-0.786-2.179-2.133-3.093-2.992c-1.308-1.284-2.843-2.336-4.425-3.253l-4.55-2.599
			c-6.182-3.699-11.918-8.217-17.268-13.029c-7.178-6.531-13.772-13.928-18.426-22.491c-5.495-9.977-8.499-21.172-10.198-32.381
			c-1.937-12.521-2.231-25.429-1.047-38.04c1.704-17.376,5.472-34.826,9.968-51.681"/>
	</g>
	<g id="POLYLINE_00000177482000437229949630000013994377723522919819_">
		
			<path fill="none" stroke="#FB8604" stroke-width="2.75" stroke-linecap="round" stroke-linejoin="round" stroke-miterlimit="10" d="
			M561.724,316.47c0.639,1.11,1.962,3.277,2.5,4.398c0.554,1.109,1.031,2.283,1.426,3.457c2.586,8.05,4.45,21.542,6.058,29.955
			c0.378,1.917,0.785,3.899,1.449,5.739c0.429,1.178,0.991,2.329,1.791,3.302c1.487,1.809,3.66,2.882,5.829,3.652"/>
	</g>
	<g id="POLYLINE_00000163042287615770784560000000869566681928155830_">
		
			<path fill="none" stroke="#FB8604" stroke-width="2.75" stroke-linecap="round" stroke-linejoin="round" stroke-miterlimit="10" d="
			M593.982,369.146c1.636,0.116,3.495,0.027,4.748-1.166c0.56-0.526,0.974-1.192,1.303-1.882c0.499-1.058,0.818-2.205,1.065-3.346
			c0.533-2.541,0.763-5.165,0.694-7.76c-0.07-2.287-0.379-4.596-1.075-6.78"/>
	</g>
	<g id="POLYLINE_00000031897835435917227940000011696285491038909111_">
		
			<path fill="none" stroke="#FB8604" stroke-width="2.75" stroke-linecap="round" stroke-linejoin="round" stroke-miterlimit="10" d="
			M530.829,337.153c2.497,2.869,5.156,5.739,8.408,7.76c1.434,0.91,2.985,1.662,4.56,2.295c4.364,1.78,10.923,3.326,15.51,4.597
			c1.998,0.56,4.072,1.238,5.99,2.026c1.966,0.786,5.059,2.306,7.001,3.226"/>
	</g>
	<g id="POLYLINE_00000039818247534354970720000011656424618279640744_">
		
			<path fill="none" stroke="#FB8604" stroke-width="2.75" stroke-linecap="round" stroke-linejoin="round" stroke-miterlimit="10" d="
			M379.033,350.199c-0.524,12.537-0.246,25.328,2.095,37.683c0.668,3.515,1.557,7.191,2.547,10.626
			c1.036,3.628,3.027,9.592,4.093,13.237c1.384,4.767,2.602,9.881,3.499,14.762c1.113,6.044,1.86,12.328,2.301,18.456
			c0.958,11.827,0.327,26.442,0.589,38.328c0.128,10.303,2.29,29.254,3.258,39.675c0.412,4.646,0.815,10.041,0.911,14.705
			c0.155,5.125-0.09,12.372-0.201,17.503c-0.064,4.568,0.256,9.21,0.996,13.719c0.299,1.89,0.97,5.044,1.017,6.923
			c0.045,1.211-0.084,2.441-0.474,3.592c-0.583,1.709-1.635,3.227-2.69,4.676c-1.003,1.352-2.722,3.486-3.588,4.905
			c-0.555,0.898-1.045,1.857-1.407,2.849c-0.825,2.258-1.07,4.69-1.181,7.077c-0.056,1.595-0.026,3.22,0.242,4.796
			c0.153,0.847,0.367,1.708,0.808,2.455c0.278,0.469,0.671,0.871,1.146,1.141c0.644,0.37,1.388,0.521,2.118,0.609
			c0.814,0.098,1.718,0.111,2.541,0.122c0,0,50.504,0.004,50.504,0.004s0.836-0.004,0.836-0.004c0.39-0.008,0.814-0.023,1.202-0.066
			c0.829-0.086,1.661-0.312,2.357-0.782c0.836-0.554,1.437-1.393,1.89-2.274c0.624-1.22,1.036-2.547,1.306-3.889
			c0.432-2.268,0.525-4.733-0.418-6.888c-1.264-2.875-4.026-4.674-6.671-6.159c-1.512-0.847-4.18-2.172-5.551-3.147
			c-0.654-0.456-1.28-0.967-1.812-1.563c-0.995-1.101-1.611-2.486-2.009-3.902c-0.564-2.019-0.811-4.156-0.997-6.242
			c-0.353-4.38-0.313-8.878,0.081-13.254c0.456-4.973,1.704-11.284,2.226-16.251c0.852-8.053,0.187-17.052,1.082-25.1
			c1.546-15.487,7.744-34.846,11.298-50.051c3.145-13.276,6.723-35.501,9.746-48.831c2.203-9.851,4.865-20.157,8.067-29.727
			c2.14-6.463,4.745-12.949,7.918-18.978c5.142-9.86,11.73-19.132,18.516-27.925"/>
	</g>
	<g id="POLYLINE_00000122685867142544942410000007734183263899254918_">
		
			<path fill="none" stroke="#FB8604" stroke-width="2.75" stroke-linecap="round" stroke-linejoin="round" stroke-miterlimit="10" d="
			M236.209,360.002c5.398,12.822,10.349,26.217,13.69,39.731c2.027,8.264,3.481,16.75,3.81,25.261
			c0.289,6.438-0.261,13.051-1.064,19.442c-0.721,5.672-1.583,11.463-3.327,16.915c-1.955,6.282-5.432,11.943-9.248,17.254
			c-8.791,12.321-20.041,24.206-25.668,38.434c-1.874,4.717-2.881,9.741-3.238,14.796c-0.227,3.012-0.253,6.241-0.191,9.267
			c0.245,6.315,0.812,24.994,1.31,31.083c0.252,2.593,0.559,5.265,1.65,7.658c0.447,0.971,1.059,1.871,1.792,2.65
			c0.409,0.439,0.87,0.861,1.323,1.254c1.768,1.514,6.958,5.622,8.649,7.159c1.267,1.133,2.524,2.356,3.329,3.871
			c0.532,0.987,0.864,2.076,1.07,3.175c0.226,1.213,0.325,2.471,0.311,3.704c-0.024,1.234-0.141,2.492-0.537,3.667
			c-0.181,0.526-0.435,1.039-0.814,1.451c-0.342,0.376-0.782,0.655-1.257,0.832c-0.688,0.26-1.433,0.343-2.163,0.39
			c-0.378,0.034-0.915,0.028-1.301,0.041c0,0-55.698,0.001-55.698,0.001c-0.712-0.016-1.583-0.013-2.298-0.075
			c-0.837-0.068-1.694-0.18-2.481-0.49c-0.542-0.212-1.046-0.531-1.453-0.948c-0.464-0.473-0.812-1.05-1.069-1.658
			c-0.817-1.987-0.821-4.211-0.536-6.311c0.551-3.773,2.193-7.803,2.747-11.577c0.167-1.146,0.209-2.316,0.119-3.47
			c-0.099-1.291-0.366-2.583-0.71-3.83c-1.044-3.551-2.366-7.241-2.927-10.911c-0.482-2.954-0.592-5.986-0.277-8.964
			c0.25-2.467,0.838-4.917,1.622-7.267c0.692-2.064,2.192-6.315,2.73-8.354c0.513-1.842,0.937-3.767,1.23-5.657
			c1.248-8.429,1.029-17.523,1.008-26.04c-0.071-4.15-0.294-8.474-0.774-12.588c-0.431-3.771-1.112-7.735-1.86-11.456
			c-2.454-12.197-8.137-33.397-10.958-45.673c-2.206-9.702-4.245-20.038-5.554-29.894c-1.842-13.71-2.433-27.79-1.603-41.602
			c0.986-16.464,3.852-33.091,7.234-49.219"/>
	</g>
	<g id="POLYLINE_00000041982283878341349440000017035275341193714596_">
		
			<path fill="none" stroke="#FB8604" stroke-width="2.75" stroke-linecap="round" stroke-linejoin="round" stroke-miterlimit="10" d="
			M247.594,465.931c5.43-1.678,11.174-2.449,16.818-2.997c8.17-0.833,24.534-1.171,32.954-1.488
			c5.527-0.227,13.066-0.689,18.574-1.158c9.155-0.783,19.361-2.029,28.441-3.429c6.951-1.074,14.451-2.413,21.242-4.201
			c9.518-2.462,18.852-5.95,27.756-10.109"/>
	</g>
	<g id="POLYLINE_00000006691348261713758760000011305758090402716090_">
		
			<path fill="none" stroke="#FB8604" stroke-width="2.75" stroke-linecap="round" stroke-linejoin="round" stroke-miterlimit="10" d="
			M434.455,196.661c-4.725,1.212-12.259,3.046-16.71,4.485c-8.963,2.881-22.8,7.754-31.729,10.118
			c-8.201,2.26-16.768,4.102-25.17,5.381c-18.211,2.756-37.032,3.83-55.438,3.142c-3.802-0.153-8.109-0.442-11.905-0.805
			c-4.737-0.437-14.338-1.667-19.056-2.06c-7.494-0.668-15.167-0.667-22.52,1.088c-6.472,1.524-12.684,4.189-18.594,7.2
			c-9.371,4.815-18.4,10.834-26.978,16.938c-14.254,10.24-28.621,21.075-40.651,33.914c-6.307,6.695-12.09,14.041-16.512,22.126
			c-7.479,13.447-10.471,30.14-13.929,45.014c-1.309,5.371-3.833,15.164-4.866,20.455c-0.814,4.089-1.481,8.388-1.897,12.532
			c-0.653,6.403-0.853,13.319-0.894,19.764c-0.043,11.399,0.547,24.047,1.329,35.435l2.047,24.883
			c0.519,7.475,0.505,15.105-0.87,22.492c-0.747,3.947-1.858,7.926-4.053,11.331l-2.045,3.145c-0.961,1.512-1.803,3.123-2.389,4.818
			c-0.999,2.894-1.419,5.986-1.686,9.026c-0.396,5.249-0.309,10.61,0.583,15.806c0.221,1.205,0.501,2.43,0.912,3.585
			c0.242,0.666,0.524,1.332,0.919,1.922c0.219,0.316,0.474,0.635,0.827,0.806c0.204,0.098,0.446,0.111,0.65,0.006l0.017-0.009
			l0.017-0.009l0.017-0.01l0.017-0.01l0.017-0.011l0.017-0.011l0.017-0.011l0.017-0.012l0.017-0.012l0.017-0.013l0.017-0.013
			c0.223-0.186,0.385-0.434,0.528-0.684c0.452-0.823,0.744-1.748,1.032-2.639l1.599-5.405c0.691-2.272,1.584-4.532,2.641-6.658
			c1.479-3.041,3.616-6.611,4.801-9.772c0.586-1.535,0.996-3.148,1.2-4.779c0.49-3.571,0.115-8.542,0.038-12.169
			c-0.299-7.99,1.768-17.639,2.836-25.568c1.074-7.439,1.302-15.234,1.23-22.749c-0.149-10.071-0.858-27.599-0.185-37.435
			c0.172-2.679,0.427-5.478,0.877-8.121c0.358-2.116,0.886-4.24,1.603-6.263c0.77-2.244,2.02-4.831,3.041-6.987"/>
	</g>
	<g id="POLYLINE_00000170242739620134418110000003863817876937869485_">
		
			<path fill="none" stroke="#FB8604" stroke-width="2.75" stroke-linecap="round" stroke-linejoin="round" stroke-miterlimit="10" d="
			M223.176,608.041l26.496-0.007c0.909-0.02,1.844-0.042,2.733-0.248c0.645-0.148,1.277-0.426,1.755-0.892
			c0.438-0.42,0.739-0.963,0.954-1.526c0.293-0.774,0.45-1.604,0.562-2.422c0.251-1.93,0.237-3.917,0.09-5.856
			c-0.186-2.264-0.575-4.542-1.264-6.709c-0.704-2.271-1.886-4.379-3.355-6.243c-2.117-2.72-4.882-5.184-6.796-8.063
			c-2.109-3.151-3.562-6.719-4.608-10.352c-1.032-3.605-1.653-7.349-1.726-11.102c-0.05-2.124,0.058-4.361,0.233-6.479
			c0.525-5.536,1.475-13.657,1.75-19.178c0.421-8.542,0.643-18.618,2.191-26.979c0.456-2.552,1.079-5.189,1.78-7.684
			c1.3-4.719,4.762-14.848,6.164-19.593c0.937-3.143,1.95-6.927,2.702-10.122"/>
	</g>
</g>
<g id="_x32_D_x24_AG-OUTLINE">
	<g id="POLYLINE_00000033361995568411402550000004663004859226053777_">
		
			<path fill="none" stroke="#FB8604" stroke-width="3.5" stroke-linecap="round" stroke-linejoin="round" stroke-miterlimit="10" d="
			M584.228,388.923c-4.495,16.856-8.263,34.304-9.968,51.681c-1.184,12.611-0.891,25.518,1.047,38.04
			c1.699,11.209,4.702,22.405,10.198,32.381c4.654,8.563,11.248,15.96,18.426,22.491c5.35,4.812,11.086,9.331,17.268,13.029
			l4.55,2.599c1.582,0.917,3.117,1.97,4.425,3.253c0.846,0.791,2.041,2.098,2.92,2.845c0.418,0.359,0.861,0.706,1.353,0.958
			c0.402,0.207,0.857,0.339,1.312,0.295c0.59-0.05,1.123-0.4,1.458-0.88c0.411-0.573,0.556-1.284,0.63-1.973
			c0.162-1.601-0.019-3.383,0.2-4.979c0.064-0.445,0.162-0.891,0.34-1.305c0.139-0.322,0.331-0.622,0.558-0.889
			c0.863-1.004,2.2-1.611,3.193-2.467c0.79-0.679,1.464-1.519,1.874-2.481c0.186-0.457,0.32-0.964,0.227-1.457
			c-0.067-0.353-0.285-0.661-0.566-0.879c-0.477-0.37-1.076-0.542-1.664-0.64c-1.27-0.2-2.82-0.01-4.104,0.019
			c-1.164,0.036-2.346-0.029-3.477-0.325c-1.685-0.432-3.255-1.245-4.704-2.195c-2.899-1.926-5.421-4.406-7.767-6.962
			c-3.76-4.145-7.161-8.776-10.184-13.484c-3.078-4.846-5.919-9.972-7.916-15.365c-1.907-5.103-3.063-10.527-3.608-15.942
			c-0.534-5.257-0.549-10.701-0.334-15.978c0.278-6.407,0.944-12.98,1.903-19.322c1.094-7.104,2.564-14.316,4.718-21.179
			c1.557-5.031,3.75-9.898,6.53-14.372l4.523-7.126c3.703-5.914,6.32-12.486,8.35-19.143c2.739-9.063,4.442-18.487,5.139-27.928
			c0.856-11.921,0.134-24.063-2.792-35.673c-2.102-8.664-6.899-20.674-9.762-29.174c-1.089-3.213-2.249-6.97-3.129-10.248
			c-1.11-3.972-4.515-18.908-5.507-23.082c-1.106-4.339-2.282-8.803-4.142-12.884c-0.931-2.023-2.103-3.969-3.381-5.791
			l-3.366-4.656c-1.836-2.517-3.711-6.109-5.216-8.871c-1.571-2.866-3.278-5.751-5.294-8.327c-1.75-2.246-3.776-4.313-6.047-6.035
			c-3.011-2.279-6.443-3.996-9.929-5.421c-10.478-4.3-24.49-6.631-35.6-9.033c-4.73-1.055-9.561-2.333-14.1-4.041
			c-4.563-1.646-10.837-4.913-15.243-7.065c-5.071-2.429-10.399-4.51-15.917-5.649c-8.178-1.679-16.682-1.503-24.938-0.515
			c-4.387,0.554-8.863,1.404-13.117,2.617c-3.051,0.879-6.093,1.959-8.903,3.452c-1.576,0.837-3.114,1.831-4.534,2.911
			c-1.772,1.316-4.048,3.424-5.705,4.9c-4.725,1.212-12.259,3.046-16.71,4.485c-8.963,2.881-22.8,7.754-31.729,10.118
			c-8.201,2.26-16.768,4.102-25.17,5.381c-18.211,2.756-37.032,3.83-55.438,3.142c-3.802-0.153-8.109-0.442-11.905-0.805
			c-4.737-0.437-14.338-1.667-19.056-2.06c-7.494-0.668-15.167-0.667-22.52,1.088c-6.472,1.524-12.684,4.189-18.594,7.2
			c-9.371,4.815-18.4,10.834-26.978,16.938c-14.254,10.24-28.621,21.075-40.651,33.914c-6.307,6.695-12.09,14.041-16.512,22.126
			c-7.479,13.447-10.471,30.14-13.929,45.014c-1.309,5.371-3.833,15.164-4.866,20.455c-0.814,4.089-1.481,8.388-1.897,12.532
			c-0.653,6.403-0.853,13.319-0.894,19.764c-0.043,11.399,0.547,24.047,1.329,35.435l2.047,24.883
			c0.519,7.475,0.505,15.105-0.87,22.492c-0.747,3.947-1.858,7.926-4.053,11.331l-2.045,3.145c-0.961,1.512-1.803,3.123-2.389,4.818
			c-0.999,2.894-1.419,5.986-1.686,9.026c-0.396,5.249-0.309,10.61,0.583,15.806c0.221,1.205,0.501,2.43,0.912,3.585
			c0.242,0.666,0.524,1.332,0.919,1.922c0.219,0.316,0.474,0.635,0.827,0.806c0.204,0.098,0.446,0.111,0.65,0.006l0.017-0.009
			l0.017-0.009l0.017-0.01l0.017-0.01l0.017-0.011l0.017-0.011l0.017-0.011l0.017-0.012l0.017-0.012l0.017-0.013l0.017-0.013
			c0.223-0.186,0.385-0.434,0.528-0.684c0.452-0.823,0.744-1.748,1.032-2.639l1.599-5.405c0.691-2.272,1.584-4.532,2.641-6.658
			c1.479-3.041,3.616-6.611,4.801-9.772c0.586-1.535,0.996-3.148,1.2-4.779c0.49-3.571,0.115-8.542,0.038-12.169
			c-0.299-7.99,1.768-17.639,2.836-25.568c1.074-7.439,1.302-15.234,1.23-22.749c-0.149-10.071-0.858-27.599-0.185-37.435
			c0.172-2.679,0.427-5.478,0.877-8.121c0.358-2.116,0.886-4.24,1.603-6.263c0.77-2.244,2.02-4.831,3.041-6.987
			c-0.191,10.045,0.378,20.344,1.595,30.317c1.503,12.373,4.094,25.06,6.969,37.188c3.052,12.671,8.696,33.598,10.848,46.24
			c1.071,6.19,1.588,12.603,1.673,18.884c0.021,8.524,0.241,17.605-1.008,26.04c-0.293,1.89-0.717,3.815-1.23,5.657
			c-0.53,2.027-2.052,6.322-2.73,8.354c-0.784,2.352-1.371,4.799-1.622,7.267c-0.327,3.088-0.195,6.23,0.331,9.289
			c0.314,1.835,0.784,3.704,1.311,5.488c0.474,1.639,1.295,4.021,1.712,5.667c0.523,2.017,0.753,4.13,0.508,6.207
			c-0.401,3.389-1.818,7.16-2.524,10.494c-0.411,1.906-0.614,3.892-0.323,5.83c0.248,1.594,0.853,3.292,2.232,4.243
			c0.571,0.392,1.241,0.62,1.916,0.756c1.01,0.203,2.074,0.232,3.102,0.254l55.16,0.01c0.322-0.001,1.904-0.005,2.212-0.016
			l24.284,0.009c0.909-0.02,1.844-0.042,2.733-0.248c0.645-0.148,1.277-0.426,1.755-0.892c0.438-0.42,0.739-0.963,0.954-1.526
			c0.293-0.774,0.45-1.604,0.562-2.422c0.251-1.93,0.237-3.917,0.09-5.856c-0.186-2.264-0.575-4.542-1.264-6.709
			c-0.704-2.271-1.886-4.379-3.355-6.243c-2.117-2.72-4.882-5.184-6.796-8.063c-2.109-3.151-3.562-6.719-4.608-10.352
			c-1.032-3.605-1.653-7.349-1.726-11.102c-0.05-2.124,0.058-4.361,0.233-6.479c0.525-5.536,1.475-13.657,1.75-19.178
			c0.421-8.542,0.643-18.618,2.191-26.979c0.456-2.552,1.079-5.189,1.78-7.684c1.3-4.719,4.762-14.848,6.164-19.593
			c0.937-3.143,1.95-6.927,2.702-10.122c4.165-0.869,8.618-1.396,12.861-1.769c11.215-0.961,26.747-1.048,38.048-1.677
			c11.431-0.63,23.746-1.849,35.076-3.461c7.245-1.048,15.301-2.301,22.419-3.95c11.06-2.515,21.87-6.376,32.139-11.182
			c1.079,11.508,0.655,25.726,0.715,37.328c0.051,4.68,0.297,10.272,0.642,14.945c0.129,2.414,2.393,25.119,2.68,28.143
			c0.416,4.694,0.813,10.007,0.911,14.705c0.152,4.971-0.088,12.482-0.201,17.503c-0.064,4.568,0.256,9.21,0.996,13.719
			c0.299,1.89,0.97,5.044,1.017,6.923c0.045,1.211-0.084,2.441-0.474,3.592c-0.583,1.709-1.635,3.227-2.69,4.676
			c-1.003,1.352-2.722,3.486-3.588,4.905c-0.555,0.898-1.045,1.857-1.407,2.849c-0.825,2.258-1.07,4.69-1.181,7.077
			c-0.056,1.595-0.026,3.22,0.242,4.796c0.153,0.847,0.367,1.708,0.808,2.455c0.278,0.469,0.671,0.871,1.146,1.141
			c0.644,0.37,1.388,0.521,2.118,0.609c0.814,0.098,1.718,0.111,2.541,0.122c0,0,50.504,0.004,50.504,0.004l0.836-0.004
			c0.39-0.008,0.814-0.023,1.202-0.066c0.829-0.086,1.661-0.312,2.357-0.782c0.836-0.554,1.437-1.393,1.89-2.274
			c0.624-1.22,1.036-2.547,1.306-3.889c0.432-2.268,0.525-4.733-0.418-6.888c-1.264-2.875-4.026-4.674-6.671-6.159
			c-1.512-0.847-4.18-2.172-5.551-3.147c-0.654-0.456-1.28-0.967-1.812-1.563c-0.995-1.101-1.611-2.486-2.009-3.902
			c-0.564-2.019-0.811-4.156-0.997-6.242c-0.353-4.38-0.313-8.878,0.081-13.254c0.456-4.973,1.704-11.284,2.226-16.251
			c0.852-8.053,0.187-17.052,1.082-25.1c1.546-15.487,7.744-34.846,11.298-50.051c3.145-13.276,6.723-35.501,9.746-48.831
			c2.203-9.851,4.865-20.157,8.067-29.727c2.14-6.463,4.745-12.949,7.918-18.978c5.142-9.86,11.73-19.132,18.516-27.925
			c3.493,1.544,9.323,3.635,12.844,5.151c1.982,0.836,4.903,2.317,6.904,3.11c1.911,0.74,4.114,1.409,6.107,0.594
			c4.341-1.822,6.714-10.418,7.749-14.709c2.497,2.869,5.156,5.739,8.408,7.76c1.434,0.91,2.985,1.662,4.56,2.295
			c4.364,1.78,10.923,3.326,15.51,4.597c1.998,0.56,4.072,1.238,5.99,2.026c1.966,0.786,5.059,2.306,7.001,3.226
			c0.519,2.127,1.152,4.319,2.505,6.079c1.484,1.918,3.735,3.042,5.976,3.837C581.574,373.145,583.209,382.744,584.228,388.923z"/>
	</g>
</g>
</svg>
