<?xml version="1.0" encoding="utf-8"?>
<!-- Generator: Adobe Illustrator 26.3.1, SVG Export Plug-In . SVG Version: 6.00 Build 0)  -->
<!DOCTYPE svg PUBLIC "-//W3C//DTD SVG 1.1//EN" "http://www.w3.org/Graphics/SVG/1.1/DTD/svg11.dtd" [
	<!ENTITY ns_extend "http://ns.adobe.com/Extensibility/1.0/">
	<!ENTITY ns_ai "http://ns.adobe.com/AdobeIllustrator/10.0/">
	<!ENTITY ns_graphs "http://ns.adobe.com/Graphs/1.0/">
	<!ENTITY ns_vars "http://ns.adobe.com/Variables/1.0/">
	<!ENTITY ns_imrep "http://ns.adobe.com/ImageReplacement/1.0/">
	<!ENTITY ns_sfw "http://ns.adobe.com/SaveForWeb/1.0/">
	<!ENTITY ns_custom "http://ns.adobe.com/GenericCustomNamespace/1.0/">
	<!ENTITY ns_adobe_xpath "http://ns.adobe.com/XPath/1.0/">
]>
<svg version="1.1" xmlns:x="&ns_extend;" xmlns:i="&ns_ai;" xmlns:graph="&ns_graphs;"
	 xmlns="http://www.w3.org/2000/svg" xmlns:xlink="http://www.w3.org/1999/xlink" x="0px" y="0px" width="750px" height="750px"
	 viewBox="0 0 750 750" enable-background="new 0 0 750 750" xml:space="preserve">
<metadata>
	<sfw  xmlns="&ns_sfw;">
		<slices></slices>
		<sliceSourceBounds  bottomLeftOrigin="true" height="7294.651" width="12540.125" x="-6919.125" y="100"></sliceSourceBounds>
	</sfw>
</metadata>
<g id="FILL-BACKGROUND">
	<rect fill="#FFFFFF" width="750" height="750"/>
</g>
<g id="N-TEXT">
</g>
<g id="N-DIMENSIONS">
</g>
<g id="AG-DIAGRAM">
	<g>
		<g>
			
				<line fill="none" stroke="#FB8604" stroke-width="3.25" stroke-linecap="round" stroke-linejoin="round" x1="136.5" y1="631.5" x2="138.5" y2="631.5"/>
			
				<line fill="none" stroke="#FB8604" stroke-width="3.25" stroke-linecap="round" stroke-linejoin="round" stroke-dasharray="4,7" x1="145.5" y1="631.5" x2="483" y2="631.5"/>
			
				<line fill="none" stroke="#FB8604" stroke-width="3.25" stroke-linecap="round" stroke-linejoin="round" x1="486.5" y1="631.5" x2="488.5" y2="631.5"/>
		</g>
	</g>
</g>
<g id="AG-GUIDES">
</g>
<g id="AG-DETAILS">
	<g id="POLYLINE_00000103974772668900071890000011608221086041158807_">
		<path fill="none" stroke="#FB8604" stroke-width="2" stroke-linecap="round" stroke-linejoin="round" stroke-miterlimit="10" d="
			M160.518,525.487c2.967,3.623,5.853,7.29,7.032,11.911c1.227,4.812,1.204,9.879,1.849,14.782
			c0.674,5.126,2.017,10.084,4.023,14.851c0.799,1.897,1.63,4.16,3.017,5.722c0.775,0.872,0.894-0.004,0.877-0.732
			c-0.023-0.986-0.175-1.977-0.317-2.951c-0.78-5.339-1.742-10.652-2.218-16.031c-0.445-5.034-0.452-10.107-0.041-15.143
			c0.418-5.116,1.263-10.2,2.547-15.171c1.307-5.059,3.224-9.86,5.231-14.673c2.025-4.859,3.983-9.717,5.442-14.782
			c1.629-5.657,2.906-11.422,4.308-17.138c1.136-4.629,2.301-9.259,3.861-13.767c1.584-4.577,3.569-8.959,7.097-12.374
			c1.819-1.761,3.868-3.263,5.682-5.029c1.643-1.599,3.012-3.405,4.181-5.374c2.759-4.648,4.747-9.756,6.907-14.695
			c1.865-4.265,3.824-8.595,6.568-12.379c2.991-4.123,6.949-7.271,10.71-10.649c3.91-3.512,7.163-7.532,9.788-12.087
			c2.682-4.654,4.758-9.686,6.08-14.894c1.316-5.184,1.783-10.526,2.387-15.825c0.536-4.701,1.44-9.236,3.107-13.676
			c0.897-2.39,1.948-4.715,2.975-7.05"/>
	</g>
	<g id="POLYLINE_00000052099702186116609600000015656771531379510162_">
		<path fill="none" stroke="#FB8604" stroke-width="2" stroke-linecap="round" stroke-linejoin="round" stroke-miterlimit="10" d="
			M261.529,325.536c0.696-2.087,1.325-5.039,3.342-6.327c1.481-0.945,3.394-0.516,4.943,0.03c4.748,1.674,9.144,5.225,12.481,8.918
			c4.06,4.494,5.958,10.194,8.444,15.606c2.524,5.493,5.408,10.848,8.869,15.811c3.388,4.859,7.371,9.4,12.268,12.786
			c4.864,3.362,10.46,5.53,16.244,6.676c5.816,1.152,11.818,1.316,17.713,0.767c5.907-0.55,11.78-1.825,17.314-3.979
			c5.165-2.011,9.755-4.882,13.964-8.478c2.408-2.057,4.674-4.285,7.156-6.255c2.118-1.681,4.441-2.998,6.928-4.052
			c1.431-0.606,2.896-1.133,4.35-1.684"/>
	</g>
	<g id="POLYLINE_00000052799707337642717880000007459234474636692912_">
		<path fill="none" stroke="#FB8604" stroke-width="2" stroke-linecap="round" stroke-linejoin="round" stroke-miterlimit="10" d="
			M398.005,436.117c1.298-1.646,3.085-2.808,4.905-3.8c1.672-0.911,4.23-2.264,4.684,0.535c0.43,2.648-0.078,5.571-0.258,8.215
			c-0.201,2.951-0.199,5.871,0.204,8.806c0.859,6.259,2.561,12.286,2.706,18.644c0.157,6.889-0.549,13.795-1.05,20.657
			c-0.465,6.359-0.985,12.757-0.596,19.135c0.379,6.197,2.145,11.96,4.319,17.733c2.276,6.046,4.139,12.069,5.21,18.456
			c1.026,6.117,1.669,12.318,2.046,18.508c0.439,7.216,0.669,14.482,1.483,21.67c0.316,2.793,0.671,5.704,1.681,8.346
			c0.405,1.06,0.972,2.289,2.028,2.834c0.874,0.451,1.891,0.282,2.792,0.009c1.135-0.344,2.191-0.899,3.304-1.302"/>
	</g>
	<g id="POLYLINE_00000176013853261996581110000015617102566347093129_">
		<path fill="none" stroke="#FB8604" stroke-width="2" stroke-linecap="round" stroke-linejoin="round" stroke-miterlimit="10" d="
			M437.57,433.848c-1.88-3.793-2.901-7.16-2.134-11.397c0.724-4.003,2.38-7.927,4.639-11.303c2.727-4.074,6.626-6.509,10.561-9.275
			c1.873-1.316,3.619-2.774,5.043-4.578c1.408-1.785,2.537-3.772,3.619-5.765c2.428-4.471,4.672-9.022,7.935-12.964
			c3.23-3.902,7.113-7.231,11.167-10.246c3.689-2.742,7.549-5.254,11.488-7.62c5.819-3.494,11.64-6.986,17.457-10.483
			c4.04-2.429,8.012-5.076,11.675-8.047c3.821-3.099,7.191-6.685,9.778-10.884c2.686-4.359,4.548-9.183,6.087-14.049
			c1.59-5.029,2.863-10.16,3.917-15.327c1.109-5.44,2-10.93,2.616-16.449c0.578-5.179,0.917-10.391,0.804-15.603
			c-0.11-5.065-0.657-10.112-1.458-15.112c-0.88-5.493-1.748-11.002-2.853-16.455c-1.015-5.008-2.272-9.985-4.149-14.746
			c-1.902-4.824-4.544-9.277-7.133-13.753c-2.685-4.642-5.374-9.293-6.944-14.454c-1.558-5.119-2.177-10.457-3.088-15.713
			c-0.466-2.685-1.021-5.345-1.751-7.972"/>
	</g>
</g>
<g id="AG-DETAIL">
</g>
<g id="AG-PEOPLE">
</g>
<g id="AG-ANIMALS">
	<g id="POLYLINE_870_">
		
			<path fill="none" stroke="#FB8604" stroke-width="2.75" stroke-linecap="round" stroke-linejoin="round" stroke-miterlimit="10" d="
			M416.389,618.67c-2.97-0.055-5.758-0.132-8.529-1.287c-2.058-0.858-3.965-1.931-6.225-2.056c-1.285-0.071-2.676,0.043-3.196-1.379
			c-0.247-0.676-0.285-1.443-0.306-2.154c-0.109-3.594,0.224-7.254,0.463-10.837c0.471-7.039,1.101-14.066,1.702-21.094
			c0.646-7.558,1.261-15.119,1.986-22.671c0.749-7.798,1.532-15.573,2.581-23.337c0.107-0.79,0.213-1.579,0.32-2.369"/>
	</g>
	<g id="POLYLINE_869_">
		
			<path fill="none" stroke="#FB8604" stroke-width="2.75" stroke-linecap="round" stroke-linejoin="round" stroke-miterlimit="10" d="
			M394.581,433.23c-1.662,8.028-3.225,16.047-4.378,24.167c-1.236,8.707-2.335,17.425-3.315,26.164
			c-0.902,8.05-1.626,16.143-1.999,24.236c-0.357,7.737-0.229,15.469,0.02,23.206c0.287,8.917,0.717,17.841,0.605,26.765
			c-0.099,7.882-0.572,15.743-2.4,23.434c-0.969,4.079-2.222,8.241-2.308,12.464c-0.083,4.069,1.057,8.048,1.983,11.972
			c0.858,3.635,1.077,7.057,0.203,10.718c-0.704,2.948-2.04,6.063-1.74,9.156c0.434,4.474,5.033,5.443,8.782,5.704
			c4.287,0.298,8.63,0.052,12.92-0.006c3.939-0.053,7.867-0.095,11.804,0.059c1.489,0.058,2.996,0.163,4.481-0.011"/>
	</g>
	<g id="POLYLINE_844_">
		
			<path fill="none" stroke="#FB8604" stroke-width="2.75" stroke-linecap="round" stroke-linejoin="round" stroke-miterlimit="10" d="
			M198.364,489.644c-0.647,3.892-0.827,7.847-0.754,11.788c0.065,3.498,0.201,7.085,0.992,10.506
			c0.82,3.544,2.409,6.861,4.021,10.102c1.994,4.009,4.107,7.961,6.167,11.936c3.569,6.886,6.901,13.876,9.826,21.06
			c2.771,6.807,5.219,13.733,7.604,20.682c2.875,8.376,5.586,16.831,8.775,25.096c1.38,3.577,2.843,7.147,4.677,10.52
			c1.617,2.972,3.825,5.719,4.835,8.986c0.849,2.747,0.888,6.167,3.344,8.1c1.891,1.489,4.489,1.971,6.809,2.268
			c4.108,0.525,8.277,0.379,12.407,0.307c1.904-0.033,3.802-0.028,5.705,0.013c1.334,0.029,2.713,0.124,4.031-0.141
			c2.517-0.507,2.39-2.79,2.075-4.821c-0.434-2.791-0.996-5.841-3.69-7.348c-4.026-2.252-9.196-0.548-13.291-2.706
			c-1.523-0.803-2.508-2.115-3.075-3.717c-0.613-1.731-0.888-3.57-1.337-5.346c-0.414-1.64-1.012-3.214-1.714-4.751
			c-1.654-3.62-3.635-7.074-5.097-10.784c-1.442-3.658-2.556-7.427-3.72-11.179c-2.556-8.239-5.365-16.372-8.198-24.519
			c-2.464-7.085-4.409-14.339-5.508-21.764c-1.142-7.72-1.418-15.618,0.044-23.313c1.489-7.84,4.154-15.558,7.182-22.925
			c1.548-3.766,3.264-7.471,4.599-11.321c1.206-3.478,1.967-7.032,2.415-10.683c0.476-3.876,0.755-7.792,1.517-11.627
			c0.682-3.432,1.928-6.621,3.515-9.732c1.685-3.303,3.601-6.557,4.512-10.183c0.913-3.632,0.888-7.479,2.087-11.041
			c1.063-3.158,3.272-5.718,4.966-8.538c1.744-2.903,2.747-6.14,3.617-9.393c1.128-4.215,2.256-8.43,3.384-12.646"/>
	</g>
	<g id="POLYLINE_843_">
		
			<path fill="none" stroke="#FB8604" stroke-width="2.75" stroke-linecap="round" stroke-linejoin="round" stroke-miterlimit="10" d="
			M395.545,355.355c-1.21,5.02-2.421,10.039-3.631,15.059c-0.927,3.843-1.611,7.736-2.746,11.528
			c-1.252,4.181-3.073,8.267-3.999,12.537c-0.159,0.735-0.367,1.774,0.588,0.984c0.417-0.345,1.199-1.366,1.653-0.648
			c0.253,0.401,0.123,1.312,0.099,1.759c-0.057,1.072-0.198,2.141-0.344,3.204c-0.316,2.301-0.705,4.593-0.986,6.899
			c-0.103,0.849-0.213,1.713-0.199,2.571c0.01,0.609-0.005,1.275,0.741,1.032c0.864-0.282,1.279-0.791,1.53,0.471
			c0.111,0.558,0.123,1.143,0.136,1.709c0.05,2.208-0.119,4.419-0.192,6.624c-0.015,0.435-0.306,4.1,0.576,3.818
			c0.712-0.228,0.86-1.601,1.59-1.82c0.642-0.193,0.676,0.764,0.736,1.249c0.255,2.066,0.136,4.177,0.213,6.253
			c0.026,0.705-0.031,1.62,0.227,2.292c0.365,0.954,0.892-0.016,1.221-0.529c0.231-0.36,0.988-2.064,1.514-1.624
			c0.354,0.296,0.251,1.702,0.264,2.125c0.054,1.781-0.228,3.958,0.334,5.69c0.352,1.084,1.055,0.41,1.601-0.166
			c0.34-0.36,1.156-1.686,1.51-0.895c0.208,0.466-0.026,1.471-0.076,1.936c-0.127,1.188-0.286,2.372-0.401,3.561
			c-0.183,1.885-0.25,3.761-0.011,5.643c0.265,2.081,0.911,4.076,1.275,6.136c0.498,2.824-0.511,5.571-0.348,8.402
			c0.24,4.196,1.55,8.237,1.609,12.463c0.064,4.526-0.558,9.041-0.676,13.564c-0.233,8.918,0.441,17.919,1.988,26.704
			c1.603,9.101,4.054,18.018,6.099,27.023c1.998,8.799,3.373,17.67,4.066,26.669c0.712,9.243,0.604,18.402,0.318,27.656
			c-0.112,3.631,0.039,7.222,1.027,10.735c0.583,2.071,1.392,4.052,2.225,6.032c0.552,1.313,1.026,2.601,1.193,4.022
			c0.452,3.848-0.546,7.697-0.2,11.53c0.122,1.354,0.535,2.674,1.851,3.303c1.027,0.491,2.248,0.556,3.363,0.593
			c5.025,0.168,10.074,0.035,15.102,0.046c3.893,0.009,7.873,0.109,11.733-0.476c1.349-0.205,3.15-0.488,3.787-1.872
			c0.415-0.9,0.314-2.029,0.17-2.984c-0.18-1.19-0.517-2.39-1.056-3.469c-0.622-1.245-1.591-1.917-2.768-2.576
			c-1.952-1.093-3.945-2.294-6.245-2.309c-1.621-0.01-3.313,0.445-4.807-0.417c-0.994-0.574-1.582-1.552-1.957-2.603
			c-1.256-3.523-0.952-7.508-1.431-11.17c-0.269-2.056-0.876-3.974-1.504-5.942c-0.648-2.032-1.062-4.068-1.276-6.191
			c-0.379-3.763-0.519-7.549-0.843-11.318c-0.53-6.165-1.059-12.33-1.589-18.494c-0.342-3.977-0.655-7.949-0.877-11.935
			c-0.227-4.087-0.547-8.379,0.164-12.434c0.333-1.899,1.056-3.69,1.526-5.555c0.538-2.137,0.902-4.315,1.274-6.486
			c0.786-4.589,1.424-9.2,2.036-13.815c1.182-8.909,1.523-17.918,2.817-26.811c0.636-4.372,1.52-8.713,1.63-13.143
			c0.117-4.686-0.342-9.398-0.634-14.07c-0.241-3.854-0.199-7.698,0.19-11.541c0.478-4.727,0.773-9.358,0.88-14.106
			c0.063-2.766,0.14-5.731,1.506-8.215c1.06-1.926,2.805-3.429,4.709-4.486c2.772-1.539,5.759-1.884,8.886-1.821
			c3.454,0.07,7.023,0.356,10.298-0.976c1.882-0.765,3.55-1.948,5.269-3.009c0.976-0.602,2.803-1.93,3.815-0.797
			c0.496,0.556,0.642,1.448,0.883,2.126c0.338,0.952,0.716,1.191,1.378,0.288c1.034-1.411,1.674-3.086,2.616-4.557
			c0.291-0.454,0.869-1.536,1.521-1.221c0.576,0.278,0.702,1.414,1.025,1.91c0.923,1.419,2.192-2.004,2.481-2.66
			c0.819-1.862,1.499-3.842,2.521-5.609c0.27-0.466,0.671-1.301,1.253-0.871c0.674,0.498,0.501,1.814,1.083,2.416
			c0.961,0.995,2.486-2.606,2.829-3.26c0.507-0.969,0.995-1.953,1.575-2.882c0.306-0.491,0.891-1.588,1.557-1.601
			c1.226-0.025,1.775,3.613,1.992,4.342c0.127,0.426,0.335,1.579,0.89,1.216c0.352-0.229,0.543-1.341,0.639-1.692
			c0.584-2.136,0.965-4.327,1.447-6.487c0.107-0.48,0.796-4.38,1.649-3.917c0.515,0.279,0.461,1.347,1.027,1.585
			c0.625,0.263,1.016-0.859,1.225-1.314c0.751-1.633,1.184-3.519,2.206-5.017c1.215-1.782,2.182,1.163,2.627,2.076
			c0.182,0.374,0.517,1.314,1.025,1.267c0.615-0.057,0.919-1.483,1.064-1.968c1.234-4.123,1.613-8.476,3.124-12.524
			c0.175-0.47,0.358-0.97,0.625-1.398c0.582-0.931,0.932-0.402,1.111,0.441c0.388,1.824,0.385,3.717,0.69,5.556
			c0.084,0.509,0.156,1.572,0.618,1.88c0.639,0.427,1.215-0.677,1.47-1.131c0.762-1.36,1.238-2.899,1.619-4.402
			c0.568-2.235,0.791-4.528,1.049-6.813c0.068-0.602,0.055-1.382,0.306-1.95c0.421-0.952,0.882,0.272,1.133,0.769
			c0.275,0.542,0.652,1.714,1.213,2.047c0.666,0.395,0.851-0.496,1.002-1.024c0.581-2.032,0.72-4.181,1.135-6.249
			c0.116-0.579,0.206-1.335,0.518-1.852c0.525-0.871,0.997,0.094,1.283,0.653c0.444,0.866,0.782,1.782,1.196,2.661
			c0.167,0.354,0.536,1.394,0.978,1.432c0.915,0.078,1.134-3.559,1.196-4.081c0.284-2.388,0.469-4.787,0.718-7.179
			c0.105-1.009,0.218-2.021,0.386-3.021c0.09-0.538,0.157-1.368,0.468-1.842c0.522-0.798,0.954,0.254,1.194,0.767
			c0.431,0.917,0.749,1.886,1.127,2.824c0.117,0.289,0.513,1.56,0.926,1.409c0.287-0.105,0.32-1.274,0.345-1.535
			c0.227-2.385,0.201-4.81,0.266-7.203c0.043-1.583,0.002-3.258,0.365-4.807c0.556-2.373,1.773,1.786,2.491,1.984
			c0.883,0.244,0.883-3.778,0.912-4.315c0.104-1.982,0.089-4.047,0.485-6c0.078-0.385,0.178-1.184,0.625-1.284
			c0.609-0.135,1.446,1.346,1.728,1.706c0.533,0.68,1.087,1.239,1.36,0.088c0.18-0.756,0.198-1.566,0.263-2.336
			c0.083-0.996-0.004-4.206,1.357-4.404c0.683-0.099,1.273,0.535,1.93,0.58c0.792,0.054,0.859-0.748,0.905-1.376
			c0.134-1.824-0.193-3.703-0.354-5.514c-0.074-0.831-0.209-1.737-0.1-2.572c0.138-1.053,0.726-0.602,1.313-0.11
			c0.528,0.442,1.302,1.335,1.897,0.543c0.41-0.546,0.449-1.478,0.523-2.137c0.256-2.301,0.211-4.642,0.277-6.952
			c0.126-4.42,0.755-8.77,1.285-13.154c0.487-4.033,0.719-8.087,0.722-12.15c0.008-10.104,0.122-20.189,0.313-30.291
			c0.082-4.332,0.163-8.662,0.212-12.994c0.05-4.401-0.067-8.811,0.1-13.209c0.163-4.309,0.783-8.526,2.268-12.589
			c1.46-3.995,3.543-7.73,5.953-11.226"/>
	</g>
	<g id="POLYLINE_823_">
		
			<path fill="none" stroke="#FB8604" stroke-width="2.75" stroke-linecap="round" stroke-linejoin="round" stroke-miterlimit="10" d="
			M257.108,381.629c1.525,0.103,3.016,0.407,4.547,0.24c1.7-0.186,3.343-0.76,4.94-1.344c2.384-0.872,4.715-1.891,7.113-2.726
			c0.448-0.156,2.292-0.891,1.657,0.06c-0.542,0.812-1.629,1.464-2.379,2.056c-1.307,1.031-2.643,2.027-3.966,3.037
			c-0.76,0.579-1.799,1.16-2.342,1.959c0.454,0.327,3.186-1.399,3.513-1.56c1.297-0.639,2.591-1.287,3.922-1.855
			c0.737-0.315,1.508-0.658,2.301-0.809c1.409-0.268,0.913,0.822,0.412,1.598c-1.522,2.356-3.577,4.416-5.428,6.51
			c-0.976,1.104-1.974,2.193-2.89,3.348c-0.297,0.375-1.617,1.853-0.614,1.837c1.09-0.017,2.701-1.199,3.617-1.661
			c1.145-0.577,2.287-1.188,3.492-1.634c0.496-0.183,1.571-0.655,1.936-0.112c0.326,0.484-0.248,1.52-0.47,1.986
			c-1.231,2.582-3.046,4.835-4.393,7.35c-0.135,0.252-0.661,1.044-0.262,1.189c0.309,0.112,1.067-0.528,1.328-0.701
			c1.22-0.811,2.383-1.706,3.599-2.524c0.902-0.607,4.128-2.95,3.926-0.378c-0.17,2.174-1.222,4.366-1.883,6.411
			c-0.253,0.783-0.591,1.658-0.617,2.496c-0.037,1.197,0.974,0.692,1.664,0.328c0.948-0.5,1.839-1.143,2.849-1.519
			c1.298-0.485,1.877,0.155,2.05,1.438c0.156,1.158,0.058,2.341,0.084,3.505c0.018,0.843-0.02,2.16,1.149,1.713
			c0.941-0.361,2-1.392,2.873-0.353c0.709,0.844,0.965,2.21,1.281,3.228c0.283,0.91,0.555,2.181,1.275,2.858
			c0.653,0.614,1.444,0.253,2.142-0.081c0.684-0.328,1.57-0.939,2.378-0.801c0.886,0.152,1.268,1.175,1.531,1.929
			c0.924,2.655,1.105,5.604,1.504,8.366c0.117,0.809,0.174,1.735,0.5,2.497c0.564,1.316,1.377-0.993,1.615-1.504
			c0.391-0.838,0.866-2.189,1.694-2.713c0.983-0.622,1.733,0.71,2.152,1.446c1.348,2.369,2.176,5.058,3.115,7.604
			c0.496,1.344,0.98,2.694,1.547,4.011c0.348,0.809,0.72,1.789,1.334,2.446c1.53,1.636,2.596-3.443,2.928-4.206
			c0.629-1.443,1.034,0.533,1.232,1.192c0.298,0.993,0.585,2.01,1.072,2.932c1.094,2.071,2.738,1.749,4.426,0.621
			c2.247-1.501,3.984-3.62,6.144-5.224c0.652-0.484,1.596-1.12,1.901,0.008c0.253,0.936,0.081,1.994,0.137,2.949
			c0.055,0.928,0.271,1.876,1.371,1.25c0.737-0.419,1.373-1.082,1.967-1.67c2.122-2.103,3.991-4.464,6.197-6.482
			c0.452-0.413,1.408-1.416,2.087-1.325c1.101,0.146,0.611,2.236,1.064,2.919c0.559,0.841,1.653-0.557,2.081-1.026
			c1.046-1.143,1.995-2.378,2.97-3.581c0.868-1.071,1.737-2.149,2.712-3.126c0.518-0.519,1.186-1.233,1.914-1.436
			c1.932-0.538,2.07,4.771,2.33,5.842c0.212,0.877,0.553,2.102,1.686,1.857c0.943-0.203,1.839-1.081,2.549-1.688
			c0.964-0.825,1.896-1.799,3-2.449c1.102-0.649,1.659-0.147,1.962,0.996c0.241,0.909,0.296,1.87,0.605,2.762
			c0.433,1.252,1.266,1.118,2.234,0.476c1.984-1.317,3.444-3.342,5.508-4.546c1.074-0.626,1.857-0.448,2.29,0.766
			c0.387,1.084,0.477,2.276,0.679,3.401c0.135,0.752,0.293,2.374,1.273,2.439c0.863,0.057,1.818-1.037,2.381-1.587
			c1.002-0.978,1.906-2.054,2.926-3.014c0.715-0.673,1.546-1.443,2.087-0.256c0.395,0.867,0.578,1.798,1.71,1.81
			c1.011,0.011,2.053-0.572,2.898-1.08c1.522-0.915,2.992-2.117,4.045-3.558"/>
	</g>
	<g id="POLYLINE_822_">
		
			<path fill="none" stroke="#FB8604" stroke-width="2.75" stroke-linecap="round" stroke-linejoin="round" stroke-miterlimit="10" d="
			M261.529,325.536c0.187,6.943,0.207,13.89-0.297,20.822c-0.559,7.677-1.677,15.313-2.631,22.947
			c-0.819,6.555-1.402,13.166-2.502,19.68c-0.103,0.611-0.2,1.232-0.367,1.83c-0.167,0.598-0.338,0.858-0.518,0.143
			c-0.358-1.415-0.262-2.952-0.501-4.394c-0.042-0.256-0.09-1.022-0.325-1.15c-0.375-0.205-0.555,0.481-0.673,0.786
			c-0.548,1.418-0.866,2.949-1.219,4.423c-0.781,3.264-1.324,6.711-2.473,9.876c-0.1,0.274-0.304,1.039-0.638,0.942
			c-0.314-0.091-0.47-1.469-0.524-1.685c-0.081-0.324-0.204-1.261-0.659-1.26c-0.386,0.001-0.695,0.759-0.854,1.063
			c-1.546,2.945-2.392,6.275-3.593,9.365c-0.21,0.54-0.417,1.09-0.684,1.605c-0.259,0.5-0.528,0.983-0.811,0.272
			c-0.086-0.216-0.106-1.23-0.402-1.329c-0.337-0.112-0.66,0.706-0.785,0.953c-0.726,1.426-1.28,2.937-1.963,4.384
			c-0.516,1.093-1.094,2.425-2.086,3.173c-1.03,0.777-2.451,0.737-3.555,1.419c-0.823,0.508-1.552,1.175-2.219,1.871
			c-1.424,1.487-2.802,3.329-3.363,5.34c-0.442,1.584-0.044,3.171-0.132,4.781c-0.11,2.006-1.133,3.875-2.209,5.522
			c-1.706,2.612-3.853,4.646-6.161,6.71c-3.891,3.48-5.452,8.789-7.053,13.591c-2.334,7.001-4.39,14.141-7.476,20.861
			c-2.873,6.257-6.726,11.829-10.536,17.532c-3.695,5.531-6.439,11.26-7.756,17.819c-1.334,6.645-1.499,13.476-1.445,20.233
			c0.059,7.397,0.503,14.783,0.907,22.167c0.378,6.914,0.824,13.828,1.352,20.733c0.534,6.976,1.124,13.971,2.154,20.895
			c0.706,4.749,1.341,10.348,4.874,13.947c1.54,1.568,3.455,2.764,5.466,3.628c2.737,1.177,5.584,1.363,8.468,1.958
			c1.897,0.392,3.406,1.229,4.083,3.135c0.801,2.256,1.192,5.013,1.143,7.401c-0.018,0.91-0.116,1.954-0.708,2.687
			c-0.646,0.8-1.738,0.978-2.706,1.056c-3.415,0.274-6.965-0.022-10.395,0.003c-3.433,0.025-6.881,0.111-10.306-0.177
			c-2.12-0.178-4.398-0.471-6.246-1.613c-1.663-1.027-2.621-2.695-3.308-4.474c-1.232-3.191-1.657-6.607-2.31-9.942
			c-0.465-2.376-1.203-4.326-2.554-6.323c-1.44-2.128-2.414-4.15-2.969-6.667c-1.175-5.333-1.457-10.86-2.279-16.255
			c-0.959-6.297-1.917-12.594-2.876-18.891c-1.566-10.287-3.132-20.575-4.698-30.862c-1.377-9.046-2.754-18.093-4.131-27.139
			c-0.37-2.43-0.74-4.859-1.109-7.288c-0.179-1.176-0.405-2.366-0.349-3.559c0.157-3.344,2.859-5.901,3.232-9.244
			c0.156-1.393,0.215-2.783,0.564-4.147c0.368-1.438,0.943-2.82,1.54-4.176c1.403-3.19,3.023-6.285,4.324-9.521
			c2.603-6.475,3.977-13.371,5.417-20.174c1.49-7.038,2.935-14.095,3.994-21.213c0.998-6.71,1.629-13.475,1.176-20.26
			c-0.464-6.951-1.952-13.793-3.576-20.552c-1.648-6.857-3.618-13.643-5.093-20.541c-1.451-6.786-2.146-13.642-1.945-20.583
			c0.196-6.754,1.036-13.517,2.519-20.109c1.475-6.553,3.651-12.97,7.078-18.773c3.399-5.756,7.936-10.681,13.019-14.988
			c5.078-4.302,10.589-8.139,16.259-11.615"/>
	</g>
	<g id="POLYLINE_821_">
		
			<path fill="none" stroke="#FB8604" stroke-width="2.75" stroke-linecap="round" stroke-linejoin="round" stroke-miterlimit="10" d="
			M536.195,199.664c1.764,1.289,3.456,2.715,5.536,3.465c1.863,0.672,3.871,0.791,5.835,0.769c6.313-0.069,12.637-1.396,18.85-2.388
			c5.788-0.924,11.62-1.693,17.486-1.852c2.791-0.075,5.573,0.022,8.34,0.414c2.687,0.381,5.396,1.102,8.127,1.008
			c3.146-0.109,5.748-1.775,7.753-4.124c0.485-0.568,0.929-1.169,1.336-1.795"/>
	</g>
	<g id="POLYLINE_820_">
		
			<path fill="none" stroke="#FB8604" stroke-width="2.75" stroke-linecap="round" stroke-linejoin="round" stroke-miterlimit="10" d="
			M585.953,188.24c3.864,1.699,7.844,3.106,11.847,4.44c3.416,1.138,7.061,2.449,10.703,2.509c1.915,0.032,3.835-0.52,4.884-2.271
			c0.848-1.417,0.908-3.167,0.51-4.734c-0.64-2.527-2.225-4.834-4.367-6.306"/>
	</g>
	<g id="POLYLINE_819_">
		
			<path fill="none" stroke="#FB8604" stroke-width="2.75" stroke-linecap="round" stroke-linejoin="round" stroke-miterlimit="10" d="
			M594.222,178.199c0.318,1.189,3.385,1.32,4.229,1.506c2.204,0.487,4.34,1.232,6.518,1.818c1.118,0.301,3.405,1.123,4.51,0.388
			c1.058-0.704,0.327-2.691,0.095-3.66c-0.314-1.308-0.517-2.79-1.237-3.962c-0.687-1.118-1.864-1.709-3.088-2.053
			c-1.641-0.461-3.53-0.587-5.185-0.116c-1.175,0.335-2.156,1.039-3.033,1.874C596.121,174.861,593.971,176.758,594.222,178.199z"/>
	</g>
	<g id="POLYLINE_818_">
		
			<path fill="none" stroke="#FB8604" stroke-width="2.75" stroke-linecap="round" stroke-linejoin="round" stroke-miterlimit="10" d="
			M527.284,173.347c-0.467-3.022-1.24-5.999-2.811-8.648c-1.499-2.529-3.579-4.692-5.684-6.721
			c-4.741-4.571-9.876-8.922-13.123-14.755c-3.26-5.857-4.473-12.328-3.545-18.959c0.157-1.12,0.371-2.576,1.534-3.086
			c0.759-0.333,1.675-0.192,2.45,0.018c1.691,0.458,3.211,1.465,4.54,2.576c5.102,4.268,8.558,10.301,12.23,15.744
			c1.476,2.188,3.016,4.698,5.24,6.216c2.566,1.751,5.151,0.303,7.532-1.005c2.63-1.445,5.218-2.645,8.196-3.168
			c2.821-0.496,5.711-0.517,8.559-0.267c6.351,0.559,12.689,2.481,18.479,5.112c2.561,1.164,5.149,2.582,7.084,4.666
			c1.954,2.105,3.085,4.812,4.967,6.972c1.789,2.054,4.112,3.555,6.391,5.004c3.166,2.013,6.266,4.138,9.465,6.098
			c1.535,0.94,3.087,1.85,4.643,2.754"/>
	</g>
	<g id="POLYLINE_816_">
		
			<path fill="none" stroke="#FB8604" stroke-width="2.75" stroke-linecap="round" stroke-linejoin="round" stroke-miterlimit="10" d="
			M538.861,143.058c1.606-3.871,2.744-7.68,3.225-11.849c0.273-2.369,0.436-4.75,0.661-7.124c0.124-1.309,0.206-2.69,0.613-3.952
			c0.885-2.742,3.765-1.89,5.38-0.357c1.949,1.849,2.76,4.742,3.385,7.26c1.17,4.712,2.028,9.659,2.423,14.499"/>
	</g>
	<g id="POLYLINE_810_">
		
			<path fill="none" stroke="#FB8604" stroke-width="2.75" stroke-linecap="round" stroke-linejoin="round" stroke-miterlimit="10" d="
			M184.552,297.737c-3.049,0.146-6.016,1.027-8.804,2.234c-2.429,1.051-4.7,2.39-6.36,4.496c-2.021,2.564-3.014,5.829-3.655,8.983
			c-0.724,3.565-0.984,7.23-0.846,10.862c0.153,4.021,0.797,8.113,2.341,11.849"/>
	</g>
	<g id="POLYLINE_808_">
		
			<path fill="none" stroke="#FB8604" stroke-width="2.75" stroke-linecap="round" stroke-linejoin="round" stroke-miterlimit="10" d="
			M166.239,348.358c-0.995,3.128-3.562,6.838-6.744,8.073c-1.962,0.761-4.152,0.583-6.18,0.23c-2.704-0.47-5.368-1.279-7.917-2.288
			c-0.773-0.306-5.153-1.792-4.912-3.175c0.113-0.644,1.466-0.819,1.988-0.934c0.288-0.063,2.513-0.292,2.611-0.846
			c0.11-0.62-2.373-1.665-2.691-1.851c-0.849-0.497-1.74-1.04-2.393-1.788c-1.517-1.739-0.077-3.713,0.984-5.261
			c0.167-0.244,0.785-0.931,0.602-1.244c-0.158-0.272-0.973-0.165-1.249-0.218c-0.954-0.184-1.359-0.834-1.534-1.744
			c-0.371-1.928-0.034-4.008,0.164-5.937c0.028-0.27,0.503-3.153-0.002-3.175c-0.27-0.012-0.913,1.179-1.008,1.318
			c-0.196,0.284-0.62,1.129-0.997,1.145c-1.034,0.044-0.422-6.234-0.401-6.812c0.027-0.758,0.612-5.694-0.689-5.89
			c-1.304-0.196-3.672,4.938-4.363,1.566c-0.397-1.937-0.026-4.106,0.35-6.011c0.475-2.41,1.236-4.771,2.378-6.95
			c0.6-1.145,1.292-2.238,2.024-3.303c0.638-0.928,1.508-1.841,1.96-2.882c0.515-1.188-1.326-0.533-1.948-0.456
			c-1.128,0.139-1.943-0.133-1.714-1.425c0.306-1.73,1.506-3.373,2.521-4.737c1.41-1.895,3.051-3.63,4.855-5.154
			c1.882-1.59,3.976-2.892,6.161-4.022c1.403-0.725,2.844-1.362,4.285-2.006c0.485-0.217,0.985-0.418,1.455-0.666
			c0.418-0.22,0.822-0.37,0.24-0.58c-0.998-0.359-2.405,0.011-3.47-0.094c-0.232-0.023-0.861-0.019-0.96-0.271
			c-0.175-0.448,0.8-0.898,1.094-1.061c2.198-1.219,4.721-1.98,7.137-2.63c2.802-0.753,5.637-1.08,8.503-1.473
			c0.139-0.019,1.11-0.086,1.117-0.291c0.008-0.245-1.623-0.563-1.754-0.599c-0.864-0.236-1.77-0.441-2.58-0.836
			c-2.396-1.169,1.755-2.363,2.664-2.583c2.365-0.573,4.835-0.788,7.265-0.737c2.335,0.049,4.633,0.427,6.897,0.984
			c1.545,0.38,3.064,0.852,4.591,1.297c0.447,0.13,2.619,0.974,2.686,0.208c0.034-0.385-0.671-1.029-0.904-1.311
			c-0.411-0.498-0.85-0.981-1.229-1.505c-0.259-0.359-0.73-0.891-0.099-1.006c0.243-0.044,0.634,0.14,0.872,0.219
			c2.745,0.909,5.347,2.375,7.966,3.578c1.143,0.525,2.306,1.096,3.516,1.453c0.233,0.069,0.828,0.312,1.013,0.105
			c0.267-0.298-0.34-1.068-0.481-1.319c-0.174-0.31-0.595-0.868-0.396-1.232c0.209-0.382,0.924-0.297,1.272-0.276
			c1.033,0.064,2.061,0.311,3.07,0.525c2.907,0.616,5.826,1.339,8.805,1.487c2.757,0.138,5.489-0.263,8.13-1.047
			c5.633-1.673,10.935-4.365,16.528-6.189c5.645-1.841,11.419-3.169,17.32-3.845c5.999-0.687,12.048-0.793,18.081-0.773
			c5.797,0.02,11.6,0.143,17.394,0.345c6.273,0.219,12.539,0.47,18.808,0.773c5.57,0.269,11.143,0.5,16.71,0.83
			c8.201,0.485,16.402,0.971,24.604,1.456c5.063,0.3,10.122,0.54,15.19,0.76c6.306,0.273,12.635,0.43,18.929,0.925
			c6.088,0.478,12.089,1.397,18.033,2.799c5.84,1.378,11.584,3.19,17.203,5.289c5.794,2.164,11.419,4.724,17.058,7.256
			c5.534,2.485,11.04,5.036,16.793,6.988c5.579,1.893,11.345,3.314,17.169,4.21c5.026,0.774,10.083,0.715,14.722-1.597
			c4.503-2.244,8.225-5.948,10.981-10.115c3.153-4.768,4.929-10.249,6.074-15.811c1.141-5.542,1.715-11.197,2.169-16.83
			c0.596-7.402,1.168-14.806,1.752-22.209c0.431-5.464,1.026-10.922,1.699-16.362c0.747-6.038,1.636-12.063,2.831-18.029
			c1.203-6.002,2.767-11.914,4.764-17.702c1.866-5.408,4.11-10.667,6.39-15.911"/>
	</g>
</g>
<g id="AG-OUTLINE">
	<g id="POLYLINE_00000041291538461728473000000012351495654925742263_">
		
			<path fill="none" stroke="#FB8604" stroke-width="3.5" stroke-linecap="round" stroke-linejoin="round" stroke-miterlimit="10" d="
			M416.389,618.67c-2.97-0.055-5.758-0.132-8.529-1.287c-2.058-0.858-3.965-1.931-6.225-2.056c-1.285-0.071-2.676,0.043-3.196-1.379
			c-0.247-0.676-0.285-1.443-0.306-2.154c-0.109-3.594,0.224-7.254,0.463-10.837c0.471-7.039,1.101-14.066,1.702-21.094
			c0.646-7.558,1.261-15.119,1.986-22.671c0.749-7.798,1.532-15.573,2.581-23.337c0.107-0.79,0.213-1.579,0.32-2.369
			c1.464,6.098,2.965,12.18,4.098,18.35c1.079,5.873,1.766,11.815,2.225,17.766c0.477,6.185,0.715,12.397,0.62,18.601
			c-0.087,5.651-0.899,11.487,0.105,17.094c0.446,2.492,1.259,4.911,2.228,7.245c0.865,2.083,1.722,3.989,1.878,6.26
			C416.38,617.424,416.391,618.048,416.389,618.67z"/>
	</g>
	<g id="POLYLINE_00000075870393916640568130000017621108550137944981_">
		
			<path fill="none" stroke="#FB8604" stroke-width="3.5" stroke-linecap="round" stroke-linejoin="round" stroke-miterlimit="10" d="
			M554.548,141.535c-0.305-3.74-1.002-7.451-1.702-11.134c-0.559-2.943-1.174-6.057-2.656-8.698
			c-0.686-1.223-1.628-2.324-2.904-2.951c-0.854-0.42-2.01-0.709-2.882-0.18c-0.854,0.518-1.11,1.64-1.285,2.559
			c-0.672,3.533-0.67,7.19-1.114,10.756c-0.425,3.415-1.305,6.642-2.593,9.833c-0.15,0.373-0.273,1.012-0.533,1.295
			c-0.194,0.211-0.664,0.345-0.932,0.48c-0.885,0.443-1.746,0.931-2.614,1.405c-1.007,0.551-2.029,1.118-3.132,1.454
			c-2.826,0.862-4.92-1.017-6.586-3.058c-4.651-5.698-7.871-12.423-13.047-17.727c-1.718-1.76-8.829-7.813-10.22-2.522
			c-0.761,2.892-0.723,6.257-0.371,9.2c0.425,3.554,1.613,7.012,3.261,10.179c3.189,6.129,8.434,10.604,13.325,15.332
			c0.323,0.312,0.644,0.627,0.962,0.944c0.459,0.458,0.496,0.38,0.277,0.932c-0.364,0.92-0.796,1.816-1.187,2.726
			c-0.829,1.932-1.634,3.874-2.421,5.823c-1.366,3.384-2.61,6.821-3.705,10.302c-2.228,7.086-3.792,14.34-4.97,21.67
			c-1.26,7.846-2.134,15.741-2.904,23.648c-0.802,8.23-1.333,16.49-1.984,24.733c-0.539,6.839-1.203,13.731-2.851,20.406
			c-1.669,6.759-4.61,13.177-9.575,18.156c-4.417,4.429-9.979,7.199-16.309,7.129c-3.461-0.038-6.906-0.701-10.285-1.4
			c-3.616-0.749-7.193-1.681-10.708-2.814c-7.564-2.439-14.744-5.894-21.981-9.144c-6.662-2.992-13.391-5.771-20.346-8.014
			c-7.128-2.299-14.449-4.059-21.881-5.017c-7.39-0.953-14.867-1.111-22.303-1.433c-7.229-0.313-14.445-0.669-21.668-1.097
			c-7.926-0.469-15.851-1.018-23.781-1.401c-7.963-0.384-15.927-0.86-23.895-1.138c-8.16-0.285-16.322-0.576-24.488-0.649
			c-7.34-0.066-14.723,0.025-22.006,1.027c-7.342,1.01-14.482,3.107-21.382,5.783c-6.669,2.586-13.014,5.785-20.375,4.87
			c-3.34-0.415-6.615-1.618-9.968-1.843c-0.507-0.034-1.32-0.117-1.341,0.558c-0.017,0.523,0.598,1.149,0.797,1.595
			c0.62,1.392-1.673,0.302-2.223,0.077c-3.396-1.389-6.595-3.319-10.069-4.51c-0.251-0.086-0.919-0.387-1.152-0.246
			c-0.451,0.275,0.384,1.131,0.609,1.411c0.489,0.61,1.042,1.179,1.486,1.824c0.528,0.766,0.23,0.99-0.624,0.834
			c-3.239-0.594-6.3-1.913-9.576-2.421c-2.813-0.437-5.695-0.429-8.513-0.034c-1.461,0.205-2.957,0.49-4.33,1.047
			c-0.901,0.365-2.262,1.159-0.884,1.913c1.136,0.621,2.512,0.821,3.736,1.184c0.655,0.194,0.984,0.373,0.151,0.54
			c-0.862,0.173-1.761,0.23-2.632,0.338c-3.432,0.425-6.79,1.186-10.048,2.353c-1.325,0.475-2.733,0.968-3.918,1.745
			c-1.596,1.046,0.483,1.105,1.347,1.119c0.689,0.011,1.743-0.182,2.416,0.048c0.724,0.247-0.1,0.522-0.509,0.718
			c-1.671,0.8-3.391,1.489-5.047,2.324c-2.759,1.393-5.35,3.055-7.622,5.16c-2.203,2.041-4.303,4.447-5.653,7.149
			c-0.316,0.633-0.651,1.345-0.714,2.06c-0.155,1.748,1.798,1.148,2.871,0.997c0.621-0.087,1.158-0.126,0.829,0.64
			c-0.252,0.588-0.732,1.135-1.095,1.649c-0.969,1.371-1.922,2.752-2.724,4.229c-1.504,2.77-2.412,5.861-2.828,8.979
			c-0.102,0.763-0.722,6.876,1.531,5.09c0.566-0.449,2.244-2.903,3.068-2.204c0.637,0.541,0.444,2.601,0.444,3.263
			c0.001,1.852-0.116,3.702-0.17,5.552c-0.023,0.779-0.048,1.562-0.005,2.341c0.017,0.314-0.014,0.988,0.202,1.222
			c0.816,0.891,1.76-2.571,2.431-2.305c0.516,0.204-0.202,4.103-0.229,4.387c-0.139,1.462-0.866,5.375,0.902,6.292
			c0.48,0.249,1.205,0.027,1.621,0.28c0.544,0.329-0.163,1.042-0.436,1.439c-0.66,0.96-1.475,2.038-1.609,3.235
			c-0.297,2.662,3.574,3.796,5.238,4.989c0.635,0.455,0.611,0.755-0.139,1.007c-0.58,0.195-1.204,0.279-1.798,0.408
			c-0.708,0.153-2.658,0.416-1.946,1.49c0.549,0.828,1.922,1.4,2.76,1.802c1.514,0.725,3.095,1.311,4.692,1.824
			c2.847,0.915,6.007,1.807,9.03,1.583c4.397-0.326,7.82-4.616,9.079-8.573c-0.416,0,0.538,11.609,0.682,12.681
			c0.585,4.337,1.559,8.597,2.603,12.842c2.069,8.414,4.464,16.76,6.017,25.293c1.52,8.351,1.815,16.629,0.865,25.065
			c-0.976,8.662-2.73,17.236-4.533,25.757c-1.766,8.344-3.488,16.685-7.11,24.459c-1.689,3.625-3.939,7.437-4.595,11.436
			c-0.234,1.425-0.203,2.891-0.535,4.3c-0.256,1.087-0.759,2.087-1.268,3.074c-0.867,1.681-1.755,3.281-1.75,5.21
			c0.003,1.269,0.263,2.539,0.457,3.789c0.466,3.004,0.932,6.007,1.397,9.011c1.444,9.313,2.674,18.657,3.969,27.992
			c1.048,7.553,2.291,15.071,3.498,22.6c1.497,9.337,3.138,18.663,4.427,28.031c0.557,4.05,0.82,8.177,1.701,12.176
			c0.293,1.328,0.664,2.651,1.26,3.878c0.777,1.601,1.953,2.954,2.795,4.515c1.553,2.882,1.727,6.362,2.382,9.511
			c0.586,2.818,1.275,6.119,3.282,8.324c1.85,2.032,4.72,2.517,7.324,2.76c4.493,0.42,9.052,0.22,13.557,0.187
			c1.969-0.014,3.935,0.048,5.904,0.062c1.208,0.009,2.775,0.06,3.82-0.665c2.314-1.607,0.917-6.641,0.497-8.746
			c-0.47-2.359-1.371-4.112-3.891-4.763c-1.793-0.463-3.661-0.568-5.471-0.951c-1.576-0.333-3.108-0.861-4.553-1.571
			c-2.216-1.089-4.326-2.613-5.764-4.647c-1.797-2.542-2.473-5.735-3.04-8.737c-1.569-8.304-2.217-16.83-2.827-25.249
			c-0.678-9.356-1.232-18.717-1.744-28.083c-0.455-8.314-0.769-16.708-0.222-25.024c0.525-7.972,2.121-15.846,6.152-22.828
			c2.076-3.596,4.544-6.949,6.842-10.403c-1.053,6.337-1.077,13.053-0.267,19.424c0.732,5.759,3.447,10.927,6.084,16.016
			c3.317,6.401,6.706,12.772,9.777,19.297c2.842,6.039,5.369,12.217,7.699,18.47c2.441,6.554,4.671,13.181,6.941,19.796
			c2.202,6.416,4.31,12.875,6.794,19.19c1.194,3.037,2.462,6.058,3.985,8.946c1.479,2.804,3.473,5.365,4.686,8.304
			c0.913,2.213,1.034,4.663,1.967,6.863c0.726,1.711,2.031,2.841,3.708,3.546c2.654,1.117,5.656,1.351,8.499,1.487
			c3.416,0.163,6.833,0.03,10.25-0.011c2.699-0.033,5.577,0.413,8.241-0.09c1.933-0.365,2.438-1.778,2.309-3.545
			c-0.159-2.178-0.539-4.815-1.76-6.689c-0.952-1.46-2.432-2.302-4.088-2.7c-3.854-0.925-8.529-0.009-11.961-2.356
			c-1.245-0.852-1.992-2.085-2.466-3.49c-0.962-2.853-1.276-5.845-2.433-8.646c-1.284-3.111-2.985-6.033-4.388-9.09
			c-1.292-2.816-2.351-5.739-3.293-8.689c-1.988-6.225-3.812-12.495-5.958-18.669c-2.39-6.872-4.943-13.71-6.861-20.734
			c-1.736-6.358-2.916-12.905-3.353-19.486c-0.437-6.586-0.012-13.069,1.537-19.493c1.605-6.654,3.838-13.184,6.427-19.516
			c2.443-5.972,5.28-11.82,6.463-18.212c1.142-6.175,1.072-12.581,2.862-18.635c1.78-6.018,5.932-11.063,7.367-17.193
			c0.744-3.181,0.846-6.486,1.692-9.644c0.665-2.482,2.011-4.595,3.427-6.711c1.761-2.631,3.265-5.228,4.282-8.244
			c1.079-3.198,1.852-6.509,2.723-9.767c0.554-2.069,1.107-4.137,1.661-6.206c0.171-0.638,0.163-0.634,0.794-0.954
			c0.675-0.342,1.35-0.684,2.038-1c0.711-0.327,1.81-0.947,2.647-0.876c1.043,0.088,0.485,1.304,0.212,1.922
			c-1.222,2.768-3.229,5.111-4.608,7.791c-0.236,0.459-0.644,1.144,0.133,0.946c0.514-0.131,1.097-0.655,1.522-0.952
			c1.311-0.914,2.585-1.886,3.943-2.731c0.619-0.385,1.431-0.947,2.182-1.044c1.121-0.144,0.939,1.083,0.797,1.84
			c-0.493,2.637-1.806,5.058-2.319,7.687c-0.21,1.075,0.032,1.654,1.172,1.135c0.997-0.454,1.887-1.119,2.887-1.569
			c1.203-0.542,2.096-0.446,2.369,0.985c0.245,1.286,0.092,2.632,0.133,3.929c0.037,1.184,0.19,2.07,1.508,1.409
			c1.276-0.64,2.176-1.026,2.914,0.511c0.625,1.302,1.138,6.056,3.248,5.718c1.816-0.291,3.531-2.495,4.717,0.117
			c1.114,2.454,1.246,5.44,1.615,8.071c0.147,1.05,0.232,2.162,0.555,3.176c0.551,1.732,1.421-0.707,1.729-1.364
			c0.368-0.786,0.968-2.487,1.909-2.765c1.013-0.299,1.749,1.286,2.131,2.02c1.475,2.835,2.414,5.964,3.534,8.946
			c0.463,1.232,0.933,2.483,1.557,3.644c0.455,0.847,1.234,2.099,2.051,0.88c0.661-0.986,0.923-2.282,1.302-3.384
			c0.084-0.244,0.279-1.084,0.534-1.209c0.419-0.205,0.558,0.508,0.67,0.843c0.561,1.675,1.193,5.807,3.73,5.394
			c2.195-0.358,4.142-2.592,5.68-3.991c0.92-0.838,1.827-1.775,2.88-2.451c1.149-0.737,1.542-0.126,1.617,1.052
			c0.062,0.98-0.16,2.159,0.17,3.112c0.395,1.141,1.517,0.166,2.102-0.327c2.38-2.008,4.298-4.538,6.496-6.734
			c0.662-0.661,1.571-1.729,2.522-2.025c1.427-0.444,1.007,1.994,1.396,2.728c0.56,1.058,1.764-0.514,2.241-1.043
			c1.177-1.307,2.247-2.713,3.359-4.075c0.633-0.775,3.601-4.975,5.021-3.777c0.854,0.721,0.908,2.671,1.07,3.687
			c0.168,1.051,0.244,2.515,0.897,3.411c1.304,1.793,5.032-2.471,5.966-3.188c0.962-0.738,2.064-1.392,2.587,0.11
			c0.329,0.945,0.365,1.969,0.649,2.927c0.411,1.387,1.239,1.4,2.342,0.654c1.204-0.815,2.239-1.884,3.322-2.845
			c0.786-0.698,1.678-1.57,2.687-1.946c1.346-0.501,1.753,0.88,1.987,1.939c0.26,1.173,0.34,2.387,0.659,3.548
			c0.142,0.517,0.347,1.286,0.968,1.39c0.532,0.089,1.132-0.419,1.509-0.72c1.066-0.851,1.966-1.912,2.906-2.893
			c0.476-0.496,1.883-2.312,2.686-1.842c0.783,0.459,0.508,1.871,1.457,2.303c0.95,0.432,2.24-0.258,3.066-0.707
			c1.705-0.927,3.355-2.25,4.505-3.823c0.018,1.031,0.019,2.068,0.114,3.095c0.046,0.497,0.039,1.725,0.745,1.344
			c0.681-0.368,1.017-1.628,1.49-2.211c0.736-0.908,0.821,0.258,0.873,0.918c0.083,1.06,0.179,2.216,0.091,3.271
			c-0.078,0.942-0.384,1.912-0.576,2.838c-0.519,2.506-1.052,5.009-1.529,7.523c-0.844,4.453-1.552,8.933-2.21,13.417
			c-0.662,4.508-1.291,9.026-1.845,13.549c-0.58,4.735-1.171,9.471-1.658,14.217c-0.493,4.799-0.973,9.601-1.332,14.412
			c-0.355,4.757-0.626,9.518-0.729,14.288c-0.096,4.47-0.051,8.943,0.074,13.412c0.155,5.546,0.357,11.091,0.536,16.636
			c0.13,4.032,0.238,8.062,0.219,12.097c-0.022,4.706-0.137,9.418-0.553,14.107c-0.378,4.255-1.123,8.417-2.11,12.571
			c-1.062,4.469-2.361,8.992-1.994,13.634c0.35,4.423,1.933,8.604,2.565,12.975c0.653,4.518-0.881,8.492-1.825,12.83
			c-0.421,1.937-0.709,4.112,0.239,5.948c1.015,1.966,3.098,2.804,5.154,3.21c4.092,0.809,8.431,0.472,12.573,0.416
			c4.716-0.064,9.441-0.211,14.156-0.027c1.86,0.073,3.757-0.042,5.602,0.047c1.274,0.061,2.53,0.186,3.811,0.189
			c5.25,0.012,10.501,0.045,15.751,0.03c2.167-0.006,4.34-0.041,6.503-0.193c1.567-0.11,3.233-0.212,4.728-0.735
			c2.927-1.025,2.134-4.641,1.301-6.902c-1.02-2.769-3.678-4.062-6.28-5.157c-0.758-0.319-1.546-0.574-2.367-0.66
			c-1.29-0.136-2.579,0.178-3.867,0.064c-3.126-0.277-3.945-3.367-4.323-5.957c-0.604-4.138-0.415-8.349-1.676-12.379
			c-0.656-2.099-1.357-4.144-1.675-6.328c-0.311-2.14-0.422-4.305-0.57-6.46c-0.3-4.39-0.672-8.77-1.049-13.154
			c-0.482-5.613-0.988-11.224-1.447-16.839c-0.345-4.232-0.604-8.485-0.658-12.731c-0.026-2.064-0.022-4.151,0.275-6.197
			c0.281-1.937,0.984-3.743,1.488-5.625c1.115-4.164,1.694-8.51,2.32-12.769c0.689-4.68,1.347-9.366,1.83-14.072
			c0.525-5.12,0.956-10.249,1.455-15.372c0.413-4.238,1.187-8.411,1.77-12.626c0.603-4.362,0.56-8.678,0.306-13.064
			c-0.258-4.46-0.697-8.929-0.578-13.402c0.119-4.454,0.885-8.856,1.09-13.303c0.183-3.981-0.32-8.292,0.84-12.161
			c0.546-1.82,1.602-3.379,3.017-4.641c1.991-1.775,4.529-2.959,7.16-3.378c3.909-0.623,7.895,0.289,11.806-0.404
			c3.497-0.62,6.064-2.859,9.137-4.452c0.616-0.319,1.494-0.78,2.2-0.474c0.604,0.262,0.837,1.005,1.038,1.577
			c0.153,0.435,0.376,1.9,1.016,1.834c0.522-0.054,1.073-1.285,1.309-1.7c0.549-0.964,1.048-1.956,1.606-2.914
			c0.316-0.543,0.716-1.398,1.269-1.727c1.442-0.858,1.335,3.665,2.78,1.752c1.125-1.49,1.74-3.528,2.466-5.22
			c0.272-0.635,1.491-4.267,2.46-3.99c1.155,0.33,0.837,4.473,2.58,1.992c1.165-1.659,1.901-3.597,2.942-5.332
			c3.409-5.68,3.121,4.461,4.539,3.767c0.36-0.176,0.581-1.364,0.671-1.69c0.247-0.895,0.444-1.805,0.639-2.713
			c0.479-2.228,0.833-4.561,1.576-6.723c0.152-0.444,0.373-1.345,0.925-0.987c0.476,0.308,0.461,1.392,1.044,1.581
			c0.967,0.313,2.226-3.914,2.445-4.441c0.299-0.717,0.605-1.6,1.133-2.186c0.645-0.716,1.127-0.167,1.522,0.489
			c0.336,0.56,1.343,3.709,2.249,2.909c0.51-0.451,0.705-1.572,0.878-2.201c0.263-0.956,0.473-1.926,0.683-2.895
			c0.51-2.352,0.972-4.723,1.628-7.04c0.259-0.916,0.54-1.835,0.912-2.713c0.151-0.356,0.405-1.13,0.762-1.301
			c0.658-0.315,0.743,0.842,0.821,1.308c0.188,1.128,0.267,2.274,0.392,3.409c0.071,0.645,0.211,4.125,1.384,3.666
			c1.064-0.417,1.731-2.877,2.042-3.819c0.653-1.974,1.027-4.016,1.276-6.077c0.146-1.208,0.234-2.427,0.423-3.63
			c0.069-0.437,0.118-1.424,0.687-1.088c0.553,0.327,1.569,4.13,2.494,2.959c0.381-0.482,0.473-1.419,0.588-1.998
			c0.235-1.179,0.402-2.371,0.598-3.557c0.149-0.898,0.285-1.812,0.537-2.689c0.182-0.633,0.492-1.58,1.142-0.78
			c0.985,1.213,1.207,2.939,2.061,4.241c0.555,0.847,0.933,0.43,1.176-0.39c0.206-0.698,0.306-1.43,0.407-2.149
			c0.347-2.468,0.534-4.961,0.775-7.441c0.162-1.668,0.253-3.428,0.728-5.042c0.284-0.966,0.711-1.081,1.209-0.163
			c0.424,0.781,0.708,1.646,1.029,2.472c0.172,0.444,0.464,1.742,0.919,2.03c0.501,0.318,0.532-0.577,0.585-0.977
			c0.291-2.21,0.229-4.499,0.289-6.723c0.05-1.84-0.001-3.757,0.356-5.569c0.172-0.874,0.499-1.273,1.108-0.384
			c0.365,0.533,0.738,1.816,1.338,2.129c0.609,0.319,0.669-0.63,0.741-1.104c0.138-0.905,0.179-1.826,0.229-2.739
			c0.115-2.095,0.093-4.271,0.494-6.339c0.074-0.382,0.175-1.216,0.599-1.336c0.632-0.18,1.477,1.322,1.767,1.693
			c0.533,0.68,1.087,1.238,1.36,0.088c0.195-0.82,0.21-1.701,0.28-2.536c0.083-0.993,0.015-4.115,1.419-4.206
			c0.702-0.045,1.309,0.661,1.999,0.598c0.701-0.063,0.728-0.905,0.763-1.469c0.116-1.909-0.224-3.858-0.385-5.755
			c-0.063-0.741-0.274-1.799-0.035-2.528c0.319-0.973,1.225,0.14,1.672,0.503c0.679,0.552,1.276,0.809,1.672-0.164
			c0.283-0.694,0.334-1.525,0.398-2.264c0.195-2.258,0.167-4.535,0.239-6.798c0.146-4.56,0.845-9.051,1.363-13.577
			c0.476-4.156,0.632-8.324,0.635-12.505c0.004-4.634-0.064-9.274,0.024-13.908c0.112-5.937,0.225-11.874,0.337-17.811
			c0.082-4.326,0.144-8.652,0.193-12.978c0.049-4.369-0.126-8.751,0.205-13.112c0.342-4.508,1.423-8.832,3.275-12.958
			c0.901-2.008,1.948-3.951,3.105-5.824c0.42-0.68,1.072-2.218,1.752-2.607c0.312-0.179,0.959-0.153,1.309-0.209
			c0.797-0.128,1.595-0.255,2.392-0.383c4.508-0.721,9.016-1.396,13.567-1.782c4.298-0.364,8.654-0.552,12.945-0.018
			c3.459,0.43,7.105,1.623,10.605,0.946c2.196-0.425,4.088-1.754,5.601-3.358c0.323-0.342,0.63-0.699,0.922-1.068
			c0.267-0.338,0.614-1.115,0.967-1.32c0.25-0.145,0.798-0.108,1.095-0.186c1.307-0.345,2.402-1.182,3.004-2.412
			c0.736-1.503,0.675-3.266,0.188-4.831c-0.734-2.357-2.207-4.452-4.238-5.852c1.271-0.96-0.175-4.623-0.454-5.68
			c-0.468-1.769-1.35-3.067-3.148-3.74c-0.726-0.272-1.463-0.353-2.21-0.525c-1.211-0.28-2.524-1.331-3.598-1.975
			c-2.489-1.495-4.885-3.12-7.321-4.698c-3.882-2.515-8.222-4.735-10.948-8.606c-1.376-1.954-2.452-4.129-4.142-5.848
			c-1.545-1.572-3.471-2.743-5.427-3.728c-4.895-2.465-10.342-4.231-15.73-5.218C555.887,141.735,555.219,141.633,554.548,141.535z"
			/>
	</g>
</g>
</svg>
