<?xml version="1.0" encoding="utf-8"?>
<!-- Generator: Adobe Illustrator 26.3.1, SVG Export Plug-In . SVG Version: 6.00 Build 0)  -->
<!DOCTYPE svg PUBLIC "-//W3C//DTD SVG 1.1//EN" "http://www.w3.org/Graphics/SVG/1.1/DTD/svg11.dtd" [
	<!ENTITY ns_flows "http://ns.adobe.com/Flows/1.0/">
	<!ENTITY ns_extend "http://ns.adobe.com/Extensibility/1.0/">
	<!ENTITY ns_ai "http://ns.adobe.com/AdobeIllustrator/10.0/">
	<!ENTITY ns_graphs "http://ns.adobe.com/Graphs/1.0/">
	<!ENTITY ns_vars "http://ns.adobe.com/Variables/1.0/">
	<!ENTITY ns_imrep "http://ns.adobe.com/ImageReplacement/1.0/">
	<!ENTITY ns_sfw "http://ns.adobe.com/SaveForWeb/1.0/">
	<!ENTITY ns_custom "http://ns.adobe.com/GenericCustomNamespace/1.0/">
	<!ENTITY ns_adobe_xpath "http://ns.adobe.com/XPath/1.0/">
]>
<svg version="1.1" xmlns:x="&ns_extend;" xmlns:i="&ns_ai;" xmlns:graph="&ns_graphs;"
	 xmlns="http://www.w3.org/2000/svg" xmlns:xlink="http://www.w3.org/1999/xlink" xmlns:a="http://ns.adobe.com/AdobeSVGViewerExtensions/3.0/"
	 x="0px" y="0px" width="750px" height="750px" viewBox="0 0 750 750" enable-background="new 0 0 750 750" xml:space="preserve">
<metadata>
	<sfw  xmlns="&ns_sfw;">
		<slices></slices>
		<sliceSourceBounds  bottomLeftOrigin="true" height="5661.035" width="8462.062" x="-7196.062" y="-910.035"></sliceSourceBounds>
	</sfw>
</metadata>
<g id="FILL-BACKGROUND">
	<rect fill="#FFFFFF" width="750" height="750"/>
</g>
<g id="N-DIMENSIONS">
</g>
<g id="N-TEXT">
</g>
<g id="AG-DIAGRAM">
	<g>
		<g>
			
				<line fill="none" stroke="#FB8604" stroke-width="3.25" stroke-linecap="round" stroke-linejoin="round" x1="494.5" y1="642.576" x2="492.5" y2="642.576"/>
			
				<line fill="none" stroke="#FB8604" stroke-width="3.25" stroke-linecap="round" stroke-linejoin="round" stroke-dasharray="3.9683,6.9445" x1="485.556" y1="642.576" x2="150.733" y2="642.576"/>
			
				<line fill="none" stroke="#FB8604" stroke-width="3.25" stroke-linecap="round" stroke-linejoin="round" x1="147.261" y1="642.576" x2="145.261" y2="642.576"/>
		</g>
	</g>
</g>
<g id="AG-DETAILS">
</g>
<g id="AG-PEOPLE">
</g>
<g id="AG-ANIMALS">
	<g id="POLYLINE_108_">
		
			<path fill="none" stroke="#FB8604" stroke-width="2.75" stroke-linecap="round" stroke-linejoin="round" stroke-miterlimit="10" d="
			M392.055,508.595c0.622,1.311,1.28,2.604,1.652,4.013c0.426,1.613,0.494,3.287,0.728,4.931c0.042,0.298,0.101,1.513,0.578,1.504
			c0.518-0.01,0.671-1.492,1.161-1.438c0.484,0.054,0.375,2.615,0.384,2.791c0.065,1.265,0.125,2.581,0.513,3.798
			c0.58,1.821,2.087,2.805,3.277,4.208c0.66,0.778,1.119,1.677,1.582,2.581c0.263,0.514,0.667,1.69,1.267,1.983
			c1.202,0.586,1.491-2.524,2.461-1.911c0.199,0.126,0.309,0.585,0.38,0.782c0.266,0.735,0.441,1.502,0.694,2.242
			c0.556,1.63,1.448,3.094,2.247,4.611c1.607,3.052,2.233,6.447,2.368,9.867c0.328,8.286,0.431,16.575,0.451,24.867
			c0.019,7.87,0.001,15.774-0.578,23.626c-0.138,1.875-0.331,3.737-0.639,5.592c-0.222,1.337-0.496,2.682-0.462,4.043
			c0.062,2.469,0.969,4.937,1.982,7.161c0.698,1.533,1.559,2.941,2.535,4.311c0.564,0.791,1.135,1.586,1.508,2.489
			c0.815,1.974,0.579,4.248,0.332,6.309c-0.362,3.026-1.313,6.199-1.018,9.263c0.131,1.365,0.705,2.582,1.654,3.568
			c2.867,2.978,7.274,2.994,11.115,2.877c2.05-0.062,4.1-0.159,6.15-0.203"/>
	</g>
	<g id="POLYLINE_107_">
		
			<path fill="none" stroke="#FB8604" stroke-width="2.75" stroke-linecap="round" stroke-linejoin="round" stroke-miterlimit="10" d="
			M417.317,538.236c0.575,5.194,1.164,10.388,1.585,15.598c0.438,5.415,0.854,10.83,1.161,16.254
			c0.317,5.608,0.643,11.216,0.808,16.831c0.156,5.302,0.401,10.693-0.157,15.979c-0.181,1.721-0.475,3.454-0.232,5.184
			c0.246,1.747,0.892,3.442,1.619,5.04c0.9,1.977,2.026,3.786,3.382,5.482c0.778,0.974,1.555,1.95,1.975,3.138
			c1.273,3.596,0.127,7.974-0.143,11.644c-0.171,2.32-0.143,4.637,1.538,6.427c1.292,1.376,3.098,2.208,4.934,2.553
			c1.899,0.357,3.853,0.263,5.773,0.196c2.52-0.088,5.034-0.197,7.555-0.088c2.646,0.114,5.345,0.361,7.992,0.151
			c1.008-0.08,2.127-0.216,3.023-0.73c1.557-0.893,1.771-2.782,1.345-4.387c-0.311-1.172-0.951-2.217-1.59-3.235
			c-0.859-1.369-1.663-2.839-2.859-3.951c-2.445-2.275-6.134-2.265-9.188-3.086c-2.098-0.564-3.951-1.487-5.279-3.246
			c-2.199-2.916-2.732-6.882-3.129-10.405c-0.577-5.122-0.641-10.304-0.519-15.452c0.126-5.351,0.743-10.681,0.806-16.032
			c0.065-5.467-0.579-10.93-0.906-16.381c-0.312-5.205-0.307-10.428-0.141-15.639c0.085-2.668,0.232-5.333,0.366-7.998"/>
	</g>
	<g id="POLYLINE_106_">
		
			<path fill="none" stroke="#FB8604" stroke-width="2.75" stroke-linecap="round" stroke-linejoin="round" stroke-miterlimit="10" d="
			M402.116,510.3c1.525,2.847,3.013,5.708,4.46,8.595c0.681,1.358,1.317,2.755,2.077,4.072c0.226,0.392,0.47,0.862,0.835,1.148
			c0.678,0.53,1.238-0.203,1.869,0.144c0.423,0.233,0.655,0.99,0.809,1.391c0.343,0.89,0.579,1.827,0.76,2.762
			c0.458,2.361,0.367,4.798,0.953,7.138c0.227,0.907,0.515,2.173,1.591,2.346c0.754,0.121,1.314-0.043,1.967,0.424
			c1.76,1.257,2.893,3.823,3.984,5.595c1.719,2.792,3.304,5.665,4.982,8.482c0.39,0.654,1.139,2.239,2.04,2.447
			c0.874,0.202,1.195-1.096,1.395-1.708c0.363-1.116,0.543-2.305,0.984-3.394c0.109-0.269,0.236-0.69,0.585-0.688
			c0.801,0.004,0.992,1.874,1.89,0.916c0.469-0.501,0.698-1.345,0.934-1.966c0.534-1.406,1.057-2.781,1.782-4.104
			c1.35-2.463,2.773-4.821,3.435-7.584c0.563-2.35,0.564-4.796,0.483-7.197c-0.106-3.135-0.27-6.195,0.017-9.324
			c0.28-3.052,0.155-6.118,0.435-9.172c0.572-6.253,1.969-12.408,2.72-18.642c0.182-1.51,0.329-3.023,0.466-4.538"/>
	</g>
	<g id="POLYLINE_105_">
		
			<path fill="none" stroke="#FB8604" stroke-width="2.75" stroke-linecap="round" stroke-linejoin="round" stroke-miterlimit="10" d="
			M190.206,555.567c0.542,3.757,1.249,7.513,1.912,11.251c0.093,0.527,0.586,4.781,1.753,4.269c0.666-0.292,0.944-1.432,1.505-1.915
			c0.288-0.248,0.565-0.373,0.945-0.372c1.087,0.002,1.903,0.811,3.021,0.503c0.482-0.133,0.929-0.479,1.38-0.139
			c0.517,0.39,0.667,1.326,0.973,1.868c0.523,0.928,1.946,2.014,0.525,2.689c-1.285,0.611-2.662,1.1-3.053,2.658
			c-0.352,1.402,1.247,1.145,2.175,1.413c1.447,0.418,2.874,1.459,3.793,2.631c0.727,0.928,0.646,1.723,0.01,2.681
			c-0.593,0.894-2.036,2.112-0.742,2.972c0.568,0.377,1.175,0.609,1.652,1.112c0.584,0.617,0.944,1.424,1.298,2.184
			c1.307,2.804,3.405,5.011,4.878,7.709c1.744,3.194,2.89,6.727,4.173,10.121c2.41,6.376,4.993,12.498,9.527,17.671
			c1.166,1.331,2.866,2.878,2.983,4.783c0.097,1.59-0.727,3.078-0.783,4.66c-0.069,1.919,0.829,4.438,3.036,4.582
			c1.655,0.108,3.054-0.396,4.581,0.433c1.864,1.012,3.275,2.351,5.397,2.808c3.059,0.66,6.315,0.32,9.412,0.305
			c2.552-0.012,5.522,0.396,8.001-0.452c2.571-0.879,2.295-3.858,1.107-5.833c-0.924-1.536-2.431-2.646-3.917-3.592
			c-1.556-0.991-3.207-1.841-4.894-2.584c-1.404-0.618-2.892-1.044-4.276-1.705c-1.445-0.69-2.59-1.751-3.596-2.985
			c-2.004-2.458-3.692-5.412-4.615-8.456c-0.633-2.088-0.47-4.35-1.261-6.389c-1.08-2.784-3.096-5.181-4.503-7.807
			c-3.571-6.664-6.103-13.85-8.755-20.91c-2.572-6.847-5.749-13.546-7.811-20.569c-1.953-6.654-1.014-13.398-0.848-20.216
			c0.186-7.652-0.579-15.28-0.632-22.928c-0.025-3.601,0.2-7.194,0.423-10.787"/>
	</g>
	<g id="POLYLINE_104_">
		
			<path fill="none" stroke="#FB8604" stroke-width="2.75" stroke-linecap="round" stroke-linejoin="round" stroke-miterlimit="10" d="
			M161.709,417.176c0.324,6.132,1.094,12.258,1.99,18.331c0.316,2.14,0.526,4.587,1.437,6.577c0.465,1.015,0.976,0.798,1.469-0.076
			c1.061-1.882,1.43-4.234,2.773-5.956c0.767-0.983,1.098,0.008,1.266,0.83c0.509,2.493,0.452,5.135,0.516,7.669
			c0.079,3.103,0.102,6.216,0.37,9.31c0.217,2.51,0.623,4.995,1.284,7.428c0.59,2.171,1.225,4.668,2.449,6.59
			c0.997,1.565,0.722-1.535,0.704-2.022c-0.004-0.118-0.178-1.855,0.112-1.814c0.363,0.051,0.801,1.971,0.882,2.215
			c0.932,2.835,1.692,5.748,2.796,8.523c0.475,1.194,1.357,2.208,1.515,3.504c0.296,2.418-0.088,5.003-0.417,7.399
			c-0.377,2.745-0.898,5.484-1.685,8.143c-1.508,5.092-4.252,9.415-7.55,13.524c-1.895,2.361-3.911,4.679-5.536,7.241
			c-0.84,1.324-1.561,2.746-1.793,4.312c-0.247,1.673,0.071,3.364,0.452,4.991c0.603,2.574,1.414,5.155,1.614,7.805
			c0.097,1.283,0.054,2.654-0.637,3.782c-0.958,1.562-2.73,2.483-4.042,3.702c-1.275,1.185-2.293,2.624-3.11,4.156
			c-0.59,1.107-1.398,2.595-1.308,3.9c0.063,0.906,0.709,0.947,1.468,0.889c1.246-0.094,2.404-0.327,3.466,0.477
			c1.883,1.426,2.206,4.194,1.707,6.336c-0.348,1.491-1.276,3.13-1.083,4.714c0.148,1.214,1.185,1.982,1.871,2.903
			c1.154,1.552-0.197,3.42,0.985,4.955c0.999,1.298,2.526,2.1,3.479,3.447c0.728,1.028,0.834,2.191,0.685,3.413
			c-0.204,1.673-0.918,3.39-0.676,5.096c0.207,1.463,1.162,2.681,1.722,4.014c0.575,1.37,0.727,2.823,0.746,4.3
			c0.037,2.93-0.323,5.854-0.421,8.78c-0.093,2.799,0.126,5.545,0.819,8.263c0.73,2.866,1.87,5.605,2.642,8.458
			c0.675,2.494,0.732,5.005,0.937,7.565c0.109,1.357,0.308,2.69,0.94,3.909c0.793,1.531,2.062,2.771,2.514,4.472
			c0.485,1.823,0.091,3.618-0.112,5.448c-0.247,2.226,0.392,4.064,2.254,5.408c3.531,2.549,8.622,2.482,12.775,2.527
			c3.026,0.033,6.056-0.081,9.081-0.148c2.016-0.044,4.378,0.171,6.306-0.587c1.816-0.714,1.828-2.604,1.299-4.222
			c-0.616-1.885-1.954-3.482-3.73-4.374c-3.1-1.556-6.884-0.614-9.907-2.415c-2.513-1.497-4.329-4.512-4.671-7.397
			c-0.205-1.731,0.262-3.428,0.27-5.155c0.007-1.416-0.399-2.781-0.895-4.096c-0.947-2.511-2.138-4.917-2.658-7.57
			c-0.539-2.749-0.344-5.568-0.62-8.343c-0.257-2.587-1.22-5.047-1.385-7.645c-0.168-2.65,0.247-5.329,0.458-7.965
			c0.461-5.753-0.768-11.646,0.286-17.342c0.502-2.713,1.613-5.264,2.153-7.965c0.419-2.093,0.128-4.219,0.391-6.323
			c0.489-3.917,3.721-6.545,5.694-9.728c0.627-1.012,1.079-2.094,1.295-3.268c0.323-1.75,0.121-3.69,0.812-5.361
			c0.476-1.15,1.539-1.774,2.44-2.564c0.957-0.839,1.644-1.837,2.165-2.994c1.007-2.238,1.413-4.727,2.504-6.923
			c0.538-1.082,0.959-1.176,1.873-0.485c0.822,0.622,1.197,0.338,1.607-0.566c0.86-1.901,1.103-4.03,1.989-5.926
			c0.801-1.713,2.124-3.062,3.232-4.572c1.717-2.339,3.197-4.85,4.787-7.275"/>
	</g>
	<g id="POLYLINE_103_">
		
			<path fill="none" stroke="#FB8604" stroke-width="2.75" stroke-linecap="round" stroke-linejoin="round" stroke-miterlimit="10" d="
			M154.318,398.199c1.019,1.271,2.056,2.512,2.747,4.001c0.692,1.492,1.067,3.121,1.425,4.718c0.709,3.164,1.088,6.934,2.849,9.744
			c2.345,3.744,3.023-5.467,4.888-3.85c0.744,0.645,1.098,2.019,1.408,2.897c0.754,2.137,1.349,4.329,2.018,6.494
			c0.546,1.767,1.08,3.576,1.884,5.247c0.26,0.541,0.758,1.738,1.496,1.786c0.552,0.036,0.924-0.628,1.167-1.023
			c0.235-0.383,0.934-2.447,1.578-2.412c0.551,0.03,0.796,1.612,0.882,1.938c0.54,2.062,1.039,4.121,1.732,6.139
			c0.275,0.801,2.026,6.75,3.706,6.091c0.615-0.241,0.844-1.447,0.996-1.988c0.273-0.976,0.449-1.976,0.694-2.959
			c0.05-0.2,0.116-0.796,0.299-0.94c0.526-0.414,0.71,1.567,0.76,1.899c0.308,2.078,0.434,4.189,0.511,6.286
			c0.075,2.035,0.051,4.068-0.075,6.101c-0.109,1.758-0.36,3.583-0.156,5.344c0.147,1.27,0.675,2.406,1.189,3.563
			c0.753,1.694,1.302,3.44,1.649,5.262c0.405,2.128,0.491,4.25,0.44,6.409c-0.032,1.348-0.149,2.763,0.157,4.091
			c0.387,1.679,2.058,2.468,2.571,4.038c0.327,1,0.158,2.146,0.085,3.167c-0.127,1.782-0.058,3.522,0.228,5.287
			c0.646,3.98,1.981,7.764,2.367,11.798c0.209,2.187,0.311,4.383,0.507,6.572c0.04,0.449,0.001,2.953,0.588,3.262
			c0.847,0.446,2.311-6.738,2.459-7.427c0.439-2.037,0.734-4.184,1.406-6.164c0.178-0.523,0.408-1.189,0.811-0.469
			c0.67,1.196,0.656,3.034,0.854,4.368c0.303,2.048,0.491,4.169,1.005,6.181c0.118,0.46,0.288,1.442,0.888,1.025
			c0.204-0.142,0.328-0.532,0.432-0.745c0.373-0.768,0.659-1.577,1.056-2.333c0.19-0.361,0.54-1.154,1.047-1.144
			c0.48,0.01,0.822,0.765,1.018,1.107c0.623,1.086,1.396,3.22,2.572,1.445c0.354-0.534,1.733-4.544,2.834-3.249
			c0.607,0.714,1.285,4.655,2.628,4.175c0.809-0.289,1.344-1.915,1.65-2.594c0.443-0.984,0.828-1.995,1.293-2.968
			c0.121-0.252,0.297-0.805,0.554-0.962c0.663-0.405,0.749,1.016,0.829,1.451c0.183,0.991,0.223,2.761,0.944,3.599
			c0.474,0.55,0.851,0.117,1.192-0.362c1.073-1.505,1.723-3.408,2.488-5.07c0.771-1.675,1.632-3.272,2.698-4.78
			c0.856-1.211,1.793-2.384,2.409-3.743c0.877-1.936,1.177-4.16,1.088-6.271c-0.122-2.897-1.389-5.097-2.599-7.675
			c-1.147-2.444-1.314-5.012-1.042-7.682c0.359-3.526,1.235-7.061,2.806-10.247c1.773-3.598,4.292-6.889,7.002-9.829
			c0.393-0.426,3.505-4.133,4.358-2.895c0.48,0.697,0.067,2.4,0.043,3.105c-0.041,1.2-0.015,2.427,0.336,3.585
			c0.478,1.579,1.618,3.419,3.167,4.151c1.701,0.804,1.782-1.449,1.926-2.584c0.356-2.815,0.888-5.835,2.635-8.169
			c0.659-0.881,1.645-1.765,2.828-1.466c2.159,0.545,3.667,3.453,4.976,4.963c0.356,0.411,1.039,1.352,1.697,1.156
			c0.662-0.197,1.043-1.572,1.28-2.042c0.671-1.333,1.568-2.285,3.083-2.536c3.999-0.663,9.042,1.926,10.934,5.475
			c0.643,1.207,0.94,2.538,1.435,3.805c0.554,1.419,1.465,2.672,2.166,4.018c1.815,3.486,2.774,7.516,4.928,10.813
			c0.322,0.493,0.771,1.136,1.152,0.389c0.552-1.082,0.372-2.82,0.483-3.96c0.038-0.388,0.014-1.635,0.585-1.274
			c0.288,0.182,0.492,0.929,0.609,1.212c0.395,0.953,0.733,1.932,1.093,2.898c1.155,3.099,2.271,6.631,4.46,9.188
			c0.272,0.318,0.815,1.008,1.255,0.607c0.525-0.479,0.182-2.278,0.14-2.82c-0.083-1.062-0.212-2.12-0.299-3.182
			c-0.035-0.428-0.18-1.117-0.045-1.554c0.244-0.789,0.73,0.083,0.997,0.489c2.198,3.336,3.669,7.116,6.223,10.229
			c0.311,0.379,0.998,1.368,1.581,1.359c0.625-0.009,0.564-0.914,0.564-1.363c0.001-0.8-0.099-1.6-0.187-2.395
			c-0.066-0.601-0.368-1.618-0.207-2.224c0.089-0.337,0.008-0.38,0.304-0.126c0.358,0.307,0.556,1.083,0.733,1.489
			c1.616,3.703,3.248,7.504,4.456,11.361c0.86,2.747,1.71,5.497,2.565,8.245c0.439,1.411,0.829,2.945,1.56,4.237
			c0.432,0.764,0.66,0.474,0.768-0.257c0.272-1.836,0.145-3.757,0.215-5.607c0.054-1.441,0.064-3.11,0.586-4.479
			c0.223-0.584,0.479-0.79,0.82-0.162c0.663,1.219,0.809,2.859,1.086,4.196c0.452,2.185,0.835,4.402,1.493,6.538
			c0.308,0.999,0.679,1.937,1.297,2.786c1.246,1.713,2.436,3.441,3.55,5.245c1.136,1.839,2.227,3.711,3.222,5.629
			c0.765,1.476,1.384,3.128,2.354,4.489c1.409,1.977,1.62-2.504,1.676-3.195c0.181-2.247,0.216-4.503,0.276-6.755
			c0.047-1.767-0.035-3.632,0.277-5.379c0.108-0.607,0.288-1.154,0.771-0.448c0.921,1.345,1.313,3.309,1.839,4.825
			c0.556,1.604,1.03,3.339,1.877,4.822c0.379,0.664,0.706,0.836,0.811-0.036c0.22-1.828-0.079-3.724-0.045-5.563
			c0.008-0.407-0.11-1.99,0.595-1.698c0.735,0.305,1.275,2.22,1.517,2.817c0.623,1.54,1.179,3.141,1.498,4.774
			c0.296,1.513,0.391,3.007,0.941,4.461c0.583,1.542,1.338,3.126,2.343,4.442c0.254,0.333,0.765,1.097,1.242,0.764
			c0.508-0.354,0.408-2.04,0.432-2.491c0.084-1.573,0.075-3.194,0.497-4.724c0.33-1.196,0.975-2.26,1.402-3.417
			c0.908-2.456,0.199-4.985,0.084-7.509c-0.048-1.06,0.375-0.348,0.676,0.215c1.011,1.889,1.833,3.881,2.775,5.805
			c0.877,1.789,1.79,3.571,2.825,5.275c0.286,0.47,1.074,2.149,1.753,2.304c0.599,0.136,0.486-0.735,0.474-1.159
			c-0.061-2.052-0.451-4.1-0.657-6.142c-0.211-2.096-0.375-4.231-0.305-6.339c0.012-0.377-0.06-1.742,0.459-1.338
			c0.259,0.202,0.37,0.882,0.469,1.166c0.381,1.082,0.729,2.176,1.143,3.247c0.452,1.171,0.969,2.325,1.694,3.355
			c1.278,1.814,3.22,3.041,4.019,5.167c0.179,0.477,0.327,1.529,1.016,1.294c0.857-0.293,1.589-2.182,1.942-2.88
			c0.855-1.693,1.44-3.36,1.377-5.273c-0.047-1.444-0.364-2.873-0.697-4.273c-0.278-1.166-0.597-2.322-0.886-3.485
			c-0.077-0.311-0.237-0.721-0.168-1.024c0.359,0.21,0.578,1.028,0.744,1.376c0.628,1.313,1.241,2.633,1.876,3.943
			c0.446,0.919,0.906,1.837,1.424,2.719c0.223,0.38,0.551,1.125,0.966,1.345c0.758,0.403,0.706-0.892,0.717-1.384
			c0.046-1.964-0.223-3.944-0.426-5.895c-0.281-2.703-0.616-5.406-0.81-8.117c-0.041-0.576-0.513-3.14,0.09-3.635
			c0.593-0.486,1.516,1.857,1.677,2.203c0.912,1.954,1.696,3.977,2.445,5.998c0.95,2.564,1.875,5.137,2.845,7.693
			c0.11,0.289,0.944,3.158,1.543,3.078c0.905-0.121-0.322-7.37,0.598-7.163c0.256,0.058,0.544,0.925,0.628,1.112
			c0.483,1.085,0.887,2.204,1.339,3.302c0.133,0.323,0.896,2.685,1.509,2.103c0.213-0.202,0.213-0.833,0.241-1.095
			c0.091-0.855,0.086-1.723,0.077-2.582c-0.023-2.374-0.317-4.74-0.33-7.112c-0.01-1.898,0.565-3.114,1.917-4.424
			c1.553-1.505,2.615-2.819,2.706-5.045c0.028-0.682-0.282-1.792-0.034-2.401c0.147-0.361,0.164-0.219,0.396,0.077
			c0.448,0.571,0.702,1.379,0.991,2.034c0.472,1.071,0.914,2.155,1.36,3.237c1.875,4.547,3.641,9.092,5.229,13.746
			c0.335,0.981,1.172,3.796,2.404,1.992c0.923-1.352,1.143-3.083,2.01-4.444c0.184-0.289,0.193-0.477,0.39-0.16
			c0.297,0.478,0.057,1.775,0.062,2.276c0.026,2.711,0.227,5.302,1.865,7.555c0.994,1.367,2.214,2.527,3.112,3.968
			c0.356,0.57,1.052,2.059,1.25,0.682c0.288-2.002,0.112-4.033,0.517-6.03c0.386-1.904,1.159-3.693,1.885-5.486
			c0.858-2.121,1.561-4.259,2.021-6.503c0.484-2.359,0.703-4.769,1.199-7.123c0.054-0.257,0.068-0.748,0.295-0.53
			c0.293,0.281,0.192,1.436,0.226,1.806c0.23,2.538,0.42,5.078,0.78,7.602c0.283,1.985,0.659,3.978,1.308,5.88
			c0.194,0.568,0.573,2.052,1.241,2.307c1.354,0.517,1.674-6.677,1.952-7.363c0.14-0.347,0.136-0.506,0.421-0.199
			c0.316,0.341,0.383,1.264,0.477,1.681c0.527,2.335,0.934,4.698,1.524,7.019c0.091,0.358,1.655,6.473,2.876,5.022
			c0.612-0.727,0.861-5.674,2.301-5.179c0.997,0.343,1.75,2.525,2.156,3.324c0.511,1.006,0.986,2.043,1.572,3.009
			c0.168,0.276,0.518,0.997,0.886,1.077c1.244,0.272,1.256-6.581,1.537-7.481c0.255-0.818,0.62-0.628,1.059-0.031
			c0.504,0.684,1.036,2.197,1.925,2.568c1.625,0.679,2.375-5.113,2.515-5.793c0.401-1.941,0.652-4.063,1.386-5.918
			c0.242-0.611,0.542-1.105,1.068-0.446c0.28,0.35,0.867,2.327,1.509,2.087c0.694-0.26,0.847-2.717,0.934-3.213
			c0.414-2.352,0.703-4.757,1.348-7.063c0.205-0.734,0.439-1.667,1.002-2.226c0.928-0.921,2.309-0.227,3.253-1.3
			c1.005-1.143,1.544-2.711,2.147-4.079c0.904-2.051,2.141-3.913,3.068-5.945c1.378-3.022,1.327-6.424,1.357-9.678
			c0.012-1.268,0.005-2.538,0.048-3.806c0.02-0.577-0.02-1.292,0.174-1.848c0.315-0.899,0.807-0.07,1.103,0.431
			c0.509,0.86,3.702,9.079,4.507,8.772c0.558-0.212-0.025-3.492-0.034-3.867c-0.011-0.493-0.136-1.667,0.579-1.139
			c0.442,0.326,0.769,1.086,1.032,1.535c0.596,1.017,1.141,2.064,1.731,3.084c0.2,0.345,1.047,2.177,1.428,1.298
			c0.185-0.428,0.009-1.247-0.027-1.678c-0.104-1.253-0.273-2.502-0.415-3.751c-0.253-2.23-0.48-4.459-0.525-6.706
			c-0.011-0.545-0.202-7.155,1.379-6.393c0.804,0.387,1.398,1.98,1.748,2.66c1.127,2.19,2.201,4.404,3.395,6.559
			c0.933,1.684,1.876,3.461,3.118,4.943c0.363,0.433,0.945,1.174,1.274,0.383c0.133-0.319,0.1-0.788,0.109-1.123
			c0.033-1.168-0.003-2.337,0.027-3.505c0.052-1.978,0.256-3.95,0.579-5.902c0.284-1.717,0.563-3.595,1.31-5.187
			c0.348-0.741,0.748-1.03,1.13-0.157c0.763,1.742,0.911,3.847,1.323,5.683c0.324,1.442,0.707,2.941,1.448,4.234
			c0.249,0.435,0.774,1.374,1.404,1.078c0.778-0.366,1.032-2.407,1.21-3.031c0.633-2.222,1.341-4.409,2.218-6.548
			c0.603-1.471,1.247-3.39,2.403-4.55c1.509-1.515,1.263,3.298,1.716,3.737c0.587,0.569,1.381-1.55,1.547-1.886
			c0.848-1.725,1.624-3.556,2.811-5.085c1.551-1.997,3.936-2.261,5.928-3.619c1.173-0.799,2.071-1.944,2.939-3.049
			c0.751-0.956,1.732-2.744,2.962-3.218c1.56-0.602,1.677,2.606,3.482,1.308c1.339-0.963,2.283-2.535,3.317-3.784
			c0.557-0.672,1.172-1.474,1.999-1.835c0.712-0.311,1.52-0.229,2.244-0.519c1.069-0.428,2.005-1.247,2.828-2.031
			c2.637-2.515,4.346-5.552,5.514-8.971c0.449-1.315,0.801-2.859,1.661-3.994c0.695-0.917,1.774-1.431,2.448-2.378
			c0.99-1.39,1.466-3.169,2.06-4.744c0.414-1.098,0.833-2.536,1.727-3.371c0.672-0.627,1.533-0.523,2.365-0.749
			c0.642-0.175,1.204-0.543,1.692-0.988c1.285-1.171,2.001-2.806,2.288-4.496c0.426-2.506-0.031-5.438,1.49-7.641
			c1.324-1.919,3.864-2.901,4.598-5.229c0.73-2.314,0.381-4.727,1.497-6.963c1.729-3.461,4.875-5.504,7.23-8.437
			c0.998-1.243,1.843-2.665,2.371-4.173c0.397-1.135,0.431-2.259,0.523-3.451c0.204-2.652,2.156-4.388,3.875-6.242
			c0.941-1.014,1.807-2.075,2.408-3.33c0.852-1.779,1.23-3.744,2.062-5.532c0.344-0.738,0.765-1.421,1.337-2.004
			c0.802-0.819,1.886-1.413,2.487-2.416c1.062-1.774,0.452-4.093,1.032-6.023c0.73-2.431,2.805-4.168,3.61-6.578
			c0.754-2.257,0.014-4.48,0.016-6.788c0.001-1.038,0.269-2,0.699-2.941c0.821-1.795,1.559-3.653,2.421-5.425
			c1.521-3.125,4.519-4.947,6.569-7.652c0.829-1.094,1.338-2.38,1.823-3.653c0.789-2.071,1.463-4.202,1.898-6.377
			c0.286-1.429,0.48-2.901,0.346-4.36c-0.13-1.414-0.65-2.759-0.781-4.168c-0.2-2.141,1.289-3.924,1.729-5.947
			c0.38-1.747,0.243-3.553,0.311-5.325c0.066-1.736,0.517-3.425,0.554-5.164c0.02-0.933-0.958-8.767,0.111-8.654
			c0.837,0.088,1.22,2.056,2.036,2.042c0.654-0.011,0.23-2.235,0.198-2.559c-0.211-2.117-0.5-4.232-0.273-6.359
			c0.169-1.579,0.609-3.14,0.555-4.738c-0.106-3.132-1.874-6.043-1.675-9.206c0.085-1.351,0.591-2.605,0.887-3.914
			c0.313-1.39-0.001-2.643-0.278-4.015c-0.757-3.743-0.371-7.731,0.237-11.466"/>
	</g>
	<g id="POLYLINE_102_">
		
			<path fill="none" stroke="#FB8604" stroke-width="2.75" stroke-linecap="round" stroke-linejoin="round" stroke-miterlimit="10" d="
			M178.003,308.856c-2.841,3.28-5.476,6.74-8.429,9.923c-2.884,3.109-6.111,5.882-8.95,9.033c-1.941,2.155-3.848,4.565-4.662,7.397
			c-0.948,3.298-0.288,6.765-0.172,10.123c0.267,7.728-4.74,14.505-3.99,22.25c0.339,3.499,1.56,6.928,1.249,10.472
			c-0.154,1.755-0.614,3.477-0.674,5.242c-0.048,1.425,0.191,2.838,0.456,4.233c0.812,4.277,1.454,8.517,1.587,12.878
			c0.116,3.83-0.025,7.782-1.36,11.414c-0.702,1.908-1.681,3.696-2.458,5.573c-0.724,1.748-1.343,3.575-2.323,5.203
			c-0.708,1.175-2.009,2.844-3.539,2.871c-1.678,0.03-1.146-3.29-1.241-4.203c-0.271-2.578-1.151-5.19-2.863-7.169
			c-1.537-1.776-2.471-3.236-2.89-5.593c-0.703-3.952,0.153-7.927,0.505-11.867c0.215-2.4,0.231-4.862-0.735-7.11
			c-0.825-1.919-2.132-3.621-2.106-5.785c0.017-1.459,0.382-2.892,0.401-4.353c0.018-1.414-0.23-2.825-0.595-4.186
			c-0.434-1.621-1.035-3.237-1.9-4.68c-0.762-1.272-1.813-2.309-2.701-3.488c-2.784-3.696-0.42-8.422-2.411-12.345
			c-1.155-2.275-3.352-3.795-4.696-5.947c-1.721-2.755-1.967-6.047-2.338-9.19c-0.18-1.522-0.533-2.976-1.135-4.388
			c-0.705-1.652-1.75-3.171-2.384-4.847c-0.237-0.628-0.227-1.217-0.153-1.882c0.213-1.892,0.639-3.774,1.049-5.631
			c0.941-4.26,1.799-8.605,3.245-12.73c1.337-3.813,3.409-7.264,5.934-10.407c4.97-6.186,11.195-10.876,18.873-13.073
			c4.011-1.148,8.164-1.905,12.258-2.684c3.779-0.719,7.68-1.436,11.544-1.204c3.186,0.191,6.145,1.252,9.015,2.591
			c2.706,1.262,5.726,3.166,8.825,3.153c0.865-0.004,1.709-0.194,2.537-0.434c1.857-0.538,3.649-1.03,5.566-1.315
			c4.32-0.642,8.396-1.647,12.606-2.801c4.142-1.136,8.226-1.584,12.517-1.357c4.258,0.225,8.493,0.895,12.761,0.936
			c1.206,0.011,2.472,0.003,3.646-0.315c0.957-0.259,1.76-0.858,2.691-1.18c2.865-0.991,6.451-0.447,9.385-0.127
			c2.012,0.219,4.03,0.505,6,0.974c1.498,0.357,2.982,0.945,4.534,1.022c1.597,0.079,3.193-0.239,4.791-0.242
			c1.406-0.002,2.773,0.204,4.134,0.551c3.167,0.807,6.287,2.448,9.579,2.663c1.23,0.08,2.435-0.168,3.658-0.244
			c1.317-0.082,2.617,0.122,3.907,0.379c1.938,0.386,3.876,0.913,5.857,1.015c1.831,0.094,3.662-0.142,5.495-0.085
			c4.106,0.129,8.122,1.24,12.225,1.382c2.343,0.081,4.509-0.846,6.878-0.758c3.114,0.115,6.602,0.496,9.465,1.812
			c1.056,0.485,1.995,1.04,3.15,1.248c1.65,0.298,3.371,0.253,5.039,0.224c3.883-0.067,8.043-0.756,11.895-0.021
			c3.335,0.636,6.078,2.918,9.412,3.577c3.125,0.618,6.229-0.483,9.283-0.998c6.274-1.057,11.602,3.249,17.763,3.495
			c2.384,0.095,3.949-1.105,6.091-1.96c2.705-1.079,5.795-0.768,8.638-0.704c2.863,0.065,5.966,0.289,8.646-0.917
			c2.279-1.025,4.024-2.927,6.408-3.759c5.362-1.872,10.507,0.502,15.446,2.505c2.759,1.119,5.708,2.213,8.722,2.272
			c2.822,0.056,5.462-1.199,8.272-1.242c3.368-0.051,6.7,1.249,9.899,2.122c3.642,0.993,7.398,1.687,11.187,1.562
			c7.085-0.235,14.182-3.489,19.541-8.039c2.918-2.477,4.658-5.5,6.627-8.72c1.778-2.908,4.482-4.889,6.615-7.496
			c2.033-2.485,2.812-5.591,3.986-8.518c1.285-3.203,3.577-5.573,5.35-8.48c1.422-2.331,1.302-4.646,1.375-7.306
			c0.096-3.504,1.405-6.603,2.789-9.773c1.526-3.494,2.979-6.866,3.455-10.68c0.251-2.015,0.379-4.046,0.814-6.033
			c0.408-1.866,1.103-3.641,1.92-5.363c1.841-3.885,4.178-7.512,6.209-11.296c1.928-3.592,3.187-7.447,4.898-11.135
			c3.377-7.278,10.509-11.633,14.323-18.606c1.782-3.258,3.063-6.763,5.258-9.787c1.034-1.424,2.225-2.759,3.625-3.833
			c1.431-1.098,3.082-1.82,4.629-2.728c2.012-1.182,3.311-3.147,5.227-4.435c1.926-1.295,4.364-1.788,6.645-1.885"/>
	</g>
	<g id="POLYLINE_101_">
		
			<path fill="none" stroke="#FB8604" stroke-width="2.75" stroke-linecap="round" stroke-linejoin="round" stroke-miterlimit="10" d="
			M596.811,142.768c2.363-0.776,6.591-0.692,7.203,2.344c0.278,1.378-0.077,2.913-0.85,4.074c-0.485,0.728-1.133,1.335-1.787,1.909
			c-1.464,1.286-2.961,2.539-4.44,3.808c-4.008,3.439-8,6.871-12.128,10.165"/>
	</g>
	<g id="POLYLINE_100_">
		
			<path fill="none" stroke="#FB8604" stroke-width="2.75" stroke-linecap="round" stroke-linejoin="round" stroke-miterlimit="10" d="
			M578.266,162.876c5.275,2.237,10.838,3.181,16.506,3.825c3.316,0.377,6.52,0.732,8.583,3.622c1.17,1.64,1.795,3.716,3.214,5.169
			c1.299,1.33,3.284,1.906,5,2.454c5.786,1.848,11.766,3.039,17.512,5.026c5.476,1.893,10.94,4.27,15.894,7.289
			c0.65,0.396,1.288,0.812,1.929,1.221"/>
	</g>
	<g id="POLYLINE_99_">
		
			<path fill="none" stroke="#FB8604" stroke-width="2.75" stroke-linecap="round" stroke-linejoin="round" stroke-miterlimit="10" d="
			M647.084,211.397c-0.161,2.158-0.768,4.145-2.342,5.685c-1.764,1.726-4.199,2.744-6.635,3.004c-2.16,0.23-4.333-0.058-6.48-0.282
			c-2.462-0.257-4.912-0.398-7.387-0.263c-5.115,0.28-10.064,1.613-14.998,2.901c-5.631,1.47-11.334,3.319-17.106,4.169
			c-2.482,0.366-4.937,0.287-7.436,0.185c-1.859-0.076-3.677,0.245-5.522,0.21c-2.791-0.053-4.84-2.47-6.636-4.317
			c-1.751-1.801-3.461-3.366-5.491-4.842c-0.859-0.625-1.592-1.343-2.178-2.229c-0.972-1.469-1.548-3.173-1.796-4.91
			c-0.267-1.875-0.163-3.823-0.687-5.657c-0.698-2.44-2.984-5.187-2.049-7.895c0.361-1.047,0.922-1.699,0.945-2.858
			c0.046-2.334-0.591-4.723-0.991-7.002c-0.335-1.906-0.295-3.658-0.357-5.574c-0.066-2.022-0.824-3.975-1.29-5.922
			c-0.698-2.913,0.131-5.463,1.392-8.119c2.288-4.821,5.453-9.268,8.913-13.312c3.459-4.042,7.246-7.887,11.338-11.29
			c3.654-3.039,7.556-4.941,12.26-5.753c1.68-0.29,4.317-0.842,5.154,1.171c1.136,2.732-1.545,5.161-3.343,6.77
			c-4.1,3.666-7.986,7.38-11.504,11.623c-1.699,2.049-3.339,4.151-4.842,6.348c-1.217,1.779-2.47,3.655-3.182,5.704
			c-0.484,1.394-0.528,2.839-0.705,4.292"/>
	</g>
	<g id="POLYLINE_98_">
		
			<path fill="none" stroke="#FB8604" stroke-width="2.75" stroke-linecap="round" stroke-linejoin="round" stroke-miterlimit="10" d="
			M649.33,199.707c2.146,2.116,3.551,5.326,2.727,8.334c-0.298,1.087-0.863,2.219-1.85,2.828c-1.579,0.974-3.837,0.521-5.529,0.194
			c-4.375-0.845-8.76-1.975-13.017-3.292"/>
	</g>
	<g id="POLYLINE_97_">
		
			<path fill="none" stroke="#FB8604" stroke-width="2.75" stroke-linecap="round" stroke-linejoin="round" stroke-miterlimit="10" d="
			M637.814,196.356c0.006-0.867,1.123-1.541,1.751-1.942c1.674-1.068,3.593-1.862,5.472-2.485c1.418-0.471,3.13-0.882,4.177,0.487
			c1.099,1.437,1.458,3.845,1.132,5.592c-0.389,2.082-2.295,2.259-4.093,1.949c-2.129-0.367-4.349-1.016-6.342-1.851
			c-0.66-0.276-1.667-0.661-1.996-1.363C637.856,196.617,637.819,196.496,637.814,196.356z"/>
	</g>
</g>
<g id="AG-OUTLINE">
	<g id="POLYLINE_96_">
		
			<path fill="none" stroke="#FB8604" stroke-width="3.5" stroke-linecap="round" stroke-linejoin="round" stroke-miterlimit="10" d="
			M647.084,211.397c2.161,0.15,3.839-0.479,4.702-2.558c0.835-2.013,0.579-4.216-0.346-6.155c-0.528-1.107-1.235-2.115-2.109-2.976
			c2.068-1.291,1.084-5.567-0.025-7.164c-0.298-0.429-0.677-0.775-1.176-0.949c-0.233-0.081-0.474-0.11-0.719-0.127
			c-0.647-0.046-0.884-0.225-1.494-0.615c-3.075-1.963-6.369-3.571-9.698-5.054c-7.366-3.28-15.096-5.12-22.829-7.301
			c-2.238-0.631-5.096-1.259-6.8-2.984c-1.666-1.687-2.269-4.166-3.834-5.955c-1.139-1.302-2.655-1.973-4.321-2.336
			c-3.589-0.783-7.322-0.889-10.938-1.585c-0.899-0.173-1.793-0.367-2.686-0.569c3.523-2.812,6.945-5.717,10.366-8.653
			c1.678-1.44,3.355-2.881,5.034-4.32c0.94-0.806,1.955-1.586,2.715-2.577c1.431-1.867,1.919-5.363-0.583-6.558
			c-1.647-0.787-3.819-0.754-5.531-0.192c1.636-2.127,1.625-5.668-1.657-5.721c-3.012-0.049-6.385,0.959-9.099,2.204
			c-3.163,1.451-5.855,3.803-8.397,6.136c-1.424,1.307-2.811,2.654-4.158,4.04c-0.728,0.749-1.451,1.502-2.161,2.267
			c-0.563,0.607-1.274,1.755-2.049,1.937c-1.483,0.348-2.954,0.347-4.414,0.9c-0.697,0.264-1.371,0.595-1.986,1.019
			c-1.906,1.312-3.213,3.257-5.238,4.434c-1.485,0.863-3.061,1.562-4.44,2.599c-1.309,0.984-2.436,2.2-3.424,3.501
			c-2.19,2.884-3.497,6.229-5.151,9.421c-1.638,3.163-3.825,5.799-6.268,8.368c-2.643,2.778-5.455,5.501-7.365,8.862
			c-1.972,3.47-3.09,7.342-4.804,10.935c-3.27,6.854-8.524,13.121-9.649,20.818c-0.514,3.519-0.703,6.922-1.982,10.279
			c-1.347,3.535-3.257,6.888-4.233,10.559c-0.743,2.794-0.172,5.681-0.767,8.473c-0.573,2.688-2.679,4.777-4.207,6.95
			c-1.923,2.733-2.766,5.859-4.036,8.911c-1.079,2.593-2.738,4.503-4.733,6.447c-1.171,1.141-2.346,2.277-3.29,3.619
			c-1.018,1.447-1.82,3.032-2.755,4.531c-1.724,2.761-3.964,5.027-6.596,6.933c-5.647,4.088-12.531,6.794-19.571,6.536
			c-3.574-0.131-7.048-0.939-10.477-1.905c-2.917-0.822-5.977-1.92-9.055-1.762c-2.694,0.138-5.233,1.296-7.952,1.227
			c-2.915-0.074-5.771-1.109-8.446-2.186c-4.798-1.931-9.692-4.281-14.952-2.809c-2.392,0.669-4.097,2.319-6.216,3.522
			c-2.066,1.174-4.346,1.39-6.688,1.415c-3.313,0.035-6.847-0.521-10.114,0.228c-1.965,0.451-3.563,1.817-5.522,2.25
			c-2.384,0.527-5.029-0.24-7.295-0.926c-3.099-0.938-6.163-2.489-9.445-2.648c-2.979-0.144-5.844,0.984-8.777,1.314
			c-2.652,0.298-4.983-0.356-7.375-1.484c-1.627-0.767-3.22-1.654-4.983-2.074c-1.519-0.362-3.089-0.391-4.643-0.363
			c-3.952,0.072-7.972,0.566-11.918,0.168c-2.245-0.227-4.03-1.541-6.179-2.111c-2.966-0.787-6.338-1.34-9.412-1.033
			c-1.13,0.113-2.19,0.543-3.315,0.676c-1.294,0.154-2.626-0.012-3.911-0.163c-3.836-0.452-7.661-1.295-11.542-1.171
			c-1.751,0.056-3.473,0.187-5.215-0.066c-1.944-0.282-3.842-0.823-5.785-1.112c-2.175-0.323-4.284,0.297-6.447,0.089
			c-3.293-0.318-6.382-1.929-9.576-2.708c-1.274-0.311-2.555-0.486-3.868-0.484c-1.566,0.002-3.126,0.304-4.691,0.246
			c-1.356-0.05-2.651-0.515-3.952-0.856c-1.845-0.483-3.737-0.785-5.629-1.021c-3.103-0.387-6.629-0.876-9.725-0.194
			c-0.973,0.214-1.756,0.732-2.66,1.118c-0.762,0.326-1.576,0.451-2.397,0.518c-4.119,0.332-8.384-0.353-12.476-0.717
			c-3.89-0.346-7.801-0.376-11.639,0.424c-3.894,0.812-7.636,2.22-11.556,2.921c-1.947,0.348-3.917,0.558-5.861,0.922
			c-1.681,0.315-3.264,0.96-4.933,1.306c-1.669,0.347-3.252,0.052-4.842-0.519c-3.418-1.227-6.518-3.204-10.012-4.247
			c-3.117-0.931-6.312-0.967-9.526-0.627c-4.168,0.442-8.275,1.377-12.378,2.207c-3.667,0.742-7.348,1.576-10.806,3.036
			c-6.648,2.808-12.196,8.096-16.283,13.962c-4.657,6.685-6.19,14.853-7.782,22.701c-0.443,2.184-1.135,4.272-0.102,6.331
			c0.819,1.632,1.744,3.22,2.366,4.943c0.518,1.434,0.717,2.915,0.877,4.424c0.308,2.892,0.723,5.911,2.335,8.405
			c1.319,2.041,3.392,3.516,4.537,5.673c1.959,3.689-0.244,8.242,2.028,11.828c0.769,1.213,1.837,2.201,2.66,3.376
			c0.74,1.057,1.296,2.226,1.747,3.432c1.177,3.144,1.325,5.928,0.941,9.197c-0.188,1.598-0.052,2.92,0.637,4.383
			c1.041,2.212,2.064,4.029,2.198,6.503c0.322,5.983-2.634,12.854,0.461,18.495c0.99,1.804,2.652,3.042,3.496,4.965
			c0.626,1.427,1.029,2.969,1.192,4.518c0.117,1.117-0.106,2.426,0.278,3.499c0.391,1.093,1.534,0.674,2.293,0.21
			c2.005-1.226,2.943-3.658,3.78-5.724c1.373-3.391,3.277-6.661,4.025-10.267c0.731-3.522,0.648-7.211,0.445-10.783
			c1.24,1.547,2.428,3.038,3.126,4.916c0.853,2.297,1.253,4.772,1.779,7.156c0.432,1.959,0.89,3.991,1.79,5.797
			c0.177,0.356,0.521,0.709,0.66,1.067c0.188,0.483,0.093,1.175,0.127,1.71c0.046,0.743,0.101,1.486,0.164,2.228
			c0.442,5.264,1.089,10.56,1.944,15.773c0.286,1.744,0.45,3.873,1.327,5.449c0.436,0.783,0.86,0.548,1.274-0.116
			c1.08-1.735,1.511-3.821,2.534-5.594c0.324-0.561,0.88-1.493,1.358-0.574c0.744,1.429,0.581,3.664,0.651,5.206
			c0.124,2.742,0.149,5.488,0.24,8.232c0.159,4.818,0.693,9.511,2.204,14.11c0.375,1.143,0.783,2.283,1.285,3.377
			c0.168,0.366,0.371,0.995,0.697,1.259c0.328,0.265,0.342,0.24,0.488-0.14c0.278-0.722,0.007-1.98-0.017-2.705
			c-0.004-0.124-0.137-1.302,0.093-1.329c0.246-0.029,0.666,1.48,0.707,1.6c0.858,2.496,1.565,5.041,2.419,7.538
			c0.312,0.912,0.626,1.838,1.067,2.698c0.262,0.51,0.63,0.97,0.834,1.507c0.548,1.437,0.277,3.314,0.167,4.793
			c-0.354,4.737-1.189,9.594-2.861,14.055c-1.757,4.689-4.68,8.555-7.782,12.421c-2.335,2.909-5.49,6.1-6.236,9.895
			c-0.718,3.652,1.042,7.446,1.698,10.981c0.467,2.516,0.734,5.172-1.262,7.085c-1.342,1.285-2.938,2.251-4.156,3.674
			c-1.031,1.203-1.882,2.585-2.54,4.025c-0.558,1.22-1.777,3.985,0.51,3.849c1.117-0.066,2.225-0.348,3.251,0.241
			c0.804,0.461,1.367,1.272,1.731,2.106c1.184,2.717-0.04,5.054-0.642,7.741c-0.169,0.753-0.23,1.513,0.107,2.228
			c0.488,1.035,1.566,1.678,2.024,2.725c0.664,1.518-0.481,3.035,0.7,4.459c1.699,2.049,4.26,3.072,4.12,6.089
			c-0.12,2.582-1.373,4.879-0.207,7.368c0.615,1.312,1.38,2.503,1.685,3.936c0.393,1.849,0.275,3.798,0.171,5.67
			c-0.286,5.141-0.684,10.059,0.74,15.08c0.726,2.56,1.728,5.036,2.413,7.608c0.593,2.227,0.713,4.476,0.86,6.766
			c0.088,1.377,0.191,2.798,0.74,4.082c0.559,1.309,1.544,2.361,2.212,3.606c1.476,2.748,0.206,5.45,0.375,8.333
			c0.113,1.935,1.372,3.402,2.996,4.35c3.471,2.028,7.988,2.039,11.888,2.085c2.954,0.034,5.911-0.073,8.864-0.136
			c1.954-0.042,4.014,0.067,5.935-0.364c1.72-0.385,2.581-1.465,2.374-3.226c-0.193-1.645-1.064-3.249-2.26-4.379
			c-1.988-1.88-4.57-2.065-7.168-2.369c-3.032-0.355-5.481-1.387-7.274-3.955c-1.505-2.155-2.125-4.577-1.859-7.176
			c0.142-1.395,0.363-2.75,0.12-4.142c-0.35-2.011-1.286-3.883-2.04-5.76c-0.829-2.063-1.453-4.165-1.661-6.385
			c-0.236-2.524-0.095-5.081-0.498-7.591c-0.357-2.22-1.12-4.354-1.242-6.613c-0.135-2.487,0.228-5,0.437-7.472
			c0.437-5.187-0.39-10.371,0.034-15.546c0.336-4.106,2.406-7.838,2.676-11.929c0.546,3.781,1.251,7.563,1.925,11.323
			c0.093,0.521,0.618,4.858,1.802,4.145c0.97-0.584,1.059-2.288,2.456-2.231c0.681,0.028,1.282,0.455,1.946,0.568
			c0.536,0.092,0.942-0.068,1.451-0.226c1.362-0.423,1.473,1.192,2.06,2.137c0.274,0.441,1.08,1.163,1.058,1.752
			c-0.023,0.594-0.896,0.765-1.329,0.948c-1.089,0.46-2.277,1.301-2.451,2.581c-0.182,1.342,1.949,1.075,2.821,1.445
			c1.295,0.548,2.699,1.545,3.439,2.758c0.795,1.303-0.275,2.339-1.002,3.397c-0.914,1.33-0.409,1.605,0.835,2.368
			c1.598,0.98,2.064,2.875,2.902,4.44c1.427,2.666,3.559,4.825,4.86,7.59c1.623,3.45,2.811,7.104,4.187,10.654
			c1.261,3.254,2.615,6.498,4.324,9.545c1.697,3.026,4.011,5.35,6.118,8.067c0.849,1.095,1.441,2.231,1.272,3.644
			c-0.194,1.619-0.911,3.112-0.708,4.77c0.127,1.039,0.514,2.156,1.271,2.909c1.072,1.066,2.508,0.677,3.874,0.623
			c1.846-0.072,3.037,0.955,4.525,1.932c1.702,1.118,3.523,1.585,5.548,1.727c3.619,0.254,7.319,0.05,10.946,0.025
			c1.643-0.012,4.07,0.104,5.392-1.108c1.775-1.627,0.51-4.683-0.797-6.198c-1.861-2.156-4.645-3.572-7.178-4.763
			c-2.16-1.016-4.655-1.535-6.601-2.958c-2.019-1.477-3.49-3.756-4.698-5.899c-1.56-2.769-2.371-5.439-2.771-8.567
			c-0.256-2.001-0.991-3.561-2.052-5.278c-1.957-3.168-3.768-6.324-5.314-9.718c-3.114-6.836-5.504-13.953-8.237-20.942
			c-2.598-6.643-6.116-13.426-7.069-20.578c-0.485-3.637-0.18-7.329-0.006-10.978c0.181-3.788,0.268-7.563,0.155-11.354
			c-0.228-7.689-0.807-15.32-0.409-23.013c0.046-0.884,0.099-1.767,0.154-2.651c0.024-0.385-0.03-0.913,0.11-1.275
			c0.17-0.437,0.61-0.919,0.864-1.312c0.962-1.487,1.909-2.983,2.877-4.466c0.146,0.526,0.416,1.597,1.136,1.241
			c0.426-0.211,0.734-0.929,0.946-1.318c0.72-1.316,1.297-2.716,1.924-4.077c1.106-2.403,2.48-4.487,3.983-6.655
			c0.829-1.196,1.472-2.443,1.843-3.855c0.715-2.718,0.71-5.773-0.308-8.413c-0.749-1.943-1.992-3.673-2.558-5.69
			c-0.49-1.746-0.496-3.604-0.339-5.396c0.429-4.897,1.944-9.573,4.607-13.71c1.42-2.206,3.048-4.293,4.796-6.247
			c1.072-1.198,2.346-2.83,3.87-3.494c0.853-0.372,1.038,0.218,1.059,0.985c0.051,1.823-0.295,3.631,0.142,5.433
			c0.307,1.265,0.968,2.455,1.851,3.408c0.487,0.526,1.393,1.439,2.205,1.331c0.812-0.108,0.92-1.219,1.019-1.86
			c0.347-2.234,0.551-4.423,1.392-6.542c0.6-1.511,1.885-4.331,3.953-4.066c0.862,0.11,1.586,0.784,2.173,1.372
			c1.385,1.388,2.348,3.457,3.976,4.567c0.83,0.566,1.21-0.099,1.571-0.82c0.544-1.088,0.998-2.326,2.078-3.006
			c1.885-1.186,4.657-0.484,6.545,0.24c2.814,1.079,5.173,2.874,6.329,5.706c0.392,0.961,0.633,1.976,1.023,2.937
			c0.366,0.901,0.893,1.72,1.38,2.558c1.466,2.525,2.517,5.261,3.651,7.944c0.48,1.135,0.964,2.276,1.538,3.367
			c0.214,0.408,0.561,1.292,1.021,1.505c0.884,0.41,0.884-1.786,0.926-2.242c0.086-0.94,0.017-2.022,0.287-2.941
			c0.116-0.395,0.144-0.567,0.5-0.282c0.427,0.342,0.652,1.356,0.832,1.826c0.56,1.467,1.081,2.948,1.645,4.414
			c0.29,0.754,3.627,8.826,4.911,7.6c0.267-0.255,0.201-0.987,0.203-1.305c0.005-1.284-0.171-2.575-0.294-3.851
			c-0.066-0.683-0.335-1.7-0.123-2.384c0.134-0.434,0.212-0.418,0.554-0.122c0.572,0.494,0.93,1.404,1.289,2.045
			c0.733,1.307,1.439,2.63,2.184,3.931c1.082,1.887,2.214,3.927,3.748,5.495c0.5,0.511,1.297,1.192,1.543,0.138
			c0.143-0.611,0.036-1.35-0.015-1.96c-0.087-1.038-0.517-2.352-0.332-3.385c0.084-0.47,0.14-0.388,0.408-0.001
			c0.612,0.881,0.946,2.056,1.346,3.043c1.091,2.693,2.23,5.379,3.224,8.11c1.117,3.068,1.982,6.24,2.951,9.357
			c0.323,1.039,0.649,2.075,1.03,3.094c0.153,0.41,0.476,1.76,0.937,1.986c0.723,0.354,0.614-2.841,0.624-3.214
			c0.062-2.375-0.085-4.985,0.588-7.295c0.303-1.039,0.716-0.977,1.069,0.005c0.897,2.49,1.173,5.237,1.759,7.807
			c0.388,1.7,0.773,3.571,1.77,5.04c1.512,2.227,3.071,4.385,4.46,6.7c1.456,2.427,2.723,4.932,4.014,7.448
			c0.211,0.411,1.061,2.537,1.795,1.894c0.301-0.264,0.366-0.979,0.434-1.339c0.215-1.142,0.289-2.316,0.357-3.474
			c0.175-2.933,0.152-5.873,0.289-8.807c0.015-0.322-0.02-3.387,0.789-2.834c0.414,0.283,0.678,1.352,0.832,1.755
			c0.574,1.497,1.068,3.026,1.595,4.54c0.166,0.479,1.187,4.29,1.98,4.235c0.718-0.05,0.25-4.737,0.244-5.099
			c-0.007-0.377-0.261-3.524,0.723-2.705c0.454,0.378,0.747,1.226,0.978,1.735c0.452,0.995,0.835,2.022,1.178,3.059
			c0.669,2.026,0.76,4.124,1.34,6.155c0.553,1.937,1.523,4.047,2.821,5.606c0.54,0.649,1.092,0.967,1.338-0.05
			c0.467-1.926,0.142-3.997,0.528-5.949c0.296-1.496,1.1-2.77,1.602-4.193c0.446-1.265,0.47-2.575,0.383-3.902
			c-0.077-1.18-0.483-2.507-0.358-3.677c0.047-0.442,0.026-0.503,0.359-0.16c0.576,0.594,0.883,1.691,1.231,2.43
			c0.636,1.352,1.262,2.709,1.922,4.049c1.1,2.234,2.212,4.567,3.695,6.579c0.39,0.53,1.17,1.527,1.305,0.341
			c0.085-0.743-0.057-1.548-0.14-2.282c-0.168-1.5-0.368-2.995-0.519-4.497c-0.231-2.304-0.617-4.927-0.238-7.231
			c0.063-0.383,0.062-0.687,0.406-0.39c0.531,0.46,0.774,2.061,0.975,2.645c0.604,1.754,1.231,3.547,2.304,5.079
			c0.965,1.378,2.352,2.392,3.317,3.76c0.303,0.43,0.515,0.894,0.701,1.384c0.099,0.262,0.296,1.257,0.674,1.392
			c0.858,0.307,1.977-2.299,2.227-2.787c0.632-1.23,1.201-2.503,1.383-3.884c0.179-1.36,0.007-2.737-0.251-4.075
			c-0.258-1.335-0.606-2.648-0.943-3.964c-0.151-0.588-0.63-1.653-0.489-2.276c0.544,0.318,0.964,1.839,1.207,2.349
			c0.694,1.459,1.369,2.928,2.114,4.362c0.198,0.382,1.615,3.569,2.258,2.512c0.275-0.451,0.156-1.377,0.145-1.866
			c-0.029-1.372-0.169-2.744-0.304-4.109c-0.307-3.096-0.711-6.187-0.931-9.292c-0.025-0.357-0.448-3.867,0.399-3.669
			c0.451,0.105,0.891,1.286,1.065,1.633c0.664,1.329,1.225,2.713,1.772,4.094c1.198,3.026,2.283,6.096,3.416,9.147
			c0.138,0.372,1.279,4.312,1.977,4.161c0.326-0.071,0.249-1.225,0.253-1.424c0.026-1.481-0.088-2.962-0.047-4.443
			c0.006-0.198-0.055-1.271,0.246-1.338c0.312-0.07,0.729,1.116,0.8,1.277c0.597,1.362,1.072,2.775,1.692,4.127
			c0.112,0.243,0.48,1.3,0.847,1.314c0.839,0.034,0.577-3.829,0.57-4.198c-0.045-2.523-0.497-5.097-0.301-7.614
			c0.071-0.909,0.318-1.748,0.877-2.478c0.885-1.156,2.155-1.969,2.935-3.216c0.588-0.941,0.764-1.997,0.792-3.091
			c0.009-0.367-0.304-2.295,0.006-2.454c0.247-0.126,0.694,0.947,0.767,1.098c1.267,2.585,2.282,5.305,3.361,7.972
			c1.207,2.984,2.382,5.957,3.39,9.015c0.306,0.928,0.678,3.201,1.683,3.782c0.238,0.137,0.466,0.177,0.693-0.023
			c0.839,1.767,1.626,3.458,1.941,5.403c0.19,1.175,0.271,2.364,0.438,3.542c0.045,0.319,0.06,1.015,0.289,1.285
			c0.675,0.794,0.88-1.282,1.449-1.219c0.603,0.067,0.462,4.104,0.519,4.612c0.13,1.162,0.361,2.316,1.003,3.311
			c0.722,1.12,1.836,1.9,2.685,2.912c0.94,1.122,1.433,2.5,2.185,3.739c0.36,0.592,0.788,1.19,1.422,0.584
			c0.416-0.398,0.992-2.177,1.693-1.681c0.328,0.232,0.446,1.024,0.552,1.369c0.323,1.054,0.628,2.094,1.091,3.097
			c0.928,2.013,2.178,3.843,2.865,5.966c0.776,2.398,1.072,4.855,1.171,7.36c0.227,5.753,0.315,11.505,0.406,17.261
			c0.08,5.058,0.066,10.122,0.004,15.181c-0.066,5.383-0.173,10.776-0.579,16.145c-0.191,2.519-0.663,4.973-0.972,7.475
			c-0.144,1.169-0.124,2.319,0.089,3.478c0.362,1.973,1.073,3.901,1.923,5.713c0.93,1.985,2.286,3.623,3.393,5.493
			c1.417,2.394,1.136,5.181,0.79,7.838c-0.311,2.389-0.841,4.77-0.971,7.179c-0.053,0.978-0.024,1.982,0.283,2.92
			c0.571,1.746,2.05,3.065,3.646,3.883c2.825,1.446,6.177,1.318,9.258,1.212c2.53-0.087,5.001-0.137,7.521-0.045
			c2.532,0.093,5.069-0.141,7.6-0.178c2.575-0.038,5.142,0.145,7.715,0.229c1.779,0.058,3.653,0.137,5.399-0.29
			c1.579-0.386,2.676-1.388,2.803-3.058c0.211-2.779-1.976-5.64-3.506-7.7c-1.542-2.078-3.584-2.933-6.072-3.461
			c-2.88-0.61-6.181-0.929-8.466-2.993c-2.076-1.876-2.988-4.704-3.544-7.362c-0.995-4.759-1.164-9.726-1.205-14.573
			c-0.048-5.607,0.308-11.184,0.666-16.776c0.317-4.956,0.025-9.84-0.316-14.785c-0.372-5.397-0.694-10.771-0.658-16.185
			c0.018-2.657,0.09-5.315,0.202-7.97c0.061-1.43,0.142-2.858,0.214-4.287c0.031-0.612,0.014-1.015,0.287-1.549
			c0.263-0.512,0.549-1.011,0.798-1.53c2.09-4.352,1.968-8.851,1.758-13.562c-0.117-2.626-0.003-5.15,0.213-7.768
			c0.208-2.523,0.09-5.062,0.292-7.589c0.415-5.179,1.537-10.279,2.26-15.418c0.185-1.316,0.369-2.632,0.527-3.952
			c0.164-1.375,0.156-2.848,0.433-4.201c0.228-1.119,0.954-2.313,1.43-3.354c0.53-1.16,1.175-2.247,1.802-3.354
			c1.799-3.176,2.103-6.49,2.136-10.098c0.014-1.506,0.01-3.014,0.048-4.519c0.017-0.693-0.041-1.537,0.179-2.209
			c0.345-1.058,0.973,0.157,1.251,0.66c1.191,2.155,2.03,4.495,3.118,6.702c0.228,0.462,0.485,1.216,0.892,1.578
			c0.301,0.268,0.319,0.313,0.473-0.061c0.237-0.578-0.039-1.676-0.077-2.252c-0.045-0.682-0.177-1.456-0.059-2.141
			c0.213-1.233,1.087,0.377,1.36,0.824c0.638,1.048,1.204,2.138,1.809,3.205c0.257,0.454,0.631,1.407,1.11,1.718
			c0.867,0.562,0.441-1.953,0.402-2.337c-0.486-4.76-1.409-9.709-0.687-14.496c0.076-0.505,0.218-2.064,1.012-1.923
			c0.804,0.142,1.574,2.094,1.847,2.619c1.184,2.286,2.301,4.602,3.553,6.853c0.945,1.698,1.897,3.609,3.247,5.033
			c0.561,0.592,0.972,0.67,1.11-0.205c0.309-1.963,0.019-4.051,0.159-6.039c0.157-2.233,0.479-4.471,0.984-6.651
			c0.123-0.531,0.56-3.333,1.381-3.452c0.735-0.107,1.042,2.258,1.123,2.63c0.509,2.354,0.846,4.841,1.817,7.065
			c0.241,0.553,0.755,1.884,1.476,1.954c0.755,0.074,1.024-1.317,1.175-1.815c0.735-2.422,1.401-4.837,2.333-7.195
			c0.66-1.67,1.351-3.832,2.637-5.158c1.631-1.68,1.13,3.734,1.904,3.887c0.748,0.148,2.074-3.493,2.255-3.857
			c0.688-1.382,1.419-2.854,2.524-3.96c1.915-1.917,4.806-2.142,6.716-4.141c1.341-1.404,2.334-3.127,3.734-4.471
			c0.607-0.583,1.193-0.957,1.865-0.297c0.59,0.58,0.967,1.667,1.964,1.279c1.382-0.538,2.47-2.457,3.332-3.528
			c0.659-0.819,1.38-1.878,2.374-2.338c0.762-0.353,1.638-0.254,2.414-0.593c2.882-1.259,5.24-4.478,6.658-7.156
			c1.009-1.906,1.561-3.976,2.323-5.982c0.388-1.021,0.842-1.881,1.686-2.594c1.08-0.912,1.853-1.709,2.441-3.015
			c0.842-1.874,1.321-3.925,2.322-5.726c0.479-0.861,1.025-1.368,2.005-1.541c0.878-0.154,1.594-0.274,2.324-0.816
			c1.456-1.081,2.315-2.817,2.654-4.563c0.515-2.652-0.044-5.766,1.647-8.069c1.464-1.994,4.07-3,4.623-5.599
			c0.325-1.53,0.25-3.117,0.663-4.634c0.35-1.286,1-2.474,1.753-3.566c2.323-3.372,5.933-5.558,7.844-9.238
			c0.563-1.084,0.993-2.228,1.127-3.447c0.14-1.281,0.042-2.541,0.626-3.725c1.389-2.814,4.31-4.524,5.707-7.356
			c1.267-2.569,1.489-5.783,3.653-7.841c0.86-0.818,1.982-1.462,2.477-2.591c0.505-1.154,0.424-2.533,0.524-3.753
			c0.226-2.754,1.81-4.418,3.143-6.758c1.381-2.426,1.152-4.487,0.881-7.184c-0.12-1.192-0.12-2.316,0.285-3.457
			c0.334-0.94,0.85-1.802,1.272-2.702c0.444-0.949,0.778-1.944,1.197-2.904c1.515-3.475,4.689-5.378,6.892-8.326
			c0.965-1.292,1.525-2.859,2.068-4.361c0.8-2.217,1.489-4.506,1.831-6.844c0.211-1.444,0.233-2.868-0.036-4.304
			c-0.229-1.223-0.709-2.468-0.633-3.732c0.079-1.295,0.786-2.473,1.254-3.649c0.476-1.197,0.681-2.405,0.745-3.691
			c0.11-2.237,0.187-4.346,0.476-6.567c0.289-2.22,0.036-4.445-0.138-6.665c-0.039-0.503-0.58-3.403,0.136-3.774
			c0.745-0.387,1.543,1.794,2.169,1.964c0.787,0.214,0.372-1.929,0.332-2.324c-0.233-2.336-0.541-4.645-0.235-6.988
			c0.205-1.566,0.609-3.116,0.475-4.706c-0.184-2.183-1.05-4.252-1.456-6.394c-0.199-1.051-0.273-2.101-0.104-3.16
			c0.237-1.489,0.963-2.909,0.958-4.432c-0.006-1.847-0.693-3.652-0.789-5.509c-0.12-2.314,0.036-4.649,0.33-6.945
			c0.045-0.348,0.058-1.556,0.306-1.731c0.235-0.167,1.393,0.048,1.718,0.051c1.027,0.011,2.053-0.029,3.075-0.136
			c2.184-0.229,4.338-0.709,6.466-1.241c5.384-1.346,10.738-2.811,16.117-4.177c4.758-1.208,9.613-2.04,14.538-1.843
			c3.837,0.154,7.831,1.234,11.642,0.313c2.136-0.516,4.255-1.647,5.671-3.357C646.447,215.095,647.084,213.172,647.084,211.397z"/>
	</g>
</g>
</svg>
