<?xml version="1.0" encoding="utf-8"?>
<!-- Generator: Adobe Illustrator 26.3.1, SVG Export Plug-In . SVG Version: 6.00 Build 0)  -->
<!DOCTYPE svg PUBLIC "-//W3C//DTD SVG 1.1//EN" "http://www.w3.org/Graphics/SVG/1.1/DTD/svg11.dtd" [
	<!ENTITY ns_extend "http://ns.adobe.com/Extensibility/1.0/">
	<!ENTITY ns_ai "http://ns.adobe.com/AdobeIllustrator/10.0/">
	<!ENTITY ns_graphs "http://ns.adobe.com/Graphs/1.0/">
	<!ENTITY ns_vars "http://ns.adobe.com/Variables/1.0/">
	<!ENTITY ns_imrep "http://ns.adobe.com/ImageReplacement/1.0/">
	<!ENTITY ns_sfw "http://ns.adobe.com/SaveForWeb/1.0/">
	<!ENTITY ns_custom "http://ns.adobe.com/GenericCustomNamespace/1.0/">
	<!ENTITY ns_adobe_xpath "http://ns.adobe.com/XPath/1.0/">
]>
<svg version="1.1" xmlns:x="&ns_extend;" xmlns:i="&ns_ai;" xmlns:graph="&ns_graphs;"
	 xmlns="http://www.w3.org/2000/svg" xmlns:xlink="http://www.w3.org/1999/xlink" x="0px" y="0px" width="750px" height="750px"
	 viewBox="0 0 750 750" enable-background="new 0 0 750 750" xml:space="preserve">
<metadata>
	<sfw  xmlns="&ns_sfw;">
		<slices></slices>
		<sliceSourceBounds  bottomLeftOrigin="true" height="7294.651" width="12540.125" x="-6919.125" y="100"></sliceSourceBounds>
	</sfw>
</metadata>
<g id="FILL-BACKGROUND">
	<rect fill="#FFFFFF" width="750" height="750"/>
</g>
<g id="N-TEXT">
</g>
<g id="N-DIMENSIONS">
</g>
<g id="AG-DIAGRAM">
	<g>
		<g>
			
				<line fill="none" stroke="#FB8604" stroke-width="3.25" stroke-linecap="round" stroke-linejoin="round" x1="148.448" y1="603.962" x2="150.448" y2="603.962"/>
			
				<line fill="none" stroke="#FB8604" stroke-width="3.25" stroke-linecap="round" stroke-linejoin="round" stroke-dasharray="4.0216,7.0378" x1="157.485" y1="603.962" x2="485.748" y2="603.962"/>
			
				<line fill="none" stroke="#FB8604" stroke-width="3.25" stroke-linecap="round" stroke-linejoin="round" x1="489.266" y1="603.962" x2="491.266" y2="603.962"/>
		</g>
	</g>
</g>
<g id="AG-GUIDES">
</g>
<g id="AG-DETAILS">
</g>
<g id="AG-DETAIL">
</g>
<g id="AG-PEOPLE">
</g>
<g id="AG-ANIMALS">
	<g id="POLYLINE_855_">
		
			<path fill="none" stroke="#FB8604" stroke-width="2.75" stroke-linecap="round" stroke-linejoin="round" stroke-miterlimit="10" d="
			M416.905,586.403c-2.81-1.743-5.862-3.653-7.728-6.453c-2.024-3.038-3.125-6.695-4.038-10.194
			c-1.022-3.914-1.746-7.904-2.356-11.9c-0.605-3.968-1.273-8-1.294-12.023c-0.021-3.893,0.427-7.817,1.044-11.657
			c0.264-1.643,0.508-3.376,1.111-4.937c0.131-0.339,0.352-1.034,0.806-0.893c0.409,0.128,0.768,1.473,0.862,0.434
			c0.175-1.918-0.189-4.008-0.311-5.917c-0.052-0.822-0.095-1.647-0.084-2.47c0.003-0.244-0.061-1.248,0.207-1.394
			c0.497-0.271,0.944,1.271,1.186,0.185c0.118-0.529,0.041-1.143,0.02-1.675c-0.079-1.986-0.281-3.966-0.397-5.95
			c-0.079-1.345-0.347-3,0.079-4.315c0.228-0.705,0.629-0.519,1.187-0.768c0.51-0.227,0.622-0.84,0.725-1.338
			c0.173-0.834,0.236-1.691,0.325-2.537c0.018-0.169,0.043-1.466,0.311-1.545c0.416-0.123,0.562,1.162,1.189,0.98
			c0.386-0.112,0.622-0.811,0.765-1.152c0.286-0.682,0.488-1.401,0.667-2.118"/>
	</g>
	<g id="POLYLINE_854_">
		
			<path fill="none" stroke="#FB8604" stroke-width="2.75" stroke-linecap="round" stroke-linejoin="round" stroke-miterlimit="10" d="
			M388.899,423.97c-0.628,2.449-1.091,4.894-1.42,7.401c-0.279,2.124-0.705,4.389-0.586,6.538c0.026,0.47,0.099,0.713,0.396,0.218
			c0.198-0.33,0.266-0.849,0.572-1.08c0.224,0.505-0.116,1.657-0.18,2.161c-0.156,1.235-0.324,2.47-0.468,3.707
			c-0.113,0.976-0.216,1.962-0.229,2.946c-0.005,0.37-0.061,0.96,0.113,1.302c0.38,0.746,0.979-0.393,1.356,0.186
			c0.233,0.357,0.007,1.352-0.037,1.72c-0.248,2.051-0.7,4.074-0.905,6.13c-0.054,0.538-0.107,1.093-0.06,1.635
			c0.069,0.785,0.354,0.797,0.935,1.181c0.9,0.596,0.086,2.858-0.096,3.627c-0.394,1.667-1.062,3.442-1.125,5.172
			c-0.008,0.221-0.051,0.609,0.175,0.74c0.282,0.164,0.604-0.217,0.869-0.188c0.564,0.062,0.067,1.089-0.067,1.457
			c-0.647,1.788-1.54,3.531-1.939,5.4c-0.079,0.372-0.162,0.78-0.091,1.158c0.126,0.677,0.736,0.891,1.074,1.425
			c0.643,1.014-0.161,2.799-0.485,3.788c-0.303,0.927-0.645,1.846-0.897,2.789c-0.124,0.463-0.329,1.086-0.191,1.565
			c0.167,0.579,0.761,0.847,0.888,1.482c0.111,0.553,0.04,1.16-0.016,1.715c-0.217,2.172-0.723,4.307-1.039,6.464
			c-0.149,1.016-0.289,2.062-0.129,3.085c0.22,1.412,0.666,2.682,0.71,4.132c0.133,4.3-0.348,8.621-0.507,12.915
			c-0.164,4.428-0.138,8.859,0.103,13.284c0.222,4.072,0.529,8.181,1.528,12.144c0.277,1.098,0.248,2.107,0.139,3.233
			c-0.191,1.965-0.374,3.912-0.3,5.889c0.15,3.975,1.185,8.121,0.608,12.089c-0.231,1.586-0.584,3.076-0.467,4.689
			c0.156,2.156,0.633,4.291,1.027,6.412c0.339,1.823,0.719,3.657,0.728,5.519c0.009,1.902-0.107,3.734,0.121,5.631
			c0.385,3.198,1.273,6.248,0.418,9.43c-0.615,2.286-1.88,5.091-1.037,7.502c0.49,1.401,1.707,2.396,3.082,2.873
			c3.084,1.071,6.715,0.213,9.885,0.175c4.346-0.052,8.677,0.358,13.026,0.231c2.13-0.062,4.258-0.171,6.387-0.258"/>
	</g>
	<g id="POLYLINE_853_">
		
			<path fill="none" stroke="#FB8604" stroke-width="2.75" stroke-linecap="round" stroke-linejoin="round" stroke-miterlimit="10" d="
			M537.062,237.211c-1.18,0.682-2.236,1.626-3.179,2.601c-0.403,0.416-2.225,2.218-0.907,2.32c0.693,0.053,1.104,0.006,0.501,0.739
			c-0.454,0.552-0.999,1.036-1.515,1.529c-0.695,0.664-1.407,1.317-2.059,2.024c-0.253,0.274-1.048,0.983-0.85,1.405
			c0.226,0.482,1.136,0.043,1.44,0.381c0.328,0.365-0.548,1.064-0.803,1.309c-0.678,0.653-1.402,1.258-2.075,1.917
			c-0.307,0.301-0.985,0.842-1.017,1.3c-0.044,0.622,0.893,0.591,0.96,1.208c0.051,0.469-0.39,1.014-0.641,1.379
			c-0.508,0.739-1.101,1.414-1.65,2.122c-0.135,0.173-0.294,0.354-0.4,0.548c-0.209,0.38-0.185,0.327,0.137,0.486
			c0.271,0.134,0.379,0.028,0.421,0.405c0.026,0.238-0.111,0.528-0.188,0.752c-0.285,0.832-0.684,1.63-1.043,2.431
			c-0.259,0.577-0.54,1.158-0.718,1.766c-0.054,0.186-0.208,0.584-0.083,0.779c0.171,0.266,0.452,0.075,0.684,0.176
			c0.807,0.351-0.768,3.03-0.956,3.564c-0.145,0.412-0.382,0.977-0.235,1.414c0.188,0.559,0.827,0.519,1.207,0.862
			c0.754,0.68-0.192,2.455-0.417,3.159c-0.114,0.357-0.301,0.826-0.219,1.204c0.119,0.546,0.7,0.774,0.796,1.366
			c0.186,1.154-0.263,2.37-0.295,3.524c-0.013,0.481,0.03,0.914,0.316,1.316c0.359,0.505,0.662,0.732,0.63,1.391
			c-0.053,1.093-0.716,2.233-0.42,3.331c0.244,0.905,0.792,1.58,0.878,2.555c0.113,1.276-0.152,2.551-0.059,3.826
			c0.079,1.082,0.738,2.034,0.768,3.108c0.033,1.183-0.693,2.246-0.731,3.431c-0.029,0.911,0.302,1.768,0.337,2.668
			c0.05,1.277-0.666,2.517-0.999,3.719c-0.262,0.946-0.167,1.914-0.369,2.865c-0.204,0.96-0.703,1.912-1.306,2.68
			c-0.536,0.684-0.987,0.843-1.81,1.009c-0.437,0.088-1.044,0.454-1.488,0.382c-0.387-0.062-0.206-0.222-0.404-0.464
			c-0.198-0.242-0.358-0.214-0.665-0.173c-0.586,0.078-1.144,0.312-1.735,0.379c-0.518,0.058-0.957,0.001-1.299-0.43
			c-0.305-0.385-0.339-1.016-0.701-1.343c-0.939-0.851-1.954,1.713-2.723,1.248c-0.692-0.418,0.764-2.844-0.29-3.047
			c-0.459-0.088-0.951,0.483-1.425,0.484c-0.63,0.001-0.777-0.702-0.958-1.192c-0.417-1.128-0.938-1.628-2.184-1.421
			c-0.733,0.122-2.34,0.858-2.912,0.039c-0.353-0.505-0.213-1.225-0.535-1.744c-0.298-0.482-0.839-0.497-1.356-0.486
			c-1.016,0.022-2.679,0.323-3.148-0.904c-0.411-1.075,0.166-2.183-1.386-2.298c-0.954-0.071-2.333,0.259-2.93-0.72
			c-0.641-1.052-0.561-1.966-1.994-2.174c-0.961-0.14-2.339,0.084-3.171-0.559c-0.953-0.736-0.634-2.313-1.689-2.982
			c-1.048-0.664-2.812-0.242-3.931-0.153c-1.105,0.088-2.425,0.232-2.207-1.251c0.073-0.491,0.366-1.226-0.074-1.623
			c-0.449-0.405-1.233-0.231-1.76-0.459c-1.112-0.482,0.196-1.972-1.24-2.309c-1.239-0.29-2.291-0.084-3.091-1.261
			c-0.723-1.064-1.192-1.866-2.51-2.185c-1.052-0.254-2.325-0.151-3.294-0.688c-0.496-0.275-0.728-0.763-1.073-1.187
			c-0.41-0.503-0.94-0.785-1.465-1.146c-0.133-0.091-0.472-0.255-0.49-0.43c-0.035-0.343,0.465-0.286,0.617-0.504
			c0.341-0.486-1.032-0.979-1.362-1.162c-0.312-0.174-1.087-0.506-1.016-0.938c0.085-0.516,1.187-0.535,1.187-1.074
			c0-0.368-0.876-0.7-1.145-0.834c-0.518-0.259-1.065-0.492-1.541-0.827c-0.481-0.338-0.739-0.681-0.642-1.278
			c0.081-0.497,0.405-0.97,0.171-1.474c-0.378-0.811-2.802-1.368-2.323-2.333c0.283-0.569,1.201-0.785,0.603-1.495
			c-0.341-0.405-0.943-0.639-1.424-0.836c-0.572-0.234-1.348-0.319-1.854-0.678c-0.609-0.432,0.39-0.59,0.761-0.79
			c0.668-0.361,0.482-0.685-0.08-1.061c-0.601-0.403-1.282-0.684-1.916-1.026c-0.325-0.175-0.992-0.425-0.676-0.793
			c0.185-0.216,0.63-0.094,0.555-0.464c-0.047-0.23-0.729-0.577-0.876-0.686c-0.382-0.284-0.876-0.612-0.677-1.138
			c0.141-0.375,0.907-0.743,0.731-1.19c-0.147-0.372-1.019-0.5-1.367-0.586c-0.866-0.215-1.754-0.339-2.616-0.571
			c-1.997-0.537,0.954-0.888,0.17-1.599c-0.478-0.434-1.312-0.458-1.864-0.788c-0.72-0.432-0.024-0.698,0.406-1.002
			c0.646-0.456,0.101-0.602-0.438-0.756c-0.549-0.157-1.286-0.229-1.777-0.556c-0.625-0.415-0.056-0.763,0.004-1.314
			c0.057-0.521-0.392-0.803-0.791-1.044c-0.557-0.337-1.169-0.568-1.745-0.866c-0.139-0.072-0.619-0.256-0.58-0.462
			c0.042-0.218,0.693-0.261,0.837-0.342c0.623-0.351-0.177-0.61-0.579-0.786c-0.868-0.38-1.773-0.67-2.65-1.028
			c-0.322-0.132-1.376-0.448-0.87-0.784c0.22-0.146,1.479-0.073,1.497-0.318c0.022-0.298-3.1-0.984-3.607-1.321
			c-0.589-0.392-0.375-0.721,0.067-1.135c0.194-0.182,0.562-0.356,0.358-0.602c-0.145-0.174-0.889-0.157-1.065-0.182
			c-0.419-0.061-1.051-0.106-1.306-0.496c-0.293-0.448,0.055-1.023-0.08-1.501c-0.254-0.899-2.017-0.771-2.7-0.926
			c-0.452-0.103-0.882-0.241-1.005-0.735c-0.113-0.453,0.258-1.143-0.243-1.406c-0.417-0.219-1.158,0.048-1.615,0.035
			c-0.56-0.016-1.014-0.185-1.344-0.658c-0.417-0.598-0.504-1.411-0.486-2.124c0.016-0.619,0.68-2.434-0.068-2.582
			c-0.506-0.1-1.068,0.439-1.585,0.275c-0.494-0.157-0.397-0.768-0.368-1.187c0.032-0.475,0.278-1.368-0.188-1.708
			c-0.481-0.352-0.985-0.102-1.381-0.678c-0.539-0.785-0.591-1.828-0.995-2.679c-0.502-1.057-1.876-0.861-1.992-2.085
			c-0.045-0.473,0.062-1.107-0.222-1.527c-0.316-0.467-1.048-0.408-1.316-0.911c-0.484-0.91,0.785-2.479-0.923-2.423
			c-0.404,0.013-1.318,0.303-1.689,0.007c-0.4-0.32-0.037-1.068,0.003-1.478c0.146-1.508-1.769-0.331-2.479-0.902
			c-0.409-0.329-0.127-1.066-0.117-1.5c0.015-0.666-0.288-0.917-0.91-1.089c-0.465-0.129-1.203-0.124-1.383-0.667
			c-0.154-0.463,0.138-1.006,0.006-1.491c-0.305-1.112-1.794-1.205-2.493-1.931c-0.549-0.57,0.22-0.936,0.654-1.274
			c0.534-0.417,0.427-0.597-0.211-0.718c-0.428-0.081-3.114-0.042-2.873-0.82c0.076-0.243,0.545-0.455,0.46-0.765
			c-0.065-0.238-0.506-0.316-0.703-0.367c-0.66-0.174-1.356-0.23-2.03-0.322c-0.224-0.031-1.312-0.059-1.463-0.32
			c-0.277-0.475,1.452-0.689,0.816-0.942c-0.627-0.249-1.698,0.035-2.376,0.02c-0.456-0.011-1.075,0.012-1.488-0.204
			c-0.671-0.351-0.148-0.774-0.122-1.304c0.033-0.658-0.916-0.329-1.372-0.287c-0.936,0.086-1.822,0.007-2.141-1.026
			c-0.144-0.466-0.165-0.975-0.185-1.459c-0.019-0.478,0.111-1.342-0.127-1.81c-0.402-0.791-2.061,0.95-2.903,0.681
			c-0.783-0.251-1.195-1.229-1.335-1.979c-0.073-0.39-0.069-0.778-0.013-1.169c0.057-0.396,0.411-1.184,0.069-1.529
			c-0.352-0.354-1.431-0.141-1.84-0.126c-0.416,0.016-0.955,0.082-1.35-0.084c-0.55-0.23-0.46-0.723-0.552-1.222
			c-0.111-0.604-0.454-0.811-1.035-0.921c-1.013-0.193-2.158,0.031-3.127-0.379c-1.165-0.492-0.598-2.125-2.043-2.128
			c-1.197-0.003-1.938-0.04-2.717-1.083c-0.677-0.907-1.168-2.254-2.188-2.863c-0.872-0.52-1.883-0.087-2.793,0.05
			c-1.544,0.232-1.44-1.061-2.099-2.075c-0.545-0.838-1.886-0.343-2.692-0.927c-0.821-0.594-1.497-1.715-2.587-1.833
			c-0.493-0.054-1.08,0.27-1.548,0.133c-0.545-0.16-0.476-0.877-0.622-1.326c-0.439-1.351-1.973-0.318-2.888-0.964
			c-0.955-0.673-0.566-2.573-2.077-2.472c-0.541,0.036-1.221,0.404-1.76,0.229c-0.547-0.178-0.603-0.883-0.965-1.263
			c-0.59-0.619-2.858-0.115-2.978-0.762c-0.081-0.437,0.762-0.937,0.281-1.316c-0.314-0.247-1.435-0.027-1.733-0.012
			c-1.026,0.05-2.224,0.096-2.355-1.19c-0.049-0.485,0.183-1.327-0.502-0.87c-0.336,0.225-0.905,0.974-1.391,0.823
			c-0.486-0.151-0.495-1.018-0.77-1.372c-0.373-0.478-0.787-0.161-1.182,0.143c-0.735,0.565-1.8,1.973-2.478,0.652
			c-0.225-0.438-0.359-1.152-0.936-0.733c-0.478,0.347-0.759,0.983-1.162,1.416c-0.366,0.393-0.768,0.73-1.288,0.422
			c-0.498-0.295-0.757-1.352-1.244-1.524c-0.408-0.144-0.397,0.936-0.495,1.282c-0.143,0.507-0.37,0.948-0.941,1.004
			c-1.115,0.11-2.033-0.878-3.075-1.025c-0.78-0.11-0.214,0.655-0.302,1.124c-0.103,0.549-0.663,0.516-1.125,0.495
			c-0.444-0.02-1.345-0.349-1.754-0.136c-0.594,0.31,0.609,0.834,0.588,1.237c-0.018,0.344-2.453,0.053-2.962,0.607
			c-0.39,0.424-0.339,1.183-0.761,1.554c-0.468,0.41-1.198-0.095-1.656-0.312c-0.539-0.255-1.033-0.513-0.936,0.29
			c0.055,0.449,0.378,1.194,0.106,1.633c-0.496,0.799-2.757-0.299-2.858,0.45c-0.068,0.506,0.754,1.01,0.757,1.557
			c0.003,0.549-0.601,0.629-1.041,0.704c-0.406,0.069-1.622-0.018-1.455,0.527c0.077,0.25,0.477,0.364,0.416,0.685
			c-0.047,0.247-0.406,0.373-0.606,0.461c-0.575,0.254-1.208,0.387-1.81,0.553c-0.348,0.096-1.496,0.269-0.873,0.619
			c0.583,0.328,1.411,0.14,2.003,0.453c0.336,0.178,0.338,0.21,0.009,0.425c-0.307,0.201-0.73,0.291-1.064,0.425
			c-0.929,0.373-2.214,0.975-2.132,2.172c0.062,0.898,1.468,1.743,0.315,2.354c-0.412,0.219-1.044,0.329-0.975,0.902
			c0.058,0.481,0.591,0.81,0.514,1.338c-0.075,0.52-0.652,0.756-0.864,1.195c-0.271,0.563,0.271,0.879,0.35,1.418
			c0.086,0.584-0.394,1.074-0.747,1.482c-0.295,0.342-1.131,0.984-0.35,1.088c0.427,0.057,1.189-0.222,1.408,0.311
			c0.18,0.436-0.293,1.262-0.427,1.641c-0.195,0.55-0.347,0.978,0.374,0.937c0.585-0.033,1.101-0.204,1.122,0.57
			c0.02,0.752-1.004,2.683,0.081,2.89c0.556,0.106,2.656-0.134,2.173,0.933c-0.273,0.603-1.123,0.904-1.348,1.517
			c-0.218,0.597,0.644,0.5,1.063,0.516c0.371,0.015,1.387-0.075,1.597,0.351c0.223,0.452-0.481,1.217-0.668,1.578
			c-0.795,1.535,1.579,0.627,2.232,1.051c0.901,0.585-2.036,2.044-0.544,2.656c0.512,0.21,1.148,0.083,1.64,0.317
			c0.716,0.341-0.25,0.709-0.275,1.237c-0.024,0.517,0.676,0.811,1.061,1.017c0.402,0.215,1.677,0.624,0.875,1.046
			c-0.497,0.261-1.099,0.349-0.258,0.625c0.769,0.252,1.577,0.377,2.353,0.606c0.296,0.088,1.092,0.246,1.053,0.629
			c-0.044,0.428-1.304,0.785-1.603,1.075c-0.924,0.894,1.197,1.934,1.741,2.358c0.352,0.275,0.841,0.595,0.38,0.978
			c-0.452,0.376-1.199,0.344-1.706,0.645c-1.317,0.782,1.105,1.881,0.906,2.813c-0.124,0.58-0.852,0.655-0.752,1.361
			c0.058,0.403,0.341,0.82,0.542,1.163c0.218,0.371,0.822,1.079,0.812,1.566c-0.012,0.598-0.742,0.442-1.169,0.507
			c-1.435,0.22,1.115,1.713,0.413,2.43c-0.479,0.489-1.019,0.233-0.716,1.112c0.165,0.481,0.52,0.979,0.059,1.394
			c-0.403,0.363-1.104,0.321-1.459,0.752c-0.334,0.406-0.112,0.956,0.08,1.375c0.239,0.521,1.718,2.328,0.517,2.402
			c-0.338,0.021-1.322-0.292-1.357,0.203c-0.028,0.401,0.91,1.24,1.104,1.467c0.485,0.568,2.123,2.173,0.776,2.635
			c-0.505,0.173-1.104,0.159-1.628,0.184c-0.228,0.011-1.388-0.064-1.581,0.212c-0.302,0.433,1.049,1.222,1.326,1.432
			c0.482,0.366,1.01,0.771,0.087,0.699c-0.728-0.057-2.734-0.582-3.12,0.395c-0.383,0.969,0.716,2.605,1.023,3.431
			c0.127,0.343,0.358,0.806-0.076,0.965c-0.411,0.15-1.098-0.206-1.541-0.225c-1.399-0.061-1.298,1.178-1.918,2.035
			c-0.324-0.747-0.123-1.793-0.331-2.606c-0.276-1.078-0.822-1.05-1.667-0.495c-0.331,0.217-0.714,0.629-0.848,0.104
			c-0.088-0.344,0.147-0.98,0.207-1.291c0.107-0.561,0.463-1.752,0.047-2.266c-0.396-0.488-1.277-0.142-1.77,0.014
			c-0.672,0.212-2.021,0.887-1.569-0.375c0.188-0.526,2.282-4.351,0.449-4.066c-0.497,0.077-2.027,1.101-2.252,0.56
			c-0.139-0.333,0.354-0.817,0.147-1.186c-0.169-0.302-0.597-0.254-0.893-0.235c-0.818,0.052-1.609,0.345-2.428,0.385
			c-1.16,0.057-0.451-0.951-0.29-1.647c0.16-0.692-0.021-1.225-0.467-1.768c-0.372-0.453-1.619-1.243-1.157-1.891
			c0.328-0.461,2.43-0.689,2.286-1.282c-0.122-0.501-1.984-0.887-2.336-1.048c-1.405-0.644,0.378-0.66,0.546-1.328
			c0.21-0.834-1.756-1.124-1.783-1.914c-0.026-0.749,1.608-0.637,1.329-1.519c-0.225-0.71-2.02-1.266-1.7-2.111
			c0.156-0.411,0.874-0.476,0.96-0.929c0.075-0.395-0.457-0.757-0.705-0.99c-0.264-0.248-0.763-0.594-0.714-1.005
			c0.051-0.425,0.626-0.605,0.717-1.02c0.203-0.929-1.32-1.447-1.579-2.205c-0.329-0.965,1.718-0.449,0.867-1.576
			c-0.275-0.364-0.543-0.591-0.423-1.065c0.108-0.428,0.387-0.583,0.113-1.012c-0.379-0.595-2.037-1.08-0.934-1.763
			c0.196-0.121,0.869-0.315,0.935-0.586c0.086-0.349-0.476-0.568-0.731-0.708c-0.434-0.237-1.802-0.697-1.983-1.294
			c-0.25-0.828,1.729-1.299,1.261-1.942c-0.445-0.611-1.816-0.402-2.437-0.844c-0.888-0.632,0.777-1.297,0.802-2.008
			c0.026-0.744-1.419-1.081-1.961-1.263c-0.348-0.117-2.523-0.586-2.234-1.233c0.285-0.639,2.278-0.72,2.185-1.562
			c-0.064-0.579-1.76-1.076-2.138-1.29c-0.952-0.539-0.625-0.866-0.025-1.544c0.766-0.867-0.355-1.313-0.978-1.849
			c-0.94-0.81-0.354-1.215,0.094-2.101c0.807-1.598-3.643-1.355-2.504-2.62c0.523-0.58,1.572-1.057,0.451-1.651
			c-0.672-0.356-1.443-0.493-2.113-0.851c-1.285-0.686,0.458-0.934,0.546-1.648c0.079-0.643-2.031-1.122-2.367-1.249
			c-0.623-0.235-1.833-0.604-1.794-1.429c0.034-0.728,0.989-1.471,1.427-1.94c0.218-0.233,0.708-0.629,0.493-0.966
			c-0.18-0.283-1.107-0.275-1.368-0.311c-0.578-0.079-1.35-0.14-1.77-0.595c-0.611-0.664-0.031-1.604-0.433-2.276
			c-0.366-0.611-1.595,0.055-2.184-0.045c-1.536-0.26-1.935-2.999-2.53-4.079c-0.42-0.763-1.024-1.424-1.964-1.29
			c-0.787,0.113-1.548,0.809-2.344,0.762c-0.884-0.051-0.652-1.454-0.672-2.053c-0.01-0.298,0.05-0.817-0.322-0.855
			c-0.35-0.035-0.894,0.571-1.203,0.73c-1.806,0.933-2.754-1.961-3.522-3.047c-0.773-1.095-1.117-0.035-1.491,0.759
			c-0.254,0.538-0.56,1.256-1.212,1.371c-1.472,0.258-2.741-1.913-4.201-1.201c-0.759,0.37-1.119,1.051-2.049,0.741
			c-0.974-0.324-1.804-1.102-2.652-1.641c-0.534-0.339-1.292-0.864-1.896-0.421c-0.747,0.548-0.775,1.703-1.661,2.152
			c-0.659,0.334-1.514,0.149-2.204,0.008c-0.572-0.118-1.892-0.653-2.508-0.299c-0.374,0.216-0.456,0.743-0.784,1.024
			c-0.312,0.267-0.729,0.355-1.124,0.422c-1.009,0.17-2.036,0.063-3.048,0.173c-0.523,0.057-0.565,0.172-0.077,0.427
			c0.465,0.243,1.069,0.356,1.489,0.677c0.465,0.356,0.056,0.358-0.359,0.38c-0.719,0.038-1.448-0.01-2.166-0.026
			c-0.392-0.008-2.611-0.268-2.816,0.237c-0.247,0.607,2.106,1.154,1.363,1.793c-0.556,0.478-2.184,0.271-2.845,0.283
			c-1.303,0.025-2.678-0.052-3.971,0.158c-1.398,0.228-0.049,0.916,0.504,1.339c0.428,0.327,0.467,0.488-0.095,0.605
			c-0.57,0.119-1.163,0.132-1.738,0.229c-1.103,0.187-2.169,0.562-3.063,1.25c-0.386,0.297-1.27,1.025-0.637,1.443
			c0.551,0.363,1.635,0.028,2.232,0.081c-0.313,0.307-1.076,0.379-1.471,0.506c-0.442,0.143-0.887,0.287-1.316,0.469
			c-0.593,0.252-1.224,0.569-0.394,1.019c0.653,0.354,1.581,0.632,0.773,1.399c-0.559,0.531-1.309,0.874-1.959,1.27
			c-1.302,0.794,0.444,0.149,0.734,0.669c0.248,0.444-0.869,1.678-1.054,1.992c-0.264,0.448-0.581,0.997-0.389,1.526
			c0.231,0.635,1.542,1.071,0.608,1.617c-0.644,0.376-1.427,0.472-2.076,0.842c-0.927,0.529-0.147,1.098,0.357,1.638
			c0.874,0.937,1.525,2.508,0.165,3.378c-0.646,0.413-1.519,0.529-2.261,0.639c-0.632,0.094-1.81,0.013-2.38,0.399
			c-0.707,0.479,0.929,1.179,1.188,1.635c0.385,0.676-0.622,0.879-1.123,1.019c-0.838,0.234-1.812,0.3-2.597,0.697
			c-1.002,0.508,0.313,0.95,0.32,1.631c0.007,0.674-1.122,1.098-1.629,1.339c-1.093,0.518-2.235,0.924-3.337,1.42
			c-0.646,0.291-1.337,0.601-1.856,1.096c-0.607,0.579-0.81,1.393-1.23,2.094c-0.767,1.279-2.036,2.252-3.149,3.208
			c-1.542,1.323-3.333,2.61-4.518,4.288c-0.644,0.912-0.761,1.966-1.204,2.968c-0.641,1.452-2.179,2.408-3.316,3.421
			c-1.062,0.947-1.676,1.946-2.361,3.187c-0.826,1.497-2.176,2.523-3.206,3.863c-0.802,1.044-1.192,2.211-1.389,3.502
			c-0.233,1.521-0.28,3.136-1.177,4.446c-0.422,0.616-0.953,1.149-1.339,1.792c-0.515,0.859-0.848,1.82-1.252,2.732
			c-0.944,2.132-2.284,4.061-3.303,6.156c-0.892,1.834-1.663,3.637-2.759,5.354c-0.754,1.181-0.927,2.674-1.155,4.027
			c-0.434,2.571-1.196,4.843-2.097,7.285c-0.313,0.85-0.621,1.717-0.799,2.607c-0.126,0.629-0.064,1.341-0.315,1.936
			c-0.632,1.502-2.851,1.321-3.336,3.041c-0.248,0.877-0.522,1.381-1.379,1.809c-0.612,0.306-1.288,0.483-1.956,0.614
			c-1.38,0.271-3.511,0.098-4.467,1.358c-0.463,0.611-0.751,1.042-1.523,1.251c-0.77,0.208-1.582,0.236-2.367,0.357
			c-1.281,0.197-2.288,1.081-3.534,1.277c-1.359,0.214-2.649-0.564-3.989-0.52c-0.898,0.03-0.516,0.918-1.086,1.389
			c-0.494,0.408-1.345,0.473-1.955,0.558c-1.035,0.143-2.09,0.167-3.118,0.354c-0.24,0.044-0.818,0.093-0.821,0.417
			c-0.002,0.231,0.546,0.562,0.685,0.69c0.73,0.671,0.12,0.903-0.617,1.073c-0.991,0.229-2.015,0.282-3.008,0.501
			c-0.196,0.043-0.726,0.097-0.702,0.354c0.02,0.213,0.777,0.462,0.907,0.546c0.844,0.541-0.657,0.603-1.074,0.644
			c-2.467,0.24-4.956,0.174-7.424,0.403c-0.468,0.043-1.885,0.136-0.866,0.606c0.539,0.249,1.723,0.376,2.131,0.883
			c0.462,0.575-0.983,0.814-1.39,0.911c-1.324,0.316-2.677,0.521-4.016,0.759c-0.399,0.071-2.223,0.174-2.417,0.601
			c-0.216,0.475,1.574,0.493,1.46,1.194c-0.096,0.589-1.626,1.137-2.072,1.345c-1.098,0.512-2.233,0.943-3.324,1.47
			c-0.176,0.085-0.871,0.338-0.891,0.551c-0.03,0.321,0.83,0.32,1.046,0.357c0.86,0.147,1.169,0.448,0.424,1.102
			c-1.602,1.407-3.685,2.34-5.489,3.448c-0.366,0.225-0.745,0.449-1.083,0.717c-0.371,0.293-0.577,0.472-0.06,0.616
			c0.27,0.075,0.782-0.081,1.028,0.093c0.394,0.279-0.083,0.633-0.349,0.88c-0.823,0.763-1.788,1.391-2.692,2.051
			c-0.763,0.557-1.717,1.104-2.319,1.847c-0.705,0.871,0.824,0.437,1.022,1.073c0.175,0.562-0.777,1.541-1.094,1.936
			c-0.681,0.851-1.466,1.636-2.085,2.534c-0.706,1.024,0.216,0.573,0.877,0.64c0.806,0.081,0.233,0.929-0.019,1.375
			c-0.4,0.708-1.124,1.466-1.328,2.27c-0.257,1.012,1.384-0.387,0.981,0.767c-0.327,0.936-1.042,1.773-1.526,2.629
			c-0.248,0.439-0.938,1.43-0.495,1.892c0.506,0.529,1.567-0.041,1.28,1.095c-0.193,0.764-0.68,1.48-1.033,2.17
			c-0.227,0.444-0.794,1.263-0.17,1.52c0.388,0.16,0.714-0.044,0.864,0.463c0.083,0.278-0.03,0.651-0.092,0.926
			c-0.226,1.002-0.633,1.966-0.981,2.928c-0.101,0.278-0.819,1.864-0.323,1.953c0.461,0.082,1.6-1.378,1.094-0.037
			c-0.29,0.767-0.712,1.492-0.928,2.287c-0.071,0.261-0.172,0.58-0.033,0.836c0.167,0.308,0.58,0.344,0.726,0.689
			c0.254,0.6-0.156,1.638-0.32,2.213c-0.262,0.917-0.609,1.836-0.752,2.782c-0.049,0.326-0.082,0.654,0.043,0.967
			c0.145,0.361,0.458,0.597,0.541,0.993c0.145,0.694-0.171,1.572-0.35,2.23c-0.26,0.956-0.696,1.996-0.741,3.001
			c-0.048,1.065,0.848,0.387,1.41,0.15c0.936-0.394,0.624,0.539,0.436,1.133c-0.36,1.139-0.844,2.236-1.193,3.379
			c-0.158,0.519-0.452,1.286-0.271,1.832c0.235,0.709,1.198,0.631,1.403,1.405c0.137,0.52-0.018,1.178-0.122,1.689
			c-0.255,1.251-0.658,2.474-1.019,3.697c-0.185,0.627-0.607,1.557-0.497,2.229c0.142,0.867,1.121-0.281,1.242,0.695
			c0.116,0.934-0.374,2.134-0.585,3.012c-0.108,0.449-0.676,1.94-0.349,2.379c0.415,0.558,1.23-0.716,1.496,0.256
			c0.185,0.678-0.082,1.634-0.18,2.299c-0.137,0.93-0.377,1.917-0.339,2.865c0.047,1.182,0.631,0.353,1.308,0.558
			c0.611,0.185,0.452,1.477,0.439,1.972c-0.026,0.994-0.187,2.037-0.047,3.029c0.156,1.111,0.686,0.501,1.417,0.42
			c0.75-0.083,0.719,0.829,0.734,1.384c0.031,1.144-0.092,2.292-0.147,3.433c-0.026,0.543-0.197,1.578,0.104,2.083
			c0.653,1.096,2.42-2.405,2.79,0.296c0.282,2.066-0.2,4.171,0.037,6.231c0.143,1.245,0.669-0.332,1.073-0.555
			c0.622-0.343,0.655,1.267,0.697,1.657c0.104,0.966,0.014,2.272,0.423,3.191c0.415,0.934,1.12-0.645,1.353-1.03
			c0.222-0.367,0.702-1.379,1.22-1.389c0.6-0.011,0.925,1.208,1.083,1.65c0.229,0.64,0.448,2.013,1.017,2.522
			c0.664,0.596,1.045-0.748,1.168-1.227c0.299-1.167,0.323-2.447,0.07-3.624c-0.133-0.619-0.354-1.216-0.62-1.791
			c-0.164-0.355-1.531-2.306-1.336-2.563c0.266-0.351,1.742,0.968,2.177,0.874c0.543-0.118-0.471-1.473-0.632-1.733
			c-0.275-0.442-1.151-1.479-1.089-2.081c0.075-0.73,1.07-0.037,1.494-0.289c0.811-0.482-1.742-4.099-2.008-4.695
			c-0.109-0.245-0.355-0.687-0.257-0.968c0.137-0.393,0.607-0.311,0.94-0.371c0.821-0.149,0.724-0.784,0.541-1.463
			c-0.586-2.174-1.752-4.161-2.38-6.329c-0.525-1.81-0.657-3.684-0.541-5.56c0.067-1.091,0.228-2.173,0.295-3.263
			c0.067-1.085-0.013-2.173,0.076-3.257c0.158-1.925,0.68-3.862,1.386-5.656"/>
	</g>
	<g id="POLYLINE_852_">
		
			<path fill="none" stroke="#FB8604" stroke-width="2.75" stroke-linecap="round" stroke-linejoin="round" stroke-miterlimit="10" d="
			M203.598,380.006c1.266-0.707,2.776-1.003,4.209-1.097c1.353-0.089,3.529-0.156,3.943,1.47c0.235,0.922,0.457,1.347,1.433,1.612
			c0.945,0.256,1.933,0.314,2.881,0.558c1.832,0.473,2.07,1.552,2.907,3.011c0.522,0.91,1.356,1.014,2.296,1.248
			c0.853,0.213,1.358,0.62,1.855,1.334c0.491,0.706,0.939,1.359,1.594,1.927c1.014,0.88,2.119,1.63,3.077,2.578
			c1.248,1.235,2.01,2.808,3.644,3.598c2.357,1.14,4.972,1.655,7.359,2.729c0.544,0.245,1.094,0.515,1.567,0.885
			c0.817,0.638,1.063,1.452,1.497,2.336c0.949,1.932,3.718,2.755,5.48,3.649c0.701,0.355,1.604,0.734,2.155,1.326
			c0.526,0.566,0.182,1.496,0.508,2.217c0.89,1.969,2.912,2.428,4.565,3.526c0.754,0.5,1.176,1.073,1.397,1.942
			c0.226,0.891,0.473,1.522,1.381,1.889c1.441,0.583,3.483,0.371,4.633,1.551c0.644,0.661,0.893,1.362,1.885,1.558
			c1.029,0.203,2.118,0.091,3.158,0.108c1.568,0.025,2.824,0.286,3.955,1.433c0.919,0.932,1.747,1.685,3.074,1.938
			c2.339,0.447,4.753,0.018,7.107,0.292c1.218,0.142,2.169,0.591,2.983,1.526c0.871,1.001,1.64,1.792,2.929,2.217
			c2.27,0.748,4.773,0.775,7.137,0.872c2.851,0.116,5.575,0.322,8.366,0.947c2.121,0.475,4.398,1.131,6.592,0.937
			c0.768-0.068,1.487-0.388,2.25-0.453c0.86-0.074,1.622,0.367,2.365,0.739c1.219,0.61,2.361,1.025,3.733,1.062
			c2.539,0.068,5.039-0.605,7.581-0.6c1.131,0.002,2.256,0.118,3.357,0.379c1.089,0.259,2.153,0.657,3.263,0.824
			c1.551,0.234,2.515-0.536,3.881-1.126c1.577-0.681,3.384-0.521,5.047-0.804c1.161-0.198,3.907-1.453,4.229,0.414
			c0.132,0.763,0.08,1.639,1.095,1.552c0.793-0.067,1.596-0.485,2.311-0.8c1.666-0.734,3.517-1.817,5.404-1.766
			c1.274,0.034,2.47,0.804,3.752,0.532c1.351-0.286,2.669-1.682,4.107-1.434c0.911,0.157,1.49,1.168,2.456,1.143
			c0.744-0.019,1.44-0.644,1.981-1.096c1.199-1.001,2.562-2.719,4.207-3.053c1.723-0.35,2.452,1.668,3.784,2.269
			c0.784,0.354,1.386-0.309,1.871-0.856c0.615-0.694,1.164-1.489,1.918-2.048c1.428-1.058,3.028-0.255,4.424,0.433
			c0.636,0.313,1.537,0.909,2.291,0.75c0.742-0.156,1.294-0.948,1.948-1.312c1.76-0.98,3.952-1.309,5.929-1.472"/>
	</g>
	<g id="POLYLINE_851_">
		
			<path fill="none" stroke="#FB8604" stroke-width="2.75" stroke-linecap="round" stroke-linejoin="round" stroke-miterlimit="10" d="
			M627.484,251.438c3.061,1.601,6.444,2.668,9.922,2.648c3.608-0.02,7.2-1.018,10.581-2.209c2.704-0.952,5.684-2.17,7.77-4.207
			c0.624-0.61,1.224-1.386,1.215-2.3c-0.012-1.195-0.965-2.181-2.032-2.585c-1.017-0.385-2.15-0.393-3.218-0.464
			c-1.878-0.125-3.694-0.503-5.531-0.893c-0.413-0.088-0.826-0.172-1.239-0.256"/>
	</g>
	<g id="POLYLINE_850_">
		
			<path fill="none" stroke="#FB8604" stroke-width="2.75" stroke-linecap="round" stroke-linejoin="round" stroke-miterlimit="10" d="
			M620.931,264.363c0.812-0.486,1.432-0.91,1.94-1.744c0.298-0.489,0.518-1.046,0.864-1.504c0.552-0.73,0.378,0.15,0.658,0.486
			c0.297,0.357,0.479-0.09,0.664-0.398c0.368-0.611,0.665-1.264,1.024-1.881c0.415-0.714,1.03-1.697,1.528-0.488
			c0.077,0.186,0.28,1.289,0.534,1.324c0.249,0.035,0.415-0.8,0.463-0.975c0.23-0.825,0.365-2.631,1.071-3.281
			c0.759-0.698,1.262,1.295,1.922,1.462c1.006,0.254,1.07-1.977,1.89-1.859c0.49,0.071,0.491,0.957,1.111,0.928
			c0.446-0.021,0.856-0.569,1.101-0.885c0.345-0.445,0.641-0.951,0.834-1.48"/>
	</g>
	<g id="POLYLINE_849_">
		
			<path fill="none" stroke="#FB8604" stroke-width="2.75" stroke-linecap="round" stroke-linejoin="round" stroke-miterlimit="10" d="
			M636.247,222.292c5.119-0.601,10.242-0.01,14.922,2.176c0.9,0.42,3.499,1.879,3.008-0.285c-0.341-1.504-1.382-2.922-2.428-4.008
			c-0.902-0.937-1.944-1.738-3.176-2.181c-0.766-0.275-1.566-0.439-2.296-0.808c-0.772-0.39-1.46-0.938-2.153-1.45
			c-3.715-2.744-7.977-4.045-12.598-3.302c-2.497,0.401-4.96,0.988-7.462,1.371c-2.929,0.449-5.865,0.863-8.785,1.367
			c-2.554,0.44-5.12,1.027-7.721,1.091c-2.591,0.064-5.1-0.585-7.555-1.353c-2.456-0.769-4.823-1.76-7.26-2.564
			c-0.874-0.288-1.764-0.397-2.682-0.304c-2.946,0.299-5.745,1.974-7.525,4.308c-1.203,1.577-2.051,3.449-3.465,4.861
			c-1.245,1.243-2.937,1.883-4.268,3.018c-1.055,0.899-1.728,2.045-2.289,3.3c-0.441,0.986-0.763,2.042-1.283,2.989
			c-0.17,0.309-0.352,0.698-0.746,0.586c-0.372-0.106-0.466-0.779-0.93-0.727c-1.182,0.131-1.221,3.894-2.565,3.36
			c-0.42-0.167-0.484-0.386-0.915-0.059c-0.257,0.196-0.464,0.515-0.653,0.771c-0.505,0.682-0.955,1.51-1.628,2.053
			c-0.634,0.512-1.125,0.226-1.847,0.267c-0.921,0.053-1.342,1.131-1.801,1.791c-0.218,0.313-0.447,0.66-0.818,0.802
			c-0.377,0.144-0.798,0.026-1.174,0.192c-0.847,0.373-1.352,1.525-1.469,2.381c-0.095,0.694,0.057,1.433-0.501,1.965
			c-0.628,0.599-1.669,0.805-2.439,1.134c-0.647,0.276-1.344,0.785-2.029,0.362c-0.619-0.383-0.969-1.149-1.733-0.553
			c-0.404,0.315-1.494,2.217-1.861,1.308c-0.192-0.476,0.065-2.085-0.705-2.135c-0.585-0.038-1.447,1.047-1.836,1.333
			c-1.008,0.74-0.957-0.396-1.049-1.174c-0.066-0.561-0.128-1.346-0.789-1.49c-0.699-0.153-1.667,0.427-2.267,0.696
			c-0.437,0.196-1.528,0.873-1.76,0.18c-0.206-0.614,0.474-1.52,0.063-2.1c-0.403-0.568-1.679-0.01-2.178,0.073
			c-0.867,0.145-0.82-0.288-0.527-0.952c0.303-0.684,0.792-1.428,0.869-2.197c0.086-0.867-0.631-1.142-1.364-1.293
			c-0.826-0.17-1.68-0.151-2.504-0.322c-0.846-0.175-0.993-0.57-0.577-1.301c0.716-1.259,1.942-2.444,1.086-3.956
			c-0.373-0.658-1.029-1.136-1.371-1.803c-0.471-0.915,0.977-1.149,1.582-1.377c0.714-0.269,1.305-0.574,1.624-1.306
			c0.359-0.824,0.434-1.547,1.263-2.052c1.398-0.852,3.142-1.002,4.635-1.655c1.156-0.506,2.224-1.008,3.505-0.984
			c2.023,0.039,3.469,1.034,4.779,2.502c1.344,1.505,2.725,2.579,4.444,3.64"/>
	</g>
	<g id="POLYLINE_848_">
		
			<path fill="none" stroke="#FB8604" stroke-width="2.75" stroke-linecap="round" stroke-linejoin="round" stroke-miterlimit="10" d="
			M545.817,222.335c1.361-0.459,2.913-1.071,4.032-1.999c0.637-0.529,0.286-0.735-0.384-0.817c-0.41-0.05-1.668-0.007-0.797-0.468
			c1.175-0.621,3.262-0.988,4.042-2.207c0.721-1.127-1.92-2.35-0.295-2.912c1.426-0.493,3.035-0.314,4.441-0.891
			c1.265-0.519,0.468-1.935,1.655-2.518c1.003-0.493,2.221-0.46,3.195-1.009c0.626-0.353,0.444-0.769,0.591-1.367
			c0.118-0.479,0.499-0.741,0.902-0.982c0.925-0.552,2.239-0.907,2.817-1.903c0.298-0.513,0.315-1.206,0.744-1.641
			c0.332-0.337,0.838-0.425,1.287-0.497c1.138-0.181,2.713-0.012,3.666-0.813c0.539-0.453,0.727-1.177,1.233-1.652
			c0.382-0.359,0.88-0.461,1.387-0.501c1.317-0.103,2.64,0.155,3.957-0.005c1.281-0.156,2.468-0.689,3.729-0.923
			c1.031-0.192,1.882,0.124,2.864,0.406c1.026,0.295,2.335,0.025,3.1,0.908c0.898,1.038,1.136,2.596,1.706,3.809
			c0.307,0.654,0.698,1.237,1.199,1.758c0.78,0.812,1.731,1.456,2.387,2.384c0.53,0.75,0.879,1.621,1.135,2.497
			c0.209,0.716,0.354,1.45,0.454,2.188"/>
	</g>
	<g id="POLYLINE_847_">
		
			<path fill="none" stroke="#FB8604" stroke-width="2.75" stroke-linecap="round" stroke-linejoin="round" stroke-miterlimit="10" d="
			M626.953,239.453c3.275,1.292,6.608,2.176,10.145,2.247c3.963,0.079,7.949-0.486,11.859-1.075
			c2.025-0.305,4.043-0.636,6.052-1.036c1.36-0.271,2.78-0.526,4.045-1.119c2.31-1.083,1.585-3.084,0.789-4.966
			c-1.173-2.774-2.503-5.55-4.884-7.484c-0.301-0.244-0.612-0.475-0.923-0.707"/>
	</g>
	<g id="POLYLINE_846_">
		
			<path fill="none" stroke="#FB8604" stroke-width="2.75" stroke-linecap="round" stroke-linejoin="round" stroke-miterlimit="10" d="
			M157.206,300.125c-3.406,5.073-7.444,9.501-12.015,13.551c-2.192,1.942-4.582,3.597-6.845,5.446
			c-1.623,1.325-2.876,2.869-3.737,4.788c-1.152,2.566-1.725,5.38-2.169,8.143c-0.478,2.978-0.784,5.99-1,8.998
			c-0.427,5.944-0.604,12.075,0.439,17.967c0.491,2.776,1.438,5.388,2.485,7.994c1.028,2.56,1.836,5.063,2.305,7.788
			c1.151,6.684,2.351,13.347,3.617,20.012c0.999,5.262,1.743,10.53,2.25,15.862c0.66,6.949,1.386,13.86,2.287,20.781
			c0.775,5.951,1.422,11.924,1.644,17.925c0.227,6.14-0.031,12.324-1.047,18.39c-0.486,2.903-1.252,5.72-2.085,8.539
			c-0.897,3.036-1.579,5.968-1.992,9.109c-0.268,2.04-0.865,3.438-1.838,5.222c-0.582,1.066-0.776,2.049-0.713,3.263
			c0.085,1.624,0.153,2.93-0.539,4.426c-0.778,1.679-1.659,3.153-0.895,5.021c0.901,2.201,2.808,3.948,4.357,5.684
			c1.686,1.89,2.977,4.005,4.141,6.247c2.916,5.614,5.543,11.447,9.212,16.628c1.727,2.438,3.603,4.769,5.148,7.332
			c1.377,2.286,2.578,4.67,3.803,7.04c3.062,5.918,6.439,11.752,8.704,18.038c2.173,6.032,3.978,12.185,6.273,18.175
			c1.238,3.232,2.541,6.441,3.813,9.66c0.95,2.407,1.743,5.007,2.984,7.28c1.833,3.358,5.632,4.121,9.177,4.395
			c3.084,0.238,6.182,0.044,9.268-0.022c3.328-0.07,6.649,0.031,9.976,0.116c2.83,0.072,5.613,0.073,8.428-0.277
			c1.498-0.186,4.735-0.411,5.012-2.387c0.106-0.754-0.141-1.559-0.333-2.279c-0.39-1.458-0.763-2.937-1.319-4.342
			c-0.821-2.075-2.214-3.955-3.72-5.585c-2.618-2.834-6.751-2.406-10.063-3.935c-2.022-0.934-3.751-2.14-5.961-2.59
			c-1.862-0.379-3.707-0.631-5.191-1.908c-1.81-1.557-2.984-3.737-4.598-5.483c-1.895-2.049-4.127-3.803-5.734-6.108
			c-1.328-1.906-2.208-4.07-3.08-6.211c-1.473-3.613-2.945-7.226-4.418-10.839c-2.288-5.613-4.743-11.198-6.44-17.028
			c-1.6-5.499-1.923-10.968-1.637-16.662c0.161-3.202,0.354-6.402,0.284-9.609c-0.073-3.322-0.455-6.624-0.772-9.928
			c-0.559-5.832-1.126-11.689,0.275-17.452c1.409-5.793,4.437-11.012,6.091-16.723c0.813-2.804,1.142-5.644,1.15-8.558
			c0.008-2.886-0.385-5.868,0.081-8.732c0.385-2.372,1.55-4.622,2.726-6.69c1.352-2.376,3.302-4.284,4.762-6.58
			c1.642-2.584,2.786-5.459,4.271-8.132c1.366-2.459,3.122-4.549,4.924-6.693c1.316-1.566,2.456-3.175,3.063-5.145
			c0.884-2.868,1.181-6,1.566-8.969c0.784-6.042-0.117-12.002-0.341-18.047c-0.097-2.606-0.071-5.277,0.53-7.828
			c0.662-2.814,2.059-5.347,3.313-7.927c2.476-5.094,2.775-10.791,3.974-16.247c0.678-3.085,1.473-6.182,1.833-9.325
			c0.277-2.418,0.06-4.712-0.525-7.069c-0.671-2.703-1.267-5.333-1.412-8.123c-0.152-2.939-0.004-5.883,0.252-8.812"/>
	</g>
	<g id="POLYLINE_845_">
		
			<path fill="none" stroke="#FB8604" stroke-width="2.75" stroke-linecap="round" stroke-linejoin="round" stroke-miterlimit="10" d="
			M391.198,364.953c-0.288,3.381-0.53,6.768-0.923,10.138c-0.374,3.208-1.055,6.375-1.385,9.588
			c-0.331,3.222,0.142,6.303,0.371,9.509c0.069,0.96,0.092,1.928-0.037,2.884c-0.169,1.255-0.606,2.457-0.77,3.712
			c-0.224,1.722,0.438,3.245,1.024,4.835c0.817,2.218,0.783,4.259,0.68,6.609c-0.115,2.616-0.003,5.31,0.706,7.845
			c0.67,2.396,2.204,4.216,3.464,6.312c1.188,1.978,1.642,4.092,1.643,6.38c0,1.061-0.051,2.147,0.159,3.194
			c0.187,0.928,0.603,1.787,0.968,2.654c0.996,2.364,1.313,4.871,1.411,7.42c0.117,3.037-0.493,6.097-0.22,9.117
			c0.234,2.584,1.319,5.146,2.743,7.293c0.527,0.795,1.073,1.549,1.385,2.458c0.428,1.245,0.577,2.577,0.856,3.859
			c0.583,2.675,1.913,4.868,3.453,7.095c1.437,2.078,2.818,4.334,3.31,6.846c0.553,2.827,0.408,5.894,0.278,8.758
			c-0.058,1.271-0.269,2.552-0.217,3.824c0.04,0.976,0.414,1.809,0.779,2.701c1.027,2.51,1.642,5.42,1.424,8.138
			c-0.079,0.989-0.32,2.012-0.053,2.993c0.224,0.822,0.683,1.558,0.913,2.38c0.56,2.003,0.205,4.06-0.049,6.076
			c-0.258,2.053,0.56,3.932,0.879,5.942c0.425,2.681,1.356,5.255,1.422,7.986c0.072,2.972-0.307,5.912-0.556,8.864
			c-0.142,1.681,0.578,3.129,0.698,4.777c0.186,2.54-0.617,5.159-1.213,7.597c-0.636,2.597-1.43,5.273-1.336,7.975
			c0.091,2.587,1.338,4.882,1.869,7.376c0.699,3.28,0.797,6.739,1.114,10.067c0.281,2.956,0.819,5.902,0.953,8.869
			c0.085,1.888-0.165,3.624-1.016,5.323c-0.87,1.738-2.167,3.387-2.025,5.432c0.23,3.32,3.225,5.065,6.15,5.676
			c2.762,0.577,5.639,0.553,8.446,0.494c3.275-0.069,6.546-0.141,9.822-0.145c3.722-0.005,7.455,0.08,11.175-0.053
			c2.393-0.085,5.075-0.141,7.298-1.147c1.643-0.744,2.133-2.198,2.023-3.903c-0.162-2.515-0.431-5.415-1.413-7.763
			c-0.37-0.885-0.905-1.711-1.67-2.305c-1.347-1.045-3.144-1.109-4.764-1.324c-1.851-0.245-3.472-0.702-4.928-1.912
			c-1.039-0.864-1.921-1.904-2.827-2.901c-1.018-1.119-2.106-2.152-3.209-3.185c-1.846-1.729-3.749-3.456-4.951-5.717
			c-1.272-2.391-1.822-5.085-2.59-7.659c-0.912-3.057-1.726-6.063-2.102-9.24c-0.373-3.15-0.516-6.337-0.432-9.507
			c0.081-3.071,0.438-6.101,1.215-9.076c0.763-2.925,1.863-5.773,2.351-8.766c0.267-1.637,0.022-3.523,0.825-5.035
			c0.861-1.622,2.696-2.394,3.84-3.77c0.785-0.945,0.855-1.883,0.868-3.049c0.011-0.991,0.365-1.525,1.133-2.127
			c0.826-0.648,1.411-1.145,1.32-2.27c-0.073-0.905-0.308-1.781-0.323-2.694c-0.012-0.745,0.07-1.469,0.388-2.152
			c0.401-0.86,0.595-1.439,0.446-2.392c-0.141-0.907-0.379-1.791-0.193-2.709c0.166-0.819,0.542-1.574,0.554-2.423
			c0.031-2.204-1.278-4.271-1.755-6.38c-0.165-0.727-0.251-1.463-0.248-2.208c0.006-1.465,0.011-2.901-0.038-4.367
			c-0.026-0.787,0.042-1.494,0.404-2.206c0.395-0.776,0.711-1.436,0.835-2.31c0.216-1.521,0.209-2.991,1.187-4.246
			c0.407-0.522,0.919-0.959,1.271-1.524c0.513-0.823,0.622-1.808,0.983-2.694c0.282-0.692,0.787-1.241,1.133-1.898
			c0.48-0.912,0.645-1.947,1.019-2.9c0.34-0.864,1.046-1.454,1.295-2.364c0.271-0.99,0.357-2.033,0.725-2.996
			c0.345-0.9,0.955-1.232,1.708-1.756c0.716-0.497,0.982-1.196,1.133-2.024c0.364-2,0.101-3.997,1.22-5.783
			c0.92-1.468,2.105-2.865,2.348-4.636c0.135-0.984-0.001-1.909,0.678-2.708c0.506-0.596,0.908-1.116,1.119-1.883
			c0.347-1.264,0.399-2.603,0.521-3.901c0.142-1.519,0.333-3.046,0.535-4.559c0.109-0.818,0.293-1.595,0.665-2.336
			c0.429-0.854,0.871-1.607,0.835-2.595c-0.037-1.022-0.349-2.03-0.568-3.021c-0.252-1.141-0.374-2.248-0.346-3.416
			c0.034-1.452,0.162-2.831-0.493-4.161c-0.444-0.902-1.078-1.704-1.429-2.652c-0.324-0.874-0.4-1.838-0.812-2.68
			c-0.432-0.884-1.411-1.474-1.552-2.498c-0.087-0.632,0.138-1.828,0.685-2.226c0.583-0.424,0.538,0.357,0.994,0.495
			c0.381,0.115,0.583-0.319,0.757-0.609c0.311-0.52,0.549-1.082,0.842-1.612c0.127-0.23,0.341-0.732,0.595-0.825
			c0.474-0.174,0.571,0.592,1.054,0.421c0.347-0.123,0.601-0.847,0.752-1.159c0.588-1.216,1.009-2.511,1.64-3.707
			c0.172-0.326,0.438-0.981,0.877-0.794c0.438,0.186,0.371,1.109,0.994,0.89c0.306-0.108,0.581-0.65,0.748-0.914
			c0.397-0.627,0.75-1.281,1.135-1.915c0.249-0.41,3.095-4.837,4.07-3.782c0.375,0.406-0.33,2.532,0.664,1.708
			c0.784-0.65,1.315-1.581,2.142-2.189c1.151-0.846,1.202,0.701,1.55,1.464c0.516,1.131,1.48-0.272,1.925-0.822
			c0.783-0.967,3.416-5.292,5.062-3.368c0.286,0.334,0.371,0.756,0.418,1.18c0.038,0.343-0.08,1.036,0.386,0.977
			c0.513-0.065,2.055-2.419,2.53-1.878c0.185,0.21-0.063,0.96-0.116,1.211c-0.179,0.836-0.42,1.659-0.625,2.488
			c-0.122,0.492-0.757,2.427,0.315,1.869c0.167-0.087,0.768-0.649,0.991-0.504c0.247,0.16,0.008,0.829-0.05,1.06
			c-0.385,1.523-0.98,2.998-1.473,4.489c-0.88,2.663-1.306,5.372-1.399,8.172c-0.049,1.48-0.057,2.971,0.063,4.448
			c0.038,0.47,0.147,2.661,0.906,1.712c0.172-0.215,0.476-1.063,0.803-1.112c0.35-0.052,0.419,0.548,0.477,0.815
			c0.322,1.498,0.363,3.081,0.503,4.6c0.125,1.354,0.219,2.738,0.538,4.064c0.198,0.822,0.426,1.517,1.36,1.082
			c0.481-0.224,0.73-0.299,0.99,0.246c0.189,0.396,0.252,0.898,0.33,1.324c0.171,0.935,0.187,2.657,0.891,3.429
			c0.65,0.712,1.646-0.309,2.325-0.509c0.966-0.284,1.359,0.659,1.668,1.413c0.326,0.796,0.671,2.523,1.534,2.999
			c0.664,0.367,1.368-0.294,1.831-0.73c1.027-0.966,1.848-2.128,2.797-3.166c0.622-0.68,1.54-1.739,2.159-0.53
			c0.322,0.629,0.477,1.823,1.203,2.174c0.664,0.321,1.536-0.273,2.085-0.614c1.089-0.676,2.086-1.509,3.233-2.09
			c0.498-0.252,1.095-0.52,1.666-0.424c0.911,0.153,1.374,1.172,1.715,1.928c0.236,0.524,0.777,2.654,1.624,1.761
			c1.002-1.056,1.918-4.746,3.928-3.07c1.162,0.969,3.001,4.828,4.894,3.753c1.272-0.721,2.485-4.041,4.169-2.581
			c0.595,0.515,1.061,1.267,1.803,1.598c0.876,0.391,1.833-0.097,2.624-0.482c1.817-0.885,3.267-1.571,5.287-0.961
			c1.696,0.512,3.734,1.736,5.396,0.473c1.639-1.246,2.42-3.362,3.718-4.908c0.375-0.446,0.837-0.951,1.422-1.099
			c0.809-0.204,1.481,0.414,1.987,0.967c1.751,1.915,2.675,4.433,4.331,6.416c0.575,0.689,1.294,1.199,1.84,0.182
			c0.417-0.778,0.583-1.717,0.759-2.568c0.123-0.596,0.784-6.656,2.026-6.147c1.227,0.503,2.446,5.109,3.889,2.318
			c1.279-2.475,1.524-5.395,2.497-7.989c0.219-0.585,0.641-1.822,1.374-1.097c0.541,0.534,0.75,1.337,1.251,1.906
			c0.698,0.791,1.13-0.138,1.401-0.788c0.581-1.389,0.923-2.885,1.351-4.324c0.301-1.014,0.582-2.086,1.09-3.021
			c0.638-1.173,1.295-0.741,1.888,0.236c0.589,0.971,0.913,2.387,1.751,3.179c0.748,0.707,1.012-0.982,1.12-1.482
			c0.339-1.569,0.528-3.168,0.852-4.74c0.173-0.837,0.34-1.796,0.789-2.545c0.653-1.091,1.532-0.288,2.286,0.229
			c0.874,0.598,1.309,0.353,1.551-0.654c0.599-2.492,0.274-5.139,0.977-7.619c0.199-0.702,0.507-1.505,1.219-1.825
			c0.906-0.409,1.878,0.194,2.485,0.848c1.399,1.506,1.818,3.762,2.458,5.636c0.076,0.223,0.28,1.047,0.571,1.078
			c0.334,0.036,0.488-0.593,0.573-0.845c0.414-1.227,0.611-2.547,0.827-3.82c0.562-3.302,1.022-6.622,1.595-9.922
			c0.289-1.662,0.581-3.325,0.943-4.973c0.249-1.133,0.445-2.426,0.991-3.466c0.7-1.335,0.99,1.19,1.058,1.67
			c0.229,1.609,0.373,3.229,0.579,4.841c0.132,1.031,0.211,2.197,0.628,3.166c0.532,1.234,1.223-0.151,1.489-0.805
			c0.984-2.422,1.308-5.133,1.628-7.708c0.243-1.954,0.466-3.912,0.728-5.864c0.129-0.964,0.216-2.062,0.611-2.968
			c0.581-1.334,1.376,0.698,1.73,1.232c0.568,0.858,1.137,1.058,1.706,0.057c1.33-2.341,1.762-5.294,2.553-7.84
			c0.217-0.699,0.502-2.284,1.178-2.782c0.948-0.698,1.013,1.705,1.777,1.563c0.574-0.107,0.843-2.185,0.919-2.538
			c0.351-1.618,0.616-3.254,0.966-4.872c0.102-0.474,0.283-2.211,0.836-2.516c0.749-0.413,1.076,2.095,1.73,0.668
			c0.45-0.982,0.557-2.166,0.75-3.218c0.296-1.611,0.548-3.242,0.974-4.825c0.177-0.66,0.386-1.318,0.737-1.908
			c0.43-0.722,1.111-1.268,1.317-2.111c0.562-2.299-0.349-4.813-0.128-7.157c0.098-1.035,0.424-1.513,1.389-1.889
			c0.87-0.339,1.032-0.921,1.005-1.804c-0.042-1.387-0.389-2.768-0.61-4.132c-0.09-0.557-0.499-2.138,0.031-2.605
			c0.701-0.618,1.756,0.834,2.479,0.508c0.66-0.297-0.029-2.179-0.153-2.627c-0.403-1.465-0.914-2.923-1.157-4.428
			c-0.093-0.573-0.244-1.4,0.181-1.872c0.642-0.714,1.945-0.195,2.026-1.443c0.054-0.842-0.298-1.763-0.552-2.544
			c-0.804-2.477-1.936-4.97-1.99-7.616c-0.04-1.958,0.731-3.842,0.641-5.787c-0.082-1.767-1.119-3.094-1.588-4.737
			c-0.293-1.026,0.204-1.867,0.226-2.875c0.019-0.874-0.579-1.537-0.97-2.265c-0.661-1.228-0.571-2.293-0.474-3.638
			c0.12-1.673-1.124-2.995-1.418-4.59c-0.419-2.269,0.207-4.85,0.462-7.091c0.053-0.467,0.146-2.526,0.854-1.593
			c0.175,0.231,0.465,1.073,0.802,0.793c0.231-0.192,0.201-1.14,0.221-1.405c0.097-1.342,0.011-2.746,0.269-4.071
			c0.308-1.579,0.92,1.011,1.358,0.624c0.205-0.181,0.138-1.145,0.147-1.354c0.034-0.816,0.047-1.633,0.095-2.449
			c0.071-1.207,0.217-2.395,0.56-3.558c0.165-0.561,0.523-1.174,0.585-1.75c0.072-0.667-0.426-0.206-0.866-0.028
			c-0.863,0.351-1.521,0.163-2.391-0.041c-0.782-0.183-1.412-0.152-2.09,0.316c-0.894,0.617-1.573,1.615-2.681,1.868
			c-1.811,0.415-3.456-0.459-4.818,1.251c-0.641,0.805-1.185,1.269-2.25,1.37c-0.938,0.089-1.946-0.159-2.789,0.359
			c-0.84,0.517-1.637,1.733-2.682,1.846c-0.484,0.052-0.812-0.274-1.205-0.498c-0.417-0.238-0.808-0.313-1.288-0.261
			c-2.012,0.217-3.741,1.695-5.789,1.758c-0.984,0.031-1.652-0.147-2.564,0.37c-0.949,0.539-1.777,1.267-2.741,1.785
			c-1.415,0.76-2.881,0.918-4.457,0.735c-1.202-0.14-2.354-0.537-3.548-0.687c-0.831-0.105-1.614,0.176-2.437,0.241
			c-0.81,0.064-1.631-0.075-2.379-0.394c-1.001-0.428-1.384-1.084-1.898-1.982c-0.495-0.864-1.291-0.935-2.205-0.901
			c-1.366,0.051-2.717,0.31-4.085,0.336c-1.607,0.03-2.977-0.307-3.755-1.877c-0.386-0.778-0.542-1.663-0.967-2.42
			c-0.501-0.892-1.388-0.85-2.273-1.077c-0.828-0.212-1.65-0.616-2.286-1.192c-0.887-0.803-0.98-1.809-1.257-2.899
			c-0.358-1.412-1.061-2.254-2.025-3.3c-1.148-1.246-1.412-3.234-1.528-4.846c-0.063-0.876,0.128-1.816-0.076-2.674
			c-0.208-0.875-0.99-1.452-1.353-2.256c-0.697-1.547,0.619-3.366-0.263-4.815"/>
	</g>
</g>
<g id="AG-OUTLINE">
	<g id="POLYLINE_805_">
		
			<path fill="none" stroke="#FB8604" stroke-width="3.5" stroke-linecap="round" stroke-linejoin="round" stroke-miterlimit="10" d="
			M416.905,586.403c-2.81-1.743-5.862-3.653-7.728-6.453c-2.024-3.038-3.125-6.695-4.038-10.194
			c-1.022-3.914-1.746-7.904-2.356-11.9c-0.605-3.968-1.273-8-1.294-12.023c-0.021-3.893,0.427-7.817,1.044-11.657
			c0.264-1.643,0.508-3.376,1.111-4.937c0.131-0.339,0.352-1.034,0.806-0.893c0.409,0.128,0.768,1.473,0.862,0.434
			c0.175-1.918-0.189-4.008-0.311-5.917c-0.052-0.822-0.095-1.647-0.084-2.47c0.003-0.244-0.061-1.248,0.207-1.394
			c0.497-0.271,0.944,1.271,1.186,0.185c0.118-0.529,0.041-1.143,0.02-1.675c-0.079-1.986-0.281-3.966-0.397-5.95
			c-0.079-1.345-0.347-3,0.079-4.315c0.228-0.705,0.629-0.519,1.187-0.768c0.51-0.227,0.622-0.84,0.725-1.338
			c0.173-0.834,0.236-1.691,0.325-2.537c0.018-0.169,0.043-1.466,0.311-1.545c0.416-0.123,0.562,1.162,1.189,0.98
			c0.386-0.112,0.622-0.811,0.765-1.152c0.286-0.682,0.488-1.401,0.667-2.118c0.561,1.578,0.911,3.256,1.079,4.921
			c0.148,1.464-0.088,2.823-0.133,4.278c-0.034,1.08,0.45,1.924,0.825,2.908c0.299,0.782,0.439,1.601,0.488,2.436
			c0.13,2.224-0.771,4.483-0.247,6.668c0.386,1.606,0.713,3.168,1,4.797c0.272,1.543,0.796,3.029,1.04,4.577
			c0.488,3.098,0.152,6.5-0.214,9.594c-0.13,1.1-0.314,2.202-0.095,3.302c0.196,0.984,0.562,1.914,0.631,2.922
			c0.401,5.822-3.504,11.352-2.361,17.21c0.318,1.627,0.995,3.148,1.44,4.738c0.42,1.499,0.587,3.054,0.741,4.598
			c0.413,4.153,0.797,8.3,1.299,12.443C416.765,584.907,416.844,585.654,416.905,586.403z"/>
	</g>
	<g id="POLYLINE_774_">
		
			<path fill="none" stroke="#FB8604" stroke-width="3.5" stroke-linecap="round" stroke-linejoin="round" stroke-miterlimit="10" d="
			M537.062,237.211c-1.18,0.682-2.236,1.626-3.179,2.601c-0.403,0.416-2.225,2.218-0.907,2.32c0.693,0.053,1.104,0.006,0.501,0.739
			c-0.454,0.552-0.999,1.036-1.515,1.529c-0.695,0.664-1.407,1.317-2.059,2.024c-0.253,0.274-1.048,0.983-0.85,1.405
			c0.226,0.482,1.136,0.043,1.44,0.381c0.328,0.365-0.548,1.064-0.803,1.309c-0.678,0.653-1.402,1.258-2.075,1.917
			c-0.307,0.301-0.985,0.842-1.017,1.3c-0.044,0.622,0.893,0.591,0.96,1.208c0.051,0.469-0.39,1.014-0.641,1.379
			c-0.508,0.739-1.101,1.414-1.65,2.122c-0.135,0.173-0.294,0.354-0.4,0.548c-0.209,0.38-0.185,0.327,0.137,0.486
			c0.271,0.134,0.379,0.028,0.421,0.405c0.026,0.238-0.111,0.528-0.188,0.752c-0.285,0.832-0.684,1.63-1.043,2.431
			c-0.259,0.577-0.54,1.158-0.718,1.766c-0.054,0.186-0.208,0.584-0.083,0.779c0.171,0.266,0.452,0.075,0.684,0.176
			c0.807,0.351-0.768,3.03-0.956,3.564c-0.145,0.412-0.382,0.977-0.235,1.414c0.188,0.559,0.827,0.519,1.207,0.862
			c0.754,0.68-0.192,2.455-0.417,3.159c-0.114,0.357-0.301,0.826-0.219,1.204c0.119,0.546,0.7,0.774,0.796,1.366
			c0.186,1.154-0.263,2.37-0.295,3.524c-0.013,0.481,0.03,0.914,0.316,1.316c0.359,0.505,0.662,0.732,0.63,1.391
			c-0.053,1.093-0.716,2.233-0.42,3.331c0.244,0.905,0.792,1.58,0.878,2.555c0.113,1.276-0.152,2.551-0.059,3.826
			c0.079,1.082,0.738,2.034,0.768,3.108c0.033,1.183-0.693,2.246-0.731,3.431c-0.029,0.911,0.302,1.768,0.337,2.668
			c0.05,1.277-0.666,2.517-0.999,3.719c-0.262,0.946-0.167,1.914-0.369,2.865c-0.204,0.96-0.703,1.912-1.306,2.68
			c-0.536,0.684-0.987,0.843-1.81,1.009c-0.437,0.088-1.044,0.454-1.488,0.382c-0.387-0.062-0.206-0.222-0.404-0.464
			c-0.198-0.242-0.358-0.214-0.665-0.173c-0.586,0.078-1.144,0.312-1.735,0.379c-0.518,0.058-0.957,0.001-1.299-0.43
			c-0.305-0.385-0.339-1.016-0.701-1.343c-0.939-0.851-1.954,1.713-2.723,1.248c-0.692-0.418,0.764-2.844-0.29-3.047
			c-0.459-0.088-0.951,0.483-1.425,0.484c-0.63,0.001-0.777-0.702-0.958-1.192c-0.417-1.128-0.938-1.628-2.184-1.421
			c-0.733,0.122-2.34,0.858-2.912,0.039c-0.353-0.505-0.213-1.225-0.535-1.744c-0.298-0.482-0.839-0.497-1.356-0.486
			c-1.016,0.022-2.679,0.323-3.148-0.904c-0.411-1.075,0.166-2.183-1.386-2.298c-0.954-0.071-2.333,0.259-2.93-0.72
			c-0.641-1.052-0.561-1.966-1.994-2.174c-0.961-0.14-2.339,0.084-3.171-0.559c-0.953-0.736-0.634-2.313-1.689-2.982
			c-1.048-0.664-2.812-0.242-3.931-0.153c-1.105,0.088-2.425,0.232-2.207-1.251c0.073-0.491,0.366-1.226-0.074-1.623
			c-0.449-0.405-1.233-0.231-1.76-0.459c-1.112-0.482,0.196-1.972-1.24-2.309c-1.239-0.29-2.291-0.084-3.091-1.261
			c-0.723-1.064-1.192-1.866-2.51-2.185c-1.052-0.254-2.325-0.151-3.294-0.688c-0.496-0.275-0.728-0.763-1.073-1.187
			c-0.41-0.503-0.94-0.785-1.465-1.146c-0.133-0.091-0.472-0.255-0.49-0.43c-0.035-0.343,0.465-0.286,0.617-0.504
			c0.341-0.486-1.032-0.979-1.362-1.162c-0.312-0.174-1.087-0.506-1.016-0.938c0.085-0.516,1.187-0.535,1.187-1.074
			c0-0.368-0.876-0.7-1.145-0.834c-0.518-0.259-1.065-0.492-1.541-0.827c-0.481-0.338-0.739-0.681-0.642-1.278
			c0.081-0.497,0.405-0.97,0.171-1.474c-0.378-0.811-2.802-1.368-2.323-2.333c0.283-0.569,1.201-0.785,0.603-1.495
			c-0.341-0.405-0.943-0.639-1.424-0.836c-0.572-0.234-1.348-0.319-1.854-0.678c-0.609-0.432,0.39-0.59,0.761-0.79
			c0.668-0.361,0.482-0.685-0.08-1.061c-0.601-0.403-1.282-0.684-1.916-1.026c-0.325-0.175-0.992-0.425-0.676-0.793
			c0.185-0.216,0.63-0.094,0.555-0.464c-0.047-0.23-0.729-0.577-0.876-0.686c-0.382-0.284-0.876-0.612-0.677-1.138
			c0.141-0.375,0.907-0.743,0.731-1.19c-0.147-0.372-1.019-0.5-1.367-0.586c-0.866-0.215-1.754-0.339-2.616-0.571
			c-1.997-0.537,0.954-0.888,0.17-1.599c-0.478-0.434-1.312-0.458-1.864-0.788c-0.72-0.432-0.024-0.698,0.406-1.002
			c0.646-0.456,0.101-0.602-0.438-0.756c-0.549-0.157-1.286-0.229-1.777-0.556c-0.625-0.415-0.056-0.763,0.004-1.314
			c0.057-0.521-0.392-0.803-0.791-1.044c-0.557-0.337-1.169-0.568-1.745-0.866c-0.139-0.072-0.619-0.256-0.58-0.462
			c0.042-0.218,0.693-0.261,0.837-0.342c0.623-0.351-0.177-0.61-0.579-0.786c-0.868-0.38-1.773-0.67-2.65-1.028
			c-0.322-0.132-1.376-0.448-0.87-0.784c0.22-0.146,1.479-0.073,1.497-0.318c0.022-0.298-3.1-0.984-3.607-1.321
			c-0.589-0.392-0.375-0.721,0.067-1.135c0.194-0.182,0.562-0.356,0.358-0.602c-0.145-0.174-0.889-0.157-1.065-0.182
			c-0.419-0.061-1.051-0.106-1.306-0.496c-0.293-0.448,0.055-1.023-0.08-1.501c-0.254-0.899-2.017-0.771-2.7-0.926
			c-0.452-0.103-0.882-0.241-1.005-0.735c-0.113-0.453,0.258-1.143-0.243-1.406c-0.417-0.219-1.158,0.048-1.615,0.035
			c-0.56-0.016-1.014-0.185-1.344-0.658c-0.417-0.598-0.504-1.411-0.486-2.124c0.016-0.619,0.68-2.434-0.068-2.582
			c-0.506-0.1-1.068,0.439-1.585,0.275c-0.494-0.157-0.397-0.768-0.368-1.187c0.032-0.475,0.278-1.368-0.188-1.708
			c-0.481-0.352-0.985-0.102-1.381-0.678c-0.539-0.785-0.591-1.828-0.995-2.679c-0.502-1.057-1.876-0.861-1.992-2.085
			c-0.045-0.473,0.062-1.107-0.222-1.527c-0.316-0.467-1.048-0.408-1.316-0.911c-0.484-0.91,0.785-2.479-0.923-2.423
			c-0.404,0.013-1.318,0.303-1.689,0.007c-0.4-0.32-0.037-1.068,0.003-1.478c0.146-1.508-1.769-0.331-2.479-0.902
			c-0.409-0.329-0.127-1.066-0.117-1.5c0.015-0.666-0.288-0.917-0.91-1.089c-0.465-0.129-1.203-0.124-1.383-0.667
			c-0.154-0.463,0.138-1.006,0.006-1.491c-0.305-1.112-1.794-1.205-2.493-1.931c-0.549-0.57,0.22-0.936,0.654-1.274
			c0.534-0.417,0.427-0.597-0.211-0.718c-0.428-0.081-3.114-0.042-2.873-0.82c0.076-0.243,0.545-0.455,0.46-0.765
			c-0.065-0.238-0.506-0.316-0.703-0.367c-0.66-0.174-1.356-0.23-2.03-0.322c-0.224-0.031-1.312-0.059-1.463-0.32
			c-0.277-0.475,1.452-0.689,0.816-0.942c-0.627-0.249-1.698,0.035-2.376,0.02c-0.456-0.011-1.075,0.012-1.488-0.204
			c-0.671-0.351-0.148-0.774-0.122-1.304c0.033-0.658-0.916-0.329-1.372-0.287c-0.936,0.086-1.822,0.007-2.141-1.026
			c-0.144-0.466-0.165-0.975-0.185-1.459c-0.019-0.478,0.111-1.342-0.127-1.81c-0.402-0.791-2.061,0.95-2.903,0.681
			c-0.783-0.251-1.195-1.229-1.335-1.979c-0.073-0.39-0.069-0.778-0.013-1.169c0.057-0.396,0.411-1.184,0.069-1.529
			c-0.352-0.354-1.431-0.141-1.84-0.126c-0.416,0.016-0.955,0.082-1.35-0.084c-0.55-0.23-0.46-0.723-0.552-1.222
			c-0.111-0.604-0.454-0.811-1.035-0.921c-1.013-0.193-2.158,0.031-3.127-0.379c-1.165-0.492-0.598-2.125-2.043-2.128
			c-1.197-0.003-1.938-0.04-2.717-1.083c-0.677-0.907-1.168-2.254-2.188-2.863c-0.872-0.52-1.883-0.087-2.793,0.05
			c-1.544,0.232-1.44-1.061-2.099-2.075c-0.545-0.838-1.886-0.343-2.692-0.927c-0.821-0.594-1.497-1.715-2.587-1.833
			c-0.493-0.054-1.08,0.27-1.548,0.133c-0.545-0.16-0.476-0.877-0.622-1.326c-0.439-1.351-1.973-0.318-2.888-0.964
			c-0.955-0.673-0.566-2.573-2.077-2.472c-0.541,0.036-1.221,0.404-1.76,0.229c-0.547-0.178-0.603-0.883-0.965-1.263
			c-0.59-0.619-2.858-0.115-2.978-0.762c-0.081-0.437,0.762-0.937,0.281-1.316c-0.314-0.247-1.435-0.027-1.733-0.012
			c-1.026,0.05-2.224,0.096-2.355-1.19c-0.049-0.485,0.183-1.327-0.502-0.87c-0.336,0.225-0.905,0.974-1.391,0.823
			c-0.486-0.151-0.495-1.018-0.77-1.372c-0.373-0.478-0.787-0.161-1.182,0.143c-0.735,0.565-1.8,1.973-2.478,0.652
			c-0.225-0.438-0.359-1.152-0.936-0.733c-0.478,0.347-0.759,0.983-1.162,1.416c-0.366,0.393-0.768,0.73-1.288,0.422
			c-0.498-0.295-0.757-1.352-1.244-1.524c-0.408-0.144-0.397,0.936-0.495,1.282c-0.143,0.507-0.37,0.948-0.941,1.004
			c-1.115,0.11-2.033-0.878-3.075-1.025c-0.78-0.11-0.214,0.655-0.302,1.124c-0.103,0.549-0.663,0.516-1.125,0.495
			c-0.444-0.02-1.345-0.349-1.754-0.136c-0.594,0.31,0.609,0.834,0.588,1.237c-0.018,0.344-2.453,0.053-2.962,0.607
			c-0.39,0.424-0.339,1.183-0.761,1.554c-0.468,0.41-1.198-0.095-1.656-0.312c-0.539-0.255-1.033-0.513-0.936,0.29
			c0.055,0.449,0.378,1.194,0.106,1.633c-0.496,0.799-2.757-0.299-2.858,0.45c-0.068,0.506,0.754,1.01,0.757,1.557
			c0.003,0.549-0.601,0.629-1.041,0.704c-0.406,0.069-1.622-0.018-1.455,0.527c0.077,0.25,0.477,0.364,0.416,0.685
			c-0.047,0.247-0.406,0.373-0.606,0.461c-0.575,0.254-1.208,0.387-1.81,0.553c-0.348,0.096-1.496,0.269-0.873,0.619
			c0.583,0.328,1.411,0.14,2.003,0.453c0.336,0.178,0.338,0.21,0.009,0.425c-0.307,0.201-0.73,0.291-1.064,0.425
			c-0.929,0.373-2.214,0.975-2.132,2.172c0.062,0.898,1.468,1.743,0.315,2.354c-0.412,0.219-1.044,0.329-0.975,0.902
			c0.058,0.481,0.591,0.81,0.514,1.338c-0.075,0.52-0.652,0.756-0.864,1.195c-0.271,0.563,0.271,0.879,0.35,1.418
			c0.086,0.584-0.394,1.074-0.747,1.482c-0.295,0.342-1.131,0.984-0.35,1.088c0.427,0.057,1.189-0.222,1.408,0.311
			c0.18,0.436-0.293,1.262-0.427,1.641c-0.195,0.55-0.347,0.978,0.374,0.937c0.585-0.033,1.101-0.204,1.122,0.57
			c0.02,0.752-1.004,2.683,0.081,2.89c0.556,0.106,2.656-0.134,2.173,0.933c-0.273,0.603-1.123,0.904-1.348,1.517
			c-0.218,0.597,0.644,0.5,1.063,0.516c0.371,0.015,1.387-0.075,1.597,0.351c0.223,0.452-0.481,1.217-0.668,1.578
			c-0.795,1.535,1.579,0.627,2.232,1.051c0.901,0.585-2.036,2.044-0.544,2.656c0.512,0.21,1.148,0.083,1.64,0.317
			c0.716,0.341-0.25,0.709-0.275,1.237c-0.024,0.517,0.676,0.811,1.061,1.017c0.402,0.215,1.677,0.624,0.875,1.046
			c-0.497,0.261-1.099,0.349-0.258,0.625c0.769,0.252,1.577,0.377,2.353,0.606c0.296,0.088,1.092,0.246,1.053,0.629
			c-0.044,0.428-1.304,0.785-1.603,1.075c-0.924,0.894,1.197,1.934,1.741,2.358c0.352,0.275,0.841,0.595,0.38,0.978
			c-0.452,0.376-1.199,0.344-1.706,0.645c-1.317,0.782,1.105,1.881,0.906,2.813c-0.124,0.58-0.852,0.655-0.752,1.361
			c0.058,0.403,0.341,0.82,0.542,1.163c0.218,0.371,0.822,1.079,0.812,1.566c-0.012,0.598-0.742,0.442-1.169,0.507
			c-1.435,0.22,1.115,1.713,0.413,2.43c-0.479,0.489-1.019,0.233-0.716,1.112c0.165,0.481,0.52,0.979,0.059,1.394
			c-0.403,0.363-1.104,0.321-1.459,0.752c-0.334,0.406-0.112,0.956,0.08,1.375c0.239,0.521,1.718,2.328,0.517,2.402
			c-0.338,0.021-1.322-0.292-1.357,0.203c-0.028,0.401,0.91,1.24,1.104,1.467c0.485,0.568,2.123,2.173,0.776,2.635
			c-0.505,0.173-1.104,0.159-1.628,0.184c-0.228,0.011-1.388-0.064-1.581,0.212c-0.302,0.433,1.049,1.222,1.326,1.432
			c0.482,0.366,1.01,0.771,0.087,0.699c-0.728-0.057-2.734-0.582-3.12,0.395c-0.383,0.969,0.716,2.605,1.023,3.431
			c0.127,0.343,0.358,0.806-0.076,0.965c-0.411,0.15-1.098-0.206-1.541-0.225c-1.399-0.061-1.298,1.178-1.918,2.035
			c-0.324-0.747-0.123-1.793-0.331-2.606c-0.276-1.078-0.822-1.05-1.667-0.495c-0.331,0.217-0.714,0.629-0.848,0.104
			c-0.088-0.344,0.147-0.98,0.207-1.291c0.107-0.561,0.463-1.752,0.047-2.266c-0.396-0.488-1.277-0.142-1.77,0.014
			c-0.672,0.212-2.021,0.887-1.569-0.375c0.188-0.526,2.282-4.351,0.449-4.066c-0.497,0.077-2.027,1.101-2.252,0.56
			c-0.139-0.333,0.354-0.817,0.147-1.186c-0.169-0.302-0.597-0.254-0.893-0.235c-0.818,0.052-1.609,0.345-2.428,0.385
			c-1.16,0.057-0.451-0.951-0.29-1.647c0.16-0.692-0.021-1.225-0.467-1.768c-0.372-0.453-1.619-1.243-1.157-1.891
			c0.328-0.461,2.43-0.689,2.286-1.282c-0.122-0.501-1.984-0.887-2.336-1.048c-1.405-0.644,0.378-0.66,0.546-1.328
			c0.21-0.834-1.756-1.124-1.783-1.914c-0.026-0.749,1.608-0.637,1.329-1.519c-0.225-0.71-2.02-1.266-1.7-2.111
			c0.156-0.411,0.874-0.476,0.96-0.929c0.075-0.395-0.457-0.757-0.705-0.99c-0.264-0.248-0.763-0.594-0.714-1.005
			c0.051-0.425,0.626-0.605,0.717-1.02c0.203-0.929-1.32-1.447-1.579-2.205c-0.329-0.965,1.718-0.449,0.867-1.576
			c-0.275-0.364-0.543-0.591-0.423-1.065c0.108-0.428,0.387-0.583,0.113-1.012c-0.379-0.595-2.037-1.08-0.934-1.763
			c0.196-0.121,0.869-0.315,0.935-0.586c0.086-0.349-0.476-0.568-0.731-0.708c-0.434-0.237-1.802-0.697-1.983-1.294
			c-0.25-0.828,1.729-1.299,1.261-1.942c-0.445-0.611-1.816-0.402-2.437-0.844c-0.888-0.632,0.777-1.297,0.802-2.008
			c0.026-0.744-1.419-1.081-1.961-1.263c-0.348-0.117-2.523-0.586-2.234-1.233c0.285-0.639,2.278-0.72,2.185-1.562
			c-0.064-0.579-1.76-1.076-2.138-1.29c-0.952-0.539-0.625-0.866-0.025-1.544c0.766-0.867-0.355-1.313-0.978-1.849
			c-0.94-0.81-0.354-1.215,0.094-2.101c0.807-1.598-3.643-1.355-2.504-2.62c0.523-0.58,1.572-1.057,0.451-1.651
			c-0.672-0.356-1.443-0.493-2.113-0.851c-1.285-0.686,0.458-0.934,0.546-1.648c0.079-0.643-2.031-1.122-2.367-1.249
			c-0.623-0.235-1.833-0.604-1.794-1.429c0.034-0.728,0.989-1.471,1.427-1.94c0.218-0.233,0.708-0.629,0.493-0.966
			c-0.18-0.283-1.107-0.275-1.368-0.311c-0.578-0.079-1.35-0.14-1.77-0.595c-0.611-0.664-0.031-1.604-0.433-2.276
			c-0.366-0.611-1.595,0.055-2.184-0.045c-1.536-0.26-1.935-2.999-2.53-4.079c-0.42-0.763-1.024-1.424-1.964-1.29
			c-0.787,0.113-1.548,0.809-2.344,0.762c-0.884-0.051-0.652-1.454-0.672-2.053c-0.01-0.298,0.05-0.817-0.322-0.855
			c-0.35-0.035-0.894,0.571-1.203,0.73c-1.806,0.933-2.754-1.961-3.522-3.047c-0.773-1.095-1.117-0.035-1.491,0.759
			c-0.254,0.538-0.56,1.256-1.212,1.371c-1.472,0.258-2.741-1.913-4.201-1.201c-0.759,0.37-1.119,1.051-2.049,0.741
			c-0.974-0.324-1.804-1.102-2.652-1.641c-0.534-0.339-1.292-0.864-1.896-0.421c-0.747,0.548-0.775,1.703-1.661,2.152
			c-0.659,0.334-1.514,0.149-2.204,0.008c-0.572-0.118-1.892-0.653-2.508-0.299c-0.374,0.216-0.456,0.743-0.784,1.024
			c-0.312,0.267-0.729,0.355-1.124,0.422c-1.009,0.17-2.036,0.063-3.048,0.173c-0.523,0.057-0.565,0.172-0.077,0.427
			c0.465,0.243,1.069,0.356,1.489,0.677c0.465,0.356,0.056,0.358-0.359,0.38c-0.719,0.038-1.448-0.01-2.166-0.026
			c-0.392-0.008-2.611-0.268-2.816,0.237c-0.247,0.607,2.106,1.154,1.363,1.793c-0.556,0.478-2.184,0.271-2.845,0.283
			c-1.303,0.025-2.678-0.052-3.971,0.158c-1.398,0.228-0.049,0.916,0.504,1.339c0.428,0.327,0.467,0.488-0.095,0.605
			c-0.57,0.119-1.163,0.132-1.738,0.229c-1.103,0.187-2.169,0.562-3.063,1.25c-0.386,0.297-1.27,1.025-0.637,1.443
			c0.551,0.363,1.635,0.028,2.232,0.081c-0.313,0.307-1.076,0.379-1.471,0.506c-0.442,0.143-0.887,0.287-1.316,0.469
			c-0.593,0.252-1.224,0.569-0.394,1.019c0.653,0.354,1.581,0.632,0.773,1.399c-0.559,0.531-1.309,0.874-1.959,1.27
			c-1.302,0.794,0.444,0.149,0.734,0.669c0.248,0.444-0.869,1.678-1.054,1.992c-0.264,0.448-0.581,0.997-0.389,1.526
			c0.231,0.635,1.542,1.071,0.608,1.617c-0.644,0.376-1.427,0.472-2.076,0.842c-0.927,0.529-0.147,1.098,0.357,1.638
			c0.874,0.937,1.525,2.508,0.165,3.378c-0.646,0.413-1.519,0.529-2.261,0.639c-0.632,0.094-1.81,0.013-2.38,0.399
			c-0.707,0.479,0.929,1.179,1.188,1.635c0.385,0.676-0.622,0.879-1.123,1.019c-0.838,0.234-1.812,0.3-2.597,0.697
			c-1.002,0.508,0.313,0.95,0.32,1.631c0.007,0.674-1.122,1.098-1.629,1.339c-1.093,0.518-2.235,0.924-3.337,1.42
			c-0.646,0.291-1.337,0.601-1.856,1.096c-0.607,0.579-0.81,1.393-1.23,2.094c-0.767,1.279-2.036,2.252-3.149,3.208
			c-1.542,1.323-3.333,2.61-4.518,4.288c-0.644,0.912-0.761,1.966-1.204,2.968c-0.641,1.452-2.179,2.408-3.316,3.421
			c-1.062,0.947-1.676,1.946-2.361,3.187c-0.826,1.497-2.176,2.523-3.206,3.863c-0.802,1.044-1.192,2.211-1.389,3.502
			c-0.233,1.521-0.28,3.136-1.177,4.446c-0.422,0.616-0.953,1.149-1.339,1.792c-0.515,0.859-0.848,1.82-1.252,2.732
			c-0.944,2.132-2.284,4.061-3.303,6.156c-0.892,1.834-1.663,3.637-2.759,5.354c-0.754,1.181-0.927,2.674-1.155,4.027
			c-0.434,2.571-1.196,4.843-2.097,7.285c-0.313,0.85-0.621,1.717-0.799,2.607c-0.126,0.629-0.064,1.341-0.315,1.936
			c-0.632,1.502-2.851,1.321-3.336,3.041c-0.248,0.877-0.522,1.381-1.379,1.809c-0.612,0.306-1.288,0.483-1.956,0.614
			c-1.38,0.271-3.511,0.098-4.467,1.358c-0.463,0.611-0.751,1.042-1.523,1.251c-0.77,0.208-1.582,0.236-2.367,0.357
			c-1.281,0.197-2.288,1.081-3.534,1.277c-1.359,0.214-2.649-0.564-3.989-0.52c-0.898,0.03-0.516,0.918-1.086,1.389
			c-0.494,0.408-1.345,0.473-1.955,0.558c-1.035,0.143-2.09,0.167-3.118,0.354c-0.24,0.044-0.818,0.093-0.821,0.417
			c-0.002,0.231,0.546,0.562,0.685,0.69c0.73,0.671,0.12,0.903-0.617,1.073c-0.991,0.229-2.015,0.282-3.008,0.501
			c-0.196,0.043-0.726,0.097-0.702,0.354c0.02,0.213,0.777,0.462,0.907,0.546c0.844,0.541-0.657,0.603-1.074,0.644
			c-2.467,0.24-4.956,0.174-7.424,0.403c-0.468,0.043-1.885,0.136-0.866,0.606c0.539,0.249,1.723,0.376,2.131,0.883
			c0.462,0.575-0.983,0.814-1.39,0.911c-1.324,0.316-2.677,0.521-4.016,0.759c-0.399,0.071-2.223,0.174-2.417,0.601
			c-0.216,0.475,1.574,0.493,1.46,1.194c-0.096,0.589-1.626,1.137-2.072,1.345c-1.098,0.512-2.233,0.943-3.324,1.47
			c-0.176,0.085-0.871,0.338-0.891,0.551c-0.03,0.321,0.83,0.32,1.046,0.357c0.86,0.147,1.169,0.448,0.424,1.102
			c-1.602,1.407-3.685,2.34-5.489,3.448c-0.366,0.225-0.745,0.449-1.083,0.717c-0.371,0.293-0.577,0.472-0.06,0.616
			c0.27,0.075,0.782-0.081,1.028,0.093c0.394,0.279-0.083,0.633-0.349,0.88c-0.823,0.763-1.788,1.391-2.692,2.051
			c-0.763,0.557-1.717,1.104-2.319,1.847c-0.705,0.871,0.824,0.437,1.022,1.073c0.175,0.562-0.777,1.541-1.094,1.936
			c-0.681,0.851-1.466,1.636-2.085,2.534c-0.706,1.024,0.216,0.573,0.877,0.64c0.806,0.081,0.233,0.929-0.019,1.375
			c-0.4,0.708-1.124,1.466-1.328,2.27c-0.257,1.012,1.384-0.387,0.981,0.767c-0.327,0.936-1.042,1.773-1.526,2.629
			c-0.248,0.439-0.938,1.43-0.495,1.892c0.506,0.529,1.567-0.041,1.28,1.095c-0.193,0.764-0.68,1.48-1.033,2.17
			c-0.227,0.444-0.794,1.263-0.17,1.52c0.388,0.16,0.714-0.044,0.864,0.463c0.083,0.278-0.03,0.651-0.092,0.926
			c-0.226,1.002-0.633,1.966-0.981,2.928c-0.101,0.278-0.819,1.864-0.323,1.953c0.461,0.082,1.6-1.378,1.094-0.037
			c-0.29,0.767-0.712,1.492-0.928,2.287c-0.071,0.261-0.172,0.58-0.033,0.836c0.167,0.308,0.58,0.344,0.726,0.689
			c0.254,0.6-0.156,1.638-0.32,2.213c-0.262,0.917-0.609,1.836-0.752,2.782c-0.049,0.326-0.082,0.654,0.043,0.967
			c0.145,0.361,0.458,0.597,0.541,0.993c0.145,0.694-0.171,1.572-0.35,2.23c-0.26,0.956-0.696,1.996-0.741,3.001
			c-0.048,1.065,0.848,0.387,1.41,0.15c0.936-0.394,0.624,0.539,0.436,1.133c-0.36,1.139-0.844,2.236-1.193,3.379
			c-0.158,0.519-0.452,1.286-0.271,1.832c0.235,0.709,1.198,0.631,1.403,1.405c0.137,0.52-0.018,1.178-0.122,1.689
			c-0.255,1.251-0.658,2.474-1.019,3.697c-0.185,0.627-0.607,1.557-0.497,2.229c0.142,0.867,1.121-0.281,1.242,0.695
			c0.116,0.934-0.374,2.134-0.585,3.012c-0.108,0.449-0.676,1.94-0.349,2.379c0.415,0.558,1.23-0.716,1.496,0.256
			c0.185,0.678-0.082,1.634-0.18,2.299c-0.137,0.93-0.377,1.917-0.339,2.865c0.047,1.182,0.631,0.353,1.308,0.558
			c0.611,0.185,0.452,1.477,0.439,1.972c-0.026,0.994-0.187,2.037-0.047,3.029c0.156,1.111,0.686,0.501,1.417,0.42
			c0.75-0.083,0.719,0.829,0.734,1.384c0.031,1.144-0.092,2.292-0.147,3.433c-0.026,0.543-0.197,1.578,0.104,2.083
			c0.653,1.096,2.42-2.405,2.79,0.296c0.282,2.066-0.2,4.171,0.037,6.231c0.143,1.245,0.669-0.332,1.073-0.555
			c0.622-0.343,0.655,1.267,0.697,1.657c0.104,0.966,0.014,2.272,0.423,3.191c0.415,0.934,1.12-0.645,1.353-1.03
			c0.222-0.367,0.702-1.379,1.22-1.389c0.6-0.011,0.925,1.208,1.083,1.65c0.229,0.64,0.448,2.013,1.017,2.522
			c0.664,0.596,1.045-0.748,1.168-1.227c0.299-1.167,0.323-2.447,0.07-3.624c-0.133-0.619-0.354-1.216-0.62-1.791
			c-0.164-0.355-1.531-2.306-1.336-2.563c0.266-0.351,1.742,0.968,2.177,0.874c0.543-0.118-0.471-1.473-0.632-1.733
			c-0.275-0.442-1.151-1.479-1.089-2.081c0.075-0.73,1.07-0.037,1.494-0.289c0.811-0.482-1.742-4.099-2.008-4.695
			c-0.109-0.245-0.355-0.687-0.257-0.968c0.137-0.393,0.607-0.311,0.94-0.371c0.821-0.149,0.724-0.784,0.541-1.463
			c-0.586-2.174-1.752-4.161-2.38-6.329c-0.525-1.81-0.657-3.684-0.541-5.56c0.067-1.091,0.228-2.173,0.295-3.263
			c0.067-1.085-0.013-2.173,0.076-3.257c0.158-1.925,0.68-3.862,1.386-5.656c0.967,3.438,2.701,6.609,3.56,10.078
			c0.857,3.46,1.206,7.04,1.857,10.542c0.839,4.513,1.724,9.018,2.569,13.53c0.67,3.577,1.233,7.166,1.63,10.784
			c0.483,4.392,0.856,8.797,1.274,13.196c0.368,3.868,0.915,7.716,1.416,11.568c0.467,3.587,0.894,7.182,1.194,10.787
			c0.339,4.065,0.543,8.138,0.499,12.218c-0.041,3.813-0.299,7.635-0.838,11.411c-0.56,3.919-1.585,7.675-2.705,11.465
			c-0.506,1.712-1.003,3.424-1.279,5.191c-0.263,1.683-0.332,3.422-0.804,5.066c-0.484,1.686-1.854,3.032-2.093,4.787
			c-0.247,1.818,0.365,3.565-0.347,5.328c-0.434,1.075-1.119,2.066-1.361,3.214c-0.231,1.093,0.102,2.115,0.632,3.066
			c1.541,2.761,4.145,4.755,5.916,7.358c2.332,3.427,4.021,7.355,5.901,11.032c1.643,3.214,3.386,6.376,5.468,9.33
			c2.217,3.144,4.543,6.133,6.409,9.508c2.089,3.779,4.001,7.661,5.985,11.495c1.685,3.256,3.415,6.475,4.727,9.905
			c1.518,3.968,2.765,8.043,4.1,12.074c1.037,3.133,2.183,6.231,3.395,9.3c1.658,4.199,3.334,8.391,4.967,12.6
			c0.818,2.109,1.699,4.249,3.74,5.436c2.376,1.381,5.369,1.646,8.054,1.747c3.988,0.15,7.983-0.181,11.974-0.126
			c3.87,0.053,7.801,0.427,11.666,0.127c1.695-0.132,3.439-0.279,5.09-0.706c1-0.259,2.266-0.674,2.502-1.817
			c0.246-1.192-0.376-2.64-0.681-3.751c-0.406-1.482-0.839-2.973-1.565-4.335c-1.041-1.953-2.58-4.182-4.455-5.427
			c-2.202-1.461-5.093-1.444-7.538-2.283c-1.507-0.517-2.83-1.397-4.249-2.101c-1.173-0.582-2.374-0.86-3.655-1.115
			c-2.369-0.472-4.07-1.15-5.656-3.033c-1.113-1.321-2.062-2.772-3.226-4.052c-1.292-1.422-2.747-2.685-4.067-4.08
			c-2.161-2.282-3.488-4.971-4.67-7.858c-1.811-4.425-3.609-8.855-5.414-13.282c-1.348-3.307-2.741-6.598-3.955-9.957
			c-1.268-3.509-2.401-7.082-2.989-10.775c-0.563-3.538-0.548-7.099-0.374-10.667c0.197-4.012,0.446-8.017,0.225-12.034
			c-0.225-4.089-0.759-8.157-1.09-12.238c-0.3-3.696-0.403-7.429,0.249-11.094c0.636-3.578,1.95-6.937,3.323-10.283
			c1.503-3.665,3.126-7.322,3.867-11.237c0.707-3.735,0.394-7.512,0.369-11.285c-0.01-1.558,0.063-3.11,0.503-4.614
			c0.447-1.527,1.177-2.986,1.917-4.389c1.609-3.05,4.107-5.421,5.805-8.4c1.838-3.226,3.174-6.732,5.311-9.786
			c1.831-2.616,4.431-4.784,5.801-7.705c0.621-1.324,0.956-2.765,1.196-4.202c0.328-1.963,0.638-3.934,0.91-5.905
			c0.481-3.491,0.49-6.956,0.237-10.466c-0.286-3.973-0.718-7.981-0.508-11.968c0.041-0.782,0.112-1.563,0.226-2.337
			c0.084-0.573,0.106-0.74,0.609-0.966c1.031-0.464,2.171-0.705,3.292-0.817c1.034-0.103,2.175-0.137,3.176,0.189
			c0.532,0.173,0.929,0.443,1.125,0.98c0.2,0.548,0.132,1.137,0.642,1.524c0.943,0.715,2.557,0.62,3.651,0.889
			c1,0.246,1.798,0.68,2.312,1.596c0.598,1.066,0.767,2.104,2.071,2.477c1.279,0.366,2.064,0.506,2.845,1.659
			c0.793,1.171,1.685,1.96,2.798,2.83c1.334,1.042,2.444,2.196,3.457,3.542c1.701,2.259,5.104,2.753,7.598,3.652
			c1.098,0.396,2.278,0.809,3.226,1.513c1.062,0.789,1.167,1.931,1.891,2.927c0.778,1.069,2.181,1.631,3.321,2.2
			c1.224,0.611,3.114,1.207,4.049,2.293c0.38,0.441,0.153,0.843,0.214,1.368c0.077,0.668,0.478,1.329,0.903,1.832
			c0.932,1.104,2.332,1.564,3.544,2.272c1.105,0.645,1.524,1.349,1.856,2.551c0.295,1.067,1,1.466,2.017,1.736
			c1.147,0.304,2.658,0.332,3.646,1.087c0.482,0.368,0.705,0.953,1.153,1.347c0.415,0.365,0.948,0.46,1.483,0.511
			c2.383,0.226,4.74-0.423,6.584,1.438c0.716,0.722,1.343,1.432,2.333,1.777c0.918,0.319,1.928,0.361,2.889,0.387
			c2.22,0.059,5.536-0.604,7.402,1.031c0.663,0.581,1.121,1.36,1.802,1.924c0.629,0.521,1.383,0.817,2.163,1.03
			c3.491,0.954,7.219,0.615,10.788,0.945c3.458,0.319,6.814,1.727,10.304,1.698c1.004-0.008,1.921-0.443,2.908-0.485
			c1.224-0.053,2.345,0.863,3.429,1.301c2.305,0.933,4.864,0.368,7.244,0.092c1.54-0.179,3.103-0.263,4.648-0.087
			c1.612,0.184,3.111,0.803,4.7,1.08c0.787,0.137,1.536,0.113,2.282-0.203c0.901-0.382,1.685-0.959,2.648-1.19
			c1.361-0.326,2.785-0.276,4.162-0.51c1.053-0.18,2.352-0.784,3.445-0.571c1.307,0.256,0.336,2.033,1.337,2.497
			c0.898,0.417,2.658-0.672,3.417-1.009c1.965-0.872,3.91-1.871,6.093-1.324c1.016,0.254,1.861,0.572,2.902,0.225
			c0.962-0.321,1.802-0.944,2.777-1.226c1.426-0.412,2.002,0.997,3.289,1.05c1.143,0.047,2.306-1.291,3.072-1.967
			c0.814-0.719,1.646-1.542,2.654-1.991c0.998-0.444,1.813-0.113,2.604,0.578c0.653,0.571,1.61,1.984,2.641,1.501
			c1.046-0.49,1.659-1.8,2.486-2.567c2.05-1.902,4.067-0.02,6.166,0.717c1.171,0.412,1.66-0.387,2.563-0.984
			c0.838-0.554,1.847-0.862,2.81-1.106c-0.628,2.449-1.091,4.894-1.42,7.401c-0.279,2.124-0.705,4.389-0.586,6.538
			c0.026,0.47,0.099,0.713,0.396,0.218c0.198-0.33,0.266-0.849,0.572-1.08c0.124,0.279-0.007,0.773-0.041,1.065
			c-0.097,0.843-0.213,1.685-0.319,2.527c-0.169,1.342-0.357,2.684-0.457,4.034c-0.054,0.72-0.169,1.559,0.002,2.278
			c0.276,1.158,1.217-0.395,1.448,0.6c0.188,0.813-0.118,1.885-0.24,2.679c-0.208,1.362-0.457,2.718-0.637,4.084
			c-0.107,0.815-0.232,1.663-0.166,2.487c0.024,0.298,0.053,0.648,0.268,0.878c0.276,0.295,0.741,0.237,0.952,0.612
			c0.277,0.49,0.017,1.452-0.076,1.955c-0.268,1.441-0.667,2.858-1.009,4.282c-0.185,0.772-0.438,1.614-0.423,2.419
			c0.023,1.3,1.289-0.134,1.306,0.783c0.018,0.975-0.775,2.267-1.12,3.136c-0.426,1.074-0.876,2.162-1.128,3.293
			c-0.112,0.504-0.229,1.084,0.001,1.571c0.35,0.741,1.145,0.924,1.179,1.851c0.071,1.981-1.132,4.019-1.618,5.895
			c-0.183,0.708-0.354,1.37,0.147,1.969c0.521,0.622,0.644,1.119,0.616,1.93c-0.089,2.581-0.823,5.124-1.159,7.677
			c-0.197,1.502-0.088,2.647,0.29,4.099c0.517,1.983,0.397,4.103,0.308,6.131c-0.129,2.954-0.324,5.905-0.439,8.859
			c-0.22,5.625-0.16,11.258,0.277,16.871c0.203,2.6,0.422,5.246,0.99,7.796c0.187,0.843,0.49,1.671,0.564,2.535
			c0.071,0.828-0.044,1.666-0.126,2.488c-0.249,2.507-0.335,4.954-0.137,7.469c0.216,2.744,0.639,5.498,0.622,8.255
			c-0.013,2.035-0.705,3.985-0.629,6.024c0.103,2.749,0.803,5.496,1.294,8.191c0.205,1.124,0.397,2.258,0.464,3.399
			c0.07,1.211-0.052,2.418-0.053,3.628c-0.001,2.548,0.535,5.077,0.892,7.59c0.233,1.642,0.145,3.134-0.291,4.737
			c-0.524,1.924-1.321,3.926-1.272,5.956c0.047,1.94,1.22,3.496,2.997,4.233c1.434,0.595,3.054,0.612,4.581,0.567
			c2.797-0.081,5.563-0.314,8.365-0.234c2.72,0.078,5.435,0.262,8.157,0.243c1.274-0.009,2.546-0.054,3.818-0.107
			c1.551-0.064,3.163-0.267,4.713-0.194c1.353,0.064,2.697,0.316,4.06,0.358c1.214,0.037,2.427,0.026,3.641,0.001
			c2.71-0.057,5.421-0.139,8.132-0.142c3.625-0.005,7.251-0.009,10.876-0.014c2.388-0.003,4.837-0.076,7.185-0.549
			c1.229-0.248,2.756-0.63,3.555-1.693c1.053-1.399,0.542-3.511,0.337-5.082c-0.338-2.582-0.524-5.946-2.719-7.755
			c-2.342-1.929-5.83-0.969-8.439-2.383c-1.729-0.937-3.001-2.543-4.304-3.969c-1.738-1.903-3.739-3.533-5.517-5.395
			c-1.327-1.389-2.396-2.909-3.14-4.684c-0.974-2.324-1.512-4.82-2.237-7.227c-1.541-5.114-2.238-10.267-2.286-15.609
			c-0.024-2.625,0.081-5.266,0.494-7.861c0.441-2.775,1.305-5.434,2.095-8.122c0.665-2.261,1.064-4.458,1.257-6.803
			c0.087-1.055,0.273-2.064,0.933-2.921c1.005-1.306,2.579-2.039,3.582-3.342c0.563-0.732,0.766-1.526,0.761-2.434
			c-0.004-0.812-0.023-1.533,0.587-2.147c0.55-0.555,1.414-0.909,1.742-1.657c0.334-0.764,0.002-1.738-0.105-2.512
			c-0.196-1.427-0.073-2.588,0.537-3.888c0.667-1.422-0.24-2.862-0.045-4.341c0.169-1.284,0.747-2.297,0.515-3.626
			c-0.36-2.065-1.422-3.936-1.78-6.005c-0.328-1.893-0.075-3.889-0.165-5.805c-0.035-0.736-0.038-1.468,0.263-2.154
			c0.264-0.601,0.641-1.117,0.812-1.76c0.376-1.409,0.171-2.955,0.842-4.286c0.464-0.921,1.33-1.53,1.841-2.415
			c0.432-0.748,0.558-1.622,0.855-2.423c0.24-0.647,0.642-1.143,1.002-1.725c0.882-1.43,0.994-3.112,1.995-4.492
			c0.904-1.246,0.706-2.956,1.332-4.334c0.352-0.775,0.964-1.068,1.629-1.53c0.64-0.445,0.916-1.053,1.074-1.796
			c0.376-1.76,0.083-3.676,0.885-5.334c0.701-1.448,1.863-2.627,2.435-4.149c0.454-1.209,0.061-2.75,0.892-3.775
			c0.454-0.561,0.887-0.997,1.117-1.704c0.252-0.773,0.352-1.599,0.437-2.404c0.254-2.415,0.315-4.966,0.875-7.333
			c0.334-1.413,1.404-2.516,1.316-4.029c-0.109-1.87-0.875-3.634-0.914-5.522c-0.029-1.424,0.262-2.942-0.213-4.323
			c-0.449-1.306-1.424-2.35-1.831-3.68c-0.241-0.788-0.34-1.644-0.727-2.382c-0.402-0.767-1.213-1.293-1.454-2.147
			c-0.162-0.574-0.032-1.218,0.189-1.759c0.109-0.268,0.369-0.899,0.742-0.881c0.395,0.019,0.459,0.731,0.878,0.688
			c0.545-0.056,1.163-1.794,1.326-2.099c0.127-0.238,0.252-0.508,0.426-0.719c0.432-0.525,0.45-0.194,0.889,0.058
			c0.703,0.402,1.146-0.99,1.383-1.52c0.479-1.071,0.872-2.19,1.419-3.231c0.128-0.243,0.38-0.867,0.704-0.88
			c0.473-0.019,0.486,0.832,0.87,0.974c0.558,0.206,1.188-1.144,1.394-1.494c1.023-1.731,2.052-3.652,3.712-4.87
			c0.635-0.466,1.231-0.61,1.27,0.351c0.024,0.605-0.22,1.801,0.645,0.999c0.68-0.631,1.209-1.421,1.934-2.008
			c0.855-0.693,1.183-0.174,1.453,0.707c0.093,0.303,0.193,1.016,0.554,1.134c0.349,0.114,0.74-0.344,0.948-0.557
			c0.757-0.778,1.37-1.694,2.056-2.532c0.796-0.972,2.978-3.338,3.897-1.139c0.196,0.47-0.015,1.93,0.652,1.666
			c0.481-0.191,0.98-0.899,1.337-1.239c0.173-0.165,0.659-0.746,0.92-0.687c0.797,0.18-1.038,4.669-0.868,5.494
			c0.199,0.97,1.037-0.454,1.504-0.339c0.518,0.128-0.22,1.986-0.304,2.242c-0.806,2.443-1.727,4.841-2.149,7.39
			c-0.4,2.415-0.46,4.9-0.376,7.343c0.03,0.885,0.012,1.877,0.286,2.731c0.396,1.234,0.894-0.418,1.301-0.755
			c0.638-0.528,0.736,1.028,0.793,1.446c0.196,1.429,0.283,2.874,0.42,4.309c0.067,0.707,0.103,4.903,1.384,4.842
			c0.359-0.017,0.675-0.481,1.047-0.406c0.368,0.075,0.477,0.611,0.559,0.915c0.279,1.022,0.347,2.092,0.605,3.12
			c0.172,0.683,0.412,1.6,1.288,1.369c0.646-0.171,1.251-0.858,1.959-0.783c0.751,0.08,1.063,1.101,1.3,1.703
			c0.309,0.785,0.592,2.079,1.288,2.66c1.196,0.997,3.099-1.799,3.679-2.484c0.61-0.721,1.364-1.911,2.258-2.316
			c0.89-0.403,1.14,0.827,1.387,1.438c0.231,0.571,0.512,1.297,1.227,1.316c0.604,0.017,1.254-0.428,1.742-0.735
			c1.3-0.817,2.658-2.16,4.233-2.453c1.822-0.339,2.324,2.115,2.936,3.31c0.467,0.911,0.894,0.59,1.357-0.138
			c0.5-0.785,0.882-1.662,1.488-2.377c1.569-1.852,3.228,1.059,4.175,2.19c0.518,0.617,1.24,1.58,2.127,1.578
			c0.749-0.002,1.342-0.717,1.79-1.237c0.484-0.562,1.125-1.684,1.898-1.948c0.61-0.208,1.085,0.297,1.481,0.694
			c0.493,0.495,1.003,1.172,1.709,1.378c0.783,0.228,1.613-0.184,2.305-0.517c1.472-0.708,2.86-1.529,4.548-1.22
			c1.61,0.294,3.153,1.387,4.833,1.24c1.291-0.113,2.142-1.192,2.843-2.17c0.95-1.327,1.741-3.216,3.167-4.142
			c1.356-0.88,2.505,0.61,3.238,1.612c1.334,1.822,2.237,4.015,3.758,5.692c0.585,0.645,1.211,0.906,1.692,0.01
			c0.32-0.596,0.473-1.299,0.623-1.95c0.466-2.011,0.515-4.294,1.354-6.198c0.431-0.977,0.969-0.541,1.464,0.131
			c0.542,0.737,0.989,1.789,1.753,2.346c1.446,1.054,2.32-2.967,2.527-3.706c0.4-1.425,0.75-2.868,1.2-4.279
			c0.154-0.484,0.429-1.702,0.944-1.997c1.133-0.65,1.532,2.942,2.68,2.353c0.462-0.238,0.739-1.266,0.893-1.704
			c0.436-1.239,0.761-2.516,1.136-3.774c0.211-0.709,1.167-4.831,2.513-3.329c0.742,0.828,1.135,2.002,1.652,2.964
			c0.352,0.655,0.913,1.601,1.356,0.482c0.804-2.027,0.794-4.385,1.295-6.499c0.152-0.643,0.314-1.386,0.678-1.955
			c0.488-0.761,1.095-0.524,1.732-0.094c0.645,0.434,1.482,1.3,1.933,0.204c0.296-0.718,0.328-1.579,0.401-2.337
			c0.194-2.032,0.145-4.251,0.853-6.195c0.631-1.734,2.23-1.911,3.484-0.635c1.059,1.077,1.557,2.652,2.007,4.051
			c0.079,0.246,0.61,2.774,1.157,2.758c0.477-0.014,0.755-1.681,0.822-1.967c0.625-2.681,0.977-5.436,1.407-8.153
			c0.443-2.798,0.87-5.598,1.433-8.375c0.249-1.226,0.502-2.462,0.883-3.655c0.169-0.529,0.682-2.023,1.081-0.833
			c0.306,0.912,0.358,1.933,0.469,2.883c0.176,1.504,0.324,3.014,0.55,4.511c0.113,0.747,0.189,1.635,0.537,2.326
			c0.504,0.999,1.092-0.083,1.352-0.668c0.901-2.027,1.227-4.342,1.536-6.519c0.401-2.822,0.617-5.676,1.102-8.485
			c0.094-0.547,0.162-1.625,0.579-2.081c0.607-0.664,1.302,1.127,1.567,1.53c0.371,0.565,0.862,1.168,1.451,0.481
			c0.544-0.636,0.814-1.62,1.073-2.386c0.84-2.491,1.337-5.115,2.326-7.553c0.168-0.414,0.496-1.42,1.062-1.179
			c0.506,0.216,0.848,2.074,1.493,1.491c0.455-0.411,0.569-1.623,0.687-2.149c0.32-1.429,0.563-2.875,0.851-4.31
			c0.177-0.882,0.339-1.796,0.652-2.642c0.082-0.222,0.214-0.709,0.49-0.742c0.331-0.039,0.611,0.62,0.762,0.825
			c0.617,0.833,0.878-0.148,1.047-0.761c0.354-1.288,0.546-2.628,0.787-3.94c0.316-1.722,0.518-3.666,1.389-5.219
			c0.341-0.608,0.896-1.079,1.199-1.706c0.302-0.624,0.3-1.349,0.288-2.027c-0.038-2.024-0.642-4.309-0.13-6.31
			c0.26-1.017,0.943-0.929,1.709-1.403c0.582-0.36,0.602-1.023,0.582-1.643c-0.068-2.02-0.992-4.078-0.781-6.096
			c0.216-2.069,3.151,1.307,2.912-1.021c-0.226-2.197-1.308-4.242-1.582-6.439c-0.06-0.477-0.139-1.099,0.163-1.509
			c0.49-0.665,1.642-0.294,2.005-1.075c0.241-0.517,0.012-1.281-0.12-1.804c-0.323-1.281-0.812-2.522-1.235-3.771
			c-0.612-1.807-1.159-3.646-1.102-5.572c0.051-1.725,0.687-3.398,0.643-5.121c-0.04-1.525-0.727-2.799-1.328-4.163
			c-0.31-0.703-0.45-1.365-0.312-2.132c0.137-0.763,0.421-1.463,0.134-2.227c-0.403-1.074-1.184-1.869-1.378-3.039
			c-0.221-1.325,0.289-2.5-0.232-3.81c-0.479-1.201-1.11-2.237-1.196-3.548c-0.146-2.218,0.315-4.56,0.586-6.749
			c0.057-0.46,0.153-2.09,0.797-1.266c0.114,0.145,0.392,0.872,0.628,0.904c0.317,0.043,0.329-0.646,0.357-0.882
			c0.15-1.264,0.126-2.544,0.226-3.812c0.047-0.598,0.105-2.005,0.769-0.959c0.063,0.099,0.39,0.85,0.576,0.825
			c0.204-0.027,0.201-0.571,0.216-0.729c0.111-1.164,0.076-2.341,0.156-3.508c0.065-0.954,0.183-1.9,0.426-2.826
			c0.136-0.519,0.99-2.12,0.68-2.533c0.191,0.003,0.792-0.483,0.988-0.639c0.397-0.316,0.688-0.72,0.947-1.153
			c0.285-0.475,0.5-1.151,0.9-1.55c0.62-0.619,0.291,0.451,0.637,0.677c0.467,0.305,1.557-2.242,1.771-2.59
			c0.161-0.262,0.414-0.786,0.722-0.88c0.476-0.145,0.633,0.475,0.761,0.831c0.114,0.316,0.253,1.324,0.644,0.933
			c0.242-0.242,0.31-0.954,0.39-1.258c0.118-0.45,0.498-2.983,1.246-3.016c0.835-0.037,1.025,2.028,1.994,1.607
			c0.727-0.316,1.015-2.487,1.878-1.461c0.336,0.399,0.532,0.73,1.076,0.448c0.353-0.183,0.625-0.544,0.858-0.859
			c0.229-0.309,0.501-1.199,0.761-1.382c0.132-0.093,0.734,0.017,0.91,0.016c0.38-0.003,0.76-0.018,1.139-0.043
			c0.713-0.047,1.424-0.13,2.13-0.241c1.433-0.225,2.846-0.564,4.24-0.962c2.646-0.756,5.284-1.67,7.701-3
			c1.449-0.798,3.269-1.831,4.047-3.388c0.852-1.706-0.545-3.357-2.189-3.803c-0.995-0.27-2.05-0.274-3.071-0.346
			c-1.338-0.096-2.65-0.326-3.961-0.601c-0.843-0.177-1.685-0.359-2.53-0.53c2.693-0.347,5.383-0.722,8.056-1.203
			c2.014-0.363,4.22-0.626,6.085-1.517c1.282-0.612,1.788-1.566,1.468-2.939c-0.453-1.949-1.485-3.905-2.455-5.641
			c-1.048-1.874-2.357-3.284-4.07-4.558c0.734-0.569-0.294-2.368-0.616-2.932c-0.696-1.218-1.647-2.314-2.743-3.188
			c-1.613-1.288-3.689-1.448-5.373-2.6c-1.525-1.043-2.915-2.211-4.614-2.974c-1.368-0.614-2.829-1.035-4.311-1.258
			c-3.994-0.6-7.987,0.762-11.903,1.381c-4.462,0.705-8.917,1.459-13.379,2.161c-1.735,0.273-3.495,0.46-5.252,0.313
			c-2.138-0.179-4.209-0.789-6.246-1.434c-1.017-0.322-2.034-0.646-3.043-0.99c-0.444-0.151-0.964-0.267-1.377-0.491
			c-0.432-0.234-0.364-0.512-0.459-1.007c-0.216-1.131-0.545-2.268-1.116-3.275c-0.917-1.618-2.686-2.479-3.617-4.084
			c-0.684-1.178-0.962-2.54-1.591-3.742c-0.643-1.228-1.506-1.215-2.747-1.387c-1.091-0.151-2.069-0.743-3.198-0.638
			c-1.24,0.115-2.403,0.675-3.623,0.903c-1.307,0.245-2.615,0.074-3.935,0.073c-0.422,0-0.87,0.007-1.276,0.134
			c-0.705,0.221-0.978,0.797-1.362,1.375c-0.79,1.194-2.016,1.243-3.327,1.372c-1.248,0.122-2.166,0.223-2.624,1.527
			c-0.449,1.28-1.356,1.7-2.497,2.289c-0.415,0.214-0.957,0.447-1.265,0.817c-0.37,0.443-0.137,0.963-0.376,1.435
			c-0.459,0.908-2.415,0.974-3.231,1.264c-0.481,0.171-0.976,0.376-1.145,0.898c-0.165,0.508,0.031,1.055-0.388,1.474
			c-0.398,0.398-1.109,0.502-1.642,0.608c-0.956,0.19-1.935,0.264-2.886,0.478c-0.489,0.11-1.218,0.233-0.994,0.861
			c0.217,0.608,1.034,0.988,0.998,1.714c-0.063,1.262-2.826,2.058-3.696,2.434c-0.461,0.199-1.322,0.523-0.38,0.639
			c0.365,0.045,1.582-0.045,1.386,0.541c-0.118,0.351-0.845,0.689-1.152,0.867c-0.84,0.488-1.732,0.901-2.636,1.253
			c-0.822,0.319-1.721,0.238-2.569,0.543c-0.731,0.263-1.417,0.638-2.142,0.915c-0.809,0.31-1.654,0.507-2.48,0.767
			c-0.97,0.306-2.004,0.666-2.438,1.669c-0.26,0.603-0.323,1.275-0.843,1.734c-0.513,0.452-1.268,0.614-1.887,0.85
			c-0.485,0.185-1.106,0.385-0.882,1.002c0.214,0.588,0.842,1.046,1.199,1.553c0.686,0.976,0.656,1.839,0.073,2.863
			c-0.357,0.627-1.932,2.234-0.673,2.673C534.807,237.059,535.993,236.878,537.062,237.211z"/>
	</g>
</g>
</svg>
