<?xml version="1.0" encoding="utf-8"?>
<!-- Generator: Adobe Illustrator 26.3.1, SVG Export Plug-In . SVG Version: 6.00 Build 0)  -->
<!DOCTYPE svg PUBLIC "-//W3C//DTD SVG 1.1//EN" "http://www.w3.org/Graphics/SVG/1.1/DTD/svg11.dtd" [
	<!ENTITY ns_flows "http://ns.adobe.com/Flows/1.0/">
	<!ENTITY ns_extend "http://ns.adobe.com/Extensibility/1.0/">
	<!ENTITY ns_ai "http://ns.adobe.com/AdobeIllustrator/10.0/">
	<!ENTITY ns_graphs "http://ns.adobe.com/Graphs/1.0/">
	<!ENTITY ns_vars "http://ns.adobe.com/Variables/1.0/">
	<!ENTITY ns_imrep "http://ns.adobe.com/ImageReplacement/1.0/">
	<!ENTITY ns_sfw "http://ns.adobe.com/SaveForWeb/1.0/">
	<!ENTITY ns_custom "http://ns.adobe.com/GenericCustomNamespace/1.0/">
	<!ENTITY ns_adobe_xpath "http://ns.adobe.com/XPath/1.0/">
]>
<svg version="1.1" xmlns:x="&ns_extend;" xmlns:i="&ns_ai;" xmlns:graph="&ns_graphs;"
	 xmlns="http://www.w3.org/2000/svg" xmlns:xlink="http://www.w3.org/1999/xlink" xmlns:a="http://ns.adobe.com/AdobeSVGViewerExtensions/3.0/"
	 x="0px" y="0px" width="750px" height="750px" viewBox="0 0 750 750" enable-background="new 0 0 750 750" xml:space="preserve">
<metadata>
	<sfw  xmlns="&ns_sfw;">
		<slices></slices>
		<sliceSourceBounds  bottomLeftOrigin="true" height="12327.752" width="6411" x="-2000" y="-3314"></sliceSourceBounds>
	</sfw>
</metadata>
<g id="FILL-BACKGROUND">
	<rect fill="#FFFFFF" width="750" height="750"/>
</g>
<g id="N-DIMENSIONS">
</g>
<g id="N-TEXT">
</g>
<g id="_x32_D_x24_AG-DIAGRAM">
	<g id="POLYLINE_00000113354809769685617650000016976747944282009754_">
		<g>
			<g>
				
					<line fill="none" stroke="#FB8604" stroke-width="3.25" stroke-linecap="round" stroke-linejoin="round" x1="70.785" y1="527.448" x2="72.785" y2="527.448"/>
				
					<line fill="none" stroke="#FB8604" stroke-width="3.25" stroke-linecap="round" stroke-linejoin="round" stroke-dasharray="3.9931,6.9879" x1="79.773" y1="527.448" x2="636.309" y2="527.448"/>
				
					<line fill="none" stroke="#FB8604" stroke-width="3.25" stroke-linecap="round" stroke-linejoin="round" x1="639.803" y1="527.448" x2="641.803" y2="527.448"/>
			</g>
		</g>
	</g>
</g>
<g id="_x32_D_x24_AG-DETAILS-DIAGRAM">
</g>
<g id="_x32_D_x24_AG-DETAILS">
	<g id="POLYLINE_00000008132073594447166410000002771405383671749289_">
		<path fill="none" stroke="#FB8604" stroke-width="2" stroke-linecap="round" stroke-linejoin="round" stroke-miterlimit="10" d="
			M610.724,250.309c-0.718,0.878-1.602,1.742-2.173,2.726c-0.519,0.852-0.935,1.792-1.312,2.715
			c-0.584,1.445-1.121,3.058-1.575,4.551c-1.541,5.173-2.628,10.564-3.099,15.943c-0.312,3.838-0.336,7.765,0.441,11.551"/>
	</g>
	<g id="POLYLINE_00000077281835816535036250000002543429197447383713_">
		<path fill="none" stroke="#FB8604" stroke-width="2" stroke-linecap="round" stroke-linejoin="round" stroke-miterlimit="10" d="
			M643.923,242.102c1.463,1.113,3.19,2.376,4.423,3.725c1.607,1.712,2.971,3.695,4.235,5.669c2.285,3.623,4.282,7.503,5.89,11.474
			c1.269,3.176,2.334,6.494,2.847,9.881"/>
	</g>
	<g id="POLYLINE_00000090987646867974422890000006718823303989968013_">
		<path fill="none" stroke="#FB8604" stroke-width="2" stroke-linecap="round" stroke-linejoin="round" stroke-miterlimit="10" d="
			M646.985,238.549l1.708,0.79c0.927,0.443,1.832,0.967,2.652,1.586c1.463,1.102,2.751,2.46,3.946,3.843
			c1.9,2.228,3.612,4.674,5.032,7.236c1.007,1.833,1.886,3.765,2.464,5.778"/>
	</g>
	<g id="POLYLINE_00000155840630685866847570000011935685553190592690_">
		<path fill="none" stroke="#FB8604" stroke-width="2" stroke-linecap="round" stroke-linejoin="round" stroke-miterlimit="10" d="
			M616.359,246.022c-1.212,2.109-2.556,4.417-3.377,6.699c-1.174,3.172-1.819,6.56-2.297,9.9c-0.561,4.088-0.813,8.29-0.699,12.416
			c0.098,3.16,0.406,6.366,1.105,9.452"/>
	</g>
	<g id="POLYLINE_00000142141960769930018460000015728898231300007554_">
		<path fill="none" stroke="#FB8604" stroke-width="2" stroke-linecap="round" stroke-linejoin="round" stroke-miterlimit="10" d="
			M621.137,242.592l-0.712,2.771c-1.006,4.062-0.896,8.323-0.681,12.473c0.261,4.315,0.819,8.688,1.705,12.92
			c0.692,3.242,1.589,6.508,2.873,9.568"/>
	</g>
	<g id="POLYLINE_00000089575735658190289750000008795278499577000868_">
		<path fill="none" stroke="#FB8604" stroke-width="2" stroke-linecap="round" stroke-linejoin="round" stroke-miterlimit="10" d="
			M626.405,249.942c1.017,2.008,2.158,4.296,3.016,6.364c1.237,2.957,2.341,6.157,3.315,9.212
			c1.798,5.734,3.381,11.684,4.327,17.622"/>
	</g>
	<g id="POLYLINE_00000090980196317265245830000005224491727422103717_">
		<path fill="none" stroke="#FB8604" stroke-width="2" stroke-linecap="round" stroke-linejoin="round" stroke-miterlimit="10" d="
			M628.977,246.022c1.799,4.456,4.658,10.448,6.727,14.824c2.02,4.186,4.414,9.029,6.626,13.107"/>
	</g>
	<g id="POLYLINE_00000163793461508688755460000003320912097998342788_">
		<path fill="none" stroke="#FB8604" stroke-width="2" stroke-linecap="round" stroke-linejoin="round" stroke-miterlimit="10" d="
			M635.102,243.082c2.424,4,4.267,8.445,6.01,12.774c2.243,5.704,4.366,11.631,5.75,17.607"/>
	</g>
</g>
<g id="_x32_D_x24_AG-ANIMALS">
	<g id="POLYLINE_00000011712768756586867210000002731766929932209818_">
		
			<path fill="none" stroke="#FB8604" stroke-width="2.75" stroke-linecap="round" stroke-linejoin="round" stroke-miterlimit="10" d="
			M434.172,453.554c-1.19,4.799-2.378,9.936-3.175,14.811c-0.649,3.996-1.077,8.088-0.939,12.14
			c0.104,3.342,0.613,6.722,1.275,9.997c0.577,2.846,1.747,7.621,2.026,10.448c0.133,1.292,0.182,2.614,0.02,3.905
			c-0.194,1.62-0.799,3.236-1.959,4.413c-1.518,1.542-3.642,2.305-5.679,2.899c-1.763,0.497-3.657,0.86-5.462,1.177
			c-7.353,1.262-16.899,2.351-23.849,5.04c-1.488,0.565-2.982,1.22-4.369,2.003c-0.84,0.48-1.673,1.016-2.398,1.662
			c-0.709,0.643-1.348,1.394-1.509,2.297c-0.051,0.309-0.027,0.634,0.088,0.927c0.103,0.267,0.276,0.504,0.484,0.7
			c0.767,0.699,1.827,0.929,2.823,1.094c2.435,0.351,5.268,0.326,7.741,0.368c0,0,104.169-0.002,104.169-0.002l1.216-0.016
			c1.235-0.03,2.739-0.055,3.977-0.189c0.829-0.09,1.672-0.227,2.446-0.546c1.777-0.741,3.107-2.281,3.981-3.96
			c1.531-2.94,1.837-6.372,1.422-9.624c-0.511-4.454-2.776-10.263-4.134-14.564c-1.964-5.893-3.415-12.081-4.379-18.213
			c-0.799-4.988-1.446-10.392-1.81-15.429c-0.181-2.681-0.255-5.442,0.061-8.115c0.533-4.545,2.468-9.261,3.602-13.672
			c1.663-6.035,2.209-12.35,2.017-18.595"/>
	</g>
	<g id="POLYLINE_00000021101194542854314370000004339433087391216515_">
		
			<path fill="none" stroke="#FB8604" stroke-width="2.75" stroke-linecap="round" stroke-linejoin="round" stroke-miterlimit="10" d="
			M615.044,266.551l4.735,13.062c4.219,12.43,10.746,32.513,15.862,44.335c2.546,5.979,5.302,12.371,8.476,18.026
			c0.659,1.143,1.365,2.33,2.175,3.372c0.314,0.395,0.648,0.793,1.055,1.095l0.034,0.024l0.034,0.023l0.034,0.022l0.033,0.021
			l0.033,0.02l0.032,0.018l0.032,0.017l0.032,0.016l0.031,0.015l0.031,0.013l0.031,0.012l0.03,0.011l0.03,0.01l0.029,0.008
			l0.029,0.007l0.029,0.006l0.028,0.004c0.241,0.036,0.443-0.093,0.579-0.284c0.127-0.175,0.207-0.381,0.27-0.586
			c0.104-0.349,0.159-0.715,0.197-1.077c0.155-1.693-0.018-3.422-0.242-5.103c-0.422-2.996-1.152-6.12-1.876-9.061
			c-5.548-20.682-12.47-46.141-18.974-66.496"/>
	</g>
	<g id="POLYLINE_00000049180121660825377320000000810069970810041020_">
		
			<path fill="none" stroke="#FB8604" stroke-width="2.75" stroke-linecap="round" stroke-linejoin="round" stroke-miterlimit="10" d="
			M497.025,527.448l20.71-0.011c1.472-0.037,3.013-0.025,4.394-0.596c0.717-0.299,1.365-0.747,1.962-1.239
			c0.928-0.772,1.728-1.697,2.41-2.69c1.259-1.841,2.135-3.926,2.77-6.058c0.623-2.011,1.615-7.046,2.092-9.177
			c0.559-2.466,1.22-4.987,2.109-7.355c1.797-4.98,5.08-9.226,8.535-13.17c3.577-4.037,8.042-8.849,11.434-13.015
			c5.115-6.23,9.998-12.873,14.163-19.78c3.372-5.549,6.493-12.241,9.295-18.12c1.226-2.536,2.762-5.684,4.222-8.102
			c1.379-2.301,2.991-4.52,4.786-6.515c1.813-2.027,3.878-3.881,5.983-5.598l5.126-4.071c2.663-2.159,5.224-4.535,7.198-7.353
			c1.487-2.087,2.605-4.431,3.459-6.843c1.593-4.449,2.643-9.837,3.71-14.46c0.402-1.704,0.875-3.483,1.462-5.131
			c0.609-1.734,1.383-3.444,2.26-5.059c1.431-2.575,3.201-5.503,4.247-8.256c0.759-1.925,1.334-3.952,1.595-6.007
			c0.421-3.178,0.061-7.025-0.093-10.229c-0.137-2.642,0.108-5.316,0.827-7.866c0.412-1.447,0.961-3.216,1.173-4.689
			c0.279-1.763,0.358-3.613,0.408-5.396c0.114-3.987-0.045-9.295-0.079-13.305c0.003-1.003,0.035-2.076,0.126-3.074
			c0.107-1.225,0.315-2.469,0.585-3.669c0.378-1.763,2.301-8.667,2.785-10.51"/>
	</g>
	<g id="POLYLINE_00000059273598374848846790000013362362644093532826_">
		
			<path fill="none" stroke="#FB8604" stroke-width="2.75" stroke-linecap="round" stroke-linejoin="round" stroke-miterlimit="10" d="
			M632.416,278.911c0.534-1.453,1.169-2.964,1.858-4.349c1.227-2.471,2.993-5.465,4.164-7.957c2.059-4.289,3.496-8.915,4.577-13.54"
			/>
	</g>
	<g id="POLYLINE_00000099660665098600559120000012597477874439713967_">
		
			<line fill="none" stroke="#FB8604" stroke-width="2.75" stroke-linecap="round" stroke-linejoin="round" stroke-miterlimit="10" x1="634.222" y1="263.054" x2="634.255" y2="263.122"/>
	</g>
	<g id="POLYLINE_00000180328632473122881780000000832817030936420225_">
		
			<path fill="none" stroke="#FB8604" stroke-width="2.75" stroke-linecap="round" stroke-linejoin="round" stroke-miterlimit="10" d="
			M637.102,269.248c2.825,6.396,5.484,13.427,7.764,20.042c2.566,7.553,4.888,15.45,6.501,23.262
			c0.886,4.244,1.537,8.78,2.015,13.092c0.36,3.265,1.052,11.145,1.583,14.27c0.243,1.367,0.49,2.778,1.1,4.037
			c0.335,0.676,1.038,1.575,1.879,1.135l0.019-0.01l0.019-0.011l0.019-0.011l0.019-0.012c0.305-0.195,0.528-0.493,0.718-0.797
			c0.378-0.622,0.633-1.32,0.852-2.012c0.543-1.771,0.847-3.645,1.079-5.481c0.353-2.888,0.479-5.901,0.484-8.813
			c-0.053-11.064-1.56-22.29-3.596-33.155c-2.378-12.4-5.796-24.778-11.231-36.205"/>
	</g>
	<g id="POLYLINE_00000121262993517054296210000015597042665289335168_">
		
			<path fill="none" stroke="#FB8604" stroke-width="2.75" stroke-linecap="round" stroke-linejoin="round" stroke-miterlimit="10" d="
			M516.064,527.445l97.05,0.002c0.308-0.009,0.968-0.006,1.287-0.031c0.416-0.024,0.848-0.061,1.258-0.141
			c0.682-0.126,1.337-0.391,1.841-0.88c0.479-0.453,0.83-1.031,1.073-1.64c0.162-0.421,0.298-0.863,0.318-1.316
			c0.011-0.296-0.064-0.601-0.248-0.837c-0.311-0.399-0.794-0.61-1.257-0.779c-1.159-0.394-2.423-0.564-3.632-0.742
			c-6.074-0.781-13.783-1.292-19.791-2.349c-3.12-0.524-6.243-1.291-9.206-2.407c-2.172-0.77-5.98-2.555-8.124-3.492
			c-2.569-1.136-9.46-3.822-11.996-5.006c-1.15-0.542-2.336-1.13-3.365-1.884c-0.621-0.457-1.198-0.997-1.61-1.653
			c-0.518-0.814-0.733-1.784-0.784-2.739c-0.078-1.478,0.135-2.986,0.323-4.449c1.01-7.085,2.139-14.401,4.579-21.153
			c1.488-4.069,3.294-8.884,4.325-13.06c1.153-4.479,1.928-9.143,2.444-13.738"/>
	</g>
	<g id="POLYLINE_00000158746972875812640730000015831222439569195436_">
		
			<line fill="none" stroke="#FB8604" stroke-width="2.75" stroke-linecap="round" stroke-linejoin="round" stroke-miterlimit="10" x1="189.136" y1="527.448" x2="405.895" y2="527.448"/>
	</g>
	<g id="POLYLINE_00000093165764491999556640000009417434247672026275_">
		
			<path fill="none" stroke="#FB8604" stroke-width="2.75" stroke-linecap="round" stroke-linejoin="round" stroke-miterlimit="10" d="
			M110.531,492.049c7.945,3.643,16.387,7.271,24.685,9.98c6.691,2.203,13.67,3.832,20.708,4.341
			c4.578,0.362,14.037,0.791,18.463,1.624c3.137,0.529,6.248,1.399,9.236,2.487c3.099,1.127,6.224,2.504,9.143,4.041
			c1.722,0.922,3.461,1.914,5.011,3.108c0.882,0.691,1.731,1.469,2.317,2.434c0.331,0.542,0.551,1.15,0.676,1.771
			c0.282,1.453,0.496,3.289-0.793,4.33c-0.441,0.363-0.981,0.58-1.526,0.731c-0.903,0.248-1.863,0.348-2.795,0.42
			c-1.003,0.074-2.165,0.101-3.172,0.116c0,0-96.128,0.014-96.128,0.014s-0.655-0.001-0.655-0.001
			c-0.787-0.01-1.713-0.02-2.497-0.164c-1.07-0.176-2.08-0.636-2.888-1.405c-0.807-0.755-1.412-1.705-1.927-2.676
			c-0.877-1.68-1.532-3.512-2.129-5.308c-1.088-3.347-1.965-6.925-2.658-10.376c-0.545-2.869-1.06-5.874-1.203-8.792
			c-0.164-2.964,0.176-5.921,1.107-8.745c0.703-2.175,1.66-4.307,2.667-6.357c1.524-3.074,3.304-6.077,5.265-8.892
			c2.602-3.729,5.613-7.239,8.984-10.294c8.002-7.213,17.725-12.348,27.444-16.853c3.876-1.772,15.191-6.702,18.764-8.607
			c1.816-0.94,3.662-1.986,5.343-3.152c2.816-1.922,5.271-4.365,7.487-6.943c2.888-3.413,6.54-7.758,9.579-10.954
			c3.727-3.958,7.866-7.868,12.036-11.36c5.923-4.968,12.467-9.508,19.069-13.53c6.712-4.061,13.858-7.835,21.079-10.897
			c5.507-2.341,11.273-4.286,17.076-5.746c6.999-1.789,14.583-2.965,21.752-3.922c12.354-1.572,36.566-4.064,48.399-6.52
			c3.279-0.656,6.676-1.454,9.877-2.421c3.588-1.082,7.181-2.442,10.56-4.062c3.352-1.597,6.652-3.551,9.771-5.567
			c8.024-5.254,16.778-11.382,25.549-15.215c5.862-2.627,13.635-4.895,19.621-7.256c2.61-1.044,5.232-2.223,7.566-3.803
			c1.903-1.282,3.633-2.837,5.126-4.578c1.894-2.196,3.444-4.713,4.865-7.235c7.166-13.075,12.751-24.641,26.661-31.848
			c6.984-3.691,16.316-5.797,23.905-8.002c2.742-0.814,5.574-1.691,8.151-2.932c1.906-0.91,3.722-2.039,5.335-3.406
			c2.408-1.995,4.94-5.261,6.998-7.645c1.992-2.311,4.133-4.57,6.512-6.486c5.459-4.492,12.949-6.94,19.27-9.944
			c2.675-1.286,5.285-2.793,7.6-4.659c1.766-1.411,3.35-3.074,4.745-4.85c1.903-2.445,4.188-5.649,6.479-7.702
			c3.233-2.924,7.085-5.123,11.076-6.838c4.411-1.895,9.606-2.926,14.065-4.696c2.231-0.874,7.391-3.02,9.582-3.718
			c1.532-0.508,3.129-0.903,4.735-1.083c1.495-0.175,3.059-0.178,4.564-0.138c4.349,0.146,10.118,0.395,14.419,0.162
			c2.858-0.122,5.735-0.51,8.483-1.319c1.462-0.427,4.125-1.3,5.584-1.568c1.664-0.331,3.399-0.483,5.092-0.559
			c3.771-0.18,7.839,0.173,11.542-0.686c1.95-0.458,4.095-1.008,6.085-1.134c1.543-0.114,3.106-0.029,4.634,0.208
			c2.978,0.466,5.916,1.349,8.743,2.385c3.429,1.261,6.765,2.884,9.783,4.948c1.179,0.798,2.763,1.945,3.956,2.706
			c1.058,0.685,3.054,1.896,4.044,2.641c1.72,1.25,3.3,2.719,4.64,4.37c1.269,1.568,2.335,3.327,3.011,5.232
			c0.896,2.534,1.118,5.267,1.235,7.934c0.063,3.134,0.244,7.126,0.175,10.236c-0.038,1.349-0.128,2.744-0.344,4.076
			c-0.237,1.486-0.651,2.957-1.309,4.313c-0.424,0.864-0.94,1.705-1.633,2.38c-0.52,0.5-1.22,0.954-1.973,0.831
			c-0.393-0.065-0.738-0.291-1.03-0.552c-0.621-0.568-1.074-1.3-1.491-2.024c-0.633-1.099-1.331-2.708-1.931-3.832
			c-0.148-0.271-0.312-0.552-0.493-0.803c-0.165-0.219-0.353-0.463-0.615-0.565l-0.009-0.003l-0.009-0.003l-0.009-0.003
			l-0.009-0.003l-0.009-0.002l-0.009-0.002l-0.009-0.002l-0.009-0.002l-0.009-0.002l-0.009-0.001l-0.009-0.001l-0.009-0.001
			l-0.009-0.001l-0.009-0.001l-0.009-0.001l-0.009,0l-0.009,0l-0.009,0l-0.009,0l-0.009,0l-0.009,0.001l-0.009,0.001l-0.009,0.001
			l-0.009,0.001l-0.009,0.001l-0.009,0.002l-0.009,0.002l-0.009,0.002l-0.009,0.002l-0.009,0.002l-0.008,0.003l-0.008,0.003
			l-0.008,0.003l-0.008,0.003l-0.008,0.003l-0.008,0.004l-0.008,0.004l-0.008,0.004l-0.008,0.004l-0.008,0.004l-0.008,0.004
			l-0.008,0.005l-0.008,0.005l-0.008,0.005l-0.008,0.005c-0.131,0.086-0.226,0.217-0.307,0.349
			c-0.168,0.283-0.283,0.601-0.385,0.913c-0.666,2.289-1.048,4.787-2.11,6.941c-0.373,0.76-0.831,1.494-1.437,2.09
			c-0.503,0.496-1.112,0.88-1.758,1.161c-1.067,0.465-2.232,0.685-3.379,0.85c-2.299,0.297-4.892,0.489-7.161,1.061
			c-2.859,0.666-6.537,1.8-9.456,1.882c-1.765,0.071-3.553-0.157-5.225-0.734c-1.696-0.58-3.266-1.519-4.621-2.689
			c-1.448-1.246-2.669-2.75-3.714-4.344c-2.622-4.041-4.258-8.688-5.181-13.398"/>
	</g>
	<g id="POLYLINE_00000126309832279466394850000000602975069146226868_">
		
			<path fill="none" stroke="#FB8604" stroke-width="2.75" stroke-linecap="round" stroke-linejoin="round" stroke-miterlimit="10" d="
			M622.146,216.196c1.459-0.105,2.982,0.07,4.357,0.579c0.64,0.251,1.289,0.591,1.702,1.159c0.302,0.418,0.392,0.952,0.355,1.458
			c-0.077,0.988-0.497,1.915-0.901,2.807"/>
	</g>
	<g id="POLYLINE_00000056389145240921945710000004719914873003205302_">
		
			<path fill="none" stroke="#FB8604" stroke-width="2.75" stroke-linecap="round" stroke-linejoin="round" stroke-miterlimit="10" d="
			M630.168,214.508c-0.207,0.449-0.427,0.931-0.374,1.437c0.025,0.26,0.126,0.506,0.258,0.729c0.216,0.361,0.508,0.673,0.823,0.949
			c0.648,0.559,1.417,0.99,2.248,1.202c0.862,0.223,1.773,0.205,2.644,0.045"/>
	</g>
</g>
<g id="_x32_D_x24_AG-OUTLINE">
	<g id="POLYLINE_00000046315690378625876940000015012083328461368205_">
		
			<path fill="none" stroke="#FB8604" stroke-width="3.5" stroke-linecap="round" stroke-linejoin="round" stroke-miterlimit="10" d="
			M632.416,278.911c0.655-1.797,1.46-3.619,2.346-5.315l2.34-4.348c2.825,6.396,5.484,13.427,7.764,20.042
			c2.566,7.553,4.888,15.45,6.501,23.262c0.886,4.244,1.537,8.78,2.015,13.092c0.36,3.265,1.052,11.145,1.583,14.27
			c0.243,1.367,0.49,2.778,1.1,4.037c0.335,0.676,1.038,1.575,1.879,1.135l0.019-0.01l0.019-0.011l0.019-0.011l0.019-0.012
			c0.305-0.195,0.528-0.493,0.718-0.797c0.378-0.622,0.633-1.32,0.852-2.012c0.543-1.771,0.847-3.645,1.079-5.481
			c0.353-2.888,0.479-5.901,0.484-8.813c-0.053-11.064-1.56-22.29-3.596-33.155c-2.378-12.4-5.796-24.778-11.231-36.205
			c0.3,0.245,0.659,0.439,1.051,0.464c0.343,0.024,0.686-0.072,0.989-0.229c0.506-0.263,0.924-0.669,1.286-1.104
			c0.605-0.737,1.069-1.588,1.444-2.462c0.656-1.526,1.012-3.174,1.198-4.821c0.416-3.544,0.1-8.852,0.05-12.463
			c-0.104-2.924-0.283-5.929-1.263-8.71c-0.713-2.007-1.856-3.85-3.217-5.482c-1.186-1.418-2.551-2.702-4.024-3.816
			c-1.82-1.39-4.255-2.734-6.12-4.064c-2.115-1.492-4.418-3.069-6.735-4.221c-3.608-1.812-7.47-3.216-11.393-4.17
			c-2.162-0.51-4.398-0.865-6.625-0.775c-2.248,0.053-4.601,0.658-6.783,1.171c-3.702,0.859-7.773,0.506-11.542,0.686
			c-1.694,0.075-3.429,0.228-5.092,0.559c-1.453,0.262-4.143,1.151-5.584,1.568c-2.748,0.809-5.625,1.197-8.483,1.319
			c-4.283,0.233-10.086-0.016-14.419-0.162c-1.505-0.039-3.068-0.037-4.564,0.138c-1.606,0.18-3.203,0.575-4.735,1.083
			c-2.187,0.694-7.392,2.862-9.582,3.718c-4.459,1.77-9.654,2.801-14.065,4.696c-3.991,1.715-7.843,3.914-11.076,6.838
			c-2.287,2.042-4.586,5.275-6.479,7.702c-1.396,1.777-2.979,3.438-4.745,4.85c-2.316,1.866-4.925,3.373-7.6,4.659
			c-6.329,3.009-13.804,5.449-19.27,9.944c-2.379,1.915-4.52,4.175-6.512,6.486c-2.115,2.456-4.665,5.753-7.173,7.792
			c-3.802,3.194-8.611,4.823-13.311,6.192c-7.622,2.219-16.901,4.304-23.905,8.002c-13.914,7.209-19.498,18.78-26.661,31.848
			c-1.423,2.523-2.97,5.038-4.865,7.235c-1.493,1.741-3.223,3.296-5.126,4.578c-2.334,1.58-4.955,2.759-7.566,3.803
			c-5.993,2.363-13.755,4.627-19.621,7.256c-8.757,3.825-17.546,9.973-25.549,15.215c-3.117,2.015-6.42,3.97-9.771,5.567
			c-3.378,1.62-6.974,2.981-10.56,4.062c-16.172,4.798-41.428,6.662-58.275,8.941c-7.183,0.96-14.747,2.131-21.753,3.922
			c-5.803,1.46-11.569,3.405-17.076,5.746c-7.22,3.061-14.368,6.836-21.079,10.897c-5.919,3.61-11.854,7.665-17.241,12.027
			c-4.364,3.53-8.701,7.5-12.598,11.537c-3.576,3.647-7.528,8.366-10.846,12.281c-2.217,2.579-4.67,5.021-7.487,6.943
			c-6.031,4.167-17.395,8.601-24.106,11.76c-10.238,4.759-20.532,10.199-28.744,18.07c-4.999,4.848-9.122,10.607-12.341,16.773
			c-1.969,3.86-3.841,7.92-4.289,12.277c-0.29,2.688-0.053,5.426,0.309,8.096c0.626,4.397,1.617,8.879,2.856,13.144
			c0.729,2.388,1.498,4.814,2.624,7.049c0.553,1.069,1.196,2.12,2.092,2.937c0.486,0.443,1.049,0.802,1.664,1.037
			c0.863,0.336,1.812,0.43,2.733,0.463c158.376-0.059,362.622,0.203,520.495-0.091c0.6-0.081,1.203-0.227,1.723-0.548
			c0.329-0.202,0.615-0.469,0.858-0.768c0.478-0.596,0.803-1.312,0.975-2.055c0.068-0.298,0.106-0.613,0.038-0.914
			c-0.052-0.244-0.192-0.461-0.372-0.631c-0.346-0.319-0.792-0.499-1.232-0.648c-0.768-0.249-1.594-0.399-2.391-0.531
			c-3.814-0.595-10.867-1.158-14.744-1.639c-4.23-0.527-8.557-1.119-12.634-2.362c-3.997-1.165-8.661-3.506-12.523-5.125
			c-3.436-1.494-9.698-3.727-12.767-5.564c-0.856-0.522-1.693-1.127-2.302-1.933c-0.549-0.713-0.847-1.588-0.958-2.474
			c-0.149-1.258-0.035-2.548,0.109-3.802c0.999-7.508,2.182-15.241,4.738-22.395c1.488-4.069,3.294-8.884,4.325-13.06
			c1.153-4.479,1.928-9.143,2.444-13.738c2.776-5.145,6.042-12.507,8.733-17.715c1.177-2.257,2.499-4.523,4.002-6.577
			c2.409-3.342,5.409-6.252,8.605-8.837l5.126-4.071c2.663-2.159,5.224-4.535,7.198-7.353c1.487-2.087,2.605-4.431,3.459-6.843
			c1.593-4.449,2.643-9.837,3.71-14.46c0.402-1.704,0.875-3.483,1.462-5.131c0.609-1.734,1.383-3.444,2.26-5.059
			c1.431-2.575,3.201-5.503,4.247-8.256c0.759-1.925,1.334-3.952,1.595-6.007c0.421-3.178,0.061-7.025-0.093-10.229
			c-0.137-2.642,0.108-5.316,0.827-7.866c0.412-1.447,0.961-3.216,1.173-4.689c0.279-1.763,0.358-3.613,0.408-5.396
			c0.114-3.987-0.045-9.295-0.079-13.305c0.003-1.003,0.035-2.076,0.126-3.074c0.107-1.225,0.315-2.469,0.585-3.669
			c0.378-1.763,2.301-8.667,2.785-10.51c3.199,9.435,7.021,19.52,11.018,28.65c1.949,4.399,4.058,9.031,6.419,13.221
			c0.659,1.143,1.365,2.33,2.175,3.372c0.315,0.395,0.648,0.793,1.055,1.095l0.034,0.024l0.034,0.023l0.034,0.022l0.033,0.021
			l0.033,0.02l0.032,0.018l0.032,0.017l0.032,0.016l0.031,0.015l0.031,0.013l0.031,0.012l0.03,0.011l0.03,0.01l0.029,0.008
			l0.029,0.007l0.029,0.006l0.028,0.004c0.211,0.031,0.4-0.065,0.533-0.225c0.279-0.345,0.379-0.836,0.453-1.264
			c0.183-1.227,0.126-2.489,0.027-3.722c-0.223-2.522-0.747-5.11-1.296-7.582C643.457,317.174,637.179,295.546,632.416,278.911z"/>
	</g>
</g>
</svg>
