<?xml version="1.0" encoding="utf-8"?>
<!-- Generator: Adobe Illustrator 26.3.1, SVG Export Plug-In . SVG Version: 6.00 Build 0)  -->
<!DOCTYPE svg PUBLIC "-//W3C//DTD SVG 1.1//EN" "http://www.w3.org/Graphics/SVG/1.1/DTD/svg11.dtd" [
	<!ENTITY ns_flows "http://ns.adobe.com/Flows/1.0/">
	<!ENTITY ns_extend "http://ns.adobe.com/Extensibility/1.0/">
	<!ENTITY ns_ai "http://ns.adobe.com/AdobeIllustrator/10.0/">
	<!ENTITY ns_graphs "http://ns.adobe.com/Graphs/1.0/">
	<!ENTITY ns_vars "http://ns.adobe.com/Variables/1.0/">
	<!ENTITY ns_imrep "http://ns.adobe.com/ImageReplacement/1.0/">
	<!ENTITY ns_sfw "http://ns.adobe.com/SaveForWeb/1.0/">
	<!ENTITY ns_custom "http://ns.adobe.com/GenericCustomNamespace/1.0/">
	<!ENTITY ns_adobe_xpath "http://ns.adobe.com/XPath/1.0/">
]>
<svg version="1.1" xmlns:x="&ns_extend;" xmlns:i="&ns_ai;" xmlns:graph="&ns_graphs;"
	 xmlns="http://www.w3.org/2000/svg" xmlns:xlink="http://www.w3.org/1999/xlink" xmlns:a="http://ns.adobe.com/AdobeSVGViewerExtensions/3.0/"
	 x="0px" y="0px" width="750px" height="750px" viewBox="0 0 750 750" enable-background="new 0 0 750 750" xml:space="preserve">
<metadata>
	<sfw  xmlns="&ns_sfw;">
		<slices></slices>
		<sliceSourceBounds  bottomLeftOrigin="true" height="8221.285" width="4352" x="-2000" y="686"></sliceSourceBounds>
	</sfw>
</metadata>
<g id="FILL-BACKGROUND">
	<rect fill="#FFFFFF" width="750" height="750"/>
</g>
<g id="N-DIMENSIONS">
</g>
<g id="N-TEXT">
</g>
<g id="_x32_D_x24_AG-DETAILS-DIAGRAM">
</g>
<g id="_x32_D_x24_AG-DETAILS">
</g>
<g id="_x32_D_x24_AG-ANIMALS">
	<g id="POLYLINE_00000155829838972531090530000004062307973889070723_">
		
			<path fill="none" stroke="#FB8604" stroke-width="2.75" stroke-linecap="round" stroke-linejoin="round" stroke-miterlimit="10" d="
			M269.611,454.245c2.539-9.106,6.031-18.052,10.786-26.236c6.757-11.61,15.213-22.324,25.118-31.409"/>
	</g>
	<g id="POLYLINE_00000132074941984895810850000001287465785789106088_">
		
			<path fill="none" stroke="#FB8604" stroke-width="2.75" stroke-linecap="round" stroke-linejoin="round" stroke-miterlimit="10" d="
			M340.1,514.095c7.684-1.829,15.254-4.467,22.229-8.196c11.219-6.039,21.268-14.315,29.479-24.048"/>
	</g>
	<g id="POLYLINE_00000005252117540597755470000003485955139403337649_">
		
			<path fill="none" stroke="#FB8604" stroke-width="2.75" stroke-linecap="round" stroke-linejoin="round" stroke-miterlimit="10" d="
			M381.529,466.464c3.534,6.257,7.416,12.488,12.367,17.731c3.676,3.931,7.96,7.305,12.587,10.049
			c5.196,3.093,10.807,5.532,16.516,7.505c39.341,13.437,82.521,6.211,122.91,2.156c6.001-0.659,18.933-1.274,24.654-2.482
			c4.076-0.778,8.109-2.14,11.568-4.475c5.146-3.463,9.015-8.552,11.873-14c4.683-8.938,6.632-19.067,7.05-29.082
			c0.927-21.065-3.978-43.8-7.573-64.526c-1.867-11.195-3.039-22.695-2.317-34.044c1.249-20.681,8.152-44.234,12.201-64.559
			c1.959-9.966,3.136-20.233,2.721-30.398c-0.46-12.111-3.01-26.039-3.783-38.13c-0.797-12.615-0.36-25.472,1.635-37.961
			c0.558-3.762,1.838-8.107,1.617-11.907c-0.09-1.117-0.402-2.237-1.036-3.171c-0.767-1.16-1.996-1.974-3.339-2.309
			c-2.301-0.551-4.701-0.029-6.977,0.417l-7.648,1.715c-6.709,1.422-13.662,1.798-20.506,1.79
			c-9.386-0.068-18.974-0.779-28.215-2.429c-5.837-1.065-12.035-2.705-17.969-2.671c-7.504-0.029-15.124,1.605-22.438,3.182
			c-28.335,6.295-58.684,17.583-87.859,18.669c-17.899,0.796-37.298-3.471-55.071-5.126c-12.792-1.188-25.865-1.213-38.545,1.021
			c-8.439,1.51-16.86,3.895-24.467,7.912c-5.315,2.827-10.286,6.57-13.803,11.51c-6.089,8.669-7.345,19.618-8.43,29.889
			c-1.872,23.938-4.777,49.971-4.319,73.946c0.279,18.296,3.137,36.854,11.249,53.412c10.337,21.611,28.547,38.941,49.842,49.659"/>
	</g>
	<g id="POLYLINE_00000031888569278704048100000010988172878942328755_">
		
			<path fill="none" stroke="#FB8604" stroke-width="2.75" stroke-linecap="round" stroke-linejoin="round" stroke-miterlimit="10" d="
			M308.799,467.672l-8.221,2.548l-30.665,8.542c-8.487,2.436-17.532,5.543-25.585,9.185c-2.33,0.953-4.753,1.844-7.262,2.154
			c-1.929,0.253-3.897,0.113-5.81-0.205c-5.698-0.978-11.651-3.253-17.418-3.842c-3.005-0.393-7.012-0.223-10.003-0.727
			c-0.364-0.084-0.742-0.183-1.045-0.41l-0.015-0.012l-0.015-0.012l-0.015-0.012l-0.014-0.013l-0.014-0.013l-0.013-0.013
			c-0.189-0.179-0.259-0.441-0.23-0.695c0.03-0.292,0.148-0.569,0.277-0.829c0.515-0.983,1.241-1.868,1.942-2.723l4.118-4.789
			c3.204-3.799,7.636-9.47,11.123-12.901c2.082-2.057,4.416-3.921,7.061-5.202c3.764-1.86,8.045-2.289,12.188-2.428
			c4.859-0.152,12.053,0.231,16.909,0.091c5.449-0.134,11.132-0.765,16.532-1.527c9.051-1.487,22.7-3.127,31.457-5.362
			c3.663-0.921,7.227-2.568,10.583-4.287"/>
	</g>
	<g id="POLYLINE_00000070096022812061243230000008257386840720061828_">
		
			<path fill="none" stroke="#FB8604" stroke-width="2.75" stroke-linecap="round" stroke-linejoin="round" stroke-miterlimit="10" d="
			M351.573,489.598c-4.104,6.554-7.326,13.777-10.156,20.964c-1.913,4.93-3.622,10.048-4.335,15.303
			c-1.072,6.717,0.847,13.656,1.288,20.331c0.523,6.732-1.451,13.433-4.698,19.285c-1.722,3.099-3.816,6.024-6.323,8.537
			c-2.515,2.578-6.016,4.814-8.996,6.837c-2.258,1.521-4.429,3.263-6.075,5.451c-0.735,0.9-1.566,2.164-2.399,2.979
			c-0.154,0.141-0.321,0.28-0.52,0.352l-0.012,0.004l-0.012,0.004l-0.012,0.003l-0.012,0.003l-0.012,0.003l-0.012,0.003
			l-0.011,0.002l-0.011,0.002l-0.011,0.002l-0.011,0.002l-0.011,0.001l-0.011,0.001l-0.011,0.001l-0.011,0.001l-0.011,0l-0.011,0
			l-0.011,0l-0.011,0l-0.011-0.001l-0.011-0.001l-0.008-0.001l-0.008-0.001l-0.008-0.001l-0.008-0.001l-0.008-0.002l-0.008-0.002
			l-0.008-0.002l-0.008-0.002l-0.008-0.002l-0.008-0.002l-0.008-0.003l-0.008-0.003l-0.008-0.003l-0.008-0.003l-0.008-0.003
			l-0.008-0.003l-0.008-0.003l-0.008-0.004l-0.008-0.004c-0.139-0.073-0.238-0.203-0.318-0.335c-0.393-0.73-0.494-1.586-0.62-2.395
			c-0.389-3.086-0.374-6.816-0.907-9.881c-0.445-3.013-1.927-7.411-2.778-10.366c-1.191-4.099-2.068-8.433-1.317-12.696
			c0.964-5.852,3.781-11.621,5.271-17.34c1.787-6.455,3.258-14.686,5.054-21.133c1.664-6.062,4.068-12.381,6.365-18.243"/>
	</g>
	<g id="POLYLINE_00000093871454770348627600000008366037927842397606_">
		
			<path fill="none" stroke="#FB8604" stroke-width="2.75" stroke-linecap="round" stroke-linejoin="round" stroke-miterlimit="10" d="
			M141.255,583.912c-4.538,0.766-9.192,1.431-13.803,1.111c-0.839-0.097-1.738-0.178-2.474-0.626l-0.022-0.015l-0.021-0.015
			l-0.02-0.015l-0.02-0.015l-0.019-0.016l-0.019-0.016l-0.018-0.016l-0.017-0.016l-0.017-0.016l-0.016-0.016l-0.016-0.016
			l-0.015-0.017l-0.014-0.017l-0.014-0.017l-0.013-0.017l-0.012-0.017l-0.012-0.017l-0.011-0.018l-0.011-0.018l-0.01-0.018
			l-0.009-0.018l-0.009-0.018l-0.008-0.018l-0.007-0.019l-0.007-0.019l-0.005-0.015l-0.005-0.015l-0.004-0.016l-0.004-0.016
			l-0.003-0.016l-0.003-0.016l-0.002-0.016l-0.002-0.016l-0.002-0.016l-0.001-0.016l-0.001-0.016l0-0.017l0-0.017l0.001-0.017
			l0.001-0.017l0.001-0.017l0.002-0.017l0.002-0.017l0.003-0.017l0.003-0.017l0.003-0.017l0.004-0.018l0.004-0.018l0.005-0.018
			l0.005-0.018l0.005-0.018l0.006-0.018l0.006-0.018c0.086-0.235,0.24-0.44,0.403-0.628c0.66-0.725,1.502-1.273,2.322-1.8
			c11.574-6.778,34.627-14.361,47.272-19.498c19.013-7.575,38.625-16.225,56.74-25.729c11.876-6.263,23.665-13.263,34.171-21.65
			c8.162-6.461,15.699-13.885,22.658-21.622c32.747-37.366,73.431-97.999,106.15-135.373l15.369-17.508"/>
	</g>
	<g id="POLYLINE_00000119803726071073690160000010068666870044673679_">
		
			<path fill="none" stroke="#FB8604" stroke-width="2.75" stroke-linecap="round" stroke-linejoin="round" stroke-miterlimit="10" d="
			M181.738,570.834c-5.006,1.984-12.843,5.054-17.869,6.793"/>
	</g>
	<g id="POLYLINE_00000075873343716917445980000004835276573003744440_">
		
			<path fill="none" stroke="#FB8604" stroke-width="2.75" stroke-linecap="round" stroke-linejoin="round" stroke-miterlimit="10" d="
			M167.236,572.676c-2.339,3.991-5.414,7.576-8.517,10.989c-2.59,2.8-5.322,5.599-8.523,7.701c-1.538,0.975-3.254,1.865-5.111,1.913
			c-1.815,0.039-3.564-0.94-4.606-2.406c-0.666-0.927-1.073-2.072-0.989-3.221c0.095-1.343,0.773-2.579,1.633-3.589
			c0.951-1.106,2.152-2.005,3.491-2.588c1.986-0.858,4.346-1.12,6.341-1.958c4.102-1.753,7.699-4.872,10.633-8.188"/>
	</g>
	<g id="POLYLINE_00000139984261104739095020000000324395551303303337_">
		
			<path fill="none" stroke="#FB8604" stroke-width="2.75" stroke-linecap="round" stroke-linejoin="round" stroke-miterlimit="10" d="
			M439.075,374.262c-14.918,11.706-30.774,24.37-43.899,37.982c-13.757,13.956-30.299,36.299-42.917,51.507
			c-11.523,14.005-24.323,27.241-38.586,38.471c-33.193,26.522-72.683,44.336-111.755,60.377"/>
	</g>
	<g id="POLYLINE_00000168805117913852007800000015924700255960824726_">
		
			<path fill="none" stroke="#FB8604" stroke-width="2.75" stroke-linecap="round" stroke-linejoin="round" stroke-miterlimit="10" d="
			M204.537,558.229c-3.343,6.144-8.393,12.307-12.437,18.018c-1.346,1.777-2.77,3.594-4.369,5.148
			c-0.852,0.817-1.773,1.6-2.831,2.137c-0.641,0.321-1.353,0.548-2.076,0.514c-0.732-0.032-1.429-0.342-2.012-0.775
			c-1.073-0.804-1.838-1.965-2.352-3.191c-0.547-1.329-0.806-2.826-0.461-4.241c0.28-1.191,0.943-2.262,1.749-3.17
			c2.097-2.361,5.352-4.046,8.002-5.717c3.291-1.983,6.041-4.745,8.513-7.659"/>
	</g>
	<g id="POLYLINE_00000023970415854751240270000006335807092648427145_">
		
			<path fill="none" stroke="#FB8604" stroke-width="2.75" stroke-linecap="round" stroke-linejoin="round" stroke-miterlimit="10" d="
			M566.181,190.494c-6.61,3.222-13.63,6.367-21.109,6.415c-7.017,0.094-15.526-1.719-22.508-2.586
			c-6.041-0.786-12.222-1.141-18.293-0.505c-9.471,0.944-18.74,3.962-26.969,8.741c-14.413,8.257-24.95,21.858-32.483,36.429
			c-8.763,17.134-14.187,36.182-14.816,55.459"/>
	</g>
	<g id="POLYLINE_00000070089082160119169510000010755591714105266820_">
		
			<path fill="none" stroke="#FB8604" stroke-width="2.75" stroke-linecap="round" stroke-linejoin="round" stroke-miterlimit="10" d="
			M485.51,344.851c7.569-0.195,15.228-0.922,22.589-2.74c8.788-2.14,17.244-5.771,25.099-10.23
			c12.348-7.085,23.719-16.404,31.758-28.252c11.139-16.539,13.547-37.169,13.804-56.664l-0.066-16.413
			c0.047-3.533,0.271-7.13,0.99-10.594c0.952-4.683,2.639-9.239,4.599-13.589"/>
	</g>
</g>
<g id="_x32_D_x24_AG-OUTLINE">
	<g id="POLYLINE_00000146478543927737867400000001591509742112813749_">
		
			<path fill="none" stroke="#FB8604" stroke-width="3.5" stroke-linecap="round" stroke-linejoin="round" stroke-miterlimit="10" d="
			M391.807,481.851c8.445,10.23,20.623,16.497,33.062,20.523c38.865,12.578,81.281,5.523,121.041,1.53
			c6.001-0.659,18.933-1.274,24.654-2.482c4.076-0.778,8.109-2.14,11.568-4.475c5.146-3.463,9.015-8.552,11.873-14
			c4.683-8.938,6.632-19.067,7.05-29.082c0.927-21.065-3.978-43.8-7.573-64.526c-1.867-11.195-3.039-22.695-2.317-34.044
			c1.249-20.681,8.152-44.234,12.201-64.559c1.959-9.966,3.136-20.233,2.721-30.398c-0.46-12.111-3.01-26.039-3.783-38.13
			c-0.797-12.615-0.36-25.472,1.635-37.961c0.558-3.762,1.838-8.107,1.617-11.907c-0.09-1.117-0.402-2.237-1.036-3.171
			c-0.767-1.16-1.996-1.974-3.339-2.309c-2.301-0.551-4.701-0.029-6.977,0.417l-7.648,1.715c-6.709,1.422-13.662,1.798-20.506,1.79
			c-9.386-0.068-18.974-0.779-28.215-2.429c-5.837-1.065-12.035-2.705-17.969-2.671c-7.504-0.029-15.124,1.605-22.438,3.182
			c-28.335,6.295-58.684,17.583-87.859,18.669c-17.899,0.796-37.298-3.471-55.071-5.126c-12.792-1.188-25.865-1.213-38.545,1.021
			c-8.439,1.51-16.86,3.895-24.467,7.912c-5.315,2.827-10.286,6.57-13.803,11.51c-6.089,8.669-7.345,19.618-8.43,29.889
			c-1.674,21.057-4.143,44.785-4.364,65.854c-0.084,11.71,0.423,23.64,2.643,35.159c2.295,11.898,6.539,23.525,12.728,33.956
			c6.544,11.057,15.223,20.875,25.255,28.89c-9.906,9.086-18.361,19.799-25.118,31.409c-4.754,8.184-8.247,17.131-10.786,26.236
			c-5.29,0.683-10.784,1.157-16.12,1.152c-5.148,0.016-12.348-0.401-17.438,0.053c-3.448,0.284-6.93,1.013-9.97,2.722
			c-2.275,1.244-4.31,2.915-6.151,4.731c-3.472,3.413-7.953,9.134-11.122,12.901l-4.118,4.789c-0.701,0.855-1.427,1.74-1.942,2.723
			c-0.13,0.261-0.247,0.537-0.277,0.829c-0.029,0.254,0.042,0.516,0.23,0.695l0.013,0.013l0.014,0.013l0.014,0.013l0.015,0.012
			l0.015,0.012l0.015,0.012c0.303,0.227,0.681,0.326,1.045,0.41c2.991,0.504,6.999,0.335,10.003,0.727
			c5.87,0.598,11.904,2.943,17.713,3.889c1.817,0.285,3.686,0.397,5.514,0.158c2.508-0.31,4.934-1.201,7.262-2.154
			c8.053-3.642,17.098-6.749,25.585-9.185l30.665-8.542l8.221-2.548c-13.012,16.615-26.634,33.369-43.248,46.531
			c-10.504,8.386-22.297,15.389-34.171,21.65c-18.11,9.501-37.735,18.159-56.74,25.729c-12.718,5.164-35.692,12.718-47.272,19.497
			c-0.82,0.527-1.661,1.076-2.322,1.8c-0.163,0.187-0.317,0.392-0.403,0.628l-0.006,0.018l-0.006,0.018l-0.005,0.018l-0.005,0.018
			l-0.005,0.018l-0.004,0.018l-0.004,0.018l-0.003,0.017l-0.003,0.017l-0.003,0.017l-0.002,0.017l-0.002,0.017l-0.001,0.017
			l-0.001,0.017l-0.001,0.017l0,0.017l0,0.017l0.001,0.016l0.001,0.016l0.002,0.016l0.002,0.016l0.002,0.016l0.003,0.016
			l0.003,0.016l0.004,0.016l0.004,0.016l0.005,0.015l0.005,0.015l0.007,0.019l0.007,0.019l0.008,0.018l0.009,0.018l0.009,0.018
			l0.01,0.018l0.011,0.018l0.011,0.018l0.012,0.017l0.012,0.017l0.013,0.017l0.014,0.017l0.014,0.017l0.015,0.017l0.016,0.016
			l0.016,0.016l0.017,0.016l0.017,0.016l0.018,0.016l0.019,0.016l0.019,0.016l0.02,0.015l0.02,0.015l0.021,0.015l0.022,0.015
			c0.672,0.414,1.49,0.505,2.258,0.604c4.68,0.373,9.411-0.318,14.019-1.09c-1.119,1.249-1.976,2.915-1.736,4.632
			c0.282,1.951,1.735,3.647,3.552,4.366c1.117,0.452,2.372,0.467,3.527,0.15c2.311-0.64,4.306-2.088,6.147-3.579
			c4.127-3.491,7.75-7.645,11.125-11.854c5.003-1.73,12.889-4.819,17.869-6.793c-1.603,1.256-3.145,2.813-3.695,4.829
			c-0.534,1.951,0.058,4.047,1.09,5.732c0.888,1.428,2.381,2.833,4.184,2.635c0.929-0.103,1.782-0.553,2.544-1.073
			c2.491-1.783,4.386-4.304,6.239-6.711c2.284-3.17,7.762-10.481,9.819-13.647c41.486-17.015,83.418-36.08,117.818-65.365
			c-2.302,5.876-4.699,12.174-6.365,18.243c-1.795,6.442-3.268,14.681-5.054,21.133c-1.491,5.721-4.307,11.487-5.272,17.34
			c-0.751,4.263,0.126,8.597,1.318,12.696c0.858,2.987,2.329,7.339,2.778,10.366c0.533,3.062,0.518,6.797,0.907,9.881
			c0.126,0.809,0.227,1.665,0.62,2.395c0.08,0.132,0.179,0.262,0.318,0.335l0.008,0.004l0.008,0.004l0.008,0.003l0.008,0.003
			l0.008,0.003l0.008,0.003l0.008,0.003l0.008,0.003l0.008,0.003l0.008,0.002l0.008,0.002l0.008,0.002l0.008,0.002l0.008,0.002
			l0.008,0.002l0.008,0.001l0.008,0.001l0.008,0.001l0.008,0.001l0.011,0.001l0.011,0.001l0.011,0l0.011,0l0.011,0l0.011,0
			l0.011-0.001l0.011-0.001l0.011-0.001l0.011-0.001l0.011-0.002l0.011-0.002l0.011-0.002l0.011-0.002l0.012-0.003l0.012-0.003
			l0.012-0.003l0.012-0.003l0.012-0.004l0.012-0.004c0.275-0.104,0.491-0.319,0.694-0.524c1.452-1.641,2.666-3.615,4.282-5.111
			c3.86-3.573,9.035-5.975,12.752-9.727c3.697-3.64,6.538-8.112,8.567-12.872c1.242-2.954,2.167-6.074,2.567-9.258
			c0.305-2.417,0.262-4.891,0.047-7.315c-0.453-5.034-1.733-10.694-1.476-15.762c0.236-5.125,1.618-10.156,3.309-14.976
			c7.684-1.829,15.254-4.467,22.229-8.196C373.547,499.86,383.596,491.584,391.807,481.851z"/>
	</g>
</g>
</svg>
