<?xml version="1.0" encoding="utf-8"?>
<!-- Generator: Adobe Illustrator 26.3.1, SVG Export Plug-In . SVG Version: 6.00 Build 0)  -->
<!DOCTYPE svg PUBLIC "-//W3C//DTD SVG 1.1//EN" "http://www.w3.org/Graphics/SVG/1.1/DTD/svg11.dtd" [
	<!ENTITY ns_flows "http://ns.adobe.com/Flows/1.0/">
	<!ENTITY ns_extend "http://ns.adobe.com/Extensibility/1.0/">
	<!ENTITY ns_ai "http://ns.adobe.com/AdobeIllustrator/10.0/">
	<!ENTITY ns_graphs "http://ns.adobe.com/Graphs/1.0/">
	<!ENTITY ns_vars "http://ns.adobe.com/Variables/1.0/">
	<!ENTITY ns_imrep "http://ns.adobe.com/ImageReplacement/1.0/">
	<!ENTITY ns_sfw "http://ns.adobe.com/SaveForWeb/1.0/">
	<!ENTITY ns_custom "http://ns.adobe.com/GenericCustomNamespace/1.0/">
	<!ENTITY ns_adobe_xpath "http://ns.adobe.com/XPath/1.0/">
]>
<svg version="1.1" xmlns:x="&ns_extend;" xmlns:i="&ns_ai;" xmlns:graph="&ns_graphs;"
	 xmlns="http://www.w3.org/2000/svg" xmlns:xlink="http://www.w3.org/1999/xlink" xmlns:a="http://ns.adobe.com/AdobeSVGViewerExtensions/3.0/"
	 x="0px" y="0px" width="750px" height="750px" viewBox="0 0 750 750" enable-background="new 0 0 750 750" xml:space="preserve">
<metadata>
	<sfw  xmlns="&ns_sfw;">
		<slices></slices>
		<sliceSourceBounds  bottomLeftOrigin="true" height="9231.338" width="4046" x="-2000" y="-314"></sliceSourceBounds>
	</sfw>
</metadata>
<g id="FILL-BACKGROUND">
	<rect fill="#FFFFFF" width="750" height="750"/>
</g>
<g id="N-DIMENSIONS">
</g>
<g id="N-TEXT">
</g>
<g id="_x32_D_x24_AG-DETAILS-DIAGRAM">
</g>
<g id="_x32_D_x24_AG-DETAILS">
</g>
<g id="_x32_D_x24_AG-ANIMALS">
	<g id="POLYLINE_00000103229909539396039790000004843817542985971603_">
		
			<path fill="none" stroke="#FB8604" stroke-width="2.75" stroke-linecap="round" stroke-linejoin="round" stroke-miterlimit="10" d="
			M304.959,454.683c-7.446-5.934-16.242-11.502-22.114-19.109c-2.507-3.226-4.596-6.855-5.692-10.81
			c-0.614-2.232-0.885-4.585-0.632-6.892c0.212-1.989,0.826-3.935,1.786-5.69c1.3-2.38,3.113-4.459,5.045-6.346
			c5.031-4.901,11.775-9.094,17.587-13.043c0.515-0.357,1.22-0.86,1.719-1.236"/>
	</g>
	<g id="POLYLINE_00000129923215108365357920000011310909482264188343_">
		
			<path fill="none" stroke="#FB8604" stroke-width="2.75" stroke-linecap="round" stroke-linejoin="round" stroke-miterlimit="10" d="
			M389.881,475.596c-2.018,5.544-5.074,10.711-8.32,15.617c-2.077,3.093-4.349,6.13-7,8.757c-1.61,1.58-3.388,3.046-5.411,4.064
			c-1.42,0.72-2.989,1.16-4.582,1.228c-1.797,0.087-3.598-0.264-5.286-0.87c-5.814-2.163-10.328-6.733-14.302-11.343l-5.585-6.67
			c-3.298-3.868-7.101-7.368-11.096-10.505"/>
	</g>
	<g id="POLYLINE_00000098212515190305426880000014202958831544549020_">
		
			<path fill="none" stroke="#FB8604" stroke-width="2.75" stroke-linecap="round" stroke-linejoin="round" stroke-miterlimit="10" d="
			M472.196,358.574c-13.602,11.967-32.558,28.036-46.624,39.395c-6.625,5.225-59.279,46.328-64.177,50.524
			c-11.436,9.348-30.099,26.312-42.422,33.779c-16.125,9.918-34.161,16.601-52.274,21.887c-10.525,3-21.424,5.492-32.25,7.112
			c-9.16,1.422-20.996,2.019-30.26,2.937c-5.451,0.575-10.973,1.441-16.211,3.089c-4.438,1.378-8.708,3.374-12.68,5.779
			c-7.58,4.604-14.312,10.606-19.919,17.467c-3.819,4.698-7.135,9.869-9.553,15.429c-2.414,5.539-3.948,11.487-4.43,17.513
			c-0.401,4.968-0.095,10.011,0.897,14.895c1.439,7.43,5.336,16.234,8.068,23.312c2.436,6.278,4.364,12.878,4.673,19.638
			c0.079,1.713,0.07,3.466-0.145,5.168c-0.126,0.955-0.311,1.92-0.659,2.82c-0.298,0.759-0.739,1.539-1.49,1.922
			c-0.277,0.14-0.596,0.212-0.906,0.163c-0.298-0.045-0.571-0.207-0.768-0.433l-0.019-0.022l-0.019-0.023l-0.019-0.023
			c-0.233-0.297-0.372-0.657-0.48-1.016c-0.204-0.694-0.293-1.438-0.366-2.157c-0.36-4.85-0.251-9.964-1.478-14.695
			c-2.087-8.135-7.352-16.214-10.507-23.953c-1.419-3.411-2.582-6.978-3.275-10.61c-1.698-8.913-1.199-18.168,0.697-27.009
			c4.069-18.841,14.484-34.456,30.998-44.583c9.789-6.059,21-9.485,32.14-12.099c20.16-4.641,42.871-7.433,61.937-15.754
			c11.414-4.858,21.68-12.192,30.783-20.559c10.227-9.374,19.356-20.208,27.795-31.2c11.381-15.108,42.496-57.094,53.979-71.005
			c13.933-17.342,31.322-37.628,46.149-54.26"/>
	</g>
	<g id="POLYLINE_00000021818652554805826390000005749641789887419550_">
		
			<path fill="none" stroke="#FB8604" stroke-width="2.75" stroke-linecap="round" stroke-linejoin="round" stroke-miterlimit="10" d="
			M473.166,263.546c0.085-3.25,0.408-6.541,1.292-9.678c0.703-2.516,1.783-4.938,3.224-7.119c2.949-4.388,7.053-7.943,11.558-10.667
			c3.049-1.794,6.426-3.292,10.011-3.416c2.549-0.112,5.101,0.502,7.556,1.127"/>
	</g>
	<g id="POLYLINE_00000009585317440007338890000007780878991922020003_">
		
			<path fill="none" stroke="#FB8604" stroke-width="2.75" stroke-linecap="round" stroke-linejoin="round" stroke-miterlimit="10" d="
			M517.502,307.493c5.607-0.323,11.211-1.979,15.885-5.134c4.701-3.186,8.452-7.925,10.034-13.415
			c1.589-5.6,0.802-11.651-1.223-17.036"/>
	</g>
	<g id="POLYLINE_00000183242803589169254640000002543173001028606898_">
		
			<path fill="none" stroke="#FB8604" stroke-width="2.75" stroke-linecap="round" stroke-linejoin="round" stroke-miterlimit="10" d="
			M393.94,439.865c-2.886,6.284-5.364,12.909-6.28,19.795c-0.686,5.178-0.335,10.644,1.959,15.404
			c1.476,3.121,3.737,5.821,6.323,8.086c2.172,1.912,4.565,3.624,7.162,4.912c7.381,3.658,15.884,3.838,23.96,3.681
			c16.772-0.568,33.772-3.028,50.294-5.89c24.492-4.347,49.02-10.481,72.734-17.98c11.48-3.667,23.401-7.831,34.468-12.609
			c6.93-3.029,13.862-6.427,20.118-10.702c4.329-2.966,8.372-6.447,11.635-10.573c3.274-4.116,5.75-8.869,7.322-13.885
			c1.756-5.544,2.484-11.402,2.693-17.2c0.236-6.829-0.239-13.805-0.984-20.594c-2.473-21.418-7.978-42.598-15.286-62.857
			c-5.547-15.313-12.133-30.511-20.141-44.707c-2.312-4.086-9.605-16.584-11.575-20.536c-2.736-5.315-5.295-10.931-7.283-16.569
			c-1.204-3.44-2.25-7.016-2.869-10.611c-0.531-3.094-0.724-6.298-0.691-9.435l0.141-5.574c-0.006-0.937,0.009-1.909-0.275-2.811
			c-0.172-0.542-0.52-1.025-1.042-1.272c-0.858-0.399-1.856-0.335-2.779-0.317c-2.328,0.124-4.715,0.242-7.021,0.053
			c-3.516-0.249-7.035-0.919-10.448-1.789c-4.003-1.033-8.174-2.424-12.047-3.9c-16.114-6.235-39.404-16.986-55.464-23.144
			c-17.916-6.99-36.51-13.489-55.389-17.271c-11.777-2.365-23.918-3.695-35.932-3.742c-11.22-0.011-22.674,0.707-33.692,2.875
			c-4.955,1.048-10.048,2.264-14.405,4.943c-1.48,0.923-2.843,2.045-4.028,3.325c-1.661,1.786-3,3.87-4.179,5.997
			c-2.845,5.183-5.516,11.659-7.899,17.102c-4.614,11.004-9.01,22.763-12.634,34.117c-9.981,31.56-16.474,64.426-19.61,97.37
			c-1.029,11.444-1.705,23.356-1.46,34.847c0.167,5.745,0.466,11.624,1.678,17.256c0.722,3.259,1.824,6.509,3.743,9.269
			c1.444,2.099,3.363,3.849,5.499,5.226c4.028,2.566,8.597,4.211,13.197,5.422c7.385,1.861,15.198,2.592,22.73,1.228"/>
	</g>
</g>
<g id="_x32_D_x24_AG-OUTLINE">
	<g id="POLYLINE_00000147906768288271354790000010406150448072309935_">
		
			<path fill="none" stroke="#FB8604" stroke-width="3.5" stroke-linecap="round" stroke-linejoin="round" stroke-miterlimit="10" d="
			M389.881,475.596c1.523,2.999,3.771,5.586,6.31,7.772c2.218,1.922,4.664,3.628,7.318,4.892c5.93,2.845,12.645,3.44,19.139,3.523
			c13.328,0.014,26.951-1.68,40.134-3.557c18.833-2.795,37.945-6.724,56.382-11.48c16.567-4.295,33.449-9.351,49.534-15.2
			c9.599-3.551,19.476-7.473,28.459-12.389c6.171-3.404,12.154-7.415,16.963-12.612c3.97-4.268,7.05-9.37,8.986-14.868
			c1.991-5.59,2.87-11.55,3.165-17.46c0.35-7.268-0.136-14.68-0.929-21.907c-2.473-21.418-7.978-42.598-15.286-62.857
			c-5.547-15.313-12.133-30.511-20.141-44.707c-2.312-4.086-9.605-16.584-11.575-20.536c-2.736-5.315-5.295-10.931-7.283-16.569
			c-1.204-3.44-2.25-7.016-2.869-10.611c-0.531-3.094-0.724-6.298-0.691-9.435l0.141-5.574c-0.006-0.937,0.009-1.909-0.275-2.811
			c-0.172-0.542-0.52-1.025-1.042-1.272c-0.858-0.399-1.856-0.335-2.779-0.317l-2.066,0.102c-0.554,0.029-1.1,0.04-1.622,0.05
			c-1.454,0.018-2.963-0.052-4.412-0.188c-4.607-0.442-9.168-1.538-13.587-2.89c-5.548-1.731-11.579-4.116-16.969-6.368
			c-22.689-9.708-49.234-21.471-72.552-28.973c-15.201-4.946-31.005-8.851-46.925-10.519c-16.335-1.67-33.059-1.327-49.265,1.379
			c-3.666,0.663-7.415,1.463-10.946,2.659c-2.534,0.863-5.03,1.968-7.204,3.547c-1.517,1.093-2.868,2.423-4.026,3.89
			c-1.442,1.819-2.634,3.87-3.712,5.922c-5.54,11.098-10.417,23.308-14.716,34.942c-9.544,26.118-16.196,53.459-20.711,80.88
			c-3.622,22.89-6.133,46.324-5.392,69.523c0.218,4.628,0.565,9.385,1.539,13.924c0.66,3.023,1.633,6.038,3.282,8.676
			c1.989,3.249,5.045,5.652,8.402,7.38c-0.499,0.376-1.205,0.879-1.719,1.236c-5.828,3.967-12.546,8.134-17.587,13.043
			c-1.932,1.888-3.745,3.966-5.045,6.346c-0.96,1.755-1.575,3.7-1.786,5.69c-0.252,2.307,0.019,4.66,0.632,6.892
			c1.096,3.955,3.185,7.584,5.692,10.81c5.867,7.603,14.675,13.183,22.114,19.109c-10.748,12.009-22.83,23.268-37.13,30.905
			c-12.698,6.757-26.855,10.437-40.857,13.383c-15.622,3.321-34.133,6.049-48.867,12.113c-23.345,9.438-38.357,27.938-42.966,52.667
			c-2.104,11.365-1.834,23.454,2.601,34.249c3.108,8.021,8.541,16.204,10.817,24.54c1.303,4.724,1.259,9.857,1.565,14.715
			c0.076,0.836,0.156,1.736,0.384,2.55c0.111,0.386,0.254,0.777,0.503,1.096l0.019,0.023l0.019,0.023l0.019,0.022
			c0.197,0.226,0.47,0.389,0.768,0.433c0.302,0.048,0.613-0.019,0.885-0.153c0.763-0.379,1.21-1.167,1.511-1.932
			c0.839-2.29,0.883-4.904,0.831-7.32c-0.212-6.99-2.182-13.824-4.7-20.307c-3.453-8.888-7.984-18.853-8.847-28.393
			c-0.784-7.417,0.037-15,2.333-22.093c1.949-6.074,4.988-11.787,8.702-16.961c4.119-5.736,9.045-10.92,14.525-15.371
			c5.1-4.123,10.742-7.673,16.836-10.128c6.442-2.606,13.393-3.821,20.278-4.538c7.526-0.761,18.49-1.384,25.965-2.35
			c18.09-2.338,35.978-6.974,53.171-13.02c15.849-5.668,31.499-12.755,44.974-22.964c3.995,3.137,7.798,6.637,11.096,10.505
			l5.585,6.67c3.974,4.61,8.488,9.181,14.302,11.343c1.687,0.607,3.488,0.957,5.286,0.87c1.593-0.068,3.162-0.508,4.582-1.228
			c2.024-1.018,3.801-2.484,5.411-4.064c2.651-2.627,4.922-5.665,7-8.757C384.807,486.307,387.863,481.14,389.881,475.596z"/>
	</g>
</g>
</svg>
