<?xml version="1.0" encoding="utf-8"?>
<!-- Generator: Adobe Illustrator 26.3.1, SVG Export Plug-In . SVG Version: 6.00 Build 0)  -->
<!DOCTYPE svg PUBLIC "-//W3C//DTD SVG 1.1//EN" "http://www.w3.org/Graphics/SVG/1.1/DTD/svg11.dtd" [
	<!ENTITY ns_flows "http://ns.adobe.com/Flows/1.0/">
	<!ENTITY ns_extend "http://ns.adobe.com/Extensibility/1.0/">
	<!ENTITY ns_ai "http://ns.adobe.com/AdobeIllustrator/10.0/">
	<!ENTITY ns_graphs "http://ns.adobe.com/Graphs/1.0/">
	<!ENTITY ns_vars "http://ns.adobe.com/Variables/1.0/">
	<!ENTITY ns_imrep "http://ns.adobe.com/ImageReplacement/1.0/">
	<!ENTITY ns_sfw "http://ns.adobe.com/SaveForWeb/1.0/">
	<!ENTITY ns_custom "http://ns.adobe.com/GenericCustomNamespace/1.0/">
	<!ENTITY ns_adobe_xpath "http://ns.adobe.com/XPath/1.0/">
]>
<svg version="1.1" xmlns:x="&ns_extend;" xmlns:i="&ns_ai;" xmlns:graph="&ns_graphs;"
	 xmlns="http://www.w3.org/2000/svg" xmlns:xlink="http://www.w3.org/1999/xlink" xmlns:a="http://ns.adobe.com/AdobeSVGViewerExtensions/3.0/"
	 x="0px" y="0px" width="750px" height="750px" viewBox="0 0 750 750" enable-background="new 0 0 750 750" xml:space="preserve">
<metadata>
	<sfw  xmlns="&ns_sfw;">
		<slices></slices>
		<sliceSourceBounds  bottomLeftOrigin="true" height="9231.338" width="4046" x="-2000" y="-314"></sliceSourceBounds>
	</sfw>
</metadata>
<g id="FILL-BACKGROUND">
	<rect y="0" fill="#FFFFFF" width="750" height="750"/>
</g>
<g id="N-DIMENSIONS">
</g>
<g id="N-TEXT">
</g>
<g id="_x32_D_x24_AG-DETAILS-DIAGRAM">
</g>
<g id="_x32_D_x24_AG-DETAILS">
	<g id="POLYLINE_00000181796941473903166480000018230931244309382845_">
		<path fill="none" stroke="#FB8604" stroke-width="2" stroke-linecap="round" stroke-linejoin="round" stroke-miterlimit="10" d="
			M410.346,335.832c15.523-16.029,63.871-63.388,80.517-79.706"/>
	</g>
</g>
<g id="_x32_D_x24_AG-ANIMALS">
	<g id="POLYLINE_00000022558025874919667370000012570239530321398685_">
		
			<path fill="none" stroke="#FB8604" stroke-width="2.75" stroke-linecap="round" stroke-linejoin="round" stroke-miterlimit="10" d="
			M376.513,300.328c-0.865,0.436-1.747,0.954-2.564,1.473c-2.353,1.652-6.075,3.72-8.103,5.717
			c-1.167,1.131-2.124,2.542-2.463,4.151c-0.315,1.432-0.226,2.928,0.06,4.358c0.471,2.304,1.439,4.49,2.614,6.517
			c2.319,3.971,5.517,7.388,9.09,10.261c4.479,3.577,9.616,6.397,15.079,8.147"/>
	</g>
	<g id="POLYLINE_00000078026697379398253110000002505830539635749295_">
		
			<path fill="none" stroke="#FB8604" stroke-width="2.75" stroke-linecap="round" stroke-linejoin="round" stroke-miterlimit="10" d="
			M446.84,372.901c-0.575,3.626-2.394,7.004-4.755,9.782c-1.5,1.722-3.411,3.344-5.768,3.579c-2.292,0.23-4.562-0.483-6.704-1.222
			c-4.152-1.518-8.092-3.691-11.65-6.309c-3.174-2.362-6.105-5.169-8.161-8.576c-2.652-4.349-3.812-9.453-4.105-14.498"/>
	</g>
	<g id="POLYLINE_00000123399458338626347490000001178091766919792314_">
		
			<path fill="none" stroke="#FB8604" stroke-width="2.75" stroke-linecap="round" stroke-linejoin="round" stroke-miterlimit="10" d="
			M429.901,338.615c-8.783,5.319-17.603,11.009-25.198,17.931c-6.07,5.458-11.401,11.816-15.954,18.584
			c-17.651,26.375-29.143,59.142-50.973,82.635c-10.458,11.565-23.304,20.85-36.763,28.616
			c-28.521,16.383-62.305,31.522-89.211,50.492c-9.94,6.88-19.575,14.746-28.5,22.895c-14.64,13.13-29.155,29.372-43.239,43.096
			c-1.601,1.435-3.314,3.073-5.25,4.07l-0.089,0.041c-0.427,0.191-0.892,0.346-1.365,0.292c-0.191-0.023-0.38-0.097-0.516-0.236
			c-0.102-0.104-0.165-0.243-0.185-0.387c-0.031-0.238,0.026-0.476,0.105-0.699c0.198-0.545,0.526-1.049,0.846-1.53
			c6.89-9.281,20.702-23.455,28.579-32.227c13.159-14.26,27.294-28.855,43.159-40.063c23.028-16.475,51.614-30.42,76.786-43.53
			c8.446-4.455,16.851-9.4,24.37-15.308c7.145-5.587,13.798-11.938,19.83-18.709c5.976-6.757,11.506-14.092,15.802-22.041
			c5.736-10.374,8.923-23.836,13.109-34.867c3.674-9.943,8.765-19.446,14.392-28.413c11.477-18.115,25.165-34.988,40.558-49.92"/>
	</g>
	<g id="POLYLINE_00000056392067214586678440000002898709175940147368_">
		
			<path fill="none" stroke="#FB8604" stroke-width="2.75" stroke-linecap="round" stroke-linejoin="round" stroke-miterlimit="10" d="
			M545.44,238.696c0.568-1.967,1.185-4.196,2.976-5.401c1.725-1.091,4.133-1.174,6.107-1.559c1.589-0.28,3.193-0.677,4.616-1.459
			c1.6-0.876,2.973-2.134,4.136-3.529c1.638-1.988,2.935-4.278,3.736-6.729c0.689-2.04,0.809-4.333,0.916-6.472
			c0.042-0.724,0.279-2.859,0.356-3.613l0.044-0.513"/>
	</g>
	<g id="POLYLINE_00000170246355961065229470000010921610019128418737_">
		
			<path fill="none" stroke="#FB8604" stroke-width="2.75" stroke-linecap="round" stroke-linejoin="round" stroke-miterlimit="10" d="
			M510.795,204.051c1.967-0.568,4.196-1.185,5.401-2.976c1.091-1.725,1.174-4.133,1.559-6.107c0.28-1.589,0.677-3.193,1.459-4.616
			c0.876-1.6,2.134-2.973,3.529-4.136c1.988-1.637,4.278-2.935,6.729-3.736c2.04-0.689,4.333-0.809,6.472-0.916
			c0.724-0.042,2.859-0.279,3.613-0.356l0.513-0.044"/>
	</g>
	<g id="POLYLINE_00000170252618217815319440000012955163719110133694_">
		
			<path fill="none" stroke="#FB8604" stroke-width="2.75" stroke-linecap="round" stroke-linejoin="round" stroke-miterlimit="10" d="
			M411.78,302.064c-1.348,1.652-2.772,3.41-4.487,4.701c-1.339,1.031-2.878,1.808-4.502,2.276c-3.366,0.949-6.95,0.94-10.394,0.461
			c-3.81-0.565-7.606-1.773-10.801-3.967c-3.414-2.342-5.847-5.859-7.502-9.609c-1.954-4.428-3.099-9.215-4.061-13.945
			c-4.701-23.81-1.009-48.436,5.661-71.509c9.335-31.582,25.742-66.895,57.504-80.953c4.659-2,9.593-3.411,14.607-4.166
			c5.374-0.818,10.899-0.877,16.317-0.523c12.454,0.86,24.785,3.87,36.714,7.443c15.702,4.762,33.291,11.677,49.35,15.025
			c11.081,2.318,22.538,3.46,33.851,2.686c4.395-0.174,12.073-1.332,16.433-0.654c0.869,0.149,1.761,0.41,2.44,0.995
			c1.276,1.111,1.206,2.967,1.078,4.511c-0.321,3.035-1.345,7.358-1.705,10.385c-0.401,2.955-0.493,5.974-0.251,8.946
			c0.669,8.134,3.14,16.229,5.529,24.007c6.692,21.897,15.882,48.586,20.234,70.882c1.345,7.077,2.224,14.354,2.02,21.566
			c-0.154,5.769-1.015,11.573-2.704,17.095c-1.424,4.683-3.47,9.205-5.917,13.441c-6.075,10.466-14.457,19.506-23.73,27.218
			c-11.956,9.878-25.639,17.725-40.164,23.149c-24.014,8.781-50.036,11.457-75.477,10.342c-5.922-0.325-12.044-0.825-17.881-1.9
			c-5.081-0.934-10.136-2.502-14.529-5.276c-3.398-2.104-6.435-4.924-8.369-8.454c-1.794-3.253-2.62-6.969-2.858-10.654
			c-0.197-3.674,0.104-7.511,1.679-10.884c1.125-2.415,2.965-4.41,4.873-6.233"/>
	</g>
</g>
<g id="_x32_D_x24_AG-OUTLINE">
	<g id="POLYLINE_00000051374844931902711780000012784325595041278909_">
		
			<path fill="none" stroke="#FB8604" stroke-width="3.5" stroke-linecap="round" stroke-linejoin="round" stroke-miterlimit="10" d="
			M390.227,340.952c-11.112,13.515-21.402,28.069-29.315,43.702c-2.104,4.187-4.024,8.632-5.667,13.018
			c-2.426,6.428-5.767,17.553-8.208,23.993c-2.404,6.438-5.579,12.657-9.408,18.365c-8.759,12.995-19.806,24.501-32.191,34.081
			c-7.223,5.546-15.258,10.237-23.303,14.485c-25.864,13.494-54.904,27.573-78.417,44.715
			c-15.166,10.953-28.843,25.147-41.528,38.878c-7.941,8.865-21.704,22.914-28.678,32.373c-0.357,0.565-0.757,1.152-0.855,1.826
			c-0.017,0.154-0.005,0.313,0.059,0.455c0.066,0.148,0.189,0.267,0.335,0.336c0.179,0.085,0.379,0.108,0.575,0.099
			c0.382-0.019,0.753-0.147,1.099-0.302l0.089-0.041c0.754-0.362,1.47-0.883,2.136-1.391c1.76-1.365,3.522-3.049,5.132-4.597
			c17.826-17.999,35.753-37.729,55.589-53.517c12.757-10.265,26.862-19.307,41.064-27.433c16.638-9.58,42.314-22.255,59.023-31.736
			c10.196-5.804,20.336-12.245,29.198-19.967c8.487-7.325,16.024-15.892,22.434-25.08c10.619-14.94,20.657-36.055,29.631-52.109
			c7.228-12.945,15.356-25.675,26.677-35.447c0.292,5.044,1.453,10.149,4.105,14.498c2.056,3.406,4.987,6.213,8.161,8.576
			c3.65,2.684,7.698,4.905,11.972,6.423c2.044,0.685,4.205,1.332,6.382,1.108c2.358-0.236,4.268-1.857,5.768-3.579
			c2.361-2.778,4.18-6.156,4.756-9.782c5.136,4.027,11.493,6.126,17.863,7.207c7.13,1.222,14.548,1.716,21.775,1.942
			c10.741,0.289,21.716-0.213,32.384-1.506c13.569-1.677,27.142-4.657,39.916-9.577c11.628-4.489,22.708-10.561,32.747-17.948
			c13.335-9.913,25.423-22.283,32.575-37.444c2.868-6.143,4.668-12.806,5.363-19.548c0.821-7.776,0.237-15.688-1.029-23.386
			c-4.5-25.384-14.775-54.182-22.241-78.948c-1.318-4.436-2.584-9.122-3.397-13.678c-0.926-5.059-1.221-10.286-0.431-15.383
			c0.391-3.327,1.751-8.21,1.679-11.516c-0.041-0.819-0.211-1.664-0.71-2.332c-0.791-1.051-2.172-1.378-3.416-1.532
			c-4.153-0.467-11.643,0.51-15.88,0.735c-12.974,0.886-26.091-0.739-38.704-3.783c-12.956-3.163-28.774-9.006-41.561-13.027
			c-10.432-3.243-21.218-6.092-32.053-7.567c-7.298-0.976-14.787-1.378-22.114-0.5c-4.872,0.586-9.691,1.779-14.27,3.542
			c-7.871,3.013-15.046,7.736-21.33,13.318c-16.025,14.258-26.162,33.864-33.478,53.749c-4.259,11.689-7.643,23.833-9.915,36.067
			c-3.005,16.125-3.802,32.858-0.798,49.043c1.335,6.704,2.871,13.731,6.7,19.5c-0.865,0.436-1.747,0.954-2.564,1.473
			c-2.353,1.652-6.075,3.72-8.103,5.717c-1.167,1.131-2.124,2.542-2.463,4.151c-0.315,1.432-0.226,2.928,0.06,4.358
			c0.471,2.304,1.439,4.49,2.614,6.517c2.319,3.971,5.517,7.388,9.09,10.261C379.627,336.382,384.764,339.202,390.227,340.952z"/>
	</g>
</g>
</svg>
