<?xml version="1.0" encoding="utf-8"?>
<!-- Generator: Adobe Illustrator 26.3.1, SVG Export Plug-In . SVG Version: 6.00 Build 0)  -->
<!DOCTYPE svg PUBLIC "-//W3C//DTD SVG 1.1//EN" "http://www.w3.org/Graphics/SVG/1.1/DTD/svg11.dtd" [
	<!ENTITY ns_flows "http://ns.adobe.com/Flows/1.0/">
	<!ENTITY ns_extend "http://ns.adobe.com/Extensibility/1.0/">
	<!ENTITY ns_ai "http://ns.adobe.com/AdobeIllustrator/10.0/">
	<!ENTITY ns_graphs "http://ns.adobe.com/Graphs/1.0/">
	<!ENTITY ns_vars "http://ns.adobe.com/Variables/1.0/">
	<!ENTITY ns_imrep "http://ns.adobe.com/ImageReplacement/1.0/">
	<!ENTITY ns_sfw "http://ns.adobe.com/SaveForWeb/1.0/">
	<!ENTITY ns_custom "http://ns.adobe.com/GenericCustomNamespace/1.0/">
	<!ENTITY ns_adobe_xpath "http://ns.adobe.com/XPath/1.0/">
]>
<svg version="1.1" xmlns:x="&ns_extend;" xmlns:i="&ns_ai;" xmlns:graph="&ns_graphs;"
	 xmlns="http://www.w3.org/2000/svg" xmlns:xlink="http://www.w3.org/1999/xlink" xmlns:a="http://ns.adobe.com/AdobeSVGViewerExtensions/3.0/"
	 x="0px" y="0px" width="750px" height="750px" viewBox="0 0 750 750" enable-background="new 0 0 750 750" xml:space="preserve">
<metadata>
	<sfw  xmlns="&ns_sfw;">
		<slices></slices>
		<sliceSourceBounds  bottomLeftOrigin="true" height="13215.715" width="4197" x="-2000" y="-4314"></sliceSourceBounds>
	</sfw>
</metadata>
<g id="FILL-BACKGROUND">
	<rect fill="#FFFFFF" width="750" height="750"/>
</g>
<g id="N-DIMENSIONS">
</g>
<g id="N-TEXT">
</g>
<g id="_x32_D_x24_AG-DETAILS-DIAGRAM">
</g>
<g id="_x32_D_x24_AG-DETAILS">
	<g id="POLYLINE_00000029008896105359453640000010429682037505772678_">
		<path fill="none" stroke="#FB8604" stroke-width="2" stroke-linecap="round" stroke-linejoin="round" stroke-miterlimit="10" d="
			M509.479,401.089c-2.18-0.345-4.448-0.433-6.616,0.028c-0.778,0.179-1.557,0.443-2.211,0.912c-0.54,0.386-0.975,0.92-1.231,1.534
			c-0.311,0.734-0.376,1.554-0.279,2.34c0.204,1.62,1.021,3.1,2.02,4.365c1.041,1.309,2.306,2.439,3.691,3.373
			c1.978,1.334,4.274,2.247,6.662,2.446c1.833,0.145,3.992-0.124,5.168-1.699c1.333-1.823,0.943-4.295,0.216-6.286
			c-0.313-0.852-0.713-1.691-1.168-2.477c-0.747-1.259-1.62-2.513-2.855-3.336C511.864,401.616,510.665,401.292,509.479,401.089z"/>
	</g>
	<g id="POLYLINE_00000014636406870551508020000001243567157363104408_">
		<path fill="none" stroke="#FB8604" stroke-width="2" stroke-linecap="round" stroke-linejoin="round" stroke-miterlimit="10" d="
			M552.267,428.204c-0.709-0.112-1.427,0.174-1.964,0.63c-0.816,0.693-1.34,1.739-1.37,2.812c-0.025,0.97,0.33,1.921,0.874,2.713
			c0.76,1.107,1.954,1.98,3.312,2.131c0.612,0.067,1.257-0.035,1.784-0.365c0.854-0.528,1.294-1.544,1.311-2.524
			c0.028-1.437-0.702-2.808-1.611-3.879C553.989,429.028,553.208,428.361,552.267,428.204z"/>
	</g>
	<g id="POLYLINE_00000006696978076643620310000009727567314950451878_">
		<path fill="none" stroke="#FB8604" stroke-width="2" stroke-linecap="round" stroke-linejoin="round" stroke-miterlimit="10" d="
			M511.208,425.72c-0.635-0.424-1.468-0.451-2.176-0.209c-0.302,0.104-0.595,0.255-0.829,0.475c-0.149,0.141-0.27,0.323-0.295,0.53
			c-0.05,0.46,0.304,0.857,0.615,1.153c0.598,0.537,1.305,0.954,2.034,1.288c0.455,0.194,0.939,0.382,1.441,0.365
			c0.198-0.01,0.408-0.077,0.53-0.241c0.179-0.249,0.17-0.591,0.135-0.883c-0.071-0.508-0.265-0.997-0.522-1.439
			C511.902,426.356,511.599,425.981,511.208,425.72z"/>
	</g>
	<g id="POLYLINE_00000060001634872671928020000016561584870342021014_">
		<path fill="none" stroke="#FB8604" stroke-width="2" stroke-linecap="round" stroke-linejoin="round" stroke-miterlimit="10" d="
			M528.347,400.491c-0.544-0.256-1.194,0.013-1.643,0.348c-0.401,0.308-0.768,0.748-0.79,1.274
			c-0.021,0.784,0.639,1.438,1.305,1.755c0.547,0.261,1.314,0.354,1.759-0.139c0.308-0.349,0.345-0.848,0.322-1.293
			c-0.033-0.475-0.151-0.952-0.387-1.368C528.777,400.834,528.594,400.613,528.347,400.491z"/>
	</g>
	<g id="POLYLINE_00000142152027666593672260000012561949488363920538_">
		<path fill="none" stroke="#FB8604" stroke-width="2" stroke-linecap="round" stroke-linejoin="round" stroke-miterlimit="10" d="
			M496.828,381.411c-0.776-0.242-1.588-0.407-2.404-0.41c-0.454,0.003-0.924,0.05-1.341,0.242c-0.241,0.111-0.457,0.291-0.576,0.532
			c-0.138,0.272-0.15,0.594-0.08,0.887c0.104,0.435,0.366,0.82,0.688,1.125c0.51,0.479,1.169,0.765,1.831,0.968
			c1.041,0.307,2.145,0.417,3.226,0.335c0.44-0.036,0.882-0.105,1.304-0.236c0.266-0.085,0.531-0.192,0.754-0.362
			c0.184-0.138,0.34-0.351,0.317-0.591c-0.028-0.278-0.221-0.504-0.407-0.698c-0.342-0.34-0.752-0.61-1.167-0.852
			C498.298,381.963,497.57,381.648,496.828,381.411z"/>
	</g>
	<g id="POLYLINE_00000047746107622822616850000002291876377453847226_">
		<path fill="none" stroke="#FB8604" stroke-width="2" stroke-linecap="round" stroke-linejoin="round" stroke-miterlimit="10" d="
			M543.182,420.571c-0.152-0.074-0.333-0.098-0.493-0.037c-0.192,0.072-0.33,0.25-0.381,0.446c-0.084,0.317,0.053,0.646,0.239,0.901
			c0.301,0.408,0.809,0.729,1.331,0.655c0.105-0.018,0.211-0.06,0.285-0.14c0.064-0.068,0.096-0.16,0.099-0.252
			c0.001-0.254-0.121-0.494-0.244-0.71C543.812,421.098,543.538,420.753,543.182,420.571z"/>
	</g>
	<g id="POLYLINE_00000127026657254667318470000003897273901128088961_">
		<path fill="none" stroke="#FB8604" stroke-width="2" stroke-linecap="round" stroke-linejoin="round" stroke-miterlimit="10" d="
			M561.892,436.727c-0.165-0.014-0.342,0.024-0.467,0.139c-0.15,0.136-0.203,0.352-0.181,0.548c0.023,0.226,0.142,0.434,0.303,0.591
			c0.424,0.417,1.11,0.509,1.646,0.268c0.197-0.09,0.39-0.266,0.316-0.503c-0.08-0.235-0.315-0.427-0.509-0.571
			C562.674,436.973,562.292,436.769,561.892,436.727z"/>
	</g>
	<g id="POLYLINE_00000056391223801284811400000013891889998662829474_">
		<path fill="none" stroke="#FB8604" stroke-width="2" stroke-linecap="round" stroke-linejoin="round" stroke-miterlimit="10" d="
			M555.575,442.325c-0.382-0.156-0.811-0.219-1.218-0.142c-0.185,0.038-0.375,0.107-0.507,0.248
			c-0.223,0.238-0.107,0.599,0.052,0.84c0.411,0.628,1.172,0.939,1.907,0.915c0.292-0.012,0.646-0.065,0.861-0.279
			c0.121-0.123,0.136-0.293,0.088-0.452c-0.061-0.205-0.191-0.384-0.334-0.54C556.187,442.663,555.895,442.46,555.575,442.325z"/>
	</g>
	<g id="POLYLINE_00000028283249398624197060000005912650985831438504_">
		<path fill="none" stroke="#FB8604" stroke-width="2" stroke-linecap="round" stroke-linejoin="round" stroke-miterlimit="10" d="
			M583.937,403.292c-0.372-0.135-0.787-0.236-1.179-0.128c-0.169,0.048-0.325,0.147-0.435,0.285
			c-0.126,0.157-0.193,0.355-0.22,0.552c-0.07,0.587,0.115,1.174,0.342,1.71c0.411,0.926,1.042,1.773,1.87,2.365
			c0.578,0.409,1.244,0.71,1.947,0.814c0.393,0.055,0.81,0.048,1.179-0.11c0.22-0.095,0.416-0.249,0.549-0.449
			c0.133-0.2,0.199-0.442,0.202-0.681c0.007-0.458-0.179-0.897-0.42-1.279c-0.454-0.699-1.076-1.28-1.721-1.801
			C585.404,404.062,584.707,403.59,583.937,403.292z"/>
	</g>
	<g id="POLYLINE_00000028298751645936663120000015372352161231890865_">
		<path fill="none" stroke="#FB8604" stroke-width="2" stroke-linecap="round" stroke-linejoin="round" stroke-miterlimit="10" d="
			M565.393,406.152c-0.566,0.004-0.967,0.635-0.854,1.163c0.048,0.221,0.212,0.397,0.401,0.511c0.294,0.177,0.643,0.247,0.983,0.257
			c0.289,0.004,0.589-0.032,0.851-0.162c0.112-0.058,0.219-0.139,0.277-0.253c0.048-0.093,0.054-0.204,0.026-0.304
			c-0.084-0.277-0.309-0.503-0.523-0.689C566.232,406.411,565.82,406.158,565.393,406.152z"/>
	</g>
	<g id="POLYLINE_00000027577261143349197210000002651375324727510183_">
		<path fill="none" stroke="#FB8604" stroke-width="2" stroke-linecap="round" stroke-linejoin="round" stroke-miterlimit="10" d="
			M624.676,409.414c-0.194-0.079-0.411-0.106-0.618-0.069c-0.235,0.041-0.452,0.16-0.632,0.315c-0.603,0.535-0.845,1.392-0.77,2.178
			c0.124,1.188,0.761,2.337,1.526,3.236c0.339,0.379,0.738,0.762,1.249,0.877c0.453,0.101,0.871-0.133,1.145-0.485
			c0.611-0.795,0.569-1.894,0.305-2.815c-0.242-0.83-0.625-1.626-1.145-2.318C625.448,409.965,625.115,409.6,624.676,409.414z"/>
	</g>
	<g id="POLYLINE_00000090978944975811021410000000622580779208136584_">
		<path fill="none" stroke="#FB8604" stroke-width="2" stroke-linecap="round" stroke-linejoin="round" stroke-miterlimit="10" d="
			M626.287,436.357c-0.49-0.197-1.082-0.276-1.593-0.116c-0.157,0.054-0.321,0.143-0.393,0.301c-0.05,0.111-0.037,0.24-0.002,0.354
			c0.09,0.278,0.275,0.514,0.466,0.73c0.38,0.415,0.829,0.777,1.332,1.03c0.342,0.168,0.721,0.29,1.106,0.274
			c0.288-0.01,0.622-0.128,0.706-0.434c0.088-0.334-0.098-0.697-0.27-0.975C627.312,437.016,626.844,436.591,626.287,436.357z"/>
	</g>
	<g id="POLYLINE_00000175320640022102705190000005079604985807414930_">
		<path fill="none" stroke="#FB8604" stroke-width="2" stroke-linecap="round" stroke-linejoin="round" stroke-miterlimit="10" d="
			M614.721,400.55c-0.091-0.083-0.206-0.146-0.331-0.153c-0.142-0.01-0.28,0.056-0.38,0.153c-0.158,0.151-0.242,0.366-0.27,0.58
			c-0.046,0.37,0.052,0.773,0.312,1.048c0.228,0.237,0.623,0.383,0.943,0.272c0.104-0.038,0.194-0.113,0.243-0.213
			c0.081-0.169,0.066-0.366,0.038-0.547C615.204,401.296,615.015,400.83,614.721,400.55z"/>
	</g>
	<g id="POLYLINE_00000020365763330577940270000016780373576134721982_">
		<path fill="none" stroke="#FB8604" stroke-width="2" stroke-linecap="round" stroke-linejoin="round" stroke-miterlimit="10" d="
			M626.799,401.416c-0.175-0.123-0.387-0.206-0.603-0.189c-0.273,0.019-0.54,0.21-0.611,0.48c-0.07,0.284,0.081,0.565,0.244,0.789
			c0.228,0.304,0.524,0.559,0.855,0.745c0.241,0.132,0.507,0.234,0.784,0.251c0.129,0.005,0.276-0.009,0.372-0.106
			c0.074-0.076,0.089-0.189,0.076-0.29c-0.031-0.229-0.137-0.442-0.246-0.643C627.444,402.062,627.166,401.685,626.799,401.416z"/>
	</g>
	<g id="POLYLINE_00000100378906526869890580000008545870053565601727_">
		<path fill="none" stroke="#FB8604" stroke-width="2" stroke-linecap="round" stroke-linejoin="round" stroke-miterlimit="10" d="
			M630.024,410.464c-0.124,0.005-0.255,0.041-0.281,0.18c-0.031,0.18,0.073,0.432,0.15,0.596c0.127,0.256,0.309,0.511,0.582,0.623
			c0.13,0.053,0.277,0.072,0.413,0.032c0.119-0.033,0.22-0.119,0.276-0.229c0.129-0.248,0.094-0.573-0.085-0.788
			c-0.121-0.143-0.291-0.236-0.463-0.302C630.427,410.505,630.226,410.459,630.024,410.464z"/>
	</g>
	<g id="POLYLINE_00000044151709240414134670000011034339553333128334_">
		<path fill="none" stroke="#FB8604" stroke-width="2" stroke-linecap="round" stroke-linejoin="round" stroke-miterlimit="10" d="
			M616.992,414.447c-0.164,0.039-0.281,0.177-0.364,0.316c-0.128,0.219-0.196,0.469-0.232,0.718
			c-0.042,0.307-0.033,0.626,0.058,0.923c0.091,0.294,0.258,0.585,0.529,0.746c0.112,0.065,0.247,0.1,0.376,0.076
			c0.179-0.032,0.328-0.156,0.44-0.294c0.221-0.278,0.333-0.636,0.333-0.99c-0.003-0.501-0.263-1.029-0.653-1.342
			C617.342,414.497,617.168,414.409,616.992,414.447z"/>
	</g>
	<g id="POLYLINE_00000138548441075691316180000014537961664735114669_">
		<path fill="none" stroke="#FB8604" stroke-width="2" stroke-linecap="round" stroke-linejoin="round" stroke-miterlimit="10" d="
			M639.371,416.688c-0.216-0.032-0.413,0.078-0.535,0.253c-0.199,0.285-0.234,0.692-0.05,0.993c0.142,0.235,0.377,0.4,0.624,0.51
			c0.282,0.121,0.599,0.188,0.905,0.141c0.124-0.021,0.25-0.065,0.339-0.157c0.069-0.07,0.104-0.17,0.101-0.267
			c-0.011-0.281-0.229-0.577-0.402-0.788C640.11,417.091,639.748,416.751,639.371,416.688z"/>
	</g>
	<g id="POLYLINE_00000031922715641000345120000012717355089994587558_">
		<path fill="none" stroke="#FB8604" stroke-width="2" stroke-linecap="round" stroke-linejoin="round" stroke-miterlimit="10" d="
			M583.977,351.804c-0.216-0.118-0.465-0.211-0.714-0.176c-0.209,0.029-0.374,0.168-0.434,0.371
			c-0.103,0.361,0.065,0.732,0.243,1.041c0.276,0.458,0.646,0.858,1.067,1.187c0.35,0.269,0.751,0.493,1.191,0.567
			c0.203,0.03,0.439,0.035,0.607-0.102c0.115-0.095,0.143-0.255,0.12-0.397c-0.067-0.366-0.308-0.714-0.521-1.012
			C585.103,352.715,584.598,352.169,583.977,351.804z"/>
	</g>
	<g id="POLYLINE_00000176021695623546273270000005965855958173010109_">
		<path fill="none" stroke="#FB8604" stroke-width="2" stroke-linecap="round" stroke-linejoin="round" stroke-miterlimit="10" d="
			M594.662,372.683c-0.405-0.217-0.886-0.359-1.345-0.254c-0.171,0.042-0.34,0.132-0.434,0.286
			c-0.204,0.345-0.041,0.779,0.178,1.076c0.247,0.331,0.602,0.567,0.971,0.743c0.402,0.187,0.842,0.312,1.287,0.319
			c0.245-0.001,0.546-0.03,0.725-0.215c0.077-0.082,0.109-0.198,0.095-0.308c-0.031-0.226-0.161-0.425-0.291-0.607
			C595.53,373.302,595.123,372.942,594.662,372.683z"/>
	</g>
	<g id="POLYLINE_00000145777304996617307480000004868602331623263140_">
		<path fill="none" stroke="#FB8604" stroke-width="2" stroke-linecap="round" stroke-linejoin="round" stroke-miterlimit="10" d="
			M615.192,370.652c-0.263,0.011-0.551,0.069-0.736,0.271c-0.218,0.241-0.154,0.581,0.007,0.835c0.19,0.303,0.476,0.535,0.779,0.719
			c0.535,0.32,1.158,0.486,1.78,0.504c0.363,0.003,0.816-0.033,1.085-0.304c0.149-0.153,0.196-0.372,0.14-0.576
			c-0.116-0.409-0.487-0.677-0.843-0.871C616.754,370.892,615.926,370.643,615.192,370.652z"/>
	</g>
	<g id="POLYLINE_00000022557683500746962240000003045803178397330567_">
		<path fill="none" stroke="#FB8604" stroke-width="2" stroke-linecap="round" stroke-linejoin="round" stroke-miterlimit="10" d="
			M550.531,368.629c-0.364,0.038-0.683,0.261-0.914,0.536c-0.441,0.532-0.643,1.25-0.569,1.934c0.06,0.55,0.288,1.097,0.696,1.479
			c0.354,0.332,0.86,0.5,1.341,0.421c0.471-0.071,0.868-0.377,1.121-0.772c0.306-0.471,0.46-1.044,0.42-1.604
			c-0.041-0.656-0.426-1.255-0.954-1.633C551.344,368.755,550.94,368.587,550.531,368.629z"/>
	</g>
	<g id="POLYLINE_00000095305463731670197950000005095549281268004260_">
		<path fill="none" stroke="#FB8604" stroke-width="2" stroke-linecap="round" stroke-linejoin="round" stroke-miterlimit="10" d="
			M568.995,376.528c-0.39-0.211-0.972-0.332-1.296,0.051c-0.308,0.389-0.028,0.909,0.253,1.229c0.528,0.594,1.285,0.964,2.06,1.11
			c0.222,0.034,0.541,0.07,0.731-0.071l0.004-0.003l0.004-0.003l0.004-0.003l0.004-0.003l0.004-0.004l0.004-0.004l0.004-0.004
			l0.004-0.004l0.003-0.004l0.003-0.004l0.003-0.004l0.003-0.004l0.003-0.004l0.003-0.004l0.003-0.004l0.003-0.004l0.003-0.004
			l0.003-0.004l0.003-0.004l0.003-0.004l0.002-0.004l0.002-0.005l0.002-0.005l0.002-0.005l0.002-0.005l0.002-0.005l0.002-0.005
			l0.002-0.005l0.002-0.005l0.002-0.005l0.002-0.005l0.001-0.005l0.001-0.005l0.001-0.005l0.001-0.005l0.001-0.005l0.001-0.005
			l0.001-0.005l0.001-0.006l0.001-0.006l0.001-0.006l0-0.006c0.009-0.261-0.208-0.576-0.356-0.784
			C570.081,377.343,569.581,376.854,568.995,376.528z"/>
	</g>
	<g id="POLYLINE_00000135659464045499165830000016822268323188454280_">
		<path fill="none" stroke="#FB8604" stroke-width="2" stroke-linecap="round" stroke-linejoin="round" stroke-miterlimit="10" d="
			M533.21,337.624c-0.614-0.155-1.254-0.235-1.887-0.258c-0.444-0.013-0.899-0.003-1.336,0.084
			c-0.269,0.058-0.562,0.141-0.745,0.361c-0.078,0.096-0.115,0.222-0.099,0.345c0.021,0.165,0.111,0.311,0.215,0.437
			c0.436,0.502,1.106,0.824,1.703,1.096c0.844,0.355,1.744,0.662,2.667,0.677c0.348-0.003,0.709-0.073,1-0.274
			c0.356-0.239,0.54-0.68,0.429-1.099c-0.072-0.283-0.263-0.521-0.486-0.702C534.25,337.951,533.729,337.76,533.21,337.624z"/>
	</g>
	<g id="POLYLINE_00000158024750489360020210000007497764804902840979_">
		<path fill="none" stroke="#FB8604" stroke-width="2" stroke-linecap="round" stroke-linejoin="round" stroke-miterlimit="10" d="
			M516.605,348.253c-0.221-0.053-0.46-0.076-0.678,0.003c-0.149,0.054-0.275,0.163-0.355,0.299c-0.208,0.366-0.18,0.828-0.128,1.232
			c0.066,0.44,0.198,0.874,0.411,1.266c0.152,0.276,0.351,0.536,0.612,0.716c0.416,0.285,0.952,0.336,1.438,0.248
			c0.404-0.077,0.812-0.238,1.104-0.537c0.241-0.247,0.327-0.594,0.251-0.929c-0.117-0.517-0.483-0.934-0.867-1.28
			C517.875,348.822,517.274,348.433,516.605,348.253z"/>
	</g>
	<g id="POLYLINE_00000135652820815644138290000017436198908224256645_">
		<path fill="none" stroke="#FB8604" stroke-width="2" stroke-linecap="round" stroke-linejoin="round" stroke-miterlimit="10" d="
			M539.112,347.033c-0.167-0.078-0.372-0.114-0.543-0.027c-0.144,0.07-0.235,0.222-0.251,0.38c-0.019,0.164,0.032,0.329,0.115,0.47
			c0.15,0.251,0.37,0.452,0.598,0.631c0.321,0.245,0.675,0.456,1.052,0.601c0.151,0.053,0.404,0.14,0.55,0.054l0.003-0.002
			l0.002-0.002l0.002-0.002l0.002-0.002l0.002-0.002l0.002-0.002l0.002-0.002l0.002-0.002l0.002-0.002l0.002-0.002l0.002-0.002
			l0.002-0.002l0.002-0.002l0.002-0.002l0.002-0.002l0.002-0.002l0.002-0.002l0.002-0.002l0.002-0.002l0.002-0.002l0.002-0.002
			l0.002-0.002l0.002-0.002l0.002-0.002l0.001-0.003l0.001-0.003l0.001-0.003l0.001-0.003l0.001-0.003l0.001-0.003l0.001-0.003
			l0.001-0.003l0.001-0.003l0.001-0.003l0.001-0.003c0.044-0.139-0.044-0.315-0.105-0.439c-0.206-0.387-0.485-0.737-0.788-1.053
			C539.598,347.363,539.377,347.16,539.112,347.033z"/>
	</g>
	<g id="POLYLINE_00000163760595062458612260000004899210917067246980_">
		<path fill="none" stroke="#FB8604" stroke-width="2" stroke-linecap="round" stroke-linejoin="round" stroke-miterlimit="10" d="
			M522.608,330.975c-0.291,0.003-0.589,0.051-0.854,0.176c-0.094,0.049-0.197,0.111-0.237,0.214l-0.001,0.003l-0.001,0.003
			l-0.001,0.003l-0.001,0.003l-0.001,0.003l-0.001,0.003l-0.001,0.003l-0.001,0.003l-0.001,0.003l0,0.003l0,0.003l0,0.003l0,0.003
			l0,0.003l0,0.003l0,0.003l0,0.003l0,0.003l0,0.003l0,0.003l0,0.003l0,0.003l0,0.003l0,0.003l0,0.003l0,0.003l0.001,0.003
			l0.001,0.003l0.001,0.003l0.001,0.003l0.001,0.003l0.001,0.003l0.001,0.003l0.001,0.003l0.001,0.003l0.001,0.003l0.001,0.003
			l0.001,0.003c0.055,0.119,0.182,0.196,0.29,0.26c0.341,0.186,0.723,0.299,1.108,0.345c0.268,0.028,0.572,0.013,0.789-0.166
			c0.079-0.067,0.137-0.163,0.143-0.268c0.009-0.137-0.074-0.26-0.174-0.347C523.384,331.066,522.982,330.979,522.608,330.975z"/>
	</g>
	<g id="POLYLINE_00000141451136319143906820000008782930326334105232_">
		<path fill="none" stroke="#FB8604" stroke-width="2" stroke-linecap="round" stroke-linejoin="round" stroke-miterlimit="10" d="
			M534.895,330.765c-0.121,0.003-0.252,0.025-0.347,0.106c-0.082,0.069-0.107,0.177-0.078,0.278c0.045,0.158,0.176,0.275,0.31,0.362
			c0.293,0.183,0.633,0.283,0.97,0.345c0.241,0.04,0.493,0.062,0.733,0.007c0.091-0.023,0.187-0.057,0.25-0.131
			c0.113-0.139-0.037-0.297-0.148-0.38c-0.247-0.183-0.537-0.304-0.825-0.408C535.481,330.85,535.19,330.766,534.895,330.765z"/>
	</g>
	<g id="POLYLINE_00000117675079969608716100000015024384922892768131_">
		<path fill="none" stroke="#FB8604" stroke-width="2" stroke-linecap="round" stroke-linejoin="round" stroke-miterlimit="10" d="
			M562.052,335.529c-0.379-0.122-0.792-0.133-1.182-0.061c-0.212,0.044-0.508,0.127-0.629,0.32
			c-0.084,0.139-0.014,0.306,0.076,0.424c0.131,0.172,0.31,0.301,0.495,0.409c0.323,0.185,0.686,0.299,1.055,0.338
			c0.305,0.028,0.652,0.028,0.925-0.128c0.083-0.05,0.155-0.125,0.181-0.22c0.039-0.141-0.006-0.29-0.073-0.415
			C562.72,335.872,562.397,335.646,562.052,335.529z"/>
	</g>
	<g id="POLYLINE_00000152241573839527906740000010393751246282661565_">
		<path fill="none" stroke="#FB8604" stroke-width="2" stroke-linecap="round" stroke-linejoin="round" stroke-miterlimit="10" d="
			M662.591,372.575c-0.098-0.064-0.215-0.072-0.315-0.007c-0.12,0.078-0.193,0.209-0.248,0.337
			c-0.201,0.514-0.158,1.116,0.086,1.608c0.104,0.2,0.26,0.394,0.481,0.465c0.21,0.071,0.454,0.007,0.594-0.168
			c0.264-0.333,0.141-0.833,0.026-1.204c-0.086-0.258-0.199-0.511-0.35-0.738C662.789,372.759,662.705,372.649,662.591,372.575z"/>
	</g>
	<g id="POLYLINE_00000158726346970836869860000010032844182599372172_">
		<path fill="none" stroke="#FB8604" stroke-width="2" stroke-linecap="round" stroke-linejoin="round" stroke-miterlimit="10" d="
			M642.71,357.507c-0.233-0.002-0.311,0.255-0.329,0.447c-0.037,0.467,0.094,0.96,0.314,1.37c0.127,0.222,0.293,0.452,0.543,0.543
			c0.282,0.1,0.564-0.116,0.691-0.357c0.109-0.2,0.139-0.439,0.091-0.662c-0.072-0.32-0.27-0.597-0.49-0.834
			c-0.161-0.168-0.342-0.323-0.551-0.429C642.896,357.543,642.805,357.508,642.71,357.507z"/>
	</g>
	<g id="POLYLINE_00000043434671884971973180000006745628165464258728_">
		<path fill="none" stroke="#FB8604" stroke-width="2" stroke-linecap="round" stroke-linejoin="round" stroke-miterlimit="10" d="
			M667.226,369.532c-0.2-0.062-0.377,0.042-0.491,0.205c-0.214,0.316-0.248,0.73-0.163,1.096c0.072,0.299,0.221,0.594,0.469,0.784
			c0.128,0.098,0.289,0.155,0.451,0.145c0.211-0.01,0.415-0.117,0.545-0.283c0.287-0.359,0.127-0.852-0.075-1.213
			c-0.112-0.199-0.251-0.386-0.421-0.54C667.448,369.644,667.345,369.569,667.226,369.532z"/>
	</g>
	<g id="POLYLINE_00000079468813469687042650000008570790432269358983_">
		<path fill="none" stroke="#FB8604" stroke-width="2" stroke-linecap="round" stroke-linejoin="round" stroke-miterlimit="10" d="
			M623.233,342.947c-0.623-0.255-1.315-0.433-1.991-0.417c-0.142,0.01-0.298,0.023-0.417,0.11l-0.004,0.003l-0.003,0.003
			l-0.003,0.003l-0.003,0.003l-0.003,0.003l-0.003,0.003l-0.003,0.003l-0.003,0.003l-0.003,0.003l-0.003,0.003l-0.003,0.003
			l-0.003,0.003l-0.003,0.003l-0.003,0.003l-0.002,0.003l-0.002,0.003l-0.002,0.003l-0.002,0.003l-0.002,0.003l-0.002,0.003
			l-0.002,0.004l-0.002,0.004l-0.002,0.004l-0.002,0.004l-0.002,0.004l-0.002,0.004l-0.001,0.004l-0.001,0.004l-0.001,0.004
			l-0.001,0.004l-0.001,0.004l-0.001,0.004l-0.001,0.004l-0.001,0.004l-0.001,0.004l-0.001,0.004l-0.001,0.004l-0.001,0.004
			l-0.001,0.004l0,0.004l0,0.004l0,0.004l0,0.004l0,0.004c-0.002,0.118,0.065,0.225,0.133,0.317
			c0.369,0.455,0.961,0.748,1.508,0.928c0.54,0.166,1.113,0.284,1.679,0.233c0.121-0.016,0.251-0.038,0.348-0.117l0.003-0.003
			l0.003-0.003l0.003-0.003l0.003-0.003l0.003-0.003l0.003-0.003l0.003-0.003l0.003-0.003l0.003-0.003l0.003-0.003l0.003-0.003
			l0.002-0.003l0.002-0.003l0.002-0.003l0.002-0.003l0.002-0.003l0.002-0.003l0.002-0.003l0.002-0.003l0.002-0.003l0.002-0.004
			l0.002-0.004l0.002-0.004l0.001-0.004l0.001-0.004l0.001-0.004l0.001-0.004l0.001-0.004l0.001-0.004l0.001-0.004l0.001-0.004
			l0.001-0.004l0.001-0.004l0.001-0.004l0.001-0.004l0.001-0.004l0-0.004l0-0.004l0-0.004l0-0.004l0-0.004l0-0.004l0-0.004
			c-0.001-0.099-0.053-0.188-0.109-0.266C624.09,343.375,623.648,343.131,623.233,342.947z"/>
	</g>
	<g id="POLYLINE_00000086667090529230913070000001109575913891272344_">
		<path fill="none" stroke="#FB8604" stroke-width="2" stroke-linecap="round" stroke-linejoin="round" stroke-miterlimit="10" d="
			M622.796,357.34c-0.229,0.009-0.481,0.065-0.632,0.251c-0.179,0.224-0.126,0.56,0.04,0.777c0.17,0.228,0.451,0.341,0.726,0.379
			c0.494,0.064,1.106,0,1.564-0.197c0.114-0.054,0.238-0.128,0.28-0.254c0.036-0.11-0.02-0.224-0.091-0.308
			c-0.146-0.168-0.348-0.276-0.548-0.365C623.714,357.445,623.255,357.331,622.796,357.34z"/>
	</g>
	<g id="POLYLINE_00000106138427703511115190000011214167682081982617_">
		<path fill="none" stroke="#FB8604" stroke-width="2" stroke-linecap="round" stroke-linejoin="round" stroke-miterlimit="10" d="
			M436.602,377.136c-0.575-0.089-1.218-0.086-1.721,0.244c-0.253,0.168-0.425,0.44-0.446,0.745c-0.035,0.544,0.282,1.032,0.6,1.447
			c0.656,0.814,1.499,1.484,2.432,1.955c0.412,0.201,0.853,0.363,1.312,0.408c0.484,0.047,0.992-0.049,1.397-0.326
			c0.253-0.172,0.461-0.416,0.574-0.701c0.103-0.256,0.124-0.543,0.066-0.813c-0.117-0.54-0.502-0.974-0.9-1.337
			c-0.483-0.43-1.039-0.778-1.62-1.059C437.76,377.441,437.19,377.234,436.602,377.136z"/>
	</g>
	<g id="POLYLINE_00000073684155062698846400000004725000717815963790_">
		<path fill="none" stroke="#FB8604" stroke-width="2" stroke-linecap="round" stroke-linejoin="round" stroke-miterlimit="10" d="
			M420.29,390.047c-0.474-0.052-0.946,0.162-1.27,0.502c-0.286,0.296-0.519,0.74-0.356,1.152c0.094,0.241,0.289,0.425,0.497,0.57
			c0.422,0.285,0.913,0.458,1.405,0.581c0.34,0.08,0.693,0.134,1.043,0.119c0.209-0.01,0.423-0.048,0.606-0.154
			c0.156-0.088,0.281-0.233,0.329-0.407c0.063-0.217,0.016-0.451-0.07-0.655c-0.135-0.313-0.354-0.583-0.592-0.824
			C421.451,390.511,420.901,390.122,420.29,390.047z"/>
	</g>
	<g id="POLYLINE_00000080207423606309140590000002170315120296731526_">
		<path fill="none" stroke="#FB8604" stroke-width="2" stroke-linecap="round" stroke-linejoin="round" stroke-miterlimit="10" d="
			M429.895,338.781c-0.401,0.03-0.801,0.129-1.165,0.3c-0.248,0.118-0.489,0.271-0.668,0.482c-0.1,0.119-0.178,0.263-0.193,0.42
			c-0.015,0.137,0.022,0.277,0.093,0.395c0.123,0.204,0.325,0.346,0.535,0.449c0.455,0.218,0.968,0.285,1.467,0.316
			c0.637,0.026,1.295-0.005,1.9-0.222c0.279-0.106,0.559-0.284,0.677-0.57c0.068-0.163,0.064-0.35,0.001-0.513
			c-0.136-0.351-0.47-0.576-0.797-0.731C431.169,338.844,430.524,338.739,429.895,338.781z"/>
	</g>
	<g id="POLYLINE_00000129187203257670168490000011614401286096393393_">
		<path fill="none" stroke="#FB8604" stroke-width="2" stroke-linecap="round" stroke-linejoin="round" stroke-miterlimit="10" d="
			M448.528,332.776c-0.372,0.005-0.767,0.156-1.039,0.412c-0.087,0.087-0.173,0.2-0.166,0.33l0,0.004l0,0.004l0,0.004l0.001,0.004
			l0.001,0.004l0.001,0.004l0.001,0.004l0.001,0.004l0.001,0.004l0.001,0.004l0.001,0.004l0.001,0.004l0.001,0.004l0.001,0.004
			l0.001,0.004l0.001,0.004l0.002,0.004l0.002,0.004l0.002,0.004l0.002,0.004l0.002,0.004l0.002,0.004l0.002,0.004
			c0.033,0.063,0.089,0.11,0.147,0.149c0.193,0.124,0.419,0.187,0.64,0.24c0.376,0.083,0.766,0.13,1.152,0.123
			c0.155-0.006,0.316-0.018,0.46-0.08c0.081-0.035,0.158-0.101,0.171-0.192c0.018-0.131-0.053-0.254-0.122-0.359
			C449.51,333.086,449.035,332.78,448.528,332.776z"/>
	</g>
	<g id="POLYLINE_00000005262790132455800640000016869432549749431438_">
		<path fill="none" stroke="#FB8604" stroke-width="2" stroke-linecap="round" stroke-linejoin="round" stroke-miterlimit="10" d="
			M480.405,340.874c-0.412-0.004-0.825,0.077-1.211,0.221c-0.282,0.109-0.561,0.247-0.786,0.452
			c-0.096,0.092-0.193,0.208-0.192,0.348c0.002,0.121,0.086,0.22,0.177,0.291c0.161,0.123,0.355,0.199,0.545,0.264
			c0.46,0.15,0.943,0.238,1.422,0.302c0.474,0.058,0.959,0.094,1.435,0.056c0.241-0.022,0.488-0.063,0.703-0.18
			c0.112-0.062,0.216-0.15,0.266-0.271c0.042-0.098,0.039-0.211,0.005-0.311c-0.111-0.31-0.413-0.527-0.685-0.693
			C481.578,341.059,480.994,340.885,480.405,340.874z"/>
	</g>
	<g id="POLYLINE_00000075869824544757669340000007615636616331732399_">
		<path fill="none" stroke="#FB8604" stroke-width="2" stroke-linecap="round" stroke-linejoin="round" stroke-miterlimit="10" d="
			M475.109,354.172c-0.416-0.148-0.89-0.103-1.284,0.089c-0.217,0.11-0.442,0.278-0.495,0.529c-0.066,0.363,0.237,0.669,0.518,0.849
			c0.288,0.182,0.622,0.283,0.957,0.33c0.283,0.037,0.577,0.042,0.856-0.026c0.176-0.045,0.366-0.126,0.457-0.293
			c0.087-0.167,0.048-0.368-0.02-0.535C475.919,354.692,475.539,354.332,475.109,354.172z"/>
	</g>
	<g id="POLYLINE_00000152950529686863434370000009648807123330395571_">
		<path fill="none" stroke="#FB8604" stroke-width="2" stroke-linecap="round" stroke-linejoin="round" stroke-miterlimit="10" d="
			M456.937,362.842c-0.275-0.12-0.567,0.066-0.74,0.276c-0.221,0.261-0.361,0.655-0.18,0.973c0.157,0.28,0.491,0.4,0.796,0.422
			c0.286,0.021,0.665-0.057,0.751-0.372c0.06-0.249-0.026-0.518-0.131-0.744C457.322,363.176,457.167,362.948,456.937,362.842z"/>
	</g>
	<g id="POLYLINE_00000096772574823750942890000008114172294526964663_">
		<path fill="none" stroke="#FB8604" stroke-width="2" stroke-linecap="round" stroke-linejoin="round" stroke-miterlimit="10" d="
			M397.823,374.279c-0.583-0.083-1.16,0.246-1.486,0.718c-0.202,0.289-0.324,0.647-0.277,1.002c0.074,0.592,0.562,1.065,1.119,1.231
			c0.523,0.158,1.098,0.084,1.596-0.127c0.317-0.14,0.629-0.353,0.779-0.676c0.148-0.311,0.052-0.672-0.11-0.958
			c-0.179-0.319-0.438-0.591-0.733-0.806C398.448,374.474,398.147,374.324,397.823,374.279z"/>
	</g>
	<g id="POLYLINE_00000016053193932341634790000002627257358200776631_">
		<path fill="none" stroke="#FB8604" stroke-width="2" stroke-linecap="round" stroke-linejoin="round" stroke-miterlimit="10" d="
			M354.848,382.801c-0.877-0.062-1.7,0.481-2.148,1.211c-0.313,0.497-0.453,1.114-0.323,1.693c0.073,0.333,0.233,0.648,0.466,0.899
			c0.232,0.251,0.531,0.436,0.855,0.544c0.74,0.252,1.567,0.088,2.226-0.307c0.42-0.249,0.803-0.578,1.078-0.983
			c0.238-0.351,0.391-0.79,0.295-1.214c-0.103-0.456-0.416-0.836-0.769-1.13C356.052,383.125,355.465,382.847,354.848,382.801z"/>
	</g>
	<g id="POLYLINE_00000058591022143512886410000018410974406374404495_">
		<path fill="none" stroke="#FB8604" stroke-width="2" stroke-linecap="round" stroke-linejoin="round" stroke-miterlimit="10" d="
			M337.332,377.471c-0.452-0.106-0.945-0.077-1.368,0.124c-0.168,0.081-0.325,0.192-0.446,0.336
			c-0.204,0.237-0.281,0.589-0.119,0.869c0.123,0.219,0.354,0.353,0.589,0.425c0.356,0.104,0.735,0.106,1.102,0.081
			c0.412-0.034,0.828-0.107,1.209-0.272c0.182-0.085,0.404-0.204,0.445-0.418c0.028-0.166-0.065-0.324-0.169-0.447
			C338.259,377.813,337.789,377.585,337.332,377.471z"/>
	</g>
	<g id="POLYLINE_00000054238083723078851810000015338232482914311580_">
		<path fill="none" stroke="#FB8604" stroke-width="2" stroke-linecap="round" stroke-linejoin="round" stroke-miterlimit="10" d="
			M387.223,390.476c-0.315,0.04-0.618,0.185-0.847,0.405c-0.098,0.098-0.188,0.218-0.208,0.359
			c-0.018,0.115,0.022,0.235,0.103,0.318c0.132,0.137,0.335,0.176,0.519,0.16c0.329-0.036,0.638-0.187,0.906-0.375
			c0.146-0.11,0.368-0.292,0.361-0.491c-0.005-0.107-0.082-0.194-0.169-0.25C387.691,390.48,387.449,390.452,387.223,390.476z"/>
	</g>
	<g id="POLYLINE_00000039133917680909747650000007882192164472743561_">
		<path fill="none" stroke="#FB8604" stroke-width="2" stroke-linecap="round" stroke-linejoin="round" stroke-miterlimit="10" d="
			M393.271,407.538c-0.403-0.056-0.841,0.06-1.137,0.346c-0.093,0.094-0.175,0.215-0.176,0.352c0,0.093,0.046,0.179,0.107,0.247
			c0.196,0.205,0.475,0.306,0.739,0.389c0.401,0.116,0.824,0.176,1.242,0.162c0.184-0.01,0.374-0.029,0.541-0.111
			c0.07-0.036,0.137-0.089,0.164-0.166c0.026-0.073,0.009-0.153-0.02-0.223c-0.088-0.198-0.247-0.355-0.41-0.493
			C394.02,407.794,393.66,407.598,393.271,407.538z"/>
	</g>
	<g id="POLYLINE_00000086649460870936547500000003897882466550867354_">
		<path fill="none" stroke="#FB8604" stroke-width="2" stroke-linecap="round" stroke-linejoin="round" stroke-miterlimit="10" d="
			M336.764,347.007c-0.819,0.13-1.638,0.333-2.405,0.65c-0.409,0.174-0.816,0.381-1.145,0.684c-0.148,0.139-0.278,0.303-0.349,0.495
			c-0.063,0.169-0.078,0.354-0.048,0.532c0.087,0.497,0.45,0.897,0.841,1.192c1.073,0.786,2.521,0.976,3.819,0.855
			c0.778-0.089,1.607-0.295,2.179-0.863c0.492-0.494,0.693-1.228,0.598-1.911c-0.058-0.418-0.22-0.834-0.517-1.141
			c-0.279-0.29-0.665-0.454-1.055-0.529C338.048,346.853,337.395,346.913,336.764,347.007z"/>
	</g>
	<g id="POLYLINE_00000147219704298627650960000007108873809659938470_">
		<path fill="none" stroke="#FB8604" stroke-width="2" stroke-linecap="round" stroke-linejoin="round" stroke-miterlimit="10" d="
			M339.041,333.919c-0.558-0.059-1.129-0.022-1.681,0.072c-0.384,0.071-0.776,0.162-1.121,0.351
			c-0.141,0.081-0.286,0.191-0.332,0.355c-0.025,0.092-0.003,0.192,0.049,0.271c0.128,0.191,0.349,0.294,0.558,0.372
			c0.45,0.155,0.933,0.197,1.406,0.223c0.657,0.026,1.324,0.005,1.974-0.104c0.235-0.044,0.476-0.098,0.688-0.212
			c0.085-0.047,0.167-0.108,0.215-0.194c0.087-0.154-0.009-0.33-0.115-0.448C340.279,334.176,339.611,333.985,339.041,333.919z"/>
	</g>
	<g id="POLYLINE_00000052085348366530971710000008040591508582175381_">
		<path fill="none" stroke="#FB8604" stroke-width="2" stroke-linecap="round" stroke-linejoin="round" stroke-miterlimit="10" d="
			M373.924,343.601c-0.319-0.004-0.63,0.116-0.889,0.297c-0.285,0.2-0.521,0.482-0.636,0.813c-0.16,0.449-0.021,0.957,0.264,1.326
			c0.217,0.283,0.54,0.509,0.904,0.531c0.332,0.018,0.651-0.133,0.909-0.332c0.314-0.246,0.57-0.58,0.69-0.963
			c0.103-0.317,0.064-0.672-0.1-0.962C374.84,343.902,374.396,343.608,373.924,343.601z"/>
	</g>
	<g id="POLYLINE_00000104691463073944561790000016783151265673312185_">
		<path fill="none" stroke="#FB8604" stroke-width="2" stroke-linecap="round" stroke-linejoin="round" stroke-miterlimit="10" d="
			M405.858,332.376c-0.422-0.115-0.872-0.124-1.301-0.042c-0.206,0.044-0.458,0.112-0.603,0.273
			c-0.163,0.193-0.011,0.419,0.151,0.553c0.334,0.272,0.77,0.382,1.19,0.436c0.409,0.045,0.835,0.054,1.234-0.06
			c0.114-0.037,0.236-0.086,0.305-0.189c0.058-0.087,0.046-0.2,0.003-0.291c-0.059-0.127-0.16-0.231-0.267-0.319
			C406.363,332.567,406.115,332.449,405.858,332.376z"/>
	</g>
	<g id="POLYLINE_00000144297081856761954680000009693135878609534854_">
		<path fill="none" stroke="#FB8604" stroke-width="2" stroke-linecap="round" stroke-linejoin="round" stroke-miterlimit="10" d="
			M259.187,335.126c-0.517-0.096-1.076-0.018-1.53,0.254c-0.219,0.135-0.427,0.329-0.49,0.587c-0.068,0.276,0.059,0.56,0.244,0.763
			c0.526,0.568,1.373,0.662,2.103,0.558c0.406-0.063,0.887-0.186,1.186-0.484c0.079-0.083,0.14-0.189,0.149-0.305
			c0.012-0.136-0.036-0.27-0.103-0.386c-0.127-0.217-0.318-0.391-0.521-0.537C259.914,335.357,259.559,335.198,259.187,335.126z"/>
	</g>
	<g id="POLYLINE_00000128455548031806229850000007767790296424032896_">
		<path fill="none" stroke="#FB8604" stroke-width="2" stroke-linecap="round" stroke-linejoin="round" stroke-miterlimit="10" d="
			M283.021,345.167c-0.62,0-1.193,0.334-1.635,0.748c-0.219,0.209-0.415,0.449-0.556,0.718c-0.155,0.293-0.244,0.681-0.037,0.971
			c0.186,0.258,0.521,0.344,0.824,0.364c0.627,0.028,1.253-0.13,1.832-0.36c0.395-0.169,0.805-0.377,1.061-0.734
			c0.099-0.143,0.148-0.32,0.129-0.493c-0.021-0.208-0.124-0.401-0.255-0.561C284.05,345.423,283.538,345.176,283.021,345.167z"/>
	</g>
	<g id="POLYLINE_00000098197305940596983460000016244906626942254007_">
		<path fill="none" stroke="#FB8604" stroke-width="2" stroke-linecap="round" stroke-linejoin="round" stroke-miterlimit="10" d="
			M297.721,337.89c-0.307-0.098-0.595,0.078-0.759,0.334c-0.139,0.214-0.228,0.516-0.071,0.743c0.129,0.183,0.361,0.251,0.573,0.281
			c0.295,0.036,0.657,0.026,0.918-0.129c0.108-0.067,0.176-0.167,0.167-0.297c-0.013-0.179-0.113-0.339-0.221-0.478
			C298.168,338.147,297.965,337.97,297.721,337.89z"/>
	</g>
	<g id="POLYLINE_00000086650870445419654570000008131328358626280611_">
		<path fill="none" stroke="#FB8604" stroke-width="2" stroke-linecap="round" stroke-linejoin="round" stroke-miterlimit="10" d="
			M198.362,336.164c-0.163-0.045-0.337,0.009-0.475,0.1c-0.234,0.157-0.41,0.402-0.491,0.672c-0.077,0.257-0.036,0.57,0.22,0.708
			c0.222,0.116,0.502,0.086,0.736,0.02c0.26-0.078,0.55-0.243,0.604-0.532c0.037-0.212-0.039-0.429-0.152-0.607
			C198.697,336.365,198.55,336.218,198.362,336.164z"/>
	</g>
	<g id="POLYLINE_00000132076107172318806600000012949090927833210814_">
		<path fill="none" stroke="#FB8604" stroke-width="2" stroke-linecap="round" stroke-linejoin="round" stroke-miterlimit="10" d="
			M192.742,334.197c-0.674,0.049-1.362,0.214-1.937,0.581c-0.196,0.133-0.388,0.301-0.467,0.531
			c-0.071,0.208-0.019,0.438,0.087,0.625c0.303,0.52,0.917,0.854,1.508,0.909c0.714,0.065,1.423-0.189,2.026-0.558
			c0.366-0.233,0.747-0.52,0.945-0.916c0.065-0.137,0.096-0.299,0.044-0.445c-0.073-0.2-0.258-0.331-0.439-0.428
			C193.967,334.227,193.34,334.166,192.742,334.197z"/>
	</g>
	<g id="POLYLINE_00000042710897903649615990000004241283776121556380_">
		<path fill="none" stroke="#FB8604" stroke-width="2" stroke-linecap="round" stroke-linejoin="round" stroke-miterlimit="10" d="
			M208.909,338.787c-0.409,0.013-0.815,0.144-1.165,0.354c-0.187,0.119-0.422,0.301-0.423,0.544
			c0.002,0.176,0.122,0.326,0.252,0.434c0.329,0.264,0.785,0.371,1.195,0.27c0.319-0.079,0.616-0.257,0.827-0.509
			c0.111-0.136,0.202-0.303,0.198-0.483c-0.002-0.186-0.116-0.353-0.269-0.452C209.344,338.826,209.123,338.784,208.909,338.787z"/>
	</g>
	<g id="POLYLINE_00000066504895364424481030000013283818483488912262_">
		<path fill="none" stroke="#FB8604" stroke-width="2" stroke-linecap="round" stroke-linejoin="round" stroke-miterlimit="10" d="
			M236.332,339.65c-0.385-0.006-0.768,0.083-1.124,0.226c-0.304,0.125-0.599,0.291-0.836,0.523
			c-0.192,0.188-0.348,0.456-0.291,0.733c0.082,0.375,0.449,0.592,0.778,0.734c0.628,0.256,1.387,0.386,2.06,0.276
			c0.309-0.053,0.613-0.198,0.807-0.45c0.301-0.379,0.306-0.944,0.032-1.339C237.446,339.892,236.877,339.66,236.332,339.65z"/>
	</g>
	<g id="POLYLINE_00000085219262749900521830000008150538035116958883_">
		<path fill="none" stroke="#FB8604" stroke-width="2" stroke-linecap="round" stroke-linejoin="round" stroke-miterlimit="10" d="
			M149.502,330.026c-0.253-0.033-0.517,0.017-0.74,0.139c-0.127,0.072-0.251,0.175-0.296,0.319
			c-0.032,0.099-0.006,0.207,0.044,0.296c0.092,0.162,0.239,0.285,0.394,0.384c0.304,0.191,0.682,0.31,1.038,0.212
			c0.19-0.052,0.379-0.171,0.455-0.36c0.076-0.182-0.003-0.385-0.116-0.533C150.094,330.238,149.807,330.069,149.502,330.026z"/>
	</g>
	<g id="POLYLINE_00000160170955415660954470000009317136029919751832_">
		<path fill="none" stroke="#FB8604" stroke-width="2" stroke-linecap="round" stroke-linejoin="round" stroke-miterlimit="10" d="
			M275.548,340.746c-0.449-0.159-0.949-0.115-1.4,0.014c-0.281,0.088-0.633,0.237-0.774,0.511c-0.117,0.235-0.008,0.508,0.145,0.699
			c0.436,0.537,1.176,0.786,1.853,0.691c0.32-0.047,0.663-0.187,0.822-0.485c0.126-0.24,0.116-0.533,0.018-0.781
			C276.097,341.097,275.848,340.857,275.548,340.746z"/>
	</g>
	<g id="POLYLINE_00000043452465276117022200000018027584581099099021_">
		<path fill="none" stroke="#FB8604" stroke-width="2" stroke-linecap="round" stroke-linejoin="round" stroke-miterlimit="10" d="
			M592.175,464.799c-0.279-0.32-0.661-0.532-1.056-0.674c-0.717-0.255-1.493-0.331-2.247-0.395
			c-1.349-0.071-2.789-0.265-4.129-0.042c-0.489,0.089-0.98,0.254-1.37,0.57c-0.781,0.638-0.987,1.772-0.963,2.732
			c0.028,0.685,0.166,1.395,0.545,1.977c0.207,0.314,0.51,0.562,0.858,0.705c0.668,0.274,1.414,0.252,2.123,0.212
			c1.451-0.108,2.922-0.312,4.295-0.808c0.85-0.321,1.74-0.781,2.184-1.612C592.859,466.634,592.801,465.522,592.175,464.799z"/>
	</g>
	<g id="POLYLINE_00000080204487753177523070000010055584647734229400_">
		<path fill="none" stroke="#FB8604" stroke-width="2" stroke-linecap="round" stroke-linejoin="round" stroke-miterlimit="10" d="
			M456.401,408.342c-0.33-0.436-0.832-0.72-1.365-0.824c-0.58-0.117-1.186-0.056-1.75,0.11c-0.786,0.233-1.514,0.676-2.061,1.289
			c-0.433,0.484-0.756,1.074-0.899,1.71c-0.139,0.61-0.101,1.262,0.132,1.844c0.221,0.559,0.607,1.042,1.053,1.44
			c0.517,0.457,1.126,0.817,1.785,1.025c0.664,0.208,1.421,0.259,2.057-0.061c0.785-0.404,1.213-1.255,1.464-2.067
			c0.25-0.841,0.332-1.734,0.238-2.607C456.979,409.547,456.805,408.876,456.401,408.342z"/>
	</g>
	<g id="POLYLINE_00000049197810921726088070000007008986559472873643_">
		<path fill="none" stroke="#FB8604" stroke-width="2" stroke-linecap="round" stroke-linejoin="round" stroke-miterlimit="10" d="
			M399.945,392.681c-1.217-1.537-3.587-1.417-5.093-0.382c-1.181,0.789-1.858,2.202-1.867,3.608
			c-0.014,0.95,0.267,1.901,0.791,2.693c0.43,0.652,0.998,1.211,1.639,1.653c0.583,0.399,1.238,0.711,1.934,0.843
			c0.738,0.145,1.554,0.04,2.137-0.465c0.754-0.656,1.11-1.661,1.311-2.614c0.208-1.051,0.224-2.146,0.031-3.201
			C400.684,394.058,400.428,393.295,399.945,392.681z"/>
	</g>
	<g id="POLYLINE_00000065755976578845909920000011171293595833769118_">
		<path fill="none" stroke="#FB8604" stroke-width="2" stroke-linecap="round" stroke-linejoin="round" stroke-miterlimit="10" d="
			M408.154,355.675c-0.319-0.367-0.762-0.603-1.209-0.776c-0.709-0.265-1.476-0.385-2.232-0.349
			c-0.651,0.039-1.385,0.201-1.78,0.766c-0.316,0.449-0.366,1.029-0.295,1.56c0.132,0.924,0.607,1.834,1.395,2.359
			c0.888,0.604,2.073,0.49,2.97-0.036c0.556-0.322,1.017-0.811,1.293-1.392c0.17-0.358,0.272-0.757,0.248-1.155
			C408.524,356.296,408.389,355.946,408.154,355.675z"/>
	</g>
	<g id="POLYLINE_00000182525286480097359940000005683716091237235330_">
		<path fill="none" stroke="#FB8604" stroke-width="2" stroke-linecap="round" stroke-linejoin="round" stroke-miterlimit="10" d="
			M306.229,345.192c-0.29-0.381-0.752-0.593-1.216-0.668c-0.826-0.128-1.713,0.09-2.373,0.607c-1.069,0.853-1.361,2.591-0.58,3.724
			c0.726,1.036,2.355,1.393,3.366,0.569c0.348-0.282,0.607-0.661,0.798-1.062c0.214-0.454,0.347-0.948,0.391-1.448
			C306.663,346.322,306.594,345.679,306.229,345.192z"/>
	</g>
	<g id="POLYLINE_00000063630527557514740910000014517959621175623297_">
		<path fill="none" stroke="#FB8604" stroke-width="2" stroke-linecap="round" stroke-linejoin="round" stroke-miterlimit="10" d="
			M260.13,343.55c-0.391-1.151-1.406-2.021-2.496-2.497c-0.626-0.267-1.318-0.415-1.999-0.335c-0.475,0.055-0.93,0.241-1.323,0.51
			c-0.787,0.543-1.355,1.372-1.666,2.269c-0.238,0.693-0.316,1.468-0.063,2.168c0.344,0.974,1.198,1.669,2.104,2.109
			c1.076,0.528,2.411,0.736,3.51,0.163c0.7-0.365,1.248-0.982,1.615-1.673C260.243,345.442,260.424,344.447,260.13,343.55z"/>
	</g>
	<g id="POLYLINE_00000181060753490939849910000004456920566735091337_">
		<path fill="none" stroke="#FB8604" stroke-width="2" stroke-linecap="round" stroke-linejoin="round" stroke-miterlimit="10" d="
			M128.516,312.737c-0.239-0.349-0.602-0.594-0.983-0.765c-0.596-0.263-1.253-0.37-1.902-0.371
			c-0.556,0.003-1.122,0.083-1.636,0.304c-0.313,0.136-0.608,0.339-0.794,0.631c-0.222,0.34-0.281,0.762-0.243,1.16
			c0.066,0.669,0.355,1.3,0.726,1.853c0.421,0.614,0.974,1.162,1.656,1.478c0.397,0.182,0.849,0.271,1.281,0.185
			c0.425-0.08,0.798-0.33,1.096-0.635c0.337-0.345,0.6-0.759,0.794-1.199C128.863,314.562,129.037,313.518,128.516,312.737z"/>
	</g>
	<g id="POLYLINE_00000036243588395380908550000017946350817179956669_">
		<path fill="none" stroke="#FB8604" stroke-width="2" stroke-linecap="round" stroke-linejoin="round" stroke-miterlimit="10" d="
			M107.803,327.514c-0.18-0.164-0.435-0.211-0.671-0.192c-0.292,0.024-0.573,0.128-0.833,0.261c-0.338,0.176-0.648,0.41-0.908,0.688
			c-0.283,0.301-0.507,0.677-0.547,1.095c-0.057,0.532,0.158,1.054,0.454,1.487c0.264,0.375,0.579,0.73,0.97,0.976
			c0.195,0.119,0.427,0.206,0.658,0.166c0.335-0.056,0.551-0.356,0.706-0.635c0.216-0.399,0.351-0.841,0.447-1.283
			c0.102-0.493,0.156-1.004,0.117-1.508c-0.035-0.369-0.107-0.778-0.383-1.048L107.803,327.514z"/>
	</g>
	<g id="POLYLINE_00000080178992135100989690000015598174718550026912_">
		<path fill="none" stroke="#FB8604" stroke-width="2" stroke-linecap="round" stroke-linejoin="round" stroke-miterlimit="10" d="
			M513.113,379.897c-0.311-0.017-0.626,0.092-0.854,0.306c-0.274,0.254-0.464,0.652-0.43,1.031c0.047,0.493,0.543,0.753,0.971,0.876
			c0.487,0.139,1.005,0.186,1.509,0.13c0.304-0.038,0.618-0.116,0.864-0.307c0.101-0.08,0.186-0.187,0.218-0.313
			c0.03-0.113,0.013-0.233-0.031-0.34c-0.139-0.318-0.438-0.558-0.712-0.759C514.198,380.21,513.664,379.935,513.113,379.897z"/>
	</g>
</g>
<g id="_x32_D_x24_AG-ANIMALS">
	<g id="POLYLINE_00000053517991594945990620000005522752064541312914_">
		
			<path fill="none" stroke="#FB8604" stroke-width="2.75" stroke-linecap="round" stroke-linejoin="round" stroke-miterlimit="10" d="
			M630.922,376.761l17.211,16.97l1.001,0.954c0.546,0.514,1.131,1.017,1.739,1.454c1.29,0.942,2.733,1.707,4.285,2.108
			c1.999,0.534,4.126,0.379,6.099-0.196c2.488-0.732,4.94-1.963,7.279-3.071c3.077-1.533,6.168-3.223,8.754-5.513
			c2.112-1.831,4.082-4.574,5.818-6.767c1.578-2.002,4.371-5.095,5.817-7.17c0.541-0.774,1.053-1.589,1.419-2.461
			c0.338-0.801,0.539-1.669,0.528-2.541c-0.009-0.999-0.274-1.981-0.65-2.901c-0.683-1.657-1.718-3.161-2.902-4.5
			c-3.37-3.789-8.062-6.075-12.676-7.989c-4.787-1.95-10.247-3.575-14.628-6.37c-3.01-1.879-6.201-4.96-8.856-7.326
			c-1.145-1.001-2.356-1.97-3.683-2.716c-1.244-0.712-2.601-1.239-3.991-1.585c-1.133-0.301-3.76-0.719-4.958-0.936
			c-2.573-0.471-5.74-1.178-8.298-1.773c-14.6-3.569-31.792-7.779-46.605-9.741c-9.956-1.392-20.447-2.121-30.492-2.463
			c-65.51-1.566-203.177,3.737-270.155,5.242"/>
	</g>
	<g id="POLYLINE_00000016049179414833489290000011004181372612755349_">
		
			<path fill="none" stroke="#FB8604" stroke-width="2.75" stroke-linecap="round" stroke-linejoin="round" stroke-miterlimit="10" d="
			M500.216,372.902c-5.532,2.784-10.99,5.952-15.736,9.956c-2.991,2.545-5.735,5.486-7.598,8.969
			c-1.236,2.305-2.034,4.857-2.262,7.465c-0.24,2.597,0.073,5.227,0.624,7.767c2.601,12.195,10.745,18.667,21.065,24.53
			c8.206,4.62,18.717,10.087,26.055,15.875c10.555,8.231,19.698,18.339,27.282,29.349c0.67,0.982,5.302,8.003,5.842,8.755
			c1.532,2.209,3.154,4.428,5.106,6.287c1.044,0.991,2.201,1.88,3.464,2.572c1.337,0.738,2.788,1.271,4.278,1.602
			c2.739,0.609,5.6,0.551,8.362,0.122c3.641-0.569,7.188-1.776,10.568-3.226c4.934-2.136,9.672-4.825,14.162-7.774
			c3.87-2.559,7.646-5.369,11.083-8.489c2.713-2.455,5.245-5.215,7.556-8.052c3.253-3.973,7.217-9.494,10.306-13.646
			c4.534-6.289,9.14-12.952,12.77-19.805c4.151-7.82,6.967-16.354,8.57-25.051c0.767-4.214,1.411-8.563,0.937-12.848"/>
	</g>
	<g id="POLYLINE_00000124864742098183229450000004017200605921665707_">
		
			<path fill="none" stroke="#FB8604" stroke-width="2.75" stroke-linecap="round" stroke-linejoin="round" stroke-miterlimit="10" d="
			M382.863,354.213c-1.788,1.876-3.785,3.601-6.012,4.937c-1.688,1.009-3.537,1.799-5.481,2.136
			c-3.938,0.673-7.983-0.505-11.919-0.629c-1.319-0.046-2.652,0.089-3.949,0.322c-3.221,0.609-6.695,1.638-9.988,1.712
			c-6.233,0.204-14.998-1.66-21.207-2.54c-3.612-0.535-7.361-0.909-11.006-1.017c-7.488-0.216-16.584,0.136-24.023-0.495
			c-6.44-0.48-14.975-1.92-21.41-2.269c-2.238-0.114-4.524-0.148-6.75,0.15c-2.025,0.294-4.284,0.863-5.592,2.559l-0.046,0.062
			l-0.045,0.063l-0.044,0.063c-0.344,0.5-0.593,1.117-0.466,1.731c0.103,0.521,0.436,0.964,0.817,1.32
			c0.717,0.66,1.601,1.112,2.485,1.507c3.206,1.362,6.718,2.074,10.126,2.737c7.144,1.255,15.187,2.29,22.121,4.381
			c7.12,2.083,13.871,5.426,19.926,9.703c8.981,6.334,17.64,15.65,26.256,22.448c6.936,5.565,14.756,10.199,22.579,14.403
			c9.156,4.798,27.205,13.91,35.926,18.985c4.375,2.548,12.349,7.595,16.858,9.608c3.14,1.428,6.489,2.588,9.959,2.767
			c2.834,0.154,5.675-0.388,8.355-1.285c2.798-0.938,5.495-2.243,8.075-3.667c3.809-2.112,7.621-4.647,11.175-7.165
			c9.831-7.056,19.247-15.012,27.462-23.912"/>
	</g>
	<g id="POLYLINE_00000099636938469523507670000017586683538780745349_">
		
			<path fill="none" stroke="#FB8604" stroke-width="2.75" stroke-linecap="round" stroke-linejoin="round" stroke-miterlimit="10" d="
			M115.932,329.302c18.667,7.218,38.853,15.296,58.259,20.043c10.324,2.563,21.184,4.076,31.769,5.128l49.687,4.45"/>
	</g>
	<g id="POLYLINE_00000040535725812707139580000018088826296851801495_">
		
			<path fill="none" stroke="#FB8604" stroke-width="2.75" stroke-linecap="round" stroke-linejoin="round" stroke-miterlimit="10" d="
			M178.29,327.725c-8.332-0.447-17.047-0.959-25.253-2.447c-3.66-0.698-7.361-1.592-10.705-3.279
			c-1.645-0.836-3.186-1.906-4.475-3.232c-1.343-1.369-2.402-3.002-3.3-4.69c-1.497-2.815-2.702-5.902-3.801-8.894
			c-2.262-6.433-5.706-16.988-8.551-23.027c-2.141-4.744-4.604-9.504-7.26-13.979c-1.781-2.981-3.72-6.013-5.853-8.754
			c-1.551-1.96-3.23-3.894-5.298-5.325c-0.988-0.666-2.105-1.231-3.311-1.314c-0.753-0.054-1.521,0.125-2.168,0.517
			c-0.788,0.47-1.396,1.193-1.862,1.975c-1.076,1.844-1.525,3.987-1.805,6.083c-0.512,4.275-0.281,8.75-0.055,13.043l1.257,16.855
			c0.17,3.072,0.371,6.303,0.063,9.365c-0.187,1.808-0.618,3.625-1.526,5.213c-1.729,2.995-4.739,5.213-7.298,7.47
			c-1.081,0.954-2.15,1.978-2.913,3.211c-0.963,1.503-1.568,3.921-2.147,5.61c-0.3,0.88-0.644,1.791-1.03,2.636
			c-0.423,0.949-1.705,3.33-2.197,4.285c-1.175,2.294-2.096,4.746-2.555,7.287c-0.294,1.615-0.439,3.28-0.284,4.917
			c0.111,1.149,0.384,2.3,0.927,3.325c0.581,1.115,1.456,2.064,2.477,2.793c1.919,1.371,4.259,2.009,6.57,2.316
			c1.175,0.159,2.439,0.242,3.625,0.301c4.021,0.112,11.042,0.644,14.989,0.373c3.567-0.188,7.159-0.994,10.616-1.87
			c1.953-0.522,6.109-1.593,8.052-2.22c2.252-0.807,4.558-2.492,6.659-3.614c3.22-1.788,6.73-3.091,10.276-4.067"/>
	</g>
	<g id="POLYLINE_00000104687708452591907550000013822578125609413011_">
		
			<path fill="none" stroke="#FB8604" stroke-width="2.75" stroke-linecap="round" stroke-linejoin="round" stroke-miterlimit="10" d="
			M185.092,330.671c-1.612-0.232-3.252-0.571-4.699-1.346c-1.66-0.876-2.95-2.343-3.777-4.014c-1.513-2.983-1.745-6.413-1.7-9.704
			c0.113-5.7,1.004-12.748,0.987-18.442c0.032-1.85-0.12-4.95,0.212-6.762c0.118-0.652,0.306-1.304,0.635-1.884
			c0.309-0.551,0.766-1.023,1.325-1.323c0.709-0.383,1.531-0.512,2.329-0.503c1.463,0.024,2.881,0.529,4.153,1.227
			c2.177,1.201,3.987,2.975,5.62,4.827c4.457,5.055,10.731,14.796,14.672,20.4c2.26,3.416,4.879,7.153,6.683,10.823
			c0.551,1.165,1.075,2.385,1.235,3.673c0.066,0.574,0.046,1.183-0.219,1.708c-0.231,0.465-0.64,0.816-1.09,1.061
			c-0.618,0.337-1.311,0.525-1.997,0.666"/>
	</g>
	<g id="POLYLINE_00000143585485601740673450000002817671048761345676_">
		
			<path fill="none" stroke="#FB8604" stroke-width="2.75" stroke-linecap="round" stroke-linejoin="round" stroke-miterlimit="10" d="
			M249.391,330.355c-2.279-0.202-4.736-0.417-6.641-1.808c-1.148-0.843-1.959-2.056-2.62-3.3c-2.021-3.96-3.201-8.352-4.241-12.658
			c-1.474-6.47-2.419-13.163-2.385-19.808c0.031-2.028,0.143-4.097,0.564-6.086c0.234-1.064,0.562-2.134,1.146-3.062
			c0.403-0.642,0.955-1.206,1.64-1.543c0.671-0.337,1.436-0.443,2.18-0.409c1.535,0.078,3.013,0.6,4.413,1.203
			c2.658,1.179,5.133,2.778,7.463,4.508c4.435,3.337,8.462,7.332,11.409,12.058c1.4,2.185,3.234,5.615,4.579,7.849
			c1.253,2.097,2.653,4.265,4.08,6.246c3.065,4.387,7.293,8.563,10.9,12.497c0.445,0.523,0.928,1.055,1.229,1.678
			c0.089,0.198,0.156,0.418,0.108,0.635c-0.036,0.161-0.142,0.298-0.27,0.398c-0.21,0.167-0.464,0.269-0.714,0.361
			c-1.393,0.476-2.916,0.643-4.373,0.82"/>
	</g>
	<g id="POLYLINE_00000103243346469825835190000010253841614498768551_">
		
			<line fill="none" stroke="#FB8604" stroke-width="2.75" stroke-linecap="round" stroke-linejoin="round" stroke-miterlimit="10" x1="242.456" y1="328.317" x2="212.784" y2="328.489"/>
	</g>
</g>
<g id="_x32_D_x24_AG-OUTLINE">
	<g id="POLYLINE_00000144331366557908733390000018436123515770741421_">
		
			<path fill="none" stroke="#FB8604" stroke-width="3.5" stroke-linecap="round" stroke-linejoin="round" stroke-miterlimit="10" d="
			M477.046,412.826c1.58,3.784,4.017,7.182,6.963,10.023c3.607,3.51,7.955,6.24,12.3,8.74c8.206,4.62,18.717,10.087,26.055,15.875
			c10.555,8.231,19.698,18.339,27.282,29.349c0.67,0.982,5.302,8.003,5.842,8.755c1.532,2.209,3.154,4.428,5.106,6.287
			c1.044,0.991,2.201,1.88,3.464,2.572c1.337,0.738,2.788,1.271,4.278,1.602c2.739,0.609,5.6,0.551,8.362,0.122
			c3.641-0.569,7.188-1.776,10.568-3.226c4.934-2.136,9.672-4.825,14.162-7.774c3.87-2.559,7.646-5.369,11.083-8.489
			c2.713-2.455,5.245-5.215,7.556-8.052c3.253-3.973,7.217-9.494,10.306-13.646c4.534-6.289,9.14-12.952,12.77-19.805
			c4.151-7.82,6.967-16.354,8.57-25.051c0.767-4.214,1.411-8.563,0.937-12.848c1.595,0.856,3.398,1.346,5.214,1.318
			c2.086-0.018,4.113-0.668,6.021-1.466c3.973-1.728,7.994-3.614,11.529-6.14c1.162-0.839,2.265-1.8,3.253-2.839
			c1.408-1.449,3.177-3.835,4.44-5.432c1.578-2.002,4.371-5.095,5.817-7.17c0.541-0.774,1.053-1.589,1.419-2.461
			c0.338-0.801,0.539-1.669,0.528-2.541c-0.009-0.999-0.274-1.981-0.65-2.901c-0.683-1.657-1.718-3.161-2.902-4.5
			c-3.37-3.789-8.062-6.075-12.676-7.989c-4.787-1.95-10.247-3.575-14.628-6.37c-3.01-1.879-6.201-4.96-8.856-7.326
			c-1.145-1.001-2.356-1.97-3.683-2.716c-1.244-0.712-2.601-1.239-3.991-1.585c-1.133-0.301-3.76-0.719-4.958-0.936
			c-2.573-0.471-5.74-1.178-8.298-1.773c-14.6-3.569-31.792-7.779-46.605-9.741c-9.956-1.392-20.447-2.121-30.492-2.463
			c-65.51-1.566-203.177,3.737-270.155,5.242c-0.388-0.649-0.947-1.252-1.447-1.819c-3.058-3.298-6.866-7.132-9.524-10.716
			c-1.829-2.412-3.551-5.035-5.105-7.634c-1.675-2.781-3.58-6.456-5.412-9.117c-1.889-2.795-4.189-5.313-6.683-7.578
			c-2.685-2.423-5.626-4.636-8.774-6.42c-1.821-1.01-3.745-1.939-5.797-2.356c-1.117-0.216-2.336-0.261-3.378,0.262
			c-0.811,0.399-1.425,1.111-1.847,1.898c-0.572,1.065-0.871,2.259-1.081,3.442c-0.496,2.991-0.477,6.088-0.343,9.11
			c0.231,4.506,0.858,9.093,1.755,13.514c0.93,4.44,2.081,8.94,3.824,13.136c0.812,1.857,1.714,3.795,3.294,5.126l-29.672,0.172
			c0.066-0.798-0.123-1.596-0.362-2.353c-0.546-1.66-1.414-3.24-2.28-4.754c-3.073-5.287-9.846-14.78-13.355-19.958
			c-2.062-2.92-4.257-5.994-6.612-8.678c-2.069-2.338-4.45-4.615-7.461-5.641c-1.463-0.481-3.194-0.649-4.606,0.071
			c-0.575,0.299-1.045,0.778-1.36,1.342c-0.345,0.609-0.535,1.297-0.652,1.984c-0.105,0.62-0.149,1.272-0.175,1.9
			c-0.055,2.309,0.021,5.54-0.082,7.833c-0.169,4.466-0.85,10.906-0.925,15.37c-0.021,1.802,0.033,3.651,0.336,5.43
			c0.422,2.428,1.322,4.873,3.039,6.688c-8.332-0.447-17.047-0.959-25.253-2.447c-3.66-0.698-7.361-1.592-10.705-3.279
			c-1.645-0.836-3.186-1.906-4.475-3.232c-1.343-1.369-2.402-3.002-3.3-4.69c-1.497-2.815-2.702-5.902-3.801-8.894
			c-2.262-6.433-5.706-16.988-8.551-23.027c-2.141-4.744-4.604-9.504-7.26-13.979c-1.781-2.981-3.72-6.013-5.853-8.754
			c-1.551-1.96-3.23-3.894-5.298-5.325c-0.988-0.666-2.105-1.231-3.311-1.314c-0.753-0.054-1.521,0.125-2.168,0.517
			c-0.788,0.47-1.396,1.193-1.862,1.975c-1.076,1.844-1.525,3.987-1.805,6.083c-0.512,4.275-0.281,8.75-0.055,13.043l1.257,16.855
			c0.17,3.072,0.371,6.303,0.063,9.365c-0.187,1.808-0.618,3.625-1.526,5.213c-1.729,2.995-4.739,5.213-7.298,7.47
			c-1.081,0.954-2.15,1.978-2.913,3.211c-0.963,1.503-1.568,3.921-2.147,5.61c-0.3,0.88-0.644,1.791-1.03,2.636
			c-0.423,0.949-1.705,3.33-2.197,4.285c-1.175,2.294-2.096,4.746-2.555,7.287c-0.294,1.615-0.439,3.28-0.284,4.917
			c0.111,1.149,0.384,2.3,0.927,3.325c0.581,1.115,1.456,2.064,2.477,2.793c1.919,1.371,4.259,2.009,6.57,2.316
			c1.175,0.159,2.439,0.242,3.625,0.301c4.021,0.112,11.042,0.644,14.989,0.373c3.567-0.188,7.159-0.994,10.616-1.87
			c1.953-0.522,6.109-1.593,8.052-2.22c2.252-0.807,4.558-2.492,6.659-3.614c3.22-1.788,6.73-3.091,10.276-4.067
			c11.713,4.314,23.958,8.396,36.108,11.251c9.648,2.277,19.831,3.647,29.698,4.635l49.687,4.45
			c-0.442,0.54-0.828,1.216-0.744,1.937c0.063,0.547,0.389,1.021,0.776,1.397c0.725,0.694,1.639,1.16,2.547,1.567
			c3.649,1.536,7.651,2.278,11.531,2.989c7.464,1.229,15.716,2.395,22.878,4.806c6.326,2.085,12.326,5.189,17.766,9.025
			c8.981,6.334,17.64,15.65,26.256,22.448c6.936,5.565,14.756,10.199,22.579,14.403c9.156,4.798,27.205,13.91,35.926,18.985
			c4.375,2.548,12.349,7.595,16.858,9.608c3.14,1.428,6.489,2.588,9.959,2.767c2.834,0.154,5.675-0.388,8.355-1.285
			c2.798-0.938,5.495-2.243,8.075-3.667c3.809-2.112,7.621-4.647,11.175-7.165C459.415,429.681,468.831,421.725,477.046,412.826z"/>
	</g>
</g>
</svg>
