<?xml version="1.0" encoding="utf-8"?>
<!-- Generator: Adobe Illustrator 26.3.1, SVG Export Plug-In . SVG Version: 6.00 Build 0)  -->
<!DOCTYPE svg PUBLIC "-//W3C//DTD SVG 1.1//EN" "http://www.w3.org/Graphics/SVG/1.1/DTD/svg11.dtd" [
	<!ENTITY ns_flows "http://ns.adobe.com/Flows/1.0/">
	<!ENTITY ns_extend "http://ns.adobe.com/Extensibility/1.0/">
	<!ENTITY ns_ai "http://ns.adobe.com/AdobeIllustrator/10.0/">
	<!ENTITY ns_graphs "http://ns.adobe.com/Graphs/1.0/">
	<!ENTITY ns_vars "http://ns.adobe.com/Variables/1.0/">
	<!ENTITY ns_imrep "http://ns.adobe.com/ImageReplacement/1.0/">
	<!ENTITY ns_sfw "http://ns.adobe.com/SaveForWeb/1.0/">
	<!ENTITY ns_custom "http://ns.adobe.com/GenericCustomNamespace/1.0/">
	<!ENTITY ns_adobe_xpath "http://ns.adobe.com/XPath/1.0/">
]>
<svg version="1.1" xmlns:x="&ns_extend;" xmlns:i="&ns_ai;" xmlns:graph="&ns_graphs;"
	 xmlns="http://www.w3.org/2000/svg" xmlns:xlink="http://www.w3.org/1999/xlink" xmlns:a="http://ns.adobe.com/AdobeSVGViewerExtensions/3.0/"
	 x="0px" y="0px" width="750px" height="750px" viewBox="0 0 750 750" enable-background="new 0 0 750 750" xml:space="preserve">
<metadata>
	<sfw  xmlns="&ns_sfw;">
		<slices></slices>
		<sliceSourceBounds  bottomLeftOrigin="true" height="12223.324" width="4192" x="-2000" y="-3314"></sliceSourceBounds>
	</sfw>
</metadata>
<g id="FILL-BACKGROUND">
	<rect x="0" fill="#FFFFFF" width="750" height="750"/>
</g>
<g id="N-DIMENSIONS">
</g>
<g id="N-TEXT">
</g>
<g id="_x32_D_x24_AG-DETAILS-DIAGRAM">
</g>
<g id="_x32_D_x24_AG-DETAILS">
	<g id="POLYLINE_00000062894516596499336310000007680480144949447092_">
		<path fill="none" stroke="#FB8604" stroke-width="2" stroke-linecap="round" stroke-linejoin="round" stroke-miterlimit="10" d="
			M649.747,407.637c-0.945-1.382-2.068-2.918-1.877-4.682c0.102-0.956,0.505-1.857,0.905-2.721c0.847-1.814,2.054-3.786,2.12-5.831
			c0.026-1.072-0.273-2.126-0.618-3.132c-0.55-1.616-1.353-3.326-1.175-5.07c0.146-1.362,0.773-2.62,1.412-3.812
			c0.778-1.441,1.785-3.013,2.23-4.594c0.377-1.317,0.409-2.71,0.331-4.07c-0.037-0.541-0.16-2.27-0.181-2.782
			c-0.056-1.429-0.103-3.85-0.245-5.246"/>
	</g>
	<g id="POLYLINE_00000034088870400182847380000001703083066263766458_">
		<path fill="none" stroke="#FB8604" stroke-width="2" stroke-linecap="round" stroke-linejoin="round" stroke-miterlimit="10" d="
			M676.151,400.991c0.292-1.089,0.828-2.933,1.018-4.021c0.161-0.838,0.26-1.719,0.321-2.571c0.136-1.851,0.176-4.258,0.575-6.052
			c0.138-0.618,0.328-1.236,0.637-1.792c0.719-1.299,1.992-2.243,2.765-3.524c0.821-1.331,1.28-2.857,1.615-4.375
			c0.495-2.377,0.668-4.851,0.379-7.265"/>
	</g>
	<g id="POLYLINE_00000044864764010595077330000007853768400704889989_">
		<path fill="none" stroke="#FB8604" stroke-width="2" stroke-linecap="round" stroke-linejoin="round" stroke-miterlimit="10" d="
			M553.569,425.638l-0.253-1.511c-0.171-0.938-0.451-1.879-0.999-2.67c-0.368-0.542-0.853-0.998-1.357-1.411
			c-0.98-0.804-2.443-1.752-3.407-2.571c-0.662-0.559-1.294-1.183-1.743-1.93c-0.261-0.432-0.446-0.91-0.556-1.402
			c-0.517-2.451,0.334-4.988,0.33-7.453c0.002-0.667-0.094-1.336-0.251-1.983c-0.221-0.937-0.62-2.028-0.76-2.982
			c-0.076-0.5-0.097-1.013-0.038-1.516c0.056-0.5,0.191-0.991,0.368-1.461c0.494-1.288,1.281-2.455,2.193-3.483
			c0.845-0.943,1.823-1.785,2.92-2.421c0.834-0.481,1.752-0.846,2.712-0.964c2.542-0.298,4.923,0.993,7.017,2.287
			c1.153,0.754,3.566,2.325,4.711,3.06c1.172,0.797,2.406,1.701,2.955,3.057c0.233,0.571,0.308,1.195,0.298,1.808
			c-0.025,1.672-0.663,3.848-1.016,5.489c-0.244,1.147-0.466,2.332-0.38,3.509c0.071,1.007,0.378,1.986,0.761,2.915
			c0.469,1.136,1.09,2.372,1.393,3.563c0.594,2.302,0.526,4.735,0.429,7.093"/>
	</g>
	<g id="POLYLINE_00000039829720895623088000000006248948148138273717_">
		<path fill="none" stroke="#FB8604" stroke-width="2" stroke-linecap="round" stroke-linejoin="round" stroke-miterlimit="10" d="
			M528.334,418.939c-0.686,0.59-1.608,0.798-2.489,0.876c-1.283,0.098-2.585-0.026-3.854-0.216c-1.381-0.226-2.771-0.587-3.992-1.29
			c-0.804-0.464-1.524-1.111-1.958-1.94c-0.443-0.835-0.631-1.781-0.73-2.714c-0.183-1.751-0.048-3.851-0.068-5.617
			c-0.005-1.123-0.09-2.276-0.253-3.387c-0.37-2.712-1.271-5.602-1.239-8.355c0.021-1.262,0.234-2.553,0.833-3.677
			c0.336-0.631,0.803-1.196,1.374-1.628c0.582-0.444,1.267-0.742,1.969-0.938c1.403-0.386,2.892-0.411,4.33-0.228
			c1.818,0.243,3.613,0.838,5.154,1.844c1.977,1.289,3.397,3.333,4.12,5.564c0.572,1.785,0.757,3.787,0.049,5.561
			c-0.474,1.243-1.316,2.415-1.756,3.672c-0.489,1.38-0.451,2.883-0.381,4.326c0.099,2.075,0.495,4.537-0.126,6.55
			C529.128,417.942,528.817,418.523,528.334,418.939z"/>
	</g>
	<g id="POLYLINE_00000136375441876468309310000015116675831480498095_">
		<path fill="none" stroke="#FB8604" stroke-width="2" stroke-linecap="round" stroke-linejoin="round" stroke-miterlimit="10" d="
			M593.997,422.34c-0.775-0.841-1.526-1.737-2.088-2.737c-0.369-0.66-0.66-1.379-0.758-2.132c-0.114-0.825,0.064-1.658,0.283-2.451
			c0.378-1.34,0.896-2.776,0.74-4.182c-0.114-1.124-0.65-2.154-1.24-3.099c-1.435-2.254-3.635-4.558-5.059-6.818
			c-0.815-1.277-1.467-2.724-1.487-4.263c-0.018-0.863,0.158-1.73,0.511-2.518c0.371-0.834,0.93-1.578,1.589-2.206
			c1.216-1.153,2.745-1.936,4.314-2.493c2.05-0.701,4.31-1.093,6.466-0.737c1.035,0.179,2.075,0.59,2.789,1.386
			c0.461,0.501,0.797,1.107,1.072,1.727c0.598,1.36,1.013,3.059,1.712,4.372c0.332,0.637,0.764,1.225,1.293,1.712
			c1.363,1.277,3.502,2.185,5.151,3.04c0.926,0.489,1.862,1.021,2.603,1.773c1.149,1.16,1.673,2.764,2.05,4.316
			c0.275,1.195,0.636,2.819,0.981,3.979c0.605,2.086,1.539,4.855,1.999,6.962"/>
	</g>
	<g id="POLYLINE_00000150791530508516471020000012325027701885323697_">
		<path fill="none" stroke="#FB8604" stroke-width="2" stroke-linecap="round" stroke-linejoin="round" stroke-miterlimit="10" d="
			M627.381,414.771c-1.317-1.81-2.508-3.751-3.35-5.831c-0.566-1.417-0.98-2.927-0.981-4.461c-0.006-1.942,0.775-3.918,0.943-5.841
			c0.095-1.032-0.011-2.09-0.38-3.063c-0.378-1.004-0.965-1.926-1.589-2.795c-1.941-2.655-4.738-5.386-6.784-7.958
			c-1.176-1.493-2.335-3.087-2.876-4.932c-0.339-1.168-0.378-2.413-0.186-3.611c0.322-2.092,1.334-4.165,2.146-6.106"/>
	</g>
	<g id="POLYLINE_00000168838961375886057030000011327776005356561054_">
		<path fill="none" stroke="#FB8604" stroke-width="2" stroke-linecap="round" stroke-linejoin="round" stroke-miterlimit="10" d="
			M625.412,369.013c1.9,1.428,3.999,3.044,4.6,5.464c0.377,1.514,0.142,3.431,0.09,4.981c-0.037,1.297-0.04,2.688,0.613,3.851
			c0.32,0.561,0.795,1.02,1.312,1.4c1.695,1.22,3.927,1.883,5.766,2.846c0.957,0.49,1.871,1.113,2.544,1.962
			c0.77,0.949,1.208,2.157,1.227,3.379c0.05,2.697-1.794,4.984-2.305,7.559c-0.271,1.343,0.091,2.711,0.567,3.965
			c0.298,0.771,0.704,1.798,0.942,2.579c0.288,0.907,0.661,2.254,0.984,3.143"/>
	</g>
	<g id="POLYLINE_00000114759366359981138070000010000345098440226196_">
		<path fill="none" stroke="#FB8604" stroke-width="2" stroke-linecap="round" stroke-linejoin="round" stroke-miterlimit="10" d="
			M578.471,366.078c-0.18,0.563-0.361,1.185-0.834,1.575c-0.154,0.125-0.339,0.205-0.527,0.261
			c-0.636,0.176-1.357,0.215-1.952,0.519c-0.754,0.361-1.272,1.063-1.671,1.776c-0.571,1.042-0.928,2.198-1.128,3.366
			c-0.183,1.108-0.226,2.256-0.026,3.365c0.137,0.77,0.42,1.517,0.839,2.178c0.512,0.817,1.209,1.509,1.968,2.098
			c1.719,1.322,3.833,2.263,5.761,3.242c0.926,0.443,1.885,0.878,2.879,1.143c0.62,0.163,1.268,0.26,1.909,0.199
			c0.615-0.053,1.203-0.284,1.724-0.61c1.409-0.897,2.574-2.304,3.882-3.332c1.357-1.135,3.224-1.886,4.821-2.624
			c0.603-0.288,1.214-0.596,1.746-1.003c0.399-0.304,0.748-0.688,0.947-1.153c0.435-1.008,0.244-2.153-0.035-3.178
			c-0.67-2.314-1.879-4.584-3.715-6.178"/>
	</g>
	<g id="POLYLINE_00000057870066516495000850000003027767082364832160_">
		<path fill="none" stroke="#FB8604" stroke-width="2" stroke-linecap="round" stroke-linejoin="round" stroke-miterlimit="10" d="
			M542.052,362.655l-0.248,1.112c-0.164,0.689-0.397,1.376-0.807,1.96c-0.488,0.711-1.311,1.305-1.966,1.859
			c-0.59,0.504-1.209,1.047-1.505,1.783c-0.171,0.421-0.175,0.891-0.089,1.332c0.139,0.714,0.452,1.389,0.765,2.041
			c0.757,1.551,1.754,3.186,1.965,4.92c0.142,1.13-0.06,2.416-0.135,3.548c-0.031,0.565-0.028,1.15,0.155,1.692
			c0.11,0.328,0.297,0.629,0.536,0.878c0.611,0.63,1.44,0.993,2.26,1.269c1.667,0.536,3.44,0.721,5.183,0.781
			c1.872,0.037,3.794-0.022,5.6-0.558c0.973-0.303,1.979-0.798,2.507-1.711c0.241-0.413,0.344-0.893,0.372-1.366
			c0.08-1.09-0.237-2.48-0.384-3.564c-0.105-0.812-0.223-1.671,0.04-2.465c0.182-0.536,0.546-0.987,0.933-1.39
			c0.507-0.526,1.132-1.086,1.504-1.719c0.68-1.171,0.824-2.582,0.937-3.907c0.039-0.605,0.119-2.018,0.182-2.599
			c0.054-0.52,0.194-1.743,0.221-2.249"/>
	</g>
	<g id="POLYLINE_00000042017668289204245180000013044133384399748511_">
		<path fill="none" stroke="#FB8604" stroke-width="2" stroke-linecap="round" stroke-linejoin="round" stroke-miterlimit="10" d="
			M376.281,420.828c-0.424-1.044-0.939-2.242-1.188-3.331c-0.162-0.687-0.245-1.397-0.226-2.103c0.03-1.585,0.742-3.987,1.095-5.55
			c0.335-1.46,0.592-2.963,0.602-4.464c0.013-1.323-0.189-2.661-0.427-3.96c-0.285-1.614-0.802-3.777-0.888-5.401
			c-0.053-0.858-0.028-1.735,0.185-2.571c0.125-0.49,0.319-0.968,0.587-1.398c0.319-0.513,0.736-0.964,1.198-1.35
			c1.073-0.891,2.375-1.473,3.712-1.843c1.606-0.434,3.309-0.576,4.958-0.325c1.161,0.175,2.293,0.589,3.26,1.26
			c1.834,1.26,3.054,3.284,3.575,5.426c0.211,0.86,0.297,1.755,0.269,2.64c-0.03,1.321-0.331,2.803-0.472,4.117
			c-0.075,0.698-0.11,1.414-0.057,2.115c0.052,0.694,0.19,1.394,0.354,2.069c0.483,1.988,1.298,4.049,1.44,6.104
			c0.186,2.758-1.015,5.376-2.378,7.703"/>
	</g>
	<g id="POLYLINE_00000055676564131804997030000013463715855540006041_">
		<path fill="none" stroke="#FB8604" stroke-width="2" stroke-linecap="round" stroke-linejoin="round" stroke-miterlimit="10" d="
			M405.248,419.939c-0.878-1.971-1.753-4.126-1.409-6.324c0.155-0.958,0.584-1.851,1.042-2.698l1.07-1.905
			c0.608-1.115,1.143-2.305,1.317-3.573c0.123-0.886,0.072-1.795-0.043-2.679c-0.254-1.896-0.838-3.891-1.189-5.771
			c-0.295-1.604-0.48-3.337,0.193-4.872c0.83-1.947,2.71-3.314,4.736-3.81c2.57-0.633,5.252,0.191,7.506,1.444
			c1.9,1.064,3.641,2.437,5.108,4.046c0.781,0.876,1.538,1.839,1.866,2.983c0.243,0.832,0.21,1.726-0.008,2.561
			c-0.203,0.793-0.535,1.562-0.886,2.301c-0.874,1.839-2.233,3.971-3.053,5.833c-0.258,0.593-0.457,1.219-0.543,1.861
			c-0.136,1.028-0.043,2.121-0.214,3.146c-0.158,1.043-0.435,2.084-0.746,3.091c-0.504,1.607-1.139,3.237-1.856,4.761"/>
	</g>
	<g id="POLYLINE_00000020366293573037206260000005409164715459383196_">
		<path fill="none" stroke="#FB8604" stroke-width="2" stroke-linecap="round" stroke-linejoin="round" stroke-miterlimit="10" d="
			M343.975,426.528c-0.213-1.742-0.51-3.63,0.012-5.341c0.462-1.558,1.564-3.081,2.382-4.476c0.981-1.64,1.856-3.468,1.777-5.424
			c-0.059-2.144-0.868-4.294-1.275-6.385c-0.152-0.818-0.258-1.67-0.105-2.496c0.193-1.061,0.909-1.945,1.752-2.583
			c1.275-0.962,2.798-1.542,4.303-2.04c1.835-0.577,3.866-1.052,5.763-0.499c1.786,0.526,3.017,2.114,3.767,3.746
			c0.621,1.37,0.971,2.889,0.858,4.396c-0.096,1.394-0.584,2.734-1.234,3.961c-0.385,0.729-0.946,1.668-1.202,2.444
			c-0.161,0.466-0.256,0.958-0.273,1.45c-0.029,0.779,0.086,1.564,0.232,2.328c0.16,0.848,0.597,2.552,0.765,3.402
			c0.206,1.003,0.473,2.75,0.669,3.76"/>
	</g>
	<g id="POLYLINE_00000021825072619617606030000017824877563507899070_">
		<path fill="none" stroke="#FB8604" stroke-width="2" stroke-linecap="round" stroke-linejoin="round" stroke-miterlimit="10" d="
			M324.093,373.459l1.189,1.785c0.693,1.063,1.306,2.202,1.638,3.432c0.621,2.287,0.342,4.931,0.422,7.279
			c0.03,1.101,0.097,2.227,0.355,3.3c0.168,0.696,0.425,1.382,0.834,1.973c0.531,0.774,1.294,1.366,2.124,1.791
			c1.28,0.654,2.71,0.971,4.127,1.158c2.38,0.285,4.834,0.301,7.177-0.249c1.393-0.335,2.759-0.884,3.913-1.745
			c0.756-0.57,1.433-1.348,1.592-2.308c0.155-0.904-0.188-1.802-0.59-2.597c-1.14-2.171-3.065-4.288-4.53-6.25
			c-0.759-1.01-1.524-2.058-2.054-3.21c-0.372-0.81-0.613-1.686-0.702-2.573c-0.135-1.256,0.028-2.651,0.077-3.91"/>
	</g>
	<g id="POLYLINE_00000151535284099489302370000002994393754748031891_">
		<path fill="none" stroke="#FB8604" stroke-width="2" stroke-linecap="round" stroke-linejoin="round" stroke-miterlimit="10" d="
			M445.98,418.806c-0.588,0.005-1.193-0.05-1.737-0.287c-0.489-0.209-0.904-0.56-1.252-0.958c-0.726-0.842-1.262-1.847-1.765-2.833
			c-1.796-3.664-3.134-7.711-4.404-11.587c-0.669-2.125-1.372-4.322-1.624-6.543c-0.143-1.288-0.118-2.616,0.24-3.868
			c0.445-1.621,1.493-3.011,2.754-4.097c1.761-1.517,3.91-2.58,6.166-3.126c1.731-0.409,3.573-0.504,5.301-0.032
			c1.876,0.519,3.55,1.675,4.796,3.16c0.849,1.029,1.556,2.244,1.739,3.583c0.067,0.505,0.024,1.024-0.129,1.51
			c-0.291,0.949-0.957,1.844-1.411,2.72c-0.26,0.493-0.48,1.015-0.612,1.557c-0.12,0.479-0.167,0.978-0.168,1.471
			c0,1.064,0.183,2.135,0.401,3.174c0.409,1.933,1.348,4.981,1.788,6.912c0.345,1.611,0.712,3.394-0.014,4.953
			c-0.622,1.32-1.953,2.098-3.234,2.678c-1.208,0.538-2.493,0.936-3.783,1.222C448.032,418.628,447.002,418.793,445.98,418.806z"/>
	</g>
	<g id="POLYLINE_00000091701616391900961070000012943128087164116896_">
		<path fill="none" stroke="#FB8604" stroke-width="2" stroke-linecap="round" stroke-linejoin="round" stroke-miterlimit="10" d="
			M482.492,416.998c-0.351,0.684-0.838,1.328-1.519,1.71c-0.476,0.274-1.014,0.426-1.55,0.528c-0.876,0.161-1.798,0.225-2.687,0.274
			c-2.213,0.093-4.474,0.047-6.644-0.431c-0.922-0.222-1.874-0.513-2.61-1.134c-0.229-0.198-0.426-0.439-0.552-0.716
			c-0.13-0.282-0.19-0.592-0.204-0.901c-0.017-0.379,0.031-0.763,0.103-1.135c0.145-0.803,0.689-2.421,0.924-3.22
			c0.31-1.076,0.567-2.196,0.514-3.323c-0.119-2.526-1.685-5.023-2.764-7.249c-0.889-1.798-1.642-3.711-1.563-5.751
			c0.077-3.175,1.854-6.267,4.635-7.831c1.04-0.59,2.198-0.962,3.375-1.154c1.227-0.197,2.491-0.205,3.717,0.003
			c1.401,0.243,2.803,0.775,3.843,1.771c0.344,0.331,0.64,0.715,0.865,1.136c0.35,0.653,0.543,1.383,0.651,2.113
			c0.321,2.143-0.068,4.758-0.13,6.918c-0.018,0.81-0.013,1.642,0.197,2.43c0.142,0.531,0.396,1.028,0.707,1.479
			c0.504,0.729,1.16,1.415,1.59,2.194c0.356,0.623,0.57,1.319,0.685,2.025c0.148,0.897,0.174,1.822,0.141,2.729
			c-0.057,1.45-0.27,2.914-0.604,4.326C483.344,414.888,483.009,415.988,482.492,416.998z"/>
	</g>
	<g id="POLYLINE_00000146471912774871505220000000547436120358115215_">
		<path fill="none" stroke="#FB8604" stroke-width="2" stroke-linecap="round" stroke-linejoin="round" stroke-miterlimit="10" d="
			M498.76,420.975c-0.756-0.294-1.467-0.749-1.968-1.395c-0.491-0.622-0.761-1.393-0.875-2.172c-0.106-0.71-0.093-1.443-0.064-2.159
			c0.064-1.316,0.188-2.801,0.032-4.107c-0.076-0.668-0.224-1.336-0.461-1.966c-0.378-1.002-0.951-1.934-1.538-2.827
			c-1.666-2.495-3.736-5.1-4.036-8.184c-0.144-1.365-0.004-2.759,0.357-4.081c0.321-1.157,0.816-2.276,1.518-3.254
			c0.518-0.719,1.157-1.366,1.921-1.823c0.548-0.33,1.165-0.545,1.798-0.638c1.57-0.227,3.161,0.186,4.602,0.793
			c1.878,0.813,3.614,1.981,5.07,3.42c0.662,0.664,1.252,1.413,1.69,2.243c0.426,0.8,0.707,1.678,0.853,2.571
			c0.188,1.126,0.166,2.287,0.091,3.423c-0.151,2.413-0.673,5.256-0.493,7.674c0.056,0.71,0.201,1.421,0.479,2.079
			c0.391,0.962,1.102,1.901,1.683,2.755c0.491,0.723,0.916,1.509,1.126,2.362c0.198,0.783,0.244,1.619,0.04,2.405
			c-0.168,0.66-0.528,1.271-1.032,1.731c-1,0.897-2.376,1.309-3.67,1.564c-1.306,0.242-2.653,0.31-3.978,0.221
			C500.842,421.532,499.762,421.361,498.76,420.975z"/>
	</g>
	<g id="POLYLINE_00000044166551287531855100000005837892057246684602_">
		<path fill="none" stroke="#FB8604" stroke-width="2" stroke-linecap="round" stroke-linejoin="round" stroke-miterlimit="10" d="
			M255.599,432.662c-1.828-1.236-3.566-2.678-4.835-4.501c-0.974-1.375-1.72-2.909-2.313-4.482
			c-0.637-1.715-1.107-3.511-1.271-5.337c-0.123-1.508-0.058-3.1,0.608-4.485c0.345-0.71,0.875-1.323,1.498-1.803
			c0.666-0.516,1.433-0.895,2.219-1.191c1.254-0.469,2.591-0.745,3.91-0.956c2.297-0.336,4.758-0.604,7.077-0.69
			c1.71-0.047,3.459,0.014,5.118,0.464c1.097,0.298,2.159,0.795,3.012,1.557c1.286,1.142,2.109,2.726,2.596,4.358
			c0.345,1.171,0.527,2.395,0.533,3.616c0.006,1.099-0.152,2.205-0.377,3.279l-0.584,2.59c-0.59,2.542-0.39,5.194-0.118,7.766"/>
	</g>
	<g id="POLYLINE_00000140730542287356781680000006278279190161055105_">
		<path fill="none" stroke="#FB8604" stroke-width="2" stroke-linecap="round" stroke-linejoin="round" stroke-miterlimit="10" d="
			M287.132,432.394l-0.344-0.953c-0.29-0.836-0.524-1.721-0.444-2.613c0.059-0.714,0.333-1.393,0.62-2.043
			c0.603-1.304,1.318-2.734,1.556-4.152c0.385-2.15-0.349-4.515-0.751-6.628c-0.289-1.527-0.565-3.143-0.14-4.671
			c0.139-0.487,0.363-0.953,0.668-1.358c0.426-0.568,0.988-1.023,1.589-1.395c0.887-0.544,1.871-0.922,2.871-1.2
			c1.48-0.406,3.03-0.6,4.563-0.623c1.5-0.016,3.021,0.128,4.471,0.518c1.414,0.375,2.776,1.049,3.8,2.111
			c1.688,1.721,2.336,4.176,2.495,6.522c0.111,1.698,0.033,3.435-0.397,5.086c-0.288,1.09-0.744,2.16-1.48,3.025
			c-0.767,0.933-1.88,1.641-2.458,2.724c-0.303,0.583-0.395,1.254-0.385,1.905c0.019,0.97,0.248,1.933,0.595,2.837"/>
	</g>
	<g id="POLYLINE_00000007409934607154960630000013150089522841225372_">
		<path fill="none" stroke="#FB8604" stroke-width="2" stroke-linecap="round" stroke-linejoin="round" stroke-miterlimit="10" d="
			M315.401,430.592l1.044-1.961c1.311-2.516,2.467-5.229,2.551-8.104c0.052-1.394-0.181-2.795-0.487-4.15
			c-0.459-2.065-1.173-4.254-1.421-6.357c-0.156-1.36-0.101-2.828,0.627-4.028c0.789-1.305,2.113-2.191,3.485-2.796
			c1.225-0.532,2.546-0.861,3.875-0.988c1.15-0.106,2.33-0.065,3.452,0.227c1.181,0.303,2.285,0.896,3.192,1.711
			c1.078,0.963,1.881,2.207,2.449,3.529c0.802,1.891,1.201,3.991,0.959,6.041c-0.073,0.584-0.206,1.169-0.414,1.719
			c-0.214,0.568-0.511,1.109-0.838,1.62c-0.812,1.28-1.945,2.494-2.313,4c-0.269,1.056-0.249,2.167-0.166,3.247
			c0.131,1.439,0.262,2.955,0.6,4.362"/>
	</g>
	<g id="POLYLINE_00000175286081752063844790000017800736690691365260_">
		<path fill="none" stroke="#FB8604" stroke-width="2" stroke-linecap="round" stroke-linejoin="round" stroke-miterlimit="10" d="
			M73.844,366.038c0.575,0.7,1.087,1.523,1.769,2.127c0.838,0.766,1.917,1.202,2.961,1.609c1.931,0.737,4.236,1.474,6.006,2.527
			c0.84,0.497,1.639,1.094,2.263,1.85c1.367,1.657,1.814,3.88,1.777,5.984c-0.051,2.168-0.552,4.347-1.556,6.276
			c-0.756,1.454-1.823,2.732-3.005,3.859"/>
	</g>
	<g id="POLYLINE_00000052807097945118267360000003346394000218145974_">
		<path fill="none" stroke="#FB8604" stroke-width="2" stroke-linecap="round" stroke-linejoin="round" stroke-miterlimit="10" d="
			M104.213,388.852c-1.882-2.349-3.749-4.901-4.455-7.876c-0.367-1.585-0.273-3.368-0.488-4.975
			c-0.132-1.006-0.419-2.008-0.961-2.873c-0.443-0.714-1.017-1.346-1.614-1.933c-1.417-1.398-3.259-2.7-4.627-4.146
			c-0.43-0.464-0.826-0.979-1.058-1.573c-0.264-0.656-0.313-1.376-0.292-2.076c0.007-0.189,0.045-1.075,0.046-1.246"/>
	</g>
	<g id="POLYLINE_00000139981371432887437690000000495472540339822764_">
		<path fill="none" stroke="#FB8604" stroke-width="2" stroke-linecap="round" stroke-linejoin="round" stroke-miterlimit="10" d="
			M107.392,360.293c0.176,1.049,0.262,2.264,0.634,3.262c0.303,0.862,0.807,1.641,1.387,2.342c2.23,2.678,5.386,4.991,7.429,7.826
			c0.613,0.86,1.039,1.853,1.223,2.894c0.245,1.345,0.206,2.823,0.489,4.162c0.549,2.691,1.76,5.372,2.839,7.891"/>
	</g>
	<g id="POLYLINE_00000128443464784884172960000017091656921195386559_">
		<path fill="none" stroke="#FB8604" stroke-width="2" stroke-linecap="round" stroke-linejoin="round" stroke-miterlimit="10" d="
			M228.522,425.134c-0.501,0.333-1.097,0.497-1.69,0.568c-0.989,0.113-1.996-0.013-2.957-0.258
			c-1.361-0.364-2.724-0.964-3.748-1.953c-0.343-0.339-0.63-0.735-0.86-1.158c-0.407-0.727-0.707-1.766-0.986-2.554
			c-0.274-0.781-0.616-1.553-1.088-2.236c-0.636-0.919-1.457-1.716-2.27-2.478c-1.406-1.313-3.356-2.902-4.537-4.403
			c-0.553-0.698-1.044-1.472-1.284-2.337c-0.395-1.404-0.026-2.96,0.864-4.101c0.617-0.802,1.478-1.412,2.437-1.734
			c0.848-0.288,1.762-0.343,2.65-0.275c1.864,0.155,3.664,0.797,5.331,1.623c1.809,0.918,3.528,2.084,4.917,3.572
			c0.957,1.023,1.655,2.275,2.071,3.611c0.278,0.84,0.483,1.892,0.735,2.741c0.227,0.782,0.71,1.833,1.03,2.585
			c0.739,1.724,1.116,3.625,0.958,5.501C229.986,423.072,229.594,424.417,228.522,425.134z"/>
	</g>
	<g id="POLYLINE_00000131359385399460318790000000662219805836293559_">
		<path fill="none" stroke="#FB8604" stroke-width="2" stroke-linecap="round" stroke-linejoin="round" stroke-miterlimit="10" d="
			M224.82,380.76c-0.513,1.091-1.096,2.238-1.247,3.446c-0.262,1.852,0.676,3.673,1.506,5.276c1.064,1.97,2.585,4.506,3.338,6.587
			c0.612,1.601,1.091,3.369,1.916,4.877c0.392,0.716,0.878,1.388,1.471,1.951c1.095,1.051,2.524,1.676,3.962,2.105
			c2.098,0.605,4.318,0.856,6.495,0.669c0.955-0.095,1.925-0.272,2.793-0.698c0.351-0.176,0.685-0.4,0.944-0.697
			c0.224-0.255,0.385-0.562,0.482-0.886c0.189-0.634,0.163-1.311,0.092-1.962c-0.171-1.452-0.639-3.184-0.707-4.646
			c-0.084-1.567,0.172-3.144,0.505-4.671c0.351-1.598,0.983-3.906,1.058-5.524c0.125-1.768-0.124-3.685-0.317-5.446"/>
	</g>
	<g id="POLYLINE_00000048500228636669528940000011178855403136969109_">
		<path fill="none" stroke="#FB8604" stroke-width="2" stroke-linecap="round" stroke-linejoin="round" stroke-miterlimit="10" d="
			M264.629,380.243c-1.833,1.845-3.215,4.071-4.336,6.406c-0.788,1.653-1.476,3.398-1.708,5.224
			c-0.133,1.087-0.08,2.227,0.356,3.243c0.36,0.848,0.945,1.584,1.609,2.215c1.09,1.03,2.391,1.828,3.699,2.552
			c2.308,1.223,4.796,2.463,7.226,3.421c2.2,0.838,4.58,1.487,6.949,1.16c1.109-0.157,2.187-0.541,3.161-1.09
			c0.798-0.454,1.543-1.025,2.141-1.725c0.495-0.585,0.907-1.285,0.985-2.06c0.051-0.512-0.051-1.028-0.217-1.511
			c-0.231-0.689-0.76-1.689-1.079-2.355c-0.258-0.545-0.497-1.114-0.667-1.693c-0.273-0.916-0.427-1.896-0.55-2.843
			c-0.23-1.806-0.379-3.968-0.933-5.696c-0.752-2.39-2.38-4.375-4.063-6.183"/>
	</g>
	<g id="POLYLINE_00000147916034744058946900000003545267223603129505_">
		<path fill="none" stroke="#FB8604" stroke-width="2" stroke-linecap="round" stroke-linejoin="round" stroke-miterlimit="10" d="
			M291.288,378.014c-0.377,1.427-0.67,2.901-0.762,4.375c-0.108,1.628,0.004,3.283,0.244,4.896c0.493,3.19,1.52,6.386,3.477,8.989
			c0.595,0.784,1.28,1.508,2.046,2.126c0.969,0.782,2.068,1.412,3.213,1.898c1.755,0.734,3.66,1.178,5.568,1.152
			c1.426-0.027,2.927-0.338,3.966-1.384c0.809-0.778,1.379-1.914,2.04-2.811c0.298-0.406,0.635-0.792,1.031-1.106
			c0.524-0.415,1.135-0.719,1.741-0.995c1.497-0.682,3.336-1.302,4.142-2.856c0.361-0.683,0.531-1.453,0.611-2.217
			c0.117-1.18,0.026-2.381-0.156-3.55c-0.44-2.624-1.27-5.231-2.659-7.512c-0.863-1.409-1.999-2.646-3.202-3.771"/>
	</g>
	<g id="POLYLINE_00000005984554909706437880000015732596179032182150_">
		<path fill="none" stroke="#FB8604" stroke-width="2" stroke-linecap="round" stroke-linejoin="round" stroke-miterlimit="10" d="
			M379.718,367.774c-0.348,0.929-0.83,1.89-0.861,2.898c-0.038,0.792,0.234,1.535,0.636,2.206c0.414,0.699,0.939,1.341,1.477,1.948
			c1.094,1.245,2.925,2.922,4.13,4.096c0.534,0.518,1.125,1.125,1.622,1.676c0.543,0.578,1.444,1.663,2.028,2.176
			c0.557,0.519,1.187,0.969,1.879,1.287c0.959,0.442,2.01,0.662,3.053,0.788c1.206,0.138,2.435,0.143,3.639-0.018
			c0.756-0.107,1.521-0.273,2.21-0.612c0.443-0.221,0.852-0.542,1.095-0.98c0.236-0.417,0.297-0.912,0.251-1.384
			c-0.082-0.799-0.404-1.553-0.753-2.268c-0.886-1.823-2.688-4.25-3.821-5.957c-1.057-1.566-2.992-4.793-4.027-6.396"/>
	</g>
	<g id="POLYLINE_00000025443765431375060030000003888403219553273525_">
		<path fill="none" stroke="#FB8604" stroke-width="2" stroke-linecap="round" stroke-linejoin="round" stroke-miterlimit="10" d="
			M354.501,369.674l-0.425,1.046c-0.467,1.164-0.829,2.411-0.737,3.677c0.057,0.941,0.342,1.858,0.718,2.718
			c0.436,0.994,0.995,1.943,1.615,2.832c0.776,1.105,1.663,2.149,2.672,3.049c0.636,0.558,1.327,1.08,2.108,1.418
			c0.483,0.208,1.008,0.319,1.534,0.32c1.033,0.006,2.119-0.371,3.138-0.501c1.62-0.233,3.34,0.175,4.964,0.096
			c0.41-0.026,0.83-0.085,1.204-0.264c0.193-0.092,0.37-0.221,0.508-0.386c0.161-0.191,0.27-0.421,0.345-0.658
			c0.221-0.734,0.187-1.518,0.131-2.274c-0.114-1.45-0.524-3.407-0.706-4.854c-0.226-1.71-0.318-4.423-0.387-6.168
			c-0.024-0.431-0.066-1.02-0.107-1.45"/>
	</g>
	<g id="POLYLINE_00000032644478477794400190000013752442265301286843_">
		<path fill="none" stroke="#FB8604" stroke-width="2" stroke-linecap="round" stroke-linejoin="round" stroke-miterlimit="10" d="
			M150.528,352.551c-0.806,0.759-1.722,1.531-2.348,2.447c-0.571,0.81-0.962,1.739-1.234,2.689c-0.543,1.936-0.738,3.97-0.687,5.977
			c0.059,1.783,0.321,3.592,1,5.25c0.394,0.952,0.945,1.86,1.706,2.563c1.199,1.111,2.833,1.674,4.451,1.741
			c1.448,0.058,2.933-0.259,4.18-1.014c0.591-0.358,1.12-0.825,1.533-1.38c0.471-0.63,0.805-1.357,1.044-2.104
			c0.828-2.603,0.686-5.748,0.774-8.459c0.034-1.175,0.169-2.365,0.396-3.517c0.153-0.75,0.523-2.438,0.632-3.172"/>
	</g>
	<g id="POLYLINE_00000043424136248417899320000007280691918634351237_">
		<path fill="none" stroke="#FB8604" stroke-width="2" stroke-linecap="round" stroke-linejoin="round" stroke-miterlimit="10" d="
			M170.509,355.668l-0.435,1.177c-0.449,1.218-0.668,2.517-0.789,3.806c-0.18,1.917-0.196,3.89-0.055,5.811
			c0.173,2.209,0.548,4.438,1.372,6.504c0.665,1.671,1.684,3.212,3.176,4.251c1.018,0.721,2.198,1.232,3.433,1.423
			c0.779,0.116,1.6,0.108,2.347-0.167c0.369-0.137,0.716-0.349,0.982-0.642c0.255-0.278,0.423-0.626,0.524-0.988
			c0.184-0.67,0.178-1.38,0.127-2.068c-0.209-2.546-1.161-5.224-1.359-7.771c-0.061-0.869,0.044-1.757,0.362-2.572
			c0.374-0.992,1.073-1.917,1.588-2.837"/>
	</g>
	<g id="POLYLINE_00000052801601041073169090000015435065550796019381_">
		<path fill="none" stroke="#FB8604" stroke-width="2" stroke-linecap="round" stroke-linejoin="round" stroke-miterlimit="10" d="
			M192.032,369.894c-0.338,2.992-0.15,6.324-0.45,9.319c-0.214,2.387-0.728,4.963-0.36,7.352c0.152,0.95,0.482,1.893,1.086,2.653
			c0.67,0.844,1.62,1.428,2.616,1.812c1.018,0.385,2.124,0.582,3.211,0.476c0.613-0.064,1.232-0.234,1.742-0.591
			c0.37-0.255,0.656-0.619,0.835-1.029c0.216-0.485,0.309-1.018,0.351-1.545c0.14-1.886-0.35-4.223-0.592-6.101
			c-0.18-1.386-0.332-2.842,0.259-4.155c0.334-0.785,0.912-1.529,1.326-2.273"/>
	</g>
	<g id="POLYLINE_00000049200085552267978260000007995390429377439407_">
		<path fill="none" stroke="#FB8604" stroke-width="2" stroke-linecap="round" stroke-linejoin="round" stroke-miterlimit="10" d="
			M210.575,378.547c0.067,2.34,0.457,4.941,0.037,7.259c-0.275,1.652-0.957,3.278-1.254,4.925c-0.13,0.75-0.185,1.545,0.064,2.277
			c0.114,0.335,0.297,0.648,0.535,0.91c0.424,0.465,0.983,0.785,1.554,1.036c0.997,0.429,2.077,0.661,3.153,0.781
			c0.998,0.103,2.022,0.115,3.013-0.06c0.527-0.102,1.075-0.244,1.5-0.586c0.227-0.185,0.383-0.45,0.436-0.738
			c0.09-0.488-0.03-0.986-0.159-1.456c-0.194-0.68-0.543-1.598-0.736-2.279c-0.184-0.635-0.319-1.304-0.415-1.958
			c-0.223-1.534-0.261-3.116-0.199-4.664c0.053-1.317,0.195-2.659,0.467-3.95"/>
	</g>
	<g id="POLYLINE_00000068676457042854761940000011645079960724603522_">
		<path fill="none" stroke="#FB8604" stroke-width="2" stroke-linecap="round" stroke-linejoin="round" stroke-miterlimit="10" d="
			M195.14,408.289c-1.411,0.072-2.64-0.862-3.479-1.917c-0.944-1.189-1.564-2.616-1.928-4.083c-0.295-1.23-0.435-2.518-0.268-3.777
			c0.135-0.941,0.477-2.005,1.375-2.473c0.718-0.355,1.563-0.234,2.31-0.038c0.936,0.258,1.824,0.689,2.663,1.174
			c0.917,0.536,1.794,1.158,2.6,1.849c0.522,0.453,1.03,0.94,1.449,1.492c0.288,0.383,0.535,0.806,0.67,1.268
			c0.408,1.366-0.344,2.739-1.154,3.8c-0.636,0.814-1.408,1.539-2.3,2.066C196.488,407.993,195.828,408.253,195.14,408.289z"/>
	</g>
	<g id="POLYLINE_00000168080010616657493840000005686865525244209313_">
		<path fill="none" stroke="#FB8604" stroke-width="2" stroke-linecap="round" stroke-linejoin="round" stroke-miterlimit="10" d="
			M137.548,389.216c-1.06-0.79-2.045-1.715-2.792-2.811c-0.479-0.709-0.858-1.507-0.978-2.361c-0.211-1.532,0.5-3.017,1.36-4.242
			c0.73-1.024,1.617-1.946,2.586-2.746c0.813-0.661,1.755-1.238,2.814-1.364c0.788-0.101,1.588,0.082,2.304,0.412
			c0.922,0.422,1.748,1.043,2.481,1.739c1.274,1.232,2.333,2.743,2.853,4.449c0.789,2.617,0.025,5.4-1.098,7.801"/>
	</g>
	<g id="POLYLINE_00000116934880003045433180000014451473326627537286_">
		<path fill="none" stroke="#FB8604" stroke-width="2" stroke-linecap="round" stroke-linejoin="round" stroke-miterlimit="10" d="
			M172.788,394.135c-1.67,0.11-3.275-0.648-4.541-1.69c-2.543-2.111-4.005-5.261-4.702-8.439c-0.227-1.089-0.395-2.214-0.312-3.329
			c0.039-0.394,0.099-0.809,0.321-1.146l0.01-0.014l0.01-0.014l0.01-0.014l0.01-0.013l0.011-0.013l0.011-0.013l0.011-0.012
			l0.011-0.012l0.011-0.011l0.011-0.011l0.011-0.011l0.012-0.01l0.012-0.01l0.012-0.01l0.012-0.009l0.012-0.009l0.012-0.009
			l0.013-0.008l0.013-0.008l0.013-0.008l0.013-0.007l0.013-0.007l0.014-0.007l0.014-0.006l0.014-0.006l0.014-0.005l0.014-0.005
			l0.014-0.005l0.014-0.004l0.015-0.004l0.015-0.004l0.015-0.003l0.015-0.003l0.015-0.003l0.015-0.002l0.016-0.002l0.016-0.001
			l0.016-0.001l0.016-0.001l0.016,0l0.016,0l0.016,0l0.017,0.001l0.017,0.001l0.017,0.001l0.017,0.002l0.017,0.002l0.017,0.002
			c0.19,0.028,0.37,0.105,0.539,0.192c0.316,0.167,0.611,0.384,0.891,0.605c1.366,1.108,3.097,2.911,4.424,4.074
			c1.341,1.222,3.259,2.544,4.739,3.614c0.659,0.495,1.334,1.008,1.867,1.64c0.26,0.315,0.489,0.673,0.574,1.078
			c0.16,0.736-0.258,1.45-0.747,1.97c-0.449,0.475-0.998,0.852-1.584,1.139C174.249,393.879,173.525,394.088,172.788,394.135z"/>
	</g>
	<g id="POLYLINE_00000166665745047783896750000002680391152962945423_">
		<path fill="none" stroke="#FB8604" stroke-width="2" stroke-linecap="round" stroke-linejoin="round" stroke-miterlimit="10" d="
			M120.897,356.682c0.296,1.352,1.11,3.84,1.518,5.192c0.292,0.997,0.556,2.047,0.737,3.069c0.181,1.006,0.41,3.114,0.572,4.131
			c0.192,1.152,0.435,2.336,1.032,3.355c0.364,0.622,0.9,1.156,1.566,1.447c0.991,0.432,2.112,0.445,3.169,0.32
			c0.946-0.12,1.883-0.374,2.762-0.742c0.667-0.282,1.313-0.633,1.881-1.085c0.533-0.428,1.022-0.966,1.215-1.636
			c0.135-0.462,0.124-0.956,0.04-1.426c-0.156-0.944-0.707-2.12-1.042-3.019c-0.292-0.774-0.554-1.58-0.601-2.411
			c-0.042-0.748,0.097-1.498,0.316-2.211c0.357-1.165,0.964-2.329,1.463-3.439c0.223-0.506,0.444-1.031,0.563-1.573
			c0.096-0.436,0.111-0.89,0.051-1.331c-0.079-0.641-0.353-1.37-0.527-1.992"/>
	</g>
	<g id="POLYLINE_00000048463520818833665520000000403632325254519976_">
		<path fill="none" stroke="#FB8604" stroke-width="2" stroke-linecap="round" stroke-linejoin="round" stroke-miterlimit="10" d="
			M468.105,362.074c-0.034,1.09,0.131,2.279-0.025,3.363c-0.072,0.577-0.208,1.16-0.37,1.718c-0.404,1.372-1.185,3.481-1.601,4.845
			c-0.476,1.558-0.907,3.17-0.962,4.805c-0.025,0.896,0.075,1.818,0.451,2.64c0.379,0.846,1.082,1.508,1.874,1.97
			c1.271,0.737,2.746,1.065,4.203,1.147c1.271,0.062,2.564-0.068,3.776-0.467c0.838-0.281,1.653-0.702,2.271-1.345
			c1.267-1.336,1.444-3.289,1.527-5.044c0.047-1.08,0.035-2.718,0.197-3.767c0.078-0.538,0.213-1.073,0.451-1.564
			c0.259-0.543,0.628-1.031,1.024-1.481c0.483-0.551,1.133-1.181,1.513-1.807c0.441-0.697,0.593-1.536,0.598-2.351
			c0.002-1.26-0.292-2.51-0.706-3.694"/>
	</g>
	<g id="POLYLINE_00000031909778590784817590000001721863812487420042_">
		<path fill="none" stroke="#FB8604" stroke-width="2" stroke-linecap="round" stroke-linejoin="round" stroke-miterlimit="10" d="
			M488.689,360.7c0,0.172,0.009,0.371,0.02,0.543c0.04,0.535,0.103,1.172,0.071,1.704c-0.025,0.544-0.125,1.096-0.239,1.627
			c-0.438,2.004-1.041,4.286-1.046,6.335c-0.014,1.03,0.096,2.073,0.406,3.058c0.27,0.867,0.708,1.684,1.283,2.387
			c0.779,0.958,1.758,1.743,2.805,2.391c1.278,0.786,2.682,1.387,4.133,1.771c1.416,0.361,2.928,0.57,4.368,0.234
			c0.506-0.125,1.003-0.336,1.402-0.677c0.327-0.279,0.574-0.645,0.742-1.038c0.234-0.548,0.338-1.146,0.389-1.738
			c0.143-1.545-0.125-3.704-0.214-5.264c-0.067-1.328-0.134-2.714,0.284-3.995c0.232-0.69,0.631-1.317,1.114-1.859
			c0.679-0.784,1.618-1.441,2.341-2.181c0.209-0.22,0.404-0.462,0.535-0.737c0.285-0.59,0.251-1.271,0.152-1.903l-0.165-0.936"/>
	</g>
	<g id="POLYLINE_00000116940223427024871090000016229876317812497841_">
		<path fill="none" stroke="#FB8604" stroke-width="2" stroke-linecap="round" stroke-linejoin="round" stroke-miterlimit="10" d="
			M520.659,360.986c-0.198,0.597-0.34,1.26-0.613,1.828c-0.189,0.4-0.449,0.767-0.757,1.084c-1.067,1.058-2.553,1.963-3.699,2.93
			c-1.005,0.827-1.955,1.762-2.633,2.882c-0.587,0.97-0.963,2.064-1.132,3.183c-0.297,1.977,0.06,4.096,1.198,5.762
			c0.607,0.899,1.448,1.628,2.394,2.155c1.512,0.843,3.243,1.265,4.968,1.324c1.407,0.04,2.85-0.162,4.129-0.773
			c0.826-0.393,1.564-0.991,2.059-1.766c0.45-0.691,0.735-1.481,0.936-2.278c0.431-1.67,0.509-3.785,0.752-5.493
			c0.159-1.065,0.375-2.206,1.137-3.019c0.561-0.622,1.386-1.052,2.095-1.482c0.463-0.281,0.912-0.602,1.275-1.007
			c1.067-1.197,1.582-2.769,2.023-4.282"/>
	</g>
	<g id="POLYLINE_00000000904683248962245440000009679309319097554878_">
		<path fill="none" stroke="#FB8604" stroke-width="2" stroke-linecap="round" stroke-linejoin="round" stroke-miterlimit="10" d="
			M441.746,364.314c0.04,0.893,0.244,1.889,0.133,2.78c-0.055,0.502-0.194,0.996-0.389,1.461c-0.396,0.938-1.305,2.449-1.79,3.36
			c-0.491,0.935-0.957,1.913-1.15,2.958c-0.12,0.656-0.11,1.35,0.125,1.98c0.291,0.782,0.87,1.422,1.51,1.941
			c1.485,1.174,3.321,1.85,5.17,2.186c0.98,0.17,1.986,0.234,2.978,0.138c0.818-0.081,1.638-0.275,2.372-0.652
			c1.878-0.965,2.934-2.924,3.774-4.776c0.764-1.682,1.535-3.895,2.694-5.335c0.78-1.022,1.882-1.895,2.719-2.866
			c0.249-0.3,0.475-0.628,0.617-0.993c0.176-0.45,0.223-0.943,0.196-1.424c-0.046-0.8-0.275-1.584-0.529-2.34"/>
	</g>
	<g id="POLYLINE_00000135654004572040389840000007963746349702522785_">
		<path fill="none" stroke="#FB8604" stroke-width="2" stroke-linecap="round" stroke-linejoin="round" stroke-miterlimit="10" d="
			M408.22,366.584c0.34,0.949,0.852,1.872,0.99,2.883c0.086,0.544,0.092,1.105,0.069,1.655c-0.093,1.98-0.441,4.232-0.359,6.212
			c0.049,1.23,0.226,2.5,0.826,3.593c0.278,0.505,0.659,0.951,1.103,1.318c0.957,0.789,2.146,1.243,3.339,1.54
			c2.005,0.485,4.102,0.563,6.156,0.483c1.264-0.059,2.56-0.171,3.806-0.394c1.016-0.186,2.031-0.47,2.943-0.965
			c1.286-0.682,2.285-1.805,3.018-3.048c0.658-1.112,1.158-2.33,1.427-3.595c0.307-1.471,0.311-3.177-0.669-4.406
			c-0.356-0.444-0.827-0.786-1.323-1.059c-1.574-0.869-3.763-1.234-5.5-1.675c-0.578-0.15-1.173-0.306-1.711-0.569
			c-0.251-0.127-0.499-0.284-0.662-0.519c-0.274-0.391-0.228-0.898-0.15-1.345c0.045-0.254,0.117-0.593,0.141-0.848"/>
	</g>
</g>
<g id="_x32_D_x24_AG-ANIMALS">
	<g id="POLYLINE_00000034781601852336960330000006755766625010550679_">
		
			<path fill="none" stroke="#FB8604" stroke-width="2.75" stroke-linecap="round" stroke-linejoin="round" stroke-miterlimit="10" d="
			M111.064,360.007c7.875-2.912,16.018-5.426,24.342-6.646c5.674-0.838,11.494-0.98,17.219-0.736
			c6.848,0.324,13.789,1.327,20.181,3.896c2.942,1.173,5.735,2.757,8.311,4.597c4.46,3.145,8.949,7.542,13.446,10.637
			c3.836,2.659,8.185,4.558,12.647,5.889c10.995,3.194,22.634,3.741,34.024,3.633c10.238-0.111,22.38-0.95,32.635-1.699
			c9.438-0.778,21.142-1.806,30.491-3.114c21.422-3.364,45.767-6.885,67.299-8.226c9.391-0.644,42.293-1.805,51.61-2.493
			c10.486-0.738,43.959-3.525,54.906-4.428c10.162-0.701,20.814-1.14,30.977-0.848c14.139,0.294,37.48,2.686,51.818,3.92
			c7.906,0.868,38.197,3.476,45.542,4.78c1.765,0.305,3.579,0.68,5.293,1.207"/>
	</g>
	<g id="POLYLINE_00000181782167177279346770000012756666002109598344_">
		
			<path fill="none" stroke="#FB8604" stroke-width="2.75" stroke-linecap="round" stroke-linejoin="round" stroke-miterlimit="10" d="
			M695.456,386.513c-0.063,1.168-0.437,2.323-1.13,3.27c-0.333,0.471-0.746,0.91-1.154,1.317c-0.975,0.961-2.05,1.93-3.119,2.785
			c-2.359,1.896-4.994,3.463-7.742,4.726c-3.757,1.727-7.766,3.008-11.805,3.884c-5.249,1.059-11.219,2.333-16.332,3.831
			c-8.616,2.435-28.856,9.256-37.525,11.721c-3.886,1.102-8.06,2.07-12.04,2.767c-12.896,2.169-26.749,3.161-39.794,4.134
			c-11.636,0.785-24.706,1.421-36.369,1.546c-10.441,0.102-22.146-0.253-32.571-0.871c-21.673-1.412-71.589-5.633-92.436-5.711
			c-8.797-0.1-17.901,0.085-26.663,0.869c-3.931,0.354-8.283,0.904-12.171,1.56c-5.476,0.893-16.687,3.363-22.29,4.517
			c-5.915,1.184-12.235,2.157-18.23,2.842c-12.657,1.471-27.094,2.276-39.87,2.809c-7.993,0.294-16.918,0.52-24.898,0.29
			c-8.097-0.232-16.365-0.922-24.325-2.443c-8.953-1.694-17.773-4.392-26.066-8.18c-8.336-3.797-16.227-8.815-23.715-14.07
			c-4.787-3.375-11.479-8.511-16.427-11.413c-2.848-1.666-5.916-3.047-9.067-4.031c-3.513-1.099-7.2-1.806-10.84-2.33
			c-5.411-0.763-11.113-1.161-16.571-1.393c-14.703-0.507-29.859-0.442-44.512,0.913c-4.401,0.427-9.7,1.253-14.092,1.757
			c-1.373,0.141-2.856,0.255-4.238,0.251c-2.414-0.012-4.898-0.251-7.133-1.219c-0.775-0.343-1.515-0.788-2.141-1.363
			c-0.495-0.453-0.913-0.992-1.231-1.583c-0.737-1.369-0.961-2.963-0.893-4.502c0.139-2.775,1.146-5.475,2.684-7.775
			c1.282-1.917,2.946-3.567,4.782-4.955c3.112-2.361,6.738-3.988,10.447-5.16c4.176-1.325,8.622-2.181,12.947-2.873
			c9.444-1.455,19.499-2.341,29.042-2.853c7.419-0.358,15.141-0.485,22.54,0.154c6.937,0.581,13.898,1.838,20.446,4.242
			c3.853,1.38,7.67,3.157,11.308,5.03c6.934,3.614,16.614,9.122,23.738,12.279c5.551,2.496,11.415,4.439,17.372,5.694
			c11.912,2.5,24.439,2.893,36.581,3.169c19.164,0.248,39.007-0.449,58.028-2.844c7.561-0.989,38.048-5.242,44.542-5.899
			c11.017-1.315,30.761-2.955,42.087-3.863c58.21-4.697,140.522-5.609,199.641-6.374c6.329-0.135,13.565-0.444,19.853-0.976
			c3.544-0.296,8.316-0.805,11.833-1.244c4.496-0.588,19.303-2.745,23.521-3.04c3.557-0.304,7.234-0.384,10.799-0.187
			c4.074,0.254,8.234,0.689,12.126,1.972c0.898,0.3,1.829,0.678,2.694,1.066c1.5,0.685,3.264,1.587,4.868,1.958
			c2.313,0.574,5.164,0.865,7.483,1.405c2.419,0.556,4.934,1.223,7.086,2.49c0.899,0.543,1.718,1.228,2.391,2.035
			c0.747,0.902,1.376,1.984,1.79,3.079c0.209,0.58,0.308,1.203,0.26,1.819c-0.056,0.771-0.314,1.516-0.645,2.21
			c-0.166,0.346-0.359,0.697-0.558,1.025c-0.131,0.215-0.27,0.431-0.438,0.619c-0.245,0.282-0.548,0.512-0.874,0.692
			c-0.345,0.193-0.725,0.335-1.099,0.459c-1.688,0.555-4.22,0.968-5.925,1.479c-1.984,0.578-3.994,1.586-5.996,2.104
			c-2.199,0.594-4.53,0.913-6.793,1.157c-2.545,0.25-5.174,0.401-7.728,0.254"/>
	</g>
</g>
<g id="_x32_D_x24_AG-OUTLINE">
	<g id="POLYLINE_00000080924103604775293470000008494917522120358072_">
		
			<path fill="none" stroke="#FB8604" stroke-width="3.5" stroke-linecap="round" stroke-linejoin="round" stroke-miterlimit="10" d="
			M695.456,386.513c0.617-0.209,1.233-0.485,1.703-0.947c0.21-0.204,0.385-0.443,0.538-0.692c0.172-0.279,0.345-0.582,0.494-0.874
			c0.522-1.018,0.902-2.171,0.741-3.326c-0.103-0.786-0.444-1.518-0.813-2.211c-0.776-1.481-1.904-2.77-3.317-3.672
			c-1.572-1.01-3.378-1.613-5.164-2.123c-1.439-0.399-2.965-0.728-4.435-0.987c-1.391-0.227-3.896-0.616-5.24-0.961
			c-2.267-0.538-4.516-1.926-6.695-2.713c-1.978-0.752-4.069-1.231-6.155-1.569c-2.933-0.473-6.006-0.721-8.975-0.802
			c-5.822-0.19-11.918,0.535-17.689,1.314c-9.066,1.308-19.544,2.777-28.647,3.424c-3.63-1.103-7.588-1.585-11.35-2.059
			c-18.45-1.886-61.725-6.165-79.793-7.33c-5.743-0.361-12.198-0.594-17.958-0.609c-6.356-0.019-14.017,0.282-20.375,0.667
			c-19.178,1.296-48.461,4.169-67.536,5.212c-11.437,0.54-40.904,1.572-52.043,2.656c-18.555,1.509-39.483,4.586-57.929,7.488
			c-8.732,1.218-18.806,2.167-27.616,2.91c-10.442,0.788-22.976,1.718-33.361,1.922c-12.222,0.23-24.751-0.155-36.563-3.567
			c-4.576-1.357-9.02-3.31-12.934-6.061c-4.249-2.964-8.378-6.955-12.564-10.007c-2.538-1.866-5.278-3.516-8.181-4.745
			c-6.782-2.893-14.22-3.944-21.543-4.25c-5.727-0.212-11.574-0.039-17.242,0.849c-8.095,1.24-16.079,3.728-23.75,6.558
			c-8.459,0.645-17.364,1.526-25.709,3.034c-6.659,1.266-13.506,2.955-19.124,6.914c-1.809,1.28-3.482,2.792-4.829,4.556
			c-1.212,1.581-2.158,3.376-2.734,5.284c-0.632,2.116-0.876,4.43-0.252,6.576c0.276,0.933,0.74,1.819,1.402,2.537
			c0.932,1.016,2.189,1.676,3.485,2.109c1.978,0.652,4.089,0.839,6.162,0.845c4.457,0.001,11.781-1.334,16.252-1.787
			c11.722-1.28,23.888-1.47,35.676-1.406c9.495,0.143,19.549,0.426,28.933,1.881c3.892,0.617,7.81,1.465,11.511,2.838
			c3.048,1.124,5.988,2.651,8.731,4.387c4.148,2.626,10.623,7.491,14.644,10.332c7.494,5.256,15.377,10.272,23.715,14.07
			c9.371,4.281,19.394,7.161,29.559,8.791c8.343,1.352,16.996,1.829,25.446,1.918c9.98,0.09,21.548-0.393,31.542-0.89
			c12.072-0.684,24.988-1.609,36.931-3.394c13.574-1.997,28.401-6.318,42.075-7.598c8.943-0.921,18.288-1.166,27.277-1.108
			c21.962-0.016,71.713,4.286,94.119,5.727c8.144,0.473,17.797,0.838,25.948,0.884c12.623,0.072,26.873-0.533,39.479-1.327
			c14.336-1.033,29.882-2.052,44.018-4.494c3.428-0.622,6.972-1.436,10.329-2.362c7.547-2.041,30.904-9.85,38.523-11.999
			c5.104-1.497,11.092-2.772,16.332-3.831c3.921-0.851,7.805-2.079,11.464-3.728c2.773-1.249,5.437-2.796,7.828-4.68
			c1.081-0.846,2.164-1.81,3.149-2.766c0.425-0.417,0.874-0.866,1.235-1.343C694.963,388.982,695.388,387.777,695.456,386.513z"/>
	</g>
</g>
</svg>
