<?xml version="1.0" encoding="utf-8"?>
<!-- Generator: Adobe Illustrator 26.3.1, SVG Export Plug-In . SVG Version: 6.00 Build 0)  -->
<!DOCTYPE svg PUBLIC "-//W3C//DTD SVG 1.1//EN" "http://www.w3.org/Graphics/SVG/1.1/DTD/svg11.dtd" [
	<!ENTITY ns_flows "http://ns.adobe.com/Flows/1.0/">
	<!ENTITY ns_extend "http://ns.adobe.com/Extensibility/1.0/">
	<!ENTITY ns_ai "http://ns.adobe.com/AdobeIllustrator/10.0/">
	<!ENTITY ns_graphs "http://ns.adobe.com/Graphs/1.0/">
	<!ENTITY ns_vars "http://ns.adobe.com/Variables/1.0/">
	<!ENTITY ns_imrep "http://ns.adobe.com/ImageReplacement/1.0/">
	<!ENTITY ns_sfw "http://ns.adobe.com/SaveForWeb/1.0/">
	<!ENTITY ns_custom "http://ns.adobe.com/GenericCustomNamespace/1.0/">
	<!ENTITY ns_adobe_xpath "http://ns.adobe.com/XPath/1.0/">
]>
<svg version="1.1" xmlns:x="&ns_extend;" xmlns:i="&ns_ai;" xmlns:graph="&ns_graphs;"
	 xmlns="http://www.w3.org/2000/svg" xmlns:xlink="http://www.w3.org/1999/xlink" xmlns:a="http://ns.adobe.com/AdobeSVGViewerExtensions/3.0/"
	 x="0px" y="0px" width="750px" height="750px" viewBox="0 0 750 750" enable-background="new 0 0 750 750" xml:space="preserve">
<metadata>
	<sfw  xmlns="&ns_sfw;">
		<slices></slices>
		<sliceSourceBounds  bottomLeftOrigin="true" height="12223.324" width="4192" x="-2000" y="-3314"></sliceSourceBounds>
	</sfw>
</metadata>
<g id="FILL-BACKGROUND">
	<rect x="0" y="0" fill="#FFFFFF" width="750" height="750"/>
</g>
<g id="N-DIMENSIONS">
</g>
<g id="N-TEXT">
</g>
<g id="_x32_D_x24_AG-DETAILS-DIAGRAM">
</g>
<g id="_x32_D_x24_AG-DETAILS">
	<g id="POLYLINE_00000041276456968629532850000002985250223035875494_">
		<path fill="none" stroke="#FB8604" stroke-width="2" stroke-linecap="round" stroke-linejoin="round" stroke-miterlimit="10" d="
			M624.139,373.461c8.103,0.811,17.058,1.764,25.037,3.24c4.055,0.778,8.183,1.673,12.045,3.156
			c1.491,0.584,2.948,1.304,4.286,2.185c1.576,1.028,3.369,2.554,4.963,3.551c1.875,1.214,4.02,1.952,6.188,2.444"/>
	</g>
	<g id="POLYLINE_00000165929945220463940830000015330102463722245037_">
		<path fill="none" stroke="#FB8604" stroke-width="2" stroke-linecap="round" stroke-linejoin="round" stroke-miterlimit="10" d="
			M119.468,399.076c9.527-5.706,20.355-8.991,31.105-11.526c11.223-2.585,23.088-4.269,34.541-5.481
			c9.874-1.045,21.496-1.813,31.445-2.325c19.352-0.955,325.661-8.701,344.445-8.836c14.943-0.097,31.271,0.246,46.188,1.213"/>
	</g>
</g>
<g id="_x32_D_x24_AG-ANIMALS">
	<g id="POLYLINE_00000040574990361976792720000013845729348641058745_">
		
			<path fill="none" stroke="#FB8604" stroke-width="2.75" stroke-linecap="round" stroke-linejoin="round" stroke-miterlimit="10" d="
			M686.37,389.595c0.481,0.037,1.052,0.094,1.517-0.045c0.106-0.035,0.211-0.088,0.285-0.174c0.057-0.066,0.092-0.149,0.104-0.235
			c0.131-1.312-0.306-2.633-1.042-3.71c-0.559-0.826-1.297-1.52-2.1-2.106c-0.837-0.613-1.766-1.149-2.679-1.64
			c-3.68-1.901-7.922-3.799-11.54-5.819c-3.891-2.105-12.269-7.012-16.204-9.138c-1.589-0.837-3.336-1.693-4.986-2.395
			c-5.451-2.343-11.312-3.854-17.115-5.047c-12.596-2.54-26.099-3.879-38.912-4.946c-14.968-1.186-31.811-1.904-46.835-2.237
			c-84.513-1.167-205.088,5.288-290.204,8.049c-14.621,0.782-31.709,1.918-46.14,3.697c-28.66,3.471-65.735,10.42-94.363,15.446
			c-11.536,2.261-24.186,4.532-35.405,7.958c-1.455,0.469-2.977,0.988-4.372,1.616c-0.761,0.347-1.528,0.733-2.21,1.221
			c-0.373,0.271-0.733,0.577-1.001,0.955c-0.161,0.228-0.284,0.488-0.321,0.767c-0.089,0.644,0.318,1.217,0.766,1.637
			c0.699,0.647,1.55,1.115,2.402,1.527c1.71,0.806,3.554,1.376,5.382,1.85c2.96,0.759,6.101,1.265,9.137,1.621
			c5.321,0.616,11.004,0.774,16.369,0.81c13.407,0.194,68.677-2.711,83.02-3.246c41.413-1.55,114.246-1.158,156.344-1.293
			c51.341-0.623,162.259-7.961,214.302-9.519c15.726-0.297,33.111-0.002,48.824,0.765c0,0,2.574,0.153,2.574,0.153
			s2.334,0.17,2.334,0.17s1.097,0.094,1.097,0.094s1.061,0.1,1.061,0.1s1.032,0.108,1.032,0.108s1.012,0.116,1.012,0.116
			s0.999,0.125,0.999,0.125s0.994,0.135,0.994,0.135s0.997,0.145,0.997,0.145s1.008,0.156,1.008,0.156s2.066,0.346,2.066,0.346
			s10.636,1.934,10.636,1.934c2.707,0.459,5.597,0.845,8.334,0.995c3.403,0.2,7.641,0.157,11.034,0.428l14.254,1.228
			c3.278,0.223,7.427,0.508,10.682,0.525c1.557,0.005,3.182-0.014,4.724-0.227c0.732-0.106,1.473-0.252,2.156-0.545
			c0.437-0.189,0.857-0.453,1.147-0.837c0.139-0.187,0.259-0.405,0.32-0.63c0.013-0.056,0.016-0.117,0-0.173
			c-0.014-0.051-0.045-0.095-0.081-0.132c-0.155-0.148-0.363-0.226-0.556-0.312c-0.139-0.058-0.298-0.122-0.442-0.164
			c-0.529-0.158-1.096-0.248-1.642-0.332c-2.644-0.353-5.893-0.724-8.474-1.334"/>
	</g>
	<g id="POLYLINE_00000052087579604881832610000005814126585176075184_">
		
			<path fill="none" stroke="#FB8604" stroke-width="2.75" stroke-linecap="round" stroke-linejoin="round" stroke-miterlimit="10" d="
			M491.112,352.116c-1.141-1.874-1.74-4.151-2.96-5.982c-0.507-0.778-1.157-1.478-1.965-1.948c-0.643-0.382-1.365-0.625-2.09-0.797
			c-1.107-0.261-2.292-0.381-3.426-0.475c-1.607-0.126-3.479-0.183-5.095-0.215c-34.102-0.063-88.644,0.89-122.855,1.761
			c-46.827,1.512-104.874,3.276-151.166,8.148c-8.414,0.924-18.091,2.161-26.412,3.766c-16.669,3.307-36.012,8.162-52.804,10.703
			c-5.088,0.768-10.442,1.36-15.585,1.62c-6.233,0.33-11.806,0.081-17.783-0.016c-2.808-0.006-5.748,0.078-8.317,1.337
			c-1.746,0.837-3.274,2.077-4.713,3.358c-2.775,2.511-5.353,5.315-7.713,8.218c-2.133,2.666-4.135,5.506-5.667,8.565
			c-0.305,0.633-0.57,1.311-0.586,2.022c-0.02,0.652,0.179,1.292,0.471,1.87c0.407,0.804,0.973,1.527,1.554,2.212
			c1.52,1.757,3.293,3.383,5.054,4.896c1.907,1.604,3.928,3.195,6.065,4.48c1.252,0.745,2.609,1.364,4.054,1.607
			c1.642,0.285,3.329,0.091,4.95-0.24c0,0,1.306-0.285,1.306-0.285l0.263-0.054c0.721-0.141,1.493-0.257,2.221-0.345
			c3.512-0.426,8.41-0.6,12.009-0.749c50.722-1.43,170.089,1.524,220.941,1.395c19.52-0.219,56.42-2.451,76.255-3.467
			c3.343-0.232,6.685-0.882,9.841-2.021c3.142-1.112,6.209-2.553,9.112-4.188c2.813-1.595,5.556-3.424,8.031-5.509"/>
	</g>
	<g id="POLYLINE_00000088110533616807033830000010497815772892893831_">
		
			<path fill="none" stroke="#FB8604" stroke-width="2.75" stroke-linecap="round" stroke-linejoin="round" stroke-miterlimit="10" d="
			M623.406,382.166c-1.09,0.176-2.212,0.253-3.311,0.127c-0.758-0.089-1.518-0.281-2.19-0.653c-0.838-0.462-1.472-1.209-2.044-1.961
			c-0.828-1.116-1.756-2.465-2.782-3.397c-1.685-1.565-4.272-3.076-6.192-4.364c-2.935-1.945-5.728-4.268-7.401-7.43
			c-0.36-0.71-0.67-1.474-0.72-2.276c-0.023-0.416,0.042-0.85,0.265-1.207c0.214-0.346,0.56-0.588,0.927-0.75
			c0.625-0.272,1.314-0.361,1.99-0.387c1.325-0.039,2.656,0.178,3.932,0.527c1.366,0.379,2.698,0.932,3.887,1.708
			c1.708,1.088,3.193,2.713,4.608,4.153c0.762,0.761,1.57,1.514,2.515,2.043c1.581,0.911,3.521,1.217,5.036,2.252
			c0.819,0.563,1.433,1.379,1.894,2.25c0.681,1.299,1.074,2.742,1.284,4.189"/>
	</g>
</g>
<g id="_x32_D_x24_AG-OUTLINE">
	<g id="POLYLINE_00000056396692206185380220000012501024005870788491_">
		
			<path fill="none" stroke="#FB8604" stroke-width="3.5" stroke-linecap="round" stroke-linejoin="round" stroke-miterlimit="10" d="
			M424.102,391.779c-2.476,2.085-5.216,3.915-8.031,5.509c-2.904,1.636-5.968,3.077-9.112,4.188
			c-3.157,1.139-6.496,1.79-9.841,2.021c-20,1.021-56.611,3.24-76.255,3.468c-63.702-0.045-157.544-3.006-220.941-1.395
			c-4.777,0.239-11.059,0.28-15.798,1.432c-1.621,0.331-3.308,0.525-4.95,0.24c-1.445-0.243-2.802-0.861-4.054-1.607
			c-2.137-1.285-4.159-2.875-6.065-4.48c-1.761-1.515-3.533-3.139-5.054-4.896c-0.581-0.685-1.147-1.408-1.554-2.212
			c-0.285-0.565-0.482-1.189-0.472-1.826c0.007-0.726,0.276-1.42,0.587-2.065c1.531-3.058,3.533-5.899,5.667-8.565
			c2.36-2.902,4.938-5.707,7.713-8.218c1.439-1.28,2.968-2.52,4.713-3.358c2.569-1.258,5.51-1.343,8.317-1.337
			c5.581,0.103,12.396,0.333,17.783,0.016c5.151-0.26,10.483-0.851,15.585-1.619c16.782-2.536,36.089-7.39,52.804-10.703
			c8.355-1.603,17.913-2.836,26.411-3.766c46.173-4.856,104.397-6.65,151.166-8.148c34.277-0.869,88.689-1.824,122.855-1.761
			c1.604,0.033,3.493,0.088,5.095,0.215c1.13,0.095,2.319,0.214,3.426,0.475c0.724,0.172,1.448,0.416,2.09,0.797
			c0.852,0.496,1.528,1.25,2.05,2.079c1.165,1.803,1.76,4.023,2.875,5.851c33.768-0.557,68.94-0.415,102.585,2.224
			c14.252,1.208,29.08,2.638,43.02,5.847c5.038,1.19,10.065,2.73,14.759,4.929c1.733,0.805,3.598,1.788,5.268,2.72
			c6.95,3.968,15.935,9.253,23.146,12.554c2.069,1.035,4.314,2.067,6.068,3.599c1.451,1.278,2.513,3.174,2.318,5.152
			c-0.012,0.086-0.047,0.17-0.104,0.235c-0.074,0.086-0.179,0.139-0.285,0.174c-0.465,0.139-1.036,0.082-1.517,0.045
			c0.418,0.094,0.947,0.273,1.309,0.505c0.063,0.045,0.125,0.098,0.159,0.17c0.031,0.063,0.032,0.137,0.017,0.204
			c-0.119,0.438-0.415,0.816-0.776,1.084c-0.366,0.272-0.793,0.451-1.225,0.589c-0.708,0.222-1.458,0.337-2.194,0.418
			c-1.349,0.145-2.795,0.162-4.154,0.156c-3.246-0.017-7.421-0.301-10.682-0.525l-14.254-1.228
			c-3.39-0.271-7.633-0.229-11.034-0.428c-2.734-0.15-5.63-0.537-8.334-0.995c-6.127-1.093-14.783-2.867-20.902-3.258
			c-15.562-1.048-32.686-1.262-48.308-1.177C551.041,384.951,441.401,391.039,424.102,391.779z"/>
	</g>
</g>
</svg>
