<?xml version="1.0" encoding="utf-8"?>
<!-- Generator: Adobe Illustrator 26.3.1, SVG Export Plug-In . SVG Version: 6.00 Build 0)  -->
<!DOCTYPE svg PUBLIC "-//W3C//DTD SVG 1.1//EN" "http://www.w3.org/Graphics/SVG/1.1/DTD/svg11.dtd" [
	<!ENTITY ns_flows "http://ns.adobe.com/Flows/1.0/">
	<!ENTITY ns_extend "http://ns.adobe.com/Extensibility/1.0/">
	<!ENTITY ns_ai "http://ns.adobe.com/AdobeIllustrator/10.0/">
	<!ENTITY ns_graphs "http://ns.adobe.com/Graphs/1.0/">
	<!ENTITY ns_vars "http://ns.adobe.com/Variables/1.0/">
	<!ENTITY ns_imrep "http://ns.adobe.com/ImageReplacement/1.0/">
	<!ENTITY ns_sfw "http://ns.adobe.com/SaveForWeb/1.0/">
	<!ENTITY ns_custom "http://ns.adobe.com/GenericCustomNamespace/1.0/">
	<!ENTITY ns_adobe_xpath "http://ns.adobe.com/XPath/1.0/">
]>
<svg version="1.1" xmlns:x="&ns_extend;" xmlns:i="&ns_ai;" xmlns:graph="&ns_graphs;"
	 xmlns="http://www.w3.org/2000/svg" xmlns:xlink="http://www.w3.org/1999/xlink" xmlns:a="http://ns.adobe.com/AdobeSVGViewerExtensions/3.0/"
	 x="0px" y="0px" width="750px" height="750px" viewBox="0 0 750 750" enable-background="new 0 0 750 750" xml:space="preserve">
<metadata>
	<sfw  xmlns="&ns_sfw;">
		<slices></slices>
		<sliceSourceBounds  bottomLeftOrigin="true" height="12378.752" width="4389" x="-2000" y="-3314"></sliceSourceBounds>
	</sfw>
</metadata>
<g id="FILL-BACKGROUND">
	<rect fill="#FFFFFF" width="750" height="750"/>
</g>
<g id="N-DIMENSIONS">
</g>
<g id="N-TEXT">
</g>
<g id="_x32_D_x24_AG-DETAILS-DIAGRAM">
</g>
<g id="_x32_D_x24_AG-DETAILS">
	<g id="POLYLINE_00000178890143607224969530000017328344780011114428_">
		<path fill="none" stroke="#FB8604" stroke-width="2" stroke-linecap="round" stroke-linejoin="round" stroke-miterlimit="10" d="
			M513.049,361.309c-1.77,1.873-3.975,4.125-5.6,6.095c-0.31,0.385-0.632,0.793-0.892,1.212c-0.213,0.349-0.416,0.755-0.338,1.176
			c0.06,0.328,0.258,0.611,0.46,0.869c0.31,0.389,0.666,0.757,1.021,1.104c1.969,1.894,4.957,4.232,7.091,5.982"/>
	</g>
	<g id="POLYLINE_00000143606451683789111130000001163051112383205034_">
		<path fill="none" stroke="#FB8604" stroke-width="2" stroke-linecap="round" stroke-linejoin="round" stroke-miterlimit="10" d="
			M155.271,392.657c-0.733-0.589-1.513-1.223-2.177-1.886c-0.252-0.255-0.501-0.523-0.699-0.822
			c-0.209-0.314-0.317-0.638-0.226-1.015c0.063-0.272,0.293-0.459,0.52-0.6c0.265-0.163,0.557-0.288,0.845-0.403
			c1.102-0.424,2.337-0.745,3.48-1.046"/>
	</g>
	<g id="POLYLINE_00000082341595260985548820000000991385602839971714_">
		<path fill="none" stroke="#FB8604" stroke-width="2" stroke-linecap="round" stroke-linejoin="round" stroke-miterlimit="10" d="
			M162.967,395.784c-0.828-0.861-1.708-1.795-2.444-2.733c-0.34-0.438-0.674-0.895-0.923-1.393c-0.137-0.283-0.258-0.593-0.24-0.913
			c0.034-0.556,0.598-0.943,1.071-1.133c0.343-0.142,0.715-0.244,1.075-0.334c1.49-0.355,3.247-0.596,4.768-0.83"/>
	</g>
	<g id="POLYLINE_00000090287141910048819040000007918782008943367812_">
		<path fill="none" stroke="#FB8604" stroke-width="2" stroke-linecap="round" stroke-linejoin="round" stroke-miterlimit="10" d="
			M171.385,397.106c-0.957-0.783-2.062-1.656-2.931-2.527c-0.216-0.22-0.431-0.454-0.607-0.707c-0.22-0.316-0.392-0.709-0.319-1.1
			c0.069-0.319,0.325-0.554,0.575-0.743c0.394-0.289,0.84-0.509,1.282-0.714c1.2-0.545,2.552-1.004,3.804-1.423"/>
	</g>
	<g id="POLYLINE_00000071536553683853550560000012511997458788177024_">
		<path fill="none" stroke="#FB8604" stroke-width="2" stroke-linecap="round" stroke-linejoin="round" stroke-miterlimit="10" d="
			M180.585,399.03c-1.645-1.068-3.385-2.135-4.846-3.449c-0.345-0.32-0.655-0.682-0.904-1.083c-0.222-0.354-0.439-0.817-0.216-1.221
			c0.14-0.26,0.389-0.44,0.648-0.572c0.284-0.146,0.597-0.258,0.899-0.361c1.732-0.561,3.842-1.015,5.622-1.432"/>
	</g>
	<g id="POLYLINE_00000080172370450282469500000015309507097435478917_">
		<path fill="none" stroke="#FB8604" stroke-width="2" stroke-linecap="round" stroke-linejoin="round" stroke-miterlimit="10" d="
			M193.993,400.473c-1.493-0.851-3.11-1.781-4.524-2.751c-0.589-0.412-1.187-0.844-1.689-1.36c-0.366-0.373-0.619-0.78-0.749-1.289
			c-0.061-0.214-0.076-0.446-0.004-0.659c0.128-0.38,0.422-0.676,0.713-0.941c0.583-0.513,1.261-0.937,1.924-1.338
			c1.513-0.9,3.282-1.772,4.87-2.544"/>
	</g>
	<g id="POLYLINE_00000147201113531615000660000016155322358913769602_">
		<path fill="none" stroke="#FB8604" stroke-width="2" stroke-linecap="round" stroke-linejoin="round" stroke-miterlimit="10" d="
			M206.619,400.834c-2.121-1.528-4.349-3.108-6.263-4.891c-0.442-0.425-0.879-0.877-1.221-1.387
			c-0.166-0.254-0.329-0.519-0.429-0.806c-0.066-0.19-0.087-0.402-0.017-0.594c0.118-0.319,0.392-0.547,0.648-0.755
			c0.399-0.312,0.84-0.589,1.274-0.849c2.455-1.439,6.023-3.137,8.593-4.426"/>
	</g>
	<g id="POLYLINE_00000084520803791492692360000004895451891434983837_">
		<path fill="none" stroke="#FB8604" stroke-width="2" stroke-linecap="round" stroke-linejoin="round" stroke-miterlimit="10" d="
			M221.865,388.171c-1.962,0.874-3.978,1.809-5.792,2.962c-0.762,0.498-1.525,1.041-2.112,1.744
			c-0.265,0.324-0.489,0.725-0.449,1.157c0.022,0.271,0.133,0.528,0.27,0.76c0.204,0.342,0.461,0.653,0.728,0.948
			c0.596,0.647,1.304,1.234,1.989,1.786c1.941,1.542,4.362,3.208,6.408,4.627"/>
	</g>
	<g id="POLYLINE_00000083072304259294478850000007379714077957747880_">
		<path fill="none" stroke="#FB8604" stroke-width="2" stroke-linecap="round" stroke-linejoin="round" stroke-miterlimit="10" d="
			M269.884,380.477c-2.704,2.033-5.502,4.34-8.016,6.606c-1.055,0.977-2.231,2.021-3.162,3.111c-0.29,0.361-0.601,0.75-0.675,1.219
			c-0.07,0.527,0.288,1.02,0.649,1.368c0.415,0.399,0.903,0.754,1.37,1.092c2.922,2.04,6.664,4.271,9.713,6.146"/>
	</g>
	<g id="POLYLINE_00000183248086897905855360000001455632673547341456_">
		<path fill="none" stroke="#FB8604" stroke-width="2" stroke-linecap="round" stroke-linejoin="round" stroke-miterlimit="10" d="
			M252.628,383.663c-2.847,1.888-5.838,3.798-8.269,6.215c-0.636,0.664-1.245,1.4-1.557,2.277c-0.179,0.492-0.223,1.047-0.028,1.541
			c0.187,0.492,0.54,0.901,0.907,1.27c0.641,0.63,1.382,1.216,2.095,1.762c2.456,1.861,5.92,4.014,8.536,5.695"/>
	</g>
	<g id="POLYLINE_00000087378433765584939770000007856710152357682822_">
		<path fill="none" stroke="#FB8604" stroke-width="2" stroke-linecap="round" stroke-linejoin="round" stroke-miterlimit="10" d="
			M238.799,384.686c-2.218,1.811-5.19,4.132-7.253,6.071c-0.455,0.433-0.913,0.894-1.313,1.379
			c-0.422,0.523-0.845,1.112-0.906,1.801c-0.063,0.805,0.448,1.508,0.945,2.091c0.396,0.453,0.855,0.879,1.303,1.282
			c1.935,1.726,5.291,4.312,7.344,5.956"/>
	</g>
	<g id="POLYLINE_00000005236565189047886570000001530581239032909230_">
		<path fill="none" stroke="#FB8604" stroke-width="2" stroke-linecap="round" stroke-linejoin="round" stroke-miterlimit="10" d="
			M286.068,376.054c-2.561,2.28-5.36,4.78-7.703,7.268c-0.814,0.877-1.633,1.796-2.296,2.792c-0.337,0.526-0.689,1.123-0.618,1.77
			c0.037,0.33,0.19,0.636,0.374,0.909c0.285,0.418,0.635,0.804,0.989,1.164c0.565,0.567,1.201,1.104,1.822,1.609
			c2.89,2.316,6.481,4.798,9.523,6.933"/>
	</g>
	<g id="POLYLINE_00000102543600647937852460000013007503845548076974_">
		<path fill="none" stroke="#FB8604" stroke-width="2" stroke-linecap="round" stroke-linejoin="round" stroke-miterlimit="10" d="
			M302.239,373.531c-2.411,2.676-5.989,6.448-8.194,9.228c-0.411,0.528-0.825,1.085-1.161,1.664
			c-0.416,0.722-0.782,1.567-0.443,2.392c0.229,0.573,0.654,1.043,1.076,1.482c1.1,1.105,2.522,2.254,3.721,3.26
			c2.528,2.064,5.293,4.234,7.97,6.099"/>
	</g>
	<g id="POLYLINE_00000154425227943937562560000014261006781105228714_">
		<path fill="none" stroke="#FB8604" stroke-width="2" stroke-linecap="round" stroke-linejoin="round" stroke-miterlimit="10" d="
			M321.613,370.339c-2.76,2.494-5.767,5.271-8.316,7.967c-1.051,1.125-2.134,2.316-3.028,3.569c-0.446,0.648-0.909,1.359-0.94,2.169
			c-0.024,0.782,0.435,1.47,0.901,2.059c0.535,0.664,1.173,1.308,1.78,1.908c3.009,2.914,6.963,6.125,10.196,8.829"/>
	</g>
	<g id="POLYLINE_00000165916630088619915050000014674421131000205502_">
		<path fill="none" stroke="#FB8604" stroke-width="2" stroke-linecap="round" stroke-linejoin="round" stroke-miterlimit="10" d="
			M388.823,363.613c-2.186,3.179-4.604,6.559-6.31,10.013c-0.47,0.988-0.896,2.021-1.072,3.106c-0.09,0.572-0.109,1.165,0.029,1.73
			c0.142,0.596,0.437,1.145,0.768,1.656c0.68,1.04,1.564,2.048,2.375,2.992l5.112,5.696"/>
	</g>
	<g id="POLYLINE_00000035496673825672201220000016055825778182309260_">
		<path fill="none" stroke="#FB8604" stroke-width="2" stroke-linecap="round" stroke-linejoin="round" stroke-miterlimit="10" d="
			M375.535,364.154c-2.36,2.572-5.354,5.775-7.525,8.477c-0.523,0.661-1.064,1.363-1.505,2.08c-0.42,0.677-0.716,1.357-0.753,2.163
			c-0.085,1.138,0.393,2.222,0.968,3.177c0.532,0.887,1.182,1.76,1.814,2.58c2.447,3.131,5.787,6.788,8.444,9.782"/>
	</g>
	<g id="POLYLINE_00000048501193460488354910000001473597741926236303_">
		<path fill="none" stroke="#FB8604" stroke-width="2" stroke-linecap="round" stroke-linejoin="round" stroke-miterlimit="10" d="
			M360.083,365.657c-2.173,2.247-7.747,7.823-9.723,10.083c-0.462,0.528-0.931,1.085-1.327,1.664
			c-0.433,0.64-0.865,1.384-0.746,2.185c0.087,0.603,0.416,1.138,0.759,1.629c0.465,0.65,1.007,1.27,1.545,1.86
			c3.032,3.259,7.29,7.06,10.575,10.116"/>
	</g>
	<g id="POLYLINE_00000164485660124659386670000000515125702432434849_">
		<path fill="none" stroke="#FB8604" stroke-width="2" stroke-linecap="round" stroke-linejoin="round" stroke-miterlimit="10" d="
			M339.88,368.062c-2.81,3.232-7.471,8.167-9.946,11.574c-0.228,0.351-0.442,0.727-0.527,1.141
			c-0.093,0.428,0.009,0.872,0.196,1.261c0.219,0.46,0.511,0.887,0.818,1.292c0.722,0.934,1.602,1.768,2.478,2.555
			c3.142,2.775,6.981,5.473,10.408,7.911"/>
	</g>
	<g id="POLYLINE_00000011742914516019714600000010474849350086107551_">
		<path fill="none" stroke="#FB8604" stroke-width="2" stroke-linecap="round" stroke-linejoin="round" stroke-miterlimit="10" d="
			M455.202,359.749c-2.458,2.301-5.014,4.748-7.212,7.295c-1.031,1.213-2.04,2.491-2.767,3.913c-0.459,0.918-0.92,1.969-0.615,3.007
			c0.158,0.561,0.471,1.066,0.801,1.542c0.755,1.064,1.662,2.082,2.542,3.044c1.903,2.057,4.161,4.225,6.212,6.141"/>
	</g>
	<g id="POLYLINE_00000054247215324078871330000010931680744817639818_">
		<path fill="none" stroke="#FB8604" stroke-width="2" stroke-linecap="round" stroke-linejoin="round" stroke-miterlimit="10" d="
			M440.356,359.377c-3.055,2.5-6.052,5.18-8.432,8.346c-0.683,0.919-1.313,1.907-1.835,2.926c-0.259,0.51-0.511,1.042-0.656,1.597
			c-0.111,0.423-0.141,0.879-0.005,1.301c0.098,0.313,0.272,0.598,0.469,0.858c0.703,0.925,4.917,4.898,5.793,5.806l4.517,4.627"/>
	</g>
	<g id="POLYLINE_00000080909585788211728370000008337911840850177948_">
		<path fill="none" stroke="#FB8604" stroke-width="2" stroke-linecap="round" stroke-linejoin="round" stroke-miterlimit="10" d="
			M425.51,359.229c-3.308,2.946-6.282,6.316-8.655,10.063c-0.536,0.868-1.082,1.759-1.457,2.71
			c-0.224,0.576-0.366,1.199-0.302,1.818c0.086,0.861,0.523,1.639,0.982,2.355c0.43,0.661,0.933,1.31,1.434,1.919
			c2.287,2.77,5.771,6.217,8.295,8.821"/>
	</g>
	<g id="POLYLINE_00000113343559829479951520000017489561887956234412_">
		<path fill="none" stroke="#FB8604" stroke-width="2" stroke-linecap="round" stroke-linejoin="round" stroke-miterlimit="10" d="
			M406.562,360.631c-2.271,3.11-5.922,7.99-8.049,11.141c-0.332,0.504-0.691,1.06-0.98,1.588c-0.288,0.533-0.57,1.089-0.69,1.687
			c-0.059,0.304-0.06,0.622,0.026,0.921c0.082,0.294,0.239,0.563,0.415,0.81c0.164,0.298,4.311,4.908,4.646,5.308l4.113,4.823"/>
	</g>
	<g id="POLYLINE_00000057840063095352078370000000528832102386756787_">
		<path fill="none" stroke="#FB8604" stroke-width="2" stroke-linecap="round" stroke-linejoin="round" stroke-miterlimit="10" d="
			M469.637,361.022c-2.371,2.583-6.314,6.689-8.505,9.341c-0.381,0.471-0.77,0.963-1.08,1.484c-0.312,0.535-0.587,1.118-0.635,1.743
			c-0.075,0.96,0.424,1.843,0.946,2.611c0.716,1.032,1.617,1.94,2.536,2.79c1.681,1.539,3.586,2.987,5.424,4.335"/>
	</g>
	<g id="POLYLINE_00000109747130009400953170000004837008375344570546_">
		<path fill="none" stroke="#FB8604" stroke-width="2" stroke-linecap="round" stroke-linejoin="round" stroke-miterlimit="10" d="
			M483.176,361.168c-1.821,1.665-3.744,3.486-5.399,5.311c-0.977,1.086-1.937,2.232-2.702,3.48
			c-0.329,0.541-0.623,1.118-0.857,1.707c-0.143,0.368-0.265,0.754-0.286,1.152c-0.03,0.451,0.122,0.892,0.351,1.275
			c0.361,0.621,0.839,1.17,1.368,1.652c2.781,2.437,6.267,4.502,9.375,6.512"/>
	</g>
	<g id="POLYLINE_00000029729454856166219630000012090766474870630286_">
		<path fill="none" stroke="#FB8604" stroke-width="2" stroke-linecap="round" stroke-linejoin="round" stroke-miterlimit="10" d="
			M501.439,360.681c-2.13,2.027-5.411,5.007-7.384,7.124c-0.349,0.381-0.697,0.784-0.989,1.211
			c-0.289,0.415-0.514,0.862-0.408,1.381c0.116,0.567,0.455,1.059,0.778,1.527c0.892,1.242,1.98,2.389,3.055,3.475
			c1.854,1.849,3.917,3.662,5.921,5.349"/>
	</g>
	<g id="POLYLINE_00000071522036492181147660000015189485957871329725_">
		<path fill="none" stroke="#FB8604" stroke-width="2" stroke-linecap="round" stroke-linejoin="round" stroke-miterlimit="10" d="
			M522.004,362.651c-1.251,2.176-2.778,4.545-3.686,6.877c-0.129,0.369-0.242,0.755-0.241,1.149
			c0.011,0.643,0.351,1.237,0.781,1.697c0.318,0.345,0.689,0.661,1.055,0.955c1.41,1.12,3.215,2.262,4.734,3.247"/>
	</g>
	<g id="POLYLINE_00000182504970910543005210000000202651866774017697_">
		<path fill="none" stroke="#FB8604" stroke-width="2" stroke-linecap="round" stroke-linejoin="round" stroke-miterlimit="10" d="
			M530.485,362.02c-1.014,1.58-2.807,4.241-3.712,5.841c-0.149,0.268-0.301,0.549-0.416,0.833c-0.163,0.414-0.272,0.882-0.132,1.318
			c0.127,0.402,0.396,0.74,0.672,1.051c0.557,0.611,1.215,1.161,1.859,1.678c1.214,0.959,2.534,1.854,3.86,2.652"/>
	</g>
	<g id="POLYLINE_00000172424593943139274590000008570041208967086521_">
		<path fill="none" stroke="#FB8604" stroke-width="2" stroke-linecap="round" stroke-linejoin="round" stroke-miterlimit="10" d="
			M537.231,362.611c-0.824,1.27-1.66,2.584-2.214,3.997c-0.326,0.839-0.547,1.896-0.19,2.758c0.147,0.334,0.389,0.616,0.646,0.871
			c1.399,1.298,3.299,2.39,4.914,3.42"/>
	</g>
	<g id="POLYLINE_00000098900455790461723930000002111597239657656504_">
		<path fill="none" stroke="#FB8604" stroke-width="2" stroke-linecap="round" stroke-linejoin="round" stroke-miterlimit="10" d="
			M298.299,346.737c0.61,0.618,1.258,1.218,1.971,1.715c0.932,0.653,1.962,1.181,3.005,1.633c1.744,0.737,3.63,1.288,5.54,1.202
			c1.033-0.046,2.06-0.337,2.933-0.899c1.556-0.964,2.752-2.567,4.102-3.776c0.295-0.252,0.61-0.495,0.972-0.641
			c0.379-0.16,0.802-0.133,1.184,0.003c0.705,0.252,1.395,0.757,2.087,1.04c1.042,0.458,2.22,0.438,3.326,0.267
			c1.321-0.21,2.61-0.639,3.832-1.176c0.843-0.376,1.684-0.81,2.361-1.448c0.357-0.335,0.661-0.727,0.905-1.15
			c0.359-0.61,0.652-1.436,0.993-2.056c0.177-0.307,0.431-0.735,0.836-0.695c0.161,0.016,0.31,0.091,0.445,0.176
			c0.687,0.464,1.34,1.348,1.902,1.954c0.726,0.812,1.562,1.576,2.598,1.961c0.767,0.296,1.602,0.383,2.42,0.367
			c1.061-0.023,2.121-0.206,3.143-0.487c1.82-0.516,3.611-1.333,4.999-2.643c0.492-0.473,0.915-1.023,1.291-1.591
			c0.324-0.48,0.775-1.297,1.126-1.756c0.122-0.151,0.256-0.307,0.438-0.384l0.008-0.003l0.008-0.003l0.008-0.003l0.008-0.003
			l0.008-0.003l0.008-0.002l0.008-0.002l0.008-0.002l0.008-0.002l0.008-0.002l0.009-0.002l0.009-0.001l0.009-0.001l0.009-0.001
			l0.008-0.001l0.008-0.001l0.008,0l0.008,0l0.008,0h0.008l0.008,0l0.008,0l0.008,0l0.008,0.001l0.008,0.001l0.008,0.001
			l0.008,0.001l0.008,0.001c0.131,0.021,0.247,0.093,0.35,0.173c0.563,0.478,1.125,1.411,1.577,2.001
			c1.83,2.538,4.616,4.427,7.715,4.977c2.429,0.427,4.934-0.022,7.236-0.835c1.931-0.691,3.779-1.665,5.442-2.864
			c1.356-0.986,2.611-2.153,3.555-3.546c0.782-1.138,1.244-2.359,1.482-3.716c0.1-0.497,0.193-1.222,0.376-1.695
			c0.035-0.083,0.078-0.165,0.142-0.23l0.005-0.005l0.005-0.004l0.005-0.004l0.005-0.004l0.005-0.004l0.005-0.004l0.005-0.004
			l0.005-0.004l0.005-0.004l0.005-0.003l0.005-0.003l0.005-0.003l0.005-0.003l0.005-0.003l0.005-0.003l0.005-0.003l0.005-0.003
			l0.005-0.002l0.005-0.002l0.006-0.002l0.006-0.002l0.006-0.002l0.006-0.002l0.006-0.002l0.006-0.001l0.006-0.001l0.006-0.001
			l0.006-0.001l0.006-0.001l0.006-0.001l0.006,0l0.007,0l0.007,0l0.007,0l0.007,0l0.007,0l0.007,0l0.007,0.001l0.007,0.001
			l0.007,0.001l0.007,0.001l0.007,0.001l0.007,0.001l0.007,0.001l0.007,0.002c0.139,0.035,0.258,0.124,0.368,0.212
			c0.661,0.566,1.531,1.781,2.104,2.457c1.739,2.124,3.802,4.116,6.386,5.154c1.837,0.759,3.875,0.882,5.833,0.653
			c2.282-0.263,4.521-0.929,6.633-1.822c1.909-0.828,3.794-1.838,5.311-3.282c1.038-0.982,1.838-2.194,2.477-3.466
			c0.358-0.676,0.774-1.655,1.264-2.245c0.087-0.096,0.184-0.189,0.306-0.237l0.007-0.002l0.007-0.002l0.007-0.002l0.007-0.002
			l0.007-0.002l0.007-0.002l0.007-0.002l0.007-0.001l0.007-0.001l0.007-0.001l0.007-0.001l0.007-0.001l0.007-0.001l0.007-0.001
			l0.007,0l0.007,0l0.007,0l0.007,0l0.007,0l0.007,0l0.007,0l0.007,0.001l0.007,0.001l0.007,0.001l0.007,0.001l0.007,0.001
			l0.007,0.002l0.007,0.002l0.007,0.002l0.007,0.002l0.007,0.002l0.007,0.002l0.007,0.003l0.007,0.003l0.007,0.003l0.007,0.003
			l0.007,0.003l0.007,0.003l0.007,0.004l0.007,0.004l0.007,0.004c0.107,0.061,0.191,0.157,0.264,0.254
			c0.32,0.457,0.512,1.006,0.713,1.522l0.75,2.082c1,2.694,2.477,5.694,5.42,6.617c1.55,0.506,3.216,0.538,4.829,0.428
			c2.315-0.183,4.638-0.649,6.875-1.264c2.351-0.676,4.711-1.612,6.565-3.25c1.596-1.399,2.736-3.28,3.806-5.092
			c0.205-0.317,0.407-0.674,0.714-0.903c0.062-0.043,0.132-0.077,0.207-0.088c0.106-0.016,0.211,0.024,0.297,0.083
			c0.139,0.096,0.248,0.23,0.35,0.363c0.404,0.524,2.127,3.629,2.503,4.25c1.051,1.754,2.185,3.515,3.53,5.058
			c1.07,1.235,2.348,2.329,3.86,2.979c2.639,1.157,5.637,0.897,8.389,0.325c1.751-0.379,3.485-0.947,5.093-1.742
			c1.229-0.611,2.408-1.366,3.394-2.327c1.453-1.423,2.448-3.259,3.098-5.173c0.087-0.249,0.229-0.765,0.346-0.995
			c0.023-0.044,0.049-0.087,0.084-0.122c0.034-0.035,0.081-0.059,0.13-0.055l0.005,0l0.005,0.001l0.005,0.001l0.005,0.001
			l0.005,0.001l0.005,0.001l0.005,0.001l0.005,0.001l0.005,0.002l0.005,0.002l0.005,0.002l0.006,0.002l0.006,0.002l0.006,0.002
			l0.006,0.003l0.006,0.003l0.006,0.003c0.128,0.068,0.226,0.181,0.32,0.289c0.833,1.083,1.604,2.515,2.383,3.64
			c1.99,2.911,4.317,5.724,7.334,7.612c1.351,0.832,2.872,1.388,4.438,1.638c1.848,0.301,3.75,0.202,5.591-0.109
			c2.261-0.39,4.506-1.071,6.509-2.204c0.745-0.426,1.461-0.925,2.09-1.511c0.484-0.448,0.916-0.968,1.315-1.491
			c0.365-0.465,0.879-1.269,1.323-1.65c0.084-0.068,0.178-0.131,0.285-0.158l0.007-0.002l0.007-0.002l0.007-0.001l0.007-0.001
			c0.111-0.02,0.225,0.018,0.316,0.082c0.321,0.239,0.538,0.701,0.729,1.048l0.868,1.716c1.175,2.231,2.556,4.401,4.334,6.202
			c1.124,1.132,2.433,2.12,3.928,2.704c1.481,0.582,3.09,0.79,4.674,0.786c2.173-0.012,4.345-0.409,6.432-0.996
			c1.367-0.408,2.82-0.812,3.91-1.778c0.637-0.561,1.062-1.314,1.402-2.082c0.274-0.594,0.536-1.35,0.888-1.902
			c0.058-0.082,0.122-0.164,0.207-0.22l0.006-0.004l0.006-0.003l0.006-0.003l0.006-0.003l0.006-0.003l0.006-0.003l0.006-0.003
			l0.006-0.003l0.006-0.002l0.006-0.002l0.006-0.002l0.006-0.002l0.006-0.002l0.006-0.002l0.006-0.002l0.006-0.001l0.005-0.001
			l0.005-0.001l0.005-0.001l0.005-0.001l0.005-0.001l0.005,0l0.005,0l0.005,0l0.005,0l0.005,0l0.005,0l0.005,0l0.005,0l0.005,0.001
			l0.005,0.001l0.005,0.001l0.005,0.001l0.006,0.001l0.005,0.001l0.005,0.001l0.006,0.001l0.006,0.002l0.006,0.002l0.006,0.002
			l0.006,0.002l0.006,0.002l0.006,0.002l0.006,0.002c0.086,0.038,0.156,0.105,0.219,0.173c0.383,0.455,0.732,1.136,1.08,1.617
			c0.93,1.381,2.344,2.373,3.861,3.02c1.34,0.57,2.791,0.89,4.247,0.928c1.579,0.035,3.168-0.25,4.644-0.808
			c0.942-0.372,1.894-0.838,2.589-1.592c0.366-0.403,0.597-0.907,0.76-1.421l0.182-0.576"/>
	</g>
	<g id="POLYLINE_00000181796588378660707240000001312068080225066933_">
		<path fill="none" stroke="#FB8604" stroke-width="2" stroke-linecap="round" stroke-linejoin="round" stroke-miterlimit="10" d="
			M509.976,412.704c-1.248-0.491-4.754-1.651-5.955-2.188c-0.249-0.115-0.5-0.24-0.724-0.4c-0.16-0.117-0.322-0.258-0.387-0.451
			c-0.037-0.111-0.026-0.233,0.012-0.342c0.069-0.194,0.2-0.36,0.333-0.514c1.776-1.772,3.789-3.704,5.476-5.565
			c0.569-0.58,1.191-1.222,2.021-1.38c0.634-0.11,1.272,0.092,1.858,0.32c0.568,0.21,4.366,2.089,4.998,2.386
			c0.818,0.417,1.716,0.845,2.462,1.38c0.21,0.159,0.433,0.337,0.527,0.592c0.132,0.384-0.173,0.776-0.4,1.06
			c-0.987,1.114-2.806,2.585-3.91,3.614c-0.819,0.692-1.768,1.585-2.719,2.068c-0.27,0.128-0.565,0.211-0.865,0.217
			c-0.555,0.009-1.093-0.181-1.609-0.366C511.093,413.134,509.976,412.704,509.976,412.704z"/>
	</g>
	<g id="POLYLINE_00000153696278697513681440000015778557797618104505_">
		<path fill="none" stroke="#FB8604" stroke-width="2" stroke-linecap="round" stroke-linejoin="round" stroke-miterlimit="10" d="
			M497.834,411.247c-1.686,1.129-3.504,2.139-5.314,3.054c-1.153,0.57-2.353,1.154-3.565,1.585
			c-0.565,0.194-1.156,0.351-1.757,0.359c-0.405,0.007-0.811-0.066-1.193-0.199c-0.335-0.115-0.663-0.272-0.975-0.438
			c-1.448-0.824-4.019-2.345-5.399-3.241c-0.629-0.419-1.268-0.861-1.825-1.373c-0.231-0.218-0.459-0.451-0.614-0.731
			c-0.124-0.223-0.163-0.469-0.035-0.701c0.129-0.235,0.349-0.404,0.563-0.557c3.296-1.936,8.047-5.186,11.256-7.353
			c0.811-0.517,1.641-1.07,2.569-1.349c0.411-0.12,0.86-0.159,1.269-0.014c0.341,0.117,0.64,0.33,0.914,0.56
			c0.157,0.08,4.346,4.305,4.619,4.563c0.658,0.673,1.436,1.444,2.015,2.18c0.139,0.182,0.282,0.371,0.374,0.582
			c0.044,0.103,0.073,0.216,0.059,0.328c-0.022,0.173-0.129,0.319-0.23,0.455C499.827,409.858,498.786,410.585,497.834,411.247z"/>
	</g>
	<g id="POLYLINE_00000005238209751250357280000004463699513081416123_">
		<path fill="none" stroke="#FB8604" stroke-width="2" stroke-linecap="round" stroke-linejoin="round" stroke-miterlimit="10" d="
			M393.79,417.385c-1.419,0.779-2.932,1.415-4.498,1.828c-0.922,0.233-1.932,0.42-2.845,0.051c-0.878-0.359-1.638-0.981-2.394-1.542
			c-1.369-1.082-2.821-2.254-3.919-3.614c-0.286-0.377-0.55-0.794-0.635-1.266c-0.076-0.404,0.034-0.812,0.257-1.152
			c0.331-0.511,0.806-0.922,1.262-1.319c0.794-0.662,4.495-3.839,5.248-4.391c0.458-0.346,0.941-0.682,1.451-0.949
			c0.795-0.424,1.706-0.661,2.583-0.348c0.398,0.137,0.761,0.363,1.101,0.608c0.585,0.425,1.149,0.938,1.684,1.424
			c1.538,1.428,3.122,2.965,4.524,4.526c0.335,0.389,0.699,0.796,0.967,1.235c0.121,0.203,0.23,0.426,0.239,0.666
			c0.007,0.169-0.051,0.335-0.141,0.477c-0.197,0.305-0.493,0.55-0.756,0.797C396.658,415.545,395.267,416.559,393.79,417.385z"/>
	</g>
	<g id="POLYLINE_00000143585926765750449900000001976683971698110087_">
		<path fill="none" stroke="#FB8604" stroke-width="2" stroke-linecap="round" stroke-linejoin="round" stroke-miterlimit="10" d="
			M417.055,416.212c-0.984,0.656-2.056,1.35-3.086,1.929c-0.481,0.264-0.982,0.538-1.496,0.732
			c-0.305,0.114-0.631,0.197-0.959,0.181c-0.306-0.013-0.602-0.109-0.883-0.225c-1.385-0.6-2.663-1.456-3.881-2.341
			c-1.871-1.415-3.81-3.023-5.461-4.689c-0.153-0.175-0.31-0.363-0.374-0.591c-0.059-0.204,0.006-0.416,0.115-0.592
			c0.082-0.136,0.185-0.261,0.29-0.38c0.512-0.571,1.155-1.112,1.734-1.618c1.792-1.445,4.747-4.059,6.579-5.372
			c0.505-0.362,1.034-0.722,1.589-1.003c0.47-0.237,0.975-0.43,1.503-0.475c0.789-0.076,1.55,0.244,2.194,0.676
			c0.73,0.482,1.463,1.116,2.135,1.679c1.456,1.256,3.029,2.641,4.382,4.003c0.747,0.779,1.58,1.646,1.69,2.771
			c0.036,0.419-0.091,0.816-0.372,1.13c-0.151,0.175-0.331,0.33-0.51,0.475C420.666,413.697,418.692,415.097,417.055,416.212z"/>
	</g>
	<g id="POLYLINE_00000073001739877715168350000015559753000404146313_">
		<path fill="none" stroke="#FB8604" stroke-width="2" stroke-linecap="round" stroke-linejoin="round" stroke-miterlimit="10" d="
			M441.95,414.897c-1.156,0.963-2.447,1.819-3.727,2.607c-0.261,0.153-0.532,0.305-0.823,0.392c-0.641,0.198-1.306-0.056-1.9-0.296
			c-2.135-0.952-4.143-2.279-6.104-3.543c-1.268-0.868-2.707-1.774-3.72-2.936c-0.164-0.207-0.344-0.423-0.409-0.685
			c-0.091-0.406,0.146-0.8,0.349-1.136c0.469-0.728,1.057-1.41,1.623-2.064c0.924-1.044,1.917-2.073,2.958-3.001
			c0.741-0.653,1.53-1.29,2.372-1.807c0.393-0.235,0.804-0.466,1.248-0.589c0.336-0.094,0.695-0.079,1.027,0.022
			c0.684,0.213,1.32,0.606,1.942,0.954c2.28,1.345,4.499,2.872,6.451,4.666c0.754,0.717,1.563,1.474,2.096,2.374
			c0.205,0.363,0.327,0.783,0.16,1.186c-0.244,0.579-0.847,1.052-1.276,1.497C443.478,413.298,442.775,414.227,441.95,414.897z"/>
	</g>
	<g id="POLYLINE_00000136402338340702084050000006112586466678465193_">
		<path fill="none" stroke="#FB8604" stroke-width="2" stroke-linecap="round" stroke-linejoin="round" stroke-miterlimit="10" d="
			M468.251,413.949c-1.897,1.256-3.847,2.598-5.982,3.412c-0.692,0.256-1.424,0.441-2.166,0.445
			c-0.711,0.009-1.416-0.145-2.087-0.371c-1.049-0.359-2.098-0.851-3.1-1.323c-2.067-1.021-4.277-2.153-6.076-3.6
			c-0.381-0.33-0.762-0.703-0.94-1.185c-0.137-0.372-0.076-0.758,0.103-1.105c0.363-0.687,0.96-1.221,1.525-1.742
			c2.882-2.408,6.552-5.73,9.46-8.095c0.58-0.451,1.188-0.917,1.822-1.29c0.335-0.194,0.693-0.372,1.081-0.426
			c0.331-0.049,0.669,0.005,0.987,0.1c1.385,0.465,2.698,1.259,3.978,1.956c1.814,1.067,6.365,3.706,8.154,4.693
			c0.233,0.141,0.476,0.292,0.688,0.464c0.225,0.183,0.444,0.406,0.518,0.694c0.063,0.247-0.001,0.507-0.102,0.736
			c-0.224,0.49-0.591,0.901-0.957,1.29C473.12,410.661,470.63,412.316,468.251,413.949z"/>
	</g>
	<g id="POLYLINE_00000158018448080985524160000016342763304745335974_">
		<path fill="none" stroke="#FB8604" stroke-width="2" stroke-linecap="round" stroke-linejoin="round" stroke-miterlimit="10" d="
			M366.758,419.522c-0.636-0.219-1.275-0.512-1.881-0.805c-1.297-0.67-6.441-3.23-7.609-3.892c-0.502-0.286-1.015-0.595-1.475-0.944
			c-0.394-0.309-0.847-0.682-1.006-1.173c-0.059-0.192-0.048-0.4,0.017-0.589c0.104-0.303,0.306-0.56,0.513-0.8
			c0.387-0.443,1.111-1.111,1.52-1.537c0.534-0.544,2.157-2.371,2.69-2.961c0.816-0.874,1.663-1.771,2.663-2.436
			c0.451-0.295,0.955-0.537,1.497-0.589c1.029-0.104,1.974,0.443,2.825,0.955c2.663,1.674,5.609,3.649,8.173,5.471
			c0.419,0.307,0.859,0.633,1.24,0.987c0.314,0.296,0.622,0.624,0.785,1.03c0.064,0.162,0.098,0.337,0.088,0.511
			c-0.013,0.24-0.1,0.471-0.214,0.681c-0.129,0.236-0.293,0.454-0.465,0.659c-0.658,0.756-2.793,2.83-3.504,3.548
			c-0.846,0.797-1.719,1.657-2.835,2.055C368.796,420.04,367.72,419.855,366.758,419.522z"/>
	</g>
	<g id="POLYLINE_00000040546494887665026850000006668594041552310937_">
		<path fill="none" stroke="#FB8604" stroke-width="2" stroke-linecap="round" stroke-linejoin="round" stroke-miterlimit="10" d="
			M342.226,420.243c-0.498-0.2-1.005-0.459-1.48-0.71c-0.514-0.285-2.96-1.646-3.422-1.893c-0.362-0.212-0.755-0.422-1.017-0.759
			c-0.156-0.207-0.197-0.439-0.118-0.688c0.082-0.261,0.244-0.489,0.414-0.7c0.409-0.494,0.915-0.926,1.404-1.34
			c1.418-1.167,2.936-2.34,4.485-3.325c0.65-0.403,1.324-0.805,2.047-1.066c0.311-0.11,0.641-0.181,0.972-0.174
			c0.351,0.005,0.697,0.095,1.025,0.213c0.926,0.344,1.815,0.845,2.67,1.336c1.078,0.634,2.168,1.337,3.181,2.07
			c0.394,0.29,0.802,0.592,1.146,0.941c0.187,0.194,0.37,0.41,0.45,0.671c0.108,0.342-0.076,0.662-0.3,0.911
			c-0.292,0.325-0.652,0.598-1,0.862c-0.708,0.524-1.494,1.019-2.253,1.466c-1.683,0.967-3.451,1.887-5.35,2.337
			c-0.542,0.12-1.105,0.208-1.661,0.157C343.009,420.517,342.608,420.396,342.226,420.243z"/>
	</g>
</g>
<g id="_x32_D_x24_AG-ANIMALS">
	<g id="POLYLINE_00000176762503933814628630000017673003204780288442_">
		
			<path fill="none" stroke="#FB8604" stroke-width="2.75" stroke-linecap="round" stroke-linejoin="round" stroke-miterlimit="10" d="
			M227.676,371.914c-2.326-0.602-4.725-1.146-7.14-1.107c-2.472-0.014-5.297,0.363-7.756,0.08c-0.458-0.072-0.96-0.16-1.333-0.453
			l-0.014-0.011l-0.013-0.012l-0.013-0.012c-0.406-0.371-0.262-0.948-0.037-1.379c0.358-0.679,0.908-1.242,1.473-1.753
			c1.131-0.997,2.438-1.813,3.735-2.578c3.361-1.992,7.953-4.035,11.074-6.375c1.135-0.869,2.222-1.89,2.842-3.199
			c0.672-1.377,0.555-2.95,0.185-4.396c-0.565-2.314-2.137-5.526-3.051-7.75c-1.01-2.422-1.967-4.995-2.742-7.502
			c-0.475-1.578-0.937-3.225-1.154-4.861c-0.055-0.45-0.094-0.916-0.062-1.369c0.02-0.256,0.066-0.516,0.176-0.75
			c0.267-0.59,0.931-0.795,1.526-0.882c1.154-0.158,2.334-0.049,3.485,0.087c3.613,0.486,7.177,1.487,10.573,2.802
			c2.642,1.033,5.201,2.406,7.622,3.881c1.994,1.242,6.482,4.129,8.474,5.228c3.518,1.998,9.235,4.565,12.941,6.327
			c1.833,0.85,4.127,2.19,5.883,3.237c1.099,0.632,2.254,1.204,3.47,1.571c1.513,0.46,3.11,0.706,4.682,0.857
			c1.186,0.095,2.415,0.189,3.602,0.098c0.996-0.1,2.002-0.395,2.964-0.669c0.841-0.268,2.286-0.662,3.103-0.997
			c1.613-0.758,3.329-1.681,4.885-2.555c0.801-0.461,1.635-0.946,2.375-1.498c0.427-0.324,0.845-0.683,1.141-1.136
			c0.221-0.335,0.348-0.727,0.374-1.127c0.026-0.325-0.01-0.687,0.124-0.992c0.087-0.209,0.258-0.374,0.457-0.478
			c0.278-0.147,0.59-0.219,0.897-0.276c1.665-0.284,3.904-0.052,5.599,0.009c1.701,0.069,3.432-0.006,5.109-0.314
			c0.992-0.187,1.991-0.44,2.898-0.893c1.034-0.524,2.122-1.404,2.178-2.651c0.027-0.352-0.051-0.73-0.034-1.082
			c0.009-0.117,0.037-0.237,0.107-0.333c0.158-0.21,0.445-0.249,0.689-0.269c0.801-0.043,2.169,0.192,2.973,0.267
			c1.668,0.193,3.446,0.284,5.126,0.3c2.112-0.008,4.322,0.018,6.405-0.366c0.485-0.104,0.974-0.249,1.393-0.522
			c0.869-0.551,1.104-1.646,1.371-2.57c0.163-0.538,0.374-1.15,0.908-1.42c0.224-0.115,0.479-0.156,0.728-0.165
			c1.01-0.011,2.02,0.297,2.993,0.539c2.432,0.637,6.345,1.945,8.794,2.194c0.52,0.048,1.052,0.058,1.566-0.042
			c0.729-0.132,1.38-0.517,1.967-0.956c0.575-0.433,1.194-0.865,1.815-1.219c1.116-0.659,2.4-1.292,3.311-2.219
			c0.406-0.415,0.692-0.915,0.774-1.494c0.052-0.336,0.047-0.681,0.019-1.019c-0.013-0.197-0.059-0.435-0.01-0.629
			c0.052-0.208,0.242-0.308,0.434-0.362c0.474-0.12,0.979-0.1,1.465-0.09c1.949,0.082,3.907,0.42,5.803,0.874
			c2.511,0.593,5.99,1.742,8.526,2.158c0.906,0.145,1.841,0.247,2.754,0.112c1.343-0.21,2.716-0.901,3.981-1.382
			c1.129-0.471,2.325-0.978,3.394-1.572c0.494-0.277,0.981-0.59,1.4-0.974c0.386-0.352,0.711-0.781,0.894-1.273
			c0.179-0.445,0.204-0.97,0.384-1.414c0.081-0.196,0.21-0.375,0.385-0.497c0.218-0.154,0.484-0.224,0.744-0.265
			c0.816-0.114,1.651-0.015,2.461,0.106c0.957,0.151,1.934,0.396,2.867,0.658c3.869,1.189,8.622,2.628,12.548,3.598
			c0.848,0.202,1.799,0.49,2.679,0.505c0.548,0.005,1.085-0.138,1.606-0.293l1.43-0.454c0.919-0.292,2.017-0.448,2.947-0.702
			c0.496-0.139,0.989-0.324,1.415-0.618c0.384-0.259,0.69-0.621,0.906-1.028c0.337-0.589,0.554-1.337,1.061-1.81
			c0.353-0.327,0.856-0.388,1.318-0.371c0.722,0.028,1.454,0.194,2.158,0.356c2.867,0.711,5.791,1.654,8.56,2.681
			c1.864,0.663,4.054,1.848,5.948,2.284c1.998,0.447,4.089,0.237,6.053-0.28c1.025-0.265,2.086-0.622,3.083-0.977
			c0.526-0.196,1.106-0.4,1.597-0.677c0.178-0.101,0.352-0.215,0.499-0.358c0.111-0.107,0.201-0.234,0.281-0.365
			c0.032-0.065,0.135-0.219,0.169-0.278c0.039-0.056,0.076-0.113,0.122-0.164c0.055-0.063,0.117-0.12,0.186-0.167
			c0.378-0.251,0.884-0.254,1.323-0.246c0.849,0.035,1.695,0.213,2.518,0.415c4.663,1.233,10.237,3.692,14.81,5.29
			c1.254,0.428,2.549,0.823,3.862,1.014c1.001,0.148,2.026,0.166,3.034,0.089c1.578-0.123,3.164-0.413,4.704-0.775
			c1.055-0.257,2.131-0.536,3.13-0.967c0.309-0.138,0.619-0.294,0.885-0.507c0.193-0.156,0.395-0.354,0.636-0.432
			c0.33-0.11,0.689-0.074,1.028-0.029c0.841,0.129,1.692,0.394,2.505,0.643c1.532,0.486,3.109,1.071,4.595,1.683
			c3.691,1.528,7.306,3.471,10.216,6.245c0.317,0.277,0.66,0.543,1.048,0.714c0.337,0.151,0.705,0.228,1.073,0.251
			c0.613,0.038,1.232-0.049,1.835-0.15c2.273-0.404,4.633-1.213,6.83-1.922c0.622-0.193,1.262-0.359,1.913-0.409
			c0.676-0.055,1.361,0.008,2.025,0.135c1.109,0.213,2.223,0.588,3.288,0.964c3.279,1.153,7.335,3.077,10.563,4.426
			c0.792,0.311,1.623,0.546,2.472,0.631c2.211,0.207,4.601-0.079,6.799,0.284c1.819,0.283,3.601,0.926,5.103,2.003
			c0.81,0.553,1.634,1.354,2.394,1.973c0.353,0.278,0.747,0.507,1.165,0.673c0.693,0.274,1.571,0.454,2.293,0.641
			c1.228,0.29,2.511,0.558,3.768,0.666c0.958,0.075,1.997,0.087,2.946,0.25c1.497,0.235,2.974,0.649,4.373,1.229
			c1.091,0.466,2.335,1.011,3.458,1.358c1.302,0.419,2.69,0.745,4.033,1.016c6.71,1.269,15.211,2.23,21.737,4.146
			c2.156,0.622,4.449,1.421,6.544,2.225c0.825,0.31,2.801,1.111,3.626,1.441c0,0,44.348,18.615,44.348,18.615
			c2.723,1.101,5.606,2.184,8.415,3.014c4.202,1.256,8.721,2.241,13.034,3.049c5.417,0.978,11.007,1.9,16.515,2.039
			c3.167,0.074,6.367-0.244,9.48-0.818c1.78-0.316,4.421-0.923,6.205-1.177c0.48-0.065,0.979-0.118,1.463-0.12
			c0.758-0.009,1.613,0.145,2.095,0.787c0.37,0.483,0.438,1.134,0.322,1.717c-0.132,0.667-0.474,1.274-0.885,1.809
			c-0.637,0.818-1.441,1.506-2.318,2.055c-0.683,0.424-1.427,0.763-2.194,1.002c-1.079,0.34-2.44,0.508-3.557,0.714
			c-1.577,0.269-3.141,0.732-4.637,1.293l-6.473,2.474c-9.796,3.535-19.978,6.425-30.338,7.664
			c-4.603,0.474-9.532,0.922-14.157,0.907c-4.007,0.066-11.089-0.71-15.139-1.05c-2.542-0.189-5.165-0.325-7.708-0.13
			c-2.35,0.176-4.7,0.619-6.956,1.297c-1.639,0.487-3.333,1.146-4.909,1.816c-1.265,0.529-3.539,1.576-4.819,1.977
			c-1.336,0.439-2.749,0.719-4.16,0.642c-1.059-0.055-2.111-0.325-3.056-0.808c-0.946-0.477-1.776-1.166-2.502-1.933
			c-1.882-1.986-3.391-4.575-4.919-6.836c-0.741-1.086-1.541-2.177-2.592-2.983c-1.558-1.217-3.81-1.811-5.643-2.497
			c-2.164-0.801-4.359-1.795-5.966-3.499c-1.019-1.076-1.753-2.411-2.147-3.837c-0.479-1.713-0.491-3.533-0.236-5.285
			c0.493-3.19,1.683-6.335,3.729-8.856c1.634-2.027,3.833-3.569,6.255-4.511c2.017-0.793,4.176-1.207,6.332-1.367
			c1.581-0.11,3.191-0.119,4.769,0.041c6.095,0.644,11.799,3.765,16.003,8.17c3.784,3.96,5.634,9.29,7.299,14.401"/>
	</g>
	<g id="POLYLINE_00000132804693861906066980000004771243005502071228_">
		
			<path fill="none" stroke="#FB8604" stroke-width="2.75" stroke-linecap="round" stroke-linejoin="round" stroke-miterlimit="10" d="
			M515.689,415.097c-7.325,0.648-78.086,7.064-83.072,7.405c-6.177,0.457-12.908,0.533-19.104,0.415
			c-23.025-0.656-52.358-1.332-75.277-0.992c-6.163,0.06-18.773,0.632-24.977,0.637c-6.596,0.068-14.909-1.054-21.505-1.704
			c-6.942-0.505-20.088-0.284-27.146-0.4c-9.057-0.148-18.271-0.803-27.183-2.45c-3.015-0.562-6.19-1.198-9.121-2.084
			c-11.9-3.855-24.583-6.492-37.124-5.1c-6.586,0.732-13.132,2.253-19.437,4.278c-3.224,1.029-8.668,3.171-11.893,4.2
			c-1.852,0.596-3.916,1.136-5.811,1.585l-13.136,2.891c-4.794,1.154-9.938,2.336-14.537,4.084c-2.333,0.905-4.906,2.11-7.331,2.723
			c-2.545,0.693-5.212,1.041-7.844,1.145c-1.482,0.053-3.024,0.055-4.5-0.094c-0.635-0.072-1.288-0.154-1.893-0.367
			c-0.306-0.112-0.615-0.271-0.807-0.544c-0.153-0.217-0.202-0.489-0.189-0.751c0.021-0.42,0.155-0.829,0.299-1.221
			c0.892-2.217,2.198-4.417,3.379-6.494c1.946-3.299,3.995-6.666,6.404-9.649c1.475-1.859,3.664-4.081,4.875-6.122
			c0.407-0.698,0.729-1.467,0.809-2.277c0.263-2.625-2.191-4.331-4.058-5.712c-9.534-6.703-19.546-13.591-27.215-22.444
			c-1.721-2.024-5.283-6.317-7.048-8.142c-1.259-1.325-2.642-2.617-4.04-3.793c-3.483-2.93-7.373-5.497-11.278-7.829
			c-3.272-1.933-6.71-3.8-10.197-5.308c-1.607-0.694-3.303-1.312-4.983-1.801c-1.942-0.582-4.836-1.172-6.789-1.725
			c-2.689-0.774-5.336-1.796-7.827-3.072c-0.679-0.37-1.52-0.81-2.018-1.406c-0.106-0.136-0.199-0.295-0.206-0.471
			c-0.008-0.179,0.095-0.34,0.225-0.455c0.37-0.315,0.855-0.459,1.311-0.6c1.24-0.355,2.541-0.494,3.825-0.57
			c2.103-0.115,4.297-0.031,6.398,0.114c5.159,0.376,10.37,1.221,15.399,2.427c4.313,1.036,8.796,2.492,12.995,3.935
			c9.153,3.321,34.142,12.191,42.739,15.552c4.425,1.65,14.126,5.849,18.615,7.768c9.406,4.06,19.448,6.897,29.46,9.019
			c8.238,1.703,16.716,2.965,25.146,2.593c4.127-0.173,8.258-0.941,12.229-2.062c5.903-1.723,15.679-4.265,21.286-6.604
			c9.857-3.897,19.749-9.179,29.057-14.259c4.888-2.581,12.203-5.785,17.301-8.088"/>
	</g>
	<g id="POLYLINE_00000154389626503966600340000002480990626143739021_">
		
			<path fill="none" stroke="#FB8604" stroke-width="2.75" stroke-linecap="round" stroke-linejoin="round" stroke-miterlimit="10" d="
			M228.665,416.031c0.184,0.398,0.412,0.813,0.462,1.254c0.02,0.182-0.001,0.375-0.093,0.536c-0.1,0.175-0.263,0.305-0.432,0.411
			c-0.19,0.117-0.399,0.209-0.607,0.289c-0.794,0.3-1.974,0.576-2.791,0.827c-1.386,0.426-2.764,0.99-3.925,1.874
			c-0.639,0.494-1.217,1.112-1.516,1.872c-0.23,0.582-0.281,1.221-0.241,1.841c0.063,0.961,0.319,1.92,0.576,2.846
			c1.221,3.978,2.313,8.179,2.757,12.315c0.269,2.482,0.365,5.025,0.01,7.502c-0.372,2.635-1.366,5.15-2.546,7.521l-2.083,4.084
			c-0.644,1.312-1.274,2.69-1.751,4.071c-0.272,0.8-0.513,1.63-0.61,2.471c-0.071,0.666-0.066,1.397,0.309,1.978
			c0.238,0.372,0.635,0.619,1.061,0.721c0.926,0.214,1.909-0.035,2.801-0.296c2.741-0.885,5.287-2.377,7.733-3.875
			c3.782-2.378,7.441-5.076,10.757-8.072c2.706-2.446,5.241-5.155,7.441-8.066c1.584-2.084,3.02-4.381,4.33-6.646
			c1.879-3.262,4.499-8.279,6.651-11.292c0.948-1.342,2.015-2.619,3.226-3.732c1.766-1.634,3.82-2.962,5.998-3.978
			c1.918-0.905,3.959-1.582,6.047-1.963"/>
	</g>
	<g id="POLYLINE_00000028313056995658462830000001906326403021373616_">
		
			<path fill="none" stroke="#FB8604" stroke-width="2.75" stroke-linecap="round" stroke-linejoin="round" stroke-miterlimit="10" d="
			M653.76,417.764c1.622-1.122,3.228-2.576,3.733-4.555c0.383-1.457,0.251-3.06,0.697-4.503c0.354-1.162,1.226-2.116,1.642-3.249
			c0.384-1.08-0.013-2.235-0.456-3.234"/>
	</g>
	<g id="POLYLINE_00000004516183374390111410000002112940167226994615_">
		
			<path fill="none" stroke="#FB8604" stroke-width="2.75" stroke-linecap="round" stroke-linejoin="round" stroke-miterlimit="10" d="
			M661.282,401.853c0.092,0.223,0.556,1.42,0.654,1.67c1.004,2.443,2.503,4.947,3.302,7.469c0.195,0.615,0.354,1.252,0.408,1.897
			c0.127,1.25-0.246,2.502-0.601,3.688"/>
	</g>
	<g id="POLYLINE_00000031166066463717583660000006379852944671687065_">
		
			<path fill="none" stroke="#FB8604" stroke-width="2.75" stroke-linecap="round" stroke-linejoin="round" stroke-miterlimit="10" d="
			M658.551,402.374l-0.287,1.006c-0.264,0.903-0.61,1.793-1.072,2.613c-0.927,1.634-2.146,3.118-3.393,4.517
			c-1.213,1.328-2.51,2.625-3.969,3.683c-1.098,0.803-2.338,1.435-3.567,2.012"/>
	</g>
	<g id="POLYLINE_00000158748940328717747970000010555066760104958629_">
		
			<path fill="none" stroke="#FB8604" stroke-width="2.75" stroke-linecap="round" stroke-linejoin="round" stroke-miterlimit="10" d="
			M604.433,405.937l1.289,0.442c1.625,0.556,3.338,0.874,5.057,0.877c3.23,0.025,6.671-0.487,9.875-0.922
			c2.007-0.304,4.206-0.54,6.12-1.227c1.045-0.378,2.018-0.95,2.94-1.564"/>
	</g>
	<g id="POLYLINE_00000057835741675628824640000012576665194483413675_">
		
			<path fill="none" stroke="#FB8604" stroke-width="2.75" stroke-linecap="round" stroke-linejoin="round" stroke-miterlimit="10" d="
			M591.502,407.369c-4.028-0.264-8.131,0.202-12.12,0.742l-11.621,1.773"/>
	</g>
	<g id="POLYLINE_00000013184072819135875140000007539614686190913454_">
		
			<path fill="none" stroke="#FB8604" stroke-width="2.75" stroke-linecap="round" stroke-linejoin="round" stroke-miterlimit="10" d="
			M562.09,396.333c-1.298,0.286-2.437,1.029-3.449,1.866c-0.899,0.746-1.935,1.669-2.897,2.279c-0.91,0.587-1.902,1.069-2.912,1.461
			c-2.532,0.974-5.246,1.465-7.93,1.799c-3.787,0.467-9.093,0.753-12.86,1.309c-2.545,0.37-5.106,0.968-7.401,2.161
			c-2.823,1.464-5.172,3.696-7.325,6.004c-2.118,2.325-4.036,4.888-5.428,7.718c-0.958,1.957-1.617,4.072-2.035,6.209
			c-0.468,2.374-0.681,4.861-0.839,7.274c-0.159,2.606-0.248,5.315-0.128,7.924c0.063,1.214,0.164,2.463,0.402,3.656
			c0.13,0.629,0.295,1.266,0.574,1.847c0.277,0.586,0.714,1.121,1.318,1.385c0.475,0.214,1.006,0.267,1.522,0.249
			c0.83-0.031,1.657-0.225,2.457-0.438c2.738-0.775,5.483-1.858,8.114-2.939c3.259-1.37,6.574-2.879,9.647-4.629
			c1.624-0.929,3.22-1.995,4.711-3.126c4.435-3.555,11.236-8.855,15.812-12.335c2.583-2.049,5.245-4.225,7.499-6.63
			c1.375-1.457,2.636-3.059,3.759-4.718c1.725-2.513,3.993-6.494,5.863-8.88c0.691-0.88,1.455-1.725,2.318-2.44
			c1.619-1.372,3.634-2.162,5.715-2.502c0.052-0.012,0.134-0.022,0.172-0.061l0-0.001l0-0.001l0.001-0.001l0-0.001l0-0.001l0-0.001
			l0-0.001l0-0.001l0-0.001l0-0.001l0-0.001l0-0.001l0-0.001l0-0.001l0-0.001l0-0.001l0-0.001l0-0.001l0-0.001l0-0.001l0-0.001
			l0-0.001l0-0.001l0-0.001l0-0.001l0-0.001l0-0.001l0-0.001l0-0.001v-0.001v-0.001l0-0.001v-0.001l0-0.001l0-0.001l0-0.001l0-0.001
			l0-0.001l0-0.001l0-0.001l0-0.001l0-0.001l0-0.001l0-0.001l0-0.001l0-0.001l0-0.001l0-0.001l0-0.001l0-0.001l0-0.001l0-0.001
			c-0.005-0.009-0.011-0.017-0.019-0.023"/>
	</g>
	<g id="POLYLINE_00000033336675084013663060000006825005071011688578_">
		
			<path fill="none" stroke="#FB8604" stroke-width="2.75" stroke-linecap="round" stroke-linejoin="round" stroke-miterlimit="10" d="
			M295.089,421.196c-0.264,1.108-0.184,2.27-0.089,3.394l0.292,2.789c0.096,1.034,0.155,2.098,0.081,3.133
			c-0.083,1.266-0.325,2.536-0.644,3.763c-0.773,2.977-2.169,6.117-2.48,9.196c-0.071,0.69-0.1,1.396-0.002,2.085
			c0.088,0.593,0.281,1.23,0.778,1.608c0.49,0.372,1.148,0.377,1.731,0.282c1.536-0.286,3.007-1.089,4.351-1.863
			c2.519-1.493,4.848-3.359,7.002-5.337c2.136-1.969,4.188-4.109,6.032-6.356c1.308-1.617,3.229-4.099,4.662-5.562
			c1.943-2.066,4.295-4.113,6.436-5.982"/>
	</g>
	<g id="POLYLINE_00000176738672982233321740000001822372214035361674_">
		
			<path fill="none" stroke="#FB8604" stroke-width="2.75" stroke-linecap="round" stroke-linejoin="round" stroke-miterlimit="10" d="
			M34.737,343.545c6.109,0.267,12.251,1.118,18.21,2.481c6.976,1.587,13.91,3.925,20.59,6.474
			c7.272,2.773,14.679,6.245,21.629,9.758c5.694,2.88,11.774,6.092,17.202,9.431c5.478,3.338,10.766,7.185,15.538,11.475
			c5.441,4.82,11.206,10.625,17.126,14.837c4.972,3.544,10.408,6.508,15.995,8.962c5.295,2.263,10.844,4.324,16.617,4.849
			c3.316,0.322,6.89-0.158,10.186-0.552"/>
	</g>
</g>
<g id="_x32_D_x24_AG-OUTLINE">
	<g id="POLYLINE_00000088120812688588141340000007655875572604514229_">
		
			<path fill="none" stroke="#FB8604" stroke-width="3.5" stroke-linecap="round" stroke-linejoin="round" stroke-miterlimit="10" d="
			M227.676,371.914c-2.326-0.602-4.725-1.146-7.14-1.107c-2.472-0.014-5.297,0.363-7.756,0.08c-0.458-0.072-0.96-0.16-1.333-0.453
			l-0.014-0.011l-0.013-0.012l-0.013-0.012c-0.406-0.371-0.262-0.948-0.037-1.379c0.358-0.679,0.908-1.242,1.473-1.753
			c1.131-0.997,2.438-1.813,3.735-2.578c3.361-1.992,7.953-4.035,11.074-6.375c1.135-0.869,2.222-1.89,2.842-3.199
			c0.672-1.377,0.555-2.95,0.185-4.396c-0.565-2.314-2.137-5.526-3.051-7.75c-1.01-2.422-1.967-4.995-2.742-7.502
			c-0.475-1.578-0.937-3.225-1.154-4.861c-0.055-0.45-0.094-0.916-0.062-1.369c0.02-0.256,0.066-0.516,0.176-0.75
			c0.267-0.59,0.931-0.795,1.526-0.882c1.154-0.158,2.334-0.049,3.485,0.087c3.613,0.486,7.177,1.487,10.573,2.802
			c2.642,1.033,5.201,2.406,7.622,3.881c1.994,1.242,6.482,4.129,8.474,5.228c3.518,1.998,9.235,4.565,12.941,6.327
			c1.833,0.85,4.127,2.19,5.883,3.237c1.168,0.674,2.4,1.273,3.701,1.64c1.597,0.458,3.278,0.695,4.932,0.829
			c1.027,0.067,2.094,0.14,3.121,0.056c1.389-0.146,2.868-0.651,4.21-1.047c0.481-0.16,1.691-0.501,2.101-0.733
			c1.521-0.732,3.169-1.612,4.641-2.442c0.848-0.489,1.728-0.998,2.503-1.596c0.393-0.309,0.774-0.654,1.041-1.082
			c0.204-0.324,0.321-0.701,0.345-1.083c0.026-0.32-0.009-0.679,0.119-0.981c0.084-0.209,0.25-0.375,0.447-0.482
			c0.281-0.152,0.599-0.226,0.912-0.284c1.665-0.284,3.904-0.052,5.599,0.009c1.701,0.069,3.432-0.006,5.109-0.314
			c0.949-0.178,1.903-0.418,2.778-0.834c1.058-0.512,2.201-1.386,2.294-2.648c0.035-0.359-0.039-0.743-0.032-1.103
			c0.006-0.124,0.028-0.252,0.098-0.356c0.145-0.215,0.428-0.262,0.668-0.284c0.416-0.032,0.847,0.02,1.261,0.061
			c2.228,0.288,4.627,0.499,6.871,0.503c2.112-0.008,4.322,0.018,6.405-0.366c0.485-0.104,0.974-0.249,1.393-0.522
			c0.869-0.551,1.104-1.646,1.371-2.57c0.163-0.538,0.374-1.15,0.908-1.42c0.224-0.115,0.479-0.156,0.728-0.165
			c1.01-0.011,2.02,0.297,2.993,0.539c2.432,0.637,6.345,1.945,8.794,2.194c0.52,0.048,1.052,0.058,1.566-0.042
			c0.729-0.132,1.38-0.517,1.967-0.956c0.575-0.433,1.194-0.865,1.815-1.219c1.116-0.659,2.4-1.292,3.311-2.219
			c0.406-0.415,0.692-0.915,0.774-1.494c0.052-0.336,0.047-0.681,0.019-1.019c-0.013-0.197-0.059-0.435-0.01-0.629
			c0.052-0.208,0.242-0.308,0.434-0.362c0.474-0.12,0.979-0.1,1.465-0.09c1.949,0.082,3.907,0.42,5.803,0.874
			c2.511,0.593,5.99,1.742,8.526,2.158c0.906,0.145,1.841,0.247,2.754,0.112c1.343-0.21,2.716-0.901,3.981-1.382
			c1.129-0.471,2.325-0.978,3.394-1.572c0.494-0.277,0.981-0.59,1.4-0.974c0.386-0.352,0.711-0.781,0.894-1.273
			c0.179-0.445,0.204-0.97,0.384-1.414c0.081-0.196,0.21-0.375,0.385-0.497c0.218-0.154,0.484-0.224,0.744-0.265
			c0.816-0.114,1.651-0.015,2.461,0.106c0.957,0.151,1.934,0.396,2.867,0.658c3.869,1.189,8.622,2.628,12.548,3.598
			c0.848,0.202,1.799,0.49,2.679,0.505c0.548,0.005,1.085-0.138,1.606-0.293l1.43-0.454c0.919-0.292,2.017-0.448,2.947-0.702
			c0.496-0.139,0.989-0.324,1.415-0.618c0.384-0.259,0.69-0.621,0.906-1.028c0.337-0.589,0.554-1.337,1.061-1.81
			c0.353-0.327,0.856-0.388,1.318-0.371c0.722,0.028,1.454,0.194,2.158,0.356c2.867,0.711,5.791,1.654,8.56,2.681
			c1.864,0.663,4.054,1.848,5.948,2.284c1.998,0.447,4.089,0.237,6.053-0.28c1.025-0.265,2.086-0.622,3.083-0.977
			c0.526-0.196,1.106-0.4,1.597-0.677c0.178-0.101,0.352-0.215,0.499-0.358c0.111-0.107,0.201-0.234,0.281-0.365
			c0.032-0.065,0.135-0.219,0.169-0.278c0.039-0.056,0.076-0.113,0.122-0.164c0.055-0.063,0.117-0.12,0.186-0.167
			c0.378-0.251,0.884-0.254,1.323-0.246c0.849,0.035,1.695,0.213,2.518,0.415c4.663,1.233,10.237,3.692,14.81,5.29
			c1.254,0.428,2.549,0.823,3.862,1.014c1.001,0.148,2.026,0.166,3.034,0.089c1.578-0.123,3.164-0.413,4.704-0.775
			c1.055-0.257,2.131-0.536,3.13-0.967c0.309-0.138,0.619-0.294,0.885-0.507c0.193-0.156,0.395-0.354,0.636-0.432
			c0.33-0.11,0.689-0.074,1.028-0.029c0.841,0.129,1.692,0.394,2.505,0.643c1.532,0.486,3.109,1.071,4.595,1.683
			c3.691,1.528,7.306,3.471,10.216,6.245c0.317,0.277,0.66,0.543,1.048,0.714c0.337,0.151,0.705,0.228,1.073,0.251
			c0.613,0.038,1.232-0.049,1.835-0.15c2.273-0.404,4.633-1.213,6.83-1.922c0.622-0.193,1.262-0.359,1.913-0.409
			c0.676-0.055,1.361,0.008,2.025,0.135c0.794,0.151,1.596,0.392,2.364,0.645c3.599,1.189,7.819,3.195,11.328,4.683
			c0.748,0.3,1.529,0.548,2.33,0.656c2.25,0.276,4.683-0.049,6.927,0.295c1.837,0.264,3.644,0.887,5.171,1.956
			c0.766,0.517,1.544,1.231,2.244,1.837c0.417,0.361,0.886,0.669,1.4,0.873c0.7,0.28,1.583,0.46,2.313,0.649
			c1.228,0.29,2.511,0.558,3.768,0.666c0.958,0.075,1.997,0.087,2.946,0.25c1.497,0.235,2.974,0.649,4.373,1.229
			c1.091,0.466,2.335,1.011,3.458,1.358c1.302,0.419,2.69,0.745,4.033,1.016c6.71,1.269,15.211,2.23,21.737,4.146
			c2.156,0.622,4.449,1.421,6.544,2.225c0.825,0.31,2.801,1.111,3.626,1.441c0,0,44.348,18.615,44.348,18.615
			c2.723,1.101,5.606,2.184,8.415,3.014c4.202,1.256,8.721,2.241,13.034,3.049c5.417,0.978,11.007,1.9,16.515,2.039
			c3.167,0.074,6.367-0.244,9.48-0.818c1.78-0.316,4.421-0.923,6.205-1.177c0.48-0.065,0.979-0.118,1.463-0.12
			c0.758-0.009,1.613,0.145,2.095,0.787c0.37,0.483,0.438,1.134,0.322,1.717c-0.132,0.667-0.474,1.274-0.885,1.809
			c-0.637,0.818-1.441,1.506-2.318,2.055c-0.683,0.424-1.427,0.763-2.194,1.002c-1.079,0.34-2.44,0.508-3.557,0.714
			c-1.577,0.269-3.141,0.732-4.637,1.293l-6.473,2.474c-9.428,3.415-19.245,6.192-29.197,7.53
			c-4.655,0.523-9.643,0.981-14.326,1.036c-3.348,0.053-6.924-0.197-10.262-0.518c-0.922,0.614-1.895,1.186-2.94,1.564
			c-1.912,0.686-4.115,0.923-6.12,1.227c-3.207,0.436-6.642,0.947-9.875,0.922c-1.719-0.003-3.433-0.321-5.057-0.877l-1.289-0.442
			c-2.13,0.89-4.571,2.122-6.845,2.523c-1.032,0.187-2.1,0.234-3.138,0.063c-1.049-0.168-2.062-0.568-2.948-1.154
			c-4.028-0.264-8.131,0.202-12.12,0.742l-11.621,1.773l-2.429,3.83c-1.297,1.995-2.752,3.935-4.389,5.662
			c-2.251,2.402-4.92,4.585-7.499,6.63c-2.192,1.694-8.897,6.829-10.926,8.435c-1.602,1.285-4.473,3.654-6.105,4.794
			c-2.489,1.782-5.251,3.26-8.011,4.577c-2.631,1.251-5.431,2.45-8.151,3.493c-1.811,0.679-3.725,1.388-5.599,1.861
			c-1.026,0.237-2.13,0.467-3.167,0.171c-0.378-0.113-0.727-0.319-1.005-0.599c-0.364-0.364-0.609-0.83-0.792-1.307
			c-0.451-1.222-0.601-2.546-0.72-3.836c-0.259-3.341-0.118-6.767,0.108-10.107c0.212-2.904,0.53-5.863,1.331-8.67
			c0.989-3.591,2.945-6.847,5.282-9.721c-7.325,0.648-78.086,7.064-83.072,7.405c-6.179,0.457-12.906,0.533-19.104,0.415
			c-28.526-0.787-61.84-1.64-90.275-0.572c-2.143,1.871-4.491,3.914-6.436,5.982c-1.425,1.453-3.365,3.958-4.662,5.561
			c-1.844,2.247-3.896,4.386-6.032,6.356c-2.291,2.103-4.772,4.078-7.482,5.615c-1.24,0.68-2.538,1.358-3.946,1.597
			c-0.568,0.085-1.207,0.062-1.676-0.309c-0.502-0.397-0.685-1.056-0.768-1.665c-0.085-0.665-0.056-1.346,0.013-2.011
			c0.311-3.077,1.707-6.221,2.481-9.196c0.319-1.226,0.561-2.497,0.644-3.763c0.073-1.035,0.015-2.101-0.081-3.133L295,424.59
			c-0.095-1.125-0.175-2.287,0.089-3.394c-6.543-0.872-16.192-0.589-22.861-0.672c-2.088,0.381-4.129,1.057-6.047,1.963
			c-2.178,1.015-4.232,2.344-5.998,3.978c-1.287,1.181-2.407,2.547-3.401,3.981c-2.039,2.9-4.686,7.928-6.476,11.043
			c-1.314,2.268-2.745,4.56-4.33,6.646c-2.201,2.912-4.735,5.62-7.441,8.066c-3.316,2.996-6.975,5.694-10.757,8.072
			c-2.447,1.498-4.992,2.99-7.733,3.875c-0.893,0.262-1.875,0.51-2.801,0.296c-0.425-0.102-0.823-0.349-1.061-0.721
			c-0.394-0.613-0.381-1.385-0.297-2.083c0.105-0.804,0.337-1.6,0.598-2.366c0.477-1.381,1.107-2.76,1.751-4.071l2.083-4.084
			c1.219-2.445,2.234-5.045,2.581-7.769c0.313-2.397,0.216-4.855-0.045-7.254c-0.443-4.133-1.536-8.342-2.757-12.315
			c-0.257-0.926-0.513-1.884-0.576-2.846c-0.04-0.62,0.01-1.259,0.241-1.841c0.287-0.73,0.832-1.33,1.439-1.813
			c1.125-0.882,2.47-1.449,3.824-1.879c0.86-0.273,2.059-0.548,2.904-0.857c0.221-0.083,0.445-0.177,0.648-0.299
			c0.172-0.105,0.339-0.233,0.445-0.407c0.101-0.164,0.125-0.365,0.104-0.554c-0.05-0.441-0.277-0.857-0.462-1.254
			c-10.372-3.349-21.316-5.867-32.268-5.559c-7.118,0.205-14.197,1.614-21.038,3.53c-4.493,1.214-10.275,3.53-14.701,5.037
			c-2.119,0.714-4.439,1.334-6.618,1.849l-13.136,2.891c-4.794,1.154-9.938,2.336-14.537,4.084c-2.333,0.905-4.906,2.11-7.331,2.723
			c-2.545,0.693-5.212,1.041-7.844,1.145c-1.482,0.053-3.024,0.055-4.5-0.094c-0.635-0.072-1.288-0.154-1.893-0.367
			c-0.306-0.112-0.615-0.271-0.807-0.544c-0.153-0.217-0.202-0.489-0.189-0.751c0.021-0.42,0.155-0.829,0.299-1.221
			c0.892-2.217,2.198-4.417,3.379-6.494c1.946-3.299,3.995-6.666,6.404-9.649c1.475-1.859,3.664-4.081,4.875-6.122
			c0.407-0.698,0.729-1.467,0.809-2.277c0.263-2.625-2.191-4.331-4.058-5.712c-9.534-6.703-19.546-13.591-27.215-22.444
			c-1.721-2.024-5.283-6.317-7.048-8.142c-1.259-1.325-2.642-2.617-4.04-3.793c-3.483-2.93-7.373-5.497-11.278-7.829
			c-3.272-1.933-6.71-3.8-10.197-5.308c-1.607-0.694-3.303-1.312-4.983-1.801c-1.942-0.582-4.836-1.172-6.789-1.725
			c-2.674-0.769-5.307-1.786-7.786-3.051c-0.49-0.258-0.989-0.537-1.438-0.862c-0.224-0.165-0.445-0.345-0.619-0.563
			c-0.108-0.138-0.203-0.3-0.208-0.479c-0.006-0.176,0.097-0.335,0.225-0.449c0.37-0.315,0.855-0.459,1.311-0.6
			c1.24-0.355,2.541-0.494,3.825-0.57c2.103-0.115,4.297-0.031,6.398,0.114c5.159,0.376,10.37,1.221,15.399,2.427
			c4.313,1.036,8.796,2.492,12.995,3.935c13.006,4.751,37.366,13.192,49.803,18.383c3.896,1.648,13.135,5.687,16.927,7.104
			c3.302,1.26,6.862,2.42,10.256,3.406c9.052,2.577,18.453,4.709,27.823,5.679c4.453,0.435,9.007,0.601,13.469,0.198
			c3.336-0.292,6.687-1.002,9.91-1.901c4.219-1.242,11.762-3.275,15.847-4.623C221.296,374.543,224.581,373.249,227.676,371.914z"/>
	</g>
</g>
</svg>
