<?xml version="1.0" encoding="utf-8"?>
<!-- Generator: Adobe Illustrator 26.3.1, SVG Export Plug-In . SVG Version: 6.00 Build 0)  -->
<!DOCTYPE svg PUBLIC "-//W3C//DTD SVG 1.1//EN" "http://www.w3.org/Graphics/SVG/1.1/DTD/svg11.dtd" [
	<!ENTITY ns_flows "http://ns.adobe.com/Flows/1.0/">
	<!ENTITY ns_extend "http://ns.adobe.com/Extensibility/1.0/">
	<!ENTITY ns_ai "http://ns.adobe.com/AdobeIllustrator/10.0/">
	<!ENTITY ns_graphs "http://ns.adobe.com/Graphs/1.0/">
	<!ENTITY ns_vars "http://ns.adobe.com/Variables/1.0/">
	<!ENTITY ns_imrep "http://ns.adobe.com/ImageReplacement/1.0/">
	<!ENTITY ns_sfw "http://ns.adobe.com/SaveForWeb/1.0/">
	<!ENTITY ns_custom "http://ns.adobe.com/GenericCustomNamespace/1.0/">
	<!ENTITY ns_adobe_xpath "http://ns.adobe.com/XPath/1.0/">
]>
<svg version="1.1" xmlns:x="&ns_extend;" xmlns:i="&ns_ai;" xmlns:graph="&ns_graphs;"
	 xmlns="http://www.w3.org/2000/svg" xmlns:xlink="http://www.w3.org/1999/xlink" xmlns:a="http://ns.adobe.com/AdobeSVGViewerExtensions/3.0/"
	 x="0px" y="0px" width="750px" height="750px" viewBox="0 0 750 750" enable-background="new 0 0 750 750" xml:space="preserve">
<metadata>
	<sfw  xmlns="&ns_sfw;">
		<slices></slices>
		<sliceSourceBounds  bottomLeftOrigin="true" height="15102.857" width="5307" x="-2000" y="-6314"></sliceSourceBounds>
	</sfw>
</metadata>
<g id="FILL-BACKGROUND">
	<rect fill="#FFFFFF" width="750" height="750"/>
</g>
<g id="N-DIMENSIONS">
</g>
<g id="N-TEXT">
</g>
<g id="_x32_D_x24_AG-DIAGRAM">
</g>
<g id="_x32_D_x24_AG-DETAILS-DIAGRAM">
</g>
<g id="_x32_D_x24_AG-DETAILS">
	<g id="POLYLINE_00000101063113752109050610000003706973097663559075_">
		<path fill="none" stroke="#FB8604" stroke-width="2" stroke-linecap="round" stroke-linejoin="round" stroke-miterlimit="10" d="
			M345.524,162.987c-1.437,0.398-2.929,0.821-4.205,1.611c-0.695,0.43-1.327,0.987-1.767,1.681
			c-0.409,0.641-0.644,1.378-0.807,2.116c-0.515,2.494-0.433,5.38-1.093,7.847c-0.44,1.795-1.392,3.417-2.445,4.918l-1.956,2.732
			c-1.09,1.576-2.13,3.311-2.303,5.26c-0.129,1.46,0.176,2.925,0.591,4.319c0.987,3.247,2.736,6.545,3.572,9.837
			c0.974,3.676,0.381,7.665,0.844,11.403c0.234,1.967,0.866,3.817,1.809,5.555c2.988,5.599,8.181,10.349,10.279,16.428
			c1.285,3.604,1.741,7.814,3.23,11.349c1.745,4.133,4.558,7.752,7.691,10.928c1.953,2.012,4.609,4.085,6.785,5.86
			c2.069,1.711,4.054,3.599,5.478,5.892c0.917,1.452,1.592,3.061,2.148,4.682c0.85,2.43,1.762,6.222,2.44,8.76
			c0.815,2.957,1.673,5.994,3.275,8.631c0.751,1.224,1.709,2.324,2.762,3.297c2.118,1.975,4.855,3.623,6.881,5.697
			c1.107,1.114,1.993,2.439,2.711,3.831c1.351,2.606,2.497,6.027,3.64,8.745c0.83,1.98,1.781,3.952,2.953,5.752
			c2.988,4.616,7.806,8.715,11.205,13.015c0.998,1.281,1.926,2.651,2.566,4.148c0.482,1.122,0.767,2.328,0.921,3.537
			c0.419,3.295-0.051,6.821,0.82,10.057c0.395,1.532,1.135,2.959,2,4.276c1.932,2.937,4.809,5.923,6.933,8.721
			c1.646,2.161,3.167,4.54,3.704,7.24c0.91,4.419-0.33,9.366-0.626,13.796c-0.126,1.609-0.166,3.279-0.055,4.89
			c0.109,1.576,0.362,3.177,0.679,4.724c0.842,4.192,2.645,9.483,3.595,13.653c0.259,1.178,0.481,2.4,0.558,3.606
			c0.071,1.048-0.002,2.114-0.256,3.134c-0.35,1.457-1.015,2.767-1.572,4.11c-0.419,1.004-0.776,2.048-0.957,3.123
			c-0.195,1.148-0.215,2.335-0.182,3.497c0.153,4.625,1.179,9.506,0.714,14.135c-0.173,1.725-0.661,3.415-1.347,5.004
			c-1.018,2.408-2.826,5.25-3.86,7.653c-1.007,2.229-1.425,4.632-1.71,7.045c-0.382,2.953-0.578,6.334-1.914,9.037
			c-0.46,0.938-1.097,1.786-1.842,2.516c-1.865,1.862-4.932,3.464-7.164,4.854c-1.424,0.89-2.838,1.861-4.016,3.066
			c-2.613,2.644-4.134,6.688-5.78,9.967c-0.785,1.569-1.666,3.13-2.742,4.52c-1.234,1.604-2.728,3.058-4.221,4.422
			c-2.245,2.044-5.27,4.501-7.129,6.876c-0.975,1.228-1.737,2.627-2.393,4.048c-0.797,1.746-1.759,4.126-2.795,5.714
			c-0.606,0.952-1.337,1.833-2.167,2.598c-3.58,3.256-8.563,5.338-12.43,8.208c-1.226,0.896-2.365,1.929-3.385,3.054
			c-1.977,2.147-3.805,5.065-5.5,7.446c-1.594,2.312-4.595,5.61-6.441,7.764c-1.213,1.445-2.403,2.973-3.369,4.595
			c-0.846,1.41-1.517,2.965-2.107,4.499l-1.493,4.019c-0.557,1.439-1.181,2.897-1.968,4.225c-0.643,1.092-1.428,2.127-2.242,3.098
			c-1.98,2.371-4.6,4.805-6.251,7.425c-0.858,1.354-1.478,2.859-1.999,4.37c-0.714,2.083-1.43,4.729-2.374,6.714
			c-0.809,1.764-2.512,4.251-3.546,5.912c-0.876,1.434-1.675,2.95-2.137,4.572c-0.606,2.13-0.638,4.397-0.606,6.597
			c0.055,2.402,0.223,5.745,0.041,8.11c-0.091,1.36-0.31,2.746-0.578,4.082l-1.198,5.444c-0.467,2.339-0.829,4.799-0.267,7.153
			c0.509,2.112,1.685,4.004,2.876,5.796c1.086,1.605,2.456,3.539,3.339,5.239c0.434,0.827,0.799,1.714,1.103,2.597
			c0.657,1.876,1.148,4.138,1.928,5.965c0.463,1.085,1.092,2.129,1.996,2.903c0.907,0.781,2.012,1.298,3.129,1.704
			c2.845,1.014,6.47,1.522,9.355,2.419c2.05,0.611,4.631,1.835,6.629,2.622c1.096,0.422,2.239,0.796,3.406,0.955
			c0.769,0.106,1.557,0.115,2.325-0.004c0.959-0.147,1.885-0.481,2.76-0.893c3.625-1.737,6.805-4.865,10.078-7.151
			c1.08-0.763,2.712-1.785,3.666-2.674c0.496-0.457,0.944-0.978,1.263-1.575c0.489-0.892,0.628-1.928,0.631-2.933
			c-0.002-2.407-0.7-5.277-1.119-7.654c-0.196-1.116-0.371-2.286-0.388-3.419c-0.025-1.094,0.084-2.209,0.256-3.29l0.425-2.524"/>
	</g>
	<g id="POLYLINE_00000152266407206790599640000016471281770135519641_">
		<path fill="none" stroke="#FB8604" stroke-width="2" stroke-linecap="round" stroke-linejoin="round" stroke-miterlimit="10" d="
			M392.959,214.191c0.204,0.271,1.635,2.351,1.864,2.681c1.063,1.526,2.309,2.949,3.751,4.129c2.883,2.388,8.775,5.691,11.989,7.721
			c3.48,2.206,6.996,4.541,9.849,7.538c1.827,1.923,3.341,4.174,4.71,6.44c1.87,3.097,3.765,6.582,6.406,9.081
			c4.03,3.89,9.516,6.487,12.894,11.051c1.331,1.798,2.142,3.926,2.712,6.074c0.748,2.78,1.232,6.301,1.91,9.1
			c0.422,1.739,0.968,3.484,1.838,5.055c1.2,2.204,3.138,4.282,4.737,6.21c1.155,1.411,2.254,2.928,2.871,4.659
			c0.427,1.18,0.592,2.444,0.624,3.694c0.093,5.261-1.714,10.8-1.083,16.065c0.548,4.632,3.43,8.697,5.104,12.953
			c0.541,1.39,0.953,2.85,1.088,4.339c0.235,2.524-0.164,5.074-0.666,7.544l-1.375,6.226c-0.432,2.108-0.702,4.277-0.616,6.431
			c0.089,3.481,1.067,7.196,1.903,10.572"/>
	</g>
</g>
<g id="_x32_D_x24_AG-ANIMALS">
	<g id="POLYLINE_00000132770796609975108490000005426645178261088180_">
		
			<path fill="none" stroke="#FB8604" stroke-width="2.75" stroke-linecap="round" stroke-linejoin="round" stroke-miterlimit="10" d="
			M360.389,145.585c-2.207,3.641-3.951,7.675-4.353,11.95c-0.241,2.442-0.035,4.921,0.421,7.327c0.679,3.534,1.893,6.98,3.44,10.225
			c1.456,3.041,3.254,5.963,5.509,8.48c2.387,2.681,5.309,4.89,8.478,6.566c2.17,1.142,4.483,2.077,6.88,2.61
			c1.553,0.339,3.167,0.517,4.753,0.347c1.241-0.131,2.447-0.522,3.6-0.987c1.448-0.579,3.155-1.433,4.71-1.607
			c0.9-0.114,1.814,0.027,2.678,0.288c1.432,0.426,3.171,1.296,4.549,1.899c1.528,0.665,3.134,1.252,4.809,1.376
			c2.524,0.212,5.279-0.521,7.795-0.614c0.922-0.022,1.885,0.055,2.714,0.491c1.699,0.884,2.578,2.836,4.132,3.88
			c1.231,0.797,2.785,0.574,4.157,0.364c1.428-0.243,3.263-0.614,4.691-0.703c1.271-0.092,2.574-0.084,3.842,0.043
			c1.701,0.18,3.429,0.543,4.935,1.383c0.576,0.327,1.114,0.737,1.54,1.247c0.63,0.741,1.035,1.694,1.447,2.567
			c0.145,0.294,0.295,0.597,0.506,0.85c0.11,0.13,0.243,0.247,0.403,0.31c0.233,0.09,0.491,0.062,0.733,0.028l0.444-0.072
			c0.368-0.058,0.78-0.068,1.093,0.163l0.016,0.011c0.191,0.143,0.337,0.34,0.462,0.542c0.239,0.394,0.415,0.832,0.578,1.262
			c0.598,1.579,1.043,3.466,1.979,4.885c0.274,0.406,0.61,0.783,1.035,1.034c0.492,0.296,1.07,0.415,1.639,0.435
			c0.932,0.029,1.868-0.162,2.776-0.359c1.555-0.346,3.385-0.845,4.977-0.857c1.522-0.024,3.037,0.305,4.465,0.817
			c1.113,0.397,2.213,0.917,3.26,1.464c3.318,1.795,7.756,4.507,11.121,6.172c1.433,0.725,3.009,1.464,4.494,2.078
			c1.627,0.679,4.793,1.794,6.42,2.472c1.93,0.783,3.712,1.752,5.363,3.033c1.893,1.432,4.053,3.327,6.319,4.124
			c2.14,0.776,4.652,0.996,6.756,0.001c0.86-0.414,1.591-1.054,2.243-1.743c1.118-1.2,2.205-2.682,3.376-3.831
			c2.16-2.152,5.081-3.533,7.385-5.508c0.567-0.5,1.105-1.056,1.484-1.715c0.335-0.578,0.542-1.23,0.612-1.894
			c0.1-0.932-0.057-1.88-0.371-2.759c-0.262-0.732-0.632-1.433-1.124-2.038c-0.432-0.532-0.965-0.988-1.569-1.312
			c-0.487-0.264-1.022-0.435-1.565-0.536c-1.326-0.262-3.248-0.167-4.614-0.176c-1.512,0.006-3.046-0.081-4.526-0.406
			c-2.69-0.574-5.259-1.689-7.723-2.89c-3.238-1.601-6.834-3.628-9.99-5.409c-4.047-2.327-8.432-4.922-12.271-7.569
			c-1.462-1.024-2.989-2.127-4.297-3.343c-1.104-1.024-2.098-2.202-2.757-3.564c-0.741-1.499-1.214-3.414-0.26-4.923
			c0.347-0.548,0.832-0.997,1.33-1.406c1.138-0.928,2.476-1.715,3.513-2.763c0.71-0.709,1.228-1.645,1.294-2.658
			c0.027-0.473-0.038-0.987-0.351-1.362c-0.087-0.102-0.194-0.187-0.314-0.248c-0.155-0.078-0.328-0.118-0.5-0.137
			c-0.514-0.049-1.032,0.054-1.534,0.153c-1.042,0.216-2.198,0.543-3.264,0.512c-0.913-0.013-1.818-0.24-2.644-0.626
			c-0.957-0.445-1.822-1.083-2.614-1.774c-1.103-0.969-2.108-2.077-3.03-3.219c-0.97-1.219-1.907-2.529-2.664-3.893
			c-0.648-1.165-1.129-2.446-1.221-3.784c-0.079-1-0.116-2.074-0.532-2.995c-0.643-1.374-1.831-2.453-2.414-3.862
			c-0.145-0.345-0.253-0.708-0.303-1.079c-0.068-0.5-0.04-1.012,0.03-1.51c0.222-1.517,0.842-3.132,1.122-4.638
			c0.212-1.086,0.221-2.25-0.221-3.282c-0.224-0.526-0.569-1.026-1.065-1.326c-0.259-0.157-0.558-0.249-0.862-0.255
			c-0.395-0.009-0.784,0.1-1.15,0.24c-0.834,0.312-1.965,1.037-2.751,1.48c-1.077,0.616-2.202,1.215-3.417,1.503
			c-1.927,0.462-3.967,0.22-5.831-0.402c-1.319-0.443-2.578-1.08-3.713-1.884c-0.989-0.698-1.883-1.543-2.689-2.445
			c-1.528-1.717-4.995-6.475-6.422-8.335c-1.594-2.191-3.222-4.453-4.242-6.978c-0.331-0.84-0.571-1.73-0.619-2.634
			c-0.142-2.483,1.091-4.917,1.671-7.279c0.477-1.808,0.844-3.68,1.025-5.542c0.103-1.128,0.152-2.287,0.005-3.413
			c-0.085-0.584-0.211-1.186-0.527-1.693c-0.145-0.227-0.346-0.434-0.607-0.518c-0.257-0.085-0.537-0.03-0.784,0.067
			c-0.231,0.089-0.449,0.217-0.657,0.351c-0.705,0.456-1.707,1.351-2.365,1.893c-0.757,0.63-1.561,1.235-2.441,1.684
			c-0.519,0.263-1.073,0.479-1.65,0.566c-0.518,0.079-1.067,0.034-1.538-0.208c-0.859-0.448-1.482-1.291-2.184-1.935
			c-0.602-0.585-1.31-1.021-2.089-1.335c-1.747-0.695-3.705-1.139-5.4-1.965c-1.871-0.893-3.586-2.119-5.137-3.489
			c-1.577-1.43-3.11-3.062-4.023-5.005c-0.417-0.907-0.622-1.901-0.723-2.89l-0.228-2.498c-0.178-1.663-0.584-3.317-1.126-4.897
			c-0.422-1.211-0.927-2.413-1.586-3.515c-0.372-0.613-0.795-1.211-1.327-1.697c-0.305-0.275-0.652-0.516-1.046-0.642
			c-0.618-0.208-1.281-0.021-1.831,0.287c-1.296,0.727-2.491,2.167-3.533,3.219c-0.751,0.763-1.61,1.575-2.725,1.692
			c-0.927,0.1-1.848-0.174-2.731-0.426c-1.674-0.494-3.664-1.255-5.395-1.459c-0.458-0.051-0.928-0.068-1.383,0.009
			c-0.627,0.098-1.188,0.44-1.641,0.874c-0.844,0.807-1.509,1.871-2.519,2.493c-1.275,0.809-2.968,1.203-4.323,1.85
			c-0.629,0.298-1.237,0.678-1.7,1.206c-0.205,0.235-0.385,0.499-0.49,0.795c-0.078,0.219-0.109,0.461-0.049,0.689
			c0.053,0.206,0.18,0.388,0.342,0.524l0.02,0.017l0.021,0.017l0.022,0.017c0.308,0.229,0.678,0.362,1.042,0.475
			c2.032,0.568,4.899,0.732,6.971,1.147c0.925,0.179,1.862,0.395,2.728,0.772c0.472,0.21,0.934,0.473,1.291,0.853
			c0.862,0.908,0.813,2.281,0.52,3.418c-0.264,1.03-0.715,2.012-1.23,2.94c-0.326,0.604-0.867,1.381-1.218,1.973
			c-0.436,0.739-0.94,1.949-1.297,2.738c-0.709,1.559-1.607,3.075-2.891,4.231c-0.937,0.853-2.087,1.518-3.349,1.722
			c-1.614,0.279-3.263-0.353-4.796-0.789c-0.442-0.121-0.898-0.248-1.358-0.262c-0.183-0.003-0.373,0.015-0.541,0.093l-0.012,0.006
			l-0.012,0.006l-0.012,0.006l-0.011,0.006l-0.011,0.007l-0.011,0.007l-0.011,0.007l-0.011,0.007
			c-0.206,0.138-0.312,0.376-0.377,0.607c-0.255,0.962-0.028,2.109-0.412,3.038c-0.221,0.527-0.659,0.92-1.098,1.268l-1.396,1.079
			c-1.558,1.233-3.243,2.731-5.01,3.637c-0.419,0.206-0.862,0.389-1.328,0.453c-0.307,0.042-0.623,0.011-0.916-0.089
			c-0.498-0.162-1.013-0.553-1.452-0.834c-0.37-0.24-0.764-0.456-1.186-0.587c-0.651-0.201-1.348-0.247-2.024-0.174
			c-0.725,0.088-1.52,0.313-2.014,0.884c-0.549,0.65-0.349,1.601-0.194,2.364l0.282,1.22c0.132,0.625,0.253,1.277,0.145,1.915
			c-0.072,0.413-0.249,0.804-0.489,1.146c-0.413,0.585-0.991,1.039-1.608,1.393c-0.456,0.254-0.94,0.485-1.457,0.576
			c-0.958,0.164-1.888-0.263-2.747-0.635c-1.744-0.765-3.681-1.859-5.586-2.101c-0.542-0.06-1.114-0.033-1.61,0.212
			c-0.502,0.245-0.895,0.665-1.218,1.112c-0.915,1.267-1.449,2.97-2.579,4.079c-0.89,0.896-2.179,1.438-3.078,2.322
			c-0.711,0.69-1.066,1.663-1.211,2.626c-0.239,1.634,0.021,3.347,0.778,4.819c0.429,0.899,1.137,1.853,1.267,2.854
			c0.05,0.408-0.028,0.823-0.169,1.207c-0.502,1.307-1.703,2.684-2.5,3.828c-1.939,2.711-3.788,5.962-6.31,8.173
			c-1.035,0.901-2.25,1.579-3.491,2.152l-3.025,1.343c-1.736,0.806-3.426,1.789-4.843,3.087c-0.512,0.49-1.047,1.05-1.276,1.734
			c-0.056,0.18-0.084,0.373-0.057,0.561c0.025,0.176,0.099,0.342,0.2,0.487c0.199,0.286,0.481,0.504,0.768,0.695
			c0.988,0.645,2.193,1.054,3.165,1.726c0.377,0.263,0.726,0.58,0.976,0.969c0.221,0.341,0.359,0.732,0.424,1.132
			c0.136,0.864-0.014,1.747-0.193,2.593c-0.99,4.283-3.324,8.72-4.749,12.867c-0.177,0.482-0.393,0.961-0.719,1.363
			c-0.444,0.554-1.036,0.977-1.613,1.383c-1.21,0.857-2.952,1.853-3.941,2.95c-0.176,0.208-0.342,0.44-0.409,0.708l-0.004,0.016
			l-0.003,0.016l-0.003,0.016l-0.003,0.016l-0.002,0.016l-0.002,0.016l-0.002,0.016l-0.001,0.016l-0.001,0.016l-0.001,0.016l0,0.016
			l0,0.016l0,0.013l0,0.013l0.001,0.013l0.001,0.013l0.001,0.013l0.001,0.013l0.001,0.013l0.002,0.013
			c0.032,0.224,0.167,0.417,0.321,0.577c0.67,0.66,1.919,1.153,2.75,1.597c0.634,0.329,1.271,0.699,1.742,1.247
			c0.402,0.458,0.662,1.023,0.841,1.601c0.492,1.756,0.784,3.651,1.001,5.461c0.229,2.144,0.301,4.34-0.048,6.474
			c-0.22,1.373-0.685,2.704-1.329,3.934c-0.971,1.897-2.546,3.859-3.69,5.658c-0.513,0.822-0.991,1.689-1.299,2.611
			c-0.177,0.543-0.303,1.119-0.249,1.692c0.033,0.344,0.144,0.685,0.348,0.966c0.194,0.27,0.466,0.474,0.755,0.634
			c1.288,0.681,3.148,0.89,4.57,1.199c1.424,0.29,2.888,0.618,4.179,1.304c1.762,0.931,3.094,2.513,4.031,4.246
			c0.582,1.07,1.046,2.221,1.431,3.375c0.618,1.838,0.954,3.785,0.89,5.727c-0.033,1.99-0.603,4.185-0.544,6.178
			c0.028,0.615,0.125,1.251,0.446,1.787c0.547,0.898,1.658,1.219,2.61,1.5c1.464,0.401,3.162,0.763,4.444,1.596
			c1.667,1.071,2.81,2.795,3.537,4.609c1.13,2.824,1.28,5.931,0.744,8.905c-0.389,2.378-1.218,4.949-1.66,7.318
			c-0.122,0.7-0.214,1.42-0.178,2.132c0.033,0.597,0.156,1.205,0.46,1.727c0.242,0.42,0.616,0.765,1.063,0.958
			c0.748,0.321,1.593,0.267,2.388,0.225c1.817-0.139,3.805-0.4,5.563,0.179c1.048,0.34,1.987,0.96,2.82,1.672
			c1.185,1.021,2.189,2.252,3.058,3.548c0.615,0.93,1.184,1.918,1.626,2.942c0.23,0.537,0.416,1.102,0.464,1.687
			c0.037,0.423,0.002,0.852-0.069,1.27c-0.226,1.301-0.874,3.146-1.209,4.436c-0.288,1.1-0.573,2.23-0.584,3.372
			c0.002,0.491,0.062,1.004,0.311,1.436c0.207,0.367,0.549,0.647,0.94,0.799c0.46,0.181,0.968,0.206,1.455,0.149
			c0.699-0.083,1.366-0.345,2.001-0.639c1.195-0.528,2.582-1.461,3.84-1.827c0.299-0.085,0.613-0.142,0.925-0.117
			c0.271,0.021,0.535,0.109,0.769,0.246c0.416,0.243,0.74,0.613,1.021,0.998c0.466,0.661,0.891,1.401,1.269,2.116
			c0.337,0.657,0.612,1.355,0.748,2.083c0.134,0.691,0.134,1.405,0.048,2.102c-0.391,2.917-1.756,5.96-2.257,8.856
			c-0.161,0.947-0.274,1.931-0.094,2.883c0.104,0.537,0.335,1.072,0.756,1.436c0.307,0.269,0.694,0.429,1.087,0.527
			c0.753,0.183,1.542,0.178,2.312,0.128c0.955-0.068,1.936-0.235,2.875-0.423c0.562-0.096,1.949-0.453,2.502-0.493
			c0.38-0.042,0.77-0.04,1.144,0.045c0.905,0.206,1.642,0.833,2.286,1.471c0.939,0.96,1.724,2.086,2.272,3.313
			c0.356,0.819,0.618,1.711,0.566,2.612c-0.071,1.308-0.923,2.442-1.623,3.495c-0.349,0.545-0.732,1.147-0.684,1.821
			c0.026,0.429,0.225,0.837,0.519,1.147c0.378,0.408,0.902,0.639,1.428,0.789c0.951,0.274,2.045,0.403,2.895,0.944
			c0.732,0.454,1.172,1.243,1.453,2.036c0.505,1.464,0.617,3.039,0.641,4.577c0.004,1.352-0.053,2.731-0.29,4.064
			c-0.203,1.118-0.559,2.23-1.196,3.18c-0.759,1.162-1.989,1.969-2.9,2.996c-0.369,0.42-0.675,0.931-0.701,1.502
			c-0.042,0.621,0.243,1.253,0.744,1.625c0.287,0.217,0.629,0.349,0.971,0.451c0.608,0.194,1.495,0.311,2.109,0.483
			c0.538,0.142,1.08,0.335,1.522,0.684c0.804,0.64,1.215,1.634,1.531,2.584c0.287,0.894,0.79,2.784,1.035,3.668
			c0.251,0.973,0.442,1.982,0.42,2.991c-0.059,1.988-0.754,3.917-1.691,5.654c-0.551,1.029-1.321,2.12-1.347,3.325
			c-0.018,0.578,0.122,1.153,0.336,1.687c0.28,0.684,0.692,1.324,1.235,1.829c0.36,0.332,0.789,0.605,1.268,0.72
			c0.995,0.235,2.078-0.117,3.059-0.291c0.488-0.089,0.991-0.155,1.488-0.123c0.42,0.026,0.836,0.118,1.232,0.261
			c1.64,0.607,2.893,1.939,3.873,3.346c0.783,1.141,1.424,2.396,1.944,3.677c0.469,1.176,0.859,2.407,1.055,3.66
			c0.071,0.459,0.106,0.934,0.097,1.398c-0.004,0.511-0.078,1.106-0.093,1.617c-0.012,0.4,0.024,0.808,0.155,1.188
			c0.308,0.905,1.014,1.681,1.91,2.027c0.458,0.177,0.952,0.247,1.44,0.277c0.837,0.063,2.421-0.042,3.267-0.056
			c2.641-0.043,5.324,0.215,7.864,0.961c0.929,0.298,1.936,0.666,2.621,1.388c0.318,0.339,0.529,0.777,0.58,1.24
			c0.088,0.769-0.179,1.525-0.436,2.238c-0.485,1.318-1.183,2.746-1.155,4.175c0.016,0.986,0.356,1.969,0.97,2.742
			c0.389,0.501,0.908,0.884,1.451,1.204c0.717,0.426,1.56,0.837,2.101,1.484c0.564,0.676,0.788,1.576,0.809,2.442
			c0.025,1.208-0.365,2.396-1.179,3.298c-0.975,1.103-2.339,1.932-3.362,2.986c-0.863,0.867-1.505,1.951-1.86,3.121
			c-0.239,0.807-0.364,1.686-0.15,2.512c0.187,0.741,0.732,1.28,1.371,1.662c1.006,0.598,2.273,0.987,3.324,1.498
			c1.197,0.582,2.738,1.417,2.771,2.925c0.018,1.033-0.674,1.92-1.451,2.533c-1.804,1.389-4.142,2.234-6.054,3.455
			c-0.89,0.576-1.892,1.322-1.993,2.462c-0.055,0.592,0.177,1.181,0.551,1.633c0.608,0.724,1.483,1.158,2.32,1.562
			c0.556,0.262,1.677,0.74,2.189,1.055c0.533,0.313,1.023,0.749,1.251,1.336c0.22,0.558,0.268,1.184,0.148,1.771
			c-0.099,0.475-0.343,0.936-0.744,1.222c-0.516,0.362-1.163,0.461-1.775,0.532c-1.289,0.141-2.723,0.032-3.989,0.339
			c-0.816,0.204-1.589,0.668-2.054,1.381c-0.263,0.401-0.435,0.87-0.453,1.352c-0.017,0.414,0.095,0.831,0.317,1.18
			c0.204,0.323,0.49,0.586,0.788,0.82c1.11,0.861,2.576,1.445,3.577,2.449c0.413,0.411,0.742,0.913,0.909,1.474
			c0.224,0.767,0.231,1.62-0.069,2.367c-0.124,0.3-0.315,0.576-0.576,0.772c-0.345,0.264-0.771,0.398-1.192,0.481
			c-0.373,0.073-0.77,0.107-1.15,0.132c-1.145,0.059-2.637,0.111-3.766,0.25c-1.627,0.197-3.254,0.552-4.811,1.062
			c-1.091,0.364-2.175,0.811-3.142,1.439c-0.687,0.452-1.336,1.017-1.709,1.762c-0.432,0.857-0.518,1.941-0.04,2.796
			c0.26,0.467,0.701,0.747,1.203,0.901c0.586,0.19,1.599,0.3,2.218,0.398c1.624,0.254,3.246,0.768,4.614,1.696
			c0.551,0.391,1.096,0.883,1.301,1.548c0.108,0.357,0.072,0.742-0.04,1.093c-0.197,0.615-0.574,1.158-0.964,1.667
			c-0.428,0.557-1.037,1.215-1.48,1.762c-0.243,0.29-0.533,0.69-0.808,0.945c-0.242,0.233-0.533,0.418-0.854,0.521
			c-0.315,0.105-0.652,0.143-0.982,0.163c-1.662,0.094-3.644-0.255-5.28,0.117c-0.388,0.095-0.767,0.263-1.059,0.541
			c-0.365,0.337-0.568,0.85-0.49,1.345c0.074,0.517,0.427,0.934,0.763,1.311l0.596,0.644c0.346,0.385,0.68,0.8,0.873,1.285
			c0.152,0.378,0.199,0.791,0.176,1.195c-0.051,0.83-0.365,1.63-0.804,2.33c-0.485,0.764-1.15,1.433-1.97,1.829
			c-1.106,0.542-2.379,0.61-3.588,0.494c-1.652-0.15-3.392-0.755-5.043-0.912c-1.527-0.149-3.092,0.036-4.539,0.546
			c-1.461,0.514-2.858,1.467-3.52,2.908c-0.286,0.62-0.428,1.35-0.202,2.011c0.227,0.684,0.852,1.12,1.461,1.446
			c1.185,0.629,2.659,1.036,3.827,1.698c0.625,0.351,1.179,0.823,1.443,1.507c0.393,1,0.154,2.134-0.309,3.07
			c-0.68,1.358-1.907,2.465-3.369,2.908c-0.808,0.245-1.671,0.223-2.502,0.137l-1.998-0.24c-1.556-0.164-3.159-0.05-4.654,0.427
			c-0.697,0.233-1.404,0.548-1.917,1.091c-0.233,0.251-0.418,0.559-0.478,0.9c-0.059,0.317,0.008,0.65,0.172,0.926
			c0.158,0.267,0.384,0.489,0.618,0.69c0.623,0.516,1.545,1.083,2.187,1.576c0.513,0.395,0.995,0.862,1.285,1.449
			c0.28,0.551,0.365,1.196,0.235,1.801c-0.161,0.77-0.603,1.453-1.122,2.033c-1.127,1.237-2.672,2.089-4.313,2.405
			c-2.378,0.428-4.882-0.245-7.233-0.593c-0.863-0.124-1.749-0.227-2.62-0.135c-0.731,0.074-1.449,0.288-2.103,0.623
			c-0.981,0.505-1.834,1.236-2.607,2.015c-0.391,0.41-0.769,0.852-1.011,1.368c-0.122,0.266-0.205,0.562-0.167,0.856
			c0.072,0.533,0.534,0.89,0.943,1.183c1.135,0.787,2.606,1.355,3.456,2.488c0.882,1.179,0.959,2.799,0.491,4.16
			c-0.229,0.675-0.599,1.309-1.107,1.812c-0.437,0.437-0.974,0.771-1.552,0.987c-0.747,0.284-1.556,0.367-2.351,0.365
			c-1.368,0.001-3.137-0.255-4.505-0.368c-0.983-0.078-1.994-0.139-2.97,0.025c-0.648,0.107-1.288,0.357-1.771,0.814
			c-0.37,0.343-0.648,0.788-0.781,1.276c-0.149,0.537-0.11,1.131,0.145,1.63c0.218,0.429,0.565,0.778,0.929,1.087
			c0.877,0.736,2.078,1.385,2.916,2.168c0.276,0.257,0.527,0.548,0.715,0.875c0.229,0.394,0.376,0.837,0.428,1.29
			c0.096,0.829-0.129,1.726-0.732,2.324c-0.675,0.667-1.641,0.915-2.552,1.063c-3.624,0.493-7.665-0.106-11.309,0.024
			c-1.238,0.053-2.52,0.245-3.591,0.907c-0.781,0.476-1.406,1.179-1.882,1.953c-0.441,0.727-0.778,1.539-0.867,2.39
			c-0.051,0.517,0.005,1.065,0.277,1.517c0.401,0.655,1.118,1.025,1.806,1.312c0.954,0.392,2.492,0.8,3.477,1.135
			c0.83,0.282,1.654,0.629,2.415,1.065c0.623,0.364,1.235,0.788,1.683,1.361c0.236,0.307,0.421,0.671,0.439,1.064
			c0.022,0.689-0.386,1.303-0.751,1.856c-0.365,0.531-0.87,1.204-1.163,1.769c-0.277,0.518-0.502,1.232-0.71,1.785
			c-0.206,0.542-0.483,1.093-0.974,1.428c-0.259,0.18-0.556,0.302-0.856,0.397c-1.008,0.311-2.365,0.389-3.415,0.521
			c-0.969,0.117-1.952,0.303-2.838,0.727c-0.522,0.249-1.016,0.582-1.387,1.029c-0.501,0.594-0.777,1.464-0.444,2.203
			c0.273,0.596,0.854,0.968,1.387,1.31l1.35,0.806c0.773,0.474,1.517,1.052,1.996,1.834c0.335,0.539,0.516,1.192,0.403,1.825
			c-0.161,0.875-0.735,1.616-1.378,2.204c-0.539,0.479-1.166,0.88-1.86,1.087c-0.738,0.222-1.599,0.175-2.361,0.245
			c-0.493,0.044-0.985,0.147-1.447,0.327c-0.598,0.233-1.15,0.584-1.668,0.96c-1.171,0.865-2.217,1.915-3.164,3.019
			c-0.835,1-1.65,2.061-2.194,3.252c-0.22,0.512-0.412,1.125-0.157,1.658c0.14,0.29,0.398,0.503,0.671,0.664
			c0.672,0.385,1.442,0.575,2.19,0.753c0.944,0.231,2.044,0.349,2.955,0.691c0.314,0.125,0.613,0.3,0.85,0.543
			c0.32,0.325,0.515,0.752,0.643,1.184c0.197,0.682,0.239,1.403,0.195,2.109c-0.13,1.919-0.946,3.805-2.307,5.171
			c-0.901,0.927-2.182,1.489-3.32,2.065c-0.632,0.323-1.261,0.688-1.769,1.19c-0.62,0.601-1.083,1.378-1.256,2.228
			c-0.089,0.44-0.111,0.909,0.027,1.341c0.106,0.337,0.333,0.635,0.641,0.81c0.25,0.145,0.536,0.216,0.819,0.265
			c1.442,0.227,3.1-0.059,4.516,0.349c0.354,0.107,0.695,0.288,0.937,0.573c0.418,0.484,0.549,1.145,0.578,1.768
			c0.029,0.707-0.071,1.419-0.225,2.108c-0.147,0.653-0.353,1.303-0.685,1.887c-0.42,0.749-1.028,1.376-1.659,1.95
			c-0.532,0.494-2.379,2.013-2.955,2.504c-1.136,0.992-2.284,2.034-3.113,3.305c-0.393,0.619-0.724,1.305-0.815,2.039
			c-0.034,0.298-0.021,0.61,0.09,0.891c0.083,0.212,0.228,0.399,0.415,0.529c0.442,0.296,1.02,0.328,1.537,0.338
			c1.785,0.003,3.678-0.508,5.462-0.503c0.33,0.008,0.665,0.047,0.977,0.16c0.569,0.196,0.958,0.659,1.277,1.148
			c0.484,0.747,0.962,1.521,1.278,2.356c0.301,0.79,0.45,1.68,0.192,2.503c-0.154,0.496-0.434,0.946-0.745,1.358
			c-0.645,0.883-1.868,1.98-2.633,2.775c-0.757,0.779-1.504,1.607-1.997,2.584c-0.706,1.416-0.877,3.069-0.616,4.62
			c0.079,0.432,0.185,0.869,0.379,1.266c0.117,0.236,0.291,0.453,0.532,0.569c0.222,0.11,0.474,0.137,0.719,0.137
			c1.337-0.034,3.186-0.7,4.487-1.03c0.858-0.225,1.75-0.429,2.642-0.358c0.546,0.042,1.084,0.201,1.561,0.473
			c0.553,0.313,1.02,0.76,1.43,1.241c0.681,0.809,1.223,1.736,1.652,2.7c0.463,1.06,0.812,2.193,0.884,3.352
			c0.023,0.42,0.006,0.848-0.086,1.26c-0.089,0.402-0.248,0.788-0.445,1.149c-0.387,0.743-1.05,1.442-1.241,2.27
			c-0.078,0.352-0.038,0.722,0.072,1.063c0.208,0.634,0.641,1.238,1.251,1.535c0.693,0.344,1.443-0.032,2.068-0.355
			c0.733-0.387,1.497-0.833,2.324-0.97c0.539-0.091,1.094-0.033,1.621,0.104c0.991,0.263,1.905,0.776,2.716,1.396
			c0.653,0.513,1.28,1.103,1.681,1.839c0.189,0.351,0.306,0.739,0.358,1.134c0.098,0.644,0.04,1.987,0.055,2.644
			c0.022,1.85,0.307,3.902,1.758,5.203c0.383,0.337,0.868,0.611,1.392,0.599c0.32-0.005,0.623-0.138,0.881-0.319
			c0.738-0.528,1.359-1.437,1.932-2.138c0.657-0.812,1.347-1.67,2.292-2.155c0.744-0.377,1.615-0.449,2.428-0.298
			c1.083,0.2,2.091,0.744,2.907,1.477c0.524,0.472,0.957,1.042,1.334,1.636c0.97,1.527,1.688,3.398,3.261,4.424
			c0.943,0.639,2.042,1.05,3.17,1.205c0.634,0.079,1.309,0.096,1.905-0.167c0.456-0.2,0.812-0.575,1.068-0.996
			c0.401-0.645,0.71-1.5,1.041-2.184c0.366-0.76,0.793-1.575,1.562-1.993c0.426-0.235,0.916-0.334,1.399-0.349
			c1.874-0.037,3.829,0.935,5.56,1.555c0.718,0.259,1.462,0.516,2.22,0.623c0.511,0.073,1.045,0.058,1.532-0.126
			c0.379-0.14,0.722-0.379,0.982-0.688c0.284-0.331,0.462-0.74,0.573-1.159c0.193-0.719,0.265-1.501,0.597-2.175
			c0.175-0.364,0.442-0.681,0.764-0.923c0.486-0.369,1.059-0.609,1.635-0.798c2.438-0.768,5.521-0.828,8.065-1.054
			c0.986-0.105,2.011-0.195,2.935-0.575c0.357-0.154,0.714-0.376,0.904-0.727c0.113-0.209,0.157-0.45,0.162-0.686
			c0.007-0.549-0.144-1.103-0.281-1.632c-0.298-1.095-0.626-2.231-0.56-3.376c0.061-1.586,0.76-3.175,2.044-4.143
			c1.409-1.068,3.397-1.343,5.076-1.76c0.642-0.161,1.306-0.327,1.889-0.648c0.31-0.171,0.591-0.413,0.746-0.737
			c0.321-0.671,0.142-1.469-0.196-2.099c-0.313-0.583-0.829-1.04-1.17-1.604c-0.561-0.899-0.504-2.019-0.376-3.031
			c0.208-1.435,0.651-2.85,1.32-4.138c0.571-1.134,1.569-2.203,2.028-3.359c0.215-0.565,0.31-1.186,0.227-1.788
			c-0.051-0.351-0.172-0.703-0.412-0.971c-0.424-0.469-1.156-0.518-1.736-0.658c-0.349-0.079-0.704-0.177-1.009-0.37
			c-0.198-0.124-0.365-0.292-0.495-0.485c-0.305-0.456-0.443-1.001-0.534-1.535c-0.172-1.081-0.145-2.202-0.096-3.292
			c0.039-1.097,0.252-2.607,0.078-3.683c-0.05-0.285-0.136-0.57-0.29-0.817c-0.154-0.254-0.385-0.452-0.64-0.601
			c-0.728-0.417-1.63-0.624-2.35-1.058c-0.334-0.196-0.64-0.445-0.882-0.749c-0.617-0.779-0.92-1.757-1.191-2.7
			c-0.173-0.646-0.428-1.67-0.665-2.279c-0.145-0.362-0.326-0.724-0.617-0.991c-0.327-0.304-0.728-0.375-1.158-0.388
			c-0.757-0.014-1.551,0.021-2.281-0.2c-0.788-0.228-1.484-0.695-2.138-1.178c-1.392-1.046-2.815-2.451-4.207-3.498
			c-0.561-0.418-1.153-0.814-1.802-1.082c-0.575-0.239-1.195-0.377-1.818-0.39c-0.586-0.014-1.173,0.081-1.734,0.245
			c-0.643,0.184-1.319,0.5-1.953,0.713c-0.471,0.16-0.962,0.275-1.457,0.32c-1.79,0.134-3.666-0.363-5.456-0.308
			c-0.619,0.02-1.258,0.094-1.815,0.381c-0.506,0.26-0.899,0.691-1.229,1.145c-0.566,0.789-1.086,1.754-1.785,2.435
			c-0.971,0.956-2.373,1.485-3.594,2.047c-0.666,0.316-1.389,0.623-1.91,1.162c-0.261,0.273-0.405,0.636-0.464,1.004
			c-0.088,0.544-0.072,1.207-0.17,1.75c-0.072,0.443-0.217,0.876-0.428,1.273c-0.838,1.562-2.276,2.856-3.203,4.359
			c-0.171,0.29-0.328,0.597-0.398,0.929c-0.174,0.76,0.399,1.391,0.798,1.973c0.285,0.41,0.533,0.864,0.606,1.364
			c0.048,0.315,0.042,0.639,0.014,0.955c-0.083,0.926-0.444,2.178-0.647,3.093c-0.136,0.662-0.291,1.359-0.147,2.032
			c0.104,0.464,0.409,0.85,0.754,1.165c0.334,0.308,0.797,0.656,1.116,0.978c0.239,0.237,0.446,0.508,0.626,0.792
			c0.538,0.846,0.969,1.951,1.59,2.743c0.856,1.149,2.327,1.527,3.668,1.779l2.298,0.397c1.197,0.219,2.511,0.515,3.722,0.576
			c0.678,0.038,1.368-0.001,2.041-0.09c1.384-0.189,2.793-0.562,4.141-0.927c0.794-0.231,1.594-0.506,2.292-0.959
			c0.452-0.294,0.856-0.674,1.135-1.139c0.455-0.766,0.615-1.675,0.63-2.556c0.003-0.63-0.061-1.274-0.278-1.869
			c-0.099-0.265-0.245-0.525-0.478-0.694c-0.185-0.137-0.411-0.206-0.637-0.24c-0.475-0.068-0.969-0.022-1.446,0.015
			c-1.409,0.128-3.062,0.375-4.466,0.242c-0.569-0.053-1.144-0.166-1.664-0.41c-1.063-0.487-1.8-1.493-2.166-2.581
			c-0.293-0.856-0.399-1.772-0.364-2.674c0.04-0.963,0.246-1.93,0.659-2.804c0.413-0.878,1.066-1.665,1.928-2.129
			c0.649-0.352,1.384-0.526,2.117-0.586c1.081-0.085,2.179,0.065,3.213,0.382c1.173,0.362,2.296,0.958,3.167,1.834
			c1.13,1.124,1.794,2.623,2.246,4.13c0.377,1.28,0.659,2.621,0.857,3.939c0.204,1.417,0.296,2.872,0.135,4.298
			c-0.174,1.586-0.702,3.169-1.726,4.412c-0.806,0.984-1.863,1.737-2.98,2.329c-1.648,0.865-3.458,1.412-5.281,1.76
			c-1.799,0.337-3.648,0.481-5.477,0.417c-1.791-0.065-3.595-0.339-5.285-0.948c-2.167-0.766-4.098-2.137-5.609-3.862
			c-2.225-2.539-3.712-5.648-4.88-8.792c-2.136-5.944-3.19-12.325-2.936-18.642c0.219-5.573,1.498-11.087,3.121-16.406
			c1.196-3.88,2.666-7.755,4.556-11.352c1.286-2.482,2.861-4.865,4.535-7.102c2.514-3.397,6.147-7.576,7.824-11.448l1.229-2.812
			c0.413-0.896,0.867-1.798,1.522-2.544c0.324-0.372,0.71-0.691,1.123-0.958c1.55-0.988,3.487-1.486,4.786-2.844
			c1.632-1.722,2.485-4.145,3.958-5.991c0.735-0.96,1.66-1.686,2.714-2.264c1.74-0.986,3.898-1.672,5.363-3.078
			c0.633-0.608,1.11-1.364,1.524-2.134c0.918-1.692,1.625-3.81,3.137-5.082c0.634-0.529,1.399-0.881,2.172-1.159
			c1.838-0.667,3.947-0.949,5.644-1.966c1.716-1.019,2.506-2.977,3.168-4.767c0.597-1.602,1.133-3.506,2.35-4.763
			c0.842-0.9,1.961-1.489,3.114-1.888c1.777-0.618,3.789-0.887,5.373-1.965c1.268-0.832,1.974-2.221,2.575-3.568
			c0.839-1.888,1.601-4.101,3.022-5.628c0.644-0.693,1.447-1.224,2.282-1.66c1.32-0.691,2.956-1.25,4.304-1.884
			c0.807-0.382,1.603-0.827,2.26-1.438c1.148-1.069,1.729-2.581,2.221-4.036c0.515-1.535,0.997-3.307,1.829-4.695
			c0.692-1.167,1.634-2.173,2.672-3.039c1.123-0.937,2.388-1.742,3.652-2.476c1.287-0.747,3.206-1.735,4.358-2.657
			c0.596-0.472,1.148-1.022,1.543-1.677c0.326-0.534,0.526-1.137,0.661-1.744c0.301-1.375,0.374-3.105,0.672-4.481
			c0.211-1.033,0.559-2.046,1.081-2.964c2.124-3.688,5.843-6.362,7.929-10.077c1.238-2.195,1.587-5.011,2.065-7.453
			c0.269-1.335,0.624-2.674,1.175-3.921c0.925-2.098,2.279-4.022,3.64-5.858l4.364-5.7c1.558-2.091,3.021-4.323,4.227-6.634
			c1.553-2.949,2.811-6.099,3.83-9.27c3.434-10.742,4.799-23.68,7.021-34.736c0.904-4.965,2.905-11.926,4.285-16.844
			c0.639-2.416,1.246-4.951,1.531-7.434c0.238-1.943,0.215-3.929,0.043-5.876c-0.188-2.303-0.603-4.945-0.498-7.255
			c0.046-0.982,0.2-1.971,0.524-2.9c0.468-1.363,1.236-2.61,2.046-3.794l2.424-3.399c3.614-5.038,5.645-11.053,6.781-17.104
			c0.725-3.981,1.046-8.081,0.82-12.123c-0.192-3.486-0.834-6.974-1.753-10.339c-1.339-4.939-3.415-9.949-5.445-14.651
			c-3.463-7.784-7.395-17.366-11.61-24.707c-1.187-2.075-2.528-4.15-3.955-6.07c-1.925-2.64-5.36-6.584-7.356-9.178
			c-1.925-2.426-5.017-7.227-6.759-9.819c-1.75-2.559-3.612-5.154-5.848-7.315c-1.951-1.907-4.521-3.578-6.737-5.155
			c-1.154-0.834-2.31-1.726-3.304-2.746c-0.922-0.94-1.715-2.025-2.444-3.118c-1.274-1.928-2.765-4.465-4.24-6.22
			c-1.035-1.268-2.234-2.411-3.524-3.417c-3.281-2.587-7.632-4.859-11.11-7.18c-0.919-0.625-1.852-1.3-2.659-2.066
			c-0.652-0.617-1.237-1.316-1.71-2.079c-0.513-0.82-0.902-1.723-1.229-2.631c-0.889-2.614-1.728-5.404-2.401-8.082"/>
	</g>
</g>
<g id="_x32_D_x24_AG-OUTLINE">
	<g id="POLYLINE_00000032619606921714755730000011283991552016330377_">
		
			<path fill="none" stroke="#FB8604" stroke-width="3.5" stroke-linecap="round" stroke-linejoin="round" stroke-miterlimit="10" d="
			M404.847,193.927c0.673,2.678,1.512,5.467,2.401,8.082c0.327,0.909,0.716,1.811,1.229,2.631c0.474,0.763,1.058,1.461,1.71,2.079
			c0.807,0.766,1.739,1.441,2.659,2.066c3.482,2.323,7.825,4.59,11.11,7.18c1.29,1.005,2.489,2.149,3.524,3.417
			c1.473,1.751,2.975,4.302,4.24,6.22c0.729,1.093,1.522,2.179,2.444,3.118c0.993,1.019,2.152,1.914,3.304,2.746
			c1.79,1.28,4.113,2.815,5.743,4.249c1.043,0.897,2.018,1.908,2.91,2.954c3.991,4.695,7.463,11.159,11.355,15.935
			c2.85,3.561,6.661,7.899,9.054,11.763c2.777,4.377,5.131,9.285,7.304,13.993c2.894,6.65,6.903,15.2,9.382,21.92
			c1.829,4.987,3.251,10.202,3.654,15.514c0.434,5.806-0.235,11.704-1.729,17.323c-1.219,4.543-3.054,8.978-5.811,12.811
			l-2.424,3.399c-0.827,1.209-1.609,2.482-2.074,3.878c-0.326,0.964-0.468,1.988-0.504,3.002c-0.077,2.397,0.369,5.109,0.541,7.503
			c0.143,1.805,0.141,3.645-0.077,5.444c-0.285,2.482-0.893,5.019-1.531,7.434c-1.386,4.939-3.375,11.855-4.285,16.844
			c-2.224,11.063-3.584,23.98-7.021,34.736c-1.018,3.171-2.277,6.322-3.83,9.27c-1.205,2.308-2.671,4.548-4.227,6.634l-4.364,5.7
			c-1.361,1.837-2.715,3.76-3.64,5.858c-0.551,1.248-0.907,2.587-1.175,3.921c-0.478,2.455-0.829,5.257-2.065,7.453
			c-2.086,3.714-5.805,6.389-7.929,10.077c-0.523,0.918-0.871,1.931-1.081,2.964c-0.296,1.374-0.372,3.107-0.672,4.481
			c-0.135,0.608-0.335,1.211-0.661,1.744c-0.395,0.655-0.946,1.204-1.543,1.677c-1.145,0.918-3.074,1.913-4.358,2.657
			c-1.263,0.735-2.529,1.539-3.652,2.476c-1.038,0.866-1.98,1.872-2.672,3.039c-0.831,1.386-1.317,3.167-1.829,4.695
			c-0.492,1.455-1.074,2.967-2.221,4.036c-0.657,0.611-1.453,1.056-2.26,1.438c-1.402,0.66-3.082,1.224-4.446,1.96
			c-0.828,0.445-1.619,0.992-2.245,1.699c-1.351,1.51-2.102,3.686-2.917,5.513c-0.418,0.926-0.868,1.865-1.532,2.643
			c-0.348,0.406-0.764,0.754-1.216,1.039c-1.554,0.982-3.487,1.255-5.2,1.851c-1.154,0.399-2.273,0.988-3.114,1.888
			c-1.217,1.256-1.75,3.159-2.35,4.763c-0.662,1.79-1.452,3.748-3.168,4.767c-1.696,1.017-3.806,1.299-5.644,1.966
			c-0.773,0.278-1.537,0.63-2.172,1.159c-1.511,1.27-2.22,3.391-3.137,5.082c-0.413,0.769-0.89,1.526-1.524,2.134
			c-1.465,1.405-3.625,2.093-5.363,3.078c-1.054,0.578-1.979,1.304-2.714,2.264c-1.473,1.847-2.325,4.268-3.958,5.991
			c-1.299,1.358-3.237,1.856-4.786,2.844c-0.413,0.267-0.8,0.587-1.123,0.959c-0.654,0.746-1.109,1.648-1.522,2.544l-1.229,2.812
			c-1.669,3.858-5.321,8.068-7.824,11.448c-1.674,2.24-3.249,4.619-4.535,7.102c-1.89,3.597-3.361,7.471-4.556,11.352
			c-1.622,5.319-2.902,10.832-3.121,16.406c-0.254,6.317,0.8,12.697,2.936,18.642c1.168,3.144,2.655,6.253,4.88,8.792
			c1.511,1.725,3.442,3.096,5.609,3.862c1.69,0.609,3.494,0.883,5.285,0.948c1.922,0.067,3.864-0.094,5.749-0.47
			c1.769-0.359,3.525-0.909,5.119-1.766c1.076-0.583,2.092-1.319,2.871-2.271c1.023-1.243,1.551-2.826,1.726-4.412
			c0.161-1.426,0.069-2.881-0.135-4.298c-0.199-1.319-0.48-2.66-0.857-3.939c-0.452-1.507-1.115-3.006-2.246-4.13
			c-0.871-0.876-1.993-1.471-3.167-1.834c-1.054-0.323-2.174-0.473-3.274-0.377c-0.712,0.065-1.424,0.239-2.056,0.581
			c-0.862,0.464-1.515,1.251-1.928,2.129c-0.413,0.874-0.619,1.84-0.659,2.804c-0.035,0.902,0.071,1.818,0.364,2.674
			c0.366,1.088,1.103,2.094,2.166,2.581c0.486,0.228,1.02,0.342,1.551,0.399c1.442,0.158,3.135-0.097,4.579-0.23
			c0.477-0.037,0.97-0.083,1.446-0.015c0.225,0.034,0.452,0.103,0.637,0.24c0.24,0.174,0.387,0.445,0.487,0.719
			c0.208,0.589,0.271,1.222,0.268,1.844c-0.015,0.881-0.175,1.79-0.63,2.556c-0.279,0.464-0.683,0.845-1.135,1.139
			c-0.697,0.453-1.497,0.729-2.292,0.959c-1.348,0.365-2.756,0.739-4.141,0.927c-0.673,0.089-1.363,0.128-2.041,0.09
			c-1.209-0.06-2.53-0.356-3.722-0.576l-2.298-0.397c-1.374-0.258-2.851-0.641-3.711-1.835c-0.593-0.778-1.023-1.864-1.547-2.687
			c-0.18-0.284-0.387-0.556-0.626-0.792c-0.319-0.322-0.782-0.67-1.116-0.978c-0.345-0.315-0.65-0.701-0.754-1.165
			c-0.144-0.673,0.011-1.37,0.147-2.032c0.205-0.916,0.564-2.162,0.647-3.093c0.028-0.317,0.034-0.64-0.014-0.955
			c-0.073-0.5-0.321-0.954-0.606-1.364c-0.398-0.582-0.972-1.212-0.798-1.973c0.078-0.364,0.257-0.7,0.45-1.015
			c0.928-1.461,2.329-2.743,3.151-4.273c0.211-0.397,0.356-0.829,0.428-1.273c0.096-0.542,0.083-1.206,0.17-1.75
			c0.059-0.369,0.203-0.732,0.464-1.004c0.521-0.538,1.243-0.846,1.91-1.162c1.225-0.562,2.621-1.09,3.594-2.047
			c0.698-0.681,1.219-1.648,1.785-2.435c0.331-0.454,0.724-0.885,1.229-1.145c0.557-0.286,1.197-0.361,1.815-0.381
			c1.791-0.055,3.666,0.442,5.456,0.308c0.495-0.046,0.986-0.161,1.457-0.32c0.634-0.213,1.31-0.528,1.953-0.713
			c0.583-0.171,1.193-0.266,1.801-0.243c0.6,0.021,1.197,0.157,1.751,0.388c0.738,0.305,1.403,0.774,2.033,1.259
			c1.291,1.003,2.669,2.339,3.976,3.321c0.671,0.496,1.386,0.975,2.2,1.195c0.741,0.214,1.547,0.161,2.308,0.187
			c0.219,0.013,0.442,0.04,0.647,0.12c0.155,0.06,0.299,0.152,0.421,0.264c0.241,0.221,0.408,0.512,0.54,0.808
			c0.31,0.68,0.533,1.744,0.742,2.463c0.275,0.955,0.581,1.947,1.216,2.73c0.237,0.291,0.534,0.53,0.857,0.719
			c0.72,0.434,1.622,0.641,2.35,1.058c0.255,0.149,0.486,0.346,0.64,0.601c0.153,0.248,0.24,0.532,0.29,0.817
			c0.175,1.072-0.037,2.595-0.078,3.683c-0.049,1.091-0.076,2.211,0.096,3.292c0.091,0.534,0.23,1.08,0.534,1.535
			c0.13,0.193,0.297,0.362,0.495,0.485c0.305,0.193,0.66,0.292,1.009,0.37c0.591,0.151,1.343,0.186,1.762,0.688
			c0.243,0.288,0.356,0.662,0.398,1.031c0.063,0.594-0.04,1.201-0.261,1.754c-0.475,1.142-1.442,2.184-2.006,3.302
			c-0.668,1.288-1.111,2.703-1.32,4.138c-0.13,1.025-0.185,2.164,0.399,3.067c0.349,0.558,0.863,1.017,1.167,1.604
			c0.323,0.622,0.491,1.405,0.176,2.062c-0.154,0.324-0.436,0.566-0.746,0.737c-0.583,0.321-1.247,0.486-1.889,0.648
			c-1.681,0.416-3.665,0.692-5.076,1.76c-1.283,0.968-1.983,2.557-2.044,4.143c-0.065,1.144,0.262,2.283,0.56,3.376
			c0.135,0.518,0.282,1.063,0.281,1.601c-0.003,0.246-0.044,0.498-0.163,0.717c-0.19,0.351-0.547,0.573-0.904,0.727
			c-0.924,0.379-1.95,0.471-2.935,0.575c-2.555,0.229-5.62,0.285-8.065,1.054c-0.576,0.189-1.149,0.429-1.635,0.798
			c-0.33,0.248-0.601,0.574-0.776,0.948c-0.33,0.685-0.397,1.476-0.599,2.201c-0.113,0.415-0.299,0.817-0.587,1.14
			c-0.257,0.293-0.589,0.52-0.954,0.655c-0.487,0.183-1.021,0.198-1.532,0.126c-0.758-0.107-1.503-0.364-2.22-0.623
			c-1.761-0.633-3.727-1.612-5.627-1.552c-0.461,0.021-0.925,0.122-1.332,0.346c-0.769,0.418-1.196,1.232-1.562,1.993
			c-0.344,0.706-0.653,1.576-1.075,2.238c-0.255,0.404-0.607,0.76-1.052,0.95c-0.592,0.255-1.26,0.238-1.888,0.16
			c-1.156-0.16-2.282-0.586-3.241-1.254c-1.529-1.032-2.234-2.873-3.191-4.375c-0.377-0.594-0.81-1.164-1.334-1.636
			c-0.816-0.734-1.823-1.277-2.907-1.477c-0.814-0.151-1.684-0.079-2.428,0.298c-0.945,0.485-1.636,1.344-2.292,2.155
			c-0.572,0.7-1.193,1.608-1.932,2.138c-0.272,0.192-0.595,0.328-0.933,0.32c-0.505-0.006-0.969-0.273-1.34-0.599
			c-1.45-1.3-1.737-3.353-1.758-5.203c-0.007-0.666,0.034-2.007-0.055-2.644c-0.052-0.394-0.169-0.783-0.358-1.134
			c-0.402-0.736-1.028-1.325-1.681-1.839c-0.811-0.62-1.725-1.133-2.716-1.396c-0.526-0.137-1.082-0.195-1.621-0.104
			c-0.827,0.136-1.591,0.584-2.324,0.97c-0.625,0.323-1.375,0.699-2.068,0.355c-0.609-0.296-1.043-0.901-1.251-1.535
			c-0.112-0.35-0.151-0.731-0.065-1.091c0.204-0.832,0.885-1.546,1.268-2.305c0.194-0.365,0.347-0.757,0.428-1.164
			c0.09-0.454,0.095-0.923,0.055-1.383c-0.101-1.089-0.433-2.152-0.87-3.151c-0.429-0.964-0.971-1.892-1.652-2.7
			c-0.41-0.481-0.877-0.928-1.43-1.241c-0.476-0.272-1.014-0.431-1.561-0.473c-0.892-0.071-1.784,0.133-2.642,0.358
			c-0.9,0.234-2.674,0.786-3.567,0.933c-0.311,0.055-0.63,0.099-0.946,0.097c-0.236-0.002-0.478-0.031-0.692-0.137
			c-0.241-0.116-0.415-0.333-0.532-0.569c-0.194-0.397-0.3-0.834-0.379-1.266c-0.262-1.551-0.09-3.204,0.616-4.62
			c0.493-0.977,1.24-1.805,1.997-2.584c0.689-0.729,1.877-1.798,2.481-2.579c0.374-0.467,0.718-0.978,0.897-1.553
			c0.258-0.823,0.109-1.712-0.192-2.503c-0.317-0.835-0.794-1.609-1.278-2.356c-0.319-0.489-0.709-0.952-1.277-1.148
			c-0.343-0.125-0.713-0.159-1.076-0.162c-1.787,0.017-3.683,0.527-5.473,0.503c-0.488-0.018-1.012-0.058-1.428-0.337
			c-0.191-0.132-0.338-0.323-0.42-0.54c-0.107-0.279-0.119-0.586-0.086-0.88c0.098-0.778,0.46-1.499,0.886-2.147
			c0.825-1.221,1.938-2.234,3.042-3.197c0.702-0.594,2.489-2.062,3.129-2.664c0.566-0.529,1.105-1.11,1.485-1.79
			c0.332-0.584,0.538-1.234,0.685-1.887c0.153-0.689,0.253-1.401,0.225-2.108c-0.029-0.628-0.163-1.295-0.589-1.78
			c-0.242-0.278-0.578-0.454-0.927-0.56c-1.415-0.408-3.074-0.122-4.516-0.349c-0.283-0.048-0.569-0.119-0.819-0.265
			c-0.314-0.178-0.544-0.484-0.647-0.829c-0.132-0.427-0.109-0.888-0.022-1.323c0.173-0.85,0.635-1.627,1.256-2.228
			c0.508-0.502,1.137-0.867,1.769-1.19c1.141-0.582,2.418-1.136,3.32-2.065c1.343-1.349,2.155-3.204,2.302-5.098
			c0.052-0.73,0.013-1.477-0.19-2.182c-0.128-0.432-0.323-0.859-0.643-1.184c-0.237-0.243-0.536-0.418-0.85-0.542
			c-0.911-0.342-2.013-0.46-2.955-0.691c-0.756-0.181-1.536-0.371-2.213-0.767c-0.264-0.159-0.512-0.369-0.648-0.651
			c-0.263-0.55-0.053-1.181,0.178-1.705c0.546-1.17,1.348-2.217,2.173-3.204c0.981-1.142,2.065-2.228,3.288-3.109
			c0.481-0.34,0.993-0.656,1.544-0.87c0.462-0.181,0.954-0.283,1.447-0.327c0.762-0.069,1.622-0.023,2.361-0.245
			c0.694-0.208,1.322-0.608,1.86-1.087c0.643-0.588,1.217-1.329,1.378-2.204c0.112-0.632-0.069-1.286-0.403-1.825
			c-0.48-0.783-1.223-1.36-1.996-1.834l-1.35-0.806c-0.533-0.342-1.114-0.714-1.387-1.31c-0.333-0.739-0.056-1.609,0.444-2.203
			c0.372-0.447,0.866-0.781,1.387-1.029c0.885-0.423,1.869-0.61,2.838-0.727c1.086-0.138,2.453-0.209,3.49-0.545
			c0.284-0.094,0.564-0.217,0.809-0.392c0.475-0.337,0.745-0.878,0.947-1.409c0.208-0.554,0.432-1.265,0.71-1.785
			c0.292-0.563,0.802-1.242,1.163-1.769c0.367-0.556,0.779-1.175,0.75-1.869c-0.021-0.388-0.205-0.747-0.438-1.05
			c-0.469-0.598-1.114-1.036-1.768-1.409c-0.736-0.413-1.531-0.745-2.33-1.017c-0.982-0.34-2.52-0.737-3.477-1.135
			c-0.705-0.294-1.445-0.678-1.835-1.364c-0.247-0.443-0.296-0.968-0.247-1.466c0.089-0.851,0.426-1.663,0.867-2.39
			c0.477-0.774,1.102-1.477,1.882-1.953c1.132-0.699,2.491-0.873,3.797-0.915c2.5-0.056,5.731,0.201,8.233,0.175
			c1.001-0.014,2.03-0.048,3.017-0.216c0.862-0.152,1.767-0.407,2.405-1.039c0.603-0.598,0.828-1.496,0.732-2.324
			c-0.051-0.453-0.198-0.896-0.428-1.29c-0.189-0.328-0.44-0.618-0.715-0.875c-0.838-0.781-2.039-1.433-2.916-2.168
			c-0.364-0.308-0.711-0.658-0.929-1.087c-0.26-0.508-0.295-1.115-0.137-1.66c0.139-0.487,0.423-0.929,0.798-1.269
			c0.513-0.474,1.194-0.715,1.877-0.812c1.147-0.164,2.342-0.05,3.491,0.057c1.243,0.117,2.913,0.343,4.149,0.304
			c0.82-0.018,1.653-0.153,2.4-0.506c0.492-0.23,0.942-0.553,1.313-0.95c0.454-0.484,0.789-1.076,1.002-1.704
			c0.468-1.361,0.391-2.981-0.491-4.16c-0.849-1.133-2.322-1.702-3.456-2.488c-0.409-0.294-0.872-0.65-0.943-1.183
			c-0.037-0.285,0.04-0.572,0.155-0.831c0.221-0.485,0.567-0.905,0.928-1.293c0.795-0.821,1.681-1.587,2.702-2.115
			c0.654-0.335,1.372-0.549,2.103-0.623c0.87-0.091,1.758,0.011,2.62,0.135c2.311,0.344,4.771,0.996,7.113,0.614
			c1.687-0.295,3.279-1.16,4.434-2.427c0.53-0.594,0.982-1.295,1.132-2.087c0.114-0.589,0.026-1.212-0.246-1.747
			c-0.719-1.414-2.376-2.066-3.521-3.068c-0.215-0.189-0.421-0.399-0.568-0.647c-0.159-0.266-0.227-0.587-0.178-0.894
			c0.053-0.353,0.243-0.674,0.483-0.933c0.534-0.564,1.273-0.883,2-1.118c1.471-0.453,3.043-0.562,4.57-0.4l1.998,0.24
			c0.832,0.086,1.694,0.109,2.502-0.137c1.462-0.443,2.689-1.55,3.369-2.908c0.467-0.944,0.706-2.094,0.296-3.1
			c-0.266-0.668-0.818-1.133-1.431-1.477c-1.168-0.662-2.642-1.07-3.827-1.698c-0.618-0.329-1.254-0.776-1.471-1.475
			c-0.216-0.666-0.065-1.395,0.227-2.014c0.669-1.425,2.054-2.365,3.505-2.875c1.447-0.51,3.012-0.696,4.539-0.546
			c1.651,0.157,3.391,0.762,5.043,0.912c1.195,0.115,2.453,0.049,3.551-0.476c0.836-0.395,1.516-1.072,2.007-1.847
			c0.439-0.7,0.753-1.5,0.804-2.33c0.024-0.415-0.027-0.84-0.188-1.225c-0.194-0.473-0.521-0.879-0.861-1.256l-0.596-0.644
			c-0.336-0.377-0.689-0.794-0.763-1.311c-0.078-0.504,0.131-1.021,0.506-1.359c0.29-0.27,0.663-0.433,1.044-0.527
			c1.635-0.372,3.62-0.023,5.28-0.117c0.33-0.02,0.667-0.058,0.982-0.163c0.321-0.104,0.612-0.288,0.854-0.521
			c0.274-0.253,0.569-0.656,0.808-0.945c0.444-0.547,1.051-1.205,1.48-1.762c0.396-0.518,0.781-1.071,0.974-1.7
			c0.103-0.341,0.134-0.714,0.029-1.059c-0.205-0.665-0.75-1.157-1.301-1.548c-1.369-0.927-2.991-1.441-4.614-1.696
			c-0.613-0.103-1.63-0.202-2.218-0.398c-0.5-0.155-0.944-0.433-1.203-0.901c-0.472-0.845-0.393-1.915,0.025-2.765
			c0.371-0.76,1.028-1.335,1.724-1.793c0.967-0.629,2.051-1.075,3.142-1.439c1.557-0.51,3.184-0.865,4.811-1.062
			c1.512-0.209,3.443-0.146,4.868-0.373c0.431-0.081,0.867-0.212,1.223-0.478c0.262-0.193,0.457-0.466,0.584-0.764
			c0.31-0.751,0.304-1.614,0.078-2.388c-0.167-0.56-0.496-1.063-0.909-1.474c-1-1.003-2.467-1.588-3.577-2.449
			c-0.298-0.234-0.584-0.498-0.788-0.82c-0.223-0.349-0.334-0.767-0.317-1.18c0.018-0.481,0.19-0.951,0.453-1.352
			c0.466-0.712,1.239-1.177,2.054-1.381c1.266-0.307,2.701-0.198,3.989-0.339c0.613-0.071,1.259-0.17,1.775-0.532
			c0.407-0.291,0.653-0.762,0.749-1.246c0.116-0.592,0.063-1.223-0.167-1.782c-0.233-0.571-0.715-0.995-1.237-1.301
			c-0.506-0.315-1.64-0.794-2.189-1.055c-0.852-0.412-1.746-0.854-2.353-1.603c-0.356-0.445-0.572-1.018-0.518-1.592
			c0.087-1.039,0.949-1.764,1.758-2.308c1.969-1.315,4.406-2.16,6.289-3.609c0.777-0.612,1.469-1.5,1.451-2.533
			c-0.007-0.635-0.317-1.204-0.767-1.639c-0.572-0.557-1.29-0.944-2.004-1.287c-1.072-0.522-2.359-0.91-3.38-1.532
			c-0.616-0.378-1.135-0.911-1.316-1.628c-0.214-0.827-0.089-1.705,0.15-2.512c0.356-1.169,0.998-2.254,1.86-3.121
			c1.024-1.054,2.387-1.883,3.362-2.986c0.814-0.901,1.204-2.091,1.179-3.298c-0.021-0.866-0.245-1.766-0.809-2.442
			c-0.535-0.653-1.391-1.055-2.101-1.484c-0.562-0.33-1.097-0.73-1.491-1.255c-0.59-0.765-0.914-1.726-0.93-2.691
			c-0.028-1.427,0.67-2.861,1.155-4.175c0.257-0.713,0.524-1.469,0.436-2.238c-0.051-0.463-0.262-0.902-0.58-1.24
			c-0.296-0.32-0.666-0.564-1.051-0.765c-0.539-0.28-1.122-0.488-1.703-0.663c-2.502-0.711-5.136-0.965-7.731-0.921
			c-0.815,0.027-2.399,0.102-3.184,0.061c-0.515-0.028-1.038-0.095-1.523-0.282c-0.883-0.34-1.58-1.098-1.896-1.985
			c-0.142-0.393-0.183-0.815-0.17-1.23c0.015-0.511,0.088-1.107,0.093-1.617c0.009-0.465-0.026-0.939-0.097-1.398
			c-0.195-1.253-0.586-2.484-1.055-3.66c-0.52-1.281-1.16-2.536-1.944-3.677c-0.972-1.395-2.211-2.715-3.831-3.33
			c-0.395-0.146-0.811-0.243-1.231-0.273c-0.46-0.035-0.926,0.016-1.38,0.094c-1.023,0.168-2.136,0.554-3.176,0.326
			c-0.48-0.108-0.912-0.375-1.273-0.703c-0.557-0.508-0.978-1.159-1.263-1.854c-0.219-0.544-0.359-1.13-0.335-1.719
			c0.037-1.191,0.797-2.278,1.346-3.293c0.925-1.713,1.612-3.615,1.689-5.575c0.033-1.035-0.16-2.071-0.419-3.07
			c-0.2-0.728-0.766-2.812-0.983-3.507c-0.327-1.015-0.744-2.093-1.612-2.767c-0.436-0.335-0.966-0.522-1.493-0.661
			c-0.613-0.169-1.503-0.299-2.109-0.483c-0.362-0.109-0.726-0.25-1.022-0.491c-0.472-0.376-0.733-0.985-0.694-1.585
			c0.024-0.525,0.284-1.002,0.613-1.398c0.918-1.084,2.203-1.898,2.987-3.1c0.637-0.95,0.993-2.062,1.196-3.18
			c0.237-1.333,0.294-2.712,0.29-4.064c-0.024-1.538-0.137-3.114-0.641-4.577c-0.281-0.792-0.72-1.582-1.453-2.036
			c-0.849-0.541-1.943-0.67-2.895-0.944c-0.527-0.149-1.05-0.381-1.428-0.789c-0.294-0.31-0.492-0.717-0.519-1.147
			c-0.048-0.674,0.334-1.276,0.684-1.821c0.709-1.071,1.577-2.221,1.626-3.554c0.038-0.929-0.247-1.843-0.626-2.681
			c-0.546-1.177-1.308-2.259-2.215-3.186c-0.644-0.638-1.381-1.265-2.286-1.471c-0.374-0.085-0.764-0.087-1.144-0.045
			c-0.541,0.05-1.949,0.383-2.502,0.493c-0.939,0.189-1.92,0.354-2.875,0.423c-0.753,0.05-1.525,0.055-2.264-0.116
			c-0.403-0.096-0.803-0.254-1.12-0.527c-0.429-0.364-0.665-0.905-0.77-1.448c-0.18-0.952-0.067-1.936,0.094-2.883
			c0.501-2.897,1.867-5.938,2.257-8.856c0.086-0.696,0.086-1.411-0.048-2.102c-0.136-0.728-0.411-1.426-0.748-2.083
			c-0.389-0.732-0.82-1.488-1.303-2.163c-0.273-0.367-0.588-0.718-0.987-0.951c-0.242-0.141-0.515-0.23-0.795-0.248
			c-0.303-0.019-0.608,0.037-0.899,0.119c-1.252,0.373-2.652,1.288-3.84,1.827c-0.655,0.303-1.345,0.572-2.067,0.646
			c-0.466,0.047-0.95,0.017-1.389-0.156c-0.391-0.151-0.734-0.432-0.94-0.799c-0.258-0.449-0.314-0.984-0.31-1.493
			c0.021-1.123,0.299-2.234,0.583-3.315c0.34-1.279,0.974-3.134,1.209-4.436c0.071-0.418,0.106-0.847,0.069-1.27
			c-0.044-0.536-0.205-1.058-0.409-1.554c-0.275-0.665-0.619-1.322-0.978-1.944c-0.953-1.624-2.1-3.166-3.492-4.441
			c-0.866-0.784-1.848-1.477-2.958-1.866c-1.794-0.642-3.839-0.359-5.695-0.223c-0.795,0.043-1.64,0.096-2.388-0.224
			c-0.446-0.193-0.82-0.537-1.063-0.958c-0.304-0.521-0.428-1.129-0.46-1.727c-0.036-0.712,0.056-1.431,0.178-2.132
			c0.442-2.369,1.27-4.939,1.66-7.318c0.537-2.975,0.386-6.08-0.744-8.905c-0.727-1.814-1.87-3.539-3.537-4.609
			c-1.275-0.84-2.989-1.19-4.444-1.596c-0.95-0.28-2.064-0.603-2.61-1.5c-0.34-0.568-0.429-1.246-0.449-1.897
			c-0.032-1.952,0.514-4.119,0.548-6.068c0.064-1.942-0.272-3.889-0.89-5.727c-0.385-1.155-0.849-2.305-1.431-3.375
			c-0.937-1.733-2.27-3.315-4.031-4.246c-1.291-0.686-2.755-1.014-4.179-1.304c-1.421-0.308-3.28-0.517-4.57-1.199
			c-0.293-0.163-0.57-0.371-0.765-0.648c-0.199-0.278-0.306-0.614-0.339-0.952c-0.057-0.604,0.085-1.209,0.278-1.777
			c0.342-0.983,0.869-1.904,1.43-2.777c1.143-1.744,2.673-3.687,3.604-5.552c0.637-1.245,1.082-2.594,1.285-3.979
			c0.313-2.074,0.241-4.204,0.018-6.284c-0.214-1.798-0.503-3.645-0.981-5.394c-0.18-0.602-0.443-1.192-0.861-1.668
			c-0.471-0.547-1.107-0.919-1.742-1.247c-0.833-0.445-2.081-0.938-2.75-1.597c-0.154-0.159-0.288-0.353-0.321-0.577l-0.002-0.013
			l-0.001-0.013l-0.001-0.013l-0.001-0.013l-0.001-0.013l-0.001-0.013l0-0.013l0-0.013l0-0.016l0-0.016l0.001-0.016l0.001-0.016
			l0.001-0.016l0.002-0.016l0.002-0.016l0.002-0.016l0.003-0.016l0.003-0.016l0.003-0.016l0.004-0.016
			c0.067-0.268,0.233-0.5,0.409-0.708c0.985-1.094,2.738-2.098,3.941-2.95c0.577-0.407,1.169-0.829,1.613-1.383
			c0.326-0.401,0.542-0.881,0.719-1.363c1.446-4.219,3.827-8.697,4.79-13.064c0.156-0.784,0.278-1.6,0.151-2.396
			c-0.064-0.4-0.203-0.791-0.424-1.132c-0.261-0.408-0.631-0.736-1.029-1.006c-0.98-0.662-2.185-1.07-3.168-1.727
			c-0.273-0.188-0.541-0.402-0.727-0.68c-0.099-0.148-0.169-0.318-0.189-0.496c-0.023-0.203,0.016-0.409,0.084-0.6
			c0.264-0.693,0.804-1.243,1.336-1.742c1.401-1.258,3.056-2.221,4.759-3.01l3.025-1.343c1.241-0.573,2.456-1.252,3.491-2.152
			c2.52-2.207,4.374-5.466,6.31-8.173c0.804-1.154,1.998-2.522,2.5-3.828c0.141-0.383,0.219-0.798,0.169-1.207
			c-0.13-1.001-0.838-1.955-1.267-2.854c-0.757-1.471-1.018-3.184-0.778-4.819c0.148-0.988,0.521-1.985,1.265-2.679
			c0.872-0.831,2.1-1.37,2.964-2.211c1.148-1.086,1.69-2.784,2.583-4.057c0.327-0.467,0.722-0.91,1.236-1.173
			c0.504-0.263,1.094-0.294,1.649-0.232c1.264,0.154,2.463,0.682,3.619,1.193c1.054,0.456,2.635,1.328,3.762,1.534
			c0.552,0.105,1.11,0.027,1.626-0.187c0.913-0.377,1.784-0.94,2.372-1.746c0.257-0.358,0.445-0.77,0.514-1.207
			c0.097-0.627-0.02-1.267-0.151-1.881l-0.282-1.22c-0.155-0.762-0.355-1.714,0.194-2.364c0.494-0.57,1.289-0.796,2.014-0.884
			c0.676-0.073,1.373-0.027,2.024,0.174c0.422,0.131,0.816,0.348,1.186,0.587c0.441,0.283,0.952,0.671,1.452,0.834
			c0.293,0.1,0.609,0.131,0.916,0.089c0.466-0.064,0.909-0.247,1.328-0.453c1.763-0.904,3.457-2.407,5.01-3.637l1.396-1.079
			c0.439-0.348,0.878-0.741,1.098-1.268c0.387-0.935,0.153-2.094,0.419-3.061c0.065-0.223,0.172-0.451,0.37-0.584l0.011-0.007
			l0.011-0.007l0.011-0.007l0.011-0.007l0.011-0.006l0.012-0.006l0.012-0.006l0.012-0.006c0.168-0.079,0.358-0.097,0.541-0.093
			c0.46,0.014,0.916,0.141,1.358,0.262c1.534,0.436,3.181,1.068,4.796,0.789c1.263-0.204,2.412-0.869,3.349-1.722
			c1.284-1.155,2.182-2.672,2.891-4.231c0.36-0.803,0.858-1.997,1.297-2.738c0.352-0.594,0.891-1.369,1.218-1.973
			c0.515-0.928,0.966-1.909,1.23-2.94c0.294-1.135,0.341-2.511-0.52-3.418c-0.356-0.38-0.819-0.643-1.291-0.853
			c-0.866-0.377-1.804-0.593-2.728-0.772c-2.074-0.415-4.935-0.577-6.971-1.146c-0.364-0.113-0.734-0.246-1.042-0.475l-0.022-0.017
			l-0.021-0.017l-0.02-0.017c-0.167-0.14-0.298-0.329-0.347-0.544c-0.053-0.222-0.021-0.456,0.054-0.669
			c0.105-0.295,0.285-0.56,0.49-0.795c0.462-0.528,1.07-0.907,1.7-1.206c1.355-0.648,3.048-1.041,4.323-1.85
			c0.988-0.609,1.65-1.643,2.466-2.443c0.465-0.457,1.042-0.823,1.695-0.925c0.456-0.077,0.926-0.06,1.383-0.009
			c1.626,0.188,3.569,0.905,5.141,1.383c0.956,0.279,1.95,0.602,2.957,0.506c1.126-0.107,1.996-0.925,2.753-1.695
			c1.054-1.064,2.255-2.519,3.579-3.245c0.539-0.293,1.185-0.464,1.784-0.262c0.416,0.134,0.78,0.395,1.097,0.69
			c0.507,0.477,0.915,1.056,1.275,1.649c0.726,1.216,1.269,2.55,1.713,3.893c0.476,1.462,0.835,2.989,0.999,4.519l0.228,2.498
			c0.102,0.99,0.305,1.982,0.723,2.89c0.379,0.835,0.902,1.608,1.468,2.327c0.845,1.069,1.831,2.055,2.861,2.946
			c1.542,1.318,3.238,2.498,5.088,3.34c1.651,0.769,3.556,1.196,5.239,1.887c0.738,0.306,1.42,0.738,1.994,1.295
			c0.704,0.645,1.326,1.488,2.184,1.935c0.482,0.248,1.043,0.289,1.571,0.203c0.566-0.09,1.108-0.303,1.617-0.561
			c0.879-0.448,1.684-1.054,2.441-1.684c0.661-0.541,1.654-1.435,2.365-1.893c0.208-0.133,0.426-0.262,0.657-0.351
			c0.234-0.092,0.496-0.147,0.743-0.079c0.266,0.072,0.475,0.271,0.625,0.495c0.333,0.513,0.462,1.131,0.549,1.728
			c0.148,1.126,0.098,2.284-0.005,3.413c-0.181,1.861-0.549,3.734-1.025,5.542c-0.579,2.364-1.812,4.796-1.671,7.279
			c0.048,0.905,0.288,1.794,0.619,2.634c0.893,2.228,2.282,4.249,3.669,6.195c1.654,2.188,5.217,7.088,6.995,9.118
			c0.806,0.902,1.7,1.747,2.689,2.445c1.136,0.803,2.395,1.441,3.713,1.884c1.863,0.622,3.904,0.864,5.831,0.402
			c1.214-0.288,2.341-0.886,3.417-1.503c0.78-0.448,1.917-1.159,2.751-1.48c0.366-0.14,0.755-0.249,1.15-0.24
			c0.303,0.006,0.603,0.098,0.862,0.255c0.496,0.301,0.841,0.8,1.065,1.326c0.441,1.032,0.434,2.196,0.221,3.282
			c-0.279,1.508-0.901,3.119-1.122,4.638c-0.071,0.498-0.098,1.011-0.03,1.51c0.05,0.371,0.158,0.735,0.303,1.079
			c0.588,1.427,1.81,2.522,2.439,3.92c0.402,0.917,0.421,1.958,0.507,2.937c0.093,1.339,0.573,2.619,1.221,3.784
			c0.757,1.363,1.693,2.673,2.664,3.893c0.922,1.142,1.926,2.25,3.03,3.219c0.815,0.711,1.705,1.365,2.694,1.811
			c0.803,0.364,1.681,0.577,2.564,0.589c1.064,0.032,2.227-0.294,3.264-0.512c0.531-0.103,1.079-0.216,1.621-0.142
			c0.293,0.041,0.573,0.169,0.755,0.408c0.313,0.408,0.36,0.953,0.313,1.449c-0.109,1.059-0.684,1.981-1.447,2.699
			c-1.065,1.017-2.406,1.8-3.528,2.749c-0.451,0.387-0.886,0.813-1.194,1.326c-0.935,1.572-0.389,3.519,0.394,5.039
			c0.656,1.286,1.611,2.402,2.665,3.379c1.618,1.497,3.523,2.818,5.346,4.058c4.355,2.91,9.267,5.765,13.839,8.33
			c2.61,1.439,5.598,3.103,8.283,4.371c2.242,1.052,4.579,2.002,7.014,2.493c1.414,0.294,2.881,0.369,4.323,0.365
			c1.393,0.006,3.356-0.089,4.724,0.198c1.223,0.233,2.306,0.904,3.073,1.886c0.485,0.612,0.848,1.319,1.103,2.056
			c0.295,0.857,0.44,1.777,0.343,2.681c-0.073,0.694-0.296,1.374-0.657,1.971c-0.457,0.757-1.112,1.376-1.789,1.934
			c-2.238,1.805-4.985,3.173-7.034,5.211c-1.202,1.181-2.304,2.7-3.463,3.922c-0.628,0.653-1.334,1.256-2.155,1.651
			c-2.103,0.995-4.617,0.774-6.756-0.001c-2.262-0.799-4.422-2.685-6.319-4.124c-1.651-1.281-3.431-2.249-5.363-3.033
			c-1.617-0.674-4.803-1.797-6.42-2.472c-1.486-0.615-3.059-1.353-4.494-2.078c-3.354-1.66-7.808-4.38-11.121-6.173
			c-1.048-0.547-2.147-1.066-3.26-1.464c-1.428-0.511-2.943-0.841-4.465-0.817c-1.588,0.011-3.426,0.511-4.977,0.857
			c-0.929,0.201-1.887,0.398-2.842,0.356c-0.547-0.026-1.1-0.148-1.573-0.432c-0.464-0.274-0.821-0.697-1.109-1.147
			c-0.879-1.394-1.328-3.24-1.905-4.772c-0.162-0.43-0.339-0.868-0.578-1.262c-0.125-0.202-0.27-0.398-0.462-0.542l-0.016-0.011
			c-0.314-0.231-0.726-0.22-1.093-0.163l-0.444,0.072c-0.242,0.035-0.5,0.062-0.733-0.028c-0.16-0.063-0.293-0.18-0.403-0.31
			c-0.211-0.252-0.361-0.556-0.506-0.85c-0.413-0.875-0.817-1.826-1.447-2.567c-0.426-0.51-0.964-0.92-1.54-1.247
			c-1.506-0.84-3.234-1.203-4.935-1.383c-1.268-0.127-2.571-0.135-3.842-0.043c-1.423,0.088-3.276,0.46-4.691,0.703
			c-1.279,0.195-2.687,0.404-3.887-0.206c-0.675-0.354-1.205-0.928-1.704-1.492c-0.722-0.821-1.495-1.823-2.436-2.396
			c-1.321-0.823-2.964-0.68-4.446-0.529C409.847,193.824,407.19,194.364,404.847,193.927z"/>
	</g>
</g>
</svg>
