<?xml version="1.0" encoding="utf-8"?>
<!-- Generator: Adobe Illustrator 26.3.1, SVG Export Plug-In . SVG Version: 6.00 Build 0)  -->
<!DOCTYPE svg PUBLIC "-//W3C//DTD SVG 1.1//EN" "http://www.w3.org/Graphics/SVG/1.1/DTD/svg11.dtd" [
	<!ENTITY ns_flows "http://ns.adobe.com/Flows/1.0/">
	<!ENTITY ns_extend "http://ns.adobe.com/Extensibility/1.0/">
	<!ENTITY ns_ai "http://ns.adobe.com/AdobeIllustrator/10.0/">
	<!ENTITY ns_graphs "http://ns.adobe.com/Graphs/1.0/">
	<!ENTITY ns_vars "http://ns.adobe.com/Variables/1.0/">
	<!ENTITY ns_imrep "http://ns.adobe.com/ImageReplacement/1.0/">
	<!ENTITY ns_sfw "http://ns.adobe.com/SaveForWeb/1.0/">
	<!ENTITY ns_custom "http://ns.adobe.com/GenericCustomNamespace/1.0/">
	<!ENTITY ns_adobe_xpath "http://ns.adobe.com/XPath/1.0/">
]>
<svg version="1.1" xmlns:x="&ns_extend;" xmlns:i="&ns_ai;" xmlns:graph="&ns_graphs;"
	 xmlns="http://www.w3.org/2000/svg" xmlns:xlink="http://www.w3.org/1999/xlink" xmlns:a="http://ns.adobe.com/AdobeSVGViewerExtensions/3.0/"
	 x="0px" y="0px" width="750px" height="750px" viewBox="0 0 750 750" enable-background="new 0 0 750 750" xml:space="preserve">
<metadata>
	<sfw  xmlns="&ns_sfw;">
		<slices></slices>
		<sliceSourceBounds  bottomLeftOrigin="true" height="15102.857" width="5307" x="-2000" y="-6314"></sliceSourceBounds>
	</sfw>
</metadata>
<g id="FILL-BACKGROUND">
	<rect fill="#FFFFFF" width="750" height="750"/>
</g>
<g id="N-DIMENSIONS">
</g>
<g id="N-TEXT">
</g>
<g id="_x32_D_x24_AG-DIAGRAM">
</g>
<g id="_x32_D_x24_AG-DETAILS-DIAGRAM">
</g>
<g id="_x32_D_x24_AG-DETAILS">
	<g id="POLYLINE_00000179627370028006880360000016930448767803757730_">
		<path fill="none" stroke="#FB8604" stroke-width="2" stroke-linecap="round" stroke-linejoin="round" stroke-miterlimit="10" d="
			M588.706,328.639c-0.352,1.726-0.799,4.623-1.179,6.329c-0.433,1.979-1.266,4.765-1.694,6.747
			c-0.339,1.577-0.614,3.202-0.569,4.82c0.03,0.953,0.181,1.919,0.572,2.795c1.378,3.041,4.966,4.07,8.026,4.436
			c1.88,0.217,3.814,0.217,5.701,0.082c1.744-0.133,3.517-0.385,5.211-0.826c0.832-0.219,1.669-0.488,2.451-0.85
			c0.484-0.226,0.958-0.492,1.37-0.835c0.463-0.381,0.832-0.878,1.05-1.438c0.342-0.868,0.381-1.837,0.432-2.759
			c0.036-1.108,0.103-2.381,0.228-3.478c0.172-1.452,0.456-2.961,0.773-4.388"/>
	</g>
	<g id="POLYLINE_00000181794903661855292310000015100990886964552091_">
		<path fill="none" stroke="#FB8604" stroke-width="2" stroke-linecap="round" stroke-linejoin="round" stroke-miterlimit="10" d="
			M630.986,347.544c-0.641,3.914-1.559,9.095-1.913,13.001c-0.393,3.522-0.349,9.95-0.412,13.556
			c-0.104,5.495-0.756,11.022-2.132,16.347c-1.793,7.315-5.658,17.897-7.763,25.176c-0.412,1.473-0.833,3.072-1.117,4.573
			c-0.203,1.091-0.361,2.213-0.333,3.325c0.019,0.719,0.121,1.445,0.373,2.121c0.249,0.677,0.661,1.293,1.193,1.78
			c0.597,0.553,1.325,0.949,2.076,1.251c1.617,0.64,3.367,0.913,5.095,1.026c3.191,0.181,6.441-0.202,9.477-1.217
			c2.226-0.754,4.374-1.906,5.983-3.646c1.575-1.682,2.629-3.786,3.412-5.936c0.921-2.429,1.981-7.119,2.653-9.671
			c0.621-2.34,1.397-4.679,2.498-6.839c2.852-5.753,7.757-10.645,12.141-15.267"/>
	</g>
	<g id="POLYLINE_00000124858642855040831980000005466555469016396477_">
		<path fill="none" stroke="#FB8604" stroke-width="2" stroke-linecap="round" stroke-linejoin="round" stroke-miterlimit="10" d="
			M519.479,313.733c-0.884,2.477-2.039,5.618-2.73,8.123c-0.593,2.1-1.07,4.282-1.382,6.441c-0.324,2.217-0.501,4.602-0.626,6.843
			c-0.356,7.267-0.337,15.99-1.248,23.18c-0.47,3.792-1.501,9.863-1.454,13.616c0.011,2.322,0.308,4.697,1.281,6.826
			c0.964,2.115,2.551,3.893,4.33,5.364c3.164,2.589,6.928,4.371,10.74,5.789c1.713,0.625,3.485,1.203,5.291,1.485
			c1.092,0.166,2.221,0.224,3.311,0.018c0.844-0.158,1.663-0.494,2.343-1.023c0.632-0.485,1.134-1.124,1.53-1.812
			c0.619-1.079,1.025-2.273,1.349-3.47c0.591-2.222,0.913-4.577,1.184-6.859c0.48-4.539,1.224-14.203,2.11-18.555
			c0.899-4.808,2.477-9.529,4.322-14.052c1.562-3.813,4.242-9.699,5.363-13.594c1.322-4.267,2.148-9.807,2.897-14.241"/>
	</g>
	<g id="POLYLINE_00000078758482773118271740000000284585686735250604_">
		<path fill="none" stroke="#FB8604" stroke-width="2" stroke-linecap="round" stroke-linejoin="round" stroke-miterlimit="10" d="
			M446.414,369.249c2.171-3.557,4.085-7.332,5.472-11.266c2.116-5.997,3.078-12.405,3.733-18.711
			c0.438-4.173,0.861-10.586,1.706-14.645c0.699-3.621,2.182-7.553,3.309-11.064"/>
	</g>
	<g id="POLYLINE_00000083791687911465353510000006739679231562572986_">
		<path fill="none" stroke="#FB8604" stroke-width="2" stroke-linecap="round" stroke-linejoin="round" stroke-miterlimit="10" d="
			M404.812,316.038c-1.385,3.587-3.146,7.524-4.176,11.22c-0.922,3.167-1.422,6.543-1.798,9.819
			c-0.625,5.489-1.226,12.558-2.461,17.89c-0.622,2.736-1.444,5.469-2.654,8.007c-1.632,3.436-4.036,6.461-6.625,9.224l-6.014,6.178
			c-1.611,1.707-3.169,3.528-4.453,5.496c-2.109,3.149-4.211,7.809-5.906,11.238c-1.178,2.363-2.484,4.774-3.972,6.955
			c-1.155,1.704-2.504,3.354-3.857,4.906l-6.277,6.94c-1.43,1.648-2.856,3.384-3.998,5.247c-0.765,1.253-1.424,2.596-1.8,4.02
			c-0.611,2.27-0.417,4.729,0.481,6.897c1.395,3.416,4.282,6.031,7.517,7.696c2.556,1.321,5.344,2.184,8.14,2.83
			c4.593,1.046,9.404,1.524,14.101,1.815c3.488,0.169,7.538,0.409,11.023,0.305c2.484-0.099,5.065-0.435,7.24-1.72
			c2.367-1.376,3.876-3.786,5.076-6.176c2.689-5.516,4.53-12.277,7.163-17.82c2.858-6.153,6.727-11.85,10.886-17.192"/>
	</g>
	<g id="POLYLINE_00000108997513166239024400000001729368013997950867_">
		<path fill="none" stroke="#FB8604" stroke-width="2" stroke-linecap="round" stroke-linejoin="round" stroke-miterlimit="10" d="
			M284.536,335.103l0.229,0.657l1.049,3.203c0.596,1.769,1.343,3.515,2.376,5.074c1.049,1.61,2.398,3.036,3.752,4.393
			c4.929,4.906,10.852,9.721,13.311,16.437c1.015,2.818,1.284,5.857,1.407,8.831c0.084,2.374,0.108,6.525,0.399,8.84
			c0.227,1.916,0.637,3.852,1.538,5.573c0.46,0.878,1.052,1.691,1.764,2.382c1.034,1.006,2.288,1.773,3.596,2.368
			c1.728,0.78,3.58,1.281,5.447,1.593c2.699,0.444,5.485,0.508,8.203,0.21c2.947-0.345,5.935-1.073,8.471-2.663
			c1.374-0.864,2.527-2.073,3.329-3.483c0.768-1.331,1.256-2.814,1.616-4.303c0.619-2.519,1.03-6.212,1.537-8.767
			c0.316-1.627,0.725-3.278,1.287-4.838c0.765-2.129,1.815-4.197,2.928-6.164c1.967-3.492,5.455-8.617,7.173-12.218
			c1.168-2.414,2.108-5.017,2.18-7.722c0.123-4.447-1.714-8.662-3.689-12.553c-0.882-1.678-2.205-4.207-2.961-5.94
			c-0.753-1.649-1.707-4.182-2.523-5.799"/>
	</g>
	<g id="POLYLINE_00000012451973295478594660000006332598915176633519_">
		<path fill="none" stroke="#FB8604" stroke-width="2" stroke-linecap="round" stroke-linejoin="round" stroke-miterlimit="10" d="
			M210.862,355.406c-0.223,1.728-0.652,4.084-0.737,5.805c-0.094,1.634-0.012,3.301,0.154,4.928
			c0.352,3.396,1.052,7.069,1.725,10.424c1.027,4.958,2.313,10.278,3.664,15.157c0.998,3.472,2.034,7.173,3.433,10.5
			c0.267,0.605,0.561,1.214,0.948,1.753c0.329,0.46,0.746,0.866,1.248,1.134c0.614,0.333,1.316,0.465,2.006,0.528
			c1.422,0.118,2.87,0.006,4.285-0.155c2.461-0.296,4.96-0.824,7.348-1.489c2.682-0.763,5.364-1.714,7.823-3.038
			c1.478-0.804,2.903-1.772,4.013-3.05c0.895-1.019,1.559-2.236,1.957-3.531c0.861-2.84,0.682-5.891,0.558-8.821
			c-0.336-6.05-1.238-13.542-0.324-19.515c0.399-2.631,1.211-5.213,2.162-7.694c0.805-2.095,2.224-5.372,2.769-7.512
			c0.624-2.24,0.925-5.134,1.218-7.455"/>
	</g>
</g>
<g id="_x32_D_x24_AG-ANIMALS">
	<g id="POLYLINE_00000129191221610360796200000007340807464462407864_">
		
			<path fill="none" stroke="#FB8604" stroke-width="2.75" stroke-linecap="round" stroke-linejoin="round" stroke-miterlimit="10" d="
			M621.067,378.762c-0.034,4.64-0.949,9.273-2.533,13.628c-1.083,2.926-2.519,5.758-4.435,8.23c-1.371,1.768-3.02,3.335-4.838,4.637
			c-8.977,6.427-22.472,7.039-32.629,3.245c-2.53-0.956-4.942-2.268-7.056-3.96c-2.098-1.674-3.902-3.725-5.283-6.027
			c-5.439-9.067-4.033-20.492,0.522-29.624c1.579-3.156,3.559-6.16,5.998-8.718c1.521-1.579,3.239-3.021,5.218-3.99
			c0.656-0.335,1.572-0.627,2.276-0.861c1.381-0.456,2.81-0.865,4.253-1.063c2.784-0.381,5.641-0.242,8.435-0.04
			c3.909,0.32,7.848,0.911,11.649,1.89c2.54,0.669,5.078,1.526,7.338,2.886c1.177,0.704,2.281,1.544,3.277,2.486
			c1.449,1.367,2.703,2.972,3.859,4.591c1.18,1.665,2.188,3.477,2.841,5.415C620.757,373.82,621.071,376.304,621.067,378.762z"/>
	</g>
	<g id="POLYLINE_00000054264784831959535710000012732532907439816874_">
		
			<path fill="none" stroke="#FB8604" stroke-width="2.75" stroke-linecap="round" stroke-linejoin="round" stroke-miterlimit="10" d="
			M329.968,322.429c-2.792-0.83-5.682-1.688-8.335-2.873c-2.164-0.952-4.257-2.139-6.196-3.493
			c-2.117-1.472-4.222-3.208-6.167-4.908c-3.139-2.654-26.142-24.842-29.695-28.182c-2.619-2.467-9.823-9.819-12.464-12.385
			c-3.098-2.997-6.426-5.897-9.999-8.313c-3.148-2.139-6.577-3.967-10.087-5.435c-2.341-0.971-4.795-1.833-7.265-2.404
			c-1.522-0.344-3.095-0.607-4.66-0.585c-0.843,0.019-1.706,0.117-2.49,0.444c-0.545,0.225-1.034,0.595-1.367,1.086
			c-0.727,1.075-0.834,2.459-0.926,3.72l-0.129,2.635c-0.067,1.163-0.218,2.337-0.526,3.462c-0.49,1.905-1.555,4.202-2.326,6.026
			c-0.433,1.043-0.857,2.137-1.106,3.239c-0.224,0.981-0.315,2.01-0.362,3.014c-0.064,1.402-0.067,3.13-0.292,4.49
			c-0.122,0.801-0.332,1.609-0.58,2.381c-0.905,2.868-2.415,5.733-2.521,8.788c-0.072,3.228,1.533,6.301,1.715,9.501
			c0.217,3.233-1.346,6.506-1.641,9.687c-0.073,0.838-0.048,1.696,0.17,2.513c0.389,1.467,1.268,2.748,2.157,3.956
			c1.2,1.603,2.618,3.316,3.354,5.19c0.664,1.631,1.034,3.587,1.522,5.278c0.304,1.035,0.685,2.07,1.28,2.976
			c0.617,0.944,1.452,1.736,2.382,2.368c2.828,1.888,6.31,2.482,9.653,2.596c4.167,0.162,10.039-0.606,14.227-0.995
			c2.249-0.201,4.594-0.338,6.848-0.159c1.233,0.104,2.483,0.298,3.646,0.733c0.574,0.215,1.125,0.504,1.629,0.851
			c0.664,0.452,1.259,1.017,1.83,1.58"/>
	</g>
	<g id="POLYLINE_00000052812640822000261930000004381276499913230497_">
		
			<path fill="none" stroke="#FB8604" stroke-width="2.75" stroke-linecap="round" stroke-linejoin="round" stroke-miterlimit="10" d="
			M265.267,435.269c-3.324,0.625-6.896,1.495-10.287,1.543c-3.931,0.136-10.112-0.821-14.07-1.228
			c-2.285-0.223-4.668-0.432-6.96-0.308c-1.202,0.074-2.43,0.224-3.549,0.691c-0.694,0.29-1.329,0.718-1.869,1.241
			c-0.91,0.873-1.591,2.023-2.314,3.047c-0.476,0.685-1.029,1.335-1.613,1.931c-1.515,1.545-3.405,3.114-4.71,4.846
			c-1.483,1.935-2.412,4.242-3.251,6.513c-0.817,2.294-2.203,6.414-3.189,8.587l-2.702,5.981c-0.867,1.996-1.7,4.071-2.134,6.21
			c-0.539,2.478-0.502,6.104-0.605,8.655c-0.069,2.23-0.535,5.205-0.836,7.438c-0.193,1.649-0.373,3.357-0.171,5.013
			c0.121,0.976,0.395,1.96,0.968,2.772c0.701,1,1.77,1.678,2.89,2.122c2.008,0.783,4.203,0.972,6.342,0.983
			c4.506,0.026,10.011-1.204,14.466-2.008c2.741-0.519,6.566-0.922,9.315-1.42c1.845-0.339,3.695-0.809,5.439-1.506
			c2.522-1.002,4.856-2.507,7.085-4.04c3.624-2.54,8.391-6.178,12.21-8.367c5.94-3.456,13.768-6.64,19.691-10.117
			c3.252-1.87,6.35-4.11,9.183-6.567c3.525-2.985,8.098-7.708,11.624-10.689c1.042-0.873,2.168-1.719,3.35-2.396
			c1.059-0.613,2.201-1.113,3.347-1.538l2.893-1.038"/>
	</g>
	<g id="POLYLINE_00000045601988959046316420000006222154890455902085_">
		
			<path fill="none" stroke="#FB8604" stroke-width="2.75" stroke-linecap="round" stroke-linejoin="round" stroke-miterlimit="10" d="
			M198.611,354.358c-4.514-2.517-9.27-5.289-13.489-8.196c-17.925-12.128-40.309-29.08-59.359-39.03
			c-3.753-1.962-7.698-3.835-11.645-5.375c-2.852-1.105-5.809-2.103-8.8-2.758c-1.437-0.307-2.913-0.545-4.385-0.573
			c-0.839-0.011-1.692,0.044-2.503,0.274c-0.428,0.124-0.846,0.302-1.208,0.563c-0.328,0.236-0.603,0.543-0.82,0.883
			c-0.418,0.653-0.648,1.422-0.867,2.16c-0.311,1.107-0.636,2.29-1.149,3.321c-0.879,1.789-2.615,3.846-3.806,5.454
			c-1.05,1.427-2.057,2.942-2.593,4.645c-0.428,1.365-0.515,2.817-0.47,4.24c0.091,2.675,0.648,5.598,0.598,8.277
			c-0.02,1.666-0.333,3.329-0.716,4.946c-0.475,2.031-1.267,4.723-1.339,6.798c-0.028,0.637-0.004,1.286,0.093,1.917
			c0.12,0.786,0.346,1.563,0.616,2.31c0.97,2.664,2.596,5.305,2.886,8.172c0.195,1.912-0.215,3.832-0.677,5.679
			c-0.637,2.503-1.563,5.285-1.688,7.864c-0.055,1.043,0.057,2.096,0.304,3.11c0.492,2.064,1.504,4.074,2.224,6.063
			c0.373,1.042,0.682,2.128,0.736,3.238c0.062,1.278-0.242,2.547-0.602,3.764c-0.592,1.982-1.47,4.228-1.411,6.314
			c0.018,1.287,0.415,2.539,0.918,3.713c1.009,2.343,2.654,4.858,3.638,7.212c0.556,1.325,0.984,2.738,1.003,4.185
			c0.039,3.256-1.783,6.573-2.987,9.521c-0.64,1.554-1.228,3.168-1.429,4.845c-0.414,3.286,1.031,6.819,1.973,9.915
			c0.408,1.371,0.773,2.791,0.8,4.228c0.05,2.072-0.669,4.2-1.183,6.187c-0.244,0.979-0.453,1.994-0.388,3.008
			c0.057,0.882,0.328,1.738,0.638,2.56c0.623,1.591,1.384,3.339,1.532,5.048c0.112,1.096,0.013,2.21-0.147,3.297
			c-0.357,2.392-1.16,5.185-1.567,7.571c-0.157,0.972-0.281,1.972-0.184,2.956c0.07,0.733,0.32,1.468,0.826,2.016
			c0.452,0.499,1.063,0.829,1.697,1.037c0.891,0.291,1.841,0.381,2.774,0.399c3.561,0.013,7.108-0.806,10.54-1.689
			c6.727-1.808,13.475-4.368,19.929-6.982c9.603-3.933,19.902-8.705,29.227-13.266c8.528-4.122,24.272-12.457,32.829-16.661
			c1.609-0.769,3.395-1.579,5.06-2.228c1.967-0.775,4.022-1.41,5.991-2.036"/>
	</g>
	<g id="POLYLINE_00000106829045758097707450000006990042399374112943_">
		
			<path fill="none" stroke="#FB8604" stroke-width="2.75" stroke-linecap="round" stroke-linejoin="round" stroke-miterlimit="10" d="
			M668.017,423.037c-1.542-4.478-0.629-6.069,2.667-9.18c2.085-1.989,4.658-4.023,5.773-6.754c0.334-0.811,0.54-1.687,0.534-2.567
			c-0.003-0.75-0.165-1.499-0.474-2.183c-0.46-1.018-1.183-1.898-1.968-2.683c-1.626-1.632-3.649-2.865-5.592-4.081
			c-0.69-0.45-1.349-0.967-1.917-1.563c-0.816-0.856-1.508-1.864-2.169-2.842c-1.241-1.881-3.259-5.085-4.616-6.819
			c-1.079-1.434-2.804-3.288-4.021-4.637c-0.661-0.746-1.353-1.525-1.9-2.357c-0.261-0.405-0.504-0.837-0.618-1.309
			c-0.083-0.336-0.066-0.693,0.047-1.02c0.21-0.625,0.754-1.277,1.117-1.824c0.61-0.872,1.049-1.857,1.367-2.87
			c0.37-1.168,0.611-2.396,0.743-3.614c0.223-2.237,0.165-4.632-0.925-6.653c-0.489-0.9-1.197-1.706-2.103-2.2
			c-0.61-0.336-1.329-0.497-2.019-0.37c-0.795,0.135-1.466,0.627-2.076,1.127c-0.67,0.536-1.446,1.333-2.223,1.683
			c-0.168,0.071-0.35,0.121-0.533,0.111c-0.163-0.008-0.322-0.065-0.461-0.149c-0.241-0.147-0.435-0.36-0.609-0.579
			c-0.371-0.465-0.895-1.374-1.218-1.882c-1.928-3.081-4.915-5.32-7.977-7.188c-1.804-1.096-3.771-2.097-5.679-3.006
			c-7.233-3.45-19.331-7.813-26.638-11.166c-5.647-2.589-12.645-6.462-18.31-8.974c-7.396-3.34-15.113-6.304-22.953-8.419
			c-8.544-2.303-17.538-3.522-26.347-4.268c-37.832-2.927-77.455-1.397-115.356,0.168c-8.544,0.477-18.363,1.018-26.835,2.092
			c-4.786,0.563-10.93,1.884-15.713,2.481c-2.179,0.269-4.432,0.407-6.627,0.453c-4.847,0.104-14.221-0.151-19.056-0.034
			c-3.671,0.075-7.683,0.273-11.337,0.669c-9.18,0.974-18.423,2.97-27.347,5.306c-9.489,2.398-27.945,8.507-37.344,11.458
			c-4.286,1.329-10.32,3.075-14.71,4.185c-6.014,1.517-18.143,4.158-24.163,5.618c-4.731,1.188-9.735,2.466-14.176,4.549
			c-2.161,1.001-4.809,2.403-7.093,3.024c-3.24,0.933-6.687,0.677-10.005,0.397c-2.943-0.226-8.244-1.025-11.202-0.827
			c-1.046,0.064-2.121,0.235-3.04,0.766c-0.901,0.514-1.556,1.366-2.024,2.278c-0.539,1.037-0.903,2.178-1.226,3.299
			c-0.53,1.866-0.898,3.862-1.213,5.777c-1.167,7.588-1.514,15.371-1.426,23.041c0.09,5.3,0.413,10.717,1.221,15.958
			c0.518,3.262,1.206,6.566,2.314,9.682c0.548,1.521,1.201,3.032,2.061,4.404c0.608,0.964,1.331,1.879,2.234,2.583
			c0.741,0.585,1.627,0.981,2.561,1.126c2.111,0.332,4.465-0.332,6.542-0.714c2.394-0.494,4.861-0.648,7.298-0.496
			c4.393,0.263,8.843,1.236,13.125,2.229c16.016,3.944,36.111,9.545,51.904,14.228c12.522,3.776,26.513,8.182,38.709,12.804
			c4.96,1.879,10.261,4.12,15.066,6.368c6.683,3.114,14.911,7.425,21.735,10.188c13.192,5.343,27.409,8.497,41.363,11.132
			c19.9,3.592,40.449,5.885,60.66,6.639c16.763,0.55,33.877,0,50.436-2.795c9.538-1.595,19.122-4.132,28.315-7.121
			c8.5-2.699,18.883-6.906,27.147-10.131c2.315-0.894,4.81-1.745,7.214-2.378c0,0,0.459-0.118,0.459-0.118s0.464-0.115,0.464-0.115
			s0.47-0.112,0.47-0.112s0.477-0.109,0.477-0.109s0.484-0.106,0.484-0.106s0.492-0.104,0.492-0.104s1.012-0.199,1.012-0.199
			s0.657-0.12,0.657-0.12s0.672-0.117,0.672-0.117s1.387-0.225,1.387-0.225c6.366-0.952,14.368-1.85,20.481-3.638
			c1.889-0.541,3.817-1.237,5.631-1.987c4.196-1.71,8.937-4.26,13.255-5.617c2.36-0.764,4.849-1.108,7.323-1.203
			c1.733-0.08,4.56-0.055,6.276-0.187c0.675-0.053,1.368-0.134,2.028-0.286c0.721-0.162,1.416-0.443,2.076-0.773
			c1.113-0.564,2.276-1.27,3.516-1.502c0.929-0.185,1.895-0.174,2.838-0.134c2.833,0.154,6.096,0.659,8.917,0.259
			c2.229-0.292,4.309-1.263,6.209-2.429c2.969-1.838,6.112-4.398,9.202-6.031c1.62-0.894,4.145-2.146,5.635-3.191
			c0.595-0.414,1.175-0.872,1.67-1.403c0.414-0.444,0.774-0.949,1.009-1.51c0.231-0.547,0.337-1.143,0.357-1.735
			c0.027-0.797-0.09-1.599-0.262-2.376C669.29,426.466,668.565,424.66,668.017,423.037z"/>
	</g>
	<g id="POLYLINE_00000139277508105924592040000009025298524324012980_">
		
			<path fill="none" stroke="#FB8604" stroke-width="2.75" stroke-linecap="round" stroke-linejoin="round" stroke-miterlimit="10" d="
			M485.342,404.056l-1.667,1.075c-0.786,0.486-1.615,0.927-2.504,1.191c-0.79,0.24-1.624,0.322-2.447,0.276
			c-1.511-0.073-3.232-0.466-4.745-0.493c-0.671-0.01-1.359,0.045-1.989,0.292c-0.403,0.157-0.772,0.402-1.068,0.718
			c-0.652,0.703-0.999,1.628-1.269,2.533c-0.286,0.995-0.481,2.069-0.639,3.093c-0.492,3.152-0.904,7.734-1.652,10.807
			c-0.453,1.994-1.058,3.987-1.918,5.846c-0.787,1.705-1.787,3.322-2.93,4.81c-1.964,2.55-4.376,4.775-7.053,6.56
			c-2.206,1.462-4.625,2.662-7.178,3.378c-1.661,0.462-3.4,0.722-5.125,0.595c-1.881-0.134-3.758-0.747-5.254-1.916
			c-1.423-1.096-2.441-2.695-2.831-4.449c-0.217-0.946-0.272-1.932-0.257-2.901c0.027-1.996,0.418-4.337,0.671-6.329
			c0.334-2.585,0.597-5.255,0.162-7.841c-0.571-3.374-2.374-6.388-4.287-9.17c-1.569-2.275-5.659-7.564-7.225-9.83
			c-1.432-2.044-2.868-4.265-4.086-6.443c-2.667-4.764-4.696-9.93-6.287-15.147c-1.055-3.53-1.952-7.237-2.498-10.881
			c-0.348-2.361-0.587-4.793-0.524-7.182c0.038-1.208,0.149-2.436,0.451-3.609c0.184-0.702,0.439-1.398,0.847-2.003l0.042-0.06
			l0.042-0.059c0.38-0.526,0.912-0.941,1.525-1.158c0.767-0.276,1.604-0.274,2.403-0.168c1.041,0.142,2.064,0.46,3.05,0.816
			c2.935,1.008,15.633,7.402,18.689,8.814c9.937,4.68,20.755,9.652,30.995,13.599c3.022,1.178,8.29,2.917,11.397,3.953
			c1.024,0.353,2.235,0.784,3.232,1.214c1.008,0.44,2.026,0.941,2.853,1.677c0.838,0.727,1.424,1.695,2.05,2.588"/>
	</g>
</g>
<g id="_x32_D_x24_AG-OUTLINE">
	<g id="POLYLINE_00000106126002731092446740000007618905183121214371_">
		
			<path fill="none" stroke="#FB8604" stroke-width="3.5" stroke-linecap="round" stroke-linejoin="round" stroke-miterlimit="10" d="
			M265.267,435.269c-3.324,0.625-6.896,1.495-10.287,1.543c-3.931,0.136-10.112-0.821-14.07-1.228
			c-2.285-0.223-4.668-0.432-6.96-0.308c-1.202,0.074-2.43,0.224-3.549,0.691c-0.694,0.29-1.329,0.718-1.869,1.241
			c-0.91,0.873-1.591,2.023-2.314,3.047c-0.476,0.685-1.029,1.335-1.613,1.931c-1.515,1.545-3.405,3.114-4.71,4.846
			c-1.483,1.935-2.412,4.242-3.251,6.513c-0.817,2.294-2.203,6.414-3.189,8.587l-2.702,5.981c-0.867,1.996-1.7,4.071-2.134,6.21
			c-0.539,2.478-0.502,6.104-0.605,8.655c-0.069,2.23-0.535,5.205-0.836,7.438c-0.193,1.649-0.373,3.357-0.171,5.013
			c0.121,0.976,0.395,1.96,0.968,2.772c0.701,1,1.77,1.678,2.89,2.122c2.008,0.783,4.203,0.972,6.342,0.983
			c4.506,0.026,10.011-1.204,14.466-2.008c2.741-0.519,6.566-0.922,9.315-1.42c1.845-0.339,3.695-0.809,5.439-1.506
			c2.522-1.002,4.856-2.507,7.085-4.04c3.624-2.54,8.391-6.178,12.21-8.367c5.94-3.456,13.768-6.64,19.691-10.117
			c3.252-1.87,6.35-4.11,9.183-6.567c3.525-2.985,8.098-7.708,11.624-10.689c1.042-0.873,2.168-1.719,3.35-2.396
			c1.059-0.613,2.201-1.113,3.347-1.538l2.893-1.038c6.202,2.364,12.849,5.322,18.819,8.235c5.129,2.509,11.978,5.912,17.162,8.007
			c5.634,2.313,11.609,4.201,17.484,5.803c14.008,3.777,28.765,6.413,43.135,8.372c15.289,2.043,31.222,3.425,46.649,3.736
			c18.46,0.322,37.21-0.78,55.237-4.941c7.075-1.625,14.431-3.798,21.308-6.129c7.208-2.384,17.913-6.725,25.047-9.473
			c2.169-0.81,4.487-1.577,6.734-2.142c1.991-0.506,4.088-0.892,6.116-1.208c6.366-0.952,14.368-1.85,20.481-3.638
			c1.889-0.541,3.817-1.237,5.631-1.987c4.196-1.71,8.937-4.26,13.255-5.617c2.36-0.764,4.849-1.108,7.323-1.203
			c1.733-0.08,4.56-0.055,6.276-0.187c0.675-0.053,1.368-0.134,2.028-0.286c0.721-0.162,1.416-0.443,2.076-0.773
			c1.113-0.564,2.276-1.27,3.516-1.502c0.929-0.185,1.895-0.174,2.838-0.134c2.833,0.154,6.096,0.659,8.917,0.259
			c2.229-0.292,4.309-1.263,6.209-2.429c2.969-1.838,6.112-4.398,9.202-6.031c1.71-0.936,4.227-2.186,5.787-3.297
			c0.796-0.57,1.561-1.221,2.111-2.039c0.293-0.436,0.514-0.924,0.634-1.436c0.166-0.693,0.172-1.418,0.098-2.124
			c-0.268-2.41-1.358-4.757-2.071-7.056c-0.415-1.349-0.735-2.814-0.354-4.208c0.273-1.038,0.923-1.925,1.626-2.716
			c1.877-2.091,4.437-3.953,6.127-6.212c0.768-1.034,1.39-2.206,1.653-3.475c0.204-0.976,0.168-2.009-0.158-2.955
			c-0.437-1.266-1.31-2.33-2.253-3.259c-0.967-0.942-2.064-1.771-3.185-2.521c-0.95-0.639-2.129-1.295-3.045-1.981
			c-0.729-0.544-1.377-1.206-1.939-1.921c-1.046-1.3-3.125-4.619-4.066-6.028c-1.205-1.816-2.554-3.609-4.017-5.223
			c-1.135-1.288-2.842-3.023-3.797-4.425c-0.328-0.498-0.648-1.037-0.729-1.638c-0.052-0.395,0.053-0.793,0.232-1.144
			c0.219-0.449,0.69-1.06,0.972-1.478c0.61-0.872,1.049-1.857,1.367-2.87c0.37-1.168,0.611-2.396,0.743-3.614
			c0.223-2.237,0.165-4.632-0.925-6.653c-0.489-0.9-1.197-1.706-2.103-2.2c-0.61-0.336-1.329-0.497-2.019-0.37
			c-0.795,0.135-1.466,0.627-2.076,1.127c-0.67,0.536-1.446,1.333-2.223,1.683c-0.168,0.071-0.35,0.121-0.533,0.111
			c-0.163-0.008-0.322-0.065-0.461-0.149c-0.241-0.147-0.435-0.36-0.609-0.579c-0.371-0.465-0.895-1.374-1.218-1.882
			c-2.015-3.22-5.179-5.518-8.394-7.437c-7.283-4.276-19.661-8.712-27.538-12.014c-7.445-3.038-15.52-7.686-22.865-10.97
			c-9.906-4.463-20.288-8.202-30.985-10.215c-9.325-1.811-19.34-2.565-28.832-3.124c-15.612-0.849-32.935-1.025-48.578-0.843
			c-20.158,0.433-47.366,1.081-67.388,2.415c-5.408,0.393-11.642,0.871-17.001,1.626c-3.722,0.496-9.406,1.616-13.125,2.14
			c-2.974,0.423-6.074,0.592-9.077,0.618c-7.195,0.023-16.915-0.299-24.08,0.195c-5.647,0.35-11.43,1.168-16.989,2.217
			c-2.792-0.83-5.682-1.688-8.335-2.873c-2.164-0.952-4.257-2.139-6.196-3.493c-2.117-1.472-4.222-3.208-6.167-4.908
			c-3.139-2.654-26.142-24.842-29.695-28.182c-2.619-2.467-9.823-9.819-12.464-12.385c-3.098-2.997-6.426-5.897-9.999-8.313
			c-3.148-2.139-6.577-3.967-10.087-5.435c-2.341-0.971-4.795-1.833-7.265-2.404c-1.522-0.344-3.095-0.607-4.66-0.585
			c-0.843,0.019-1.706,0.117-2.49,0.444c-0.545,0.225-1.034,0.595-1.367,1.086c-0.727,1.075-0.834,2.459-0.926,3.72l-0.129,2.635
			c-0.067,1.163-0.218,2.337-0.526,3.462c-0.49,1.905-1.555,4.202-2.326,6.026c-0.433,1.043-0.857,2.137-1.106,3.239
			c-0.224,0.981-0.315,2.01-0.362,3.014c-0.064,1.402-0.067,3.13-0.292,4.49c-0.122,0.801-0.332,1.609-0.58,2.381
			c-0.905,2.868-2.415,5.733-2.521,8.788c-0.072,3.228,1.533,6.301,1.715,9.501c0.217,3.233-1.346,6.506-1.641,9.687
			c-0.073,0.838-0.048,1.696,0.17,2.513c0.389,1.467,1.268,2.748,2.157,3.956c1.2,1.603,2.618,3.316,3.354,5.19
			c0.664,1.631,1.034,3.587,1.522,5.278c0.304,1.035,0.685,2.07,1.28,2.976c0.617,0.944,1.452,1.736,2.382,2.368
			c2.828,1.888,6.31,2.482,9.653,2.596c4.167,0.162,10.039-0.606,14.227-0.995c2.249-0.201,4.594-0.338,6.848-0.159
			c1.233,0.104,2.483,0.298,3.646,0.733c0.574,0.215,1.125,0.504,1.629,0.851c0.664,0.452,1.259,1.017,1.83,1.58
			c-7.826,2.402-23.59,5.833-31.742,7.722c-5.107,1.267-10.479,2.577-15.254,4.811c-2.575,1.195-5.487,2.776-8.281,3.312
			c-1.524,0.317-3.106,0.387-4.66,0.359c-4.007-0.071-8.695-0.824-12.699-1.059c-4.514-2.517-9.27-5.289-13.489-8.196
			c-17.925-12.128-40.309-29.08-59.359-39.03c-3.753-1.962-7.698-3.835-11.645-5.375c-2.852-1.105-5.809-2.103-8.8-2.758
			c-1.437-0.307-2.913-0.545-4.385-0.573c-0.839-0.011-1.692,0.044-2.503,0.274c-0.428,0.124-0.846,0.302-1.208,0.563
			c-0.328,0.236-0.603,0.543-0.82,0.883c-0.418,0.653-0.648,1.422-0.867,2.16c-0.311,1.107-0.636,2.29-1.149,3.321
			c-0.879,1.789-2.615,3.846-3.806,5.454c-1.05,1.427-2.057,2.942-2.593,4.645c-0.428,1.365-0.515,2.817-0.47,4.24
			c0.091,2.675,0.648,5.598,0.598,8.277c-0.02,1.666-0.333,3.329-0.716,4.946c-0.475,2.031-1.267,4.723-1.339,6.798
			c-0.028,0.637-0.004,1.286,0.093,1.917c0.12,0.786,0.346,1.563,0.616,2.31c0.97,2.664,2.596,5.305,2.886,8.172
			c0.195,1.912-0.215,3.832-0.677,5.679c-0.637,2.503-1.563,5.285-1.688,7.864c-0.055,1.043,0.057,2.096,0.304,3.11
			c0.492,2.064,1.504,4.074,2.224,6.063c0.373,1.042,0.682,2.128,0.736,3.238c0.062,1.278-0.242,2.547-0.602,3.764
			c-0.592,1.982-1.47,4.228-1.411,6.314c0.018,1.287,0.415,2.539,0.918,3.713c1.009,2.343,2.654,4.858,3.638,7.212
			c0.556,1.325,0.984,2.738,1.003,4.185c0.039,3.256-1.783,6.573-2.987,9.521c-0.64,1.554-1.228,3.168-1.429,4.845
			c-0.414,3.286,1.031,6.819,1.973,9.915c0.408,1.371,0.773,2.791,0.8,4.228c0.05,2.072-0.669,4.2-1.183,6.187
			c-0.244,0.979-0.453,1.994-0.388,3.008c0.057,0.882,0.328,1.738,0.638,2.56c0.623,1.591,1.384,3.339,1.532,5.048
			c0.112,1.096,0.013,2.21-0.147,3.297c-0.357,2.392-1.16,5.185-1.567,7.571c-0.157,0.972-0.281,1.972-0.184,2.956
			c0.07,0.733,0.32,1.468,0.826,2.016c0.452,0.499,1.063,0.829,1.697,1.037c0.891,0.291,1.841,0.381,2.774,0.399
			c3.561,0.013,7.108-0.806,10.54-1.689c6.727-1.808,13.475-4.368,19.929-6.982c9.603-3.933,19.902-8.705,29.227-13.266
			c8.528-4.122,24.272-12.457,32.829-16.661c1.609-0.769,3.395-1.579,5.06-2.228c1.967-0.775,4.022-1.41,5.991-2.036
			c1.714-0.213,3.567-0.689,5.275-0.955c1.403-0.225,2.848-0.321,4.268-0.31c2.548,0.017,5.138,0.349,7.647,0.782
			c2.274,0.394,4.903,0.973,7.155,1.501C236.334,427.153,253.361,431.911,265.267,435.269z"/>
	</g>
</g>
</svg>
