<?xml version="1.0" encoding="utf-8"?>
<!-- Generator: Adobe Illustrator 26.3.1, SVG Export Plug-In . SVG Version: 6.00 Build 0)  -->
<!DOCTYPE svg PUBLIC "-//W3C//DTD SVG 1.1//EN" "http://www.w3.org/Graphics/SVG/1.1/DTD/svg11.dtd" [
	<!ENTITY ns_flows "http://ns.adobe.com/Flows/1.0/">
	<!ENTITY ns_extend "http://ns.adobe.com/Extensibility/1.0/">
	<!ENTITY ns_ai "http://ns.adobe.com/AdobeIllustrator/10.0/">
	<!ENTITY ns_graphs "http://ns.adobe.com/Graphs/1.0/">
	<!ENTITY ns_vars "http://ns.adobe.com/Variables/1.0/">
	<!ENTITY ns_imrep "http://ns.adobe.com/ImageReplacement/1.0/">
	<!ENTITY ns_sfw "http://ns.adobe.com/SaveForWeb/1.0/">
	<!ENTITY ns_custom "http://ns.adobe.com/GenericCustomNamespace/1.0/">
	<!ENTITY ns_adobe_xpath "http://ns.adobe.com/XPath/1.0/">
]>
<svg version="1.1" xmlns:x="&ns_extend;" xmlns:i="&ns_ai;" xmlns:graph="&ns_graphs;"
	 xmlns="http://www.w3.org/2000/svg" xmlns:xlink="http://www.w3.org/1999/xlink" xmlns:a="http://ns.adobe.com/AdobeSVGViewerExtensions/3.0/"
	 x="0px" y="0px" width="750px" height="750px" viewBox="0 0 750 750" enable-background="new 0 0 750 750" xml:space="preserve">
<metadata>
	<sfw  xmlns="&ns_sfw;">
		<slices></slices>
		<sliceSourceBounds  bottomLeftOrigin="true" height="14465.03" width="3937" x="-2000" y="-5314"></sliceSourceBounds>
	</sfw>
</metadata>
<g id="FILL-BACKGROUND">
	<rect x="0" fill="#FFFFFF" width="750" height="750"/>
</g>
<g id="N-DIMENSIONS">
</g>
<g id="N-TEXT">
</g>
<g id="_x32_D_x24_AG-DIAGRAM">
</g>
<g id="_x32_D_x24_AG-DETAILS-DIAGRAM">
</g>
<g id="_x32_D_x24_AG-DETAILS">
	<g id="POLYLINE_00000153697330423419563570000016355472134827392694_">
		<path fill="none" stroke="#FB8604" stroke-width="2" stroke-linecap="round" stroke-linejoin="round" stroke-miterlimit="10" d="
			M302.39,490.649c-1.098-0.743-2.463-1.154-3.791-1.007c-0.618,0.076-1.26,0.316-1.645,0.827c-0.473,0.641-0.446,1.502-0.31,2.251
			c0.196,1.006,0.631,1.962,1.199,2.811c0.488,0.717,1.09,1.379,1.839,1.828c0.952,0.574,2.17,0.681,3.202,0.26
			c0.635-0.255,1.203-0.708,1.535-1.313c0.339-0.616,0.401-1.35,0.296-2.036C304.483,492.813,303.594,491.488,302.39,490.649z"/>
	</g>
	<g id="POLYLINE_00000043439058478085671400000004080820675175210428_">
		<path fill="none" stroke="#FB8604" stroke-width="2" stroke-linecap="round" stroke-linejoin="round" stroke-miterlimit="10" d="
			M303.302,339.708c-0.01-0.831-0.502-1.579-1.097-2.126c-0.733-0.66-1.738-1.135-2.741-0.974c-0.811,0.139-1.505,0.674-1.99,1.321
			c-0.48,0.648-0.8,1.447-0.769,2.262c0.046,1.244,1.056,2.312,2.252,2.569c0.734,0.17,1.508,0.022,2.183-0.291
			C302.204,341.973,303.286,340.958,303.302,339.708z"/>
	</g>
	<g id="POLYLINE_00000101805668628299159760000002103767822883445667_">
		<path fill="none" stroke="#FB8604" stroke-width="2" stroke-linecap="round" stroke-linejoin="round" stroke-miterlimit="10" d="
			M163.325,345.119c-0.644-0.977-1.923-1.461-3.039-1.631c-1.164-0.161-2.542-0.033-3.363,0.901
			c-0.695,0.815-0.862,1.959-0.748,2.996c0.113,0.927,0.453,1.885,1.17,2.515c0.938,0.822,2.341,0.824,3.442,0.346
			c0.897-0.379,1.653-1.056,2.185-1.866C163.59,347.444,163.966,346.135,163.325,345.119z"/>
	</g>
	<g id="POLYLINE_00000166633798920743304790000013475616191444655516_">
		<path fill="none" stroke="#FB8604" stroke-width="2" stroke-linecap="round" stroke-linejoin="round" stroke-miterlimit="10" d="
			M190.183,397.71c-0.439-0.655-1.084-1.148-1.772-1.52c-0.846-0.451-1.783-0.735-2.737-0.828c-0.952-0.083-2.001,0.009-2.781,0.611
			c-0.629,0.495-0.932,1.292-1.022,2.068c-0.155,1.468,0.271,3.01,1.121,4.213c0.687,0.966,1.769,1.642,2.944,1.812
			c1.349,0.21,2.74-0.274,3.63-1.317C190.747,401.41,191.217,399.262,190.183,397.71z"/>
	</g>
	<g id="POLYLINE_00000071524229907540510590000008661175385412393610_">
		<path fill="none" stroke="#FB8604" stroke-width="2" stroke-linecap="round" stroke-linejoin="round" stroke-miterlimit="10" d="
			M241.215,381.047c-0.162-0.386-0.476-0.688-0.812-0.928c-0.653-0.456-1.423-0.73-2.201-0.88c-0.601-0.109-1.228-0.148-1.83-0.025
			c-0.337,0.071-0.671,0.201-0.929,0.434c-0.403,0.358-0.573,0.907-0.598,1.433c-0.035,0.919,0.258,1.849,0.779,2.603
			c0.35,0.497,0.846,0.908,1.437,1.075c0.58,0.171,1.21,0.088,1.76-0.148c0.93-0.409,1.761-1.125,2.24-2.026
			C241.302,382.119,241.426,381.547,241.215,381.047z"/>
	</g>
	<g id="POLYLINE_00000063615151039532606690000004696052246904183192_">
		<path fill="none" stroke="#FB8604" stroke-width="2" stroke-linecap="round" stroke-linejoin="round" stroke-miterlimit="10" d="
			M304.396,444.922c-0.341-0.766-1.037-1.326-1.804-1.634c-1.065-0.428-2.315-0.441-3.36,0.051c-1.065,0.51-1.84,1.508-2.248,2.6
			c-0.344,0.93-0.442,1.995-0.069,2.931c0.716,1.728,2.893,2.644,4.656,2.105c1.293-0.409,2.203-1.574,2.7-2.792
			C304.673,447.16,304.846,445.959,304.396,444.922z"/>
	</g>
	<g id="POLYLINE_00000040541162169215957730000013358230763294927542_">
		<path fill="none" stroke="#FB8604" stroke-width="2" stroke-linecap="round" stroke-linejoin="round" stroke-miterlimit="10" d="
			M351.261,399.446c-0.582-0.609-1.453-0.831-2.271-0.872c-1.515-0.055-3.157,0.436-4.281,1.477
			c-1.167,1.072-1.315,2.817-0.891,4.269c0.323,1.11,0.937,2.186,1.891,2.867c0.524,0.369,1.16,0.589,1.804,0.585
			c0.635,0,1.26-0.216,1.784-0.569c1.146-0.79,1.848-2.08,2.292-3.369c0.299-0.919,0.473-1.906,0.34-2.871
			C351.851,400.41,351.65,399.856,351.261,399.446z"/>
	</g>
	<g id="POLYLINE_00000006699397377503700210000004565522742536861368_">
		<path fill="none" stroke="#FB8604" stroke-width="2" stroke-linecap="round" stroke-linejoin="round" stroke-miterlimit="10" d="
			M230.305,333.589c5.721,0.695,11.612,0.875,17.283-0.287c3.658-0.762,7.264-2.158,10.188-4.527
			c4.769-3.917,7.255-9.839,9.486-15.435c1.889-4.757,3.64-10.492,6.6-14.693c2.273-3.326,5.676-6.098,8.585-8.852"/>
	</g>
	<g id="POLYLINE_00000114054547602629729830000003923139873791423648_">
		<path fill="none" stroke="#FB8604" stroke-width="2" stroke-linecap="round" stroke-linejoin="round" stroke-miterlimit="10" d="
			M239.837,350.711c10.795-2.617,21.937-4.301,33.058-4.33c8.356-0.052,16.829,0.724,25.081,2.02
			c9.581,1.529,19.215,3.809,28.36,7.067c8.851,3.211,17.616,7.327,24.736,13.593c3.173,2.805,5.855,6.164,8.118,9.735
			c3.034,4.735,5.574,10.319,8.438,15.156c1.562,2.611,3.335,5.155,5.548,7.259c3.33,3.179,7.63,5.163,12.021,6.405
			c6.748,1.879,13.863,2.23,20.834,1.988"/>
	</g>
	<g id="POLYLINE_00000043432827018261689610000018289287692035516079_">
		<path fill="none" stroke="#FB8604" stroke-width="2" stroke-linecap="round" stroke-linejoin="round" stroke-miterlimit="10" d="
			M238.418,363.802c6.891,9.417,14.074,19.726,23.571,26.672c5.108,3.857,10.945,6.735,16.8,9.272l18.368,7.587
			c9.144,3.965,18.452,8.498,25.382,15.842c4.672,4.979,8.052,11.052,10.84,17.245c2.61,5.756,5.503,13.855,7.969,19.707
			c1.655,3.895,3.535,7.788,5.952,11.271c3.569,5.229,8.251,9.639,13.154,13.605l7.963,6.262"/>
	</g>
	<g id="POLYLINE_00000020376848564631521550000008743224040528337332_">
		<path fill="none" stroke="#FB8604" stroke-width="2" stroke-linecap="round" stroke-linejoin="round" stroke-miterlimit="10" d="
			M216.27,374.17c-0.581,9.56-0.408,19.289,1.031,28.769c1.045,6.786,2.765,13.54,5.553,19.828
			c3.471,8.168,10.181,16.036,15.638,22.996c3.374,4.403,6.736,9.062,8.304,14.451c1.229,4.269,1.26,8.794,1.004,13.197l-0.67,8.995
			c-0.21,3.35-0.177,6.764,0.552,10.053c1.023,5.014,3.576,10.023,5.8,14.613"/>
	</g>
	<g id="POLYLINE_00000062876439281074963150000004534248188644001205_">
		<path fill="none" stroke="#FB8604" stroke-width="2" stroke-linecap="round" stroke-linejoin="round" stroke-miterlimit="10" d="
			M182.729,352.162c-2.729,2.077-5.516,4.255-7.762,6.858c-1.51,1.733-2.796,3.672-3.812,5.734
			c-4.013,8.394-5.483,18.621-8.213,27.473c-1.513,5.122-4.445,12.941-5.968,18.074c-1.591,5.353-2.885,11.279-4.019,16.755"/>
	</g>
</g>
<g id="_x32_D_x24_AG-ANIMALS">
	<g id="POLYLINE_00000034056783710205864550000001443186189580213376_">
		
			<path fill="none" stroke="#FB8604" stroke-width="2.75" stroke-linecap="round" stroke-linejoin="round" stroke-miterlimit="10" d="
			M490.459,454.804c-14.088,5.47-32.971,12.71-46.594,18.884"/>
	</g>
	<g id="POLYLINE_00000071531915794043381480000000764809516628544434_">
		
			<path fill="none" stroke="#FB8604" stroke-width="2.75" stroke-linecap="round" stroke-linejoin="round" stroke-miterlimit="10" d="
			M558.169,284.07c12.305,11.111,23.244,24.703,27.552,40.986c1.939,7.236,2.621,14.795,2.571,22.271
			c-0.091,9.913-1.46,19.903-3.699,29.552c-2.953,12.427-7.114,25.059-15.497,34.943c-5.084,6.097-11.449,11.031-18.147,15.238
			c-9.586,6.014-20.102,10.994-30.452,15.552"/>
	</g>
	<g id="POLYLINE_00000176024680057965482020000014785183223992909983_">
		
			<path fill="none" stroke="#FB8604" stroke-width="2.75" stroke-linecap="round" stroke-linejoin="round" stroke-miterlimit="10" d="
			M513.262,473.646c27.588-6.866,53.307-21.829,72.344-43.013c5.336-5.976,10.09-12.579,14.296-19.393
			c3.348-5.477,6.5-11.186,9.023-17.094c0.393-0.957,0.825-2.023,1.124-3.015c0,0,0.251-0.836,0.251-0.836l0.056-0.177
			c0,0,0.028-0.085,0.028-0.085l0.029-0.082c0.041-0.121,0.1-0.261,0.154-0.378c0.225-0.502,0.651-0.875,1.088-1.191l0.981-0.703
			c1.13-0.813,2.063-1.796,2.458-3.161c0.84-2.784,0.35-5.93,1.317-8.684c0.329-0.897,0.935-1.661,1.595-2.34
			c0.7-0.709,1.532-1.495,2.074-2.32c0.324-0.487,0.575-1.025,0.742-1.586c0.844-3.049,0.322-6.436,0.717-9.546
			c0.082-0.598,0.202-1.203,0.458-1.753c0.41-0.937,1.284-1.579,1.843-2.414c0.272-0.41,0.424-0.888,0.489-1.373
			c0.216-1.75-0.135-3.64,0.01-5.394c0.049-0.655,0.181-1.313,0.467-1.908c0.397-0.867,1.107-1.665,1.55-2.507
			c0.338-0.625,0.477-1.32,0.413-2.027c-0.249-2.677-1.827-5.217-1.658-7.947c0.108-1.571,0.887-3.087,1.128-4.633
			c0.167-0.969,0.033-1.963-0.264-2.893c-0.641-2.05-1.847-4.097-2.474-6.151c-0.3-0.958-0.448-1.979-0.295-2.978
			c0.2-1.537,0.968-3.041,1.193-4.572c0.333-2.086-0.964-4.124-1.764-5.961c-0.35-0.781-0.674-1.59-0.861-2.427
			c-0.161-0.721-0.217-1.472-0.231-2.209c-0.035-1.552,0.146-3.261-0.216-4.782c-0.147-0.635-0.414-1.24-0.746-1.799
			c-1.358-2.25-3.584-4.125-4.214-6.764c-0.747-3.003,0.131-6.292-0.77-9.267c-0.721-2.235-2.81-3.675-4.122-5.532
			c-0.651-0.885-0.981-1.955-1.161-3.028c-0.283-1.412-0.315-3.232-1.523-4.211c-1.041-0.816-2.495-1.086-3.66-1.672
			c-0.459-0.228-0.908-0.514-1.227-0.922c-0.491-0.639-0.615-1.47-0.711-2.25c-0.153-1.131-0.119-2.466-0.804-3.429
			c-0.34-0.463-0.838-0.781-1.344-1.036c-1.15-0.578-2.486-0.897-3.532-1.67c-0.821-0.589-1.231-1.555-1.521-2.492
			c-0.356-1.088-0.584-2.404-1.312-3.316c-0.341-0.428-0.82-0.723-1.318-0.938c-0.973-0.419-2.226-0.642-3.221-1.003
			c-0.862-0.3-1.644-0.762-2.149-1.544c-0.987-1.445-1.171-3.42-2.285-4.765c-0.395-0.458-0.949-0.744-1.514-0.937
			c-1.165-0.408-2.559-0.487-3.592-1.215c-1.161-0.854-1.637-2.382-2.692-3.338c-0.684-0.649-1.657-0.805-2.561-0.887
			c-1.279-0.136-2.825-0.061-3.865-0.934c-0.63-0.559-0.956-1.371-1.254-2.139c-0.477-1.186-0.8-2.665-1.78-3.548
			c-0.353-0.312-0.804-0.487-1.262-0.574c-1.471-0.264-3.066,0.092-4.548,0.001c-0.601-0.038-1.232-0.153-1.719-0.531
			c-0.39-0.3-0.671-0.719-0.901-1.148c-0.544-1.02-0.86-2.22-1.568-3.147c-0.576-0.781-1.496-1.107-2.419-1.264
			c-1.852-0.348-4.192-0.072-5.8-1.174c-1.004-0.693-1.702-1.863-2.473-2.785c-0.449-0.536-0.976-1.048-1.647-1.287
			c-0.715-0.256-1.493-0.256-2.244-0.237c-1.267,0.027-2.699,0.25-3.886-0.302c-0.468-0.227-0.87-0.574-1.228-0.947
			c-0.833-0.862-1.544-2.02-2.582-2.66c-1.2-0.723-2.783-0.599-4.131-0.682c-1.034-0.046-2.06-0.201-2.932-0.796
			c-1.054-0.692-1.913-1.701-2.95-2.415c-0.71-0.506-1.531-0.847-2.388-1.004c-1.335-0.252-2.717-0.183-4.052,0.034
			c-1.463,0.245-2.903,0.68-4.249,1.305"/>
	</g>
	<g id="POLYLINE_00000086663518868731281610000000926915269445945748_">
		
			<path fill="none" stroke="#FB8604" stroke-width="2.75" stroke-linecap="round" stroke-linejoin="round" stroke-miterlimit="10" d="
			M451.067,486.224c11.435-3.137,26.193-5.542,37.971-7.577"/>
	</g>
	<g id="POLYLINE_00000039117389286279357350000009138292591557620364_">
		
			<path fill="none" stroke="#FB8604" stroke-width="2.75" stroke-linecap="round" stroke-linejoin="round" stroke-miterlimit="10" d="
			M423.897,483.508c-9.167,5.105-18.338,11.58-23.045,21.258c-0.354,0.769-0.685,1.57-0.853,2.403
			c-0.062,0.333-0.104,0.681-0.034,1.016l0.005,0.022l0.005,0.022l0.006,0.021l0.006,0.021l0.006,0.02l0.007,0.02l0.007,0.02
			l0.007,0.019l0.008,0.019l0.008,0.019l0.008,0.018l0.009,0.018l0.009,0.017l0.009,0.017l0.01,0.017l0.01,0.016l0.01,0.016
			l0.011,0.015l0.011,0.015l0.012,0.015l0.012,0.014l0.012,0.014l0.013,0.013l0.013,0.013l0.013,0.013l0.014,0.012l0.018,0.015
			l0.019,0.015l0.02,0.014l0.02,0.013l0.021,0.013l0.021,0.012l0.022,0.011l0.023,0.011l0.023,0.01l0.024,0.009l0.024,0.009
			l0.025,0.008l0.025,0.007l0.026,0.007l0.027,0.006l0.027,0.005l0.028,0.005l0.028,0.004l0.029,0.003l0.03,0.003l0.03,0.002
			l0.031,0.001l0.031,0.001l0.032,0l0.032-0.001l0.033-0.001c0.391-0.021,0.773-0.141,1.14-0.273
			c0.83-0.308,1.653-0.743,2.431-1.167c3.542-1.993,9.444-5.854,12.97-7.844c4.304-2.478,8.942-4.719,13.532-6.612"/>
	</g>
	<g id="POLYLINE_00000108286902207389663930000017906951689317564327_">
		
			<path fill="none" stroke="#FB8604" stroke-width="2.75" stroke-linecap="round" stroke-linejoin="round" stroke-miterlimit="10" d="
			M608.11,386.112c-0.638-1.762-1.322-3.778-0.538-5.602c0.661-1.495,2.049-2.783,2.979-4.108c0.623-0.86,1.138-1.844,1.213-2.92
			c0.185-2.572-1.084-5.182-0.357-7.735c0.547-1.934,1.941-3.653,2.862-5.413c0.353-0.677,0.665-1.398,0.763-2.161
			c0.132-0.993-0.201-1.975-0.579-2.879c-0.454-1.138-1.201-2.378-1.019-3.637c0.178-1.023,0.914-1.93,1.451-2.793
			c0.406-0.646,0.789-1.351,0.845-2.127c0.04-0.58-0.1-1.157-0.285-1.702c-0.327-0.948-0.961-2.167-1.338-3.103
			c-0.33-0.825-0.605-1.711-0.534-2.61c0.202-2.195,2.028-3.864,2.589-5.941c0.247-0.905,0-1.847-0.357-2.687
			c-0.607-1.439-1.54-2.914-1.515-4.526c0.006-1.635,0.713-3.389,1.036-4.976c0.135-0.671,0.225-1.37,0.114-2.051
			c-0.261-1.501-1.459-2.606-2.149-3.91c-0.221-0.414-0.397-0.86-0.469-1.326c-0.081-0.525-0.033-1.064,0.057-1.585
			c0.297-1.759,1.189-3.562,1.06-5.375c-0.052-0.658-0.325-1.279-0.693-1.82c-0.911-1.329-2.284-2.414-3.177-3.757
			c-0.405-0.598-0.723-1.265-0.876-1.974c-0.393-1.863-0.009-3.833,0.146-5.704c0.06-0.805,0.13-1.647-0.092-2.434
			c-0.27-1.013-1.304-1.392-2.152-1.822c-0.813-0.402-1.494-0.92-1.815-1.799c-0.735-2.083-0.391-4.79-0.805-6.973
			c-0.137-0.701-0.338-1.457-0.887-1.952c-0.531-0.463-1.259-0.585-1.937-0.667l-0.996-0.103c-0.505-0.064-1.045-0.134-1.467-0.441
			c-0.263-0.193-0.423-0.49-0.52-0.796c-0.453-1.619,0.023-3.486-0.68-5.051c-0.629-1.307-2.098-1.868-3.219-2.664
			c-0.586-0.403-1.133-0.923-1.367-1.612c-0.526-1.468-0.128-3.147-0.742-4.591c-0.223-0.51-0.662-0.884-1.143-1.144
			c-1.641-0.867-3.727-1.083-5.001-2.551c-1.389-1.701-1.491-4.059-2.292-6.035c-0.174-0.416-0.388-0.833-0.727-1.139
			c-0.316-0.292-0.751-0.406-1.171-0.427c-1.065-0.049-2.191,0.293-3.256,0.158c-0.679-0.078-1.214-0.381-1.655-0.9
			c-1.3-1.547-1.694-3.709-2.9-5.312c-0.258-0.323-0.599-0.607-1.019-0.673c-0.648-0.114-1.34,0.158-1.962,0.307
			c-0.432,0.109-0.888,0.209-1.333,0.127c-0.266-0.047-0.51-0.179-0.717-0.35c-0.985-0.861-1.582-2.417-2.343-3.483
			c-0.341-0.489-0.731-0.977-1.266-1.262c-0.656-0.343-1.431-0.29-2.143-0.203c-1.04,0.124-2.202,0.404-3.206-0.012
			c-0.711-0.302-1.233-0.911-1.686-1.517c-0.951-1.291-1.686-2.911-2.706-4.15c-0.271-0.32-0.574-0.624-0.939-0.836
			c-1.299-0.728-2.799,0.137-4.174,0.061c-0.48-0.016-0.951-0.179-1.332-0.473c-1.093-0.858-1.812-2.253-2.591-3.382
			c-0.574-0.827-1.277-1.897-2.269-2.232c-0.649-0.207-1.343-0.066-1.986,0.098c-0.776,0.189-1.634,0.531-2.44,0.384
			c-0.321-0.06-0.613-0.226-0.862-0.433c-1.139-0.965-1.699-2.554-2.895-3.461c-0.545-0.404-1.254-0.455-1.91-0.406
			c-0.983,0.073-2.034,0.29-3.013,0.086c-1.021-0.213-1.917-0.801-2.764-1.383c-1.156-0.779-2.411-1.911-3.779-2.267
			c-0.63-0.152-1.29-0.079-1.913,0.075c-1.071,0.278-2.18,0.693-3.296,0.729c-1.935,0.099-3.867-0.308-5.738-0.764"/>
	</g>
	<g id="POLYLINE_00000096751825929198845230000001382786965635074693_">
		
			<path fill="none" stroke="#FB8604" stroke-width="2.75" stroke-linecap="round" stroke-linejoin="round" stroke-miterlimit="10" d="
			M488.964,211.102c-0.534-2.494-0.167-5.087,0.334-7.557c0.276-1.276,0.666-2.912,1.012-4.17c0.09-0.295,0.193-0.596,0.328-0.874
			c0.206-0.434,0.507-0.828,0.896-1.113c0.484-0.361,1.068-0.565,1.651-0.703c1.188-0.271,2.431-0.325,3.647-0.332
			c2.031,0.002,4.101,0.201,6.109,0.505c2.226,0.347,4.465,0.839,6.603,1.553c1.324,0.45,2.647,0.986,3.835,1.728
			c1.15,0.705,2.173,1.729,2.547,3.055c0.315,1.057,0.267,2.184,0.135,3.267c-0.258,1.901-0.778,4.142-1.014,6.044
			c-0.467,3.432-0.934,9.469-1.439,12.87"/>
	</g>
	<g id="POLYLINE_00000113312835693095273700000017427893456804498331_">
		
			<path fill="none" stroke="#FB8604" stroke-width="2.75" stroke-linecap="round" stroke-linejoin="round" stroke-miterlimit="10" d="
			M466.602,386.416c9.496-6.385,18.298-14.115,24.704-23.669c4.883-7.214,8.513-15.301,11.2-23.571
			c3.04-9.475,4.909-19.44,5.19-29.396"/>
	</g>
	<g id="POLYLINE_00000007387989136286486820000000083443367088198277_">
		
			<path fill="none" stroke="#FB8604" stroke-width="2.75" stroke-linecap="round" stroke-linejoin="round" stroke-miterlimit="10" d="
			M446.225,404.872c1.379,0.448,2.836,0.69,4.287,0.665c1.002-0.026,2.031-0.179,2.928-0.649c1.043-0.527,1.681-1.633,2.311-2.571
			c0.342-0.496,0.722-0.999,1.251-1.308c0.387-0.228,0.839-0.312,1.282-0.336c1.864-0.088,3.815,0.656,5.651,0.108
			c1.563-0.528,2.471-2.054,3.683-3.075c0.394-0.333,0.84-0.624,1.342-0.761c0.823-0.233,1.826-0.116,2.672-0.093
			c0.691,0.017,1.435,0.003,2.041-0.371c0.318-0.195,0.563-0.489,0.759-0.803c0.362-0.586,0.596-1.254,0.815-1.905
			c0.39-1.193,0.773-2.658,1.377-3.743c0.199-0.352,0.436-0.69,0.736-0.963c0.483-0.448,1.133-0.654,1.773-0.741
			c1.276-0.178,2.688,0.035,3.958-0.201c0.569-0.105,1.127-0.343,1.529-0.768c0.4-0.411,0.678-0.926,0.912-1.445
			c0.6-1.338,0.95-2.925,1.683-4.201c0.376-0.66,0.888-1.184,1.6-1.471c1.486-0.632,3.284-0.383,4.715-1.17
			c0.592-0.329,0.978-0.919,1.22-1.537c0.755-1.939,0.683-4.259,1.48-6.185c0.232-0.557,0.608-1.057,1.115-1.39
			c0.849-0.578,1.919-0.784,2.812-1.277c0.399-0.221,0.765-0.52,1.007-0.911c0.278-0.447,0.419-0.965,0.52-1.476
			c0.283-1.467,0.234-3.116,0.555-4.577c0.105-0.455,0.252-0.914,0.52-1.301c0.186-0.269,0.441-0.488,0.722-0.654
			c0.843-0.497,1.912-0.637,2.775-1.09c0.523-0.263,0.972-0.681,1.225-1.213c0.512-1.081,0.578-2.315,0.642-3.491
			c0.069-1.837-0.036-4.169,0.166-5.993c0.064-0.53,0.16-1.072,0.352-1.572c0.161-0.418,0.405-0.804,0.714-1.128
			c0.495-0.531,1.183-0.913,1.773-1.314c0.472-0.316,0.928-0.673,1.299-1.107c0.542-0.63,0.947-1.373,1.277-2.133
			c0.831-1.968,1.243-4.112,1.33-6.242"/>
	</g>
	<g id="POLYLINE_00000085217097503740984950000014088970685172261545_">
		
			<path fill="none" stroke="#FB8604" stroke-width="2.75" stroke-linecap="round" stroke-linejoin="round" stroke-miterlimit="10" d="
			M456.69,367.251c4.582-2.901,8.994-6.219,12.62-10.274c5.741-6.429,9.726-14.312,12.5-22.428c1.707-5.17,2.91-10.609,2.755-16.079
			c-0.113-5.342-1.573-10.576-3.371-15.574"/>
	</g>
	<g id="POLYLINE_00000031903851548424836640000013062035767772937621_">
		
			<path fill="none" stroke="#FB8604" stroke-width="2.75" stroke-linecap="round" stroke-linejoin="round" stroke-miterlimit="10" d="
			M456.822,355.021c4.545-4.222,7.879-9.611,10.965-14.944c1.13-2.104,2.249-4.42,2.058-6.87c-0.104-1.221-0.604-2.379-1.267-3.398
			c-1.035-1.577-2.442-2.889-3.957-4"/>
	</g>
	<g id="POLYLINE_00000008868366568238435840000004196768909465098426_">
		
			<path fill="none" stroke="#FB8604" stroke-width="2.75" stroke-linecap="round" stroke-linejoin="round" stroke-miterlimit="10" d="
			M459.053,331.473l1.554-1.17c1.39-1.065,2.726-2.271,3.628-3.789c1.192-2.007,1.664-4.543,2.498-6.704
			c0.538-1.426,1.245-2.845,2.382-3.889c2.285-2.065,5.559-2.591,8.089-4.259c0.652-0.436,1.233-0.994,1.625-1.678
			c0.764-1.285,1.005-3.022,1.339-4.462c0.235-1.02,0.548-2.062,1.218-2.887c1.142-1.431,2.949-2.38,3.965-3.924
			c0.424-0.623,0.703-1.337,0.913-2.057c0.508-1.757,0.679-3.84,1.063-5.628c0.23-1.07,0.565-2.162,1.29-3.007
			c0.747-0.922,1.883-1.573,2.673-2.453c1.052-1.205,1.348-2.855,1.561-4.393"/>
	</g>
	<g id="POLYLINE_00000096042063435601323180000014040128330729620921_">
		
			<path fill="none" stroke="#FB8604" stroke-width="2.75" stroke-linecap="round" stroke-linejoin="round" stroke-miterlimit="10" d="
			M196.463,316.028c7.701,1.19,15.181,3.894,21.871,7.887c6.526,3.902,12.348,9.13,16.512,15.522
			c5.297,8.057,8.843,19.781,1.159,27.522c-4.45,4.518-10.819,6.734-17.055,7.155c-6.784,0.475-13.579-1.47-19.393-4.92
			c-9.036-5.334-15.997-13.86-20.102-23.463c-5.49-12.614-5.25-26.927-2.426-40.178c2.424-11.359,6.689-22.349,12.109-32.605
			c5.383-10.121,11.981-19.709,19.824-28.085"/>
	</g>
	<g id="POLYLINE_00000088093827366254830640000005938771895909252486_">
		
			<path fill="none" stroke="#FB8604" stroke-width="2.75" stroke-linecap="round" stroke-linejoin="round" stroke-miterlimit="10" d="
			M528.686,408.37c6.751-15.831,11.697-32.645,15.431-49.428c3.93-18.422,6.624-37.69,3.244-56.406
			c-1.681-9.327-4.909-18.38-9.404-26.719c-5.952-11.076-14.034-20.992-22.901-29.862c-7.156-7.114-15.031-13.727-23.391-19.383
			c-5.985-4.021-12.364-7.67-19.112-10.249c-9.426-3.706-19.691-4.911-29.739-5.521"/>
	</g>
	<g id="POLYLINE_00000130618727371462983400000005166835392090167451_">
		
			<path fill="none" stroke="#FB8604" stroke-width="2.75" stroke-linecap="round" stroke-linejoin="round" stroke-miterlimit="10" d="
			M490.756,511.017c-8.298-1.502-16.443-4.394-23.492-9.076c-16.165-10.623-26.059-28.893-29.346-47.666
			c-3.603-20.261-0.495-41.468,2.487-61.638c0.897-5.604,1.826-12.147,3.256-17.627c0.721-2.815,1.789-5.572,3.332-8.042
			c1.002-1.623,2.239-3.475,3.07-5.162c0.488-0.995,0.864-2.058,0.986-3.164c0.203-1.55-0.02-3.207,0.373-4.731
			c0.517-1.891,1.892-3.547,2.216-5.503c0.31-1.742,0.139-3.629,0.684-5.329c0.672-2.114,2.514-3.689,3.712-5.497
			c0.549-0.811,1.013-1.709,1.172-2.684c0.292-1.761-0.251-3.716-0.492-5.46c-0.091-0.721-0.165-1.48,0.059-2.184
			c0.247-0.784,0.838-1.421,1.279-2.099c0.299-0.454,0.535-0.957,0.637-1.493c0.141-0.721,0.123-1.471,0.083-2.201
			c-0.141-2.576-0.801-5.397,0.321-7.841c0.624-1.469,1.715-2.762,2.156-4.309c0.171-0.607,0.183-1.248,0.113-1.871
			c-0.219-1.928-1.078-3.868-0.905-5.833c0.188-2.06,1.445-3.956,1.83-5.969c0.57-2.832-1.696-5.349-1.612-8.152
			c0.085-2.278,1.409-4.358,2.011-6.512c0.232-0.804,0.346-1.657,0.207-2.489c-0.302-1.996-1.64-3.815-1.541-5.881
			c0.098-2.307,1.369-4.498,1.249-6.828c-0.093-1.795-1.033-3.492-1.132-5.285c-0.062-1.237,0.486-2.415,0.871-3.56
			c0.242-0.721,0.443-1.479,0.403-2.246c-0.041-0.801-0.353-1.562-0.71-2.27c-0.821-1.627-2.077-3.194-2.595-4.96
			c-0.469-1.569-0.048-3.281-0.313-4.874c-0.235-1.528-1.65-2.614-2.662-3.662c-0.738-0.751-1.462-1.589-1.762-2.619
			c-0.595-2.194,0.283-4.568-0.097-6.785c-0.307-2.061-2.26-3.232-3.74-4.454c-0.949-0.772-1.901-1.667-2.076-2.94
			c-0.192-1.173,0.043-2.449-0.017-3.629c-0.03-0.666-0.16-1.344-0.5-1.925c-0.684-1.145-1.843-1.904-2.931-2.627
			c-1.851-1.201-3.991-2.322-5.382-4.06c-1.607-1.975-2.049-4.794-3.791-6.615c-1.046-1.065-2.512-1.561-3.919-1.951
			c-2.178-0.602-4.675-0.881-6.754-1.791c-1.345-0.582-2.54-1.689-3.816-2.394c-0.532-0.286-1.117-0.488-1.721-0.54
			c-2.061-0.139-4.484,0.776-6.556,0.972c-0.863,0.097-1.749,0.117-2.606-0.041c-0.914-0.168-1.783-0.54-2.602-0.972
			c-2.098-1.106-4.149-2.797-6.525-3.26c-1.19-0.238-2.423-0.095-3.596,0.175c-2.895,0.653-5.781,2.208-8.731,2.63
			c-1.091,0.155-2.209,0.01-3.243-0.362c-2.17-0.774-4.222-2.295-6.596-2.373c-3.425-0.148-6.82,1.343-10.242,1.238
			c-1.632-0.043-3.239-0.787-4.731-1.377c-0.93-0.359-1.916-0.656-2.923-0.611c-1.175,0.056-2.287,0.525-3.349,0.998
			c-1.545,0.689-3.28,1.668-4.925,1.99c-0.805,0.17-1.647,0.132-2.431-0.12c-2.03-0.607-3.781-2.307-5.984-2.285
			c-1.315,0.051-2.513,0.706-3.625,1.355c-1.962,1.147-4.012,2.836-6.228,3.43c-0.912,0.235-1.871,0.226-2.801,0.108
			c-1.565-0.189-3.271-0.698-4.855-0.648c-1.676,0.023-3.277,0.668-4.711,1.495c-2.003,1.174-3.785,2.734-5.243,4.54
			c-0.689,0.855-1.278,1.799-1.737,2.796c-0.494,1.043-0.905,2.279-1.542,3.243c-0.576,0.906-1.469,1.515-2.404,2.004
			c-1.134,0.62-2.639,1.227-3.684,1.984c-0.59,0.417-1.132,0.929-1.486,1.565c-0.921,1.699-0.833,3.786-1.333,5.616
			c-0.309,1.237-0.873,2.211-1.803,3.081c-1.736,1.699-4.4,2.882-5.5,5.13c-0.64,1.397-0.549,2.991-0.447,4.487
			c0.159,2.168,0.572,4.634-0.22,6.717c-0.694,1.833-2.186,3.348-3.301,4.926c-0.387,0.559-0.746,1.158-0.93,1.817
			c-0.176,0.626-0.157,1.291-0.056,1.928c0.274,1.613,0.952,3.274,0.945,4.929c-0.024,3.007-1.841,5.81-2.178,8.764
			c-0.136,1.15,0.137,2.157,0.7,3.17c0.621,1.166,1.612,2.339,1.797,3.684c0.093,0.754-0.123,1.507-0.381,2.209
			c-0.653,1.782-1.875,3.662-1.449,5.636c0.371,1.8,1.6,3.352,2.328,5.009c0.285,0.631,0.464,1.317,0.471,2.011
			c0.024,0.92-0.215,1.849-0.355,2.751c-0.145,0.891-0.012,1.736,0.048,2.615"/>
	</g>
	<g id="POLYLINE_00000147923868935343419800000011531004826501542814_">
		
			<path fill="none" stroke="#FB8604" stroke-width="2.75" stroke-linecap="round" stroke-linejoin="round" stroke-miterlimit="10" d="
			M512.814,526.012c10.852-0.955,21.64-3.58,31.684-7.806c8.284-3.502,16.161-8.247,22.556-14.62
			c1.666-1.684,3.338-3.455,4.583-5.48c0.261-0.453,0.525-0.928,0.615-1.448l0.004-0.026l0.003-0.026l0.003-0.025l0.002-0.025
			l0.001-0.024l0.001-0.024l0-0.023l0-0.023l-0.001-0.022l-0.001-0.022l-0.002-0.022l-0.002-0.021l-0.003-0.021l-0.003-0.02
			l-0.004-0.02l-0.005-0.019l-0.005-0.019l-0.006-0.018l-0.006-0.018l-0.007-0.017l-0.007-0.017l-0.008-0.016l-0.008-0.016
			l-0.009-0.016l-0.01-0.015l-0.01-0.015l-0.013-0.017l-0.014-0.017l-0.015-0.016l-0.016-0.015l-0.017-0.014l-0.018-0.014
			l-0.019-0.013l-0.019-0.012l-0.02-0.012l-0.021-0.011l-0.022-0.01l-0.023-0.009l-0.024-0.009l-0.025-0.008l-0.025-0.007
			l-0.026-0.007l-0.027-0.006l-0.028-0.005l-0.029-0.005l-0.03-0.004l-0.03-0.003l-0.031-0.003l-0.032-0.002l-0.033-0.001
			l-0.034-0.001l-0.035,0c-0.74,0.031-1.459,0.303-2.153,0.544c-6.74,2.733-14.118,6.523-21.142,8.955
			c-12.197,4.345-25.133,6.727-38.076,7.047"/>
	</g>
	<g id="POLYLINE_00000112597165021718770110000011754873196839974568_">
		
			<path fill="none" stroke="#FB8604" stroke-width="2.75" stroke-linecap="round" stroke-linejoin="round" stroke-miterlimit="10" d="
			M377.937,237.5c11.865,3.946,24.42,9.424,31.244,20.482c4.234,6.875,6.125,14.928,7.154,22.86
			c2.034,16.968,0.289,34.284-2.305,51.1c-2.609,15.903-6.743,38.466-7.515,54.358c-1.361,23.616-0.391,47.776,5.847,70.695
			c2.042,7.295,4.735,14.517,8.368,21.176c3.65,6.708,8.26,12.938,13.583,18.414c8.062,8.313,17.789,14.964,28.225,19.939
			c9.619,4.595,19.96,7.83,30.554,9.134"/>
	</g>
	<g id="POLYLINE_00000172407314015370794130000011023123273485320612_">
		
			<path fill="none" stroke="#FB8604" stroke-width="2.75" stroke-linecap="round" stroke-linejoin="round" stroke-miterlimit="10" d="
			M463.547,259.444l7.718,3.3c4.78,2.104,9.336,4.829,13.143,8.429c3.339,3.104,6.212,6.763,8.798,10.51
			c3.579,5.224,6.707,10.839,9.465,16.536c4.979,10.353,8.918,21.28,11.54,32.468c1.689,7.286,2.825,14.803,2.997,22.287
			c0.12,5.45-0.31,10.981-1.201,16.357c-1.423,8.645-4.092,17.157-7.186,25.341c-3.445,9.265-9.192,21.999-12.12,31.406
			c-5.183,15.855-7.314,32.629-7.612,49.267c-0.345,19.652,1.049,39.592,5.926,58.683c2.156,8.242,5.048,16.402,9.206,23.859
			c3.879,6.945,8.919,13.301,14.973,18.475c8.508,7.316,19.141,12.208,30.299,13.58c16.805,2.077,34.081-2.843,48.106-12.12
			c13.302-8.807,23.781-21.872,29.226-36.888c1.046-2.982,2.067-6.068,2.308-9.236c0.033-0.708,0.039-1.452-0.216-2.124
			l-0.014-0.033l-0.014-0.033l-0.015-0.032l-0.015-0.031l-0.016-0.03l-0.016-0.03l-0.016-0.029l-0.017-0.028l-0.017-0.027
			l-0.018-0.027l-0.018-0.026l-0.018-0.025l-0.019-0.024l-0.019-0.024l-0.02-0.023l-0.02-0.022l-0.021-0.021l-0.021-0.021
			l-0.021-0.02l-0.022-0.019l-0.022-0.018l-0.023-0.018l-0.023-0.017l-0.024-0.016l-0.023-0.015l-0.023-0.014l-0.024-0.013
			l-0.024-0.012l-0.025-0.012l-0.025-0.011l-0.025-0.01l-0.026-0.009l-0.026-0.009l-0.027-0.008l-0.027-0.007l-0.027-0.007
			l-0.028-0.006l-0.028-0.005l-0.029-0.005l-0.029-0.004l-0.029-0.003l-0.03-0.002l-0.03-0.002l-0.03-0.001l-0.031,0l-0.031,0
			l-0.031,0.001l-0.032,0.002l-0.032,0.002l-0.033,0.003l-0.033,0.004l-0.033,0.004c-0.477,0.071-0.921,0.288-1.339,0.521
			c-1.901,1.137-3.533,2.735-5.127,4.26c-13.437,13.347-25.757,30.693-44.818,36.104c-7.372,2.073-15.229,2.375-22.767,1.084
			c-6.796-1.18-13.457-3.703-19.015-7.835c-8.623-6.412-14.188-16.048-18.082-25.891c-2.886-7.363-5.113-15.076-6.149-22.928
			c-3.047-22.365,4.261-45.99,9.206-67.649c1.339-5.214,2.676-12.869,4.155-18.039c0.328-1.054,0.702-2.15,1.197-3.14
			c0.408-0.829,0.918-1.619,1.547-2.298c0.854-0.935,2.072-1.891,2.873-2.875c0.861-1.018,1.285-2.316,1.607-3.589
			c0.506-1.967,0.873-4.324,2.011-6.036c0.864-1.313,2.377-2.373,3.585-3.357c0.923-0.755,1.819-1.601,2.379-2.668
			c1.081-2.058,1.127-4.689,1.752-6.893c0.227-0.809,0.587-1.515,1.21-2.09c0.668-0.632,1.488-1.155,2.033-1.909
			c0.425-0.567,0.681-1.241,0.878-1.917c0.696-2.467,0.823-5.509,1.556-7.966c0.345-1.193,0.883-2.092,1.784-2.952
			c0.763-0.735,1.648-1.491,1.963-2.535c0.155-0.483,0.22-0.997,0.255-1.502c0.098-1.632-0.112-3.619-0.104-5.256
			c0.01-1.267,0.085-2.595,0.671-3.743c0.968-1.917,3.078-3.15,3.723-5.256c0.828-2.817,0.031-5.899,0.355-8.772
			c0.068-0.565,0.222-1.126,0.505-1.623c0.408-0.738,1.056-1.341,1.468-2.076c0.3-0.518,0.447-1.11,0.515-1.701
			c0.256-2.524-0.244-5.353,0.245-7.858c0.379-2.18,1.831-4.029,2.716-6.01c0.485-1.088,0.648-2.151,0.506-3.337
			c-0.16-1.516-0.664-3.038-0.829-4.552c-0.079-0.719-0.051-1.462,0.199-2.147c0.521-1.461,1.685-2.679,1.989-4.225
			c0.168-0.819,0.107-1.669-0.007-2.492c-0.255-1.861-0.968-4.029-1.061-5.91c-0.033-0.68,0.064-1.364,0.223-2.024l0.3-1.199
			c0.195-0.793,0.273-1.636,0.046-2.431c-0.667-2.297-2.433-4.251-2.912-6.616c-0.152-0.765-0.046-1.556,0.17-2.298
			c0.258-0.933,0.708-1.867,0.794-2.84c0.061-0.626-0.128-1.243-0.406-1.797c-0.577-1.172-1.508-2.233-1.854-3.511
			c-0.204-0.763-0.097-1.568,0.06-2.33c0.268-1.296,0.72-2.688,0.359-4.008c-0.43-1.579-1.6-2.977-2.51-4.309
			c-0.55-0.794-1.102-1.63-1.45-2.536c-0.344-0.884-0.508-1.836-0.625-2.773c-0.169-1.442-0.316-3.01-0.89-4.357
			c-0.494-1.176-1.265-2.446-2.516-2.905c-0.609-0.216-1.273-0.137-1.895-0.023c-0.563,0.097-1.255,0.299-1.825,0.239
			c-0.139-0.017-0.279-0.055-0.4-0.127l-0.013-0.008l-0.012-0.008l-0.012-0.008l-0.012-0.008l-0.012-0.008
			c-0.218-0.157-0.347-0.405-0.436-0.652c-0.218-0.644-0.249-1.343-0.29-2.017c-0.075-2.267-0.11-4.797-0.769-6.974
			c-0.298-1.017-0.69-2.034-1.329-2.889c-0.395-0.521-0.922-0.991-1.575-1.139c-0.739-0.161-1.491,0.09-2.182,0.339
			c-0.533,0.189-1.226,0.525-1.786,0.585c-0.104,0.008-0.212,0.006-0.312-0.025l-0.009-0.003l-0.01-0.004l-0.01-0.004l-0.01-0.004
			l-0.01-0.004l-0.01-0.004l-0.01-0.005l-0.01-0.005l-0.01-0.005l-0.01-0.005l-0.009-0.005l-0.009-0.006l-0.009-0.006l-0.009-0.006
			l-0.009-0.006l-0.009-0.006l-0.009-0.006l-0.009-0.007l-0.008-0.007l-0.008-0.007l-0.008-0.007l-0.008-0.007l-0.008-0.008
			l-0.008-0.008l-0.008-0.008l-0.008-0.008l-0.008-0.008c-0.138-0.158-0.201-0.365-0.246-0.566c-0.218-1.232-0.068-3.196-0.35-4.721
			c-0.349-2-1.063-4.002-2.315-5.618c-0.506-0.615-1.162-1.248-1.999-1.299c-0.54-0.02-1.043,0.236-1.501,0.495
			c-0.451,0.249-0.949,0.617-1.459,0.72c-0.127,0.022-0.259,0.022-0.383-0.016l-0.014-0.004l-0.014-0.005l-0.014-0.005l-0.014-0.005
			l-0.014-0.006l-0.014-0.006l-0.014-0.006l-0.013-0.007l-0.013-0.007l-0.013-0.007l-0.013-0.007l-0.013-0.008l-0.013-0.008
			l-0.013-0.008c-0.293-0.197-0.473-0.517-0.626-0.826c-0.905-2.004-1.039-4.474-1.852-6.51c-0.257-0.605-0.667-1.167-1.369-1.235
			c-0.275-0.031-0.553,0.007-0.822,0.063c-1.154,0.257-2.34,0.861-3.5,1.093c-0.42,0.078-0.888,0.127-1.278-0.082
			c-0.245-0.135-0.418-0.37-0.537-0.619c-0.209-0.447-0.291-0.943-0.353-1.429c-0.186-1.552-0.071-3.267-0.418-4.797
			c-0.13-0.552-0.323-1.106-0.667-1.563c-0.214-0.285-0.498-0.523-0.828-0.661c-0.342-0.146-0.722-0.177-1.091-0.16
			c-1.074,0.029-2.459,0.565-3.491,0.41c-0.318-0.054-0.567-0.231-0.729-0.511c-0.428-0.77-0.449-2.112-0.679-3.009
			c-0.23-1.083-0.75-2.098-1.47-2.936c-0.95-1.112-2.235-1.945-3.648-2.33c-1.49-0.412-3.153-0.259-4.682-0.254
			c-0.775-0.01-1.601-0.014-2.303-0.383c-0.513-0.28-0.856-0.781-1.145-1.274c-0.596-1.067-1.115-2.062-2.182-2.738
			c-1.067-0.7-2.327-1.09-3.593-1.208c-1.216-0.114-2.328,0.082-3.412,0.651c-0.51,0.239-1.141,0.67-1.708,0.733
			c-0.126,0.01-0.256-0.006-0.372-0.059c-0.447-0.214-0.715-0.821-0.93-1.246c-0.626-1.379-1.278-2.873-2.4-3.924
			c-1.418-1.378-3.293-2.334-5.271-2.532c-0.792-0.078-1.594,0.023-2.37,0.186l-1.323,0.292c-0.691,0.14-1.432,0.255-2.117,0.026
			c-0.819-0.285-1.435-0.942-2.002-1.571c-0.966-1.097-1.938-2.421-3.124-3.284c-1.32-1.007-2.948-1.689-4.628-1.651
			c-1.908,0.028-3.796,1.014-5.716,0.855c-1.186-0.104-2.172-0.863-3.048-1.609c-1.037-0.894-2.151-2.002-3.313-2.723
			c-0.723-0.458-1.527-0.795-2.354-1.012c-2.165-0.549-4.578-0.466-6.642,0.425c-0.906,0.372-1.907,1.198-2.868,1.312
			c-0.47,0.055-0.929-0.117-1.339-0.331c-1.448-0.781-2.809-2.078-4.549-2.071c-1.943-0.019-3.806,0.969-5.737,1.045
			c-0.711,0.024-1.419-0.119-2.098-0.321c-1.567-0.492-3.177-1.182-4.852-1.14c-1.726,0.006-3.439,0.39-5.087,0.877
			c-1.702,0.515-3.395,1.161-4.941,2.047"/>
	</g>
	<g id="POLYLINE_00000072244095916094552260000000324919741891727024_">
		
			<path fill="none" stroke="#FB8604" stroke-width="2.75" stroke-linecap="round" stroke-linejoin="round" stroke-miterlimit="10" d="
			M308.178,290.476c0.671-0.92,1.396-1.883,1.623-3.022c0.132-0.633,0.042-1.29-0.191-1.888c-0.493-1.303-1.437-2.522-1.928-3.826
			c-0.193-0.513-0.307-1.071-0.215-1.617c0.194-1.142,0.973-2.139,1.432-3.182c0.237-0.52,0.42-1.073,0.479-1.643
			c0.07-0.678-0.018-1.367-0.152-2.032c-0.418-2.073-1.375-4.1-1.516-6.226c-0.064-0.908,0.172-1.812,0.589-2.615
			c0.645-1.28,1.686-2.507,2.104-3.895c0.337-1.063,0.221-2.204,0.014-3.281c-0.279-1.601-1.003-3.402-1.016-5.029
			c0.007-0.322,0.071-0.646,0.214-0.936c0.2-0.433,0.57-0.796,0.871-1.158c0.282-0.33,0.537-0.698,0.66-1.119
			c0.189-0.668,0.122-1.381,0.06-2.062l-0.218-1.853c-0.106-1.169-0.226-2.566,0.675-3.468c1.222-1.219,3.308-1.575,4.041-3.274
			c0.255-0.598,0.328-1.258,0.353-1.903c0.069-1.89-0.372-4.018-0.207-5.905c0.062-0.599,0.201-1.223,0.593-1.697
			c0.499-0.603,1.263-0.891,1.983-1.138c1.109-0.37,2.338-0.67,3.257-1.427c0.472-0.385,0.829-0.894,1.117-1.427
			c0.612-1.14,1.025-2.608,1.446-3.835c0.378-1.042,0.812-2.338,1.778-2.973c0.538-0.342,1.19-0.433,1.816-0.46
			c1.448-0.054,3.03,0.209,4.42-0.306c0.602-0.218,1.132-0.6,1.596-1.036c0.968-0.906,1.823-2.181,2.627-3.236
			c0.481-0.617,0.975-1.256,1.621-1.709c0.347-0.244,0.763-0.403,1.192-0.379c1.13,0.071,2.224,0.921,3.251,1.354
			c0.499,0.221,1.033,0.399,1.584,0.411c0.414,0.01,0.826-0.086,1.212-0.232c2.103-0.842,3.7-2.794,5.802-3.639
			c1.266-0.522,2.622-0.194,3.831,0.324c1.156,0.486,2.576,1.266,3.762,1.669c0.828,0.289,1.699,0.471,2.571,0.56
			c2.247,0.216,4.581-0.101,6.627-1.078c1.114-0.523,2.203-1.325,3.414-1.614c0.527-0.127,1.08-0.13,1.613-0.035
			c0.777,0.134,1.529,0.417,2.256,0.716c1.739,0.737,3.838,1.81,5.658,2.314c2.351,0.65,4.916,0.675,7.232-0.128
			c1.049-0.343,1.982-1.011,2.865-1.656c0.513-0.357,1.087-0.703,1.729-0.714c0.487-0.007,0.959,0.151,1.408,0.326
			c1.079,0.429,2.13,1.054,3.283,1.268c1.575,0.307,2.967-0.608,4.451-0.555c0.631,0.027,1.185,0.374,1.658,0.765
			c1.026,0.857,1.974,1.984,3.212,2.545c0.854,0.402,1.818,0.472,2.749,0.465c0.909-0.004,2.205-0.133,3.114-0.125
			c0.4,0.006,0.808,0.031,1.195,0.138c0.469,0.126,0.822,0.386,1.031,0.829c0.499,1.108,0.358,2.547,0.832,3.697
			c0.277,0.737,0.841,1.239,1.521,1.605c1.115,0.608,2.567,0.966,3.724,1.485c0.602,0.271,1.2,0.605,1.636,1.111
			c0.737,0.854,0.981,2.088,1.307,3.14c0.279,0.934,0.649,1.877,1.318,2.605c0.488,0.535,1.104,0.94,1.733,1.291
			c1.367,0.763,3.188,1.397,4.588,2.099c0.752,0.395,1.59,0.844,1.998,1.623c0.258,0.519,0.209,1.128,0.094,1.679
			c-0.248,1.218-0.875,2.45-0.676,3.718c0.063,0.375,0.226,0.728,0.439,1.041c0.972,1.364,2.716,2.302,4.058,3.255
			c0.831,0.601,1.856,1.271,2.187,2.291c0.3,0.933-0.046,2.016-0.225,2.946c-0.203,0.98-0.252,1.997-0.104,2.988
			c0.198,1.385,0.815,2.724,1.83,3.699c0.855,0.889,2.439,1.78,3.113,2.696c0.124,0.181,0.22,0.392,0.216,0.614
			c-0.004,0.226-0.105,0.437-0.224,0.624c-0.711,1.033-1.941,1.806-2.273,3.074c-0.35,1.492,0.549,3.256,0.97,4.672
			c0.229,0.729,0.429,1.491,0.411,2.261c-0.016,0.991-0.378,1.988-0.656,2.93c-0.191,0.663-0.349,1.363-0.245,2.055
			c0.137,0.921,0.743,1.877,1.159,2.699c0.301,0.601,0.604,1.252,0.565,1.939c-0.028,0.439-0.214,0.85-0.432,1.226
			c-0.493,0.845-1.204,1.61-1.561,2.531c-0.583,1.402,0.386,2.913,0.964,4.187c0.231,0.502,0.463,1.018,0.555,1.566
			c0.091,0.503-0.016,0.971-0.286,1.401c-0.46,0.745-1.208,1.34-1.674,2.081c-0.223,0.347-0.376,0.744-0.404,1.158
			c-0.073,0.995,0.333,2.141,0.574,3.101c0.211,0.839,0.416,1.731,0.214,2.592c-0.345,1.402-1.602,2.364-2.173,3.656
			c-0.245,0.553-0.243,1.101-0.068,1.674c0.308,1.059,1.033,2.076,1.231,3.169c0.055,0.32,0.049,0.657-0.059,0.966
			c-0.151,0.436-0.449,0.803-0.761,1.135c-0.73,0.763-1.694,1.453-2.367,2.27c-0.27,0.329-0.506,0.698-0.627,1.11
			c-0.181,0.62-0.085,1.282,0.069,1.897c0.294,1.249,1.037,2.613,0.941,3.907c-0.043,0.487-0.284,0.934-0.585,1.311
			c-0.535,0.678-1.305,1.254-1.866,1.91c-0.248,0.292-0.472,0.619-0.578,0.991c-0.114,0.401-0.082,0.829-0.004,1.234
			c0.167,0.863,0.563,1.754,0.689,2.627c0.055,0.383,0.052,0.783-0.077,1.151c-0.204,0.581-0.628,1.053-1.045,1.492
			c-0.68,0.72-1.551,1.454-1.906,2.4c-0.188,0.501-0.202,1.049-0.151,1.576c0.108,1.165,0.562,2.413,0.617,3.585
			c0.019,0.43-0.038,0.869-0.222,1.261c-0.343,0.752-1.015,1.35-1.487,2.017c-0.229,0.322-0.423,0.681-0.503,1.071
			c-0.074,0.349-0.053,0.712,0.003,1.062c0.234,1.35,0.927,2.661,1.228,3.995c0.089,0.403,0.146,0.824,0.096,1.236
			c-0.079,0.655-0.468,1.218-0.881,1.713c-0.514,0.626-1.196,1.277-1.393,2.087c-0.272,1.265,0.305,2.543,0.233,3.814
			c-0.03,1.307-1.156,2.146-1.993,3.006c-0.577,0.582-1.133,1.242-1.352,2.048c-0.19,0.708-0.14,1.456-0.049,2.176
			c0.205,1.689,0.854,3.534,0.603,5.245c-0.209,1.453-1.567,2.328-2.63,3.171c-0.568,0.465-1.227,1-1.32,1.777
			c-0.042,0.383,0.044,0.767,0.159,1.13c0.488,1.469,1.474,2.869,1.532,4.456c0.026,0.663-0.177,1.313-0.472,1.901
			c-0.61,1.231-1.775,2.524-2.618,3.61c-0.69,0.899-1.397,1.849-1.683,2.963c-0.153,0.613-0.133,1.258-0.019,1.876
			c0.306,1.708,1.322,3.35,1.479,5.09c0.069,0.8-0.145,1.595-0.447,2.33c-0.532,1.334-1.464,2.648-1.633,4.101
			c-0.126,1.154,0.349,2.414,0.658,3.512c0.178,0.637,0.333,1.297,0.319,1.962c-0.01,0.525-0.138,1.043-0.312,1.536
			c-0.464,1.312-1.301,2.579-1.651,3.933c-0.177,0.681-0.189,1.398-0.12,2.095c0.132,1.288,0.502,2.7,0.647,3.986
			c0.135,1.075,0.122,2.178,0.051,3.258c-0.138,2.3-0.635,4.995-0.602,7.3c0.012,0.988,0.224,1.968,0.577,2.888
			c0.328,0.841,0.838,2.038,1.064,2.9c0.28,1.024,0.454,2.124,0.603,3.176c0.255,1.928,0.55,4.934,0.943,6.807
			c0.314,1.594,0.969,3.512,1.484,5.065"/>
	</g>
	<g id="POLYLINE_00000048482795335610759490000007922352755930601620_">
		
			<path fill="none" stroke="#FB8604" stroke-width="2.75" stroke-linecap="round" stroke-linejoin="round" stroke-miterlimit="10" d="
			M388.008,314.877l4.352-0.875c2.492-0.533,4.968-1.335,7.138-2.696c2.727-1.689,4.945-4.099,6.835-6.665
			c6.53-9.111,9.655-20.713,8.596-31.871"/>
	</g>
	<g id="POLYLINE_00000050643763384600149020000015839469353499610539_">
		
			<path fill="none" stroke="#FB8604" stroke-width="2.75" stroke-linecap="round" stroke-linejoin="round" stroke-miterlimit="10" d="
			M343.699,245.092c-3.579,1.744-7.287,3.596-10.346,6.167c-2.366,1.964-4.356,4.407-5.718,7.169
			c-2.308,4.734-3.145,10.066-3.358,15.288c-0.224,7.382,0.835,14.895,3.589,21.771"/>
	</g>
	<g id="POLYLINE_00000055694353175097794930000003326989172011217553_">
		
			<path fill="none" stroke="#FB8604" stroke-width="2.75" stroke-linecap="round" stroke-linejoin="round" stroke-miterlimit="10" d="
			M453.534,348.886c1.977,2.651,3.559,5.725,3.915,9.05c0.299,2.614-0.281,5.585-0.63,8.182c-0.244,1.789-0.323,3.619-0.044,5.408
			c0.304,2.165,0.938,4.618,0.877,6.807c-0.022,1.201-0.244,2.404-0.695,3.52c-2.059,4.87-6.504,8.512-8.873,13.206
			c-0.59,1.172-0.926,2.462-1.046,3.766c-0.175,1.624-0.021,3.501-0.451,5.088c-0.212,0.801-0.629,1.539-1.182,2.154
			c-1.417,1.606-4.05,3.162-5.77,4.436c-0.612,0.446-1.312,0.975-1.891,1.459"/>
	</g>
	<g id="POLYLINE_00000054981899517976170500000006879885670277032343_">
		
			<path fill="none" stroke="#FB8604" stroke-width="2.75" stroke-linecap="round" stroke-linejoin="round" stroke-miterlimit="10" d="
			M295.569,251.116c-11.288-0.976-22.831,0.039-34.047,1.429c-11.361,1.506-23.148,3.476-33.135,9.411
			c-3.906,2.358-7.411,5.48-9.874,9.344c-2.524,3.917-4.114,8.413-4.865,13.002c-0.643,4.03-0.67,8.208,0.192,12.208
			c0.554,2.523,1.477,5.011,2.989,7.121c1.203,1.679,2.784,3.086,4.586,4.094c3.255,1.825,7.183,2.406,10.834,1.65
			c2.444-0.502,4.692-1.694,6.745-3.081c3.832-2.645,7.573-5.901,11.68-8.123c6.501-3.575,13.596-6.166,20.867-7.639
			c2.08-0.405,4.24-0.669,6.358-0.746c2.465-0.114,6.574,0.1,9.053,0.105c5.276-0.001,11.078-0.663,16.346-0.285
			c2.107,0.142,4.213,0.551,6.185,1.319c1.914,0.719,3.929,1.77,5.888,2.368c1.352,0.42,2.776,0.605,4.182,0.731
			c2.812,0.27,5.989,0.205,8.531,1.572c1.718,0.893,3.345,2.163,5.218,2.726c3.304,0.961,7.109,0.661,10.426,1.571
			c1.655,0.419,3.177,1.252,4.576,2.215c1.869,1.259,3.749,2.906,5.885,3.695c1.514,0.555,3.154,0.662,4.754,0.682
			c2.702,0.002,6.145-0.129,8.789,0.235c3.599,0.446,7.178,1.34,10.598,2.538c2.807,1.02,5.639,2.204,8.023,4.033
			c1.084,0.831,2.007,1.976,2.847,3.048c0.573,0.716,1.205,1.424,2.01,1.882c0.87,0.5,1.858,0.764,2.832,0.976
			c3.252,0.631,7.16,0.997,10.383,1.746c3.626,0.796,7.256,1.998,10.726,3.313"/>
	</g>
	<g id="POLYLINE_00000010310044076523319420000000928214854498992515_">
		
			<path fill="none" stroke="#FB8604" stroke-width="2.75" stroke-linecap="round" stroke-linejoin="round" stroke-miterlimit="10" d="
			M412.619,457.904c-1.303,0.843-2.712,1.689-3.611,2.987c-0.408,0.609-0.611,1.329-0.738,2.044l-0.178,1.067
			c-0.102,0.566-0.241,1.14-0.539,1.637c-0.251,0.43-0.623,0.778-1.041,1.044c-1.558,0.972-4.046,1.504-5.797,2.06
			c-1.132,0.358-2.302,0.727-3.295,1.396c-0.444,0.305-0.848,0.704-1.043,1.215c-0.35,0.904-0.162,1.941-0.087,2.881
			c0.058,0.759,0.118,1.647-0.442,2.244l-0.019,0.02c-0.344,0.346-0.811,0.536-1.268,0.683c-2.506,0.716-5.337,0.515-7.839,1.258
			c-0.633,0.199-1.28,0.478-1.712,1.001c-0.493,0.591-0.654,1.375-0.768,2.117c-0.158,1.059-0.243,2.275-0.753,3.231
			c-0.338,0.67-0.896,1.203-1.528,1.597c-0.946,0.593-2.017,0.982-3.075,1.323c-2.693,0.878-6.408,1.478-9.004,2.616
			c-0.591,0.276-1.188,0.602-1.616,1.106l-0.025,0.031l-0.025,0.031l-0.024,0.031l-0.023,0.032l-0.022,0.032l-0.022,0.032
			l-0.021,0.032l-0.02,0.033l-0.019,0.033l-0.018,0.033l-0.018,0.033c-0.397,0.784-0.141,1.697,0.116,2.485
			c0.336,1.027,0.873,2.105,0.955,3.194c0.028,0.413-0.03,0.841-0.227,1.21l-0.021,0.038l-0.022,0.038l-0.023,0.038l-0.024,0.038
			l-0.025,0.037l-0.026,0.037l-0.027,0.037l-0.028,0.037l-0.028,0.036l-0.029,0.036l-0.03,0.036l-0.031,0.036
			c-0.457,0.503-1.063,0.845-1.671,1.133c-3.343,1.456-7.703,1.999-11.252,2.837c-1.409,0.33-2.861,0.677-4.187,1.262
			c-0.673,0.297-1.308,0.705-1.789,1.268c-0.577,0.636-0.889,1.506-1.502,2.111c-0.411,0.405-0.971,0.608-1.53,0.706
			c-1.319,0.225-2.691,0.138-4.022,0.071c-2.458-0.122-5.888-0.593-8.308-0.18c-0.841,0.147-1.522,0.503-2.12,1.116
			c-0.445,0.442-0.883,0.993-1.493,1.21c-0.362,0.135-0.758,0.148-1.14,0.119c-0.749-0.06-1.497-0.256-2.221-0.451l-2.806-0.814
			c-0.91-0.244-1.848-0.489-2.794-0.515c-0.405-0.005-0.826,0.032-1.193,0.215c-0.877,0.458-1.078,1.64-1.386,2.494
			c-0.247,0.737-0.598,1.54-1.34,1.892c-0.392,0.189-0.833,0.253-1.265,0.274c-0.868,0.035-1.745-0.098-2.597-0.253
			c-2.465-0.439-5.288-1.419-7.791-1.589c-0.444-0.017-0.901-0.006-1.329,0.126c-0.927,0.275-1.273,1.206-1.725,1.962
			c-0.27,0.457-0.662,0.872-1.186,1.023l-0.037,0.011l-0.037,0.01c-0.505,0.131-1.037,0.107-1.552,0.055
			c-1.354-0.157-2.709-0.561-4.012-0.95c-2.944-0.89-6.39-2.212-9.418-2.641c-0.664-0.083-1.347-0.126-2.011-0.02
			c-0.559,0.088-1.093,0.314-1.553,0.642c-0.604,0.419-1.117,1.039-1.666,1.523c-0.421,0.377-0.949,0.668-1.527,0.668
			c-1.291-0.011-2.679-0.759-3.832-1.303c-1.687-0.794-3.733-2.064-5.607-2.222c-0.769-0.052-1.512,0.231-2.174,0.6
			c-0.649,0.367-1.351,0.791-2.071,0.975c-0.508,0.132-1.042,0.142-1.558,0.056c-0.78-0.127-1.539-0.408-2.265-0.715
			c-2.698-1.172-5.621-3.078-8.271-4.362c-1.261-0.59-2.589-1.205-4.003-1.241c-1.795-0.061-3.233,1.163-4.979,0.919
			c-0.751-0.106-1.456-0.433-2.12-0.787c-2.623-1.455-5.105-3.692-7.686-5.217c-0.626-0.365-1.282-0.708-1.971-0.936
			c-0.659-0.219-1.359-0.313-2.052-0.329c-1.227-0.023-2.571,0.122-3.723-0.392c-0.588-0.247-1.115-0.623-1.604-1.027
			c-2.152-1.839-4.129-4.492-6.149-6.468c-1.167-1.127-2.499-2.367-4.113-2.761c-0.908-0.208-1.854-0.055-2.739,0.192
			c-1.173,0.31-2.415,0.886-3.654,0.723c-0.578-0.076-1.103-0.374-1.542-0.746c-0.82-0.697-1.456-1.594-2.068-2.471
			c-1.014-1.43-2.128-3.47-3.475-4.593c-0.29-0.234-0.618-0.43-0.98-0.528c-0.931-0.255-1.909,0.102-2.829,0.253
			c-0.686,0.124-1.425,0.123-2.057-0.203c-1.178-0.619-2.043-1.794-2.839-2.831c-1.478-1.996-2.886-4.296-4.571-6.125
			c-0.736-0.79-1.557-1.532-2.525-2.024c-1.597-0.834-3.528-0.91-5.289-1.079c-1.12-0.119-2.308-0.31-3.217-1.024
			c-0.529-0.416-0.93-0.973-1.263-1.553c-0.911-1.61-1.524-3.803-2.197-5.529c-0.441-1.118-0.929-2.26-1.73-3.171
			c-0.614-0.693-1.417-1.188-2.245-1.586c-1.077-0.54-2.429-0.948-3.216-1.907c-0.364-0.451-0.592-0.996-0.771-1.542
			c-0.44-1.345-0.628-2.902-1.396-4.115c-0.852-1.318-2.336-2.093-3.502-3.094c-0.586-0.497-1.116-1.086-1.422-1.799
			c-0.681-1.571-0.639-3.48-1.054-5.123c-0.152-0.629-0.384-1.246-0.725-1.797c-0.625-1.045-1.69-2.046-2.505-2.945
			c-0.912-0.973-1.674-2.081-2.091-3.358c-0.721-2.071-0.947-4.424-1.748-6.47c-0.417-1.096-1.085-2.081-1.814-2.993
			c-1.143-1.421-2.559-2.96-3.206-4.675c-0.829-2.194-0.72-4.796-0.829-7.114c-0.075-1.551-0.165-3.168-0.834-4.595
			c-0.606-1.313-1.633-2.429-2.408-3.64c-0.466-0.723-0.847-1.511-1.074-2.343c-1.046-4.127-0.16-8.685-1.588-12.739
			c-0.771-2.174-2.463-3.988-3.663-5.923c-0.434-0.711-0.806-1.475-1.019-2.283c-0.193-0.726-0.251-1.486-0.242-2.236
			c0.061-3.464,1.35-6.996,1.026-10.475c-0.238-2.615-1.805-5.189-2.951-7.499c-0.635-1.284-1.204-2.622-1.535-4.019
			c-0.506-2.12-0.582-4.363-0.603-6.537c-0.011-3.502,0.174-7.542-0.48-10.962c-0.643-3.699-2.224-7.404-2.21-11.198
			c0.058-4.103,2.435-7.958,3.205-11.922c0.286-1.375,0.311-2.8,0.203-4.197c-0.12-1.753-0.484-3.784-0.389-5.539
			c0.04-0.669,0.154-1.343,0.412-1.964c0.281-0.677,0.719-1.279,1.193-1.834c1.096-1.332,2.815-2.583,3.001-4.41
			c0.181-1.757-0.597-3.579-0.188-5.326c0.159-0.67,0.514-1.276,0.916-1.828c0.75-1.03,1.947-2.186,2.718-3.199
			c0.454-0.591,0.864-1.232,1.119-1.936c0.28-0.768,0.388-1.592,0.453-2.403c0.13-1.41,0.026-3.152,0.833-4.379
			c0.449-0.661,1.145-1.101,1.823-1.496c1.246-0.726,2.816-1.377,3.528-2.708c0.559-1.108,0.488-2.406,0.428-3.611
			c-0.064-1.08-0.229-2.415-0.174-3.485c0.02-0.38,0.066-0.765,0.176-1.13c0.107-0.365,0.301-0.705,0.57-0.976
			c1.154-1.127,3.077-1.304,4.161-2.594c0.642-0.77,0.898-1.777,1.119-2.734c0.295-1.312,0.491-2.952,1.052-4.179
			c0.192-0.416,0.444-0.813,0.786-1.122c0.741-0.661,1.754-0.884,2.705-1.059c0.926-0.169,2.128-0.284,2.99-0.658
			c0.249-0.11,0.489-0.251,0.689-0.437c0.538-0.502,0.769-1.232,0.958-1.922c0.244-0.896,0.418-1.959,0.969-2.724
			c0.768-1.038,2.129-1.547,3.232-2.144c1.384-0.7,2.358-1.533,3.297-2.76c1.132-1.396,2.038-3.165,3.44-4.319
			c0.863-0.681,1.995-0.934,2.969-1.409c0.705-0.333,1.321-0.829,1.85-1.398c1.436-1.523,2.594-3.483,4.121-4.923
			c0.375-0.347,0.788-0.664,1.251-0.886c1.014-0.518,2.227-0.514,3.238-1.034c0.648-0.337,1.081-0.955,1.469-1.553
			c0.688-1.048,1.331-2.41,2.517-2.969c1.04-0.462,2.362-0.288,3.472-0.285c0.864,0.007,1.783-0.027,2.552-0.465
			c0.608-0.351,1.042-0.93,1.407-1.517c0.668-1.076,1.131-2.354,1.855-3.396c0.19-0.265,0.408-0.519,0.676-0.708
			c0.765-0.538,1.792-0.289,2.655-0.206c0.637,0.069,1.317,0.094,1.908-0.191c1.199-0.605,2.069-2.149,2.873-3.199
			c0.534-0.704,1.099-1.447,1.897-1.863c0.553-0.281,1.188-0.339,1.8-0.329c1.328,0.033,2.729,0.283,3.911-0.489
			c1.499-0.962,2.557-2.521,3.879-3.691c0.54-0.482,1.138-0.93,1.828-1.171c1.386-0.483,2.94-0.171,4.374-0.209
			c0.725-0.014,1.461-0.114,2.132-0.399c0.786-0.335,1.467-0.879,2.096-1.449c1.257-1.148,2.658-2.841,3.978-3.916
			c0.595-0.483,1.248-0.921,1.979-1.167c1.071-0.363,2.23-0.298,3.337-0.163l1.824,0.246c1.017,0.123,2.069,0.185,3.069-0.078
			c1.493-0.396,2.839-1.364,4.13-2.186c1.021-0.644,2.087-1.307,3.287-1.54c0.98-0.187,1.989-0.036,2.951,0.185
			c1.61,0.369,3.315,1.009,4.983,0.929c1.772-0.088,3.521-0.971,5.178-1.537c0.847-0.289,1.736-0.532,2.638-0.502
			c1.852,0.083,3.499,1.197,5.24,1.712c0.888,0.279,1.835,0.382,2.758,0.243c2.07-0.295,4.122-1.328,6.141-1.834
			c0.804-0.202,1.642-0.33,2.471-0.247c2.048,0.183,3.875,1.455,5.888,1.786c0.865,0.143,1.75,0.025,2.596-0.175
			c1.456-0.345,3.119-0.976,4.618-1.096c0.855-0.082,1.723,0.018,2.552,0.236c1.851,0.475,3.7,1.48,5.5,2.102
			c0.717,0.246,1.468,0.441,2.23,0.455c1.768,0.037,3.538-0.736,5.305-0.726c1.472-0.011,2.921,0.385,4.289,0.901
			c2.053,0.793,3.995,1.917,5.731,3.267"/>
	</g>
</g>
<g id="_x32_D_x24_AG-OUTLINE">
	<g id="POLYLINE_00000115506841484192863590000007499232212674069175_">
		
			<path fill="none" stroke="#FB8604" stroke-width="3.5" stroke-linecap="round" stroke-linejoin="round" stroke-miterlimit="10" d="
			M323.467,199.712c-1.737-1.351-3.678-2.474-5.731-3.267c-1.368-0.516-2.817-0.913-4.289-0.901
			c-1.766-0.01-3.538,0.763-5.305,0.726c-0.762-0.014-1.512-0.209-2.23-0.455c-1.801-0.623-3.651-1.628-5.5-2.102
			c-0.83-0.218-1.696-0.318-2.552-0.236c-1.495,0.12-3.161,0.751-4.618,1.096c-0.846,0.199-1.732,0.318-2.596,0.175
			c-2.012-0.33-3.84-1.603-5.888-1.786c-0.829-0.083-1.667,0.045-2.471,0.247c-2.019,0.506-4.07,1.539-6.141,1.834
			c-0.923,0.139-1.87,0.036-2.758-0.243c-1.759-0.52-3.421-1.653-5.295-1.714c-1.142-0.022-2.25,0.373-3.307,0.766
			c-1.406,0.531-2.996,1.224-4.517,1.278c-1.645,0.063-3.337-0.567-4.921-0.931c-0.962-0.221-1.971-0.372-2.951-0.185
			c-1.199,0.233-2.268,0.896-3.287,1.54c-1.286,0.822-2.637,1.789-4.13,2.186c-0.999,0.263-2.053,0.201-3.069,0.078l-1.824-0.246
			c-1.106-0.135-2.265-0.2-3.337,0.163c-0.782,0.264-1.474,0.744-2.103,1.27c-1.303,1.091-2.706,2.788-3.974,3.922
			c-0.609,0.54-1.269,1.051-2.027,1.362c-0.657,0.27-1.374,0.364-2.08,0.378c-1.451,0.038-3.024-0.281-4.423,0.226
			c-0.71,0.26-1.321,0.734-1.874,1.24c-1.291,1.166-2.342,2.702-3.832,3.634c-1.185,0.754-2.622,0.479-3.945,0.46
			c-0.599-0.004-1.218,0.065-1.754,0.349c-0.78,0.422-1.335,1.151-1.861,1.845c-0.567,0.761-1.236,1.79-1.894,2.458
			c-0.287,0.292-0.607,0.563-0.978,0.74c-0.591,0.285-1.271,0.26-1.908,0.191c-0.864-0.083-1.889-0.332-2.655,0.206
			c-0.282,0.199-0.508,0.468-0.705,0.749c-0.705,1.034-1.167,2.293-1.826,3.355c-0.364,0.587-0.799,1.166-1.407,1.517
			c-0.769,0.438-1.688,0.472-2.552,0.465c-1.113-0.002-2.43-0.177-3.472,0.285c-1.185,0.558-1.831,1.923-2.517,2.969
			c-0.388,0.598-0.821,1.216-1.469,1.553c-1.034,0.531-2.277,0.519-3.306,1.068c-0.473,0.238-0.893,0.575-1.275,0.939
			c-1.475,1.428-2.624,3.344-4.029,4.836c-0.529,0.569-1.146,1.065-1.85,1.398c-0.974,0.475-2.105,0.728-2.969,1.409
			c-1.403,1.153-2.309,2.923-3.44,4.319c-0.938,1.226-1.914,2.06-3.297,2.76c-1.105,0.598-2.463,1.104-3.232,2.144
			c-0.551,0.764-0.727,1.83-0.969,2.724c-0.189,0.69-0.42,1.421-0.958,1.922c-0.892,0.803-2.536,0.869-3.679,1.095
			c-0.951,0.176-1.964,0.398-2.705,1.059c-0.342,0.309-0.594,0.706-0.786,1.122c-0.56,1.224-0.757,2.869-1.052,4.179
			c-0.221,0.957-0.477,1.964-1.119,2.734c-1.085,1.291-3.006,1.466-4.161,2.594c-0.269,0.27-0.463,0.61-0.57,0.976
			c-0.136,0.45-0.175,0.926-0.186,1.394c-0.023,0.962,0.123,2.253,0.184,3.22c0.06,1.206,0.131,2.503-0.428,3.611
			c-0.711,1.33-2.283,1.984-3.528,2.708c-0.679,0.395-1.374,0.835-1.823,1.496c-0.806,1.224-0.703,2.973-0.833,4.379
			c-0.066,0.832-0.178,1.675-0.473,2.459c-0.272,0.723-0.705,1.379-1.18,1.984c-0.78,1.004-1.974,2.158-2.708,3.194
			c-0.381,0.537-0.711,1.128-0.856,1.776c-0.388,1.749,0.392,3.568,0.193,5.325c-0.207,1.8-1.911,3.047-2.996,4.365
			c-0.473,0.555-0.912,1.157-1.193,1.834c-0.258,0.621-0.372,1.295-0.412,1.964c-0.096,1.753,0.269,3.788,0.389,5.539
			c0.108,1.397,0.083,2.821-0.203,4.197c-0.771,3.965-3.147,7.818-3.205,11.922c-0.014,3.794,1.568,7.5,2.21,11.198
			c0.654,3.411,0.467,7.489,0.48,10.962c0.021,2.171,0.097,4.417,0.603,6.537c0.33,1.396,0.9,2.737,1.535,4.019
			c1.151,2.33,2.711,4.877,2.951,7.499c0.324,3.478-0.965,7.012-1.026,10.475c-0.009,0.774,0.053,1.56,0.262,2.308
			c0.228,0.83,0.623,1.61,1.077,2.338c1.227,1.931,2.912,3.765,3.646,5.967c1.35,4.041,0.482,8.561,1.552,12.653
			c0.625,2.322,2.464,3.812,3.458,5.898c0.938,2.039,0.793,4.531,0.905,6.728c0.069,1.647,0.153,3.356,0.733,4.915
			c0.633,1.748,2.087,3.307,3.231,4.74c0.573,0.722,1.12,1.487,1.52,2.319c0.449,0.931,0.736,1.95,0.979,2.952
			c0.571,2.381,0.905,4.951,2.556,6.861c1.057,1.313,2.529,2.492,3.312,4.008c0.747,1.448,0.785,3.29,1.083,4.866
			c0.151,0.799,0.368,1.611,0.821,2.296c0.446,0.674,1.081,1.202,1.719,1.688c1.137,0.862,2.467,1.693,3.111,3.014
			c0.61,1.212,0.79,2.694,1.249,3.962c0.209,0.575,0.496,1.14,0.948,1.562c0.996,0.913,2.465,1.287,3.612,1.963
			c0.909,0.501,1.696,1.221,2.225,2.118c1.159,1.925,1.746,4.407,2.623,6.464c0.478,1.103,1.037,2.254,2.025,2.987
			c0.898,0.652,2.035,0.83,3.113,0.946c1.766,0.172,3.69,0.244,5.289,1.079c0.968,0.492,1.79,1.234,2.525,2.024
			c1.684,1.827,3.094,4.13,4.572,6.125c0.797,1.039,1.685,2.244,2.874,2.848c0.651,0.324,1.405,0.305,2.103,0.173
			c0.891-0.157,1.846-0.488,2.749-0.24c0.362,0.097,0.69,0.294,0.98,0.528c1.343,1.117,2.471,3.173,3.475,4.593
			c0.538,0.775,1.099,1.558,1.78,2.213c0.373,0.354,0.791,0.678,1.276,0.862c0.63,0.242,1.326,0.199,1.974,0.06
			c1.184-0.257,2.37-0.794,3.584-0.907c1.027-0.115,1.981,0.155,2.858,0.684c1.125,0.669,2.096,1.591,3.011,2.52
			c2.02,2.023,3.988,4.731,6.265,6.476c0.565,0.418,1.204,0.747,1.894,0.899c1.544,0.337,3.17-0.081,4.723,0.388
			c0.661,0.183,1.29,0.484,1.889,0.814c2.359,1.327,4.704,3.34,6.984,4.793c0.984,0.61,2.022,1.238,3.184,1.417
			c0.584,0.083,1.181-0.001,1.745-0.163c1.065-0.319,2.152-0.804,3.287-0.755c0.715,0.016,1.416,0.207,2.087,0.443
			c1.142,0.409,2.252,0.975,3.322,1.543c2.218,1.184,5.409,3.158,7.753,3.981c0.555,0.191,1.133,0.351,1.721,0.395
			c1.224,0.11,2.213-0.5,3.233-1.077c0.662-0.368,1.404-0.652,2.174-0.6c1.873,0.159,3.919,1.428,5.607,2.222
			c1.151,0.543,2.571,1.308,3.861,1.302c0.595-0.008,1.129-0.326,1.556-0.718c0.545-0.495,1.064-1.114,1.681-1.523
			c0.456-0.311,0.982-0.52,1.529-0.599c0.649-0.095,1.314-0.053,1.962,0.028c3.021,0.426,6.49,1.754,9.418,2.641
			c1.304,0.389,2.658,0.793,4.012,0.95c0.514,0.052,1.047,0.076,1.552-0.055l0.037-0.01l0.037-0.011
			c0.524-0.151,0.915-0.565,1.185-1.023c0.452-0.755,0.799-1.688,1.725-1.962c0.428-0.132,0.885-0.143,1.329-0.126
			c2.501,0.169,5.328,1.15,7.791,1.589c0.852,0.155,1.729,0.288,2.597,0.253c0.431-0.021,0.872-0.085,1.265-0.274
			c0.742-0.352,1.093-1.155,1.34-1.892c0.308-0.855,0.508-2.035,1.386-2.494c0.367-0.183,0.788-0.22,1.193-0.215
			c0.946,0.026,1.884,0.271,2.794,0.515l2.806,0.814c0.726,0.195,1.471,0.391,2.221,0.451c0.392,0.03,0.799,0.015,1.169-0.13
			c0.617-0.231,1.05-0.799,1.51-1.244c0.583-0.587,1.263-0.93,2.075-1.071c2.408-0.414,5.858,0.059,8.308,0.18
			c1.331,0.067,2.702,0.153,4.022-0.071c0.559-0.099,1.12-0.301,1.53-0.706c0.632-0.625,0.947-1.528,1.558-2.173
			c0.473-0.532,1.087-0.919,1.734-1.206c1.326-0.585,2.779-0.932,4.187-1.262c3.552-0.839,7.898-1.378,11.252-2.837
			c0.608-0.288,1.215-0.63,1.671-1.133l0.031-0.036l0.03-0.036l0.029-0.036l0.028-0.036l0.028-0.037l0.027-0.037l0.026-0.037
			l0.025-0.037l0.024-0.038l0.023-0.038l0.022-0.038l0.021-0.038c0.18-0.337,0.245-0.724,0.232-1.103
			c-0.038-0.955-0.478-1.95-0.799-2.842c-0.388-1.076-0.875-2.461,0.05-3.401c0.473-0.496,1.099-0.816,1.72-1.09
			c2.982-1.23,6.839-1.755,9.857-2.888c0.815-0.307,1.633-0.666,2.342-1.178c0.554-0.394,1.012-0.925,1.294-1.545
			c0.441-0.916,0.524-2.076,0.673-3.071c0.114-0.742,0.275-1.526,0.768-2.117c0.432-0.522,1.079-0.802,1.712-1.001
			c2.501-0.743,5.332-0.542,7.839-1.258c0.458-0.146,0.924-0.337,1.268-0.683l0.019-0.02c0.56-0.597,0.5-1.486,0.442-2.244
			c-0.074-0.955-0.269-2.008,0.104-2.922c0.211-0.517,0.634-0.913,1.091-1.218c1.636-1.059,4.169-1.584,6.02-2.174
			c1.028-0.324,2.09-0.66,3.007-1.239c0.418-0.265,0.79-0.614,1.041-1.044c0.297-0.497,0.438-1.072,0.539-1.637l0.178-1.067
			c0.127-0.715,0.329-1.435,0.738-2.044c0.898-1.298,2.308-2.144,3.611-2.987c2.566,8.979,6.184,17.753,11.279,25.604
			c-9.167,5.105-18.338,11.58-23.045,21.258c-0.354,0.769-0.685,1.57-0.853,2.403c-0.062,0.333-0.104,0.681-0.034,1.016l0.005,0.022
			l0.005,0.022l0.006,0.021l0.006,0.021l0.006,0.02l0.007,0.02l0.007,0.02l0.007,0.019l0.008,0.019l0.008,0.019l0.008,0.018
			l0.009,0.018l0.009,0.017l0.009,0.017l0.01,0.017l0.01,0.016l0.01,0.016l0.011,0.015l0.011,0.015l0.012,0.015l0.012,0.014
			l0.012,0.014l0.013,0.013l0.013,0.013l0.013,0.013l0.014,0.012l0.018,0.015l0.019,0.015l0.02,0.014l0.02,0.013l0.021,0.013
			l0.021,0.012l0.022,0.011l0.023,0.011l0.023,0.01l0.024,0.009l0.024,0.009l0.025,0.008l0.025,0.007l0.026,0.007l0.027,0.006
			l0.027,0.005l0.028,0.005l0.028,0.004l0.029,0.003l0.03,0.003l0.03,0.002l0.031,0.001l0.031,0.001l0.032,0l0.032-0.001
			l0.033-0.001c0.391-0.021,0.773-0.141,1.14-0.273c0.83-0.308,1.653-0.743,2.431-1.167c3.542-1.993,9.444-5.854,12.97-7.844
			c4.304-2.478,8.942-4.719,13.532-6.612c8.789,10.182,19.993,18.169,32.138,23.87c9.462,4.459,19.612,7.592,30.005,8.874
			c2.586,12.631,6.489,25.286,13.516,36.198c8.108,12.699,20.695,22.747,35.365,26.612c21.688,5.724,45.688-1.639,62.578-15.854
			c10.435-8.757,18.492-20.371,22.838-33.295c0.818-2.543,1.617-5.182,1.756-7.865c0.015-0.631,0.002-1.286-0.227-1.882
			l-0.014-0.033l-0.014-0.033l-0.015-0.032l-0.015-0.031l-0.016-0.03l-0.016-0.03l-0.016-0.029l-0.017-0.028l-0.017-0.027
			l-0.018-0.027l-0.018-0.026l-0.018-0.025l-0.019-0.024l-0.019-0.024l-0.02-0.023l-0.02-0.022l-0.021-0.021l-0.021-0.021
			l-0.021-0.02l-0.022-0.019l-0.022-0.018l-0.023-0.018l-0.023-0.017l-0.024-0.016l-0.023-0.015l-0.023-0.014l-0.024-0.013
			l-0.024-0.012l-0.025-0.012l-0.025-0.011l-0.025-0.01l-0.026-0.009l-0.026-0.009l-0.027-0.008l-0.027-0.007l-0.027-0.007
			l-0.028-0.006l-0.028-0.005l-0.029-0.005l-0.029-0.004l-0.029-0.003l-0.03-0.002l-0.03-0.002l-0.03-0.001l-0.031,0l-0.031,0
			l-0.031,0.001l-0.032,0.002l-0.032,0.002l-0.033,0.003l-0.033,0.004l-0.033,0.004c-0.477,0.071-0.921,0.288-1.339,0.521
			c-0.932,0.537-1.789,1.231-2.606,1.927c-4.782,4.201-11.407,11.767-15.881,16.449c-5.118,5.353-10.553,10.639-16.667,14.846
			c-3.389,2.333-7.043,4.361-10.887,5.841c-3.42,1.318-7.04,2.209-10.671,2.697c-9.359,1.229-19.123,0.007-27.749-3.883
			c-16.357-7.285-24.418-24.91-29.063-41.226c10.852-0.955,21.64-3.58,31.684-7.806c8.284-3.502,16.161-8.247,22.556-14.62
			c1.666-1.684,3.338-3.455,4.583-5.48c0.261-0.453,0.525-0.928,0.615-1.448l0.004-0.026l0.003-0.026l0.003-0.025l0.002-0.025
			l0.001-0.024l0.001-0.024l0-0.023l0-0.023l-0.001-0.022l-0.001-0.022l-0.002-0.022l-0.002-0.021l-0.003-0.021l-0.003-0.02
			l-0.004-0.02l-0.005-0.019l-0.005-0.019l-0.006-0.018l-0.006-0.018l-0.007-0.017l-0.007-0.017l-0.008-0.016l-0.008-0.016
			l-0.009-0.016l-0.01-0.015l-0.01-0.015l-0.013-0.017l-0.014-0.017l-0.015-0.016l-0.016-0.015l-0.017-0.014l-0.018-0.014
			l-0.019-0.013l-0.019-0.012l-0.02-0.012l-0.021-0.011l-0.022-0.01l-0.023-0.009l-0.024-0.009l-0.025-0.008l-0.025-0.007
			l-0.026-0.007l-0.027-0.006l-0.028-0.005l-0.029-0.005l-0.03-0.004l-0.03-0.003l-0.031-0.003l-0.032-0.002l-0.033-0.001
			l-0.034-0.001l-0.035,0c-0.74,0.031-1.459,0.303-2.153,0.544c-6.74,2.733-14.118,6.523-21.142,8.955
			c-12.197,4.345-25.133,6.727-38.076,7.047c-1.515-12.974,0.47-26.104,3.092-38.81c27.588-6.866,53.307-21.829,72.344-43.013
			c5.336-5.976,10.09-12.579,14.296-19.393c3.348-5.477,6.5-11.186,9.023-17.094c0.393-0.957,0.825-2.023,1.124-3.015
			c0,0,0.251-0.836,0.251-0.836s0.056-0.177,0.056-0.177s0.028-0.085,0.028-0.085s0.029-0.082,0.029-0.082
			c0.041-0.121,0.1-0.261,0.154-0.378c0.225-0.502,0.651-0.875,1.088-1.191l0.981-0.703c1.13-0.813,2.063-1.796,2.458-3.161
			c0.84-2.784,0.35-5.93,1.317-8.684c0.329-0.897,0.935-1.661,1.595-2.34c0.7-0.709,1.532-1.495,2.074-2.32
			c0.324-0.487,0.575-1.025,0.742-1.586c0.844-3.049,0.322-6.436,0.717-9.546c0.082-0.598,0.202-1.203,0.458-1.753
			c0.41-0.937,1.284-1.579,1.843-2.414c0.272-0.41,0.424-0.888,0.489-1.373c0.216-1.75-0.135-3.64,0.01-5.394
			c0.049-0.655,0.181-1.313,0.467-1.908c0.397-0.867,1.107-1.665,1.55-2.507c0.338-0.625,0.477-1.32,0.413-2.027
			c-0.249-2.677-1.827-5.217-1.658-7.947c0.108-1.571,0.887-3.087,1.128-4.633c0.167-0.969,0.033-1.963-0.264-2.893
			c-0.641-2.05-1.847-4.097-2.474-6.151c-0.3-0.958-0.448-1.979-0.295-2.978c0.2-1.537,0.968-3.041,1.193-4.572
			c0.333-2.086-0.964-4.124-1.764-5.961c-0.35-0.781-0.674-1.59-0.861-2.427c-0.161-0.721-0.217-1.472-0.231-2.209
			c-0.035-1.552,0.146-3.261-0.216-4.782c-0.147-0.635-0.414-1.24-0.746-1.799c-1.358-2.25-3.584-4.125-4.214-6.764
			c-0.747-3.003,0.131-6.292-0.77-9.267c-0.721-2.235-2.81-3.675-4.122-5.532c-0.651-0.885-0.981-1.955-1.161-3.028
			c-0.283-1.412-0.315-3.232-1.523-4.211c-1.041-0.816-2.495-1.086-3.66-1.672c-0.459-0.228-0.908-0.514-1.227-0.922
			c-0.491-0.639-0.615-1.47-0.711-2.25c-0.153-1.131-0.119-2.466-0.804-3.429c-0.34-0.463-0.838-0.781-1.344-1.036
			c-1.15-0.578-2.486-0.897-3.532-1.67c-0.821-0.589-1.231-1.555-1.521-2.492c-0.356-1.088-0.584-2.404-1.312-3.316
			c-0.341-0.428-0.82-0.723-1.318-0.938c-0.973-0.419-2.226-0.642-3.221-1.003c-0.862-0.3-1.644-0.762-2.149-1.544
			c-0.987-1.445-1.171-3.42-2.285-4.765c-0.395-0.458-0.949-0.744-1.514-0.937c-1.165-0.408-2.559-0.487-3.592-1.215
			c-1.161-0.854-1.637-2.382-2.692-3.338c-0.684-0.649-1.657-0.805-2.561-0.887c-1.279-0.136-2.825-0.061-3.865-0.934
			c-0.63-0.559-0.956-1.371-1.254-2.139c-0.477-1.186-0.8-2.665-1.78-3.548c-0.353-0.312-0.804-0.487-1.262-0.574
			c-1.471-0.264-3.066,0.092-4.548,0.001c-0.601-0.038-1.232-0.153-1.719-0.531c-0.39-0.3-0.671-0.719-0.901-1.148
			c-0.544-1.02-0.86-2.22-1.568-3.147c-0.576-0.781-1.496-1.107-2.419-1.264c-1.852-0.348-4.192-0.072-5.8-1.174
			c-1.004-0.693-1.702-1.863-2.473-2.785c-0.449-0.536-0.976-1.048-1.647-1.287c-0.715-0.256-1.493-0.256-2.244-0.237
			c-1.267,0.027-2.699,0.25-3.886-0.302c-0.468-0.227-0.87-0.574-1.228-0.947c-0.833-0.862-1.544-2.02-2.582-2.66
			c-1.2-0.723-2.783-0.599-4.131-0.682c-1.034-0.046-2.06-0.201-2.932-0.796c-1.054-0.692-1.913-1.701-2.95-2.415
			c-0.71-0.506-1.531-0.847-2.388-1.004c-1.335-0.252-2.717-0.183-4.052,0.034c-1.463,0.245-2.903,0.68-4.249,1.305
			c0.222-1.381,0.654-3.136,0.685-4.523c0.034-0.879-0.049-1.781-0.389-2.6c-0.49-1.22-1.531-2.11-2.641-2.76
			c-2.75-1.567-5.889-2.337-8.975-2.925c-3.378-0.571-7.082-0.997-10.484-0.474c-0.917,0.166-1.885,0.45-2.53,1.163
			c-0.49,0.537-0.726,1.249-0.914,1.938c-0.903,3.694-2.036,7.603-1.257,11.416c-0.649,0.185-1.346,0.57-1.947,0.88
			c-0.345,0.164-0.729,0.37-1.123,0.301c-0.165-0.032-0.309-0.131-0.426-0.249c-0.285-0.296-0.467-0.678-0.648-1.043
			c-0.626-1.379-1.278-2.873-2.4-3.924c-1.418-1.378-3.293-2.334-5.271-2.532c-0.792-0.078-1.594,0.023-2.37,0.186l-1.323,0.292
			c-0.691,0.14-1.432,0.255-2.117,0.026c-0.819-0.285-1.435-0.942-2.002-1.571c-0.966-1.097-1.938-2.421-3.124-3.284
			c-1.32-1.007-2.948-1.689-4.628-1.651c-1.908,0.028-3.796,1.014-5.716,0.855c-1.186-0.104-2.172-0.863-3.048-1.609
			c-1.037-0.894-2.151-2.002-3.313-2.723c-0.723-0.458-1.527-0.795-2.354-1.012c-2.165-0.549-4.578-0.466-6.642,0.425
			c-0.906,0.372-1.907,1.198-2.868,1.312c-0.47,0.055-0.929-0.117-1.339-0.331c-1.448-0.781-2.809-2.078-4.549-2.071
			c-1.943-0.019-3.806,0.969-5.737,1.045c-0.711,0.024-1.419-0.119-2.098-0.321c-1.567-0.492-3.177-1.182-4.852-1.14
			c-1.726,0.006-3.439,0.39-5.087,0.877c-1.702,0.515-3.395,1.161-4.941,2.047l-1.808-1.099c-1.272-0.749-2.642-1.435-4.13-1.591
			c-3.014-0.266-6.149,1.324-8.972,2.208c-1.392,0.442-2.856,0.857-4.33,0.712c-2.72-0.274-4.942-2.347-7.642-2.702
			c-3.564-0.419-7.099,1.217-10.651,1.182c-1.711,0.016-3.42-0.76-4.98-1.384c-0.93-0.359-1.916-0.656-2.923-0.611
			c-1.175,0.056-2.287,0.525-3.349,0.998c-1.392,0.624-3.099,1.552-4.568,1.911c-0.893,0.235-1.845,0.257-2.731-0.023
			c-1.437-0.426-2.756-1.385-4.147-1.926c-0.999-0.4-1.996-0.507-3.034-0.188c-3.106,0.965-5.675,3.837-8.85,4.629
			c-1.678,0.402-3.524-0.066-5.187-0.359c-1.17-0.204-2.385-0.316-3.56-0.091C326.466,197.883,324.889,198.725,323.467,199.712z"/>
	</g>
	<g id="POLYLINE_00000109729641538339038790000005981537002733982647_">
		
			<path fill="none" stroke="#FB8604" stroke-width="3.5" stroke-linecap="round" stroke-linejoin="round" stroke-miterlimit="10" d="
			M446.225,404.872c1.379,0.448,2.836,0.69,4.287,0.665c1.002-0.026,2.031-0.179,2.928-0.649c1.043-0.527,1.681-1.633,2.311-2.571
			c0.342-0.496,0.722-0.999,1.251-1.308c0.387-0.228,0.839-0.312,1.282-0.336c1.864-0.088,3.815,0.656,5.651,0.108
			c1.563-0.528,2.471-2.054,3.683-3.075c0.394-0.333,0.84-0.624,1.342-0.761c0.823-0.233,1.826-0.116,2.672-0.093
			c0.691,0.017,1.435,0.003,2.041-0.371c0.318-0.195,0.563-0.489,0.759-0.803c0.362-0.586,0.596-1.254,0.815-1.905
			c0.39-1.193,0.773-2.658,1.377-3.743c0.199-0.352,0.436-0.69,0.736-0.963c0.483-0.448,1.133-0.654,1.773-0.741
			c1.276-0.178,2.688,0.035,3.958-0.201c0.569-0.105,1.127-0.343,1.529-0.768c0.4-0.411,0.678-0.926,0.912-1.445
			c0.6-1.338,0.95-2.925,1.683-4.201c0.376-0.66,0.888-1.184,1.6-1.471c1.486-0.632,3.284-0.383,4.715-1.17
			c0.592-0.329,0.978-0.919,1.22-1.537c0.755-1.939,0.683-4.259,1.48-6.185c0.232-0.557,0.608-1.057,1.115-1.39
			c0.849-0.578,1.919-0.784,2.812-1.277c0.399-0.221,0.765-0.52,1.007-0.911c0.278-0.447,0.419-0.965,0.52-1.476
			c0.283-1.467,0.234-3.116,0.555-4.577c0.105-0.455,0.252-0.914,0.52-1.301c0.186-0.269,0.441-0.488,0.722-0.654
			c0.843-0.497,1.912-0.637,2.775-1.09c0.523-0.263,0.972-0.681,1.225-1.213c0.512-1.081,0.578-2.315,0.642-3.491
			c0.069-1.837-0.036-4.169,0.166-5.993c0.064-0.53,0.16-1.072,0.352-1.572c0.161-0.418,0.405-0.804,0.714-1.128
			c0.495-0.531,1.183-0.913,1.773-1.314c0.472-0.316,0.928-0.673,1.299-1.107c0.542-0.63,0.947-1.373,1.277-2.133
			c0.831-1.968,1.243-4.112,1.33-6.242c1.223,6.069,2.033,12.302,2.173,18.496c0.129,5.829-0.372,11.737-1.393,17.476
			c-2.586,15.187-9.738,31.022-15.436,45.315c-4.932,12.49-8.364,25.695-9.919,39.04c-14.088,5.47-32.971,12.71-46.594,18.884
			c-8.799-19.243-8.523-41.11-6.122-61.727c0.579-0.483,1.28-1.013,1.891-1.459c1.612-1.175,4.168-2.76,5.537-4.183
			C445.585,405.889,445.96,405.409,446.225,404.872z"/>
	</g>
	<g id="POLYLINE_00000054230099106170006790000005919473639179896203_">
		
			<path fill="none" stroke="#FB8604" stroke-width="3.5" stroke-linecap="round" stroke-linejoin="round" stroke-miterlimit="10" d="
			M520.497,442.611c0.861-3.665,2.348-11.61,3.536-15.063c0.362-1.061,0.791-2.118,1.371-3.079c0.998-1.748,2.779-2.865,4.013-4.391
			c0.824-1.006,1.23-2.27,1.545-3.512c0.506-1.967,0.873-4.324,2.011-6.036c0.864-1.313,2.377-2.373,3.585-3.357
			c0.923-0.755,1.819-1.601,2.379-2.668c1.081-2.058,1.127-4.689,1.752-6.893c0.227-0.809,0.587-1.515,1.21-2.09
			c0.668-0.632,1.488-1.155,2.033-1.909c0.425-0.567,0.681-1.241,0.878-1.917c0.696-2.467,0.823-5.509,1.556-7.966
			c0.345-1.193,0.883-2.092,1.784-2.952c0.763-0.735,1.648-1.491,1.963-2.535c0.155-0.483,0.22-0.997,0.255-1.502
			c0.098-1.632-0.112-3.619-0.104-5.256c0.01-1.267,0.085-2.595,0.671-3.743c0.968-1.917,3.078-3.15,3.723-5.256
			c0.828-2.817,0.031-5.899,0.355-8.772c0.068-0.565,0.222-1.126,0.505-1.623c0.408-0.738,1.056-1.341,1.468-2.076
			c0.3-0.518,0.447-1.11,0.515-1.701c0.256-2.524-0.244-5.353,0.245-7.858c0.379-2.18,1.831-4.029,2.716-6.01
			c0.485-1.088,0.648-2.151,0.506-3.337c-0.16-1.516-0.664-3.038-0.829-4.552c-0.079-0.719-0.051-1.462,0.199-2.147
			c0.521-1.461,1.685-2.679,1.989-4.225c0.168-0.819,0.107-1.669-0.007-2.492c-0.255-1.861-0.968-4.029-1.061-5.91
			c-0.033-0.68,0.064-1.364,0.223-2.024l0.3-1.199c0.19-0.776,0.271-1.599,0.06-2.378c-0.619-2.188-2.238-4.067-2.835-6.265
			c-0.183-0.655-0.212-1.349-0.083-2.017c0.185-1.051,0.691-2.055,0.897-3.1c0.125-0.612,0.076-1.222-0.162-1.801
			c-0.566-1.427-1.765-2.607-2.087-4.136c-0.291-1.612,0.526-3.194,0.593-4.792c12.305,11.111,23.244,24.703,27.552,40.986
			c1.939,7.236,2.621,14.795,2.571,22.271c-0.091,9.913-1.46,19.903-3.699,29.552c-2.953,12.427-7.114,25.059-15.497,34.943
			c-5.084,6.097-11.449,11.031-18.147,15.238C541.364,433.073,530.847,438.053,520.497,442.611z"/>
	</g>
	<g id="POLYLINE_00000102544200960533223570000002155794653238606780_">
		
			<path fill="none" stroke="#FB8604" stroke-width="3.5" stroke-linecap="round" stroke-linejoin="round" stroke-miterlimit="10" d="
			M490.756,511.017c-6.556-1.201-13.039-3.226-18.931-6.369c-8.251-4.373-15.331-10.849-20.758-18.423
			c11.435-3.137,26.193-5.542,37.971-7.577C488.954,489.332,489.473,500.411,490.756,511.017z"/>
	</g>
	<g id="POLYLINE_00000096049815501138722810000003791235341930589335_">
		
			<path fill="none" stroke="#FB8604" stroke-width="3.5" stroke-linecap="round" stroke-linejoin="round" stroke-miterlimit="10" d="
			M456.69,367.251c4.582-2.901,8.994-6.219,12.62-10.274c5.741-6.429,9.726-14.312,12.5-22.428c1.707-5.17,2.91-10.609,2.755-16.079
			c-0.113-5.342-1.573-10.576-3.371-15.574c-0.546,0.777-0.811,1.712-1.025,2.626c-0.372,1.589-0.608,3.468-1.572,4.823
			c-0.557,0.792-1.374,1.357-2.215,1.814c-2.001,1.073-4.361,1.727-6.264,2.984c-0.912,0.59-1.688,1.383-2.256,2.31
			c-1.577,2.528-1.959,5.696-3.242,8.356c1.514,1.111,2.921,2.423,3.957,4c0.664,1.019,1.163,2.177,1.267,3.398
			c0.191,2.45-0.928,4.766-2.058,6.87c-3.086,5.333-6.42,10.721-10.965,14.944c0.412,1.276,0.657,2.615,0.7,3.956
			c0.085,2.304-0.396,4.845-0.702,7.13C456.779,366.431,456.719,366.931,456.69,367.251z"/>
	</g>
</g>
</svg>
