<?xml version="1.0" encoding="utf-8"?>
<!-- Generator: Adobe Illustrator 26.3.1, SVG Export Plug-In . SVG Version: 6.00 Build 0)  -->
<!DOCTYPE svg PUBLIC "-//W3C//DTD SVG 1.1//EN" "http://www.w3.org/Graphics/SVG/1.1/DTD/svg11.dtd" [
	<!ENTITY ns_flows "http://ns.adobe.com/Flows/1.0/">
	<!ENTITY ns_extend "http://ns.adobe.com/Extensibility/1.0/">
	<!ENTITY ns_ai "http://ns.adobe.com/AdobeIllustrator/10.0/">
	<!ENTITY ns_graphs "http://ns.adobe.com/Graphs/1.0/">
	<!ENTITY ns_vars "http://ns.adobe.com/Variables/1.0/">
	<!ENTITY ns_imrep "http://ns.adobe.com/ImageReplacement/1.0/">
	<!ENTITY ns_sfw "http://ns.adobe.com/SaveForWeb/1.0/">
	<!ENTITY ns_custom "http://ns.adobe.com/GenericCustomNamespace/1.0/">
	<!ENTITY ns_adobe_xpath "http://ns.adobe.com/XPath/1.0/">
]>
<svg version="1.1" xmlns:x="&ns_extend;" xmlns:i="&ns_ai;" xmlns:graph="&ns_graphs;"
	 xmlns="http://www.w3.org/2000/svg" xmlns:xlink="http://www.w3.org/1999/xlink" xmlns:a="http://ns.adobe.com/AdobeSVGViewerExtensions/3.0/"
	 x="0px" y="0px" width="750px" height="750px" viewBox="0 0 750 750" enable-background="new 0 0 750 750" xml:space="preserve">
<metadata>
	<sfw  xmlns="&ns_sfw;">
		<slices></slices>
		<sliceSourceBounds  bottomLeftOrigin="true" height="14465.03" width="3937" x="-2000" y="-5314"></sliceSourceBounds>
	</sfw>
</metadata>
<g id="FILL-BACKGROUND">
	<rect x="0" fill="#FFFFFF" width="750" height="750"/>
</g>
<g id="N-DIMENSIONS">
</g>
<g id="N-TEXT">
</g>
<g id="_x32_D_x24_AG-DIAGRAM">
</g>
<g id="_x32_D_x24_AG-DETAILS-DIAGRAM">
	<g id="POLYLINE_00000060010933633736041040000004143077962857772688_">
		<g>
			
				<path fill="none" stroke="#FB8604" stroke-width="2.5" stroke-linecap="round" stroke-linejoin="round" stroke-dasharray="3.035,5.0584" d="
				M397.769,167.921c-2.428-4.023-5.512-7.784-9.523-10.309c-5.803-3.653-13.702-4.574-19.831-1.201
				c-7.844,4.411-8.111,14.733-7.108,22.664c1.897,13.336,7.944,26.157,17.209,35.955c5.677,5.789,12.39,11.383,20.474,13.195
				c11.417,2.547,10.737-13.274,10.083-20.669c-0.18-2.068-0.465-4.46-0.758-6.516C406.591,189.575,403.684,177.989,397.769,167.921
				L397.769,167.921z"/>
		</g>
	</g>
	<g id="POLYLINE_00000144323984672061672980000000191910827301177790_">
		<g>
			
				<path fill="none" stroke="#FB8604" stroke-width="2.5" stroke-linecap="round" stroke-linejoin="round" stroke-dasharray="3.0242,5.0403" d="
				M331.725,205.365c-1.211,10.843-6.971,28.404-19.713,29.517c-12.392-0.03-18.817-13.458-21.219-23.953
				c-3.322-13.727-4.223-43.254,9.788-51.182c10.053-5.237,20.724,2.462,25.199,11.522
				C331.214,181.642,332.918,193.787,331.725,205.365L331.725,205.365z"/>
		</g>
	</g>
	<g id="POLYLINE_00000041992244369312725980000006130150952313631640_">
		<g>
			<g>
				<path fill="none" stroke="#FB8604" stroke-width="2.5" stroke-linecap="round" stroke-linejoin="round" d="M322.527,242.821
					c0.384,0.319,0.765,0.641,1.142,0.968"/>
				
					<path fill="none" stroke="#FB8604" stroke-width="2.5" stroke-linecap="round" stroke-linejoin="round" stroke-dasharray="3.102,5.1699" d="
					M327.449,247.32c3.478,3.52,6.527,7.462,8.796,11.865c4.387,8.505,6.145,18.297,5.559,27.818
					c-0.212,3.247-0.725,6.507-1.554,9.654c-1.025,4.022-3.328,9.551-4.804,13.467c-0.986,2.696-1.923,5.479-2.261,8.34
					c-0.289,2.401-0.059,4.925,1.056,7.1c0.741,1.452,1.783,2.702,2.977,3.801"/>
				<path fill="none" stroke="#FB8604" stroke-width="2.5" stroke-linecap="round" stroke-linejoin="round" d="M339.227,330.992
					c0.406,0.294,0.818,0.576,1.234,0.847"/>
			</g>
		</g>
	</g>
	<g id="POLYLINE_00000033368016571753430920000001378180014739136133_">
		<g>
			<g>
				<path fill="none" stroke="#FB8604" stroke-width="2.5" stroke-linecap="round" stroke-linejoin="round" d="M410.789,335.177
					c0.408-0.286,0.808-0.587,1.197-0.902"/>
				
					<path fill="none" stroke="#FB8604" stroke-width="2.5" stroke-linecap="round" stroke-linejoin="round" stroke-dasharray="2.9449,4.9082" d="
					M415.396,330.755c0.827-1.111,1.521-2.318,2.04-3.61c1.519-3.749,1.528-7.965,0.661-11.874
					c-0.809-3.607-2.355-7.059-4.501-10.068c-1.582-2.22-3.558-4.164-5.595-5.964c-3.58-3.109-8-6.577-10.783-10.407
					c-3.42-4.626-5.351-10.227-6.288-15.864c-0.617-3.854-0.745-7.827-0.181-11.695c0.421-2.854,1.245-5.68,2.651-8.209
					c3.172-5.733,8.7-9.492,14.514-12.315"/>
				<path fill="none" stroke="#FB8604" stroke-width="2.5" stroke-linecap="round" stroke-linejoin="round" d="M410.134,239.717
					c0.459-0.204,0.918-0.403,1.376-0.598"/>
			</g>
		</g>
	</g>
</g>
<g id="_x32_D_x24_AG-DETAILS">
</g>
<g id="_x32_D_x24_AG-ANIMALS">
	<g id="POLYLINE_00000017500622337452792570000001045075659266689470_">
		
			<path fill="none" stroke="#FB8604" stroke-width="2.75" stroke-linecap="round" stroke-linejoin="round" stroke-miterlimit="10" d="
			M459.583,465.084c4.21-15.802,6.2-32.315,5.448-48.664c-0.661-15.013-3.613-30.079-7.382-44.602
			c-6.605-24.803-15.588-49.353-28.127-71.794"/>
	</g>
	<g id="POLYLINE_00000114774795749851439300000007069137584902762658_">
		
			<path fill="none" stroke="#FB8604" stroke-width="2.75" stroke-linecap="round" stroke-linejoin="round" stroke-miterlimit="10" d="
			M411.157,471.298c4.699,0.155,9.492,1.674,13.002,4.886c1.574,1.43,2.827,3.194,3.786,5.086c2.345,4.691,3.204,9.983,3.826,15.143
			c0.674,5.138,1.811,27.924,2.19,33.503c0.912,13.217,2.294,27.35,4.3,40.43c3.024,20.147,8.021,40.474,13.826,59.994
			c1.589,5.2,3.361,11.052,5.317,16.126c0,0,0.16,0.398,0.16,0.398s0.15,0.363,0.15,0.363l0.141,0.327c0,0,0.067,0.15,0.067,0.15
			s0.064,0.141,0.064,0.141s0.062,0.132,0.062,0.132s0.059,0.122,0.059,0.122s0.057,0.113,0.057,0.113l0.027,0.053
			c0,0,0.027,0.05,0.027,0.05s0.026,0.048,0.026,0.048s0.025,0.046,0.025,0.046s0.025,0.043,0.025,0.043s0.024,0.041,0.024,0.041
			s0.023,0.038,0.023,0.038s0.023,0.036,0.023,0.036l0.022,0.034l0.021,0.031l0.021,0.029l0.02,0.026l0.019,0.024l0.018,0.021
			l0.018,0.018l0.017,0.016l0.016,0.013l0.016,0.011l0.01,0.006l0.01,0.005l0.01,0.004l0.009,0.002l0.009,0.001l0.009,0l0.008-0.001
			l0.008-0.003l0.008-0.004l0.007-0.005l0.007-0.006l0.007-0.007l0.006-0.009l0.006-0.01l0.006-0.011l0.005-0.012l0.005-0.013
			l0.005-0.015l0.004-0.016l0.004-0.017l0.004-0.018l0.003-0.019l0.003-0.02l0.003-0.022l0.003-0.023
			c0.015-0.152,0.009-0.321,0.001-0.475c-0.046-0.772-0.18-1.652-0.292-2.422c-1.527-9.367-3.571-20.924-4.528-30.297
			c-3.227-31.027-3.027-62.771-0.244-93.826"/>
	</g>
	<g id="POLYLINE_00000100360726526125849310000002009778271458129838_">
		
			<path fill="none" stroke="#FB8604" stroke-width="2.75" stroke-linecap="round" stroke-linejoin="round" stroke-miterlimit="10" d="
			M361.787,514.287c5.651-10.203,12.419-19.973,20.595-28.321c4.283-4.339,9.025-8.371,14.458-11.193"/>
	</g>
	<g id="POLYLINE_00000162323494969931760240000008390348099224815513_">
		
			<path fill="none" stroke="#FB8604" stroke-width="2.75" stroke-linecap="round" stroke-linejoin="round" stroke-miterlimit="10" d="
			M323.571,466.163c1.497,0.232,3.16,0.322,4.599,0.808c0.872,0.283,1.704,0.713,2.417,1.292c1.373,1.121,2.329,2.667,3.123,4.23
			c1.626,3.296,2.59,6.916,3.337,10.502c2.046,10.158,2.063,20.681,1.283,30.98c-0.443,5.801-1.238,12.388-2.04,18.156
			c-3.492,24.199-9.876,58.982-12.628,83.125c0,0-0.128,1.346-0.128,1.346s-0.099,1.211-0.099,1.211s-0.038,0.552-0.038,0.552
			s-0.03,0.516-0.03,0.516s-0.022,0.478-0.022,0.478s-0.014,0.44-0.014,0.44c-0.008,0.516-0.018,1.08,0.06,1.595l0.009,0.052
			l0.009,0.049l0.01,0.047l0.011,0.044l0.011,0.041l0.012,0.038l0.012,0.036l0.013,0.033l0.014,0.03l0.014,0.027l0.015,0.024
			l0.015,0.021l0.01,0.012l0.01,0.01l0.01,0.009l0.01,0.008l0.011,0.007l0.011,0.006l0.011,0.005l0.011,0.004l0.012,0.003
			l0.012,0.002l0.012,0.001h0.012l0.012-0.001l0.013-0.002l0.013-0.003l0.013-0.004l0.013-0.005l0.013-0.006l0.014-0.007
			l0.014-0.008l0.014-0.009l0.014-0.01l0.014-0.011l0.015-0.012l0.015-0.013l0.015-0.014l0.015-0.015l0.016-0.016l0.016-0.017
			l0.016-0.018l0.016-0.019c0.153-0.187,0.272-0.405,0.385-0.617c0.504-0.988,0.907-2.097,1.291-3.138
			c6.151-18.255,14.811-51.711,21.346-69.681"/>
	</g>
	<g id="POLYLINE_00000168798914544611757410000003914261086990520766_">
		
			<path fill="none" stroke="#FB8604" stroke-width="2.75" stroke-linecap="round" stroke-linejoin="round" stroke-miterlimit="10" d="
			M304.658,381.101c-7.992,25.975-22.358,76.186-29.506,102.409c-2.434,9.116-12.821,49.42-15.341,57.525
			c-2.543,8.531-5.499,17.444-8.873,25.668c-2.996,7.302-6.486,14.6-10.507,21.389c-9.978,17.047-24.332,31.373-38.609,44.855
			c-0.458,0.462-0.959,0.936-1.355,1.452l-0.022,0.031l-0.02,0.029l-0.018,0.028l-0.016,0.026l-0.014,0.025l-0.012,0.023
			l-0.01,0.022l-0.008,0.02l-0.006,0.019l-0.004,0.017l-0.002,0.015l0,0.014l0.002,0.012l0.004,0.011l0.006,0.009l0.008,0.008
			l0.011,0.006l0.013,0.005l0.015,0.003l0.017,0.001l0.011,0l0.012,0l0.012-0.001l0.013-0.002l0.014-0.002l0.015-0.003l0.015-0.003
			l0.016-0.004l0.017-0.004c0.528-0.17,1.047-0.494,1.534-0.762c4.487-2.667,9.217-6.019,13.505-9.018
			c9.971-7.076,19.872-14.671,28.089-23.773c4.438-4.885,8.474-10.288,11.917-15.918c4.397-7.173,8.181-14.978,11.563-22.68
			c2.716-6.152,5.809-14.084,8.226-20.393c5.751-15.591,18.552-48.975,23.559-64.472"/>
	</g>
	<g id="POLYLINE_00000150103968492160693190000018046840468926219179_">
		
			<path fill="none" stroke="#FB8604" stroke-width="2.75" stroke-linecap="round" stroke-linejoin="round" stroke-miterlimit="10" d="
			M408.241,381.959l7.741,20.013c12.273,33.094,31.732,104.971,44.085,137.97c2.93,7.695,6.319,15.489,10.243,22.731
			c3.496,6.459,7.544,12.703,12.101,18.466c8.24,10.444,18.337,19.387,28.88,27.442c4.506,3.384,9.201,6.768,14.089,9.58
			c0.916,0.496,1.877,1.058,2.882,1.358l0.044,0.011l0.043,0.01l0.041,0.008l0.039,0.007l0.037,0.006l0.036,0.004l0.034,0.003
			l0.032,0.002l0.03,0l0.028-0.001l0.027-0.002l0.025-0.004l0.023-0.005l0.021-0.006l0.013-0.005l0.012-0.005l0.011-0.006
			l0.01-0.007l0.01-0.007l0.009-0.008l0.008-0.008l0.007-0.009l0.006-0.01l0.006-0.01l0.005-0.011l0.004-0.011l0.003-0.012
			l0.003-0.012l0.002-0.013l0.001-0.013l0-0.014l0-0.015l-0.001-0.015l-0.002-0.016l-0.002-0.016l-0.003-0.017l-0.004-0.017
			l-0.005-0.018l-0.005-0.018l-0.006-0.019l-0.007-0.02l-0.007-0.02l-0.008-0.021l-0.009-0.021c-0.234-0.495-0.612-0.93-0.953-1.355
			c-3.683-4.2-9.14-9.835-12.588-14.157c-7.168-8.815-13.263-18.63-18.596-28.648c-10.54-19.891-18.509-41.455-24.988-62.989
			c-9.406-31.459-16.282-64.963-21.802-97.338l-11.164-71.747c-2.81-16.659-6.111-33.845-11.288-49.921
			c-1.674-5.115-3.578-10.336-6.004-15.143c-2.135-4.308-5.077-8.542-7.884-12.45"/>
	</g>
	<g id="POLYLINE_00000090265131287388919370000003395188174730621878_">
		
			<path fill="none" stroke="#FB8604" stroke-width="2.75" stroke-linecap="round" stroke-linejoin="round" stroke-miterlimit="10" d="
			M377.132,379.716c6.585,38.734,20.856,99.923,29.627,138.833c4.15,18.841,11.113,61.491,15.116,80.655
			c0.318,1.385,0.684,3,1.111,4.351c0.11,0.336,0.229,0.691,0.382,1.01l0.025,0.049l0.024,0.046l0.024,0.043l0.024,0.04l0.023,0.037
			l0.023,0.034l0.023,0.03l0.022,0.027l0.022,0.024l0.021,0.021l0.008,0.007l0.008,0.006l0.007,0.006l0.007,0.005l0.007,0.005
			l0.007,0.005l0.007,0.004l0.007,0.004l0.007,0.003l0.007,0.003l0.007,0.003l0.007,0.002l0.007,0.002l0.007,0.001l0.007,0.001
			l0.007,0l0.007,0l0.007,0l0.007-0.001l0.007-0.001l0.007-0.001l0.007-0.002l0.007-0.002l0.007-0.003l0.006-0.003l0.006-0.003
			l0.006-0.004l0.006-0.004l0.006-0.005l0.006-0.005l0.006-0.005l0.006-0.006l0.006-0.006l0.006-0.006l0.006-0.007l0.006-0.007
			l0.006-0.008l0.006-0.008l0.006-0.008l0.006-0.009l0.006-0.009l0.006-0.009l0.006-0.01l0.006-0.01
			c0.107-0.215,0.146-0.459,0.187-0.694c0.222-1.646,0.177-3.391,0.162-5.051c-0.274-15.98-8.549-79.421-10.229-96.346
			c-3.242-32.579-5.83-66.827-5.983-99.555c-0.154-28.696,1.676-58.888,4.531-87.445"/>
	</g>
	<g id="POLYLINE_00000087369934286501069050000001135403555386755468_">
		
			<path fill="none" stroke="#FB8604" stroke-width="2.75" stroke-linecap="round" stroke-linejoin="round" stroke-miterlimit="10" d="
			M330.605,277.482c-5.792,13.654-10.828,28.662-15.203,42.85c-3.909,12.823-7.396,26.076-9.221,39.359
			c-2.784,18.979-0.868,43.167-1.381,62.369c-0.292,16.632-2.333,33.765-4.968,50.189c-4.108,25.411-10.112,52.071-16.407,77.054
			c-3.17,12.22-6.48,25.271-10.971,37.064c-1.907,4.837-4.017,9.739-7.162,13.914c-2.723,3.623-6.379,6.437-10.214,8.797
			c-4.361,2.78-11.901,6.412-16.323,9.108c-0.46,0.276-0.955,0.612-1.388,0.934c-0.235,0.178-0.478,0.381-0.668,0.608l-0.018,0.023
			l-0.017,0.023l-0.016,0.022l-0.015,0.022l-0.014,0.022l-0.013,0.021l-0.012,0.021l-0.012,0.021l-0.011,0.02l-0.01,0.02
			l-0.009,0.02l-0.008,0.019L236.536,620l-0.006,0.019l-0.005,0.018l-0.003,0.018l-0.002,0.018l-0.001,0.017l0,0.017l0.001,0.017
			l0.002,0.016l0.003,0.019l0.005,0.018l0.006,0.018l0.008,0.017l0.009,0.017l0.011,0.016l0.012,0.016l0.013,0.016l0.015,0.015
			l0.016,0.015l0.018,0.014l0.019,0.014l0.02,0.013l0.022,0.013l0.023,0.012l0.024,0.012l0.026,0.011l0.027,0.011l0.029,0.01
			l0.03,0.01l0.031,0.009l0.032,0.009l0.034,0.008l0.035,0.008l0.036,0.008c0.773,0.128,1.576,0.025,2.349-0.059
			c3.464-0.472,6.919-1.468,10.241-2.542c5.896-1.972,11.702-4.496,16.935-7.873c4.744-3.07,9.01-6.927,12.643-11.25
			c10.021-11.993,15.68-26.997,21.011-41.506c11.516-32.274,19.67-66.067,24.763-99.942c2.419-16.679,7.062-54.691,10.446-70.636
			c1.619-7.984,3.781-16.054,6.468-23.746"/>
	</g>
	<g id="POLYLINE_00000061439343561176878800000017624127344655466162_">
		
			<path fill="none" stroke="#FB8604" stroke-width="2.75" stroke-linecap="round" stroke-linejoin="round" stroke-miterlimit="10" d="
			M343.658,311.097c-1.029,6.002-2.693,14.315-3.151,20.208c-0.433,4.765-0.462,9.699-0.207,14.48
			c0.333,6.896,1.467,16.103,2.306,23.05c2.131,16.764,4.883,37.152,5.666,53.878c1.509,29.545-1.911,62.314-2.471,91.898
			c-0.174,10.317,0.04,21.131,0.957,31.399c1.242,14.821,3.921,30.469,6.796,45.083c1.177,5.395,13.169,65.038,14.354,68.89
			c0,0,0.213,0.78,0.213,0.78s0.102,0.357,0.102,0.357s0.099,0.335,0.099,0.335s0.097,0.312,0.097,0.312l0.094,0.288l0.046,0.135
			c0,0,0.045,0.129,0.045,0.129s0.044,0.123,0.044,0.123s0.044,0.117,0.044,0.117s0.043,0.111,0.043,0.111s0.042,0.105,0.042,0.105
			s0.041,0.098,0.041,0.098l0.02,0.047c0,0,0.02,0.045,0.02,0.045s0.02,0.044,0.02,0.044s0.02,0.042,0.02,0.042s0.02,0.04,0.02,0.04
			s0.019,0.039,0.019,0.039s0.019,0.037,0.019,0.037l0.019,0.035l0.019,0.034c0,0,0.019,0.032,0.019,0.032l0.018,0.031l0.018,0.029
			l0.018,0.027l0.018,0.025l0.018,0.024l0.017,0.022l0.017,0.02l0.017,0.019l0.017,0.017l0.017,0.015l0.016,0.013l0.016,0.012
			l0.016,0.01l0.016,0.008l0.016,0.007l0.015,0.005l0.011,0.002l0.011,0.001l0.011,0l0.011,0l0.011-0.001l0.011-0.002l0.01-0.003
			l0.01-0.004l0.01-0.005l0.01-0.006l0.01-0.007l0.01-0.008l0.01-0.009l0.01-0.009l0.01-0.01l0.009-0.011l0.009-0.012l0.009-0.013
			l0.009-0.014l0.009-0.015l0.009-0.016l0.009-0.016l0.009-0.017l0.009-0.018l0.009-0.019l0.008-0.02l0.008-0.021
			c0.085-0.224,0.126-0.467,0.164-0.704c0.097-0.661,0.131-1.375,0.157-2.044c0.158-8.556-0.742-18.187-1.463-26.743
			c-1.719-17.488-6.133-55.875-6.74-72.845c-0.585-12.416-0.642-25.405-0.237-37.827c0.43-13.272,1.52-28.344,2.788-41.573
			c5.476-52.113,14.75-114.968,22.374-166.964"/>
	</g>
	<g id="POLYLINE_00000036243503658045313900000015057659856985631885_">
		
			<path fill="none" stroke="#FB8604" stroke-width="2.75" stroke-linecap="round" stroke-linejoin="round" stroke-miterlimit="10" d="
			M336.455,283.317l-2.619-2.813c-1.554-1.627-3.234-3.187-5.139-4.396c-1.693-1.094-3.596-1.859-5.495-2.517l-6.494-2.146
			c-3.347-1.165-6.646-2.615-9.601-4.587c-2.803-1.855-5.313-4.176-7.576-6.652c-5.258-5.816-9.385-12.609-12.78-19.653
			c-4.98-10.463-8.425-21.754-9.771-33.275c-2.457-20.489,2.069-40.984,10.928-59.475c7.264-15.084,18.427-30.992,33.711-38.666
			c12.234-6.153,26.339-5.449,38.961-0.839c21.556,7.89,37.996,25.548,49.732,44.772c11.244,18.553,18.735,39.5,21.27,61.07
			c0.824,7.112,1.178,14.427,0.673,21.575c-0.319,4.147-0.873,8.349-2.215,12.301c-0.574,1.658-1.318,3.273-2.285,4.74
			c-0.767,1.168-1.68,2.247-2.69,3.213c-1.826,1.802-4.99,3.87-7.086,5.396c-1.641,1.208-3.252,2.524-4.535,4.117
			c-2.064,2.544-3.361,5.625-4.312,8.736"/>
	</g>
</g>
<g id="_x32_D_x24_AG-OUTLINE">
	<g id="POLYLINE_00000173865173465135621400000011437328708848137115_">
		
			<path fill="none" stroke="#FB8604" stroke-width="3.5" stroke-linecap="round" stroke-linejoin="round" stroke-miterlimit="10" d="
			M304.658,381.101c-7.992,25.975-22.358,76.186-29.506,102.409c-2.434,9.116-12.821,49.42-15.341,57.525
			c-2.543,8.531-5.499,17.444-8.873,25.668c-2.996,7.302-6.486,14.6-10.507,21.389c-9.978,17.047-24.332,31.373-38.609,44.855
			c-0.458,0.462-0.959,0.936-1.355,1.452l-0.022,0.031l-0.02,0.029l-0.018,0.028l-0.016,0.026l-0.014,0.025l-0.012,0.023
			l-0.01,0.022l-0.008,0.02l-0.006,0.019l-0.004,0.017l-0.002,0.015l0,0.014l0.002,0.012l0.004,0.011l0.006,0.009l0.008,0.008
			l0.011,0.006l0.013,0.005l0.015,0.003l0.017,0.001l0.011,0l0.012,0l0.012-0.001l0.013-0.002l0.014-0.002l0.015-0.003l0.015-0.003
			l0.016-0.004l0.017-0.004c0.528-0.17,1.047-0.494,1.534-0.762c4.487-2.667,9.217-6.019,13.505-9.018
			c9.971-7.076,19.872-14.671,28.089-23.773c4.438-4.885,8.474-10.288,11.917-15.918c4.397-7.173,8.181-14.978,11.563-22.68
			c2.716-6.152,5.809-14.084,8.226-20.393c5.751-15.591,18.552-48.975,23.559-64.472c-4.894,28.335-11.84,58.256-19.3,86.035
			c-2.531,9.001-5.235,18.451-8.978,27.012c-1.794,4.031-3.873,8.047-6.847,11.343c-2.492,2.791-5.558,5.038-8.728,6.999
			c-4.35,2.734-11.908,6.445-16.323,9.108c-0.685,0.439-1.527,0.939-2.056,1.542l-0.018,0.023l-0.017,0.023l-0.016,0.022
			l-0.015,0.022l-0.014,0.022l-0.013,0.021l-0.012,0.021l-0.012,0.021l-0.011,0.02l-0.01,0.02l-0.009,0.02l-0.008,0.019L236.536,620
			l-0.006,0.019l-0.005,0.018l-0.003,0.018l-0.002,0.018l-0.001,0.017l0,0.017l0.001,0.017l0.002,0.016l0.003,0.019l0.005,0.018
			l0.006,0.018l0.008,0.017l0.009,0.017l0.011,0.016l0.012,0.016l0.013,0.016l0.015,0.015l0.016,0.015l0.018,0.014l0.019,0.014
			l0.02,0.013l0.022,0.013l0.023,0.012l0.024,0.012l0.026,0.011l0.027,0.011l0.029,0.01l0.03,0.01l0.031,0.009l0.032,0.009
			l0.034,0.008l0.035,0.008l0.036,0.008c0.773,0.128,1.576,0.025,2.349-0.059c3.464-0.472,6.919-1.468,10.241-2.542
			c5.896-1.972,11.702-4.496,16.935-7.873c4.744-3.07,9.01-6.927,12.643-11.25c10.021-11.993,15.68-26.997,21.011-41.506
			c10.511-29.446,18.229-60.244,23.365-91.076c1.497,0.232,3.16,0.322,4.599,0.808c0.872,0.283,1.704,0.713,2.417,1.292
			c1.373,1.121,2.329,2.667,3.123,4.23c1.626,3.296,2.59,6.916,3.337,10.502c2.046,10.158,2.063,20.681,1.283,30.98
			c-0.443,5.801-1.238,12.388-2.04,18.156c-3.492,24.199-9.876,58.982-12.628,83.125c0,0-0.128,1.346-0.128,1.346
			s-0.099,1.211-0.099,1.211s-0.038,0.552-0.038,0.552s-0.03,0.516-0.03,0.516s-0.022,0.478-0.022,0.478s-0.014,0.44-0.014,0.44
			c-0.008,0.516-0.018,1.08,0.06,1.595l0.009,0.052l0.009,0.049l0.01,0.047l0.011,0.044l0.011,0.041l0.012,0.038l0.012,0.036
			l0.013,0.033l0.014,0.03l0.014,0.027l0.015,0.024l0.015,0.021l0.01,0.012l0.01,0.01l0.01,0.009l0.01,0.008l0.011,0.007
			l0.011,0.006l0.011,0.005l0.011,0.004l0.012,0.003l0.012,0.002l0.012,0.001h0.012l0.012-0.001l0.013-0.002l0.013-0.003
			l0.013-0.004l0.013-0.005l0.013-0.006l0.014-0.007l0.014-0.008l0.014-0.009l0.014-0.01l0.014-0.011l0.015-0.012l0.015-0.013
			l0.015-0.014l0.015-0.015l0.016-0.016l0.016-0.017l0.016-0.018l0.016-0.019c0.153-0.187,0.272-0.405,0.385-0.617
			c0.504-0.988,0.907-2.097,1.291-3.138c6.151-18.255,14.811-51.711,21.346-69.681c1.165,12.556,3.352,25.969,5.724,38.373
			c1.279,5.882,14.033,69.529,15.223,73.333c0.294,1.039,0.601,2.342,1.105,3.286l0.018,0.031l0.018,0.029l0.018,0.027l0.018,0.025
			l0.018,0.024l0.017,0.022l0.017,0.02l0.017,0.019l0.017,0.017l0.017,0.015l0.016,0.013l0.016,0.012l0.016,0.01l0.016,0.008
			l0.016,0.007l0.015,0.005l0.011,0.002l0.011,0.001l0.011,0l0.011,0l0.011-0.001l0.011-0.002l0.01-0.003l0.01-0.004l0.01-0.005
			l0.01-0.006l0.01-0.007l0.01-0.008l0.01-0.009l0.01-0.009l0.01-0.01l0.009-0.011l0.009-0.012l0.009-0.013l0.009-0.014l0.009-0.015
			l0.009-0.016l0.009-0.016l0.009-0.017l0.009-0.018l0.009-0.019l0.008-0.02l0.008-0.021c0.085-0.224,0.126-0.467,0.164-0.704
			c0.097-0.661,0.131-1.375,0.157-2.044c0.158-8.556-0.742-18.187-1.463-26.743c-1.8-18.298-6.256-56.764-6.819-74.609
			c-0.632-14.677-0.515-30.242,0.203-44.913c5.651-10.203,12.419-19.973,20.595-28.321c4.283-4.339,9.025-8.371,14.458-11.193
			c3.393,14.633,9.352,40.192,12.146,54.701c1.408,7.288,11.701,65.438,13.195,71.065c0.336,1.32,0.637,2.78,1.187,4.027
			l0.025,0.049l0.024,0.046l0.024,0.043l0.024,0.04l0.023,0.037l0.023,0.034l0.023,0.03l0.022,0.027l0.022,0.024l0.021,0.021
			l0.008,0.007l0.008,0.006l0.007,0.006l0.007,0.005l0.007,0.005l0.007,0.005l0.007,0.004l0.007,0.004l0.007,0.003l0.007,0.003
			l0.007,0.003l0.007,0.002l0.007,0.002l0.007,0.001l0.007,0.001l0.007,0l0.007,0l0.007,0l0.007-0.001l0.007-0.001l0.007-0.001
			l0.007-0.002l0.007-0.002l0.007-0.003l0.006-0.003l0.006-0.003l0.006-0.004l0.006-0.004l0.006-0.005l0.006-0.005l0.006-0.005
			l0.006-0.006l0.006-0.006l0.006-0.006l0.006-0.007l0.006-0.007l0.006-0.008l0.006-0.008l0.006-0.008l0.006-0.009l0.006-0.009
			l0.006-0.009l0.006-0.01l0.006-0.01c0.107-0.215,0.146-0.459,0.187-0.694c0.222-1.646,0.177-3.391,0.162-5.051
			c-0.272-15.965-8.682-80.693-10.358-97.637c-0.752-7.506-2.116-22.632-2.721-30.153c4.699,0.155,9.492,1.674,13.002,4.886
			c1.574,1.43,2.827,3.194,3.786,5.086c2.345,4.691,3.204,9.983,3.826,15.143c0.674,5.138,1.811,27.924,2.19,33.503
			c0.912,13.217,2.294,27.35,4.3,40.43c3.024,20.147,8.021,40.474,13.826,59.994c1.589,5.2,3.361,11.052,5.317,16.126
			c0,0,0.16,0.398,0.16,0.398s0.15,0.363,0.15,0.363s0.141,0.327,0.141,0.327l0.067,0.15c0,0,0.064,0.141,0.064,0.141
			s0.062,0.132,0.062,0.132s0.059,0.122,0.059,0.122s0.057,0.113,0.057,0.113l0.027,0.053c0,0,0.027,0.05,0.027,0.05
			s0.026,0.048,0.026,0.048s0.025,0.046,0.025,0.046l0.025,0.043c0,0,0.024,0.041,0.024,0.041s0.023,0.038,0.023,0.038
			s0.023,0.036,0.023,0.036l0.022,0.034l0.021,0.031l0.021,0.029l0.02,0.026l0.019,0.024l0.018,0.021l0.018,0.018l0.017,0.016
			l0.016,0.013l0.016,0.011l0.01,0.006l0.01,0.005l0.01,0.004l0.009,0.002l0.009,0.001l0.009,0l0.008-0.001l0.008-0.003l0.008-0.004
			l0.007-0.005l0.007-0.006l0.007-0.007l0.006-0.009l0.006-0.01l0.006-0.011l0.005-0.012l0.005-0.013l0.005-0.015l0.004-0.016
			l0.004-0.017l0.004-0.018l0.003-0.019l0.003-0.02l0.003-0.022l0.003-0.023c0.015-0.152,0.009-0.321,0.001-0.475
			c-0.046-0.772-0.18-1.652-0.292-2.422c-1.527-9.367-3.571-20.924-4.528-30.297c-3.227-31.027-3.027-62.771-0.244-93.826
			c4.282,13.074,9.01,26.4,15.345,38.63c4.326,8.365,9.517,16.388,15.575,23.603c8.216,9.784,18.018,18.255,28.215,25.909
			c4.033,2.974,8.247,5.965,12.597,8.459c0.92,0.498,1.874,1.057,2.882,1.358l0.044,0.011l0.043,0.01l0.041,0.008l0.039,0.007
			l0.037,0.006l0.036,0.004l0.034,0.003l0.032,0.002l0.03,0l0.028-0.001l0.027-0.002l0.025-0.004l0.023-0.005l0.021-0.006
			l0.013-0.005l0.012-0.005l0.011-0.006l0.01-0.007l0.01-0.007l0.009-0.008l0.008-0.008l0.007-0.009l0.006-0.01l0.006-0.01
			l0.005-0.011l0.004-0.011l0.003-0.012l0.003-0.012l0.002-0.013l0.001-0.013l0-0.014l0-0.015l-0.001-0.015l-0.002-0.016
			l-0.002-0.016l-0.003-0.017l-0.004-0.017l-0.005-0.018l-0.005-0.018l-0.006-0.019l-0.007-0.02l-0.007-0.02l-0.008-0.021
			l-0.009-0.021c-0.169-0.371-0.44-0.708-0.689-1.029c-0.65-0.898-6.703-7.376-7.584-8.368c-5.18-5.683-9.995-11.93-14.204-18.366
			c-9.748-14.872-17.423-31.263-23.891-47.803c-9.771-25.231-16.926-52.118-22.822-78.507c4.21-15.802,6.2-32.315,5.448-48.664
			c-0.661-15.013-3.613-30.079-7.382-44.602c-6.605-24.803-15.588-49.353-28.127-71.794c-2.061-7.134-4.396-14.403-7.609-21.105
			c-2.231-4.716-5.357-9.278-8.408-13.509c1.272-1.56,2.86-2.854,4.475-4.043c2.347-1.711,5.624-3.816,7.616-5.924
			c1.281-1.316,2.363-2.832,3.196-4.469c1.733-3.412,2.514-7.235,3.033-11c1.017-7.902,0.765-16.015-0.03-23.928
			c-2.312-22.24-9.906-43.875-21.482-62.974c-11.576-18.96-27.703-36.374-48.833-44.438c-12.849-4.899-27.323-5.8-39.86,0.506
			c-14.709,7.385-25.533,22.345-32.778,36.758c-9.305,18.645-14.261,39.544-11.97,60.398c1.227,11.552,4.581,22.889,9.479,33.41
			c3.354,7.12,7.446,13.99,12.656,19.916c2.403,2.703,5.08,5.236,8.102,7.238c2.954,1.972,6.253,3.424,9.601,4.587l6.494,2.146
			c1.399,0.489,2.827,1.035,4.138,1.728c1.152,0.608,2.25,1.347,3.264,2.163c-6.627,15.7-12.209,32.688-17.045,49.031
			c-3.126,10.812-5.842,22.023-7.378,33.178C305.192,366.714,304.764,374.008,304.658,381.101z"/>
	</g>
</g>
</svg>
